<REAPER_PROJECT 0.1 "4.22/x64"
  RIPPLE 0
  GROUPOVERRIDE 0 1 0
  AUTOXFADE 1
  ENVATTACH 1
  MIXERUIFLAGS 11 48
  PEAKGAIN 1.00000000000000
  FEEDBACK 0
  PANLAW 1.00000000000000
  PROJOFFS 0.00000000000000 0
  MAXPROJLEN 0 600.00000000000000
  GRID 1535 8 1.00000000000000 8 1.00000000000000 0
  TIMEMODE 1 0 -1
  CURSOR 1.21515627263566
  ZOOM 130.84736801393549 0 0
  VZOOMEX 6
  USE_REC_CFG 0
  RECMODE 1
  SMPTESYNC 0 30.000000 100 40 1000 300 0 0.000000 0
  LOOP 0
  LOOPGRAN 0 4.00000000000000
  RECORD_PATH "" ""
  <RECORD_CFG
    ZXZhdxgA
  >
  <APPLYFX_CFG
  >
  RENDER_FILE ""
  RENDER_PATTERN ""
  RENDER_FMT 0 2 0
  RENDER_1X 0
  RENDER_RANGE 1 0.00000000000000 0.00000000000000
  RENDER_RESAMPLE 3 0 1
  RENDER_ADDTOPROJ 0
  RENDER_STEMS 0
  RENDER_DITHER 0
  TIMELOCKMODE 0
  ITEMMIX 0
  DEFPITCHMODE 0
  TAKELANE 1
  SAMPLERATE 44100 0 0
  <RENDER_CFG
  >
  LOCK 1
  <METRONOME 6 2.000000
    VOL 0.752735 0.723913
    FREQ 800 1600 0
    BEATLEN 4
    SAMPLES "" ""
  >
  GLOBAL_AUTO -1
  TEMPO 120.00000000000000 4 4
  PLAYRATE 1.00000000000000 0 0.25000 4.00000
  SELECTION 153.38108369297896 153.41455409787193
  SELECTION2 153.38108369297896 153.41455409787193
  MASTERAUTOMODE 0
  MASTERTRACKHEIGHT 0
  MASTERPEAKCOL 16576
  MASTERMUTESOLO 0
  MASTERTRACKVIEW 1 0.666700 0.500000 0.500000 -1 -1 -1
  MASTERHWOUT 0 0 1.00000000000000 0.00000000000000 0 0 0 -1.00000000000000
  MASTER_NCH 2 2
  MASTER_VOLUME 1.05925372517729 0.00000000000000 -1.00000000000000 -1.00000000000000 1.00000000000000
  MASTER_FX 1
  MASTER_SEL 0
  <MASTERFXLIST
    SHOW 0
    LASTSEL 0
    DOCKED 0
    BYPASS 0 0
    <VST "VST: W1 Limiter (George Yohng)" "George Yohng_s W1 Limiter.dll" 0 ""
      THdGNO5e7f4CAAAAAQAAAAAAAAACAAAAAAAAAAIAAAABAAAAAAAAAA==
      AgAAAAAAAABMAAAAAQAAAAAAEAAMAACBdGhyZXNoAAD+1Hg/DAAAgQ==
      Y2VpbGluZwD+1Hg/DAAAgXJlbGVhc2UAMEAfPxQAAIFhZGFwdFJlbA==
      ZWFzZQAAAAAAAAAAAAAAgAAAEAAAAA==
    >
    FLOATPOS 24 24 481 152
    FXID {69D45D23-FE06-4141-B0BB-1A6D9443AFA8}
    WAK 0
  >
  <MASTERPLAYSPEEDENV
    ACT 0
    VIS 0 1 1.000000
    LANEHEIGHT 0 0
    ARM 0
    DEFSHAPE 0 -1 -1
  >
  <TEMPOENVEX
    ACT 1
    VIS 1 0 1.000000
    LANEHEIGHT 0 0
    ARM 0
    DEFSHAPE 1 -1 -1
    PT 0.000000000000 147.0000000000 1
    PT 1.632653061224 147.3160307197 1
    PT 3.261803662334 147.3073963423 1
    PT 4.891049755601 148.3585933023 1
    PT 6.508751802095 143.6230189553 1
    PT 8.179793127822 146.6463345456 1
    PT 9.816383641615 148.0756360519 1
    PT 11.437176949677 149.8280104431 1
    PT 13.039013610862 147.2147311912 1
    PT 14.669285242363 146.6463345456 1
    PT 16.305875756156 146.9299831618 1
    PT 17.939306828803 146.7486943086 1
    PT 19.574755792290 147.1282722788 1
    PT 21.205985441648 146.9134759515 1
    PT 22.839600046745 147.5005850381 1
    PT 24.466712237100 146.9299831618 1
    PT 26.100143309747 146.9299831618 1
    PT 27.733574382395 146.6463345456 1
    PT 29.370164896188 146.9299831618 1
    PT 31.003595968836 147.2147311912 1
    PT 32.633867600337 147.5005850381 1
    PT 34.260979790691 146.6463345456 1
    PT 35.897570304485 146.9299831618 1
    PT 37.531001377132 146.6463345456 1
    PT 39.167591890926 147.2147311912 1
    PT 40.797863522427 146.9299831618 1
    PT 42.431294595074 147.5005850381 1
    PT 44.058406785429 146.3637789877 1
    PT 45.698156740369 146.6463345456 1
    PT 47.334747254162 148.0756360519 1
    PT 48.955540562224 146.9299831618 1
    PT 50.588971634872 146.3637789877 1
    PT 52.228721589811 147.2147311912 1
    PT 53.858993221312 146.9299831618 1
    PT 55.492424293960 147.2147311912 1
    PT 57.122695925461 146.3637789878 1
    PT 58.762445880401 147.5005850381 1
    PT 60.389558070755 146.9299831618 1
    PT 62.022989143403 147.5005850381 1
    PT 63.650101333757 147.2147311912 1
    PT 65.280372965258 146.9299831618 1
    PT 66.913804037906 146.3637789877 1
    PT 68.553553992846 147.5005850381 1
    PT 70.180666183200 146.3637789877 1
    PT 71.820416138140 147.2147311912 1
    PT 73.450687769641 147.7875511569 1
    PT 75.074640518849 146.6463345456 1
    PT 76.711231032643 146.9299831618 1
    PT 78.344662105290 147.2147311912 1
    PT 79.974933736791 146.9299831618 1
    PT 81.608364809439 147.2147311912 1
    PT 83.238636440940 146.3637789877 1
    PT 84.878386395880 147.2147311912 1
    PT 86.508658027381 147.2147311912 1
    PT 88.138929658882 146.3637789877 1
    PT 89.778679613822 147.2147311912 1
    PT 91.408951245322 147.2147311912 1
    PT 93.039222876823 146.6463345456 1
    PT 94.675813390617 147.5005850381 1
    PT 96.302925580972 146.9299831618 1
    PT 97.936356653619 146.3637789877 1
    PT 99.576106608559 147.7875511569 1
    PT 101.200059357767 146.6463345456 1
    PT 102.836649871561 147.2147311912 1
    PT 104.466921503062 146.6463345456 1
    PT 106.103512016856 147.7875511569 1
    PT 107.727464766064 146.6463345456 1
    PT 109.364055279858 146.9299831618 1
    PT 110.997486352505 146.6463345456 1
    PT 112.634076866298 147.5005850381 1
    PT 114.261189056653 146.6463345456 1
    PT 115.897779570447 146.9299831618 1
    PT 117.531210643094 147.2147311912 1
    PT 119.161482274595 146.6463345456 1
    PT 120.798072788389 146.9299831618 1
    PT 122.431503861036 145.2947941006 1
    PT 124.083318032946 148.0941176483 1
    PT 125.703909072018 149.4292921558 1
    PT 127.310019872233 151.3699323136 1
    PT 128.895539508344 150.3933521052 1
    PT 130.491354726507 152.8588168938 1
    PT 132.061430989538 152.3592782765 1
    PT 133.636655043596 155.4064638420 1
    PT 135.180992351496 154.8901632977 1
    PT 136.730477450422 157.5065511912 1
    PT 138.254223594217 158.0404717037 1
    PT 139.772821946985 159.6641751802 1
    PT 141.275976926674 159.6641751802 1
    PT 147.288596845430 164.1617575796 1
    PT 148.750569496909 163.5857514126 1
    PT 150.217689939414 164.7418344615 1
    PT 151.674514799866 165.3260253638 1
    PT 153.126191869292 163.0137732609 1
    PT 154.598460102823 165.9143742086 1
    PT 156.044989381222 166.5069255450 1
    PT 157.486370868595 163.5857514126 1
    PT 158.953491311100 165.9143742086 1
    PT 160.400020589500 168.3102496484 1
    PT 161.825958703794 168.3102496484 1
    PT 163.251896818088 165.3260253638 1
    PT 164.703573887514 165.3260253638 1
    PT 166.155250956940 162.4457810195 1
    PT 167.632666981497 162.6449243113 1
    PT 169.108274050185 166.7272311454 1
    PT 170.547750963172 171.4281869108 1
    PT 171.947754103408 170.4669073580 1
    PT 173.355651998194 170.4669073580 1
    PT 174.763549892980 164.3239557415 1
    PT 176.224079484768 164.0284090585 1
    PT 177.687240661405 163.1481134822 1
    PT 179.158296592593 172.4003694452 1
    PT 180.550404978279 167.9554243766 1
    PT 181.979355551865 167.9554243766 1
  >
  <PROJBAY
  >
  <TRACK '{4D889F49-FE1F-4D1D-9FB8-BFD5BA06901A}'
    NAME "SONG AUDIO"
    PEAKCOL 16576
    BEAT -1
    AUTOMODE 0
    VOLPAN 1.00000000000000 0.00000000000000 -1.00000000000000 -1.00000000000000 1.00000000000000
    MUTESOLO 0 2 0
    IPHASE 0
    ISBUS 0 0
    BUSCOMP 0 0
    SHOWINMIX 1 0.666700 0.500000 1 0.500000 -1 -1 -1
    FREEMODE 0
    SEL 0
    REC 0 0 0 0 0 0 0
    TRACKHEIGHT 0 0
    INQ 0 0 0 0.5000000000 100 0 0 100
    NCHAN 2
    FX 1
    TRACKID {4D889F49-FE1F-4D1D-9FB8-BFD5BA06901A}
    PERF 0
    MIDIOUT -1
    MAINSEND 1 0
    <FXCHAIN
      SHOW 0
      LASTSEL 0
      DOCKED 0
      BYPASS 0 0
      <VST "VST: W1 Limiter (George Yohng)" "George Yohng_s W1 Limiter.dll" 0 ""
        THdGNO5e7f4CAAAAAQAAAAAAAAACAAAAAAAAAAIAAAABAAAAAAAAAA==
        AgAAAAAAAABMAAAAAQAAAAAAEAAMAACBdGhyZXNoAAD+1Hg/DAAAgQ==
        Y2VpbGluZwD+1Hg/DAAAgXJlbGVhc2UAMEAfPxQAAIFhZGFwdFJlbA==
        ZWFzZQAAAAAAAAAAAAAAgAAAEAAAAA==
      >
      FLOATPOS 24 24 481 152
      FXID {D32BE511-3942-4A83-B6D7-DF2FE763A2B4}
      WAK 0
    >
    <ITEM
      POSITION 2.67288720978649
      SNAPOFFS 0.00000000000000
      LENGTH 180.31473922902495
      LOOP 0
      ALLTAKES 0
      SEL 0
      FADEIN 1 0.000000 0.000000 1 0
      FADEOUT 1 0.000000 0.000000 1 0
      MUTE 0
      IGUID {B0F43E03-1DD5-41AF-B045-64DD3D48EAB6}
      IID 26
      NAME "01 ICH KOMME.wav"
      VOLPAN 1.000000 0.000000 1.000000 -1.000000
      SOFFS 0.00000000000000
      PLAYRATE 1.00000000000000 1 0.00000000000000 -1
      CHANMODE 0
      GUID {53AF19F6-29CE-45C3-B88F-878FC6B2AB1D}
      <SOURCE WAVE
        FILE "01 ICH KOMME.wav"
      >
    >
  >
  <TRACK '{BDCFF37A-71AC-4D17-AF26-EA560B308842}'
    NAME "COUNTIN"
    PEAKCOL 16576
    BEAT -1
    AUTOMODE 0
    VOLPAN 1.00000000000000 0.00000000000000 -1.00000000000000 -1.00000000000000 1.00000000000000
    MUTESOLO 0 0 0
    IPHASE 0
    ISBUS 0 0
    BUSCOMP 0 0
    SHOWINMIX 1 0.666700 0.500000 1 0.500000 -1 -1 -1
    FREEMODE 0
    SEL 0
    REC 0 0 0 0 0 0 0
    TRACKHEIGHT 0 0
    INQ 0 0 0 0.5000000000 100 0 0 100
    NCHAN 2
    FX 1
    TRACKID {BDCFF37A-71AC-4D17-AF26-EA560B308842}
    PERF 0
    MIDIOUT -1
    MAINSEND 1 0
    <ITEM
      POSITION 0.00000000000000
      SNAPOFFS 0.00000000000000
      LENGTH 0.28216019417451
      LOOP 0
      ALLTAKES 0
      SEL 0
      FADEIN 1 0.000000 0.000000 1 0
      FADEOUT 1 0.000000 0.000000 1 0
      MUTE 0
      IGUID {D829F3DA-0BE5-4277-954B-C2D10DB114A6}
      IID 1
      NAME "stick.wav"
      VOLPAN 0.271028 0.000000 1.000000 -1.000000
      SOFFS 0.00000000000000
      PLAYRATE 1.00000000000052 1 0.00000000000000 -1
      CHANMODE 0
      GUID {3A242298-C3E5-4DC8-9A3C-2EE82D8D2134}
      <SOURCE WAVE
        FILE "C:\Users\wejaa\AppData\Roaming\REAPER\ProjectTemplates\hihat.wav"
      >
    >
    <ITEM
      POSITION 0.81632653061224
      SNAPOFFS 0.00000000000000
      LENGTH 0.28216019417451
      LOOP 0
      ALLTAKES 0
      SEL 0
      FADEIN 1 0.000000 0.000000 1 0
      FADEOUT 1 0.000000 0.000000 1 0
      MUTE 0
      IGUID {5AEC5162-2B2C-4FF2-BB3B-E29ADC0916FE}
      IID 2
      NAME "stick.wav"
      VOLPAN 0.271028 0.000000 1.000000 -1.000000
      SOFFS 0.00000000000000
      PLAYRATE 1.00000000000052 1 0.00000000000000 -1
      CHANMODE 0
      GUID {16E29BEE-96F5-48F0-9FB0-3F04A1AF90D5}
      <SOURCE WAVE
        FILE "C:\Users\wejaa\AppData\Roaming\REAPER\ProjectTemplates\hihat.wav"
      >
    >
    <ITEM
      POSITION 1.63265306122449
      SNAPOFFS 0.00000000000000
      LENGTH 0.28216019417451
      LOOP 0
      ALLTAKES 0
      SEL 0
      FADEIN 1 0.000000 0.000000 1 0
      FADEOUT 1 0.000000 0.000000 1 0
      MUTE 0
      IGUID {1FA8F8C4-F448-4E02-B340-4A6644F6D8AB}
      IID 3
      NAME "stick.wav"
      VOLPAN 0.271028 0.000000 1.000000 -1.000000
      SOFFS 0.00000000000000
      PLAYRATE 1.00000000000052 1 0.00000000000000 -1
      CHANMODE 0
      GUID {8D594F7C-8B39-4D29-A27D-55F46BC65189}
      <SOURCE WAVE
        FILE "C:\Users\wejaa\AppData\Roaming\REAPER\ProjectTemplates\hihat.wav"
      >
    >
    <ITEM
      POSITION 2.04081632653061
      SNAPOFFS 0.00000000000000
      LENGTH 0.28216019417451
      LOOP 0
      ALLTAKES 0
      SEL 0
      FADEIN 1 0.000000 0.000000 1 0
      FADEOUT 1 0.000000 0.000000 1 0
      MUTE 0
      IGUID {1D23FF37-8166-4C8E-915E-19EFDB52B4D8}
      IID 4
      NAME "stick.wav"
      VOLPAN 0.271028 0.000000 1.000000 -1.000000
      SOFFS 0.00000000000000
      PLAYRATE 1.00000000000052 1 0.00000000000000 -1
      CHANMODE 0
      GUID {1D91F480-CA0B-4E03-8204-02893D660CDF}
      <SOURCE WAVE
        FILE "C:\Users\wejaa\AppData\Roaming\REAPER\ProjectTemplates\hihat.wav"
      >
    >
    <ITEM
      POSITION 2.44897959183673
      SNAPOFFS 0.00000000000000
      LENGTH 0.28216019417451
      LOOP 0
      ALLTAKES 0
      SEL 0
      FADEIN 1 0.000000 0.000000 1 0
      FADEOUT 1 0.000000 0.000000 1 0
      MUTE 0
      IGUID {A6BA2F37-4089-4BF2-A73E-A602F32B7614}
      IID 5
      NAME "stick.wav"
      VOLPAN 0.271028 0.000000 1.000000 -1.000000
      SOFFS 0.00000000000000
      PLAYRATE 1.00000000000050 1 0.00000000000000 -1
      CHANMODE 0
      GUID {ABD24FE2-95CA-428E-ADD9-9A13921FCC29}
      <SOURCE WAVE
        FILE "C:\Users\wejaa\AppData\Roaming\REAPER\ProjectTemplates\hihat.wav"
      >
    >
  >
  <TRACK '{8F33A645-3DF2-48FA-99BC-10992A4F8042}'
    NAME "PART DRUMS"
    PEAKCOL 16842751
    BEAT -1
    AUTOMODE 0
    VOLPAN 1.00000000000000 0.00000000000000 -1.00000000000000 -1.00000000000000 1.00000000000000
    MUTESOLO 0 0 0
    IPHASE 0
    ISBUS 0 0
    BUSCOMP 1 0
    SHOWINMIX 1 0.666700 0.500000 1 0.500000 -1 -1 -1
    FREEMODE 0
    SEL 0
    REC 0 4096 1 7 0 0 0
    TRACKHEIGHT 0 0
    INQ 0 0 0 0.5000000000 100 0 0 100
    NCHAN 2
    FX 1
    TRACKID {8F33A645-3DF2-48FA-99BC-10992A4F8042}
    PERF 0
    MIDIOUT -1
    <MIDINOTENAMES
      0 84 "HARD Kick"
      0 96 "EXPERT Kick"
      0 72 "MEDIUM Kick"
      0 60 "EASY Kick"
      0 97 "EXPERT Red"
      0 98 "EXPERT Yellow"
      0 99 "EXPERT Blue"
      0 100 "EXPERT Green"
      0 85 "HARD Red"
      0 86 "HARD Yellow"
      0 87 "HARD Blue"
      0 88 "HARD Green"
      0 73 "MEDIUM Red"
      0 74 "MEDIUM Yellow"
      0 75 "MEDIUM Blue"
      0 76 "MEDIUM Green"
      0 61 "EASY Red"
      0 62 "EASY Yellow"
      0 63 "EASY Blue"
      0 64 "EASY Green"
      0 101 ""
      0 92 "----"
      0 80 "----"
      0 68 "----"
      0 120 "DRUM FILL (use all 5)"
      0 121 "DRUM FILL"
      0 122 "DRUM FILL"
      0 123 "DRUM FILL"
      0 124 "DRUM FILL"
      0 114 "----"
      0 116 "OVERDRIVE"
      0 118 "----"
      0 24 "KICK RF"
      0 25 "HI-HAT OPEN"
      0 26 "SNARE HARD LH"
      0 27 "SNARE HARD RH"
      0 30 "HI-HAT LH"
      0 31 "HI-HAT RH"
      0 32 "PERCUSSION RH"
      0 34 "CRASH1 HARD LH"
      0 35 "CRASH1 SOFT LH"
      0 36 "CRASH1 HARD RH"
      0 37 "CRASH1 SOFT RH"
      0 38 "CRASH2 HARD RH"
      0 39 "CRASH2 SOFT RH"
      0 40 "CRASH1 CHOKE"
      0 41 "CRASH2 CHOKE"
      0 42 "RIDE CYM RH"
      0 46 "TOM1 LH"
      0 47 "TOM1 RH"
      0 48 "TOM2 LH"
      0 49 "TOM2 RH"
      0 50 "FLOOR TOM LH"
      0 51 "FLOOR TOM RH"
      0 52 "--DRUM ANIMATION--"
      0 56 "----"
      0 103 "Solo Marker"
      0 102 "----"
      0 110 "PRO Yellow Tom"
      0 111 "PRO Blue Tom"
      0 112 "PRO Green Tom"
      0 108 "----"
      0 127 "Roll Marker 2-Lane / Cym"
      0 126 "Roll Marker 1-Lane"
      0 125 "----"
      0 28 "SNARE RIM LH"
      0 29 "SNARE RIM RH"
      0 43 "RIDE CYM LH"
      0 44 "CRASH2 HARD LH"
      0 45 "CRASH2 SOFT LH"
      0 33 "PERCUSSION LH"
    >
    MAINSEND 1 0
    <FXCHAIN
      WNDRECT 0 0 878 574
      SHOW 0
      LASTSEL 1
      DOCKED 0
      BYPASS 1 0
      <VST "VSTi: ReaSynth (Cockos)" "reasynth.dll" 0 ""
        eXNlcu9e7f4AAAAAAgAAAAEAAAAAAAAAAgAAAAAAAAA4AAAAAAAAAA==
        AAAAAO++rd4N8K3eAAAAAAAAAAAAAAAAAAAAADm0SD59y9s+tbSxOQ==
        AAAAALbz/T5VpCs6AAAAAAAAAAAAAAAAAAA=
      >
      FLOATPOS 0 0 0 0
      FXID {58F55556-9407-4062-A048-6AFCC0B53535}
      WAK 0
      BYPASS 0 0
      <VST "VSTi: RBN Preview (RBN)" "rbprev_vst64_beta.dll" 0 ""
        dnBicu5e7f4AAAAAAgAAAAEAAAAAAAAAAgAAAAAAAAAEAAAAAQAAAA==
        AAAAAAMBqgAAAAAAAAA=
      >
      FLOATPOS 32 32 659 497
      FXID {D7126437-AB1E-4109-A0FA-F2D5D0AC68DC}
      WAK 0
    >
    <ITEM
      POSITION 0.00000000000000
      SNAPOFFS 0.00000000000000
      LENGTH 183.05106848205489
      LOOP 0
      ALLTAKES 0
      COLOR 19150555
      SEL 0
      FADEIN 1 0.000000 0.000000 1 0
      FADEOUT 1 0.000000 0.000000 1 0
      MUTE 0
      IGUID {9FF11F36-E94F-4396-9C0E-8449C916EC21}
      IID 7
      NAME "PART DRUMS"
      VOLPAN 1.000000 0.000000 1.000000 -1.000000
      SOFFS 0.00000000000000 0.00000000000000
      PLAYRATE 1.00000000000000 1 0.00000000000000 -65536
      CHANMODE 0
      GUID {70A79ADF-E70C-430A-913F-E16D0CC85517}
      <SOURCE MIDI
        HASDATA 1 480 QN
        POOLEDEVTS {C3570516-0A02-410E-8E0A-A26C0D854D5F}
        <X 0 0
          /wNQQVJUIERSVU1T
        >
        <X 300 0
          /wFbbWl4IDEgZHJ1bXMwXQ==
        >
        <X 0 0
          /wFbbWl4IDAgZHJ1bXMwXQ==
        >
        <X 60 0
          /wFbbWl4IDIgZHJ1bXMwXQ==
        >
        <X 60 0
          /wFbbWl4IDMgZHJ1bXMwXQ==
        >
        <X 3420 0
          /wFbcGxheV0=
        >
        E 0 90 18 60
        E 0 90 1a 60
        E 0 90 33 60
        E 0 90 3d 60
        E 0 90 40 60
        E 0 90 49 60
        E 0 90 4c 60
        E 0 90 54 60
        E 0 90 55 60
        E 0 90 58 60
        E 0 90 60 60
        E 0 90 61 60
        E 0 90 64 60
        E 0 90 70 60
        E 60 80 18 00
        E 0 80 1a 00
        E 0 80 33 00
        E 0 80 3d 00
        E 0 80 40 00
        E 0 80 49 00
        E 0 80 4c 00
        E 0 80 54 00
        E 0 80 55 00
        E 0 80 58 00
        E 0 80 60 00
        E 0 80 61 00
        E 0 80 64 00
        E 0 80 70 00
        E 420 90 18 60
        E 0 90 1a 60
        E 0 90 33 60
        E 0 90 3d 60
        E 0 90 40 60
        E 0 90 49 60
        E 0 90 4c 60
        E 0 90 54 60
        E 0 90 55 60
        E 0 90 58 60
        E 0 90 60 60
        E 0 90 61 60
        E 0 90 64 60
        E 0 90 70 60
        E 60 80 18 00
        E 0 80 1a 00
        E 0 80 33 00
        E 0 80 3d 00
        E 0 80 40 00
        E 0 80 49 00
        E 0 80 4c 00
        E 0 80 54 00
        E 0 80 55 00
        E 0 80 58 00
        E 0 80 60 00
        E 0 80 61 00
        E 0 80 64 00
        E 0 80 70 00
        E 420 90 18 60
        E 0 90 3c 60
        E 0 90 48 60
        E 0 90 54 60
        E 0 90 60 60
        E 60 80 18 00
        E 0 80 3c 00
        E 0 80 48 00
        E 0 80 54 00
        E 0 80 60 00
        E 420 90 18 60
        E 0 90 3c 60
        E 0 90 48 60
        E 0 90 54 60
        E 0 90 60 60
        E 60 80 18 00
        E 0 80 3c 00
        E 0 80 48 00
        E 0 80 54 00
        E 0 80 60 00
        E 420 90 18 60
        E 0 90 3c 60
        E 0 90 48 60
        E 0 90 54 60
        E 0 90 60 60
        E 60 80 18 00
        E 0 80 3c 00
        E 0 80 48 00
        E 0 80 54 00
        E 0 80 60 00
        E 180 90 1a 60
        E 0 90 33 60
        E 0 90 55 60
        E 0 90 58 60
        E 0 90 61 60
        E 0 90 64 60
        E 0 90 70 60
        E 60 80 1a 00
        E 0 80 33 00
        E 0 80 55 00
        E 0 80 58 00
        E 0 80 61 00
        E 0 80 64 00
        E 0 80 70 00
        E 180 90 18 60
        E 0 90 3c 60
        E 0 90 48 60
        E 0 90 54 60
        E 0 90 60 60
        E 60 80 18 00
        E 0 80 3c 00
        E 0 80 48 00
        E 0 80 54 00
        E 0 80 60 00
        E 180 90 18 60
        E 0 90 1a 60
        E 0 90 33 60
        E 0 90 54 60
        E 0 90 55 60
        E 0 90 58 60
        E 0 90 60 60
        E 0 90 61 60
        E 0 90 64 60
        E 0 90 70 60
        E 60 80 18 00
        E 0 80 1a 00
        E 0 80 33 00
        E 0 80 54 00
        E 0 80 55 00
        E 0 80 58 00
        E 0 80 60 00
        E 0 80 61 00
        E 0 80 64 00
        E 0 80 70 00
        E 180 90 18 60
        E 0 90 1a 60
        E 0 90 33 60
        E 0 90 3d 60
        E 0 90 40 60
        E 0 90 49 60
        E 0 90 4c 60
        E 0 90 54 60
        E 0 90 55 60
        E 0 90 58 60
        E 0 90 60 60
        E 0 90 61 60
        E 0 90 64 60
        E 0 90 70 60
        E 60 80 18 00
        E 0 80 1a 00
        E 0 80 33 00
        E 0 80 3d 00
        E 0 80 40 00
        E 0 80 49 00
        E 0 80 4c 00
        E 0 80 54 00
        E 0 80 55 00
        E 0 80 58 00
        E 0 80 60 00
        E 0 80 61 00
        E 0 80 64 00
        E 0 80 70 00
        E 180 90 18 60
        E 0 90 1a 60
        E 0 90 33 60
        E 0 90 54 60
        E 0 90 55 60
        E 0 90 58 60
        E 0 90 60 60
        E 0 90 61 60
        E 0 90 64 60
        E 0 90 70 60
        E 60 80 18 00
        E 0 80 1a 00
        E 0 80 33 00
        E 0 80 54 00
        E 0 80 55 00
        E 0 80 58 00
        E 0 80 60 00
        E 0 80 61 00
        E 0 80 64 00
        E 0 80 70 00
        E 180 90 18 60
        E 0 90 1a 60
        E 0 90 33 60
        E 0 90 3d 60
        E 0 90 40 60
        E 0 90 49 60
        E 0 90 4c 60
        E 0 90 54 60
        E 0 90 55 60
        E 0 90 58 60
        E 0 90 60 60
        E 0 90 61 60
        E 0 90 64 60
        E 0 90 70 60
        E 60 80 18 00
        E 0 80 1a 00
        E 0 80 33 00
        E 0 80 3d 00
        E 0 80 40 00
        E 0 80 49 00
        E 0 80 4c 00
        E 0 80 54 00
        E 0 80 55 00
        E 0 80 58 00
        E 0 80 60 00
        E 0 80 61 00
        E 0 80 64 00
        E 0 80 70 00
        <X 480 0
          /wFbaWRsZV0=
        >
        <X 7140 0
          /wFbcGxheV0=
        >
        E 480 90 18 60
        E 0 90 1f 60
        E 0 90 3e 60
        E 0 90 48 60
        E 0 90 4a 60
        E 0 90 54 60
        E 0 90 56 60
        E 0 90 60 60
        E 0 90 62 60
        E 61 80 18 00
        E 0 80 1f 00
        E 0 80 3e 00
        E 0 80 48 00
        E 0 80 4a 00
        E 0 80 54 00
        E 0 80 56 00
        E 0 80 60 00
        E 0 80 62 00
        E 179 90 1f 60
        E 0 90 56 60
        E 0 90 62 60
        E 61 80 1f 00
        E 0 80 56 00
        E 0 80 62 00
        E 179 90 18 60
        E 0 90 1a 60
        E 0 90 1f 60
        E 0 90 3d 60
        E 0 90 3e 60
        E 0 90 49 60
        E 0 90 4a 60
        E 0 90 54 60
        E 0 90 55 60
        E 0 90 56 60
        E 0 90 60 60
        E 0 90 61 60
        E 0 90 62 60
        E 61 80 18 00
        E 0 80 1a 00
        E 0 80 1f 00
        E 0 80 3d 00
        E 0 80 3e 00
        E 0 80 49 00
        E 0 80 4a 00
        E 0 80 54 00
        E 0 80 55 00
        E 0 80 56 00
        E 0 80 60 00
        E 0 80 61 00
        E 0 80 62 00
        E 178 90 1f 60
        E 0 90 56 60
        E 0 90 62 60
        E 61 80 1f 00
        E 0 80 56 00
        E 0 80 62 00
        E 180 90 18 60
        E 0 90 1f 60
        E 0 90 3e 60
        E 0 90 48 60
        E 0 90 4a 60
        E 0 90 54 60
        E 0 90 56 60
        E 0 90 60 60
        E 0 90 62 60
        E 60 80 18 00
        E 0 80 48 00
        E 0 80 54 00
        E 0 80 60 00
        E 1 80 1f 00
        E 0 80 3e 00
        E 0 80 4a 00
        E 0 80 56 00
        E 0 80 62 00
        E 178 90 1f 60
        E 0 90 56 60
        E 0 90 62 60
        E 61 80 1f 00
        E 0 80 56 00
        E 0 80 62 00
        E 180 90 18 60
        E 0 90 1a 60
        E 0 90 1f 60
        E 0 90 3d 60
        E 0 90 3e 60
        E 0 90 49 60
        E 0 90 4a 60
        E 0 90 54 60
        E 0 90 55 60
        E 0 90 56 60
        E 0 90 60 60
        E 0 90 61 60
        E 0 90 62 60
        E 61 80 18 00
        E 0 80 1a 00
        E 0 80 1f 00
        E 0 80 3d 00
        E 0 80 3e 00
        E 0 80 49 00
        E 0 80 4a 00
        E 0 80 54 00
        E 0 80 55 00
        E 0 80 56 00
        E 0 80 60 00
        E 0 80 61 00
        E 0 80 62 00
        E 178 90 1f 60
        E 0 90 56 60
        E 0 90 62 60
        E 61 80 1f 00
        E 0 80 56 00
        E 0 80 62 00
        E 180 90 18 60
        E 0 90 1f 60
        E 0 90 3e 60
        E 0 90 48 60
        E 0 90 4a 60
        E 0 90 54 60
        E 0 90 56 60
        E 0 90 60 60
        E 0 90 62 60
        E 60 80 1f 00
        E 0 80 3e 00
        E 0 80 4a 00
        E 0 80 56 00
        E 0 80 62 00
        E 1 80 18 00
        E 0 80 48 00
        E 0 80 54 00
        E 0 80 60 00
        E 179 90 1f 60
        E 0 90 56 60
        E 0 90 62 60
        E 61 80 1f 00
        E 0 80 56 00
        E 0 80 62 00
        E 178 90 18 60
        E 0 90 1a 60
        E 0 90 1f 60
        E 0 90 3d 60
        E 0 90 3e 60
        E 0 90 49 60
        E 0 90 4a 60
        E 0 90 54 60
        E 0 90 55 60
        E 0 90 56 60
        E 0 90 60 60
        E 0 90 61 60
        E 0 90 62 60
        E 61 80 18 00
        E 0 80 1a 00
        E 0 80 1f 00
        E 0 80 3d 00
        E 0 80 3e 00
        E 0 80 49 00
        E 0 80 4a 00
        E 0 80 54 00
        E 0 80 55 00
        E 0 80 56 00
        E 0 80 60 00
        E 0 80 61 00
        E 0 80 62 00
        E 179 90 1f 60
        E 0 90 56 60
        E 0 90 62 60
        E 61 80 1f 00
        E 0 80 56 00
        E 0 80 62 00
        E 180 90 18 60
        E 0 90 1f 60
        E 0 90 3e 60
        E 0 90 48 60
        E 0 90 4a 60
        E 0 90 54 60
        E 0 90 56 60
        E 0 90 60 60
        E 0 90 62 60
        E 60 80 18 00
        E 0 80 1f 00
        E 0 80 3e 00
        E 0 80 48 00
        E 0 80 4a 00
        E 0 80 54 00
        E 0 80 56 00
        E 0 80 60 00
        E 0 80 62 00
        E 179 90 1f 60
        E 0 90 56 60
        E 0 90 62 60
        E 61 80 1f 00
        E 0 80 56 00
        E 0 80 62 00
        E 180 90 1a 60
        E 0 90 1f 60
        E 0 90 3d 60
        E 0 90 3e 60
        E 0 90 49 60
        E 0 90 4a 60
        E 0 90 55 60
        E 0 90 56 60
        E 0 90 61 60
        E 0 90 62 60
        E 60 80 1a 00
        E 0 80 1f 00
        E 0 80 3d 00
        E 0 80 3e 00
        E 0 80 49 00
        E 0 80 4a 00
        E 0 80 55 00
        E 0 80 56 00
        E 0 80 61 00
        E 0 80 62 00
        E 179 90 1f 60
        E 0 90 56 60
        E 0 90 62 60
        E 61 80 1f 00
        E 0 80 56 00
        E 0 80 62 00
        E 180 90 18 60
        E 0 90 1f 60
        E 0 90 3e 60
        E 0 90 48 60
        E 0 90 4a 60
        E 0 90 54 60
        E 0 90 56 60
        E 0 90 60 60
        E 0 90 62 60
        E 60 80 1f 00
        E 0 80 3e 00
        E 0 80 4a 00
        E 0 80 56 00
        E 0 80 62 00
        E 1 80 18 00
        E 0 80 48 00
        E 0 80 54 00
        E 0 80 60 00
        E 179 90 1f 60
        E 0 90 56 60
        E 0 90 62 60
        E 61 80 1f 00
        E 0 80 56 00
        E 0 80 62 00
        E 179 90 18 60
        E 0 90 1a 60
        E 0 90 1f 60
        E 0 90 3d 60
        E 0 90 3e 60
        E 0 90 49 60
        E 0 90 4a 60
        E 0 90 54 60
        E 0 90 55 60
        E 0 90 56 60
        E 0 90 60 60
        E 0 90 61 60
        E 0 90 62 60
        E 60 80 18 00
        E 0 80 1a 00
        E 0 80 1f 00
        E 0 80 3d 00
        E 0 80 3e 00
        E 0 80 49 00
        E 0 80 4a 00
        E 0 80 54 00
        E 0 80 55 00
        E 0 80 56 00
        E 0 80 60 00
        E 0 80 61 00
        E 0 80 62 00
        E 179 90 1f 60
        E 0 90 56 60
        E 0 90 62 60
        E 61 80 1f 00
        E 0 80 56 00
        E 0 80 62 00
        E 180 90 18 60
        E 0 90 1f 60
        E 0 90 3e 60
        E 0 90 48 60
        E 0 90 4a 60
        E 0 90 54 60
        E 0 90 56 60
        E 0 90 60 60
        E 0 90 62 60
        E 60 80 18 00
        E 0 80 1f 00
        E 0 80 3e 00
        E 0 80 48 00
        E 0 80 4a 00
        E 0 80 54 00
        E 0 80 56 00
        E 0 80 60 00
        E 0 80 62 00
        E 179 90 1f 60
        E 0 90 56 60
        E 0 90 62 60
        E 61 80 1f 00
        E 0 80 56 00
        E 0 80 62 00
        E 180 90 1a 60
        E 0 90 1f 60
        E 0 90 3d 60
        E 0 90 3e 60
        E 0 90 49 60
        E 0 90 4a 60
        E 0 90 55 60
        E 0 90 56 60
        E 0 90 61 60
        E 0 90 62 60
        E 60 80 1a 00
        E 0 80 1f 00
        E 0 80 3d 00
        E 0 80 3e 00
        E 0 80 49 00
        E 0 80 4a 00
        E 0 80 55 00
        E 0 80 56 00
        E 0 80 61 00
        E 0 80 62 00
        E 179 90 1f 60
        E 0 90 56 60
        E 0 90 62 60
        E 61 80 1f 00
        E 0 80 56 00
        E 0 80 62 00
        E 180 90 18 60
        E 0 90 1f 60
        E 0 90 3e 60
        E 0 90 48 60
        E 0 90 4a 60
        E 0 90 54 60
        E 0 90 56 60
        E 0 90 60 60
        E 0 90 62 60
        E 60 80 1f 00
        E 0 80 3e 00
        E 0 80 4a 00
        E 0 80 56 00
        E 0 80 62 00
        E 1 80 18 00
        E 0 80 48 00
        E 0 80 54 00
        E 0 80 60 00
        E 179 90 1f 60
        E 0 90 56 60
        E 0 90 62 60
        E 61 80 1f 00
        E 0 80 56 00
        E 0 80 62 00
        E 179 90 18 60
        E 0 90 1a 60
        E 0 90 1f 60
        E 0 90 3d 60
        E 0 90 3e 60
        E 0 90 49 60
        E 0 90 4a 60
        E 0 90 54 60
        E 0 90 55 60
        E 0 90 56 60
        E 0 90 60 60
        E 0 90 61 60
        E 0 90 62 60
        E 60 80 18 00
        E 0 80 1a 00
        E 0 80 1f 00
        E 0 80 3d 00
        E 0 80 3e 00
        E 0 80 49 00
        E 0 80 4a 00
        E 0 80 54 00
        E 0 80 55 00
        E 0 80 56 00
        E 0 80 60 00
        E 0 80 61 00
        E 0 80 62 00
        E 179 90 1f 60
        E 0 90 56 60
        E 0 90 62 60
        E 61 80 1f 00
        E 0 80 56 00
        E 0 80 62 00
        E 180 90 18 60
        E 0 90 1f 60
        E 0 90 3e 60
        E 0 90 48 60
        E 0 90 4a 60
        E 0 90 54 60
        E 0 90 56 60
        E 0 90 60 60
        E 0 90 62 60
        E 59 80 1f 00
        E 0 80 3e 00
        E 0 80 4a 00
        E 0 80 56 00
        E 0 80 62 00
        E 1 80 18 00
        E 0 80 48 00
        E 0 80 54 00
        E 0 80 60 00
        E 179 90 1f 60
        E 0 90 56 60
        E 0 90 62 60
        E 61 80 1f 00
        E 0 80 56 00
        E 0 80 62 00
        E 180 90 1a 60
        E 0 90 1f 60
        E 0 90 3d 60
        E 0 90 3e 60
        E 0 90 49 60
        E 0 90 4a 60
        E 0 90 55 60
        E 0 90 56 60
        E 0 90 61 60
        E 0 90 62 60
        E 60 80 1a 00
        E 0 80 1f 00
        E 0 80 3d 00
        E 0 80 3e 00
        E 0 80 49 00
        E 0 80 4a 00
        E 0 80 55 00
        E 0 80 56 00
        E 0 80 61 00
        E 0 80 62 00
        E 179 90 1f 60
        E 0 90 56 60
        E 0 90 62 60
        E 61 80 1f 00
        E 0 80 56 00
        E 0 80 62 00
        E 180 90 18 60
        E 0 90 1f 60
        E 0 90 3e 60
        E 0 90 48 60
        E 0 90 4a 60
        E 0 90 54 60
        E 0 90 56 60
        E 0 90 60 60
        E 0 90 62 60
        E 60 80 1f 00
        E 0 80 3e 00
        E 0 80 4a 00
        E 0 80 56 00
        E 0 80 62 00
        E 1 80 18 00
        E 0 80 48 00
        E 0 80 54 00
        E 0 80 60 00
        E 179 90 1f 60
        E 0 90 56 60
        E 0 90 62 60
        E 61 80 1f 00
        E 0 80 56 00
        E 0 80 62 00
        E 179 90 18 60
        E 0 90 1a 60
        E 0 90 1f 60
        E 0 90 3d 60
        E 0 90 3e 60
        E 0 90 49 60
        E 0 90 4a 60
        E 0 90 54 60
        E 0 90 55 60
        E 0 90 56 60
        E 0 90 60 60
        E 0 90 61 60
        E 0 90 62 60
        E 60 80 18 00
        E 0 80 1a 00
        E 0 80 1f 00
        E 0 80 3d 00
        E 0 80 3e 00
        E 0 80 49 00
        E 0 80 4a 00
        E 0 80 54 00
        E 0 80 55 00
        E 0 80 56 00
        E 0 80 60 00
        E 0 80 61 00
        E 0 80 62 00
        E 179 90 1f 60
        E 0 90 56 60
        E 0 90 62 60
        E 61 80 1f 00
        E 0 80 56 00
        E 0 80 62 00
        E 180 90 18 60
        E 0 90 1f 60
        E 0 90 3e 60
        E 0 90 48 60
        E 0 90 4a 60
        E 0 90 54 60
        E 0 90 56 60
        E 0 90 60 60
        E 0 90 62 60
        E 60 80 18 00
        E 0 80 1f 00
        E 0 80 3e 00
        E 0 80 48 00
        E 0 80 4a 00
        E 0 80 54 00
        E 0 80 56 00
        E 0 80 60 00
        E 0 80 62 00
        E 179 90 1f 60
        E 0 90 56 60
        E 0 90 62 60
        E 61 80 1f 00
        E 0 80 56 00
        E 0 80 62 00
        E 180 90 1a 60
        E 0 90 1f 60
        E 0 90 3d 60
        E 0 90 3e 60
        E 0 90 49 60
        E 0 90 4a 60
        E 0 90 55 60
        E 0 90 56 60
        E 0 90 61 60
        E 0 90 62 60
        E 60 80 1a 00
        E 0 80 1f 00
        E 0 80 3d 00
        E 0 80 3e 00
        E 0 80 49 00
        E 0 80 4a 00
        E 0 80 55 00
        E 0 80 56 00
        E 0 80 61 00
        E 0 80 62 00
        E 179 90 1f 60
        E 0 90 56 60
        E 0 90 62 60
        E 61 80 1f 00
        E 0 80 56 00
        E 0 80 62 00
        E 180 90 18 60
        E 0 90 1f 60
        E 0 90 3e 60
        E 0 90 48 60
        E 0 90 4a 60
        E 0 90 54 60
        E 0 90 56 60
        E 0 90 60 60
        E 0 90 62 60
        E 60 80 1f 00
        E 0 80 3e 00
        E 0 80 4a 00
        E 0 80 56 00
        E 0 80 62 00
        E 1 80 18 00
        E 0 80 48 00
        E 0 80 54 00
        E 0 80 60 00
        E 179 90 1f 60
        E 0 90 56 60
        E 0 90 62 60
        E 61 80 1f 00
        E 0 80 56 00
        E 0 80 62 00
        E 179 90 18 60
        E 0 90 1a 60
        E 0 90 1f 60
        E 0 90 3d 60
        E 0 90 3e 60
        E 0 90 49 60
        E 0 90 4a 60
        E 0 90 54 60
        E 0 90 55 60
        E 0 90 56 60
        E 0 90 60 60
        E 0 90 61 60
        E 0 90 62 60
        E 61 80 18 00
        E 0 80 1a 00
        E 0 80 1f 00
        E 0 80 3d 00
        E 0 80 3e 00
        E 0 80 49 00
        E 0 80 4a 00
        E 0 80 54 00
        E 0 80 55 00
        E 0 80 56 00
        E 0 80 60 00
        E 0 80 61 00
        E 0 80 62 00
        E 178 90 1f 60
        E 0 90 56 60
        E 0 90 62 60
        E 61 80 1f 00
        E 0 80 56 00
        E 0 80 62 00
        E 180 90 18 60
        E 0 90 1f 60
        E 0 90 3e 60
        E 0 90 48 60
        E 0 90 4a 60
        E 0 90 54 60
        E 0 90 56 60
        E 0 90 60 60
        E 0 90 62 60
        E 60 80 18 00
        E 0 80 48 00
        E 0 80 54 00
        E 0 80 60 00
        E 1 80 1f 00
        E 0 80 3e 00
        E 0 80 4a 00
        E 0 80 56 00
        E 0 80 62 00
        E 178 90 1f 60
        E 0 90 56 60
        E 0 90 62 60
        E 61 80 1f 00
        E 0 80 56 00
        E 0 80 62 00
        E 180 90 1a 60
        E 0 90 1f 60
        E 0 90 3d 60
        E 0 90 3e 60
        E 0 90 49 60
        E 0 90 4a 60
        E 0 90 55 60
        E 0 90 56 60
        E 0 90 61 60
        E 0 90 62 60
        E 61 80 1a 00
        E 0 80 1f 00
        E 0 80 3d 00
        E 0 80 3e 00
        E 0 80 49 00
        E 0 80 4a 00
        E 0 80 55 00
        E 0 80 56 00
        E 0 80 61 00
        E 0 80 62 00
        E 178 90 1f 60
        E 0 90 56 60
        E 0 90 62 60
        E 61 80 1f 00
        E 0 80 56 00
        E 0 80 62 00
        E 180 90 18 60
        E 0 90 1f 60
        E 0 90 3e 60
        E 0 90 48 60
        E 0 90 4a 60
        E 0 90 54 60
        E 0 90 56 60
        E 0 90 60 60
        E 0 90 62 60
        E 60 80 1f 00
        E 0 80 3e 00
        E 0 80 4a 00
        E 0 80 56 00
        E 0 80 62 00
        E 1 80 18 00
        E 0 80 48 00
        E 0 80 54 00
        E 0 80 60 00
        E 179 90 1f 60
        E 0 90 56 60
        E 0 90 62 60
        E 61 80 1f 00
        E 0 80 56 00
        E 0 80 62 00
        E 179 90 18 60
        E 0 90 1a 60
        E 0 90 1f 60
        E 0 90 3d 60
        E 0 90 3e 60
        E 0 90 49 60
        E 0 90 4a 60
        E 0 90 54 60
        E 0 90 55 60
        E 0 90 56 60
        E 0 90 60 60
        E 0 90 61 60
        E 0 90 62 60
        E 61 80 18 00
        E 0 80 1a 00
        E 0 80 1f 00
        E 0 80 3d 00
        E 0 80 3e 00
        E 0 80 49 00
        E 0 80 4a 00
        E 0 80 54 00
        E 0 80 55 00
        E 0 80 56 00
        E 0 80 60 00
        E 0 80 61 00
        E 0 80 62 00
        E 178 90 1f 60
        E 0 90 56 60
        E 0 90 62 60
        E 61 80 1f 00
        E 0 80 56 00
        E 0 80 62 00
        E 180 90 18 60
        E 0 90 1f 60
        E 0 90 3e 60
        E 0 90 48 60
        E 0 90 4a 60
        E 0 90 54 60
        E 0 90 56 60
        E 0 90 60 60
        E 0 90 62 60
        E 60 80 18 00
        E 0 80 1f 00
        E 0 80 3e 00
        E 0 80 48 00
        E 0 80 4a 00
        E 0 80 54 00
        E 0 80 56 00
        E 0 80 60 00
        E 0 80 62 00
        E 179 90 1f 60
        E 0 90 56 60
        E 0 90 62 60
        E 61 80 1f 00
        E 0 80 56 00
        E 0 80 62 00
        E 180 90 1a 60
        E 0 90 1f 60
        E 0 90 3d 60
        E 0 90 3e 60
        E 0 90 49 60
        E 0 90 4a 60
        E 0 90 55 60
        E 0 90 56 60
        E 0 90 61 60
        E 0 90 62 60
        E 61 80 1a 00
        E 0 80 1f 00
        E 0 80 3d 00
        E 0 80 3e 00
        E 0 80 49 00
        E 0 80 4a 00
        E 0 80 55 00
        E 0 80 56 00
        E 0 80 61 00
        E 0 80 62 00
        E 178 90 1f 60
        E 0 90 56 60
        E 0 90 62 60
        E 61 80 1f 00
        E 0 80 56 00
        E 0 80 62 00
        E 180 90 18 60
        E 0 90 1a 60
        E 0 90 1f 60
        E 0 90 3d 60
        E 0 90 3e 60
        E 0 90 49 60
        E 0 90 4a 60
        E 0 90 54 60
        E 0 90 55 60
        E 0 90 56 60
        E 0 90 60 60
        E 0 90 61 60
        E 0 90 62 60
        E 61 80 18 00
        E 0 80 1a 00
        E 0 80 1f 00
        E 0 80 3d 00
        E 0 80 3e 00
        E 0 80 49 00
        E 0 80 4a 00
        E 0 80 54 00
        E 0 80 55 00
        E 0 80 56 00
        E 0 80 60 00
        E 0 80 61 00
        E 0 80 62 00
        E 179 90 18 60
        E 0 90 1f 60
        E 0 90 54 60
        E 0 90 56 60
        E 0 90 60 60
        E 0 90 62 60
        E 61 80 18 00
        E 0 80 1f 00
        E 0 80 54 00
        E 0 80 56 00
        E 0 80 60 00
        E 0 80 62 00
        E 179 90 18 60
        E 0 90 1a 60
        E 0 90 1f 60
        E 0 90 3d 60
        E 0 90 3e 60
        E 0 90 49 60
        E 0 90 4a 60
        E 0 90 54 60
        E 0 90 55 60
        E 0 90 56 60
        E 0 90 60 60
        E 0 90 61 60
        E 0 90 62 60
        E 61 80 18 00
        E 0 80 1a 00
        E 0 80 1f 00
        E 0 80 3d 00
        E 0 80 3e 00
        E 0 80 49 00
        E 0 80 4a 00
        E 0 80 54 00
        E 0 80 55 00
        E 0 80 56 00
        E 0 80 60 00
        E 0 80 61 00
        E 0 80 62 00
        E 179 90 18 60
        E 0 90 1f 60
        E 0 90 54 60
        E 0 90 56 60
        E 0 90 60 60
        E 0 90 62 60
        E 60 80 1f 00
        E 0 80 56 00
        E 0 80 62 00
        E 1 80 18 00
        E 0 80 54 00
        E 0 80 60 00
        E 179 90 18 60
        E 0 90 1a 60
        E 0 90 1f 60
        E 0 90 3d 60
        E 0 90 3e 60
        E 0 90 49 60
        E 0 90 4a 60
        E 0 90 54 60
        E 0 90 55 60
        E 0 90 56 60
        E 0 90 60 60
        E 0 90 61 60
        E 0 90 62 60
        E 61 80 18 00
        E 0 80 1a 00
        E 0 80 1f 00
        E 0 80 3d 00
        E 0 80 3e 00
        E 0 80 49 00
        E 0 80 4a 00
        E 0 80 54 00
        E 0 80 55 00
        E 0 80 56 00
        E 0 80 60 00
        E 0 80 61 00
        E 0 80 62 00
        E 419 90 1a 60
        E 0 90 2a 60
        E 0 90 3d 60
        E 0 90 3f 60
        E 0 90 49 60
        E 0 90 4b 60
        E 0 90 55 60
        E 0 90 57 60
        E 0 90 61 60
        E 0 90 63 60
        E 61 80 1a 00
        E 0 80 2a 00
        E 0 80 3d 00
        E 0 80 3f 00
        E 0 80 49 00
        E 0 80 4b 00
        E 0 80 55 00
        E 0 80 57 00
        E 0 80 61 00
        E 0 80 63 00
        E 419 90 18 60
        E 0 90 1f 60
        E 0 90 3e 60
        E 0 90 48 60
        E 0 90 4a 60
        E 0 90 54 60
        E 0 90 56 60
        E 0 90 60 60
        E 0 90 62 60
        E 60 80 1f 00
        E 0 80 3e 00
        E 0 80 4a 00
        E 0 80 56 00
        E 0 80 62 00
        E 1 80 18 00
        E 0 80 48 00
        E 0 80 54 00
        E 0 80 60 00
        E 179 90 1f 60
        E 0 90 56 60
        E 0 90 62 60
        E 61 80 1f 00
        E 0 80 56 00
        E 0 80 62 00
        E 179 90 18 60
        E 0 90 1a 60
        E 0 90 1f 60
        E 0 90 3d 60
        E 0 90 3e 60
        E 0 90 49 60
        E 0 90 4a 60
        E 0 90 54 60
        E 0 90 55 60
        E 0 90 56 60
        E 0 90 60 60
        E 0 90 61 60
        E 0 90 62 60
        E 60 80 18 00
        E 0 80 1a 00
        E 0 80 1f 00
        E 0 80 3d 00
        E 0 80 3e 00
        E 0 80 49 00
        E 0 80 4a 00
        E 0 80 54 00
        E 0 80 55 00
        E 0 80 56 00
        E 0 80 60 00
        E 0 80 61 00
        E 0 80 62 00
        E 179 90 1f 60
        E 0 90 56 60
        E 0 90 62 60
        E 61 80 1f 00
        E 0 80 56 00
        E 0 80 62 00
        E 180 90 18 60
        E 0 90 1f 60
        E 0 90 3e 60
        E 0 90 48 60
        E 0 90 4a 60
        E 0 90 54 60
        E 0 90 56 60
        E 0 90 60 60
        E 0 90 62 60
        E 60 80 18 00
        E 0 80 48 00
        E 0 80 54 00
        E 0 80 60 00
        E 1 80 1f 00
        E 0 80 3e 00
        E 0 80 4a 00
        E 0 80 56 00
        E 0 80 62 00
        E 178 90 1f 60
        E 0 90 56 60
        E 0 90 62 60
        E 61 80 1f 00
        E 0 80 56 00
        E 0 80 62 00
        E 180 90 1a 60
        E 0 90 1f 60
        E 0 90 3d 60
        E 0 90 3e 60
        E 0 90 49 60
        E 0 90 4a 60
        E 0 90 55 60
        E 0 90 56 60
        E 0 90 61 60
        E 0 90 62 60
        E 60 80 1f 00
        E 0 80 3e 00
        E 0 80 4a 00
        E 0 80 56 00
        E 0 80 62 00
        E 1 80 1a 00
        E 0 80 3d 00
        E 0 80 49 00
        E 0 80 55 00
        E 0 80 61 00
        E 178 90 1f 60
        E 0 90 56 60
        E 0 90 62 60
        E 61 80 1f 00
        E 0 80 56 00
        E 0 80 62 00
        E 180 90 18 60
        E 0 90 1f 60
        E 0 90 3e 60
        E 0 90 48 60
        E 0 90 4a 60
        E 0 90 54 60
        E 0 90 56 60
        E 0 90 60 60
        E 0 90 62 60
        E 60 80 1f 00
        E 0 80 3e 00
        E 0 80 4a 00
        E 0 80 56 00
        E 0 80 62 00
        E 1 80 18 00
        E 0 80 48 00
        E 0 80 54 00
        E 0 80 60 00
        E 179 90 1f 60
        E 0 90 56 60
        E 0 90 62 60
        E 61 80 1f 00
        E 0 80 56 00
        E 0 80 62 00
        E 179 90 18 60
        E 0 90 1a 60
        E 0 90 1f 60
        E 0 90 3d 60
        E 0 90 3e 60
        E 0 90 49 60
        E 0 90 4a 60
        E 0 90 54 60
        E 0 90 55 60
        E 0 90 56 60
        E 0 90 60 60
        E 0 90 61 60
        E 0 90 62 60
        E 61 80 18 00
        E 0 80 1a 00
        E 0 80 1f 00
        E 0 80 3d 00
        E 0 80 3e 00
        E 0 80 49 00
        E 0 80 4a 00
        E 0 80 54 00
        E 0 80 55 00
        E 0 80 56 00
        E 0 80 60 00
        E 0 80 61 00
        E 0 80 62 00
        E 178 90 1f 60
        E 0 90 56 60
        E 0 90 62 60
        E 61 80 1f 00
        E 0 80 56 00
        E 0 80 62 00
        E 180 90 18 60
        E 0 90 1f 60
        E 0 90 3e 60
        E 0 90 48 60
        E 0 90 4a 60
        E 0 90 54 60
        E 0 90 56 60
        E 0 90 60 60
        E 0 90 62 60
        E 60 80 18 00
        E 0 80 48 00
        E 0 80 54 00
        E 0 80 60 00
        E 1 80 1f 00
        E 0 80 3e 00
        E 0 80 4a 00
        E 0 80 56 00
        E 0 80 62 00
        E 178 90 1f 60
        E 0 90 56 60
        E 0 90 62 60
        E 61 80 1f 00
        E 0 80 56 00
        E 0 80 62 00
        E 180 90 1a 60
        E 0 90 1f 60
        E 0 90 3d 60
        E 0 90 3e 60
        E 0 90 49 60
        E 0 90 4a 60
        E 0 90 55 60
        E 0 90 56 60
        E 0 90 61 60
        E 0 90 62 60
        E 61 80 1a 00
        E 0 80 1f 00
        E 0 80 3d 00
        E 0 80 3e 00
        E 0 80 49 00
        E 0 80 4a 00
        E 0 80 55 00
        E 0 80 56 00
        E 0 80 61 00
        E 0 80 62 00
        E 178 90 1f 60
        E 0 90 56 60
        E 0 90 62 60
        E 61 80 1f 00
        E 0 80 56 00
        E 0 80 62 00
        E 180 90 18 60
        E 0 90 1f 60
        E 0 90 3e 60
        E 0 90 48 60
        E 0 90 4a 60
        E 0 90 54 60
        E 0 90 56 60
        E 0 90 60 60
        E 0 90 62 60
        E 60 80 1f 00
        E 0 80 3e 00
        E 0 80 4a 00
        E 0 80 56 00
        E 0 80 62 00
        E 1 80 18 00
        E 0 80 48 00
        E 0 80 54 00
        E 0 80 60 00
        E 179 90 1f 60
        E 0 90 56 60
        E 0 90 62 60
        E 61 80 1f 00
        E 0 80 56 00
        E 0 80 62 00
        E 179 90 18 60
        E 0 90 1a 60
        E 0 90 1f 60
        E 0 90 3d 60
        E 0 90 3e 60
        E 0 90 49 60
        E 0 90 4a 60
        E 0 90 54 60
        E 0 90 55 60
        E 0 90 56 60
        E 0 90 60 60
        E 0 90 61 60
        E 0 90 62 60
        E 61 80 18 00
        E 0 80 1a 00
        E 0 80 1f 00
        E 0 80 3d 00
        E 0 80 3e 00
        E 0 80 49 00
        E 0 80 4a 00
        E 0 80 54 00
        E 0 80 55 00
        E 0 80 56 00
        E 0 80 60 00
        E 0 80 61 00
        E 0 80 62 00
        E 178 90 1f 60
        E 0 90 56 60
        E 0 90 62 60
        E 61 80 1f 00
        E 0 80 56 00
        E 0 80 62 00
        E 180 90 18 60
        E 0 90 1f 60
        E 0 90 3e 60
        E 0 90 48 60
        E 0 90 4a 60
        E 0 90 54 60
        E 0 90 56 60
        E 0 90 60 60
        E 0 90 62 60
        E 60 80 18 00
        E 0 80 48 00
        E 0 80 54 00
        E 0 80 60 00
        E 1 80 1f 00
        E 0 80 3e 00
        E 0 80 4a 00
        E 0 80 56 00
        E 0 80 62 00
        E 178 90 1f 60
        E 0 90 56 60
        E 0 90 62 60
        E 61 80 1f 00
        E 0 80 56 00
        E 0 80 62 00
        E 180 90 1a 60
        E 0 90 1f 60
        E 0 90 3d 60
        E 0 90 3e 60
        E 0 90 49 60
        E 0 90 4a 60
        E 0 90 55 60
        E 0 90 56 60
        E 0 90 61 60
        E 0 90 62 60
        E 61 80 1a 00
        E 0 80 1f 00
        E 0 80 3d 00
        E 0 80 3e 00
        E 0 80 49 00
        E 0 80 4a 00
        E 0 80 55 00
        E 0 80 56 00
        E 0 80 61 00
        E 0 80 62 00
        E 178 90 1f 60
        E 0 90 56 60
        E 0 90 62 60
        E 61 80 1f 00
        E 0 80 56 00
        E 0 80 62 00
        E 180 90 18 60
        E 0 90 1f 60
        E 0 90 3e 60
        E 0 90 48 60
        E 0 90 4a 60
        E 0 90 54 60
        E 0 90 56 60
        E 0 90 60 60
        E 0 90 62 60
        E 60 80 1f 00
        E 0 80 3e 00
        E 0 80 4a 00
        E 0 80 56 00
        E 0 80 62 00
        E 1 80 18 00
        E 0 80 48 00
        E 0 80 54 00
        E 0 80 60 00
        E 179 90 1f 60
        E 0 90 56 60
        E 0 90 62 60
        E 61 80 1f 00
        E 0 80 56 00
        E 0 80 62 00
        E 179 90 18 60
        E 0 90 1a 60
        E 0 90 1f 60
        E 0 90 3d 60
        E 0 90 3e 60
        E 0 90 49 60
        E 0 90 4a 60
        E 0 90 54 60
        E 0 90 55 60
        E 0 90 56 60
        E 0 90 60 60
        E 0 90 61 60
        E 0 90 62 60
        E 61 80 18 00
        E 0 80 1a 00
        E 0 80 1f 00
        E 0 80 3d 00
        E 0 80 3e 00
        E 0 80 49 00
        E 0 80 4a 00
        E 0 80 54 00
        E 0 80 55 00
        E 0 80 56 00
        E 0 80 60 00
        E 0 80 61 00
        E 0 80 62 00
        E 178 90 1f 60
        E 0 90 56 60
        E 0 90 62 60
        E 61 80 1f 00
        E 0 80 56 00
        E 0 80 62 00
        E 180 90 18 60
        E 0 90 1f 60
        E 0 90 3e 60
        E 0 90 48 60
        E 0 90 4a 60
        E 0 90 54 60
        E 0 90 56 60
        E 0 90 60 60
        E 0 90 62 60
        E 60 80 18 00
        E 0 80 48 00
        E 0 80 54 00
        E 0 80 60 00
        E 1 80 1f 00
        E 0 80 3e 00
        E 0 80 4a 00
        E 0 80 56 00
        E 0 80 62 00
        E 178 90 1f 60
        E 0 90 56 60
        E 0 90 62 60
        E 61 80 1f 00
        E 0 80 56 00
        E 0 80 62 00
        E 180 90 1a 60
        E 0 90 1f 60
        E 0 90 3d 60
        E 0 90 3e 60
        E 0 90 49 60
        E 0 90 4a 60
        E 0 90 55 60
        E 0 90 56 60
        E 0 90 61 60
        E 0 90 62 60
        E 61 80 1a 00
        E 0 80 1f 00
        E 0 80 3d 00
        E 0 80 3e 00
        E 0 80 49 00
        E 0 80 4a 00
        E 0 80 55 00
        E 0 80 56 00
        E 0 80 61 00
        E 0 80 62 00
        E 178 90 1f 60
        E 0 90 56 60
        E 0 90 62 60
        E 61 80 1f 00
        E 0 80 56 00
        E 0 80 62 00
        E 180 90 18 60
        E 0 90 1f 60
        E 0 90 3e 60
        E 0 90 48 60
        E 0 90 4a 60
        E 0 90 54 60
        E 0 90 56 60
        E 0 90 60 60
        E 0 90 62 60
        E 60 80 1f 00
        E 0 80 3e 00
        E 0 80 4a 00
        E 0 80 56 00
        E 0 80 62 00
        E 1 80 18 00
        E 0 80 48 00
        E 0 80 54 00
        E 0 80 60 00
        E 179 90 1f 60
        E 0 90 56 60
        E 0 90 62 60
        E 61 80 1f 00
        E 0 80 56 00
        E 0 80 62 00
        E 179 90 18 60
        E 0 90 1a 60
        E 0 90 1f 60
        E 0 90 3d 60
        E 0 90 3e 60
        E 0 90 49 60
        E 0 90 4a 60
        E 0 90 54 60
        E 0 90 55 60
        E 0 90 56 60
        E 0 90 60 60
        E 0 90 61 60
        E 0 90 62 60
        E 61 80 18 00
        E 0 80 1a 00
        E 0 80 1f 00
        E 0 80 3d 00
        E 0 80 3e 00
        E 0 80 49 00
        E 0 80 4a 00
        E 0 80 54 00
        E 0 80 55 00
        E 0 80 56 00
        E 0 80 60 00
        E 0 80 61 00
        E 0 80 62 00
        E 178 90 1f 60
        E 0 90 56 60
        E 0 90 62 60
        E 61 80 1f 00
        E 0 80 56 00
        E 0 80 62 00
        E 180 90 18 60
        E 0 90 1f 60
        E 0 90 3e 60
        E 0 90 48 60
        E 0 90 4a 60
        E 0 90 54 60
        E 0 90 56 60
        E 0 90 60 60
        E 0 90 62 60
        E 60 80 18 00
        E 0 80 48 00
        E 0 80 54 00
        E 0 80 60 00
        E 1 80 1f 00
        E 0 80 3e 00
        E 0 80 4a 00
        E 0 80 56 00
        E 0 80 62 00
        E 178 90 1f 60
        E 0 90 56 60
        E 0 90 62 60
        E 61 80 1f 00
        E 0 80 56 00
        E 0 80 62 00
        E 180 90 1a 60
        E 0 90 1f 60
        E 0 90 3d 60
        E 0 90 3e 60
        E 0 90 49 60
        E 0 90 4a 60
        E 0 90 55 60
        E 0 90 56 60
        E 0 90 61 60
        E 0 90 62 60
        E 61 80 1a 00
        E 0 80 1f 00
        E 0 80 3d 00
        E 0 80 3e 00
        E 0 80 49 00
        E 0 80 4a 00
        E 0 80 55 00
        E 0 80 56 00
        E 0 80 61 00
        E 0 80 62 00
        E 178 90 1f 60
        E 0 90 56 60
        E 0 90 62 60
        E 61 80 1f 00
        E 0 80 56 00
        E 0 80 62 00
        E 180 90 18 60
        E 0 90 1f 60
        E 0 90 3e 60
        E 0 90 48 60
        E 0 90 4a 60
        E 0 90 54 60
        E 0 90 56 60
        E 0 90 60 60
        E 0 90 62 60
        E 60 80 1f 00
        E 0 80 3e 00
        E 0 80 4a 00
        E 0 80 56 00
        E 0 80 62 00
        E 1 80 18 00
        E 0 80 48 00
        E 0 80 54 00
        E 0 80 60 00
        E 128 90 74 5b
        E 51 90 1f 60
        E 0 90 56 60
        E 0 90 62 60
        E 61 80 1f 00
        E 0 80 56 00
        E 0 80 62 00
        E 179 90 18 60
        E 0 90 1a 60
        E 0 90 1f 60
        E 0 90 3d 60
        E 0 90 3e 60
        E 0 90 49 60
        E 0 90 4a 60
        E 0 90 54 60
        E 0 90 55 60
        E 0 90 56 60
        E 0 90 60 60
        E 0 90 61 60
        E 0 90 62 60
        E 61 80 18 00
        E 0 80 1a 00
        E 0 80 1f 00
        E 0 80 3d 00
        E 0 80 3e 00
        E 0 80 49 00
        E 0 80 4a 00
        E 0 80 54 00
        E 0 80 55 00
        E 0 80 56 00
        E 0 80 60 00
        E 0 80 61 00
        E 0 80 62 00
        E 178 90 1f 60
        E 0 90 56 60
        E 0 90 62 60
        E 61 80 1f 00
        E 0 80 56 00
        E 0 80 62 00
        E 180 90 18 60
        E 0 90 1f 60
        E 0 90 3e 60
        E 0 90 48 60
        E 0 90 4a 60
        E 0 90 54 60
        E 0 90 56 60
        E 0 90 60 60
        E 0 90 62 60
        E 60 80 18 00
        E 0 80 48 00
        E 0 80 54 00
        E 0 80 60 00
        E 1 80 1f 00
        E 0 80 3e 00
        E 0 80 4a 00
        E 0 80 56 00
        E 0 80 62 00
        E 178 90 1f 60
        E 0 90 56 60
        E 0 90 62 60
        E 61 80 1f 00
        E 0 80 56 00
        E 0 80 62 00
        E 180 90 1a 60
        E 0 90 1f 60
        E 0 90 3d 60
        E 0 90 3e 60
        E 0 90 49 60
        E 0 90 4a 60
        E 0 90 55 60
        E 0 90 56 60
        E 0 90 61 60
        E 0 90 62 60
        E 61 80 1a 00
        E 0 80 1f 00
        E 0 80 3d 00
        E 0 80 3e 00
        E 0 80 49 00
        E 0 80 4a 00
        E 0 80 55 00
        E 0 80 56 00
        E 0 80 61 00
        E 0 80 62 00
        E 178 90 1f 60
        E 0 90 56 60
        E 0 90 62 60
        E 61 80 1f 00
        E 0 80 56 00
        E 0 80 62 00
        E 180 90 18 60
        E 0 90 1f 60
        E 0 90 3e 60
        E 0 90 48 60
        E 0 90 4a 60
        E 0 90 54 60
        E 0 90 56 60
        E 0 90 60 60
        E 0 90 62 60
        E 60 80 1f 00
        E 0 80 3e 00
        E 0 80 4a 00
        E 0 80 56 00
        E 0 80 62 00
        E 1 80 18 00
        E 0 80 48 00
        E 0 80 54 00
        E 0 80 60 00
        E 179 90 1f 60
        E 0 90 56 60
        E 0 90 62 60
        E 61 80 1f 00
        E 0 80 56 00
        E 0 80 62 00
        E 179 90 18 60
        E 0 90 1a 60
        E 0 90 1f 60
        E 0 90 3d 60
        E 0 90 3e 60
        E 0 90 49 60
        E 0 90 4a 60
        E 0 90 54 60
        E 0 90 55 60
        E 0 90 56 60
        E 0 90 60 60
        E 0 90 61 60
        E 0 90 62 60
        E 61 80 18 00
        E 0 80 1a 00
        E 0 80 1f 00
        E 0 80 3d 00
        E 0 80 3e 00
        E 0 80 49 00
        E 0 80 4a 00
        E 0 80 54 00
        E 0 80 55 00
        E 0 80 56 00
        E 0 80 60 00
        E 0 80 61 00
        E 0 80 62 00
        E 179 90 1f 60
        E 0 90 56 60
        E 0 90 62 60
        E 61 80 1f 00
        E 0 80 56 00
        E 0 80 62 00
        E 179 90 18 60
        E 0 90 1f 60
        E 0 90 3e 60
        E 0 90 48 60
        E 0 90 4a 60
        E 0 90 54 60
        E 0 90 56 60
        E 0 90 60 60
        E 0 90 62 60
        E 60 80 18 00
        E 0 80 48 00
        E 0 80 54 00
        E 0 80 60 00
        E 1 80 1f 00
        E 0 80 3e 00
        E 0 80 4a 00
        E 0 80 56 00
        E 0 80 62 00
        E 179 90 1f 60
        E 0 90 56 60
        E 0 90 62 60
        E 61 80 1f 00
        E 0 80 56 00
        E 0 80 62 00
        E 179 90 1a 60
        E 0 90 1f 60
        E 0 90 3d 60
        E 0 90 3e 60
        E 0 90 49 60
        E 0 90 4a 60
        E 0 90 55 60
        E 0 90 56 60
        E 0 90 61 60
        E 0 90 62 60
        E 61 80 1a 00
        E 0 80 1f 00
        E 0 80 3d 00
        E 0 80 3e 00
        E 0 80 49 00
        E 0 80 4a 00
        E 0 80 55 00
        E 0 80 56 00
        E 0 80 61 00
        E 0 80 62 00
        E 179 90 1f 60
        E 0 90 56 60
        E 0 90 62 60
        E 61 80 1f 00
        E 0 80 56 00
        E 0 80 62 00
        E 179 90 18 60
        E 0 90 1f 60
        E 0 90 3e 60
        E 0 90 48 60
        E 0 90 4a 60
        E 0 90 54 60
        E 0 90 56 60
        E 0 90 60 60
        E 0 90 62 60
        E 19 80 74 00
        E 42 80 18 00
        E 0 80 1f 00
        E 0 80 3e 00
        E 0 80 48 00
        E 0 80 4a 00
        E 0 80 54 00
        E 0 80 56 00
        E 0 80 60 00
        E 0 80 62 00
        E 1859 90 33 60
        E 0 90 40 60
        E 0 90 4c 60
        E 0 90 58 60
        E 0 90 64 60
        E 0 90 70 60
        E 60 80 70 00
        E 1 80 33 00
        E 0 80 40 00
        E 0 80 4c 00
        E 0 80 58 00
        E 0 80 64 00
        E 1619 90 18 60
        E 0 90 54 60
        E 0 90 60 60
        E 61 80 18 00
        E 0 80 54 00
        E 0 80 60 00
        E 179 90 18 60
        E 0 90 1a 60
        E 0 90 3d 60
        E 0 90 49 60
        E 0 90 54 60
        E 0 90 55 60
        E 0 90 60 60
        E 0 90 61 60
        E 61 80 18 00
        E 0 80 1a 00
        E 0 80 3d 00
        E 0 80 49 00
        E 0 80 54 00
        E 0 80 55 00
        E 0 80 60 00
        E 0 80 61 00
        E 179 90 18 60
        E 0 90 54 60
        E 0 90 60 60
        E 61 80 18 00
        E 0 80 54 00
        E 0 80 60 00
        E 179 90 18 60
        E 0 90 1a 60
        E 0 90 3d 60
        E 0 90 49 60
        E 0 90 54 60
        E 0 90 55 60
        E 0 90 60 60
        E 0 90 61 60
        E 61 80 18 00
        E 0 80 1a 00
        E 0 80 3d 00
        E 0 80 49 00
        E 0 80 54 00
        E 0 80 55 00
        E 0 80 60 00
        E 0 80 61 00
        E 179 90 18 60
        E 0 90 54 60
        E 0 90 60 60
        E 61 80 18 00
        E 0 80 54 00
        E 0 80 60 00
        E 179 90 18 60
        E 0 90 1a 60
        E 0 90 3d 60
        E 0 90 49 60
        E 0 90 54 60
        E 0 90 55 60
        E 0 90 60 60
        E 0 90 61 60
        E 61 80 18 00
        E 0 80 1a 00
        E 0 80 3d 00
        E 0 80 49 00
        E 0 80 54 00
        E 0 80 55 00
        E 0 80 60 00
        E 0 80 61 00
        E 179 90 18 60
        E 0 90 54 60
        E 0 90 60 60
        E 61 80 18 00
        E 0 80 54 00
        E 0 80 60 00
        E 179 90 18 60
        E 0 90 1f 60
        E 0 90 3e 60
        E 0 90 48 60
        E 0 90 4a 60
        E 0 90 54 60
        E 0 90 56 60
        E 0 90 60 60
        E 0 90 62 60
        E 61 80 18 00
        E 0 80 1f 00
        E 0 80 3e 00
        E 0 80 48 00
        E 0 80 4a 00
        E 0 80 54 00
        E 0 80 56 00
        E 0 80 60 00
        E 0 80 62 00
        E 419 90 18 60
        E 0 90 22 60
        E 0 90 26 60
        E 0 90 3e 60
        E 0 90 40 60
        E 0 90 48 60
        E 0 90 4a 60
        E 0 90 4c 60
        E 0 90 54 60
        E 0 90 56 60
        E 0 90 58 60
        E 0 90 60 60
        E 0 90 62 60
        E 0 90 64 60
        E 60 80 22 00
        E 0 80 26 00
        E 0 80 3e 00
        E 0 80 40 00
        E 0 80 4a 00
        E 0 80 4c 00
        E 0 80 56 00
        E 0 80 58 00
        E 0 80 62 00
        E 0 80 64 00
        E 1 80 18 00
        E 0 80 48 00
        E 0 80 54 00
        E 0 80 60 00
        E 179 90 1f 60
        E 0 90 56 60
        E 0 90 62 60
        E 61 80 1f 00
        E 0 80 56 00
        E 0 80 62 00
        E 179 90 18 60
        E 0 90 1a 60
        E 0 90 1f 60
        E 0 90 3d 60
        E 0 90 3e 60
        E 0 90 49 60
        E 0 90 4a 60
        E 0 90 54 60
        E 0 90 55 60
        E 0 90 56 60
        E 0 90 60 60
        E 0 90 61 60
        E 0 90 62 60
        E 61 80 18 00
        E 0 80 1a 00
        E 0 80 1f 00
        E 0 80 3d 00
        E 0 80 3e 00
        E 0 80 49 00
        E 0 80 4a 00
        E 0 80 54 00
        E 0 80 55 00
        E 0 80 56 00
        E 0 80 60 00
        E 0 80 61 00
        E 0 80 62 00
        E 178 90 1f 60
        E 0 90 56 60
        E 0 90 62 60
        E 61 80 1f 00
        E 0 80 56 00
        E 0 80 62 00
        E 180 90 18 60
        E 0 90 1f 60
        E 0 90 3e 60
        E 0 90 48 60
        E 0 90 4a 60
        E 0 90 54 60
        E 0 90 56 60
        E 0 90 60 60
        E 0 90 62 60
        E 0 90 78 60
        E 0 90 79 60
        E 0 90 7a 60
        E 0 90 7b 60
        E 0 90 7c 60
        E 60 80 18 00
        E 0 80 48 00
        E 0 80 54 00
        E 0 80 60 00
        E 1 80 1f 00
        E 0 80 3e 00
        E 0 80 4a 00
        E 0 80 56 00
        E 0 80 62 00
        E 178 90 1f 60
        E 0 90 56 60
        E 0 90 62 60
        E 61 80 1f 00
        E 0 80 56 00
        E 0 80 62 00
        E 180 90 1a 60
        E 0 90 1f 60
        E 0 90 3d 60
        E 0 90 3e 60
        E 0 90 49 60
        E 0 90 4a 60
        E 0 90 55 60
        E 0 90 56 60
        E 0 90 61 60
        E 0 90 62 60
        E 61 80 1a 00
        E 0 80 1f 00
        E 0 80 3d 00
        E 0 80 3e 00
        E 0 80 49 00
        E 0 80 4a 00
        E 0 80 55 00
        E 0 80 56 00
        E 0 80 61 00
        E 0 80 62 00
        E 178 90 1f 60
        E 0 90 56 60
        E 0 90 62 60
        E 61 80 1f 00
        E 0 80 56 00
        E 0 80 62 00
        E 180 90 18 60
        E 0 90 1f 60
        E 0 90 3e 60
        E 0 90 48 60
        E 0 90 4a 60
        E 0 90 54 60
        E 0 90 56 60
        E 0 90 60 60
        E 0 90 62 60
        E 60 80 1f 00
        E 0 80 3e 00
        E 0 80 4a 00
        E 0 80 56 00
        E 0 80 62 00
        E 1 80 18 00
        E 0 80 48 00
        E 0 80 54 00
        E 0 80 60 00
        E 179 90 1f 60
        E 0 90 56 60
        E 0 90 62 60
        E 61 80 1f 00
        E 0 80 56 00
        E 0 80 62 00
        E 179 80 78 00
        E 0 80 79 00
        E 0 80 7a 00
        E 0 80 7b 00
        E 0 80 7c 00
        E 0 90 18 60
        E 0 90 1a 60
        E 0 90 1f 60
        E 0 90 3d 60
        E 0 90 3e 60
        E 0 90 49 60
        E 0 90 4a 60
        E 0 90 54 60
        E 0 90 55 60
        E 0 90 56 60
        E 0 90 60 60
        E 0 90 61 60
        E 0 90 62 60
        E 61 80 18 00
        E 0 80 1a 00
        E 0 80 1f 00
        E 0 80 3d 00
        E 0 80 3e 00
        E 0 80 49 00
        E 0 80 4a 00
        E 0 80 54 00
        E 0 80 55 00
        E 0 80 56 00
        E 0 80 60 00
        E 0 80 61 00
        E 0 80 62 00
        E 178 90 1f 60
        E 0 90 56 60
        E 0 90 62 60
        E 61 80 1f 00
        E 0 80 56 00
        E 0 80 62 00
        E 180 90 18 60
        E 0 90 1f 60
        E 0 90 3e 60
        E 0 90 48 60
        E 0 90 4a 60
        E 0 90 54 60
        E 0 90 56 60
        E 0 90 60 60
        E 0 90 62 60
        E 60 80 18 00
        E 0 80 1f 00
        E 0 80 3e 00
        E 0 80 48 00
        E 0 80 4a 00
        E 0 80 54 00
        E 0 80 56 00
        E 0 80 60 00
        E 0 80 62 00
        E 179 90 1f 60
        E 0 90 56 60
        E 0 90 62 60
        E 61 80 1f 00
        E 0 80 56 00
        E 0 80 62 00
        E 180 90 1a 60
        E 0 90 1f 60
        E 0 90 3d 60
        E 0 90 3e 60
        E 0 90 49 60
        E 0 90 4a 60
        E 0 90 55 60
        E 0 90 56 60
        E 0 90 61 60
        E 0 90 62 60
        E 61 80 1a 00
        E 0 80 1f 00
        E 0 80 3d 00
        E 0 80 3e 00
        E 0 80 49 00
        E 0 80 4a 00
        E 0 80 55 00
        E 0 80 56 00
        E 0 80 61 00
        E 0 80 62 00
        E 178 90 1f 60
        E 0 90 56 60
        E 0 90 62 60
        E 61 80 1f 00
        E 0 80 56 00
        E 0 80 62 00
        E 180 90 18 60
        E 0 90 1f 60
        E 0 90 3e 60
        E 0 90 48 60
        E 0 90 4a 60
        E 0 90 54 60
        E 0 90 56 60
        E 0 90 60 60
        E 0 90 62 60
        E 60 80 1f 00
        E 0 80 3e 00
        E 0 80 4a 00
        E 0 80 56 00
        E 0 80 62 00
        E 1 80 18 00
        E 0 80 48 00
        E 0 80 54 00
        E 0 80 60 00
        E 179 90 1f 60
        E 0 90 56 60
        E 0 90 62 60
        E 61 80 1f 00
        E 0 80 56 00
        E 0 80 62 00
        E 179 90 18 60
        E 0 90 1a 60
        E 0 90 1f 60
        E 0 90 3d 60
        E 0 90 3e 60
        E 0 90 49 60
        E 0 90 4a 60
        E 0 90 54 60
        E 0 90 55 60
        E 0 90 56 60
        E 0 90 60 60
        E 0 90 61 60
        E 0 90 62 60
        E 61 80 18 00
        E 0 80 1a 00
        E 0 80 1f 00
        E 0 80 3d 00
        E 0 80 3e 00
        E 0 80 49 00
        E 0 80 4a 00
        E 0 80 54 00
        E 0 80 55 00
        E 0 80 56 00
        E 0 80 60 00
        E 0 80 61 00
        E 0 80 62 00
        E 178 90 1f 60
        E 0 90 56 60
        E 0 90 62 60
        E 61 80 1f 00
        E 0 80 56 00
        E 0 80 62 00
        E 180 90 18 60
        E 0 90 1f 60
        E 0 90 3e 60
        E 0 90 48 60
        E 0 90 4a 60
        E 0 90 54 60
        E 0 90 56 60
        E 0 90 60 60
        E 0 90 62 60
        E 60 80 18 00
        E 0 80 48 00
        E 0 80 54 00
        E 0 80 60 00
        E 1 80 1f 00
        E 0 80 3e 00
        E 0 80 4a 00
        E 0 80 56 00
        E 0 80 62 00
        E 178 90 1f 60
        E 0 90 56 60
        E 0 90 62 60
        E 61 80 1f 00
        E 0 80 56 00
        E 0 80 62 00
        E 180 90 1a 60
        E 0 90 1f 60
        E 0 90 3d 60
        E 0 90 3e 60
        E 0 90 49 60
        E 0 90 4a 60
        E 0 90 55 60
        E 0 90 56 60
        E 0 90 61 60
        E 0 90 62 60
        E 60 80 1f 00
        E 0 80 3e 00
        E 0 80 4a 00
        E 0 80 56 00
        E 0 80 62 00
        E 1 80 1a 00
        E 0 80 3d 00
        E 0 80 49 00
        E 0 80 55 00
        E 0 80 61 00
        E 178 90 1f 60
        E 0 90 56 60
        E 0 90 62 60
        E 61 80 1f 00
        E 0 80 56 00
        E 0 80 62 00
        E 180 90 18 60
        E 0 90 1f 60
        E 0 90 3e 60
        E 0 90 48 60
        E 0 90 4a 60
        E 0 90 54 60
        E 0 90 56 60
        E 0 90 60 60
        E 0 90 62 60
        E 60 80 1f 00
        E 0 80 3e 00
        E 0 80 4a 00
        E 0 80 56 00
        E 0 80 62 00
        E 1 80 18 00
        E 0 80 48 00
        E 0 80 54 00
        E 0 80 60 00
        E 179 90 1f 60
        E 0 90 56 60
        E 0 90 62 60
        E 61 80 1f 00
        E 0 80 56 00
        E 0 80 62 00
        E 179 90 18 60
        E 0 90 1a 60
        E 0 90 1f 60
        E 0 90 3d 60
        E 0 90 3e 60
        E 0 90 49 60
        E 0 90 4a 60
        E 0 90 54 60
        E 0 90 55 60
        E 0 90 56 60
        E 0 90 60 60
        E 0 90 61 60
        E 0 90 62 60
        E 61 80 18 00
        E 0 80 1a 00
        E 0 80 1f 00
        E 0 80 3d 00
        E 0 80 3e 00
        E 0 80 49 00
        E 0 80 4a 00
        E 0 80 54 00
        E 0 80 55 00
        E 0 80 56 00
        E 0 80 60 00
        E 0 80 61 00
        E 0 80 62 00
        E 178 90 1f 60
        E 0 90 56 60
        E 0 90 62 60
        E 61 80 1f 00
        E 0 80 56 00
        E 0 80 62 00
        E 180 90 18 60
        E 0 90 1f 60
        E 0 90 3e 60
        E 0 90 48 60
        E 0 90 4a 60
        E 0 90 54 60
        E 0 90 56 60
        E 0 90 60 60
        E 0 90 62 60
        E 60 80 18 00
        E 0 80 48 00
        E 0 80 54 00
        E 0 80 60 00
        E 1 80 1f 00
        E 0 80 3e 00
        E 0 80 4a 00
        E 0 80 56 00
        E 0 80 62 00
        E 178 90 1f 60
        E 0 90 56 60
        E 0 90 62 60
        E 61 80 1f 00
        E 0 80 56 00
        E 0 80 62 00
        E 180 90 1a 60
        E 0 90 1f 60
        E 0 90 3d 60
        E 0 90 3e 60
        E 0 90 49 60
        E 0 90 4a 60
        E 0 90 55 60
        E 0 90 56 60
        E 0 90 61 60
        E 0 90 62 60
        E 61 80 1a 00
        E 0 80 1f 00
        E 0 80 3d 00
        E 0 80 3e 00
        E 0 80 49 00
        E 0 80 4a 00
        E 0 80 55 00
        E 0 80 56 00
        E 0 80 61 00
        E 0 80 62 00
        E 178 90 1f 60
        E 0 90 56 60
        E 0 90 62 60
        E 61 80 1f 00
        E 0 80 56 00
        E 0 80 62 00
        E 180 90 18 60
        E 0 90 1f 60
        E 0 90 3e 60
        E 0 90 48 60
        E 0 90 4a 60
        E 0 90 54 60
        E 0 90 56 60
        E 0 90 60 60
        E 0 90 62 60
        E 60 80 1f 00
        E 0 80 3e 00
        E 0 80 4a 00
        E 0 80 56 00
        E 0 80 62 00
        E 1 80 18 00
        E 0 80 48 00
        E 0 80 54 00
        E 0 80 60 00
        E 179 90 1f 60
        E 0 90 56 60
        E 0 90 62 60
        E 61 80 1f 00
        E 0 80 56 00
        E 0 80 62 00
        E 179 90 18 60
        E 0 90 1a 60
        E 0 90 1f 60
        E 0 90 3d 60
        E 0 90 3e 60
        E 0 90 49 60
        E 0 90 4a 60
        E 0 90 54 60
        E 0 90 55 60
        E 0 90 56 60
        E 0 90 60 60
        E 0 90 61 60
        E 0 90 62 60
        E 61 80 18 00
        E 0 80 1a 00
        E 0 80 1f 00
        E 0 80 3d 00
        E 0 80 3e 00
        E 0 80 49 00
        E 0 80 4a 00
        E 0 80 54 00
        E 0 80 55 00
        E 0 80 56 00
        E 0 80 60 00
        E 0 80 61 00
        E 0 80 62 00
        E 178 90 1f 60
        E 0 90 56 60
        E 0 90 62 60
        E 61 80 1f 00
        E 0 80 56 00
        E 0 80 62 00
        E 180 90 18 60
        E 0 90 1f 60
        E 0 90 3e 60
        E 0 90 48 60
        E 0 90 4a 60
        E 0 90 54 60
        E 0 90 56 60
        E 0 90 60 60
        E 0 90 62 60
        E 60 80 18 00
        E 0 80 48 00
        E 0 80 54 00
        E 0 80 60 00
        E 1 80 1f 00
        E 0 80 3e 00
        E 0 80 4a 00
        E 0 80 56 00
        E 0 80 62 00
        E 178 90 1f 60
        E 0 90 56 60
        E 0 90 62 60
        E 61 80 1f 00
        E 0 80 56 00
        E 0 80 62 00
        E 180 90 1a 60
        E 0 90 1f 60
        E 0 90 3d 60
        E 0 90 3e 60
        E 0 90 49 60
        E 0 90 4a 60
        E 0 90 55 60
        E 0 90 56 60
        E 0 90 61 60
        E 0 90 62 60
        E 60 80 1f 00
        E 0 80 3e 00
        E 0 80 4a 00
        E 0 80 56 00
        E 0 80 62 00
        E 1 80 1a 00
        E 0 80 3d 00
        E 0 80 49 00
        E 0 80 55 00
        E 0 80 61 00
        E 178 90 1f 60
        E 0 90 56 60
        E 0 90 62 60
        E 61 80 1f 00
        E 0 80 56 00
        E 0 80 62 00
        E 180 90 18 60
        E 0 90 1f 60
        E 0 90 3e 60
        E 0 90 48 60
        E 0 90 4a 60
        E 0 90 54 60
        E 0 90 56 60
        E 0 90 60 60
        E 0 90 62 60
        E 60 80 1f 00
        E 0 80 3e 00
        E 0 80 4a 00
        E 0 80 56 00
        E 0 80 62 00
        E 1 80 18 00
        E 0 80 48 00
        E 0 80 54 00
        E 0 80 60 00
        E 179 90 1f 60
        E 0 90 56 60
        E 0 90 62 60
        E 61 80 1f 00
        E 0 80 56 00
        E 0 80 62 00
        E 179 90 18 60
        E 0 90 1a 60
        E 0 90 1f 60
        E 0 90 3d 60
        E 0 90 3e 60
        E 0 90 49 60
        E 0 90 4a 60
        E 0 90 54 60
        E 0 90 55 60
        E 0 90 56 60
        E 0 90 60 60
        E 0 90 61 60
        E 0 90 62 60
        E 61 80 18 00
        E 0 80 1a 00
        E 0 80 1f 00
        E 0 80 3d 00
        E 0 80 3e 00
        E 0 80 49 00
        E 0 80 4a 00
        E 0 80 54 00
        E 0 80 55 00
        E 0 80 56 00
        E 0 80 60 00
        E 0 80 61 00
        E 0 80 62 00
        E 178 90 1f 60
        E 0 90 56 60
        E 0 90 62 60
        E 61 80 1f 00
        E 0 80 56 00
        E 0 80 62 00
        E 180 90 18 60
        E 0 90 1f 60
        E 0 90 3e 60
        E 0 90 48 60
        E 0 90 4a 60
        E 0 90 54 60
        E 0 90 56 60
        E 0 90 60 60
        E 0 90 62 60
        E 60 80 18 00
        E 0 80 48 00
        E 0 80 54 00
        E 0 80 60 00
        E 1 80 1f 00
        E 0 80 3e 00
        E 0 80 4a 00
        E 0 80 56 00
        E 0 80 62 00
        E 178 90 1f 60
        E 0 90 56 60
        E 0 90 62 60
        E 61 80 1f 00
        E 0 80 56 00
        E 0 80 62 00
        E 180 90 1a 60
        E 0 90 1f 60
        E 0 90 3d 60
        E 0 90 3e 60
        E 0 90 49 60
        E 0 90 4a 60
        E 0 90 55 60
        E 0 90 56 60
        E 0 90 61 60
        E 0 90 62 60
        E 60 80 1f 00
        E 0 80 3e 00
        E 0 80 4a 00
        E 0 80 56 00
        E 0 80 62 00
        E 1 80 1a 00
        E 0 80 3d 00
        E 0 80 49 00
        E 0 80 55 00
        E 0 80 61 00
        E 178 90 1f 60
        E 0 90 56 60
        E 0 90 62 60
        E 61 80 1f 00
        E 0 80 56 00
        E 0 80 62 00
        E 180 90 18 60
        E 0 90 1f 60
        E 0 90 3e 60
        E 0 90 48 60
        E 0 90 4a 60
        E 0 90 54 60
        E 0 90 56 60
        E 0 90 60 60
        E 0 90 62 60
        E 60 80 1f 00
        E 0 80 3e 00
        E 0 80 4a 00
        E 0 80 56 00
        E 0 80 62 00
        E 1 80 18 00
        E 0 80 48 00
        E 0 80 54 00
        E 0 80 60 00
        E 179 90 1f 60
        E 0 90 56 60
        E 0 90 62 60
        E 61 80 1f 00
        E 0 80 56 00
        E 0 80 62 00
        E 179 90 18 60
        E 0 90 1a 60
        E 0 90 1f 60
        E 0 90 3d 60
        E 0 90 3e 60
        E 0 90 49 60
        E 0 90 4a 60
        E 0 90 54 60
        E 0 90 55 60
        E 0 90 56 60
        E 0 90 60 60
        E 0 90 61 60
        E 0 90 62 60
        E 61 80 18 00
        E 0 80 1a 00
        E 0 80 1f 00
        E 0 80 3d 00
        E 0 80 3e 00
        E 0 80 49 00
        E 0 80 4a 00
        E 0 80 54 00
        E 0 80 55 00
        E 0 80 56 00
        E 0 80 60 00
        E 0 80 61 00
        E 0 80 62 00
        E 178 90 1f 60
        E 0 90 56 60
        E 0 90 62 60
        E 61 80 1f 00
        E 0 80 56 00
        E 0 80 62 00
        E 180 90 18 60
        E 0 90 1f 60
        E 0 90 3e 60
        E 0 90 48 60
        E 0 90 4a 60
        E 0 90 54 60
        E 0 90 56 60
        E 0 90 60 60
        E 0 90 62 60
        E 60 80 18 00
        E 0 80 48 00
        E 0 80 54 00
        E 0 80 60 00
        E 1 80 1f 00
        E 0 80 3e 00
        E 0 80 4a 00
        E 0 80 56 00
        E 0 80 62 00
        E 178 90 1f 60
        E 0 90 56 60
        E 0 90 62 60
        E 61 80 1f 00
        E 0 80 56 00
        E 0 80 62 00
        E 180 90 1a 60
        E 0 90 1f 60
        E 0 90 3d 60
        E 0 90 3e 60
        E 0 90 49 60
        E 0 90 4a 60
        E 0 90 55 60
        E 0 90 56 60
        E 0 90 61 60
        E 0 90 62 60
        E 61 80 1a 00
        E 0 80 1f 00
        E 0 80 3d 00
        E 0 80 3e 00
        E 0 80 49 00
        E 0 80 4a 00
        E 0 80 55 00
        E 0 80 56 00
        E 0 80 61 00
        E 0 80 62 00
        E 178 90 1f 60
        E 0 90 56 60
        E 0 90 62 60
        E 61 80 1f 00
        E 0 80 56 00
        E 0 80 62 00
        E 120 90 74 60
        E 60 90 18 60
        E 0 90 1a 60
        E 0 90 1f 60
        E 0 90 3d 60
        E 0 90 3e 60
        E 0 90 49 60
        E 0 90 4a 60
        E 0 90 54 60
        E 0 90 55 60
        E 0 90 56 60
        E 0 90 60 60
        E 0 90 61 60
        E 0 90 62 60
        E 61 80 18 00
        E 0 80 1a 00
        E 0 80 1f 00
        E 0 80 3d 00
        E 0 80 3e 00
        E 0 80 49 00
        E 0 80 4a 00
        E 0 80 54 00
        E 0 80 55 00
        E 0 80 56 00
        E 0 80 60 00
        E 0 80 61 00
        E 0 80 62 00
        E 179 90 18 60
        E 0 90 1f 60
        E 0 90 54 60
        E 0 90 56 60
        E 0 90 60 60
        E 0 90 62 60
        E 61 80 18 00
        E 0 80 1f 00
        E 0 80 54 00
        E 0 80 56 00
        E 0 80 60 00
        E 0 80 62 00
        E 179 90 18 60
        E 0 90 1a 60
        E 0 90 1f 60
        E 0 90 3d 60
        E 0 90 3e 60
        E 0 90 49 60
        E 0 90 4a 60
        E 0 90 54 60
        E 0 90 55 60
        E 0 90 56 60
        E 0 90 60 60
        E 0 90 61 60
        E 0 90 62 60
        E 61 80 18 00
        E 0 80 1a 00
        E 0 80 1f 00
        E 0 80 3d 00
        E 0 80 3e 00
        E 0 80 49 00
        E 0 80 4a 00
        E 0 80 54 00
        E 0 80 55 00
        E 0 80 56 00
        E 0 80 60 00
        E 0 80 61 00
        E 0 80 62 00
        E 179 90 18 60
        E 0 90 1f 60
        E 0 90 54 60
        E 0 90 56 60
        E 0 90 60 60
        E 0 90 62 60
        E 61 80 18 00
        E 0 80 1f 00
        E 0 80 54 00
        E 0 80 56 00
        E 0 80 60 00
        E 0 80 62 00
        E 179 90 18 60
        E 0 90 1a 60
        E 0 90 1f 60
        E 0 90 3d 60
        E 0 90 3e 60
        E 0 90 49 60
        E 0 90 4a 60
        E 0 90 54 60
        E 0 90 55 60
        E 0 90 56 60
        E 0 90 60 60
        E 0 90 61 60
        E 0 90 62 60
        E 61 80 18 00
        E 0 80 1a 00
        E 0 80 1f 00
        E 0 80 3d 00
        E 0 80 3e 00
        E 0 80 49 00
        E 0 80 4a 00
        E 0 80 54 00
        E 0 80 55 00
        E 0 80 56 00
        E 0 80 60 00
        E 0 80 61 00
        E 0 80 62 00
        E 419 90 18 60
        E 0 90 1a 60
        E 0 90 1f 60
        E 0 90 3d 60
        E 0 90 3e 60
        E 0 90 49 60
        E 0 90 4a 60
        E 0 90 54 60
        E 0 90 55 60
        E 0 90 56 60
        E 0 90 60 60
        E 0 90 61 60
        E 0 90 62 60
        E 61 80 18 00
        E 0 80 1a 00
        E 0 80 1f 00
        E 0 80 3d 00
        E 0 80 3e 00
        E 0 80 49 00
        E 0 80 4a 00
        E 0 80 54 00
        E 0 80 55 00
        E 0 80 56 00
        E 0 80 60 00
        E 0 80 61 00
        E 0 80 62 00
        E 419 90 18 60
        E 0 90 22 60
        E 0 90 26 60
        E 0 90 3e 60
        E 0 90 40 60
        E 0 90 48 60
        E 0 90 4a 60
        E 0 90 4c 60
        E 0 90 54 60
        E 0 90 56 60
        E 0 90 58 60
        E 0 90 60 60
        E 0 90 62 60
        E 0 90 64 60
        E 60 80 22 00
        E 0 80 26 00
        E 0 80 3e 00
        E 0 80 40 00
        E 0 80 4a 00
        E 0 80 4c 00
        E 0 80 56 00
        E 0 80 58 00
        E 0 80 62 00
        E 0 80 64 00
        E 1 80 18 00
        E 0 80 48 00
        E 0 80 54 00
        E 0 80 60 00
        E 119 80 74 00
        E 60 90 1f 60
        E 0 90 56 60
        E 0 90 62 60
        E 61 80 1f 00
        E 0 80 56 00
        E 0 80 62 00
        E 179 90 18 60
        E 0 90 1a 60
        E 0 90 1f 60
        E 0 90 3d 60
        E 0 90 3e 60
        E 0 90 49 60
        E 0 90 4a 60
        E 0 90 54 60
        E 0 90 55 60
        E 0 90 56 60
        E 0 90 60 60
        E 0 90 61 60
        E 0 90 62 60
        E 61 80 18 00
        E 0 80 1a 00
        E 0 80 1f 00
        E 0 80 3d 00
        E 0 80 3e 00
        E 0 80 49 00
        E 0 80 4a 00
        E 0 80 54 00
        E 0 80 55 00
        E 0 80 56 00
        E 0 80 60 00
        E 0 80 61 00
        E 0 80 62 00
        E 178 90 1f 60
        E 0 90 56 60
        E 0 90 62 60
        E 61 80 1f 00
        E 0 80 56 00
        E 0 80 62 00
        E 180 90 18 60
        E 0 90 1f 60
        E 0 90 3e 60
        E 0 90 48 60
        E 0 90 4a 60
        E 0 90 54 60
        E 0 90 56 60
        E 0 90 60 60
        E 0 90 62 60
        E 60 80 18 00
        E 0 80 48 00
        E 0 80 54 00
        E 0 80 60 00
        E 1 80 1f 00
        E 0 80 3e 00
        E 0 80 4a 00
        E 0 80 56 00
        E 0 80 62 00
        E 178 90 1f 60
        E 0 90 56 60
        E 0 90 62 60
        E 61 80 1f 00
        E 0 80 56 00
        E 0 80 62 00
        E 180 90 1a 60
        E 0 90 1f 60
        E 0 90 3d 60
        E 0 90 3e 60
        E 0 90 49 60
        E 0 90 4a 60
        E 0 90 55 60
        E 0 90 56 60
        E 0 90 61 60
        E 0 90 62 60
        E 61 80 1a 00
        E 0 80 1f 00
        E 0 80 3d 00
        E 0 80 3e 00
        E 0 80 49 00
        E 0 80 4a 00
        E 0 80 55 00
        E 0 80 56 00
        E 0 80 61 00
        E 0 80 62 00
        E 178 90 1f 60
        E 0 90 56 60
        E 0 90 62 60
        E 61 80 1f 00
        E 0 80 56 00
        E 0 80 62 00
        E 180 90 18 60
        E 0 90 1f 60
        E 0 90 3e 60
        E 0 90 48 60
        E 0 90 4a 60
        E 0 90 54 60
        E 0 90 56 60
        E 0 90 60 60
        E 0 90 62 60
        E 60 80 1f 00
        E 0 80 3e 00
        E 0 80 4a 00
        E 0 80 56 00
        E 0 80 62 00
        E 1 80 18 00
        E 0 80 48 00
        E 0 80 54 00
        E 0 80 60 00
        E 179 90 1f 60
        E 0 90 56 60
        E 0 90 62 60
        E 61 80 1f 00
        E 0 80 56 00
        E 0 80 62 00
        E 179 90 18 60
        E 0 90 1a 60
        E 0 90 1f 60
        E 0 90 3d 60
        E 0 90 3e 60
        E 0 90 49 60
        E 0 90 4a 60
        E 0 90 54 60
        E 0 90 55 60
        E 0 90 56 60
        E 0 90 60 60
        E 0 90 61 60
        E 0 90 62 60
        E 61 80 18 00
        E 0 80 1a 00
        E 0 80 1f 00
        E 0 80 3d 00
        E 0 80 3e 00
        E 0 80 49 00
        E 0 80 4a 00
        E 0 80 54 00
        E 0 80 55 00
        E 0 80 56 00
        E 0 80 60 00
        E 0 80 61 00
        E 0 80 62 00
        E 178 90 1f 60
        E 0 90 56 60
        E 0 90 62 60
        E 61 80 1f 00
        E 0 80 56 00
        E 0 80 62 00
        E 180 90 18 60
        E 0 90 1f 60
        E 0 90 3e 60
        E 0 90 48 60
        E 0 90 4a 60
        E 0 90 54 60
        E 0 90 56 60
        E 0 90 60 60
        E 0 90 62 60
        E 60 80 18 00
        E 0 80 48 00
        E 0 80 54 00
        E 0 80 60 00
        E 1 80 1f 00
        E 0 80 3e 00
        E 0 80 4a 00
        E 0 80 56 00
        E 0 80 62 00
        E 178 90 1f 60
        E 0 90 56 60
        E 0 90 62 60
        E 61 80 1f 00
        E 0 80 56 00
        E 0 80 62 00
        E 180 90 1a 60
        E 0 90 1f 60
        E 0 90 3d 60
        E 0 90 3e 60
        E 0 90 49 60
        E 0 90 4a 60
        E 0 90 55 60
        E 0 90 56 60
        E 0 90 61 60
        E 0 90 62 60
        E 61 80 1a 00
        E 0 80 1f 00
        E 0 80 3d 00
        E 0 80 3e 00
        E 0 80 49 00
        E 0 80 4a 00
        E 0 80 55 00
        E 0 80 56 00
        E 0 80 61 00
        E 0 80 62 00
        E 178 90 1f 60
        E 0 90 56 60
        E 0 90 62 60
        E 61 80 1f 00
        E 0 80 56 00
        E 0 80 62 00
        E 180 90 18 60
        E 0 90 1f 60
        E 0 90 3e 60
        E 0 90 48 60
        E 0 90 4a 60
        E 0 90 54 60
        E 0 90 56 60
        E 0 90 60 60
        E 0 90 62 60
        E 60 80 1f 00
        E 0 80 3e 00
        E 0 80 4a 00
        E 0 80 56 00
        E 0 80 62 00
        E 1 80 18 00
        E 0 80 48 00
        E 0 80 54 00
        E 0 80 60 00
        E 179 90 1f 60
        E 0 90 56 60
        E 0 90 62 60
        E 61 80 1f 00
        E 0 80 56 00
        E 0 80 62 00
        E 179 90 18 60
        E 0 90 1a 60
        E 0 90 1f 60
        E 0 90 3d 60
        E 0 90 3e 60
        E 0 90 49 60
        E 0 90 4a 60
        E 0 90 54 60
        E 0 90 55 60
        E 0 90 56 60
        E 0 90 60 60
        E 0 90 61 60
        E 0 90 62 60
        E 61 80 18 00
        E 0 80 1a 00
        E 0 80 1f 00
        E 0 80 3d 00
        E 0 80 3e 00
        E 0 80 49 00
        E 0 80 4a 00
        E 0 80 54 00
        E 0 80 55 00
        E 0 80 56 00
        E 0 80 60 00
        E 0 80 61 00
        E 0 80 62 00
        E 178 90 1f 60
        E 0 90 56 60
        E 0 90 62 60
        E 61 80 1f 00
        E 0 80 56 00
        E 0 80 62 00
        E 180 90 18 60
        E 0 90 1f 60
        E 0 90 3e 60
        E 0 90 48 60
        E 0 90 4a 60
        E 0 90 54 60
        E 0 90 56 60
        E 0 90 60 60
        E 0 90 62 60
        E 60 80 18 00
        E 0 80 48 00
        E 0 80 54 00
        E 0 80 60 00
        E 1 80 1f 00
        E 0 80 3e 00
        E 0 80 4a 00
        E 0 80 56 00
        E 0 80 62 00
        E 59 90 78 60
        E 0 90 79 60
        E 0 90 7a 60
        E 0 90 7b 60
        E 0 90 7c 60
        E 119 90 1f 60
        E 0 90 56 60
        E 0 90 62 60
        E 61 80 1f 00
        E 0 80 56 00
        E 0 80 62 00
        E 180 90 1a 60
        E 0 90 1f 60
        E 0 90 3d 60
        E 0 90 3e 60
        E 0 90 49 60
        E 0 90 4a 60
        E 0 90 55 60
        E 0 90 56 60
        E 0 90 61 60
        E 0 90 62 60
        E 61 80 1a 00
        E 0 80 1f 00
        E 0 80 3d 00
        E 0 80 3e 00
        E 0 80 49 00
        E 0 80 4a 00
        E 0 80 55 00
        E 0 80 56 00
        E 0 80 61 00
        E 0 80 62 00
        E 178 90 1f 60
        E 0 90 56 60
        E 0 90 62 60
        E 61 80 1f 00
        E 0 80 56 00
        E 0 80 62 00
        E 180 90 18 60
        E 0 90 1f 60
        E 0 90 3e 60
        E 0 90 48 60
        E 0 90 4a 60
        E 0 90 54 60
        E 0 90 56 60
        E 0 90 60 60
        E 0 90 62 60
        E 60 80 1f 00
        E 0 80 3e 00
        E 0 80 4a 00
        E 0 80 56 00
        E 0 80 62 00
        E 1 80 18 00
        E 0 80 48 00
        E 0 80 54 00
        E 0 80 60 00
        E 179 90 1f 60
        E 0 90 56 60
        E 0 90 62 60
        E 61 80 1f 00
        E 0 80 56 00
        E 0 80 62 00
        E 179 80 78 00
        E 0 80 79 00
        E 0 80 7a 00
        E 0 80 7b 00
        E 0 80 7c 00
        E 0 90 18 60
        E 0 90 1a 60
        E 0 90 1f 60
        E 0 90 3d 60
        E 0 90 3e 60
        E 0 90 49 60
        E 0 90 4a 60
        E 0 90 54 60
        E 0 90 55 60
        E 0 90 56 60
        E 0 90 60 60
        E 0 90 61 60
        E 0 90 62 60
        E 61 80 18 00
        E 0 80 1a 00
        E 0 80 1f 00
        E 0 80 3d 00
        E 0 80 3e 00
        E 0 80 49 00
        E 0 80 4a 00
        E 0 80 54 00
        E 0 80 55 00
        E 0 80 56 00
        E 0 80 60 00
        E 0 80 61 00
        E 0 80 62 00
        E 178 90 1f 60
        E 0 90 56 60
        E 0 90 62 60
        E 61 80 1f 00
        E 0 80 56 00
        E 0 80 62 00
        E 180 90 18 60
        E 0 90 1f 60
        E 0 90 3e 60
        E 0 90 48 60
        E 0 90 4a 60
        E 0 90 54 60
        E 0 90 56 60
        E 0 90 60 60
        E 0 90 62 60
        E 60 80 18 00
        E 0 80 48 00
        E 0 80 54 00
        E 0 80 60 00
        E 1 80 1f 00
        E 0 80 3e 00
        E 0 80 4a 00
        E 0 80 56 00
        E 0 80 62 00
        E 178 90 1f 60
        E 0 90 56 60
        E 0 90 62 60
        E 61 80 1f 00
        E 0 80 56 00
        E 0 80 62 00
        E 180 90 1a 60
        E 0 90 1f 60
        E 0 90 3d 60
        E 0 90 3e 60
        E 0 90 49 60
        E 0 90 4a 60
        E 0 90 55 60
        E 0 90 56 60
        E 0 90 61 60
        E 0 90 62 60
        E 61 80 1a 00
        E 0 80 1f 00
        E 0 80 3d 00
        E 0 80 3e 00
        E 0 80 49 00
        E 0 80 4a 00
        E 0 80 55 00
        E 0 80 56 00
        E 0 80 61 00
        E 0 80 62 00
        E 178 90 1f 60
        E 0 90 56 60
        E 0 90 62 60
        E 61 80 1f 00
        E 0 80 56 00
        E 0 80 62 00
        E 180 90 18 60
        E 0 90 1f 60
        E 0 90 3e 60
        E 0 90 48 60
        E 0 90 4a 60
        E 0 90 54 60
        E 0 90 56 60
        E 0 90 60 60
        E 0 90 62 60
        E 60 80 1f 00
        E 0 80 3e 00
        E 0 80 4a 00
        E 0 80 56 00
        E 0 80 62 00
        E 1 80 18 00
        E 0 80 48 00
        E 0 80 54 00
        E 0 80 60 00
        E 179 90 1f 60
        E 0 90 56 60
        E 0 90 62 60
        E 61 80 1f 00
        E 0 80 56 00
        E 0 80 62 00
        E 179 90 18 60
        E 0 90 1a 60
        E 0 90 1f 60
        E 0 90 3d 60
        E 0 90 3e 60
        E 0 90 49 60
        E 0 90 4a 60
        E 0 90 54 60
        E 0 90 55 60
        E 0 90 56 60
        E 0 90 60 60
        E 0 90 61 60
        E 0 90 62 60
        E 61 80 18 00
        E 0 80 1a 00
        E 0 80 1f 00
        E 0 80 3d 00
        E 0 80 3e 00
        E 0 80 49 00
        E 0 80 4a 00
        E 0 80 54 00
        E 0 80 55 00
        E 0 80 56 00
        E 0 80 60 00
        E 0 80 61 00
        E 0 80 62 00
        E 178 90 1f 60
        E 0 90 56 60
        E 0 90 62 60
        E 61 80 1f 00
        E 0 80 56 00
        E 0 80 62 00
        E 180 90 18 60
        E 0 90 1f 60
        E 0 90 3e 60
        E 0 90 48 60
        E 0 90 4a 60
        E 0 90 54 60
        E 0 90 56 60
        E 0 90 60 60
        E 0 90 62 60
        E 60 80 18 00
        E 0 80 48 00
        E 0 80 54 00
        E 0 80 60 00
        E 1 80 1f 00
        E 0 80 3e 00
        E 0 80 4a 00
        E 0 80 56 00
        E 0 80 62 00
        E 178 90 1f 60
        E 0 90 56 60
        E 0 90 62 60
        E 61 80 1f 00
        E 0 80 56 00
        E 0 80 62 00
        E 180 90 1a 60
        E 0 90 1f 60
        E 0 90 3d 60
        E 0 90 3e 60
        E 0 90 49 60
        E 0 90 4a 60
        E 0 90 55 60
        E 0 90 56 60
        E 0 90 61 60
        E 0 90 62 60
        E 61 80 1a 00
        E 0 80 1f 00
        E 0 80 3d 00
        E 0 80 3e 00
        E 0 80 49 00
        E 0 80 4a 00
        E 0 80 55 00
        E 0 80 56 00
        E 0 80 61 00
        E 0 80 62 00
        E 178 90 1f 60
        E 0 90 56 60
        E 0 90 62 60
        E 61 80 1f 00
        E 0 80 56 00
        E 0 80 62 00
        E 180 90 18 60
        E 0 90 1f 60
        E 0 90 3e 60
        E 0 90 48 60
        E 0 90 4a 60
        E 0 90 54 60
        E 0 90 56 60
        E 0 90 60 60
        E 0 90 62 60
        E 60 80 1f 00
        E 0 80 3e 00
        E 0 80 4a 00
        E 0 80 56 00
        E 0 80 62 00
        E 1 80 18 00
        E 0 80 48 00
        E 0 80 54 00
        E 0 80 60 00
        E 179 90 1f 60
        E 0 90 56 60
        E 0 90 62 60
        E 61 80 1f 00
        E 0 80 56 00
        E 0 80 62 00
        E 179 90 18 60
        E 0 90 1a 60
        E 0 90 1f 60
        E 0 90 3d 60
        E 0 90 3e 60
        E 0 90 49 60
        E 0 90 4a 60
        E 0 90 54 60
        E 0 90 55 60
        E 0 90 56 60
        E 0 90 60 60
        E 0 90 61 60
        E 0 90 62 60
        E 61 80 18 00
        E 0 80 1a 00
        E 0 80 1f 00
        E 0 80 3d 00
        E 0 80 3e 00
        E 0 80 49 00
        E 0 80 4a 00
        E 0 80 54 00
        E 0 80 55 00
        E 0 80 56 00
        E 0 80 60 00
        E 0 80 61 00
        E 0 80 62 00
        E 178 90 1f 60
        E 0 90 56 60
        E 0 90 62 60
        E 61 80 1f 00
        E 0 80 56 00
        E 0 80 62 00
        E 180 90 18 60
        E 0 90 1f 60
        E 0 90 3e 60
        E 0 90 48 60
        E 0 90 4a 60
        E 0 90 54 60
        E 0 90 56 60
        E 0 90 60 60
        E 0 90 62 60
        E 60 80 18 00
        E 0 80 48 00
        E 0 80 54 00
        E 0 80 60 00
        E 1 80 1f 00
        E 0 80 3e 00
        E 0 80 4a 00
        E 0 80 56 00
        E 0 80 62 00
        E 178 90 1f 60
        E 0 90 56 60
        E 0 90 62 60
        E 61 80 1f 00
        E 0 80 56 00
        E 0 80 62 00
        E 180 90 1a 60
        E 0 90 1f 60
        E 0 90 3d 60
        E 0 90 3e 60
        E 0 90 49 60
        E 0 90 4a 60
        E 0 90 55 60
        E 0 90 56 60
        E 0 90 61 60
        E 0 90 62 60
        E 61 80 1a 00
        E 0 80 1f 00
        E 0 80 3d 00
        E 0 80 3e 00
        E 0 80 49 00
        E 0 80 4a 00
        E 0 80 55 00
        E 0 80 56 00
        E 0 80 61 00
        E 0 80 62 00
        E 178 90 1f 60
        E 0 90 56 60
        E 0 90 62 60
        E 61 80 1f 00
        E 0 80 56 00
        E 0 80 62 00
        E 180 90 18 60
        E 0 90 1f 60
        E 0 90 3e 60
        E 0 90 48 60
        E 0 90 4a 60
        E 0 90 54 60
        E 0 90 56 60
        E 0 90 60 60
        E 0 90 62 60
        E 61 80 18 00
        E 0 80 1f 00
        E 0 80 3e 00
        E 0 80 48 00
        E 0 80 4a 00
        E 0 80 54 00
        E 0 80 56 00
        E 0 80 60 00
        E 0 80 62 00
        E 179 90 1f 60
        E 0 90 56 60
        E 0 90 62 60
        E 61 80 1f 00
        E 0 80 56 00
        E 0 80 62 00
        E 179 90 18 60
        E 0 90 1a 60
        E 0 90 1f 60
        E 0 90 3d 60
        E 0 90 3e 60
        E 0 90 49 60
        E 0 90 4a 60
        E 0 90 54 60
        E 0 90 55 60
        E 0 90 56 60
        E 0 90 60 60
        E 0 90 61 60
        E 0 90 62 60
        E 61 80 18 00
        E 0 80 1a 00
        E 0 80 1f 00
        E 0 80 3d 00
        E 0 80 3e 00
        E 0 80 49 00
        E 0 80 4a 00
        E 0 80 54 00
        E 0 80 55 00
        E 0 80 56 00
        E 0 80 60 00
        E 0 80 61 00
        E 0 80 62 00
        E 179 90 1f 60
        E 0 90 56 60
        E 0 90 62 60
        E 61 80 1f 00
        E 0 80 56 00
        E 0 80 62 00
        E 179 90 18 60
        E 0 90 1f 60
        E 0 90 3e 60
        E 0 90 48 60
        E 0 90 4a 60
        E 0 90 54 60
        E 0 90 56 60
        E 0 90 60 60
        E 0 90 62 60
        E 61 80 18 00
        E 0 80 1f 00
        E 0 80 3e 00
        E 0 80 48 00
        E 0 80 4a 00
        E 0 80 54 00
        E 0 80 56 00
        E 0 80 60 00
        E 0 80 62 00
        E 179 90 1f 60
        E 0 90 56 60
        E 0 90 62 60
        E 61 80 1f 00
        E 0 80 56 00
        E 0 80 62 00
        E 179 90 18 60
        E 0 90 1a 60
        E 0 90 1f 60
        E 0 90 3d 60
        E 0 90 3e 60
        E 0 90 49 60
        E 0 90 4a 60
        E 0 90 54 60
        E 0 90 55 60
        E 0 90 56 60
        E 0 90 60 60
        E 0 90 61 60
        E 0 90 62 60
        E 61 80 18 00
        E 0 80 1a 00
        E 0 80 1f 00
        E 0 80 3d 00
        E 0 80 3e 00
        E 0 80 49 00
        E 0 80 4a 00
        E 0 80 54 00
        E 0 80 55 00
        E 0 80 56 00
        E 0 80 60 00
        E 0 80 61 00
        E 0 80 62 00
        E 179 90 18 60
        E 0 90 1f 60
        E 0 90 54 60
        E 0 90 56 60
        E 0 90 60 60
        E 0 90 62 60
        E 61 80 18 00
        E 0 80 1f 00
        E 0 80 54 00
        E 0 80 56 00
        E 0 80 60 00
        E 0 80 62 00
        E 179 90 18 60
        E 0 90 1a 60
        E 0 90 1f 60
        E 0 90 3d 60
        E 0 90 3e 60
        E 0 90 49 60
        E 0 90 4a 60
        E 0 90 54 60
        E 0 90 55 60
        E 0 90 56 60
        E 0 90 60 60
        E 0 90 61 60
        E 0 90 62 60
        E 61 80 18 00
        E 0 80 1a 00
        E 0 80 1f 00
        E 0 80 3d 00
        E 0 80 3e 00
        E 0 80 49 00
        E 0 80 4a 00
        E 0 80 54 00
        E 0 80 55 00
        E 0 80 56 00
        E 0 80 60 00
        E 0 80 61 00
        E 0 80 62 00
        E 179 90 1f 60
        E 0 90 56 60
        E 0 90 62 60
        E 61 80 1f 00
        E 0 80 56 00
        E 0 80 62 00
        E 179 90 18 60
        E 0 90 1a 60
        E 0 90 1f 60
        E 0 90 3d 60
        E 0 90 3e 60
        E 0 90 49 60
        E 0 90 4a 60
        E 0 90 54 60
        E 0 90 55 60
        E 0 90 56 60
        E 0 90 60 60
        E 0 90 61 60
        E 0 90 62 60
        E 61 80 18 00
        E 0 80 1a 00
        E 0 80 1f 00
        E 0 80 3d 00
        E 0 80 3e 00
        E 0 80 49 00
        E 0 80 4a 00
        E 0 80 54 00
        E 0 80 55 00
        E 0 80 56 00
        E 0 80 60 00
        E 0 80 61 00
        E 0 80 62 00
        E 179 90 1f 60
        E 0 90 56 60
        E 0 90 62 60
        E 61 80 1f 00
        E 0 80 56 00
        E 0 80 62 00
        E 179 90 18 60
        E 0 90 1a 60
        E 0 90 1f 60
        E 0 90 3d 60
        E 0 90 3e 60
        E 0 90 49 60
        E 0 90 4a 60
        E 0 90 54 60
        E 0 90 55 60
        E 0 90 56 60
        E 0 90 60 60
        E 0 90 61 60
        E 0 90 62 60
        E 61 80 18 00
        E 0 80 1a 00
        E 0 80 1f 00
        E 0 80 3d 00
        E 0 80 3e 00
        E 0 80 49 00
        E 0 80 4a 00
        E 0 80 54 00
        E 0 80 55 00
        E 0 80 56 00
        E 0 80 60 00
        E 0 80 61 00
        E 0 80 62 00
        E 899 90 18 60
        E 0 90 1f 60
        E 0 90 3e 60
        E 0 90 48 60
        E 0 90 4a 60
        E 0 90 54 60
        E 0 90 56 60
        E 0 90 60 60
        E 0 90 62 60
        E 60 80 1f 00
        E 0 80 3e 00
        E 0 80 4a 00
        E 0 80 56 00
        E 0 80 62 00
        E 1 80 18 00
        E 0 80 48 00
        E 0 80 54 00
        E 0 80 60 00
        E 179 90 1f 60
        E 0 90 56 60
        E 0 90 62 60
        E 61 80 1f 00
        E 0 80 56 00
        E 0 80 62 00
        E 179 90 18 60
        E 0 90 1a 60
        E 0 90 1f 60
        E 0 90 3d 60
        E 0 90 3e 60
        E 0 90 49 60
        E 0 90 4a 60
        E 0 90 54 60
        E 0 90 55 60
        E 0 90 56 60
        E 0 90 60 60
        E 0 90 61 60
        E 0 90 62 60
        E 61 80 18 00
        E 0 80 1a 00
        E 0 80 1f 00
        E 0 80 3d 00
        E 0 80 3e 00
        E 0 80 49 00
        E 0 80 4a 00
        E 0 80 54 00
        E 0 80 55 00
        E 0 80 56 00
        E 0 80 60 00
        E 0 80 61 00
        E 0 80 62 00
        E 178 90 1f 60
        E 0 90 56 60
        E 0 90 62 60
        E 61 80 1f 00
        E 0 80 56 00
        E 0 80 62 00
        E 180 90 18 60
        E 0 90 1f 60
        E 0 90 3e 60
        E 0 90 48 60
        E 0 90 4a 60
        E 0 90 54 60
        E 0 90 56 60
        E 0 90 60 60
        E 0 90 62 60
        E 60 80 18 00
        E 0 80 48 00
        E 0 80 54 00
        E 0 80 60 00
        E 1 80 1f 00
        E 0 80 3e 00
        E 0 80 4a 00
        E 0 80 56 00
        E 0 80 62 00
        E 178 90 1f 60
        E 0 90 56 60
        E 0 90 62 60
        E 61 80 1f 00
        E 0 80 56 00
        E 0 80 62 00
        E 180 90 18 60
        E 0 90 1a 60
        E 0 90 1f 60
        E 0 90 3d 60
        E 0 90 3e 60
        E 0 90 49 60
        E 0 90 4a 60
        E 0 90 54 60
        E 0 90 55 60
        E 0 90 56 60
        E 0 90 60 60
        E 0 90 61 60
        E 0 90 62 60
        E 60 80 18 00
        E 0 80 54 00
        E 0 80 60 00
        E 1 80 1a 00
        E 0 80 1f 00
        E 0 80 3d 00
        E 0 80 3e 00
        E 0 80 49 00
        E 0 80 4a 00
        E 0 80 55 00
        E 0 80 56 00
        E 0 80 61 00
        E 0 80 62 00
        E 137 90 74 60
        E 41 90 1f 60
        E 0 90 56 60
        E 0 90 62 60
        E 61 80 1f 00
        E 0 80 56 00
        E 0 80 62 00
        E 180 90 18 60
        E 0 90 1f 60
        E 0 90 3e 60
        E 0 90 48 60
        E 0 90 4a 60
        E 0 90 54 60
        E 0 90 56 60
        E 0 90 60 60
        E 0 90 62 60
        E 60 80 1f 00
        E 0 80 3e 00
        E 0 80 4a 00
        E 0 80 56 00
        E 0 80 62 00
        E 1 80 18 00
        E 0 80 48 00
        E 0 80 54 00
        E 0 80 60 00
        E 179 90 1f 60
        E 0 90 56 60
        E 0 90 62 60
        E 61 80 1f 00
        E 0 80 56 00
        E 0 80 62 00
        E 179 90 18 60
        E 0 90 1a 60
        E 0 90 1f 60
        E 0 90 3d 60
        E 0 90 3e 60
        E 0 90 49 60
        E 0 90 4a 60
        E 0 90 54 60
        E 0 90 55 60
        E 0 90 56 60
        E 0 90 60 60
        E 0 90 61 60
        E 0 90 62 60
        E 61 80 18 00
        E 0 80 1a 00
        E 0 80 1f 00
        E 0 80 3d 00
        E 0 80 3e 00
        E 0 80 49 00
        E 0 80 4a 00
        E 0 80 54 00
        E 0 80 55 00
        E 0 80 56 00
        E 0 80 60 00
        E 0 80 61 00
        E 0 80 62 00
        E 178 90 1f 60
        E 0 90 56 60
        E 0 90 62 60
        E 61 80 1f 00
        E 0 80 56 00
        E 0 80 62 00
        E 180 90 18 60
        E 0 90 1f 60
        E 0 90 3e 60
        E 0 90 48 60
        E 0 90 4a 60
        E 0 90 54 60
        E 0 90 56 60
        E 0 90 60 60
        E 0 90 62 60
        E 60 80 18 00
        E 0 80 48 00
        E 0 80 54 00
        E 0 80 60 00
        E 1 80 1f 00
        E 0 80 3e 00
        E 0 80 4a 00
        E 0 80 56 00
        E 0 80 62 00
        E 94 80 74 00
        E 84 90 1f 60
        E 0 90 56 60
        E 0 90 62 60
        E 61 80 1f 00
        E 0 80 56 00
        E 0 80 62 00
        E 180 90 18 60
        E 0 90 1a 60
        E 0 90 1f 60
        E 0 90 3d 60
        E 0 90 3e 60
        E 0 90 49 60
        E 0 90 4a 60
        E 0 90 54 60
        E 0 90 55 60
        E 0 90 56 60
        E 0 90 60 60
        E 0 90 61 60
        E 0 90 62 60
        E 60 80 18 00
        E 0 80 54 00
        E 0 80 60 00
        E 1 80 1a 00
        E 0 80 1f 00
        E 0 80 3d 00
        E 0 80 3e 00
        E 0 80 49 00
        E 0 80 4a 00
        E 0 80 55 00
        E 0 80 56 00
        E 0 80 61 00
        E 0 80 62 00
        E 178 90 1f 60
        E 0 90 56 60
        E 0 90 62 60
        E 61 80 1f 00
        E 0 80 56 00
        E 0 80 62 00
        E 180 90 18 60
        E 0 90 1f 60
        E 0 90 3e 60
        E 0 90 48 60
        E 0 90 4a 60
        E 0 90 54 60
        E 0 90 56 60
        E 0 90 60 60
        E 0 90 62 60
        E 60 80 1f 00
        E 0 80 3e 00
        E 0 80 4a 00
        E 0 80 56 00
        E 0 80 62 00
        E 1 80 18 00
        E 0 80 48 00
        E 0 80 54 00
        E 0 80 60 00
        E 59 90 78 60
        E 0 90 79 60
        E 0 90 7a 60
        E 0 90 7b 60
        E 0 90 7c 60
        E 120 90 1f 60
        E 0 90 56 60
        E 0 90 62 60
        E 61 80 1f 00
        E 0 80 56 00
        E 0 80 62 00
        E 179 90 18 60
        E 0 90 1a 60
        E 0 90 1f 60
        E 0 90 3d 60
        E 0 90 3e 60
        E 0 90 49 60
        E 0 90 4a 60
        E 0 90 54 60
        E 0 90 55 60
        E 0 90 56 60
        E 0 90 60 60
        E 0 90 61 60
        E 0 90 62 60
        E 61 80 18 00
        E 0 80 1a 00
        E 0 80 1f 00
        E 0 80 3d 00
        E 0 80 3e 00
        E 0 80 49 00
        E 0 80 4a 00
        E 0 80 54 00
        E 0 80 55 00
        E 0 80 56 00
        E 0 80 60 00
        E 0 80 61 00
        E 0 80 62 00
        E 178 90 1f 60
        E 0 90 56 60
        E 0 90 62 60
        E 61 80 1f 00
        E 0 80 56 00
        E 0 80 62 00
        E 180 90 18 60
        E 0 90 1f 60
        E 0 90 3e 60
        E 0 90 48 60
        E 0 90 4a 60
        E 0 90 54 60
        E 0 90 56 60
        E 0 90 60 60
        E 0 90 62 60
        E 60 80 18 00
        E 0 80 48 00
        E 0 80 54 00
        E 0 80 60 00
        E 1 80 1f 00
        E 0 80 3e 00
        E 0 80 4a 00
        E 0 80 56 00
        E 0 80 62 00
        E 178 90 1f 60
        E 0 90 56 60
        E 0 90 62 60
        E 61 80 1f 00
        E 0 80 56 00
        E 0 80 62 00
        E 180 80 78 00
        E 0 80 79 00
        E 0 80 7a 00
        E 0 80 7b 00
        E 0 80 7c 00
        E 0 90 18 60
        E 0 90 1a 60
        E 0 90 1f 60
        E 0 90 3d 60
        E 0 90 3e 60
        E 0 90 49 60
        E 0 90 4a 60
        E 0 90 54 60
        E 0 90 55 60
        E 0 90 56 60
        E 0 90 60 60
        E 0 90 61 60
        E 0 90 62 60
        E 60 80 18 00
        E 0 80 54 00
        E 0 80 60 00
        E 1 80 1a 00
        E 0 80 1f 00
        E 0 80 3d 00
        E 0 80 3e 00
        E 0 80 49 00
        E 0 80 4a 00
        E 0 80 55 00
        E 0 80 56 00
        E 0 80 61 00
        E 0 80 62 00
        E 178 90 1f 60
        E 0 90 56 60
        E 0 90 62 60
        E 61 80 1f 00
        E 0 80 56 00
        E 0 80 62 00
        E 180 90 18 60
        E 0 90 1f 60
        E 0 90 3e 60
        E 0 90 48 60
        E 0 90 4a 60
        E 0 90 54 60
        E 0 90 56 60
        E 0 90 60 60
        E 0 90 62 60
        E 60 80 1f 00
        E 0 80 3e 00
        E 0 80 4a 00
        E 0 80 56 00
        E 0 80 62 00
        E 1 80 18 00
        E 0 80 48 00
        E 0 80 54 00
        E 0 80 60 00
        E 179 90 1f 60
        E 0 90 56 60
        E 0 90 62 60
        E 61 80 1f 00
        E 0 80 56 00
        E 0 80 62 00
        E 179 90 18 60
        E 0 90 1a 60
        E 0 90 1f 60
        E 0 90 3d 60
        E 0 90 3e 60
        E 0 90 49 60
        E 0 90 4a 60
        E 0 90 54 60
        E 0 90 55 60
        E 0 90 56 60
        E 0 90 60 60
        E 0 90 61 60
        E 0 90 62 60
        E 61 80 18 00
        E 0 80 1a 00
        E 0 80 1f 00
        E 0 80 3d 00
        E 0 80 3e 00
        E 0 80 49 00
        E 0 80 4a 00
        E 0 80 54 00
        E 0 80 55 00
        E 0 80 56 00
        E 0 80 60 00
        E 0 80 61 00
        E 0 80 62 00
        E 178 90 1f 60
        E 0 90 56 60
        E 0 90 62 60
        E 61 80 1f 00
        E 0 80 56 00
        E 0 80 62 00
        E 180 90 18 60
        E 0 90 1f 60
        E 0 90 3e 60
        E 0 90 48 60
        E 0 90 4a 60
        E 0 90 54 60
        E 0 90 56 60
        E 0 90 60 60
        E 0 90 62 60
        E 60 80 18 00
        E 0 80 48 00
        E 0 80 54 00
        E 0 80 60 00
        E 1 80 1f 00
        E 0 80 3e 00
        E 0 80 4a 00
        E 0 80 56 00
        E 0 80 62 00
        E 178 90 1f 60
        E 0 90 56 60
        E 0 90 62 60
        E 61 80 1f 00
        E 0 80 56 00
        E 0 80 62 00
        E 180 90 18 60
        E 0 90 1a 60
        E 0 90 1f 60
        E 0 90 3d 60
        E 0 90 3e 60
        E 0 90 49 60
        E 0 90 4a 60
        E 0 90 54 60
        E 0 90 55 60
        E 0 90 56 60
        E 0 90 60 60
        E 0 90 61 60
        E 0 90 62 60
        E 60 80 18 00
        E 0 80 54 00
        E 0 80 60 00
        E 1 80 1a 00
        E 0 80 1f 00
        E 0 80 3d 00
        E 0 80 3e 00
        E 0 80 49 00
        E 0 80 4a 00
        E 0 80 55 00
        E 0 80 56 00
        E 0 80 61 00
        E 0 80 62 00
        E 178 90 1f 60
        E 0 90 56 60
        E 0 90 62 60
        E 61 80 1f 00
        E 0 80 56 00
        E 0 80 62 00
        E 180 90 18 60
        E 0 90 1f 60
        E 0 90 3e 60
        E 0 90 48 60
        E 0 90 4a 60
        E 0 90 54 60
        E 0 90 56 60
        E 0 90 60 60
        E 0 90 62 60
        E 60 80 1f 00
        E 0 80 3e 00
        E 0 80 4a 00
        E 0 80 56 00
        E 0 80 62 00
        E 1 80 18 00
        E 0 80 48 00
        E 0 80 54 00
        E 0 80 60 00
        E 179 90 1f 60
        E 0 90 56 60
        E 0 90 62 60
        E 61 80 1f 00
        E 0 80 56 00
        E 0 80 62 00
        E 179 90 18 60
        E 0 90 1a 60
        E 0 90 1f 60
        E 0 90 3d 60
        E 0 90 3e 60
        E 0 90 49 60
        E 0 90 4a 60
        E 0 90 54 60
        E 0 90 55 60
        E 0 90 56 60
        E 0 90 60 60
        E 0 90 61 60
        E 0 90 62 60
        E 61 80 18 00
        E 0 80 1a 00
        E 0 80 1f 00
        E 0 80 3d 00
        E 0 80 3e 00
        E 0 80 49 00
        E 0 80 4a 00
        E 0 80 54 00
        E 0 80 55 00
        E 0 80 56 00
        E 0 80 60 00
        E 0 80 61 00
        E 0 80 62 00
        E 178 90 1f 60
        E 0 90 56 60
        E 0 90 62 60
        E 61 80 1f 00
        E 0 80 56 00
        E 0 80 62 00
        E 180 90 18 60
        E 0 90 1f 60
        E 0 90 3e 60
        E 0 90 48 60
        E 0 90 4a 60
        E 0 90 54 60
        E 0 90 56 60
        E 0 90 60 60
        E 0 90 62 60
        E 60 80 18 00
        E 0 80 48 00
        E 0 80 54 00
        E 0 80 60 00
        E 1 80 1f 00
        E 0 80 3e 00
        E 0 80 4a 00
        E 0 80 56 00
        E 0 80 62 00
        E 178 90 1f 60
        E 0 90 56 60
        E 0 90 62 60
        E 61 80 1f 00
        E 0 80 56 00
        E 0 80 62 00
        E 180 90 18 60
        E 0 90 1a 60
        E 0 90 1f 60
        E 0 90 3d 60
        E 0 90 3e 60
        E 0 90 49 60
        E 0 90 4a 60
        E 0 90 54 60
        E 0 90 55 60
        E 0 90 56 60
        E 0 90 60 60
        E 0 90 61 60
        E 0 90 62 60
        E 60 80 18 00
        E 0 80 54 00
        E 0 80 60 00
        E 1 80 1a 00
        E 0 80 1f 00
        E 0 80 3d 00
        E 0 80 3e 00
        E 0 80 49 00
        E 0 80 4a 00
        E 0 80 55 00
        E 0 80 56 00
        E 0 80 61 00
        E 0 80 62 00
        E 178 90 1f 60
        E 0 90 56 60
        E 0 90 62 60
        E 61 80 1f 00
        E 0 80 56 00
        E 0 80 62 00
        E 180 90 18 60
        E 0 90 1f 60
        E 0 90 3e 60
        E 0 90 48 60
        E 0 90 4a 60
        E 0 90 54 60
        E 0 90 56 60
        E 0 90 60 60
        E 0 90 62 60
        E 60 80 1f 00
        E 0 80 3e 00
        E 0 80 4a 00
        E 0 80 56 00
        E 0 80 62 00
        E 1 80 18 00
        E 0 80 48 00
        E 0 80 54 00
        E 0 80 60 00
        E 179 90 1f 60
        E 0 90 56 60
        E 0 90 62 60
        E 61 80 1f 00
        E 0 80 56 00
        E 0 80 62 00
        E 179 90 18 60
        E 0 90 1a 60
        E 0 90 1f 60
        E 0 90 3d 60
        E 0 90 3e 60
        E 0 90 49 60
        E 0 90 4a 60
        E 0 90 54 60
        E 0 90 55 60
        E 0 90 56 60
        E 0 90 60 60
        E 0 90 61 60
        E 0 90 62 60
        E 61 80 18 00
        E 0 80 1a 00
        E 0 80 1f 00
        E 0 80 3d 00
        E 0 80 3e 00
        E 0 80 49 00
        E 0 80 4a 00
        E 0 80 54 00
        E 0 80 55 00
        E 0 80 56 00
        E 0 80 60 00
        E 0 80 61 00
        E 0 80 62 00
        E 178 90 1f 60
        E 0 90 56 60
        E 0 90 62 60
        E 61 80 1f 00
        E 0 80 56 00
        E 0 80 62 00
        E 180 90 18 60
        E 0 90 1f 60
        E 0 90 3e 60
        E 0 90 48 60
        E 0 90 4a 60
        E 0 90 54 60
        E 0 90 56 60
        E 0 90 60 60
        E 0 90 62 60
        E 60 80 18 00
        E 0 80 48 00
        E 0 80 54 00
        E 0 80 60 00
        E 1 80 1f 00
        E 0 80 3e 00
        E 0 80 4a 00
        E 0 80 56 00
        E 0 80 62 00
        E 178 90 1f 60
        E 0 90 56 60
        E 0 90 62 60
        E 61 80 1f 00
        E 0 80 56 00
        E 0 80 62 00
        E 180 90 18 60
        E 0 90 1a 60
        E 0 90 1f 60
        E 0 90 3d 60
        E 0 90 3e 60
        E 0 90 49 60
        E 0 90 4a 60
        E 0 90 54 60
        E 0 90 55 60
        E 0 90 56 60
        E 0 90 60 60
        E 0 90 61 60
        E 0 90 62 60
        E 60 80 18 00
        E 0 80 54 00
        E 0 80 60 00
        E 1 80 1a 00
        E 0 80 1f 00
        E 0 80 3d 00
        E 0 80 3e 00
        E 0 80 49 00
        E 0 80 4a 00
        E 0 80 55 00
        E 0 80 56 00
        E 0 80 61 00
        E 0 80 62 00
        E 178 90 1f 60
        E 0 90 56 60
        E 0 90 62 60
        E 61 80 1f 00
        E 0 80 56 00
        E 0 80 62 00
        E 180 90 18 60
        E 0 90 1f 60
        E 0 90 3e 60
        E 0 90 48 60
        E 0 90 4a 60
        E 0 90 54 60
        E 0 90 56 60
        E 0 90 60 60
        E 0 90 62 60
        E 60 80 1f 00
        E 0 80 3e 00
        E 0 80 4a 00
        E 0 80 56 00
        E 0 80 62 00
        E 1 80 18 00
        E 0 80 48 00
        E 0 80 54 00
        E 0 80 60 00
        E 179 90 1f 60
        E 0 90 56 60
        E 0 90 62 60
        E 61 80 1f 00
        E 0 80 56 00
        E 0 80 62 00
        E 179 90 18 60
        E 0 90 1a 60
        E 0 90 1f 60
        E 0 90 3d 60
        E 0 90 3e 60
        E 0 90 49 60
        E 0 90 4a 60
        E 0 90 54 60
        E 0 90 55 60
        E 0 90 56 60
        E 0 90 60 60
        E 0 90 61 60
        E 0 90 62 60
        E 61 80 18 00
        E 0 80 1a 00
        E 0 80 1f 00
        E 0 80 3d 00
        E 0 80 3e 00
        E 0 80 49 00
        E 0 80 4a 00
        E 0 80 54 00
        E 0 80 55 00
        E 0 80 56 00
        E 0 80 60 00
        E 0 80 61 00
        E 0 80 62 00
        E 178 90 1f 60
        E 0 90 56 60
        E 0 90 62 60
        E 61 80 1f 00
        E 0 80 56 00
        E 0 80 62 00
        E 180 90 18 60
        E 0 90 1f 60
        E 0 90 3e 60
        E 0 90 48 60
        E 0 90 4a 60
        E 0 90 54 60
        E 0 90 56 60
        E 0 90 60 60
        E 0 90 62 60
        E 60 80 18 00
        E 0 80 48 00
        E 0 80 54 00
        E 0 80 60 00
        E 1 80 1f 00
        E 0 80 3e 00
        E 0 80 4a 00
        E 0 80 56 00
        E 0 80 62 00
        E 178 90 1f 60
        E 0 90 56 60
        E 0 90 62 60
        E 61 80 1f 00
        E 0 80 56 00
        E 0 80 62 00
        E 180 90 18 60
        E 0 90 1a 60
        E 0 90 1f 60
        E 0 90 3d 60
        E 0 90 3e 60
        E 0 90 49 60
        E 0 90 4a 60
        E 0 90 54 60
        E 0 90 55 60
        E 0 90 56 60
        E 0 90 60 60
        E 0 90 61 60
        E 0 90 62 60
        E 60 80 18 00
        E 0 80 54 00
        E 0 80 60 00
        E 1 80 1a 00
        E 0 80 1f 00
        E 0 80 3d 00
        E 0 80 3e 00
        E 0 80 49 00
        E 0 80 4a 00
        E 0 80 55 00
        E 0 80 56 00
        E 0 80 61 00
        E 0 80 62 00
        E 178 90 1f 60
        E 0 90 56 60
        E 0 90 62 60
        E 61 80 1f 00
        E 0 80 56 00
        E 0 80 62 00
        E 180 90 18 60
        E 0 90 1f 60
        E 0 90 3e 60
        E 0 90 48 60
        E 0 90 4a 60
        E 0 90 54 60
        E 0 90 56 60
        E 0 90 60 60
        E 0 90 62 60
        E 60 80 1f 00
        E 0 80 3e 00
        E 0 80 4a 00
        E 0 80 56 00
        E 0 80 62 00
        E 1 80 18 00
        E 0 80 48 00
        E 0 80 54 00
        E 0 80 60 00
        E 179 90 1f 60
        E 0 90 56 60
        E 0 90 62 60
        E 61 80 1f 00
        E 0 80 56 00
        E 0 80 62 00
        E 179 90 18 60
        E 0 90 1a 60
        E 0 90 1f 60
        E 0 90 3d 60
        E 0 90 3e 60
        E 0 90 49 60
        E 0 90 4a 60
        E 0 90 54 60
        E 0 90 55 60
        E 0 90 56 60
        E 0 90 60 60
        E 0 90 61 60
        E 0 90 62 60
        E 61 80 18 00
        E 0 80 1a 00
        E 0 80 1f 00
        E 0 80 3d 00
        E 0 80 3e 00
        E 0 80 49 00
        E 0 80 4a 00
        E 0 80 54 00
        E 0 80 55 00
        E 0 80 56 00
        E 0 80 60 00
        E 0 80 61 00
        E 0 80 62 00
        E 178 90 1f 60
        E 0 90 56 60
        E 0 90 62 60
        E 61 80 1f 00
        E 0 80 56 00
        E 0 80 62 00
        E 180 90 18 60
        E 0 90 1f 60
        E 0 90 3e 60
        E 0 90 48 60
        E 0 90 4a 60
        E 0 90 54 60
        E 0 90 56 60
        E 0 90 60 60
        E 0 90 62 60
        E 60 80 18 00
        E 0 80 48 00
        E 0 80 54 00
        E 0 80 60 00
        E 1 80 1f 00
        E 0 80 3e 00
        E 0 80 4a 00
        E 0 80 56 00
        E 0 80 62 00
        E 178 90 1f 60
        E 0 90 56 60
        E 0 90 62 60
        E 61 80 1f 00
        E 0 80 56 00
        E 0 80 62 00
        E 180 90 18 60
        E 0 90 1a 60
        E 0 90 1f 60
        E 0 90 3d 60
        E 0 90 3e 60
        E 0 90 49 60
        E 0 90 4a 60
        E 0 90 54 60
        E 0 90 55 60
        E 0 90 56 60
        E 0 90 60 60
        E 0 90 61 60
        E 0 90 62 60
        E 60 80 18 00
        E 0 80 54 00
        E 0 80 60 00
        E 1 80 1a 00
        E 0 80 1f 00
        E 0 80 3d 00
        E 0 80 3e 00
        E 0 80 49 00
        E 0 80 4a 00
        E 0 80 55 00
        E 0 80 56 00
        E 0 80 61 00
        E 0 80 62 00
        E 178 90 1f 60
        E 0 90 56 60
        E 0 90 62 60
        E 61 80 1f 00
        E 0 80 56 00
        E 0 80 62 00
        E 180 90 18 60
        E 0 90 1f 60
        E 0 90 3e 60
        E 0 90 48 60
        E 0 90 4a 60
        E 0 90 54 60
        E 0 90 56 60
        E 0 90 60 60
        E 0 90 62 60
        E 60 80 1f 00
        E 0 80 3e 00
        E 0 80 4a 00
        E 0 80 56 00
        E 0 80 62 00
        E 1 80 18 00
        E 0 80 48 00
        E 0 80 54 00
        E 0 80 60 00
        E 179 90 1f 60
        E 0 90 56 60
        E 0 90 62 60
        E 61 80 1f 00
        E 0 80 56 00
        E 0 80 62 00
        E 179 90 18 60
        E 0 90 1a 60
        E 0 90 1f 60
        E 0 90 3d 60
        E 0 90 3e 60
        E 0 90 49 60
        E 0 90 4a 60
        E 0 90 54 60
        E 0 90 55 60
        E 0 90 56 60
        E 0 90 60 60
        E 0 90 61 60
        E 0 90 62 60
        E 61 80 18 00
        E 0 80 1a 00
        E 0 80 1f 00
        E 0 80 3d 00
        E 0 80 3e 00
        E 0 80 49 00
        E 0 80 4a 00
        E 0 80 54 00
        E 0 80 55 00
        E 0 80 56 00
        E 0 80 60 00
        E 0 80 61 00
        E 0 80 62 00
        E 178 90 1f 60
        E 0 90 56 60
        E 0 90 62 60
        E 61 80 1f 00
        E 0 80 56 00
        E 0 80 62 00
        E 180 90 18 60
        E 0 90 1f 60
        E 0 90 3e 60
        E 0 90 48 60
        E 0 90 4a 60
        E 0 90 54 60
        E 0 90 56 60
        E 0 90 60 60
        E 0 90 62 60
        E 60 80 18 00
        E 0 80 48 00
        E 0 80 54 00
        E 0 80 60 00
        E 1 80 1f 00
        E 0 80 3e 00
        E 0 80 4a 00
        E 0 80 56 00
        E 0 80 62 00
        E 179 90 1f 60
        E 0 90 56 60
        E 0 90 62 60
        E 61 80 1f 00
        E 0 80 56 00
        E 0 80 62 00
        E 179 90 18 60
        E 0 90 1a 60
        E 0 90 1f 60
        E 0 90 3d 60
        E 0 90 3e 60
        E 0 90 49 60
        E 0 90 4a 60
        E 0 90 54 60
        E 0 90 55 60
        E 0 90 56 60
        E 0 90 60 60
        E 0 90 61 60
        E 0 90 62 60
        E 60 80 18 00
        E 0 80 54 00
        E 0 80 60 00
        E 1 80 1a 00
        E 0 80 1f 00
        E 0 80 3d 00
        E 0 80 3e 00
        E 0 80 49 00
        E 0 80 4a 00
        E 0 80 55 00
        E 0 80 56 00
        E 0 80 61 00
        E 0 80 62 00
        E 178 90 1f 60
        E 0 90 56 60
        E 0 90 62 60
        E 61 80 1f 00
        E 0 80 56 00
        E 0 80 62 00
        E 180 90 18 60
        E 0 90 1a 60
        E 0 90 1f 60
        E 0 90 3d 60
        E 0 90 3e 60
        E 0 90 49 60
        E 0 90 4a 60
        E 0 90 54 60
        E 0 90 55 60
        E 0 90 56 60
        E 0 90 60 60
        E 0 90 61 60
        E 0 90 62 60
        E 60 80 18 00
        E 0 80 1a 00
        E 0 80 1f 00
        E 0 80 3d 00
        E 0 80 3e 00
        E 0 80 49 00
        E 0 80 4a 00
        E 0 80 54 00
        E 0 80 55 00
        E 0 80 56 00
        E 0 80 60 00
        E 0 80 61 00
        E 0 80 62 00
        E 660 90 74 60
        E 240 90 18 60
        E 0 90 1a 60
        E 0 90 3d 60
        E 0 90 49 60
        E 0 90 54 60
        E 0 90 55 60
        E 0 90 60 60
        E 0 90 61 60
        E 60 80 18 00
        E 0 80 1a 00
        E 0 80 3d 00
        E 0 80 49 00
        E 0 80 54 00
        E 0 80 55 00
        E 0 80 60 00
        E 0 80 61 00
        E 180 90 18 60
        E 0 90 54 60
        E 0 90 60 60
        E 60 80 18 00
        E 0 80 54 00
        E 0 80 60 00
        E 180 90 18 60
        E 0 90 1a 60
        E 0 90 3d 60
        E 0 90 49 60
        E 0 90 54 60
        E 0 90 55 60
        E 0 90 60 60
        E 0 90 61 60
        E 60 80 18 00
        E 0 80 1a 00
        E 0 80 3d 00
        E 0 80 49 00
        E 0 80 54 00
        E 0 80 55 00
        E 0 80 60 00
        E 0 80 61 00
        E 420 90 18 60
        E 0 90 22 60
        E 0 90 26 60
        E 0 90 3e 60
        E 0 90 40 60
        E 0 90 48 60
        E 0 90 4a 60
        E 0 90 4c 60
        E 0 90 54 60
        E 0 90 56 60
        E 0 90 58 60
        E 0 90 60 60
        E 0 90 62 60
        E 0 90 64 60
        E 60 80 18 00
        E 0 80 22 00
        E 0 80 26 00
        E 0 80 3e 00
        E 0 80 40 00
        E 0 80 48 00
        E 0 80 4a 00
        E 0 80 4c 00
        E 0 80 54 00
        E 0 80 56 00
        E 0 80 58 00
        E 0 80 60 00
        E 0 80 62 00
        E 0 80 64 00
        E 60 80 74 00
        E 120 90 1f 60
        E 0 90 56 60
        E 0 90 62 60
        E 61 80 1f 00
        E 0 80 56 00
        E 0 80 62 00
        E 179 90 18 60
        E 0 90 1a 60
        E 0 90 1f 60
        E 0 90 3d 60
        E 0 90 3e 60
        E 0 90 49 60
        E 0 90 4a 60
        E 0 90 54 60
        E 0 90 55 60
        E 0 90 56 60
        E 0 90 60 60
        E 0 90 61 60
        E 0 90 62 60
        E 61 80 18 00
        E 0 80 1a 00
        E 0 80 1f 00
        E 0 80 3d 00
        E 0 80 3e 00
        E 0 80 49 00
        E 0 80 4a 00
        E 0 80 54 00
        E 0 80 55 00
        E 0 80 56 00
        E 0 80 60 00
        E 0 80 61 00
        E 0 80 62 00
        E 179 90 1f 60
        E 0 90 56 60
        E 0 90 62 60
        E 61 80 1f 00
        E 0 80 56 00
        E 0 80 62 00
        E 179 90 18 60
        E 0 90 1f 60
        E 0 90 3e 60
        E 0 90 48 60
        E 0 90 4a 60
        E 0 90 54 60
        E 0 90 56 60
        E 0 90 60 60
        E 0 90 62 60
        E 60 80 18 00
        E 0 80 48 00
        E 0 80 54 00
        E 0 80 60 00
        E 1 80 1f 00
        E 0 80 3e 00
        E 0 80 4a 00
        E 0 80 56 00
        E 0 80 62 00
        E 59 90 78 60
        E 0 90 79 60
        E 0 90 7a 60
        E 0 90 7b 60
        E 0 90 7c 60
        E 120 90 1f 60
        E 0 90 56 60
        E 0 90 62 60
        E 61 80 1f 00
        E 0 80 56 00
        E 0 80 62 00
        E 179 90 18 60
        E 0 90 1a 60
        E 0 90 1f 60
        E 0 90 3d 60
        E 0 90 3e 60
        E 0 90 49 60
        E 0 90 4a 60
        E 0 90 54 60
        E 0 90 55 60
        E 0 90 56 60
        E 0 90 60 60
        E 0 90 61 60
        E 0 90 62 60
        E 60 80 18 00
        E 0 80 54 00
        E 0 80 60 00
        E 1 80 1a 00
        E 0 80 1f 00
        E 0 80 3d 00
        E 0 80 3e 00
        E 0 80 49 00
        E 0 80 4a 00
        E 0 80 55 00
        E 0 80 56 00
        E 0 80 61 00
        E 0 80 62 00
        E 179 90 1f 60
        E 0 90 56 60
        E 0 90 62 60
        E 61 80 1f 00
        E 0 80 56 00
        E 0 80 62 00
        E 179 90 18 60
        E 0 90 1f 60
        E 0 90 3e 60
        E 0 90 48 60
        E 0 90 4a 60
        E 0 90 54 60
        E 0 90 56 60
        E 0 90 60 60
        E 0 90 62 60
        E 60 80 1f 00
        E 0 80 3e 00
        E 0 80 4a 00
        E 0 80 56 00
        E 0 80 62 00
        E 1 80 18 00
        E 0 80 48 00
        E 0 80 54 00
        E 0 80 60 00
        E 179 90 1f 60
        E 0 90 56 60
        E 0 90 62 60
        E 61 80 1f 00
        E 0 80 56 00
        E 0 80 62 00
        E 179 80 78 00
        E 0 80 79 00
        E 0 80 7a 00
        E 0 80 7b 00
        E 0 80 7c 00
        E 0 90 18 60
        E 0 90 1a 60
        E 0 90 1f 60
        E 0 90 3d 60
        E 0 90 3e 60
        E 0 90 49 60
        E 0 90 4a 60
        E 0 90 54 60
        E 0 90 55 60
        E 0 90 56 60
        E 0 90 60 60
        E 0 90 61 60
        E 0 90 62 60
        E 61 80 18 00
        E 0 80 1a 00
        E 0 80 1f 00
        E 0 80 3d 00
        E 0 80 3e 00
        E 0 80 49 00
        E 0 80 4a 00
        E 0 80 54 00
        E 0 80 55 00
        E 0 80 56 00
        E 0 80 60 00
        E 0 80 61 00
        E 0 80 62 00
        E 178 90 1f 60
        E 0 90 56 60
        E 0 90 62 60
        E 61 80 1f 00
        E 0 80 56 00
        E 0 80 62 00
        E 180 90 18 60
        E 0 90 1f 60
        E 0 90 3e 60
        E 0 90 48 60
        E 0 90 4a 60
        E 0 90 54 60
        E 0 90 56 60
        E 0 90 60 60
        E 0 90 62 60
        E 60 80 18 00
        E 0 80 48 00
        E 0 80 54 00
        E 0 80 60 00
        E 1 80 1f 00
        E 0 80 3e 00
        E 0 80 4a 00
        E 0 80 56 00
        E 0 80 62 00
        E 179 90 1f 60
        E 0 90 56 60
        E 0 90 62 60
        E 61 80 1f 00
        E 0 80 56 00
        E 0 80 62 00
        E 179 90 18 60
        E 0 90 1a 60
        E 0 90 1f 60
        E 0 90 3d 60
        E 0 90 3e 60
        E 0 90 49 60
        E 0 90 4a 60
        E 0 90 54 60
        E 0 90 55 60
        E 0 90 56 60
        E 0 90 60 60
        E 0 90 61 60
        E 0 90 62 60
        E 60 80 18 00
        E 0 80 54 00
        E 0 80 60 00
        E 1 80 1a 00
        E 0 80 1f 00
        E 0 80 3d 00
        E 0 80 3e 00
        E 0 80 49 00
        E 0 80 4a 00
        E 0 80 55 00
        E 0 80 56 00
        E 0 80 61 00
        E 0 80 62 00
        E 179 90 1f 60
        E 0 90 56 60
        E 0 90 62 60
        E 61 80 1f 00
        E 0 80 56 00
        E 0 80 62 00
        E 179 90 18 60
        E 0 90 1f 60
        E 0 90 3e 60
        E 0 90 48 60
        E 0 90 4a 60
        E 0 90 54 60
        E 0 90 56 60
        E 0 90 60 60
        E 0 90 62 60
        E 60 80 1f 00
        E 0 80 3e 00
        E 0 80 4a 00
        E 0 80 56 00
        E 0 80 62 00
        E 1 80 18 00
        E 0 80 48 00
        E 0 80 54 00
        E 0 80 60 00
        E 179 90 1f 60
        E 0 90 56 60
        E 0 90 62 60
        E 61 80 1f 00
        E 0 80 56 00
        E 0 80 62 00
        E 179 90 18 60
        E 0 90 1a 60
        E 0 90 1f 60
        E 0 90 3d 60
        E 0 90 3e 60
        E 0 90 49 60
        E 0 90 4a 60
        E 0 90 54 60
        E 0 90 55 60
        E 0 90 56 60
        E 0 90 60 60
        E 0 90 61 60
        E 0 90 62 60
        E 61 80 18 00
        E 0 80 1a 00
        E 0 80 1f 00
        E 0 80 3d 00
        E 0 80 3e 00
        E 0 80 49 00
        E 0 80 4a 00
        E 0 80 54 00
        E 0 80 55 00
        E 0 80 56 00
        E 0 80 60 00
        E 0 80 61 00
        E 0 80 62 00
        E 179 90 1f 60
        E 0 90 56 60
        E 0 90 62 60
        E 61 80 1f 00
        E 0 80 56 00
        E 0 80 62 00
        E 179 90 18 60
        E 0 90 1f 60
        E 0 90 3e 60
        E 0 90 48 60
        E 0 90 4a 60
        E 0 90 54 60
        E 0 90 56 60
        E 0 90 60 60
        E 0 90 62 60
        E 60 80 18 00
        E 0 80 48 00
        E 0 80 54 00
        E 0 80 60 00
        E 1 80 1f 00
        E 0 80 3e 00
        E 0 80 4a 00
        E 0 80 56 00
        E 0 80 62 00
        E 179 90 1f 60
        E 0 90 56 60
        E 0 90 62 60
        E 61 80 1f 00
        E 0 80 56 00
        E 0 80 62 00
        E 179 90 18 60
        E 0 90 1a 60
        E 0 90 1f 60
        E 0 90 3d 60
        E 0 90 3e 60
        E 0 90 49 60
        E 0 90 4a 60
        E 0 90 54 60
        E 0 90 55 60
        E 0 90 56 60
        E 0 90 60 60
        E 0 90 61 60
        E 0 90 62 60
        E 60 80 18 00
        E 0 80 54 00
        E 0 80 60 00
        E 1 80 1a 00
        E 0 80 1f 00
        E 0 80 3d 00
        E 0 80 3e 00
        E 0 80 49 00
        E 0 80 4a 00
        E 0 80 55 00
        E 0 80 56 00
        E 0 80 61 00
        E 0 80 62 00
        E 179 90 1f 60
        E 0 90 56 60
        E 0 90 62 60
        E 61 80 1f 00
        E 0 80 56 00
        E 0 80 62 00
        E 179 90 18 60
        E 0 90 1f 60
        E 0 90 3e 60
        E 0 90 48 60
        E 0 90 4a 60
        E 0 90 54 60
        E 0 90 56 60
        E 0 90 60 60
        E 0 90 62 60
        E 60 80 1f 00
        E 0 80 3e 00
        E 0 80 4a 00
        E 0 80 56 00
        E 0 80 62 00
        E 1 80 18 00
        E 0 80 48 00
        E 0 80 54 00
        E 0 80 60 00
        E 179 90 1f 60
        E 0 90 56 60
        E 0 90 62 60
        E 61 80 1f 00
        E 0 80 56 00
        E 0 80 62 00
        E 179 90 18 60
        E 0 90 1a 60
        E 0 90 1f 60
        E 0 90 3d 60
        E 0 90 3e 60
        E 0 90 49 60
        E 0 90 4a 60
        E 0 90 54 60
        E 0 90 55 60
        E 0 90 56 60
        E 0 90 60 60
        E 0 90 61 60
        E 0 90 62 60
        E 61 80 18 00
        E 0 80 1a 00
        E 0 80 1f 00
        E 0 80 3d 00
        E 0 80 3e 00
        E 0 80 49 00
        E 0 80 4a 00
        E 0 80 54 00
        E 0 80 55 00
        E 0 80 56 00
        E 0 80 60 00
        E 0 80 61 00
        E 0 80 62 00
        E 179 90 1f 60
        E 0 90 56 60
        E 0 90 62 60
        E 61 80 1f 00
        E 0 80 56 00
        E 0 80 62 00
        E 179 90 18 60
        E 0 90 1f 60
        E 0 90 3e 60
        E 0 90 48 60
        E 0 90 4a 60
        E 0 90 54 60
        E 0 90 56 60
        E 0 90 60 60
        E 0 90 62 60
        E 60 80 18 00
        E 0 80 48 00
        E 0 80 54 00
        E 0 80 60 00
        E 1 80 1f 00
        E 0 80 3e 00
        E 0 80 4a 00
        E 0 80 56 00
        E 0 80 62 00
        E 179 90 1f 60
        E 0 90 56 60
        E 0 90 62 60
        E 61 80 1f 00
        E 0 80 56 00
        E 0 80 62 00
        E 179 90 18 60
        E 0 90 1a 60
        E 0 90 1f 60
        E 0 90 3d 60
        E 0 90 3e 60
        E 0 90 49 60
        E 0 90 4a 60
        E 0 90 54 60
        E 0 90 55 60
        E 0 90 56 60
        E 0 90 60 60
        E 0 90 61 60
        E 0 90 62 60
        E 60 80 18 00
        E 0 80 54 00
        E 0 80 60 00
        E 1 80 1a 00
        E 0 80 1f 00
        E 0 80 3d 00
        E 0 80 3e 00
        E 0 80 49 00
        E 0 80 4a 00
        E 0 80 55 00
        E 0 80 56 00
        E 0 80 61 00
        E 0 80 62 00
        E 179 90 1f 60
        E 0 90 56 60
        E 0 90 62 60
        E 61 80 1f 00
        E 0 80 56 00
        E 0 80 62 00
        E 59 90 74 60
        E 120 90 18 60
        E 0 90 1f 60
        E 0 90 3e 60
        E 0 90 48 60
        E 0 90 4a 60
        E 0 90 54 60
        E 0 90 56 60
        E 0 90 60 60
        E 0 90 62 60
        E 60 80 1f 00
        E 0 80 3e 00
        E 0 80 4a 00
        E 0 80 56 00
        E 0 80 62 00
        E 1 80 18 00
        E 0 80 48 00
        E 0 80 54 00
        E 0 80 60 00
        E 179 90 1f 60
        E 0 90 56 60
        E 0 90 62 60
        E 61 80 1f 00
        E 0 80 56 00
        E 0 80 62 00
        E 179 90 18 60
        E 0 90 1a 60
        E 0 90 1f 60
        E 0 90 3d 60
        E 0 90 3e 60
        E 0 90 49 60
        E 0 90 4a 60
        E 0 90 54 60
        E 0 90 55 60
        E 0 90 56 60
        E 0 90 60 60
        E 0 90 61 60
        E 0 90 62 60
        E 61 80 18 00
        E 0 80 1a 00
        E 0 80 1f 00
        E 0 80 3d 00
        E 0 80 3e 00
        E 0 80 49 00
        E 0 80 4a 00
        E 0 80 54 00
        E 0 80 55 00
        E 0 80 56 00
        E 0 80 60 00
        E 0 80 61 00
        E 0 80 62 00
        E 179 90 1f 60
        E 0 90 56 60
        E 0 90 62 60
        E 61 80 1f 00
        E 0 80 56 00
        E 0 80 62 00
        E 179 90 18 60
        E 0 90 1f 60
        E 0 90 3e 60
        E 0 90 48 60
        E 0 90 4a 60
        E 0 90 54 60
        E 0 90 56 60
        E 0 90 60 60
        E 0 90 62 60
        E 60 80 18 00
        E 0 80 48 00
        E 0 80 54 00
        E 0 80 60 00
        E 1 80 1f 00
        E 0 80 3e 00
        E 0 80 4a 00
        E 0 80 56 00
        E 0 80 62 00
        E 179 90 1f 60
        E 0 90 56 60
        E 0 90 62 60
        E 61 80 1f 00
        E 0 80 56 00
        E 0 80 62 00
        E 179 90 18 60
        E 0 90 1a 60
        E 0 90 1f 60
        E 0 90 3d 60
        E 0 90 3e 60
        E 0 90 49 60
        E 0 90 4a 60
        E 0 90 54 60
        E 0 90 55 60
        E 0 90 56 60
        E 0 90 60 60
        E 0 90 61 60
        E 0 90 62 60
        E 60 80 18 00
        E 0 80 54 00
        E 0 80 60 00
        E 1 80 1a 00
        E 0 80 1f 00
        E 0 80 3d 00
        E 0 80 3e 00
        E 0 80 49 00
        E 0 80 4a 00
        E 0 80 55 00
        E 0 80 56 00
        E 0 80 61 00
        E 0 80 62 00
        E 179 90 1f 60
        E 0 90 56 60
        E 0 90 62 60
        E 61 80 1f 00
        E 0 80 56 00
        E 0 80 62 00
        E 179 90 18 60
        E 0 90 1f 60
        E 0 90 3e 60
        E 0 90 48 60
        E 0 90 4a 60
        E 0 90 54 60
        E 0 90 56 60
        E 0 90 60 60
        E 0 90 62 60
        E 60 80 1f 00
        E 0 80 3e 00
        E 0 80 4a 00
        E 0 80 56 00
        E 0 80 62 00
        E 1 80 18 00
        E 0 80 48 00
        E 0 80 54 00
        E 0 80 60 00
        E 179 90 1f 60
        E 0 90 56 60
        E 0 90 62 60
        E 61 80 1f 00
        E 0 80 56 00
        E 0 80 62 00
        E 179 90 18 60
        E 0 90 1a 60
        E 0 90 1f 60
        E 0 90 3d 60
        E 0 90 3e 60
        E 0 90 49 60
        E 0 90 4a 60
        E 0 90 54 60
        E 0 90 55 60
        E 0 90 56 60
        E 0 90 60 60
        E 0 90 61 60
        E 0 90 62 60
        E 61 80 18 00
        E 0 80 1a 00
        E 0 80 1f 00
        E 0 80 3d 00
        E 0 80 3e 00
        E 0 80 49 00
        E 0 80 4a 00
        E 0 80 54 00
        E 0 80 55 00
        E 0 80 56 00
        E 0 80 60 00
        E 0 80 61 00
        E 0 80 62 00
        E 119 80 74 00
        E 60 90 1f 60
        E 0 90 56 60
        E 0 90 62 60
        E 61 80 1f 00
        E 0 80 56 00
        E 0 80 62 00
        E 179 90 18 60
        E 0 90 1f 60
        E 0 90 3e 60
        E 0 90 48 60
        E 0 90 4a 60
        E 0 90 54 60
        E 0 90 56 60
        E 0 90 60 60
        E 0 90 62 60
        E 60 80 18 00
        E 0 80 48 00
        E 0 80 54 00
        E 0 80 60 00
        E 1 80 1f 00
        E 0 80 3e 00
        E 0 80 4a 00
        E 0 80 56 00
        E 0 80 62 00
        E 179 90 1f 60
        E 0 90 56 60
        E 0 90 62 60
        E 61 80 1f 00
        E 0 80 56 00
        E 0 80 62 00
        E 179 90 18 60
        E 0 90 1a 60
        E 0 90 1f 60
        E 0 90 3d 60
        E 0 90 3e 60
        E 0 90 49 60
        E 0 90 4a 60
        E 0 90 54 60
        E 0 90 55 60
        E 0 90 56 60
        E 0 90 60 60
        E 0 90 61 60
        E 0 90 62 60
        E 60 80 18 00
        E 0 80 54 00
        E 0 80 60 00
        E 1 80 1a 00
        E 0 80 1f 00
        E 0 80 3d 00
        E 0 80 3e 00
        E 0 80 49 00
        E 0 80 4a 00
        E 0 80 55 00
        E 0 80 56 00
        E 0 80 61 00
        E 0 80 62 00
        E 179 90 1f 60
        E 0 90 56 60
        E 0 90 62 60
        E 61 80 1f 00
        E 0 80 56 00
        E 0 80 62 00
        E 179 90 18 60
        E 0 90 1f 60
        E 0 90 3e 60
        E 0 90 48 60
        E 0 90 4a 60
        E 0 90 54 60
        E 0 90 56 60
        E 0 90 60 60
        E 0 90 62 60
        E 60 80 1f 00
        E 0 80 3e 00
        E 0 80 4a 00
        E 0 80 56 00
        E 0 80 62 00
        E 1 80 18 00
        E 0 80 48 00
        E 0 80 54 00
        E 0 80 60 00
        E 179 90 1f 60
        E 0 90 56 60
        E 0 90 62 60
        E 61 80 1f 00
        E 0 80 56 00
        E 0 80 62 00
        E 179 90 18 60
        E 0 90 1a 60
        E 0 90 1f 60
        E 0 90 3d 60
        E 0 90 3e 60
        E 0 90 49 60
        E 0 90 4a 60
        E 0 90 54 60
        E 0 90 55 60
        E 0 90 56 60
        E 0 90 60 60
        E 0 90 61 60
        E 0 90 62 60
        E 61 80 18 00
        E 0 80 1a 00
        E 0 80 1f 00
        E 0 80 3d 00
        E 0 80 3e 00
        E 0 80 49 00
        E 0 80 4a 00
        E 0 80 54 00
        E 0 80 55 00
        E 0 80 56 00
        E 0 80 60 00
        E 0 80 61 00
        E 0 80 62 00
        E 179 90 1f 60
        E 0 90 56 60
        E 0 90 62 60
        E 61 80 1f 00
        E 0 80 56 00
        E 0 80 62 00
        E 179 90 18 60
        E 0 90 1f 60
        E 0 90 3e 60
        E 0 90 48 60
        E 0 90 4a 60
        E 0 90 54 60
        E 0 90 56 60
        E 0 90 60 60
        E 0 90 62 60
        E 60 80 18 00
        E 0 80 48 00
        E 0 80 54 00
        E 0 80 60 00
        E 1 80 1f 00
        E 0 80 3e 00
        E 0 80 4a 00
        E 0 80 56 00
        E 0 80 62 00
        E 179 90 1f 60
        E 0 90 56 60
        E 0 90 62 60
        E 61 80 1f 00
        E 0 80 56 00
        E 0 80 62 00
        E 179 90 18 60
        E 0 90 1a 60
        E 0 90 1f 60
        E 0 90 3d 60
        E 0 90 3e 60
        E 0 90 49 60
        E 0 90 4a 60
        E 0 90 54 60
        E 0 90 55 60
        E 0 90 56 60
        E 0 90 60 60
        E 0 90 61 60
        E 0 90 62 60
        E 60 80 18 00
        E 0 80 54 00
        E 0 80 60 00
        E 1 80 1a 00
        E 0 80 1f 00
        E 0 80 3d 00
        E 0 80 3e 00
        E 0 80 49 00
        E 0 80 4a 00
        E 0 80 55 00
        E 0 80 56 00
        E 0 80 61 00
        E 0 80 62 00
        E 179 90 1f 60
        E 0 90 56 60
        E 0 90 62 60
        E 61 80 1f 00
        E 0 80 56 00
        E 0 80 62 00
        E 179 90 18 60
        E 0 90 1f 60
        E 0 90 3e 60
        E 0 90 48 60
        E 0 90 4a 60
        E 0 90 54 60
        E 0 90 56 60
        E 0 90 60 60
        E 0 90 62 60
        E 60 80 1f 00
        E 0 80 3e 00
        E 0 80 4a 00
        E 0 80 56 00
        E 0 80 62 00
        E 1 80 18 00
        E 0 80 48 00
        E 0 80 54 00
        E 0 80 60 00
        E 179 90 1f 60
        E 0 90 56 60
        E 0 90 62 60
        E 61 80 1f 00
        E 0 80 56 00
        E 0 80 62 00
        E 179 90 18 60
        E 0 90 1a 60
        E 0 90 1f 60
        E 0 90 3d 60
        E 0 90 3e 60
        E 0 90 49 60
        E 0 90 4a 60
        E 0 90 54 60
        E 0 90 55 60
        E 0 90 56 60
        E 0 90 60 60
        E 0 90 61 60
        E 0 90 62 60
        E 61 80 18 00
        E 0 80 1a 00
        E 0 80 1f 00
        E 0 80 3d 00
        E 0 80 3e 00
        E 0 80 49 00
        E 0 80 4a 00
        E 0 80 54 00
        E 0 80 55 00
        E 0 80 56 00
        E 0 80 60 00
        E 0 80 61 00
        E 0 80 62 00
        E 179 90 1f 60
        E 0 90 56 60
        E 0 90 62 60
        E 61 80 1f 00
        E 0 80 56 00
        E 0 80 62 00
        E 179 90 18 60
        E 0 90 1f 60
        E 0 90 3e 60
        E 0 90 48 60
        E 0 90 4a 60
        E 0 90 54 60
        E 0 90 56 60
        E 0 90 60 60
        E 0 90 62 60
        E 60 80 18 00
        E 0 80 48 00
        E 0 80 54 00
        E 0 80 60 00
        E 1 80 1f 00
        E 0 80 3e 00
        E 0 80 4a 00
        E 0 80 56 00
        E 0 80 62 00
        E 59 90 78 60
        E 0 90 79 60
        E 0 90 7a 60
        E 0 90 7b 60
        E 0 90 7c 60
        E 120 90 1f 60
        E 0 90 56 60
        E 0 90 62 60
        E 61 80 1f 00
        E 0 80 56 00
        E 0 80 62 00
        E 179 90 18 60
        E 0 90 1a 60
        E 0 90 1f 60
        E 0 90 3d 60
        E 0 90 3e 60
        E 0 90 49 60
        E 0 90 4a 60
        E 0 90 54 60
        E 0 90 55 60
        E 0 90 56 60
        E 0 90 60 60
        E 0 90 61 60
        E 0 90 62 60
        E 60 80 18 00
        E 0 80 54 00
        E 0 80 60 00
        E 1 80 1a 00
        E 0 80 1f 00
        E 0 80 3d 00
        E 0 80 3e 00
        E 0 80 49 00
        E 0 80 4a 00
        E 0 80 55 00
        E 0 80 56 00
        E 0 80 61 00
        E 0 80 62 00
        E 179 90 1f 60
        E 0 90 56 60
        E 0 90 62 60
        E 61 80 1f 00
        E 0 80 56 00
        E 0 80 62 00
        E 179 90 18 60
        E 0 90 1f 60
        E 0 90 3e 60
        E 0 90 48 60
        E 0 90 4a 60
        E 0 90 54 60
        E 0 90 56 60
        E 0 90 60 60
        E 0 90 62 60
        E 60 80 1f 00
        E 0 80 3e 00
        E 0 80 4a 00
        E 0 80 56 00
        E 0 80 62 00
        E 1 80 18 00
        E 0 80 48 00
        E 0 80 54 00
        E 0 80 60 00
        E 179 90 1f 60
        E 0 90 56 60
        E 0 90 62 60
        E 61 80 1f 00
        E 0 80 56 00
        E 0 80 62 00
        E 179 80 78 00
        E 0 80 79 00
        E 0 80 7a 00
        E 0 80 7b 00
        E 0 80 7c 00
        E 0 90 18 60
        E 0 90 1a 60
        E 0 90 1f 60
        E 0 90 3d 60
        E 0 90 3e 60
        E 0 90 49 60
        E 0 90 4a 60
        E 0 90 54 60
        E 0 90 55 60
        E 0 90 56 60
        E 0 90 60 60
        E 0 90 61 60
        E 0 90 62 60
        E 61 80 18 00
        E 0 80 1a 00
        E 0 80 1f 00
        E 0 80 3d 00
        E 0 80 3e 00
        E 0 80 49 00
        E 0 80 4a 00
        E 0 80 54 00
        E 0 80 55 00
        E 0 80 56 00
        E 0 80 60 00
        E 0 80 61 00
        E 0 80 62 00
        E 179 90 1f 60
        E 0 90 56 60
        E 0 90 62 60
        E 61 80 1f 00
        E 0 80 56 00
        E 0 80 62 00
        E 179 90 18 60
        E 0 90 1f 60
        E 0 90 3e 60
        E 0 90 48 60
        E 0 90 4a 60
        E 0 90 54 60
        E 0 90 56 60
        E 0 90 60 60
        E 0 90 62 60
        E 60 80 18 00
        E 0 80 48 00
        E 0 80 54 00
        E 0 80 60 00
        E 1 80 1f 00
        E 0 80 3e 00
        E 0 80 4a 00
        E 0 80 56 00
        E 0 80 62 00
        E 179 90 1f 60
        E 0 90 56 60
        E 0 90 62 60
        E 61 80 1f 00
        E 0 80 56 00
        E 0 80 62 00
        E 179 90 18 60
        E 0 90 1a 60
        E 0 90 1f 60
        E 0 90 3d 60
        E 0 90 3e 60
        E 0 90 49 60
        E 0 90 4a 60
        E 0 90 54 60
        E 0 90 55 60
        E 0 90 56 60
        E 0 90 60 60
        E 0 90 61 60
        E 0 90 62 60
        E 60 80 18 00
        E 0 80 54 00
        E 0 80 60 00
        E 1 80 1a 00
        E 0 80 1f 00
        E 0 80 3d 00
        E 0 80 3e 00
        E 0 80 49 00
        E 0 80 4a 00
        E 0 80 55 00
        E 0 80 56 00
        E 0 80 61 00
        E 0 80 62 00
        E 179 90 1f 60
        E 0 90 56 60
        E 0 90 62 60
        E 61 80 1f 00
        E 0 80 56 00
        E 0 80 62 00
        E 179 90 18 60
        E 0 90 1f 60
        E 0 90 3e 60
        E 0 90 48 60
        E 0 90 4a 60
        E 0 90 54 60
        E 0 90 56 60
        E 0 90 60 60
        E 0 90 62 60
        E 60 80 1f 00
        E 0 80 3e 00
        E 0 80 4a 00
        E 0 80 56 00
        E 0 80 62 00
        E 1 80 18 00
        E 0 80 48 00
        E 0 80 54 00
        E 0 80 60 00
        E 179 90 1f 60
        E 0 90 56 60
        E 0 90 62 60
        E 61 80 1f 00
        E 0 80 56 00
        E 0 80 62 00
        E 179 90 18 60
        E 0 90 1a 60
        E 0 90 1f 60
        E 0 90 3d 60
        E 0 90 3e 60
        E 0 90 49 60
        E 0 90 4a 60
        E 0 90 54 60
        E 0 90 55 60
        E 0 90 56 60
        E 0 90 60 60
        E 0 90 61 60
        E 0 90 62 60
        E 61 80 18 00
        E 0 80 1a 00
        E 0 80 1f 00
        E 0 80 3d 00
        E 0 80 3e 00
        E 0 80 49 00
        E 0 80 4a 00
        E 0 80 54 00
        E 0 80 55 00
        E 0 80 56 00
        E 0 80 60 00
        E 0 80 61 00
        E 0 80 62 00
        E 179 90 1f 60
        E 0 90 56 60
        E 0 90 62 60
        E 61 80 1f 00
        E 0 80 56 00
        E 0 80 62 00
        E 179 90 18 60
        E 0 90 1f 60
        E 0 90 3e 60
        E 0 90 48 60
        E 0 90 4a 60
        E 0 90 54 60
        E 0 90 56 60
        E 0 90 60 60
        E 0 90 62 60
        E 60 80 18 00
        E 0 80 48 00
        E 0 80 54 00
        E 0 80 60 00
        E 1 80 1f 00
        E 0 80 3e 00
        E 0 80 4a 00
        E 0 80 56 00
        E 0 80 62 00
        E 179 90 1f 60
        E 0 90 56 60
        E 0 90 62 60
        E 61 80 1f 00
        E 0 80 56 00
        E 0 80 62 00
        E 179 90 18 60
        E 0 90 1a 60
        E 0 90 1f 60
        E 0 90 3d 60
        E 0 90 3e 60
        E 0 90 49 60
        E 0 90 4a 60
        E 0 90 54 60
        E 0 90 55 60
        E 0 90 56 60
        E 0 90 60 60
        E 0 90 61 60
        E 0 90 62 60
        E 60 80 18 00
        E 0 80 54 00
        E 0 80 60 00
        E 1 80 1a 00
        E 0 80 1f 00
        E 0 80 3d 00
        E 0 80 3e 00
        E 0 80 49 00
        E 0 80 4a 00
        E 0 80 55 00
        E 0 80 56 00
        E 0 80 61 00
        E 0 80 62 00
        E 179 90 1f 60
        E 0 90 56 60
        E 0 90 62 60
        E 61 80 1f 00
        E 0 80 56 00
        E 0 80 62 00
        E 179 90 18 60
        E 0 90 1f 60
        E 0 90 3e 60
        E 0 90 48 60
        E 0 90 4a 60
        E 0 90 54 60
        E 0 90 56 60
        E 0 90 60 60
        E 0 90 62 60
        E 60 80 1f 00
        E 0 80 3e 00
        E 0 80 4a 00
        E 0 80 56 00
        E 0 80 62 00
        E 1 80 18 00
        E 0 80 48 00
        E 0 80 54 00
        E 0 80 60 00
        E 179 90 1f 60
        E 0 90 56 60
        E 0 90 62 60
        E 61 80 1f 00
        E 0 80 56 00
        E 0 80 62 00
        E 179 90 18 60
        E 0 90 1a 60
        E 0 90 1f 60
        E 0 90 3d 60
        E 0 90 3e 60
        E 0 90 49 60
        E 0 90 4a 60
        E 0 90 54 60
        E 0 90 55 60
        E 0 90 56 60
        E 0 90 60 60
        E 0 90 61 60
        E 0 90 62 60
        E 61 80 18 00
        E 0 80 1a 00
        E 0 80 1f 00
        E 0 80 3d 00
        E 0 80 3e 00
        E 0 80 49 00
        E 0 80 4a 00
        E 0 80 54 00
        E 0 80 55 00
        E 0 80 56 00
        E 0 80 60 00
        E 0 80 61 00
        E 0 80 62 00
        E 179 90 1f 60
        E 0 90 56 60
        E 0 90 62 60
        E 61 80 1f 00
        E 0 80 56 00
        E 0 80 62 00
        E 179 90 18 60
        E 0 90 1f 60
        E 0 90 3e 60
        E 0 90 48 60
        E 0 90 4a 60
        E 0 90 54 60
        E 0 90 56 60
        E 0 90 60 60
        E 0 90 62 60
        E 60 80 18 00
        E 0 80 48 00
        E 0 80 54 00
        E 0 80 60 00
        E 1 80 1f 00
        E 0 80 3e 00
        E 0 80 4a 00
        E 0 80 56 00
        E 0 80 62 00
        E 179 90 1f 60
        E 0 90 56 60
        E 0 90 62 60
        E 61 80 1f 00
        E 0 80 56 00
        E 0 80 62 00
        E 179 90 18 60
        E 0 90 1a 60
        E 0 90 1f 60
        E 0 90 3d 60
        E 0 90 3e 60
        E 0 90 49 60
        E 0 90 4a 60
        E 0 90 54 60
        E 0 90 55 60
        E 0 90 56 60
        E 0 90 60 60
        E 0 90 61 60
        E 0 90 62 60
        E 60 80 18 00
        E 0 80 54 00
        E 0 80 60 00
        E 1 80 1a 00
        E 0 80 1f 00
        E 0 80 3d 00
        E 0 80 3e 00
        E 0 80 49 00
        E 0 80 4a 00
        E 0 80 55 00
        E 0 80 56 00
        E 0 80 61 00
        E 0 80 62 00
        E 179 90 1f 60
        E 0 90 56 60
        E 0 90 62 60
        E 61 80 1f 00
        E 0 80 56 00
        E 0 80 62 00
        E 179 90 18 60
        E 0 90 1f 60
        E 0 90 3e 60
        E 0 90 48 60
        E 0 90 4a 60
        E 0 90 54 60
        E 0 90 56 60
        E 0 90 60 60
        E 0 90 62 60
        E 60 80 1f 00
        E 0 80 3e 00
        E 0 80 4a 00
        E 0 80 56 00
        E 0 80 62 00
        E 1 80 18 00
        E 0 80 48 00
        E 0 80 54 00
        E 0 80 60 00
        E 179 90 1f 60
        E 0 90 56 60
        E 0 90 62 60
        E 61 80 1f 00
        E 0 80 56 00
        E 0 80 62 00
        E 179 90 18 60
        E 0 90 1a 60
        E 0 90 1f 60
        E 0 90 3d 60
        E 0 90 3e 60
        E 0 90 49 60
        E 0 90 4a 60
        E 0 90 54 60
        E 0 90 55 60
        E 0 90 56 60
        E 0 90 60 60
        E 0 90 61 60
        E 0 90 62 60
        E 61 80 18 00
        E 0 80 1a 00
        E 0 80 1f 00
        E 0 80 3d 00
        E 0 80 3e 00
        E 0 80 49 00
        E 0 80 4a 00
        E 0 80 54 00
        E 0 80 55 00
        E 0 80 56 00
        E 0 80 60 00
        E 0 80 61 00
        E 0 80 62 00
        E 178 90 1f 60
        E 0 90 56 60
        E 0 90 62 60
        E 61 80 1f 00
        E 0 80 56 00
        E 0 80 62 00
        E 180 90 18 60
        E 0 90 1f 60
        E 0 90 3e 60
        E 0 90 48 60
        E 0 90 4a 60
        E 0 90 54 60
        E 0 90 56 60
        E 0 90 60 60
        E 0 90 62 60
        E 60 80 18 00
        E 0 80 1f 00
        E 0 80 3e 00
        E 0 80 48 00
        E 0 80 4a 00
        E 0 80 54 00
        E 0 80 56 00
        E 0 80 60 00
        E 0 80 62 00
        E 179 90 1f 60
        E 0 90 56 60
        E 0 90 62 60
        E 61 80 1f 00
        E 0 80 56 00
        E 0 80 62 00
        E 180 90 18 60
        E 0 90 1a 60
        E 0 90 1f 60
        E 0 90 3d 60
        E 0 90 3e 60
        E 0 90 49 60
        E 0 90 4a 60
        E 0 90 54 60
        E 0 90 55 60
        E 0 90 56 60
        E 0 90 60 60
        E 0 90 61 60
        E 0 90 62 60
        E 60 80 18 00
        E 0 80 54 00
        E 0 80 60 00
        E 1 80 1a 00
        E 0 80 1f 00
        E 0 80 3d 00
        E 0 80 3e 00
        E 0 80 49 00
        E 0 80 4a 00
        E 0 80 55 00
        E 0 80 56 00
        E 0 80 61 00
        E 0 80 62 00
        E 178 90 1f 60
        E 0 90 56 60
        E 0 90 62 60
        E 61 80 1f 00
        E 0 80 56 00
        E 0 80 62 00
        E 180 90 18 60
        E 0 90 1f 60
        E 0 90 3e 60
        E 0 90 48 60
        E 0 90 4a 60
        E 0 90 54 60
        E 0 90 56 60
        E 0 90 60 60
        E 0 90 62 60
        E 60 80 1f 00
        E 0 80 3e 00
        E 0 80 4a 00
        E 0 80 56 00
        E 0 80 62 00
        E 1 80 18 00
        E 0 80 48 00
        E 0 80 54 00
        E 0 80 60 00
        E 179 90 1f 60
        E 0 90 56 60
        E 0 90 62 60
        E 61 80 1f 00
        E 0 80 56 00
        E 0 80 62 00
        E 179 90 18 60
        E 0 90 1a 60
        E 0 90 1f 60
        E 0 90 3d 60
        E 0 90 3e 60
        E 0 90 49 60
        E 0 90 4a 60
        E 0 90 54 60
        E 0 90 55 60
        E 0 90 56 60
        E 0 90 60 60
        E 0 90 61 60
        E 0 90 62 60
        E 61 80 18 00
        E 0 80 1a 00
        E 0 80 1f 00
        E 0 80 3d 00
        E 0 80 3e 00
        E 0 80 49 00
        E 0 80 4a 00
        E 0 80 54 00
        E 0 80 55 00
        E 0 80 56 00
        E 0 80 60 00
        E 0 80 61 00
        E 0 80 62 00
        E 178 90 1f 60
        E 0 90 56 60
        E 0 90 62 60
        E 61 80 1f 00
        E 0 80 56 00
        E 0 80 62 00
        E 180 90 18 60
        E 0 90 1f 60
        E 0 90 3e 60
        E 0 90 48 60
        E 0 90 4a 60
        E 0 90 54 60
        E 0 90 56 60
        E 0 90 60 60
        E 0 90 62 60
        E 60 80 18 00
        E 0 80 1f 00
        E 0 80 3e 00
        E 0 80 48 00
        E 0 80 4a 00
        E 0 80 54 00
        E 0 80 56 00
        E 0 80 60 00
        E 0 80 62 00
        E 60 90 78 60
        E 0 90 79 60
        E 0 90 7a 60
        E 0 90 7b 60
        E 0 90 7c 60
        E 119 90 1f 60
        E 0 90 56 60
        E 0 90 62 60
        E 61 80 1f 00
        E 0 80 56 00
        E 0 80 62 00
        E 180 90 18 60
        E 0 90 1a 60
        E 0 90 1f 60
        E 0 90 3d 60
        E 0 90 3e 60
        E 0 90 49 60
        E 0 90 4a 60
        E 0 90 54 60
        E 0 90 55 60
        E 0 90 56 60
        E 0 90 60 60
        E 0 90 61 60
        E 0 90 62 60
        E 60 80 18 00
        E 0 80 54 00
        E 0 80 60 00
        E 1 80 1a 00
        E 0 80 1f 00
        E 0 80 3d 00
        E 0 80 3e 00
        E 0 80 49 00
        E 0 80 4a 00
        E 0 80 55 00
        E 0 80 56 00
        E 0 80 61 00
        E 0 80 62 00
        E 179 90 1f 60
        E 0 90 56 60
        E 0 90 62 60
        E 61 80 1f 00
        E 0 80 56 00
        E 0 80 62 00
        E 179 90 18 60
        E 0 90 1f 60
        E 0 90 3e 60
        E 0 90 48 60
        E 0 90 4a 60
        E 0 90 54 60
        E 0 90 56 60
        E 0 90 60 60
        E 0 90 62 60
        E 60 80 1f 00
        E 0 80 3e 00
        E 0 80 4a 00
        E 0 80 56 00
        E 0 80 62 00
        E 1 80 18 00
        E 0 80 48 00
        E 0 80 54 00
        E 0 80 60 00
        E 179 90 1f 60
        E 0 90 56 60
        E 0 90 62 60
        E 61 80 1f 00
        E 0 80 56 00
        E 0 80 62 00
        E 179 80 78 00
        E 0 80 79 00
        E 0 80 7a 00
        E 0 80 7b 00
        E 0 80 7c 00
        E 0 90 18 60
        E 0 90 1a 60
        E 0 90 1f 60
        E 0 90 3d 60
        E 0 90 3e 60
        E 0 90 49 60
        E 0 90 4a 60
        E 0 90 54 60
        E 0 90 55 60
        E 0 90 56 60
        E 0 90 60 60
        E 0 90 61 60
        E 0 90 62 60
        E 61 80 18 00
        E 0 80 1a 00
        E 0 80 1f 00
        E 0 80 3d 00
        E 0 80 3e 00
        E 0 80 49 00
        E 0 80 4a 00
        E 0 80 54 00
        E 0 80 55 00
        E 0 80 56 00
        E 0 80 60 00
        E 0 80 61 00
        E 0 80 62 00
        E 179 90 1f 60
        E 0 90 56 60
        E 0 90 62 60
        E 61 80 1f 00
        E 0 80 56 00
        E 0 80 62 00
        E 179 90 18 60
        E 0 90 1f 60
        E 0 90 3e 60
        E 0 90 48 60
        E 0 90 4a 60
        E 0 90 54 60
        E 0 90 56 60
        E 0 90 60 60
        E 0 90 62 60
        E 60 80 18 00
        E 0 80 1f 00
        E 0 80 3e 00
        E 0 80 48 00
        E 0 80 4a 00
        E 0 80 54 00
        E 0 80 56 00
        E 0 80 60 00
        E 0 80 62 00
        E 180 90 1f 60
        E 0 90 56 60
        E 0 90 62 60
        E 61 80 1f 00
        E 0 80 56 00
        E 0 80 62 00
        E 179 90 18 60
        E 0 90 1a 60
        E 0 90 1f 60
        E 0 90 3d 60
        E 0 90 3e 60
        E 0 90 49 60
        E 0 90 4a 60
        E 0 90 54 60
        E 0 90 55 60
        E 0 90 56 60
        E 0 90 60 60
        E 0 90 61 60
        E 0 90 62 60
        E 60 80 18 00
        E 0 80 54 00
        E 0 80 60 00
        E 1 80 1a 00
        E 0 80 1f 00
        E 0 80 3d 00
        E 0 80 3e 00
        E 0 80 49 00
        E 0 80 4a 00
        E 0 80 55 00
        E 0 80 56 00
        E 0 80 61 00
        E 0 80 62 00
        E 178 90 1f 60
        E 0 90 56 60
        E 0 90 62 60
        E 61 80 1f 00
        E 0 80 56 00
        E 0 80 62 00
        E 180 90 18 60
        E 0 90 1f 60
        E 0 90 3e 60
        E 0 90 48 60
        E 0 90 4a 60
        E 0 90 54 60
        E 0 90 56 60
        E 0 90 60 60
        E 0 90 62 60
        E 60 80 1f 00
        E 0 80 3e 00
        E 0 80 4a 00
        E 0 80 56 00
        E 0 80 62 00
        E 1 80 18 00
        E 0 80 48 00
        E 0 80 54 00
        E 0 80 60 00
        E 179 90 1f 60
        E 0 90 56 60
        E 0 90 62 60
        E 61 80 1f 00
        E 0 80 56 00
        E 0 80 62 00
        E 179 90 18 60
        E 0 90 1a 60
        E 0 90 1f 60
        E 0 90 3d 60
        E 0 90 3e 60
        E 0 90 49 60
        E 0 90 4a 60
        E 0 90 54 60
        E 0 90 55 60
        E 0 90 56 60
        E 0 90 60 60
        E 0 90 61 60
        E 0 90 62 60
        E 61 80 18 00
        E 0 80 1a 00
        E 0 80 1f 00
        E 0 80 3d 00
        E 0 80 3e 00
        E 0 80 49 00
        E 0 80 4a 00
        E 0 80 54 00
        E 0 80 55 00
        E 0 80 56 00
        E 0 80 60 00
        E 0 80 61 00
        E 0 80 62 00
        E 178 90 1f 60
        E 0 90 56 60
        E 0 90 62 60
        E 61 80 1f 00
        E 0 80 56 00
        E 0 80 62 00
        E 180 90 18 60
        E 0 90 1f 60
        E 0 90 3e 60
        E 0 90 48 60
        E 0 90 4a 60
        E 0 90 54 60
        E 0 90 56 60
        E 0 90 60 60
        E 0 90 62 60
        E 60 80 18 00
        E 0 80 1f 00
        E 0 80 3e 00
        E 0 80 48 00
        E 0 80 4a 00
        E 0 80 54 00
        E 0 80 56 00
        E 0 80 60 00
        E 0 80 62 00
        E 179 90 1f 60
        E 0 90 56 60
        E 0 90 62 60
        E 61 80 1f 00
        E 0 80 56 00
        E 0 80 62 00
        E 120 90 74 60
        E 60 90 18 60
        E 0 90 1a 60
        E 0 90 1f 60
        E 0 90 3d 60
        E 0 90 3e 60
        E 0 90 49 60
        E 0 90 4a 60
        E 0 90 54 60
        E 0 90 55 60
        E 0 90 56 60
        E 0 90 60 60
        E 0 90 61 60
        E 0 90 62 60
        E 60 80 18 00
        E 0 80 1a 00
        E 0 80 1f 00
        E 0 80 3d 00
        E 0 80 3e 00
        E 0 80 49 00
        E 0 80 4a 00
        E 0 80 54 00
        E 0 80 55 00
        E 0 80 56 00
        E 0 80 60 00
        E 0 80 61 00
        E 0 80 62 00
        E 180 90 18 60
        E 0 90 1f 60
        E 0 90 54 60
        E 0 90 56 60
        E 0 90 60 60
        E 0 90 62 60
        E 60 80 18 00
        E 0 80 54 00
        E 0 80 60 00
        E 1 80 1f 00
        E 0 80 56 00
        E 0 80 62 00
        E 179 90 18 60
        E 0 90 1a 60
        E 0 90 1f 60
        E 0 90 3d 60
        E 0 90 3e 60
        E 0 90 49 60
        E 0 90 4a 60
        E 0 90 54 60
        E 0 90 55 60
        E 0 90 56 60
        E 0 90 60 60
        E 0 90 61 60
        E 0 90 62 60
        E 60 80 18 00
        E 0 80 1a 00
        E 0 80 1f 00
        E 0 80 3d 00
        E 0 80 3e 00
        E 0 80 49 00
        E 0 80 4a 00
        E 0 80 54 00
        E 0 80 55 00
        E 0 80 56 00
        E 0 80 60 00
        E 0 80 61 00
        E 0 80 62 00
        E 180 90 18 60
        E 0 90 1f 60
        E 0 90 54 60
        E 0 90 56 60
        E 0 90 60 60
        E 0 90 62 60
        E 60 80 18 00
        E 0 80 1f 00
        E 0 80 54 00
        E 0 80 56 00
        E 0 80 60 00
        E 0 80 62 00
        E 180 90 18 60
        E 0 90 1a 60
        E 0 90 1f 60
        E 0 90 3d 60
        E 0 90 3e 60
        E 0 90 49 60
        E 0 90 4a 60
        E 0 90 54 60
        E 0 90 55 60
        E 0 90 56 60
        E 0 90 60 60
        E 0 90 61 60
        E 0 90 62 60
        E 60 80 18 00
        E 0 80 1a 00
        E 0 80 1f 00
        E 0 80 3d 00
        E 0 80 3e 00
        E 0 80 49 00
        E 0 80 4a 00
        E 0 80 54 00
        E 0 80 55 00
        E 0 80 56 00
        E 0 80 60 00
        E 0 80 61 00
        E 0 80 62 00
        E 180 90 18 60
        E 0 90 1f 60
        E 0 90 54 60
        E 0 90 56 60
        E 0 90 60 60
        E 0 90 62 60
        E 60 80 18 00
        E 0 80 1f 00
        E 0 80 54 00
        E 0 80 56 00
        E 0 80 60 00
        E 0 80 62 00
        E 180 90 18 60
        E 0 90 1a 60
        E 0 90 1f 60
        E 0 90 3d 60
        E 0 90 3e 60
        E 0 90 49 60
        E 0 90 4a 60
        E 0 90 54 60
        E 0 90 55 60
        E 0 90 56 60
        E 0 90 60 60
        E 0 90 61 60
        E 0 90 62 60
        E 60 80 18 00
        E 0 80 1a 00
        E 0 80 1f 00
        E 0 80 3d 00
        E 0 80 3e 00
        E 0 80 49 00
        E 0 80 4a 00
        E 0 80 54 00
        E 0 80 55 00
        E 0 80 56 00
        E 0 80 60 00
        E 0 80 61 00
        E 0 80 62 00
        E 180 90 1f 60
        E 0 90 56 60
        E 0 90 62 60
        E 60 80 1f 00
        E 0 80 56 00
        E 0 80 62 00
        E 180 90 18 60
        E 0 90 1a 60
        E 0 90 1f 60
        E 0 90 3d 60
        E 0 90 3e 60
        E 0 90 49 60
        E 0 90 4a 60
        E 0 90 54 60
        E 0 90 55 60
        E 0 90 56 60
        E 0 90 60 60
        E 0 90 61 60
        E 0 90 62 60
        E 60 80 18 00
        E 0 80 1f 00
        E 0 80 3e 00
        E 0 80 4a 00
        E 0 80 54 00
        E 0 80 56 00
        E 0 80 60 00
        E 0 80 62 00
        E 1 80 1a 00
        E 0 80 3d 00
        E 0 80 49 00
        E 0 80 55 00
        E 0 80 61 00
        E 419 90 18 60
        E 0 90 22 60
        E 0 90 26 60
        E 0 90 3e 60
        E 0 90 40 60
        E 0 90 48 60
        E 0 90 4a 60
        E 0 90 4c 60
        E 0 90 54 60
        E 0 90 56 60
        E 0 90 58 60
        E 0 90 60 60
        E 0 90 62 60
        E 0 90 64 60
        E 60 80 18 00
        E 0 80 22 00
        E 0 80 26 00
        E 0 80 3e 00
        E 0 80 40 00
        E 0 80 48 00
        E 0 80 4a 00
        E 0 80 4c 00
        E 0 80 54 00
        E 0 80 56 00
        E 0 80 58 00
        E 0 80 60 00
        E 0 80 62 00
        E 0 80 64 00
        E 60 80 74 00
        E 120 90 1f 60
        E 0 90 56 60
        E 0 90 62 60
        E 60 80 1f 00
        E 0 80 56 00
        E 0 80 62 00
        E 180 90 18 60
        E 0 90 1a 60
        E 0 90 1f 60
        E 0 90 3d 60
        E 0 90 3e 60
        E 0 90 49 60
        E 0 90 4a 60
        E 0 90 54 60
        E 0 90 55 60
        E 0 90 56 60
        E 0 90 60 60
        E 0 90 61 60
        E 0 90 62 60
        E 60 80 18 00
        E 0 80 1f 00
        E 0 80 3e 00
        E 0 80 4a 00
        E 0 80 54 00
        E 0 80 56 00
        E 0 80 60 00
        E 0 80 62 00
        E 1 80 1a 00
        E 0 80 3d 00
        E 0 80 49 00
        E 0 80 55 00
        E 0 80 61 00
        E 179 90 1f 60
        E 0 90 56 60
        E 0 90 62 60
        E 60 80 1f 00
        E 0 80 56 00
        E 0 80 62 00
        E 180 90 18 60
        E 0 90 1f 60
        E 0 90 3e 60
        E 0 90 48 60
        E 0 90 4a 60
        E 0 90 54 60
        E 0 90 56 60
        E 0 90 60 60
        E 0 90 62 60
        E 60 80 18 00
        E 0 80 1f 00
        E 0 80 3e 00
        E 0 80 48 00
        E 0 80 4a 00
        E 0 80 54 00
        E 0 80 56 00
        E 0 80 60 00
        E 0 80 62 00
        E 180 90 1f 60
        E 0 90 56 60
        E 0 90 62 60
        E 60 80 1f 00
        E 0 80 56 00
        E 0 80 62 00
        E 180 90 18 60
        E 0 90 1a 60
        E 0 90 1f 60
        E 0 90 3d 60
        E 0 90 3e 60
        E 0 90 49 60
        E 0 90 4a 60
        E 0 90 54 60
        E 0 90 55 60
        E 0 90 56 60
        E 0 90 60 60
        E 0 90 61 60
        E 0 90 62 60
        E 60 80 18 00
        E 0 80 1f 00
        E 0 80 3e 00
        E 0 80 4a 00
        E 0 80 54 00
        E 0 80 56 00
        E 0 80 60 00
        E 0 80 62 00
        E 1 80 1a 00
        E 0 80 3d 00
        E 0 80 49 00
        E 0 80 55 00
        E 0 80 61 00
        E 179 90 1f 60
        E 0 90 56 60
        E 0 90 62 60
        E 60 80 1f 00
        E 0 80 56 00
        E 0 80 62 00
        E 180 90 18 60
        E 0 90 1f 60
        E 0 90 3e 60
        E 0 90 48 60
        E 0 90 4a 60
        E 0 90 54 60
        E 0 90 56 60
        E 0 90 60 60
        E 0 90 62 60
        E 60 80 1f 00
        E 0 80 3e 00
        E 0 80 4a 00
        E 0 80 56 00
        E 0 80 62 00
        E 1 80 18 00
        E 0 80 48 00
        E 0 80 54 00
        E 0 80 60 00
        E 179 90 1f 60
        E 0 90 56 60
        E 0 90 62 60
        E 61 80 1f 00
        E 0 80 56 00
        E 0 80 62 00
        E 179 90 18 60
        E 0 90 1a 60
        E 0 90 1f 60
        E 0 90 3d 60
        E 0 90 3e 60
        E 0 90 49 60
        E 0 90 4a 60
        E 0 90 54 60
        E 0 90 55 60
        E 0 90 56 60
        E 0 90 60 60
        E 0 90 61 60
        E 0 90 62 60
        E 61 80 18 00
        E 0 80 1a 00
        E 0 80 1f 00
        E 0 80 3d 00
        E 0 80 3e 00
        E 0 80 49 00
        E 0 80 4a 00
        E 0 80 54 00
        E 0 80 55 00
        E 0 80 56 00
        E 0 80 60 00
        E 0 80 61 00
        E 0 80 62 00
        E 178 90 1f 60
        E 0 90 56 60
        E 0 90 62 60
        E 61 80 1f 00
        E 0 80 56 00
        E 0 80 62 00
        E 180 90 18 60
        E 0 90 1f 60
        E 0 90 3e 60
        E 0 90 48 60
        E 0 90 4a 60
        E 0 90 54 60
        E 0 90 56 60
        E 0 90 60 60
        E 0 90 62 60
        E 60 80 18 00
        E 0 80 48 00
        E 0 80 54 00
        E 0 80 60 00
        E 1 80 1f 00
        E 0 80 3e 00
        E 0 80 4a 00
        E 0 80 56 00
        E 0 80 62 00
        E 178 90 1f 60
        E 0 90 56 60
        E 0 90 62 60
        E 61 80 1f 00
        E 0 80 56 00
        E 0 80 62 00
        E 180 90 18 60
        E 0 90 1a 60
        E 0 90 1f 60
        E 0 90 3d 60
        E 0 90 3e 60
        E 0 90 49 60
        E 0 90 4a 60
        E 0 90 54 60
        E 0 90 55 60
        E 0 90 56 60
        E 0 90 60 60
        E 0 90 61 60
        E 0 90 62 60
        E 60 80 18 00
        E 0 80 54 00
        E 0 80 60 00
        E 1 80 1a 00
        E 0 80 1f 00
        E 0 80 3d 00
        E 0 80 3e 00
        E 0 80 49 00
        E 0 80 4a 00
        E 0 80 55 00
        E 0 80 56 00
        E 0 80 61 00
        E 0 80 62 00
        E 178 90 1f 60
        E 0 90 56 60
        E 0 90 62 60
        E 61 80 1f 00
        E 0 80 56 00
        E 0 80 62 00
        E 180 90 18 60
        E 0 90 1f 60
        E 0 90 3e 60
        E 0 90 48 60
        E 0 90 4a 60
        E 0 90 54 60
        E 0 90 56 60
        E 0 90 60 60
        E 0 90 62 60
        E 60 80 1f 00
        E 0 80 3e 00
        E 0 80 4a 00
        E 0 80 56 00
        E 0 80 62 00
        E 1 80 18 00
        E 0 80 48 00
        E 0 80 54 00
        E 0 80 60 00
        E 59 90 78 60
        E 0 90 79 60
        E 0 90 7a 60
        E 0 90 7b 60
        E 0 90 7c 60
        E 120 90 1f 60
        E 0 90 56 60
        E 0 90 62 60
        E 61 80 1f 00
        E 0 80 56 00
        E 0 80 62 00
        E 179 90 18 60
        E 0 90 1a 60
        E 0 90 1f 60
        E 0 90 3d 60
        E 0 90 3e 60
        E 0 90 49 60
        E 0 90 4a 60
        E 0 90 54 60
        E 0 90 55 60
        E 0 90 56 60
        E 0 90 60 60
        E 0 90 61 60
        E 0 90 62 60
        E 61 80 18 00
        E 0 80 1a 00
        E 0 80 1f 00
        E 0 80 3d 00
        E 0 80 3e 00
        E 0 80 49 00
        E 0 80 4a 00
        E 0 80 54 00
        E 0 80 55 00
        E 0 80 56 00
        E 0 80 60 00
        E 0 80 61 00
        E 0 80 62 00
        E 178 90 1f 60
        E 0 90 56 60
        E 0 90 62 60
        E 61 80 1f 00
        E 0 80 56 00
        E 0 80 62 00
        E 180 90 18 60
        E 0 90 1f 60
        E 0 90 3e 60
        E 0 90 48 60
        E 0 90 4a 60
        E 0 90 54 60
        E 0 90 56 60
        E 0 90 60 60
        E 0 90 62 60
        E 60 80 18 00
        E 0 80 48 00
        E 0 80 54 00
        E 0 80 60 00
        E 1 80 1f 00
        E 0 80 3e 00
        E 0 80 4a 00
        E 0 80 56 00
        E 0 80 62 00
        E 178 90 1f 60
        E 0 90 56 60
        E 0 90 62 60
        E 61 80 1f 00
        E 0 80 56 00
        E 0 80 62 00
        E 180 80 78 00
        E 0 80 79 00
        E 0 80 7a 00
        E 0 80 7b 00
        E 0 80 7c 00
        E 0 90 18 60
        E 0 90 1a 60
        E 0 90 1f 60
        E 0 90 3d 60
        E 0 90 3e 60
        E 0 90 49 60
        E 0 90 4a 60
        E 0 90 54 60
        E 0 90 55 60
        E 0 90 56 60
        E 0 90 60 60
        E 0 90 61 60
        E 0 90 62 60
        E 60 80 18 00
        E 0 80 54 00
        E 0 80 60 00
        E 1 80 1a 00
        E 0 80 1f 00
        E 0 80 3d 00
        E 0 80 3e 00
        E 0 80 49 00
        E 0 80 4a 00
        E 0 80 55 00
        E 0 80 56 00
        E 0 80 61 00
        E 0 80 62 00
        E 178 90 1f 60
        E 0 90 56 60
        E 0 90 62 60
        E 61 80 1f 00
        E 0 80 56 00
        E 0 80 62 00
        E 180 90 18 60
        E 0 90 1f 60
        E 0 90 3e 60
        E 0 90 48 60
        E 0 90 4a 60
        E 0 90 54 60
        E 0 90 56 60
        E 0 90 60 60
        E 0 90 62 60
        E 60 80 1f 00
        E 0 80 3e 00
        E 0 80 4a 00
        E 0 80 56 00
        E 0 80 62 00
        E 1 80 18 00
        E 0 80 48 00
        E 0 80 54 00
        E 0 80 60 00
        E 179 90 1f 60
        E 0 90 56 60
        E 0 90 62 60
        E 61 80 1f 00
        E 0 80 56 00
        E 0 80 62 00
        E 179 90 18 60
        E 0 90 1a 60
        E 0 90 1f 60
        E 0 90 3d 60
        E 0 90 3e 60
        E 0 90 49 60
        E 0 90 4a 60
        E 0 90 54 60
        E 0 90 55 60
        E 0 90 56 60
        E 0 90 60 60
        E 0 90 61 60
        E 0 90 62 60
        E 61 80 18 00
        E 0 80 1a 00
        E 0 80 1f 00
        E 0 80 3d 00
        E 0 80 3e 00
        E 0 80 49 00
        E 0 80 4a 00
        E 0 80 54 00
        E 0 80 55 00
        E 0 80 56 00
        E 0 80 60 00
        E 0 80 61 00
        E 0 80 62 00
        E 178 90 1f 60
        E 0 90 56 60
        E 0 90 62 60
        E 61 80 1f 00
        E 0 80 56 00
        E 0 80 62 00
        E 180 90 18 60
        E 0 90 1f 60
        E 0 90 3e 60
        E 0 90 48 60
        E 0 90 4a 60
        E 0 90 54 60
        E 0 90 56 60
        E 0 90 60 60
        E 0 90 62 60
        E 60 80 18 00
        E 0 80 48 00
        E 0 80 54 00
        E 0 80 60 00
        E 1 80 1f 00
        E 0 80 3e 00
        E 0 80 4a 00
        E 0 80 56 00
        E 0 80 62 00
        E 178 90 1f 60
        E 0 90 56 60
        E 0 90 62 60
        E 61 80 1f 00
        E 0 80 56 00
        E 0 80 62 00
        E 180 90 18 60
        E 0 90 1a 60
        E 0 90 1f 60
        E 0 90 3d 60
        E 0 90 3e 60
        E 0 90 49 60
        E 0 90 4a 60
        E 0 90 54 60
        E 0 90 55 60
        E 0 90 56 60
        E 0 90 60 60
        E 0 90 61 60
        E 0 90 62 60
        E 60 80 18 00
        E 0 80 54 00
        E 0 80 60 00
        E 1 80 1a 00
        E 0 80 1f 00
        E 0 80 3d 00
        E 0 80 3e 00
        E 0 80 49 00
        E 0 80 4a 00
        E 0 80 55 00
        E 0 80 56 00
        E 0 80 61 00
        E 0 80 62 00
        E 178 90 1f 60
        E 0 90 56 60
        E 0 90 62 60
        E 61 80 1f 00
        E 0 80 56 00
        E 0 80 62 00
        E 180 90 18 60
        E 0 90 1f 60
        E 0 90 3e 60
        E 0 90 48 60
        E 0 90 4a 60
        E 0 90 54 60
        E 0 90 56 60
        E 0 90 60 60
        E 0 90 62 60
        E 60 80 1f 00
        E 0 80 3e 00
        E 0 80 4a 00
        E 0 80 56 00
        E 0 80 62 00
        E 1 80 18 00
        E 0 80 48 00
        E 0 80 54 00
        E 0 80 60 00
        E 179 90 1f 60
        E 0 90 56 60
        E 0 90 62 60
        E 61 80 1f 00
        E 0 80 56 00
        E 0 80 62 00
        E 179 90 18 60
        E 0 90 1a 60
        E 0 90 1f 60
        E 0 90 3d 60
        E 0 90 3e 60
        E 0 90 49 60
        E 0 90 4a 60
        E 0 90 54 60
        E 0 90 55 60
        E 0 90 56 60
        E 0 90 60 60
        E 0 90 61 60
        E 0 90 62 60
        E 61 80 18 00
        E 0 80 1a 00
        E 0 80 1f 00
        E 0 80 3d 00
        E 0 80 3e 00
        E 0 80 49 00
        E 0 80 4a 00
        E 0 80 54 00
        E 0 80 55 00
        E 0 80 56 00
        E 0 80 60 00
        E 0 80 61 00
        E 0 80 62 00
        E 178 90 1f 60
        E 0 90 56 60
        E 0 90 62 60
        E 61 80 1f 00
        E 0 80 56 00
        E 0 80 62 00
        E 180 90 18 60
        E 0 90 1f 60
        E 0 90 3e 60
        E 0 90 48 60
        E 0 90 4a 60
        E 0 90 54 60
        E 0 90 56 60
        E 0 90 60 60
        E 0 90 62 60
        E 60 80 18 00
        E 0 80 48 00
        E 0 80 54 00
        E 0 80 60 00
        E 1 80 1f 00
        E 0 80 3e 00
        E 0 80 4a 00
        E 0 80 56 00
        E 0 80 62 00
        E 178 90 1f 60
        E 0 90 56 60
        E 0 90 62 60
        E 61 80 1f 00
        E 0 80 56 00
        E 0 80 62 00
        E 180 90 18 60
        E 0 90 1a 60
        E 0 90 1f 60
        E 0 90 3d 60
        E 0 90 3e 60
        E 0 90 49 60
        E 0 90 4a 60
        E 0 90 54 60
        E 0 90 55 60
        E 0 90 56 60
        E 0 90 60 60
        E 0 90 61 60
        E 0 90 62 60
        E 60 80 18 00
        E 0 80 54 00
        E 0 80 60 00
        E 1 80 1a 00
        E 0 80 1f 00
        E 0 80 3d 00
        E 0 80 3e 00
        E 0 80 49 00
        E 0 80 4a 00
        E 0 80 55 00
        E 0 80 56 00
        E 0 80 61 00
        E 0 80 62 00
        E 178 90 1f 60
        E 0 90 56 60
        E 0 90 62 60
        E 61 80 1f 00
        E 0 80 56 00
        E 0 80 62 00
        E 180 90 18 60
        E 0 90 1f 60
        E 0 90 3e 60
        E 0 90 48 60
        E 0 90 4a 60
        E 0 90 54 60
        E 0 90 56 60
        E 0 90 60 60
        E 0 90 62 60
        E 60 80 1f 00
        E 0 80 3e 00
        E 0 80 4a 00
        E 0 80 56 00
        E 0 80 62 00
        E 1 80 18 00
        E 0 80 48 00
        E 0 80 54 00
        E 0 80 60 00
        E 179 90 1f 60
        E 0 90 56 60
        E 0 90 62 60
        E 61 80 1f 00
        E 0 80 56 00
        E 0 80 62 00
        E 179 90 18 60
        E 0 90 1a 60
        E 0 90 1f 60
        E 0 90 3d 60
        E 0 90 3e 60
        E 0 90 49 60
        E 0 90 4a 60
        E 0 90 54 60
        E 0 90 55 60
        E 0 90 56 60
        E 0 90 60 60
        E 0 90 61 60
        E 0 90 62 60
        E 61 80 18 00
        E 0 80 1a 00
        E 0 80 1f 00
        E 0 80 3d 00
        E 0 80 3e 00
        E 0 80 49 00
        E 0 80 4a 00
        E 0 80 54 00
        E 0 80 55 00
        E 0 80 56 00
        E 0 80 60 00
        E 0 80 61 00
        E 0 80 62 00
        E 178 90 1f 60
        E 0 90 56 60
        E 0 90 62 60
        E 61 80 1f 00
        E 0 80 56 00
        E 0 80 62 00
        E 180 90 18 60
        E 0 90 1f 60
        E 0 90 3e 60
        E 0 90 48 60
        E 0 90 4a 60
        E 0 90 54 60
        E 0 90 56 60
        E 0 90 60 60
        E 0 90 62 60
        E 60 80 18 00
        E 0 80 48 00
        E 0 80 54 00
        E 0 80 60 00
        E 1 80 1f 00
        E 0 80 3e 00
        E 0 80 4a 00
        E 0 80 56 00
        E 0 80 62 00
        E 59 90 78 60
        E 0 90 79 60
        E 0 90 7a 60
        E 0 90 7b 60
        E 0 90 7c 60
        E 119 90 1f 60
        E 0 90 56 60
        E 0 90 62 60
        E 61 80 1f 00
        E 0 80 56 00
        E 0 80 62 00
        E 180 90 18 60
        E 0 90 1a 60
        E 0 90 1f 60
        E 0 90 3d 60
        E 0 90 3e 60
        E 0 90 49 60
        E 0 90 4a 60
        E 0 90 54 60
        E 0 90 55 60
        E 0 90 56 60
        E 0 90 60 60
        E 0 90 61 60
        E 0 90 62 60
        E 60 80 18 00
        E 0 80 54 00
        E 0 80 60 00
        E 1 80 1a 00
        E 0 80 1f 00
        E 0 80 3d 00
        E 0 80 3e 00
        E 0 80 49 00
        E 0 80 4a 00
        E 0 80 55 00
        E 0 80 56 00
        E 0 80 61 00
        E 0 80 62 00
        E 178 90 1f 60
        E 0 90 56 60
        E 0 90 62 60
        E 61 80 1f 00
        E 0 80 56 00
        E 0 80 62 00
        E 180 90 18 60
        E 0 90 1f 60
        E 0 90 3e 60
        E 0 90 48 60
        E 0 90 4a 60
        E 0 90 54 60
        E 0 90 56 60
        E 0 90 60 60
        E 0 90 62 60
        E 60 80 1f 00
        E 0 80 3e 00
        E 0 80 4a 00
        E 0 80 56 00
        E 0 80 62 00
        E 1 80 18 00
        E 0 80 48 00
        E 0 80 54 00
        E 0 80 60 00
        E 179 90 1f 60
        E 0 90 56 60
        E 0 90 62 60
        E 61 80 1f 00
        E 0 80 56 00
        E 0 80 62 00
        E 179 80 78 00
        E 0 80 79 00
        E 0 80 7a 00
        E 0 80 7b 00
        E 0 80 7c 00
        E 0 90 18 60
        E 0 90 1a 60
        E 0 90 1f 60
        E 0 90 3d 60
        E 0 90 3e 60
        E 0 90 49 60
        E 0 90 4a 60
        E 0 90 54 60
        E 0 90 55 60
        E 0 90 56 60
        E 0 90 60 60
        E 0 90 61 60
        E 0 90 62 60
        E 61 80 18 00
        E 0 80 1a 00
        E 0 80 1f 00
        E 0 80 3d 00
        E 0 80 3e 00
        E 0 80 49 00
        E 0 80 4a 00
        E 0 80 54 00
        E 0 80 55 00
        E 0 80 56 00
        E 0 80 60 00
        E 0 80 61 00
        E 0 80 62 00
        E 178 90 1f 60
        E 0 90 56 60
        E 0 90 62 60
        E 61 80 1f 00
        E 0 80 56 00
        E 0 80 62 00
        E 180 90 18 60
        E 0 90 1f 60
        E 0 90 3e 60
        E 0 90 48 60
        E 0 90 4a 60
        E 0 90 54 60
        E 0 90 56 60
        E 0 90 60 60
        E 0 90 62 60
        E 60 80 18 00
        E 0 80 48 00
        E 0 80 54 00
        E 0 80 60 00
        E 1 80 1f 00
        E 0 80 3e 00
        E 0 80 4a 00
        E 0 80 56 00
        E 0 80 62 00
        E 178 90 1f 60
        E 0 90 56 60
        E 0 90 62 60
        E 61 80 1f 00
        E 0 80 56 00
        E 0 80 62 00
        E 180 90 18 60
        E 0 90 1a 60
        E 0 90 1f 60
        E 0 90 3d 60
        E 0 90 3e 60
        E 0 90 49 60
        E 0 90 4a 60
        E 0 90 54 60
        E 0 90 55 60
        E 0 90 56 60
        E 0 90 60 60
        E 0 90 61 60
        E 0 90 62 60
        E 60 80 18 00
        E 0 80 54 00
        E 0 80 60 00
        E 1 80 1a 00
        E 0 80 1f 00
        E 0 80 3d 00
        E 0 80 3e 00
        E 0 80 49 00
        E 0 80 4a 00
        E 0 80 55 00
        E 0 80 56 00
        E 0 80 61 00
        E 0 80 62 00
        E 179 90 18 60
        E 0 90 1f 60
        E 0 90 54 60
        E 0 90 56 60
        E 0 90 60 60
        E 0 90 62 60
        E 60 80 18 00
        E 0 80 54 00
        E 0 80 60 00
        E 1 80 1f 00
        E 0 80 56 00
        E 0 80 62 00
        E 179 90 18 60
        E 0 90 1a 60
        E 0 90 1f 60
        E 0 90 3d 60
        E 0 90 3e 60
        E 0 90 49 60
        E 0 90 4a 60
        E 0 90 54 60
        E 0 90 55 60
        E 0 90 56 60
        E 0 90 60 60
        E 0 90 61 60
        E 0 90 62 60
        E 60 80 18 00
        E 0 80 54 00
        E 0 80 60 00
        E 1 80 1a 00
        E 0 80 1f 00
        E 0 80 3d 00
        E 0 80 3e 00
        E 0 80 49 00
        E 0 80 4a 00
        E 0 80 55 00
        E 0 80 56 00
        E 0 80 61 00
        E 0 80 62 00
        E 419 90 18 60
        E 0 90 1a 60
        E 0 90 1f 60
        E 0 90 3d 60
        E 0 90 3e 60
        E 0 90 49 60
        E 0 90 4a 60
        E 0 90 54 60
        E 0 90 55 60
        E 0 90 56 60
        E 0 90 60 60
        E 0 90 61 60
        E 0 90 62 60
        E 60 80 18 00
        E 0 80 54 00
        E 0 80 60 00
        E 1 80 1a 00
        E 0 80 1f 00
        E 0 80 3d 00
        E 0 80 3e 00
        E 0 80 49 00
        E 0 80 4a 00
        E 0 80 55 00
        E 0 80 56 00
        E 0 80 61 00
        E 0 80 62 00
        E 419 90 18 60
        E 0 90 1a 60
        E 0 90 1f 60
        E 0 90 3d 60
        E 0 90 3e 60
        E 0 90 49 60
        E 0 90 4a 60
        E 0 90 54 60
        E 0 90 55 60
        E 0 90 56 60
        E 0 90 60 60
        E 0 90 61 60
        E 0 90 62 60
        E 60 80 18 00
        E 0 80 54 00
        E 0 80 60 00
        E 1 80 1a 00
        E 0 80 1f 00
        E 0 80 3d 00
        E 0 80 3e 00
        E 0 80 49 00
        E 0 80 4a 00
        E 0 80 55 00
        E 0 80 56 00
        E 0 80 61 00
        E 0 80 62 00
        E 719 90 74 60
        <X 180 0
          /wFbbWl4IDMgZHJ1bXMwZF0=
        >
        E 0 90 1f 60
        E 0 90 3e 60
        E 0 90 4a 60
        E 0 90 56 60
        E 0 90 62 60
        E 60 80 1f 00
        E 0 80 3e 00
        E 0 80 4a 00
        E 0 80 56 00
        E 0 80 62 00
        E 180 90 1f 60
        E 0 90 56 60
        E 0 90 62 60
        E 60 80 1f 00
        E 0 80 56 00
        E 0 80 62 00
        E 180 90 1f 60
        E 0 90 3e 60
        E 0 90 4a 60
        E 0 90 56 60
        E 0 90 62 60
        E 60 80 1f 00
        E 0 80 3e 00
        E 0 80 4a 00
        E 0 80 56 00
        E 0 80 62 00
        E 180 90 1f 60
        E 0 90 56 60
        E 0 90 62 60
        E 60 80 1f 00
        E 0 80 56 00
        E 0 80 62 00
        E 180 90 1f 60
        E 0 90 3e 60
        E 0 90 4a 60
        E 0 90 56 60
        E 0 90 62 60
        E 60 80 1f 00
        E 0 80 3e 00
        E 0 80 4a 00
        E 0 80 56 00
        E 0 80 62 00
        E 180 90 1f 60
        E 0 90 56 60
        E 0 90 62 60
        E 60 80 1f 00
        E 0 80 56 00
        E 0 80 62 00
        E 180 90 1f 60
        E 0 90 3e 60
        E 0 90 4a 60
        E 0 90 56 60
        E 0 90 62 60
        E 60 80 1f 00
        E 0 80 3e 00
        E 0 80 4a 00
        E 0 80 56 00
        E 0 80 62 00
        E 180 90 1f 60
        E 0 90 56 60
        E 0 90 62 60
        E 60 80 1f 00
        E 0 80 56 00
        E 0 80 62 00
        E 180 90 1f 60
        E 0 90 3e 60
        E 0 90 4a 60
        E 0 90 56 60
        E 0 90 62 60
        E 60 80 1f 00
        E 0 80 3e 00
        E 0 80 4a 00
        E 0 80 56 00
        E 0 80 62 00
        E 180 90 1f 60
        E 0 90 56 60
        E 0 90 62 60
        E 60 80 1f 00
        E 0 80 56 00
        E 0 80 62 00
        E 180 90 1f 60
        E 0 90 3e 60
        E 0 90 4a 60
        E 0 90 56 60
        E 0 90 62 60
        E 60 80 1f 00
        E 0 80 3e 00
        E 0 80 4a 00
        E 0 80 56 00
        E 0 80 62 00
        E 180 90 1f 60
        E 0 90 56 60
        E 0 90 62 60
        E 60 80 1f 00
        E 0 80 56 00
        E 0 80 62 00
        E 60 80 74 00
        E 120 90 1f 60
        E 0 90 3e 60
        E 0 90 4a 60
        E 0 90 56 60
        E 0 90 62 60
        E 60 80 1f 00
        E 0 80 3e 00
        E 0 80 4a 00
        E 0 80 56 00
        E 0 80 62 00
        E 180 90 1f 60
        E 0 90 56 60
        E 0 90 62 60
        E 60 80 1f 00
        E 0 80 56 00
        E 0 80 62 00
        E 180 90 1f 60
        E 0 90 3e 60
        E 0 90 4a 60
        E 0 90 56 60
        E 0 90 62 60
        E 60 80 1f 00
        E 0 80 3e 00
        E 0 80 4a 00
        E 0 80 56 00
        E 0 80 62 00
        E 180 90 1f 60
        E 0 90 56 60
        E 0 90 62 60
        E 60 80 1f 00
        E 0 80 56 00
        E 0 80 62 00
        E 180 90 1f 60
        E 0 90 3e 60
        E 0 90 4a 60
        E 0 90 56 60
        E 0 90 62 60
        E 60 80 1f 00
        E 0 80 3e 00
        E 0 80 4a 00
        E 0 80 56 00
        E 0 80 62 00
        E 180 90 1f 60
        E 0 90 56 60
        E 0 90 62 60
        E 60 80 1f 00
        E 0 80 56 00
        E 0 80 62 00
        E 180 90 1f 60
        E 0 90 3e 60
        E 0 90 4a 60
        E 0 90 56 60
        E 0 90 62 60
        E 60 80 1f 00
        E 0 80 3e 00
        E 0 80 4a 00
        E 0 80 56 00
        E 0 80 62 00
        E 180 90 1f 60
        E 0 90 56 60
        E 0 90 62 60
        E 60 80 1f 00
        E 0 80 56 00
        E 0 80 62 00
        E 180 90 1f 60
        E 0 90 3e 60
        E 0 90 4a 60
        E 0 90 56 60
        E 0 90 62 60
        E 60 80 1f 00
        E 0 80 3e 00
        E 0 80 4a 00
        E 0 80 56 00
        E 0 80 62 00
        E 180 90 1f 60
        E 0 90 56 60
        E 0 90 62 60
        E 60 80 1f 00
        E 0 80 56 00
        E 0 80 62 00
        E 180 90 1f 60
        E 0 90 3e 60
        E 0 90 4a 60
        E 0 90 56 60
        E 0 90 62 60
        E 60 80 1f 00
        E 0 80 3e 00
        E 0 80 4a 00
        E 0 80 56 00
        E 0 80 62 00
        E 180 90 1f 60
        E 0 90 56 60
        E 0 90 62 60
        E 60 80 1f 00
        E 0 80 56 00
        E 0 80 62 00
        E 180 90 1f 60
        E 0 90 3e 60
        E 0 90 4a 60
        E 0 90 56 60
        E 0 90 62 60
        E 60 80 1f 00
        E 0 80 3e 00
        E 0 80 4a 00
        E 0 80 56 00
        E 0 80 62 00
        E 180 90 1f 60
        E 0 90 56 60
        E 0 90 62 60
        E 60 80 1f 00
        E 0 80 56 00
        E 0 80 62 00
        E 180 90 1f 60
        E 0 90 3e 60
        E 0 90 4a 60
        E 0 90 56 60
        E 0 90 62 60
        E 60 80 1f 00
        E 0 80 3e 00
        E 0 80 4a 00
        E 0 80 56 00
        E 0 80 62 00
        E 180 90 1f 60
        E 0 90 56 60
        E 0 90 62 60
        E 60 80 1f 00
        E 0 80 56 00
        E 0 80 62 00
        E 180 90 1f 60
        E 0 90 3e 60
        E 0 90 4a 60
        E 0 90 56 60
        E 0 90 62 60
        E 60 80 1f 00
        E 0 80 3e 00
        E 0 80 4a 00
        E 0 80 56 00
        E 0 80 62 00
        E 180 90 1f 60
        E 0 90 56 60
        E 0 90 62 60
        E 60 80 1f 00
        E 0 80 56 00
        E 0 80 62 00
        E 180 90 1f 60
        E 0 90 3e 60
        E 0 90 4a 60
        E 0 90 56 60
        E 0 90 62 60
        E 60 80 1f 00
        E 0 80 3e 00
        E 0 80 4a 00
        E 0 80 56 00
        E 0 80 62 00
        E 180 90 1f 60
        E 0 90 56 60
        E 0 90 62 60
        E 60 80 1f 00
        E 0 80 56 00
        E 0 80 62 00
        E 180 90 1f 60
        E 0 90 3e 60
        E 0 90 4a 60
        E 0 90 56 60
        E 0 90 62 60
        E 60 80 1f 00
        E 0 80 3e 00
        E 0 80 4a 00
        E 0 80 56 00
        E 0 80 62 00
        E 180 90 1f 60
        E 0 90 56 60
        E 0 90 62 60
        E 60 80 1f 00
        E 0 80 56 00
        E 0 80 62 00
        E 180 90 1f 60
        E 0 90 3e 60
        E 0 90 4a 60
        E 0 90 56 60
        E 0 90 62 60
        E 60 80 1f 00
        E 0 80 3e 00
        E 0 80 4a 00
        E 0 80 56 00
        E 0 80 62 00
        E 180 90 1f 60
        E 0 90 56 60
        E 0 90 62 60
        E 60 80 1f 00
        E 0 80 56 00
        E 0 80 62 00
        E 180 90 1f 60
        E 0 90 3e 60
        E 0 90 4a 60
        E 0 90 56 60
        E 0 90 62 60
        E 60 80 1f 00
        E 0 80 3e 00
        E 0 80 4a 00
        E 0 80 56 00
        E 0 80 62 00
        E 180 90 1f 60
        E 0 90 56 60
        E 0 90 62 60
        E 60 80 1f 00
        E 0 80 56 00
        E 0 80 62 00
        E 180 90 1f 60
        E 0 90 3e 60
        E 0 90 4a 60
        E 0 90 56 60
        E 0 90 62 60
        E 60 80 1f 00
        E 0 80 3e 00
        E 0 80 4a 00
        E 0 80 56 00
        E 0 80 62 00
        E 180 90 1f 60
        E 0 90 56 60
        E 0 90 62 60
        E 60 80 1f 00
        E 0 80 56 00
        E 0 80 62 00
        E 180 90 1f 60
        E 0 90 3e 60
        E 0 90 4a 60
        E 0 90 56 60
        E 0 90 62 60
        E 60 80 1f 00
        E 0 80 3e 00
        E 0 80 4a 00
        E 0 80 56 00
        E 0 80 62 00
        E 180 90 1f 60
        E 0 90 56 60
        E 0 90 62 60
        E 60 80 1f 00
        E 0 80 56 00
        E 0 80 62 00
        E 180 90 1f 60
        E 0 90 3e 60
        E 0 90 4a 60
        E 0 90 56 60
        E 0 90 62 60
        E 60 80 1f 00
        E 0 80 3e 00
        E 0 80 4a 00
        E 0 80 56 00
        E 0 80 62 00
        E 180 90 1f 60
        E 0 90 56 60
        E 0 90 62 60
        E 60 80 1f 00
        E 0 80 56 00
        E 0 80 62 00
        E 180 90 1f 60
        E 0 90 3e 60
        E 0 90 4a 60
        E 0 90 56 60
        E 0 90 62 60
        E 60 80 1f 00
        E 0 80 3e 00
        E 0 80 4a 00
        E 0 80 56 00
        E 0 80 62 00
        E 180 90 1f 60
        E 0 90 56 60
        E 0 90 62 60
        E 60 80 1f 00
        E 0 80 56 00
        E 0 80 62 00
        E 180 90 1f 60
        E 0 90 3e 60
        E 0 90 4a 60
        E 0 90 56 60
        E 0 90 62 60
        E 60 80 1f 00
        E 0 80 3e 00
        E 0 80 4a 00
        E 0 80 56 00
        E 0 80 62 00
        E 180 90 1f 60
        E 0 90 56 60
        E 0 90 62 60
        E 60 80 1f 00
        E 0 80 56 00
        E 0 80 62 00
        E 180 90 1f 60
        E 0 90 3e 60
        E 0 90 4a 60
        E 0 90 56 60
        E 0 90 62 60
        E 60 80 1f 00
        E 0 80 3e 00
        E 0 80 4a 00
        E 0 80 56 00
        E 0 80 62 00
        E 180 90 1f 60
        E 0 90 56 60
        E 0 90 62 60
        E 60 80 1f 00
        E 0 80 56 00
        E 0 80 62 00
        E 180 90 1f 60
        E 0 90 3e 60
        E 0 90 4a 60
        E 0 90 56 60
        E 0 90 62 60
        E 60 80 1f 00
        E 0 80 3e 00
        E 0 80 4a 00
        E 0 80 56 00
        E 0 80 62 00
        E 180 90 1f 60
        E 0 90 56 60
        E 0 90 62 60
        E 60 80 1f 00
        E 0 80 56 00
        E 0 80 62 00
        E 180 90 1f 60
        E 0 90 3e 60
        E 0 90 4a 60
        E 0 90 56 60
        E 0 90 62 60
        E 60 80 1f 00
        E 0 80 3e 00
        E 0 80 4a 00
        E 0 80 56 00
        E 0 80 62 00
        E 180 90 1f 60
        E 0 90 56 60
        E 0 90 62 60
        E 60 80 1f 00
        E 0 80 56 00
        E 0 80 62 00
        E 180 90 1f 60
        E 0 90 3e 60
        E 0 90 4a 60
        E 0 90 56 60
        E 0 90 62 60
        E 60 80 1f 00
        E 0 80 3e 00
        E 0 80 4a 00
        E 0 80 56 00
        E 0 80 62 00
        E 180 90 1f 60
        E 0 90 56 60
        E 0 90 62 60
        E 60 80 1f 00
        E 0 80 56 00
        E 0 80 62 00
        E 180 90 1f 60
        E 0 90 3e 60
        E 0 90 4a 60
        E 0 90 56 60
        E 0 90 62 60
        E 60 80 1f 00
        E 0 80 3e 00
        E 0 80 4a 00
        E 0 80 56 00
        E 0 80 62 00
        E 180 90 1f 60
        E 0 90 56 60
        E 0 90 62 60
        E 60 80 1f 00
        E 0 80 56 00
        E 0 80 62 00
        E 180 90 1f 60
        E 0 90 3e 60
        E 0 90 4a 60
        E 0 90 56 60
        E 0 90 62 60
        E 60 80 1f 00
        E 0 80 3e 00
        E 0 80 4a 00
        E 0 80 56 00
        E 0 80 62 00
        E 180 90 1f 60
        E 0 90 56 60
        E 0 90 62 60
        E 60 80 1f 00
        E 0 80 56 00
        E 0 80 62 00
        E 180 90 1f 60
        E 0 90 3e 60
        E 0 90 4a 60
        E 0 90 56 60
        E 0 90 62 60
        E 60 80 1f 00
        E 0 80 3e 00
        E 0 80 4a 00
        E 0 80 56 00
        E 0 80 62 00
        E 180 90 1f 60
        E 0 90 56 60
        E 0 90 62 60
        E 60 80 1f 00
        E 0 80 56 00
        E 0 80 62 00
        E 180 90 1f 60
        E 0 90 3e 60
        E 0 90 4a 60
        E 0 90 56 60
        E 0 90 62 60
        E 60 80 1f 00
        E 0 80 3e 00
        E 0 80 4a 00
        E 0 80 56 00
        E 0 80 62 00
        E 180 90 1f 60
        E 0 90 56 60
        E 0 90 62 60
        E 60 80 1f 00
        E 0 80 56 00
        E 0 80 62 00
        E 180 90 1f 60
        E 0 90 3e 60
        E 0 90 4a 60
        E 0 90 56 60
        E 0 90 62 60
        E 60 80 1f 00
        E 0 80 3e 00
        E 0 80 4a 00
        E 0 80 56 00
        E 0 80 62 00
        E 180 90 1f 60
        E 0 90 56 60
        E 0 90 62 60
        E 60 80 1f 00
        E 0 80 56 00
        E 0 80 62 00
        E 180 90 1f 60
        E 0 90 3e 60
        E 0 90 4a 60
        E 0 90 56 60
        E 0 90 62 60
        E 60 80 1f 00
        E 0 80 3e 00
        E 0 80 4a 00
        E 0 80 56 00
        E 0 80 62 00
        E 180 90 1f 60
        E 0 90 56 60
        E 0 90 62 60
        E 60 80 1f 00
        E 0 80 56 00
        E 0 80 62 00
        E 180 90 1f 60
        E 0 90 3e 60
        E 0 90 4a 60
        E 0 90 56 60
        E 0 90 62 60
        E 60 80 1f 00
        E 0 80 3e 00
        E 0 80 4a 00
        E 0 80 56 00
        E 0 80 62 00
        E 60 90 78 60
        E 0 90 79 60
        E 0 90 7a 60
        E 0 90 7b 60
        E 0 90 7c 60
        E 120 90 1f 60
        E 0 90 56 60
        E 0 90 62 60
        E 60 80 1f 00
        E 0 80 56 00
        E 0 80 62 00
        E 180 90 1f 60
        E 0 90 3e 60
        E 0 90 4a 60
        E 0 90 56 60
        E 0 90 62 60
        E 60 80 1f 00
        E 0 80 3e 00
        E 0 80 4a 00
        E 0 80 56 00
        E 0 80 62 00
        E 180 90 1f 60
        E 0 90 56 60
        E 0 90 62 60
        E 60 80 1f 00
        E 0 80 56 00
        E 0 80 62 00
        E 180 90 1f 60
        E 0 90 3e 60
        E 0 90 4a 60
        E 0 90 56 60
        E 0 90 62 60
        E 60 80 1f 00
        E 0 80 3e 00
        E 0 80 4a 00
        E 0 80 56 00
        E 0 80 62 00
        E 180 90 1f 60
        E 0 90 56 60
        E 0 90 62 60
        E 60 80 1f 00
        E 0 80 56 00
        E 0 80 62 00
        E 180 80 78 00
        E 0 80 79 00
        E 0 80 7a 00
        E 0 80 7b 00
        E 0 80 7c 00
        E 0 90 1f 60
        E 0 90 3e 60
        E 0 90 4a 60
        E 0 90 56 60
        E 0 90 62 60
        E 60 80 1f 00
        E 0 80 3e 00
        E 0 80 4a 00
        E 0 80 56 00
        E 0 80 62 00
        E 180 90 1f 60
        E 0 90 56 60
        E 0 90 62 60
        E 60 80 1f 00
        E 0 80 56 00
        E 0 80 62 00
        E 180 90 1f 60
        E 0 90 3e 60
        E 0 90 4a 60
        E 0 90 56 60
        E 0 90 62 60
        E 60 80 1f 00
        E 0 80 3e 00
        E 0 80 4a 00
        E 0 80 56 00
        E 0 80 62 00
        E 180 90 1f 60
        E 0 90 56 60
        E 0 90 62 60
        E 60 80 1f 00
        E 0 80 56 00
        E 0 80 62 00
        E 180 90 1f 60
        E 0 90 3e 60
        E 0 90 4a 60
        E 0 90 56 60
        E 0 90 62 60
        E 60 80 1f 00
        E 0 80 3e 00
        E 0 80 4a 00
        E 0 80 56 00
        E 0 80 62 00
        E 180 90 1f 60
        E 0 90 56 60
        E 0 90 62 60
        E 60 80 1f 00
        E 0 80 56 00
        E 0 80 62 00
        E 180 90 1f 60
        E 0 90 3e 60
        E 0 90 4a 60
        E 0 90 56 60
        E 0 90 62 60
        E 60 80 1f 00
        E 0 80 3e 00
        E 0 80 4a 00
        E 0 80 56 00
        E 0 80 62 00
        E 180 90 1f 60
        E 0 90 56 60
        E 0 90 62 60
        E 60 80 1f 00
        E 0 80 56 00
        E 0 80 62 00
        E 180 90 1f 60
        E 0 90 3e 60
        E 0 90 4a 60
        E 0 90 56 60
        E 0 90 62 60
        E 60 80 1f 00
        E 0 80 3e 00
        E 0 80 4a 00
        E 0 80 56 00
        E 0 80 62 00
        E 180 90 1f 60
        E 0 90 56 60
        E 0 90 62 60
        E 60 80 1f 00
        E 0 80 56 00
        E 0 80 62 00
        E 180 90 1f 60
        E 0 90 3e 60
        E 0 90 4a 60
        E 0 90 56 60
        E 0 90 62 60
        E 60 80 1f 00
        E 0 80 3e 00
        E 0 80 4a 00
        E 0 80 56 00
        E 0 80 62 00
        E 180 90 1f 60
        E 0 90 56 60
        E 0 90 62 60
        E 60 80 1f 00
        E 0 80 56 00
        E 0 80 62 00
        E 180 90 1f 60
        E 0 90 3e 60
        E 0 90 4a 60
        E 0 90 56 60
        E 0 90 62 60
        E 60 80 1f 00
        E 0 80 3e 00
        E 0 80 4a 00
        E 0 80 56 00
        E 0 80 62 00
        E 180 90 1f 60
        E 0 90 56 60
        E 0 90 62 60
        E 60 80 1f 00
        E 0 80 56 00
        E 0 80 62 00
        E 180 90 1f 60
        E 0 90 3e 60
        E 0 90 4a 60
        E 0 90 56 60
        E 0 90 62 60
        E 60 80 1f 00
        E 0 80 3e 00
        E 0 80 4a 00
        E 0 80 56 00
        E 0 80 62 00
        E 180 90 1f 60
        E 0 90 56 60
        E 0 90 62 60
        E 60 80 1f 00
        E 0 80 56 00
        E 0 80 62 00
        E 180 90 1f 60
        E 0 90 3e 60
        E 0 90 4a 60
        E 0 90 56 60
        E 0 90 62 60
        E 60 80 1f 00
        E 0 80 3e 00
        E 0 80 4a 00
        E 0 80 56 00
        E 0 80 62 00
        E 180 90 1f 60
        E 0 90 56 60
        E 0 90 62 60
        E 60 80 1f 00
        E 0 80 56 00
        E 0 80 62 00
        E 60 90 74 60
        E 120 90 1f 60
        E 0 90 3e 60
        E 0 90 4a 60
        E 0 90 56 60
        E 0 90 62 60
        E 60 80 1f 00
        E 0 80 3e 00
        E 0 80 4a 00
        E 0 80 56 00
        E 0 80 62 00
        E 180 90 1f 60
        E 0 90 56 60
        E 0 90 62 60
        E 60 80 1f 00
        E 0 80 56 00
        E 0 80 62 00
        E 180 90 1f 60
        E 0 90 3e 60
        E 0 90 4a 60
        E 0 90 56 60
        E 0 90 62 60
        E 60 80 1f 00
        E 0 80 3e 00
        E 0 80 4a 00
        E 0 80 56 00
        E 0 80 62 00
        E 180 90 1f 60
        E 0 90 56 60
        E 0 90 62 60
        E 60 80 1f 00
        E 0 80 56 00
        E 0 80 62 00
        E 180 90 1f 60
        E 0 90 3e 60
        E 0 90 4a 60
        E 0 90 56 60
        E 0 90 62 60
        E 60 80 1f 00
        E 0 80 3e 00
        E 0 80 4a 00
        E 0 80 56 00
        E 0 80 62 00
        E 180 90 1f 60
        E 0 90 56 60
        E 0 90 62 60
        E 60 80 1f 00
        E 0 80 56 00
        E 0 80 62 00
        E 180 90 1f 60
        E 0 90 3e 60
        E 0 90 4a 60
        E 0 90 56 60
        E 0 90 62 60
        E 60 80 1f 00
        E 0 80 3e 00
        E 0 80 4a 00
        E 0 80 56 00
        E 0 80 62 00
        E 180 90 1f 60
        E 0 90 56 60
        E 0 90 62 60
        E 60 80 1f 00
        E 0 80 56 00
        E 0 80 62 00
        E 180 90 1f 60
        E 0 90 3e 60
        E 0 90 4a 60
        E 0 90 56 60
        E 0 90 62 60
        E 60 80 1f 00
        E 0 80 3e 00
        E 0 80 4a 00
        E 0 80 56 00
        E 0 80 62 00
        E 180 90 1f 60
        E 0 90 56 60
        E 0 90 62 60
        E 60 80 1f 00
        E 0 80 56 00
        E 0 80 62 00
        E 180 90 1f 60
        E 0 90 3e 60
        E 0 90 4a 60
        E 0 90 56 60
        E 0 90 62 60
        E 60 80 1f 00
        E 0 80 3e 00
        E 0 80 4a 00
        E 0 80 56 00
        E 0 80 62 00
        E 180 90 1f 60
        E 0 90 56 60
        E 0 90 62 60
        E 60 80 1f 00
        E 0 80 56 00
        E 0 80 62 00
        E 120 80 74 00
        E 60 90 1f 60
        E 0 90 3e 60
        E 0 90 4a 60
        E 0 90 56 60
        E 0 90 62 60
        E 60 80 1f 00
        E 0 80 3e 00
        E 0 80 4a 00
        E 0 80 56 00
        E 0 80 62 00
        E 180 90 1f 60
        E 0 90 56 60
        E 0 90 62 60
        E 60 80 1f 00
        E 0 80 56 00
        E 0 80 62 00
        E 180 90 1f 60
        E 0 90 3e 60
        E 0 90 4a 60
        E 0 90 56 60
        E 0 90 62 60
        E 60 80 1f 00
        E 0 80 3e 00
        E 0 80 4a 00
        E 0 80 56 00
        E 0 80 62 00
        E 180 90 1f 60
        E 0 90 56 60
        E 0 90 62 60
        E 60 80 1f 00
        E 0 80 56 00
        E 0 80 62 00
        E 180 90 1f 60
        E 0 90 3e 60
        E 0 90 4a 60
        E 0 90 56 60
        E 0 90 62 60
        E 60 80 1f 00
        E 0 80 3e 00
        E 0 80 4a 00
        E 0 80 56 00
        E 0 80 62 00
        E 180 90 1f 60
        E 0 90 56 60
        E 0 90 62 60
        E 60 80 1f 00
        E 0 80 56 00
        E 0 80 62 00
        E 180 90 1f 60
        E 0 90 3e 60
        E 0 90 4a 60
        E 0 90 56 60
        E 0 90 62 60
        E 60 80 1f 00
        E 0 80 3e 00
        E 0 80 4a 00
        E 0 80 56 00
        E 0 80 62 00
        E 180 90 1f 60
        E 0 90 56 60
        E 0 90 62 60
        E 60 80 1f 00
        E 0 80 56 00
        E 0 80 62 00
        E 180 90 1f 60
        E 0 90 3e 60
        E 0 90 4a 60
        E 0 90 56 60
        E 0 90 62 60
        E 60 80 1f 00
        E 0 80 3e 00
        E 0 80 4a 00
        E 0 80 56 00
        E 0 80 62 00
        E 180 90 1f 60
        E 0 90 56 60
        E 0 90 62 60
        E 60 80 1f 00
        E 0 80 56 00
        E 0 80 62 00
        E 180 90 1f 60
        E 0 90 3e 60
        E 0 90 4a 60
        E 0 90 56 60
        E 0 90 62 60
        E 60 80 1f 00
        E 0 80 3e 00
        E 0 80 4a 00
        E 0 80 56 00
        E 0 80 62 00
        E 180 90 1f 60
        E 0 90 56 60
        E 0 90 62 60
        E 60 80 1f 00
        E 0 80 56 00
        E 0 80 62 00
        E 180 90 1f 60
        E 0 90 3e 60
        E 0 90 4a 60
        E 0 90 56 60
        E 0 90 62 60
        E 60 80 1f 00
        E 0 80 3e 00
        E 0 80 4a 00
        E 0 80 56 00
        E 0 80 62 00
        E 180 90 1f 60
        E 0 90 56 60
        E 0 90 62 60
        E 60 80 1f 00
        E 0 80 56 00
        E 0 80 62 00
        E 180 90 1f 60
        E 0 90 3e 60
        E 0 90 4a 60
        E 0 90 56 60
        E 0 90 62 60
        E 60 80 1f 00
        E 0 80 3e 00
        E 0 80 4a 00
        E 0 80 56 00
        E 0 80 62 00
        E 60 90 78 60
        E 0 90 79 60
        E 0 90 7a 60
        E 0 90 7b 60
        E 0 90 7c 60
        E 120 90 1f 60
        E 0 90 56 60
        E 0 90 62 60
        E 60 80 1f 00
        E 0 80 56 00
        E 0 80 62 00
        E 180 90 1f 60
        E 0 90 3e 60
        E 0 90 4a 60
        E 0 90 56 60
        E 0 90 62 60
        E 60 80 1f 00
        E 0 80 3e 00
        E 0 80 4a 00
        E 0 80 56 00
        E 0 80 62 00
        E 180 90 1f 60
        E 0 90 56 60
        E 0 90 62 60
        E 60 80 1f 00
        E 0 80 56 00
        E 0 80 62 00
        E 180 90 1f 60
        E 0 90 3e 60
        E 0 90 4a 60
        E 0 90 56 60
        E 0 90 62 60
        E 60 80 1f 00
        E 0 80 3e 00
        E 0 80 4a 00
        E 0 80 56 00
        E 0 80 62 00
        E 180 90 1f 60
        E 0 90 56 60
        E 0 90 62 60
        E 60 80 1f 00
        E 0 80 56 00
        E 0 80 62 00
        E 180 80 78 00
        E 0 80 79 00
        E 0 80 7a 00
        E 0 80 7b 00
        E 0 80 7c 00
        E 0 90 1f 60
        E 0 90 3e 60
        E 0 90 4a 60
        E 0 90 56 60
        E 0 90 62 60
        E 60 80 1f 00
        E 0 80 3e 00
        E 0 80 4a 00
        E 0 80 56 00
        E 0 80 62 00
        E 180 90 1f 60
        E 0 90 56 60
        E 0 90 62 60
        E 60 80 1f 00
        E 0 80 56 00
        E 0 80 62 00
        E 180 90 1f 60
        E 0 90 3e 60
        E 0 90 4a 60
        E 0 90 56 60
        E 0 90 62 60
        E 60 80 1f 00
        E 0 80 3e 00
        E 0 80 4a 00
        E 0 80 56 00
        E 0 80 62 00
        E 180 90 1f 60
        E 0 90 56 60
        E 0 90 62 60
        E 60 80 1f 00
        E 0 80 56 00
        E 0 80 62 00
        E 180 90 18 60
        E 0 90 1b 60
        E 0 90 3d 60
        E 0 90 49 60
        E 0 90 54 60
        E 0 90 55 60
        E 0 90 60 60
        E 0 90 61 60
        E 60 80 18 00
        E 0 80 1b 00
        E 0 80 3d 00
        E 0 80 49 00
        E 0 80 54 00
        E 0 80 55 00
        E 0 80 60 00
        E 0 80 61 00
        E 60 90 1e 60
        E 0 90 62 60
        E 60 80 1e 00
        E 0 80 62 00
        E 60 90 1f 60
        E 0 90 56 60
        E 0 90 62 60
        E 60 80 1f 00
        E 0 80 56 00
        E 0 80 62 00
        E 60 90 1e 60
        E 0 90 62 60
        E 60 80 1e 00
        E 0 80 62 00
        E 60 90 18 60
        E 0 90 1b 60
        E 0 90 3d 60
        E 0 90 49 60
        E 0 90 54 60
        E 0 90 55 60
        E 0 90 60 60
        E 0 90 61 60
        E 60 80 18 00
        E 0 80 1b 00
        E 0 80 3d 00
        E 0 80 49 00
        E 0 80 54 00
        E 0 80 55 00
        E 0 80 60 00
        E 0 80 61 00
        E 60 90 1e 60
        E 0 90 62 60
        E 60 80 1e 00
        E 0 80 62 00
        E 60 90 1f 60
        E 0 90 56 60
        E 0 90 62 60
        E 60 80 1f 00
        E 0 80 56 00
        E 0 80 62 00
        E 60 90 1e 60
        E 0 90 62 60
        E 60 80 1e 00
        E 0 80 62 00
        E 60 90 18 60
        E 0 90 1b 60
        E 0 90 3d 60
        E 0 90 49 60
        E 0 90 54 60
        E 0 90 55 60
        E 0 90 60 60
        E 0 90 61 60
        E 60 80 18 00
        E 0 80 1b 00
        E 0 80 3d 00
        E 0 80 49 00
        E 0 80 54 00
        E 0 80 55 00
        E 0 80 60 00
        E 0 80 61 00
        E 60 90 1e 60
        E 0 90 62 60
        E 60 80 1e 00
        E 0 80 62 00
        E 60 90 1f 60
        E 0 90 56 60
        E 0 90 62 60
        E 60 80 1f 00
        E 0 80 56 00
        E 0 80 62 00
        E 60 90 1e 60
        E 0 90 62 60
        E 60 80 1e 00
        E 0 80 62 00
        E 60 90 18 60
        E 0 90 1b 60
        E 0 90 3d 60
        E 0 90 49 60
        E 0 90 54 60
        E 0 90 55 60
        E 0 90 60 60
        E 0 90 61 60
        E 60 80 18 00
        E 0 80 1b 00
        E 0 80 3d 00
        E 0 80 49 00
        E 0 80 54 00
        E 0 80 55 00
        E 0 80 60 00
        E 0 80 61 00
        E 60 90 1e 60
        E 0 90 62 60
        E 60 80 1e 00
        E 0 80 62 00
        E 60 90 1f 60
        E 0 90 56 60
        E 0 90 62 60
        E 60 80 1f 00
        E 0 80 56 00
        E 0 80 62 00
        E 60 90 1e 60
        E 0 90 62 60
        E 60 80 1e 00
        E 0 80 62 00
        E 60 90 18 60
        E 0 90 1b 60
        E 0 90 3d 60
        E 0 90 49 60
        E 0 90 54 60
        E 0 90 55 60
        E 0 90 60 60
        E 0 90 61 60
        E 60 80 18 00
        E 0 80 1b 00
        E 0 80 3d 00
        E 0 80 49 00
        E 0 80 54 00
        E 0 80 55 00
        E 0 80 60 00
        E 0 80 61 00
        E 60 90 1e 60
        E 0 90 62 60
        E 60 80 1e 00
        E 0 80 62 00
        E 60 90 1f 60
        E 0 90 56 60
        E 0 90 62 60
        E 60 80 1f 00
        E 0 80 56 00
        E 0 80 62 00
        E 60 90 1e 60
        E 0 90 62 60
        E 60 80 1e 00
        E 0 80 62 00
        E 60 90 18 60
        E 0 90 1b 60
        E 0 90 3d 60
        E 0 90 49 60
        E 0 90 54 60
        E 0 90 55 60
        E 0 90 60 60
        E 0 90 61 60
        E 60 80 18 00
        E 0 80 1b 00
        E 0 80 3d 00
        E 0 80 49 00
        E 0 80 54 00
        E 0 80 55 00
        E 0 80 60 00
        E 0 80 61 00
        E 60 90 1e 60
        E 0 90 62 60
        E 60 80 1e 00
        E 0 80 62 00
        E 60 90 1f 60
        E 0 90 56 60
        E 0 90 62 60
        E 60 80 1f 00
        E 0 80 56 00
        E 0 80 62 00
        E 60 90 1e 60
        E 0 90 62 60
        E 60 80 1e 00
        E 0 80 62 00
        E 60 90 18 60
        E 0 90 1b 60
        E 0 90 3d 60
        E 0 90 49 60
        E 0 90 54 60
        E 0 90 55 60
        E 0 90 60 60
        E 0 90 61 60
        E 60 80 18 00
        E 0 80 1b 00
        E 0 80 3d 00
        E 0 80 49 00
        E 0 80 54 00
        E 0 80 55 00
        E 0 80 60 00
        E 0 80 61 00
        E 60 90 1e 60
        E 0 90 62 60
        E 60 80 1e 00
        E 0 80 62 00
        E 60 90 1f 60
        E 0 90 56 60
        E 0 90 62 60
        E 60 80 1f 00
        E 0 80 56 00
        E 0 80 62 00
        E 60 90 1e 60
        E 0 90 62 60
        E 60 80 1e 00
        E 0 80 62 00
        E 60 90 18 60
        E 0 90 1b 60
        E 0 90 3d 60
        E 0 90 49 60
        E 0 90 54 60
        E 0 90 55 60
        E 0 90 60 60
        E 0 90 61 60
        E 60 80 18 00
        E 0 80 1b 00
        E 0 80 3d 00
        E 0 80 49 00
        E 0 80 54 00
        E 0 80 55 00
        E 0 80 60 00
        E 0 80 61 00
        E 60 90 1e 60
        E 0 90 62 60
        E 60 80 1e 00
        E 0 80 62 00
        E 60 90 1f 60
        E 0 90 56 60
        E 0 90 62 60
        E 60 80 1f 00
        E 0 80 56 00
        E 0 80 62 00
        E 60 90 1e 60
        E 0 90 62 60
        E 60 80 1e 00
        E 0 80 62 00
        E 60 90 18 60
        E 0 90 1b 60
        E 0 90 3d 60
        E 0 90 49 60
        E 0 90 54 60
        E 0 90 55 60
        E 0 90 60 60
        E 0 90 61 60
        E 60 80 18 00
        E 0 80 1b 00
        E 0 80 3d 00
        E 0 80 49 00
        E 0 80 54 00
        E 0 80 55 00
        E 0 80 60 00
        E 0 80 61 00
        E 60 90 1e 60
        E 0 90 62 60
        E 60 80 1e 00
        E 0 80 62 00
        E 60 90 1f 60
        E 0 90 56 60
        E 0 90 62 60
        E 60 80 1f 00
        E 0 80 56 00
        E 0 80 62 00
        E 60 90 1e 60
        E 0 90 62 60
        E 60 80 1e 00
        E 0 80 62 00
        E 60 90 18 60
        E 0 90 1b 60
        E 0 90 3d 60
        E 0 90 49 60
        E 0 90 54 60
        E 0 90 55 60
        E 0 90 60 60
        E 0 90 61 60
        E 60 80 18 00
        E 0 80 1b 00
        E 0 80 3d 00
        E 0 80 49 00
        E 0 80 54 00
        E 0 80 55 00
        E 0 80 60 00
        E 0 80 61 00
        E 60 90 1e 60
        E 0 90 62 60
        E 60 80 1e 00
        E 0 80 62 00
        E 60 90 1f 60
        E 0 90 56 60
        E 0 90 62 60
        E 60 80 1f 00
        E 0 80 56 00
        E 0 80 62 00
        E 60 90 1e 60
        E 0 90 62 60
        E 60 80 1e 00
        E 0 80 62 00
        E 60 90 18 60
        E 0 90 1b 60
        E 0 90 3d 60
        E 0 90 49 60
        E 0 90 54 60
        E 0 90 55 60
        E 0 90 60 60
        E 0 90 61 60
        E 60 80 18 00
        E 0 80 1b 00
        E 0 80 3d 00
        E 0 80 49 00
        E 0 80 54 00
        E 0 80 55 00
        E 0 80 60 00
        E 0 80 61 00
        E 60 90 1e 60
        E 0 90 62 60
        E 0 90 78 60
        E 0 90 79 60
        E 0 90 7a 60
        E 0 90 7b 60
        E 0 90 7c 60
        E 60 80 1e 00
        E 0 80 62 00
        E 60 90 1f 60
        E 0 90 56 60
        E 0 90 62 60
        E 60 80 1f 00
        E 0 80 56 00
        E 0 80 62 00
        E 60 90 1e 60
        E 0 90 62 60
        E 60 80 1e 00
        E 0 80 62 00
        E 60 90 18 60
        E 0 90 1b 60
        E 0 90 3d 60
        E 0 90 49 60
        E 0 90 54 60
        E 0 90 55 60
        E 0 90 60 60
        E 0 90 61 60
        E 60 80 18 00
        E 0 80 1b 00
        E 0 80 3d 00
        E 0 80 49 00
        E 0 80 54 00
        E 0 80 55 00
        E 0 80 60 00
        E 0 80 61 00
        E 60 90 1e 60
        E 0 90 62 60
        E 60 80 1e 00
        E 0 80 62 00
        E 60 90 1f 60
        E 0 90 56 60
        E 0 90 62 60
        E 60 80 1f 00
        E 0 80 56 00
        E 0 80 62 00
        E 60 90 1e 60
        E 0 90 62 60
        E 60 80 1e 00
        E 0 80 62 00
        E 60 90 18 60
        E 0 90 1b 60
        E 0 90 3d 60
        E 0 90 49 60
        E 0 90 54 60
        E 0 90 55 60
        E 0 90 60 60
        E 0 90 61 60
        E 60 80 18 00
        E 0 80 1b 00
        E 0 80 3d 00
        E 0 80 49 00
        E 0 80 54 00
        E 0 80 55 00
        E 0 80 60 00
        E 0 80 61 00
        E 60 90 1e 60
        E 0 90 62 60
        E 60 80 1e 00
        E 0 80 62 00
        E 60 90 1f 60
        E 0 90 56 60
        E 0 90 62 60
        E 60 80 1f 00
        E 0 80 56 00
        E 0 80 62 00
        E 60 90 1e 60
        E 0 90 62 60
        E 60 80 1e 00
        E 0 80 62 00
        E 60 80 78 00
        E 0 80 79 00
        E 0 80 7a 00
        E 0 80 7b 00
        E 0 80 7c 00
        E 0 90 18 60
        E 0 90 1b 60
        E 0 90 3d 60
        E 0 90 49 60
        E 0 90 54 60
        E 0 90 55 60
        E 0 90 60 60
        E 0 90 61 60
        E 60 80 18 00
        E 0 80 1b 00
        E 0 80 3d 00
        E 0 80 49 00
        E 0 80 54 00
        E 0 80 55 00
        E 0 80 60 00
        E 0 80 61 00
        E 60 90 1e 60
        E 0 90 62 60
        E 60 80 1e 00
        E 0 80 62 00
        E 60 90 1f 60
        E 0 90 56 60
        E 0 90 62 60
        E 60 80 1f 00
        E 0 80 56 00
        E 0 80 62 00
        E 60 90 1e 60
        E 0 90 62 60
        E 60 80 1e 00
        E 0 80 62 00
        E 60 90 18 60
        E 0 90 1b 60
        E 0 90 3d 60
        E 0 90 49 60
        E 0 90 54 60
        E 0 90 55 60
        E 0 90 60 60
        E 0 90 61 60
        E 60 80 18 00
        E 0 80 1b 00
        E 0 80 3d 00
        E 0 80 49 00
        E 0 80 54 00
        E 0 80 55 00
        E 0 80 60 00
        E 0 80 61 00
        E 60 90 1e 60
        E 0 90 62 60
        E 60 80 1e 00
        E 0 80 62 00
        E 60 90 1f 60
        E 0 90 56 60
        E 0 90 62 60
        E 60 80 1f 00
        E 0 80 56 00
        E 0 80 62 00
        E 60 90 1e 60
        E 0 90 62 60
        E 60 80 1e 00
        E 0 80 62 00
        E 60 90 18 60
        E 0 90 1b 60
        E 0 90 3d 60
        E 0 90 49 60
        E 0 90 54 60
        E 0 90 55 60
        E 0 90 60 60
        E 0 90 61 60
        E 60 80 18 00
        E 0 80 1b 00
        E 0 80 3d 00
        E 0 80 49 00
        E 0 80 54 00
        E 0 80 55 00
        E 0 80 60 00
        E 0 80 61 00
        E 60 90 1e 60
        E 0 90 62 60
        E 60 80 1e 00
        E 0 80 62 00
        E 60 90 1f 60
        E 0 90 56 60
        E 0 90 62 60
        E 60 80 1f 00
        E 0 80 56 00
        E 0 80 62 00
        E 60 90 1e 60
        E 0 90 62 60
        E 60 80 1e 00
        E 0 80 62 00
        E 60 90 18 60
        E 0 90 1b 60
        E 0 90 3d 60
        E 0 90 49 60
        E 0 90 54 60
        E 0 90 55 60
        E 0 90 60 60
        E 0 90 61 60
        E 60 80 18 00
        E 0 80 1b 00
        E 0 80 3d 00
        E 0 80 49 00
        E 0 80 54 00
        E 0 80 55 00
        E 0 80 60 00
        E 0 80 61 00
        E 60 90 1e 60
        E 0 90 62 60
        E 60 80 1e 00
        E 0 80 62 00
        E 60 90 1f 60
        E 0 90 56 60
        E 0 90 62 60
        E 60 80 1f 00
        E 0 80 56 00
        E 0 80 62 00
        E 60 90 1e 60
        E 0 90 62 60
        E 60 80 1e 00
        E 0 80 62 00
        E 60 90 18 60
        E 0 90 1b 60
        E 0 90 3d 60
        E 0 90 49 60
        E 0 90 54 60
        E 0 90 55 60
        E 0 90 60 60
        E 0 90 61 60
        E 60 80 18 00
        E 0 80 1b 00
        E 0 80 3d 00
        E 0 80 49 00
        E 0 80 54 00
        E 0 80 55 00
        E 0 80 60 00
        E 0 80 61 00
        E 60 90 1e 60
        E 0 90 62 60
        E 60 80 1e 00
        E 0 80 62 00
        E 60 90 1f 60
        E 0 90 56 60
        E 0 90 62 60
        E 60 80 1f 00
        E 0 80 56 00
        E 0 80 62 00
        E 60 90 1e 60
        E 0 90 62 60
        E 60 80 1e 00
        E 0 80 62 00
        E 60 90 18 60
        E 0 90 1b 60
        E 0 90 3d 60
        E 0 90 49 60
        E 0 90 54 60
        E 0 90 55 60
        E 0 90 60 60
        E 0 90 61 60
        E 60 80 18 00
        E 0 80 1b 00
        E 0 80 3d 00
        E 0 80 49 00
        E 0 80 54 00
        E 0 80 55 00
        E 0 80 60 00
        E 0 80 61 00
        E 60 90 1e 60
        E 0 90 62 60
        E 60 80 1e 00
        E 0 80 62 00
        E 60 90 1f 60
        E 0 90 56 60
        E 0 90 62 60
        E 60 80 1f 00
        E 0 80 56 00
        E 0 80 62 00
        E 60 90 1e 60
        E 0 90 62 60
        E 60 80 1e 00
        E 0 80 62 00
        E 60 90 18 60
        E 0 90 1b 60
        E 0 90 3d 60
        E 0 90 49 60
        E 0 90 54 60
        E 0 90 55 60
        E 0 90 60 60
        E 0 90 61 60
        E 60 80 18 00
        E 0 80 1b 00
        E 0 80 3d 00
        E 0 80 49 00
        E 0 80 54 00
        E 0 80 55 00
        E 0 80 60 00
        E 0 80 61 00
        E 60 90 1e 60
        E 0 90 62 60
        E 60 80 1e 00
        E 0 80 62 00
        E 60 90 1f 60
        E 0 90 56 60
        E 0 90 62 60
        E 60 80 1f 00
        E 0 80 56 00
        E 0 80 62 00
        E 60 90 1e 60
        E 0 90 62 60
        E 60 80 1e 00
        E 0 80 62 00
        E 60 90 18 60
        E 0 90 1b 60
        E 0 90 3d 60
        E 0 90 49 60
        E 0 90 54 60
        E 0 90 55 60
        E 0 90 60 60
        E 0 90 61 60
        E 60 80 18 00
        E 0 80 1b 00
        E 0 80 3d 00
        E 0 80 49 00
        E 0 80 54 00
        E 0 80 55 00
        E 0 80 60 00
        E 0 80 61 00
        E 60 90 1e 60
        E 0 90 62 60
        E 60 80 1e 00
        E 0 80 62 00
        E 60 90 1f 60
        E 0 90 56 60
        E 0 90 62 60
        E 60 80 1f 00
        E 0 80 56 00
        E 0 80 62 00
        E 60 90 1e 60
        E 0 90 62 60
        E 60 80 1e 00
        E 0 80 62 00
        E 60 90 18 60
        E 0 90 1b 60
        E 0 90 3d 60
        E 0 90 49 60
        E 0 90 54 60
        E 0 90 55 60
        E 0 90 60 60
        E 0 90 61 60
        E 60 80 18 00
        E 0 80 1b 00
        E 0 80 3d 00
        E 0 80 49 00
        E 0 80 54 00
        E 0 80 55 00
        E 0 80 60 00
        E 0 80 61 00
        E 60 90 1e 60
        E 0 90 62 60
        E 60 80 1e 00
        E 0 80 62 00
        E 60 90 1f 60
        E 0 90 56 60
        E 0 90 62 60
        E 60 80 1f 00
        E 0 80 56 00
        E 0 80 62 00
        E 60 90 1e 60
        E 0 90 62 60
        E 60 80 1e 00
        E 0 80 62 00
        E 60 90 18 60
        E 0 90 1b 60
        E 0 90 3d 60
        E 0 90 49 60
        E 0 90 54 60
        E 0 90 55 60
        E 0 90 60 60
        E 0 90 61 60
        E 60 80 18 00
        E 0 80 1b 00
        E 0 80 3d 00
        E 0 80 49 00
        E 0 80 54 00
        E 0 80 55 00
        E 0 80 60 00
        E 0 80 61 00
        E 60 90 1e 60
        E 0 90 62 60
        E 60 80 1e 00
        E 0 80 62 00
        E 60 90 1f 60
        E 0 90 56 60
        E 0 90 62 60
        E 60 80 1f 00
        E 0 80 56 00
        E 0 80 62 00
        E 60 90 1e 60
        E 0 90 62 60
        E 60 80 1e 00
        E 0 80 62 00
        E 60 90 18 60
        E 0 90 1b 60
        E 0 90 3d 60
        E 0 90 49 60
        E 0 90 54 60
        E 0 90 55 60
        E 0 90 60 60
        E 0 90 61 60
        E 60 80 18 00
        E 0 80 1b 00
        E 0 80 3d 00
        E 0 80 49 00
        E 0 80 54 00
        E 0 80 55 00
        E 0 80 60 00
        E 0 80 61 00
        E 60 90 1e 60
        E 0 90 62 60
        E 60 80 1e 00
        E 0 80 62 00
        E 60 90 1f 60
        E 0 90 56 60
        E 0 90 62 60
        E 60 80 1f 00
        E 0 80 56 00
        E 0 80 62 00
        E 60 90 1e 60
        E 0 90 62 60
        E 60 80 1e 00
        E 0 80 62 00
        E 60 90 1f 60
        E 0 90 3e 60
        E 0 90 4a 60
        E 0 90 56 60
        E 0 90 62 60
        E 60 80 1f 00
        E 0 80 3e 00
        E 0 80 4a 00
        E 0 80 56 00
        E 0 80 62 00
        E 112 90 74 60
        E 68 90 1f 60
        E 0 90 56 60
        E 0 90 62 60
        E 60 80 1f 00
        E 0 80 56 00
        E 0 80 62 00
        E 180 90 1f 60
        E 0 90 3e 60
        E 0 90 4a 60
        E 0 90 56 60
        E 0 90 62 60
        E 60 80 1f 00
        E 0 80 3e 00
        E 0 80 4a 00
        E 0 80 56 00
        E 0 80 62 00
        E 180 90 1f 60
        E 0 90 56 60
        E 0 90 62 60
        E 60 80 1f 00
        E 0 80 56 00
        E 0 80 62 00
        E 180 90 1f 60
        E 0 90 3e 60
        E 0 90 4a 60
        E 0 90 56 60
        E 0 90 62 60
        E 60 80 1f 00
        E 0 80 3e 00
        E 0 80 4a 00
        E 0 80 56 00
        E 0 80 62 00
        E 180 90 1f 60
        E 0 90 56 60
        E 0 90 62 60
        E 60 80 1f 00
        E 0 80 56 00
        E 0 80 62 00
        E 180 90 1f 60
        E 0 90 3e 60
        E 0 90 4a 60
        E 0 90 56 60
        E 0 90 62 60
        E 60 80 1f 00
        E 0 80 3e 00
        E 0 80 4a 00
        E 0 80 56 00
        E 0 80 62 00
        E 180 90 1f 60
        E 0 90 56 60
        E 0 90 62 60
        E 60 80 1f 00
        E 0 80 56 00
        E 0 80 62 00
        E 180 90 1f 60
        E 0 90 3e 60
        E 0 90 4a 60
        E 0 90 56 60
        E 0 90 62 60
        E 60 80 1f 00
        E 0 80 3e 00
        E 0 80 4a 00
        E 0 80 56 00
        E 0 80 62 00
        E 180 90 1f 60
        E 0 90 56 60
        E 0 90 62 60
        E 60 80 1f 00
        E 0 80 56 00
        E 0 80 62 00
        E 180 90 1f 60
        E 0 90 3e 60
        E 0 90 4a 60
        E 0 90 56 60
        E 0 90 62 60
        E 60 80 1f 00
        E 0 80 3e 00
        E 0 80 4a 00
        E 0 80 56 00
        E 0 80 62 00
        E 180 90 1f 60
        E 0 90 56 60
        E 0 90 62 60
        E 60 80 1f 00
        E 0 80 56 00
        E 0 80 62 00
        E 180 90 1f 60
        E 0 90 3e 60
        E 0 90 4a 60
        E 0 90 56 60
        E 0 90 62 60
        E 60 80 1f 00
        E 0 80 3e 00
        E 0 80 4a 00
        E 0 80 56 00
        E 0 80 62 00
        E 180 90 1f 60
        E 0 90 56 60
        E 0 90 62 60
        E 60 80 1f 00
        E 0 80 56 00
        E 0 80 62 00
        E 180 90 1f 60
        E 0 90 3e 60
        E 0 90 4a 60
        E 0 90 56 60
        E 0 90 62 60
        E 60 80 1f 00
        E 0 80 3e 00
        E 0 80 4a 00
        E 0 80 56 00
        E 0 80 62 00
        E 180 90 1f 60
        E 0 90 56 60
        E 0 90 62 60
        E 60 80 74 00
        E 0 80 1f 00
        E 0 80 56 00
        E 0 80 62 00
        E 180 90 18 60
        E 0 90 1b 60
        E 0 90 3d 60
        E 0 90 49 60
        E 0 90 54 60
        E 0 90 55 60
        E 0 90 60 60
        E 0 90 61 60
        E 60 80 18 00
        E 0 80 1b 00
        E 0 80 3d 00
        E 0 80 49 00
        E 0 80 54 00
        E 0 80 55 00
        E 0 80 60 00
        E 0 80 61 00
        E 60 90 1e 60
        E 0 90 62 60
        E 0 90 78 60
        E 0 90 79 60
        E 0 90 7a 60
        E 0 90 7b 60
        E 0 90 7c 60
        E 60 80 1e 00
        E 0 80 62 00
        E 60 90 1f 60
        E 0 90 56 60
        E 0 90 62 60
        E 60 80 1f 00
        E 0 80 56 00
        E 0 80 62 00
        E 60 90 1e 60
        E 0 90 62 60
        E 60 80 1e 00
        E 0 80 62 00
        E 60 90 18 60
        E 0 90 1b 60
        E 0 90 3d 60
        E 0 90 49 60
        E 0 90 54 60
        E 0 90 55 60
        E 0 90 60 60
        E 0 90 61 60
        E 60 80 18 00
        E 0 80 1b 00
        E 0 80 3d 00
        E 0 80 49 00
        E 0 80 54 00
        E 0 80 55 00
        E 0 80 60 00
        E 0 80 61 00
        E 60 90 1e 60
        E 0 90 62 60
        E 60 80 1e 00
        E 0 80 62 00
        E 60 90 1f 60
        E 0 90 56 60
        E 0 90 62 60
        E 60 80 1f 00
        E 0 80 56 00
        E 0 80 62 00
        E 60 90 1e 60
        E 0 90 62 60
        E 60 80 1e 00
        E 0 80 62 00
        E 60 90 18 60
        E 0 90 1b 60
        E 0 90 3d 60
        E 0 90 49 60
        E 0 90 54 60
        E 0 90 55 60
        E 0 90 60 60
        E 0 90 61 60
        E 60 80 18 00
        E 0 80 1b 00
        E 0 80 3d 00
        E 0 80 49 00
        E 0 80 54 00
        E 0 80 55 00
        E 0 80 60 00
        E 0 80 61 00
        E 60 90 1e 60
        E 0 90 62 60
        E 60 80 1e 00
        E 0 80 62 00
        E 60 90 1f 60
        E 0 90 56 60
        E 0 90 62 60
        E 60 80 1f 00
        E 0 80 56 00
        E 0 80 62 00
        E 60 90 1e 60
        E 0 90 62 60
        E 60 80 1e 00
        E 0 80 62 00
        E 60 80 78 00
        E 0 80 79 00
        E 0 80 7a 00
        E 0 80 7b 00
        E 0 80 7c 00
        E 0 90 18 60
        E 0 90 1b 60
        E 0 90 3d 60
        E 0 90 49 60
        E 0 90 54 60
        E 0 90 55 60
        E 0 90 60 60
        E 0 90 61 60
        E 60 80 18 00
        E 0 80 1b 00
        E 0 80 3d 00
        E 0 80 49 00
        E 0 80 54 00
        E 0 80 55 00
        E 0 80 60 00
        E 0 80 61 00
        E 60 90 1e 60
        E 0 90 62 60
        E 60 80 1e 00
        E 0 80 62 00
        E 60 90 1f 60
        E 0 90 56 60
        E 0 90 62 60
        E 60 80 1f 00
        E 0 80 56 00
        E 0 80 62 00
        E 60 90 1e 60
        E 0 90 62 60
        E 60 80 1e 00
        E 0 80 62 00
        E 60 90 18 60
        E 0 90 1b 60
        E 0 90 3d 60
        E 0 90 49 60
        E 0 90 54 60
        E 0 90 55 60
        E 0 90 60 60
        E 0 90 61 60
        E 60 80 18 00
        E 0 80 1b 00
        E 0 80 3d 00
        E 0 80 49 00
        E 0 80 54 00
        E 0 80 55 00
        E 0 80 60 00
        E 0 80 61 00
        E 60 90 1e 60
        E 0 90 62 60
        E 60 80 1e 00
        E 0 80 62 00
        E 60 90 1f 60
        E 0 90 56 60
        E 0 90 62 60
        E 60 80 1f 00
        E 0 80 56 00
        E 0 80 62 00
        E 60 90 1e 60
        E 0 90 62 60
        E 60 80 1e 00
        E 0 80 62 00
        E 60 90 18 60
        E 0 90 1b 60
        E 0 90 3d 60
        E 0 90 49 60
        E 0 90 54 60
        E 0 90 55 60
        E 0 90 60 60
        E 0 90 61 60
        E 60 80 18 00
        E 0 80 1b 00
        E 0 80 3d 00
        E 0 80 49 00
        E 0 80 54 00
        E 0 80 55 00
        E 0 80 60 00
        E 0 80 61 00
        E 60 90 1e 60
        E 0 90 62 60
        E 60 80 1e 00
        E 0 80 62 00
        E 60 90 1f 60
        E 0 90 56 60
        E 0 90 62 60
        E 60 80 1f 00
        E 0 80 56 00
        E 0 80 62 00
        E 60 90 1e 60
        E 0 90 62 60
        E 60 80 1e 00
        E 0 80 62 00
        E 60 90 18 60
        E 0 90 1b 60
        E 0 90 3d 60
        E 0 90 49 60
        E 0 90 54 60
        E 0 90 55 60
        E 0 90 60 60
        E 0 90 61 60
        E 60 80 18 00
        E 0 80 1b 00
        E 0 80 3d 00
        E 0 80 49 00
        E 0 80 54 00
        E 0 80 55 00
        E 0 80 60 00
        E 0 80 61 00
        E 60 90 1e 60
        E 0 90 62 60
        E 60 80 1e 00
        E 0 80 62 00
        E 60 90 1f 60
        E 0 90 56 60
        E 0 90 62 60
        E 60 80 1f 00
        E 0 80 56 00
        E 0 80 62 00
        E 60 90 1e 60
        E 0 90 62 60
        E 60 80 1e 00
        E 0 80 62 00
        E 60 90 18 60
        E 0 90 1b 60
        E 0 90 3d 60
        E 0 90 49 60
        E 0 90 54 60
        E 0 90 55 60
        E 0 90 60 60
        E 0 90 61 60
        E 60 80 18 00
        E 0 80 1b 00
        E 0 80 3d 00
        E 0 80 49 00
        E 0 80 54 00
        E 0 80 55 00
        E 0 80 60 00
        E 0 80 61 00
        E 60 90 1e 60
        E 0 90 62 60
        E 60 80 1e 00
        E 0 80 62 00
        E 60 90 1f 60
        E 0 90 56 60
        E 0 90 62 60
        E 60 80 1f 00
        E 0 80 56 00
        E 0 80 62 00
        E 60 90 1e 60
        E 0 90 62 60
        E 60 80 1e 00
        E 0 80 62 00
        E 60 90 18 60
        E 0 90 1b 60
        E 0 90 3d 60
        E 0 90 49 60
        E 0 90 54 60
        E 0 90 55 60
        E 0 90 60 60
        E 0 90 61 60
        E 60 80 18 00
        E 0 80 1b 00
        E 0 80 3d 00
        E 0 80 49 00
        E 0 80 54 00
        E 0 80 55 00
        E 0 80 60 00
        E 0 80 61 00
        E 60 90 1e 60
        E 0 90 62 60
        E 60 80 1e 00
        E 0 80 62 00
        E 60 90 1f 60
        E 0 90 56 60
        E 0 90 62 60
        E 60 80 1f 00
        E 0 80 56 00
        E 0 80 62 00
        E 60 90 1e 60
        E 0 90 62 60
        E 60 80 1e 00
        E 0 80 62 00
        E 60 90 18 60
        E 0 90 1b 60
        E 0 90 3d 60
        E 0 90 49 60
        E 0 90 54 60
        E 0 90 55 60
        E 0 90 60 60
        E 0 90 61 60
        E 60 80 18 00
        E 0 80 1b 00
        E 0 80 3d 00
        E 0 80 49 00
        E 0 80 54 00
        E 0 80 55 00
        E 0 80 60 00
        E 0 80 61 00
        E 60 90 1e 60
        E 0 90 62 60
        E 60 80 1e 00
        E 0 80 62 00
        E 60 90 1f 60
        E 0 90 56 60
        E 0 90 62 60
        E 60 80 1f 00
        E 0 80 56 00
        E 0 80 62 00
        E 60 90 1e 60
        E 0 90 62 60
        E 60 80 1e 00
        E 0 80 62 00
        E 60 90 18 60
        E 0 90 1b 60
        E 0 90 3d 60
        E 0 90 49 60
        E 0 90 54 60
        E 0 90 55 60
        E 0 90 60 60
        E 0 90 61 60
        E 60 80 18 00
        E 0 80 1b 00
        E 0 80 3d 00
        E 0 80 49 00
        E 0 80 54 00
        E 0 80 55 00
        E 0 80 60 00
        E 0 80 61 00
        E 60 90 1e 60
        E 0 90 62 60
        E 60 80 1e 00
        E 0 80 62 00
        E 60 90 1f 60
        E 0 90 56 60
        E 0 90 62 60
        E 60 80 1f 00
        E 0 80 56 00
        E 0 80 62 00
        E 60 90 1e 60
        E 0 90 62 60
        E 60 80 1e 00
        E 0 80 62 00
        E 60 90 18 60
        E 0 90 1b 60
        E 0 90 3d 60
        E 0 90 49 60
        E 0 90 54 60
        E 0 90 55 60
        E 0 90 60 60
        E 0 90 61 60
        E 60 80 18 00
        E 0 80 1b 00
        E 0 80 3d 00
        E 0 80 49 00
        E 0 80 54 00
        E 0 80 55 00
        E 0 80 60 00
        E 0 80 61 00
        E 60 90 1e 60
        E 0 90 62 60
        E 60 80 1e 00
        E 0 80 62 00
        E 60 90 1f 60
        E 0 90 56 60
        E 0 90 62 60
        E 60 80 1f 00
        E 0 80 56 00
        E 0 80 62 00
        E 60 90 1e 60
        E 0 90 62 60
        E 60 80 1e 00
        E 0 80 62 00
        E 60 90 18 60
        E 0 90 1b 60
        E 0 90 3d 60
        E 0 90 49 60
        E 0 90 54 60
        E 0 90 55 60
        E 0 90 60 60
        E 0 90 61 60
        E 60 80 18 00
        E 0 80 1b 00
        E 0 80 3d 00
        E 0 80 49 00
        E 0 80 54 00
        E 0 80 55 00
        E 0 80 60 00
        E 0 80 61 00
        E 60 90 1e 60
        E 0 90 62 60
        E 60 80 1e 00
        E 0 80 62 00
        E 60 90 1f 60
        E 0 90 56 60
        E 0 90 62 60
        E 60 80 1f 00
        E 0 80 56 00
        E 0 80 62 00
        E 60 90 1e 60
        E 0 90 62 60
        E 60 80 1e 00
        E 0 80 62 00
        E 60 90 18 60
        E 0 90 1b 60
        E 0 90 3d 60
        E 0 90 49 60
        E 0 90 54 60
        E 0 90 55 60
        E 0 90 60 60
        E 0 90 61 60
        E 60 80 18 00
        E 0 80 1b 00
        E 0 80 3d 00
        E 0 80 49 00
        E 0 80 54 00
        E 0 80 55 00
        E 0 80 60 00
        E 0 80 61 00
        E 60 90 1e 60
        E 0 90 62 60
        E 60 80 1e 00
        E 0 80 62 00
        E 60 90 1f 60
        E 0 90 56 60
        E 0 90 62 60
        E 60 80 1f 00
        E 0 80 56 00
        E 0 80 62 00
        E 60 90 1e 60
        E 0 90 62 60
        E 60 80 1e 00
        E 0 80 62 00
        E 60 90 18 60
        E 0 90 1b 60
        E 0 90 3d 60
        E 0 90 49 60
        E 0 90 54 60
        E 0 90 55 60
        E 0 90 60 60
        E 0 90 61 60
        E 60 80 18 00
        E 0 80 1b 00
        E 0 80 3d 00
        E 0 80 49 00
        E 0 80 54 00
        E 0 80 55 00
        E 0 80 60 00
        E 0 80 61 00
        E 60 90 1e 60
        E 0 90 62 60
        E 60 80 1e 00
        E 0 80 62 00
        E 60 90 1f 60
        E 0 90 56 60
        E 0 90 62 60
        E 60 80 1f 00
        E 0 80 56 00
        E 0 80 62 00
        E 60 90 1e 60
        E 0 90 62 60
        E 60 80 1e 00
        E 0 80 62 00
        E 60 90 18 60
        E 0 90 1b 60
        E 0 90 3d 60
        E 0 90 49 60
        E 0 90 54 60
        E 0 90 55 60
        E 0 90 60 60
        E 0 90 61 60
        E 60 80 18 00
        E 0 80 1b 00
        E 0 80 3d 00
        E 0 80 49 00
        E 0 80 54 00
        E 0 80 55 00
        E 0 80 60 00
        E 0 80 61 00
        E 60 90 1e 60
        E 0 90 62 60
        E 60 80 1e 00
        E 0 80 62 00
        E 60 90 1f 60
        E 0 90 56 60
        E 0 90 62 60
        E 60 80 1f 00
        E 0 80 56 00
        E 0 80 62 00
        E 60 90 1e 60
        E 0 90 62 60
        E 60 80 1e 00
        E 0 80 62 00
        E 60 90 18 60
        E 0 90 1b 60
        E 0 90 3d 60
        E 0 90 49 60
        E 0 90 54 60
        E 0 90 55 60
        E 0 90 60 60
        E 0 90 61 60
        E 60 80 18 00
        E 0 80 1b 00
        E 0 80 3d 00
        E 0 80 49 00
        E 0 80 54 00
        E 0 80 55 00
        E 0 80 60 00
        E 0 80 61 00
        E 60 90 1e 60
        E 0 90 62 60
        E 60 80 1e 00
        E 0 80 62 00
        E 60 90 1f 60
        E 0 90 56 60
        E 0 90 62 60
        E 60 80 1f 00
        E 0 80 56 00
        E 0 80 62 00
        E 60 90 1e 60
        E 0 90 62 60
        E 60 80 1e 00
        E 0 80 62 00
        E 60 90 18 60
        E 0 90 1b 60
        E 0 90 3d 60
        E 0 90 49 60
        E 0 90 54 60
        E 0 90 55 60
        E 0 90 60 60
        E 0 90 61 60
        E 60 80 18 00
        E 0 80 1b 00
        E 0 80 3d 00
        E 0 80 49 00
        E 0 80 54 00
        E 0 80 55 00
        E 0 80 60 00
        E 0 80 61 00
        E 60 90 1e 60
        E 0 90 62 60
        E 60 80 1e 00
        E 0 80 62 00
        E 60 90 1f 60
        E 0 90 56 60
        E 0 90 62 60
        E 60 80 1f 00
        E 0 80 56 00
        E 0 80 62 00
        E 60 90 1e 60
        E 0 90 62 60
        E 60 80 1e 00
        E 0 80 62 00
        E 60 90 18 60
        E 0 90 1b 60
        E 0 90 3d 60
        E 0 90 49 60
        E 0 90 54 60
        E 0 90 55 60
        E 0 90 60 60
        E 0 90 61 60
        E 60 80 18 00
        E 0 80 1b 00
        E 0 80 3d 00
        E 0 80 49 00
        E 0 80 54 00
        E 0 80 55 00
        E 0 80 60 00
        E 0 80 61 00
        E 60 90 1e 60
        E 0 90 62 60
        E 60 80 1e 00
        E 0 80 62 00
        E 60 90 1f 60
        E 0 90 56 60
        E 0 90 62 60
        E 60 80 1f 00
        E 0 80 56 00
        E 0 80 62 00
        E 60 90 1e 60
        E 0 90 62 60
        E 60 80 1e 00
        E 0 80 62 00
        E 60 90 18 60
        E 0 90 1b 60
        E 0 90 3d 60
        E 0 90 49 60
        E 0 90 54 60
        E 0 90 55 60
        E 0 90 60 60
        E 0 90 61 60
        E 60 80 18 00
        E 0 80 1b 00
        E 0 80 3d 00
        E 0 80 49 00
        E 0 80 54 00
        E 0 80 55 00
        E 0 80 60 00
        E 0 80 61 00
        E 60 90 1e 60
        E 0 90 62 60
        E 60 80 1e 00
        E 0 80 62 00
        E 60 90 1f 60
        E 0 90 56 60
        E 0 90 62 60
        E 60 80 1f 00
        E 0 80 56 00
        E 0 80 62 00
        E 60 90 1e 60
        E 0 90 62 60
        E 60 80 1e 00
        E 0 80 62 00
        E 60 90 18 60
        E 0 90 1b 60
        E 0 90 3d 60
        E 0 90 49 60
        E 0 90 54 60
        E 0 90 55 60
        E 0 90 60 60
        E 0 90 61 60
        E 60 80 18 00
        E 0 80 1b 00
        E 0 80 3d 00
        E 0 80 49 00
        E 0 80 54 00
        E 0 80 55 00
        E 0 80 60 00
        E 0 80 61 00
        E 60 90 1e 60
        E 0 90 62 60
        E 60 80 1e 00
        E 0 80 62 00
        E 60 90 1f 60
        E 0 90 56 60
        E 0 90 62 60
        E 60 80 1f 00
        E 0 80 56 00
        E 0 80 62 00
        E 60 90 1e 60
        E 0 90 62 60
        E 60 80 1e 00
        E 0 80 62 00
        E 60 90 18 60
        E 0 90 1b 60
        E 0 90 3d 60
        E 0 90 49 60
        E 0 90 54 60
        E 0 90 55 60
        E 0 90 60 60
        E 0 90 61 60
        E 60 80 18 00
        E 0 80 1b 00
        E 0 80 3d 00
        E 0 80 49 00
        E 0 80 54 00
        E 0 80 55 00
        E 0 80 60 00
        E 0 80 61 00
        E 60 90 1e 60
        E 0 90 62 60
        E 60 80 1e 00
        E 0 80 62 00
        E 60 90 1f 60
        E 0 90 56 60
        E 0 90 62 60
        E 60 80 1f 00
        E 0 80 56 00
        E 0 80 62 00
        E 60 90 1e 60
        E 0 90 62 60
        E 60 80 1e 00
        E 0 80 62 00
        E 60 90 18 60
        E 0 90 1b 60
        E 0 90 3d 60
        E 0 90 49 60
        E 0 90 54 60
        E 0 90 55 60
        E 0 90 60 60
        E 0 90 61 60
        E 60 80 18 00
        E 0 80 1b 00
        E 0 80 3d 00
        E 0 80 49 00
        E 0 80 54 00
        E 0 80 55 00
        E 0 80 60 00
        E 0 80 61 00
        E 60 90 1e 60
        E 0 90 62 60
        E 60 80 1e 00
        E 0 80 62 00
        E 60 90 1f 60
        E 0 90 56 60
        E 0 90 62 60
        E 60 80 1f 00
        E 0 80 56 00
        E 0 80 62 00
        E 60 90 1e 60
        E 0 90 62 60
        E 60 80 1e 00
        E 0 80 62 00
        E 60 90 18 60
        E 0 90 1b 60
        E 0 90 3d 60
        E 0 90 49 60
        E 0 90 54 60
        E 0 90 55 60
        E 0 90 60 60
        E 0 90 61 60
        E 60 80 18 00
        E 0 80 1b 00
        E 0 80 3d 00
        E 0 80 49 00
        E 0 80 54 00
        E 0 80 55 00
        E 0 80 60 00
        E 0 80 61 00
        E 60 90 1e 60
        E 0 90 62 60
        E 60 80 1e 00
        E 0 80 62 00
        E 60 90 1f 60
        E 0 90 56 60
        E 0 90 62 60
        E 60 80 1f 00
        E 0 80 56 00
        E 0 80 62 00
        E 60 90 1e 60
        E 0 90 62 60
        E 60 80 1e 00
        E 0 80 62 00
        E 60 90 18 60
        E 0 90 1b 60
        E 0 90 3d 60
        E 0 90 49 60
        E 0 90 54 60
        E 0 90 55 60
        E 0 90 60 60
        E 0 90 61 60
        E 60 80 18 00
        E 0 80 1b 00
        E 0 80 3d 00
        E 0 80 49 00
        E 0 80 54 00
        E 0 80 55 00
        E 0 80 60 00
        E 0 80 61 00
        E 60 90 1e 60
        E 0 90 62 60
        E 0 90 78 60
        E 0 90 79 60
        E 0 90 7a 60
        E 0 90 7b 60
        E 0 90 7c 60
        E 60 80 1e 00
        E 0 80 62 00
        E 60 90 1f 60
        E 0 90 56 60
        E 0 90 62 60
        E 60 80 1f 00
        E 0 80 56 00
        E 0 80 62 00
        E 60 90 1e 60
        E 0 90 62 60
        E 60 80 1e 00
        E 0 80 62 00
        E 60 90 18 60
        E 0 90 1b 60
        E 0 90 3d 60
        E 0 90 49 60
        E 0 90 54 60
        E 0 90 55 60
        E 0 90 60 60
        E 0 90 61 60
        E 60 80 18 00
        E 0 80 1b 00
        E 0 80 3d 00
        E 0 80 49 00
        E 0 80 54 00
        E 0 80 55 00
        E 0 80 60 00
        E 0 80 61 00
        E 60 90 1e 60
        E 0 90 62 60
        E 60 80 1e 00
        E 0 80 62 00
        E 60 90 1f 60
        E 0 90 56 60
        E 0 90 62 60
        E 60 80 1f 00
        E 0 80 56 00
        E 0 80 62 00
        E 60 90 1e 60
        E 0 90 62 60
        E 60 80 1e 00
        E 0 80 62 00
        E 60 90 18 60
        E 0 90 1b 60
        E 0 90 3d 60
        E 0 90 49 60
        E 0 90 54 60
        E 0 90 55 60
        E 0 90 60 60
        E 0 90 61 60
        E 60 80 18 00
        E 0 80 1b 00
        E 0 80 3d 00
        E 0 80 49 00
        E 0 80 54 00
        E 0 80 55 00
        E 0 80 60 00
        E 0 80 61 00
        E 60 90 1e 60
        E 0 90 62 60
        E 60 80 1e 00
        E 0 80 62 00
        E 60 90 1f 60
        E 0 90 56 60
        E 0 90 62 60
        E 60 80 1f 00
        E 0 80 56 00
        E 0 80 62 00
        E 60 90 1e 60
        E 0 90 62 60
        E 60 80 1e 00
        E 0 80 62 00
        E 60 80 78 00
        E 0 80 79 00
        E 0 80 7a 00
        E 0 80 7b 00
        E 0 80 7c 00
        E 0 90 18 60
        E 0 90 1b 60
        E 0 90 3d 60
        E 0 90 49 60
        E 0 90 54 60
        E 0 90 55 60
        E 0 90 60 60
        E 0 90 61 60
        E 60 80 18 00
        E 0 80 1b 00
        E 0 80 3d 00
        E 0 80 49 00
        E 0 80 54 00
        E 0 80 55 00
        E 0 80 60 00
        E 0 80 61 00
        E 60 90 1e 60
        E 0 90 62 60
        E 60 80 1e 00
        E 0 80 62 00
        E 60 90 1f 60
        E 0 90 56 60
        E 0 90 62 60
        E 60 80 1f 00
        E 0 80 56 00
        E 0 80 62 00
        E 60 90 1e 60
        E 0 90 62 60
        E 60 80 1e 00
        E 0 80 62 00
        E 60 90 18 60
        E 0 90 1b 60
        E 0 90 3d 60
        E 0 90 49 60
        E 0 90 54 60
        E 0 90 55 60
        E 0 90 60 60
        E 0 90 61 60
        E 60 80 18 00
        E 0 80 1b 00
        E 0 80 3d 00
        E 0 80 49 00
        E 0 80 54 00
        E 0 80 55 00
        E 0 80 60 00
        E 0 80 61 00
        E 60 90 1e 60
        E 0 90 62 60
        E 60 80 1e 00
        E 0 80 62 00
        E 60 90 1f 60
        E 0 90 56 60
        E 0 90 62 60
        E 60 80 1f 00
        E 0 80 56 00
        E 0 80 62 00
        E 60 90 1e 60
        E 0 90 62 60
        E 60 80 1e 00
        E 0 80 62 00
        E 60 90 18 60
        E 0 90 1b 60
        E 0 90 3d 60
        E 0 90 49 60
        E 0 90 54 60
        E 0 90 55 60
        E 0 90 60 60
        E 0 90 61 60
        E 60 80 18 00
        E 0 80 1b 00
        E 0 80 3d 00
        E 0 80 49 00
        E 0 80 54 00
        E 0 80 55 00
        E 0 80 60 00
        E 0 80 61 00
        E 60 90 1e 60
        E 0 90 62 60
        E 60 80 1e 00
        E 0 80 62 00
        E 60 90 1f 60
        E 0 90 56 60
        E 0 90 62 60
        E 60 80 1f 00
        E 0 80 56 00
        E 0 80 62 00
        E 60 90 1e 60
        E 0 90 62 60
        E 60 80 1e 00
        E 0 80 62 00
        E 60 90 18 60
        E 0 90 1b 60
        E 0 90 3d 60
        E 0 90 49 60
        E 0 90 54 60
        E 0 90 55 60
        E 0 90 60 60
        E 0 90 61 60
        E 60 80 18 00
        E 0 80 1b 00
        E 0 80 3d 00
        E 0 80 49 00
        E 0 80 54 00
        E 0 80 55 00
        E 0 80 60 00
        E 0 80 61 00
        E 60 90 1e 60
        E 0 90 62 60
        E 60 80 1e 00
        E 0 80 62 00
        E 60 90 1f 60
        E 0 90 56 60
        E 0 90 62 60
        E 60 80 1f 00
        E 0 80 56 00
        E 0 80 62 00
        E 60 90 1e 60
        E 0 90 62 60
        E 60 80 1e 00
        E 0 80 62 00
        E 60 90 18 60
        E 0 90 1b 60
        E 0 90 3d 60
        E 0 90 49 60
        E 0 90 54 60
        E 0 90 55 60
        E 0 90 60 60
        E 0 90 61 60
        E 60 80 18 00
        E 0 80 1b 00
        E 0 80 3d 00
        E 0 80 49 00
        E 0 80 54 00
        E 0 80 55 00
        E 0 80 60 00
        E 0 80 61 00
        E 60 90 1e 60
        E 0 90 62 60
        E 60 80 1e 00
        E 0 80 62 00
        E 60 90 1f 60
        E 0 90 56 60
        E 0 90 62 60
        E 60 80 1f 00
        E 0 80 56 00
        E 0 80 62 00
        E 60 90 1e 60
        E 0 90 62 60
        E 60 80 1e 00
        E 0 80 62 00
        E 60 90 18 60
        E 0 90 1b 60
        E 0 90 3d 60
        E 0 90 49 60
        E 0 90 54 60
        E 0 90 55 60
        E 0 90 60 60
        E 0 90 61 60
        E 60 80 18 00
        E 0 80 1b 00
        E 0 80 3d 00
        E 0 80 49 00
        E 0 80 54 00
        E 0 80 55 00
        E 0 80 60 00
        E 0 80 61 00
        E 60 90 1e 60
        E 0 90 62 60
        E 60 80 1e 00
        E 0 80 62 00
        E 60 90 1f 60
        E 0 90 56 60
        E 0 90 62 60
        E 60 80 1f 00
        E 0 80 56 00
        E 0 80 62 00
        E 60 90 1e 60
        E 0 90 62 60
        E 60 80 1e 00
        E 0 80 62 00
        E 60 90 18 60
        E 0 90 1b 60
        E 0 90 3d 60
        E 0 90 49 60
        E 0 90 54 60
        E 0 90 55 60
        E 0 90 60 60
        E 0 90 61 60
        E 60 80 18 00
        E 0 80 1b 00
        E 0 80 3d 00
        E 0 80 49 00
        E 0 80 54 00
        E 0 80 55 00
        E 0 80 60 00
        E 0 80 61 00
        E 60 90 1e 60
        E 0 90 62 60
        E 60 80 1e 00
        E 0 80 62 00
        E 60 90 1f 60
        E 0 90 56 60
        E 0 90 62 60
        E 60 80 1f 00
        E 0 80 56 00
        E 0 80 62 00
        E 60 90 1e 60
        E 0 90 62 60
        E 60 80 1e 00
        E 0 80 62 00
        E 60 90 18 60
        E 0 90 1b 60
        E 0 90 3d 60
        E 0 90 49 60
        E 0 90 54 60
        E 0 90 55 60
        E 0 90 60 60
        E 0 90 61 60
        E 60 80 18 00
        E 0 80 1b 00
        E 0 80 3d 00
        E 0 80 49 00
        E 0 80 54 00
        E 0 80 55 00
        E 0 80 60 00
        E 0 80 61 00
        E 60 90 1e 60
        E 0 90 62 60
        E 60 80 1e 00
        E 0 80 62 00
        E 60 90 1f 60
        E 0 90 56 60
        E 0 90 62 60
        E 60 80 1f 00
        E 0 80 56 00
        E 0 80 62 00
        E 60 90 1e 60
        E 0 90 62 60
        E 60 80 1e 00
        E 0 80 62 00
        E 60 90 18 60
        E 0 90 1b 60
        E 0 90 3d 60
        E 0 90 49 60
        E 0 90 54 60
        E 0 90 55 60
        E 0 90 60 60
        E 0 90 61 60
        E 60 80 18 00
        E 0 80 1b 00
        E 0 80 3d 00
        E 0 80 49 00
        E 0 80 54 00
        E 0 80 55 00
        E 0 80 60 00
        E 0 80 61 00
        E 60 90 1e 60
        E 0 90 62 60
        E 60 80 1e 00
        E 0 80 62 00
        E 60 90 1f 60
        E 0 90 56 60
        E 0 90 62 60
        E 60 80 1f 00
        E 0 80 56 00
        E 0 80 62 00
        E 60 90 1e 60
        E 0 90 62 60
        E 60 80 1e 00
        E 0 80 62 00
        E 60 90 18 60
        E 0 90 1b 60
        E 0 90 3d 60
        E 0 90 49 60
        E 0 90 54 60
        E 0 90 55 60
        E 0 90 60 60
        E 0 90 61 60
        E 60 80 18 00
        E 0 80 1b 00
        E 0 80 3d 00
        E 0 80 49 00
        E 0 80 54 00
        E 0 80 55 00
        E 0 80 60 00
        E 0 80 61 00
        E 60 90 1e 60
        E 0 90 62 60
        E 60 80 1e 00
        E 0 80 62 00
        E 60 90 1f 60
        E 0 90 56 60
        E 0 90 62 60
        E 60 80 1f 00
        E 0 80 56 00
        E 0 80 62 00
        E 60 90 1e 60
        E 0 90 62 60
        E 60 80 1e 00
        E 0 80 62 00
        E 60 90 18 60
        E 0 90 1b 60
        E 0 90 3d 60
        E 0 90 49 60
        E 0 90 54 60
        E 0 90 55 60
        E 0 90 60 60
        E 0 90 61 60
        E 60 80 18 00
        E 0 80 1b 00
        E 0 80 3d 00
        E 0 80 49 00
        E 0 80 54 00
        E 0 80 55 00
        E 0 80 60 00
        E 0 80 61 00
        E 60 90 1e 60
        E 0 90 62 60
        E 60 80 1e 00
        E 0 80 62 00
        E 60 90 1f 60
        E 0 90 56 60
        E 0 90 62 60
        E 60 80 1f 00
        E 0 80 56 00
        E 0 80 62 00
        E 60 90 1e 60
        E 0 90 62 60
        E 60 80 1e 00
        E 0 80 62 00
        E 60 90 18 60
        E 0 90 1b 60
        E 0 90 3d 60
        E 0 90 49 60
        E 0 90 54 60
        E 0 90 55 60
        E 0 90 60 60
        E 0 90 61 60
        E 60 80 18 00
        E 0 80 1b 00
        E 0 80 3d 00
        E 0 80 49 00
        E 0 80 54 00
        E 0 80 55 00
        E 0 80 60 00
        E 0 80 61 00
        E 60 90 1e 60
        E 0 90 62 60
        E 60 80 1e 00
        E 0 80 62 00
        E 60 90 1f 60
        E 0 90 56 60
        E 0 90 62 60
        E 60 80 1f 00
        E 0 80 56 00
        E 0 80 62 00
        E 60 90 1e 60
        E 0 90 62 60
        E 60 80 1e 00
        E 0 80 62 00
        E 60 90 18 60
        E 0 90 1b 60
        E 0 90 3d 60
        E 0 90 49 60
        E 0 90 54 60
        E 0 90 55 60
        E 0 90 60 60
        E 0 90 61 60
        E 60 80 18 00
        E 0 80 1b 00
        E 0 80 3d 00
        E 0 80 49 00
        E 0 80 54 00
        E 0 80 55 00
        E 0 80 60 00
        E 0 80 61 00
        E 60 90 1e 60
        E 0 90 62 60
        E 60 80 1e 00
        E 0 80 62 00
        E 60 90 1f 60
        E 0 90 56 60
        E 0 90 62 60
        E 60 80 1f 00
        E 0 80 56 00
        E 0 80 62 00
        E 60 90 1e 60
        E 0 90 62 60
        E 60 80 1e 00
        E 0 80 62 00
        E 60 90 18 60
        E 0 90 1b 60
        E 0 90 3d 60
        E 0 90 49 60
        E 0 90 54 60
        E 0 90 55 60
        E 0 90 60 60
        E 0 90 61 60
        E 60 80 18 00
        E 0 80 1b 00
        E 0 80 3d 00
        E 0 80 49 00
        E 0 80 54 00
        E 0 80 55 00
        E 0 80 60 00
        E 0 80 61 00
        E 60 90 1e 60
        E 0 90 62 60
        E 60 80 1e 00
        E 0 80 62 00
        E 60 90 1f 60
        E 0 90 56 60
        E 0 90 62 60
        E 60 80 1f 00
        E 0 80 56 00
        E 0 80 62 00
        E 60 90 1e 60
        E 0 90 62 60
        E 60 80 1e 00
        E 0 80 62 00
        E 60 90 18 60
        E 0 90 1b 60
        E 0 90 3d 60
        E 0 90 49 60
        E 0 90 54 60
        E 0 90 55 60
        E 0 90 60 60
        E 0 90 61 60
        E 60 80 18 00
        E 0 80 1b 00
        E 0 80 3d 00
        E 0 80 49 00
        E 0 80 54 00
        E 0 80 55 00
        E 0 80 60 00
        E 0 80 61 00
        E 60 90 1e 60
        E 0 90 62 60
        E 60 80 1e 00
        E 0 80 62 00
        E 60 90 1f 60
        E 0 90 56 60
        E 0 90 62 60
        E 60 80 1f 00
        E 0 80 56 00
        E 0 80 62 00
        E 60 90 1e 60
        E 0 90 62 60
        E 60 80 1e 00
        E 0 80 62 00
        E 60 90 18 60
        E 0 90 1b 60
        E 0 90 3d 60
        E 0 90 49 60
        E 0 90 54 60
        E 0 90 55 60
        E 0 90 60 60
        E 0 90 61 60
        E 60 80 18 00
        E 0 80 1b 00
        E 0 80 3d 00
        E 0 80 49 00
        E 0 80 54 00
        E 0 80 55 00
        E 0 80 60 00
        E 0 80 61 00
        E 60 90 1e 60
        E 0 90 62 60
        E 60 80 1e 00
        E 0 80 62 00
        E 60 90 1f 60
        E 0 90 56 60
        E 0 90 62 60
        E 60 80 1f 00
        E 0 80 56 00
        E 0 80 62 00
        E 60 90 1e 60
        E 0 90 62 60
        E 60 80 1e 00
        E 0 80 62 00
        E 60 90 18 60
        E 0 90 1b 60
        E 0 90 3d 60
        E 0 90 49 60
        E 0 90 54 60
        E 0 90 55 60
        E 0 90 60 60
        E 0 90 61 60
        E 60 80 18 00
        E 0 80 1b 00
        E 0 80 3d 00
        E 0 80 49 00
        E 0 80 54 00
        E 0 80 55 00
        E 0 80 60 00
        E 0 80 61 00
        E 60 90 1e 60
        E 0 90 62 60
        E 60 80 1e 00
        E 0 80 62 00
        E 60 90 1f 60
        E 0 90 56 60
        E 0 90 62 60
        E 60 80 1f 00
        E 0 80 56 00
        E 0 80 62 00
        E 60 90 1e 60
        E 0 90 62 60
        E 60 80 1e 00
        E 0 80 62 00
        E 60 90 18 60
        E 0 90 1b 60
        E 0 90 3d 60
        E 0 90 49 60
        E 0 90 54 60
        E 0 90 55 60
        E 0 90 60 60
        E 0 90 61 60
        E 60 80 18 00
        E 0 80 1b 00
        E 0 80 3d 00
        E 0 80 49 00
        E 0 80 54 00
        E 0 80 55 00
        E 0 80 60 00
        E 0 80 61 00
        E 60 90 1e 60
        E 0 90 62 60
        E 60 80 1e 00
        E 0 80 62 00
        E 60 90 1f 60
        E 0 90 56 60
        E 0 90 62 60
        E 60 80 1f 00
        E 0 80 56 00
        E 0 80 62 00
        E 60 90 1e 60
        E 0 90 62 60
        E 60 80 1e 00
        E 0 80 62 00
        E 60 90 18 60
        E 0 90 1b 60
        E 0 90 3d 60
        E 0 90 49 60
        E 0 90 54 60
        E 0 90 55 60
        E 0 90 60 60
        E 0 90 61 60
        E 60 80 18 00
        E 0 80 1b 00
        E 0 80 3d 00
        E 0 80 49 00
        E 0 80 54 00
        E 0 80 55 00
        E 0 80 60 00
        E 0 80 61 00
        E 60 90 1e 60
        E 0 90 62 60
        E 0 90 78 60
        E 0 90 79 60
        E 0 90 7a 60
        E 0 90 7b 60
        E 0 90 7c 60
        E 60 80 1e 00
        E 0 80 62 00
        E 60 90 1f 60
        E 0 90 56 60
        E 0 90 62 60
        E 60 80 1f 00
        E 0 80 56 00
        E 0 80 62 00
        E 60 90 1e 60
        E 0 90 62 60
        E 60 80 1e 00
        E 0 80 62 00
        E 60 90 18 60
        E 0 90 1b 60
        E 0 90 3d 60
        E 0 90 49 60
        E 0 90 54 60
        E 0 90 55 60
        E 0 90 60 60
        E 0 90 61 60
        E 60 80 18 00
        E 0 80 1b 00
        E 0 80 3d 00
        E 0 80 49 00
        E 0 80 54 00
        E 0 80 55 00
        E 0 80 60 00
        E 0 80 61 00
        E 60 90 1e 60
        E 0 90 62 60
        E 60 80 1e 00
        E 0 80 62 00
        E 60 90 1f 60
        E 0 90 56 60
        E 0 90 62 60
        E 60 80 1f 00
        E 0 80 56 00
        E 0 80 62 00
        E 60 90 1e 60
        E 0 90 62 60
        E 60 80 1e 00
        E 0 80 62 00
        E 60 90 18 60
        E 0 90 1b 60
        E 0 90 3d 60
        E 0 90 49 60
        E 0 90 54 60
        E 0 90 55 60
        E 0 90 60 60
        E 0 90 61 60
        E 60 80 18 00
        E 0 80 1b 00
        E 0 80 3d 00
        E 0 80 49 00
        E 0 80 54 00
        E 0 80 55 00
        E 0 80 60 00
        E 0 80 61 00
        E 60 90 1e 60
        E 0 90 62 60
        E 60 80 1e 00
        E 0 80 62 00
        E 60 90 1f 60
        E 0 90 56 60
        E 0 90 62 60
        E 60 80 1f 00
        E 0 80 56 00
        E 0 80 62 00
        E 60 90 1e 60
        E 0 90 62 60
        E 60 80 1e 00
        E 0 80 62 00
        E 60 80 78 00
        E 0 80 79 00
        E 0 80 7a 00
        E 0 80 7b 00
        E 0 80 7c 00
        E 0 90 18 60
        E 0 90 1b 60
        E 0 90 3d 60
        E 0 90 49 60
        E 0 90 54 60
        E 0 90 55 60
        E 0 90 60 60
        E 0 90 61 60
        E 60 80 18 00
        E 0 80 1b 00
        E 0 80 3d 00
        E 0 80 49 00
        E 0 80 54 00
        E 0 80 55 00
        E 0 80 60 00
        E 0 80 61 00
        E 60 90 1e 60
        E 0 90 62 60
        E 60 80 1e 00
        E 0 80 62 00
        E 60 90 1f 60
        E 0 90 56 60
        E 0 90 62 60
        E 60 80 1f 00
        E 0 80 56 00
        E 0 80 62 00
        E 60 90 1e 60
        E 0 90 62 60
        E 60 80 1e 00
        E 0 80 62 00
        E 60 90 18 60
        E 0 90 1b 60
        E 0 90 3d 60
        E 0 90 49 60
        E 0 90 54 60
        E 0 90 55 60
        E 0 90 60 60
        E 0 90 61 60
        E 60 80 18 00
        E 0 80 1b 00
        E 0 80 3d 00
        E 0 80 49 00
        E 0 80 54 00
        E 0 80 55 00
        E 0 80 60 00
        E 0 80 61 00
        E 60 90 1e 60
        E 0 90 62 60
        E 60 80 1e 00
        E 0 80 62 00
        E 60 90 1f 60
        E 0 90 56 60
        E 0 90 62 60
        E 60 80 1f 00
        E 0 80 56 00
        E 0 80 62 00
        E 60 90 1e 60
        E 0 90 62 60
        E 60 80 1e 00
        E 0 80 62 00
        E 60 90 18 60
        E 0 90 1b 60
        E 0 90 3d 60
        E 0 90 49 60
        E 0 90 54 60
        E 0 90 55 60
        E 0 90 60 60
        E 0 90 61 60
        E 60 80 18 00
        E 0 80 1b 00
        E 0 80 3d 00
        E 0 80 49 00
        E 0 80 54 00
        E 0 80 55 00
        E 0 80 60 00
        E 0 80 61 00
        E 60 90 1e 60
        E 0 90 62 60
        E 60 80 1e 00
        E 0 80 62 00
        E 60 90 1f 60
        E 0 90 56 60
        E 0 90 62 60
        E 60 80 1f 00
        E 0 80 56 00
        E 0 80 62 00
        E 60 90 1e 60
        E 0 90 62 60
        E 60 80 1e 00
        E 0 80 62 00
        E 60 90 18 60
        E 0 90 1b 60
        E 0 90 3d 60
        E 0 90 49 60
        E 0 90 54 60
        E 0 90 55 60
        E 0 90 60 60
        E 0 90 61 60
        E 60 80 18 00
        E 0 80 1b 00
        E 0 80 3d 00
        E 0 80 49 00
        E 0 80 54 00
        E 0 80 55 00
        E 0 80 60 00
        E 0 80 61 00
        E 60 90 1e 60
        E 0 90 62 60
        E 60 80 1e 00
        E 0 80 62 00
        E 60 90 1f 60
        E 0 90 56 60
        E 0 90 62 60
        E 60 80 1f 00
        E 0 80 56 00
        E 0 80 62 00
        E 60 90 1e 60
        E 0 90 62 60
        E 60 80 1e 00
        E 0 80 62 00
        E 60 90 18 60
        E 0 90 1b 60
        E 0 90 3d 60
        E 0 90 49 60
        E 0 90 54 60
        E 0 90 55 60
        E 0 90 60 60
        E 0 90 61 60
        E 60 80 18 00
        E 0 80 1b 00
        E 0 80 3d 00
        E 0 80 49 00
        E 0 80 54 00
        E 0 80 55 00
        E 0 80 60 00
        E 0 80 61 00
        E 60 90 1e 60
        E 0 90 62 60
        E 60 80 1e 00
        E 0 80 62 00
        E 60 90 1f 60
        E 0 90 56 60
        E 0 90 62 60
        E 60 80 1f 00
        E 0 80 56 00
        E 0 80 62 00
        E 60 90 1e 60
        E 0 90 62 60
        E 60 80 1e 00
        E 0 80 62 00
        E 60 90 18 60
        E 0 90 1b 60
        E 0 90 3d 60
        E 0 90 49 60
        E 0 90 54 60
        E 0 90 55 60
        E 0 90 60 60
        E 0 90 61 60
        E 60 80 18 00
        E 0 80 1b 00
        E 0 80 3d 00
        E 0 80 49 00
        E 0 80 54 00
        E 0 80 55 00
        E 0 80 60 00
        E 0 80 61 00
        E 60 90 1e 60
        E 0 90 62 60
        E 60 80 1e 00
        E 0 80 62 00
        E 60 90 1f 60
        E 0 90 56 60
        E 0 90 62 60
        E 60 80 1f 00
        E 0 80 56 00
        E 0 80 62 00
        E 60 90 1e 60
        E 0 90 62 60
        E 60 80 1e 00
        E 0 80 62 00
        E 60 90 18 60
        E 0 90 1b 60
        E 0 90 3d 60
        E 0 90 49 60
        E 0 90 54 60
        E 0 90 55 60
        E 0 90 60 60
        E 0 90 61 60
        E 60 80 18 00
        E 0 80 1b 00
        E 0 80 3d 00
        E 0 80 49 00
        E 0 80 54 00
        E 0 80 55 00
        E 0 80 60 00
        E 0 80 61 00
        E 60 90 1e 60
        E 0 90 62 60
        E 60 80 1e 00
        E 0 80 62 00
        E 60 90 1f 60
        E 0 90 56 60
        E 0 90 62 60
        E 60 80 1f 00
        E 0 80 56 00
        E 0 80 62 00
        E 60 90 1e 60
        E 0 90 62 60
        E 60 80 1e 00
        E 0 80 62 00
        E 60 90 18 60
        E 0 90 1b 60
        E 0 90 3d 60
        E 0 90 49 60
        E 0 90 54 60
        E 0 90 55 60
        E 0 90 60 60
        E 0 90 61 60
        E 60 80 18 00
        E 0 80 1b 00
        E 0 80 3d 00
        E 0 80 49 00
        E 0 80 54 00
        E 0 80 55 00
        E 0 80 60 00
        E 0 80 61 00
        E 60 90 1e 60
        E 0 90 62 60
        E 60 80 1e 00
        E 0 80 62 00
        E 60 90 1f 60
        E 0 90 56 60
        E 0 90 62 60
        E 60 80 1f 00
        E 0 80 56 00
        E 0 80 62 00
        E 60 90 1e 60
        E 0 90 62 60
        E 60 80 1e 00
        E 0 80 62 00
        E 60 90 18 60
        E 0 90 1b 60
        E 0 90 3d 60
        E 0 90 49 60
        E 0 90 54 60
        E 0 90 55 60
        E 0 90 60 60
        E 0 90 61 60
        E 60 80 18 00
        E 0 80 1b 00
        E 0 80 3d 00
        E 0 80 49 00
        E 0 80 54 00
        E 0 80 55 00
        E 0 80 60 00
        E 0 80 61 00
        E 60 90 1e 60
        E 0 90 62 60
        E 60 80 1e 00
        E 0 80 62 00
        E 60 90 1f 60
        E 0 90 56 60
        E 0 90 62 60
        E 60 80 1f 00
        E 0 80 56 00
        E 0 80 62 00
        E 60 90 1e 60
        E 0 90 62 60
        E 60 80 1e 00
        E 0 80 62 00
        E 60 90 18 60
        E 0 90 1b 60
        E 0 90 3d 60
        E 0 90 49 60
        E 0 90 54 60
        E 0 90 55 60
        E 0 90 60 60
        E 0 90 61 60
        E 60 80 18 00
        E 0 80 1b 00
        E 0 80 3d 00
        E 0 80 49 00
        E 0 80 54 00
        E 0 80 55 00
        E 0 80 60 00
        E 0 80 61 00
        E 60 90 1e 60
        E 0 90 62 60
        E 60 80 1e 00
        E 0 80 62 00
        E 60 90 1f 60
        E 0 90 56 60
        E 0 90 62 60
        E 60 80 1f 00
        E 0 80 56 00
        E 0 80 62 00
        E 60 90 1e 60
        E 0 90 62 60
        E 60 80 1e 00
        E 0 80 62 00
        E 60 90 18 60
        E 0 90 1b 60
        E 0 90 3d 60
        E 0 90 49 60
        E 0 90 54 60
        E 0 90 55 60
        E 0 90 60 60
        E 0 90 61 60
        E 60 80 18 00
        E 0 80 1b 00
        E 0 80 3d 00
        E 0 80 49 00
        E 0 80 54 00
        E 0 80 55 00
        E 0 80 60 00
        E 0 80 61 00
        E 60 90 1e 60
        E 0 90 62 60
        E 60 80 1e 00
        E 0 80 62 00
        E 60 90 1f 60
        E 0 90 56 60
        E 0 90 62 60
        E 60 80 1f 00
        E 0 80 56 00
        E 0 80 62 00
        E 60 90 1e 60
        E 0 90 62 60
        E 60 80 1e 00
        E 0 80 62 00
        E 60 90 18 60
        E 0 90 1b 60
        E 0 90 3d 60
        E 0 90 49 60
        E 0 90 54 60
        E 0 90 55 60
        E 0 90 60 60
        E 0 90 61 60
        E 60 80 18 00
        E 0 80 1b 00
        E 0 80 3d 00
        E 0 80 49 00
        E 0 80 54 00
        E 0 80 55 00
        E 0 80 60 00
        E 0 80 61 00
        E 60 90 1e 60
        E 0 90 62 60
        E 60 80 1e 00
        E 0 80 62 00
        E 60 90 1f 60
        E 0 90 56 60
        E 0 90 62 60
        E 60 80 1f 00
        E 0 80 56 00
        E 0 80 62 00
        E 60 90 1e 60
        E 0 90 62 60
        E 60 80 1e 00
        E 0 80 62 00
        E 60 90 18 60
        E 0 90 1b 60
        E 0 90 3d 60
        E 0 90 49 60
        E 0 90 54 60
        E 0 90 55 60
        E 0 90 60 60
        E 0 90 61 60
        E 60 80 18 00
        E 0 80 1b 00
        E 0 80 3d 00
        E 0 80 49 00
        E 0 80 54 00
        E 0 80 55 00
        E 0 80 60 00
        E 0 80 61 00
        E 60 90 1e 60
        E 0 90 62 60
        E 60 80 1e 00
        E 0 80 62 00
        E 60 90 1f 60
        E 0 90 56 60
        E 0 90 62 60
        E 60 80 1f 00
        E 0 80 56 00
        E 0 80 62 00
        E 60 90 1e 60
        E 0 90 62 60
        E 60 80 1e 00
        E 0 80 62 00
        E 60 90 18 60
        E 0 90 1b 60
        E 0 90 3d 60
        E 0 90 49 60
        E 0 90 54 60
        E 0 90 55 60
        E 0 90 60 60
        E 0 90 61 60
        E 60 80 18 00
        E 0 80 1b 00
        E 0 80 3d 00
        E 0 80 49 00
        E 0 80 54 00
        E 0 80 55 00
        E 0 80 60 00
        E 0 80 61 00
        E 60 90 1e 60
        E 0 90 62 60
        E 60 80 1e 00
        E 0 80 62 00
        E 60 90 1f 60
        E 0 90 56 60
        E 0 90 62 60
        E 60 80 1f 00
        E 0 80 56 00
        E 0 80 62 00
        E 60 90 1e 60
        E 0 90 62 60
        E 60 80 1e 00
        E 0 80 62 00
        <X 300 0
          /wFbaWRsZV9yZWFsdGltZV0=
        >
        E 240 b0 7b 00
        GUID {99C52F88-C54B-4CCD-B038-A5C950AC8E6E}
        IGNTEMPO 0 120.00000000 4 4
        SRCCOLOR 1163
        VELLANE 132 38 60
        COLORMAP "C:\Users\wejaa\AppData\Roaming\REAPER\Data\color_maps\rockband_drums.png"
        TEXTSTRINGFILE "Text Events List.txt"
        CFGEDITVIEW -3864.655497 130.847368 13 16 0 0 0
        CFGEDIT 1 1 0 0 0 1 1 1 1 1 1 0.12500000 -8 -8 1370 736 1 0 1 2 0.00000000 0 0 0 0 0.500000 1 0 1.000000 64
        KEYSNAP 0 0 "102034050607" 0 "Major"
        EVTFILTER 0 -1 -1 -1 -1 0 1 0 0 -1.00000000 -1.00000000
      >
    >
  >
  <TRACK '{5CC70B4F-E93A-40D8-B238-50DBB2E9D3F3}'
    NAME "01 ICH KOMME-drums-D minor-147bpm-440hz"
    PEAKCOL 16576
    BEAT -1
    AUTOMODE 0
    VOLPAN 1.18169906277985 0.00000000000000 -1.00000000000000 -1.00000000000000 1.00000000000000
    MUTESOLO 0 0 0
    IPHASE 0
    ISBUS 0 0
    BUSCOMP 0 0
    SHOWINMIX 1 0.666700 0.500000 1 0.500000 -1 -1 -1
    FREEMODE 0
    SEL 0
    REC 0 0 0 0 0 0 0
    VU 2
    TRACKHEIGHT 24 0
    INQ 0 0 0 0.5000000000 100 0 0 100
    NCHAN 2
    FX 1
    TRACKID {5CC70B4F-E93A-40D8-B238-50DBB2E9D3F3}
    PERF 0
    MIDIOUT -1
    MAINSEND 1 0
    <ITEM
      POSITION 2.67288720978649
      SNAPOFFS 0.00000000000000
      LENGTH 180.35043083900226
      LOOP 0
      ALLTAKES 0
      SEL 0
      FADEIN 1 0.000000 0.000000 1 0
      FADEOUT 1 0.000000 0.000000 1 0
      MUTE 0
      IGUID {17F1DFFD-4A18-4D42-A6BA-AE7929DD54D9}
      IID 27
      NAME "01 ICH KOMME-drums-D minor-147bpm-440hz.mp3"
      VOLPAN 1.000000 0.000000 1.000000 -1.000000
      SOFFS 0.00000000000000
      PLAYRATE 1.00000000000000 1 0.00000000000000 -1
      CHANMODE 0
      GUID {1C17B135-669E-41A5-A4C9-B7F2EC5975EB}
      <SOURCE MP3
        FILE "01 ICH KOMME-drums-D minor-147bpm-440hz.mp3" 1
      >
    >
  >
  <TRACK '{A596F8F0-76D0-4D3D-B007-6915E33AC1DC}'
    NAME "01 ICH KOMME-electric-D minor-147bpm-440hz"
    PEAKCOL 16576
    BEAT -1
    AUTOMODE 0
    VOLPAN 0.53526003901476 -0.06400000000000 -1.00000000000000 -1.00000000000000 1.00000000000000
    MUTESOLO 0 0 0
    IPHASE 0
    ISBUS 0 0
    BUSCOMP 0 0
    SHOWINMIX 1 0.666700 0.500000 1 0.500000 -1 -1 -1
    FREEMODE 0
    SEL 0
    REC 0 0 0 0 0 0 0
    VU 2
    TRACKHEIGHT 0 0
    INQ 0 0 0 0.5000000000 100 0 0 100
    NCHAN 2
    FX 1
    TRACKID {A596F8F0-76D0-4D3D-B007-6915E33AC1DC}
    PERF 0
    MIDIOUT -1
    MAINSEND 1 0
    <ITEM
      POSITION 2.67288720978649
      SNAPOFFS 0.00000000000000
      LENGTH 180.35043083900226
      LOOP 0
      ALLTAKES 0
      SEL 0
      FADEIN 1 0.000000 0.000000 1 0
      FADEOUT 1 0.000000 0.000000 1 0
      MUTE 0
      IGUID {4938912E-5231-4329-BA1F-F64CBA7D7B2E}
      IID 29
      NAME "01 ICH KOMME-electric-D minor-147bpm-440hz.mp3"
      VOLPAN 1.000000 0.000000 1.000000 -1.000000
      SOFFS 0.00000000000000
      PLAYRATE 1.00000000000000 1 0.00000000000000 -1
      CHANMODE 0
      GUID {C1129A91-9754-48CC-BE92-EB46B30AA561}
      <SOURCE MP3
        FILE "01 ICH KOMME-electric-D minor-147bpm-440hz.mp3" 1
      >
    >
  >
  <TRACK '{DC8DE2C2-859D-43E2-896A-93FA4D782009}'
    NAME "01 ICH KOMME-guitars-D minor-147bpm-440hz"
    PEAKCOL 16576
    BEAT -1
    AUTOMODE 0
    VOLPAN 1.00000000000000 0.00000000000000 -1.00000000000000 -1.00000000000000 1.00000000000000
    MUTESOLO 0 0 0
    IPHASE 0
    ISBUS 0 0
    BUSCOMP 0 0
    SHOWINMIX 1 0.666700 0.500000 1 0.500000 -1 -1 -1
    FREEMODE 0
    SEL 0
    REC 0 0 0 0 0 0 0
    VU 2
    TRACKHEIGHT 0 0
    INQ 0 0 0 0.5000000000 100 0 0 100
    NCHAN 2
    FX 1
    TRACKID {DC8DE2C2-859D-43E2-896A-93FA4D782009}
    PERF 0
    MIDIOUT -1
    MAINSEND 1 0
    <ITEM
      POSITION 2.67288720978649
      SNAPOFFS 0.00000000000000
      LENGTH 180.35043083900226
      LOOP 0
      ALLTAKES 0
      SEL 0
      FADEIN 1 0.000000 0.000000 1 0
      FADEOUT 1 0.000000 0.000000 1 0
      MUTE 0
      IGUID {5382E72D-BC74-40B4-A1C6-F535711E2DC5}
      IID 30
      NAME "01 ICH KOMME-guitars-D minor-147bpm-440hz.mp3"
      VOLPAN 1.000000 0.000000 1.000000 -1.000000
      SOFFS 0.00000000000000
      PLAYRATE 1.00000000000000 1 0.00000000000000 -1
      CHANMODE 0
      GUID {F5DB481B-DC6B-49AB-8103-18E16789735E}
      <SOURCE MP3
        FILE "01 ICH KOMME-guitars-D minor-147bpm-440hz.mp3" 1
      >
    >
  >
  <TRACK '{520DB48E-A815-46BB-9180-24A23C9B5DE6}'
    NAME "01 ICH KOMME-keys-D minor-147bpm-440hz"
    PEAKCOL 16576
    BEAT -1
    AUTOMODE 0
    VOLPAN 1.18169906277985 0.00000000000000 -1.00000000000000 -1.00000000000000 1.00000000000000
    MUTESOLO 0 0 0
    IPHASE 0
    ISBUS 0 0
    BUSCOMP 0 0
    SHOWINMIX 1 0.666700 0.500000 1 0.500000 -1 -1 -1
    FREEMODE 0
    SEL 0
    REC 0 0 0 0 0 0 0
    VU 2
    TRACKHEIGHT 0 0
    INQ 0 0 0 0.5000000000 100 0 0 100
    NCHAN 2
    FX 1
    TRACKID {520DB48E-A815-46BB-9180-24A23C9B5DE6}
    PERF 0
    MIDIOUT -1
    MAINSEND 1 0
    <ITEM
      POSITION 2.67288720978649
      SNAPOFFS 0.00000000000000
      LENGTH 180.35043083900226
      LOOP 0
      ALLTAKES 0
      SEL 0
      FADEIN 1 0.000000 0.000000 1 0
      FADEOUT 1 0.000000 0.000000 1 0
      MUTE 0
      IGUID {F4A6940E-5595-4677-A5E1-E0309B4D219B}
      IID 31
      NAME "01 ICH KOMME-keys-D minor-147bpm-440hz.mp3"
      VOLPAN 1.000000 0.000000 1.000000 -1.000000
      SOFFS 0.00000000000000
      PLAYRATE 1.00000000000000 1 0.00000000000000 -1
      CHANMODE 0
      GUID {605BD051-1505-462B-8C3C-568884A321B4}
      <SOURCE MP3
        FILE "01 ICH KOMME-keys-D minor-147bpm-440hz.mp3" 1
      >
    >
  >
  <TRACK '{318B6AC6-16C8-4530-ABAA-72B8DE34D09F}'
    NAME "01 ICH KOMME-backing_vocals-D minor-147bpm-440hz"
    PEAKCOL 16576
    BEAT -1
    AUTOMODE 0
    VOLPAN 1.39288064923275 0.00000000000000 -1.00000000000000 -1.00000000000000 1.00000000000000
    MUTESOLO 0 0 0
    IPHASE 0
    ISBUS 0 0
    BUSCOMP 0 0
    SHOWINMIX 1 0.666700 0.500000 1 0.500000 -1 -1 -1
    FREEMODE 0
    SEL 0
    REC 0 0 0 0 0 0 0
    VU 2
    TRACKHEIGHT 0 0
    INQ 0 0 0 0.5000000000 100 0 0 100
    NCHAN 2
    FX 1
    TRACKID {318B6AC6-16C8-4530-ABAA-72B8DE34D09F}
    PERF 0
    MIDIOUT -1
    MAINSEND 1 0
    <ITEM
      POSITION 2.67288720978649
      SNAPOFFS 0.00000000000000
      LENGTH 180.35043083900226
      LOOP 0
      ALLTAKES 0
      SEL 0
      FADEIN 1 0.000000 0.000000 1 0
      FADEOUT 1 0.000000 0.000000 1 0
      MUTE 0
      IGUID {A3552374-2C45-43EB-B6C4-C4D673CBF041}
      IID 33
      NAME "01 ICH KOMME-backing_vocals-D minor-147bpm-440hz.mp3"
      VOLPAN 1.000000 0.000000 1.000000 -1.000000
      SOFFS 0.00000000000000
      PLAYRATE 1.00000000000000 1 0.00000000000000 -1
      CHANMODE 0
      GUID {9A49A2A7-7A5A-4D07-9054-F9A09E539AFC}
      <SOURCE MP3
        FILE "01 ICH KOMME-backing_vocals-D minor-147bpm-440hz.mp3" 1
      >
    >
  >
  <TRACK '{70C3FE4D-3BC3-4146-95C4-8AC455A2D0F5}'
    NAME "PART BASS"
    PEAKCOL 16777471
    BEAT -1
    AUTOMODE 0
    VOLPAN 1.00000000000000 0.00000000000000 -1.00000000000000 -1.00000000000000 1.00000000000000
    MUTESOLO 0 0 0
    IPHASE 0
    ISBUS 0 0
    BUSCOMP 1 0
    SHOWINMIX 1 0.666700 0.500000 1 0.500000 -1 -1 -1
    FREEMODE 0
    SEL 0
    REC 0 4096 1 0 0 0 0
    TRACKHEIGHT 0 0
    INQ 0 0 0 0.5000000000 100 0 0 100
    NCHAN 2
    FX 1
    TRACKID {70C3FE4D-3BC3-4146-95C4-8AC455A2D0F5}
    PERF 0
    MIDIOUT -1
    <MIDINOTENAMES
      0 96 "EXPERT Green"
      0 97 "EXPERT Red"
      0 98 "EXPERT Yellow"
      0 99 "EXPERT Blue"
      0 100 "EXPERT Orange"
      0 84 "HARD Green"
      0 85 "HARD Red"
      0 86 "HARD Yellow"
      0 87 "HARD Blue"
      0 88 "HARD Orange"
      0 91 "----"
      0 116 "OVERDRIVE"
      0 40 "Left Hand Lowest"
      0 59 "Left Hand Highest"
      0 58 "-"
      0 57 "-"
      0 56 "-"
      0 55 "-"
      0 54 "-"
      0 53 "-"
      0 52 "-"
      0 51 "-"
      0 50 "-"
      0 49 "-"
      0 47 "-"
      0 48 "-"
      0 46 "-"
      0 45 "-"
      0 44 "-"
      0 43 "-"
      0 42 "-"
      0 41 "-"
      0 111 "----"
      0 72 "MEDIUM Green"
      0 73 "MEDIUM Red"
      0 74 "MEDIUM Yellow"
      0 75 "MEDIUM Blue"
      0 76 "MEDIUM Orange"
      0 60 "EASY Green"
      0 61 "EASY Red"
      0 62 "EASY Yellow"
      0 63 "EASY Blue"
      0 64 "EASY Orange"
      0 68 "----"
      0 80 "----"
      0 102 "Force HOPO Off"
      0 101 "Force HOPO On"
      0 120 "BRE (use all 5)"
      0 121 "BRE"
      0 122 "BRE"
      0 123 "BRE"
      0 124 "BRE"
      0 119 "----"
      0 90 "Force HOPO Off"
      0 89 "Force HOPO On"
      0 127 "Trill Marker"
      0 125 "----"
      0 103 "Solo Marker"
      0 126 "Strum Marker"
    >
    MAINSEND 1 0
    <FXCHAIN
      WNDRECT -1055 371 878 585
      SHOW 0
      LASTSEL 1
      DOCKED 0
      BYPASS 1 0
      <VST "VSTi: ReaSynth (Cockos)" "reasynth.dll" 0 ""
        eXNlcu9e7f4AAAAAAgAAAAEAAAAAAAAAAgAAAAAAAAA4AAAAAAAAAA==
        AAAAAO++rd4N8K3eAAAAAAAAAAAAAAAAAAAAADm0SD59y9s+tbSxOQ==
        AAAAALbz/T5VpCs6AAAAAAAAAAAAAAAAAAA=
      >
      FLOATPOS 0 0 0 0
      FXID {D4EC3C58-478E-4D1F-A0FC-2252BD344989}
      WAK 0
      BYPASS 0 0
      <VST "VSTi: RBN Preview (RBN)" "rbprev_vst64_beta.dll" 0 ""
        dnBicu5e7f4AAAAAAgAAAAEAAAAAAAAAAgAAAAAAAAAEAAAAAQAAAA==
        AAAAAAMAqgAAAAAAAAA=
      >
      FLOATPOS 32 32 659 497
      FXID {72D22271-4F4F-4081-90C4-66415E7AEC47}
      WAK 0
    >
    <ITEM
      POSITION 0.00000000000000
      SNAPOFFS 0.00000000000000
      LENGTH 183.05106848205489
      LOOP 0
      ALLTAKES 0
      SEL 0
      FADEIN 1 0.000000 0.000000 1 0
      FADEOUT 1 0.000000 0.000000 1 0
      MUTE 0
      IGUID {A1B24BBF-93B7-476C-BC6D-33F5621C633F}
      IID 8
      NAME "PART BASS"
      VOLPAN 1.000000 0.000000 1.000000 -1.000000
      SOFFS 0.00000000000000 0.00000000000000
      PLAYRATE 1.00000000000000 1 0.00000000000000 -65536
      CHANMODE 0
      GUID {344A7487-35C3-41F9-8B1E-12A4F3D7F336}
      <SOURCE MIDI
        HASDATA 1 480 QN
        POOLEDEVTS {CEE50451-0CAB-49AB-B05C-1E4A75DED65A}
        <X 0 0
          /wNQQVJUIEJBU1M=
        >
        <X 3840 0
          /wFbcGxheV0=
        >
        E 0 90 3d 60
        E 0 90 49 60
        E 0 90 55 60
        E 0 90 61 60
        E 60 80 3d 00
        E 0 80 49 00
        E 0 80 55 00
        E 0 80 61 00
        E 420 90 3d 60
        E 0 90 49 60
        E 0 90 55 60
        E 0 90 61 60
        E 60 80 3d 00
        E 0 80 49 00
        E 0 80 55 00
        E 0 80 61 00
        E 1620 90 49 60
        E 0 90 55 60
        E 0 90 61 60
        E 60 80 49 00
        E 0 80 55 00
        E 0 80 61 00
        E 420 90 55 60
        E 0 90 61 60
        E 60 80 55 00
        E 0 80 61 00
        E 180 90 3c 60
        E 0 90 48 60
        E 0 90 54 60
        E 0 90 60 60
        E 60 80 3c 00
        E 0 80 48 00
        E 0 80 54 00
        E 0 80 60 00
        E 180 90 54 60
        E 0 90 60 60
        E 60 80 54 00
        E 0 80 60 00
        E 180 90 49 60
        E 0 90 55 60
        E 0 90 61 60
        E 60 80 49 00
        E 0 80 55 00
        E 0 80 61 00
        E 420 90 3c 60
        E 0 90 48 60
        E 0 90 54 60
        E 0 90 60 60
        E 30 80 3c 00
        E 0 80 48 00
        E 0 80 54 00
        E 0 80 60 00
        E 90 90 60 60
        E 30 80 60 00
        E 90 90 56 60
        E 0 90 62 60
        E 30 80 56 00
        E 0 80 62 00
        E 90 90 62 60
        E 30 80 62 00
        E 90 90 3c 60
        E 0 90 48 60
        E 0 90 54 60
        E 0 90 60 60
        E 30 80 3c 00
        E 0 80 48 00
        E 0 80 54 00
        E 0 80 60 00
        E 89 90 60 60
        E 30 80 60 00
        E 90 90 56 60
        E 0 90 62 60
        E 30 80 56 00
        E 0 80 62 00
        E 90 90 62 60
        E 30 80 62 00
        E 91 90 3c 60
        E 0 90 48 60
        E 0 90 54 60
        E 0 90 60 60
        E 30 80 3c 00
        E 0 80 48 00
        E 0 80 54 00
        E 0 80 60 00
        E 89 90 60 60
        E 30 80 60 00
        E 90 90 56 60
        E 0 90 62 60
        E 30 80 56 00
        E 0 80 62 00
        E 90 90 62 60
        E 30 80 62 00
        E 91 90 3c 60
        E 0 90 48 60
        E 0 90 54 60
        E 0 90 60 60
        E 30 80 3c 00
        E 0 80 48 00
        E 0 80 54 00
        E 0 80 60 00
        E 89 90 60 60
        E 30 80 60 00
        E 90 90 56 60
        E 0 90 62 60
        E 30 80 56 00
        E 0 80 62 00
        E 90 90 62 60
        E 30 80 62 00
        E 91 90 3c 60
        E 0 90 48 60
        E 0 90 54 60
        E 0 90 60 60
        E 30 80 3c 00
        E 0 80 48 00
        E 0 80 54 00
        E 0 80 60 00
        E 90 90 60 60
        E 30 80 60 00
        E 90 90 56 60
        E 0 90 62 60
        E 30 80 56 00
        E 0 80 62 00
        E 90 90 62 60
        E 30 80 62 00
        E 90 90 3c 60
        E 0 90 48 60
        E 0 90 54 60
        E 0 90 60 60
        E 30 80 3c 00
        E 0 80 48 00
        E 0 80 54 00
        E 0 80 60 00
        E 89 90 60 60
        E 30 80 60 00
        E 90 90 56 60
        E 0 90 62 60
        E 30 80 56 00
        E 0 80 62 00
        E 90 90 62 60
        E 30 80 62 00
        E 91 90 3c 60
        E 0 90 48 60
        E 0 90 54 60
        E 0 90 60 60
        E 30 80 3c 00
        E 0 80 48 00
        E 0 80 54 00
        E 0 80 60 00
        E 89 90 60 60
        E 30 80 60 00
        E 90 90 56 60
        E 0 90 62 60
        E 30 80 56 00
        E 0 80 62 00
        E 90 90 62 60
        E 30 80 62 00
        E 91 90 3c 60
        E 0 90 48 60
        E 0 90 54 60
        E 0 90 60 60
        E 30 80 3c 00
        E 0 80 48 00
        E 0 80 54 00
        E 0 80 60 00
        E 89 90 60 60
        E 30 80 60 00
        E 90 90 56 60
        E 0 90 62 60
        E 30 80 56 00
        E 0 80 62 00
        E 90 90 62 60
        E 30 80 62 00
        E 91 90 3c 60
        E 0 90 48 60
        E 0 90 54 60
        E 0 90 60 60
        E 30 80 3c 00
        E 0 80 48 00
        E 0 80 54 00
        E 0 80 60 00
        E 90 90 60 60
        E 30 80 60 00
        E 90 90 56 60
        E 0 90 62 60
        E 30 80 56 00
        E 0 80 62 00
        E 90 90 62 60
        E 30 80 62 00
        E 90 90 3c 60
        E 0 90 48 60
        E 0 90 54 60
        E 0 90 60 60
        E 30 80 3c 00
        E 0 80 48 00
        E 0 80 54 00
        E 0 80 60 00
        E 89 90 60 60
        E 30 80 60 00
        E 90 90 56 60
        E 0 90 62 60
        E 30 80 56 00
        E 0 80 62 00
        E 90 90 62 60
        E 30 80 62 00
        E 91 90 3c 60
        E 0 90 48 60
        E 0 90 54 60
        E 0 90 60 60
        E 30 80 3c 00
        E 0 80 48 00
        E 0 80 54 00
        E 0 80 60 00
        E 89 90 60 60
        E 30 80 60 00
        E 90 90 56 60
        E 0 90 62 60
        E 30 80 56 00
        E 0 80 62 00
        E 90 90 62 60
        E 30 80 62 00
        E 91 90 3c 60
        E 0 90 48 60
        E 0 90 54 60
        E 0 90 60 60
        E 30 80 3c 00
        E 0 80 48 00
        E 0 80 54 00
        E 0 80 60 00
        E 89 90 60 60
        E 30 80 60 00
        E 90 90 56 60
        E 0 90 62 60
        E 30 80 56 00
        E 0 80 62 00
        E 90 90 62 60
        E 30 80 62 00
        E 91 90 3c 60
        E 0 90 48 60
        E 0 90 54 60
        E 0 90 60 60
        E 30 80 3c 00
        E 0 80 48 00
        E 0 80 54 00
        E 0 80 60 00
        E 90 90 60 60
        E 30 80 60 00
        E 90 90 56 60
        E 0 90 62 60
        E 30 80 56 00
        E 0 80 62 00
        E 90 90 62 60
        E 30 80 62 00
        E 90 90 3c 60
        E 0 90 48 60
        E 0 90 54 60
        E 0 90 60 60
        E 30 80 3c 00
        E 0 80 48 00
        E 0 80 54 00
        E 0 80 60 00
        E 89 90 60 60
        E 30 80 60 00
        E 90 90 56 60
        E 0 90 62 60
        E 30 80 56 00
        E 0 80 62 00
        E 90 90 62 60
        E 30 80 62 00
        E 91 90 3c 60
        E 0 90 48 60
        E 0 90 54 60
        E 0 90 60 60
        E 30 80 3c 00
        E 0 80 48 00
        E 0 80 54 00
        E 0 80 60 00
        E 89 90 60 60
        E 30 80 60 00
        E 90 90 56 60
        E 0 90 62 60
        E 30 80 56 00
        E 0 80 62 00
        E 90 90 62 60
        E 30 80 62 00
        E 91 90 3c 60
        E 0 90 48 60
        E 0 90 54 60
        E 0 90 60 60
        E 30 80 3c 00
        E 0 80 48 00
        E 0 80 54 00
        E 0 80 60 00
        E 89 90 60 60
        E 30 80 60 00
        E 90 90 56 60
        E 0 90 62 60
        E 30 80 56 00
        E 0 80 62 00
        E 90 90 62 60
        E 30 80 62 00
        E 91 90 3c 60
        E 0 90 48 60
        E 0 90 54 60
        E 0 90 60 60
        E 30 80 3c 00
        E 0 80 48 00
        E 0 80 54 00
        E 0 80 60 00
        E 90 90 60 60
        E 30 80 60 00
        E 90 90 56 60
        E 0 90 62 60
        E 30 80 56 00
        E 0 80 62 00
        E 90 90 62 60
        E 30 80 62 00
        E 90 90 3c 60
        E 0 90 48 60
        E 0 90 54 60
        E 0 90 60 60
        E 30 80 3c 00
        E 0 80 48 00
        E 0 80 54 00
        E 0 80 60 00
        E 89 90 60 60
        E 30 80 60 00
        E 90 90 56 60
        E 0 90 62 60
        E 30 80 56 00
        E 0 80 62 00
        E 90 90 62 60
        E 30 80 62 00
        E 91 90 3c 60
        E 0 90 48 60
        E 0 90 54 60
        E 0 90 60 60
        E 30 80 3c 00
        E 0 80 48 00
        E 0 80 54 00
        E 0 80 60 00
        E 89 90 60 60
        E 30 80 60 00
        E 90 90 56 60
        E 0 90 62 60
        E 30 80 56 00
        E 0 80 62 00
        E 90 90 62 60
        E 30 80 62 00
        E 91 90 48 60
        E 0 90 54 60
        E 0 90 60 60
        E 30 80 48 00
        E 0 80 54 00
        E 0 80 60 00
        E 89 90 60 60
        E 30 80 60 00
        E 90 90 56 60
        E 0 90 62 60
        E 30 80 56 00
        E 0 80 62 00
        E 90 90 62 60
        E 30 80 62 00
        E 91 90 3d 60
        E 0 90 49 60
        E 0 90 55 60
        E 0 90 61 60
        E 30 80 3d 00
        E 0 80 49 00
        E 0 80 55 00
        E 0 80 61 00
        E 90 90 61 60
        E 30 80 61 00
        E 90 90 57 60
        E 0 90 63 60
        E 30 80 57 00
        E 0 80 63 00
        E 90 90 63 60
        E 30 80 63 00
        E 90 90 3d 60
        E 0 90 49 60
        E 0 90 55 60
        E 0 90 61 60
        E 30 80 3d 00
        E 0 80 49 00
        E 0 80 55 00
        E 0 80 61 00
        E 89 90 61 60
        E 30 80 61 00
        E 90 90 57 60
        E 0 90 63 60
        E 30 80 57 00
        E 0 80 63 00
        E 90 90 63 60
        E 30 80 63 00
        E 91 90 3d 60
        E 0 90 49 60
        E 0 90 55 60
        E 0 90 61 60
        E 30 80 3d 00
        E 0 80 49 00
        E 0 80 55 00
        E 0 80 61 00
        E 89 90 61 60
        E 30 80 61 00
        E 90 90 57 60
        E 0 90 63 60
        E 30 80 57 00
        E 0 80 63 00
        E 90 90 63 60
        E 30 80 63 00
        E 91 90 49 60
        E 0 90 55 60
        E 0 90 61 60
        E 30 80 49 00
        E 0 80 55 00
        E 0 80 61 00
        E 89 90 61 60
        E 30 80 61 00
        E 90 90 57 60
        E 0 90 63 60
        E 30 80 57 00
        E 0 80 63 00
        E 90 90 63 60
        E 30 80 63 00
        E 91 90 3c 60
        E 0 90 48 60
        E 0 90 54 60
        E 0 90 60 60
        E 30 80 3c 00
        E 0 80 48 00
        E 0 80 54 00
        E 0 80 60 00
        E 90 90 60 60
        E 30 80 60 00
        E 90 90 56 60
        E 0 90 62 60
        E 30 80 56 00
        E 0 80 62 00
        E 90 90 62 60
        E 30 80 62 00
        E 90 90 3c 60
        E 0 90 48 60
        E 0 90 54 60
        E 0 90 60 60
        E 30 80 3c 00
        E 0 80 48 00
        E 0 80 54 00
        E 0 80 60 00
        E 89 90 60 60
        E 30 80 60 00
        E 90 90 56 60
        E 0 90 62 60
        E 30 80 56 00
        E 0 80 62 00
        E 90 90 62 60
        E 30 80 62 00
        E 91 90 3c 60
        E 0 90 48 60
        E 0 90 54 60
        E 0 90 60 60
        E 30 80 3c 00
        E 0 80 48 00
        E 0 80 54 00
        E 0 80 60 00
        E 89 90 60 60
        E 30 80 60 00
        E 90 90 56 60
        E 0 90 62 60
        E 30 80 56 00
        E 0 80 62 00
        E 90 90 62 60
        E 30 80 62 00
        E 91 90 3c 60
        E 0 90 48 60
        E 0 90 54 60
        E 0 90 60 60
        E 30 80 3c 00
        E 0 80 48 00
        E 0 80 54 00
        E 0 80 60 00
        E 89 90 60 60
        E 30 80 60 00
        E 90 90 56 60
        E 0 90 62 60
        E 30 80 56 00
        E 0 80 62 00
        E 90 90 62 60
        E 30 80 62 00
        E 91 90 3c 60
        E 0 90 48 60
        E 0 90 54 60
        E 0 90 60 60
        E 30 80 3c 00
        E 0 80 48 00
        E 0 80 54 00
        E 0 80 60 00
        E 90 90 60 60
        E 30 80 60 00
        E 90 90 55 60
        E 0 90 61 60
        E 30 80 55 00
        E 0 80 61 00
        E 90 90 61 60
        E 30 80 61 00
        E 90 90 3c 60
        E 0 90 48 60
        E 0 90 54 60
        E 0 90 60 60
        E 30 80 3c 00
        E 0 80 48 00
        E 0 80 54 00
        E 0 80 60 00
        E 89 90 60 60
        E 30 80 60 00
        E 90 90 55 60
        E 0 90 61 60
        E 30 80 55 00
        E 0 80 61 00
        E 90 90 61 60
        E 30 80 61 00
        E 91 90 3c 60
        E 0 90 48 60
        E 0 90 54 60
        E 0 90 60 60
        E 30 80 3c 00
        E 0 80 48 00
        E 0 80 54 00
        E 0 80 60 00
        E 89 90 60 60
        E 30 80 60 00
        E 90 90 55 60
        E 0 90 61 60
        E 30 80 55 00
        E 0 80 61 00
        E 90 90 61 60
        E 30 80 61 00
        E 91 90 3c 60
        E 0 90 48 60
        E 0 90 54 60
        E 0 90 60 60
        E 30 80 3c 00
        E 0 80 48 00
        E 0 80 54 00
        E 0 80 60 00
        E 89 90 60 60
        E 30 80 60 00
        E 90 90 55 60
        E 0 90 61 60
        E 30 80 55 00
        E 0 80 61 00
        E 90 90 61 60
        E 30 80 61 00
        E 91 90 3c 60
        E 0 90 48 60
        E 0 90 54 60
        E 0 90 60 60
        E 30 80 3c 00
        E 0 80 48 00
        E 0 80 54 00
        E 0 80 60 00
        E 90 90 60 60
        E 30 80 60 00
        E 90 90 55 60
        E 0 90 61 60
        E 30 80 55 00
        E 0 80 61 00
        E 90 90 61 60
        E 30 80 61 00
        E 90 90 3c 60
        E 0 90 48 60
        E 0 90 54 60
        E 0 90 60 60
        E 30 80 3c 00
        E 0 80 48 00
        E 0 80 54 00
        E 0 80 60 00
        E 89 90 60 60
        E 30 80 60 00
        E 90 90 55 60
        E 0 90 61 60
        E 30 80 55 00
        E 0 80 61 00
        E 90 90 61 60
        E 30 80 61 00
        E 91 90 3c 60
        E 0 90 48 60
        E 0 90 54 60
        E 0 90 60 60
        E 30 80 3c 00
        E 0 80 48 00
        E 0 80 54 00
        E 0 80 60 00
        E 89 90 60 60
        E 30 80 60 00
        E 90 90 55 60
        E 0 90 61 60
        E 30 80 55 00
        E 0 80 61 00
        E 90 90 61 60
        E 30 80 61 00
        E 91 90 3c 60
        E 0 90 48 60
        E 0 90 54 60
        E 0 90 60 60
        E 30 80 3c 00
        E 0 80 48 00
        E 0 80 54 00
        E 0 80 60 00
        E 89 90 60 60
        E 30 80 60 00
        E 90 90 55 60
        E 0 90 61 60
        E 30 80 55 00
        E 0 80 61 00
        E 90 90 61 60
        E 30 80 61 00
        E 91 90 3c 60
        E 0 90 48 60
        E 0 90 54 60
        E 0 90 60 60
        E 30 80 3c 00
        E 0 80 48 00
        E 0 80 54 00
        E 0 80 60 00
        E 90 90 60 60
        E 30 80 60 00
        E 90 90 55 60
        E 0 90 61 60
        E 30 80 55 00
        E 0 80 61 00
        E 90 90 61 60
        E 30 80 61 00
        E 90 90 3c 60
        E 0 90 48 60
        E 0 90 54 60
        E 0 90 60 60
        E 30 80 3c 00
        E 0 80 48 00
        E 0 80 54 00
        E 0 80 60 00
        E 89 90 60 60
        E 30 80 60 00
        E 90 90 55 60
        E 0 90 61 60
        E 30 80 55 00
        E 0 80 61 00
        E 90 90 61 60
        E 30 80 61 00
        E 91 90 3c 60
        E 0 90 48 60
        E 0 90 54 60
        E 0 90 60 60
        E 30 80 3c 00
        E 0 80 48 00
        E 0 80 54 00
        E 0 80 60 00
        E 89 90 60 60
        E 30 80 60 00
        E 90 90 55 60
        E 0 90 61 60
        E 30 80 55 00
        E 0 80 61 00
        E 90 90 61 60
        E 30 80 61 00
        E 91 90 3c 60
        E 0 90 48 60
        E 0 90 54 60
        E 0 90 60 60
        E 30 80 3c 00
        E 0 80 48 00
        E 0 80 54 00
        E 0 80 60 00
        E 89 90 60 60
        E 30 80 60 00
        E 90 90 55 60
        E 0 90 61 60
        E 30 80 55 00
        E 0 80 61 00
        E 90 90 61 60
        E 30 80 61 00
        E 91 90 3c 60
        E 0 90 48 60
        E 0 90 54 60
        E 0 90 60 60
        E 30 80 3c 00
        E 0 80 48 00
        E 0 80 54 00
        E 0 80 60 00
        E 89 90 60 60
        E 30 80 60 00
        E 90 90 55 60
        E 0 90 61 60
        E 30 80 55 00
        E 0 80 61 00
        E 90 90 61 60
        E 30 80 61 00
        E 91 90 3c 60
        E 0 90 48 60
        E 0 90 54 60
        E 0 90 60 60
        E 30 80 3c 00
        E 0 80 48 00
        E 0 80 54 00
        E 0 80 60 00
        E 89 90 60 60
        E 30 80 60 00
        E 90 90 55 60
        E 0 90 61 60
        E 30 80 55 00
        E 0 80 61 00
        E 90 90 61 60
        E 30 80 61 00
        E 91 90 3c 60
        E 0 90 48 60
        E 0 90 54 60
        E 0 90 60 60
        E 30 80 3c 00
        E 0 80 48 00
        E 0 80 54 00
        E 0 80 60 00
        E 89 90 60 60
        E 30 80 60 00
        E 90 90 55 60
        E 0 90 61 60
        E 30 80 55 00
        E 0 80 61 00
        E 90 90 61 60
        E 30 80 61 00
        E 91 90 3c 60
        E 0 90 48 60
        E 0 90 54 60
        E 0 90 60 60
        E 30 80 3c 00
        E 0 80 48 00
        E 0 80 54 00
        E 0 80 60 00
        E 89 90 60 60
        E 30 80 60 00
        E 90 90 55 60
        E 0 90 61 60
        E 30 80 55 00
        E 0 80 61 00
        E 90 90 61 60
        E 30 80 61 00
        E 2011 90 3c 60
        E 0 90 48 60
        E 0 90 54 60
        E 0 90 60 60
        E 60 80 3c 00
        E 0 80 48 00
        E 0 80 54 00
        E 0 80 60 00
        E 180 90 55 60
        E 0 90 61 60
        E 60 80 55 00
        E 0 80 61 00
        E 420 90 55 60
        E 0 90 61 60
        E 60 80 55 00
        E 0 80 61 00
        E 180 90 3c 60
        E 0 90 48 60
        E 0 90 54 60
        E 0 90 60 60
        E 60 80 3c 00
        E 0 80 48 00
        E 0 80 54 00
        E 0 80 60 00
        E 180 90 54 60
        E 0 90 60 60
        E 60 80 54 00
        E 0 80 60 00
        E 180 90 49 60
        E 0 90 55 60
        E 0 90 61 60
        E 60 80 49 00
        E 0 80 55 00
        E 0 80 61 00
        E 180 90 49 60
        E 0 90 55 60
        E 0 90 61 60
        E 60 80 49 00
        E 0 80 55 00
        E 0 80 61 00
        E 420 90 49 60
        E 0 90 55 60
        E 0 90 61 60
        E 60 80 49 00
        E 0 80 55 00
        E 0 80 61 00
        E 420 90 55 60
        E 0 90 61 60
        E 60 80 55 00
        E 0 80 61 00
        E 180 90 3c 60
        E 0 90 48 60
        E 0 90 54 60
        E 0 90 60 60
        E 60 80 3c 00
        E 0 80 48 00
        E 0 80 54 00
        E 0 80 60 00
        E 180 90 54 60
        E 0 90 60 60
        E 60 80 54 00
        E 0 80 60 00
        E 180 90 49 60
        E 0 90 55 60
        E 0 90 61 60
        E 60 80 49 00
        E 0 80 55 00
        E 0 80 61 00
        E 180 90 49 60
        E 0 90 55 60
        E 0 90 61 60
        E 60 80 49 00
        E 0 80 55 00
        E 0 80 61 00
        E 420 90 3e 60
        E 0 90 4a 60
        E 0 90 56 60
        E 0 90 62 60
        E 60 80 3e 00
        E 0 80 4a 00
        E 0 80 56 00
        E 0 80 62 00
        E 420 90 4a 60
        E 0 90 56 60
        E 0 90 62 60
        E 60 80 4a 00
        E 0 80 56 00
        E 0 80 62 00
        E 180 90 3e 60
        E 0 90 4a 60
        E 0 90 56 60
        E 0 90 62 60
        E 60 80 3e 00
        E 0 80 4a 00
        E 0 80 56 00
        E 0 80 62 00
        E 180 90 56 60
        E 0 90 62 60
        E 60 80 56 00
        E 0 80 62 00
        E 180 90 4b 60
        E 0 90 57 60
        E 0 90 63 60
        E 60 80 4b 00
        E 0 80 57 00
        E 0 80 63 00
        E 180 90 4b 60
        E 0 90 57 60
        E 0 90 63 60
        E 60 80 4b 00
        E 0 80 57 00
        E 0 80 63 00
        E 420 90 3e 60
        E 0 90 4a 60
        E 0 90 56 60
        E 0 90 62 60
        E 60 80 3e 00
        E 0 80 4a 00
        E 0 80 56 00
        E 0 80 62 00
        E 420 90 4a 60
        E 0 90 56 60
        E 0 90 62 60
        E 60 80 4a 00
        E 0 80 56 00
        E 0 80 62 00
        E 180 90 3e 60
        E 0 90 4a 60
        E 0 90 56 60
        E 0 90 62 60
        E 60 80 3e 00
        E 0 80 4a 00
        E 0 80 56 00
        E 0 80 62 00
        E 180 90 56 60
        E 0 90 62 60
        E 60 80 56 00
        E 0 80 62 00
        E 180 90 4b 60
        E 0 90 57 60
        E 0 90 63 60
        E 60 80 4b 00
        E 0 80 57 00
        E 0 80 63 00
        E 180 90 56 60
        E 0 90 62 60
        E 60 80 56 00
        E 0 80 62 00
        E 420 90 49 60
        E 0 90 55 60
        E 0 90 61 60
        E 60 80 49 00
        E 0 80 55 00
        E 0 80 61 00
        E 420 90 55 60
        E 0 90 61 60
        E 60 80 55 00
        E 0 80 61 00
        E 180 90 3c 60
        E 0 90 48 60
        E 0 90 54 60
        E 0 90 60 60
        E 60 80 3c 00
        E 0 80 48 00
        E 0 80 54 00
        E 0 80 60 00
        E 180 90 54 60
        E 0 90 60 60
        E 60 80 54 00
        E 0 80 60 00
        E 180 90 49 60
        E 0 90 55 60
        E 0 90 61 60
        E 60 80 49 00
        E 0 80 55 00
        E 0 80 61 00
        E 180 90 49 60
        E 0 90 55 60
        E 0 90 61 60
        E 60 80 49 00
        E 0 80 55 00
        E 0 80 61 00
        E 369 90 74 5b
        E 51 90 49 60
        E 0 90 55 60
        E 0 90 61 60
        E 60 80 49 00
        E 0 80 55 00
        E 0 80 61 00
        E 420 90 55 60
        E 0 90 61 60
        E 60 80 55 00
        E 0 80 61 00
        E 180 90 3c 60
        E 0 90 48 60
        E 0 90 54 60
        E 0 90 60 60
        E 60 80 3c 00
        E 0 80 48 00
        E 0 80 54 00
        E 0 80 60 00
        E 180 90 54 60
        E 0 90 60 60
        E 60 80 54 00
        E 0 80 60 00
        E 180 90 49 60
        E 0 90 55 60
        E 0 90 61 60
        E 60 80 49 00
        E 0 80 55 00
        E 0 80 61 00
        E 420 90 3c 60
        E 0 90 48 60
        E 0 90 54 60
        E 0 90 60 60
        E 30 80 3c 00
        E 0 80 48 00
        E 0 80 54 00
        E 0 80 60 00
        E 89 90 60 60
        E 30 80 60 00
        E 90 90 56 60
        E 0 90 62 60
        E 30 80 56 00
        E 0 80 62 00
        E 90 90 62 60
        E 30 80 62 00
        E 91 90 3c 60
        E 0 90 48 60
        E 0 90 54 60
        E 0 90 60 60
        E 30 80 3c 00
        E 0 80 48 00
        E 0 80 54 00
        E 0 80 60 00
        E 89 90 60 60
        E 30 80 60 00
        E 90 90 56 60
        E 0 90 62 60
        E 30 80 56 00
        E 0 80 62 00
        E 90 90 62 60
        E 30 80 62 00
        E 91 90 3c 60
        E 0 90 48 60
        E 0 90 54 60
        E 0 90 60 60
        E 30 80 3c 00
        E 0 80 48 00
        E 0 80 54 00
        E 0 80 60 00
        E 89 90 60 60
        E 30 80 60 00
        E 90 90 56 60
        E 0 90 62 60
        E 30 80 56 00
        E 0 80 62 00
        E 90 90 62 60
        E 30 80 62 00
        E 91 90 3c 60
        E 0 90 48 60
        E 0 90 54 60
        E 0 90 60 60
        E 30 80 3c 00
        E 0 80 48 00
        E 0 80 54 00
        E 0 80 60 00
        E 89 90 60 60
        E 30 80 60 00
        E 90 90 56 60
        E 0 90 62 60
        E 30 80 56 00
        E 0 80 62 00
        E 90 90 62 60
        E 30 80 62 00
        E 110 80 74 00
        E 1901 90 3c 60
        E 0 90 48 60
        E 0 90 54 60
        E 0 90 60 60
        E 1440 80 3c 00
        E 0 80 48 00
        E 360 80 54 00
        E 60 80 60 00
        E 60 90 3d 60
        E 0 90 49 60
        E 0 90 55 60
        E 0 90 61 60
        E 1440 80 3d 00
        E 0 80 49 00
        E 360 80 55 00
        E 60 80 61 00
        E 60 90 3c 60
        E 0 90 48 60
        E 0 90 54 60
        E 0 90 60 60
        E 40 80 3c 00
        E 0 80 48 00
        E 0 80 54 00
        E 0 80 60 00
        E 120 90 60 60
        E 40 80 60 00
        E 120 90 54 60
        E 0 90 60 60
        E 40 80 54 00
        E 0 80 60 00
        E 360 90 48 60
        E 0 90 54 60
        E 0 90 60 60
        E 60 80 48 00
        E 0 80 54 00
        E 0 80 60 00
        E 420 90 3c 60
        E 0 90 48 60
        E 0 90 54 60
        E 0 90 60 60
        E 60 80 3c 00
        E 0 80 48 00
        E 0 80 54 00
        E 0 80 60 00
        E 420 90 48 60
        E 0 90 54 60
        E 0 90 60 60
        E 60 80 48 00
        E 0 80 54 00
        E 0 80 60 00
        E 180 90 3c 60
        E 0 90 48 60
        E 0 90 54 60
        E 0 90 60 60
        E 40 80 3c 00
        E 0 80 48 00
        E 0 80 54 00
        E 0 80 60 00
        E 120 90 60 60
        E 40 80 60 00
        E 120 90 54 60
        E 0 90 60 60
        E 40 80 54 00
        E 0 80 60 00
        E 360 90 48 60
        E 0 90 54 60
        E 0 90 60 60
        E 60 80 48 00
        E 0 80 54 00
        E 0 80 60 00
        E 420 90 3c 60
        E 0 90 48 60
        E 0 90 54 60
        E 0 90 60 60
        E 60 80 3c 00
        E 0 80 48 00
        E 0 80 54 00
        E 0 80 60 00
        E 420 90 48 60
        E 0 90 54 60
        E 0 90 60 60
        E 60 80 48 00
        E 0 80 54 00
        E 0 80 60 00
        E 180 90 3c 60
        E 0 90 48 60
        E 0 90 54 60
        E 0 90 60 60
        E 40 80 3c 00
        E 0 80 48 00
        E 0 80 54 00
        E 0 80 60 00
        E 120 90 60 60
        E 40 80 60 00
        E 120 90 54 60
        E 0 90 60 60
        E 40 80 54 00
        E 0 80 60 00
        E 360 90 49 60
        E 0 90 55 60
        E 0 90 61 60
        E 60 80 49 00
        E 0 80 55 00
        E 0 80 61 00
        E 420 90 49 60
        E 0 90 55 60
        E 0 90 61 60
        E 60 80 49 00
        E 0 80 55 00
        E 0 80 61 00
        E 420 90 48 60
        E 0 90 54 60
        E 0 90 60 60
        E 60 80 48 00
        E 0 80 54 00
        E 0 80 60 00
        E 180 90 3c 60
        E 0 90 48 60
        E 0 90 54 60
        E 0 90 60 60
        E 40 80 3c 00
        E 0 80 48 00
        E 0 80 54 00
        E 0 80 60 00
        E 120 90 60 60
        E 40 80 60 00
        E 120 90 60 60
        E 40 80 60 00
        E 120 90 49 60
        E 0 90 55 60
        E 0 90 61 60
        E 40 80 49 00
        E 0 80 55 00
        E 0 80 61 00
        E 120 90 61 60
        E 40 80 61 00
        E 120 90 61 60
        E 40 80 61 00
        E 120 90 3c 60
        E 0 90 48 60
        E 0 90 54 60
        E 0 90 60 60
        E 40 80 3c 00
        E 0 80 48 00
        E 0 80 54 00
        E 0 80 60 00
        E 120 90 60 60
        E 40 80 60 00
        E 120 90 60 60
        E 40 80 60 00
        E 120 90 3c 60
        E 0 90 48 60
        E 0 90 54 60
        E 0 90 60 60
        E 40 80 3c 00
        E 0 80 48 00
        E 0 80 54 00
        E 0 80 60 00
        E 120 90 60 60
        E 40 80 60 00
        E 120 90 60 60
        E 40 80 60 00
        E 120 90 3c 60
        E 0 90 48 60
        E 0 90 54 60
        E 0 90 60 60
        E 40 80 3c 00
        E 0 80 48 00
        E 0 80 54 00
        E 0 80 60 00
        E 120 90 60 60
        E 40 80 60 00
        E 120 90 54 60
        E 0 90 60 60
        E 40 80 54 00
        E 0 80 60 00
        E 360 90 48 60
        E 0 90 54 60
        E 0 90 60 60
        E 60 80 48 00
        E 0 80 54 00
        E 0 80 60 00
        E 420 90 3c 60
        E 0 90 48 60
        E 0 90 54 60
        E 0 90 60 60
        E 60 80 3c 00
        E 0 80 48 00
        E 0 80 54 00
        E 0 80 60 00
        E 420 90 48 60
        E 0 90 54 60
        E 0 90 60 60
        E 60 80 48 00
        E 0 80 54 00
        E 0 80 60 00
        E 180 90 3c 60
        E 0 90 48 60
        E 0 90 54 60
        E 0 90 60 60
        E 40 80 3c 00
        E 0 80 48 00
        E 0 80 54 00
        E 0 80 60 00
        E 120 90 60 60
        E 40 80 60 00
        E 120 90 54 60
        E 0 90 60 60
        E 40 80 54 00
        E 0 80 60 00
        E 360 90 48 60
        E 0 90 54 60
        E 0 90 60 60
        E 60 80 48 00
        E 0 80 54 00
        E 0 80 60 00
        E 420 90 3c 60
        E 0 90 48 60
        E 0 90 54 60
        E 0 90 60 60
        E 60 80 3c 00
        E 0 80 48 00
        E 0 80 54 00
        E 0 80 60 00
        E 360 90 74 60
        E 60 90 48 60
        E 0 90 54 60
        E 0 90 60 60
        E 60 80 48 00
        E 0 80 54 00
        E 0 80 60 00
        E 180 90 3c 60
        E 0 90 48 60
        E 0 90 54 60
        E 0 90 60 60
        E 40 80 3c 00
        E 0 80 48 00
        E 0 80 54 00
        E 0 80 60 00
        E 120 90 60 60
        E 40 80 60 00
        E 120 90 54 60
        E 0 90 60 60
        E 40 80 54 00
        E 0 80 60 00
        E 360 90 49 60
        E 0 90 55 60
        E 0 90 61 60
        E 60 80 49 00
        E 0 80 55 00
        E 0 80 61 00
        E 420 90 49 60
        E 0 90 55 60
        E 0 90 61 60
        E 60 80 49 00
        E 0 80 55 00
        E 0 80 61 00
        E 420 90 48 60
        E 0 90 54 60
        E 0 90 60 60
        E 60 80 48 00
        E 0 80 54 00
        E 0 80 60 00
        E 180 90 3c 60
        E 0 90 48 60
        E 0 90 54 60
        E 0 90 60 60
        E 40 80 3c 00
        E 0 80 48 00
        E 0 80 54 00
        E 0 80 60 00
        E 120 90 60 60
        E 40 80 60 00
        E 120 90 60 60
        E 40 80 60 00
        E 120 90 49 60
        E 0 90 55 60
        E 0 90 61 60
        E 40 80 49 00
        E 0 80 55 00
        E 0 80 61 00
        E 120 90 61 60
        E 40 80 61 00
        E 120 90 61 60
        E 40 80 61 00
        E 120 90 3c 60
        E 0 90 48 60
        E 0 90 54 60
        E 0 90 60 60
        E 40 80 3c 00
        E 0 80 48 00
        E 0 80 54 00
        E 0 80 60 00
        E 120 90 60 60
        E 40 80 60 00
        E 120 90 60 60
        E 40 80 60 00
        E 120 90 3c 60
        E 0 90 48 60
        E 0 90 54 60
        E 0 90 60 60
        E 40 80 3c 00
        E 0 80 48 00
        E 0 80 54 00
        E 0 80 60 00
        E 120 90 60 60
        E 40 80 60 00
        E 120 90 60 60
        E 40 80 60 00
        E 120 90 3c 60
        E 0 90 48 60
        E 0 90 54 60
        E 0 90 60 60
        E 40 80 3c 00
        E 0 80 48 00
        E 0 80 54 00
        E 0 80 60 00
        E 120 90 60 60
        E 40 80 60 00
        E 120 90 54 60
        E 0 90 60 60
        E 40 80 54 00
        E 0 80 60 00
        E 120 80 74 00
        E 240 90 48 60
        E 0 90 54 60
        E 0 90 60 60
        E 60 80 48 00
        E 0 80 54 00
        E 0 80 60 00
        E 420 90 3c 60
        E 0 90 48 60
        E 0 90 54 60
        E 0 90 60 60
        E 60 80 3c 00
        E 0 80 48 00
        E 0 80 54 00
        E 0 80 60 00
        E 420 90 48 60
        E 0 90 54 60
        E 0 90 60 60
        E 60 80 48 00
        E 0 80 54 00
        E 0 80 60 00
        E 180 90 3c 60
        E 0 90 48 60
        E 0 90 54 60
        E 0 90 60 60
        E 40 80 3c 00
        E 0 80 48 00
        E 0 80 54 00
        E 0 80 60 00
        E 120 90 60 60
        E 40 80 60 00
        E 120 90 54 60
        E 0 90 60 60
        E 40 80 54 00
        E 0 80 60 00
        E 360 90 48 60
        E 0 90 54 60
        E 0 90 60 60
        E 60 80 48 00
        E 0 80 54 00
        E 0 80 60 00
        E 420 90 3c 60
        E 0 90 48 60
        E 0 90 54 60
        E 0 90 60 60
        E 60 80 3c 00
        E 0 80 48 00
        E 0 80 54 00
        E 0 80 60 00
        E 420 90 48 60
        E 0 90 54 60
        E 0 90 60 60
        E 60 80 48 00
        E 0 80 54 00
        E 0 80 60 00
        E 180 90 3c 60
        E 0 90 48 60
        E 0 90 54 60
        E 0 90 60 60
        E 40 80 3c 00
        E 0 80 48 00
        E 0 80 54 00
        E 0 80 60 00
        E 120 90 60 60
        E 40 80 60 00
        E 120 90 54 60
        E 0 90 60 60
        E 40 80 54 00
        E 0 80 60 00
        E 360 90 49 60
        E 0 90 55 60
        E 0 90 61 60
        E 60 80 49 00
        E 0 80 55 00
        E 0 80 61 00
        E 420 90 49 60
        E 0 90 55 60
        E 0 90 61 60
        E 60 80 49 00
        E 0 80 55 00
        E 0 80 61 00
        E 420 90 48 60
        E 0 90 54 60
        E 0 90 60 60
        E 60 80 48 00
        E 0 80 54 00
        E 0 80 60 00
        E 180 90 3c 60
        E 0 90 48 60
        E 0 90 54 60
        E 0 90 60 60
        E 40 80 3c 00
        E 0 80 48 00
        E 0 80 54 00
        E 0 80 60 00
        E 120 90 60 60
        E 40 80 60 00
        E 120 90 60 60
        E 40 80 60 00
        E 120 90 49 60
        E 0 90 55 60
        E 0 90 61 60
        E 40 80 49 00
        E 0 80 55 00
        E 0 80 61 00
        E 120 90 61 60
        E 40 80 61 00
        E 120 90 61 60
        E 40 80 61 00
        E 120 90 3c 60
        E 0 90 48 60
        E 0 90 54 60
        E 0 90 60 60
        E 40 80 3c 00
        E 0 80 48 00
        E 0 80 54 00
        E 0 80 60 00
        E 120 90 60 60
        E 40 80 60 00
        E 120 90 60 60
        E 40 80 60 00
        E 120 90 3c 60
        E 0 90 48 60
        E 0 90 54 60
        E 0 90 60 60
        E 40 80 3c 00
        E 0 80 48 00
        E 0 80 54 00
        E 0 80 60 00
        E 120 90 60 60
        E 40 80 60 00
        E 120 90 60 60
        E 40 80 60 00
        E 120 90 3c 60
        E 0 90 48 60
        E 0 90 54 60
        E 0 90 60 60
        E 40 80 3c 00
        E 0 80 48 00
        E 0 80 54 00
        E 0 80 60 00
        E 120 90 60 60
        E 40 80 60 00
        E 120 90 54 60
        E 0 90 60 60
        E 40 80 54 00
        E 0 80 60 00
        E 360 90 48 60
        E 0 90 54 60
        E 0 90 60 60
        E 60 80 48 00
        E 0 80 54 00
        E 0 80 60 00
        E 420 90 3c 60
        E 0 90 48 60
        E 0 90 54 60
        E 0 90 60 60
        E 60 80 3c 00
        E 0 80 48 00
        E 0 80 54 00
        E 0 80 60 00
        E 420 90 48 60
        E 0 90 54 60
        E 0 90 60 60
        E 60 80 48 00
        E 0 80 54 00
        E 0 80 60 00
        E 180 90 3c 60
        E 0 90 48 60
        E 0 90 54 60
        E 0 90 60 60
        E 40 80 3c 00
        E 0 80 48 00
        E 0 80 54 00
        E 0 80 60 00
        E 120 90 60 60
        E 40 80 60 00
        E 120 90 54 60
        E 0 90 60 60
        E 40 80 54 00
        E 0 80 60 00
        E 360 90 48 60
        E 0 90 54 60
        E 0 90 60 60
        E 60 80 48 00
        E 0 80 54 00
        E 0 80 60 00
        E 420 90 3c 60
        E 0 90 48 60
        E 0 90 54 60
        E 0 90 60 60
        E 60 80 3c 00
        E 0 80 48 00
        E 0 80 54 00
        E 0 80 60 00
        E 420 90 48 60
        E 0 90 54 60
        E 0 90 60 60
        E 60 80 48 00
        E 0 80 54 00
        E 0 80 60 00
        E 180 90 3c 60
        E 0 90 48 60
        E 0 90 54 60
        E 0 90 60 60
        E 40 80 3c 00
        E 0 80 48 00
        E 0 80 54 00
        E 0 80 60 00
        E 120 90 60 60
        E 40 80 60 00
        E 120 90 54 60
        E 0 90 60 60
        E 40 80 54 00
        E 0 80 60 00
        E 360 90 49 60
        E 0 90 55 60
        E 0 90 61 60
        E 60 80 49 00
        E 0 80 55 00
        E 0 80 61 00
        E 420 90 49 60
        E 0 90 55 60
        E 0 90 61 60
        E 60 80 49 00
        E 0 80 55 00
        E 0 80 61 00
        E 420 90 48 60
        E 0 90 54 60
        E 0 90 60 60
        E 60 80 48 00
        E 0 80 54 00
        E 0 80 60 00
        E 180 90 3c 60
        E 0 90 48 60
        E 0 90 54 60
        E 0 90 60 60
        E 40 80 3c 00
        E 0 80 48 00
        E 0 80 54 00
        E 0 80 60 00
        E 120 90 60 60
        E 40 80 60 00
        E 120 90 60 60
        E 40 80 60 00
        E 120 90 49 60
        E 0 90 55 60
        E 0 90 61 60
        E 40 80 49 00
        E 0 80 55 00
        E 0 80 61 00
        E 120 90 61 60
        E 40 80 61 00
        E 120 90 61 60
        E 40 80 61 00
        E 120 90 3c 60
        E 0 90 48 60
        E 0 90 54 60
        E 0 90 60 60
        E 40 80 3c 00
        E 0 80 48 00
        E 0 80 54 00
        E 0 80 60 00
        E 120 90 60 60
        E 40 80 60 00
        E 120 90 60 60
        E 40 80 60 00
        E 120 90 48 60
        E 0 90 54 60
        E 0 90 60 60
        E 40 80 48 00
        E 0 80 54 00
        E 0 80 60 00
        E 120 90 60 60
        E 40 80 60 00
        E 120 90 60 60
        E 40 80 60 00
        E 120 90 3e 60
        E 0 90 4a 60
        E 0 90 56 60
        E 0 90 62 60
        E 30 80 3e 00
        E 0 80 4a 00
        E 0 80 56 00
        E 0 80 62 00
        E 89 90 62 60
        E 30 80 62 00
        E 90 90 58 60
        E 0 90 64 60
        E 30 80 58 00
        E 0 80 64 00
        E 90 90 64 60
        E 30 80 64 00
        E 91 90 3e 60
        E 0 90 4a 60
        E 0 90 56 60
        E 0 90 62 60
        E 30 80 3e 00
        E 0 80 4a 00
        E 0 80 56 00
        E 0 80 62 00
        E 89 90 62 60
        E 30 80 62 00
        E 90 90 58 60
        E 0 90 64 60
        E 30 80 58 00
        E 0 80 64 00
        E 90 90 64 60
        E 30 80 64 00
        E 91 90 3e 60
        E 0 90 4a 60
        E 0 90 56 60
        E 0 90 62 60
        E 30 80 3e 00
        E 0 80 4a 00
        E 0 80 56 00
        E 0 80 62 00
        E 89 90 62 60
        E 30 80 62 00
        E 90 90 58 60
        E 0 90 64 60
        E 30 80 58 00
        E 0 80 64 00
        E 90 90 64 60
        E 30 80 64 00
        E 91 90 3e 60
        E 0 90 4a 60
        E 0 90 56 60
        E 0 90 62 60
        E 30 80 3e 00
        E 0 80 4a 00
        E 0 80 56 00
        E 0 80 62 00
        E 89 90 62 60
        E 30 80 62 00
        E 50 90 74 60
        E 40 90 58 60
        E 0 90 64 60
        E 30 80 58 00
        E 0 80 64 00
        E 90 90 64 60
        E 30 80 64 00
        E 91 90 3e 60
        E 0 90 4a 60
        E 0 90 56 60
        E 0 90 62 60
        E 30 80 3e 00
        E 0 80 4a 00
        E 0 80 56 00
        E 0 80 62 00
        E 89 90 62 60
        E 30 80 62 00
        E 90 90 58 60
        E 0 90 64 60
        E 30 80 58 00
        E 0 80 64 00
        E 90 90 64 60
        E 30 80 64 00
        E 91 90 3e 60
        E 0 90 4a 60
        E 0 90 56 60
        E 0 90 62 60
        E 30 80 3e 00
        E 0 80 4a 00
        E 0 80 56 00
        E 0 80 62 00
        E 89 90 62 60
        E 30 80 62 00
        E 90 90 58 60
        E 0 90 64 60
        E 30 80 58 00
        E 0 80 64 00
        E 90 90 64 60
        E 30 80 64 00
        E 91 90 3e 60
        E 0 90 4a 60
        E 0 90 56 60
        E 0 90 62 60
        E 30 80 3e 00
        E 0 80 4a 00
        E 0 80 56 00
        E 0 80 62 00
        E 89 90 62 60
        E 30 80 62 00
        E 7 80 74 00
        E 83 90 58 60
        E 0 90 64 60
        E 30 80 58 00
        E 0 80 64 00
        E 90 90 64 60
        E 30 80 64 00
        E 91 90 3e 60
        E 0 90 4a 60
        E 0 90 56 60
        E 0 90 62 60
        E 30 80 3e 00
        E 0 80 4a 00
        E 0 80 56 00
        E 0 80 62 00
        E 89 90 62 60
        E 30 80 62 00
        E 90 90 58 60
        E 0 90 64 60
        E 30 80 58 00
        E 0 80 64 00
        E 90 90 64 60
        E 30 80 64 00
        E 91 90 3e 60
        E 0 90 4a 60
        E 0 90 56 60
        E 0 90 62 60
        E 30 80 3e 00
        E 0 80 4a 00
        E 0 80 56 00
        E 0 80 62 00
        E 89 90 62 60
        E 30 80 62 00
        E 90 90 58 60
        E 0 90 64 60
        E 30 80 58 00
        E 0 80 64 00
        E 90 90 64 60
        E 30 80 64 00
        E 91 90 3e 60
        E 0 90 4a 60
        E 0 90 56 60
        E 0 90 62 60
        E 30 80 3e 00
        E 0 80 4a 00
        E 0 80 56 00
        E 0 80 62 00
        E 89 90 62 60
        E 30 80 62 00
        E 90 90 58 60
        E 0 90 64 60
        E 30 80 58 00
        E 0 80 64 00
        E 90 90 64 60
        E 30 80 64 00
        E 91 90 3e 60
        E 0 90 4a 60
        E 0 90 56 60
        E 0 90 62 60
        E 30 80 3e 00
        E 0 80 4a 00
        E 0 80 56 00
        E 0 80 62 00
        E 89 90 62 60
        E 30 80 62 00
        E 90 90 58 60
        E 0 90 64 60
        E 30 80 58 00
        E 0 80 64 00
        E 90 90 64 60
        E 30 80 64 00
        E 91 90 3e 60
        E 0 90 4a 60
        E 0 90 56 60
        E 0 90 62 60
        E 30 80 3e 00
        E 0 80 4a 00
        E 0 80 56 00
        E 0 80 62 00
        E 89 90 62 60
        E 30 80 62 00
        E 90 90 58 60
        E 0 90 64 60
        E 30 80 58 00
        E 0 80 64 00
        E 90 90 64 60
        E 30 80 64 00
        E 91 90 3e 60
        E 0 90 4a 60
        E 0 90 56 60
        E 0 90 62 60
        E 30 80 3e 00
        E 0 80 4a 00
        E 0 80 56 00
        E 0 80 62 00
        E 89 90 62 60
        E 30 80 62 00
        E 90 90 58 60
        E 0 90 64 60
        E 30 80 58 00
        E 0 80 64 00
        E 90 90 64 60
        E 30 80 64 00
        E 91 90 3e 60
        E 0 90 4a 60
        E 0 90 56 60
        E 0 90 62 60
        E 30 80 3e 00
        E 0 80 4a 00
        E 0 80 56 00
        E 0 80 62 00
        E 89 90 62 60
        E 30 80 62 00
        E 90 90 58 60
        E 0 90 64 60
        E 30 80 58 00
        E 0 80 64 00
        E 90 90 64 60
        E 30 80 64 00
        E 91 90 3e 60
        E 0 90 4a 60
        E 0 90 56 60
        E 0 90 62 60
        E 30 80 3e 00
        E 0 80 4a 00
        E 0 80 56 00
        E 0 80 62 00
        E 89 90 62 60
        E 30 80 62 00
        E 90 90 58 60
        E 0 90 64 60
        E 30 80 58 00
        E 0 80 64 00
        E 90 90 64 60
        E 30 80 64 00
        E 91 90 3e 60
        E 0 90 4a 60
        E 0 90 56 60
        E 0 90 62 60
        E 30 80 3e 00
        E 0 80 4a 00
        E 0 80 56 00
        E 0 80 62 00
        E 89 90 62 60
        E 30 80 62 00
        E 90 90 58 60
        E 0 90 64 60
        E 30 80 58 00
        E 0 80 64 00
        E 90 90 64 60
        E 30 80 64 00
        E 91 90 3e 60
        E 0 90 4a 60
        E 0 90 56 60
        E 0 90 62 60
        E 30 80 3e 00
        E 0 80 4a 00
        E 0 80 56 00
        E 0 80 62 00
        E 89 90 62 60
        E 30 80 62 00
        E 90 90 58 60
        E 0 90 64 60
        E 30 80 58 00
        E 0 80 64 00
        E 90 90 64 60
        E 30 80 64 00
        E 91 90 3e 60
        E 0 90 4a 60
        E 0 90 56 60
        E 0 90 62 60
        E 30 80 3e 00
        E 0 80 4a 00
        E 0 80 56 00
        E 0 80 62 00
        E 89 90 62 60
        E 30 80 62 00
        E 90 90 58 60
        E 0 90 64 60
        E 30 80 58 00
        E 0 80 64 00
        E 90 90 64 60
        E 30 80 64 00
        E 91 90 3e 60
        E 0 90 4a 60
        E 0 90 56 60
        E 0 90 62 60
        E 30 80 3e 00
        E 0 80 4a 00
        E 0 80 56 00
        E 0 80 62 00
        E 89 90 62 60
        E 30 80 62 00
        E 90 90 58 60
        E 0 90 64 60
        E 30 80 58 00
        E 0 80 64 00
        E 90 90 64 60
        E 30 80 64 00
        E 91 90 3e 60
        E 0 90 4a 60
        E 0 90 56 60
        E 0 90 62 60
        E 30 80 3e 00
        E 0 80 4a 00
        E 0 80 56 00
        E 0 80 62 00
        E 89 90 62 60
        E 30 80 62 00
        E 90 90 58 60
        E 0 90 64 60
        E 30 80 58 00
        E 0 80 64 00
        E 90 90 64 60
        E 30 80 64 00
        E 91 90 3e 60
        E 0 90 4a 60
        E 0 90 56 60
        E 0 90 62 60
        E 30 80 3e 00
        E 0 80 4a 00
        E 0 80 56 00
        E 0 80 62 00
        E 89 90 62 60
        E 30 80 62 00
        E 90 90 58 60
        E 0 90 64 60
        E 30 80 58 00
        E 0 80 64 00
        E 90 90 64 60
        E 30 80 64 00
        E 91 90 3e 60
        E 0 90 4a 60
        E 0 90 56 60
        E 0 90 62 60
        E 30 80 3e 00
        E 0 80 4a 00
        E 0 80 56 00
        E 0 80 62 00
        E 89 90 62 60
        E 30 80 62 00
        E 90 90 58 60
        E 0 90 64 60
        E 30 80 58 00
        E 0 80 64 00
        E 90 90 64 60
        E 30 80 64 00
        E 91 90 3e 60
        E 0 90 4a 60
        E 0 90 56 60
        E 0 90 62 60
        E 30 80 3e 00
        E 0 80 4a 00
        E 0 80 56 00
        E 0 80 62 00
        E 89 90 62 60
        E 30 80 62 00
        E 90 90 58 60
        E 0 90 64 60
        E 30 80 58 00
        E 0 80 64 00
        E 90 90 64 60
        E 30 80 64 00
        E 91 90 4a 60
        E 0 90 56 60
        E 0 90 62 60
        E 30 80 4a 00
        E 0 80 56 00
        E 0 80 62 00
        E 89 90 62 60
        E 30 80 62 00
        E 90 90 58 60
        E 0 90 64 60
        E 30 80 58 00
        E 0 80 64 00
        E 90 90 64 60
        E 30 80 64 00
        E 91 90 3d 60
        E 0 90 49 60
        E 0 90 55 60
        E 0 90 61 60
        E 30 80 3d 00
        E 0 80 49 00
        E 0 80 55 00
        E 0 80 61 00
        E 89 90 61 60
        E 30 80 61 00
        E 90 90 57 60
        E 0 90 63 60
        E 30 80 57 00
        E 0 80 63 00
        E 90 90 63 60
        E 30 80 63 00
        E 91 90 3d 60
        E 0 90 49 60
        E 0 90 55 60
        E 0 90 61 60
        E 30 80 3d 00
        E 0 80 49 00
        E 0 80 55 00
        E 0 80 61 00
        E 89 90 61 60
        E 30 80 61 00
        E 90 90 57 60
        E 0 90 63 60
        E 30 80 57 00
        E 0 80 63 00
        E 90 90 63 60
        E 30 80 63 00
        E 91 90 3d 60
        E 0 90 49 60
        E 0 90 55 60
        E 0 90 61 60
        E 30 80 3d 00
        E 0 80 49 00
        E 0 80 55 00
        E 0 80 61 00
        E 89 90 61 60
        E 30 80 61 00
        E 90 90 57 60
        E 0 90 63 60
        E 30 80 57 00
        E 0 80 63 00
        E 90 90 63 60
        E 30 80 63 00
        E 91 90 49 60
        E 0 90 55 60
        E 0 90 61 60
        E 30 80 49 00
        E 0 80 55 00
        E 0 80 61 00
        E 89 90 61 60
        E 30 80 61 00
        E 90 90 57 60
        E 0 90 63 60
        E 30 80 57 00
        E 0 80 63 00
        E 90 90 63 60
        E 30 80 63 00
        E 91 90 3e 60
        E 0 90 4a 60
        E 0 90 56 60
        E 0 90 62 60
        E 30 80 3e 00
        E 0 80 4a 00
        E 0 80 56 00
        E 0 80 62 00
        E 89 90 62 60
        E 30 80 62 00
        E 90 90 58 60
        E 0 90 64 60
        E 30 80 58 00
        E 0 80 64 00
        E 90 90 64 60
        E 30 80 64 00
        E 91 90 3e 60
        E 0 90 4a 60
        E 0 90 56 60
        E 0 90 62 60
        E 30 80 3e 00
        E 0 80 4a 00
        E 0 80 56 00
        E 0 80 62 00
        E 89 90 62 60
        E 30 80 62 00
        E 90 90 58 60
        E 0 90 64 60
        E 30 80 58 00
        E 0 80 64 00
        E 90 90 64 60
        E 30 80 64 00
        E 91 90 3e 60
        E 0 90 4a 60
        E 0 90 56 60
        E 0 90 62 60
        E 30 80 3e 00
        E 0 80 4a 00
        E 0 80 56 00
        E 0 80 62 00
        E 89 90 62 60
        E 30 80 62 00
        E 90 90 58 60
        E 0 90 64 60
        E 30 80 58 00
        E 0 80 64 00
        E 90 90 64 60
        E 30 80 64 00
        E 91 90 3e 60
        E 0 90 4a 60
        E 0 90 56 60
        E 0 90 62 60
        E 30 80 3e 00
        E 0 80 4a 00
        E 0 80 56 00
        E 0 80 62 00
        E 89 90 62 60
        E 30 80 62 00
        E 90 90 58 60
        E 0 90 64 60
        E 30 80 58 00
        E 0 80 64 00
        E 90 90 64 60
        E 30 80 64 00
        E 91 90 3e 60
        E 0 90 4a 60
        E 0 90 56 60
        E 0 90 62 60
        E 30 80 3e 00
        E 0 80 4a 00
        E 0 80 56 00
        E 0 80 62 00
        E 89 90 62 60
        E 30 80 62 00
        E 90 90 58 60
        E 0 90 64 60
        E 30 80 58 00
        E 0 80 64 00
        E 90 90 64 60
        E 30 80 64 00
        E 91 90 3e 60
        E 0 90 4a 60
        E 0 90 56 60
        E 0 90 62 60
        E 30 80 3e 00
        E 0 80 4a 00
        E 0 80 56 00
        E 0 80 62 00
        E 89 90 62 60
        E 30 80 62 00
        E 90 90 58 60
        E 0 90 64 60
        E 30 80 58 00
        E 0 80 64 00
        E 90 90 64 60
        E 30 80 64 00
        E 91 90 3e 60
        E 0 90 4a 60
        E 0 90 56 60
        E 0 90 62 60
        E 30 80 3e 00
        E 0 80 4a 00
        E 0 80 56 00
        E 0 80 62 00
        E 89 90 62 60
        E 30 80 62 00
        E 90 90 58 60
        E 0 90 64 60
        E 30 80 58 00
        E 0 80 64 00
        E 90 90 64 60
        E 30 80 64 00
        E 91 90 3e 60
        E 0 90 4a 60
        E 0 90 56 60
        E 0 90 62 60
        E 30 80 3e 00
        E 0 80 4a 00
        E 0 80 56 00
        E 0 80 62 00
        E 89 90 62 60
        E 30 80 62 00
        E 90 90 58 60
        E 0 90 64 60
        E 30 80 58 00
        E 0 80 64 00
        E 90 90 64 60
        E 30 80 64 00
        E 91 90 3e 60
        E 0 90 4a 60
        E 0 90 56 60
        E 0 90 62 60
        E 60 80 3e 00
        E 0 80 4a 00
        E 0 80 56 00
        E 0 80 62 00
        E 1228 90 74 60
        E 152 90 40 60
        E 0 90 4c 60
        E 0 90 58 60
        E 0 90 64 60
        E 40 80 40 00
        E 0 80 4c 00
        E 0 80 58 00
        E 0 80 64 00
        E 120 90 64 60
        E 40 80 64 00
        E 120 90 58 60
        E 0 90 64 60
        E 40 80 58 00
        E 0 80 64 00
        E 360 90 49 60
        E 0 90 55 60
        E 0 90 61 60
        E 60 80 49 00
        E 0 80 55 00
        E 0 80 61 00
        E 420 90 55 60
        E 0 90 61 60
        E 60 80 55 00
        E 0 80 61 00
        E 180 90 3c 60
        E 0 90 48 60
        E 0 90 54 60
        E 0 90 60 60
        E 60 80 3c 00
        E 0 80 48 00
        E 0 80 54 00
        E 0 80 60 00
        E 180 90 54 60
        E 0 90 60 60
        E 60 80 54 00
        E 0 80 60 00
        E 180 90 49 60
        E 0 90 55 60
        E 0 90 61 60
        E 60 80 49 00
        E 0 80 55 00
        E 0 80 61 00
        E 180 90 49 60
        E 0 90 55 60
        E 0 90 61 60
        E 60 80 49 00
        E 0 80 55 00
        E 0 80 61 00
        E 261 80 74 00
        E 159 90 49 60
        E 0 90 55 60
        E 0 90 61 60
        E 60 80 49 00
        E 0 80 55 00
        E 0 80 61 00
        E 420 90 55 60
        E 0 90 61 60
        E 60 80 55 00
        E 0 80 61 00
        E 180 90 3c 60
        E 0 90 48 60
        E 0 90 54 60
        E 0 90 60 60
        E 60 80 3c 00
        E 0 80 48 00
        E 0 80 54 00
        E 0 80 60 00
        E 180 90 54 60
        E 0 90 60 60
        E 60 80 54 00
        E 0 80 60 00
        E 180 90 49 60
        E 0 90 55 60
        E 0 90 61 60
        E 60 80 49 00
        E 0 80 55 00
        E 0 80 61 00
        E 180 90 49 60
        E 0 90 55 60
        E 0 90 61 60
        E 60 80 49 00
        E 0 80 55 00
        E 0 80 61 00
        E 420 90 3e 60
        E 0 90 4a 60
        E 0 90 56 60
        E 0 90 62 60
        E 60 80 3e 00
        E 0 80 4a 00
        E 0 80 56 00
        E 0 80 62 00
        E 420 90 4a 60
        E 0 90 56 60
        E 0 90 62 60
        E 60 80 4a 00
        E 0 80 56 00
        E 0 80 62 00
        E 180 90 3e 60
        E 0 90 4a 60
        E 0 90 56 60
        E 0 90 62 60
        E 60 80 3e 00
        E 0 80 4a 00
        E 0 80 56 00
        E 0 80 62 00
        E 180 90 56 60
        E 0 90 62 60
        E 60 80 56 00
        E 0 80 62 00
        E 180 90 4b 60
        E 0 90 57 60
        E 0 90 63 60
        E 60 80 4b 00
        E 0 80 57 00
        E 0 80 63 00
        E 180 90 4b 60
        E 0 90 57 60
        E 0 90 63 60
        E 60 80 4b 00
        E 0 80 57 00
        E 0 80 63 00
        E 420 90 3e 60
        E 0 90 4a 60
        E 0 90 56 60
        E 0 90 62 60
        E 60 80 3e 00
        E 0 80 4a 00
        E 0 80 56 00
        E 0 80 62 00
        E 420 90 4a 60
        E 0 90 56 60
        E 0 90 62 60
        E 60 80 4a 00
        E 0 80 56 00
        E 0 80 62 00
        E 180 90 3e 60
        E 0 90 4a 60
        E 0 90 56 60
        E 0 90 62 60
        E 60 80 3e 00
        E 0 80 4a 00
        E 0 80 56 00
        E 0 80 62 00
        E 180 90 56 60
        E 0 90 62 60
        E 60 80 56 00
        E 0 80 62 00
        E 180 90 4b 60
        E 0 90 57 60
        E 0 90 63 60
        E 60 80 4b 00
        E 0 80 57 00
        E 0 80 63 00
        E 180 90 56 60
        E 0 90 62 60
        E 60 80 56 00
        E 0 80 62 00
        E 420 90 49 60
        E 0 90 55 60
        E 0 90 61 60
        E 60 80 49 00
        E 0 80 55 00
        E 0 80 61 00
        E 420 90 55 60
        E 0 90 61 60
        E 60 80 55 00
        E 0 80 61 00
        E 180 90 3c 60
        E 0 90 48 60
        E 0 90 54 60
        E 0 90 60 60
        E 60 80 3c 00
        E 0 80 48 00
        E 0 80 54 00
        E 0 80 60 00
        E 180 90 54 60
        E 0 90 60 60
        E 60 80 54 00
        E 0 80 60 00
        E 180 90 49 60
        E 0 90 55 60
        E 0 90 61 60
        E 60 80 49 00
        E 0 80 55 00
        E 0 80 61 00
        E 180 90 49 60
        E 0 90 55 60
        E 0 90 61 60
        E 60 80 49 00
        E 0 80 55 00
        E 0 80 61 00
        E 420 90 49 60
        E 0 90 55 60
        E 0 90 61 60
        E 60 80 49 00
        E 0 80 55 00
        E 0 80 61 00
        E 420 90 55 60
        E 0 90 61 60
        E 60 80 55 00
        E 0 80 61 00
        E 180 90 3c 60
        E 0 90 48 60
        E 0 90 54 60
        E 0 90 60 60
        E 60 80 3c 00
        E 0 80 48 00
        E 0 80 54 00
        E 0 80 60 00
        E 180 90 54 60
        E 0 90 60 60
        E 60 80 54 00
        E 0 80 60 00
        E 180 90 49 60
        E 0 90 55 60
        E 0 90 61 60
        E 60 80 49 00
        E 0 80 55 00
        E 0 80 61 00
        E 180 90 55 60
        E 0 90 61 60
        E 60 80 55 00
        E 0 80 61 00
        E 180 90 3c 60
        E 0 90 48 60
        E 0 90 54 60
        E 0 90 60 60
        E 30 80 3c 00
        E 0 80 48 00
        E 0 80 54 00
        E 0 80 60 00
        E 90 90 60 60
        E 30 80 60 00
        E 90 90 56 60
        E 0 90 62 60
        E 30 80 56 00
        E 0 80 62 00
        E 90 90 62 60
        E 30 80 62 00
        E 90 90 3c 60
        E 0 90 48 60
        E 0 90 54 60
        E 0 90 60 60
        E 30 80 3c 00
        E 0 80 48 00
        E 0 80 54 00
        E 0 80 60 00
        E 89 90 60 60
        E 30 80 60 00
        E 90 90 56 60
        E 0 90 62 60
        E 30 80 56 00
        E 0 80 62 00
        E 90 90 62 60
        E 30 80 62 00
        E 91 90 3c 60
        E 0 90 48 60
        E 0 90 54 60
        E 0 90 60 60
        E 30 80 3c 00
        E 0 80 48 00
        E 0 80 54 00
        E 0 80 60 00
        E 89 90 60 60
        E 30 80 60 00
        E 90 90 56 60
        E 0 90 62 60
        E 30 80 56 00
        E 0 80 62 00
        E 90 90 62 60
        E 30 80 62 00
        E 91 90 3c 60
        E 0 90 48 60
        E 0 90 54 60
        E 0 90 60 60
        E 30 80 3c 00
        E 0 80 48 00
        E 0 80 54 00
        E 0 80 60 00
        E 89 90 60 60
        E 30 80 60 00
        E 90 90 56 60
        E 0 90 62 60
        E 30 80 56 00
        E 0 80 62 00
        E 90 90 62 60
        E 30 80 62 00
        E 1822 90 74 60
        E 189 90 3c 60
        E 0 90 48 60
        E 0 90 54 60
        E 0 90 60 60
        E 40 80 3c 00
        E 0 80 48 00
        E 0 80 54 00
        E 0 80 60 00
        E 120 90 60 60
        E 40 80 60 00
        E 120 90 54 60
        E 0 90 60 60
        E 40 80 54 00
        E 0 80 60 00
        E 360 90 48 60
        E 0 90 54 60
        E 0 90 60 60
        E 60 80 48 00
        E 0 80 54 00
        E 0 80 60 00
        E 420 90 3c 60
        E 0 90 48 60
        E 0 90 54 60
        E 0 90 60 60
        E 60 80 3c 00
        E 0 80 48 00
        E 0 80 54 00
        E 0 80 60 00
        E 420 90 48 60
        E 0 90 54 60
        E 0 90 60 60
        E 60 80 48 00
        E 0 80 54 00
        E 0 80 60 00
        E 180 90 3c 60
        E 0 90 48 60
        E 0 90 54 60
        E 0 90 60 60
        E 40 80 3c 00
        E 0 80 48 00
        E 0 80 54 00
        E 0 80 60 00
        E 120 90 60 60
        E 40 80 60 00
        E 120 90 54 60
        E 0 90 60 60
        E 40 80 54 00
        E 0 80 60 00
        E 282 80 74 00
        E 78 90 48 60
        E 0 90 54 60
        E 0 90 60 60
        E 60 80 48 00
        E 0 80 54 00
        E 0 80 60 00
        E 420 90 3c 60
        E 0 90 48 60
        E 0 90 54 60
        E 0 90 60 60
        E 60 80 3c 00
        E 0 80 48 00
        E 0 80 54 00
        E 0 80 60 00
        E 420 90 48 60
        E 0 90 54 60
        E 0 90 60 60
        E 60 80 48 00
        E 0 80 54 00
        E 0 80 60 00
        E 180 90 3c 60
        E 0 90 48 60
        E 0 90 54 60
        E 0 90 60 60
        E 40 80 3c 00
        E 0 80 48 00
        E 0 80 54 00
        E 0 80 60 00
        E 120 90 60 60
        E 40 80 60 00
        E 120 90 54 60
        E 0 90 60 60
        E 40 80 54 00
        E 0 80 60 00
        E 360 90 49 60
        E 0 90 55 60
        E 0 90 61 60
        E 60 80 49 00
        E 0 80 55 00
        E 0 80 61 00
        E 420 90 49 60
        E 0 90 55 60
        E 0 90 61 60
        E 60 80 49 00
        E 0 80 55 00
        E 0 80 61 00
        E 420 90 48 60
        E 0 90 54 60
        E 0 90 60 60
        E 60 80 48 00
        E 0 80 54 00
        E 0 80 60 00
        E 180 90 3c 60
        E 0 90 48 60
        E 0 90 54 60
        E 0 90 60 60
        E 40 80 3c 00
        E 0 80 48 00
        E 0 80 54 00
        E 0 80 60 00
        E 120 90 60 60
        E 40 80 60 00
        E 120 90 60 60
        E 40 80 60 00
        E 120 90 49 60
        E 0 90 55 60
        E 0 90 61 60
        E 40 80 49 00
        E 0 80 55 00
        E 0 80 61 00
        E 120 90 61 60
        E 40 80 61 00
        E 120 90 61 60
        E 40 80 61 00
        E 120 90 3c 60
        E 0 90 48 60
        E 0 90 54 60
        E 0 90 60 60
        E 40 80 3c 00
        E 0 80 48 00
        E 0 80 54 00
        E 0 80 60 00
        E 120 90 60 60
        E 40 80 60 00
        E 120 90 60 60
        E 40 80 60 00
        E 120 90 3c 60
        E 0 90 48 60
        E 0 90 54 60
        E 0 90 60 60
        E 40 80 3c 00
        E 0 80 48 00
        E 0 80 54 00
        E 0 80 60 00
        E 120 90 60 60
        E 40 80 60 00
        E 120 90 60 60
        E 40 80 60 00
        E 120 90 3c 60
        E 0 90 48 60
        E 0 90 54 60
        E 0 90 60 60
        E 40 80 3c 00
        E 0 80 48 00
        E 0 80 54 00
        E 0 80 60 00
        E 120 90 60 60
        E 40 80 60 00
        E 120 90 54 60
        E 0 90 60 60
        E 40 80 54 00
        E 0 80 60 00
        E 360 90 48 60
        E 0 90 54 60
        E 0 90 60 60
        E 60 80 48 00
        E 0 80 54 00
        E 0 80 60 00
        E 420 90 3c 60
        E 0 90 48 60
        E 0 90 54 60
        E 0 90 60 60
        E 60 80 3c 00
        E 0 80 48 00
        E 0 80 54 00
        E 0 80 60 00
        E 420 90 48 60
        E 0 90 54 60
        E 0 90 60 60
        E 60 80 48 00
        E 0 80 54 00
        E 0 80 60 00
        E 180 90 3c 60
        E 0 90 48 60
        E 0 90 54 60
        E 0 90 60 60
        E 40 80 3c 00
        E 0 80 48 00
        E 0 80 54 00
        E 0 80 60 00
        E 120 90 60 60
        E 40 80 60 00
        E 120 90 54 60
        E 0 90 60 60
        E 40 80 54 00
        E 0 80 60 00
        E 360 90 48 60
        E 0 90 54 60
        E 0 90 60 60
        E 60 80 48 00
        E 0 80 54 00
        E 0 80 60 00
        E 420 90 3c 60
        E 0 90 48 60
        E 0 90 54 60
        E 0 90 60 60
        E 60 80 3c 00
        E 0 80 48 00
        E 0 80 54 00
        E 0 80 60 00
        E 420 90 48 60
        E 0 90 54 60
        E 0 90 60 60
        E 60 80 48 00
        E 0 80 54 00
        E 0 80 60 00
        E 180 90 3c 60
        E 0 90 48 60
        E 0 90 54 60
        E 0 90 60 60
        E 40 80 3c 00
        E 0 80 48 00
        E 0 80 54 00
        E 0 80 60 00
        E 120 90 60 60
        E 40 80 60 00
        E 120 90 54 60
        E 0 90 60 60
        E 40 80 54 00
        E 0 80 60 00
        E 360 90 49 60
        E 0 90 55 60
        E 0 90 61 60
        E 60 80 49 00
        E 0 80 55 00
        E 0 80 61 00
        E 420 90 49 60
        E 0 90 55 60
        E 0 90 61 60
        E 60 80 49 00
        E 0 80 55 00
        E 0 80 61 00
        E 420 90 48 60
        E 0 90 54 60
        E 0 90 60 60
        E 60 80 48 00
        E 0 80 54 00
        E 0 80 60 00
        E 180 90 3c 60
        E 0 90 48 60
        E 0 90 54 60
        E 0 90 60 60
        E 40 80 3c 00
        E 0 80 48 00
        E 0 80 54 00
        E 0 80 60 00
        E 120 90 60 60
        E 40 80 60 00
        E 120 90 60 60
        E 40 80 60 00
        E 120 90 49 60
        E 0 90 55 60
        E 0 90 61 60
        E 40 80 49 00
        E 0 80 55 00
        E 0 80 61 00
        E 120 90 61 60
        E 40 80 61 00
        E 120 90 61 60
        E 40 80 61 00
        E 120 90 3c 60
        E 0 90 48 60
        E 0 90 54 60
        E 0 90 60 60
        E 40 80 3c 00
        E 0 80 48 00
        E 0 80 54 00
        E 0 80 60 00
        E 120 90 60 60
        E 40 80 60 00
        E 120 90 60 60
        E 40 80 60 00
        E 120 90 3c 60
        E 0 90 48 60
        E 0 90 54 60
        E 0 90 60 60
        E 40 80 3c 00
        E 0 80 48 00
        E 0 80 54 00
        E 0 80 60 00
        E 120 90 60 60
        E 40 80 60 00
        E 120 90 60 60
        E 40 80 60 00
        E 120 90 3c 60
        E 0 90 48 60
        E 0 90 54 60
        E 0 90 60 60
        E 40 80 3c 00
        E 0 80 48 00
        E 0 80 54 00
        E 0 80 60 00
        E 120 90 60 60
        E 40 80 60 00
        E 120 90 54 60
        E 0 90 60 60
        E 40 80 54 00
        E 0 80 60 00
        E 360 90 48 60
        E 0 90 54 60
        E 0 90 60 60
        E 60 80 48 00
        E 0 80 54 00
        E 0 80 60 00
        E 420 90 3c 60
        E 0 90 48 60
        E 0 90 54 60
        E 0 90 60 60
        E 60 80 3c 00
        E 0 80 48 00
        E 0 80 54 00
        E 0 80 60 00
        E 420 90 48 60
        E 0 90 54 60
        E 0 90 60 60
        E 60 80 48 00
        E 0 80 54 00
        E 0 80 60 00
        E 180 90 3c 60
        E 0 90 48 60
        E 0 90 54 60
        E 0 90 60 60
        E 40 80 3c 00
        E 0 80 48 00
        E 0 80 54 00
        E 0 80 60 00
        E 120 90 60 60
        E 40 80 60 00
        E 120 90 54 60
        E 0 90 60 60
        E 40 80 54 00
        E 0 80 60 00
        E 360 90 48 60
        E 0 90 54 60
        E 0 90 60 60
        E 60 80 48 00
        E 0 80 54 00
        E 0 80 60 00
        E 420 90 3c 60
        E 0 90 48 60
        E 0 90 54 60
        E 0 90 60 60
        E 60 80 3c 00
        E 0 80 48 00
        E 0 80 54 00
        E 0 80 60 00
        E 420 90 48 60
        E 0 90 54 60
        E 0 90 60 60
        E 60 80 48 00
        E 0 80 54 00
        E 0 80 60 00
        E 180 90 3c 60
        E 0 90 48 60
        E 0 90 54 60
        E 0 90 60 60
        E 40 80 3c 00
        E 0 80 48 00
        E 0 80 54 00
        E 0 80 60 00
        E 120 90 60 60
        E 40 80 60 00
        E 120 90 54 60
        E 0 90 60 60
        E 40 80 54 00
        E 0 80 60 00
        E 360 90 49 60
        E 0 90 55 60
        E 0 90 61 60
        E 60 80 49 00
        E 0 80 55 00
        E 0 80 61 00
        E 420 90 49 60
        E 0 90 55 60
        E 0 90 61 60
        E 60 80 49 00
        E 0 80 55 00
        E 0 80 61 00
        E 367 90 74 60
        E 53 90 48 60
        E 0 90 54 60
        E 0 90 60 60
        E 60 80 48 00
        E 0 80 54 00
        E 0 80 60 00
        E 180 90 3c 60
        E 0 90 48 60
        E 0 90 54 60
        E 0 90 60 60
        E 40 80 3c 00
        E 0 80 48 00
        E 0 80 54 00
        E 0 80 60 00
        E 120 90 60 60
        E 40 80 60 00
        E 120 90 60 60
        E 40 80 60 00
        E 120 90 49 60
        E 0 90 55 60
        E 0 90 61 60
        E 40 80 49 00
        E 0 80 55 00
        E 0 80 61 00
        E 120 90 61 60
        E 40 80 61 00
        E 120 90 61 60
        E 40 80 61 00
        E 120 90 3c 60
        E 0 90 48 60
        E 0 90 54 60
        E 0 90 60 60
        E 40 80 3c 00
        E 0 80 48 00
        E 0 80 54 00
        E 0 80 60 00
        E 120 90 60 60
        E 40 80 60 00
        E 120 90 60 60
        E 40 80 60 00
        E 120 90 3c 60
        E 0 90 48 60
        E 0 90 54 60
        E 0 90 60 60
        E 40 80 3c 00
        E 0 80 48 00
        E 0 80 54 00
        E 0 80 60 00
        E 120 90 60 60
        E 40 80 60 00
        E 120 90 60 60
        E 40 80 60 00
        E 120 90 3c 60
        E 0 90 48 60
        E 0 90 54 60
        E 0 90 60 60
        E 40 80 3c 00
        E 0 80 48 00
        E 0 80 54 00
        E 0 80 60 00
        E 120 90 60 60
        E 40 80 60 00
        E 120 90 54 60
        E 0 90 60 60
        E 40 80 54 00
        E 0 80 60 00
        E 178 80 74 00
        E 182 90 48 60
        E 0 90 54 60
        E 0 90 60 60
        E 60 80 48 00
        E 0 80 54 00
        E 0 80 60 00
        E 420 90 3c 60
        E 0 90 48 60
        E 0 90 54 60
        E 0 90 60 60
        E 60 80 3c 00
        E 0 80 48 00
        E 0 80 54 00
        E 0 80 60 00
        E 420 90 48 60
        E 0 90 54 60
        E 0 90 60 60
        E 60 80 48 00
        E 0 80 54 00
        E 0 80 60 00
        E 180 90 3c 60
        E 0 90 48 60
        E 0 90 54 60
        E 0 90 60 60
        E 40 80 3c 00
        E 0 80 48 00
        E 0 80 54 00
        E 0 80 60 00
        E 120 90 60 60
        E 40 80 60 00
        E 120 90 54 60
        E 0 90 60 60
        E 40 80 54 00
        E 0 80 60 00
        E 360 90 48 60
        E 0 90 54 60
        E 0 90 60 60
        E 60 80 48 00
        E 0 80 54 00
        E 0 80 60 00
        E 420 90 3c 60
        E 0 90 48 60
        E 0 90 54 60
        E 0 90 60 60
        E 60 80 3c 00
        E 0 80 48 00
        E 0 80 54 00
        E 0 80 60 00
        E 420 90 48 60
        E 0 90 54 60
        E 0 90 60 60
        E 60 80 48 00
        E 0 80 54 00
        E 0 80 60 00
        E 180 90 3c 60
        E 0 90 48 60
        E 0 90 54 60
        E 0 90 60 60
        E 40 80 3c 00
        E 0 80 48 00
        E 0 80 54 00
        E 0 80 60 00
        E 120 90 60 60
        E 40 80 60 00
        E 120 90 54 60
        E 0 90 60 60
        E 40 80 54 00
        E 0 80 60 00
        E 360 90 49 60
        E 0 90 55 60
        E 0 90 61 60
        E 60 80 49 00
        E 0 80 55 00
        E 0 80 61 00
        E 420 90 49 60
        E 0 90 55 60
        E 0 90 61 60
        E 60 80 49 00
        E 0 80 55 00
        E 0 80 61 00
        E 420 90 48 60
        E 0 90 54 60
        E 0 90 60 60
        E 60 80 48 00
        E 0 80 54 00
        E 0 80 60 00
        E 180 90 3c 60
        E 0 90 48 60
        E 0 90 54 60
        E 0 90 60 60
        E 40 80 3c 00
        E 0 80 48 00
        E 0 80 54 00
        E 0 80 60 00
        E 120 90 60 60
        E 40 80 60 00
        E 120 90 60 60
        E 40 80 60 00
        E 120 90 49 60
        E 0 90 55 60
        E 0 90 61 60
        E 40 80 49 00
        E 0 80 55 00
        E 0 80 61 00
        E 120 90 61 60
        E 40 80 61 00
        E 120 90 61 60
        E 40 80 61 00
        E 120 90 3c 60
        E 0 90 48 60
        E 0 90 54 60
        E 0 90 60 60
        E 40 80 3c 00
        E 0 80 48 00
        E 0 80 54 00
        E 0 80 60 00
        E 120 90 60 60
        E 40 80 60 00
        E 120 90 60 60
        E 40 80 60 00
        E 120 90 3c 60
        E 0 90 48 60
        E 0 90 54 60
        E 0 90 60 60
        E 40 80 3c 00
        E 0 80 48 00
        E 0 80 54 00
        E 0 80 60 00
        E 120 90 60 60
        E 40 80 60 00
        E 120 90 60 60
        E 40 80 60 00
        E 120 90 3c 60
        E 0 90 48 60
        E 0 90 54 60
        E 0 90 60 60
        E 1440 80 3c 00
        E 0 80 48 00
        E 360 80 54 00
        E 60 80 60 00
        E 60 90 3d 60
        E 0 90 49 60
        E 0 90 55 60
        E 0 90 61 60
        E 1860 80 3d 00
        E 0 80 49 00
        E 0 80 55 00
        E 0 80 61 00
        <X 480 0
          /wFbaWRsZV0=
        >
        <X 10620 0
          /wFbcGxheV0=
        >
        E 310 90 74 60
        E 170 90 3c 60
        E 0 90 48 60
        E 0 90 54 60
        E 0 90 60 60
        E 1440 80 3c 00
        E 0 80 48 00
        E 360 80 54 00
        E 60 80 60 00
        E 60 90 3c 60
        E 0 90 48 60
        E 0 90 54 60
        E 0 90 60 60
        E 1440 80 3c 00
        E 0 80 48 00
        E 360 80 54 00
        E 60 80 60 00
        E 60 90 3c 60
        E 0 90 48 60
        E 0 90 54 60
        E 0 90 60 60
        E 1440 80 3c 00
        E 0 80 48 00
        E 340 80 74 00
        E 20 80 54 00
        E 60 80 60 00
        E 60 90 3c 60
        E 0 90 48 60
        E 0 90 54 60
        E 0 90 60 60
        E 1440 80 3c 00
        E 0 80 48 00
        E 360 80 54 00
        E 60 80 60 00
        E 60 90 3c 60
        E 0 90 48 60
        E 0 90 54 60
        E 0 90 60 60
        E 1440 80 3c 00
        E 0 80 48 00
        E 360 80 54 00
        E 60 80 60 00
        E 60 90 3c 60
        E 0 90 48 60
        E 0 90 54 60
        E 0 90 60 60
        E 1440 80 3c 00
        E 0 80 48 00
        E 360 80 54 00
        E 60 80 60 00
        E 60 90 3c 60
        E 0 90 48 60
        E 0 90 54 60
        E 0 90 60 60
        E 1440 80 3c 00
        E 0 80 48 00
        E 360 80 54 00
        E 60 80 60 00
        E 60 90 3c 60
        E 0 90 48 60
        E 0 90 54 60
        E 0 90 60 60
        E 1440 80 3c 00
        E 120 80 48 00
        E 120 80 54 00
        E 180 80 60 00
        E 60 90 3c 60
        E 0 90 48 60
        E 0 90 54 60
        E 0 90 60 60
        E 1440 80 3c 00
        E 120 80 48 00
        E 120 80 54 00
        E 180 80 60 00
        E 60 90 3c 60
        E 0 90 48 60
        E 0 90 54 60
        E 0 90 60 60
        E 1440 80 3c 00
        E 120 80 48 00
        E 120 80 54 00
        E 180 80 60 00
        E 60 90 3c 60
        E 0 90 48 60
        E 0 90 54 60
        E 0 90 60 60
        E 1440 80 3c 00
        E 120 80 48 00
        E 120 80 54 00
        E 100 90 74 60
        E 80 80 60 00
        E 60 90 3c 60
        E 0 90 48 60
        E 0 90 54 60
        E 0 90 60 60
        E 1440 80 3c 00
        E 120 80 48 00
        E 120 80 54 00
        E 180 80 60 00
        E 60 90 3c 60
        E 0 90 48 60
        E 0 90 54 60
        E 0 90 60 60
        E 1440 80 3c 00
        E 120 80 48 00
        E 120 80 54 00
        E 180 80 60 00
        E 60 90 3c 60
        E 0 90 48 60
        E 0 90 54 60
        E 0 90 60 60
        E 1810 80 74 00
        E 50 80 3c 00
        E 0 80 48 00
        E 0 80 54 00
        E 0 80 60 00
        E 3900 90 3c 60
        E 0 90 48 60
        E 0 90 54 60
        E 0 90 60 60
        E 60 80 3c 00
        E 0 80 48 00
        E 0 80 54 00
        E 0 80 60 00
        E 180 90 56 60
        E 0 90 62 60
        E 60 80 56 00
        E 0 80 62 00
        E 180 90 3c 60
        E 0 90 48 60
        E 0 90 54 60
        E 0 90 60 60
        E 60 80 3c 00
        E 0 80 48 00
        E 0 80 54 00
        E 0 80 60 00
        E 180 90 56 60
        E 0 90 62 60
        E 60 80 56 00
        E 0 80 62 00
        E 180 90 3c 60
        E 0 90 48 60
        E 0 90 54 60
        E 0 90 60 60
        E 60 80 3c 00
        E 0 80 48 00
        E 0 80 54 00
        E 0 80 60 00
        E 180 90 56 60
        E 0 90 62 60
        E 60 80 56 00
        E 0 80 62 00
        E 180 90 3c 60
        E 0 90 48 60
        E 0 90 54 60
        E 0 90 60 60
        E 60 80 3c 00
        E 0 80 48 00
        E 0 80 54 00
        E 0 80 60 00
        E 180 90 56 60
        E 0 90 62 60
        E 60 80 56 00
        E 0 80 62 00
        E 180 90 3c 60
        E 0 90 48 60
        E 0 90 54 60
        E 0 90 60 60
        E 60 80 3c 00
        E 0 80 48 00
        E 0 80 54 00
        E 0 80 60 00
        E 180 90 56 60
        E 0 90 62 60
        E 60 80 56 00
        E 0 80 62 00
        E 180 90 3c 60
        E 0 90 48 60
        E 0 90 54 60
        E 0 90 60 60
        E 60 80 3c 00
        E 0 80 48 00
        E 0 80 54 00
        E 0 80 60 00
        E 180 90 56 60
        E 0 90 62 60
        E 60 80 56 00
        E 0 80 62 00
        E 180 90 3c 60
        E 0 90 48 60
        E 0 90 54 60
        E 0 90 60 60
        E 60 80 3c 00
        E 0 80 48 00
        E 0 80 54 00
        E 0 80 60 00
        E 180 90 56 60
        E 0 90 62 60
        E 60 80 56 00
        E 0 80 62 00
        E 180 90 3c 60
        E 0 90 48 60
        E 0 90 54 60
        E 0 90 60 60
        E 60 80 3c 00
        E 0 80 48 00
        E 0 80 54 00
        E 0 80 60 00
        E 180 90 56 60
        E 0 90 62 60
        E 60 80 56 00
        E 0 80 62 00
        E 180 90 3c 60
        E 0 90 48 60
        E 0 90 54 60
        E 0 90 60 60
        E 60 80 3c 00
        E 0 80 48 00
        E 0 80 54 00
        E 0 80 60 00
        E 180 90 57 60
        E 0 90 63 60
        E 60 80 57 00
        E 0 80 63 00
        E 180 90 3c 60
        E 0 90 48 60
        E 0 90 54 60
        E 0 90 60 60
        E 60 80 3c 00
        E 0 80 48 00
        E 0 80 54 00
        E 0 80 60 00
        E 180 90 57 60
        E 0 90 63 60
        E 60 80 57 00
        E 0 80 63 00
        E 180 90 3c 60
        E 0 90 48 60
        E 0 90 54 60
        E 0 90 60 60
        E 60 80 3c 00
        E 0 80 48 00
        E 0 80 54 00
        E 0 80 60 00
        E 180 90 57 60
        E 0 90 63 60
        E 60 80 57 00
        E 0 80 63 00
        E 180 90 3c 60
        E 0 90 48 60
        E 0 90 54 60
        E 0 90 60 60
        E 60 80 3c 00
        E 0 80 48 00
        E 0 80 54 00
        E 0 80 60 00
        E 180 90 57 60
        E 0 90 63 60
        E 60 80 57 00
        E 0 80 63 00
        E 180 90 3c 60
        E 0 90 48 60
        E 0 90 54 60
        E 0 90 60 60
        E 60 80 3c 00
        E 0 80 48 00
        E 0 80 54 00
        E 0 80 60 00
        E 180 90 57 60
        E 0 90 63 60
        E 60 80 57 00
        E 0 80 63 00
        E 180 90 3c 60
        E 0 90 48 60
        E 0 90 54 60
        E 0 90 60 60
        E 60 80 3c 00
        E 0 80 48 00
        E 0 80 54 00
        E 0 80 60 00
        E 180 90 57 60
        E 0 90 63 60
        E 60 80 57 00
        E 0 80 63 00
        E 180 90 3c 60
        E 0 90 48 60
        E 0 90 54 60
        E 0 90 60 60
        E 60 80 3c 00
        E 0 80 48 00
        E 0 80 54 00
        E 0 80 60 00
        E 180 90 57 60
        E 0 90 63 60
        E 60 80 57 00
        E 0 80 63 00
        E 180 90 3c 60
        E 0 90 48 60
        E 0 90 54 60
        E 0 90 60 60
        E 60 80 3c 00
        E 0 80 48 00
        E 0 80 54 00
        E 0 80 60 00
        E 180 90 57 60
        E 0 90 63 60
        E 60 80 57 00
        E 0 80 63 00
        E 180 90 3c 60
        E 0 90 48 60
        E 0 90 54 60
        E 0 90 60 60
        E 60 80 3c 00
        E 0 80 48 00
        E 0 80 54 00
        E 0 80 60 00
        E 180 90 55 60
        E 0 90 61 60
        E 60 80 55 00
        E 0 80 61 00
        E 180 90 3c 60
        E 0 90 48 60
        E 0 90 54 60
        E 0 90 60 60
        E 60 80 3c 00
        E 0 80 48 00
        E 0 80 54 00
        E 0 80 60 00
        E 180 90 55 60
        E 0 90 61 60
        E 60 80 55 00
        E 0 80 61 00
        E 180 90 3c 60
        E 0 90 48 60
        E 0 90 54 60
        E 0 90 60 60
        E 60 80 3c 00
        E 0 80 48 00
        E 0 80 54 00
        E 0 80 60 00
        E 180 90 55 60
        E 0 90 61 60
        E 60 80 55 00
        E 0 80 61 00
        E 180 90 3c 60
        E 0 90 48 60
        E 0 90 54 60
        E 0 90 60 60
        E 60 80 3c 00
        E 0 80 48 00
        E 0 80 54 00
        E 0 80 60 00
        E 180 90 55 60
        E 0 90 61 60
        E 60 80 55 00
        E 0 80 61 00
        E 180 90 3c 60
        E 0 90 48 60
        E 0 90 54 60
        E 0 90 60 60
        E 60 80 3c 00
        E 0 80 48 00
        E 0 80 54 00
        E 0 80 60 00
        E 180 90 56 60
        E 0 90 62 60
        E 60 80 56 00
        E 0 80 62 00
        E 180 90 3c 60
        E 0 90 48 60
        E 0 90 54 60
        E 0 90 60 60
        E 60 80 3c 00
        E 0 80 48 00
        E 0 80 54 00
        E 0 80 60 00
        E 180 90 56 60
        E 0 90 62 60
        E 60 80 56 00
        E 0 80 62 00
        E 180 90 3c 60
        E 0 90 48 60
        E 0 90 54 60
        E 0 90 60 60
        E 60 80 3c 00
        E 0 80 48 00
        E 0 80 54 00
        E 0 80 60 00
        E 180 90 56 60
        E 0 90 62 60
        E 60 80 56 00
        E 0 80 62 00
        E 180 90 3c 60
        E 0 90 48 60
        E 0 90 54 60
        E 0 90 60 60
        E 60 80 3c 00
        E 0 80 48 00
        E 0 80 54 00
        E 0 80 60 00
        E 180 90 56 60
        E 0 90 62 60
        E 60 80 56 00
        E 0 80 62 00
        E 4020 90 3c 60
        E 0 90 48 60
        E 0 90 54 60
        E 0 90 60 60
        E 60 80 3c 00
        E 0 80 48 00
        E 0 80 54 00
        E 0 80 60 00
        E 180 90 56 60
        E 0 90 62 60
        E 60 80 56 00
        E 0 80 62 00
        E 180 90 3c 60
        E 0 90 48 60
        E 0 90 54 60
        E 0 90 60 60
        E 60 80 3c 00
        E 0 80 48 00
        E 0 80 54 00
        E 0 80 60 00
        E 180 90 56 60
        E 0 90 62 60
        E 60 80 56 00
        E 0 80 62 00
        E 180 90 3c 60
        E 0 90 48 60
        E 0 90 54 60
        E 0 90 60 60
        E 60 80 3c 00
        E 0 80 48 00
        E 0 80 54 00
        E 0 80 60 00
        E 180 90 56 60
        E 0 90 62 60
        E 60 80 56 00
        E 0 80 62 00
        E 180 90 3c 60
        E 0 90 48 60
        E 0 90 54 60
        E 0 90 60 60
        E 60 80 3c 00
        E 0 80 48 00
        E 0 80 54 00
        E 0 80 60 00
        E 180 90 56 60
        E 0 90 62 60
        E 60 80 56 00
        E 0 80 62 00
        E 180 90 3c 60
        E 0 90 48 60
        E 0 90 54 60
        E 0 90 60 60
        E 60 80 3c 00
        E 0 80 48 00
        E 0 80 54 00
        E 0 80 60 00
        E 180 90 56 60
        E 0 90 62 60
        E 60 80 56 00
        E 0 80 62 00
        E 180 90 3c 60
        E 0 90 48 60
        E 0 90 54 60
        E 0 90 60 60
        E 60 80 3c 00
        E 0 80 48 00
        E 0 80 54 00
        E 0 80 60 00
        E 180 90 56 60
        E 0 90 62 60
        E 60 80 56 00
        E 0 80 62 00
        E 180 90 3c 60
        E 0 90 48 60
        E 0 90 54 60
        E 0 90 60 60
        E 60 80 3c 00
        E 0 80 48 00
        E 0 80 54 00
        E 0 80 60 00
        E 180 90 56 60
        E 0 90 62 60
        E 60 80 56 00
        E 0 80 62 00
        E 180 90 3c 60
        E 0 90 48 60
        E 0 90 54 60
        E 0 90 60 60
        E 60 80 3c 00
        E 0 80 48 00
        E 0 80 54 00
        E 0 80 60 00
        E 180 90 56 60
        E 0 90 62 60
        E 60 80 56 00
        E 0 80 62 00
        E 180 90 3c 60
        E 0 90 48 60
        E 0 90 54 60
        E 0 90 60 60
        E 60 80 3c 00
        E 0 80 48 00
        E 0 80 54 00
        E 0 80 60 00
        E 180 90 57 60
        E 0 90 63 60
        E 60 80 57 00
        E 0 80 63 00
        E 180 90 3c 60
        E 0 90 48 60
        E 0 90 54 60
        E 0 90 60 60
        E 60 80 3c 00
        E 0 80 48 00
        E 0 80 54 00
        E 0 80 60 00
        E 180 90 57 60
        E 0 90 63 60
        E 60 80 57 00
        E 0 80 63 00
        E 180 90 3c 60
        E 0 90 48 60
        E 0 90 54 60
        E 0 90 60 60
        E 60 80 3c 00
        E 0 80 48 00
        E 0 80 54 00
        E 0 80 60 00
        E 180 90 57 60
        E 0 90 63 60
        E 60 80 57 00
        E 0 80 63 00
        E 180 90 3c 60
        E 0 90 48 60
        E 0 90 54 60
        E 0 90 60 60
        E 60 80 3c 00
        E 0 80 48 00
        E 0 80 54 00
        E 0 80 60 00
        E 180 90 57 60
        E 0 90 63 60
        E 60 80 57 00
        E 0 80 63 00
        E 180 90 3c 60
        E 0 90 48 60
        E 0 90 54 60
        E 0 90 60 60
        E 60 80 3c 00
        E 0 80 48 00
        E 0 80 54 00
        E 0 80 60 00
        E 180 90 57 60
        E 0 90 63 60
        E 60 80 57 00
        E 0 80 63 00
        E 180 90 3c 60
        E 0 90 48 60
        E 0 90 54 60
        E 0 90 60 60
        E 60 80 3c 00
        E 0 80 48 00
        E 0 80 54 00
        E 0 80 60 00
        E 180 90 57 60
        E 0 90 63 60
        E 60 80 57 00
        E 0 80 63 00
        E 180 90 3c 60
        E 0 90 48 60
        E 0 90 54 60
        E 0 90 60 60
        E 60 80 3c 00
        E 0 80 48 00
        E 0 80 54 00
        E 0 80 60 00
        E 180 90 57 60
        E 0 90 63 60
        E 60 80 57 00
        E 0 80 63 00
        E 180 90 3c 60
        E 0 90 48 60
        E 0 90 54 60
        E 0 90 60 60
        E 60 80 3c 00
        E 0 80 48 00
        E 0 80 54 00
        E 0 80 60 00
        E 180 90 57 60
        E 0 90 63 60
        E 60 80 57 00
        E 0 80 63 00
        E 180 90 3c 60
        E 0 90 48 60
        E 0 90 54 60
        E 0 90 60 60
        E 60 80 3c 00
        E 0 80 48 00
        E 0 80 54 00
        E 0 80 60 00
        E 180 90 55 60
        E 0 90 61 60
        E 60 80 55 00
        E 0 80 61 00
        E 180 90 3c 60
        E 0 90 48 60
        E 0 90 54 60
        E 0 90 60 60
        E 60 80 3c 00
        E 0 80 48 00
        E 0 80 54 00
        E 0 80 60 00
        E 180 90 55 60
        E 0 90 61 60
        E 60 80 55 00
        E 0 80 61 00
        E 180 90 3c 60
        E 0 90 48 60
        E 0 90 54 60
        E 0 90 60 60
        E 60 80 3c 00
        E 0 80 48 00
        E 0 80 54 00
        E 0 80 60 00
        E 180 90 55 60
        E 0 90 61 60
        E 60 80 55 00
        E 0 80 61 00
        E 180 90 3c 60
        E 0 90 48 60
        E 0 90 54 60
        E 0 90 60 60
        E 60 80 3c 00
        E 0 80 48 00
        E 0 80 54 00
        E 0 80 60 00
        E 180 90 55 60
        E 0 90 61 60
        E 60 80 55 00
        E 0 80 61 00
        E 180 90 3c 60
        E 0 90 48 60
        E 0 90 54 60
        E 0 90 60 60
        E 60 80 3c 00
        E 0 80 48 00
        E 0 80 54 00
        E 0 80 60 00
        E 180 90 56 60
        E 0 90 62 60
        E 60 80 56 00
        E 0 80 62 00
        E 180 90 3c 60
        E 0 90 48 60
        E 0 90 54 60
        E 0 90 60 60
        E 60 80 3c 00
        E 0 80 48 00
        E 0 80 54 00
        E 0 80 60 00
        E 180 90 56 60
        E 0 90 62 60
        E 60 80 56 00
        E 0 80 62 00
        E 180 90 3c 60
        E 0 90 48 60
        E 0 90 54 60
        E 0 90 60 60
        E 60 80 3c 00
        E 0 80 48 00
        E 0 80 54 00
        E 0 80 60 00
        E 180 90 56 60
        E 0 90 62 60
        E 60 80 56 00
        E 0 80 62 00
        E 180 90 3c 60
        E 0 90 48 60
        E 0 90 54 60
        E 0 90 60 60
        E 60 80 3c 00
        E 0 80 48 00
        E 0 80 54 00
        E 0 80 60 00
        E 180 90 56 60
        E 0 90 62 60
        E 60 80 56 00
        E 0 80 62 00
        E 180 90 3c 60
        E 0 90 48 60
        E 0 90 54 60
        E 0 90 60 60
        E 60 80 3c 00
        E 0 80 48 00
        E 0 80 54 00
        E 0 80 60 00
        E 180 90 56 60
        E 0 90 62 60
        E 60 80 56 00
        E 0 80 62 00
        E 180 90 3c 60
        E 0 90 48 60
        E 0 90 54 60
        E 0 90 60 60
        E 60 80 3c 00
        E 0 80 48 00
        E 0 80 54 00
        E 0 80 60 00
        E 180 90 56 60
        E 0 90 62 60
        E 60 80 56 00
        E 0 80 62 00
        E 180 90 3c 60
        E 0 90 48 60
        E 0 90 54 60
        E 0 90 60 60
        E 60 80 3c 00
        E 0 80 48 00
        E 0 80 54 00
        E 0 80 60 00
        E 180 90 56 60
        E 0 90 62 60
        E 60 80 56 00
        E 0 80 62 00
        E 180 90 3c 60
        E 0 90 48 60
        E 0 90 54 60
        E 0 90 60 60
        E 60 80 3c 00
        E 0 80 48 00
        E 0 80 54 00
        E 0 80 60 00
        E 180 90 56 60
        E 0 90 62 60
        E 60 80 56 00
        E 0 80 62 00
        E 180 90 3c 60
        E 0 90 48 60
        E 0 90 54 60
        E 0 90 60 60
        E 60 80 3c 00
        E 0 80 48 00
        E 0 80 54 00
        E 0 80 60 00
        E 180 90 57 60
        E 0 90 63 60
        E 60 80 57 00
        E 0 80 63 00
        E 180 90 3c 60
        E 0 90 48 60
        E 0 90 54 60
        E 0 90 60 60
        E 60 80 3c 00
        E 0 80 48 00
        E 0 80 54 00
        E 0 80 60 00
        <X 480 0
          /wFbaWRsZV9yZWFsdGltZV0=
        >
        E 420 b0 7b 00
        GUID {54A57D35-811F-42A6-AB75-F5706122F903}
        IGNTEMPO 0 120.00000000 4 4
        SRCCOLOR 1164
        VELLANE 132 128 60
        COLORMAP "C:\Users\wejaa\AppData\Roaming\REAPER\Data\color_maps\rockband_guitarbass.png"
        TEXTSTRINGFILE "Text Events List.txt"
        CFGEDITVIEW 108885.206367 364.887932 0 12 0 0 0
        CFGEDIT 1 1 0 0 0 1 1 1 1 1 1 0.06250000 -8 -8 1370 736 1 2 1 2 0.00000000 0 0 0 0 0.500000 1 0 1.000000 64
        KEYSNAP 0 0 "102034050607" 0 "Major"
        EVTFILTER 0 -1 -1 -1 -1 0 1 0 0 -1.00000000 -1.00000000
      >
    >
  >
  <TRACK '{049D25A4-792A-4204-9E0F-67AF0AE27B26}'
    NAME "bass"
    PEAKCOL 16576
    BEAT -1
    AUTOMODE 0
    VOLPAN 1.00000000000000 0.00000000000000 -1.00000000000000 -1.00000000000000 1.00000000000000
    MUTESOLO 0 0 0
    IPHASE 0
    ISBUS 0 0
    BUSCOMP 0 0
    SHOWINMIX 1 0.666700 0.500000 1 0.500000 -1 -1 -1
    FREEMODE 0
    SEL 0
    REC 0 0 0 0 0 0 0
    VU 2
    TRACKHEIGHT 0 0
    INQ 0 0 0 0.5000000000 100 0 0 100
    NCHAN 2
    FX 1
    TRACKID {049D25A4-792A-4204-9E0F-67AF0AE27B26}
    PERF 0
    MIDIOUT -1
    MAINSEND 1 0
    <ITEM
      POSITION 2.67288700002246
      SNAPOFFS 0.00000000000000
      LENGTH 180.31473922902495
      LOOP 0
      ALLTAKES 0
      SEL 0
      FADEIN 1 0.000000 0.000000 1 0
      FADEOUT 1 0.000000 0.000000 1 0
      MUTE 0
      IGUID {8CBDD9D8-7F4F-4122-B9F1-273612458D99}
      IID 59
      NAME "bass.wav"
      VOLPAN 1.000000 0.000000 1.000000 -1.000000
      SOFFS 0.00000000000000
      PLAYRATE 1.00000000000000 1 0.00000000000000 -1
      CHANMODE 0
      GUID {EEE205C1-F944-4B43-A46C-18D0B969DA47}
      <SOURCE WAVE
        FILE "bass.wav"
      >
    >
  >
  <TRACK '{F5FC45B3-3361-4721-98B8-305E3C5D7359}'
    NAME "01 ICH KOMME-bass-D minor-147bpm-440hz"
    PEAKCOL 16576
    BEAT -1
    AUTOMODE 0
    VOLPAN 2.23756723283818 0.00000000000000 -1.00000000000000 -1.00000000000000 1.00000000000000
    MUTESOLO 0 0 0
    IPHASE 0
    ISBUS 0 0
    BUSCOMP 0 0
    SHOWINMIX 1 0.666700 0.500000 1 0.500000 -1 -1 -1
    FREEMODE 0
    SEL 0
    REC 0 0 0 0 0 0 0
    VU 2
    TRACKHEIGHT 0 0
    INQ 0 0 0 0.5000000000 100 0 0 100
    NCHAN 2
    FX 1
    TRACKID {F5FC45B3-3361-4721-98B8-305E3C5D7359}
    PERF 0
    MIDIOUT -1
    MAINSEND 1 0
    <ITEM
      POSITION 2.67288720978649
      SNAPOFFS 0.00000000000000
      LENGTH 180.35043083900226
      LOOP 0
      ALLTAKES 0
      SEL 0
      FADEIN 1 0.000000 0.000000 1 0
      FADEOUT 1 0.000000 0.000000 1 0
      MUTE 0
      IGUID {F70B9B5A-3A58-49A3-9A9C-3849AF7178FE}
      IID 28
      NAME "01 ICH KOMME-bass-D minor-147bpm-440hz.mp3"
      VOLPAN 1.000000 0.000000 1.000000 -1.000000
      SOFFS 0.00000000000000
      PLAYRATE 1.00000000000000 1 0.00000000000000 -1
      CHANMODE 0
      GUID {04701E63-D969-4E0D-AE0B-5785EF555CED}
      <SOURCE MP3
        FILE "01 ICH KOMME-bass-D minor-147bpm-440hz.mp3" 1
      >
    >
  >
  <TRACK '{DF736592-162A-4FF2-921D-8A16A81D9D7A}'
    NAME "01 ICH KOMME-vocals-D minor-147bpm-440hz - entire_length"
    PEAKCOL 16576
    BEAT -1
    AUTOMODE 0
    VOLPAN 1.04209781592932 0.00000000000000 -1.00000000000000 -1.00000000000000 1.00000000000000
    MUTESOLO 1 0 0
    IPHASE 0
    ISBUS 0 0
    BUSCOMP 0 0
    SHOWINMIX 1 0.666700 0.500000 1 0.500000 -1 -1 -1
    FREEMODE 0
    SEL 0
    REC 0 0 0 0 0 0 0
    VU 2
    TRACKHEIGHT 0 0
    INQ 0 0 0 0.5000000000 100 0 0 100
    NCHAN 2
    FX 1
    TRACKID {DF736592-162A-4FF2-921D-8A16A81D9D7A}
    PERF 0
    MIDIOUT -1
    MAINSEND 1 0
    <ITEM
      POSITION 2.67288700002246
      SNAPOFFS 0.00000000000000
      LENGTH 175.21811412280843
      LOOP 0
      ALLTAKES 0
      SEL 0
      FADEIN 1 0.000000 0.000000 1 0
      FADEOUT 1 0.000000 0.000000 1 0
      MUTE 0
      IGUID {9CDD6412-F2DD-4B20-861D-5F8C7895A0EA}
      IID 78
      NAME "01 ICH KOMME-vocals-D minor-147bpm-440hz - entire_length.mid"
      VOLPAN 1.000000 0.000000 1.000000 -1.000000
      SOFFS 0.00000000000000 0.00000000000000
      PLAYRATE 1.00000000000000 1 0.00000000000000 -1
      CHANMODE 0
      GUID {198C9E09-4A92-441B-A570-C378A54336E7}
      <SOURCE MIDI
        HASDATA 1 1920 QN
        POOLEDEVTS {9B984F03-82F1-4778-9E98-7318C208BBE3}
        <X 0 0
          /wMwMSBJQ0ggS09NTUUtdm9jYWxzLUQgbWlub3ItMTQ3YnBtLTQ0MA==
          aHo=
        >
        e 35670 90 3d 19
        e 1023 80 3d 00
        e 12 90 3e 35
        e 8521 80 3e 00
        e 0 90 3e 3f
        e 1715 80 3e 00
        e 139 90 3c 55
        e 801 80 3c 00
        e 0 90 3e 46
        e 1026 80 3e 00
        e 0 90 3e 52
        e 4912 80 3e 00
        e 0 90 3e 4d
        e 803 80 3e 00
        e 0 90 3e 4f
        e 2070 80 3e 00
        e 0 90 41 4e
        e 3978 80 41 00
        e 0 90 40 52
        e 1567 80 40 00
        e 129 90 3e 51
        e 2816 80 3e 00
        e 0 90 3e 53
        e 907 80 3e 00
        e 0 90 40 4e
        e 1009 80 40 00
        e 12 90 41 4f
        e 1123 80 41 00
        e 0 90 3e 52
        e 4863 80 3e 00
        e 0 90 3e 33
        e 1216 80 3e 00
        e 0 90 3e 3f
        e 3406 80 3e 00
        e 0 90 3e 51
        e 894 80 3e 00
        e 0 90 3c 52
        e 4349 80 3c 00
        e 587 90 3e 53
        e 1888 80 3e 00
        e 1 90 40 51
        e 1803 80 40 00
        e 161 90 41 53
        e 2959 80 41 00
        e 0 90 41 45
        e 706 80 41 00
        e 12 90 43 53
        e 2060 80 43 00
        e 0 90 46 53
        e 1714 80 46 00
        e 160 90 45 52
        e 955 90 46 51
        e 594 80 46 00
        e 267 80 45 00
        e 0 90 45 52
        e 959 80 45 00
        e 139 90 46 58
        e 993 80 46 00
        e 0 90 45 55
        e 9243 80 45 00
        e 2692 90 39 4f
        e 2494 80 39 00
        e 0 90 39 61
        e 766 80 39 00
        e 12 90 37 57
        e 941 80 37 00
        e 0 90 37 54
        e 884 80 37 00
        e 171 90 3a 4f
        e 2667 80 3a 00
        e 235 90 39 58
        e 1910 80 39 00
        e 0 90 39 43
        e 831 80 39 00
        e 384 90 37 5b
        e 2783 80 37 00
        e 1986 90 32 50
        e 1487 80 32 00
        e 1243 90 36 53
        e 448 80 36 00
        e 0 90 35 5a
        e 1216 80 35 00
        e 0 90 37 59
        e 1951 80 37 00
        e 0 90 36 42
        e 888 80 36 00
        e 1024 90 32 58
        e 1119 80 32 00
        e 0 90 32 56
        e 1002 80 32 00
        e 0 90 35 54
        e 1803 80 35 00
        e 0 90 37 54
        e 948 80 37 00
        e 12 90 34 58
        e 1901 80 34 00
        e 256 90 39 59
        e 1744 80 39 00
        e 0 90 39 54
        e 769 80 39 00
        e 363 90 37 5a
        e 789 80 37 00
        e 0 90 37 58
        e 876 80 37 00
        e 0 90 3a 52
        e 2725 80 3a 00
        e 560 90 2d 55
        e 1555 80 2d 00
        e 0 90 2d 5f
        e 846 80 2d 00
        e 0 90 37 56
        e 1812 80 37 00
        e 396 90 2e 60
        e 703 80 2e 00
        e 352 90 39 44
        e 1615 80 39 00
        e 171 90 32 4c
        e 795 80 32 00
        e 0 90 32 3c
        e 7243 80 32 00
        e 0 90 32 4c
        e 1530 80 32 00
        e 0 90 32 50
        e 880 80 32 00
        e 0 90 35 48
        e 977 80 35 00
        e 0 90 35 49
        e 911 80 35 00
        e 0 90 37 43
        e 2229 80 37 00
        e 0 90 39 37
        e 1364 80 39 00
        e 182 90 2c 32
        e 821 80 2c 00
        e 0 90 2c 32
        e 544 80 2c 00
        e 0 90 38 3b
        e 15455 80 38 00
        e 10637 90 47 53
        e 1321 80 47 00
        e 0 90 47 5e
        e 2345 80 47 00
        e 0 90 46 51
        e 395 80 46 00
        e 256 90 44 49
        e 884 80 44 00
        e 40 90 48 67
        e 2619 80 48 00
        e 341 90 47 68
        e 884 80 47 00
        e 150 90 45 66
        e 1781 80 45 00
        e 117 90 48 66
        e 897 80 48 00
        e 0 90 3c 6b
        e 725 80 3c 00
        e 0 90 47 63
        e 1088 80 47 00
        e 0 90 43 5f
        e 6390 80 43 00
        e 10527 90 46 55
        e 1132 80 46 00
        e 331 90 47 65
        e 3632 80 47 00
        e 12 90 48 64
        e 2843 80 48 00
        e 0 90 48 5b
        e 993 80 48 00
        e 416 90 45 5e
        e 1478 80 45 00
        e 0 90 3f 60
        e 917 80 3f 00
        e 0 90 4c 62
        e 704 80 4c 00
        e 0 90 4a 62
        e 2196 80 4a 00
        e 0 90 47 66
        e 3210 80 47 00
        e 257 90 45 70
        e 1600 80 45 00
        e 0 90 45 6d
        e 1589 80 45 00
        e 0 90 45 69
        e 5387 80 45 00
        e 0 90 45 6c
        e 362 80 45 00
        e 0 90 45 6f
        e 601 80 45 00
        e 2696 90 47 6a
        e 3807 80 47 00
        e 641 90 46 60
        e 957 80 46 00
        e 12 90 48 6a
        e 2722 80 48 00
        e 12 90 47 67
        e 1310 80 47 00
        e 0 90 45 68
        e 1706 80 45 00
        e 97 90 3c 6b
        e 1962 80 3c 00
        e 0 90 47 68
        e 1004 80 47 00
        e 0 90 43 63
        e 906 80 43 00
        e 0 90 45 68
        e 2154 80 45 00
        e 0 90 45 6b
        e 1966 80 45 00
        e 10246 90 42 5b
        e 1077 80 42 00
        e 416 90 36 3e
        e 1174 80 36 00
        e 1 90 3a 55
        e 542 80 3a 00
        e 310 90 47 6b
        e 1974 80 47 00
        e 395 90 45 68
        e 617 80 45 00
        e 0 90 48 69
        e 2975 80 48 00
        e 0 90 48 69
        e 1325 80 48 00
        e 0 90 39 64
        e 1748 80 39 00
        e 0 90 48 68
        e 2247 80 48 00
        e 0 90 47 68
        e 1311 80 47 00
        e 837 90 43 68
        e 1384 80 43 00
        e 12 90 42 60
        e 4001 80 42 00
        e 0 90 42 42
        e 1841 80 42 00
        e 0 90 42 35
        e 730 80 42 00
        e 0 90 42 3b
        e 1099 80 42 00
        e 139 90 4e 21
        e 1171 80 4e 00
        e 3437 90 3b 13
        e 425 80 3b 00
        e 3285 90 3e 48
        e 1746 80 3e 00
        e 307 90 3c 55
        e 2876 80 3c 00
        e 12 90 40 54
        e 1299 80 40 00
        e 1829 90 3e 59
        e 1501 80 3e 00
        e 1141 90 3c 51
        e 1910 80 3c 00
        e 171 90 40 46
        e 4545 80 40 00
        e 10551 90 3e 4d
        e 1055 80 3e 00
        e 117 90 3d 59
        e 1894 80 3d 00
        e 0 90 39 5b
        e 991 80 39 00
        e 0 90 39 4e
        e 917 80 39 00
        e 161 90 3c 55
        e 1708 80 3c 00
        e 0 90 3c 57
        e 703 80 3c 00
        e 384 90 3e 55
        e 949 80 3e 00
        e 0 90 3f 5b
        e 2036 80 3f 00
        e 0 90 39 50
        e 2391 80 39 00
        e 11 90 3c 53
        e 1313 80 3c 00
        e 0 90 3c 56
        e 841 80 3c 00
        e 0 90 3e 53
        e 2495 80 3e 00
        e 0 90 3e 31
        e 1819 80 3e 00
        e 0 90 3e 35
        e 2315 80 3e 00
        e 0 90 3e 37
        e 1989 80 3e 00
        e 0 90 3e 38
        e 2874 80 3e 00
        e 0 90 3e 42
        e 3721 80 3e 00
        e 0 90 3e 2d
        e 1043 80 3e 00
        e 0 90 3c 1c
        e 655 80 3c 00
        e 1242 90 45 64
        e 1797 80 45 00
        e 0 90 45 6e
        e 1094 80 45 00
        e 0 90 43 6e
        e 1091 80 43 00
        e 0 90 43 63
        e 765 80 43 00
        e 256 90 46 6e
        e 1000 80 46 00
        e 1797 90 45 6d
        e 1758 80 45 00
        e 0 90 45 6a
        e 944 80 45 00
        e 150 90 43 68
        e 1722 80 43 00
        e 0 90 46 6b
        e 2962 80 46 00
        e 437 90 3d 67
        e 271 80 3d 00
        e 0 90 3e 67
        e 2158 80 3e 00
        e 118 90 41 65
        e 1774 80 41 00
        e 278 90 42 60
        e 801 80 42 00
        e 235 90 45 67
        e 511 80 45 00
        e 0 90 40 5e
        e 1059 80 40 00
        e 576 90 3c 6a
        e 499 80 3c 00
        e 0 90 3e 6a
        e 971 80 3e 00
        e 0 90 40 5e
        e 903 80 40 00
        e 12 90 41 63
        e 1136 80 41 00
        e 0 90 41 68
        e 786 80 41 00
        e 0 90 43 69
        e 917 80 43 00
        e 0 90 43 6a
        e 698 80 43 00
        e 1383 90 45 5c
        e 1860 80 45 00
        e 0 90 45 6e
        e 1040 80 45 00
        e 0 90 43 6a
        e 1759 80 43 00
        e 32 90 46 6a
        e 663 80 46 00
        e 427 90 45 68
        e 1784 80 45 00
        e 0 90 45 69
        e 1811 80 45 00
        e 438 90 43 6e
        e 1534 80 43 00
        e 0 90 43 6c
        e 1226 80 43 00
        e 0 90 46 68
        e 896 80 46 00
        e 214 90 45 6f
        e 1013 80 45 00
        e 193 90 32 78
        e 758 80 32 00
        e 0 90 3e 69
        e 8276 80 3e 00
        e 32 90 45 64
        e 1107 80 45 00
        e 0 90 43 68
        e 2571 80 43 00
        e 0 90 45 69
        e 2080 80 45 00
        e 0 90 45 6a
        e 11960 80 45 00
        e 2707 90 45 5b
        e 620 80 45 00
        e 235 90 47 67
        e 2687 80 47 00
        e 118 90 45 56
        e 939 80 45 00
        e 12 90 47 6c
        e 2558 80 47 00
        e 395 90 48 6c
        e 617 80 48 00
        e 0 90 44 6d
        e 1057 80 44 00
        e 0 90 46 6b
        e 1012 80 46 00
        e 0 90 48 6e
        e 1833 80 48 00
        e 12 90 47 6c
        e 2049 80 47 00
        e 0 90 43 66
        e 5242 80 43 00
        e 8997 90 42 55
        e 1254 80 42 00
        e 1552 90 46 5e
        e 735 80 46 00
        e 0 90 46 69
        e 1376 80 46 00
        e 129 90 47 62
        e 1877 80 47 00
        e 0 90 47 66
        e 554 80 47 00
        e 0 90 48 68
        e 1397 80 48 00
        e 0 90 48 68
        e 843 80 48 00
        e 0 90 47 65
        e 1032 80 47 00
        e 12 90 39 6b
        e 1793 80 39 00
        e 0 90 4c 6d
        e 2006 80 4c 00
        e 0 90 4a 68
        e 1693 80 4a 00
        e 3511 90 45 6e
        e 1366 80 45 00
        e 0 90 45 6f
        e 1952 80 45 00
        e 0 90 45 63
        e 641 80 45 00
        e 0 90 32 65
        e 1365 80 32 00
        e 0 90 45 69
        e 2075 80 45 00
        e 996 90 45 6b
        e 1911 80 45 00
        e 1641 90 46 62
        e 1099 80 46 00
        e 0 90 47 68
        e 2111 80 47 00
        e 0 90 47 6c
        e 938 80 47 00
        e 810 90 45 66
        e 631 80 45 00
        e 0 90 48 6f
        e 4425 80 48 00
        e 171 90 39 73
        e 1515 80 39 00
        e 0 90 3b 70
        e 1920 80 3b 00
        e 160 90 47 67
        e 800 80 47 00
        e 299 90 43 64
        e 694 80 43 00
        e 12 90 45 6b
        e 3636 80 45 00
        e 0 90 44 64
        e 3860 80 44 00
        e 0 90 39 4e
        e 5653 80 39 00
        e 1024 90 42 52
        e 374 80 42 00
        e 0 90 42 3d
        e 1077 80 42 00
        e 0 90 42 35
        e 1185 80 42 00
        e 0 90 45 65
        e 1280 80 45 00
        e 0 90 47 68
        e 2922 80 47 00
        e 983 90 54 71
        e 273 80 54 00
        e 1453 90 47 68
        e 1226 80 47 00
        e 0 90 45 69
        e 1535 80 45 00
        e 587 90 46 69
        e 341 80 46 00
        e 0 90 48 70
        e 779 80 48 00
        e 0 90 48 68
        e 1183 80 48 00
        e 0 90 47 69
        e 1136 80 47 00
        e 12 90 48 72
        e 836 80 48 00
        e 289 90 44 73
        e 417 80 44 00
        e 0 90 39 7d
        e 1162 80 39 00
        e 0 90 45 72
        e 8800 80 45 00
        e 0 90 44 71
        e 1682 80 44 00
        e 11 90 43 6f
        e 535 80 43 00
        e 1974 90 44 36
        e 12397 80 44 00
        e 18653 90 42 40
        e 1813 80 42 00
        e 0 90 42 3a
        e 3435 80 42 00
        e 0 90 42 3c
        e 9748 80 42 00
        e 161 90 3e 5d
        e 651 90 39 5c
        e 639 80 3e 00
        e 0 80 39 00
        e 0 90 3e 5f
        e 1249 90 3b 62
        e 864 80 3e 00
        e 0 80 3b 00
        e 0 90 3e 63
        e 1493 80 3e 00
        e 0 90 3e 60
        e 1857 80 3e 00
        e 0 90 3e 61
        e 1184 80 3e 00
        e 0 90 3e 64
        e 1733 80 3e 00
        e 0 90 3e 64
        e 1552 90 39 62
        e 884 80 3e 00
        e 0 80 39 00
        e 0 90 3e 66
        e 5182 80 3e 00
        e 0 90 3e 61
        e 1621 80 3e 00
        e 257 90 3d 66
        e 545 80 3d 00
        e 213 90 3b 66
        e 1024 80 3b 00
        e 0 90 3e 5f
        e 724 80 3e 00
        e 0 90 3e 61
        e 1970 80 3e 00
        e 0 90 3e 62
        e 4580 90 3c 66
        e 598 80 3e 00
        e 0 80 3c 00
        e 0 90 3e 62
        e 895 80 3e 00
        e 0 90 3e 5e
        e 1122 80 3e 00
        e 0 90 3e 66
        e 990 80 3e 00
        e 0 90 3e 65
        e 2422 80 3e 00
        e 0 90 3e 64
        e 2230 80 3e 00
        e 0 90 3e 67
        e 1087 80 3e 00
        e 0 90 3e 65
        e 2421 80 3e 00
        e 0 90 3e 66
        e 1281 80 3e 00
        e 0 90 3b 65
        e 928 80 3b 00
        e 0 90 3e 63
        e 1658 80 3e 00
        e 0 90 3e 68
        e 677 80 3e 00
        e 278 90 3c 67
        e 821 80 3c 00
        e 192 90 3e 67
        e 1686 80 3e 00
        e 0 90 3e 65
        e 6426 80 3e 00
        e 1966 90 3e 68
        e 1611 80 3e 00
        e 1749 90 3b 66
        e 682 80 3b 00
        e 0 90 3e 68
        e 875 80 3e 00
        e 0 90 3c 66
        e 3264 80 3c 00
        e 0 90 3e 69
        e 1963 80 3e 00
        e 0 90 3e 67
        e 1002 80 3e 00
        e 0 90 32 69
        e 765 80 32 00
        e 2265 90 3e 66
        e 1407 80 3e 00
        e 502 90 32 68
        e 864 80 32 00
        e 0 90 3d 67
        e 683 80 3d 00
        e 0 90 3e 61
        e 2035 80 3e 00
        e 0 90 3e 68
        e 1667 80 3e 00
        e 0 90 3e 68
        e 1013 80 3e 00
        e 0 90 3e 68
        e 1387 80 3e 00
        e 0 90 3e 65
        e 4330 80 3e 00
        e 0 90 3e 64
        e 1269 80 3e 00
        e 0 90 3e 67
        e 2071 80 3e 00
        e 0 90 3e 67
        e 2379 80 3e 00
        e 0 90 3e 68
        e 2058 80 3e 00
        e 0 90 3e 67
        e 1181 80 3e 00
        e 0 90 3e 66
        e 2272 80 3e 00
        e 0 90 2e 66
        e 576 80 2e 00
        e 0 90 32 69
        e 765 80 32 00
        e 1240 90 3e 68
        e 288 80 3e 00
        e 0 90 3e 66
        e 1239 80 3e 00
        e 0 90 3e 64
        e 1193 90 39 5d
        e 566 80 3e 00
        e 0 80 39 00
        e 0 90 3e 62
        e 1728 80 3e 00
        e 0 90 3e 62
        e 1610 80 3e 00
        e 0 90 3e 65
        e 2817 80 3e 00
        e 0 90 3e 5f
        e 6416 80 3e 00
        e 5594 90 46 60
        e 1802 80 46 00
        e 1483 90 47 56
        e 2688 80 47 00
        e 0 90 53 5a
        e 1963 80 53 00
        e 0 90 53 59
        e 1088 90 47 54
        e 384 80 47 00
        e 224 80 53 00
        e 0 90 53 56
        e 3335 80 53 00
        e 0 90 53 53
        e 1070 80 53 00
        e 0 90 46 5b
        e 1642 90 31 64
        e 1 80 46 00
        e 709 80 31 00
        e 8517 90 44 4d
        e 1515 80 44 00
        e 0 90 45 55
        e 804 80 45 00
        e 448 90 3c 60
        e 2620 80 3c 00
        e 0 90 47 4f
        e 553 80 47 00
        e 0 90 47 5d
        e 1132 80 47 00
        e 0 90 45 52
        e 5205 80 45 00
        e 1 90 51 59
        e 1696 80 51 00
        e 0 90 45 53
        e 5054 80 45 00
        e 0 90 43 4f
        e 3386 80 43 00
        e 7798 90 47 54
        e 874 80 47 00
        e 1338 90 45 56
        e 3051 80 45 00
        e 704 90 4a 59
        e 1760 80 4a 00
        e 0 90 4a 56
        e 2037 80 4a 00
        e 0 90 4a 5a
        e 4267 80 4a 00
        e 0 90 3e 4c
        e 710 80 3e 00
        e 3175 90 47 5d
        e 3080 80 47 00
        e 710 90 54 5b
        e 1980 80 54 00
        e 182 90 47 49
        e 777 80 47 00
        e 0 90 45 57
        e 1142 80 45 00
        e 764 90 48 5f
        e 3064 80 48 00
        e 0 90 47 5f
        e 1174 80 47 00
        e 0 90 45 57
        e 3403 80 45 00
        e 0 90 52 54
        e 2250 80 52 00
        e 1 90 48 54
        e 6685 80 48 00
        E 154 b0 7b 00
        GUID {BFA675E0-2C4B-4121-B6DB-8EBE1F232EDA}
        IGNTEMPO 0 120.00000000 4 4
        SRCCOLOR 1182
        VELLANE 132 128 60
        COLORMAP "C:\Program Files\REAPER (x64)\REAPER\Data\color_maps\rockband_guitarbass.png"
        CFGEDITVIEW 28230.997914 79.706690 61 12 0 0 0
        CFGEDIT 1 1 0 1 0 0 1 1 1 0 1 0.12500000 -8 -8 1370 736 1 0 1 0 0.00000000 0 0 0 0 0.500000 0 0 1.000000 64
        KEYSNAP 0 11 "102304056070" 0 "Natural minor"
        EVTFILTER 0 -1 -1 -1 -1 0 1 0 0 -1.00000000 -1.00000000
      >
    >
  >
  <TRACK '{266008A3-F50C-4305-8D6B-7C9FC1931B01}'
    NAME "vocals"
    PEAKCOL 16576
    BEAT -1
    AUTOMODE 0
    VOLPAN 1.00000000000000 0.00000000000000 -1.00000000000000 -1.00000000000000 1.00000000000000
    MUTESOLO 0 0 0
    IPHASE 0
    ISBUS 0 0
    BUSCOMP 0 0
    SHOWINMIX 1 0.666700 0.500000 1 0.500000 -1 -1 -1
    FREEMODE 0
    SEL 0
    REC 0 0 0 0 0 0 0
    VU 2
    TRACKHEIGHT 53 0
    INQ 0 0 0 0.5000000000 100 0 0 100
    NCHAN 2
    FX 1
    TRACKID {266008A3-F50C-4305-8D6B-7C9FC1931B01}
    PERF 0
    MIDIOUT -1
    MAINSEND 1 0
    <ITEM
      POSITION 2.67288600001484
      SNAPOFFS 0.00000000000000
      LENGTH 180.31473922902495
      LOOP 0
      ALLTAKES 0
      SEL 0
      FADEIN 1 0.000000 0.000000 1 0
      FADEOUT 1 0.000000 0.000000 1 0
      MUTE 0
      IGUID {6A1F0965-A767-4197-B7C2-5A8F9B252462}
      IID 97
      NAME "vocals.wav"
      VOLPAN 1.000000 0.000000 1.000000 -1.000000
      SOFFS 0.00000000000000
      PLAYRATE 1.00000000000000 1 0.00000000000000 -1
      CHANMODE 0
      GUID {A0D6543D-D03A-48CC-AC12-BF1340821F70}
      <SOURCE WAVE
        FILE "vocals.wav"
      >
    >
  >
  <TRACK '{6B7F9B4B-FF4E-4CE6-9E2D-4C9BD5DAED77}'
    NAME "PART GUITAR"
    PEAKCOL 33488896
    BEAT -1
    AUTOMODE 0
    VOLPAN 1.00000000000000 0.00000000000000 -1.00000000000000 -1.00000000000000 1.00000000000000
    MUTESOLO 0 0 0
    IPHASE 0
    ISBUS 0 0
    BUSCOMP 1 0
    SHOWINMIX 1 0.666700 0.500000 1 0.500000 -1 -1 -1
    FREEMODE 0
    SEL 0
    REC 0 4096 1 7 0 0 0
    TRACKHEIGHT 0 0
    INQ 0 0 0 0.5000000000 100 0 0 100
    NCHAN 2
    FX 1
    TRACKID {6B7F9B4B-FF4E-4CE6-9E2D-4C9BD5DAED77}
    PERF 0
    MIDIOUT -1
    <MIDINOTENAMES
      0 116 "OVERDRIVE"
      0 102 "Force HOPO Off"
      0 101 "Force HOPO On"
      0 100 "EXPERT Orange"
      0 99 "EXPERT Blue"
      0 98 "EXPERT Yellow"
      0 97 "EXPERT Red"
      0 96 "EXPERT Green"
      0 88 "HARD Orange"
      0 87 "HARD Blue"
      0 86 "HARD Yellow"
      0 85 "HARD Red"
      0 84 "HARD Green"
      0 76 "MEDIUM Orange"
      0 75 "MEDIUM Blue"
      0 74 "MEDIUM Yellow"
      0 73 "MEDIUM Red"
      0 72 "MEDIUM Green"
      0 64 "EASY Orange"
      0 63 "EASY Blue"
      0 62 "EASY Yellow"
      0 61 "EASY Red"
      0 60 "EASY Green"
      0 59 "Left Hand Highest"
      0 40 "Left Hand Lowest"
      0 58 "-"
      0 57 "-"
      0 56 "-"
      0 55 "-"
      0 54 "-"
      0 53 "-"
      0 52 "-"
      0 51 "-"
      0 50 "-"
      0 49 "-"
      0 48 "-"
      0 47 "-"
      0 46 "-"
      0 45 "-"
      0 44 "-"
      0 43 "-"
      0 42 "-"
      0 41 "-"
      0 115 "----"
      0 95 "----"
      0 89 "Force HOPO On"
      0 77 "----"
      0 65 "----"
      0 119 "----"
      0 120 "BRE (use all 5)"
      0 121 "BRE"
      0 122 "BRE"
      0 123 "BRE"
      0 124 "BRE"
      0 90 "Force HOPO Off"
      0 103 "Solo Marker"
      0 127 "Trill Marker"
      0 125 "----"
      0 126 "Strum Marker"
    >
    MAINSEND 1 0
    <FXCHAIN
      WNDRECT 0 38 878 585
      SHOW 0
      LASTSEL 1
      DOCKED 0
      BYPASS 1 0
      <VST "VSTi: ReaSynth (Cockos)" "reasynth.dll" 0 ""
        eXNlcu9e7f4AAAAAAgAAAAEAAAAAAAAAAgAAAAAAAAA4AAAAAAAAAA==
        AAAAAO++rd4N8K3eAAAAAAAAAAAAAAAAAAAAADm0SD59y9s+tbSxOQ==
        AAAAALbz/T5VpCs6AAAAAAAAAAAAAAAAAAA=
      >
      FLOATPOS 0 0 0 0
      FXID {52B28C73-185B-48E4-B8F4-1FD7A8848B0F}
      WAK 0
      BYPASS 0 0
      <VST "VSTi: RBN Preview (RBN)" "rbprev_vst64_beta.dll" 0 ""
        dnBicu5e7f4AAAAAAgAAAAEAAAAAAAAAAgAAAAAAAAAEAAAAAQAAAA==
        AAAAAAMAqgAAAAAAAAA=
      >
      FLOATPOS 32 32 659 497
      FXID {190BBB08-7A86-476B-BD07-5F71F5CD6F7C}
      WAK 0
    >
    <ITEM
      POSITION 0.00000000000000
      SNAPOFFS 0.00000000000000
      LENGTH 183.05106848205489
      LOOP 0
      ALLTAKES 0
      SEL 0
      FADEIN 1 0.000000 0.000000 1 0
      FADEOUT 1 0.000000 0.000000 1 0
      MUTE 0
      IGUID {81210F06-DA35-41E7-BA75-C6E1C5689733}
      IID 9
      NAME "PART GUITAR"
      VOLPAN 1.000000 0.000000 1.000000 -1.000000
      SOFFS 0.00000000000000 0.00000000000000
      PLAYRATE 1.00000000000000 1 0.00000000000000 -65536
      CHANMODE 0
      GUID {61757875-B3D4-49E4-8483-EE351B7D2386}
      <SOURCE MIDI
        HASDATA 1 480 QN
        POOLEDEVTS {56CD15CF-5E0E-4C9B-B271-C3F397D5A903}
        <X 0 0
          /wNQQVJUIEdVSVRBUg==
        >
        <X 3840 0
          /wFbcGxheV0=
        >
        E 0 90 3d 60
        E 0 90 49 60
        E 0 90 55 60
        E 0 90 61 60
        E 60 80 3d 00
        E 0 80 49 00
        E 0 80 55 00
        E 0 80 61 00
        E 420 90 3d 60
        E 0 90 49 60
        E 0 90 55 60
        E 0 90 61 60
        E 60 80 3d 00
        E 0 80 49 00
        E 0 80 55 00
        E 0 80 61 00
        E 1620 90 49 60
        E 0 90 55 60
        E 0 90 61 60
        E 60 80 49 00
        E 0 80 55 00
        E 0 80 61 00
        E 420 90 55 60
        E 0 90 61 60
        E 60 80 55 00
        E 0 80 61 00
        E 180 90 3c 60
        E 0 90 48 60
        E 0 90 54 60
        E 0 90 60 60
        E 60 80 3c 00
        E 0 80 48 00
        E 0 80 54 00
        E 0 80 60 00
        E 180 90 54 60
        E 0 90 60 60
        E 60 80 54 00
        E 0 80 60 00
        E 180 90 49 60
        E 0 90 55 60
        E 0 90 61 60
        E 60 80 49 00
        E 0 80 55 00
        E 0 80 61 00
        E 420 90 3c 60
        E 0 90 48 60
        E 0 90 54 60
        E 0 90 60 60
        E 30 80 3c 00
        E 0 80 48 00
        E 0 80 54 00
        E 0 80 60 00
        E 90 90 60 60
        E 30 80 60 00
        E 90 90 56 60
        E 0 90 62 60
        E 30 80 56 00
        E 0 80 62 00
        E 90 90 62 60
        E 30 80 62 00
        E 90 90 3c 60
        E 0 90 48 60
        E 0 90 54 60
        E 0 90 60 60
        E 30 80 3c 00
        E 0 80 48 00
        E 0 80 54 00
        E 0 80 60 00
        E 89 90 60 60
        E 30 80 60 00
        E 90 90 56 60
        E 0 90 62 60
        E 30 80 56 00
        E 0 80 62 00
        E 90 90 62 60
        E 30 80 62 00
        E 91 90 3c 60
        E 0 90 48 60
        E 0 90 54 60
        E 0 90 60 60
        E 30 80 3c 00
        E 0 80 48 00
        E 0 80 54 00
        E 0 80 60 00
        E 89 90 60 60
        E 30 80 60 00
        E 90 90 56 60
        E 0 90 62 60
        E 30 80 56 00
        E 0 80 62 00
        E 90 90 62 60
        E 30 80 62 00
        E 91 90 3c 60
        E 0 90 48 60
        E 0 90 54 60
        E 0 90 60 60
        E 30 80 3c 00
        E 0 80 48 00
        E 0 80 54 00
        E 0 80 60 00
        E 89 90 60 60
        E 30 80 60 00
        E 90 90 56 60
        E 0 90 62 60
        E 30 80 56 00
        E 0 80 62 00
        E 90 90 62 60
        E 30 80 62 00
        E 91 90 3c 60
        E 0 90 48 60
        E 0 90 54 60
        E 0 90 60 60
        E 30 80 3c 00
        E 0 80 48 00
        E 0 80 54 00
        E 0 80 60 00
        E 90 90 60 60
        E 30 80 60 00
        E 90 90 56 60
        E 0 90 62 60
        E 30 80 56 00
        E 0 80 62 00
        E 90 90 62 60
        E 30 80 62 00
        E 90 90 3c 60
        E 0 90 48 60
        E 0 90 54 60
        E 0 90 60 60
        E 30 80 3c 00
        E 0 80 48 00
        E 0 80 54 00
        E 0 80 60 00
        E 89 90 60 60
        E 30 80 60 00
        E 90 90 56 60
        E 0 90 62 60
        E 30 80 56 00
        E 0 80 62 00
        E 90 90 62 60
        E 30 80 62 00
        E 91 90 3c 60
        E 0 90 48 60
        E 0 90 54 60
        E 0 90 60 60
        E 30 80 3c 00
        E 0 80 48 00
        E 0 80 54 00
        E 0 80 60 00
        E 89 90 60 60
        E 30 80 60 00
        E 90 90 56 60
        E 0 90 62 60
        E 30 80 56 00
        E 0 80 62 00
        E 90 90 62 60
        E 30 80 62 00
        E 91 90 3c 60
        E 0 90 48 60
        E 0 90 54 60
        E 0 90 60 60
        E 30 80 3c 00
        E 0 80 48 00
        E 0 80 54 00
        E 0 80 60 00
        E 89 90 60 60
        E 30 80 60 00
        E 90 90 56 60
        E 0 90 62 60
        E 30 80 56 00
        E 0 80 62 00
        E 90 90 62 60
        E 30 80 62 00
        E 91 90 3c 60
        E 0 90 48 60
        E 0 90 54 60
        E 0 90 60 60
        E 30 80 3c 00
        E 0 80 48 00
        E 0 80 54 00
        E 0 80 60 00
        E 90 90 60 60
        E 30 80 60 00
        E 90 90 56 60
        E 0 90 62 60
        E 30 80 56 00
        E 0 80 62 00
        E 90 90 62 60
        E 30 80 62 00
        E 90 90 3c 60
        E 0 90 48 60
        E 0 90 54 60
        E 0 90 60 60
        E 30 80 3c 00
        E 0 80 48 00
        E 0 80 54 00
        E 0 80 60 00
        E 89 90 60 60
        E 30 80 60 00
        E 90 90 56 60
        E 0 90 62 60
        E 30 80 56 00
        E 0 80 62 00
        E 90 90 62 60
        E 30 80 62 00
        E 91 90 3c 60
        E 0 90 48 60
        E 0 90 54 60
        E 0 90 60 60
        E 30 80 3c 00
        E 0 80 48 00
        E 0 80 54 00
        E 0 80 60 00
        E 89 90 60 60
        E 30 80 60 00
        E 90 90 56 60
        E 0 90 62 60
        E 30 80 56 00
        E 0 80 62 00
        E 90 90 62 60
        E 30 80 62 00
        E 91 90 3c 60
        E 0 90 48 60
        E 0 90 54 60
        E 0 90 60 60
        E 30 80 3c 00
        E 0 80 48 00
        E 0 80 54 00
        E 0 80 60 00
        E 89 90 60 60
        E 30 80 60 00
        E 90 90 56 60
        E 0 90 62 60
        E 30 80 56 00
        E 0 80 62 00
        E 90 90 62 60
        E 30 80 62 00
        E 91 90 3c 60
        E 0 90 48 60
        E 0 90 54 60
        E 0 90 60 60
        E 30 80 3c 00
        E 0 80 48 00
        E 0 80 54 00
        E 0 80 60 00
        E 90 90 60 60
        E 30 80 60 00
        E 90 90 56 60
        E 0 90 62 60
        E 30 80 56 00
        E 0 80 62 00
        E 90 90 62 60
        E 30 80 62 00
        E 90 90 3c 60
        E 0 90 48 60
        E 0 90 54 60
        E 0 90 60 60
        E 30 80 3c 00
        E 0 80 48 00
        E 0 80 54 00
        E 0 80 60 00
        E 89 90 60 60
        E 30 80 60 00
        E 90 90 56 60
        E 0 90 62 60
        E 30 80 56 00
        E 0 80 62 00
        E 90 90 62 60
        E 30 80 62 00
        E 91 90 3c 60
        E 0 90 48 60
        E 0 90 54 60
        E 0 90 60 60
        E 30 80 3c 00
        E 0 80 48 00
        E 0 80 54 00
        E 0 80 60 00
        E 89 90 60 60
        E 30 80 60 00
        E 90 90 56 60
        E 0 90 62 60
        E 30 80 56 00
        E 0 80 62 00
        E 90 90 62 60
        E 30 80 62 00
        E 91 90 3c 60
        E 0 90 48 60
        E 0 90 54 60
        E 0 90 60 60
        E 30 80 3c 00
        E 0 80 48 00
        E 0 80 54 00
        E 0 80 60 00
        E 89 90 60 60
        E 30 80 60 00
        E 90 90 56 60
        E 0 90 62 60
        E 30 80 56 00
        E 0 80 62 00
        E 90 90 62 60
        E 30 80 62 00
        E 91 90 3c 60
        E 0 90 48 60
        E 0 90 54 60
        E 0 90 60 60
        E 30 80 3c 00
        E 0 80 48 00
        E 0 80 54 00
        E 0 80 60 00
        E 90 90 60 60
        E 30 80 60 00
        E 90 90 56 60
        E 0 90 62 60
        E 30 80 56 00
        E 0 80 62 00
        E 90 90 62 60
        E 30 80 62 00
        E 90 90 3c 60
        E 0 90 48 60
        E 0 90 54 60
        E 0 90 60 60
        E 30 80 3c 00
        E 0 80 48 00
        E 0 80 54 00
        E 0 80 60 00
        E 89 90 60 60
        E 30 80 60 00
        E 90 90 56 60
        E 0 90 62 60
        E 30 80 56 00
        E 0 80 62 00
        E 90 90 62 60
        E 30 80 62 00
        E 91 90 3c 60
        E 0 90 48 60
        E 0 90 54 60
        E 0 90 60 60
        E 30 80 3c 00
        E 0 80 48 00
        E 0 80 54 00
        E 0 80 60 00
        E 89 90 60 60
        E 30 80 60 00
        E 90 90 56 60
        E 0 90 62 60
        E 30 80 56 00
        E 0 80 62 00
        E 90 90 62 60
        E 30 80 62 00
        E 91 90 48 60
        E 0 90 54 60
        E 0 90 60 60
        E 30 80 48 00
        E 0 80 54 00
        E 0 80 60 00
        E 89 90 60 60
        E 30 80 60 00
        E 90 90 56 60
        E 0 90 62 60
        E 30 80 56 00
        E 0 80 62 00
        E 90 90 62 60
        E 30 80 62 00
        E 91 90 3d 60
        E 0 90 49 60
        E 0 90 55 60
        E 0 90 61 60
        E 30 80 3d 00
        E 0 80 49 00
        E 0 80 55 00
        E 0 80 61 00
        E 90 90 61 60
        E 30 80 61 00
        E 90 90 57 60
        E 0 90 63 60
        E 30 80 57 00
        E 0 80 63 00
        E 90 90 63 60
        E 30 80 63 00
        E 90 90 3d 60
        E 0 90 49 60
        E 0 90 55 60
        E 0 90 61 60
        E 30 80 3d 00
        E 0 80 49 00
        E 0 80 55 00
        E 0 80 61 00
        E 89 90 61 60
        E 30 80 61 00
        E 90 90 57 60
        E 0 90 63 60
        E 30 80 57 00
        E 0 80 63 00
        E 90 90 63 60
        E 30 80 63 00
        E 91 90 3d 60
        E 0 90 49 60
        E 0 90 55 60
        E 0 90 61 60
        E 30 80 3d 00
        E 0 80 49 00
        E 0 80 55 00
        E 0 80 61 00
        E 89 90 61 60
        E 30 80 61 00
        E 90 90 57 60
        E 0 90 63 60
        E 30 80 57 00
        E 0 80 63 00
        E 90 90 63 60
        E 30 80 63 00
        E 91 90 49 60
        E 0 90 55 60
        E 0 90 61 60
        E 30 80 49 00
        E 0 80 55 00
        E 0 80 61 00
        E 89 90 61 60
        E 30 80 61 00
        E 90 90 57 60
        E 0 90 63 60
        E 30 80 57 00
        E 0 80 63 00
        E 90 90 63 60
        E 30 80 63 00
        E 91 90 3c 60
        E 0 90 48 60
        E 0 90 54 60
        E 0 90 60 60
        E 30 80 3c 00
        E 0 80 48 00
        E 0 80 54 00
        E 0 80 60 00
        E 90 90 60 60
        E 30 80 60 00
        E 90 90 56 60
        E 0 90 62 60
        E 30 80 56 00
        E 0 80 62 00
        E 90 90 62 60
        E 30 80 62 00
        E 90 90 3c 60
        E 0 90 48 60
        E 0 90 54 60
        E 0 90 60 60
        E 30 80 3c 00
        E 0 80 48 00
        E 0 80 54 00
        E 0 80 60 00
        E 89 90 60 60
        E 30 80 60 00
        E 90 90 56 60
        E 0 90 62 60
        E 30 80 56 00
        E 0 80 62 00
        E 90 90 62 60
        E 30 80 62 00
        E 91 90 3c 60
        E 0 90 48 60
        E 0 90 54 60
        E 0 90 60 60
        E 30 80 3c 00
        E 0 80 48 00
        E 0 80 54 00
        E 0 80 60 00
        E 89 90 60 60
        E 30 80 60 00
        E 90 90 56 60
        E 0 90 62 60
        E 30 80 56 00
        E 0 80 62 00
        E 90 90 62 60
        E 30 80 62 00
        E 91 90 3c 60
        E 0 90 48 60
        E 0 90 54 60
        E 0 90 60 60
        E 30 80 3c 00
        E 0 80 48 00
        E 0 80 54 00
        E 0 80 60 00
        E 89 90 60 60
        E 30 80 60 00
        E 90 90 56 60
        E 0 90 62 60
        E 30 80 56 00
        E 0 80 62 00
        E 90 90 62 60
        E 30 80 62 00
        E 91 90 3c 60
        E 0 90 48 60
        E 0 90 54 60
        E 0 90 60 60
        E 30 80 3c 00
        E 0 80 48 00
        E 0 80 54 00
        E 0 80 60 00
        E 90 90 60 60
        E 30 80 60 00
        E 90 90 55 60
        E 0 90 61 60
        E 30 80 55 00
        E 0 80 61 00
        E 90 90 61 60
        E 30 80 61 00
        E 90 90 3c 60
        E 0 90 48 60
        E 0 90 54 60
        E 0 90 60 60
        E 30 80 3c 00
        E 0 80 48 00
        E 0 80 54 00
        E 0 80 60 00
        E 89 90 60 60
        E 30 80 60 00
        E 90 90 55 60
        E 0 90 61 60
        E 30 80 55 00
        E 0 80 61 00
        E 90 90 61 60
        E 30 80 61 00
        E 91 90 3c 60
        E 0 90 48 60
        E 0 90 54 60
        E 0 90 60 60
        E 30 80 3c 00
        E 0 80 48 00
        E 0 80 54 00
        E 0 80 60 00
        E 89 90 60 60
        E 30 80 60 00
        E 90 90 55 60
        E 0 90 61 60
        E 30 80 55 00
        E 0 80 61 00
        E 90 90 61 60
        E 30 80 61 00
        E 91 90 3c 60
        E 0 90 48 60
        E 0 90 54 60
        E 0 90 60 60
        E 30 80 3c 00
        E 0 80 48 00
        E 0 80 54 00
        E 0 80 60 00
        E 89 90 60 60
        E 30 80 60 00
        E 90 90 55 60
        E 0 90 61 60
        E 30 80 55 00
        E 0 80 61 00
        E 90 90 61 60
        E 30 80 61 00
        E 91 90 3c 60
        E 0 90 48 60
        E 0 90 54 60
        E 0 90 60 60
        E 30 80 3c 00
        E 0 80 48 00
        E 0 80 54 00
        E 0 80 60 00
        E 90 90 60 60
        E 30 80 60 00
        E 90 90 55 60
        E 0 90 61 60
        E 30 80 55 00
        E 0 80 61 00
        E 90 90 61 60
        E 30 80 61 00
        E 90 90 3c 60
        E 0 90 48 60
        E 0 90 54 60
        E 0 90 60 60
        E 30 80 3c 00
        E 0 80 48 00
        E 0 80 54 00
        E 0 80 60 00
        E 89 90 60 60
        E 30 80 60 00
        E 90 90 55 60
        E 0 90 61 60
        E 30 80 55 00
        E 0 80 61 00
        E 90 90 61 60
        E 30 80 61 00
        E 91 90 3c 60
        E 0 90 48 60
        E 0 90 54 60
        E 0 90 60 60
        E 30 80 3c 00
        E 0 80 48 00
        E 0 80 54 00
        E 0 80 60 00
        E 89 90 60 60
        E 30 80 60 00
        E 90 90 55 60
        E 0 90 61 60
        E 30 80 55 00
        E 0 80 61 00
        E 90 90 61 60
        E 30 80 61 00
        E 91 90 3c 60
        E 0 90 48 60
        E 0 90 54 60
        E 0 90 60 60
        E 30 80 3c 00
        E 0 80 48 00
        E 0 80 54 00
        E 0 80 60 00
        E 89 90 60 60
        E 30 80 60 00
        E 90 90 55 60
        E 0 90 61 60
        E 30 80 55 00
        E 0 80 61 00
        E 90 90 61 60
        E 30 80 61 00
        E 91 90 3c 60
        E 0 90 48 60
        E 0 90 54 60
        E 0 90 60 60
        E 30 80 3c 00
        E 0 80 48 00
        E 0 80 54 00
        E 0 80 60 00
        E 90 90 60 60
        E 30 80 60 00
        E 90 90 55 60
        E 0 90 61 60
        E 30 80 55 00
        E 0 80 61 00
        E 90 90 61 60
        E 30 80 61 00
        E 90 90 3c 60
        E 0 90 48 60
        E 0 90 54 60
        E 0 90 60 60
        E 30 80 3c 00
        E 0 80 48 00
        E 0 80 54 00
        E 0 80 60 00
        E 89 90 60 60
        E 30 80 60 00
        E 90 90 55 60
        E 0 90 61 60
        E 30 80 55 00
        E 0 80 61 00
        E 90 90 61 60
        E 30 80 61 00
        E 91 90 3c 60
        E 0 90 48 60
        E 0 90 54 60
        E 0 90 60 60
        E 30 80 3c 00
        E 0 80 48 00
        E 0 80 54 00
        E 0 80 60 00
        E 89 90 60 60
        E 30 80 60 00
        E 90 90 55 60
        E 0 90 61 60
        E 30 80 55 00
        E 0 80 61 00
        E 90 90 61 60
        E 30 80 61 00
        E 91 90 3c 60
        E 0 90 48 60
        E 0 90 54 60
        E 0 90 60 60
        E 30 80 3c 00
        E 0 80 48 00
        E 0 80 54 00
        E 0 80 60 00
        E 89 90 60 60
        E 30 80 60 00
        E 90 90 55 60
        E 0 90 61 60
        E 30 80 55 00
        E 0 80 61 00
        E 90 90 61 60
        E 30 80 61 00
        E 91 90 3c 60
        E 0 90 48 60
        E 0 90 54 60
        E 0 90 60 60
        E 30 80 3c 00
        E 0 80 48 00
        E 0 80 54 00
        E 0 80 60 00
        E 89 90 60 60
        E 30 80 60 00
        E 90 90 55 60
        E 0 90 61 60
        E 30 80 55 00
        E 0 80 61 00
        E 90 90 61 60
        E 30 80 61 00
        E 91 90 3c 60
        E 0 90 48 60
        E 0 90 54 60
        E 0 90 60 60
        E 30 80 3c 00
        E 0 80 48 00
        E 0 80 54 00
        E 0 80 60 00
        E 89 90 60 60
        E 30 80 60 00
        E 90 90 55 60
        E 0 90 61 60
        E 30 80 55 00
        E 0 80 61 00
        E 90 90 61 60
        E 30 80 61 00
        E 91 90 3c 60
        E 0 90 48 60
        E 0 90 54 60
        E 0 90 60 60
        E 30 80 3c 00
        E 0 80 48 00
        E 0 80 54 00
        E 0 80 60 00
        E 89 90 60 60
        E 30 80 60 00
        E 90 90 55 60
        E 0 90 61 60
        E 30 80 55 00
        E 0 80 61 00
        E 90 90 61 60
        E 30 80 61 00
        E 91 90 3c 60
        E 0 90 48 60
        E 0 90 54 60
        E 0 90 60 60
        E 30 80 3c 00
        E 0 80 48 00
        E 0 80 54 00
        E 0 80 60 00
        E 89 90 60 60
        E 30 80 60 00
        E 90 90 55 60
        E 0 90 61 60
        E 30 80 55 00
        E 0 80 61 00
        E 90 90 61 60
        E 30 80 61 00
        E 2011 90 3c 60
        E 0 90 48 60
        E 0 90 54 60
        E 0 90 60 60
        E 60 80 3c 00
        E 0 80 48 00
        E 0 80 54 00
        E 0 80 60 00
        E 180 90 55 60
        E 0 90 61 60
        E 60 80 55 00
        E 0 80 61 00
        E 420 90 55 60
        E 0 90 61 60
        E 60 80 55 00
        E 0 80 61 00
        E 180 90 3c 60
        E 0 90 48 60
        E 0 90 54 60
        E 0 90 60 60
        E 60 80 3c 00
        E 0 80 48 00
        E 0 80 54 00
        E 0 80 60 00
        E 180 90 54 60
        E 0 90 60 60
        E 60 80 54 00
        E 0 80 60 00
        E 180 90 49 60
        E 0 90 55 60
        E 0 90 61 60
        E 60 80 49 00
        E 0 80 55 00
        E 0 80 61 00
        E 180 90 49 60
        E 0 90 55 60
        E 0 90 61 60
        E 60 80 49 00
        E 0 80 55 00
        E 0 80 61 00
        E 420 90 49 60
        E 0 90 55 60
        E 0 90 61 60
        E 60 80 49 00
        E 0 80 55 00
        E 0 80 61 00
        E 420 90 55 60
        E 0 90 61 60
        E 60 80 55 00
        E 0 80 61 00
        E 180 90 3c 60
        E 0 90 48 60
        E 0 90 54 60
        E 0 90 60 60
        E 60 80 3c 00
        E 0 80 48 00
        E 0 80 54 00
        E 0 80 60 00
        E 180 90 54 60
        E 0 90 60 60
        E 60 80 54 00
        E 0 80 60 00
        E 180 90 49 60
        E 0 90 55 60
        E 0 90 61 60
        E 60 80 49 00
        E 0 80 55 00
        E 0 80 61 00
        E 180 90 49 60
        E 0 90 55 60
        E 0 90 61 60
        E 60 80 49 00
        E 0 80 55 00
        E 0 80 61 00
        E 420 90 3e 60
        E 0 90 4a 60
        E 0 90 56 60
        E 0 90 62 60
        E 60 80 3e 00
        E 0 80 4a 00
        E 0 80 56 00
        E 0 80 62 00
        E 420 90 4a 60
        E 0 90 56 60
        E 0 90 62 60
        E 60 80 4a 00
        E 0 80 56 00
        E 0 80 62 00
        E 180 90 3e 60
        E 0 90 4a 60
        E 0 90 56 60
        E 0 90 62 60
        E 60 80 3e 00
        E 0 80 4a 00
        E 0 80 56 00
        E 0 80 62 00
        E 180 90 56 60
        E 0 90 62 60
        E 60 80 56 00
        E 0 80 62 00
        E 180 90 4b 60
        E 0 90 57 60
        E 0 90 63 60
        E 60 80 4b 00
        E 0 80 57 00
        E 0 80 63 00
        E 180 90 4b 60
        E 0 90 57 60
        E 0 90 63 60
        E 60 80 4b 00
        E 0 80 57 00
        E 0 80 63 00
        E 420 90 3e 60
        E 0 90 4a 60
        E 0 90 56 60
        E 0 90 62 60
        E 60 80 3e 00
        E 0 80 4a 00
        E 0 80 56 00
        E 0 80 62 00
        E 420 90 4a 60
        E 0 90 56 60
        E 0 90 62 60
        E 60 80 4a 00
        E 0 80 56 00
        E 0 80 62 00
        E 180 90 3e 60
        E 0 90 4a 60
        E 0 90 56 60
        E 0 90 62 60
        E 60 80 3e 00
        E 0 80 4a 00
        E 0 80 56 00
        E 0 80 62 00
        E 180 90 56 60
        E 0 90 62 60
        E 60 80 56 00
        E 0 80 62 00
        E 180 90 4b 60
        E 0 90 57 60
        E 0 90 63 60
        E 60 80 4b 00
        E 0 80 57 00
        E 0 80 63 00
        E 180 90 56 60
        E 0 90 62 60
        E 60 80 56 00
        E 0 80 62 00
        E 420 90 49 60
        E 0 90 55 60
        E 0 90 61 60
        E 60 80 49 00
        E 0 80 55 00
        E 0 80 61 00
        E 420 90 55 60
        E 0 90 61 60
        E 60 80 55 00
        E 0 80 61 00
        E 180 90 3c 60
        E 0 90 48 60
        E 0 90 54 60
        E 0 90 60 60
        E 60 80 3c 00
        E 0 80 48 00
        E 0 80 54 00
        E 0 80 60 00
        E 180 90 54 60
        E 0 90 60 60
        E 60 80 54 00
        E 0 80 60 00
        E 180 90 49 60
        E 0 90 55 60
        E 0 90 61 60
        E 60 80 49 00
        E 0 80 55 00
        E 0 80 61 00
        E 180 90 49 60
        E 0 90 55 60
        E 0 90 61 60
        E 60 80 49 00
        E 0 80 55 00
        E 0 80 61 00
        E 369 90 74 5b
        E 51 90 49 60
        E 0 90 55 60
        E 0 90 61 60
        E 60 80 49 00
        E 0 80 55 00
        E 0 80 61 00
        E 420 90 55 60
        E 0 90 61 60
        E 60 80 55 00
        E 0 80 61 00
        E 180 90 3c 60
        E 0 90 48 60
        E 0 90 54 60
        E 0 90 60 60
        E 60 80 3c 00
        E 0 80 48 00
        E 0 80 54 00
        E 0 80 60 00
        E 180 90 54 60
        E 0 90 60 60
        E 60 80 54 00
        E 0 80 60 00
        E 180 90 49 60
        E 0 90 55 60
        E 0 90 61 60
        E 60 80 49 00
        E 0 80 55 00
        E 0 80 61 00
        E 420 90 3c 60
        E 0 90 48 60
        E 0 90 54 60
        E 0 90 60 60
        E 30 80 3c 00
        E 0 80 48 00
        E 0 80 54 00
        E 0 80 60 00
        E 89 90 60 60
        E 30 80 60 00
        E 90 90 56 60
        E 0 90 62 60
        E 30 80 56 00
        E 0 80 62 00
        E 90 90 62 60
        E 30 80 62 00
        E 91 90 3c 60
        E 0 90 48 60
        E 0 90 54 60
        E 0 90 60 60
        E 30 80 3c 00
        E 0 80 48 00
        E 0 80 54 00
        E 0 80 60 00
        E 89 90 60 60
        E 30 80 60 00
        E 90 90 56 60
        E 0 90 62 60
        E 30 80 56 00
        E 0 80 62 00
        E 90 90 62 60
        E 30 80 62 00
        E 91 90 3c 60
        E 0 90 48 60
        E 0 90 54 60
        E 0 90 60 60
        E 30 80 3c 00
        E 0 80 48 00
        E 0 80 54 00
        E 0 80 60 00
        E 89 90 60 60
        E 30 80 60 00
        E 90 90 56 60
        E 0 90 62 60
        E 30 80 56 00
        E 0 80 62 00
        E 90 90 62 60
        E 30 80 62 00
        E 91 90 3c 60
        E 0 90 48 60
        E 0 90 54 60
        E 0 90 60 60
        E 30 80 3c 00
        E 0 80 48 00
        E 0 80 54 00
        E 0 80 60 00
        E 89 90 60 60
        E 30 80 60 00
        E 90 90 56 60
        E 0 90 62 60
        E 30 80 56 00
        E 0 80 62 00
        E 90 90 62 60
        E 30 80 62 00
        E 110 80 74 00
        E 1901 90 3c 60
        E 0 90 48 60
        E 0 90 54 60
        E 0 90 60 60
        E 1440 80 3c 00
        E 0 80 48 00
        E 360 80 54 00
        E 60 80 60 00
        E 60 90 3d 60
        E 0 90 49 60
        E 0 90 55 60
        E 0 90 61 60
        E 1440 80 3d 00
        E 0 80 49 00
        E 360 80 55 00
        E 60 80 61 00
        E 60 90 3c 60
        E 0 90 48 60
        E 0 90 54 60
        E 0 90 60 60
        E 40 80 3c 00
        E 0 80 48 00
        E 0 80 54 00
        E 0 80 60 00
        E 120 90 60 60
        E 40 80 60 00
        E 120 90 54 60
        E 0 90 60 60
        E 40 80 54 00
        E 0 80 60 00
        E 360 90 48 60
        E 0 90 54 60
        E 0 90 60 60
        E 60 80 48 00
        E 0 80 54 00
        E 0 80 60 00
        E 420 90 3c 60
        E 0 90 48 60
        E 0 90 54 60
        E 0 90 60 60
        E 60 80 3c 00
        E 0 80 48 00
        E 0 80 54 00
        E 0 80 60 00
        E 420 90 48 60
        E 0 90 54 60
        E 0 90 60 60
        E 60 80 48 00
        E 0 80 54 00
        E 0 80 60 00
        E 180 90 3c 60
        E 0 90 48 60
        E 0 90 54 60
        E 0 90 60 60
        E 40 80 3c 00
        E 0 80 48 00
        E 0 80 54 00
        E 0 80 60 00
        E 120 90 60 60
        E 40 80 60 00
        E 120 90 54 60
        E 0 90 60 60
        E 40 80 54 00
        E 0 80 60 00
        E 360 90 48 60
        E 0 90 54 60
        E 0 90 60 60
        E 60 80 48 00
        E 0 80 54 00
        E 0 80 60 00
        E 420 90 3c 60
        E 0 90 48 60
        E 0 90 54 60
        E 0 90 60 60
        E 60 80 3c 00
        E 0 80 48 00
        E 0 80 54 00
        E 0 80 60 00
        E 420 90 48 60
        E 0 90 54 60
        E 0 90 60 60
        E 60 80 48 00
        E 0 80 54 00
        E 0 80 60 00
        E 180 90 3c 60
        E 0 90 48 60
        E 0 90 54 60
        E 0 90 60 60
        E 40 80 3c 00
        E 0 80 48 00
        E 0 80 54 00
        E 0 80 60 00
        E 120 90 60 60
        E 40 80 60 00
        E 120 90 54 60
        E 0 90 60 60
        E 40 80 54 00
        E 0 80 60 00
        E 360 90 49 60
        E 0 90 55 60
        E 0 90 61 60
        E 60 80 49 00
        E 0 80 55 00
        E 0 80 61 00
        E 420 90 49 60
        E 0 90 55 60
        E 0 90 61 60
        E 60 80 49 00
        E 0 80 55 00
        E 0 80 61 00
        E 420 90 48 60
        E 0 90 54 60
        E 0 90 60 60
        E 60 80 48 00
        E 0 80 54 00
        E 0 80 60 00
        E 180 90 3c 60
        E 0 90 48 60
        E 0 90 54 60
        E 0 90 60 60
        E 40 80 3c 00
        E 0 80 48 00
        E 0 80 54 00
        E 0 80 60 00
        E 120 90 60 60
        E 40 80 60 00
        E 120 90 60 60
        E 40 80 60 00
        E 120 90 49 60
        E 0 90 55 60
        E 0 90 61 60
        E 40 80 49 00
        E 0 80 55 00
        E 0 80 61 00
        E 120 90 61 60
        E 40 80 61 00
        E 120 90 61 60
        E 40 80 61 00
        E 120 90 3c 60
        E 0 90 48 60
        E 0 90 54 60
        E 0 90 60 60
        E 40 80 3c 00
        E 0 80 48 00
        E 0 80 54 00
        E 0 80 60 00
        E 120 90 60 60
        E 40 80 60 00
        E 120 90 60 60
        E 40 80 60 00
        E 120 90 3c 60
        E 0 90 48 60
        E 0 90 54 60
        E 0 90 60 60
        E 40 80 3c 00
        E 0 80 48 00
        E 0 80 54 00
        E 0 80 60 00
        E 120 90 60 60
        E 40 80 60 00
        E 120 90 60 60
        E 40 80 60 00
        E 120 90 3c 60
        E 0 90 48 60
        E 0 90 54 60
        E 0 90 60 60
        E 40 80 3c 00
        E 0 80 48 00
        E 0 80 54 00
        E 0 80 60 00
        E 120 90 60 60
        E 40 80 60 00
        E 120 90 54 60
        E 0 90 60 60
        E 40 80 54 00
        E 0 80 60 00
        E 360 90 48 60
        E 0 90 54 60
        E 0 90 60 60
        E 60 80 48 00
        E 0 80 54 00
        E 0 80 60 00
        E 420 90 3c 60
        E 0 90 48 60
        E 0 90 54 60
        E 0 90 60 60
        E 60 80 3c 00
        E 0 80 48 00
        E 0 80 54 00
        E 0 80 60 00
        E 420 90 48 60
        E 0 90 54 60
        E 0 90 60 60
        E 60 80 48 00
        E 0 80 54 00
        E 0 80 60 00
        E 180 90 3c 60
        E 0 90 48 60
        E 0 90 54 60
        E 0 90 60 60
        E 40 80 3c 00
        E 0 80 48 00
        E 0 80 54 00
        E 0 80 60 00
        E 120 90 60 60
        E 40 80 60 00
        E 120 90 54 60
        E 0 90 60 60
        E 40 80 54 00
        E 0 80 60 00
        E 360 90 48 60
        E 0 90 54 60
        E 0 90 60 60
        E 60 80 48 00
        E 0 80 54 00
        E 0 80 60 00
        E 420 90 3c 60
        E 0 90 48 60
        E 0 90 54 60
        E 0 90 60 60
        E 60 80 3c 00
        E 0 80 48 00
        E 0 80 54 00
        E 0 80 60 00
        e 360 90 74 60
        E 60 90 48 60
        E 0 90 54 60
        E 0 90 60 60
        E 60 80 48 00
        E 0 80 54 00
        E 0 80 60 00
        E 180 90 3c 60
        E 0 90 48 60
        E 0 90 54 60
        E 0 90 60 60
        E 40 80 3c 00
        E 0 80 48 00
        E 0 80 54 00
        E 0 80 60 00
        E 120 90 60 60
        E 40 80 60 00
        E 120 90 54 60
        E 0 90 60 60
        E 40 80 54 00
        E 0 80 60 00
        E 360 90 49 60
        E 0 90 55 60
        E 0 90 61 60
        E 60 80 49 00
        E 0 80 55 00
        E 0 80 61 00
        E 420 90 49 60
        E 0 90 55 60
        E 0 90 61 60
        E 60 80 49 00
        E 0 80 55 00
        E 0 80 61 00
        E 420 90 48 60
        E 0 90 54 60
        E 0 90 60 60
        E 60 80 48 00
        E 0 80 54 00
        E 0 80 60 00
        E 180 90 3c 60
        E 0 90 48 60
        E 0 90 54 60
        E 0 90 60 60
        E 40 80 3c 00
        E 0 80 48 00
        E 0 80 54 00
        E 0 80 60 00
        E 120 90 60 60
        E 40 80 60 00
        E 120 90 60 60
        E 40 80 60 00
        E 120 90 49 60
        E 0 90 55 60
        E 0 90 61 60
        E 40 80 49 00
        E 0 80 55 00
        E 0 80 61 00
        E 120 90 61 60
        E 40 80 61 00
        E 120 90 61 60
        E 40 80 61 00
        E 120 90 3c 60
        E 0 90 48 60
        E 0 90 54 60
        E 0 90 60 60
        E 40 80 3c 00
        E 0 80 48 00
        E 0 80 54 00
        E 0 80 60 00
        E 120 90 60 60
        E 40 80 60 00
        E 120 90 60 60
        E 40 80 60 00
        E 120 90 3c 60
        E 0 90 48 60
        E 0 90 54 60
        E 0 90 60 60
        E 40 80 3c 00
        E 0 80 48 00
        E 0 80 54 00
        E 0 80 60 00
        E 120 90 60 60
        E 40 80 60 00
        E 120 90 60 60
        E 40 80 60 00
        E 120 90 3c 60
        E 0 90 48 60
        E 0 90 54 60
        E 0 90 60 60
        E 40 80 3c 00
        E 0 80 48 00
        E 0 80 54 00
        E 0 80 60 00
        E 120 90 60 60
        E 40 80 60 00
        E 120 90 54 60
        E 0 90 60 60
        E 40 80 54 00
        E 0 80 60 00
        e 119 80 74 00
        E 241 90 48 60
        E 0 90 54 60
        E 0 90 60 60
        E 60 80 48 00
        E 0 80 54 00
        E 0 80 60 00
        E 420 90 3c 60
        E 0 90 48 60
        E 0 90 54 60
        E 0 90 60 60
        E 60 80 3c 00
        E 0 80 48 00
        E 0 80 54 00
        E 0 80 60 00
        E 420 90 48 60
        E 0 90 54 60
        E 0 90 60 60
        E 60 80 48 00
        E 0 80 54 00
        E 0 80 60 00
        E 180 90 3c 60
        E 0 90 48 60
        E 0 90 54 60
        E 0 90 60 60
        E 40 80 3c 00
        E 0 80 48 00
        E 0 80 54 00
        E 0 80 60 00
        E 120 90 60 60
        E 40 80 60 00
        E 120 90 54 60
        E 0 90 60 60
        E 40 80 54 00
        E 0 80 60 00
        E 360 90 48 60
        E 0 90 54 60
        E 0 90 60 60
        E 60 80 48 00
        E 0 80 54 00
        E 0 80 60 00
        E 420 90 3c 60
        E 0 90 48 60
        E 0 90 54 60
        E 0 90 60 60
        E 60 80 3c 00
        E 0 80 48 00
        E 0 80 54 00
        E 0 80 60 00
        E 420 90 48 60
        E 0 90 54 60
        E 0 90 60 60
        E 60 80 48 00
        E 0 80 54 00
        E 0 80 60 00
        E 180 90 3c 60
        E 0 90 48 60
        E 0 90 54 60
        E 0 90 60 60
        E 40 80 3c 00
        E 0 80 48 00
        E 0 80 54 00
        E 0 80 60 00
        E 120 90 60 60
        E 40 80 60 00
        E 120 90 54 60
        E 0 90 60 60
        E 40 80 54 00
        E 0 80 60 00
        E 360 90 49 60
        E 0 90 55 60
        E 0 90 61 60
        E 60 80 49 00
        E 0 80 55 00
        E 0 80 61 00
        E 420 90 49 60
        E 0 90 55 60
        E 0 90 61 60
        E 60 80 49 00
        E 0 80 55 00
        E 0 80 61 00
        E 420 90 48 60
        E 0 90 54 60
        E 0 90 60 60
        E 60 80 48 00
        E 0 80 54 00
        E 0 80 60 00
        E 180 90 3c 60
        E 0 90 48 60
        E 0 90 54 60
        E 0 90 60 60
        E 40 80 3c 00
        E 0 80 48 00
        E 0 80 54 00
        E 0 80 60 00
        E 120 90 60 60
        E 40 80 60 00
        E 120 90 60 60
        E 40 80 60 00
        E 120 90 49 60
        E 0 90 55 60
        E 0 90 61 60
        E 40 80 49 00
        E 0 80 55 00
        E 0 80 61 00
        E 120 90 61 60
        E 40 80 61 00
        E 120 90 61 60
        E 40 80 61 00
        E 120 90 3c 60
        E 0 90 48 60
        E 0 90 54 60
        E 0 90 60 60
        E 40 80 3c 00
        E 0 80 48 00
        E 0 80 54 00
        E 0 80 60 00
        E 120 90 60 60
        E 40 80 60 00
        E 120 90 60 60
        E 40 80 60 00
        E 120 90 3c 60
        E 0 90 48 60
        E 0 90 54 60
        E 0 90 60 60
        E 40 80 3c 00
        E 0 80 48 00
        E 0 80 54 00
        E 0 80 60 00
        E 120 90 60 60
        E 40 80 60 00
        E 120 90 60 60
        E 40 80 60 00
        E 120 90 3c 60
        E 0 90 48 60
        E 0 90 54 60
        E 0 90 60 60
        E 40 80 3c 00
        E 0 80 48 00
        E 0 80 54 00
        E 0 80 60 00
        E 120 90 60 60
        E 40 80 60 00
        E 120 90 54 60
        E 0 90 60 60
        E 40 80 54 00
        E 0 80 60 00
        E 360 90 48 60
        E 0 90 54 60
        E 0 90 60 60
        E 60 80 48 00
        E 0 80 54 00
        E 0 80 60 00
        E 420 90 3c 60
        E 0 90 48 60
        E 0 90 54 60
        E 0 90 60 60
        E 60 80 3c 00
        E 0 80 48 00
        E 0 80 54 00
        E 0 80 60 00
        E 420 90 48 60
        E 0 90 54 60
        E 0 90 60 60
        E 60 80 48 00
        E 0 80 54 00
        E 0 80 60 00
        E 180 90 3c 60
        E 0 90 48 60
        E 0 90 54 60
        E 0 90 60 60
        E 40 80 3c 00
        E 0 80 48 00
        E 0 80 54 00
        E 0 80 60 00
        E 120 90 60 60
        E 40 80 60 00
        E 120 90 54 60
        E 0 90 60 60
        E 40 80 54 00
        E 0 80 60 00
        E 360 90 48 60
        E 0 90 54 60
        E 0 90 60 60
        E 60 80 48 00
        E 0 80 54 00
        E 0 80 60 00
        E 420 90 3c 60
        E 0 90 48 60
        E 0 90 54 60
        E 0 90 60 60
        E 60 80 3c 00
        E 0 80 48 00
        E 0 80 54 00
        E 0 80 60 00
        E 420 90 48 60
        E 0 90 54 60
        E 0 90 60 60
        E 60 80 48 00
        E 0 80 54 00
        E 0 80 60 00
        E 180 90 3c 60
        E 0 90 48 60
        E 0 90 54 60
        E 0 90 60 60
        E 40 80 3c 00
        E 0 80 48 00
        E 0 80 54 00
        E 0 80 60 00
        E 120 90 60 60
        E 40 80 60 00
        E 120 90 54 60
        E 0 90 60 60
        E 40 80 54 00
        E 0 80 60 00
        E 360 90 49 60
        E 0 90 55 60
        E 0 90 61 60
        E 60 80 49 00
        E 0 80 55 00
        E 0 80 61 00
        E 420 90 49 60
        E 0 90 55 60
        E 0 90 61 60
        E 60 80 49 00
        E 0 80 55 00
        E 0 80 61 00
        E 420 90 48 60
        E 0 90 54 60
        E 0 90 60 60
        E 60 80 48 00
        E 0 80 54 00
        E 0 80 60 00
        E 180 90 3c 60
        E 0 90 48 60
        E 0 90 54 60
        E 0 90 60 60
        E 40 80 3c 00
        E 0 80 48 00
        E 0 80 54 00
        E 0 80 60 00
        E 120 90 60 60
        E 40 80 60 00
        E 120 90 60 60
        E 40 80 60 00
        E 120 90 49 60
        E 0 90 55 60
        E 0 90 61 60
        E 40 80 49 00
        E 0 80 55 00
        E 0 80 61 00
        E 120 90 61 60
        E 40 80 61 00
        E 120 90 61 60
        E 40 80 61 00
        E 120 90 3c 60
        E 0 90 48 60
        E 0 90 54 60
        E 0 90 60 60
        E 40 80 3c 00
        E 0 80 48 00
        E 0 80 54 00
        E 0 80 60 00
        E 120 90 60 60
        E 40 80 60 00
        E 120 90 60 60
        E 40 80 60 00
        E 120 90 48 60
        E 0 90 54 60
        E 0 90 60 60
        E 40 80 48 00
        E 0 80 54 00
        E 0 80 60 00
        E 120 90 60 60
        E 40 80 60 00
        E 120 90 60 60
        E 40 80 60 00
        E 120 90 3e 60
        E 0 90 4a 60
        E 0 90 56 60
        E 0 90 62 60
        E 30 80 3e 00
        E 0 80 4a 00
        E 0 80 56 00
        E 0 80 62 00
        E 89 90 62 60
        E 30 80 62 00
        E 90 90 58 60
        E 0 90 64 60
        E 30 80 58 00
        E 0 80 64 00
        E 90 90 64 60
        E 30 80 64 00
        E 91 90 3e 60
        E 0 90 4a 60
        E 0 90 56 60
        E 0 90 62 60
        E 30 80 3e 00
        E 0 80 4a 00
        E 0 80 56 00
        E 0 80 62 00
        E 89 90 62 60
        E 30 80 62 00
        E 90 90 58 60
        E 0 90 64 60
        E 30 80 58 00
        E 0 80 64 00
        E 90 90 64 60
        E 30 80 64 00
        E 91 90 3e 60
        E 0 90 4a 60
        E 0 90 56 60
        E 0 90 62 60
        E 30 80 3e 00
        E 0 80 4a 00
        E 0 80 56 00
        E 0 80 62 00
        E 89 90 62 60
        E 30 80 62 00
        E 90 90 58 60
        E 0 90 64 60
        E 30 80 58 00
        E 0 80 64 00
        E 90 90 64 60
        E 30 80 64 00
        E 91 90 3e 60
        E 0 90 4a 60
        E 0 90 56 60
        E 0 90 62 60
        E 30 80 3e 00
        E 0 80 4a 00
        E 0 80 56 00
        E 0 80 62 00
        E 89 90 62 60
        E 30 80 62 00
        e 49 90 74 60
        E 41 90 58 60
        E 0 90 64 60
        E 30 80 58 00
        E 0 80 64 00
        E 90 90 64 60
        E 30 80 64 00
        E 91 90 3e 60
        E 0 90 4a 60
        E 0 90 56 60
        E 0 90 62 60
        E 30 80 3e 00
        E 0 80 4a 00
        E 0 80 56 00
        E 0 80 62 00
        E 89 90 62 60
        E 30 80 62 00
        E 90 90 58 60
        E 0 90 64 60
        E 30 80 58 00
        E 0 80 64 00
        E 90 90 64 60
        E 30 80 64 00
        E 91 90 3e 60
        E 0 90 4a 60
        E 0 90 56 60
        E 0 90 62 60
        E 30 80 3e 00
        E 0 80 4a 00
        E 0 80 56 00
        E 0 80 62 00
        E 89 90 62 60
        E 30 80 62 00
        E 90 90 58 60
        E 0 90 64 60
        E 30 80 58 00
        E 0 80 64 00
        E 90 90 64 60
        E 30 80 64 00
        E 91 90 3e 60
        E 0 90 4a 60
        E 0 90 56 60
        E 0 90 62 60
        E 30 80 3e 00
        E 0 80 4a 00
        E 0 80 56 00
        E 0 80 62 00
        E 89 90 62 60
        E 30 80 62 00
        e 6 80 74 00
        E 84 90 58 60
        E 0 90 64 60
        E 30 80 58 00
        E 0 80 64 00
        E 90 90 64 60
        E 30 80 64 00
        E 91 90 3e 60
        E 0 90 4a 60
        E 0 90 56 60
        E 0 90 62 60
        E 30 80 3e 00
        E 0 80 4a 00
        E 0 80 56 00
        E 0 80 62 00
        E 89 90 62 60
        E 30 80 62 00
        E 90 90 58 60
        E 0 90 64 60
        E 30 80 58 00
        E 0 80 64 00
        E 90 90 64 60
        E 30 80 64 00
        E 91 90 3e 60
        E 0 90 4a 60
        E 0 90 56 60
        E 0 90 62 60
        E 30 80 3e 00
        E 0 80 4a 00
        E 0 80 56 00
        E 0 80 62 00
        E 89 90 62 60
        E 30 80 62 00
        E 90 90 58 60
        E 0 90 64 60
        E 30 80 58 00
        E 0 80 64 00
        E 90 90 64 60
        E 30 80 64 00
        E 91 90 3e 60
        E 0 90 4a 60
        E 0 90 56 60
        E 0 90 62 60
        E 30 80 3e 00
        E 0 80 4a 00
        E 0 80 56 00
        E 0 80 62 00
        E 89 90 62 60
        E 30 80 62 00
        E 90 90 58 60
        E 0 90 64 60
        E 30 80 58 00
        E 0 80 64 00
        E 90 90 64 60
        E 30 80 64 00
        E 91 90 3e 60
        E 0 90 4a 60
        E 0 90 56 60
        E 0 90 62 60
        E 30 80 3e 00
        E 0 80 4a 00
        E 0 80 56 00
        E 0 80 62 00
        E 89 90 62 60
        E 30 80 62 00
        E 90 90 58 60
        E 0 90 64 60
        E 30 80 58 00
        E 0 80 64 00
        E 90 90 64 60
        E 30 80 64 00
        E 91 90 3e 60
        E 0 90 4a 60
        E 0 90 56 60
        E 0 90 62 60
        E 30 80 3e 00
        E 0 80 4a 00
        E 0 80 56 00
        E 0 80 62 00
        E 89 90 62 60
        E 30 80 62 00
        E 90 90 58 60
        E 0 90 64 60
        E 30 80 58 00
        E 0 80 64 00
        E 90 90 64 60
        E 30 80 64 00
        E 91 90 3e 60
        E 0 90 4a 60
        E 0 90 56 60
        E 0 90 62 60
        E 30 80 3e 00
        E 0 80 4a 00
        E 0 80 56 00
        E 0 80 62 00
        E 89 90 62 60
        E 30 80 62 00
        E 90 90 58 60
        E 0 90 64 60
        E 30 80 58 00
        E 0 80 64 00
        E 90 90 64 60
        E 30 80 64 00
        E 91 90 3e 60
        E 0 90 4a 60
        E 0 90 56 60
        E 0 90 62 60
        E 30 80 3e 00
        E 0 80 4a 00
        E 0 80 56 00
        E 0 80 62 00
        E 89 90 62 60
        E 30 80 62 00
        E 90 90 58 60
        E 0 90 64 60
        E 30 80 58 00
        E 0 80 64 00
        E 90 90 64 60
        E 30 80 64 00
        E 91 90 3e 60
        E 0 90 4a 60
        E 0 90 56 60
        E 0 90 62 60
        E 30 80 3e 00
        E 0 80 4a 00
        E 0 80 56 00
        E 0 80 62 00
        E 89 90 62 60
        E 30 80 62 00
        E 90 90 58 60
        E 0 90 64 60
        E 30 80 58 00
        E 0 80 64 00
        E 90 90 64 60
        E 30 80 64 00
        E 91 90 3e 60
        E 0 90 4a 60
        E 0 90 56 60
        E 0 90 62 60
        E 30 80 3e 00
        E 0 80 4a 00
        E 0 80 56 00
        E 0 80 62 00
        E 89 90 62 60
        E 30 80 62 00
        E 90 90 58 60
        E 0 90 64 60
        E 30 80 58 00
        E 0 80 64 00
        E 90 90 64 60
        E 30 80 64 00
        E 91 90 3e 60
        E 0 90 4a 60
        E 0 90 56 60
        E 0 90 62 60
        E 30 80 3e 00
        E 0 80 4a 00
        E 0 80 56 00
        E 0 80 62 00
        E 89 90 62 60
        E 30 80 62 00
        E 90 90 58 60
        E 0 90 64 60
        E 30 80 58 00
        E 0 80 64 00
        E 90 90 64 60
        E 30 80 64 00
        E 91 90 3e 60
        E 0 90 4a 60
        E 0 90 56 60
        E 0 90 62 60
        E 30 80 3e 00
        E 0 80 4a 00
        E 0 80 56 00
        E 0 80 62 00
        E 89 90 62 60
        E 30 80 62 00
        E 90 90 58 60
        E 0 90 64 60
        E 30 80 58 00
        E 0 80 64 00
        E 90 90 64 60
        E 30 80 64 00
        E 91 90 3e 60
        E 0 90 4a 60
        E 0 90 56 60
        E 0 90 62 60
        E 30 80 3e 00
        E 0 80 4a 00
        E 0 80 56 00
        E 0 80 62 00
        E 89 90 62 60
        E 30 80 62 00
        E 90 90 58 60
        E 0 90 64 60
        E 30 80 58 00
        E 0 80 64 00
        E 90 90 64 60
        E 30 80 64 00
        E 91 90 3e 60
        E 0 90 4a 60
        E 0 90 56 60
        E 0 90 62 60
        E 30 80 3e 00
        E 0 80 4a 00
        E 0 80 56 00
        E 0 80 62 00
        E 89 90 62 60
        E 30 80 62 00
        E 90 90 58 60
        E 0 90 64 60
        E 30 80 58 00
        E 0 80 64 00
        E 90 90 64 60
        E 30 80 64 00
        E 91 90 3e 60
        E 0 90 4a 60
        E 0 90 56 60
        E 0 90 62 60
        E 30 80 3e 00
        E 0 80 4a 00
        E 0 80 56 00
        E 0 80 62 00
        E 89 90 62 60
        E 30 80 62 00
        E 90 90 58 60
        E 0 90 64 60
        E 30 80 58 00
        E 0 80 64 00
        E 90 90 64 60
        E 30 80 64 00
        E 91 90 3e 60
        E 0 90 4a 60
        E 0 90 56 60
        E 0 90 62 60
        E 30 80 3e 00
        E 0 80 4a 00
        E 0 80 56 00
        E 0 80 62 00
        E 89 90 62 60
        E 30 80 62 00
        E 90 90 58 60
        E 0 90 64 60
        E 30 80 58 00
        E 0 80 64 00
        E 90 90 64 60
        E 30 80 64 00
        E 91 90 3e 60
        E 0 90 4a 60
        E 0 90 56 60
        E 0 90 62 60
        E 30 80 3e 00
        E 0 80 4a 00
        E 0 80 56 00
        E 0 80 62 00
        E 89 90 62 60
        E 30 80 62 00
        E 90 90 58 60
        E 0 90 64 60
        E 30 80 58 00
        E 0 80 64 00
        E 90 90 64 60
        E 30 80 64 00
        E 91 90 4a 60
        E 0 90 56 60
        E 0 90 62 60
        E 30 80 4a 00
        E 0 80 56 00
        E 0 80 62 00
        E 89 90 62 60
        E 30 80 62 00
        E 90 90 58 60
        E 0 90 64 60
        E 30 80 58 00
        E 0 80 64 00
        E 90 90 64 60
        E 30 80 64 00
        E 91 90 3d 60
        E 0 90 49 60
        E 0 90 55 60
        E 0 90 61 60
        E 30 80 3d 00
        E 0 80 49 00
        E 0 80 55 00
        E 0 80 61 00
        E 89 90 61 60
        E 30 80 61 00
        E 90 90 57 60
        E 0 90 63 60
        E 30 80 57 00
        E 0 80 63 00
        E 90 90 63 60
        E 30 80 63 00
        E 91 90 3d 60
        E 0 90 49 60
        E 0 90 55 60
        E 0 90 61 60
        E 30 80 3d 00
        E 0 80 49 00
        E 0 80 55 00
        E 0 80 61 00
        E 89 90 61 60
        E 30 80 61 00
        E 90 90 57 60
        E 0 90 63 60
        E 30 80 57 00
        E 0 80 63 00
        E 90 90 63 60
        E 30 80 63 00
        E 91 90 3d 60
        E 0 90 49 60
        E 0 90 55 60
        E 0 90 61 60
        E 30 80 3d 00
        E 0 80 49 00
        E 0 80 55 00
        E 0 80 61 00
        E 89 90 61 60
        E 30 80 61 00
        E 90 90 57 60
        E 0 90 63 60
        E 30 80 57 00
        E 0 80 63 00
        E 90 90 63 60
        E 30 80 63 00
        E 91 90 49 60
        E 0 90 55 60
        E 0 90 61 60
        E 30 80 49 00
        E 0 80 55 00
        E 0 80 61 00
        E 89 90 61 60
        E 30 80 61 00
        E 90 90 57 60
        E 0 90 63 60
        E 30 80 57 00
        E 0 80 63 00
        E 90 90 63 60
        E 30 80 63 00
        E 91 90 3e 60
        E 0 90 4a 60
        E 0 90 56 60
        E 0 90 62 60
        E 30 80 3e 00
        E 0 80 4a 00
        E 0 80 56 00
        E 0 80 62 00
        E 89 90 62 60
        E 30 80 62 00
        E 90 90 58 60
        E 0 90 64 60
        E 30 80 58 00
        E 0 80 64 00
        E 90 90 64 60
        E 30 80 64 00
        E 91 90 3e 60
        E 0 90 4a 60
        E 0 90 56 60
        E 0 90 62 60
        E 30 80 3e 00
        E 0 80 4a 00
        E 0 80 56 00
        E 0 80 62 00
        E 89 90 62 60
        E 30 80 62 00
        E 90 90 58 60
        E 0 90 64 60
        E 30 80 58 00
        E 0 80 64 00
        E 90 90 64 60
        E 30 80 64 00
        E 91 90 3e 60
        E 0 90 4a 60
        E 0 90 56 60
        E 0 90 62 60
        E 30 80 3e 00
        E 0 80 4a 00
        E 0 80 56 00
        E 0 80 62 00
        E 89 90 62 60
        E 30 80 62 00
        E 90 90 58 60
        E 0 90 64 60
        E 30 80 58 00
        E 0 80 64 00
        E 90 90 64 60
        E 30 80 64 00
        E 91 90 3e 60
        E 0 90 4a 60
        E 0 90 56 60
        E 0 90 62 60
        E 30 80 3e 00
        E 0 80 4a 00
        E 0 80 56 00
        E 0 80 62 00
        E 89 90 62 60
        E 30 80 62 00
        E 90 90 58 60
        E 0 90 64 60
        E 30 80 58 00
        E 0 80 64 00
        E 90 90 64 60
        E 30 80 64 00
        E 91 90 3e 60
        E 0 90 4a 60
        E 0 90 56 60
        E 0 90 62 60
        E 30 80 3e 00
        E 0 80 4a 00
        E 0 80 56 00
        E 0 80 62 00
        E 89 90 62 60
        E 30 80 62 00
        E 90 90 58 60
        E 0 90 64 60
        E 30 80 58 00
        E 0 80 64 00
        E 90 90 64 60
        E 30 80 64 00
        E 91 90 3e 60
        E 0 90 4a 60
        E 0 90 56 60
        E 0 90 62 60
        E 30 80 3e 00
        E 0 80 4a 00
        E 0 80 56 00
        E 0 80 62 00
        E 89 90 62 60
        E 30 80 62 00
        E 90 90 58 60
        E 0 90 64 60
        E 30 80 58 00
        E 0 80 64 00
        E 90 90 64 60
        E 30 80 64 00
        E 91 90 3e 60
        E 0 90 4a 60
        E 0 90 56 60
        E 0 90 62 60
        E 30 80 3e 00
        E 0 80 4a 00
        E 0 80 56 00
        E 0 80 62 00
        E 89 90 62 60
        E 30 80 62 00
        E 90 90 58 60
        E 0 90 64 60
        E 30 80 58 00
        E 0 80 64 00
        E 90 90 64 60
        E 30 80 64 00
        E 91 90 3e 60
        E 0 90 4a 60
        E 0 90 56 60
        E 0 90 62 60
        E 30 80 3e 00
        E 0 80 4a 00
        E 0 80 56 00
        E 0 80 62 00
        E 89 90 62 60
        E 30 80 62 00
        E 90 90 58 60
        E 0 90 64 60
        E 30 80 58 00
        E 0 80 64 00
        E 90 90 64 60
        E 30 80 64 00
        E 91 90 3e 60
        E 0 90 4a 60
        E 0 90 56 60
        E 0 90 62 60
        E 60 80 3e 00
        E 0 80 4a 00
        E 0 80 56 00
        E 0 80 62 00
        e 1227 90 74 60
        E 153 90 40 60
        E 0 90 4c 60
        E 0 90 58 60
        E 0 90 64 60
        E 40 80 40 00
        E 0 80 4c 00
        E 0 80 58 00
        E 0 80 64 00
        E 120 90 64 60
        E 40 80 64 00
        E 120 90 58 60
        E 0 90 64 60
        E 40 80 58 00
        E 0 80 64 00
        E 360 90 49 60
        E 0 90 55 60
        E 0 90 61 60
        E 60 80 49 00
        E 0 80 55 00
        E 0 80 61 00
        E 420 90 55 60
        E 0 90 61 60
        E 60 80 55 00
        E 0 80 61 00
        E 180 90 3c 60
        E 0 90 48 60
        E 0 90 54 60
        E 0 90 60 60
        E 60 80 3c 00
        E 0 80 48 00
        E 0 80 54 00
        E 0 80 60 00
        E 180 90 54 60
        E 0 90 60 60
        E 60 80 54 00
        E 0 80 60 00
        E 180 90 49 60
        E 0 90 55 60
        E 0 90 61 60
        E 60 80 49 00
        E 0 80 55 00
        E 0 80 61 00
        E 180 90 49 60
        E 0 90 55 60
        E 0 90 61 60
        E 60 80 49 00
        E 0 80 55 00
        E 0 80 61 00
        e 260 80 74 00
        E 160 90 49 60
        E 0 90 55 60
        E 0 90 61 60
        E 60 80 49 00
        E 0 80 55 00
        E 0 80 61 00
        E 420 90 55 60
        E 0 90 61 60
        E 60 80 55 00
        E 0 80 61 00
        E 180 90 3c 60
        E 0 90 48 60
        E 0 90 54 60
        E 0 90 60 60
        E 60 80 3c 00
        E 0 80 48 00
        E 0 80 54 00
        E 0 80 60 00
        E 180 90 54 60
        E 0 90 60 60
        E 60 80 54 00
        E 0 80 60 00
        E 180 90 49 60
        E 0 90 55 60
        E 0 90 61 60
        E 60 80 49 00
        E 0 80 55 00
        E 0 80 61 00
        E 180 90 49 60
        E 0 90 55 60
        E 0 90 61 60
        E 60 80 49 00
        E 0 80 55 00
        E 0 80 61 00
        E 420 90 3e 60
        E 0 90 4a 60
        E 0 90 56 60
        E 0 90 62 60
        E 60 80 3e 00
        E 0 80 4a 00
        E 0 80 56 00
        E 0 80 62 00
        E 420 90 4a 60
        E 0 90 56 60
        E 0 90 62 60
        E 60 80 4a 00
        E 0 80 56 00
        E 0 80 62 00
        E 180 90 3e 60
        E 0 90 4a 60
        E 0 90 56 60
        E 0 90 62 60
        E 60 80 3e 00
        E 0 80 4a 00
        E 0 80 56 00
        E 0 80 62 00
        E 180 90 56 60
        E 0 90 62 60
        E 60 80 56 00
        E 0 80 62 00
        E 180 90 4b 60
        E 0 90 57 60
        E 0 90 63 60
        E 60 80 4b 00
        E 0 80 57 00
        E 0 80 63 00
        E 180 90 4b 60
        E 0 90 57 60
        E 0 90 63 60
        E 60 80 4b 00
        E 0 80 57 00
        E 0 80 63 00
        E 420 90 3e 60
        E 0 90 4a 60
        E 0 90 56 60
        E 0 90 62 60
        E 60 80 3e 00
        E 0 80 4a 00
        E 0 80 56 00
        E 0 80 62 00
        E 420 90 4a 60
        E 0 90 56 60
        E 0 90 62 60
        E 60 80 4a 00
        E 0 80 56 00
        E 0 80 62 00
        E 180 90 3e 60
        E 0 90 4a 60
        E 0 90 56 60
        E 0 90 62 60
        E 60 80 3e 00
        E 0 80 4a 00
        E 0 80 56 00
        E 0 80 62 00
        E 180 90 56 60
        E 0 90 62 60
        E 60 80 56 00
        E 0 80 62 00
        E 180 90 4b 60
        E 0 90 57 60
        E 0 90 63 60
        E 60 80 4b 00
        E 0 80 57 00
        E 0 80 63 00
        E 180 90 56 60
        E 0 90 62 60
        E 60 80 56 00
        E 0 80 62 00
        E 420 90 49 60
        E 0 90 55 60
        E 0 90 61 60
        E 60 80 49 00
        E 0 80 55 00
        E 0 80 61 00
        E 420 90 55 60
        E 0 90 61 60
        E 60 80 55 00
        E 0 80 61 00
        E 180 90 3c 60
        E 0 90 48 60
        E 0 90 54 60
        E 0 90 60 60
        E 60 80 3c 00
        E 0 80 48 00
        E 0 80 54 00
        E 0 80 60 00
        E 180 90 54 60
        E 0 90 60 60
        E 60 80 54 00
        E 0 80 60 00
        E 180 90 49 60
        E 0 90 55 60
        E 0 90 61 60
        E 60 80 49 00
        E 0 80 55 00
        E 0 80 61 00
        E 180 90 49 60
        E 0 90 55 60
        E 0 90 61 60
        E 60 80 49 00
        E 0 80 55 00
        E 0 80 61 00
        E 420 90 49 60
        E 0 90 55 60
        E 0 90 61 60
        E 60 80 49 00
        E 0 80 55 00
        E 0 80 61 00
        E 420 90 55 60
        E 0 90 61 60
        E 60 80 55 00
        E 0 80 61 00
        E 180 90 3c 60
        E 0 90 48 60
        E 0 90 54 60
        E 0 90 60 60
        E 60 80 3c 00
        E 0 80 48 00
        E 0 80 54 00
        E 0 80 60 00
        E 180 90 54 60
        E 0 90 60 60
        E 60 80 54 00
        E 0 80 60 00
        E 180 90 49 60
        E 0 90 55 60
        E 0 90 61 60
        E 60 80 49 00
        E 0 80 55 00
        E 0 80 61 00
        E 180 90 55 60
        E 0 90 61 60
        E 60 80 55 00
        E 0 80 61 00
        E 180 90 3c 60
        E 0 90 48 60
        E 0 90 54 60
        E 0 90 60 60
        E 30 80 3c 00
        E 0 80 48 00
        E 0 80 54 00
        E 0 80 60 00
        E 90 90 60 60
        E 30 80 60 00
        E 90 90 56 60
        E 0 90 62 60
        E 30 80 56 00
        E 0 80 62 00
        E 90 90 62 60
        E 30 80 62 00
        E 90 90 3c 60
        E 0 90 48 60
        E 0 90 54 60
        E 0 90 60 60
        E 30 80 3c 00
        E 0 80 48 00
        E 0 80 54 00
        E 0 80 60 00
        E 89 90 60 60
        E 30 80 60 00
        E 90 90 56 60
        E 0 90 62 60
        E 30 80 56 00
        E 0 80 62 00
        E 90 90 62 60
        E 30 80 62 00
        E 91 90 3c 60
        E 0 90 48 60
        E 0 90 54 60
        E 0 90 60 60
        E 30 80 3c 00
        E 0 80 48 00
        E 0 80 54 00
        E 0 80 60 00
        E 89 90 60 60
        E 30 80 60 00
        E 90 90 56 60
        E 0 90 62 60
        E 30 80 56 00
        E 0 80 62 00
        E 90 90 62 60
        E 30 80 62 00
        E 91 90 3c 60
        E 0 90 48 60
        E 0 90 54 60
        E 0 90 60 60
        E 30 80 3c 00
        E 0 80 48 00
        E 0 80 54 00
        E 0 80 60 00
        E 89 90 60 60
        E 30 80 60 00
        E 90 90 56 60
        E 0 90 62 60
        E 30 80 56 00
        E 0 80 62 00
        E 90 90 62 60
        E 30 80 62 00
        e 1821 90 74 60
        E 190 90 3c 60
        E 0 90 48 60
        E 0 90 54 60
        E 0 90 60 60
        E 40 80 3c 00
        E 0 80 48 00
        E 0 80 54 00
        E 0 80 60 00
        E 120 90 60 60
        E 40 80 60 00
        E 120 90 54 60
        E 0 90 60 60
        E 40 80 54 00
        E 0 80 60 00
        E 360 90 48 60
        E 0 90 54 60
        E 0 90 60 60
        E 60 80 48 00
        E 0 80 54 00
        E 0 80 60 00
        E 420 90 3c 60
        E 0 90 48 60
        E 0 90 54 60
        E 0 90 60 60
        E 60 80 3c 00
        E 0 80 48 00
        E 0 80 54 00
        E 0 80 60 00
        E 420 90 48 60
        E 0 90 54 60
        E 0 90 60 60
        E 60 80 48 00
        E 0 80 54 00
        E 0 80 60 00
        E 180 90 3c 60
        E 0 90 48 60
        E 0 90 54 60
        E 0 90 60 60
        E 40 80 3c 00
        E 0 80 48 00
        E 0 80 54 00
        E 0 80 60 00
        E 120 90 60 60
        E 40 80 60 00
        E 120 90 54 60
        E 0 90 60 60
        E 40 80 54 00
        E 0 80 60 00
        e 281 80 74 00
        E 79 90 48 60
        E 0 90 54 60
        E 0 90 60 60
        E 60 80 48 00
        E 0 80 54 00
        E 0 80 60 00
        E 420 90 3c 60
        E 0 90 48 60
        E 0 90 54 60
        E 0 90 60 60
        E 60 80 3c 00
        E 0 80 48 00
        E 0 80 54 00
        E 0 80 60 00
        E 420 90 48 60
        E 0 90 54 60
        E 0 90 60 60
        E 60 80 48 00
        E 0 80 54 00
        E 0 80 60 00
        E 180 90 3c 60
        E 0 90 48 60
        E 0 90 54 60
        E 0 90 60 60
        E 40 80 3c 00
        E 0 80 48 00
        E 0 80 54 00
        E 0 80 60 00
        E 120 90 60 60
        E 40 80 60 00
        E 120 90 54 60
        E 0 90 60 60
        E 40 80 54 00
        E 0 80 60 00
        E 360 90 49 60
        E 0 90 55 60
        E 0 90 61 60
        E 60 80 49 00
        E 0 80 55 00
        E 0 80 61 00
        E 420 90 49 60
        E 0 90 55 60
        E 0 90 61 60
        E 60 80 49 00
        E 0 80 55 00
        E 0 80 61 00
        E 420 90 48 60
        E 0 90 54 60
        E 0 90 60 60
        E 60 80 48 00
        E 0 80 54 00
        E 0 80 60 00
        E 180 90 3c 60
        E 0 90 48 60
        E 0 90 54 60
        E 0 90 60 60
        E 40 80 3c 00
        E 0 80 48 00
        E 0 80 54 00
        E 0 80 60 00
        E 120 90 60 60
        E 40 80 60 00
        E 120 90 60 60
        E 40 80 60 00
        E 120 90 49 60
        E 0 90 55 60
        E 0 90 61 60
        E 40 80 49 00
        E 0 80 55 00
        E 0 80 61 00
        E 120 90 61 60
        E 40 80 61 00
        E 120 90 61 60
        E 40 80 61 00
        E 120 90 3c 60
        E 0 90 48 60
        E 0 90 54 60
        E 0 90 60 60
        E 40 80 3c 00
        E 0 80 48 00
        E 0 80 54 00
        E 0 80 60 00
        E 120 90 60 60
        E 40 80 60 00
        E 120 90 60 60
        E 40 80 60 00
        E 120 90 3c 60
        E 0 90 48 60
        E 0 90 54 60
        E 0 90 60 60
        E 40 80 3c 00
        E 0 80 48 00
        E 0 80 54 00
        E 0 80 60 00
        E 120 90 60 60
        E 40 80 60 00
        E 120 90 60 60
        E 40 80 60 00
        E 120 90 3c 60
        E 0 90 48 60
        E 0 90 54 60
        E 0 90 60 60
        E 40 80 3c 00
        E 0 80 48 00
        E 0 80 54 00
        E 0 80 60 00
        E 120 90 60 60
        E 40 80 60 00
        E 120 90 54 60
        E 0 90 60 60
        E 40 80 54 00
        E 0 80 60 00
        E 360 90 48 60
        E 0 90 54 60
        E 0 90 60 60
        E 60 80 48 00
        E 0 80 54 00
        E 0 80 60 00
        E 420 90 3c 60
        E 0 90 48 60
        E 0 90 54 60
        E 0 90 60 60
        E 60 80 3c 00
        E 0 80 48 00
        E 0 80 54 00
        E 0 80 60 00
        E 420 90 48 60
        E 0 90 54 60
        E 0 90 60 60
        E 60 80 48 00
        E 0 80 54 00
        E 0 80 60 00
        E 180 90 3c 60
        E 0 90 48 60
        E 0 90 54 60
        E 0 90 60 60
        E 40 80 3c 00
        E 0 80 48 00
        E 0 80 54 00
        E 0 80 60 00
        E 120 90 60 60
        E 40 80 60 00
        E 120 90 54 60
        E 0 90 60 60
        E 40 80 54 00
        E 0 80 60 00
        E 360 90 48 60
        E 0 90 54 60
        E 0 90 60 60
        E 60 80 48 00
        E 0 80 54 00
        E 0 80 60 00
        E 420 90 3c 60
        E 0 90 48 60
        E 0 90 54 60
        E 0 90 60 60
        E 60 80 3c 00
        E 0 80 48 00
        E 0 80 54 00
        E 0 80 60 00
        E 420 90 48 60
        E 0 90 54 60
        E 0 90 60 60
        E 60 80 48 00
        E 0 80 54 00
        E 0 80 60 00
        E 180 90 3c 60
        E 0 90 48 60
        E 0 90 54 60
        E 0 90 60 60
        E 40 80 3c 00
        E 0 80 48 00
        E 0 80 54 00
        E 0 80 60 00
        E 120 90 60 60
        E 40 80 60 00
        E 120 90 54 60
        E 0 90 60 60
        E 40 80 54 00
        E 0 80 60 00
        E 360 90 49 60
        E 0 90 55 60
        E 0 90 61 60
        E 60 80 49 00
        E 0 80 55 00
        E 0 80 61 00
        E 420 90 49 60
        E 0 90 55 60
        E 0 90 61 60
        E 60 80 49 00
        E 0 80 55 00
        E 0 80 61 00
        E 420 90 48 60
        E 0 90 54 60
        E 0 90 60 60
        E 60 80 48 00
        E 0 80 54 00
        E 0 80 60 00
        E 180 90 3c 60
        E 0 90 48 60
        E 0 90 54 60
        E 0 90 60 60
        E 40 80 3c 00
        E 0 80 48 00
        E 0 80 54 00
        E 0 80 60 00
        E 120 90 60 60
        E 40 80 60 00
        E 120 90 60 60
        E 40 80 60 00
        E 120 90 49 60
        E 0 90 55 60
        E 0 90 61 60
        E 40 80 49 00
        E 0 80 55 00
        E 0 80 61 00
        E 120 90 61 60
        E 40 80 61 00
        E 120 90 61 60
        E 40 80 61 00
        E 120 90 3c 60
        E 0 90 48 60
        E 0 90 54 60
        E 0 90 60 60
        E 40 80 3c 00
        E 0 80 48 00
        E 0 80 54 00
        E 0 80 60 00
        E 120 90 60 60
        E 40 80 60 00
        E 120 90 60 60
        E 40 80 60 00
        E 120 90 3c 60
        E 0 90 48 60
        E 0 90 54 60
        E 0 90 60 60
        E 40 80 3c 00
        E 0 80 48 00
        E 0 80 54 00
        E 0 80 60 00
        E 120 90 60 60
        E 40 80 60 00
        E 120 90 60 60
        E 40 80 60 00
        E 120 90 3c 60
        E 0 90 48 60
        E 0 90 54 60
        E 0 90 60 60
        E 40 80 3c 00
        E 0 80 48 00
        E 0 80 54 00
        E 0 80 60 00
        E 120 90 60 60
        E 40 80 60 00
        E 120 90 54 60
        E 0 90 60 60
        E 40 80 54 00
        E 0 80 60 00
        E 360 90 48 60
        E 0 90 54 60
        E 0 90 60 60
        E 60 80 48 00
        E 0 80 54 00
        E 0 80 60 00
        E 420 90 3c 60
        E 0 90 48 60
        E 0 90 54 60
        E 0 90 60 60
        E 60 80 3c 00
        E 0 80 48 00
        E 0 80 54 00
        E 0 80 60 00
        E 420 90 48 60
        E 0 90 54 60
        E 0 90 60 60
        E 60 80 48 00
        E 0 80 54 00
        E 0 80 60 00
        E 180 90 3c 60
        E 0 90 48 60
        E 0 90 54 60
        E 0 90 60 60
        E 40 80 3c 00
        E 0 80 48 00
        E 0 80 54 00
        E 0 80 60 00
        E 120 90 60 60
        E 40 80 60 00
        E 120 90 54 60
        E 0 90 60 60
        E 40 80 54 00
        E 0 80 60 00
        E 360 90 48 60
        E 0 90 54 60
        E 0 90 60 60
        E 60 80 48 00
        E 0 80 54 00
        E 0 80 60 00
        E 420 90 3c 60
        E 0 90 48 60
        E 0 90 54 60
        E 0 90 60 60
        E 60 80 3c 00
        E 0 80 48 00
        E 0 80 54 00
        E 0 80 60 00
        E 420 90 48 60
        E 0 90 54 60
        E 0 90 60 60
        E 60 80 48 00
        E 0 80 54 00
        E 0 80 60 00
        E 180 90 3c 60
        E 0 90 48 60
        E 0 90 54 60
        E 0 90 60 60
        E 40 80 3c 00
        E 0 80 48 00
        E 0 80 54 00
        E 0 80 60 00
        E 120 90 60 60
        E 40 80 60 00
        E 120 90 54 60
        E 0 90 60 60
        E 40 80 54 00
        E 0 80 60 00
        E 360 90 49 60
        E 0 90 55 60
        E 0 90 61 60
        E 60 80 49 00
        E 0 80 55 00
        E 0 80 61 00
        E 420 90 49 60
        E 0 90 55 60
        E 0 90 61 60
        E 60 80 49 00
        E 0 80 55 00
        E 0 80 61 00
        e 366 90 74 60
        E 54 90 48 60
        E 0 90 54 60
        E 0 90 60 60
        E 60 80 48 00
        E 0 80 54 00
        E 0 80 60 00
        E 180 90 3c 60
        E 0 90 48 60
        E 0 90 54 60
        E 0 90 60 60
        E 40 80 3c 00
        E 0 80 48 00
        E 0 80 54 00
        E 0 80 60 00
        E 120 90 60 60
        E 40 80 60 00
        E 120 90 60 60
        E 40 80 60 00
        E 120 90 49 60
        E 0 90 55 60
        E 0 90 61 60
        E 40 80 49 00
        E 0 80 55 00
        E 0 80 61 00
        E 120 90 61 60
        E 40 80 61 00
        E 120 90 61 60
        E 40 80 61 00
        E 120 90 3c 60
        E 0 90 48 60
        E 0 90 54 60
        E 0 90 60 60
        E 40 80 3c 00
        E 0 80 48 00
        E 0 80 54 00
        E 0 80 60 00
        E 120 90 60 60
        E 40 80 60 00
        E 120 90 60 60
        E 40 80 60 00
        E 120 90 3c 60
        E 0 90 48 60
        E 0 90 54 60
        E 0 90 60 60
        E 40 80 3c 00
        E 0 80 48 00
        E 0 80 54 00
        E 0 80 60 00
        E 120 90 60 60
        E 40 80 60 00
        E 120 90 60 60
        E 40 80 60 00
        E 120 90 3c 60
        E 0 90 48 60
        E 0 90 54 60
        E 0 90 60 60
        E 40 80 3c 00
        E 0 80 48 00
        E 0 80 54 00
        E 0 80 60 00
        E 120 90 60 60
        E 40 80 60 00
        E 120 90 54 60
        E 0 90 60 60
        E 40 80 54 00
        E 0 80 60 00
        e 177 80 74 00
        E 183 90 48 60
        E 0 90 54 60
        E 0 90 60 60
        E 60 80 48 00
        E 0 80 54 00
        E 0 80 60 00
        E 420 90 3c 60
        E 0 90 48 60
        E 0 90 54 60
        E 0 90 60 60
        E 60 80 3c 00
        E 0 80 48 00
        E 0 80 54 00
        E 0 80 60 00
        E 420 90 48 60
        E 0 90 54 60
        E 0 90 60 60
        E 60 80 48 00
        E 0 80 54 00
        E 0 80 60 00
        E 180 90 3c 60
        E 0 90 48 60
        E 0 90 54 60
        E 0 90 60 60
        E 40 80 3c 00
        E 0 80 48 00
        E 0 80 54 00
        E 0 80 60 00
        E 120 90 60 60
        E 40 80 60 00
        E 120 90 54 60
        E 0 90 60 60
        E 40 80 54 00
        E 0 80 60 00
        E 360 90 48 60
        E 0 90 54 60
        E 0 90 60 60
        E 60 80 48 00
        E 0 80 54 00
        E 0 80 60 00
        E 420 90 3c 60
        E 0 90 48 60
        E 0 90 54 60
        E 0 90 60 60
        E 60 80 3c 00
        E 0 80 48 00
        E 0 80 54 00
        E 0 80 60 00
        E 420 90 48 60
        E 0 90 54 60
        E 0 90 60 60
        E 60 80 48 00
        E 0 80 54 00
        E 0 80 60 00
        E 180 90 3c 60
        E 0 90 48 60
        E 0 90 54 60
        E 0 90 60 60
        E 40 80 3c 00
        E 0 80 48 00
        E 0 80 54 00
        E 0 80 60 00
        E 120 90 60 60
        E 40 80 60 00
        E 120 90 54 60
        E 0 90 60 60
        E 40 80 54 00
        E 0 80 60 00
        E 360 90 49 60
        E 0 90 55 60
        E 0 90 61 60
        E 60 80 49 00
        E 0 80 55 00
        E 0 80 61 00
        E 420 90 49 60
        E 0 90 55 60
        E 0 90 61 60
        E 60 80 49 00
        E 0 80 55 00
        E 0 80 61 00
        E 420 90 48 60
        E 0 90 54 60
        E 0 90 60 60
        E 60 80 48 00
        E 0 80 54 00
        E 0 80 60 00
        E 180 90 3c 60
        E 0 90 48 60
        E 0 90 54 60
        E 0 90 60 60
        E 40 80 3c 00
        E 0 80 48 00
        E 0 80 54 00
        E 0 80 60 00
        E 120 90 60 60
        E 40 80 60 00
        E 120 90 60 60
        E 40 80 60 00
        E 120 90 49 60
        E 0 90 55 60
        E 0 90 61 60
        E 40 80 49 00
        E 0 80 55 00
        E 0 80 61 00
        E 120 90 61 60
        E 40 80 61 00
        E 120 90 61 60
        E 40 80 61 00
        E 120 90 3c 60
        E 0 90 48 60
        E 0 90 54 60
        E 0 90 60 60
        E 40 80 3c 00
        E 0 80 48 00
        E 0 80 54 00
        E 0 80 60 00
        E 120 90 60 60
        E 40 80 60 00
        E 120 90 60 60
        E 40 80 60 00
        E 120 90 3c 60
        E 0 90 48 60
        E 0 90 54 60
        E 0 90 60 60
        E 40 80 3c 00
        E 0 80 48 00
        E 0 80 54 00
        E 0 80 60 00
        E 120 90 60 60
        E 40 80 60 00
        E 120 90 60 60
        E 40 80 60 00
        E 120 90 3c 60
        E 0 90 48 60
        E 0 90 54 60
        E 0 90 60 60
        E 1440 80 3c 00
        E 0 80 48 00
        E 360 80 54 00
        E 60 80 60 00
        E 60 90 3d 60
        E 0 90 49 60
        E 0 90 55 60
        E 0 90 61 60
        E 1860 80 3d 00
        E 0 80 49 00
        E 0 80 55 00
        E 0 80 61 00
        <X 480 0
          /wFbaWRsZV0=
        >
        <X 10620 0
          /wFbcGxheV0=
        >
        e 309 90 74 60
        E 171 90 3c 60
        E 0 90 48 60
        E 0 90 54 60
        E 0 90 60 60
        E 1440 80 3c 00
        E 0 80 48 00
        E 360 80 54 00
        E 60 80 60 00
        E 60 90 3c 60
        E 0 90 48 60
        E 0 90 54 60
        E 0 90 60 60
        E 1440 80 3c 00
        E 0 80 48 00
        E 360 80 54 00
        E 60 80 60 00
        E 60 90 3c 60
        E 0 90 48 60
        E 0 90 54 60
        E 0 90 60 60
        E 1440 80 3c 00
        E 0 80 48 00
        e 339 80 74 00
        E 21 80 54 00
        E 60 80 60 00
        E 60 90 3c 60
        E 0 90 48 60
        E 0 90 54 60
        E 0 90 60 60
        E 1440 80 3c 00
        E 0 80 48 00
        E 360 80 54 00
        E 60 80 60 00
        E 60 90 3c 60
        E 0 90 48 60
        E 0 90 54 60
        E 0 90 60 60
        E 1440 80 3c 00
        E 0 80 48 00
        E 360 80 54 00
        E 60 80 60 00
        E 60 90 3c 60
        E 0 90 48 60
        E 0 90 54 60
        E 0 90 60 60
        E 1440 80 3c 00
        E 0 80 48 00
        E 360 80 54 00
        E 60 80 60 00
        E 60 90 3c 60
        E 0 90 48 60
        E 0 90 54 60
        E 0 90 60 60
        E 1440 80 3c 00
        E 0 80 48 00
        E 360 80 54 00
        E 60 80 60 00
        E 60 90 3c 60
        E 0 90 48 60
        E 0 90 54 60
        E 0 90 60 60
        E 1440 80 3c 00
        E 120 80 48 00
        E 120 80 54 00
        E 180 80 60 00
        E 60 90 3c 60
        E 0 90 48 60
        E 0 90 54 60
        E 0 90 60 60
        E 1440 80 3c 00
        E 120 80 48 00
        E 120 80 54 00
        E 180 80 60 00
        E 60 90 3c 60
        E 0 90 48 60
        E 0 90 54 60
        E 0 90 60 60
        E 1440 80 3c 00
        E 120 80 48 00
        E 120 80 54 00
        E 180 80 60 00
        E 60 90 3c 60
        E 0 90 48 60
        E 0 90 54 60
        E 0 90 60 60
        E 1440 80 3c 00
        E 120 80 48 00
        E 120 80 54 00
        e 99 90 74 60
        E 81 80 60 00
        E 60 90 3c 60
        E 0 90 48 60
        E 0 90 54 60
        E 0 90 60 60
        E 1440 80 3c 00
        E 120 80 48 00
        E 120 80 54 00
        E 180 80 60 00
        E 60 90 3c 60
        E 0 90 48 60
        E 0 90 54 60
        E 0 90 60 60
        E 1440 80 3c 00
        E 120 80 48 00
        E 120 80 54 00
        E 180 80 60 00
        E 60 90 3c 60
        E 0 90 48 60
        E 0 90 54 60
        E 0 90 60 60
        e 1809 80 74 00
        E 51 80 3c 00
        E 0 80 48 00
        E 0 80 54 00
        E 0 80 60 00
        E 3900 90 3c 60
        E 0 90 48 60
        E 0 90 54 60
        E 0 90 60 60
        E 60 80 3c 00
        E 0 80 48 00
        E 0 80 54 00
        E 0 80 60 00
        E 180 90 56 60
        E 0 90 62 60
        E 60 80 56 00
        E 0 80 62 00
        E 180 90 3c 60
        E 0 90 48 60
        E 0 90 54 60
        E 0 90 60 60
        E 60 80 3c 00
        E 0 80 48 00
        E 0 80 54 00
        E 0 80 60 00
        E 180 90 56 60
        E 0 90 62 60
        E 60 80 56 00
        E 0 80 62 00
        E 180 90 3c 60
        E 0 90 48 60
        E 0 90 54 60
        E 0 90 60 60
        E 60 80 3c 00
        E 0 80 48 00
        E 0 80 54 00
        E 0 80 60 00
        E 180 90 56 60
        E 0 90 62 60
        E 60 80 56 00
        E 0 80 62 00
        E 180 90 3c 60
        E 0 90 48 60
        E 0 90 54 60
        E 0 90 60 60
        E 60 80 3c 00
        E 0 80 48 00
        E 0 80 54 00
        E 0 80 60 00
        E 180 90 56 60
        E 0 90 62 60
        E 60 80 56 00
        E 0 80 62 00
        E 180 90 3c 60
        E 0 90 48 60
        E 0 90 54 60
        E 0 90 60 60
        E 60 80 3c 00
        E 0 80 48 00
        E 0 80 54 00
        E 0 80 60 00
        E 180 90 56 60
        E 0 90 62 60
        E 60 80 56 00
        E 0 80 62 00
        E 180 90 3c 60
        E 0 90 48 60
        E 0 90 54 60
        E 0 90 60 60
        E 60 80 3c 00
        E 0 80 48 00
        E 0 80 54 00
        E 0 80 60 00
        E 180 90 56 60
        E 0 90 62 60
        E 60 80 56 00
        E 0 80 62 00
        E 180 90 3c 60
        E 0 90 48 60
        E 0 90 54 60
        E 0 90 60 60
        E 60 80 3c 00
        E 0 80 48 00
        E 0 80 54 00
        E 0 80 60 00
        E 180 90 56 60
        E 0 90 62 60
        E 60 80 56 00
        E 0 80 62 00
        E 180 90 3c 60
        E 0 90 48 60
        E 0 90 54 60
        E 0 90 60 60
        E 60 80 3c 00
        E 0 80 48 00
        E 0 80 54 00
        E 0 80 60 00
        E 180 90 56 60
        E 0 90 62 60
        E 60 80 56 00
        E 0 80 62 00
        E 180 90 3c 60
        E 0 90 48 60
        E 0 90 54 60
        E 0 90 60 60
        E 60 80 3c 00
        E 0 80 48 00
        E 0 80 54 00
        E 0 80 60 00
        E 180 90 57 60
        E 0 90 63 60
        E 60 80 57 00
        E 0 80 63 00
        E 180 90 3c 60
        E 0 90 48 60
        E 0 90 54 60
        E 0 90 60 60
        E 60 80 3c 00
        E 0 80 48 00
        E 0 80 54 00
        E 0 80 60 00
        E 180 90 57 60
        E 0 90 63 60
        E 60 80 57 00
        E 0 80 63 00
        E 180 90 3c 60
        E 0 90 48 60
        E 0 90 54 60
        E 0 90 60 60
        E 60 80 3c 00
        E 0 80 48 00
        E 0 80 54 00
        E 0 80 60 00
        E 180 90 57 60
        E 0 90 63 60
        E 60 80 57 00
        E 0 80 63 00
        E 180 90 3c 60
        E 0 90 48 60
        E 0 90 54 60
        E 0 90 60 60
        E 60 80 3c 00
        E 0 80 48 00
        E 0 80 54 00
        E 0 80 60 00
        E 180 90 57 60
        E 0 90 63 60
        E 60 80 57 00
        E 0 80 63 00
        E 180 90 3c 60
        E 0 90 48 60
        E 0 90 54 60
        E 0 90 60 60
        E 60 80 3c 00
        E 0 80 48 00
        E 0 80 54 00
        E 0 80 60 00
        E 180 90 57 60
        E 0 90 63 60
        E 60 80 57 00
        E 0 80 63 00
        E 180 90 3c 60
        E 0 90 48 60
        E 0 90 54 60
        E 0 90 60 60
        E 60 80 3c 00
        E 0 80 48 00
        E 0 80 54 00
        E 0 80 60 00
        E 180 90 57 60
        E 0 90 63 60
        E 60 80 57 00
        E 0 80 63 00
        E 180 90 3c 60
        E 0 90 48 60
        E 0 90 54 60
        E 0 90 60 60
        E 60 80 3c 00
        E 0 80 48 00
        E 0 80 54 00
        E 0 80 60 00
        E 180 90 57 60
        E 0 90 63 60
        E 60 80 57 00
        E 0 80 63 00
        E 180 90 3c 60
        E 0 90 48 60
        E 0 90 54 60
        E 0 90 60 60
        E 60 80 3c 00
        E 0 80 48 00
        E 0 80 54 00
        E 0 80 60 00
        E 180 90 57 60
        E 0 90 63 60
        E 60 80 57 00
        E 0 80 63 00
        E 180 90 3c 60
        E 0 90 48 60
        E 0 90 54 60
        E 0 90 60 60
        E 60 80 3c 00
        E 0 80 48 00
        E 0 80 54 00
        E 0 80 60 00
        E 180 90 55 60
        E 0 90 61 60
        E 60 80 55 00
        E 0 80 61 00
        E 180 90 3c 60
        E 0 90 48 60
        E 0 90 54 60
        E 0 90 60 60
        E 60 80 3c 00
        E 0 80 48 00
        E 0 80 54 00
        E 0 80 60 00
        E 180 90 55 60
        E 0 90 61 60
        E 60 80 55 00
        E 0 80 61 00
        E 180 90 3c 60
        E 0 90 48 60
        E 0 90 54 60
        E 0 90 60 60
        E 60 80 3c 00
        E 0 80 48 00
        E 0 80 54 00
        E 0 80 60 00
        E 180 90 55 60
        E 0 90 61 60
        E 60 80 55 00
        E 0 80 61 00
        E 180 90 3c 60
        E 0 90 48 60
        E 0 90 54 60
        E 0 90 60 60
        E 60 80 3c 00
        E 0 80 48 00
        E 0 80 54 00
        E 0 80 60 00
        E 180 90 55 60
        E 0 90 61 60
        E 60 80 55 00
        E 0 80 61 00
        E 180 90 3c 60
        E 0 90 48 60
        E 0 90 54 60
        E 0 90 60 60
        E 60 80 3c 00
        E 0 80 48 00
        E 0 80 54 00
        E 0 80 60 00
        E 180 90 56 60
        E 0 90 62 60
        E 60 80 56 00
        E 0 80 62 00
        E 180 90 3c 60
        E 0 90 48 60
        E 0 90 54 60
        E 0 90 60 60
        E 60 80 3c 00
        E 0 80 48 00
        E 0 80 54 00
        E 0 80 60 00
        E 180 90 56 60
        E 0 90 62 60
        E 60 80 56 00
        E 0 80 62 00
        E 180 90 3c 60
        E 0 90 48 60
        E 0 90 54 60
        E 0 90 60 60
        E 60 80 3c 00
        E 0 80 48 00
        E 0 80 54 00
        E 0 80 60 00
        E 180 90 56 60
        E 0 90 62 60
        E 60 80 56 00
        E 0 80 62 00
        E 180 90 3c 60
        E 0 90 48 60
        E 0 90 54 60
        E 0 90 60 60
        E 60 80 3c 00
        E 0 80 48 00
        E 0 80 54 00
        E 0 80 60 00
        E 180 90 56 60
        E 0 90 62 60
        E 60 80 56 00
        E 0 80 62 00
        E 4020 90 3c 60
        E 0 90 48 60
        E 0 90 54 60
        E 0 90 60 60
        E 60 80 3c 00
        E 0 80 48 00
        E 0 80 54 00
        E 0 80 60 00
        E 180 90 56 60
        E 0 90 62 60
        E 60 80 56 00
        E 0 80 62 00
        E 180 90 3c 60
        E 0 90 48 60
        E 0 90 54 60
        E 0 90 60 60
        E 60 80 3c 00
        E 0 80 48 00
        E 0 80 54 00
        E 0 80 60 00
        E 180 90 56 60
        E 0 90 62 60
        E 60 80 56 00
        E 0 80 62 00
        E 180 90 3c 60
        E 0 90 48 60
        E 0 90 54 60
        E 0 90 60 60
        E 60 80 3c 00
        E 0 80 48 00
        E 0 80 54 00
        E 0 80 60 00
        E 180 90 56 60
        E 0 90 62 60
        E 60 80 56 00
        E 0 80 62 00
        E 180 90 3c 60
        E 0 90 48 60
        E 0 90 54 60
        E 0 90 60 60
        E 60 80 3c 00
        E 0 80 48 00
        E 0 80 54 00
        E 0 80 60 00
        E 180 90 56 60
        E 0 90 62 60
        E 60 80 56 00
        E 0 80 62 00
        E 180 90 3c 60
        E 0 90 48 60
        E 0 90 54 60
        E 0 90 60 60
        E 60 80 3c 00
        E 0 80 48 00
        E 0 80 54 00
        E 0 80 60 00
        E 180 90 56 60
        E 0 90 62 60
        E 60 80 56 00
        E 0 80 62 00
        E 180 90 3c 60
        E 0 90 48 60
        E 0 90 54 60
        E 0 90 60 60
        E 60 80 3c 00
        E 0 80 48 00
        E 0 80 54 00
        E 0 80 60 00
        E 180 90 56 60
        E 0 90 62 60
        E 60 80 56 00
        E 0 80 62 00
        E 180 90 3c 60
        E 0 90 48 60
        E 0 90 54 60
        E 0 90 60 60
        E 60 80 3c 00
        E 0 80 48 00
        E 0 80 54 00
        E 0 80 60 00
        E 180 90 56 60
        E 0 90 62 60
        E 60 80 56 00
        E 0 80 62 00
        E 180 90 3c 60
        E 0 90 48 60
        E 0 90 54 60
        E 0 90 60 60
        E 60 80 3c 00
        E 0 80 48 00
        E 0 80 54 00
        E 0 80 60 00
        E 180 90 56 60
        E 0 90 62 60
        E 60 80 56 00
        E 0 80 62 00
        E 180 90 3c 60
        E 0 90 48 60
        E 0 90 54 60
        E 0 90 60 60
        E 60 80 3c 00
        E 0 80 48 00
        E 0 80 54 00
        E 0 80 60 00
        E 180 90 57 60
        E 0 90 63 60
        E 60 80 57 00
        E 0 80 63 00
        E 180 90 3c 60
        E 0 90 48 60
        E 0 90 54 60
        E 0 90 60 60
        E 60 80 3c 00
        E 0 80 48 00
        E 0 80 54 00
        E 0 80 60 00
        E 180 90 57 60
        E 0 90 63 60
        E 60 80 57 00
        E 0 80 63 00
        E 180 90 3c 60
        E 0 90 48 60
        E 0 90 54 60
        E 0 90 60 60
        E 60 80 3c 00
        E 0 80 48 00
        E 0 80 54 00
        E 0 80 60 00
        E 180 90 57 60
        E 0 90 63 60
        E 60 80 57 00
        E 0 80 63 00
        E 180 90 3c 60
        E 0 90 48 60
        E 0 90 54 60
        E 0 90 60 60
        E 60 80 3c 00
        E 0 80 48 00
        E 0 80 54 00
        E 0 80 60 00
        E 180 90 57 60
        E 0 90 63 60
        E 60 80 57 00
        E 0 80 63 00
        E 180 90 3c 60
        E 0 90 48 60
        E 0 90 54 60
        E 0 90 60 60
        E 60 80 3c 00
        E 0 80 48 00
        E 0 80 54 00
        E 0 80 60 00
        E 180 90 57 60
        E 0 90 63 60
        E 60 80 57 00
        E 0 80 63 00
        E 180 90 3c 60
        E 0 90 48 60
        E 0 90 54 60
        E 0 90 60 60
        E 60 80 3c 00
        E 0 80 48 00
        E 0 80 54 00
        E 0 80 60 00
        E 180 90 57 60
        E 0 90 63 60
        E 60 80 57 00
        E 0 80 63 00
        E 180 90 3c 60
        E 0 90 48 60
        E 0 90 54 60
        E 0 90 60 60
        E 60 80 3c 00
        E 0 80 48 00
        E 0 80 54 00
        E 0 80 60 00
        E 180 90 57 60
        E 0 90 63 60
        E 60 80 57 00
        E 0 80 63 00
        E 180 90 3c 60
        E 0 90 48 60
        E 0 90 54 60
        E 0 90 60 60
        E 60 80 3c 00
        E 0 80 48 00
        E 0 80 54 00
        E 0 80 60 00
        E 180 90 57 60
        E 0 90 63 60
        E 60 80 57 00
        E 0 80 63 00
        E 180 90 3c 60
        E 0 90 48 60
        E 0 90 54 60
        E 0 90 60 60
        E 60 80 3c 00
        E 0 80 48 00
        E 0 80 54 00
        E 0 80 60 00
        E 180 90 55 60
        E 0 90 61 60
        E 60 80 55 00
        E 0 80 61 00
        E 180 90 3c 60
        E 0 90 48 60
        E 0 90 54 60
        E 0 90 60 60
        E 60 80 3c 00
        E 0 80 48 00
        E 0 80 54 00
        E 0 80 60 00
        E 180 90 55 60
        E 0 90 61 60
        E 60 80 55 00
        E 0 80 61 00
        E 180 90 3c 60
        E 0 90 48 60
        E 0 90 54 60
        E 0 90 60 60
        E 60 80 3c 00
        E 0 80 48 00
        E 0 80 54 00
        E 0 80 60 00
        E 180 90 55 60
        E 0 90 61 60
        E 60 80 55 00
        E 0 80 61 00
        E 180 90 3c 60
        E 0 90 48 60
        E 0 90 54 60
        E 0 90 60 60
        E 60 80 3c 00
        E 0 80 48 00
        E 0 80 54 00
        E 0 80 60 00
        E 180 90 55 60
        E 0 90 61 60
        E 60 80 55 00
        E 0 80 61 00
        E 180 90 3c 60
        E 0 90 48 60
        E 0 90 54 60
        E 0 90 60 60
        E 60 80 3c 00
        E 0 80 48 00
        E 0 80 54 00
        E 0 80 60 00
        E 180 90 56 60
        E 0 90 62 60
        E 60 80 56 00
        E 0 80 62 00
        E 180 90 3c 60
        E 0 90 48 60
        E 0 90 54 60
        E 0 90 60 60
        E 60 80 3c 00
        E 0 80 48 00
        E 0 80 54 00
        E 0 80 60 00
        E 180 90 56 60
        E 0 90 62 60
        E 60 80 56 00
        E 0 80 62 00
        E 180 90 3c 60
        E 0 90 48 60
        E 0 90 54 60
        E 0 90 60 60
        E 60 80 3c 00
        E 0 80 48 00
        E 0 80 54 00
        E 0 80 60 00
        E 180 90 56 60
        E 0 90 62 60
        E 60 80 56 00
        E 0 80 62 00
        E 180 90 3c 60
        E 0 90 48 60
        E 0 90 54 60
        E 0 90 60 60
        E 60 80 3c 00
        E 0 80 48 00
        E 0 80 54 00
        E 0 80 60 00
        E 180 90 56 60
        E 0 90 62 60
        E 60 80 56 00
        E 0 80 62 00
        E 180 90 3c 60
        E 0 90 48 60
        E 0 90 54 60
        E 0 90 60 60
        E 60 80 3c 00
        E 0 80 48 00
        E 0 80 54 00
        E 0 80 60 00
        E 180 90 56 60
        E 0 90 62 60
        E 60 80 56 00
        E 0 80 62 00
        E 180 90 3c 60
        E 0 90 48 60
        E 0 90 54 60
        E 0 90 60 60
        E 60 80 3c 00
        E 0 80 48 00
        E 0 80 54 00
        E 0 80 60 00
        E 180 90 56 60
        E 0 90 62 60
        E 60 80 56 00
        E 0 80 62 00
        E 180 90 3c 60
        E 0 90 48 60
        E 0 90 54 60
        E 0 90 60 60
        E 60 80 3c 00
        E 0 80 48 00
        E 0 80 54 00
        E 0 80 60 00
        E 180 90 56 60
        E 0 90 62 60
        E 60 80 56 00
        E 0 80 62 00
        E 180 90 3c 60
        E 0 90 48 60
        E 0 90 54 60
        E 0 90 60 60
        E 60 80 3c 00
        E 0 80 48 00
        E 0 80 54 00
        E 0 80 60 00
        E 180 90 56 60
        E 0 90 62 60
        E 60 80 56 00
        E 0 80 62 00
        E 180 90 3c 60
        E 0 90 48 60
        E 0 90 54 60
        E 0 90 60 60
        E 60 80 3c 00
        E 0 80 48 00
        E 0 80 54 00
        E 0 80 60 00
        E 180 90 57 60
        E 0 90 63 60
        E 60 80 57 00
        E 0 80 63 00
        E 180 90 3c 60
        E 0 90 48 60
        E 0 90 54 60
        E 0 90 60 60
        E 60 80 3c 00
        E 0 80 48 00
        E 0 80 54 00
        E 0 80 60 00
        <X 480 0
          /wFbaWRsZV9yZWFsdGltZV0=
        >
        E 420 b0 7b 00
        GUID {14D9E950-FB92-4048-8603-8FD02AE3B865}
        IGNTEMPO 0 120.00000000 4 4
        SRCCOLOR 1165
        VELLANE 132 38 60
        COLORMAP "C:\Users\wejaa\AppData\Roaming\REAPER\Data\color_maps\rockband_guitarbass.png"
        TEXTSTRINGFILE "Text Events List.txt"
        CFGEDITVIEW 108885.206367 364.887932 0 12 0 0 0
        CFGEDIT 1 1 0 0 0 1 1 1 1 1 1 0.12500000 -8 -8 1370 736 1 2 1 2 0.00000000 0 0 0 0 0.500000 1 0 1.000000 64
        KEYSNAP 0 0 "102034050607" 0 "Major"
        EVTFILTER 0 -1 -1 -1 -1 0 1 0 0 -1.00000000 -1.00000000
      >
    >
  >
  <TRACK '{C298A11E-8E06-44B8-AA31-429ECCE3F0AF}'
    NAME "PART VOCALS"
    PEAKCOL 16810239
    BEAT -1
    AUTOMODE 0
    VOLPAN 0.99997469241676 0.00000000000000 -1.00000000000000 -1.00000000000000 1.00000000000000
    MUTESOLO 0 0 0
    IPHASE 0
    ISBUS 0 0
    BUSCOMP 1 0
    SHOWINMIX 1 0.666700 0.500000 1 0.500000 -1 -1 -1
    FREEMODE 0
    SEL 0
    REC 0 4096 1 7 0 0 0
    TRACKHEIGHT 0 0
    INQ 0 0 0 0.5000000000 100 0 0 100
    NCHAN 2
    FX 1
    TRACKID {C298A11E-8E06-44B8-AA31-429ECCE3F0AF}
    PERF 0
    MIDIOUT -1
    <MIDINOTENAMES
      0 105 "Phrase Marker"
      0 84 "C5"
      0 36 "C1"
      0 83 "B"
      0 82 "Bb"
      0 81 "A"
      0 80 "G#"
      0 79 "G"
      0 78 "F#"
      0 77 "F"
      0 76 "E"
      0 75 "Eb"
      0 74 "D"
      0 73 "C#"
      0 72 "C4"
      0 71 "B"
      0 70 "Bb"
      0 69 "A"
      0 68 "G#"
      0 67 "G"
      0 66 "F#"
      0 65 "F"
      0 64 "E"
      0 63 "Eb"
      0 62 "D"
      0 61 "C#"
      0 60 "C3"
      0 59 "B"
      0 58 "Bb"
      0 57 "A"
      0 56 "G#"
      0 55 "G"
      0 54 "F#"
      0 53 "F"
      0 52 "E"
      0 51 "Eb"
      0 50 "D"
      0 49 "C#"
      0 48 "C2"
      0 47 "B"
      0 46 "Bb"
      0 45 "A"
      0 44 "G#"
      0 43 "G"
      0 42 "F#"
      0 41 "F"
      0 40 "E"
      0 39 "Eb"
      0 38 "D"
      0 37 "C#"
      0 97 "Not Displayed Percussion"
      0 96 "Displayed Percussion"
      0 104 "----"
      0 95 "----"
      0 116 "OVERDRIVE"
      0 115 "----"
      0 0 "Range Shift"
      0 1 "Lyric Shift"
    >
    MAINSEND 1 0
    <FXCHAIN
      WNDRECT 581 377 716 493
      SHOW 0
      LASTSEL 1
      DOCKED 0
      BYPASS 0 0
      <JS "IX/MIDI_Tool II" ""
        0.000000 85.000000 127.000000 0.000000 0.000000 0.000000 100.000000 0.000000 0.000000 127.000000 0.000000 0.000000 1.000000 0.000000 0.000000 - - - - - - - - - - - - - - - - - - - - - - - - - - - - - - - - - - - - - - - - - - - - - - - - - 
      >
      FLOATPOS 0 0 0 0
      FXID {CA785021-0433-497E-9A6C-EE23A1BC21B0}
      WAK 0
      BYPASS 0 0
      <VST "VSTi: ReaSynth (Cockos)" "reasynth.dll" 0 ""
        eXNlcu9e7f4AAAAAAgAAAAEAAAAAAAAAAgAAAAAAAAA4AAAAAAAAAA==
        AAAAAO++rd4N8K3eppvEOxe30ToAAAAAAAAAAAAAAACa9Q8/6WeIPQ==
        AAAAAAAAAD8AAIA/AAAAAAAAAD8AAAAAAAA=
      >
      FLOATPOS 32 32 338 405
      FXID {F124DD19-73B4-4CD5-B659-E246F2A3D0B3}
      WAK 0
    >
    <ITEM
      POSITION 0.00000000000000
      SNAPOFFS 0.00000000000000
      LENGTH 183.05106848205489
      LOOP 0
      ALLTAKES 0
      SEL 0
      FADEIN 1 0.000000 0.000000 1 0
      FADEOUT 1 0.000000 0.000000 1 0
      MUTE 0
      IGUID {9C9617EC-369A-41B9-80F6-31F4222F13F6}
      IID 10
      NAME "PART VOCALS"
      VOLPAN 1.000000 0.000000 1.000000 -1.000000
      SOFFS 0.00000000000000 0.00000000000000
      PLAYRATE 1.00000000000000 1 0.00000000000000 -65536
      CHANMODE 0
      GUID {8E872349-00D8-4243-95D7-0B92852E4EE5}
      <SOURCE MIDI
        HASDATA 1 480 QN
        POOLEDEVTS {C1D79EB6-3899-49E8-A2EE-4AB1ABAFD3E3}
        <X 0 0
          /wNQQVJUIFZPQ0FMUw==
        >
        <X 1920 0
          /wFbcGxheV0=
        >
        E 682 90 69 5b
        <X 802 0
          /wVJY2gj
        >
        E 0 90 3d 5b
        E 379 80 3d 00
        <X 183 0
          /wVrb20tIw==
        >
        E 0 90 3d 5b
        E 361 80 3d 00
        <X 56 0
          /wVtZSM=
        >
        E 0 90 3d 5b
        E 310 80 3d 00
        <X 480 0
          /wFbaWRsZV0=
        >
        E 186 80 69 00
        <X 9041 0
          /wFbcGxheV0=
        >
        E 366 90 69 5b
        <X 114 0
          /wVPbg==
        >
        E 0 90 3d 19
        E 210 80 3d 00
        <X 48 0
          /wUr
        >
        E 0 90 3e 35
        E 138 80 3e 00
        <X 119 0
          /wV5w7Y=
        >
        E 0 90 3e 35
        E 924 80 3e 00
        <X 120 0
          /wVzeS0=
        >
        E 0 90 3e 35
        E 344 80 3e 00
        <X 41 0
          /wVkw6Ru
        >
        E 0 90 3e 35
        E 225 80 3e 00
        <X 76 0
          /wVsecO2
        >
        E 0 90 41 35
        E 876 80 41 00
        <X 59 0
          /wUr
        >
        E 0 90 40 35
        E 479 80 40 00
        <X 126 0
          /wVIw6Ru
        >
        E 0 90 3e 35
        E 361 80 3e 00
        <X 166 0
          /wVsby0=
        >
        E 0 90 3e 35
        E 204 80 3e 00
        <X 65 0
          /wV2ZWVu
        >
        E 0 90 3e 35
        E 160 80 3e 00
        <X 96 0
          /wVsYW4t
        >
        E 0 90 40 4e
        E 194 80 40 00
        <X 57 0
          /wVrZS0=
        >
        E 0 90 41 4f
        E 249 80 41 00
        <X 68 0
          /wVhYQ==
        >
        E 0 90 3e 52
        E 1151 80 3e 00
        E 56 80 69 00
        E 984 90 69 5b
        <X 86 0
          /wVLdXU=
        >
        E 0 90 3e 51
        E 181 80 3e 00
        <X 42 0
          /wUr
        >
        E 0 90 3c 52
        E 193 80 3c 00
        <X 134 0
          /wVub3Ut
        >
        E 0 90 3c 51
        E 736 80 3c 00
        <X 116 0
          /wVzZWU=
        >
        E 0 90 3e 51
        E 444 80 3e 00
        <X 108 0
          /wVtYWE=
        >
        E 0 90 40 51
        E 381 80 40 00
        <X 96 0
          /wVrYWFyLQ==
        >
        E 0 90 41 51
        E 774 80 41 00
        <X 158 0
          /wV0dXU=
        >
        E 0 90 43 53
        E 409 80 43 00
        <X 108 0
          /wVNdW4=
        >
        E 0 90 46 53
        E 346 80 46 00
        <X 120 0
          /wVwb3It
        >
        E 0 90 45 52
        E 150 80 45 00
        <X 63 0
          /wV0aXQ=
        >
        E 0 90 46 51
        E 148 80 46 00
        <X 86 0
          /wVhdS0=
        >
        E 0 90 45 52
        E 240 80 45 00
        <X 63 0
          /wVrZS0=
        >
        E 0 90 46 58
        E 277 80 46 00
        <X 79 0
          /wVhYQ==
        >
        E 0 90 45 55
        E 1864 80 45 00
        E 58 90 00 5b
        E 120 80 00 00
        E 50 80 69 00
        E 97 90 69 5b
        E 0 90 74 5b
        <X 33 0
          /wVIZWk=
        >
        E 0 90 39 4f
        E 470 80 39 00
        <X 234 0
          /wVtw6Q=
        >
        E 0 90 39 4f
        E 212 80 39 00
        <X 297 0
          /wVvb24=
        >
        E 0 90 39 61
        E 181 80 39 00
        <X 87 0
          /wVFLQ==
        >
        E 0 90 37 57
        E 180 80 37 00
        <X 59 0
          /wVyaS0=
        >
        E 0 90 37 54
        E 122 80 37 00
        <X 87 0
          /wVrYQ==
        >
        E 0 90 3a 4f
        E 357 80 3a 00
        E 74 80 69 00
        E 0 80 74 00
        E 161 90 69 5b
        <X 123 0
          /wV0ZXIt
        >
        E 0 90 39 58
        E 429 80 39 00
        <X 59 0
          /wV2ZS0=
        >
        E 0 90 39 43
        E 158 80 39 00
        <X 78 0
          /wV0dS0=
        >
        E 0 90 37 5b
        E 201 80 37 00
        <X 42 0
          /wVsby0=
        >
        E 0 90 37 5b
        E 170 80 37 00
        <X 43 0
          /wVh
        >
        E 0 90 37 5b
        E 118 80 37 00
        <X 85 0
          /wVTw6Q=
        >
        E 0 90 37 5b
        E 231 80 37 00
        E 172 80 69 00
        E 86 90 69 5b
        <X 49 0
          /wVvb3Q=
        >
        E 0 90 32 5b
        E 237 80 32 00
        <X 214 0
          /wVrdQ==
        >
        E 0 90 32 5b
        E 168 80 32 00
        <X 100 0
          /wVpLQ==
        >
        E 0 90 36 5b
        E 159 80 36 00
        <X 44 0
          /wVoYS0=
        >
        E 0 90 35 5b
        E 232 80 35 00
        <X 50 0
          /wVuYQ==
        >
        E 0 90 37 5b
        E 389 80 37 00
        <X 32 0
          /wUr
        >
        E 0 90 36 5b
        E 147 80 36 00
        <X 133 0
          /wV0cmFuLQ==
        >
        E 0 90 32 5b
        E 340 80 32 00
        <X 69 0
          /wVjZS0=
        >
        E 0 90 32 5b
        E 291 80 32 00
        <X 66 0
          /wVqdS0=
        >
        E 0 90 35 5b
        E 162 80 35 00
        <X 41 0
          /wVtYS0=
        >
        E 0 90 35 5b
        E 224 80 35 00
        <X 43 0
          /wVsYQ==
        >
        E 0 90 37 5b
        E 125 80 37 00
        <X 112 0
          /wVPbw==
        >
        E 0 90 34 5b
        E 258 80 34 00
        E 28 80 69 00
        E 146 90 69 5b
        <X 58 0
          /wV0w6TDpGw=
        >
        E 0 90 39 5b
        E 365 80 39 00
        <X 90 0
          /wVrdQ==
        >
        E 0 90 39 5b
        E 157 80 39 00
        <X 82 0
          /wVrby0=
        >
        E 0 90 37 5b
        E 159 80 37 00
        <X 86 0
          /wV0by0=
        >
        E 0 90 37 5b
        E 229 80 37 00
        <X 46 0
          /wVuYQ==
        >
        E 0 90 3a 5b
        E 326 80 3a 00
        E 160 80 69 00
        E 140 90 69 5b
        E 0 90 74 5b
        <X 61 0
          /wVUZWU=
        >
        E 0 90 39 5b
        E 320 80 39 00
        <X 147 0
          /wVrdQ==
        >
        E 0 90 39 5b
        E 203 80 39 00
        <X 52 0
          /wVoYS0=
        >
        E 0 90 37 5b
        E 88 80 37 00
        <X 29 0
          /wVsdXV0
        >
        E 0 90 37 5b
        E 205 80 37 00
        <X 123 0
          /wVqYQ==
        >
        E 0 90 3a 5b
        E 210 80 3a 00
        <X 71 0
          /wVrdQ==
        >
        E 0 90 39 5b
        E 217 80 39 00
        <X 278 0
          /wV0dXV0
        >
        E 0 90 32 5b
        E 1485 80 32 00
        E 181 80 69 00
        E 0 80 74 00
        E 153 90 69 5b
        <X 73 0
          /wVUdXVu
        >
        E 0 90 32 5b
        E 339 80 32 00
        <X 75 0
          /wVzdW4=
        >
        E 0 90 32 5b
        E 251 80 32 00
        <X 80 0
          /wVtdS0=
        >
        E 0 90 35 5b
        E 146 80 35 00
        <X 73 0
          /wVrYS0=
        >
        E 0 90 35 5b
        E 171 80 35 00
        <X 61 0
          /wVuYQ==
        >
        E 0 90 37 5b
        E 260 80 37 00
        E 392 80 69 00
        E 783 90 00 5b
        E 489 80 00 00
        E 2103 90 69 5b
        <X 302 0
          /wVJY2gj
        >
        E 0 90 43 5b
        E 379 80 43 00
        <X 154 0
          /wVrb20tIw==
        >
        E 0 90 43 5b
        E 390 80 43 00
        <X 81 0
          /wVtZSM=
        >
        E 0 90 43 5b
        E 324 80 43 00
        <X 563 0
          /wVpY2gj
        >
        E 0 90 43 5b
        E 379 80 43 00
        <X 131 0
          /wVrb20tIw==
        >
        E 0 90 43 5b
        E 362 80 43 00
        <X 109 0
          /wVtZSM=
        >
        E 0 90 43 5b
        E 347 80 43 00
        E 89 80 69 00
        E 179 90 69 60
        <X 101 0
          /wVKYQ==
        >
        E 0 90 47 5b
        E 153 80 47 00
        <X 96 0
          /wVlbi0=
        >
        E 0 90 47 5b
        E 427 80 47 00
        <X 45 0
          /wVuZW4=
        >
        E 0 90 47 5b
        E 102 80 47 00
        <X 26 0
          /wUr
        >
        E 0 90 46 5b
        E 52 80 46 00
        <X 61 0
          /wVrdQ==
        >
        E 0 90 44 5b
        E 91 80 44 00
        <X 141 0
          /wV0dWwt
        >
        E 0 90 48 5b
        E 432 80 48 00
        <X 40 0
          /wVsZWU=
        >
        E 0 90 48 5b
        E 140 80 48 00
        <X 69 0
          /wVzZQ==
        >
        E 0 90 47 5b
        E 191 80 47 00
        <X 78 0
          /wVodXUt
        >
        E 0 90 45 5b
        E 481 80 45 00
        <X 75 0
          /wV0YWE=
        >
        E 0 90 48 5b
        E 407 80 48 00
        <X 111 0
          /wVtdWwt
        >
        E 0 90 47 5b
        E 329 80 47 00
        <X 62 0
          /wVsZQ==
        >
        E 0 90 43 5b
        E 381 80 43 00
        E 15 80 69 00
        E 85 90 69 60
        E 0 90 74 60
        <X 37 0
          /wVJY2gj
        >
        E 0 90 43 5b
        E 379 80 43 00
        <X 122 0
          /wVrb20tIw==
        >
        E 0 90 43 5b
        E 390 80 43 00
        <X 81 0
          /wVtZSM=
        >
        E 0 90 43 5b
        E 324 80 43 00
        <X 595 0
          /wVpY2gj
        >
        E 0 90 43 5b
        E 379 80 43 00
        <X 131 0
          /wVrb20tIw==
        >
        E 0 90 43 5b
        E 362 80 43 00
        <X 109 0
          /wVtZSM=
        >
        E 0 90 43 5b
        E 347 80 43 00
        E 45 80 69 00
        E 0 80 74 00
        E 147 90 69 60
        <X 131 0
          /wVKYQ==
        >
        E 0 90 46 5b
        E 141 80 46 00
        <X 106 0
          /wVzaWkt
        >
        E 0 90 47 5b
        E 274 80 47 00
        <X 67 0
          /wVoZW4=
        >
        E 0 90 47 5b
        E 251 80 47 00
        <X 91 0
          /wVtw6Q=
        >
        E 0 90 47 5b
        E 151 80 47 00
        <X 142 0
          /wVrYS0=
        >
        E 0 90 48 5b
        E 251 80 48 00
        <X 64 0
          /wVqYXUt
        >
        E 0 90 48 5b
        E 280 80 48 00
        <X 87 0
          /wV0aW4=
        >
        E 0 90 48 5b
        E 190 80 48 00
        <X 103 0
          /wVrb3Yt
        >
        E 0 90 45 5b
        E 335 80 45 00
        <X 148 0
          /wV2YWE=
        >
        E 0 90 4b 5b
        E 112 80 4b 00
        <X 51 0
          /wUr
        >
        E 0 90 4c 5b
        E 235 80 4c 00
        <X 129 0
          /wVJY2g=
        >
        E 0 90 4a 5b
        E 344 80 4a 00
        <X 90 0
          /wVrb20t
        >
        E 0 90 47 5b
        E 385 80 47 00
        <X 142 0
          /wVtZQ==
        >
        E 0 90 45 5b
        E 3049 80 45 00
        E 38 80 69 00
        E 199 90 69 60
        <X 49 0
          /wVKYQ==
        >
        E 0 90 47 5b
        E 224 80 47 00
        <X 83 0
          /wVtZQ==
        >
        E 0 90 47 5b
        E 150 80 47 00
        <X 90 0
          /wV5LQ==
        >
        E 0 90 47 5b
        E 98 80 47 00
        <X 69 0
          /wVoZXMt
        >
        E 0 90 47 5b
        E 196 80 47 00
        <X 69 0
          /wVzw6Q=
        >
        E 0 90 46 5b
        E 249 80 46 00
        <X 158 0
          /wV0dWwt
        >
        E 0 90 48 5b
        E 318 80 48 00
        <X 77 0
          /wVsYWFu
        >
        E 0 90 48 5b
        E 214 80 48 00
        <X 111 0
          /wVqYQ==
        >
        E 0 90 47 5b
        E 170 80 47 00
        <X 95 0
          /wVvbC0=
        >
        E 0 90 45 5b
        E 372 80 45 00
        <X 72 0
          /wVsYWFu
        >
        E 0 90 48 5b
        E 340 80 48 00
        <X 114 0
          /wVzaWwt
        >
        E 0 90 47 5b
        E 139 80 47 00
        <X 134 0
          /wUr
        >
        E 0 90 43 5b
        E 183 80 43 00
        <X 92 0
          /wVsZWU=
        >
        E 0 90 45 5b
        E 1227 80 45 00
        E 70 80 69 00
        E 2618 90 69 60
        <X 412 0
          /wVUw6RsLQ==
        >
        E 0 90 47 5b
        E 467 80 47 00
        <X 70 0
          /wVsw6RzdA==
        >
        E 0 90 47 5b
        E 151 80 47 00
        <X 99 0
          /wVzZQ==
        >
        E 0 90 45 5b
        E 84 80 45 00
        <X 88 0
          /wVvbg==
        >
        E 0 90 48 5b
        E 592 80 48 00
        <X 113 0
          /wVrdQ==
        >
        E 0 90 48 5b
        E 160 80 48 00
        <X 93 0
          /wVsb3Yt
        >
        E 0 90 45 5b
        E 435 80 45 00
        <X 67 0
          /wV2ZWVu
        >
        E 0 90 48 5b
        E 385 80 48 00
        <X 129 0
          /wVsYW4t
        >
        E 0 90 47 5b
        E 388 80 47 00
        <X 83 0
          /wVrZWU=
        >
        E 0 90 47 5b
        E 179 80 47 00
        <X 125 0
          /wUr
        >
        E 0 90 43 5b
        E 296 80 43 00
        <X 79 0
          /wUr
        >
        E 0 90 42 5b
        E 753 80 42 00
        E 190 80 69 00
        E 239 90 69 60
        E 178 90 74 60
        <X 228 0
          /wVXdW4tIw==
        >
        E 0 90 43 5b
        E 276 80 43 00
        <X 65 0
          /wVkZXItIw==
        >
        E 0 90 43 5b
        E 111 80 43 00
        <X 46 0
          /wViYXIj
        >
        E 0 90 43 5b
        E 401 80 43 00
        E 269 80 74 00
        E 157 90 00 5b
        E 32 80 69 00
        E 137 80 00 00
        E 381 90 69 60
        <X 337 0
          /wVNw6Q=
        >
        E 0 90 3e 5b
        E 243 80 3e 00
        <X 244 0
          /wVvb24=
        >
        E 0 90 3c 5b
        E 197 80 3c 00
        <X 115 0
          /wVFLQ==
        >
        E 0 90 3c 5b
        E 138 80 3c 00
        <X 83 0
          /wVyaS0=
        >
        E 0 90 3c 5b
        E 161 80 3c 00
        <X 82 0
          /wVrYQ==
        >
        E 0 90 40 5b
        E 492 80 40 00
        <X 157 0
          /wVoYXVzLQ==
        >
        E 0 90 3e 5b
        E 415 80 3e 00
        <X 81 0
          /wVrYQ==
        >
        E 0 90 3e 5b
        E 144 80 3e 00
        <X 115 0
          /wV0YS0=
        >
        E 0 90 3c 5b
        E 203 80 3c 00
        <X 62 0
          /wV2YS0=
        >
        E 0 90 3c 5b
        E 102 80 3c 00
        <X 147 0
          /wV0YQ==
        >
        E 0 90 40 5b
        E 439 80 40 00
        E 76 80 69 00
        E 2928 90 69 60
        <X 301 0
          /wVKYQ==
        >
        E 0 90 3e 5b
        E 165 80 3e 00
        <X 151 0
          /wV0YW5zLQ==
        >
        E 0 90 3d 5b
        E 266 80 3d 00
        <X 106 0
          /wVzaW4=
        >
        E 0 90 39 5b
        E 170 80 39 00
        <X 115 0
          /wVzdW4=
        >
        E 0 90 39 5b
        E 193 80 39 00
        <X 110 0
          /wVrYWE=
        >
        E 0 90 3c 5b
        E 381 80 3c 00
        <X 106 0
          /wV2YWlr
        >
        E 0 90 3c 5b
        E 128 80 3c 00
        <X 97 0
          /wVow6TDpC0=
        >
        E 0 90 3e 5b
        E 225 80 3e 00
        <X 78 0
          /wV2YWxzLQ==
        >
        E 0 90 3f 5b
        E 221 80 3f 00
        <X 59 0
          /wVzaW4=
        >
        E 0 90 39 5b
        E 445 80 39 00
        <X 105 0
          /wVtdXQ=
        >
        E 0 90 39 5b
        E 170 80 39 00
        <X 78 0
          /wVuYS0=
        >
        E 0 90 3c 5b
        E 192 80 3c 00
        <X 124 0
          /wVrdS0=
        >
        E 0 90 3c 5b
        E 161 80 3c 00
        <X 101 0
          /wVuYQ==
        >
        E 0 90 3e 5b
        E 532 80 3e 00
        E 356 80 69 00
        E 962 90 00 5b
        E 570 80 00 00
        E 1560 90 69 60
        <X 535 0
          /wVNw6Q=
        >
        E 0 90 45 5b
        E 225 80 45 00
        <X 218 0
          /wVvb24=
        >
        E 0 90 45 5b
        E 243 80 45 00
        <X 84 0
          /wVFLQ==
        >
        E 0 90 43 5b
        E 144 80 43 00
        <X 53 0
          /wVyaS0=
        >
        E 0 90 43 5b
        E 181 80 43 00
        <X 72 0
          /wVrYQ==
        >
        E 0 90 46 5b
        E 310 80 46 00
        E 144 80 69 00
        E 79 90 69 60
        E 0 90 74 60
        <X 72 0
          /wVTdXM=
        >
        E 0 90 45 5b
        E 517 80 45 00
        <X 86 0
          /wVvbg==
        >
        E 0 90 45 5b
        E 118 80 45 00
        <X 86 0
          /wVzdGEt
        >
        E 0 90 43 5b
        E 218 80 43 00
        <X 65 0
          /wVtaS0=
        >
        E 0 90 43 5b
        E 162 80 43 00
        <X 56 0
          /wVuYWE=
        >
        E 0 90 46 5b
        E 262 80 46 00
        <X 88 0
          /wVJcy0=
        >
        E 0 90 46 5b
        E 219 80 46 00
        E 25 80 69 00
        E 0 80 74 00
        E 32 90 69 60
        <X 42 0
          /wVrZQ==
        >
        E 0 90 3e 5b
        E 189 80 3e 00
        <X 83 0
          /wVtdXQ=
        >
        E 0 90 3e 5b
        E 383 80 3e 00
        <X 90 0
          /wV1dS0=
        >
        E 0 90 41 5b
        E 242 80 41 00
        <X 47 0
          /wVkZXMt
        >
        E 0 90 42 5b
        E 135 80 42 00
        <X 49 0
          /wV0YWFu
        >
        E 0 90 45 5b
        E 163 80 45 00
        E 29 80 69 00
        E 42 90 69 60
        <X 16 0
          /wVLw6R5
        >
        E 0 90 40 5b
        E 338 80 40 00
        <X 104 0
          /wVraWk=
        >
        E 0 90 3b 5b
        E 166 80 3b 00
        <X 45 0
          /wUr
        >
        E 0 90 3e 5b
        E 183 80 3e 00
        <X 59 0
          /wVtdW4=
        >
        E 0 90 40 5b
        E 224 80 40 00
        <X 81 0
          /wVwYS0=
        >
        E 0 90 41 5b
        E 156 80 41 00
        <X 84 0
          /wVrYS0=
        >
        E 0 90 41 5b
        E 208 80 41 00
        <X 48 0
          /wVyYWFu
        >
        E 0 90 43 5b
        E 527 80 43 00
        E 1 80 69 00
        E 129 90 69 60
        <X 42 0
          /wVKYQ==
        >
        E 0 90 45 60
        E 153 80 45 00
        <X 315 0
          /wVrdQ==
        >
        E 0 90 45 60
        E 126 80 45 00
        <X 81 0
          /wVoYS0=
        >
        E 0 90 43 60
        E 120 80 43 00
        <X 51 0
          /wVsdXV0
        >
        E 0 90 43 60
        E 255 80 43 00
        <X 98 0
          /wV0YWFz
        >
        E 0 90 46 60
        E 97 80 46 00
        <X 58 0
          /wUr
        >
        E 0 90 45 60
        E 72 80 45 00
        <X 76 0
          /wVsb3Yt
        >
        E 0 90 45 60
        E 318 80 45 00
        <X 104 0
          /wV2ZWU=
        >
        E 0 90 45 60
        E 385 80 45 00
        E 21 80 69 00
        E 96 90 69 60
        E 0 90 74 60
        <X 45 0
          /wVodXUt
        >
        E 0 90 43 60
        E 346 80 43 00
        <X 51 0
          /wVkYQ==
        >
        E 0 90 43 60
        E 233 80 43 00
        <X 93 0
          /wVFbi0=
        >
        E 0 90 46 60
        E 148 80 46 00
        <X 92 0
          /wVjby0=
        >
        E 0 90 45 60
        E 187 80 45 00
        <X 126 0
          /wUr
        >
        E 0 90 3e 60
        E 288 80 3e 00
        <X 86 0
          /wVyZQ==
        >
        E 0 90 3e 60
        E 1470 80 3e 00
        E 18 80 69 00
        E 0 80 74 00
        E 73 90 69 60
        <X 115 0
          /wVKYQ==
        >
        E 0 90 45 60
        E 130 80 45 00
        <X 97 0
          /wViYS0=
        >
        E 0 90 43 60
        E 222 80 43 00
        <X 72 0
          /wVieQ==
        >
        E 0 90 43 60
        E 199 80 43 00
        <X 95 0
          /wVpY2g=
        >
        E 0 90 43 60
        E 301 80 43 00
        <X 97 0
          /wVrb20t
        >
        E 0 90 45 60
        E 359 80 45 00
        <X 136 0
          /wVtZQ==
        >
        E 0 90 45 60
        E 3066 80 45 00
        E 130 90 00 60
        E 109 80 69 00
        E 41 80 00 00
        E 161 90 69 60
        <X 78 0
          /wVKYQ==
        >
        E 0 90 45 60
        E 131 80 45 00
        <X 136 0
          /wVqw6RsLQ==
        >
        E 0 90 47 60
        E 261 80 47 00
        <X 56 0
          /wVsZWVu
        >
        E 0 90 47 60
        E 265 80 47 00
        <X 58 0
          /wVrdQ==
        >
        E 0 90 45 60
        E 120 80 45 00
        <X 173 0
          /wV0dWwt
        >
        E 0 90 47 60
        E 220 80 47 00
        <X 64 0
          /wVsZWU=
        >
        E 0 90 47 60
        E 273 80 47 00
        E 25 80 69 00
        E 55 90 69 60
        <X 17 0
          /wVzZQ==
        >
        E 0 90 48 60
        E 231 80 48 00
        <X 116 0
          /wVodXUt
        >
        E 0 90 44 60
        E 123 80 44 00
        <X 83 0
          /wUr
        >
        E 0 90 46 60
        E 139 80 46 00
        <X 72 0
          /wV0YWE=
        >
        E 0 90 48 60
        E 413 80 48 00
        <X 107 0
          /wVtdWwt
        >
        E 0 90 47 60
        E 373 80 47 00
        <X 107 0
          /wVsZQ==
        >
        E 0 90 43 60
        E 334 80 43 00
        E 16 80 69 00
        E 114 90 69 60
        E 0 90 74 60
        <X 57 0
          /wVJY2gj
        >
        E 0 90 43 5b
        E 379 80 43 00
        <X 122 0
          /wVrb20tIw==
        >
        E 0 90 43 5b
        E 390 80 43 00
        <X 81 0
          /wVtZSM=
        >
        E 0 90 43 5b
        E 324 80 43 00
        <X 480 0
          /wVpY2gj
        >
        E 0 90 43 5b
        E 379 80 43 00
        <X 131 0
          /wVrb20tIw==
        >
        E 0 90 43 5b
        E 362 80 43 00
        <X 109 0
          /wVtZSM=
        >
        E 0 90 43 5b
        E 347 80 43 00
        E 25 80 69 00
        E 0 80 74 00
        E 304 90 69 60
        <X 367 0
          /wVFbi0=
        >
        E 0 90 46 60
        E 373 80 46 00
        <X 59 0
          /wVrw6Q=
        >
        E 0 90 46 60
        E 117 80 46 00
        <X 101 0
          /wVtw6Q=
        >
        E 0 90 47 60
        E 159 80 47 00
        <X 101 0
          /wV2b2k=
        >
        E 0 90 47 60
        E 179 80 47 00
        <X 42 0
          /wUr
        >
        E 0 90 48 60
        E 153 80 48 00
        <X 104 0
          /wVrdQ==
        >
        E 0 90 48 60
        E 156 80 48 00
        <X 97 0
          /wV2YWE=
        >
        E 0 90 48 60
        E 176 80 48 00
        <X 81 0
          /wVwYXIt
        >
        E 0 90 47 60
        E 346 80 47 00
        <X 140 0
          /wVrdXU=
        >
        E 0 90 45 60
        E 142 80 45 00
        <X 104 0
          /wUr
        >
        E 0 90 4c 60
        E 174 80 4c 00
        E 19 80 69 00
        E 69 90 69 60
        <X 27 0
          /wVJY2g=
        >
        E 0 90 4a 60
        E 312 80 4a 00
        <X 165 0
          /wVrb20t
        >
        E 0 90 4a 60
        E 344 80 4a 00
        <X 210 0
          /wVtZQ==
        >
        E 0 90 45 60
        E 3002 80 45 00
        E 49 80 69 00
        E 111 90 69 60
        <X 30 0
          /wVKYQ==
        >
        E 0 90 46 5b
        E 224 80 46 00
        <X 83 0
          /wVtZQ==
        >
        E 0 90 47 5b
        E 150 80 47 00
        <X 90 0
          /wV5LQ==
        >
        E 0 90 47 5b
        E 98 80 47 00
        <X 69 0
          /wVoZXMt
        >
        E 0 90 47 5b
        E 265 80 47 00
        <X 78 0
          /wVzw6Q=
        >
        E 0 90 45 5b
        E 249 80 45 00
        <X 176 0
          /wV0dWwt
        >
        E 0 90 48 5b
        E 318 80 48 00
        <X 77 0
          /wVsYWFu
        >
        E 0 90 48 5b
        E 214 80 48 00
        E 23 80 69 00
        E 41 90 69 60
        E 0 90 74 60
        <X 47 0
          /wVqYQ==
        >
        E 0 90 48 5b
        E 170 80 48 00
        <X 95 0
          /wVvbC0=
        >
        E 0 90 45 5b
        E 372 80 45 00
        <X 72 0
          /wVsYWFu
        >
        E 0 90 47 5b
        E 340 80 47 00
        <X 114 0
          /wVzaWwt
        >
        E 0 90 47 5b
        E 139 80 47 00
        <X 134 0
          /wUr
        >
        E 0 90 43 5b
        E 183 80 43 00
        <X 92 0
          /wVsZWU=
        >
        E 0 90 45 5b
        E 1305 80 45 00
        E 133 80 69 00
        E 0 80 74 00
        E 577 90 69 5b
        <X 539 0
          /wVJY2gj
        >
        E 0 90 42 5b
        E 157 80 42 00
        <X 76 0
          /wVrb20tIw==
        >
        E 0 90 42 5b
        E 332 80 42 00
        <X 181 0
          /wVtZSM=
        >
        E 0 90 42 5b
        E 335 80 42 00
        E 102 80 69 00
        E 480 90 69 5b
        <X 64 0
          /wVUw6RsLQ==
        >
        E 0 90 45 5b
        E 467 80 45 00
        <X 70 0
          /wVsw6RzdA==
        >
        E 0 90 47 5b
        E 151 80 47 00
        <X 108 0
          /wVzZQ==
        >
        E 0 90 47 5b
        E 75 80 47 00
        <X 88 0
          /wVvbg==
        >
        E 0 90 48 5b
        E 592 80 48 00
        <X 113 0
          /wVrdQ==
        >
        E 0 90 47 5b
        E 160 80 47 00
        <X 93 0
          /wVsb3Yt
        >
        E 0 90 45 5b
        E 435 80 45 00
        <X 67 0
          /wV2ZWVu
        >
        E 0 90 48 5b
        E 385 80 48 00
        <X 129 0
          /wVsYW4t
        >
        E 0 90 47 5b
        E 388 80 47 00
        <X 83 0
          /wVrZWU=
        >
        E 0 90 47 5b
        E 179 80 47 00
        <X 125 0
          /wUr
        >
        E 0 90 43 5b
        E 296 80 43 00
        <X 79 0
          /wUr
        >
        E 0 90 42 5b
        E 2737 80 42 00
        E 70 80 69 00
        <X 410 0
          /wFbaWRsZV0=
        >
        E 11066 90 69 5b
        <X 44 0
          /wFbcGxheV0=
        >
        <X 480 0
          /wVMZXQj
        >
        E 0 90 42 5b
        E 686 80 42 00
        <X 140 0
          /wVnbyM=
        >
        E 0 90 42 5b
        E 151 80 42 00
        <X 83 0
          /wVqYSM=
        >
        E 0 90 42 5b
        E 133 80 42 00
        <X 87 0
          /wVhbi0j
        >
        E 0 90 42 5b
        E 328 80 42 00
        <X 80 0
          /wVuYSM=
        >
        E 0 90 42 5b
        E 262 80 42 00
        <X 185 0
          /wV0YS0j
        >
        E 0 90 42 5b
        E 218 80 42 00
        <X 66 0
          /wVwYWgtIw==
        >
        E 0 90 42 5b
        E 340 80 42 00
        <X 175 0
          /wV0dXUj
        >
        E 0 90 42 5b
        E 571 80 42 00
        <X 105 0
          /wVCYS0j
        >
        E 0 90 42 5b
        E 190 80 42 00
        <X 87 0
          /wVieSM=
        >
        E 0 90 42 5b
        E 309 80 42 00
        <X 110 0
          /wVhbi0j
        >
        E 0 90 42 5b
        E 266 80 42 00
        <X 74 0
          /wVuYSM=
        >
        E 0 90 42 5b
        E 290 80 42 00
        <X 149 0
          /wVpdC0j
        >
        E 0 90 42 5b
        E 319 80 42 00
        <X 81 0
          /wV0ZXMj
        >
        E 0 90 42 5b
        E 248 80 42 00
        <X 120 0
          /wVqYSM=
        >
        E 0 90 42 5b
        E 92 80 42 00
        <X 99 0
          /wVtdS0j
        >
        E 0 90 42 5b
        E 152 80 42 00
        <X 71 0
          /wVrYWFuIw==
        >
        E 0 90 42 5b
        E 347 80 42 00
        <X 99 0
          /wV0dXUj
        >
        E 0 90 42 5b
        E 549 80 42 00
        E 167 80 69 00
        E 227 90 69 5b
        E 0 90 74 5b
        <X 282 0
          /wVUw6RoLSM=
        >
        E 0 90 42 5b
        E 396 80 42 00
        <X 93 0
          /wVkZXQj
        >
        E 0 90 42 5b
        E 145 80 42 00
        <X 99 0
          /wVzdW4j
        >
        E 0 90 42 5b
        E 148 80 42 00
        <X 68 0
          /wVzaWwtIw==
        >
        E 0 90 42 5b
        E 414 80 42 00
        <X 88 0
          /wVtaXMj
        >
        E 0 90 42 5b
        E 255 80 42 00
        <X 75 0
          /wVqYSM=
        >
        E 0 90 42 5b
        E 95 80 42 00
        <X 106 0
          /wVtw6Qj
        >
        E 0 90 42 5b
        E 160 80 42 00
        <X 88 0
          /wVzdW4j
        >
        E 0 90 42 5b
        E 333 80 42 00
        <X 113 0
          /wVww6TDpGwj
        >
        E 0 90 42 5b
        E 574 80 42 00
        <X 145 0
          /wVCYS0j
        >
        E 0 90 42 5b
        E 201 80 42 00
        <X 68 0
          /wVieSM=
        >
        E 0 90 42 5b
        E 173 80 42 00
        <X 103 0
          /wVhbi0j
        >
        E 0 90 42 5b
        E 219 80 42 00
        <X 75 0
          /wVzYWl0LSM=
        >
        E 0 90 42 5b
        E 216 80 42 00
        <X 77 0
          /wVzZXQj
        >
        E 0 90 42 5b
        E 216 80 42 00
        <X 92 0
          /wVrYWktIw==
        >
        E 0 90 42 5b
        E 315 80 42 00
        <X 100 0
          /wVrZW4j
        >
        E 0 90 42 5b
        E 339 80 42 00
        <X 89 0
          /wVoeS0j
        >
        E 0 90 42 5b
        E 285 80 42 00
        <X 73 0
          /wV2w6RuIw==
        >
        E 0 90 42 5b
        E 349 80 42 00
        <X 91 0
          /wV0w6TDpGwj
        >
        E 0 90 42 5b
        E 746 80 42 00
        E 100 80 69 00
        E 0 80 74 00
        E 112 90 69 5b
        <X 156 0
          /wVMZXQj
        >
        E 0 90 42 5b
        E 685 80 42 00
        <X 141 0
          /wVnbyM=
        >
        E 0 90 42 5b
        E 151 80 42 00
        <X 82 0
          /wVqYSM=
        >
        E 0 90 42 5b
        E 133 80 42 00
        <X 87 0
          /wVhbi0j
        >
        E 0 90 42 5b
        E 329 80 42 00
        <X 80 0
          /wVuYSM=
        >
        E 0 90 42 5b
        E 262 80 42 00
        <X 185 0
          /wV0YS0j
        >
        E 0 90 42 5b
        E 217 80 42 00
        <X 67 0
          /wVwYWgtIw==
        >
        E 0 90 42 5b
        E 339 80 42 00
        <X 176 0
          /wV0dXUj
        >
        E 0 90 42 5b
        E 379 80 42 00
        <X 217 0
          /wVCYS0j
        >
        E 0 90 42 5b
        E 189 80 42 00
        <X 59 0
          /wVieSM=
        >
        E 0 90 42 5b
        E 130 80 42 00
        <X 82 0
          /wV2b2l0Iw==
        >
        E 0 90 42 5b
        E 385 80 42 00
        <X 94 0
          /wV2aWVsIw==
        >
        E 0 90 42 5b
        E 430 80 42 00
        <X 75 0
          /wVpdC0j
        >
        E 0 90 42 5b
        E 297 80 42 00
        <X 109 0
          /wV0ZWVzIw==
        >
        E 0 90 42 5b
        E 404 80 42 00
        <X 109 0
          /wVyYS0j
        >
        E 0 90 42 5b
        E 205 80 42 00
        <X 59 0
          /wVrYXMtIw==
        >
        E 0 90 42 5b
        E 391 80 42 00
        <X 100 0
          /wV0dXUj
        >
        E 0 90 42 5b
        E 572 80 42 00
        E 147 80 69 00
        E 302 90 69 5b
        <X 125 0
          /wVUw6RoLSM=
        >
        E 0 90 42 5b
        E 396 80 42 00
        <X 92 0
          /wVkZXQj
        >
        E 0 90 42 5b
        E 145 80 42 00
        <X 99 0
          /wVzdW4j
        >
        E 0 90 42 5b
        E 149 80 42 00
        <X 67 0
          /wVzaWwtIw==
        >
        E 0 90 42 5b
        E 414 80 42 00
        <X 89 0
          /wVtaXMj
        >
        E 0 90 42 5b
        E 255 80 42 00
        <X 74 0
          /wVqYSM=
        >
        E 0 90 42 5b
        E 96 80 42 00
        <X 106 0
          /wVtw6Qj
        >
        E 0 90 42 5b
        E 159 80 42 00
        <X 89 0
          /wVzdW4j
        >
        E 0 90 42 5b
        E 332 80 42 00
        <X 114 0
          /wVww6TDpGwj
        >
        E 0 90 42 5b
        E 573 80 42 00
        <X 145 0
          /wVCYS0j
        >
        E 0 90 42 5b
        E 202 80 42 00
        <X 67 0
          /wVieSM=
        >
        E 0 90 42 5b
        E 174 80 42 00
        <X 102 0
          /wVhbi0j
        >
        E 0 90 42 5b
        E 220 80 42 00
        <X 74 0
          /wVzYWl0LSM=
        >
        E 0 90 42 5b
        E 216 80 42 00
        <X 78 0
          /wVzZXQj
        >
        E 0 90 42 5b
        E 216 80 42 00
        <X 92 0
          /wVrYWktIw==
        >
        E 0 90 42 5b
        E 315 80 42 00
        <X 99 0
          /wVrZW4j
        >
        E 0 90 42 5b
        E 340 80 42 00
        <X 88 0
          /wVoeS0j
        >
        E 0 90 42 5b
        E 285 80 42 00
        <X 73 0
          /wV2w6RuIw==
        >
        E 0 90 42 5b
        E 350 80 42 00
        <X 91 0
          /wV0w6TDpGwj
        >
        E 0 90 42 5b
        E 746 80 42 00
        E 150 80 69 00
        E 205 90 69 5b
        <X 96 0
          /wVpY2gj
        >
        E 0 90 42 5b
        E 379 80 42 00
        <X 183 0
          /wVrb20tIw==
        >
        E 0 90 42 5b
        E 361 80 42 00
        <X 56 0
          /wVtZSM=
        >
        E 0 90 42 5b
        E 310 80 42 00
        <X 1152 0
          /wVpY2g=
        >
        E 0 90 46 5b
        E 343 80 46 00
        <X 127 0
          /wVrb20t
        >
        E 0 90 46 5b
        E 391 80 46 00
        <X 127 0
          /wVtZQ==
        >
        E 0 90 47 5b
        E 3563 80 47 00
        E 176 80 69 00
        E 348 90 69 5b
        <X 161 0
          /wVpY2gj
        >
        E 0 90 42 5b
        E 267 80 42 00
        <X 227 0
          /wVrb20tIw==
        >
        E 0 90 42 5b
        E 278 80 42 00
        <X 196 0
          /wVtZSM=
        >
        E 0 90 42 5b
        E 335 80 42 00
        <X 609 0
          /wVsby0=
        >
        E 0 90 45 5b
        E 335 80 45 00
        <X 87 0
          /wV2ZWVu
        >
        E 0 90 48 5b
        E 361 80 48 00
        <X 104 0
          /wVsYW4t
        >
        E 0 90 48 5b
        E 454 80 48 00
        <X 116 0
          /wVrZWU=
        >
        E 0 90 47 5b
        E 665 80 47 00
        <X 100 0
          /wUr
        >
        E 0 90 45 5b
        E 3112 80 45 00
        E 176 80 69 00
        E 170 90 69 5b
        <X 72 0
          /wVpY2gj
        >
        E 0 90 42 5b
        E 379 80 42 00
        <X 183 0
          /wVrb20tIw==
        >
        E 0 90 42 5b
        E 361 80 42 00
        <X 56 0
          /wVtZSM=
        >
        E 0 90 42 5b
        E 310 80 42 00
        <X 1111 0
          /wVoZWk=
        >
        E 0 90 47 5b
        E 416 80 47 00
        <X 110 0
          /wViYS0=
        >
        E 0 90 45 5b
        E 434 80 45 00
        <X 129 0
          /wVieQ==
        >
        E 0 90 4a 5b
        E 3148 80 4a 00
        E 116 80 69 00
        E 365 90 69 5b
        <X 274 0
          /wVKYQ==
        >
        E 0 90 47 5b
        E 79 80 47 00
        <X 213 0
          /wV0w6RsLQ==
        >
        E 0 90 47 5b
        E 347 80 47 00
        <X 49 0
          /wVsw6RzdA==
        >
        E 0 90 47 5b
        E 221 80 47 00
        <X 49 0
          /wVzZQ==
        >
        E 0 90 47 5b
        E 133 80 47 00
        <X 111 0
          /wVvbg==
        >
        E 0 90 48 5b
        E 421 80 48 00
        <X 322 0
          /wVrdQ==
        >
        E 0 90 47 5b
        E 151 80 47 00
        <X 67 0
          /wVsb3Yt
        >
        E 0 90 45 5b
        E 321 80 45 00
        <X 100 0
          /wV2ZWVu
        >
        E 0 90 48 5b
        E 448 80 48 00
        <X 92 0
          /wVsYW4t
        >
        E 0 90 48 5b
        E 419 80 48 00
        <X 127 0
          /wVrZWU=
        >
        E 0 90 47 5b
        E 462 80 47 00
        <X 76 0
          /wUr
        >
        E 0 90 45 5b
        E 688 80 45 00
        <X 74 0
          /wUr
        >
        E 0 90 48 5b
        E 1978 80 48 00
        E 36 80 69 00
        <X 263 0
          /wFbaWRsZV9yZWFsdGltZV0=
        >
        E 241 b0 7b 00
        GUID {C9A1A4CA-4224-4672-91C0-075BEB2A8650}
        IGNTEMPO 0 120.00000000 4 4
        SRCCOLOR 1166
        VELLANE 132 38 60
        COLORMAP "C:\Users\wejaa\AppData\Roaming\REAPER\Data\color_maps\rockband_vox-other.png"
        TEXTSTRINGFILE "Text Events List.txt"
        CFGEDITVIEW -3864.655497 130.847368 53 14 0 0 0
        CFGEDIT 1 1 0 0 0 1 1 1 1 0 1 0.12500000 -8 -8 1370 736 1 0 1 2 0.00000000 0 0 0 0 0.500000 1 0 1.000000 64
        KEYSNAP 0 0 "102034050607" 0 "Major"
        EVTFILTER 0 -1 -1 -1 -1 0 1 0 0 -1.00000000 -1.00000000
      >
    >
  >
  <TRACK '{E60BCF67-80FD-4554-840A-5B0B5C2E06A0}'
    NAME "HARM1"
    PEAKCOL 24624127
    BEAT -1
    AUTOMODE 0
    VOLPAN 1.00000000000000 0.00000000000000 -1.00000000000000 -1.00000000000000 1.00000000000000
    MUTESOLO 1 0 0
    IPHASE 0
    ISBUS 0 0
    BUSCOMP 0 0
    SHOWINMIX 1 0.666700 0.500000 1 0.500000 -1 -1 -1
    FREEMODE 0
    SEL 0
    REC 0 0 0 0 0 0 0
    TRACKHEIGHT 0 0
    INQ 0 0 0 0.5000000000 100 0 0 100
    NCHAN 2
    FX 1
    TRACKID {E60BCF67-80FD-4554-840A-5B0B5C2E06A0}
    PERF 0
    MIDIOUT -1
    <MIDINOTENAMES
      0 0 "Range Shift"
      0 1 "Lyric Shift"
      0 36 "C1"
      0 37 "C#"
      0 38 "D"
      0 39 "Eb"
      0 40 "E"
      0 41 "F"
      0 42 "F#"
      0 43 "G"
      0 44 "G#"
      0 45 "A"
      0 46 "Bb"
      0 47 "B"
      0 48 "C2"
      0 49 "C#"
      0 50 "D"
      0 51 "Eb"
      0 52 "E"
      0 53 "F"
      0 54 "F#"
      0 55 "G"
      0 56 "G#"
      0 57 "A"
      0 58 "Bb"
      0 59 "B"
      0 60 "C3"
      0 61 "C#"
      0 62 "D"
      0 63 "Eb"
      0 64 "E"
      0 65 "F"
      0 66 "F#"
      0 67 "G"
      0 68 "G#"
      0 69 "A"
      0 70 "Bb"
      0 71 "B"
      0 72 "C4"
      0 73 "C#"
      0 74 "D"
      0 75 "Eb"
      0 76 "E"
      0 77 "F"
      0 78 "F#"
      0 79 "G"
      0 80 "G#"
      0 81 "A"
      0 82 "Bb"
      0 83 "B"
      0 105 "Phrase Marker"
      0 116 "OVERDRIVE"
      0 115 "----"
      0 104 "----"
      0 97 "Not Displayed Percussion"
      0 96 "Displayed Percussion"
      0 95 "----"
      0 84 "C5"
    >
    MAINSEND 1 0
    <FXCHAIN
      WNDRECT 786 197 716 493
      SHOW 0
      LASTSEL 1
      DOCKED 0
      BYPASS 0 0
      <JS "IX/MIDI_Tool II" ""
        0.000000 85.000000 127.000000 0.000000 0.000000 0.000000 100.000000 0.000000 0.000000 127.000000 0.000000 0.000000 1.000000 0.000000 0.000000 - - - - - - - - - - - - - - - - - - - - - - - - - - - - - - - - - - - - - - - - - - - - - - - - - 
      >
      FLOATPOS 0 0 0 0
      FXID {2E79298C-F056-441C-A64B-722C2599E1AA}
      WAK 0
      BYPASS 0 0
      <VST "VSTi: ReaSynth (Cockos)" "reasynth.dll" 0 ""
        eXNlcu9e7f4AAAAAAgAAAAEAAAAAAAAAAgAAAAAAAAA4AAAAAAAAAA==
        AAAAAO++rd4N8K3eppvEOxe30ToAAAAAAAAAAAAAAACa9Q8/6WeIPQ==
        AAAAAAAAAD8AAIA/AAAAAAAAAD8AAAAAAAA=
      >
      FLOATPOS 0 0 0 0
      FXID {A391E59B-3475-47CA-9BDB-E03F3B8FF2C4}
      WAK 0
    >
    <ITEM
      POSITION 0.00000000000000
      SNAPOFFS 0.00000000000000
      LENGTH 151.67458439413514
      LOOP 0
      ALLTAKES 0
      SEL 0
      FADEIN 1 0.000000 0.000000 1 0
      FADEOUT 1 0.000000 0.000000 1 0
      MUTE 0
      IGUID {FE84F6DE-5A5E-43D1-BFBE-4632BD10F85F}
      IID 11
      NAME "HARM1 untitled MIDI item"
      VOLPAN 1.000000 0.000000 1.000000 -1.000000
      SOFFS 0.00000000000000 0.00000000000000
      PLAYRATE 1.00000000000000 1 0.00000000000000 -1
      CHANMODE 0
      GUID {188D8841-6EF7-4ADC-A9DC-A83C2882A63B}
      <SOURCE MIDI
        HASDATA 1 480 QN
        POOLEDEVTS {EB5E1019-72C9-46A9-BA24-043300C2BD39}
        <X 0 0
          /wNIQVJNMQ==
        >
        E 180481 b0 7b 00
        GUID {D78D8959-2AD8-48C0-8F6C-4A6670952331}
        IGNTEMPO 0 120.00000000 4 4
        SRCCOLOR 1167
        VELLANE 132 128 60
        COLORMAP "C:\Users\me\AppData\Roaming\REAPER\Data\color_maps\rockband_vox-other.png"
        TEXTSTRINGFILE "C:\Program Files\REAPER\Data\Text_Strings\Text Events List.txt"
        CFGEDITVIEW -605.860027 82.395269 0 12 0 0 0
        CFGEDIT 1 1 0 1 1 1 1 1 1 1 1 0.06250000 -8 -8 1374 736 1 2 1 2 0.00000000 0 0 0 0 0.500000 1 0 1.000000 64
        KEYSNAP 0 0 "102034050607" 0 "Major"
        EVTFILTER 0 -1 -1 -1 -1 0 1 0 0 -1.00000000 -1.00000000
      >
    >
  >
  <TRACK '{168C5484-E0A9-4431-931E-4B83A9D02D01}'
    NAME "01 ICH KOMME-vocals-D minor-147bpm-440hz"
    PEAKCOL 16576
    BEAT -1
    AUTOMODE 0
    VOLPAN 1.00000000000000 0.00000000000000 -1.00000000000000 -1.00000000000000 1.00000000000000
    MUTESOLO 1 0 0
    IPHASE 0
    ISBUS 0 0
    BUSCOMP 0 0
    SHOWINMIX 1 0.666700 0.500000 1 0.500000 -1 -1 -1
    FREEMODE 0
    SEL 1
    REC 0 0 0 0 0 0 0
    VU 2
    TRACKHEIGHT 137 0
    INQ 0 0 0 0.5000000000 100 0 0 100
    NCHAN 2
    FX 1
    TRACKID {168C5484-E0A9-4431-931E-4B83A9D02D01}
    PERF 0
    MIDIOUT -1
    MAINSEND 1 0
    <ITEM
      POSITION 2.67288720978649
      SNAPOFFS 0.00000000000000
      LENGTH 180.35043083900226
      LOOP 0
      ALLTAKES 0
      SEL 0
      FADEIN 1 0.000000 0.000000 1 0
      FADEOUT 1 0.000000 0.000000 1 0
      MUTE 0
      IGUID {C2B6A3C5-F4D7-496D-8CE8-0D0794C61E08}
      IID 32
      NAME "01 ICH KOMME-vocals-D minor-147bpm-440hz.mp3"
      VOLPAN 1.000000 0.000000 1.000000 -1.000000
      SOFFS 0.00000000000000
      PLAYRATE 1.00000000000000 1 0.00000000000000 -1
      CHANMODE 0
      GUID {A442BBE2-75D7-4D34-A871-26C0C96D5F7C}
      <SOURCE MP3
        FILE "01 ICH KOMME-vocals-D minor-147bpm-440hz.mp3" 1
      >
    >
  >
  <TRACK '{4A30D2A4-111B-40E3-8633-0926E85E641C}'
    NAME "DRYVOX1"
    PEAKCOL 16576
    BEAT -1
    AUTOMODE 0
    VOLPAN 1.00000000000000 0.00000000000000 -1.00000000000000 -1.00000000000000 1.00000000000000
    MUTESOLO 1 0 0
    IPHASE 0
    ISBUS 0 0
    BUSCOMP 0 0
    SHOWINMIX 1 0.666700 0.500000 1 0.500000 -1 -1 -1
    FREEMODE 0
    SEL 0
    REC 0 0 0 0 0 0 0
    TRACKHEIGHT 0 0
    INQ 0 0 0 0.5000000000 100 0 0 100
    NCHAN 2
    FX 1
    TRACKID {4A30D2A4-111B-40E3-8633-0926E85E641C}
    PERF 0
    MIDIOUT -1
    MAINSEND 1 0
    <FXCHAIN
      SHOW 0
      LASTSEL 0
      DOCKED 0
      BYPASS 0 0
      <VST "VST: ReaGate (Cockos)" "reagate.dll" 0 ""
        dGdlcu9e7f4EAAAAAQAAAAAAAAACAAAAAAAAAAQAAAAAAAAACAAAAA==
        AAAAAAIAAAABAAAAAAAAAAIAAAAAAAAAVAAAAAAAAAAAABAA776t3g==
        DfCt3pzRBzOmm8Q7CtejPAAAAAAAAAAAAACAPwAAAAAAAAAAAAAAAA==
        nNEHMx5Ucz+c0QczAACAPwAAAAAAAAAAAAAAACwWCz8AAAAAAAAAAA==
        AAAQAAAA
      >
      FLOATPOS 859 184 511 385
      FXID {BF545B5B-7DD0-4B4C-AC52-F095A552DA08}
      WAK 0
    >
    <ITEM
      POSITION 2.67288720978649
      SNAPOFFS 0.00000000000000
      LENGTH 180.35043083900226
      LOOP 0
      ALLTAKES 0
      SEL 0
      FADEIN 1 0.000000 0.000000 1 0
      FADEOUT 1 0.000000 0.000000 1 0
      MUTE 0
      IGUID {614F284A-51CD-422D-904D-BBC193149DDD}
      IID 32
      NAME "01 ICH KOMME-vocals-D minor-147bpm-440hz.mp3"
      VOLPAN 1.000000 0.000000 1.000000 -1.000000
      SOFFS 0.00000000000000
      PLAYRATE 1.00000000000000 1 0.00000000000000 -1
      CHANMODE 0
      GUID {D7BF4E88-FEE6-481E-B362-6FCBEDA9E2AB}
      <SOURCE MP3
        FILE "01 ICH KOMME-vocals-D minor-147bpm-440hz.mp3" 1
      >
    >
  >
  <TRACK '{983C7D04-DAF6-462A-B5E6-64213F29FBA0}'
    NAME "HARM2"
    PEAKCOL 24624127
    BEAT -1
    AUTOMODE 0
    VOLPAN 1.00497380427334 0.00000000000000 -1.00000000000000 -1.00000000000000 1.00000000000000
    MUTESOLO 1 0 0
    IPHASE 0
    ISBUS 0 0
    BUSCOMP 0 0
    SHOWINMIX 1 0.666700 0.500000 1 0.500000 -1 -1 -1
    FREEMODE 0
    SEL 0
    REC 0 0 0 0 0 0 0
    TRACKHEIGHT 0 0
    INQ 0 0 0 0.5000000000 100 0 0 100
    NCHAN 2
    FX 1
    TRACKID {983C7D04-DAF6-462A-B5E6-64213F29FBA0}
    PERF 0
    MIDIOUT -1
    <MIDINOTENAMES
      0 0 "Range Shift"
      0 1 "Lyric Shift"
      0 36 "C1"
      0 37 "C#"
      0 38 "D"
      0 39 "Eb"
      0 40 "E"
      0 41 "F"
      0 42 "F#"
      0 43 "G"
      0 44 "G#"
      0 45 "A"
      0 46 "Bb"
      0 47 "B"
      0 48 "C2"
      0 49 "C#"
      0 50 "D"
      0 51 "Eb"
      0 52 "E"
      0 53 "F"
      0 54 "F#"
      0 55 "G"
      0 56 "G#"
      0 57 "A"
      0 58 "Bb"
      0 59 "B"
      0 60 "C3"
      0 61 "C#"
      0 62 "D"
      0 63 "Eb"
      0 64 "E"
      0 65 "F"
      0 66 "F#"
      0 67 "G"
      0 68 "G#"
      0 69 "A"
      0 70 "Bb"
      0 71 "B"
      0 72 "C4"
      0 73 "C#"
      0 74 "D"
      0 75 "Eb"
      0 76 "E"
      0 77 "F"
      0 78 "F#"
      0 79 "G"
      0 80 "G#"
      0 81 "A"
      0 82 "Bb"
      0 83 "B"
      0 105 "Phrase Marker"
      0 35 "----"
      0 84 "C5"
      0 116 "OVERDRIVE"
      0 115 "----"
      0 104 "----"
      0 97 "Not Displayed Percussion"
      0 96 "Displayed Percussion"
      0 95 "----"
    >
    MAINSEND 1 0
    <FXCHAIN
      WNDRECT 0 42 716 493
      SHOW 0
      LASTSEL 1
      DOCKED 0
      BYPASS 0 0
      <JS "IX/MIDI_Tool II" ""
        0.000000 85.000000 127.000000 0.000000 0.000000 0.000000 100.000000 0.000000 0.000000 127.000000 0.000000 0.000000 1.000000 0.000000 0.000000 - - - - - - - - - - - - - - - - - - - - - - - - - - - - - - - - - - - - - - - - - - - - - - - - - 
      >
      FLOATPOS 0 0 0 0
      FXID {0D2127EF-90E6-4278-AB57-59BADA75D3A0}
      WAK 0
      BYPASS 0 0
      <VST "VSTi: ReaSynth (Cockos)" "reasynth.dll" 0 ""
        eXNlcu9e7f4AAAAAAgAAAAEAAAAAAAAAAgAAAAAAAAA4AAAAAAAAAA==
        AAAAAO++rd4N8K3eppvEOxe30ToAAAAAAAAAAAAAAACa9Q8/6WeIPQ==
        AAAAAAAAAD8AAIA/AAAAAAAAAD8AAAAAAAA=
      >
      FLOATPOS 0 0 0 0
      FXID {9CF76FE8-51DE-4F46-8774-EF282D9874DF}
      WAK 0
    >
    <ITEM
      POSITION 0.00000000000000
      SNAPOFFS 0.00000000000000
      LENGTH 151.67458439413514
      LOOP 0
      ALLTAKES 0
      SEL 0
      FADEIN 1 0.000000 0.000000 1 0
      FADEOUT 1 0.000000 0.000000 1 0
      MUTE 0
      IGUID {85B4D2FA-0EE6-4979-8286-EAC89A15680D}
      IID 12
      NAME "HARM2 untitled MIDI item"
      VOLPAN 1.000000 0.000000 1.000000 -1.000000
      SOFFS 0.00000000000000 0.00000000000000
      PLAYRATE 1.00000000000000 1 0.00000000000000 -1
      CHANMODE 0
      GUID {67C8C31A-733D-46F5-9A6D-0FDF2143554E}
      <SOURCE MIDI
        HASDATA 1 480 QN
        POOLEDEVTS {65F0864E-CF06-43C3-8247-ED544D547EF0}
        <X 0 0
          /wNIQVJNMg==
        >
        E 180481 b0 7b 00
        GUID {E53B89F8-ECC8-4A25-86E2-BC4D240C9444}
        IGNTEMPO 0 120.00000000 4 4
        SRCCOLOR 1168
        VELLANE 132 128 60
        COLORMAP "C:\Users\me\AppData\Roaming\REAPER\Data\color_maps\rockband_vox-other.png"
        TEXTSTRINGFILE "C:\Program Files\REAPER\Data\Text_Strings\Text Events List.txt"
        CFGEDITVIEW -605.860027 82.395269 0 12 0 0 0
        CFGEDIT 1 1 0 1 1 1 1 1 1 1 1 0.06250000 -8 -8 1374 736 1 2 1 2 0.00000000 0 0 0 0 0.500000 1 0 1.000000 64
        KEYSNAP 0 0 "102034050607" 0 "Major"
        EVTFILTER 0 -1 -1 -1 -1 0 1 0 0 -1.00000000 -1.00000000
      >
    >
  >
  <TRACK '{58A7B9C6-1373-47A1-A41A-295306551BF7}'
    NAME "DRYVOX2"
    PEAKCOL 16576
    BEAT -1
    AUTOMODE 0
    VOLPAN 1.00000000000000 0.00000000000000 -1.00000000000000 -1.00000000000000 1.00000000000000
    MUTESOLO 1 0 0
    IPHASE 0
    ISBUS 0 0
    BUSCOMP 0 0
    SHOWINMIX 1 0.666700 0.500000 1 0.500000 -1 -1 -1
    FREEMODE 0
    SEL 0
    REC 0 0 0 0 0 0 0
    TRACKHEIGHT 0 0
    INQ 0 0 0 0.5000000000 100 0 0 100
    NCHAN 2
    FX 1
    TRACKID {58A7B9C6-1373-47A1-A41A-295306551BF7}
    PERF 0
    MIDIOUT -1
    MAINSEND 1 0
    <FXCHAIN
      SHOW 0
      LASTSEL 0
      DOCKED 0
      BYPASS 0 0
      <VST "VST: ReaGate (Cockos)" "reagate.dll" 0 ""
        dGdlcu9e7f4EAAAAAQAAAAAAAAACAAAAAAAAAAQAAAAAAAAACAAAAA==
        AAAAAAIAAAABAAAAAAAAAAIAAAAAAAAAVAAAAAAAAAAAABAA776t3g==
        DfCt3pzRBzOmm8Q7CtejPAAAAAAAAAAAAACAPwAAAAAAAAAAAAAAAA==
        nNEHMx5Ucz+c0QczAACAPwAAAAAAAAAAAAAAACwWCz8AAAAAAAAAAA==
        AAAQAAAA
      >
      FLOATPOS 859 184 511 385
      FXID {BF545B5B-7DD0-4B4C-AC52-F095A552DA08}
      WAK 0
    >
  >
  <TRACK '{4299BF31-E988-4C64-900A-97AC9ECE5EBC}'
    NAME "HARM3"
    PEAKCOL 24624127
    BEAT -1
    AUTOMODE 0
    VOLPAN 1.00000000000000 0.00000000000000 -1.00000000000000 -1.00000000000000 1.00000000000000
    MUTESOLO 1 0 0
    IPHASE 0
    ISBUS 0 0
    BUSCOMP 0 0
    SHOWINMIX 1 0.666700 0.500000 1 0.500000 -1 -1 -1
    FREEMODE 0
    SEL 0
    REC 0 0 0 0 0 0 0
    TRACKHEIGHT 0 0
    INQ 0 0 0 0.5000000000 100 0 0 100
    NCHAN 2
    FX 1
    TRACKID {4299BF31-E988-4C64-900A-97AC9ECE5EBC}
    PERF 0
    MIDIOUT -1
    <MIDINOTENAMES
      0 0 "Range Shift"
      0 1 "Lyric Shift"
      0 35 "----"
      0 36 "C1"
      0 37 "C#"
      0 38 "D"
      0 39 "Eb"
      0 40 "E"
      0 41 "F"
      0 42 "F#"
      0 43 "G"
      0 44 "G#"
      0 45 "A"
      0 46 "Bb"
      0 47 "B"
      0 48 "C2"
      0 49 "C#"
      0 50 "D"
      0 51 "Eb"
      0 52 "E"
      0 53 "F"
      0 54 "F#"
      0 55 "G"
      0 56 "G#"
      0 57 "A"
      0 58 "Bb"
      0 59 "B"
      0 60 "C3"
      0 61 "C#"
      0 62 "D"
      0 63 "Eb"
      0 64 "E"
      0 65 "F"
      0 66 "F#"
      0 67 "G"
      0 68 "G#"
      0 69 "A"
      0 70 "Bb"
      0 71 "B"
      0 72 "C4"
      0 73 "C#"
      0 74 "D"
      0 75 "Eb"
      0 76 "E"
      0 77 "F"
      0 78 "F#"
      0 79 "G"
      0 80 "G#"
      0 81 "A"
      0 82 "Bb"
      0 83 "B"
      0 84 "C5"
      0 116 "OVERDRIVE"
      0 115 "----"
      0 105 "Phrase Marker"
      0 104 "----"
      0 97 "Not Displayed Percussion"
      0 96 "Displayed Percussion"
      0 95 "----"
    >
    MAINSEND 1 0
    <FXCHAIN
      WNDRECT 0 42 716 493
      SHOW 0
      LASTSEL 1
      DOCKED 0
      BYPASS 0 0
      <JS "IX/MIDI_Tool II" ""
        0.000000 85.000000 127.000000 0.000000 0.000000 0.000000 100.000000 0.000000 0.000000 127.000000 0.000000 0.000000 1.000000 0.000000 0.000000 - - - - - - - - - - - - - - - - - - - - - - - - - - - - - - - - - - - - - - - - - - - - - - - - - 
      >
      FLOATPOS 0 0 0 0
      FXID {3D33E2FB-5DDE-4F81-B16F-BCB1EAD8D4FA}
      WAK 0
      BYPASS 0 0
      <VST "VSTi: ReaSynth (Cockos)" "reasynth.dll" 0 ""
        eXNlcu9e7f4AAAAAAgAAAAEAAAAAAAAAAgAAAAAAAAA4AAAAAAAAAA==
        AAAAAO++rd4N8K3eppvEOxe30ToAAAAAAAAAAAAAAACa9Q8/6WeIPQ==
        AAAAAAAAAD8AAIA/AAAAAAAAAD8AAAAAAAA=
      >
      FLOATPOS 0 0 0 0
      FXID {98E235B6-3365-4F58-AC74-F5BD513BFA85}
      WAK 0
    >
    <ITEM
      POSITION 0.00000000000000
      SNAPOFFS 0.00000000000000
      LENGTH 151.67458439413514
      LOOP 0
      ALLTAKES 0
      SEL 0
      FADEIN 1 0.000000 0.000000 1 0
      FADEOUT 1 0.000000 0.000000 1 0
      MUTE 0
      IGUID {14DAFADF-64E7-40FA-8E65-65BBB77CBDB7}
      IID 13
      NAME "HARM3 untitled MIDI item"
      VOLPAN 1.000000 0.000000 1.000000 -1.000000
      SOFFS 0.00000000000000 0.00000000000000
      PLAYRATE 1.00000000000000 1 0.00000000000000 -1
      CHANMODE 0
      GUID {BA30FF02-694D-4D9D-9D54-87AECA42C3BA}
      <SOURCE MIDI
        HASDATA 1 480 QN
        POOLEDEVTS {6923B3E8-F2BE-4F5E-92BD-F4CA8720E547}
        <X 0 0
          /wNIQVJNMw==
        >
        E 180481 b0 7b 00
        GUID {F1082209-E2A8-4526-8AA6-2FE8F2DEB335}
        IGNTEMPO 0 120.00000000 4 4
        SRCCOLOR 1169
        VELLANE 132 128 60
        COLORMAP "C:\Users\me\AppData\Roaming\REAPER\Data\color_maps\rockband_vox-other.png"
        TEXTSTRINGFILE "C:\Program Files\REAPER\Data\Text_Strings\Text Events List.txt"
        CFGEDITVIEW -605.860027 82.395269 0 12 0 0 0
        CFGEDIT 1 1 0 1 1 1 1 1 1 1 1 0.06250000 -8 -8 1374 736 1 2 1 2 0.00000000 0 0 0 0 0.500000 1 0 1.000000 64
        KEYSNAP 0 0 "102034050607" 0 "Major"
        EVTFILTER 0 -1 -1 -1 -1 0 1 0 0 -1.00000000 -1.00000000
      >
    >
  >
  <TRACK '{AB3E8FDC-23A9-4945-BA6C-055C630028D0}'
    NAME "DRYVOX3"
    PEAKCOL 16576
    BEAT -1
    AUTOMODE 0
    VOLPAN 1.00000000000000 0.00000000000000 -1.00000000000000 -1.00000000000000 1.00000000000000
    MUTESOLO 1 0 0
    IPHASE 0
    ISBUS 0 0
    BUSCOMP 0 0
    SHOWINMIX 1 0.666700 0.500000 1 0.500000 -1 -1 -1
    FREEMODE 0
    SEL 0
    REC 0 0 0 0 0 0 0
    TRACKHEIGHT 0 0
    INQ 0 0 0 0.5000000000 100 0 0 100
    NCHAN 2
    FX 1
    TRACKID {AB3E8FDC-23A9-4945-BA6C-055C630028D0}
    PERF 0
    MIDIOUT -1
    MAINSEND 1 0
    <FXCHAIN
      SHOW 0
      LASTSEL 0
      DOCKED 0
      BYPASS 0 0
      <VST "VST: ReaGate (Cockos)" "reagate.dll" 0 ""
        dGdlcu9e7f4EAAAAAQAAAAAAAAACAAAAAAAAAAQAAAAAAAAACAAAAA==
        AAAAAAIAAAABAAAAAAAAAAIAAAAAAAAAVAAAAAAAAAAAABAA776t3g==
        DfCt3pzRBzOmm8Q7CtejPAAAAAAAAAAAAACAPwAAAAAAAAAAAAAAAA==
        nNEHMx5Ucz+c0QczAACAPwAAAAAAAAAAAAAAACwWCz8AAAAAAAAAAA==
        AAAQAAAA
      >
      FLOATPOS 859 184 511 385
      FXID {BF545B5B-7DD0-4B4C-AC52-F095A552DA08}
      WAK 0
    >
  >
  <TRACK '{14F64FB7-FE44-4E53-9F58-44F4178BCEF9}'
    NAME "PART KEYS"
    PEAKCOL 16842496
    BEAT -1
    AUTOMODE 0
    VOLPAN 1.00000000000000 0.00000000000000 -1.00000000000000 -1.00000000000000 1.00000000000000
    MUTESOLO 1 0 0
    IPHASE 0
    ISBUS 1 1
    BUSCOMP 0 0
    SHOWINMIX 1 0.666700 0.500000 1 0.500000 -1 -1 -1
    FREEMODE 0
    SEL 0
    REC 0 0 0 0 0 0 0
    TRACKHEIGHT 0 0
    INQ 0 0 0 0.5000000000 100 0 0 100
    NCHAN 2
    FX 1
    TRACKID {14F64FB7-FE44-4E53-9F58-44F4178BCEF9}
    PERF 0
    MIDIOUT -1
    <MIDINOTENAMES
      0 124 "BRE"
      0 123 "BRE"
      0 122 "BRE"
      0 121 "BRE"
      0 120 "BRE (use all 5)"
      0 116 "OVERDRIVE"
      0 119 "----"
      0 115 "----"
      0 103 "Solo Marker"
      0 95 "----"
      0 96 "EXPERT Green"
      0 97 "EXPERT Red"
      0 98 "EXPERT Yellow"
      0 99 "EXPERT Blue"
      0 100 "EXPERT Orange"
      0 102 "Force HoPo off"
      0 83 "----"
      0 84 "HARD Green"
      0 85 "HARD Red"
      0 86 "HARD Yellow"
      0 87 "HARD Blue"
      0 88 "HARD Orange"
      0 72 "MEDIUM Green"
      0 73 "MEDIUM Red"
      0 74 "MEDIUM Yellow"
      0 75 "MEDIUM Blue"
      0 76 "MEDIUM Orange"
      0 71 "----"
      0 64 "EASY Orange"
      0 63 "EASY Blue"
      0 62 "EASY Yellow"
      0 61 "EASY Red"
      0 60 "EASY Green"
      0 127 "Trill Marker"
      0 126 "----"
      0 101 "Force HoPo on"
    >
    MAINSEND 1 0
    <FXCHAIN
      WNDRECT 0 40 878 585
      SHOW 0
      LASTSEL 0
      DOCKED 0
      BYPASS 0 0
      <VST "VSTi: RBN Preview (RBN)" "rbprev_vst64_beta.dll" 0 ""
        dnBicu5e7f4AAAAAAgAAAAEAAAAAAAAAAgAAAAAAAAAEAAAAAQAAAA==
        AAAAAAMAqgAAAAAAAAA=
      >
      FLOATPOS 0 0 0 0
      FXID {EE0C80EE-5E5F-4EA2-B367-78AAAB3793F5}
      WAK 0
    >
    <ITEM
      POSITION 0.00000000000000
      SNAPOFFS 0.00000000000000
      LENGTH 151.67458439413491
      LOOP 0
      ALLTAKES 0
      SEL 0
      FADEIN 1 0.000000 0.000000 1 0
      FADEOUT 1 0.000000 0.000000 1 0
      MUTE 0
      IGUID {52D9F6AC-16AD-4CE9-95E4-6AD6396BB4E2}
      IID 14
      NAME "PART KEYS"
      VOLPAN 1.000000 0.000000 1.000000 -1.000000
      SOFFS 0.00000000000000 0.00000000000000
      PLAYRATE 1.00000000000000 1 0.00000000000000 -65536
      CHANMODE 0
      GUID {78E1CCBD-C30B-4DD8-81CD-2AEB0D2D38C8}
      <SOURCE MIDI
        HASDATA 1 480 QN
        POOLEDEVTS {63127697-AB52-423C-B16F-43DC20126989}
        <X 0 0
          /wNQQVJUIEtFWVM=
        >
        <X 3840 0
          /wFbcGxheV0=
        >
        E 0 90 40 7f
        E 0 90 4c 7f
        E 0 90 58 7f
        E 60 80 40 00
        E 0 80 4c 00
        E 0 80 58 00
        E 30 90 3f 7f
        E 0 90 4b 7f
        E 0 90 57 7f
        E 60 80 3f 00
        E 0 80 4b 00
        E 0 80 57 00
        E 30 90 3e 7f
        E 0 90 4a 7f
        E 0 90 56 7f
        E 60 80 3e 00
        E 0 80 4a 00
        E 0 80 56 00
        E 30 90 3d 7f
        E 0 90 49 7f
        E 0 90 55 7f
        E 60 80 3d 00
        E 0 80 49 00
        E 0 80 55 00
        E 30 90 3c 7f
        E 0 90 48 7f
        E 0 90 54 7f
        E 60 80 3c 00
        E 0 80 48 00
        E 0 80 54 00
        E 176221 b0 7b 00
        GUID {F537F270-CEBA-461E-8612-DC28913708FC}
        IGNTEMPO 0 120.00000000 4 4
        SRCCOLOR 1170
        VELLANE 132 128 60
        COLORMAP "C:\Users\me\AppData\Roaming\REAPER\Data\color_maps\rockband_guitarbass.png"
        TEXTSTRINGFILE "C:\Program Files\REAPER\Data\Text_Strings\Text Events List.txt"
        CFGEDITVIEW -4299.275963 82.395269 19 12 0 0 0
        CFGEDIT 1 1 0 0 0 1 1 1 1 1 1 0.12500000 -8 -8 1370 736 1 0 1 2 0.00000000 0 0 0 0 0.500000 1 0 1.000000 64
        KEYSNAP 0 0 "102034050607" 0 "Major"
        EVTFILTER 0 -1 -1 -1 -1 0 1 0 0 -1.00000000 -1.00000000
      >
    >
  >
  <TRACK '{D39F8BD7-8730-4182-94EC-51AF9F9ACC90}'
    NAME "PART REAL_KEYS_X"
    PEAKCOL 25231232
    BEAT -1
    AUTOMODE 0
    VOLPAN 1.00000000000000 0.00000000000000 -1.00000000000000 -1.00000000000000 1.00000000000000
    MUTESOLO 1 0 0
    IPHASE 0
    ISBUS 0 0
    BUSCOMP 1 0
    SHOWINMIX 1 0.666700 0.500000 1 0.500000 -1 -1 -1
    FREEMODE 0
    SEL 0
    REC 0 0 0 0 0 0 0
    TRACKHEIGHT 0 0
    INQ 0 0 0 0.5000000000 100 0 0 100
    NCHAN 2
    FX 1
    TRACKID {D39F8BD7-8730-4182-94EC-51AF9F9ACC90}
    PERF 0
    MIDIOUT -1
    <MIDINOTENAMES
      0 0 "C2-E3 Range"
      0 5 "F2-A3 Range"
      0 9 "A2-C4 Range"
      0 48 "C2 (Lowest Note)"
      0 72 "C4 (Highest Note)"
      0 115 "Solo Marker"
      0 126 "Glissando Marker"
      0 116 "Overdrive Marker"
      0 127 "Trill Marker"
      0 125 "----"
      0 114 "----"
      0 47 "----"
      0 49 "C#2"
      0 50 "D2"
      0 51 "Eb2"
      0 52 "E2"
      0 53 "F2"
      0 54 "F#2"
      0 55 "G2"
      0 56 "G#2"
      0 57 "A2"
      0 58 "Bb2"
      0 59 "B2"
      0 60 "C3"
      0 61 "C#3"
      0 62 "D3"
      0 63 "Eb3"
      0 64 "E3"
      0 65 "F3"
      0 66 "F#3"
      0 67 "G3"
      0 68 "G#3"
      0 69 "A3"
      0 70 "Bb3"
      0 71 "B3"
      0 2 "D2-F3 Range"
      0 4 "E2-G3 Range"
      0 7 "G2-B3 Range"
    >
    MAINSEND 1 0
    <FXCHAIN
      WNDRECT 0 40 655 493
      SHOW 0
      LASTSEL 1
      DOCKED 0
      BYPASS 0 0
      <JS "IX/MIDI_Tool II" ""
        0.000000 85.000000 127.000000 0.000000 0.000000 0.000000 100.000000 0.000000 0.000000 127.000000 0.000000 0.000000 1.000000 0.000000 0.000000 - - - - - - - - - - - - - - - - - - - - - - - - - - - - - - - - - - - - - - - - - - - - - - - - - 
      >
      FLOATPOS 0 0 0 0
      FXID {A891DAA7-5D8A-4720-AA8F-E43D2ABA2AE5}
      WAK 0
      BYPASS 0 0
      <VST "VSTi: ReaSynth (Cockos)" "reasynth.dll" 0 ""
        eXNlcu9e7f4AAAAAAgAAAAEAAAAAAAAAAgAAAAAAAAA4AAAAAAAAAA==
        AAAAAO++rd4N8K3eppvEOxe30TqcxKA+c2jRPgAAAADMm4A+6WeIPQ==
        AAAAAAAAAD8AAIA/6SaxPgAAAD8AAAAAAAA=
      >
      FLOATPOS 0 0 0 0
      FXID {A0CE5851-0C70-49E2-AD61-BC7B1C50A030}
      WAK 0
    >
    <ITEM
      POSITION 0.00000000000000
      SNAPOFFS 0.00000000000000
      LENGTH 151.67458439413491
      LOOP 0
      ALLTAKES 0
      SEL 0
      FADEIN 1 0.000000 0.000000 1 0
      FADEOUT 1 0.000000 0.000000 1 0
      MUTE 0
      IGUID {974100C2-06C4-4CB5-BD67-2F1BC71A1259}
      IID 15
      NAME "PART REAL_KEYS_X"
      VOLPAN 1.000000 0.000000 1.000000 -1.000000
      SOFFS 0.00000000000000 0.00000000000000
      PLAYRATE 1.00000000000000 1 0.00000000000000 -65536
      CHANMODE 0
      GUID {08703F3F-9741-46EB-9ED4-B09B2390F876}
      <SOURCE MIDI
        HASDATA 1 480 QN
        POOLEDEVTS {F1C75A2B-4BBA-4187-9EE5-82197178675B}
        <X 0 0
          /wNQQVJUIFJFQUxfS0VZU19Y
        >
        <X 3840 0
          /wFbcGxheV0=
        >
        E 176641 b0 7b 00
        GUID {0E0CBFB7-4AC8-4E67-A764-85891754BB41}
        IGNTEMPO 0 120.00000000 4 4
        SRCCOLOR 1171
        VELLANE 132 128 60
        COLORMAP "C:\Program Files\REAPER\Data\color_maps\rockband_guitarbass.png"
        TEXTSTRINGFILE "C:\Program Files\REAPER\Data\Text_Strings\Text Events List.txt"
        CFGEDITVIEW -4299.275963 82.395269 48 12 0 0 0
        CFGEDIT 1 1 0 1 1 1 1 1 1 1 1 0.12500000 -8 -8 1370 736 1 0 1 2 0.00000000 0 0 0 0 0.500000 1 0 1.000000 64
        KEYSNAP 0 0 "102034050607" 0 "Major"
        EVTFILTER 0 -1 -1 -1 -1 0 1 0 0 -1.00000000 -1.00000000
      >
    >
  >
  <TRACK '{117931B6-9EA5-432A-AEED-ACF4C8876354}'
    NAME "PART REAL _KEYS_H"
    PEAKCOL 25231232
    BEAT -1
    AUTOMODE 0
    VOLPAN 1.00000843600341 0.00000000000000 -1.00000000000000 -1.00000000000000 1.00000000000000
    MUTESOLO 1 0 0
    IPHASE 0
    ISBUS 0 0
    BUSCOMP 0 0
    SHOWINMIX 1 0.666700 0.500000 1 0.500000 -1 -1 -1
    FREEMODE 0
    SEL 0
    REC 0 0 0 0 0 0 0
    TRACKHEIGHT 0 0
    INQ 0 0 0 0.5000000000 100 0 0 100
    NCHAN 2
    FX 1
    TRACKID {117931B6-9EA5-432A-AEED-ACF4C8876354}
    PERF 0
    MIDIOUT -1
    <MIDINOTENAMES
      0 0 "C2-E3 Range"
      0 5 "F2-A3 Range"
      0 9 "A2-C4 Range"
      0 48 "C2 (Lowest Note)"
      0 72 "C4 (Highest Note)"
      0 115 "Solo Marker"
      0 126 "Glissando Marker"
      0 127 "Trill Marker"
      0 125 "----"
      0 116 "Overdrive Marker"
      0 114 "----"
      0 71 "B3"
      0 70 "Bb3"
      0 69 "A3"
      0 68 "G#3"
      0 67 "G3"
      0 66 "F#3"
      0 65 "F3"
      0 64 "E3"
      0 63 "Eb3"
      0 62 "D3"
      0 61 "C#3"
      0 60 "C3"
      0 59 "B2"
      0 58 "Bb2"
      0 57 "A2"
      0 56 "G#2"
      0 55 "G2"
      0 54 "F#2"
      0 53 "F2"
      0 52 "E2"
      0 51 "Eb2"
      0 50 "D2"
      0 49 "C#2"
      0 47 "----"
      0 7 "G2-B3 Range"
      0 4 "E2-G3 Range"
      0 2 "D2-F3 Range"
    >
    MAINSEND 1 0
    <FXCHAIN
      SHOW 0
      LASTSEL 0
      DOCKED 0
      BYPASS 0 0
      <JS "IX/MIDI_Tool II" ""
        0.000000 85.000000 127.000000 0.000000 0.000000 0.000000 100.000000 0.000000 0.000000 127.000000 0.000000 0.000000 1.000000 0.000000 0.000000 - - - - - - - - - - - - - - - - - - - - - - - - - - - - - - - - - - - - - - - - - - - - - - - - - 
      >
      FLOATPOS 0 0 0 0
      FXID {5BF1E178-D070-4445-A488-4CE4E31F6508}
      WAK 0
      BYPASS 0 0
      <VST "VSTi: ReaSynth (Cockos)" "reasynth.dll" 0 ""
        eXNlcu9e7f4AAAAAAgAAAAEAAAAAAAAAAgAAAAAAAAA4AAAAAAAAAA==
        AAAAAO++rd4N8K3eppvEOxe30TqcxKA+c2jRPgAAAADMm4A+6WeIPQ==
        AAAAAAAAAD8AAIA/6SaxPgAAAD8AAAAAAAA=
      >
      FLOATPOS 0 0 0 0
      FXID {C48567E0-8372-4900-9933-4B040EA2A253}
      WAK 0
    >
    <ITEM
      POSITION 0.00000000000000
      SNAPOFFS 0.00000000000000
      LENGTH 151.67458439413491
      LOOP 0
      ALLTAKES 0
      SEL 0
      FADEIN 1 0.000000 0.000000 1 0
      FADEOUT 1 0.000000 0.000000 1 0
      MUTE 0
      IGUID {DA514BF3-AF34-46C0-BD23-58406C871A44}
      IID 16
      NAME "PART REAL _KEYS_H"
      VOLPAN 1.000000 0.000000 1.000000 -1.000000
      SOFFS 0.00000000000000 0.00000000000000
      PLAYRATE 1.00000000000000 1 0.00000000000000 -65536
      CHANMODE 0
      GUID {8E0AC36B-D538-4BB8-A507-FFF40527D1BA}
      <SOURCE MIDI
        HASDATA 1 480 QN
        POOLEDEVTS {BCC7DE5B-97A1-46C8-8CBA-99A0EE511768}
        <X 0 0
          /wNQQVJUIFJFQUxfS0VZU19I
        >
        E 0 90 09 60
        E 480 80 09 00
        E 3360 90 39 60
        E 360 80 39 00
        E 176281 b0 7b 00
        GUID {53F487B1-1F2F-4D54-9DAE-BC2E7B032E3B}
        IGNTEMPO 0 120.00000000 4 4
        SRCCOLOR 1172
        VELLANE 132 128 60
        COLORMAP "C:\Program Files\REAPER\Data\color_maps\rockband_guitarbass.png"
        TEXTSTRINGFILE "C:\Program Files\REAPER\Data\Text_Strings\Text Events List.txt"
        CFGEDITVIEW -4299.275963 82.395269 5 14 0 0 0
        CFGEDIT 1 1 0 1 1 1 1 1 1 1 1 0.12500000 -8 -8 1374 736 1 2 1 2 0.00000000 0 0 0 0 0.500000 1 0 1.000000 64
        KEYSNAP 0 0 "102034050607" 0 "Major"
        EVTFILTER 0 -1 -1 -1 -1 0 1 0 0 -1.00000000 -1.00000000
      >
    >
  >
  <TRACK '{3B6F726E-1CAB-4A00-9B01-2E1CC375B13E}'
    NAME "PART REAL_KEYS_M"
    PEAKCOL 25231232
    BEAT -1
    AUTOMODE 0
    VOLPAN 1.00000000000000 0.00000000000000 -1.00000000000000 -1.00000000000000 1.00000000000000
    MUTESOLO 1 0 0
    IPHASE 0
    ISBUS 0 0
    BUSCOMP 0 0
    SHOWINMIX 1 0.666700 0.500000 1 0.500000 -1 -1 -1
    FREEMODE 0
    SEL 0
    REC 0 0 0 0 0 0 0
    TRACKHEIGHT 0 0
    INQ 0 0 0 0.5000000000 100 0 0 100
    NCHAN 2
    FX 1
    TRACKID {3B6F726E-1CAB-4A00-9B01-2E1CC375B13E}
    PERF 0
    MIDIOUT -1
    <MIDINOTENAMES
      0 0 "C2-E3 Range"
      0 5 "F2-A3 Range"
      0 9 "A2-C4 Range"
      0 48 "C2 (Lowest Note)"
      0 72 "C4 (Highest Note)"
      0 115 "Solo Marker"
      0 126 "Glissando Marker"
      0 127 "Trill Marker"
      0 125 "----"
      0 116 "Overdrive Marker"
      0 114 "----"
      0 71 "B3"
      0 70 "Bb3"
      0 69 "A3"
      0 68 "G#3"
      0 67 "G3"
      0 66 "F#3"
      0 65 "F3"
      0 64 "E3"
      0 63 "Eb3"
      0 62 "D3"
      0 61 "C#3"
      0 60 "C3"
      0 59 "B2"
      0 58 "Bb2"
      0 57 "A2"
      0 56 "G#2"
      0 55 "G2"
      0 54 "F#2"
      0 53 "F2"
      0 52 "E2"
      0 51 "Eb2"
      0 50 "D2"
      0 49 "C#2"
      0 47 "----"
      0 7 "G2-B3 Range"
      0 4 "E2-G3 Range"
      0 2 "D2-F3 Range"
    >
    MAINSEND 1 0
    <FXCHAIN
      SHOW 0
      LASTSEL 0
      DOCKED 0
      BYPASS 0 0
      <JS "IX/MIDI_Tool II" ""
        0.000000 85.000000 127.000000 0.000000 0.000000 0.000000 100.000000 0.000000 0.000000 127.000000 0.000000 0.000000 1.000000 0.000000 0.000000 - - - - - - - - - - - - - - - - - - - - - - - - - - - - - - - - - - - - - - - - - - - - - - - - - 
      >
      FLOATPOS 0 0 0 0
      FXID {096BA8B0-BFAB-4802-A0D3-DEA88A16B5B2}
      WAK 0
      BYPASS 0 0
      <VST "VSTi: ReaSynth (Cockos)" "reasynth.dll" 0 ""
        eXNlcu9e7f4AAAAAAgAAAAEAAAAAAAAAAgAAAAAAAAA4AAAAAAAAAA==
        AAAAAO++rd4N8K3eppvEOxe30TqcxKA+c2jRPgAAAADMm4A+6WeIPQ==
        AAAAAAAAAD8AAIA/6SaxPgAAAD8AAAAAAAA=
      >
      FLOATPOS 0 0 0 0
      FXID {A5115AF9-13EF-41D8-80FF-CB81A74D6CD4}
      WAK 0
    >
    <ITEM
      POSITION 0.00000000000000
      SNAPOFFS 0.00000000000000
      LENGTH 151.67458439413491
      LOOP 0
      ALLTAKES 0
      SEL 0
      FADEIN 1 0.000000 0.000000 1 0
      FADEOUT 1 0.000000 0.000000 1 0
      MUTE 0
      IGUID {6F5DF5D5-958D-4566-AA6E-AFD27D997F3F}
      IID 17
      NAME "PART REAL_KEYS_M"
      VOLPAN 1.000000 0.000000 1.000000 -1.000000
      SOFFS 0.00000000000000 0.00000000000000
      PLAYRATE 1.00000000000000 1 0.00000000000000 -65536
      CHANMODE 0
      GUID {14BC6779-E32B-455D-A61C-C2E68D8FE08C}
      <SOURCE MIDI
        HASDATA 1 480 QN
        POOLEDEVTS {F6301E21-83EF-4FED-9AD4-58A7ED6DDFAE}
        <X 0 0
          /wNQQVJUIFJFQUxfS0VZU19N
        >
        e 0 90 09 60
        e 480 80 09 00
        e 3360 90 39 60
        e 360 80 39 00
        E 176281 b0 7b 00
        GUID {806139BE-556B-4882-A297-06705078FD7A}
        IGNTEMPO 0 120.00000000 4 4
        SRCCOLOR 1173
        VELLANE 132 128 60
        COLORMAP "C:\Program Files\REAPER\Data\color_maps\rockband_guitarbass.png"
        TEXTSTRINGFILE "C:\Program Files\REAPER\Data\Text_Strings\Text Events List.txt"
        CFGEDITVIEW -4299.275963 82.395269 0 17 0 0 0
        CFGEDIT 1 1 0 1 1 1 1 1 1 1 1 0.12500000 -8 -8 1374 736 1 2 1 2 0.00000000 0 0 0 0 0.500000 1 0 1.000000 64
        KEYSNAP 0 0 "102034050607" 0 "Major"
        EVTFILTER 0 -1 -1 -1 -1 0 1 0 0 -1.00000000 -1.00000000
      >
    >
  >
  <TRACK '{49B8D0E0-0069-415C-8FC3-AC29B0E2C3CF}'
    NAME "PART REAL_KEYS_E"
    PEAKCOL 25231232
    BEAT -1
    AUTOMODE 0
    VOLPAN 1.00000000000000 0.00000000000000 -1.00000000000000 -1.00000000000000 1.00000000000000
    MUTESOLO 1 0 0
    IPHASE 0
    ISBUS 0 0
    BUSCOMP 0 0
    SHOWINMIX 1 0.666700 0.500000 1 0.500000 -1 -1 -1
    FREEMODE 0
    SEL 0
    REC 0 0 0 0 0 0 0
    TRACKHEIGHT 0 0
    INQ 0 0 0 0.5000000000 100 0 0 100
    NCHAN 2
    FX 1
    TRACKID {49B8D0E0-0069-415C-8FC3-AC29B0E2C3CF}
    PERF 0
    MIDIOUT -1
    <MIDINOTENAMES
      0 0 "C2-E3 Range"
      0 5 "F2-A3 Range"
      0 9 "A2-C4 Range"
      0 48 "C2 (Lowest Note)"
      0 72 "C4 (Highest Note)"
      0 115 "Solo Marker"
      0 126 "Glissando Marker"
      0 127 "Trill Marker"
      0 125 "----"
      0 116 "Overdrive Marker"
      0 114 "----"
      0 71 "B3"
      0 70 "Bb3"
      0 69 "A3"
      0 68 "G#3"
      0 67 "G3"
      0 66 "F#3"
      0 65 "F3"
      0 64 "E3"
      0 63 "Eb3"
      0 62 "D3"
      0 61 "C#3"
      0 60 "C3"
      0 59 "B2"
      0 58 "Bb2"
      0 57 "A2"
      0 56 "G#2"
      0 55 "G2"
      0 54 "F#2"
      0 53 "F2"
      0 52 "E2"
      0 51 "Eb2"
      0 50 "D2"
      0 49 "C#2"
      0 47 "----"
      0 7 "G2-B3 Range"
      0 4 "E2-G3 Range"
      0 2 "D2-F3 Range"
    >
    MAINSEND 1 0
    <FXCHAIN
      SHOW 0
      LASTSEL 0
      DOCKED 0
      BYPASS 0 0
      <JS "IX/MIDI_Tool II" ""
        0.000000 85.000000 127.000000 0.000000 0.000000 0.000000 100.000000 0.000000 0.000000 127.000000 0.000000 0.000000 1.000000 0.000000 0.000000 - - - - - - - - - - - - - - - - - - - - - - - - - - - - - - - - - - - - - - - - - - - - - - - - - 
      >
      FLOATPOS 0 0 0 0
      FXID {71EF04AA-9A38-4C4E-8E04-9FB37BDA6361}
      WAK 0
      BYPASS 0 0
      <VST "VSTi: ReaSynth (Cockos)" "reasynth.dll" 0 ""
        eXNlcu9e7f4AAAAAAgAAAAEAAAAAAAAAAgAAAAAAAAA4AAAAAAAAAA==
        AAAAAO++rd4N8K3eppvEOxe30TqcxKA+c2jRPgAAAADMm4A+6WeIPQ==
        AAAAAAAAAD8AAIA/6SaxPgAAAD8AAAAAAAA=
      >
      FLOATPOS 0 0 0 0
      FXID {6C388847-2A2F-4264-AA7A-4C4ACA9A9672}
      WAK 0
    >
    <ITEM
      POSITION 0.00000000000000
      SNAPOFFS 0.00000000000000
      LENGTH 151.67458439413491
      LOOP 0
      ALLTAKES 0
      SEL 0
      FADEIN 1 0.000000 0.000000 1 0
      FADEOUT 1 0.000000 0.000000 1 0
      MUTE 0
      IGUID {656317AD-B690-4307-9096-C4F4536C131B}
      IID 18
      NAME "PART REAL_KEYS_E"
      VOLPAN 1.000000 0.000000 1.000000 -1.000000
      SOFFS 0.00000000000000 0.00000000000000
      PLAYRATE 1.00000000000000 1 0.00000000000000 -65536
      CHANMODE 0
      GUID {43BDFFBF-75D6-4727-BD3F-08B25C56980C}
      <SOURCE MIDI
        HASDATA 1 480 QN
        POOLEDEVTS {5AC276A2-E489-482B-904D-6FAC1626A03D}
        <X 0 0
          /wNQQVJUIFJFQUxfS0VZU19F
        >
        E 0 90 09 60
        E 480 80 09 00
        E 180001 b0 7b 00
        GUID {F9363449-15E8-4EF0-8BC0-ABEB4CDC1D98}
        IGNTEMPO 0 120.00000000 4 4
        SRCCOLOR 1174
        VELLANE 132 128 60
        COLORMAP "C:\Program Files\REAPER\Data\color_maps\rockband_guitarbass.png"
        TEXTSTRINGFILE "C:\Program Files\REAPER\Data\Text_Strings\Text Events List.txt"
        CFGEDITVIEW 1257.930012 0.103438 51 12 0 0 0
        CFGEDIT 1 1 0 0 1 1 1 1 1 1 1 0.25000000 0 0 683 728 1 0 0 2 0.12500000 0 0 0 0 0.500000 0 0 1.000000 64
        KEYSNAP 0 0 "102034050607" 0 "Major"
        EVTFILTER 0 -1 -1 -1 -1 0 1 0 0 -1.00000000 -1.00000000
      >
    >
  >
  <TRACK '{80604035-2BD9-43BB-A255-4E5F9E756779}'
    NAME "PART KEYS_ANIM_RH"
    PEAKCOL 16842624
    BEAT -1
    AUTOMODE 0
    VOLPAN 1.00000000000000 0.00000000000000 -1.00000000000000 -1.00000000000000 1.00000000000000
    MUTESOLO 1 0 0
    IPHASE 0
    ISBUS 0 0
    BUSCOMP 0 0
    SHOWINMIX 1 0.666700 0.500000 1 0.500000 -1 -1 -1
    FREEMODE 0
    SEL 0
    REC 0 0 0 0 0 0 0
    TRACKHEIGHT 0 0
    INQ 0 0 0 0.5000000000 100 0 0 100
    NCHAN 2
    FX 1
    TRACKID {80604035-2BD9-43BB-A255-4E5F9E756779}
    PERF 0
    MIDIOUT -1
    <MIDINOTENAMES
      0 48 "C2 (Lowest Note)"
      0 72 "C4 (Highest Note)"
      0 127 "Trill Marker"
      0 126 "Glissando Marker"
      0 125 "----"
      0 116 "Overdrive Marker"
      0 115 "Solo Marker"
      0 114 "----"
      0 71 "B3"
      0 70 "Bb3"
      0 69 "A3"
      0 68 "G#3"
      0 67 "G3"
      0 66 "F#3"
      0 65 "F3"
      0 64 "E3"
      0 63 "Eb3"
      0 62 "D3"
      0 61 "C#3"
      0 60 "C3"
      0 59 "B2"
      0 58 "Bb2"
      0 57 "A2"
      0 56 "G#2"
      0 55 "G2"
      0 54 "F#2"
      0 53 "F2"
      0 52 "E2"
      0 51 "Eb2"
      0 50 "D2"
      0 49 "C#2"
      0 47 "----"
      0 9 "A2-C4 Range"
      0 5 "F2-A3 Range"
      0 0 "C2-E3 Range"
      0 7 "G2-B3 Range"
      0 4 "E2-G3 Range"
      0 2 "D2-F3 Range"
    >
    MAINSEND 1 0
    <FXCHAIN
      SHOW 0
      LASTSEL 0
      DOCKED 0
    >
    <ITEM
      POSITION 0.00000000000000
      SNAPOFFS 0.00000000000000
      LENGTH 151.67458439413491
      LOOP 0
      ALLTAKES 0
      SEL 0
      FADEIN 1 0.000000 0.000000 1 0
      FADEOUT 1 0.000000 0.000000 1 0
      MUTE 0
      IGUID {6A43A4E9-6390-4FBA-9F07-B2C821A1720C}
      IID 19
      NAME "PART KEYS_ANIM_RH"
      VOLPAN 1.000000 0.000000 1.000000 -1.000000
      SOFFS 0.00000000000000 0.00000000000000
      PLAYRATE 1.00000000000000 1 0.00000000000000 -65536
      CHANMODE 0
      GUID {FA5AE238-E1D7-41F5-A663-4C49E4376041}
      <SOURCE MIDI
        HASDATA 1 480 QN
        POOLEDEVTS {C35DFF2D-E4D8-48E1-8946-308538D7CD8C}
        <X 0 0
          /wNQQVJUIEtFWVNfQU5JTV9SSA==
        >
        E 180481 b0 7b 00
        GUID {268DE88D-9169-44F5-97A1-ABDA1E2CF031}
        IGNTEMPO 0 120.00000000 4 4
        SRCCOLOR 1175
        VELLANE 132 128 60
        COLORMAP "C:\Program Files\REAPER\Data\color_maps\rockband_guitarbass.png"
        TEXTSTRINGFILE "C:\Program Files\REAPER\Data\Text_Strings\Text Events List.txt"
        CFGEDITVIEW 2612.554938 0.179136 51 12 0 0 0
        CFGEDIT 1 1 0 0 1 1 1 1 1 1 1 0.25000000 0 0 683 728 1 0 0 2 0.00000000 0 0 0 0 0.500000 0 0 1.000000 64
        KEYSNAP 0 0 "102034050607" 0 "Major"
        EVTFILTER 0 -1 -1 -1 -1 0 1 0 0 -1.00000000 -1.00000000
      >
    >
  >
  <TRACK '{F014911F-41F0-491C-9A25-C3D2A462D8D7}'
    NAME "PART KEYS_ANIM_LH"
    PEAKCOL 16842624
    BEAT -1
    AUTOMODE 0
    VOLPAN 1.00000000000000 0.00000000000000 -1.00000000000000 -1.00000000000000 1.00000000000000
    MUTESOLO 1 0 0
    IPHASE 0
    ISBUS 2 -1
    BUSCOMP 0 0
    SHOWINMIX 1 0.666700 0.500000 1 0.500000 -1 -1 -1
    FREEMODE 0
    SEL 0
    REC 0 0 0 0 0 0 0
    TRACKHEIGHT 0 0
    INQ 0 0 0 0.5000000000 100 0 0 100
    NCHAN 2
    FX 1
    TRACKID {F014911F-41F0-491C-9A25-C3D2A462D8D7}
    PERF 0
    MIDIOUT -1
    <MIDINOTENAMES
      0 48 "C2 (Lowest Note)"
      0 72 "C4 (Highest Note)"
      0 127 "Trill Marker"
      0 126 "Glissando Marker"
      0 125 "----"
      0 116 "Overdrive Marker"
      0 115 "Solo Marker"
      0 114 "----"
      0 71 "B3"
      0 70 "Bb3"
      0 69 "A3"
      0 68 "G#3"
      0 67 "G3"
      0 66 "F#3"
      0 65 "F3"
      0 64 "E3"
      0 63 "Eb3"
      0 62 "D3"
      0 61 "C#3"
      0 60 "C3"
      0 59 "B2"
      0 58 "Bb2"
      0 57 "A2"
      0 56 "G#2"
      0 55 "G2"
      0 54 "F#2"
      0 53 "F2"
      0 52 "E2"
      0 51 "Eb2"
      0 50 "D2"
      0 49 "C#2"
      0 47 "----"
      0 9 "A2-C4 Range"
      0 5 "F2-A3 Range"
      0 0 "C2-E3 Range"
      0 7 "G2-B3 Range"
      0 4 "E2-G3 Range"
      0 2 "D2-F3 Range"
    >
    MAINSEND 1 0
    <FXCHAIN
      SHOW 0
      LASTSEL 0
      DOCKED 0
    >
    <ITEM
      POSITION 0.00000000000000
      SNAPOFFS 0.00000000000000
      LENGTH 151.67458439413491
      LOOP 0
      ALLTAKES 0
      SEL 0
      FADEIN 1 0.000000 0.000000 1 0
      FADEOUT 1 0.000000 0.000000 1 0
      MUTE 0
      IGUID {F0F97A68-91AD-4B41-8D32-822B6159FDBC}
      IID 20
      NAME "PART KEYS_ANIM_LH"
      VOLPAN 1.000000 0.000000 1.000000 -1.000000
      SOFFS 0.00000000000000 0.00000000000000
      PLAYRATE 1.00000000000000 1 0.00000000000000 -65536
      CHANMODE 0
      GUID {214023C3-6BA4-450F-A73F-59780553B94C}
      <SOURCE MIDI
        HASDATA 1 480 QN
        POOLEDEVTS {B57D7656-F096-4A0C-A012-32964689D4FB}
        <X 0 0
          /wNQQVJUIEtFWVNfQU5JTV9MSA==
        >
        E 180481 b0 7b 00
        GUID {9527D45A-14D5-4C89-A39E-3528B0F29941}
        IGNTEMPO 0 120.00000000 4 4
        SRCCOLOR 1176
        VELLANE 132 128 60
        COLORMAP "C:\Program Files\REAPER\Data\color_maps\rockband_guitarbass.png"
        TEXTSTRINGFILE "C:\Program Files\REAPER\Data\Text_Strings\Text Events List.txt"
        CFGEDITVIEW -4299.275963 82.395269 11 17 0 0 0
        CFGEDIT 1 1 0 1 1 1 1 1 1 1 1 0.12500000 -8 -8 1374 736 1 2 1 2 0.00000000 0 0 0 0 0.500000 1 0 1.000000 64
        KEYSNAP 0 0 "102034050607" 0 "Major"
        EVTFILTER 0 -1 -1 -1 -1 0 1 0 0 -1.00000000 -1.00000000
      >
    >
  >
  <TRACK '{4BCC1CF3-63A3-43C4-A155-D3593AD88A10}'
    NAME "EVENTS"
    PEAKCOL 29393024
    BEAT -1
    AUTOMODE 0
    VOLPAN 1.00000000000000 0.00000000000000 -1.00000000000000 -1.00000000000000 1.00000000000000
    MUTESOLO 0 0 0
    IPHASE 0
    ISBUS 0 0
    BUSCOMP 0 0
    SHOWINMIX 1 0.666700 0.500000 1 0.500000 -1 -1 -1
    FREEMODE 0
    SEL 0
    REC 0 0 0 0 0 0 0
    TRACKHEIGHT 0 0
    INQ 0 0 0 0.5000000000 100 0 0 100
    NCHAN 2
    FX 1
    TRACKID {4BCC1CF3-63A3-43C4-A155-D3593AD88A10}
    PERF 0
    MIDIOUT -1
    MAINSEND 1 0
    <FXCHAIN
      SHOW 0
      LASTSEL 0
      DOCKED 0
    >
    <ITEM
      POSITION 0.00000000000000
      SNAPOFFS 0.00000000000000
      LENGTH 183.05106848205489
      LOOP 0
      ALLTAKES 0
      SEL 0
      FADEIN 1 0.000000 0.000000 1 0
      FADEOUT 1 0.000000 0.000000 1 0
      MUTE 0
      IGUID {86A06D27-867C-4398-9CE6-8F0526B3B594}
      IID 21
      NAME "EVENTS"
      VOLPAN 1.000000 0.000000 1.000000 -1.000000
      SOFFS 0.00000000000000 0.00000000000000
      PLAYRATE 1.00000000000000 1 0.00000000000000 -65536
      CHANMODE 0
      GUID {584C8192-4FF3-4E29-8138-2E6BD568B61A}
      <SOURCE MIDI
        HASDATA 1 480 QN
        POOLEDEVTS {BD3698CE-A8DA-4E42-9D19-DA55E9B0E484}
        <X 0 0
          /wNFVkVOVFM=
        >
        <X 0 0
          /wFbY3Jvd2Rfbm9ybWFsXQ==
        >
        <X 0 0
          /wFbcHJjX2ludHJvXQ==
        >
        <X 3840 0
          /wFbbXVzaWNfc3RhcnRd
        >
        <X 10560 0
          /wFbcHJjX3ZlcnNlXzFhXQ==
        >
        <X 15600 0
          /wFbcHJjX3ZlcnNlXzFiXQ==
        >
        <X 19440 0
          /wFbcHJjX2Nob3J1c18xYV0=
        >
        <X 19068 0
          /wFbcHJjX2Nob3J1c18xYl0=
        >
        <X 15732 0
          /wFbcHJjX3ZlcnNlXzJhXQ==
        >
        <X 15120 0
          /wFbcHJjX3ZlcnNlXzJiXQ==
        >
        <X 14160 0
          /wFbcHJjX2Nob3J1c18yYV0=
        >
        <X 12720 0
          /wFbcHJjX2Nob3J1c18yYl0=
        >
        <X 22860 0
          /wFbcHJjX2JyaWRnZV8xXQ==
        >
        <X 27420 0
          /wFbcHJjX2Zhc3RfcGFydF9hXQ==
        >
        <X 11760 0
          /wFbcHJjX2JyaWRnZV8yXQ==
        >
        <X 3600 0
          /wFbcHJjX2Zhc3RfcGFydF9iXQ==
        >
        <X 29879 0
          /wFbbXVzaWNfZW5kXQ==
        >
        <X 245 0
          /wFbZW5kXQ==
        >
        E 236 b0 7b 00
        GUID {40AD7956-A22A-434A-8513-4D3792B9DF69}
        IGNTEMPO 0 120.00000000 4 4
        SRCCOLOR 1177
        VELLANE 132 100 100
        COLORMAP "M:\RGS Documents\ColorMaps\rockband_vox-other.png"
        TEXTSTRINGFILE "Text Events List.txt"
        CFGEDITVIEW -3864.655497 130.847368 82 48 0 0 0
        CFGEDIT 1 1 0 0 0 1 1 1 1 1 1 0.25000000 44 63 1223 847 1 2 1 2 0.00000000 0 0 0 0 0.500000 1 0 1.000000 64
        KEYSNAP 0 0 "102034050607" 0 "Major"
        EVTFILTER 0 -1 -1 -1 -1 0 1 0 0 -1.00000000 -1.00000000
      >
    >
  >
  <TRACK '{1529008F-97D2-43EB-8634-7C5A7418AD90}'
    NAME "VENUE"
    PEAKCOL 16842496
    BEAT -1
    AUTOMODE 0
    VOLPAN 1.00000000000000 0.00000000000000 -1.00000000000000 -1.00000000000000 1.00000000000000
    MUTESOLO 0 0 0
    IPHASE 0
    ISBUS 0 0
    BUSCOMP 0 0
    SHOWINMIX 1 0.666700 0.500000 1 0.500000 -1 -1 -1
    FREEMODE 0
    SEL 0
    REC 0 0 0 0 0 0 0
    TRACKHEIGHT 0 0
    INQ 0 0 0 0.5000000000 100 0 0 100
    NCHAN 2
    FX 1
    TRACKID {1529008F-97D2-43EB-8634-7C5A7418AD90}
    PERF 0
    MIDIOUT -1
    <MIDINOTENAMES
      0 87 "Guitarist Sing Along"
      0 86 "Drummer Sing Along"
      0 85 "Bassist Sing Along"
      0 40 "Spotlight on Vocals"
      0 39 "Spotlight on Guitar"
      0 38 "Spotlight on Drums"
      0 37 "Spotlight on Bass"
      0 41 "Spotlight on Keys"
    >
    MAINSEND 1 0
    <FXCHAIN
      SHOW 0
      LASTSEL 0
      DOCKED 0
    >
    <ITEM
      POSITION 0.00000000000000
      SNAPOFFS 0.00000000000000
      LENGTH 183.05106848205489
      LOOP 0
      ALLTAKES 0
      SEL 0
      FADEIN 1 0.000000 0.000000 1 0
      FADEOUT 1 0.000000 0.000000 1 0
      MUTE 0
      IGUID {71027329-E0AB-447D-A192-4839733334E7}
      IID 22
      NAME "VENUE"
      VOLPAN 1.000000 0.000000 1.000000 -1.000000
      SOFFS 0.00000000000000 0.00000000000000
      PLAYRATE 1.00000000000000 1 0.00000000000000 -65536
      CHANMODE 0
      GUID {44F0FFD1-5109-4A47-8BED-262AA04D3B23}
      <SOURCE MIDI
        HASDATA 1 480 QN
        POOLEDEVTS {28D60719-21B6-4BFA-9B33-49F8DE2C2FBC}
        <X 0 0
          /wNWRU5VRQ==
        >
        <X 0 0
          /wFbbGlnaHRpbmcgKCld
        >
        E 3360 90 55 60
        E 0 90 56 60
        E 0 90 57 60
        E 1440 80 55 00
        E 0 80 56 00
        E 0 80 57 00
        E 45000 90 55 60
        E 0 90 56 60
        E 0 90 57 60
        E 3480 80 55 00
        E 0 80 56 00
        E 0 80 57 00
        E 4320 90 55 60
        E 0 90 56 60
        E 0 90 57 60
        E 3360 80 55 00
        E 0 80 56 00
        E 0 80 57 00
        E 21360 90 55 60
        E 0 90 56 60
        E 0 90 57 60
        E 1320 80 55 00
        E 0 80 56 00
        E 0 80 57 00
        E 39240 90 55 60
        E 0 90 56 60
        E 0 90 57 60
        E 3480 80 55 00
        E 0 80 56 00
        E 0 80 57 00
        E 13800 90 55 60
        E 0 90 56 60
        E 0 90 57 60
        E 1440 80 55 00
        E 0 80 56 00
        E 0 80 57 00
        E 50160 90 55 60
        E 0 90 56 60
        E 0 90 57 60
        E 1800 80 55 00
        E 0 80 56 00
        E 0 80 57 00
        E 5880 90 55 60
        E 0 90 56 60
        E 0 90 57 60
        E 1800 80 55 00
        E 0 80 56 00
        E 0 80 57 00
        e 5880 90 55 60
        e 0 90 56 60
        e 0 90 57 60
        e 1800 80 55 00
        e 0 80 56 00
        e 0 80 57 00
        E 13320 b0 7b 00
        GUID {30097062-47C5-4B33-B665-170EF09D70D9}
        IGNTEMPO 0 120.00000000 4 4
        SRCCOLOR 1178
        VELLANE 132 230 230
        COLORMAP "M:\RGS Documents\ColorMaps\rockband_vox-other.png"
        TEXTSTRINGFILE "Text Events List.txt"
        CFGEDITVIEW -3864.655497 130.847368 36 12 0 0 0
        CFGEDIT 1 1 0 0 1 1 1 1 1 1 1 0.25000000 133 19 1300 803 1 0 1 2 0.00000000 0 0 0 0 0.500000 1 0 1.000000 64
        KEYSNAP 0 0 "102034050607" 0 "Major"
        EVTFILTER 0 -1 -1 -1 -1 0 1 0 0 -1.00000000 -1.00000000
      >
    >
  >
  <TRACK '{7BC63EFC-0ABC-4D0D-8204-E9893AE9FFFA}'
    NAME "BEAT"
    PEAKCOL 23514346
    BEAT -1
    AUTOMODE 0
    VOLPAN 1.00000000000000 0.00000000000000 -1.00000000000000 -1.00000000000000 1.00000000000000
    MUTESOLO 0 0 0
    IPHASE 0
    ISBUS 0 0
    BUSCOMP 1 0
    SHOWINMIX 1 0.666700 0.500000 1 0.500000 -1 -1 -1
    FREEMODE 0
    SEL 0
    REC 0 0 0 0 0 0 0
    TRACKHEIGHT 0 0
    INQ 0 0 0 0.5000000000 100 0 0 100
    NCHAN 2
    FX 1
    TRACKID {7BC63EFC-0ABC-4D0D-8204-E9893AE9FFFA}
    PERF 0
    MIDIOUT -1
    <MIDINOTENAMES
      0 12 "Downbeat"
      0 13 "Up Beats"
    >
    MAINSEND 1 0
    <FXCHAIN
      SHOW 0
      LASTSEL 0
      DOCKED 0
    >
    <ITEM
      POSITION 0.00000000000000
      SNAPOFFS 0.00000000000000
      LENGTH 183.05106848205489
      LOOP 0
      ALLTAKES 0
      SEL 0
      FADEIN 1 0.000000 0.000000 1 0
      FADEOUT 1 0.000000 0.000000 1 0
      MUTE 0
      IGUID {9960CDFD-BF2E-4E67-97CD-4F13D0A3F2ED}
      IID 23
      NAME "BEAT"
      VOLPAN 1.000000 0.000000 1.000000 -1.000000
      SOFFS 0.00000000000000 0.00000000000000
      PLAYRATE 1.00000000000000 1 0.00000000000000 -65536
      CHANMODE 0
      GUID {CEBFDCF1-B2BD-47E1-A085-C26E1C9E9ED2}
      <SOURCE MIDI
        HASDATA 1 480 QN
        POOLEDEVTS {D0A5A0E8-274E-4950-9F25-B5C3E0CBCE4F}
        <X 0 0
          /wNCRUFU
        >
        e 0 96 0c 64
        e 120 86 0c 00
        e 360 96 0d 64
        e 120 86 0d 00
        e 360 96 0d 64
        e 120 86 0d 00
        e 360 96 0d 64
        e 120 86 0d 00
        e 360 96 0c 64
        e 120 86 0c 00
        e 360 96 0d 64
        e 120 86 0d 00
        e 360 96 0d 64
        e 120 86 0d 00
        e 360 96 0d 64
        e 120 86 0d 00
        e 360 96 0c 64
        e 120 86 0c 00
        e 360 96 0d 64
        e 120 86 0d 00
        e 360 96 0d 64
        e 120 86 0d 00
        e 360 96 0d 64
        e 120 86 0d 00
        e 360 96 0c 64
        e 120 86 0c 00
        e 360 96 0d 64
        e 120 86 0d 00
        e 360 96 0d 64
        e 120 86 0d 00
        e 360 96 0d 64
        e 120 86 0d 00
        e 360 96 0c 64
        e 120 86 0c 00
        e 360 96 0d 64
        e 120 86 0d 00
        e 360 96 0d 64
        e 120 86 0d 00
        e 360 96 0d 64
        e 120 86 0d 00
        e 360 96 0c 64
        e 120 86 0c 00
        e 360 96 0d 64
        e 120 86 0d 00
        e 360 96 0d 64
        e 120 86 0d 00
        e 360 96 0d 64
        e 120 86 0d 00
        e 360 96 0c 64
        e 120 86 0c 00
        e 360 96 0d 64
        e 120 86 0d 00
        e 360 96 0d 64
        e 120 86 0d 00
        e 360 96 0d 64
        e 120 86 0d 00
        e 360 96 0c 64
        e 120 86 0c 00
        e 360 96 0d 64
        e 120 86 0d 00
        e 360 96 0d 64
        e 120 86 0d 00
        e 360 96 0d 64
        e 120 86 0d 00
        e 360 96 0c 64
        e 120 86 0c 00
        e 360 96 0d 64
        e 120 86 0d 00
        e 360 96 0d 64
        e 120 86 0d 00
        e 360 96 0d 64
        e 120 86 0d 00
        e 360 96 0c 64
        e 120 86 0c 00
        e 360 96 0d 64
        e 120 86 0d 00
        e 360 96 0d 64
        e 120 86 0d 00
        e 360 96 0d 64
        e 120 86 0d 00
        e 360 96 0c 64
        e 120 86 0c 00
        e 360 96 0d 64
        e 120 86 0d 00
        e 360 96 0d 64
        e 120 86 0d 00
        e 360 96 0d 64
        e 120 86 0d 00
        e 360 96 0c 64
        e 120 86 0c 00
        e 360 96 0d 64
        e 120 86 0d 00
        e 360 96 0d 64
        e 120 86 0d 00
        e 360 96 0d 64
        e 120 86 0d 00
        e 360 96 0c 64
        e 120 86 0c 00
        e 360 96 0d 64
        e 120 86 0d 00
        e 360 96 0d 64
        e 120 86 0d 00
        e 360 96 0d 64
        e 120 86 0d 00
        e 360 96 0c 64
        e 120 86 0c 00
        e 360 96 0d 64
        e 120 86 0d 00
        e 360 96 0d 64
        e 120 86 0d 00
        e 360 96 0d 64
        e 120 86 0d 00
        e 360 96 0c 64
        e 120 86 0c 00
        e 360 96 0d 64
        e 120 86 0d 00
        e 360 96 0d 64
        e 120 86 0d 00
        e 360 96 0d 64
        e 120 86 0d 00
        e 360 96 0c 64
        e 120 86 0c 00
        e 360 96 0d 64
        e 120 86 0d 00
        e 360 96 0d 64
        e 120 86 0d 00
        e 360 96 0d 64
        e 120 86 0d 00
        e 360 96 0c 64
        e 120 86 0c 00
        e 360 96 0d 64
        e 120 86 0d 00
        e 360 96 0d 64
        e 120 86 0d 00
        e 360 96 0d 64
        e 120 86 0d 00
        e 360 96 0c 64
        e 120 86 0c 00
        e 360 96 0d 64
        e 120 86 0d 00
        e 360 96 0d 64
        e 120 86 0d 00
        e 360 96 0d 64
        e 120 86 0d 00
        e 360 96 0c 64
        e 120 86 0c 00
        e 360 96 0d 64
        e 120 86 0d 00
        e 360 96 0d 64
        e 120 86 0d 00
        e 360 96 0d 64
        e 120 86 0d 00
        e 360 96 0c 64
        e 120 86 0c 00
        e 360 96 0d 64
        e 120 86 0d 00
        e 360 96 0d 64
        e 120 86 0d 00
        e 360 96 0d 64
        e 120 86 0d 00
        e 360 96 0c 64
        e 120 86 0c 00
        e 360 96 0d 64
        e 120 86 0d 00
        e 360 96 0d 64
        e 120 86 0d 00
        e 360 96 0d 64
        e 120 86 0d 00
        e 360 96 0c 64
        e 120 86 0c 00
        e 360 96 0d 64
        e 120 86 0d 00
        e 360 96 0d 64
        e 120 86 0d 00
        e 360 96 0d 64
        e 120 86 0d 00
        e 360 96 0c 64
        e 120 86 0c 00
        e 360 96 0d 64
        e 120 86 0d 00
        e 360 96 0d 64
        e 120 86 0d 00
        e 360 96 0d 64
        e 120 86 0d 00
        e 360 96 0c 64
        e 120 86 0c 00
        e 360 96 0d 64
        e 120 86 0d 00
        e 360 96 0d 64
        e 120 86 0d 00
        e 360 96 0d 64
        e 120 86 0d 00
        e 360 96 0c 64
        e 120 86 0c 00
        e 360 96 0d 64
        e 120 86 0d 00
        e 360 96 0d 64
        e 120 86 0d 00
        e 360 96 0d 64
        e 120 86 0d 00
        e 360 96 0c 64
        e 120 86 0c 00
        e 360 96 0d 64
        e 120 86 0d 00
        e 360 96 0d 64
        e 120 86 0d 00
        e 360 96 0d 64
        e 120 86 0d 00
        e 360 96 0c 64
        e 120 86 0c 00
        e 360 96 0d 64
        e 120 86 0d 00
        e 360 96 0d 64
        e 120 86 0d 00
        e 360 96 0d 64
        e 120 86 0d 00
        e 360 96 0c 64
        e 120 86 0c 00
        e 360 96 0d 64
        e 120 86 0d 00
        e 360 96 0d 64
        e 120 86 0d 00
        e 360 96 0d 64
        e 120 86 0d 00
        e 360 96 0c 64
        e 120 86 0c 00
        e 360 96 0d 64
        e 120 86 0d 00
        e 360 96 0d 64
        e 120 86 0d 00
        e 360 96 0d 64
        e 120 86 0d 00
        e 360 96 0c 64
        e 120 86 0c 00
        e 360 96 0d 64
        e 120 86 0d 00
        e 360 96 0d 64
        e 120 86 0d 00
        e 360 96 0d 64
        e 120 86 0d 00
        e 360 96 0c 64
        e 120 86 0c 00
        e 360 96 0d 64
        e 120 86 0d 00
        e 360 96 0d 64
        e 120 86 0d 00
        e 360 96 0d 64
        e 120 86 0d 00
        e 360 96 0c 64
        e 120 86 0c 00
        e 360 96 0d 64
        e 120 86 0d 00
        e 360 96 0d 64
        e 120 86 0d 00
        e 360 96 0d 64
        e 120 86 0d 00
        e 360 96 0c 64
        e 120 86 0c 00
        e 360 96 0d 64
        e 120 86 0d 00
        e 360 96 0d 64
        e 120 86 0d 00
        e 360 96 0d 64
        e 120 86 0d 00
        e 360 96 0c 64
        e 120 86 0c 00
        e 360 96 0d 64
        e 120 86 0d 00
        e 360 96 0d 64
        e 120 86 0d 00
        e 360 96 0d 64
        e 120 86 0d 00
        e 360 96 0c 64
        e 120 86 0c 00
        e 360 96 0d 64
        e 120 86 0d 00
        e 360 96 0d 64
        e 120 86 0d 00
        e 360 96 0d 64
        e 120 86 0d 00
        e 360 96 0c 64
        e 120 86 0c 00
        e 360 96 0d 64
        e 120 86 0d 00
        e 360 96 0d 64
        e 120 86 0d 00
        e 360 96 0d 64
        e 120 86 0d 00
        e 360 96 0c 64
        e 120 86 0c 00
        e 360 96 0d 64
        e 120 86 0d 00
        e 360 96 0d 64
        e 120 86 0d 00
        e 360 96 0d 64
        e 120 86 0d 00
        e 360 96 0c 64
        e 120 86 0c 00
        e 360 96 0d 64
        e 120 86 0d 00
        e 360 96 0d 64
        e 120 86 0d 00
        e 360 96 0d 64
        e 120 86 0d 00
        e 360 96 0c 64
        e 120 86 0c 00
        e 360 96 0d 64
        e 120 86 0d 00
        e 360 96 0d 64
        e 120 86 0d 00
        e 360 96 0d 64
        e 120 86 0d 00
        e 360 96 0c 64
        e 120 86 0c 00
        e 360 96 0d 64
        e 120 86 0d 00
        e 360 96 0d 64
        e 120 86 0d 00
        e 360 96 0d 64
        e 120 86 0d 00
        e 360 96 0c 64
        e 120 86 0c 00
        e 360 96 0d 64
        e 120 86 0d 00
        e 360 96 0d 64
        e 120 86 0d 00
        e 360 96 0d 64
        e 120 86 0d 00
        e 360 96 0c 64
        e 120 86 0c 00
        e 360 96 0d 64
        e 120 86 0d 00
        e 360 96 0d 64
        e 120 86 0d 00
        e 360 96 0d 64
        e 120 86 0d 00
        e 360 96 0c 64
        e 120 86 0c 00
        e 360 96 0d 64
        e 120 86 0d 00
        e 360 96 0d 64
        e 120 86 0d 00
        e 360 96 0d 64
        e 120 86 0d 00
        e 360 96 0c 64
        e 120 86 0c 00
        e 360 96 0d 64
        e 120 86 0d 00
        e 360 96 0d 64
        e 120 86 0d 00
        e 360 96 0d 64
        e 120 86 0d 00
        e 360 96 0c 64
        e 120 86 0c 00
        e 360 96 0d 64
        e 120 86 0d 00
        e 360 96 0d 64
        e 120 86 0d 00
        e 360 96 0d 64
        e 120 86 0d 00
        e 360 96 0c 64
        e 120 86 0c 00
        e 360 96 0d 64
        e 120 86 0d 00
        e 360 96 0d 64
        e 120 86 0d 00
        e 360 96 0d 64
        e 120 86 0d 00
        e 360 96 0c 64
        e 120 86 0c 00
        e 360 96 0d 64
        e 120 86 0d 00
        e 360 96 0d 64
        e 120 86 0d 00
        e 360 96 0d 64
        e 120 86 0d 00
        e 360 96 0c 64
        e 120 86 0c 00
        e 360 96 0d 64
        e 120 86 0d 00
        e 360 96 0d 64
        e 120 86 0d 00
        e 360 96 0d 64
        e 120 86 0d 00
        e 360 96 0c 64
        e 120 86 0c 00
        e 360 96 0d 64
        e 120 86 0d 00
        e 360 96 0d 64
        e 120 86 0d 00
        e 360 96 0d 64
        e 120 86 0d 00
        e 360 96 0c 64
        e 120 86 0c 00
        e 360 96 0d 64
        e 120 86 0d 00
        e 360 96 0d 64
        e 120 86 0d 00
        e 360 96 0d 64
        e 120 86 0d 00
        e 360 96 0c 64
        e 120 86 0c 00
        e 360 96 0d 64
        e 120 86 0d 00
        e 360 96 0d 64
        e 120 86 0d 00
        e 360 96 0d 64
        e 120 86 0d 00
        e 360 96 0c 64
        e 120 86 0c 00
        e 360 96 0d 64
        e 120 86 0d 00
        e 360 96 0d 64
        e 120 86 0d 00
        e 360 96 0d 64
        e 120 86 0d 00
        e 360 96 0c 64
        e 120 86 0c 00
        e 360 96 0d 64
        e 120 86 0d 00
        e 360 96 0d 64
        e 120 86 0d 00
        e 360 96 0d 64
        e 120 86 0d 00
        e 360 96 0c 64
        e 120 86 0c 00
        e 360 96 0d 64
        e 120 86 0d 00
        e 360 96 0d 64
        e 120 86 0d 00
        e 360 96 0d 64
        e 120 86 0d 00
        e 360 96 0c 64
        e 120 86 0c 00
        e 360 96 0d 64
        e 120 86 0d 00
        e 360 96 0d 64
        e 120 86 0d 00
        e 360 96 0d 64
        e 120 86 0d 00
        e 360 96 0c 64
        e 120 86 0c 00
        e 360 96 0d 64
        e 120 86 0d 00
        e 360 96 0d 64
        e 120 86 0d 00
        e 360 96 0d 64
        e 120 86 0d 00
        e 360 96 0c 64
        e 120 86 0c 00
        e 360 96 0d 64
        e 120 86 0d 00
        e 360 96 0d 64
        e 120 86 0d 00
        e 360 96 0d 64
        e 120 86 0d 00
        e 360 96 0c 64
        e 120 86 0c 00
        e 360 96 0d 64
        e 120 86 0d 00
        e 360 96 0d 64
        e 120 86 0d 00
        e 360 96 0d 64
        e 120 86 0d 00
        e 360 96 0c 64
        e 120 86 0c 00
        e 360 96 0d 64
        e 120 86 0d 00
        e 360 96 0d 64
        e 120 86 0d 00
        e 360 96 0d 64
        e 120 86 0d 00
        e 360 96 0c 64
        e 120 86 0c 00
        e 360 96 0d 64
        e 120 86 0d 00
        e 360 96 0d 64
        e 120 86 0d 00
        e 360 96 0d 64
        e 120 86 0d 00
        e 360 96 0c 64
        e 120 86 0c 00
        e 360 96 0d 64
        e 120 86 0d 00
        e 360 96 0d 64
        e 120 86 0d 00
        e 360 96 0d 64
        e 120 86 0d 00
        e 360 96 0c 64
        e 120 86 0c 00
        e 360 96 0d 64
        e 120 86 0d 00
        e 360 96 0d 64
        e 120 86 0d 00
        e 360 96 0d 64
        e 120 86 0d 00
        e 360 96 0c 64
        e 120 86 0c 00
        e 360 96 0d 64
        e 120 86 0d 00
        e 360 96 0d 64
        e 120 86 0d 00
        e 360 96 0d 64
        e 120 86 0d 00
        e 360 96 0c 64
        e 120 86 0c 00
        e 360 96 0d 64
        e 120 86 0d 00
        e 360 96 0d 64
        e 120 86 0d 00
        e 360 96 0d 64
        e 120 86 0d 00
        e 360 96 0c 64
        e 120 86 0c 00
        e 360 96 0d 64
        e 120 86 0d 00
        e 360 96 0d 64
        e 120 86 0d 00
        e 360 96 0d 64
        e 120 86 0d 00
        e 360 96 0c 64
        e 120 86 0c 00
        e 360 96 0d 64
        e 120 86 0d 00
        e 360 96 0d 64
        e 120 86 0d 00
        e 360 96 0d 64
        e 120 86 0d 00
        e 360 96 0c 64
        e 120 86 0c 00
        e 360 96 0d 64
        e 120 86 0d 00
        e 360 96 0d 64
        e 120 86 0d 00
        e 360 96 0d 64
        e 120 86 0d 00
        e 360 96 0c 64
        e 120 86 0c 00
        e 360 96 0d 64
        e 120 86 0d 00
        e 360 96 0d 64
        e 120 86 0d 00
        e 360 96 0d 64
        e 120 86 0d 00
        e 360 96 0c 64
        e 120 86 0c 00
        e 360 96 0d 64
        e 120 86 0d 00
        e 360 96 0d 64
        e 120 86 0d 00
        e 360 96 0d 64
        e 120 86 0d 00
        e 360 96 0c 64
        e 120 86 0c 00
        e 360 96 0d 64
        e 120 86 0d 00
        e 360 96 0d 64
        e 120 86 0d 00
        e 360 96 0d 64
        e 120 86 0d 00
        e 360 96 0c 64
        e 120 86 0c 00
        e 360 96 0d 64
        e 120 86 0d 00
        e 360 96 0d 64
        e 120 86 0d 00
        e 360 96 0d 64
        e 120 86 0d 00
        e 360 96 0c 64
        e 120 86 0c 00
        e 360 96 0d 64
        e 120 86 0d 00
        e 360 96 0d 64
        e 120 86 0d 00
        e 360 96 0d 64
        e 120 86 0d 00
        e 360 96 0c 64
        e 120 86 0c 00
        e 360 96 0d 64
        e 120 86 0d 00
        e 360 96 0d 64
        e 120 86 0d 00
        e 360 96 0d 64
        e 120 86 0d 00
        e 360 96 0c 64
        e 120 86 0c 00
        e 360 96 0d 64
        e 120 86 0d 00
        e 360 96 0d 64
        e 120 86 0d 00
        e 360 96 0d 64
        e 120 86 0d 00
        e 360 96 0c 64
        e 120 86 0c 00
        e 360 96 0d 64
        e 120 86 0d 00
        e 360 96 0d 64
        e 120 86 0d 00
        e 360 96 0d 64
        e 120 86 0d 00
        e 360 96 0c 64
        e 120 86 0c 00
        e 360 96 0d 64
        e 120 86 0d 00
        e 360 96 0d 64
        e 120 86 0d 00
        e 360 96 0d 64
        e 120 86 0d 00
        e 360 96 0c 64
        e 120 86 0c 00
        e 360 96 0d 64
        e 120 86 0d 00
        e 360 96 0d 64
        e 120 86 0d 00
        e 360 96 0d 64
        e 120 86 0d 00
        e 360 96 0c 64
        e 120 86 0c 00
        e 360 96 0d 64
        e 120 86 0d 00
        e 360 96 0d 64
        e 120 86 0d 00
        e 360 96 0d 64
        e 120 86 0d 00
        e 360 96 0c 64
        e 120 86 0c 00
        e 360 96 0d 64
        e 120 86 0d 00
        e 360 96 0d 64
        e 120 86 0d 00
        e 360 96 0d 64
        e 120 86 0d 00
        e 360 96 0c 64
        e 120 86 0c 00
        e 360 96 0d 64
        e 120 86 0d 00
        e 360 96 0d 64
        e 120 86 0d 00
        e 360 96 0d 64
        e 120 86 0d 00
        e 360 96 0c 64
        e 120 86 0c 00
        e 360 96 0d 64
        e 120 86 0d 00
        e 360 96 0d 64
        e 120 86 0d 00
        e 360 96 0d 64
        e 120 86 0d 00
        e 360 96 0c 64
        e 120 86 0c 00
        e 360 96 0d 64
        e 120 86 0d 00
        e 360 96 0d 64
        e 120 86 0d 00
        e 360 96 0d 64
        e 120 86 0d 00
        e 360 96 0c 64
        e 120 86 0c 00
        e 360 96 0d 64
        e 120 86 0d 00
        e 360 96 0d 64
        e 120 86 0d 00
        e 360 96 0d 64
        e 120 86 0d 00
        e 360 96 0c 64
        e 120 86 0c 00
        e 360 96 0d 64
        e 120 86 0d 00
        e 360 96 0d 64
        e 120 86 0d 00
        e 360 96 0d 64
        e 120 86 0d 00
        e 360 96 0c 64
        e 120 86 0c 00
        e 360 96 0d 64
        e 120 86 0d 00
        e 360 96 0d 64
        e 120 86 0d 00
        e 360 96 0d 64
        e 120 86 0d 00
        e 360 96 0c 64
        e 120 86 0c 00
        e 360 96 0d 64
        e 120 86 0d 00
        e 360 96 0d 64
        e 120 86 0d 00
        e 360 96 0d 64
        e 120 86 0d 00
        e 360 96 0c 64
        e 120 86 0c 00
        e 360 96 0d 64
        e 120 86 0d 00
        e 360 96 0d 64
        e 120 86 0d 00
        e 360 96 0d 64
        e 120 86 0d 00
        e 360 96 0c 64
        e 120 86 0c 00
        e 360 96 0d 64
        e 120 86 0d 00
        e 360 96 0d 64
        e 120 86 0d 00
        e 360 96 0d 64
        e 120 86 0d 00
        e 360 96 0c 64
        e 120 86 0c 00
        e 360 96 0d 64
        e 120 86 0d 00
        e 360 96 0d 64
        e 120 86 0d 00
        e 360 96 0d 64
        e 120 86 0d 00
        e 360 96 0c 64
        e 120 86 0c 00
        e 360 96 0d 64
        e 120 86 0d 00
        e 360 96 0d 64
        e 120 86 0d 00
        e 360 96 0d 64
        e 120 86 0d 00
        e 360 96 0c 64
        e 120 86 0c 00
        e 360 96 0d 64
        e 120 86 0d 00
        e 360 96 0d 64
        e 120 86 0d 00
        e 360 96 0d 64
        e 120 86 0d 00
        e 360 96 0c 64
        e 120 86 0c 00
        e 360 96 0d 64
        e 120 86 0d 00
        e 360 96 0d 64
        e 120 86 0d 00
        e 360 96 0d 64
        e 120 86 0d 00
        e 360 96 0c 64
        e 120 86 0c 00
        e 360 96 0d 64
        e 120 86 0d 00
        e 360 96 0d 64
        e 120 86 0d 00
        e 360 96 0d 64
        e 120 86 0d 00
        e 360 96 0c 64
        e 120 86 0c 00
        e 360 96 0d 64
        e 120 86 0d 00
        e 360 96 0d 64
        e 120 86 0d 00
        e 360 96 0d 64
        e 120 86 0d 00
        e 360 96 0c 64
        e 120 86 0c 00
        e 360 96 0d 64
        e 120 86 0d 00
        e 360 96 0d 64
        e 120 86 0d 00
        e 360 96 0d 64
        e 120 86 0d 00
        e 360 96 0c 64
        e 120 86 0c 00
        e 360 96 0d 64
        e 120 86 0d 00
        e 360 96 0d 64
        e 120 86 0d 00
        e 360 96 0d 64
        e 120 86 0d 00
        e 360 96 0c 64
        e 120 86 0c 00
        e 360 96 0d 64
        e 120 86 0d 00
        e 360 96 0d 64
        e 120 86 0d 00
        e 360 96 0d 64
        e 120 86 0d 00
        e 360 96 0c 64
        e 120 86 0c 00
        e 360 96 0d 64
        e 120 86 0d 00
        e 360 96 0d 64
        e 120 86 0d 00
        e 360 96 0d 64
        e 120 86 0d 00
        e 360 96 0c 64
        e 120 86 0c 00
        e 360 96 0d 64
        e 120 86 0d 00
        e 360 96 0d 64
        e 120 86 0d 00
        e 360 96 0d 64
        e 120 86 0d 00
        e 360 96 0c 64
        e 120 86 0c 00
        e 360 96 0d 64
        e 120 86 0d 00
        e 360 96 0d 64
        e 120 86 0d 00
        e 360 96 0d 64
        e 120 86 0d 00
        e 360 96 0c 64
        e 120 86 0c 00
        e 360 96 0d 64
        e 120 86 0d 00
        e 360 96 0d 64
        e 120 86 0d 00
        e 360 96 0d 64
        e 120 86 0d 00
        e 360 96 0c 64
        e 120 86 0c 00
        e 360 96 0d 64
        e 120 86 0d 00
        e 360 96 0d 64
        e 120 86 0d 00
        e 360 96 0d 64
        e 120 86 0d 00
        e 360 96 0c 64
        e 120 86 0c 00
        e 360 96 0d 64
        e 120 86 0d 00
        e 360 96 0d 64
        e 120 86 0d 00
        e 360 96 0d 64
        e 120 86 0d 00
        e 360 96 0c 64
        e 120 86 0c 00
        e 360 96 0d 64
        e 120 86 0d 00
        e 360 96 0d 64
        e 120 86 0d 00
        e 360 96 0d 64
        e 120 86 0d 00
        e 360 96 0c 64
        e 120 86 0c 00
        e 360 96 0d 64
        e 120 86 0d 00
        e 360 96 0d 64
        e 120 86 0d 00
        e 360 96 0d 64
        e 120 86 0d 00
        e 360 96 0c 64
        e 120 86 0c 00
        e 360 96 0d 64
        e 120 86 0d 00
        e 360 96 0d 64
        e 120 86 0d 00
        e 360 96 0d 64
        e 120 86 0d 00
        e 360 96 0c 64
        e 120 86 0c 00
        e 360 96 0d 64
        e 120 86 0d 00
        e 360 96 0d 64
        e 120 86 0d 00
        e 360 96 0d 64
        e 120 86 0d 00
        e 360 96 0c 64
        e 120 86 0c 00
        e 360 96 0d 64
        e 120 86 0d 00
        e 360 96 0d 64
        e 120 86 0d 00
        e 360 96 0d 64
        e 120 86 0d 00
        e 360 96 0c 64
        e 120 86 0c 00
        e 360 96 0d 64
        e 120 86 0d 00
        e 360 96 0d 64
        e 120 86 0d 00
        e 360 96 0d 64
        e 120 86 0d 00
        e 360 96 0c 64
        e 120 86 0c 00
        e 360 96 0d 64
        e 120 86 0d 00
        e 360 96 0d 64
        e 120 86 0d 00
        e 360 96 0d 64
        e 120 86 0d 00
        e 360 96 0c 64
        e 120 86 0c 00
        e 360 96 0d 64
        e 120 86 0d 00
        e 360 96 0d 64
        e 120 86 0d 00
        e 360 96 0d 64
        e 120 86 0d 00
        e 360 96 0c 64
        e 120 86 0c 00
        e 360 96 0d 64
        e 120 86 0d 00
        e 360 96 0d 64
        e 120 86 0d 00
        e 360 96 0d 64
        e 120 86 0d 00
        e 360 96 0c 64
        e 120 86 0c 00
        e 360 96 0d 64
        e 120 86 0d 00
        e 360 96 0d 64
        e 120 86 0d 00
        e 360 96 0d 64
        e 120 86 0d 00
        e 360 96 0c 64
        e 120 86 0c 00
        e 360 96 0d 64
        e 120 86 0d 00
        e 360 96 0d 64
        e 120 86 0d 00
        e 360 96 0d 64
        e 120 86 0d 00
        e 360 96 0c 64
        e 120 86 0c 00
        e 360 96 0d 64
        e 120 86 0d 00
        e 360 96 0d 64
        e 120 86 0d 00
        e 360 96 0d 64
        e 120 86 0d 00
        e 360 96 0c 64
        e 120 86 0c 00
        e 360 96 0d 64
        e 120 86 0d 00
        e 360 96 0d 64
        e 120 86 0d 00
        E 360 b0 7b 00
        GUID {8CB930E8-B6A0-4CAD-825A-9F47FB66C1D0}
        IGNTEMPO 0 120.00000000 4 4
        SRCCOLOR 1179
        VELLANE 132 100 100
        COLORMAP "M:\RGS Documents\ColorMaps\rockband_vox-other.png"
        TEXTSTRINGFILE "Text Events List.txt"
        CFGEDITVIEW 210048.264697 259.235613 0 48 0 0 0
        CFGEDIT 1 1 0 0 0 1 1 1 1 1 1 1.00000000 44 63 1223 847 1 2 1 2 0.00000000 0 0 0 0 0.500000 1 0 1.000000 64
        KEYSNAP 0 0 "102034050607" 0 "Major"
        EVTFILTER 0 -1 -1 -1 -1 0 1 0 0 -1.00000000 -1.00000000
      >
    >
  >
  <TRACK '{0E2FE3F2-76C0-4A51-94D0-F118951ACC28}'
    NAME "PART REAL_GUITAR"
    PEAKCOL 16576
    BEAT -1
    AUTOMODE 0
    VOLPAN 1.00000000000000 0.00000000000000 -1.00000000000000 -1.00000000000000 1.00000000000000
    MUTESOLO 1 0 0
    IPHASE 0
    ISBUS 0 0
    BUSCOMP 0 0
    SHOWINMIX 1 0.666700 0.500000 1 0.500000 -1 -1 -1
    FREEMODE 0
    SEL 0
    REC 0 0 0 0 0 0 0
    TRACKHEIGHT 0 0
    INQ 0 0 0 0.5000000000 100 0 0 100
    NCHAN 2
    FX 1
    TRACKID {0E2FE3F2-76C0-4A51-94D0-F118951ACC28}
    PERF 0
    MIDIOUT -1
    <MIDINOTENAMES
      0 101 "EXPERT E String (HIGH)"
      0 100 "EXPERT B String"
      0 99 "EXPERT G String"
      0 98 "EXPERT D String"
      0 97 "EXPERT A String"
      0 96 "EXPERT E String (LOW)"
      0 77 "HARD E String (HIGH)"
      0 72 "HARD E String (LOW)"
      0 53 "MEDIUM E String (HIGH)"
      0 48 "MEDIUM E String (LOW)"
      0 29 "EASY E String (HIGH)"
      0 24 "EASY E String (LOW)"
      0 76 "HARD B String"
      0 75 "HARD G String"
      0 74 "HARD D String"
      0 73 "HARD A String"
      0 52 "MEDIUM B String"
      0 51 "MEDIUM G String"
      0 50 "MEDIUM D String"
      0 49 "MEDIUM A String"
      0 28 "EASY B String"
      0 27 "EASY G String"
      0 26 "EASY D String"
      0 25 "EASY A String"
      0 116 "OVERDRIVE"
      0 115 "Solo Marker"
      0 125 "BRE"
      0 120 "BRE (use all 6)"
      0 124 "BRE"
      0 123 "BRE"
      0 122 "BRE"
      0 121 "BRE"
      0 127 "Trill"
      0 126 "Tremelo"
      0 108 "Left hand position"
      0 107 "Force Chord Numbering"
      0 104 "EXPERT Arpeggio Marker"
      0 103 "EXPERT Slide Marker"
      0 102 "EXPERT Force Ho/Po"
      0 80 "HARD Arpeggio Marker"
      0 79 "HARD Slide Marker"
      0 78 "Force Ho/Po"
      0 55 "MEDIUM Slide Marker"
      0 31 "EASY Slide Marker"
      0 17 "Hide Chord Names"
      0 15 "Eb"
      0 14 "D"
      0 13 "Db"
      0 12 "C"
      0 11 "B"
      0 10 "Bb"
      0 9 "A"
      0 8 "Ab"
      0 7 "G"
      0 6 "Gb"
      0 5 "F"
      0 4 "E"
      0 105 "EXPERT Strum Direction"
      0 81 "HARD Strum Direction"
      0 56 "MEDIUM Arpeggio Marker"
      0 32 "EASY Arpeggio Marker"
      0 21 "CHORD NAMES"
      0 18 "Flat/Sharp Swap"
      0 16 "Slash Chord"
    >
    MAINSEND 1 0
    <FXCHAIN
      SHOW 0
      LASTSEL 0
      DOCKED 0
    >
    <ITEM
      POSITION 0.00000000000000
      SNAPOFFS 0.00000000000000
      LENGTH 152.03750366148350
      LOOP 0
      ALLTAKES 0
      SEL 0
      FADEIN 1 0.000000 0.000000 1 0
      FADEOUT 1 0.000000 0.000000 1 0
      MUTE 0
      IGUID {20F1321F-9ED7-4853-AD09-40B222B05CF8}
      IID 24
      NAME "PART REAL_GUITAR"
      VOLPAN 1.000000 0.000000 1.000000 -1.000000
      SOFFS 0.00000000000000 0.00000000000000
      PLAYRATE 1.00000000000000 1 0.00000000000000 -1
      CHANMODE 0
      GUID {3CDDC74F-292B-448F-83EC-680F8CEF1C9B}
      <SOURCE MIDI
        HASDATA 1 480 QN
        POOLEDEVTS {694364FA-9473-4CD6-ADCA-3044C5BE5793}
        <X 0 0
          /wNQQVJUIFJFQUxfR1VJVEFS
        >
        E 3840 90 18 64
        E 0 90 19 64
        E 0 90 1a 64
        E 0 90 1b 64
        E 0 90 1c 64
        E 0 90 1d 64
        E 0 90 30 64
        E 0 90 31 64
        E 0 90 32 64
        E 0 90 33 64
        E 0 90 34 64
        E 0 90 35 64
        E 0 90 48 64
        E 0 90 49 64
        E 0 90 4a 64
        E 0 90 4b 64
        E 0 90 4c 64
        E 0 90 4d 64
        E 0 90 60 64
        E 0 90 61 64
        E 0 90 62 64
        E 0 90 63 64
        E 0 90 64 64
        E 0 90 65 64
        E 120 80 18 00
        E 0 80 19 00
        E 0 80 1a 00
        E 0 80 1b 00
        E 0 80 1c 00
        E 0 80 1d 00
        E 0 80 30 00
        E 0 80 31 00
        E 0 80 32 00
        E 0 80 33 00
        E 0 80 34 00
        E 0 80 35 00
        E 0 80 48 00
        E 0 80 49 00
        E 0 80 4a 00
        E 0 80 4b 00
        E 0 80 4c 00
        E 0 80 4d 00
        E 0 80 60 00
        E 0 80 61 00
        E 0 80 62 00
        E 0 80 63 00
        E 0 80 64 00
        E 0 80 65 00
        E 177000 b0 7b 00
        GUID {95EB2031-BC44-4B36-809B-F7595C07BF30}
        IGNTEMPO 0 120.00000000 4 4
        SRCCOLOR 1180
        VELLANE 132 123 128
        COLORMAP "C:\Program Files\REAPER\Data\color_maps\rockband_guitarbass.png"
        TEXTSTRINGFILE "C:\Program Files\REAPER\Data\Text_Strings\Text Events List.txt"
        CFGEDITVIEW 0.000000 0.103438 87 12 0 0 0
        CFGEDIT 1 1 0 0 0 1 1 1 1 1 1 0.25000000 0 0 683 728 1 0 0 2 0.12500000 0 1 0 0 0.500000 0 0 1.000000 64
        KEYSNAP 0 0 "102034050607" 0 "Major"
        EVTFILTER 0 -1 -1 -1 -1 0 1 0 0 -1.00000000 -1.00000000
      >
    >
  >
  <TRACK '{4048E3A2-B3FC-493C-BF0E-D7B7B9F9DFF3}'
    NAME "PART REAL_BASS"
    PEAKCOL 16576
    BEAT -1
    AUTOMODE 0
    VOLPAN 1.00000000000000 0.00000000000000 -1.00000000000000 -1.00000000000000 1.00000000000000
    MUTESOLO 1 0 0
    IPHASE 0
    ISBUS 0 0
    BUSCOMP 0 0
    SHOWINMIX 1 0.666700 0.500000 1 0.500000 -1 -1 -1
    FREEMODE 0
    SEL 0
    REC 0 0 0 0 0 0 0
    TRACKHEIGHT 0 0
    INQ 0 0 0 0.5000000000 100 0 0 100
    NCHAN 2
    FX 1
    TRACKID {4048E3A2-B3FC-493C-BF0E-D7B7B9F9DFF3}
    PERF 0
    MIDIOUT -1
    <MIDINOTENAMES
      0 99 "EXPERT G String"
      0 98 "EXPERT D String"
      0 97 "EXPERT A String"
      0 96 "EXPERT E String (LOW)"
      0 72 "HARD E String (LOW)"
      0 48 "MEDIUM E String (LOW)"
      0 24 "EASY E String (LOW)"
      0 75 "HARD G String"
      0 74 "HARD D String"
      0 73 "HARD A String"
      0 51 "MEDIUM G String"
      0 50 "MEDIUM D String"
      0 49 "MEDIUM A String"
      0 27 "EASY G String"
      0 26 "EASY D String"
      0 25 "EASY A String"
      0 116 "OVERDRIVE"
      0 115 "Solo Marker"
      0 120 "BRE (use all 6)"
      0 123 "BRE"
      0 122 "BRE"
      0 121 "BRE"
      0 127 "Trill"
      0 126 "Tremelo"
      0 125 "BRE"
      0 124 "BRE"
      0 108 "Left hand position"
      0 107 "Force Chord Numbering"
      0 104 "EXPERT Arpeggio Marker"
      0 103 "EXPERT Slide Marker"
      0 102 "EXPERT Force Ho/Po"
      0 101 "EXPERT E String (HIGH)"
      0 100 "EXPERT B String"
      0 80 "HARD Arpeggio Marker"
      0 79 "HARD Slide Marker"
      0 78 "Force Ho/Po"
      0 77 "HARD E String (HIGH)"
      0 76 "HARD B String"
      0 55 "MEDIUM Slide Marker"
      0 53 "MEDIUM E String (HIGH)"
      0 52 "MEDIUM B String"
      0 31 "EASY Slide Marker"
      0 29 "EASY E String (HIGH)"
      0 28 "EASY B String"
      0 17 "Hide Chord Names"
      0 15 "Eb"
      0 14 "D"
      0 13 "Db"
      0 12 "C"
      0 11 "B"
      0 10 "Bb"
      0 9 "A"
      0 8 "Ab"
      0 7 "G"
      0 6 "Gb"
      0 5 "F"
      0 4 "E"
      0 105 "EXPERT Strum Direction"
      0 81 "HARD Strum Direction"
      0 56 "MEDIUM Arpeggio Marker"
      0 32 "EASY Arpeggio Marker"
      0 21 "CHORD NAMES"
      0 18 "Flat/Sharp Swap"
      0 16 "Slash Chord"
    >
    MAINSEND 1 0
    <FXCHAIN
      SHOW 0
      LASTSEL 0
      DOCKED 0
    >
    <ITEM
      POSITION 0.00000000000000
      SNAPOFFS 0.00000000000000
      LENGTH 152.03750366148350
      LOOP 0
      ALLTAKES 0
      SEL 0
      FADEIN 1 0.000000 0.000000 1 0
      FADEOUT 1 0.000000 0.000000 1 0
      MUTE 0
      IGUID {20F1321F-9ED7-4853-AD09-40B222B05CF8}
      IID 25
      NAME "PART REAL_BASS"
      VOLPAN 1.000000 0.000000 1.000000 -1.000000
      SOFFS 0.00000000000000 0.00000000000000
      PLAYRATE 1.00000000000000 1 0.00000000000000 -1
      CHANMODE 0
      GUID {3CDDC74F-292B-448F-83EC-680F8CEF1C9B}
      <SOURCE MIDI
        HASDATA 1 480 QN
        POOLEDEVTS {A68149A5-50FA-41E8-ADE5-87DE59C8A797}
        <X 0 0
          /wNQQVJUIFJFQUxfQkFTUw==
        >
        E 3840 90 18 64
        E 0 90 19 64
        E 0 90 1a 64
        E 0 90 1b 64
        E 0 90 30 64
        E 0 90 31 64
        E 0 90 32 64
        E 0 90 33 64
        E 0 90 48 64
        E 0 90 49 64
        E 0 90 4a 64
        E 0 90 4b 64
        E 0 90 60 64
        E 0 90 61 64
        E 0 90 62 64
        E 0 90 63 64
        E 120 80 18 00
        E 0 80 19 00
        E 0 80 1a 00
        E 0 80 1b 00
        E 0 80 30 00
        E 0 80 31 00
        E 0 80 32 00
        E 0 80 33 00
        E 0 80 48 00
        E 0 80 49 00
        E 0 80 4a 00
        E 0 80 4b 00
        E 0 80 60 00
        E 0 80 61 00
        E 0 80 62 00
        E 0 80 63 00
        E 177000 b0 7b 00
        GUID {95EB2031-BC44-4B36-809B-F7595C07BF30}
        IGNTEMPO 0 120.00000000 4 4
        SRCCOLOR 1181
        VELLANE 132 123 128
        COLORMAP "C:\Program Files\REAPER\Data\color_maps\rockband_guitarbass.png"
        TEXTSTRINGFILE "C:\Program Files\REAPER\Data\Text_Strings\Text Events List.txt"
        CFGEDITVIEW 0.000000 0.179136 0 12 0 0 0
        CFGEDIT 1 1 0 0 0 1 1 1 1 1 1 0.25000000 0 0 683 728 1 0 0 2 0.00000000 0 1 0 0 0.500000 0 0 1.000000 64
        KEYSNAP 0 0 "102034050607" 0 "Major"
        EVTFILTER 0 -1 -1 -1 -1 0 1 0 0 -1.00000000 -1.00000000
      >
    >
  >
>
