<REAPER_PROJECT 0.1 "4.22/x64"
  RIPPLE 0
  GROUPOVERRIDE 0 1 0
  AUTOXFADE 1
  ENVATTACH 1
  MIXERUIFLAGS 11 48
  PEAKGAIN 1.00000000000000
  FEEDBACK 0
  PANLAW 1.00000000000000
  PROJOFFS 0.00000000000000 0
  MAXPROJLEN 0 600.00000000000000
  GRID 1407 8 1.00000000000000 8 1.00000000000000 0
  TIMEMODE 1 0 -1
  CURSOR 129.68584759718968
  ZOOM 61.05705007536846 7096 0
  VZOOMEX 0
  USE_REC_CFG 0
  RECMODE 1
  SMPTESYNC 0 30.000000 100 40 1000 300 0 0.000000 0
  LOOP 1
  LOOPGRAN 0 4.00000000000000
  RECORD_PATH "" ""
  <RECORD_CFG
    ZXZhdxgA
  >
  <APPLYFX_CFG
  >
  RENDER_FILE ""
  RENDER_PATTERN ""
  RENDER_FMT 0 2 0
  RENDER_1X 0
  RENDER_RANGE 1 0.00000000000000 0.00000000000000
  RENDER_RESAMPLE 3 0 1
  RENDER_ADDTOPROJ 0
  RENDER_STEMS 0
  RENDER_DITHER 0
  TIMELOCKMODE 0
  ITEMMIX 0
  DEFPITCHMODE 0
  TAKELANE 1
  SAMPLERATE 44100 0 0
  <RENDER_CFG
  >
  LOCK 1
  <METRONOME 6 2.000000
    VOL 0.752735 0.723913
    FREQ 800 1600 0
    BEATLEN 4
    SAMPLES "" ""
  >
  GLOBAL_AUTO -1
  TEMPO 120.00000000000000 4 4
  PLAYRATE 1.00000000000000 0 0.25000 4.00000
  SELECTION 0.00000000000000 0.00000000000000
  SELECTION2 0.00000000000000 0.00000000000000
  MASTERAUTOMODE 0
  MASTERTRACKHEIGHT 35
  MASTERPEAKCOL 16576
  MASTERMUTESOLO 0
  MASTERTRACKVIEW 1 0.666700 0.500000 0.500000 -1 -1 -1
  MASTERHWOUT 0 0 1.00000000000000 0.00000000000000 0 0 0 -1.00000000000000
  MASTER_NCH 2 2
  MASTER_VOLUME 1.05925372517729 0.00000000000000 -1.00000000000000 -1.00000000000000 1.00000000000000
  MASTER_FX 1
  MASTER_SEL 0
  <MASTERFXLIST
    SHOW 0
    LASTSEL 0
    DOCKED 0
    BYPASS 0 0
    <VST "VST: W1 Limiter (George Yohng)" "George Yohng_s W1 Limiter.dll" 0 ""
      THdGNO5e7f4CAAAAAQAAAAAAAAACAAAAAAAAAAIAAAABAAAAAAAAAA==
      AgAAAAAAAABMAAAAAQAAAAAAEAAMAACBdGhyZXNoAAD+1Hg/DAAAgQ==
      Y2VpbGluZwD+1Hg/DAAAgXJlbGVhc2UAMEAfPxQAAIFhZGFwdFJlbA==
      ZWFzZQAAAAAAAAAAAAAAgAAAEAAAAA==
    >
    FLOATPOS 24 24 481 152
    FXID {69D45D23-FE06-4141-B0BB-1A6D9443AFA8}
    WAK 0
  >
  <MASTERPLAYSPEEDENV
    ACT 0
    VIS 0 1 1.000000
    LANEHEIGHT 0 0
    ARM 0
    DEFSHAPE 0 -1 -1
  >
  <TEMPOENVEX
    ACT 1
    VIS 1 0 1.000000
    LANEHEIGHT 0 0
    ARM 0
    DEFSHAPE 1 -1 -1
    PT 0.000000000000 118.0000000000 1
    PT 2.033898305085 117.9837605370 1
    PT 4.068076559004 117.2194173954 1
    PT 6.115518913971 118.6313052175 1
    PT 8.138593679608 116.8926276889 1
    PT 10.191759946335 119.1767365058 1
    PT 12.205575788558 119.4513372812 1
    PT 14.214762169076 116.6296521486 1
    PT 16.272557897509 117.4221526162 1
    PT 18.316465240823 118.2254968758 1
    PT 20.346484199019 118.0457749828 1
    PT 22.379593812938 117.0413444604 1
    PT 24.430151255750 117.0413444604 1
    PT 26.480708698562 118.0840290436 1
    PT 28.513159673887 118.0840290436 1
    PT 30.545610649213 117.8216200902 1
    PT 32.582588241410 117.8216200902 1
    PT 34.619565833607 118.0840290436 1
    PT 36.652016808932 118.3936499414 1
    PT 38.679152555814 117.1567918193 1
    PT 40.727689360835 120.2827851045 1
    PT 42.722987356233 116.7609918469 1
    PT 44.778468353814 117.9564968829 1
    PT 46.813116773715 120.1434076015 1
    PT 48.810729499967 116.7609918469 1
    PT 50.866210497547 118.9033953671 1
    PT 52.884655801477 118.3604574887 1
    PT 54.912360028820 118.3604574887 1
    PT 56.940064256162 116.4986075956 1
    PT 59.000174715449 116.6296521486 1
    PT 61.057970443882 117.9564968829 1
    PT 63.092618863784 118.1208120330 1
    PT 65.124436930975 117.3002854880 1
    PT 67.170467756915 118.8783162345 1
    PT 69.189338881626 119.1454585181 1
    PT 71.203683389466 117.3002854880 1
    PT 73.249714215406 118.0840290436 1
    PT 75.282165190731 118.0840290436 1
    PT 77.314616166057 119.6833612654 1
    PT 79.319907440153 121.3266110768 1
    PT 81.298039013020 117.3002854880 1
    PT 83.344069838960 116.2713356153 1
    PT 85.408207132386 117.3002854880 1
    PT 87.454237958326 117.3002854880 1
    PT 89.500268784267 117.3002854880 1
    PT 91.546299610207 118.3476094656 1
    PT 93.574223968661 118.3476094656 1
    PT 95.602148327115 118.8783162345 1
    PT 97.621019451825 117.0413444604 1
    PT 99.671576894637 118.0840290436 1
    PT 101.704027869963 119.4138041455 1
    PT 103.713845760930 117.0413444604 1
    PT 105.764403203742 118.0840290436 1
    PT 107.796854179068 118.6123692183 1
    PT 109.820251920650 118.8783162345 1
    PT 111.839123045361 118.3476094656 1
    PT 113.867047403815 117.5603748128 1
    PT 115.908551612883 116.7835441422 1
    PT 117.963635672567 118.6123692183 1
    PT 119.987033414149 118.0840290436 1
    PT 122.019484389474 117.5603748128 1
    PT 124.060988598543 117.4562007988 1
    PT 126.104303454360 119.9541381008 1
    PT 128.105068111585 118.6123692183 1
    PT 130.128465853167 118.0840290436 1
    PT 132.160916828493 117.8216200902 1
    PT 134.197894420690 119.1454585181 1
    PT 136.212238928529 116.0169125614 1
    PT 138.280902838827 117.8216200902 1
    PT 140.317880431024 117.5603748128 1
    PT 142.359384640093 118.6123692183 1
    PT 144.382782381675 117.3002854880 1
    PT 146.428813207615 118.8783162345 1
    PT 148.447684332326 119.1454585181 1
    PT 150.462028840165 118.0840290436 1
    PT 152.494479815491 119.9541381008 1
    PT 154.495244472716 116.7835441422 1
    PT 156.550328532399 117.3002854880 1
    PT 158.596359358339 117.8216200902 1
    PT 160.633336950536 115.7636005253 1
    PT 162.706527477705 118.8783162345 1
    PT 164.725398602416 117.0413444604 1
    PT 166.775956045228 118.3476094656 1
    PT 168.803880403682 120.2261429491 1
    PT 170.800118444035 117.8216200902 1
    PT 172.837096036232 117.5603748128 1
    PT 174.878600245301 119.1454585181 1
    PT 176.892944753140 116.5268770122 1
    PT 178.952555429695 118.3476094656 1
    PT 180.980479788149 118.3476094656 1
    PT 183.008404146603 118.0840290436 1
    PT 185.040855121928 118.6123692183 1
    PT 187.064252863510 118.0840290436 1
    PT 189.096703838836 118.0840290436 1
  >
  <PROJBAY
  >
  <TRACK '{4D889F49-FE1F-4D1D-9FB8-BFD5BA06901A}'
    NAME "SONG AUDIO"
    PEAKCOL 16576
    BEAT -1
    AUTOMODE 0
    VOLPAN 1.00000000000000 0.00000000000000 -1.00000000000000 -1.00000000000000 1.00000000000000
    MUTESOLO 0 2 0
    IPHASE 0
    ISBUS 0 0
    BUSCOMP 0 0
    SHOWINMIX 1 0.666700 0.500000 1 0.500000 -1 -1 -1
    FREEMODE 0
    SEL 0
    REC 0 0 0 0 0 0 0
    TRACKHEIGHT 265 0
    INQ 0 0 0 0.5000000000 100 0 0 100
    NCHAN 2
    FX 1
    TRACKID {4D889F49-FE1F-4D1D-9FB8-BFD5BA06901A}
    PERF 0
    MIDIOUT -1
    MAINSEND 1 0
    <FXCHAIN
      SHOW 0
      LASTSEL 0
      DOCKED 0
      BYPASS 0 0
      <VST "VST: W1 Limiter (George Yohng)" "George Yohng_s W1 Limiter.dll" 0 ""
        THdGNO5e7f4CAAAAAQAAAAAAAAACAAAAAAAAAAIAAAABAAAAAAAAAA==
        AgAAAAAAAABMAAAAAQAAAAAAEAAMAACBdGhyZXNoAAD+1Hg/DAAAgQ==
        Y2VpbGluZwD+1Hg/DAAAgXJlbGVhc2UAMEAfPxQAAIFhZGFwdFJlbA==
        ZWFzZQAAAAAAAAAAAAAAgABEZWZhdWx0ABAAAAA=
      >
      FLOATPOS 24 24 481 152
      FXID {D32BE511-3942-4A83-B6D7-DF2FE763A2B4}
      WAK 0
    >
    <ITEM
      POSITION 0.00000000000000
      SNAPOFFS 0.00000000000000
      LENGTH 0.28216019417451
      LOOP 0
      ALLTAKES 0
      SEL 0
      FADEIN 1 0.000000 0.000000 1 0
      FADEOUT 1 0.000000 0.000000 1 0
      MUTE 0
      IGUID {D829F3DA-0BE5-4277-954B-C2D10DB114A6}
      IID 1
      NAME "stick.wav"
      VOLPAN 0.271028 0.000000 1.000000 -1.000000
      SOFFS 0.00000000000000
      PLAYRATE 1.00000000000052 1 0.00000000000000 -1
      CHANMODE 0
      GUID {3A242298-C3E5-4DC8-9A3C-2EE82D8D2134}
      <SOURCE WAVE
        FILE "C:\Users\wejaa\AppData\Roaming\REAPER\ProjectTemplates\hihat.wav"
      >
    >
    <ITEM
      POSITION 1.01694915254237
      SNAPOFFS 0.00000000000000
      LENGTH 0.28216019417451
      LOOP 0
      ALLTAKES 0
      SEL 0
      FADEIN 1 0.000000 0.000000 1 0
      FADEOUT 1 0.000000 0.000000 1 0
      MUTE 0
      IGUID {5AEC5162-2B2C-4FF2-BB3B-E29ADC0916FE}
      IID 2
      NAME "stick.wav"
      VOLPAN 0.271028 0.000000 1.000000 -1.000000
      SOFFS 0.00000000000000
      PLAYRATE 1.00000000000052 1 0.00000000000000 -1
      CHANMODE 0
      GUID {16E29BEE-96F5-48F0-9FB0-3F04A1AF90D5}
      <SOURCE WAVE
        FILE "C:\Users\wejaa\AppData\Roaming\REAPER\ProjectTemplates\hihat.wav"
      >
    >
    <ITEM
      POSITION 2.03389830508475
      SNAPOFFS 0.00000000000000
      LENGTH 0.28216019417451
      LOOP 0
      ALLTAKES 0
      SEL 0
      FADEIN 1 0.000000 0.000000 1 0
      FADEOUT 1 0.000000 0.000000 1 0
      MUTE 0
      IGUID {1FA8F8C4-F448-4E02-B340-4A6644F6D8AB}
      IID 3
      NAME "stick.wav"
      VOLPAN 0.271028 0.000000 1.000000 -1.000000
      SOFFS 0.00000000000000
      PLAYRATE 1.00000000000052 1 0.00000000000000 -1
      CHANMODE 0
      GUID {8D594F7C-8B39-4D29-A27D-55F46BC65189}
      <SOURCE WAVE
        FILE "C:\Users\wejaa\AppData\Roaming\REAPER\ProjectTemplates\hihat.wav"
      >
    >
    <ITEM
      POSITION 2.54237288135593
      SNAPOFFS 0.00000000000000
      LENGTH 0.28216019417451
      LOOP 0
      ALLTAKES 0
      SEL 0
      FADEIN 1 0.000000 0.000000 1 0
      FADEOUT 1 0.000000 0.000000 1 0
      MUTE 0
      IGUID {1D23FF37-8166-4C8E-915E-19EFDB52B4D8}
      IID 4
      NAME "stick.wav"
      VOLPAN 0.271028 0.000000 1.000000 -1.000000
      SOFFS 0.00000000000000
      PLAYRATE 1.00000000000052 1 0.00000000000000 -1
      CHANMODE 0
      GUID {1D91F480-CA0B-4E03-8204-02893D660CDF}
      <SOURCE WAVE
        FILE "C:\Users\wejaa\AppData\Roaming\REAPER\ProjectTemplates\hihat.wav"
      >
    >
    <ITEM
      POSITION 3.05084745762712
      SNAPOFFS 0.00000000000000
      LENGTH 0.28216019417451
      LOOP 0
      ALLTAKES 0
      SEL 0
      FADEIN 1 0.000000 0.000000 1 0
      FADEOUT 1 0.000000 0.000000 1 0
      MUTE 0
      IGUID {A6BA2F37-4089-4BF2-A73E-A602F32B7614}
      IID 5
      NAME "stick.wav"
      VOLPAN 0.271028 0.000000 1.000000 -1.000000
      SOFFS 0.00000000000000
      PLAYRATE 1.00000000000050 1 0.00000000000000 -1
      CHANMODE 0
      GUID {ABD24FE2-95CA-428E-ADD9-9A13921FCC29}
      <SOURCE WAVE
        FILE "C:\Users\wejaa\AppData\Roaming\REAPER\ProjectTemplates\hihat.wav"
      >
    >
    <ITEM
      POSITION 3.55932203389830
      SNAPOFFS 0.00000000000000
      LENGTH 0.28216019417451
      LOOP 0
      ALLTAKES 0
      SEL 0
      FADEIN 1 0.000000 0.000000 1 0
      FADEOUT 1 0.000000 0.000000 1 0
      MUTE 0
      IGUID {49CCEEAD-12F1-472E-8B9C-48A90BF6E20A}
      IID 6
      NAME "stick.wav"
      VOLPAN 0.271028 0.000000 1.000000 -1.000000
      SOFFS 0.00000000000000
      PLAYRATE 1.00000000000052 1 0.00000000000000 -1
      CHANMODE 0
      GUID {3DFEA1C1-AD72-4DF8-A1BD-3977672F4D80}
      <SOURCE WAVE
        FILE "C:\Users\wejaa\AppData\Roaming\REAPER\ProjectTemplates\hihat.wav"
      >
    >
    <ITEM
      POSITION 3.88964712153270
      SNAPOFFS 0.00000000000000
      LENGTH 189.28153442674787
      LOOP 0
      ALLTAKES 0
      SEL 0
      FADEIN 1 0.000000 0.000000 1 0
      FADEOUT 1 0.000000 0.000000 1 0
      MUTE 0
      IGUID {EFD92A88-CF64-4A03-BF67-42CA9F9E4BEF}
      IID 137
      NAME "17 Nakit Ja Muusi.wav"
      VOLPAN 1.000000 0.000000 1.000000 -1.000000
      SOFFS 0.45179890658546
      PLAYRATE 1.00000000000000 1 0.00000000000000 -1
      CHANMODE 0
      GUID {24EDAE36-FD52-4B46-8FE2-2772393A9174}
      <SOURCE WAVE
        FILE "C:\Users\wejaa\Music\iTunes\iTunes Media\Music\Compilations\20 Suosikkia_ Banaania Poskeen\17 Nakit Ja Muusi.wav"
      >
    >
  >
  <TRACK '{BDCFF37A-71AC-4D17-AF26-EA560B308842}'
    NAME "COUNTIN"
    PEAKCOL 16576
    BEAT -1
    AUTOMODE 0
    VOLPAN 1.00000000000000 0.00000000000000 -1.00000000000000 -1.00000000000000 1.00000000000000
    MUTESOLO 0 0 0
    IPHASE 0
    ISBUS 0 0
    BUSCOMP 0 0
    SHOWINMIX 1 0.666700 0.500000 1 0.500000 -1 -1 -1
    FREEMODE 0
    SEL 0
    REC 0 0 0 0 0 0 0
    TRACKHEIGHT 0 0
    INQ 0 0 0 0.5000000000 100 0 0 100
    NCHAN 2
    FX 1
    TRACKID {BDCFF37A-71AC-4D17-AF26-EA560B308842}
    PERF 0
    MIDIOUT -1
    MAINSEND 1 0
  >
  <TRACK '{8F33A645-3DF2-48FA-99BC-10992A4F8042}'
    NAME "PART DRUMS"
    PEAKCOL 16842751
    BEAT -1
    AUTOMODE 0
    VOLPAN 1.00000000000000 -0.38400000000000 -1.00000000000000 -1.00000000000000 1.00000000000000
    MUTESOLO 0 0 0
    IPHASE 0
    ISBUS 0 0
    BUSCOMP 1 0
    SHOWINMIX 1 0.666700 0.500000 1 0.500000 -1 -1 -1
    FREEMODE 0
    SEL 0
    REC 0 4096 1 7 0 0 0
    TRACKHEIGHT 118 0
    INQ 0 0 0 0.5000000000 100 0 0 100
    NCHAN 2
    FX 1
    TRACKID {8F33A645-3DF2-48FA-99BC-10992A4F8042}
    PERF 0
    MIDIOUT -1
    <MIDINOTENAMES
      0 84 "HARD Kick"
      0 96 "EXPERT Kick"
      0 72 "MEDIUM Kick"
      0 60 "EASY Kick"
      0 97 "EXPERT Red"
      0 98 "EXPERT Yellow"
      0 99 "EXPERT Blue"
      0 100 "EXPERT Green"
      0 85 "HARD Red"
      0 86 "HARD Yellow"
      0 87 "HARD Blue"
      0 88 "HARD Green"
      0 73 "MEDIUM Red"
      0 74 "MEDIUM Yellow"
      0 75 "MEDIUM Blue"
      0 76 "MEDIUM Green"
      0 61 "EASY Red"
      0 62 "EASY Yellow"
      0 63 "EASY Blue"
      0 64 "EASY Green"
      0 101 ""
      0 92 "----"
      0 80 "----"
      0 68 "----"
      0 120 "DRUM FILL (use all 5)"
      0 121 "DRUM FILL"
      0 122 "DRUM FILL"
      0 123 "DRUM FILL"
      0 124 "DRUM FILL"
      0 114 "----"
      0 116 "OVERDRIVE"
      0 118 "----"
      0 24 "KICK RF"
      0 25 "HI-HAT OPEN"
      0 26 "SNARE HARD LH"
      0 27 "SNARE HARD RH"
      0 30 "HI-HAT LH"
      0 31 "HI-HAT RH"
      0 32 "PERCUSSION RH"
      0 34 "CRASH1 HARD LH"
      0 35 "CRASH1 SOFT LH"
      0 36 "CRASH1 HARD RH"
      0 37 "CRASH1 SOFT RH"
      0 38 "CRASH2 HARD RH"
      0 39 "CRASH2 SOFT RH"
      0 40 "CRASH1 CHOKE"
      0 41 "CRASH2 CHOKE"
      0 42 "RIDE CYM RH"
      0 46 "TOM1 LH"
      0 47 "TOM1 RH"
      0 48 "TOM2 LH"
      0 49 "TOM2 RH"
      0 50 "FLOOR TOM LH"
      0 51 "FLOOR TOM RH"
      0 52 "--DRUM ANIMATION--"
      0 56 "----"
      0 103 "Solo Marker"
      0 102 "----"
      0 110 "PRO Yellow Tom"
      0 111 "PRO Blue Tom"
      0 112 "PRO Green Tom"
      0 108 "----"
      0 127 "Roll Marker 2-Lane / Cym"
      0 126 "Roll Marker 1-Lane"
      0 125 "----"
      0 28 "SNARE RIM LH"
      0 29 "SNARE RIM RH"
      0 43 "RIDE CYM LH"
      0 44 "CRASH2 HARD LH"
      0 45 "CRASH2 SOFT LH"
      0 33 "PERCUSSION LH"
    >
    MAINSEND 1 0
    <FXCHAIN
      WNDRECT -1021 1311 878 574
      SHOW 0
      LASTSEL 1
      DOCKED 0
      BYPASS 1 0
      <VST "VSTi: ReaSynth (Cockos)" "reasynth.dll" 0 ""
        eXNlcu9e7f4AAAAAAgAAAAEAAAAAAAAAAgAAAAAAAAA4AAAAAAAAAA==
        AAAAAO++rd4N8K3eAAAAAAAAAAAAAAAAAAAAADm0SD59y9s+tbSxOQ==
        AAAAALbz/T5VpCs6AAAAAAAAAAAAAAAAAAA=
      >
      FLOATPOS 0 0 0 0
      FXID {58F55556-9407-4062-A048-6AFCC0B53535}
      WAK 0
      BYPASS 0 0
      <VST "VSTi: RBN Preview (RBN)" "rbprev_vst64_beta.dll" 0 ""
        dnBicu5e7f4AAAAAAgAAAAEAAAAAAAAAAgAAAAAAAAAEAAAAAQAAAA==
        AAAAAAMBqgAAAAAAAAA=
      >
      FLOATPOS 32 32 659 497
      FXID {D7126437-AB1E-4109-A0FA-F2D5D0AC68DC}
      WAK 0
    >
    <ITEM
      POSITION 0.00000000000000
      SNAPOFFS 0.00000000000000
      LENGTH 193.64941555399898
      LOOP 0
      ALLTAKES 0
      COLOR 19150555
      SEL 0
      FADEIN 1 0.000000 0.000000 1 0
      FADEOUT 1 0.000000 0.000000 1 0
      MUTE 0
      IGUID {9FF11F36-E94F-4396-9C0E-8449C916EC21}
      IID 7
      NAME "PART DRUMS"
      VOLPAN 1.000000 0.000000 1.000000 -1.000000
      SOFFS 0.00000000000000 0.00000000000000
      PLAYRATE 1.00000000000000 1 0.00000000000000 -65536
      CHANMODE 0
      GUID {70A79ADF-E70C-430A-913F-E16D0CC85517}
      <SOURCE MIDI
        HASDATA 1 480 QN
        POOLEDEVTS {4DD81F8E-A663-4BD1-9FCD-7CFED6F3494E}
        <X 0 0
          /wNQQVJUIERSVU1T
        >
        <X 300 0
          /wFbbWl4IDEgZHJ1bXMwXQ==
        >
        <X 0 0
          /wFbbWl4IDAgZHJ1bXMwXQ==
        >
        <X 60 0
          /wFbbWl4IDIgZHJ1bXMwXQ==
        >
        <X 60 0
          /wFbbWl4IDMgZHJ1bXMwXQ==
        >
        <X 3420 0
          /wFbcGxheV0=
        >
        E 0 90 40 60
        E 0 90 4c 60
        E 0 90 58 60
        E 0 90 64 60
        E 0 90 70 60
        E 0 90 33 60
        E 60 80 40 00
        E 0 80 4c 00
        E 0 80 58 00
        E 0 80 64 00
        E 0 80 70 00
        E 0 80 33 00
        E 1260 90 61 60
        E 0 90 1a 60
        E 60 80 61 00
        E 0 80 1a 00
        E 60 90 3d 60
        E 0 90 49 60
        E 0 90 55 60
        E 0 90 61 60
        E 0 90 1b 60
        E 60 80 3d 00
        E 0 80 49 00
        E 0 80 55 00
        E 0 80 61 00
        E 0 80 1b 00
        E 240 90 61 60
        E 0 90 1a 60
        E 60 80 61 00
        E 0 80 1a 00
        E 120 90 40 60
        E 0 90 48 60
        E 0 90 4c 60
        E 0 90 54 60
        E 0 90 58 60
        E 0 90 60 60
        E 0 90 64 60
        E 0 90 18 60
        E 0 90 26 60
        E 60 80 40 00
        E 0 80 48 00
        E 0 80 4c 00
        E 0 80 54 00
        E 0 80 58 00
        E 0 80 60 00
        E 0 80 64 00
        E 0 80 18 00
        E 0 80 26 00
        E 420 90 3d 60
        E 0 90 3e 60
        E 0 90 49 60
        E 0 90 4a 60
        E 0 90 54 60
        E 0 90 55 60
        E 0 90 56 60
        E 0 90 60 60
        E 0 90 61 60
        E 0 90 62 60
        E 0 90 18 60
        E 0 90 1a 60
        E 0 90 1f 60
        E 60 80 3d 00
        E 0 80 3e 00
        E 0 80 49 00
        E 0 80 4a 00
        E 0 80 54 00
        E 0 80 55 00
        E 0 80 56 00
        E 0 80 60 00
        E 0 80 61 00
        E 0 80 62 00
        E 0 80 18 00
        E 0 80 1a 00
        E 0 80 1f 00
        E 420 90 3e 60
        E 0 90 48 60
        E 0 90 4a 60
        E 0 90 54 60
        E 0 90 56 60
        E 0 90 60 60
        E 0 90 62 60
        E 0 90 18 60
        E 0 90 1f 60
        E 60 80 3e 00
        E 0 80 48 00
        E 0 80 4a 00
        E 0 80 54 00
        E 0 80 56 00
        E 0 80 60 00
        E 0 80 62 00
        E 0 80 18 00
        E 0 80 1f 00
        E 420 90 3d 60
        E 0 90 3e 60
        E 0 90 49 60
        E 0 90 4a 60
        E 0 90 54 60
        E 0 90 55 60
        E 0 90 56 60
        E 0 90 60 60
        E 0 90 61 60
        E 0 90 62 60
        E 0 90 18 60
        E 0 90 1a 60
        E 0 90 1f 60
        E 60 80 3d 00
        E 0 80 3e 00
        E 0 80 49 00
        E 0 80 4a 00
        E 0 80 54 00
        E 0 80 55 00
        E 0 80 56 00
        E 0 80 60 00
        E 0 80 61 00
        E 0 80 62 00
        E 0 80 18 00
        E 0 80 1a 00
        E 0 80 1f 00
        E 420 90 3e 60
        E 0 90 48 60
        E 0 90 4a 60
        E 0 90 54 60
        E 0 90 56 60
        E 0 90 60 60
        E 0 90 62 60
        E 0 90 18 60
        E 0 90 1f 60
        E 60 80 3e 00
        E 0 80 48 00
        E 0 80 4a 00
        E 0 80 54 00
        E 0 80 56 00
        E 0 80 60 00
        E 0 80 62 00
        E 0 80 18 00
        E 0 80 1f 00
        E 420 90 3d 60
        E 0 90 3e 60
        E 0 90 49 60
        E 0 90 4a 60
        E 0 90 54 60
        E 0 90 55 60
        E 0 90 56 60
        E 0 90 60 60
        E 0 90 61 60
        E 0 90 62 60
        E 0 90 18 60
        E 0 90 1a 60
        E 0 90 1f 60
        E 60 80 3d 00
        E 0 80 3e 00
        E 0 80 49 00
        E 0 80 4a 00
        E 0 80 54 00
        E 0 80 55 00
        E 0 80 56 00
        E 0 80 60 00
        E 0 80 61 00
        E 0 80 62 00
        E 0 80 18 00
        E 0 80 1a 00
        E 0 80 1f 00
        E 420 90 3e 60
        E 0 90 48 60
        E 0 90 4a 60
        E 0 90 54 60
        E 0 90 56 60
        E 0 90 60 60
        E 0 90 62 60
        E 0 90 18 60
        E 0 90 1f 60
        E 60 80 3e 00
        E 0 80 48 00
        E 0 80 4a 00
        E 0 80 54 00
        E 0 80 56 00
        E 0 80 60 00
        E 0 80 62 00
        E 0 80 18 00
        E 0 80 1f 00
        E 420 90 3d 60
        E 0 90 3e 60
        E 0 90 49 60
        E 0 90 4a 60
        E 0 90 54 60
        E 0 90 55 60
        E 0 90 56 60
        E 0 90 60 60
        E 0 90 61 60
        E 0 90 62 60
        E 0 90 18 60
        E 0 90 1a 60
        E 0 90 1f 60
        E 60 80 3d 00
        E 0 80 3e 00
        E 0 80 49 00
        E 0 80 4a 00
        E 0 80 54 00
        E 0 80 55 00
        E 0 80 56 00
        E 0 80 60 00
        E 0 80 61 00
        E 0 80 62 00
        E 0 80 18 00
        E 0 80 1a 00
        E 0 80 1f 00
        E 420 90 3e 60
        E 0 90 48 60
        E 0 90 4a 60
        E 0 90 54 60
        E 0 90 56 60
        E 0 90 60 60
        E 0 90 62 60
        E 0 90 18 60
        E 0 90 1f 60
        E 60 80 3e 00
        E 0 80 48 00
        E 0 80 4a 00
        E 0 80 54 00
        E 0 80 56 00
        E 0 80 60 00
        E 0 80 62 00
        E 0 80 18 00
        E 0 80 1f 00
        E 420 90 3d 60
        E 0 90 3e 60
        E 0 90 49 60
        E 0 90 4a 60
        E 0 90 54 60
        E 0 90 55 60
        E 0 90 56 60
        E 0 90 60 60
        E 0 90 61 60
        E 0 90 62 60
        E 0 90 18 60
        E 0 90 1a 60
        E 0 90 1f 60
        E 60 80 3d 00
        E 0 80 3e 00
        E 0 80 49 00
        E 0 80 4a 00
        E 0 80 54 00
        E 0 80 55 00
        E 0 80 56 00
        E 0 80 60 00
        E 0 80 61 00
        E 0 80 62 00
        E 0 80 18 00
        E 0 80 1a 00
        E 0 80 1f 00
        E 420 90 3e 60
        E 0 90 48 60
        E 0 90 4a 60
        E 0 90 54 60
        E 0 90 56 60
        E 0 90 60 60
        E 0 90 62 60
        E 0 90 18 60
        E 0 90 1f 60
        E 60 80 3e 00
        E 0 80 48 00
        E 0 80 4a 00
        E 0 80 54 00
        E 0 80 56 00
        E 0 80 60 00
        E 0 80 62 00
        E 0 80 18 00
        E 0 80 1f 00
        E 420 90 3d 60
        E 0 90 3e 60
        E 0 90 49 60
        E 0 90 4a 60
        E 0 90 54 60
        E 0 90 55 60
        E 0 90 56 60
        E 0 90 60 60
        E 0 90 61 60
        E 0 90 62 60
        E 0 90 18 60
        E 0 90 1a 60
        E 0 90 1f 60
        E 60 80 3d 00
        E 0 80 3e 00
        E 0 80 49 00
        E 0 80 4a 00
        E 0 80 54 00
        E 0 80 55 00
        E 0 80 56 00
        E 0 80 60 00
        E 0 80 61 00
        E 0 80 62 00
        E 0 80 18 00
        E 0 80 1a 00
        E 0 80 1f 00
        E 420 90 3e 60
        E 0 90 48 60
        E 0 90 4a 60
        E 0 90 54 60
        E 0 90 56 60
        E 0 90 60 60
        E 0 90 62 60
        E 0 90 18 60
        E 0 90 1f 60
        E 60 80 3e 00
        E 0 80 48 00
        E 0 80 4a 00
        E 0 80 54 00
        E 0 80 56 00
        E 0 80 60 00
        E 0 80 62 00
        E 0 80 18 00
        E 0 80 1f 00
        E 420 90 3d 60
        E 0 90 3e 60
        E 0 90 49 60
        E 0 90 4a 60
        E 0 90 54 60
        E 0 90 55 60
        E 0 90 56 60
        E 0 90 60 60
        E 0 90 61 60
        E 0 90 62 60
        E 0 90 18 60
        E 0 90 1a 60
        E 0 90 1f 60
        E 60 80 3d 00
        E 0 80 3e 00
        E 0 80 49 00
        E 0 80 4a 00
        E 0 80 54 00
        E 0 80 55 00
        E 0 80 56 00
        E 0 80 60 00
        E 0 80 61 00
        E 0 80 62 00
        E 0 80 18 00
        E 0 80 1a 00
        E 0 80 1f 00
        E 420 90 3e 60
        E 0 90 48 60
        E 0 90 4a 60
        E 0 90 54 60
        E 0 90 56 60
        E 0 90 60 60
        E 0 90 62 60
        E 0 90 18 60
        E 0 90 1f 60
        E 60 80 3e 00
        E 0 80 48 00
        E 0 80 4a 00
        E 0 80 54 00
        E 0 80 56 00
        E 0 80 60 00
        E 0 80 62 00
        E 0 80 18 00
        E 0 80 1f 00
        E 300 90 61 60
        E 0 90 1a 60
        E 60 80 61 00
        E 0 80 1a 00
        E 60 90 3d 60
        E 0 90 49 60
        E 0 90 55 60
        E 0 90 61 60
        E 0 90 1b 60
        E 60 80 3d 00
        E 0 80 49 00
        E 0 80 55 00
        E 0 80 61 00
        E 0 80 1b 00
        E 240 90 61 60
        E 0 90 1a 60
        E 60 80 61 00
        E 0 80 1a 00
        E 120 90 40 60
        E 0 90 48 60
        E 0 90 4c 60
        E 0 90 54 60
        E 0 90 58 60
        E 0 90 60 60
        E 0 90 64 60
        E 0 90 18 60
        E 0 90 26 60
        E 60 80 40 00
        E 0 80 48 00
        E 0 80 4c 00
        E 0 80 54 00
        E 0 80 58 00
        E 0 80 60 00
        E 0 80 64 00
        E 0 80 18 00
        E 0 80 26 00
        E 420 90 3d 60
        E 0 90 3e 60
        E 0 90 49 60
        E 0 90 4a 60
        E 0 90 54 60
        E 0 90 55 60
        E 0 90 56 60
        E 0 90 60 60
        E 0 90 61 60
        E 0 90 62 60
        E 0 90 18 60
        E 0 90 1a 60
        E 0 90 1f 60
        E 60 80 3d 00
        E 0 80 3e 00
        E 0 80 49 00
        E 0 80 4a 00
        E 0 80 54 00
        E 0 80 55 00
        E 0 80 56 00
        E 0 80 60 00
        E 0 80 61 00
        E 0 80 62 00
        E 0 80 18 00
        E 0 80 1a 00
        E 0 80 1f 00
        E 420 90 3e 60
        E 0 90 48 60
        E 0 90 4a 60
        E 0 90 54 60
        E 0 90 56 60
        E 0 90 60 60
        E 0 90 62 60
        E 0 90 18 60
        E 0 90 1f 60
        E 60 80 3e 00
        E 0 80 48 00
        E 0 80 4a 00
        E 0 80 54 00
        E 0 80 56 00
        E 0 80 60 00
        E 0 80 62 00
        E 0 80 18 00
        E 0 80 1f 00
        E 420 90 3d 60
        E 0 90 3e 60
        E 0 90 49 60
        E 0 90 4a 60
        E 0 90 54 60
        E 0 90 55 60
        E 0 90 56 60
        E 0 90 60 60
        E 0 90 61 60
        E 0 90 62 60
        E 0 90 18 60
        E 0 90 1a 60
        E 0 90 1f 60
        E 60 80 3d 00
        E 0 80 3e 00
        E 0 80 49 00
        E 0 80 4a 00
        E 0 80 54 00
        E 0 80 55 00
        E 0 80 56 00
        E 0 80 60 00
        E 0 80 61 00
        E 0 80 62 00
        E 0 80 18 00
        E 0 80 1a 00
        E 0 80 1f 00
        E 420 90 3e 60
        E 0 90 48 60
        E 0 90 4a 60
        E 0 90 54 60
        E 0 90 56 60
        E 0 90 60 60
        E 0 90 62 60
        E 0 90 18 60
        E 0 90 1f 60
        E 60 80 3e 00
        E 0 80 48 00
        E 0 80 4a 00
        E 0 80 54 00
        E 0 80 56 00
        E 0 80 60 00
        E 0 80 62 00
        E 0 80 18 00
        E 0 80 1f 00
        E 420 90 3d 60
        E 0 90 3e 60
        E 0 90 49 60
        E 0 90 4a 60
        E 0 90 54 60
        E 0 90 55 60
        E 0 90 56 60
        E 0 90 60 60
        E 0 90 61 60
        E 0 90 62 60
        E 0 90 18 60
        E 0 90 1a 60
        E 0 90 1f 60
        E 60 80 3d 00
        E 0 80 3e 00
        E 0 80 49 00
        E 0 80 4a 00
        E 0 80 54 00
        E 0 80 55 00
        E 0 80 56 00
        E 0 80 60 00
        E 0 80 61 00
        E 0 80 62 00
        E 0 80 18 00
        E 0 80 1a 00
        E 0 80 1f 00
        E 420 90 3e 60
        E 0 90 48 60
        E 0 90 4a 60
        E 0 90 54 60
        E 0 90 56 60
        E 0 90 60 60
        E 0 90 62 60
        E 0 90 18 60
        E 0 90 1f 60
        E 60 80 3e 00
        E 0 80 48 00
        E 0 80 4a 00
        E 0 80 54 00
        E 0 80 56 00
        E 0 80 60 00
        E 0 80 62 00
        E 0 80 18 00
        E 0 80 1f 00
        E 420 90 3d 60
        E 0 90 3e 60
        E 0 90 49 60
        E 0 90 4a 60
        E 0 90 54 60
        E 0 90 55 60
        E 0 90 56 60
        E 0 90 60 60
        E 0 90 61 60
        E 0 90 62 60
        E 0 90 18 60
        E 0 90 1a 60
        E 0 90 1f 60
        E 60 80 3d 00
        E 0 80 3e 00
        E 0 80 49 00
        E 0 80 4a 00
        E 0 80 54 00
        E 0 80 55 00
        E 0 80 56 00
        E 0 80 60 00
        E 0 80 61 00
        E 0 80 62 00
        E 0 80 18 00
        E 0 80 1a 00
        E 0 80 1f 00
        E 420 90 3e 60
        E 0 90 48 60
        E 0 90 4a 60
        E 0 90 54 60
        E 0 90 56 60
        E 0 90 60 60
        E 0 90 62 60
        E 0 90 18 60
        E 0 90 1f 60
        E 60 80 3e 00
        E 0 80 48 00
        E 0 80 4a 00
        E 0 80 54 00
        E 0 80 56 00
        E 0 80 60 00
        E 0 80 62 00
        E 0 80 18 00
        E 0 80 1f 00
        E 420 90 3d 60
        E 0 90 3e 60
        E 0 90 49 60
        E 0 90 4a 60
        E 0 90 54 60
        E 0 90 55 60
        E 0 90 56 60
        E 0 90 60 60
        E 0 90 61 60
        E 0 90 62 60
        E 0 90 18 60
        E 0 90 1a 60
        E 0 90 1f 60
        E 60 80 3d 00
        E 0 80 3e 00
        E 0 80 49 00
        E 0 80 4a 00
        E 0 80 54 00
        E 0 80 55 00
        E 0 80 56 00
        E 0 80 60 00
        E 0 80 61 00
        E 0 80 62 00
        E 0 80 18 00
        E 0 80 1a 00
        E 0 80 1f 00
        E 420 90 3e 60
        E 0 90 48 60
        E 0 90 4a 60
        E 0 90 54 60
        E 0 90 56 60
        E 0 90 60 60
        E 0 90 62 60
        E 0 90 18 60
        E 0 90 1f 60
        E 60 80 3e 00
        E 0 80 48 00
        E 0 80 4a 00
        E 0 80 54 00
        E 0 80 56 00
        E 0 80 60 00
        E 0 80 62 00
        E 0 80 18 00
        E 0 80 1f 00
        E 360 90 74 60
        E 60 90 3d 60
        E 0 90 49 60
        E 0 90 55 60
        E 0 90 61 60
        E 0 90 1a 60
        E 60 80 3d 00
        E 0 80 49 00
        E 0 80 55 00
        E 0 80 61 00
        E 0 80 1a 00
        E 240 90 61 60
        E 0 90 1a 60
        E 60 80 61 00
        E 0 80 1a 00
        E 120 90 3c 60
        E 0 90 48 60
        E 0 90 54 60
        E 0 90 60 60
        E 0 90 18 60
        E 60 80 3c 00
        E 0 80 48 00
        E 0 80 54 00
        E 0 80 60 00
        E 0 80 18 00
        E 240 90 61 60
        E 0 90 1a 60
        E 60 80 61 00
        E 0 80 1a 00
        E 120 90 3c 60
        E 0 90 48 60
        E 0 90 54 60
        E 0 90 60 60
        E 0 90 18 60
        E 60 80 3c 00
        E 0 80 48 00
        E 0 80 54 00
        E 0 80 60 00
        E 0 80 18 00
        E 240 90 61 60
        E 0 90 1a 60
        E 60 80 61 00
        E 0 80 1a 00
        E 120 90 3c 60
        E 0 90 48 60
        E 0 90 54 60
        E 0 90 60 60
        E 0 90 18 60
        E 60 80 3c 00
        E 0 80 48 00
        E 0 80 54 00
        E 0 80 60 00
        E 0 80 18 00
        E 240 90 61 60
        E 0 90 1a 60
        E 60 80 61 00
        E 0 80 1a 00
        E 120 90 3c 60
        E 0 90 48 60
        E 0 90 54 60
        E 0 90 60 60
        E 0 90 18 60
        E 60 80 3c 00
        E 0 80 48 00
        E 0 80 54 00
        E 0 80 60 00
        E 0 80 18 00
        E 240 90 61 60
        E 0 90 1a 60
        E 60 80 61 00
        E 0 80 1a 00
        E 120 90 40 60
        E 0 90 48 60
        E 0 90 4c 60
        E 0 90 54 60
        E 0 90 58 60
        E 0 90 60 60
        E 0 90 64 60
        E 0 90 18 60
        E 0 90 26 60
        E 60 80 40 00
        E 0 80 48 00
        E 0 80 4c 00
        E 0 80 54 00
        E 0 80 58 00
        E 0 80 60 00
        E 0 80 64 00
        E 0 80 18 00
        E 0 80 26 00
        E 60 80 74 00
        E 360 90 3d 60
        E 0 90 3e 60
        E 0 90 49 60
        E 0 90 4a 60
        E 0 90 54 60
        E 0 90 55 60
        E 0 90 56 60
        E 0 90 60 60
        E 0 90 61 60
        E 0 90 62 60
        E 0 90 18 60
        E 0 90 1a 60
        E 0 90 1f 60
        E 60 80 3d 00
        E 0 80 3e 00
        E 0 80 49 00
        E 0 80 4a 00
        E 0 80 54 00
        E 0 80 55 00
        E 0 80 56 00
        E 0 80 60 00
        E 0 80 61 00
        E 0 80 62 00
        E 0 80 18 00
        E 0 80 1a 00
        E 0 80 1f 00
        E 420 90 3e 60
        E 0 90 48 60
        E 0 90 4a 60
        E 0 90 54 60
        E 0 90 56 60
        E 0 90 60 60
        E 0 90 62 60
        E 0 90 18 60
        E 0 90 1f 60
        E 60 80 3e 00
        E 0 80 48 00
        E 0 80 4a 00
        E 0 80 54 00
        E 0 80 56 00
        E 0 80 60 00
        E 0 80 62 00
        E 0 80 18 00
        E 0 80 1f 00
        E 420 90 3d 60
        E 0 90 3e 60
        E 0 90 49 60
        E 0 90 4a 60
        E 0 90 54 60
        E 0 90 55 60
        E 0 90 56 60
        E 0 90 60 60
        E 0 90 61 60
        E 0 90 62 60
        E 0 90 18 60
        E 0 90 1a 60
        E 0 90 1f 60
        E 60 80 3d 00
        E 0 80 3e 00
        E 0 80 49 00
        E 0 80 4a 00
        E 0 80 54 00
        E 0 80 55 00
        E 0 80 56 00
        E 0 80 60 00
        E 0 80 61 00
        E 0 80 62 00
        E 0 80 18 00
        E 0 80 1a 00
        E 0 80 1f 00
        E 420 90 3e 60
        E 0 90 48 60
        E 0 90 4a 60
        E 0 90 54 60
        E 0 90 56 60
        E 0 90 60 60
        E 0 90 62 60
        E 0 90 18 60
        E 0 90 1f 60
        E 60 80 3e 00
        E 0 80 48 00
        E 0 80 4a 00
        E 0 80 54 00
        E 0 80 56 00
        E 0 80 60 00
        E 0 80 62 00
        E 0 80 18 00
        E 0 80 1f 00
        E 420 90 3d 60
        E 0 90 3e 60
        E 0 90 49 60
        E 0 90 4a 60
        E 0 90 54 60
        E 0 90 55 60
        E 0 90 56 60
        E 0 90 60 60
        E 0 90 61 60
        E 0 90 62 60
        E 0 90 18 60
        E 0 90 1a 60
        E 0 90 1f 60
        E 60 80 3d 00
        E 0 80 3e 00
        E 0 80 49 00
        E 0 80 4a 00
        E 0 80 54 00
        E 0 80 55 00
        E 0 80 56 00
        E 0 80 60 00
        E 0 80 61 00
        E 0 80 62 00
        E 0 80 18 00
        E 0 80 1a 00
        E 0 80 1f 00
        E 420 90 3e 60
        E 0 90 48 60
        E 0 90 4a 60
        E 0 90 54 60
        E 0 90 56 60
        E 0 90 60 60
        E 0 90 62 60
        E 0 90 18 60
        E 0 90 1f 60
        E 60 80 3e 00
        E 0 80 48 00
        E 0 80 4a 00
        E 0 80 54 00
        E 0 80 56 00
        E 0 80 60 00
        E 0 80 62 00
        E 0 80 18 00
        E 0 80 1f 00
        E 420 90 3d 60
        E 0 90 3e 60
        E 0 90 49 60
        E 0 90 4a 60
        E 0 90 54 60
        E 0 90 55 60
        E 0 90 56 60
        E 0 90 60 60
        E 0 90 61 60
        E 0 90 62 60
        E 0 90 18 60
        E 0 90 1a 60
        E 0 90 1f 60
        E 60 80 3d 00
        E 0 80 3e 00
        E 0 80 49 00
        E 0 80 4a 00
        E 0 80 54 00
        E 0 80 55 00
        E 0 80 56 00
        E 0 80 60 00
        E 0 80 61 00
        E 0 80 62 00
        E 0 80 18 00
        E 0 80 1a 00
        E 0 80 1f 00
        E 420 90 3e 60
        E 0 90 48 60
        E 0 90 4a 60
        E 0 90 54 60
        E 0 90 56 60
        E 0 90 60 60
        E 0 90 62 60
        E 0 90 18 60
        E 0 90 1f 60
        E 60 80 3e 00
        E 0 80 48 00
        E 0 80 4a 00
        E 0 80 54 00
        E 0 80 56 00
        E 0 80 60 00
        E 0 80 62 00
        E 0 80 18 00
        E 0 80 1f 00
        E 420 90 3d 60
        E 0 90 3e 60
        E 0 90 49 60
        E 0 90 4a 60
        E 0 90 54 60
        E 0 90 55 60
        E 0 90 56 60
        E 0 90 60 60
        E 0 90 61 60
        E 0 90 62 60
        E 0 90 18 60
        E 0 90 1a 60
        E 0 90 1f 60
        E 60 80 3d 00
        E 0 80 3e 00
        E 0 80 49 00
        E 0 80 4a 00
        E 0 80 54 00
        E 0 80 55 00
        E 0 80 56 00
        E 0 80 60 00
        E 0 80 61 00
        E 0 80 62 00
        E 0 80 18 00
        E 0 80 1a 00
        E 0 80 1f 00
        E 420 90 3e 60
        E 0 90 48 60
        E 0 90 4a 60
        E 0 90 54 60
        E 0 90 56 60
        E 0 90 60 60
        E 0 90 62 60
        E 0 90 18 60
        E 0 90 1f 60
        E 60 80 3e 00
        E 0 80 48 00
        E 0 80 4a 00
        E 0 80 54 00
        E 0 80 56 00
        E 0 80 60 00
        E 0 80 62 00
        E 0 80 18 00
        E 0 80 1f 00
        E 420 90 3d 60
        E 0 90 3e 60
        E 0 90 49 60
        E 0 90 4a 60
        E 0 90 54 60
        E 0 90 55 60
        E 0 90 56 60
        E 0 90 60 60
        E 0 90 61 60
        E 0 90 62 60
        E 0 90 18 60
        E 0 90 1a 60
        E 0 90 1f 60
        E 60 80 3d 00
        E 0 80 3e 00
        E 0 80 49 00
        E 0 80 4a 00
        E 0 80 54 00
        E 0 80 55 00
        E 0 80 56 00
        E 0 80 60 00
        E 0 80 61 00
        E 0 80 62 00
        E 0 80 18 00
        E 0 80 1a 00
        E 0 80 1f 00
        E 420 90 3e 60
        E 0 90 48 60
        E 0 90 4a 60
        E 0 90 54 60
        E 0 90 56 60
        E 0 90 60 60
        E 0 90 62 60
        E 0 90 18 60
        E 0 90 1f 60
        E 60 80 3e 00
        E 0 80 48 00
        E 0 80 4a 00
        E 0 80 54 00
        E 0 80 56 00
        E 0 80 60 00
        E 0 80 62 00
        E 0 80 18 00
        E 0 80 1f 00
        E 420 90 3d 60
        E 0 90 3e 60
        E 0 90 49 60
        E 0 90 4a 60
        E 0 90 54 60
        E 0 90 55 60
        E 0 90 56 60
        E 0 90 60 60
        E 0 90 61 60
        E 0 90 62 60
        E 0 90 18 60
        E 0 90 1a 60
        E 0 90 1f 60
        E 60 80 3d 00
        E 0 80 3e 00
        E 0 80 49 00
        E 0 80 4a 00
        E 0 80 54 00
        E 0 80 55 00
        E 0 80 56 00
        E 0 80 60 00
        E 0 80 61 00
        E 0 80 62 00
        E 0 80 18 00
        E 0 80 1a 00
        E 0 80 1f 00
        E 420 90 3e 60
        E 0 90 48 60
        E 0 90 4a 60
        E 0 90 54 60
        E 0 90 56 60
        E 0 90 60 60
        E 0 90 62 60
        E 0 90 18 60
        E 0 90 1f 60
        E 60 80 3e 00
        E 0 80 48 00
        E 0 80 4a 00
        E 0 80 54 00
        E 0 80 56 00
        E 0 80 60 00
        E 0 80 62 00
        E 0 80 18 00
        E 0 80 1f 00
        E 420 90 3d 60
        E 0 90 3e 60
        E 0 90 49 60
        E 0 90 4a 60
        E 0 90 54 60
        E 0 90 55 60
        E 0 90 56 60
        E 0 90 60 60
        E 0 90 61 60
        E 0 90 62 60
        E 0 90 18 60
        E 0 90 1a 60
        E 0 90 1f 60
        E 60 80 3d 00
        E 0 80 3e 00
        E 0 80 49 00
        E 0 80 4a 00
        E 0 80 54 00
        E 0 80 55 00
        E 0 80 56 00
        E 0 80 60 00
        E 0 80 61 00
        E 0 80 62 00
        E 0 80 18 00
        E 0 80 1a 00
        E 0 80 1f 00
        E 420 90 3e 60
        E 0 90 48 60
        E 0 90 4a 60
        E 0 90 54 60
        E 0 90 56 60
        E 0 90 60 60
        E 0 90 62 60
        E 0 90 18 60
        E 0 90 1f 60
        E 60 80 3e 00
        E 0 80 48 00
        E 0 80 4a 00
        E 0 80 54 00
        E 0 80 56 00
        E 0 80 60 00
        E 0 80 62 00
        E 0 80 18 00
        E 0 80 1f 00
        E 420 90 40 60
        E 0 90 49 60
        E 0 90 4c 60
        E 0 90 54 60
        E 0 90 55 60
        E 0 90 58 60
        E 0 90 60 60
        E 0 90 61 60
        E 0 90 64 60
        E 0 90 70 60
        E 0 90 18 60
        E 0 90 1a 60
        E 0 90 33 60
        E 60 80 40 00
        E 0 80 49 00
        E 0 80 4c 00
        E 0 80 54 00
        E 0 80 55 00
        E 0 80 58 00
        E 0 80 60 00
        E 0 80 61 00
        E 0 80 64 00
        E 0 80 70 00
        E 0 80 18 00
        E 0 80 1a 00
        E 0 80 33 00
        E 420 90 40 60
        E 0 90 49 60
        E 0 90 4c 60
        E 0 90 54 60
        E 0 90 55 60
        E 0 90 58 60
        E 0 90 60 60
        E 0 90 61 60
        E 0 90 64 60
        E 0 90 70 60
        E 0 90 18 60
        E 0 90 1a 60
        E 0 90 33 60
        E 60 80 40 00
        E 0 80 49 00
        E 0 80 4c 00
        E 0 80 54 00
        E 0 80 55 00
        E 0 80 58 00
        E 0 80 60 00
        E 0 80 61 00
        E 0 80 64 00
        E 0 80 70 00
        E 0 80 18 00
        E 0 80 1a 00
        E 0 80 33 00
        E 420 90 3d 60
        E 0 90 3e 60
        E 0 90 49 60
        E 0 90 4a 60
        E 0 90 54 60
        E 0 90 55 60
        E 0 90 56 60
        E 0 90 60 60
        E 0 90 61 60
        E 0 90 62 60
        E 0 90 18 60
        E 0 90 1a 60
        E 0 90 1f 60
        E 60 80 3d 00
        E 0 80 3e 00
        E 0 80 49 00
        E 0 80 4a 00
        E 0 80 54 00
        E 0 80 55 00
        E 0 80 56 00
        E 0 80 60 00
        E 0 80 61 00
        E 0 80 62 00
        E 0 80 18 00
        E 0 80 1a 00
        E 0 80 1f 00
        E 420 90 3e 60
        E 0 90 48 60
        E 0 90 4a 60
        E 0 90 54 60
        E 0 90 56 60
        E 0 90 60 60
        E 0 90 62 60
        E 0 90 18 60
        E 0 90 1f 60
        E 60 80 3e 00
        E 0 80 48 00
        E 0 80 4a 00
        E 0 80 54 00
        E 0 80 56 00
        E 0 80 60 00
        E 0 80 62 00
        E 0 80 18 00
        E 0 80 1f 00
        E 420 90 3d 60
        E 0 90 3e 60
        E 0 90 49 60
        E 0 90 4a 60
        E 0 90 54 60
        E 0 90 55 60
        E 0 90 56 60
        E 0 90 60 60
        E 0 90 61 60
        E 0 90 62 60
        E 0 90 18 60
        E 0 90 1a 60
        E 0 90 1f 60
        E 60 80 3d 00
        E 0 80 3e 00
        E 0 80 49 00
        E 0 80 4a 00
        E 0 80 54 00
        E 0 80 55 00
        E 0 80 56 00
        E 0 80 60 00
        E 0 80 61 00
        E 0 80 62 00
        E 0 80 18 00
        E 0 80 1a 00
        E 0 80 1f 00
        E 420 90 3e 60
        E 0 90 48 60
        E 0 90 4a 60
        E 0 90 54 60
        E 0 90 56 60
        E 0 90 60 60
        E 0 90 62 60
        E 0 90 18 60
        E 0 90 1f 60
        E 60 80 3e 00
        E 0 80 48 00
        E 0 80 4a 00
        E 0 80 54 00
        E 0 80 56 00
        E 0 80 60 00
        E 0 80 62 00
        E 0 80 18 00
        E 0 80 1f 00
        E 420 90 3d 60
        E 0 90 3e 60
        E 0 90 49 60
        E 0 90 4a 60
        E 0 90 54 60
        E 0 90 55 60
        E 0 90 56 60
        E 0 90 60 60
        E 0 90 61 60
        E 0 90 62 60
        E 0 90 18 60
        E 0 90 1a 60
        E 0 90 1f 60
        E 60 80 3d 00
        E 0 80 3e 00
        E 0 80 49 00
        E 0 80 4a 00
        E 0 80 54 00
        E 0 80 55 00
        E 0 80 56 00
        E 0 80 60 00
        E 0 80 61 00
        E 0 80 62 00
        E 0 80 18 00
        E 0 80 1a 00
        E 0 80 1f 00
        E 420 90 3e 60
        E 0 90 48 60
        E 0 90 4a 60
        E 0 90 54 60
        E 0 90 56 60
        E 0 90 60 60
        E 0 90 62 60
        E 0 90 18 60
        E 0 90 1f 60
        E 60 80 3e 00
        E 0 80 48 00
        E 0 80 4a 00
        E 0 80 54 00
        E 0 80 56 00
        E 0 80 60 00
        E 0 80 62 00
        E 0 80 18 00
        E 0 80 1f 00
        E 420 90 3d 60
        E 0 90 3e 60
        E 0 90 49 60
        E 0 90 4a 60
        E 0 90 54 60
        E 0 90 55 60
        E 0 90 56 60
        E 0 90 60 60
        E 0 90 61 60
        E 0 90 62 60
        E 0 90 18 60
        E 0 90 1a 60
        E 0 90 1f 60
        E 60 80 3d 00
        E 0 80 3e 00
        E 0 80 49 00
        E 0 80 4a 00
        E 0 80 54 00
        E 0 80 55 00
        E 0 80 56 00
        E 0 80 60 00
        E 0 80 61 00
        E 0 80 62 00
        E 0 80 18 00
        E 0 80 1a 00
        E 0 80 1f 00
        E 420 90 3e 60
        E 0 90 48 60
        E 0 90 4a 60
        E 0 90 54 60
        E 0 90 56 60
        E 0 90 60 60
        E 0 90 62 60
        E 0 90 18 60
        E 0 90 1f 60
        E 60 80 3e 00
        E 0 80 48 00
        E 0 80 4a 00
        E 0 80 54 00
        E 0 80 56 00
        E 0 80 60 00
        E 0 80 62 00
        E 0 80 18 00
        E 0 80 1f 00
        E 420 90 3d 60
        E 0 90 3e 60
        E 0 90 49 60
        E 0 90 4a 60
        E 0 90 54 60
        E 0 90 55 60
        E 0 90 56 60
        E 0 90 60 60
        E 0 90 61 60
        E 0 90 62 60
        E 0 90 18 60
        E 0 90 1a 60
        E 0 90 1f 60
        E 60 80 3d 00
        E 0 80 3e 00
        E 0 80 49 00
        E 0 80 4a 00
        E 0 80 54 00
        E 0 80 55 00
        E 0 80 56 00
        E 0 80 60 00
        E 0 80 61 00
        E 0 80 62 00
        E 0 80 18 00
        E 0 80 1a 00
        E 0 80 1f 00
        E 420 90 3e 60
        E 0 90 48 60
        E 0 90 4a 60
        E 0 90 54 60
        E 0 90 56 60
        E 0 90 60 60
        E 0 90 62 60
        E 0 90 18 60
        E 0 90 1f 60
        E 60 80 3e 00
        E 0 80 48 00
        E 0 80 4a 00
        E 0 80 54 00
        E 0 80 56 00
        E 0 80 60 00
        E 0 80 62 00
        E 0 80 18 00
        E 0 80 1f 00
        E 420 90 3d 60
        E 0 90 3e 60
        E 0 90 49 60
        E 0 90 4a 60
        E 0 90 54 60
        E 0 90 55 60
        E 0 90 56 60
        E 0 90 60 60
        E 0 90 61 60
        E 0 90 62 60
        E 0 90 18 60
        E 0 90 1a 60
        E 0 90 1f 60
        E 60 80 3d 00
        E 0 80 3e 00
        E 0 80 49 00
        E 0 80 4a 00
        E 0 80 54 00
        E 0 80 55 00
        E 0 80 56 00
        E 0 80 60 00
        E 0 80 61 00
        E 0 80 62 00
        E 0 80 18 00
        E 0 80 1a 00
        E 0 80 1f 00
        E 420 90 3e 60
        E 0 90 48 60
        E 0 90 4a 60
        E 0 90 54 60
        E 0 90 56 60
        E 0 90 60 60
        E 0 90 62 60
        E 0 90 18 60
        E 0 90 1f 60
        E 60 80 3e 00
        E 0 80 48 00
        E 0 80 4a 00
        E 0 80 54 00
        E 0 80 56 00
        E 0 80 60 00
        E 0 80 62 00
        E 0 80 18 00
        E 0 80 1f 00
        E 420 90 3d 60
        E 0 90 3e 60
        E 0 90 49 60
        E 0 90 4a 60
        E 0 90 54 60
        E 0 90 55 60
        E 0 90 56 60
        E 0 90 60 60
        E 0 90 61 60
        E 0 90 62 60
        E 0 90 18 60
        E 0 90 1a 60
        E 0 90 1f 60
        E 60 80 3d 00
        E 0 80 3e 00
        E 0 80 49 00
        E 0 80 4a 00
        E 0 80 54 00
        E 0 80 55 00
        E 0 80 56 00
        E 0 80 60 00
        E 0 80 61 00
        E 0 80 62 00
        E 0 80 18 00
        E 0 80 1a 00
        E 0 80 1f 00
        E 420 90 3e 60
        E 0 90 48 60
        E 0 90 4a 60
        E 0 90 54 60
        E 0 90 56 60
        E 0 90 60 60
        E 0 90 62 60
        E 0 90 74 60
        E 0 90 18 60
        E 0 90 1f 60
        E 60 80 3e 00
        E 0 80 48 00
        E 0 80 4a 00
        E 0 80 54 00
        E 0 80 56 00
        E 0 80 60 00
        E 0 80 62 00
        E 0 80 18 00
        E 0 80 1f 00
        E 420 90 40 60
        E 0 90 49 60
        E 0 90 4c 60
        E 0 90 54 60
        E 0 90 55 60
        E 0 90 58 60
        E 0 90 60 60
        E 0 90 61 60
        E 0 90 64 60
        E 0 90 70 60
        E 0 90 18 60
        E 0 90 1a 60
        E 0 90 33 60
        E 60 80 40 00
        E 0 80 49 00
        E 0 80 4c 00
        E 0 80 54 00
        E 0 80 55 00
        E 0 80 58 00
        E 0 80 60 00
        E 0 80 61 00
        E 0 80 64 00
        E 0 80 70 00
        E 0 80 18 00
        E 0 80 1a 00
        E 0 80 33 00
        E 420 90 40 60
        E 0 90 49 60
        E 0 90 4c 60
        E 0 90 54 60
        E 0 90 55 60
        E 0 90 58 60
        E 0 90 60 60
        E 0 90 61 60
        E 0 90 64 60
        E 0 90 70 60
        E 0 90 18 60
        E 0 90 1a 60
        E 0 90 33 60
        E 60 80 40 00
        E 0 80 49 00
        E 0 80 4c 00
        E 0 80 54 00
        E 0 80 55 00
        E 0 80 58 00
        E 0 80 60 00
        E 0 80 61 00
        E 0 80 64 00
        E 0 80 70 00
        E 0 80 18 00
        E 0 80 1a 00
        E 0 80 33 00
        E 420 90 3d 60
        E 0 90 3e 60
        E 0 90 49 60
        E 0 90 4a 60
        E 0 90 54 60
        E 0 90 55 60
        E 0 90 56 60
        E 0 90 60 60
        E 0 90 61 60
        E 0 90 62 60
        E 0 90 18 60
        E 0 90 1a 60
        E 0 90 1f 60
        E 60 80 3d 00
        E 0 80 3e 00
        E 0 80 49 00
        E 0 80 4a 00
        E 0 80 54 00
        E 0 80 55 00
        E 0 80 56 00
        E 0 80 60 00
        E 0 80 61 00
        E 0 80 62 00
        E 0 80 18 00
        E 0 80 1a 00
        E 0 80 1f 00
        E 420 90 3e 60
        E 0 90 48 60
        E 0 90 4a 60
        E 0 90 54 60
        E 0 90 56 60
        E 0 90 60 60
        E 0 90 62 60
        E 0 90 18 60
        E 0 90 1f 60
        E 60 80 3e 00
        E 0 80 48 00
        E 0 80 4a 00
        E 0 80 54 00
        E 0 80 56 00
        E 0 80 60 00
        E 0 80 62 00
        E 0 80 18 00
        E 0 80 1f 00
        E 420 90 3d 60
        E 0 90 3e 60
        E 0 90 49 60
        E 0 90 4a 60
        E 0 90 54 60
        E 0 90 55 60
        E 0 90 56 60
        E 0 90 60 60
        E 0 90 61 60
        E 0 90 62 60
        E 0 90 18 60
        E 0 90 1a 60
        E 0 90 1f 60
        E 60 80 3d 00
        E 0 80 3e 00
        E 0 80 49 00
        E 0 80 4a 00
        E 0 80 54 00
        E 0 80 55 00
        E 0 80 56 00
        E 0 80 60 00
        E 0 80 61 00
        E 0 80 62 00
        E 0 80 18 00
        E 0 80 1a 00
        E 0 80 1f 00
        E 420 90 3e 60
        E 0 90 48 60
        E 0 90 4a 60
        E 0 90 54 60
        E 0 90 56 60
        E 0 90 60 60
        E 0 90 62 60
        E 0 90 18 60
        E 0 90 1f 60
        E 60 80 3e 00
        E 0 80 48 00
        E 0 80 4a 00
        E 0 80 54 00
        E 0 80 56 00
        E 0 80 60 00
        E 0 80 62 00
        E 0 80 18 00
        E 0 80 1f 00
        E 300 90 61 60
        E 0 90 1a 60
        E 60 80 61 00
        E 0 80 1a 00
        E 60 90 3d 60
        E 0 90 49 60
        E 0 90 55 60
        E 0 90 61 60
        E 0 90 1b 60
        E 60 80 3d 00
        E 0 80 49 00
        E 0 80 55 00
        E 0 80 61 00
        E 0 80 1b 00
        E 240 90 61 60
        E 0 90 1a 60
        E 60 80 61 00
        E 0 80 1a 00
        E 120 90 40 60
        E 0 90 48 60
        E 0 90 4c 60
        E 0 90 54 60
        E 0 90 58 60
        E 0 90 60 60
        E 0 90 64 60
        E 0 90 18 60
        E 0 90 26 60
        E 60 80 40 00
        E 0 80 48 00
        E 0 80 4c 00
        E 0 80 54 00
        E 0 80 58 00
        E 0 80 60 00
        E 0 80 64 00
        E 0 80 18 00
        E 0 80 26 00
        E 420 90 3d 60
        E 0 90 3e 60
        E 0 90 49 60
        E 0 90 4a 60
        E 0 90 54 60
        E 0 90 55 60
        E 0 90 56 60
        E 0 90 60 60
        E 0 90 61 60
        E 0 90 62 60
        E 0 90 18 60
        E 0 90 1a 60
        E 0 90 1f 60
        E 60 80 3d 00
        E 0 80 3e 00
        E 0 80 49 00
        E 0 80 4a 00
        E 0 80 54 00
        E 0 80 55 00
        E 0 80 56 00
        E 0 80 60 00
        E 0 80 61 00
        E 0 80 62 00
        E 0 80 18 00
        E 0 80 1a 00
        E 0 80 1f 00
        E 420 90 3e 60
        E 0 90 48 60
        E 0 90 4a 60
        E 0 90 54 60
        E 0 90 56 60
        E 0 90 60 60
        E 0 90 62 60
        E 0 90 18 60
        E 0 90 1f 60
        E 60 80 3e 00
        E 0 80 48 00
        E 0 80 4a 00
        E 0 80 54 00
        E 0 80 56 00
        E 0 80 60 00
        E 0 80 62 00
        E 0 80 18 00
        E 0 80 1f 00
        E 419 80 74 00
        E 1 90 3d 60
        E 0 90 3e 60
        E 0 90 49 60
        E 0 90 4a 60
        E 0 90 54 60
        E 0 90 55 60
        E 0 90 56 60
        E 0 90 60 60
        E 0 90 61 60
        E 0 90 62 60
        E 0 90 18 60
        E 0 90 1a 60
        E 0 90 1f 60
        E 60 80 3d 00
        E 0 80 3e 00
        E 0 80 49 00
        E 0 80 4a 00
        E 0 80 54 00
        E 0 80 55 00
        E 0 80 56 00
        E 0 80 60 00
        E 0 80 61 00
        E 0 80 62 00
        E 0 80 18 00
        E 0 80 1a 00
        E 0 80 1f 00
        E 420 90 3e 60
        E 0 90 48 60
        E 0 90 4a 60
        E 0 90 54 60
        E 0 90 56 60
        E 0 90 60 60
        E 0 90 62 60
        E 0 90 18 60
        E 0 90 1f 60
        E 60 80 3e 00
        E 0 80 48 00
        E 0 80 4a 00
        E 0 80 54 00
        E 0 80 56 00
        E 0 80 60 00
        E 0 80 62 00
        E 0 80 18 00
        E 0 80 1f 00
        E 420 90 3d 60
        E 0 90 3e 60
        E 0 90 49 60
        E 0 90 4a 60
        E 0 90 54 60
        E 0 90 55 60
        E 0 90 56 60
        E 0 90 60 60
        E 0 90 61 60
        E 0 90 62 60
        E 0 90 78 60
        E 0 90 79 60
        E 0 90 7a 60
        E 0 90 7b 60
        E 0 90 7c 60
        E 0 90 18 60
        E 0 90 1a 60
        E 0 90 1f 60
        E 60 80 3d 00
        E 0 80 3e 00
        E 0 80 49 00
        E 0 80 4a 00
        E 0 80 54 00
        E 0 80 55 00
        E 0 80 56 00
        E 0 80 60 00
        E 0 80 61 00
        E 0 80 62 00
        E 0 80 18 00
        E 0 80 1a 00
        E 0 80 1f 00
        E 420 90 3e 60
        E 0 90 48 60
        E 0 90 4a 60
        E 0 90 54 60
        E 0 90 56 60
        E 0 90 60 60
        E 0 90 62 60
        E 0 90 18 60
        E 0 90 1f 60
        E 60 80 3e 00
        E 0 80 48 00
        E 0 80 4a 00
        E 0 80 54 00
        E 0 80 56 00
        E 0 80 60 00
        E 0 80 62 00
        E 0 80 18 00
        E 0 80 1f 00
        E 420 90 3d 60
        E 0 90 3e 60
        E 0 90 49 60
        E 0 90 4a 60
        E 0 90 54 60
        E 0 90 55 60
        E 0 90 56 60
        E 0 90 60 60
        E 0 90 61 60
        E 0 90 62 60
        E 0 90 18 60
        E 0 90 1a 60
        E 0 90 1f 60
        E 60 80 3d 00
        E 0 80 3e 00
        E 0 80 49 00
        E 0 80 4a 00
        E 0 80 54 00
        E 0 80 55 00
        E 0 80 56 00
        E 0 80 60 00
        E 0 80 61 00
        E 0 80 62 00
        E 0 80 18 00
        E 0 80 1a 00
        E 0 80 1f 00
        E 420 90 3e 60
        E 0 90 48 60
        E 0 90 4a 60
        E 0 90 54 60
        E 0 90 56 60
        E 0 90 60 60
        E 0 90 62 60
        E 0 90 18 60
        E 0 90 1f 60
        E 60 80 3e 00
        E 0 80 48 00
        E 0 80 4a 00
        E 0 80 54 00
        E 0 80 56 00
        E 0 80 60 00
        E 0 80 62 00
        E 0 80 18 00
        E 0 80 1f 00
        E 420 90 3d 60
        E 0 90 3e 60
        E 0 90 49 60
        E 0 90 4a 60
        E 0 90 54 60
        E 0 90 55 60
        E 0 90 56 60
        E 0 90 60 60
        E 0 90 61 60
        E 0 90 62 60
        E 0 90 18 60
        E 0 90 1a 60
        E 0 90 1f 60
        E 60 80 3d 00
        E 0 80 3e 00
        E 0 80 49 00
        E 0 80 4a 00
        E 0 80 54 00
        E 0 80 55 00
        E 0 80 56 00
        E 0 80 60 00
        E 0 80 61 00
        E 0 80 62 00
        E 0 80 18 00
        E 0 80 1a 00
        E 0 80 1f 00
        E 420 80 78 00
        E 0 80 79 00
        E 0 80 7a 00
        E 0 80 7b 00
        E 0 80 7c 00
        E 0 90 3e 60
        E 0 90 48 60
        E 0 90 4a 60
        E 0 90 54 60
        E 0 90 56 60
        E 0 90 60 60
        E 0 90 62 60
        E 0 90 18 60
        E 0 90 1f 60
        E 60 80 3e 00
        E 0 80 48 00
        E 0 80 4a 00
        E 0 80 54 00
        E 0 80 56 00
        E 0 80 60 00
        E 0 80 62 00
        E 0 80 18 00
        E 0 80 1f 00
        E 420 90 3d 60
        E 0 90 3e 60
        E 0 90 49 60
        E 0 90 4a 60
        E 0 90 54 60
        E 0 90 55 60
        E 0 90 56 60
        E 0 90 60 60
        E 0 90 61 60
        E 0 90 62 60
        E 0 90 18 60
        E 0 90 1a 60
        E 0 90 1f 60
        E 60 80 3d 00
        E 0 80 3e 00
        E 0 80 49 00
        E 0 80 4a 00
        E 0 80 54 00
        E 0 80 55 00
        E 0 80 56 00
        E 0 80 60 00
        E 0 80 61 00
        E 0 80 62 00
        E 0 80 18 00
        E 0 80 1a 00
        E 0 80 1f 00
        E 240 90 61 60
        E 0 90 1a 60
        E 60 80 61 00
        E 0 80 1a 00
        E 120 90 40 60
        E 0 90 48 60
        E 0 90 4c 60
        E 0 90 54 60
        E 0 90 58 60
        E 0 90 60 60
        E 0 90 64 60
        E 0 90 18 60
        E 0 90 26 60
        E 60 80 40 00
        E 0 80 48 00
        E 0 80 4c 00
        E 0 80 54 00
        E 0 80 58 00
        E 0 80 60 00
        E 0 80 64 00
        E 0 80 18 00
        E 0 80 26 00
        E 420 90 3d 60
        E 0 90 49 60
        E 0 90 54 60
        E 0 90 55 60
        E 0 90 60 60
        E 0 90 61 60
        E 0 90 18 60
        E 0 90 1a 60
        E 60 80 3d 00
        E 0 80 49 00
        E 0 80 54 00
        E 0 80 55 00
        E 0 80 60 00
        E 0 80 61 00
        E 0 80 18 00
        E 0 80 1a 00
        E 420 90 40 60
        E 0 90 48 60
        E 0 90 4c 60
        E 0 90 54 60
        E 0 90 58 60
        E 0 90 60 60
        E 0 90 64 60
        E 0 90 18 60
        E 0 90 26 60
        E 60 80 40 00
        E 0 80 48 00
        E 0 80 4c 00
        E 0 80 54 00
        E 0 80 58 00
        E 0 80 60 00
        E 0 80 64 00
        E 0 80 18 00
        E 0 80 26 00
        E 420 90 3c 60
        E 0 90 48 60
        E 0 90 54 60
        E 0 90 60 60
        E 0 90 18 60
        E 60 80 3c 00
        E 0 80 48 00
        E 0 80 54 00
        E 0 80 60 00
        E 0 80 18 00
        E 240 90 61 60
        E 0 90 1a 60
        E 60 80 61 00
        E 0 80 1a 00
        E 120 90 3c 60
        E 0 90 48 60
        E 0 90 54 60
        E 0 90 60 60
        E 0 90 18 60
        E 60 80 3c 00
        E 0 80 48 00
        E 0 80 54 00
        E 0 80 60 00
        E 0 80 18 00
        E 420 90 3d 60
        E 0 90 3e 60
        E 0 90 49 60
        E 0 90 4a 60
        E 0 90 54 60
        E 0 90 55 60
        E 0 90 56 60
        E 0 90 60 60
        E 0 90 61 60
        E 0 90 62 60
        E 0 90 18 60
        E 0 90 1a 60
        E 0 90 1f 60
        E 60 80 3d 00
        E 0 80 3e 00
        E 0 80 49 00
        E 0 80 4a 00
        E 0 80 54 00
        E 0 80 55 00
        E 0 80 56 00
        E 0 80 60 00
        E 0 80 61 00
        E 0 80 62 00
        E 0 80 18 00
        E 0 80 1a 00
        E 0 80 1f 00
        E 420 90 3e 60
        E 0 90 48 60
        E 0 90 4a 60
        E 0 90 54 60
        E 0 90 56 60
        E 0 90 60 60
        E 0 90 62 60
        E 0 90 18 60
        E 0 90 1f 60
        E 60 80 3e 00
        E 0 80 48 00
        E 0 80 4a 00
        E 0 80 54 00
        E 0 80 56 00
        E 0 80 60 00
        E 0 80 62 00
        E 0 80 18 00
        E 0 80 1f 00
        E 420 90 3d 60
        E 0 90 3e 60
        E 0 90 49 60
        E 0 90 4a 60
        E 0 90 54 60
        E 0 90 55 60
        E 0 90 56 60
        E 0 90 60 60
        E 0 90 61 60
        E 0 90 62 60
        E 0 90 18 60
        E 0 90 1a 60
        E 0 90 1f 60
        E 60 80 3d 00
        E 0 80 3e 00
        E 0 80 49 00
        E 0 80 4a 00
        E 0 80 54 00
        E 0 80 55 00
        E 0 80 56 00
        E 0 80 60 00
        E 0 80 61 00
        E 0 80 62 00
        E 0 80 18 00
        E 0 80 1a 00
        E 0 80 1f 00
        E 420 90 3e 60
        E 0 90 48 60
        E 0 90 4a 60
        E 0 90 54 60
        E 0 90 56 60
        E 0 90 60 60
        E 0 90 62 60
        E 0 90 18 60
        E 0 90 1f 60
        E 60 80 3e 00
        E 0 80 48 00
        E 0 80 4a 00
        E 0 80 54 00
        E 0 80 56 00
        E 0 80 60 00
        E 0 80 62 00
        E 0 80 18 00
        E 0 80 1f 00
        E 360 90 74 60
        E 60 90 3d 60
        E 0 90 3e 60
        E 0 90 49 60
        E 0 90 4a 60
        E 0 90 54 60
        E 0 90 55 60
        E 0 90 56 60
        E 0 90 60 60
        E 0 90 61 60
        E 0 90 62 60
        E 0 90 18 60
        E 0 90 1a 60
        E 0 90 1f 60
        E 60 80 3d 00
        E 0 80 3e 00
        E 0 80 49 00
        E 0 80 4a 00
        E 0 80 54 00
        E 0 80 55 00
        E 0 80 56 00
        E 0 80 60 00
        E 0 80 61 00
        E 0 80 62 00
        E 0 80 18 00
        E 0 80 1a 00
        E 0 80 1f 00
        E 420 90 3e 60
        E 0 90 48 60
        E 0 90 4a 60
        E 0 90 54 60
        E 0 90 56 60
        E 0 90 60 60
        E 0 90 62 60
        E 0 90 18 60
        E 0 90 1f 60
        E 60 80 3e 00
        E 0 80 48 00
        E 0 80 4a 00
        E 0 80 54 00
        E 0 80 56 00
        E 0 80 60 00
        E 0 80 62 00
        E 0 80 18 00
        E 0 80 1f 00
        E 420 90 3d 60
        E 0 90 3e 60
        E 0 90 49 60
        E 0 90 4a 60
        E 0 90 54 60
        E 0 90 55 60
        E 0 90 56 60
        E 0 90 60 60
        E 0 90 61 60
        E 0 90 62 60
        E 0 90 18 60
        E 0 90 1a 60
        E 0 90 1f 60
        E 60 80 3d 00
        E 0 80 3e 00
        E 0 80 49 00
        E 0 80 4a 00
        E 0 80 54 00
        E 0 80 55 00
        E 0 80 56 00
        E 0 80 60 00
        E 0 80 61 00
        E 0 80 62 00
        E 0 80 18 00
        E 0 80 1a 00
        E 0 80 1f 00
        E 420 90 3e 60
        E 0 90 48 60
        E 0 90 4a 60
        E 0 90 54 60
        E 0 90 56 60
        E 0 90 60 60
        E 0 90 62 60
        E 0 90 18 60
        E 0 90 1f 60
        E 60 80 3e 00
        E 0 80 48 00
        E 0 80 4a 00
        E 0 80 54 00
        E 0 80 56 00
        E 0 80 60 00
        E 0 80 62 00
        E 0 80 18 00
        E 0 80 1f 00
        E 420 90 40 60
        E 0 90 49 60
        E 0 90 4c 60
        E 0 90 54 60
        E 0 90 55 60
        E 0 90 58 60
        E 0 90 60 60
        E 0 90 61 60
        E 0 90 64 60
        E 0 90 70 60
        E 0 90 18 60
        E 0 90 1a 60
        E 0 90 33 60
        E 60 80 40 00
        E 0 80 49 00
        E 0 80 4c 00
        E 0 80 54 00
        E 0 80 55 00
        E 0 80 58 00
        E 0 80 60 00
        E 0 80 61 00
        E 0 80 64 00
        E 0 80 70 00
        E 0 80 18 00
        E 0 80 1a 00
        E 0 80 33 00
        E 420 90 40 60
        E 0 90 49 60
        E 0 90 4c 60
        E 0 90 54 60
        E 0 90 55 60
        E 0 90 58 60
        E 0 90 60 60
        E 0 90 61 60
        E 0 90 64 60
        E 0 90 70 60
        E 0 90 18 60
        E 0 90 1a 60
        E 0 90 33 60
        E 60 80 40 00
        E 0 80 49 00
        E 0 80 4c 00
        E 0 80 54 00
        E 0 80 55 00
        E 0 80 58 00
        E 0 80 60 00
        E 0 80 61 00
        E 0 80 64 00
        E 0 80 70 00
        E 0 80 18 00
        E 0 80 1a 00
        E 0 80 33 00
        E 60 80 74 00
        E 360 90 3d 60
        E 0 90 3e 60
        E 0 90 49 60
        E 0 90 4a 60
        E 0 90 54 60
        E 0 90 55 60
        E 0 90 56 60
        E 0 90 60 60
        E 0 90 61 60
        E 0 90 62 60
        E 0 90 18 60
        E 0 90 1a 60
        E 0 90 1f 60
        E 60 80 3d 00
        E 0 80 3e 00
        E 0 80 49 00
        E 0 80 4a 00
        E 0 80 54 00
        E 0 80 55 00
        E 0 80 56 00
        E 0 80 60 00
        E 0 80 61 00
        E 0 80 62 00
        E 0 80 18 00
        E 0 80 1a 00
        E 0 80 1f 00
        E 420 90 3e 60
        E 0 90 48 60
        E 0 90 4a 60
        E 0 90 54 60
        E 0 90 56 60
        E 0 90 60 60
        E 0 90 62 60
        E 0 90 18 60
        E 0 90 1f 60
        E 60 80 3e 00
        E 0 80 48 00
        E 0 80 4a 00
        E 0 80 54 00
        E 0 80 56 00
        E 0 80 60 00
        E 0 80 62 00
        E 0 80 18 00
        E 0 80 1f 00
        E 420 90 3d 60
        E 0 90 3e 60
        E 0 90 49 60
        E 0 90 4a 60
        E 0 90 54 60
        E 0 90 55 60
        E 0 90 56 60
        E 0 90 60 60
        E 0 90 61 60
        E 0 90 62 60
        E 0 90 18 60
        E 0 90 1a 60
        E 0 90 1f 60
        E 60 80 3d 00
        E 0 80 3e 00
        E 0 80 49 00
        E 0 80 4a 00
        E 0 80 54 00
        E 0 80 55 00
        E 0 80 56 00
        E 0 80 60 00
        E 0 80 61 00
        E 0 80 62 00
        E 0 80 18 00
        E 0 80 1a 00
        E 0 80 1f 00
        E 420 90 3e 60
        E 0 90 48 60
        E 0 90 4a 60
        E 0 90 54 60
        E 0 90 56 60
        E 0 90 60 60
        E 0 90 62 60
        E 0 90 18 60
        E 0 90 1f 60
        E 60 80 3e 00
        E 0 80 48 00
        E 0 80 4a 00
        E 0 80 54 00
        E 0 80 56 00
        E 0 80 60 00
        E 0 80 62 00
        E 0 80 18 00
        E 0 80 1f 00
        E 420 90 3d 60
        E 0 90 3e 60
        E 0 90 49 60
        E 0 90 4a 60
        E 0 90 54 60
        E 0 90 55 60
        E 0 90 56 60
        E 0 90 60 60
        E 0 90 61 60
        E 0 90 62 60
        E 0 90 18 60
        E 0 90 1a 60
        E 0 90 1f 60
        E 60 80 3d 00
        E 0 80 3e 00
        E 0 80 49 00
        E 0 80 4a 00
        E 0 80 54 00
        E 0 80 55 00
        E 0 80 56 00
        E 0 80 60 00
        E 0 80 61 00
        E 0 80 62 00
        E 0 80 18 00
        E 0 80 1a 00
        E 0 80 1f 00
        E 420 90 3e 60
        E 0 90 48 60
        E 0 90 4a 60
        E 0 90 54 60
        E 0 90 56 60
        E 0 90 60 60
        E 0 90 62 60
        E 0 90 18 60
        E 0 90 1f 60
        E 60 80 3e 00
        E 0 80 48 00
        E 0 80 4a 00
        E 0 80 54 00
        E 0 80 56 00
        E 0 80 60 00
        E 0 80 62 00
        E 0 80 18 00
        E 0 80 1f 00
        E 420 90 3d 60
        E 0 90 3e 60
        E 0 90 49 60
        E 0 90 4a 60
        E 0 90 54 60
        E 0 90 55 60
        E 0 90 56 60
        E 0 90 60 60
        E 0 90 61 60
        E 0 90 62 60
        E 0 90 18 60
        E 0 90 1a 60
        E 0 90 1f 60
        E 60 80 3d 00
        E 0 80 3e 00
        E 0 80 49 00
        E 0 80 4a 00
        E 0 80 54 00
        E 0 80 55 00
        E 0 80 56 00
        E 0 80 60 00
        E 0 80 61 00
        E 0 80 62 00
        E 0 90 78 60
        E 0 90 79 60
        E 0 90 7a 60
        E 0 90 7b 60
        E 0 90 7c 60
        E 0 80 18 00
        E 0 80 1a 00
        E 0 80 1f 00
        E 420 90 3e 60
        E 0 90 48 60
        E 0 90 4a 60
        E 0 90 54 60
        E 0 90 56 60
        E 0 90 60 60
        E 0 90 62 60
        E 0 90 18 60
        E 0 90 1f 60
        E 60 80 3e 00
        E 0 80 48 00
        E 0 80 4a 00
        E 0 80 54 00
        E 0 80 56 00
        E 0 80 60 00
        E 0 80 62 00
        E 0 80 18 00
        E 0 80 1f 00
        E 420 90 3d 60
        E 0 90 3e 60
        E 0 90 49 60
        E 0 90 4a 60
        E 0 90 54 60
        E 0 90 55 60
        E 0 90 56 60
        E 0 90 60 60
        E 0 90 61 60
        E 0 90 62 60
        E 0 90 18 60
        E 0 90 1a 60
        E 0 90 1f 60
        E 60 80 3d 00
        E 0 80 3e 00
        E 0 80 49 00
        E 0 80 4a 00
        E 0 80 54 00
        E 0 80 55 00
        E 0 80 56 00
        E 0 80 60 00
        E 0 80 61 00
        E 0 80 62 00
        E 0 80 18 00
        E 0 80 1a 00
        E 0 80 1f 00
        E 420 90 3e 60
        E 0 90 48 60
        E 0 90 4a 60
        E 0 90 54 60
        E 0 90 56 60
        E 0 90 60 60
        E 0 90 62 60
        E 0 90 18 60
        E 0 90 1f 60
        E 60 80 3e 00
        E 0 80 48 00
        E 0 80 4a 00
        E 0 80 54 00
        E 0 80 56 00
        E 0 80 60 00
        E 0 80 62 00
        E 0 80 18 00
        E 0 80 1f 00
        E 420 90 3d 60
        E 0 90 3e 60
        E 0 90 49 60
        E 0 90 4a 60
        E 0 90 54 60
        E 0 90 55 60
        E 0 90 56 60
        E 0 90 60 60
        E 0 90 61 60
        E 0 90 62 60
        E 0 90 18 60
        E 0 90 1a 60
        E 0 90 1f 60
        E 60 80 3d 00
        E 0 80 3e 00
        E 0 80 49 00
        E 0 80 4a 00
        E 0 80 54 00
        E 0 80 55 00
        E 0 80 56 00
        E 0 80 60 00
        E 0 80 61 00
        E 0 80 62 00
        E 0 80 18 00
        E 0 80 1a 00
        E 0 80 1f 00
        E 420 90 3e 60
        E 0 90 48 60
        E 0 90 4a 60
        E 0 90 54 60
        E 0 90 56 60
        E 0 90 60 60
        E 0 90 62 60
        E 0 90 18 60
        E 0 90 1f 60
        E 60 80 78 00
        E 0 80 79 00
        E 0 80 7a 00
        E 0 80 7b 00
        E 0 80 7c 00
        E 0 80 3e 00
        E 0 80 48 00
        E 0 80 4a 00
        E 0 80 54 00
        E 0 80 56 00
        E 0 80 60 00
        E 0 80 62 00
        E 0 80 18 00
        E 0 80 1f 00
        E 420 90 3d 60
        E 0 90 3e 60
        E 0 90 49 60
        E 0 90 4a 60
        E 0 90 54 60
        E 0 90 55 60
        E 0 90 56 60
        E 0 90 60 60
        E 0 90 61 60
        E 0 90 62 60
        E 0 90 18 60
        E 0 90 1a 60
        E 0 90 1f 60
        E 60 80 3d 00
        E 0 80 3e 00
        E 0 80 49 00
        E 0 80 4a 00
        E 0 80 54 00
        E 0 80 55 00
        E 0 80 56 00
        E 0 80 60 00
        E 0 80 61 00
        E 0 80 62 00
        E 0 80 18 00
        E 0 80 1a 00
        E 0 80 1f 00
        E 420 90 3e 60
        E 0 90 48 60
        E 0 90 4a 60
        E 0 90 54 60
        E 0 90 56 60
        E 0 90 60 60
        E 0 90 62 60
        E 0 90 18 60
        E 0 90 1f 60
        E 60 80 3e 00
        E 0 80 48 00
        E 0 80 4a 00
        E 0 80 54 00
        E 0 80 56 00
        E 0 80 60 00
        E 0 80 62 00
        E 0 80 18 00
        E 0 80 1f 00
        E 420 90 3d 60
        E 0 90 3e 60
        E 0 90 49 60
        E 0 90 4a 60
        E 0 90 54 60
        E 0 90 55 60
        E 0 90 56 60
        E 0 90 60 60
        E 0 90 61 60
        E 0 90 62 60
        E 0 90 18 60
        E 0 90 1a 60
        E 0 90 1f 60
        E 60 80 3d 00
        E 0 80 3e 00
        E 0 80 49 00
        E 0 80 4a 00
        E 0 80 54 00
        E 0 80 55 00
        E 0 80 56 00
        E 0 80 60 00
        E 0 80 61 00
        E 0 80 62 00
        E 0 80 18 00
        E 0 80 1a 00
        E 0 80 1f 00
        E 420 90 3e 60
        E 0 90 48 60
        E 0 90 4a 60
        E 0 90 54 60
        E 0 90 56 60
        E 0 90 60 60
        E 0 90 62 60
        E 0 90 18 60
        E 0 90 1f 60
        E 60 80 3e 00
        E 0 80 48 00
        E 0 80 4a 00
        E 0 80 54 00
        E 0 80 56 00
        E 0 80 60 00
        E 0 80 62 00
        E 0 80 18 00
        E 0 80 1f 00
        E 420 90 3d 60
        E 0 90 3e 60
        E 0 90 49 60
        E 0 90 4a 60
        E 0 90 54 60
        E 0 90 55 60
        E 0 90 56 60
        E 0 90 60 60
        E 0 90 61 60
        E 0 90 62 60
        E 0 90 18 60
        E 0 90 1a 60
        E 0 90 1f 60
        E 60 80 3d 00
        E 0 80 3e 00
        E 0 80 49 00
        E 0 80 4a 00
        E 0 80 54 00
        E 0 80 55 00
        E 0 80 56 00
        E 0 80 60 00
        E 0 80 61 00
        E 0 80 62 00
        E 0 80 18 00
        E 0 80 1a 00
        E 0 80 1f 00
        E 420 90 3e 60
        E 0 90 48 60
        E 0 90 4a 60
        E 0 90 54 60
        E 0 90 56 60
        E 0 90 60 60
        E 0 90 62 60
        E 0 90 18 60
        E 0 90 1f 60
        E 60 80 3e 00
        E 0 80 48 00
        E 0 80 4a 00
        E 0 80 54 00
        E 0 80 56 00
        E 0 80 60 00
        E 0 80 62 00
        E 0 80 18 00
        E 0 80 1f 00
        E 420 90 3d 60
        E 0 90 3e 60
        E 0 90 49 60
        E 0 90 4a 60
        E 0 90 54 60
        E 0 90 55 60
        E 0 90 56 60
        E 0 90 60 60
        E 0 90 61 60
        E 0 90 62 60
        E 0 90 18 60
        E 0 90 1a 60
        E 0 90 1f 60
        E 60 80 3d 00
        E 0 80 3e 00
        E 0 80 49 00
        E 0 80 4a 00
        E 0 80 54 00
        E 0 80 55 00
        E 0 80 56 00
        E 0 80 60 00
        E 0 80 61 00
        E 0 80 62 00
        E 0 80 18 00
        E 0 80 1a 00
        E 0 80 1f 00
        E 420 90 3e 60
        E 0 90 48 60
        E 0 90 4a 60
        E 0 90 54 60
        E 0 90 56 60
        E 0 90 60 60
        E 0 90 62 60
        E 0 90 18 60
        E 0 90 1f 60
        E 60 80 3e 00
        E 0 80 48 00
        E 0 80 4a 00
        E 0 80 54 00
        E 0 80 56 00
        E 0 80 60 00
        E 0 80 62 00
        E 0 80 18 00
        E 0 80 1f 00
        E 420 90 3d 60
        E 0 90 3e 60
        E 0 90 49 60
        E 0 90 4a 60
        E 0 90 54 60
        E 0 90 55 60
        E 0 90 56 60
        E 0 90 60 60
        E 0 90 61 60
        E 0 90 62 60
        E 0 90 18 60
        E 0 90 1a 60
        E 0 90 1f 60
        E 60 80 3d 00
        E 0 80 3e 00
        E 0 80 49 00
        E 0 80 4a 00
        E 0 80 54 00
        E 0 80 55 00
        E 0 80 56 00
        E 0 80 60 00
        E 0 80 61 00
        E 0 80 62 00
        E 0 80 18 00
        E 0 80 1a 00
        E 0 80 1f 00
        E 420 90 3e 60
        E 0 90 48 60
        E 0 90 4a 60
        E 0 90 54 60
        E 0 90 56 60
        E 0 90 60 60
        E 0 90 62 60
        E 0 90 18 60
        E 0 90 1f 60
        E 60 80 3e 00
        E 0 80 48 00
        E 0 80 4a 00
        E 0 80 54 00
        E 0 80 56 00
        E 0 80 60 00
        E 0 80 62 00
        E 0 80 18 00
        E 0 80 1f 00
        E 420 90 3d 60
        E 0 90 3e 60
        E 0 90 49 60
        E 0 90 4a 60
        E 0 90 54 60
        E 0 90 55 60
        E 0 90 56 60
        E 0 90 60 60
        E 0 90 61 60
        E 0 90 62 60
        E 0 90 18 60
        E 0 90 1a 60
        E 0 90 1f 60
        E 60 80 3d 00
        E 0 80 3e 00
        E 0 80 49 00
        E 0 80 4a 00
        E 0 80 54 00
        E 0 80 55 00
        E 0 80 56 00
        E 0 80 60 00
        E 0 80 61 00
        E 0 80 62 00
        E 0 80 18 00
        E 0 80 1a 00
        E 0 80 1f 00
        E 360 90 74 60
        E 60 90 3e 60
        E 0 90 48 60
        E 0 90 4a 60
        E 0 90 54 60
        E 0 90 56 60
        E 0 90 60 60
        E 0 90 62 60
        E 0 90 18 60
        E 0 90 1f 60
        E 60 80 3e 00
        E 0 80 48 00
        E 0 80 4a 00
        E 0 80 54 00
        E 0 80 56 00
        E 0 80 60 00
        E 0 80 62 00
        E 0 80 18 00
        E 0 80 1f 00
        E 420 90 3d 60
        E 0 90 3e 60
        E 0 90 49 60
        E 0 90 4a 60
        E 0 90 54 60
        E 0 90 55 60
        E 0 90 56 60
        E 0 90 60 60
        E 0 90 61 60
        E 0 90 62 60
        E 0 90 18 60
        E 0 90 1a 60
        E 0 90 1f 60
        E 60 80 3d 00
        E 0 80 3e 00
        E 0 80 49 00
        E 0 80 4a 00
        E 0 80 54 00
        E 0 80 55 00
        E 0 80 56 00
        E 0 80 60 00
        E 0 80 61 00
        E 0 80 62 00
        E 0 80 18 00
        E 0 80 1a 00
        E 0 80 1f 00
        E 420 90 3e 60
        E 0 90 48 60
        E 0 90 4a 60
        E 0 90 54 60
        E 0 90 56 60
        E 0 90 60 60
        E 0 90 62 60
        E 0 90 18 60
        E 0 90 1f 60
        E 60 80 3e 00
        E 0 80 48 00
        E 0 80 4a 00
        E 0 80 54 00
        E 0 80 56 00
        E 0 80 60 00
        E 0 80 62 00
        E 0 80 18 00
        E 0 80 1f 00
        E 420 90 3d 60
        E 0 90 3e 60
        E 0 90 49 60
        E 0 90 4a 60
        E 0 90 54 60
        E 0 90 55 60
        E 0 90 56 60
        E 0 90 60 60
        E 0 90 61 60
        E 0 90 62 60
        E 0 90 18 60
        E 0 90 1a 60
        E 0 90 1f 60
        E 60 80 3d 00
        E 0 80 3e 00
        E 0 80 49 00
        E 0 80 4a 00
        E 0 80 54 00
        E 0 80 55 00
        E 0 80 56 00
        E 0 80 60 00
        E 0 80 61 00
        E 0 80 62 00
        E 0 80 18 00
        E 0 80 1a 00
        E 0 80 1f 00
        E 420 90 3e 60
        E 0 90 48 60
        E 0 90 4a 60
        E 0 90 54 60
        E 0 90 56 60
        E 0 90 60 60
        E 0 90 62 60
        E 0 90 18 60
        E 0 90 1f 60
        E 60 80 3e 00
        E 0 80 48 00
        E 0 80 4a 00
        E 0 80 54 00
        E 0 80 56 00
        E 0 80 60 00
        E 0 80 62 00
        E 0 80 18 00
        E 0 80 1f 00
        E 420 90 40 60
        E 0 90 49 60
        E 0 90 4c 60
        E 0 90 54 60
        E 0 90 55 60
        E 0 90 58 60
        E 0 90 60 60
        E 0 90 61 60
        E 0 90 64 60
        E 0 90 70 60
        E 0 90 18 60
        E 0 90 1a 60
        E 0 90 33 60
        E 60 80 40 00
        E 0 80 49 00
        E 0 80 4c 00
        E 0 80 54 00
        E 0 80 55 00
        E 0 80 58 00
        E 0 80 60 00
        E 0 80 61 00
        E 0 80 64 00
        E 0 80 70 00
        E 0 80 18 00
        E 0 80 1a 00
        E 0 80 33 00
        E 60 80 74 00
        E 360 90 3e 60
        E 0 90 48 60
        E 0 90 4a 60
        E 0 90 54 60
        E 0 90 56 60
        E 0 90 60 60
        E 0 90 62 60
        E 0 90 18 60
        E 0 90 1f 60
        E 60 80 3e 00
        E 0 80 48 00
        E 0 80 4a 00
        E 0 80 54 00
        E 0 80 56 00
        E 0 80 60 00
        E 0 80 62 00
        E 0 80 18 00
        E 0 80 1f 00
        E 420 90 3d 60
        E 0 90 3e 60
        E 0 90 49 60
        E 0 90 4a 60
        E 0 90 54 60
        E 0 90 55 60
        E 0 90 56 60
        E 0 90 60 60
        E 0 90 61 60
        E 0 90 62 60
        E 0 90 18 60
        E 0 90 1a 60
        E 0 90 1f 60
        E 60 80 3d 00
        E 0 80 3e 00
        E 0 80 49 00
        E 0 80 4a 00
        E 0 80 54 00
        E 0 80 55 00
        E 0 80 56 00
        E 0 80 60 00
        E 0 80 61 00
        E 0 80 62 00
        E 0 80 18 00
        E 0 80 1a 00
        E 0 80 1f 00
        E 420 90 3e 60
        E 0 90 48 60
        E 0 90 4a 60
        E 0 90 54 60
        E 0 90 56 60
        E 0 90 60 60
        E 0 90 62 60
        E 0 90 18 60
        E 0 90 1f 60
        E 60 80 3e 00
        E 0 80 48 00
        E 0 80 4a 00
        E 0 80 54 00
        E 0 80 56 00
        E 0 80 60 00
        E 0 80 62 00
        E 0 80 18 00
        E 0 80 1f 00
        E 420 90 3d 60
        E 0 90 3e 60
        E 0 90 49 60
        E 0 90 4a 60
        E 0 90 54 60
        E 0 90 55 60
        E 0 90 56 60
        E 0 90 60 60
        E 0 90 61 60
        E 0 90 62 60
        E 0 90 18 60
        E 0 90 1a 60
        E 0 90 1f 60
        E 60 80 3d 00
        E 0 80 3e 00
        E 0 80 49 00
        E 0 80 4a 00
        E 0 80 54 00
        E 0 80 55 00
        E 0 80 56 00
        E 0 80 60 00
        E 0 80 61 00
        E 0 80 62 00
        E 0 80 18 00
        E 0 80 1a 00
        E 0 80 1f 00
        E 420 90 3e 60
        E 0 90 48 60
        E 0 90 4a 60
        E 0 90 54 60
        E 0 90 56 60
        E 0 90 60 60
        E 0 90 62 60
        E 0 90 18 60
        E 0 90 1f 60
        E 60 80 3e 00
        E 0 80 48 00
        E 0 80 4a 00
        E 0 80 54 00
        E 0 80 56 00
        E 0 80 60 00
        E 0 80 62 00
        E 0 80 18 00
        E 0 80 1f 00
        E 420 90 3d 60
        E 0 90 3e 60
        E 0 90 49 60
        E 0 90 4a 60
        E 0 90 54 60
        E 0 90 55 60
        E 0 90 56 60
        E 0 90 60 60
        E 0 90 61 60
        E 0 90 62 60
        E 0 90 18 60
        E 0 90 1a 60
        E 0 90 1f 60
        E 60 80 3d 00
        E 0 80 3e 00
        E 0 80 49 00
        E 0 80 4a 00
        E 0 80 54 00
        E 0 80 55 00
        E 0 80 56 00
        E 0 80 60 00
        E 0 80 61 00
        E 0 80 62 00
        E 0 80 18 00
        E 0 80 1a 00
        E 0 80 1f 00
        E 420 90 3e 60
        E 0 90 48 60
        E 0 90 4a 60
        E 0 90 54 60
        E 0 90 56 60
        E 0 90 60 60
        E 0 90 62 60
        E 0 90 18 60
        E 0 90 1f 60
        E 60 80 3e 00
        E 0 80 48 00
        E 0 80 4a 00
        E 0 80 54 00
        E 0 80 56 00
        E 0 80 60 00
        E 0 80 62 00
        E 0 80 18 00
        E 0 80 1f 00
        E 420 90 3d 60
        E 0 90 3e 60
        E 0 90 49 60
        E 0 90 4a 60
        E 0 90 54 60
        E 0 90 55 60
        E 0 90 56 60
        E 0 90 60 60
        E 0 90 61 60
        E 0 90 62 60
        E 0 90 18 60
        E 0 90 1a 60
        E 0 90 1f 60
        E 60 80 3d 00
        E 0 80 3e 00
        E 0 80 49 00
        E 0 80 4a 00
        E 0 80 54 00
        E 0 80 55 00
        E 0 80 56 00
        E 0 80 60 00
        E 0 80 61 00
        E 0 80 62 00
        E 0 80 18 00
        E 0 80 1a 00
        E 0 80 1f 00
        E 420 90 3e 60
        E 0 90 48 60
        E 0 90 4a 60
        E 0 90 54 60
        E 0 90 56 60
        E 0 90 60 60
        E 0 90 62 60
        E 0 90 18 60
        E 0 90 1f 60
        E 60 80 3e 00
        E 0 80 48 00
        E 0 80 4a 00
        E 0 80 54 00
        E 0 80 56 00
        E 0 80 60 00
        E 0 80 62 00
        E 0 80 18 00
        E 0 80 1f 00
        E 420 90 3d 60
        E 0 90 3e 60
        E 0 90 49 60
        E 0 90 4a 60
        E 0 90 54 60
        E 0 90 55 60
        E 0 90 56 60
        E 0 90 60 60
        E 0 90 61 60
        E 0 90 62 60
        E 0 90 18 60
        E 0 90 1a 60
        E 0 90 1f 60
        E 60 80 3d 00
        E 0 80 3e 00
        E 0 80 49 00
        E 0 80 4a 00
        E 0 80 54 00
        E 0 80 55 00
        E 0 80 56 00
        E 0 80 60 00
        E 0 80 61 00
        E 0 80 62 00
        E 0 90 78 60
        E 0 90 79 60
        E 0 90 7a 60
        E 0 90 7b 60
        E 0 90 7c 60
        E 0 80 18 00
        E 0 80 1a 00
        E 0 80 1f 00
        E 420 90 3e 60
        E 0 90 48 60
        E 0 90 4a 60
        E 0 90 54 60
        E 0 90 56 60
        E 0 90 60 60
        E 0 90 62 60
        E 0 90 18 60
        E 0 90 1f 60
        E 60 80 3e 00
        E 0 80 48 00
        E 0 80 4a 00
        E 0 80 54 00
        E 0 80 56 00
        E 0 80 60 00
        E 0 80 62 00
        E 0 80 18 00
        E 0 80 1f 00
        E 420 90 3d 60
        E 0 90 3e 60
        E 0 90 49 60
        E 0 90 4a 60
        E 0 90 54 60
        E 0 90 55 60
        E 0 90 56 60
        E 0 90 60 60
        E 0 90 61 60
        E 0 90 62 60
        E 0 90 18 60
        E 0 90 1a 60
        E 0 90 1f 60
        E 60 80 3d 00
        E 0 80 3e 00
        E 0 80 49 00
        E 0 80 4a 00
        E 0 80 54 00
        E 0 80 55 00
        E 0 80 56 00
        E 0 80 60 00
        E 0 80 61 00
        E 0 80 62 00
        E 0 80 18 00
        E 0 80 1a 00
        E 0 80 1f 00
        E 420 90 3e 60
        E 0 90 48 60
        E 0 90 4a 60
        E 0 90 54 60
        E 0 90 56 60
        E 0 90 60 60
        E 0 90 62 60
        E 0 90 18 60
        E 0 90 1f 60
        E 60 80 3e 00
        E 0 80 48 00
        E 0 80 4a 00
        E 0 80 54 00
        E 0 80 56 00
        E 0 80 60 00
        E 0 80 62 00
        E 0 80 18 00
        E 0 80 1f 00
        E 420 90 3d 60
        E 0 90 3e 60
        E 0 90 49 60
        E 0 90 4a 60
        E 0 90 54 60
        E 0 90 55 60
        E 0 90 56 60
        E 0 90 60 60
        E 0 90 61 60
        E 0 90 62 60
        E 0 90 18 60
        E 0 90 1a 60
        E 0 90 1f 60
        E 60 80 3d 00
        E 0 80 3e 00
        E 0 80 49 00
        E 0 80 4a 00
        E 0 80 54 00
        E 0 80 55 00
        E 0 80 56 00
        E 0 80 60 00
        E 0 80 61 00
        E 0 80 62 00
        E 0 80 18 00
        E 0 80 1a 00
        E 0 80 1f 00
        E 420 90 3e 60
        E 0 90 48 60
        E 0 90 4a 60
        E 0 90 54 60
        E 0 90 56 60
        E 0 90 60 60
        E 0 90 62 60
        E 0 90 18 60
        E 0 90 1f 60
        E 60 80 78 00
        E 0 80 79 00
        E 0 80 7a 00
        E 0 80 7b 00
        E 0 80 7c 00
        E 0 80 3e 00
        E 0 80 48 00
        E 0 80 4a 00
        E 0 80 54 00
        E 0 80 56 00
        E 0 80 60 00
        E 0 80 62 00
        E 0 80 18 00
        E 0 80 1f 00
        E 420 90 3d 60
        E 0 90 3e 60
        E 0 90 49 60
        E 0 90 4a 60
        E 0 90 54 60
        E 0 90 55 60
        E 0 90 56 60
        E 0 90 60 60
        E 0 90 61 60
        E 0 90 62 60
        E 0 90 18 60
        E 0 90 1a 60
        E 0 90 1f 60
        E 60 80 3d 00
        E 0 80 3e 00
        E 0 80 49 00
        E 0 80 4a 00
        E 0 80 54 00
        E 0 80 55 00
        E 0 80 56 00
        E 0 80 60 00
        E 0 80 61 00
        E 0 80 62 00
        E 0 80 18 00
        E 0 80 1a 00
        E 0 80 1f 00
        E 420 90 3e 60
        E 0 90 48 60
        E 0 90 4a 60
        E 0 90 54 60
        E 0 90 56 60
        E 0 90 60 60
        E 0 90 62 60
        E 0 90 18 60
        E 0 90 1f 60
        E 60 80 3e 00
        E 0 80 48 00
        E 0 80 4a 00
        E 0 80 54 00
        E 0 80 56 00
        E 0 80 60 00
        E 0 80 62 00
        E 0 80 18 00
        E 0 80 1f 00
        E 420 90 3d 60
        E 0 90 3e 60
        E 0 90 49 60
        E 0 90 4a 60
        E 0 90 54 60
        E 0 90 55 60
        E 0 90 56 60
        E 0 90 60 60
        E 0 90 61 60
        E 0 90 62 60
        E 0 90 18 60
        E 0 90 1a 60
        E 0 90 1f 60
        E 60 80 3d 00
        E 0 80 3e 00
        E 0 80 49 00
        E 0 80 4a 00
        E 0 80 54 00
        E 0 80 55 00
        E 0 80 56 00
        E 0 80 60 00
        E 0 80 61 00
        E 0 80 62 00
        E 0 80 18 00
        E 0 80 1a 00
        E 0 80 1f 00
        E 420 90 3e 60
        E 0 90 48 60
        E 0 90 4a 60
        E 0 90 54 60
        E 0 90 56 60
        E 0 90 60 60
        E 0 90 62 60
        E 0 90 18 60
        E 0 90 1f 60
        E 60 80 3e 00
        E 0 80 48 00
        E 0 80 4a 00
        E 0 80 54 00
        E 0 80 56 00
        E 0 80 60 00
        E 0 80 62 00
        E 0 80 18 00
        E 0 80 1f 00
        E 300 90 61 60
        E 0 90 1a 60
        E 60 80 61 00
        E 0 80 1a 00
        E 60 90 3d 60
        E 0 90 49 60
        E 0 90 55 60
        E 0 90 61 60
        E 0 90 1b 60
        E 60 80 3d 00
        E 0 80 49 00
        E 0 80 55 00
        E 0 80 61 00
        E 0 80 1b 00
        E 240 90 61 60
        E 0 90 1a 60
        E 60 80 61 00
        E 0 80 1a 00
        E 120 90 40 60
        E 0 90 48 60
        E 0 90 4c 60
        E 0 90 54 60
        E 0 90 58 60
        E 0 90 60 60
        E 0 90 64 60
        E 0 90 18 60
        E 0 90 26 60
        E 60 80 40 00
        E 0 80 48 00
        E 0 80 4c 00
        E 0 80 54 00
        E 0 80 58 00
        E 0 80 60 00
        E 0 80 64 00
        E 0 80 18 00
        E 0 80 26 00
        E 420 90 3d 60
        E 0 90 3e 60
        E 0 90 49 60
        E 0 90 4a 60
        E 0 90 54 60
        E 0 90 55 60
        E 0 90 56 60
        E 0 90 60 60
        E 0 90 61 60
        E 0 90 62 60
        E 0 90 18 60
        E 0 90 1a 60
        E 0 90 1f 60
        E 60 80 3d 00
        E 0 80 3e 00
        E 0 80 49 00
        E 0 80 4a 00
        E 0 80 54 00
        E 0 80 55 00
        E 0 80 56 00
        E 0 80 60 00
        E 0 80 61 00
        E 0 80 62 00
        E 0 80 18 00
        E 0 80 1a 00
        E 0 80 1f 00
        E 420 90 3e 60
        E 0 90 48 60
        E 0 90 4a 60
        E 0 90 54 60
        E 0 90 56 60
        E 0 90 60 60
        E 0 90 62 60
        E 0 90 18 60
        E 0 90 1f 60
        E 60 80 3e 00
        E 0 80 48 00
        E 0 80 4a 00
        E 0 80 54 00
        E 0 80 56 00
        E 0 80 60 00
        E 0 80 62 00
        E 0 80 18 00
        E 0 80 1f 00
        E 420 90 3d 60
        E 0 90 3e 60
        E 0 90 49 60
        E 0 90 4a 60
        E 0 90 54 60
        E 0 90 55 60
        E 0 90 56 60
        E 0 90 60 60
        E 0 90 61 60
        E 0 90 62 60
        E 0 90 18 60
        E 0 90 1a 60
        E 0 90 1f 60
        E 60 80 3d 00
        E 0 80 3e 00
        E 0 80 49 00
        E 0 80 4a 00
        E 0 80 54 00
        E 0 80 55 00
        E 0 80 56 00
        E 0 80 60 00
        E 0 80 61 00
        E 0 80 62 00
        E 0 80 18 00
        E 0 80 1a 00
        E 0 80 1f 00
        E 420 90 3e 60
        E 0 90 48 60
        E 0 90 4a 60
        E 0 90 54 60
        E 0 90 56 60
        E 0 90 60 60
        E 0 90 62 60
        E 0 90 18 60
        E 0 90 1f 60
        E 60 80 3e 00
        E 0 80 48 00
        E 0 80 4a 00
        E 0 80 54 00
        E 0 80 56 00
        E 0 80 60 00
        E 0 80 62 00
        E 0 80 18 00
        E 0 80 1f 00
        E 360 90 74 60
        E 60 90 3d 60
        E 0 90 3e 60
        E 0 90 49 60
        E 0 90 4a 60
        E 0 90 54 60
        E 0 90 55 60
        E 0 90 56 60
        E 0 90 60 60
        E 0 90 61 60
        E 0 90 62 60
        E 0 90 18 60
        E 0 90 1a 60
        E 0 90 1f 60
        E 60 80 3d 00
        E 0 80 3e 00
        E 0 80 49 00
        E 0 80 4a 00
        E 0 80 54 00
        E 0 80 55 00
        E 0 80 56 00
        E 0 80 60 00
        E 0 80 61 00
        E 0 80 62 00
        E 0 80 18 00
        E 0 80 1a 00
        E 0 80 1f 00
        E 420 90 3e 60
        E 0 90 48 60
        E 0 90 4a 60
        E 0 90 54 60
        E 0 90 56 60
        E 0 90 60 60
        E 0 90 62 60
        E 0 90 18 60
        E 0 90 1f 60
        E 60 80 3e 00
        E 0 80 48 00
        E 0 80 4a 00
        E 0 80 54 00
        E 0 80 56 00
        E 0 80 60 00
        E 0 80 62 00
        E 0 80 18 00
        E 0 80 1f 00
        E 420 90 3d 60
        E 0 90 3e 60
        E 0 90 49 60
        E 0 90 4a 60
        E 0 90 54 60
        E 0 90 55 60
        E 0 90 56 60
        E 0 90 60 60
        E 0 90 61 60
        E 0 90 62 60
        E 0 90 18 60
        E 0 90 1a 60
        E 0 90 1f 60
        E 60 80 3d 00
        E 0 80 3e 00
        E 0 80 49 00
        E 0 80 4a 00
        E 0 80 54 00
        E 0 80 55 00
        E 0 80 56 00
        E 0 80 60 00
        E 0 80 61 00
        E 0 80 62 00
        E 0 80 18 00
        E 0 80 1a 00
        E 0 80 1f 00
        E 420 90 3e 60
        E 0 90 48 60
        E 0 90 4a 60
        E 0 90 54 60
        E 0 90 56 60
        E 0 90 60 60
        E 0 90 62 60
        E 0 90 18 60
        E 0 90 1f 60
        E 60 80 3e 00
        E 0 80 48 00
        E 0 80 4a 00
        E 0 80 54 00
        E 0 80 56 00
        E 0 80 60 00
        E 0 80 62 00
        E 0 80 18 00
        E 0 80 1f 00
        E 420 90 40 60
        E 0 90 49 60
        E 0 90 4c 60
        E 0 90 54 60
        E 0 90 55 60
        E 0 90 58 60
        E 0 90 60 60
        E 0 90 61 60
        E 0 90 64 60
        E 0 90 70 60
        E 0 90 18 60
        E 0 90 1a 60
        E 0 90 33 60
        E 60 80 40 00
        E 0 80 49 00
        E 0 80 4c 00
        E 0 80 54 00
        E 0 80 55 00
        E 0 80 58 00
        E 0 80 60 00
        E 0 80 61 00
        E 0 80 64 00
        E 0 80 70 00
        E 0 80 18 00
        E 0 80 1a 00
        E 0 80 33 00
        E 420 90 40 60
        E 0 90 49 60
        E 0 90 4c 60
        E 0 90 54 60
        E 0 90 55 60
        E 0 90 58 60
        E 0 90 60 60
        E 0 90 61 60
        E 0 90 64 60
        E 0 90 70 60
        E 0 90 18 60
        E 0 90 1a 60
        E 0 90 33 60
        E 60 80 40 00
        E 0 80 49 00
        E 0 80 4c 00
        E 0 80 54 00
        E 0 80 55 00
        E 0 80 58 00
        E 0 80 60 00
        E 0 80 61 00
        E 0 80 64 00
        E 0 80 70 00
        E 0 80 18 00
        E 0 80 1a 00
        E 0 80 33 00
        E 60 80 74 00
        E 360 90 3d 60
        E 0 90 3e 60
        E 0 90 49 60
        E 0 90 4a 60
        E 0 90 54 60
        E 0 90 55 60
        E 0 90 56 60
        E 0 90 60 60
        E 0 90 61 60
        E 0 90 62 60
        E 0 90 18 60
        E 0 90 1a 60
        E 0 90 1f 60
        E 60 80 3d 00
        E 0 80 3e 00
        E 0 80 49 00
        E 0 80 4a 00
        E 0 80 54 00
        E 0 80 55 00
        E 0 80 56 00
        E 0 80 60 00
        E 0 80 61 00
        E 0 80 62 00
        E 0 80 18 00
        E 0 80 1a 00
        E 0 80 1f 00
        E 420 90 3e 60
        E 0 90 48 60
        E 0 90 4a 60
        E 0 90 54 60
        E 0 90 56 60
        E 0 90 60 60
        E 0 90 62 60
        E 0 90 18 60
        E 0 90 1f 60
        E 60 80 3e 00
        E 0 80 48 00
        E 0 80 4a 00
        E 0 80 54 00
        E 0 80 56 00
        E 0 80 60 00
        E 0 80 62 00
        E 0 80 18 00
        E 0 80 1f 00
        E 420 90 3d 60
        E 0 90 3e 60
        E 0 90 49 60
        E 0 90 4a 60
        E 0 90 54 60
        E 0 90 55 60
        E 0 90 56 60
        E 0 90 60 60
        E 0 90 61 60
        E 0 90 62 60
        E 0 90 18 60
        E 0 90 1a 60
        E 0 90 1f 60
        E 60 80 3d 00
        E 0 80 3e 00
        E 0 80 49 00
        E 0 80 4a 00
        E 0 80 54 00
        E 0 80 55 00
        E 0 80 56 00
        E 0 80 60 00
        E 0 80 61 00
        E 0 80 62 00
        E 0 80 18 00
        E 0 80 1a 00
        E 0 80 1f 00
        E 420 90 3e 60
        E 0 90 48 60
        E 0 90 4a 60
        E 0 90 54 60
        E 0 90 56 60
        E 0 90 60 60
        E 0 90 62 60
        E 0 90 18 60
        E 0 90 1f 60
        E 60 80 3e 00
        E 0 80 48 00
        E 0 80 4a 00
        E 0 80 54 00
        E 0 80 56 00
        E 0 80 60 00
        E 0 80 62 00
        E 0 80 18 00
        E 0 80 1f 00
        E 420 90 3d 60
        E 0 90 3e 60
        E 0 90 49 60
        E 0 90 4a 60
        E 0 90 54 60
        E 0 90 55 60
        E 0 90 56 60
        E 0 90 60 60
        E 0 90 61 60
        E 0 90 62 60
        E 0 90 18 60
        E 0 90 1a 60
        E 0 90 1f 60
        E 60 80 3d 00
        E 0 80 3e 00
        E 0 80 49 00
        E 0 80 4a 00
        E 0 80 54 00
        E 0 80 55 00
        E 0 80 56 00
        E 0 80 60 00
        E 0 80 61 00
        E 0 80 62 00
        E 0 80 18 00
        E 0 80 1a 00
        E 0 80 1f 00
        E 420 90 3e 60
        E 0 90 48 60
        E 0 90 4a 60
        E 0 90 54 60
        E 0 90 56 60
        E 0 90 60 60
        E 0 90 62 60
        E 0 90 18 60
        E 0 90 1f 60
        E 60 80 3e 00
        E 0 80 48 00
        E 0 80 4a 00
        E 0 80 54 00
        E 0 80 56 00
        E 0 80 60 00
        E 0 80 62 00
        E 0 80 18 00
        E 0 80 1f 00
        E 420 90 3d 60
        E 0 90 3e 60
        E 0 90 49 60
        E 0 90 4a 60
        E 0 90 54 60
        E 0 90 55 60
        E 0 90 56 60
        E 0 90 60 60
        E 0 90 61 60
        E 0 90 62 60
        E 0 90 18 60
        E 0 90 1a 60
        E 0 90 1f 60
        E 60 80 3d 00
        E 0 80 3e 00
        E 0 80 49 00
        E 0 80 4a 00
        E 0 80 54 00
        E 0 80 55 00
        E 0 80 56 00
        E 0 80 60 00
        E 0 80 61 00
        E 0 80 62 00
        E 0 80 18 00
        E 0 80 1a 00
        E 0 80 1f 00
        E 420 90 3e 60
        E 0 90 48 60
        E 0 90 4a 60
        E 0 90 54 60
        E 0 90 56 60
        E 0 90 60 60
        E 0 90 62 60
        E 0 90 18 60
        E 0 90 1f 60
        E 60 80 3e 00
        E 0 80 48 00
        E 0 80 4a 00
        E 0 80 54 00
        E 0 80 56 00
        E 0 80 60 00
        E 0 80 62 00
        E 0 80 18 00
        E 0 80 1f 00
        E 420 90 3d 60
        E 0 90 3e 60
        E 0 90 49 60
        E 0 90 4a 60
        E 0 90 54 60
        E 0 90 55 60
        E 0 90 56 60
        E 0 90 60 60
        E 0 90 61 60
        E 0 90 62 60
        E 0 90 18 60
        E 0 90 1a 60
        E 0 90 1f 60
        E 60 80 3d 00
        E 0 80 3e 00
        E 0 80 49 00
        E 0 80 4a 00
        E 0 80 54 00
        E 0 80 55 00
        E 0 80 56 00
        E 0 80 60 00
        E 0 80 61 00
        E 0 80 62 00
        E 0 80 18 00
        E 0 80 1a 00
        E 0 80 1f 00
        E 420 90 3e 60
        E 0 90 48 60
        E 0 90 4a 60
        E 0 90 54 60
        E 0 90 56 60
        E 0 90 60 60
        E 0 90 62 60
        E 0 90 18 60
        E 0 90 1f 60
        E 60 80 3e 00
        E 0 80 48 00
        E 0 80 4a 00
        E 0 80 54 00
        E 0 80 56 00
        E 0 80 60 00
        E 0 80 62 00
        E 0 80 18 00
        E 0 80 1f 00
        E 420 90 3d 60
        E 0 90 3e 60
        E 0 90 49 60
        E 0 90 4a 60
        E 0 90 54 60
        E 0 90 55 60
        E 0 90 56 60
        E 0 90 60 60
        E 0 90 61 60
        E 0 90 62 60
        E 0 90 18 60
        E 0 90 1a 60
        E 0 90 1f 60
        E 60 80 3d 00
        E 0 80 3e 00
        E 0 80 49 00
        E 0 80 4a 00
        E 0 80 54 00
        E 0 80 55 00
        E 0 80 56 00
        E 0 80 60 00
        E 0 80 61 00
        E 0 80 62 00
        E 0 80 18 00
        E 0 80 1a 00
        E 0 80 1f 00
        E 420 90 3e 60
        E 0 90 48 60
        E 0 90 4a 60
        E 0 90 54 60
        E 0 90 56 60
        E 0 90 60 60
        E 0 90 62 60
        E 0 90 18 60
        E 0 90 1f 60
        E 60 80 3e 00
        E 0 80 48 00
        E 0 80 4a 00
        E 0 80 54 00
        E 0 80 56 00
        E 0 80 60 00
        E 0 80 62 00
        E 0 80 18 00
        E 0 80 1f 00
        E 420 90 3d 60
        E 0 90 3e 60
        E 0 90 49 60
        E 0 90 4a 60
        E 0 90 54 60
        E 0 90 55 60
        E 0 90 56 60
        E 0 90 60 60
        E 0 90 61 60
        E 0 90 62 60
        E 0 90 18 60
        E 0 90 1a 60
        E 0 90 1f 60
        E 60 80 3d 00
        E 0 80 3e 00
        E 0 80 49 00
        E 0 80 4a 00
        E 0 80 54 00
        E 0 80 55 00
        E 0 80 56 00
        E 0 80 60 00
        E 0 80 61 00
        E 0 80 62 00
        E 0 80 18 00
        E 0 80 1a 00
        E 0 80 1f 00
        E 420 90 3e 60
        E 0 90 48 60
        E 0 90 4a 60
        E 0 90 54 60
        E 0 90 56 60
        E 0 90 60 60
        E 0 90 62 60
        E 0 90 74 60
        E 0 90 18 60
        E 0 90 1f 60
        E 60 80 3e 00
        E 0 80 48 00
        E 0 80 4a 00
        E 0 80 54 00
        E 0 80 56 00
        E 0 80 60 00
        E 0 80 62 00
        E 0 80 18 00
        E 0 80 1f 00
        E 420 90 40 60
        E 0 90 49 60
        E 0 90 4c 60
        E 0 90 54 60
        E 0 90 55 60
        E 0 90 58 60
        E 0 90 60 60
        E 0 90 61 60
        E 0 90 64 60
        E 0 90 70 60
        E 0 90 18 60
        E 0 90 1a 60
        E 0 90 33 60
        E 60 80 40 00
        E 0 80 49 00
        E 0 80 4c 00
        E 0 80 54 00
        E 0 80 55 00
        E 0 80 58 00
        E 0 80 60 00
        E 0 80 61 00
        E 0 80 64 00
        E 0 80 70 00
        E 0 80 18 00
        E 0 80 1a 00
        E 0 80 33 00
        E 420 90 40 60
        E 0 90 49 60
        E 0 90 4c 60
        E 0 90 54 60
        E 0 90 55 60
        E 0 90 58 60
        E 0 90 60 60
        E 0 90 61 60
        E 0 90 64 60
        E 0 90 70 60
        E 0 90 18 60
        E 0 90 1a 60
        E 0 90 33 60
        E 60 80 40 00
        E 0 80 49 00
        E 0 80 4c 00
        E 0 80 54 00
        E 0 80 55 00
        E 0 80 58 00
        E 0 80 60 00
        E 0 80 61 00
        E 0 80 64 00
        E 0 80 70 00
        E 0 80 18 00
        E 0 80 1a 00
        E 0 80 33 00
        E 420 90 3d 60
        E 0 90 3e 60
        E 0 90 49 60
        E 0 90 4a 60
        E 0 90 54 60
        E 0 90 55 60
        E 0 90 56 60
        E 0 90 60 60
        E 0 90 61 60
        E 0 90 62 60
        E 0 90 18 60
        E 0 90 1a 60
        E 0 90 1f 60
        E 60 80 3d 00
        E 0 80 3e 00
        E 0 80 49 00
        E 0 80 4a 00
        E 0 80 54 00
        E 0 80 55 00
        E 0 80 56 00
        E 0 80 60 00
        E 0 80 61 00
        E 0 80 62 00
        E 0 80 18 00
        E 0 80 1a 00
        E 0 80 1f 00
        E 420 90 3e 60
        E 0 90 48 60
        E 0 90 4a 60
        E 0 90 54 60
        E 0 90 56 60
        E 0 90 60 60
        E 0 90 62 60
        E 0 90 18 60
        E 0 90 1f 60
        E 60 80 3e 00
        E 0 80 48 00
        E 0 80 4a 00
        E 0 80 54 00
        E 0 80 56 00
        E 0 80 60 00
        E 0 80 62 00
        E 0 80 18 00
        E 0 80 1f 00
        E 420 90 3d 60
        E 0 90 3e 60
        E 0 90 49 60
        E 0 90 4a 60
        E 0 90 54 60
        E 0 90 55 60
        E 0 90 56 60
        E 0 90 60 60
        E 0 90 61 60
        E 0 90 62 60
        E 0 90 18 60
        E 0 90 1a 60
        E 0 90 1f 60
        E 60 80 3d 00
        E 0 80 3e 00
        E 0 80 49 00
        E 0 80 4a 00
        E 0 80 54 00
        E 0 80 55 00
        E 0 80 56 00
        E 0 80 60 00
        E 0 80 61 00
        E 0 80 62 00
        E 0 80 18 00
        E 0 80 1a 00
        E 0 80 1f 00
        E 420 90 3e 60
        E 0 90 48 60
        E 0 90 4a 60
        E 0 90 54 60
        E 0 90 56 60
        E 0 90 60 60
        E 0 90 62 60
        E 0 90 18 60
        E 0 90 1f 60
        E 60 80 3e 00
        E 0 80 48 00
        E 0 80 4a 00
        E 0 80 54 00
        E 0 80 56 00
        E 0 80 60 00
        E 0 80 62 00
        E 0 80 18 00
        E 0 80 1f 00
        E 300 90 61 60
        E 0 90 1a 60
        E 60 80 61 00
        E 0 80 1a 00
        E 60 90 3d 60
        E 0 90 49 60
        E 0 90 55 60
        E 0 90 61 60
        E 0 90 1b 60
        E 60 80 3d 00
        E 0 80 49 00
        E 0 80 55 00
        E 0 80 61 00
        E 0 80 1b 00
        E 240 90 61 60
        E 0 90 1a 60
        E 60 80 61 00
        E 0 80 1a 00
        E 120 90 40 60
        E 0 90 48 60
        E 0 90 4c 60
        E 0 90 54 60
        E 0 90 58 60
        E 0 90 60 60
        E 0 90 64 60
        E 0 90 18 60
        E 0 90 26 60
        E 60 80 40 00
        E 0 80 48 00
        E 0 80 4c 00
        E 0 80 54 00
        E 0 80 58 00
        E 0 80 60 00
        E 0 80 64 00
        E 0 80 18 00
        E 0 80 26 00
        E 420 90 3d 60
        E 0 90 3e 60
        E 0 90 49 60
        E 0 90 4a 60
        E 0 90 54 60
        E 0 90 55 60
        E 0 90 56 60
        E 0 90 60 60
        E 0 90 61 60
        E 0 90 62 60
        E 0 90 18 60
        E 0 90 1a 60
        E 0 90 1f 60
        E 60 80 3d 00
        E 0 80 3e 00
        E 0 80 49 00
        E 0 80 4a 00
        E 0 80 54 00
        E 0 80 55 00
        E 0 80 56 00
        E 0 80 60 00
        E 0 80 61 00
        E 0 80 62 00
        E 0 80 18 00
        E 0 80 1a 00
        E 0 80 1f 00
        E 60 80 74 00
        E 360 90 3e 60
        E 0 90 48 60
        E 0 90 4a 60
        E 0 90 54 60
        E 0 90 56 60
        E 0 90 60 60
        E 0 90 62 60
        E 0 90 18 60
        E 0 90 1f 60
        E 60 80 3e 00
        E 0 80 48 00
        E 0 80 4a 00
        E 0 80 54 00
        E 0 80 56 00
        E 0 80 60 00
        E 0 80 62 00
        E 0 80 18 00
        E 0 80 1f 00
        E 420 90 3d 60
        E 0 90 3e 60
        E 0 90 49 60
        E 0 90 4a 60
        E 0 90 54 60
        E 0 90 55 60
        E 0 90 56 60
        E 0 90 60 60
        E 0 90 61 60
        E 0 90 62 60
        E 0 90 18 60
        E 0 90 1a 60
        E 0 90 1f 60
        E 60 80 3d 00
        E 0 80 3e 00
        E 0 80 49 00
        E 0 80 4a 00
        E 0 80 54 00
        E 0 80 55 00
        E 0 80 56 00
        E 0 80 60 00
        E 0 80 61 00
        E 0 80 62 00
        E 0 80 18 00
        E 0 80 1a 00
        E 0 80 1f 00
        E 420 90 3e 60
        E 0 90 48 60
        E 0 90 4a 60
        E 0 90 54 60
        E 0 90 56 60
        E 0 90 60 60
        E 0 90 62 60
        E 0 90 18 60
        E 0 90 1f 60
        E 60 80 3e 00
        E 0 80 48 00
        E 0 80 4a 00
        E 0 80 54 00
        E 0 80 56 00
        E 0 80 60 00
        E 0 80 62 00
        E 0 80 18 00
        E 0 80 1f 00
        E 420 90 3d 60
        E 0 90 3e 60
        E 0 90 49 60
        E 0 90 4a 60
        E 0 90 54 60
        E 0 90 55 60
        E 0 90 56 60
        E 0 90 60 60
        E 0 90 61 60
        E 0 90 62 60
        E 0 90 18 60
        E 0 90 1a 60
        E 0 90 1f 60
        E 60 80 3d 00
        E 0 80 3e 00
        E 0 80 49 00
        E 0 80 4a 00
        E 0 80 54 00
        E 0 80 55 00
        E 0 80 56 00
        E 0 80 60 00
        E 0 80 61 00
        E 0 80 62 00
        E 0 90 78 60
        E 0 90 79 60
        E 0 90 7a 60
        E 0 90 7b 60
        E 0 90 7c 60
        E 0 80 18 00
        E 0 80 1a 00
        E 0 80 1f 00
        E 420 90 3e 60
        E 0 90 48 60
        E 0 90 4a 60
        E 0 90 54 60
        E 0 90 56 60
        E 0 90 60 60
        E 0 90 62 60
        E 0 90 18 60
        E 0 90 1f 60
        E 60 80 3e 00
        E 0 80 48 00
        E 0 80 4a 00
        E 0 80 54 00
        E 0 80 56 00
        E 0 80 60 00
        E 0 80 62 00
        E 0 80 18 00
        E 0 80 1f 00
        E 420 90 3d 60
        E 0 90 3e 60
        E 0 90 49 60
        E 0 90 4a 60
        E 0 90 54 60
        E 0 90 55 60
        E 0 90 56 60
        E 0 90 60 60
        E 0 90 61 60
        E 0 90 62 60
        E 0 90 18 60
        E 0 90 1a 60
        E 0 90 1f 60
        E 60 80 3d 00
        E 0 80 3e 00
        E 0 80 49 00
        E 0 80 4a 00
        E 0 80 54 00
        E 0 80 55 00
        E 0 80 56 00
        E 0 80 60 00
        E 0 80 61 00
        E 0 80 62 00
        E 0 80 18 00
        E 0 80 1a 00
        E 0 80 1f 00
        E 420 90 3e 60
        E 0 90 48 60
        E 0 90 4a 60
        E 0 90 54 60
        E 0 90 56 60
        E 0 90 60 60
        E 0 90 62 60
        E 0 90 18 60
        E 0 90 1f 60
        E 60 80 3e 00
        E 0 80 48 00
        E 0 80 4a 00
        E 0 80 54 00
        E 0 80 56 00
        E 0 80 60 00
        E 0 80 62 00
        E 0 80 18 00
        E 0 80 1f 00
        E 420 90 3d 60
        E 0 90 3e 60
        E 0 90 49 60
        E 0 90 4a 60
        E 0 90 54 60
        E 0 90 55 60
        E 0 90 56 60
        E 0 90 60 60
        E 0 90 61 60
        E 0 90 62 60
        E 0 90 18 60
        E 0 90 1a 60
        E 0 90 1f 60
        E 60 80 3d 00
        E 0 80 3e 00
        E 0 80 49 00
        E 0 80 4a 00
        E 0 80 54 00
        E 0 80 55 00
        E 0 80 56 00
        E 0 80 60 00
        E 0 80 61 00
        E 0 80 62 00
        E 0 80 18 00
        E 0 80 1a 00
        E 0 80 1f 00
        E 420 90 3e 60
        E 0 90 48 60
        E 0 90 4a 60
        E 0 90 54 60
        E 0 90 56 60
        E 0 90 60 60
        E 0 90 62 60
        E 0 90 18 60
        E 0 90 1f 60
        E 60 80 78 00
        E 0 80 79 00
        E 0 80 7a 00
        E 0 80 7b 00
        E 0 80 7c 00
        E 0 80 3e 00
        E 0 80 48 00
        E 0 80 4a 00
        E 0 80 54 00
        E 0 80 56 00
        E 0 80 60 00
        E 0 80 62 00
        E 0 80 18 00
        E 0 80 1f 00
        E 420 90 3d 60
        E 0 90 3e 60
        E 0 90 49 60
        E 0 90 4a 60
        E 0 90 54 60
        E 0 90 55 60
        E 0 90 56 60
        E 0 90 60 60
        E 0 90 61 60
        E 0 90 62 60
        E 0 90 18 60
        E 0 90 1a 60
        E 0 90 1f 60
        E 60 80 3d 00
        E 0 80 3e 00
        E 0 80 49 00
        E 0 80 4a 00
        E 0 80 54 00
        E 0 80 55 00
        E 0 80 56 00
        E 0 80 60 00
        E 0 80 61 00
        E 0 80 62 00
        E 0 80 18 00
        E 0 80 1a 00
        E 0 80 1f 00
        E 240 90 61 60
        E 0 90 1a 60
        E 60 80 61 00
        E 0 80 1a 00
        E 120 90 40 60
        E 0 90 48 60
        E 0 90 4c 60
        E 0 90 54 60
        E 0 90 58 60
        E 0 90 60 60
        E 0 90 64 60
        E 0 90 18 60
        E 0 90 26 60
        E 60 80 40 00
        E 0 80 48 00
        E 0 80 4c 00
        E 0 80 54 00
        E 0 80 58 00
        E 0 80 60 00
        E 0 80 64 00
        E 0 80 18 00
        E 0 80 26 00
        E 420 90 3d 60
        E 0 90 3e 60
        E 0 90 49 60
        E 0 90 4a 60
        E 0 90 54 60
        E 0 90 55 60
        E 0 90 56 60
        E 0 90 60 60
        E 0 90 61 60
        E 0 90 62 60
        E 0 90 18 60
        E 0 90 1a 60
        E 0 90 1f 60
        E 60 80 3d 00
        E 0 80 3e 00
        E 0 80 49 00
        E 0 80 4a 00
        E 0 80 54 00
        E 0 80 55 00
        E 0 80 56 00
        E 0 80 60 00
        E 0 80 61 00
        E 0 80 62 00
        E 0 80 18 00
        E 0 80 1a 00
        E 0 80 1f 00
        E 420 90 40 60
        E 0 90 48 60
        E 0 90 4c 60
        E 0 90 54 60
        E 0 90 58 60
        E 0 90 60 60
        E 0 90 64 60
        E 0 90 18 60
        E 0 90 26 60
        E 60 80 40 00
        E 0 80 48 00
        E 0 80 4c 00
        E 0 80 54 00
        E 0 80 58 00
        E 0 80 60 00
        E 0 80 64 00
        E 0 80 18 00
        E 0 80 26 00
        E 420 90 3d 60
        E 0 90 3e 60
        E 0 90 49 60
        E 0 90 4a 60
        E 0 90 54 60
        E 0 90 55 60
        E 0 90 56 60
        E 0 90 60 60
        E 0 90 61 60
        E 0 90 62 60
        E 0 90 18 60
        E 0 90 1a 60
        E 0 90 1f 60
        E 60 80 3d 00
        E 0 80 3e 00
        E 0 80 49 00
        E 0 80 4a 00
        E 0 80 54 00
        E 0 80 55 00
        E 0 80 56 00
        E 0 80 60 00
        E 0 80 61 00
        E 0 80 62 00
        E 0 80 18 00
        E 0 80 1a 00
        E 0 80 1f 00
        E 240 90 61 60
        E 0 90 1a 60
        E 60 80 61 00
        E 0 80 1a 00
        E 120 90 40 60
        E 0 90 48 60
        E 0 90 4c 60
        E 0 90 54 60
        E 0 90 58 60
        E 0 90 60 60
        E 0 90 64 60
        E 0 90 18 60
        E 0 90 26 60
        E 60 80 40 00
        E 0 80 48 00
        E 0 80 4c 00
        E 0 80 54 00
        E 0 80 58 00
        E 0 80 60 00
        E 0 80 64 00
        E 0 80 18 00
        E 0 80 26 00
        E 420 90 3d 60
        E 0 90 3e 60
        E 0 90 49 60
        E 0 90 4a 60
        E 0 90 54 60
        E 0 90 55 60
        E 0 90 56 60
        E 0 90 60 60
        E 0 90 61 60
        E 0 90 62 60
        E 0 90 18 60
        E 0 90 1a 60
        E 0 90 1f 60
        E 60 80 3d 00
        E 0 80 3e 00
        E 0 80 49 00
        E 0 80 4a 00
        E 0 80 54 00
        E 0 80 55 00
        E 0 80 56 00
        E 0 80 60 00
        E 0 80 61 00
        E 0 80 62 00
        E 0 80 18 00
        E 0 80 1a 00
        E 0 80 1f 00
        E 420 90 3e 60
        E 0 90 48 60
        E 0 90 4a 60
        E 0 90 54 60
        E 0 90 56 60
        E 0 90 60 60
        E 0 90 62 60
        E 0 90 18 60
        E 0 90 1f 60
        E 60 80 3e 00
        E 0 80 48 00
        E 0 80 4a 00
        E 0 80 54 00
        E 0 80 56 00
        E 0 80 60 00
        E 0 80 62 00
        E 0 80 18 00
        E 0 80 1f 00
        E 420 90 3d 60
        E 0 90 3e 60
        E 0 90 49 60
        E 0 90 4a 60
        E 0 90 54 60
        E 0 90 55 60
        E 0 90 56 60
        E 0 90 60 60
        E 0 90 61 60
        E 0 90 62 60
        E 0 90 18 60
        E 0 90 1a 60
        E 0 90 1f 60
        E 60 80 3d 00
        E 0 80 3e 00
        E 0 80 49 00
        E 0 80 4a 00
        E 0 80 54 00
        E 0 80 55 00
        E 0 80 56 00
        E 0 80 60 00
        E 0 80 61 00
        E 0 80 62 00
        E 0 80 18 00
        E 0 80 1a 00
        E 0 80 1f 00
        E 420 90 3e 60
        E 0 90 48 60
        E 0 90 4a 60
        E 0 90 54 60
        E 0 90 56 60
        E 0 90 60 60
        E 0 90 62 60
        E 0 90 18 60
        E 0 90 1f 60
        E 60 80 3e 00
        E 0 80 48 00
        E 0 80 4a 00
        E 0 80 54 00
        E 0 80 56 00
        E 0 80 60 00
        E 0 80 62 00
        E 0 80 18 00
        E 0 80 1f 00
        E 360 90 74 60
        E 60 90 3d 60
        E 0 90 3e 60
        E 0 90 49 60
        E 0 90 4a 60
        E 0 90 54 60
        E 0 90 55 60
        E 0 90 56 60
        E 0 90 60 60
        E 0 90 61 60
        E 0 90 62 60
        E 0 90 18 60
        E 0 90 1a 60
        E 0 90 1f 60
        E 60 80 3d 00
        E 0 80 3e 00
        E 0 80 49 00
        E 0 80 4a 00
        E 0 80 54 00
        E 0 80 55 00
        E 0 80 56 00
        E 0 80 60 00
        E 0 80 61 00
        E 0 80 62 00
        E 0 80 18 00
        E 0 80 1a 00
        E 0 80 1f 00
        E 420 90 3e 60
        E 0 90 48 60
        E 0 90 4a 60
        E 0 90 54 60
        E 0 90 56 60
        E 0 90 60 60
        E 0 90 62 60
        E 0 90 18 60
        E 0 90 1f 60
        E 60 80 3e 00
        E 0 80 48 00
        E 0 80 4a 00
        E 0 80 54 00
        E 0 80 56 00
        E 0 80 60 00
        E 0 80 62 00
        E 0 80 18 00
        E 0 80 1f 00
        E 420 90 3d 60
        E 0 90 3e 60
        E 0 90 49 60
        E 0 90 4a 60
        E 0 90 54 60
        E 0 90 55 60
        E 0 90 56 60
        E 0 90 60 60
        E 0 90 61 60
        E 0 90 62 60
        E 0 90 18 60
        E 0 90 1a 60
        E 0 90 1f 60
        E 60 80 3d 00
        E 0 80 3e 00
        E 0 80 49 00
        E 0 80 4a 00
        E 0 80 54 00
        E 0 80 55 00
        E 0 80 56 00
        E 0 80 60 00
        E 0 80 61 00
        E 0 80 62 00
        E 0 80 18 00
        E 0 80 1a 00
        E 0 80 1f 00
        E 420 90 3e 60
        E 0 90 48 60
        E 0 90 4a 60
        E 0 90 54 60
        E 0 90 56 60
        E 0 90 60 60
        E 0 90 62 60
        E 0 90 18 60
        E 0 90 1f 60
        E 60 80 3e 00
        E 0 80 48 00
        E 0 80 4a 00
        E 0 80 54 00
        E 0 80 56 00
        E 0 80 60 00
        E 0 80 62 00
        E 0 80 18 00
        E 0 80 1f 00
        E 420 90 40 60
        E 0 90 49 60
        E 0 90 4c 60
        E 0 90 54 60
        E 0 90 55 60
        E 0 90 58 60
        E 0 90 60 60
        E 0 90 61 60
        E 0 90 64 60
        E 0 90 70 60
        E 0 90 18 60
        E 0 90 1a 60
        E 0 90 33 60
        E 60 80 40 00
        E 0 80 49 00
        E 0 80 4c 00
        E 0 80 54 00
        E 0 80 55 00
        E 0 80 58 00
        E 0 80 60 00
        E 0 80 61 00
        E 0 80 64 00
        E 0 80 70 00
        E 0 80 18 00
        E 0 80 1a 00
        E 0 80 33 00
        E 420 90 40 60
        E 0 90 49 60
        E 0 90 4c 60
        E 0 90 54 60
        E 0 90 55 60
        E 0 90 58 60
        E 0 90 60 60
        E 0 90 61 60
        E 0 90 64 60
        E 0 90 70 60
        E 0 90 18 60
        E 0 90 1a 60
        E 0 90 33 60
        E 60 80 40 00
        E 0 80 49 00
        E 0 80 4c 00
        E 0 80 54 00
        E 0 80 55 00
        E 0 80 58 00
        E 0 80 60 00
        E 0 80 61 00
        E 0 80 64 00
        E 0 80 70 00
        E 0 80 18 00
        E 0 80 1a 00
        E 0 80 33 00
        E 60 80 74 00
        E 360 90 3d 60
        E 0 90 3e 60
        E 0 90 49 60
        E 0 90 4a 60
        E 0 90 54 60
        E 0 90 55 60
        E 0 90 56 60
        E 0 90 60 60
        E 0 90 61 60
        E 0 90 62 60
        E 0 90 18 60
        E 0 90 1a 60
        E 0 90 1f 60
        E 60 80 3d 00
        E 0 80 3e 00
        E 0 80 49 00
        E 0 80 4a 00
        E 0 80 54 00
        E 0 80 55 00
        E 0 80 56 00
        E 0 80 60 00
        E 0 80 61 00
        E 0 80 62 00
        E 0 80 18 00
        E 0 80 1a 00
        E 0 80 1f 00
        E 420 90 3e 60
        E 0 90 48 60
        E 0 90 4a 60
        E 0 90 54 60
        E 0 90 56 60
        E 0 90 60 60
        E 0 90 62 60
        E 0 90 18 60
        E 0 90 1f 60
        E 60 80 3e 00
        E 0 80 48 00
        E 0 80 4a 00
        E 0 80 54 00
        E 0 80 56 00
        E 0 80 60 00
        E 0 80 62 00
        E 0 80 18 00
        E 0 80 1f 00
        E 420 90 3d 60
        E 0 90 3e 60
        E 0 90 49 60
        E 0 90 4a 60
        E 0 90 54 60
        E 0 90 55 60
        E 0 90 56 60
        E 0 90 60 60
        E 0 90 61 60
        E 0 90 62 60
        E 0 90 18 60
        E 0 90 1a 60
        E 0 90 1f 60
        E 60 80 3d 00
        E 0 80 3e 00
        E 0 80 49 00
        E 0 80 4a 00
        E 0 80 54 00
        E 0 80 55 00
        E 0 80 56 00
        E 0 80 60 00
        E 0 80 61 00
        E 0 80 62 00
        E 0 80 18 00
        E 0 80 1a 00
        E 0 80 1f 00
        E 420 90 3e 60
        E 0 90 48 60
        E 0 90 4a 60
        E 0 90 54 60
        E 0 90 56 60
        E 0 90 60 60
        E 0 90 62 60
        E 0 90 18 60
        E 0 90 1f 60
        E 60 80 3e 00
        E 0 80 48 00
        E 0 80 4a 00
        E 0 80 54 00
        E 0 80 56 00
        E 0 80 60 00
        E 0 80 62 00
        E 0 80 18 00
        E 0 80 1f 00
        E 260 90 61 60
        E 0 90 1a 60
        E 40 80 61 00
        E 0 80 1a 00
        E 120 90 3d 60
        E 0 90 49 60
        E 0 90 55 60
        E 0 90 61 60
        E 0 90 1b 60
        E 40 80 3d 00
        E 0 80 49 00
        E 0 80 55 00
        E 0 80 61 00
        E 0 80 1b 00
        E 120 90 61 60
        E 0 90 1a 60
        E 40 80 61 00
        E 0 80 1a 00
        E 120 90 61 60
        E 0 90 1b 60
        E 40 80 61 00
        E 0 80 1b 00
        E 120 90 40 60
        E 0 90 48 60
        E 0 90 4c 60
        E 0 90 54 60
        E 0 90 58 60
        E 0 90 60 60
        E 0 90 64 60
        E 0 90 18 60
        E 0 90 2c 60
        E 60 80 40 00
        E 0 80 48 00
        E 0 80 4c 00
        E 0 80 54 00
        E 0 80 58 00
        E 0 80 60 00
        E 0 80 64 00
        E 0 80 18 00
        E 0 80 2c 00
        E 420 90 3d 60
        E 0 90 3e 60
        E 0 90 49 60
        E 0 90 4a 60
        E 0 90 54 60
        E 0 90 55 60
        E 0 90 56 60
        E 0 90 60 60
        E 0 90 61 60
        E 0 90 62 60
        E 0 90 18 60
        E 0 90 1a 60
        E 0 90 1f 60
        E 60 80 3d 00
        E 0 80 3e 00
        E 0 80 49 00
        E 0 80 4a 00
        E 0 80 54 00
        E 0 80 55 00
        E 0 80 56 00
        E 0 80 60 00
        E 0 80 61 00
        E 0 80 62 00
        E 0 80 18 00
        E 0 80 1a 00
        E 0 80 1f 00
        E 420 90 3e 60
        E 0 90 48 60
        E 0 90 4a 60
        E 0 90 54 60
        E 0 90 56 60
        E 0 90 60 60
        E 0 90 62 60
        E 0 90 18 60
        E 0 90 1f 60
        E 60 80 3e 00
        E 0 80 48 00
        E 0 80 4a 00
        E 0 80 54 00
        E 0 80 56 00
        E 0 80 60 00
        E 0 80 62 00
        E 0 80 18 00
        E 0 80 1f 00
        E 420 90 3d 60
        E 0 90 3e 60
        E 0 90 49 60
        E 0 90 4a 60
        E 0 90 54 60
        E 0 90 55 60
        E 0 90 56 60
        E 0 90 60 60
        E 0 90 61 60
        E 0 90 62 60
        E 0 90 18 60
        E 0 90 1a 60
        E 0 90 1f 60
        E 60 80 3d 00
        E 0 80 3e 00
        E 0 80 49 00
        E 0 80 4a 00
        E 0 80 54 00
        E 0 80 55 00
        E 0 80 56 00
        E 0 80 60 00
        E 0 80 61 00
        E 0 80 62 00
        E 0 80 18 00
        E 0 80 1a 00
        E 0 80 1f 00
        E 420 90 3e 60
        E 0 90 48 60
        E 0 90 4a 60
        E 0 90 54 60
        E 0 90 56 60
        E 0 90 60 60
        E 0 90 62 60
        E 0 90 18 60
        E 0 90 1f 60
        E 60 80 3e 00
        E 0 80 48 00
        E 0 80 4a 00
        E 0 80 54 00
        E 0 80 56 00
        E 0 80 60 00
        E 0 80 62 00
        E 0 80 18 00
        E 0 80 1f 00
        E 420 90 3d 60
        E 0 90 3e 60
        E 0 90 49 60
        E 0 90 4a 60
        E 0 90 54 60
        E 0 90 55 60
        E 0 90 56 60
        E 0 90 60 60
        E 0 90 61 60
        E 0 90 62 60
        E 0 90 18 60
        E 0 90 1a 60
        E 0 90 1f 60
        E 60 80 3d 00
        E 0 80 3e 00
        E 0 80 49 00
        E 0 80 4a 00
        E 0 80 54 00
        E 0 80 55 00
        E 0 80 56 00
        E 0 80 60 00
        E 0 80 61 00
        E 0 80 62 00
        E 0 80 18 00
        E 0 80 1a 00
        E 0 80 1f 00
        E 420 90 3e 60
        E 0 90 48 60
        E 0 90 4a 60
        E 0 90 54 60
        E 0 90 56 60
        E 0 90 60 60
        E 0 90 62 60
        E 0 90 18 60
        E 0 90 1f 60
        E 60 80 3e 00
        E 0 80 48 00
        E 0 80 4a 00
        E 0 80 54 00
        E 0 80 56 00
        E 0 80 60 00
        E 0 80 62 00
        E 0 80 18 00
        E 0 80 1f 00
        E 420 90 3d 60
        E 0 90 3e 60
        E 0 90 49 60
        E 0 90 4a 60
        E 0 90 54 60
        E 0 90 55 60
        E 0 90 56 60
        E 0 90 60 60
        E 0 90 61 60
        E 0 90 62 60
        E 0 90 18 60
        E 0 90 1a 60
        E 0 90 1f 60
        E 60 80 3d 00
        E 0 80 3e 00
        E 0 80 49 00
        E 0 80 4a 00
        E 0 80 54 00
        E 0 80 55 00
        E 0 80 56 00
        E 0 80 60 00
        E 0 80 61 00
        E 0 80 62 00
        E 0 80 18 00
        E 0 80 1a 00
        E 0 80 1f 00
        E 420 90 3e 60
        E 0 90 48 60
        E 0 90 4a 60
        E 0 90 54 60
        E 0 90 56 60
        E 0 90 60 60
        E 0 90 62 60
        E 0 90 18 60
        E 0 90 1f 60
        E 60 80 3e 00
        E 0 80 48 00
        E 0 80 4a 00
        E 0 80 54 00
        E 0 80 56 00
        E 0 80 60 00
        E 0 80 62 00
        E 0 80 18 00
        E 0 80 1f 00
        E 420 90 3d 60
        E 0 90 3e 60
        E 0 90 49 60
        E 0 90 4a 60
        E 0 90 54 60
        E 0 90 55 60
        E 0 90 56 60
        E 0 90 60 60
        E 0 90 61 60
        E 0 90 62 60
        E 0 90 18 60
        E 0 90 1a 60
        E 0 90 1f 60
        E 60 80 3d 00
        E 0 80 3e 00
        E 0 80 49 00
        E 0 80 4a 00
        E 0 80 54 00
        E 0 80 55 00
        E 0 80 56 00
        E 0 80 60 00
        E 0 80 61 00
        E 0 80 62 00
        E 0 80 18 00
        E 0 80 1a 00
        E 0 80 1f 00
        E 420 90 3e 60
        E 0 90 48 60
        E 0 90 4a 60
        E 0 90 54 60
        E 0 90 56 60
        E 0 90 60 60
        E 0 90 62 60
        E 0 90 18 60
        E 0 90 1f 60
        E 60 80 3e 00
        E 0 80 48 00
        E 0 80 4a 00
        E 0 80 54 00
        E 0 80 56 00
        E 0 80 60 00
        E 0 80 62 00
        E 0 80 18 00
        E 0 80 1f 00
        E 420 90 3d 60
        E 0 90 3e 60
        E 0 90 49 60
        E 0 90 4a 60
        E 0 90 54 60
        E 0 90 55 60
        E 0 90 56 60
        E 0 90 60 60
        E 0 90 61 60
        E 0 90 62 60
        E 0 90 18 60
        E 0 90 1a 60
        E 0 90 1f 60
        E 60 80 3d 00
        E 0 80 3e 00
        E 0 80 49 00
        E 0 80 4a 00
        E 0 80 54 00
        E 0 80 55 00
        E 0 80 56 00
        E 0 80 60 00
        E 0 80 61 00
        E 0 80 62 00
        E 0 80 18 00
        E 0 80 1a 00
        E 0 80 1f 00
        E 420 90 3e 60
        E 0 90 48 60
        E 0 90 4a 60
        E 0 90 54 60
        E 0 90 56 60
        E 0 90 60 60
        E 0 90 62 60
        E 0 90 18 60
        E 0 90 1f 60
        E 60 80 3e 00
        E 0 80 48 00
        E 0 80 4a 00
        E 0 80 54 00
        E 0 80 56 00
        E 0 80 60 00
        E 0 80 62 00
        E 0 80 18 00
        E 0 80 1f 00
        E 420 90 3d 60
        E 0 90 3e 60
        E 0 90 49 60
        E 0 90 4a 60
        E 0 90 54 60
        E 0 90 55 60
        E 0 90 56 60
        E 0 90 60 60
        E 0 90 61 60
        E 0 90 62 60
        E 0 90 18 60
        E 0 90 1a 60
        E 0 90 1f 60
        E 60 80 3d 00
        E 0 80 3e 00
        E 0 80 49 00
        E 0 80 4a 00
        E 0 80 54 00
        E 0 80 55 00
        E 0 80 56 00
        E 0 80 60 00
        E 0 80 61 00
        E 0 80 62 00
        E 0 80 18 00
        E 0 80 1a 00
        E 0 80 1f 00
        E 420 90 3e 60
        E 0 90 48 60
        E 0 90 4a 60
        E 0 90 54 60
        E 0 90 56 60
        E 0 90 60 60
        E 0 90 62 60
        E 0 90 18 60
        E 0 90 1f 60
        E 60 80 3e 00
        E 0 80 48 00
        E 0 80 4a 00
        E 0 80 54 00
        E 0 80 56 00
        E 0 80 60 00
        E 0 80 62 00
        E 0 80 18 00
        E 0 80 1f 00
        E 420 90 40 60
        E 0 90 48 60
        E 0 90 4c 60
        E 0 90 54 60
        E 0 90 58 60
        E 0 90 60 60
        E 0 90 64 60
        E 0 90 18 60
        E 0 90 26 60
        E 60 80 40 00
        E 0 80 48 00
        E 0 80 4c 00
        E 0 80 54 00
        E 0 80 58 00
        E 0 80 60 00
        E 0 80 64 00
        E 0 80 18 00
        E 0 80 26 00
        E 240 90 61 60
        E 0 90 1a 60
        E 60 80 61 00
        E 0 80 1a 00
        E 120 90 40 60
        E 0 90 48 60
        E 0 90 4c 60
        E 0 90 54 60
        E 0 90 58 60
        E 0 90 60 60
        E 0 90 64 60
        E 0 90 18 60
        E 0 90 26 60
        E 60 80 40 00
        E 0 80 48 00
        E 0 80 4c 00
        E 0 80 54 00
        E 0 80 58 00
        E 0 80 60 00
        E 0 80 64 00
        E 0 80 18 00
        E 0 80 26 00
        E 420 90 3d 60
        E 0 90 3e 60
        E 0 90 49 60
        E 0 90 4a 60
        E 0 90 54 60
        E 0 90 55 60
        E 0 90 56 60
        E 0 90 60 60
        E 0 90 61 60
        E 0 90 62 60
        E 0 90 18 60
        E 0 90 1a 60
        E 0 90 1f 60
        E 60 80 3d 00
        E 0 80 3e 00
        E 0 80 49 00
        E 0 80 4a 00
        E 0 80 54 00
        E 0 80 55 00
        E 0 80 56 00
        E 0 80 60 00
        E 0 80 61 00
        E 0 80 62 00
        E 0 90 78 60
        E 0 90 79 60
        E 0 90 7a 60
        E 0 90 7b 60
        E 0 90 7c 60
        E 0 80 18 00
        E 0 80 1a 00
        E 0 80 1f 00
        E 420 90 3e 60
        E 0 90 48 60
        E 0 90 4a 60
        E 0 90 54 60
        E 0 90 56 60
        E 0 90 60 60
        E 0 90 62 60
        E 0 90 18 60
        E 0 90 1f 60
        E 60 80 3e 00
        E 0 80 48 00
        E 0 80 4a 00
        E 0 80 54 00
        E 0 80 56 00
        E 0 80 60 00
        E 0 80 62 00
        E 0 80 18 00
        E 0 80 1f 00
        E 420 90 3d 60
        E 0 90 3e 60
        E 0 90 49 60
        E 0 90 4a 60
        E 0 90 54 60
        E 0 90 55 60
        E 0 90 56 60
        E 0 90 60 60
        E 0 90 61 60
        E 0 90 62 60
        E 0 90 18 60
        E 0 90 1a 60
        E 0 90 1f 60
        E 60 80 3d 00
        E 0 80 3e 00
        E 0 80 49 00
        E 0 80 4a 00
        E 0 80 54 00
        E 0 80 55 00
        E 0 80 56 00
        E 0 80 60 00
        E 0 80 61 00
        E 0 80 62 00
        E 0 80 18 00
        E 0 80 1a 00
        E 0 80 1f 00
        E 420 90 3e 60
        E 0 90 48 60
        E 0 90 4a 60
        E 0 90 54 60
        E 0 90 56 60
        E 0 90 60 60
        E 0 90 62 60
        E 0 90 18 60
        E 0 90 1f 60
        E 60 80 3e 00
        E 0 80 48 00
        E 0 80 4a 00
        E 0 80 54 00
        E 0 80 56 00
        E 0 80 60 00
        E 0 80 62 00
        E 0 80 18 00
        E 0 80 1f 00
        E 420 90 3d 60
        E 0 90 3e 60
        E 0 90 49 60
        E 0 90 4a 60
        E 0 90 54 60
        E 0 90 55 60
        E 0 90 56 60
        E 0 90 60 60
        E 0 90 61 60
        E 0 90 62 60
        E 0 90 18 60
        E 0 90 1a 60
        E 0 90 1f 60
        E 60 80 3d 00
        E 0 80 3e 00
        E 0 80 49 00
        E 0 80 4a 00
        E 0 80 54 00
        E 0 80 55 00
        E 0 80 56 00
        E 0 80 60 00
        E 0 80 61 00
        E 0 80 62 00
        E 0 80 18 00
        E 0 80 1a 00
        E 0 80 1f 00
        E 420 90 3e 60
        E 0 90 48 60
        E 0 90 4a 60
        E 0 90 54 60
        E 0 90 56 60
        E 0 90 60 60
        E 0 90 62 60
        E 0 90 18 60
        E 0 90 1f 60
        E 60 80 78 00
        E 0 80 79 00
        E 0 80 7a 00
        E 0 80 7b 00
        E 0 80 7c 00
        E 0 80 3e 00
        E 0 80 48 00
        E 0 80 4a 00
        E 0 80 54 00
        E 0 80 56 00
        E 0 80 60 00
        E 0 80 62 00
        E 0 80 18 00
        E 0 80 1f 00
        E 420 90 3d 60
        E 0 90 3e 60
        E 0 90 49 60
        E 0 90 4a 60
        E 0 90 54 60
        E 0 90 55 60
        E 0 90 56 60
        E 0 90 60 60
        E 0 90 61 60
        E 0 90 62 60
        E 0 90 18 60
        E 0 90 1a 60
        E 0 90 1f 60
        E 60 80 3d 00
        E 0 80 3e 00
        E 0 80 49 00
        E 0 80 4a 00
        E 0 80 54 00
        E 0 80 55 00
        E 0 80 56 00
        E 0 80 60 00
        E 0 80 61 00
        E 0 80 62 00
        E 0 80 18 00
        E 0 80 1a 00
        E 0 80 1f 00
        E 420 90 3e 60
        E 0 90 48 60
        E 0 90 4a 60
        E 0 90 54 60
        E 0 90 56 60
        E 0 90 60 60
        E 0 90 62 60
        E 0 90 18 60
        E 0 90 1f 60
        E 60 80 3e 00
        E 0 80 48 00
        E 0 80 4a 00
        E 0 80 54 00
        E 0 80 56 00
        E 0 80 60 00
        E 0 80 62 00
        E 0 80 18 00
        E 0 80 1f 00
        E 420 90 3d 60
        E 0 90 3e 60
        E 0 90 49 60
        E 0 90 4a 60
        E 0 90 54 60
        E 0 90 55 60
        E 0 90 56 60
        E 0 90 60 60
        E 0 90 61 60
        E 0 90 62 60
        E 0 90 18 60
        E 0 90 1a 60
        E 0 90 1f 60
        E 60 80 3d 00
        E 0 80 3e 00
        E 0 80 49 00
        E 0 80 4a 00
        E 0 80 54 00
        E 0 80 55 00
        E 0 80 56 00
        E 0 80 60 00
        E 0 80 61 00
        E 0 80 62 00
        E 0 80 18 00
        E 0 80 1a 00
        E 0 80 1f 00
        E 420 90 3e 60
        E 0 90 48 60
        E 0 90 4a 60
        E 0 90 54 60
        E 0 90 56 60
        E 0 90 60 60
        E 0 90 62 60
        E 0 90 18 60
        E 0 90 1f 60
        E 60 80 3e 00
        E 0 80 48 00
        E 0 80 4a 00
        E 0 80 54 00
        E 0 80 56 00
        E 0 80 60 00
        E 0 80 62 00
        E 0 80 18 00
        E 0 80 1f 00
        E 420 90 3d 60
        E 0 90 49 60
        E 0 90 54 60
        E 0 90 55 60
        E 0 90 60 60
        E 0 90 61 60
        E 0 90 18 60
        E 0 90 1a 60
        E 60 80 3d 00
        E 0 80 49 00
        E 0 80 54 00
        E 0 80 55 00
        E 0 80 60 00
        E 0 80 61 00
        E 0 80 18 00
        E 0 80 1a 00
        E 60 90 74 60
        E 180 90 61 60
        E 0 90 1a 60
        E 60 80 61 00
        E 0 80 1a 00
        E 120 90 3d 60
        E 0 90 49 60
        E 0 90 54 60
        E 0 90 55 60
        E 0 90 60 60
        E 0 90 61 60
        E 0 90 18 60
        E 0 90 1b 60
        E 60 80 3d 00
        E 0 80 49 00
        E 0 80 54 00
        E 0 80 55 00
        E 0 80 60 00
        E 0 80 61 00
        E 0 80 18 00
        E 0 80 1b 00
        E 240 90 61 60
        E 0 90 1a 60
        E 60 80 61 00
        E 0 80 1a 00
        E 120 90 3d 60
        E 0 90 49 60
        E 0 90 54 60
        E 0 90 55 60
        E 0 90 60 60
        E 0 90 61 60
        E 0 90 18 60
        E 0 90 1b 60
        E 60 80 3d 00
        E 0 80 49 00
        E 0 80 54 00
        E 0 80 55 00
        E 0 80 60 00
        E 0 80 61 00
        E 0 80 18 00
        E 0 80 1b 00
        E 240 90 61 60
        E 0 90 1a 60
        E 60 80 61 00
        E 0 80 1a 00
        E 120 90 3d 60
        E 0 90 49 60
        E 0 90 54 60
        E 0 90 55 60
        E 0 90 60 60
        E 0 90 61 60
        E 0 90 18 60
        E 0 90 1b 60
        E 60 80 3d 00
        E 0 80 49 00
        E 0 80 54 00
        E 0 80 55 00
        E 0 80 60 00
        E 0 80 61 00
        E 0 80 18 00
        E 0 80 1b 00
        E 240 90 61 60
        E 0 90 1a 60
        E 60 80 61 00
        E 0 80 1a 00
        E 120 90 3d 60
        E 0 90 49 60
        E 0 90 54 60
        E 0 90 55 60
        E 0 90 60 60
        E 0 90 61 60
        E 0 90 18 60
        E 0 90 1b 60
        E 60 80 3d 00
        E 0 80 49 00
        E 0 80 54 00
        E 0 80 55 00
        E 0 80 60 00
        E 0 80 61 00
        E 0 80 18 00
        E 0 80 1b 00
        E 240 90 61 60
        E 0 90 1a 60
        E 60 80 61 00
        E 0 80 1a 00
        E 120 90 3d 60
        E 0 90 49 60
        E 0 90 54 60
        E 0 90 55 60
        E 0 90 60 60
        E 0 90 61 60
        E 0 90 18 60
        E 0 90 1b 60
        E 60 80 3d 00
        E 0 80 49 00
        E 0 80 54 00
        E 0 80 55 00
        E 0 80 60 00
        E 0 80 61 00
        E 0 80 18 00
        E 0 80 1b 00
        E 240 90 61 60
        E 0 90 1a 60
        E 60 80 61 00
        E 0 80 1a 00
        E 120 90 3d 60
        E 0 90 49 60
        E 0 90 54 60
        E 0 90 55 60
        E 0 90 60 60
        E 0 90 61 60
        E 0 90 18 60
        E 0 90 1b 60
        E 60 80 3d 00
        E 0 80 49 00
        E 0 80 54 00
        E 0 80 55 00
        E 0 80 60 00
        E 0 80 61 00
        E 0 80 18 00
        E 0 80 1b 00
        E 240 90 61 60
        E 0 90 1a 60
        E 60 80 61 00
        E 0 80 1a 00
        E 120 90 3d 60
        E 0 90 49 60
        E 0 90 54 60
        E 0 90 55 60
        E 0 90 60 60
        E 0 90 61 60
        E 0 90 18 60
        E 0 90 1b 60
        E 60 80 3d 00
        E 0 80 49 00
        E 0 80 54 00
        E 0 80 55 00
        E 0 80 60 00
        E 0 80 61 00
        E 0 80 18 00
        E 0 80 1b 00
        E 240 90 61 60
        E 0 90 1a 60
        E 60 80 61 00
        E 0 80 1a 00
        E 120 90 3d 60
        E 0 90 49 60
        E 0 90 54 60
        E 0 90 55 60
        E 0 90 60 60
        E 0 90 61 60
        E 0 90 18 60
        E 0 90 1b 60
        E 60 80 3d 00
        E 0 80 49 00
        E 0 80 54 00
        E 0 80 55 00
        E 0 80 60 00
        E 0 80 61 00
        E 0 80 18 00
        E 0 80 1b 00
        E 240 90 61 60
        E 0 90 1a 60
        E 60 80 61 00
        E 0 80 1a 00
        E 120 90 40 60
        E 0 90 48 60
        E 0 90 4c 60
        E 0 90 54 60
        E 0 90 58 60
        E 0 90 60 60
        E 0 90 64 60
        E 0 90 18 60
        E 0 90 26 60
        E 60 80 40 00
        E 0 80 48 00
        E 0 80 4c 00
        E 0 80 54 00
        E 0 80 58 00
        E 0 80 60 00
        E 0 80 64 00
        E 0 80 18 00
        E 0 80 26 00
        E 300 80 74 00
        E 120 90 3d 60
        E 0 90 3e 60
        E 0 90 49 60
        E 0 90 4a 60
        E 0 90 54 60
        E 0 90 55 60
        E 0 90 56 60
        E 0 90 60 60
        E 0 90 61 60
        E 0 90 62 60
        E 0 90 18 60
        E 0 90 1a 60
        E 0 90 1f 60
        E 60 80 3d 00
        E 0 80 3e 00
        E 0 80 49 00
        E 0 80 4a 00
        E 0 80 54 00
        E 0 80 55 00
        E 0 80 56 00
        E 0 80 60 00
        E 0 80 61 00
        E 0 80 62 00
        E 0 80 18 00
        E 0 80 1a 00
        E 0 80 1f 00
        E 420 90 3e 60
        E 0 90 48 60
        E 0 90 4a 60
        E 0 90 54 60
        E 0 90 56 60
        E 0 90 60 60
        E 0 90 62 60
        E 0 90 18 60
        E 0 90 1f 60
        E 60 80 3e 00
        E 0 80 48 00
        E 0 80 4a 00
        E 0 80 54 00
        E 0 80 56 00
        E 0 80 60 00
        E 0 80 62 00
        E 0 80 18 00
        E 0 80 1f 00
        E 420 90 3d 60
        E 0 90 3e 60
        E 0 90 49 60
        E 0 90 4a 60
        E 0 90 54 60
        E 0 90 55 60
        E 0 90 56 60
        E 0 90 60 60
        E 0 90 61 60
        E 0 90 62 60
        E 0 90 18 60
        E 0 90 1a 60
        E 0 90 1f 60
        E 60 80 3d 00
        E 0 80 3e 00
        E 0 80 49 00
        E 0 80 4a 00
        E 0 80 54 00
        E 0 80 55 00
        E 0 80 56 00
        E 0 80 60 00
        E 0 80 61 00
        E 0 80 62 00
        E 0 80 18 00
        E 0 80 1a 00
        E 0 80 1f 00
        E 240 90 61 60
        E 0 90 1a 60
        E 60 80 61 00
        E 0 80 1a 00
        E 120 90 3d 60
        E 0 90 3e 60
        E 0 90 49 60
        E 0 90 4a 60
        E 0 90 54 60
        E 0 90 55 60
        E 0 90 56 60
        E 0 90 60 60
        E 0 90 61 60
        E 0 90 62 60
        E 0 90 18 60
        E 0 90 1a 60
        E 0 90 1f 60
        E 60 80 3d 00
        E 0 80 3e 00
        E 0 80 49 00
        E 0 80 4a 00
        E 0 80 54 00
        E 0 80 55 00
        E 0 80 56 00
        E 0 80 60 00
        E 0 80 61 00
        E 0 80 62 00
        E 0 80 18 00
        E 0 80 1a 00
        E 0 80 1f 00
        E 240 90 61 60
        E 0 90 1a 60
        E 60 80 61 00
        E 0 80 1a 00
        E 120 90 3d 60
        E 0 90 3e 60
        E 0 90 49 60
        E 0 90 4a 60
        E 0 90 54 60
        E 0 90 55 60
        E 0 90 56 60
        E 0 90 60 60
        E 0 90 61 60
        E 0 90 62 60
        E 0 90 18 60
        E 0 90 1a 60
        E 0 90 1f 60
        E 60 80 3d 00
        E 0 80 3e 00
        E 0 80 49 00
        E 0 80 4a 00
        E 0 80 54 00
        E 0 80 55 00
        E 0 80 56 00
        E 0 80 60 00
        E 0 80 61 00
        E 0 80 62 00
        E 0 80 18 00
        E 0 80 1a 00
        E 0 80 1f 00
        E 240 90 61 60
        E 0 90 1a 60
        E 60 80 61 00
        E 0 80 1a 00
        E 120 90 3d 60
        E 0 90 3e 60
        E 0 90 49 60
        E 0 90 4a 60
        E 0 90 54 60
        E 0 90 55 60
        E 0 90 56 60
        E 0 90 60 60
        E 0 90 61 60
        E 0 90 62 60
        E 0 90 18 60
        E 0 90 1a 60
        E 0 90 1f 60
        E 60 80 3d 00
        E 0 80 3e 00
        E 0 80 49 00
        E 0 80 4a 00
        E 0 80 54 00
        E 0 80 55 00
        E 0 80 56 00
        E 0 80 60 00
        E 0 80 61 00
        E 0 80 62 00
        E 0 80 18 00
        E 0 80 1a 00
        E 0 80 1f 00
        E 420 90 40 60
        E 0 90 48 60
        E 0 90 4c 60
        E 0 90 54 60
        E 0 90 58 60
        E 0 90 60 60
        E 0 90 64 60
        E 0 90 18 60
        E 0 90 26 60
        E 60 80 40 00
        E 0 80 48 00
        E 0 80 4c 00
        E 0 80 54 00
        E 0 80 58 00
        E 0 80 60 00
        E 0 80 64 00
        E 0 80 18 00
        E 0 80 26 00
        E 420 90 40 60
        E 0 90 48 60
        E 0 90 4c 60
        E 0 90 54 60
        E 0 90 58 60
        E 0 90 60 60
        E 0 90 64 60
        E 0 90 18 60
        E 0 90 26 60
        E 60 80 40 00
        E 0 80 48 00
        E 0 80 4c 00
        E 0 80 54 00
        E 0 80 58 00
        E 0 80 60 00
        E 0 80 64 00
        E 0 80 18 00
        E 0 80 26 00
        E 420 90 3d 60
        E 0 90 3e 60
        E 0 90 49 60
        E 0 90 4a 60
        E 0 90 54 60
        E 0 90 55 60
        E 0 90 56 60
        E 0 90 60 60
        E 0 90 61 60
        E 0 90 62 60
        E 0 90 18 60
        E 0 90 1a 60
        E 0 90 1f 60
        E 60 80 3d 00
        E 0 80 3e 00
        E 0 80 49 00
        E 0 80 4a 00
        E 0 80 54 00
        E 0 80 55 00
        E 0 80 56 00
        E 0 80 60 00
        E 0 80 61 00
        E 0 80 62 00
        E 0 80 18 00
        E 0 80 1a 00
        E 0 80 1f 00
        E 420 90 3e 60
        E 0 90 48 60
        E 0 90 4a 60
        E 0 90 54 60
        E 0 90 56 60
        E 0 90 60 60
        E 0 90 62 60
        E 0 90 18 60
        E 0 90 1f 60
        E 60 80 3e 00
        E 0 80 48 00
        E 0 80 4a 00
        E 0 80 54 00
        E 0 80 56 00
        E 0 80 60 00
        E 0 80 62 00
        E 0 80 18 00
        E 0 80 1f 00
        E 420 90 3d 60
        E 0 90 3e 60
        E 0 90 49 60
        E 0 90 4a 60
        E 0 90 54 60
        E 0 90 55 60
        E 0 90 56 60
        E 0 90 60 60
        E 0 90 61 60
        E 0 90 62 60
        E 0 90 18 60
        E 0 90 1a 60
        E 0 90 1f 60
        E 60 80 3d 00
        E 0 80 3e 00
        E 0 80 49 00
        E 0 80 4a 00
        E 0 80 54 00
        E 0 80 55 00
        E 0 80 56 00
        E 0 80 60 00
        E 0 80 61 00
        E 0 80 62 00
        E 0 80 18 00
        E 0 80 1a 00
        E 0 80 1f 00
        E 420 90 3e 60
        E 0 90 48 60
        E 0 90 4a 60
        E 0 90 54 60
        E 0 90 56 60
        E 0 90 60 60
        E 0 90 62 60
        E 0 90 18 60
        E 0 90 1f 60
        E 60 80 3e 00
        E 0 80 48 00
        E 0 80 4a 00
        E 0 80 54 00
        E 0 80 56 00
        E 0 80 60 00
        E 0 80 62 00
        E 0 80 18 00
        E 0 80 1f 00
        E 420 90 3d 60
        E 0 90 3e 60
        E 0 90 49 60
        E 0 90 4a 60
        E 0 90 54 60
        E 0 90 55 60
        E 0 90 56 60
        E 0 90 60 60
        E 0 90 61 60
        E 0 90 62 60
        E 0 90 18 60
        E 0 90 1a 60
        E 0 90 1f 60
        E 60 80 3d 00
        E 0 80 3e 00
        E 0 80 49 00
        E 0 80 4a 00
        E 0 80 54 00
        E 0 80 55 00
        E 0 80 56 00
        E 0 80 60 00
        E 0 80 61 00
        E 0 80 62 00
        E 0 80 18 00
        E 0 80 1a 00
        E 0 80 1f 00
        E 420 90 3e 60
        E 0 90 48 60
        E 0 90 4a 60
        E 0 90 54 60
        E 0 90 56 60
        E 0 90 60 60
        E 0 90 62 60
        E 0 90 18 60
        E 0 90 1f 60
        E 60 80 3e 00
        E 0 80 48 00
        E 0 80 4a 00
        E 0 80 54 00
        E 0 80 56 00
        E 0 80 60 00
        E 0 80 62 00
        E 0 80 18 00
        E 0 80 1f 00
        E 420 90 3d 60
        E 0 90 3e 60
        E 0 90 49 60
        E 0 90 4a 60
        E 0 90 54 60
        E 0 90 55 60
        E 0 90 56 60
        E 0 90 60 60
        E 0 90 61 60
        E 0 90 62 60
        E 0 90 18 60
        E 0 90 1a 60
        E 0 90 1f 60
        E 60 80 3d 00
        E 0 80 3e 00
        E 0 80 49 00
        E 0 80 4a 00
        E 0 80 54 00
        E 0 80 55 00
        E 0 80 56 00
        E 0 80 60 00
        E 0 80 61 00
        E 0 80 62 00
        E 0 80 18 00
        E 0 80 1a 00
        E 0 80 1f 00
        E 420 90 3e 60
        E 0 90 48 60
        E 0 90 4a 60
        E 0 90 54 60
        E 0 90 56 60
        E 0 90 60 60
        E 0 90 62 60
        E 0 90 18 60
        E 0 90 1f 60
        E 60 80 3e 00
        E 0 80 48 00
        E 0 80 4a 00
        E 0 80 54 00
        E 0 80 56 00
        E 0 80 60 00
        E 0 80 62 00
        E 0 80 18 00
        E 0 80 1f 00
        E 420 90 3d 60
        E 0 90 3e 60
        E 0 90 49 60
        E 0 90 4a 60
        E 0 90 54 60
        E 0 90 55 60
        E 0 90 56 60
        E 0 90 60 60
        E 0 90 61 60
        E 0 90 62 60
        E 0 90 18 60
        E 0 90 1a 60
        E 0 90 1f 60
        E 60 80 3d 00
        E 0 80 3e 00
        E 0 80 49 00
        E 0 80 4a 00
        E 0 80 54 00
        E 0 80 55 00
        E 0 80 56 00
        E 0 80 60 00
        E 0 80 61 00
        E 0 80 62 00
        E 0 80 18 00
        E 0 80 1a 00
        E 0 80 1f 00
        E 420 90 3e 60
        E 0 90 48 60
        E 0 90 4a 60
        E 0 90 54 60
        E 0 90 56 60
        E 0 90 60 60
        E 0 90 62 60
        E 0 90 18 60
        E 0 90 1f 60
        E 60 80 3e 00
        E 0 80 48 00
        E 0 80 4a 00
        E 0 80 54 00
        E 0 80 56 00
        E 0 80 60 00
        E 0 80 62 00
        E 0 80 18 00
        E 0 80 1f 00
        E 420 90 3d 60
        E 0 90 3e 60
        E 0 90 49 60
        E 0 90 4a 60
        E 0 90 54 60
        E 0 90 55 60
        E 0 90 56 60
        E 0 90 60 60
        E 0 90 61 60
        E 0 90 62 60
        E 0 90 18 60
        E 0 90 1a 60
        E 0 90 1f 60
        E 60 80 3d 00
        E 0 80 3e 00
        E 0 80 49 00
        E 0 80 4a 00
        E 0 80 54 00
        E 0 80 55 00
        E 0 80 56 00
        E 0 80 60 00
        E 0 80 61 00
        E 0 80 62 00
        E 0 90 78 60
        E 0 90 79 60
        E 0 90 7a 60
        E 0 90 7b 60
        E 0 90 7c 60
        E 0 80 18 00
        E 0 80 1a 00
        E 0 80 1f 00
        E 420 90 3e 60
        E 0 90 48 60
        E 0 90 4a 60
        E 0 90 54 60
        E 0 90 56 60
        E 0 90 60 60
        E 0 90 62 60
        E 0 90 18 60
        E 0 90 1f 60
        E 60 80 3e 00
        E 0 80 48 00
        E 0 80 4a 00
        E 0 80 54 00
        E 0 80 56 00
        E 0 80 60 00
        E 0 80 62 00
        E 0 80 18 00
        E 0 80 1f 00
        E 420 90 3d 60
        E 0 90 3e 60
        E 0 90 49 60
        E 0 90 4a 60
        E 0 90 54 60
        E 0 90 55 60
        E 0 90 56 60
        E 0 90 60 60
        E 0 90 61 60
        E 0 90 62 60
        E 0 90 18 60
        E 0 90 1a 60
        E 0 90 1f 60
        E 60 80 3d 00
        E 0 80 3e 00
        E 0 80 49 00
        E 0 80 4a 00
        E 0 80 54 00
        E 0 80 55 00
        E 0 80 56 00
        E 0 80 60 00
        E 0 80 61 00
        E 0 80 62 00
        E 0 80 18 00
        E 0 80 1a 00
        E 0 80 1f 00
        E 420 90 3e 60
        E 0 90 48 60
        E 0 90 4a 60
        E 0 90 54 60
        E 0 90 56 60
        E 0 90 60 60
        E 0 90 62 60
        E 0 90 18 60
        E 0 90 1f 60
        E 60 80 3e 00
        E 0 80 48 00
        E 0 80 4a 00
        E 0 80 54 00
        E 0 80 56 00
        E 0 80 60 00
        E 0 80 62 00
        E 0 80 18 00
        E 0 80 1f 00
        E 420 90 3d 60
        E 0 90 3e 60
        E 0 90 49 60
        E 0 90 4a 60
        E 0 90 54 60
        E 0 90 55 60
        E 0 90 56 60
        E 0 90 60 60
        E 0 90 61 60
        E 0 90 62 60
        E 0 90 18 60
        E 0 90 1a 60
        E 0 90 1f 60
        E 60 80 3d 00
        E 0 80 3e 00
        E 0 80 49 00
        E 0 80 4a 00
        E 0 80 54 00
        E 0 80 55 00
        E 0 80 56 00
        E 0 80 60 00
        E 0 80 61 00
        E 0 80 62 00
        E 0 80 18 00
        E 0 80 1a 00
        E 0 80 1f 00
        E 420 90 3e 60
        E 0 90 48 60
        E 0 90 4a 60
        E 0 90 54 60
        E 0 90 56 60
        E 0 90 60 60
        E 0 90 62 60
        E 0 90 18 60
        E 0 90 1f 60
        E 60 80 78 00
        E 0 80 79 00
        E 0 80 7a 00
        E 0 80 7b 00
        E 0 80 7c 00
        E 0 80 3e 00
        E 0 80 48 00
        E 0 80 4a 00
        E 0 80 54 00
        E 0 80 56 00
        E 0 80 60 00
        E 0 80 62 00
        E 0 80 18 00
        E 0 80 1f 00
        E 420 90 3d 60
        E 0 90 3e 60
        E 0 90 49 60
        E 0 90 4a 60
        E 0 90 54 60
        E 0 90 55 60
        E 0 90 56 60
        E 0 90 60 60
        E 0 90 61 60
        E 0 90 62 60
        E 0 90 18 60
        E 0 90 1a 60
        E 0 90 1f 60
        E 60 80 3d 00
        E 0 80 3e 00
        E 0 80 49 00
        E 0 80 4a 00
        E 0 80 54 00
        E 0 80 55 00
        E 0 80 56 00
        E 0 80 60 00
        E 0 80 61 00
        E 0 80 62 00
        E 0 80 18 00
        E 0 80 1a 00
        E 0 80 1f 00
        E 420 90 3e 60
        E 0 90 48 60
        E 0 90 4a 60
        E 0 90 54 60
        E 0 90 56 60
        E 0 90 60 60
        E 0 90 62 60
        E 0 90 18 60
        E 0 90 1f 60
        E 60 80 3e 00
        E 0 80 48 00
        E 0 80 4a 00
        E 0 80 54 00
        E 0 80 56 00
        E 0 80 60 00
        E 0 80 62 00
        E 0 80 18 00
        E 0 80 1f 00
        E 420 90 3d 60
        E 0 90 3e 60
        E 0 90 49 60
        E 0 90 4a 60
        E 0 90 54 60
        E 0 90 55 60
        E 0 90 56 60
        E 0 90 60 60
        E 0 90 61 60
        E 0 90 62 60
        E 0 90 18 60
        E 0 90 1a 60
        E 0 90 1f 60
        E 60 80 3d 00
        E 0 80 3e 00
        E 0 80 49 00
        E 0 80 4a 00
        E 0 80 54 00
        E 0 80 55 00
        E 0 80 56 00
        E 0 80 60 00
        E 0 80 61 00
        E 0 80 62 00
        E 0 80 18 00
        E 0 80 1a 00
        E 0 80 1f 00
        E 420 90 3e 60
        E 0 90 48 60
        E 0 90 4a 60
        E 0 90 54 60
        E 0 90 56 60
        E 0 90 60 60
        E 0 90 62 60
        E 0 90 18 60
        E 0 90 1f 60
        E 60 80 3e 00
        E 0 80 48 00
        E 0 80 4a 00
        E 0 80 54 00
        E 0 80 56 00
        E 0 80 60 00
        E 0 80 62 00
        E 0 80 18 00
        E 0 80 1f 00
        E 420 90 3d 60
        E 0 90 3e 60
        E 0 90 49 60
        E 0 90 4a 60
        E 0 90 54 60
        E 0 90 55 60
        E 0 90 56 60
        E 0 90 60 60
        E 0 90 61 60
        E 0 90 62 60
        E 0 90 18 60
        E 0 90 1a 60
        E 0 90 1f 60
        E 60 80 3d 00
        E 0 80 3e 00
        E 0 80 49 00
        E 0 80 4a 00
        E 0 80 54 00
        E 0 80 55 00
        E 0 80 56 00
        E 0 80 60 00
        E 0 80 61 00
        E 0 80 62 00
        E 0 80 18 00
        E 0 80 1a 00
        E 0 80 1f 00
        E 420 90 3e 60
        E 0 90 48 60
        E 0 90 4a 60
        E 0 90 54 60
        E 0 90 56 60
        E 0 90 60 60
        E 0 90 62 60
        E 0 90 18 60
        E 0 90 1f 60
        E 60 80 3e 00
        E 0 80 48 00
        E 0 80 4a 00
        E 0 80 54 00
        E 0 80 56 00
        E 0 80 60 00
        E 0 80 62 00
        E 0 80 18 00
        E 0 80 1f 00
        E 420 90 3d 60
        E 0 90 3e 60
        E 0 90 49 60
        E 0 90 4a 60
        E 0 90 54 60
        E 0 90 55 60
        E 0 90 56 60
        E 0 90 60 60
        E 0 90 61 60
        E 0 90 62 60
        E 0 90 18 60
        E 0 90 1a 60
        E 0 90 1f 60
        E 60 80 3d 00
        E 0 80 3e 00
        E 0 80 49 00
        E 0 80 4a 00
        E 0 80 54 00
        E 0 80 55 00
        E 0 80 56 00
        E 0 80 60 00
        E 0 80 61 00
        E 0 80 62 00
        E 0 80 18 00
        E 0 80 1a 00
        E 0 80 1f 00
        E 420 90 3e 60
        E 0 90 48 60
        E 0 90 4a 60
        E 0 90 54 60
        E 0 90 56 60
        E 0 90 60 60
        E 0 90 62 60
        E 0 90 18 60
        E 0 90 1f 60
        E 60 80 3e 00
        E 0 80 48 00
        E 0 80 4a 00
        E 0 80 54 00
        E 0 80 56 00
        E 0 80 60 00
        E 0 80 62 00
        E 0 80 18 00
        E 0 80 1f 00
        E 420 90 3d 60
        E 0 90 3e 60
        E 0 90 49 60
        E 0 90 4a 60
        E 0 90 54 60
        E 0 90 55 60
        E 0 90 56 60
        E 0 90 60 60
        E 0 90 61 60
        E 0 90 62 60
        E 0 90 18 60
        E 0 90 1a 60
        E 0 90 1f 60
        E 60 80 3d 00
        E 0 80 3e 00
        E 0 80 49 00
        E 0 80 4a 00
        E 0 80 54 00
        E 0 80 55 00
        E 0 80 56 00
        E 0 80 60 00
        E 0 80 61 00
        E 0 80 62 00
        E 0 80 18 00
        E 0 80 1a 00
        E 0 80 1f 00
        E 420 90 3e 60
        E 0 90 48 60
        E 0 90 4a 60
        E 0 90 54 60
        E 0 90 56 60
        E 0 90 60 60
        E 0 90 62 60
        E 0 90 18 60
        E 0 90 1f 60
        E 60 80 3e 00
        E 0 80 48 00
        E 0 80 4a 00
        E 0 80 54 00
        E 0 80 56 00
        E 0 80 60 00
        E 0 80 62 00
        E 0 80 18 00
        E 0 80 1f 00
        E 420 90 3d 60
        E 0 90 3e 60
        E 0 90 49 60
        E 0 90 4a 60
        E 0 90 54 60
        E 0 90 55 60
        E 0 90 56 60
        E 0 90 60 60
        E 0 90 61 60
        E 0 90 62 60
        E 0 90 18 60
        E 0 90 1a 60
        E 0 90 1f 60
        E 60 80 3d 00
        E 0 80 3e 00
        E 0 80 49 00
        E 0 80 4a 00
        E 0 80 54 00
        E 0 80 55 00
        E 0 80 56 00
        E 0 80 60 00
        E 0 80 61 00
        E 0 80 62 00
        E 0 80 18 00
        E 0 80 1a 00
        E 0 80 1f 00
        E 420 90 3e 60
        E 0 90 48 60
        E 0 90 4a 60
        E 0 90 54 60
        E 0 90 56 60
        E 0 90 60 60
        E 0 90 62 60
        E 0 90 18 60
        E 0 90 1f 60
        E 60 80 3e 00
        E 0 80 48 00
        E 0 80 4a 00
        E 0 80 54 00
        E 0 80 56 00
        E 0 80 60 00
        E 0 80 62 00
        E 0 80 18 00
        E 0 80 1f 00
        E 420 90 3d 60
        E 0 90 3e 60
        E 0 90 49 60
        E 0 90 4a 60
        E 0 90 54 60
        E 0 90 55 60
        E 0 90 56 60
        E 0 90 60 60
        E 0 90 61 60
        E 0 90 62 60
        E 0 90 18 60
        E 0 90 1a 60
        E 0 90 1f 60
        E 60 80 3d 00
        E 0 80 3e 00
        E 0 80 49 00
        E 0 80 4a 00
        E 0 80 54 00
        E 0 80 55 00
        E 0 80 56 00
        E 0 80 60 00
        E 0 80 61 00
        E 0 80 62 00
        E 0 80 18 00
        E 0 80 1a 00
        E 0 80 1f 00
        E 420 90 3e 60
        E 0 90 48 60
        E 0 90 4a 60
        E 0 90 54 60
        E 0 90 56 60
        E 0 90 60 60
        E 0 90 62 60
        E 0 90 18 60
        E 0 90 1f 60
        E 60 80 3e 00
        E 0 80 48 00
        E 0 80 4a 00
        E 0 80 54 00
        E 0 80 56 00
        E 0 80 60 00
        E 0 80 62 00
        E 0 80 18 00
        E 0 80 1f 00
        E 420 90 3d 60
        E 0 90 3e 60
        E 0 90 49 60
        E 0 90 4a 60
        E 0 90 54 60
        E 0 90 55 60
        E 0 90 56 60
        E 0 90 60 60
        E 0 90 61 60
        E 0 90 62 60
        E 0 90 18 60
        E 0 90 1a 60
        E 0 90 1f 60
        E 60 80 3d 00
        E 0 80 3e 00
        E 0 80 49 00
        E 0 80 4a 00
        E 0 80 54 00
        E 0 80 55 00
        E 0 80 56 00
        E 0 80 60 00
        E 0 80 61 00
        E 0 80 62 00
        E 0 80 18 00
        E 0 80 1a 00
        E 0 80 1f 00
        E 420 90 3e 60
        E 0 90 48 60
        E 0 90 4a 60
        E 0 90 54 60
        E 0 90 56 60
        E 0 90 60 60
        E 0 90 62 60
        E 0 90 18 60
        E 0 90 1f 60
        E 60 80 3e 00
        E 0 80 48 00
        E 0 80 4a 00
        E 0 80 54 00
        E 0 80 56 00
        E 0 80 60 00
        E 0 80 62 00
        E 0 80 18 00
        E 0 80 1f 00
        E 420 90 3d 60
        E 0 90 3e 60
        E 0 90 49 60
        E 0 90 4a 60
        E 0 90 54 60
        E 0 90 55 60
        E 0 90 56 60
        E 0 90 60 60
        E 0 90 61 60
        E 0 90 62 60
        E 0 90 18 60
        E 0 90 1a 60
        E 0 90 1f 60
        E 60 80 3d 00
        E 0 80 3e 00
        E 0 80 49 00
        E 0 80 4a 00
        E 0 80 54 00
        E 0 80 55 00
        E 0 80 56 00
        E 0 80 60 00
        E 0 80 61 00
        E 0 80 62 00
        E 0 80 18 00
        E 0 80 1a 00
        E 0 80 1f 00
        E 420 90 3e 60
        E 0 90 48 60
        E 0 90 4a 60
        E 0 90 54 60
        E 0 90 56 60
        E 0 90 60 60
        E 0 90 62 60
        E 0 90 18 60
        E 0 90 1f 60
        E 60 80 3e 00
        E 0 80 48 00
        E 0 80 4a 00
        E 0 80 54 00
        E 0 80 56 00
        E 0 80 60 00
        E 0 80 62 00
        E 0 80 18 00
        E 0 80 1f 00
        E 240 90 61 60
        E 0 90 1a 60
        E 60 80 61 00
        E 0 80 1a 00
        E 120 90 3d 60
        E 0 90 49 60
        E 0 90 54 60
        E 0 90 55 60
        E 0 90 60 60
        E 0 90 61 60
        E 0 90 18 60
        E 0 90 1b 60
        E 60 80 3d 00
        E 0 80 49 00
        E 0 80 54 00
        E 0 80 55 00
        E 0 80 60 00
        E 0 80 61 00
        E 0 80 18 00
        E 0 80 1b 00
        E 240 90 61 60
        E 0 90 1a 60
        E 60 80 61 00
        E 0 80 1a 00
        E 120 90 40 60
        E 0 90 48 60
        E 0 90 4c 60
        E 0 90 54 60
        E 0 90 58 60
        E 0 90 60 60
        E 0 90 64 60
        E 0 90 18 60
        E 0 90 26 60
        E 60 80 40 00
        E 0 80 48 00
        E 0 80 4c 00
        E 0 80 54 00
        E 0 80 58 00
        E 0 80 60 00
        E 0 80 64 00
        E 0 80 18 00
        E 0 80 26 00
        E 420 90 3d 60
        E 0 90 3e 60
        E 0 90 49 60
        E 0 90 4a 60
        E 0 90 54 60
        E 0 90 55 60
        E 0 90 56 60
        E 0 90 60 60
        E 0 90 61 60
        E 0 90 62 60
        E 0 90 18 60
        E 0 90 1a 60
        E 0 90 1f 60
        E 60 80 3d 00
        E 0 80 3e 00
        E 0 80 49 00
        E 0 80 4a 00
        E 0 80 54 00
        E 0 80 55 00
        E 0 80 56 00
        E 0 80 60 00
        E 0 80 61 00
        E 0 80 62 00
        E 0 80 18 00
        E 0 80 1a 00
        E 0 80 1f 00
        E 420 90 3e 60
        E 0 90 48 60
        E 0 90 4a 60
        E 0 90 54 60
        E 0 90 56 60
        E 0 90 60 60
        E 0 90 62 60
        E 0 90 18 60
        E 0 90 1f 60
        E 60 80 3e 00
        E 0 80 48 00
        E 0 80 4a 00
        E 0 80 54 00
        E 0 80 56 00
        E 0 80 60 00
        E 0 80 62 00
        E 0 80 18 00
        E 0 80 1f 00
        E 420 90 3d 60
        E 0 90 3e 60
        E 0 90 49 60
        E 0 90 4a 60
        E 0 90 54 60
        E 0 90 55 60
        E 0 90 56 60
        E 0 90 60 60
        E 0 90 61 60
        E 0 90 62 60
        E 0 90 18 60
        E 0 90 1a 60
        E 0 90 1f 60
        E 60 80 3d 00
        E 0 80 3e 00
        E 0 80 49 00
        E 0 80 4a 00
        E 0 80 54 00
        E 0 80 55 00
        E 0 80 56 00
        E 0 80 60 00
        E 0 80 61 00
        E 0 80 62 00
        E 0 80 18 00
        E 0 80 1a 00
        E 0 80 1f 00
        E 420 90 3e 60
        E 0 90 48 60
        E 0 90 4a 60
        E 0 90 54 60
        E 0 90 56 60
        E 0 90 60 60
        E 0 90 62 60
        E 0 90 18 60
        E 0 90 1f 60
        E 60 80 3e 00
        E 0 80 48 00
        E 0 80 4a 00
        E 0 80 54 00
        E 0 80 56 00
        E 0 80 60 00
        E 0 80 62 00
        E 0 80 18 00
        E 0 80 1f 00
        E 360 90 74 60
        E 60 90 3d 60
        E 0 90 3e 60
        E 0 90 49 60
        E 0 90 4a 60
        E 0 90 54 60
        E 0 90 55 60
        E 0 90 56 60
        E 0 90 60 60
        E 0 90 61 60
        E 0 90 62 60
        E 0 90 18 60
        E 0 90 1a 60
        E 0 90 1f 60
        E 60 80 3d 00
        E 0 80 3e 00
        E 0 80 49 00
        E 0 80 4a 00
        E 0 80 54 00
        E 0 80 55 00
        E 0 80 56 00
        E 0 80 60 00
        E 0 80 61 00
        E 0 80 62 00
        E 0 80 18 00
        E 0 80 1a 00
        E 0 80 1f 00
        E 420 90 3e 60
        E 0 90 48 60
        E 0 90 4a 60
        E 0 90 54 60
        E 0 90 56 60
        E 0 90 60 60
        E 0 90 62 60
        E 0 90 18 60
        E 0 90 1f 60
        E 60 80 3e 00
        E 0 80 48 00
        E 0 80 4a 00
        E 0 80 54 00
        E 0 80 56 00
        E 0 80 60 00
        E 0 80 62 00
        E 0 80 18 00
        E 0 80 1f 00
        E 420 90 3d 60
        E 0 90 3e 60
        E 0 90 49 60
        E 0 90 4a 60
        E 0 90 54 60
        E 0 90 55 60
        E 0 90 56 60
        E 0 90 60 60
        E 0 90 61 60
        E 0 90 62 60
        E 0 90 18 60
        E 0 90 1a 60
        E 0 90 1f 60
        E 60 80 3d 00
        E 0 80 3e 00
        E 0 80 49 00
        E 0 80 4a 00
        E 0 80 54 00
        E 0 80 55 00
        E 0 80 56 00
        E 0 80 60 00
        E 0 80 61 00
        E 0 80 62 00
        E 0 80 18 00
        E 0 80 1a 00
        E 0 80 1f 00
        E 420 90 3e 60
        E 0 90 48 60
        E 0 90 4a 60
        E 0 90 54 60
        E 0 90 56 60
        E 0 90 60 60
        E 0 90 62 60
        E 0 90 18 60
        E 0 90 1f 60
        E 60 80 3e 00
        E 0 80 48 00
        E 0 80 4a 00
        E 0 80 54 00
        E 0 80 56 00
        E 0 80 60 00
        E 0 80 62 00
        E 0 80 18 00
        E 0 80 1f 00
        E 420 90 40 60
        E 0 90 49 60
        E 0 90 4c 60
        E 0 90 54 60
        E 0 90 55 60
        E 0 90 58 60
        E 0 90 60 60
        E 0 90 61 60
        E 0 90 64 60
        E 0 90 70 60
        E 0 90 18 60
        E 0 90 1a 60
        E 0 90 33 60
        E 60 80 40 00
        E 0 80 49 00
        E 0 80 4c 00
        E 0 80 54 00
        E 0 80 55 00
        E 0 80 58 00
        E 0 80 60 00
        E 0 80 61 00
        E 0 80 64 00
        E 0 80 70 00
        E 0 80 18 00
        E 0 80 1a 00
        E 0 80 33 00
        E 420 90 40 60
        E 0 90 49 60
        E 0 90 4c 60
        E 0 90 54 60
        E 0 90 55 60
        E 0 90 58 60
        E 0 90 60 60
        E 0 90 61 60
        E 0 90 64 60
        E 0 90 70 60
        E 0 90 18 60
        E 0 90 1a 60
        E 0 90 33 60
        E 60 80 40 00
        E 0 80 49 00
        E 0 80 4c 00
        E 0 80 54 00
        E 0 80 55 00
        E 0 80 58 00
        E 0 80 60 00
        E 0 80 61 00
        E 0 80 64 00
        E 0 80 70 00
        E 0 80 18 00
        E 0 80 1a 00
        E 0 80 33 00
        E 60 80 74 00
        E 360 90 3d 60
        E 0 90 3e 60
        E 0 90 49 60
        E 0 90 4a 60
        E 0 90 54 60
        E 0 90 55 60
        E 0 90 56 60
        E 0 90 60 60
        E 0 90 61 60
        E 0 90 62 60
        E 0 90 18 60
        E 0 90 1a 60
        E 0 90 1f 60
        E 60 80 3d 00
        E 0 80 3e 00
        E 0 80 49 00
        E 0 80 4a 00
        E 0 80 54 00
        E 0 80 55 00
        E 0 80 56 00
        E 0 80 60 00
        E 0 80 61 00
        E 0 80 62 00
        E 0 80 18 00
        E 0 80 1a 00
        E 0 80 1f 00
        E 420 90 3e 60
        E 0 90 48 60
        E 0 90 4a 60
        E 0 90 54 60
        E 0 90 56 60
        E 0 90 60 60
        E 0 90 62 60
        E 0 90 18 60
        E 0 90 1f 60
        E 60 80 3e 00
        E 0 80 48 00
        E 0 80 4a 00
        E 0 80 54 00
        E 0 80 56 00
        E 0 80 60 00
        E 0 80 62 00
        E 0 80 18 00
        E 0 80 1f 00
        E 420 90 3d 60
        E 0 90 3e 60
        E 0 90 49 60
        E 0 90 4a 60
        E 0 90 54 60
        E 0 90 55 60
        E 0 90 56 60
        E 0 90 60 60
        E 0 90 61 60
        E 0 90 62 60
        E 0 90 18 60
        E 0 90 1a 60
        E 0 90 1f 60
        E 60 80 3d 00
        E 0 80 3e 00
        E 0 80 49 00
        E 0 80 4a 00
        E 0 80 54 00
        E 0 80 55 00
        E 0 80 56 00
        E 0 80 60 00
        E 0 80 61 00
        E 0 80 62 00
        E 0 80 18 00
        E 0 80 1a 00
        E 0 80 1f 00
        E 420 90 3e 60
        E 0 90 48 60
        E 0 90 4a 60
        E 0 90 54 60
        E 0 90 56 60
        E 0 90 60 60
        E 0 90 62 60
        E 0 90 18 60
        E 0 90 1f 60
        E 60 80 3e 00
        E 0 80 48 00
        E 0 80 4a 00
        E 0 80 54 00
        E 0 80 56 00
        E 0 80 60 00
        E 0 80 62 00
        E 0 80 18 00
        E 0 80 1f 00
        E 420 90 3d 60
        E 0 90 3e 60
        E 0 90 49 60
        E 0 90 4a 60
        E 0 90 54 60
        E 0 90 55 60
        E 0 90 56 60
        E 0 90 60 60
        E 0 90 61 60
        E 0 90 62 60
        E 0 90 18 60
        E 0 90 1a 60
        E 0 90 1f 60
        E 60 80 3d 00
        E 0 80 3e 00
        E 0 80 49 00
        E 0 80 4a 00
        E 0 80 54 00
        E 0 80 55 00
        E 0 80 56 00
        E 0 80 60 00
        E 0 80 61 00
        E 0 80 62 00
        E 0 80 18 00
        E 0 80 1a 00
        E 0 80 1f 00
        E 420 90 3e 60
        E 0 90 48 60
        E 0 90 4a 60
        E 0 90 54 60
        E 0 90 56 60
        E 0 90 60 60
        E 0 90 62 60
        E 0 90 18 60
        E 0 90 1f 60
        E 60 80 3e 00
        E 0 80 48 00
        E 0 80 4a 00
        E 0 80 54 00
        E 0 80 56 00
        E 0 80 60 00
        E 0 80 62 00
        E 0 80 18 00
        E 0 80 1f 00
        E 420 90 3d 60
        E 0 90 3e 60
        E 0 90 49 60
        E 0 90 4a 60
        E 0 90 54 60
        E 0 90 55 60
        E 0 90 56 60
        E 0 90 60 60
        E 0 90 61 60
        E 0 90 62 60
        E 0 90 18 60
        E 0 90 1a 60
        E 0 90 1f 60
        E 60 80 3d 00
        E 0 80 3e 00
        E 0 80 49 00
        E 0 80 4a 00
        E 0 80 54 00
        E 0 80 55 00
        E 0 80 56 00
        E 0 80 60 00
        E 0 80 61 00
        E 0 80 62 00
        E 0 80 18 00
        E 0 80 1a 00
        E 0 80 1f 00
        E 420 90 3e 60
        E 0 90 48 60
        E 0 90 4a 60
        E 0 90 54 60
        E 0 90 56 60
        E 0 90 60 60
        E 0 90 62 60
        E 0 90 18 60
        E 0 90 1f 60
        E 60 80 3e 00
        E 0 80 48 00
        E 0 80 4a 00
        E 0 80 54 00
        E 0 80 56 00
        E 0 80 60 00
        E 0 80 62 00
        E 0 80 18 00
        E 0 80 1f 00
        E 420 90 3d 60
        E 0 90 3e 60
        E 0 90 49 60
        E 0 90 4a 60
        E 0 90 54 60
        E 0 90 55 60
        E 0 90 56 60
        E 0 90 60 60
        E 0 90 61 60
        E 0 90 62 60
        E 0 90 18 60
        E 0 90 1a 60
        E 0 90 1f 60
        E 60 80 3d 00
        E 0 80 3e 00
        E 0 80 49 00
        E 0 80 4a 00
        E 0 80 54 00
        E 0 80 55 00
        E 0 80 56 00
        E 0 80 60 00
        E 0 80 61 00
        E 0 80 62 00
        E 0 80 18 00
        E 0 80 1a 00
        E 0 80 1f 00
        E 420 90 3e 60
        E 0 90 48 60
        E 0 90 4a 60
        E 0 90 54 60
        E 0 90 56 60
        E 0 90 60 60
        E 0 90 62 60
        E 0 90 18 60
        E 0 90 1f 60
        E 60 80 3e 00
        E 0 80 48 00
        E 0 80 4a 00
        E 0 80 54 00
        E 0 80 56 00
        E 0 80 60 00
        E 0 80 62 00
        E 0 80 18 00
        E 0 80 1f 00
        E 360 90 74 60
        E 60 90 3d 60
        E 0 90 3e 60
        E 0 90 49 60
        E 0 90 4a 60
        E 0 90 54 60
        E 0 90 55 60
        E 0 90 56 60
        E 0 90 60 60
        E 0 90 61 60
        E 0 90 62 60
        E 0 90 18 60
        E 0 90 1a 60
        E 0 90 1f 60
        E 60 80 3d 00
        E 0 80 3e 00
        E 0 80 49 00
        E 0 80 4a 00
        E 0 80 54 00
        E 0 80 55 00
        E 0 80 56 00
        E 0 80 60 00
        E 0 80 61 00
        E 0 80 62 00
        E 0 80 18 00
        E 0 80 1a 00
        E 0 80 1f 00
        E 420 90 3e 60
        E 0 90 48 60
        E 0 90 4a 60
        E 0 90 54 60
        E 0 90 56 60
        E 0 90 60 60
        E 0 90 62 60
        E 0 90 18 60
        E 0 90 1f 60
        E 60 80 3e 00
        E 0 80 48 00
        E 0 80 4a 00
        E 0 80 54 00
        E 0 80 56 00
        E 0 80 60 00
        E 0 80 62 00
        E 0 80 18 00
        E 0 80 1f 00
        E 420 90 3d 60
        E 0 90 3e 60
        E 0 90 49 60
        E 0 90 4a 60
        E 0 90 54 60
        E 0 90 55 60
        E 0 90 56 60
        E 0 90 60 60
        E 0 90 61 60
        E 0 90 62 60
        E 0 90 18 60
        E 0 90 1a 60
        E 0 90 1f 60
        E 60 80 3d 00
        E 0 80 3e 00
        E 0 80 49 00
        E 0 80 4a 00
        E 0 80 54 00
        E 0 80 55 00
        E 0 80 56 00
        E 0 80 60 00
        E 0 80 61 00
        E 0 80 62 00
        E 0 80 18 00
        E 0 80 1a 00
        E 0 80 1f 00
        E 420 90 3e 60
        E 0 90 48 60
        E 0 90 4a 60
        E 0 90 54 60
        E 0 90 56 60
        E 0 90 60 60
        E 0 90 62 60
        E 0 90 18 60
        E 0 90 1f 60
        E 60 80 3e 00
        E 0 80 48 00
        E 0 80 4a 00
        E 0 80 54 00
        E 0 80 56 00
        E 0 80 60 00
        E 0 80 62 00
        E 0 80 18 00
        E 0 80 1f 00
        E 420 90 40 60
        E 0 90 49 60
        E 0 90 4c 60
        E 0 90 54 60
        E 0 90 55 60
        E 0 90 58 60
        E 0 90 60 60
        E 0 90 61 60
        E 0 90 64 60
        E 0 90 70 60
        E 0 90 18 60
        E 0 90 1a 60
        E 0 90 33 60
        E 60 80 40 00
        E 0 80 49 00
        E 0 80 4c 00
        E 0 80 54 00
        E 0 80 55 00
        E 0 80 58 00
        E 0 80 60 00
        E 0 80 61 00
        E 0 80 64 00
        E 0 80 70 00
        E 0 80 18 00
        E 0 80 1a 00
        E 0 80 33 00
        E 420 90 40 60
        E 0 90 49 60
        E 0 90 4c 60
        E 0 90 54 60
        E 0 90 55 60
        E 0 90 58 60
        E 0 90 60 60
        E 0 90 61 60
        E 0 90 64 60
        E 0 90 70 60
        E 0 90 18 60
        E 0 90 1a 60
        E 0 90 33 60
        E 60 80 40 00
        E 0 80 49 00
        E 0 80 4c 00
        E 0 80 54 00
        E 0 80 55 00
        E 0 80 58 00
        E 0 80 60 00
        E 0 80 61 00
        E 0 80 64 00
        E 0 80 70 00
        E 0 80 18 00
        E 0 80 1a 00
        E 0 80 33 00
        E 60 80 74 00
        E 360 90 3d 60
        E 0 90 3e 60
        E 0 90 49 60
        E 0 90 4a 60
        E 0 90 54 60
        E 0 90 55 60
        E 0 90 56 60
        E 0 90 60 60
        E 0 90 61 60
        E 0 90 62 60
        E 0 90 18 60
        E 0 90 1a 60
        E 0 90 1f 60
        E 60 80 3d 00
        E 0 80 3e 00
        E 0 80 49 00
        E 0 80 4a 00
        E 0 80 54 00
        E 0 80 55 00
        E 0 80 56 00
        E 0 80 60 00
        E 0 80 61 00
        E 0 80 62 00
        E 0 80 18 00
        E 0 80 1a 00
        E 0 80 1f 00
        E 420 90 3e 60
        E 0 90 48 60
        E 0 90 4a 60
        E 0 90 54 60
        E 0 90 56 60
        E 0 90 60 60
        E 0 90 62 60
        E 0 90 18 60
        E 0 90 1f 60
        E 60 80 3e 00
        E 0 80 48 00
        E 0 80 4a 00
        E 0 80 54 00
        E 0 80 56 00
        E 0 80 60 00
        E 0 80 62 00
        E 0 80 18 00
        E 0 80 1f 00
        E 420 90 3d 60
        E 0 90 3e 60
        E 0 90 49 60
        E 0 90 4a 60
        E 0 90 54 60
        E 0 90 55 60
        E 0 90 56 60
        E 0 90 60 60
        E 0 90 61 60
        E 0 90 62 60
        E 0 90 18 60
        E 0 90 1a 60
        E 0 90 1f 60
        E 60 80 3d 00
        E 0 80 3e 00
        E 0 80 49 00
        E 0 80 4a 00
        E 0 80 54 00
        E 0 80 55 00
        E 0 80 56 00
        E 0 80 60 00
        E 0 80 61 00
        E 0 80 62 00
        E 0 80 18 00
        E 0 80 1a 00
        E 0 80 1f 00
        E 420 90 3e 60
        E 0 90 48 60
        E 0 90 4a 60
        E 0 90 54 60
        E 0 90 56 60
        E 0 90 60 60
        E 0 90 62 60
        E 0 90 18 60
        E 0 90 1f 60
        E 60 80 3e 00
        E 0 80 48 00
        E 0 80 4a 00
        E 0 80 54 00
        E 0 80 56 00
        E 0 80 60 00
        E 0 80 62 00
        E 0 80 18 00
        E 0 80 1f 00
        E 240 90 61 60
        E 0 90 1a 60
        E 60 80 61 00
        E 0 80 1a 00
        E 120 90 3d 60
        E 0 90 49 60
        E 0 90 54 60
        E 0 90 55 60
        E 0 90 60 60
        E 0 90 61 60
        E 0 90 18 60
        E 0 90 1b 60
        E 60 80 3d 00
        E 0 80 49 00
        E 0 80 54 00
        E 0 80 55 00
        E 0 80 60 00
        E 0 80 61 00
        E 0 80 18 00
        E 0 80 1b 00
        E 240 90 61 60
        E 0 90 1a 60
        E 60 80 61 00
        E 0 80 1a 00
        E 120 90 40 60
        E 0 90 48 60
        E 0 90 4c 60
        E 0 90 54 60
        E 0 90 58 60
        E 0 90 60 60
        E 0 90 64 60
        E 0 90 18 60
        E 0 90 26 60
        E 60 80 40 00
        E 0 80 48 00
        E 0 80 4c 00
        E 0 80 54 00
        E 0 80 58 00
        E 0 80 60 00
        E 0 80 64 00
        E 0 80 18 00
        E 0 80 26 00
        E 240 90 61 60
        E 0 90 1a 60
        E 60 80 61 00
        E 0 80 1a 00
        E 120 90 3d 60
        E 0 90 49 60
        E 0 90 54 60
        E 0 90 55 60
        E 0 90 60 60
        E 0 90 61 60
        E 0 90 18 60
        E 0 90 1b 60
        E 60 80 3d 00
        E 0 80 49 00
        E 0 80 54 00
        E 0 80 55 00
        E 0 80 60 00
        E 0 80 61 00
        E 0 80 18 00
        E 0 80 1b 00
        E 420 90 3e 60
        E 0 90 48 60
        E 0 90 4a 60
        E 0 90 54 60
        E 0 90 56 60
        E 0 90 60 60
        E 0 90 62 60
        E 0 90 18 60
        E 0 90 1f 60
        E 60 80 3e 00
        E 0 80 48 00
        E 0 80 4a 00
        E 0 80 54 00
        E 0 80 56 00
        E 0 80 60 00
        E 0 80 62 00
        E 0 80 18 00
        E 0 80 1f 00
        E 420 90 3d 60
        E 0 90 3e 60
        E 0 90 49 60
        E 0 90 4a 60
        E 0 90 54 60
        E 0 90 55 60
        E 0 90 56 60
        E 0 90 60 60
        E 0 90 61 60
        E 0 90 62 60
        E 0 90 18 60
        E 0 90 1a 60
        E 0 90 1f 60
        E 60 80 3d 00
        E 0 80 3e 00
        E 0 80 49 00
        E 0 80 4a 00
        E 0 80 54 00
        E 0 80 55 00
        E 0 80 56 00
        E 0 80 60 00
        E 0 80 61 00
        E 0 80 62 00
        E 0 90 78 60
        E 0 90 79 60
        E 0 90 7a 60
        E 0 90 7b 60
        E 0 90 7c 60
        E 0 80 18 00
        E 0 80 1a 00
        E 0 80 1f 00
        E 420 90 3e 60
        E 0 90 48 60
        E 0 90 4a 60
        E 0 90 54 60
        E 0 90 56 60
        E 0 90 60 60
        E 0 90 62 60
        E 0 90 18 60
        E 0 90 1f 60
        E 60 80 3e 00
        E 0 80 48 00
        E 0 80 4a 00
        E 0 80 54 00
        E 0 80 56 00
        E 0 80 60 00
        E 0 80 62 00
        E 0 80 18 00
        E 0 80 1f 00
        E 420 90 3d 60
        E 0 90 3e 60
        E 0 90 49 60
        E 0 90 4a 60
        E 0 90 54 60
        E 0 90 55 60
        E 0 90 56 60
        E 0 90 60 60
        E 0 90 61 60
        E 0 90 62 60
        E 0 90 18 60
        E 0 90 1a 60
        E 0 90 1f 60
        E 60 80 3d 00
        E 0 80 3e 00
        E 0 80 49 00
        E 0 80 4a 00
        E 0 80 54 00
        E 0 80 55 00
        E 0 80 56 00
        E 0 80 60 00
        E 0 80 61 00
        E 0 80 62 00
        E 0 80 18 00
        E 0 80 1a 00
        E 0 80 1f 00
        E 420 90 3e 60
        E 0 90 48 60
        E 0 90 4a 60
        E 0 90 54 60
        E 0 90 56 60
        E 0 90 60 60
        E 0 90 62 60
        E 0 90 18 60
        E 0 90 1f 60
        E 60 80 3e 00
        E 0 80 48 00
        E 0 80 4a 00
        E 0 80 54 00
        E 0 80 56 00
        E 0 80 60 00
        E 0 80 62 00
        E 0 80 18 00
        E 0 80 1f 00
        E 420 90 3d 60
        E 0 90 3e 60
        E 0 90 49 60
        E 0 90 4a 60
        E 0 90 54 60
        E 0 90 55 60
        E 0 90 56 60
        E 0 90 60 60
        E 0 90 61 60
        E 0 90 62 60
        E 0 90 18 60
        E 0 90 1a 60
        E 0 90 1f 60
        E 60 80 3d 00
        E 0 80 3e 00
        E 0 80 49 00
        E 0 80 4a 00
        E 0 80 54 00
        E 0 80 55 00
        E 0 80 56 00
        E 0 80 60 00
        E 0 80 61 00
        E 0 80 62 00
        E 0 80 18 00
        E 0 80 1a 00
        E 0 80 1f 00
        E 420 90 3e 60
        E 0 90 48 60
        E 0 90 4a 60
        E 0 90 54 60
        E 0 90 56 60
        E 0 90 60 60
        E 0 90 62 60
        E 0 90 18 60
        E 0 90 1f 60
        E 60 80 78 00
        E 0 80 79 00
        E 0 80 7a 00
        E 0 80 7b 00
        E 0 80 7c 00
        E 0 80 3e 00
        E 0 80 48 00
        E 0 80 4a 00
        E 0 80 54 00
        E 0 80 56 00
        E 0 80 60 00
        E 0 80 62 00
        E 0 80 18 00
        E 0 80 1f 00
        E 420 90 3d 60
        E 0 90 3e 60
        E 0 90 49 60
        E 0 90 4a 60
        E 0 90 54 60
        E 0 90 55 60
        E 0 90 56 60
        E 0 90 60 60
        E 0 90 61 60
        E 0 90 62 60
        E 0 90 18 60
        E 0 90 1a 60
        E 0 90 1f 60
        E 60 80 3d 00
        E 0 80 3e 00
        E 0 80 49 00
        E 0 80 4a 00
        E 0 80 54 00
        E 0 80 55 00
        E 0 80 56 00
        E 0 80 60 00
        E 0 80 61 00
        E 0 80 62 00
        E 0 80 18 00
        E 0 80 1a 00
        E 0 80 1f 00
        E 420 90 3e 60
        E 0 90 48 60
        E 0 90 4a 60
        E 0 90 54 60
        E 0 90 56 60
        E 0 90 60 60
        E 0 90 62 60
        E 0 90 18 60
        E 0 90 1f 60
        E 60 80 3e 00
        E 0 80 48 00
        E 0 80 4a 00
        E 0 80 54 00
        E 0 80 56 00
        E 0 80 60 00
        E 0 80 62 00
        E 0 80 18 00
        E 0 80 1f 00
        E 420 90 3d 60
        E 0 90 3e 60
        E 0 90 49 60
        E 0 90 4a 60
        E 0 90 54 60
        E 0 90 55 60
        E 0 90 56 60
        E 0 90 60 60
        E 0 90 61 60
        E 0 90 62 60
        E 0 90 18 60
        E 0 90 1a 60
        E 0 90 1f 60
        E 60 80 3d 00
        E 0 80 3e 00
        E 0 80 49 00
        E 0 80 4a 00
        E 0 80 54 00
        E 0 80 55 00
        E 0 80 56 00
        E 0 80 60 00
        E 0 80 61 00
        E 0 80 62 00
        E 0 80 18 00
        E 0 80 1a 00
        E 0 80 1f 00
        E 240 90 61 60
        E 0 90 1a 60
        E 60 80 61 00
        E 0 80 1a 00
        E 120 90 40 60
        E 0 90 48 60
        E 0 90 4c 60
        E 0 90 54 60
        E 0 90 58 60
        E 0 90 60 60
        E 0 90 64 60
        E 0 90 18 60
        E 0 90 26 60
        E 60 80 40 00
        E 0 80 48 00
        E 0 80 4c 00
        E 0 80 54 00
        E 0 80 58 00
        E 0 80 60 00
        E 0 80 64 00
        E 0 80 18 00
        E 0 80 26 00
        E 420 90 3d 60
        E 0 90 49 60
        E 0 90 54 60
        E 0 90 55 60
        E 0 90 60 60
        E 0 90 61 60
        E 0 90 18 60
        E 0 90 1a 60
        E 60 80 3d 00
        E 0 80 49 00
        E 0 80 54 00
        E 0 80 55 00
        E 0 80 60 00
        E 0 80 61 00
        E 0 80 18 00
        E 0 80 1a 00
        E 420 90 40 60
        E 0 90 48 60
        E 0 90 4c 60
        E 0 90 54 60
        E 0 90 58 60
        E 0 90 60 60
        E 0 90 64 60
        E 0 90 18 60
        E 0 90 26 60
        E 60 80 40 00
        E 0 80 48 00
        E 0 80 4c 00
        E 0 80 54 00
        E 0 80 58 00
        E 0 80 60 00
        E 0 80 64 00
        E 0 80 18 00
        E 0 80 26 00
        E 420 90 3d 60
        E 0 90 3e 60
        E 0 90 49 60
        E 0 90 4a 60
        E 0 90 54 60
        E 0 90 55 60
        E 0 90 56 60
        E 0 90 60 60
        E 0 90 61 60
        E 0 90 62 60
        E 0 90 18 60
        E 0 90 1a 60
        E 0 90 1f 60
        E 60 80 3d 00
        E 0 80 3e 00
        E 0 80 49 00
        E 0 80 4a 00
        E 0 80 54 00
        E 0 80 55 00
        E 0 80 56 00
        E 0 80 60 00
        E 0 80 61 00
        E 0 80 62 00
        E 0 80 18 00
        E 0 80 1a 00
        E 0 80 1f 00
        E 240 90 61 60
        E 0 90 1a 60
        E 60 80 61 00
        E 0 80 1a 00
        E 120 90 40 60
        E 0 90 48 60
        E 0 90 4c 60
        E 0 90 54 60
        E 0 90 58 60
        E 0 90 60 60
        E 0 90 64 60
        E 0 90 18 60
        E 0 90 26 60
        E 60 80 40 00
        E 0 80 48 00
        E 0 80 4c 00
        E 0 80 54 00
        E 0 80 58 00
        E 0 80 60 00
        E 0 80 64 00
        E 0 80 18 00
        E 0 80 26 00
        E 420 90 3d 60
        E 0 90 3e 60
        E 0 90 49 60
        E 0 90 4a 60
        E 0 90 54 60
        E 0 90 55 60
        E 0 90 56 60
        E 0 90 60 60
        E 0 90 61 60
        E 0 90 62 60
        E 0 90 18 60
        E 0 90 1a 60
        E 0 90 1f 60
        E 60 80 3d 00
        E 0 80 3e 00
        E 0 80 49 00
        E 0 80 4a 00
        E 0 80 54 00
        E 0 80 55 00
        E 0 80 56 00
        E 0 80 60 00
        E 0 80 61 00
        E 0 80 62 00
        E 0 80 18 00
        E 0 80 1a 00
        E 0 80 1f 00
        E 420 90 3e 60
        E 0 90 48 60
        E 0 90 4a 60
        E 0 90 54 60
        E 0 90 56 60
        E 0 90 60 60
        E 0 90 62 60
        E 0 90 18 60
        E 0 90 1f 60
        E 60 80 3e 00
        E 0 80 48 00
        E 0 80 4a 00
        E 0 80 54 00
        E 0 80 56 00
        E 0 80 60 00
        E 0 80 62 00
        E 0 80 18 00
        E 0 80 1f 00
        E 420 90 3d 60
        E 0 90 3e 60
        E 0 90 49 60
        E 0 90 4a 60
        E 0 90 54 60
        E 0 90 55 60
        E 0 90 56 60
        E 0 90 60 60
        E 0 90 61 60
        E 0 90 62 60
        E 0 90 18 60
        E 0 90 1a 60
        E 0 90 1f 60
        E 60 80 3d 00
        E 0 80 3e 00
        E 0 80 49 00
        E 0 80 4a 00
        E 0 80 54 00
        E 0 80 55 00
        E 0 80 56 00
        E 0 80 60 00
        E 0 80 61 00
        E 0 80 62 00
        E 0 80 18 00
        E 0 80 1a 00
        E 0 80 1f 00
        E 420 90 3e 60
        E 0 90 48 60
        E 0 90 4a 60
        E 0 90 54 60
        E 0 90 56 60
        E 0 90 60 60
        E 0 90 62 60
        E 0 90 18 60
        E 0 90 1f 60
        E 60 80 3e 00
        E 0 80 48 00
        E 0 80 4a 00
        E 0 80 54 00
        E 0 80 56 00
        E 0 80 60 00
        E 0 80 62 00
        E 0 80 18 00
        E 0 80 1f 00
        E 420 90 3d 60
        E 0 90 3e 60
        E 0 90 49 60
        E 0 90 4a 60
        E 0 90 54 60
        E 0 90 55 60
        E 0 90 56 60
        E 0 90 60 60
        E 0 90 61 60
        E 0 90 62 60
        E 0 90 18 60
        E 0 90 1a 60
        E 0 90 1f 60
        E 60 80 3d 00
        E 0 80 3e 00
        E 0 80 49 00
        E 0 80 4a 00
        E 0 80 54 00
        E 0 80 55 00
        E 0 80 56 00
        E 0 80 60 00
        E 0 80 61 00
        E 0 80 62 00
        E 0 80 18 00
        E 0 80 1a 00
        E 0 80 1f 00
        E 420 90 3e 60
        E 0 90 48 60
        E 0 90 4a 60
        E 0 90 54 60
        E 0 90 56 60
        E 0 90 60 60
        E 0 90 62 60
        E 0 90 18 60
        E 0 90 1f 60
        E 60 80 3e 00
        E 0 80 48 00
        E 0 80 4a 00
        E 0 80 54 00
        E 0 80 56 00
        E 0 80 60 00
        E 0 80 62 00
        E 0 80 18 00
        E 0 80 1f 00
        E 420 90 3d 60
        E 0 90 3e 60
        E 0 90 49 60
        E 0 90 4a 60
        E 0 90 54 60
        E 0 90 55 60
        E 0 90 56 60
        E 0 90 60 60
        E 0 90 61 60
        E 0 90 62 60
        E 0 90 18 60
        E 0 90 1a 60
        E 0 90 1f 60
        E 60 80 3d 00
        E 0 80 3e 00
        E 0 80 49 00
        E 0 80 4a 00
        E 0 80 54 00
        E 0 80 55 00
        E 0 80 56 00
        E 0 80 60 00
        E 0 80 61 00
        E 0 80 62 00
        E 0 80 18 00
        E 0 80 1a 00
        E 0 80 1f 00
        E 420 90 3e 60
        E 0 90 48 60
        E 0 90 4a 60
        E 0 90 54 60
        E 0 90 56 60
        E 0 90 60 60
        E 0 90 62 60
        E 0 90 18 60
        E 0 90 1f 60
        E 60 80 48 00
        E 0 80 54 00
        E 0 80 60 00
        E 0 80 18 00
        E 3 80 3e 00
        E 0 80 4a 00
        E 0 80 56 00
        E 0 80 62 00
        E 0 80 1f 00
        E 417 90 40 60
        E 0 90 49 60
        E 0 90 4c 60
        E 0 90 54 60
        E 0 90 55 60
        E 0 90 58 60
        E 0 90 60 60
        E 0 90 61 60
        E 0 90 64 60
        E 0 90 70 60
        E 0 90 18 60
        E 0 90 1a 60
        E 0 90 33 60
        E 60 80 40 00
        E 0 80 49 00
        E 0 80 4c 00
        E 0 80 54 00
        E 0 80 55 00
        E 0 80 58 00
        E 0 80 60 00
        E 0 80 61 00
        E 0 80 64 00
        E 0 80 70 00
        E 0 80 18 00
        E 0 80 1a 00
        E 0 80 33 00
        E 420 90 40 60
        E 0 90 49 60
        E 0 90 4c 60
        E 0 90 54 60
        E 0 90 55 60
        E 0 90 58 60
        E 0 90 60 60
        E 0 90 61 60
        E 0 90 64 60
        E 0 90 70 60
        E 0 90 18 60
        E 0 90 1a 60
        E 0 90 33 60
        E 60 80 40 00
        E 0 80 49 00
        E 0 80 4c 00
        E 0 80 54 00
        E 0 80 55 00
        E 0 80 58 00
        E 0 80 60 00
        E 0 80 61 00
        E 0 80 64 00
        E 0 80 70 00
        E 0 80 18 00
        E 0 80 1a 00
        E 0 80 33 00
        E 420 90 3d 60
        E 0 90 3e 60
        E 0 90 49 60
        E 0 90 4a 60
        E 0 90 54 60
        E 0 90 55 60
        E 0 90 56 60
        E 0 90 60 60
        E 0 90 61 60
        E 0 90 62 60
        E 0 90 18 60
        E 0 90 1a 60
        E 0 90 1f 60
        E 60 80 3d 00
        E 0 80 3e 00
        E 0 80 49 00
        E 0 80 4a 00
        E 0 80 54 00
        E 0 80 55 00
        E 0 80 56 00
        E 0 80 60 00
        E 0 80 61 00
        E 0 80 62 00
        E 0 80 18 00
        E 0 80 1a 00
        E 0 80 1f 00
        E 420 90 3e 60
        E 0 90 48 60
        E 0 90 4a 60
        E 0 90 54 60
        E 0 90 56 60
        E 0 90 60 60
        E 0 90 62 60
        E 0 90 18 60
        E 0 90 1f 60
        E 60 80 3e 00
        E 0 80 48 00
        E 0 80 4a 00
        E 0 80 54 00
        E 0 80 56 00
        E 0 80 60 00
        E 0 80 62 00
        E 0 80 18 00
        E 0 80 1f 00
        E 420 90 3d 60
        E 0 90 3e 60
        E 0 90 49 60
        E 0 90 4a 60
        E 0 90 54 60
        E 0 90 55 60
        E 0 90 56 60
        E 0 90 60 60
        E 0 90 61 60
        E 0 90 62 60
        E 0 90 18 60
        E 0 90 1a 60
        E 0 90 1f 60
        E 60 80 3d 00
        E 0 80 3e 00
        E 0 80 49 00
        E 0 80 4a 00
        E 0 80 54 00
        E 0 80 55 00
        E 0 80 56 00
        E 0 80 60 00
        E 0 80 61 00
        E 0 80 62 00
        E 0 80 18 00
        E 0 80 1a 00
        E 0 80 1f 00
        E 419 90 62 60
        E 0 90 1f 60
        E 1 90 3c 60
        E 0 90 48 60
        E 0 90 54 60
        E 0 90 60 60
        E 0 90 18 60
        E 60 80 3c 00
        E 0 80 48 00
        E 0 80 54 00
        E 0 80 60 00
        E 0 80 18 00
        E 2 80 62 00
        E 0 80 1f 00
        E 418 90 40 60
        E 0 90 49 60
        E 0 90 4c 60
        E 0 90 54 60
        E 0 90 55 60
        E 0 90 58 60
        E 0 90 60 60
        E 0 90 61 60
        E 0 90 64 60
        E 0 90 70 60
        E 0 90 18 60
        E 0 90 1a 60
        E 0 90 33 60
        E 60 80 40 00
        E 0 80 49 00
        E 0 80 4c 00
        E 0 80 54 00
        E 0 80 55 00
        E 0 80 58 00
        E 0 80 60 00
        E 0 80 61 00
        E 0 80 64 00
        E 0 80 70 00
        E 0 80 18 00
        E 0 80 1a 00
        E 0 80 33 00
        E 420 90 3e 60
        E 0 90 48 60
        E 0 90 4a 60
        E 0 90 54 60
        E 0 90 56 60
        E 0 90 60 60
        E 0 90 62 60
        E 0 90 18 60
        E 0 90 1f 60
        E 60 80 3e 00
        E 0 80 48 00
        E 0 80 4a 00
        E 0 80 54 00
        E 0 80 56 00
        E 0 80 60 00
        E 0 80 62 00
        E 0 80 18 00
        E 0 80 1f 00
        E 420 90 3d 60
        E 0 90 3e 60
        E 0 90 49 60
        E 0 90 4a 60
        E 0 90 54 60
        E 0 90 55 60
        E 0 90 56 60
        E 0 90 60 60
        E 0 90 61 60
        E 0 90 62 60
        E 0 90 18 60
        E 0 90 1a 60
        E 0 90 1f 60
        E 60 80 3d 00
        E 0 80 3e 00
        E 0 80 49 00
        E 0 80 4a 00
        E 0 80 54 00
        E 0 80 55 00
        E 0 80 56 00
        E 0 80 60 00
        E 0 80 61 00
        E 0 80 62 00
        E 0 80 18 00
        E 0 80 1a 00
        E 0 80 1f 00
        E 420 90 3e 60
        E 0 90 48 60
        E 0 90 4a 60
        E 0 90 54 60
        E 0 90 56 60
        E 0 90 60 60
        E 0 90 62 60
        E 0 90 18 60
        E 0 90 1f 60
        E 60 80 3e 00
        E 0 80 48 00
        E 0 80 4a 00
        E 0 80 54 00
        E 0 80 56 00
        E 0 80 60 00
        E 0 80 62 00
        E 0 80 18 00
        E 0 80 1f 00
        E 420 90 40 60
        E 0 90 49 60
        E 0 90 4c 60
        E 0 90 54 60
        E 0 90 55 60
        E 0 90 58 60
        E 0 90 60 60
        E 0 90 61 60
        E 0 90 64 60
        E 0 90 70 60
        E 0 90 18 60
        E 0 90 1a 60
        E 0 90 33 60
        E 60 80 40 00
        E 0 80 49 00
        E 0 80 4c 00
        E 0 80 54 00
        E 0 80 55 00
        E 0 80 58 00
        E 0 80 60 00
        E 0 80 61 00
        E 0 80 64 00
        E 0 80 70 00
        E 0 80 18 00
        E 0 80 1a 00
        E 0 80 33 00
        E 420 90 3d 60
        E 0 90 49 60
        E 0 90 55 60
        E 0 90 61 60
        E 0 90 1a 60
        E 60 80 3d 00
        E 0 80 49 00
        E 0 80 55 00
        E 0 80 61 00
        E 0 80 1a 00
        E 240 90 61 60
        E 0 90 1a 60
        E 60 80 61 00
        E 0 80 1a 00
        E 120 90 3d 60
        E 0 90 49 60
        E 0 90 54 60
        E 0 90 55 60
        E 0 90 60 60
        E 0 90 61 60
        E 0 90 18 60
        E 0 90 1b 60
        E 60 80 3d 00
        E 0 80 49 00
        E 0 80 54 00
        E 0 80 55 00
        E 0 80 60 00
        E 0 80 61 00
        E 0 80 18 00
        E 0 80 1b 00
        E 240 90 61 60
        E 0 90 1a 60
        E 60 80 61 00
        E 0 80 1a 00
        E 120 90 3d 60
        E 0 90 49 60
        E 0 90 54 60
        E 0 90 55 60
        E 0 90 60 60
        E 0 90 61 60
        E 0 90 18 60
        E 0 90 1b 60
        E 60 80 3d 00
        E 0 80 49 00
        E 0 80 54 00
        E 0 80 55 00
        E 0 80 60 00
        E 0 80 61 00
        E 0 80 18 00
        E 0 80 1b 00
        <X 480 0
          /wFbaWRsZV9yZWFsdGltZV0=
        >
        E 2801 b0 7b 00
        GUID {99C52F88-C54B-4CCD-B038-A5C950AC8E6E}
        IGNTEMPO 0 120.00000000 4 4
        SRCCOLOR 1140
        VELLANE 132 38 60
        COLORMAP "C:\Users\wejaa\AppData\Roaming\REAPER\Data\color_maps\rockband_drums.png"
        TEXTSTRINGFILE "Text Events List.txt"
        CFGEDITVIEW 155501.394809 307.190088 16 8 0 0 0
        CFGEDIT 1 1 0 0 0 1 1 1 1 1 1 0.12500000 -8 -8 1370 736 1 0 1 2 0.00000000 0 0 0 0 0.500000 1 0 1.000000 64
        KEYSNAP 0 0 "102034050607" 0 "Major"
        EVTFILTER 0 -1 -1 -1 -1 0 1 0 0 -1.00000000 -1.00000000
      >
    >
  >
  <TRACK '{4C7914CC-33A7-48B8-9960-5351D184FCA9}'
    NAME "drums"
    PEAKCOL 16576
    BEAT -1
    AUTOMODE 0
    VOLPAN 1.00000000000000 0.00000000000000 -1.00000000000000 -1.00000000000000 1.00000000000000
    MUTESOLO 1 0 0
    IPHASE 0
    ISBUS 0 0
    BUSCOMP 0 0
    SHOWINMIX 1 0.666700 0.500000 1 0.500000 -1 -1 -1
    FREEMODE 0
    SEL 0
    REC 0 0 0 0 0 0 0
    VU 2
    TRACKHEIGHT 449 0
    INQ 0 0 0 0.5000000000 100 0 0 100
    NCHAN 2
    FX 1
    TRACKID {4C7914CC-33A7-48B8-9960-5351D184FCA9}
    PERF 0
    MIDIOUT -1
    MAINSEND 1 0
    <ITEM
      POSITION 0.00000000000000
      SNAPOFFS 0.00000000000000
      LENGTH 193.19002267573697
      LOOP 0
      ALLTAKES 0
      SEL 0
      FADEIN 1 0.000000 0.000000 1 0
      FADEOUT 1 0.000000 0.000000 1 0
      MUTE 0
      IGUID {17FB1752-F0DB-4E1F-A690-8E03ADFAA337}
      IID 145
      NAME "drums.wav"
      VOLPAN 1.000000 0.000000 1.000000 -1.000000
      SOFFS 0.00000000000000
      PLAYRATE 1.00000000000000 1 0.00000000000000 -1
      CHANMODE 0
      GUID {B70AFFA0-1C42-4682-AD7F-C64288C99FF9}
      <SOURCE WAVE
        FILE "separated\htdemucs\01-SONG AUDIO-consolidated-250409_1905\drums.wav"
      >
    >
  >
  <TRACK '{70C3FE4D-3BC3-4146-95C4-8AC455A2D0F5}'
    NAME "PART BASS"
    PEAKCOL 16777471
    BEAT -1
    AUTOMODE 0
    VOLPAN 1.00000000000000 0.00000000000000 -1.00000000000000 -1.00000000000000 1.00000000000000
    MUTESOLO 0 0 0
    IPHASE 0
    ISBUS 0 0
    BUSCOMP 1 0
    SHOWINMIX 1 0.666700 0.500000 1 0.500000 -1 -1 -1
    FREEMODE 0
    SEL 1
    REC 0 4096 1 0 0 0 0
    TRACKHEIGHT 176 0
    INQ 0 0 0 0.5000000000 100 0 0 100
    NCHAN 2
    FX 1
    TRACKID {70C3FE4D-3BC3-4146-95C4-8AC455A2D0F5}
    PERF 0
    MIDIOUT -1
    <MIDINOTENAMES
      0 96 "EXPERT Green"
      0 97 "EXPERT Red"
      0 98 "EXPERT Yellow"
      0 99 "EXPERT Blue"
      0 100 "EXPERT Orange"
      0 84 "HARD Green"
      0 85 "HARD Red"
      0 86 "HARD Yellow"
      0 87 "HARD Blue"
      0 88 "HARD Orange"
      0 91 "----"
      0 116 "OVERDRIVE"
      0 40 "Left Hand Lowest"
      0 59 "Left Hand Highest"
      0 58 "-"
      0 57 "-"
      0 56 "-"
      0 55 "-"
      0 54 "-"
      0 53 "-"
      0 52 "-"
      0 51 "-"
      0 50 "-"
      0 49 "-"
      0 47 "-"
      0 48 "-"
      0 46 "-"
      0 45 "-"
      0 44 "-"
      0 43 "-"
      0 42 "-"
      0 41 "-"
      0 111 "----"
      0 72 "MEDIUM Green"
      0 73 "MEDIUM Red"
      0 74 "MEDIUM Yellow"
      0 75 "MEDIUM Blue"
      0 76 "MEDIUM Orange"
      0 60 "EASY Green"
      0 61 "EASY Red"
      0 62 "EASY Yellow"
      0 63 "EASY Blue"
      0 64 "EASY Orange"
      0 68 "----"
      0 80 "----"
      0 102 "Force HOPO Off"
      0 101 "Force HOPO On"
      0 120 "BRE (use all 5)"
      0 121 "BRE"
      0 122 "BRE"
      0 123 "BRE"
      0 124 "BRE"
      0 119 "----"
      0 90 "Force HOPO Off"
      0 89 "Force HOPO On"
      0 127 "Trill Marker"
      0 125 "----"
      0 103 "Solo Marker"
      0 126 "Strum Marker"
    >
    MAINSEND 1 0
    <FXCHAIN
      WNDRECT 55 476 878 585
      SHOW 0
      LASTSEL 1
      DOCKED 0
      BYPASS 1 0
      <VST "VSTi: ReaSynth (Cockos)" "reasynth.dll" 0 ""
        eXNlcu9e7f4AAAAAAgAAAAEAAAAAAAAAAgAAAAAAAAA4AAAAAAAAAA==
        AAAAAO++rd4N8K3eAAAAAAAAAAAAAAAAAAAAADm0SD59y9s+tbSxOQ==
        AAAAALbz/T5VpCs6AAAAAAAAAAAAAAAAAAA=
      >
      FLOATPOS 0 0 0 0
      FXID {D4EC3C58-478E-4D1F-A0FC-2252BD344989}
      WAK 0
      BYPASS 0 0
      <VST "VSTi: RBN Preview (RBN)" "rbprev_vst64_beta.dll" 0 ""
        dnBicu5e7f4AAAAAAgAAAAEAAAAAAAAAAgAAAAAAAAAEAAAAAQAAAA==
        AAAAAAMAqgAAAAAAAAA=
      >
      FLOATPOS 32 32 659 497
      FXID {72D22271-4F4F-4081-90C4-66415E7AEC47}
      WAK 0
      <COMMENT 
        ICAg
      >
    >
    <ITEM
      POSITION 0.00000000000000
      SNAPOFFS 0.00000000000000
      LENGTH 193.64941555399898
      LOOP 0
      ALLTAKES 0
      SEL 1
      FADEIN 1 0.000000 0.000000 1 0
      FADEOUT 1 0.000000 0.000000 1 0
      MUTE 0
      IGUID {A1B24BBF-93B7-476C-BC6D-33F5621C633F}
      IID 8
      NAME "PART BASS"
      VOLPAN 1.000000 0.000000 1.000000 -1.000000
      SOFFS 0.00000000000000 0.00000000000000
      PLAYRATE 1.00000000000000 1 0.00000000000000 -65536
      CHANMODE 0
      GUID {344A7487-35C3-41F9-8B1E-12A4F3D7F336}
      <SOURCE MIDI
        HASDATA 1 480 QN
        POOLEDEVTS {984719DC-0AAF-4B2B-A5E2-D36A2FA399DA}
        <X 0 0
          /wNQQVJUIEJBU1M=
        >
        <X 3840 0
          /wFbaWRsZV0=
        >
        <X 1920 0
          /wFbcGxheV0=
        >
        E 0 90 3c 60
        E 0 90 48 60
        E 0 90 55 60
        E 0 90 61 60
        E 420 80 3c 00
        E 0 80 48 00
        E 0 80 55 00
        E 0 80 61 00
        E 540 90 3e 60
        E 0 90 4a 60
        E 0 90 57 60
        E 0 90 63 60
        E 480 80 3e 00
        E 0 80 4a 00
        E 0 80 57 00
        E 0 80 63 00
        E 320 90 61 60
        E 40 80 61 00
        E 120 90 3d 60
        E 0 90 49 60
        E 0 90 56 60
        E 0 90 62 60
        E 480 80 3d 00
        E 0 80 49 00
        E 0 80 56 00
        E 0 80 62 00
        E 320 90 62 60
        E 40 80 62 00
        E 120 90 3e 60
        E 0 90 4a 60
        E 0 90 57 60
        E 0 90 63 60
        E 480 80 3e 00
        E 0 80 4a 00
        E 0 80 57 00
        E 0 80 63 00
        E 320 90 61 60
        E 40 80 61 00
        E 120 90 3d 60
        E 0 90 49 60
        E 0 90 56 60
        E 0 90 62 60
        E 480 80 3d 00
        E 0 80 49 00
        E 0 80 56 00
        E 0 80 62 00
        E 480 90 3c 60
        E 0 90 48 60
        E 0 90 54 60
        E 0 90 60 60
        E 480 80 3c 00
        E 0 80 48 00
        E 0 80 54 00
        E 0 80 60 00
        E 320 90 61 60
        E 40 80 61 00
        E 120 90 3c 60
        E 0 90 48 60
        E 0 90 55 60
        E 0 90 61 60
        E 360 80 3c 00
        E 0 80 48 00
        E 120 80 55 00
        E 0 80 61 00
        E 360 90 4a 60
        E 0 90 57 60
        E 0 90 63 60
        E 40 80 4a 00
        E 0 80 57 00
        E 0 80 63 00
        E 120 90 60 60
        E 280 80 60 00
        E 40 90 3d 60
        E 0 90 49 60
        E 0 90 56 60
        E 0 90 64 60
        E 40 80 64 00
        E 80 80 3d 00
        E 0 80 49 00
        E 0 90 62 60
        E 400 80 56 00
        E 80 80 62 00
        E 40 90 48 60
        E 0 90 55 60
        E 0 90 61 60
        E 440 80 48 00
        E 0 80 55 00
        E 0 80 61 00
        E 480 90 3c 60
        E 0 90 48 60
        E 0 90 54 60
        E 0 90 60 60
        E 480 80 3c 00
        E 0 80 48 00
        E 0 80 54 00
        E 0 80 60 00
        E 300 90 62 60
        E 60 80 62 00
        E 121 90 3d 60
        E 0 90 49 60
        E 0 90 56 60
        E 0 90 62 60
        E 480 80 3d 00
        E 0 80 49 00
        E 0 80 56 00
        E 0 80 62 00
        E 300 90 63 60
        E 60 80 63 00
        E 120 90 3e 60
        E 0 90 4a 60
        E 0 90 57 60
        E 0 90 63 60
        E 479 80 3e 00
        E 0 80 4a 00
        E 1 80 57 00
        E 0 80 63 00
        E 299 90 64 60
        E 60 80 64 00
        E 120 90 3f 60
        E 0 90 4b 60
        E 0 90 58 60
        E 0 90 64 60
        E 480 80 3f 00
        E 0 80 4b 00
        E 0 80 58 00
        E 0 80 64 00
        E 60 90 74 60
        E 420 90 3e 60
        E 0 90 4a 60
        E 0 90 57 60
        E 0 90 63 60
        E 360 80 3e 00
        E 0 80 4a 00
        E 120 80 57 00
        E 0 80 63 00
        E 360 90 49 60
        E 0 90 56 60
        E 0 90 63 60
        E 40 80 63 00
        E 80 90 62 60
        E 480 80 49 00
        E 0 80 56 00
        E 0 80 62 00
        E 480 90 3d 60
        E 0 90 49 60
        E 0 90 56 60
        E 0 90 62 60
        E 40 80 3d 00
        E 0 80 49 00
        E 0 80 56 00
        E 0 80 62 00
        E 280 90 62 60
        E 40 80 62 00
        E 120 90 4a 60
        E 0 90 57 60
        E 0 90 63 60
        E 120 80 4a 00
        E 0 80 57 00
        E 200 80 63 00
        E 40 90 63 60
        E 60 80 63 00
        E 60 90 3e 60
        E 0 90 4a 60
        E 0 90 57 60
        E 0 90 63 60
        E 120 80 3e 00
        E 0 80 4a 00
        E 0 80 57 00
        E 200 80 63 00
        E 160 90 49 60
        E 0 90 56 60
        E 0 90 62 60
        E 60 80 49 00
        E 0 80 56 00
        E 0 80 62 00
        E 420 90 3e 60
        E 0 90 4a 60
        E 0 90 57 60
        E 0 90 63 60
        E 60 80 3e 00
        E 0 80 4a 00
        E 0 80 57 00
        E 0 80 63 00
        E 420 90 49 60
        E 0 90 56 60
        E 0 90 62 60
        E 60 80 49 00
        E 0 80 56 00
        E 0 80 62 00
        E 420 90 3e 60
        E 0 90 4a 60
        E 0 90 57 60
        E 0 90 63 60
        E 60 80 3e 00
        E 0 80 4a 00
        E 0 80 57 00
        E 0 80 63 00
        E 420 80 74 00
        E 0 90 49 60
        E 0 90 56 60
        E 0 90 62 60
        E 60 80 49 00
        E 0 80 56 00
        E 0 80 62 00
        E 420 90 3e 60
        E 0 90 4a 60
        E 0 90 57 60
        E 0 90 63 60
        E 40 80 3e 00
        E 0 80 4a 00
        E 0 80 57 00
        E 0 80 63 00
        E 280 90 62 60
        E 40 80 62 00
        E 120 90 49 60
        E 0 90 56 60
        E 0 90 62 60
        E 120 80 49 00
        E 0 80 56 00
        E 160 80 62 00
        E 40 90 63 60
        E 40 80 63 00
        E 120 90 3e 60
        E 0 90 4a 60
        E 0 90 57 60
        E 0 90 63 60
        E 40 80 3e 00
        E 0 80 4a 00
        E 0 80 57 00
        E 0 80 63 00
        E 440 90 49 60
        E 0 90 56 60
        E 0 90 62 60
        E 60 80 49 00
        E 0 80 56 00
        E 0 80 62 00
        E 420 90 3e 60
        E 0 90 4a 60
        E 0 90 57 60
        E 0 90 63 60
        E 60 80 3e 00
        E 0 80 4a 00
        E 0 80 57 00
        E 0 80 63 00
        E 420 90 49 60
        E 0 90 56 60
        E 0 90 62 60
        E 60 80 49 00
        E 0 80 56 00
        E 0 80 62 00
        E 420 90 3e 60
        E 0 90 4a 60
        E 0 90 57 60
        E 0 90 63 60
        E 60 80 3e 00
        E 0 80 4a 00
        E 0 80 57 00
        E 0 80 63 00
        E 420 90 49 60
        E 0 90 56 60
        E 0 90 62 60
        E 60 80 49 00
        E 0 80 56 00
        E 0 80 62 00
        E 420 90 3e 60
        E 0 90 4a 60
        E 0 90 57 60
        E 0 90 63 60
        E 60 80 3e 00
        E 0 80 4a 00
        E 0 80 57 00
        E 0 80 63 00
        E 260 90 63 60
        E 40 80 63 00
        E 120 90 4b 60
        E 0 90 58 60
        E 0 90 64 60
        E 120 80 4b 00
        E 0 80 58 00
        E 160 80 64 00
        E 40 90 64 60
        E 40 80 64 00
        E 120 90 3d 60
        E 0 90 49 60
        E 0 90 56 60
        E 0 90 62 60
        E 40 80 3d 00
        E 0 80 49 00
        E 0 80 56 00
        E 0 80 62 00
        E 1880 90 3e 60
        E 0 90 4a 60
        E 0 90 57 60
        E 0 90 63 60
        E 60 80 3e 00
        E 0 80 4a 00
        E 0 80 57 00
        E 0 80 63 00
        E 420 90 49 60
        E 0 90 56 60
        E 0 90 62 60
        E 60 80 49 00
        E 0 80 56 00
        E 0 80 62 00
        E 420 90 3e 60
        E 0 90 4a 60
        E 0 90 57 60
        E 0 90 63 60
        E 60 80 3e 00
        E 0 80 4a 00
        E 0 80 57 00
        E 0 80 63 00
        E 260 90 62 60
        E 40 80 62 00
        E 120 90 49 60
        E 0 90 56 60
        E 0 90 62 60
        E 120 80 49 00
        E 0 80 56 00
        E 160 80 62 00
        E 40 90 63 60
        E 40 80 63 00
        E 120 90 3e 60
        E 0 90 4a 60
        E 0 90 57 60
        E 0 90 63 60
        E 120 80 3e 00
        E 0 80 4a 00
        E 240 80 57 00
        E 0 80 63 00
        E 120 90 49 60
        E 0 90 56 60
        E 0 90 62 60
        E 60 80 49 00
        E 0 80 56 00
        E 0 80 62 00
        E 420 90 3e 60
        E 0 90 4a 60
        E 0 90 57 60
        E 0 90 63 60
        E 60 80 3e 00
        E 0 80 4a 00
        E 0 80 57 00
        E 0 80 63 00
        E 420 90 49 60
        E 0 90 56 60
        E 0 90 62 60
        E 40 80 49 00
        E 0 80 56 00
        E 0 80 62 00
        E 120 90 62 60
        E 40 80 62 00
        E 120 90 62 60
        E 40 80 62 00
        E 120 90 3d 60
        E 0 90 49 60
        E 0 90 56 60
        E 0 90 62 60
        E 40 80 3d 00
        E 0 80 49 00
        E 0 80 56 00
        E 0 80 62 00
        E 440 90 48 60
        E 0 90 55 60
        E 0 90 61 60
        E 60 80 48 00
        E 0 80 55 00
        E 0 80 61 00
        E 420 90 3d 60
        E 0 90 49 60
        E 0 90 56 60
        E 0 90 62 60
        E 60 80 3d 00
        E 0 80 49 00
        E 0 80 56 00
        E 0 80 62 00
        E 240 90 62 60
        E 60 80 62 00
        E 120 90 4a 60
        E 0 90 57 60
        E 0 90 63 60
        E 120 80 4a 00
        E 0 80 57 00
        E 160 80 63 00
        E 40 90 63 60
        E 40 80 63 00
        E 120 90 3d 60
        E 0 90 49 60
        E 0 90 56 60
        E 0 90 62 60
        E 0 90 74 60
        E 600 80 3d 00
        E 0 80 49 00
        E 0 80 56 00
        E 0 80 62 00
        E 1320 90 3e 60
        E 0 90 4a 60
        E 0 90 57 60
        E 0 90 63 60
        E 60 80 3e 00
        E 0 80 4a 00
        E 0 80 57 00
        E 0 80 63 00
        E 420 90 49 60
        E 0 90 56 60
        E 0 90 62 60
        E 60 80 49 00
        E 0 80 56 00
        E 0 80 62 00
        E 420 90 3e 60
        E 0 90 4a 60
        E 0 90 57 60
        E 0 90 63 60
        E 60 80 3e 00
        E 0 80 4a 00
        E 0 80 57 00
        E 0 80 63 00
        E 300 90 57 60
        E 0 90 63 60
        E 40 80 57 00
        E 0 80 63 00
        E 120 90 60 60
        E 240 80 60 00
        E 40 90 61 60
        E 40 80 61 00
        E 120 90 3c 60
        E 0 90 48 60
        E 0 90 55 60
        E 0 90 61 60
        E 120 80 3c 00
        E 0 80 48 00
        E 240 80 55 00
        E 80 80 61 00
        E 40 90 4b 60
        E 0 90 58 60
        E 0 90 64 60
        E 60 80 4b 00
        E 0 80 58 00
        E 0 80 64 00
        E 420 90 3f 60
        E 0 90 4b 60
        E 0 90 58 60
        E 0 90 64 60
        E 60 80 3f 00
        E 0 80 4b 00
        E 0 80 58 00
        E 0 80 64 00
        E 419 80 74 00
        E 1 90 3f 60
        E 0 90 4b 60
        E 0 90 58 60
        E 0 90 64 60
        E 60 80 3f 00
        E 0 80 4b 00
        E 0 80 58 00
        E 0 80 64 00
        E 420 90 3f 60
        E 0 90 4b 60
        E 0 90 58 60
        E 0 90 64 60
        E 60 80 3f 00
        E 0 80 4b 00
        E 0 80 58 00
        E 0 80 64 00
        E 420 90 3f 60
        E 0 90 4b 60
        E 0 90 58 60
        E 0 90 64 60
        E 60 80 3f 00
        E 0 80 4b 00
        E 0 80 58 00
        E 0 80 64 00
        E 240 90 64 60
        E 60 80 64 00
        E 120 90 3f 60
        E 0 90 4b 60
        E 0 90 58 60
        E 0 90 64 60
        E 120 80 3f 00
        E 0 80 4b 00
        E 0 80 58 00
        E 200 80 64 00
        E 160 90 49 60
        E 0 90 56 60
        E 0 90 62 60
        E 40 80 49 00
        E 0 80 56 00
        E 0 80 62 00
        E 120 90 62 60
        E 40 80 62 00
        E 120 90 63 60
        E 40 80 63 00
        E 120 90 3e 60
        E 0 90 4a 60
        E 0 90 57 60
        E 0 90 63 60
        E 60 80 3e 00
        E 0 80 4a 00
        E 0 80 57 00
        E 0 80 63 00
        E 420 90 49 60
        E 0 90 56 60
        E 0 90 62 60
        E 60 80 49 00
        E 0 80 56 00
        E 0 80 62 00
        E 420 90 3e 60
        E 0 90 4a 60
        E 0 90 57 60
        E 0 90 63 60
        E 60 80 3e 00
        E 0 80 4a 00
        E 0 80 57 00
        E 0 80 63 00
        E 420 90 49 60
        E 0 90 56 60
        E 0 90 62 60
        E 60 80 49 00
        E 0 80 56 00
        E 0 80 62 00
        E 420 90 3c 60
        E 0 90 48 60
        E 0 90 55 60
        E 0 90 61 60
        E 60 80 3c 00
        E 0 80 48 00
        E 0 80 55 00
        E 0 80 61 00
        E 460 90 48 60
        E 0 90 55 60
        E 0 90 61 60
        E 120 80 48 00
        E 0 80 55 00
        E 160 80 61 00
        E 40 90 55 60
        E 0 90 61 60
        E 60 80 55 00
        E 0 80 61 00
        E 100 90 62 60
        E 400 80 62 00
        E 40 90 4a 60
        E 0 90 57 60
        E 0 90 63 60
        E 60 80 4a 00
        E 0 80 57 00
        E 0 80 63 00
        E 240 90 62 60
        E 60 80 62 00
        E 120 90 3c 60
        E 0 90 48 60
        E 0 90 54 60
        E 0 90 60 60
        E 120 80 3c 00
        E 0 80 48 00
        E 240 80 54 00
        E 80 80 60 00
        E 40 90 49 60
        E 0 90 56 60
        E 0 90 62 60
        E 60 80 49 00
        E 0 80 56 00
        E 0 80 62 00
        E 420 90 3e 60
        E 0 90 4a 60
        E 0 90 57 60
        E 0 90 63 60
        E 60 80 3e 00
        E 0 80 4a 00
        E 0 80 57 00
        E 0 80 63 00
        E 300 90 74 60
        E 120 90 49 60
        E 0 90 56 60
        E 0 90 62 60
        E 60 80 49 00
        E 0 80 56 00
        E 0 80 62 00
        E 120 90 62 60
        E 60 80 62 00
        E 120 90 56 60
        E 0 90 62 60
        E 60 80 56 00
        E 0 80 62 00
        E 120 90 62 60
        E 380 80 62 00
        E 40 90 48 60
        E 0 90 55 60
        E 0 90 61 60
        E 60 80 48 00
        E 0 80 55 00
        E 0 80 61 00
        E 420 90 3e 60
        E 0 90 4a 60
        E 0 90 57 60
        E 0 90 63 60
        E 60 80 3e 00
        E 0 80 4a 00
        E 0 80 57 00
        E 0 80 63 00
        E 300 90 56 60
        E 0 90 62 60
        E 60 80 56 00
        E 0 80 62 00
        E 120 90 63 60
        E 260 80 63 00
        E 40 90 4a 60
        E 0 90 57 60
        E 0 90 63 60
        E 60 80 4a 00
        E 0 80 57 00
        E 0 80 63 00
        E 120 90 62 60
        E 460 80 62 00
        E 80 80 74 00
        E 1320 90 3c 60
        E 0 90 48 60
        E 0 90 54 60
        E 0 90 60 60
        E 120 80 3c 00
        E 0 80 48 00
        E 240 80 54 00
        E 80 80 60 00
        E 40 90 49 60
        E 0 90 56 60
        E 0 90 62 60
        E 60 80 49 00
        E 0 80 56 00
        E 0 80 62 00
        E 420 90 3e 60
        E 0 90 4a 60
        E 0 90 57 60
        E 0 90 63 60
        E 400 80 3e 00
        E 0 80 4a 00
        E 0 80 57 00
        E 80 80 63 00
        E 40 90 57 60
        E 0 90 63 60
        E 120 80 57 00
        E 280 80 63 00
        E 40 90 3d 60
        E 0 90 49 60
        E 0 90 56 60
        E 0 90 62 60
        E 120 80 3d 00
        E 0 80 49 00
        E 240 80 56 00
        E 120 80 62 00
        E 0 90 48 60
        E 0 90 55 60
        E 0 90 61 60
        E 60 80 48 00
        E 0 80 55 00
        E 0 80 61 00
        E 420 90 3d 60
        E 0 90 49 60
        E 0 90 56 60
        E 0 90 62 60
        E 60 80 3d 00
        E 0 80 49 00
        E 0 80 56 00
        E 0 80 62 00
        E 420 90 48 60
        E 0 90 55 60
        E 0 90 61 60
        E 60 80 48 00
        E 0 80 55 00
        E 0 80 61 00
        E 420 90 3d 60
        E 0 90 49 60
        E 0 90 56 60
        E 0 90 62 60
        E 60 80 3d 00
        E 0 80 49 00
        E 0 80 56 00
        E 0 80 62 00
        E 420 90 48 60
        E 0 90 55 60
        E 0 90 61 60
        E 60 80 48 00
        E 0 80 55 00
        E 0 80 61 00
        E 420 90 3d 60
        E 0 90 49 60
        E 0 90 56 60
        E 0 90 62 60
        E 60 80 3d 00
        E 0 80 49 00
        E 0 80 56 00
        E 0 80 62 00
        E 260 90 61 60
        E 40 80 61 00
        E 120 90 3d 60
        E 0 90 49 60
        E 0 90 56 60
        E 0 90 62 60
        E 120 80 3d 00
        E 0 80 49 00
        E 0 80 56 00
        E 160 80 62 00
        E 40 90 61 60
        E 40 80 61 00
        E 120 90 3d 60
        E 0 90 49 60
        E 0 90 56 60
        E 0 90 62 60
        E 120 80 3d 00
        E 0 80 49 00
        E 0 80 56 00
        E 200 80 62 00
        E 160 90 48 60
        E 0 90 55 60
        E 0 90 61 60
        E 60 80 48 00
        E 0 80 55 00
        E 0 80 61 00
        E 420 90 3d 60
        E 0 90 49 60
        E 0 90 56 60
        E 0 90 62 60
        E 60 80 3d 00
        E 0 80 49 00
        E 0 80 56 00
        E 0 80 62 00
        E 420 90 48 60
        E 0 90 55 60
        E 0 90 61 60
        E 60 80 48 00
        E 0 80 55 00
        E 0 80 61 00
        E 420 90 3d 60
        E 0 90 49 60
        E 0 90 56 60
        E 0 90 62 60
        E 60 80 3d 00
        E 0 80 49 00
        E 0 80 56 00
        E 0 80 62 00
        E 420 90 48 60
        E 0 90 55 60
        E 0 90 61 60
        E 60 80 48 00
        E 0 80 55 00
        E 0 80 61 00
        E 420 90 3d 60
        E 0 90 49 60
        E 0 90 56 60
        E 0 90 62 60
        E 60 80 3d 00
        E 0 80 49 00
        E 0 80 56 00
        E 0 80 62 00
        E 420 90 48 60
        E 0 90 55 60
        E 0 90 61 60
        E 60 80 48 00
        E 0 80 55 00
        E 0 80 61 00
        E 420 90 3e 60
        E 0 90 4a 60
        E 0 90 57 60
        E 0 90 63 60
        E 60 80 3e 00
        E 0 80 4a 00
        E 0 80 57 00
        E 0 80 63 00
        E 420 90 48 60
        E 0 90 55 60
        E 0 90 61 60
        E 60 80 48 00
        E 0 80 55 00
        E 0 80 61 00
        E 420 90 3e 60
        E 0 90 4a 60
        E 0 90 57 60
        E 0 90 63 60
        E 60 80 3e 00
        E 0 80 4a 00
        E 0 80 57 00
        E 0 80 63 00
        E 420 90 48 60
        E 0 90 55 60
        E 0 90 61 60
        E 60 80 48 00
        E 0 80 55 00
        E 0 80 61 00
        E 420 90 3d 60
        E 0 90 49 60
        E 0 90 56 60
        E 0 90 62 60
        E 120 80 3d 00
        E 0 80 49 00
        E 0 80 56 00
        E 160 80 62 00
        E 40 90 63 60
        E 40 80 63 00
        E 120 90 4a 60
        E 0 90 57 60
        E 0 90 63 60
        E 120 80 4a 00
        E 0 80 57 00
        E 160 80 63 00
        E 40 90 62 60
        E 40 80 62 00
        E 120 90 3d 60
        E 0 90 49 60
        E 0 90 56 60
        E 0 90 62 60
        E 120 80 3d 00
        E 0 80 49 00
        E 240 80 56 00
        E 80 80 62 00
        E 40 90 48 60
        E 0 90 55 60
        E 0 90 61 60
        E 120 80 48 00
        E 240 80 55 00
        E 120 80 61 00
        E 0 90 3d 60
        E 0 90 49 60
        E 0 90 56 60
        E 0 90 62 60
        E 60 80 3d 00
        E 0 80 49 00
        E 0 80 56 00
        E 0 80 62 00
        E 420 90 48 60
        E 0 90 55 60
        E 0 90 61 60
        E 60 80 48 00
        E 0 80 55 00
        E 0 80 61 00
        E 420 90 3d 60
        E 0 90 49 60
        E 0 90 56 60
        E 0 90 62 60
        E 60 80 3d 00
        E 0 80 49 00
        E 0 80 56 00
        E 0 80 62 00
        E 420 90 48 60
        E 0 90 55 60
        E 0 90 61 60
        E 60 80 48 00
        E 0 80 55 00
        E 0 80 61 00
        E 420 90 3d 60
        E 0 90 49 60
        E 0 90 56 60
        E 0 90 62 60
        E 60 80 3d 00
        E 0 80 49 00
        E 0 80 56 00
        E 0 80 62 00
        E 420 90 48 60
        E 0 90 55 60
        E 0 90 61 60
        E 60 80 48 00
        E 0 80 55 00
        E 0 80 61 00
        E 420 90 3d 60
        E 0 90 49 60
        E 0 90 56 60
        E 0 90 62 60
        E 60 80 3d 00
        E 0 80 49 00
        E 0 80 56 00
        E 0 80 62 00
        E 420 90 48 60
        E 0 90 55 60
        E 0 90 61 60
        E 60 80 48 00
        E 0 80 55 00
        E 0 80 61 00
        E 420 90 3e 60
        E 0 90 4a 60
        E 0 90 57 60
        E 0 90 63 60
        E 60 80 3e 00
        E 0 80 4a 00
        E 0 80 57 00
        E 0 80 63 00
        E 420 90 48 60
        E 0 90 55 60
        E 0 90 61 60
        E 60 80 48 00
        E 0 80 55 00
        E 0 80 61 00
        E 420 90 3e 60
        E 0 90 4a 60
        E 0 90 57 60
        E 0 90 63 60
        E 60 80 3e 00
        E 0 80 4a 00
        E 0 80 57 00
        E 0 80 63 00
        E 240 90 74 60
        E 180 90 48 60
        E 0 90 55 60
        E 0 90 61 60
        E 40 80 48 00
        E 0 80 55 00
        E 0 80 61 00
        E 120 90 62 60
        E 40 80 62 00
        E 120 90 62 60
        E 40 80 62 00
        E 120 90 3d 60
        E 0 90 49 60
        E 0 90 56 60
        E 0 90 62 60
        E 40 80 3d 00
        E 0 80 49 00
        E 0 80 56 00
        E 0 80 62 00
        E 120 90 62 60
        E 40 80 62 00
        E 120 90 62 60
        E 40 80 62 00
        E 120 90 3d 60
        E 0 90 49 60
        E 0 90 56 60
        E 0 90 62 60
        E 40 80 3d 00
        E 0 80 49 00
        E 0 80 56 00
        E 0 80 62 00
        E 120 90 62 60
        E 40 80 62 00
        E 120 90 62 60
        E 40 80 62 00
        E 120 90 3d 60
        E 0 90 49 60
        E 0 90 56 60
        E 0 90 62 60
        E 40 80 3d 00
        E 0 80 49 00
        E 0 80 56 00
        E 0 80 62 00
        E 120 90 62 60
        E 40 80 62 00
        E 120 90 62 60
        E 40 80 62 00
        E 120 90 3d 60
        E 0 90 49 60
        E 0 90 56 60
        E 0 90 62 60
        E 40 80 3d 00
        E 0 80 49 00
        E 0 80 56 00
        E 0 80 62 00
        E 120 90 62 60
        E 40 80 62 00
        E 120 90 62 60
        E 40 80 62 00
        E 120 90 3d 60
        E 0 90 49 60
        E 0 90 56 60
        E 0 90 62 60
        E 40 80 3d 00
        E 0 80 49 00
        E 0 80 56 00
        E 0 80 62 00
        E 120 90 62 60
        E 40 80 62 00
        E 120 90 62 60
        E 40 80 62 00
        E 120 90 3d 60
        E 0 90 49 60
        E 0 90 56 60
        E 0 90 62 60
        E 40 80 3d 00
        E 0 80 49 00
        E 0 80 56 00
        E 0 80 62 00
        E 120 90 62 60
        E 40 80 62 00
        E 120 90 62 60
        E 40 80 62 00
        E 120 90 3d 60
        E 0 90 49 60
        E 0 90 56 60
        E 0 90 62 60
        E 40 80 3d 00
        E 0 80 49 00
        E 0 80 56 00
        E 0 80 62 00
        E 120 90 62 60
        E 40 80 62 00
        E 120 90 62 60
        E 40 80 62 00
        E 120 90 3d 60
        E 0 90 49 60
        E 0 90 56 60
        E 0 90 62 60
        E 40 80 3d 00
        E 0 80 49 00
        E 0 80 56 00
        E 0 80 62 00
        E 120 90 63 60
        E 0 90 66 7f
        E 40 80 63 00
        E 0 80 66 00
        E 120 90 54 60
        E 0 90 60 60
        E 0 90 66 7f
        E 40 80 66 00
        E 540 80 54 00
        E 20 80 60 00
        E 100 90 56 7f
        E 0 90 62 7f
        E 60 80 56 00
        E 0 80 62 00
        E 60 80 74 00
        E 300 90 3e 7f
        E 0 90 4a 7f
        E 0 90 57 7f
        E 0 90 63 7f
        E 60 80 3e 00
        E 0 80 4a 00
        E 0 80 57 00
        E 0 80 63 00
        E 460 90 49 7f
        E 0 90 56 7f
        E 0 90 62 7f
        E 40 80 49 00
        E 0 80 56 00
        E 0 80 62 00
        E 120 90 62 7f
        E 40 80 62 00
        E 120 90 56 7f
        E 0 90 62 7f
        E 40 80 56 00
        E 0 80 62 00
        E 120 90 62 7f
        E 360 80 62 00
        E 80 90 48 7f
        E 0 90 55 7f
        E 0 90 61 7f
        E 40 80 48 00
        E 0 80 55 00
        E 0 80 61 00
        E 440 90 3d 7f
        E 0 90 49 7f
        E 0 90 56 7f
        E 0 90 62 7f
        E 40 80 3d 00
        E 0 80 49 00
        E 0 80 56 00
        E 0 80 62 00
        E 320 90 56 7f
        E 0 90 62 7f
        E 40 80 56 00
        E 0 80 62 00
        E 120 90 62 7f
        E 40 80 62 00
        E 240 90 63 7f
        E 40 80 63 00
        E 120 90 3d 7f
        E 0 90 49 7f
        E 0 90 56 7f
        E 0 90 62 7f
        E 40 80 3d 00
        E 0 80 49 00
        E 0 80 56 00
        E 0 80 62 00
        E 1880 90 3c 7f
        E 0 90 48 7f
        E 0 90 54 7f
        E 0 90 60 7f
        E 60 80 3c 00
        E 0 80 48 00
        E 0 80 54 00
        E 0 80 60 00
        E 420 90 49 7f
        E 0 90 56 7f
        E 0 90 62 7f
        E 60 80 49 00
        E 0 80 56 00
        E 0 80 62 00
        E 420 90 3e 7f
        E 0 90 4a 7f
        E 0 90 57 7f
        E 0 90 63 7f
        E 60 80 3e 00
        E 0 80 4a 00
        E 0 80 57 00
        E 0 80 63 00
        E 260 90 62 7f
        E 40 80 62 00
        E 120 90 49 7f
        E 0 90 56 7f
        E 0 90 62 7f
        E 120 80 49 00
        E 0 80 56 00
        E 200 80 62 00
        E 40 90 57 7f
        E 0 90 63 7f
        E 40 80 57 00
        E 0 80 63 00
        E 120 90 63 7f
        E 40 80 63 00
        E 400 90 49 7f
        E 0 90 56 7f
        E 0 90 62 7f
        E 40 80 49 00
        E 0 80 56 00
        E 0 80 62 00
        E 440 90 3e 7f
        E 0 90 4a 7f
        E 0 90 57 7f
        E 0 90 63 7f
        E 40 80 3e 00
        E 0 80 4a 00
        E 0 80 57 00
        E 0 80 63 00
        E 440 90 49 7f
        E 0 90 56 7f
        E 0 90 62 7f
        E 40 80 49 00
        E 0 80 56 00
        E 0 80 62 00
        E 120 90 62 7f
        E 40 80 62 00
        E 120 90 62 7f
        E 40 80 62 00
        E 120 90 3d 7f
        E 0 90 49 7f
        E 0 90 56 7f
        E 0 90 62 7f
        E 120 80 3d 00
        E 0 80 49 00
        E 240 80 56 00
        E 80 80 62 00
        E 40 90 3d 7f
        E 0 90 49 7f
        E 0 90 56 7f
        E 0 90 62 7f
        E 60 80 3d 00
        E 0 80 49 00
        E 0 80 56 00
        E 0 80 62 00
        E 420 90 3d 7f
        E 0 90 49 7f
        E 0 90 56 7f
        E 0 90 62 7f
        E 60 80 3d 00
        E 0 80 49 00
        E 0 80 56 00
        E 0 80 62 00
        E 260 90 62 7f
        E 40 80 62 00
        E 120 90 4a 7f
        E 0 90 57 7f
        E 0 90 63 7f
        E 120 80 4a 00
        E 0 80 57 00
        E 160 80 63 00
        E 40 90 63 7f
        E 40 80 63 00
        E 120 90 3d 7f
        E 0 90 49 7f
        E 0 90 56 7f
        E 0 90 62 7f
        E 0 90 74 60
        E 480 80 3d 00
        E 0 80 49 00
        E 0 80 56 00
        E 0 80 62 00
        E 1440 90 3c 7f
        E 0 90 48 7f
        E 0 90 54 7f
        E 0 90 60 7f
        E 120 80 3c 00
        E 0 80 48 00
        E 240 80 54 00
        E 80 80 60 00
        E 40 90 49 7f
        E 0 90 56 7f
        E 0 90 62 7f
        E 60 80 49 00
        E 0 80 56 00
        E 0 80 62 00
        E 420 90 3e 7f
        E 0 90 4a 7f
        E 0 90 57 7f
        E 0 90 63 7f
        E 60 80 3e 00
        E 0 80 4a 00
        E 0 80 57 00
        E 0 80 63 00
        E 260 90 60 7f
        E 40 80 60 00
        E 120 90 48 7f
        E 0 90 54 7f
        E 0 90 60 7f
        E 120 80 48 00
        E 0 80 54 00
        E 160 80 60 00
        E 40 90 61 7f
        E 40 80 61 00
        E 120 90 3c 7f
        E 0 90 48 7f
        E 0 90 55 7f
        E 0 90 61 7f
        E 120 80 3c 00
        E 0 80 48 00
        E 240 80 55 00
        E 80 80 61 00
        E 40 90 4b 7f
        E 0 90 58 7f
        E 0 90 64 7f
        E 40 80 4b 00
        E 0 80 58 00
        E 0 80 64 00
        E 80 80 74 00
        E 360 90 3f 7f
        E 0 90 4b 7f
        E 0 90 58 7f
        E 0 90 64 7f
        E 40 80 3f 00
        E 0 80 4b 00
        E 0 80 58 00
        E 0 80 64 00
        E 440 90 4b 7f
        E 0 90 58 7f
        E 0 90 64 7f
        E 40 80 4b 00
        E 0 80 58 00
        E 0 80 64 00
        E 440 90 3c 7f
        E 0 90 48 7f
        E 0 90 55 7f
        E 0 90 61 7f
        E 120 80 3c 00
        E 0 80 48 00
        E 240 80 55 00
        E 80 80 61 00
        E 40 90 4b 7f
        E 0 90 58 7f
        E 0 90 64 7f
        E 40 80 4b 00
        E 0 80 58 00
        E 0 80 64 00
        E 120 90 64 7f
        E 40 80 64 00
        E 120 90 62 7f
        E 40 80 62 00
        E 120 90 3d 7f
        E 0 90 49 7f
        E 0 90 56 7f
        E 0 90 62 7f
        E 120 80 3d 00
        E 0 80 49 00
        E 240 80 56 00
        E 80 80 62 00
        E 40 90 49 7f
        E 0 90 56 7f
        E 0 90 62 7f
        E 40 80 49 00
        E 0 80 56 00
        E 0 80 62 00
        E 120 90 62 7f
        E 40 80 62 00
        E 120 90 63 7f
        E 40 80 63 00
        E 120 90 3c 7f
        E 0 90 48 7f
        E 0 90 54 7f
        E 0 90 60 7f
        E 400 80 3c 00
        E 0 80 48 00
        E 0 80 54 00
        E 40 80 60 00
        E 80 90 56 7f
        E 0 90 62 7f
        E 40 80 56 00
        E 0 80 62 00
        E 400 90 3c 7f
        E 0 90 48 7f
        E 0 90 54 7f
        E 0 90 60 7f
        E 120 80 3c 00
        E 0 80 48 00
        E 280 80 54 00
        E 40 80 60 00
        E 80 90 49 7f
        E 0 90 56 7f
        E 0 90 62 7f
        E 40 80 49 00
        E 0 80 56 00
        E 0 80 62 00
        E 440 90 3c 7f
        E 0 90 48 7f
        E 0 90 55 7f
        E 0 90 61 7f
        E 40 80 3c 00
        E 0 80 48 00
        E 0 80 55 00
        E 0 80 61 00
        E 440 90 48 7f
        E 0 90 55 7f
        E 0 90 61 7f
        E 40 80 48 00
        E 0 80 55 00
        E 0 80 61 00
        E 280 90 55 7f
        E 0 90 61 7f
        E 40 80 55 00
        E 0 80 61 00
        E 120 90 62 7f
        E 360 80 62 00
        E 120 90 3e 7f
        E 0 90 4a 7f
        E 0 90 57 7f
        E 0 90 63 7f
        E 40 80 3e 00
        E 0 80 4a 00
        E 0 80 57 00
        E 0 80 63 00
        E 280 90 56 7f
        E 0 90 62 7f
        E 40 80 56 00
        E 0 80 62 00
        E 120 90 63 7f
        E 360 80 63 00
        E 120 90 3d 7f
        E 0 90 49 7f
        E 0 90 56 7f
        E 0 90 62 7f
        E 40 80 3d 00
        E 0 80 49 00
        E 0 80 56 00
        E 0 80 62 00
        E 440 90 57 7f
        E 0 90 63 7f
        E 40 80 57 00
        E 0 80 63 00
        E 400 90 3d 7f
        E 0 90 49 7f
        E 0 90 56 7f
        E 0 90 62 7f
        E 40 80 3d 00
        E 0 80 49 00
        E 0 80 56 00
        E 0 80 62 00
        E 120 90 62 7f
        E 40 80 62 00
        E 120 90 62 7f
        E 40 80 62 00
        E 120 90 3d 7f
        E 0 90 49 7f
        E 0 90 56 7f
        E 0 90 62 7f
        E 40 80 3d 00
        E 0 80 49 00
        E 0 80 56 00
        E 0 80 62 00
        E 440 90 48 7f
        E 0 90 55 7f
        E 0 90 61 7f
        E 40 80 48 00
        E 0 80 55 00
        E 0 80 61 00
        E 440 90 3d 7f
        E 0 90 49 7f
        E 0 90 56 7f
        E 0 90 62 7f
        E 40 80 3d 00
        E 0 80 49 00
        E 0 80 56 00
        E 0 80 62 00
        E 280 90 62 7f
        E 40 80 62 00
        E 120 90 3d 7f
        E 0 90 49 7f
        E 0 90 56 7f
        E 0 90 62 7f
        E 120 80 3d 00
        E 0 80 49 00
        E 0 80 56 00
        E 200 80 62 00
        E 0 90 63 7f
        E 40 80 63 00
        E 120 90 3d 7f
        E 0 90 49 7f
        E 0 90 56 7f
        E 0 90 62 7f
        E 480 80 3d 00
        E 0 80 49 00
        E 0 80 56 00
        E 0 80 62 00
        E 1440 90 74 60
        E 40 90 4a 7f
        E 0 90 57 7f
        E 0 90 63 7f
        E 40 80 4a 00
        E 0 80 57 00
        E 0 80 63 00
        E 440 90 57 7f
        E 0 90 63 7f
        E 120 80 57 00
        E 280 80 63 00
        E 40 90 3c 7f
        E 0 90 48 7f
        E 0 90 54 7f
        E 0 90 60 7f
        E 120 80 3c 00
        E 0 80 48 00
        E 280 80 54 00
        E 80 80 60 00
        E 40 90 48 7f
        E 0 90 55 7f
        E 0 90 61 7f
        E 120 80 48 00
        E 0 80 55 00
        E 280 80 61 00
        E 40 90 3c 7f
        E 0 90 48 7f
        E 0 90 55 7f
        E 0 90 61 7f
        E 400 80 3c 00
        E 0 80 48 00
        E 0 80 55 00
        E 80 80 61 00
        E 40 90 57 7f
        E 0 90 63 7f
        E 40 80 57 00
        E 0 80 63 00
        E 240 90 61 7f
        E 40 80 61 00
        E 120 90 3c 7f
        E 0 90 48 7f
        E 0 90 55 7f
        E 0 90 61 7f
        E 400 80 3c 00
        E 0 80 48 00
        E 0 80 55 00
        E 80 80 61 00
        E 40 90 58 7f
        E 0 90 64 7f
        E 40 80 58 00
        E 0 80 64 00
        E 240 90 63 7f
        E 40 80 63 00
        E 120 90 3e 7f
        E 0 90 4a 7f
        E 0 90 57 7f
        E 0 90 63 7f
        E 120 80 3e 00
        E 0 80 4a 00
        E 240 80 57 00
        E 40 80 63 00
        E 80 90 4b 7f
        E 0 90 58 7f
        E 0 90 64 7f
        E 40 80 4b 00
        E 0 80 58 00
        E 0 80 64 00
        E 140 80 74 00
        E 140 90 62 7f
        E 40 80 62 00
        E 120 90 3d 7f
        E 0 90 49 7f
        E 0 90 56 7f
        E 0 90 62 7f
        E 120 80 3d 00
        E 0 80 49 00
        E 240 80 56 00
        E 80 80 62 00
        E 40 90 4b 7f
        E 0 90 58 7f
        E 0 90 64 7f
        E 40 80 4b 00
        E 0 80 58 00
        E 0 80 64 00
        E 240 90 62 7f
        E 40 80 62 00
        E 160 90 3d 7f
        E 0 90 49 7f
        E 0 90 56 7f
        E 0 90 62 7f
        E 120 80 3d 00
        E 0 80 49 00
        E 240 80 56 00
        E 80 80 62 00
        E 40 90 4b 7f
        E 0 90 58 7f
        E 0 90 64 7f
        E 40 80 4b 00
        E 0 80 58 00
        E 0 80 64 00
        E 440 90 3d 7f
        E 0 90 49 7f
        E 0 90 56 7f
        E 0 90 62 7f
        E 120 80 3d 00
        E 0 80 49 00
        E 240 80 56 00
        E 80 80 62 00
        E 40 90 4b 7f
        E 0 90 58 7f
        E 0 90 64 7f
        E 40 80 4b 00
        E 0 80 58 00
        E 0 80 64 00
        E 280 90 61 7f
        E 40 80 61 00
        E 120 90 3c 7f
        E 0 90 48 7f
        E 0 90 55 7f
        E 0 90 61 7f
        E 120 80 3c 00
        E 0 80 48 00
        E 240 80 55 00
        E 80 80 61 00
        E 40 90 4a 7f
        E 0 90 57 7f
        E 0 90 63 7f
        E 40 80 4a 00
        E 0 80 57 00
        E 0 80 63 00
        E 240 90 63 7f
        E 40 80 63 00
        E 160 90 3c 7f
        E 0 90 48 7f
        E 0 90 55 7f
        E 0 90 61 7f
        E 120 80 3c 00
        E 0 80 48 00
        E 240 80 55 00
        E 80 80 61 00
        E 40 90 49 7f
        E 0 90 56 7f
        E 0 90 62 7f
        E 120 80 49 00
        E 240 80 56 00
        E 80 80 62 00
        E 40 90 3f 7f
        E 0 90 4b 7f
        E 0 90 58 7f
        E 0 90 64 7f
        E 120 80 3f 00
        E 0 80 4b 00
        E 240 80 58 00
        E 80 80 64 00
        E 40 90 4a 7f
        E 0 90 57 7f
        E 0 90 63 7f
        E 40 80 4a 00
        E 0 80 57 00
        E 0 80 63 00
        E 440 90 3f 7f
        E 0 90 4b 7f
        E 0 90 58 7f
        E 0 90 64 7f
        E 40 80 3f 00
        E 0 80 4b 00
        E 0 80 58 00
        E 0 80 64 00
        E 440 90 4a 7f
        E 0 90 57 7f
        E 0 90 63 7f
        E 40 80 4a 00
        E 0 80 57 00
        E 0 80 63 00
        E 440 90 3f 7f
        E 0 90 4b 7f
        E 0 90 58 7f
        E 0 90 64 7f
        E 40 80 3f 00
        E 0 80 4b 00
        E 0 80 58 00
        E 0 80 64 00
        E 440 90 4b 7f
        E 0 90 58 7f
        E 0 90 64 7f
        E 40 80 4b 00
        E 0 80 58 00
        E 0 80 64 00
        E 320 90 63 7f
        E 40 80 63 00
        E 80 90 3e 7f
        E 0 90 4a 7f
        E 0 90 57 7f
        E 0 90 63 7f
        E 40 80 3e 00
        E 0 80 4a 00
        E 0 80 57 00
        E 0 80 63 00
        E 440 90 4b 7f
        E 0 90 58 7f
        E 0 90 64 7f
        E 40 80 4b 00
        E 0 80 58 00
        E 0 80 64 00
        E 280 90 60 7f
        E 40 80 60 00
        E 120 90 3c 7f
        E 0 90 48 7f
        E 0 90 54 7f
        E 0 90 60 7f
        E 120 80 3c 00
        E 0 80 48 00
        E 240 80 54 00
        E 80 80 60 00
        E 40 90 49 7f
        E 0 90 56 7f
        E 0 90 62 7f
        E 40 80 49 00
        E 0 80 56 00
        E 0 80 62 00
        E 440 90 3c 7f
        E 0 90 48 7f
        E 0 90 54 7f
        E 0 90 60 7f
        E 40 80 3c 00
        E 0 80 48 00
        E 0 80 54 00
        E 0 80 60 00
        E 440 90 4b 7f
        E 0 90 58 7f
        E 0 90 64 7f
        E 40 80 4b 00
        E 0 80 58 00
        E 0 80 64 00
        E 80 90 74 60
        E 160 90 54 7f
        E 0 90 60 7f
        E 40 80 54 00
        E 0 80 60 00
        E 280 90 3d 7f
        E 0 90 49 7f
        E 0 90 56 7f
        E 0 90 62 7f
        E 40 80 3d 00
        E 0 80 49 00
        E 0 80 56 00
        E 0 80 62 00
        E 840 90 4b 7f
        E 0 90 58 7f
        E 0 90 64 7f
        E 40 80 4b 00
        E 0 80 58 00
        E 0 80 64 00
        E 920 90 3d 7f
        E 0 90 49 7f
        E 0 90 56 7f
        E 0 90 62 7f
        E 40 80 3d 00
        E 0 80 49 00
        E 0 80 56 00
        E 0 80 62 00
        E 880 90 3d 7f
        E 0 90 49 7f
        E 0 90 56 7f
        E 0 90 62 7f
        E 40 80 3d 00
        E 0 80 49 00
        E 0 80 56 00
        E 0 80 62 00
        E 920 90 3d 7f
        E 0 90 49 7f
        E 0 90 56 7f
        E 0 90 62 7f
        E 40 80 3d 00
        E 0 80 49 00
        E 0 80 56 00
        E 0 80 62 00
        E 320 80 74 00
        E 120 90 4a 7f
        E 0 90 57 7f
        E 0 90 63 7f
        E 40 80 4a 00
        E 0 80 57 00
        E 0 80 63 00
        E 440 90 3d 7f
        E 0 90 49 7f
        E 0 90 56 7f
        E 0 90 62 7f
        E 40 80 3d 00
        E 0 80 49 00
        E 0 80 56 00
        E 0 80 62 00
        E 440 90 4a 7f
        E 0 90 57 7f
        E 0 90 63 7f
        E 40 80 4a 00
        E 0 80 57 00
        E 0 80 63 00
        E 440 90 3e 7f
        E 0 90 4a 7f
        E 0 90 57 7f
        E 0 90 63 7f
        E 40 80 3e 00
        E 0 80 4a 00
        E 0 80 57 00
        E 0 80 63 00
        E 440 90 49 7f
        E 0 90 56 7f
        E 0 90 62 7f
        E 40 80 49 00
        E 0 80 56 00
        E 0 80 62 00
        E 440 90 3e 7f
        E 0 90 4a 7f
        E 0 90 57 7f
        E 0 90 63 7f
        E 40 80 3e 00
        E 0 80 4a 00
        E 0 80 57 00
        E 0 80 63 00
        E 440 90 3e 7f
        E 0 90 4a 7f
        E 0 90 57 7f
        E 0 90 63 7f
        E 120 80 3e 00
        E 0 80 4a 00
        E 280 80 57 00
        E 80 80 63 00
        E 40 90 4a 7f
        E 0 90 57 7f
        E 0 90 63 7f
        E 120 80 4a 00
        E 240 80 57 00
        E 80 80 63 00
        E 40 90 3d 7f
        E 0 90 49 7f
        E 0 90 56 7f
        E 0 90 62 7f
        E 40 80 3d 00
        E 0 80 49 00
        E 0 80 56 00
        E 0 80 62 00
        E 440 90 4a 7f
        E 0 90 57 7f
        E 0 90 63 7f
        E 40 80 4a 00
        E 0 80 57 00
        E 0 80 63 00
        E 440 90 56 7f
        E 0 90 62 7f
        E 40 80 56 00
        E 0 80 62 00
        E 240 90 63 7f
        E 40 80 63 00
        E 120 90 3e 7f
        E 0 90 4a 7f
        E 0 90 57 7f
        E 0 90 63 7f
        E 400 80 3e 00
        E 0 80 4a 00
        E 0 80 57 00
        E 80 80 63 00
        E 40 90 56 7f
        E 0 90 62 7f
        E 40 80 56 00
        E 0 80 62 00
        E 400 90 3e 7f
        E 0 90 4a 7f
        E 0 90 57 7f
        E 0 90 63 7f
        E 40 80 3e 00
        E 0 80 4a 00
        E 0 80 57 00
        E 0 80 63 00
        E 440 90 49 7f
        E 0 90 56 7f
        E 0 90 62 7f
        E 40 80 49 00
        E 0 80 56 00
        E 0 80 62 00
        E 281 90 63 7f
        E 40 80 63 00
        E 118 90 3c 7f
        E 0 90 48 7f
        E 0 90 54 7f
        E 0 90 60 7f
        E 41 80 3c 00
        E 0 80 48 00
        E 0 80 54 00
        E 0 80 60 00
        E 120 90 62 7f
        E 320 80 62 00
        E 40 90 56 7f
        E 0 90 62 7f
        E 40 80 56 00
        E 0 80 62 00
        E 400 90 3e 7f
        E 0 90 4a 7f
        E 0 90 57 7f
        E 0 90 63 7f
        E 40 80 3e 00
        E 0 80 4a 00
        E 0 80 57 00
        E 0 80 63 00
        E 440 90 49 7f
        E 0 90 56 7f
        E 0 90 62 7f
        E 40 80 49 00
        E 0 80 56 00
        E 0 80 62 00
        E 440 90 3e 7f
        E 0 90 4a 7f
        E 0 90 57 7f
        E 0 90 63 7f
        E 40 80 3e 00
        E 0 80 4a 00
        E 0 80 57 00
        E 0 80 63 00
        E 320 90 57 60
        E 0 90 63 60
        E 40 80 57 00
        E 0 80 63 00
        E 120 90 63 60
        E 240 80 63 00
        E 40 90 63 60
        E 40 80 63 00
        E 120 90 3e 60
        E 0 90 4a 60
        E 0 90 57 60
        E 0 90 63 60
        E 120 80 3e 00
        E 0 80 4a 00
        E 240 80 57 00
        E 80 80 63 00
        E 40 90 49 60
        E 0 90 56 60
        E 0 90 62 60
        E 40 80 49 00
        E 0 80 56 00
        E 0 80 62 00
        E 440 90 3e 60
        E 0 90 4a 60
        E 0 90 57 60
        E 0 90 63 60
        E 40 80 3e 00
        E 0 80 4a 00
        E 0 80 57 00
        E 0 80 63 00
        E 440 90 49 60
        E 0 90 56 60
        E 0 90 62 60
        E 40 80 49 00
        E 0 80 56 00
        E 0 80 62 00
        E 440 90 3e 60
        E 0 90 4a 60
        E 0 90 57 60
        E 0 90 63 60
        E 40 80 3e 00
        E 0 80 4a 00
        E 0 80 57 00
        E 0 80 63 00
        E 440 90 49 60
        E 0 90 56 60
        E 0 90 62 60
        E 40 80 49 00
        E 0 80 56 00
        E 0 80 62 00
        E 440 90 3e 60
        E 0 90 4a 60
        E 0 90 57 60
        E 0 90 63 60
        E 40 80 3e 00
        E 0 80 4a 00
        E 0 80 57 00
        E 0 80 63 00
        E 440 90 49 60
        E 0 90 56 60
        E 0 90 62 60
        E 40 80 49 00
        E 0 80 56 00
        E 0 80 62 00
        E 440 90 3e 60
        E 0 90 4a 60
        E 0 90 57 60
        E 0 90 63 60
        E 40 80 3e 00
        E 0 80 4a 00
        E 0 80 57 00
        E 0 80 63 00
        E 440 90 49 60
        E 0 90 56 60
        E 0 90 62 60
        E 40 80 49 00
        E 0 80 56 00
        E 0 80 62 00
        E 440 90 3e 60
        E 0 90 4a 60
        E 0 90 57 60
        E 0 90 63 60
        E 40 80 3e 00
        E 0 80 4a 00
        E 0 80 57 00
        E 0 80 63 00
        E 440 90 49 60
        E 0 90 56 60
        E 0 90 62 60
        E 40 80 49 00
        E 0 80 56 00
        E 0 80 62 00
        E 439 90 3e 60
        E 0 90 4a 60
        E 0 90 57 60
        E 0 90 63 60
        E 40 80 3e 00
        E 0 80 4a 00
        E 0 80 57 00
        E 0 80 63 00
        E 441 90 49 60
        E 0 90 56 60
        E 0 90 62 60
        E 40 80 49 00
        E 0 80 56 00
        E 0 80 62 00
        E 260 90 74 60
        E 180 90 3d 60
        E 0 90 49 60
        E 0 90 56 60
        E 0 90 62 60
        E 40 80 3d 00
        E 0 80 49 00
        E 0 80 56 00
        E 0 80 62 00
        E 120 90 62 60
        E 40 80 62 00
        E 120 90 62 60
        E 40 80 62 00
        E 120 90 3d 60
        E 0 90 49 60
        E 0 90 56 60
        E 0 90 62 60
        E 40 80 3d 00
        E 0 80 49 00
        E 0 80 56 00
        E 0 80 62 00
        E 120 90 62 60
        E 40 80 62 00
        E 120 90 62 60
        E 40 80 62 00
        E 120 90 3d 60
        E 0 90 49 60
        E 0 90 56 60
        E 0 90 62 60
        E 40 80 3d 00
        E 0 80 49 00
        E 0 80 56 00
        E 0 80 62 00
        E 120 90 62 60
        E 40 80 62 00
        E 120 90 62 60
        E 40 80 62 00
        E 120 90 49 60
        E 0 90 56 60
        E 0 90 62 60
        E 40 80 49 00
        E 0 80 56 00
        E 0 80 62 00
        E 120 90 62 60
        E 40 80 62 00
        E 120 90 62 60
        E 40 80 62 00
        E 120 90 3e 60
        E 0 90 4a 60
        E 0 90 57 60
        E 0 90 63 60
        E 40 80 3e 00
        E 0 80 4a 00
        E 0 80 57 00
        E 0 80 63 00
        E 120 90 63 60
        E 40 80 63 00
        E 120 90 63 60
        E 40 80 63 00
        E 120 90 3e 60
        E 0 90 4a 60
        E 0 90 57 60
        E 0 90 63 60
        E 40 80 3e 00
        E 0 80 4a 00
        E 0 80 57 00
        E 0 80 63 00
        E 120 90 63 60
        E 40 80 63 00
        E 120 90 63 60
        E 40 80 63 00
        E 120 90 3e 60
        E 0 90 4a 60
        E 0 90 57 60
        E 0 90 63 60
        E 40 80 3e 00
        E 0 80 4a 00
        E 0 80 57 00
        E 0 80 63 00
        E 120 90 63 60
        E 40 80 63 00
        E 120 90 63 60
        E 40 80 63 00
        E 120 90 4a 60
        E 0 90 57 60
        E 0 90 63 60
        E 40 80 4a 00
        E 0 80 57 00
        E 0 80 63 00
        E 120 90 63 60
        E 40 80 63 00
        E 120 90 63 60
        E 40 80 63 00
        E 120 90 3c 60
        E 0 90 48 60
        E 0 90 55 60
        E 0 90 61 60
        E 400 80 3c 00
        E 0 80 48 00
        E 0 80 55 00
        E 40 80 61 00
        E 80 90 57 60
        E 0 90 63 60
        E 40 80 57 00
        E 0 80 63 00
        E 400 90 3f 60
        E 0 90 4b 60
        E 0 90 58 60
        E 0 90 64 60
        E 40 80 3f 00
        E 0 80 4b 00
        E 0 80 58 00
        E 0 80 64 00
        E 80 80 74 00
        E 360 90 4a 60
        E 0 90 57 60
        E 0 90 63 60
        E 40 80 4a 00
        E 0 80 57 00
        E 0 80 63 00
        E 280 90 54 60
        E 0 90 60 60
        E 40 80 54 00
        E 0 80 60 00
        E 160 90 60 60
        E 400 80 60 00
        E 40 90 49 60
        E 0 90 56 60
        E 0 90 62 60
        E 40 80 49 00
        E 0 80 56 00
        E 0 80 62 00
        E 440 90 3e 60
        E 0 90 4a 60
        E 0 90 57 60
        E 0 90 63 60
        E 40 80 3e 00
        E 0 80 4a 00
        E 0 80 57 00
        E 0 80 63 00
        E 280 90 63 60
        E 40 80 63 00
        E 120 90 48 60
        E 0 90 54 60
        E 0 90 60 60
        E 120 80 48 00
        E 0 80 54 00
        E 160 80 60 00
        E 40 90 61 60
        E 40 80 61 00
        E 120 90 3e 60
        E 0 90 4a 60
        E 0 90 57 60
        E 0 90 63 60
        E 40 80 3e 00
        E 0 80 4a 00
        E 0 80 57 00
        E 0 80 63 00
        E 1880 90 3c 60
        E 0 90 48 60
        E 0 90 55 60
        E 0 90 61 60
        E 40 80 3c 00
        E 0 80 48 00
        E 0 80 55 00
        E 0 80 61 00
        E 440 90 4a 60
        E 0 90 57 60
        E 0 90 63 60
        E 40 80 4a 00
        E 0 80 57 00
        E 0 80 63 00
        E 440 90 3f 60
        E 0 90 4b 60
        E 0 90 58 60
        E 0 90 64 60
        E 40 80 3f 00
        E 0 80 4b 00
        E 0 80 58 00
        E 0 80 64 00
        E 320 90 57 60
        E 0 90 63 60
        E 40 80 57 00
        E 0 80 63 00
        E 120 90 60 60
        E 240 80 60 00
        E 40 90 60 60
        E 40 80 60 00
        E 120 90 3c 60
        E 0 90 48 60
        E 0 90 55 60
        E 0 90 61 60
        E 120 80 3c 00
        E 0 80 48 00
        E 240 80 55 00
        E 80 80 61 00
        E 40 90 4a 60
        E 0 90 57 60
        E 0 90 63 60
        E 40 80 4a 00
        E 0 80 57 00
        E 0 80 63 00
        E 440 90 3f 60
        E 0 90 4b 60
        E 0 90 58 60
        E 0 90 64 60
        E 40 80 3f 00
        E 0 80 4b 00
        E 0 80 58 00
        E 0 80 64 00
        E 440 90 4a 60
        E 0 90 57 60
        E 0 90 63 60
        E 40 80 4a 00
        E 0 80 57 00
        E 0 80 63 00
        E 280 90 63 60
        E 40 80 63 00
        E 120 90 3c 60
        E 0 90 48 60
        E 0 90 54 60
        E 0 90 60 60
        E 120 80 3c 00
        E 0 80 48 00
        E 240 80 54 00
        E 80 80 60 00
        E 40 90 49 60
        E 0 90 56 60
        E 0 90 62 60
        E 40 80 49 00
        E 0 80 56 00
        E 0 80 62 00
        E 440 90 3e 60
        E 0 90 4a 60
        E 0 90 57 60
        E 0 90 63 60
        E 40 80 3e 00
        E 0 80 4a 00
        E 0 80 57 00
        E 0 80 63 00
        E 280 90 63 60
        E 40 80 63 00
        E 120 90 4b 60
        E 0 90 58 60
        E 0 90 64 60
        E 120 80 4b 00
        E 0 80 58 00
        E 160 80 64 00
        E 40 90 64 60
        E 40 80 64 00
        E 120 90 3d 60
        E 0 90 49 60
        E 0 90 56 60
        E 0 90 62 60
        E 360 80 3d 00
        E 0 80 49 00
        E 0 80 56 00
        E 0 80 62 00
        E 1500 90 74 60
        E 60 90 3f 60
        E 0 90 4b 60
        E 0 90 58 60
        E 0 90 64 60
        E 40 80 3f 00
        E 0 80 4b 00
        E 0 80 58 00
        E 0 80 64 00
        E 440 90 4a 60
        E 0 90 57 60
        E 0 90 63 60
        E 40 80 4a 00
        E 0 80 57 00
        E 0 80 63 00
        E 440 90 3f 60
        E 0 90 4b 60
        E 0 90 58 60
        E 0 90 64 60
        E 120 80 3f 00
        E 0 80 4b 00
        E 0 80 58 00
        E 160 80 64 00
        E 40 90 61 60
        E 40 80 61 00
        E 120 90 48 60
        E 0 90 55 60
        E 0 90 61 60
        E 120 80 48 00
        E 0 80 55 00
        E 160 80 61 00
        E 40 90 62 60
        E 40 80 62 00
        E 120 90 3d 60
        E 0 90 49 60
        E 0 90 56 60
        E 0 90 62 60
        E 120 80 3d 00
        E 0 80 49 00
        E 240 80 56 00
        E 80 80 62 00
        E 40 90 4b 60
        E 0 90 58 60
        E 0 90 64 60
        E 40 80 4b 00
        E 0 80 58 00
        E 0 80 64 00
        E 440 90 3d 60
        E 0 90 49 60
        E 0 90 56 60
        E 0 90 62 60
        E 120 80 3d 00
        E 0 80 49 00
        E 280 80 56 00
        E 80 80 62 00
        E 40 90 49 60
        E 0 90 56 60
        E 0 90 62 60
        E 40 80 49 00
        E 0 80 56 00
        E 0 80 62 00
        E 220 80 74 00
        E 180 90 3d 60
        E 0 90 49 60
        E 0 90 56 60
        E 0 90 62 60
        E 120 80 3d 00
        E 0 80 49 00
        E 240 80 56 00
        E 80 80 62 00
        E 40 90 4b 60
        E 0 90 58 60
        E 0 90 64 60
        E 40 80 4b 00
        E 0 80 58 00
        E 0 80 64 00
        E 120 90 64 60
        E 40 80 64 00
        E 120 90 63 60
        E 40 80 63 00
        E 120 90 3e 60
        E 0 90 4a 60
        E 0 90 57 60
        E 0 90 63 60
        E 120 80 3e 00
        E 0 80 4a 00
        E 240 80 57 00
        E 80 80 63 00
        E 40 90 4a 60
        E 0 90 57 60
        E 0 90 63 60
        E 40 80 4a 00
        E 0 80 57 00
        E 0 80 63 00
        E 120 90 63 60
        E 40 80 63 00
        E 120 90 64 60
        E 40 80 64 00
        E 120 90 3c 60
        E 0 90 48 60
        E 0 90 55 60
        E 0 90 61 60
        E 120 80 3c 00
        E 0 80 48 00
        E 280 80 55 00
        E 80 80 61 00
        E 40 90 4a 60
        E 0 90 57 60
        E 0 90 63 60
        E 40 80 4a 00
        E 0 80 57 00
        E 0 80 63 00
        E 440 90 3c 60
        E 0 90 48 60
        E 0 90 55 60
        E 0 90 61 60
        E 120 80 3c 00
        E 0 80 48 00
        E 240 80 55 00
        E 80 80 61 00
        E 40 90 4a 60
        E 0 90 57 60
        E 0 90 63 60
        E 40 80 4a 00
        E 0 80 57 00
        E 0 80 63 00
        E 440 90 3d 60
        E 0 90 49 60
        E 0 90 56 60
        E 0 90 62 60
        E 120 80 3d 00
        E 0 80 49 00
        E 240 80 56 00
        E 80 80 62 00
        E 40 90 49 60
        E 0 90 56 60
        E 0 90 62 60
        E 120 80 49 00
        E 0 80 56 00
        E 160 80 62 00
        E 40 90 56 60
        E 0 90 62 60
        E 40 80 56 00
        E 0 80 62 00
        E 120 90 63 60
        E 400 80 63 00
        E 40 90 3f 60
        E 0 90 4b 60
        E 0 90 58 60
        E 0 90 64 60
        E 120 80 3f 00
        E 0 80 4b 00
        E 0 80 58 00
        E 200 80 64 00
        E 40 90 57 60
        E 0 90 63 60
        E 40 80 57 00
        E 0 80 63 00
        E 120 90 61 60
        E 440 80 61 00
        E 40 90 3e 60
        E 0 90 4a 60
        E 0 90 57 60
        E 0 90 63 60
        E 40 80 3e 00
        E 0 80 4a 00
        E 0 80 57 00
        E 0 80 63 00
        E 440 90 58 60
        E 0 90 64 60
        E 40 80 58 00
        E 0 80 64 00
        E 400 90 4a 60
        E 0 90 57 60
        E 0 90 63 60
        E 40 80 4a 00
        E 0 80 57 00
        E 0 80 63 00
        E 280 90 63 60
        E 40 80 63 00
        E 120 90 3c 60
        E 0 90 48 60
        E 0 90 54 60
        E 0 90 60 60
        E 120 80 3c 00
        E 0 80 48 00
        E 240 80 54 00
        E 80 80 60 00
        E 40 90 49 60
        E 0 90 56 60
        E 0 90 62 60
        E 40 80 49 00
        E 0 80 56 00
        E 0 80 62 00
        E 440 90 3e 60
        E 0 90 4a 60
        E 0 90 57 60
        E 0 90 63 60
        E 40 80 3e 00
        E 0 80 4a 00
        E 0 80 57 00
        E 0 80 63 00
        E 280 90 63 60
        E 40 80 63 00
        E 120 90 4b 60
        E 0 90 58 60
        E 0 90 64 60
        E 40 80 4b 00
        E 0 80 58 00
        E 0 80 64 00
        E 280 90 64 60
        E 40 80 64 00
        E 120 90 3e 60
        E 0 90 4a 60
        E 0 90 57 60
        E 0 90 63 60
        E 40 80 3e 00
        E 0 80 4a 00
        E 0 80 57 00
        E 0 80 63 00
        E 1880 90 3f 60
        E 0 90 4b 60
        E 0 90 58 60
        E 0 90 64 60
        E 40 80 3f 00
        E 0 80 4b 00
        E 0 80 58 00
        E 0 80 64 00
        E 440 90 4b 60
        E 0 90 58 60
        E 0 90 64 60
        E 40 80 4b 00
        E 0 80 58 00
        E 0 80 64 00
        E 120 90 64 60
        E 40 80 64 00
        E 120 90 63 60
        E 40 80 63 00
        E 120 90 3e 60
        E 0 90 4a 60
        E 0 90 57 60
        E 0 90 63 60
        E 40 80 3e 00
        E 0 80 4a 00
        E 0 80 57 00
        E 0 80 63 00
        E 920 90 3c 60
        E 0 90 48 60
        E 0 90 55 60
        E 0 90 61 60
        E 120 80 3c 00
        E 0 80 48 00
        E 240 80 55 00
        E 80 80 61 00
        E 40 90 4b 60
        E 0 90 58 60
        E 0 90 64 60
        E 40 80 4b 00
        E 0 80 58 00
        E 0 80 64 00
        E 120 90 64 60
        E 40 80 64 00
        E 120 90 60 60
        E 40 80 60 00
        E 120 90 3c 60
        E 0 90 48 60
        E 0 90 54 60
        E 0 90 60 60
        E 120 80 3c 00
        E 0 80 48 00
        E 0 80 54 00
        E 200 80 60 00
        E 680 90 3c 60
        E 0 90 48 60
        E 0 90 55 60
        E 0 90 61 60
        E 40 80 3c 00
        E 0 80 48 00
        E 0 80 55 00
        E 0 80 61 00
        E 440 90 4a 60
        E 0 90 57 60
        E 0 90 63 60
        E 40 80 4a 00
        E 0 80 57 00
        E 0 80 63 00
        <X 480 0
          /wFbaWRsZV9yZWFsdGltZV0=
        >
        E 3261 b0 7b 00
        GUID {54A57D35-811F-42A6-AB75-F5706122F903}
        IGNTEMPO 0 120.00000000 4 4
        SRCCOLOR 1141
        VELLANE 132 128 60
        COLORMAP "C:\Users\wejaa\AppData\Roaming\REAPER\Data\color_maps\rockband_guitarbass.png"
        TEXTSTRINGFILE "Text Events List.txt"
        CFGEDITVIEW 107883.734428 61.057050 0 12 0 0 0
        CFGEDIT 1 1 0 0 0 1 1 1 1 1 1 0.12500000 -8 -8 1370 736 1 2 1 2 0.00000000 0 0 0 0 0.500000 1 0 1.000000 64
        KEYSNAP 0 0 "102034050607" 0 "Major"
        EVTFILTER 0 -1 -1 -1 -1 0 1 0 0 -1.00000000 -1.00000000
      >
    >
  >
  <TRACK '{B2AE6DFE-17CE-49B7-8A7F-E7AFD22109B9}'
    NAME "bass"
    PEAKCOL 16576
    BEAT -1
    AUTOMODE 0
    VOLPAN 1.00000000000000 0.00000000000000 -1.00000000000000 -1.00000000000000 1.00000000000000
    MUTESOLO 1 0 0
    IPHASE 0
    ISBUS 0 0
    BUSCOMP 0 0
    SHOWINMIX 1 0.666700 0.500000 1 0.500000 -1 -1 -1
    FREEMODE 0
    SEL 0
    REC 0 0 0 0 0 0 0
    VU 2
    TRACKHEIGHT 489 0
    INQ 0 0 0 0.5000000000 100 0 0 100
    NCHAN 2
    FX 1
    TRACKID {B2AE6DFE-17CE-49B7-8A7F-E7AFD22109B9}
    PERF 0
    MIDIOUT -1
    MAINSEND 1 0
    <FXCHAIN
      SHOW 0
      LASTSEL 0
      DOCKED 0
    >
    <ITEM
      POSITION 0.00000000000000
      SNAPOFFS 0.00000000000000
      LENGTH 193.19002267573697
      LOOP 0
      ALLTAKES 0
      SEL 0
      FADEIN 1 0.000000 0.000000 1 0
      FADEOUT 1 0.000000 0.000000 1 0
      MUTE 0
      IGUID {8ED1CF4F-135A-41F7-B39E-0858B46DC576}
      IID 143
      NAME "bass.wav"
      VOLPAN 1.000000 0.000000 1.000000 -1.000000
      SOFFS 0.00000000000000
      PLAYRATE 1.00000000000000 1 0.00000000000000 -1
      CHANMODE 0
      GUID {F6B2251D-AAC7-431A-859D-6D5E9421B45C}
      <SOURCE WAVE
        FILE "separated\htdemucs\01-SONG AUDIO-consolidated-250409_1905\bass.wav"
      >
    >
  >
  <TRACK '{6B7F9B4B-FF4E-4CE6-9E2D-4C9BD5DAED77}'
    NAME "PART GUITAR"
    PEAKCOL 33488896
    BEAT -1
    AUTOMODE 0
    VOLPAN 1.00000000000000 0.00000000000000 -1.00000000000000 -1.00000000000000 1.00000000000000
    MUTESOLO 0 0 0
    IPHASE 0
    ISBUS 0 0
    BUSCOMP 1 0
    SHOWINMIX 1 0.666700 0.500000 1 0.500000 -1 -1 -1
    FREEMODE 0
    SEL 0
    REC 0 4096 1 7 0 0 0
    TRACKHEIGHT 110 0
    INQ 0 0 0 0.5000000000 100 0 0 100
    NCHAN 2
    FX 1
    TRACKID {6B7F9B4B-FF4E-4CE6-9E2D-4C9BD5DAED77}
    PERF 0
    MIDIOUT -1
    <MIDINOTENAMES
      0 116 "OVERDRIVE"
      0 102 "Force HOPO Off"
      0 101 "Force HOPO On"
      0 100 "EXPERT Orange"
      0 99 "EXPERT Blue"
      0 98 "EXPERT Yellow"
      0 97 "EXPERT Red"
      0 96 "EXPERT Green"
      0 88 "HARD Orange"
      0 87 "HARD Blue"
      0 86 "HARD Yellow"
      0 85 "HARD Red"
      0 84 "HARD Green"
      0 76 "MEDIUM Orange"
      0 75 "MEDIUM Blue"
      0 74 "MEDIUM Yellow"
      0 73 "MEDIUM Red"
      0 72 "MEDIUM Green"
      0 64 "EASY Orange"
      0 63 "EASY Blue"
      0 62 "EASY Yellow"
      0 61 "EASY Red"
      0 60 "EASY Green"
      0 59 "Left Hand Highest"
      0 40 "Left Hand Lowest"
      0 58 "-"
      0 57 "-"
      0 56 "-"
      0 55 "-"
      0 54 "-"
      0 53 "-"
      0 52 "-"
      0 51 "-"
      0 50 "-"
      0 49 "-"
      0 48 "-"
      0 47 "-"
      0 46 "-"
      0 45 "-"
      0 44 "-"
      0 43 "-"
      0 42 "-"
      0 41 "-"
      0 115 "----"
      0 95 "----"
      0 89 "Force HOPO On"
      0 77 "----"
      0 65 "----"
      0 119 "----"
      0 120 "BRE (use all 5)"
      0 121 "BRE"
      0 122 "BRE"
      0 123 "BRE"
      0 124 "BRE"
      0 90 "Force HOPO Off"
      0 103 "Solo Marker"
      0 127 "Trill Marker"
      0 125 "----"
      0 126 "Strum Marker"
    >
    MAINSEND 1 0
    <FXCHAIN
      WNDRECT -1073 629 878 585
      SHOW 0
      LASTSEL 1
      DOCKED 0
      BYPASS 1 0
      <VST "VSTi: ReaSynth (Cockos)" "reasynth.dll" 0 ""
        eXNlcu9e7f4AAAAAAgAAAAEAAAAAAAAAAgAAAAAAAAA4AAAAAAAAAA==
        AAAAAO++rd4N8K3eAAAAAAAAAAAAAAAAAAAAADm0SD59y9s+tbSxOQ==
        AAAAALbz/T5VpCs6AAAAAAAAAAAAAAAAAAA=
      >
      FLOATPOS 0 0 0 0
      FXID {52B28C73-185B-48E4-B8F4-1FD7A8848B0F}
      WAK 0
      BYPASS 0 0
      <VST "VSTi: RBN Preview (RBN)" "rbprev_vst64_beta.dll" 0 ""
        dnBicu5e7f4AAAAAAgAAAAEAAAAAAAAAAgAAAAAAAAAEAAAAAQAAAA==
        AAAAAAMAqgAAAAAAAAA=
      >
      FLOATPOS 32 32 659 497
      FXID {190BBB08-7A86-476B-BD07-5F71F5CD6F7C}
      WAK 0
    >
    <ITEM
      POSITION 0.00000000000000
      SNAPOFFS 0.00000000000000
      LENGTH 193.64941555399898
      LOOP 0
      ALLTAKES 0
      SEL 0
      FADEIN 1 0.000000 0.000000 1 0
      FADEOUT 1 0.000000 0.000000 1 0
      MUTE 0
      IGUID {81210F06-DA35-41E7-BA75-C6E1C5689733}
      IID 9
      NAME "PART GUITAR"
      VOLPAN 1.000000 0.000000 1.000000 -1.000000
      SOFFS 0.00000000000000 0.00000000000000
      PLAYRATE 1.00000000000000 1 0.00000000000000 -65536
      CHANMODE 0
      GUID {61757875-B3D4-49E4-8483-EE351B7D2386}
      <SOURCE MIDI
        HASDATA 1 480 QN
        POOLEDEVTS {08C158C1-A4E0-4C7B-ABFC-FE3F570624BF}
        <X 0 0
          /wNQQVJUIEdVSVRBUg==
        >
        <X 3840 0
          /wFbcGxheV0=
        >
        E 300 90 67 60
        E 120 90 3c 60
        E 0 90 48 60
        E 0 90 54 60
        E 0 90 60 60
        E 20 80 3c 00
        E 0 80 48 00
        E 0 80 54 00
        E 0 80 60 00
        E 80 90 61 60
        E 20 80 61 00
        E 80 90 62 60
        E 20 80 62 00
        E 80 90 57 60
        E 0 90 63 60
        E 20 80 57 00
        E 0 80 63 00
        E 80 90 60 60
        E 20 80 60 00
        E 80 90 61 60
        E 20 80 61 00
        E 80 90 62 60
        E 20 80 62 00
        E 80 90 63 60
        E 20 80 63 00
        E 80 90 55 60
        E 0 90 61 60
        E 20 80 55 00
        E 0 80 61 00
        E 80 90 62 60
        E 20 80 62 00
        E 80 90 4a 60
        E 0 90 57 60
        E 0 90 63 60
        E 20 80 4a 00
        E 0 80 57 00
        E 0 80 63 00
        E 80 90 64 60
        E 20 80 64 00
        E 80 90 61 60
        E 20 80 61 00
        E 80 90 62 60
        E 20 80 62 00
        E 80 90 63 60
        E 20 80 63 00
        E 80 90 3e 60
        E 0 90 4b 60
        E 0 90 58 60
        E 0 90 64 60
        E 20 80 3e 00
        E 0 80 4b 00
        E 0 80 58 00
        E 0 80 64 00
        E 160 90 63 60
        E 20 80 63 00
        E 160 90 62 60
        E 20 80 62 00
        E 120 90 48 60
        E 0 90 55 60
        E 0 90 61 60
        E 20 80 48 00
        E 0 80 55 00
        E 0 80 61 00
        E 240 90 60 60
        E 20 80 60 00
        E 160 90 3e 60
        E 0 90 4b 60
        E 0 90 58 60
        E 0 90 64 60
        E 20 80 3e 00
        E 0 80 4b 00
        E 0 80 58 00
        E 0 80 64 00
        E 160 90 63 60
        E 20 80 63 00
        E 100 90 56 60
        E 0 90 62 60
        E 20 80 56 00
        E 0 80 62 00
        E 120 90 61 60
        E 20 80 61 00
        E 300 90 49 60
        E 0 90 56 60
        E 0 90 62 60
        E 20 80 49 00
        E 0 80 56 00
        E 0 80 62 00
        E 140 90 64 60
        E 300 80 64 00
        E 60 90 3d 60
        E 0 90 4a 60
        E 0 90 57 60
        E 0 90 63 60
        E 20 80 3d 00
        E 0 80 4a 00
        E 0 80 57 00
        E 0 80 63 00
        E 120 90 63 60
        E 20 80 63 00
        E 120 90 57 60
        E 0 90 63 60
        E 20 80 57 00
        E 0 80 63 00
        E 200 90 60 60
        E 20 80 60 00
        E 80 90 48 60
        E 0 90 55 60
        E 0 90 61 60
        E 20 80 48 00
        E 0 80 55 00
        E 0 80 61 00
        E 80 90 62 60
        E 20 80 62 00
        E 80 90 63 60
        E 20 80 63 00
        E 80 90 54 60
        E 0 90 60 60
        E 20 80 54 00
        E 0 80 60 00
        E 80 90 61 60
        E 20 80 61 00
        E 80 90 62 60
        E 20 80 62 00
        E 80 90 4a 60
        E 0 90 57 60
        E 0 90 63 60
        E 20 80 4a 00
        E 0 80 57 00
        E 0 80 63 00
        E 80 90 64 60
        E 20 80 64 00
        E 100 90 63 60
        E 20 80 63 00
        E 180 90 3d 60
        E 0 90 4a 60
        E 0 90 57 60
        E 0 90 63 60
        E 20 80 3d 00
        E 0 80 4a 00
        E 0 80 57 00
        E 0 80 63 00
        E 280 90 56 60
        E 0 90 62 60
        E 20 80 56 00
        E 0 80 62 00
        E 120 90 61 60
        E 20 80 61 00
        E 180 90 48 60
        E 0 90 54 60
        E 0 90 60 60
        E 20 80 48 00
        E 0 80 54 00
        E 0 80 60 00
        E 120 90 63 60
        E 20 80 63 00
        E 120 90 58 60
        E 0 90 64 60
        E 20 80 58 00
        E 0 80 64 00
        E 140 90 64 60
        E 20 80 64 00
        E 140 90 4a 60
        E 0 90 57 60
        E 0 90 63 60
        E 20 80 4a 00
        E 0 80 57 00
        E 0 80 63 00
        E 120 90 63 60
        E 300 80 63 00
        E 60 90 61 60
        E 20 80 61 00
        E 160 90 3e 60
        E 0 90 4b 60
        E 0 90 58 60
        E 0 90 64 60
        E 120 80 3e 00
        E 0 80 4b 00
        E 0 80 58 00
        E 120 80 64 00
        E 60 90 64 60
        E 20 80 64 00
        E 140 90 4a 60
        E 0 90 57 60
        E 0 90 63 60
        E 20 80 4a 00
        E 0 80 57 00
        E 0 80 63 00
        E 140 90 62 60
        E 20 80 62 00
        E 140 90 60 60
        E 20 80 60 00
        E 80 90 61 60
        E 20 80 61 00
        E 80 90 3c 60
        E 0 90 49 60
        E 0 90 56 60
        E 0 90 62 60
        E 20 80 3c 00
        E 0 80 49 00
        E 0 80 56 00
        E 0 80 62 00
        E 80 90 63 60
        E 20 80 63 00
        E 80 90 54 60
        E 0 90 60 60
        E 20 80 54 00
        E 0 80 60 00
        E 80 90 61 60
        E 20 80 61 00
        E 80 90 62 60
        E 20 80 62 00
        E 80 90 4a 60
        E 0 90 57 60
        E 0 90 63 60
        E 120 80 4a 00
        E 0 80 57 00
        E 260 80 63 00
        E 60 90 3d 60
        E 0 90 4a 60
        E 0 90 57 60
        E 0 90 63 60
        E 20 80 3d 00
        E 0 80 4a 00
        E 0 80 57 00
        E 0 80 63 00
        E 300 90 62 60
        E 20 80 62 00
        E 140 90 48 60
        E 0 90 55 60
        E 0 90 61 60
        E 20 80 48 00
        E 0 80 55 00
        E 0 80 61 00
        E 140 90 60 60
        E 20 80 60 00
        E 140 90 63 60
        E 20 80 63 00
        E 140 90 3e 60
        E 0 90 4b 60
        E 0 90 58 60
        E 0 90 64 60
        E 20 80 3e 00
        E 0 80 4b 00
        E 0 80 58 00
        E 0 80 64 00
        E 120 90 63 60
        E 19 80 63 00
        E 161 90 63 60
        E 20 80 63 00
        E 120 90 49 60
        E 0 90 56 60
        E 0 90 62 60
        E 120 80 49 00
        E 0 80 56 00
        E 140 80 62 00
        E 60 90 63 60
        E 20 80 63 00
        E 140 90 3e 60
        E 0 90 4b 60
        E 0 90 58 60
        E 0 90 64 60
        E 20 80 3e 00
        E 0 80 4b 00
        E 0 80 58 00
        E 0 80 64 00
        E 300 90 57 60
        E 0 90 63 60
        E 20 80 57 00
        E 0 80 63 00
        E 120 90 62 60
        E 20 80 62 00
        E 120 90 48 60
        E 0 90 55 60
        E 0 90 61 60
        E 20 80 48 00
        E 0 80 55 00
        E 0 80 61 00
        E 160 90 64 60
        E 360 80 64 00
        E 60 90 48 60
        E 0 90 54 60
        E 0 90 60 60
        E 20 80 48 00
        E 0 80 54 00
        E 0 80 60 00
        E 80 90 61 60
        E 20 80 61 00
        E 80 90 62 60
        E 20 80 62 00
        E 80 90 63 60
        E 20 80 63 00
        E 80 90 60 60
        E 20 80 60 00
        E 80 90 55 60
        E 0 90 61 60
        E 20 80 55 00
        E 0 80 61 00
        E 80 90 62 60
        E 20 80 62 00
        E 120 90 3c 60
        E 0 90 49 60
        E 0 90 56 60
        E 0 90 62 60
        E 0 90 66 60
        E 20 80 3c 00
        E 0 80 49 00
        E 0 80 56 00
        E 0 80 62 00
        E 0 80 66 00
        E 140 90 62 60
        E 20 80 62 00
        E 120 90 55 60
        E 0 90 61 60
        E 20 80 55 00
        E 0 80 61 00
        E 120 90 61 60
        E 20 80 61 00
        E 80 90 74 60
        E 80 90 4a 60
        E 0 90 57 60
        E 0 90 63 60
        E 20 80 4a 00
        E 0 80 57 00
        E 0 80 63 00
        E 120 90 64 60
        E 20 80 64 00
        E 120 90 57 60
        E 0 90 63 60
        E 20 80 57 00
        E 0 80 63 00
        E 160 90 63 60
        E 20 80 63 00
        E 120 90 3e 60
        E 0 90 4b 60
        E 0 90 58 60
        E 0 90 64 60
        E 20 80 3e 00
        E 0 80 4b 00
        E 0 80 58 00
        E 0 80 64 00
        E 120 90 62 60
        E 300 80 62 00
        E 60 90 4a 60
        E 0 90 57 60
        E 0 90 63 60
        E 20 80 4a 00
        E 0 80 57 00
        E 0 80 63 00
        E 140 90 64 60
        E 280 80 64 00
        E 60 90 3d 60
        E 0 90 4a 60
        E 0 90 57 60
        E 0 90 63 60
        E 20 80 3d 00
        E 0 80 4a 00
        E 0 80 57 00
        E 0 80 63 00
        E 120 90 63 60
        E 20 80 63 00
        E 140 90 64 60
        E 20 80 64 00
        E 120 90 58 60
        E 0 90 64 60
        E 20 80 58 00
        E 0 80 64 00
        E 160 90 64 60
        E 400 80 64 00
        E 60 90 3d 60
        E 0 90 4a 60
        E 0 90 57 60
        E 0 90 63 60
        E 20 80 3d 00
        E 0 80 4a 00
        E 0 80 57 00
        E 0 80 63 00
        E 140 90 63 60
        E 20 80 63 00
        E 140 90 4a 60
        E 0 90 57 60
        E 0 90 63 60
        E 19 80 4a 00
        E 0 80 57 00
        E 0 80 63 00
        E 141 90 64 60
        E 2400 80 64 00
        E 60 80 67 00
        E 0 80 74 00
        E 1440 90 3c 60
        E 0 90 48 60
        E 0 90 49 60
        E 0 90 54 60
        E 0 90 55 60
        E 0 90 60 60
        E 0 90 61 60
        E 0 90 62 60
        E 60 80 3c 00
        E 0 80 48 00
        E 0 80 49 00
        E 0 80 54 00
        E 0 80 55 00
        E 0 80 60 00
        E 0 80 61 00
        E 0 80 62 00
        E 420 90 3c 60
        E 0 90 48 60
        E 0 90 49 60
        E 0 90 54 60
        E 0 90 55 60
        E 0 90 60 60
        E 0 90 61 60
        E 0 90 62 60
        E 60 80 3c 00
        E 0 80 48 00
        E 0 80 49 00
        E 0 80 54 00
        E 0 80 55 00
        E 0 80 60 00
        E 0 80 61 00
        E 0 80 62 00
        E 420 90 3c 60
        E 0 90 48 60
        E 0 90 49 60
        E 0 90 54 60
        E 0 90 55 60
        E 0 90 60 60
        E 0 90 61 60
        E 0 90 62 60
        E 60 80 3c 00
        E 0 80 48 00
        E 0 80 49 00
        E 0 80 54 00
        E 0 80 55 00
        E 0 80 60 00
        E 0 80 61 00
        E 0 80 62 00
        E 900 90 3e 60
        E 0 90 49 60
        E 0 90 4b 60
        E 0 90 55 60
        E 0 90 57 60
        E 0 90 61 60
        E 0 90 62 60
        E 0 90 63 60
        E 60 80 3e 00
        E 0 80 49 00
        E 0 80 4b 00
        E 0 80 55 00
        E 0 80 57 00
        E 0 80 61 00
        E 0 80 62 00
        E 0 80 63 00
        E 420 90 3e 60
        E 0 90 49 60
        E 0 90 4b 60
        E 0 90 55 60
        E 0 90 57 60
        E 0 90 61 60
        E 0 90 62 60
        E 0 90 63 60
        E 60 80 3e 00
        E 0 80 49 00
        E 0 80 4b 00
        E 0 80 55 00
        E 0 80 57 00
        E 0 80 61 00
        E 0 80 62 00
        E 0 80 63 00
        E 420 90 3e 60
        E 0 90 49 60
        E 0 90 4b 60
        E 0 90 55 60
        E 0 90 57 60
        E 0 90 61 60
        E 0 90 62 60
        E 0 90 63 60
        E 60 80 3e 00
        E 0 80 49 00
        E 0 80 4b 00
        E 0 80 55 00
        E 0 80 57 00
        E 0 80 61 00
        E 0 80 62 00
        E 0 80 63 00
        E 900 90 3e 60
        E 0 90 49 60
        E 0 90 4b 60
        E 0 90 55 60
        E 0 90 57 60
        E 0 90 61 60
        E 0 90 63 60
        E 60 80 3e 00
        E 0 80 49 00
        E 0 80 4b 00
        E 0 80 55 00
        E 0 80 57 00
        E 0 80 61 00
        E 0 80 63 00
        E 420 90 3e 60
        E 0 90 49 60
        E 0 90 4b 60
        E 0 90 55 60
        E 0 90 57 60
        E 0 90 61 60
        E 0 90 63 60
        E 60 80 3e 00
        E 0 80 49 00
        E 0 80 4b 00
        E 0 80 55 00
        E 0 80 57 00
        E 0 80 61 00
        E 0 80 63 00
        E 420 90 3e 60
        E 0 90 49 60
        E 0 90 4b 60
        E 0 90 55 60
        E 0 90 57 60
        E 0 90 61 60
        E 0 90 63 60
        E 60 80 3e 00
        E 0 80 49 00
        E 0 80 4b 00
        E 0 80 55 00
        E 0 80 57 00
        E 0 80 61 00
        E 0 80 63 00
        E 900 90 3c 60
        E 0 90 48 60
        E 0 90 49 60
        E 0 90 54 60
        E 0 90 55 60
        E 0 90 60 60
        E 0 90 61 60
        E 0 90 62 60
        E 60 80 3c 00
        E 0 80 48 00
        E 0 80 49 00
        E 0 80 54 00
        E 0 80 55 00
        E 0 80 60 00
        E 0 80 61 00
        E 0 80 62 00
        E 420 90 3c 60
        E 0 90 48 60
        E 0 90 49 60
        E 0 90 54 60
        E 0 90 55 60
        E 0 90 60 60
        E 0 90 61 60
        E 0 90 62 60
        E 60 80 3c 00
        E 0 80 48 00
        E 0 80 49 00
        E 0 80 54 00
        E 0 80 55 00
        E 0 80 60 00
        E 0 80 61 00
        E 0 80 62 00
        E 420 90 3c 60
        E 0 90 48 60
        E 0 90 49 60
        E 0 90 54 60
        E 0 90 55 60
        E 0 90 60 60
        E 0 90 61 60
        E 0 90 62 60
        E 60 80 3c 00
        E 0 80 48 00
        E 0 80 49 00
        E 0 80 54 00
        E 0 80 55 00
        E 0 80 60 00
        E 0 80 61 00
        E 0 80 62 00
        E 900 90 3c 60
        E 0 90 48 60
        E 0 90 49 60
        E 0 90 54 60
        E 0 90 55 60
        E 0 90 60 60
        E 0 90 61 60
        E 0 90 62 60
        E 60 80 3c 00
        E 0 80 48 00
        E 0 80 49 00
        E 0 80 54 00
        E 0 80 55 00
        E 0 80 60 00
        E 0 80 61 00
        E 0 80 62 00
        E 420 90 3c 60
        E 0 90 48 60
        E 0 90 49 60
        E 0 90 54 60
        E 0 90 55 60
        E 0 90 60 60
        E 0 90 61 60
        E 0 90 62 60
        E 60 80 3c 00
        E 0 80 48 00
        E 0 80 49 00
        E 0 80 54 00
        E 0 80 55 00
        E 0 80 60 00
        E 0 80 61 00
        E 0 80 62 00
        E 420 90 3c 60
        E 0 90 48 60
        E 0 90 49 60
        E 0 90 54 60
        E 0 90 55 60
        E 0 90 60 60
        E 0 90 61 60
        E 0 90 62 60
        E 60 80 3c 00
        E 0 80 48 00
        E 0 80 49 00
        E 0 80 54 00
        E 0 80 55 00
        E 0 80 60 00
        E 0 80 61 00
        E 0 80 62 00
        E 900 90 3e 60
        E 0 90 49 60
        E 0 90 4b 60
        E 0 90 55 60
        E 0 90 57 60
        E 0 90 61 60
        E 0 90 62 60
        E 0 90 63 60
        E 60 80 3e 00
        E 0 80 49 00
        E 0 80 4b 00
        E 0 80 55 00
        E 0 80 57 00
        E 0 80 61 00
        E 0 80 62 00
        E 0 80 63 00
        E 420 90 3e 60
        E 0 90 49 60
        E 0 90 4b 60
        E 0 90 55 60
        E 0 90 57 60
        E 0 90 61 60
        E 0 90 62 60
        E 0 90 63 60
        E 60 80 3e 00
        E 0 80 49 00
        E 0 80 4b 00
        E 0 80 55 00
        E 0 80 57 00
        E 0 80 61 00
        E 0 80 62 00
        E 0 80 63 00
        E 420 90 3e 60
        E 0 90 49 60
        E 0 90 4b 60
        E 0 90 55 60
        E 0 90 57 60
        E 0 90 61 60
        E 0 90 62 60
        E 0 90 63 60
        E 60 80 3e 00
        E 0 80 49 00
        E 0 80 4b 00
        E 0 80 55 00
        E 0 80 57 00
        E 0 80 61 00
        E 0 80 62 00
        E 0 80 63 00
        E 900 90 3e 60
        E 0 90 49 60
        E 0 90 4b 60
        E 0 90 55 60
        E 0 90 57 60
        E 0 90 61 60
        E 0 90 63 60
        E 0 90 74 60
        E 60 80 3e 00
        E 0 80 49 00
        E 0 80 4b 00
        E 0 80 55 00
        E 0 80 57 00
        E 0 80 61 00
        E 0 80 63 00
        E 420 90 3e 60
        E 0 90 49 60
        E 0 90 4b 60
        E 0 90 55 60
        E 0 90 57 60
        E 0 90 61 60
        E 0 90 63 60
        E 60 80 3e 00
        E 0 80 49 00
        E 0 80 4b 00
        E 0 80 55 00
        E 0 80 57 00
        E 0 80 61 00
        E 0 80 63 00
        E 420 90 3e 60
        E 0 90 49 60
        E 0 90 4b 60
        E 0 90 55 60
        E 0 90 57 60
        E 0 90 61 60
        E 0 90 63 60
        E 60 80 3e 00
        E 0 80 49 00
        E 0 80 4b 00
        E 0 80 55 00
        E 0 80 57 00
        E 0 80 61 00
        E 0 80 63 00
        E 900 90 3c 60
        E 0 90 48 60
        E 0 90 49 60
        E 0 90 54 60
        E 0 90 55 60
        E 0 90 60 60
        E 0 90 61 60
        E 0 90 62 60
        E 60 80 3c 00
        E 0 80 48 00
        E 0 80 49 00
        E 0 80 54 00
        E 0 80 55 00
        E 0 80 60 00
        E 0 80 61 00
        E 0 80 62 00
        E 420 90 3c 60
        E 0 90 48 60
        E 0 90 49 60
        E 0 90 54 60
        E 0 90 55 60
        E 0 90 60 60
        E 0 90 61 60
        E 0 90 62 60
        E 60 80 3c 00
        E 0 80 48 00
        E 0 80 49 00
        E 0 80 54 00
        E 0 80 55 00
        E 0 80 60 00
        E 0 80 61 00
        E 0 80 62 00
        E 420 90 3c 60
        E 0 90 48 60
        E 0 90 49 60
        E 0 90 54 60
        E 0 90 55 60
        E 0 90 60 60
        E 0 90 61 60
        E 0 90 62 60
        E 60 80 3c 00
        E 0 80 48 00
        E 0 80 49 00
        E 0 80 54 00
        E 0 80 55 00
        E 0 80 60 00
        E 0 80 61 00
        E 0 80 62 00
        E 900 90 3d 60
        E 0 90 48 60
        E 0 90 4a 60
        E 0 90 54 60
        E 0 90 57 60
        E 0 90 60 60
        E 0 90 62 60
        E 0 90 63 60
        E 60 80 3d 00
        E 0 80 48 00
        E 0 80 4a 00
        E 0 80 54 00
        E 0 80 57 00
        E 0 80 60 00
        E 0 80 62 00
        E 0 80 63 00
        E 420 90 3d 60
        E 0 90 48 60
        E 0 90 4a 60
        E 0 90 54 60
        E 0 90 57 60
        E 0 90 60 60
        E 0 90 62 60
        E 0 90 63 60
        E 60 80 3d 00
        E 0 80 48 00
        E 0 80 4a 00
        E 0 80 54 00
        E 0 80 57 00
        E 0 80 60 00
        E 0 80 62 00
        E 0 80 63 00
        E 420 90 3d 60
        E 0 90 48 60
        E 0 90 4a 60
        E 0 90 54 60
        E 0 90 57 60
        E 0 90 60 60
        E 0 90 62 60
        E 0 90 63 60
        E 60 80 3d 00
        E 0 80 48 00
        E 0 80 4a 00
        E 0 80 54 00
        E 0 80 57 00
        E 0 80 60 00
        E 0 80 62 00
        E 0 80 63 00
        E 420 80 74 00
        E 1440 90 3e 60
        E 0 90 49 60
        E 0 90 4b 60
        E 0 90 55 60
        E 0 90 57 60
        E 0 90 61 60
        E 0 90 63 60
        E 60 80 3e 00
        E 0 80 49 00
        E 0 80 4b 00
        E 0 80 55 00
        E 0 80 57 00
        E 0 80 61 00
        E 0 80 63 00
        E 900 90 3c 60
        E 0 90 48 60
        E 0 90 49 60
        E 0 90 54 60
        E 0 90 55 60
        E 0 90 60 60
        E 0 90 61 60
        E 0 90 62 60
        E 60 80 3c 00
        E 0 80 48 00
        E 0 80 49 00
        E 0 80 54 00
        E 0 80 55 00
        E 0 80 60 00
        E 0 80 61 00
        E 0 80 62 00
        E 420 90 3c 60
        E 0 90 48 60
        E 0 90 49 60
        E 0 90 54 60
        E 0 90 55 60
        E 0 90 60 60
        E 0 90 61 60
        E 0 90 62 60
        E 60 80 3c 00
        E 0 80 48 00
        E 0 80 49 00
        E 0 80 54 00
        E 0 80 55 00
        E 0 80 60 00
        E 0 80 61 00
        E 0 80 62 00
        E 420 90 3c 60
        E 0 90 48 60
        E 0 90 49 60
        E 0 90 54 60
        E 0 90 55 60
        E 0 90 60 60
        E 0 90 61 60
        E 0 90 62 60
        E 60 80 3c 00
        E 0 80 48 00
        E 0 80 49 00
        E 0 80 54 00
        E 0 80 55 00
        E 0 80 60 00
        E 0 80 61 00
        E 0 80 62 00
        E 840 90 74 60
        E 60 90 3d 60
        E 0 90 48 60
        E 0 90 4a 60
        E 0 90 54 60
        E 0 90 57 60
        E 0 90 60 60
        E 0 90 62 60
        E 0 90 63 60
        E 60 80 3d 00
        E 0 80 48 00
        E 0 80 4a 00
        E 0 80 54 00
        E 0 80 57 00
        E 0 80 60 00
        E 0 80 62 00
        E 0 80 63 00
        E 420 90 4a 60
        E 0 90 4b 60
        E 0 90 56 60
        E 0 90 58 60
        E 0 90 61 60
        E 0 90 63 60
        E 0 90 64 60
        E 60 80 4a 00
        E 0 80 4b 00
        E 0 80 56 00
        E 0 80 58 00
        E 0 80 61 00
        E 0 80 63 00
        E 0 80 64 00
        E 420 90 3c 60
        E 0 90 48 60
        E 0 90 55 60
        E 0 90 61 60
        E 60 80 3c 00
        E 0 80 48 00
        E 0 80 55 00
        E 0 80 61 00
        E 420 90 48 60
        E 0 90 4a 60
        E 0 90 54 60
        E 0 90 57 60
        E 0 90 60 60
        E 0 90 63 60
        E 60 80 48 00
        E 0 80 4a 00
        E 0 80 54 00
        E 0 80 57 00
        E 0 80 60 00
        E 0 80 63 00
        E 420 90 3c 60
        E 0 90 48 60
        E 0 90 49 60
        E 0 90 54 60
        E 0 90 55 60
        E 0 90 60 60
        E 0 90 61 60
        E 0 90 62 60
        E 60 80 3c 00
        E 0 80 48 00
        E 0 80 49 00
        E 0 80 54 00
        E 0 80 55 00
        E 0 80 60 00
        E 0 80 61 00
        E 0 80 62 00
        E 420 90 3c 60
        E 0 90 48 60
        E 0 90 49 60
        E 0 90 54 60
        E 0 90 55 60
        E 0 90 60 60
        E 0 90 61 60
        E 0 90 62 60
        E 60 80 3c 00
        E 0 80 48 00
        E 0 80 49 00
        E 0 80 54 00
        E 0 80 55 00
        E 0 80 60 00
        E 0 80 61 00
        E 0 80 62 00
        E 420 90 3c 60
        E 0 90 48 60
        E 0 90 49 60
        E 0 90 54 60
        E 0 90 55 60
        E 0 90 60 60
        E 0 90 61 60
        E 0 90 62 60
        E 60 80 3c 00
        E 0 80 48 00
        E 0 80 49 00
        E 0 80 54 00
        E 0 80 55 00
        E 0 80 60 00
        E 0 80 61 00
        E 0 80 62 00
        E 60 80 74 00
        E 840 90 3e 60
        E 0 90 49 60
        E 0 90 4b 60
        E 0 90 55 60
        E 0 90 57 60
        E 0 90 61 60
        E 0 90 62 60
        E 0 90 63 60
        E 60 80 3e 00
        E 0 80 49 00
        E 0 80 4b 00
        E 0 80 55 00
        E 0 80 57 00
        E 0 80 61 00
        E 0 80 62 00
        E 0 80 63 00
        E 420 90 3e 60
        E 0 90 49 60
        E 0 90 4b 60
        E 0 90 55 60
        E 0 90 57 60
        E 0 90 61 60
        E 0 90 62 60
        E 0 90 63 60
        E 60 80 3e 00
        E 0 80 49 00
        E 0 80 4b 00
        E 0 80 55 00
        E 0 80 57 00
        E 0 80 61 00
        E 0 80 62 00
        E 0 80 63 00
        E 420 90 3e 60
        E 0 90 49 60
        E 0 90 4b 60
        E 0 90 55 60
        E 0 90 57 60
        E 0 90 61 60
        E 0 90 62 60
        E 0 90 63 60
        E 60 80 3e 00
        E 0 80 49 00
        E 0 80 4b 00
        E 0 80 55 00
        E 0 80 57 00
        E 0 80 61 00
        E 0 80 62 00
        E 0 80 63 00
        E 900 90 3e 60
        E 0 90 49 60
        E 0 90 4b 60
        E 0 90 55 60
        E 0 90 57 60
        E 0 90 61 60
        E 0 90 63 60
        E 60 80 3e 00
        E 0 80 49 00
        E 0 80 4b 00
        E 0 80 55 00
        E 0 80 57 00
        E 0 80 61 00
        E 0 80 63 00
        E 420 90 3e 60
        E 0 90 49 60
        E 0 90 4b 60
        E 0 90 55 60
        E 0 90 57 60
        E 0 90 61 60
        E 0 90 63 60
        E 60 80 3e 00
        E 0 80 49 00
        E 0 80 4b 00
        E 0 80 55 00
        E 0 80 57 00
        E 0 80 61 00
        E 0 80 63 00
        E 420 90 3e 60
        E 0 90 49 60
        E 0 90 4b 60
        E 0 90 55 60
        E 0 90 57 60
        E 0 90 61 60
        E 0 90 63 60
        E 60 80 3e 00
        E 0 80 49 00
        E 0 80 4b 00
        E 0 80 55 00
        E 0 80 57 00
        E 0 80 61 00
        E 0 80 63 00
        E 900 90 3c 60
        E 0 90 48 60
        E 0 90 49 60
        E 0 90 54 60
        E 0 90 55 60
        E 0 90 60 60
        E 0 90 61 60
        E 0 90 62 60
        E 60 80 3c 00
        E 0 80 48 00
        E 0 80 49 00
        E 0 80 54 00
        E 0 80 55 00
        E 0 80 60 00
        E 0 80 61 00
        E 0 80 62 00
        E 420 90 3c 60
        E 0 90 48 60
        E 0 90 49 60
        E 0 90 54 60
        E 0 90 55 60
        E 0 90 60 60
        E 0 90 61 60
        E 0 90 62 60
        E 60 80 3c 00
        E 0 80 48 00
        E 0 80 49 00
        E 0 80 54 00
        E 0 80 55 00
        E 0 80 60 00
        E 0 80 61 00
        E 0 80 62 00
        E 420 90 3c 60
        E 0 90 48 60
        E 0 90 49 60
        E 0 90 54 60
        E 0 90 55 60
        E 0 90 60 60
        E 0 90 61 60
        E 0 90 62 60
        E 60 80 3c 00
        E 0 80 48 00
        E 0 80 49 00
        E 0 80 54 00
        E 0 80 55 00
        E 0 80 60 00
        E 0 80 61 00
        E 0 80 62 00
        E 900 90 3c 60
        E 0 90 48 60
        E 0 90 55 60
        E 0 90 61 60
        E 20 80 3c 00
        E 0 80 48 00
        E 0 80 55 00
        E 0 80 61 00
        E 80 90 62 60
        E 20 80 62 00
        E 80 90 63 60
        E 20 80 63 00
        E 80 90 61 60
        E 20 80 61 00
        E 80 90 62 60
        E 20 80 62 00
        E 80 90 4a 60
        E 0 90 57 60
        E 0 90 63 60
        E 20 80 4a 00
        E 0 80 57 00
        E 0 80 63 00
        E 80 90 61 60
        E 20 80 61 00
        E 80 90 56 60
        E 0 90 62 60
        E 20 80 56 00
        E 0 80 62 00
        E 80 90 63 60
        E 20 80 63 00
        E 80 90 61 60
        E 20 80 61 00
        E 80 90 62 60
        E 20 80 62 00
        E 80 90 63 60
        E 20 80 63 00
        E 80 90 48 60
        E 0 90 55 60
        E 0 90 61 60
        E 20 80 48 00
        E 0 80 55 00
        E 0 80 61 00
        E 80 90 62 60
        E 20 80 62 00
        E 80 90 63 60
        E 20 80 63 00
        E 80 90 61 60
        E 20 80 61 00
        E 80 90 62 60
        E 20 80 62 00
        E 80 90 57 60
        E 0 90 63 60
        E 20 80 57 00
        E 0 80 63 00
        E 80 90 61 60
        E 20 80 61 00
        E 80 90 3c 60
        E 0 90 49 60
        E 0 90 56 60
        E 0 90 62 60
        E 20 80 3c 00
        E 0 80 49 00
        E 0 80 56 00
        E 0 80 62 00
        E 80 90 63 60
        E 20 80 63 00
        E 80 90 61 60
        E 20 80 61 00
        E 80 90 62 60
        E 20 80 62 00
        E 80 90 63 60
        E 20 80 63 00
        E 20 90 74 60
        E 60 90 48 60
        E 0 90 54 60
        E 0 90 60 60
        E 20 80 48 00
        E 0 80 54 00
        E 0 80 60 00
        E 80 90 61 60
        E 20 80 61 00
        E 80 90 62 60
        E 20 80 62 00
        E 80 90 60 60
        E 20 80 60 00
        E 80 90 61 60
        E 20 80 61 00
        E 80 90 3c 60
        E 0 90 49 60
        E 0 90 56 60
        E 0 90 62 60
        E 20 80 3c 00
        E 0 80 49 00
        E 0 80 56 00
        E 0 80 62 00
        E 80 90 60 60
        E 20 80 60 00
        E 80 90 55 60
        E 0 90 61 60
        E 20 80 55 00
        E 0 80 61 00
        E 80 90 62 60
        E 20 80 62 00
        E 80 90 60 60
        E 20 80 60 00
        E 80 90 55 60
        E 0 90 61 60
        E 20 80 55 00
        E 0 80 61 00
        E 80 90 62 60
        E 20 80 62 00
        E 80 80 74 00
        E 240 90 3e 60
        E 0 90 49 60
        E 0 90 4b 60
        E 0 90 55 60
        E 0 90 57 60
        E 0 90 61 60
        E 0 90 62 60
        E 0 90 63 60
        E 60 80 3e 00
        E 0 80 49 00
        E 0 80 4b 00
        E 0 80 55 00
        E 0 80 57 00
        E 0 80 61 00
        E 0 80 62 00
        E 0 80 63 00
        E 420 90 3e 60
        E 0 90 49 60
        E 0 90 4b 60
        E 0 90 55 60
        E 0 90 57 60
        E 0 90 61 60
        E 0 90 62 60
        E 0 90 63 60
        E 60 80 3e 00
        E 0 80 49 00
        E 0 80 4b 00
        E 0 80 55 00
        E 0 80 57 00
        E 0 80 61 00
        E 0 80 62 00
        E 0 80 63 00
        E 420 90 3e 60
        E 0 90 49 60
        E 0 90 4b 60
        E 0 90 55 60
        E 0 90 57 60
        E 0 90 61 60
        E 0 90 62 60
        E 0 90 63 60
        E 60 80 3e 00
        E 0 80 49 00
        E 0 80 4b 00
        E 0 80 55 00
        E 0 80 57 00
        E 0 80 61 00
        E 0 80 62 00
        E 0 80 63 00
        E 900 90 3d 60
        E 0 90 57 60
        E 0 90 63 60
        E 1 90 3e 60
        E 0 90 49 60
        E 0 90 4a 60
        E 0 90 55 60
        E 0 90 56 60
        E 0 90 61 60
        E 0 90 62 60
        E 60 80 3d 00
        E 0 80 57 00
        E 0 80 63 00
        E 0 80 3e 00
        E 0 80 49 00
        E 0 80 4a 00
        E 0 80 55 00
        E 0 80 56 00
        E 0 80 61 00
        E 0 80 62 00
        E 419 90 4a 60
        E 0 90 57 60
        E 0 90 63 60
        E 1 90 49 60
        E 0 90 55 60
        E 0 90 56 60
        E 0 90 61 60
        E 0 90 62 60
        E 59 80 4a 00
        E 1 80 57 00
        E 0 80 63 00
        E 0 80 49 00
        E 0 80 55 00
        E 0 80 56 00
        E 0 80 61 00
        E 0 80 62 00
        E 419 90 3d 60
        E 0 90 4a 60
        E 0 90 57 60
        E 0 90 63 60
        E 1 90 3e 60
        E 0 90 49 60
        E 0 90 55 60
        E 0 90 56 60
        E 0 90 61 60
        E 0 90 62 60
        E 59 80 4a 00
        E 1 80 3d 00
        E 0 80 57 00
        E 0 80 63 00
        E 0 80 3e 00
        E 0 80 49 00
        E 0 80 55 00
        E 0 80 56 00
        E 0 80 61 00
        E 0 80 62 00
        E 899 90 3d 60
        E 0 90 4a 60
        E 0 90 57 60
        E 0 90 63 60
        E 1 90 3e 60
        E 0 90 49 60
        E 0 90 55 60
        E 0 90 56 60
        E 0 90 61 60
        E 0 90 62 60
        E 59 80 4a 00
        E 1 80 3d 00
        E 0 80 57 00
        E 0 80 63 00
        E 0 80 3e 00
        E 0 80 49 00
        E 0 80 55 00
        E 0 80 56 00
        E 0 80 61 00
        E 0 80 62 00
        E 419 90 4a 60
        E 0 90 57 60
        E 0 90 63 60
        E 1 90 49 60
        E 0 90 55 60
        E 0 90 56 60
        E 0 90 61 60
        E 0 90 62 60
        E 59 80 4a 00
        E 1 80 57 00
        E 0 80 63 00
        E 0 80 49 00
        E 0 80 55 00
        E 0 80 56 00
        E 0 80 61 00
        E 0 80 62 00
        E 419 90 3d 60
        E 0 90 4a 60
        E 0 90 57 60
        E 0 90 63 60
        E 1 90 3e 60
        E 0 90 49 60
        E 0 90 55 60
        E 0 90 56 60
        E 0 90 61 60
        E 0 90 62 60
        E 59 80 4a 00
        E 1 80 3d 00
        E 0 80 57 00
        E 0 80 63 00
        E 0 80 3e 00
        E 0 80 49 00
        E 0 80 55 00
        E 0 80 56 00
        E 0 80 61 00
        E 0 80 62 00
        E 899 90 3d 60
        E 0 90 4a 60
        E 0 90 57 60
        E 0 90 63 60
        E 1 90 3e 60
        E 0 90 49 60
        E 0 90 55 60
        E 0 90 56 60
        E 0 90 61 60
        E 0 90 62 60
        E 59 80 4a 00
        E 1 80 3d 00
        E 0 80 57 00
        E 0 80 63 00
        E 0 80 3e 00
        E 0 80 49 00
        E 0 80 55 00
        E 0 80 56 00
        E 0 80 61 00
        E 0 80 62 00
        E 419 90 4a 60
        E 0 90 57 60
        E 0 90 63 60
        E 1 90 49 60
        E 0 90 55 60
        E 0 90 56 60
        E 0 90 61 60
        E 0 90 62 60
        E 59 80 4a 00
        E 1 80 57 00
        E 0 80 63 00
        E 0 80 49 00
        E 0 80 55 00
        E 0 80 56 00
        E 0 80 61 00
        E 0 80 62 00
        E 899 90 49 60
        E 0 90 4b 60
        E 0 90 55 60
        E 0 90 57 60
        E 0 90 61 60
        E 0 90 62 60
        E 0 90 63 60
        E 60 80 49 00
        E 0 80 4b 00
        E 0 80 55 00
        E 0 80 57 00
        E 0 80 61 00
        E 0 80 62 00
        E 0 80 63 00
        E 420 90 3d 60
        E 0 90 4a 60
        E 0 90 57 60
        E 0 90 63 60
        E 1 90 3e 60
        E 0 90 49 60
        E 0 90 55 60
        E 0 90 56 60
        E 0 90 61 60
        E 0 90 62 60
        E 59 80 4a 00
        E 1 80 3d 00
        E 0 80 57 00
        E 0 80 63 00
        E 0 80 3e 00
        E 0 80 49 00
        E 0 80 55 00
        E 0 80 56 00
        E 0 80 61 00
        E 0 80 62 00
        E 419 90 4a 60
        E 0 90 57 60
        E 0 90 63 60
        E 1 90 49 60
        E 0 90 55 60
        E 0 90 56 60
        E 0 90 61 60
        E 0 90 62 60
        E 59 80 4a 00
        E 1 80 57 00
        E 0 80 63 00
        E 0 80 49 00
        E 0 80 55 00
        E 0 80 56 00
        E 0 80 61 00
        E 0 80 62 00
        E 419 90 3d 60
        E 0 90 4a 60
        E 0 90 57 60
        E 0 90 63 60
        E 1 90 3e 60
        E 0 90 49 60
        E 0 90 55 60
        E 0 90 56 60
        E 0 90 61 60
        E 0 90 62 60
        E 59 80 4a 00
        E 1 80 3d 00
        E 0 80 57 00
        E 0 80 63 00
        E 0 80 3e 00
        E 0 80 49 00
        E 0 80 55 00
        E 0 80 56 00
        E 0 80 61 00
        E 0 80 62 00
        E 419 90 4a 60
        E 0 90 57 60
        E 0 90 63 60
        E 1 90 49 60
        E 0 90 55 60
        E 0 90 56 60
        E 0 90 61 60
        E 0 90 62 60
        E 59 80 4a 00
        E 1 80 57 00
        E 0 80 63 00
        E 0 80 49 00
        E 0 80 55 00
        E 0 80 56 00
        E 0 80 61 00
        E 0 80 62 00
        E 2219 90 74 60
        E 120 90 3d 60
        E 0 90 4a 60
        E 0 90 57 60
        E 0 90 63 60
        E 1 90 3e 60
        E 0 90 49 60
        E 0 90 55 60
        E 0 90 56 60
        E 0 90 61 60
        E 0 90 62 60
        E 59 80 4a 00
        E 1 80 3d 00
        E 0 80 57 00
        E 0 80 63 00
        E 0 80 3e 00
        E 0 80 49 00
        E 0 80 55 00
        E 0 80 56 00
        E 0 80 61 00
        E 0 80 62 00
        E 419 90 4a 60
        E 0 90 57 60
        E 0 90 63 60
        E 1 90 49 60
        E 0 90 55 60
        E 0 90 56 60
        E 0 90 61 60
        E 0 90 62 60
        E 59 80 4a 00
        E 1 80 57 00
        E 0 80 63 00
        E 0 80 49 00
        E 0 80 55 00
        E 0 80 56 00
        E 0 80 61 00
        E 0 80 62 00
        E 419 90 3d 60
        E 0 90 4a 60
        E 0 90 57 60
        E 0 90 63 60
        E 1 90 3e 60
        E 0 90 49 60
        E 0 90 55 60
        E 0 90 56 60
        E 0 90 61 60
        E 0 90 62 60
        E 59 80 4a 00
        E 1 80 3d 00
        E 0 80 57 00
        E 0 80 63 00
        E 0 80 3e 00
        E 0 80 49 00
        E 0 80 55 00
        E 0 80 56 00
        E 0 80 61 00
        E 0 80 62 00
        E 899 90 3e 60
        E 0 90 49 60
        E 0 90 4b 60
        E 0 90 55 60
        E 0 90 57 60
        E 0 90 61 60
        E 0 90 63 60
        E 60 80 3e 00
        E 0 80 49 00
        E 0 80 4b 00
        E 0 80 55 00
        E 0 80 57 00
        E 0 80 61 00
        E 0 80 63 00
        E 420 90 3e 60
        E 0 90 49 60
        E 0 90 4b 60
        E 0 90 55 60
        E 0 90 57 60
        E 0 90 61 60
        E 0 90 63 60
        E 60 80 3e 00
        E 0 80 49 00
        E 0 80 4b 00
        E 0 80 55 00
        E 0 80 57 00
        E 0 80 61 00
        E 0 80 63 00
        E 420 90 3e 60
        E 0 90 49 60
        E 0 90 4b 60
        E 0 90 55 60
        E 0 90 57 60
        E 0 90 61 60
        E 0 90 63 60
        E 60 80 3e 00
        E 0 80 49 00
        E 0 80 4b 00
        E 0 80 55 00
        E 0 80 57 00
        E 0 80 61 00
        E 0 80 63 00
        E 420 90 3e 60
        E 0 90 49 60
        E 0 90 4b 60
        E 0 90 55 60
        E 0 90 57 60
        E 0 90 61 60
        E 0 90 63 60
        E 60 80 3e 00
        E 0 80 49 00
        E 0 80 4b 00
        E 0 80 55 00
        E 0 80 57 00
        E 0 80 61 00
        E 0 80 63 00
        E 120 80 74 00
        E 2220 90 3c 60
        E 0 90 48 60
        E 0 90 49 60
        E 0 90 54 60
        E 0 90 55 60
        E 0 90 60 60
        E 0 90 61 60
        E 0 90 62 60
        E 60 80 3c 00
        E 0 80 48 00
        E 0 80 49 00
        E 0 80 54 00
        E 0 80 55 00
        E 0 80 60 00
        E 0 80 61 00
        E 0 80 62 00
        E 420 90 3c 60
        E 0 90 48 60
        E 0 90 49 60
        E 0 90 54 60
        E 0 90 55 60
        E 0 90 60 60
        E 0 90 61 60
        E 0 90 62 60
        E 60 80 3c 00
        E 0 80 48 00
        E 0 80 49 00
        E 0 80 54 00
        E 0 80 55 00
        E 0 80 60 00
        E 0 80 61 00
        E 0 80 62 00
        E 420 90 3c 60
        E 0 90 48 60
        E 0 90 49 60
        E 0 90 54 60
        E 0 90 55 60
        E 0 90 60 60
        E 0 90 61 60
        E 0 90 62 60
        E 60 80 3c 00
        E 0 80 48 00
        E 0 80 49 00
        E 0 80 54 00
        E 0 80 55 00
        E 0 80 60 00
        E 0 80 61 00
        E 0 80 62 00
        E 900 90 3e 60
        E 0 90 49 60
        E 0 90 4b 60
        E 0 90 55 60
        E 0 90 57 60
        E 0 90 61 60
        E 0 90 62 60
        E 0 90 63 60
        E 60 80 3e 00
        E 0 80 49 00
        E 0 80 4b 00
        E 0 80 55 00
        E 0 80 57 00
        E 0 80 61 00
        E 0 80 62 00
        E 0 80 63 00
        E 420 90 3e 60
        E 0 90 49 60
        E 0 90 4b 60
        E 0 90 55 60
        E 0 90 57 60
        E 0 90 61 60
        E 0 90 62 60
        E 0 90 63 60
        E 60 80 3e 00
        E 0 80 49 00
        E 0 80 4b 00
        E 0 80 55 00
        E 0 80 57 00
        E 0 80 61 00
        E 0 80 62 00
        E 0 80 63 00
        E 420 90 3e 60
        E 0 90 49 60
        E 0 90 4b 60
        E 0 90 55 60
        E 0 90 57 60
        E 0 90 61 60
        E 0 90 62 60
        E 0 90 63 60
        E 60 80 3e 00
        E 0 80 49 00
        E 0 80 4b 00
        E 0 80 55 00
        E 0 80 57 00
        E 0 80 61 00
        E 0 80 62 00
        E 0 80 63 00
        E 900 90 3e 60
        E 0 90 49 60
        E 0 90 4b 60
        E 0 90 55 60
        E 0 90 57 60
        E 0 90 61 60
        E 0 90 63 60
        E 60 80 3e 00
        E 0 80 49 00
        E 0 80 4b 00
        E 0 80 55 00
        E 0 80 57 00
        E 0 80 61 00
        E 0 80 63 00
        E 420 90 3e 60
        E 0 90 49 60
        E 0 90 4b 60
        E 0 90 55 60
        E 0 90 57 60
        E 0 90 61 60
        E 0 90 63 60
        E 60 80 3e 00
        E 0 80 49 00
        E 0 80 4b 00
        E 0 80 55 00
        E 0 80 57 00
        E 0 80 61 00
        E 0 80 63 00
        E 420 90 3e 60
        E 0 90 49 60
        E 0 90 4b 60
        E 0 90 55 60
        E 0 90 57 60
        E 0 90 61 60
        E 0 90 63 60
        E 60 80 3e 00
        E 0 80 49 00
        E 0 80 4b 00
        E 0 80 55 00
        E 0 80 57 00
        E 0 80 61 00
        E 0 80 63 00
        E 900 90 3c 60
        E 0 90 48 60
        E 0 90 49 60
        E 0 90 54 60
        E 0 90 55 60
        E 0 90 60 60
        E 0 90 61 60
        E 0 90 62 60
        E 60 80 3c 00
        E 0 80 48 00
        E 0 80 49 00
        E 0 80 54 00
        E 0 80 55 00
        E 0 80 60 00
        E 0 80 61 00
        E 0 80 62 00
        E 420 90 3c 60
        E 0 90 48 60
        E 0 90 49 60
        E 0 90 54 60
        E 0 90 55 60
        E 0 90 60 60
        E 0 90 61 60
        E 0 90 62 60
        E 60 80 3c 00
        E 0 80 48 00
        E 0 80 49 00
        E 0 80 54 00
        E 0 80 55 00
        E 0 80 60 00
        E 0 80 61 00
        E 0 80 62 00
        E 420 90 3c 60
        E 0 90 48 60
        E 0 90 49 60
        E 0 90 54 60
        E 0 90 55 60
        E 0 90 60 60
        E 0 90 61 60
        E 0 90 62 60
        E 60 80 3c 00
        E 0 80 48 00
        E 0 80 49 00
        E 0 80 54 00
        E 0 80 55 00
        E 0 80 60 00
        E 0 80 61 00
        E 0 80 62 00
        E 900 90 3c 60
        E 0 90 48 60
        E 0 90 49 60
        E 0 90 54 60
        E 0 90 55 60
        E 0 90 60 60
        E 0 90 61 60
        E 0 90 62 60
        E 60 80 3c 00
        E 0 80 48 00
        E 0 80 49 00
        E 0 80 54 00
        E 0 80 55 00
        E 0 80 60 00
        E 0 80 61 00
        E 0 80 62 00
        E 420 90 3c 60
        E 0 90 48 60
        E 0 90 49 60
        E 0 90 54 60
        E 0 90 55 60
        E 0 90 60 60
        E 0 90 61 60
        E 0 90 62 60
        E 60 80 3c 00
        E 0 80 48 00
        E 0 80 49 00
        E 0 80 54 00
        E 0 80 55 00
        E 0 80 60 00
        E 0 80 61 00
        E 0 80 62 00
        E 420 90 3c 60
        E 0 90 48 60
        E 0 90 49 60
        E 0 90 54 60
        E 0 90 55 60
        E 0 90 60 60
        E 0 90 61 60
        E 0 90 62 60
        E 60 80 3c 00
        E 0 80 48 00
        E 0 80 49 00
        E 0 80 54 00
        E 0 80 55 00
        E 0 80 60 00
        E 0 80 61 00
        E 0 80 62 00
        E 900 90 3e 60
        E 0 90 49 60
        E 0 90 4b 60
        E 0 90 55 60
        E 0 90 57 60
        E 0 90 61 60
        E 0 90 62 60
        E 0 90 63 60
        E 60 80 3e 00
        E 0 80 49 00
        E 0 80 4b 00
        E 0 80 55 00
        E 0 80 57 00
        E 0 80 61 00
        E 0 80 62 00
        E 0 80 63 00
        E 420 90 3e 60
        E 0 90 49 60
        E 0 90 4b 60
        E 0 90 55 60
        E 0 90 57 60
        E 0 90 61 60
        E 0 90 62 60
        E 0 90 63 60
        E 60 80 3e 00
        E 0 80 49 00
        E 0 80 4b 00
        E 0 80 55 00
        E 0 80 57 00
        E 0 80 61 00
        E 0 80 62 00
        E 0 80 63 00
        E 420 90 3e 60
        E 0 90 49 60
        E 0 90 4b 60
        E 0 90 55 60
        E 0 90 57 60
        E 0 90 61 60
        E 0 90 62 60
        E 0 90 63 60
        E 60 80 3e 00
        E 0 80 49 00
        E 0 80 4b 00
        E 0 80 55 00
        E 0 80 57 00
        E 0 80 61 00
        E 0 80 62 00
        E 0 80 63 00
        E 900 90 3e 60
        E 0 90 49 60
        E 0 90 4b 60
        E 0 90 55 60
        E 0 90 57 60
        E 0 90 61 60
        E 0 90 63 60
        E 0 90 74 60
        E 60 80 3e 00
        E 0 80 49 00
        E 0 80 4b 00
        E 0 80 55 00
        E 0 80 57 00
        E 0 80 61 00
        E 0 80 63 00
        E 420 90 3e 60
        E 0 90 49 60
        E 0 90 4b 60
        E 0 90 55 60
        E 0 90 57 60
        E 0 90 61 60
        E 0 90 63 60
        E 60 80 3e 00
        E 0 80 49 00
        E 0 80 4b 00
        E 0 80 55 00
        E 0 80 57 00
        E 0 80 61 00
        E 0 80 63 00
        E 420 90 3e 60
        E 0 90 49 60
        E 0 90 4b 60
        E 0 90 55 60
        E 0 90 57 60
        E 0 90 61 60
        E 0 90 63 60
        E 60 80 3e 00
        E 0 80 49 00
        E 0 80 4b 00
        E 0 80 55 00
        E 0 80 57 00
        E 0 80 61 00
        E 0 80 63 00
        E 900 90 3c 60
        E 0 90 48 60
        E 0 90 49 60
        E 0 90 54 60
        E 0 90 55 60
        E 0 90 60 60
        E 0 90 61 60
        E 0 90 62 60
        E 60 80 3c 00
        E 0 80 48 00
        E 0 80 49 00
        E 0 80 54 00
        E 0 80 55 00
        E 0 80 60 00
        E 0 80 61 00
        E 0 80 62 00
        E 420 90 3c 60
        E 0 90 48 60
        E 0 90 49 60
        E 0 90 54 60
        E 0 90 55 60
        E 0 90 60 60
        E 0 90 61 60
        E 0 90 62 60
        E 60 80 3c 00
        E 0 80 48 00
        E 0 80 49 00
        E 0 80 54 00
        E 0 80 55 00
        E 0 80 60 00
        E 0 80 61 00
        E 0 80 62 00
        E 420 90 3c 60
        E 0 90 48 60
        E 0 90 49 60
        E 0 90 54 60
        E 0 90 55 60
        E 0 90 60 60
        E 0 90 61 60
        E 0 90 62 60
        E 60 80 3c 00
        E 0 80 48 00
        E 0 80 49 00
        E 0 80 54 00
        E 0 80 55 00
        E 0 80 60 00
        E 0 80 61 00
        E 0 80 62 00
        E 900 90 3d 60
        E 0 90 48 60
        E 0 90 4a 60
        E 0 90 54 60
        E 0 90 57 60
        E 0 90 60 60
        E 0 90 62 60
        E 0 90 63 60
        E 60 80 3d 00
        E 0 80 48 00
        E 0 80 4a 00
        E 0 80 54 00
        E 0 80 57 00
        E 0 80 60 00
        E 0 80 62 00
        E 0 80 63 00
        E 420 90 3d 60
        E 0 90 48 60
        E 0 90 4a 60
        E 0 90 54 60
        E 0 90 57 60
        E 0 90 60 60
        E 0 90 62 60
        E 0 90 63 60
        E 60 80 3d 00
        E 0 80 48 00
        E 0 80 4a 00
        E 0 80 54 00
        E 0 80 57 00
        E 0 80 60 00
        E 0 80 62 00
        E 0 80 63 00
        E 60 80 74 00
        E 360 90 3d 60
        E 0 90 48 60
        E 0 90 4a 60
        E 0 90 54 60
        E 0 90 57 60
        E 0 90 60 60
        E 0 90 62 60
        E 0 90 63 60
        E 60 80 3d 00
        E 0 80 48 00
        E 0 80 4a 00
        E 0 80 54 00
        E 0 80 57 00
        E 0 80 60 00
        E 0 80 62 00
        E 0 80 63 00
        E 1860 90 3e 60
        E 0 90 49 60
        E 0 90 4b 60
        E 0 90 55 60
        E 0 90 57 60
        E 0 90 61 60
        E 0 90 63 60
        E 60 80 3e 00
        E 0 80 49 00
        E 0 80 4b 00
        E 0 80 55 00
        E 0 80 57 00
        E 0 80 61 00
        E 0 80 63 00
        E 900 90 3c 60
        E 0 90 48 60
        E 0 90 49 60
        E 0 90 54 60
        E 0 90 55 60
        E 0 90 60 60
        E 0 90 61 60
        E 0 90 62 60
        E 60 80 3c 00
        E 0 80 48 00
        E 0 80 49 00
        E 0 80 54 00
        E 0 80 55 00
        E 0 80 60 00
        E 0 80 61 00
        E 0 80 62 00
        E 420 90 3c 60
        E 0 90 48 60
        E 0 90 49 60
        E 0 90 54 60
        E 0 90 55 60
        E 0 90 60 60
        E 0 90 61 60
        E 0 90 62 60
        E 60 80 3c 00
        E 0 80 48 00
        E 0 80 49 00
        E 0 80 54 00
        E 0 80 55 00
        E 0 80 60 00
        E 0 80 61 00
        E 0 80 62 00
        E 420 90 3c 60
        E 0 90 48 60
        E 0 90 49 60
        E 0 90 54 60
        E 0 90 55 60
        E 0 90 60 60
        E 0 90 61 60
        E 0 90 62 60
        E 60 80 3c 00
        E 0 80 48 00
        E 0 80 49 00
        E 0 80 54 00
        E 0 80 55 00
        E 0 80 60 00
        E 0 80 61 00
        E 0 80 62 00
        E 840 90 74 60
        E 60 90 3d 60
        E 0 90 48 60
        E 0 90 4a 60
        E 0 90 54 60
        E 0 90 57 60
        E 0 90 60 60
        E 0 90 62 60
        E 0 90 63 60
        E 60 80 3d 00
        E 0 80 48 00
        E 0 80 4a 00
        E 0 80 54 00
        E 0 80 57 00
        E 0 80 60 00
        E 0 80 62 00
        E 0 80 63 00
        E 420 90 4a 60
        E 0 90 4b 60
        E 0 90 56 60
        E 0 90 58 60
        E 0 90 61 60
        E 0 90 63 60
        E 0 90 64 60
        E 60 80 4a 00
        E 0 80 4b 00
        E 0 80 56 00
        E 0 80 58 00
        E 0 80 61 00
        E 0 80 63 00
        E 0 80 64 00
        E 420 90 3c 60
        E 0 90 48 60
        E 0 90 55 60
        E 0 90 61 60
        E 60 80 3c 00
        E 0 80 48 00
        E 0 80 55 00
        E 0 80 61 00
        E 420 90 48 60
        E 0 90 4a 60
        E 0 90 54 60
        E 0 90 57 60
        E 0 90 60 60
        E 0 90 63 60
        E 60 80 48 00
        E 0 80 4a 00
        E 0 80 54 00
        E 0 80 57 00
        E 0 80 60 00
        E 0 80 63 00
        E 420 90 3c 60
        E 0 90 48 60
        E 0 90 49 60
        E 0 90 54 60
        E 0 90 55 60
        E 0 90 60 60
        E 0 90 61 60
        E 0 90 62 60
        E 60 80 3c 00
        E 0 80 48 00
        E 0 80 49 00
        E 0 80 54 00
        E 0 80 55 00
        E 0 80 60 00
        E 0 80 61 00
        E 0 80 62 00
        E 420 90 3c 60
        E 0 90 48 60
        E 0 90 49 60
        E 0 90 54 60
        E 0 90 55 60
        E 0 90 60 60
        E 0 90 61 60
        E 0 90 62 60
        E 60 80 3c 00
        E 0 80 48 00
        E 0 80 49 00
        E 0 80 54 00
        E 0 80 55 00
        E 0 80 60 00
        E 0 80 61 00
        E 0 80 62 00
        E 420 90 3c 60
        E 0 90 48 60
        E 0 90 49 60
        E 0 90 54 60
        E 0 90 55 60
        E 0 90 60 60
        E 0 90 61 60
        E 0 90 62 60
        E 60 80 3c 00
        E 0 80 48 00
        E 0 80 49 00
        E 0 80 54 00
        E 0 80 55 00
        E 0 80 60 00
        E 0 80 61 00
        E 0 80 62 00
        E 120 80 74 00
        E 780 90 3e 60
        E 0 90 49 60
        E 0 90 4b 60
        E 0 90 55 60
        E 0 90 57 60
        E 0 90 61 60
        E 0 90 62 60
        E 0 90 63 60
        E 60 80 3e 00
        E 0 80 49 00
        E 0 80 4b 00
        E 0 80 55 00
        E 0 80 57 00
        E 0 80 61 00
        E 0 80 62 00
        E 0 80 63 00
        E 420 90 3e 60
        E 0 90 49 60
        E 0 90 4b 60
        E 0 90 55 60
        E 0 90 57 60
        E 0 90 61 60
        E 0 90 62 60
        E 0 90 63 60
        E 60 80 3e 00
        E 0 80 49 00
        E 0 80 4b 00
        E 0 80 55 00
        E 0 80 57 00
        E 0 80 61 00
        E 0 80 62 00
        E 0 80 63 00
        E 420 90 3e 60
        E 0 90 49 60
        E 0 90 4b 60
        E 0 90 55 60
        E 0 90 57 60
        E 0 90 61 60
        E 0 90 62 60
        E 0 90 63 60
        E 60 80 3e 00
        E 0 80 49 00
        E 0 80 4b 00
        E 0 80 55 00
        E 0 80 57 00
        E 0 80 61 00
        E 0 80 62 00
        E 0 80 63 00
        E 900 90 3e 60
        E 0 90 49 60
        E 0 90 4b 60
        E 0 90 55 60
        E 0 90 57 60
        E 0 90 61 60
        E 0 90 63 60
        E 60 80 3e 00
        E 0 80 49 00
        E 0 80 4b 00
        E 0 80 55 00
        E 0 80 57 00
        E 0 80 61 00
        E 0 80 63 00
        E 420 90 3e 60
        E 0 90 49 60
        E 0 90 4b 60
        E 0 90 55 60
        E 0 90 57 60
        E 0 90 61 60
        E 0 90 63 60
        E 60 80 3e 00
        E 0 80 49 00
        E 0 80 4b 00
        E 0 80 55 00
        E 0 80 57 00
        E 0 80 61 00
        E 0 80 63 00
        E 420 90 3e 60
        E 0 90 49 60
        E 0 90 4b 60
        E 0 90 55 60
        E 0 90 57 60
        E 0 90 61 60
        E 0 90 63 60
        E 60 80 3e 00
        E 0 80 49 00
        E 0 80 4b 00
        E 0 80 55 00
        E 0 80 57 00
        E 0 80 61 00
        E 0 80 63 00
        E 900 90 3e 60
        E 0 90 49 60
        E 0 90 4b 60
        E 0 90 55 60
        E 0 90 57 60
        E 0 90 61 60
        E 0 90 62 60
        E 0 90 63 60
        E 60 80 3e 00
        E 0 80 49 00
        E 0 80 4b 00
        E 0 80 55 00
        E 0 80 57 00
        E 0 80 61 00
        E 0 80 62 00
        E 0 80 63 00
        E 360 90 67 60
        E 60 90 48 60
        E 0 90 54 60
        E 0 90 60 60
        E 20 80 48 00
        E 0 80 54 00
        E 0 80 60 00
        E 80 90 61 60
        E 20 80 61 00
        E 80 90 62 60
        E 20 80 62 00
        E 80 90 57 60
        E 0 90 63 60
        E 20 80 57 00
        E 0 80 63 00
        E 81 90 61 60
        E 20 80 61 00
        E 80 90 62 60
        E 20 80 62 00
        E 80 90 63 60
        E 20 80 63 00
        E 80 90 3e 60
        E 0 90 4b 60
        E 0 90 58 60
        E 0 90 64 60
        E 20 80 3e 00
        E 0 80 4b 00
        E 0 80 58 00
        E 0 80 64 00
        E 79 90 60 60
        E 20 80 60 00
        E 80 90 61 60
        E 20 80 61 00
        E 80 90 56 60
        E 0 90 62 60
        E 20 80 56 00
        E 0 80 62 00
        E 80 90 63 60
        E 20 80 63 00
        E 260 90 74 60
        E 60 90 3e 60
        E 0 90 4b 60
        E 0 90 58 60
        E 0 90 64 60
        E 20 80 3e 00
        E 0 80 4b 00
        E 0 80 58 00
        E 0 80 64 00
        E 260 90 63 60
        E 20 80 63 00
        E 160 90 49 60
        E 0 90 56 60
        E 0 90 62 60
        E 20 80 49 00
        E 0 80 56 00
        E 0 80 62 00
        E 140 90 61 60
        E 20 80 61 00
        E 140 90 60 60
        E 20 80 60 00
        E 140 90 3e 60
        E 0 90 4b 60
        E 0 90 58 60
        E 0 90 64 60
        E 20 80 3e 00
        E 0 80 4b 00
        E 0 80 58 00
        E 0 80 64 00
        E 140 90 63 60
        E 20 80 63 00
        E 140 90 63 60
        E 20 80 63 00
        E 160 90 49 60
        E 0 90 56 60
        E 0 90 62 60
        E 20 80 49 00
        E 0 80 56 00
        E 0 80 62 00
        E 140 90 62 60
        E 20 80 62 00
        E 120 90 63 60
        E 20 80 63 00
        E 160 90 3e 60
        E 0 90 4b 60
        E 0 90 58 60
        E 0 90 64 60
        E 20 80 3e 00
        E 0 80 4b 00
        E 0 80 58 00
        E 0 80 64 00
        E 160 80 74 00
        E 120 90 64 60
        E 20 80 64 00
        E 160 90 4a 60
        E 0 90 57 60
        E 0 90 63 60
        E 20 80 4a 00
        E 0 80 57 00
        E 0 80 63 00
        E 160 90 63 60
        E 20 80 63 00
        E 120 90 54 60
        E 0 90 60 60
        E 20 80 54 00
        E 0 80 60 00
        E 80 90 61 60
        E 20 80 61 00
        E 80 90 62 60
        E 20 80 62 00
        E 80 90 63 60
        E 20 80 63 00
        E 80 90 48 60
        E 0 90 54 60
        E 0 90 60 60
        E 20 80 48 00
        E 0 80 54 00
        E 0 80 60 00
        E 80 90 61 60
        E 20 80 61 00
        E 80 90 62 60
        E 20 80 62 00
        E 80 90 57 60
        E 0 90 63 60
        E 20 80 57 00
        E 0 80 63 00
        E 80 90 64 60
        E 20 80 64 00
        E 300 90 3d 60
        E 0 90 4a 60
        E 0 90 57 60
        E 0 90 63 60
        E 20 80 3d 00
        E 0 80 4a 00
        E 0 80 57 00
        E 0 80 63 00
        E 280 90 62 60
        E 20 80 62 00
        E 160 90 48 60
        E 0 90 55 60
        E 0 90 61 60
        E 20 80 48 00
        E 0 80 55 00
        E 0 80 61 00
        E 120 90 61 60
        E 20 80 61 00
        E 120 90 60 60
        E 20 80 60 00
        E 160 90 3c 60
        E 0 90 48 60
        E 0 90 55 60
        E 0 90 61 60
        E 20 80 3c 00
        E 0 80 48 00
        E 0 80 55 00
        E 0 80 61 00
        E 140 90 64 60
        E 20 80 64 00
        E 160 90 63 60
        E 20 80 63 00
        E 140 90 49 60
        E 0 90 56 60
        E 0 90 62 60
        E 20 80 49 00
        E 0 80 56 00
        E 0 80 62 00
        E 280 90 63 60
        E 20 80 63 00
        E 160 90 3e 60
        E 0 90 4b 60
        E 0 90 58 60
        E 0 90 64 60
        E 20 80 3e 00
        E 0 80 4b 00
        E 0 80 58 00
        E 0 80 64 00
        E 280 90 64 60
        E 20 80 64 00
        E 160 90 4a 60
        E 0 90 57 60
        E 0 90 63 60
        E 20 80 4a 00
        E 0 80 57 00
        E 0 80 63 00
        E 100 90 63 60
        E 20 80 63 00
        E 160 90 60 60
        E 20 80 60 00
        E 80 90 61 60
        E 20 80 61 00
        E 80 90 3c 60
        E 0 90 49 60
        E 0 90 56 60
        E 0 90 62 60
        E 20 80 3c 00
        E 0 80 49 00
        E 0 80 56 00
        E 0 80 62 00
        E 80 90 63 60
        E 20 80 63 00
        E 80 90 54 60
        E 0 90 60 60
        E 20 80 54 00
        E 0 80 60 00
        E 80 90 61 60
        E 20 80 61 00
        E 80 90 62 60
        E 20 80 62 00
        E 80 90 4a 60
        E 0 90 57 60
        E 0 90 63 60
        E 20 80 4a 00
        E 0 80 57 00
        E 0 80 63 00
        E 80 90 64 60
        E 20 80 64 00
        E 320 90 3d 60
        E 0 90 4a 60
        E 0 90 57 60
        E 0 90 63 60
        E 20 80 3d 00
        E 0 80 4a 00
        E 0 80 57 00
        E 0 80 63 00
        E 220 90 56 60
        E 0 90 62 60
        E 20 80 56 00
        E 0 80 62 00
        E 220 90 48 60
        E 0 90 55 60
        E 0 90 61 60
        E 20 80 48 00
        E 0 80 55 00
        E 0 80 61 00
        E 100 90 60 60
        E 20 80 60 00
        E 160 90 55 60
        E 0 90 61 60
        E 20 80 55 00
        E 0 80 61 00
        E 120 90 64 60
        E 20 80 64 00
        E 136 90 4a 60
        E 0 90 57 60
        E 0 90 63 60
        E 24 80 4a 00
        E 0 80 57 00
        E 0 80 63 00
        E 140 90 63 60
        E 20 80 63 00
        E 120 90 56 60
        E 0 90 62 60
        E 20 80 56 00
        E 0 80 62 00
        E 340 90 63 60
        E 20 80 63 00
        E 160 90 3e 60
        E 0 90 4b 60
        E 0 90 58 60
        E 0 90 64 60
        E 20 80 3e 00
        E 0 80 4b 00
        E 0 80 58 00
        E 0 80 64 00
        E 260 90 58 60
        E 0 90 64 60
        E 20 80 58 00
        E 0 80 64 00
        E 120 90 64 60
        E 20 80 64 00
        E 100 90 63 60
        E 20 80 63 00
        E 160 90 57 60
        E 0 90 63 60
        E 20 80 57 00
        E 0 80 63 00
        E 220 90 3c 60
        E 0 90 49 60
        E 0 90 56 60
        E 0 90 62 60
        E 20 80 3c 00
        E 0 80 49 00
        E 0 80 56 00
        E 0 80 62 00
        E 80 90 61 60
        E 20 80 61 00
        E 80 90 60 60
        E 20 80 60 00
        E 80 90 61 60
        E 20 80 61 00
        E 80 90 62 60
        E 20 80 62 00
        E 80 90 4a 60
        E 0 90 57 60
        E 0 90 63 60
        E 20 80 4a 00
        E 0 80 57 00
        E 0 80 63 00
        E 80 90 60 60
        E 20 80 60 00
        E 80 90 55 60
        E 0 90 61 60
        E 20 80 55 00
        E 0 80 61 00
        E 80 90 62 60
        E 20 80 62 00
        E 140 90 3c 60
        E 0 90 48 60
        E 0 90 55 60
        E 0 90 61 60
        E 0 90 66 60
        E 20 80 3c 00
        E 0 80 48 00
        E 0 80 55 00
        E 0 80 61 00
        E 0 80 66 00
        E 100 90 60 60
        E 20 80 60 00
        E 160 90 61 60
        E 20 80 61 00
        E 160 90 49 60
        E 0 90 56 60
        E 0 90 62 60
        E 20 80 49 00
        E 0 80 56 00
        E 0 80 62 00
        E 80 90 64 60
        E 20 80 64 00
        E 220 90 57 60
        E 0 90 63 60
        E 20 80 57 00
        E 0 80 63 00
        E 260 90 49 60
        E 0 90 56 60
        E 0 90 62 60
        E 20 80 49 00
        E 0 80 56 00
        E 0 80 62 00
        E 140 90 63 60
        E 20 80 63 00
        E 120 90 58 60
        E 0 90 64 60
        E 20 80 58 00
        E 0 80 64 00
        E 140 90 74 60
        E 120 90 4b 60
        E 0 90 58 60
        E 0 90 64 60
        E 20 80 4b 00
        E 0 80 58 00
        E 0 80 64 00
        E 220 90 3e 60
        E 0 90 4b 60
        E 0 90 58 60
        E 0 90 64 60
        E 120 80 3e 00
        E 0 80 4b 00
        E 240 80 58 00
        E 60 80 64 00
        E 60 90 4a 60
        E 0 90 57 60
        E 0 90 63 60
        E 20 80 4a 00
        E 0 80 57 00
        E 0 80 63 00
        E 120 90 63 60
        E 22 80 63 00
        E 118 90 63 60
        E 20 80 63 00
        E 180 90 3e 60
        E 0 90 4b 60
        E 0 90 58 60
        E 0 90 64 60
        E 120 80 3e 00
        E 0 80 4b 00
        E 240 80 58 00
        E 60 80 64 00
        E 60 90 4a 60
        E 0 90 57 60
        E 0 90 63 60
        E 20 80 4a 00
        E 0 80 57 00
        E 0 80 63 00
        E 120 90 63 60
        E 23 80 63 00
        E 117 90 63 60
        E 20 80 63 00
        E 180 90 3e 60
        E 0 90 4b 60
        E 0 90 58 60
        E 0 90 64 60
        E 120 80 3e 00
        E 0 80 4b 00
        E 240 80 58 00
        E 60 80 64 00
        E 60 90 4a 60
        E 0 90 57 60
        E 0 90 63 60
        E 20 80 4a 00
        E 0 80 57 00
        E 0 80 63 00
        E 120 90 63 60
        E 23 80 63 00
        E 117 90 63 60
        E 20 80 63 00
        E 180 90 3e 60
        E 0 90 4b 60
        E 0 90 58 60
        E 0 90 64 60
        E 120 80 3e 00
        E 0 80 4b 00
        E 240 80 58 00
        E 60 80 64 00
        E 60 90 4a 60
        E 0 90 57 60
        E 0 90 63 60
        E 20 80 4a 00
        E 0 80 57 00
        E 0 80 63 00
        E 120 90 63 60
        E 23 80 63 00
        E 117 90 63 60
        E 20 80 63 00
        E 180 90 3c 60
        E 0 90 49 60
        E 0 90 56 60
        E 0 90 62 60
        E 120 80 3c 00
        E 0 80 49 00
        E 240 80 74 00
        E 0 80 56 00
        E 0 80 62 00
        E 120 90 48 60
        E 0 90 55 60
        E 0 90 61 60
        E 20 80 48 00
        E 0 80 55 00
        E 0 80 61 00
        E 280 90 63 60
        E 20 80 63 00
        E 160 90 3c 60
        E 0 90 49 60
        E 0 90 56 60
        E 0 90 62 60
        E 20 80 3c 00
        E 0 80 49 00
        E 0 80 56 00
        E 0 80 62 00
        E 280 90 61 60
        E 20 80 61 00
        E 160 90 48 60
        E 0 90 54 60
        E 0 90 60 60
        E 20 80 48 00
        E 0 80 54 00
        E 0 80 60 00
        E 280 90 64 60
        E 20 80 64 00
        E 160 90 3e 60
        E 0 90 4b 60
        E 0 90 58 60
        E 0 90 64 60
        E 20 80 3e 00
        E 0 80 4b 00
        E 0 80 58 00
        E 0 80 64 00
        E 280 90 63 60
        E 20 80 63 00
        E 160 90 4a 60
        E 0 90 57 60
        E 0 90 63 60
        E 20 80 4a 00
        E 0 80 57 00
        E 0 80 63 00
        E 280 90 63 60
        E 20 80 63 00
        E 160 90 3e 60
        E 0 90 4b 60
        E 0 90 58 60
        E 0 90 64 60
        E 480 80 3e 00
        E 0 80 4b 00
        E 0 80 58 00
        E 0 80 64 00
        E 60 80 67 00
        E 420 90 3e 60
        E 0 90 49 60
        E 0 90 4b 60
        E 0 90 55 60
        E 0 90 57 60
        E 0 90 61 60
        E 0 90 62 60
        E 0 90 63 60
        E 60 80 3e 00
        E 0 80 49 00
        E 0 80 4b 00
        E 0 80 55 00
        E 0 80 57 00
        E 0 80 61 00
        E 0 80 62 00
        E 0 80 63 00
        E 420 90 3e 60
        E 0 90 49 60
        E 0 90 4b 60
        E 0 90 55 60
        E 0 90 57 60
        E 0 90 61 60
        E 0 90 62 60
        E 0 90 63 60
        E 60 80 3e 00
        E 0 80 49 00
        E 0 80 4b 00
        E 0 80 55 00
        E 0 80 57 00
        E 0 80 61 00
        E 0 80 62 00
        E 0 80 63 00
        E 420 90 3e 60
        E 0 90 49 60
        E 0 90 4b 60
        E 0 90 55 60
        E 0 90 57 60
        E 0 90 61 60
        E 0 90 62 60
        E 0 90 63 60
        E 60 80 3e 00
        E 0 80 49 00
        E 0 80 4b 00
        E 0 80 55 00
        E 0 80 57 00
        E 0 80 61 00
        E 0 80 62 00
        E 0 80 63 00
        E 900 90 3d 60
        E 0 90 3e 60
        E 0 90 57 60
        E 0 90 63 60
        E 1 90 49 60
        E 0 90 4a 60
        E 0 90 55 60
        E 0 90 56 60
        E 0 90 61 60
        E 0 90 62 60
        E 59 80 3e 00
        E 1 80 3d 00
        E 0 80 57 00
        E 0 80 63 00
        E 0 80 49 00
        E 0 80 4a 00
        E 0 80 55 00
        E 0 80 56 00
        E 0 80 61 00
        E 0 80 62 00
        E 419 90 4a 60
        E 0 90 57 60
        E 0 90 63 60
        E 1 90 49 60
        E 0 90 55 60
        E 0 90 56 60
        E 0 90 61 60
        E 0 90 62 60
        E 59 80 4a 00
        E 1 80 57 00
        E 0 80 63 00
        E 0 80 49 00
        E 0 80 55 00
        E 0 80 56 00
        E 0 80 61 00
        E 0 80 62 00
        E 419 90 3d 60
        E 0 90 4a 60
        E 0 90 57 60
        E 0 90 63 60
        E 1 90 3e 60
        E 0 90 49 60
        E 0 90 55 60
        E 0 90 56 60
        E 0 90 61 60
        E 0 90 62 60
        E 59 80 4a 00
        E 1 80 3d 00
        E 0 80 57 00
        E 0 80 63 00
        E 0 80 3e 00
        E 0 80 49 00
        E 0 80 55 00
        E 0 80 56 00
        E 0 80 61 00
        E 0 80 62 00
        E 899 90 3d 60
        E 0 90 4a 60
        E 0 90 57 60
        E 0 90 63 60
        E 1 90 3e 60
        E 0 90 49 60
        E 0 90 55 60
        E 0 90 56 60
        E 0 90 61 60
        E 0 90 62 60
        E 59 80 4a 00
        E 1 80 3d 00
        E 0 80 57 00
        E 0 80 63 00
        E 0 80 3e 00
        E 0 80 49 00
        E 0 80 55 00
        E 0 80 56 00
        E 0 80 61 00
        E 0 80 62 00
        E 419 90 57 60
        E 0 90 63 60
        E 1 90 49 60
        E 0 90 4a 60
        E 0 90 55 60
        E 0 90 56 60
        E 0 90 61 60
        E 0 90 62 60
        E 60 80 57 00
        E 0 80 63 00
        E 0 80 49 00
        E 0 80 4a 00
        E 0 80 55 00
        E 0 80 56 00
        E 0 80 61 00
        E 0 80 62 00
        E 419 90 3d 60
        E 0 90 4a 60
        E 0 90 57 60
        E 0 90 63 60
        E 1 90 3e 60
        E 0 90 49 60
        E 0 90 55 60
        E 0 90 56 60
        E 0 90 61 60
        E 0 90 62 60
        E 59 80 4a 00
        E 1 80 3d 00
        E 0 80 57 00
        E 0 80 63 00
        E 0 80 3e 00
        E 0 80 49 00
        E 0 80 55 00
        E 0 80 56 00
        E 0 80 61 00
        E 0 80 62 00
        E 899 90 3d 60
        E 0 90 4a 60
        E 0 90 57 60
        E 0 90 63 60
        E 1 90 3e 60
        E 0 90 49 60
        E 0 90 55 60
        E 0 90 56 60
        E 0 90 61 60
        E 0 90 62 60
        E 59 80 4a 00
        E 1 80 3d 00
        E 0 80 57 00
        E 0 80 63 00
        E 0 80 3e 00
        E 0 80 49 00
        E 0 80 55 00
        E 0 80 56 00
        E 0 80 61 00
        E 0 80 62 00
        E 419 90 4a 60
        E 0 90 57 60
        E 0 90 63 60
        E 1 90 49 60
        E 0 90 55 60
        E 0 90 56 60
        E 0 90 61 60
        E 0 90 62 60
        E 59 80 4a 00
        E 1 80 57 00
        E 0 80 63 00
        E 0 80 49 00
        E 0 80 55 00
        E 0 80 56 00
        E 0 80 61 00
        E 0 80 62 00
        E 899 90 49 60
        E 0 90 4b 60
        E 0 90 55 60
        E 0 90 57 60
        E 0 90 61 60
        E 0 90 62 60
        E 0 90 63 60
        E 60 80 49 00
        E 0 80 4b 00
        E 0 80 55 00
        E 0 80 57 00
        E 0 80 61 00
        E 0 80 62 00
        E 0 80 63 00
        E 420 90 3d 60
        E 0 90 57 60
        E 0 90 63 60
        E 1 90 3e 60
        E 0 90 49 60
        E 0 90 4a 60
        E 0 90 55 60
        E 0 90 56 60
        E 0 90 61 60
        E 0 90 62 60
        E 60 80 3d 00
        E 0 80 57 00
        E 0 80 63 00
        E 0 80 3e 00
        E 0 80 49 00
        E 0 80 4a 00
        E 0 80 55 00
        E 0 80 56 00
        E 0 80 61 00
        E 0 80 62 00
        E 419 90 4a 60
        E 0 90 57 60
        E 0 90 63 60
        E 1 90 49 60
        E 0 90 55 60
        E 0 90 56 60
        E 0 90 61 60
        E 0 90 62 60
        E 59 80 4a 00
        E 1 80 57 00
        E 0 80 63 00
        E 0 80 49 00
        E 0 80 55 00
        E 0 80 56 00
        E 0 80 61 00
        E 0 80 62 00
        E 419 90 3d 60
        E 0 90 4a 60
        E 0 90 57 60
        E 0 90 63 60
        E 1 90 3e 60
        E 0 90 49 60
        E 0 90 55 60
        E 0 90 56 60
        E 0 90 61 60
        E 0 90 62 60
        E 59 80 4a 00
        E 1 80 3d 00
        E 0 80 57 00
        E 0 80 63 00
        E 0 80 3e 00
        E 0 80 49 00
        E 0 80 55 00
        E 0 80 56 00
        E 0 80 61 00
        E 0 80 62 00
        E 419 90 4a 60
        E 0 90 57 60
        E 0 90 63 60
        E 1 90 49 60
        E 0 90 55 60
        E 0 90 56 60
        E 0 90 61 60
        E 0 90 62 60
        E 59 80 4a 00
        E 1 80 57 00
        E 0 80 63 00
        E 0 80 49 00
        E 0 80 55 00
        E 0 80 56 00
        E 0 80 61 00
        E 0 80 62 00
        E 2219 90 74 60
        E 120 90 3d 60
        E 0 90 4a 60
        E 0 90 57 60
        E 0 90 63 60
        E 1 90 3e 60
        E 0 90 49 60
        E 0 90 55 60
        E 0 90 56 60
        E 0 90 61 60
        E 0 90 62 60
        E 59 80 4a 00
        E 1 80 3d 00
        E 0 80 57 00
        E 0 80 63 00
        E 0 80 3e 00
        E 0 80 49 00
        E 0 80 55 00
        E 0 80 56 00
        E 0 80 61 00
        E 0 80 62 00
        E 419 90 4a 60
        E 0 90 57 60
        E 0 90 63 60
        E 1 90 49 60
        E 0 90 55 60
        E 0 90 56 60
        E 0 90 61 60
        E 0 90 62 60
        E 59 80 4a 00
        E 1 80 57 00
        E 0 80 63 00
        E 0 80 49 00
        E 0 80 55 00
        E 0 80 56 00
        E 0 80 61 00
        E 0 80 62 00
        E 419 90 3d 60
        E 0 90 4a 60
        E 0 90 57 60
        E 0 90 63 60
        E 1 90 3e 60
        E 0 90 49 60
        E 0 90 55 60
        E 0 90 56 60
        E 0 90 61 60
        E 0 90 62 60
        E 59 80 4a 00
        E 1 80 3d 00
        E 0 80 57 00
        E 0 80 63 00
        E 0 80 3e 00
        E 0 80 49 00
        E 0 80 55 00
        E 0 80 56 00
        E 0 80 61 00
        E 0 80 62 00
        E 899 90 3e 60
        E 0 90 49 60
        E 0 90 4b 60
        E 0 90 55 60
        E 0 90 57 60
        E 0 90 61 60
        E 0 90 63 60
        E 60 80 3e 00
        E 0 80 49 00
        E 0 80 4b 00
        E 0 80 55 00
        E 0 80 57 00
        E 0 80 61 00
        E 0 80 63 00
        E 420 90 3e 60
        E 0 90 49 60
        E 0 90 4b 60
        E 0 90 55 60
        E 0 90 57 60
        E 0 90 61 60
        E 0 90 63 60
        E 60 80 3e 00
        E 0 80 49 00
        E 0 80 4b 00
        E 0 80 55 00
        E 0 80 57 00
        E 0 80 61 00
        E 0 80 63 00
        E 420 90 3e 60
        E 0 90 49 60
        E 0 90 4b 60
        E 0 90 55 60
        E 0 90 57 60
        E 0 90 61 60
        E 0 90 63 60
        E 60 80 3e 00
        E 0 80 49 00
        E 0 80 4b 00
        E 0 80 55 00
        E 0 80 57 00
        E 0 80 61 00
        E 0 80 63 00
        E 420 90 3e 60
        E 0 90 49 60
        E 0 90 4b 60
        E 0 90 55 60
        E 0 90 57 60
        E 0 90 61 60
        E 0 90 63 60
        E 60 80 3e 00
        E 0 80 49 00
        E 0 80 4b 00
        E 0 80 55 00
        E 0 80 57 00
        E 0 80 61 00
        E 0 80 63 00
        E 180 80 74 00
        E 2160 90 3c 60
        E 0 90 48 60
        E 0 90 49 60
        E 0 90 54 60
        E 0 90 55 60
        E 0 90 60 60
        E 0 90 61 60
        E 0 90 62 60
        E 60 80 3c 00
        E 0 80 48 00
        E 0 80 49 00
        E 0 80 54 00
        E 0 80 55 00
        E 0 80 60 00
        E 0 80 61 00
        E 0 80 62 00
        E 420 90 3c 60
        E 0 90 48 60
        E 0 90 49 60
        E 0 90 54 60
        E 0 90 55 60
        E 0 90 60 60
        E 0 90 61 60
        E 0 90 62 60
        E 60 80 3c 00
        E 0 80 48 00
        E 0 80 49 00
        E 0 80 54 00
        E 0 80 55 00
        E 0 80 60 00
        E 0 80 61 00
        E 0 80 62 00
        E 420 90 3c 60
        E 0 90 48 60
        E 0 90 49 60
        E 0 90 54 60
        E 0 90 55 60
        E 0 90 60 60
        E 0 90 61 60
        E 0 90 62 60
        E 60 80 3c 00
        E 0 80 48 00
        E 0 80 49 00
        E 0 80 54 00
        E 0 80 55 00
        E 0 80 60 00
        E 0 80 61 00
        E 0 80 62 00
        E 900 90 3e 60
        E 0 90 49 60
        E 0 90 4b 60
        E 0 90 55 60
        E 0 90 57 60
        E 0 90 61 60
        E 0 90 62 60
        E 0 90 63 60
        E 60 80 3e 00
        E 0 80 49 00
        E 0 80 4b 00
        E 0 80 55 00
        E 0 80 57 00
        E 0 80 61 00
        E 0 80 62 00
        E 0 80 63 00
        E 420 90 3e 60
        E 0 90 49 60
        E 0 90 4b 60
        E 0 90 55 60
        E 0 90 57 60
        E 0 90 61 60
        E 0 90 62 60
        E 0 90 63 60
        E 60 80 3e 00
        E 0 80 49 00
        E 0 80 4b 00
        E 0 80 55 00
        E 0 80 57 00
        E 0 80 61 00
        E 0 80 62 00
        E 0 80 63 00
        E 420 90 3e 60
        E 0 90 49 60
        E 0 90 4b 60
        E 0 90 55 60
        E 0 90 57 60
        E 0 90 61 60
        E 0 90 62 60
        E 0 90 63 60
        E 60 80 3e 00
        E 0 80 49 00
        E 0 80 4b 00
        E 0 80 55 00
        E 0 80 57 00
        E 0 80 61 00
        E 0 80 62 00
        E 0 80 63 00
        E 900 90 3e 60
        E 0 90 49 60
        E 0 90 4b 60
        E 0 90 55 60
        E 0 90 57 60
        E 0 90 61 60
        E 0 90 63 60
        E 60 80 3e 00
        E 0 80 49 00
        E 0 80 4b 00
        E 0 80 55 00
        E 0 80 57 00
        E 0 80 61 00
        E 0 80 63 00
        E 420 90 3e 60
        E 0 90 49 60
        E 0 90 4b 60
        E 0 90 55 60
        E 0 90 57 60
        E 0 90 61 60
        E 0 90 63 60
        E 60 80 3e 00
        E 0 80 49 00
        E 0 80 4b 00
        E 0 80 55 00
        E 0 80 57 00
        E 0 80 61 00
        E 0 80 63 00
        E 420 90 3e 60
        E 0 90 49 60
        E 0 90 4b 60
        E 0 90 55 60
        E 0 90 57 60
        E 0 90 61 60
        E 0 90 63 60
        E 60 80 3e 00
        E 0 80 49 00
        E 0 80 4b 00
        E 0 80 55 00
        E 0 80 57 00
        E 0 80 61 00
        E 0 80 63 00
        E 900 90 3c 60
        E 0 90 48 60
        E 0 90 49 60
        E 0 90 54 60
        E 0 90 55 60
        E 0 90 60 60
        E 0 90 61 60
        E 0 90 62 60
        E 60 80 3c 00
        E 0 80 48 00
        E 0 80 49 00
        E 0 80 54 00
        E 0 80 55 00
        E 0 80 60 00
        E 0 80 61 00
        E 0 80 62 00
        E 420 90 3c 60
        E 0 90 48 60
        E 0 90 49 60
        E 0 90 54 60
        E 0 90 55 60
        E 0 90 60 60
        E 0 90 61 60
        E 0 90 62 60
        E 60 80 3c 00
        E 0 80 48 00
        E 0 80 49 00
        E 0 80 54 00
        E 0 80 55 00
        E 0 80 60 00
        E 0 80 61 00
        E 0 80 62 00
        E 420 90 3c 60
        E 0 90 48 60
        E 0 90 49 60
        E 0 90 54 60
        E 0 90 55 60
        E 0 90 60 60
        E 0 90 61 60
        E 0 90 62 60
        E 60 80 3c 00
        E 0 80 48 00
        E 0 80 49 00
        E 0 80 54 00
        E 0 80 55 00
        E 0 80 60 00
        E 0 80 61 00
        E 0 80 62 00
        E 900 90 3c 60
        E 0 90 48 60
        E 0 90 49 60
        E 0 90 54 60
        E 0 90 55 60
        E 0 90 60 60
        E 0 90 61 60
        E 0 90 62 60
        E 60 80 3c 00
        E 0 80 48 00
        E 0 80 49 00
        E 0 80 54 00
        E 0 80 55 00
        E 0 80 60 00
        E 0 80 61 00
        E 0 80 62 00
        E 420 90 3c 60
        E 0 90 48 60
        E 0 90 49 60
        E 0 90 54 60
        E 0 90 55 60
        E 0 90 60 60
        E 0 90 61 60
        E 0 90 62 60
        E 60 80 3c 00
        E 0 80 48 00
        E 0 80 49 00
        E 0 80 54 00
        E 0 80 55 00
        E 0 80 60 00
        E 0 80 61 00
        E 0 80 62 00
        E 420 90 3c 60
        E 0 90 48 60
        E 0 90 49 60
        E 0 90 54 60
        E 0 90 55 60
        E 0 90 60 60
        E 0 90 61 60
        E 0 90 62 60
        E 60 80 3c 00
        E 0 80 48 00
        E 0 80 49 00
        E 0 80 54 00
        E 0 80 55 00
        E 0 80 60 00
        E 0 80 61 00
        E 0 80 62 00
        E 900 90 3e 60
        E 0 90 49 60
        E 0 90 4b 60
        E 0 90 55 60
        E 0 90 57 60
        E 0 90 61 60
        E 0 90 62 60
        E 0 90 63 60
        E 60 80 3e 00
        E 0 80 49 00
        E 0 80 4b 00
        E 0 80 55 00
        E 0 80 57 00
        E 0 80 61 00
        E 0 80 62 00
        E 0 80 63 00
        E 420 90 3e 60
        E 0 90 49 60
        E 0 90 4b 60
        E 0 90 55 60
        E 0 90 57 60
        E 0 90 61 60
        E 0 90 62 60
        E 0 90 63 60
        E 60 80 3e 00
        E 0 80 49 00
        E 0 80 4b 00
        E 0 80 55 00
        E 0 80 57 00
        E 0 80 61 00
        E 0 80 62 00
        E 0 80 63 00
        E 420 90 3e 60
        E 0 90 49 60
        E 0 90 4b 60
        E 0 90 55 60
        E 0 90 57 60
        E 0 90 61 60
        E 0 90 62 60
        E 0 90 63 60
        E 60 80 3e 00
        E 0 80 49 00
        E 0 80 4b 00
        E 0 80 55 00
        E 0 80 57 00
        E 0 80 61 00
        E 0 80 62 00
        E 0 80 63 00
        E 900 90 3e 60
        E 0 90 49 60
        E 0 90 4b 60
        E 0 90 55 60
        E 0 90 57 60
        E 0 90 61 60
        E 0 90 63 60
        E 60 80 3e 00
        E 0 80 49 00
        E 0 80 4b 00
        E 0 80 55 00
        E 0 80 57 00
        E 0 80 61 00
        E 0 80 63 00
        E 420 90 3e 60
        E 0 90 49 60
        E 0 90 4b 60
        E 0 90 55 60
        E 0 90 57 60
        E 0 90 61 60
        E 0 90 63 60
        E 60 80 3e 00
        E 0 80 49 00
        E 0 80 4b 00
        E 0 80 55 00
        E 0 80 57 00
        E 0 80 61 00
        E 0 80 63 00
        E 420 90 3e 60
        E 0 90 49 60
        E 0 90 4b 60
        E 0 90 55 60
        E 0 90 57 60
        E 0 90 61 60
        E 0 90 63 60
        E 60 80 3e 00
        E 0 80 49 00
        E 0 80 4b 00
        E 0 80 55 00
        E 0 80 57 00
        E 0 80 61 00
        E 0 80 63 00
        e 840 90 74 60
        E 60 90 3c 60
        E 0 90 48 60
        E 0 90 49 60
        E 0 90 54 60
        E 0 90 55 60
        E 0 90 60 60
        E 0 90 61 60
        E 0 90 62 60
        E 60 80 3c 00
        E 0 80 48 00
        E 0 80 49 00
        E 0 80 54 00
        E 0 80 55 00
        E 0 80 60 00
        E 0 80 61 00
        E 0 80 62 00
        E 420 90 3c 60
        E 0 90 48 60
        E 0 90 49 60
        E 0 90 54 60
        E 0 90 55 60
        E 0 90 60 60
        E 0 90 61 60
        E 0 90 62 60
        E 60 80 3c 00
        E 0 80 48 00
        E 0 80 49 00
        E 0 80 54 00
        E 0 80 55 00
        E 0 80 60 00
        E 0 80 61 00
        E 0 80 62 00
        E 420 90 3c 60
        E 0 90 48 60
        E 0 90 49 60
        E 0 90 54 60
        E 0 90 55 60
        E 0 90 60 60
        E 0 90 61 60
        E 0 90 62 60
        E 60 80 3c 00
        E 0 80 48 00
        E 0 80 49 00
        E 0 80 54 00
        E 0 80 55 00
        E 0 80 60 00
        E 0 80 61 00
        E 0 80 62 00
        E 900 90 3d 60
        E 0 90 48 60
        E 0 90 4a 60
        E 0 90 54 60
        E 0 90 57 60
        E 0 90 60 60
        E 0 90 62 60
        E 0 90 63 60
        E 60 80 3d 00
        E 0 80 48 00
        E 0 80 4a 00
        E 0 80 54 00
        E 0 80 57 00
        E 0 80 60 00
        E 0 80 62 00
        E 0 80 63 00
        E 420 90 3d 60
        E 0 90 48 60
        E 0 90 4a 60
        E 0 90 54 60
        E 0 90 57 60
        E 0 90 60 60
        E 0 90 62 60
        E 0 90 63 60
        E 60 80 3d 00
        E 0 80 48 00
        E 0 80 4a 00
        E 0 80 54 00
        E 0 80 57 00
        E 0 80 60 00
        E 0 80 62 00
        E 0 80 63 00
        E 420 90 3d 60
        E 0 90 48 60
        E 0 90 4a 60
        E 0 90 54 60
        E 0 90 57 60
        E 0 90 60 60
        E 0 90 62 60
        E 0 90 63 60
        E 60 80 3d 00
        E 0 80 48 00
        E 0 80 4a 00
        E 0 80 54 00
        E 0 80 57 00
        E 0 80 60 00
        E 0 80 62 00
        E 0 80 63 00
        e 720 80 74 00
        E 1140 90 3e 60
        E 0 90 49 60
        E 0 90 4b 60
        E 0 90 55 60
        E 0 90 57 60
        E 0 90 61 60
        E 0 90 63 60
        E 60 80 3e 00
        E 0 80 49 00
        E 0 80 4b 00
        E 0 80 55 00
        E 0 80 57 00
        E 0 80 61 00
        E 0 80 63 00
        E 900 90 3c 60
        E 0 90 48 60
        E 0 90 49 60
        E 0 90 54 60
        E 0 90 55 60
        E 0 90 60 60
        E 0 90 61 60
        E 0 90 62 60
        E 60 80 3c 00
        E 0 80 48 00
        E 0 80 49 00
        E 0 80 54 00
        E 0 80 55 00
        E 0 80 60 00
        E 0 80 61 00
        E 0 80 62 00
        E 420 90 3c 60
        E 0 90 48 60
        E 0 90 49 60
        E 0 90 54 60
        E 0 90 55 60
        E 0 90 60 60
        E 0 90 61 60
        E 0 90 62 60
        E 60 80 3c 00
        E 0 80 48 00
        E 0 80 49 00
        E 0 80 54 00
        E 0 80 55 00
        E 0 80 60 00
        E 0 80 61 00
        E 0 80 62 00
        E 420 90 3c 60
        E 0 90 48 60
        E 0 90 49 60
        E 0 90 54 60
        E 0 90 55 60
        E 0 90 60 60
        E 0 90 61 60
        E 0 90 62 60
        E 60 80 3c 00
        E 0 80 48 00
        E 0 80 49 00
        E 0 80 54 00
        E 0 80 55 00
        E 0 80 60 00
        E 0 80 61 00
        E 0 80 62 00
        E 900 90 3d 60
        E 0 90 48 60
        E 0 90 4a 60
        E 0 90 54 60
        E 0 90 57 60
        E 0 90 60 60
        E 0 90 62 60
        E 0 90 63 60
        E 60 80 3d 00
        E 0 80 48 00
        E 0 80 4a 00
        E 0 80 54 00
        E 0 80 57 00
        E 0 80 60 00
        E 0 80 62 00
        E 0 80 63 00
        E 420 90 4a 60
        E 0 90 4b 60
        E 0 90 56 60
        E 0 90 58 60
        E 0 90 61 60
        E 0 90 63 60
        E 0 90 64 60
        E 60 80 4a 00
        E 0 80 4b 00
        E 0 80 56 00
        E 0 80 58 00
        E 0 80 61 00
        E 0 80 63 00
        E 0 80 64 00
        E 420 90 3c 60
        E 0 90 48 60
        E 0 90 55 60
        E 0 90 61 60
        E 60 80 3c 00
        E 0 80 48 00
        E 0 80 55 00
        E 0 80 61 00
        E 420 90 48 60
        E 0 90 4a 60
        E 0 90 54 60
        E 0 90 57 60
        E 0 90 60 60
        E 0 90 63 60
        E 60 80 48 00
        E 0 80 4a 00
        E 0 80 54 00
        E 0 80 57 00
        E 0 80 60 00
        E 0 80 63 00
        E 420 90 3c 60
        E 0 90 48 60
        E 0 90 49 60
        E 0 90 54 60
        E 0 90 55 60
        E 0 90 60 60
        E 0 90 61 60
        E 0 90 62 60
        E 60 80 3c 00
        E 0 80 48 00
        E 0 80 49 00
        E 0 80 54 00
        E 0 80 55 00
        E 0 80 60 00
        E 0 80 61 00
        E 0 80 62 00
        E 420 90 3c 60
        E 0 90 48 60
        E 0 90 49 60
        E 0 90 54 60
        E 0 90 55 60
        E 0 90 60 60
        E 0 90 61 60
        E 0 90 62 60
        E 60 80 3c 00
        E 0 80 48 00
        E 0 80 49 00
        E 0 80 54 00
        E 0 80 55 00
        E 0 80 60 00
        E 0 80 61 00
        E 0 80 62 00
        E 420 90 3c 60
        E 0 90 48 60
        E 0 90 49 60
        E 0 90 54 60
        E 0 90 55 60
        E 0 90 60 60
        E 0 90 61 60
        E 0 90 62 60
        E 60 80 3c 00
        E 0 80 48 00
        E 0 80 49 00
        E 0 80 54 00
        E 0 80 55 00
        E 0 80 60 00
        E 0 80 61 00
        E 0 80 62 00
        E 900 90 3e 60
        E 0 90 49 60
        E 0 90 4b 60
        E 0 90 55 60
        E 0 90 57 60
        E 0 90 61 60
        E 0 90 62 60
        E 0 90 63 60
        E 60 80 3e 00
        E 0 80 49 00
        E 0 80 4b 00
        E 0 80 55 00
        E 0 80 57 00
        E 0 80 61 00
        E 0 80 62 00
        E 0 80 63 00
        E 420 90 3e 60
        E 0 90 49 60
        E 0 90 4b 60
        E 0 90 55 60
        E 0 90 57 60
        E 0 90 61 60
        E 0 90 62 60
        E 0 90 63 60
        E 60 80 3e 00
        E 0 80 49 00
        E 0 80 4b 00
        E 0 80 55 00
        E 0 80 57 00
        E 0 80 61 00
        E 0 80 62 00
        E 0 80 63 00
        E 420 90 3e 60
        E 0 90 49 60
        E 0 90 4b 60
        E 0 90 55 60
        E 0 90 57 60
        E 0 90 61 60
        E 0 90 62 60
        E 0 90 63 60
        E 60 80 3e 00
        E 0 80 49 00
        E 0 80 4b 00
        E 0 80 55 00
        E 0 80 57 00
        E 0 80 61 00
        E 0 80 62 00
        E 0 80 63 00
        E 900 90 3e 60
        E 0 90 49 60
        E 0 90 4b 60
        E 0 90 55 60
        E 0 90 57 60
        E 0 90 61 60
        E 0 90 63 60
        E 60 80 3e 00
        E 0 80 49 00
        E 0 80 4b 00
        E 0 80 55 00
        E 0 80 57 00
        E 0 80 61 00
        E 0 80 63 00
        E 420 90 3e 60
        E 0 90 49 60
        E 0 90 4b 60
        E 0 90 55 60
        E 0 90 57 60
        E 0 90 61 60
        E 0 90 63 60
        E 60 80 3e 00
        E 0 80 49 00
        E 0 80 4b 00
        E 0 80 55 00
        E 0 80 57 00
        E 0 80 61 00
        E 0 80 63 00
        E 420 90 3e 60
        E 0 90 49 60
        E 0 90 4b 60
        E 0 90 55 60
        E 0 90 57 60
        E 0 90 61 60
        E 0 90 63 60
        E 60 80 3e 00
        E 0 80 49 00
        E 0 80 4b 00
        E 0 80 55 00
        E 0 80 57 00
        E 0 80 61 00
        E 0 80 63 00
        E 900 90 3c 60
        E 0 90 48 60
        E 0 90 49 60
        E 0 90 54 60
        E 0 90 55 60
        E 0 90 60 60
        E 0 90 61 60
        E 0 90 62 60
        E 60 80 3c 00
        E 0 80 48 00
        E 0 80 49 00
        E 0 80 54 00
        E 0 80 55 00
        E 0 80 60 00
        E 0 80 61 00
        E 0 80 62 00
        E 420 90 3c 60
        E 0 90 48 60
        E 0 90 49 60
        E 0 90 54 60
        E 0 90 55 60
        E 0 90 60 60
        E 0 90 61 60
        E 0 90 62 60
        E 60 80 3c 00
        E 0 80 48 00
        E 0 80 49 00
        E 0 80 54 00
        E 0 80 55 00
        E 0 80 60 00
        E 0 80 61 00
        E 0 80 62 00
        E 900 90 49 60
        E 0 90 4b 60
        E 0 90 55 60
        E 0 90 57 60
        E 0 90 61 60
        E 0 90 63 60
        E 60 80 49 00
        E 0 80 4b 00
        E 0 80 55 00
        E 0 80 57 00
        E 0 80 61 00
        E 0 80 63 00
        E 420 90 3c 60
        E 0 90 48 60
        E 0 90 49 60
        E 0 90 54 60
        E 0 90 55 60
        E 0 90 60 60
        E 0 90 61 60
        E 0 90 62 60
        E 60 80 3c 00
        E 0 80 48 00
        E 0 80 49 00
        E 0 80 54 00
        E 0 80 55 00
        E 0 80 60 00
        E 0 80 61 00
        E 0 80 62 00
        E 420 90 3c 60
        E 0 90 48 60
        E 0 90 49 60
        E 0 90 54 60
        E 0 90 55 60
        E 0 90 60 60
        E 0 90 61 60
        E 0 90 62 60
        E 60 80 3c 00
        E 0 80 48 00
        E 0 80 49 00
        E 0 80 54 00
        E 0 80 55 00
        E 0 80 60 00
        E 0 80 61 00
        E 0 80 62 00
        E 900 90 49 60
        E 0 90 4b 60
        E 0 90 55 60
        E 0 90 57 60
        E 0 90 61 60
        E 0 90 63 60
        E 60 80 49 00
        E 0 80 4b 00
        E 0 80 55 00
        E 0 80 57 00
        E 0 80 61 00
        E 0 80 63 00
        E 419 90 3c 60
        E 0 90 48 60
        E 0 90 49 60
        E 0 90 54 60
        E 0 90 55 60
        E 0 90 60 60
        E 0 90 61 60
        E 0 90 62 60
        E 61 80 3c 00
        E 0 80 48 00
        E 0 80 49 00
        E 0 80 54 00
        E 0 80 55 00
        E 0 80 60 00
        E 0 80 61 00
        E 0 80 62 00
        E 420 90 3c 60
        E 0 90 48 60
        E 0 90 49 60
        E 0 90 54 60
        E 0 90 55 60
        E 0 90 60 60
        E 0 90 61 60
        E 0 90 62 60
        E 60 80 3c 00
        E 0 80 48 00
        E 0 80 49 00
        E 0 80 54 00
        E 0 80 55 00
        E 0 80 60 00
        E 0 80 61 00
        E 0 80 62 00
        <X 480 0
          /wFbaWRsZV9yZWFsdGltZV0=
        >
        E 3281 b0 7b 00
        GUID {14D9E950-FB92-4048-8603-8FD02AE3B865}
        IGNTEMPO 0 120.00000000 4 4
        SRCCOLOR 1142
        VELLANE 132 38 60
        COLORMAP "C:\Users\wejaa\AppData\Roaming\REAPER\Data\color_maps\rockband_guitarbass.png"
        TEXTSTRINGFILE "Text Events List.txt"
        CFGEDITVIEW 107883.734428 61.057050 0 12 0 0 0
        CFGEDIT 1 1 0 0 0 1 1 1 1 1 1 0.12500000 -8 -8 1370 736 1 2 1 2 0.00000000 0 0 0 0 0.500000 1 0 1.000000 64
        KEYSNAP 0 0 "102034050607" 0 "Major"
        EVTFILTER 0 -1 -1 -1 -1 0 1 0 0 -1.00000000 -1.00000000
      >
    >
  >
  <TRACK '{599F2587-30CF-440C-8640-A5002BE05404}'
    NAME "other"
    PEAKCOL 16576
    BEAT -1
    AUTOMODE 0
    VOLPAN 1.00000000000000 0.00000000000000 -1.00000000000000 -1.00000000000000 1.00000000000000
    MUTESOLO 1 0 0
    IPHASE 0
    ISBUS 0 0
    BUSCOMP 0 0
    SHOWINMIX 1 0.666700 0.500000 1 0.500000 -1 -1 -1
    FREEMODE 0
    SEL 0
    REC 0 0 0 0 0 0 0
    VU 2
    TRACKHEIGHT 431 0
    INQ 0 0 0 0.5000000000 100 0 0 100
    NCHAN 2
    FX 1
    TRACKID {599F2587-30CF-440C-8640-A5002BE05404}
    PERF 0
    MIDIOUT -1
    MAINSEND 1 0
    <ITEM
      POSITION 0.00000000000000
      SNAPOFFS 0.00000000000000
      LENGTH 193.19002267573697
      LOOP 0
      ALLTAKES 0
      SEL 0
      FADEIN 1 0.000000 0.000000 1 0
      FADEOUT 1 0.000000 0.000000 1 0
      MUTE 0
      IGUID {9309EABD-0968-4899-A521-7E405071E338}
      IID 142
      NAME "other.wav"
      VOLPAN 1.000000 0.000000 1.000000 -1.000000
      SOFFS 0.00000000000000
      PLAYRATE 1.00000000000000 1 0.00000000000000 -1
      CHANMODE 0
      GUID {B9FB919B-9891-4426-88D7-8ACD1C2E233B}
      <SOURCE WAVE
        FILE "separated\htdemucs\01-SONG AUDIO-consolidated-250409_1905\other.wav"
      >
    >
  >
  <TRACK '{C298A11E-8E06-44B8-AA31-429ECCE3F0AF}'
    NAME "PART VOCALS"
    PEAKCOL 16810239
    BEAT -1
    AUTOMODE 0
    VOLPAN 0.99997469241676 -0.03200000000000 -1.00000000000000 -1.00000000000000 1.00000000000000
    MUTESOLO 0 0 0
    IPHASE 0
    ISBUS 0 0
    BUSCOMP 1 0
    SHOWINMIX 1 0.666700 0.500000 1 0.500000 -1 -1 -1
    FREEMODE 0
    SEL 0
    REC 0 4096 1 7 0 0 0
    TRACKHEIGHT 157 0
    INQ 0 0 0 0.5000000000 100 0 0 100
    NCHAN 2
    FX 1
    TRACKID {C298A11E-8E06-44B8-AA31-429ECCE3F0AF}
    PERF 0
    MIDIOUT -1
    <MIDINOTENAMES
      0 105 "Phrase Marker"
      0 84 "C5"
      0 36 "C1"
      0 83 "B"
      0 82 "Bb"
      0 81 "A"
      0 80 "G#"
      0 79 "G"
      0 78 "F#"
      0 77 "F"
      0 76 "E"
      0 75 "Eb"
      0 74 "D"
      0 73 "C#"
      0 72 "C4"
      0 71 "B"
      0 70 "Bb"
      0 69 "A"
      0 68 "G#"
      0 67 "G"
      0 66 "F#"
      0 65 "F"
      0 64 "E"
      0 63 "Eb"
      0 62 "D"
      0 61 "C#"
      0 60 "C3"
      0 59 "B"
      0 58 "Bb"
      0 57 "A"
      0 56 "G#"
      0 55 "G"
      0 54 "F#"
      0 53 "F"
      0 52 "E"
      0 51 "Eb"
      0 50 "D"
      0 49 "C#"
      0 48 "C2"
      0 47 "B"
      0 46 "Bb"
      0 45 "A"
      0 44 "G#"
      0 43 "G"
      0 42 "F#"
      0 41 "F"
      0 40 "E"
      0 39 "Eb"
      0 38 "D"
      0 37 "C#"
      0 97 "Not Displayed Percussion"
      0 96 "Displayed Percussion"
      0 104 "----"
      0 95 "----"
      0 116 "OVERDRIVE"
      0 115 "----"
      0 0 "Range Shift"
      0 1 "Lyric Shift"
    >
    MAINSEND 1 0
    <FXCHAIN
      WNDRECT 581 377 716 493
      SHOW 0
      LASTSEL 1
      DOCKED 0
      BYPASS 0 0
      <JS "IX/MIDI_Tool II" ""
        0.000000 85.000000 127.000000 0.000000 0.000000 0.000000 100.000000 0.000000 0.000000 127.000000 0.000000 0.000000 1.000000 0.000000 0.000000 - - - - - - - - - - - - - - - - - - - - - - - - - - - - - - - - - - - - - - - - - - - - - - - - - 
      >
      FLOATPOS 0 0 0 0
      FXID {CA785021-0433-497E-9A6C-EE23A1BC21B0}
      WAK 0
      BYPASS 0 0
      <VST "VSTi: ReaSynth (Cockos)" "reasynth.dll" 0 ""
        eXNlcu9e7f4AAAAAAgAAAAEAAAAAAAAAAgAAAAAAAAA4AAAAAAAAAA==
        AAAAAO++rd4N8K3eppvEOxe30ToAAAAAAAAAAAAAAACa9Q8/6WeIPQ==
        AAAAAAAAAD8AAIA/AAAAAAAAAD8AAAAAAAA=
      >
      FLOATPOS 32 32 338 405
      FXID {F124DD19-73B4-4CD5-B659-E246F2A3D0B3}
      WAK 0
    >
    <ITEM
      POSITION 0.00000000000000
      SNAPOFFS 0.00000000000000
      LENGTH 193.64941555399921
      LOOP 0
      ALLTAKES 0
      SEL 0
      FADEIN 1 0.000000 0.000000 1 0
      FADEOUT 1 0.000000 0.000000 1 0
      MUTE 0
      IGUID {9C9617EC-369A-41B9-80F6-31F4222F13F6}
      IID 10
      NAME "PART VOCALS"
      VOLPAN 1.000000 0.000000 1.000000 -1.000000
      SOFFS 0.00000000000000 0.00000000000000
      PLAYRATE 1.00000000000000 1 0.00000000000000 -65536
      CHANMODE 0
      GUID {8E872349-00D8-4243-95D7-0B92852E4EE5}
      <SOURCE MIDI
        HASDATA 1 480 QN
        POOLEDEVTS {0B7644C7-3469-4FEC-9220-C6EA9297EE24}
        <X 0 0
          /wNQQVJUIFZPQ0FMUw==
        >
        <X 3840 0
          /wFbaWRsZV0=
        >
        <X 20160 0
          /wFbcGxheV0=
        >
        E 918 90 69 60
        <X 42 0
          /wVGcml0LQ==
        >
        E 0 90 32 60
        E 119 80 32 00
        <X 216 0
          /wV0aQ==
        >
        E 0 90 34 60
        E 86 80 34 00
        <X 65 0
          /wVzY2FtLQ==
        >
        E 0 90 34 60
        E 109 80 34 00
        <X 204 0
          /wVwaQ==
        >
        E 0 90 33 60
        E 101 80 33 00
        <X 78 0
          /wVl
        >
        E 0 90 33 60
        E 73 80 33 00
        <X 214 0
          /wVjaGkt
        >
        E 0 90 33 60
        E 86 80 33 00
        <X 86 0
          /wVhbi0=
        >
        E 0 90 31 60
        E 124 80 31 00
        <X 181 0
          /wV0aQ==
        >
        E 0 90 32 60
        E 107 80 32 00
        <X 74 0
          /wVjYS0=
        >
        E 0 90 34 60
        E 177 80 34 00
        <X 92 0
          /wVsYS0=
        >
        E 0 90 38 60
        E 150 80 38 00
        <X 59 0
          /wVtYS0=
        >
        E 0 90 34 60
        E 211 80 34 00
        <X 60 0
          /wVyaQ==
        >
        E 0 90 37 60
        E 136 80 37 00
        <X 77 0
          /wVFYy0=
        >
        E 0 90 32 60
        E 113 80 32 00
        <X 237 0
          /wVjbw==
        >
        E 0 90 31 60
        E 96 80 31 00
        <X 45 0
          /wVsYQ==
        >
        E 0 90 31 60
        E 127 80 31 00
        <X 154 0
          /wVwZXI=
        >
        E 0 90 37 60
        E 171 80 37 00
        <X 51 0
          /wVtZQ==
        >
        E 0 90 39 60
        E 149 80 39 00
        E 79 80 69 00
        E 976 90 69 60
        <X 143 0
          /wVadXAt
        >
        E 0 90 37 60
        E 111 80 37 00
        <X 54 0
          /wVwYQ==
        >
        E 0 90 3a 60
        E 99 80 3a 00
        <X 48 0
          /wVSby0=
        >
        E 0 90 37 60
        E 115 80 37 00
        <X 56 0
          /wVtYS0=
        >
        E 0 90 36 60
        E 231 80 36 00
        <X 67 0
          /wVuYQ==
        >
        E 0 90 36 60
        E 167 80 36 00
        E 175 80 69 00
        E 1169 90 69 60
        <X 113 0
          /wVNYWst
        >
        E 0 90 33 60
        E 120 80 33 00
        <X 219 0
          /wVrYS0=
        >
        E 0 90 33 60
        E 101 80 33 00
        <X 96 0
          /wVyb2kt
        >
        E 0 90 34 60
        E 199 80 34 00
        <X 91 0
          /wV0YQ==
        >
        E 0 90 37 60
        E 107 80 37 00
        <X 62 0
          /wVwaWkt
        >
        E 0 90 32 60
        E 77 80 32 00
        <X 28 0
          /wUr
        >
        E 0 90 34 60
        E 148 80 34 00
        <X 79 0
          /wVyYS0=
        >
        E 0 90 37 60
        E 99 80 37 00
        <X 79 0
          /wVrb2kt
        >
        E 0 90 32 60
        E 228 80 32 00
        <X 57 0
          /wV0YQ==
        >
        E 0 90 32 60
        E 104 80 32 00
        <X 65 0
          /wVww6TDpGwt
        >
        E 0 90 32 60
        E 216 80 32 00
        <X 79 0
          /wVsZQ==
        >
        E 0 90 34 60
        E 122 80 34 00
        <X 85 0
          /wV2b2kt
        >
        E 0 90 37 60
        E 227 80 37 00
        <X 74 0
          /wV0YQ==
        >
        E 0 90 37 60
        E 121 80 37 00
        <X 51 0
          /wVTaXQt
        >
        E 0 90 32 60
        E 137 80 32 00
        <X 161 0
          /wV0ZW4=
        >
        E 0 90 34 60
        E 127 80 34 00
        <X 59 0
          /wVrYWkt
        >
        E 0 90 34 60
        E 218 80 34 00
        <X 73 0
          /wVraWwt
        >
        E 0 90 36 60
        E 108 80 36 00
        <X 42 0
          /wVsZQ==
        >
        E 0 90 3a 60
        E 131 80 3a 00
        E 124 80 69 00
        E 945 90 74 60
        E 15 90 69 60
        <X 184 0
          /wVuYS0=
        >
        E 0 90 39 60
        E 143 80 39 00
        <X 38 0
          /wVraXQ=
        >
        E 0 90 39 60
        E 121 80 39 00
        <X 36 0
          /wVqYQ==
        >
        E 0 90 39 60
        E 162 80 39 00
        <X 54 0
          /wVtdXUt
        >
        E 0 90 39 60
        E 249 80 39 00
        <X 87 0
          /wVzaQ==
        >
        E 0 90 39 60
        E 178 80 39 00
        E 393 80 69 00
        E 50 80 74 00
        E 695 90 69 60
        <X 252 0
          /wVCZWwt
        >
        E 0 90 3c 60
        E 228 80 3c 00
        <X 103 0
          /wVsYQ==
        >
        E 0 90 37 60
        E 99 80 37 00
        <X 67 0
          /wVkb24t
        >
        E 0 90 3b 60
        E 175 80 3b 00
        <X 93 0
          /wVuYQ==
        >
        E 0 90 36 60
        E 140 80 36 00
        <X 68 0
          /wVtYW0t
        >
        E 0 90 3b 60
        E 180 80 3b 00
        <X 116 0
          /wVtYQ==
        >
        E 0 90 3c 60
        E 105 80 3c 00
        <X 56 0
          /wVtaS0=
        >
        E 0 90 3c 60
        E 239 80 3c 00
        <X 67 0
          /wVh
        >
        E 0 90 3c 60
        E 117 80 3c 00
        <X 67 0
          /wVhLQ==
        >
        E 0 90 3b 60
        E 213 80 3b 00
        <X 72 0
          /wVsaS0=
        >
        E 0 90 3a 60
        E 110 80 3a 00
        <X 50 0
          /wVtZW4t
        >
        E 0 90 3b 60
        E 159 80 3b 00
        <X 128 0
          /wV0aQ==
        >
        E 0 90 3b 60
        E 122 80 3b 00
        <X 88 0
          /wVjaS0=
        >
        E 0 90 3c 60
        E 272 80 3c 00
        E 4 80 69 00
        E 64 90 69 60
        <X 77 0
          /wVhbw==
        >
        E 0 90 3b 60
        E 71 80 3b 00
        <X 39 0
          /wUr
        >
        E 0 90 39 60
        E 170 80 39 00
        <X 253 0
          /wVTdW8t
        >
        E 0 90 39 60
        E 271 80 39 00
        <X 59 0
          /wVtaS0=
        >
        E 0 90 36 60
        E 120 80 36 00
        <X 62 0
          /wVwb2kt
        >
        E 0 90 38 60
        E 267 80 38 00
        <X 67 0
          /wVrYQ==
        >
        E 0 90 36 60
        E 113 80 36 00
        <X 71 0
          /wVzaWkt
        >
        E 0 90 36 60
        E 219 80 36 00
        <X 76 0
          /wVoZW4=
        >
        E 0 90 36 60
        E 94 80 36 00
        <X 47 0
          /wVldC0=
        >
        E 0 90 36 60
        E 153 80 36 00
        <X 150 0
          /wV0w6Q=
        >
        E 0 90 36 60
        E 171 80 36 00
        <X 63 0
          /wVoZWkt
        >
        E 0 90 36 60
        E 349 80 36 00
        <X 96 0
          /wVrdW4=
        >
        E 0 90 3a 60
        E 365 80 3a 00
        <X 112 0
          /wVrZWkt
        >
        E 0 90 3a 60
        E 389 80 3a 00
        <X 83 0
          /wVrdW4=
        >
        E 0 90 3a 60
        E 360 80 3a 00
        E 95 80 69 00
        E 129 90 69 60
        <X 146 0
          /wVUdXAt
        >
        E 0 90 33 60
        E 59 80 33 00
        <X 27 0
          /wVsYS0=
        >
        E 0 90 31 60
        E 83 80 31 00
        <X 65 0
          /wV2b3Qt
        >
        E 0 90 34 60
        E 122 80 34 00
        <X 215 0
          /wVrYQ==
        >
        E 0 90 34 60
        E 92 80 34 00
        <X 136 0
          /wVwb3Mt
        >
        E 0 90 31 60
        E 210 80 31 00
        <X 69 0
          /wVzdW4=
        >
        E 0 90 33 60
        E 87 80 33 00
        <X 56 0
          /wVwb3Qt
        >
        E 0 90 35 60
        E 110 80 35 00
        <X 207 0
          /wVrYQ==
        >
        E 0 90 36 60
        E 92 80 36 00
        <X 52 0
          /wVoZXIt
        >
        E 0 90 34 60
        E 257 80 34 00
        <X 65 0
          /wVrdXQ=
        >
        E 0 90 36 60
        E 93 80 36 00
        <X 59 0
          /wVqb3Qt
        >
        E 0 90 34 60
        E 138 80 34 00
        <X 207 0
          /wVrYQ==
        >
        E 0 90 37 60
        E 86 80 37 00
        <X 44 0
          /wVtYWlzLQ==
        >
        E 0 90 32 60
        E 214 80 32 00
        <X 96 0
          /wV0dXU=
        >
        E 0 90 32 60
        E 166 80 32 00
        <X 32 0
          /wVNdXQt
        >
        E 0 90 34 60
        E 111 80 34 00
        <X 189 0
          /wV0YQ==
        >
        E 0 90 36 60
        E 114 80 36 00
        <X 45 0
          /wVtecO2cw==
        >
        E 0 90 38 60
        E 277 80 38 00
        E 114 80 69 00
        E 701 90 69 60
        E 0 90 74 60
        <X 265 0
          /wVuYS0=
        >
        E 0 90 37 60
        E 187 80 37 00
        <X 39 0
          /wVraXQ=
        >
        E 0 90 33 60
        E 138 80 33 00
        <X 38 0
          /wVqYQ==
        >
        E 0 90 33 60
        E 145 80 33 00
        <X 51 0
          /wVtdXUt
        >
        E 0 90 33 60
        E 237 80 33 00
        <X 65 0
          /wVzaQ==
        >
        E 0 90 33 60
        E 199 80 33 00
        E 176 80 69 00
        E 0 80 74 00
        E 4970 90 69 60
        <X 93 0
          /wVQcmUt
        >
        E 0 90 2d 60
        E 899 80 2d 00
        <X 83 0
          /wVnbw==
        >
        E 0 90 36 60
        E 153 80 36 00
        <X 642 0
          /wVBYy0=
        >
        E 0 90 2e 60
        E 189 80 2e 00
        <X 292 0
          /wVxdWE=
        >
        E 0 90 2f 60
        E 69 80 2f 00
        <X 86 0
          /wVtaS0=
        >
        E 0 90 32 60
        E 155 80 32 00
        <X 69 0
          /wVuZS0=
        >
        E 0 90 32 60
        E 74 80 32 00
        <X 31 0
          /wUr
        >
        E 0 90 30 60
        E 33 80 30 00
        <X 41 0
          /wVyYS0=
        >
        E 0 90 2e 60
        E 191 80 2e 00
        <X 33 0
          /wUr
        >
        E 0 90 2b 60
        E 127 80 2b 00
        <X 165 0
          /wVsZQ==
        >
        E 0 90 2b 60
        E 130 80 2b 00
        E 93 80 69 00
        E 91 90 69 60
        <X 54 0
          /wVncmFwLQ==
        >
        E 0 90 2d 60
        E 121 80 2d 00
        <X 224 0
          /wVwYQ==
        >
        E 0 90 2d 60
        E 115 80 2d 00
        <X 81 0
          /wVzcGUt
        >
        E 0 90 30 60
        E 95 80 30 00
        <X 229 0
          /wVjaS0=
        >
        E 0 90 2f 60
        E 191 80 2f 00
        <X 22 0
          /wVhLQ==
        >
        E 0 90 2e 60
        E 168 80 2e 00
        <X 266 0
          /wVsZQ==
        >
        E 0 90 33 60
        E 78 80 33 00
        <X 425 0
          /wVjb3ot
        >
        E 0 90 31 60
        E 93 80 31 00
        <X 199 0
          /wV6ZQ==
        >
        E 0 90 33 60
        E 132 80 33 00
        <X 62 0
          /wV2b24t
        >
        E 0 90 32 60
        E 241 80 32 00
        <X 70 0
          /wVnby0=
        >
        E 0 90 32 60
        E 126 80 32 00
        <X 59 0
          /wVsZS0=
        >
        E 0 90 32 60
        E 112 80 32 00
        <X 273 0
          /wVzaQ==
        >
        E 0 90 33 60
        E 241 80 33 00
        E 185 80 69 00
        E 90 90 69 60
        <X 92 0
          /wVUdW8t
        >
        E 0 90 2f 50
        E 755 80 2f 00
        <X 176 0
          /wVrYWE=
        >
        E 0 90 36 46
        E 440 80 36 00
        <X 517 0
          /wVLYWEt
        >
        E 0 90 30 63
        E 269 80 30 00
        <X 36 0
          /wVsaS0=
        >
        E 0 90 32 63
        E 72 80 32 00
        <X 91 0
          /wVrw6TDpC0=
        >
        E 0 90 33 63
        E 274 80 33 00
        <X 17 0
          /wVyeS0=
        >
        E 0 90 31 58
        E 143 80 31 00
        <X 27 0
          /wVsZXQt
        >
        E 0 90 2f 46
        E 131 80 2f 00
        <X 327 0
          /wV0w6Q=
        >
        E 0 90 2a 46
        E 182 80 2a 00
        <X 333 0
          /wV2aWUt
        >
        E 0 90 2f 55
        E 276 80 2f 00
        <X 40 0
          /wVsw6Q=
        >
        E 0 90 30 5a
        E 94 80 30 00
        <X 63 0
          /wV2aXMt
        >
        E 0 90 31 3e
        E 304 80 31 00
        <X 41 0
          /wVzeS0=
        >
        E 0 90 2f 3b
        E 95 80 2f 00
        <X 55 0
          /wV2ZXQt
        >
        E 0 90 2e 49
        E 157 80 2e 00
        <X 289 0
          /wV0w6Q=
        >
        E 0 90 2e 49
        E 255 80 2e 00
        E 106 80 69 00
        E 147 90 69 60
        E 0 90 74 60
        <X 9 0
          /wVHb3It
        >
        E 0 90 2e 49
        E 375 80 2e 00
        <X 126 0
          /wVnb24t
        >
        E 0 90 2e 49
        E 278 80 2e 00
        <X 189 0
          /wV6by0=
        >
        E 0 90 31 61
        E 444 80 31 00
        <X 48 0
          /wVsYQ==
        >
        E 0 90 32 69
        E 351 80 32 00
        <X 118 0
          /wVDby0=
        >
        E 0 90 34 67
        E 366 80 34 00
        <X 128 0
          /wVjYQ==
        >
        E 0 90 36 68
        E 339 80 36 00
        <X 157 0
          /wVDby0=
        >
        E 0 90 37 67
        E 376 80 37 00
        <X 67 0
          /wVsYQ==
        >
        E 0 90 37 67
        E 283 80 37 00
        E 76 80 69 00
        E 0 80 74 00
        E 102 90 69 60
        <X 39 0
          /wVNYWMt
        >
        E 0 90 38 55
        E 80 80 38 00
        <X 223 0
          /wVjaGUt
        >
        E 0 90 38 55
        E 79 80 38 00
        <X 82 0
          /wVyby0=
        >
        E 0 90 34 55
        E 215 80 34 00
        <X 85 0
          /wVuaQ==
        >
        E 0 90 39 44
        E 59 80 39 00
        <X 117 0
          /wVjYW4t
        >
        E 0 90 31 56
        E 99 80 31 00
        <X 207 0
          /wVuZWwt
        >
        E 0 90 32 36
        E 96 80 32 00
        <X 72 0
          /wVsby0=
        >
        E 0 90 34 54
        E 251 80 34 00
        <X 61 0
          /wVuaQ==
        >
        E 0 90 34 54
        E 75 80 34 00
        <X 113 0
          /wVwZS0=
        >
        E 0 90 39 44
        E 106 80 39 00
        <X 188 0
          /wVwZS0=
        >
        E 0 90 32 59
        E 84 80 32 00
        <X 70 0
          /wVyby0=
        >
        E 0 90 33 4f
        E 255 80 33 00
        <X 46 0
          /wVuaQ==
        >
        E 0 90 38 4d
        E 67 80 38 00
        <X 125 0
          /wVFYy0=
        >
        E 0 90 38 4d
        E 68 80 38 00
        <X 224 0
          /wVjbw==
        >
        E 0 90 33 50
        E 111 80 33 00
        <X 45 0
          /wVsYQ==
        >
        E 0 90 37 4c
        E 86 80 37 00
        <X 184 0
          /wVwZXI=
        >
        E 0 90 37 56
        E 128 80 37 00
        <X 79 0
          /wVtZQ==
        >
        E 0 90 3a 5b
        E 189 80 3a 00
        E 84 80 69 00
        E 1084 90 69 60
        <X 45 0
          /wVadXAt
        >
        E 0 90 3a 3d
        E 157 80 3a 00
        <X 64 0
          /wVwYQ==
        >
        E 0 90 3a 3d
        E 87 80 3a 00
        <X 43 0
          /wVSby0=
        >
        E 0 90 3a 3d
        E 124 80 3a 00
        <X 81 0
          /wVtYS0=
        >
        E 0 90 3a 3d
        E 237 80 3a 00
        <X 57 0
          /wVuYQ==
        >
        E 0 90 3a 3d
        E 130 80 3a 00
        E 71 80 69 00
        E 1234 90 69 60
        <X 29 0
          /wVMw6RzLQ==
        >
        E 0 90 37 64
        E 297 80 37 00
        <X 187 0
          /wVraS0=
        >
        E 0 90 36 44
        E 129 80 36 00
        <X 70 0
          /wVzb28t
        >
        E 0 90 34 5d
        E 229 80 34 00
        <X 47 0
          /wVzaQ==
        >
        E 0 90 34 5d
        E 112 80 34 00
        <X 87 0
          /wVhcC0=
        >
        E 0 90 32 56
        E 156 80 32 00
        <X 78 0
          /wVyaS0=
        >
        E 0 90 32 56
        E 188 80 32 00
        <X 78 0
          /wVrb28t
        >
        E 0 90 34 5e
        E 218 80 34 00
        <X 73 0
          /wVzaQ==
        >
        E 0 90 38 51
        E 128 80 38 00
        E 11 80 69 00
        E 22 90 69 60
        <X 11 0
          /wVkaWFnLQ==
        >
        E 0 90 32 57
        E 241 80 32 00
        <X 194 0
          /wVub28t
        >
        E 0 90 33 61
        E 230 80 33 00
        <X 61 0
          /wVzaQ==
        >
        E 0 90 33 61
        E 105 80 33 00
        <X 101 0
          /wVUYXJrLQ==
        >
        E 0 90 32 57
        E 180 80 32 00
        <X 166 0
          /wVrYQ==
        >
        E 0 90 32 51
        E 106 80 32 00
        <X 35 0
          /wVtZWlsLQ==
        >
        E 0 90 35 5a
        E 182 80 35 00
        <X 85 0
          /wVsw6Q=
        >
        E 0 90 35 5a
        E 96 80 35 00
        <X 89 0
          /wVvbg==
        >
        E 0 90 39 53
        E 266 80 39 00
        E 85 80 69 00
        E 929 90 74 60
        E 115 90 69 60
        <X 15 0
          /wVuYS0=
        >
        E 0 90 39 60
        E 143 80 39 00
        <X 38 0
          /wVraXQ=
        >
        E 0 90 39 60
        E 121 80 39 00
        <X 36 0
          /wVqYQ==
        >
        E 0 90 39 60
        E 162 80 39 00
        <X 54 0
          /wVtdXUt
        >
        E 0 90 39 60
        E 249 80 39 00
        <X 87 0
          /wVzaQ==
        >
        E 0 90 32 60
        E 178 80 32 00
        E 98 80 74 00
        E 0 80 69 00
        E 1238 90 69 60
        <X 32 0
          /wVCZWwt
        >
        E 0 90 32 60
        E 228 80 32 00
        <X 103 0
          /wVsYQ==
        >
        E 0 90 37 60
        E 99 80 37 00
        <X 67 0
          /wVkb24t
        >
        E 0 90 3c 60
        E 175 80 3c 00
        <X 93 0
          /wVuYQ==
        >
        E 0 90 3c 60
        E 140 80 3c 00
        <X 68 0
          /wVtYW0t
        >
        E 0 90 3b 60
        E 180 80 3b 00
        <X 116 0
          /wVtYQ==
        >
        E 0 90 38 60
        E 105 80 38 00
        <X 56 0
          /wVtaS0=
        >
        E 0 90 3b 60
        E 239 80 3b 00
        <X 67 0
          /wVh
        >
        E 0 90 3b 60
        E 117 80 3b 00
        <X 67 0
          /wVhLQ==
        >
        E 0 90 3a 60
        E 213 80 3a 00
        <X 72 0
          /wVsaS0=
        >
        E 0 90 3c 60
        E 110 80 3c 00
        <X 50 0
          /wVtZW4t
        >
        E 0 90 3c 60
        E 159 80 3c 00
        <X 128 0
          /wV0aQ==
        >
        E 0 90 3f 60
        E 122 80 3f 00
        <X 88 0
          /wVjaS0=
        >
        E 0 90 3c 60
        E 272 80 3c 00
        <X 145 0
          /wVhbw==
        >
        E 0 90 3c 60
        E 71 80 3c 00
        <X 39 0
          /wUr
        >
        E 0 90 3b 60
        E 170 80 3b 00
        E 7 80 69 00
        E 76 90 69 60
        <X 124 0
          /wVTdW8t
        >
        E 0 90 3b 60
        E 317 80 3b 00
        <X 59 0
          /wVtaS0=
        >
        E 0 90 36 60
        E 120 80 36 00
        <X 62 0
          /wVwb2kt
        >
        E 0 90 38 60
        E 267 80 38 00
        <X 67 0
          /wVrYQ==
        >
        E 0 90 37 60
        E 113 80 37 00
        <X 71 0
          /wVzaWkt
        >
        E 0 90 3a 60
        E 219 80 3a 00
        <X 76 0
          /wVoZW4=
        >
        E 0 90 3a 60
        E 94 80 3a 00
        <X 47 0
          /wVldC0=
        >
        E 0 90 3a 60
        E 153 80 3a 00
        <X 150 0
          /wV0w6Q=
        >
        E 0 90 3a 60
        E 171 80 3a 00
        <X 63 0
          /wVoZWkt
        >
        E 0 90 3a 60
        E 349 80 3a 00
        <X 96 0
          /wVrdW4=
        >
        E 0 90 39 60
        E 365 80 39 00
        <X 112 0
          /wVrZWkt
        >
        E 0 90 36 60
        E 389 80 36 00
        <X 83 0
          /wVrdW4=
        >
        E 0 90 35 60
        E 360 80 35 00
        E 38 80 69 00
        E 48 90 69 60
        <X 41 0
          /wVrb3Mt
        >
        E 0 90 32 4d
        E 234 80 32 00
        <X 70 0
          /wVraXMt
        >
        E 0 90 32 4d
        E 109 80 32 00
        <X 96 0
          /wV0dWlrLQ==
        >
        E 0 90 34 55
        E 184 80 34 00
        <X 143 0
          /wVrdS0=
        >
        E 0 90 37 59
        E 93 80 37 00
        <X 62 0
          /wVwaWst
        >
        E 0 90 37 59
        E 93 80 37 00
        <X 217 0
          /wVrdQ==
        >
        E 0 90 37 53
        E 114 80 37 00
        <X 59 0
          /wVodWlrLQ==
        >
        E 0 90 35 53
        E 150 80 35 00
        <X 133 0
          /wVrdS0=
        >
        E 0 90 37 59
        E 93 80 37 00
        <X 149 0
          /wVzdW8t
        >
        E 0 90 32 52
        E 209 80 32 00
        <X 41 0
          /wVsYS0=
        >
        E 0 90 32 52
        E 95 80 32 00
        <X 55 0
          /wVtdWlrLQ==
        >
        E 0 90 35 4f
        E 164 80 35 00
        <X 153 0
          /wVrdQ==
        >
        E 0 90 36 52
        E 114 80 36 00
        <X 58 0
          /wVvbg==
        >
        E 0 90 36 52
        E 100 80 36 00
        <X 170 0
          /wVqYQ==
        >
        E 0 90 32 52
        E 92 80 32 00
        <X 93 0
          /wVww6TDpGwt
        >
        E 0 90 34 52
        E 185 80 34 00
        <X 112 0
          /wVsZQ==
        >
        E 0 90 34 52
        E 118 80 34 00
        <X 84 0
          /wVzZW4=
        >
        E 0 90 39 52
        E 139 80 39 00
        E 81 80 69 00
        E 1070 90 69 60
        E 1 90 74 60
        <X 108 0
          /wVuYS0=
        >
        E 0 90 3c 60
        E 110 80 3c 00
        <X 38 0
          /wVraXQ=
        >
        E 0 90 39 60
        E 121 80 39 00
        <X 69 0
          /wVqYQ==
        >
        E 0 90 37 60
        E 128 80 37 00
        <X 88 0
          /wVtdXUt
        >
        E 0 90 36 60
        E 249 80 36 00
        <X 87 0
          /wVzaQ==
        >
        E 0 90 31 60
        E 178 80 31 00
        E 105 80 69 00
        E 1 80 74 00
        <X 374 0
          /wFbaWRsZV0=
        >
        <X 21529 0
          /wFbcGxheV0=
        >
        E 554 90 69 60
        <X 106 0
          /wVQcmVlLQ==
        >
        E 0 90 2c 4a
        E 305 80 2c 00
        <X 116 0
          /wUr
        >
        E 0 90 30 75
        E 302 80 30 00
        <X 86 0
          /wVnbyE=
        >
        E 0 90 38 5b
        E 106 80 38 00
        <X 695 0
          /wVJbi0=
        >
        E 0 90 30 5b
        E 250 80 30 00
        <X 168 0
          /wVzYS0=
        >
        E 0 90 33 3d
        E 85 80 33 00
        <X 72 0
          /wVsYWF0LQ==
        >
        E 0 90 33 64
        E 197 80 33 00
        <X 166 0
          /wV0YQ==
        >
        E 0 90 30 64
        E 66 80 30 00
        <X 81 0
          /wVtaXMt
        >
        E 0 90 31 3d
        E 340 80 31 00
        <X 81 0
          /wV0YQ==
        >
        E 0 90 31 3d
        E 94 80 31 00
        E 178 80 69 00
        E 201 90 69 60
        <X 81 0
          /wVmcml0LQ==
        >
        E 0 90 31 3d
        E 93 80 31 00
        <X 257 0
          /wVzYQ==
        >
        E 0 90 31 3d
        E 64 80 31 00
        <X 58 0
          /wVkZWwt
        >
        E 0 90 31 3d
        E 231 80 31 00
        <X 70 0
          /wVsYQ==
        >
        E 0 90 31 3d
        E 91 80 31 00
        <X 90 0
          /wV2aXMt
        >
        E 0 90 30 42
        E 317 80 30 00
        <X 104 0
          /wV0YQ==
        >
        E 0 90 30 42
        E 99 80 30 00
        <X 291 0
          /wVyYS0=
        >
        E 0 90 30 42
        E 73 80 30 00
        <X 47 0
          /wVnYXQt
        >
        E 0 90 30 42
        E 66 80 30 00
        <X 219 0
          /wVzZQ==
        >
        E 0 90 33 42
        E 113 80 33 00
        <X 80 0
          /wVnb24t
        >
        E 0 90 33 42
        E 77 80 33 00
        <X 43 0
          /wUr
        >
        E 0 90 32 42
        E 101 80 32 00
        <X 49 0
          /wVnZXMt
        >
        E 0 90 32 42
        E 106 80 32 00
        <X 125 0
          /wV0YWlz
        >
        E 0 90 32 42
        E 228 80 32 00
        <X 163 0
          /wVzaQ==
        >
        E 0 90 42 42
        E 314 80 42 00
        E 92 80 69 00
        E 93 90 69 60
        E 0 90 74 60
        <X 158 0
          /wVUdW8t
        >
        E 0 90 30 42
        E 785 80 30 00
        <X 130 0
          /wVrYWE=
        >
        E 0 90 36 42
        E 183 80 36 00
        <X 56 0
          /wUr
        >
        E 0 90 37 42
        E 184 80 37 00
        <X 487 0
          /wVMYWgt
        >
        E 0 90 31 42
        E 243 80 31 00
        <X 73 0
          /wVuYQ==
        >
        E 0 90 32 5c
        E 141 80 32 00
        <X 56 0
          /wVzYS0=
        >
        E 0 90 33 51
        E 109 80 33 00
        <X 46 0
          /wV2dXMt
        >
        E 0 90 33 51
        E 200 80 33 00
        <X 132 0
          /wV0ZXQt
        >
        E 0 90 30 48
        E 121 80 30 00
        <X 352 0
          /wV0dQ==
        >
        E 0 90 2c 36
        E 116 80 2c 00
        <X 367 0
          /wVtdXUt
        >
        E 0 90 30 4b
        E 214 80 30 00
        <X 40 0
          /wVyaW4t
        >
        E 0 90 31 4d
        E 135 80 31 00
        <X 83 0
          /wVwb2gt
        >
        E 0 90 32 5e
        E 210 80 32 00
        <X 98 0
          /wVqYS0=
        >
        E 0 90 30 46
        E 149 80 30 00
        <X 38 0
          /wVsZXQt
        >
        E 0 90 2f 52
        E 199 80 2f 00
        <X 315 0
          /wV0dQ==
        >
        E 0 90 2c 34
        E 126 80 2c 00
        E 11 80 69 00
        E 0 80 74 00
        E 184 90 69 60
        <X 130 0
          /wVNb24t
        >
        E 0 90 2c 6c
        E 334 80 2c 00
        <X 139 0
          /wV0YQ==
        >
        E 0 90 30 6c
        E 365 80 30 00
        <X 104 0
          /wVraWwt
        >
        E 0 90 32 64
        E 431 80 32 00
        <X 34 0
          /wVsb28=
        >
        E 0 90 32 64
        E 166 80 32 00
        <X 44 0
          /wUr
        >
        E 0 90 33 64
        E 190 80 33 00
        <X 81 0
          /wV2YXQt
        >
        E 0 90 33 69
        E 221 80 33 00
        <X 258 0
          /wV0dS0=
        >
        E 0 90 32 5c
        E 391 80 32 00
        <X 102 0
          /wVoaWwt
        >
        E 0 90 32 5c
        E 207 80 32 00
        <X 50 0
          /wUr
        >
        E 0 90 33 60
        E 168 80 33 00
        <X 73 0
          /wVsb28=
        >
        E 0 90 34 72
        E 281 80 34 00
        E 30 80 69 00
        E 55 90 69 60
        <X 79 0
          /wVLYW50LQ==
        >
        E 0 90 30 6b
        E 121 80 30 00
        <X 268 0
          /wV0YS0=
        >
        E 0 90 39 60
        E 88 80 39 00
        <X 27 0
          /wVyZWwt
        >
        E 0 90 37 60
        E 260 80 37 00
        <X 56 0
          /wVsaQ==
        >
        E 0 90 3a 60
        E 49 80 3a 00
        <X 156 0
          /wVrYXUt
        >
        E 0 90 3a 60
        E 261 80 3a 00
        <X 38 0
          /wVyYS0=
        >
        E 0 90 36 60
        E 155 80 36 00
        <X 35 0
          /wV2ZWwt
        >
        E 0 90 38 60
        E 212 80 38 00
        <X 40 0
          /wVsaQ==
        >
        E 0 90 38 60
        E 87 80 38 00
        <X 87 0
          /wVtb3Mt
        >
        E 0 90 35 60
        E 215 80 35 00
        <X 95 0
          /wVrYS0=
        >
        E 0 90 35 60
        E 82 80 35 00
        <X 80 0
          /wV0ZWwt
        >
        E 0 90 38 4d
        E 233 80 38 00
        <X 33 0
          /wVsaQ==
        >
        E 0 90 3c 4d
        E 100 80 3c 00
        <X 104 0
          /wVTaXQt
        >
        E 0 90 3c 4d
        E 61 80 3c 00
        <X 202 0
          /wV0ZW4=
        >
        E 0 90 36 4d
        E 93 80 36 00
        <X 130 0
          /wVtdWwt
        >
        E 0 90 38 53
        E 186 80 38 00
        <X 20 0
          /wVsZQ==
        >
        E 0 90 39 5e
        E 85 80 39 00
        <X 131 0
          /wVrYW5z
        >
        E 0 90 3c 5f
        E 367 80 3c 00
        E 102 80 69 00
        E 857 90 69 60
        E 0 90 74 60
        <X 136 0
          /wVuYS0=
        >
        E 0 90 3c 60
        E 136 80 3c 00
        <X 41 0
          /wVraXQ=
        >
        E 0 90 40 60
        E 121 80 40 00
        <X 73 0
          /wVqYQ==
        >
        E 0 90 40 60
        E 107 80 40 00
        <X 56 0
          /wVtdXUt
        >
        E 0 90 40 60
        E 265 80 40 00
        <X 48 0
          /wVzaQ==
        >
        E 0 90 39 60
        E 178 80 39 00
        E 83 80 69 00
        E 0 80 74 00
        E 941 90 69 60
        <X 97 0
          /wVMYW50LQ==
        >
        E 0 90 37 66
        E 361 80 37 00
        <X 190 0
          /wV0dS0=
        >
        E 0 90 36 5a
        E 127 80 36 00
        <X 56 0
          /wVrdWst
        >
        E 0 90 37 4d
        E 150 80 37 00
        <X 178 0
          /wVrbw==
        >
        E 0 90 3b 60
        E 84 80 3b 00
        <X 87 0
          /wVvcy0=
        >
        E 0 90 38 53
        E 274 80 38 00
        <X 34 0
          /wVoby0=
        >
        E 0 90 38 53
        E 115 80 38 00
        <X 71 0
          /wVwdWst
        >
        E 0 90 37 49
        E 178 80 37 00
        <X 150 0
          /wVrbw==
        >
        E 0 90 39 65
        E 128 80 39 00
        <X 48 0
          /wVtZWkt
        >
        E 0 90 35 63
        E 231 80 35 00
        <X 70 0
          /wVrw6Q=
        >
        E 0 90 34 58
        E 142 80 34 00
        <X 28 0
          /wV1ay0=
        >
        E 0 90 34 58
        E 131 80 34 00
        <X 151 0
          /wVrbw==
        >
        E 0 90 39 5b
        E 105 80 39 00
        <X 78 0
          /wVOw6RpLQ==
        >
        E 0 90 35 65
        E 257 80 35 00
        <X 41 0
          /wVoaW4=
        >
        E 0 90 36 56
        E 108 80 36 00
        <X 97 0
          /wV0eXkt
        >
        E 0 90 37 62
        E 208 80 37 00
        <X 41 0
          /wVkeQ==
        >
        E 0 90 39 54
        E 89 80 39 00
        <X 86 0
          /wVlaQ==
        >
        E 0 90 3c 58
        E 357 80 3c 00
        E 105 80 69 00
        E 866 90 69 60
        E 0 90 74 60
        <X 100 0
          /wVOYS0=
        >
        E 0 90 3e 60
        E 146 80 3e 00
        <X 48 0
          /wVraXQ=
        >
        E 0 90 3c 60
        E 121 80 3c 00
        <X 56 0
          /wVqYQ==
        >
        E 0 90 3c 60
        E 107 80 3c 00
        <X 81 0
          /wVtdXUt
        >
        E 0 90 39 60
        E 265 80 39 00
        <X 48 0
          /wVzaQ==
        >
        E 0 90 39 60
        E 203 80 39 00
        E 91 80 69 00
        E 0 80 74 00
        E 1110 90 69 60
        <X 139 0
          /wVCZWwt
        >
        E 0 90 3d 60
        E 236 80 3d 00
        <X 82 0
          /wVsYQ==
        >
        E 0 90 3e 60
        E 99 80 3e 00
        <X 67 0
          /wVkb24t
        >
        E 0 90 3e 60
        E 175 80 3e 00
        <X 111 0
          /wVuYQ==
        >
        E 0 90 3d 60
        E 122 80 3d 00
        <X 68 0
          /wVtYW0t
        >
        E 0 90 3e 60
        E 180 80 3e 00
        <X 137 0
          /wVtYQ==
        >
        E 0 90 3e 60
        E 95 80 3e 00
        <X 86 0
          /wVtaS0=
        >
        E 0 90 3e 60
        E 263 80 3e 00
        <X 39 0
          /wVh
        >
        E 0 90 3e 60
        E 95 80 3e 00
        <X 82 0
          /wVhLQ==
        >
        E 0 90 3d 60
        E 241 80 3d 00
        <X 48 0
          /wVsaS0=
        >
        E 0 90 3c 60
        E 123 80 3c 00
        <X 59 0
          /wVtZW4t
        >
        E 0 90 3e 60
        E 142 80 3e 00
        <X 143 0
          /wV0aQ==
        >
        E 0 90 40 60
        E 108 80 40 00
        <X 63 0
          /wVjaS0=
        >
        E 0 90 40 60
        E 351 80 40 00
        <X 112 0
          /wVhbw==
        >
        E 0 90 3e 60
        E 210 80 3e 00
        E 45 80 69 00
        E 129 90 69 60
        <X 101 0
          /wVTdW8t
        >
        E 0 90 3f 60
        E 283 80 3f 00
        <X 62 0
          /wVtaS0=
        >
        E 0 90 3d 60
        E 131 80 3d 00
        <X 58 0
          /wVwb2kt
        >
        E 0 90 39 60
        E 272 80 39 00
        <X 55 0
          /wVrYQ==
        >
        E 0 90 3c 60
        E 121 80 3c 00
        <X 70 0
          /wVzaWkt
        >
        E 0 90 3d 60
        E 215 80 3d 00
        <X 45 0
          /wVoZW4=
        >
        E 0 90 3a 60
        E 140 80 3a 00
        <X 79 0
          /wVldC0=
        >
        E 0 90 3c 60
        E 111 80 3c 00
        <X 114 0
          /wV0w6Q=
        >
        E 0 90 3d 60
        E 171 80 3d 00
        <X 73 0
          /wVow7Yt
        >
        E 0 90 3d 60
        E 182 80 3d 00
        <X 35 0
          /wVsw7Yt
        >
        E 0 90 3d 60
        E 206 80 3d 00
        <X 103 0
          /wVreW4=
        >
        E 0 90 3d 60
        E 307 80 3d 00
        <X 79 0
          /wVrw7Yt
        >
        E 0 90 39 60
        E 207 80 39 00
        <X 40 0
          /wVsw7Yt
        >
        E 0 90 39 60
        E 165 80 39 00
        <X 110 0
          /wVreW4=
        >
        E 0 90 39 60
        E 230 80 39 00
        E 24 80 69 00
        E 181 90 69 60
        <X 17 0
          /wVWYWwt
        >
        E 0 90 35 64
        E 275 80 35 00
        <X 78 0
          /wVrby0=
        >
        E 0 90 35 64
        E 123 80 35 00
        <X 64 0
          /wV2aWkt
        >
        E 0 90 35 6a
        E 97 80 35 00
        <X 35 0
          /wUr
        >
        E 0 90 37 6a
        E 116 80 37 00
        <X 35 0
          /wVuaQ==
        >
        E 0 90 3a 62
        E 100 80 3a 00
        <X 97 0
          /wVwZWwt
        >
        E 0 90 37 65
        E 250 80 37 00
        <X 63 0
          /wV0aQ==
        >
        E 0 90 36 57
        E 86 80 36 00
        <X 75 0
          /wVraWluLQ==
        >
        E 0 90 38 63
        E 201 80 38 00
        <X 91 0
          /wVuaQ==
        >
        E 0 90 39 5a
        E 76 80 39 00
        <X 106 0
          /wVhcy0=
        >
        E 0 90 39 5a
        E 140 80 39 00
        <X 208 0
          /wVwaS0=
        >
        E 0 90 39 5a
        E 108 80 39 00
        <X 43 0
          /wVyaWkt
        >
        E 0 90 37 67
        E 209 80 37 00
        <X 58 0
          /wVuaQ==
        >
        E 0 90 3a 62
        E 116 80 3a 00
        <X 69 0
          /wVNaW4t
        >
        E 0 90 35 56
        E 117 80 35 00
        <X 153 0
          /wVuZQ==
        >
        E 0 90 35 56
        E 148 80 35 00
        <X 32 0
          /wVqw6TDpC0=
        >
        E 0 90 35 56
        E 240 80 35 00
        <X 48 0
          /wVueXQ=
        >
        E 0 90 39 57
        E 94 80 39 00
        <X 68 0
          /wVvbg==
        >
        E 0 90 3c 55
        E 273 80 3c 00
        E 35 80 69 00
        E 1057 90 69 60
        <X 44 0
          /wVuYS0=
        >
        E 0 90 3d 60
        E 196 80 3d 00
        <X 27 0
          /wVraXQ=
        >
        E 0 90 3d 60
        E 102 80 3d 00
        <X 41 0
          /wVqYQ==
        >
        E 0 90 3d 60
        E 107 80 3d 00
        <X 69 0
          /wVtdXUt
        >
        E 0 90 3d 60
        E 265 80 3d 00
        <X 41 0
          /wVzaQ==
        >
        E 0 90 3d 60
        E 180 80 3d 00
        <X 838 0
          /wVOYS0=
        >
        E 0 90 3d 60
        E 202 80 3d 00
        <X 32 0
          /wVraXQ=
        >
        E 0 90 3d 60
        E 115 80 3d 00
        <X 56 0
          /wVqYQ==
        >
        E 0 90 3d 60
        E 127 80 3d 00
        <X 61 0
          /wVtdXUt
        >
        E 0 90 38 60
        E 265 80 38 00
        <X 48 0
          /wVzaQ==
        >
        E 0 90 35 60
        E 203 80 35 00
        <X 838 0
          /wVOYS0=
        >
        E 0 90 38 60
        E 176 80 38 00
        <X 22 0
          /wVraXQ=
        >
        E 0 90 38 60
        E 121 80 38 00
        <X 69 0
          /wVqYQ==
        >
        E 0 90 38 60
        E 145 80 38 00
        <X 56 0
          /wVtdXUt
        >
        E 0 90 3a 60
        E 265 80 3a 00
        <X 48 0
          /wVzaQ==
        >
        E 0 90 34 60
        E 210 80 34 00
        E 101 80 69 00
        <X 379 0
          /wFbaWRsZV9yZWFsdGltZV0=
        >
        E 3277 b0 7b 00
        GUID {C9A1A4CA-4224-4672-91C0-075BEB2A8650}
        IGNTEMPO 0 120.00000000 4 4
        SRCCOLOR 1143
        VELLANE 132 128 128
        COLORMAP "C:\Users\me\AppData\Roaming\REAPER\Data\color_maps\rockband_vox-other.png"
        TEXTSTRINGFILE "Text Events List.txt"
        CFGEDITVIEW 129084.000994 120.966605 0 12 0 0 0
        CFGEDIT 1 1 0 0 1 1 1 1 1 1 1 0.06250000 75 0 1611 691 1 2 1 2 0.00000000 0 0 0 0 0.500000 1 0 1.000000 64
        KEYSNAP 0 0 "102034050607" 0 "Major"
        EVTFILTER 0 -1 -1 -1 -1 0 1 0 0 -1.00000000 -1.00000000
      >
    >
  >
  <TRACK '{39D47E99-5A9A-4FCC-96F3-68E71D02AB36}'
    NAME "vocals"
    PEAKCOL 16576
    BEAT -1
    AUTOMODE 0
    VOLPAN 1.00000000000000 -0.12800000000000 -1.00000000000000 -1.00000000000000 1.00000000000000
    MUTESOLO 0 0 0
    IPHASE 0
    ISBUS 0 0
    BUSCOMP 0 0
    SHOWINMIX 1 0.666700 0.500000 1 0.500000 -1 -1 -1
    FREEMODE 0
    SEL 0
    REC 0 0 0 0 0 0 0
    VU 2
    TRACKHEIGHT 379 0
    INQ 0 0 0 0.5000000000 100 0 0 100
    NCHAN 2
    FX 1
    TRACKID {39D47E99-5A9A-4FCC-96F3-68E71D02AB36}
    PERF 0
    MIDIOUT -1
    MAINSEND 1 0
    <ITEM
      POSITION 0.00000000000000
      SNAPOFFS 0.00000000000000
      LENGTH 193.19002267573697
      LOOP 0
      ALLTAKES 0
      SEL 0
      FADEIN 1 0.000000 0.000000 1 0
      FADEOUT 1 0.000000 0.000000 1 0
      MUTE 0
      IGUID {AB001442-7FE9-4849-A809-285E36281081}
      IID 141
      NAME "vocals.wav"
      VOLPAN 1.000000 0.000000 1.000000 -1.000000
      SOFFS 0.00000000000000
      PLAYRATE 1.00000000000000 1 0.00000000000000 -1
      CHANMODE 0
      GUID {BA5A3843-E4F8-4383-8532-FA16394FE6A0}
      <SOURCE WAVE
        FILE "separated\htdemucs\01-SONG AUDIO-consolidated-250409_1905\vocals.wav"
      >
    >
  >
  <TRACK '{E60BCF67-80FD-4554-840A-5B0B5C2E06A0}'
    NAME "HARM1"
    PEAKCOL 24624127
    BEAT -1
    AUTOMODE 0
    VOLPAN 1.00000000000000 0.00000000000000 -1.00000000000000 -1.00000000000000 1.00000000000000
    MUTESOLO 0 0 0
    IPHASE 0
    ISBUS 0 0
    BUSCOMP 0 0
    SHOWINMIX 1 0.666700 0.500000 1 0.500000 -1 -1 -1
    FREEMODE 0
    SEL 0
    REC 0 0 0 0 0 0 0
    TRACKHEIGHT 179 0
    INQ 0 0 0 0.5000000000 100 0 0 100
    NCHAN 2
    FX 1
    TRACKID {E60BCF67-80FD-4554-840A-5B0B5C2E06A0}
    PERF 0
    MIDIOUT -1
    <MIDINOTENAMES
      0 0 "Range Shift"
      0 1 "Lyric Shift"
      0 36 "C1"
      0 37 "C#"
      0 38 "D"
      0 39 "Eb"
      0 40 "E"
      0 41 "F"
      0 42 "F#"
      0 43 "G"
      0 44 "G#"
      0 45 "A"
      0 46 "Bb"
      0 47 "B"
      0 48 "C2"
      0 49 "C#"
      0 50 "D"
      0 51 "Eb"
      0 52 "E"
      0 53 "F"
      0 54 "F#"
      0 55 "G"
      0 56 "G#"
      0 57 "A"
      0 58 "Bb"
      0 59 "B"
      0 60 "C3"
      0 61 "C#"
      0 62 "D"
      0 63 "Eb"
      0 64 "E"
      0 65 "F"
      0 66 "F#"
      0 67 "G"
      0 68 "G#"
      0 69 "A"
      0 70 "Bb"
      0 71 "B"
      0 72 "C4"
      0 73 "C#"
      0 74 "D"
      0 75 "Eb"
      0 76 "E"
      0 77 "F"
      0 78 "F#"
      0 79 "G"
      0 80 "G#"
      0 81 "A"
      0 82 "Bb"
      0 83 "B"
      0 105 "Phrase Marker"
      0 116 "OVERDRIVE"
      0 115 "----"
      0 104 "----"
      0 97 "Not Displayed Percussion"
      0 96 "Displayed Percussion"
      0 95 "----"
      0 84 "C5"
    >
    MAINSEND 1 0
    <FXCHAIN
      WNDRECT 786 197 716 493
      SHOW 0
      LASTSEL 1
      DOCKED 0
      BYPASS 0 0
      <JS "IX/MIDI_Tool II" ""
        0.000000 85.000000 127.000000 0.000000 0.000000 0.000000 100.000000 0.000000 0.000000 127.000000 0.000000 0.000000 1.000000 0.000000 0.000000 - - - - - - - - - - - - - - - - - - - - - - - - - - - - - - - - - - - - - - - - - - - - - - - - - 
      >
      FLOATPOS 0 0 0 0
      FXID {2E79298C-F056-441C-A64B-722C2599E1AA}
      WAK 0
      BYPASS 0 0
      <VST "VSTi: ReaSynth (Cockos)" "reasynth.dll" 0 ""
        eXNlcu9e7f4AAAAAAgAAAAEAAAAAAAAAAgAAAAAAAAA4AAAAAAAAAA==
        AAAAAO++rd4N8K3eppvEOxe30ToAAAAAAAAAAAAAAACa9Q8/6WeIPQ==
        AAAAAAAAAD8AAIA/AAAAAAAAAD8AAAAAAAA=
      >
      FLOATPOS 0 0 0 0
      FXID {A391E59B-3475-47CA-9BDB-E03F3B8FF2C4}
      WAK 0
    >
    <ITEM
      POSITION 0.00000000000000
      SNAPOFFS 0.00000000000000
      LENGTH 193.64941555399955
      LOOP 0
      ALLTAKES 0
      SEL 0
      FADEIN 1 0.000000 0.000000 1 0
      FADEOUT 1 0.000000 0.000000 1 0
      MUTE 0
      IGUID {FE84F6DE-5A5E-43D1-BFBE-4632BD10F85F}
      IID 11
      NAME "HARM1 untitled MIDI item"
      VOLPAN 1.000000 0.000000 1.000000 -1.000000
      SOFFS 0.00000000000000 0.00000000000000
      PLAYRATE 1.00000000000000 1 0.00000000000000 -1
      CHANMODE 0
      GUID {188D8841-6EF7-4ADC-A9DC-A83C2882A63B}
      <SOURCE MIDI
        HASDATA 1 480 QN
        POOLEDEVTS {E1C38372-D74F-4F72-8E4B-4CD7E0B7DA4F}
        <X 0 0
          /wNIQVJNMQ==
        >
        <X 5760 0
          /wFbaWRsZV0=
        >
        <X 18241 0
          /wFbcGxheV0=
        >
        E 917 90 69 60
        <X 42 0
          /wVGcml0LQ==
        >
        E 0 90 32 60
        E 119 80 32 00
        <X 216 0
          /wV0aQ==
        >
        E 0 90 34 60
        E 86 80 34 00
        <X 65 0
          /wVzY2FtLQ==
        >
        E 0 90 34 60
        E 109 80 34 00
        <X 204 0
          /wVwaQ==
        >
        E 0 90 33 60
        E 101 80 33 00
        <X 78 0
          /wVl
        >
        E 0 90 33 60
        E 73 80 33 00
        <X 214 0
          /wVjaGkt
        >
        E 0 90 33 60
        E 86 80 33 00
        <X 86 0
          /wVhbi0=
        >
        E 0 90 31 60
        E 124 80 31 00
        <X 181 0
          /wV0aQ==
        >
        E 0 90 32 60
        E 107 80 32 00
        <X 74 0
          /wVjYS0=
        >
        E 0 90 34 60
        E 177 80 34 00
        <X 92 0
          /wVsYS0=
        >
        E 0 90 38 60
        E 150 80 38 00
        <X 59 0
          /wVtYS0=
        >
        E 0 90 34 60
        E 211 80 34 00
        <X 60 0
          /wVyaQ==
        >
        E 0 90 37 60
        E 136 80 37 00
        <X 77 0
          /wVFYy0=
        >
        E 0 90 32 60
        E 113 80 32 00
        <X 237 0
          /wVjbw==
        >
        E 0 90 31 60
        E 96 80 31 00
        <X 45 0
          /wVsYQ==
        >
        E 0 90 31 60
        E 127 80 31 00
        <X 154 0
          /wVwZXI=
        >
        E 0 90 37 60
        E 171 80 37 00
        <X 51 0
          /wVtZQ==
        >
        E 0 90 39 60
        E 149 80 39 00
        E 79 80 69 00
        E 976 90 69 60
        <X 143 0
          /wVadXAt
        >
        E 0 90 37 60
        E 111 80 37 00
        <X 54 0
          /wVwYQ==
        >
        E 0 90 3a 60
        E 99 80 3a 00
        <X 48 0
          /wVSby0=
        >
        E 0 90 37 60
        E 115 80 37 00
        <X 56 0
          /wVtYS0=
        >
        E 0 90 36 60
        E 231 80 36 00
        <X 67 0
          /wVuYQ==
        >
        E 0 90 36 60
        E 167 80 36 00
        E 175 80 69 00
        E 1169 90 69 60
        E 4227 80 69 00
        E 960 90 69 60
        E 0 90 74 60
        <X 184 0
          /wVuYS0=
        >
        E 0 90 39 60
        E 143 80 39 00
        <X 38 0
          /wVraXQ=
        >
        E 0 90 39 60
        E 121 80 39 00
        <X 36 0
          /wVqYQ==
        >
        E 0 90 39 60
        E 162 80 39 00
        <X 54 0
          /wVtdXUt
        >
        E 0 90 39 60
        E 249 80 39 00
        <X 87 0
          /wVzaQ==
        >
        E 0 90 39 60
        E 178 80 39 00
        E 393 80 69 00
        E 0 80 74 00
        E 745 90 69 60
        <X 252 0
          /wVCZWwt
        >
        E 0 90 3c 60
        E 228 80 3c 00
        <X 103 0
          /wVsYQ==
        >
        E 0 90 37 60
        E 99 80 37 00
        <X 67 0
          /wVkb24t
        >
        E 0 90 3b 60
        E 175 80 3b 00
        <X 93 0
          /wVuYQ==
        >
        E 0 90 36 60
        E 140 80 36 00
        <X 68 0
          /wVtYW0t
        >
        E 0 90 3b 60
        E 180 80 3b 00
        <X 116 0
          /wVtYQ==
        >
        E 0 90 3c 60
        E 105 80 3c 00
        <X 56 0
          /wVtaS0=
        >
        E 0 90 3c 60
        E 239 80 3c 00
        <X 67 0
          /wVh
        >
        E 0 90 3c 60
        E 117 80 3c 00
        <X 67 0
          /wVhLQ==
        >
        E 0 90 3b 60
        E 213 80 3b 00
        <X 72 0
          /wVsaS0=
        >
        E 0 90 3a 60
        E 110 80 3a 00
        <X 50 0
          /wVtZW4t
        >
        E 0 90 3b 60
        E 159 80 3b 00
        <X 128 0
          /wV0aQ==
        >
        E 0 90 3b 60
        E 122 80 3b 00
        <X 88 0
          /wVjaS0=
        >
        E 0 90 3c 60
        E 272 80 3c 00
        E 4 80 69 00
        E 64 90 69 60
        <X 77 0
          /wVhbw==
        >
        E 0 90 3b 60
        E 71 80 3b 00
        <X 39 0
          /wUr
        >
        E 0 90 39 60
        E 170 80 39 00
        <X 253 0
          /wVTdW8t
        >
        E 0 90 39 60
        E 271 80 39 00
        <X 59 0
          /wVtaS0=
        >
        E 0 90 36 60
        E 120 80 36 00
        <X 62 0
          /wVwb2kt
        >
        E 0 90 38 60
        E 267 80 38 00
        <X 67 0
          /wVrYQ==
        >
        E 0 90 36 60
        E 113 80 36 00
        <X 71 0
          /wVzaWkt
        >
        E 0 90 36 60
        E 219 80 36 00
        <X 76 0
          /wVoZW4=
        >
        E 0 90 36 60
        E 94 80 36 00
        <X 47 0
          /wVldC0=
        >
        E 0 90 36 60
        E 153 80 36 00
        <X 150 0
          /wV0w6Q=
        >
        E 0 90 36 60
        E 171 80 36 00
        <X 63 0
          /wVoZWkt
        >
        E 0 90 36 60
        E 349 80 36 00
        <X 96 0
          /wVrdW4=
        >
        E 0 90 3a 60
        E 365 80 3a 00
        <X 112 0
          /wVrZWkt
        >
        E 0 90 3a 60
        E 389 80 3a 00
        <X 83 0
          /wVrdW4=
        >
        E 0 90 3a 60
        E 360 80 3a 00
        E 95 80 69 00
        E 129 90 69 60
        E 4135 80 69 00
        E 701 90 69 60
        E 0 90 74 60
        <X 265 0
          /wVuYS0=
        >
        E 0 90 37 60
        E 187 80 37 00
        <X 39 0
          /wVraXQ=
        >
        E 0 90 33 60
        E 138 80 33 00
        <X 38 0
          /wVqYQ==
        >
        E 0 90 33 60
        E 145 80 33 00
        <X 51 0
          /wVtdXUt
        >
        E 0 90 33 60
        E 237 80 33 00
        <X 65 0
          /wVzaQ==
        >
        E 0 90 33 60
        E 199 80 33 00
        E 176 80 69 00
        E 0 80 74 00
        E 4970 90 69 60
        <X 93 0
          /wVQcmUt
        >
        E 0 90 2d 60
        E 899 80 2d 00
        <X 83 0
          /wVnbw==
        >
        E 0 90 36 60
        E 153 80 36 00
        <X 642 0
          /wVBYy0=
        >
        E 0 90 2e 60
        E 189 80 2e 00
        <X 292 0
          /wVxdWE=
        >
        E 0 90 2f 60
        E 69 80 2f 00
        <X 86 0
          /wVtaS0=
        >
        E 0 90 32 60
        E 155 80 32 00
        <X 69 0
          /wVuZS0=
        >
        E 0 90 32 60
        E 74 80 32 00
        <X 31 0
          /wUr
        >
        E 0 90 30 60
        E 33 80 30 00
        <X 41 0
          /wVyYS0=
        >
        E 0 90 2e 60
        E 191 80 2e 00
        <X 33 0
          /wUr
        >
        E 0 90 2b 60
        E 127 80 2b 00
        <X 165 0
          /wVsZQ==
        >
        E 0 90 2b 60
        E 130 80 2b 00
        E 93 80 69 00
        E 91 90 69 60
        <X 54 0
          /wVncmFwLQ==
        >
        E 0 90 2d 60
        E 121 80 2d 00
        <X 224 0
          /wVwYQ==
        >
        E 0 90 2d 60
        E 115 80 2d 00
        <X 81 0
          /wVzcGUt
        >
        E 0 90 30 60
        E 95 80 30 00
        <X 229 0
          /wVjaS0=
        >
        E 0 90 2f 60
        E 191 80 2f 00
        <X 22 0
          /wVhLQ==
        >
        E 0 90 2e 60
        E 168 80 2e 00
        <X 266 0
          /wVsZQ==
        >
        E 0 90 33 60
        E 78 80 33 00
        <X 425 0
          /wVjb3ot
        >
        E 0 90 31 60
        E 93 80 31 00
        <X 199 0
          /wV6ZQ==
        >
        E 0 90 33 60
        E 132 80 33 00
        <X 62 0
          /wV2b24t
        >
        E 0 90 32 60
        E 241 80 32 00
        <X 70 0
          /wVnby0=
        >
        E 0 90 32 60
        E 126 80 32 00
        <X 59 0
          /wVsZS0=
        >
        E 0 90 32 60
        E 112 80 32 00
        <X 273 0
          /wVzaQ==
        >
        E 0 90 33 60
        E 241 80 33 00
        E 185 80 69 00
        E 90 90 69 60
        E 5657 80 69 00
        E 147 90 69 60
        E 0 90 74 60
        <X 9 0
          /wVHb3It
        >
        E 0 90 2e 49
        E 375 80 2e 00
        <X 126 0
          /wVnb24t
        >
        E 0 90 2e 49
        E 278 80 2e 00
        <X 189 0
          /wV6by0=
        >
        E 0 90 31 61
        E 444 80 31 00
        <X 48 0
          /wVsYQ==
        >
        E 0 90 32 69
        E 351 80 32 00
        <X 118 0
          /wVDby0=
        >
        E 0 90 34 67
        E 366 80 34 00
        <X 128 0
          /wVjYQ==
        >
        E 0 90 36 68
        E 339 80 36 00
        <X 157 0
          /wVDby0=
        >
        E 0 90 37 67
        E 376 80 37 00
        <X 67 0
          /wVsYQ==
        >
        E 0 90 37 67
        E 283 80 37 00
        E 76 80 69 00
        E 0 80 74 00
        E 102 90 69 60
        <X 39 0
          /wVNYWMt
        >
        E 0 90 38 55
        E 80 80 38 00
        <X 223 0
          /wVjaGUt
        >
        E 0 90 38 55
        E 79 80 38 00
        <X 82 0
          /wVyby0=
        >
        E 0 90 34 55
        E 215 80 34 00
        <X 85 0
          /wVuaQ==
        >
        E 0 90 39 44
        E 59 80 39 00
        <X 117 0
          /wVjYW4t
        >
        E 0 90 31 56
        E 99 80 31 00
        <X 207 0
          /wVuZWwt
        >
        E 0 90 32 36
        E 96 80 32 00
        <X 72 0
          /wVsby0=
        >
        E 0 90 34 54
        E 251 80 34 00
        <X 61 0
          /wVuaQ==
        >
        E 0 90 34 54
        E 75 80 34 00
        <X 113 0
          /wVwZS0=
        >
        E 0 90 39 44
        E 106 80 39 00
        <X 188 0
          /wVwZS0=
        >
        E 0 90 32 59
        E 84 80 32 00
        <X 70 0
          /wVyby0=
        >
        E 0 90 33 4f
        E 255 80 33 00
        <X 46 0
          /wVuaQ==
        >
        E 0 90 38 4d
        E 67 80 38 00
        <X 125 0
          /wVFYy0=
        >
        E 0 90 38 4d
        E 68 80 38 00
        <X 224 0
          /wVjbw==
        >
        E 0 90 33 50
        E 111 80 33 00
        <X 45 0
          /wVsYQ==
        >
        E 0 90 37 4c
        E 86 80 37 00
        <X 184 0
          /wVwZXI=
        >
        E 0 90 37 56
        E 128 80 37 00
        <X 79 0
          /wVtZQ==
        >
        E 0 90 3a 5b
        E 189 80 3a 00
        E 84 80 69 00
        E 1084 90 69 60
        <X 45 0
          /wVadXAt
        >
        E 0 90 3a 3d
        E 157 80 3a 00
        <X 64 0
          /wVwYQ==
        >
        E 0 90 3a 3d
        E 87 80 3a 00
        <X 43 0
          /wVSby0=
        >
        E 0 90 3a 3d
        E 124 80 3a 00
        <X 81 0
          /wVtYS0=
        >
        E 0 90 3a 3d
        E 237 80 3a 00
        <X 57 0
          /wVuYQ==
        >
        E 0 90 3a 3d
        E 130 80 3a 00
        E 71 80 69 00
        E 1234 90 69 60
        <X 29 0
          /wVMw6RzLQ==
        >
        E 0 90 37 64
        E 297 80 37 00
        <X 187 0
          /wVraS0=
        >
        E 0 90 36 44
        E 129 80 36 00
        <X 70 0
          /wVzb28t
        >
        E 0 90 34 5d
        E 229 80 34 00
        <X 47 0
          /wVzaQ==
        >
        E 0 90 34 5d
        E 112 80 34 00
        <X 87 0
          /wVhcC0=
        >
        E 0 90 32 56
        E 156 80 32 00
        <X 78 0
          /wVyaS0=
        >
        E 0 90 32 56
        E 188 80 32 00
        <X 78 0
          /wVrb28t
        >
        E 0 90 34 5e
        E 218 80 34 00
        <X 73 0
          /wVzaQ==
        >
        E 0 90 38 51
        E 128 80 38 00
        E 11 80 69 00
        E 22 90 69 60
        <X 11 0
          /wVkaWFnLQ==
        >
        E 0 90 32 57
        E 241 80 32 00
        <X 194 0
          /wVub28t
        >
        E 0 90 33 61
        E 230 80 33 00
        <X 61 0
          /wVzaQ==
        >
        E 0 90 33 61
        E 105 80 33 00
        <X 101 0
          /wVUYXJrLQ==
        >
        E 0 90 32 57
        E 180 80 32 00
        <X 166 0
          /wVrYQ==
        >
        E 0 90 32 51
        E 106 80 32 00
        <X 35 0
          /wVtZWlsLQ==
        >
        E 0 90 35 5a
        E 182 80 35 00
        <X 85 0
          /wVsw6Q=
        >
        E 0 90 35 5a
        E 96 80 35 00
        <X 89 0
          /wVvbg==
        >
        E 0 90 39 53
        E 266 80 39 00
        E 85 80 69 00
        E 1044 90 69 60
        E 0 90 74 60
        <X 15 0
          /wVuYS0=
        >
        E 0 90 39 60
        E 143 80 39 00
        <X 38 0
          /wVraXQ=
        >
        E 0 90 39 60
        E 121 80 39 00
        <X 36 0
          /wVqYQ==
        >
        E 0 90 39 60
        E 162 80 39 00
        <X 54 0
          /wVtdXUt
        >
        E 0 90 39 60
        E 249 80 39 00
        <X 87 0
          /wVzaQ==
        >
        E 0 90 32 60
        E 178 80 32 00
        E 98 80 69 00
        E 0 80 74 00
        E 1238 90 69 60
        <X 32 0
          /wVCZWwt
        >
        E 0 90 32 60
        E 228 80 32 00
        <X 103 0
          /wVsYQ==
        >
        E 0 90 37 60
        E 99 80 37 00
        <X 67 0
          /wVkb24t
        >
        E 0 90 3c 60
        E 175 80 3c 00
        <X 93 0
          /wVuYQ==
        >
        E 0 90 3c 60
        E 140 80 3c 00
        <X 68 0
          /wVtYW0t
        >
        E 0 90 3b 60
        E 180 80 3b 00
        <X 116 0
          /wVtYQ==
        >
        E 0 90 38 60
        E 105 80 38 00
        <X 56 0
          /wVtaS0=
        >
        E 0 90 3b 60
        E 239 80 3b 00
        <X 67 0
          /wVh
        >
        E 0 90 3b 60
        E 117 80 3b 00
        <X 67 0
          /wVhLQ==
        >
        E 0 90 3a 60
        E 213 80 3a 00
        <X 72 0
          /wVsaS0=
        >
        E 0 90 3c 60
        E 110 80 3c 00
        <X 50 0
          /wVtZW4t
        >
        E 0 90 3c 60
        E 159 80 3c 00
        <X 128 0
          /wV0aQ==
        >
        E 0 90 3f 60
        E 122 80 3f 00
        <X 88 0
          /wVjaS0=
        >
        E 0 90 3c 60
        E 272 80 3c 00
        <X 145 0
          /wVhbw==
        >
        E 0 90 3c 60
        E 71 80 3c 00
        <X 39 0
          /wUr
        >
        E 0 90 3b 60
        E 170 80 3b 00
        E 7 80 69 00
        E 76 90 69 60
        <X 124 0
          /wVTdW8t
        >
        E 0 90 3b 60
        E 317 80 3b 00
        <X 59 0
          /wVtaS0=
        >
        E 0 90 36 60
        E 120 80 36 00
        <X 62 0
          /wVwb2kt
        >
        E 0 90 38 60
        E 267 80 38 00
        <X 67 0
          /wVrYQ==
        >
        E 0 90 37 60
        E 113 80 37 00
        <X 71 0
          /wVzaWkt
        >
        E 0 90 3a 60
        E 219 80 3a 00
        <X 76 0
          /wVoZW4=
        >
        E 0 90 3a 60
        E 94 80 3a 00
        <X 47 0
          /wVldC0=
        >
        E 0 90 3a 60
        E 153 80 3a 00
        <X 150 0
          /wV0w6Q=
        >
        E 0 90 3a 60
        E 171 80 3a 00
        <X 63 0
          /wVoZWkt
        >
        E 0 90 3a 60
        E 349 80 3a 00
        <X 96 0
          /wVrdW4=
        >
        E 0 90 39 60
        E 365 80 39 00
        <X 112 0
          /wVrZWkt
        >
        E 0 90 36 60
        E 389 80 36 00
        <X 83 0
          /wVrdW4=
        >
        E 0 90 35 60
        E 360 80 35 00
        E 38 80 69 00
        E 48 90 69 60
        <X 41 0
          /wVrb3Mt
        >
        E 0 90 32 4d
        E 234 80 32 00
        <X 70 0
          /wVraXMt
        >
        E 0 90 32 4d
        E 109 80 32 00
        <X 96 0
          /wV0dWlrLQ==
        >
        E 0 90 34 55
        E 184 80 34 00
        <X 143 0
          /wVrdS0=
        >
        E 0 90 37 59
        E 93 80 37 00
        <X 62 0
          /wVwaWst
        >
        E 0 90 37 59
        E 93 80 37 00
        <X 217 0
          /wVrdQ==
        >
        E 0 90 37 53
        E 114 80 37 00
        <X 59 0
          /wVodWlrLQ==
        >
        E 0 90 35 53
        E 150 80 35 00
        <X 133 0
          /wVrdS0=
        >
        E 0 90 37 59
        E 93 80 37 00
        <X 149 0
          /wVzdW8t
        >
        E 0 90 32 52
        E 209 80 32 00
        <X 41 0
          /wVsYS0=
        >
        E 0 90 32 52
        E 95 80 32 00
        <X 55 0
          /wVtdWlrLQ==
        >
        E 0 90 35 4f
        E 164 80 35 00
        <X 153 0
          /wVrdQ==
        >
        E 0 90 36 52
        E 114 80 36 00
        <X 58 0
          /wVvbg==
        >
        E 0 90 36 52
        E 100 80 36 00
        <X 170 0
          /wVqYQ==
        >
        E 0 90 32 52
        E 92 80 32 00
        <X 93 0
          /wVww6TDpGwt
        >
        E 0 90 34 52
        E 185 80 34 00
        <X 112 0
          /wVsZQ==
        >
        E 0 90 34 52
        E 118 80 34 00
        <X 84 0
          /wVzZW4=
        >
        E 0 90 39 52
        E 139 80 39 00
        E 81 80 69 00
        E 1070 90 69 60
        E 1 90 74 60
        <X 108 0
          /wVuYS0=
        >
        E 0 90 3c 60
        E 110 80 3c 00
        <X 38 0
          /wVraXQ=
        >
        E 0 90 39 60
        E 121 80 39 00
        <X 69 0
          /wVqYQ==
        >
        E 0 90 37 60
        E 128 80 37 00
        <X 88 0
          /wVtdXUt
        >
        E 0 90 36 60
        E 249 80 36 00
        <X 87 0
          /wVzaQ==
        >
        E 0 90 31 60
        E 178 80 31 00
        E 105 80 69 00
        E 1 80 74 00
        <X 306 0
          /wFbaWRsZV0=
        >
        <X 21597 0
          /wFbcGxheV0=
        >
        E 554 90 69 60
        <X 106 0
          /wVQcmVlLQ==
        >
        E 0 90 2c 4a
        E 305 80 2c 00
        <X 116 0
          /wUr
        >
        E 0 90 30 75
        E 302 80 30 00
        <X 86 0
          /wVnbyE=
        >
        E 0 90 38 5b
        E 106 80 38 00
        <X 695 0
          /wVJbi0=
        >
        E 0 90 30 5b
        E 250 80 30 00
        <X 168 0
          /wVzYS0=
        >
        E 0 90 33 3d
        E 85 80 33 00
        <X 72 0
          /wVsYWF0LQ==
        >
        E 0 90 33 64
        E 197 80 33 00
        <X 166 0
          /wV0YQ==
        >
        E 0 90 30 64
        E 66 80 30 00
        <X 81 0
          /wVtaXMt
        >
        E 0 90 31 3d
        E 340 80 31 00
        <X 81 0
          /wV0YQ==
        >
        E 0 90 31 3d
        E 94 80 31 00
        E 178 80 69 00
        E 201 90 69 60
        <X 81 0
          /wVmcml0LQ==
        >
        E 0 90 31 3d
        E 93 80 31 00
        <X 257 0
          /wVzYQ==
        >
        E 0 90 31 3d
        E 64 80 31 00
        <X 58 0
          /wVkZWwt
        >
        E 0 90 31 3d
        E 231 80 31 00
        <X 70 0
          /wVsYQ==
        >
        E 0 90 31 3d
        E 91 80 31 00
        <X 90 0
          /wV2aXMt
        >
        E 0 90 30 42
        E 317 80 30 00
        <X 104 0
          /wV0YQ==
        >
        E 0 90 30 42
        E 99 80 30 00
        <X 291 0
          /wVyYS0=
        >
        E 0 90 30 42
        E 73 80 30 00
        <X 47 0
          /wVnYXQt
        >
        E 0 90 30 42
        E 66 80 30 00
        <X 219 0
          /wVzZQ==
        >
        E 0 90 33 42
        E 113 80 33 00
        <X 80 0
          /wVnb24t
        >
        E 0 90 33 42
        E 77 80 33 00
        <X 43 0
          /wUr
        >
        E 0 90 32 42
        E 101 80 32 00
        <X 49 0
          /wVnZXMt
        >
        E 0 90 32 42
        E 106 80 32 00
        <X 125 0
          /wV0YWlz
        >
        E 0 90 32 42
        E 228 80 32 00
        <X 163 0
          /wVzaQ==
        >
        E 0 90 42 42
        E 314 80 42 00
        E 92 80 69 00
        E 93 90 69 60
        E 0 90 74 60
        E 5557 80 69 00
        E 0 80 74 00
        E 184 90 69 60
        <X 130 0
          /wVNb24t
        >
        E 0 90 2c 6c
        E 334 80 2c 00
        <X 139 0
          /wV0YQ==
        >
        E 0 90 30 6c
        E 365 80 30 00
        <X 104 0
          /wVraWwt
        >
        E 0 90 32 64
        E 431 80 32 00
        <X 34 0
          /wVsb28=
        >
        E 0 90 32 64
        E 166 80 32 00
        <X 44 0
          /wUr
        >
        E 0 90 33 64
        E 190 80 33 00
        <X 81 0
          /wV2YXQt
        >
        E 0 90 33 69
        E 221 80 33 00
        <X 258 0
          /wV0dS0=
        >
        E 0 90 32 5c
        E 391 80 32 00
        <X 102 0
          /wVoaWwt
        >
        E 0 90 32 5c
        E 207 80 32 00
        <X 50 0
          /wUr
        >
        E 0 90 33 60
        E 168 80 33 00
        <X 73 0
          /wVsb28=
        >
        E 0 90 34 72
        E 281 80 34 00
        E 30 80 69 00
        E 55 90 69 60
        <X 79 0
          /wVLYW50LQ==
        >
        E 0 90 30 6b
        E 121 80 30 00
        <X 268 0
          /wV0YS0=
        >
        E 0 90 39 60
        E 88 80 39 00
        <X 27 0
          /wVyZWwt
        >
        E 0 90 37 60
        E 260 80 37 00
        <X 56 0
          /wVsaQ==
        >
        E 0 90 3a 60
        E 49 80 3a 00
        <X 156 0
          /wVrYXUt
        >
        E 0 90 3a 60
        E 261 80 3a 00
        <X 38 0
          /wVyYS0=
        >
        E 0 90 36 60
        E 155 80 36 00
        <X 35 0
          /wV2ZWwt
        >
        E 0 90 38 60
        E 212 80 38 00
        <X 40 0
          /wVsaQ==
        >
        E 0 90 38 60
        E 87 80 38 00
        <X 87 0
          /wVtb3Mt
        >
        E 0 90 35 60
        E 215 80 35 00
        <X 95 0
          /wVrYS0=
        >
        E 0 90 35 60
        E 82 80 35 00
        <X 80 0
          /wV0ZWwt
        >
        E 0 90 38 4d
        E 233 80 38 00
        <X 33 0
          /wVsaQ==
        >
        E 0 90 3c 4d
        E 100 80 3c 00
        <X 104 0
          /wVTaXQt
        >
        E 0 90 3c 4d
        E 61 80 3c 00
        <X 202 0
          /wV0ZW4=
        >
        E 0 90 36 4d
        E 93 80 36 00
        <X 130 0
          /wVtdWwt
        >
        E 0 90 38 53
        E 186 80 38 00
        <X 20 0
          /wVsZQ==
        >
        E 0 90 39 5e
        E 85 80 39 00
        <X 131 0
          /wVrYW5z
        >
        E 0 90 3c 5f
        E 367 80 3c 00
        E 102 80 69 00
        E 857 90 69 60
        E 0 90 74 60
        <X 136 0
          /wVuYS0=
        >
        E 0 90 3c 60
        E 136 80 3c 00
        <X 41 0
          /wVraXQ=
        >
        E 0 90 40 60
        E 121 80 40 00
        <X 73 0
          /wVqYQ==
        >
        E 0 90 40 60
        E 107 80 40 00
        <X 56 0
          /wVtdXUt
        >
        E 0 90 40 60
        E 265 80 40 00
        <X 48 0
          /wVzaQ==
        >
        E 0 90 39 60
        E 178 80 39 00
        E 83 80 69 00
        E 0 80 74 00
        E 941 90 69 60
        <X 97 0
          /wVMYW50LQ==
        >
        E 0 90 37 66
        E 361 80 37 00
        <X 190 0
          /wV0dS0=
        >
        E 0 90 36 5a
        E 127 80 36 00
        <X 56 0
          /wVrdWst
        >
        E 0 90 37 4d
        E 150 80 37 00
        <X 178 0
          /wVrbw==
        >
        E 0 90 3b 60
        E 84 80 3b 00
        <X 87 0
          /wVvcy0=
        >
        E 0 90 38 53
        E 274 80 38 00
        <X 34 0
          /wVoby0=
        >
        E 0 90 38 53
        E 115 80 38 00
        <X 71 0
          /wVwdWst
        >
        E 0 90 37 49
        E 178 80 37 00
        <X 150 0
          /wVrbw==
        >
        E 0 90 39 65
        E 128 80 39 00
        <X 48 0
          /wVtZWkt
        >
        E 0 90 35 63
        E 231 80 35 00
        <X 70 0
          /wVrw6Q=
        >
        E 0 90 34 58
        E 142 80 34 00
        <X 28 0
          /wV1ay0=
        >
        E 0 90 34 58
        E 131 80 34 00
        <X 151 0
          /wVrbw==
        >
        E 0 90 39 5b
        E 105 80 39 00
        <X 78 0
          /wVOw6RpLQ==
        >
        E 0 90 35 65
        E 257 80 35 00
        <X 41 0
          /wVoaW4=
        >
        E 0 90 36 56
        E 108 80 36 00
        <X 97 0
          /wV0eXkt
        >
        E 0 90 37 62
        E 208 80 37 00
        <X 41 0
          /wVkeQ==
        >
        E 0 90 39 54
        E 89 80 39 00
        <X 86 0
          /wVlaQ==
        >
        E 0 90 3c 58
        E 357 80 3c 00
        E 105 80 69 00
        E 866 90 69 60
        E 0 90 74 60
        <X 100 0
          /wVOYS0=
        >
        E 0 90 3e 60
        E 146 80 3e 00
        <X 48 0
          /wVraXQ=
        >
        E 0 90 3c 60
        E 121 80 3c 00
        <X 56 0
          /wVqYQ==
        >
        E 0 90 3c 60
        E 107 80 3c 00
        <X 81 0
          /wVtdXUt
        >
        E 0 90 39 60
        E 265 80 39 00
        <X 48 0
          /wVzaQ==
        >
        E 0 90 39 60
        E 203 80 39 00
        E 91 80 69 00
        E 0 80 74 00
        E 1110 90 69 60
        <X 139 0
          /wVCZWwt
        >
        E 0 90 3d 60
        E 236 80 3d 00
        <X 82 0
          /wVsYQ==
        >
        E 0 90 3e 60
        E 99 80 3e 00
        <X 67 0
          /wVkb24t
        >
        E 0 90 3e 60
        E 175 80 3e 00
        <X 111 0
          /wVuYQ==
        >
        E 0 90 3d 60
        E 122 80 3d 00
        <X 68 0
          /wVtYW0t
        >
        E 0 90 3e 60
        E 180 80 3e 00
        <X 137 0
          /wVtYQ==
        >
        E 0 90 3e 60
        E 95 80 3e 00
        <X 86 0
          /wVtaS0=
        >
        E 0 90 3e 60
        E 263 80 3e 00
        <X 39 0
          /wVh
        >
        E 0 90 3e 60
        E 95 80 3e 00
        <X 82 0
          /wVhLQ==
        >
        E 0 90 3d 60
        E 241 80 3d 00
        <X 48 0
          /wVsaS0=
        >
        E 0 90 3c 60
        E 123 80 3c 00
        <X 59 0
          /wVtZW4t
        >
        E 0 90 3e 60
        E 142 80 3e 00
        <X 143 0
          /wV0aQ==
        >
        E 0 90 40 60
        E 108 80 40 00
        <X 63 0
          /wVjaS0=
        >
        E 0 90 40 60
        E 351 80 40 00
        <X 112 0
          /wVhbw==
        >
        E 0 90 3e 60
        E 210 80 3e 00
        E 45 80 69 00
        E 129 90 69 60
        <X 101 0
          /wVTdW8t
        >
        E 0 90 3f 60
        E 283 80 3f 00
        <X 62 0
          /wVtaS0=
        >
        E 0 90 3d 60
        E 131 80 3d 00
        <X 58 0
          /wVwb2kt
        >
        E 0 90 39 60
        E 272 80 39 00
        <X 55 0
          /wVrYQ==
        >
        E 0 90 3c 60
        E 121 80 3c 00
        <X 70 0
          /wVzaWkt
        >
        E 0 90 3d 60
        E 215 80 3d 00
        <X 45 0
          /wVoZW4=
        >
        E 0 90 3a 60
        E 140 80 3a 00
        <X 79 0
          /wVldC0=
        >
        E 0 90 3c 60
        E 111 80 3c 00
        <X 114 0
          /wV0w6Q=
        >
        E 0 90 3d 60
        E 171 80 3d 00
        <X 73 0
          /wVow7Yt
        >
        E 0 90 3d 60
        E 182 80 3d 00
        <X 35 0
          /wVsw7Yt
        >
        E 0 90 3d 60
        E 206 80 3d 00
        <X 103 0
          /wVreW4=
        >
        E 0 90 3d 60
        E 307 80 3d 00
        <X 79 0
          /wVrw7Yt
        >
        E 0 90 39 60
        E 207 80 39 00
        <X 40 0
          /wVsw7Yt
        >
        E 0 90 39 60
        E 165 80 39 00
        <X 110 0
          /wVreW4=
        >
        E 0 90 39 60
        E 230 80 39 00
        E 24 80 69 00
        E 181 90 69 60
        <X 17 0
          /wVWYWwt
        >
        E 0 90 35 64
        E 275 80 35 00
        <X 78 0
          /wVrby0=
        >
        E 0 90 35 64
        E 123 80 35 00
        <X 64 0
          /wV2aWkt
        >
        E 0 90 35 6a
        E 97 80 35 00
        <X 35 0
          /wUr
        >
        E 0 90 37 6a
        E 116 80 37 00
        <X 35 0
          /wVuaQ==
        >
        E 0 90 3a 62
        E 100 80 3a 00
        <X 97 0
          /wVwZWwt
        >
        E 0 90 37 65
        E 250 80 37 00
        <X 63 0
          /wV0aQ==
        >
        E 0 90 36 57
        E 86 80 36 00
        <X 75 0
          /wVraWluLQ==
        >
        E 0 90 38 63
        E 201 80 38 00
        <X 91 0
          /wVuaQ==
        >
        E 0 90 39 5a
        E 76 80 39 00
        <X 106 0
          /wVhcy0=
        >
        E 0 90 39 5a
        E 140 80 39 00
        <X 208 0
          /wVwaS0=
        >
        E 0 90 39 5a
        E 108 80 39 00
        <X 43 0
          /wVyaWkt
        >
        E 0 90 37 67
        E 209 80 37 00
        <X 58 0
          /wVuaQ==
        >
        E 0 90 3a 62
        E 116 80 3a 00
        <X 69 0
          /wVNaW4t
        >
        E 0 90 35 56
        E 117 80 35 00
        <X 153 0
          /wVuZQ==
        >
        E 0 90 35 56
        E 148 80 35 00
        <X 32 0
          /wVqw6TDpC0=
        >
        E 0 90 35 56
        E 240 80 35 00
        <X 48 0
          /wVueXQ=
        >
        E 0 90 39 57
        E 94 80 39 00
        <X 68 0
          /wVvbg==
        >
        E 0 90 3c 55
        E 273 80 3c 00
        E 35 80 69 00
        E 1057 90 69 60
        <X 44 0
          /wVuYS0=
        >
        E 0 90 3d 60
        E 196 80 3d 00
        <X 27 0
          /wVraXQ=
        >
        E 0 90 3d 60
        E 102 80 3d 00
        <X 41 0
          /wVqYQ==
        >
        E 0 90 3d 60
        E 107 80 3d 00
        <X 69 0
          /wVtdXUt
        >
        E 0 90 3d 60
        E 265 80 3d 00
        <X 41 0
          /wVzaQ==
        >
        E 0 90 3d 60
        E 180 80 3d 00
        <X 838 0
          /wVOYS0=
        >
        E 0 90 3d 60
        E 202 80 3d 00
        <X 32 0
          /wVraXQ=
        >
        E 0 90 3d 60
        E 115 80 3d 00
        <X 56 0
          /wVqYQ==
        >
        E 0 90 3d 60
        E 127 80 3d 00
        <X 61 0
          /wVtdXUt
        >
        E 0 90 38 60
        E 265 80 38 00
        <X 48 0
          /wVzaQ==
        >
        E 0 90 35 60
        E 203 80 35 00
        <X 838 0
          /wVOYS0=
        >
        E 0 90 38 60
        E 176 80 38 00
        <X 22 0
          /wVraXQ=
        >
        E 0 90 38 60
        E 121 80 38 00
        <X 69 0
          /wVqYQ==
        >
        E 0 90 38 60
        E 145 80 38 00
        <X 56 0
          /wVtdXUt
        >
        E 0 90 3a 60
        E 265 80 3a 00
        <X 48 0
          /wVzaQ==
        >
        E 0 90 34 60
        E 210 80 34 00
        E 101 80 69 00
        E 3656 b0 7b 00
        GUID {D78D8959-2AD8-48C0-8F6C-4A6670952331}
        IGNTEMPO 0 120.00000000 4 4
        SRCCOLOR 1144
        VELLANE 132 128 60
        COLORMAP "C:\Users\me\AppData\Roaming\REAPER\Data\color_maps\rockband_vox-other.png"
        TEXTSTRINGFILE "C:\Program Files\REAPER\Data\Text_Strings\Text Events List.txt"
        CFGEDITVIEW 25038.491051 87.863946 0 12 0 0 0
        CFGEDIT 1 1 0 1 1 1 1 1 1 0 1 0.06250000 -8 -8 1374 736 1 2 1 2 0.00000000 0 0 0 0 0.500000 1 0 1.000000 64
        KEYSNAP 0 0 "102034050607" 0 "Major"
        EVTFILTER 0 -1 -1 -1 -1 0 1 0 0 -1.00000000 -1.00000000
      >
    >
  >
  <TRACK '{4A30D2A4-111B-40E3-8633-0926E85E641C}'
    NAME "DRYVOX1"
    PEAKCOL 16576
    BEAT -1
    AUTOMODE 0
    VOLPAN 1.00000000000000 0.00000000000000 -1.00000000000000 -1.00000000000000 1.00000000000000
    MUTESOLO 0 0 0
    IPHASE 0
    ISBUS 0 0
    BUSCOMP 0 0
    SHOWINMIX 1 0.666700 0.500000 1 0.500000 -1 -1 -1
    FREEMODE 0
    SEL 0
    REC 0 0 0 0 0 0 0
    TRACKHEIGHT 26 0
    INQ 0 0 0 0.5000000000 100 0 0 100
    NCHAN 2
    FX 1
    TRACKID {4A30D2A4-111B-40E3-8633-0926E85E641C}
    PERF 0
    MIDIOUT -1
    MAINSEND 1 0
    <FXCHAIN
      SHOW 0
      LASTSEL 0
      DOCKED 0
      BYPASS 0 0
      <VST "VST: ReaGate (Cockos)" "reagate.dll" 0 ""
        dGdlcu9e7f4EAAAAAQAAAAAAAAACAAAAAAAAAAQAAAAAAAAACAAAAA==
        AAAAAAIAAAABAAAAAAAAAAIAAAAAAAAAVAAAAAAAAAAAABAA776t3g==
        DfCt3pzRBzOmm8Q7CtejPAAAAAAAAAAAAACAPwAAAAAAAAAAAAAAAA==
        nNEHMx5Ucz+c0QczAACAPwAAAAAAAAAAAAAAACwWCz8AAAAAAAAAAA==
        AAAQAAAA
      >
      FLOATPOS 859 184 511 385
      FXID {BF545B5B-7DD0-4B4C-AC52-F095A552DA08}
      WAK 0
    >
    <ITEM
      POSITION 26.26613922373898
      SNAPOFFS 0.00000000000000
      LENGTH 86.32809116450147
      LOOP 0
      ALLTAKES 0
      SEL 0
      FADEIN 1 0.000000 0.000000 1 0
      FADEOUT 1 0.000000 0.000000 1 0
      MUTE 0
      IGUID {4956E232-4632-4627-9E70-CF0EA4C06671}
      IID 169
      NAME "vocals.wav"
      VOLPAN 1.000000 0.000000 1.000000 -1.000000
      SOFFS 26.26613922373898
      PLAYRATE 1.00000000000000 1 0.00000000000000 -1
      CHANMODE 0
      GUID {E37188A2-C2DC-4ABF-A9E5-37C43CF0B6D5}
      <SOURCE WAVE
        FILE "separated\htdemucs\01-SONG AUDIO-consolidated-250409_1905\vocals.wav"
      >
    >
    <ITEM
      POSITION 136.13256279646492
      SNAPOFFS 0.00000000000000
      LENGTH 57.05745987927205
      LOOP 0
      ALLTAKES 0
      SEL 0
      FADEIN 1 0.000000 0.000000 1 0
      FADEOUT 1 0.000000 0.000000 1 0
      MUTE 0
      IGUID {666CEB23-F364-45E9-9B36-BDC5B87B5A04}
      IID 169
      NAME "vocals.wav"
      VOLPAN 1.000000 0.000000 1.000000 -1.000000
      SOFFS 136.13256279646492
      PLAYRATE 1.00000000000000 1 0.00000000000000 -1
      CHANMODE 0
      GUID {86A1F115-6B14-4648-BC64-1759BE3406B6}
      <SOURCE WAVE
        FILE "separated\htdemucs\01-SONG AUDIO-consolidated-250409_1905\vocals.wav"
      >
    >
  >
  <TRACK '{983C7D04-DAF6-462A-B5E6-64213F29FBA0}'
    NAME "HARM2"
    PEAKCOL 24624127
    BEAT -1
    AUTOMODE 0
    VOLPAN 1.00497380427334 0.00000000000000 -1.00000000000000 -1.00000000000000 1.00000000000000
    MUTESOLO 0 0 0
    IPHASE 0
    ISBUS 0 0
    BUSCOMP 0 0
    SHOWINMIX 1 0.666700 0.500000 1 0.500000 -1 -1 -1
    FREEMODE 0
    SEL 0
    REC 0 0 0 0 0 0 0
    TRACKHEIGHT 39 0
    INQ 0 0 0 0.5000000000 100 0 0 100
    NCHAN 2
    FX 1
    TRACKID {983C7D04-DAF6-462A-B5E6-64213F29FBA0}
    PERF 0
    MIDIOUT -1
    <MIDINOTENAMES
      0 0 "Range Shift"
      0 1 "Lyric Shift"
      0 36 "C1"
      0 37 "C#"
      0 38 "D"
      0 39 "Eb"
      0 40 "E"
      0 41 "F"
      0 42 "F#"
      0 43 "G"
      0 44 "G#"
      0 45 "A"
      0 46 "Bb"
      0 47 "B"
      0 48 "C2"
      0 49 "C#"
      0 50 "D"
      0 51 "Eb"
      0 52 "E"
      0 53 "F"
      0 54 "F#"
      0 55 "G"
      0 56 "G#"
      0 57 "A"
      0 58 "Bb"
      0 59 "B"
      0 60 "C3"
      0 61 "C#"
      0 62 "D"
      0 63 "Eb"
      0 64 "E"
      0 65 "F"
      0 66 "F#"
      0 67 "G"
      0 68 "G#"
      0 69 "A"
      0 70 "Bb"
      0 71 "B"
      0 72 "C4"
      0 73 "C#"
      0 74 "D"
      0 75 "Eb"
      0 76 "E"
      0 77 "F"
      0 78 "F#"
      0 79 "G"
      0 80 "G#"
      0 81 "A"
      0 82 "Bb"
      0 83 "B"
      0 105 "Phrase Marker"
      0 35 "----"
      0 84 "C5"
      0 116 "OVERDRIVE"
      0 115 "----"
      0 104 "----"
      0 97 "Not Displayed Percussion"
      0 96 "Displayed Percussion"
      0 95 "----"
    >
    MAINSEND 1 0
    <FXCHAIN
      WNDRECT 0 42 716 493
      SHOW 0
      LASTSEL 1
      DOCKED 0
      BYPASS 0 0
      <JS "IX/MIDI_Tool II" ""
        0.000000 85.000000 127.000000 0.000000 0.000000 0.000000 100.000000 0.000000 0.000000 127.000000 0.000000 0.000000 1.000000 0.000000 0.000000 - - - - - - - - - - - - - - - - - - - - - - - - - - - - - - - - - - - - - - - - - - - - - - - - - 
      >
      FLOATPOS 0 0 0 0
      FXID {0D2127EF-90E6-4278-AB57-59BADA75D3A0}
      WAK 0
      BYPASS 0 0
      <VST "VSTi: ReaSynth (Cockos)" "reasynth.dll" 0 ""
        eXNlcu9e7f4AAAAAAgAAAAEAAAAAAAAAAgAAAAAAAAA4AAAAAAAAAA==
        AAAAAO++rd4N8K3eppvEOxe30ToAAAAAAAAAAAAAAACa9Q8/6WeIPQ==
        AAAAAAAAAD8AAIA/AAAAAAAAAD8AAAAAAAA=
      >
      FLOATPOS 0 0 0 0
      FXID {9CF76FE8-51DE-4F46-8774-EF282D9874DF}
      WAK 0
    >
    <ITEM
      POSITION 0.00000000000000
      SNAPOFFS 0.00000000000000
      LENGTH 193.64941555399955
      LOOP 0
      ALLTAKES 0
      SEL 0
      FADEIN 1 0.000000 0.000000 1 0
      FADEOUT 1 0.000000 0.000000 1 0
      MUTE 0
      IGUID {85B4D2FA-0EE6-4979-8286-EAC89A15680D}
      IID 12
      NAME "HARM2 untitled MIDI item"
      VOLPAN 1.000000 0.000000 1.000000 -1.000000
      SOFFS 0.00000000000000 0.00000000000000
      PLAYRATE 1.00000000000000 1 0.00000000000000 -1
      CHANMODE 0
      GUID {67C8C31A-733D-46F5-9A6D-0FDF2143554E}
      <SOURCE MIDI
        HASDATA 1 480 QN
        POOLEDEVTS {4A4BEB38-5667-4293-8074-ED8BA5B75D5E}
        <X 0 0
          /wNIQVJNMg==
        >
        <X 5760 0
          /wFbaWRsZV0=
        >
        <X 1937 0
          /wFbcGxheV0=
        >
        E 17221 90 69 60
        E 4149 80 69 00
        E 976 90 69 60
        <X 143 0
          /wVadXAt
        >
        e 0 90 3a 60
        e 111 80 3a 00
        <X 54 0
          /wVwYQ==
        >
        e 0 90 3d 60
        e 99 80 3d 00
        <X 48 0
          /wVSby0=
        >
        e 0 90 3a 60
        e 115 80 3a 00
        <X 56 0
          /wVtYS0=
        >
        e 0 90 39 60
        e 231 80 39 00
        <X 67 0
          /wVuYQ==
        >
        e 0 90 39 60
        e 167 80 39 00
        E 175 80 69 00
        E 1169 90 69 60
        E 4227 80 69 00
        E 960 90 69 60
        E 0 90 74 60
        <X 184 0
          /wVuYS0=
        >
        e 0 90 3c 60
        e 143 80 3c 00
        <X 38 0
          /wVraXQ=
        >
        e 0 90 3c 60
        e 121 80 3c 00
        <X 36 0
          /wVqYQ==
        >
        e 0 90 3c 60
        e 162 80 3c 00
        <X 54 0
          /wVtdXUt
        >
        e 0 90 3c 60
        e 249 80 3c 00
        <X 87 0
          /wVzaQ==
        >
        e 0 90 3c 60
        e 178 80 3c 00
        E 393 80 69 00
        E 0 80 74 00
        E 745 90 69 60
        <X 252 0
          /wVCZWwt
        >
        e 0 90 3f 60
        e 228 80 3f 00
        <X 103 0
          /wVsYQ==
        >
        e 0 90 3a 60
        e 99 80 3a 00
        <X 67 0
          /wVkb24t
        >
        e 0 90 3e 60
        e 175 80 3e 00
        <X 93 0
          /wVuYQ==
        >
        e 0 90 39 60
        e 140 80 39 00
        <X 68 0
          /wVtYW0t
        >
        e 0 90 3e 60
        e 180 80 3e 00
        <X 116 0
          /wVtYQ==
        >
        e 0 90 3f 60
        e 105 80 3f 00
        <X 56 0
          /wVtaS0=
        >
        e 0 90 3f 60
        e 239 80 3f 00
        <X 67 0
          /wVh
        >
        e 0 90 3f 60
        e 117 80 3f 00
        <X 67 0
          /wVhLQ==
        >
        e 0 90 3e 60
        e 213 80 3e 00
        <X 72 0
          /wVsaS0=
        >
        e 0 90 3d 60
        e 110 80 3d 00
        <X 50 0
          /wVtZW4t
        >
        e 0 90 3e 60
        e 159 80 3e 00
        <X 128 0
          /wV0aQ==
        >
        e 0 90 3e 60
        e 122 80 3e 00
        <X 88 0
          /wVjaS0=
        >
        e 0 90 3f 60
        e 272 80 3f 00
        E 4 80 69 00
        E 64 90 69 60
        <X 77 0
          /wVhbw==
        >
        e 0 90 3e 60
        e 71 80 3e 00
        <X 39 0
          /wUr
        >
        e 0 90 3c 60
        e 170 80 3c 00
        <X 253 0
          /wVTdW8t
        >
        e 0 90 3c 60
        e 271 80 3c 00
        <X 59 0
          /wVtaS0=
        >
        e 0 90 39 60
        e 120 80 39 00
        <X 62 0
          /wVwb2kt
        >
        e 0 90 3b 60
        e 267 80 3b 00
        <X 67 0
          /wVrYQ==
        >
        e 0 90 39 60
        e 113 80 39 00
        <X 71 0
          /wVzaWkt
        >
        e 0 90 39 60
        e 219 80 39 00
        <X 76 0
          /wVoZW4=
        >
        e 0 90 39 60
        e 94 80 39 00
        <X 47 0
          /wVldC0=
        >
        e 0 90 39 60
        e 153 80 39 00
        <X 150 0
          /wV0w6Q=
        >
        e 0 90 39 60
        e 171 80 39 00
        <X 63 0
          /wVoZWkt
        >
        e 0 90 39 60
        e 349 80 39 00
        <X 96 0
          /wVrdW4=
        >
        e 0 90 3d 60
        e 365 80 3d 00
        <X 112 0
          /wVrZWkt
        >
        e 0 90 3d 60
        e 389 80 3d 00
        <X 83 0
          /wVrdW4=
        >
        e 0 90 3d 60
        e 360 80 3d 00
        E 95 80 69 00
        E 129 90 69 60
        E 4135 80 69 00
        E 701 90 69 60
        E 0 90 74 60
        <X 265 0
          /wVuYS0=
        >
        e 0 90 3a 60
        e 187 80 3a 00
        <X 39 0
          /wVraXQ=
        >
        e 0 90 36 60
        e 138 80 36 00
        <X 38 0
          /wVqYQ==
        >
        e 0 90 36 60
        e 145 80 36 00
        <X 51 0
          /wVtdXUt
        >
        e 0 90 36 60
        e 237 80 36 00
        <X 65 0
          /wVzaQ==
        >
        e 0 90 36 60
        e 199 80 36 00
        E 176 80 69 00
        E 0 80 74 00
        E 4970 90 69 60
        E 3648 80 69 00
        E 91 90 69 60
        <X 3436 0
          /wVzaQ==
        >
        e 0 90 36 60
        e 241 80 36 00
        E 185 80 69 00
        E 90 90 69 60
        E 5657 80 69 00
        E 147 90 69 60
        E 0 90 74 60
        <X 9 0
          /wVHb3It
        >
        e 0 90 31 49
        e 375 80 31 00
        <X 126 0
          /wVnb24t
        >
        e 0 90 31 49
        e 278 80 31 00
        <X 189 0
          /wV6by0=
        >
        e 0 90 34 61
        e 444 80 34 00
        <X 48 0
          /wVsYQ==
        >
        e 0 90 35 69
        e 351 80 35 00
        <X 118 0
          /wVDby0=
        >
        e 0 90 37 67
        e 366 80 37 00
        <X 128 0
          /wVjYQ==
        >
        e 0 90 39 68
        e 339 80 39 00
        <X 157 0
          /wVDby0=
        >
        e 0 90 3a 67
        e 376 80 3a 00
        <X 67 0
          /wVsYQ==
        >
        e 0 90 3a 67
        e 283 80 3a 00
        E 76 80 69 00
        E 0 80 74 00
        E 102 90 69 60
        E 4092 80 69 00
        E 1084 90 69 60
        <X 45 0
          /wVadXAt
        >
        e 0 90 3d 3d
        e 157 80 3d 00
        <X 64 0
          /wVwYQ==
        >
        e 0 90 3d 3d
        e 87 80 3d 00
        <X 43 0
          /wVSby0=
        >
        e 0 90 3d 3d
        e 124 80 3d 00
        <X 81 0
          /wVtYS0=
        >
        e 0 90 3d 3d
        e 237 80 3d 00
        <X 57 0
          /wVuYQ==
        >
        e 0 90 3d 3d
        e 130 80 3d 00
        E 71 80 69 00
        E 1234 90 69 60
        E 2117 80 69 00
        E 22 90 69 60
        E 2233 80 69 00
        E 1044 90 69 60
        E 0 90 74 60
        <X 15 0
          /wVuYS0=
        >
        e 0 90 3c 60
        e 143 80 3c 00
        <X 38 0
          /wVraXQ=
        >
        e 0 90 3c 60
        e 121 80 3c 00
        <X 36 0
          /wVqYQ==
        >
        e 0 90 3c 60
        e 162 80 3c 00
        <X 54 0
          /wVtdXUt
        >
        e 0 90 3c 60
        e 249 80 3c 00
        <X 87 0
          /wVzaQ==
        >
        e 0 90 35 60
        e 178 80 35 00
        E 98 80 69 00
        E 0 80 74 00
        E 1238 90 69 60
        <X 32 0
          /wVCZWwt
        >
        e 0 90 35 60
        e 228 80 35 00
        <X 103 0
          /wVsYQ==
        >
        e 0 90 3a 60
        e 99 80 3a 00
        <X 67 0
          /wVkb24t
        >
        e 0 90 3f 60
        e 175 80 3f 00
        <X 93 0
          /wVuYQ==
        >
        e 0 90 3f 60
        e 140 80 3f 00
        <X 68 0
          /wVtYW0t
        >
        e 0 90 3e 60
        e 180 80 3e 00
        <X 116 0
          /wVtYQ==
        >
        e 0 90 3b 60
        e 105 80 3b 00
        <X 56 0
          /wVtaS0=
        >
        e 0 90 3e 60
        e 239 80 3e 00
        <X 67 0
          /wVh
        >
        e 0 90 3e 60
        e 117 80 3e 00
        <X 67 0
          /wVhLQ==
        >
        e 0 90 3d 60
        e 213 80 3d 00
        <X 72 0
          /wVsaS0=
        >
        e 0 90 3f 60
        e 110 80 3f 00
        <X 50 0
          /wVtZW4t
        >
        e 0 90 3f 60
        e 159 80 3f 00
        <X 128 0
          /wV0aQ==
        >
        e 0 90 42 60
        e 122 80 42 00
        <X 88 0
          /wVjaS0=
        >
        e 0 90 3f 60
        e 272 80 3f 00
        <X 145 0
          /wVhbw==
        >
        e 0 90 3f 60
        e 71 80 3f 00
        <X 39 0
          /wUr
        >
        e 0 90 3e 60
        e 170 80 3e 00
        E 7 80 69 00
        E 76 90 69 60
        <X 124 0
          /wVTdW8t
        >
        e 0 90 3e 60
        e 317 80 3e 00
        <X 59 0
          /wVtaS0=
        >
        e 0 90 39 60
        e 120 80 39 00
        <X 62 0
          /wVwb2kt
        >
        e 0 90 3b 60
        e 267 80 3b 00
        <X 67 0
          /wVrYQ==
        >
        e 0 90 3a 60
        e 113 80 3a 00
        <X 71 0
          /wVzaWkt
        >
        e 0 90 3d 60
        e 219 80 3d 00
        <X 76 0
          /wVoZW4=
        >
        e 0 90 3d 60
        e 94 80 3d 00
        <X 47 0
          /wVldC0=
        >
        e 0 90 3d 60
        e 153 80 3d 00
        <X 150 0
          /wV0w6Q=
        >
        e 0 90 3d 60
        e 171 80 3d 00
        <X 63 0
          /wVoZWkt
        >
        e 0 90 3d 60
        e 349 80 3d 00
        <X 96 0
          /wVrdW4=
        >
        e 0 90 3c 60
        e 365 80 3c 00
        <X 112 0
          /wVrZWkt
        >
        e 0 90 39 60
        e 389 80 39 00
        <X 83 0
          /wVrdW4=
        >
        e 0 90 38 60
        e 360 80 38 00
        E 38 80 69 00
        E 48 90 69 60
        E 4103 80 69 00
        E 1070 90 69 60
        E 1 90 74 60
        <X 108 0
          /wVuYS0=
        >
        e 0 90 3f 60
        e 110 80 3f 00
        <X 38 0
          /wVraXQ=
        >
        e 0 90 3c 60
        e 121 80 3c 00
        <X 69 0
          /wVqYQ==
        >
        e 0 90 3a 60
        e 128 80 3a 00
        <X 88 0
          /wVtdXUt
        >
        e 0 90 39 60
        e 249 80 39 00
        <X 87 0
          /wVzaQ==
        >
        e 0 90 34 60
        e 178 80 34 00
        E 105 80 69 00
        E 1 80 74 00
        E 22457 90 69 60
        E 3494 80 69 00
        E 201 90 69 60
        <X 3336 0
          /wVzaQ==
        >
        e 0 90 45 42
        e 314 80 45 00
        E 92 80 69 00
        E 93 90 69 60
        E 0 90 74 60
        E 5557 80 69 00
        E 0 80 74 00
        E 184 90 69 60
        <X 130 0
          /wVNb24t
        >
        e 0 90 2f 6c
        e 334 80 2f 00
        <X 139 0
          /wV0YQ==
        >
        e 0 90 33 6c
        e 365 80 33 00
        <X 104 0
          /wVraWwt
        >
        e 0 90 35 64
        e 431 80 35 00
        <X 34 0
          /wVsb28=
        >
        e 0 90 35 64
        e 166 80 35 00
        <X 44 0
          /wUr
        >
        e 0 90 36 64
        e 190 80 36 00
        <X 81 0
          /wV2YXQt
        >
        e 0 90 36 69
        e 221 80 36 00
        <X 258 0
          /wV0dS0=
        >
        e 0 90 35 5c
        e 391 80 35 00
        <X 102 0
          /wVoaWwt
        >
        e 0 90 35 5c
        e 207 80 35 00
        <X 50 0
          /wUr
        >
        e 0 90 36 60
        e 168 80 36 00
        <X 73 0
          /wVsb28=
        >
        e 0 90 37 72
        e 281 80 37 00
        E 30 80 69 00
        E 55 90 69 60
        E 4338 80 69 00
        E 857 90 69 60
        E 0 90 74 60
        <X 136 0
          /wVuYS0=
        >
        e 0 90 3f 60
        e 136 80 3f 00
        <X 41 0
          /wVraXQ=
        >
        e 0 90 43 60
        e 121 80 43 00
        <X 73 0
          /wVqYQ==
        >
        e 0 90 43 60
        e 107 80 43 00
        <X 56 0
          /wVtdXUt
        >
        e 0 90 43 60
        e 265 80 43 00
        <X 48 0
          /wVzaQ==
        >
        e 0 90 3c 60
        e 178 80 3c 00
        E 83 80 69 00
        E 0 80 74 00
        E 941 90 69 60
        E 4653 80 69 00
        E 866 90 69 60
        E 0 90 74 60
        <X 100 0
          /wVOYS0=
        >
        e 0 90 41 60
        e 146 80 41 00
        <X 48 0
          /wVraXQ=
        >
        e 0 90 3f 60
        e 121 80 3f 00
        <X 56 0
          /wVqYQ==
        >
        e 0 90 3f 60
        e 107 80 3f 00
        <X 81 0
          /wVtdXUt
        >
        e 0 90 3c 60
        e 265 80 3c 00
        <X 48 0
          /wVzaQ==
        >
        e 0 90 3c 60
        e 203 80 3c 00
        E 91 80 69 00
        E 0 80 74 00
        E 1110 90 69 60
        <X 139 0
          /wVCZWwt
        >
        e 0 90 40 60
        e 236 80 40 00
        <X 82 0
          /wVsYQ==
        >
        e 0 90 41 60
        e 99 80 41 00
        <X 67 0
          /wVkb24t
        >
        e 0 90 41 60
        e 175 80 41 00
        <X 111 0
          /wVuYQ==
        >
        e 0 90 40 60
        e 122 80 40 00
        <X 68 0
          /wVtYW0t
        >
        e 0 90 41 60
        e 180 80 41 00
        <X 137 0
          /wVtYQ==
        >
        e 0 90 41 60
        e 95 80 41 00
        <X 86 0
          /wVtaS0=
        >
        e 0 90 41 60
        e 263 80 41 00
        <X 39 0
          /wVh
        >
        e 0 90 41 60
        e 95 80 41 00
        <X 82 0
          /wVhLQ==
        >
        e 0 90 40 60
        e 241 80 40 00
        <X 48 0
          /wVsaS0=
        >
        e 0 90 3f 60
        e 123 80 3f 00
        <X 59 0
          /wVtZW4t
        >
        e 0 90 41 60
        e 142 80 41 00
        <X 143 0
          /wV0aQ==
        >
        e 0 90 43 60
        e 108 80 43 00
        <X 63 0
          /wVjaS0=
        >
        e 0 90 43 60
        e 351 80 43 00
        <X 112 0
          /wVhbw==
        >
        e 0 90 41 60
        e 210 80 41 00
        E 45 80 69 00
        E 129 90 69 60
        <X 101 0
          /wVTdW8t
        >
        e 0 90 42 60
        e 283 80 42 00
        <X 62 0
          /wVtaS0=
        >
        e 0 90 40 60
        e 131 80 40 00
        <X 58 0
          /wVwb2kt
        >
        e 0 90 3c 60
        e 272 80 3c 00
        <X 55 0
          /wVrYQ==
        >
        e 0 90 3f 60
        e 121 80 3f 00
        <X 70 0
          /wVzaWkt
        >
        e 0 90 40 60
        e 215 80 40 00
        <X 45 0
          /wVoZW4=
        >
        e 0 90 3d 60
        e 140 80 3d 00
        <X 79 0
          /wVldC0=
        >
        e 0 90 3f 60
        e 111 80 3f 00
        <X 114 0
          /wV0w6Q=
        >
        e 0 90 40 60
        e 171 80 40 00
        <X 73 0
          /wVow7Yt
        >
        e 0 90 40 60
        e 182 80 40 00
        <X 35 0
          /wVsw7Yt
        >
        e 0 90 40 60
        e 206 80 40 00
        <X 103 0
          /wVreW4=
        >
        e 0 90 40 60
        e 307 80 40 00
        <X 79 0
          /wVrw7Yt
        >
        e 0 90 3c 60
        e 207 80 3c 00
        <X 40 0
          /wVsw7Yt
        >
        e 0 90 3c 60
        e 165 80 3c 00
        <X 110 0
          /wVreW4=
        >
        e 0 90 3c 60
        e 230 80 3c 00
        E 24 80 69 00
        E 181 90 69 60
        E 4144 80 69 00
        E 1057 90 69 60
        <X 44 0
          /wVuYS0=
        >
        e 0 90 40 60
        e 196 80 40 00
        <X 27 0
          /wVraXQ=
        >
        e 0 90 40 60
        e 102 80 40 00
        <X 41 0
          /wVqYQ==
        >
        e 0 90 40 60
        e 107 80 40 00
        <X 69 0
          /wVtdXUt
        >
        e 0 90 40 60
        e 265 80 40 00
        <X 41 0
          /wVzaQ==
        >
        e 0 90 40 60
        e 180 80 40 00
        <X 838 0
          /wVOYS0=
        >
        e 0 90 40 60
        e 202 80 40 00
        <X 32 0
          /wVraXQ=
        >
        e 0 90 40 60
        e 115 80 40 00
        <X 56 0
          /wVqYQ==
        >
        e 0 90 40 60
        e 127 80 40 00
        <X 61 0
          /wVtdXUt
        >
        e 0 90 3b 60
        e 265 80 3b 00
        <X 48 0
          /wVzaQ==
        >
        e 0 90 38 60
        e 203 80 38 00
        <X 838 0
          /wVOYS0=
        >
        e 0 90 3b 60
        e 176 80 3b 00
        <X 22 0
          /wVraXQ=
        >
        e 0 90 3b 60
        e 121 80 3b 00
        <X 69 0
          /wVqYQ==
        >
        e 0 90 3b 60
        e 145 80 3b 00
        <X 56 0
          /wVtdXUt
        >
        e 0 90 3d 60
        e 265 80 3d 00
        <X 48 0
          /wVzaQ==
        >
        e 0 90 37 60
        e 210 80 37 00
        E 101 80 69 00
        E 3656 b0 7b 00
        GUID {E53B89F8-ECC8-4A25-86E2-BC4D240C9444}
        IGNTEMPO 0 120.00000000 4 4
        SRCCOLOR 1145
        VELLANE 132 128 60
        COLORMAP "C:\Users\me\AppData\Roaming\REAPER\Data\color_maps\rockband_vox-other.png"
        TEXTSTRINGFILE "C:\Program Files\REAPER\Data\Text_Strings\Text Events List.txt"
        CFGEDITVIEW 156830.959516 85.941050 16 12 0 0 0
        CFGEDIT 1 1 0 1 1 1 1 1 1 0 1 0.06250000 -8 -8 1374 736 1 2 1 2 0.00000000 0 0 0 0 0.500000 1 0 1.000000 64
        KEYSNAP 0 0 "102034050607" 0 "Major"
        EVTFILTER 0 -1 -1 -1 -1 0 1 0 0 -1.00000000 -1.00000000
      >
    >
  >
  <TRACK '{58A7B9C6-1373-47A1-A41A-295306551BF7}'
    NAME "DRYVOX2"
    PEAKCOL 16576
    BEAT -1
    AUTOMODE 0
    VOLPAN 1.00000000000000 0.00000000000000 -1.00000000000000 -1.00000000000000 1.00000000000000
    MUTESOLO 0 0 0
    IPHASE 0
    ISBUS 0 0
    BUSCOMP 0 0
    SHOWINMIX 1 0.666700 0.500000 1 0.500000 -1 -1 -1
    FREEMODE 0
    SEL 0
    REC 0 0 0 0 0 0 0
    TRACKHEIGHT 40 0
    INQ 0 0 0 0.5000000000 100 0 0 100
    NCHAN 2
    FX 1
    TRACKID {58A7B9C6-1373-47A1-A41A-295306551BF7}
    PERF 0
    MIDIOUT -1
    MAINSEND 1 0
    <FXCHAIN
      SHOW 0
      LASTSEL 0
      DOCKED 0
      BYPASS 0 0
      <VST "VST: ReaGate (Cockos)" "reagate.dll" 0 ""
        dGdlcu9e7f4EAAAAAQAAAAAAAAACAAAAAAAAAAQAAAAAAAAACAAAAA==
        AAAAAAIAAAABAAAAAAAAAAIAAAAAAAAAVAAAAAAAAAAAABAA776t3g==
        DfCt3pzRBzOmm8Q7CtejPAAAAAAAAAAAAACAPwAAAAAAAAAAAAAAAA==
        nNEHMx5Ucz+c0QczAACAPwAAAAAAAAAAAAAAACwWCz8AAAAAAAAAAA==
        AAAQAAAA
      >
      FLOATPOS 859 184 511 385
      FXID {BF545B5B-7DD0-4B4C-AC52-F095A552DA08}
      WAK 0
    >
    <ITEM
      POSITION 31.56409944531200
      SNAPOFFS 0.00000000000000
      LENGTH 2.03697759219628
      LOOP 0
      ALLTAKES 0
      SEL 0
      FADEIN 1 0.000000 0.000000 1 0
      FADEOUT 1 0.000000 0.000000 1 0
      MUTE 0
      IGUID {457AFD60-C801-40C0-BD73-F943D01D55B0}
      IID 170
      NAME "vocals.wav"
      VOLPAN 1.000000 0.000000 1.000000 -1.000000
      SOFFS 31.56409944531200
      PLAYRATE 1.00000000000000 1 0.00000000000000 -1
      CHANMODE 0
      GUID {E221F8A7-809A-4214-9942-13E0A72A9DFD}
      <SOURCE WAVE
        FILE "separated\htdemucs\01-SONG AUDIO-consolidated-250409_1905\vocals.wav"
      >
    >
    <ITEM
      POSITION 39.70342095832369
      SNAPOFFS 0.00000000000000
      LENGTH 11.09066067432922
      LOOP 0
      ALLTAKES 0
      SEL 0
      FADEIN 1 0.000000 0.000000 1 0
      FADEOUT 1 0.000000 0.000000 1 0
      MUTE 0
      IGUID {D66B1549-E762-4547-B418-165DBD8F0E8E}
      IID 170
      NAME "vocals.wav"
      VOLPAN 1.000000 0.000000 1.000000 -1.000000
      SOFFS 39.70342095832369
      PLAYRATE 1.00000000000000 1 0.00000000000000 -1
      CHANMODE 0
      GUID {2176CB61-1EE6-4D4B-9ECE-5FCC32E2F889}
      <SOURCE WAVE
        FILE "separated\htdemucs\01-SONG AUDIO-consolidated-250409_1905\vocals.wav"
      >
    >
    <ITEM
      POSITION 55.92621214249162
      SNAPOFFS 0.00000000000000
      LENGTH 1.90336903904421
      LOOP 0
      ALLTAKES 0
      SEL 0
      FADEIN 1 0.000000 0.000000 1 0
      FADEOUT 1 0.000000 0.000000 1 0
      MUTE 0
      IGUID {DEB83B1C-5A60-4ABD-B76E-5A6A3812D75F}
      IID 170
      NAME "vocals.wav"
      VOLPAN 1.000000 0.000000 1.000000 -1.000000
      SOFFS 55.92621214249162
      PLAYRATE 1.00000000000000 1 0.00000000000000 -1
      CHANMODE 0
      GUID {A1055E6D-02E8-49BE-BAC3-28C4D7672DC4}
      <SOURCE WAVE
        FILE "separated\htdemucs\01-SONG AUDIO-consolidated-250409_1905\vocals.wav"
      >
    >
    <ITEM
      POSITION 70.36597658434934
      SNAPOFFS 0.00000000000000
      LENGTH 0.62345717871681
      LOOP 0
      ALLTAKES 0
      SEL 0
      FADEIN 1 0.000000 0.000000 1 0
      FADEOUT 1 0.000000 0.000000 1 0
      MUTE 0
      IGUID {2976C4F6-7BCB-48AA-A820-2EAE702C4F9B}
      IID 170
      NAME "vocals.wav"
      VOLPAN 1.000000 0.000000 1.000000 -1.000000
      SOFFS 70.36597658434934
      PLAYRATE 1.00000000000000 1 0.00000000000000 -1
      CHANMODE 0
      GUID {CCB8011C-B9D7-4947-90AA-26D333964FFA}
      <SOURCE WAVE
        FILE "separated\htdemucs\01-SONG AUDIO-consolidated-250409_1905\vocals.wav"
      >
    >
    <ITEM
      POSITION 77.21055675929929
      SNAPOFFS 0.00000000000000
      LENGTH 3.97382672897465
      LOOP 0
      ALLTAKES 0
      SEL 0
      FADEIN 1 0.000000 0.000000 1 0
      FADEOUT 1 0.000000 0.000000 1 0
      MUTE 0
      IGUID {3774B9D6-67B0-46E1-AAA8-19702949027D}
      IID 170
      NAME "vocals.wav"
      VOLPAN 1.000000 0.000000 1.000000 -1.000000
      SOFFS 77.21055675929929
      PLAYRATE 1.00000000000000 1 0.00000000000000 -1
      CHANMODE 0
      GUID {B7BAD788-6363-45CA-89A5-29C5BADC0043}
      <SOURCE WAVE
        FILE "separated\htdemucs\01-SONG AUDIO-consolidated-250409_1905\vocals.wav"
      >
    >
    <ITEM
      POSITION 86.66831412380708
      SNAPOFFS 0.00000000000000
      LENGTH 1.40153384421947
      LOOP 0
      ALLTAKES 0
      SEL 0
      FADEIN 1 0.000000 0.000000 1 0
      FADEOUT 1 0.000000 0.000000 1 0
      MUTE 0
      IGUID {094CC000-54A0-481D-8BCF-6FF80D80F3B6}
      IID 170
      NAME "vocals.wav"
      VOLPAN 1.000000 0.000000 1.000000 -1.000000
      SOFFS 86.66831412380708
      PLAYRATE 1.00000000000000 1 0.00000000000000 -1
      CHANMODE 0
      GUID {8B8A68CE-060D-4EA9-875D-5BB4E03739CD}
      <SOURCE WAVE
        FILE "separated\htdemucs\01-SONG AUDIO-consolidated-250409_1905\vocals.wav"
      >
    >
    <ITEM
      POSITION 94.72268590527943
      SNAPOFFS 0.00000000000000
      LENGTH 10.94784811970567
      LOOP 0
      ALLTAKES 0
      SEL 0
      FADEIN 1 0.000000 0.000000 1 0
      FADEOUT 1 0.000000 0.000000 1 0
      MUTE 0
      IGUID {328D3B59-F055-4EC7-81C6-08CF133E242A}
      IID 170
      NAME "vocals.wav"
      VOLPAN 1.000000 0.000000 1.000000 -1.000000
      SOFFS 94.72268590527943
      PLAYRATE 1.00000000000000 1 0.00000000000000 -1
      CHANMODE 0
      GUID {494A1889-BE69-46B8-9D38-C9CB0A4F9A3F}
      <SOURCE WAVE
        FILE "separated\htdemucs\01-SONG AUDIO-consolidated-250409_1905\vocals.wav"
      >
    >
    <ITEM
      POSITION 110.86218293109425
      SNAPOFFS 0.00000000000000
      LENGTH 1.73313618667478
      LOOP 0
      ALLTAKES 0
      SEL 0
      FADEIN 1 0.000000 0.000000 1 0
      FADEOUT 1 0.000000 0.000000 1 0
      MUTE 0
      IGUID {3B2FE09C-9333-4E4B-B743-6FA1B294D2F9}
      IID 170
      NAME "vocals.wav"
      VOLPAN 1.000000 0.000000 1.000000 -1.000000
      SOFFS 110.86218293109425
      PLAYRATE 1.00000000000000 1 0.00000000000000 -1
      CHANMODE 0
      GUID {813CEA6D-ABAD-46E8-942B-F9CCF3597755}
      <SOURCE WAVE
        FILE "separated\htdemucs\01-SONG AUDIO-consolidated-250409_1905\vocals.wav"
      >
    >
    <ITEM
      POSITION 143.57076293582614
      SNAPOFFS 0.00000000000000
      LENGTH 0.67737543412784
      LOOP 0
      ALLTAKES 0
      SEL 0
      FADEIN 1 0.000000 0.000000 1 0
      FADEOUT 1 0.000000 0.000000 1 0
      MUTE 0
      IGUID {3AF7462F-CF79-4D2F-9E0F-05602FBE7603}
      IID 170
      NAME "vocals.wav"
      VOLPAN 1.000000 0.000000 1.000000 -1.000000
      SOFFS 143.57076293582614
      PLAYRATE 1.00000000000000 1 0.00000000000000 -1
      CHANMODE 0
      GUID {74E67FA4-2EB4-482D-B7D5-6E78BA872AD5}
      <SOURCE WAVE
        FILE "separated\htdemucs\01-SONG AUDIO-consolidated-250409_1905\vocals.wav"
      >
    >
    <ITEM
      POSITION 150.25893870261342
      SNAPOFFS 0.00000000000000
      LENGTH 4.14003558824055
      LOOP 0
      ALLTAKES 0
      SEL 0
      FADEIN 1 0.000000 0.000000 1 0
      FADEOUT 1 0.000000 0.000000 1 0
      MUTE 0
      IGUID {AFAF21B4-1106-49F4-90BB-4DD73B68A1AD}
      IID 170
      NAME "vocals.wav"
      VOLPAN 1.000000 0.000000 1.000000 -1.000000
      SOFFS 150.25893870261342
      PLAYRATE 1.00000000000000 1 0.00000000000000 -1
      CHANMODE 0
      GUID {328F7E01-1C94-4D1F-8D0E-E467538D3D64}
      <SOURCE WAVE
        FILE "separated\htdemucs\01-SONG AUDIO-consolidated-250409_1905\vocals.wav"
      >
    >
    <ITEM
      POSITION 159.83415470215377
      SNAPOFFS 0.00000000000000
      LENGTH 1.59402439761132
      LOOP 0
      ALLTAKES 0
      SEL 0
      FADEIN 1 0.000000 0.000000 1 0
      FADEOUT 1 0.000000 0.000000 1 0
      MUTE 0
      IGUID {9BB62A90-561C-4285-89EB-824F5B9C9EBB}
      IID 170
      NAME "vocals.wav"
      VOLPAN 1.000000 0.000000 1.000000 -1.000000
      SOFFS 159.83415470215377
      PLAYRATE 1.00000000000000 1 0.00000000000000 -1
      CHANMODE 0
      GUID {F6B940DA-6C35-4F9D-A3EE-58C1E897EE6C}
      <SOURCE WAVE
        FILE "separated\htdemucs\01-SONG AUDIO-consolidated-250409_1905\vocals.wav"
      >
    >
    <ITEM
      POSITION 167.89283360118887
      SNAPOFFS 0.00000000000000
      LENGTH 10.92570889196105
      LOOP 0
      ALLTAKES 0
      SEL 0
      FADEIN 1 0.000000 0.000000 1 0
      FADEOUT 1 0.000000 0.000000 1 0
      MUTE 0
      IGUID {84782709-B804-41D5-81F9-304A000FFECA}
      IID 170
      NAME "vocals.wav"
      VOLPAN 1.000000 0.000000 1.000000 -1.000000
      SOFFS 167.89283360118887
      PLAYRATE 1.00000000000000 1 0.00000000000000 -1
      CHANMODE 0
      GUID {1BE70E0E-B7EA-4883-9E02-8A2FF8667045}
      <SOURCE WAVE
        FILE "separated\htdemucs\01-SONG AUDIO-consolidated-250409_1905\vocals.wav"
      >
    >
    <ITEM
      POSITION 184.18730522121589
      SNAPOFFS 0.00000000000000
      LENGTH 9.00271745452108
      LOOP 0
      ALLTAKES 0
      SEL 0
      FADEIN 1 0.000000 0.000000 1 0
      FADEOUT 1 0.000000 0.000000 1 0
      MUTE 0
      IGUID {23EE5BA1-DC80-40E8-9F03-62E7CA0800CE}
      IID 170
      NAME "vocals.wav"
      VOLPAN 1.000000 0.000000 1.000000 -1.000000
      SOFFS 184.18730522121589
      PLAYRATE 1.00000000000000 1 0.00000000000000 -1
      CHANMODE 0
      GUID {480ED50B-6F2B-46A3-BE2C-786D3A58504C}
      <SOURCE WAVE
        FILE "separated\htdemucs\01-SONG AUDIO-consolidated-250409_1905\vocals.wav"
      >
    >
  >
  <TRACK '{4299BF31-E988-4C64-900A-97AC9ECE5EBC}'
    NAME "HARM3"
    PEAKCOL 24624127
    BEAT -1
    AUTOMODE 0
    VOLPAN 1.00000000000000 0.00000000000000 -1.00000000000000 -1.00000000000000 1.00000000000000
    MUTESOLO 0 0 0
    IPHASE 0
    ISBUS 0 0
    BUSCOMP 0 0
    SHOWINMIX 1 0.666700 0.500000 1 0.500000 -1 -1 -1
    FREEMODE 0
    SEL 0
    REC 0 0 0 0 0 0 0
    TRACKHEIGHT 218 0
    INQ 0 0 0 0.5000000000 100 0 0 100
    NCHAN 2
    FX 1
    TRACKID {4299BF31-E988-4C64-900A-97AC9ECE5EBC}
    PERF 0
    MIDIOUT -1
    <MIDINOTENAMES
      0 0 "Range Shift"
      0 1 "Lyric Shift"
      0 35 "----"
      0 36 "C1"
      0 37 "C#"
      0 38 "D"
      0 39 "Eb"
      0 40 "E"
      0 41 "F"
      0 42 "F#"
      0 43 "G"
      0 44 "G#"
      0 45 "A"
      0 46 "Bb"
      0 47 "B"
      0 48 "C2"
      0 49 "C#"
      0 50 "D"
      0 51 "Eb"
      0 52 "E"
      0 53 "F"
      0 54 "F#"
      0 55 "G"
      0 56 "G#"
      0 57 "A"
      0 58 "Bb"
      0 59 "B"
      0 60 "C3"
      0 61 "C#"
      0 62 "D"
      0 63 "Eb"
      0 64 "E"
      0 65 "F"
      0 66 "F#"
      0 67 "G"
      0 68 "G#"
      0 69 "A"
      0 70 "Bb"
      0 71 "B"
      0 72 "C4"
      0 73 "C#"
      0 74 "D"
      0 75 "Eb"
      0 76 "E"
      0 77 "F"
      0 78 "F#"
      0 79 "G"
      0 80 "G#"
      0 81 "A"
      0 82 "Bb"
      0 83 "B"
      0 84 "C5"
      0 116 "OVERDRIVE"
      0 115 "----"
      0 105 "Phrase Marker"
      0 104 "----"
      0 97 "Not Displayed Percussion"
      0 96 "Displayed Percussion"
      0 95 "----"
    >
    MAINSEND 1 0
    <FXCHAIN
      WNDRECT 0 42 716 493
      SHOW 0
      LASTSEL 1
      DOCKED 0
      BYPASS 0 0
      <JS "IX/MIDI_Tool II" ""
        0.000000 85.000000 127.000000 0.000000 0.000000 0.000000 100.000000 0.000000 0.000000 127.000000 0.000000 0.000000 1.000000 0.000000 0.000000 - - - - - - - - - - - - - - - - - - - - - - - - - - - - - - - - - - - - - - - - - - - - - - - - - 
      >
      FLOATPOS 0 0 0 0
      FXID {3D33E2FB-5DDE-4F81-B16F-BCB1EAD8D4FA}
      WAK 0
      BYPASS 0 0
      <VST "VSTi: ReaSynth (Cockos)" "reasynth.dll" 0 ""
        eXNlcu9e7f4AAAAAAgAAAAEAAAAAAAAAAgAAAAAAAAA4AAAAAAAAAA==
        AAAAAO++rd4N8K3eppvEOxe30ToAAAAAAAAAAAAAAACa9Q8/6WeIPQ==
        AAAAAAAAAD8AAIA/AAAAAAAAAD8AAAAAAAA=
      >
      FLOATPOS 0 0 0 0
      FXID {98E235B6-3365-4F58-AC74-F5BD513BFA85}
      WAK 0
    >
    <ITEM
      POSITION 0.00000000000000
      SNAPOFFS 0.00000000000000
      LENGTH 193.64941555399955
      LOOP 0
      ALLTAKES 0
      SEL 0
      FADEIN 1 0.000000 0.000000 1 0
      FADEOUT 1 0.000000 0.000000 1 0
      MUTE 0
      IGUID {14DAFADF-64E7-40FA-8E65-65BBB77CBDB7}
      IID 13
      NAME "HARM3 untitled MIDI item"
      VOLPAN 1.000000 0.000000 1.000000 -1.000000
      SOFFS 0.00000000000000 0.00000000000000
      PLAYRATE 1.00000000000000 1 0.00000000000000 -1
      CHANMODE 0
      GUID {BA30FF02-694D-4D9D-9D54-87AECA42C3BA}
      <SOURCE MIDI
        HASDATA 1 480 QN
        POOLEDEVTS {53799575-89E8-492D-AA57-42C653D5E9EE}
        <X 0 0
          /wNIQVJNMw==
        >
        <X 5760 0
          /wFbaWRsZV0=
        >
        <X 1937 0
          /wFbcGxheV0=
        >
        E 17220 90 69 60
        E 4149 80 69 00
        E 976 90 69 60
        <X 144 0
          /wVadXAt
        >
        E 0 90 34 60
        E 111 80 34 00
        <X 54 0
          /wVwYQ==
        >
        E 0 90 37 60
        E 99 80 37 00
        <X 48 0
          /wVSby0=
        >
        E 0 90 34 60
        E 115 80 34 00
        <X 56 0
          /wVtYS0=
        >
        E 0 90 33 60
        E 231 80 33 00
        <X 67 0
          /wVuYQ==
        >
        E 0 90 33 60
        E 167 80 33 00
        E 174 80 69 00
        E 1169 90 69 60
        <X 114 0
          /wVNYWst
        >
        E 0 90 33 60
        E 120 80 33 00
        <X 219 0
          /wVrYS0=
        >
        E 0 90 33 60
        E 101 80 33 00
        <X 96 0
          /wVyb2kt
        >
        E 0 90 34 60
        E 199 80 34 00
        <X 91 0
          /wV0YQ==
        >
        E 0 90 37 60
        E 107 80 37 00
        <X 62 0
          /wVwaWkt
        >
        E 0 90 32 60
        E 77 80 32 00
        <X 28 0
          /wUr
        >
        E 0 90 34 60
        E 148 80 34 00
        <X 79 0
          /wVyYS0=
        >
        E 0 90 37 60
        E 99 80 37 00
        <X 79 0
          /wVrb2kt
        >
        E 0 90 32 60
        E 228 80 32 00
        <X 57 0
          /wV0YQ==
        >
        E 0 90 32 60
        E 104 80 32 00
        <X 65 0
          /wVww6TDpGwt
        >
        E 0 90 32 60
        E 216 80 32 00
        <X 79 0
          /wVsZQ==
        >
        E 0 90 34 60
        E 122 80 34 00
        <X 85 0
          /wV2b2kt
        >
        E 0 90 37 60
        E 227 80 37 00
        <X 74 0
          /wV0YQ==
        >
        E 0 90 37 60
        E 121 80 37 00
        <X 51 0
          /wVTaXQt
        >
        E 0 90 32 60
        E 137 80 32 00
        <X 161 0
          /wV0ZW4=
        >
        E 0 90 34 60
        E 127 80 34 00
        <X 59 0
          /wVrYWkt
        >
        E 0 90 34 60
        E 218 80 34 00
        <X 73 0
          /wVraWwt
        >
        E 0 90 36 60
        E 108 80 36 00
        <X 42 0
          /wVsZQ==
        >
        E 0 90 3a 60
        E 131 80 3a 00
        E 123 80 69 00
        E 960 90 69 60
        E 0 90 74 60
        <X 185 0
          /wVuYS0=
        >
        E 0 90 36 60
        E 143 80 36 00
        <X 38 0
          /wVraXQ=
        >
        E 0 90 36 60
        E 121 80 36 00
        <X 36 0
          /wVqYQ==
        >
        E 0 90 36 60
        E 162 80 36 00
        <X 54 0
          /wVtdXUt
        >
        E 0 90 36 60
        E 249 80 36 00
        <X 87 0
          /wVzaQ==
        >
        E 0 90 36 60
        E 178 80 36 00
        E 392 80 69 00
        E 0 80 74 00
        E 745 90 69 60
        <X 253 0
          /wVCZWwt
        >
        E 0 90 39 60
        E 228 80 39 00
        <X 103 0
          /wVsYQ==
        >
        E 0 90 34 60
        E 99 80 34 00
        <X 67 0
          /wVkb24t
        >
        E 0 90 38 60
        E 175 80 38 00
        <X 93 0
          /wVuYQ==
        >
        E 0 90 33 60
        E 140 80 33 00
        <X 68 0
          /wVtYW0t
        >
        E 0 90 38 60
        E 180 80 38 00
        <X 116 0
          /wVtYQ==
        >
        E 0 90 39 60
        E 105 80 39 00
        <X 56 0
          /wVtaS0=
        >
        E 0 90 39 60
        E 239 80 39 00
        <X 67 0
          /wVh
        >
        E 0 90 39 60
        E 117 80 39 00
        <X 67 0
          /wVhLQ==
        >
        E 0 90 38 60
        E 213 80 38 00
        <X 72 0
          /wVsaS0=
        >
        E 0 90 37 60
        E 110 80 37 00
        <X 50 0
          /wVtZW4t
        >
        E 0 90 38 60
        E 159 80 38 00
        <X 128 0
          /wV0aQ==
        >
        E 0 90 38 60
        E 122 80 38 00
        <X 88 0
          /wVjaS0=
        >
        E 0 90 39 60
        E 272 80 39 00
        E 3 80 69 00
        E 64 90 69 60
        <X 78 0
          /wVhbw==
        >
        E 0 90 38 60
        E 71 80 38 00
        <X 39 0
          /wUr
        >
        E 0 90 36 60
        E 170 80 36 00
        <X 253 0
          /wVTdW8t
        >
        E 0 90 36 60
        E 271 80 36 00
        <X 59 0
          /wVtaS0=
        >
        E 0 90 33 60
        E 120 80 33 00
        <X 62 0
          /wVwb2kt
        >
        E 0 90 35 60
        E 267 80 35 00
        <X 67 0
          /wVrYQ==
        >
        E 0 90 33 60
        E 113 80 33 00
        <X 71 0
          /wVzaWkt
        >
        E 0 90 33 60
        E 219 80 33 00
        <X 76 0
          /wVoZW4=
        >
        E 0 90 33 60
        E 94 80 33 00
        <X 47 0
          /wVldC0=
        >
        E 0 90 33 60
        E 153 80 33 00
        <X 150 0
          /wV0w6Q=
        >
        E 0 90 33 60
        E 171 80 33 00
        <X 63 0
          /wVoZWkt
        >
        E 0 90 33 60
        E 349 80 33 00
        <X 96 0
          /wVrdW4=
        >
        E 0 90 37 60
        E 365 80 37 00
        <X 112 0
          /wVrZWkt
        >
        E 0 90 37 60
        E 389 80 37 00
        <X 83 0
          /wVrdW4=
        >
        E 0 90 37 60
        E 360 80 37 00
        E 94 80 69 00
        E 129 90 69 60
        <X 147 0
          /wVUdXAt
        >
        E 0 90 33 60
        E 59 80 33 00
        <X 27 0
          /wVsYS0=
        >
        E 0 90 31 60
        E 83 80 31 00
        <X 65 0
          /wV2b3Qt
        >
        E 0 90 34 60
        E 122 80 34 00
        <X 215 0
          /wVrYQ==
        >
        E 0 90 34 60
        E 92 80 34 00
        <X 136 0
          /wVwb3Mt
        >
        E 0 90 31 60
        E 210 80 31 00
        <X 69 0
          /wVzdW4=
        >
        E 0 90 33 60
        E 87 80 33 00
        <X 56 0
          /wVwb3Qt
        >
        E 0 90 35 60
        E 110 80 35 00
        <X 207 0
          /wVrYQ==
        >
        E 0 90 36 60
        E 92 80 36 00
        <X 52 0
          /wVoZXIt
        >
        E 0 90 34 60
        E 257 80 34 00
        <X 65 0
          /wVrdXQ=
        >
        E 0 90 36 60
        E 93 80 36 00
        <X 59 0
          /wVqb3Qt
        >
        E 0 90 34 60
        E 138 80 34 00
        <X 207 0
          /wVrYQ==
        >
        E 0 90 37 60
        E 86 80 37 00
        <X 44 0
          /wVtYWlzLQ==
        >
        E 0 90 32 60
        E 214 80 32 00
        <X 96 0
          /wV0dXU=
        >
        E 0 90 32 60
        E 166 80 32 00
        <X 32 0
          /wVNdXQt
        >
        E 0 90 34 60
        E 111 80 34 00
        <X 189 0
          /wV0YQ==
        >
        E 0 90 36 60
        E 114 80 36 00
        <X 45 0
          /wVtecO2cw==
        >
        E 0 90 38 60
        E 277 80 38 00
        E 113 80 69 00
        E 701 90 69 60
        E 0 90 74 60
        <X 266 0
          /wVuYS0=
        >
        E 0 90 34 60
        E 187 80 34 00
        <X 39 0
          /wVraXQ=
        >
        E 0 90 30 60
        E 138 80 30 00
        <X 38 0
          /wVqYQ==
        >
        E 0 90 30 60
        E 145 80 30 00
        <X 51 0
          /wVtdXUt
        >
        E 0 90 30 60
        E 237 80 30 00
        <X 65 0
          /wVzaQ==
        >
        E 0 90 30 60
        E 199 80 30 00
        E 175 80 69 00
        E 0 80 74 00
        E 4970 90 69 60
        E 3648 80 69 00
        E 91 90 69 60
        <X 3437 0
          /wVzaQ==
        >
        E 0 90 30 60
        E 241 80 30 00
        E 184 80 69 00
        E 90 90 69 60
        <X 93 0
          /wVUdW8t
        >
        E 0 90 2f 50
        E 755 80 2f 00
        <X 176 0
          /wVrYWE=
        >
        E 0 90 36 46
        E 440 80 36 00
        <X 517 0
          /wVLYWEt
        >
        E 0 90 30 63
        E 269 80 30 00
        <X 36 0
          /wVsaS0=
        >
        E 0 90 32 63
        E 72 80 32 00
        <X 91 0
          /wVrw6TDpC0=
        >
        E 0 90 33 63
        E 274 80 33 00
        <X 17 0
          /wVyeS0=
        >
        E 0 90 31 58
        E 143 80 31 00
        <X 27 0
          /wVsZXQt
        >
        E 0 90 2f 46
        E 131 80 2f 00
        <X 327 0
          /wV0w6Q=
        >
        E 0 90 2a 46
        E 182 80 2a 00
        <X 333 0
          /wV2aWUt
        >
        E 0 90 2f 55
        E 276 80 2f 00
        <X 40 0
          /wVsw6Q=
        >
        E 0 90 30 5a
        E 94 80 30 00
        <X 63 0
          /wV2aXMt
        >
        E 0 90 31 3e
        E 304 80 31 00
        <X 41 0
          /wVzeS0=
        >
        E 0 90 2f 3b
        E 95 80 2f 00
        <X 55 0
          /wV2ZXQt
        >
        E 0 90 2e 49
        E 157 80 2e 00
        <X 289 0
          /wV0w6Q=
        >
        E 0 90 2e 49
        E 255 80 2e 00
        E 105 80 69 00
        E 147 90 69 60
        E 0 90 74 60
        <X 10 0
          /wVHb3It
        >
        E 0 90 2b 49
        E 375 80 2b 00
        <X 126 0
          /wVnb24t
        >
        E 0 90 2b 49
        E 278 80 2b 00
        <X 189 0
          /wV6by0=
        >
        E 0 90 2e 61
        E 444 80 2e 00
        <X 48 0
          /wVsYQ==
        >
        E 0 90 2f 69
        E 351 80 2f 00
        <X 118 0
          /wVDby0=
        >
        E 0 90 31 67
        E 366 80 31 00
        <X 128 0
          /wVjYQ==
        >
        E 0 90 33 68
        E 339 80 33 00
        <X 157 0
          /wVDby0=
        >
        E 0 90 34 67
        E 376 80 34 00
        <X 67 0
          /wVsYQ==
        >
        E 0 90 34 67
        E 283 80 34 00
        E 75 80 69 00
        E 0 80 74 00
        E 102 90 69 60
        E 4092 80 69 00
        E 1084 90 69 60
        <X 46 0
          /wVadXAt
        >
        E 0 90 37 3d
        E 157 80 37 00
        <X 64 0
          /wVwYQ==
        >
        E 0 90 37 3d
        E 87 80 37 00
        <X 43 0
          /wVSby0=
        >
        E 0 90 37 3d
        E 124 80 37 00
        <X 81 0
          /wVtYS0=
        >
        E 0 90 37 3d
        E 237 80 37 00
        <X 57 0
          /wVuYQ==
        >
        E 0 90 37 3d
        E 130 80 37 00
        E 70 80 69 00
        E 1234 90 69 60
        <X 30 0
          /wVMw6RzLQ==
        >
        E 0 90 35 64
        E 297 80 35 00
        <X 187 0
          /wVraS0=
        >
        E 0 90 34 44
        E 129 80 34 00
        <X 70 0
          /wVzb28t
        >
        E 0 90 32 5d
        E 229 80 32 00
        <X 47 0
          /wVzaQ==
        >
        E 0 90 32 5d
        E 112 80 32 00
        <X 87 0
          /wVhcC0=
        >
        E 0 90 30 56
        E 156 80 30 00
        <X 78 0
          /wVyaS0=
        >
        E 0 90 30 56
        E 188 80 30 00
        <X 78 0
          /wVrb28t
        >
        E 0 90 32 5e
        E 218 80 32 00
        <X 73 0
          /wVzaQ==
        >
        E 0 90 36 51
        E 128 80 36 00
        E 10 80 69 00
        E 22 90 69 60
        <X 12 0
          /wVkaWFnLQ==
        >
        E 0 90 30 57
        E 241 80 30 00
        <X 194 0
          /wVub28t
        >
        E 0 90 31 61
        E 230 80 31 00
        <X 61 0
          /wVzaQ==
        >
        E 0 90 31 61
        E 105 80 31 00
        <X 101 0
          /wVUYXJrLQ==
        >
        E 0 90 30 57
        E 180 80 30 00
        <X 166 0
          /wVrYQ==
        >
        E 0 90 30 51
        E 106 80 30 00
        <X 35 0
          /wVtZWlsLQ==
        >
        E 0 90 33 5a
        E 182 80 33 00
        <X 85 0
          /wVsw6Q=
        >
        E 0 90 33 5a
        E 96 80 33 00
        <X 89 0
          /wVvbg==
        >
        E 0 90 37 53
        E 266 80 37 00
        E 84 80 69 00
        E 1044 90 69 60
        E 0 90 74 60
        <X 16 0
          /wVuYS0=
        >
        E 0 90 36 60
        E 143 80 36 00
        <X 38 0
          /wVraXQ=
        >
        E 0 90 36 60
        E 121 80 36 00
        <X 36 0
          /wVqYQ==
        >
        E 0 90 36 60
        E 162 80 36 00
        <X 54 0
          /wVtdXUt
        >
        E 0 90 36 60
        E 249 80 36 00
        <X 87 0
          /wVzaQ==
        >
        E 0 90 2f 60
        E 178 80 2f 00
        E 97 80 69 00
        E 0 80 74 00
        E 1238 90 69 60
        <X 33 0
          /wVCZWwt
        >
        E 0 90 2f 60
        E 228 80 2f 00
        <X 103 0
          /wVsYQ==
        >
        E 0 90 34 60
        E 99 80 34 00
        <X 67 0
          /wVkb24t
        >
        E 0 90 39 60
        E 175 80 39 00
        <X 93 0
          /wVuYQ==
        >
        E 0 90 39 60
        E 140 80 39 00
        <X 68 0
          /wVtYW0t
        >
        E 0 90 38 60
        E 180 80 38 00
        <X 116 0
          /wVtYQ==
        >
        E 0 90 35 60
        E 105 80 35 00
        <X 56 0
          /wVtaS0=
        >
        E 0 90 38 60
        E 239 80 38 00
        <X 67 0
          /wVh
        >
        E 0 90 38 60
        E 117 80 38 00
        <X 67 0
          /wVhLQ==
        >
        E 0 90 37 60
        E 213 80 37 00
        <X 72 0
          /wVsaS0=
        >
        E 0 90 39 60
        E 110 80 39 00
        <X 50 0
          /wVtZW4t
        >
        E 0 90 39 60
        E 159 80 39 00
        <X 128 0
          /wV0aQ==
        >
        E 0 90 3c 60
        E 122 80 3c 00
        <X 88 0
          /wVjaS0=
        >
        E 0 90 39 60
        E 272 80 39 00
        <X 145 0
          /wVhbw==
        >
        E 0 90 39 60
        E 71 80 39 00
        <X 39 0
          /wUr
        >
        E 0 90 38 60
        E 170 80 38 00
        E 6 80 69 00
        E 76 90 69 60
        <X 125 0
          /wVTdW8t
        >
        E 0 90 38 60
        E 317 80 38 00
        <X 59 0
          /wVtaS0=
        >
        E 0 90 33 60
        E 120 80 33 00
        <X 62 0
          /wVwb2kt
        >
        E 0 90 35 60
        E 267 80 35 00
        <X 67 0
          /wVrYQ==
        >
        E 0 90 34 60
        E 113 80 34 00
        <X 71 0
          /wVzaWkt
        >
        E 0 90 37 60
        E 219 80 37 00
        <X 76 0
          /wVoZW4=
        >
        E 0 90 37 60
        E 94 80 37 00
        <X 47 0
          /wVldC0=
        >
        E 0 90 37 60
        E 153 80 37 00
        <X 150 0
          /wV0w6Q=
        >
        E 0 90 37 60
        E 171 80 37 00
        <X 63 0
          /wVoZWkt
        >
        E 0 90 37 60
        E 349 80 37 00
        <X 96 0
          /wVrdW4=
        >
        E 0 90 36 60
        E 365 80 36 00
        <X 112 0
          /wVrZWkt
        >
        E 0 90 33 60
        E 389 80 33 00
        <X 83 0
          /wVrdW4=
        >
        E 0 90 32 60
        E 360 80 32 00
        E 37 80 69 00
        E 48 90 69 60
        <X 42 0
          /wVrb3Mt
        >
        E 0 90 30 4d
        E 234 80 30 00
        <X 70 0
          /wVraXMt
        >
        E 0 90 30 4d
        E 109 80 30 00
        <X 96 0
          /wV0dWlrLQ==
        >
        E 0 90 32 55
        E 184 80 32 00
        <X 143 0
          /wVrdS0=
        >
        E 0 90 35 59
        E 93 80 35 00
        <X 62 0
          /wVwaWst
        >
        E 0 90 35 59
        E 93 80 35 00
        <X 217 0
          /wVrdQ==
        >
        E 0 90 35 53
        E 114 80 35 00
        <X 59 0
          /wVodWlrLQ==
        >
        E 0 90 33 53
        E 150 80 33 00
        <X 133 0
          /wVrdS0=
        >
        E 0 90 35 59
        E 93 80 35 00
        <X 149 0
          /wVzdW8t
        >
        E 0 90 30 52
        E 209 80 30 00
        <X 41 0
          /wVsYS0=
        >
        E 0 90 30 52
        E 95 80 30 00
        <X 55 0
          /wVtdWlrLQ==
        >
        E 0 90 33 4f
        E 164 80 33 00
        <X 153 0
          /wVrdQ==
        >
        E 0 90 34 52
        E 114 80 34 00
        <X 58 0
          /wVvbg==
        >
        E 0 90 34 52
        E 100 80 34 00
        <X 170 0
          /wVqYQ==
        >
        E 0 90 30 52
        E 92 80 30 00
        <X 93 0
          /wVww6TDpGwt
        >
        E 0 90 32 52
        E 185 80 32 00
        <X 112 0
          /wVsZQ==
        >
        E 0 90 32 52
        E 118 80 32 00
        <X 84 0
          /wVzZW4=
        >
        E 0 90 37 52
        E 139 80 37 00
        E 80 80 69 00
        E 1070 90 69 60
        E 1 90 74 60
        <X 109 0
          /wVuYS0=
        >
        E 0 90 39 60
        E 110 80 39 00
        <X 38 0
          /wVraXQ=
        >
        E 0 90 36 60
        E 121 80 36 00
        <X 69 0
          /wVqYQ==
        >
        E 0 90 34 60
        E 128 80 34 00
        <X 88 0
          /wVtdXUt
        >
        E 0 90 33 60
        E 249 80 33 00
        <X 87 0
          /wVzaQ==
        >
        E 0 90 2e 60
        E 178 80 2e 00
        E 104 80 69 00
        E 1 80 74 00
        E 22457 90 69 60
        E 3494 80 69 00
        E 201 90 69 60
        <X 3337 0
          /wVzaQ==
        >
        E 0 90 3f 42
        E 314 80 3f 00
        E 91 80 69 00
        E 93 90 69 60
        E 0 90 74 60
        <X 159 0
          /wVUdW8t
        >
        E 0 90 30 42
        E 785 80 30 00
        <X 130 0
          /wVrYWE=
        >
        E 0 90 36 42
        E 183 80 36 00
        <X 56 0
          /wUr
        >
        E 0 90 37 42
        E 184 80 37 00
        <X 487 0
          /wVMYWgt
        >
        E 0 90 31 42
        E 243 80 31 00
        <X 73 0
          /wVuYQ==
        >
        E 0 90 32 5c
        E 141 80 32 00
        <X 56 0
          /wVzYS0=
        >
        E 0 90 33 51
        E 109 80 33 00
        <X 46 0
          /wV2dXMt
        >
        E 0 90 33 51
        E 200 80 33 00
        <X 132 0
          /wV0ZXQt
        >
        E 0 90 30 48
        E 121 80 30 00
        <X 352 0
          /wV0dQ==
        >
        E 0 90 2c 36
        E 116 80 2c 00
        <X 367 0
          /wVtdXUt
        >
        E 0 90 30 4b
        E 214 80 30 00
        <X 40 0
          /wVyaW4t
        >
        E 0 90 31 4d
        E 135 80 31 00
        <X 83 0
          /wVwb2gt
        >
        E 0 90 32 5e
        E 210 80 32 00
        <X 98 0
          /wVqYS0=
        >
        E 0 90 30 46
        E 149 80 30 00
        <X 38 0
          /wVsZXQt
        >
        E 0 90 2f 52
        E 199 80 2f 00
        <X 315 0
          /wV0dQ==
        >
        E 0 90 2c 34
        E 126 80 2c 00
        E 10 80 69 00
        E 0 80 74 00
        E 184 90 69 60
        <X 131 0
          /wVNb24t
        >
        E 0 90 29 6c
        E 334 80 29 00
        <X 139 0
          /wV0YQ==
        >
        E 0 90 2d 6c
        E 365 80 2d 00
        <X 104 0
          /wVraWwt
        >
        E 0 90 2f 64
        E 431 80 2f 00
        <X 34 0
          /wVsb28=
        >
        E 0 90 2f 64
        E 166 80 2f 00
        <X 44 0
          /wUr
        >
        E 0 90 30 64
        E 190 80 30 00
        <X 81 0
          /wV2YXQt
        >
        E 0 90 30 69
        E 221 80 30 00
        <X 258 0
          /wV0dS0=
        >
        E 0 90 2f 5c
        E 391 80 2f 00
        <X 102 0
          /wVoaWwt
        >
        E 0 90 2f 5c
        E 207 80 2f 00
        <X 50 0
          /wUr
        >
        E 0 90 30 60
        E 168 80 30 00
        <X 73 0
          /wVsb28=
        >
        E 0 90 31 72
        E 281 80 31 00
        E 29 80 69 00
        E 55 90 69 60
        <X 80 0
          /wVLYW50LQ==
        >
        E 0 90 2f 6b
        E 121 80 2f 00
        <X 268 0
          /wV0YS0=
        >
        E 0 90 37 60
        E 88 80 37 00
        <X 27 0
          /wVyZWwt
        >
        E 0 90 35 60
        E 260 80 35 00
        <X 56 0
          /wVsaQ==
        >
        E 0 90 38 60
        E 49 80 38 00
        <X 156 0
          /wVrYXUt
        >
        E 0 90 38 60
        E 261 80 38 00
        <X 38 0
          /wVyYS0=
        >
        E 0 90 34 60
        E 155 80 34 00
        <X 35 0
          /wV2ZWwt
        >
        E 0 90 36 60
        E 212 80 36 00
        <X 40 0
          /wVsaQ==
        >
        E 0 90 36 60
        E 87 80 36 00
        <X 87 0
          /wVtb3Mt
        >
        E 0 90 33 60
        E 215 80 33 00
        <X 95 0
          /wVrYS0=
        >
        E 0 90 33 60
        E 82 80 33 00
        <X 80 0
          /wV0ZWwt
        >
        E 0 90 36 4d
        E 233 80 36 00
        <X 33 0
          /wVsaQ==
        >
        E 0 90 3a 4d
        E 100 80 3a 00
        <X 104 0
          /wVTaXQt
        >
        E 0 90 3a 4d
        E 61 80 3a 00
        <X 202 0
          /wV0ZW4=
        >
        E 0 90 34 4d
        E 93 80 34 00
        <X 130 0
          /wVtdWwt
        >
        E 0 90 36 53
        E 186 80 36 00
        <X 20 0
          /wVsZQ==
        >
        E 0 90 37 5e
        E 85 80 37 00
        <X 131 0
          /wVrYW5z
        >
        E 0 90 3a 5f
        E 367 80 3a 00
        E 101 80 69 00
        E 857 90 69 60
        E 0 90 74 60
        <X 137 0
          /wVuYS0=
        >
        E 0 90 39 60
        E 136 80 39 00
        <X 41 0
          /wVraXQ=
        >
        E 0 90 3d 60
        E 121 80 3d 00
        <X 73 0
          /wVqYQ==
        >
        E 0 90 3d 60
        E 107 80 3d 00
        <X 56 0
          /wVtdXUt
        >
        E 0 90 3d 60
        E 265 80 3d 00
        <X 48 0
          /wVzaQ==
        >
        E 0 90 36 60
        E 178 80 36 00
        E 82 80 69 00
        E 0 80 74 00
        E 941 90 69 60
        <X 98 0
          /wVMYW50LQ==
        >
        E 0 90 35 66
        E 361 80 35 00
        <X 190 0
          /wV0dS0=
        >
        E 0 90 34 5a
        E 127 80 34 00
        <X 56 0
          /wVrdWst
        >
        E 0 90 35 4d
        E 150 80 35 00
        <X 178 0
          /wVrbw==
        >
        E 0 90 39 60
        E 84 80 39 00
        <X 87 0
          /wVvcy0=
        >
        E 0 90 36 53
        E 274 80 36 00
        <X 34 0
          /wVoby0=
        >
        E 0 90 36 53
        E 115 80 36 00
        <X 71 0
          /wVwdWst
        >
        E 0 90 35 49
        E 178 80 35 00
        <X 150 0
          /wVrbw==
        >
        E 0 90 37 65
        E 128 80 37 00
        <X 48 0
          /wVtZWkt
        >
        E 0 90 33 63
        E 231 80 33 00
        <X 70 0
          /wVrw6Q=
        >
        E 0 90 32 58
        E 142 80 32 00
        <X 28 0
          /wV1ay0=
        >
        E 0 90 32 58
        E 131 80 32 00
        <X 151 0
          /wVrbw==
        >
        E 0 90 37 5b
        E 105 80 37 00
        <X 78 0
          /wVOw6RpLQ==
        >
        E 0 90 33 65
        E 257 80 33 00
        <X 41 0
          /wVoaW4=
        >
        E 0 90 34 56
        E 108 80 34 00
        <X 97 0
          /wV0eXkt
        >
        E 0 90 35 62
        E 208 80 35 00
        <X 41 0
          /wVkeQ==
        >
        E 0 90 37 54
        E 89 80 37 00
        <X 86 0
          /wVlaQ==
        >
        E 0 90 3a 58
        E 357 80 3a 00
        E 104 80 69 00
        E 866 90 69 60
        E 0 90 74 60
        <X 101 0
          /wVOYS0=
        >
        E 0 90 3b 60
        E 146 80 3b 00
        <X 48 0
          /wVraXQ=
        >
        E 0 90 39 60
        E 121 80 39 00
        <X 56 0
          /wVqYQ==
        >
        E 0 90 39 60
        E 107 80 39 00
        <X 81 0
          /wVtdXUt
        >
        E 0 90 36 60
        E 265 80 36 00
        <X 48 0
          /wVzaQ==
        >
        E 0 90 36 60
        E 203 80 36 00
        E 90 80 69 00
        E 0 80 74 00
        E 1110 90 69 60
        <X 140 0
          /wVCZWwt
        >
        E 0 90 3a 60
        E 236 80 3a 00
        <X 82 0
          /wVsYQ==
        >
        E 0 90 3b 60
        E 99 80 3b 00
        <X 67 0
          /wVkb24t
        >
        E 0 90 3b 60
        E 175 80 3b 00
        <X 111 0
          /wVuYQ==
        >
        E 0 90 3a 60
        E 122 80 3a 00
        <X 68 0
          /wVtYW0t
        >
        E 0 90 3b 60
        E 180 80 3b 00
        <X 137 0
          /wVtYQ==
        >
        E 0 90 3b 60
        E 95 80 3b 00
        <X 86 0
          /wVtaS0=
        >
        E 0 90 3b 60
        E 263 80 3b 00
        <X 39 0
          /wVh
        >
        E 0 90 3b 60
        E 95 80 3b 00
        <X 82 0
          /wVhLQ==
        >
        E 0 90 3a 60
        E 241 80 3a 00
        <X 48 0
          /wVsaS0=
        >
        E 0 90 39 60
        E 123 80 39 00
        <X 59 0
          /wVtZW4t
        >
        E 0 90 3b 60
        E 142 80 3b 00
        <X 143 0
          /wV0aQ==
        >
        E 0 90 3d 60
        E 108 80 3d 00
        <X 63 0
          /wVjaS0=
        >
        E 0 90 3d 60
        E 351 80 3d 00
        <X 112 0
          /wVhbw==
        >
        E 0 90 3b 60
        E 210 80 3b 00
        E 44 80 69 00
        E 129 90 69 60
        <X 102 0
          /wVTdW8t
        >
        E 0 90 3c 60
        E 283 80 3c 00
        <X 62 0
          /wVtaS0=
        >
        E 0 90 3a 60
        E 131 80 3a 00
        <X 58 0
          /wVwb2kt
        >
        E 0 90 36 60
        E 272 80 36 00
        <X 55 0
          /wVrYQ==
        >
        E 0 90 39 60
        E 121 80 39 00
        <X 70 0
          /wVzaWkt
        >
        E 0 90 3a 60
        E 215 80 3a 00
        <X 45 0
          /wVoZW4=
        >
        E 0 90 37 60
        E 140 80 37 00
        <X 79 0
          /wVldC0=
        >
        E 0 90 39 60
        E 111 80 39 00
        <X 114 0
          /wV0w6Q=
        >
        E 0 90 3a 60
        E 171 80 3a 00
        <X 73 0
          /wVow7Yt
        >
        E 0 90 3a 60
        E 182 80 3a 00
        <X 35 0
          /wVsw7Yt
        >
        E 0 90 3a 60
        E 206 80 3a 00
        <X 103 0
          /wVreW4=
        >
        E 0 90 3a 60
        E 307 80 3a 00
        <X 79 0
          /wVrw7Yt
        >
        E 0 90 36 60
        E 207 80 36 00
        <X 40 0
          /wVsw7Yt
        >
        E 0 90 36 60
        E 165 80 36 00
        <X 110 0
          /wVreW4=
        >
        E 0 90 36 60
        E 230 80 36 00
        E 23 80 69 00
        E 181 90 69 60
        <X 18 0
          /wVWYWwt
        >
        E 0 90 33 64
        E 275 80 33 00
        <X 78 0
          /wVrby0=
        >
        E 0 90 33 64
        E 123 80 33 00
        <X 64 0
          /wV2aWkt
        >
        E 0 90 33 6a
        E 97 80 33 00
        <X 35 0
          /wUr
        >
        E 0 90 35 6a
        E 116 80 35 00
        <X 35 0
          /wVuaQ==
        >
        E 0 90 38 62
        E 100 80 38 00
        <X 97 0
          /wVwZWwt
        >
        E 0 90 35 65
        E 250 80 35 00
        <X 63 0
          /wV0aQ==
        >
        E 0 90 34 57
        E 86 80 34 00
        <X 75 0
          /wVraWluLQ==
        >
        E 0 90 36 63
        E 201 80 36 00
        <X 91 0
          /wVuaQ==
        >
        E 0 90 37 5a
        E 76 80 37 00
        <X 106 0
          /wVhcy0=
        >
        E 0 90 37 5a
        E 140 80 37 00
        <X 208 0
          /wVwaS0=
        >
        E 0 90 37 5a
        E 108 80 37 00
        <X 43 0
          /wVyaWkt
        >
        E 0 90 35 67
        E 209 80 35 00
        <X 58 0
          /wVuaQ==
        >
        E 0 90 38 62
        E 116 80 38 00
        <X 69 0
          /wVNaW4t
        >
        E 0 90 33 56
        E 117 80 33 00
        <X 153 0
          /wVuZQ==
        >
        E 0 90 33 56
        E 148 80 33 00
        <X 32 0
          /wVqw6TDpC0=
        >
        E 0 90 33 56
        E 240 80 33 00
        <X 48 0
          /wVueXQ=
        >
        E 0 90 37 57
        E 94 80 37 00
        <X 68 0
          /wVvbg==
        >
        E 0 90 3a 55
        E 273 80 3a 00
        E 34 80 69 00
        E 1057 90 69 60
        <X 45 0
          /wVuYS0=
        >
        E 0 90 3a 60
        E 196 80 3a 00
        <X 27 0
          /wVraXQ=
        >
        E 0 90 3a 60
        E 102 80 3a 00
        <X 41 0
          /wVqYQ==
        >
        E 0 90 3a 60
        E 107 80 3a 00
        <X 69 0
          /wVtdXUt
        >
        E 0 90 3a 60
        E 265 80 3a 00
        <X 41 0
          /wVzaQ==
        >
        E 0 90 3a 60
        E 180 80 3a 00
        <X 838 0
          /wVOYS0=
        >
        E 0 90 3a 60
        E 202 80 3a 00
        <X 32 0
          /wVraXQ=
        >
        E 0 90 3a 60
        E 115 80 3a 00
        <X 56 0
          /wVqYQ==
        >
        E 0 90 3a 60
        E 127 80 3a 00
        <X 61 0
          /wVtdXUt
        >
        E 0 90 35 60
        E 265 80 35 00
        <X 48 0
          /wVzaQ==
        >
        E 0 90 32 60
        E 203 80 32 00
        <X 838 0
          /wVOYS0=
        >
        E 0 90 35 60
        E 176 80 35 00
        <X 22 0
          /wVraXQ=
        >
        E 0 90 35 60
        E 121 80 35 00
        <X 69 0
          /wVqYQ==
        >
        E 0 90 35 60
        E 145 80 35 00
        <X 56 0
          /wVtdXUt
        >
        E 0 90 37 60
        E 265 80 37 00
        <X 48 0
          /wVzaQ==
        >
        E 0 90 31 60
        E 210 80 31 00
        E 100 80 69 00
        E 3657 b0 7b 00
        GUID {F1082209-E2A8-4526-8AA6-2FE8F2DEB335}
        IGNTEMPO 0 120.00000000 4 4
        SRCCOLOR 1146
        VELLANE 132 128 60
        COLORMAP "C:\Users\me\AppData\Roaming\REAPER\Data\color_maps\rockband_vox-other.png"
        TEXTSTRINGFILE "C:\Program Files\REAPER\Data\Text_Strings\Text Events List.txt"
        CFGEDITVIEW 156830.959516 85.941050 24 12 0 0 0
        CFGEDIT 1 1 0 1 1 1 1 1 1 0 1 0.06250000 -8 -8 1374 736 1 2 1 2 0.00000000 0 0 0 0 0.500000 1 0 1.000000 64
        KEYSNAP 0 0 "102034050607" 0 "Major"
        EVTFILTER 0 -1 -1 -1 -1 0 1 0 0 -1.00000000 -1.00000000
      >
    >
  >
  <TRACK '{AB3E8FDC-23A9-4945-BA6C-055C630028D0}'
    NAME "DRYVOX3"
    PEAKCOL 16576
    BEAT -1
    AUTOMODE 0
    VOLPAN 1.00000000000000 0.00000000000000 -1.00000000000000 -1.00000000000000 1.00000000000000
    MUTESOLO 0 0 0
    IPHASE 0
    ISBUS 0 0
    BUSCOMP 0 0
    SHOWINMIX 1 0.666700 0.500000 1 0.500000 -1 -1 -1
    FREEMODE 0
    SEL 0
    REC 0 0 0 0 0 0 0
    TRACKHEIGHT 189 0
    INQ 0 0 0 0.5000000000 100 0 0 100
    NCHAN 2
    FX 1
    TRACKID {AB3E8FDC-23A9-4945-BA6C-055C630028D0}
    PERF 0
    MIDIOUT -1
    MAINSEND 1 0
    <FXCHAIN
      SHOW 0
      LASTSEL 0
      DOCKED 0
      BYPASS 0 0
      <VST "VST: ReaGate (Cockos)" "reagate.dll" 0 ""
        dGdlcu9e7f4EAAAAAQAAAAAAAAACAAAAAAAAAAQAAAAAAAAACAAAAA==
        AAAAAAIAAAABAAAAAAAAAAIAAAAAAAAAVAAAAAAAAAAAABAA776t3g==
        DfCt3pzRBzOmm8Q7CtejPAAAAAAAAAAAAACAPwAAAAAAAAAAAAAAAA==
        nNEHMx5Ucz+c0QczAACAPwAAAAAAAAAAAAAAACwWCz8AAAAAAAAAAA==
        AAAQAAAA
      >
      FLOATPOS 859 184 511 385
      FXID {BF545B5B-7DD0-4B4C-AC52-F095A552DA08}
      WAK 0
    >
    <ITEM
      POSITION 31.56409944535699
      SNAPOFFS 0.00000000000000
      LENGTH 26.26548173622383
      LOOP 0
      ALLTAKES 0
      SEL 0
      FADEIN 1 0.000000 0.000000 1 0
      FADEOUT 1 0.000000 0.000000 1 0
      MUTE 0
      IGUID {E30CCDBD-57B5-474F-80DD-1B85B19526FB}
      IID 170
      NAME "vocals.wav"
      VOLPAN 1.000000 0.000000 1.000000 -1.000000
      SOFFS 31.56409944531200
      PLAYRATE 1.00000000000000 1 0.00000000000000 -1
      CHANMODE 0
      GUID {99E0877E-8422-4544-8E6A-C7F609BB8776}
      <SOURCE WAVE
        FILE "separated\htdemucs\01-SONG AUDIO-consolidated-250409_1905\vocals.wav"
      >
    >
    <ITEM
      POSITION 70.36597658437677
      SNAPOFFS 0.00000000000000
      LENGTH 10.81840690392460
      LOOP 0
      ALLTAKES 0
      SEL 0
      FADEIN 1 0.000000 0.000000 1 0
      FADEOUT 1 0.000000 0.000000 1 0
      MUTE 0
      IGUID {516BC9E1-A422-4E75-B3A4-C59479031708}
      IID 170
      NAME "vocals.wav"
      VOLPAN 1.000000 0.000000 1.000000 -1.000000
      SOFFS 70.36597658434934
      PLAYRATE 1.00000000000000 1 0.00000000000000 -1
      CHANMODE 0
      GUID {0986DAB3-9D9C-425C-802F-518157F4079D}
      <SOURCE WAVE
        FILE "separated\htdemucs\01-SONG AUDIO-consolidated-250409_1905\vocals.wav"
      >
    >
    <ITEM
      POSITION 86.66831412375905
      SNAPOFFS 0.00000000000000
      LENGTH 25.92700499396196
      LOOP 0
      ALLTAKES 0
      SEL 0
      FADEIN 1 0.000000 0.000000 1 0
      FADEOUT 1 0.000000 0.000000 1 0
      MUTE 0
      IGUID {4217954A-809C-4ACC-8535-833967F23086}
      IID 170
      NAME "vocals.wav"
      VOLPAN 1.000000 0.000000 1.000000 -1.000000
      SOFFS 86.66831412380708
      PLAYRATE 1.00000000000000 1 0.00000000000000 -1
      CHANMODE 0
      GUID {D0F83874-474E-49CC-A335-086B21E04F65}
      <SOURCE WAVE
        FILE "separated\htdemucs\01-SONG AUDIO-consolidated-250409_1905\vocals.wav"
      >
    >
    <ITEM
      POSITION 143.57076293579303
      SNAPOFFS 0.00000000000000
      LENGTH 49.61925973991083
      LOOP 0
      ALLTAKES 0
      SEL 0
      FADEIN 1 0.000000 0.000000 1 0
      FADEOUT 1 0.000000 0.000000 1 0
      MUTE 0
      IGUID {2D01D5D6-0B0E-4A48-8A08-D689702A3DC1}
      IID 170
      NAME "vocals.wav"
      VOLPAN 1.000000 0.000000 1.000000 -1.000000
      SOFFS 143.57076293582614
      PLAYRATE 1.00000000000000 1 0.00000000000000 -1
      CHANMODE 0
      GUID {1522745F-E865-41C9-A877-B29A4CE2E620}
      <SOURCE WAVE
        FILE "separated\htdemucs\01-SONG AUDIO-consolidated-250409_1905\vocals.wav"
      >
    >
  >
  <TRACK '{14F64FB7-FE44-4E53-9F58-44F4178BCEF9}'
    NAME "PART KEYS"
    PEAKCOL 16842496
    BEAT -1
    AUTOMODE 0
    VOLPAN 1.00000000000000 0.00000000000000 -1.00000000000000 -1.00000000000000 1.00000000000000
    MUTESOLO 1 0 0
    IPHASE 0
    ISBUS 1 1
    BUSCOMP 0 0
    SHOWINMIX 1 0.666700 0.500000 1 0.500000 -1 -1 -1
    FREEMODE 0
    SEL 0
    REC 0 0 0 0 0 0 0
    TRACKHEIGHT 0 0
    INQ 0 0 0 0.5000000000 100 0 0 100
    NCHAN 2
    FX 1
    TRACKID {14F64FB7-FE44-4E53-9F58-44F4178BCEF9}
    PERF 0
    MIDIOUT -1
    <MIDINOTENAMES
      0 124 "BRE"
      0 123 "BRE"
      0 122 "BRE"
      0 121 "BRE"
      0 120 "BRE (use all 5)"
      0 116 "OVERDRIVE"
      0 119 "----"
      0 115 "----"
      0 103 "Solo Marker"
      0 95 "----"
      0 96 "EXPERT Green"
      0 97 "EXPERT Red"
      0 98 "EXPERT Yellow"
      0 99 "EXPERT Blue"
      0 100 "EXPERT Orange"
      0 102 "Force HoPo off"
      0 83 "----"
      0 84 "HARD Green"
      0 85 "HARD Red"
      0 86 "HARD Yellow"
      0 87 "HARD Blue"
      0 88 "HARD Orange"
      0 72 "MEDIUM Green"
      0 73 "MEDIUM Red"
      0 74 "MEDIUM Yellow"
      0 75 "MEDIUM Blue"
      0 76 "MEDIUM Orange"
      0 71 "----"
      0 64 "EASY Orange"
      0 63 "EASY Blue"
      0 62 "EASY Yellow"
      0 61 "EASY Red"
      0 60 "EASY Green"
      0 127 "Trill Marker"
      0 126 "----"
      0 101 "Force HoPo on"
    >
    MAINSEND 1 0
    <FXCHAIN
      WNDRECT 0 40 878 585
      SHOW 0
      LASTSEL 0
      DOCKED 0
      BYPASS 0 0
      <VST "VSTi: RBN Preview (RBN)" "rbprev_vst64_beta.dll" 0 ""
        dnBicu5e7f4AAAAAAgAAAAEAAAAAAAAAAgAAAAAAAAAEAAAAAQAAAA==
        AAAAAAMAqgAAAAAAAAA=
      >
      FLOATPOS 0 0 0 0
      FXID {EE0C80EE-5E5F-4EA2-B367-78AAAB3793F5}
      WAK 0
    >
    <ITEM
      POSITION 0.00000000000000
      SNAPOFFS 0.00000000000000
      LENGTH 193.64941555399921
      LOOP 0
      ALLTAKES 0
      SEL 0
      FADEIN 1 0.000000 0.000000 1 0
      FADEOUT 1 0.000000 0.000000 1 0
      MUTE 0
      IGUID {52D9F6AC-16AD-4CE9-95E4-6AD6396BB4E2}
      IID 14
      NAME "PART KEYS"
      VOLPAN 1.000000 0.000000 1.000000 -1.000000
      SOFFS 0.00000000000000 0.00000000000000
      PLAYRATE 1.00000000000000 1 0.00000000000000 -65536
      CHANMODE 0
      GUID {78E1CCBD-C30B-4DD8-81CD-2AEB0D2D38C8}
      <SOURCE MIDI
        HASDATA 1 480 QN
        POOLEDEVTS {C08A2F72-D2F0-49FD-BDEC-85B1026F54E9}
        <X 0 0
          /wNQQVJUIEtFWVM=
        >
        <X 3840 0
          /wFbcGxheV0=
        >
        E 0 90 40 7f
        E 0 90 4c 7f
        E 0 90 58 7f
        E 60 80 40 00
        E 0 80 4c 00
        E 0 80 58 00
        E 30 90 3f 7f
        E 0 90 4b 7f
        E 0 90 57 7f
        E 60 80 3f 00
        E 0 80 4b 00
        E 0 80 57 00
        E 30 90 3e 7f
        E 0 90 4a 7f
        E 0 90 56 7f
        E 60 80 3e 00
        E 0 80 4a 00
        E 0 80 56 00
        E 30 90 3d 7f
        E 0 90 49 7f
        E 0 90 55 7f
        E 60 80 3d 00
        E 0 80 49 00
        E 0 80 55 00
        E 30 90 3c 7f
        E 0 90 48 7f
        E 0 90 54 7f
        E 60 80 3c 00
        E 0 80 48 00
        E 0 80 54 00
        E 178601 b0 7b 00
        GUID {F537F270-CEBA-461E-8612-DC28913708FC}
        IGNTEMPO 0 120.00000000 4 4
        SRCCOLOR 1147
        VELLANE 132 128 60
        COLORMAP "C:\Users\me\AppData\Roaming\REAPER\Data\color_maps\rockband_guitarbass.png"
        TEXTSTRINGFILE "C:\Program Files\REAPER\Data\Text_Strings\Text Events List.txt"
        CFGEDITVIEW -4299.275963 82.395269 19 12 0 0 0
        CFGEDIT 1 1 0 0 0 1 1 1 1 1 1 0.12500000 -8 -8 1370 736 1 0 1 2 0.00000000 0 0 0 0 0.500000 1 0 1.000000 64
        KEYSNAP 0 0 "102034050607" 0 "Major"
        EVTFILTER 0 -1 -1 -1 -1 0 1 0 0 -1.00000000 -1.00000000
      >
    >
  >
  <TRACK '{D39F8BD7-8730-4182-94EC-51AF9F9ACC90}'
    NAME "PART REAL_KEYS_X"
    PEAKCOL 25231232
    BEAT -1
    AUTOMODE 0
    VOLPAN 1.00000000000000 0.00000000000000 -1.00000000000000 -1.00000000000000 1.00000000000000
    MUTESOLO 1 0 0
    IPHASE 0
    ISBUS 0 0
    BUSCOMP 1 0
    SHOWINMIX 1 0.666700 0.500000 1 0.500000 -1 -1 -1
    FREEMODE 0
    SEL 0
    REC 0 0 0 0 0 0 0
    TRACKHEIGHT 0 0
    INQ 0 0 0 0.5000000000 100 0 0 100
    NCHAN 2
    FX 1
    TRACKID {D39F8BD7-8730-4182-94EC-51AF9F9ACC90}
    PERF 0
    MIDIOUT -1
    <MIDINOTENAMES
      0 0 "C2-E3 Range"
      0 5 "F2-A3 Range"
      0 9 "A2-C4 Range"
      0 48 "C2 (Lowest Note)"
      0 72 "C4 (Highest Note)"
      0 115 "Solo Marker"
      0 126 "Glissando Marker"
      0 116 "Overdrive Marker"
      0 127 "Trill Marker"
      0 125 "----"
      0 114 "----"
      0 47 "----"
      0 49 "C#2"
      0 50 "D2"
      0 51 "Eb2"
      0 52 "E2"
      0 53 "F2"
      0 54 "F#2"
      0 55 "G2"
      0 56 "G#2"
      0 57 "A2"
      0 58 "Bb2"
      0 59 "B2"
      0 60 "C3"
      0 61 "C#3"
      0 62 "D3"
      0 63 "Eb3"
      0 64 "E3"
      0 65 "F3"
      0 66 "F#3"
      0 67 "G3"
      0 68 "G#3"
      0 69 "A3"
      0 70 "Bb3"
      0 71 "B3"
      0 2 "D2-F3 Range"
      0 4 "E2-G3 Range"
      0 7 "G2-B3 Range"
    >
    MAINSEND 1 0
    <FXCHAIN
      WNDRECT 0 40 655 493
      SHOW 0
      LASTSEL 1
      DOCKED 0
      BYPASS 0 0
      <JS "IX/MIDI_Tool II" ""
        0.000000 85.000000 127.000000 0.000000 0.000000 0.000000 100.000000 0.000000 0.000000 127.000000 0.000000 0.000000 1.000000 0.000000 0.000000 - - - - - - - - - - - - - - - - - - - - - - - - - - - - - - - - - - - - - - - - - - - - - - - - - 
      >
      FLOATPOS 0 0 0 0
      FXID {A891DAA7-5D8A-4720-AA8F-E43D2ABA2AE5}
      WAK 0
      BYPASS 0 0
      <VST "VSTi: ReaSynth (Cockos)" "reasynth.dll" 0 ""
        eXNlcu9e7f4AAAAAAgAAAAEAAAAAAAAAAgAAAAAAAAA4AAAAAAAAAA==
        AAAAAO++rd4N8K3eppvEOxe30TqcxKA+c2jRPgAAAADMm4A+6WeIPQ==
        AAAAAAAAAD8AAIA/6SaxPgAAAD8AAAAAAAA=
      >
      FLOATPOS 0 0 0 0
      FXID {A0CE5851-0C70-49E2-AD61-BC7B1C50A030}
      WAK 0
    >
    <ITEM
      POSITION 0.00000000000000
      SNAPOFFS 0.00000000000000
      LENGTH 193.64941555399921
      LOOP 0
      ALLTAKES 0
      SEL 0
      FADEIN 1 0.000000 0.000000 1 0
      FADEOUT 1 0.000000 0.000000 1 0
      MUTE 0
      IGUID {974100C2-06C4-4CB5-BD67-2F1BC71A1259}
      IID 15
      NAME "PART REAL_KEYS_X"
      VOLPAN 1.000000 0.000000 1.000000 -1.000000
      SOFFS 0.00000000000000 0.00000000000000
      PLAYRATE 1.00000000000000 1 0.00000000000000 -65536
      CHANMODE 0
      GUID {08703F3F-9741-46EB-9ED4-B09B2390F876}
      <SOURCE MIDI
        HASDATA 1 480 QN
        POOLEDEVTS {EBFCEBEC-4454-4552-B29E-8895575198F0}
        <X 0 0
          /wNQQVJUIFJFQUxfS0VZU19Y
        >
        <X 3840 0
          /wFbcGxheV0=
        >
        E 179021 b0 7b 00
        GUID {0E0CBFB7-4AC8-4E67-A764-85891754BB41}
        IGNTEMPO 0 120.00000000 4 4
        SRCCOLOR 1148
        VELLANE 132 128 60
        COLORMAP "C:\Program Files\REAPER\Data\color_maps\rockband_guitarbass.png"
        TEXTSTRINGFILE "C:\Program Files\REAPER\Data\Text_Strings\Text Events List.txt"
        CFGEDITVIEW -4299.275963 82.395269 48 12 0 0 0
        CFGEDIT 1 1 0 1 1 1 1 1 1 1 1 0.12500000 -8 -8 1370 736 1 0 1 2 0.00000000 0 0 0 0 0.500000 1 0 1.000000 64
        KEYSNAP 0 0 "102034050607" 0 "Major"
        EVTFILTER 0 -1 -1 -1 -1 0 1 0 0 -1.00000000 -1.00000000
      >
    >
  >
  <TRACK '{117931B6-9EA5-432A-AEED-ACF4C8876354}'
    NAME "PART REAL _KEYS_H"
    PEAKCOL 25231232
    BEAT -1
    AUTOMODE 0
    VOLPAN 1.00000843600341 0.00000000000000 -1.00000000000000 -1.00000000000000 1.00000000000000
    MUTESOLO 1 0 0
    IPHASE 0
    ISBUS 0 0
    BUSCOMP 0 0
    SHOWINMIX 1 0.666700 0.500000 1 0.500000 -1 -1 -1
    FREEMODE 0
    SEL 0
    REC 0 0 0 0 0 0 0
    TRACKHEIGHT 0 0
    INQ 0 0 0 0.5000000000 100 0 0 100
    NCHAN 2
    FX 1
    TRACKID {117931B6-9EA5-432A-AEED-ACF4C8876354}
    PERF 0
    MIDIOUT -1
    <MIDINOTENAMES
      0 0 "C2-E3 Range"
      0 5 "F2-A3 Range"
      0 9 "A2-C4 Range"
      0 48 "C2 (Lowest Note)"
      0 72 "C4 (Highest Note)"
      0 115 "Solo Marker"
      0 126 "Glissando Marker"
      0 127 "Trill Marker"
      0 125 "----"
      0 116 "Overdrive Marker"
      0 114 "----"
      0 71 "B3"
      0 70 "Bb3"
      0 69 "A3"
      0 68 "G#3"
      0 67 "G3"
      0 66 "F#3"
      0 65 "F3"
      0 64 "E3"
      0 63 "Eb3"
      0 62 "D3"
      0 61 "C#3"
      0 60 "C3"
      0 59 "B2"
      0 58 "Bb2"
      0 57 "A2"
      0 56 "G#2"
      0 55 "G2"
      0 54 "F#2"
      0 53 "F2"
      0 52 "E2"
      0 51 "Eb2"
      0 50 "D2"
      0 49 "C#2"
      0 47 "----"
      0 7 "G2-B3 Range"
      0 4 "E2-G3 Range"
      0 2 "D2-F3 Range"
    >
    MAINSEND 1 0
    <FXCHAIN
      SHOW 0
      LASTSEL 0
      DOCKED 0
      BYPASS 0 0
      <JS "IX/MIDI_Tool II" ""
        0.000000 85.000000 127.000000 0.000000 0.000000 0.000000 100.000000 0.000000 0.000000 127.000000 0.000000 0.000000 1.000000 0.000000 0.000000 - - - - - - - - - - - - - - - - - - - - - - - - - - - - - - - - - - - - - - - - - - - - - - - - - 
      >
      FLOATPOS 0 0 0 0
      FXID {5BF1E178-D070-4445-A488-4CE4E31F6508}
      WAK 0
      BYPASS 0 0
      <VST "VSTi: ReaSynth (Cockos)" "reasynth.dll" 0 ""
        eXNlcu9e7f4AAAAAAgAAAAEAAAAAAAAAAgAAAAAAAAA4AAAAAAAAAA==
        AAAAAO++rd4N8K3eppvEOxe30TqcxKA+c2jRPgAAAADMm4A+6WeIPQ==
        AAAAAAAAAD8AAIA/6SaxPgAAAD8AAAAAAAA=
      >
      FLOATPOS 0 0 0 0
      FXID {C48567E0-8372-4900-9933-4B040EA2A253}
      WAK 0
    >
    <ITEM
      POSITION 0.00000000000000
      SNAPOFFS 0.00000000000000
      LENGTH 193.64941555399921
      LOOP 0
      ALLTAKES 0
      SEL 0
      FADEIN 1 0.000000 0.000000 1 0
      FADEOUT 1 0.000000 0.000000 1 0
      MUTE 0
      IGUID {DA514BF3-AF34-46C0-BD23-58406C871A44}
      IID 16
      NAME "PART REAL _KEYS_H"
      VOLPAN 1.000000 0.000000 1.000000 -1.000000
      SOFFS 0.00000000000000 0.00000000000000
      PLAYRATE 1.00000000000000 1 0.00000000000000 -65536
      CHANMODE 0
      GUID {8E0AC36B-D538-4BB8-A507-FFF40527D1BA}
      <SOURCE MIDI
        HASDATA 1 480 QN
        POOLEDEVTS {4E122A28-06BC-40A7-801C-9417D88705CD}
        <X 0 0
          /wNQQVJUIFJFQUxfS0VZU19I
        >
        E 0 90 09 60
        E 480 80 09 00
        E 3360 90 39 60
        E 360 80 39 00
        E 178661 b0 7b 00
        GUID {53F487B1-1F2F-4D54-9DAE-BC2E7B032E3B}
        IGNTEMPO 0 120.00000000 4 4
        SRCCOLOR 1149
        VELLANE 132 128 60
        COLORMAP "C:\Program Files\REAPER\Data\color_maps\rockband_guitarbass.png"
        TEXTSTRINGFILE "C:\Program Files\REAPER\Data\Text_Strings\Text Events List.txt"
        CFGEDITVIEW -4299.275963 82.395269 5 14 0 0 0
        CFGEDIT 1 1 0 1 1 1 1 1 1 1 1 0.12500000 -8 -8 1374 736 1 2 1 2 0.00000000 0 0 0 0 0.500000 1 0 1.000000 64
        KEYSNAP 0 0 "102034050607" 0 "Major"
        EVTFILTER 0 -1 -1 -1 -1 0 1 0 0 -1.00000000 -1.00000000
      >
    >
  >
  <TRACK '{3B6F726E-1CAB-4A00-9B01-2E1CC375B13E}'
    NAME "PART REAL_KEYS_M"
    PEAKCOL 25231232
    BEAT -1
    AUTOMODE 0
    VOLPAN 1.00000000000000 0.00000000000000 -1.00000000000000 -1.00000000000000 1.00000000000000
    MUTESOLO 1 0 0
    IPHASE 0
    ISBUS 0 0
    BUSCOMP 0 0
    SHOWINMIX 1 0.666700 0.500000 1 0.500000 -1 -1 -1
    FREEMODE 0
    SEL 0
    REC 0 0 0 0 0 0 0
    TRACKHEIGHT 0 0
    INQ 0 0 0 0.5000000000 100 0 0 100
    NCHAN 2
    FX 1
    TRACKID {3B6F726E-1CAB-4A00-9B01-2E1CC375B13E}
    PERF 0
    MIDIOUT -1
    <MIDINOTENAMES
      0 0 "C2-E3 Range"
      0 5 "F2-A3 Range"
      0 9 "A2-C4 Range"
      0 48 "C2 (Lowest Note)"
      0 72 "C4 (Highest Note)"
      0 115 "Solo Marker"
      0 126 "Glissando Marker"
      0 127 "Trill Marker"
      0 125 "----"
      0 116 "Overdrive Marker"
      0 114 "----"
      0 71 "B3"
      0 70 "Bb3"
      0 69 "A3"
      0 68 "G#3"
      0 67 "G3"
      0 66 "F#3"
      0 65 "F3"
      0 64 "E3"
      0 63 "Eb3"
      0 62 "D3"
      0 61 "C#3"
      0 60 "C3"
      0 59 "B2"
      0 58 "Bb2"
      0 57 "A2"
      0 56 "G#2"
      0 55 "G2"
      0 54 "F#2"
      0 53 "F2"
      0 52 "E2"
      0 51 "Eb2"
      0 50 "D2"
      0 49 "C#2"
      0 47 "----"
      0 7 "G2-B3 Range"
      0 4 "E2-G3 Range"
      0 2 "D2-F3 Range"
    >
    MAINSEND 1 0
    <FXCHAIN
      SHOW 0
      LASTSEL 0
      DOCKED 0
      BYPASS 0 0
      <JS "IX/MIDI_Tool II" ""
        0.000000 85.000000 127.000000 0.000000 0.000000 0.000000 100.000000 0.000000 0.000000 127.000000 0.000000 0.000000 1.000000 0.000000 0.000000 - - - - - - - - - - - - - - - - - - - - - - - - - - - - - - - - - - - - - - - - - - - - - - - - - 
      >
      FLOATPOS 0 0 0 0
      FXID {096BA8B0-BFAB-4802-A0D3-DEA88A16B5B2}
      WAK 0
      BYPASS 0 0
      <VST "VSTi: ReaSynth (Cockos)" "reasynth.dll" 0 ""
        eXNlcu9e7f4AAAAAAgAAAAEAAAAAAAAAAgAAAAAAAAA4AAAAAAAAAA==
        AAAAAO++rd4N8K3eppvEOxe30TqcxKA+c2jRPgAAAADMm4A+6WeIPQ==
        AAAAAAAAAD8AAIA/6SaxPgAAAD8AAAAAAAA=
      >
      FLOATPOS 0 0 0 0
      FXID {A5115AF9-13EF-41D8-80FF-CB81A74D6CD4}
      WAK 0
    >
    <ITEM
      POSITION 0.00000000000000
      SNAPOFFS 0.00000000000000
      LENGTH 193.64941555399921
      LOOP 0
      ALLTAKES 0
      SEL 0
      FADEIN 1 0.000000 0.000000 1 0
      FADEOUT 1 0.000000 0.000000 1 0
      MUTE 0
      IGUID {6F5DF5D5-958D-4566-AA6E-AFD27D997F3F}
      IID 17
      NAME "PART REAL_KEYS_M"
      VOLPAN 1.000000 0.000000 1.000000 -1.000000
      SOFFS 0.00000000000000 0.00000000000000
      PLAYRATE 1.00000000000000 1 0.00000000000000 -65536
      CHANMODE 0
      GUID {14BC6779-E32B-455D-A61C-C2E68D8FE08C}
      <SOURCE MIDI
        HASDATA 1 480 QN
        POOLEDEVTS {5E2D7E43-B59B-42ED-844D-F494BE8A8748}
        <X 0 0
          /wNQQVJUIFJFQUxfS0VZU19N
        >
        e 0 90 09 60
        e 480 80 09 00
        e 3360 90 39 60
        e 360 80 39 00
        E 178661 b0 7b 00
        GUID {806139BE-556B-4882-A297-06705078FD7A}
        IGNTEMPO 0 120.00000000 4 4
        SRCCOLOR 1150
        VELLANE 132 128 60
        COLORMAP "C:\Program Files\REAPER\Data\color_maps\rockband_guitarbass.png"
        TEXTSTRINGFILE "C:\Program Files\REAPER\Data\Text_Strings\Text Events List.txt"
        CFGEDITVIEW -4299.275963 82.395269 0 17 0 0 0
        CFGEDIT 1 1 0 1 1 1 1 1 1 1 1 0.12500000 -8 -8 1374 736 1 2 1 2 0.00000000 0 0 0 0 0.500000 1 0 1.000000 64
        KEYSNAP 0 0 "102034050607" 0 "Major"
        EVTFILTER 0 -1 -1 -1 -1 0 1 0 0 -1.00000000 -1.00000000
      >
    >
  >
  <TRACK '{49B8D0E0-0069-415C-8FC3-AC29B0E2C3CF}'
    NAME "PART REAL_KEYS_E"
    PEAKCOL 25231232
    BEAT -1
    AUTOMODE 0
    VOLPAN 1.00000000000000 0.00000000000000 -1.00000000000000 -1.00000000000000 1.00000000000000
    MUTESOLO 1 0 0
    IPHASE 0
    ISBUS 0 0
    BUSCOMP 0 0
    SHOWINMIX 1 0.666700 0.500000 1 0.500000 -1 -1 -1
    FREEMODE 0
    SEL 0
    REC 0 0 0 0 0 0 0
    TRACKHEIGHT 0 0
    INQ 0 0 0 0.5000000000 100 0 0 100
    NCHAN 2
    FX 1
    TRACKID {49B8D0E0-0069-415C-8FC3-AC29B0E2C3CF}
    PERF 0
    MIDIOUT -1
    <MIDINOTENAMES
      0 0 "C2-E3 Range"
      0 5 "F2-A3 Range"
      0 9 "A2-C4 Range"
      0 48 "C2 (Lowest Note)"
      0 72 "C4 (Highest Note)"
      0 115 "Solo Marker"
      0 126 "Glissando Marker"
      0 127 "Trill Marker"
      0 125 "----"
      0 116 "Overdrive Marker"
      0 114 "----"
      0 71 "B3"
      0 70 "Bb3"
      0 69 "A3"
      0 68 "G#3"
      0 67 "G3"
      0 66 "F#3"
      0 65 "F3"
      0 64 "E3"
      0 63 "Eb3"
      0 62 "D3"
      0 61 "C#3"
      0 60 "C3"
      0 59 "B2"
      0 58 "Bb2"
      0 57 "A2"
      0 56 "G#2"
      0 55 "G2"
      0 54 "F#2"
      0 53 "F2"
      0 52 "E2"
      0 51 "Eb2"
      0 50 "D2"
      0 49 "C#2"
      0 47 "----"
      0 7 "G2-B3 Range"
      0 4 "E2-G3 Range"
      0 2 "D2-F3 Range"
    >
    MAINSEND 1 0
    <FXCHAIN
      SHOW 0
      LASTSEL 0
      DOCKED 0
      BYPASS 0 0
      <JS "IX/MIDI_Tool II" ""
        0.000000 85.000000 127.000000 0.000000 0.000000 0.000000 100.000000 0.000000 0.000000 127.000000 0.000000 0.000000 1.000000 0.000000 0.000000 - - - - - - - - - - - - - - - - - - - - - - - - - - - - - - - - - - - - - - - - - - - - - - - - - 
      >
      FLOATPOS 0 0 0 0
      FXID {71EF04AA-9A38-4C4E-8E04-9FB37BDA6361}
      WAK 0
      BYPASS 0 0
      <VST "VSTi: ReaSynth (Cockos)" "reasynth.dll" 0 ""
        eXNlcu9e7f4AAAAAAgAAAAEAAAAAAAAAAgAAAAAAAAA4AAAAAAAAAA==
        AAAAAO++rd4N8K3eppvEOxe30TqcxKA+c2jRPgAAAADMm4A+6WeIPQ==
        AAAAAAAAAD8AAIA/6SaxPgAAAD8AAAAAAAA=
      >
      FLOATPOS 0 0 0 0
      FXID {6C388847-2A2F-4264-AA7A-4C4ACA9A9672}
      WAK 0
    >
    <ITEM
      POSITION 0.00000000000000
      SNAPOFFS 0.00000000000000
      LENGTH 193.64941555399921
      LOOP 0
      ALLTAKES 0
      SEL 0
      FADEIN 1 0.000000 0.000000 1 0
      FADEOUT 1 0.000000 0.000000 1 0
      MUTE 0
      IGUID {656317AD-B690-4307-9096-C4F4536C131B}
      IID 18
      NAME "PART REAL_KEYS_E"
      VOLPAN 1.000000 0.000000 1.000000 -1.000000
      SOFFS 0.00000000000000 0.00000000000000
      PLAYRATE 1.00000000000000 1 0.00000000000000 -65536
      CHANMODE 0
      GUID {43BDFFBF-75D6-4727-BD3F-08B25C56980C}
      <SOURCE MIDI
        HASDATA 1 480 QN
        POOLEDEVTS {87D6B663-75A0-4332-BBB4-9C82534EA020}
        <X 0 0
          /wNQQVJUIFJFQUxfS0VZU19F
        >
        E 0 90 09 60
        E 480 80 09 00
        E 182381 b0 7b 00
        GUID {F9363449-15E8-4EF0-8BC0-ABEB4CDC1D98}
        IGNTEMPO 0 120.00000000 4 4
        SRCCOLOR 1151
        VELLANE 132 128 60
        COLORMAP "C:\Program Files\REAPER\Data\color_maps\rockband_guitarbass.png"
        TEXTSTRINGFILE "C:\Program Files\REAPER\Data\Text_Strings\Text Events List.txt"
        CFGEDITVIEW 1257.930012 0.103438 51 12 0 0 0
        CFGEDIT 1 1 0 0 1 1 1 1 1 1 1 0.25000000 0 0 683 728 1 0 0 2 0.12500000 0 0 0 0 0.500000 0 0 1.000000 64
        KEYSNAP 0 0 "102034050607" 0 "Major"
        EVTFILTER 0 -1 -1 -1 -1 0 1 0 0 -1.00000000 -1.00000000
      >
    >
  >
  <TRACK '{80604035-2BD9-43BB-A255-4E5F9E756779}'
    NAME "PART KEYS_ANIM_RH"
    PEAKCOL 16842624
    BEAT -1
    AUTOMODE 0
    VOLPAN 1.00000000000000 0.00000000000000 -1.00000000000000 -1.00000000000000 1.00000000000000
    MUTESOLO 1 0 0
    IPHASE 0
    ISBUS 0 0
    BUSCOMP 0 0
    SHOWINMIX 1 0.666700 0.500000 1 0.500000 -1 -1 -1
    FREEMODE 0
    SEL 0
    REC 0 0 0 0 0 0 0
    TRACKHEIGHT 0 0
    INQ 0 0 0 0.5000000000 100 0 0 100
    NCHAN 2
    FX 1
    TRACKID {80604035-2BD9-43BB-A255-4E5F9E756779}
    PERF 0
    MIDIOUT -1
    <MIDINOTENAMES
      0 48 "C2 (Lowest Note)"
      0 72 "C4 (Highest Note)"
      0 127 "Trill Marker"
      0 126 "Glissando Marker"
      0 125 "----"
      0 116 "Overdrive Marker"
      0 115 "Solo Marker"
      0 114 "----"
      0 71 "B3"
      0 70 "Bb3"
      0 69 "A3"
      0 68 "G#3"
      0 67 "G3"
      0 66 "F#3"
      0 65 "F3"
      0 64 "E3"
      0 63 "Eb3"
      0 62 "D3"
      0 61 "C#3"
      0 60 "C3"
      0 59 "B2"
      0 58 "Bb2"
      0 57 "A2"
      0 56 "G#2"
      0 55 "G2"
      0 54 "F#2"
      0 53 "F2"
      0 52 "E2"
      0 51 "Eb2"
      0 50 "D2"
      0 49 "C#2"
      0 47 "----"
      0 9 "A2-C4 Range"
      0 5 "F2-A3 Range"
      0 0 "C2-E3 Range"
      0 7 "G2-B3 Range"
      0 4 "E2-G3 Range"
      0 2 "D2-F3 Range"
    >
    MAINSEND 1 0
    <FXCHAIN
      SHOW 0
      LASTSEL 0
      DOCKED 0
    >
    <ITEM
      POSITION 0.00000000000000
      SNAPOFFS 0.00000000000000
      LENGTH 193.64941555399921
      LOOP 0
      ALLTAKES 0
      SEL 0
      FADEIN 1 0.000000 0.000000 1 0
      FADEOUT 1 0.000000 0.000000 1 0
      MUTE 0
      IGUID {6A43A4E9-6390-4FBA-9F07-B2C821A1720C}
      IID 19
      NAME "PART KEYS_ANIM_RH"
      VOLPAN 1.000000 0.000000 1.000000 -1.000000
      SOFFS 0.00000000000000 0.00000000000000
      PLAYRATE 1.00000000000000 1 0.00000000000000 -65536
      CHANMODE 0
      GUID {FA5AE238-E1D7-41F5-A663-4C49E4376041}
      <SOURCE MIDI
        HASDATA 1 480 QN
        POOLEDEVTS {944BCB69-695E-4DBC-B554-78D19EB31581}
        <X 0 0
          /wNQQVJUIEtFWVNfQU5JTV9SSA==
        >
        E 182861 b0 7b 00
        GUID {268DE88D-9169-44F5-97A1-ABDA1E2CF031}
        IGNTEMPO 0 120.00000000 4 4
        SRCCOLOR 1152
        VELLANE 132 128 60
        COLORMAP "C:\Program Files\REAPER\Data\color_maps\rockband_guitarbass.png"
        TEXTSTRINGFILE "C:\Program Files\REAPER\Data\Text_Strings\Text Events List.txt"
        CFGEDITVIEW 2612.554938 0.179136 51 12 0 0 0
        CFGEDIT 1 1 0 0 1 1 1 1 1 1 1 0.25000000 0 0 683 728 1 0 0 2 0.00000000 0 0 0 0 0.500000 0 0 1.000000 64
        KEYSNAP 0 0 "102034050607" 0 "Major"
        EVTFILTER 0 -1 -1 -1 -1 0 1 0 0 -1.00000000 -1.00000000
      >
    >
  >
  <TRACK '{F014911F-41F0-491C-9A25-C3D2A462D8D7}'
    NAME "PART KEYS_ANIM_LH"
    PEAKCOL 16842624
    BEAT -1
    AUTOMODE 0
    VOLPAN 1.00000000000000 0.00000000000000 -1.00000000000000 -1.00000000000000 1.00000000000000
    MUTESOLO 1 0 0
    IPHASE 0
    ISBUS 2 -1
    BUSCOMP 0 0
    SHOWINMIX 1 0.666700 0.500000 1 0.500000 -1 -1 -1
    FREEMODE 0
    SEL 0
    REC 0 0 0 0 0 0 0
    TRACKHEIGHT 0 0
    INQ 0 0 0 0.5000000000 100 0 0 100
    NCHAN 2
    FX 1
    TRACKID {F014911F-41F0-491C-9A25-C3D2A462D8D7}
    PERF 0
    MIDIOUT -1
    <MIDINOTENAMES
      0 48 "C2 (Lowest Note)"
      0 72 "C4 (Highest Note)"
      0 127 "Trill Marker"
      0 126 "Glissando Marker"
      0 125 "----"
      0 116 "Overdrive Marker"
      0 115 "Solo Marker"
      0 114 "----"
      0 71 "B3"
      0 70 "Bb3"
      0 69 "A3"
      0 68 "G#3"
      0 67 "G3"
      0 66 "F#3"
      0 65 "F3"
      0 64 "E3"
      0 63 "Eb3"
      0 62 "D3"
      0 61 "C#3"
      0 60 "C3"
      0 59 "B2"
      0 58 "Bb2"
      0 57 "A2"
      0 56 "G#2"
      0 55 "G2"
      0 54 "F#2"
      0 53 "F2"
      0 52 "E2"
      0 51 "Eb2"
      0 50 "D2"
      0 49 "C#2"
      0 47 "----"
      0 9 "A2-C4 Range"
      0 5 "F2-A3 Range"
      0 0 "C2-E3 Range"
      0 7 "G2-B3 Range"
      0 4 "E2-G3 Range"
      0 2 "D2-F3 Range"
    >
    MAINSEND 1 0
    <FXCHAIN
      SHOW 0
      LASTSEL 0
      DOCKED 0
    >
    <ITEM
      POSITION 0.00000000000000
      SNAPOFFS 0.00000000000000
      LENGTH 193.64941555399921
      LOOP 0
      ALLTAKES 0
      SEL 0
      FADEIN 1 0.000000 0.000000 1 0
      FADEOUT 1 0.000000 0.000000 1 0
      MUTE 0
      IGUID {F0F97A68-91AD-4B41-8D32-822B6159FDBC}
      IID 20
      NAME "PART KEYS_ANIM_LH"
      VOLPAN 1.000000 0.000000 1.000000 -1.000000
      SOFFS 0.00000000000000 0.00000000000000
      PLAYRATE 1.00000000000000 1 0.00000000000000 -65536
      CHANMODE 0
      GUID {214023C3-6BA4-450F-A73F-59780553B94C}
      <SOURCE MIDI
        HASDATA 1 480 QN
        POOLEDEVTS {1336A9C7-06D3-4C3E-8AC3-C3D542A0C5C6}
        <X 0 0
          /wNQQVJUIEtFWVNfQU5JTV9MSA==
        >
        E 182861 b0 7b 00
        GUID {9527D45A-14D5-4C89-A39E-3528B0F29941}
        IGNTEMPO 0 120.00000000 4 4
        SRCCOLOR 1153
        VELLANE 132 128 60
        COLORMAP "C:\Program Files\REAPER\Data\color_maps\rockband_guitarbass.png"
        TEXTSTRINGFILE "C:\Program Files\REAPER\Data\Text_Strings\Text Events List.txt"
        CFGEDITVIEW -4299.275963 82.395269 11 17 0 0 0
        CFGEDIT 1 1 0 1 1 1 1 1 1 1 1 0.12500000 -8 -8 1374 736 1 2 1 2 0.00000000 0 0 0 0 0.500000 1 0 1.000000 64
        KEYSNAP 0 0 "102034050607" 0 "Major"
        EVTFILTER 0 -1 -1 -1 -1 0 1 0 0 -1.00000000 -1.00000000
      >
    >
  >
  <TRACK '{4BCC1CF3-63A3-43C4-A155-D3593AD88A10}'
    NAME "EVENTS"
    PEAKCOL 29393024
    BEAT -1
    AUTOMODE 0
    VOLPAN 1.00000000000000 0.00000000000000 -1.00000000000000 -1.00000000000000 1.00000000000000
    MUTESOLO 0 0 0
    IPHASE 0
    ISBUS 0 0
    BUSCOMP 0 0
    SHOWINMIX 1 0.666700 0.500000 1 0.500000 -1 -1 -1
    FREEMODE 0
    SEL 0
    REC 0 0 0 0 0 0 0
    TRACKHEIGHT 0 0
    INQ 0 0 0 0.5000000000 100 0 0 100
    NCHAN 2
    FX 1
    TRACKID {4BCC1CF3-63A3-43C4-A155-D3593AD88A10}
    PERF 0
    MIDIOUT -1
    MAINSEND 1 0
    <FXCHAIN
      SHOW 0
      LASTSEL 0
      DOCKED 0
    >
    <ITEM
      POSITION 0.00000000000000
      SNAPOFFS 0.00000000000000
      LENGTH 193.66971853334681
      LOOP 0
      ALLTAKES 0
      SEL 0
      FADEIN 1 0.000000 0.000000 1 0
      FADEOUT 1 0.000000 0.000000 1 0
      MUTE 0
      IGUID {86A06D27-867C-4398-9CE6-8F0526B3B594}
      IID 21
      NAME "EVENTS"
      VOLPAN 1.000000 0.000000 1.000000 -1.000000
      SOFFS 0.00000000000000 0.00000000000000
      PLAYRATE 1.00000000000000 1 0.00000000000000 -65536
      CHANMODE 0
      GUID {584C8192-4FF3-4E29-8138-2E6BD568B61A}
      <SOURCE MIDI
        HASDATA 1 480 QN
        POOLEDEVTS {A1122174-6364-4FCF-ACA7-D879101A6C0D}
        <X 0 0
          /wNFVkVOVFM=
        >
        <X 0 0
          /wFbY3Jvd2Rfbm9ybWFsXQ==
        >
        <X 0 0
          /wFbcHJjX2ludHJvXQ==
        >
        <X 3840 0
          /wFbbXVzaWNfc3RhcnRd
        >
        <X 0 0
          /wFbcHJjX2ludHJvXQ==
        >
        <X 20160 0
          /wFbcHJjX3ZlcnNlXzFhXQ==
        >
        <X 8160 0
          /wFbcHJjX3ZlcnNlXzFiXQ==
        >
        <X 7680 0
          /wFbcHJjX2Nob3J1c18xXQ==
        >
        <X 19200 0
          /wFbcHJjX2JyaWRnZV8xXQ==
        >
        <X 17280 0
          /wFbcHJjX3ZlcnNlXzJhXQ==
        >
        <X 7680 0
          /wFbcHJjX3ZlcnNlXzJiXQ==
        >
        <X 7680 0
          /wFbcHJjX2Nob3J1c18yXQ==
        >
        <X 15360 0
          /wFbcHJjX2ludGVybHVkZV0=
        >
        <X 21120 0
          /wFbcHJjX2JyaWRnZV8yXQ==
        >
        <X 17280 0
          /wFbcHJjX3ZlcnNlXzNhXQ==
        >
        <X 7680 0
          /wFbcHJjX3ZlcnNlXzNiXQ==
        >
        <X 7680 0
          /wFbcHJjX2Nob3J1c18zXQ==
        >
        <X 8160 0
          /wFbcHJjX291dHJvXQ==
        >
        <X 11520 0
          /wFbbXVzaWNfZW5kXQ==
        >
        <X 1920 0
          /wFbZW5kXQ==
        >
        E 480 b0 7b 00
        GUID {40AD7956-A22A-434A-8513-4D3792B9DF69}
        IGNTEMPO 0 120.00000000 4 4
        SRCCOLOR 1154
        VELLANE 132 100 100
        COLORMAP "M:\RGS Documents\ColorMaps\rockband_vox-other.png"
        TEXTSTRINGFILE "Text Events List.txt"
        CFGEDITVIEW 129084.000994 120.966605 0 26 0 0 0
        CFGEDIT 1 1 0 0 0 1 1 1 1 1 1 1.00000000 44 63 1223 847 1 2 1 2 0.00000000 0 0 0 0 0.500000 1 0 1.000000 64
        KEYSNAP 0 0 "102034050607" 0 "Major"
        EVTFILTER 0 -1 -1 -1 -1 0 1 0 0 -1.00000000 -1.00000000
      >
    >
  >
  <TRACK '{1529008F-97D2-43EB-8634-7C5A7418AD90}'
    NAME "VENUE"
    PEAKCOL 16842496
    BEAT -1
    AUTOMODE 0
    VOLPAN 1.00000000000000 0.00000000000000 -1.00000000000000 -1.00000000000000 1.00000000000000
    MUTESOLO 0 0 0
    IPHASE 0
    ISBUS 0 0
    BUSCOMP 0 0
    SHOWINMIX 1 0.666700 0.500000 1 0.500000 -1 -1 -1
    FREEMODE 0
    SEL 0
    REC 0 0 0 0 0 0 0
    TRACKHEIGHT 0 0
    INQ 0 0 0 0.5000000000 100 0 0 100
    NCHAN 2
    FX 1
    TRACKID {1529008F-97D2-43EB-8634-7C5A7418AD90}
    PERF 0
    MIDIOUT -1
    <MIDINOTENAMES
      0 87 "Guitarist Sing Along"
      0 86 "Drummer Sing Along"
      0 85 "Bassist Sing Along"
      0 40 "Spotlight on Vocals"
      0 39 "Spotlight on Guitar"
      0 38 "Spotlight on Drums"
      0 37 "Spotlight on Bass"
      0 41 "Spotlight on Keys"
    >
    MAINSEND 1 0
    <FXCHAIN
      SHOW 0
      LASTSEL 0
      DOCKED 0
    >
    <ITEM
      POSITION 0.00000000000000
      SNAPOFFS 0.00000000000000
      LENGTH 193.66971853334681
      LOOP 0
      ALLTAKES 0
      SEL 0
      FADEIN 1 0.000000 0.000000 1 0
      FADEOUT 1 0.000000 0.000000 1 0
      MUTE 0
      IGUID {71027329-E0AB-447D-A192-4839733334E7}
      IID 22
      NAME "VENUE"
      VOLPAN 1.000000 0.000000 1.000000 -1.000000
      SOFFS 0.00000000000000 0.00000000000000
      PLAYRATE 1.00000000000000 1 0.00000000000000 -65536
      CHANMODE 0
      GUID {44F0FFD1-5109-4A47-8BED-262AA04D3B23}
      <SOURCE MIDI
        HASDATA 1 480 QN
        POOLEDEVTS {EB31F13A-E648-4339-8FCD-71E1252771C9}
        <X 0 0
          /wNWRU5VRQ==
        >
        <X 0 0
          /wFbbGlnaHRpbmcgKCld
        >
        <X 3840 0
          /wFbZGlyZWN0ZWRfZHVvX2diXQ==
        >
        <X 5760 0
          /wFbZGlyZWN0ZWRfZHJ1bXNfbHRd
        >
        <X 5760 0
          /wFbZGlyZWN0ZWRfZ3VpdGFyX2NhbV9wcl0=
        >
        <X 3720 0
          /wFbY29vcF9kX2JlaGluZF0=
        >
        <X 3480 0
          /wFbY29vcF9iZ19uZWFyXQ==
        >
        <X 2414 0
          /wFbY29vcF92X25lYXJd
        >
        <X 3346 0
          /wFbY29vcF9hbGxfZmFyXQ==
        >
        E 1438 90 56 60
        E 2 90 55 60
        E 0 90 57 60
        E 1798 80 56 00
        E 2 80 55 00
        E 0 80 57 00
        <X 130 0
          /wFbY29vcF9idl9uZWFyXQ==
        >
        <X 4790 0
          /wFbZGlyZWN0ZWRfYWxsX3llYWhd
        >
        E 960 90 55 60
        E 0 90 57 60
        E 9 90 56 60
        <X 2391 0
          /wFbZGlyZWN0ZWRfYWxsX2NhbV0=
        >
        <X 4320 0
          /wFbY29vcF9hbGxfbmVhcl0=
        >
        <X 1920 0
          /wFbY29vcF9iX2Nsb3NldXBfaGVhZF0=
        >
        <X 480 0
          /wFbY29vcF9kX2Nsb3NldXBfaGVhZF0=
        >
        <X 480 0
          /wFbY29vcF9nX2Nsb3NldXBfaGVhZF0=
        >
        <X 480 0
          /wFbY29vcF92X2Nsb3NldXBd
        >
        E 240 80 55 00
        E 0 80 57 00
        E 9 80 56 00
        <X 231 0
          /wFbY29vcF9idl9iZWhpbmRd
        >
        <X 3840 0
          /wFbZGlyZWN0ZWRfYWxsX3llYWhd
        >
        E 951 90 56 60
        E 2 90 57 60
        E 8 90 55 60
        E 1789 80 56 00
        E 2 80 57 00
        E 8 80 55 00
        <X 1080 0
          /wFbY29vcF9hbGxfbmVhcl0=
        >
        <X 3360 0
          /wFbY29vcF92X2Nsb3NldXBd
        >
        <X 6240 0
          /wFbY29vcF9hbGxfbmVhcl0=
        >
        E 1080 90 55 60
        E 0 90 56 60
        E 0 90 57 60
        E 600 80 55 00
        E 0 80 56 00
        E 0 80 57 00
        <X 226 0
          /wFbY29vcF9idl9uZWFyXQ==
        >
        <X 5294 0
          /wFbZGlyZWN0ZWRfYWxsX2NhbV0=
        >
        E 360 90 56 60
        E 1 90 55 60
        E 0 90 57 60
        <X 2519 0
          /wFbY29vcF9hbGxfZmFyXQ==
        >
        E 1439 80 56 00
        <X 1 0
          /wFbY29vcF92X25lYXJd
        >
        E 0 80 55 00
        E 0 80 57 00
        <X 3840 0
          /wFbY29vcF9hbGxfZmFyXQ==
        >
        E 1200 90 56 60
        E 1 90 55 60
        E 0 90 57 60
        E 1798 80 56 00
        E 1 80 55 00
        E 0 80 57 00
        <X 360 0
          /wFbY29vcF9idl9iZWhpbmRd
        >
        <X 4320 0
          /wFbZGlyZWN0ZWRfYWxsX3llYWhd
        >
        E 960 90 55 60
        E 0 90 56 60
        E 0 90 57 60
        <X 2400 0
          /wFbZGlyZWN0ZWRfYWxsX2NhbV0=
        >
        <X 4320 0
          /wFbY29vcF9hbGxfbmVhcl0=
        >
        <X 1920 0
          /wFbY29vcF9iX2Nsb3NldXBfaGVhZF0=
        >
        <X 481 0
          /wFbY29vcF9kX2Nsb3NldXBfaGVhZF0=
        >
        <X 480 0
          /wFbY29vcF9nX2Nsb3NldXBfaGVhZF0=
        >
        <X 480 0
          /wFbY29vcF92X2Nsb3NldXBd
        >
        E 359 80 55 00
        E 0 80 56 00
        E 0 80 57 00
        <X 120 0
          /wFbY29vcF9idl9uZWFyXQ==
        >
        <X 3840 0
          /wFbZGlyZWN0ZWRfYWxsX3llYWhd
        >
        E 960 90 55 60
        E 0 90 56 60
        E 0 90 57 60
        E 1799 80 55 00
        E 0 80 56 00
        E 0 80 57 00
        <X 2521 0
          /wFbZGlyZWN0ZWRfY3Jvd2RzdXJmXQ==
        >
        <X 4320 0
          /wFbY29vcF9kX2Nsb3NldXBfaGFuZF0=
        >
        <X 3840 0
          /wFbZGlyZWN0ZWRfZHVvX2diXQ==
        >
        <X 4800 0
          /wFbY29vcF9kdl9uZWFyXQ==
        >
        <X 3840 0
          /wFbY29vcF9mcm9udF9iZWhpbmRd
        >
        <X 2400 0
          /wFbY29vcF92X2Nsb3NldXBd
        >
        <X 5280 0
          /wFbZGlyZWN0ZWRfYWxsX2NhbV0=
        >
        E 2089 90 57 60
        E 3 90 56 60
        E 2 90 55 60
        E 662 80 57 00
        E 3 80 56 00
        E 1 80 55 00
        <X 120 0
          /wFbZGlyZWN0ZWRfZHVvX2Jhc3Nd
        >
        <X 5299 0
          /wFbZGlyZWN0ZWRfYWxsX2NhbV0=
        >
        E 299 90 57 60
        E 5 90 55 60
        E 0 90 56 60
        E 3875 80 57 00
        E 4 80 55 00
        E 1 80 56 00
        <X 117 0
          /wFbY29vcF9idl9uZWFyXQ==
        >
        <X 4080 0
          /wFbZGlyZWN0ZWRfYWxsX3llYWhd
        >
        E 984 90 56 60
        E 2 90 57 60
        E 5 90 55 60
        E 1477 80 56 00
        E 2 80 57 00
        E 4 80 55 00
        <X 646 0
          /wFbY29vcF9idl9uZWFyXQ==
        >
        <X 4320 0
          /wFbZGlyZWN0ZWRfYWxsX3llYWhd
        >
        E 1125 90 56 60
        E 1 90 57 60
        E 5 90 55 60
        <X 2709 0
          /wFbZGlyZWN0ZWRfYWxsX2NhbV0=
        >
        <X 4320 0
          /wFbY29vcF9hbGxfbmVhcl0=
        >
        <X 1440 0
          /wFbY29vcF9iX2Nsb3NldXBfaGVhZF0=
        >
        <X 481 0
          /wFbY29vcF9kX2Nsb3NldXBfaGVhZF0=
        >
        <X 480 0
          /wFbY29vcF9nX2Nsb3NldXBfaGVhZF0=
        >
        E 474 80 56 00
        E 1 80 57 00
        E 4 80 55 00
        <X 1 0
          /wFbY29vcF92X2Nsb3NldXBd
        >
        <X 479 0
          /wFbY29vcF9idl9uZWFyXQ==
        >
        <X 4800 0
          /wFbZGlyZWN0ZWRfYWxsX2NhbV0=
        >
        E 239 90 55 60
        E 3 90 57 60
        E 9 90 56 60
        E 5318 80 55 00
        E 4 80 57 00
        E 9 80 56 00
        E 3538 b0 7b 00
        GUID {30097062-47C5-4B33-B665-170EF09D70D9}
        IGNTEMPO 0 120.00000000 4 4
        SRCCOLOR 1155
        VELLANE 132 230 230
        COLORMAP "M:\RGS Documents\ColorMaps\rockband_vox-other.png"
        TEXTSTRINGFILE "C:\Program Files\REAPER (x64)\REAPER\Data\Text_Strings\Text Events List - Venue.txt"
        CFGEDITVIEW 156830.959516 85.941050 30 14 0 0 0
        CFGEDIT 1 1 0 0 1 1 1 1 1 1 1 0.25000000 133 19 1300 803 1 0 1 2 0.00000000 0 0 0 0 0.500000 1 0 1.000000 64
        KEYSNAP 0 0 "102034050607" 0 "Major"
        EVTFILTER 0 -1 -1 -1 -1 0 1 0 0 -1.00000000 -1.00000000
      >
    >
  >
  <TRACK '{7BC63EFC-0ABC-4D0D-8204-E9893AE9FFFA}'
    NAME "BEAT"
    PEAKCOL 23514346
    BEAT -1
    AUTOMODE 0
    VOLPAN 1.00000000000000 0.00000000000000 -1.00000000000000 -1.00000000000000 1.00000000000000
    MUTESOLO 0 0 0
    IPHASE 0
    ISBUS 0 0
    BUSCOMP 1 0
    SHOWINMIX 1 0.666700 0.500000 1 0.500000 -1 -1 -1
    FREEMODE 0
    SEL 0
    REC 0 0 0 0 0 0 0
    TRACKHEIGHT 0 0
    INQ 0 0 0 0.5000000000 100 0 0 100
    NCHAN 2
    FX 1
    TRACKID {7BC63EFC-0ABC-4D0D-8204-E9893AE9FFFA}
    PERF 0
    MIDIOUT -1
    <MIDINOTENAMES
      0 12 "Downbeat"
      0 13 "Up Beats"
    >
    MAINSEND 1 0
    <FXCHAIN
      SHOW 0
      LASTSEL 0
      DOCKED 0
    >
    <ITEM
      POSITION 0.00000000000000
      SNAPOFFS 0.00000000000000
      LENGTH 193.66971853334681
      LOOP 0
      ALLTAKES 0
      SEL 0
      FADEIN 1 0.000000 0.000000 1 0
      FADEOUT 1 0.000000 0.000000 1 0
      MUTE 0
      IGUID {9960CDFD-BF2E-4E67-97CD-4F13D0A3F2ED}
      IID 23
      NAME "BEAT"
      VOLPAN 1.000000 0.000000 1.000000 -1.000000
      SOFFS 0.00000000000000 0.00000000000000
      PLAYRATE 1.00000000000000 1 0.00000000000000 -65536
      CHANMODE 0
      GUID {CEBFDCF1-B2BD-47E1-A085-C26E1C9E9ED2}
      <SOURCE MIDI
        HASDATA 1 480 QN
        POOLEDEVTS {A9B03C97-8975-481C-B8A0-78C48ABA4281}
        <X 0 0
          /wNCRUFU
        >
        e 0 96 0c 64
        e 120 86 0c 00
        e 360 96 0d 64
        e 120 86 0d 00
        e 360 96 0d 64
        e 120 86 0d 00
        e 360 96 0d 64
        e 120 86 0d 00
        e 360 96 0c 64
        e 120 86 0c 00
        e 360 96 0d 64
        e 120 86 0d 00
        e 360 96 0d 64
        e 120 86 0d 00
        e 360 96 0d 64
        e 120 86 0d 00
        e 360 96 0c 64
        e 120 86 0c 00
        e 360 96 0d 64
        e 120 86 0d 00
        e 360 96 0d 64
        e 120 86 0d 00
        e 360 96 0d 64
        e 120 86 0d 00
        e 360 96 0c 64
        e 120 86 0c 00
        e 360 96 0d 64
        e 120 86 0d 00
        e 360 96 0d 64
        e 120 86 0d 00
        e 360 96 0d 64
        e 120 86 0d 00
        e 360 96 0c 64
        e 120 86 0c 00
        e 360 96 0d 64
        e 120 86 0d 00
        e 360 96 0d 64
        e 120 86 0d 00
        e 360 96 0d 64
        e 120 86 0d 00
        e 360 96 0c 64
        e 120 86 0c 00
        e 360 96 0d 64
        e 120 86 0d 00
        e 360 96 0d 64
        e 120 86 0d 00
        e 360 96 0d 64
        e 120 86 0d 00
        e 360 96 0c 64
        e 120 86 0c 00
        e 360 96 0d 64
        e 120 86 0d 00
        e 360 96 0d 64
        e 120 86 0d 00
        e 360 96 0d 64
        e 120 86 0d 00
        e 360 96 0c 64
        e 120 86 0c 00
        e 360 96 0d 64
        e 120 86 0d 00
        e 360 96 0d 64
        e 120 86 0d 00
        e 360 96 0d 64
        e 120 86 0d 00
        e 360 96 0c 64
        e 120 86 0c 00
        e 360 96 0d 64
        e 120 86 0d 00
        e 360 96 0d 64
        e 120 86 0d 00
        e 360 96 0d 64
        e 120 86 0d 00
        e 360 96 0c 64
        e 120 86 0c 00
        e 360 96 0d 64
        e 120 86 0d 00
        e 360 96 0d 64
        e 120 86 0d 00
        e 360 96 0d 64
        e 120 86 0d 00
        e 360 96 0c 64
        e 120 86 0c 00
        e 360 96 0d 64
        e 120 86 0d 00
        e 360 96 0d 64
        e 120 86 0d 00
        e 360 96 0d 64
        e 120 86 0d 00
        e 360 96 0c 64
        e 120 86 0c 00
        e 360 96 0d 64
        e 120 86 0d 00
        e 360 96 0d 64
        e 120 86 0d 00
        e 360 96 0d 64
        e 120 86 0d 00
        e 360 96 0c 64
        e 120 86 0c 00
        e 360 96 0d 64
        e 120 86 0d 00
        e 360 96 0d 64
        e 120 86 0d 00
        e 360 96 0d 64
        e 120 86 0d 00
        e 360 96 0c 64
        e 120 86 0c 00
        e 360 96 0d 64
        e 120 86 0d 00
        e 360 96 0d 64
        e 120 86 0d 00
        e 360 96 0d 64
        e 120 86 0d 00
        e 360 96 0c 64
        e 120 86 0c 00
        e 360 96 0d 64
        e 120 86 0d 00
        e 360 96 0d 64
        e 120 86 0d 00
        e 360 96 0d 64
        e 120 86 0d 00
        e 360 96 0c 64
        e 120 86 0c 00
        e 360 96 0d 64
        e 120 86 0d 00
        e 360 96 0d 64
        e 120 86 0d 00
        e 360 96 0d 64
        e 120 86 0d 00
        e 360 96 0c 64
        e 120 86 0c 00
        e 360 96 0d 64
        e 120 86 0d 00
        e 360 96 0d 64
        e 120 86 0d 00
        e 360 96 0d 64
        e 120 86 0d 00
        e 360 96 0c 64
        e 120 86 0c 00
        e 360 96 0d 64
        e 120 86 0d 00
        e 360 96 0d 64
        e 120 86 0d 00
        e 360 96 0d 64
        e 120 86 0d 00
        e 360 96 0c 64
        e 120 86 0c 00
        e 360 96 0d 64
        e 120 86 0d 00
        e 360 96 0d 64
        e 120 86 0d 00
        e 360 96 0d 64
        e 120 86 0d 00
        e 360 96 0c 64
        e 120 86 0c 00
        e 360 96 0d 64
        e 120 86 0d 00
        e 360 96 0d 64
        e 120 86 0d 00
        e 360 96 0d 64
        e 120 86 0d 00
        e 360 96 0c 64
        e 120 86 0c 00
        e 360 96 0d 64
        e 120 86 0d 00
        e 360 96 0d 64
        e 120 86 0d 00
        e 360 96 0d 64
        e 120 86 0d 00
        e 360 96 0c 64
        e 120 86 0c 00
        e 360 96 0d 64
        e 120 86 0d 00
        e 360 96 0d 64
        e 120 86 0d 00
        e 360 96 0d 64
        e 120 86 0d 00
        e 360 96 0c 64
        e 120 86 0c 00
        e 360 96 0d 64
        e 120 86 0d 00
        e 360 96 0d 64
        e 120 86 0d 00
        e 360 96 0d 64
        e 120 86 0d 00
        e 360 96 0c 64
        e 120 86 0c 00
        e 360 96 0d 64
        e 120 86 0d 00
        e 360 96 0d 64
        e 120 86 0d 00
        e 360 96 0d 64
        e 120 86 0d 00
        e 360 96 0c 64
        e 120 86 0c 00
        e 360 96 0d 64
        e 120 86 0d 00
        e 360 96 0d 64
        e 120 86 0d 00
        e 360 96 0d 64
        e 120 86 0d 00
        e 360 96 0c 64
        e 120 86 0c 00
        e 360 96 0d 64
        e 120 86 0d 00
        e 360 96 0d 64
        e 120 86 0d 00
        e 360 96 0d 64
        e 120 86 0d 00
        e 360 96 0c 64
        e 120 86 0c 00
        e 360 96 0d 64
        e 120 86 0d 00
        e 360 96 0d 64
        e 120 86 0d 00
        e 360 96 0d 64
        e 120 86 0d 00
        e 360 96 0c 64
        e 120 86 0c 00
        e 360 96 0d 64
        e 120 86 0d 00
        e 360 96 0d 64
        e 120 86 0d 00
        e 360 96 0d 64
        e 120 86 0d 00
        e 360 96 0c 64
        e 120 86 0c 00
        e 360 96 0d 64
        e 120 86 0d 00
        e 360 96 0d 64
        e 120 86 0d 00
        e 360 96 0d 64
        e 120 86 0d 00
        e 360 96 0c 64
        e 120 86 0c 00
        e 360 96 0d 64
        e 120 86 0d 00
        e 360 96 0d 64
        e 120 86 0d 00
        e 360 96 0d 64
        e 120 86 0d 00
        e 360 96 0c 64
        e 120 86 0c 00
        e 360 96 0d 64
        e 120 86 0d 00
        e 360 96 0d 64
        e 120 86 0d 00
        e 360 96 0d 64
        e 120 86 0d 00
        e 360 96 0c 64
        e 120 86 0c 00
        e 360 96 0d 64
        e 120 86 0d 00
        e 360 96 0d 64
        e 120 86 0d 00
        e 360 96 0d 64
        e 120 86 0d 00
        e 360 96 0c 64
        e 120 86 0c 00
        e 360 96 0d 64
        e 120 86 0d 00
        e 360 96 0d 64
        e 120 86 0d 00
        e 360 96 0d 64
        e 120 86 0d 00
        e 360 96 0c 64
        e 120 86 0c 00
        e 360 96 0d 64
        e 120 86 0d 00
        e 360 96 0d 64
        e 120 86 0d 00
        e 360 96 0d 64
        e 120 86 0d 00
        e 360 96 0c 64
        e 120 86 0c 00
        e 360 96 0d 64
        e 120 86 0d 00
        e 360 96 0d 64
        e 120 86 0d 00
        e 360 96 0d 64
        e 120 86 0d 00
        e 360 96 0c 64
        e 120 86 0c 00
        e 360 96 0d 64
        e 120 86 0d 00
        e 360 96 0d 64
        e 120 86 0d 00
        e 360 96 0d 64
        e 120 86 0d 00
        e 360 96 0c 64
        e 120 86 0c 00
        e 360 96 0d 64
        e 120 86 0d 00
        e 360 96 0d 64
        e 120 86 0d 00
        e 360 96 0d 64
        e 120 86 0d 00
        e 360 96 0c 64
        e 120 86 0c 00
        e 360 96 0d 64
        e 120 86 0d 00
        e 360 96 0d 64
        e 120 86 0d 00
        e 360 96 0d 64
        e 120 86 0d 00
        e 360 96 0c 64
        e 120 86 0c 00
        e 360 96 0d 64
        e 120 86 0d 00
        e 360 96 0d 64
        e 120 86 0d 00
        e 360 96 0d 64
        e 120 86 0d 00
        e 360 96 0c 64
        e 120 86 0c 00
        e 360 96 0d 64
        e 120 86 0d 00
        e 360 96 0d 64
        e 120 86 0d 00
        e 360 96 0d 64
        e 120 86 0d 00
        e 360 96 0c 64
        e 120 86 0c 00
        e 360 96 0d 64
        e 120 86 0d 00
        e 360 96 0d 64
        e 120 86 0d 00
        e 360 96 0d 64
        e 120 86 0d 00
        e 360 96 0c 64
        e 120 86 0c 00
        e 360 96 0d 64
        e 120 86 0d 00
        e 360 96 0d 64
        e 120 86 0d 00
        e 360 96 0d 64
        e 120 86 0d 00
        e 360 96 0c 64
        e 120 86 0c 00
        e 360 96 0d 64
        e 120 86 0d 00
        e 360 96 0d 64
        e 120 86 0d 00
        e 360 96 0d 64
        e 120 86 0d 00
        e 360 96 0c 64
        e 120 86 0c 00
        e 360 96 0d 64
        e 120 86 0d 00
        e 360 96 0d 64
        e 120 86 0d 00
        e 360 96 0d 64
        e 120 86 0d 00
        e 360 96 0c 64
        e 120 86 0c 00
        e 360 96 0d 64
        e 120 86 0d 00
        e 360 96 0d 64
        e 120 86 0d 00
        e 360 96 0d 64
        e 120 86 0d 00
        e 360 96 0c 64
        e 120 86 0c 00
        e 360 96 0d 64
        e 120 86 0d 00
        e 360 96 0d 64
        e 120 86 0d 00
        e 360 96 0d 64
        e 120 86 0d 00
        e 360 96 0c 64
        e 120 86 0c 00
        e 360 96 0d 64
        e 120 86 0d 00
        e 360 96 0d 64
        e 120 86 0d 00
        e 360 96 0d 64
        e 120 86 0d 00
        e 360 96 0c 64
        e 120 86 0c 00
        e 360 96 0d 64
        e 120 86 0d 00
        e 360 96 0d 64
        e 120 86 0d 00
        e 360 96 0d 64
        e 120 86 0d 00
        e 360 96 0c 64
        e 120 86 0c 00
        e 360 96 0d 64
        e 120 86 0d 00
        e 360 96 0d 64
        e 120 86 0d 00
        e 360 96 0d 64
        e 120 86 0d 00
        e 360 96 0c 64
        e 120 86 0c 00
        e 360 96 0d 64
        e 120 86 0d 00
        e 360 96 0d 64
        e 120 86 0d 00
        e 360 96 0d 64
        e 120 86 0d 00
        e 360 96 0c 64
        e 120 86 0c 00
        e 360 96 0d 64
        e 120 86 0d 00
        e 360 96 0d 64
        e 120 86 0d 00
        e 360 96 0d 64
        e 120 86 0d 00
        e 360 96 0c 64
        e 120 86 0c 00
        e 360 96 0d 64
        e 120 86 0d 00
        e 360 96 0d 64
        e 120 86 0d 00
        e 360 96 0d 64
        e 120 86 0d 00
        e 360 96 0c 64
        e 120 86 0c 00
        e 360 96 0d 64
        e 120 86 0d 00
        e 360 96 0d 64
        e 120 86 0d 00
        e 360 96 0d 64
        e 120 86 0d 00
        e 360 96 0c 64
        e 120 86 0c 00
        e 360 96 0d 64
        e 120 86 0d 00
        e 360 96 0d 64
        e 120 86 0d 00
        e 360 96 0d 64
        e 120 86 0d 00
        e 360 96 0c 64
        e 120 86 0c 00
        e 360 96 0d 64
        e 120 86 0d 00
        e 360 96 0d 64
        e 120 86 0d 00
        e 360 96 0d 64
        e 120 86 0d 00
        e 360 96 0c 64
        e 120 86 0c 00
        e 360 96 0d 64
        e 120 86 0d 00
        e 360 96 0d 64
        e 120 86 0d 00
        e 360 96 0d 64
        e 120 86 0d 00
        e 360 96 0c 64
        e 120 86 0c 00
        e 360 96 0d 64
        e 120 86 0d 00
        e 360 96 0d 64
        e 120 86 0d 00
        e 360 96 0d 64
        e 120 86 0d 00
        e 360 96 0c 64
        e 120 86 0c 00
        e 360 96 0d 64
        e 120 86 0d 00
        e 360 96 0d 64
        e 120 86 0d 00
        e 360 96 0d 64
        e 120 86 0d 00
        e 360 96 0c 64
        e 120 86 0c 00
        e 360 96 0d 64
        e 120 86 0d 00
        e 360 96 0d 64
        e 120 86 0d 00
        e 360 96 0d 64
        e 120 86 0d 00
        e 360 96 0c 64
        e 120 86 0c 00
        e 360 96 0d 64
        e 120 86 0d 00
        e 360 96 0d 64
        e 120 86 0d 00
        e 360 96 0d 64
        e 120 86 0d 00
        e 360 96 0c 64
        e 120 86 0c 00
        e 360 96 0d 64
        e 120 86 0d 00
        e 360 96 0d 64
        e 120 86 0d 00
        e 360 96 0d 64
        e 120 86 0d 00
        e 360 96 0c 64
        e 120 86 0c 00
        e 360 96 0d 64
        e 120 86 0d 00
        e 360 96 0d 64
        e 120 86 0d 00
        e 360 96 0d 64
        e 120 86 0d 00
        e 360 96 0c 64
        e 120 86 0c 00
        e 360 96 0d 64
        e 120 86 0d 00
        e 360 96 0d 64
        e 120 86 0d 00
        e 360 96 0d 64
        e 120 86 0d 00
        e 360 96 0c 64
        e 120 86 0c 00
        e 360 96 0d 64
        e 120 86 0d 00
        e 360 96 0d 64
        e 120 86 0d 00
        e 360 96 0d 64
        e 120 86 0d 00
        e 360 96 0c 64
        e 120 86 0c 00
        e 360 96 0d 64
        e 120 86 0d 00
        e 360 96 0d 64
        e 120 86 0d 00
        e 360 96 0d 64
        e 120 86 0d 00
        e 360 96 0c 64
        e 120 86 0c 00
        e 360 96 0d 64
        e 120 86 0d 00
        e 360 96 0d 64
        e 120 86 0d 00
        e 360 96 0d 64
        e 120 86 0d 00
        e 360 96 0c 64
        e 120 86 0c 00
        e 360 96 0d 64
        e 120 86 0d 00
        e 360 96 0d 64
        e 120 86 0d 00
        e 360 96 0d 64
        e 120 86 0d 00
        e 360 96 0c 64
        e 120 86 0c 00
        e 360 96 0d 64
        e 120 86 0d 00
        e 360 96 0d 64
        e 120 86 0d 00
        e 360 96 0d 64
        e 120 86 0d 00
        e 360 96 0c 64
        e 120 86 0c 00
        e 360 96 0d 64
        e 120 86 0d 00
        e 360 96 0d 64
        e 120 86 0d 00
        e 360 96 0d 64
        e 120 86 0d 00
        e 360 96 0c 64
        e 120 86 0c 00
        e 360 96 0d 64
        e 120 86 0d 00
        e 360 96 0d 64
        e 120 86 0d 00
        e 360 96 0d 64
        e 120 86 0d 00
        e 360 96 0c 64
        e 120 86 0c 00
        e 360 96 0d 64
        e 120 86 0d 00
        e 360 96 0d 64
        e 120 86 0d 00
        e 360 96 0d 64
        e 120 86 0d 00
        e 360 96 0c 64
        e 120 86 0c 00
        e 360 96 0d 64
        e 120 86 0d 00
        e 360 96 0d 64
        e 120 86 0d 00
        e 360 96 0d 64
        e 120 86 0d 00
        e 360 96 0c 64
        e 120 86 0c 00
        e 360 96 0d 64
        e 120 86 0d 00
        e 360 96 0d 64
        e 120 86 0d 00
        e 360 96 0d 64
        e 120 86 0d 00
        e 360 96 0c 64
        e 120 86 0c 00
        e 360 96 0d 64
        e 120 86 0d 00
        e 360 96 0d 64
        e 120 86 0d 00
        e 360 96 0d 64
        e 120 86 0d 00
        e 360 96 0c 64
        e 120 86 0c 00
        e 360 96 0d 64
        e 120 86 0d 00
        e 360 96 0d 64
        e 120 86 0d 00
        e 360 96 0d 64
        e 120 86 0d 00
        e 360 96 0c 64
        e 120 86 0c 00
        e 360 96 0d 64
        e 120 86 0d 00
        e 360 96 0d 64
        e 120 86 0d 00
        e 360 96 0d 64
        e 120 86 0d 00
        e 360 96 0c 64
        e 120 86 0c 00
        e 360 96 0d 64
        e 120 86 0d 00
        e 360 96 0d 64
        e 120 86 0d 00
        e 360 96 0d 64
        e 120 86 0d 00
        e 360 96 0c 64
        e 120 86 0c 00
        e 360 96 0d 64
        e 120 86 0d 00
        e 360 96 0d 64
        e 120 86 0d 00
        e 360 96 0d 64
        e 120 86 0d 00
        e 360 96 0c 64
        e 120 86 0c 00
        e 360 96 0d 64
        e 120 86 0d 00
        e 360 96 0d 64
        e 120 86 0d 00
        e 360 96 0d 64
        e 120 86 0d 00
        e 360 96 0c 64
        e 120 86 0c 00
        e 360 96 0d 64
        e 120 86 0d 00
        e 360 96 0d 64
        e 120 86 0d 00
        e 360 96 0d 64
        e 120 86 0d 00
        e 360 96 0c 64
        e 120 86 0c 00
        e 360 96 0d 64
        e 120 86 0d 00
        e 360 96 0d 64
        e 120 86 0d 00
        e 360 96 0d 64
        e 120 86 0d 00
        e 360 96 0c 64
        e 120 86 0c 00
        e 360 96 0d 64
        e 120 86 0d 00
        e 360 96 0d 64
        e 120 86 0d 00
        e 360 96 0d 64
        e 120 86 0d 00
        e 360 96 0c 64
        e 120 86 0c 00
        e 360 96 0d 64
        e 120 86 0d 00
        e 360 96 0d 64
        e 120 86 0d 00
        e 360 96 0d 64
        e 120 86 0d 00
        e 360 96 0c 64
        e 120 86 0c 00
        e 360 96 0d 64
        e 120 86 0d 00
        e 360 96 0d 64
        e 120 86 0d 00
        e 360 96 0d 64
        e 120 86 0d 00
        e 360 96 0c 64
        e 120 86 0c 00
        e 360 96 0d 64
        e 120 86 0d 00
        e 360 96 0d 64
        e 120 86 0d 00
        e 360 96 0d 64
        e 120 86 0d 00
        e 360 96 0c 64
        e 120 86 0c 00
        e 360 96 0d 64
        e 120 86 0d 00
        e 360 96 0d 64
        e 120 86 0d 00
        e 360 96 0d 64
        e 120 86 0d 00
        e 360 96 0c 64
        e 120 86 0c 00
        e 360 96 0d 64
        e 120 86 0d 00
        e 360 96 0d 64
        e 120 86 0d 00
        e 360 96 0d 64
        e 120 86 0d 00
        e 360 96 0c 64
        e 120 86 0c 00
        e 360 96 0d 64
        e 120 86 0d 00
        e 360 96 0d 64
        e 120 86 0d 00
        e 360 96 0d 64
        e 120 86 0d 00
        e 360 96 0c 64
        e 120 86 0c 00
        e 360 96 0d 64
        e 120 86 0d 00
        e 360 96 0d 64
        e 120 86 0d 00
        e 360 96 0d 64
        e 120 86 0d 00
        e 360 96 0c 64
        e 120 86 0c 00
        e 360 96 0d 64
        e 120 86 0d 00
        e 360 96 0d 64
        e 120 86 0d 00
        e 360 96 0d 64
        e 120 86 0d 00
        e 360 96 0c 64
        e 120 86 0c 00
        e 360 96 0d 64
        e 120 86 0d 00
        e 360 96 0d 64
        e 120 86 0d 00
        e 360 96 0d 64
        e 120 86 0d 00
        e 360 96 0c 64
        e 120 86 0c 00
        e 360 96 0d 64
        e 120 86 0d 00
        e 360 96 0d 64
        e 120 86 0d 00
        e 360 96 0d 64
        e 120 86 0d 00
        e 360 96 0c 64
        e 120 86 0c 00
        e 360 96 0d 64
        e 120 86 0d 00
        e 360 96 0d 64
        e 120 86 0d 00
        e 360 96 0d 64
        e 120 86 0d 00
        e 360 96 0c 64
        e 120 86 0c 00
        e 360 96 0d 64
        e 120 86 0d 00
        e 360 96 0d 64
        e 120 86 0d 00
        e 360 96 0d 64
        e 120 86 0d 00
        e 360 96 0c 64
        e 120 86 0c 00
        e 360 96 0d 64
        e 120 86 0d 00
        e 360 96 0d 64
        e 120 86 0d 00
        e 360 96 0d 64
        e 120 86 0d 00
        E 840 b0 7b 00
        GUID {8CB930E8-B6A0-4CAD-825A-9F47FB66C1D0}
        IGNTEMPO 0 120.00000000 4 4
        SRCCOLOR 1156
        VELLANE 132 100 100
        COLORMAP "M:\RGS Documents\ColorMaps\rockband_vox-other.png"
        TEXTSTRINGFILE "Text Events List.txt"
        CFGEDITVIEW 52033.243845 683.353229 0 48 0 0 0
        CFGEDIT 1 1 0 0 0 1 1 1 1 1 1 1.00000000 44 63 1223 847 1 2 1 2 0.00000000 0 0 0 0 0.500000 1 0 1.000000 64
        KEYSNAP 0 0 "102034050607" 0 "Major"
        EVTFILTER 0 -1 -1 -1 -1 0 1 0 0 -1.00000000 -1.00000000
      >
    >
  >
  <TRACK '{0E2FE3F2-76C0-4A51-94D0-F118951ACC28}'
    NAME "PART REAL_GUITAR"
    PEAKCOL 16576
    BEAT -1
    AUTOMODE 0
    VOLPAN 1.00000000000000 0.00000000000000 -1.00000000000000 -1.00000000000000 1.00000000000000
    MUTESOLO 1 0 0
    IPHASE 0
    ISBUS 0 0
    BUSCOMP 0 0
    SHOWINMIX 1 0.666700 0.500000 1 0.500000 -1 -1 -1
    FREEMODE 0
    SEL 0
    REC 0 0 0 0 0 0 0
    TRACKHEIGHT 0 0
    INQ 0 0 0 0.5000000000 100 0 0 100
    NCHAN 2
    FX 1
    TRACKID {0E2FE3F2-76C0-4A51-94D0-F118951ACC28}
    PERF 0
    MIDIOUT -1
    <MIDINOTENAMES
      0 101 "EXPERT E String (HIGH)"
      0 100 "EXPERT B String"
      0 99 "EXPERT G String"
      0 98 "EXPERT D String"
      0 97 "EXPERT A String"
      0 96 "EXPERT E String (LOW)"
      0 77 "HARD E String (HIGH)"
      0 72 "HARD E String (LOW)"
      0 53 "MEDIUM E String (HIGH)"
      0 48 "MEDIUM E String (LOW)"
      0 29 "EASY E String (HIGH)"
      0 24 "EASY E String (LOW)"
      0 76 "HARD B String"
      0 75 "HARD G String"
      0 74 "HARD D String"
      0 73 "HARD A String"
      0 52 "MEDIUM B String"
      0 51 "MEDIUM G String"
      0 50 "MEDIUM D String"
      0 49 "MEDIUM A String"
      0 28 "EASY B String"
      0 27 "EASY G String"
      0 26 "EASY D String"
      0 25 "EASY A String"
      0 116 "OVERDRIVE"
      0 115 "Solo Marker"
      0 125 "BRE"
      0 120 "BRE (use all 6)"
      0 124 "BRE"
      0 123 "BRE"
      0 122 "BRE"
      0 121 "BRE"
      0 127 "Trill"
      0 126 "Tremelo"
      0 108 "Left hand position"
      0 107 "Force Chord Numbering"
      0 104 "EXPERT Arpeggio Marker"
      0 103 "EXPERT Slide Marker"
      0 102 "EXPERT Force Ho/Po"
      0 80 "HARD Arpeggio Marker"
      0 79 "HARD Slide Marker"
      0 78 "Force Ho/Po"
      0 55 "MEDIUM Slide Marker"
      0 31 "EASY Slide Marker"
      0 17 "Hide Chord Names"
      0 15 "Eb"
      0 14 "D"
      0 13 "Db"
      0 12 "C"
      0 11 "B"
      0 10 "Bb"
      0 9 "A"
      0 8 "Ab"
      0 7 "G"
      0 6 "Gb"
      0 5 "F"
      0 4 "E"
      0 105 "EXPERT Strum Direction"
      0 81 "HARD Strum Direction"
      0 56 "MEDIUM Arpeggio Marker"
      0 32 "EASY Arpeggio Marker"
      0 21 "CHORD NAMES"
      0 18 "Flat/Sharp Swap"
      0 16 "Slash Chord"
    >
    MAINSEND 1 0
    <FXCHAIN
      SHOW 0
      LASTSEL 0
      DOCKED 0
    >
    <ITEM
      POSITION 0.00000000000000
      SNAPOFFS 0.00000000000000
      LENGTH 191.63726755802182
      LOOP 0
      ALLTAKES 0
      SEL 0
      FADEIN 1 0.000000 0.000000 1 0
      FADEOUT 1 0.000000 0.000000 1 0
      MUTE 0
      IGUID {20F1321F-9ED7-4853-AD09-40B222B05CF8}
      IID 24
      NAME "PART REAL_GUITAR"
      VOLPAN 1.000000 0.000000 1.000000 -1.000000
      SOFFS 0.00000000000000 0.00000000000000
      PLAYRATE 1.00000000000000 1 0.00000000000000 -1
      CHANMODE 0
      GUID {3CDDC74F-292B-448F-83EC-680F8CEF1C9B}
      <SOURCE MIDI
        HASDATA 1 480 QN
        POOLEDEVTS {67593FD7-8F3E-49B7-BE9A-CF5EB8C89AA2}
        <X 0 0
          /wNQQVJUIFJFQUxfR1VJVEFS
        >
        E 3840 90 18 64
        E 0 90 19 64
        E 0 90 1a 64
        E 0 90 1b 64
        E 0 90 1c 64
        E 0 90 1d 64
        E 0 90 30 64
        E 0 90 31 64
        E 0 90 32 64
        E 0 90 33 64
        E 0 90 34 64
        E 0 90 35 64
        E 0 90 48 64
        E 0 90 49 64
        E 0 90 4a 64
        E 0 90 4b 64
        E 0 90 4c 64
        E 0 90 4d 64
        E 0 90 60 64
        E 0 90 61 64
        E 0 90 62 64
        E 0 90 63 64
        E 0 90 64 64
        E 0 90 65 64
        E 120 80 18 00
        E 0 80 19 00
        E 0 80 1a 00
        E 0 80 1b 00
        E 0 80 1c 00
        E 0 80 1d 00
        E 0 80 30 00
        E 0 80 31 00
        E 0 80 32 00
        E 0 80 33 00
        E 0 80 34 00
        E 0 80 35 00
        E 0 80 48 00
        E 0 80 49 00
        E 0 80 4a 00
        E 0 80 4b 00
        E 0 80 4c 00
        E 0 80 4d 00
        E 0 80 60 00
        E 0 80 61 00
        E 0 80 62 00
        E 0 80 63 00
        E 0 80 64 00
        E 0 80 65 00
        E 177000 b0 7b 00
        GUID {95EB2031-BC44-4B36-809B-F7595C07BF30}
        IGNTEMPO 0 120.00000000 4 4
        SRCCOLOR 1157
        VELLANE 132 123 128
        COLORMAP "C:\Program Files\REAPER\Data\color_maps\rockband_guitarbass.png"
        TEXTSTRINGFILE "C:\Program Files\REAPER\Data\Text_Strings\Text Events List.txt"
        CFGEDITVIEW 0.000000 0.103438 87 12 0 0 0
        CFGEDIT 1 1 0 0 0 1 1 1 1 1 1 0.25000000 0 0 683 728 1 0 0 2 0.12500000 0 1 0 0 0.500000 0 0 1.000000 64
        KEYSNAP 0 0 "102034050607" 0 "Major"
        EVTFILTER 0 -1 -1 -1 -1 0 1 0 0 -1.00000000 -1.00000000
      >
    >
  >
  <TRACK '{4048E3A2-B3FC-493C-BF0E-D7B7B9F9DFF3}'
    NAME "PART REAL_BASS"
    PEAKCOL 16576
    BEAT -1
    AUTOMODE 0
    VOLPAN 1.00000000000000 0.00000000000000 -1.00000000000000 -1.00000000000000 1.00000000000000
    MUTESOLO 1 0 0
    IPHASE 0
    ISBUS 0 0
    BUSCOMP 0 0
    SHOWINMIX 1 0.666700 0.500000 1 0.500000 -1 -1 -1
    FREEMODE 0
    SEL 0
    REC 0 0 0 0 0 0 0
    TRACKHEIGHT 0 0
    INQ 0 0 0 0.5000000000 100 0 0 100
    NCHAN 2
    FX 1
    TRACKID {4048E3A2-B3FC-493C-BF0E-D7B7B9F9DFF3}
    PERF 0
    MIDIOUT -1
    <MIDINOTENAMES
      0 99 "EXPERT G String"
      0 98 "EXPERT D String"
      0 97 "EXPERT A String"
      0 96 "EXPERT E String (LOW)"
      0 72 "HARD E String (LOW)"
      0 48 "MEDIUM E String (LOW)"
      0 24 "EASY E String (LOW)"
      0 75 "HARD G String"
      0 74 "HARD D String"
      0 73 "HARD A String"
      0 51 "MEDIUM G String"
      0 50 "MEDIUM D String"
      0 49 "MEDIUM A String"
      0 27 "EASY G String"
      0 26 "EASY D String"
      0 25 "EASY A String"
      0 116 "OVERDRIVE"
      0 115 "Solo Marker"
      0 120 "BRE (use all 6)"
      0 123 "BRE"
      0 122 "BRE"
      0 121 "BRE"
      0 127 "Trill"
      0 126 "Tremelo"
      0 125 "BRE"
      0 124 "BRE"
      0 108 "Left hand position"
      0 107 "Force Chord Numbering"
      0 104 "EXPERT Arpeggio Marker"
      0 103 "EXPERT Slide Marker"
      0 102 "EXPERT Force Ho/Po"
      0 101 "EXPERT E String (HIGH)"
      0 100 "EXPERT B String"
      0 80 "HARD Arpeggio Marker"
      0 79 "HARD Slide Marker"
      0 78 "Force Ho/Po"
      0 77 "HARD E String (HIGH)"
      0 76 "HARD B String"
      0 55 "MEDIUM Slide Marker"
      0 53 "MEDIUM E String (HIGH)"
      0 52 "MEDIUM B String"
      0 31 "EASY Slide Marker"
      0 29 "EASY E String (HIGH)"
      0 28 "EASY B String"
      0 17 "Hide Chord Names"
      0 15 "Eb"
      0 14 "D"
      0 13 "Db"
      0 12 "C"
      0 11 "B"
      0 10 "Bb"
      0 9 "A"
      0 8 "Ab"
      0 7 "G"
      0 6 "Gb"
      0 5 "F"
      0 4 "E"
      0 105 "EXPERT Strum Direction"
      0 81 "HARD Strum Direction"
      0 56 "MEDIUM Arpeggio Marker"
      0 32 "EASY Arpeggio Marker"
      0 21 "CHORD NAMES"
      0 18 "Flat/Sharp Swap"
      0 16 "Slash Chord"
    >
    MAINSEND 1 0
    <FXCHAIN
      SHOW 0
      LASTSEL 0
      DOCKED 0
    >
    <ITEM
      POSITION 0.00000000000000
      SNAPOFFS 0.00000000000000
      LENGTH 191.63726755802182
      LOOP 0
      ALLTAKES 0
      SEL 0
      FADEIN 1 0.000000 0.000000 1 0
      FADEOUT 1 0.000000 0.000000 1 0
      MUTE 0
      IGUID {20F1321F-9ED7-4853-AD09-40B222B05CF8}
      IID 25
      NAME "PART REAL_BASS"
      VOLPAN 1.000000 0.000000 1.000000 -1.000000
      SOFFS 0.00000000000000 0.00000000000000
      PLAYRATE 1.00000000000000 1 0.00000000000000 -1
      CHANMODE 0
      GUID {3CDDC74F-292B-448F-83EC-680F8CEF1C9B}
      <SOURCE MIDI
        HASDATA 1 480 QN
        POOLEDEVTS {946D3F07-5F89-4D48-B5EE-3EE483BA07E7}
        <X 0 0
          /wNQQVJUIFJFQUxfQkFTUw==
        >
        E 3840 90 18 64
        E 0 90 19 64
        E 0 90 1a 64
        E 0 90 1b 64
        E 0 90 30 64
        E 0 90 31 64
        E 0 90 32 64
        E 0 90 33 64
        E 0 90 48 64
        E 0 90 49 64
        E 0 90 4a 64
        E 0 90 4b 64
        E 0 90 60 64
        E 0 90 61 64
        E 0 90 62 64
        E 0 90 63 64
        E 120 80 18 00
        E 0 80 19 00
        E 0 80 1a 00
        E 0 80 1b 00
        E 0 80 30 00
        E 0 80 31 00
        E 0 80 32 00
        E 0 80 33 00
        E 0 80 48 00
        E 0 80 49 00
        E 0 80 4a 00
        E 0 80 4b 00
        E 0 80 60 00
        E 0 80 61 00
        E 0 80 62 00
        E 0 80 63 00
        E 177000 b0 7b 00
        GUID {95EB2031-BC44-4B36-809B-F7595C07BF30}
        IGNTEMPO 0 120.00000000 4 4
        SRCCOLOR 1158
        VELLANE 132 123 128
        COLORMAP "C:\Program Files\REAPER\Data\color_maps\rockband_guitarbass.png"
        TEXTSTRINGFILE "C:\Program Files\REAPER\Data\Text_Strings\Text Events List.txt"
        CFGEDITVIEW 0.000000 0.179136 0 12 0 0 0
        CFGEDIT 1 1 0 0 0 1 1 1 1 1 1 0.25000000 0 0 683 728 1 0 0 2 0.00000000 0 1 0 0 0.500000 0 0 1.000000 64
        KEYSNAP 0 0 "102034050607" 0 "Major"
        EVTFILTER 0 -1 -1 -1 -1 0 1 0 0 -1.00000000 -1.00000000
      >
    >
  >
  <TRACK '{1C079AF9-3D55-46D3-BC2A-95A2F006688E}'
    NAME "vocals - With_Tempo_Nakit"
    PEAKCOL 16576
    BEAT -1
    AUTOMODE 0
    VOLPAN 1.00000000000000 0.00000000000000 -1.00000000000000 -1.00000000000000 1.00000000000000
    MUTESOLO 0 0 0
    IPHASE 0
    ISBUS 0 0
    BUSCOMP 0 0
    SHOWINMIX 1 0.666700 0.500000 1 0.500000 -1 -1 -1
    FREEMODE 0
    SEL 0
    REC 0 0 0 0 0 0 0
    VU 2
    TRACKHEIGHT 0 0
    INQ 0 0 0 0.5000000000 100 0 0 100
    NCHAN 2
    FX 1
    TRACKID {1C079AF9-3D55-46D3-BC2A-95A2F006688E}
    PERF 0
    MIDIOUT -1
    MAINSEND 1 0
    <ITEM
      POSITION 0.00000000000000
      SNAPOFFS 0.00000000000000
      LENGTH 182.50142305697895
      LOOP 0
      ALLTAKES 0
      SEL 0
      FADEIN 1 0.000000 0.000000 1 0
      FADEOUT 1 0.000000 0.000000 1 0
      MUTE 0
      IGUID {B33B6BE6-0C6C-4A93-881C-F89B92B98665}
      IID 168
      NAME "vocals - With_Tempo_Nakit.mid"
      VOLPAN 1.000000 0.000000 1.000000 -1.000000
      SOFFS 0.00000000000000 0.00000000000000
      PLAYRATE 1.00000000000000 1 0.00000000000000 -1
      CHANMODE 0
      GUID {53B202CC-3B8E-48D8-A7B0-D9988B50F4C6}
      <SOURCE MIDI
        HASDATA 1 1920 QN
        POOLEDEVTS {14665E30-3EA4-46A5-BD88-0E40A53C6A8A}
        <X 0 0
          /wN2b2NhbHM=
        >
        E 9681 90 4e 10
        E 2823 90 49 18
        E 1664 80 49 00
        E 1200 90 40 18
        E 1920 80 40 00
        E 3979 80 4e 00
        E 206 90 47 18
        E 1577 80 47 00
        E 0 90 47 14
        E 420 80 47 00
        E 4581 90 42 18
        E 637 80 42 00
        E 1275 90 3e 1c
        E 969 80 3e 00
        E 0 90 3e 1b
        E 5506 80 3e 00
        E 2001 90 40 18
        E 592 80 40 00
        E 0 90 40 18
        E 1220 80 40 00
        E 1455 90 40 18
        E 582 80 40 00
        E 5943 90 4e 1d
        E 3103 80 4e 00
        E 0 90 43 1d
        E 706 80 43 00
        E 10 90 42 1d
        E 885 80 42 00
        E 0 90 42 19
        E 2294 80 42 00
        E 0 90 41 18
        E 488 80 41 00
        E 0 90 3e 18
        E 1360 80 3e 00
        E 0 90 3d 18
        E 2459 80 3d 00
        E 0 90 40 18
        E 1926 80 40 00
        E 0 90 3f 18
        E 3002 80 3f 00
        E 0 90 3d 18
        E 1191 80 3d 00
        E 3071 90 42 18
        E 23373 80 42 00
        E 13127 90 34 52
        E 1545 80 34 00
        E 0 90 34 2d
        E 1318 80 34 00
        E 1193 90 33 51
        E 1247 80 33 00
        E 36 90 39 38
        E 765 80 39 00
        E 122 90 31 5e
        E 603 80 31 00
        E 0 90 32 5b
        E 1364 80 32 00
        E 11 90 34 6a
        E 1027 80 34 00
        E 184 90 37 4a
        E 940 90 32 4f
        E 647 80 37 00
        E 0 80 32 00
        E 0 90 37 23
        E 675 80 37 00
        E 198 90 31 50
        E 1893 80 31 00
        E 10 90 37 60
        E 896 80 37 00
        E 10 90 39 60
        E 1375 80 39 00
        E 0 90 38 1d
        E 1789 80 38 00
        E 2968 90 3a 6d
        E 616 80 3a 00
        E 188 90 37 69
        E 483 80 37 00
        E 0 90 2a 7d
        E 1251 80 2a 00
        E 6383 90 32 4d
        E 1257 80 32 00
        E 94 90 33 59
        E 437 80 33 00
        E 111 90 34 4e
        E 1339 80 34 00
        E 21 90 37 5a
        E 633 80 37 00
        E 9 90 32 4e
        E 1439 80 32 00
        E 0 90 32 50
        E 386 80 32 00
        E 0 90 34 4e
        E 1410 80 34 00
        E 9 90 37 53
        E 629 80 37 00
        E 10 90 32 5b
        E 1275 80 32 00
        E 0 90 32 47
        E 598 80 32 00
        E 0 90 34 54
        E 1320 80 34 00
        E 10 90 37 46
        E 1840 80 37 00
        E 9 90 32 45
        E 649 80 32 00
        E 0 90 34 60
        E 1219 80 34 00
        E 10 90 37 53
        E 713 80 37 00
        E 9 90 3a 48
        E 1377 80 3a 00
        E 2797 90 39 4d
        E 1196 80 39 00
        E 791 90 39 62
        E 602 80 39 00
        E 274 90 37 66
        E 533 80 37 00
        E 1377 90 2d 50
        E 1009 80 2d 00
        E 4864 90 3c 5a
        E 1120 80 3c 00
        E 0 90 36 55
        E 809 80 36 00
        E 774 90 36 52
        E 897 80 36 00
        E 0 90 3b 5e
        E 471 80 3b 00
        E 0 90 3c 52
        E 730 80 3c 00
        E 851 90 3c 4e
        E 892 80 3c 00
        E 1057 90 3b 5f
        E 1037 80 3b 00
        E 0 90 3b 4c
        E 729 80 3b 00
        E 0 90 3b 52
        E 1072 80 3b 00
        E 972 90 3c 62
        E 1466 80 3c 00
        E 0 90 3b 6a
        E 605 80 3b 00
        E 0 90 39 57
        E 2228 80 39 00
        E 0 90 36 61
        E 444 80 36 00
        E 0 90 36 52
        E 608 80 36 00
        E 0 90 2c 6a
        E 852 80 2c 00
        E 0 90 36 5b
        E 3918 80 36 00
        E 2330 90 39 52
        E 1689 80 39 00
        E 3294 90 32 33
        E 880 80 32 00
        E 8 90 31 4e
        E 683 80 31 00
        E 0 90 35 3f
        E 876 80 35 00
        E 698 90 34 44
        E 160 80 34 00
        E 0 90 31 3c
        E 1050 80 31 00
        E 0 90 33 36
        E 658 80 33 00
        E 0 90 35 3c
        E 1031 80 35 00
        E 0 90 36 5f
        E 515 90 34 4d
        E 613 80 34 00
        E 346 80 36 00
        E 0 90 36 34
        E 652 80 36 00
        E 125 90 34 44
        E 802 80 34 00
        E 368 90 37 4f
        E 513 80 37 00
        E 0 90 32 4a
        E 1023 80 32 00
        E 0 90 32 3f
        E 574 80 32 00
        E 0 90 34 3c
        E 1070 80 34 00
        E 35 90 36 64
        E 492 80 36 00
        E 8 90 38 53
        E 1306 80 38 00
        E 0 90 3a 1e
        E 866 80 3a 00
        E 1915 90 37 43
        E 521 80 37 00
        E 889 90 3f 5a
        E 3253 80 3f 00
        E 2577 90 39 60
        E 240 80 39 00
        E 17960 90 2c 4b
        E 1302 80 2c 00
        E 0 90 2d 72
        E 3869 80 2d 00
        E 52 90 36 64
        E 2492 80 36 00
        E 0 90 39 21
        E 1187 80 39 00
        E 14 90 2e 70
        E 1296 80 2e 00
        E 0 90 3b 2a
        E 685 80 3b 00
        E 916 90 32 5c
        E 1547 80 32 00
        E 11 90 30 73
        E 419 80 30 00
        E 0 90 2e 6f
        E 1673 80 2e 00
        E 0 90 2b 4e
        E 740 80 2b 00
        E 2062 90 2f 49
        E 326 80 2f 00
        E 0 90 2d 4a
        E 2229 80 2d 00
        E 774 90 3d 27
        E 476 80 3d 00
        E 546 90 30 51
        E 695 80 30 00
        E 0 90 2e 54
        E 2328 80 2e 00
        E 386 90 36 4b
        E 321 80 36 00
        E 1616 90 31 42
        E 932 80 31 00
        E 1009 90 33 56
        E 403 80 33 00
        E 0 90 32 42
        E 959 80 32 00
        E 0 90 32 5f
        E 641 80 32 00
        E 702 90 33 50
        E 3022 80 33 00
        E 260 90 2f 46
        E 2071 80 2f 00
        E 9 90 30 4e
        E 1768 80 30 00
        E 24 90 2a 63
        E 1600 80 2a 00
        E 0 90 36 3f
        E 2139 80 36 00
        E 10 90 30 58
        E 1314 80 30 00
        E 0 90 32 46
        E 492 80 32 00
        E 0 90 33 5d
        E 1240 80 33 00
        E 186 90 31 3e
        E 552 80 31 00
        E 0 90 2f 3d
        E 1857 80 2f 00
        E 236 90 2a 3f
        E 1534 80 2a 00
        E 0 90 2f 55
        E 1366 80 2f 00
        E 0 90 30 5a
        E 668 80 30 00
        E 203 90 31 3e
        E 1215 80 31 00
        E 0 90 2f 3b
        E 620 80 2f 00
        E 10 90 2e 49
        E 1795 80 2e 00
        E 6471 90 31 61
        E 404 80 31 00
        E 0 90 31 69
        E 588 80 31 00
        E 172 90 32 69
        E 1969 80 32 00
        E 0 90 32 5c
        E 520 80 32 00
        E 0 90 34 67
        E 1218 80 34 00
        E 0 90 34 60
        E 910 80 34 00
        E 0 90 36 68
        E 2210 80 36 00
        E 0 90 37 67
        E 2276 80 37 00
        E 934 90 3e 4f
        E 675 80 3e 00
        E 0 90 38 55
        E 1593 80 38 00
        E 991 90 34 55
        E 1369 80 34 00
        E 10 90 39 44
        E 676 80 39 00
        E 204 90 31 56
        E 397 80 31 00
        E 0 90 32 36
        E 848 80 32 00
        E 10 90 34 54
        E 680 80 34 00
        E 0 90 34 59
        E 1515 80 34 00
        E 0 90 39 44
        E 423 80 39 00
        E 1448 90 32 59
        E 479 80 32 00
        E 138 90 33 4f
        E 1466 80 33 00
        E 11 90 38 4d
        E 606 80 38 00
        E 1491 90 33 50
        E 778 80 33 00
        E 0 90 37 4c
        E 1176 80 37 00
        E 0 90 37 56
        E 913 80 37 00
        E 11 90 3a 5b
        E 1706 80 3a 00
        E 0 90 3a 3d
        E 5221 80 3a 00
        E 7619 90 32 47
        E 648 80 32 00
        E 0 90 2b 64
        E 1554 80 2b 00
        E 0 90 36 44
        E 578 80 36 00
        E 555 90 28 5d
        E 1172 80 28 00
        E 1 90 32 56
        E 752 80 32 00
        E 1165 90 34 5e
        E 937 80 34 00
        E 310 90 38 51
        E 514 80 38 00
        E 8 90 27 57
        E 467 80 27 00
        E 0 90 32 61
        E 811 80 32 00
        E 131 90 33 35
        E 206 80 33 00
        E 0 90 33 57
        E 1430 80 33 00
        E 0 90 32 51
        E 1183 80 32 00
        E 980 90 35 5a
        E 813 80 35 00
        E 0 90 39 53
        E 1036 90 38 23
        E 497 80 38 00
        E 9 80 39 00
        E 0 90 39 1b
        E 1437 80 39 00
        E 1100 90 39 49
        E 1753 80 39 00
        E 0 90 39 5b
        E 608 80 39 00
        E 2578 90 32 57
        E 611 80 32 00
        E 6406 90 37 67
        E 454 80 37 00
        E 0 90 3c 56
        E 1161 80 3c 00
        E 778 90 3b 61
        E 1040 80 3b 00
        E 0 90 38 5d
        E 810 80 38 00
        E 0 90 3b 58
        E 899 80 3b 00
        E 1007 90 3a 63
        E 1410 80 3a 00
        E 0 90 3c 53
        E 588 80 3c 00
        E 0 90 3c 56
        E 1020 90 3f 3f
        E 560 80 3f 00
        E 343 80 3c 00
        E 0 90 3c 63
        E 1452 80 3c 00
        E 0 90 3c 68
        E 1200 80 3c 00
        E 0 90 3b 45
        E 700 80 3b 00
        E 0 90 3b 5b
        E 526 80 3b 00
        E 0 90 3a 66
        E 959 90 36 54
        E 651 80 3a 00
        E 0 80 36 00
        E 0 90 3a 63
        E 608 80 3a 00
        E 0 90 38 68
        E 682 80 38 00
        E 0 90 37 64
        E 749 80 37 00
        E 349 90 3a 65
        E 1430 80 3a 00
        E 3525 90 3a 58
        E 657 80 3a 00
        E 0 90 39 5d
        E 544 80 39 00
        E 0 90 38 4f
        E 361 80 38 00
        E 0 90 36 57
        E 273 80 36 00
        E 1017 90 35 5b
        E 393 80 35 00
        E 1238 90 32 4d
        E 1287 80 32 00
        E 490 90 34 55
        E 736 80 34 00
        E 6 90 2b 56
        E 326 80 2b 00
        E 981 90 37 59
        E 374 80 37 00
        E 0 90 36 60
        E 267 80 36 00
        E 0 90 35 54
        E 503 80 35 00
        E 0 90 37 53
        E 445 80 37 00
        E 332 90 32 52
        E 956 80 32 00
        E 0 90 35 4f
        E 958 80 35 00
        E 0 90 2a 50
        E 865 80 2a 00
        E 0 90 32 4e
        E 580 80 32 00
        E 0 90 32 57
        E 281 80 32 00
        E 0 90 34 65
        E 1196 80 34 00
        E 295 90 39 63
        E 301 80 39 00
        E 0 90 38 33
        E 930 80 38 00
        E 7 90 39 1a
        E 1503 80 39 00
        E 0 90 3d 30
        E 601 80 3d 00
        E 10 90 3c 65
        E 950 80 3c 00
        E 0 90 3a 5f
        E 488 80 3a 00
        E 323 90 37 6a
        E 152 80 37 00
        E 0 90 36 5d
        E 1617 80 36 00
        E 0 90 31 4a
        E 438 80 31 00
        E 2299 90 4e 1b
        E 472 80 4e 00
        E 21233 90 4c 18
        E 1966 80 4c 00
        E 1774 90 50 18
        E 2071 80 50 00
        E 4472 90 50 18
        E 321 80 50 00
        E 1506 90 50 18
        E 3912 80 50 00
        E 3538 90 53 18
        E 2803 80 53 00
        E 0 90 4d 18
        E 621 80 4d 00
        E 0 90 4c 18
        E 863 80 4c 00
        E 1393 90 4c 18
        E 683 80 4c 00
        E 0 90 50 18
        E 913 80 50 00
        E 0 90 4d 18
        E 957 80 4d 00
        E 0 90 4c 18
        E 1119 80 4c 00
        E 0 90 50 18
        E 787 80 50 00
        E 0 90 4c 18
        E 924 80 4c 00
        E 0 90 50 18
        E 728 80 50 00
        E 0 90 4d 18
        E 702 80 4d 00
        e 27469 90 2c 4a
        e 2343 80 2c 00
        e 10 90 30 75
        e 2256 80 30 00
        e 0 90 38 5b
        e 1590 80 38 00
        e 0 90 37 1e
        e 1829 80 37 00
        e 0 90 2f 49
        e 826 80 2f 00
        e 0 90 30 41
        e 810 80 30 00
        e 588 90 33 64
        e 2062 80 33 00
        e 10 90 30 58
        e 549 80 30 00
        e 10 90 31 3d
        e 6264 80 31 00
        e 0 90 31 5a
        e 1846 80 31 00
        e 148 90 30 42
        e 1790 80 30 00
        e 4097 90 33 4f
        e 309 80 33 00
        e 0 90 32 4a
        e 486 80 32 00
        e 0 90 32 56
        e 482 80 32 00
        e 0 90 31 5e
        e 2384 80 31 00
        e 248 90 42 3c
        e 1187 80 42 00
        e 0 90 30 54
        e 3965 80 30 00
        e 0 90 36 5f
        e 1394 80 36 00
        e 0 90 37 4a
        e 1923 80 37 00
        e 0 90 31 57
        e 1703 80 31 00
        e 0 90 32 5c
        e 884 80 32 00
        e 324 90 33 51
        e 1880 80 33 00
        e 0 90 30 48
        e 1881 80 30 00
        e 221 90 2c 36
        e 849 80 2c 00
        e 597 90 30 4b
        e 1259 80 30 00
        e 136 90 31 4d
        e 773 80 31 00
        e 9 90 32 5e
        e 718 80 32 00
        e 0 90 30 46
        e 603 80 30 00
        e 0 90 30 64
        e 458 80 30 00
        e 29 90 2f 52
        e 1620 80 2f 00
        e 22 90 2c 34
        e 1662 80 2c 00
        e 1024 90 3a 3d
        e 555 80 3a 00
        e 8 90 30 6c
        e 1588 80 30 00
        e 305 90 32 64
        e 1988 80 32 00
        e 482 90 33 69
        e 521 80 33 00
        e 1826 90 32 5c
        e 997 80 32 00
        e 1869 90 33 60
        e 364 80 33 00
        e 0 90 34 72
        e 433 80 34 00
        e 197 90 30 6b
        e 813 80 30 00
        e 1357 90 39 61
        e 746 80 39 00
        e 9 90 37 65
        e 1090 80 37 00
        e 0 90 3a 4f
        e 475 80 3a 00
        e 618 90 29 4d
        e 626 80 29 00
        e 0 90 36 65
        e 593 80 36 00
        e 0 90 38 5b
        e 1498 80 38 00
        e 0 90 35 48
        e 1224 80 35 00
        e 616 90 38 58
        e 987 80 38 00
        e 1 90 3c 4d
        e 1603 80 3c 00
        e 320 90 36 51
        e 208 80 36 00
        e 0 90 38 53
        e 772 80 38 00
        e 0 90 39 5e
        e 890 80 39 00
        e 148 90 3c 5f
        e 1532 80 3c 00
        e 0 90 3c 20
        e 1296 80 3c 00
        e 2701 90 40 5b
        e 752 80 40 00
        e 1953 90 2d 53
        e 412 80 2d 00
        e 0 90 39 20
        e 1962 80 39 00
        e 1673 90 37 66
        e 1916 90 36 5a
        e 409 80 36 00
        e 229 80 37 00
        e 0 90 37 4d
        e 909 80 37 00
        e 63 90 3b 60
        e 373 80 3b 00
        e 0 90 38 53
        e 1797 80 38 00
        e 8 90 37 49
        e 906 80 37 00
        e 193 90 2d 65
        e 658 80 2d 00
        e 0 90 35 63
        e 863 80 35 00
        e 0 90 34 58
        e 1917 80 34 00
        e 0 90 39 5b
        e 1098 80 39 00
        e 0 90 35 65
        e 1135 80 35 00
        e 0 90 36 56
        e 803 80 36 00
        e 0 90 37 62
        e 1115 80 37 00
        e 0 90 39 54
        e 782 80 39 00
        e 184 90 3c 58
        e 3079 80 3c 00
        e 1857 90 3e 60
        e 1042 80 3e 00
        e 0 90 3c 6f
        e 351 80 3c 00
        e 0 90 3c 61
        e 718 80 3c 00
        e 999 90 39 5c
        e 2284 80 39 00
        e 5020 90 3d 72
        e 435 80 3d 00
        e 0 90 32 69
        e 1391 80 32 00
        e 0 90 3e 60
        e 1058 80 3e 00
        e 0 90 3d 57
        e 1003 80 3d 00
        e 10 90 3e 62
        e 1038 80 3e 00
        e 740 90 3e 60
        e 1836 80 3e 00
        e 0 90 31 6b
        e 1322 80 31 00
        e 0 90 3c 51
        e 731 80 3c 00
        e 295 90 3e 5d
        e 845 80 3e 00
        e 49 90 40 49
        e 771 80 40 00
        e 0 90 40 63
        e 1563 80 40 00
        e 388 90 32 67
        e 1252 80 32 00
        e 690 90 33 64
        e 655 80 33 00
        e 186 90 3d 66
        e 345 80 3d 00
        e 0 90 39 52
        e 504 80 39 00
        e 0 90 30 67
        e 689 80 30 00
        e 0 90 3d 66
        e 1438 80 3d 00
        e 379 90 31 69
        e 655 80 31 00
        e 0 90 3a 6d
        e 681 80 3a 00
        e 0 90 3c 5f
        e 1031 80 3c 00
        e 9 90 3d 70
        e 465 80 3d 00
        e 1967 90 3d 69
        e 346 80 3d 00
        e 1099 90 3c 5a
        e 677 80 3c 00
        e 9 90 39 6a
        e 2015 80 39 00
        e 1014 90 3c 23
        e 113 80 3c 00
        e 887 90 35 64
        e 174 80 35 00
        e 796 90 37 6a
        e 437 80 37 00
        e 0 90 3a 62
        e 528 80 3a 00
        e 0 90 37 65
        e 860 80 37 00
        e 0 90 36 57
        e 435 80 36 00
        e 0 90 38 63
        e 770 80 38 00
        e 0 90 39 5a
        e 1446 80 39 00
        e 487 90 37 67
        e 767 80 37 00
        e 0 90 3a 62
        e 429 80 3a 00
        e 0 90 35 56
        e 753 80 35 00
        e 1486 90 39 57
        e 429 80 39 00
        e 0 90 3c 55
        e 1512 80 3c 00
        e 0 90 3b 1b
        e 2244 80 3b 00
        e 0 90 3d 66
        e 3731 80 3d 00
        e 2040 90 49 4d
        e 357 80 49 00
        e 1555 90 38 65
        e 937 80 38 00
        e 550 90 35 60
        e 250 80 35 00
        e 18 90 38 26
        e 244 80 38 00
        e 3808 90 3a 68
        e 880 80 3a 00
        e 571 90 34 5e
        e 533 80 34 00
        E 1844 b0 7b 00
        GUID {4A973D12-F0FD-46E3-8E4F-0AA1F9051403}
        IGNTEMPO 0 120.00000000 4 4
        SRCCOLOR 1159
        VELLANE 132 38 60
        COLORMAP "C:\Program Files\REAPER (x64)\REAPER\Data\color_maps\rockband_guitarbass.png"
        CFGEDITVIEW -4673.420606 31.510966 37 12 0 0 0
        CFGEDIT 1 1 0 1 0 0 1 1 1 0 1 0.12500000 -8 -8 1370 736 1 0 1 0 0.00000000 0 0 0 0 0.500000 0 0 1.000000 64
        KEYSNAP 0 11 "102304056070" 0 "Natural minor"
        EVTFILTER 0 -1 -1 -1 -1 0 1 0 0 -1.00000000 -1.00000000
      >
    >
  >
>
