<REAPER_PROJECT 0.1 "4.22/x64"
  RIPPLE 0
  GROUPOVERRIDE 0 1 0
  AUTOXFADE 1
  ENVATTACH 1
  MIXERUIFLAGS 11 48
  PEAKGAIN 1.00000000000000
  FEEDBACK 0
  PANLAW 1.00000000000000
  PROJOFFS 0.00000000000000 0
  MAXPROJLEN 0 600.00000000000000
  GRID 1407 8 1.00000000000000 8 1.00000000000000 0
  TIMEMODE 1 0 -1
  CURSOR 32.28790879481380
  ZOOM 47.22818586412895 2297 0
  VZOOMEX 0
  USE_REC_CFG 0
  RECMODE 1
  SMPTESYNC 0 30.000000 100 40 1000 300 0 0.000000 0
  LOOP 0
  LOOPGRAN 0 4.00000000000000
  RECORD_PATH "" ""
  <RECORD_CFG
    ZXZhdxgA
  >
  <APPLYFX_CFG
  >
  RENDER_FILE ""
  RENDER_PATTERN ""
  RENDER_FMT 0 2 0
  RENDER_1X 0
  RENDER_RANGE 1 0.00000000000000 0.00000000000000
  RENDER_RESAMPLE 3 0 1
  RENDER_ADDTOPROJ 0
  RENDER_STEMS 0
  RENDER_DITHER 0
  TIMELOCKMODE 0
  ITEMMIX 0
  DEFPITCHMODE 0
  TAKELANE 1
  SAMPLERATE 44100 0 0
  <RENDER_CFG
  >
  LOCK 1
  <METRONOME 6 2.000000
    VOL 0.752735 0.723913
    FREQ 800 1600 0
    BEATLEN 4
    SAMPLES "" ""
  >
  GLOBAL_AUTO -1
  TEMPO 120.00000000000000 4 4
  PLAYRATE 1.00000000000000 0 0.25000 4.00000
  SELECTION 0.00000000000000 0.00000000000000
  SELECTION2 0.00000000000000 0.00000000000000
  MASTERAUTOMODE 0
  MASTERTRACKHEIGHT 35
  MASTERPEAKCOL 16576
  MASTERMUTESOLO 0
  MASTERTRACKVIEW 1 0.666700 0.500000 0.500000 -1 -1 -1
  MASTERHWOUT 0 0 1.00000000000000 0.00000000000000 0 0 0 -1.00000000000000
  MASTER_NCH 2 2
  MASTER_VOLUME 1.05925372517729 0.00000000000000 -1.00000000000000 -1.00000000000000 1.00000000000000
  MASTER_FX 1
  MASTER_SEL 0
  <MASTERFXLIST
    SHOW 0
    LASTSEL 0
    DOCKED 0
    BYPASS 0 0
    <VST "VST: W1 Limiter (George Yohng)" "George Yohng_s W1 Limiter.dll" 0 ""
      THdGNO5e7f4CAAAAAQAAAAAAAAACAAAAAAAAAAIAAAABAAAAAAAAAA==
      AgAAAAAAAABMAAAAAQAAAAAAEAAMAACBdGhyZXNoAAD+1Hg/DAAAgQ==
      Y2VpbGluZwD+1Hg/DAAAgXJlbGVhc2UAMEAfPxQAAIFhZGFwdFJlbA==
      ZWFzZQAAAAAAAAAAAAAAgAAAEAAAAA==
    >
    FLOATPOS 24 24 481 152
    FXID {69D45D23-FE06-4141-B0BB-1A6D9443AFA8}
    WAK 0
  >
  <MASTERPLAYSPEEDENV
    ACT 0
    VIS 0 1 1.000000
    LANEHEIGHT 0 0
    ARM 0
    DEFSHAPE 0 -1 -1
  >
  <TEMPOENVEX
    ACT 1
    VIS 1 0 1.000000
    LANEHEIGHT 0 0
    ARM 0
    DEFSHAPE 1 -1 -1
    PT 0.000000000000 145.0000000000 1
    PT 1.655172413793 145.0878169691 1
    PT 3.309343005188 145.1147866367 1
    PT 4.963206168015 144.9430253963 1
    PT 6.619029201540 144.9430253963 1
    PT 11.586498302116 144.9918413016 1
    PT 13.241763852547 144.7915992421 1
    PT 14.899318581248 144.9730729779 1
    PT 16.554798423608 144.9730729779 1
    PT 19.865758108330 143.5276059144 1
    PT 21.537910294462 145.2443619400 1
    PT 23.190298013987 144.1419379405 1
    PT 24.855323498097 145.8019218707 1
    PT 26.501392335330 145.8019218707 1
    PT 28.147461172563 143.8689418460 1
    PT 29.815646097819 145.8019218707 1
    PT 31.461714935052 145.2443619401 1
    PT 33.114102654577 145.5226078441 1
    PT 34.763330932956 145.5302034043 1
    PT 36.412473134271 145.2567776217 1
    PT 38.064719617565 144.6904743951 1
    PT 39.723432818993 144.9478539335 1
    PT 41.379200693350 145.2443619400 1
    PT 43.031588412875 143.3260401786 1
    PT 44.706092220424 146.6463345456 1
    PT 46.342682734218 145.5226078441 1
    PT 47.991911012597 145.8019218707 1
    PT 49.637979849829 144.9671780432 1
    PT 51.293527010501 144.4159720430 1
    PT 52.955393053465 145.5226078441 1
    PT 54.604621331844 145.8019218707 1
    PT 56.250690169077 144.6910500850 1
    PT 57.909396770894 144.9671780432 1
    PT 59.564943931566 144.9671780432 1
    PT 61.220491092237 144.9671780432 1
  >
  <PROJBAY
  >
  <TRACK '{4D889F49-FE1F-4D1D-9FB8-BFD5BA06901A}'
    NAME "SONG AUDIO"
    PEAKCOL 16576
    BEAT -1
    AUTOMODE 0
    VOLPAN 1.00000000000000 0.00000000000000 -1.00000000000000 -1.00000000000000 1.00000000000000
    MUTESOLO 0 0 0
    IPHASE 0
    ISBUS 0 0
    BUSCOMP 0 0
    SHOWINMIX 1 0.666700 0.500000 1 0.500000 -1 -1 -1
    FREEMODE 0
    SEL 0
    REC 0 0 0 0 0 0 0
    TRACKHEIGHT 273 0
    INQ 0 0 0 0.5000000000 100 0 0 100
    NCHAN 2
    FX 1
    TRACKID {4D889F49-FE1F-4D1D-9FB8-BFD5BA06901A}
    PERF 0
    MIDIOUT -1
    MAINSEND 1 0
    <FXCHAIN
      SHOW 0
      LASTSEL 0
      DOCKED 0
      BYPASS 0 0
      <VST "VST: W1 Limiter (George Yohng)" "George Yohng_s W1 Limiter.dll" 0 ""
        THdGNO5e7f4CAAAAAQAAAAAAAAACAAAAAAAAAAIAAAABAAAAAAAAAA==
        AgAAAAAAAABMAAAAAQAAAAAAEAAMAACBdGhyZXNoAAD+1Hg/DAAAgQ==
        Y2VpbGluZwD+1Hg/DAAAgXJlbGVhc2UAMEAfPxQAAIFhZGFwdFJlbA==
        ZWFzZQAAAAAAAAAAAAAAgAAAEAAAAA==
      >
      FLOATPOS 24 24 481 152
      FXID {D32BE511-3942-4A83-B6D7-DF2FE763A2B4}
      WAK 0
    >
    <ITEM
      POSITION 0.00000000000000
      SNAPOFFS 0.00000000000000
      LENGTH 0.28216019417451
      LOOP 0
      ALLTAKES 0
      SEL 0
      FADEIN 1 0.000000 0.000000 1 0
      FADEOUT 1 0.000000 0.000000 1 0
      MUTE 0
      IGUID {9644A543-21AB-41D6-9776-B1B82C894A43}
      IID 1
      NAME "stick.wav"
      VOLPAN 0.271028 0.000000 1.000000 -1.000000
      SOFFS 0.00000000000000
      PLAYRATE 1.00000000000052 1 0.00000000000000 -1
      CHANMODE 0
      GUID {492127AD-AE9D-46F8-9E82-CE4A89CED82B}
      <SOURCE WAVE
        FILE "C:\Users\wejaa\AppData\Roaming\REAPER\ProjectTemplates\hihat.wav"
      >
    >
    <ITEM
      POSITION 0.82758620689655
      SNAPOFFS 0.00000000000000
      LENGTH 0.28216019417451
      LOOP 0
      ALLTAKES 0
      SEL 0
      FADEIN 1 0.000000 0.000000 1 0
      FADEOUT 1 0.000000 0.000000 1 0
      MUTE 0
      IGUID {ADDF3FD6-EEE7-4F45-8D0D-D0EB027A0E86}
      IID 2
      NAME "stick.wav"
      VOLPAN 0.271028 0.000000 1.000000 -1.000000
      SOFFS 0.00000000000000
      PLAYRATE 1.00000000000052 1 0.00000000000000 -1
      CHANMODE 0
      GUID {16E6D22D-A737-4A7B-BFA2-99288E0B463F}
      <SOURCE WAVE
        FILE "C:\Users\wejaa\AppData\Roaming\REAPER\ProjectTemplates\hihat.wav"
      >
    >
    <ITEM
      POSITION 1.65517241379310
      SNAPOFFS 0.00000000000000
      LENGTH 0.28216019417451
      LOOP 0
      ALLTAKES 0
      SEL 0
      FADEIN 1 0.000000 0.000000 1 0
      FADEOUT 1 0.000000 0.000000 1 0
      MUTE 0
      IGUID {47B3C3C2-F585-4AA0-8C24-53D9EB16BE2B}
      IID 3
      NAME "stick.wav"
      VOLPAN 0.271028 0.000000 1.000000 -1.000000
      SOFFS 0.00000000000000
      PLAYRATE 1.00000000000052 1 0.00000000000000 -1
      CHANMODE 0
      GUID {30C48B36-8095-4B9F-B214-1F8EA6F61992}
      <SOURCE WAVE
        FILE "C:\Users\wejaa\AppData\Roaming\REAPER\ProjectTemplates\hihat.wav"
      >
    >
    <ITEM
      POSITION 2.06896551724138
      SNAPOFFS 0.00000000000000
      LENGTH 0.28216019417451
      LOOP 0
      ALLTAKES 0
      SEL 0
      FADEIN 1 0.000000 0.000000 1 0
      FADEOUT 1 0.000000 0.000000 1 0
      MUTE 0
      IGUID {9DB57222-57A3-4B48-9965-37367502055A}
      IID 4
      NAME "stick.wav"
      VOLPAN 0.271028 0.000000 1.000000 -1.000000
      SOFFS 0.00000000000000
      PLAYRATE 1.00000000000052 1 0.00000000000000 -1
      CHANMODE 0
      GUID {8B418423-BE61-4520-A01A-79D90DC253C6}
      <SOURCE WAVE
        FILE "C:\Users\wejaa\AppData\Roaming\REAPER\ProjectTemplates\hihat.wav"
      >
    >
    <ITEM
      POSITION 2.48275862068966
      SNAPOFFS 0.00000000000000
      LENGTH 0.28216019417451
      LOOP 0
      ALLTAKES 0
      SEL 0
      FADEIN 1 0.000000 0.000000 1 0
      FADEOUT 1 0.000000 0.137263 1 1
      MUTE 0
      IGUID {3D34010C-3330-409D-BEAD-8C2F63F5D479}
      IID 5
      NAME "stick.wav"
      VOLPAN 0.271028 0.000000 1.000000 -1.000000
      SOFFS 0.00000000000000
      PLAYRATE 1.00000000000050 1 0.00000000000000 -1
      CHANMODE 0
      GUID {A8FFADE6-FA7D-4FEA-A32C-7619565C8C1C}
      <SOURCE WAVE
        FILE "C:\Users\wejaa\AppData\Roaming\REAPER\ProjectTemplates\hihat.wav"
      >
    >
    <ITEM
      POSITION 2.62765604676679
      SNAPOFFS 0.00000000000000
      LENGTH 61.86489583333334
      LOOP 0
      ALLTAKES 0
      SEL 0
      FADEIN 1 0.000000 0.137263 1 1
      FADEOUT 1 0.000000 0.000000 1 0
      MUTE 0
      IGUID {004B9EB8-A0A7-4354-80E2-444D1BFD425E}
      IID 26
      NAME "primevideopokmonsarjaalkukausi2.wav"
      VOLPAN 1.000000 0.000000 1.000000 -1.000000
      SOFFS 0.00000000000000
      PLAYRATE 1.00000000000000 1 0.00000000000000 -1
      CHANMODE 0
      GUID {83D2BB45-9F0B-40AF-A6F4-3899F096DEDC}
      <SOURCE WAVE
        FILE "primevideopokmonsarjaalkukausi2.wav"
      >
    >
    <ITEM
      POSITION 2.89655172413793
      SNAPOFFS 0.00000000000000
      LENGTH 0.28216019417451
      LOOP 0
      ALLTAKES 0
      SEL 0
      FADEIN 1 0.000000 0.000000 1 0
      FADEOUT 1 0.000000 0.000000 1 0
      MUTE 0
      IGUID {2519D76E-34D4-4D93-95A1-9B85768CE9C6}
      IID 6
      NAME "stick.wav"
      VOLPAN 0.271028 0.000000 1.000000 -1.000000
      SOFFS 0.00000000000000
      PLAYRATE 1.00000000000052 1 0.00000000000000 -1
      CHANMODE 0
      GUID {DF283D59-9F3C-4536-A629-852E06CAECB6}
      <SOURCE WAVE
        FILE "C:\Users\wejaa\AppData\Roaming\REAPER\ProjectTemplates\hihat.wav"
      >
    >
  >
  <TRACK '{4DB50E39-8BDA-4359-B1F0-08D83045544B}'
    NAME "primevideopokmonsarjaalkukausi2-drums-G minor-145bpm-440hz"
    PEAKCOL 16576
    BEAT -1
    AUTOMODE 0
    VOLPAN 1.00000000000000 0.00000000000000 -1.00000000000000 -1.00000000000000 1.00000000000000
    MUTESOLO 0 0 0
    IPHASE 0
    ISBUS 0 0
    BUSCOMP 0 0
    SHOWINMIX 1 0.666700 0.500000 1 0.500000 -1 -1 -1
    FREEMODE 0
    SEL 0
    REC 0 0 0 0 0 0 0
    VU 2
    TRACKHEIGHT 169 0
    INQ 0 0 0 0.5000000000 100 0 0 100
    NCHAN 2
    FX 1
    TRACKID {4DB50E39-8BDA-4359-B1F0-08D83045544B}
    PERF 0
    MIDIOUT -1
    MAINSEND 1 0
    <ITEM
      POSITION 2.62765604676353
      SNAPOFFS 0.00000000000000
      LENGTH 61.88512471655329
      LOOP 0
      ALLTAKES 0
      SEL 0
      FADEIN 1 0.000000 0.000000 1 0
      FADEOUT 1 0.000000 0.000000 1 0
      MUTE 0
      IGUID {19B355EB-BAD6-4ED8-930B-5016DBAA4C24}
      IID 53
      NAME "primevideopokmonsarjaalkukausi2-drums-G minor-145bpm-440hz.mp3"
      VOLPAN 1.000000 0.000000 1.000000 -1.000000
      SOFFS 0.00000000000000
      PLAYRATE 1.00000000000000 1 0.00000000000000 -1
      CHANMODE 0
      GUID {70B2C110-EB40-4AD9-A89C-56728CE541DC}
      <SOURCE MP3
        FILE "primevideopokmonsarjaalkukausi2-drums-G minor-145bpm-440hz.mp3" 1
      >
    >
  >
  <TRACK '{BDCFF37A-71AC-4D17-AF26-EA560B308842}'
    NAME "COUNTIN"
    PEAKCOL 16576
    BEAT -1
    AUTOMODE 0
    VOLPAN 1.00000000000000 0.00000000000000 -1.00000000000000 -1.00000000000000 1.00000000000000
    MUTESOLO 0 0 0
    IPHASE 0
    ISBUS 0 0
    BUSCOMP 0 0
    SHOWINMIX 1 0.666700 0.500000 1 0.500000 -1 -1 -1
    FREEMODE 0
    SEL 0
    REC 0 0 0 0 0 0 0
    TRACKHEIGHT 0 0
    INQ 0 0 0 0.5000000000 100 0 0 100
    NCHAN 2
    FX 1
    TRACKID {BDCFF37A-71AC-4D17-AF26-EA560B308842}
    PERF 0
    MIDIOUT -1
    MAINSEND 1 0
  >
  <TRACK '{8F33A645-3DF2-48FA-99BC-10992A4F8042}'
    NAME "PART DRUMS"
    PEAKCOL 16842751
    BEAT -1
    AUTOMODE 0
    VOLPAN 1.00000000000000 0.00000000000000 -1.00000000000000 -1.00000000000000 1.00000000000000
    MUTESOLO 0 0 0
    IPHASE 0
    ISBUS 0 0
    BUSCOMP 1 0
    SHOWINMIX 1 0.666700 0.500000 1 0.500000 -1 -1 -1
    FREEMODE 0
    SEL 0
    REC 0 4096 1 7 0 0 0
    TRACKHEIGHT 63 0
    INQ 0 0 0 0.5000000000 100 0 0 100
    NCHAN 2
    FX 1
    TRACKID {8F33A645-3DF2-48FA-99BC-10992A4F8042}
    PERF 0
    MIDIOUT -1
    <MIDINOTENAMES
      0 84 "HARD Kick"
      0 96 "EXPERT Kick"
      0 72 "MEDIUM Kick"
      0 60 "EASY Kick"
      0 97 "EXPERT Red"
      0 98 "EXPERT Yellow"
      0 99 "EXPERT Blue"
      0 100 "EXPERT Green"
      0 85 "HARD Red"
      0 86 "HARD Yellow"
      0 87 "HARD Blue"
      0 88 "HARD Green"
      0 73 "MEDIUM Red"
      0 74 "MEDIUM Yellow"
      0 75 "MEDIUM Blue"
      0 76 "MEDIUM Green"
      0 61 "EASY Red"
      0 62 "EASY Yellow"
      0 63 "EASY Blue"
      0 64 "EASY Green"
      0 101 ""
      0 92 "----"
      0 80 "----"
      0 68 "----"
      0 120 "DRUM FILL (use all 5)"
      0 121 "DRUM FILL"
      0 122 "DRUM FILL"
      0 123 "DRUM FILL"
      0 124 "DRUM FILL"
      0 114 "----"
      0 116 "OVERDRIVE"
      0 118 "----"
      0 24 "KICK RF"
      0 25 "HI-HAT OPEN"
      0 26 "SNARE HARD LH"
      0 27 "SNARE HARD RH"
      0 30 "HI-HAT LH"
      0 31 "HI-HAT RH"
      0 32 "PERCUSSION RH"
      0 34 "CRASH1 HARD LH"
      0 35 "CRASH1 SOFT LH"
      0 36 "CRASH1 HARD RH"
      0 37 "CRASH1 SOFT RH"
      0 38 "CRASH2 HARD RH"
      0 39 "CRASH2 SOFT RH"
      0 40 "CRASH1 CHOKE"
      0 41 "CRASH2 CHOKE"
      0 42 "RIDE CYM RH"
      0 46 "TOM1 LH"
      0 47 "TOM1 RH"
      0 48 "TOM2 LH"
      0 49 "TOM2 RH"
      0 50 "FLOOR TOM LH"
      0 51 "FLOOR TOM RH"
      0 52 "--DRUM ANIMATION--"
      0 56 "----"
      0 103 "Solo Marker"
      0 102 "----"
      0 110 "PRO Yellow Tom"
      0 111 "PRO Blue Tom"
      0 112 "PRO Green Tom"
      0 108 "----"
      0 127 "Roll Marker 2-Lane / Cym"
      0 126 "Roll Marker 1-Lane"
      0 125 "----"
      0 28 "SNARE RIM LH"
      0 29 "SNARE RIM RH"
      0 43 "RIDE CYM LH"
      0 44 "CRASH2 HARD LH"
      0 45 "CRASH2 SOFT LH"
      0 33 "PERCUSSION LH"
    >
    MAINSEND 1 0
    <FXCHAIN
      WNDRECT 1312 1208 878 574
      SHOW 0
      LASTSEL 1
      DOCKED 0
      BYPASS 1 0
      <VST "VSTi: ReaSynth (Cockos)" "reasynth.dll" 0 ""
        eXNlcu9e7f4AAAAAAgAAAAEAAAAAAAAAAgAAAAAAAAA4AAAAAAAAAA==
        AAAAAO++rd4N8K3eAAAAAAAAAAAAAAAAAAAAADm0SD59y9s+tbSxOQ==
        AAAAALbz/T5VpCs6AAAAAAAAAAAAAAAAAAA=
      >
      FLOATPOS 0 0 0 0
      FXID {58F55556-9407-4062-A048-6AFCC0B53535}
      WAK 0
      BYPASS 0 0
      <VST "VSTi: RBN Preview (RBN)" "rbprev_vst64_beta.dll" 0 ""
        dnBicu5e7f4AAAAAAgAAAAEAAAAAAAAAAgAAAAAAAAAEAAAAAQAAAA==
        AAAAAAMBqgAAAAAAAAA=
      >
      FLOATPOS 32 32 659 497
      FXID {D7126437-AB1E-4109-A0FA-F2D5D0AC68DC}
      WAK 0
    >
    <ITEM
      POSITION 0.00000000000000
      SNAPOFFS 0.00000000000000
      LENGTH 65.21492178400015
      LOOP 0
      ALLTAKES 0
      COLOR 19150555
      SEL 0
      FADEIN 1 0.000000 0.000000 1 0
      FADEOUT 1 0.000000 0.000000 1 0
      MUTE 0
      IGUID {9FF11F36-E94F-4396-9C0E-8449C916EC21}
      IID 7
      NAME "PART DRUMS"
      VOLPAN 1.000000 0.000000 1.000000 -1.000000
      SOFFS 0.00000000000000 0.00000000000000
      PLAYRATE 1.00000000000000 1 0.00000000000000 -65536
      CHANMODE 0
      GUID {70A79ADF-E70C-430A-913F-E16D0CC85517}
      <SOURCE MIDI
        HASDATA 1 480 QN
        POOLEDEVTS {64FFF0AE-3B5C-40FE-83FA-FCE5A209FAA5}
        <X 0 0
          /wNQQVJUIERSVU1T
        >
        <X 300 0
          /wFbbWl4IDEgZHJ1bXMwXQ==
        >
        <X 0 0
          /wFbbWl4IDAgZHJ1bXMwXQ==
        >
        <X 60 0
          /wFbbWl4IDIgZHJ1bXMwXQ==
        >
        <X 60 0
          /wFbbWl4IDMgZHJ1bXMwXQ==
        >
        <X 3420 0
          /wFbcGxheV0=
        >
        E 0 90 18 60
        E 0 90 1a 60
        E 0 90 26 60
        E 0 90 3d 60
        E 0 90 40 60
        E 0 90 49 60
        E 0 90 4c 60
        E 0 90 54 60
        E 0 90 55 60
        E 0 90 58 60
        E 0 90 60 60
        E 0 90 61 60
        E 0 90 64 60
        E 60 80 18 00
        E 0 80 1a 00
        E 0 80 26 00
        E 0 80 3d 00
        E 0 80 40 00
        E 0 80 49 00
        E 0 80 4c 00
        E 0 80 54 00
        E 0 80 55 00
        E 0 80 58 00
        E 0 80 60 00
        E 0 80 61 00
        E 0 80 64 00
        E 420 90 1b 60
        E 0 90 3d 60
        E 0 90 49 60
        E 0 90 55 60
        E 0 90 61 60
        E 20 80 1b 00
        E 0 80 3d 00
        E 0 80 49 00
        E 0 80 55 00
        E 0 80 61 00
        E 100 90 1a 60
        E 0 90 61 60
        E 20 80 1a 00
        E 0 80 61 00
        E 100 90 1b 60
        E 0 90 55 60
        E 0 90 61 60
        E 20 80 1b 00
        E 0 80 55 00
        E 0 80 61 00
        E 100 90 1a 60
        E 0 90 61 60
        E 20 80 1a 00
        E 0 80 61 00
        E 100 90 1b 60
        E 0 90 3d 60
        E 0 90 49 60
        E 0 90 55 60
        E 0 90 61 60
        E 20 80 1b 00
        E 0 80 3d 00
        E 0 80 49 00
        E 0 80 55 00
        E 0 80 61 00
        E 220 90 31 60
        E 0 90 57 60
        E 0 90 63 60
        E 0 90 6f 60
        E 60 80 31 00
        E 0 80 57 00
        E 0 80 63 00
        E 0 80 6f 00
        E 180 90 31 60
        E 0 90 3f 60
        E 0 90 4b 60
        E 0 90 57 60
        E 0 90 63 60
        E 0 90 6f 60
        E 60 80 31 00
        E 0 80 3f 00
        E 0 80 4b 00
        E 0 80 57 00
        E 0 80 63 00
        E 0 80 6f 00
        E 180 90 33 60
        E 0 90 58 60
        E 0 90 64 60
        E 0 90 70 60
        E 60 80 33 00
        E 0 80 58 00
        E 0 80 64 00
        E 0 80 70 00
        E 180 90 33 60
        E 0 90 40 60
        E 0 90 4c 60
        E 0 90 58 60
        E 0 90 64 60
        E 0 90 70 60
        E 60 80 33 00
        E 0 80 40 00
        E 0 80 4c 00
        E 0 80 58 00
        E 0 80 64 00
        E 0 80 70 00
        E 180 90 33 60
        E 0 90 58 60
        E 0 90 64 60
        E 0 90 70 60
        E 60 80 33 00
        E 0 80 58 00
        E 0 80 64 00
        E 0 80 70 00
        E 180 90 31 60
        E 0 90 3f 60
        E 0 90 4b 60
        E 0 90 57 60
        E 0 90 63 60
        E 0 90 6f 60
        E 60 80 31 00
        E 0 80 3f 00
        E 0 80 4b 00
        E 0 80 57 00
        E 0 80 63 00
        E 0 80 6f 00
        E 180 90 31 60
        E 0 90 57 60
        E 0 90 63 60
        E 0 90 6f 60
        E 60 80 31 00
        E 0 80 57 00
        E 0 80 63 00
        E 0 80 6f 00
        E 180 90 31 60
        E 0 90 3f 60
        E 0 90 4b 60
        E 0 90 57 60
        E 0 90 63 60
        E 0 90 6f 60
        E 60 80 31 00
        E 0 80 3f 00
        E 0 80 4b 00
        E 0 80 57 00
        E 0 80 63 00
        E 0 80 6f 00
        E 180 90 2f 60
        E 0 90 56 60
        E 0 90 62 60
        E 0 90 6e 60
        E 60 80 2f 00
        E 0 80 56 00
        E 0 80 62 00
        E 0 80 6e 00
        E 60 90 2e 60
        E 0 90 62 60
        E 0 90 6e 60
        E 60 80 2e 00
        E 0 80 62 00
        E 0 80 6e 00
        E 60 90 1b 60
        E 0 90 3d 60
        E 0 90 49 60
        E 0 90 55 60
        E 0 90 61 60
        E 60 80 1b 00
        E 0 80 3d 00
        E 0 80 49 00
        E 0 80 55 00
        E 0 80 61 00
        E 180 90 18 60
        E 0 90 1f 60
        E 0 90 54 60
        E 0 90 56 60
        E 0 90 60 60
        E 0 90 62 60
        E 60 80 18 00
        E 0 80 1f 00
        E 0 80 54 00
        E 0 80 56 00
        E 0 80 60 00
        E 0 80 62 00
        E 180 90 1f 60
        E 0 90 3e 60
        E 0 90 4a 60
        E 0 90 56 60
        E 0 90 62 60
        E 60 80 1f 00
        E 0 80 3e 00
        E 0 80 4a 00
        E 0 80 56 00
        E 0 80 62 00
        E 180 90 1f 60
        E 0 90 56 60
        E 0 90 62 60
        E 60 80 1f 00
        E 0 80 56 00
        E 0 80 62 00
        E 180 90 1f 60
        E 0 90 3e 60
        E 0 90 4a 60
        E 0 90 56 60
        E 0 90 62 60
        E 60 80 1f 00
        E 0 80 3e 00
        E 0 80 4a 00
        E 0 80 56 00
        E 0 80 62 00
        E 180 90 1f 60
        E 0 90 56 60
        E 0 90 62 60
        E 60 80 1f 00
        E 0 80 56 00
        E 0 80 62 00
        E 180 90 1f 60
        E 0 90 3e 60
        E 0 90 4a 60
        E 0 90 56 60
        E 0 90 62 60
        E 60 80 1f 00
        E 0 80 3e 00
        E 0 80 4a 00
        E 0 80 56 00
        E 0 80 62 00
        E 180 90 1f 60
        E 0 90 56 60
        E 0 90 62 60
        E 60 80 1f 00
        E 0 80 56 00
        E 0 80 62 00
        E 180 90 1f 60
        E 0 90 3e 60
        E 0 90 4a 60
        E 0 90 56 60
        E 0 90 62 60
        E 60 80 1f 00
        E 0 80 3e 00
        E 0 80 4a 00
        E 0 80 56 00
        E 0 80 62 00
        E 180 90 1f 60
        E 0 90 56 60
        E 0 90 62 60
        E 60 80 1f 00
        E 0 80 56 00
        E 0 80 62 00
        E 180 90 1f 60
        E 0 90 3e 60
        E 0 90 4a 60
        E 0 90 56 60
        E 0 90 62 60
        E 60 80 1f 00
        E 0 80 3e 00
        E 0 80 4a 00
        E 0 80 56 00
        E 0 80 62 00
        E 180 90 1f 60
        E 0 90 56 60
        E 0 90 62 60
        E 60 80 1f 00
        E 0 80 56 00
        E 0 80 62 00
        E 180 90 1f 60
        E 0 90 3e 60
        E 0 90 4a 60
        E 0 90 56 60
        E 0 90 62 60
        E 60 80 1f 00
        E 0 80 3e 00
        E 0 80 4a 00
        E 0 80 56 00
        E 0 80 62 00
        E 180 90 1f 60
        E 0 90 56 60
        E 0 90 62 60
        E 60 80 1f 00
        E 0 80 56 00
        E 0 80 62 00
        E 180 90 1f 60
        E 0 90 3e 60
        E 0 90 4a 60
        E 0 90 56 60
        E 0 90 62 60
        E 60 80 1f 00
        E 0 80 3e 00
        E 0 80 4a 00
        E 0 80 56 00
        E 0 80 62 00
        E 180 90 18 60
        E 0 90 1f 60
        E 0 90 54 60
        E 0 90 56 60
        E 0 90 60 60
        E 0 90 62 60
        E 60 80 18 00
        E 0 80 1f 00
        E 0 80 54 00
        E 0 80 56 00
        E 0 80 60 00
        E 0 80 62 00
        E 180 90 1f 60
        E 0 90 3e 60
        E 0 90 4a 60
        E 0 90 56 60
        E 0 90 62 60
        E 60 80 1f 00
        E 0 80 3e 00
        E 0 80 4a 00
        E 0 80 56 00
        E 0 80 62 00
        E 180 90 18 60
        E 0 90 26 60
        E 0 90 54 60
        E 0 90 58 60
        E 0 90 60 60
        E 0 90 64 60
        E 60 80 18 00
        E 0 80 26 00
        E 0 80 54 00
        E 0 80 58 00
        E 0 80 60 00
        E 0 80 64 00
        E 180 90 1f 60
        E 0 90 3e 60
        E 0 90 4a 60
        E 0 90 56 60
        E 0 90 62 60
        E 60 80 1f 00
        E 0 80 3e 00
        E 0 80 4a 00
        E 0 80 56 00
        E 0 80 62 00
        E 180 90 1f 60
        E 0 90 56 60
        E 0 90 62 60
        E 60 80 1f 00
        E 0 80 56 00
        E 0 80 62 00
        E 180 90 1f 60
        E 0 90 3e 60
        E 0 90 4a 60
        E 0 90 56 60
        E 0 90 62 60
        E 60 80 1f 00
        E 0 80 3e 00
        E 0 80 4a 00
        E 0 80 56 00
        E 0 80 62 00
        E 180 90 1f 60
        E 0 90 56 60
        E 0 90 62 60
        E 60 80 1f 00
        E 0 80 56 00
        E 0 80 62 00
        E 180 90 1f 60
        E 0 90 3e 60
        E 0 90 4a 60
        E 0 90 56 60
        E 0 90 62 60
        E 60 80 1f 00
        E 0 80 3e 00
        E 0 80 4a 00
        E 0 80 56 00
        E 0 80 62 00
        E 180 90 1f 60
        E 0 90 56 60
        E 0 90 62 60
        E 60 80 1f 00
        E 0 80 56 00
        E 0 80 62 00
        E 180 90 1f 60
        E 0 90 3e 60
        E 0 90 4a 60
        E 0 90 56 60
        E 0 90 62 60
        E 60 80 1f 00
        E 0 80 3e 00
        E 0 80 4a 00
        E 0 80 56 00
        E 0 80 62 00
        E 180 90 1f 60
        E 0 90 56 60
        E 0 90 62 60
        E 60 80 1f 00
        E 0 80 56 00
        E 0 80 62 00
        E 180 90 1f 60
        E 0 90 3e 60
        E 0 90 4a 60
        E 0 90 56 60
        E 0 90 62 60
        E 60 80 1f 00
        E 0 80 3e 00
        E 0 80 4a 00
        E 0 80 56 00
        E 0 80 62 00
        E 180 90 1f 60
        E 0 90 56 60
        E 0 90 62 60
        E 60 80 1f 00
        E 0 80 56 00
        E 0 80 62 00
        E 180 90 1f 60
        E 0 90 3e 60
        E 0 90 4a 60
        E 0 90 56 60
        E 0 90 62 60
        E 60 80 1f 00
        E 0 80 3e 00
        E 0 80 4a 00
        E 0 80 56 00
        E 0 80 62 00
        E 180 90 18 60
        E 0 90 2a 60
        E 0 90 54 60
        E 0 90 57 60
        E 0 90 60 60
        E 0 90 63 60
        E 60 80 18 00
        E 0 80 2a 00
        E 0 80 54 00
        E 0 80 57 00
        E 0 80 60 00
        E 0 80 63 00
        E 180 90 1f 60
        E 0 90 3e 60
        E 0 90 4a 60
        E 0 90 56 60
        E 0 90 62 60
        E 60 80 1f 00
        E 0 80 3e 00
        E 0 80 4a 00
        E 0 80 56 00
        E 0 80 62 00
        E 180 90 18 60
        E 0 90 2a 60
        E 0 90 54 60
        E 0 90 57 60
        E 0 90 60 60
        E 0 90 63 60
        E 60 80 18 00
        E 0 80 2a 00
        E 0 80 54 00
        E 0 80 57 00
        E 0 80 60 00
        E 0 80 63 00
        E 180 90 1f 60
        E 0 90 3e 60
        E 0 90 4a 60
        E 0 90 56 60
        E 0 90 62 60
        E 60 80 1f 00
        E 0 80 3e 00
        E 0 80 4a 00
        E 0 80 56 00
        E 0 80 62 00
        E 180 90 18 60
        E 0 90 54 60
        E 0 90 60 60
        E 60 80 18 00
        E 0 80 54 00
        E 0 80 60 00
        E 180 90 18 60
        E 0 90 26 60
        E 0 90 40 60
        E 0 90 48 60
        E 0 90 4c 60
        E 0 90 54 60
        E 0 90 58 60
        E 0 90 60 60
        E 0 90 64 60
        E 60 80 18 00
        E 0 80 26 00
        E 0 80 40 00
        E 0 80 48 00
        E 0 80 4c 00
        E 0 80 54 00
        E 0 80 58 00
        E 0 80 60 00
        E 0 80 64 00
        E 180 90 1f 60
        E 0 90 56 60
        E 0 90 62 60
        E 60 80 1f 00
        E 0 80 56 00
        E 0 80 62 00
        E 180 90 1f 60
        E 0 90 3e 60
        E 0 90 4a 60
        E 0 90 56 60
        E 0 90 62 60
        E 60 80 1f 00
        E 0 80 3e 00
        E 0 80 4a 00
        E 0 80 56 00
        E 0 80 62 00
        E 180 90 1f 60
        E 0 90 56 60
        E 0 90 62 60
        E 60 80 1f 00
        E 0 80 56 00
        E 0 80 62 00
        E 180 90 1f 60
        E 0 90 3e 60
        E 0 90 4a 60
        E 0 90 56 60
        E 0 90 62 60
        E 60 80 1f 00
        E 0 80 3e 00
        E 0 80 4a 00
        E 0 80 56 00
        E 0 80 62 00
        E 180 90 1f 60
        E 0 90 56 60
        E 0 90 62 60
        E 60 80 1f 00
        E 0 80 56 00
        E 0 80 62 00
        E 180 90 1f 60
        E 0 90 3e 60
        E 0 90 4a 60
        E 0 90 56 60
        E 0 90 62 60
        E 60 80 1f 00
        E 0 80 3e 00
        E 0 80 4a 00
        E 0 80 56 00
        E 0 80 62 00
        E 180 90 1f 60
        E 0 90 56 60
        E 0 90 62 60
        E 60 80 1f 00
        E 0 80 56 00
        E 0 80 62 00
        E 180 90 18 60
        E 0 90 1f 60
        E 0 90 3e 60
        E 0 90 48 60
        E 0 90 4a 60
        E 0 90 54 60
        E 0 90 56 60
        E 0 90 60 60
        E 0 90 62 60
        E 60 80 18 00
        E 0 80 1f 00
        E 0 80 3e 00
        E 0 80 48 00
        E 0 80 4a 00
        E 0 80 54 00
        E 0 80 56 00
        E 0 80 60 00
        E 0 80 62 00
        E 180 90 1f 60
        E 0 90 56 60
        E 0 90 62 60
        E 60 80 1f 00
        E 0 80 56 00
        E 0 80 62 00
        E 180 90 1f 60
        E 0 90 3e 60
        E 0 90 4a 60
        E 0 90 56 60
        E 0 90 62 60
        E 60 80 1f 00
        E 0 80 3e 00
        E 0 80 4a 00
        E 0 80 56 00
        E 0 80 62 00
        E 180 90 1f 60
        E 0 90 56 60
        E 0 90 62 60
        E 60 80 1f 00
        E 0 80 56 00
        E 0 80 62 00
        E 180 90 1f 60
        E 0 90 3e 60
        E 0 90 4a 60
        E 0 90 56 60
        E 0 90 62 60
        E 60 80 1f 00
        E 0 80 3e 00
        E 0 80 4a 00
        E 0 80 56 00
        E 0 80 62 00
        E 180 90 1f 60
        E 0 90 56 60
        E 0 90 62 60
        E 60 80 1f 00
        E 0 80 56 00
        E 0 80 62 00
        E 180 90 1f 60
        E 0 90 3e 60
        E 0 90 4a 60
        E 0 90 56 60
        E 0 90 62 60
        E 60 80 1f 00
        E 0 80 3e 00
        E 0 80 4a 00
        E 0 80 56 00
        E 0 80 62 00
        E 30 90 74 6e
        E 150 90 1f 60
        E 0 90 56 60
        E 0 90 62 60
        E 60 80 1f 00
        E 0 80 56 00
        E 0 80 62 00
        E 180 90 18 60
        E 0 90 26 60
        E 0 90 40 60
        E 0 90 48 60
        E 0 90 4c 60
        E 0 90 54 60
        E 0 90 58 60
        E 0 90 60 60
        E 0 90 64 60
        E 60 80 18 00
        E 0 80 26 00
        E 0 80 40 00
        E 0 80 48 00
        E 0 80 4c 00
        E 0 80 54 00
        E 0 80 58 00
        E 0 80 60 00
        E 0 80 64 00
        E 180 90 1f 60
        E 0 90 56 60
        E 0 90 62 60
        E 60 80 1f 00
        E 0 80 56 00
        E 0 80 62 00
        E 180 90 1f 60
        E 0 90 3e 60
        E 0 90 4a 60
        E 0 90 56 60
        E 0 90 62 60
        E 60 80 1f 00
        E 0 80 3e 00
        E 0 80 4a 00
        E 0 80 56 00
        E 0 80 62 00
        E 180 90 18 60
        E 0 90 26 60
        E 0 90 54 60
        E 0 90 58 60
        E 0 90 60 60
        E 0 90 64 60
        E 60 80 18 00
        E 0 80 26 00
        E 0 80 54 00
        E 0 80 58 00
        E 0 80 60 00
        E 0 80 64 00
        E 180 90 1f 60
        E 0 90 3e 60
        E 0 90 4a 60
        E 0 90 56 60
        E 0 90 62 60
        E 60 80 1f 00
        E 0 80 3e 00
        E 0 80 4a 00
        E 0 80 56 00
        E 0 80 62 00
        E 180 90 1f 60
        E 0 90 56 60
        E 0 90 62 60
        E 60 80 1f 00
        E 0 80 56 00
        E 0 80 62 00
        E 180 90 18 60
        E 0 90 26 60
        E 0 90 40 60
        E 0 90 48 60
        E 0 90 4c 60
        E 0 90 54 60
        E 0 90 58 60
        E 0 90 60 60
        E 0 90 64 60
        E 60 80 18 00
        E 0 80 26 00
        E 0 80 40 00
        E 0 80 48 00
        E 0 80 4c 00
        E 0 80 54 00
        E 0 80 58 00
        E 0 80 60 00
        E 0 80 64 00
        E 180 90 1f 60
        E 0 90 56 60
        E 0 90 62 60
        E 60 80 1f 00
        E 0 80 56 00
        E 0 80 62 00
        E 180 90 1f 60
        E 0 90 3e 60
        E 0 90 4a 60
        E 0 90 56 60
        E 0 90 62 60
        E 60 80 1f 00
        E 0 80 3e 00
        E 0 80 4a 00
        E 0 80 56 00
        E 0 80 62 00
        E 180 90 1f 60
        E 0 90 56 60
        E 0 90 62 60
        E 60 80 1f 00
        E 0 80 56 00
        E 0 80 62 00
        E 180 90 1f 60
        E 0 90 3e 60
        E 0 90 4a 60
        E 0 90 56 60
        E 0 90 62 60
        E 60 80 1f 00
        E 0 80 3e 00
        E 0 80 4a 00
        E 0 80 56 00
        E 0 80 62 00
        E 180 90 1f 60
        E 0 90 56 60
        E 0 90 62 60
        E 60 80 1f 00
        E 0 80 56 00
        E 0 80 62 00
        E 124 80 74 00
        E 56 90 1f 60
        E 0 90 3e 60
        E 0 90 4a 60
        E 0 90 56 60
        E 0 90 62 60
        E 60 80 1f 00
        E 0 80 3e 00
        E 0 80 4a 00
        E 0 80 56 00
        E 0 80 62 00
        E 180 90 18 60
        E 0 90 54 60
        E 0 90 60 60
        E 60 80 18 00
        E 0 80 54 00
        E 0 80 60 00
        E 180 90 1a 60
        E 0 90 3d 60
        E 0 90 49 60
        E 0 90 55 60
        E 0 90 61 60
        E 60 80 1a 00
        E 0 80 3d 00
        E 0 80 49 00
        E 0 80 55 00
        E 0 80 61 00
        E 180 90 18 60
        E 0 90 26 60
        E 0 90 54 60
        E 0 90 58 60
        E 0 90 60 60
        E 0 90 64 60
        E 60 80 18 00
        E 0 80 26 00
        E 0 80 54 00
        E 0 80 58 00
        E 0 80 60 00
        E 0 80 64 00
        E 180 90 1f 60
        E 0 90 3e 60
        E 0 90 4a 60
        E 0 90 56 60
        E 0 90 62 60
        E 60 80 1f 00
        E 0 80 3e 00
        E 0 80 4a 00
        E 0 80 56 00
        E 0 80 62 00
        E 180 90 1f 60
        E 0 90 56 60
        E 0 90 62 60
        E 60 80 1f 00
        E 0 80 56 00
        E 0 80 62 00
        E 180 90 1a 60
        E 0 90 1f 60
        E 0 90 3d 60
        E 0 90 3e 60
        E 0 90 49 60
        E 0 90 4a 60
        E 0 90 55 60
        E 0 90 56 60
        E 0 90 61 60
        E 0 90 62 60
        E 60 80 1a 00
        E 0 80 1f 00
        E 0 80 3d 00
        E 0 80 3e 00
        E 0 80 49 00
        E 0 80 4a 00
        E 0 80 55 00
        E 0 80 56 00
        E 0 80 61 00
        E 0 80 62 00
        E 180 90 1f 60
        E 0 90 56 60
        E 0 90 62 60
        E 60 80 1f 00
        E 0 80 56 00
        E 0 80 62 00
        E 180 90 1f 60
        E 0 90 3e 60
        E 0 90 4a 60
        E 0 90 56 60
        E 0 90 62 60
        E 60 80 1f 00
        E 0 80 3e 00
        E 0 80 4a 00
        E 0 80 56 00
        E 0 80 62 00
        E 180 90 18 60
        E 0 90 1f 60
        E 0 90 54 60
        E 0 90 56 60
        E 0 90 60 60
        E 0 90 62 60
        E 60 80 18 00
        E 0 80 1f 00
        E 0 80 54 00
        E 0 80 56 00
        E 0 80 60 00
        E 0 80 62 00
        E 180 90 1e 60
        E 0 90 31 60
        E 0 90 3e 60
        E 0 90 3f 60
        E 0 90 4a 60
        E 0 90 4b 60
        E 0 90 56 60
        E 0 90 57 60
        E 0 90 62 60
        E 0 90 63 60
        E 0 90 6f 60
        E 60 80 1e 00
        E 0 80 31 00
        E 0 80 3e 00
        E 0 80 3f 00
        E 0 80 4a 00
        E 0 80 4b 00
        E 0 80 56 00
        E 0 80 57 00
        E 0 80 62 00
        E 0 80 63 00
        E 0 80 6f 00
        E 180 90 1e 60
        E 0 90 33 60
        E 0 90 56 60
        E 0 90 58 60
        E 0 90 62 60
        E 0 90 64 60
        E 0 90 70 60
        E 60 80 1e 00
        E 0 80 33 00
        E 0 80 56 00
        E 0 80 58 00
        E 0 80 62 00
        E 0 80 64 00
        E 0 80 70 00
        E 180 90 1f 60
        E 0 90 3e 60
        E 0 90 4a 60
        E 0 90 56 60
        E 0 90 62 60
        E 60 80 1f 00
        E 0 80 3e 00
        E 0 80 4a 00
        E 0 80 56 00
        E 0 80 62 00
        E 180 90 1f 60
        E 0 90 56 60
        E 0 90 62 60
        E 60 80 1f 00
        E 0 80 56 00
        E 0 80 62 00
        E 180 90 1a 60
        E 0 90 1f 60
        E 0 90 3d 60
        E 0 90 3e 60
        E 0 90 49 60
        E 0 90 4a 60
        E 0 90 55 60
        E 0 90 56 60
        E 0 90 61 60
        E 0 90 62 60
        E 0 90 78 6e
        E 0 90 79 6e
        E 0 90 7a 6e
        E 0 90 7b 6e
        E 0 90 7c 6e
        E 60 80 1a 00
        E 0 80 1f 00
        E 0 80 3d 00
        E 0 80 3e 00
        E 0 80 49 00
        E 0 80 4a 00
        E 0 80 55 00
        E 0 80 56 00
        E 0 80 61 00
        E 0 80 62 00
        E 180 90 1f 60
        E 0 90 56 60
        E 0 90 62 60
        E 60 80 1f 00
        E 0 80 56 00
        E 0 80 62 00
        E 180 90 1f 60
        E 0 90 3e 60
        E 0 90 4a 60
        E 0 90 56 60
        E 0 90 62 60
        E 60 80 1f 00
        E 0 80 3e 00
        E 0 80 4a 00
        E 0 80 56 00
        E 0 80 62 00
        E 180 90 18 60
        E 0 90 1e 60
        E 0 90 31 60
        E 0 90 54 60
        E 0 90 56 60
        E 0 90 57 60
        E 0 90 60 60
        E 0 90 62 60
        E 0 90 63 60
        E 0 90 6f 60
        E 60 80 18 00
        E 0 80 1e 00
        E 0 80 31 00
        E 0 80 54 00
        E 0 80 56 00
        E 0 80 57 00
        E 0 80 60 00
        E 0 80 62 00
        E 0 80 63 00
        E 0 80 6f 00
        E 180 90 1e 60
        E 0 90 33 60
        E 0 90 3e 60
        E 0 90 40 60
        E 0 90 4a 60
        E 0 90 4c 60
        E 0 90 56 60
        E 0 90 58 60
        E 0 90 62 60
        E 0 90 64 60
        E 0 90 70 60
        E 60 80 1e 00
        E 0 80 33 00
        E 0 80 3e 00
        E 0 80 40 00
        E 0 80 4a 00
        E 0 80 4c 00
        E 0 80 56 00
        E 0 80 58 00
        E 0 80 62 00
        E 0 80 64 00
        E 0 80 70 00
        E 180 80 78 00
        E 0 80 79 00
        E 0 80 7a 00
        E 0 80 7b 00
        E 0 80 7c 00
        E 0 90 18 60
        E 0 90 26 60
        E 0 90 54 60
        E 0 90 58 60
        E 0 90 60 60
        E 0 90 64 60
        E 60 80 18 00
        E 0 80 26 00
        E 0 80 54 00
        E 0 80 58 00
        E 0 80 60 00
        E 0 80 64 00
        E 180 90 1f 60
        E 0 90 3e 60
        E 0 90 4a 60
        E 0 90 56 60
        E 0 90 62 60
        E 60 80 1f 00
        E 0 80 3e 00
        E 0 80 4a 00
        E 0 80 56 00
        E 0 80 62 00
        E 180 90 1f 60
        E 0 90 56 60
        E 0 90 62 60
        E 60 80 1f 00
        E 0 80 56 00
        E 0 80 62 00
        E 180 90 1a 60
        E 0 90 1f 60
        E 0 90 3d 60
        E 0 90 3e 60
        E 0 90 49 60
        E 0 90 4a 60
        E 0 90 55 60
        E 0 90 56 60
        E 0 90 61 60
        E 0 90 62 60
        E 60 80 1a 00
        E 0 80 1f 00
        E 0 80 3d 00
        E 0 80 3e 00
        E 0 80 49 00
        E 0 80 4a 00
        E 0 80 55 00
        E 0 80 56 00
        E 0 80 61 00
        E 0 80 62 00
        E 180 90 1f 60
        E 0 90 56 60
        E 0 90 62 60
        E 60 80 1f 00
        E 0 80 56 00
        E 0 80 62 00
        E 180 90 1f 60
        E 0 90 3e 60
        E 0 90 4a 60
        E 0 90 56 60
        E 0 90 62 60
        E 60 80 1f 00
        E 0 80 3e 00
        E 0 80 4a 00
        E 0 80 56 00
        E 0 80 62 00
        E 180 90 18 60
        E 0 90 1f 60
        E 0 90 54 60
        E 0 90 56 60
        E 0 90 60 60
        E 0 90 62 60
        E 60 80 18 00
        E 0 80 1f 00
        E 0 80 54 00
        E 0 80 56 00
        E 0 80 60 00
        E 0 80 62 00
        E 180 90 1e 60
        E 0 90 31 60
        E 0 90 3e 60
        E 0 90 3f 60
        E 0 90 4a 60
        E 0 90 4b 60
        E 0 90 56 60
        E 0 90 57 60
        E 0 90 62 60
        E 0 90 63 60
        E 0 90 6f 60
        E 60 80 1e 00
        E 0 80 31 00
        E 0 80 3e 00
        E 0 80 3f 00
        E 0 80 4a 00
        E 0 80 4b 00
        E 0 80 56 00
        E 0 80 57 00
        E 0 80 62 00
        E 0 80 63 00
        E 0 80 6f 00
        E 180 90 1e 60
        E 0 90 33 60
        E 0 90 56 60
        E 0 90 58 60
        E 0 90 62 60
        E 0 90 64 60
        E 0 90 70 60
        E 60 80 1e 00
        E 0 80 33 00
        E 0 80 56 00
        E 0 80 58 00
        E 0 80 62 00
        E 0 80 64 00
        E 0 80 70 00
        E 180 90 1f 60
        E 0 90 3e 60
        E 0 90 4a 60
        E 0 90 56 60
        E 0 90 62 60
        E 60 80 1f 00
        E 0 80 3e 00
        E 0 80 4a 00
        E 0 80 56 00
        E 0 80 62 00
        E 180 90 1f 60
        E 0 90 56 60
        E 0 90 62 60
        E 60 80 1f 00
        E 0 80 56 00
        E 0 80 62 00
        E 180 90 1a 60
        E 0 90 1f 60
        E 0 90 3d 60
        E 0 90 3e 60
        E 0 90 49 60
        E 0 90 4a 60
        E 0 90 55 60
        E 0 90 56 60
        E 0 90 61 60
        E 0 90 62 60
        E 60 80 1a 00
        E 0 80 1f 00
        E 0 80 3d 00
        E 0 80 3e 00
        E 0 80 49 00
        E 0 80 4a 00
        E 0 80 55 00
        E 0 80 56 00
        E 0 80 61 00
        E 0 80 62 00
        E 120 90 74 6e
        E 60 90 18 60
        E 0 90 26 60
        E 0 90 54 60
        E 0 90 58 60
        E 0 90 60 60
        E 0 90 64 60
        E 60 80 18 00
        E 0 80 26 00
        E 0 80 54 00
        E 0 80 58 00
        E 0 80 60 00
        E 0 80 64 00
        E 180 90 1f 60
        E 0 90 3e 60
        E 0 90 4a 60
        E 0 90 56 60
        E 0 90 62 60
        E 60 80 1f 00
        E 0 80 3e 00
        E 0 80 4a 00
        E 0 80 56 00
        E 0 80 62 00
        E 180 90 18 60
        E 0 90 26 60
        E 0 90 54 60
        E 0 90 58 60
        E 0 90 60 60
        E 0 90 64 60
        E 60 80 18 00
        E 0 80 26 00
        E 0 80 54 00
        E 0 80 58 00
        E 0 80 60 00
        E 0 80 64 00
        E 180 90 1f 60
        E 0 90 3e 60
        E 0 90 4a 60
        E 0 90 56 60
        E 0 90 62 60
        E 60 80 1f 00
        E 0 80 3e 00
        E 0 80 4a 00
        E 0 80 56 00
        E 0 80 62 00
        E 180 90 18 60
        E 0 90 54 60
        E 0 90 60 60
        E 60 80 18 00
        E 0 80 54 00
        E 0 80 60 00
        E 180 90 18 60
        E 0 90 26 60
        E 0 90 40 60
        E 0 90 48 60
        E 0 90 4c 60
        E 0 90 54 60
        E 0 90 58 60
        E 0 90 60 60
        E 0 90 64 60
        E 60 80 18 00
        E 0 80 26 00
        E 0 80 40 00
        E 0 80 48 00
        E 0 80 4c 00
        E 0 80 54 00
        E 0 80 58 00
        E 0 80 60 00
        E 0 80 64 00
        E 180 90 1f 60
        E 0 90 56 60
        E 0 90 62 60
        E 60 80 1f 00
        E 0 80 56 00
        E 0 80 62 00
        E 180 90 1a 60
        E 0 90 1f 60
        E 0 90 3d 60
        E 0 90 3e 60
        E 0 90 49 60
        E 0 90 4a 60
        E 0 90 55 60
        E 0 90 56 60
        E 0 90 61 60
        E 0 90 62 60
        E 60 80 1a 00
        E 0 80 1f 00
        E 0 80 3d 00
        E 0 80 3e 00
        E 0 80 49 00
        E 0 80 4a 00
        E 0 80 55 00
        E 0 80 56 00
        E 0 80 61 00
        E 0 80 62 00
        E 180 90 1f 60
        E 0 90 56 60
        E 0 90 62 60
        E 60 80 1f 00
        E 0 80 56 00
        E 0 80 62 00
        E 180 90 1f 60
        E 0 90 3e 60
        E 0 90 4a 60
        E 0 90 56 60
        E 0 90 62 60
        E 60 80 1f 00
        E 0 80 3e 00
        E 0 80 4a 00
        E 0 80 56 00
        E 0 80 62 00
        E 180 90 18 60
        E 0 90 1f 60
        E 0 90 54 60
        E 0 90 56 60
        E 0 90 60 60
        E 0 90 62 60
        E 60 80 18 00
        E 0 80 1f 00
        E 0 80 54 00
        E 0 80 56 00
        E 0 80 60 00
        E 0 80 62 00
        E 180 90 1e 60
        E 0 90 31 60
        E 0 90 3e 60
        E 0 90 3f 60
        E 0 90 4a 60
        E 0 90 4b 60
        E 0 90 56 60
        E 0 90 57 60
        E 0 90 62 60
        E 0 90 63 60
        E 0 90 6f 60
        E 60 80 1e 00
        E 0 80 31 00
        E 0 80 3e 00
        E 0 80 3f 00
        E 0 80 4a 00
        E 0 80 4b 00
        E 0 80 56 00
        E 0 80 57 00
        E 0 80 62 00
        E 0 80 63 00
        E 0 80 6f 00
        E 180 90 1e 60
        E 0 90 33 60
        E 0 90 56 60
        E 0 90 58 60
        E 0 90 62 60
        E 0 90 64 60
        E 0 90 70 60
        E 60 80 1e 00
        E 0 80 33 00
        E 0 80 56 00
        E 0 80 58 00
        E 0 80 62 00
        E 0 80 64 00
        E 0 80 70 00
        E 120 80 74 00
        E 60 90 18 60
        E 0 90 1f 60
        E 0 90 3e 60
        E 0 90 48 60
        E 0 90 4a 60
        E 0 90 54 60
        E 0 90 56 60
        E 0 90 60 60
        E 0 90 62 60
        E 60 80 18 00
        E 0 80 1f 00
        E 0 80 3e 00
        E 0 80 48 00
        E 0 80 4a 00
        E 0 80 54 00
        E 0 80 56 00
        E 0 80 60 00
        E 0 80 62 00
        E 180 90 1f 60
        E 0 90 56 60
        E 0 90 62 60
        E 60 80 1f 00
        E 0 80 56 00
        E 0 80 62 00
        E 180 90 1a 60
        E 0 90 1f 60
        E 0 90 3d 60
        E 0 90 3e 60
        E 0 90 49 60
        E 0 90 4a 60
        E 0 90 55 60
        E 0 90 56 60
        E 0 90 61 60
        E 0 90 62 60
        E 60 80 1a 00
        E 0 80 1f 00
        E 0 80 3d 00
        E 0 80 3e 00
        E 0 80 49 00
        E 0 80 4a 00
        E 0 80 55 00
        E 0 80 56 00
        E 0 80 61 00
        E 0 80 62 00
        E 180 90 1f 60
        E 0 90 56 60
        E 0 90 62 60
        E 60 80 1f 00
        E 0 80 56 00
        E 0 80 62 00
        E 180 90 1f 60
        E 0 90 3e 60
        E 0 90 4a 60
        E 0 90 56 60
        E 0 90 62 60
        E 60 80 1f 00
        E 0 80 3e 00
        E 0 80 4a 00
        E 0 80 56 00
        E 0 80 62 00
        E 180 90 1a 60
        E 0 90 1f 60
        E 0 90 55 60
        E 0 90 56 60
        E 0 90 61 60
        E 0 90 62 60
        E 60 80 1a 00
        E 0 80 1f 00
        E 0 80 55 00
        E 0 80 56 00
        E 0 80 61 00
        E 0 80 62 00
        E 180 90 1a 60
        E 0 90 3d 60
        E 0 90 49 60
        E 0 90 55 60
        E 0 90 61 60
        E 60 80 1a 00
        E 0 80 3d 00
        E 0 80 49 00
        E 0 80 55 00
        E 0 80 61 00
        E 180 90 1b 60
        E 0 90 55 60
        E 0 90 61 60
        E 60 80 1b 00
        E 0 80 55 00
        E 0 80 61 00
        E 60 90 1a 60
        E 0 90 61 60
        E 60 80 1a 00
        E 0 80 61 00
        E 60 90 18 60
        E 0 90 26 60
        E 0 90 40 60
        E 0 90 48 60
        E 0 90 4c 60
        E 0 90 54 60
        E 0 90 58 60
        E 0 90 60 60
        E 0 90 64 60
        E 60 80 18 00
        E 0 80 26 00
        E 0 80 40 00
        E 0 80 48 00
        E 0 80 4c 00
        E 0 80 54 00
        E 0 80 58 00
        E 0 80 60 00
        E 0 80 64 00
        E 180 90 1f 60
        E 0 90 56 60
        E 0 90 62 60
        E 0 90 78 6e
        E 0 90 79 6e
        E 0 90 7a 6e
        E 0 90 7b 6e
        E 0 90 7c 6e
        E 60 80 1f 00
        E 0 80 56 00
        E 0 80 62 00
        E 180 90 1f 60
        E 0 90 3e 60
        E 0 90 4a 60
        E 0 90 56 60
        E 0 90 62 60
        E 60 80 1f 00
        E 0 80 3e 00
        E 0 80 4a 00
        E 0 80 56 00
        E 0 80 62 00
        E 180 90 18 60
        E 0 90 26 60
        E 0 90 54 60
        E 0 90 58 60
        E 0 90 60 60
        E 0 90 64 60
        E 60 80 18 00
        E 0 80 26 00
        E 0 80 54 00
        E 0 80 58 00
        E 0 80 60 00
        E 0 80 64 00
        E 180 90 1f 60
        E 0 90 3e 60
        E 0 90 4a 60
        E 0 90 56 60
        E 0 90 62 60
        E 60 80 1f 00
        E 0 80 3e 00
        E 0 80 4a 00
        E 0 80 56 00
        E 0 80 62 00
        E 180 90 1f 60
        E 0 90 56 60
        E 0 90 62 60
        E 60 80 1f 00
        E 0 80 56 00
        E 0 80 62 00
        E 180 80 78 00
        E 0 80 79 00
        E 0 80 7a 00
        E 0 80 7b 00
        E 0 80 7c 00
        E 0 90 18 60
        E 0 90 26 60
        E 0 90 40 60
        E 0 90 48 60
        E 0 90 4c 60
        E 0 90 54 60
        E 0 90 58 60
        E 0 90 60 60
        E 0 90 64 60
        E 60 80 18 00
        E 0 80 26 00
        E 0 80 40 00
        E 0 80 48 00
        E 0 80 4c 00
        E 0 80 54 00
        E 0 80 58 00
        E 0 80 60 00
        E 0 80 64 00
        E 660 90 2e 60
        E 0 90 33 60
        E 0 90 56 60
        E 0 90 58 60
        E 0 90 62 60
        E 0 90 64 60
        E 0 90 6e 60
        E 0 90 70 60
        E 60 80 2e 00
        E 0 80 33 00
        E 0 80 56 00
        E 0 80 58 00
        E 0 80 62 00
        E 0 80 64 00
        E 0 80 6e 00
        E 0 80 70 00
        E 180 90 2e 60
        E 0 90 33 60
        E 0 90 3e 60
        E 0 90 40 60
        E 0 90 4a 60
        E 0 90 4c 60
        E 0 90 56 60
        E 0 90 58 60
        E 0 90 62 60
        E 0 90 64 60
        E 0 90 6e 60
        E 0 90 70 60
        E 60 80 2e 00
        E 0 80 33 00
        E 0 80 3e 00
        E 0 80 40 00
        E 0 80 4a 00
        E 0 80 4c 00
        E 0 80 56 00
        E 0 80 58 00
        E 0 80 62 00
        E 0 80 64 00
        E 0 80 6e 00
        E 0 80 70 00
        E 180 90 2e 60
        E 0 90 33 60
        E 0 90 56 60
        E 0 90 58 60
        E 0 90 62 60
        E 0 90 64 60
        E 0 90 6e 60
        E 0 90 70 60
        E 60 80 2e 00
        E 0 80 33 00
        E 0 80 56 00
        E 0 80 58 00
        E 0 80 62 00
        E 0 80 64 00
        E 0 80 6e 00
        E 0 80 70 00
        E 180 90 2e 60
        E 0 90 33 60
        E 0 90 3e 60
        E 0 90 40 60
        E 0 90 4a 60
        E 0 90 4c 60
        E 0 90 56 60
        E 0 90 58 60
        E 0 90 62 60
        E 0 90 64 60
        E 0 90 6e 60
        E 0 90 70 60
        E 60 80 2e 00
        E 0 80 33 00
        E 0 80 3e 00
        E 0 80 40 00
        E 0 80 4a 00
        E 0 80 4c 00
        E 0 80 56 00
        E 0 80 58 00
        E 0 80 62 00
        E 0 80 64 00
        E 0 80 6e 00
        E 0 80 70 00
        E 180 90 2e 60
        E 0 90 33 60
        E 0 90 56 60
        E 0 90 58 60
        E 0 90 62 60
        E 0 90 64 60
        E 0 90 6e 60
        E 0 90 70 60
        E 60 80 2e 00
        E 0 80 33 00
        E 0 80 56 00
        E 0 80 58 00
        E 0 80 62 00
        E 0 80 64 00
        E 0 80 6e 00
        E 0 80 70 00
        E 180 90 2e 60
        E 0 90 33 60
        E 0 90 3e 60
        E 0 90 40 60
        E 0 90 4a 60
        E 0 90 4c 60
        E 0 90 56 60
        E 0 90 58 60
        E 0 90 62 60
        E 0 90 64 60
        E 0 90 6e 60
        E 0 90 70 60
        E 60 80 2e 00
        E 0 80 33 00
        E 0 80 3e 00
        E 0 80 40 00
        E 0 80 4a 00
        E 0 80 4c 00
        E 0 80 56 00
        E 0 80 58 00
        E 0 80 62 00
        E 0 80 64 00
        E 0 80 6e 00
        E 0 80 70 00
        E 180 90 2e 60
        E 0 90 33 60
        E 0 90 56 60
        E 0 90 58 60
        E 0 90 62 60
        E 0 90 64 60
        E 0 90 6e 60
        E 0 90 70 60
        E 60 80 2e 00
        E 0 80 33 00
        E 0 80 56 00
        E 0 80 58 00
        E 0 80 62 00
        E 0 80 64 00
        E 0 80 6e 00
        E 0 80 70 00
        E 180 90 18 60
        E 0 90 26 60
        E 0 90 40 60
        E 0 90 48 60
        E 0 90 4c 60
        E 0 90 54 60
        E 0 90 58 60
        E 0 90 60 60
        E 0 90 64 60
        E 60 80 18 00
        E 0 80 26 00
        E 0 80 40 00
        E 0 80 48 00
        E 0 80 4c 00
        E 0 80 54 00
        E 0 80 58 00
        E 0 80 60 00
        E 0 80 64 00
        E 180 90 1f 60
        E 0 90 56 60
        E 0 90 62 60
        E 60 80 1f 00
        E 0 80 56 00
        E 0 80 62 00
        E 180 90 1a 60
        E 0 90 1f 60
        E 0 90 3d 60
        E 0 90 3e 60
        E 0 90 49 60
        E 0 90 4a 60
        E 0 90 55 60
        E 0 90 56 60
        E 0 90 61 60
        E 0 90 62 60
        E 60 80 1a 00
        E 0 80 1f 00
        E 0 80 3d 00
        E 0 80 3e 00
        E 0 80 49 00
        E 0 80 4a 00
        E 0 80 55 00
        E 0 80 56 00
        E 0 80 61 00
        E 0 80 62 00
        E 180 90 1f 60
        E 0 90 56 60
        E 0 90 62 60
        E 60 80 1f 00
        E 0 80 56 00
        E 0 80 62 00
        E 180 90 1f 60
        E 0 90 3e 60
        E 0 90 4a 60
        E 0 90 56 60
        E 0 90 62 60
        E 60 80 1f 00
        E 0 80 3e 00
        E 0 80 4a 00
        E 0 80 56 00
        E 0 80 62 00
        E 180 90 18 60
        E 0 90 1f 60
        E 0 90 54 60
        E 0 90 56 60
        E 0 90 60 60
        E 0 90 62 60
        E 60 80 18 00
        E 0 80 1f 00
        E 0 80 54 00
        E 0 80 56 00
        E 0 80 60 00
        E 0 80 62 00
        E 180 90 1a 60
        E 0 90 1f 60
        E 0 90 3d 60
        E 0 90 3e 60
        E 0 90 49 60
        E 0 90 4a 60
        E 0 90 55 60
        E 0 90 56 60
        E 0 90 61 60
        E 0 90 62 60
        E 60 80 1a 00
        E 0 80 1f 00
        E 0 80 3d 00
        E 0 80 3e 00
        E 0 80 49 00
        E 0 80 4a 00
        E 0 80 55 00
        E 0 80 56 00
        E 0 80 61 00
        E 0 80 62 00
        E 180 90 1f 60
        E 0 90 56 60
        E 0 90 62 60
        E 60 80 1f 00
        E 0 80 56 00
        E 0 80 62 00
        E 180 90 18 60
        E 0 90 1f 60
        E 0 90 3e 60
        E 0 90 48 60
        E 0 90 4a 60
        E 0 90 54 60
        E 0 90 56 60
        E 0 90 60 60
        E 0 90 62 60
        E 60 80 18 00
        E 0 80 1f 00
        E 0 80 3e 00
        E 0 80 48 00
        E 0 80 4a 00
        E 0 80 54 00
        E 0 80 56 00
        E 0 80 60 00
        E 0 80 62 00
        E 180 90 1f 60
        E 0 90 56 60
        E 0 90 62 60
        E 60 80 1f 00
        E 0 80 56 00
        E 0 80 62 00
        E 180 90 1a 60
        E 0 90 1f 60
        E 0 90 3d 60
        E 0 90 3e 60
        E 0 90 49 60
        E 0 90 4a 60
        E 0 90 55 60
        E 0 90 56 60
        E 0 90 61 60
        E 0 90 62 60
        E 60 80 1a 00
        E 0 80 1f 00
        E 0 80 3d 00
        E 0 80 3e 00
        E 0 80 49 00
        E 0 80 4a 00
        E 0 80 55 00
        E 0 80 56 00
        E 0 80 61 00
        E 0 80 62 00
        E 180 90 1f 60
        E 0 90 56 60
        E 0 90 62 60
        E 60 80 1f 00
        E 0 80 56 00
        E 0 80 62 00
        E 180 90 18 60
        E 0 90 1f 60
        E 0 90 3e 60
        E 0 90 48 60
        E 0 90 4a 60
        E 0 90 54 60
        E 0 90 56 60
        E 0 90 60 60
        E 0 90 62 60
        E 60 80 18 00
        E 0 80 1f 00
        E 0 80 3e 00
        E 0 80 48 00
        E 0 80 4a 00
        E 0 80 54 00
        E 0 80 56 00
        E 0 80 60 00
        E 0 80 62 00
        E 180 90 18 60
        E 0 90 1f 60
        E 0 90 54 60
        E 0 90 56 60
        E 0 90 60 60
        E 0 90 62 60
        E 59 80 18 00
        E 0 80 54 00
        E 0 80 60 00
        E 1 80 1f 00
        E 0 80 56 00
        E 0 80 62 00
        E 180 90 1a 60
        E 0 90 1f 60
        E 0 90 3d 60
        E 0 90 3e 60
        E 0 90 49 60
        E 0 90 4a 60
        E 0 90 55 60
        E 0 90 56 60
        E 0 90 61 60
        E 0 90 62 60
        E 60 80 1a 00
        E 0 80 1f 00
        E 0 80 3d 00
        E 0 80 3e 00
        E 0 80 49 00
        E 0 80 4a 00
        E 0 80 55 00
        E 0 80 56 00
        E 0 80 61 00
        E 0 80 62 00
        E 180 90 1f 60
        E 0 90 56 60
        E 0 90 62 60
        E 60 80 1f 00
        E 0 80 56 00
        E 0 80 62 00
        E 180 90 18 60
        E 0 90 1f 60
        E 0 90 3e 60
        E 0 90 48 60
        E 0 90 4a 60
        E 0 90 54 60
        E 0 90 56 60
        E 0 90 60 60
        E 0 90 62 60
        E 60 80 18 00
        E 0 80 1f 00
        E 0 80 3e 00
        E 0 80 48 00
        E 0 80 4a 00
        E 0 80 54 00
        E 0 80 56 00
        E 0 80 60 00
        E 0 80 62 00
        E 181 90 1f 60
        E 0 90 56 60
        E 0 90 62 60
        E 60 80 1f 00
        E 0 80 56 00
        E 0 80 62 00
        E 179 90 1a 60
        E 0 90 1f 60
        E 0 90 3d 60
        E 0 90 3e 60
        E 0 90 49 60
        E 0 90 4a 60
        E 0 90 55 60
        E 0 90 56 60
        E 0 90 61 60
        E 0 90 62 60
        E 60 80 1f 00
        E 0 80 3e 00
        E 0 80 4a 00
        E 0 80 56 00
        E 0 80 62 00
        E 1 80 1a 00
        E 0 80 3d 00
        E 0 80 49 00
        E 0 80 55 00
        E 0 80 61 00
        E 180 90 1f 60
        E 0 90 56 60
        E 0 90 62 60
        E 60 80 1f 00
        E 0 80 56 00
        E 0 80 62 00
        E 180 90 18 60
        E 0 90 1f 60
        E 0 90 3e 60
        E 0 90 48 60
        E 0 90 4a 60
        E 0 90 54 60
        E 0 90 56 60
        E 0 90 60 60
        E 0 90 62 60
        E 59 80 18 00
        E 0 80 48 00
        E 0 80 54 00
        E 0 80 60 00
        E 1 80 1f 00
        E 0 80 3e 00
        E 0 80 4a 00
        E 0 80 56 00
        E 0 80 62 00
        E 180 90 18 60
        E 0 90 1f 60
        E 0 90 54 60
        E 0 90 56 60
        E 0 90 60 60
        E 0 90 62 60
        E 59 80 18 00
        E 0 80 54 00
        E 0 80 60 00
        E 1 80 1f 00
        E 0 80 56 00
        E 0 80 62 00
        E 179 90 1a 60
        E 0 90 1f 60
        E 0 90 3d 60
        E 0 90 3e 60
        E 0 90 49 60
        E 0 90 4a 60
        E 0 90 55 60
        E 0 90 56 60
        E 0 90 61 60
        E 0 90 62 60
        E 60 80 1a 00
        E 0 80 1f 00
        E 0 80 3d 00
        E 0 80 3e 00
        E 0 80 49 00
        E 0 80 4a 00
        E 0 80 55 00
        E 0 80 56 00
        E 0 80 61 00
        E 0 80 62 00
        E 181 90 1f 60
        E 0 90 56 60
        E 0 90 62 60
        E 60 80 1f 00
        E 0 80 56 00
        E 0 80 62 00
        E 179 90 18 60
        E 0 90 1f 60
        E 0 90 3e 60
        E 0 90 48 60
        E 0 90 4a 60
        E 0 90 54 60
        E 0 90 56 60
        E 0 90 60 60
        E 0 90 62 60
        E 60 80 18 00
        E 0 80 1f 00
        E 0 80 3e 00
        E 0 80 48 00
        E 0 80 4a 00
        E 0 80 54 00
        E 0 80 56 00
        E 0 80 60 00
        E 0 80 62 00
        E 181 90 1f 60
        E 0 90 56 60
        E 0 90 62 60
        E 60 80 1f 00
        E 0 80 56 00
        E 0 80 62 00
        E 179 90 1a 60
        E 0 90 1f 60
        E 0 90 3d 60
        E 0 90 3e 60
        E 0 90 49 60
        E 0 90 4a 60
        E 0 90 55 60
        E 0 90 56 60
        E 0 90 61 60
        E 0 90 62 60
        E 60 80 1f 00
        E 0 80 3e 00
        E 0 80 4a 00
        E 0 80 56 00
        E 0 80 62 00
        E 1 80 1a 00
        E 0 80 3d 00
        E 0 80 49 00
        E 0 80 55 00
        E 0 80 61 00
        E 179 90 78 6e
        E 0 90 79 6e
        E 0 90 7a 6e
        E 0 90 7b 6e
        E 0 90 7c 6e
        E 1 90 1f 60
        E 0 90 56 60
        E 0 90 62 60
        E 60 80 1f 00
        E 0 80 56 00
        E 0 80 62 00
        E 180 90 18 60
        E 0 90 1f 60
        E 0 90 3e 60
        E 0 90 48 60
        E 0 90 4a 60
        E 0 90 54 60
        E 0 90 56 60
        E 0 90 60 60
        E 0 90 62 60
        E 59 80 18 00
        E 0 80 48 00
        E 0 80 54 00
        E 0 80 60 00
        E 1 80 1f 00
        E 0 80 3e 00
        E 0 80 4a 00
        E 0 80 56 00
        E 0 80 62 00
        E 180 90 18 60
        E 0 90 1f 60
        E 0 90 54 60
        E 0 90 56 60
        E 0 90 60 60
        E 0 90 62 60
        E 59 80 18 00
        E 0 80 54 00
        E 0 80 60 00
        E 1 80 1f 00
        E 0 80 56 00
        E 0 80 62 00
        E 179 90 1a 60
        E 0 90 3d 60
        E 0 90 49 60
        E 0 90 55 60
        E 0 90 61 60
        E 60 80 1a 00
        E 0 80 3d 00
        E 0 80 49 00
        E 0 80 55 00
        E 0 80 61 00
        E 181 90 1b 60
        E 0 90 55 60
        E 0 90 61 60
        E 60 80 1b 00
        E 0 80 55 00
        E 0 80 61 00
        E 59 90 1a 60
        E 0 90 61 60
        E 60 80 1a 00
        E 0 80 61 00
        E 60 80 78 00
        E 0 80 79 00
        E 0 80 7a 00
        E 0 80 7b 00
        E 0 80 7c 00
        E 0 90 18 60
        E 0 90 26 60
        E 0 90 40 60
        E 0 90 48 60
        E 0 90 4c 60
        E 0 90 54 60
        E 0 90 58 60
        E 0 90 60 60
        E 0 90 64 60
        E 60 80 18 00
        E 0 80 26 00
        E 0 80 40 00
        E 0 80 48 00
        E 0 80 4c 00
        E 0 80 54 00
        E 0 80 58 00
        E 0 80 60 00
        E 0 80 64 00
        E 180 90 1f 60
        E 0 90 56 60
        E 0 90 62 60
        E 60 80 1f 00
        E 0 80 56 00
        E 0 80 62 00
        E 180 90 1a 60
        E 0 90 1f 60
        E 0 90 3d 60
        E 0 90 3e 60
        E 0 90 49 60
        E 0 90 4a 60
        E 0 90 55 60
        E 0 90 56 60
        E 0 90 61 60
        E 0 90 62 60
        E 60 80 1a 00
        E 0 80 1f 00
        E 0 80 3d 00
        E 0 80 3e 00
        E 0 80 49 00
        E 0 80 4a 00
        E 0 80 55 00
        E 0 80 56 00
        E 0 80 61 00
        E 0 80 62 00
        E 180 90 1f 60
        E 0 90 56 60
        E 0 90 62 60
        E 60 80 1f 00
        E 0 80 56 00
        E 0 80 62 00
        E 180 90 18 60
        E 0 90 1f 60
        E 0 90 3e 60
        E 0 90 48 60
        E 0 90 4a 60
        E 0 90 54 60
        E 0 90 56 60
        E 0 90 60 60
        E 0 90 62 60
        E 59 80 18 00
        E 0 80 48 00
        E 0 80 54 00
        E 0 80 60 00
        E 1 80 1f 00
        E 0 80 3e 00
        E 0 80 4a 00
        E 0 80 56 00
        E 0 80 62 00
        E 180 90 18 60
        E 0 90 1f 60
        E 0 90 54 60
        E 0 90 56 60
        E 0 90 60 60
        E 0 90 62 60
        E 59 80 18 00
        E 0 80 54 00
        E 0 80 60 00
        E 1 80 1f 00
        E 0 80 56 00
        E 0 80 62 00
        E 179 90 1a 60
        E 0 90 1f 60
        E 0 90 3d 60
        E 0 90 3e 60
        E 0 90 49 60
        E 0 90 4a 60
        E 0 90 55 60
        E 0 90 56 60
        E 0 90 61 60
        E 0 90 62 60
        E 60 80 1a 00
        E 0 80 1f 00
        E 0 80 3d 00
        E 0 80 3e 00
        E 0 80 49 00
        E 0 80 4a 00
        E 0 80 55 00
        E 0 80 56 00
        E 0 80 61 00
        E 0 80 62 00
        E 61 90 18 60
        E 0 90 60 60
        E 60 80 18 00
        E 0 80 60 00
        E 60 90 1f 60
        E 0 90 56 60
        E 0 90 62 60
        E 60 80 1f 00
        E 0 80 56 00
        E 0 80 62 00
        E 180 90 18 60
        E 0 90 1f 60
        E 0 90 3e 60
        E 0 90 48 60
        E 0 90 4a 60
        E 0 90 54 60
        E 0 90 56 60
        E 0 90 60 60
        E 0 90 62 60
        E 60 80 18 00
        E 0 80 1f 00
        E 0 80 3e 00
        E 0 80 48 00
        E 0 80 4a 00
        E 0 80 54 00
        E 0 80 56 00
        E 0 80 60 00
        E 0 80 62 00
        E 181 90 1f 60
        E 0 90 56 60
        E 0 90 62 60
        E 60 80 1f 00
        E 0 80 56 00
        E 0 80 62 00
        E 179 90 1a 60
        E 0 90 1f 60
        E 0 90 3d 60
        E 0 90 3e 60
        E 0 90 49 60
        E 0 90 4a 60
        E 0 90 55 60
        E 0 90 56 60
        E 0 90 61 60
        E 0 90 62 60
        E 60 80 1f 00
        E 0 80 3e 00
        E 0 80 4a 00
        E 0 80 56 00
        E 0 80 62 00
        E 1 80 1a 00
        E 0 80 3d 00
        E 0 80 49 00
        E 0 80 55 00
        E 0 80 61 00
        E 180 90 1f 60
        E 0 90 56 60
        E 0 90 62 60
        E 60 80 1f 00
        E 0 80 56 00
        E 0 80 62 00
        E 180 90 18 60
        E 0 90 1f 60
        E 0 90 3e 60
        E 0 90 48 60
        E 0 90 4a 60
        E 0 90 54 60
        E 0 90 56 60
        E 0 90 60 60
        E 0 90 62 60
        E 59 80 18 00
        E 0 80 48 00
        E 0 80 54 00
        E 0 80 60 00
        E 1 80 1f 00
        E 0 80 3e 00
        E 0 80 4a 00
        E 0 80 56 00
        E 0 80 62 00
        E 180 90 18 60
        E 0 90 1f 60
        E 0 90 54 60
        E 0 90 56 60
        E 0 90 60 60
        E 0 90 62 60
        E 59 80 18 00
        E 0 80 54 00
        E 0 80 60 00
        E 1 80 1f 00
        E 0 80 56 00
        E 0 80 62 00
        E 82 90 74 6e
        E 97 90 1a 60
        E 0 90 1f 60
        E 0 90 3d 60
        E 0 90 3e 60
        E 0 90 49 60
        E 0 90 4a 60
        E 0 90 55 60
        E 0 90 56 60
        E 0 90 61 60
        E 0 90 62 60
        E 60 80 1a 00
        E 0 80 1f 00
        E 0 80 3d 00
        E 0 80 3e 00
        E 0 80 49 00
        E 0 80 4a 00
        E 0 80 55 00
        E 0 80 56 00
        E 0 80 61 00
        E 0 80 62 00
        E 181 90 1f 60
        E 0 90 56 60
        E 0 90 62 60
        E 60 80 1f 00
        E 0 80 56 00
        E 0 80 62 00
        E 179 90 18 60
        E 0 90 26 60
        E 0 90 40 60
        E 0 90 48 60
        E 0 90 4c 60
        E 0 90 54 60
        E 0 90 58 60
        E 0 90 60 60
        E 0 90 64 60
        E 60 80 18 00
        E 0 80 26 00
        E 0 80 40 00
        E 0 80 48 00
        E 0 80 4c 00
        E 0 80 54 00
        E 0 80 58 00
        E 0 80 60 00
        E 0 80 64 00
        E 181 90 1f 60
        E 0 90 56 60
        E 0 90 62 60
        E 60 80 1f 00
        E 0 80 56 00
        E 0 80 62 00
        E 179 90 1a 60
        E 0 90 3d 60
        E 0 90 49 60
        E 0 90 55 60
        E 0 90 61 60
        E 61 80 1a 00
        E 0 80 3d 00
        E 0 80 49 00
        E 0 80 55 00
        E 0 80 61 00
        E 179 90 18 60
        E 0 90 26 60
        E 0 90 54 60
        E 0 90 58 60
        E 0 90 60 60
        E 0 90 64 60
        E 60 80 18 00
        E 0 80 26 00
        E 0 80 54 00
        E 0 80 58 00
        E 0 80 60 00
        E 0 80 64 00
        E 181 90 1f 60
        E 0 90 3e 60
        E 0 90 4a 60
        E 0 90 56 60
        E 0 90 62 60
        E 60 80 1f 00
        E 0 80 3e 00
        E 0 80 4a 00
        E 0 80 56 00
        E 0 80 62 00
        E 180 90 18 60
        E 0 90 1f 60
        E 0 90 54 60
        E 0 90 56 60
        E 0 90 60 60
        E 0 90 62 60
        E 59 80 18 00
        E 0 80 54 00
        E 0 80 60 00
        E 1 80 1f 00
        E 0 80 56 00
        E 0 80 62 00
        E 179 90 18 60
        E 0 90 26 60
        E 0 90 40 60
        E 0 90 48 60
        E 0 90 4c 60
        E 0 90 54 60
        E 0 90 58 60
        E 0 90 60 60
        E 0 90 64 60
        E 60 80 18 00
        E 0 80 26 00
        E 0 80 40 00
        E 0 80 48 00
        E 0 80 4c 00
        E 0 80 54 00
        E 0 80 58 00
        E 0 80 60 00
        E 0 80 64 00
        E 181 90 1f 60
        E 0 90 56 60
        E 0 90 62 60
        E 60 80 1f 00
        E 0 80 56 00
        E 0 80 62 00
        E 419 90 2f 60
        E 0 90 56 60
        E 0 90 62 60
        E 0 90 6e 60
        E 60 80 2f 00
        E 0 80 56 00
        E 0 80 62 00
        E 0 80 6e 00
        E 60 90 2e 60
        E 0 90 62 60
        E 0 90 6e 60
        E 60 80 2e 00
        E 0 80 62 00
        E 0 80 6e 00
        E 60 90 31 60
        E 0 90 3f 60
        E 0 90 4b 60
        E 0 90 57 60
        E 0 90 63 60
        E 0 90 6f 60
        E 60 80 31 00
        E 0 80 3f 00
        E 0 80 4b 00
        E 0 80 57 00
        E 0 80 63 00
        E 0 80 6f 00
        E 180 90 33 60
        E 0 90 58 60
        E 0 90 64 60
        E 0 90 70 60
        E 60 80 33 00
        E 0 80 58 00
        E 0 80 64 00
        E 0 80 70 00
        E 142 80 74 00
        E 38 90 2f 60
        E 0 90 3e 60
        E 0 90 4a 60
        E 0 90 56 60
        E 0 90 62 60
        E 0 90 6e 60
        E 60 80 2f 00
        E 0 80 3e 00
        E 0 80 4a 00
        E 0 80 56 00
        E 0 80 62 00
        E 0 80 6e 00
        E 180 90 31 60
        E 0 90 57 60
        E 0 90 63 60
        E 0 90 6f 60
        E 60 80 31 00
        E 0 80 57 00
        E 0 80 63 00
        E 0 80 6f 00
        E 180 90 33 60
        E 0 90 40 60
        E 0 90 4c 60
        E 0 90 58 60
        E 0 90 64 60
        E 0 90 70 60
        E 60 80 33 00
        E 0 80 40 00
        E 0 80 4c 00
        E 0 80 58 00
        E 0 80 64 00
        E 0 80 70 00
        E 180 90 18 60
        E 0 90 26 60
        E 0 90 54 60
        E 0 90 58 60
        E 0 90 60 60
        E 0 90 64 60
        E 60 80 18 00
        E 0 80 26 00
        E 0 80 54 00
        E 0 80 58 00
        E 0 80 60 00
        E 0 80 64 00
        E 180 90 1f 60
        E 0 90 3e 60
        E 0 90 4a 60
        E 0 90 56 60
        E 0 90 62 60
        E 60 80 1f 00
        E 0 80 3e 00
        E 0 80 4a 00
        E 0 80 56 00
        E 0 80 62 00
        E 180 90 1f 60
        E 0 90 56 60
        E 0 90 62 60
        E 60 80 1f 00
        E 0 80 56 00
        E 0 80 62 00
        E 180 90 1a 60
        E 0 90 1f 60
        E 0 90 3d 60
        E 0 90 3e 60
        E 0 90 49 60
        E 0 90 4a 60
        E 0 90 55 60
        E 0 90 56 60
        E 0 90 61 60
        E 0 90 62 60
        E 60 80 1a 00
        E 0 80 1f 00
        E 0 80 3d 00
        E 0 80 3e 00
        E 0 80 49 00
        E 0 80 4a 00
        E 0 80 55 00
        E 0 80 56 00
        E 0 80 61 00
        E 0 80 62 00
        E 180 90 1f 60
        E 0 90 56 60
        E 0 90 62 60
        E 60 80 1f 00
        E 0 80 56 00
        E 0 80 62 00
        E 180 90 18 60
        E 0 90 1f 60
        E 0 90 3e 60
        E 0 90 48 60
        E 0 90 4a 60
        E 0 90 54 60
        E 0 90 56 60
        E 0 90 60 60
        E 0 90 62 60
        E 60 80 18 00
        E 0 80 1f 00
        E 0 80 3e 00
        E 0 80 48 00
        E 0 80 4a 00
        E 0 80 54 00
        E 0 80 56 00
        E 0 80 60 00
        E 0 80 62 00
        E 180 90 18 60
        E 0 90 1f 60
        E 0 90 54 60
        E 0 90 56 60
        E 0 90 60 60
        E 0 90 62 60
        E 60 80 18 00
        E 0 80 1f 00
        E 0 80 54 00
        E 0 80 56 00
        E 0 80 60 00
        E 0 80 62 00
        E 180 90 1a 60
        E 0 90 1f 60
        E 0 90 3d 60
        E 0 90 3e 60
        E 0 90 49 60
        E 0 90 4a 60
        E 0 90 55 60
        E 0 90 56 60
        E 0 90 61 60
        E 0 90 62 60
        E 60 80 1a 00
        E 0 80 1f 00
        E 0 80 3d 00
        E 0 80 3e 00
        E 0 80 49 00
        E 0 80 4a 00
        E 0 80 55 00
        E 0 80 56 00
        E 0 80 61 00
        E 0 80 62 00
        E 180 90 1f 60
        E 0 90 56 60
        E 0 90 62 60
        E 60 80 1f 00
        E 0 80 56 00
        E 0 80 62 00
        E 180 90 18 60
        E 0 90 1f 60
        E 0 90 3e 60
        E 0 90 48 60
        E 0 90 4a 60
        E 0 90 54 60
        E 0 90 56 60
        E 0 90 60 60
        E 0 90 62 60
        E 60 80 18 00
        E 0 80 1f 00
        E 0 80 3e 00
        E 0 80 48 00
        E 0 80 4a 00
        E 0 80 54 00
        E 0 80 56 00
        E 0 80 60 00
        E 0 80 62 00
        E 180 90 1f 60
        E 0 90 56 60
        E 0 90 62 60
        E 60 80 1f 00
        E 0 80 56 00
        E 0 80 62 00
        E 180 90 1a 60
        E 0 90 1f 60
        E 0 90 3d 60
        E 0 90 3e 60
        E 0 90 49 60
        E 0 90 4a 60
        E 0 90 55 60
        E 0 90 56 60
        E 0 90 61 60
        E 0 90 62 60
        E 60 80 1a 00
        E 0 80 1f 00
        E 0 80 3d 00
        E 0 80 3e 00
        E 0 80 49 00
        E 0 80 4a 00
        E 0 80 55 00
        E 0 80 56 00
        E 0 80 61 00
        E 0 80 62 00
        E 180 90 78 6e
        E 0 90 79 6e
        E 0 90 7a 6e
        E 0 90 7b 6e
        E 0 90 7c 6e
        E 0 90 1f 60
        E 0 90 56 60
        E 0 90 62 60
        E 60 80 1f 00
        E 0 80 56 00
        E 0 80 62 00
        E 180 90 18 60
        E 0 90 1f 60
        E 0 90 3e 60
        E 0 90 48 60
        E 0 90 4a 60
        E 0 90 54 60
        E 0 90 56 60
        E 0 90 60 60
        E 0 90 62 60
        E 60 80 18 00
        E 0 80 1f 00
        E 0 80 3e 00
        E 0 80 48 00
        E 0 80 4a 00
        E 0 80 54 00
        E 0 80 56 00
        E 0 80 60 00
        E 0 80 62 00
        E 180 90 18 60
        E 0 90 1f 60
        E 0 90 54 60
        E 0 90 56 60
        E 0 90 60 60
        E 0 90 62 60
        E 60 80 18 00
        E 0 80 1f 00
        E 0 80 54 00
        E 0 80 56 00
        E 0 80 60 00
        E 0 80 62 00
        E 180 90 1a 60
        E 0 90 1f 60
        E 0 90 3d 60
        E 0 90 3e 60
        E 0 90 49 60
        E 0 90 4a 60
        E 0 90 55 60
        E 0 90 56 60
        E 0 90 61 60
        E 0 90 62 60
        E 60 80 1a 00
        E 0 80 1f 00
        E 0 80 3d 00
        E 0 80 3e 00
        E 0 80 49 00
        E 0 80 4a 00
        E 0 80 55 00
        E 0 80 56 00
        E 0 80 61 00
        E 0 80 62 00
        E 180 90 1f 60
        E 0 90 56 60
        E 0 90 62 60
        E 60 80 1f 00
        E 0 80 56 00
        E 0 80 62 00
        E 180 80 78 00
        E 0 80 79 00
        E 0 80 7a 00
        E 0 80 7b 00
        E 0 80 7c 00
        E 0 90 18 60
        E 0 90 1f 60
        E 0 90 3e 60
        E 0 90 48 60
        E 0 90 4a 60
        E 0 90 54 60
        E 0 90 56 60
        E 0 90 60 60
        E 0 90 62 60
        E 60 80 18 00
        E 0 80 1f 00
        E 0 80 3e 00
        E 0 80 48 00
        E 0 80 4a 00
        E 0 80 54 00
        E 0 80 56 00
        E 0 80 60 00
        E 0 80 62 00
        E 180 90 1f 60
        E 0 90 56 60
        E 0 90 62 60
        E 60 80 1f 00
        E 0 80 56 00
        E 0 80 62 00
        E 180 90 1a 60
        E 0 90 1f 60
        E 0 90 3d 60
        E 0 90 3e 60
        E 0 90 49 60
        E 0 90 4a 60
        E 0 90 55 60
        E 0 90 56 60
        E 0 90 61 60
        E 0 90 62 60
        E 60 80 1a 00
        E 0 80 1f 00
        E 0 80 3d 00
        E 0 80 3e 00
        E 0 80 49 00
        E 0 80 4a 00
        E 0 80 55 00
        E 0 80 56 00
        E 0 80 61 00
        E 0 80 62 00
        E 180 90 18 60
        E 0 90 1f 60
        E 0 90 54 60
        E 0 90 56 60
        E 0 90 60 60
        E 0 90 62 60
        E 60 80 18 00
        E 0 80 1f 00
        E 0 80 54 00
        E 0 80 56 00
        E 0 80 60 00
        E 0 80 62 00
        E 180 90 18 60
        E 0 90 1f 60
        E 0 90 3e 60
        E 0 90 48 60
        E 0 90 4a 60
        E 0 90 54 60
        E 0 90 56 60
        E 0 90 60 60
        E 0 90 62 60
        E 60 80 18 00
        E 0 80 1f 00
        E 0 80 3e 00
        E 0 80 48 00
        E 0 80 4a 00
        E 0 80 54 00
        E 0 80 56 00
        E 0 80 60 00
        E 0 80 62 00
        E 180 90 18 60
        E 0 90 1f 60
        E 0 90 54 60
        E 0 90 56 60
        E 0 90 60 60
        E 0 90 62 60
        E 60 80 18 00
        E 0 80 1f 00
        E 0 80 54 00
        E 0 80 56 00
        E 0 80 60 00
        E 0 80 62 00
        E 180 90 1a 60
        E 0 90 1f 60
        E 0 90 3d 60
        E 0 90 3e 60
        E 0 90 49 60
        E 0 90 4a 60
        E 0 90 55 60
        E 0 90 56 60
        E 0 90 61 60
        E 0 90 62 60
        E 60 80 1a 00
        E 0 80 1f 00
        E 0 80 3d 00
        E 0 80 3e 00
        E 0 80 49 00
        E 0 80 4a 00
        E 0 80 55 00
        E 0 80 56 00
        E 0 80 61 00
        E 0 80 62 00
        E 180 90 1f 60
        E 0 90 56 60
        E 0 90 62 60
        E 60 80 1f 00
        E 0 80 56 00
        E 0 80 62 00
        E 180 90 18 60
        E 0 90 1f 60
        E 0 90 3e 60
        E 0 90 48 60
        E 0 90 4a 60
        E 0 90 54 60
        E 0 90 56 60
        E 0 90 60 60
        E 0 90 62 60
        E 60 80 18 00
        E 0 80 1f 00
        E 0 80 3e 00
        E 0 80 48 00
        E 0 80 4a 00
        E 0 80 54 00
        E 0 80 56 00
        E 0 80 60 00
        E 0 80 62 00
        E 180 90 1f 60
        E 0 90 56 60
        E 0 90 62 60
        E 60 80 1f 00
        E 0 80 56 00
        E 0 80 62 00
        E 180 90 1a 60
        E 0 90 1f 60
        E 0 90 3d 60
        E 0 90 3e 60
        E 0 90 49 60
        E 0 90 4a 60
        E 0 90 55 60
        E 0 90 56 60
        E 0 90 61 60
        E 0 90 62 60
        E 60 80 1a 00
        E 0 80 1f 00
        E 0 80 3d 00
        E 0 80 3e 00
        E 0 80 49 00
        E 0 80 4a 00
        E 0 80 55 00
        E 0 80 56 00
        E 0 80 61 00
        E 0 80 62 00
        E 180 90 18 60
        E 0 90 1f 60
        E 0 90 54 60
        E 0 90 56 60
        E 0 90 60 60
        E 0 90 62 60
        E 60 80 18 00
        E 0 80 1f 00
        E 0 80 54 00
        E 0 80 56 00
        E 0 80 60 00
        E 0 80 62 00
        E 180 90 18 60
        E 0 90 1f 60
        E 0 90 3e 60
        E 0 90 48 60
        E 0 90 4a 60
        E 0 90 54 60
        E 0 90 56 60
        E 0 90 60 60
        E 0 90 62 60
        E 60 80 18 00
        E 0 80 1f 00
        E 0 80 3e 00
        E 0 80 48 00
        E 0 80 4a 00
        E 0 80 54 00
        E 0 80 56 00
        E 0 80 60 00
        E 0 80 62 00
        E 180 90 18 60
        E 0 90 1f 60
        E 0 90 54 60
        E 0 90 56 60
        E 0 90 60 60
        E 0 90 62 60
        E 60 80 18 00
        E 0 80 1f 00
        E 0 80 54 00
        E 0 80 56 00
        E 0 80 60 00
        E 0 80 62 00
        E 180 90 1a 60
        E 0 90 1f 60
        E 0 90 3d 60
        E 0 90 3e 60
        E 0 90 49 60
        E 0 90 4a 60
        E 0 90 55 60
        E 0 90 56 60
        E 0 90 61 60
        E 0 90 62 60
        E 60 80 1a 00
        E 0 80 1f 00
        E 0 80 3d 00
        E 0 80 3e 00
        E 0 80 49 00
        E 0 80 4a 00
        E 0 80 55 00
        E 0 80 56 00
        E 0 80 61 00
        E 0 80 62 00
        E 180 90 1f 60
        E 0 90 56 60
        E 0 90 62 60
        E 60 80 1f 00
        E 0 80 56 00
        E 0 80 62 00
        E 180 90 18 60
        E 0 90 26 60
        E 0 90 40 60
        E 0 90 48 60
        E 0 90 4c 60
        E 0 90 54 60
        E 0 90 58 60
        E 0 90 60 60
        E 0 90 64 60
        E 60 80 18 00
        E 0 80 26 00
        E 0 80 40 00
        E 0 80 48 00
        E 0 80 4c 00
        E 0 80 54 00
        E 0 80 58 00
        E 0 80 60 00
        E 0 80 64 00
        E 180 90 1f 60
        E 0 90 56 60
        E 0 90 62 60
        E 60 80 1f 00
        E 0 80 56 00
        E 0 80 62 00
        E 180 90 1a 60
        E 0 90 1f 60
        E 0 90 3d 60
        E 0 90 3e 60
        E 0 90 49 60
        E 0 90 4a 60
        E 0 90 55 60
        E 0 90 56 60
        E 0 90 61 60
        E 0 90 62 60
        E 60 80 1a 00
        E 0 80 1f 00
        E 0 80 3d 00
        E 0 80 3e 00
        E 0 80 49 00
        E 0 80 4a 00
        E 0 80 55 00
        E 0 80 56 00
        E 0 80 61 00
        E 0 80 62 00
        E 180 90 18 60
        E 0 90 1f 60
        E 0 90 54 60
        E 0 90 56 60
        E 0 90 60 60
        E 0 90 62 60
        E 0 90 78 6e
        E 0 90 79 6e
        E 0 90 7a 6e
        E 0 90 7b 6e
        E 0 90 7c 6e
        E 60 80 18 00
        E 0 80 1f 00
        E 0 80 54 00
        E 0 80 56 00
        E 0 80 60 00
        E 0 80 62 00
        E 180 90 18 60
        E 0 90 1f 60
        E 0 90 3e 60
        E 0 90 48 60
        E 0 90 4a 60
        E 0 90 54 60
        E 0 90 56 60
        E 0 90 60 60
        E 0 90 62 60
        E 60 80 18 00
        E 0 80 1f 00
        E 0 80 3e 00
        E 0 80 48 00
        E 0 80 4a 00
        E 0 80 54 00
        E 0 80 56 00
        E 0 80 60 00
        E 0 80 62 00
        E 180 90 18 60
        E 0 90 1f 60
        E 0 90 54 60
        E 0 90 56 60
        E 0 90 60 60
        E 0 90 62 60
        E 60 80 18 00
        E 0 80 1f 00
        E 0 80 54 00
        E 0 80 56 00
        E 0 80 60 00
        E 0 80 62 00
        E 180 90 1a 60
        E 0 90 1f 60
        E 0 90 3d 60
        E 0 90 3e 60
        E 0 90 49 60
        E 0 90 4a 60
        E 0 90 55 60
        E 0 90 56 60
        E 0 90 61 60
        E 0 90 62 60
        E 60 80 1a 00
        E 0 80 1f 00
        E 0 80 3d 00
        E 0 80 3e 00
        E 0 80 49 00
        E 0 80 4a 00
        E 0 80 55 00
        E 0 80 56 00
        E 0 80 61 00
        E 0 80 62 00
        E 60 90 18 60
        E 0 90 60 60
        E 60 80 18 00
        E 0 80 60 00
        E 60 90 18 60
        E 0 90 1f 60
        E 0 90 54 60
        E 0 90 56 60
        E 0 90 60 60
        E 0 90 62 60
        E 60 80 18 00
        E 0 80 1f 00
        E 0 80 54 00
        E 0 80 56 00
        E 0 80 60 00
        E 0 80 62 00
        E 180 80 78 00
        E 0 80 79 00
        E 0 80 7a 00
        E 0 80 7b 00
        E 0 80 7c 00
        E 0 90 18 60
        E 0 90 1f 60
        E 0 90 3e 60
        E 0 90 48 60
        E 0 90 4a 60
        E 0 90 54 60
        E 0 90 56 60
        E 0 90 60 60
        E 0 90 62 60
        E 60 80 18 00
        E 0 80 1f 00
        E 0 80 3e 00
        E 0 80 48 00
        E 0 80 4a 00
        E 0 80 54 00
        E 0 80 56 00
        E 0 80 60 00
        E 0 80 62 00
        E 180 90 1f 60
        E 0 90 56 60
        E 0 90 62 60
        E 60 80 1f 00
        E 0 80 56 00
        E 0 80 62 00
        E 180 90 1a 60
        E 0 90 1f 60
        E 0 90 3d 60
        E 0 90 3e 60
        E 0 90 49 60
        E 0 90 4a 60
        E 0 90 55 60
        E 0 90 56 60
        E 0 90 61 60
        E 0 90 62 60
        E 60 80 1a 00
        E 0 80 1f 00
        E 0 80 3d 00
        E 0 80 3e 00
        E 0 80 49 00
        E 0 80 4a 00
        E 0 80 55 00
        E 0 80 56 00
        E 0 80 61 00
        E 0 80 62 00
        E 180 90 18 60
        E 0 90 1f 60
        E 0 90 54 60
        E 0 90 56 60
        E 0 90 60 60
        E 0 90 62 60
        E 60 80 18 00
        E 0 80 1f 00
        E 0 80 54 00
        E 0 80 56 00
        E 0 80 60 00
        E 0 80 62 00
        E 180 90 18 60
        E 0 90 1f 60
        E 0 90 3e 60
        E 0 90 48 60
        E 0 90 4a 60
        E 0 90 54 60
        E 0 90 56 60
        E 0 90 60 60
        E 0 90 62 60
        E 60 80 18 00
        E 0 80 1f 00
        E 0 80 3e 00
        E 0 80 48 00
        E 0 80 4a 00
        E 0 80 54 00
        E 0 80 56 00
        E 0 80 60 00
        E 0 80 62 00
        E 180 90 18 60
        E 0 90 1f 60
        E 0 90 54 60
        E 0 90 56 60
        E 0 90 60 60
        E 0 90 62 60
        E 60 80 18 00
        E 0 80 1f 00
        E 0 80 54 00
        E 0 80 56 00
        E 0 80 60 00
        E 0 80 62 00
        E 180 90 1a 60
        E 0 90 1f 60
        E 0 90 3d 60
        E 0 90 3e 60
        E 0 90 49 60
        E 0 90 4a 60
        E 0 90 55 60
        E 0 90 56 60
        E 0 90 61 60
        E 0 90 62 60
        E 60 80 1a 00
        E 0 80 1f 00
        E 0 80 3d 00
        E 0 80 3e 00
        E 0 80 49 00
        E 0 80 4a 00
        E 0 80 55 00
        E 0 80 56 00
        E 0 80 61 00
        E 0 80 62 00
        E 60 90 18 60
        E 0 90 60 60
        E 60 80 18 00
        E 0 80 60 00
        E 60 90 1f 60
        E 0 90 56 60
        E 0 90 62 60
        E 60 80 1f 00
        E 0 80 56 00
        E 0 80 62 00
        E 180 90 18 60
        E 0 90 26 60
        E 0 90 40 60
        E 0 90 48 60
        E 0 90 4c 60
        E 0 90 54 60
        E 0 90 58 60
        E 0 90 60 60
        E 0 90 64 60
        E 60 80 18 00
        E 0 80 26 00
        E 0 80 40 00
        E 0 80 48 00
        E 0 80 4c 00
        E 0 80 54 00
        E 0 80 58 00
        E 0 80 60 00
        E 0 80 64 00
        E 180 90 1f 60
        E 0 90 56 60
        E 0 90 62 60
        E 60 80 1f 00
        E 0 80 56 00
        E 0 80 62 00
        E 180 90 1a 60
        E 0 90 1f 60
        E 0 90 3d 60
        E 0 90 3e 60
        E 0 90 49 60
        E 0 90 4a 60
        E 0 90 55 60
        E 0 90 56 60
        E 0 90 61 60
        E 0 90 62 60
        E 60 80 1a 00
        E 0 80 1f 00
        E 0 80 3d 00
        E 0 80 3e 00
        E 0 80 49 00
        E 0 80 4a 00
        E 0 80 55 00
        E 0 80 56 00
        E 0 80 61 00
        E 0 80 62 00
        E 180 90 18 60
        E 0 90 2a 60
        E 0 90 54 60
        E 0 90 57 60
        E 0 90 60 60
        E 0 90 63 60
        E 60 80 18 00
        E 0 80 2a 00
        E 0 80 54 00
        E 0 80 57 00
        E 0 80 60 00
        E 0 80 63 00
        E 180 90 1f 60
        E 0 90 3e 60
        E 0 90 4a 60
        E 0 90 56 60
        E 0 90 62 60
        E 60 80 1f 00
        E 0 80 3e 00
        E 0 80 4a 00
        E 0 80 56 00
        E 0 80 62 00
        E 180 90 1a 60
        E 0 90 1f 60
        E 0 90 55 60
        E 0 90 56 60
        E 0 90 61 60
        E 0 90 62 60
        E 60 80 1a 00
        E 0 80 1f 00
        E 0 80 55 00
        E 0 80 56 00
        E 0 80 61 00
        E 0 80 62 00
        E 180 90 18 60
        E 0 90 26 60
        E 0 90 40 60
        E 0 90 48 60
        E 0 90 4c 60
        E 0 90 54 60
        E 0 90 58 60
        E 0 90 60 60
        E 0 90 64 60
        E 60 80 18 00
        E 0 80 26 00
        E 0 80 40 00
        E 0 80 48 00
        E 0 80 4c 00
        E 0 80 54 00
        E 0 80 58 00
        E 0 80 60 00
        E 0 80 64 00
        E 180 90 1f 60
        E 0 90 56 60
        E 0 90 62 60
        E 60 80 1f 00
        E 0 80 56 00
        E 0 80 62 00
        E 420 90 2f 60
        E 0 90 56 60
        E 0 90 62 60
        E 0 90 6e 60
        E 60 80 2f 00
        E 0 80 56 00
        E 0 80 62 00
        E 0 80 6e 00
        E 180 90 2f 60
        E 0 90 3e 60
        E 0 90 4a 60
        E 0 90 56 60
        E 0 90 62 60
        E 0 90 6e 60
        E 60 80 2f 00
        E 0 80 3e 00
        E 0 80 4a 00
        E 0 80 56 00
        E 0 80 62 00
        E 0 80 6e 00
        E 180 90 31 60
        E 0 90 57 60
        E 0 90 63 60
        E 0 90 6f 60
        E 60 80 31 00
        E 0 80 57 00
        E 0 80 63 00
        E 0 80 6f 00
        E 180 90 2f 60
        E 0 90 3e 60
        E 0 90 4a 60
        E 0 90 56 60
        E 0 90 62 60
        E 0 90 6e 60
        E 60 80 2f 00
        E 0 80 3e 00
        E 0 80 4a 00
        E 0 80 56 00
        E 0 80 62 00
        E 0 80 6e 00
        E 180 90 31 60
        E 0 90 57 60
        E 0 90 63 60
        E 0 90 6f 60
        E 60 80 31 00
        E 0 80 57 00
        E 0 80 63 00
        E 0 80 6f 00
        E 180 90 31 60
        E 0 90 3f 60
        E 0 90 4b 60
        E 0 90 57 60
        E 0 90 63 60
        E 0 90 6f 60
        E 60 80 31 00
        E 0 80 3f 00
        E 0 80 4b 00
        E 0 80 57 00
        E 0 80 63 00
        E 0 80 6f 00
        E 180 90 33 60
        E 0 90 58 60
        E 0 90 64 60
        E 0 90 70 60
        E 60 80 33 00
        E 0 80 58 00
        E 0 80 64 00
        E 0 80 70 00
        E 180 90 18 60
        E 0 90 26 60
        E 0 90 40 60
        E 0 90 48 60
        E 0 90 4c 60
        E 0 90 54 60
        E 0 90 58 60
        E 0 90 60 60
        E 0 90 64 60
        E 60 80 18 00
        E 0 80 26 00
        E 0 80 40 00
        E 0 80 48 00
        E 0 80 4c 00
        E 0 80 54 00
        E 0 80 58 00
        E 0 80 60 00
        E 0 80 64 00
        E 300 90 1a 60
        E 0 90 61 60
        E 60 80 1a 00
        E 0 80 61 00
        E 60 90 1b 60
        E 0 90 3d 60
        E 0 90 49 60
        E 0 90 55 60
        E 0 90 61 60
        E 60 80 1b 00
        E 0 80 3d 00
        E 0 80 49 00
        E 0 80 55 00
        E 0 80 61 00
        E 180 90 18 60
        E 0 90 26 60
        E 0 90 54 60
        E 0 90 58 60
        E 0 90 60 60
        E 0 90 64 60
        E 60 80 18 00
        E 0 80 26 00
        E 0 80 54 00
        E 0 80 58 00
        E 0 80 60 00
        E 0 80 64 00
        E 420 90 18 60
        E 0 90 54 60
        E 0 90 60 60
        E 60 80 18 00
        E 0 80 54 00
        E 0 80 60 00
        E 180 90 31 60
        E 0 90 3f 60
        E 0 90 4b 60
        E 0 90 57 60
        E 0 90 63 60
        E 0 90 6f 60
        E 60 80 31 00
        E 0 80 3f 00
        E 0 80 4b 00
        E 0 80 57 00
        E 0 80 63 00
        E 0 80 6f 00
        E 60 90 30 60
        E 0 90 63 60
        E 0 90 6f 60
        E 60 80 30 00
        E 0 80 63 00
        E 0 80 6f 00
        E 60 90 31 60
        E 0 90 57 60
        E 0 90 63 60
        E 0 90 6f 60
        E 60 80 31 00
        E 0 80 57 00
        E 0 80 63 00
        E 0 80 6f 00
        E 60 90 32 60
        E 0 90 64 60
        E 0 90 70 60
        E 60 80 32 00
        E 0 80 64 00
        E 0 80 70 00
        E 60 90 33 60
        E 0 90 40 60
        E 0 90 4c 60
        E 0 90 58 60
        E 0 90 64 60
        E 0 90 70 60
        E 60 80 33 00
        E 0 80 40 00
        E 0 80 4c 00
        E 0 80 58 00
        E 0 80 64 00
        E 0 80 70 00
        E 420 90 18 60
        E 0 90 26 60
        E 0 90 40 60
        E 0 90 48 60
        E 0 90 4c 60
        E 0 90 54 60
        E 0 90 58 60
        E 0 90 60 60
        E 0 90 64 60
        E 60 80 18 00
        E 0 80 26 00
        E 0 80 40 00
        E 0 80 48 00
        E 0 80 4c 00
        E 0 80 54 00
        E 0 80 58 00
        E 0 80 60 00
        E 0 80 64 00
        E 180 90 18 60
        E 0 90 2a 60
        E 0 90 54 60
        E 0 90 57 60
        E 0 90 60 60
        E 0 90 63 60
        E 60 80 18 00
        E 0 80 2a 00
        E 0 80 54 00
        E 0 80 57 00
        E 0 80 60 00
        E 0 80 63 00
        E 180 90 18 60
        E 0 90 26 60
        E 0 90 40 60
        E 0 90 48 60
        E 0 90 4c 60
        E 0 90 54 60
        E 0 90 58 60
        E 0 90 60 60
        E 0 90 64 60
        E 60 80 18 00
        E 0 80 26 00
        E 0 80 40 00
        E 0 80 48 00
        E 0 80 4c 00
        E 0 80 54 00
        E 0 80 58 00
        E 0 80 60 00
        E 0 80 64 00
        <X 480 0
          /wFbaWRsZV9yZWFsdGltZV0=
        >
        E 3132 b0 7b 00
        GUID {99C52F88-C54B-4CCD-B038-A5C950AC8E6E}
        IGNTEMPO 0 120.00000000 4 4
        SRCCOLOR 1397
        VELLANE 132 38 60
        COLORMAP "C:\Users\wejaa\AppData\Roaming\REAPER\Data\color_maps\rockband_drums.png"
        TEXTSTRINGFILE "Text Events List.txt"
        CFGEDITVIEW 28436.455805 131.703032 0 12 0 0 0
        CFGEDIT 1 1 0 0 0 1 1 1 1 1 1 0.12500000 -8 -8 1370 736 1 0 1 2 0.00000000 0 0 0 0 0.500000 1 0 1.000000 64
        KEYSNAP 0 0 "102034050607" 0 "Major"
        EVTFILTER 0 -1 -1 -1 -1 0 1 0 0 -1.00000000 -1.00000000
      >
    >
  >
  <TRACK '{A19EAF21-5432-494C-B46F-F1A21CB1174B}'
    NAME "primevideopokmonsarjaalkukausi2-bass-G minor-145bpm-440hz"
    PEAKCOL 16576
    BEAT -1
    AUTOMODE 0
    VOLPAN 1.00000000000000 0.00000000000000 -1.00000000000000 -1.00000000000000 1.00000000000000
    MUTESOLO 0 0 0
    IPHASE 0
    ISBUS 0 0
    BUSCOMP 0 0
    SHOWINMIX 1 0.666700 0.500000 1 0.500000 -1 -1 -1
    FREEMODE 0
    SEL 0
    REC 0 0 0 0 0 0 0
    VU 2
    TRACKHEIGHT 0 0
    INQ 0 0 0 0.5000000000 100 0 0 100
    NCHAN 2
    FX 1
    TRACKID {A19EAF21-5432-494C-B46F-F1A21CB1174B}
    PERF 0
    MIDIOUT -1
    MAINSEND 1 0
    <ITEM
      POSITION 2.62765604676679
      SNAPOFFS 0.00000000000000
      LENGTH 61.88512471655329
      LOOP 0
      ALLTAKES 0
      SEL 0
      FADEIN 1 0.000000 0.000000 1 0
      FADEOUT 1 0.000000 0.000000 1 0
      MUTE 0
      IGUID {8FF69D29-8C73-41C5-A4A4-2DC7306779F5}
      IID 73
      NAME "primevideopokmonsarjaalkukausi2-bass-G minor-145bpm-440hz.mp3"
      VOLPAN 1.000000 0.000000 1.000000 -1.000000
      SOFFS 0.00000000000000
      PLAYRATE 1.00000000000000 1 0.00000000000000 -1
      CHANMODE 0
      GUID {8896BA7D-357A-4FA7-BED2-7BC70DA32382}
      <SOURCE MP3
        FILE "primevideopokmonsarjaalkukausi2-bass-G minor-145bpm-440hz.mp3" 1
      >
    >
  >
  <TRACK '{70C3FE4D-3BC3-4146-95C4-8AC455A2D0F5}'
    NAME "PART BASS"
    PEAKCOL 16777471
    BEAT -1
    AUTOMODE 0
    VOLPAN 1.00000000000000 0.00000000000000 -1.00000000000000 -1.00000000000000 1.00000000000000
    MUTESOLO 0 0 0
    IPHASE 0
    ISBUS 0 0
    BUSCOMP 1 0
    SHOWINMIX 1 0.666700 0.500000 1 0.500000 -1 -1 -1
    FREEMODE 0
    SEL 0
    REC 0 4096 1 0 0 0 0
    TRACKHEIGHT 162 0
    INQ 0 0 0 0.5000000000 100 0 0 100
    NCHAN 2
    FX 1
    TRACKID {70C3FE4D-3BC3-4146-95C4-8AC455A2D0F5}
    PERF 0
    MIDIOUT -1
    <MIDINOTENAMES
      0 96 "EXPERT Green"
      0 97 "EXPERT Red"
      0 98 "EXPERT Yellow"
      0 99 "EXPERT Blue"
      0 100 "EXPERT Orange"
      0 84 "HARD Green"
      0 85 "HARD Red"
      0 86 "HARD Yellow"
      0 87 "HARD Blue"
      0 88 "HARD Orange"
      0 91 "----"
      0 116 "OVERDRIVE"
      0 40 "Left Hand Lowest"
      0 59 "Left Hand Highest"
      0 58 "-"
      0 57 "-"
      0 56 "-"
      0 55 "-"
      0 54 "-"
      0 53 "-"
      0 52 "-"
      0 51 "-"
      0 50 "-"
      0 49 "-"
      0 47 "-"
      0 48 "-"
      0 46 "-"
      0 45 "-"
      0 44 "-"
      0 43 "-"
      0 42 "-"
      0 41 "-"
      0 111 "----"
      0 72 "MEDIUM Green"
      0 73 "MEDIUM Red"
      0 74 "MEDIUM Yellow"
      0 75 "MEDIUM Blue"
      0 76 "MEDIUM Orange"
      0 60 "EASY Green"
      0 61 "EASY Red"
      0 62 "EASY Yellow"
      0 63 "EASY Blue"
      0 64 "EASY Orange"
      0 68 "----"
      0 80 "----"
      0 102 "Force HOPO Off"
      0 101 "Force HOPO On"
      0 120 "BRE (use all 5)"
      0 121 "BRE"
      0 122 "BRE"
      0 123 "BRE"
      0 124 "BRE"
      0 119 "----"
      0 90 "Force HOPO Off"
      0 89 "Force HOPO On"
      0 127 "Trill Marker"
      0 125 "----"
      0 103 "Solo Marker"
      0 126 "Strum Marker"
    >
    MAINSEND 1 0
    <FXCHAIN
      WNDRECT -983 474 878 585
      SHOW 0
      LASTSEL 1
      DOCKED 0
      BYPASS 1 0
      <VST "VSTi: ReaSynth (Cockos)" "reasynth.dll" 0 ""
        eXNlcu9e7f4AAAAAAgAAAAEAAAAAAAAAAgAAAAAAAAA4AAAAAAAAAA==
        AAAAAO++rd4N8K3eAAAAAAAAAAAAAAAAAAAAADm0SD59y9s+tbSxOQ==
        AAAAALbz/T5VpCs6AAAAAAAAAAAAAAAAAAA=
      >
      FLOATPOS 0 0 0 0
      FXID {D4EC3C58-478E-4D1F-A0FC-2252BD344989}
      WAK 0
      BYPASS 0 0
      <VST "VSTi: RBN Preview (RBN)" "rbprev_vst64_beta.dll" 0 ""
        dnBicu5e7f4AAAAAAgAAAAEAAAAAAAAAAgAAAAAAAAAEAAAAAQAAAA==
        AAAAAAMAqgAAAAAAAAA=
      >
      FLOATPOS 32 32 659 497
      FXID {72D22271-4F4F-4081-90C4-66415E7AEC47}
      WAK 0
    >
    <ITEM
      POSITION 0.00000000000000
      SNAPOFFS 0.00000000000000
      LENGTH 65.21492178400015
      LOOP 0
      ALLTAKES 0
      SEL 0
      FADEIN 1 0.000000 0.000000 1 0
      FADEOUT 1 0.000000 0.000000 1 0
      MUTE 0
      IGUID {A1B24BBF-93B7-476C-BC6D-33F5621C633F}
      IID 8
      NAME "PART BASS"
      VOLPAN 1.000000 0.000000 1.000000 -1.000000
      SOFFS 0.00000000000000 0.00000000000000
      PLAYRATE 1.00000000000000 1 0.00000000000000 -65536
      CHANMODE 0
      GUID {344A7487-35C3-41F9-8B1E-12A4F3D7F336}
      <SOURCE MIDI
        HASDATA 1 480 QN
        POOLEDEVTS {C3F739F7-1243-45BA-8BC8-C49D3E0158DD}
        <X 0 0
          /wNQQVJUIEJBU1M=
        >
        <X 3840 0
          /wFbcGxheV0=
        >
        E 0 90 40 60
        E 0 90 4c 60
        E 0 90 58 60
        E 0 90 64 60
        E 2880 80 40 00
        E 0 80 4c 00
        E 0 80 58 00
        E 0 80 64 00
        E 240 90 55 60
        E 0 90 61 60
        E 60 80 55 00
        E 0 80 61 00
        E 180 90 3e 60
        E 0 90 4a 60
        E 0 90 56 60
        E 0 90 62 60
        E 60 80 3e 00
        E 0 80 4a 00
        E 0 80 56 00
        E 0 80 62 00
        E 180 90 4a 60
        E 0 90 56 60
        E 0 90 62 60
        E 780 80 4a 00
        E 0 80 56 00
        E 0 80 62 00
        E 2580 90 56 60
        E 0 90 62 60
        E 60 80 56 00
        E 0 80 62 00
        E 180 90 3d 60
        E 0 90 49 60
        E 0 90 55 60
        E 0 90 61 60
        E 60 80 3d 00
        E 0 80 49 00
        E 0 80 55 00
        E 0 80 61 00
        E 180 90 54 60
        E 0 90 60 60
        E 780 80 54 00
        E 0 80 60 00
        E 2100 90 3e 60
        E 0 90 4a 60
        E 0 90 56 60
        E 0 90 62 60
        E 120 80 3e 00
        E 0 80 4a 00
        E 0 80 56 00
        E 180 80 62 00
        E 180 90 49 60
        E 0 90 55 60
        E 0 90 61 60
        E 120 80 49 00
        E 0 80 55 00
        E 180 80 61 00
        E 180 90 4a 60
        E 0 90 56 60
        E 0 90 62 60
        E 60 80 4a 00
        E 0 80 56 00
        E 0 80 62 00
        E 180 90 3e 60
        E 0 90 4a 60
        E 0 90 56 60
        E 0 90 62 60
        E 780 80 3e 00
        E 0 80 4a 00
        E 0 80 56 00
        E 0 80 62 00
        E 1140 90 3c 60
        E 0 90 48 60
        E 0 90 54 60
        E 0 90 60 60
        E 1440 80 3c 00
        E 0 80 48 00
        E 90 90 74 6e
        E 30 80 54 00
        E 0 80 60 00
        E 120 90 56 60
        E 0 90 62 60
        E 60 80 56 00
        E 0 80 62 00
        E 180 90 3c 60
        E 0 90 48 60
        E 0 90 54 60
        E 0 90 60 60
        E 120 80 3c 00
        E 0 80 48 00
        E 540 80 54 00
        E 0 80 60 00
        E 120 90 49 60
        E 0 90 55 60
        E 0 90 61 60
        E 120 80 49 00
        E 420 80 55 00
        E 0 80 61 00
        E 120 90 3e 60
        E 0 90 4a 60
        E 0 90 56 60
        E 0 90 62 60
        E 1384 80 74 00
        E 56 80 3e 00
        E 0 80 4a 00
        E 60 80 56 00
        E 0 80 62 00
        E 180 90 55 60
        E 0 90 61 60
        E 60 80 55 00
        E 0 80 61 00
        E 180 90 3e 60
        E 0 90 4a 60
        E 0 90 56 60
        E 0 90 62 60
        E 60 80 3e 00
        E 0 80 4a 00
        E 0 80 56 00
        E 0 80 62 00
        E 180 90 57 60
        E 0 90 63 60
        E 780 80 57 00
        E 0 80 63 00
        E 2580 90 56 60
        E 0 90 62 60
        E 60 80 56 00
        E 0 80 62 00
        E 180 90 3d 60
        E 0 90 49 60
        E 0 90 55 60
        E 0 90 61 60
        E 60 80 3d 00
        E 0 80 49 00
        E 0 80 55 00
        E 0 80 61 00
        E 180 90 54 60
        E 0 90 60 60
        E 780 80 54 00
        E 0 80 60 00
        E 2100 90 3e 60
        E 0 90 4a 60
        E 0 90 56 60
        E 0 90 62 60
        E 120 80 3e 00
        E 0 80 4a 00
        E 0 80 56 00
        E 180 80 62 00
        E 180 90 49 60
        E 0 90 55 60
        E 0 90 61 60
        E 120 80 49 00
        E 0 80 55 00
        E 180 80 61 00
        E 180 90 4a 60
        E 0 90 56 60
        E 0 90 62 60
        E 60 80 4a 00
        E 0 80 56 00
        E 0 80 62 00
        E 180 90 3e 60
        E 0 90 4a 60
        E 0 90 56 60
        E 0 90 62 60
        E 780 80 3e 00
        E 0 80 4a 00
        E 0 80 56 00
        E 0 80 62 00
        E 960 90 74 6e
        E 180 90 3c 60
        E 0 90 48 60
        E 0 90 54 60
        E 0 90 60 60
        E 1440 80 3c 00
        E 0 80 48 00
        E 120 80 54 00
        E 0 80 60 00
        E 120 90 56 60
        E 0 90 62 60
        E 60 80 56 00
        E 0 80 62 00
        E 180 90 3c 60
        E 0 90 48 60
        E 0 90 54 60
        E 0 90 60 60
        E 120 80 3c 00
        E 0 80 48 00
        E 540 80 54 00
        E 0 80 60 00
        E 120 90 49 60
        E 0 90 55 60
        E 0 90 61 60
        E 120 80 49 00
        E 420 80 55 00
        E 0 80 61 00
        E 120 90 3e 60
        E 0 90 4a 60
        E 0 90 56 60
        E 0 90 62 60
        E 1440 80 3e 00
        E 0 80 4a 00
        E 60 80 56 00
        E 0 80 62 00
        E 180 80 74 00
        E 0 90 56 60
        E 0 90 62 60
        E 60 80 56 00
        E 0 80 62 00
        E 180 90 49 60
        E 0 90 55 60
        E 0 90 61 60
        E 60 80 49 00
        E 0 80 55 00
        E 0 80 61 00
        E 180 90 56 60
        E 0 90 62 60
        E 60 80 56 00
        E 0 80 62 00
        E 180 90 3e 60
        E 0 90 4a 60
        E 0 90 56 60
        E 0 90 62 60
        E 120 80 3e 00
        E 0 80 4a 00
        E 420 80 56 00
        E 0 80 62 00
        E 180 90 4a 60
        E 0 90 56 60
        E 0 90 62 60
        E 60 80 4a 00
        E 0 80 56 00
        E 0 80 62 00
        E 180 90 3e 60
        E 0 90 4a 60
        E 0 90 56 60
        E 0 90 62 60
        E 60 80 3e 00
        E 0 80 4a 00
        E 0 80 56 00
        E 0 80 62 00
        E 180 90 4a 60
        E 0 90 56 60
        E 0 90 62 60
        E 120 80 4a 00
        E 240 80 56 00
        E 0 80 62 00
        E 120 90 54 60
        E 0 90 60 60
        E 60 80 54 00
        E 0 80 60 00
        E 180 90 3e 60
        E 0 90 4a 60
        E 0 90 56 60
        E 0 90 62 60
        E 120 80 3e 00
        E 0 80 4a 00
        E 420 80 56 00
        E 0 80 62 00
        E 180 90 48 60
        E 0 90 54 60
        E 0 90 60 60
        E 60 80 48 00
        E 0 80 54 00
        E 0 80 60 00
        E 180 90 3c 60
        E 0 90 48 60
        E 0 90 54 60
        E 0 90 60 60
        E 60 80 3c 00
        E 0 80 48 00
        E 0 80 54 00
        E 0 80 60 00
        E 180 90 48 60
        E 0 90 54 60
        E 0 90 60 60
        E 120 80 48 00
        E 0 80 54 00
        E 180 80 60 00
        E 180 90 54 60
        E 0 90 60 60
        E 60 80 54 00
        E 0 80 60 00
        E 180 90 3e 60
        E 0 90 4a 60
        E 0 90 56 60
        E 0 90 62 60
        E 120 80 3e 00
        E 0 80 4a 00
        E 420 80 56 00
        E 0 80 62 00
        E 180 90 4a 60
        E 0 90 56 60
        E 0 90 62 60
        E 60 80 4a 00
        E 0 80 56 00
        E 0 80 62 00
        E 180 90 3e 60
        E 0 90 4a 60
        E 0 90 56 60
        E 0 90 62 60
        E 60 80 3e 00
        E 0 80 4a 00
        E 0 80 56 00
        E 0 80 62 00
        E 180 90 4a 60
        E 0 90 56 60
        E 0 90 62 60
        E 120 80 4a 00
        E 420 80 56 00
        E 0 80 62 00
        E 180 90 3c 60
        E 0 90 48 60
        E 0 90 54 60
        E 0 90 60 60
        E 120 80 3c 00
        E 0 80 48 00
        E 420 80 54 00
        E 0 80 60 00
        E 180 90 48 60
        E 0 90 54 60
        E 0 90 60 60
        E 60 80 48 00
        E 0 80 54 00
        E 0 80 60 00
        E 180 90 3c 60
        E 0 90 48 60
        E 0 90 54 60
        E 0 90 60 60
        E 60 80 3c 00
        E 0 80 48 00
        E 0 80 54 00
        E 0 80 60 00
        E 180 90 48 60
        E 0 90 54 60
        E 0 90 60 60
        E 120 80 48 00
        E 0 80 54 00
        E 180 80 60 00
        E 180 90 54 60
        E 0 90 60 60
        E 60 80 54 00
        E 0 80 60 00
        E 180 90 3d 60
        E 0 90 49 60
        E 0 90 55 60
        E 0 90 61 60
        E 120 80 3d 00
        E 0 80 49 00
        E 420 80 55 00
        E 0 80 61 00
        E 180 90 49 60
        E 0 90 55 60
        E 0 90 61 60
        E 60 80 49 00
        E 0 80 55 00
        E 0 80 61 00
        E 180 90 3d 60
        E 0 90 49 60
        E 0 90 55 60
        E 0 90 61 60
        E 60 80 3d 00
        E 0 80 49 00
        E 0 80 55 00
        E 0 80 61 00
        E 180 90 49 60
        E 0 90 55 60
        E 0 90 61 60
        E 120 80 49 00
        E 0 80 55 00
        E 180 80 61 00
        E 180 90 55 60
        E 0 90 61 60
        E 60 80 55 00
        E 0 80 61 00
        E 180 90 3e 60
        E 0 90 4a 60
        E 0 90 56 60
        E 0 90 62 60
        E 479 80 3e 00
        E 0 80 4a 00
        E 60 80 56 00
        E 0 80 62 00
        E 181 90 56 60
        E 0 90 62 60
        E 59 80 56 00
        E 0 80 62 00
        E 180 90 3e 60
        E 0 90 4a 60
        E 0 90 56 60
        E 0 90 62 60
        E 60 80 3e 00
        E 0 80 4a 00
        E 0 80 56 00
        E 0 80 62 00
        E 180 90 56 60
        E 0 90 62 60
        e 144 90 74 6e
        E 397 80 56 00
        E 0 80 62 00
        E 180 90 3e 60
        E 0 90 4a 60
        E 0 90 56 60
        E 0 90 62 60
        E 120 80 3e 00
        E 0 80 4a 00
        E 480 80 56 00
        E 60 80 62 00
        E 60 90 4a 60
        E 0 90 56 60
        E 0 90 62 60
        E 120 80 4a 00
        E 420 80 56 00
        E 0 80 62 00
        E 180 90 3f 60
        E 0 90 4b 60
        E 0 90 57 60
        E 0 90 63 60
        e 1402 80 74 00
        E 38 80 3f 00
        E 0 80 4b 00
        E 60 80 57 00
        E 0 80 63 00
        E 180 90 56 60
        E 0 90 62 60
        E 60 80 56 00
        E 0 80 62 00
        E 180 90 3f 60
        E 0 90 4b 60
        E 0 90 57 60
        E 0 90 63 60
        E 60 80 3f 00
        E 0 80 4b 00
        E 0 80 57 00
        E 0 80 63 00
        E 180 90 4b 60
        E 0 90 57 60
        E 0 90 63 60
        E 480 80 4b 00
        E 300 80 57 00
        E 0 80 63 00
        E 180 90 4b 60
        E 0 90 57 60
        E 0 90 63 60
        E 60 80 4b 00
        E 0 80 57 00
        E 0 80 63 00
        E 180 90 3f 60
        E 0 90 4b 60
        E 0 90 57 60
        E 0 90 63 60
        E 60 80 3f 00
        E 0 80 4b 00
        E 0 80 57 00
        E 0 80 63 00
        E 180 90 4b 60
        E 0 90 57 60
        E 0 90 63 60
        E 120 80 4b 00
        E 0 80 57 00
        E 180 80 63 00
        E 180 90 57 60
        E 0 90 63 60
        E 60 80 57 00
        E 0 80 63 00
        E 180 90 40 60
        E 0 90 4c 60
        E 0 90 58 60
        E 0 90 64 60
        E 120 80 40 00
        E 0 80 4c 00
        E 0 80 58 00
        E 180 80 64 00
        E 60 90 56 60
        E 0 90 62 60
        E 0 90 65 60
        E 60 80 65 00
        E 60 80 56 00
        E 180 80 62 00
        E 60 90 4a 60
        E 0 90 56 60
        E 0 90 62 60
        E 60 80 4a 00
        E 0 80 56 00
        E 0 80 62 00
        E 180 90 3e 60
        E 0 90 4a 60
        E 0 90 56 60
        E 0 90 62 60
        E 60 80 3e 00
        E 0 80 4a 00
        E 0 80 56 00
        E 0 80 62 00
        E 180 90 4a 60
        E 0 90 56 60
        E 0 90 62 60
        E 120 80 4a 00
        E 0 80 56 00
        E 180 80 62 00
        E 180 90 48 60
        E 0 90 54 60
        E 0 90 60 60
        E 60 80 48 00
        E 0 80 54 00
        E 0 80 60 00
        E 180 90 3c 60
        E 0 90 48 60
        E 0 90 54 60
        E 0 90 60 60
        E 120 80 3c 00
        E 0 80 48 00
        E 420 80 54 00
        E 0 80 60 00
        E 180 90 49 60
        E 0 90 55 60
        E 0 90 61 60
        E 60 80 49 00
        E 0 80 55 00
        E 0 80 61 00
        E 180 90 3d 60
        E 0 90 49 60
        E 0 90 55 60
        E 0 90 61 60
        E 60 80 3d 00
        E 0 80 49 00
        E 0 80 55 00
        E 0 80 61 00
        E 180 90 49 60
        E 0 90 55 60
        E 0 90 61 60
        E 120 80 49 00
        E 0 80 55 00
        E 180 80 61 00
        E 180 90 55 60
        E 0 90 61 60
        E 60 80 55 00
        E 0 80 61 00
        E 180 90 3e 60
        E 0 90 4a 60
        E 0 90 56 60
        E 0 90 62 60
        E 120 80 3e 00
        E 0 80 4a 00
        E 420 80 56 00
        E 0 80 62 00
        E 180 90 4a 60
        E 0 90 56 60
        E 0 90 62 60
        E 60 80 4a 00
        E 0 80 56 00
        E 0 80 62 00
        E 180 90 3e 60
        E 0 90 4a 60
        E 0 90 56 60
        E 0 90 62 60
        E 60 80 3e 00
        E 0 80 4a 00
        E 0 80 56 00
        E 0 80 62 00
        E 180 90 4a 60
        E 0 90 56 60
        E 0 90 62 60
        E 120 80 4a 00
        E 0 80 56 00
        E 180 80 62 00
        E 180 90 56 60
        E 0 90 62 60
        E 60 80 56 00
        E 0 80 62 00
        E 180 90 3d 60
        E 0 90 49 60
        E 0 90 55 60
        E 0 90 61 60
        E 120 80 3d 00
        E 0 80 49 00
        E 420 80 55 00
        E 0 80 61 00
        E 180 90 49 60
        E 0 90 55 60
        E 0 90 61 60
        E 60 80 49 00
        E 0 80 55 00
        E 0 80 61 00
        E 180 90 3d 60
        E 0 90 49 60
        E 0 90 55 60
        E 0 90 61 60
        E 60 80 3d 00
        E 0 80 49 00
        E 0 80 55 00
        E 0 80 61 00
        E 180 90 49 60
        E 0 90 55 60
        E 0 90 61 60
        E 120 80 49 00
        E 0 80 55 00
        E 180 80 61 00
        E 180 90 55 60
        E 0 90 61 60
        E 60 80 55 00
        E 0 80 61 00
        E 180 90 3e 60
        E 0 90 4a 60
        E 0 90 56 60
        E 0 90 62 60
        E 120 80 3e 00
        E 0 80 4a 00
        E 420 80 56 00
        E 0 80 62 00
        E 180 90 4a 60
        E 0 90 56 60
        E 0 90 62 60
        E 60 80 4a 00
        E 0 80 56 00
        E 0 80 62 00
        E 180 90 3e 60
        E 0 90 4a 60
        E 0 90 56 60
        E 0 90 62 60
        E 60 80 3e 00
        E 0 80 4a 00
        E 0 80 56 00
        E 0 80 62 00
        E 180 90 4a 60
        E 0 90 56 60
        E 0 90 62 60
        E 120 80 4a 00
        E 0 80 56 00
        E 180 80 62 00
        E 180 90 55 60
        E 0 90 61 60
        E 60 80 55 00
        E 0 80 61 00
        E 180 90 3c 60
        E 0 90 48 60
        E 0 90 54 60
        E 0 90 60 60
        E 120 80 3c 00
        E 0 80 48 00
        E 420 80 54 00
        E 0 80 60 00
        E 180 90 49 60
        E 0 90 55 60
        E 0 90 61 60
        E 120 80 49 00
        E 420 80 55 00
        E 0 80 61 00
        E 180 90 3e 60
        E 0 90 4a 60
        E 0 90 56 60
        E 0 90 62 60
        E 1920 80 3e 00
        E 0 80 4a 00
        E 300 80 56 00
        E 0 80 62 00
        E 180 90 3e 60
        E 0 90 4a 60
        E 0 90 56 60
        E 0 90 62 60
        E 360 80 3e 00
        E 0 80 4a 00
        E 360 80 56 00
        E 60 80 62 00
        E 60 90 4a 60
        E 0 90 56 60
        E 0 90 62 60
        E 900 80 4a 00
        E 0 80 56 00
        E 0 80 62 00
        E 660 90 3c 60
        E 0 90 48 60
        E 0 90 54 60
        E 0 90 60 60
        E 60 80 3c 00
        E 0 80 48 00
        E 0 80 54 00
        E 0 80 60 00
        E 180 90 48 60
        E 0 90 54 60
        E 0 90 60 60
        E 60 80 48 00
        E 0 80 54 00
        E 0 80 60 00
        E 180 90 3c 60
        E 0 90 48 60
        E 0 90 54 60
        E 0 90 60 60
        E 720 80 3c 00
        E 0 80 48 00
        E 0 80 54 00
        E 0 80 60 00
        <X 480 0
          /wFbaWRsZV9yZWFsdGltZV0=
        >
        E 2472 b0 7b 00
        GUID {54A57D35-811F-42A6-AB75-F5706122F903}
        IGNTEMPO 0 120.00000000 4 4
        SRCCOLOR 1398
        VELLANE 132 128 60
        COLORMAP "C:\Users\wejaa\AppData\Roaming\REAPER\Data\color_maps\rockband_guitarbass.png"
        TEXTSTRINGFILE "Text Events List.txt"
        CFGEDITVIEW 28436.455805 131.703032 0 12 0 0 0
        CFGEDIT 1 1 0 0 0 1 1 1 1 1 1 0.12500000 -8 -8 1370 736 1 2 1 2 0.00000000 0 0 0 0 0.500000 0 0 1.000000 64
        KEYSNAP 0 0 "102034050607" 0 "Major"
        EVTFILTER 0 -1 -1 -1 -1 0 1 0 0 -1.00000000 -1.00000000
      >
    >
  >
  <TRACK '{B3E24D9A-BF32-44E2-9152-5E817F7BBEC1}'
    NAME "primevideopokmonsarjaalkukausi2-guitars-G minor-145bpm-440hz"
    PEAKCOL 16576
    BEAT -1
    AUTOMODE 0
    VOLPAN 1.00000000000000 0.00000000000000 -1.00000000000000 -1.00000000000000 1.00000000000000
    MUTESOLO 0 0 0
    IPHASE 0
    ISBUS 0 0
    BUSCOMP 0 0
    SHOWINMIX 1 0.666700 0.500000 1 0.500000 -1 -1 -1
    FREEMODE 0
    SEL 0
    REC 0 0 0 0 0 0 0
    VU 2
    TRACKHEIGHT 0 0
    INQ 0 0 0 0.5000000000 100 0 0 100
    NCHAN 2
    FX 1
    TRACKID {B3E24D9A-BF32-44E2-9152-5E817F7BBEC1}
    PERF 0
    MIDIOUT -1
    MAINSEND 1 0
    <ITEM
      POSITION 2.62765604676679
      SNAPOFFS 0.00000000000000
      LENGTH 61.88512471655329
      LOOP 0
      ALLTAKES 0
      SEL 0
      FADEIN 1 0.000000 0.000000 1 0
      FADEOUT 1 0.000000 0.000000 1 0
      MUTE 0
      IGUID {3443F5DA-6EBB-4BBD-808C-532F241F9A0F}
      IID 92
      NAME "primevideopokmonsarjaalkukausi2-guitars-G minor-145bpm-440hz.mp3"
      VOLPAN 1.000000 0.000000 1.000000 -1.000000
      SOFFS 0.00000000000000
      PLAYRATE 1.00000000000000 1 0.00000000000000 -1
      CHANMODE 0
      GUID {BBD4DA7C-D4D7-4571-852F-48FFE9E7A203}
      <SOURCE MP3
        FILE "primevideopokmonsarjaalkukausi2-guitars-G minor-145bpm-440hz.mp3" 1
      >
    >
  >
  <TRACK '{6B7F9B4B-FF4E-4CE6-9E2D-4C9BD5DAED77}'
    NAME "PART GUITAR"
    PEAKCOL 33488896
    BEAT -1
    AUTOMODE 0
    VOLPAN 1.00000000000000 0.00000000000000 -1.00000000000000 -1.00000000000000 1.00000000000000
    MUTESOLO 0 0 0
    IPHASE 0
    ISBUS 0 0
    BUSCOMP 1 0
    SHOWINMIX 1 0.666700 0.500000 1 0.500000 -1 -1 -1
    FREEMODE 0
    SEL 0
    REC 0 4096 1 7 0 0 0
    TRACKHEIGHT 71 0
    INQ 0 0 0 0.5000000000 100 0 0 100
    NCHAN 2
    FX 1
    TRACKID {6B7F9B4B-FF4E-4CE6-9E2D-4C9BD5DAED77}
    PERF 0
    MIDIOUT -1
    <MIDINOTENAMES
      0 116 "OVERDRIVE"
      0 102 "Force HOPO Off"
      0 101 "Force HOPO On"
      0 100 "EXPERT Orange"
      0 99 "EXPERT Blue"
      0 98 "EXPERT Yellow"
      0 97 "EXPERT Red"
      0 96 "EXPERT Green"
      0 88 "HARD Orange"
      0 87 "HARD Blue"
      0 86 "HARD Yellow"
      0 85 "HARD Red"
      0 84 "HARD Green"
      0 76 "MEDIUM Orange"
      0 75 "MEDIUM Blue"
      0 74 "MEDIUM Yellow"
      0 73 "MEDIUM Red"
      0 72 "MEDIUM Green"
      0 64 "EASY Orange"
      0 63 "EASY Blue"
      0 62 "EASY Yellow"
      0 61 "EASY Red"
      0 60 "EASY Green"
      0 59 "Left Hand Highest"
      0 40 "Left Hand Lowest"
      0 58 "-"
      0 57 "-"
      0 56 "-"
      0 55 "-"
      0 54 "-"
      0 53 "-"
      0 52 "-"
      0 51 "-"
      0 50 "-"
      0 49 "-"
      0 48 "-"
      0 47 "-"
      0 46 "-"
      0 45 "-"
      0 44 "-"
      0 43 "-"
      0 42 "-"
      0 41 "-"
      0 115 "----"
      0 95 "----"
      0 89 "Force HOPO On"
      0 77 "----"
      0 65 "----"
      0 119 "----"
      0 120 "BRE (use all 5)"
      0 121 "BRE"
      0 122 "BRE"
      0 123 "BRE"
      0 124 "BRE"
      0 90 "Force HOPO Off"
      0 103 "Solo Marker"
      0 127 "Trill Marker"
      0 125 "----"
      0 126 "Strum Marker"
    >
    MAINSEND 1 0
    <FXCHAIN
      WNDRECT 936 330 878 585
      SHOW 0
      LASTSEL 1
      DOCKED 0
      BYPASS 1 0
      <VST "VSTi: ReaSynth (Cockos)" "reasynth.dll" 0 ""
        eXNlcu9e7f4AAAAAAgAAAAEAAAAAAAAAAgAAAAAAAAA4AAAAAAAAAA==
        AAAAAO++rd4N8K3eAAAAAAAAAAAAAAAAAAAAADm0SD59y9s+tbSxOQ==
        AAAAALbz/T5VpCs6AAAAAAAAAAAAAAAAAAA=
      >
      FLOATPOS 0 0 0 0
      FXID {52B28C73-185B-48E4-B8F4-1FD7A8848B0F}
      WAK 0
      BYPASS 0 0
      <VST "VSTi: RBN Preview (RBN)" "rbprev_vst64_beta.dll" 0 ""
        dnBicu5e7f4AAAAAAgAAAAEAAAAAAAAAAgAAAAAAAAAEAAAAAQAAAA==
        AAAAAAMAqgAAAAAAAAA=
      >
      FLOATPOS 32 32 659 497
      FXID {190BBB08-7A86-476B-BD07-5F71F5CD6F7C}
      WAK 0
    >
    <ITEM
      POSITION 0.00000000000000
      SNAPOFFS 0.00000000000000
      LENGTH 65.21492178400015
      LOOP 0
      ALLTAKES 0
      SEL 0
      FADEIN 1 0.000000 0.000000 1 0
      FADEOUT 1 0.000000 0.000000 1 0
      MUTE 0
      IGUID {81210F06-DA35-41E7-BA75-C6E1C5689733}
      IID 9
      NAME "PART GUITAR"
      VOLPAN 1.000000 0.000000 1.000000 -1.000000
      SOFFS 0.00000000000000 0.00000000000000
      PLAYRATE 1.00000000000000 1 0.00000000000000 -65536
      CHANMODE 0
      GUID {61757875-B3D4-49E4-8483-EE351B7D2386}
      <SOURCE MIDI
        HASDATA 1 480 QN
        POOLEDEVTS {3012B4CE-DB81-4054-B761-91B7854BF699}
        <X 0 0
          /wNQQVJUIEdVSVRBUg==
        >
        <X 3840 0
          /wFbcGxheV0=
        >
        E 0 90 3e 60
        E 0 90 4b 60
        E 0 90 58 60
        E 0 90 64 60
        E 2760 80 3e 00
        E 0 80 4b 00
        E 300 80 58 00
        E 0 80 64 00
        E 180 90 3c 60
        E 0 90 48 60
        E 0 90 55 60
        E 0 90 61 60
        E 60 80 3c 00
        E 0 80 48 00
        E 0 80 55 00
        E 0 80 61 00
        E 180 90 56 60
        E 0 90 62 60
        E 60 80 56 00
        E 0 80 62 00
        E 180 90 4a 60
        E 0 90 4b 60
        E 0 90 56 60
        E 0 90 57 60
        E 0 90 62 60
        E 0 90 63 60
        E 780 80 4a 00
        E 0 80 4b 00
        E 0 80 56 00
        E 0 80 57 00
        E 0 80 62 00
        E 0 80 63 00
        E 2460 90 56 60
        E 0 90 62 60
        E 60 80 56 00
        E 0 80 62 00
        E 180 90 3c 60
        E 0 90 48 60
        E 0 90 55 60
        E 0 90 61 60
        E 60 80 3c 00
        E 0 80 48 00
        E 0 80 55 00
        E 0 80 61 00
        E 180 90 54 60
        E 0 90 55 60
        E 0 90 60 60
        E 0 90 61 60
        E 1140 80 54 00
        E 0 80 55 00
        E 0 80 60 00
        E 0 80 61 00
        E 1740 90 3c 60
        E 0 90 49 60
        E 0 90 56 60
        E 0 90 62 60
        E 60 80 3c 00
        E 0 80 49 00
        E 0 80 56 00
        E 0 80 62 00
        E 360 90 55 60
        E 0 90 61 60
        E 60 80 55 00
        E 0 80 61 00
        E 480 90 55 60
        E 0 90 56 60
        E 0 90 61 60
        E 0 90 62 60
        E 60 80 55 00
        E 0 80 56 00
        E 0 80 61 00
        E 0 80 62 00
        E 180 90 3e 60
        E 0 90 49 60
        E 0 90 4b 60
        E 0 90 55 60
        E 0 90 57 60
        E 0 90 61 60
        E 0 90 63 60
        E 720 80 3e 00
        E 0 80 49 00
        E 0 80 4b 00
        E 0 80 55 00
        E 0 80 57 00
        E 0 80 61 00
        E 0 80 63 00
        E 1200 90 3c 60
        E 0 90 48 60
        E 0 90 49 60
        E 0 90 54 60
        E 0 90 55 60
        E 0 90 60 60
        E 0 90 61 60
        E 1440 80 3c 00
        E 0 80 48 00
        E 0 80 49 00
        E 90 90 74 6e
        E 210 80 54 00
        E 0 80 55 00
        E 0 80 60 00
        E 0 80 61 00
        E 180 90 3c 60
        E 0 90 48 60
        E 0 90 49 60
        E 0 90 54 60
        E 0 90 55 60
        E 0 90 60 60
        E 0 90 61 60
        E 120 80 3c 00
        E 0 80 48 00
        E 0 80 49 00
        E 420 80 54 00
        E 0 80 55 00
        E 0 80 60 00
        E 0 80 61 00
        E 180 90 49 60
        E 0 90 4a 60
        E 0 90 55 60
        E 0 90 56 60
        E 0 90 61 60
        E 0 90 62 60
        E 120 80 49 00
        E 0 80 4a 00
        E 420 80 55 00
        E 0 80 56 00
        E 0 80 61 00
        E 0 80 62 00
        E 180 90 3e 60
        E 0 90 49 60
        E 0 90 4b 60
        E 0 90 55 60
        E 0 90 57 60
        E 0 90 61 60
        E 0 90 63 60
        E 1384 80 74 00
        E 56 80 3e 00
        E 0 80 49 00
        E 0 80 4b 00
        E 60 80 55 00
        E 0 80 57 00
        E 0 80 61 00
        E 0 80 63 00
        E 180 90 54 60
        E 0 90 60 60
        E 60 80 54 00
        E 0 80 60 00
        E 180 90 3c 60
        E 0 90 48 60
        E 0 90 55 60
        E 0 90 61 60
        E 60 80 3c 00
        E 0 80 48 00
        E 0 80 55 00
        E 0 80 61 00
        E 180 90 55 60
        E 0 90 56 60
        E 0 90 61 60
        E 0 90 62 60
        E 720 80 55 00
        E 0 80 56 00
        E 0 80 61 00
        E 0 80 62 00
        E 2640 90 56 60
        E 0 90 62 60
        E 60 80 56 00
        E 0 80 62 00
        E 180 90 3c 60
        E 0 90 48 60
        E 0 90 55 60
        E 0 90 61 60
        E 60 80 3c 00
        E 0 80 48 00
        E 0 80 55 00
        E 0 80 61 00
        E 180 90 54 60
        E 0 90 55 60
        E 0 90 60 60
        E 0 90 61 60
        E 1140 80 54 00
        E 0 80 55 00
        E 0 80 60 00
        E 0 80 61 00
        E 1740 90 3c 60
        E 0 90 49 60
        E 0 90 56 60
        E 0 90 62 60
        E 60 80 3c 00
        E 0 80 49 00
        E 0 80 56 00
        E 0 80 62 00
        E 360 90 55 60
        E 0 90 61 60
        E 60 80 55 00
        E 0 80 61 00
        E 480 90 55 60
        E 0 90 56 60
        E 0 90 61 60
        E 0 90 62 60
        E 60 80 55 00
        E 0 80 56 00
        E 0 80 61 00
        E 0 80 62 00
        E 180 90 3e 60
        E 0 90 49 60
        E 0 90 4b 60
        E 0 90 55 60
        E 0 90 57 60
        E 0 90 61 60
        E 0 90 63 60
        E 720 80 3e 00
        E 0 80 49 00
        E 0 80 4b 00
        E 0 80 55 00
        E 0 80 57 00
        E 0 80 61 00
        E 0 80 63 00
        E 1020 90 74 6e
        E 180 90 3c 60
        E 0 90 48 60
        E 0 90 49 60
        E 0 90 54 60
        E 0 90 55 60
        E 0 90 60 60
        E 0 90 61 60
        E 1440 80 3c 00
        E 0 80 48 00
        E 0 80 49 00
        E 300 80 54 00
        E 0 80 55 00
        E 0 80 60 00
        E 0 80 61 00
        E 180 90 3c 60
        E 0 90 48 60
        E 0 90 49 60
        E 0 90 54 60
        E 0 90 55 60
        E 0 90 60 60
        E 0 90 61 60
        E 120 80 3c 00
        E 0 80 48 00
        E 0 80 49 00
        E 420 80 54 00
        E 0 80 55 00
        E 0 80 60 00
        E 0 80 61 00
        E 180 90 49 60
        E 0 90 4a 60
        E 0 90 55 60
        E 0 90 56 60
        E 0 90 61 60
        E 0 90 62 60
        E 120 80 49 00
        E 0 80 4a 00
        E 420 80 55 00
        E 0 80 56 00
        E 0 80 61 00
        E 0 80 62 00
        E 180 90 3e 60
        E 0 90 49 60
        E 0 90 4b 60
        E 0 90 55 60
        E 0 90 57 60
        E 0 90 61 60
        E 0 90 63 60
        E 1500 80 3e 00
        E 0 80 49 00
        E 0 80 4b 00
        E 0 80 55 00
        E 0 80 57 00
        E 0 80 61 00
        E 0 80 63 00
        E 180 80 74 00
        E 720 90 3d 60
        E 0 90 4a 60
        E 0 90 57 60
        E 0 90 63 60
        E 60 80 3d 00
        E 0 80 4a 00
        E 0 80 57 00
        E 0 80 63 00
        E 180 90 56 60
        E 0 90 62 60
        E 60 80 56 00
        E 0 80 62 00
        E 180 90 49 60
        E 0 90 56 60
        E 0 90 62 60
        E 60 80 49 00
        E 0 80 56 00
        E 0 80 62 00
        E 180 90 57 60
        E 0 90 63 60
        E 60 80 57 00
        E 0 80 63 00
        E 180 90 3c 60
        E 0 90 49 60
        E 0 90 56 60
        E 0 90 62 60
        E 60 80 3c 00
        E 0 80 49 00
        E 0 80 56 00
        E 0 80 62 00
        E 180 90 56 60
        E 0 90 62 60
        E 60 80 56 00
        E 0 80 62 00
        E 180 90 4a 60
        E 0 90 57 60
        E 0 90 63 60
        E 60 80 4a 00
        E 0 80 57 00
        E 0 80 63 00
        E 180 90 56 60
        E 0 90 62 60
        E 60 80 56 00
        E 0 80 62 00
        E 180 90 3d 60
        E 0 90 4a 60
        E 0 90 57 60
        E 0 90 63 60
        E 60 80 3d 00
        E 0 80 4a 00
        E 0 80 57 00
        E 0 80 63 00
        E 179 90 56 60
        E 0 90 62 60
        E 60 80 56 00
        E 0 80 62 00
        E 180 90 49 60
        E 0 90 56 60
        E 0 90 62 60
        E 61 80 49 00
        E 0 80 56 00
        E 0 80 62 00
        E 179 90 57 60
        E 0 90 63 60
        E 61 80 57 00
        E 0 80 63 00
        E 180 90 3c 60
        E 0 90 49 60
        E 0 90 56 60
        E 0 90 62 60
        E 59 80 3c 00
        E 0 80 49 00
        E 0 80 56 00
        E 0 80 62 00
        E 181 90 56 60
        E 0 90 62 60
        E 59 80 56 00
        E 0 80 62 00
        E 180 90 4a 60
        E 0 90 57 60
        E 0 90 63 60
        E 60 80 4a 00
        E 0 80 57 00
        E 0 80 63 00
        E 180 90 56 60
        E 0 90 62 60
        E 60 80 56 00
        E 0 80 62 00
        E 181 90 3d 60
        E 0 90 4a 60
        E 0 90 57 60
        E 0 90 63 60
        E 60 80 3d 00
        E 0 80 4a 00
        E 0 80 57 00
        E 0 80 63 00
        E 179 90 56 60
        E 0 90 62 60
        E 60 80 56 00
        E 0 80 62 00
        E 180 90 49 60
        E 0 90 56 60
        E 0 90 62 60
        E 61 80 49 00
        E 0 80 56 00
        E 0 80 62 00
        E 179 90 57 60
        E 0 90 63 60
        E 61 80 57 00
        E 0 80 63 00
        E 180 90 3c 60
        E 0 90 49 60
        E 0 90 56 60
        E 0 90 62 60
        E 59 80 3c 00
        E 0 80 49 00
        E 0 80 56 00
        E 0 80 62 00
        E 181 90 56 60
        E 0 90 62 60
        E 59 80 56 00
        E 0 80 62 00
        E 180 90 4a 60
        E 0 90 57 60
        E 0 90 63 60
        E 60 80 4a 00
        E 0 80 57 00
        E 0 80 63 00
        E 180 90 56 60
        E 0 90 62 60
        E 60 80 56 00
        E 0 80 62 00
        E 182 90 3e 60
        E 0 90 4b 60
        E 0 90 58 60
        E 0 90 64 60
        E 60 80 3e 00
        E 0 80 4b 00
        E 0 80 58 00
        E 0 80 64 00
        E 179 90 57 60
        E 0 90 63 60
        E 60 80 57 00
        E 0 80 63 00
        E 180 90 4a 60
        E 0 90 57 60
        E 0 90 63 60
        E 61 80 4a 00
        E 0 80 57 00
        E 0 80 63 00
        E 179 90 58 60
        E 0 90 64 60
        E 61 80 58 00
        E 0 80 64 00
        E 180 90 3d 60
        E 0 90 4a 60
        E 0 90 57 60
        E 0 90 63 60
        E 59 80 3d 00
        E 0 80 4a 00
        E 0 80 57 00
        E 0 80 63 00
        E 181 90 57 60
        E 0 90 63 60
        E 59 80 57 00
        E 0 80 63 00
        E 180 90 4b 60
        E 0 90 58 60
        E 0 90 64 60
        E 60 80 4b 00
        E 0 80 58 00
        E 0 80 64 00
        E 180 90 57 60
        E 0 90 63 60
        E 60 80 57 00
        E 0 80 63 00
        E 180 90 3e 60
        E 0 90 4b 60
        E 0 90 58 60
        E 0 90 64 60
        E 60 80 3e 00
        E 0 80 4b 00
        E 0 80 58 00
        E 0 80 64 00
        E 179 90 56 60
        E 0 90 62 60
        E 60 80 56 00
        E 0 80 62 00
        E 180 90 49 60
        E 0 90 56 60
        E 0 90 62 60
        E 61 80 49 00
        E 0 80 56 00
        E 0 80 62 00
        E 179 90 58 60
        E 0 90 64 60
        E 61 80 58 00
        E 0 80 64 00
        E 180 90 3c 60
        E 0 90 49 60
        E 0 90 56 60
        E 0 90 62 60
        E 59 80 3c 00
        E 0 80 49 00
        E 0 80 56 00
        E 0 80 62 00
        E 181 90 56 60
        E 0 90 62 60
        E 59 80 56 00
        E 0 80 62 00
        E 180 90 4b 60
        E 0 90 58 60
        E 0 90 64 60
        E 60 80 4b 00
        E 0 80 58 00
        E 0 80 64 00
        E 180 90 56 60
        E 0 90 62 60
        E 60 80 56 00
        E 0 80 62 00
        E 181 90 3e 60
        E 0 90 4b 60
        E 0 90 58 60
        E 0 90 64 60
        E 60 80 3e 00
        E 0 80 4b 00
        E 0 80 58 00
        E 0 80 64 00
        E 179 90 56 60
        E 0 90 62 60
        E 60 80 56 00
        E 0 80 62 00
        E 180 90 49 60
        E 0 90 56 60
        E 0 90 62 60
        E 61 80 49 00
        E 0 80 56 00
        E 0 80 62 00
        E 179 90 58 60
        E 0 90 64 60
        E 61 80 58 00
        E 0 80 64 00
        E 180 90 3c 60
        E 0 90 49 60
        E 0 90 56 60
        E 0 90 62 60
        E 59 80 3c 00
        E 0 80 49 00
        E 0 80 56 00
        E 0 80 62 00
        E 181 90 56 60
        E 0 90 62 60
        E 59 80 56 00
        E 0 80 62 00
        E 84 90 74 6e
        E 96 90 4b 60
        E 0 90 58 60
        E 0 90 64 60
        E 60 80 4b 00
        E 0 80 58 00
        E 0 80 64 00
        E 180 90 56 60
        E 0 90 62 60
        E 60 80 56 00
        E 0 80 62 00
        E 181 90 3c 60
        E 0 90 48 60
        E 0 90 49 60
        E 0 90 54 60
        E 0 90 55 60
        E 0 90 60 60
        E 0 90 61 60
        E 120 80 3c 00
        E 0 80 48 00
        E 0 80 49 00
        E 420 80 54 00
        E 0 80 55 00
        E 0 80 60 00
        E 0 80 61 00
        E 180 90 49 60
        E 0 90 4a 60
        E 0 90 55 60
        E 0 90 56 60
        E 0 90 61 60
        E 0 90 62 60
        E 120 80 49 00
        E 0 80 4a 00
        E 420 80 55 00
        E 0 80 56 00
        E 0 80 61 00
        E 0 80 62 00
        E 180 90 3e 60
        E 0 90 49 60
        E 0 90 4b 60
        E 0 90 55 60
        E 0 90 57 60
        E 0 90 61 60
        E 0 90 63 60
        E 1402 80 74 00
        E 518 80 3e 00
        E 0 80 49 00
        E 0 80 4b 00
        E 0 80 55 00
        E 0 80 57 00
        E 0 80 61 00
        E 0 80 63 00
        E 480 90 3d 60
        E 0 90 4a 60
        E 0 90 57 60
        E 0 90 63 60
        E 60 80 3d 00
        E 0 80 4a 00
        E 0 80 57 00
        E 0 80 63 00
        E 179 90 56 60
        E 0 90 62 60
        E 60 80 56 00
        E 0 80 62 00
        E 180 90 49 60
        E 0 90 56 60
        E 0 90 62 60
        E 61 80 49 00
        E 0 80 56 00
        E 0 80 62 00
        E 179 90 57 60
        E 0 90 63 60
        E 61 80 57 00
        E 0 80 63 00
        E 180 90 3c 60
        E 0 90 49 60
        E 0 90 56 60
        E 0 90 62 60
        E 59 80 3c 00
        E 0 80 49 00
        E 0 80 56 00
        E 0 80 62 00
        E 181 90 56 60
        E 0 90 62 60
        E 59 80 56 00
        E 0 80 62 00
        E 180 90 4a 60
        E 0 90 57 60
        E 0 90 63 60
        E 60 80 4a 00
        E 0 80 57 00
        E 0 80 63 00
        E 180 90 56 60
        E 0 90 62 60
        E 60 80 56 00
        E 0 80 62 00
        E 182 90 3e 60
        E 0 90 4b 60
        E 0 90 58 60
        E 0 90 64 60
        E 60 80 3e 00
        E 0 80 4b 00
        E 0 80 58 00
        E 0 80 64 00
        E 179 90 57 60
        E 0 90 63 60
        E 60 80 57 00
        E 0 80 63 00
        E 180 90 4a 60
        E 0 90 57 60
        E 0 90 63 60
        E 61 80 4a 00
        E 0 80 57 00
        E 0 80 63 00
        E 179 90 58 60
        E 0 90 64 60
        E 61 80 58 00
        E 0 80 64 00
        E 180 90 3d 60
        E 0 90 4a 60
        E 0 90 57 60
        E 0 90 63 60
        E 59 80 3d 00
        E 0 80 4a 00
        E 0 80 57 00
        E 0 80 63 00
        E 181 90 57 60
        E 0 90 63 60
        E 59 80 57 00
        E 0 80 63 00
        E 180 90 4b 60
        E 0 90 58 60
        E 0 90 64 60
        E 60 80 4b 00
        E 0 80 58 00
        E 0 80 64 00
        E 180 90 57 60
        E 0 90 63 60
        E 60 80 57 00
        E 0 80 63 00
        E 180 90 3e 60
        E 0 90 4b 60
        E 0 90 58 60
        E 0 90 64 60
        E 60 80 3e 00
        E 0 80 4b 00
        E 0 80 58 00
        E 0 80 64 00
        E 179 90 56 60
        E 0 90 62 60
        E 60 80 56 00
        E 0 80 62 00
        E 180 90 49 60
        E 0 90 56 60
        E 0 90 62 60
        E 61 80 49 00
        E 0 80 56 00
        E 0 80 62 00
        E 179 90 58 60
        E 0 90 64 60
        E 61 80 58 00
        E 0 80 64 00
        E 180 90 3c 60
        E 0 90 49 60
        E 0 90 56 60
        E 0 90 62 60
        E 59 80 3c 00
        E 0 80 49 00
        E 0 80 56 00
        E 0 80 62 00
        E 181 90 56 60
        E 0 90 62 60
        E 59 80 56 00
        E 0 80 62 00
        E 180 90 4b 60
        E 0 90 58 60
        E 0 90 64 60
        E 60 80 4b 00
        E 0 80 58 00
        E 0 80 64 00
        E 180 90 56 60
        E 0 90 62 60
        E 60 80 56 00
        E 0 80 62 00
        E 181 90 3e 60
        E 0 90 4b 60
        E 0 90 58 60
        E 0 90 64 60
        E 60 80 3e 00
        E 0 80 4b 00
        E 0 80 58 00
        E 0 80 64 00
        E 179 90 57 60
        E 0 90 63 60
        E 60 80 57 00
        E 0 80 63 00
        E 180 90 4a 60
        E 0 90 57 60
        E 0 90 63 60
        E 61 80 4a 00
        E 0 80 57 00
        E 0 80 63 00
        E 179 90 58 60
        E 0 90 64 60
        E 61 80 58 00
        E 0 80 64 00
        E 180 90 3d 60
        E 0 90 4a 60
        E 0 90 57 60
        E 0 90 63 60
        E 59 80 3d 00
        E 0 80 4a 00
        E 0 80 57 00
        E 0 80 63 00
        E 181 90 57 60
        E 0 90 63 60
        E 59 80 57 00
        E 0 80 63 00
        E 180 90 4b 60
        E 0 90 58 60
        E 0 90 64 60
        E 60 80 4b 00
        E 0 80 58 00
        E 0 80 64 00
        E 180 90 57 60
        E 0 90 63 60
        E 60 80 57 00
        E 0 80 63 00
        E 181 90 3e 60
        E 0 90 4b 60
        E 0 90 58 60
        E 0 90 64 60
        E 60 80 3e 00
        E 0 80 4b 00
        E 0 80 58 00
        E 0 80 64 00
        E 179 90 56 60
        E 0 90 62 60
        E 60 80 56 00
        E 0 80 62 00
        E 180 90 49 60
        E 0 90 56 60
        E 0 90 62 60
        E 61 80 49 00
        E 0 80 56 00
        E 0 80 62 00
        E 179 90 58 60
        E 0 90 64 60
        E 61 80 58 00
        E 0 80 64 00
        E 180 90 3c 60
        E 0 90 49 60
        E 0 90 56 60
        E 0 90 62 60
        E 59 80 3c 00
        E 0 80 49 00
        E 0 80 56 00
        E 0 80 62 00
        E 181 90 56 60
        E 0 90 62 60
        E 59 80 56 00
        E 0 80 62 00
        E 180 90 4b 60
        E 0 90 58 60
        E 0 90 64 60
        E 60 80 4b 00
        E 0 80 58 00
        E 0 80 64 00
        E 180 90 56 60
        E 0 90 62 60
        E 60 80 56 00
        E 0 80 62 00
        E 181 90 3e 60
        E 0 90 4b 60
        E 0 90 58 60
        E 0 90 64 60
        E 60 80 3e 00
        E 0 80 4b 00
        E 0 80 58 00
        E 0 80 64 00
        E 179 90 57 60
        E 0 90 63 60
        E 60 80 57 00
        E 0 80 63 00
        E 180 90 4a 60
        E 0 90 57 60
        E 0 90 63 60
        E 61 80 4a 00
        E 0 80 57 00
        E 0 80 63 00
        E 179 90 58 60
        E 0 90 64 60
        E 61 80 58 00
        E 0 80 64 00
        E 180 90 3d 60
        E 0 90 4a 60
        E 0 90 57 60
        E 0 90 63 60
        E 59 80 3d 00
        E 0 80 4a 00
        E 0 80 57 00
        E 0 80 63 00
        E 181 90 57 60
        E 0 90 63 60
        E 59 80 57 00
        E 0 80 63 00
        E 180 90 4b 60
        E 0 90 58 60
        E 0 90 64 60
        E 60 80 4b 00
        E 0 80 58 00
        E 0 80 64 00
        E 180 90 57 60
        E 0 90 63 60
        E 60 80 57 00
        E 0 80 63 00
        E 181 90 3c 60
        E 0 90 48 60
        E 0 90 54 60
        E 0 90 60 60
        E 120 80 3c 00
        E 0 80 48 00
        E 420 80 54 00
        E 0 80 60 00
        E 180 90 48 60
        E 0 90 55 60
        E 0 90 61 60
        E 120 80 48 00
        E 420 80 55 00
        E 0 80 61 00
        E 180 90 3c 60
        E 0 90 48 60
        E 0 90 55 60
        E 0 90 61 60
        E 840 80 3c 00
        E 0 80 48 00
        E 300 80 55 00
        E 0 80 61 00
        E 180 90 3c 60
        E 0 90 49 60
        E 0 90 56 60
        E 0 90 62 60
        E 600 80 3c 00
        E 0 80 49 00
        E 300 80 56 00
        E 0 80 62 00
        E 180 90 3d 60
        E 0 90 4a 60
        E 0 90 57 60
        E 0 90 63 60
        E 120 80 3d 00
        E 0 80 4a 00
        E 420 80 57 00
        E 0 80 63 00
        E 180 90 4b 60
        E 0 90 58 60
        E 0 90 64 60
        E 1020 80 4b 00
        E 0 80 58 00
        E 0 80 64 00
        E 660 90 48 60
        E 0 90 49 60
        E 0 90 54 60
        E 0 90 55 60
        E 0 90 60 60
        E 0 90 61 60
        E 60 80 48 00
        E 0 80 49 00
        E 0 80 54 00
        E 0 80 55 00
        E 0 80 60 00
        E 0 80 61 00
        E 180 90 55 60
        E 0 90 56 60
        E 0 90 61 60
        E 0 90 62 60
        E 60 80 55 00
        E 0 80 56 00
        E 0 80 61 00
        E 0 80 62 00
        E 180 90 3e 60
        E 0 90 49 60
        E 0 90 4a 60
        E 0 90 55 60
        E 0 90 56 60
        E 0 90 61 60
        E 0 90 62 60
        E 720 80 3e 00
        E 0 80 49 00
        E 0 80 4a 00
        E 0 80 55 00
        E 0 80 56 00
        E 0 80 61 00
        E 0 80 62 00
        <X 480 0
          /wFbaWRsZV9yZWFsdGltZV0=
        >
        E 2472 b0 7b 00
        GUID {14D9E950-FB92-4048-8603-8FD02AE3B865}
        IGNTEMPO 0 120.00000000 4 4
        SRCCOLOR 1399
        VELLANE 132 38 60
        COLORMAP "C:\Users\wejaa\AppData\Roaming\REAPER\Data\color_maps\rockband_guitarbass.png"
        TEXTSTRINGFILE "Text Events List.txt"
        CFGEDITVIEW 28436.455805 131.703032 0 12 0 0 0
        CFGEDIT 1 1 0 0 0 1 1 1 1 1 1 0.12500000 -8 -8 1370 736 1 2 1 2 0.00000000 0 0 0 0 0.500000 1 0 1.000000 64
        KEYSNAP 0 0 "102034050607" 0 "Major"
        EVTFILTER 0 -1 -1 -1 -1 0 1 0 0 -1.00000000 -1.00000000
      >
    >
  >
  <TRACK '{9017BF46-4363-4C5B-B0EF-FA6E48B6F5AB}'
    NAME "primevideopokmonsarjaalkukausi2-vocals-G minor-145bpm-440hz"
    PEAKCOL 16576
    BEAT -1
    AUTOMODE 0
    VOLPAN 1.00000000000000 0.00000000000000 -1.00000000000000 -1.00000000000000 1.00000000000000
    MUTESOLO 0 2 0
    IPHASE 0
    ISBUS 0 0
    BUSCOMP 0 0
    SHOWINMIX 1 0.666700 0.500000 1 0.500000 -1 -1 -1
    FREEMODE 0
    SEL 0
    REC 0 0 0 0 0 0 0
    VU 2
    TRACKHEIGHT 286 0
    INQ 0 0 0 0.5000000000 100 0 0 100
    NCHAN 2
    FX 1
    TRACKID {9017BF46-4363-4C5B-B0EF-FA6E48B6F5AB}
    PERF 0
    MIDIOUT -1
    MAINSEND 1 0
    <ITEM
      POSITION 2.62765604676679
      SNAPOFFS 0.00000000000000
      LENGTH 61.88512471655329
      LOOP 0
      ALLTAKES 0
      SEL 0
      FADEIN 1 0.000000 0.000000 1 0
      FADEOUT 1 0.000000 0.000000 1 0
      MUTE 0
      IGUID {DBA6099B-0666-4667-8BB2-AB202A3A23DF}
      IID 123
      NAME "primevideopokmonsarjaalkukausi2-vocals-G minor-145bpm-440hz.mp3"
      VOLPAN 1.000000 0.000000 1.000000 -1.000000
      SOFFS 0.00000000000000
      PLAYRATE 1.00000000000000 1 0.00000000000000 -1
      CHANMODE 0
      GUID {AB97EB87-E33D-4C6D-B37D-626D1434FED0}
      <SOURCE MP3
        FILE "primevideopokmonsarjaalkukausi2-vocals-G minor-145bpm-440hz.mp3" 1
      >
    >
  >
  <TRACK '{C298A11E-8E06-44B8-AA31-429ECCE3F0AF}'
    NAME "PART VOCALS"
    PEAKCOL 16810239
    BEAT -1
    AUTOMODE 0
    VOLPAN 0.99997469241676 0.00000000000000 -1.00000000000000 -1.00000000000000 1.00000000000000
    MUTESOLO 0 0 0
    IPHASE 0
    ISBUS 0 0
    BUSCOMP 1 0
    SHOWINMIX 1 0.666700 0.500000 1 0.500000 -1 -1 -1
    FREEMODE 0
    SEL 1
    REC 0 4096 1 7 0 0 0
    TRACKHEIGHT 61 0
    INQ 0 0 0 0.5000000000 100 0 0 100
    NCHAN 2
    FX 1
    TRACKID {C298A11E-8E06-44B8-AA31-429ECCE3F0AF}
    PERF 0
    MIDIOUT -1
    <MIDINOTENAMES
      0 105 "Phrase Marker"
      0 84 "C5"
      0 36 "C1"
      0 83 "B"
      0 82 "Bb"
      0 81 "A"
      0 80 "G#"
      0 79 "G"
      0 78 "F#"
      0 77 "F"
      0 76 "E"
      0 75 "Eb"
      0 74 "D"
      0 73 "C#"
      0 72 "C4"
      0 71 "B"
      0 70 "Bb"
      0 69 "A"
      0 68 "G#"
      0 67 "G"
      0 66 "F#"
      0 65 "F"
      0 64 "E"
      0 63 "Eb"
      0 62 "D"
      0 61 "C#"
      0 60 "C3"
      0 59 "B"
      0 58 "Bb"
      0 57 "A"
      0 56 "G#"
      0 55 "G"
      0 54 "F#"
      0 53 "F"
      0 52 "E"
      0 51 "Eb"
      0 50 "D"
      0 49 "C#"
      0 48 "C2"
      0 47 "B"
      0 46 "Bb"
      0 45 "A"
      0 44 "G#"
      0 43 "G"
      0 42 "F#"
      0 41 "F"
      0 40 "E"
      0 39 "Eb"
      0 38 "D"
      0 37 "C#"
      0 97 "Not Displayed Percussion"
      0 96 "Displayed Percussion"
      0 104 "----"
      0 95 "----"
      0 116 "OVERDRIVE"
      0 115 "----"
      0 0 "Range Shift"
      0 1 "Lyric Shift"
    >
    MAINSEND 1 0
    <FXCHAIN
      WNDRECT 581 377 716 493
      SHOW 0
      LASTSEL 1
      DOCKED 0
      BYPASS 0 0
      <JS "IX/MIDI_Tool II" ""
        0.000000 85.000000 127.000000 0.000000 0.000000 0.000000 100.000000 0.000000 0.000000 127.000000 0.000000 0.000000 1.000000 0.000000 0.000000 - - - - - - - - - - - - - - - - - - - - - - - - - - - - - - - - - - - - - - - - - - - - - - - - - 
      >
      FLOATPOS 0 0 0 0
      FXID {CA785021-0433-497E-9A6C-EE23A1BC21B0}
      WAK 0
      BYPASS 0 0
      <VST "VSTi: ReaSynth (Cockos)" "reasynth.dll" 0 ""
        eXNlcu9e7f4AAAAAAgAAAAEAAAAAAAAAAgAAAAAAAAA4AAAAAAAAAA==
        AAAAAO++rd4N8K3eppvEOxe30ToAAAAAAAAAAAAAAACa9Q8/6WeIPQ==
        AAAAAAAAAD8AAIA/AAAAAAAAAD8AAAAAAAA=
      >
      FLOATPOS 32 32 338 405
      FXID {F124DD19-73B4-4CD5-B659-E246F2A3D0B3}
      WAK 0
    >
    <ITEM
      POSITION 0.00000000000000
      SNAPOFFS 0.00000000000000
      LENGTH 65.21492178400015
      LOOP 0
      ALLTAKES 0
      SEL 1
      FADEIN 1 0.000000 0.000000 1 0
      FADEOUT 1 0.000000 0.000000 1 0
      MUTE 0
      IGUID {9C9617EC-369A-41B9-80F6-31F4222F13F6}
      IID 10
      NAME "PART VOCALS"
      VOLPAN 1.000000 0.000000 1.000000 -1.000000
      SOFFS 0.00000000000000 0.00000000000000
      PLAYRATE 1.00000000000000 1 0.00000000000000 -65536
      CHANMODE 0
      GUID {8E872349-00D8-4243-95D7-0B92852E4EE5}
      <SOURCE MIDI
        HASDATA 1 480 QN
        POOLEDEVTS {8FE06ED2-DA97-4E6D-8973-762E7D553A15}
        <X 0 0
          /wNQQVJUIFZPQ0FMUw==
        >
        <X 3840 0
          /wFbaWRsZV0=
        >
        <X 3840 0
          /wFbcGxheV0=
        >
        E 64 90 69 6e
        <X 176 0
          /wVNw6Q=
        >
        E 0 90 3c 57
        E 129 80 3c 00
        <X 102 0
          /wV0dW4t
        >
        E 0 90 3e 67
        E 209 80 3e 00
        <X 42 0
          /wVuZW4=
        >
        E 0 90 3e 66
        E 130 80 3e 00
        <X 94 0
          /wVzZW4=
        >
        E 0 90 3e 67
        E 311 80 3e 00
        <X 457 0
          /wVqbw==
        >
        E 0 90 3e 4c
        E 127 80 3e 00
        <X 109 0
          /wVrYXMt
        >
        E 0 90 3a 68
        E 334 80 3a 00
        <X 127 0
          /wV2YS0=
        >
        E 0 90 39 6b
        E 160 80 39 00
        <X 86 0
          /wV2YW4=
        >
        E 0 90 35 61
        E 538 80 35 00
        E 82 80 69 00
        E 194 90 69 6e
        <X 359 0
          /wVWb2kt
        >
        E 0 90 3c 6f
        E 183 80 3c 00
        <X 63 0
          /wVtYW4=
        >
        E 0 90 3e 68
        E 191 80 3e 00
        <X 92 0
          /wVzaS0=
        >
        E 0 90 3e 6d
        E 285 80 3e 00
        <X 155 0
          /wVzw6RsLQ==
        >
        E 0 90 3c 67
        E 202 80 3c 00
        <X 46 0
          /wVsw6Rpbg==
        >
        E 0 90 3a 70
        E 236 80 3a 00
        <X 59 0
          /wUr
        >
        E 0 90 3c 7d
        E 832 80 3c 00
        E 511 80 69 00
        E 1118 90 69 6e
        <X 362 0
          /wVVdS0=
        >
        E 0 90 3f 70
        E 233 80 3f 00
        <X 54 0
          /wVkZW4=
        >
        E 0 90 3f 75
        E 127 80 3f 00
        <X 85 0
          /wVoYWFzLQ==
        >
        E 0 90 3f 75
        E 352 80 3f 00
        <X 105 0
          /wV0ZWVu
        >
        E 0 90 3f 68
        E 397 80 3f 00
        <X 133 0
          /wV0by0=
        >
        E 0 90 3c 68
        E 229 80 3c 00
        <X 77 0
          /wV0ZXUt
        >
        E 0 90 3c 72
        E 310 80 3c 00
        <X 101 0
          /wV0YW4=
        >
        E 0 90 39 59
        E 481 80 39 00
        E 168 80 69 00
        E 113 90 69 6e
        E 0 90 74 6e
        <X 181 0
          /wVqYQ==
        >
        E 0 90 3c 55
        E 136 80 3c 00
        <X 72 0
          /wV0ZWVu
        >
        E 0 90 3e 69
        E 342 80 3e 00
        <X 103 0
          /wVzZW4=
        >
        E 0 90 3e 67
        E 255 80 3e 00
        <X 77 0
          /wVweXMt
        >
        E 0 90 3c 64
        E 339 80 3c 00
        <X 90 0
          /wV0eS0=
        >
        E 0 90 3a 59
        E 151 80 3a 00
        <X 90 0
          /wVww6Rpbg==
        >
        E 0 90 3e 6f
        E 1281 80 3e 00
        E 97 80 69 00
        E 0 80 74 00
        E 1101 90 69 6e
        <X 440 0
          /wVUYS0=
        >
        E 0 90 3e 5e
        E 143 80 3e 00
        <X 87 0
          /wVrYWE=
        >
        E 0 90 3e 5e
        E 170 80 3e 00
        <X 73 0
          /wV2dW9yLQ==
        >
        E 0 90 3e 6a
        E 307 80 3e 00
        <X 120 0
          /wV0ZW4=
        >
        E 0 90 3c 69
        E 366 80 3c 00
        <X 114 0
          /wVodWlwLQ==
        >
        E 0 90 3a 62
        E 290 80 3a 00
        <X 205 0
          /wVwdS0=
        >
        E 0 90 39 62
        E 188 80 39 00
        <X 71 0
          /wVqZW4=
        >
        E 0 90 35 6b
        E 407 80 35 00
        E 233 80 69 00
        E 265 90 69 6e
        <X 278 0
          /wVFdC0=
        >
        E 0 90 3c 65
        E 208 80 3c 00
        <X 197 0
          /wVzaW4=
        >
        E 0 90 3e 66
        E 220 80 3e 00
        <X 94 0
          /wVhaS0=
        >
        E 0 90 3c 6f
        E 374 80 3c 00
        <X 74 0
          /wVuYQ==
        >
        E 0 90 3a 6a
        E 177 80 3a 00
        <X 85 0
          /wV2YWFu
        >
        E 0 90 3c 6d
        E 977 80 3c 00
        E 530 80 69 00
        E 872 90 69 6e
        E 0 90 74 6e
        <X 278 0
          /wVKYQ==
        >
        E 0 90 3c 57
        E 96 80 3c 00
        <X 121 0
          /wVQby0=
        >
        E 0 90 3e 65
        E 169 80 3e 00
        <X 91 0
          /wVrw6kt
        >
        E 0 90 3f 6e
        E 175 80 3f 00
        <X 56 0
          /wVtby0=
        >
        E 0 90 3f 6c
        E 218 80 3f 00
        <X 43 0
          /wVuaW4=
        >
        E 0 90 41 6b
        E 416 80 41 00
        <X 252 0
          /wVqby0=
        >
        E 0 90 3e 6b
        E 185 80 3e 00
        <X 106 0
          /wVrYWkt
        >
        E 0 90 3a 6b
        E 289 80 3a 00
        <X 95 0
          /wVzZW4=
        >
        E 0 90 3a 6b
        E 514 80 3a 00
        <X 508 0
          /wVtw6Q=
        >
        E 0 90 3e 6b
        E 110 80 3e 00
        <X 132 0
          /wVvLQ==
        >
        E 0 90 3c 6b
        E 206 80 3c 00
        <X 91 0
          /wVwaW4=
        >
        E 0 90 3e 6b
        E 305 80 3e 00
        <X 104 0
          /wV0dW4t
        >
        E 0 90 3c 66
        E 407 80 3c 00
        <X 91 0
          /wV0ZS0=
        >
        E 0 90 3a 6a
        E 173 80 3a 00
        <X 88 0
          /wVtYWFu
        >
        E 0 90 3e 6e
        E 1349 80 3e 00
        E 78 80 69 00
        E 0 80 74 00
        E 177 90 69 6e
        <X 107 0
          /wVQby0=
        >
        E 0 90 3e 6e
        E 191 80 3e 00
        <X 55 0
          /wVrw6kt
        >
        E 0 90 41 6e
        E 226 80 41 00
        <X 65 0
          /wVtb24=
        >
        E 0 90 43 6e
        E 301 80 43 00
        <X 1519 0
          /wVTw6Q=
        >
        E 0 90 43 62
        E 282 80 43 00
        <X 88 0
          /wV1cy0=
        >
        E 0 90 43 62
        E 198 80 43 00
        <X 93 0
          /wVrbw==
        >
        E 0 90 41 60
        E 310 80 41 00
        <X 100 0
          /wV2YWFu
        >
        E 0 90 3c 6a
        E 524 80 3c 00
        E 83 80 69 00
        E 814 90 69 6e
        <X 326 0
          /wVNZQ==
        >
        E 0 90 43 5e
        E 260 80 43 00
        <X 86 0
          /wV5aC0=
        >
        E 0 90 44 6c
        E 136 80 44 00
        <X 46 0
          /wVkZXMt
        >
        E 0 90 45 69
        E 123 80 45 00
        <X 73 0
          /wVzw6Q=
        >
        E 0 90 47 61
        E 213 80 47 00
        <X 103 0
          /wV2b2kt
        >
        E 0 90 43 6b
        E 624 80 43 00
        <X 76 0
          /wV0ZS0=
        >
        E 0 90 43 53
        E 159 80 43 00
        <X 101 0
          /wV0YWFu
        >
        E 0 90 41 6c
        E 389 80 41 00
        <X 103 0
          /wVQby0=
        >
        E 0 90 3e 6e
        E 191 80 3e 00
        <X 55 0
          /wVrw6kt
        >
        E 0 90 41 6e
        E 226 80 41 00
        <X 65 0
          /wVtb24=
        >
        E 0 90 43 6e
        E 301 80 43 00
        E 86 80 69 00
        E 79 90 69 6e
        <X 170 0
          /wVPb3Q=
        >
        E 0 90 43 69
        E 688 80 43 00
        <X 197 0
          /wVtdW4=
        >
        E 0 90 43 6a
        E 399 80 43 00
        <X 143 0
          /wV5cy0=
        >
        E 0 90 43 5f
        E 316 80 43 00
        <X 167 0
          /wV0w6Qt
        >
        E 0 90 41 6a
        E 174 80 41 00
        <X 107 0
          /wV2w6Rpbg==
        >
        E 0 90 3c 65
        E 440 80 3c 00
        E 52 80 69 00
        E 100 90 69 6e
        E 0 90 74 6e
        <X 104 0
          /wVPLQ==
        >
        E 0 90 3a 56
        E 128 80 3a 00
        <X 87 0
          /wVsZXQ=
        >
        E 0 90 3c 56
        E 171 80 3c 00
        <X 128 0
          /wVhaS0=
        >
        E 0 90 3e 67
        E 382 80 3e 00
        <X 58 0
          /wVuYQ==
        >
        E 0 90 3e 64
        E 198 80 3e 00
        <X 54 0
          /wV2aWUt
        >
        E 0 90 3c 64
        E 306 80 3c 00
        <X 63 0
          /wVyZWwt
        >
        E 0 90 3a 65
        E 216 80 3a 00
        <X 74 0
          /wVsw6Rpbg==
        >
        E 0 90 3e 69
        E 1385 80 3e 00
        E 65 80 69 00
        E 0 80 74 00
        E 210 90 69 6e
        <X 60 0
          /wVQby0=
        >
        E 0 90 3e 6e
        E 191 80 3e 00
        <X 55 0
          /wVrw6kt
        >
        E 0 90 41 6e
        E 208 80 41 00
        <X 52 0
          /wVtb24=
        >
        E 0 90 43 6e
        E 301 80 43 00
        <X 1325 0
          /wVLdW4=
        >
        E 0 90 43 69
        E 211 80 43 00
        <X 89 0
          /wV1cy0=
        >
        E 0 90 43 62
        E 334 80 43 00
        <X 86 0
          /wVrYWwt
        >
        E 0 90 41 67
        E 399 80 41 00
        <X 108 0
          /wV0YWE=
        >
        E 0 90 41 6d
        E 581 80 41 00
        E 144 80 69 00
        E 850 90 69 6e
        <X 93 0
          /wVOaWlu
        >
        E 0 90 43 6a
        E 353 80 43 00
        <X 73 0
          /wVyb2gt
        >
        E 0 90 43 62
        E 264 80 43 00
        <X 102 0
          /wVrZXVz
        >
        E 0 90 45 64
        E 363 80 45 00
        <X 131 0
          /wVwYWwt
        >
        E 0 90 44 6a
        E 342 80 44 00
        <X 104 0
          /wVrYW4=
        >
        E 0 90 41 68
        E 314 80 41 00
        <X 83 0
          /wVzYWE=
        >
        E 0 90 41 6f
        E 808 80 41 00
        E 184 80 69 00
        E 134 90 69 6e
        <X 125 0
          /wVUb2kt
        >
        E 0 90 41 65
        E 297 80 41 00
        <X 83 0
          /wVuZW4=
        >
        E 0 90 46 65
        E 241 80 46 00
        <X 124 0
          /wV0b2lzLQ==
        >
        E 0 90 46 63
        E 404 80 46 00
        <X 86 0
          /wV0YWFu
        >
        E 0 90 46 65
        E 561 80 46 00
        <X 125 0
          /wVvLQ==
        >
        E 0 90 41 5e
        E 201 80 41 00
        <X 67 0
          /wVwZXQt
        >
        E 0 90 46 5c
        E 295 80 46 00
        <X 158 0
          /wV0YWE=
        >
        E 0 90 46 68
        E 543 80 46 00
        E 249 80 69 00
        E 156 90 69 6e
        <X 236 0
          /wVQby0=
        >
        E 0 90 46 69
        E 682 80 46 00
        <X 79 0
          /wVrw6kt
        >
        E 0 90 44 66
        E 626 80 44 00
        <X 85 0
          /wVtb24=
        >
        E 0 90 46 6b
        E 765 80 46 00
        <X 196 0
          /wVvLQ==
        >
        E 0 90 3e 67
        E 208 80 3e 00
        <X 49 0
          /wVtYWst
        >
        E 0 90 3e 67
        E 177 80 3e 00
        <X 54 0
          /wVzZS0=
        >
        E 0 90 41 67
        E 208 80 41 00
        <X 51 0
          /wVuaQ==
        >
        E 0 90 44 67
        E 180 80 44 00
        <X 79 0
          /wVzYWFu
        >
        E 0 90 43 67
        E 583 80 43 00
        E 101 80 69 00
        E 103 90 69 6e
        <X 85 0
          /wVPLQ==
        >
        E 0 90 3e 67
        E 220 80 3e 00
        <X 61 0
          /wVtYWst
        >
        E 0 90 3e 50
        E 139 80 3e 00
        <X 87 0
          /wVzZS0=
        >
        E 0 90 41 6b
        E 245 80 41 00
        <X 54 0
          /wVuaQ==
        >
        E 0 90 43 68
        E 310 80 43 00
        <X 143 0
          /wVzYWFu
        >
        E 0 90 47 6c
        E 240 80 47 00
        <X 91 0
          /wUr
        >
        E 0 90 43 67
        E 263 80 43 00
        <X 65 0
          /wVQby0=
        >
        E 0 90 3e 6e
        E 191 80 3e 00
        <X 55 0
          /wVrw6kt
        >
        E 0 90 41 6e
        E 227 80 41 00
        <X 65 0
          /wVtb24=
        >
        E 0 90 43 6e
        E 301 80 43 00
        E 372 80 69 00
        <X 108 0
          /wFbaWRsZV9yZWFsdGltZV0=
        >
        E 2859 b0 7b 00
        GUID {C9A1A4CA-4224-4672-91C0-075BEB2A8650}
        IGNTEMPO 0 120.00000000 4 4
        SRCCOLOR 1400
        VELLANE 132 128 128
        COLORMAP "C:\Users\me\AppData\Roaming\REAPER\Data\color_maps\rockband_vox-other.png"
        TEXTSTRINGFILE "Text Events List.txt"
        CFGEDITVIEW 47772.528858 47.228186 7 12 0 0 0
        CFGEDIT 1 1 0 0 1 1 1 1 1 1 1 0.06250000 75 0 1611 691 1 2 1 2 0.00000000 0 0 0 0 0.500000 1 0 1.000000 64
        KEYSNAP 0 0 "102034050607" 0 "Major"
        EVTFILTER 0 -1 -1 -1 -1 0 1 0 0 -1.00000000 -1.00000000
      >
    >
  >
  <TRACK '{B9EF175F-4A6F-4256-B06A-0CEB0592AF83}'
    NAME "primevideopokmonsarjaalkukausi2-backing_vocals-G minor-145bpm-440hz"
    PEAKCOL 16576
    BEAT -1
    AUTOMODE 0
    VOLPAN 1.00000000000000 0.00000000000000 -1.00000000000000 -1.00000000000000 1.00000000000000
    MUTESOLO 0 0 0
    IPHASE 0
    ISBUS 0 0
    BUSCOMP 0 0
    SHOWINMIX 1 0.666700 0.500000 1 0.500000 -1 -1 -1
    FREEMODE 0
    SEL 0
    REC 0 0 0 0 0 0 0
    VU 2
    TRACKHEIGHT 167 0
    INQ 0 0 0 0.5000000000 100 0 0 100
    NCHAN 2
    FX 1
    TRACKID {B9EF175F-4A6F-4256-B06A-0CEB0592AF83}
    PERF 0
    MIDIOUT -1
    MAINSEND 1 0
    <ITEM
      POSITION 2.62765604676679
      SNAPOFFS 0.00000000000000
      LENGTH 61.88512471655329
      LOOP 0
      ALLTAKES 0
      SEL 0
      FADEIN 1 0.000000 0.000000 1 0
      FADEOUT 1 0.000000 0.000000 1 0
      MUTE 0
      IGUID {F2781A75-6DA7-444B-861A-BC296064EFD0}
      IID 141
      NAME "primevideopokmonsarjaalkukausi2-backing_vocals-G minor-145bpm-440hz.mp3"
      VOLPAN 1.000000 0.000000 1.000000 -1.000000
      SOFFS 0.00000000000000
      PLAYRATE 1.00000000000000 1 0.00000000000000 -1
      CHANMODE 0
      GUID {3FD2183A-0962-4543-8BD3-A06E40C07BEF}
      <SOURCE MP3
        FILE "primevideopokmonsarjaalkukausi2-backing_vocals-G minor-145bpm-440hz.mp3" 1
      >
    >
  >
  <TRACK '{E60BCF67-80FD-4554-840A-5B0B5C2E06A0}'
    NAME "HARM1"
    PEAKCOL 24624127
    BEAT -1
    AUTOMODE 0
    VOLPAN 1.00000000000000 0.00000000000000 -1.00000000000000 -1.00000000000000 1.00000000000000
    MUTESOLO 0 0 0
    IPHASE 0
    ISBUS 0 0
    BUSCOMP 0 0
    SHOWINMIX 1 0.666700 0.500000 1 0.500000 -1 -1 -1
    FREEMODE 0
    SEL 0
    REC 0 0 0 0 0 0 0
    TRACKHEIGHT 0 0
    INQ 0 0 0 0.5000000000 100 0 0 100
    NCHAN 2
    FX 1
    TRACKID {E60BCF67-80FD-4554-840A-5B0B5C2E06A0}
    PERF 0
    MIDIOUT -1
    <MIDINOTENAMES
      0 0 "Range Shift"
      0 1 "Lyric Shift"
      0 36 "C1"
      0 37 "C#"
      0 38 "D"
      0 39 "Eb"
      0 40 "E"
      0 41 "F"
      0 42 "F#"
      0 43 "G"
      0 44 "G#"
      0 45 "A"
      0 46 "Bb"
      0 47 "B"
      0 48 "C2"
      0 49 "C#"
      0 50 "D"
      0 51 "Eb"
      0 52 "E"
      0 53 "F"
      0 54 "F#"
      0 55 "G"
      0 56 "G#"
      0 57 "A"
      0 58 "Bb"
      0 59 "B"
      0 60 "C3"
      0 61 "C#"
      0 62 "D"
      0 63 "Eb"
      0 64 "E"
      0 65 "F"
      0 66 "F#"
      0 67 "G"
      0 68 "G#"
      0 69 "A"
      0 70 "Bb"
      0 71 "B"
      0 72 "C4"
      0 73 "C#"
      0 74 "D"
      0 75 "Eb"
      0 76 "E"
      0 77 "F"
      0 78 "F#"
      0 79 "G"
      0 80 "G#"
      0 81 "A"
      0 82 "Bb"
      0 83 "B"
      0 105 "Phrase Marker"
      0 116 "OVERDRIVE"
      0 115 "----"
      0 104 "----"
      0 97 "Not Displayed Percussion"
      0 96 "Displayed Percussion"
      0 95 "----"
      0 84 "C5"
    >
    MAINSEND 1 0
    <FXCHAIN
      WNDRECT 786 197 716 493
      SHOW 0
      LASTSEL 1
      DOCKED 0
      BYPASS 0 0
      <JS "IX/MIDI_Tool II" ""
        0.000000 85.000000 127.000000 0.000000 0.000000 0.000000 100.000000 0.000000 0.000000 127.000000 0.000000 0.000000 1.000000 0.000000 0.000000 - - - - - - - - - - - - - - - - - - - - - - - - - - - - - - - - - - - - - - - - - - - - - - - - - 
      >
      FLOATPOS 0 0 0 0
      FXID {2E79298C-F056-441C-A64B-722C2599E1AA}
      WAK 0
      BYPASS 0 0
      <VST "VSTi: ReaSynth (Cockos)" "reasynth.dll" 0 ""
        eXNlcu9e7f4AAAAAAgAAAAEAAAAAAAAAAgAAAAAAAAA4AAAAAAAAAA==
        AAAAAO++rd4N8K3eppvEOxe30ToAAAAAAAAAAAAAAACa9Q8/6WeIPQ==
        AAAAAAAAAD8AAIA/AAAAAAAAAD8AAAAAAAA=
      >
      FLOATPOS 0 0 0 0
      FXID {A391E59B-3475-47CA-9BDB-E03F3B8FF2C4}
      WAK 0
    >
    <ITEM
      POSITION 0.00000000000000
      SNAPOFFS 0.00000000000000
      LENGTH 65.21492178400058
      LOOP 0
      ALLTAKES 0
      SEL 0
      FADEIN 1 0.000000 0.000000 1 0
      FADEOUT 1 0.000000 0.000000 1 0
      MUTE 0
      IGUID {FE84F6DE-5A5E-43D1-BFBE-4632BD10F85F}
      IID 11
      NAME "HARM1 untitled MIDI item"
      VOLPAN 1.000000 0.000000 1.000000 -1.000000
      SOFFS 0.00000000000000 0.00000000000000
      PLAYRATE 1.00000000000000 1 0.00000000000000 -1
      CHANMODE 0
      GUID {188D8841-6EF7-4ADC-A9DC-A83C2882A63B}
      <SOURCE MIDI
        HASDATA 1 480 QN
        POOLEDEVTS {5DBE65A3-FA90-43D6-B177-37A6B6EA6A8A}
        <X 0 0
          /wNIQVJNMQ==
        >
        <X 5760 0
          /wFbaWRsZV0=
        >
        <X 1937 0
          /wFbcGxheV0=
        >
        E 47 90 69 6e
        <X 176 0
          /wVNw6Q=
        >
        E 0 90 3c 57
        E 129 80 3c 00
        <X 102 0
          /wV0dW4t
        >
        E 0 90 3e 67
        E 209 80 3e 00
        <X 42 0
          /wVuZW4=
        >
        E 0 90 3e 66
        E 130 80 3e 00
        <X 94 0
          /wVzZW4=
        >
        E 0 90 3e 67
        E 311 80 3e 00
        <X 457 0
          /wVqbw==
        >
        E 0 90 3e 4c
        E 127 80 3e 00
        <X 109 0
          /wVrYXMt
        >
        E 0 90 3a 68
        E 334 80 3a 00
        <X 127 0
          /wV2YS0=
        >
        E 0 90 39 6b
        E 160 80 39 00
        <X 86 0
          /wV2YW4=
        >
        E 0 90 35 61
        E 538 80 35 00
        E 82 80 69 00
        E 194 90 69 6e
        <X 359 0
          /wVWb2kt
        >
        E 0 90 3c 6f
        E 183 80 3c 00
        <X 63 0
          /wVtYW4=
        >
        E 0 90 3e 68
        E 191 80 3e 00
        <X 92 0
          /wVzaS0=
        >
        E 0 90 3e 6d
        E 285 80 3e 00
        <X 155 0
          /wVzw6RsLQ==
        >
        E 0 90 3c 67
        E 202 80 3c 00
        <X 46 0
          /wVsw6Rpbg==
        >
        E 0 90 3a 70
        E 236 80 3a 00
        <X 59 0
          /wUr
        >
        E 0 90 3c 7d
        E 832 80 3c 00
        E 511 80 69 00
        E 1118 90 69 6e
        <X 362 0
          /wVVdS0=
        >
        E 0 90 3f 70
        E 233 80 3f 00
        <X 54 0
          /wVkZW4=
        >
        E 0 90 3f 75
        E 127 80 3f 00
        <X 85 0
          /wVoYWFzLQ==
        >
        E 0 90 3f 75
        E 352 80 3f 00
        <X 105 0
          /wV0ZWVu
        >
        E 0 90 3f 68
        E 397 80 3f 00
        <X 133 0
          /wV0by0=
        >
        E 0 90 3c 68
        E 229 80 3c 00
        <X 77 0
          /wV0ZXUt
        >
        E 0 90 3c 72
        E 310 80 3c 00
        <X 101 0
          /wV0YW4=
        >
        E 0 90 39 59
        E 481 80 39 00
        E 168 80 69 00
        E 113 90 69 6e
        E 0 90 74 6e
        <X 181 0
          /wVqYQ==
        >
        E 0 90 3c 55
        E 136 80 3c 00
        <X 72 0
          /wV0ZWVu
        >
        E 0 90 3e 69
        E 342 80 3e 00
        <X 103 0
          /wVzZW4=
        >
        E 0 90 3e 67
        E 255 80 3e 00
        <X 77 0
          /wVweXMt
        >
        E 0 90 3c 64
        E 339 80 3c 00
        <X 90 0
          /wV0eS0=
        >
        E 0 90 3a 59
        E 151 80 3a 00
        <X 90 0
          /wVww6Rpbg==
        >
        E 0 90 3e 6f
        E 1281 80 3e 00
        E 97 80 69 00
        E 0 80 74 00
        E 1101 90 69 6e
        <X 440 0
          /wVUYS0=
        >
        E 0 90 3e 5e
        E 143 80 3e 00
        <X 87 0
          /wVrYWE=
        >
        E 0 90 3e 5e
        E 170 80 3e 00
        <X 73 0
          /wV2dW9yLQ==
        >
        E 0 90 3e 6a
        E 307 80 3e 00
        <X 120 0
          /wV0ZW4=
        >
        E 0 90 3c 69
        E 366 80 3c 00
        <X 114 0
          /wVodWlwLQ==
        >
        E 0 90 3a 62
        E 290 80 3a 00
        <X 205 0
          /wVwdS0=
        >
        E 0 90 39 62
        E 188 80 39 00
        <X 71 0
          /wVqZW4=
        >
        E 0 90 35 6b
        E 407 80 35 00
        E 233 80 69 00
        E 265 90 69 6e
        <X 278 0
          /wVFdC0=
        >
        E 0 90 3c 65
        E 208 80 3c 00
        <X 197 0
          /wVzaW4=
        >
        E 0 90 3e 66
        E 220 80 3e 00
        <X 94 0
          /wVhaS0=
        >
        E 0 90 3c 6f
        E 374 80 3c 00
        <X 74 0
          /wVuYQ==
        >
        E 0 90 3a 6a
        E 177 80 3a 00
        <X 85 0
          /wV2YWFu
        >
        E 0 90 3c 6d
        E 977 80 3c 00
        E 530 80 69 00
        E 872 90 69 6e
        E 0 90 74 6e
        <X 278 0
          /wVKYQ==
        >
        E 0 90 3c 57
        E 96 80 3c 00
        <X 121 0
          /wVQby0=
        >
        E 0 90 3e 65
        E 169 80 3e 00
        <X 91 0
          /wVrw6kt
        >
        E 0 90 3f 6e
        E 175 80 3f 00
        <X 56 0
          /wVtby0=
        >
        E 0 90 3f 6c
        E 218 80 3f 00
        <X 43 0
          /wVuaW4=
        >
        E 0 90 41 6b
        E 416 80 41 00
        <X 252 0
          /wVqby0=
        >
        E 0 90 3e 6b
        E 185 80 3e 00
        <X 106 0
          /wVrYWkt
        >
        E 0 90 3a 6b
        E 289 80 3a 00
        <X 95 0
          /wVzZW4=
        >
        E 0 90 3a 6b
        E 514 80 3a 00
        <X 508 0
          /wVtw6Q=
        >
        E 0 90 3e 6b
        E 110 80 3e 00
        <X 132 0
          /wVvLQ==
        >
        E 0 90 3c 6b
        E 206 80 3c 00
        <X 91 0
          /wVwaW4=
        >
        E 0 90 3e 6b
        E 305 80 3e 00
        <X 104 0
          /wV0dW4t
        >
        E 0 90 3c 66
        E 407 80 3c 00
        <X 91 0
          /wV0ZS0=
        >
        E 0 90 3a 6a
        E 173 80 3a 00
        <X 88 0
          /wVtYWFu
        >
        E 0 90 3e 6e
        E 1349 80 3e 00
        E 78 80 69 00
        E 0 80 74 00
        E 177 90 69 6e
        <X 2390 0
          /wVTw6Q=
        >
        E 0 90 43 62
        E 282 80 43 00
        <X 88 0
          /wV1cy0=
        >
        E 0 90 43 62
        E 198 80 43 00
        <X 93 0
          /wVrbw==
        >
        E 0 90 41 60
        E 310 80 41 00
        <X 100 0
          /wV2YWFu
        >
        E 0 90 3c 6a
        E 524 80 3c 00
        E 157 80 69 00
        E 814 90 69 6e
        <X 326 0
          /wVNZQ==
        >
        E 0 90 43 5e
        E 260 80 43 00
        <X 86 0
          /wV5aC0=
        >
        E 0 90 44 6c
        E 136 80 44 00
        <X 46 0
          /wVkZXMt
        >
        E 0 90 45 69
        E 123 80 45 00
        <X 73 0
          /wVzw6Q=
        >
        E 0 90 47 61
        E 213 80 47 00
        <X 103 0
          /wV2b2kt
        >
        E 0 90 43 6b
        E 624 80 43 00
        <X 76 0
          /wV0ZS0=
        >
        E 0 90 43 53
        E 159 80 43 00
        <X 101 0
          /wV0YWFu
        >
        E 0 90 41 6c
        E 570 80 41 00
        E 845 80 69 00
        E 79 90 69 6e
        <X 171 0
          /wVPb3Q=
        >
        E 0 90 43 69
        E 688 80 43 00
        <X 197 0
          /wVtdW4=
        >
        E 0 90 43 6a
        E 399 80 43 00
        <X 143 0
          /wV5cy0=
        >
        E 0 90 43 5f
        E 316 80 43 00
        <X 167 0
          /wV0w6Qt
        >
        E 0 90 41 6a
        E 174 80 41 00
        <X 107 0
          /wV2w6Rpbg==
        >
        E 0 90 3c 65
        E 440 80 3c 00
        E 52 80 69 00
        E 100 90 69 6e
        E 0 90 74 6e
        <X 104 0
          /wVPLQ==
        >
        E 0 90 3a 56
        E 128 80 3a 00
        <X 87 0
          /wVsZXQ=
        >
        E 0 90 3c 56
        E 171 80 3c 00
        <X 128 0
          /wVhaS0=
        >
        E 0 90 3e 67
        E 382 80 3e 00
        <X 58 0
          /wVuYQ==
        >
        E 0 90 3e 64
        E 198 80 3e 00
        <X 54 0
          /wV2aWUt
        >
        E 0 90 3c 64
        E 306 80 3c 00
        <X 63 0
          /wVyZWwt
        >
        E 0 90 3a 65
        E 216 80 3a 00
        <X 74 0
          /wVsw6Rpbg==
        >
        E 0 90 3e 69
        E 1385 80 3e 00
        E 65 80 69 00
        E 0 80 74 00
        E 210 90 69 6e
        <X 2192 0
          /wVLdW4=
        >
        E 0 90 43 69
        E 211 80 43 00
        <X 89 0
          /wV1cy0=
        >
        E 0 90 43 62
        E 334 80 43 00
        <X 86 0
          /wVrYWwt
        >
        e 0 90 41 67
        e 399 80 41 00
        <X 108 0
          /wV0YWE=
        >
        e 0 90 41 6d
        e 581 80 41 00
        E 144 80 69 00
        E 850 90 69 6e
        <X 93 0
          /wVOaWlu
        >
        E 0 90 43 6a
        E 353 80 43 00
        <X 73 0
          /wVyb2gt
        >
        E 0 90 43 62
        E 264 80 43 00
        <X 102 0
          /wVrZXVz
        >
        E 0 90 45 64
        E 363 80 45 00
        <X 131 0
          /wVwYWwt
        >
        E 0 90 44 6a
        E 342 80 44 00
        <X 104 0
          /wVrYW4=
        >
        E 0 90 41 68
        E 314 80 41 00
        <X 83 0
          /wVzYWE=
        >
        E 0 90 41 70
        E 808 80 41 00
        E 184 80 69 00
        E 134 90 69 6e
        <X 125 0
          /wVUb2kt
        >
        E 0 90 41 65
        E 297 80 41 00
        <X 83 0
          /wVuZW4=
        >
        E 0 90 46 65
        E 241 80 46 00
        <X 124 0
          /wV0b2lzLQ==
        >
        E 0 90 46 63
        E 404 80 46 00
        <X 86 0
          /wV0YWFu
        >
        E 0 90 46 65
        E 561 80 46 00
        <X 125 0
          /wVvLQ==
        >
        E 0 90 41 5e
        E 201 80 41 00
        <X 67 0
          /wVwZXQt
        >
        E 0 90 46 5c
        E 295 80 46 00
        <X 158 0
          /wV0YWE=
        >
        E 0 90 46 68
        E 543 80 46 00
        E 249 80 69 00
        E 156 90 69 6e
        <X 236 0
          /wVQby0=
        >
        E 0 90 46 69
        E 682 80 46 00
        <X 79 0
          /wVrw6kt
        >
        E 0 90 44 66
        E 626 80 44 00
        <X 85 0
          /wVtb24=
        >
        E 0 90 46 6b
        E 765 80 46 00
        <X 196 0
          /wVvLQ==
        >
        E 0 90 3e 67
        E 208 80 3e 00
        <X 49 0
          /wVtYWst
        >
        E 0 90 3e 67
        E 177 80 3e 00
        <X 54 0
          /wVzZS0=
        >
        E 0 90 41 67
        E 208 80 41 00
        <X 51 0
          /wVuaQ==
        >
        E 0 90 44 67
        E 180 80 44 00
        <X 79 0
          /wVzYWFu
        >
        E 0 90 43 67
        E 583 80 43 00
        E 101 80 69 00
        E 103 90 69 6e
        <X 85 0
          /wVPLQ==
        >
        E 0 90 3e 67
        E 220 80 3e 00
        <X 61 0
          /wVtYWst
        >
        E 0 90 3e 50
        E 139 80 3e 00
        <X 87 0
          /wVzZS0=
        >
        E 0 90 41 6b
        E 245 80 41 00
        <X 54 0
          /wVuaQ==
        >
        E 0 90 43 68
        E 310 80 43 00
        <X 143 0
          /wVzYWFu
        >
        E 0 90 47 6c
        E 240 80 47 00
        <X 91 0
          /wUr
        >
        E 0 90 43 67
        E 263 80 43 00
        E 1276 80 69 00
        E 2967 b0 7b 00
        GUID {D78D8959-2AD8-48C0-8F6C-4A6670952331}
        IGNTEMPO 0 120.00000000 4 4
        SRCCOLOR 1401
        VELLANE 132 128 60
        COLORMAP "C:\Users\me\AppData\Roaming\REAPER\Data\color_maps\rockband_vox-other.png"
        TEXTSTRINGFILE "C:\Program Files\REAPER\Data\Text_Strings\Text Events List.txt"
        CFGEDITVIEW 32338.076539 260.930860 10 12 0 0 0
        CFGEDIT 1 1 0 1 1 1 1 1 1 1 1 0.06250000 -8 -8 1374 736 1 2 1 2 0.00000000 0 0 0 0 0.500000 1 0 1.000000 64
        KEYSNAP 0 0 "102034050607" 0 "Major"
        EVTFILTER 0 -1 -1 -1 -1 0 1 0 0 -1.00000000 -1.00000000
      >
    >
  >
  <TRACK '{4A30D2A4-111B-40E3-8633-0926E85E641C}'
    NAME "DRYVOX1"
    PEAKCOL 16576
    BEAT -1
    AUTOMODE 0
    VOLPAN 1.00000000000000 0.00000000000000 -1.00000000000000 -1.00000000000000 1.00000000000000
    MUTESOLO 1 0 0
    IPHASE 0
    ISBUS 0 0
    BUSCOMP 0 0
    SHOWINMIX 1 0.666700 0.500000 1 0.500000 -1 -1 -1
    FREEMODE 0
    SEL 0
    REC 0 0 0 0 0 0 0
    TRACKHEIGHT 24 0
    INQ 0 0 0 0.5000000000 100 0 0 100
    NCHAN 2
    FX 1
    TRACKID {4A30D2A4-111B-40E3-8633-0926E85E641C}
    PERF 0
    MIDIOUT -1
    MAINSEND 1 0
    <FXCHAIN
      SHOW 0
      LASTSEL 0
      DOCKED 0
      BYPASS 0 0
      <VST "VST: ReaGate (Cockos)" "reagate.dll" 0 ""
        dGdlcu9e7f4EAAAAAQAAAAAAAAACAAAAAAAAAAQAAAAAAAAACAAAAA==
        AAAAAAIAAAABAAAAAAAAAAIAAAAAAAAAVAAAAAAAAAAAABAA776t3g==
        DfCt3pzRBzOmm8Q7CtejPAAAAAAAAAAAAACAPwAAAAAAAAAAAAAAAA==
        nNEHMx5Ucz+c0QczAACAPwAAAAAAAAAAAAAAACwWCz8AAAAAAAAAAA==
        AAAQAAAA
      >
      FLOATPOS 859 184 511 385
      FXID {BF545B5B-7DD0-4B4C-AC52-F095A552DA08}
      WAK 0
    >
    <ITEM
      POSITION 2.65708690513388
      SNAPOFFS 0.00000000000000
      LENGTH 61.88512471655329
      LOOP 0
      ALLTAKES 0
      SEL 0
      FADEIN 1 0.000000 0.000000 1 0
      FADEOUT 1 0.000000 0.000000 1 0
      MUTE 0
      IGUID {FC50D21D-F2C8-4EE5-8030-5D24D15BA1D5}
      IID 123
      NAME "primevideopokmonsarjaalkukausi2-vocals-G minor-145bpm-440hz.mp3"
      VOLPAN 1.000000 0.000000 1.000000 -1.000000
      SOFFS 0.00000000000000
      PLAYRATE 1.00000000000000 1 0.00000000000000 -1
      CHANMODE 0
      GUID {96F3D16D-3671-4F05-94CC-C9A0FE89BF1B}
      <SOURCE MP3
        FILE "primevideopokmonsarjaalkukausi2-vocals-G minor-145bpm-440hz.mp3" 1
      >
    >
  >
  <TRACK '{983C7D04-DAF6-462A-B5E6-64213F29FBA0}'
    NAME "HARM2"
    PEAKCOL 24624127
    BEAT -1
    AUTOMODE 0
    VOLPAN 1.00497380427334 0.00000000000000 -1.00000000000000 -1.00000000000000 1.00000000000000
    MUTESOLO 0 2 0
    IPHASE 0
    ISBUS 0 0
    BUSCOMP 0 0
    SHOWINMIX 1 0.666700 0.500000 1 0.500000 -1 -1 -1
    FREEMODE 0
    SEL 0
    REC 0 0 0 0 0 0 0
    TRACKHEIGHT 0 0
    INQ 0 0 0 0.5000000000 100 0 0 100
    NCHAN 2
    FX 1
    TRACKID {983C7D04-DAF6-462A-B5E6-64213F29FBA0}
    PERF 0
    MIDIOUT -1
    <MIDINOTENAMES
      0 0 "Range Shift"
      0 1 "Lyric Shift"
      0 36 "C1"
      0 37 "C#"
      0 38 "D"
      0 39 "Eb"
      0 40 "E"
      0 41 "F"
      0 42 "F#"
      0 43 "G"
      0 44 "G#"
      0 45 "A"
      0 46 "Bb"
      0 47 "B"
      0 48 "C2"
      0 49 "C#"
      0 50 "D"
      0 51 "Eb"
      0 52 "E"
      0 53 "F"
      0 54 "F#"
      0 55 "G"
      0 56 "G#"
      0 57 "A"
      0 58 "Bb"
      0 59 "B"
      0 60 "C3"
      0 61 "C#"
      0 62 "D"
      0 63 "Eb"
      0 64 "E"
      0 65 "F"
      0 66 "F#"
      0 67 "G"
      0 68 "G#"
      0 69 "A"
      0 70 "Bb"
      0 71 "B"
      0 72 "C4"
      0 73 "C#"
      0 74 "D"
      0 75 "Eb"
      0 76 "E"
      0 77 "F"
      0 78 "F#"
      0 79 "G"
      0 80 "G#"
      0 81 "A"
      0 82 "Bb"
      0 83 "B"
      0 105 "Phrase Marker"
      0 35 "----"
      0 84 "C5"
      0 116 "OVERDRIVE"
      0 115 "----"
      0 104 "----"
      0 97 "Not Displayed Percussion"
      0 96 "Displayed Percussion"
      0 95 "----"
    >
    MAINSEND 1 0
    <FXCHAIN
      WNDRECT 0 42 716 493
      SHOW 0
      LASTSEL 1
      DOCKED 0
      BYPASS 0 0
      <JS "IX/MIDI_Tool II" ""
        0.000000 85.000000 127.000000 0.000000 0.000000 0.000000 100.000000 0.000000 0.000000 127.000000 0.000000 0.000000 1.000000 0.000000 0.000000 - - - - - - - - - - - - - - - - - - - - - - - - - - - - - - - - - - - - - - - - - - - - - - - - - 
      >
      FLOATPOS 0 0 0 0
      FXID {0D2127EF-90E6-4278-AB57-59BADA75D3A0}
      WAK 0
      BYPASS 0 0
      <VST "VSTi: ReaSynth (Cockos)" "reasynth.dll" 0 ""
        eXNlcu9e7f4AAAAAAgAAAAEAAAAAAAAAAgAAAAAAAAA4AAAAAAAAAA==
        AAAAAO++rd4N8K3eppvEOxe30ToAAAAAAAAAAAAAAACa9Q8/6WeIPQ==
        AAAAAAAAAD8AAIA/AAAAAAAAAD8AAAAAAAA=
      >
      FLOATPOS 0 0 0 0
      FXID {9CF76FE8-51DE-4F46-8774-EF282D9874DF}
      WAK 0
    >
    <ITEM
      POSITION 0.00000000000000
      SNAPOFFS 0.00000000000000
      LENGTH 65.21492178400058
      LOOP 0
      ALLTAKES 0
      SEL 0
      FADEIN 1 0.000000 0.000000 1 0
      FADEOUT 1 0.000000 0.000000 1 0
      MUTE 0
      IGUID {85B4D2FA-0EE6-4979-8286-EAC89A15680D}
      IID 12
      NAME "HARM2 untitled MIDI item"
      VOLPAN 1.000000 0.000000 1.000000 -1.000000
      SOFFS 0.00000000000000 0.00000000000000
      PLAYRATE 1.00000000000000 1 0.00000000000000 -1
      CHANMODE 0
      GUID {67C8C31A-733D-46F5-9A6D-0FDF2143554E}
      <SOURCE MIDI
        HASDATA 1 480 QN
        POOLEDEVTS {A135B48B-B173-4387-ABD5-1C0B7832FB94}
        <X 0 0
          /wNIQVJNMg==
        >
        <X 5760 0
          /wFbaWRsZV0=
        >
        <X 1937 0
          /wFbcGxheV0=
        >
        e 47 90 69 6e
        e 3213 80 69 00
        e 194 90 69 6e
        e 3214 80 69 00
        e 1118 90 69 6e
        e 3214 80 69 00
        e 113 90 69 6e
        e 0 90 74 6e
        e 3214 80 69 00
        e 0 80 74 00
        e 1101 90 69 6e
        <X 440 0
          /wVUYS0=
        >
        e 0 90 42 5e
        e 143 80 42 00
        <X 87 0
          /wVrYWE=
        >
        e 0 90 43 5e
        e 170 80 43 00
        <X 73 0
          /wV2dW9yLQ==
        >
        e 0 90 43 6a
        e 307 80 43 00
        <X 120 0
          /wV0ZW4=
        >
        e 0 90 43 69
        e 366 80 43 00
        <X 114 0
          /wVodWlwLQ==
        >
        e 0 90 42 62
        e 290 80 42 00
        <X 205 0
          /wVwdS0=
        >
        e 0 90 3d 62
        e 188 80 3d 00
        <X 71 0
          /wVqZW4=
        >
        e 0 90 3e 6b
        e 407 80 3e 00
        e 233 80 69 00
        e 265 90 69 6e
        <X 278 0
          /wVFdC0=
        >
        e 0 90 42 65
        e 208 80 42 00
        <X 197 0
          /wVzaW4=
        >
        e 0 90 43 66
        e 220 80 43 00
        <X 94 0
          /wVhaS0=
        >
        e 0 90 43 6f
        e 374 80 43 00
        <X 74 0
          /wVuYQ==
        >
        e 0 90 3e 6a
        e 177 80 3e 00
        <X 85 0
          /wV2YWFu
        >
        e 0 90 3f 6d
        e 369 80 3f 00
        <X 90 0
          /wUr
        >
        e 0 90 41 6d
        e 240 80 41 00
        e 808 80 69 00
        e 872 90 69 6e
        e 0 90 74 6e
        <X 278 0
          /wVKYQ==
        >
        e 0 90 46 57
        e 96 80 46 00
        <X 121 0
          /wVQby0=
        >
        e 0 90 46 65
        e 169 80 46 00
        <X 91 0
          /wVrw6kt
        >
        e 0 90 46 6e
        e 175 80 46 00
        <X 56 0
          /wVtby0=
        >
        e 0 90 46 6c
        e 218 80 46 00
        <X 43 0
          /wVuaW4=
        >
        e 0 90 47 6b
        e 416 80 47 00
        <X 252 0
          /wVqby0=
        >
        e 0 90 46 6b
        e 185 80 46 00
        <X 106 0
          /wVrYWkt
        >
        e 0 90 41 6b
        e 289 80 41 00
        <X 95 0
          /wVzZW4=
        >
        e 0 90 41 6b
        e 514 80 41 00
        <X 508 0
          /wVtw6Q=
        >
        e 0 90 43 6b
        e 110 80 43 00
        <X 132 0
          /wVvLQ==
        >
        e 0 90 44 6b
        e 206 80 44 00
        <X 91 0
          /wVwaW4=
        >
        e 0 90 46 6b
        e 305 80 46 00
        <X 104 0
          /wV0dW4t
        >
        e 0 90 46 66
        e 407 80 46 00
        <X 91 0
          /wV0ZS0=
        >
        e 0 90 46 6a
        e 173 80 46 00
        <X 88 0
          /wVtYWFu
        >
        e 0 90 45 6e
        e 1349 80 45 00
        e 78 80 69 00
        e 0 80 74 00
        e 177 90 69 6e
        <X 107 0
          /wVQby0=
        >
        e 0 90 3e 6e
        e 191 80 3e 00
        <X 55 0
          /wVrw6kt
        >
        e 0 90 41 6e
        e 226 80 41 00
        <X 65 0
          /wVtb24=
        >
        e 0 90 43 6e
        e 301 80 43 00
        <X 322 0
          /wVvLQ==
        >
        e 0 90 42 6b
        e 161 80 42 00
        <X 49 0
          /wVtYWst
        >
        e 0 90 44 6b
        e 144 80 44 00
        <X 79 0
          /wVzZS0=
        >
        e 0 90 45 6b
        e 295 80 45 00
        <X 73 0
          /wVuaQ==
        >
        e 0 90 47 6b
        e 187 80 47 00
        <X 142 0
          /wVzYWFu
        >
        e 0 90 47 6b
        e 1113 80 47 00
        e 632 80 69 00
        e 814 90 69 6e
        <X 326 0
          /wVNZQ==
        >
        e 0 90 46 5e
        e 260 80 46 00
        <X 86 0
          /wV5aC0=
        >
        e 0 90 46 6c
        e 136 80 46 00
        <X 46 0
          /wVkZXMt
        >
        e 0 90 49 69
        e 123 80 49 00
        <X 73 0
          /wVzw6Q=
        >
        e 0 90 4a 61
        e 213 80 4a 00
        <X 103 0
          /wV2b2kt
        >
        e 0 90 48 6b
        e 624 80 48 00
        <X 76 0
          /wV0ZS0=
        >
        e 0 90 46 53
        e 159 80 46 00
        <X 101 0
          /wV0YWFu
        >
        e 0 90 45 6c
        e 405 80 45 00
        <X 87 0
          /wVQby0=
        >
        e 0 90 3e 6e
        e 191 80 3e 00
        <X 55 0
          /wVrw6kt
        >
        e 0 90 41 6e
        e 226 80 41 00
        <X 65 0
          /wVtb24=
        >
        e 0 90 43 6e
        e 301 80 43 00
        e 85 80 69 00
        e 79 90 69 6e
        e 2854 80 69 00
        e 100 90 69 6e
        e 0 90 74 6e
        <X 104 0
          /wVPLQ==
        >
        e 0 90 3f 56
        e 128 80 3f 00
        <X 87 0
          /wVsZXQ=
        >
        e 0 90 41 56
        e 171 80 41 00
        <X 128 0
          /wVhaS0=
        >
        e 0 90 43 67
        e 382 80 43 00
        <X 58 0
          /wVuYQ==
        >
        e 0 90 43 64
        e 198 80 43 00
        <X 54 0
          /wV2aWUt
        >
        e 0 90 41 64
        e 306 80 41 00
        <X 63 0
          /wVyZWwt
        >
        e 0 90 3f 65
        e 216 80 3f 00
        <X 74 0
          /wVsw6Rpbg==
        >
        e 0 90 43 69
        e 1385 80 43 00
        e 65 80 69 00
        e 0 80 74 00
        e 210 90 69 6e
        <X 60 0
          /wVQby0=
        >
        e 0 90 3e 6e
        e 191 80 3e 00
        <X 55 0
          /wVrw6kt
        >
        e 0 90 41 6e
        e 208 80 41 00
        <X 52 0
          /wVtb24=
        >
        e 0 90 43 6e
        e 301 80 43 00
        <X 348 0
          /wVvLQ==
        >
        e 0 90 42 6b
        e 161 80 42 00
        <X 49 0
          /wVtYWst
        >
        e 0 90 44 6b
        e 144 80 44 00
        <X 79 0
          /wVzZS0=
        >
        e 0 90 45 6b
        e 295 80 45 00
        <X 73 0
          /wVuaQ==
        >
        e 0 90 47 6b
        e 187 80 47 00
        <X 142 0
          /wVzYWFu
        >
        e 0 90 47 6b
        e 1113 80 47 00
        e 686 80 69 00
        e 850 90 69 6e
        <X 93 0
          /wVOaWlu
        >
        e 0 90 46 6a
        e 353 80 46 00
        <X 73 0
          /wVyb2gt
        >
        e 0 90 46 62
        e 264 80 46 00
        <X 102 0
          /wVrZXVz
        >
        e 0 90 48 64
        e 363 80 48 00
        <X 131 0
          /wVwYWwt
        >
        e 0 90 48 6a
        e 342 80 48 00
        <X 104 0
          /wVrYW4=
        >
        e 0 90 46 68
        e 314 80 46 00
        <X 83 0
          /wVzYWE=
        >
        e 0 90 45 70
        e 808 80 45 00
        e 184 80 69 00
        e 134 90 69 6e
        <X 125 0
          /wVUb2ktJA==
        >
        e 0 90 3f 65
        e 297 80 3f 00
        <X 83 0
          /wVuZW4k
        >
        e 0 90 44 65
        e 241 80 44 00
        <X 124 0
          /wV0b2lzLSQ=
        >
        e 0 90 44 63
        e 404 80 44 00
        <X 86 0
          /wV0YWFuJA==
        >
        e 0 90 44 65
        e 561 80 44 00
        <X 125 0
          /wVvLSQ=
        >
        e 0 90 3f 5e
        e 201 80 3f 00
        <X 67 0
          /wVwZXQtJA==
        >
        e 0 90 44 5c
        e 295 80 44 00
        <X 158 0
          /wV0YWEk
        >
        e 0 90 44 68
        e 543 80 44 00
        e 249 80 69 00
        e 156 90 69 6e
        <X 236 0
          /wVQby0=
        >
        e 0 90 44 69
        e 682 80 44 00
        <X 79 0
          /wVrw6kt
        >
        e 0 90 42 66
        e 626 80 42 00
        <X 85 0
          /wVtb24=
        >
        e 0 90 44 6b
        e 765 80 44 00
        <X 196 0
          /wVvLQ==
        >
        e 0 90 43 67
        e 208 80 43 00
        <X 49 0
          /wVtYWst
        >
        e 0 90 43 67
        e 177 80 43 00
        <X 54 0
          /wVzZS0=
        >
        e 0 90 46 67
        e 208 80 46 00
        <X 51 0
          /wVuaQ==
        >
        e 0 90 49 67
        e 180 80 49 00
        <X 79 0
          /wVzYWFu
        >
        e 0 90 48 67
        e 583 80 48 00
        e 101 80 69 00
        e 103 90 69 6e
        <X 2003 0
          /wVQby0=
        >
        e 0 90 3e 6e
        e 191 80 3e 00
        <X 55 0
          /wVrw6kt
        >
        e 0 90 41 6e
        e 227 80 41 00
        <X 65 0
          /wVtb24=
        >
        e 0 90 43 6e
        e 301 80 43 00
        e 372 80 69 00
        E 2967 b0 7b 00
        GUID {E53B89F8-ECC8-4A25-86E2-BC4D240C9444}
        IGNTEMPO 0 120.00000000 4 4
        SRCCOLOR 1402
        VELLANE 132 128 60
        COLORMAP "C:\Users\me\AppData\Roaming\REAPER\Data\color_maps\rockband_vox-other.png"
        TEXTSTRINGFILE "C:\Program Files\REAPER\Data\Text_Strings\Text Events List.txt"
        CFGEDITVIEW 32338.076539 260.930860 8 12 0 0 0
        CFGEDIT 1 1 0 1 1 1 1 1 1 0 1 0.06250000 -8 -8 1374 736 1 2 1 2 0.00000000 0 0 0 0 0.500000 1 0 1.000000 64
        KEYSNAP 0 0 "102034050607" 0 "Major"
        EVTFILTER 0 -1 -1 -1 -1 0 1 0 0 -1.00000000 -1.00000000
      >
    >
  >
  <TRACK '{58A7B9C6-1373-47A1-A41A-295306551BF7}'
    NAME "DRYVOX2"
    PEAKCOL 16576
    BEAT -1
    AUTOMODE 0
    VOLPAN 1.00000000000000 0.00000000000000 -1.00000000000000 -1.00000000000000 1.00000000000000
    MUTESOLO 1 0 0
    IPHASE 0
    ISBUS 0 0
    BUSCOMP 0 0
    SHOWINMIX 1 0.666700 0.500000 1 0.500000 -1 -1 -1
    FREEMODE 0
    SEL 0
    REC 0 0 0 0 0 0 0
    TRACKHEIGHT 24 0
    INQ 0 0 0 0.5000000000 100 0 0 100
    NCHAN 2
    FX 1
    TRACKID {58A7B9C6-1373-47A1-A41A-295306551BF7}
    PERF 0
    MIDIOUT -1
    MAINSEND 1 0
    <FXCHAIN
      SHOW 0
      LASTSEL 0
      DOCKED 0
      BYPASS 0 0
      <VST "VST: ReaGate (Cockos)" "reagate.dll" 0 ""
        dGdlcu9e7f4EAAAAAQAAAAAAAAACAAAAAAAAAAQAAAAAAAAACAAAAA==
        AAAAAAIAAAABAAAAAAAAAAIAAAAAAAAAVAAAAAAAAAAAABAA776t3g==
        DfCt3pzRBzOmm8Q7CtejPAAAAAAAAAAAAACAPwAAAAAAAAAAAAAAAA==
        nNEHMx5Ucz+c0QczAACAPwAAAAAAAAAAAAAAACwWCz8AAAAAAAAAAA==
        AAAQAAAA
      >
      FLOATPOS 859 184 511 385
      FXID {BF545B5B-7DD0-4B4C-AC52-F095A552DA08}
      WAK 0
    >
    <ITEM
      POSITION 2.62765604676679
      SNAPOFFS 0.00000000000000
      LENGTH 61.88512471655329
      LOOP 0
      ALLTAKES 0
      SEL 0
      FADEIN 1 0.000000 0.000000 1 0
      FADEOUT 1 0.000000 0.000000 1 0
      MUTE 0
      IGUID {0DA6995B-00D7-4E19-A725-78AB91E748F4}
      IID 141
      NAME "primevideopokmonsarjaalkukausi2-backing_vocals-G minor-145bpm-440hz.mp3"
      VOLPAN 1.000000 0.000000 1.000000 -1.000000
      SOFFS 0.00000000000000
      PLAYRATE 1.00000000000000 1 0.00000000000000 -1
      CHANMODE 0
      GUID {F404659B-6C01-440F-B985-28E9C45E6FEC}
      <SOURCE MP3
        FILE "primevideopokmonsarjaalkukausi2-backing_vocals-G minor-145bpm-440hz.mp3" 1
      >
    >
  >
  <TRACK '{4299BF31-E988-4C64-900A-97AC9ECE5EBC}'
    NAME "HARM3"
    PEAKCOL 24624127
    BEAT -1
    AUTOMODE 0
    VOLPAN 1.00000000000000 0.00000000000000 -1.00000000000000 -1.00000000000000 1.00000000000000
    MUTESOLO 0 0 0
    IPHASE 0
    ISBUS 0 0
    BUSCOMP 0 0
    SHOWINMIX 1 0.666700 0.500000 1 0.500000 -1 -1 -1
    FREEMODE 0
    SEL 0
    REC 0 0 0 0 0 0 0
    TRACKHEIGHT 0 0
    INQ 0 0 0 0.5000000000 100 0 0 100
    NCHAN 2
    FX 1
    TRACKID {4299BF31-E988-4C64-900A-97AC9ECE5EBC}
    PERF 0
    MIDIOUT -1
    <MIDINOTENAMES
      0 0 "Range Shift"
      0 1 "Lyric Shift"
      0 35 "----"
      0 36 "C1"
      0 37 "C#"
      0 38 "D"
      0 39 "Eb"
      0 40 "E"
      0 41 "F"
      0 42 "F#"
      0 43 "G"
      0 44 "G#"
      0 45 "A"
      0 46 "Bb"
      0 47 "B"
      0 48 "C2"
      0 49 "C#"
      0 50 "D"
      0 51 "Eb"
      0 52 "E"
      0 53 "F"
      0 54 "F#"
      0 55 "G"
      0 56 "G#"
      0 57 "A"
      0 58 "Bb"
      0 59 "B"
      0 60 "C3"
      0 61 "C#"
      0 62 "D"
      0 63 "Eb"
      0 64 "E"
      0 65 "F"
      0 66 "F#"
      0 67 "G"
      0 68 "G#"
      0 69 "A"
      0 70 "Bb"
      0 71 "B"
      0 72 "C4"
      0 73 "C#"
      0 74 "D"
      0 75 "Eb"
      0 76 "E"
      0 77 "F"
      0 78 "F#"
      0 79 "G"
      0 80 "G#"
      0 81 "A"
      0 82 "Bb"
      0 83 "B"
      0 84 "C5"
      0 116 "OVERDRIVE"
      0 115 "----"
      0 105 "Phrase Marker"
      0 104 "----"
      0 97 "Not Displayed Percussion"
      0 96 "Displayed Percussion"
      0 95 "----"
    >
    MAINSEND 1 0
    <FXCHAIN
      WNDRECT 0 42 716 493
      SHOW 0
      LASTSEL 1
      DOCKED 0
      BYPASS 0 0
      <JS "IX/MIDI_Tool II" ""
        0.000000 85.000000 127.000000 0.000000 0.000000 0.000000 100.000000 0.000000 0.000000 127.000000 0.000000 0.000000 1.000000 0.000000 0.000000 - - - - - - - - - - - - - - - - - - - - - - - - - - - - - - - - - - - - - - - - - - - - - - - - - 
      >
      FLOATPOS 0 0 0 0
      FXID {3D33E2FB-5DDE-4F81-B16F-BCB1EAD8D4FA}
      WAK 0
      BYPASS 0 0
      <VST "VSTi: ReaSynth (Cockos)" "reasynth.dll" 0 ""
        eXNlcu9e7f4AAAAAAgAAAAEAAAAAAAAAAgAAAAAAAAA4AAAAAAAAAA==
        AAAAAO++rd4N8K3eppvEOxe30ToAAAAAAAAAAAAAAACa9Q8/6WeIPQ==
        AAAAAAAAAD8AAIA/AAAAAAAAAD8AAAAAAAA=
      >
      FLOATPOS 0 0 0 0
      FXID {98E235B6-3365-4F58-AC74-F5BD513BFA85}
      WAK 0
    >
    <ITEM
      POSITION 0.00000000000000
      SNAPOFFS 0.00000000000000
      LENGTH 65.21492178400058
      LOOP 0
      ALLTAKES 0
      SEL 0
      FADEIN 1 0.000000 0.000000 1 0
      FADEOUT 1 0.000000 0.000000 1 0
      MUTE 0
      IGUID {14DAFADF-64E7-40FA-8E65-65BBB77CBDB7}
      IID 13
      NAME "HARM3 untitled MIDI item"
      VOLPAN 1.000000 0.000000 1.000000 -1.000000
      SOFFS 0.00000000000000 0.00000000000000
      PLAYRATE 1.00000000000000 1 0.00000000000000 -1
      CHANMODE 0
      GUID {BA30FF02-694D-4D9D-9D54-87AECA42C3BA}
      <SOURCE MIDI
        HASDATA 1 480 QN
        POOLEDEVTS {11060F5C-1B0A-48ED-9F60-3A5ED8915674}
        <X 0 0
          /wNIQVJNMw==
        >
        <X 5760 0
          /wFbaWRsZV0=
        >
        <X 1937 0
          /wFbcGxheV0=
        >
        E 47 90 69 6e
        E 3213 80 69 00
        E 194 90 69 6e
        E 3214 80 69 00
        E 1118 90 69 6e
        E 3214 80 69 00
        E 113 90 69 6e
        E 0 90 74 6e
        E 3214 80 69 00
        E 0 80 74 00
        E 1101 90 69 6e
        <X 440 0
          /wVUYS0k
        >
        E 0 90 3a 5e
        E 143 80 3a 00
        <X 87 0
          /wVrYWEk
        >
        E 0 90 3a 5e
        E 170 80 3a 00
        <X 73 0
          /wV2dW9yLSQ=
        >
        E 0 90 3a 6a
        E 307 80 3a 00
        <X 120 0
          /wV0ZW4k
        >
        E 0 90 38 69
        E 366 80 38 00
        <X 114 0
          /wVodWlwLSQ=
        >
        E 0 90 36 62
        E 290 80 36 00
        <X 205 0
          /wVwdS0k
        >
        E 0 90 35 62
        E 188 80 35 00
        <X 71 0
          /wVqZW4k
        >
        E 0 90 31 6b
        E 407 80 31 00
        E 233 80 69 00
        E 265 90 69 6e
        <X 278 0
          /wVFdC0k
        >
        E 0 90 38 65
        E 208 80 38 00
        <X 197 0
          /wVzaW4k
        >
        E 0 90 3a 66
        E 220 80 3a 00
        <X 94 0
          /wVhaS0k
        >
        E 0 90 38 6f
        E 374 80 38 00
        <X 74 0
          /wVuYSQ=
        >
        E 0 90 36 6a
        E 177 80 36 00
        <X 85 0
          /wV2YWFuJA==
        >
        E 0 90 38 6d
        E 977 80 38 00
        E 530 80 69 00
        E 872 90 69 6e
        E 0 90 74 6e
        <X 278 0
          /wVKYSQ=
        >
        E 0 90 38 57
        E 96 80 38 00
        <X 121 0
          /wVQby0k
        >
        E 0 90 3a 65
        E 169 80 3a 00
        <X 91 0
          /wVrw6ktJA==
        >
        E 0 90 3b 6e
        E 175 80 3b 00
        <X 56 0
          /wVtby0k
        >
        E 0 90 3b 6c
        E 218 80 3b 00
        <X 43 0
          /wVuaW4k
        >
        E 0 90 3d 6b
        E 416 80 3d 00
        <X 252 0
          /wVqby0k
        >
        E 0 90 3a 6b
        E 185 80 3a 00
        <X 106 0
          /wVrYWktJA==
        >
        E 0 90 36 6b
        E 289 80 36 00
        <X 95 0
          /wVzZW4k
        >
        E 0 90 36 6b
        E 514 80 36 00
        <X 508 0
          /wVtw6Qk
        >
        E 0 90 3a 6b
        E 110 80 3a 00
        <X 132 0
          /wVvLSQ=
        >
        E 0 90 38 6b
        E 206 80 38 00
        <X 91 0
          /wVwaW4k
        >
        E 0 90 3a 6b
        E 305 80 3a 00
        <X 104 0
          /wV0dW4tJA==
        >
        E 0 90 38 66
        E 407 80 38 00
        <X 91 0
          /wV0ZS0k
        >
        E 0 90 36 6a
        E 173 80 36 00
        <X 88 0
          /wVtYWFuJA==
        >
        E 0 90 3a 6e
        E 1349 80 3a 00
        E 78 80 69 00
        E 0 80 74 00
        E 177 90 69 6e
        <X 107 0
          /wVQby0k
        >
        E 0 90 3a 6e
        E 191 80 3a 00
        <X 55 0
          /wVrw6ktJA==
        >
        E 0 90 3d 6e
        E 226 80 3d 00
        <X 65 0
          /wVtb24k
        >
        E 0 90 3f 6e
        E 301 80 3f 00
        <X 322 0
          /wVvLSQ=
        >
        E 0 90 3a 6b
        E 161 80 3a 00
        <X 49 0
          /wVtYWstJA==
        >
        E 0 90 3c 6b
        E 144 80 3c 00
        <X 79 0
          /wVzZS0k
        >
        E 0 90 3d 6b
        E 295 80 3d 00
        <X 73 0
          /wVuaSQ=
        >
        E 0 90 3f 6b
        E 187 80 3f 00
        <X 142 0
          /wVzYWFuJA==
        >
        E 0 90 3f 6b
        E 1113 80 3f 00
        E 632 80 69 00
        E 814 90 69 6e
        <X 326 0
          /wVNZSQ=
        >
        E 0 90 3f 5e
        E 260 80 3f 00
        <X 86 0
          /wV5aC0k
        >
        E 0 90 40 6c
        E 136 80 40 00
        <X 46 0
          /wVkZXMtJA==
        >
        E 0 90 41 69
        E 123 80 41 00
        <X 73 0
          /wVzw6Qk
        >
        E 0 90 43 61
        E 213 80 43 00
        <X 103 0
          /wV2b2ktJA==
        >
        E 0 90 3f 6b
        E 624 80 3f 00
        <X 76 0
          /wV0ZS0k
        >
        E 0 90 3f 53
        E 159 80 3f 00
        <X 101 0
          /wV0YWFuJA==
        >
        E 0 90 3d 6c
        E 388 80 3d 00
        <X 104 0
          /wVQby0k
        >
        E 0 90 3a 6e
        E 191 80 3a 00
        <X 55 0
          /wVrw6ktJA==
        >
        E 0 90 3d 6e
        E 226 80 3d 00
        <X 65 0
          /wVtb24k
        >
        E 0 90 3f 6e
        E 301 80 3f 00
        E 85 80 69 00
        E 79 90 69 6e
        E 2854 80 69 00
        E 100 90 69 6e
        E 0 90 74 6e
        <X 104 0
          /wVPLSQ=
        >
        E 0 90 36 56
        E 128 80 36 00
        <X 87 0
          /wVsZXQk
        >
        E 0 90 38 56
        E 171 80 38 00
        <X 128 0
          /wVhaS0k
        >
        E 0 90 3a 67
        E 382 80 3a 00
        <X 58 0
          /wVuYSQ=
        >
        E 0 90 3a 64
        E 198 80 3a 00
        <X 54 0
          /wV2aWUtJA==
        >
        E 0 90 38 64
        E 306 80 38 00
        <X 63 0
          /wVyZWwtJA==
        >
        E 0 90 36 65
        E 216 80 36 00
        <X 74 0
          /wVsw6RpbiQ=
        >
        E 0 90 3a 69
        E 1385 80 3a 00
        E 65 80 69 00
        E 0 80 74 00
        E 210 90 69 6e
        <X 60 0
          /wVQby0k
        >
        E 0 90 3a 6e
        E 191 80 3a 00
        <X 55 0
          /wVrw6ktJA==
        >
        E 0 90 3d 6e
        E 208 80 3d 00
        <X 52 0
          /wVtb24k
        >
        E 0 90 3f 6e
        E 301 80 3f 00
        <X 348 0
          /wVvLSQ=
        >
        E 0 90 3a 6b
        E 161 80 3a 00
        <X 49 0
          /wVtYWstJA==
        >
        E 0 90 3c 6b
        E 144 80 3c 00
        <X 79 0
          /wVzZS0k
        >
        E 0 90 3d 6b
        E 295 80 3d 00
        <X 73 0
          /wVuaSQ=
        >
        E 0 90 3f 6b
        E 187 80 3f 00
        <X 142 0
          /wVzYWFuJA==
        >
        E 0 90 3f 6b
        E 1113 80 3f 00
        E 686 80 69 00
        E 850 90 69 6e
        <X 93 0
          /wVOaWluJA==
        >
        E 0 90 3f 6a
        E 353 80 3f 00
        <X 73 0
          /wVyb2gtJA==
        >
        E 0 90 3f 62
        E 264 80 3f 00
        <X 102 0
          /wVrZXVzJA==
        >
        E 0 90 41 64
        E 363 80 41 00
        <X 131 0
          /wVwYWwtJA==
        >
        E 0 90 40 6a
        E 342 80 40 00
        <X 104 0
          /wVrYW4k
        >
        E 0 90 3d 68
        E 314 80 3d 00
        <X 83 0
          /wVzYWEk
        >
        E 0 90 3d 6f
        E 808 80 3d 00
        E 184 80 69 00
        E 134 90 69 6e
        <X 126 0
          /wV1dQ==
        >
        E 0 90 3b 6e
        E 1440 80 3b 00
        <X 510 0
          /wUr
        >
        E 0 90 36 6e
        E 1410 80 36 00
        E 73 80 69 00
        E 156 90 69 6e
        <X 236 0
          /wVQby0k
        >
        E 0 90 42 69
        E 682 80 42 00
        <X 79 0
          /wVrw6ktJA==
        >
        E 0 90 40 66
        E 626 80 40 00
        <X 85 0
          /wVtb24k
        >
        E 0 90 42 6b
        E 765 80 42 00
        <X 196 0
          /wVvLSQ=
        >
        E 0 90 3a 67
        E 208 80 3a 00
        <X 49 0
          /wVtYWstJA==
        >
        E 0 90 3a 67
        E 177 80 3a 00
        <X 54 0
          /wVzZS0k
        >
        E 0 90 3d 67
        E 208 80 3d 00
        <X 51 0
          /wVuaSQ=
        >
        E 0 90 40 67
        E 180 80 40 00
        <X 79 0
          /wVzYWFuJA==
        >
        E 0 90 3f 67
        E 583 80 3f 00
        E 101 80 69 00
        E 103 90 69 6e
        <X 2003 0
          /wVQby0k
        >
        E 0 90 3a 6e
        E 191 80 3a 00
        <X 55 0
          /wVrw6ktJA==
        >
        E 0 90 3d 6e
        E 227 80 3d 00
        <X 65 0
          /wVtb24k
        >
        E 0 90 3f 6e
        E 301 80 3f 00
        E 372 80 69 00
        <X 108 0
          /wFbaWRsZV9yZWFsdGltZV0=
        >
        E 2859 b0 7b 00
        GUID {F1082209-E2A8-4526-8AA6-2FE8F2DEB335}
        IGNTEMPO 0 120.00000000 4 4
        SRCCOLOR 1403
        VELLANE 132 128 60
        COLORMAP "C:\Users\me\AppData\Roaming\REAPER\Data\color_maps\rockband_vox-other.png"
        TEXTSTRINGFILE "C:\Program Files\REAPER\Data\Text_Strings\Text Events List.txt"
        CFGEDITVIEW 32338.076539 260.930860 17 12 0 0 0
        CFGEDIT 1 1 0 1 1 1 1 1 1 1 1 0.06250000 -8 -8 1374 736 1 2 1 2 0.00000000 0 0 0 0 0.500000 1 0 1.000000 64
        KEYSNAP 0 0 "102034050607" 0 "Major"
        EVTFILTER 0 -1 -1 -1 -1 0 1 0 0 -1.00000000 -1.00000000
      >
    >
  >
  <TRACK '{AB3E8FDC-23A9-4945-BA6C-055C630028D0}'
    NAME "DRYVOX3"
    PEAKCOL 16576
    BEAT -1
    AUTOMODE 0
    VOLPAN 1.00000000000000 0.00000000000000 -1.00000000000000 -1.00000000000000 1.00000000000000
    MUTESOLO 1 0 0
    IPHASE 0
    ISBUS 0 0
    BUSCOMP 0 0
    SHOWINMIX 1 0.666700 0.500000 1 0.500000 -1 -1 -1
    FREEMODE 0
    SEL 0
    REC 0 0 0 0 0 0 0
    TRACKHEIGHT 24 0
    INQ 0 0 0 0.5000000000 100 0 0 100
    NCHAN 2
    FX 1
    TRACKID {AB3E8FDC-23A9-4945-BA6C-055C630028D0}
    PERF 0
    MIDIOUT -1
    MAINSEND 1 0
    <FXCHAIN
      SHOW 0
      LASTSEL 0
      DOCKED 0
      BYPASS 0 0
      <VST "VST: ReaGate (Cockos)" "reagate.dll" 0 ""
        dGdlcu9e7f4EAAAAAQAAAAAAAAACAAAAAAAAAAQAAAAAAAAACAAAAA==
        AAAAAAIAAAABAAAAAAAAAAIAAAAAAAAAVAAAAAAAAAAAABAA776t3g==
        DfCt3pzRBzOmm8Q7CtejPAAAAAAAAAAAAACAPwAAAAAAAAAAAAAAAA==
        nNEHMx5Ucz+c0QczAACAPwAAAAAAAAAAAAAAACwWCz8AAAAAAAAAAA==
        AAAQAAAA
      >
      FLOATPOS 859 184 511 385
      FXID {BF545B5B-7DD0-4B4C-AC52-F095A552DA08}
      WAK 0
    >
  >
  <TRACK '{DA8DC229-8642-4CDA-8FA2-EF692C852142}'
    NAME "primevideopokmonsarjaalkukausi2-keys-G minor-145bpm-440hz"
    PEAKCOL 16576
    BEAT -1
    AUTOMODE 0
    VOLPAN 1.00000000000000 0.00000000000000 -1.00000000000000 -1.00000000000000 1.00000000000000
    MUTESOLO 0 0 0
    IPHASE 0
    ISBUS 0 0
    BUSCOMP 0 0
    SHOWINMIX 1 0.666700 0.500000 1 0.500000 -1 -1 -1
    FREEMODE 0
    SEL 0
    REC 0 0 0 0 0 0 0
    VU 2
    TRACKHEIGHT 122 0
    INQ 0 0 0 0.5000000000 100 0 0 100
    NCHAN 2
    FX 1
    TRACKID {DA8DC229-8642-4CDA-8FA2-EF692C852142}
    PERF 0
    MIDIOUT -1
    MAINSEND 1 0
    <ITEM
      POSITION 2.62765604676679
      SNAPOFFS 0.00000000000000
      LENGTH 61.88512471655329
      LOOP 0
      ALLTAKES 0
      SEL 0
      FADEIN 1 0.000000 0.000000 1 0
      FADEOUT 1 0.000000 0.000000 1 0
      MUTE 0
      IGUID {45850910-AF9D-48D8-B095-48BCAC7A7BB3}
      IID 110
      NAME "primevideopokmonsarjaalkukausi2-keys-G minor-145bpm-440hz.mp3"
      VOLPAN 1.000000 0.000000 1.000000 -1.000000
      SOFFS 0.00000000000000
      PLAYRATE 1.00000000000000 1 0.00000000000000 -1
      CHANMODE 0
      GUID {3ABBA878-26EF-4A37-B6B5-A63DE89EE2C5}
      <SOURCE MP3
        FILE "primevideopokmonsarjaalkukausi2-keys-G minor-145bpm-440hz.mp3" 1
      >
    >
  >
  <TRACK '{14F64FB7-FE44-4E53-9F58-44F4178BCEF9}'
    NAME "PART KEYS"
    PEAKCOL 16842496
    BEAT -1
    AUTOMODE 0
    VOLPAN 1.00000000000000 0.00000000000000 -1.00000000000000 -1.00000000000000 1.00000000000000
    MUTESOLO 0 0 0
    IPHASE 0
    ISBUS 1 1
    BUSCOMP 0 0
    SHOWINMIX 1 0.666700 0.500000 1 0.500000 -1 -1 -1
    FREEMODE 0
    SEL 0
    REC 0 0 0 0 0 0 0
    TRACKHEIGHT 108 0
    INQ 0 0 0 0.5000000000 100 0 0 100
    NCHAN 2
    FX 1
    TRACKID {14F64FB7-FE44-4E53-9F58-44F4178BCEF9}
    PERF 0
    MIDIOUT -1
    <MIDINOTENAMES
      0 124 "BRE"
      0 123 "BRE"
      0 122 "BRE"
      0 121 "BRE"
      0 120 "BRE (use all 5)"
      0 116 "OVERDRIVE"
      0 119 "----"
      0 115 "----"
      0 103 "Solo Marker"
      0 95 "----"
      0 96 "EXPERT Green"
      0 97 "EXPERT Red"
      0 98 "EXPERT Yellow"
      0 99 "EXPERT Blue"
      0 100 "EXPERT Orange"
      0 102 "Force HoPo off"
      0 83 "----"
      0 84 "HARD Green"
      0 85 "HARD Red"
      0 86 "HARD Yellow"
      0 87 "HARD Blue"
      0 88 "HARD Orange"
      0 72 "MEDIUM Green"
      0 73 "MEDIUM Red"
      0 74 "MEDIUM Yellow"
      0 75 "MEDIUM Blue"
      0 76 "MEDIUM Orange"
      0 71 "----"
      0 64 "EASY Orange"
      0 63 "EASY Blue"
      0 62 "EASY Yellow"
      0 61 "EASY Red"
      0 60 "EASY Green"
      0 127 "Trill Marker"
      0 126 "----"
      0 101 "Force HoPo on"
    >
    MAINSEND 1 0
    <FXCHAIN
      WNDRECT 0 40 878 585
      SHOW 0
      LASTSEL 0
      DOCKED 0
      BYPASS 0 0
      <VST "VSTi: RBN Preview (RBN)" "rbprev_vst64_beta.dll" 0 ""
        dnBicu5e7f4AAAAAAgAAAAEAAAAAAAAAAgAAAAAAAAAEAAAAAQAAAA==
        AAAAAAMAqgAAAAAAAAA=
      >
      FLOATPOS 0 0 0 0
      FXID {EE0C80EE-5E5F-4EA2-B367-78AAAB3793F5}
      WAK 0
    >
    <ITEM
      POSITION 0.00000000000000
      SNAPOFFS 0.00000000000000
      LENGTH 65.21492178400015
      LOOP 0
      ALLTAKES 0
      SEL 0
      FADEIN 1 0.000000 0.000000 1 0
      FADEOUT 1 0.000000 0.000000 1 0
      MUTE 0
      IGUID {52D9F6AC-16AD-4CE9-95E4-6AD6396BB4E2}
      IID 14
      NAME "PART KEYS"
      VOLPAN 1.000000 0.000000 1.000000 -1.000000
      SOFFS 0.00000000000000 0.00000000000000
      PLAYRATE 1.00000000000000 1 0.00000000000000 -65536
      CHANMODE 0
      GUID {78E1CCBD-C30B-4DD8-81CD-2AEB0D2D38C8}
      <SOURCE MIDI
        HASDATA 1 480 QN
        POOLEDEVTS {270B5966-6792-45AF-AF24-FDD9FAE327F2}
        <X 0 0
          /wNQQVJUIEtFWVM=
        >
        <X 3840 0
          /wFbcGxheV0=
        >
        E 0 90 3e 60
        E 0 90 49 60
        E 0 90 4b 60
        E 0 90 55 60
        E 0 90 57 60
        E 0 90 61 60
        E 0 90 62 60
        E 0 90 63 60
        E 60 80 3e 00
        E 0 80 49 00
        E 0 80 4b 00
        E 0 80 55 00
        E 0 80 57 00
        E 0 80 61 00
        E 0 80 62 00
        E 0 80 63 00
        E 180 90 49 60
        E 0 90 4b 60
        E 0 90 55 60
        E 0 90 57 60
        E 0 90 61 60
        E 0 90 62 60
        E 0 90 63 60
        E 60 80 49 00
        E 0 80 4b 00
        E 0 80 55 00
        E 0 80 57 00
        E 0 80 61 00
        E 0 80 62 00
        E 0 80 63 00
        E 180 90 3e 60
        E 0 90 49 60
        E 0 90 4b 60
        E 0 90 55 60
        E 0 90 57 60
        E 0 90 61 60
        E 0 90 62 60
        E 0 90 63 60
        E 60 80 3e 00
        E 0 80 49 00
        E 0 80 4b 00
        E 0 80 55 00
        E 0 80 57 00
        E 0 80 61 00
        E 0 80 62 00
        E 0 80 63 00
        E 180 90 49 60
        E 0 90 4b 60
        E 0 90 55 60
        E 0 90 57 60
        E 0 90 61 60
        E 0 90 62 60
        E 0 90 63 60
        E 60 80 49 00
        E 0 80 4b 00
        E 0 80 55 00
        E 0 80 57 00
        E 0 80 61 00
        E 0 80 62 00
        E 0 80 63 00
        E 180 90 3e 60
        E 0 90 49 60
        E 0 90 4b 60
        E 0 90 55 60
        E 0 90 57 60
        E 0 90 61 60
        E 0 90 62 60
        E 0 90 63 60
        E 60 80 3e 00
        E 0 80 49 00
        E 0 80 4b 00
        E 0 80 55 00
        E 0 80 57 00
        E 0 80 61 00
        E 0 80 62 00
        E 0 80 63 00
        E 180 90 49 60
        E 0 90 4b 60
        E 0 90 55 60
        E 0 90 57 60
        E 0 90 61 60
        E 0 90 62 60
        E 0 90 63 60
        E 60 80 49 00
        E 0 80 4b 00
        E 0 80 55 00
        E 0 80 57 00
        E 0 80 61 00
        E 0 80 62 00
        E 0 80 63 00
        E 180 90 49 60
        E 0 90 4b 60
        E 0 90 55 60
        E 0 90 57 60
        E 0 90 61 60
        E 0 90 62 60
        E 0 90 63 60
        E 60 80 49 00
        E 0 80 4b 00
        E 0 80 55 00
        E 0 80 57 00
        E 0 80 61 00
        E 0 80 62 00
        E 0 80 63 00
        E 180 90 54 60
        E 0 90 56 60
        E 0 90 60 60
        E 0 90 61 60
        E 0 90 63 60
        E 60 80 54 00
        E 0 80 56 00
        E 0 80 60 00
        E 0 80 61 00
        E 0 80 63 00
        E 180 90 3d 60
        E 0 90 48 60
        E 0 90 4a 60
        E 0 90 54 60
        E 0 90 56 60
        E 0 90 60 60
        E 0 90 61 60
        E 0 90 63 60
        E 60 80 3d 00
        E 0 80 48 00
        E 0 80 4a 00
        E 0 80 54 00
        E 0 80 56 00
        E 0 80 60 00
        E 0 80 61 00
        E 0 80 63 00
        E 180 90 48 60
        E 0 90 4a 60
        E 0 90 54 60
        E 0 90 56 60
        E 0 90 60 60
        E 0 90 61 60
        E 0 90 63 60
        E 60 80 48 00
        E 0 80 4a 00
        E 0 80 54 00
        E 0 80 56 00
        E 0 80 60 00
        E 0 80 61 00
        E 0 80 63 00
        E 180 90 3d 60
        E 0 90 48 60
        E 0 90 4a 60
        E 0 90 54 60
        E 0 90 56 60
        E 0 90 60 60
        E 0 90 61 60
        E 0 90 63 60
        E 60 80 3d 00
        E 0 80 48 00
        E 0 80 4a 00
        E 0 80 54 00
        E 0 80 56 00
        E 0 80 60 00
        E 0 80 61 00
        E 0 80 63 00
        E 180 90 48 60
        E 0 90 4a 60
        E 0 90 54 60
        E 0 90 56 60
        E 0 90 60 60
        E 0 90 61 60
        E 0 90 63 60
        E 60 80 48 00
        E 0 80 4a 00
        E 0 80 54 00
        E 0 80 56 00
        E 0 80 60 00
        E 0 80 61 00
        E 0 80 63 00
        E 180 90 3d 60
        E 0 90 48 60
        E 0 90 4a 60
        E 0 90 54 60
        E 0 90 56 60
        E 0 90 60 60
        E 0 90 61 60
        E 0 90 63 60
        E 60 80 3d 00
        E 0 80 48 00
        E 0 80 4a 00
        E 0 80 54 00
        E 0 80 56 00
        E 0 80 60 00
        E 0 80 61 00
        E 0 80 63 00
        E 180 90 48 60
        E 0 90 4a 60
        E 0 90 54 60
        E 0 90 56 60
        E 0 90 60 60
        E 0 90 61 60
        E 0 90 63 60
        E 60 80 48 00
        E 0 80 4a 00
        E 0 80 54 00
        E 0 80 56 00
        E 0 80 60 00
        E 0 80 61 00
        E 0 80 63 00
        E 180 90 48 60
        E 0 90 4a 60
        E 0 90 54 60
        E 0 90 56 60
        E 0 90 60 60
        E 0 90 61 60
        E 0 90 63 60
        E 60 80 48 00
        E 0 80 4a 00
        E 0 80 54 00
        E 0 80 56 00
        E 0 80 60 00
        E 0 80 61 00
        E 0 80 63 00
        E 180 90 54 60
        E 0 90 56 60
        E 0 90 60 60
        E 0 90 61 60
        E 0 90 63 60
        E 60 80 54 00
        E 0 80 56 00
        E 0 80 60 00
        E 0 80 61 00
        E 0 80 63 00
        E 180 90 3e 60
        E 0 90 49 60
        E 0 90 4b 60
        E 0 90 55 60
        E 0 90 57 60
        E 0 90 61 60
        E 0 90 62 60
        E 0 90 63 60
        E 60 80 3e 00
        E 0 80 49 00
        E 0 80 4b 00
        E 0 80 55 00
        E 0 80 57 00
        E 0 80 61 00
        E 0 80 62 00
        E 0 80 63 00
        E 180 90 49 60
        E 0 90 4b 60
        E 0 90 55 60
        E 0 90 57 60
        E 0 90 61 60
        E 0 90 62 60
        E 0 90 63 60
        E 60 80 49 00
        E 0 80 4b 00
        E 0 80 55 00
        E 0 80 57 00
        E 0 80 61 00
        E 0 80 62 00
        E 0 80 63 00
        E 180 90 3e 60
        E 0 90 49 60
        E 0 90 4b 60
        E 0 90 55 60
        E 0 90 57 60
        E 0 90 61 60
        E 0 90 62 60
        E 0 90 63 60
        E 60 80 3e 00
        E 0 80 49 00
        E 0 80 4b 00
        E 0 80 55 00
        E 0 80 57 00
        E 0 80 61 00
        E 0 80 62 00
        E 0 80 63 00
        E 180 90 49 60
        E 0 90 4b 60
        E 0 90 55 60
        E 0 90 57 60
        E 0 90 61 60
        E 0 90 62 60
        E 0 90 63 60
        E 60 80 49 00
        E 0 80 4b 00
        E 0 80 55 00
        E 0 80 57 00
        E 0 80 61 00
        E 0 80 62 00
        E 0 80 63 00
        E 180 90 3e 60
        E 0 90 49 60
        E 0 90 4b 60
        E 0 90 55 60
        E 0 90 57 60
        E 0 90 61 60
        E 0 90 62 60
        E 0 90 63 60
        E 60 80 3e 00
        E 0 80 49 00
        E 0 80 4b 00
        E 0 80 55 00
        E 0 80 57 00
        E 0 80 61 00
        E 0 80 62 00
        E 0 80 63 00
        E 180 90 49 60
        E 0 90 4b 60
        E 0 90 55 60
        E 0 90 57 60
        E 0 90 61 60
        E 0 90 62 60
        E 0 90 63 60
        E 60 80 49 00
        E 0 80 4b 00
        E 0 80 55 00
        E 0 80 57 00
        E 0 80 61 00
        E 0 80 62 00
        E 0 80 63 00
        E 180 90 49 60
        E 0 90 4b 60
        E 0 90 55 60
        E 0 90 57 60
        E 0 90 61 60
        E 0 90 62 60
        E 0 90 63 60
        E 60 80 49 00
        E 0 80 4b 00
        E 0 80 55 00
        E 0 80 57 00
        E 0 80 61 00
        E 0 80 62 00
        E 0 80 63 00
        E 180 90 55 60
        E 0 90 57 60
        E 0 90 61 60
        E 0 90 62 60
        E 0 90 63 60
        E 60 80 55 00
        E 0 80 57 00
        E 0 80 61 00
        E 0 80 62 00
        E 0 80 63 00
        E 180 90 3d 60
        E 0 90 48 60
        E 0 90 4a 60
        E 0 90 54 60
        E 0 90 56 60
        E 0 90 60 60
        E 0 90 61 60
        E 0 90 63 60
        E 60 80 3d 00
        E 0 80 48 00
        E 0 80 4a 00
        E 0 80 54 00
        E 0 80 56 00
        E 0 80 60 00
        E 0 80 61 00
        E 0 80 63 00
        E 180 90 48 60
        E 0 90 4a 60
        E 0 90 54 60
        E 0 90 56 60
        E 0 90 60 60
        E 0 90 61 60
        E 0 90 63 60
        E 60 80 48 00
        E 0 80 4a 00
        E 0 80 54 00
        E 0 80 56 00
        E 0 80 60 00
        E 0 80 61 00
        E 0 80 63 00
        E 180 90 3d 60
        E 0 90 48 60
        E 0 90 4a 60
        E 0 90 54 60
        E 0 90 56 60
        E 0 90 60 60
        E 0 90 61 60
        E 0 90 63 60
        E 60 80 3d 00
        E 0 80 48 00
        E 0 80 4a 00
        E 0 80 54 00
        E 0 80 56 00
        E 0 80 60 00
        E 0 80 61 00
        E 0 80 63 00
        E 180 90 48 60
        E 0 90 4a 60
        E 0 90 54 60
        E 0 90 56 60
        E 0 90 60 60
        E 0 90 61 60
        E 0 90 63 60
        E 60 80 48 00
        E 0 80 4a 00
        E 0 80 54 00
        E 0 80 56 00
        E 0 80 60 00
        E 0 80 61 00
        E 0 80 63 00
        E 180 90 3d 60
        E 0 90 48 60
        E 0 90 4a 60
        E 0 90 54 60
        E 0 90 56 60
        E 0 90 60 60
        E 0 90 61 60
        E 0 90 63 60
        E 60 80 3d 00
        E 0 80 48 00
        E 0 80 4a 00
        E 0 80 54 00
        E 0 80 56 00
        E 0 80 60 00
        E 0 80 61 00
        E 0 80 63 00
        E 180 90 48 60
        E 0 90 4a 60
        E 0 90 54 60
        E 0 90 56 60
        E 0 90 60 60
        E 0 90 61 60
        E 0 90 63 60
        E 60 80 48 00
        E 0 80 4a 00
        E 0 80 54 00
        E 0 80 56 00
        E 0 80 60 00
        E 0 80 61 00
        E 0 80 63 00
        E 180 90 48 60
        E 0 90 4a 60
        E 0 90 54 60
        E 0 90 56 60
        E 0 90 60 60
        E 0 90 61 60
        E 0 90 63 60
        E 60 80 48 00
        E 0 80 4a 00
        E 0 80 54 00
        E 0 80 56 00
        E 0 80 60 00
        E 0 80 61 00
        E 0 80 63 00
        E 180 90 54 60
        E 0 90 56 60
        E 0 90 60 60
        E 0 90 61 60
        E 0 90 63 60
        E 60 80 54 00
        E 0 80 56 00
        E 0 80 60 00
        E 0 80 61 00
        E 0 80 63 00
        E 180 90 3e 60
        E 0 90 49 60
        E 0 90 4b 60
        E 0 90 55 60
        E 0 90 57 60
        E 0 90 61 60
        E 0 90 62 60
        E 0 90 63 60
        E 60 80 3e 00
        E 0 80 49 00
        E 0 80 4b 00
        E 0 80 55 00
        E 0 80 57 00
        E 0 80 61 00
        E 0 80 62 00
        E 0 80 63 00
        E 180 90 49 60
        E 0 90 4b 60
        E 0 90 55 60
        E 0 90 57 60
        E 0 90 61 60
        E 0 90 62 60
        E 0 90 63 60
        E 60 80 49 00
        E 0 80 4b 00
        E 0 80 55 00
        E 0 80 57 00
        E 0 80 61 00
        E 0 80 62 00
        E 0 80 63 00
        E 180 90 3e 60
        E 0 90 49 60
        E 0 90 4b 60
        E 0 90 55 60
        E 0 90 57 60
        E 0 90 61 60
        E 0 90 62 60
        E 0 90 63 60
        E 60 80 3e 00
        E 0 80 49 00
        E 0 80 4b 00
        E 0 80 55 00
        E 0 80 57 00
        E 0 80 61 00
        E 0 80 62 00
        E 0 80 63 00
        E 180 90 49 60
        E 0 90 4b 60
        E 0 90 55 60
        E 0 90 57 60
        E 0 90 61 60
        E 0 90 62 60
        E 0 90 63 60
        E 60 80 49 00
        E 0 80 4b 00
        E 0 80 55 00
        E 0 80 57 00
        E 0 80 61 00
        E 0 80 62 00
        E 0 80 63 00
        E 180 90 3e 60
        E 0 90 49 60
        E 0 90 4b 60
        E 0 90 55 60
        E 0 90 57 60
        E 0 90 61 60
        E 0 90 62 60
        E 0 90 63 60
        E 60 80 3e 00
        E 0 80 49 00
        E 0 80 4b 00
        E 0 80 55 00
        E 0 80 57 00
        E 0 80 61 00
        E 0 80 62 00
        E 0 80 63 00
        E 180 90 49 60
        E 0 90 4b 60
        E 0 90 55 60
        E 0 90 57 60
        E 0 90 61 60
        E 0 90 62 60
        E 0 90 63 60
        E 60 80 49 00
        E 0 80 4b 00
        E 0 80 55 00
        E 0 80 57 00
        E 0 80 61 00
        E 0 80 62 00
        E 0 80 63 00
        E 180 90 49 60
        E 0 90 4b 60
        E 0 90 55 60
        E 0 90 57 60
        E 0 90 61 60
        E 0 90 62 60
        E 0 90 63 60
        E 60 80 49 00
        E 0 80 4b 00
        E 0 80 55 00
        E 0 80 57 00
        E 0 80 61 00
        E 0 80 62 00
        E 0 80 63 00
        E 180 90 55 60
        E 0 90 57 60
        E 0 90 61 60
        E 0 90 62 60
        E 0 90 63 60
        E 60 80 55 00
        E 0 80 57 00
        E 0 80 61 00
        E 0 80 62 00
        E 0 80 63 00
        E 180 90 3f 60
        E 0 90 4a 60
        E 0 90 4c 60
        E 0 90 55 60
        E 0 90 58 60
        E 0 90 61 60
        E 0 90 62 60
        E 0 90 64 60
        E 60 80 3f 00
        E 0 80 4a 00
        E 0 80 4c 00
        E 0 80 55 00
        E 0 80 58 00
        E 0 80 61 00
        E 0 80 62 00
        E 0 80 64 00
        E 180 90 4a 60
        E 0 90 4c 60
        E 0 90 55 60
        E 0 90 58 60
        E 0 90 61 60
        E 0 90 62 60
        E 0 90 64 60
        E 60 80 4a 00
        E 0 80 4c 00
        E 0 80 55 00
        E 0 80 58 00
        E 0 80 61 00
        E 0 80 62 00
        E 0 80 64 00
        E 180 90 3f 60
        E 0 90 4a 60
        E 0 90 4c 60
        E 0 90 55 60
        E 0 90 58 60
        E 0 90 61 60
        E 0 90 62 60
        E 0 90 64 60
        E 60 80 3f 00
        E 0 80 4a 00
        E 0 80 4c 00
        E 0 80 55 00
        E 0 80 58 00
        E 0 80 61 00
        E 0 80 62 00
        E 0 80 64 00
        E 180 90 4a 60
        E 0 90 4c 60
        E 0 90 55 60
        E 0 90 58 60
        E 0 90 61 60
        E 0 90 62 60
        E 0 90 64 60
        E 60 80 4a 00
        E 0 80 4c 00
        E 0 80 55 00
        E 0 80 58 00
        E 0 80 61 00
        E 0 80 62 00
        E 0 80 64 00
        E 180 90 3f 60
        E 0 90 4a 60
        E 0 90 4c 60
        E 0 90 55 60
        E 0 90 58 60
        E 0 90 61 60
        E 0 90 62 60
        E 0 90 64 60
        E 60 80 3f 00
        E 0 80 4a 00
        E 0 80 4c 00
        E 0 80 55 00
        E 0 80 58 00
        E 0 80 61 00
        E 0 80 62 00
        E 0 80 64 00
        E 180 90 4a 60
        E 0 90 4c 60
        E 0 90 55 60
        E 0 90 58 60
        E 0 90 61 60
        E 0 90 62 60
        E 0 90 64 60
        E 60 80 4a 00
        E 0 80 4c 00
        E 0 80 55 00
        E 0 80 58 00
        E 0 80 61 00
        E 0 80 62 00
        E 0 80 64 00
        E 180 90 4a 60
        E 0 90 4c 60
        E 0 90 55 60
        E 0 90 58 60
        E 0 90 61 60
        E 0 90 62 60
        E 0 90 64 60
        E 60 80 4a 00
        E 0 80 4c 00
        E 0 80 55 00
        E 0 80 58 00
        E 0 80 61 00
        E 0 80 62 00
        E 0 80 64 00
        E 180 90 55 60
        E 0 90 58 60
        E 0 90 61 60
        E 0 90 62 60
        E 0 90 64 60
        E 60 80 55 00
        E 0 80 58 00
        E 0 80 61 00
        E 0 80 62 00
        E 0 80 64 00
        E 180 90 3e 60
        E 0 90 49 60
        E 0 90 4b 60
        E 0 90 55 60
        E 0 90 57 60
        E 0 90 61 60
        E 0 90 62 60
        E 0 90 63 60
        E 60 80 3e 00
        E 0 80 49 00
        E 0 80 4b 00
        E 0 80 55 00
        E 0 80 57 00
        E 0 80 61 00
        E 0 80 62 00
        E 0 80 63 00
        E 180 90 49 60
        E 0 90 4b 60
        E 0 90 55 60
        E 0 90 57 60
        E 0 90 61 60
        E 0 90 62 60
        E 0 90 63 60
        E 60 80 49 00
        E 0 80 4b 00
        E 0 80 55 00
        E 0 80 57 00
        E 0 80 61 00
        E 0 80 62 00
        E 0 80 63 00
        E 180 90 3e 60
        E 0 90 49 60
        E 0 90 4b 60
        E 0 90 55 60
        E 0 90 57 60
        E 0 90 61 60
        E 0 90 62 60
        E 0 90 63 60
        E 60 80 3e 00
        E 0 80 49 00
        E 0 80 4b 00
        E 0 80 55 00
        E 0 80 57 00
        E 0 80 61 00
        E 0 80 62 00
        E 0 80 63 00
        E 180 90 49 60
        E 0 90 4b 60
        E 0 90 55 60
        E 0 90 57 60
        E 0 90 61 60
        E 0 90 62 60
        E 0 90 63 60
        E 60 80 49 00
        E 0 80 4b 00
        E 0 80 55 00
        E 0 80 57 00
        E 0 80 61 00
        E 0 80 62 00
        E 0 80 63 00
        E 180 90 3e 60
        E 0 90 49 60
        E 0 90 4b 60
        E 0 90 55 60
        E 0 90 57 60
        E 0 90 61 60
        E 0 90 62 60
        E 0 90 63 60
        E 60 80 3e 00
        E 0 80 49 00
        E 0 80 4b 00
        E 0 80 55 00
        E 0 80 57 00
        E 0 80 61 00
        E 0 80 62 00
        E 0 80 63 00
        E 180 90 49 60
        E 0 90 4b 60
        E 0 90 55 60
        E 0 90 57 60
        E 0 90 61 60
        E 0 90 62 60
        E 0 90 63 60
        E 60 80 49 00
        E 0 80 4b 00
        E 0 80 55 00
        E 0 80 57 00
        E 0 80 61 00
        E 0 80 62 00
        E 0 80 63 00
        E 180 90 49 60
        E 0 90 4b 60
        E 0 90 55 60
        E 0 90 57 60
        E 0 90 61 60
        E 0 90 62 60
        E 0 90 63 60
        E 60 80 49 00
        E 0 80 4b 00
        E 0 80 55 00
        E 0 80 57 00
        E 0 80 61 00
        E 0 80 62 00
        E 0 80 63 00
        E 180 90 55 60
        E 0 90 57 60
        E 0 90 61 60
        E 0 90 62 60
        E 0 90 63 60
        E 60 80 55 00
        E 0 80 57 00
        E 0 80 61 00
        E 0 80 62 00
        E 0 80 63 00
        E 180 90 3d 60
        E 0 90 48 60
        E 0 90 4a 60
        E 0 90 54 60
        E 0 90 56 60
        E 0 90 60 60
        E 0 90 61 60
        E 0 90 63 60
        E 60 80 3d 00
        E 0 80 48 00
        E 0 80 4a 00
        E 0 80 54 00
        E 0 80 56 00
        E 0 80 60 00
        E 0 80 61 00
        E 0 80 63 00
        E 180 90 48 60
        E 0 90 4a 60
        E 0 90 54 60
        E 0 90 56 60
        E 0 90 60 60
        E 0 90 61 60
        E 0 90 63 60
        E 60 80 48 00
        E 0 80 4a 00
        E 0 80 54 00
        E 0 80 56 00
        E 0 80 60 00
        E 0 80 61 00
        E 0 80 63 00
        E 180 90 3d 60
        E 0 90 48 60
        E 0 90 4a 60
        E 0 90 54 60
        E 0 90 56 60
        E 0 90 60 60
        E 0 90 61 60
        E 0 90 63 60
        E 60 80 3d 00
        E 0 80 48 00
        E 0 80 4a 00
        E 0 80 54 00
        E 0 80 56 00
        E 0 80 60 00
        E 0 80 61 00
        E 0 80 63 00
        E 180 90 48 60
        E 0 90 4a 60
        E 0 90 54 60
        E 0 90 56 60
        E 0 90 60 60
        E 0 90 61 60
        E 0 90 63 60
        E 60 80 48 00
        E 0 80 4a 00
        E 0 80 54 00
        E 0 80 56 00
        E 0 80 60 00
        E 0 80 61 00
        E 0 80 63 00
        E 180 90 3d 60
        E 0 90 48 60
        E 0 90 4a 60
        E 0 90 54 60
        E 0 90 56 60
        E 0 90 60 60
        E 0 90 61 60
        E 0 90 63 60
        E 60 80 3d 00
        E 0 80 48 00
        E 0 80 4a 00
        E 0 80 54 00
        E 0 80 56 00
        E 0 80 60 00
        E 0 80 61 00
        E 0 80 63 00
        E 180 90 48 60
        E 0 90 4a 60
        E 0 90 54 60
        E 0 90 56 60
        E 0 90 60 60
        E 0 90 61 60
        E 0 90 63 60
        E 60 80 48 00
        E 0 80 4a 00
        E 0 80 54 00
        E 0 80 56 00
        E 0 80 60 00
        E 0 80 61 00
        E 0 80 63 00
        E 180 90 3d 60
        E 0 90 48 60
        E 0 90 4a 60
        E 0 90 54 60
        E 0 90 56 60
        E 0 90 60 60
        E 0 90 61 60
        E 0 90 63 60
        E 60 80 3d 00
        E 0 80 48 00
        E 0 80 4a 00
        E 0 80 54 00
        E 0 80 56 00
        E 0 80 60 00
        E 0 80 61 00
        E 0 80 63 00
        E 30 90 74 6e
        E 150 90 48 60
        E 0 90 4a 60
        E 0 90 54 60
        E 0 90 56 60
        E 0 90 60 60
        E 0 90 61 60
        E 0 90 63 60
        E 60 80 48 00
        E 0 80 4a 00
        E 0 80 54 00
        E 0 80 56 00
        E 0 80 60 00
        E 0 80 61 00
        E 0 80 63 00
        E 180 90 3d 60
        E 0 90 48 60
        E 0 90 4a 60
        E 0 90 54 60
        E 0 90 56 60
        E 0 90 60 60
        E 0 90 61 60
        E 0 90 63 60
        E 60 80 3d 00
        E 0 80 48 00
        E 0 80 4a 00
        E 0 80 54 00
        E 0 80 56 00
        E 0 80 60 00
        E 0 80 61 00
        E 0 80 63 00
        E 180 90 48 60
        E 0 90 4a 60
        E 0 90 54 60
        E 0 90 56 60
        E 0 90 60 60
        E 0 90 61 60
        E 0 90 63 60
        E 60 80 48 00
        E 0 80 4a 00
        E 0 80 54 00
        E 0 80 56 00
        E 0 80 60 00
        E 0 80 61 00
        E 0 80 63 00
        E 180 90 48 60
        E 0 90 4a 60
        E 0 90 54 60
        E 0 90 56 60
        E 0 90 60 60
        E 0 90 61 60
        E 0 90 63 60
        E 60 80 48 00
        E 0 80 4a 00
        E 0 80 54 00
        E 0 80 56 00
        E 0 80 60 00
        E 0 80 61 00
        E 0 80 63 00
        E 180 90 54 60
        E 0 90 55 60
        E 0 90 60 60
        E 0 90 61 60
        E 0 90 62 60
        E 60 80 54 00
        E 0 80 55 00
        E 0 80 60 00
        E 0 80 61 00
        E 0 80 62 00
        E 180 90 3c 60
        E 0 90 48 60
        E 0 90 49 60
        E 0 90 54 60
        E 0 90 55 60
        E 0 90 60 60
        E 0 90 61 60
        E 0 90 62 60
        E 60 80 3c 00
        E 0 80 48 00
        E 0 80 49 00
        E 0 80 54 00
        E 0 80 55 00
        E 0 80 60 00
        E 0 80 61 00
        E 0 80 62 00
        E 180 90 54 60
        E 0 90 55 60
        E 0 90 60 60
        E 0 90 61 60
        E 0 90 62 60
        E 60 80 54 00
        E 0 80 55 00
        E 0 80 60 00
        E 0 80 61 00
        E 0 80 62 00
        E 180 90 48 60
        E 0 90 49 60
        E 0 90 4a 60
        E 0 90 4b 60
        E 0 90 54 60
        E 0 90 55 60
        E 0 90 56 60
        E 0 90 57 60
        E 0 90 60 60
        E 0 90 61 60
        E 0 90 62 60
        E 0 90 63 60
        E 60 80 48 00
        E 0 80 49 00
        E 0 80 4a 00
        E 0 80 4b 00
        E 0 80 54 00
        E 0 80 55 00
        E 0 80 56 00
        E 0 80 57 00
        E 0 80 60 00
        E 0 80 61 00
        E 0 80 62 00
        E 0 80 63 00
        E 180 90 48 60
        E 0 90 49 60
        E 0 90 4a 60
        E 0 90 4b 60
        E 0 90 54 60
        E 0 90 55 60
        E 0 90 56 60
        E 0 90 57 60
        E 0 90 60 60
        E 0 90 61 60
        E 0 90 62 60
        E 0 90 63 60
        E 60 80 4b 00
        E 0 80 57 00
        E 0 80 63 00
        E 1 80 48 00
        E 0 80 49 00
        E 0 80 4a 00
        E 0 80 54 00
        E 0 80 55 00
        E 0 80 56 00
        E 0 80 60 00
        E 0 80 61 00
        E 0 80 62 00
        E 179 90 3c 60
        E 0 90 3d 60
        E 0 90 3e 60
        E 0 90 3f 60
        E 0 90 48 60
        E 0 90 49 60
        E 0 90 4a 60
        E 0 90 4b 60
        E 0 90 54 60
        E 0 90 55 60
        E 0 90 56 60
        E 0 90 57 60
        E 0 90 60 60
        E 0 90 61 60
        E 0 90 62 60
        E 0 90 63 60
        E 60 80 3c 00
        E 0 80 3d 00
        E 0 80 3e 00
        E 0 80 3f 00
        E 0 80 48 00
        E 0 80 49 00
        E 0 80 4a 00
        E 0 80 4b 00
        E 0 80 54 00
        E 0 80 55 00
        E 0 80 56 00
        E 0 80 57 00
        E 0 80 60 00
        E 0 80 61 00
        E 0 80 62 00
        E 0 80 63 00
        E 180 90 48 60
        E 0 90 49 60
        E 0 90 4a 60
        E 0 90 4b 60
        E 0 90 54 60
        E 0 90 55 60
        E 0 90 56 60
        E 0 90 57 60
        E 0 90 60 60
        E 0 90 61 60
        E 0 90 62 60
        E 0 90 63 60
        E 60 80 48 00
        E 0 80 49 00
        E 0 80 4a 00
        E 0 80 4b 00
        E 0 80 54 00
        E 0 80 55 00
        E 0 80 56 00
        E 0 80 57 00
        E 0 80 60 00
        E 0 80 61 00
        E 0 80 62 00
        E 0 80 63 00
        E 180 90 3c 60
        E 0 90 3d 60
        E 0 90 3e 60
        E 0 90 3f 60
        E 0 90 48 60
        E 0 90 49 60
        E 0 90 4a 60
        E 0 90 4b 60
        E 0 90 54 60
        E 0 90 55 60
        E 0 90 56 60
        E 0 90 57 60
        E 0 90 60 60
        E 0 90 61 60
        E 0 90 62 60
        E 0 90 63 60
        E 60 80 3c 00
        E 0 80 3d 00
        E 0 80 3e 00
        E 0 80 3f 00
        E 0 80 48 00
        E 0 80 49 00
        E 0 80 4a 00
        E 0 80 4b 00
        E 0 80 54 00
        E 0 80 55 00
        E 0 80 56 00
        E 0 80 57 00
        E 0 80 60 00
        E 0 80 61 00
        E 0 80 62 00
        E 0 80 63 00
        E 180 90 48 60
        E 0 90 49 60
        E 0 90 4a 60
        E 0 90 4b 60
        E 0 90 54 60
        E 0 90 55 60
        E 0 90 56 60
        E 0 90 57 60
        E 0 90 60 60
        E 0 90 61 60
        E 0 90 62 60
        E 0 90 63 60
        E 60 80 48 00
        E 0 80 49 00
        E 0 80 4a 00
        E 0 80 4b 00
        E 0 80 54 00
        E 0 80 55 00
        E 0 80 56 00
        E 0 80 57 00
        E 0 80 60 00
        E 0 80 61 00
        E 0 80 62 00
        E 0 80 63 00
        E 124 80 74 00
        E 56 90 3c 60
        E 0 90 3d 60
        E 0 90 3e 60
        E 0 90 3f 60
        E 0 90 48 60
        E 0 90 49 60
        E 0 90 4a 60
        E 0 90 4b 60
        E 0 90 54 60
        E 0 90 55 60
        E 0 90 56 60
        E 0 90 57 60
        E 0 90 60 60
        E 0 90 61 60
        E 0 90 62 60
        E 0 90 63 60
        E 60 80 3c 00
        E 0 80 3d 00
        E 0 80 3e 00
        E 0 80 3f 00
        E 0 80 48 00
        E 0 80 49 00
        E 0 80 4a 00
        E 0 80 4b 00
        E 0 80 54 00
        E 0 80 55 00
        E 0 80 56 00
        E 0 80 57 00
        E 0 80 60 00
        E 0 80 61 00
        E 0 80 62 00
        E 0 80 63 00
        E 180 90 48 60
        E 0 90 49 60
        E 0 90 4a 60
        E 0 90 4b 60
        E 0 90 54 60
        E 0 90 55 60
        E 0 90 56 60
        E 0 90 57 60
        E 0 90 60 60
        E 0 90 61 60
        E 0 90 62 60
        E 0 90 63 60
        E 60 80 48 00
        E 0 80 49 00
        E 0 80 4a 00
        E 0 80 4b 00
        E 0 80 54 00
        E 0 80 55 00
        E 0 80 56 00
        E 0 80 57 00
        E 0 80 60 00
        E 0 80 61 00
        E 0 80 62 00
        E 0 80 63 00
        E 180 90 48 60
        E 0 90 49 60
        E 0 90 4a 60
        E 0 90 4b 60
        E 0 90 54 60
        E 0 90 55 60
        E 0 90 56 60
        E 0 90 57 60
        E 0 90 60 60
        E 0 90 61 60
        E 0 90 62 60
        E 0 90 63 60
        E 60 80 48 00
        E 0 80 49 00
        E 0 80 4a 00
        E 0 80 4b 00
        E 0 80 54 00
        E 0 80 55 00
        E 0 80 56 00
        E 0 80 57 00
        E 0 80 60 00
        E 0 80 61 00
        E 0 80 62 00
        E 0 80 63 00
        E 180 90 54 60
        E 0 90 55 60
        E 0 90 56 60
        E 0 90 57 60
        E 0 90 60 60
        E 0 90 61 60
        E 0 90 62 60
        E 0 90 63 60
        E 60 80 54 00
        E 0 80 55 00
        E 0 80 56 00
        E 0 80 57 00
        E 0 80 60 00
        E 0 80 61 00
        E 0 80 62 00
        E 0 80 63 00
        E 180 90 3e 60
        E 0 90 49 60
        E 0 90 4b 60
        E 0 90 55 60
        E 0 90 57 60
        E 0 90 61 60
        E 0 90 62 60
        E 0 90 63 60
        E 60 80 3e 00
        E 0 80 49 00
        E 0 80 4b 00
        E 0 80 55 00
        E 0 80 57 00
        E 0 80 61 00
        E 0 80 62 00
        E 0 80 63 00
        E 180 90 49 60
        E 0 90 4b 60
        E 0 90 55 60
        E 0 90 57 60
        E 0 90 61 60
        E 0 90 62 60
        E 0 90 63 60
        E 60 80 49 00
        E 0 80 4b 00
        E 0 80 55 00
        E 0 80 57 00
        E 0 80 61 00
        E 0 80 62 00
        E 0 80 63 00
        E 180 90 3e 60
        E 0 90 49 60
        E 0 90 4b 60
        E 0 90 55 60
        E 0 90 57 60
        E 0 90 61 60
        E 0 90 62 60
        E 0 90 63 60
        E 60 80 3e 00
        E 0 80 49 00
        E 0 80 4b 00
        E 0 80 55 00
        E 0 80 57 00
        E 0 80 61 00
        E 0 80 62 00
        E 0 80 63 00
        E 180 90 49 60
        E 0 90 4b 60
        E 0 90 55 60
        E 0 90 57 60
        E 0 90 61 60
        E 0 90 62 60
        E 0 90 63 60
        E 60 80 49 00
        E 0 80 4b 00
        E 0 80 55 00
        E 0 80 57 00
        E 0 80 61 00
        E 0 80 62 00
        E 0 80 63 00
        E 180 90 3e 60
        E 0 90 49 60
        E 0 90 4b 60
        E 0 90 55 60
        E 0 90 57 60
        E 0 90 61 60
        E 0 90 62 60
        E 0 90 63 60
        E 60 80 3e 00
        E 0 80 49 00
        E 0 80 4b 00
        E 0 80 55 00
        E 0 80 57 00
        E 0 80 61 00
        E 0 80 62 00
        E 0 80 63 00
        E 180 90 49 60
        E 0 90 4b 60
        E 0 90 55 60
        E 0 90 57 60
        E 0 90 61 60
        E 0 90 62 60
        E 0 90 63 60
        E 60 80 49 00
        E 0 80 4b 00
        E 0 80 55 00
        E 0 80 57 00
        E 0 80 61 00
        E 0 80 62 00
        E 0 80 63 00
        E 180 90 49 60
        E 0 90 4b 60
        E 0 90 55 60
        E 0 90 57 60
        E 0 90 61 60
        E 0 90 62 60
        E 0 90 63 60
        E 60 80 49 00
        E 0 80 4b 00
        E 0 80 55 00
        E 0 80 57 00
        E 0 80 61 00
        E 0 80 62 00
        E 0 80 63 00
        E 180 90 55 60
        E 0 90 57 60
        E 0 90 61 60
        E 0 90 62 60
        E 0 90 63 60
        E 60 80 55 00
        E 0 80 57 00
        E 0 80 61 00
        E 0 80 62 00
        E 0 80 63 00
        E 180 90 3d 60
        E 0 90 48 60
        E 0 90 4a 60
        E 0 90 54 60
        E 0 90 56 60
        E 0 90 60 60
        E 0 90 61 60
        E 0 90 63 60
        E 60 80 3d 00
        E 0 80 48 00
        E 0 80 4a 00
        E 0 80 54 00
        E 0 80 56 00
        E 0 80 60 00
        E 0 80 61 00
        E 0 80 63 00
        E 180 90 48 60
        E 0 90 4a 60
        E 0 90 54 60
        E 0 90 56 60
        E 0 90 60 60
        E 0 90 61 60
        E 0 90 63 60
        E 60 80 48 00
        E 0 80 4a 00
        E 0 80 54 00
        E 0 80 56 00
        E 0 80 60 00
        E 0 80 61 00
        E 0 80 63 00
        E 180 90 3d 60
        E 0 90 48 60
        E 0 90 4a 60
        E 0 90 54 60
        E 0 90 56 60
        E 0 90 60 60
        E 0 90 61 60
        E 0 90 63 60
        E 60 80 3d 00
        E 0 80 48 00
        E 0 80 4a 00
        E 0 80 54 00
        E 0 80 56 00
        E 0 80 60 00
        E 0 80 61 00
        E 0 80 63 00
        E 180 90 48 60
        E 0 90 4a 60
        E 0 90 54 60
        E 0 90 56 60
        E 0 90 60 60
        E 0 90 61 60
        E 0 90 63 60
        E 60 80 48 00
        E 0 80 4a 00
        E 0 80 54 00
        E 0 80 56 00
        E 0 80 60 00
        E 0 80 61 00
        E 0 80 63 00
        E 180 90 3d 60
        E 0 90 48 60
        E 0 90 4a 60
        E 0 90 54 60
        E 0 90 56 60
        E 0 90 60 60
        E 0 90 61 60
        E 0 90 63 60
        E 60 80 3d 00
        E 0 80 48 00
        E 0 80 4a 00
        E 0 80 54 00
        E 0 80 56 00
        E 0 80 60 00
        E 0 80 61 00
        E 0 80 63 00
        E 180 90 48 60
        E 0 90 4a 60
        E 0 90 54 60
        E 0 90 56 60
        E 0 90 60 60
        E 0 90 61 60
        E 0 90 63 60
        E 60 80 48 00
        E 0 80 4a 00
        E 0 80 54 00
        E 0 80 56 00
        E 0 80 60 00
        E 0 80 61 00
        E 0 80 63 00
        E 180 90 48 60
        E 0 90 4a 60
        E 0 90 54 60
        E 0 90 56 60
        E 0 90 60 60
        E 0 90 61 60
        E 0 90 63 60
        E 60 80 48 00
        E 0 80 4a 00
        E 0 80 54 00
        E 0 80 56 00
        E 0 80 60 00
        E 0 80 61 00
        E 0 80 63 00
        E 180 90 54 60
        E 0 90 56 60
        E 0 90 60 60
        E 0 90 61 60
        E 0 90 63 60
        E 60 80 54 00
        E 0 80 56 00
        E 0 80 60 00
        E 0 80 61 00
        E 0 80 63 00
        E 180 90 3e 60
        E 0 90 49 60
        E 0 90 4b 60
        E 0 90 55 60
        E 0 90 57 60
        E 0 90 61 60
        E 0 90 62 60
        E 0 90 63 60
        E 60 80 3e 00
        E 0 80 49 00
        E 0 80 4b 00
        E 0 80 55 00
        E 0 80 57 00
        E 0 80 61 00
        E 0 80 62 00
        E 0 80 63 00
        E 180 90 49 60
        E 0 90 4b 60
        E 0 90 55 60
        E 0 90 57 60
        E 0 90 61 60
        E 0 90 62 60
        E 0 90 63 60
        E 60 80 49 00
        E 0 80 4b 00
        E 0 80 55 00
        E 0 80 57 00
        E 0 80 61 00
        E 0 80 62 00
        E 0 80 63 00
        E 180 90 3e 60
        E 0 90 49 60
        E 0 90 4b 60
        E 0 90 55 60
        E 0 90 57 60
        E 0 90 61 60
        E 0 90 62 60
        E 0 90 63 60
        E 60 80 3e 00
        E 0 80 49 00
        E 0 80 4b 00
        E 0 80 55 00
        E 0 80 57 00
        E 0 80 61 00
        E 0 80 62 00
        E 0 80 63 00
        E 180 90 49 60
        E 0 90 4b 60
        E 0 90 55 60
        E 0 90 57 60
        E 0 90 61 60
        E 0 90 62 60
        E 0 90 63 60
        E 60 80 49 00
        E 0 80 4b 00
        E 0 80 55 00
        E 0 80 57 00
        E 0 80 61 00
        E 0 80 62 00
        E 0 80 63 00
        E 180 90 3e 60
        E 0 90 49 60
        E 0 90 4b 60
        E 0 90 55 60
        E 0 90 57 60
        E 0 90 61 60
        E 0 90 62 60
        E 0 90 63 60
        E 60 80 3e 00
        E 0 80 49 00
        E 0 80 4b 00
        E 0 80 55 00
        E 0 80 57 00
        E 0 80 61 00
        E 0 80 62 00
        E 0 80 63 00
        E 180 90 49 60
        E 0 90 4b 60
        E 0 90 55 60
        E 0 90 57 60
        E 0 90 61 60
        E 0 90 62 60
        E 0 90 63 60
        E 60 80 49 00
        E 0 80 4b 00
        E 0 80 55 00
        E 0 80 57 00
        E 0 80 61 00
        E 0 80 62 00
        E 0 80 63 00
        E 180 90 49 60
        E 0 90 4b 60
        E 0 90 55 60
        E 0 90 57 60
        E 0 90 61 60
        E 0 90 62 60
        E 0 90 63 60
        E 60 80 49 00
        E 0 80 4b 00
        E 0 80 55 00
        E 0 80 57 00
        E 0 80 61 00
        E 0 80 62 00
        E 0 80 63 00
        E 180 90 55 60
        E 0 90 57 60
        E 0 90 61 60
        E 0 90 62 60
        E 0 90 63 60
        E 60 80 55 00
        E 0 80 57 00
        E 0 80 61 00
        E 0 80 62 00
        E 0 80 63 00
        E 180 90 3f 60
        E 0 90 4a 60
        E 0 90 4c 60
        E 0 90 55 60
        E 0 90 58 60
        E 0 90 61 60
        E 0 90 62 60
        E 0 90 64 60
        E 60 80 3f 00
        E 0 80 4a 00
        E 0 80 4c 00
        E 0 80 55 00
        E 0 80 58 00
        E 0 80 61 00
        E 0 80 62 00
        E 0 80 64 00
        E 180 90 4a 60
        E 0 90 4c 60
        E 0 90 55 60
        E 0 90 58 60
        E 0 90 61 60
        E 0 90 62 60
        E 0 90 64 60
        E 60 80 4a 00
        E 0 80 4c 00
        E 0 80 55 00
        E 0 80 58 00
        E 0 80 61 00
        E 0 80 62 00
        E 0 80 64 00
        E 180 90 3f 60
        E 0 90 4a 60
        E 0 90 4c 60
        E 0 90 55 60
        E 0 90 58 60
        E 0 90 61 60
        E 0 90 62 60
        E 0 90 64 60
        E 60 80 3f 00
        E 0 80 4a 00
        E 0 80 4c 00
        E 0 80 55 00
        E 0 80 58 00
        E 0 80 61 00
        E 0 80 62 00
        E 0 80 64 00
        E 180 90 4a 60
        E 0 90 4c 60
        E 0 90 55 60
        E 0 90 58 60
        E 0 90 61 60
        E 0 90 62 60
        E 0 90 64 60
        E 0 90 74 6e
        E 60 80 4a 00
        E 0 80 4c 00
        E 0 80 55 00
        E 0 80 58 00
        E 0 80 61 00
        E 0 80 62 00
        E 0 80 64 00
        E 180 90 3f 60
        E 0 90 4a 60
        E 0 90 4c 60
        E 0 90 55 60
        E 0 90 58 60
        E 0 90 61 60
        E 0 90 62 60
        E 0 90 64 60
        E 60 80 3f 00
        E 0 80 4a 00
        E 0 80 4c 00
        E 0 80 55 00
        E 0 80 58 00
        E 0 80 61 00
        E 0 80 62 00
        E 0 80 64 00
        E 180 90 4a 60
        E 0 90 4c 60
        E 0 90 55 60
        E 0 90 58 60
        E 0 90 61 60
        E 0 90 62 60
        E 0 90 64 60
        E 60 80 4a 00
        E 0 80 4c 00
        E 0 80 55 00
        E 0 80 58 00
        E 0 80 61 00
        E 0 80 62 00
        E 0 80 64 00
        E 180 90 4a 60
        E 0 90 4c 60
        E 0 90 55 60
        E 0 90 58 60
        E 0 90 61 60
        E 0 90 62 60
        E 0 90 64 60
        E 60 80 4a 00
        E 0 80 4c 00
        E 0 80 55 00
        E 0 80 58 00
        E 0 80 61 00
        E 0 80 62 00
        E 0 80 64 00
        E 180 90 55 60
        E 0 90 58 60
        E 0 90 61 60
        E 0 90 62 60
        E 0 90 64 60
        E 60 80 55 00
        E 0 80 58 00
        E 0 80 61 00
        E 0 80 62 00
        E 0 80 64 00
        E 180 90 3e 60
        E 0 90 49 60
        E 0 90 4b 60
        E 0 90 55 60
        E 0 90 57 60
        E 0 90 61 60
        E 0 90 62 60
        E 0 90 63 60
        E 60 80 3e 00
        E 0 80 49 00
        E 0 80 4b 00
        E 0 80 55 00
        E 0 80 57 00
        E 0 80 61 00
        E 0 80 62 00
        E 0 80 63 00
        E 180 90 49 60
        E 0 90 4b 60
        E 0 90 55 60
        E 0 90 57 60
        E 0 90 61 60
        E 0 90 62 60
        E 0 90 63 60
        E 60 80 49 00
        E 0 80 4b 00
        E 0 80 55 00
        E 0 80 57 00
        E 0 80 61 00
        E 0 80 62 00
        E 0 80 63 00
        E 180 90 3e 60
        E 0 90 49 60
        E 0 90 4b 60
        E 0 90 55 60
        E 0 90 57 60
        E 0 90 61 60
        E 0 90 62 60
        E 0 90 63 60
        E 60 80 3e 00
        E 0 80 49 00
        E 0 80 4b 00
        E 0 80 55 00
        E 0 80 57 00
        E 0 80 61 00
        E 0 80 62 00
        E 0 80 63 00
        E 180 90 49 60
        E 0 90 4b 60
        E 0 90 55 60
        E 0 90 57 60
        E 0 90 61 60
        E 0 90 62 60
        E 0 90 63 60
        E 60 80 49 00
        E 0 80 4b 00
        E 0 80 55 00
        E 0 80 57 00
        E 0 80 61 00
        E 0 80 62 00
        E 0 80 63 00
        E 180 90 3e 60
        E 0 90 49 60
        E 0 90 4b 60
        E 0 90 55 60
        E 0 90 57 60
        E 0 90 61 60
        E 0 90 62 60
        E 0 90 63 60
        E 60 80 3e 00
        E 0 80 49 00
        E 0 80 4b 00
        E 0 80 55 00
        E 0 80 57 00
        E 0 80 61 00
        E 0 80 62 00
        E 0 80 63 00
        E 180 90 49 60
        E 0 90 4b 60
        E 0 90 55 60
        E 0 90 57 60
        E 0 90 61 60
        E 0 90 62 60
        E 0 90 63 60
        E 60 80 49 00
        E 0 80 4b 00
        E 0 80 55 00
        E 0 80 57 00
        E 0 80 61 00
        E 0 80 62 00
        E 0 80 63 00
        E 180 90 49 60
        E 0 90 4b 60
        E 0 90 55 60
        E 0 90 57 60
        E 0 90 61 60
        E 0 90 62 60
        E 0 90 63 60
        E 60 80 49 00
        E 0 80 4b 00
        E 0 80 55 00
        E 0 80 57 00
        E 0 80 61 00
        E 0 80 62 00
        E 0 80 63 00
        E 180 90 55 60
        E 0 90 57 60
        E 0 90 61 60
        E 0 90 62 60
        E 0 90 63 60
        E 60 80 55 00
        E 0 80 57 00
        E 0 80 61 00
        E 0 80 62 00
        E 0 80 63 00
        E 180 80 74 00
        E 0 90 3d 60
        E 0 90 48 60
        E 0 90 4a 60
        E 0 90 54 60
        E 0 90 56 60
        E 0 90 60 60
        E 0 90 61 60
        E 0 90 63 60
        E 60 80 3d 00
        E 0 80 48 00
        E 0 80 4a 00
        E 0 80 54 00
        E 0 80 56 00
        E 0 80 60 00
        E 0 80 61 00
        E 0 80 63 00
        E 180 90 48 60
        E 0 90 4a 60
        E 0 90 54 60
        E 0 90 56 60
        E 0 90 60 60
        E 0 90 61 60
        E 0 90 63 60
        E 60 80 48 00
        E 0 80 4a 00
        E 0 80 54 00
        E 0 80 56 00
        E 0 80 60 00
        E 0 80 61 00
        E 0 80 63 00
        E 180 90 3d 60
        E 0 90 48 60
        E 0 90 4a 60
        E 0 90 54 60
        E 0 90 56 60
        E 0 90 60 60
        E 0 90 61 60
        E 0 90 63 60
        E 60 80 3d 00
        E 0 80 48 00
        E 0 80 4a 00
        E 0 80 54 00
        E 0 80 56 00
        E 0 80 60 00
        E 0 80 61 00
        E 0 80 63 00
        E 180 90 48 60
        E 0 90 4a 60
        E 0 90 54 60
        E 0 90 56 60
        E 0 90 60 60
        E 0 90 61 60
        E 0 90 63 60
        E 60 80 48 00
        E 0 80 4a 00
        E 0 80 54 00
        E 0 80 56 00
        E 0 80 60 00
        E 0 80 61 00
        E 0 80 63 00
        E 180 90 3d 60
        E 0 90 48 60
        E 0 90 4a 60
        E 0 90 54 60
        E 0 90 56 60
        E 0 90 60 60
        E 0 90 61 60
        E 0 90 63 60
        E 60 80 3d 00
        E 0 80 48 00
        E 0 80 4a 00
        E 0 80 54 00
        E 0 80 56 00
        E 0 80 60 00
        E 0 80 61 00
        E 0 80 63 00
        E 180 90 48 60
        E 0 90 4a 60
        E 0 90 54 60
        E 0 90 56 60
        E 0 90 60 60
        E 0 90 61 60
        E 0 90 63 60
        E 60 80 48 00
        E 0 80 4a 00
        E 0 80 54 00
        E 0 80 56 00
        E 0 80 60 00
        E 0 80 61 00
        E 0 80 63 00
        E 180 90 3d 60
        E 0 90 48 60
        E 0 90 4a 60
        E 0 90 54 60
        E 0 90 56 60
        E 0 90 60 60
        E 0 90 61 60
        E 0 90 63 60
        E 60 80 3d 00
        E 0 80 48 00
        E 0 80 4a 00
        E 0 80 54 00
        E 0 80 56 00
        E 0 80 60 00
        E 0 80 61 00
        E 0 80 63 00
        E 180 90 48 60
        E 0 90 4a 60
        E 0 90 54 60
        E 0 90 56 60
        E 0 90 60 60
        E 0 90 61 60
        E 0 90 63 60
        E 60 80 48 00
        E 0 80 4a 00
        E 0 80 54 00
        E 0 80 56 00
        E 0 80 60 00
        E 0 80 61 00
        E 0 80 63 00
        E 180 90 3d 60
        E 0 90 48 60
        E 0 90 4a 60
        E 0 90 54 60
        E 0 90 56 60
        E 0 90 60 60
        E 0 90 61 60
        E 0 90 63 60
        E 60 80 3d 00
        E 0 80 48 00
        E 0 80 4a 00
        E 0 80 54 00
        E 0 80 56 00
        E 0 80 60 00
        E 0 80 61 00
        E 0 80 63 00
        E 180 90 48 60
        E 0 90 4a 60
        E 0 90 54 60
        E 0 90 56 60
        E 0 90 60 60
        E 0 90 61 60
        E 0 90 63 60
        E 60 80 48 00
        E 0 80 4a 00
        E 0 80 54 00
        E 0 80 56 00
        E 0 80 60 00
        E 0 80 61 00
        E 0 80 63 00
        E 180 90 48 60
        E 0 90 4a 60
        E 0 90 54 60
        E 0 90 56 60
        E 0 90 60 60
        E 0 90 61 60
        E 0 90 63 60
        E 60 80 48 00
        E 0 80 4a 00
        E 0 80 54 00
        E 0 80 56 00
        E 0 80 60 00
        E 0 80 61 00
        E 0 80 63 00
        E 180 90 54 60
        E 0 90 55 60
        E 0 90 60 60
        E 0 90 61 60
        E 0 90 62 60
        E 60 80 54 00
        E 0 80 55 00
        E 0 80 60 00
        E 0 80 61 00
        E 0 80 62 00
        E 180 90 3c 60
        E 0 90 48 60
        E 0 90 49 60
        E 0 90 54 60
        E 0 90 55 60
        E 0 90 60 60
        E 0 90 61 60
        E 0 90 62 60
        E 60 80 3c 00
        E 0 80 48 00
        E 0 80 49 00
        E 0 80 54 00
        E 0 80 55 00
        E 0 80 60 00
        E 0 80 61 00
        E 0 80 62 00
        E 180 90 54 60
        E 0 90 55 60
        E 0 90 60 60
        E 0 90 61 60
        E 0 90 62 60
        E 60 80 54 00
        E 0 80 55 00
        E 0 80 60 00
        E 0 80 61 00
        E 0 80 62 00
        E 180 90 48 60
        E 0 90 49 60
        E 0 90 4a 60
        E 0 90 4b 60
        E 0 90 54 60
        E 0 90 55 60
        E 0 90 56 60
        E 0 90 57 60
        E 0 90 60 60
        E 0 90 61 60
        E 0 90 62 60
        E 0 90 63 60
        E 60 80 48 00
        E 0 80 49 00
        E 0 80 4a 00
        E 0 80 4b 00
        E 0 80 54 00
        E 0 80 55 00
        E 0 80 56 00
        E 0 80 57 00
        E 0 80 60 00
        E 0 80 61 00
        E 0 80 62 00
        E 0 80 63 00
        E 180 90 48 60
        E 0 90 49 60
        E 0 90 4a 60
        E 0 90 4b 60
        E 0 90 54 60
        E 0 90 55 60
        E 0 90 56 60
        E 0 90 57 60
        E 0 90 60 60
        E 0 90 61 60
        E 0 90 62 60
        E 0 90 63 60
        E 60 80 48 00
        E 0 80 49 00
        E 0 80 4a 00
        E 0 80 4b 00
        E 0 80 54 00
        E 0 80 55 00
        E 0 80 56 00
        E 0 80 57 00
        E 0 80 60 00
        E 0 80 61 00
        E 0 80 62 00
        E 0 80 63 00
        E 180 90 3c 60
        E 0 90 3d 60
        E 0 90 3e 60
        E 0 90 3f 60
        E 0 90 48 60
        E 0 90 49 60
        E 0 90 4a 60
        E 0 90 4b 60
        E 0 90 54 60
        E 0 90 55 60
        E 0 90 56 60
        E 0 90 57 60
        E 0 90 60 60
        E 0 90 61 60
        E 0 90 62 60
        E 0 90 63 60
        E 60 80 3c 00
        E 0 80 3d 00
        E 0 80 3e 00
        E 0 80 3f 00
        E 0 80 48 00
        E 0 80 49 00
        E 0 80 4a 00
        E 0 80 4b 00
        E 0 80 54 00
        E 0 80 55 00
        E 0 80 56 00
        E 0 80 57 00
        E 0 80 60 00
        E 0 80 61 00
        E 0 80 62 00
        E 0 80 63 00
        E 180 90 48 60
        E 0 90 49 60
        E 0 90 4a 60
        E 0 90 4b 60
        E 0 90 54 60
        E 0 90 55 60
        E 0 90 56 60
        E 0 90 57 60
        E 0 90 60 60
        E 0 90 61 60
        E 0 90 62 60
        E 0 90 63 60
        E 60 80 48 00
        E 0 80 49 00
        E 0 80 4a 00
        E 0 80 4b 00
        E 0 80 54 00
        E 0 80 55 00
        E 0 80 56 00
        E 0 80 57 00
        E 0 80 60 00
        E 0 80 61 00
        E 0 80 62 00
        E 0 80 63 00
        E 180 90 48 60
        E 0 90 49 60
        E 0 90 4a 60
        E 0 90 4b 60
        E 0 90 54 60
        E 0 90 55 60
        E 0 90 56 60
        E 0 90 57 60
        E 0 90 60 60
        E 0 90 61 60
        E 0 90 62 60
        E 0 90 63 60
        E 60 80 48 00
        E 0 80 49 00
        E 0 80 4a 00
        E 0 80 4b 00
        E 0 80 54 00
        E 0 80 55 00
        E 0 80 56 00
        E 0 80 57 00
        E 0 80 60 00
        E 0 80 61 00
        E 0 80 62 00
        E 0 80 63 00
        E 180 90 54 60
        E 0 90 55 60
        E 0 90 56 60
        E 0 90 57 60
        E 0 90 60 60
        E 0 90 61 60
        E 0 90 62 60
        E 0 90 63 60
        E 60 80 54 00
        E 0 80 55 00
        E 0 80 56 00
        E 0 80 57 00
        E 0 80 60 00
        E 0 80 61 00
        E 0 80 62 00
        E 0 80 63 00
        E 180 90 3c 60
        E 0 90 48 60
        E 0 90 49 60
        E 0 90 54 60
        E 0 90 55 60
        E 0 90 60 60
        E 0 90 61 60
        E 60 80 3c 00
        E 0 80 48 00
        E 0 80 49 00
        E 0 80 54 00
        E 0 80 55 00
        E 0 80 60 00
        E 0 80 61 00
        E 180 90 48 60
        E 0 90 49 60
        E 0 90 54 60
        E 0 90 55 60
        E 0 90 60 60
        E 0 90 61 60
        E 60 80 48 00
        E 0 80 49 00
        E 0 80 54 00
        E 0 80 55 00
        E 0 80 60 00
        E 0 80 61 00
        E 180 90 48 60
        E 0 90 49 60
        E 0 90 54 60
        E 0 90 55 60
        E 0 90 60 60
        E 0 90 61 60
        E 60 80 48 00
        E 0 80 49 00
        E 0 80 54 00
        E 0 80 55 00
        E 0 80 60 00
        E 0 80 61 00
        E 180 90 54 60
        E 0 90 55 60
        E 0 90 60 60
        E 0 90 61 60
        E 60 80 54 00
        E 0 80 55 00
        E 0 80 60 00
        E 0 80 61 00
        E 180 90 40 60
        E 0 90 4b 60
        E 0 90 4c 60
        E 0 90 57 60
        E 0 90 58 60
        E 0 90 62 60
        E 0 90 63 60
        E 0 90 64 60
        E 120 80 40 00
        E 0 80 4b 00
        E 0 80 4c 00
        E 0 80 57 00
        E 0 80 58 00
        E 180 80 62 00
        E 0 80 63 00
        E 0 80 64 00
        E 180 90 49 60
        E 0 90 55 60
        E 0 90 61 60
        E 60 80 49 00
        E 0 80 55 00
        E 0 80 61 00
        E 180 90 57 60
        E 0 90 58 60
        E 0 90 62 60
        E 0 90 63 60
        E 0 90 64 60
        E 60 80 57 00
        E 0 80 58 00
        E 0 80 62 00
        E 0 80 63 00
        E 0 80 64 00
        E 180 90 40 60
        E 0 90 4b 60
        E 0 90 4c 60
        E 0 90 57 60
        E 0 90 58 60
        E 0 90 62 60
        E 0 90 63 60
        E 0 90 64 60
        E 60 80 40 00
        E 0 80 4b 00
        E 0 80 4c 00
        E 0 80 57 00
        E 0 80 58 00
        E 0 80 62 00
        E 0 80 63 00
        E 0 80 64 00
        E 180 90 4b 60
        E 0 90 4c 60
        E 0 90 57 60
        E 0 90 58 60
        E 0 90 62 60
        E 0 90 63 60
        E 0 90 64 60
        E 120 80 4b 00
        E 0 80 4c 00
        E 0 80 57 00
        E 0 80 58 00
        E 180 80 62 00
        E 0 80 63 00
        E 0 80 64 00
        E 180 90 55 60
        E 0 90 61 60
        E 60 80 55 00
        E 0 80 61 00
        E 180 90 40 60
        E 0 90 4b 60
        E 0 90 4c 60
        E 0 90 57 60
        E 0 90 58 60
        E 0 90 62 60
        E 0 90 63 60
        E 0 90 64 60
        E 120 80 40 00
        E 0 80 4b 00
        E 0 80 4c 00
        E 0 80 57 00
        E 0 80 58 00
        E 179 80 62 00
        E 0 80 63 00
        E 0 80 64 00
        E 180 90 48 60
        E 0 90 54 60
        E 0 90 60 60
        E 61 80 48 00
        E 0 80 54 00
        E 0 80 60 00
        E 180 90 48 60
        E 0 90 54 60
        E 0 90 60 60
        E 61 80 48 00
        E 0 80 54 00
        E 0 80 60 00
        E 179 90 3c 60
        E 0 90 48 60
        E 0 90 54 60
        E 0 90 60 60
        E 61 80 3c 00
        E 0 80 48 00
        E 0 80 54 00
        E 0 80 60 00
        E 178 90 57 60
        E 0 90 58 60
        E 0 90 62 60
        E 0 90 63 60
        E 0 90 64 60
        E 120 80 57 00
        E 0 80 58 00
        E 180 80 62 00
        E 0 80 63 00
        E 0 80 64 00
        E 180 90 54 60
        E 0 90 60 60
        E 60 80 54 00
        E 0 80 60 00
        E 181 90 40 60
        E 0 90 4b 60
        E 0 90 4c 60
        E 0 90 57 60
        E 0 90 58 60
        E 0 90 62 60
        E 0 90 63 60
        E 0 90 64 60
        E 120 80 40 00
        E 0 80 4b 00
        E 0 80 4c 00
        E 0 80 57 00
        E 0 80 58 00
        E 179 80 62 00
        E 0 80 63 00
        E 0 80 64 00
        E 180 90 49 60
        E 0 90 55 60
        E 0 90 61 60
        E 61 80 49 00
        E 0 80 55 00
        E 0 80 61 00
        E 180 90 49 60
        E 0 90 55 60
        E 0 90 61 60
        E 61 80 49 00
        E 0 80 55 00
        E 0 80 61 00
        E 179 90 3d 60
        E 0 90 49 60
        E 0 90 55 60
        E 0 90 61 60
        E 61 80 3d 00
        E 0 80 49 00
        E 0 80 55 00
        E 0 80 61 00
        E 178 90 57 60
        E 0 90 58 60
        E 0 90 62 60
        E 0 90 63 60
        E 0 90 64 60
        E 120 80 57 00
        E 0 80 58 00
        E 180 80 62 00
        E 0 80 63 00
        E 0 80 64 00
        E 180 90 55 60
        E 0 90 61 60
        E 60 80 55 00
        E 0 80 61 00
        E 181 90 3e 60
        E 0 90 49 60
        E 0 90 4b 60
        E 0 90 55 60
        E 0 90 57 60
        E 0 90 61 60
        E 0 90 62 60
        E 0 90 63 60
        E 120 80 3e 00
        E 0 80 49 00
        E 0 80 4b 00
        E 0 80 55 00
        E 0 80 57 00
        E 179 80 61 00
        E 0 80 62 00
        E 0 80 63 00
        E 180 90 49 60
        E 0 90 55 60
        E 0 90 61 60
        E 61 80 49 00
        E 0 80 55 00
        E 0 80 61 00
        E 180 90 49 60
        E 0 90 55 60
        E 0 90 61 60
        E 61 80 49 00
        E 0 80 55 00
        E 0 80 61 00
        E 179 90 3d 60
        E 0 90 49 60
        E 0 90 55 60
        E 0 90 61 60
        E 61 80 3d 00
        E 0 80 49 00
        E 0 80 55 00
        E 0 80 61 00
        E 178 90 55 60
        E 0 90 57 60
        E 0 90 61 60
        E 0 90 62 60
        E 0 90 63 60
        E 120 80 55 00
        E 0 80 57 00
        E 180 80 61 00
        E 0 80 62 00
        E 0 80 63 00
        E 180 90 55 60
        E 0 90 61 60
        E 60 80 55 00
        E 0 80 61 00
        E 181 90 3f 60
        E 0 90 4a 60
        E 0 90 4c 60
        E 0 90 55 60
        E 0 90 58 60
        E 0 90 61 60
        E 0 90 62 60
        E 0 90 64 60
        E 120 80 3f 00
        E 0 80 4a 00
        E 0 80 4c 00
        E 0 80 55 00
        E 0 80 58 00
        E 179 80 61 00
        E 0 80 62 00
        E 0 80 64 00
        E 180 90 48 60
        E 0 90 54 60
        E 0 90 60 60
        E 61 80 48 00
        E 0 80 54 00
        E 0 80 60 00
        E 180 90 48 60
        E 0 90 54 60
        E 0 90 60 60
        E 61 80 48 00
        E 0 80 54 00
        E 0 80 60 00
        E 179 90 3c 60
        E 0 90 48 60
        E 0 90 54 60
        E 0 90 60 60
        E 61 80 3c 00
        E 0 80 48 00
        E 0 80 54 00
        E 0 80 60 00
        E 178 90 55 60
        E 0 90 58 60
        E 0 90 61 60
        E 0 90 62 60
        E 0 90 64 60
        E 120 80 55 00
        E 0 80 58 00
        E 180 80 61 00
        E 0 80 62 00
        E 0 80 64 00
        E 180 90 54 60
        E 0 90 60 60
        E 60 80 54 00
        E 0 80 60 00
        E 181 90 40 60
        E 0 90 4b 60
        E 0 90 4c 60
        E 0 90 57 60
        E 0 90 58 60
        E 0 90 62 60
        E 0 90 63 60
        E 0 90 64 60
        E 120 80 40 00
        E 0 80 4b 00
        E 0 80 4c 00
        E 0 80 57 00
        E 0 80 58 00
        E 179 80 62 00
        E 0 80 63 00
        E 0 80 64 00
        E 180 90 48 60
        E 0 90 54 60
        E 0 90 60 60
        E 61 80 48 00
        E 0 80 54 00
        E 0 80 60 00
        E 180 90 48 60
        E 0 90 54 60
        E 0 90 60 60
        E 61 80 48 00
        E 0 80 54 00
        E 0 80 60 00
        E 179 90 3c 60
        E 0 90 48 60
        E 0 90 54 60
        E 0 90 60 60
        E 61 80 3c 00
        E 0 80 48 00
        E 0 80 54 00
        E 0 80 60 00
        E 178 90 57 60
        E 0 90 58 60
        E 0 90 62 60
        E 0 90 63 60
        E 0 90 64 60
        E 120 80 57 00
        E 0 80 58 00
        E 24 90 74 6e
        E 156 80 62 00
        E 0 80 63 00
        E 0 80 64 00
        E 180 90 54 60
        E 0 90 60 60
        E 60 80 54 00
        E 0 80 60 00
        E 181 90 3e 60
        E 0 90 49 60
        E 0 90 4a 60
        E 0 90 54 60
        E 0 90 57 60
        E 0 90 60 60
        E 0 90 62 60
        E 0 90 63 60
        E 120 80 3e 00
        E 0 80 49 00
        E 0 80 4a 00
        E 420 80 54 00
        E 0 80 57 00
        E 0 80 60 00
        E 0 80 62 00
        E 0 80 63 00
        E 180 90 49 60
        E 0 90 4a 60
        E 0 90 55 60
        E 0 90 56 60
        E 0 90 61 60
        E 0 90 62 60
        E 120 80 49 00
        E 0 80 4a 00
        E 420 80 55 00
        E 0 80 56 00
        E 0 80 61 00
        E 0 80 62 00
        E 180 90 3d 60
        E 0 90 49 60
        E 0 90 55 60
        E 0 90 61 60
        E 120 80 3d 00
        E 0 80 49 00
        E 420 80 55 00
        E 0 80 61 00
        E 180 90 4a 60
        E 0 90 4b 60
        E 0 90 56 60
        E 0 90 57 60
        E 0 90 62 60
        E 0 90 63 60
        E 120 80 4a 00
        E 0 80 4b 00
        E 0 80 56 00
        E 0 80 57 00
        E 180 80 62 00
        E 0 80 63 00
        E 180 90 55 60
        E 0 90 61 60
        E 60 80 55 00
        E 0 80 61 00
        E 142 80 74 00
        E 38 90 3f 60
        E 0 90 4a 60
        E 0 90 4b 60
        E 0 90 56 60
        E 0 90 57 60
        E 0 90 62 60
        E 0 90 63 60
        E 120 80 3f 00
        E 0 80 4a 00
        E 0 80 4b 00
        E 420 80 56 00
        E 0 80 57 00
        E 0 80 62 00
        E 0 80 63 00
        E 180 90 4b 60
        E 0 90 4c 60
        E 0 90 57 60
        E 0 90 58 60
        E 0 90 62 60
        E 0 90 63 60
        E 0 90 64 60
        E 120 80 4b 00
        E 0 80 4c 00
        E 420 80 57 00
        E 0 80 58 00
        E 0 80 62 00
        E 0 80 63 00
        E 0 80 64 00
        E 180 90 49 60
        E 0 90 55 60
        E 0 90 61 60
        E 60 80 49 00
        E 0 80 55 00
        E 0 80 61 00
        E 180 90 57 60
        E 0 90 58 60
        E 0 90 62 60
        E 0 90 63 60
        E 0 90 64 60
        E 60 80 57 00
        E 0 80 58 00
        E 0 80 62 00
        E 0 80 63 00
        E 0 80 64 00
        E 180 90 40 60
        E 0 90 4b 60
        E 0 90 4c 60
        E 0 90 57 60
        E 0 90 58 60
        E 0 90 62 60
        E 0 90 63 60
        E 0 90 64 60
        E 60 80 40 00
        E 0 80 4b 00
        E 0 80 4c 00
        E 0 80 57 00
        E 0 80 58 00
        E 0 80 62 00
        E 0 80 63 00
        E 0 80 64 00
        E 180 90 4b 60
        E 0 90 4c 60
        E 0 90 57 60
        E 0 90 58 60
        E 0 90 62 60
        E 0 90 63 60
        E 0 90 64 60
        E 120 80 4b 00
        E 0 80 4c 00
        E 0 80 57 00
        E 0 80 58 00
        E 180 80 62 00
        E 0 80 63 00
        E 0 80 64 00
        E 180 90 55 60
        E 0 90 61 60
        E 60 80 55 00
        E 0 80 61 00
        E 180 90 3d 60
        E 0 90 3e 60
        E 0 90 3f 60
        E 0 90 40 60
        E 0 90 49 60
        E 0 90 4a 60
        E 0 90 4b 60
        E 0 90 4c 60
        E 0 90 55 60
        E 0 90 56 60
        E 0 90 57 60
        E 0 90 58 60
        E 0 90 61 60
        E 0 90 62 60
        E 0 90 63 60
        E 0 90 64 60
        E 120 80 3d 00
        E 0 80 3e 00
        E 0 80 3f 00
        E 0 80 40 00
        E 0 80 49 00
        E 0 80 4a 00
        E 0 80 4b 00
        E 0 80 4c 00
        E 420 80 55 00
        E 0 80 56 00
        E 0 80 57 00
        E 0 80 58 00
        E 0 80 61 00
        E 0 80 62 00
        E 0 80 63 00
        E 0 80 64 00
        E 180 90 49 60
        E 0 90 4a 60
        E 0 90 4b 60
        E 0 90 4c 60
        E 0 90 55 60
        E 0 90 56 60
        E 0 90 57 60
        E 0 90 58 60
        E 0 90 61 60
        E 0 90 62 60
        E 0 90 63 60
        E 0 90 64 60
        E 120 80 49 00
        E 0 80 4a 00
        E 0 80 4b 00
        E 0 80 4c 00
        E 420 80 55 00
        E 0 80 56 00
        E 0 80 57 00
        E 0 80 58 00
        E 0 80 61 00
        E 0 80 62 00
        E 0 80 63 00
        E 0 80 64 00
        E 180 90 49 60
        E 0 90 4a 60
        E 0 90 4b 60
        E 0 90 4c 60
        E 0 90 55 60
        E 0 90 56 60
        E 0 90 57 60
        E 0 90 58 60
        E 0 90 61 60
        E 0 90 62 60
        E 0 90 63 60
        E 0 90 64 60
        E 120 80 49 00
        E 0 80 4a 00
        E 0 80 4b 00
        E 0 80 4c 00
        E 0 80 55 00
        E 0 80 56 00
        E 0 80 57 00
        E 0 80 58 00
        E 180 80 61 00
        E 0 80 62 00
        E 0 80 63 00
        E 0 80 64 00
        E 180 90 3f 60
        E 0 90 4a 60
        E 0 90 4c 60
        E 0 90 55 60
        E 0 90 58 60
        E 0 90 61 60
        E 0 90 62 60
        E 0 90 64 60
        E 120 80 3f 00
        E 0 80 4a 00
        E 0 80 4c 00
        E 0 80 55 00
        E 0 80 58 00
        E 179 80 61 00
        E 0 80 62 00
        E 0 80 64 00
        E 180 90 48 60
        E 0 90 54 60
        E 0 90 60 60
        E 61 80 48 00
        E 0 80 54 00
        E 0 80 60 00
        E 180 90 48 60
        E 0 90 54 60
        E 0 90 60 60
        E 61 80 48 00
        E 0 80 54 00
        E 0 80 60 00
        E 179 90 3c 60
        E 0 90 48 60
        E 0 90 54 60
        E 0 90 60 60
        E 61 80 3c 00
        E 0 80 48 00
        E 0 80 54 00
        E 0 80 60 00
        E 178 90 55 60
        E 0 90 58 60
        E 0 90 61 60
        E 0 90 62 60
        E 0 90 64 60
        E 120 80 55 00
        E 0 80 58 00
        E 180 80 61 00
        E 0 80 62 00
        E 0 80 64 00
        E 180 90 54 60
        E 0 90 60 60
        E 60 80 54 00
        E 0 80 60 00
        E 181 90 40 60
        E 0 90 4b 60
        E 0 90 4c 60
        E 0 90 57 60
        E 0 90 58 60
        E 0 90 62 60
        E 0 90 63 60
        E 0 90 64 60
        E 120 80 40 00
        E 0 80 4b 00
        E 0 80 4c 00
        E 0 80 57 00
        E 0 80 58 00
        E 179 80 62 00
        E 0 80 63 00
        E 0 80 64 00
        E 180 90 48 60
        E 0 90 54 60
        E 0 90 60 60
        E 61 80 48 00
        E 0 80 54 00
        E 0 80 60 00
        E 180 90 48 60
        E 0 90 54 60
        E 0 90 60 60
        E 61 80 48 00
        E 0 80 54 00
        E 0 80 60 00
        E 179 90 3c 60
        E 0 90 48 60
        E 0 90 54 60
        E 0 90 60 60
        E 61 80 3c 00
        E 0 80 48 00
        E 0 80 54 00
        E 0 80 60 00
        E 178 90 57 60
        E 0 90 58 60
        E 0 90 62 60
        E 0 90 63 60
        E 0 90 64 60
        E 120 80 57 00
        E 0 80 58 00
        E 180 80 62 00
        E 0 80 63 00
        E 0 80 64 00
        E 180 90 54 60
        E 0 90 60 60
        E 60 80 54 00
        E 0 80 60 00
        E 181 90 3e 60
        E 0 90 49 60
        E 0 90 4b 60
        E 0 90 55 60
        E 0 90 57 60
        E 0 90 61 60
        E 0 90 63 60
        E 120 80 3e 00
        E 0 80 49 00
        E 0 80 4b 00
        E 0 80 55 00
        E 0 80 57 00
        E 180 80 61 00
        E 0 80 63 00
        E 180 90 49 60
        E 0 90 55 60
        E 0 90 61 60
        E 64 80 49 00
        E 0 80 55 00
        E 0 80 61 00
        E 176 90 55 60
        E 0 90 57 60
        E 0 90 61 60
        E 0 90 63 60
        E 120 80 55 00
        E 0 80 57 00
        E 180 80 61 00
        E 0 80 63 00
        E 180 90 55 60
        E 0 90 61 60
        E 60 80 55 00
        E 0 80 61 00
        E 180 90 49 60
        E 0 90 4b 60
        E 0 90 55 60
        E 0 90 57 60
        E 0 90 61 60
        E 0 90 63 60
        E 60 80 49 00
        E 0 80 4b 00
        E 0 80 55 00
        E 0 80 57 00
        E 0 80 61 00
        E 0 80 63 00
        E 180 90 55 60
        E 0 90 61 60
        E 60 80 55 00
        E 0 80 61 00
        E 180 90 3f 60
        E 0 90 4a 60
        E 0 90 4b 60
        E 0 90 56 60
        E 0 90 57 60
        E 0 90 62 60
        E 0 90 63 60
        E 120 80 3f 00
        E 0 80 4a 00
        E 0 80 4b 00
        E 0 80 56 00
        E 0 80 57 00
        E 180 80 62 00
        E 0 80 63 00
        E 180 90 48 60
        E 0 90 54 60
        E 0 90 60 60
        E 64 80 48 00
        E 0 80 54 00
        E 0 80 60 00
        E 176 90 56 60
        E 0 90 57 60
        E 0 90 62 60
        E 0 90 63 60
        E 120 80 56 00
        E 0 80 57 00
        E 180 80 62 00
        E 0 80 63 00
        E 180 90 54 60
        E 0 90 60 60
        E 60 80 54 00
        E 0 80 60 00
        E 180 90 4a 60
        E 0 90 4b 60
        E 0 90 56 60
        E 0 90 57 60
        E 0 90 62 60
        E 0 90 63 60
        E 60 80 4a 00
        E 0 80 4b 00
        E 0 80 56 00
        E 0 80 57 00
        E 0 80 62 00
        E 0 80 63 00
        E 180 90 54 60
        E 0 90 60 60
        E 60 80 54 00
        E 0 80 60 00
        E 180 90 3e 60
        E 0 90 49 60
        E 0 90 4a 60
        E 0 90 54 60
        E 0 90 57 60
        E 0 90 60 60
        E 0 90 62 60
        E 0 90 63 60
        E 120 80 3e 00
        E 0 80 49 00
        E 0 80 4a 00
        E 420 80 54 00
        E 0 80 57 00
        E 0 80 60 00
        E 0 80 62 00
        E 0 80 63 00
        E 180 90 48 60
        E 0 90 49 60
        E 0 90 54 60
        E 0 90 55 60
        E 0 90 60 60
        E 0 90 61 60
        E 120 80 48 00
        E 0 80 49 00
        E 420 80 54 00
        E 0 80 55 00
        E 0 80 60 00
        E 0 80 61 00
        E 180 90 3d 60
        E 0 90 3e 60
        E 0 90 3f 60
        E 0 90 40 60
        E 0 90 49 60
        E 0 90 4a 60
        E 0 90 4b 60
        E 0 90 4c 60
        E 0 90 55 60
        E 0 90 56 60
        E 0 90 57 60
        E 0 90 58 60
        E 0 90 61 60
        E 0 90 62 60
        E 0 90 63 60
        E 0 90 64 60
        E 960 80 3d 00
        E 0 80 3e 00
        E 0 80 3f 00
        E 0 80 40 00
        E 0 80 49 00
        E 0 80 4a 00
        E 0 80 4b 00
        E 0 80 4c 00
        E 300 80 55 00
        E 0 80 56 00
        E 0 80 57 00
        E 0 80 58 00
        E 0 80 61 00
        E 0 80 62 00
        E 0 80 63 00
        E 0 80 64 00
        E 180 90 3c 60
        E 0 90 3e 60
        E 0 90 3f 60
        E 0 90 40 60
        E 0 90 48 60
        E 0 90 4a 60
        E 0 90 4b 60
        E 0 90 4c 60
        E 0 90 54 60
        E 0 90 56 60
        E 0 90 57 60
        E 0 90 58 60
        E 0 90 60 60
        E 0 90 62 60
        E 0 90 63 60
        E 0 90 64 60
        E 480 80 3c 00
        E 0 80 3e 00
        E 0 80 3f 00
        E 0 80 40 00
        E 0 80 48 00
        E 0 80 4a 00
        E 0 80 4b 00
        E 0 80 4c 00
        E 300 80 54 00
        E 0 80 56 00
        E 0 80 57 00
        E 0 80 58 00
        E 0 80 60 00
        E 0 80 62 00
        E 0 80 63 00
        E 0 80 64 00
        E 180 90 3d 60
        E 0 90 3e 60
        E 0 90 3f 60
        E 0 90 40 60
        E 0 90 49 60
        E 0 90 4a 60
        E 0 90 4b 60
        E 0 90 4c 60
        E 0 90 55 60
        E 0 90 56 60
        E 0 90 57 60
        E 0 90 58 60
        E 0 90 61 60
        E 0 90 62 60
        E 0 90 63 60
        E 0 90 64 60
        E 120 80 3d 00
        E 0 80 3e 00
        E 0 80 3f 00
        E 0 80 40 00
        E 0 80 49 00
        E 0 80 4a 00
        E 0 80 4b 00
        E 0 80 4c 00
        E 420 80 55 00
        E 0 80 56 00
        E 0 80 57 00
        E 0 80 58 00
        E 0 80 61 00
        E 0 80 62 00
        E 0 80 63 00
        E 0 80 64 00
        E 180 90 49 60
        E 0 90 4a 60
        E 0 90 4b 60
        E 0 90 4c 60
        E 0 90 55 60
        E 0 90 56 60
        E 0 90 57 60
        E 0 90 58 60
        E 0 90 61 60
        E 0 90 62 60
        E 0 90 63 60
        E 0 90 64 60
        E 1020 80 49 00
        E 0 80 4a 00
        E 0 80 4b 00
        E 0 80 4c 00
        E 0 80 55 00
        E 0 80 56 00
        E 0 80 57 00
        E 0 80 58 00
        E 0 80 61 00
        E 0 80 62 00
        E 0 80 63 00
        E 0 80 64 00
        E 660 90 3c 60
        E 0 90 48 60
        E 0 90 54 60
        E 0 90 60 60
        E 60 80 3c 00
        E 0 80 48 00
        E 0 80 54 00
        E 0 80 60 00
        E 180 90 48 60
        E 0 90 54 60
        E 0 90 60 60
        E 60 80 48 00
        E 0 80 54 00
        E 0 80 60 00
        E 180 90 3c 60
        E 0 90 48 60
        E 0 90 54 60
        E 0 90 60 60
        E 60 80 3c 00
        E 0 80 48 00
        E 0 80 54 00
        E 0 80 60 00
        <X 480 0
          /wFbaWRsZV9yZWFsdGltZV0=
        >
        E 3132 b0 7b 00
        GUID {F537F270-CEBA-461E-8612-DC28913708FC}
        IGNTEMPO 0 120.00000000 4 4
        SRCCOLOR 1404
        VELLANE 132 128 60
        COLORMAP "C:\Users\wejaa\AppData\Roaming\REAPER\Data\color_maps\rockband_vox-other.png"
        TEXTSTRINGFILE "C:\Program Files\REAPER\Data\Text_Strings\Text Events List.txt"
        CFGEDITVIEW 28436.455805 131.703032 8 12 0 0 0
        CFGEDIT 1 1 0 0 0 1 1 1 1 1 1 0.12500000 -8 -8 1370 736 1 0 1 2 0.00000000 0 0 0 0 0.500000 1 0 1.000000 64
        KEYSNAP 0 0 "102034050607" 0 "Major"
        EVTFILTER 0 -1 -1 -1 -1 0 1 0 0 -1.00000000 -1.00000000
      >
    >
  >
  <TRACK '{D39F8BD7-8730-4182-94EC-51AF9F9ACC90}'
    NAME "PART REAL_KEYS_X"
    PEAKCOL 25231232
    BEAT -1
    AUTOMODE 0
    VOLPAN 1.00000000000000 0.00000000000000 -1.00000000000000 -1.00000000000000 1.00000000000000
    MUTESOLO 1 0 0
    IPHASE 0
    ISBUS 0 0
    BUSCOMP 1 0
    SHOWINMIX 1 0.666700 0.500000 1 0.500000 -1 -1 -1
    FREEMODE 0
    SEL 0
    REC 0 0 0 0 0 0 0
    TRACKHEIGHT 0 0
    INQ 0 0 0 0.5000000000 100 0 0 100
    NCHAN 2
    FX 1
    TRACKID {D39F8BD7-8730-4182-94EC-51AF9F9ACC90}
    PERF 0
    MIDIOUT -1
    <MIDINOTENAMES
      0 0 "C2-E3 Range"
      0 5 "F2-A3 Range"
      0 9 "A2-C4 Range"
      0 48 "C2 (Lowest Note)"
      0 72 "C4 (Highest Note)"
      0 115 "Solo Marker"
      0 126 "Glissando Marker"
      0 116 "Overdrive Marker"
      0 127 "Trill Marker"
      0 125 "----"
      0 114 "----"
      0 47 "----"
      0 49 "C#2"
      0 50 "D2"
      0 51 "Eb2"
      0 52 "E2"
      0 53 "F2"
      0 54 "F#2"
      0 55 "G2"
      0 56 "G#2"
      0 57 "A2"
      0 58 "Bb2"
      0 59 "B2"
      0 60 "C3"
      0 61 "C#3"
      0 62 "D3"
      0 63 "Eb3"
      0 64 "E3"
      0 65 "F3"
      0 66 "F#3"
      0 67 "G3"
      0 68 "G#3"
      0 69 "A3"
      0 70 "Bb3"
      0 71 "B3"
      0 2 "D2-F3 Range"
      0 4 "E2-G3 Range"
      0 7 "G2-B3 Range"
    >
    MAINSEND 1 0
    <FXCHAIN
      WNDRECT 0 40 655 493
      SHOW 0
      LASTSEL 1
      DOCKED 0
      BYPASS 0 0
      <JS "IX/MIDI_Tool II" ""
        0.000000 85.000000 127.000000 0.000000 0.000000 0.000000 100.000000 0.000000 0.000000 127.000000 0.000000 0.000000 1.000000 0.000000 0.000000 - - - - - - - - - - - - - - - - - - - - - - - - - - - - - - - - - - - - - - - - - - - - - - - - - 
      >
      FLOATPOS 0 0 0 0
      FXID {A891DAA7-5D8A-4720-AA8F-E43D2ABA2AE5}
      WAK 0
      BYPASS 0 0
      <VST "VSTi: ReaSynth (Cockos)" "reasynth.dll" 0 ""
        eXNlcu9e7f4AAAAAAgAAAAEAAAAAAAAAAgAAAAAAAAA4AAAAAAAAAA==
        AAAAAO++rd4N8K3eppvEOxe30TqcxKA+c2jRPgAAAADMm4A+6WeIPQ==
        AAAAAAAAAD8AAIA/6SaxPgAAAD8AAAAAAAA=
      >
      FLOATPOS 0 0 0 0
      FXID {A0CE5851-0C70-49E2-AD61-BC7B1C50A030}
      WAK 0
    >
    <ITEM
      POSITION 0.00000000000000
      SNAPOFFS 0.00000000000000
      LENGTH 155.58667925051560
      LOOP 0
      ALLTAKES 0
      SEL 0
      FADEIN 1 0.000000 0.000000 1 0
      FADEOUT 1 0.000000 0.000000 1 0
      MUTE 0
      IGUID {974100C2-06C4-4CB5-BD67-2F1BC71A1259}
      IID 15
      NAME "PART REAL_KEYS_X"
      VOLPAN 1.000000 0.000000 1.000000 -1.000000
      SOFFS 0.00000000000000 0.00000000000000
      PLAYRATE 1.00000000000000 1 0.00000000000000 -65536
      CHANMODE 0
      GUID {08703F3F-9741-46EB-9ED4-B09B2390F876}
      <SOURCE MIDI
        HASDATA 1 480 QN
        POOLEDEVTS {6A6FFA2F-1E01-4755-98D6-B05732ED03A6}
        <X 0 0
          /wNQQVJUIFJFQUxfS0VZU19Y
        >
        <X 3840 0
          /wFbcGxheV0=
        >
        E 176641 b0 7b 00
        GUID {0E0CBFB7-4AC8-4E67-A764-85891754BB41}
        IGNTEMPO 0 120.00000000 4 4
        SRCCOLOR 1405
        VELLANE 132 128 60
        COLORMAP "C:\Program Files\REAPER\Data\color_maps\rockband_guitarbass.png"
        TEXTSTRINGFILE "C:\Program Files\REAPER\Data\Text_Strings\Text Events List.txt"
        CFGEDITVIEW -4299.275963 82.395269 48 12 0 0 0
        CFGEDIT 1 1 0 1 1 1 1 1 1 1 1 0.12500000 -8 -8 1370 736 1 0 1 2 0.00000000 0 0 0 0 0.500000 1 0 1.000000 64
        KEYSNAP 0 0 "102034050607" 0 "Major"
        EVTFILTER 0 -1 -1 -1 -1 0 1 0 0 -1.00000000 -1.00000000
      >
    >
  >
  <TRACK '{117931B6-9EA5-432A-AEED-ACF4C8876354}'
    NAME "PART REAL _KEYS_H"
    PEAKCOL 25231232
    BEAT -1
    AUTOMODE 0
    VOLPAN 1.00000843600341 0.00000000000000 -1.00000000000000 -1.00000000000000 1.00000000000000
    MUTESOLO 1 0 0
    IPHASE 0
    ISBUS 0 0
    BUSCOMP 0 0
    SHOWINMIX 1 0.666700 0.500000 1 0.500000 -1 -1 -1
    FREEMODE 0
    SEL 0
    REC 0 0 0 0 0 0 0
    TRACKHEIGHT 0 0
    INQ 0 0 0 0.5000000000 100 0 0 100
    NCHAN 2
    FX 1
    TRACKID {117931B6-9EA5-432A-AEED-ACF4C8876354}
    PERF 0
    MIDIOUT -1
    <MIDINOTENAMES
      0 0 "C2-E3 Range"
      0 5 "F2-A3 Range"
      0 9 "A2-C4 Range"
      0 48 "C2 (Lowest Note)"
      0 72 "C4 (Highest Note)"
      0 115 "Solo Marker"
      0 126 "Glissando Marker"
      0 127 "Trill Marker"
      0 125 "----"
      0 116 "Overdrive Marker"
      0 114 "----"
      0 71 "B3"
      0 70 "Bb3"
      0 69 "A3"
      0 68 "G#3"
      0 67 "G3"
      0 66 "F#3"
      0 65 "F3"
      0 64 "E3"
      0 63 "Eb3"
      0 62 "D3"
      0 61 "C#3"
      0 60 "C3"
      0 59 "B2"
      0 58 "Bb2"
      0 57 "A2"
      0 56 "G#2"
      0 55 "G2"
      0 54 "F#2"
      0 53 "F2"
      0 52 "E2"
      0 51 "Eb2"
      0 50 "D2"
      0 49 "C#2"
      0 47 "----"
      0 7 "G2-B3 Range"
      0 4 "E2-G3 Range"
      0 2 "D2-F3 Range"
    >
    MAINSEND 1 0
    <FXCHAIN
      SHOW 0
      LASTSEL 0
      DOCKED 0
      BYPASS 0 0
      <JS "IX/MIDI_Tool II" ""
        0.000000 85.000000 127.000000 0.000000 0.000000 0.000000 100.000000 0.000000 0.000000 127.000000 0.000000 0.000000 1.000000 0.000000 0.000000 - - - - - - - - - - - - - - - - - - - - - - - - - - - - - - - - - - - - - - - - - - - - - - - - - 
      >
      FLOATPOS 0 0 0 0
      FXID {5BF1E178-D070-4445-A488-4CE4E31F6508}
      WAK 0
      BYPASS 0 0
      <VST "VSTi: ReaSynth (Cockos)" "reasynth.dll" 0 ""
        eXNlcu9e7f4AAAAAAgAAAAEAAAAAAAAAAgAAAAAAAAA4AAAAAAAAAA==
        AAAAAO++rd4N8K3eppvEOxe30TqcxKA+c2jRPgAAAADMm4A+6WeIPQ==
        AAAAAAAAAD8AAIA/6SaxPgAAAD8AAAAAAAA=
      >
      FLOATPOS 0 0 0 0
      FXID {C48567E0-8372-4900-9933-4B040EA2A253}
      WAK 0
    >
    <ITEM
      POSITION 0.00000000000000
      SNAPOFFS 0.00000000000000
      LENGTH 155.58667925051560
      LOOP 0
      ALLTAKES 0
      SEL 0
      FADEIN 1 0.000000 0.000000 1 0
      FADEOUT 1 0.000000 0.000000 1 0
      MUTE 0
      IGUID {DA514BF3-AF34-46C0-BD23-58406C871A44}
      IID 16
      NAME "PART REAL _KEYS_H"
      VOLPAN 1.000000 0.000000 1.000000 -1.000000
      SOFFS 0.00000000000000 0.00000000000000
      PLAYRATE 1.00000000000000 1 0.00000000000000 -65536
      CHANMODE 0
      GUID {8E0AC36B-D538-4BB8-A507-FFF40527D1BA}
      <SOURCE MIDI
        HASDATA 1 480 QN
        POOLEDEVTS {B13E9033-8804-4D01-AC5E-2AE1401D839E}
        <X 0 0
          /wNQQVJUIFJFQUxfS0VZU19I
        >
        E 0 90 09 60
        E 480 80 09 00
        E 3360 90 39 60
        E 360 80 39 00
        E 176281 b0 7b 00
        GUID {53F487B1-1F2F-4D54-9DAE-BC2E7B032E3B}
        IGNTEMPO 0 120.00000000 4 4
        SRCCOLOR 1406
        VELLANE 132 128 60
        COLORMAP "C:\Program Files\REAPER\Data\color_maps\rockband_guitarbass.png"
        TEXTSTRINGFILE "C:\Program Files\REAPER\Data\Text_Strings\Text Events List.txt"
        CFGEDITVIEW -4299.275963 82.395269 5 14 0 0 0
        CFGEDIT 1 1 0 1 1 1 1 1 1 1 1 0.12500000 -8 -8 1374 736 1 2 1 2 0.00000000 0 0 0 0 0.500000 1 0 1.000000 64
        KEYSNAP 0 0 "102034050607" 0 "Major"
        EVTFILTER 0 -1 -1 -1 -1 0 1 0 0 -1.00000000 -1.00000000
      >
    >
  >
  <TRACK '{3B6F726E-1CAB-4A00-9B01-2E1CC375B13E}'
    NAME "PART REAL_KEYS_M"
    PEAKCOL 25231232
    BEAT -1
    AUTOMODE 0
    VOLPAN 1.00000000000000 0.00000000000000 -1.00000000000000 -1.00000000000000 1.00000000000000
    MUTESOLO 1 0 0
    IPHASE 0
    ISBUS 0 0
    BUSCOMP 0 0
    SHOWINMIX 1 0.666700 0.500000 1 0.500000 -1 -1 -1
    FREEMODE 0
    SEL 0
    REC 0 0 0 0 0 0 0
    TRACKHEIGHT 0 0
    INQ 0 0 0 0.5000000000 100 0 0 100
    NCHAN 2
    FX 1
    TRACKID {3B6F726E-1CAB-4A00-9B01-2E1CC375B13E}
    PERF 0
    MIDIOUT -1
    <MIDINOTENAMES
      0 0 "C2-E3 Range"
      0 5 "F2-A3 Range"
      0 9 "A2-C4 Range"
      0 48 "C2 (Lowest Note)"
      0 72 "C4 (Highest Note)"
      0 115 "Solo Marker"
      0 126 "Glissando Marker"
      0 127 "Trill Marker"
      0 125 "----"
      0 116 "Overdrive Marker"
      0 114 "----"
      0 71 "B3"
      0 70 "Bb3"
      0 69 "A3"
      0 68 "G#3"
      0 67 "G3"
      0 66 "F#3"
      0 65 "F3"
      0 64 "E3"
      0 63 "Eb3"
      0 62 "D3"
      0 61 "C#3"
      0 60 "C3"
      0 59 "B2"
      0 58 "Bb2"
      0 57 "A2"
      0 56 "G#2"
      0 55 "G2"
      0 54 "F#2"
      0 53 "F2"
      0 52 "E2"
      0 51 "Eb2"
      0 50 "D2"
      0 49 "C#2"
      0 47 "----"
      0 7 "G2-B3 Range"
      0 4 "E2-G3 Range"
      0 2 "D2-F3 Range"
    >
    MAINSEND 1 0
    <FXCHAIN
      SHOW 0
      LASTSEL 0
      DOCKED 0
      BYPASS 0 0
      <JS "IX/MIDI_Tool II" ""
        0.000000 85.000000 127.000000 0.000000 0.000000 0.000000 100.000000 0.000000 0.000000 127.000000 0.000000 0.000000 1.000000 0.000000 0.000000 - - - - - - - - - - - - - - - - - - - - - - - - - - - - - - - - - - - - - - - - - - - - - - - - - 
      >
      FLOATPOS 0 0 0 0
      FXID {096BA8B0-BFAB-4802-A0D3-DEA88A16B5B2}
      WAK 0
      BYPASS 0 0
      <VST "VSTi: ReaSynth (Cockos)" "reasynth.dll" 0 ""
        eXNlcu9e7f4AAAAAAgAAAAEAAAAAAAAAAgAAAAAAAAA4AAAAAAAAAA==
        AAAAAO++rd4N8K3eppvEOxe30TqcxKA+c2jRPgAAAADMm4A+6WeIPQ==
        AAAAAAAAAD8AAIA/6SaxPgAAAD8AAAAAAAA=
      >
      FLOATPOS 0 0 0 0
      FXID {A5115AF9-13EF-41D8-80FF-CB81A74D6CD4}
      WAK 0
    >
    <ITEM
      POSITION 0.00000000000000
      SNAPOFFS 0.00000000000000
      LENGTH 155.58667925051560
      LOOP 0
      ALLTAKES 0
      SEL 0
      FADEIN 1 0.000000 0.000000 1 0
      FADEOUT 1 0.000000 0.000000 1 0
      MUTE 0
      IGUID {6F5DF5D5-958D-4566-AA6E-AFD27D997F3F}
      IID 17
      NAME "PART REAL_KEYS_M"
      VOLPAN 1.000000 0.000000 1.000000 -1.000000
      SOFFS 0.00000000000000 0.00000000000000
      PLAYRATE 1.00000000000000 1 0.00000000000000 -65536
      CHANMODE 0
      GUID {14BC6779-E32B-455D-A61C-C2E68D8FE08C}
      <SOURCE MIDI
        HASDATA 1 480 QN
        POOLEDEVTS {90FC353E-095F-4B8A-8203-1F7B341CF3FD}
        <X 0 0
          /wNQQVJUIFJFQUxfS0VZU19N
        >
        e 0 90 09 60
        e 480 80 09 00
        e 3360 90 39 60
        e 360 80 39 00
        E 176281 b0 7b 00
        GUID {806139BE-556B-4882-A297-06705078FD7A}
        IGNTEMPO 0 120.00000000 4 4
        SRCCOLOR 1407
        VELLANE 132 128 60
        COLORMAP "C:\Program Files\REAPER\Data\color_maps\rockband_guitarbass.png"
        TEXTSTRINGFILE "C:\Program Files\REAPER\Data\Text_Strings\Text Events List.txt"
        CFGEDITVIEW -4299.275963 82.395269 0 17 0 0 0
        CFGEDIT 1 1 0 1 1 1 1 1 1 1 1 0.12500000 -8 -8 1374 736 1 2 1 2 0.00000000 0 0 0 0 0.500000 1 0 1.000000 64
        KEYSNAP 0 0 "102034050607" 0 "Major"
        EVTFILTER 0 -1 -1 -1 -1 0 1 0 0 -1.00000000 -1.00000000
      >
    >
  >
  <TRACK '{49B8D0E0-0069-415C-8FC3-AC29B0E2C3CF}'
    NAME "PART REAL_KEYS_E"
    PEAKCOL 25231232
    BEAT -1
    AUTOMODE 0
    VOLPAN 1.00000000000000 0.00000000000000 -1.00000000000000 -1.00000000000000 1.00000000000000
    MUTESOLO 1 0 0
    IPHASE 0
    ISBUS 0 0
    BUSCOMP 0 0
    SHOWINMIX 1 0.666700 0.500000 1 0.500000 -1 -1 -1
    FREEMODE 0
    SEL 0
    REC 0 0 0 0 0 0 0
    TRACKHEIGHT 0 0
    INQ 0 0 0 0.5000000000 100 0 0 100
    NCHAN 2
    FX 1
    TRACKID {49B8D0E0-0069-415C-8FC3-AC29B0E2C3CF}
    PERF 0
    MIDIOUT -1
    <MIDINOTENAMES
      0 0 "C2-E3 Range"
      0 5 "F2-A3 Range"
      0 9 "A2-C4 Range"
      0 48 "C2 (Lowest Note)"
      0 72 "C4 (Highest Note)"
      0 115 "Solo Marker"
      0 126 "Glissando Marker"
      0 127 "Trill Marker"
      0 125 "----"
      0 116 "Overdrive Marker"
      0 114 "----"
      0 71 "B3"
      0 70 "Bb3"
      0 69 "A3"
      0 68 "G#3"
      0 67 "G3"
      0 66 "F#3"
      0 65 "F3"
      0 64 "E3"
      0 63 "Eb3"
      0 62 "D3"
      0 61 "C#3"
      0 60 "C3"
      0 59 "B2"
      0 58 "Bb2"
      0 57 "A2"
      0 56 "G#2"
      0 55 "G2"
      0 54 "F#2"
      0 53 "F2"
      0 52 "E2"
      0 51 "Eb2"
      0 50 "D2"
      0 49 "C#2"
      0 47 "----"
      0 7 "G2-B3 Range"
      0 4 "E2-G3 Range"
      0 2 "D2-F3 Range"
    >
    MAINSEND 1 0
    <FXCHAIN
      SHOW 0
      LASTSEL 0
      DOCKED 0
      BYPASS 0 0
      <JS "IX/MIDI_Tool II" ""
        0.000000 85.000000 127.000000 0.000000 0.000000 0.000000 100.000000 0.000000 0.000000 127.000000 0.000000 0.000000 1.000000 0.000000 0.000000 - - - - - - - - - - - - - - - - - - - - - - - - - - - - - - - - - - - - - - - - - - - - - - - - - 
      >
      FLOATPOS 0 0 0 0
      FXID {71EF04AA-9A38-4C4E-8E04-9FB37BDA6361}
      WAK 0
      BYPASS 0 0
      <VST "VSTi: ReaSynth (Cockos)" "reasynth.dll" 0 ""
        eXNlcu9e7f4AAAAAAgAAAAEAAAAAAAAAAgAAAAAAAAA4AAAAAAAAAA==
        AAAAAO++rd4N8K3eppvEOxe30TqcxKA+c2jRPgAAAADMm4A+6WeIPQ==
        AAAAAAAAAD8AAIA/6SaxPgAAAD8AAAAAAAA=
      >
      FLOATPOS 0 0 0 0
      FXID {6C388847-2A2F-4264-AA7A-4C4ACA9A9672}
      WAK 0
    >
    <ITEM
      POSITION 0.00000000000000
      SNAPOFFS 0.00000000000000
      LENGTH 155.58667925051560
      LOOP 0
      ALLTAKES 0
      SEL 0
      FADEIN 1 0.000000 0.000000 1 0
      FADEOUT 1 0.000000 0.000000 1 0
      MUTE 0
      IGUID {656317AD-B690-4307-9096-C4F4536C131B}
      IID 18
      NAME "PART REAL_KEYS_E"
      VOLPAN 1.000000 0.000000 1.000000 -1.000000
      SOFFS 0.00000000000000 0.00000000000000
      PLAYRATE 1.00000000000000 1 0.00000000000000 -65536
      CHANMODE 0
      GUID {43BDFFBF-75D6-4727-BD3F-08B25C56980C}
      <SOURCE MIDI
        HASDATA 1 480 QN
        POOLEDEVTS {17F0C8CA-1E78-4BBA-B5DE-0890674D6BFA}
        <X 0 0
          /wNQQVJUIFJFQUxfS0VZU19F
        >
        E 0 90 09 60
        E 480 80 09 00
        E 180001 b0 7b 00
        GUID {F9363449-15E8-4EF0-8BC0-ABEB4CDC1D98}
        IGNTEMPO 0 120.00000000 4 4
        SRCCOLOR 1408
        VELLANE 132 128 60
        COLORMAP "C:\Program Files\REAPER\Data\color_maps\rockband_guitarbass.png"
        TEXTSTRINGFILE "C:\Program Files\REAPER\Data\Text_Strings\Text Events List.txt"
        CFGEDITVIEW 1257.930012 0.103438 51 12 0 0 0
        CFGEDIT 1 1 0 0 1 1 1 1 1 1 1 0.25000000 0 0 683 728 1 0 0 2 0.12500000 0 0 0 0 0.500000 0 0 1.000000 64
        KEYSNAP 0 0 "102034050607" 0 "Major"
        EVTFILTER 0 -1 -1 -1 -1 0 1 0 0 -1.00000000 -1.00000000
      >
    >
  >
  <TRACK '{80604035-2BD9-43BB-A255-4E5F9E756779}'
    NAME "PART KEYS_ANIM_RH"
    PEAKCOL 16842624
    BEAT -1
    AUTOMODE 0
    VOLPAN 1.00000000000000 0.00000000000000 -1.00000000000000 -1.00000000000000 1.00000000000000
    MUTESOLO 1 0 0
    IPHASE 0
    ISBUS 0 0
    BUSCOMP 0 0
    SHOWINMIX 1 0.666700 0.500000 1 0.500000 -1 -1 -1
    FREEMODE 0
    SEL 0
    REC 0 0 0 0 0 0 0
    TRACKHEIGHT 0 0
    INQ 0 0 0 0.5000000000 100 0 0 100
    NCHAN 2
    FX 1
    TRACKID {80604035-2BD9-43BB-A255-4E5F9E756779}
    PERF 0
    MIDIOUT -1
    <MIDINOTENAMES
      0 48 "C2 (Lowest Note)"
      0 72 "C4 (Highest Note)"
      0 127 "Trill Marker"
      0 126 "Glissando Marker"
      0 125 "----"
      0 116 "Overdrive Marker"
      0 115 "Solo Marker"
      0 114 "----"
      0 71 "B3"
      0 70 "Bb3"
      0 69 "A3"
      0 68 "G#3"
      0 67 "G3"
      0 66 "F#3"
      0 65 "F3"
      0 64 "E3"
      0 63 "Eb3"
      0 62 "D3"
      0 61 "C#3"
      0 60 "C3"
      0 59 "B2"
      0 58 "Bb2"
      0 57 "A2"
      0 56 "G#2"
      0 55 "G2"
      0 54 "F#2"
      0 53 "F2"
      0 52 "E2"
      0 51 "Eb2"
      0 50 "D2"
      0 49 "C#2"
      0 47 "----"
      0 9 "A2-C4 Range"
      0 5 "F2-A3 Range"
      0 0 "C2-E3 Range"
      0 7 "G2-B3 Range"
      0 4 "E2-G3 Range"
      0 2 "D2-F3 Range"
    >
    MAINSEND 1 0
    <FXCHAIN
      SHOW 0
      LASTSEL 0
      DOCKED 0
    >
    <ITEM
      POSITION 0.00000000000000
      SNAPOFFS 0.00000000000000
      LENGTH 155.58667925051560
      LOOP 0
      ALLTAKES 0
      SEL 0
      FADEIN 1 0.000000 0.000000 1 0
      FADEOUT 1 0.000000 0.000000 1 0
      MUTE 0
      IGUID {6A43A4E9-6390-4FBA-9F07-B2C821A1720C}
      IID 19
      NAME "PART KEYS_ANIM_RH"
      VOLPAN 1.000000 0.000000 1.000000 -1.000000
      SOFFS 0.00000000000000 0.00000000000000
      PLAYRATE 1.00000000000000 1 0.00000000000000 -65536
      CHANMODE 0
      GUID {FA5AE238-E1D7-41F5-A663-4C49E4376041}
      <SOURCE MIDI
        HASDATA 1 480 QN
        POOLEDEVTS {71768A15-9E85-423B-A9A1-6EB61F41FE1D}
        <X 0 0
          /wNQQVJUIEtFWVNfQU5JTV9SSA==
        >
        E 180481 b0 7b 00
        GUID {268DE88D-9169-44F5-97A1-ABDA1E2CF031}
        IGNTEMPO 0 120.00000000 4 4
        SRCCOLOR 1409
        VELLANE 132 128 60
        COLORMAP "C:\Program Files\REAPER\Data\color_maps\rockband_guitarbass.png"
        TEXTSTRINGFILE "C:\Program Files\REAPER\Data\Text_Strings\Text Events List.txt"
        CFGEDITVIEW 2612.554938 0.179136 51 12 0 0 0
        CFGEDIT 1 1 0 0 1 1 1 1 1 1 1 0.25000000 0 0 683 728 1 0 0 2 0.00000000 0 0 0 0 0.500000 0 0 1.000000 64
        KEYSNAP 0 0 "102034050607" 0 "Major"
        EVTFILTER 0 -1 -1 -1 -1 0 1 0 0 -1.00000000 -1.00000000
      >
    >
  >
  <TRACK '{F014911F-41F0-491C-9A25-C3D2A462D8D7}'
    NAME "PART KEYS_ANIM_LH"
    PEAKCOL 16842624
    BEAT -1
    AUTOMODE 0
    VOLPAN 1.00000000000000 0.00000000000000 -1.00000000000000 -1.00000000000000 1.00000000000000
    MUTESOLO 1 0 0
    IPHASE 0
    ISBUS 2 -1
    BUSCOMP 0 0
    SHOWINMIX 1 0.666700 0.500000 1 0.500000 -1 -1 -1
    FREEMODE 0
    SEL 0
    REC 0 0 0 0 0 0 0
    TRACKHEIGHT 0 0
    INQ 0 0 0 0.5000000000 100 0 0 100
    NCHAN 2
    FX 1
    TRACKID {F014911F-41F0-491C-9A25-C3D2A462D8D7}
    PERF 0
    MIDIOUT -1
    <MIDINOTENAMES
      0 48 "C2 (Lowest Note)"
      0 72 "C4 (Highest Note)"
      0 127 "Trill Marker"
      0 126 "Glissando Marker"
      0 125 "----"
      0 116 "Overdrive Marker"
      0 115 "Solo Marker"
      0 114 "----"
      0 71 "B3"
      0 70 "Bb3"
      0 69 "A3"
      0 68 "G#3"
      0 67 "G3"
      0 66 "F#3"
      0 65 "F3"
      0 64 "E3"
      0 63 "Eb3"
      0 62 "D3"
      0 61 "C#3"
      0 60 "C3"
      0 59 "B2"
      0 58 "Bb2"
      0 57 "A2"
      0 56 "G#2"
      0 55 "G2"
      0 54 "F#2"
      0 53 "F2"
      0 52 "E2"
      0 51 "Eb2"
      0 50 "D2"
      0 49 "C#2"
      0 47 "----"
      0 9 "A2-C4 Range"
      0 5 "F2-A3 Range"
      0 0 "C2-E3 Range"
      0 7 "G2-B3 Range"
      0 4 "E2-G3 Range"
      0 2 "D2-F3 Range"
    >
    MAINSEND 1 0
    <FXCHAIN
      SHOW 0
      LASTSEL 0
      DOCKED 0
    >
    <ITEM
      POSITION 0.00000000000000
      SNAPOFFS 0.00000000000000
      LENGTH 155.58667925051560
      LOOP 0
      ALLTAKES 0
      SEL 0
      FADEIN 1 0.000000 0.000000 1 0
      FADEOUT 1 0.000000 0.000000 1 0
      MUTE 0
      IGUID {F0F97A68-91AD-4B41-8D32-822B6159FDBC}
      IID 20
      NAME "PART KEYS_ANIM_LH"
      VOLPAN 1.000000 0.000000 1.000000 -1.000000
      SOFFS 0.00000000000000 0.00000000000000
      PLAYRATE 1.00000000000000 1 0.00000000000000 -65536
      CHANMODE 0
      GUID {214023C3-6BA4-450F-A73F-59780553B94C}
      <SOURCE MIDI
        HASDATA 1 480 QN
        POOLEDEVTS {64DCD575-18CC-4E45-B1A2-1F0861FFA34B}
        <X 0 0
          /wNQQVJUIEtFWVNfQU5JTV9MSA==
        >
        E 180481 b0 7b 00
        GUID {9527D45A-14D5-4C89-A39E-3528B0F29941}
        IGNTEMPO 0 120.00000000 4 4
        SRCCOLOR 1410
        VELLANE 132 128 60
        COLORMAP "C:\Program Files\REAPER\Data\color_maps\rockband_guitarbass.png"
        TEXTSTRINGFILE "C:\Program Files\REAPER\Data\Text_Strings\Text Events List.txt"
        CFGEDITVIEW -4299.275963 82.395269 11 17 0 0 0
        CFGEDIT 1 1 0 1 1 1 1 1 1 1 1 0.12500000 -8 -8 1374 736 1 2 1 2 0.00000000 0 0 0 0 0.500000 1 0 1.000000 64
        KEYSNAP 0 0 "102034050607" 0 "Major"
        EVTFILTER 0 -1 -1 -1 -1 0 1 0 0 -1.00000000 -1.00000000
      >
    >
  >
  <TRACK '{4BCC1CF3-63A3-43C4-A155-D3593AD88A10}'
    NAME "EVENTS"
    PEAKCOL 29393024
    BEAT -1
    AUTOMODE 0
    VOLPAN 1.00000000000000 0.00000000000000 -1.00000000000000 -1.00000000000000 1.00000000000000
    MUTESOLO 0 0 0
    IPHASE 0
    ISBUS 0 0
    BUSCOMP 0 0
    SHOWINMIX 1 0.666700 0.500000 1 0.500000 -1 -1 -1
    FREEMODE 0
    SEL 0
    REC 0 0 0 0 0 0 0
    TRACKHEIGHT 0 0
    INQ 0 0 0 0.5000000000 100 0 0 100
    NCHAN 2
    FX 1
    TRACKID {4BCC1CF3-63A3-43C4-A155-D3593AD88A10}
    PERF 0
    MIDIOUT -1
    MAINSEND 1 0
    <FXCHAIN
      SHOW 0
      LASTSEL 0
      DOCKED 0
    >
    <ITEM
      POSITION 0.00000000000000
      SNAPOFFS 0.00000000000000
      LENGTH 65.35888408374450
      LOOP 0
      ALLTAKES 0
      SEL 0
      FADEIN 1 0.000000 0.000000 1 0
      FADEOUT 1 0.000000 0.000000 1 0
      MUTE 0
      IGUID {86A06D27-867C-4398-9CE6-8F0526B3B594}
      IID 21
      NAME "EVENTS"
      VOLPAN 1.000000 0.000000 1.000000 -1.000000
      SOFFS 0.00000000000000 0.00000000000000
      PLAYRATE 1.00000000000000 1 0.00000000000000 -65536
      CHANMODE 0
      GUID {584C8192-4FF3-4E29-8138-2E6BD568B61A}
      <SOURCE MIDI
        HASDATA 1 480 QN
        POOLEDEVTS {2DCB2C67-EE2E-47B1-BDB4-F425049365D1}
        <X 0 0
          /wNFVkVOVFM=
        >
        <X 0 0
          /wFbY3Jvd2Rfbm9ybWFsXQ==
        >
        <X 0 0
          /wFbcHJjX2ludHJvXQ==
        >
        <X 3840 0
          /wFbbXVzaWNfc3RhcnRd
        >
        <X 3360 0
          /wFbcHJjX3ZlcnNlXzFhXQ==
        >
        <X 15840 0
          /wFbcHJjX3ZlcnNlXzFiXQ==
        >
        <X 14400 0
          /wFbcHJjX2Nob3J1c18xYV0=
        >
        <X 15360 0
          /wFbcHJjX2Nob3J1c18xYl0=
        >
        <X 14760 0
          /wFbcHJjX291dHJvXQ==
        >
        <X 5400 0
          /wFbbXVzaWNfZW5kXQ==
        >
        <X 1920 0
          /wFbZW5kXQ==
        >
        E 959 b0 7b 00
        GUID {40AD7956-A22A-434A-8513-4D3792B9DF69}
        IGNTEMPO 0 120.00000000 4 4
        SRCCOLOR 1411
        VELLANE 132 100 100
        COLORMAP "M:\RGS Documents\ColorMaps\rockband_vox-other.png"
        TEXTSTRINGFILE "Text Events List.txt"
        CFGEDITVIEW 47772.528858 47.228186 2 48 0 0 0
        CFGEDIT 1 1 0 0 0 1 1 1 1 1 1 0.25000000 44 63 1223 847 1 2 1 2 0.00000000 0 0 0 0 0.500000 1 0 1.000000 64
        KEYSNAP 0 0 "102034050607" 0 "Major"
        EVTFILTER 0 -1 -1 -1 -1 0 1 0 0 -1.00000000 -1.00000000
      >
    >
  >
  <TRACK '{1529008F-97D2-43EB-8634-7C5A7418AD90}'
    NAME "VENUE"
    PEAKCOL 16842496
    BEAT -1
    AUTOMODE 0
    VOLPAN 1.00000000000000 0.00000000000000 -1.00000000000000 -1.00000000000000 1.00000000000000
    MUTESOLO 0 0 0
    IPHASE 0
    ISBUS 0 0
    BUSCOMP 0 0
    SHOWINMIX 1 0.666700 0.500000 1 0.500000 -1 -1 -1
    FREEMODE 0
    SEL 0
    REC 0 0 0 0 0 0 0
    TRACKHEIGHT 0 0
    INQ 0 0 0 0.5000000000 100 0 0 100
    NCHAN 2
    FX 1
    TRACKID {1529008F-97D2-43EB-8634-7C5A7418AD90}
    PERF 0
    MIDIOUT -1
    <MIDINOTENAMES
      0 87 "Guitarist Sing Along"
      0 86 "Drummer Sing Along"
      0 85 "Bassist Sing Along"
      0 40 "Spotlight on Vocals"
      0 39 "Spotlight on Guitar"
      0 38 "Spotlight on Drums"
      0 37 "Spotlight on Bass"
      0 41 "Spotlight on Keys"
    >
    MAINSEND 1 0
    <FXCHAIN
      SHOW 0
      LASTSEL 0
      DOCKED 0
    >
    <ITEM
      POSITION 0.00000000000000
      SNAPOFFS 0.00000000000000
      LENGTH 65.35888408374450
      LOOP 0
      ALLTAKES 0
      SEL 0
      FADEIN 1 0.000000 0.000000 1 0
      FADEOUT 1 0.000000 0.000000 1 0
      MUTE 0
      IGUID {71027329-E0AB-447D-A192-4839733334E7}
      IID 22
      NAME "VENUE"
      VOLPAN 1.000000 0.000000 1.000000 -1.000000
      SOFFS 0.00000000000000 0.00000000000000
      PLAYRATE 1.00000000000000 1 0.00000000000000 -65536
      CHANMODE 0
      GUID {44F0FFD1-5109-4A47-8BED-262AA04D3B23}
      <SOURCE MIDI
        HASDATA 1 480 QN
        POOLEDEVTS {9CBD9D72-92C7-4AA5-A081-FA497BCF2604}
        <X 0 0
          /wNWRU5VRQ==
        >
        <X 0 0
          /wFbbGlnaHRpbmcgKCld
        >
        E 75839 b0 7b 00
        GUID {30097062-47C5-4B33-B665-170EF09D70D9}
        IGNTEMPO 0 120.00000000 4 4
        SRCCOLOR 1412
        VELLANE 132 230 230
        COLORMAP "M:\RGS Documents\ColorMaps\rockband_vox-other.png"
        TEXTSTRINGFILE "Text Events List.txt"
        CFGEDITVIEW -4299.275963 82.395269 79 12 0 0 0
        CFGEDIT 1 1 0 0 1 1 1 1 1 1 1 0.25000000 133 19 1300 803 1 0 1 2 0.00000000 0 0 0 0 0.500000 1 0 1.000000 64
        KEYSNAP 0 0 "102034050607" 0 "Major"
        EVTFILTER 0 -1 -1 -1 -1 0 1 0 0 -1.00000000 -1.00000000
      >
    >
  >
  <TRACK '{7BC63EFC-0ABC-4D0D-8204-E9893AE9FFFA}'
    NAME "BEAT"
    PEAKCOL 23514346
    BEAT -1
    AUTOMODE 0
    VOLPAN 1.00000000000000 0.00000000000000 -1.00000000000000 -1.00000000000000 1.00000000000000
    MUTESOLO 0 0 0
    IPHASE 0
    ISBUS 0 0
    BUSCOMP 1 0
    SHOWINMIX 1 0.666700 0.500000 1 0.500000 -1 -1 -1
    FREEMODE 0
    SEL 0
    REC 0 0 0 0 0 0 0
    TRACKHEIGHT 0 0
    INQ 0 0 0 0.5000000000 100 0 0 100
    NCHAN 2
    FX 1
    TRACKID {7BC63EFC-0ABC-4D0D-8204-E9893AE9FFFA}
    PERF 0
    MIDIOUT -1
    <MIDINOTENAMES
      0 12 "Downbeat"
      0 13 "Up Beats"
    >
    MAINSEND 1 0
    <FXCHAIN
      SHOW 0
      LASTSEL 0
      DOCKED 0
    >
    <ITEM
      POSITION 0.00000000000000
      SNAPOFFS 0.00000000000000
      LENGTH 65.35888408374450
      LOOP 0
      ALLTAKES 0
      SEL 0
      FADEIN 1 0.000000 0.000000 1 0
      FADEOUT 1 0.000000 0.000000 1 0
      MUTE 0
      IGUID {9960CDFD-BF2E-4E67-97CD-4F13D0A3F2ED}
      IID 23
      NAME "BEAT"
      VOLPAN 1.000000 0.000000 1.000000 -1.000000
      SOFFS 0.00000000000000 0.00000000000000
      PLAYRATE 1.00000000000000 1 0.00000000000000 -65536
      CHANMODE 0
      GUID {CEBFDCF1-B2BD-47E1-A085-C26E1C9E9ED2}
      <SOURCE MIDI
        HASDATA 1 480 QN
        POOLEDEVTS {47D4CE03-1008-43F3-8AAD-B9CBC706CDEA}
        <X 0 0
          /wNCRUFU
        >
        e 0 96 0c 64
        e 120 86 0c 00
        e 360 96 0d 64
        e 120 86 0d 00
        e 360 96 0d 64
        e 120 86 0d 00
        e 360 96 0d 64
        e 120 86 0d 00
        e 360 96 0c 64
        e 120 86 0c 00
        e 360 96 0d 64
        e 120 86 0d 00
        e 360 96 0d 64
        e 120 86 0d 00
        e 360 96 0d 64
        e 120 86 0d 00
        e 360 96 0c 64
        e 120 86 0c 00
        e 360 96 0d 64
        e 120 86 0d 00
        e 360 96 0d 64
        e 120 86 0d 00
        e 360 96 0d 64
        e 120 86 0d 00
        e 360 96 0c 64
        e 120 86 0c 00
        e 360 96 0d 64
        e 120 86 0d 00
        e 360 96 0d 64
        e 120 86 0d 00
        e 360 96 0d 64
        e 120 86 0d 00
        e 360 96 0c 64
        e 120 86 0c 00
        e 360 96 0d 64
        e 120 86 0d 00
        e 360 96 0d 64
        e 120 86 0d 00
        e 360 96 0d 64
        e 120 86 0d 00
        e 360 96 0c 64
        e 120 86 0c 00
        e 360 96 0d 64
        e 120 86 0d 00
        e 360 96 0d 64
        e 120 86 0d 00
        e 360 96 0d 64
        e 120 86 0d 00
        e 360 96 0c 64
        e 120 86 0c 00
        e 360 96 0d 64
        e 120 86 0d 00
        e 360 96 0d 64
        e 120 86 0d 00
        e 360 96 0d 64
        e 120 86 0d 00
        e 360 96 0c 64
        e 120 86 0c 00
        e 360 96 0d 64
        e 120 86 0d 00
        e 360 96 0d 64
        e 120 86 0d 00
        e 360 96 0d 64
        e 120 86 0d 00
        e 360 96 0c 64
        e 120 86 0c 00
        e 360 96 0d 64
        e 120 86 0d 00
        e 360 96 0d 64
        e 120 86 0d 00
        e 360 96 0d 64
        e 120 86 0d 00
        e 360 96 0c 64
        e 120 86 0c 00
        e 360 96 0d 64
        e 120 86 0d 00
        e 360 96 0d 64
        e 120 86 0d 00
        e 360 96 0d 64
        e 120 86 0d 00
        e 360 96 0c 64
        e 120 86 0c 00
        e 360 96 0d 64
        e 120 86 0d 00
        e 360 96 0d 64
        e 120 86 0d 00
        e 360 96 0d 64
        e 120 86 0d 00
        e 360 96 0c 64
        e 120 86 0c 00
        e 360 96 0d 64
        e 120 86 0d 00
        e 360 96 0d 64
        e 120 86 0d 00
        e 360 96 0d 64
        e 120 86 0d 00
        e 360 96 0c 64
        e 120 86 0c 00
        e 360 96 0d 64
        e 120 86 0d 00
        e 360 96 0d 64
        e 120 86 0d 00
        e 360 96 0d 64
        e 120 86 0d 00
        e 360 96 0c 64
        e 120 86 0c 00
        e 360 96 0d 64
        e 120 86 0d 00
        e 360 96 0d 64
        e 120 86 0d 00
        e 360 96 0d 64
        e 120 86 0d 00
        e 360 96 0c 64
        e 120 86 0c 00
        e 360 96 0d 64
        e 120 86 0d 00
        e 360 96 0d 64
        e 120 86 0d 00
        e 360 96 0d 64
        e 120 86 0d 00
        e 360 96 0c 64
        e 120 86 0c 00
        e 360 96 0d 64
        e 120 86 0d 00
        e 360 96 0d 64
        e 120 86 0d 00
        e 360 96 0d 64
        e 120 86 0d 00
        e 360 96 0c 64
        e 120 86 0c 00
        e 360 96 0d 64
        e 120 86 0d 00
        e 360 96 0d 64
        e 120 86 0d 00
        e 360 96 0d 64
        e 120 86 0d 00
        e 360 96 0c 64
        e 120 86 0c 00
        e 360 96 0d 64
        e 120 86 0d 00
        e 360 96 0d 64
        e 120 86 0d 00
        e 360 96 0d 64
        e 120 86 0d 00
        e 360 96 0c 64
        e 120 86 0c 00
        e 360 96 0d 64
        e 120 86 0d 00
        e 360 96 0d 64
        e 120 86 0d 00
        e 360 96 0d 64
        e 120 86 0d 00
        e 360 96 0c 64
        e 120 86 0c 00
        e 360 96 0d 64
        e 120 86 0d 00
        e 360 96 0d 64
        e 120 86 0d 00
        e 360 96 0d 64
        e 120 86 0d 00
        e 360 96 0c 64
        e 120 86 0c 00
        e 360 96 0d 64
        e 120 86 0d 00
        e 360 96 0d 64
        e 120 86 0d 00
        e 360 96 0d 64
        e 120 86 0d 00
        e 360 96 0c 64
        e 120 86 0c 00
        e 360 96 0d 64
        e 120 86 0d 00
        e 360 96 0d 64
        e 120 86 0d 00
        e 360 96 0d 64
        e 120 86 0d 00
        e 360 96 0c 64
        e 120 86 0c 00
        e 360 96 0d 64
        e 120 86 0d 00
        e 360 96 0d 64
        e 120 86 0d 00
        e 360 96 0d 64
        e 120 86 0d 00
        e 360 96 0c 64
        e 120 86 0c 00
        e 360 96 0d 64
        e 120 86 0d 00
        e 360 96 0d 64
        e 120 86 0d 00
        e 360 96 0d 64
        e 120 86 0d 00
        e 360 96 0c 64
        e 120 86 0c 00
        e 360 96 0d 64
        e 120 86 0d 00
        e 360 96 0d 64
        e 120 86 0d 00
        e 360 96 0d 64
        e 120 86 0d 00
        e 360 96 0c 64
        e 120 86 0c 00
        e 360 96 0d 64
        e 120 86 0d 00
        e 360 96 0d 64
        e 120 86 0d 00
        e 360 96 0d 64
        e 120 86 0d 00
        e 360 96 0c 64
        e 120 86 0c 00
        e 360 96 0d 64
        e 120 86 0d 00
        e 360 96 0d 64
        e 120 86 0d 00
        e 360 96 0d 64
        e 120 86 0d 00
        e 360 96 0c 64
        e 120 86 0c 00
        e 360 96 0d 64
        e 120 86 0d 00
        e 360 96 0d 64
        e 120 86 0d 00
        e 360 96 0d 64
        e 120 86 0d 00
        e 360 96 0c 64
        e 120 86 0c 00
        e 360 96 0d 64
        e 120 86 0d 00
        e 360 96 0d 64
        e 120 86 0d 00
        e 360 96 0d 64
        e 120 86 0d 00
        e 360 96 0c 64
        e 120 86 0c 00
        e 360 96 0d 64
        e 120 86 0d 00
        e 360 96 0d 64
        e 120 86 0d 00
        e 360 96 0d 64
        e 120 86 0d 00
        e 360 96 0c 64
        e 120 86 0c 00
        e 360 96 0d 64
        e 120 86 0d 00
        e 360 96 0d 64
        e 120 86 0d 00
        e 360 96 0d 64
        e 120 86 0d 00
        e 360 96 0c 64
        e 120 86 0c 00
        e 360 96 0d 64
        e 120 86 0d 00
        e 360 96 0d 64
        e 120 86 0d 00
        e 360 96 0d 64
        e 120 86 0d 00
        e 360 96 0c 64
        e 120 86 0c 00
        e 360 96 0d 64
        e 120 86 0d 00
        e 360 96 0d 64
        e 120 86 0d 00
        e 360 96 0d 64
        e 120 86 0d 00
        e 360 96 0c 64
        e 120 86 0c 00
        e 360 96 0d 64
        e 120 86 0d 00
        e 360 96 0d 64
        e 120 86 0d 00
        e 360 96 0d 64
        e 120 86 0d 00
        e 360 96 0c 64
        e 120 86 0c 00
        e 360 96 0d 64
        e 120 86 0d 00
        e 360 96 0d 64
        e 120 86 0d 00
        e 360 96 0d 64
        e 120 86 0d 00
        e 360 96 0c 64
        e 120 86 0c 00
        e 360 96 0d 64
        e 120 86 0d 00
        e 360 96 0d 64
        e 120 86 0d 00
        e 360 96 0d 64
        e 120 86 0d 00
        e 360 96 0c 64
        e 120 86 0c 00
        e 360 96 0d 64
        e 120 86 0d 00
        e 360 96 0d 64
        e 120 86 0d 00
        e 360 96 0d 64
        e 120 86 0d 00
        e 360 96 0c 64
        e 120 86 0c 00
        e 360 96 0d 64
        e 120 86 0d 00
        e 360 96 0d 64
        e 120 86 0d 00
        e 360 96 0d 64
        e 120 86 0d 00
        e 360 96 0c 64
        e 120 86 0c 00
        e 360 96 0d 64
        e 120 86 0d 00
        e 360 96 0d 64
        e 120 86 0d 00
        e 360 96 0d 64
        e 120 86 0d 00
        E 101760 b0 7b 00
        GUID {8CB930E8-B6A0-4CAD-825A-9F47FB66C1D0}
        IGNTEMPO 0 120.00000000 4 4
        SRCCOLOR 1413
        VELLANE 132 100 100
        COLORMAP "M:\RGS Documents\ColorMaps\rockband_vox-other.png"
        TEXTSTRINGFILE "Text Events List.txt"
        CFGEDITVIEW 63176.144263 131.412937 0 48 0 0 0
        CFGEDIT 1 1 0 0 0 1 1 1 1 1 1 1.00000000 44 63 1223 847 1 2 1 2 0.00000000 0 0 0 0 0.500000 1 0 1.000000 64
        KEYSNAP 0 0 "102034050607" 0 "Major"
        EVTFILTER 0 -1 -1 -1 -1 0 1 0 0 -1.00000000 -1.00000000
      >
    >
  >
  <TRACK '{0E2FE3F2-76C0-4A51-94D0-F118951ACC28}'
    NAME "PART REAL_GUITAR"
    PEAKCOL 16576
    BEAT -1
    AUTOMODE 0
    VOLPAN 1.00000000000000 0.00000000000000 -1.00000000000000 -1.00000000000000 1.00000000000000
    MUTESOLO 1 0 0
    IPHASE 0
    ISBUS 0 0
    BUSCOMP 0 0
    SHOWINMIX 1 0.666700 0.500000 1 0.500000 -1 -1 -1
    FREEMODE 0
    SEL 0
    REC 0 0 0 0 0 0 0
    TRACKHEIGHT 0 0
    INQ 0 0 0 0.5000000000 100 0 0 100
    NCHAN 2
    FX 1
    TRACKID {0E2FE3F2-76C0-4A51-94D0-F118951ACC28}
    PERF 0
    MIDIOUT -1
    <MIDINOTENAMES
      0 101 "EXPERT E String (HIGH)"
      0 100 "EXPERT B String"
      0 99 "EXPERT G String"
      0 98 "EXPERT D String"
      0 97 "EXPERT A String"
      0 96 "EXPERT E String (LOW)"
      0 77 "HARD E String (HIGH)"
      0 72 "HARD E String (LOW)"
      0 53 "MEDIUM E String (HIGH)"
      0 48 "MEDIUM E String (LOW)"
      0 29 "EASY E String (HIGH)"
      0 24 "EASY E String (LOW)"
      0 76 "HARD B String"
      0 75 "HARD G String"
      0 74 "HARD D String"
      0 73 "HARD A String"
      0 52 "MEDIUM B String"
      0 51 "MEDIUM G String"
      0 50 "MEDIUM D String"
      0 49 "MEDIUM A String"
      0 28 "EASY B String"
      0 27 "EASY G String"
      0 26 "EASY D String"
      0 25 "EASY A String"
      0 116 "OVERDRIVE"
      0 115 "Solo Marker"
      0 125 "BRE"
      0 120 "BRE (use all 6)"
      0 124 "BRE"
      0 123 "BRE"
      0 122 "BRE"
      0 121 "BRE"
      0 127 "Trill"
      0 126 "Tremelo"
      0 108 "Left hand position"
      0 107 "Force Chord Numbering"
      0 104 "EXPERT Arpeggio Marker"
      0 103 "EXPERT Slide Marker"
      0 102 "EXPERT Force Ho/Po"
      0 80 "HARD Arpeggio Marker"
      0 79 "HARD Slide Marker"
      0 78 "Force Ho/Po"
      0 55 "MEDIUM Slide Marker"
      0 31 "EASY Slide Marker"
      0 17 "Hide Chord Names"
      0 15 "Eb"
      0 14 "D"
      0 13 "Db"
      0 12 "C"
      0 11 "B"
      0 10 "Bb"
      0 9 "A"
      0 8 "Ab"
      0 7 "G"
      0 6 "Gb"
      0 5 "F"
      0 4 "E"
      0 105 "EXPERT Strum Direction"
      0 81 "HARD Strum Direction"
      0 56 "MEDIUM Arpeggio Marker"
      0 32 "EASY Arpeggio Marker"
      0 21 "CHORD NAMES"
      0 18 "Flat/Sharp Swap"
      0 16 "Slash Chord"
    >
    MAINSEND 1 0
    <FXCHAIN
      SHOW 0
      LASTSEL 0
      DOCKED 0
    >
    <ITEM
      POSITION 0.00000000000000
      SNAPOFFS 0.00000000000000
      LENGTH 156.00056604067410
      LOOP 0
      ALLTAKES 0
      SEL 0
      FADEIN 1 0.000000 0.000000 1 0
      FADEOUT 1 0.000000 0.000000 1 0
      MUTE 0
      IGUID {20F1321F-9ED7-4853-AD09-40B222B05CF8}
      IID 24
      NAME "PART REAL_GUITAR"
      VOLPAN 1.000000 0.000000 1.000000 -1.000000
      SOFFS 0.00000000000000 0.00000000000000
      PLAYRATE 1.00000000000000 1 0.00000000000000 -1
      CHANMODE 0
      GUID {3CDDC74F-292B-448F-83EC-680F8CEF1C9B}
      <SOURCE MIDI
        HASDATA 1 480 QN
        POOLEDEVTS {C5BDB9B3-BA2E-4C22-902D-3F05154517AC}
        <X 0 0
          /wNQQVJUIFJFQUxfR1VJVEFS
        >
        E 3840 90 18 64
        E 0 90 19 64
        E 0 90 1a 64
        E 0 90 1b 64
        E 0 90 1c 64
        E 0 90 1d 64
        E 0 90 30 64
        E 0 90 31 64
        E 0 90 32 64
        E 0 90 33 64
        E 0 90 34 64
        E 0 90 35 64
        E 0 90 48 64
        E 0 90 49 64
        E 0 90 4a 64
        E 0 90 4b 64
        E 0 90 4c 64
        E 0 90 4d 64
        E 0 90 60 64
        E 0 90 61 64
        E 0 90 62 64
        E 0 90 63 64
        E 0 90 64 64
        E 0 90 65 64
        E 120 80 18 00
        E 0 80 19 00
        E 0 80 1a 00
        E 0 80 1b 00
        E 0 80 1c 00
        E 0 80 1d 00
        E 0 80 30 00
        E 0 80 31 00
        E 0 80 32 00
        E 0 80 33 00
        E 0 80 34 00
        E 0 80 35 00
        E 0 80 48 00
        E 0 80 49 00
        E 0 80 4a 00
        E 0 80 4b 00
        E 0 80 4c 00
        E 0 80 4d 00
        E 0 80 60 00
        E 0 80 61 00
        E 0 80 62 00
        E 0 80 63 00
        E 0 80 64 00
        E 0 80 65 00
        E 177000 b0 7b 00
        GUID {95EB2031-BC44-4B36-809B-F7595C07BF30}
        IGNTEMPO 0 120.00000000 4 4
        SRCCOLOR 1414
        VELLANE 132 123 128
        COLORMAP "C:\Program Files\REAPER\Data\color_maps\rockband_guitarbass.png"
        TEXTSTRINGFILE "C:\Program Files\REAPER\Data\Text_Strings\Text Events List.txt"
        CFGEDITVIEW 0.000000 0.103438 87 12 0 0 0
        CFGEDIT 1 1 0 0 0 1 1 1 1 1 1 0.25000000 0 0 683 728 1 0 0 2 0.12500000 0 1 0 0 0.500000 0 0 1.000000 64
        KEYSNAP 0 0 "102034050607" 0 "Major"
        EVTFILTER 0 -1 -1 -1 -1 0 1 0 0 -1.00000000 -1.00000000
      >
    >
  >
  <TRACK '{4048E3A2-B3FC-493C-BF0E-D7B7B9F9DFF3}'
    NAME "PART REAL_BASS"
    PEAKCOL 16576
    BEAT -1
    AUTOMODE 0
    VOLPAN 1.00000000000000 0.00000000000000 -1.00000000000000 -1.00000000000000 1.00000000000000
    MUTESOLO 1 0 0
    IPHASE 0
    ISBUS 0 0
    BUSCOMP 0 0
    SHOWINMIX 1 0.666700 0.500000 1 0.500000 -1 -1 -1
    FREEMODE 0
    SEL 0
    REC 0 0 0 0 0 0 0
    TRACKHEIGHT 0 0
    INQ 0 0 0 0.5000000000 100 0 0 100
    NCHAN 2
    FX 1
    TRACKID {4048E3A2-B3FC-493C-BF0E-D7B7B9F9DFF3}
    PERF 0
    MIDIOUT -1
    <MIDINOTENAMES
      0 99 "EXPERT G String"
      0 98 "EXPERT D String"
      0 97 "EXPERT A String"
      0 96 "EXPERT E String (LOW)"
      0 72 "HARD E String (LOW)"
      0 48 "MEDIUM E String (LOW)"
      0 24 "EASY E String (LOW)"
      0 75 "HARD G String"
      0 74 "HARD D String"
      0 73 "HARD A String"
      0 51 "MEDIUM G String"
      0 50 "MEDIUM D String"
      0 49 "MEDIUM A String"
      0 27 "EASY G String"
      0 26 "EASY D String"
      0 25 "EASY A String"
      0 116 "OVERDRIVE"
      0 115 "Solo Marker"
      0 120 "BRE (use all 6)"
      0 123 "BRE"
      0 122 "BRE"
      0 121 "BRE"
      0 127 "Trill"
      0 126 "Tremelo"
      0 125 "BRE"
      0 124 "BRE"
      0 108 "Left hand position"
      0 107 "Force Chord Numbering"
      0 104 "EXPERT Arpeggio Marker"
      0 103 "EXPERT Slide Marker"
      0 102 "EXPERT Force Ho/Po"
      0 101 "EXPERT E String (HIGH)"
      0 100 "EXPERT B String"
      0 80 "HARD Arpeggio Marker"
      0 79 "HARD Slide Marker"
      0 78 "Force Ho/Po"
      0 77 "HARD E String (HIGH)"
      0 76 "HARD B String"
      0 55 "MEDIUM Slide Marker"
      0 53 "MEDIUM E String (HIGH)"
      0 52 "MEDIUM B String"
      0 31 "EASY Slide Marker"
      0 29 "EASY E String (HIGH)"
      0 28 "EASY B String"
      0 17 "Hide Chord Names"
      0 15 "Eb"
      0 14 "D"
      0 13 "Db"
      0 12 "C"
      0 11 "B"
      0 10 "Bb"
      0 9 "A"
      0 8 "Ab"
      0 7 "G"
      0 6 "Gb"
      0 5 "F"
      0 4 "E"
      0 105 "EXPERT Strum Direction"
      0 81 "HARD Strum Direction"
      0 56 "MEDIUM Arpeggio Marker"
      0 32 "EASY Arpeggio Marker"
      0 21 "CHORD NAMES"
      0 18 "Flat/Sharp Swap"
      0 16 "Slash Chord"
    >
    MAINSEND 1 0
    <FXCHAIN
      SHOW 0
      LASTSEL 0
      DOCKED 0
    >
    <ITEM
      POSITION 0.00000000000000
      SNAPOFFS 0.00000000000000
      LENGTH 156.00056604067410
      LOOP 0
      ALLTAKES 0
      SEL 0
      FADEIN 1 0.000000 0.000000 1 0
      FADEOUT 1 0.000000 0.000000 1 0
      MUTE 0
      IGUID {20F1321F-9ED7-4853-AD09-40B222B05CF8}
      IID 25
      NAME "PART REAL_BASS"
      VOLPAN 1.000000 0.000000 1.000000 -1.000000
      SOFFS 0.00000000000000 0.00000000000000
      PLAYRATE 1.00000000000000 1 0.00000000000000 -1
      CHANMODE 0
      GUID {3CDDC74F-292B-448F-83EC-680F8CEF1C9B}
      <SOURCE MIDI
        HASDATA 1 480 QN
        POOLEDEVTS {F2935729-A075-4B59-B204-366FBAD852CB}
        <X 0 0
          /wNQQVJUIFJFQUxfQkFTUw==
        >
        E 3840 90 18 64
        E 0 90 19 64
        E 0 90 1a 64
        E 0 90 1b 64
        E 0 90 30 64
        E 0 90 31 64
        E 0 90 32 64
        E 0 90 33 64
        E 0 90 48 64
        E 0 90 49 64
        E 0 90 4a 64
        E 0 90 4b 64
        E 0 90 60 64
        E 0 90 61 64
        E 0 90 62 64
        E 0 90 63 64
        E 120 80 18 00
        E 0 80 19 00
        E 0 80 1a 00
        E 0 80 1b 00
        E 0 80 30 00
        E 0 80 31 00
        E 0 80 32 00
        E 0 80 33 00
        E 0 80 48 00
        E 0 80 49 00
        E 0 80 4a 00
        E 0 80 4b 00
        E 0 80 60 00
        E 0 80 61 00
        E 0 80 62 00
        E 0 80 63 00
        E 177000 b0 7b 00
        GUID {95EB2031-BC44-4B36-809B-F7595C07BF30}
        IGNTEMPO 0 120.00000000 4 4
        SRCCOLOR 1415
        VELLANE 132 123 128
        COLORMAP "C:\Program Files\REAPER\Data\color_maps\rockband_guitarbass.png"
        TEXTSTRINGFILE "C:\Program Files\REAPER\Data\Text_Strings\Text Events List.txt"
        CFGEDITVIEW 0.000000 0.179136 0 12 0 0 0
        CFGEDIT 1 1 0 0 0 1 1 1 1 1 1 0.25000000 0 0 683 728 1 0 0 2 0.00000000 0 1 0 0 0.500000 0 0 1.000000 64
        KEYSNAP 0 0 "102034050607" 0 "Major"
        EVTFILTER 0 -1 -1 -1 -1 0 1 0 0 -1.00000000 -1.00000000
      >
    >
  >
>
