<REAPER_PROJECT 0.1 "4.22/x64"
  RIPPLE 0
  GROUPOVERRIDE 0 1 0
  AUTOXFADE 1
  ENVATTACH 1
  MIXERUIFLAGS 11 48
  PEAKGAIN 1.00000000000000
  FEEDBACK 0
  PANLAW 1.00000000000000
  PROJOFFS 0.00000000000000 0
  MAXPROJLEN 0 600.00000000000000
  GRID 1151 8 1.00000000000000 8 1.00000000000000 0
  TIMEMODE 1 0 -1
  CURSOR 5.00000000000000
  ZOOM 138.03453161757014 0 0
  VZOOMEX 0
  USE_REC_CFG 0
  RECMODE 1
  SMPTESYNC 0 30.000000 100 40 1000 300 0 0.000000 0
  LOOP 1
  LOOPGRAN 0 4.00000000000000
  RECORD_PATH "" ""
  <RECORD_CFG
    ZXZhdxgA
  >
  <APPLYFX_CFG
  >
  RENDER_FILE ""
  RENDER_PATTERN ""
  RENDER_FMT 0 2 0
  RENDER_1X 0
  RENDER_RANGE 1 0.00000000000000 0.00000000000000
  RENDER_RESAMPLE 3 0 1
  RENDER_ADDTOPROJ 0
  RENDER_STEMS 0
  RENDER_DITHER 0
  TIMELOCKMODE 0
  ITEMMIX 0
  DEFPITCHMODE 0
  TAKELANE 1
  SAMPLERATE 44100 0 0
  <RENDER_CFG
  >
  LOCK 1
  <METRONOME 6 2.000000
    VOL 0.752735 0.723913
    FREQ 800 1600 0
    BEATLEN 4
    SAMPLES "" ""
  >
  GLOBAL_AUTO -1
  TEMPO 120.00000000000000 4 4
  PLAYRATE 1.00000000000000 0 0.25000 4.00000
  SELECTION 244.61068090189582 244.61068090189582
  SELECTION2 244.61068090189582 244.61068090189582
  MASTERAUTOMODE 0
  MASTERTRACKHEIGHT 35
  MASTERPEAKCOL 16576
  MASTERMUTESOLO 0
  MASTERTRACKVIEW 1 0.666700 0.500000 0.500000 -1 -1 -1
  MASTERHWOUT 0 0 1.00000000000000 0.00000000000000 0 0 0 -1.00000000000000
  MASTER_NCH 2 2
  MASTER_VOLUME 1.05925372517729 0.00000000000000 -1.00000000000000 -1.00000000000000 1.00000000000000
  MASTER_FX 1
  MASTER_SEL 0
  <MASTERFXLIST
    SHOW 0
    LASTSEL 0
    DOCKED 0
    BYPASS 0 0
    <VST "VST: W1 Limiter (George Yohng)" "George Yohng_s W1 Limiter.dll" 0 ""
      THdGNO5e7f4CAAAAAQAAAAAAAAACAAAAAAAAAAIAAAABAAAAAAAAAA==
      AgAAAAAAAABMAAAAAQAAAAAAEAAMAACBdGhyZXNoAAD+1Hg/DAAAgQ==
      Y2VpbGluZwD+1Hg/DAAAgXJlbGVhc2UAMEAfPxQAAIFhZGFwdFJlbA==
      ZWFzZQAAAAAAAAAAAAAAgAAAEAAAAA==
    >
    FLOATPOS 24 24 481 152
    FXID {69D45D23-FE06-4141-B0BB-1A6D9443AFA8}
    WAK 0
  >
  <MASTERPLAYSPEEDENV
    ACT 0
    VIS 0 1 1.000000
    LANEHEIGHT 0 0
    ARM 0
    DEFSHAPE 0 -1 -1
  >
  <TEMPOENVEX
    ACT 1
    VIS 1 0 1.000000
    LANEHEIGHT 0 0
    ARM 0
    DEFSHAPE 1 -1 -1
    PT 0.000000000000 156.0000000000 1
    PT 9.230769230769 156.1883588926 1
    PT 10.767375426658 156.3020602770 1
    PT 12.302863823769 155.3431519318 1
    PT 13.847830544319 155.9811114880 1
    PT 15.386478382577 156.6243325663 1
    PT 16.918807338542 155.6614780628 1
    PT 18.460614617946 155.9811114880 1
    PT 19.999262456204 155.6614780628 1
    PT 21.541069735608 155.9811114880 1
    PT 23.079717573866 156.3020602770 1
    PT 24.615205970977 155.9811114880 1
    PT 26.153853809235 156.6243325663 1
    PT 27.686182765200 155.5655561716 1
    PT 29.228940724650 155.6746145711 1
    PT 30.770617899578 156.6335957697 1
    PT 32.302856234659 155.6746145711 1
    PT 33.844533409587 155.9929675662 1
    PT 35.383064304565 155.6746145711 1
    PT 36.924741479493 156.6335957697 1
    PT 38.456979814574 155.3575583297 1
    PT 40.001803269451 156.3126252866 1
    PT 41.537187884481 155.6746145711 1
    PT 43.078865059409 156.3126252866 1
    PT 44.614249674439 156.3126252866 1
    PT 46.149634289469 155.6746145711 1
    PT 47.691311464396 156.3126252866 1
    PT 49.226696079427 155.6746145711 1
    PT 50.768373254354 155.6746145711 1
    PT 52.310050429282 156.3126252866 1
    PT 53.845435044312 155.9929675662 1
    PT 55.383965939291 156.3126252866 1
    PT 56.919350554321 155.6746145711 1
    PT 58.461027729249 155.6746145711 1
    PT 60.002704904176 155.9929675662 1
    PT 61.541235799155 156.3126252866 1
    PT 63.076620414185 155.9929675662 1
    PT 64.615151309164 156.6335957697 1
    PT 66.147389644245 155.6746145711 1
    PT 67.689066819173 155.9929675662 1
    PT 69.227597714152 155.9929675662 1
    PT 70.766128609131 155.6746145711 1
    PT 72.307805784059 156.3126252866 1
    PT 73.843190399089 155.6746145711 1
    PT 75.384867574016 156.3126252866 1
    PT 76.920252189046 155.3575583297 1
    PT 78.465075643923 156.6335957697 1
    PT 79.997313979004 155.9929675662 1
    PT 81.535844873983 155.6746145711 1
    PT 83.077522048911 156.3126252866 1
    PT 84.612906663941 155.6746145711 1
    PT 86.154583838868 155.9929675662 1
    PT 87.693114733847 155.9929675662 1
    PT 89.231645628826 155.9929675662 1
    PT 90.770176523805 156.3126252866 1
    PT 92.305561138835 155.9929675662 1
    PT 93.844092033814 155.9929675662 1
    PT 95.382622928793 155.6746145711 1
    PT 96.924300103721 155.9929675662 1
    PT 98.462830998700 156.3126252866 1
    PT 99.998215613730 156.3126252866 1
    PT 101.533600228760 155.3575583297 1
    PT 103.078423683636 155.9929675662 1
    PT 104.616954578615 156.6335957697 1
    PT 106.149192913696 155.6746145711 1
    PT 107.690870088624 155.9929675662 1
    PT 109.229400983603 156.3126252866 1
    PT 110.764785598633 155.9929675662 1
    PT 112.303316493612 155.6746145711 1
    PT 113.844993668539 155.9929675662 1
    PT 115.383524563518 156.6335957697 1
    PT 116.915762898600 155.0417909347 1
    PT 118.463732633425 156.3126252866 1
    PT 119.999117248455 156.6335957697 1
    PT 121.531355583536 155.3575583297 1
    PT 123.076179038413 155.9929675662 1
    PT 124.614709933392 156.3126252866 1
    PT 126.150094548422 155.9929675662 1
    PT 127.688625443401 155.6746145711 1
    PT 129.230302618328 155.9929675662 1
    PT 130.768833513307 155.9929675662 1
    PT 132.307364408286 156.6335957697 1
    PT 133.839602743367 155.3575583297 1
    PT 135.384426198244 156.6335957697 1
    PT 136.916664533325 155.3575583297 1
    PT 138.461487988202 156.3126252866 1
    PT 139.996872603232 155.6746145711 1
    PT 141.538549778159 156.6335957697 1
    PT 143.070788113241 155.9929675662 1
    PT 144.609319008219 155.9929675662 1
    PT 146.147849903198 155.6746145711 1
    PT 147.689527078126 155.9929675662 1
    PT 149.228057973105 156.3126252866 1
    PT 150.763442588135 155.6746145711 1
    PT 152.305119763063 155.3575583297 1
    PT 153.849943217939 156.6335957697 1
    PT 155.382181553020 156.3126252866 1
    PT 156.917566168050 155.3575583297 1
    PT 158.462389622927 156.3126252866 1
    PT 159.997774237957 156.3126252866 1
    PT 161.533158852987 155.9929675662 1
    PT 163.071689747966 155.6746145711 1
    PT 164.613366922894 155.9929675662 1
    PT 166.151897817873 155.6746145711 1
    PT 167.693574992800 155.9929675662 1
    PT 169.232105887779 156.3126252866 1
    PT 170.767490502809 155.9929675662 1
    PT 172.306021397788 155.9929675662 1
    PT 173.844552292767 156.3126252866 1
    PT 175.379936907797 155.6746145711 1
    PT 176.921614082725 155.9929675662 1
    PT 178.460144977704 155.9929675662 1
    PT 179.998675872683 156.3126252866 1
    PT 181.534060487713 155.9929675662 1
    PT 183.072591382691 156.3126252866 1
    PT 184.607975997722 155.6746145711 1
    PT 186.149653172649 155.9929675662 1
    PT 187.688184067628 155.9929675662 1
    PT 189.226714962607 155.3575583297 1
    PT 190.771538417484 156.3126252866 1
    PT 192.306923032514 156.3126252866 1
    PT 193.842307647544 155.6746145711 1
    PT 195.383984822471 155.9929675662 1
    PT 196.922515717450 155.9929675662 1
    PT 198.461046612429 155.9929675662 1
    PT 199.999577507408 155.9929675662 1
    PT 201.538108402387 155.9929675662 1
    PT 203.076639297366 156.6335957697 1
    PT 204.608877632447 155.3575583297 1
    PT 206.153701087323 155.9929675662 1
    PT 207.692231982302 155.9929675662 1
    PT 209.230762877281 156.3126252866 1
    PT 210.766147492311 155.6746145711 1
    PT 212.307824667239 155.9929675662 1
    PT 213.846355562218 155.9929675662 1
    PT 215.384886457197 155.9929675662 1
    PT 216.923417352175 155.9929675662 1
    PT 218.461948247154 156.6335957697 1
    PT 219.994186582235 155.3575583297 1
    PT 221.539010037112 156.3126252866 1
    PT 223.074394652142 155.6746145711 1
    PT 224.616071827070 155.9929675662 1
    PT 226.154602722049 155.9929675662 1
    PT 227.693133617028 155.9929675662 1
    PT 229.231664512006 155.9929675662 1
    PT 230.770195406985 155.9929675662 1
    PT 232.308726301964 156.3126252866 1
    PT 233.844110916994 156.3126252866 1
    PT 235.379495532024 155.6746145711 1
    PT 236.921172706952 155.6746145711 1
    PT 238.462849881880 156.3126252866 1
    PT 239.998234496910 156.3126252866 1
    PT 241.533619111940 155.6746145711 1
    PT 243.075296286867 156.3126252866 1
    PT 244.610680901898 155.3575583297 1
    PT 246.155504356774 156.6335957697 1
    PT 247.687742691855 155.9929675662 1
    PT 249.226273586834 155.6746145711 1
    PT 250.767950761762 155.6746145711 1
  >
  <PROJBAY
  >
  <TRACK '{4D889F49-FE1F-4D1D-9FB8-BFD5BA06901A}'
    NAME "SONG AUDIO"
    PEAKCOL 16576
    BEAT -1
    AUTOMODE 0
    VOLPAN 1.00000000000000 0.00000000000000 -1.00000000000000 -1.00000000000000 1.00000000000000
    MUTESOLO 0 0 0
    IPHASE 0
    ISBUS 0 0
    BUSCOMP 0 0
    SHOWINMIX 1 0.666700 0.500000 1 0.500000 -1 -1 -1
    FREEMODE 0
    SEL 1
    REC 0 0 0 0 0 0 0
    TRACKHEIGHT 275 0
    INQ 0 0 0 0.5000000000 100 0 0 100
    NCHAN 2
    FX 0
    TRACKID {4D889F49-FE1F-4D1D-9FB8-BFD5BA06901A}
    PERF 0
    MIDIOUT -1
    MAINSEND 1 0
    <FXCHAIN
      SHOW 0
      LASTSEL 0
      DOCKED 0
      BYPASS 0 0
      <VST "VST: W1 Limiter (George Yohng)" "George Yohng_s W1 Limiter.dll" 0 ""
        THdGNO5e7f4CAAAAAQAAAAAAAAACAAAAAAAAAAIAAAABAAAAAAAAAA==
        AgAAAAAAAABMAAAAAQAAAAAAEAAMAACBdGhyZXNoAAD+1Hg/DAAAgQ==
        Y2VpbGluZwD+1Hg/DAAAgXJlbGVhc2UAMEAfPxQAAIFhZGFwdFJlbA==
        ZWFzZQAAAAAAAAAAAAAAgABEZWZhdWx0ABAAAAA=
      >
      FLOATPOS 24 24 481 152
      FXID {D32BE511-3942-4A83-B6D7-DF2FE763A2B4}
      WAK 0
    >
    <ITEM
      POSITION 0.00000000000000
      SNAPOFFS 0.00000000000000
      LENGTH 0.28216019417451
      LOOP 0
      ALLTAKES 0
      SEL 0
      FADEIN 1 0.000000 0.000000 1 0
      FADEOUT 1 0.000000 0.000000 1 0
      MUTE 0
      IGUID {37C8B16D-9978-4F34-A5CF-9A4E5D7650FF}
      IID 1
      NAME "stick.wav"
      VOLPAN 0.271028 0.000000 1.000000 -1.000000
      SOFFS 0.00000000000000
      PLAYRATE 1.00000000000052 1 0.00000000000000 -1
      CHANMODE 0
      GUID {D7092D3C-FF73-45FC-9A28-6551ACC0CDCC}
      <SOURCE WAVE
        FILE "C:\Users\wejaa\AppData\Roaming\REAPER\ProjectTemplates\hihat.wav"
      >
    >
    <ITEM
      POSITION 0.76923076923077
      SNAPOFFS 0.00000000000000
      LENGTH 0.28216019417451
      LOOP 0
      ALLTAKES 0
      SEL 0
      FADEIN 1 0.000000 0.000000 1 0
      FADEOUT 1 0.000000 0.000000 1 0
      MUTE 0
      IGUID {1222C036-AC73-46A3-BD9E-FCF4E489A77F}
      IID 2
      NAME "stick.wav"
      VOLPAN 0.271028 0.000000 1.000000 -1.000000
      SOFFS 0.00000000000000
      PLAYRATE 1.00000000000052 1 0.00000000000000 -1
      CHANMODE 0
      GUID {C6AB13D4-11AF-438B-9153-64784285AA0F}
      <SOURCE WAVE
        FILE "C:\Users\wejaa\AppData\Roaming\REAPER\ProjectTemplates\hihat.wav"
      >
    >
    <ITEM
      POSITION 1.53846153846154
      SNAPOFFS 0.00000000000000
      LENGTH 0.28216019417451
      LOOP 0
      ALLTAKES 0
      SEL 0
      FADEIN 1 0.000000 0.000000 1 0
      FADEOUT 1 0.000000 0.000000 1 0
      MUTE 0
      IGUID {DD733D29-F2A2-4EE6-B296-E9306F232D6F}
      IID 3
      NAME "stick.wav"
      VOLPAN 0.271028 0.000000 1.000000 -1.000000
      SOFFS 0.00000000000000
      PLAYRATE 1.00000000000052 1 0.00000000000000 -1
      CHANMODE 0
      GUID {1907E57A-60C5-46FF-BA7E-EF3708F10BE1}
      <SOURCE WAVE
        FILE "C:\Users\wejaa\AppData\Roaming\REAPER\ProjectTemplates\hihat.wav"
      >
    >
    <ITEM
      POSITION 1.92307692307692
      SNAPOFFS 0.00000000000000
      LENGTH 0.28216019417451
      LOOP 0
      ALLTAKES 0
      SEL 0
      FADEIN 1 0.000000 0.000000 1 0
      FADEOUT 1 0.000000 0.041020 1 1
      MUTE 0
      IGUID {699A30F4-2F9F-4EC1-9C0B-5C3DECFA8375}
      IID 4
      NAME "stick.wav"
      VOLPAN 0.271028 0.000000 1.000000 -1.000000
      SOFFS 0.00000000000000
      PLAYRATE 1.00000000000052 1 0.00000000000000 -1
      CHANMODE 0
      GUID {2F982178-0F88-42EF-9E42-F54829FEAD5D}
      <SOURCE WAVE
        FILE "C:\Users\wejaa\AppData\Roaming\REAPER\ProjectTemplates\hihat.wav"
      >
    >
    <ITEM
      POSITION 2.16421718522901
      SNAPOFFS 0.00000000000000
      LENGTH 255.68852607709749
      LOOP 0
      ALLTAKES 0
      SEL 0
      FADEIN 1 0.000000 0.041020 1 1
      FADEOUT 1 0.000000 0.000000 1 0
      MUTE 0
      IGUID {925A63C4-6B5E-4B69-8248-6F7B2771EC8B}
      IID 26
      NAME "03 Ikuinen Virta.wav"
      VOLPAN 1.000000 0.000000 1.000000 -1.000000
      SOFFS 0.00000000000000
      PLAYRATE 1.00000000000000 1 0.00000000000000 -1
      CHANMODE 0
      GUID {E82D560B-D22F-4543-8BFD-5290D3309DEE}
      <SOURCE WAVE
        FILE "03 Ikuinen Virta.wav"
      >
    >
    <ITEM
      POSITION 2.30769230769231
      SNAPOFFS 0.00000000000000
      LENGTH 0.28216019417451
      LOOP 0
      ALLTAKES 0
      SEL 0
      FADEIN 1 0.000000 0.000000 1 0
      FADEOUT 1 0.000000 0.000000 1 0
      MUTE 0
      IGUID {692CE03D-1A15-4263-9741-AB608F2D0C3D}
      IID 5
      NAME "stick.wav"
      VOLPAN 0.271028 0.000000 1.000000 -1.000000
      SOFFS 0.00000000000000
      PLAYRATE 1.00000000000050 1 0.00000000000000 -1
      CHANMODE 0
      GUID {5279FCF3-EDEC-4D2F-BADF-E21C418997D5}
      <SOURCE WAVE
        FILE "C:\Users\wejaa\AppData\Roaming\REAPER\ProjectTemplates\hihat.wav"
      >
    >
  >
  <TRACK '{BDCFF37A-71AC-4D17-AF26-EA560B308842}'
    NAME "COUNTIN"
    PEAKCOL 16576
    BEAT -1
    AUTOMODE 0
    VOLPAN 1.00000000000000 0.00000000000000 -1.00000000000000 -1.00000000000000 1.00000000000000
    MUTESOLO 0 0 0
    IPHASE 0
    ISBUS 0 0
    BUSCOMP 0 0
    SHOWINMIX 1 0.666700 0.500000 1 0.500000 -1 -1 -1
    FREEMODE 0
    SEL 0
    REC 0 0 0 0 0 0 0
    TRACKHEIGHT 37 0
    INQ 0 0 0 0.5000000000 100 0 0 100
    NCHAN 2
    FX 1
    TRACKID {BDCFF37A-71AC-4D17-AF26-EA560B308842}
    PERF 0
    MIDIOUT -1
    MAINSEND 1 0
    <ITEM
      POSITION 0.00000000000000
      SNAPOFFS 0.00000000000000
      LENGTH 0.28216019417451
      LOOP 0
      ALLTAKES 0
      SEL 0
      FADEIN 1 0.000000 0.000000 1 0
      FADEOUT 1 0.000000 0.000000 1 0
      MUTE 0
      IGUID {D829F3DA-0BE5-4277-954B-C2D10DB114A6}
      IID 1
      NAME "stick.wav"
      VOLPAN 0.271028 0.000000 1.000000 -1.000000
      SOFFS 0.00000000000000
      PLAYRATE 1.00000000000052 1 0.00000000000000 -1
      CHANMODE 0
      GUID {3A242298-C3E5-4DC8-9A3C-2EE82D8D2134}
      <SOURCE WAVE
        FILE "C:\Users\wejaa\AppData\Roaming\REAPER\ProjectTemplates\hihat.wav"
      >
    >
    <ITEM
      POSITION 0.76923076923077
      SNAPOFFS 0.00000000000000
      LENGTH 0.28216019417451
      LOOP 0
      ALLTAKES 0
      SEL 0
      FADEIN 1 0.000000 0.000000 1 0
      FADEOUT 1 0.000000 0.000000 1 0
      MUTE 0
      IGUID {5AEC5162-2B2C-4FF2-BB3B-E29ADC0916FE}
      IID 2
      NAME "stick.wav"
      VOLPAN 0.271028 0.000000 1.000000 -1.000000
      SOFFS 0.00000000000000
      PLAYRATE 1.00000000000052 1 0.00000000000000 -1
      CHANMODE 0
      GUID {16E29BEE-96F5-48F0-9FB0-3F04A1AF90D5}
      <SOURCE WAVE
        FILE "C:\Users\wejaa\AppData\Roaming\REAPER\ProjectTemplates\hihat.wav"
      >
    >
    <ITEM
      POSITION 1.53846153846154
      SNAPOFFS 0.00000000000000
      LENGTH 0.28216019417451
      LOOP 0
      ALLTAKES 0
      SEL 0
      FADEIN 1 0.000000 0.000000 1 0
      FADEOUT 1 0.000000 0.000000 1 0
      MUTE 0
      IGUID {1FA8F8C4-F448-4E02-B340-4A6644F6D8AB}
      IID 3
      NAME "stick.wav"
      VOLPAN 0.271028 0.000000 1.000000 -1.000000
      SOFFS 0.00000000000000
      PLAYRATE 1.00000000000052 1 0.00000000000000 -1
      CHANMODE 0
      GUID {8D594F7C-8B39-4D29-A27D-55F46BC65189}
      <SOURCE WAVE
        FILE "C:\Users\wejaa\AppData\Roaming\REAPER\ProjectTemplates\hihat.wav"
      >
    >
    <ITEM
      POSITION 1.92307692307692
      SNAPOFFS 0.00000000000000
      LENGTH 0.28216019417451
      LOOP 0
      ALLTAKES 0
      SEL 0
      FADEIN 1 0.000000 0.000000 1 0
      FADEOUT 1 0.000000 0.041020 1 1
      MUTE 0
      IGUID {1D23FF37-8166-4C8E-915E-19EFDB52B4D8}
      IID 4
      NAME "stick.wav"
      VOLPAN 0.271028 0.000000 1.000000 -1.000000
      SOFFS 0.00000000000000
      PLAYRATE 1.00000000000052 1 0.00000000000000 -1
      CHANMODE 0
      GUID {1D91F480-CA0B-4E03-8204-02893D660CDF}
      <SOURCE WAVE
        FILE "C:\Users\wejaa\AppData\Roaming\REAPER\ProjectTemplates\hihat.wav"
      >
    >
    <ITEM
      POSITION 2.16421718522901
      SNAPOFFS 0.00000000000000
      LENGTH 255.68852607709749
      LOOP 0
      ALLTAKES 0
      SEL 0
      FADEIN 1 0.000000 0.041020 1 1
      FADEOUT 1 0.000000 0.000000 1 0
      MUTE 0
      IGUID {5B4B088A-DDFE-41B0-B570-D5612E353A82}
      IID 26
      NAME "03 Ikuinen Virta.wav"
      VOLPAN 1.000000 0.000000 1.000000 -1.000000
      SOFFS 0.00000000000000
      PLAYRATE 1.00000000000000 1 0.00000000000000 -1
      CHANMODE 0
      GUID {0E2A93B4-E33B-4C82-B9C9-C6C010280C7F}
      <SOURCE WAVE
        FILE "03 Ikuinen Virta.wav"
      >
    >
    <ITEM
      POSITION 2.30769230769231
      SNAPOFFS 0.00000000000000
      LENGTH 0.28216019417451
      LOOP 0
      ALLTAKES 0
      SEL 0
      FADEIN 1 0.000000 0.000000 1 0
      FADEOUT 1 0.000000 0.000000 1 0
      MUTE 0
      IGUID {A6BA2F37-4089-4BF2-A73E-A602F32B7614}
      IID 5
      NAME "stick.wav"
      VOLPAN 0.271028 0.000000 1.000000 -1.000000
      SOFFS 0.00000000000000
      PLAYRATE 1.00000000000050 1 0.00000000000000 -1
      CHANMODE 0
      GUID {ABD24FE2-95CA-428E-ADD9-9A13921FCC29}
      <SOURCE WAVE
        FILE "C:\Users\wejaa\AppData\Roaming\REAPER\ProjectTemplates\hihat.wav"
      >
    >
  >
  <TRACK '{8F33A645-3DF2-48FA-99BC-10992A4F8042}'
    NAME "PART DRUMS"
    PEAKCOL 16842751
    BEAT -1
    AUTOMODE 0
    VOLPAN 1.00000000000000 0.00000000000000 -1.00000000000000 -1.00000000000000 1.00000000000000
    MUTESOLO 0 0 0
    IPHASE 0
    ISBUS 0 0
    BUSCOMP 1 0
    SHOWINMIX 1 0.666700 0.500000 1 0.500000 -1 -1 -1
    FREEMODE 0
    SEL 0
    REC 0 4096 1 7 0 0 0
    TRACKHEIGHT 24 0
    INQ 0 0 0 0.5000000000 100 0 0 100
    NCHAN 2
    FX 1
    TRACKID {8F33A645-3DF2-48FA-99BC-10992A4F8042}
    PERF 0
    MIDIOUT -1
    <MIDINOTENAMES
      0 84 "HARD Kick"
      0 96 "EXPERT Kick"
      0 72 "MEDIUM Kick"
      0 60 "EASY Kick"
      0 97 "EXPERT Red"
      0 98 "EXPERT Yellow"
      0 99 "EXPERT Blue"
      0 100 "EXPERT Green"
      0 85 "HARD Red"
      0 86 "HARD Yellow"
      0 87 "HARD Blue"
      0 88 "HARD Green"
      0 73 "MEDIUM Red"
      0 74 "MEDIUM Yellow"
      0 75 "MEDIUM Blue"
      0 76 "MEDIUM Green"
      0 61 "EASY Red"
      0 62 "EASY Yellow"
      0 63 "EASY Blue"
      0 64 "EASY Green"
      0 101 ""
      0 92 "----"
      0 80 "----"
      0 68 "----"
      0 120 "DRUM FILL (use all 5)"
      0 121 "DRUM FILL"
      0 122 "DRUM FILL"
      0 123 "DRUM FILL"
      0 124 "DRUM FILL"
      0 114 "----"
      0 116 "OVERDRIVE"
      0 118 "----"
      0 24 "KICK RF"
      0 25 "HI-HAT OPEN"
      0 26 "SNARE HARD LH"
      0 27 "SNARE HARD RH"
      0 30 "HI-HAT LH"
      0 31 "HI-HAT RH"
      0 32 "PERCUSSION RH"
      0 34 "CRASH1 HARD LH"
      0 35 "CRASH1 SOFT LH"
      0 36 "CRASH1 HARD RH"
      0 37 "CRASH1 SOFT RH"
      0 38 "CRASH2 HARD RH"
      0 39 "CRASH2 SOFT RH"
      0 40 "CRASH1 CHOKE"
      0 41 "CRASH2 CHOKE"
      0 42 "RIDE CYM RH"
      0 46 "TOM1 LH"
      0 47 "TOM1 RH"
      0 48 "TOM2 LH"
      0 49 "TOM2 RH"
      0 50 "FLOOR TOM LH"
      0 51 "FLOOR TOM RH"
      0 52 "--DRUM ANIMATION--"
      0 56 "----"
      0 103 "Solo Marker"
      0 102 "----"
      0 110 "PRO Yellow Tom"
      0 111 "PRO Blue Tom"
      0 112 "PRO Green Tom"
      0 108 "----"
      0 127 "Roll Marker 2-Lane / Cym"
      0 126 "Roll Marker 1-Lane"
      0 125 "----"
      0 28 "SNARE RIM LH"
      0 29 "SNARE RIM RH"
      0 43 "RIDE CYM LH"
      0 44 "CRASH2 HARD LH"
      0 45 "CRASH2 SOFT LH"
      0 33 "PERCUSSION LH"
    >
    MAINSEND 1 0
    <FXCHAIN
      WNDRECT -1066 729 870 574
      SHOW 0
      LASTSEL 1
      DOCKED 0
      BYPASS 1 0
      <VST "VSTi: ReaSynth (Cockos)" "reasynth.dll" 0 ""
        eXNlcu9e7f4AAAAAAgAAAAEAAAAAAAAAAgAAAAAAAAA4AAAAAAAAAA==
        AAAAAO++rd4N8K3eAAAAAAAAAAAAAAAAAAAAADm0SD59y9s+tbSxOQ==
        AAAAALbz/T5VpCs6AAAAAAAAAAAAAAAAAAA=
      >
      FLOATPOS 0 0 0 0
      FXID {58F55556-9407-4062-A048-6AFCC0B53535}
      WAK 0
      BYPASS 0 0
      <VST "VSTi: RBN Preview (RBN)" "rbprev_vst64_beta.dll" 0 ""
        dnBicu5e7f4AAAAAAgAAAAEAAAAAAAAAAgAAAAAAAAAEAAAAAQAAAA==
        AAAAAAMBqgAAAAAAAAA=
      >
      FLOATPOS 32 32 659 497
      FXID {D7126437-AB1E-4109-A0FA-F2D5D0AC68DC}
      WAK 0
    >
    <ITEM
      POSITION 0.00000000000000
      SNAPOFFS 0.00000000000000
      LENGTH 256.54924016774078
      LOOP 0
      ALLTAKES 0
      COLOR 19150555
      SEL 0
      FADEIN 1 0.000000 0.000000 1 0
      FADEOUT 1 0.000000 0.000000 1 0
      MUTE 0
      IGUID {9FF11F36-E94F-4396-9C0E-8449C916EC21}
      IID 7
      NAME "PART DRUMS"
      VOLPAN 1.000000 0.000000 1.000000 -1.000000
      SOFFS 0.00000000000000 0.00000000000000
      PLAYRATE 1.00000000000000 1 0.00000000000000 -65536
      CHANMODE 0
      GUID {70A79ADF-E70C-430A-913F-E16D0CC85517}
      <SOURCE MIDI
        HASDATA 1 480 QN
        POOLEDEVTS {C5B45612-D77E-4C40-9CD7-166557056E15}
        <X 0 0
          /wNQQVJUIERSVU1T
        >
        <X 300 0
          /wFbbWl4IDEgZHJ1bXMwXQ==
        >
        <X 0 0
          /wFbbWl4IDAgZHJ1bXMwXQ==
        >
        <X 60 0
          /wFbbWl4IDIgZHJ1bXMwXQ==
        >
        <X 60 0
          /wFbbWl4IDMgZHJ1bXMwXQ==
        >
        <X 3420 0
          /wFbaWRsZV0=
        >
        <X 9600 0
          /wFbcGxheV0=
        >
        E 0 90 18 60
        E 0 90 33 60
        E 0 90 40 60
        E 0 90 4c 60
        E 0 90 54 60
        E 0 90 58 60
        E 0 90 60 60
        E 0 90 64 60
        E 0 90 70 60
        E 60 80 18 00
        E 0 80 33 00
        E 0 80 40 00
        E 0 80 4c 00
        E 0 80 54 00
        E 0 80 58 00
        E 0 80 60 00
        E 0 80 64 00
        E 0 80 70 00
        E 180 90 33 60
        E 0 90 58 60
        E 0 90 64 60
        E 0 90 70 60
        E 60 80 33 00
        E 0 80 58 00
        E 0 80 64 00
        E 0 80 70 00
        E 180 90 1a 60
        E 0 90 33 60
        E 0 90 3d 60
        E 0 90 40 60
        E 0 90 49 60
        E 0 90 4c 60
        E 0 90 55 60
        E 0 90 58 60
        E 0 90 61 60
        E 0 90 64 60
        E 0 90 70 60
        E 60 80 1a 00
        E 0 80 33 00
        E 0 80 3d 00
        E 0 80 40 00
        E 0 80 49 00
        E 0 80 4c 00
        E 0 80 55 00
        E 0 80 58 00
        E 0 80 61 00
        E 0 80 64 00
        E 0 80 70 00
        E 180 90 33 60
        E 0 90 58 60
        E 0 90 64 60
        E 0 90 70 60
        E 60 80 33 00
        E 0 80 58 00
        E 0 80 64 00
        E 0 80 70 00
        E 180 90 18 60
        E 0 90 33 60
        E 0 90 40 60
        E 0 90 4c 60
        E 0 90 54 60
        E 0 90 58 60
        E 0 90 60 60
        E 0 90 64 60
        E 0 90 70 60
        E 60 80 18 00
        E 0 80 33 00
        E 0 80 40 00
        E 0 80 4c 00
        E 0 80 54 00
        E 0 80 58 00
        E 0 80 60 00
        E 0 80 64 00
        E 0 80 70 00
        E 180 90 33 60
        E 0 90 58 60
        E 0 90 64 60
        E 0 90 70 60
        E 60 80 33 00
        E 0 80 58 00
        E 0 80 64 00
        E 0 80 70 00
        E 180 90 2e 60
        E 0 90 31 60
        E 0 90 3e 60
        E 0 90 3f 60
        E 0 90 4a 60
        E 0 90 4b 60
        E 0 90 56 60
        E 0 90 57 60
        E 0 90 62 60
        E 0 90 63 60
        E 0 90 6e 60
        E 0 90 6f 60
        E 60 80 2e 00
        E 0 80 31 00
        E 0 80 3e 00
        E 0 80 3f 00
        E 0 80 4a 00
        E 0 80 4b 00
        E 0 80 56 00
        E 0 80 57 00
        E 0 80 62 00
        E 0 80 63 00
        E 0 80 6e 00
        E 0 80 6f 00
        E 180 90 2e 60
        E 0 90 31 60
        E 0 90 56 60
        E 0 90 57 60
        E 0 90 62 60
        E 0 90 63 60
        E 0 90 6e 60
        E 0 90 6f 60
        E 61 80 2e 00
        E 0 80 31 00
        E 0 80 56 00
        E 0 80 57 00
        E 0 80 62 00
        E 0 80 63 00
        E 0 80 6e 00
        E 0 80 6f 00
        E 179 90 18 60
        E 0 90 33 60
        E 0 90 40 60
        E 0 90 4c 60
        E 0 90 54 60
        E 0 90 58 60
        E 0 90 60 60
        E 0 90 64 60
        E 0 90 70 60
        E 60 80 18 00
        E 0 80 33 00
        E 0 80 40 00
        E 0 80 4c 00
        E 0 80 54 00
        E 0 80 58 00
        E 0 80 60 00
        E 0 80 64 00
        E 0 80 70 00
        E 180 90 33 60
        E 0 90 58 60
        E 0 90 64 60
        E 0 90 70 60
        E 60 80 33 00
        E 0 80 58 00
        E 0 80 64 00
        E 0 80 70 00
        E 180 90 1a 60
        E 0 90 33 60
        E 0 90 3d 60
        E 0 90 40 60
        E 0 90 49 60
        E 0 90 4c 60
        E 0 90 55 60
        E 0 90 58 60
        E 0 90 61 60
        E 0 90 64 60
        E 0 90 70 60
        E 60 80 1a 00
        E 0 80 33 00
        E 0 80 3d 00
        E 0 80 40 00
        E 0 80 49 00
        E 0 80 4c 00
        E 0 80 55 00
        E 0 80 58 00
        E 0 80 61 00
        E 0 80 64 00
        E 0 80 70 00
        E 180 90 33 60
        E 0 90 58 60
        E 0 90 64 60
        E 0 90 70 60
        E 60 80 33 00
        E 0 80 58 00
        E 0 80 64 00
        E 0 80 70 00
        E 180 90 18 60
        E 0 90 33 60
        E 0 90 40 60
        E 0 90 4c 60
        E 0 90 54 60
        E 0 90 58 60
        E 0 90 60 60
        E 0 90 64 60
        E 0 90 70 60
        E 60 80 18 00
        E 0 80 33 00
        E 0 80 40 00
        E 0 80 4c 00
        E 0 80 54 00
        E 0 80 58 00
        E 0 80 60 00
        E 0 80 64 00
        E 0 80 70 00
        E 180 90 33 60
        E 0 90 58 60
        E 0 90 64 60
        E 0 90 70 60
        E 60 80 33 00
        E 0 80 58 00
        E 0 80 64 00
        E 0 80 70 00
        E 180 90 2e 60
        E 0 90 31 60
        E 0 90 3e 60
        E 0 90 3f 60
        E 0 90 4a 60
        E 0 90 4b 60
        E 0 90 56 60
        E 0 90 57 60
        E 0 90 62 60
        E 0 90 63 60
        E 0 90 6e 60
        E 0 90 6f 60
        E 60 80 2e 00
        E 0 80 31 00
        E 0 80 3e 00
        E 0 80 3f 00
        E 0 80 4a 00
        E 0 80 4b 00
        E 0 80 56 00
        E 0 80 57 00
        E 0 80 62 00
        E 0 80 63 00
        E 0 80 6e 00
        E 0 80 6f 00
        E 180 90 2e 60
        E 0 90 31 60
        E 0 90 56 60
        E 0 90 57 60
        E 0 90 62 60
        E 0 90 63 60
        E 0 90 6e 60
        E 0 90 6f 60
        E 61 80 2e 00
        E 0 80 31 00
        E 0 80 56 00
        E 0 80 57 00
        E 0 80 62 00
        E 0 80 63 00
        E 0 80 6e 00
        E 0 80 6f 00
        E 179 90 18 60
        E 0 90 33 60
        E 0 90 40 60
        E 0 90 4c 60
        E 0 90 54 60
        E 0 90 58 60
        E 0 90 60 60
        E 0 90 64 60
        E 0 90 70 60
        E 61 80 18 00
        E 0 80 33 00
        E 0 80 40 00
        E 0 80 4c 00
        E 0 80 54 00
        E 0 80 58 00
        E 0 80 60 00
        E 0 80 64 00
        E 0 80 70 00
        E 179 90 33 60
        E 0 90 58 60
        E 0 90 64 60
        E 0 90 70 60
        E 60 80 33 00
        E 0 80 58 00
        E 0 80 64 00
        E 0 80 70 00
        E 180 90 1a 60
        E 0 90 33 60
        E 0 90 3d 60
        E 0 90 40 60
        E 0 90 49 60
        E 0 90 4c 60
        E 0 90 55 60
        E 0 90 58 60
        E 0 90 61 60
        E 0 90 64 60
        E 0 90 70 60
        E 60 80 1a 00
        E 0 80 33 00
        E 0 80 3d 00
        E 0 80 40 00
        E 0 80 49 00
        E 0 80 4c 00
        E 0 80 55 00
        E 0 80 58 00
        E 0 80 61 00
        E 0 80 64 00
        E 0 80 70 00
        E 180 90 33 60
        E 0 90 58 60
        E 0 90 64 60
        E 0 90 70 60
        E 60 80 33 00
        E 0 80 58 00
        E 0 80 64 00
        E 0 80 70 00
        E 180 90 18 60
        E 0 90 33 60
        E 0 90 40 60
        E 0 90 4c 60
        E 0 90 54 60
        E 0 90 58 60
        E 0 90 60 60
        E 0 90 64 60
        E 0 90 70 60
        E 60 80 18 00
        E 0 80 33 00
        E 0 80 40 00
        E 0 80 4c 00
        E 0 80 54 00
        E 0 80 58 00
        E 0 80 60 00
        E 0 80 64 00
        E 0 80 70 00
        E 180 90 33 60
        E 0 90 58 60
        E 0 90 64 60
        E 0 90 70 60
        E 60 80 33 00
        E 0 80 58 00
        E 0 80 64 00
        E 0 80 70 00
        E 180 90 2e 60
        E 0 90 31 60
        E 0 90 3e 60
        E 0 90 3f 60
        E 0 90 4a 60
        E 0 90 4b 60
        E 0 90 56 60
        E 0 90 57 60
        E 0 90 62 60
        E 0 90 63 60
        E 0 90 6e 60
        E 0 90 6f 60
        E 60 80 2e 00
        E 0 80 31 00
        E 0 80 3e 00
        E 0 80 3f 00
        E 0 80 4a 00
        E 0 80 4b 00
        E 0 80 56 00
        E 0 80 57 00
        E 0 80 62 00
        E 0 80 63 00
        E 0 80 6e 00
        E 0 80 6f 00
        E 180 90 2e 60
        E 0 90 31 60
        E 0 90 56 60
        E 0 90 57 60
        E 0 90 62 60
        E 0 90 63 60
        E 0 90 6e 60
        E 0 90 6f 60
        E 61 80 2e 00
        E 0 80 31 00
        E 0 80 56 00
        E 0 80 57 00
        E 0 80 62 00
        E 0 80 63 00
        E 0 80 6e 00
        E 0 80 6f 00
        E 179 90 18 60
        E 0 90 33 60
        E 0 90 40 60
        E 0 90 4c 60
        E 0 90 54 60
        E 0 90 58 60
        E 0 90 60 60
        E 0 90 64 60
        E 0 90 70 60
        E 61 80 18 00
        E 0 80 33 00
        E 0 80 40 00
        E 0 80 4c 00
        E 0 80 54 00
        E 0 80 58 00
        E 0 80 60 00
        E 0 80 64 00
        E 0 80 70 00
        E 179 90 33 60
        E 0 90 58 60
        E 0 90 64 60
        E 0 90 70 60
        E 60 80 33 00
        E 0 80 58 00
        E 0 80 64 00
        E 0 80 70 00
        E 180 90 1a 60
        E 0 90 33 60
        E 0 90 3d 60
        E 0 90 40 60
        E 0 90 49 60
        E 0 90 4c 60
        E 0 90 55 60
        E 0 90 58 60
        E 0 90 61 60
        E 0 90 64 60
        E 0 90 70 60
        E 60 80 1a 00
        E 0 80 33 00
        E 0 80 3d 00
        E 0 80 40 00
        E 0 80 49 00
        E 0 80 4c 00
        E 0 80 55 00
        E 0 80 58 00
        E 0 80 61 00
        E 0 80 64 00
        E 0 80 70 00
        E 180 90 33 60
        E 0 90 58 60
        E 0 90 64 60
        E 0 90 70 60
        E 60 80 33 00
        E 0 80 58 00
        E 0 80 64 00
        E 0 80 70 00
        E 180 90 18 60
        E 0 90 33 60
        E 0 90 40 60
        E 0 90 4c 60
        E 0 90 54 60
        E 0 90 58 60
        E 0 90 60 60
        E 0 90 64 60
        E 0 90 70 60
        E 60 80 18 00
        E 0 80 33 00
        E 0 80 40 00
        E 0 80 4c 00
        E 0 80 54 00
        E 0 80 58 00
        E 0 80 60 00
        E 0 80 64 00
        E 0 80 70 00
        E 180 90 33 60
        E 0 90 58 60
        E 0 90 64 60
        E 0 90 70 60
        E 60 80 33 00
        E 0 80 58 00
        E 0 80 64 00
        E 0 80 70 00
        E 180 90 2e 60
        E 0 90 31 60
        E 0 90 3e 60
        E 0 90 3f 60
        E 0 90 4a 60
        E 0 90 4b 60
        E 0 90 56 60
        E 0 90 57 60
        E 0 90 62 60
        E 0 90 63 60
        E 0 90 6e 60
        E 0 90 6f 60
        E 60 80 2e 00
        E 0 80 31 00
        E 0 80 3e 00
        E 0 80 3f 00
        E 0 80 4a 00
        E 0 80 4b 00
        E 0 80 56 00
        E 0 80 57 00
        E 0 80 62 00
        E 0 80 63 00
        E 0 80 6e 00
        E 0 80 6f 00
        E 180 90 2e 60
        E 0 90 31 60
        E 0 90 56 60
        E 0 90 57 60
        E 0 90 62 60
        E 0 90 63 60
        E 0 90 6e 60
        E 0 90 6f 60
        E 61 80 2e 00
        E 0 80 31 00
        E 0 80 56 00
        E 0 80 57 00
        E 0 80 62 00
        E 0 80 63 00
        E 0 80 6e 00
        E 0 80 6f 00
        E 179 90 18 60
        E 0 90 33 60
        E 0 90 40 60
        E 0 90 4c 60
        E 0 90 54 60
        E 0 90 58 60
        E 0 90 60 60
        E 0 90 64 60
        E 0 90 70 60
        E 61 80 18 00
        E 0 80 33 00
        E 0 80 40 00
        E 0 80 4c 00
        E 0 80 54 00
        E 0 80 58 00
        E 0 80 60 00
        E 0 80 64 00
        E 0 80 70 00
        E 179 90 33 60
        E 0 90 58 60
        E 0 90 64 60
        E 0 90 70 60
        E 60 80 33 00
        E 0 80 58 00
        E 0 80 64 00
        E 0 80 70 00
        E 180 90 1a 60
        E 0 90 33 60
        E 0 90 3d 60
        E 0 90 40 60
        E 0 90 49 60
        E 0 90 4c 60
        E 0 90 55 60
        E 0 90 58 60
        E 0 90 61 60
        E 0 90 64 60
        E 0 90 70 60
        E 60 80 1a 00
        E 0 80 33 00
        E 0 80 3d 00
        E 0 80 40 00
        E 0 80 49 00
        E 0 80 4c 00
        E 0 80 55 00
        E 0 80 58 00
        E 0 80 61 00
        E 0 80 64 00
        E 0 80 70 00
        E 180 90 33 60
        E 0 90 58 60
        E 0 90 64 60
        E 0 90 70 60
        E 60 80 33 00
        E 0 80 58 00
        E 0 80 64 00
        E 0 80 70 00
        E 180 90 18 60
        E 0 90 33 60
        E 0 90 40 60
        E 0 90 4c 60
        E 0 90 54 60
        E 0 90 58 60
        E 0 90 60 60
        E 0 90 64 60
        E 0 90 70 60
        E 60 80 18 00
        E 0 80 33 00
        E 0 80 40 00
        E 0 80 4c 00
        E 0 80 54 00
        E 0 80 58 00
        E 0 80 60 00
        E 0 80 64 00
        E 0 80 70 00
        E 180 90 33 60
        E 0 90 58 60
        E 0 90 64 60
        E 0 90 70 60
        E 60 80 33 00
        E 0 80 58 00
        E 0 80 64 00
        E 0 80 70 00
        E 180 90 2e 60
        E 0 90 31 60
        E 0 90 3e 60
        E 0 90 3f 60
        E 0 90 4a 60
        E 0 90 4b 60
        E 0 90 56 60
        E 0 90 57 60
        E 0 90 62 60
        E 0 90 63 60
        E 0 90 6e 60
        E 0 90 6f 60
        E 60 80 2e 00
        E 0 80 31 00
        E 0 80 3e 00
        E 0 80 3f 00
        E 0 80 4a 00
        E 0 80 4b 00
        E 0 80 56 00
        E 0 80 57 00
        E 0 80 62 00
        E 0 80 63 00
        E 0 80 6e 00
        E 0 80 6f 00
        E 180 90 2e 60
        E 0 90 31 60
        E 0 90 56 60
        E 0 90 57 60
        E 0 90 62 60
        E 0 90 63 60
        E 0 90 6e 60
        E 0 90 6f 60
        E 61 80 2e 00
        E 0 80 31 00
        E 0 80 56 00
        E 0 80 57 00
        E 0 80 62 00
        E 0 80 63 00
        E 0 80 6e 00
        E 0 80 6f 00
        E 179 90 18 60
        E 0 90 33 60
        E 0 90 40 60
        E 0 90 4c 60
        E 0 90 54 60
        E 0 90 58 60
        E 0 90 60 60
        E 0 90 64 60
        E 0 90 70 60
        E 61 80 18 00
        E 0 80 33 00
        E 0 80 40 00
        E 0 80 4c 00
        E 0 80 54 00
        E 0 80 58 00
        E 0 80 60 00
        E 0 80 64 00
        E 0 80 70 00
        E 179 90 33 60
        E 0 90 58 60
        E 0 90 64 60
        E 0 90 70 60
        E 60 80 33 00
        E 0 80 58 00
        E 0 80 64 00
        E 0 80 70 00
        E 180 90 1a 60
        E 0 90 33 60
        E 0 90 3d 60
        E 0 90 40 60
        E 0 90 49 60
        E 0 90 4c 60
        E 0 90 55 60
        E 0 90 58 60
        E 0 90 61 60
        E 0 90 64 60
        E 0 90 70 60
        E 60 80 1a 00
        E 0 80 33 00
        E 0 80 3d 00
        E 0 80 40 00
        E 0 80 49 00
        E 0 80 4c 00
        E 0 80 55 00
        E 0 80 58 00
        E 0 80 61 00
        E 0 80 64 00
        E 0 80 70 00
        E 180 90 33 60
        E 0 90 58 60
        E 0 90 64 60
        E 0 90 70 60
        E 60 80 33 00
        E 0 80 58 00
        E 0 80 64 00
        E 0 80 70 00
        E 180 90 18 60
        E 0 90 33 60
        E 0 90 40 60
        E 0 90 4c 60
        E 0 90 54 60
        E 0 90 58 60
        E 0 90 60 60
        E 0 90 64 60
        E 0 90 70 60
        E 60 80 18 00
        E 0 80 33 00
        E 0 80 40 00
        E 0 80 4c 00
        E 0 80 54 00
        E 0 80 58 00
        E 0 80 60 00
        E 0 80 64 00
        E 0 80 70 00
        E 180 90 33 60
        E 0 90 58 60
        E 0 90 64 60
        E 0 90 70 60
        E 60 80 33 00
        E 0 80 58 00
        E 0 80 64 00
        E 0 80 70 00
        E 180 90 2e 60
        E 0 90 31 60
        E 0 90 3e 60
        E 0 90 3f 60
        E 0 90 4a 60
        E 0 90 4b 60
        E 0 90 56 60
        E 0 90 57 60
        E 0 90 62 60
        E 0 90 63 60
        E 0 90 6e 60
        E 0 90 6f 60
        E 60 80 2e 00
        E 0 80 31 00
        E 0 80 3e 00
        E 0 80 3f 00
        E 0 80 4a 00
        E 0 80 4b 00
        E 0 80 56 00
        E 0 80 57 00
        E 0 80 62 00
        E 0 80 63 00
        E 0 80 6e 00
        E 0 80 6f 00
        E 180 90 2e 60
        E 0 90 31 60
        E 0 90 56 60
        E 0 90 57 60
        E 0 90 62 60
        E 0 90 63 60
        E 0 90 6e 60
        E 0 90 6f 60
        E 61 80 2e 00
        E 0 80 31 00
        E 0 80 56 00
        E 0 80 57 00
        E 0 80 62 00
        E 0 80 63 00
        E 0 80 6e 00
        E 0 80 6f 00
        E 179 90 18 60
        E 0 90 33 60
        E 0 90 40 60
        E 0 90 4c 60
        E 0 90 54 60
        E 0 90 58 60
        E 0 90 60 60
        E 0 90 64 60
        E 0 90 70 60
        E 61 80 18 00
        E 0 80 33 00
        E 0 80 40 00
        E 0 80 4c 00
        E 0 80 54 00
        E 0 80 58 00
        E 0 80 60 00
        E 0 80 64 00
        E 0 80 70 00
        E 179 90 33 60
        E 0 90 58 60
        E 0 90 64 60
        E 0 90 70 60
        E 60 80 33 00
        E 0 80 58 00
        E 0 80 64 00
        E 0 80 70 00
        E 180 90 1a 60
        E 0 90 33 60
        E 0 90 3d 60
        E 0 90 40 60
        E 0 90 49 60
        E 0 90 4c 60
        E 0 90 55 60
        E 0 90 58 60
        E 0 90 61 60
        E 0 90 64 60
        E 0 90 70 60
        E 60 80 1a 00
        E 0 80 33 00
        E 0 80 3d 00
        E 0 80 40 00
        E 0 80 49 00
        E 0 80 4c 00
        E 0 80 55 00
        E 0 80 58 00
        E 0 80 61 00
        E 0 80 64 00
        E 0 80 70 00
        E 180 90 33 60
        E 0 90 58 60
        E 0 90 64 60
        E 0 90 70 60
        E 60 80 33 00
        E 0 80 58 00
        E 0 80 64 00
        E 0 80 70 00
        E 180 90 18 60
        E 0 90 33 60
        E 0 90 40 60
        E 0 90 4c 60
        E 0 90 54 60
        E 0 90 58 60
        E 0 90 60 60
        E 0 90 64 60
        E 0 90 70 60
        E 60 80 18 00
        E 0 80 33 00
        E 0 80 40 00
        E 0 80 4c 00
        E 0 80 54 00
        E 0 80 58 00
        E 0 80 60 00
        E 0 80 64 00
        E 0 80 70 00
        E 180 90 33 60
        E 0 90 58 60
        E 0 90 64 60
        E 0 90 70 60
        E 60 80 33 00
        E 0 80 58 00
        E 0 80 64 00
        E 0 80 70 00
        E 180 90 2e 60
        E 0 90 31 60
        E 0 90 3e 60
        E 0 90 3f 60
        E 0 90 4a 60
        E 0 90 4b 60
        E 0 90 56 60
        E 0 90 57 60
        E 0 90 62 60
        E 0 90 63 60
        E 0 90 6e 60
        E 0 90 6f 60
        E 60 80 2e 00
        E 0 80 31 00
        E 0 80 3e 00
        E 0 80 3f 00
        E 0 80 4a 00
        E 0 80 4b 00
        E 0 80 56 00
        E 0 80 57 00
        E 0 80 62 00
        E 0 80 63 00
        E 0 80 6e 00
        E 0 80 6f 00
        E 180 90 2e 60
        E 0 90 31 60
        E 0 90 56 60
        E 0 90 57 60
        E 0 90 62 60
        E 0 90 63 60
        E 0 90 6e 60
        E 0 90 6f 60
        E 61 80 2e 00
        E 0 80 31 00
        E 0 80 56 00
        E 0 80 57 00
        E 0 80 62 00
        E 0 80 63 00
        E 0 80 6e 00
        E 0 80 6f 00
        E 179 90 18 60
        E 0 90 33 60
        E 0 90 40 60
        E 0 90 4c 60
        E 0 90 54 60
        E 0 90 58 60
        E 0 90 60 60
        E 0 90 64 60
        E 0 90 70 60
        E 61 80 18 00
        E 0 80 33 00
        E 0 80 40 00
        E 0 80 4c 00
        E 0 80 54 00
        E 0 80 58 00
        E 0 80 60 00
        E 0 80 64 00
        E 0 80 70 00
        E 179 90 33 60
        E 0 90 58 60
        E 0 90 64 60
        E 0 90 70 60
        E 60 80 33 00
        E 0 80 58 00
        E 0 80 64 00
        E 0 80 70 00
        E 180 90 1a 60
        E 0 90 33 60
        E 0 90 3d 60
        E 0 90 40 60
        E 0 90 49 60
        E 0 90 4c 60
        E 0 90 55 60
        E 0 90 58 60
        E 0 90 61 60
        E 0 90 64 60
        E 0 90 70 60
        E 60 80 1a 00
        E 0 80 33 00
        E 0 80 3d 00
        E 0 80 40 00
        E 0 80 49 00
        E 0 80 4c 00
        E 0 80 55 00
        E 0 80 58 00
        E 0 80 61 00
        E 0 80 64 00
        E 0 80 70 00
        E 180 90 33 60
        E 0 90 58 60
        E 0 90 64 60
        E 0 90 70 60
        E 60 80 33 00
        E 0 80 58 00
        E 0 80 64 00
        E 0 80 70 00
        E 180 90 18 60
        E 0 90 33 60
        E 0 90 40 60
        E 0 90 4c 60
        E 0 90 54 60
        E 0 90 58 60
        E 0 90 60 60
        E 0 90 64 60
        E 0 90 70 60
        E 0 90 74 60
        E 60 80 18 00
        E 0 80 33 00
        E 0 80 40 00
        E 0 80 4c 00
        E 0 80 54 00
        E 0 80 58 00
        E 0 80 60 00
        E 0 80 64 00
        E 0 80 70 00
        E 180 90 33 60
        E 0 90 58 60
        E 0 90 64 60
        E 0 90 70 60
        E 60 80 33 00
        E 0 80 58 00
        E 0 80 64 00
        E 0 80 70 00
        E 180 90 2e 60
        E 0 90 31 60
        E 0 90 3e 60
        E 0 90 3f 60
        E 0 90 4a 60
        E 0 90 4b 60
        E 0 90 56 60
        E 0 90 57 60
        E 0 90 62 60
        E 0 90 63 60
        E 0 90 6e 60
        E 0 90 6f 60
        E 60 80 2e 00
        E 0 80 31 00
        E 0 80 3e 00
        E 0 80 3f 00
        E 0 80 4a 00
        E 0 80 4b 00
        E 0 80 56 00
        E 0 80 57 00
        E 0 80 62 00
        E 0 80 63 00
        E 0 80 6e 00
        E 0 80 6f 00
        E 180 90 2e 60
        E 0 90 31 60
        E 0 90 56 60
        E 0 90 57 60
        E 0 90 62 60
        E 0 90 63 60
        E 0 90 6e 60
        E 0 90 6f 60
        E 61 80 2e 00
        E 0 80 31 00
        E 0 80 56 00
        E 0 80 57 00
        E 0 80 62 00
        E 0 80 63 00
        E 0 80 6e 00
        E 0 80 6f 00
        E 179 90 18 60
        E 0 90 22 60
        E 0 90 26 60
        E 0 90 3f 60
        E 0 90 40 60
        E 0 90 48 60
        E 0 90 4b 60
        E 0 90 4c 60
        E 0 90 54 60
        E 0 90 57 60
        E 0 90 58 60
        E 0 90 60 60
        E 0 90 63 60
        E 0 90 64 60
        E 60 80 74 00
        E 0 80 18 00
        E 0 80 22 00
        E 0 80 26 00
        E 0 80 3f 00
        E 0 80 40 00
        E 0 80 48 00
        E 0 80 4b 00
        E 0 80 4c 00
        E 0 80 54 00
        E 0 80 57 00
        E 0 80 58 00
        E 0 80 60 00
        E 0 80 63 00
        E 0 80 64 00
        E 180 90 2a 60
        E 0 90 57 60
        E 0 90 63 60
        E 60 80 2a 00
        E 0 80 57 00
        E 0 80 63 00
        E 180 90 1a 60
        E 0 90 2a 60
        E 0 90 3d 60
        E 0 90 3f 60
        E 0 90 49 60
        E 0 90 4b 60
        E 0 90 55 60
        E 0 90 57 60
        E 0 90 61 60
        E 0 90 63 60
        E 60 80 1a 00
        E 0 80 2a 00
        E 0 80 3d 00
        E 0 80 3f 00
        E 0 80 49 00
        E 0 80 4b 00
        E 0 80 55 00
        E 0 80 57 00
        E 0 80 61 00
        E 0 80 63 00
        E 180 90 18 60
        E 0 90 2a 60
        E 0 90 54 60
        E 0 90 57 60
        E 0 90 60 60
        E 0 90 63 60
        E 60 80 18 00
        E 0 80 2a 00
        E 0 80 54 00
        E 0 80 57 00
        E 0 80 60 00
        E 0 80 63 00
        E 180 90 18 60
        E 0 90 2a 60
        E 0 90 3f 60
        E 0 90 48 60
        E 0 90 4b 60
        E 0 90 54 60
        E 0 90 57 60
        E 0 90 60 60
        E 0 90 63 60
        E 60 80 18 00
        E 0 80 2a 00
        E 0 80 3f 00
        E 0 80 48 00
        E 0 80 4b 00
        E 0 80 54 00
        E 0 80 57 00
        E 0 80 60 00
        E 0 80 63 00
        E 180 90 2a 60
        E 0 90 57 60
        E 0 90 63 60
        E 60 80 2a 00
        E 0 80 57 00
        E 0 80 63 00
        E 180 90 1a 60
        E 0 90 2a 60
        E 0 90 3d 60
        E 0 90 3f 60
        E 0 90 49 60
        E 0 90 4b 60
        E 0 90 55 60
        E 0 90 57 60
        E 0 90 61 60
        E 0 90 63 60
        E 60 80 1a 00
        E 0 80 2a 00
        E 0 80 3d 00
        E 0 80 3f 00
        E 0 80 49 00
        E 0 80 4b 00
        E 0 80 55 00
        E 0 80 57 00
        E 0 80 61 00
        E 0 80 63 00
        E 180 90 2a 60
        E 0 90 57 60
        E 0 90 63 60
        E 60 80 2a 00
        E 0 80 57 00
        E 0 80 63 00
        E 180 90 18 60
        E 0 90 2a 60
        E 0 90 3f 60
        E 0 90 48 60
        E 0 90 4b 60
        E 0 90 54 60
        E 0 90 57 60
        E 0 90 60 60
        E 0 90 63 60
        E 60 80 18 00
        E 0 80 2a 00
        E 0 80 3f 00
        E 0 80 48 00
        E 0 80 4b 00
        E 0 80 54 00
        E 0 80 57 00
        E 0 80 60 00
        E 0 80 63 00
        E 180 90 2a 60
        E 0 90 57 60
        E 0 90 63 60
        E 60 80 2a 00
        E 0 80 57 00
        E 0 80 63 00
        E 180 90 1a 60
        E 0 90 2a 60
        E 0 90 3d 60
        E 0 90 3f 60
        E 0 90 49 60
        E 0 90 4b 60
        E 0 90 55 60
        E 0 90 57 60
        E 0 90 61 60
        E 0 90 63 60
        E 60 80 1a 00
        E 0 80 2a 00
        E 0 80 3d 00
        E 0 80 3f 00
        E 0 80 49 00
        E 0 80 4b 00
        E 0 80 55 00
        E 0 80 57 00
        E 0 80 61 00
        E 0 80 63 00
        E 180 90 18 60
        E 0 90 2a 60
        E 0 90 54 60
        E 0 90 57 60
        E 0 90 60 60
        E 0 90 63 60
        E 60 80 18 00
        E 0 80 2a 00
        E 0 80 54 00
        E 0 80 57 00
        E 0 80 60 00
        E 0 80 63 00
        E 180 90 18 60
        E 0 90 2a 60
        E 0 90 3f 60
        E 0 90 48 60
        E 0 90 4b 60
        E 0 90 54 60
        E 0 90 57 60
        E 0 90 60 60
        E 0 90 63 60
        E 60 80 18 00
        E 0 80 2a 00
        E 0 80 3f 00
        E 0 80 48 00
        E 0 80 4b 00
        E 0 80 54 00
        E 0 80 57 00
        E 0 80 60 00
        E 0 80 63 00
        E 180 90 2a 60
        E 0 90 57 60
        E 0 90 63 60
        E 60 80 2a 00
        E 0 80 57 00
        E 0 80 63 00
        E 180 90 1a 60
        E 0 90 2a 60
        E 0 90 3d 60
        E 0 90 3f 60
        E 0 90 49 60
        E 0 90 4b 60
        E 0 90 55 60
        E 0 90 57 60
        E 0 90 61 60
        E 0 90 63 60
        E 60 80 1a 00
        E 0 80 2a 00
        E 0 80 3d 00
        E 0 80 3f 00
        E 0 80 49 00
        E 0 80 4b 00
        E 0 80 55 00
        E 0 80 57 00
        E 0 80 61 00
        E 0 80 63 00
        E 180 90 2a 60
        E 0 90 57 60
        E 0 90 63 60
        E 60 80 2a 00
        E 0 80 57 00
        E 0 80 63 00
        E 180 90 18 60
        E 0 90 2a 60
        E 0 90 3f 60
        E 0 90 48 60
        E 0 90 4b 60
        E 0 90 54 60
        E 0 90 57 60
        E 0 90 60 60
        E 0 90 63 60
        E 60 80 18 00
        E 0 80 2a 00
        E 0 80 3f 00
        E 0 80 48 00
        E 0 80 4b 00
        E 0 80 54 00
        E 0 80 57 00
        E 0 80 60 00
        E 0 80 63 00
        E 180 90 2a 60
        E 0 90 57 60
        E 0 90 63 60
        E 60 80 2a 00
        E 0 80 57 00
        E 0 80 63 00
        E 180 90 1a 60
        E 0 90 2a 60
        E 0 90 3d 60
        E 0 90 3f 60
        E 0 90 49 60
        E 0 90 4b 60
        E 0 90 55 60
        E 0 90 57 60
        E 0 90 61 60
        E 0 90 63 60
        E 60 80 1a 00
        E 0 80 2a 00
        E 0 80 3d 00
        E 0 80 3f 00
        E 0 80 49 00
        E 0 80 4b 00
        E 0 80 55 00
        E 0 80 57 00
        E 0 80 61 00
        E 0 80 63 00
        E 180 90 18 60
        E 0 90 2a 60
        E 0 90 54 60
        E 0 90 57 60
        E 0 90 60 60
        E 0 90 63 60
        E 60 80 18 00
        E 0 80 2a 00
        E 0 80 54 00
        E 0 80 57 00
        E 0 80 60 00
        E 0 80 63 00
        E 180 90 18 60
        E 0 90 2a 60
        E 0 90 3f 60
        E 0 90 48 60
        E 0 90 4b 60
        E 0 90 54 60
        E 0 90 57 60
        E 0 90 60 60
        E 0 90 63 60
        E 60 80 18 00
        E 0 80 2a 00
        E 0 80 3f 00
        E 0 80 48 00
        E 0 80 4b 00
        E 0 80 54 00
        E 0 80 57 00
        E 0 80 60 00
        E 0 80 63 00
        E 180 90 2a 60
        E 0 90 57 60
        E 0 90 63 60
        E 60 80 2a 00
        E 0 80 57 00
        E 0 80 63 00
        E 180 90 1a 60
        E 0 90 2a 60
        E 0 90 3d 60
        E 0 90 3f 60
        E 0 90 49 60
        E 0 90 4b 60
        E 0 90 55 60
        E 0 90 57 60
        E 0 90 61 60
        E 0 90 63 60
        E 60 80 1a 00
        E 0 80 2a 00
        E 0 80 3d 00
        E 0 80 3f 00
        E 0 80 49 00
        E 0 80 4b 00
        E 0 80 55 00
        E 0 80 57 00
        E 0 80 61 00
        E 0 80 63 00
        E 180 90 2a 60
        E 0 90 57 60
        E 0 90 63 60
        E 60 80 2a 00
        E 0 80 57 00
        E 0 80 63 00
        E 180 90 18 60
        E 0 90 2a 60
        E 0 90 3f 60
        E 0 90 48 60
        E 0 90 4b 60
        E 0 90 54 60
        E 0 90 57 60
        E 0 90 60 60
        E 0 90 63 60
        E 60 80 18 00
        E 0 80 2a 00
        E 0 80 3f 00
        E 0 80 48 00
        E 0 80 4b 00
        E 0 80 54 00
        E 0 80 57 00
        E 0 80 60 00
        E 0 80 63 00
        E 180 90 2a 60
        E 0 90 57 60
        E 0 90 63 60
        E 60 80 2a 00
        E 0 80 57 00
        E 0 80 63 00
        E 180 90 1a 60
        E 0 90 2a 60
        E 0 90 3d 60
        E 0 90 3f 60
        E 0 90 49 60
        E 0 90 4b 60
        E 0 90 55 60
        E 0 90 57 60
        E 0 90 61 60
        E 0 90 63 60
        E 60 80 1a 00
        E 0 80 2a 00
        E 0 80 3d 00
        E 0 80 3f 00
        E 0 80 49 00
        E 0 80 4b 00
        E 0 80 55 00
        E 0 80 57 00
        E 0 80 61 00
        E 0 80 63 00
        E 180 90 18 60
        E 0 90 2a 60
        E 0 90 54 60
        E 0 90 57 60
        E 0 90 60 60
        E 0 90 63 60
        E 60 80 18 00
        E 0 80 2a 00
        E 0 80 54 00
        E 0 80 57 00
        E 0 80 60 00
        E 0 80 63 00
        E 180 90 18 60
        E 0 90 2a 60
        E 0 90 3f 60
        E 0 90 48 60
        E 0 90 4b 60
        E 0 90 54 60
        E 0 90 57 60
        E 0 90 60 60
        E 0 90 63 60
        E 60 80 18 00
        E 0 80 2a 00
        E 0 80 3f 00
        E 0 80 48 00
        E 0 80 4b 00
        E 0 80 54 00
        E 0 80 57 00
        E 0 80 60 00
        E 0 80 63 00
        E 180 90 2a 60
        E 0 90 57 60
        E 0 90 63 60
        E 60 80 2a 00
        E 0 80 57 00
        E 0 80 63 00
        E 180 90 1a 60
        E 0 90 2a 60
        E 0 90 3d 60
        E 0 90 3f 60
        E 0 90 49 60
        E 0 90 4b 60
        E 0 90 55 60
        E 0 90 57 60
        E 0 90 61 60
        E 0 90 63 60
        E 60 80 1a 00
        E 0 80 2a 00
        E 0 80 3d 00
        E 0 80 3f 00
        E 0 80 49 00
        E 0 80 4b 00
        E 0 80 55 00
        E 0 80 57 00
        E 0 80 61 00
        E 0 80 63 00
        E 180 90 2a 60
        E 0 90 57 60
        E 0 90 63 60
        E 60 80 2a 00
        E 0 80 57 00
        E 0 80 63 00
        E 180 90 18 60
        E 0 90 22 60
        E 0 90 26 60
        E 0 90 3f 60
        E 0 90 40 60
        E 0 90 48 60
        E 0 90 4b 60
        E 0 90 4c 60
        E 0 90 54 60
        E 0 90 57 60
        E 0 90 58 60
        E 0 90 60 60
        E 0 90 63 60
        E 0 90 64 60
        E 60 80 18 00
        E 0 80 22 00
        E 0 80 26 00
        E 0 80 3f 00
        E 0 80 40 00
        E 0 80 48 00
        E 0 80 4b 00
        E 0 80 4c 00
        E 0 80 54 00
        E 0 80 57 00
        E 0 80 58 00
        E 0 80 60 00
        E 0 80 63 00
        E 0 80 64 00
        E 180 90 2a 60
        E 0 90 57 60
        E 0 90 63 60
        E 60 80 2a 00
        E 0 80 57 00
        E 0 80 63 00
        E 180 90 1a 60
        E 0 90 2a 60
        E 0 90 3d 60
        E 0 90 3f 60
        E 0 90 49 60
        E 0 90 4b 60
        E 0 90 55 60
        E 0 90 57 60
        E 0 90 61 60
        E 0 90 63 60
        E 60 80 1a 00
        E 0 80 2a 00
        E 0 80 3d 00
        E 0 80 3f 00
        E 0 80 49 00
        E 0 80 4b 00
        E 0 80 55 00
        E 0 80 57 00
        E 0 80 61 00
        E 0 80 63 00
        E 180 90 18 60
        E 0 90 2a 60
        E 0 90 54 60
        E 0 90 57 60
        E 0 90 60 60
        E 0 90 63 60
        E 60 80 18 00
        E 0 80 2a 00
        E 0 80 54 00
        E 0 80 57 00
        E 0 80 60 00
        E 0 80 63 00
        E 180 90 18 60
        E 0 90 2a 60
        E 0 90 3f 60
        E 0 90 48 60
        E 0 90 4b 60
        E 0 90 54 60
        E 0 90 57 60
        E 0 90 60 60
        E 0 90 63 60
        E 60 80 18 00
        E 0 80 2a 00
        E 0 80 3f 00
        E 0 80 48 00
        E 0 80 4b 00
        E 0 80 54 00
        E 0 80 57 00
        E 0 80 60 00
        E 0 80 63 00
        E 180 90 2a 60
        E 0 90 57 60
        E 0 90 63 60
        E 60 80 2a 00
        E 0 80 57 00
        E 0 80 63 00
        E 180 90 1a 60
        E 0 90 2a 60
        E 0 90 3d 60
        E 0 90 3f 60
        E 0 90 49 60
        E 0 90 4b 60
        E 0 90 55 60
        E 0 90 57 60
        E 0 90 61 60
        E 0 90 63 60
        E 60 80 1a 00
        E 0 80 2a 00
        E 0 80 3d 00
        E 0 80 3f 00
        E 0 80 49 00
        E 0 80 4b 00
        E 0 80 55 00
        E 0 80 57 00
        E 0 80 61 00
        E 0 80 63 00
        E 180 90 2a 60
        E 0 90 57 60
        E 0 90 63 60
        E 60 80 2a 00
        E 0 80 57 00
        E 0 80 63 00
        E 180 90 18 60
        E 0 90 2a 60
        E 0 90 3f 60
        E 0 90 48 60
        E 0 90 4b 60
        E 0 90 54 60
        E 0 90 57 60
        E 0 90 60 60
        E 0 90 63 60
        E 60 80 18 00
        E 0 80 2a 00
        E 0 80 3f 00
        E 0 80 48 00
        E 0 80 4b 00
        E 0 80 54 00
        E 0 80 57 00
        E 0 80 60 00
        E 0 80 63 00
        E 180 90 2a 60
        E 0 90 57 60
        E 0 90 63 60
        E 60 80 2a 00
        E 0 80 57 00
        E 0 80 63 00
        E 180 90 1a 60
        E 0 90 2a 60
        E 0 90 3d 60
        E 0 90 3f 60
        E 0 90 49 60
        E 0 90 4b 60
        E 0 90 55 60
        E 0 90 57 60
        E 0 90 61 60
        E 0 90 63 60
        E 60 80 1a 00
        E 0 80 2a 00
        E 0 80 3d 00
        E 0 80 3f 00
        E 0 80 49 00
        E 0 80 4b 00
        E 0 80 55 00
        E 0 80 57 00
        E 0 80 61 00
        E 0 80 63 00
        E 180 90 18 60
        E 0 90 2a 60
        E 0 90 54 60
        E 0 90 57 60
        E 0 90 60 60
        E 0 90 63 60
        E 60 80 18 00
        E 0 80 2a 00
        E 0 80 54 00
        E 0 80 57 00
        E 0 80 60 00
        E 0 80 63 00
        E 180 90 18 60
        E 0 90 2a 60
        E 0 90 3f 60
        E 0 90 48 60
        E 0 90 4b 60
        E 0 90 54 60
        E 0 90 57 60
        E 0 90 60 60
        E 0 90 63 60
        E 60 80 18 00
        E 0 80 2a 00
        E 0 80 3f 00
        E 0 80 48 00
        E 0 80 4b 00
        E 0 80 54 00
        E 0 80 57 00
        E 0 80 60 00
        E 0 80 63 00
        E 180 90 2a 60
        E 0 90 57 60
        E 0 90 63 60
        E 60 80 2a 00
        E 0 80 57 00
        E 0 80 63 00
        E 180 90 1a 60
        E 0 90 2a 60
        E 0 90 3d 60
        E 0 90 3f 60
        E 0 90 49 60
        E 0 90 4b 60
        E 0 90 55 60
        E 0 90 57 60
        E 0 90 61 60
        E 0 90 63 60
        E 60 80 1a 00
        E 0 80 2a 00
        E 0 80 3d 00
        E 0 80 3f 00
        E 0 80 49 00
        E 0 80 4b 00
        E 0 80 55 00
        E 0 80 57 00
        E 0 80 61 00
        E 0 80 63 00
        E 180 90 2a 60
        E 0 90 57 60
        E 0 90 63 60
        E 60 80 2a 00
        E 0 80 57 00
        E 0 80 63 00
        E 180 90 18 60
        E 0 90 2a 60
        E 0 90 3f 60
        E 0 90 48 60
        E 0 90 4b 60
        E 0 90 54 60
        E 0 90 57 60
        E 0 90 60 60
        E 0 90 63 60
        E 60 80 18 00
        E 0 80 2a 00
        E 0 80 3f 00
        E 0 80 48 00
        E 0 80 4b 00
        E 0 80 54 00
        E 0 80 57 00
        E 0 80 60 00
        E 0 80 63 00
        E 180 90 2a 60
        E 0 90 57 60
        E 0 90 63 60
        E 60 80 2a 00
        E 0 80 57 00
        E 0 80 63 00
        E 180 90 1a 60
        E 0 90 2a 60
        E 0 90 3d 60
        E 0 90 3f 60
        E 0 90 49 60
        E 0 90 4b 60
        E 0 90 55 60
        E 0 90 57 60
        E 0 90 61 60
        E 0 90 63 60
        E 60 80 1a 00
        E 0 80 2a 00
        E 0 80 3d 00
        E 0 80 3f 00
        E 0 80 49 00
        E 0 80 4b 00
        E 0 80 55 00
        E 0 80 57 00
        E 0 80 61 00
        E 0 80 63 00
        E 180 90 18 60
        E 0 90 2a 60
        E 0 90 54 60
        E 0 90 57 60
        E 0 90 60 60
        E 0 90 63 60
        E 60 80 18 00
        E 0 80 2a 00
        E 0 80 54 00
        E 0 80 57 00
        E 0 80 60 00
        E 0 80 63 00
        E 180 90 18 60
        E 0 90 2a 60
        E 0 90 3f 60
        E 0 90 48 60
        E 0 90 4b 60
        E 0 90 54 60
        E 0 90 57 60
        E 0 90 60 60
        E 0 90 63 60
        E 60 80 18 00
        E 0 80 2a 00
        E 0 80 3f 00
        E 0 80 48 00
        E 0 80 4b 00
        E 0 80 54 00
        E 0 80 57 00
        E 0 80 60 00
        E 0 80 63 00
        E 180 90 2a 60
        E 0 90 57 60
        E 0 90 63 60
        E 60 80 2a 00
        E 0 80 57 00
        E 0 80 63 00
        E 180 90 1a 60
        E 0 90 2a 60
        E 0 90 3d 60
        E 0 90 3f 60
        E 0 90 49 60
        E 0 90 4b 60
        E 0 90 55 60
        E 0 90 57 60
        E 0 90 61 60
        E 0 90 63 60
        E 60 80 1a 00
        E 0 80 2a 00
        E 0 80 3d 00
        E 0 80 3f 00
        E 0 80 49 00
        E 0 80 4b 00
        E 0 80 55 00
        E 0 80 57 00
        E 0 80 61 00
        E 0 80 63 00
        E 180 90 2a 60
        E 0 90 57 60
        E 0 90 63 60
        E 60 80 2a 00
        E 0 80 57 00
        E 0 80 63 00
        E 180 90 18 60
        E 0 90 2a 60
        E 0 90 3f 60
        E 0 90 48 60
        E 0 90 4b 60
        E 0 90 54 60
        E 0 90 57 60
        E 0 90 60 60
        E 0 90 63 60
        E 60 80 18 00
        E 0 80 2a 00
        E 0 80 3f 00
        E 0 80 48 00
        E 0 80 4b 00
        E 0 80 54 00
        E 0 80 57 00
        E 0 80 60 00
        E 0 80 63 00
        E 180 90 2a 60
        E 0 90 57 60
        E 0 90 63 60
        E 60 80 2a 00
        E 0 80 57 00
        E 0 80 63 00
        E 180 90 1a 60
        E 0 90 2a 60
        E 0 90 3d 60
        E 0 90 3f 60
        E 0 90 49 60
        E 0 90 4b 60
        E 0 90 55 60
        E 0 90 57 60
        E 0 90 61 60
        E 0 90 63 60
        E 60 80 1a 00
        E 0 80 2a 00
        E 0 80 3d 00
        E 0 80 3f 00
        E 0 80 49 00
        E 0 80 4b 00
        E 0 80 55 00
        E 0 80 57 00
        E 0 80 61 00
        E 0 80 63 00
        E 180 90 18 60
        E 0 90 2a 60
        E 0 90 54 60
        E 0 90 57 60
        E 0 90 60 60
        E 0 90 63 60
        E 60 80 18 00
        E 0 80 2a 00
        E 0 80 54 00
        E 0 80 57 00
        E 0 80 60 00
        E 0 80 63 00
        E 180 90 18 60
        E 0 90 2a 60
        E 0 90 3f 60
        E 0 90 48 60
        E 0 90 4b 60
        E 0 90 54 60
        E 0 90 57 60
        E 0 90 60 60
        E 0 90 63 60
        E 60 80 18 00
        E 0 80 2a 00
        E 0 80 3f 00
        E 0 80 48 00
        E 0 80 4b 00
        E 0 80 54 00
        E 0 80 57 00
        E 0 80 60 00
        E 0 80 63 00
        E 180 90 2a 60
        E 0 90 57 60
        E 0 90 63 60
        E 60 80 2a 00
        E 0 80 57 00
        E 0 80 63 00
        E 180 90 1a 60
        E 0 90 2a 60
        E 0 90 3d 60
        E 0 90 3f 60
        E 0 90 49 60
        E 0 90 4b 60
        E 0 90 55 60
        E 0 90 57 60
        E 0 90 61 60
        E 0 90 63 60
        E 60 80 1a 00
        E 0 80 2a 00
        E 0 80 3d 00
        E 0 80 3f 00
        E 0 80 49 00
        E 0 80 4b 00
        E 0 80 55 00
        E 0 80 57 00
        E 0 80 61 00
        E 0 80 63 00
        E 180 90 2a 60
        E 0 90 57 60
        E 0 90 63 60
        E 60 80 2a 00
        E 0 80 57 00
        E 0 80 63 00
        E 180 90 18 60
        E 0 90 22 60
        E 0 90 26 60
        E 0 90 3e 60
        E 0 90 40 60
        E 0 90 48 60
        E 0 90 4a 60
        E 0 90 4c 60
        E 0 90 54 60
        E 0 90 56 60
        E 0 90 58 60
        E 0 90 60 60
        E 0 90 62 60
        E 0 90 64 60
        E 60 80 18 00
        E 0 80 22 00
        E 0 80 26 00
        E 0 80 3e 00
        E 0 80 40 00
        E 0 80 48 00
        E 0 80 4a 00
        E 0 80 4c 00
        E 0 80 54 00
        E 0 80 56 00
        E 0 80 58 00
        E 0 80 60 00
        E 0 80 62 00
        E 0 80 64 00
        E 180 90 18 60
        E 0 90 1f 60
        E 0 90 54 60
        E 0 90 56 60
        E 0 90 60 60
        E 0 90 62 60
        E 60 80 18 00
        E 0 80 1f 00
        E 0 80 54 00
        E 0 80 56 00
        E 0 80 60 00
        E 0 80 62 00
        E 180 90 1a 60
        E 0 90 1f 60
        E 0 90 3d 60
        E 0 90 3e 60
        E 0 90 49 60
        E 0 90 4a 60
        E 0 90 55 60
        E 0 90 56 60
        E 0 90 61 60
        E 0 90 62 60
        E 60 80 1a 00
        E 0 80 1f 00
        E 0 80 3d 00
        E 0 80 3e 00
        E 0 80 49 00
        E 0 80 4a 00
        E 0 80 55 00
        E 0 80 56 00
        E 0 80 61 00
        E 0 80 62 00
        E 180 90 1f 60
        E 0 90 56 60
        E 0 90 62 60
        E 60 80 1f 00
        E 0 80 56 00
        E 0 80 62 00
        E 180 90 1f 60
        E 0 90 3e 60
        E 0 90 4a 60
        E 0 90 56 60
        E 0 90 62 60
        E 60 80 1f 00
        E 0 80 3e 00
        E 0 80 4a 00
        E 0 80 56 00
        E 0 80 62 00
        E 180 90 1f 60
        E 0 90 56 60
        E 0 90 62 60
        E 60 80 1f 00
        E 0 80 56 00
        E 0 80 62 00
        E 180 90 1a 60
        E 0 90 1f 60
        E 0 90 3d 60
        E 0 90 3e 60
        E 0 90 49 60
        E 0 90 4a 60
        E 0 90 55 60
        E 0 90 56 60
        E 0 90 61 60
        E 0 90 62 60
        E 60 80 1a 00
        E 0 80 1f 00
        E 0 80 3d 00
        E 0 80 3e 00
        E 0 80 49 00
        E 0 80 4a 00
        E 0 80 55 00
        E 0 80 56 00
        E 0 80 61 00
        E 0 80 62 00
        E 180 90 1f 60
        E 0 90 56 60
        E 0 90 62 60
        E 60 80 1f 00
        E 0 80 56 00
        E 0 80 62 00
        E 180 90 18 60
        E 0 90 1f 60
        E 0 90 3e 60
        E 0 90 48 60
        E 0 90 4a 60
        E 0 90 54 60
        E 0 90 56 60
        E 0 90 60 60
        E 0 90 62 60
        E 60 80 18 00
        E 0 80 1f 00
        E 0 80 3e 00
        E 0 80 48 00
        E 0 80 4a 00
        E 0 80 54 00
        E 0 80 56 00
        E 0 80 60 00
        E 0 80 62 00
        E 180 90 18 60
        E 0 90 1f 60
        E 0 90 54 60
        E 0 90 56 60
        E 0 90 60 60
        E 0 90 62 60
        E 60 80 18 00
        E 0 80 1f 00
        E 0 80 54 00
        E 0 80 56 00
        E 0 80 60 00
        E 0 80 62 00
        E 180 90 1a 60
        E 0 90 1f 60
        E 0 90 3d 60
        E 0 90 3e 60
        E 0 90 49 60
        E 0 90 4a 60
        E 0 90 55 60
        E 0 90 56 60
        E 0 90 61 60
        E 0 90 62 60
        E 60 80 1a 00
        E 0 80 1f 00
        E 0 80 3d 00
        E 0 80 3e 00
        E 0 80 49 00
        E 0 80 4a 00
        E 0 80 55 00
        E 0 80 56 00
        E 0 80 61 00
        E 0 80 62 00
        E 180 90 1f 60
        E 0 90 56 60
        E 0 90 62 60
        E 60 80 1f 00
        E 0 80 56 00
        E 0 80 62 00
        E 180 90 1f 60
        E 0 90 3e 60
        E 0 90 4a 60
        E 0 90 56 60
        E 0 90 62 60
        E 60 80 1f 00
        E 0 80 3e 00
        E 0 80 4a 00
        E 0 80 56 00
        E 0 80 62 00
        E 180 90 1f 60
        E 0 90 56 60
        E 0 90 62 60
        E 60 80 1f 00
        E 0 80 56 00
        E 0 80 62 00
        E 180 90 1a 60
        E 0 90 1f 60
        E 0 90 3d 60
        E 0 90 3e 60
        E 0 90 49 60
        E 0 90 4a 60
        E 0 90 55 60
        E 0 90 56 60
        E 0 90 61 60
        E 0 90 62 60
        E 60 80 1a 00
        E 0 80 1f 00
        E 0 80 3d 00
        E 0 80 3e 00
        E 0 80 49 00
        E 0 80 4a 00
        E 0 80 55 00
        E 0 80 56 00
        E 0 80 61 00
        E 0 80 62 00
        E 180 90 1f 60
        E 0 90 56 60
        E 0 90 62 60
        E 60 80 1f 00
        E 0 80 56 00
        E 0 80 62 00
        E 180 90 18 60
        E 0 90 1f 60
        E 0 90 3e 60
        E 0 90 48 60
        E 0 90 4a 60
        E 0 90 54 60
        E 0 90 56 60
        E 0 90 60 60
        E 0 90 62 60
        E 60 80 18 00
        E 0 80 1f 00
        E 0 80 3e 00
        E 0 80 48 00
        E 0 80 4a 00
        E 0 80 54 00
        E 0 80 56 00
        E 0 80 60 00
        E 0 80 62 00
        E 180 90 18 60
        E 0 90 1f 60
        E 0 90 54 60
        E 0 90 56 60
        E 0 90 60 60
        E 0 90 62 60
        E 60 80 18 00
        E 0 80 1f 00
        E 0 80 54 00
        E 0 80 56 00
        E 0 80 60 00
        E 0 80 62 00
        E 180 90 1a 60
        E 0 90 1f 60
        E 0 90 3d 60
        E 0 90 3e 60
        E 0 90 49 60
        E 0 90 4a 60
        E 0 90 55 60
        E 0 90 56 60
        E 0 90 61 60
        E 0 90 62 60
        E 60 80 1a 00
        E 0 80 1f 00
        E 0 80 3d 00
        E 0 80 3e 00
        E 0 80 49 00
        E 0 80 4a 00
        E 0 80 55 00
        E 0 80 56 00
        E 0 80 61 00
        E 0 80 62 00
        E 180 90 1f 60
        E 0 90 56 60
        E 0 90 62 60
        E 60 80 1f 00
        E 0 80 56 00
        E 0 80 62 00
        E 180 90 1f 60
        E 0 90 3e 60
        E 0 90 4a 60
        E 0 90 56 60
        E 0 90 62 60
        E 60 80 1f 00
        E 0 80 3e 00
        E 0 80 4a 00
        E 0 80 56 00
        E 0 80 62 00
        E 180 90 1f 60
        E 0 90 56 60
        E 0 90 62 60
        E 60 80 1f 00
        E 0 80 56 00
        E 0 80 62 00
        E 180 90 1a 60
        E 0 90 1f 60
        E 0 90 3d 60
        E 0 90 3e 60
        E 0 90 49 60
        E 0 90 4a 60
        E 0 90 55 60
        E 0 90 56 60
        E 0 90 61 60
        E 0 90 62 60
        E 60 80 1a 00
        E 0 80 1f 00
        E 0 80 3d 00
        E 0 80 3e 00
        E 0 80 49 00
        E 0 80 4a 00
        E 0 80 55 00
        E 0 80 56 00
        E 0 80 61 00
        E 0 80 62 00
        E 180 90 1f 60
        E 0 90 56 60
        E 0 90 62 60
        E 60 80 1f 00
        E 0 80 56 00
        E 0 80 62 00
        E 180 90 18 60
        E 0 90 1f 60
        E 0 90 3e 60
        E 0 90 48 60
        E 0 90 4a 60
        E 0 90 54 60
        E 0 90 56 60
        E 0 90 60 60
        E 0 90 62 60
        E 60 80 18 00
        E 0 80 1f 00
        E 0 80 3e 00
        E 0 80 48 00
        E 0 80 4a 00
        E 0 80 54 00
        E 0 80 56 00
        E 0 80 60 00
        E 0 80 62 00
        E 180 90 18 60
        E 0 90 1f 60
        E 0 90 54 60
        E 0 90 56 60
        E 0 90 60 60
        E 0 90 62 60
        E 60 80 18 00
        E 0 80 1f 00
        E 0 80 54 00
        E 0 80 56 00
        E 0 80 60 00
        E 0 80 62 00
        E 180 90 1a 60
        E 0 90 1f 60
        E 0 90 3d 60
        E 0 90 3e 60
        E 0 90 49 60
        E 0 90 4a 60
        E 0 90 55 60
        E 0 90 56 60
        E 0 90 61 60
        E 0 90 62 60
        E 60 80 1a 00
        E 0 80 1f 00
        E 0 80 3d 00
        E 0 80 3e 00
        E 0 80 49 00
        E 0 80 4a 00
        E 0 80 55 00
        E 0 80 56 00
        E 0 80 61 00
        E 0 80 62 00
        E 180 90 1f 60
        E 0 90 56 60
        E 0 90 62 60
        E 60 80 1f 00
        E 0 80 56 00
        E 0 80 62 00
        E 180 90 1f 60
        E 0 90 3e 60
        E 0 90 4a 60
        E 0 90 56 60
        E 0 90 62 60
        E 60 80 1f 00
        E 0 80 3e 00
        E 0 80 4a 00
        E 0 80 56 00
        E 0 80 62 00
        E 180 90 1f 60
        E 0 90 56 60
        E 0 90 62 60
        E 60 80 1f 00
        E 0 80 56 00
        E 0 80 62 00
        E 180 90 1a 60
        E 0 90 1f 60
        E 0 90 3d 60
        E 0 90 3e 60
        E 0 90 49 60
        E 0 90 4a 60
        E 0 90 55 60
        E 0 90 56 60
        E 0 90 61 60
        E 0 90 62 60
        E 60 80 1a 00
        E 0 80 1f 00
        E 0 80 3d 00
        E 0 80 3e 00
        E 0 80 49 00
        E 0 80 4a 00
        E 0 80 55 00
        E 0 80 56 00
        E 0 80 61 00
        E 0 80 62 00
        E 180 90 1f 60
        E 0 90 56 60
        E 0 90 62 60
        E 60 80 1f 00
        E 0 80 56 00
        E 0 80 62 00
        E 180 90 18 60
        E 0 90 1f 60
        E 0 90 3e 60
        E 0 90 48 60
        E 0 90 4a 60
        E 0 90 54 60
        E 0 90 56 60
        E 0 90 60 60
        E 0 90 62 60
        E 60 80 18 00
        E 0 80 1f 00
        E 0 80 3e 00
        E 0 80 48 00
        E 0 80 4a 00
        E 0 80 54 00
        E 0 80 56 00
        E 0 80 60 00
        E 0 80 62 00
        E 180 90 18 60
        E 0 90 1f 60
        E 0 90 54 60
        E 0 90 56 60
        E 0 90 60 60
        E 0 90 62 60
        E 60 80 18 00
        E 0 80 1f 00
        E 0 80 54 00
        E 0 80 56 00
        E 0 80 60 00
        E 0 80 62 00
        E 180 90 1a 60
        E 0 90 1f 60
        E 0 90 3d 60
        E 0 90 3e 60
        E 0 90 49 60
        E 0 90 4a 60
        E 0 90 55 60
        E 0 90 56 60
        E 0 90 61 60
        E 0 90 62 60
        E 60 80 1a 00
        E 0 80 1f 00
        E 0 80 3d 00
        E 0 80 3e 00
        E 0 80 49 00
        E 0 80 4a 00
        E 0 80 55 00
        E 0 80 56 00
        E 0 80 61 00
        E 0 80 62 00
        E 180 90 1f 60
        E 0 90 56 60
        E 0 90 62 60
        E 60 80 1f 00
        E 0 80 56 00
        E 0 80 62 00
        E 180 90 1f 60
        E 0 90 3e 60
        E 0 90 4a 60
        E 0 90 56 60
        E 0 90 62 60
        E 60 80 1f 00
        E 0 80 3e 00
        E 0 80 4a 00
        E 0 80 56 00
        E 0 80 62 00
        E 180 90 1f 60
        E 0 90 56 60
        E 0 90 62 60
        E 60 80 1f 00
        E 0 80 56 00
        E 0 80 62 00
        E 180 90 1a 60
        E 0 90 1f 60
        E 0 90 3d 60
        E 0 90 3e 60
        E 0 90 49 60
        E 0 90 4a 60
        E 0 90 55 60
        E 0 90 56 60
        E 0 90 61 60
        E 0 90 62 60
        E 60 80 1a 00
        E 0 80 1f 00
        E 0 80 3d 00
        E 0 80 3e 00
        E 0 80 49 00
        E 0 80 4a 00
        E 0 80 55 00
        E 0 80 56 00
        E 0 80 61 00
        E 0 80 62 00
        E 180 90 1f 60
        E 0 90 56 60
        E 0 90 62 60
        E 60 80 1f 00
        E 0 80 56 00
        E 0 80 62 00
        E 180 90 18 60
        E 0 90 1f 60
        E 0 90 3e 60
        E 0 90 48 60
        E 0 90 4a 60
        E 0 90 54 60
        E 0 90 56 60
        E 0 90 60 60
        E 0 90 62 60
        E 60 80 18 00
        E 0 80 1f 00
        E 0 80 3e 00
        E 0 80 48 00
        E 0 80 4a 00
        E 0 80 54 00
        E 0 80 56 00
        E 0 80 60 00
        E 0 80 62 00
        E 180 90 18 60
        E 0 90 1f 60
        E 0 90 54 60
        E 0 90 56 60
        E 0 90 60 60
        E 0 90 62 60
        E 60 80 18 00
        E 0 80 1f 00
        E 0 80 54 00
        E 0 80 56 00
        E 0 80 60 00
        E 0 80 62 00
        E 180 90 1a 60
        E 0 90 1f 60
        E 0 90 3d 60
        E 0 90 3e 60
        E 0 90 49 60
        E 0 90 4a 60
        E 0 90 55 60
        E 0 90 56 60
        E 0 90 61 60
        E 0 90 62 60
        E 60 80 1a 00
        E 0 80 1f 00
        E 0 80 3d 00
        E 0 80 3e 00
        E 0 80 49 00
        E 0 80 4a 00
        E 0 80 55 00
        E 0 80 56 00
        E 0 80 61 00
        E 0 80 62 00
        E 180 90 1f 60
        E 0 90 56 60
        E 0 90 62 60
        E 60 80 1f 00
        E 0 80 56 00
        E 0 80 62 00
        E 180 90 1f 60
        E 0 90 3e 60
        E 0 90 4a 60
        E 0 90 56 60
        E 0 90 62 60
        E 60 80 1f 00
        E 0 80 3e 00
        E 0 80 4a 00
        E 0 80 56 00
        E 0 80 62 00
        E 180 90 1f 60
        E 0 90 56 60
        E 0 90 62 60
        E 60 80 1f 00
        E 0 80 56 00
        E 0 80 62 00
        E 180 90 1a 60
        E 0 90 1f 60
        E 0 90 3d 60
        E 0 90 3e 60
        E 0 90 49 60
        E 0 90 4a 60
        E 0 90 55 60
        E 0 90 56 60
        E 0 90 61 60
        E 0 90 62 60
        E 60 80 1a 00
        E 0 80 1f 00
        E 0 80 3d 00
        E 0 80 3e 00
        E 0 80 49 00
        E 0 80 4a 00
        E 0 80 55 00
        E 0 80 56 00
        E 0 80 61 00
        E 0 80 62 00
        E 180 90 1f 60
        E 0 90 56 60
        E 0 90 62 60
        E 60 80 1f 00
        E 0 80 56 00
        E 0 80 62 00
        E 180 90 18 60
        E 0 90 1f 60
        E 0 90 3e 60
        E 0 90 48 60
        E 0 90 4a 60
        E 0 90 54 60
        E 0 90 56 60
        E 0 90 60 60
        E 0 90 62 60
        E 60 80 18 00
        E 0 80 1f 00
        E 0 80 3e 00
        E 0 80 48 00
        E 0 80 4a 00
        E 0 80 54 00
        E 0 80 56 00
        E 0 80 60 00
        E 0 80 62 00
        E 180 90 18 60
        E 0 90 1f 60
        E 0 90 54 60
        E 0 90 56 60
        E 0 90 60 60
        E 0 90 62 60
        E 60 80 18 00
        E 0 80 1f 00
        E 0 80 54 00
        E 0 80 56 00
        E 0 80 60 00
        E 0 80 62 00
        E 180 90 1a 60
        E 0 90 1f 60
        E 0 90 3d 60
        E 0 90 3e 60
        E 0 90 49 60
        E 0 90 4a 60
        E 0 90 55 60
        E 0 90 56 60
        E 0 90 61 60
        E 0 90 62 60
        E 60 80 1a 00
        E 0 80 1f 00
        E 0 80 3d 00
        E 0 80 3e 00
        E 0 80 49 00
        E 0 80 4a 00
        E 0 80 55 00
        E 0 80 56 00
        E 0 80 61 00
        E 0 80 62 00
        E 180 90 1f 60
        E 0 90 56 60
        E 0 90 62 60
        E 60 80 1f 00
        E 0 80 56 00
        E 0 80 62 00
        E 180 90 1f 60
        E 0 90 3e 60
        E 0 90 4a 60
        E 0 90 56 60
        E 0 90 62 60
        E 60 80 1f 00
        E 0 80 3e 00
        E 0 80 4a 00
        E 0 80 56 00
        E 0 80 62 00
        E 180 90 1f 60
        E 0 90 56 60
        E 0 90 62 60
        E 60 80 1f 00
        E 0 80 56 00
        E 0 80 62 00
        E 180 90 1a 60
        E 0 90 1f 60
        E 0 90 3d 60
        E 0 90 3e 60
        E 0 90 49 60
        E 0 90 4a 60
        E 0 90 55 60
        E 0 90 56 60
        E 0 90 61 60
        E 0 90 62 60
        E 60 80 1a 00
        E 0 80 1f 00
        E 0 80 3d 00
        E 0 80 3e 00
        E 0 80 49 00
        E 0 80 4a 00
        E 0 80 55 00
        E 0 80 56 00
        E 0 80 61 00
        E 0 80 62 00
        E 180 90 1f 60
        E 0 90 56 60
        E 0 90 62 60
        E 60 80 1f 00
        E 0 80 56 00
        E 0 80 62 00
        E 180 90 18 60
        E 0 90 1f 60
        E 0 90 3e 60
        E 0 90 48 60
        E 0 90 4a 60
        E 0 90 54 60
        E 0 90 56 60
        E 0 90 60 60
        E 0 90 62 60
        E 60 80 18 00
        E 0 80 1f 00
        E 0 80 3e 00
        E 0 80 48 00
        E 0 80 4a 00
        E 0 80 54 00
        E 0 80 56 00
        E 0 80 60 00
        E 0 80 62 00
        E 180 90 18 60
        E 0 90 1f 60
        E 0 90 54 60
        E 0 90 56 60
        E 0 90 60 60
        E 0 90 62 60
        E 60 80 18 00
        E 0 80 1f 00
        E 0 80 54 00
        E 0 80 56 00
        E 0 80 60 00
        E 0 80 62 00
        E 180 90 1a 60
        E 0 90 1f 60
        E 0 90 3d 60
        E 0 90 3e 60
        E 0 90 49 60
        E 0 90 4a 60
        E 0 90 55 60
        E 0 90 56 60
        E 0 90 61 60
        E 0 90 62 60
        E 60 80 1a 00
        E 0 80 1f 00
        E 0 80 3d 00
        E 0 80 3e 00
        E 0 80 49 00
        E 0 80 4a 00
        E 0 80 55 00
        E 0 80 56 00
        E 0 80 61 00
        E 0 80 62 00
        E 180 90 1f 60
        E 0 90 56 60
        E 0 90 62 60
        E 60 80 1f 00
        E 0 80 56 00
        E 0 80 62 00
        E 180 90 18 60
        E 0 90 1f 60
        E 0 90 3e 60
        E 0 90 48 60
        E 0 90 4a 60
        E 0 90 54 60
        E 0 90 56 60
        E 0 90 60 60
        E 0 90 62 60
        E 60 80 18 00
        E 0 80 1f 00
        E 0 80 3e 00
        E 0 80 48 00
        E 0 80 4a 00
        E 0 80 54 00
        E 0 80 56 00
        E 0 80 60 00
        E 0 80 62 00
        E 180 90 18 60
        E 0 90 1f 60
        E 0 90 54 60
        E 0 90 56 60
        E 0 90 60 60
        E 0 90 62 60
        E 60 80 18 00
        E 0 80 1f 00
        E 0 80 54 00
        E 0 80 56 00
        E 0 80 60 00
        E 0 80 62 00
        E 180 90 1a 60
        E 0 90 1f 60
        E 0 90 3d 60
        E 0 90 3e 60
        E 0 90 49 60
        E 0 90 4a 60
        E 0 90 55 60
        E 0 90 56 60
        E 0 90 61 60
        E 0 90 62 60
        E 60 80 1a 00
        E 0 80 1f 00
        E 0 80 3d 00
        E 0 80 3e 00
        E 0 80 49 00
        E 0 80 4a 00
        E 0 80 55 00
        E 0 80 56 00
        E 0 80 61 00
        E 0 80 62 00
        E 180 90 1f 60
        E 0 90 56 60
        E 0 90 62 60
        E 60 80 1f 00
        E 0 80 56 00
        E 0 80 62 00
        E 180 90 18 60
        E 0 90 1f 60
        E 0 90 3e 60
        E 0 90 48 60
        E 0 90 4a 60
        E 0 90 54 60
        E 0 90 56 60
        E 0 90 60 60
        E 0 90 62 60
        E 60 80 18 00
        E 0 80 1f 00
        E 0 80 3e 00
        E 0 80 48 00
        E 0 80 4a 00
        E 0 80 54 00
        E 0 80 56 00
        E 0 80 60 00
        E 0 80 62 00
        E 180 90 18 60
        E 0 90 1f 60
        E 0 90 54 60
        E 0 90 56 60
        E 0 90 60 60
        E 0 90 62 60
        E 60 80 18 00
        E 0 80 1f 00
        E 0 80 54 00
        E 0 80 56 00
        E 0 80 60 00
        E 0 80 62 00
        E 180 90 1a 60
        E 0 90 1f 60
        E 0 90 3d 60
        E 0 90 3e 60
        E 0 90 49 60
        E 0 90 4a 60
        E 0 90 55 60
        E 0 90 56 60
        E 0 90 61 60
        E 0 90 62 60
        E 60 80 1a 00
        E 0 80 1f 00
        E 0 80 3d 00
        E 0 80 3e 00
        E 0 80 49 00
        E 0 80 4a 00
        E 0 80 55 00
        E 0 80 56 00
        E 0 80 61 00
        E 0 80 62 00
        E 180 90 1f 60
        E 0 90 56 60
        E 0 90 62 60
        E 60 80 1f 00
        E 0 80 56 00
        E 0 80 62 00
        E 180 90 1f 60
        E 0 90 3e 60
        E 0 90 4a 60
        E 0 90 56 60
        E 0 90 62 60
        E 60 80 1f 00
        E 0 80 3e 00
        E 0 80 4a 00
        E 0 80 56 00
        E 0 80 62 00
        E 180 90 1f 60
        E 0 90 56 60
        E 0 90 62 60
        E 1 90 74 60
        E 59 80 1f 00
        E 0 80 56 00
        E 0 80 62 00
        E 180 90 1a 60
        E 0 90 1f 60
        E 0 90 3d 60
        E 0 90 3e 60
        E 0 90 49 60
        E 0 90 4a 60
        E 0 90 55 60
        E 0 90 56 60
        E 0 90 61 60
        E 0 90 62 60
        E 60 80 1a 00
        E 0 80 1f 00
        E 0 80 3d 00
        E 0 80 3e 00
        E 0 80 49 00
        E 0 80 4a 00
        E 0 80 55 00
        E 0 80 56 00
        E 0 80 61 00
        E 0 80 62 00
        E 180 90 1f 60
        E 0 90 56 60
        E 0 90 62 60
        E 60 80 1f 00
        E 0 80 56 00
        E 0 80 62 00
        E 180 90 18 60
        E 0 90 1f 60
        E 0 90 3e 60
        E 0 90 48 60
        E 0 90 4a 60
        E 0 90 54 60
        E 0 90 56 60
        E 0 90 60 60
        E 0 90 62 60
        E 60 80 18 00
        E 0 80 1f 00
        E 0 80 3e 00
        E 0 80 48 00
        E 0 80 4a 00
        E 0 80 54 00
        E 0 80 56 00
        E 0 80 60 00
        E 0 80 62 00
        E 180 90 18 60
        E 0 90 1f 60
        E 0 90 54 60
        E 0 90 56 60
        E 0 90 60 60
        E 0 90 62 60
        E 60 80 18 00
        E 0 80 1f 00
        E 0 80 54 00
        E 0 80 56 00
        E 0 80 60 00
        E 0 80 62 00
        E 180 90 1a 60
        E 0 90 1f 60
        E 0 90 3d 60
        E 0 90 3e 60
        E 0 90 49 60
        E 0 90 4a 60
        E 0 90 55 60
        E 0 90 56 60
        E 0 90 61 60
        E 0 90 62 60
        E 60 80 1a 00
        E 0 80 1f 00
        E 0 80 3d 00
        E 0 80 3e 00
        E 0 80 49 00
        E 0 80 4a 00
        E 0 80 55 00
        E 0 80 56 00
        E 0 80 61 00
        E 0 80 62 00
        E 180 90 1f 60
        E 0 90 56 60
        E 0 90 62 60
        E 60 80 1f 00
        E 0 80 56 00
        E 0 80 62 00
        E 180 90 1f 60
        E 0 90 3e 60
        E 0 90 4a 60
        E 0 90 56 60
        E 0 90 62 60
        E 60 80 1f 00
        E 0 80 3e 00
        E 0 80 4a 00
        E 0 80 56 00
        E 0 80 62 00
        E 180 90 1f 60
        E 0 90 56 60
        E 0 90 62 60
        E 60 80 1f 00
        E 0 80 56 00
        E 0 80 62 00
        E 180 90 1a 60
        E 0 90 1f 60
        E 0 90 3d 60
        E 0 90 3e 60
        E 0 90 49 60
        E 0 90 4a 60
        E 0 90 55 60
        E 0 90 56 60
        E 0 90 61 60
        E 0 90 62 60
        E 60 80 1a 00
        E 0 80 1f 00
        E 0 80 3d 00
        E 0 80 3e 00
        E 0 80 49 00
        E 0 80 4a 00
        E 0 80 55 00
        E 0 80 56 00
        E 0 80 61 00
        E 0 80 62 00
        E 180 90 1f 60
        E 0 90 56 60
        E 0 90 62 60
        E 60 80 1f 00
        E 0 80 56 00
        E 0 80 62 00
        E 180 90 18 60
        E 0 90 1f 60
        E 0 90 3e 60
        E 0 90 48 60
        E 0 90 4a 60
        E 0 90 54 60
        E 0 90 56 60
        E 0 90 60 60
        E 0 90 62 60
        E 60 80 18 00
        E 0 80 1f 00
        E 0 80 3e 00
        E 0 80 48 00
        E 0 80 4a 00
        E 0 80 54 00
        E 0 80 56 00
        E 0 80 60 00
        E 0 80 62 00
        E 180 90 18 60
        E 0 90 1f 60
        E 0 90 54 60
        E 0 90 56 60
        E 0 90 60 60
        E 0 90 62 60
        E 60 80 18 00
        E 0 80 1f 00
        E 0 80 54 00
        E 0 80 56 00
        E 0 80 60 00
        E 0 80 62 00
        E 180 90 1a 60
        E 0 90 1f 60
        E 0 90 3d 60
        E 0 90 3e 60
        E 0 90 49 60
        E 0 90 4a 60
        E 0 90 55 60
        E 0 90 56 60
        E 0 90 61 60
        E 0 90 62 60
        E 60 80 1a 00
        E 0 80 1f 00
        E 0 80 3d 00
        E 0 80 3e 00
        E 0 80 49 00
        E 0 80 4a 00
        E 0 80 55 00
        E 0 80 56 00
        E 0 80 61 00
        E 0 80 62 00
        E 180 90 1f 60
        E 0 90 56 60
        E 0 90 62 60
        E 1 80 74 00
        E 59 80 1f 00
        E 0 80 56 00
        E 0 80 62 00
        E 180 90 1f 60
        E 0 90 3e 60
        E 0 90 4a 60
        E 0 90 56 60
        E 0 90 62 60
        E 60 80 1f 00
        E 0 80 3e 00
        E 0 80 4a 00
        E 0 80 56 00
        E 0 80 62 00
        E 180 90 1f 60
        E 0 90 56 60
        E 0 90 62 60
        E 60 80 1f 00
        E 0 80 56 00
        E 0 80 62 00
        E 180 90 1a 60
        E 0 90 1f 60
        E 0 90 3d 60
        E 0 90 3e 60
        E 0 90 49 60
        E 0 90 4a 60
        E 0 90 55 60
        E 0 90 56 60
        E 0 90 61 60
        E 0 90 62 60
        E 60 80 1a 00
        E 0 80 1f 00
        E 0 80 3d 00
        E 0 80 3e 00
        E 0 80 49 00
        E 0 80 4a 00
        E 0 80 55 00
        E 0 80 56 00
        E 0 80 61 00
        E 0 80 62 00
        E 180 90 1f 60
        E 0 90 56 60
        E 0 90 62 60
        E 60 80 1f 00
        E 0 80 56 00
        E 0 80 62 00
        E 180 90 18 60
        E 0 90 1f 60
        E 0 90 3e 60
        E 0 90 48 60
        E 0 90 4a 60
        E 0 90 54 60
        E 0 90 56 60
        E 0 90 60 60
        E 0 90 62 60
        E 60 80 18 00
        E 0 80 1f 00
        E 0 80 3e 00
        E 0 80 48 00
        E 0 80 4a 00
        E 0 80 54 00
        E 0 80 56 00
        E 0 80 60 00
        E 0 80 62 00
        E 180 90 18 60
        E 0 90 1f 60
        E 0 90 54 60
        E 0 90 56 60
        E 0 90 60 60
        E 0 90 62 60
        E 60 80 18 00
        E 0 80 1f 00
        E 0 80 54 00
        E 0 80 56 00
        E 0 80 60 00
        E 0 80 62 00
        E 180 90 1a 60
        E 0 90 1f 60
        E 0 90 3d 60
        E 0 90 3e 60
        E 0 90 49 60
        E 0 90 4a 60
        E 0 90 55 60
        E 0 90 56 60
        E 0 90 61 60
        E 0 90 62 60
        E 60 80 1a 00
        E 0 80 1f 00
        E 0 80 3d 00
        E 0 80 3e 00
        E 0 80 49 00
        E 0 80 4a 00
        E 0 80 55 00
        E 0 80 56 00
        E 0 80 61 00
        E 0 80 62 00
        E 180 90 1f 60
        E 0 90 56 60
        E 0 90 62 60
        E 60 80 1f 00
        E 0 80 56 00
        E 0 80 62 00
        E 180 90 1f 60
        E 0 90 3e 60
        E 0 90 4a 60
        E 0 90 56 60
        E 0 90 62 60
        E 60 80 1f 00
        E 0 80 3e 00
        E 0 80 4a 00
        E 0 80 56 00
        E 0 80 62 00
        E 180 90 1f 60
        E 0 90 56 60
        E 0 90 62 60
        E 60 80 1f 00
        E 0 80 56 00
        E 0 80 62 00
        E 180 90 1a 60
        E 0 90 1f 60
        E 0 90 3d 60
        E 0 90 3e 60
        E 0 90 49 60
        E 0 90 4a 60
        E 0 90 55 60
        E 0 90 56 60
        E 0 90 61 60
        E 0 90 62 60
        E 60 80 1a 00
        E 0 80 1f 00
        E 0 80 3d 00
        E 0 80 3e 00
        E 0 80 49 00
        E 0 80 4a 00
        E 0 80 55 00
        E 0 80 56 00
        E 0 80 61 00
        E 0 80 62 00
        E 180 90 1f 60
        E 0 90 56 60
        E 0 90 62 60
        E 60 80 1f 00
        E 0 80 56 00
        E 0 80 62 00
        E 180 90 18 60
        E 0 90 1f 60
        E 0 90 3e 60
        E 0 90 48 60
        E 0 90 4a 60
        E 0 90 54 60
        E 0 90 56 60
        E 0 90 60 60
        E 0 90 62 60
        E 60 80 18 00
        E 0 80 1f 00
        E 0 80 3e 00
        E 0 80 48 00
        E 0 80 4a 00
        E 0 80 54 00
        E 0 80 56 00
        E 0 80 60 00
        E 0 80 62 00
        E 180 90 18 60
        E 0 90 1f 60
        E 0 90 54 60
        E 0 90 56 60
        E 0 90 60 60
        E 0 90 62 60
        E 60 80 18 00
        E 0 80 1f 00
        E 0 80 54 00
        E 0 80 56 00
        E 0 80 60 00
        E 0 80 62 00
        E 180 90 1a 60
        E 0 90 1f 60
        E 0 90 3d 60
        E 0 90 3e 60
        E 0 90 49 60
        E 0 90 4a 60
        E 0 90 55 60
        E 0 90 56 60
        E 0 90 61 60
        E 0 90 62 60
        E 60 80 1a 00
        E 0 80 1f 00
        E 0 80 3d 00
        E 0 80 3e 00
        E 0 80 49 00
        E 0 80 4a 00
        E 0 80 55 00
        E 0 80 56 00
        E 0 80 61 00
        E 0 80 62 00
        E 180 90 1f 60
        E 0 90 56 60
        E 0 90 62 60
        E 60 80 1f 00
        E 0 80 56 00
        E 0 80 62 00
        E 180 90 1f 60
        E 0 90 3e 60
        E 0 90 4a 60
        E 0 90 56 60
        E 0 90 62 60
        E 60 80 1f 00
        E 0 80 3e 00
        E 0 80 4a 00
        E 0 80 56 00
        E 0 80 62 00
        E 180 90 1f 60
        E 0 90 56 60
        E 0 90 62 60
        E 60 80 1f 00
        E 0 80 56 00
        E 0 80 62 00
        E 180 90 1a 60
        E 0 90 1f 60
        E 0 90 3d 60
        E 0 90 3e 60
        E 0 90 49 60
        E 0 90 4a 60
        E 0 90 55 60
        E 0 90 56 60
        E 0 90 61 60
        E 0 90 62 60
        E 60 80 1a 00
        E 0 80 1f 00
        E 0 80 3d 00
        E 0 80 3e 00
        E 0 80 49 00
        E 0 80 4a 00
        E 0 80 55 00
        E 0 80 56 00
        E 0 80 61 00
        E 0 80 62 00
        E 180 90 1f 60
        E 0 90 56 60
        E 0 90 62 60
        E 60 80 1f 00
        E 0 80 56 00
        E 0 80 62 00
        E 180 90 18 60
        E 0 90 1f 60
        E 0 90 3e 60
        E 0 90 48 60
        E 0 90 4a 60
        E 0 90 54 60
        E 0 90 56 60
        E 0 90 60 60
        E 0 90 62 60
        E 60 80 18 00
        E 0 80 1f 00
        E 0 80 3e 00
        E 0 80 48 00
        E 0 80 4a 00
        E 0 80 54 00
        E 0 80 56 00
        E 0 80 60 00
        E 0 80 62 00
        E 180 90 18 60
        E 0 90 1f 60
        E 0 90 54 60
        E 0 90 56 60
        E 0 90 60 60
        E 0 90 62 60
        E 60 80 18 00
        E 0 80 1f 00
        E 0 80 54 00
        E 0 80 56 00
        E 0 80 60 00
        E 0 80 62 00
        E 180 90 1a 60
        E 0 90 1f 60
        E 0 90 3d 60
        E 0 90 3e 60
        E 0 90 49 60
        E 0 90 4a 60
        E 0 90 55 60
        E 0 90 56 60
        E 0 90 61 60
        E 0 90 62 60
        E 60 80 1a 00
        E 0 80 1f 00
        E 0 80 3d 00
        E 0 80 3e 00
        E 0 80 49 00
        E 0 80 4a 00
        E 0 80 55 00
        E 0 80 56 00
        E 0 80 61 00
        E 0 80 62 00
        E 180 90 1f 60
        E 0 90 56 60
        E 0 90 62 60
        E 60 80 1f 00
        E 0 80 56 00
        E 0 80 62 00
        E 180 90 1f 60
        E 0 90 3e 60
        E 0 90 4a 60
        E 0 90 56 60
        E 0 90 62 60
        E 60 80 1f 00
        E 0 80 3e 00
        E 0 80 4a 00
        E 0 80 56 00
        E 0 80 62 00
        E 180 90 1f 60
        E 0 90 56 60
        E 0 90 62 60
        E 60 80 1f 00
        E 0 80 56 00
        E 0 80 62 00
        E 180 90 1a 60
        E 0 90 1f 60
        E 0 90 3d 60
        E 0 90 3e 60
        E 0 90 49 60
        E 0 90 4a 60
        E 0 90 55 60
        E 0 90 56 60
        E 0 90 61 60
        E 0 90 62 60
        E 60 80 1a 00
        E 0 80 1f 00
        E 0 80 3d 00
        E 0 80 3e 00
        E 0 80 49 00
        E 0 80 4a 00
        E 0 80 55 00
        E 0 80 56 00
        E 0 80 61 00
        E 0 80 62 00
        E 180 90 1f 60
        E 0 90 56 60
        E 0 90 62 60
        E 60 80 1f 00
        E 0 80 56 00
        E 0 80 62 00
        E 180 90 18 60
        E 0 90 1f 60
        E 0 90 3e 60
        E 0 90 48 60
        E 0 90 4a 60
        E 0 90 54 60
        E 0 90 56 60
        E 0 90 60 60
        E 0 90 62 60
        E 60 80 18 00
        E 0 80 1f 00
        E 0 80 3e 00
        E 0 80 48 00
        E 0 80 4a 00
        E 0 80 54 00
        E 0 80 56 00
        E 0 80 60 00
        E 0 80 62 00
        E 180 90 18 60
        E 0 90 1f 60
        E 0 90 54 60
        E 0 90 56 60
        E 0 90 60 60
        E 0 90 62 60
        E 60 80 18 00
        E 0 80 1f 00
        E 0 80 54 00
        E 0 80 56 00
        E 0 80 60 00
        E 0 80 62 00
        E 180 90 1a 60
        E 0 90 1f 60
        E 0 90 3d 60
        E 0 90 3e 60
        E 0 90 49 60
        E 0 90 4a 60
        E 0 90 55 60
        E 0 90 56 60
        E 0 90 61 60
        E 0 90 62 60
        E 60 80 1a 00
        E 0 80 1f 00
        E 0 80 3d 00
        E 0 80 3e 00
        E 0 80 49 00
        E 0 80 4a 00
        E 0 80 55 00
        E 0 80 56 00
        E 0 80 61 00
        E 0 80 62 00
        E 180 90 1f 60
        E 0 90 56 60
        E 0 90 62 60
        E 60 80 1f 00
        E 0 80 56 00
        E 0 80 62 00
        E 180 90 1f 60
        E 0 90 3e 60
        E 0 90 4a 60
        E 0 90 56 60
        E 0 90 62 60
        E 60 80 1f 00
        E 0 80 3e 00
        E 0 80 4a 00
        E 0 80 56 00
        E 0 80 62 00
        E 180 90 1f 60
        E 0 90 56 60
        E 0 90 62 60
        E 60 80 1f 00
        E 0 80 56 00
        E 0 80 62 00
        E 180 90 1a 60
        E 0 90 1f 60
        E 0 90 3d 60
        E 0 90 3e 60
        E 0 90 49 60
        E 0 90 4a 60
        E 0 90 55 60
        E 0 90 56 60
        E 0 90 61 60
        E 0 90 62 60
        E 60 80 1a 00
        E 0 80 1f 00
        E 0 80 3d 00
        E 0 80 3e 00
        E 0 80 49 00
        E 0 80 4a 00
        E 0 80 55 00
        E 0 80 56 00
        E 0 80 61 00
        E 0 80 62 00
        E 180 90 1f 60
        E 0 90 56 60
        E 0 90 62 60
        E 60 80 1f 00
        E 0 80 56 00
        E 0 80 62 00
        E 180 90 18 60
        E 0 90 1f 60
        E 0 90 3e 60
        E 0 90 48 60
        E 0 90 4a 60
        E 0 90 54 60
        E 0 90 56 60
        E 0 90 60 60
        E 0 90 62 60
        E 60 80 18 00
        E 0 80 1f 00
        E 0 80 3e 00
        E 0 80 48 00
        E 0 80 4a 00
        E 0 80 54 00
        E 0 80 56 00
        E 0 80 60 00
        E 0 80 62 00
        E 180 90 18 60
        E 0 90 1f 60
        E 0 90 54 60
        E 0 90 56 60
        E 0 90 60 60
        E 0 90 62 60
        E 60 80 18 00
        E 0 80 1f 00
        E 0 80 54 00
        E 0 80 56 00
        E 0 80 60 00
        E 0 80 62 00
        E 180 90 1a 60
        E 0 90 1f 60
        E 0 90 3d 60
        E 0 90 3e 60
        E 0 90 49 60
        E 0 90 4a 60
        E 0 90 55 60
        E 0 90 56 60
        E 0 90 61 60
        E 0 90 62 60
        E 60 80 1a 00
        E 0 80 1f 00
        E 0 80 3d 00
        E 0 80 3e 00
        E 0 80 49 00
        E 0 80 4a 00
        E 0 80 55 00
        E 0 80 56 00
        E 0 80 61 00
        E 0 80 62 00
        E 180 90 1f 60
        E 0 90 56 60
        E 0 90 62 60
        E 60 80 1f 00
        E 0 80 56 00
        E 0 80 62 00
        E 180 90 18 60
        E 0 90 1f 60
        E 0 90 3e 60
        E 0 90 48 60
        E 0 90 4a 60
        E 0 90 54 60
        E 0 90 56 60
        E 0 90 60 60
        E 0 90 62 60
        E 0 90 78 60
        E 0 90 79 60
        E 0 90 7a 60
        E 0 90 7b 60
        E 0 90 7c 60
        E 60 80 18 00
        E 0 80 1f 00
        E 0 80 3e 00
        E 0 80 48 00
        E 0 80 4a 00
        E 0 80 54 00
        E 0 80 56 00
        E 0 80 60 00
        E 0 80 62 00
        E 180 90 18 60
        E 0 90 1f 60
        E 0 90 54 60
        E 0 90 56 60
        E 0 90 60 60
        E 0 90 62 60
        E 60 80 18 00
        E 0 80 1f 00
        E 0 80 54 00
        E 0 80 56 00
        E 0 80 60 00
        E 0 80 62 00
        E 180 90 1a 60
        E 0 90 1f 60
        E 0 90 3d 60
        E 0 90 3e 60
        E 0 90 49 60
        E 0 90 4a 60
        E 0 90 55 60
        E 0 90 56 60
        E 0 90 61 60
        E 0 90 62 60
        E 60 80 1a 00
        E 0 80 1f 00
        E 0 80 3d 00
        E 0 80 3e 00
        E 0 80 49 00
        E 0 80 4a 00
        E 0 80 55 00
        E 0 80 56 00
        E 0 80 61 00
        E 0 80 62 00
        E 180 90 1f 60
        E 0 90 56 60
        E 0 90 62 60
        E 60 80 1f 00
        E 0 80 56 00
        E 0 80 62 00
        E 180 80 78 00
        E 0 80 79 00
        E 0 80 7a 00
        E 0 80 7b 00
        E 0 80 7c 00
        E 0 90 18 60
        E 0 90 22 60
        E 0 90 26 60
        E 0 90 3e 60
        E 0 90 40 60
        E 0 90 48 60
        E 0 90 4a 60
        E 0 90 4c 60
        E 0 90 54 60
        E 0 90 56 60
        E 0 90 58 60
        E 0 90 60 60
        E 0 90 62 60
        E 0 90 64 60
        E 60 80 18 00
        E 0 80 22 00
        E 0 80 26 00
        E 0 80 3e 00
        E 0 80 40 00
        E 0 80 48 00
        E 0 80 4a 00
        E 0 80 4c 00
        E 0 80 54 00
        E 0 80 56 00
        E 0 80 58 00
        E 0 80 60 00
        E 0 80 62 00
        E 0 80 64 00
        E 180 90 1f 60
        E 0 90 56 60
        E 0 90 62 60
        E 60 80 1f 00
        E 0 80 56 00
        E 0 80 62 00
        E 180 90 1a 60
        E 0 90 1f 60
        E 0 90 3d 60
        E 0 90 3e 60
        E 0 90 49 60
        E 0 90 4a 60
        E 0 90 55 60
        E 0 90 56 60
        E 0 90 61 60
        E 0 90 62 60
        E 60 80 1a 00
        E 0 80 1f 00
        E 0 80 3d 00
        E 0 80 3e 00
        E 0 80 49 00
        E 0 80 4a 00
        E 0 80 55 00
        E 0 80 56 00
        E 0 80 61 00
        E 0 80 62 00
        E 180 90 18 60
        E 0 90 1f 60
        E 0 90 54 60
        E 0 90 56 60
        E 0 90 60 60
        E 0 90 62 60
        E 60 80 18 00
        E 0 80 1f 00
        E 0 80 54 00
        E 0 80 56 00
        E 0 80 60 00
        E 0 80 62 00
        E 180 90 18 60
        E 0 90 1f 60
        E 0 90 3e 60
        E 0 90 48 60
        E 0 90 4a 60
        E 0 90 54 60
        E 0 90 56 60
        E 0 90 60 60
        E 0 90 62 60
        E 60 80 18 00
        E 0 80 1f 00
        E 0 80 3e 00
        E 0 80 48 00
        E 0 80 4a 00
        E 0 80 54 00
        E 0 80 56 00
        E 0 80 60 00
        E 0 80 62 00
        E 180 90 1f 60
        E 0 90 56 60
        E 0 90 62 60
        E 60 80 1f 00
        E 0 80 56 00
        E 0 80 62 00
        E 180 90 1a 60
        E 0 90 1f 60
        E 0 90 3d 60
        E 0 90 3e 60
        E 0 90 49 60
        E 0 90 4a 60
        E 0 90 55 60
        E 0 90 56 60
        E 0 90 61 60
        E 0 90 62 60
        E 60 80 1a 00
        E 0 80 1f 00
        E 0 80 3d 00
        E 0 80 3e 00
        E 0 80 49 00
        E 0 80 4a 00
        E 0 80 55 00
        E 0 80 56 00
        E 0 80 61 00
        E 0 80 62 00
        E 180 90 1f 60
        E 0 90 56 60
        E 0 90 62 60
        E 60 80 1f 00
        E 0 80 56 00
        E 0 80 62 00
        E 180 90 18 60
        E 0 90 1f 60
        E 0 90 3e 60
        E 0 90 48 60
        E 0 90 4a 60
        E 0 90 54 60
        E 0 90 56 60
        E 0 90 60 60
        E 0 90 62 60
        E 60 80 18 00
        E 0 80 1f 00
        E 0 80 3e 00
        E 0 80 48 00
        E 0 80 4a 00
        E 0 80 54 00
        E 0 80 56 00
        E 0 80 60 00
        E 0 80 62 00
        E 180 90 1f 60
        E 0 90 56 60
        E 0 90 62 60
        E 60 80 1f 00
        E 0 80 56 00
        E 0 80 62 00
        E 180 90 1a 60
        E 0 90 1f 60
        E 0 90 3d 60
        E 0 90 3e 60
        E 0 90 49 60
        E 0 90 4a 60
        E 0 90 55 60
        E 0 90 56 60
        E 0 90 61 60
        E 0 90 62 60
        E 60 80 1a 00
        E 0 80 1f 00
        E 0 80 3d 00
        E 0 80 3e 00
        E 0 80 49 00
        E 0 80 4a 00
        E 0 80 55 00
        E 0 80 56 00
        E 0 80 61 00
        E 0 80 62 00
        E 180 90 18 60
        E 0 90 1f 60
        E 0 90 54 60
        E 0 90 56 60
        E 0 90 60 60
        E 0 90 62 60
        E 60 80 18 00
        E 0 80 1f 00
        E 0 80 54 00
        E 0 80 56 00
        E 0 80 60 00
        E 0 80 62 00
        E 180 90 18 60
        E 0 90 1f 60
        E 0 90 3e 60
        E 0 90 48 60
        E 0 90 4a 60
        E 0 90 54 60
        E 0 90 56 60
        E 0 90 60 60
        E 0 90 62 60
        E 60 80 18 00
        E 0 80 1f 00
        E 0 80 3e 00
        E 0 80 48 00
        E 0 80 4a 00
        E 0 80 54 00
        E 0 80 56 00
        E 0 80 60 00
        E 0 80 62 00
        E 180 90 1f 60
        E 0 90 56 60
        E 0 90 62 60
        E 60 80 1f 00
        E 0 80 56 00
        E 0 80 62 00
        E 180 90 1a 60
        E 0 90 1f 60
        E 0 90 3d 60
        E 0 90 3e 60
        E 0 90 49 60
        E 0 90 4a 60
        E 0 90 55 60
        E 0 90 56 60
        E 0 90 61 60
        E 0 90 62 60
        E 60 80 1a 00
        E 0 80 1f 00
        E 0 80 3d 00
        E 0 80 3e 00
        E 0 80 49 00
        E 0 80 4a 00
        E 0 80 55 00
        E 0 80 56 00
        E 0 80 61 00
        E 0 80 62 00
        E 180 90 1f 60
        E 0 90 56 60
        E 0 90 62 60
        E 60 80 1f 00
        E 0 80 56 00
        E 0 80 62 00
        E 180 90 18 60
        E 0 90 1f 60
        E 0 90 3e 60
        E 0 90 48 60
        E 0 90 4a 60
        E 0 90 54 60
        E 0 90 56 60
        E 0 90 60 60
        E 0 90 62 60
        E 60 80 18 00
        E 0 80 1f 00
        E 0 80 3e 00
        E 0 80 48 00
        E 0 80 4a 00
        E 0 80 54 00
        E 0 80 56 00
        E 0 80 60 00
        E 0 80 62 00
        E 180 90 1f 60
        E 0 90 56 60
        E 0 90 62 60
        E 60 80 1f 00
        E 0 80 56 00
        E 0 80 62 00
        E 180 90 1a 60
        E 0 90 1f 60
        E 0 90 3d 60
        E 0 90 3e 60
        E 0 90 49 60
        E 0 90 4a 60
        E 0 90 55 60
        E 0 90 56 60
        E 0 90 61 60
        E 0 90 62 60
        E 60 80 1a 00
        E 0 80 1f 00
        E 0 80 3d 00
        E 0 80 3e 00
        E 0 80 49 00
        E 0 80 4a 00
        E 0 80 55 00
        E 0 80 56 00
        E 0 80 61 00
        E 0 80 62 00
        E 180 90 18 60
        E 0 90 1f 60
        E 0 90 54 60
        E 0 90 56 60
        E 0 90 60 60
        E 0 90 62 60
        E 60 80 18 00
        E 0 80 1f 00
        E 0 80 54 00
        E 0 80 56 00
        E 0 80 60 00
        E 0 80 62 00
        E 180 90 18 60
        E 0 90 1f 60
        E 0 90 3e 60
        E 0 90 48 60
        E 0 90 4a 60
        E 0 90 54 60
        E 0 90 56 60
        E 0 90 60 60
        E 0 90 62 60
        E 60 80 18 00
        E 0 80 1f 00
        E 0 80 3e 00
        E 0 80 48 00
        E 0 80 4a 00
        E 0 80 54 00
        E 0 80 56 00
        E 0 80 60 00
        E 0 80 62 00
        E 180 90 1f 60
        E 0 90 56 60
        E 0 90 62 60
        E 60 80 1f 00
        E 0 80 56 00
        E 0 80 62 00
        E 180 90 1a 60
        E 0 90 1f 60
        E 0 90 3d 60
        E 0 90 3e 60
        E 0 90 49 60
        E 0 90 4a 60
        E 0 90 55 60
        E 0 90 56 60
        E 0 90 61 60
        E 0 90 62 60
        E 60 80 1a 00
        E 0 80 1f 00
        E 0 80 3d 00
        E 0 80 3e 00
        E 0 80 49 00
        E 0 80 4a 00
        E 0 80 55 00
        E 0 80 56 00
        E 0 80 61 00
        E 0 80 62 00
        E 180 90 1f 60
        E 0 90 56 60
        E 0 90 62 60
        E 60 80 1f 00
        E 0 80 56 00
        E 0 80 62 00
        E 180 90 18 60
        E 0 90 1f 60
        E 0 90 3e 60
        E 0 90 48 60
        E 0 90 4a 60
        E 0 90 54 60
        E 0 90 56 60
        E 0 90 60 60
        E 0 90 62 60
        E 60 80 18 00
        E 0 80 1f 00
        E 0 80 3e 00
        E 0 80 48 00
        E 0 80 4a 00
        E 0 80 54 00
        E 0 80 56 00
        E 0 80 60 00
        E 0 80 62 00
        E 180 90 1f 60
        E 0 90 56 60
        E 0 90 62 60
        E 60 80 1f 00
        E 0 80 56 00
        E 0 80 62 00
        E 180 90 1a 60
        E 0 90 1f 60
        E 0 90 3d 60
        E 0 90 3e 60
        E 0 90 49 60
        E 0 90 4a 60
        E 0 90 55 60
        E 0 90 56 60
        E 0 90 61 60
        E 0 90 62 60
        E 60 80 1a 00
        E 0 80 1f 00
        E 0 80 3d 00
        E 0 80 3e 00
        E 0 80 49 00
        E 0 80 4a 00
        E 0 80 55 00
        E 0 80 56 00
        E 0 80 61 00
        E 0 80 62 00
        E 180 90 18 60
        E 0 90 1f 60
        E 0 90 54 60
        E 0 90 56 60
        E 0 90 60 60
        E 0 90 62 60
        E 60 80 18 00
        E 0 80 1f 00
        E 0 80 54 00
        E 0 80 56 00
        E 0 80 60 00
        E 0 80 62 00
        E 180 90 18 60
        E 0 90 1f 60
        E 0 90 3e 60
        E 0 90 48 60
        E 0 90 4a 60
        E 0 90 54 60
        E 0 90 56 60
        E 0 90 60 60
        E 0 90 62 60
        E 60 80 18 00
        E 0 80 1f 00
        E 0 80 3e 00
        E 0 80 48 00
        E 0 80 4a 00
        E 0 80 54 00
        E 0 80 56 00
        E 0 80 60 00
        E 0 80 62 00
        E 180 90 1f 60
        E 0 90 56 60
        E 0 90 62 60
        E 60 80 1f 00
        E 0 80 56 00
        E 0 80 62 00
        E 180 90 1a 60
        E 0 90 1f 60
        E 0 90 3d 60
        E 0 90 3e 60
        E 0 90 49 60
        E 0 90 4a 60
        E 0 90 55 60
        E 0 90 56 60
        E 0 90 61 60
        E 0 90 62 60
        E 60 80 1a 00
        E 0 80 1f 00
        E 0 80 3d 00
        E 0 80 3e 00
        E 0 80 49 00
        E 0 80 4a 00
        E 0 80 55 00
        E 0 80 56 00
        E 0 80 61 00
        E 0 80 62 00
        E 180 90 1f 60
        E 0 90 56 60
        E 0 90 62 60
        E 60 80 1f 00
        E 0 80 56 00
        E 0 80 62 00
        E 180 90 18 60
        E 0 90 1f 60
        E 0 90 3e 60
        E 0 90 48 60
        E 0 90 4a 60
        E 0 90 54 60
        E 0 90 56 60
        E 0 90 60 60
        E 0 90 62 60
        E 60 80 18 00
        E 0 80 1f 00
        E 0 80 3e 00
        E 0 80 48 00
        E 0 80 4a 00
        E 0 80 54 00
        E 0 80 56 00
        E 0 80 60 00
        E 0 80 62 00
        E 180 90 1f 60
        E 0 90 56 60
        E 0 90 62 60
        E 60 80 1f 00
        E 0 80 56 00
        E 0 80 62 00
        E 180 90 1a 60
        E 0 90 1f 60
        E 0 90 3d 60
        E 0 90 3e 60
        E 0 90 49 60
        E 0 90 4a 60
        E 0 90 55 60
        E 0 90 56 60
        E 0 90 61 60
        E 0 90 62 60
        E 60 80 1a 00
        E 0 80 1f 00
        E 0 80 3d 00
        E 0 80 3e 00
        E 0 80 49 00
        E 0 80 4a 00
        E 0 80 55 00
        E 0 80 56 00
        E 0 80 61 00
        E 0 80 62 00
        E 180 90 18 60
        E 0 90 1f 60
        E 0 90 54 60
        E 0 90 56 60
        E 0 90 60 60
        E 0 90 62 60
        E 60 80 18 00
        E 0 80 1f 00
        E 0 80 54 00
        E 0 80 56 00
        E 0 80 60 00
        E 0 80 62 00
        E 180 90 18 60
        E 0 90 1f 60
        E 0 90 3e 60
        E 0 90 48 60
        E 0 90 4a 60
        E 0 90 54 60
        E 0 90 56 60
        E 0 90 60 60
        E 0 90 62 60
        E 60 80 18 00
        E 0 80 1f 00
        E 0 80 3e 00
        E 0 80 48 00
        E 0 80 4a 00
        E 0 80 54 00
        E 0 80 56 00
        E 0 80 60 00
        E 0 80 62 00
        E 180 90 1f 60
        E 0 90 56 60
        E 0 90 62 60
        E 60 80 1f 00
        E 0 80 56 00
        E 0 80 62 00
        E 180 90 1a 60
        E 0 90 1f 60
        E 0 90 3d 60
        E 0 90 3e 60
        E 0 90 49 60
        E 0 90 4a 60
        E 0 90 55 60
        E 0 90 56 60
        E 0 90 61 60
        E 0 90 62 60
        E 60 80 1a 00
        E 0 80 1f 00
        E 0 80 3d 00
        E 0 80 3e 00
        E 0 80 49 00
        E 0 80 4a 00
        E 0 80 55 00
        E 0 80 56 00
        E 0 80 61 00
        E 0 80 62 00
        E 180 90 1f 60
        E 0 90 56 60
        E 0 90 62 60
        E 60 80 1f 00
        E 0 80 56 00
        E 0 80 62 00
        E 180 90 18 60
        E 0 90 1f 60
        E 0 90 3e 60
        E 0 90 48 60
        E 0 90 4a 60
        E 0 90 54 60
        E 0 90 56 60
        E 0 90 60 60
        E 0 90 62 60
        E 0 90 74 60
        E 60 80 18 00
        E 0 80 1f 00
        E 0 80 3e 00
        E 0 80 48 00
        E 0 80 4a 00
        E 0 80 54 00
        E 0 80 56 00
        E 0 80 60 00
        E 0 80 62 00
        E 180 90 1f 60
        E 0 90 56 60
        E 0 90 62 60
        E 60 80 1f 00
        E 0 80 56 00
        E 0 80 62 00
        E 180 90 1a 60
        E 0 90 1f 60
        E 0 90 3d 60
        E 0 90 3e 60
        E 0 90 49 60
        E 0 90 4a 60
        E 0 90 55 60
        E 0 90 56 60
        E 0 90 61 60
        E 0 90 62 60
        E 60 80 1a 00
        E 0 80 1f 00
        E 0 80 3d 00
        E 0 80 3e 00
        E 0 80 49 00
        E 0 80 4a 00
        E 0 80 55 00
        E 0 80 56 00
        E 0 80 61 00
        E 0 80 62 00
        E 180 90 18 60
        E 0 90 1f 60
        E 0 90 54 60
        E 0 90 56 60
        E 0 90 60 60
        E 0 90 62 60
        E 60 80 18 00
        E 0 80 1f 00
        E 0 80 54 00
        E 0 80 56 00
        E 0 80 60 00
        E 0 80 62 00
        E 180 90 18 60
        E 0 90 1f 60
        E 0 90 3e 60
        E 0 90 48 60
        E 0 90 4a 60
        E 0 90 54 60
        E 0 90 56 60
        E 0 90 60 60
        E 0 90 62 60
        E 60 80 18 00
        E 0 80 1f 00
        E 0 80 3e 00
        E 0 80 48 00
        E 0 80 4a 00
        E 0 80 54 00
        E 0 80 56 00
        E 0 80 60 00
        E 0 80 62 00
        E 180 90 1f 60
        E 0 90 56 60
        E 0 90 62 60
        E 60 80 1f 00
        E 0 80 56 00
        E 0 80 62 00
        E 180 90 1a 60
        E 0 90 1f 60
        E 0 90 3d 60
        E 0 90 3e 60
        E 0 90 49 60
        E 0 90 4a 60
        E 0 90 55 60
        E 0 90 56 60
        E 0 90 61 60
        E 0 90 62 60
        E 60 80 1a 00
        E 0 80 1f 00
        E 0 80 3d 00
        E 0 80 3e 00
        E 0 80 49 00
        E 0 80 4a 00
        E 0 80 55 00
        E 0 80 56 00
        E 0 80 61 00
        E 0 80 62 00
        E 180 90 1f 60
        E 0 90 56 60
        E 0 90 62 60
        E 60 80 1f 00
        E 0 80 56 00
        E 0 80 62 00
        E 180 80 74 00
        E 0 90 18 60
        E 0 90 1f 60
        E 0 90 3e 60
        E 0 90 48 60
        E 0 90 4a 60
        E 0 90 54 60
        E 0 90 56 60
        E 0 90 60 60
        E 0 90 62 60
        E 60 80 18 00
        E 0 80 1f 00
        E 0 80 3e 00
        E 0 80 48 00
        E 0 80 4a 00
        E 0 80 54 00
        E 0 80 56 00
        E 0 80 60 00
        E 0 80 62 00
        E 180 90 1f 60
        E 0 90 56 60
        E 0 90 62 60
        E 60 80 1f 00
        E 0 80 56 00
        E 0 80 62 00
        E 180 90 1a 60
        E 0 90 1f 60
        E 0 90 3d 60
        E 0 90 3e 60
        E 0 90 49 60
        E 0 90 4a 60
        E 0 90 55 60
        E 0 90 56 60
        E 0 90 61 60
        E 0 90 62 60
        E 60 80 1a 00
        E 0 80 1f 00
        E 0 80 3d 00
        E 0 80 3e 00
        E 0 80 49 00
        E 0 80 4a 00
        E 0 80 55 00
        E 0 80 56 00
        E 0 80 61 00
        E 0 80 62 00
        E 180 90 18 60
        E 0 90 1f 60
        E 0 90 54 60
        E 0 90 56 60
        E 0 90 60 60
        E 0 90 62 60
        E 60 80 18 00
        E 0 80 1f 00
        E 0 80 54 00
        E 0 80 56 00
        E 0 80 60 00
        E 0 80 62 00
        E 180 90 18 60
        E 0 90 1f 60
        E 0 90 3e 60
        E 0 90 48 60
        E 0 90 4a 60
        E 0 90 54 60
        E 0 90 56 60
        E 0 90 60 60
        E 0 90 62 60
        E 60 80 18 00
        E 0 80 1f 00
        E 0 80 3e 00
        E 0 80 48 00
        E 0 80 4a 00
        E 0 80 54 00
        E 0 80 56 00
        E 0 80 60 00
        E 0 80 62 00
        E 180 90 1f 60
        E 0 90 56 60
        E 0 90 62 60
        E 60 80 1f 00
        E 0 80 56 00
        E 0 80 62 00
        E 180 90 1a 60
        E 0 90 1f 60
        E 0 90 3d 60
        E 0 90 3e 60
        E 0 90 49 60
        E 0 90 4a 60
        E 0 90 55 60
        E 0 90 56 60
        E 0 90 61 60
        E 0 90 62 60
        E 60 80 1a 00
        E 0 80 1f 00
        E 0 80 3d 00
        E 0 80 3e 00
        E 0 80 49 00
        E 0 80 4a 00
        E 0 80 55 00
        E 0 80 56 00
        E 0 80 61 00
        E 0 80 62 00
        E 180 90 1f 60
        E 0 90 56 60
        E 0 90 62 60
        E 60 80 1f 00
        E 0 80 56 00
        E 0 80 62 00
        E 180 90 18 60
        E 0 90 1f 60
        E 0 90 3e 60
        E 0 90 48 60
        E 0 90 4a 60
        E 0 90 54 60
        E 0 90 56 60
        E 0 90 60 60
        E 0 90 62 60
        E 60 80 18 00
        E 0 80 1f 00
        E 0 80 3e 00
        E 0 80 48 00
        E 0 80 4a 00
        E 0 80 54 00
        E 0 80 56 00
        E 0 80 60 00
        E 0 80 62 00
        E 180 90 1f 60
        E 0 90 56 60
        E 0 90 62 60
        E 60 80 1f 00
        E 0 80 56 00
        E 0 80 62 00
        E 180 90 1a 60
        E 0 90 1f 60
        E 0 90 3d 60
        E 0 90 3e 60
        E 0 90 49 60
        E 0 90 4a 60
        E 0 90 55 60
        E 0 90 56 60
        E 0 90 61 60
        E 0 90 62 60
        E 60 80 1a 00
        E 0 80 1f 00
        E 0 80 3d 00
        E 0 80 3e 00
        E 0 80 49 00
        E 0 80 4a 00
        E 0 80 55 00
        E 0 80 56 00
        E 0 80 61 00
        E 0 80 62 00
        E 180 90 18 60
        E 0 90 1f 60
        E 0 90 54 60
        E 0 90 56 60
        E 0 90 60 60
        E 0 90 62 60
        E 60 80 18 00
        E 0 80 1f 00
        E 0 80 54 00
        E 0 80 56 00
        E 0 80 60 00
        E 0 80 62 00
        E 180 90 18 60
        E 0 90 1f 60
        E 0 90 3e 60
        E 0 90 48 60
        E 0 90 4a 60
        E 0 90 54 60
        E 0 90 56 60
        E 0 90 60 60
        E 0 90 62 60
        E 0 90 78 60
        E 0 90 79 60
        E 0 90 7a 60
        E 0 90 7b 60
        E 0 90 7c 60
        E 60 80 18 00
        E 0 80 1f 00
        E 0 80 3e 00
        E 0 80 48 00
        E 0 80 4a 00
        E 0 80 54 00
        E 0 80 56 00
        E 0 80 60 00
        E 0 80 62 00
        E 180 90 1f 60
        E 0 90 56 60
        E 0 90 62 60
        E 60 80 1f 00
        E 0 80 56 00
        E 0 80 62 00
        E 180 90 1a 60
        E 0 90 1f 60
        E 0 90 3d 60
        E 0 90 3e 60
        E 0 90 49 60
        E 0 90 4a 60
        E 0 90 55 60
        E 0 90 56 60
        E 0 90 61 60
        E 0 90 62 60
        E 60 80 1a 00
        E 0 80 1f 00
        E 0 80 3d 00
        E 0 80 3e 00
        E 0 80 49 00
        E 0 80 4a 00
        E 0 80 55 00
        E 0 80 56 00
        E 0 80 61 00
        E 0 80 62 00
        E 180 90 1f 60
        E 0 90 56 60
        E 0 90 62 60
        E 60 80 1f 00
        E 0 80 56 00
        E 0 80 62 00
        E 180 80 78 00
        E 0 80 79 00
        E 0 80 7a 00
        E 0 80 7b 00
        E 0 80 7c 00
        E 0 90 18 60
        E 0 90 22 60
        E 0 90 26 60
        E 0 90 3e 60
        E 0 90 40 60
        E 0 90 48 60
        E 0 90 4a 60
        E 0 90 4c 60
        E 0 90 54 60
        E 0 90 56 60
        E 0 90 58 60
        E 0 90 60 60
        E 0 90 62 60
        E 0 90 64 60
        E 60 80 18 00
        E 0 80 22 00
        E 0 80 26 00
        E 0 80 3e 00
        E 0 80 40 00
        E 0 80 48 00
        E 0 80 4a 00
        E 0 80 4c 00
        E 0 80 54 00
        E 0 80 56 00
        E 0 80 58 00
        E 0 80 60 00
        E 0 80 62 00
        E 0 80 64 00
        E 180 90 1f 60
        E 0 90 56 60
        E 0 90 62 60
        E 60 80 1f 00
        E 0 80 56 00
        E 0 80 62 00
        E 180 90 1a 60
        E 0 90 1f 60
        E 0 90 3d 60
        E 0 90 3e 60
        E 0 90 49 60
        E 0 90 4a 60
        E 0 90 55 60
        E 0 90 56 60
        E 0 90 61 60
        E 0 90 62 60
        E 60 80 1a 00
        E 0 80 1f 00
        E 0 80 3d 00
        E 0 80 3e 00
        E 0 80 49 00
        E 0 80 4a 00
        E 0 80 55 00
        E 0 80 56 00
        E 0 80 61 00
        E 0 80 62 00
        E 180 90 18 60
        E 0 90 1f 60
        E 0 90 54 60
        E 0 90 56 60
        E 0 90 60 60
        E 0 90 62 60
        E 60 80 18 00
        E 0 80 1f 00
        E 0 80 54 00
        E 0 80 56 00
        E 0 80 60 00
        E 0 80 62 00
        E 180 90 18 60
        E 0 90 1f 60
        E 0 90 3e 60
        E 0 90 48 60
        E 0 90 4a 60
        E 0 90 54 60
        E 0 90 56 60
        E 0 90 60 60
        E 0 90 62 60
        E 60 80 18 00
        E 0 80 1f 00
        E 0 80 3e 00
        E 0 80 48 00
        E 0 80 4a 00
        E 0 80 54 00
        E 0 80 56 00
        E 0 80 60 00
        E 0 80 62 00
        E 180 90 1f 60
        E 0 90 56 60
        E 0 90 62 60
        E 60 80 1f 00
        E 0 80 56 00
        E 0 80 62 00
        E 180 90 1a 60
        E 0 90 1f 60
        E 0 90 3d 60
        E 0 90 3e 60
        E 0 90 49 60
        E 0 90 4a 60
        E 0 90 55 60
        E 0 90 56 60
        E 0 90 61 60
        E 0 90 62 60
        E 60 80 1a 00
        E 0 80 1f 00
        E 0 80 3d 00
        E 0 80 3e 00
        E 0 80 49 00
        E 0 80 4a 00
        E 0 80 55 00
        E 0 80 56 00
        E 0 80 61 00
        E 0 80 62 00
        E 180 90 1f 60
        E 0 90 56 60
        E 0 90 62 60
        E 60 80 1f 00
        E 0 80 56 00
        E 0 80 62 00
        E 180 90 18 60
        E 0 90 1f 60
        E 0 90 3e 60
        E 0 90 48 60
        E 0 90 4a 60
        E 0 90 54 60
        E 0 90 56 60
        E 0 90 60 60
        E 0 90 62 60
        E 60 80 18 00
        E 0 80 1f 00
        E 0 80 3e 00
        E 0 80 48 00
        E 0 80 4a 00
        E 0 80 54 00
        E 0 80 56 00
        E 0 80 60 00
        E 0 80 62 00
        E 180 90 1f 60
        E 0 90 56 60
        E 0 90 62 60
        E 60 80 1f 00
        E 0 80 56 00
        E 0 80 62 00
        E 180 90 1a 60
        E 0 90 1f 60
        E 0 90 3d 60
        E 0 90 3e 60
        E 0 90 49 60
        E 0 90 4a 60
        E 0 90 55 60
        E 0 90 56 60
        E 0 90 61 60
        E 0 90 62 60
        E 60 80 1a 00
        E 0 80 1f 00
        E 0 80 3d 00
        E 0 80 3e 00
        E 0 80 49 00
        E 0 80 4a 00
        E 0 80 55 00
        E 0 80 56 00
        E 0 80 61 00
        E 0 80 62 00
        E 180 90 18 60
        E 0 90 1f 60
        E 0 90 54 60
        E 0 90 56 60
        E 0 90 60 60
        E 0 90 62 60
        E 60 80 18 00
        E 0 80 1f 00
        E 0 80 54 00
        E 0 80 56 00
        E 0 80 60 00
        E 0 80 62 00
        E 180 90 18 60
        E 0 90 1f 60
        E 0 90 3e 60
        E 0 90 48 60
        E 0 90 4a 60
        E 0 90 54 60
        E 0 90 56 60
        E 0 90 60 60
        E 0 90 62 60
        E 60 80 18 00
        E 0 80 1f 00
        E 0 80 3e 00
        E 0 80 48 00
        E 0 80 4a 00
        E 0 80 54 00
        E 0 80 56 00
        E 0 80 60 00
        E 0 80 62 00
        E 180 90 1f 60
        E 0 90 56 60
        E 0 90 62 60
        E 60 80 1f 00
        E 0 80 56 00
        E 0 80 62 00
        E 180 90 1a 60
        E 0 90 1f 60
        E 0 90 3d 60
        E 0 90 3e 60
        E 0 90 49 60
        E 0 90 4a 60
        E 0 90 55 60
        E 0 90 56 60
        E 0 90 61 60
        E 0 90 62 60
        E 60 80 1a 00
        E 0 80 1f 00
        E 0 80 3d 00
        E 0 80 3e 00
        E 0 80 49 00
        E 0 80 4a 00
        E 0 80 55 00
        E 0 80 56 00
        E 0 80 61 00
        E 0 80 62 00
        E 180 90 1f 60
        E 0 90 56 60
        E 0 90 62 60
        E 60 80 1f 00
        E 0 80 56 00
        E 0 80 62 00
        E 180 90 18 60
        E 0 90 1f 60
        E 0 90 3e 60
        E 0 90 48 60
        E 0 90 4a 60
        E 0 90 54 60
        E 0 90 56 60
        E 0 90 60 60
        E 0 90 62 60
        E 60 80 18 00
        E 0 80 1f 00
        E 0 80 3e 00
        E 0 80 48 00
        E 0 80 4a 00
        E 0 80 54 00
        E 0 80 56 00
        E 0 80 60 00
        E 0 80 62 00
        E 180 90 1f 60
        E 0 90 56 60
        E 0 90 62 60
        E 60 80 1f 00
        E 0 80 56 00
        E 0 80 62 00
        E 180 90 1a 60
        E 0 90 1f 60
        E 0 90 3d 60
        E 0 90 3e 60
        E 0 90 49 60
        E 0 90 4a 60
        E 0 90 55 60
        E 0 90 56 60
        E 0 90 61 60
        E 0 90 62 60
        E 60 80 1a 00
        E 0 80 1f 00
        E 0 80 3d 00
        E 0 80 3e 00
        E 0 80 49 00
        E 0 80 4a 00
        E 0 80 55 00
        E 0 80 56 00
        E 0 80 61 00
        E 0 80 62 00
        E 180 90 18 60
        E 0 90 1f 60
        E 0 90 54 60
        E 0 90 56 60
        E 0 90 60 60
        E 0 90 62 60
        E 60 80 18 00
        E 0 80 1f 00
        E 0 80 54 00
        E 0 80 56 00
        E 0 80 60 00
        E 0 80 62 00
        E 180 90 18 60
        E 0 90 1f 60
        E 0 90 3e 60
        E 0 90 48 60
        E 0 90 4a 60
        E 0 90 54 60
        E 0 90 56 60
        E 0 90 60 60
        E 0 90 62 60
        E 60 80 18 00
        E 0 80 1f 00
        E 0 80 3e 00
        E 0 80 48 00
        E 0 80 4a 00
        E 0 80 54 00
        E 0 80 56 00
        E 0 80 60 00
        E 0 80 62 00
        E 180 90 1f 60
        E 0 90 56 60
        E 0 90 62 60
        E 60 80 1f 00
        E 0 80 56 00
        E 0 80 62 00
        E 180 90 1a 60
        E 0 90 1f 60
        E 0 90 3d 60
        E 0 90 3e 60
        E 0 90 49 60
        E 0 90 4a 60
        E 0 90 55 60
        E 0 90 56 60
        E 0 90 61 60
        E 0 90 62 60
        E 60 80 1a 00
        E 0 80 1f 00
        E 0 80 3d 00
        E 0 80 3e 00
        E 0 80 49 00
        E 0 80 4a 00
        E 0 80 55 00
        E 0 80 56 00
        E 0 80 61 00
        E 0 80 62 00
        E 180 90 1f 60
        E 0 90 56 60
        E 0 90 62 60
        E 60 80 1f 00
        E 0 80 56 00
        E 0 80 62 00
        E 180 90 18 60
        E 0 90 1f 60
        E 0 90 3e 60
        E 0 90 48 60
        E 0 90 4a 60
        E 0 90 54 60
        E 0 90 56 60
        E 0 90 60 60
        E 0 90 62 60
        E 60 80 18 00
        E 0 80 1f 00
        E 0 80 3e 00
        E 0 80 48 00
        E 0 80 4a 00
        E 0 80 54 00
        E 0 80 56 00
        E 0 80 60 00
        E 0 80 62 00
        E 180 90 1f 60
        E 0 90 56 60
        E 0 90 62 60
        E 60 80 1f 00
        E 0 80 56 00
        E 0 80 62 00
        E 180 90 1a 60
        E 0 90 1f 60
        E 0 90 3d 60
        E 0 90 3e 60
        E 0 90 49 60
        E 0 90 4a 60
        E 0 90 55 60
        E 0 90 56 60
        E 0 90 61 60
        E 0 90 62 60
        E 60 80 1a 00
        E 0 80 1f 00
        E 0 80 3d 00
        E 0 80 3e 00
        E 0 80 49 00
        E 0 80 4a 00
        E 0 80 55 00
        E 0 80 56 00
        E 0 80 61 00
        E 0 80 62 00
        E 180 90 18 60
        E 0 90 1f 60
        E 0 90 54 60
        E 0 90 56 60
        E 0 90 60 60
        E 0 90 62 60
        E 60 80 18 00
        E 0 80 1f 00
        E 0 80 54 00
        E 0 80 56 00
        E 0 80 60 00
        E 0 80 62 00
        E 180 90 18 60
        E 0 90 1f 60
        E 0 90 3e 60
        E 0 90 48 60
        E 0 90 4a 60
        E 0 90 54 60
        E 0 90 56 60
        E 0 90 60 60
        E 0 90 62 60
        E 60 80 18 00
        E 0 80 1f 00
        E 0 80 3e 00
        E 0 80 48 00
        E 0 80 4a 00
        E 0 80 54 00
        E 0 80 56 00
        E 0 80 60 00
        E 0 80 62 00
        E 180 90 1f 60
        E 0 90 56 60
        E 0 90 62 60
        E 60 80 1f 00
        E 0 80 56 00
        E 0 80 62 00
        E 180 90 1a 60
        E 0 90 1f 60
        E 0 90 3d 60
        E 0 90 3e 60
        E 0 90 49 60
        E 0 90 4a 60
        E 0 90 55 60
        E 0 90 56 60
        E 0 90 61 60
        E 0 90 62 60
        E 60 80 1a 00
        E 0 80 1f 00
        E 0 80 3d 00
        E 0 80 3e 00
        E 0 80 49 00
        E 0 80 4a 00
        E 0 80 55 00
        E 0 80 56 00
        E 0 80 61 00
        E 0 80 62 00
        E 180 90 1f 60
        E 0 90 56 60
        E 0 90 62 60
        E 60 80 1f 00
        E 0 80 56 00
        E 0 80 62 00
        E 180 90 18 60
        E 0 90 1f 60
        E 0 90 3e 60
        E 0 90 48 60
        E 0 90 4a 60
        E 0 90 54 60
        E 0 90 56 60
        E 0 90 60 60
        E 0 90 62 60
        E 60 80 18 00
        E 0 80 1f 00
        E 0 80 3e 00
        E 0 80 48 00
        E 0 80 4a 00
        E 0 80 54 00
        E 0 80 56 00
        E 0 80 60 00
        E 0 80 62 00
        E 180 90 1f 60
        E 0 90 56 60
        E 0 90 62 60
        E 60 80 1f 00
        E 0 80 56 00
        E 0 80 62 00
        E 180 90 1a 60
        E 0 90 1f 60
        E 0 90 3d 60
        E 0 90 3e 60
        E 0 90 49 60
        E 0 90 4a 60
        E 0 90 55 60
        E 0 90 56 60
        E 0 90 61 60
        E 0 90 62 60
        E 60 80 1a 00
        E 0 80 1f 00
        E 0 80 3d 00
        E 0 80 3e 00
        E 0 80 49 00
        E 0 80 4a 00
        E 0 80 55 00
        E 0 80 56 00
        E 0 80 61 00
        E 0 80 62 00
        E 180 90 18 60
        E 0 90 1f 60
        E 0 90 54 60
        E 0 90 56 60
        E 0 90 60 60
        E 0 90 62 60
        E 60 80 18 00
        E 0 80 1f 00
        E 0 80 54 00
        E 0 80 56 00
        E 0 80 60 00
        E 0 80 62 00
        E 180 90 18 60
        E 0 90 1f 60
        E 0 90 3e 60
        E 0 90 48 60
        E 0 90 4a 60
        E 0 90 54 60
        E 0 90 56 60
        E 0 90 60 60
        E 0 90 62 60
        E 60 80 18 00
        E 0 80 1f 00
        E 0 80 3e 00
        E 0 80 48 00
        E 0 80 4a 00
        E 0 80 54 00
        E 0 80 56 00
        E 0 80 60 00
        E 0 80 62 00
        E 180 90 1f 60
        E 0 90 56 60
        E 0 90 62 60
        E 60 80 1f 00
        E 0 80 56 00
        E 0 80 62 00
        E 180 90 1a 60
        E 0 90 1f 60
        E 0 90 3d 60
        E 0 90 3e 60
        E 0 90 49 60
        E 0 90 4a 60
        E 0 90 55 60
        E 0 90 56 60
        E 0 90 61 60
        E 0 90 62 60
        E 60 80 1a 00
        E 0 80 1f 00
        E 0 80 3d 00
        E 0 80 3e 00
        E 0 80 49 00
        E 0 80 4a 00
        E 0 80 55 00
        E 0 80 56 00
        E 0 80 61 00
        E 0 80 62 00
        E 180 90 1f 60
        E 0 90 56 60
        E 0 90 62 60
        E 60 80 1f 00
        E 0 80 56 00
        E 0 80 62 00
        E 180 90 18 60
        E 0 90 1f 60
        E 0 90 3e 60
        E 0 90 48 60
        E 0 90 4a 60
        E 0 90 54 60
        E 0 90 56 60
        E 0 90 60 60
        E 0 90 62 60
        E 60 80 18 00
        E 0 80 1f 00
        E 0 80 3e 00
        E 0 80 48 00
        E 0 80 4a 00
        E 0 80 54 00
        E 0 80 56 00
        E 0 80 60 00
        E 0 80 62 00
        E 180 90 1f 60
        E 0 90 56 60
        E 0 90 62 60
        E 60 80 1f 00
        E 0 80 56 00
        E 0 80 62 00
        E 180 90 1a 60
        E 0 90 1f 60
        E 0 90 3d 60
        E 0 90 3e 60
        E 0 90 49 60
        E 0 90 4a 60
        E 0 90 55 60
        E 0 90 56 60
        E 0 90 61 60
        E 0 90 62 60
        E 60 80 1a 00
        E 0 80 1f 00
        E 0 80 3d 00
        E 0 80 3e 00
        E 0 80 49 00
        E 0 80 4a 00
        E 0 80 55 00
        E 0 80 56 00
        E 0 80 61 00
        E 0 80 62 00
        E 180 90 18 60
        E 0 90 1f 60
        E 0 90 54 60
        E 0 90 56 60
        E 0 90 60 60
        E 0 90 62 60
        E 60 80 18 00
        E 0 80 1f 00
        E 0 80 54 00
        E 0 80 56 00
        E 0 80 60 00
        E 0 80 62 00
        E 180 90 18 60
        E 0 90 1f 60
        E 0 90 3e 60
        E 0 90 48 60
        E 0 90 4a 60
        E 0 90 54 60
        E 0 90 56 60
        E 0 90 60 60
        E 0 90 62 60
        E 60 80 18 00
        E 0 80 1f 00
        E 0 80 3e 00
        E 0 80 48 00
        E 0 80 4a 00
        E 0 80 54 00
        E 0 80 56 00
        E 0 80 60 00
        E 0 80 62 00
        E 180 90 1f 60
        E 0 90 56 60
        E 0 90 62 60
        E 60 80 1f 00
        E 0 80 56 00
        E 0 80 62 00
        E 180 90 1a 60
        E 0 90 1f 60
        E 0 90 3d 60
        E 0 90 3e 60
        E 0 90 49 60
        E 0 90 4a 60
        E 0 90 55 60
        E 0 90 56 60
        E 0 90 61 60
        E 0 90 62 60
        E 60 80 1a 00
        E 0 80 1f 00
        E 0 80 3d 00
        E 0 80 3e 00
        E 0 80 49 00
        E 0 80 4a 00
        E 0 80 55 00
        E 0 80 56 00
        E 0 80 61 00
        E 0 80 62 00
        E 180 90 1f 60
        E 0 90 56 60
        E 0 90 62 60
        E 60 80 1f 00
        E 0 80 56 00
        E 0 80 62 00
        E 180 90 18 60
        E 0 90 1f 60
        E 0 90 3e 60
        E 0 90 48 60
        E 0 90 4a 60
        E 0 90 54 60
        E 0 90 56 60
        E 0 90 60 60
        E 0 90 62 60
        E 60 80 18 00
        E 0 80 1f 00
        E 0 80 3e 00
        E 0 80 48 00
        E 0 80 4a 00
        E 0 80 54 00
        E 0 80 56 00
        E 0 80 60 00
        E 0 80 62 00
        E 180 90 1f 60
        E 0 90 56 60
        E 0 90 62 60
        E 60 80 1f 00
        E 0 80 56 00
        E 0 80 62 00
        E 180 90 1a 60
        E 0 90 1f 60
        E 0 90 3d 60
        E 0 90 3e 60
        E 0 90 49 60
        E 0 90 4a 60
        E 0 90 55 60
        E 0 90 56 60
        E 0 90 61 60
        E 0 90 62 60
        E 60 80 1a 00
        E 0 80 1f 00
        E 0 80 3d 00
        E 0 80 3e 00
        E 0 80 49 00
        E 0 80 4a 00
        E 0 80 55 00
        E 0 80 56 00
        E 0 80 61 00
        E 0 80 62 00
        E 180 90 18 60
        E 0 90 1f 60
        E 0 90 54 60
        E 0 90 56 60
        E 0 90 60 60
        E 0 90 62 60
        E 60 80 18 00
        E 0 80 1f 00
        E 0 80 54 00
        E 0 80 56 00
        E 0 80 60 00
        E 0 80 62 00
        E 180 90 18 60
        E 0 90 1f 60
        E 0 90 3e 60
        E 0 90 48 60
        E 0 90 4a 60
        E 0 90 54 60
        E 0 90 56 60
        E 0 90 60 60
        E 0 90 62 60
        E 60 80 18 00
        E 0 80 1f 00
        E 0 80 3e 00
        E 0 80 48 00
        E 0 80 4a 00
        E 0 80 54 00
        E 0 80 56 00
        E 0 80 60 00
        E 0 80 62 00
        E 180 90 1f 60
        E 0 90 56 60
        E 0 90 62 60
        E 60 80 1f 00
        E 0 80 56 00
        E 0 80 62 00
        E 180 90 1a 60
        E 0 90 1f 60
        E 0 90 3d 60
        E 0 90 3e 60
        E 0 90 49 60
        E 0 90 4a 60
        E 0 90 55 60
        E 0 90 56 60
        E 0 90 61 60
        E 0 90 62 60
        E 60 80 1a 00
        E 0 80 1f 00
        E 0 80 3d 00
        E 0 80 3e 00
        E 0 80 49 00
        E 0 80 4a 00
        E 0 80 55 00
        E 0 80 56 00
        E 0 80 61 00
        E 0 80 62 00
        E 180 90 1f 60
        E 0 90 56 60
        E 0 90 62 60
        E 60 80 1f 00
        E 0 80 56 00
        E 0 80 62 00
        E 180 90 18 60
        E 0 90 1f 60
        E 0 90 3e 60
        E 0 90 48 60
        E 0 90 4a 60
        E 0 90 54 60
        E 0 90 56 60
        E 0 90 60 60
        E 0 90 62 60
        E 60 80 18 00
        E 0 80 1f 00
        E 0 80 3e 00
        E 0 80 48 00
        E 0 80 4a 00
        E 0 80 54 00
        E 0 80 56 00
        E 0 80 60 00
        E 0 80 62 00
        E 180 90 1f 60
        E 0 90 56 60
        E 0 90 62 60
        E 60 80 1f 00
        E 0 80 56 00
        E 0 80 62 00
        E 180 90 1a 60
        E 0 90 1f 60
        E 0 90 3d 60
        E 0 90 3e 60
        E 0 90 49 60
        E 0 90 4a 60
        E 0 90 55 60
        E 0 90 56 60
        E 0 90 61 60
        E 0 90 62 60
        E 60 80 1a 00
        E 0 80 1f 00
        E 0 80 3d 00
        E 0 80 3e 00
        E 0 80 49 00
        E 0 80 4a 00
        E 0 80 55 00
        E 0 80 56 00
        E 0 80 61 00
        E 0 80 62 00
        E 180 90 18 60
        E 0 90 1f 60
        E 0 90 54 60
        E 0 90 56 60
        E 0 90 60 60
        E 0 90 62 60
        E 60 80 18 00
        E 0 80 1f 00
        E 0 80 54 00
        E 0 80 56 00
        E 0 80 60 00
        E 0 80 62 00
        E 180 90 18 60
        E 0 90 1f 60
        E 0 90 3e 60
        E 0 90 48 60
        E 0 90 4a 60
        E 0 90 54 60
        E 0 90 56 60
        E 0 90 60 60
        E 0 90 62 60
        E 60 80 18 00
        E 0 80 1f 00
        E 0 80 3e 00
        E 0 80 48 00
        E 0 80 4a 00
        E 0 80 54 00
        E 0 80 56 00
        E 0 80 60 00
        E 0 80 62 00
        E 180 90 1f 60
        E 0 90 56 60
        E 0 90 62 60
        E 60 80 1f 00
        E 0 80 56 00
        E 0 80 62 00
        E 180 90 1a 60
        E 0 90 1f 60
        E 0 90 3d 60
        E 0 90 3e 60
        E 0 90 49 60
        E 0 90 4a 60
        E 0 90 55 60
        E 0 90 56 60
        E 0 90 61 60
        E 0 90 62 60
        E 60 80 1a 00
        E 0 80 1f 00
        E 0 80 3d 00
        E 0 80 3e 00
        E 0 80 49 00
        E 0 80 4a 00
        E 0 80 55 00
        E 0 80 56 00
        E 0 80 61 00
        E 0 80 62 00
        E 180 90 1f 60
        E 0 90 56 60
        E 0 90 62 60
        E 60 80 1f 00
        E 0 80 56 00
        E 0 80 62 00
        E 180 90 18 60
        E 0 90 22 60
        E 0 90 26 60
        E 0 90 3f 60
        E 0 90 40 60
        E 0 90 48 60
        E 0 90 4b 60
        E 0 90 4c 60
        E 0 90 54 60
        E 0 90 57 60
        E 0 90 58 60
        E 0 90 60 60
        E 0 90 63 60
        E 0 90 64 60
        E 60 80 18 00
        E 0 80 22 00
        E 0 80 26 00
        E 0 80 3f 00
        E 0 80 40 00
        E 0 80 48 00
        E 0 80 4b 00
        E 0 80 4c 00
        E 0 80 54 00
        E 0 80 57 00
        E 0 80 58 00
        E 0 80 60 00
        E 0 80 63 00
        E 0 80 64 00
        E 180 90 2a 60
        E 0 90 57 60
        E 0 90 63 60
        E 60 80 2a 00
        E 0 80 57 00
        E 0 80 63 00
        E 180 90 1a 60
        E 0 90 2a 60
        E 0 90 3d 60
        E 0 90 3f 60
        E 0 90 49 60
        E 0 90 4b 60
        E 0 90 55 60
        E 0 90 57 60
        E 0 90 61 60
        E 0 90 63 60
        E 60 80 1a 00
        E 0 80 2a 00
        E 0 80 3d 00
        E 0 80 3f 00
        E 0 80 49 00
        E 0 80 4b 00
        E 0 80 55 00
        E 0 80 57 00
        E 0 80 61 00
        E 0 80 63 00
        E 180 90 18 60
        E 0 90 2a 60
        E 0 90 54 60
        E 0 90 57 60
        E 0 90 60 60
        E 0 90 63 60
        E 60 80 18 00
        E 0 80 2a 00
        E 0 80 54 00
        E 0 80 57 00
        E 0 80 60 00
        E 0 80 63 00
        E 180 90 18 60
        E 0 90 2a 60
        E 0 90 3f 60
        E 0 90 48 60
        E 0 90 4b 60
        E 0 90 54 60
        E 0 90 57 60
        E 0 90 60 60
        E 0 90 63 60
        E 60 80 18 00
        E 0 80 2a 00
        E 0 80 3f 00
        E 0 80 48 00
        E 0 80 4b 00
        E 0 80 54 00
        E 0 80 57 00
        E 0 80 60 00
        E 0 80 63 00
        E 180 90 2a 60
        E 0 90 57 60
        E 0 90 63 60
        E 60 80 2a 00
        E 0 80 57 00
        E 0 80 63 00
        E 180 90 1a 60
        E 0 90 2a 60
        E 0 90 3d 60
        E 0 90 3f 60
        E 0 90 49 60
        E 0 90 4b 60
        E 0 90 55 60
        E 0 90 57 60
        E 0 90 61 60
        E 0 90 63 60
        E 60 80 1a 00
        E 0 80 2a 00
        E 0 80 3d 00
        E 0 80 3f 00
        E 0 80 49 00
        E 0 80 4b 00
        E 0 80 55 00
        E 0 80 57 00
        E 0 80 61 00
        E 0 80 63 00
        E 180 90 2a 60
        E 0 90 57 60
        E 0 90 63 60
        E 60 80 2a 00
        E 0 80 57 00
        E 0 80 63 00
        E 180 90 18 60
        E 0 90 2a 60
        E 0 90 3f 60
        E 0 90 48 60
        E 0 90 4b 60
        E 0 90 54 60
        E 0 90 57 60
        E 0 90 60 60
        E 0 90 63 60
        E 60 80 18 00
        E 0 80 48 00
        E 0 80 54 00
        E 0 80 60 00
        E 1 80 2a 00
        E 0 80 3f 00
        E 0 80 4b 00
        E 0 80 57 00
        E 0 80 63 00
        E 179 90 2a 60
        E 0 90 57 60
        E 0 90 63 60
        E 60 80 2a 00
        E 0 80 57 00
        E 0 80 63 00
        E 180 90 1a 60
        E 0 90 2a 60
        E 0 90 3d 60
        E 0 90 3f 60
        E 0 90 49 60
        E 0 90 4b 60
        E 0 90 55 60
        E 0 90 57 60
        E 0 90 61 60
        E 0 90 63 60
        E 59 80 2a 00
        E 0 80 3f 00
        E 0 80 4b 00
        E 0 80 57 00
        E 0 80 63 00
        E 1 80 1a 00
        E 0 80 3d 00
        E 0 80 49 00
        E 0 80 55 00
        E 0 80 61 00
        E 180 90 18 60
        E 0 90 2a 60
        E 0 90 54 60
        E 0 90 57 60
        E 0 90 60 60
        E 0 90 63 60
        E 60 80 18 00
        E 0 80 2a 00
        E 0 80 54 00
        E 0 80 57 00
        E 0 80 60 00
        E 0 80 63 00
        E 180 90 18 60
        E 0 90 2a 60
        E 0 90 3f 60
        E 0 90 48 60
        E 0 90 4b 60
        E 0 90 54 60
        E 0 90 57 60
        E 0 90 60 60
        E 0 90 63 60
        E 60 80 18 00
        E 0 80 48 00
        E 0 80 54 00
        E 0 80 60 00
        E 1 80 2a 00
        E 0 80 3f 00
        E 0 80 4b 00
        E 0 80 57 00
        E 0 80 63 00
        E 179 90 2a 60
        E 0 90 57 60
        E 0 90 63 60
        E 59 80 2a 00
        E 0 80 57 00
        E 0 80 63 00
        E 181 90 1a 60
        E 0 90 2a 60
        E 0 90 3d 60
        E 0 90 3f 60
        E 0 90 49 60
        E 0 90 4b 60
        E 0 90 55 60
        E 0 90 57 60
        E 0 90 61 60
        E 0 90 63 60
        E 59 80 2a 00
        E 0 80 3f 00
        E 0 80 4b 00
        E 0 80 57 00
        E 0 80 63 00
        E 1 80 1a 00
        E 0 80 3d 00
        E 0 80 49 00
        E 0 80 55 00
        E 0 80 61 00
        E 180 90 2a 60
        E 0 90 57 60
        E 0 90 63 60
        E 60 80 2a 00
        E 0 80 57 00
        E 0 80 63 00
        E 180 90 18 60
        E 0 90 2a 60
        E 0 90 3f 60
        E 0 90 48 60
        E 0 90 4b 60
        E 0 90 54 60
        E 0 90 57 60
        E 0 90 60 60
        E 0 90 63 60
        E 60 80 18 00
        E 0 80 48 00
        E 0 80 54 00
        E 0 80 60 00
        E 1 80 2a 00
        E 0 80 3f 00
        E 0 80 4b 00
        E 0 80 57 00
        E 0 80 63 00
        E 179 90 2a 60
        E 0 90 57 60
        E 0 90 63 60
        E 60 80 2a 00
        E 0 80 57 00
        E 0 80 63 00
        E 180 90 1a 60
        E 0 90 2a 60
        E 0 90 3d 60
        E 0 90 3f 60
        E 0 90 49 60
        E 0 90 4b 60
        E 0 90 55 60
        E 0 90 57 60
        E 0 90 61 60
        E 0 90 63 60
        E 59 80 2a 00
        E 0 80 3f 00
        E 0 80 4b 00
        E 0 80 57 00
        E 0 80 63 00
        E 1 80 1a 00
        E 0 80 3d 00
        E 0 80 49 00
        E 0 80 55 00
        E 0 80 61 00
        E 180 90 18 60
        E 0 90 2a 60
        E 0 90 54 60
        E 0 90 57 60
        E 0 90 60 60
        E 0 90 63 60
        E 60 80 18 00
        E 0 80 2a 00
        E 0 80 54 00
        E 0 80 57 00
        E 0 80 60 00
        E 0 80 63 00
        E 180 90 18 60
        E 0 90 2a 60
        E 0 90 3f 60
        E 0 90 48 60
        E 0 90 4b 60
        E 0 90 54 60
        E 0 90 57 60
        E 0 90 60 60
        E 0 90 63 60
        E 60 80 18 00
        E 0 80 48 00
        E 0 80 54 00
        E 0 80 60 00
        E 1 80 2a 00
        E 0 80 3f 00
        E 0 80 4b 00
        E 0 80 57 00
        E 0 80 63 00
        E 179 90 2a 60
        E 0 90 57 60
        E 0 90 63 60
        E 59 80 2a 00
        E 0 80 57 00
        E 0 80 63 00
        E 181 90 1a 60
        E 0 90 2a 60
        E 0 90 3d 60
        E 0 90 3f 60
        E 0 90 49 60
        E 0 90 4b 60
        E 0 90 55 60
        E 0 90 57 60
        E 0 90 61 60
        E 0 90 63 60
        E 59 80 2a 00
        E 0 80 3f 00
        E 0 80 4b 00
        E 0 80 57 00
        E 0 80 63 00
        E 1 80 1a 00
        E 0 80 3d 00
        E 0 80 49 00
        E 0 80 55 00
        E 0 80 61 00
        E 180 90 2a 60
        E 0 90 57 60
        E 0 90 63 60
        E 60 80 2a 00
        E 0 80 57 00
        E 0 80 63 00
        E 180 90 18 60
        E 0 90 2a 60
        E 0 90 3f 60
        E 0 90 48 60
        E 0 90 4b 60
        E 0 90 54 60
        E 0 90 57 60
        E 0 90 60 60
        E 0 90 63 60
        E 60 80 18 00
        E 0 80 48 00
        E 0 80 54 00
        E 0 80 60 00
        E 1 80 2a 00
        E 0 80 3f 00
        E 0 80 4b 00
        E 0 80 57 00
        E 0 80 63 00
        E 179 90 2a 60
        E 0 90 57 60
        E 0 90 63 60
        E 60 80 2a 00
        E 0 80 57 00
        E 0 80 63 00
        E 180 90 1a 60
        E 0 90 2a 60
        E 0 90 3d 60
        E 0 90 3f 60
        E 0 90 49 60
        E 0 90 4b 60
        E 0 90 55 60
        E 0 90 57 60
        E 0 90 61 60
        E 0 90 63 60
        E 59 80 2a 00
        E 0 80 3f 00
        E 0 80 4b 00
        E 0 80 57 00
        E 0 80 63 00
        E 1 80 1a 00
        E 0 80 3d 00
        E 0 80 49 00
        E 0 80 55 00
        E 0 80 61 00
        E 180 90 18 60
        E 0 90 2a 60
        E 0 90 54 60
        E 0 90 57 60
        E 0 90 60 60
        E 0 90 63 60
        E 60 80 18 00
        E 0 80 2a 00
        E 0 80 54 00
        E 0 80 57 00
        E 0 80 60 00
        E 0 80 63 00
        E 180 90 18 60
        E 0 90 2a 60
        E 0 90 3f 60
        E 0 90 48 60
        E 0 90 4b 60
        E 0 90 54 60
        E 0 90 57 60
        E 0 90 60 60
        E 0 90 63 60
        E 60 80 18 00
        E 0 80 48 00
        E 0 80 54 00
        E 0 80 60 00
        E 1 80 2a 00
        E 0 80 3f 00
        E 0 80 4b 00
        E 0 80 57 00
        E 0 80 63 00
        E 179 90 2a 60
        E 0 90 57 60
        E 0 90 63 60
        E 59 80 2a 00
        E 0 80 57 00
        E 0 80 63 00
        E 181 90 1a 60
        E 0 90 2a 60
        E 0 90 3d 60
        E 0 90 3f 60
        E 0 90 49 60
        E 0 90 4b 60
        E 0 90 55 60
        E 0 90 57 60
        E 0 90 61 60
        E 0 90 63 60
        E 59 80 2a 00
        E 0 80 3f 00
        E 0 80 4b 00
        E 0 80 57 00
        E 0 80 63 00
        E 1 80 1a 00
        E 0 80 3d 00
        E 0 80 49 00
        E 0 80 55 00
        E 0 80 61 00
        E 180 90 2a 60
        E 0 90 57 60
        E 0 90 63 60
        E 60 80 2a 00
        E 0 80 57 00
        E 0 80 63 00
        E 180 90 18 60
        E 0 90 2a 60
        E 0 90 3f 60
        E 0 90 48 60
        E 0 90 4b 60
        E 0 90 54 60
        E 0 90 57 60
        E 0 90 60 60
        E 0 90 63 60
        E 60 80 18 00
        E 0 80 48 00
        E 0 80 54 00
        E 0 80 60 00
        E 1 80 2a 00
        E 0 80 3f 00
        E 0 80 4b 00
        E 0 80 57 00
        E 0 80 63 00
        E 179 90 2a 60
        E 0 90 57 60
        E 0 90 63 60
        E 60 80 2a 00
        E 0 80 57 00
        E 0 80 63 00
        E 180 90 1a 60
        E 0 90 2a 60
        E 0 90 3d 60
        E 0 90 3f 60
        E 0 90 49 60
        E 0 90 4b 60
        E 0 90 55 60
        E 0 90 57 60
        E 0 90 61 60
        E 0 90 63 60
        E 59 80 2a 00
        E 0 80 3f 00
        E 0 80 4b 00
        E 0 80 57 00
        E 0 80 63 00
        E 1 80 1a 00
        E 0 80 3d 00
        E 0 80 49 00
        E 0 80 55 00
        E 0 80 61 00
        E 180 90 18 60
        E 0 90 2a 60
        E 0 90 54 60
        E 0 90 57 60
        E 0 90 60 60
        E 0 90 63 60
        E 60 80 18 00
        E 0 80 2a 00
        E 0 80 54 00
        E 0 80 57 00
        E 0 80 60 00
        E 0 80 63 00
        E 180 90 18 60
        E 0 90 2a 60
        E 0 90 3f 60
        E 0 90 48 60
        E 0 90 4b 60
        E 0 90 54 60
        E 0 90 57 60
        E 0 90 60 60
        E 0 90 63 60
        E 60 80 18 00
        E 0 80 48 00
        E 0 80 54 00
        E 0 80 60 00
        E 1 80 2a 00
        E 0 80 3f 00
        E 0 80 4b 00
        E 0 80 57 00
        E 0 80 63 00
        E 179 90 2a 60
        E 0 90 57 60
        E 0 90 63 60
        E 59 80 2a 00
        E 0 80 57 00
        E 0 80 63 00
        E 181 90 1a 60
        E 0 90 2a 60
        E 0 90 3d 60
        E 0 90 3f 60
        E 0 90 49 60
        E 0 90 4b 60
        E 0 90 55 60
        E 0 90 57 60
        E 0 90 61 60
        E 0 90 63 60
        E 59 80 2a 00
        E 0 80 3f 00
        E 0 80 4b 00
        E 0 80 57 00
        E 0 80 63 00
        E 1 80 1a 00
        E 0 80 3d 00
        E 0 80 49 00
        E 0 80 55 00
        E 0 80 61 00
        E 180 90 2a 60
        E 0 90 57 60
        E 0 90 63 60
        E 60 80 2a 00
        E 0 80 57 00
        E 0 80 63 00
        E 180 90 18 60
        E 0 90 2a 60
        E 0 90 3f 60
        E 0 90 48 60
        E 0 90 4b 60
        E 0 90 54 60
        E 0 90 57 60
        E 0 90 60 60
        E 0 90 63 60
        E 60 80 18 00
        E 0 80 48 00
        E 0 80 54 00
        E 0 80 60 00
        E 1 80 2a 00
        E 0 80 3f 00
        E 0 80 4b 00
        E 0 80 57 00
        E 0 80 63 00
        E 179 90 2a 60
        E 0 90 57 60
        E 0 90 63 60
        E 60 80 2a 00
        E 0 80 57 00
        E 0 80 63 00
        E 180 90 1a 60
        E 0 90 2a 60
        E 0 90 3d 60
        E 0 90 3f 60
        E 0 90 49 60
        E 0 90 4b 60
        E 0 90 55 60
        E 0 90 57 60
        E 0 90 61 60
        E 0 90 63 60
        E 59 80 2a 00
        E 0 80 3f 00
        E 0 80 4b 00
        E 0 80 57 00
        E 0 80 63 00
        E 1 80 1a 00
        E 0 80 3d 00
        E 0 80 49 00
        E 0 80 55 00
        E 0 80 61 00
        E 180 90 18 60
        E 0 90 2a 60
        E 0 90 54 60
        E 0 90 57 60
        E 0 90 60 60
        E 0 90 63 60
        E 60 80 18 00
        E 0 80 2a 00
        E 0 80 54 00
        E 0 80 57 00
        E 0 80 60 00
        E 0 80 63 00
        E 180 90 18 60
        E 0 90 2a 60
        E 0 90 3f 60
        E 0 90 48 60
        E 0 90 4b 60
        E 0 90 54 60
        E 0 90 57 60
        E 0 90 60 60
        E 0 90 63 60
        E 60 80 18 00
        E 0 80 48 00
        E 0 80 54 00
        E 0 80 60 00
        E 1 80 2a 00
        E 0 80 3f 00
        E 0 80 4b 00
        E 0 80 57 00
        E 0 80 63 00
        E 179 90 2a 60
        E 0 90 57 60
        E 0 90 63 60
        E 59 80 2a 00
        E 0 80 57 00
        E 0 80 63 00
        E 181 90 1a 60
        E 0 90 2a 60
        E 0 90 3d 60
        E 0 90 3f 60
        E 0 90 49 60
        E 0 90 4b 60
        E 0 90 55 60
        E 0 90 57 60
        E 0 90 61 60
        E 0 90 63 60
        E 59 80 2a 00
        E 0 80 3f 00
        E 0 80 4b 00
        E 0 80 57 00
        E 0 80 63 00
        E 1 80 1a 00
        E 0 80 3d 00
        E 0 80 49 00
        E 0 80 55 00
        E 0 80 61 00
        E 180 90 2a 60
        E 0 90 57 60
        E 0 90 63 60
        E 60 80 2a 00
        E 0 80 57 00
        E 0 80 63 00
        E 121 90 74 12
        E 59 90 18 60
        E 0 90 2a 60
        E 0 90 3f 60
        E 0 90 48 60
        E 0 90 4b 60
        E 0 90 54 60
        E 0 90 57 60
        E 0 90 60 60
        E 0 90 63 60
        E 60 80 18 00
        E 0 80 48 00
        E 0 80 54 00
        E 0 80 60 00
        E 1 80 2a 00
        E 0 80 3f 00
        E 0 80 4b 00
        E 0 80 57 00
        E 0 80 63 00
        E 179 90 2a 60
        E 0 90 57 60
        E 0 90 63 60
        E 60 80 2a 00
        E 0 80 57 00
        E 0 80 63 00
        E 180 90 1a 60
        E 0 90 2a 60
        E 0 90 3d 60
        E 0 90 3f 60
        E 0 90 49 60
        E 0 90 4b 60
        E 0 90 55 60
        E 0 90 57 60
        E 0 90 61 60
        E 0 90 63 60
        E 59 80 2a 00
        E 0 80 3f 00
        E 0 80 4b 00
        E 0 80 57 00
        E 0 80 63 00
        E 1 80 1a 00
        E 0 80 3d 00
        E 0 80 49 00
        E 0 80 55 00
        E 0 80 61 00
        E 180 90 18 60
        E 0 90 2a 60
        E 0 90 54 60
        E 0 90 57 60
        E 0 90 60 60
        E 0 90 63 60
        E 60 80 18 00
        E 0 80 2a 00
        E 0 80 54 00
        E 0 80 57 00
        E 0 80 60 00
        E 0 80 63 00
        E 180 90 18 60
        E 0 90 2a 60
        E 0 90 3f 60
        E 0 90 48 60
        E 0 90 4b 60
        E 0 90 54 60
        E 0 90 57 60
        E 0 90 60 60
        E 0 90 63 60
        E 60 80 18 00
        E 0 80 48 00
        E 0 80 54 00
        E 0 80 60 00
        E 1 80 2a 00
        E 0 80 3f 00
        E 0 80 4b 00
        E 0 80 57 00
        E 0 80 63 00
        E 179 90 2a 60
        E 0 90 57 60
        E 0 90 63 60
        E 59 80 2a 00
        E 0 80 57 00
        E 0 80 63 00
        E 181 90 1a 60
        E 0 90 2a 60
        E 0 90 3d 60
        E 0 90 3f 60
        E 0 90 49 60
        E 0 90 4b 60
        E 0 90 55 60
        E 0 90 57 60
        E 0 90 61 60
        E 0 90 63 60
        E 59 80 2a 00
        E 0 80 3f 00
        E 0 80 4b 00
        E 0 80 57 00
        E 0 80 63 00
        E 1 80 1a 00
        E 0 80 3d 00
        E 0 80 49 00
        E 0 80 55 00
        E 0 80 61 00
        E 180 90 2a 60
        E 0 90 57 60
        E 0 90 63 60
        E 60 80 2a 00
        E 0 80 57 00
        E 0 80 63 00
        E 180 90 18 60
        E 0 90 2a 60
        E 0 90 3f 60
        E 0 90 48 60
        E 0 90 4b 60
        E 0 90 54 60
        E 0 90 57 60
        E 0 90 60 60
        E 0 90 63 60
        E 60 80 18 00
        E 0 80 48 00
        E 0 80 54 00
        E 0 80 60 00
        E 1 80 2a 00
        E 0 80 3f 00
        E 0 80 4b 00
        E 0 80 57 00
        E 0 80 63 00
        E 179 90 2a 60
        E 0 90 57 60
        E 0 90 63 60
        E 60 80 2a 00
        E 0 80 57 00
        E 0 80 63 00
        E 180 90 1a 60
        E 0 90 2a 60
        E 0 90 3d 60
        E 0 90 3f 60
        E 0 90 49 60
        E 0 90 4b 60
        E 0 90 55 60
        E 0 90 57 60
        E 0 90 61 60
        E 0 90 63 60
        E 59 80 2a 00
        E 0 80 3f 00
        E 0 80 4b 00
        E 0 80 57 00
        E 0 80 63 00
        E 1 80 1a 00
        E 0 80 3d 00
        E 0 80 49 00
        E 0 80 55 00
        E 0 80 61 00
        E 180 90 18 60
        E 0 90 2a 60
        E 0 90 54 60
        E 0 90 57 60
        E 0 90 60 60
        E 0 90 63 60
        E 60 80 18 00
        E 0 80 2a 00
        E 0 80 54 00
        E 0 80 57 00
        E 0 80 60 00
        E 0 80 63 00
        E 180 90 18 60
        E 0 90 2a 60
        E 0 90 3f 60
        E 0 90 48 60
        E 0 90 4b 60
        E 0 90 54 60
        E 0 90 57 60
        E 0 90 60 60
        E 0 90 63 60
        E 60 80 18 00
        E 0 80 48 00
        E 0 80 54 00
        E 0 80 60 00
        E 1 80 2a 00
        E 0 80 3f 00
        E 0 80 4b 00
        E 0 80 57 00
        E 0 80 63 00
        E 179 90 2a 60
        E 0 90 57 60
        E 0 90 63 60
        E 59 80 2a 00
        E 0 80 57 00
        E 0 80 63 00
        E 181 90 1a 60
        E 0 90 2a 60
        E 0 90 3d 60
        E 0 90 3f 60
        E 0 90 49 60
        E 0 90 4b 60
        E 0 90 55 60
        E 0 90 57 60
        E 0 90 61 60
        E 0 90 63 60
        E 59 80 2a 00
        E 0 80 3f 00
        E 0 80 4b 00
        E 0 80 57 00
        E 0 80 63 00
        E 1 80 1a 00
        E 0 80 3d 00
        E 0 80 49 00
        E 0 80 55 00
        E 0 80 61 00
        E 180 90 2a 60
        E 0 90 57 60
        E 0 90 63 60
        E 1 80 74 00
        E 59 80 2a 00
        E 0 80 57 00
        E 0 80 63 00
        E 180 90 18 60
        E 0 90 22 60
        E 0 90 26 60
        E 0 90 3f 60
        E 0 90 40 60
        E 0 90 48 60
        E 0 90 4b 60
        E 0 90 4c 60
        E 0 90 54 60
        E 0 90 57 60
        E 0 90 58 60
        E 0 90 60 60
        E 0 90 63 60
        E 0 90 64 60
        E 60 80 18 00
        E 0 80 26 00
        E 0 80 40 00
        E 0 80 48 00
        E 0 80 4c 00
        E 0 80 54 00
        E 0 80 58 00
        E 0 80 60 00
        E 0 80 64 00
        E 1 80 22 00
        E 0 80 3f 00
        E 0 80 4b 00
        E 0 80 57 00
        E 0 80 63 00
        E 179 90 2a 60
        E 0 90 57 60
        E 0 90 63 60
        E 60 80 2a 00
        E 0 80 57 00
        E 0 80 63 00
        E 180 90 1a 60
        E 0 90 2a 60
        E 0 90 3d 60
        E 0 90 3f 60
        E 0 90 49 60
        E 0 90 4b 60
        E 0 90 55 60
        E 0 90 57 60
        E 0 90 61 60
        E 0 90 63 60
        E 59 80 2a 00
        E 0 80 3f 00
        E 0 80 4b 00
        E 0 80 57 00
        E 0 80 63 00
        E 1 80 1a 00
        E 0 80 3d 00
        E 0 80 49 00
        E 0 80 55 00
        E 0 80 61 00
        E 180 90 18 60
        E 0 90 2a 60
        E 0 90 54 60
        E 0 90 57 60
        E 0 90 60 60
        E 0 90 63 60
        E 60 80 18 00
        E 0 80 2a 00
        E 0 80 54 00
        E 0 80 57 00
        E 0 80 60 00
        E 0 80 63 00
        E 180 90 18 60
        E 0 90 2a 60
        E 0 90 3f 60
        E 0 90 48 60
        E 0 90 4b 60
        E 0 90 54 60
        E 0 90 57 60
        E 0 90 60 60
        E 0 90 63 60
        E 60 80 18 00
        E 0 80 48 00
        E 0 80 54 00
        E 0 80 60 00
        E 1 80 2a 00
        E 0 80 3f 00
        E 0 80 4b 00
        E 0 80 57 00
        E 0 80 63 00
        E 179 90 2a 60
        E 0 90 57 60
        E 0 90 63 60
        E 59 80 2a 00
        E 0 80 57 00
        E 0 80 63 00
        E 181 90 1a 60
        E 0 90 2a 60
        E 0 90 3d 60
        E 0 90 3f 60
        E 0 90 49 60
        E 0 90 4b 60
        E 0 90 55 60
        E 0 90 57 60
        E 0 90 61 60
        E 0 90 63 60
        E 59 80 2a 00
        E 0 80 3f 00
        E 0 80 4b 00
        E 0 80 57 00
        E 0 80 63 00
        E 1 80 1a 00
        E 0 80 3d 00
        E 0 80 49 00
        E 0 80 55 00
        E 0 80 61 00
        E 180 90 2a 60
        E 0 90 57 60
        E 0 90 63 60
        E 60 80 2a 00
        E 0 80 57 00
        E 0 80 63 00
        E 180 90 18 60
        E 0 90 2a 60
        E 0 90 3f 60
        E 0 90 48 60
        E 0 90 4b 60
        E 0 90 54 60
        E 0 90 57 60
        E 0 90 60 60
        E 0 90 63 60
        E 60 80 18 00
        E 0 80 48 00
        E 0 80 54 00
        E 0 80 60 00
        E 1 80 2a 00
        E 0 80 3f 00
        E 0 80 4b 00
        E 0 80 57 00
        E 0 80 63 00
        E 179 90 2a 60
        E 0 90 57 60
        E 0 90 63 60
        E 60 80 2a 00
        E 0 80 57 00
        E 0 80 63 00
        E 180 90 1a 60
        E 0 90 2a 60
        E 0 90 3d 60
        E 0 90 3f 60
        E 0 90 49 60
        E 0 90 4b 60
        E 0 90 55 60
        E 0 90 57 60
        E 0 90 61 60
        E 0 90 63 60
        E 59 80 2a 00
        E 0 80 3f 00
        E 0 80 4b 00
        E 0 80 57 00
        E 0 80 63 00
        E 1 80 1a 00
        E 0 80 3d 00
        E 0 80 49 00
        E 0 80 55 00
        E 0 80 61 00
        E 180 90 18 60
        E 0 90 2a 60
        E 0 90 54 60
        E 0 90 57 60
        E 0 90 60 60
        E 0 90 63 60
        E 60 80 18 00
        E 0 80 2a 00
        E 0 80 54 00
        E 0 80 57 00
        E 0 80 60 00
        E 0 80 63 00
        E 180 90 18 60
        E 0 90 2a 60
        E 0 90 3f 60
        E 0 90 48 60
        E 0 90 4b 60
        E 0 90 54 60
        E 0 90 57 60
        E 0 90 60 60
        E 0 90 63 60
        E 60 80 18 00
        E 0 80 48 00
        E 0 80 54 00
        E 0 80 60 00
        E 1 80 2a 00
        E 0 80 3f 00
        E 0 80 4b 00
        E 0 80 57 00
        E 0 80 63 00
        E 179 90 2a 60
        E 0 90 57 60
        E 0 90 63 60
        E 59 80 2a 00
        E 0 80 57 00
        E 0 80 63 00
        E 181 90 1a 60
        E 0 90 2a 60
        E 0 90 3d 60
        E 0 90 3f 60
        E 0 90 49 60
        E 0 90 4b 60
        E 0 90 55 60
        E 0 90 57 60
        E 0 90 61 60
        E 0 90 63 60
        E 59 80 2a 00
        E 0 80 3f 00
        E 0 80 4b 00
        E 0 80 57 00
        E 0 80 63 00
        E 1 80 1a 00
        E 0 80 3d 00
        E 0 80 49 00
        E 0 80 55 00
        E 0 80 61 00
        E 180 90 2a 60
        E 0 90 57 60
        E 0 90 63 60
        E 60 80 2a 00
        E 0 80 57 00
        E 0 80 63 00
        E 180 90 18 60
        E 0 90 2a 60
        E 0 90 3f 60
        E 0 90 48 60
        E 0 90 4b 60
        E 0 90 54 60
        E 0 90 57 60
        E 0 90 60 60
        E 0 90 63 60
        E 60 80 18 00
        E 0 80 48 00
        E 0 80 54 00
        E 0 80 60 00
        E 1 80 2a 00
        E 0 80 3f 00
        E 0 80 4b 00
        E 0 80 57 00
        E 0 80 63 00
        E 179 90 2a 60
        E 0 90 57 60
        E 0 90 63 60
        E 60 80 2a 00
        E 0 80 57 00
        E 0 80 63 00
        E 180 90 1a 60
        E 0 90 2a 60
        E 0 90 3d 60
        E 0 90 3f 60
        E 0 90 49 60
        E 0 90 4b 60
        E 0 90 55 60
        E 0 90 57 60
        E 0 90 61 60
        E 0 90 63 60
        E 59 80 2a 00
        E 0 80 3f 00
        E 0 80 4b 00
        E 0 80 57 00
        E 0 80 63 00
        E 1 80 1a 00
        E 0 80 3d 00
        E 0 80 49 00
        E 0 80 55 00
        E 0 80 61 00
        E 180 90 18 60
        E 0 90 2a 60
        E 0 90 54 60
        E 0 90 57 60
        E 0 90 60 60
        E 0 90 63 60
        E 60 80 18 00
        E 0 80 2a 00
        E 0 80 54 00
        E 0 80 57 00
        E 0 80 60 00
        E 0 80 63 00
        E 180 90 18 60
        E 0 90 2a 60
        E 0 90 3f 60
        E 0 90 48 60
        E 0 90 4b 60
        E 0 90 54 60
        E 0 90 57 60
        E 0 90 60 60
        E 0 90 63 60
        E 60 80 18 00
        E 0 80 48 00
        E 0 80 54 00
        E 0 80 60 00
        E 1 80 2a 00
        E 0 80 3f 00
        E 0 80 4b 00
        E 0 80 57 00
        E 0 80 63 00
        E 179 90 2a 60
        E 0 90 57 60
        E 0 90 63 60
        E 59 80 2a 00
        E 0 80 57 00
        E 0 80 63 00
        E 181 90 1a 60
        E 0 90 2a 60
        E 0 90 3d 60
        E 0 90 3f 60
        E 0 90 49 60
        E 0 90 4b 60
        E 0 90 55 60
        E 0 90 57 60
        E 0 90 61 60
        E 0 90 63 60
        E 59 80 2a 00
        E 0 80 3f 00
        E 0 80 4b 00
        E 0 80 57 00
        E 0 80 63 00
        E 1 80 1a 00
        E 0 80 3d 00
        E 0 80 49 00
        E 0 80 55 00
        E 0 80 61 00
        E 180 90 2a 60
        E 0 90 57 60
        E 0 90 63 60
        E 60 80 2a 00
        E 0 80 57 00
        E 0 80 63 00
        E 180 90 18 60
        E 0 90 2a 60
        E 0 90 3f 60
        E 0 90 48 60
        E 0 90 4b 60
        E 0 90 54 60
        E 0 90 57 60
        E 0 90 60 60
        E 0 90 63 60
        E 60 80 18 00
        E 0 80 48 00
        E 0 80 54 00
        E 0 80 60 00
        E 1 80 2a 00
        E 0 80 3f 00
        E 0 80 4b 00
        E 0 80 57 00
        E 0 80 63 00
        E 179 90 2a 60
        E 0 90 57 60
        E 0 90 63 60
        E 60 80 2a 00
        E 0 80 57 00
        E 0 80 63 00
        E 180 90 1a 60
        E 0 90 2a 60
        E 0 90 3d 60
        E 0 90 3f 60
        E 0 90 49 60
        E 0 90 4b 60
        E 0 90 55 60
        E 0 90 57 60
        E 0 90 61 60
        E 0 90 63 60
        E 59 80 2a 00
        E 0 80 3f 00
        E 0 80 4b 00
        E 0 80 57 00
        E 0 80 63 00
        E 1 80 1a 00
        E 0 80 3d 00
        E 0 80 49 00
        E 0 80 55 00
        E 0 80 61 00
        E 180 90 18 60
        E 0 90 2a 60
        E 0 90 54 60
        E 0 90 57 60
        E 0 90 60 60
        E 0 90 63 60
        E 60 80 18 00
        E 0 80 2a 00
        E 0 80 54 00
        E 0 80 57 00
        E 0 80 60 00
        E 0 80 63 00
        E 180 90 18 60
        E 0 90 2a 60
        E 0 90 3f 60
        E 0 90 48 60
        E 0 90 4b 60
        E 0 90 54 60
        E 0 90 57 60
        E 0 90 60 60
        E 0 90 63 60
        E 60 80 18 00
        E 0 80 48 00
        E 0 80 54 00
        E 0 80 60 00
        E 1 80 2a 00
        E 0 80 3f 00
        E 0 80 4b 00
        E 0 80 57 00
        E 0 80 63 00
        E 179 90 2a 60
        E 0 90 57 60
        E 0 90 63 60
        E 59 80 2a 00
        E 0 80 57 00
        E 0 80 63 00
        E 181 90 1a 60
        E 0 90 2a 60
        E 0 90 3d 60
        E 0 90 3f 60
        E 0 90 49 60
        E 0 90 4b 60
        E 0 90 55 60
        E 0 90 57 60
        E 0 90 61 60
        E 0 90 63 60
        E 59 80 2a 00
        E 0 80 3f 00
        E 0 80 4b 00
        E 0 80 57 00
        E 0 80 63 00
        E 1 80 1a 00
        E 0 80 3d 00
        E 0 80 49 00
        E 0 80 55 00
        E 0 80 61 00
        E 180 90 2a 60
        E 0 90 57 60
        E 0 90 63 60
        E 60 80 2a 00
        E 0 80 57 00
        E 0 80 63 00
        E 180 90 18 60
        E 0 90 2a 60
        E 0 90 3f 60
        E 0 90 48 60
        E 0 90 4b 60
        E 0 90 54 60
        E 0 90 57 60
        E 0 90 60 60
        E 0 90 63 60
        E 60 80 18 00
        E 0 80 48 00
        E 0 80 54 00
        E 0 80 60 00
        E 1 80 2a 00
        E 0 80 3f 00
        E 0 80 4b 00
        E 0 80 57 00
        E 0 80 63 00
        E 179 90 2a 60
        E 0 90 57 60
        E 0 90 63 60
        E 60 80 2a 00
        E 0 80 57 00
        E 0 80 63 00
        E 180 90 1a 60
        E 0 90 2a 60
        E 0 90 3d 60
        E 0 90 3f 60
        E 0 90 49 60
        E 0 90 4b 60
        E 0 90 55 60
        E 0 90 57 60
        E 0 90 61 60
        E 0 90 63 60
        E 59 80 2a 00
        E 0 80 3f 00
        E 0 80 4b 00
        E 0 80 57 00
        E 0 80 63 00
        E 1 80 1a 00
        E 0 80 3d 00
        E 0 80 49 00
        E 0 80 55 00
        E 0 80 61 00
        E 180 90 18 60
        E 0 90 2a 60
        E 0 90 54 60
        E 0 90 57 60
        E 0 90 60 60
        E 0 90 63 60
        E 60 80 18 00
        E 0 80 2a 00
        E 0 80 54 00
        E 0 80 57 00
        E 0 80 60 00
        E 0 80 63 00
        E 180 90 18 60
        E 0 90 2a 60
        E 0 90 3f 60
        E 0 90 48 60
        E 0 90 4b 60
        E 0 90 54 60
        E 0 90 57 60
        E 0 90 60 60
        E 0 90 63 60
        E 60 80 18 00
        E 0 80 48 00
        E 0 80 54 00
        E 0 80 60 00
        E 1 80 2a 00
        E 0 80 3f 00
        E 0 80 4b 00
        E 0 80 57 00
        E 0 80 63 00
        E 179 90 2a 60
        E 0 90 57 60
        E 0 90 63 60
        E 59 80 2a 00
        E 0 80 57 00
        E 0 80 63 00
        E 181 90 1a 60
        E 0 90 2a 60
        E 0 90 3d 60
        E 0 90 3f 60
        E 0 90 49 60
        E 0 90 4b 60
        E 0 90 55 60
        E 0 90 57 60
        E 0 90 61 60
        E 0 90 63 60
        E 59 80 2a 00
        E 0 80 3f 00
        E 0 80 4b 00
        E 0 80 57 00
        E 0 80 63 00
        E 1 80 1a 00
        E 0 80 3d 00
        E 0 80 49 00
        E 0 80 55 00
        E 0 80 61 00
        E 180 90 2a 60
        E 0 90 57 60
        E 0 90 63 60
        E 60 80 2a 00
        E 0 80 57 00
        E 0 80 63 00
        E 180 90 18 60
        E 0 90 2a 60
        E 0 90 3f 60
        E 0 90 48 60
        E 0 90 4b 60
        E 0 90 54 60
        E 0 90 57 60
        E 0 90 60 60
        E 0 90 63 60
        E 60 80 18 00
        E 0 80 48 00
        E 0 80 54 00
        E 0 80 60 00
        E 1 80 2a 00
        E 0 80 3f 00
        E 0 80 4b 00
        E 0 80 57 00
        E 0 80 63 00
        E 179 90 2a 60
        E 0 90 57 60
        E 0 90 63 60
        E 60 80 2a 00
        E 0 80 57 00
        E 0 80 63 00
        E 180 90 1a 60
        E 0 90 2a 60
        E 0 90 3d 60
        E 0 90 3f 60
        E 0 90 49 60
        E 0 90 4b 60
        E 0 90 55 60
        E 0 90 57 60
        E 0 90 61 60
        E 0 90 63 60
        E 59 80 2a 00
        E 0 80 3f 00
        E 0 80 4b 00
        E 0 80 57 00
        E 0 80 63 00
        E 1 80 1a 00
        E 0 80 3d 00
        E 0 80 49 00
        E 0 80 55 00
        E 0 80 61 00
        E 180 90 18 60
        E 0 90 2a 60
        E 0 90 54 60
        E 0 90 57 60
        E 0 90 60 60
        E 0 90 63 60
        E 60 80 18 00
        E 0 80 2a 00
        E 0 80 54 00
        E 0 80 57 00
        E 0 80 60 00
        E 0 80 63 00
        E 180 90 18 60
        E 0 90 2a 60
        E 0 90 3f 60
        E 0 90 48 60
        E 0 90 4b 60
        E 0 90 54 60
        E 0 90 57 60
        E 0 90 60 60
        E 0 90 63 60
        E 60 80 18 00
        E 0 80 48 00
        E 0 80 54 00
        E 0 80 60 00
        E 1 80 2a 00
        E 0 80 3f 00
        E 0 80 4b 00
        E 0 80 57 00
        E 0 80 63 00
        E 179 90 2a 60
        E 0 90 57 60
        E 0 90 63 60
        E 59 80 2a 00
        E 0 80 57 00
        E 0 80 63 00
        E 181 90 1a 60
        E 0 90 2a 60
        E 0 90 3d 60
        E 0 90 3f 60
        E 0 90 49 60
        E 0 90 4b 60
        E 0 90 55 60
        E 0 90 57 60
        E 0 90 61 60
        E 0 90 63 60
        E 59 80 2a 00
        E 0 80 3f 00
        E 0 80 4b 00
        E 0 80 57 00
        E 0 80 63 00
        E 1 80 1a 00
        E 0 80 3d 00
        E 0 80 49 00
        E 0 80 55 00
        E 0 80 61 00
        E 180 90 2a 60
        E 0 90 57 60
        E 0 90 63 60
        E 60 80 2a 00
        E 0 80 57 00
        E 0 80 63 00
        E 180 90 18 60
        E 0 90 2a 60
        E 0 90 3f 60
        E 0 90 48 60
        E 0 90 4b 60
        E 0 90 54 60
        E 0 90 57 60
        E 0 90 60 60
        E 0 90 63 60
        E 60 80 18 00
        E 0 80 48 00
        E 0 80 54 00
        E 0 80 60 00
        E 1 80 2a 00
        E 0 80 3f 00
        E 0 80 4b 00
        E 0 80 57 00
        E 0 80 63 00
        E 179 90 2a 60
        E 0 90 57 60
        E 0 90 63 60
        E 60 80 2a 00
        E 0 80 57 00
        E 0 80 63 00
        E 180 90 1a 60
        E 0 90 2a 60
        E 0 90 3d 60
        E 0 90 3f 60
        E 0 90 49 60
        E 0 90 4b 60
        E 0 90 55 60
        E 0 90 57 60
        E 0 90 61 60
        E 0 90 63 60
        E 59 80 2a 00
        E 0 80 3f 00
        E 0 80 4b 00
        E 0 80 57 00
        E 0 80 63 00
        E 1 80 1a 00
        E 0 80 3d 00
        E 0 80 49 00
        E 0 80 55 00
        E 0 80 61 00
        E 180 90 18 60
        E 0 90 2a 60
        E 0 90 54 60
        E 0 90 57 60
        E 0 90 60 60
        E 0 90 63 60
        E 60 80 18 00
        E 0 80 2a 00
        E 0 80 54 00
        E 0 80 57 00
        E 0 80 60 00
        E 0 80 63 00
        E 180 90 18 60
        E 0 90 2a 60
        E 0 90 3f 60
        E 0 90 48 60
        E 0 90 4b 60
        E 0 90 54 60
        E 0 90 57 60
        E 0 90 60 60
        E 0 90 63 60
        E 60 80 18 00
        E 0 80 48 00
        E 0 80 54 00
        E 0 80 60 00
        E 1 80 2a 00
        E 0 80 3f 00
        E 0 80 4b 00
        E 0 80 57 00
        E 0 80 63 00
        E 179 90 2a 60
        E 0 90 57 60
        E 0 90 63 60
        E 59 80 2a 00
        E 0 80 57 00
        E 0 80 63 00
        E 181 90 1a 60
        E 0 90 2a 60
        E 0 90 3d 60
        E 0 90 3f 60
        E 0 90 49 60
        E 0 90 4b 60
        E 0 90 55 60
        E 0 90 57 60
        E 0 90 61 60
        E 0 90 63 60
        E 59 80 2a 00
        E 0 80 3f 00
        E 0 80 4b 00
        E 0 80 57 00
        E 0 80 63 00
        E 1 80 1a 00
        E 0 80 3d 00
        E 0 80 49 00
        E 0 80 55 00
        E 0 80 61 00
        E 180 90 2a 60
        E 0 90 57 60
        E 0 90 63 60
        E 60 80 2a 00
        E 0 80 57 00
        E 0 80 63 00
        E 180 90 18 60
        E 0 90 2a 60
        E 0 90 3f 60
        E 0 90 48 60
        E 0 90 4b 60
        E 0 90 54 60
        E 0 90 57 60
        E 0 90 60 60
        E 0 90 63 60
        E 60 80 18 00
        E 0 80 48 00
        E 0 80 54 00
        E 0 80 60 00
        E 1 80 2a 00
        E 0 80 3f 00
        E 0 80 4b 00
        E 0 80 57 00
        E 0 80 63 00
        E 179 90 2a 60
        E 0 90 57 60
        E 0 90 63 60
        E 60 80 2a 00
        E 0 80 57 00
        E 0 80 63 00
        E 180 90 1a 60
        E 0 90 2a 60
        E 0 90 3d 60
        E 0 90 3f 60
        E 0 90 49 60
        E 0 90 4b 60
        E 0 90 55 60
        E 0 90 57 60
        E 0 90 61 60
        E 0 90 63 60
        E 59 80 2a 00
        E 0 80 3f 00
        E 0 80 4b 00
        E 0 80 57 00
        E 0 80 63 00
        E 1 80 1a 00
        E 0 80 3d 00
        E 0 80 49 00
        E 0 80 55 00
        E 0 80 61 00
        E 180 90 18 60
        E 0 90 2a 60
        E 0 90 54 60
        E 0 90 57 60
        E 0 90 60 60
        E 0 90 63 60
        E 60 80 18 00
        E 0 80 2a 00
        E 0 80 54 00
        E 0 80 57 00
        E 0 80 60 00
        E 0 80 63 00
        E 180 90 18 60
        E 0 90 2a 60
        E 0 90 3f 60
        E 0 90 48 60
        E 0 90 4b 60
        E 0 90 54 60
        E 0 90 57 60
        E 0 90 60 60
        E 0 90 63 60
        E 0 90 78 60
        E 0 90 79 60
        E 0 90 7a 60
        E 0 90 7b 60
        E 0 90 7c 60
        E 60 80 18 00
        E 0 80 48 00
        E 0 80 54 00
        E 0 80 60 00
        E 1 80 2a 00
        E 0 80 3f 00
        E 0 80 4b 00
        E 0 80 57 00
        E 0 80 63 00
        E 179 90 2a 60
        E 0 90 57 60
        E 0 90 63 60
        E 59 80 2a 00
        E 0 80 57 00
        E 0 80 63 00
        E 181 90 1a 60
        E 0 90 2a 60
        E 0 90 3d 60
        E 0 90 3f 60
        E 0 90 49 60
        E 0 90 4b 60
        E 0 90 55 60
        E 0 90 57 60
        E 0 90 61 60
        E 0 90 63 60
        E 59 80 2a 00
        E 0 80 3f 00
        E 0 80 4b 00
        E 0 80 57 00
        E 0 80 63 00
        E 1 80 1a 00
        E 0 80 3d 00
        E 0 80 49 00
        E 0 80 55 00
        E 0 80 61 00
        E 180 90 2a 60
        E 0 90 57 60
        E 0 90 63 60
        E 60 80 2a 00
        E 0 80 57 00
        E 0 80 63 00
        E 180 80 78 00
        E 0 80 79 00
        E 0 80 7a 00
        E 0 80 7b 00
        E 0 80 7c 00
        E 0 90 18 60
        E 0 90 22 60
        E 0 90 26 60
        E 0 90 3f 60
        E 0 90 40 60
        E 0 90 48 60
        E 0 90 4b 60
        E 0 90 4c 60
        E 0 90 54 60
        E 0 90 57 60
        E 0 90 58 60
        E 0 90 60 60
        E 0 90 63 60
        E 0 90 64 60
        E 60 80 18 00
        E 0 80 26 00
        E 0 80 40 00
        E 0 80 48 00
        E 0 80 4c 00
        E 0 80 54 00
        E 0 80 58 00
        E 0 80 60 00
        E 0 80 64 00
        E 1 80 22 00
        E 0 80 3f 00
        E 0 80 4b 00
        E 0 80 57 00
        E 0 80 63 00
        E 179 90 2a 60
        E 0 90 57 60
        E 0 90 63 60
        E 60 80 2a 00
        E 0 80 57 00
        E 0 80 63 00
        E 180 90 1a 60
        E 0 90 2a 60
        E 0 90 3d 60
        E 0 90 3f 60
        E 0 90 49 60
        E 0 90 4b 60
        E 0 90 55 60
        E 0 90 57 60
        E 0 90 61 60
        E 0 90 63 60
        E 59 80 2a 00
        E 0 80 3f 00
        E 0 80 4b 00
        E 0 80 57 00
        E 0 80 63 00
        E 1 80 1a 00
        E 0 80 3d 00
        E 0 80 49 00
        E 0 80 55 00
        E 0 80 61 00
        E 180 90 18 60
        E 0 90 2a 60
        E 0 90 54 60
        E 0 90 57 60
        E 0 90 60 60
        E 0 90 63 60
        E 60 80 18 00
        E 0 80 2a 00
        E 0 80 54 00
        E 0 80 57 00
        E 0 80 60 00
        E 0 80 63 00
        E 180 90 18 60
        E 0 90 2a 60
        E 0 90 3f 60
        E 0 90 48 60
        E 0 90 4b 60
        E 0 90 54 60
        E 0 90 57 60
        E 0 90 60 60
        E 0 90 63 60
        E 60 80 18 00
        E 0 80 48 00
        E 0 80 54 00
        E 0 80 60 00
        E 1 80 2a 00
        E 0 80 3f 00
        E 0 80 4b 00
        E 0 80 57 00
        E 0 80 63 00
        E 179 90 2a 60
        E 0 90 57 60
        E 0 90 63 60
        E 59 80 2a 00
        E 0 80 57 00
        E 0 80 63 00
        E 181 90 1a 60
        E 0 90 2a 60
        E 0 90 3d 60
        E 0 90 3f 60
        E 0 90 49 60
        E 0 90 4b 60
        E 0 90 55 60
        E 0 90 57 60
        E 0 90 61 60
        E 0 90 63 60
        E 59 80 2a 00
        E 0 80 3f 00
        E 0 80 4b 00
        E 0 80 57 00
        E 0 80 63 00
        E 1 80 1a 00
        E 0 80 3d 00
        E 0 80 49 00
        E 0 80 55 00
        E 0 80 61 00
        E 180 90 2a 60
        E 0 90 57 60
        E 0 90 63 60
        E 60 80 2a 00
        E 0 80 57 00
        E 0 80 63 00
        E 180 90 18 60
        E 0 90 2a 60
        E 0 90 3f 60
        E 0 90 48 60
        E 0 90 4b 60
        E 0 90 54 60
        E 0 90 57 60
        E 0 90 60 60
        E 0 90 63 60
        E 60 80 18 00
        E 0 80 48 00
        E 0 80 54 00
        E 0 80 60 00
        E 1 80 2a 00
        E 0 80 3f 00
        E 0 80 4b 00
        E 0 80 57 00
        E 0 80 63 00
        E 179 90 2a 60
        E 0 90 57 60
        E 0 90 63 60
        E 60 80 2a 00
        E 0 80 57 00
        E 0 80 63 00
        E 180 90 1a 60
        E 0 90 2a 60
        E 0 90 3d 60
        E 0 90 3f 60
        E 0 90 49 60
        E 0 90 4b 60
        E 0 90 55 60
        E 0 90 57 60
        E 0 90 61 60
        E 0 90 63 60
        E 59 80 2a 00
        E 0 80 3f 00
        E 0 80 4b 00
        E 0 80 57 00
        E 0 80 63 00
        E 1 80 1a 00
        E 0 80 3d 00
        E 0 80 49 00
        E 0 80 55 00
        E 0 80 61 00
        E 180 90 18 60
        E 0 90 2a 60
        E 0 90 54 60
        E 0 90 57 60
        E 0 90 60 60
        E 0 90 63 60
        E 60 80 18 00
        E 0 80 2a 00
        E 0 80 54 00
        E 0 80 57 00
        E 0 80 60 00
        E 0 80 63 00
        E 180 90 18 60
        E 0 90 2a 60
        E 0 90 3f 60
        E 0 90 48 60
        E 0 90 4b 60
        E 0 90 54 60
        E 0 90 57 60
        E 0 90 60 60
        E 0 90 63 60
        E 60 80 18 00
        E 0 80 48 00
        E 0 80 54 00
        E 0 80 60 00
        E 1 80 2a 00
        E 0 80 3f 00
        E 0 80 4b 00
        E 0 80 57 00
        E 0 80 63 00
        E 179 90 2a 60
        E 0 90 57 60
        E 0 90 63 60
        E 59 80 2a 00
        E 0 80 57 00
        E 0 80 63 00
        E 181 90 1a 60
        E 0 90 2a 60
        E 0 90 3d 60
        E 0 90 3f 60
        E 0 90 49 60
        E 0 90 4b 60
        E 0 90 55 60
        E 0 90 57 60
        E 0 90 61 60
        E 0 90 63 60
        E 59 80 2a 00
        E 0 80 3f 00
        E 0 80 4b 00
        E 0 80 57 00
        E 0 80 63 00
        E 1 80 1a 00
        E 0 80 3d 00
        E 0 80 49 00
        E 0 80 55 00
        E 0 80 61 00
        E 180 90 2a 60
        E 0 90 57 60
        E 0 90 63 60
        E 60 80 2a 00
        E 0 80 57 00
        E 0 80 63 00
        E 180 90 18 60
        E 0 90 2a 60
        E 0 90 3f 60
        E 0 90 48 60
        E 0 90 4b 60
        E 0 90 54 60
        E 0 90 57 60
        E 0 90 60 60
        E 0 90 63 60
        E 60 80 18 00
        E 0 80 48 00
        E 0 80 54 00
        E 0 80 60 00
        E 1 80 2a 00
        E 0 80 3f 00
        E 0 80 4b 00
        E 0 80 57 00
        E 0 80 63 00
        E 179 90 2a 60
        E 0 90 57 60
        E 0 90 63 60
        E 60 80 2a 00
        E 0 80 57 00
        E 0 80 63 00
        E 180 90 1a 60
        E 0 90 2a 60
        E 0 90 3d 60
        E 0 90 3f 60
        E 0 90 49 60
        E 0 90 4b 60
        E 0 90 55 60
        E 0 90 57 60
        E 0 90 61 60
        E 0 90 63 60
        E 59 80 2a 00
        E 0 80 3f 00
        E 0 80 4b 00
        E 0 80 57 00
        E 0 80 63 00
        E 1 80 1a 00
        E 0 80 3d 00
        E 0 80 49 00
        E 0 80 55 00
        E 0 80 61 00
        E 180 90 18 60
        E 0 90 2a 60
        E 0 90 54 60
        E 0 90 57 60
        E 0 90 60 60
        E 0 90 63 60
        E 60 80 18 00
        E 0 80 2a 00
        E 0 80 54 00
        E 0 80 57 00
        E 0 80 60 00
        E 0 80 63 00
        E 180 90 18 60
        E 0 90 2a 60
        E 0 90 3f 60
        E 0 90 48 60
        E 0 90 4b 60
        E 0 90 54 60
        E 0 90 57 60
        E 0 90 60 60
        E 0 90 63 60
        E 60 80 18 00
        E 0 80 48 00
        E 0 80 54 00
        E 0 80 60 00
        E 1 80 2a 00
        E 0 80 3f 00
        E 0 80 4b 00
        E 0 80 57 00
        E 0 80 63 00
        E 179 90 2a 60
        E 0 90 57 60
        E 0 90 63 60
        E 59 80 2a 00
        E 0 80 57 00
        E 0 80 63 00
        E 181 90 1a 60
        E 0 90 2a 60
        E 0 90 3d 60
        E 0 90 3f 60
        E 0 90 49 60
        E 0 90 4b 60
        E 0 90 55 60
        E 0 90 57 60
        E 0 90 61 60
        E 0 90 63 60
        E 59 80 2a 00
        E 0 80 3f 00
        E 0 80 4b 00
        E 0 80 57 00
        E 0 80 63 00
        E 1 80 1a 00
        E 0 80 3d 00
        E 0 80 49 00
        E 0 80 55 00
        E 0 80 61 00
        E 180 90 2a 60
        E 0 90 57 60
        E 0 90 63 60
        E 60 80 2a 00
        E 0 80 57 00
        E 0 80 63 00
        E 180 90 18 60
        E 0 90 2a 60
        E 0 90 3f 60
        E 0 90 48 60
        E 0 90 4b 60
        E 0 90 54 60
        E 0 90 57 60
        E 0 90 60 60
        E 0 90 63 60
        E 60 80 18 00
        E 0 80 48 00
        E 0 80 54 00
        E 0 80 60 00
        E 1 80 2a 00
        E 0 80 3f 00
        E 0 80 4b 00
        E 0 80 57 00
        E 0 80 63 00
        E 179 90 2a 60
        E 0 90 57 60
        E 0 90 63 60
        E 60 80 2a 00
        E 0 80 57 00
        E 0 80 63 00
        E 180 90 1a 60
        E 0 90 2a 60
        E 0 90 3d 60
        E 0 90 3f 60
        E 0 90 49 60
        E 0 90 4b 60
        E 0 90 55 60
        E 0 90 57 60
        E 0 90 61 60
        E 0 90 63 60
        E 59 80 2a 00
        E 0 80 3f 00
        E 0 80 4b 00
        E 0 80 57 00
        E 0 80 63 00
        E 1 80 1a 00
        E 0 80 3d 00
        E 0 80 49 00
        E 0 80 55 00
        E 0 80 61 00
        E 180 90 18 60
        E 0 90 2a 60
        E 0 90 54 60
        E 0 90 57 60
        E 0 90 60 60
        E 0 90 63 60
        E 60 80 18 00
        E 0 80 2a 00
        E 0 80 54 00
        E 0 80 57 00
        E 0 80 60 00
        E 0 80 63 00
        E 180 90 18 60
        E 0 90 2a 60
        E 0 90 3f 60
        E 0 90 48 60
        E 0 90 4b 60
        E 0 90 54 60
        E 0 90 57 60
        E 0 90 60 60
        E 0 90 63 60
        E 60 80 18 00
        E 0 80 48 00
        E 0 80 54 00
        E 0 80 60 00
        E 1 80 2a 00
        E 0 80 3f 00
        E 0 80 4b 00
        E 0 80 57 00
        E 0 80 63 00
        E 179 90 2a 60
        E 0 90 57 60
        E 0 90 63 60
        E 59 80 2a 00
        E 0 80 57 00
        E 0 80 63 00
        E 181 90 1a 60
        E 0 90 2a 60
        E 0 90 3d 60
        E 0 90 3f 60
        E 0 90 49 60
        E 0 90 4b 60
        E 0 90 55 60
        E 0 90 57 60
        E 0 90 61 60
        E 0 90 63 60
        E 59 80 2a 00
        E 0 80 3f 00
        E 0 80 4b 00
        E 0 80 57 00
        E 0 80 63 00
        E 1 80 1a 00
        E 0 80 3d 00
        E 0 80 49 00
        E 0 80 55 00
        E 0 80 61 00
        E 180 90 2a 60
        E 0 90 57 60
        E 0 90 63 60
        E 60 80 2a 00
        E 0 80 57 00
        E 0 80 63 00
        E 180 90 18 60
        E 0 90 22 60
        E 0 90 26 60
        E 0 90 3e 60
        E 0 90 40 60
        E 0 90 48 60
        E 0 90 4a 60
        E 0 90 4c 60
        E 0 90 54 60
        E 0 90 56 60
        E 0 90 58 60
        E 0 90 60 60
        E 0 90 62 60
        E 0 90 64 60
        E 60 80 18 00
        E 0 80 22 00
        E 0 80 40 00
        E 0 80 48 00
        E 0 80 4c 00
        E 0 80 54 00
        E 0 80 58 00
        E 0 80 60 00
        E 0 80 64 00
        E 1 80 26 00
        E 0 80 3e 00
        E 0 80 4a 00
        E 0 80 56 00
        E 0 80 62 00
        E 179 90 18 60
        E 0 90 1f 60
        E 0 90 54 60
        E 0 90 56 60
        E 0 90 60 60
        E 0 90 62 60
        E 0 90 74 60
        E 60 80 18 00
        E 0 80 1f 00
        E 0 80 54 00
        E 0 80 56 00
        E 0 80 60 00
        E 0 80 62 00
        E 180 90 1a 60
        E 0 90 1f 60
        E 0 90 3d 60
        E 0 90 3e 60
        E 0 90 49 60
        E 0 90 4a 60
        E 0 90 55 60
        E 0 90 56 60
        E 0 90 61 60
        E 0 90 62 60
        E 59 80 1f 00
        E 0 80 3e 00
        E 0 80 4a 00
        E 0 80 56 00
        E 0 80 62 00
        E 1 80 1a 00
        E 0 80 3d 00
        E 0 80 49 00
        E 0 80 55 00
        E 0 80 61 00
        E 180 90 1f 60
        E 0 90 56 60
        E 0 90 62 60
        E 60 80 1f 00
        E 0 80 56 00
        E 0 80 62 00
        E 180 90 1f 60
        E 0 90 3e 60
        E 0 90 4a 60
        E 0 90 56 60
        E 0 90 62 60
        E 61 80 1f 00
        E 0 80 3e 00
        E 0 80 4a 00
        E 0 80 56 00
        E 0 80 62 00
        E 179 90 1f 60
        E 0 90 56 60
        E 0 90 62 60
        E 59 80 1f 00
        E 0 80 56 00
        E 0 80 62 00
        E 181 90 1a 60
        E 0 90 1f 60
        E 0 90 3d 60
        E 0 90 3e 60
        E 0 90 49 60
        E 0 90 4a 60
        E 0 90 55 60
        E 0 90 56 60
        E 0 90 61 60
        E 0 90 62 60
        E 59 80 1f 00
        E 0 80 3e 00
        E 0 80 4a 00
        E 0 80 56 00
        E 0 80 62 00
        E 1 80 1a 00
        E 0 80 3d 00
        E 0 80 49 00
        E 0 80 55 00
        E 0 80 61 00
        E 180 90 1f 60
        E 0 90 56 60
        E 0 90 62 60
        E 60 80 1f 00
        E 0 80 56 00
        E 0 80 62 00
        E 180 90 18 60
        E 0 90 1f 60
        E 0 90 3e 60
        E 0 90 48 60
        E 0 90 4a 60
        E 0 90 54 60
        E 0 90 56 60
        E 0 90 60 60
        E 0 90 62 60
        E 60 80 74 00
        E 0 80 18 00
        E 0 80 48 00
        E 0 80 54 00
        E 0 80 60 00
        E 1 80 1f 00
        E 0 80 3e 00
        E 0 80 4a 00
        E 0 80 56 00
        E 0 80 62 00
        E 179 90 18 60
        E 0 90 1f 60
        E 0 90 54 60
        E 0 90 56 60
        E 0 90 60 60
        E 0 90 62 60
        E 60 80 18 00
        E 0 80 1f 00
        E 0 80 54 00
        E 0 80 56 00
        E 0 80 60 00
        E 0 80 62 00
        E 180 90 1a 60
        E 0 90 1f 60
        E 0 90 3d 60
        E 0 90 3e 60
        E 0 90 49 60
        E 0 90 4a 60
        E 0 90 55 60
        E 0 90 56 60
        E 0 90 61 60
        E 0 90 62 60
        E 59 80 1f 00
        E 0 80 3e 00
        E 0 80 4a 00
        E 0 80 56 00
        E 0 80 62 00
        E 1 80 1a 00
        E 0 80 3d 00
        E 0 80 49 00
        E 0 80 55 00
        E 0 80 61 00
        E 180 90 1f 60
        E 0 90 56 60
        E 0 90 62 60
        E 60 80 1f 00
        E 0 80 56 00
        E 0 80 62 00
        E 180 90 1f 60
        E 0 90 3e 60
        E 0 90 4a 60
        E 0 90 56 60
        E 0 90 62 60
        E 61 80 1f 00
        E 0 80 3e 00
        E 0 80 4a 00
        E 0 80 56 00
        E 0 80 62 00
        E 179 90 1f 60
        E 0 90 56 60
        E 0 90 62 60
        E 59 80 1f 00
        E 0 80 56 00
        E 0 80 62 00
        E 181 90 1a 60
        E 0 90 1f 60
        E 0 90 3d 60
        E 0 90 3e 60
        E 0 90 49 60
        E 0 90 4a 60
        E 0 90 55 60
        E 0 90 56 60
        E 0 90 61 60
        E 0 90 62 60
        E 59 80 1f 00
        E 0 80 3e 00
        E 0 80 4a 00
        E 0 80 56 00
        E 0 80 62 00
        E 1 80 1a 00
        E 0 80 3d 00
        E 0 80 49 00
        E 0 80 55 00
        E 0 80 61 00
        E 180 90 1f 60
        E 0 90 56 60
        E 0 90 62 60
        E 60 80 1f 00
        E 0 80 56 00
        E 0 80 62 00
        E 180 90 18 60
        E 0 90 1f 60
        E 0 90 3e 60
        E 0 90 48 60
        E 0 90 4a 60
        E 0 90 54 60
        E 0 90 56 60
        E 0 90 60 60
        E 0 90 62 60
        E 60 80 18 00
        E 0 80 48 00
        E 0 80 54 00
        E 0 80 60 00
        E 1 80 1f 00
        E 0 80 3e 00
        E 0 80 4a 00
        E 0 80 56 00
        E 0 80 62 00
        E 179 90 18 60
        E 0 90 1f 60
        E 0 90 54 60
        E 0 90 56 60
        E 0 90 60 60
        E 0 90 62 60
        E 60 80 18 00
        E 0 80 1f 00
        E 0 80 54 00
        E 0 80 56 00
        E 0 80 60 00
        E 0 80 62 00
        E 180 90 1a 60
        E 0 90 1f 60
        E 0 90 3d 60
        E 0 90 3e 60
        E 0 90 49 60
        E 0 90 4a 60
        E 0 90 55 60
        E 0 90 56 60
        E 0 90 61 60
        E 0 90 62 60
        E 59 80 1f 00
        E 0 80 3e 00
        E 0 80 4a 00
        E 0 80 56 00
        E 0 80 62 00
        E 1 80 1a 00
        E 0 80 3d 00
        E 0 80 49 00
        E 0 80 55 00
        E 0 80 61 00
        E 180 90 1f 60
        E 0 90 56 60
        E 0 90 62 60
        E 60 80 1f 00
        E 0 80 56 00
        E 0 80 62 00
        E 180 90 1f 60
        E 0 90 3e 60
        E 0 90 4a 60
        E 0 90 56 60
        E 0 90 62 60
        E 61 80 1f 00
        E 0 80 3e 00
        E 0 80 4a 00
        E 0 80 56 00
        E 0 80 62 00
        E 179 90 1f 60
        E 0 90 56 60
        E 0 90 62 60
        E 59 80 1f 00
        E 0 80 56 00
        E 0 80 62 00
        E 181 90 1a 60
        E 0 90 1f 60
        E 0 90 3d 60
        E 0 90 3e 60
        E 0 90 49 60
        E 0 90 4a 60
        E 0 90 55 60
        E 0 90 56 60
        E 0 90 61 60
        E 0 90 62 60
        E 59 80 1f 00
        E 0 80 3e 00
        E 0 80 4a 00
        E 0 80 56 00
        E 0 80 62 00
        E 1 80 1a 00
        E 0 80 3d 00
        E 0 80 49 00
        E 0 80 55 00
        E 0 80 61 00
        E 180 90 1f 60
        E 0 90 56 60
        E 0 90 62 60
        E 60 80 1f 00
        E 0 80 56 00
        E 0 80 62 00
        E 180 90 18 60
        E 0 90 1f 60
        E 0 90 3e 60
        E 0 90 48 60
        E 0 90 4a 60
        E 0 90 54 60
        E 0 90 56 60
        E 0 90 60 60
        E 0 90 62 60
        E 60 80 18 00
        E 0 80 48 00
        E 0 80 54 00
        E 0 80 60 00
        E 1 80 1f 00
        E 0 80 3e 00
        E 0 80 4a 00
        E 0 80 56 00
        E 0 80 62 00
        E 179 90 18 60
        E 0 90 1f 60
        E 0 90 54 60
        E 0 90 56 60
        E 0 90 60 60
        E 0 90 62 60
        E 60 80 18 00
        E 0 80 1f 00
        E 0 80 54 00
        E 0 80 56 00
        E 0 80 60 00
        E 0 80 62 00
        E 180 90 1a 60
        E 0 90 1f 60
        E 0 90 3d 60
        E 0 90 3e 60
        E 0 90 49 60
        E 0 90 4a 60
        E 0 90 55 60
        E 0 90 56 60
        E 0 90 61 60
        E 0 90 62 60
        E 59 80 1f 00
        E 0 80 3e 00
        E 0 80 4a 00
        E 0 80 56 00
        E 0 80 62 00
        E 1 80 1a 00
        E 0 80 3d 00
        E 0 80 49 00
        E 0 80 55 00
        E 0 80 61 00
        E 180 90 1f 60
        E 0 90 56 60
        E 0 90 62 60
        E 60 80 1f 00
        E 0 80 56 00
        E 0 80 62 00
        E 180 90 1f 60
        E 0 90 3e 60
        E 0 90 4a 60
        E 0 90 56 60
        E 0 90 62 60
        E 61 80 1f 00
        E 0 80 3e 00
        E 0 80 4a 00
        E 0 80 56 00
        E 0 80 62 00
        E 179 90 1f 60
        E 0 90 56 60
        E 0 90 62 60
        E 59 80 1f 00
        E 0 80 56 00
        E 0 80 62 00
        E 181 90 1a 60
        E 0 90 1f 60
        E 0 90 3d 60
        E 0 90 3e 60
        E 0 90 49 60
        E 0 90 4a 60
        E 0 90 55 60
        E 0 90 56 60
        E 0 90 61 60
        E 0 90 62 60
        E 59 80 1f 00
        E 0 80 3e 00
        E 0 80 4a 00
        E 0 80 56 00
        E 0 80 62 00
        E 1 80 1a 00
        E 0 80 3d 00
        E 0 80 49 00
        E 0 80 55 00
        E 0 80 61 00
        E 180 90 1f 60
        E 0 90 56 60
        E 0 90 62 60
        E 60 80 1f 00
        E 0 80 56 00
        E 0 80 62 00
        E 180 90 18 60
        E 0 90 1f 60
        E 0 90 3e 60
        E 0 90 48 60
        E 0 90 4a 60
        E 0 90 54 60
        E 0 90 56 60
        E 0 90 60 60
        E 0 90 62 60
        E 60 80 18 00
        E 0 80 48 00
        E 0 80 54 00
        E 0 80 60 00
        E 1 80 1f 00
        E 0 80 3e 00
        E 0 80 4a 00
        E 0 80 56 00
        E 0 80 62 00
        E 179 90 18 60
        E 0 90 1f 60
        E 0 90 54 60
        E 0 90 56 60
        E 0 90 60 60
        E 0 90 62 60
        E 60 80 18 00
        E 0 80 1f 00
        E 0 80 54 00
        E 0 80 56 00
        E 0 80 60 00
        E 0 80 62 00
        E 180 90 1a 60
        E 0 90 1f 60
        E 0 90 3d 60
        E 0 90 3e 60
        E 0 90 49 60
        E 0 90 4a 60
        E 0 90 55 60
        E 0 90 56 60
        E 0 90 61 60
        E 0 90 62 60
        E 59 80 1f 00
        E 0 80 3e 00
        E 0 80 4a 00
        E 0 80 56 00
        E 0 80 62 00
        E 1 80 1a 00
        E 0 80 3d 00
        E 0 80 49 00
        E 0 80 55 00
        E 0 80 61 00
        E 180 90 1f 60
        E 0 90 56 60
        E 0 90 62 60
        E 60 80 1f 00
        E 0 80 56 00
        E 0 80 62 00
        E 180 90 1f 60
        E 0 90 3e 60
        E 0 90 4a 60
        E 0 90 56 60
        E 0 90 62 60
        E 61 80 1f 00
        E 0 80 3e 00
        E 0 80 4a 00
        E 0 80 56 00
        E 0 80 62 00
        E 179 90 1f 60
        E 0 90 56 60
        E 0 90 62 60
        E 59 80 1f 00
        E 0 80 56 00
        E 0 80 62 00
        E 181 90 1a 60
        E 0 90 1f 60
        E 0 90 3d 60
        E 0 90 3e 60
        E 0 90 49 60
        E 0 90 4a 60
        E 0 90 55 60
        E 0 90 56 60
        E 0 90 61 60
        E 0 90 62 60
        E 59 80 1f 00
        E 0 80 3e 00
        E 0 80 4a 00
        E 0 80 56 00
        E 0 80 62 00
        E 1 80 1a 00
        E 0 80 3d 00
        E 0 80 49 00
        E 0 80 55 00
        E 0 80 61 00
        E 180 90 1f 60
        E 0 90 56 60
        E 0 90 62 60
        E 60 80 1f 00
        E 0 80 56 00
        E 0 80 62 00
        E 180 90 18 60
        E 0 90 1f 60
        E 0 90 3e 60
        E 0 90 48 60
        E 0 90 4a 60
        E 0 90 54 60
        E 0 90 56 60
        E 0 90 60 60
        E 0 90 62 60
        E 60 80 18 00
        E 0 80 48 00
        E 0 80 54 00
        E 0 80 60 00
        E 1 80 1f 00
        E 0 80 3e 00
        E 0 80 4a 00
        E 0 80 56 00
        E 0 80 62 00
        E 179 90 18 60
        E 0 90 1f 60
        E 0 90 54 60
        E 0 90 56 60
        E 0 90 60 60
        E 0 90 62 60
        E 60 80 18 00
        E 0 80 1f 00
        E 0 80 54 00
        E 0 80 56 00
        E 0 80 60 00
        E 0 80 62 00
        E 180 90 1a 60
        E 0 90 1f 60
        E 0 90 3d 60
        E 0 90 3e 60
        E 0 90 49 60
        E 0 90 4a 60
        E 0 90 55 60
        E 0 90 56 60
        E 0 90 61 60
        E 0 90 62 60
        E 59 80 1f 00
        E 0 80 3e 00
        E 0 80 4a 00
        E 0 80 56 00
        E 0 80 62 00
        E 1 80 1a 00
        E 0 80 3d 00
        E 0 80 49 00
        E 0 80 55 00
        E 0 80 61 00
        E 180 90 1f 60
        E 0 90 56 60
        E 0 90 62 60
        E 60 80 1f 00
        E 0 80 56 00
        E 0 80 62 00
        E 180 90 1f 60
        E 0 90 3e 60
        E 0 90 4a 60
        E 0 90 56 60
        E 0 90 62 60
        E 61 80 1f 00
        E 0 80 3e 00
        E 0 80 4a 00
        E 0 80 56 00
        E 0 80 62 00
        E 179 90 1f 60
        E 0 90 56 60
        E 0 90 62 60
        E 59 80 1f 00
        E 0 80 56 00
        E 0 80 62 00
        E 181 90 1a 60
        E 0 90 1f 60
        E 0 90 3d 60
        E 0 90 3e 60
        E 0 90 49 60
        E 0 90 4a 60
        E 0 90 55 60
        E 0 90 56 60
        E 0 90 61 60
        E 0 90 62 60
        E 59 80 1f 00
        E 0 80 3e 00
        E 0 80 4a 00
        E 0 80 56 00
        E 0 80 62 00
        E 1 80 1a 00
        E 0 80 3d 00
        E 0 80 49 00
        E 0 80 55 00
        E 0 80 61 00
        E 180 90 1f 60
        E 0 90 56 60
        E 0 90 62 60
        E 60 80 1f 00
        E 0 80 56 00
        E 0 80 62 00
        E 180 90 18 60
        E 0 90 1f 60
        E 0 90 3e 60
        E 0 90 48 60
        E 0 90 4a 60
        E 0 90 54 60
        E 0 90 56 60
        E 0 90 60 60
        E 0 90 62 60
        E 60 80 18 00
        E 0 80 48 00
        E 0 80 54 00
        E 0 80 60 00
        E 1 80 1f 00
        E 0 80 3e 00
        E 0 80 4a 00
        E 0 80 56 00
        E 0 80 62 00
        E 179 90 18 60
        E 0 90 1f 60
        E 0 90 54 60
        E 0 90 56 60
        E 0 90 60 60
        E 0 90 62 60
        E 60 80 18 00
        E 0 80 1f 00
        E 0 80 54 00
        E 0 80 56 00
        E 0 80 60 00
        E 0 80 62 00
        E 180 90 1a 60
        E 0 90 1f 60
        E 0 90 3d 60
        E 0 90 3e 60
        E 0 90 49 60
        E 0 90 4a 60
        E 0 90 55 60
        E 0 90 56 60
        E 0 90 61 60
        E 0 90 62 60
        E 59 80 1f 00
        E 0 80 3e 00
        E 0 80 4a 00
        E 0 80 56 00
        E 0 80 62 00
        E 1 80 1a 00
        E 0 80 3d 00
        E 0 80 49 00
        E 0 80 55 00
        E 0 80 61 00
        E 180 90 1f 60
        E 0 90 56 60
        E 0 90 62 60
        E 60 80 1f 00
        E 0 80 56 00
        E 0 80 62 00
        E 180 90 1f 60
        E 0 90 3e 60
        E 0 90 4a 60
        E 0 90 56 60
        E 0 90 62 60
        E 61 80 1f 00
        E 0 80 3e 00
        E 0 80 4a 00
        E 0 80 56 00
        E 0 80 62 00
        E 179 90 1f 60
        E 0 90 56 60
        E 0 90 62 60
        E 59 80 1f 00
        E 0 80 56 00
        E 0 80 62 00
        E 181 90 1a 60
        E 0 90 1f 60
        E 0 90 3d 60
        E 0 90 3e 60
        E 0 90 49 60
        E 0 90 4a 60
        E 0 90 55 60
        E 0 90 56 60
        E 0 90 61 60
        E 0 90 62 60
        E 59 80 1f 00
        E 0 80 3e 00
        E 0 80 4a 00
        E 0 80 56 00
        E 0 80 62 00
        E 1 80 1a 00
        E 0 80 3d 00
        E 0 80 49 00
        E 0 80 55 00
        E 0 80 61 00
        E 180 90 1f 60
        E 0 90 56 60
        E 0 90 62 60
        E 60 80 1f 00
        E 0 80 56 00
        E 0 80 62 00
        E 180 90 18 60
        E 0 90 1f 60
        E 0 90 3e 60
        E 0 90 48 60
        E 0 90 4a 60
        E 0 90 54 60
        E 0 90 56 60
        E 0 90 60 60
        E 0 90 62 60
        E 60 80 18 00
        E 0 80 48 00
        E 0 80 54 00
        E 0 80 60 00
        E 1 80 1f 00
        E 0 80 3e 00
        E 0 80 4a 00
        E 0 80 56 00
        E 0 80 62 00
        E 179 90 18 60
        E 0 90 1f 60
        E 0 90 54 60
        E 0 90 56 60
        E 0 90 60 60
        E 0 90 62 60
        E 60 80 18 00
        E 0 80 1f 00
        E 0 80 54 00
        E 0 80 56 00
        E 0 80 60 00
        E 0 80 62 00
        E 180 90 1a 60
        E 0 90 1f 60
        E 0 90 3d 60
        E 0 90 3e 60
        E 0 90 49 60
        E 0 90 4a 60
        E 0 90 55 60
        E 0 90 56 60
        E 0 90 61 60
        E 0 90 62 60
        E 59 80 1f 00
        E 0 80 3e 00
        E 0 80 4a 00
        E 0 80 56 00
        E 0 80 62 00
        E 1 80 1a 00
        E 0 80 3d 00
        E 0 80 49 00
        E 0 80 55 00
        E 0 80 61 00
        E 180 90 1f 60
        E 0 90 56 60
        E 0 90 62 60
        E 60 80 1f 00
        E 0 80 56 00
        E 0 80 62 00
        E 180 90 18 60
        E 0 90 1f 60
        E 0 90 3e 60
        E 0 90 48 60
        E 0 90 4a 60
        E 0 90 54 60
        E 0 90 56 60
        E 0 90 60 60
        E 0 90 62 60
        E 0 90 78 60
        E 0 90 79 60
        E 0 90 7a 60
        E 0 90 7b 60
        E 0 90 7c 60
        E 60 80 18 00
        E 0 80 48 00
        E 0 80 54 00
        E 0 80 60 00
        E 1 80 1f 00
        E 0 80 3e 00
        E 0 80 4a 00
        E 0 80 56 00
        E 0 80 62 00
        E 179 90 18 60
        E 0 90 1f 60
        E 0 90 54 60
        E 0 90 56 60
        E 0 90 60 60
        E 0 90 62 60
        E 59 80 1f 00
        E 0 80 56 00
        E 0 80 62 00
        E 1 80 18 00
        E 0 80 54 00
        E 0 80 60 00
        E 180 90 1a 60
        E 0 90 1f 60
        E 0 90 3d 60
        E 0 90 3e 60
        E 0 90 49 60
        E 0 90 4a 60
        E 0 90 55 60
        E 0 90 56 60
        E 0 90 61 60
        E 0 90 62 60
        E 59 80 1f 00
        E 0 80 3e 00
        E 0 80 4a 00
        E 0 80 56 00
        E 0 80 62 00
        E 1 80 1a 00
        E 0 80 3d 00
        E 0 80 49 00
        E 0 80 55 00
        E 0 80 61 00
        E 180 90 1f 60
        E 0 90 56 60
        E 0 90 62 60
        E 60 80 1f 00
        E 0 80 56 00
        E 0 80 62 00
        E 180 80 78 00
        E 0 80 79 00
        E 0 80 7a 00
        E 0 80 7b 00
        E 0 80 7c 00
        E 0 90 18 60
        E 0 90 22 60
        E 0 90 26 60
        E 0 90 3e 60
        E 0 90 40 60
        E 0 90 48 60
        E 0 90 4a 60
        E 0 90 4c 60
        E 0 90 54 60
        E 0 90 56 60
        E 0 90 58 60
        E 0 90 60 60
        E 0 90 62 60
        E 0 90 64 60
        E 60 80 18 00
        E 0 80 22 00
        E 0 80 40 00
        E 0 80 48 00
        E 0 80 4c 00
        E 0 80 54 00
        E 0 80 58 00
        E 0 80 60 00
        E 0 80 64 00
        E 1 80 26 00
        E 0 80 3e 00
        E 0 80 4a 00
        E 0 80 56 00
        E 0 80 62 00
        E 179 90 1f 60
        E 0 90 56 60
        E 0 90 62 60
        E 60 80 1f 00
        E 0 80 56 00
        E 0 80 62 00
        E 180 90 1a 60
        E 0 90 1f 60
        E 0 90 3d 60
        E 0 90 3e 60
        E 0 90 49 60
        E 0 90 4a 60
        E 0 90 55 60
        E 0 90 56 60
        E 0 90 61 60
        E 0 90 62 60
        E 59 80 1f 00
        E 0 80 3e 00
        E 0 80 4a 00
        E 0 80 56 00
        E 0 80 62 00
        E 1 80 1a 00
        E 0 80 3d 00
        E 0 80 49 00
        E 0 80 55 00
        E 0 80 61 00
        E 180 90 18 60
        E 0 90 1f 60
        E 0 90 54 60
        E 0 90 56 60
        E 0 90 60 60
        E 0 90 62 60
        E 60 80 18 00
        E 0 80 1f 00
        E 0 80 54 00
        E 0 80 56 00
        E 0 80 60 00
        E 0 80 62 00
        E 180 90 18 60
        E 0 90 1f 60
        E 0 90 3e 60
        E 0 90 48 60
        E 0 90 4a 60
        E 0 90 54 60
        E 0 90 56 60
        E 0 90 60 60
        E 0 90 62 60
        E 60 80 18 00
        E 0 80 48 00
        E 0 80 54 00
        E 0 80 60 00
        E 1 80 1f 00
        E 0 80 3e 00
        E 0 80 4a 00
        E 0 80 56 00
        E 0 80 62 00
        E 179 90 1f 60
        E 0 90 56 60
        E 0 90 62 60
        E 59 80 1f 00
        E 0 80 56 00
        E 0 80 62 00
        E 181 90 1a 60
        E 0 90 1f 60
        E 0 90 3d 60
        E 0 90 3e 60
        E 0 90 49 60
        E 0 90 4a 60
        E 0 90 55 60
        E 0 90 56 60
        E 0 90 61 60
        E 0 90 62 60
        E 59 80 1f 00
        E 0 80 3e 00
        E 0 80 4a 00
        E 0 80 56 00
        E 0 80 62 00
        E 1 80 1a 00
        E 0 80 3d 00
        E 0 80 49 00
        E 0 80 55 00
        E 0 80 61 00
        E 180 90 1f 60
        E 0 90 56 60
        E 0 90 62 60
        E 60 80 1f 00
        E 0 80 56 00
        E 0 80 62 00
        E 180 90 18 60
        E 0 90 1f 60
        E 0 90 3e 60
        E 0 90 48 60
        E 0 90 4a 60
        E 0 90 54 60
        E 0 90 56 60
        E 0 90 60 60
        E 0 90 62 60
        E 60 80 18 00
        E 0 80 48 00
        E 0 80 54 00
        E 0 80 60 00
        E 1 80 1f 00
        E 0 80 3e 00
        E 0 80 4a 00
        E 0 80 56 00
        E 0 80 62 00
        E 179 90 1f 60
        E 0 90 56 60
        E 0 90 62 60
        E 60 80 1f 00
        E 0 80 56 00
        E 0 80 62 00
        E 180 90 1a 60
        E 0 90 1f 60
        E 0 90 3d 60
        E 0 90 3e 60
        E 0 90 49 60
        E 0 90 4a 60
        E 0 90 55 60
        E 0 90 56 60
        E 0 90 61 60
        E 0 90 62 60
        E 59 80 1f 00
        E 0 80 3e 00
        E 0 80 4a 00
        E 0 80 56 00
        E 0 80 62 00
        E 1 80 1a 00
        E 0 80 3d 00
        E 0 80 49 00
        E 0 80 55 00
        E 0 80 61 00
        E 180 90 18 60
        E 0 90 1f 60
        E 0 90 54 60
        E 0 90 56 60
        E 0 90 60 60
        E 0 90 62 60
        E 60 80 18 00
        E 0 80 1f 00
        E 0 80 54 00
        E 0 80 56 00
        E 0 80 60 00
        E 0 80 62 00
        E 180 90 18 60
        E 0 90 1f 60
        E 0 90 3e 60
        E 0 90 48 60
        E 0 90 4a 60
        E 0 90 54 60
        E 0 90 56 60
        E 0 90 60 60
        E 0 90 62 60
        E 60 80 18 00
        E 0 80 48 00
        E 0 80 54 00
        E 0 80 60 00
        E 1 80 1f 00
        E 0 80 3e 00
        E 0 80 4a 00
        E 0 80 56 00
        E 0 80 62 00
        E 179 90 1f 60
        E 0 90 56 60
        E 0 90 62 60
        E 59 80 1f 00
        E 0 80 56 00
        E 0 80 62 00
        E 181 90 1a 60
        E 0 90 1f 60
        E 0 90 3d 60
        E 0 90 3e 60
        E 0 90 49 60
        E 0 90 4a 60
        E 0 90 55 60
        E 0 90 56 60
        E 0 90 61 60
        E 0 90 62 60
        E 59 80 1f 00
        E 0 80 3e 00
        E 0 80 4a 00
        E 0 80 56 00
        E 0 80 62 00
        E 1 80 1a 00
        E 0 80 3d 00
        E 0 80 49 00
        E 0 80 55 00
        E 0 80 61 00
        E 180 90 1f 60
        E 0 90 56 60
        E 0 90 62 60
        E 60 80 1f 00
        E 0 80 56 00
        E 0 80 62 00
        E 180 90 18 60
        E 0 90 1f 60
        E 0 90 3e 60
        E 0 90 48 60
        E 0 90 4a 60
        E 0 90 54 60
        E 0 90 56 60
        E 0 90 60 60
        E 0 90 62 60
        E 60 80 18 00
        E 0 80 48 00
        E 0 80 54 00
        E 0 80 60 00
        E 1 80 1f 00
        E 0 80 3e 00
        E 0 80 4a 00
        E 0 80 56 00
        E 0 80 62 00
        E 179 90 1f 60
        E 0 90 56 60
        E 0 90 62 60
        E 60 80 1f 00
        E 0 80 56 00
        E 0 80 62 00
        E 180 90 1a 60
        E 0 90 1f 60
        E 0 90 3d 60
        E 0 90 3e 60
        E 0 90 49 60
        E 0 90 4a 60
        E 0 90 55 60
        E 0 90 56 60
        E 0 90 61 60
        E 0 90 62 60
        E 59 80 1f 00
        E 0 80 3e 00
        E 0 80 4a 00
        E 0 80 56 00
        E 0 80 62 00
        E 1 80 1a 00
        E 0 80 3d 00
        E 0 80 49 00
        E 0 80 55 00
        E 0 80 61 00
        E 180 90 18 60
        E 0 90 1f 60
        E 0 90 54 60
        E 0 90 56 60
        E 0 90 60 60
        E 0 90 62 60
        E 60 80 18 00
        E 0 80 1f 00
        E 0 80 54 00
        E 0 80 56 00
        E 0 80 60 00
        E 0 80 62 00
        E 180 90 18 60
        E 0 90 1f 60
        E 0 90 3e 60
        E 0 90 48 60
        E 0 90 4a 60
        E 0 90 54 60
        E 0 90 56 60
        E 0 90 60 60
        E 0 90 62 60
        E 60 80 18 00
        E 0 80 48 00
        E 0 80 54 00
        E 0 80 60 00
        E 1 80 1f 00
        E 0 80 3e 00
        E 0 80 4a 00
        E 0 80 56 00
        E 0 80 62 00
        E 179 90 1f 60
        E 0 90 56 60
        E 0 90 62 60
        E 59 80 1f 00
        E 0 80 56 00
        E 0 80 62 00
        E 181 90 1a 60
        E 0 90 1f 60
        E 0 90 3d 60
        E 0 90 3e 60
        E 0 90 49 60
        E 0 90 4a 60
        E 0 90 55 60
        E 0 90 56 60
        E 0 90 61 60
        E 0 90 62 60
        E 59 80 1f 00
        E 0 80 3e 00
        E 0 80 4a 00
        E 0 80 56 00
        E 0 80 62 00
        E 1 80 1a 00
        E 0 80 3d 00
        E 0 80 49 00
        E 0 80 55 00
        E 0 80 61 00
        E 180 90 1f 60
        E 0 90 56 60
        E 0 90 62 60
        E 60 80 1f 00
        E 0 80 56 00
        E 0 80 62 00
        E 180 90 18 60
        E 0 90 1f 60
        E 0 90 3e 60
        E 0 90 48 60
        E 0 90 4a 60
        E 0 90 54 60
        E 0 90 56 60
        E 0 90 60 60
        E 0 90 62 60
        E 60 80 18 00
        E 0 80 48 00
        E 0 80 54 00
        E 0 80 60 00
        E 1 80 1f 00
        E 0 80 3e 00
        E 0 80 4a 00
        E 0 80 56 00
        E 0 80 62 00
        E 179 90 1f 60
        E 0 90 56 60
        E 0 90 62 60
        E 60 80 1f 00
        E 0 80 56 00
        E 0 80 62 00
        E 180 90 1a 60
        E 0 90 1f 60
        E 0 90 3d 60
        E 0 90 3e 60
        E 0 90 49 60
        E 0 90 4a 60
        E 0 90 55 60
        E 0 90 56 60
        E 0 90 61 60
        E 0 90 62 60
        E 59 80 1f 00
        E 0 80 3e 00
        E 0 80 4a 00
        E 0 80 56 00
        E 0 80 62 00
        E 1 80 1a 00
        E 0 80 3d 00
        E 0 80 49 00
        E 0 80 55 00
        E 0 80 61 00
        E 180 90 18 60
        E 0 90 1f 60
        E 0 90 54 60
        E 0 90 56 60
        E 0 90 60 60
        E 0 90 62 60
        E 60 80 18 00
        E 0 80 1f 00
        E 0 80 54 00
        E 0 80 56 00
        E 0 80 60 00
        E 0 80 62 00
        E 180 90 18 60
        E 0 90 1f 60
        E 0 90 3e 60
        E 0 90 48 60
        E 0 90 4a 60
        E 0 90 54 60
        E 0 90 56 60
        E 0 90 60 60
        E 0 90 62 60
        E 60 80 18 00
        E 0 80 48 00
        E 0 80 54 00
        E 0 80 60 00
        E 1 80 1f 00
        E 0 80 3e 00
        E 0 80 4a 00
        E 0 80 56 00
        E 0 80 62 00
        E 179 90 1f 60
        E 0 90 56 60
        E 0 90 62 60
        E 59 80 1f 00
        E 0 80 56 00
        E 0 80 62 00
        E 181 90 1a 60
        E 0 90 1f 60
        E 0 90 3d 60
        E 0 90 3e 60
        E 0 90 49 60
        E 0 90 4a 60
        E 0 90 55 60
        E 0 90 56 60
        E 0 90 61 60
        E 0 90 62 60
        E 59 80 1f 00
        E 0 80 3e 00
        E 0 80 4a 00
        E 0 80 56 00
        E 0 80 62 00
        E 1 80 1a 00
        E 0 80 3d 00
        E 0 80 49 00
        E 0 80 55 00
        E 0 80 61 00
        E 180 90 1f 60
        E 0 90 56 60
        E 0 90 62 60
        E 60 80 1f 00
        E 0 80 56 00
        E 0 80 62 00
        E 180 90 18 60
        E 0 90 1f 60
        E 0 90 3e 60
        E 0 90 48 60
        E 0 90 4a 60
        E 0 90 54 60
        E 0 90 56 60
        E 0 90 60 60
        E 0 90 62 60
        E 60 80 18 00
        E 0 80 48 00
        E 0 80 54 00
        E 0 80 60 00
        E 1 80 1f 00
        E 0 80 3e 00
        E 0 80 4a 00
        E 0 80 56 00
        E 0 80 62 00
        E 179 90 1f 60
        E 0 90 56 60
        E 0 90 62 60
        E 60 80 1f 00
        E 0 80 56 00
        E 0 80 62 00
        E 180 90 1a 60
        E 0 90 1f 60
        E 0 90 3d 60
        E 0 90 3e 60
        E 0 90 49 60
        E 0 90 4a 60
        E 0 90 55 60
        E 0 90 56 60
        E 0 90 61 60
        E 0 90 62 60
        E 59 80 1f 00
        E 0 80 3e 00
        E 0 80 4a 00
        E 0 80 56 00
        E 0 80 62 00
        E 1 80 1a 00
        E 0 80 3d 00
        E 0 80 49 00
        E 0 80 55 00
        E 0 80 61 00
        E 180 90 18 60
        E 0 90 1f 60
        E 0 90 54 60
        E 0 90 56 60
        E 0 90 60 60
        E 0 90 62 60
        E 60 80 18 00
        E 0 80 1f 00
        E 0 80 54 00
        E 0 80 56 00
        E 0 80 60 00
        E 0 80 62 00
        E 180 90 18 60
        E 0 90 1f 60
        E 0 90 3e 60
        E 0 90 48 60
        E 0 90 4a 60
        E 0 90 54 60
        E 0 90 56 60
        E 0 90 60 60
        E 0 90 62 60
        E 60 80 18 00
        E 0 80 48 00
        E 0 80 54 00
        E 0 80 60 00
        E 1 80 1f 00
        E 0 80 3e 00
        E 0 80 4a 00
        E 0 80 56 00
        E 0 80 62 00
        E 179 90 1f 60
        E 0 90 56 60
        E 0 90 62 60
        E 59 80 1f 00
        E 0 80 56 00
        E 0 80 62 00
        E 181 90 1a 60
        E 0 90 1f 60
        E 0 90 3d 60
        E 0 90 3e 60
        E 0 90 49 60
        E 0 90 4a 60
        E 0 90 55 60
        E 0 90 56 60
        E 0 90 61 60
        E 0 90 62 60
        E 59 80 1f 00
        E 0 80 3e 00
        E 0 80 4a 00
        E 0 80 56 00
        E 0 80 62 00
        E 1 80 1a 00
        E 0 80 3d 00
        E 0 80 49 00
        E 0 80 55 00
        E 0 80 61 00
        E 180 90 1f 60
        E 0 90 56 60
        E 0 90 62 60
        E 60 80 1f 00
        E 0 80 56 00
        E 0 80 62 00
        E 180 90 18 60
        E 0 90 1f 60
        E 0 90 3e 60
        E 0 90 48 60
        E 0 90 4a 60
        E 0 90 54 60
        E 0 90 56 60
        E 0 90 60 60
        E 0 90 62 60
        E 60 80 18 00
        E 0 80 48 00
        E 0 80 54 00
        E 0 80 60 00
        E 1 80 1f 00
        E 0 80 3e 00
        E 0 80 4a 00
        E 0 80 56 00
        E 0 80 62 00
        E 179 90 1f 60
        E 0 90 56 60
        E 0 90 62 60
        E 60 80 1f 00
        E 0 80 56 00
        E 0 80 62 00
        E 180 90 1a 60
        E 0 90 1f 60
        E 0 90 3d 60
        E 0 90 3e 60
        E 0 90 49 60
        E 0 90 4a 60
        E 0 90 55 60
        E 0 90 56 60
        E 0 90 61 60
        E 0 90 62 60
        E 59 80 1f 00
        E 0 80 3e 00
        E 0 80 4a 00
        E 0 80 56 00
        E 0 80 62 00
        E 1 80 1a 00
        E 0 80 3d 00
        E 0 80 49 00
        E 0 80 55 00
        E 0 80 61 00
        E 180 90 18 60
        E 0 90 1f 60
        E 0 90 54 60
        E 0 90 56 60
        E 0 90 60 60
        E 0 90 62 60
        E 60 80 18 00
        E 0 80 1f 00
        E 0 80 54 00
        E 0 80 56 00
        E 0 80 60 00
        E 0 80 62 00
        E 180 90 18 60
        E 0 90 1f 60
        E 0 90 3e 60
        E 0 90 48 60
        E 0 90 4a 60
        E 0 90 54 60
        E 0 90 56 60
        E 0 90 60 60
        E 0 90 62 60
        E 60 80 18 00
        E 0 80 48 00
        E 0 80 54 00
        E 0 80 60 00
        E 1 80 1f 00
        E 0 80 3e 00
        E 0 80 4a 00
        E 0 80 56 00
        E 0 80 62 00
        E 179 90 1f 60
        E 0 90 56 60
        E 0 90 62 60
        E 59 80 1f 00
        E 0 80 56 00
        E 0 80 62 00
        E 181 90 1a 60
        E 0 90 1f 60
        E 0 90 3d 60
        E 0 90 3e 60
        E 0 90 49 60
        E 0 90 4a 60
        E 0 90 55 60
        E 0 90 56 60
        E 0 90 61 60
        E 0 90 62 60
        E 59 80 1f 00
        E 0 80 3e 00
        E 0 80 4a 00
        E 0 80 56 00
        E 0 80 62 00
        E 1 80 1a 00
        E 0 80 3d 00
        E 0 80 49 00
        E 0 80 55 00
        E 0 80 61 00
        E 180 90 1f 60
        E 0 90 56 60
        E 0 90 62 60
        E 60 80 1f 00
        E 0 80 56 00
        E 0 80 62 00
        E 180 90 18 60
        E 0 90 1f 60
        E 0 90 3e 60
        E 0 90 48 60
        E 0 90 4a 60
        E 0 90 54 60
        E 0 90 56 60
        E 0 90 60 60
        E 0 90 62 60
        E 60 80 18 00
        E 0 80 48 00
        E 0 80 54 00
        E 0 80 60 00
        E 1 80 1f 00
        E 0 80 3e 00
        E 0 80 4a 00
        E 0 80 56 00
        E 0 80 62 00
        E 179 90 1f 60
        E 0 90 56 60
        E 0 90 62 60
        E 60 80 1f 00
        E 0 80 56 00
        E 0 80 62 00
        E 180 90 1a 60
        E 0 90 1f 60
        E 0 90 3d 60
        E 0 90 3e 60
        E 0 90 49 60
        E 0 90 4a 60
        E 0 90 55 60
        E 0 90 56 60
        E 0 90 61 60
        E 0 90 62 60
        E 59 80 1f 00
        E 0 80 3e 00
        E 0 80 4a 00
        E 0 80 56 00
        E 0 80 62 00
        E 1 80 1a 00
        E 0 80 3d 00
        E 0 80 49 00
        E 0 80 55 00
        E 0 80 61 00
        E 180 90 18 60
        E 0 90 1f 60
        E 0 90 54 60
        E 0 90 56 60
        E 0 90 60 60
        E 0 90 62 60
        E 60 80 18 00
        E 0 80 1f 00
        E 0 80 54 00
        E 0 80 56 00
        E 0 80 60 00
        E 0 80 62 00
        E 180 90 18 60
        E 0 90 1f 60
        E 0 90 3e 60
        E 0 90 48 60
        E 0 90 4a 60
        E 0 90 54 60
        E 0 90 56 60
        E 0 90 60 60
        E 0 90 62 60
        E 60 80 18 00
        E 0 80 48 00
        E 0 80 54 00
        E 0 80 60 00
        E 1 80 1f 00
        E 0 80 3e 00
        E 0 80 4a 00
        E 0 80 56 00
        E 0 80 62 00
        E 179 90 1f 60
        E 0 90 56 60
        E 0 90 62 60
        E 59 80 1f 00
        E 0 80 56 00
        E 0 80 62 00
        E 181 90 1a 60
        E 0 90 1f 60
        E 0 90 3d 60
        E 0 90 3e 60
        E 0 90 49 60
        E 0 90 4a 60
        E 0 90 55 60
        E 0 90 56 60
        E 0 90 61 60
        E 0 90 62 60
        E 59 80 1f 00
        E 0 80 3e 00
        E 0 80 4a 00
        E 0 80 56 00
        E 0 80 62 00
        E 1 80 1a 00
        E 0 80 3d 00
        E 0 80 49 00
        E 0 80 55 00
        E 0 80 61 00
        E 180 90 1f 60
        E 0 90 56 60
        E 0 90 62 60
        E 60 80 1f 00
        E 0 80 56 00
        E 0 80 62 00
        E 180 90 18 60
        E 0 90 1f 60
        E 0 90 3e 60
        E 0 90 48 60
        E 0 90 4a 60
        E 0 90 54 60
        E 0 90 56 60
        E 0 90 60 60
        E 0 90 62 60
        E 59 80 1f 00
        E 0 80 3e 00
        E 0 80 4a 00
        E 0 80 56 00
        E 0 80 62 00
        E 1 80 18 00
        E 0 80 48 00
        E 0 80 54 00
        E 0 80 60 00
        E 180 90 1f 60
        E 0 90 56 60
        E 0 90 62 60
        E 59 80 1f 00
        E 0 80 56 00
        E 0 80 62 00
        E 181 90 1a 60
        E 0 90 1f 60
        E 0 90 3d 60
        E 0 90 3e 60
        E 0 90 49 60
        E 0 90 4a 60
        E 0 90 55 60
        E 0 90 56 60
        E 0 90 61 60
        E 0 90 62 60
        E 60 80 1a 00
        E 0 80 1f 00
        E 0 80 3d 00
        E 0 80 3e 00
        E 0 80 49 00
        E 0 80 4a 00
        E 0 80 55 00
        E 0 80 56 00
        E 0 80 61 00
        E 0 80 62 00
        E 180 90 1f 60
        E 0 90 56 60
        E 0 90 62 60
        E 60 80 1f 00
        E 0 80 56 00
        E 0 80 62 00
        E 60 90 1a 60
        E 0 90 61 60
        E 0 90 74 60
        E 60 80 1a 00
        E 0 80 61 00
        E 60 90 1b 60
        E 0 90 3d 60
        E 0 90 49 60
        E 0 90 55 60
        E 0 90 61 60
        E 60 80 1b 00
        E 0 80 3d 00
        E 0 80 49 00
        E 0 80 55 00
        E 0 80 61 00
        E 60 90 1a 60
        E 0 90 61 60
        E 60 80 1a 00
        E 0 80 61 00
        E 60 90 1b 60
        E 0 90 55 60
        E 0 90 61 60
        E 60 80 1b 00
        E 0 80 55 00
        E 0 80 61 00
        E 60 90 1a 60
        E 0 90 61 60
        E 60 80 1a 00
        E 0 80 61 00
        E 60 90 1b 60
        E 0 90 3d 60
        E 0 90 49 60
        E 0 90 55 60
        E 0 90 61 60
        E 60 80 1b 00
        E 0 80 3d 00
        E 0 80 49 00
        E 0 80 55 00
        E 0 80 61 00
        E 60 90 1a 60
        E 0 90 61 60
        E 60 80 1a 00
        E 0 80 61 00
        E 60 90 1b 60
        E 0 90 55 60
        E 0 90 61 60
        E 60 80 1b 00
        E 0 80 55 00
        E 0 80 61 00
        E 60 90 1a 60
        E 0 90 61 60
        E 60 80 1a 00
        E 0 80 61 00
        E 60 90 18 60
        E 0 90 26 60
        E 0 90 40 60
        E 0 90 48 60
        E 0 90 4c 60
        E 0 90 54 60
        E 0 90 58 60
        E 0 90 60 60
        E 0 90 64 60
        E 60 80 74 00
        E 0 80 18 00
        E 0 80 26 00
        E 0 80 40 00
        E 0 80 48 00
        E 0 80 4c 00
        E 0 80 54 00
        E 0 80 58 00
        E 0 80 60 00
        E 0 80 64 00
        E 180 90 2a 60
        E 0 90 57 60
        E 0 90 63 60
        E 60 80 2a 00
        E 0 80 57 00
        E 0 80 63 00
        E 180 90 1a 60
        E 0 90 2a 60
        E 0 90 3d 60
        E 0 90 3f 60
        E 0 90 49 60
        E 0 90 4b 60
        E 0 90 55 60
        E 0 90 57 60
        E 0 90 61 60
        E 0 90 63 60
        E 59 80 2a 00
        E 0 80 3f 00
        E 0 80 4b 00
        E 0 80 57 00
        E 0 80 63 00
        E 1 80 1a 00
        E 0 80 3d 00
        E 0 80 49 00
        E 0 80 55 00
        E 0 80 61 00
        E 180 90 18 60
        E 0 90 2a 60
        E 0 90 54 60
        E 0 90 57 60
        E 0 90 60 60
        E 0 90 63 60
        E 60 80 18 00
        E 0 80 2a 00
        E 0 80 54 00
        E 0 80 57 00
        E 0 80 60 00
        E 0 80 63 00
        E 180 90 18 60
        E 0 90 2a 60
        E 0 90 3f 60
        E 0 90 48 60
        E 0 90 4b 60
        E 0 90 54 60
        E 0 90 57 60
        E 0 90 60 60
        E 0 90 63 60
        E 60 80 18 00
        E 0 80 48 00
        E 0 80 54 00
        E 0 80 60 00
        E 1 80 2a 00
        E 0 80 3f 00
        E 0 80 4b 00
        E 0 80 57 00
        E 0 80 63 00
        E 179 90 2a 60
        E 0 90 57 60
        E 0 90 63 60
        E 59 80 2a 00
        E 0 80 57 00
        E 0 80 63 00
        E 181 90 1a 60
        E 0 90 2a 60
        E 0 90 3d 60
        E 0 90 3f 60
        E 0 90 49 60
        E 0 90 4b 60
        E 0 90 55 60
        E 0 90 57 60
        E 0 90 61 60
        E 0 90 63 60
        E 59 80 2a 00
        E 0 80 3f 00
        E 0 80 4b 00
        E 0 80 57 00
        E 0 80 63 00
        E 1 80 1a 00
        E 0 80 3d 00
        E 0 80 49 00
        E 0 80 55 00
        E 0 80 61 00
        E 180 90 2a 60
        E 0 90 57 60
        E 0 90 63 60
        E 60 80 2a 00
        E 0 80 57 00
        E 0 80 63 00
        E 180 90 18 60
        E 0 90 2a 60
        E 0 90 3f 60
        E 0 90 48 60
        E 0 90 4b 60
        E 0 90 54 60
        E 0 90 57 60
        E 0 90 60 60
        E 0 90 63 60
        E 60 80 18 00
        E 0 80 48 00
        E 0 80 54 00
        E 0 80 60 00
        E 1 80 2a 00
        E 0 80 3f 00
        E 0 80 4b 00
        E 0 80 57 00
        E 0 80 63 00
        E 179 90 2a 60
        E 0 90 57 60
        E 0 90 63 60
        E 60 80 2a 00
        E 0 80 57 00
        E 0 80 63 00
        E 180 90 1a 60
        E 0 90 2a 60
        E 0 90 3d 60
        E 0 90 3f 60
        E 0 90 49 60
        E 0 90 4b 60
        E 0 90 55 60
        E 0 90 57 60
        E 0 90 61 60
        E 0 90 63 60
        E 59 80 2a 00
        E 0 80 3f 00
        E 0 80 4b 00
        E 0 80 57 00
        E 0 80 63 00
        E 1 80 1a 00
        E 0 80 3d 00
        E 0 80 49 00
        E 0 80 55 00
        E 0 80 61 00
        E 180 90 18 60
        E 0 90 2a 60
        E 0 90 54 60
        E 0 90 57 60
        E 0 90 60 60
        E 0 90 63 60
        E 60 80 18 00
        E 0 80 2a 00
        E 0 80 54 00
        E 0 80 57 00
        E 0 80 60 00
        E 0 80 63 00
        E 180 90 18 60
        E 0 90 2a 60
        E 0 90 3f 60
        E 0 90 48 60
        E 0 90 4b 60
        E 0 90 54 60
        E 0 90 57 60
        E 0 90 60 60
        E 0 90 63 60
        E 60 80 18 00
        E 0 80 48 00
        E 0 80 54 00
        E 0 80 60 00
        E 1 80 2a 00
        E 0 80 3f 00
        E 0 80 4b 00
        E 0 80 57 00
        E 0 80 63 00
        E 179 90 2a 60
        E 0 90 57 60
        E 0 90 63 60
        E 59 80 2a 00
        E 0 80 57 00
        E 0 80 63 00
        E 181 90 1a 60
        E 0 90 2a 60
        E 0 90 3d 60
        E 0 90 3f 60
        E 0 90 49 60
        E 0 90 4b 60
        E 0 90 55 60
        E 0 90 57 60
        E 0 90 61 60
        E 0 90 63 60
        E 59 80 2a 00
        E 0 80 3f 00
        E 0 80 4b 00
        E 0 80 57 00
        E 0 80 63 00
        E 1 80 1a 00
        E 0 80 3d 00
        E 0 80 49 00
        E 0 80 55 00
        E 0 80 61 00
        E 180 90 2a 60
        E 0 90 57 60
        E 0 90 63 60
        E 60 80 2a 00
        E 0 80 57 00
        E 0 80 63 00
        E 108 90 74 12
        E 72 90 18 60
        E 0 90 2a 60
        E 0 90 3f 60
        E 0 90 48 60
        E 0 90 4b 60
        E 0 90 54 60
        E 0 90 57 60
        E 0 90 60 60
        E 0 90 63 60
        E 60 80 18 00
        E 0 80 48 00
        E 0 80 54 00
        E 0 80 60 00
        E 1 80 2a 00
        E 0 80 3f 00
        E 0 80 4b 00
        E 0 80 57 00
        E 0 80 63 00
        E 179 90 2a 60
        E 0 90 57 60
        E 0 90 63 60
        E 60 80 2a 00
        E 0 80 57 00
        E 0 80 63 00
        E 180 90 1a 60
        E 0 90 2a 60
        E 0 90 3d 60
        E 0 90 3f 60
        E 0 90 49 60
        E 0 90 4b 60
        E 0 90 55 60
        E 0 90 57 60
        E 0 90 61 60
        E 0 90 63 60
        E 59 80 2a 00
        E 0 80 3f 00
        E 0 80 4b 00
        E 0 80 57 00
        E 0 80 63 00
        E 1 80 1a 00
        E 0 80 3d 00
        E 0 80 49 00
        E 0 80 55 00
        E 0 80 61 00
        E 180 90 18 60
        E 0 90 2a 60
        E 0 90 54 60
        E 0 90 57 60
        E 0 90 60 60
        E 0 90 63 60
        E 60 80 18 00
        E 0 80 2a 00
        E 0 80 54 00
        E 0 80 57 00
        E 0 80 60 00
        E 0 80 63 00
        E 180 90 18 60
        E 0 90 2a 60
        E 0 90 3f 60
        E 0 90 48 60
        E 0 90 4b 60
        E 0 90 54 60
        E 0 90 57 60
        E 0 90 60 60
        E 0 90 63 60
        E 60 80 18 00
        E 0 80 48 00
        E 0 80 54 00
        E 0 80 60 00
        E 1 80 2a 00
        E 0 80 3f 00
        E 0 80 4b 00
        E 0 80 57 00
        E 0 80 63 00
        E 179 90 2a 60
        E 0 90 57 60
        E 0 90 63 60
        E 59 80 2a 00
        E 0 80 57 00
        E 0 80 63 00
        E 181 90 1a 60
        E 0 90 2a 60
        E 0 90 3d 60
        E 0 90 3f 60
        E 0 90 49 60
        E 0 90 4b 60
        E 0 90 55 60
        E 0 90 57 60
        E 0 90 61 60
        E 0 90 63 60
        E 59 80 2a 00
        E 0 80 3f 00
        E 0 80 4b 00
        E 0 80 57 00
        E 0 80 63 00
        E 1 80 1a 00
        E 0 80 3d 00
        E 0 80 49 00
        E 0 80 55 00
        E 0 80 61 00
        E 180 90 2a 60
        E 0 90 57 60
        E 0 90 63 60
        E 60 80 2a 00
        E 0 80 57 00
        E 0 80 63 00
        E 180 90 18 60
        E 0 90 2a 60
        E 0 90 3f 60
        E 0 90 48 60
        E 0 90 4b 60
        E 0 90 54 60
        E 0 90 57 60
        E 0 90 60 60
        E 0 90 63 60
        E 60 80 18 00
        E 0 80 48 00
        E 0 80 54 00
        E 0 80 60 00
        E 1 80 2a 00
        E 0 80 3f 00
        E 0 80 4b 00
        E 0 80 57 00
        E 0 80 63 00
        E 179 90 2a 60
        E 0 90 57 60
        E 0 90 63 60
        E 60 80 2a 00
        E 0 80 57 00
        E 0 80 63 00
        E 180 90 1a 60
        E 0 90 2a 60
        E 0 90 3d 60
        E 0 90 3f 60
        E 0 90 49 60
        E 0 90 4b 60
        E 0 90 55 60
        E 0 90 57 60
        E 0 90 61 60
        E 0 90 63 60
        E 59 80 2a 00
        E 0 80 3f 00
        E 0 80 4b 00
        E 0 80 57 00
        E 0 80 63 00
        E 1 80 1a 00
        E 0 80 3d 00
        E 0 80 49 00
        E 0 80 55 00
        E 0 80 61 00
        E 180 90 18 60
        E 0 90 2a 60
        E 0 90 54 60
        E 0 90 57 60
        E 0 90 60 60
        E 0 90 63 60
        E 60 80 18 00
        E 0 80 2a 00
        E 0 80 54 00
        E 0 80 57 00
        E 0 80 60 00
        E 0 80 63 00
        E 180 90 18 60
        E 0 90 2a 60
        E 0 90 3f 60
        E 0 90 48 60
        E 0 90 4b 60
        E 0 90 54 60
        E 0 90 57 60
        E 0 90 60 60
        E 0 90 63 60
        E 60 80 18 00
        E 0 80 48 00
        E 0 80 54 00
        E 0 80 60 00
        E 1 80 2a 00
        E 0 80 3f 00
        E 0 80 4b 00
        E 0 80 57 00
        E 0 80 63 00
        E 179 90 2a 60
        E 0 90 57 60
        E 0 90 63 60
        E 59 80 2a 00
        E 0 80 57 00
        E 0 80 63 00
        E 181 90 1a 60
        E 0 90 2a 60
        E 0 90 3d 60
        E 0 90 3f 60
        E 0 90 49 60
        E 0 90 4b 60
        E 0 90 55 60
        E 0 90 57 60
        E 0 90 61 60
        E 0 90 63 60
        E 59 80 2a 00
        E 0 80 3f 00
        E 0 80 4b 00
        E 0 80 57 00
        E 0 80 63 00
        E 1 80 1a 00
        E 0 80 3d 00
        E 0 80 49 00
        E 0 80 55 00
        E 0 80 61 00
        E 180 90 2a 60
        E 0 90 57 60
        E 0 90 63 60
        E 48 80 74 00
        E 12 80 2a 00
        E 0 80 57 00
        E 0 80 63 00
        E 180 90 18 60
        E 0 90 2a 60
        E 0 90 3f 60
        E 0 90 48 60
        E 0 90 4b 60
        E 0 90 54 60
        E 0 90 57 60
        E 0 90 60 60
        E 0 90 63 60
        E 60 80 18 00
        E 0 80 48 00
        E 0 80 54 00
        E 0 80 60 00
        E 1 80 2a 00
        E 0 80 3f 00
        E 0 80 4b 00
        E 0 80 57 00
        E 0 80 63 00
        E 179 90 2a 60
        E 0 90 57 60
        E 0 90 63 60
        E 60 80 2a 00
        E 0 80 57 00
        E 0 80 63 00
        E 180 90 1a 60
        E 0 90 2a 60
        E 0 90 3d 60
        E 0 90 3f 60
        E 0 90 49 60
        E 0 90 4b 60
        E 0 90 55 60
        E 0 90 57 60
        E 0 90 61 60
        E 0 90 63 60
        E 59 80 2a 00
        E 0 80 3f 00
        E 0 80 4b 00
        E 0 80 57 00
        E 0 80 63 00
        E 1 80 1a 00
        E 0 80 3d 00
        E 0 80 49 00
        E 0 80 55 00
        E 0 80 61 00
        E 180 90 18 60
        E 0 90 2a 60
        E 0 90 54 60
        E 0 90 57 60
        E 0 90 60 60
        E 0 90 63 60
        E 60 80 18 00
        E 0 80 2a 00
        E 0 80 54 00
        E 0 80 57 00
        E 0 80 60 00
        E 0 80 63 00
        E 180 90 18 60
        E 0 90 2a 60
        E 0 90 3f 60
        E 0 90 48 60
        E 0 90 4b 60
        E 0 90 54 60
        E 0 90 57 60
        E 0 90 60 60
        E 0 90 63 60
        E 60 80 18 00
        E 0 80 48 00
        E 0 80 54 00
        E 0 80 60 00
        E 1 80 2a 00
        E 0 80 3f 00
        E 0 80 4b 00
        E 0 80 57 00
        E 0 80 63 00
        E 179 90 2a 60
        E 0 90 57 60
        E 0 90 63 60
        E 59 80 2a 00
        E 0 80 57 00
        E 0 80 63 00
        E 181 90 1a 60
        E 0 90 2a 60
        E 0 90 3d 60
        E 0 90 3f 60
        E 0 90 49 60
        E 0 90 4b 60
        E 0 90 55 60
        E 0 90 57 60
        E 0 90 61 60
        E 0 90 63 60
        E 59 80 2a 00
        E 0 80 3f 00
        E 0 80 4b 00
        E 0 80 57 00
        E 0 80 63 00
        E 1 80 1a 00
        E 0 80 3d 00
        E 0 80 49 00
        E 0 80 55 00
        E 0 80 61 00
        E 180 90 2a 60
        E 0 90 57 60
        E 0 90 63 60
        E 60 80 2a 00
        E 0 80 57 00
        E 0 80 63 00
        E 180 90 18 60
        E 0 90 2a 60
        E 0 90 3f 60
        E 0 90 48 60
        E 0 90 4b 60
        E 0 90 54 60
        E 0 90 57 60
        E 0 90 60 60
        E 0 90 63 60
        E 60 80 18 00
        E 0 80 48 00
        E 0 80 54 00
        E 0 80 60 00
        E 1 80 2a 00
        E 0 80 3f 00
        E 0 80 4b 00
        E 0 80 57 00
        E 0 80 63 00
        E 179 90 2a 60
        E 0 90 57 60
        E 0 90 63 60
        E 60 80 2a 00
        E 0 80 57 00
        E 0 80 63 00
        E 180 90 1a 60
        E 0 90 2a 60
        E 0 90 3d 60
        E 0 90 3f 60
        E 0 90 49 60
        E 0 90 4b 60
        E 0 90 55 60
        E 0 90 57 60
        E 0 90 61 60
        E 0 90 63 60
        E 59 80 2a 00
        E 0 80 3f 00
        E 0 80 4b 00
        E 0 80 57 00
        E 0 80 63 00
        E 1 80 1a 00
        E 0 80 3d 00
        E 0 80 49 00
        E 0 80 55 00
        E 0 80 61 00
        E 180 90 18 60
        E 0 90 2a 60
        E 0 90 54 60
        E 0 90 57 60
        E 0 90 60 60
        E 0 90 63 60
        E 60 80 18 00
        E 0 80 2a 00
        E 0 80 54 00
        E 0 80 57 00
        E 0 80 60 00
        E 0 80 63 00
        E 180 90 18 60
        E 0 90 2a 60
        E 0 90 3f 60
        E 0 90 48 60
        E 0 90 4b 60
        E 0 90 54 60
        E 0 90 57 60
        E 0 90 60 60
        E 0 90 63 60
        E 60 80 18 00
        E 0 80 48 00
        E 0 80 54 00
        E 0 80 60 00
        E 1 80 2a 00
        E 0 80 3f 00
        E 0 80 4b 00
        E 0 80 57 00
        E 0 80 63 00
        E 179 90 2a 60
        E 0 90 57 60
        E 0 90 63 60
        E 59 80 2a 00
        E 0 80 57 00
        E 0 80 63 00
        E 181 90 1a 60
        E 0 90 2a 60
        E 0 90 3d 60
        E 0 90 3f 60
        E 0 90 49 60
        E 0 90 4b 60
        E 0 90 55 60
        E 0 90 57 60
        E 0 90 61 60
        E 0 90 63 60
        E 59 80 2a 00
        E 0 80 3f 00
        E 0 80 4b 00
        E 0 80 57 00
        E 0 80 63 00
        E 1 80 1a 00
        E 0 80 3d 00
        E 0 80 49 00
        E 0 80 55 00
        E 0 80 61 00
        E 180 90 2a 60
        E 0 90 57 60
        E 0 90 63 60
        E 60 80 2a 00
        E 0 80 57 00
        E 0 80 63 00
        E 180 90 18 60
        E 0 90 2a 60
        E 0 90 3f 60
        E 0 90 48 60
        E 0 90 4b 60
        E 0 90 54 60
        E 0 90 57 60
        E 0 90 60 60
        E 0 90 63 60
        E 60 80 18 00
        E 0 80 48 00
        E 0 80 54 00
        E 0 80 60 00
        E 1 80 2a 00
        E 0 80 3f 00
        E 0 80 4b 00
        E 0 80 57 00
        E 0 80 63 00
        E 179 90 2a 60
        E 0 90 57 60
        E 0 90 63 60
        E 60 80 2a 00
        E 0 80 57 00
        E 0 80 63 00
        E 180 90 1a 60
        E 0 90 2a 60
        E 0 90 3d 60
        E 0 90 3f 60
        E 0 90 49 60
        E 0 90 4b 60
        E 0 90 55 60
        E 0 90 57 60
        E 0 90 61 60
        E 0 90 63 60
        E 59 80 2a 00
        E 0 80 3f 00
        E 0 80 4b 00
        E 0 80 57 00
        E 0 80 63 00
        E 1 80 1a 00
        E 0 80 3d 00
        E 0 80 49 00
        E 0 80 55 00
        E 0 80 61 00
        E 180 90 18 60
        E 0 90 2a 60
        E 0 90 54 60
        E 0 90 57 60
        E 0 90 60 60
        E 0 90 63 60
        E 60 80 18 00
        E 0 80 2a 00
        E 0 80 54 00
        E 0 80 57 00
        E 0 80 60 00
        E 0 80 63 00
        E 180 90 18 60
        E 0 90 2a 60
        E 0 90 3f 60
        E 0 90 48 60
        E 0 90 4b 60
        E 0 90 54 60
        E 0 90 57 60
        E 0 90 60 60
        E 0 90 63 60
        E 60 80 18 00
        E 0 80 48 00
        E 0 80 54 00
        E 0 80 60 00
        E 1 80 2a 00
        E 0 80 3f 00
        E 0 80 4b 00
        E 0 80 57 00
        E 0 80 63 00
        E 179 90 2a 60
        E 0 90 57 60
        E 0 90 63 60
        E 59 80 2a 00
        E 0 80 57 00
        E 0 80 63 00
        E 181 90 1a 60
        E 0 90 2a 60
        E 0 90 3d 60
        E 0 90 3f 60
        E 0 90 49 60
        E 0 90 4b 60
        E 0 90 55 60
        E 0 90 57 60
        E 0 90 61 60
        E 0 90 63 60
        E 59 80 2a 00
        E 0 80 3f 00
        E 0 80 4b 00
        E 0 80 57 00
        E 0 80 63 00
        E 1 80 1a 00
        E 0 80 3d 00
        E 0 80 49 00
        E 0 80 55 00
        E 0 80 61 00
        E 180 90 2a 60
        E 0 90 57 60
        E 0 90 63 60
        E 60 80 2a 00
        E 0 80 57 00
        E 0 80 63 00
        E 180 90 18 60
        E 0 90 2a 60
        E 0 90 3f 60
        E 0 90 48 60
        E 0 90 4b 60
        E 0 90 54 60
        E 0 90 57 60
        E 0 90 60 60
        E 0 90 63 60
        E 60 80 18 00
        E 0 80 48 00
        E 0 80 54 00
        E 0 80 60 00
        E 1 80 2a 00
        E 0 80 3f 00
        E 0 80 4b 00
        E 0 80 57 00
        E 0 80 63 00
        E 179 90 2a 60
        E 0 90 57 60
        E 0 90 63 60
        E 60 80 2a 00
        E 0 80 57 00
        E 0 80 63 00
        E 180 90 1a 60
        E 0 90 2a 60
        E 0 90 3d 60
        E 0 90 3f 60
        E 0 90 49 60
        E 0 90 4b 60
        E 0 90 55 60
        E 0 90 57 60
        E 0 90 61 60
        E 0 90 63 60
        E 59 80 2a 00
        E 0 80 3f 00
        E 0 80 4b 00
        E 0 80 57 00
        E 0 80 63 00
        E 1 80 1a 00
        E 0 80 3d 00
        E 0 80 49 00
        E 0 80 55 00
        E 0 80 61 00
        E 180 90 18 60
        E 0 90 2a 60
        E 0 90 54 60
        E 0 90 57 60
        E 0 90 60 60
        E 0 90 63 60
        E 60 80 18 00
        E 0 80 2a 00
        E 0 80 54 00
        E 0 80 57 00
        E 0 80 60 00
        E 0 80 63 00
        E 180 90 18 60
        E 0 90 2a 60
        E 0 90 3f 60
        E 0 90 48 60
        E 0 90 4b 60
        E 0 90 54 60
        E 0 90 57 60
        E 0 90 60 60
        E 0 90 63 60
        E 0 90 78 60
        E 0 90 79 60
        E 0 90 7a 60
        E 0 90 7b 60
        E 0 90 7c 60
        E 60 80 18 00
        E 0 80 48 00
        E 0 80 54 00
        E 0 80 60 00
        E 1 80 2a 00
        E 0 80 3f 00
        E 0 80 4b 00
        E 0 80 57 00
        E 0 80 63 00
        E 179 90 2a 60
        E 0 90 57 60
        E 0 90 63 60
        E 59 80 2a 00
        E 0 80 57 00
        E 0 80 63 00
        E 181 90 1a 60
        E 0 90 2a 60
        E 0 90 3d 60
        E 0 90 3f 60
        E 0 90 49 60
        E 0 90 4b 60
        E 0 90 55 60
        E 0 90 57 60
        E 0 90 61 60
        E 0 90 63 60
        E 59 80 2a 00
        E 0 80 3f 00
        E 0 80 4b 00
        E 0 80 57 00
        E 0 80 63 00
        E 1 80 1a 00
        E 0 80 3d 00
        E 0 80 49 00
        E 0 80 55 00
        E 0 80 61 00
        E 180 90 2a 60
        E 0 90 57 60
        E 0 90 63 60
        E 60 80 2a 00
        E 0 80 57 00
        E 0 80 63 00
        E 180 80 78 00
        E 0 80 79 00
        E 0 80 7a 00
        E 0 80 7b 00
        E 0 80 7c 00
        E 0 90 18 60
        E 0 90 22 60
        E 0 90 26 60
        E 0 90 3f 60
        E 0 90 40 60
        E 0 90 48 60
        E 0 90 4b 60
        E 0 90 4c 60
        E 0 90 54 60
        E 0 90 57 60
        E 0 90 58 60
        E 0 90 60 60
        E 0 90 63 60
        E 0 90 64 60
        E 60 80 18 00
        E 0 80 26 00
        E 0 80 40 00
        E 0 80 48 00
        E 0 80 4c 00
        E 0 80 54 00
        E 0 80 58 00
        E 0 80 60 00
        E 0 80 64 00
        E 1 80 22 00
        E 0 80 3f 00
        E 0 80 4b 00
        E 0 80 57 00
        E 0 80 63 00
        E 179 90 2a 60
        E 0 90 57 60
        E 0 90 63 60
        E 60 80 2a 00
        E 0 80 57 00
        E 0 80 63 00
        E 180 90 1a 60
        E 0 90 2a 60
        E 0 90 3d 60
        E 0 90 3f 60
        E 0 90 49 60
        E 0 90 4b 60
        E 0 90 55 60
        E 0 90 57 60
        E 0 90 61 60
        E 0 90 63 60
        E 59 80 2a 00
        E 0 80 3f 00
        E 0 80 4b 00
        E 0 80 57 00
        E 0 80 63 00
        E 1 80 1a 00
        E 0 80 3d 00
        E 0 80 49 00
        E 0 80 55 00
        E 0 80 61 00
        E 180 90 18 60
        E 0 90 2a 60
        E 0 90 54 60
        E 0 90 57 60
        E 0 90 60 60
        E 0 90 63 60
        E 60 80 18 00
        E 0 80 2a 00
        E 0 80 54 00
        E 0 80 57 00
        E 0 80 60 00
        E 0 80 63 00
        E 180 90 18 60
        E 0 90 2a 60
        E 0 90 3f 60
        E 0 90 48 60
        E 0 90 4b 60
        E 0 90 54 60
        E 0 90 57 60
        E 0 90 60 60
        E 0 90 63 60
        E 60 80 18 00
        E 0 80 48 00
        E 0 80 54 00
        E 0 80 60 00
        E 1 80 2a 00
        E 0 80 3f 00
        E 0 80 4b 00
        E 0 80 57 00
        E 0 80 63 00
        E 179 90 2a 60
        E 0 90 57 60
        E 0 90 63 60
        E 59 80 2a 00
        E 0 80 57 00
        E 0 80 63 00
        E 181 90 1a 60
        E 0 90 2a 60
        E 0 90 3d 60
        E 0 90 3f 60
        E 0 90 49 60
        E 0 90 4b 60
        E 0 90 55 60
        E 0 90 57 60
        E 0 90 61 60
        E 0 90 63 60
        E 59 80 2a 00
        E 0 80 3f 00
        E 0 80 4b 00
        E 0 80 57 00
        E 0 80 63 00
        E 1 80 1a 00
        E 0 80 3d 00
        E 0 80 49 00
        E 0 80 55 00
        E 0 80 61 00
        E 180 90 2a 60
        E 0 90 57 60
        E 0 90 63 60
        E 60 80 2a 00
        E 0 80 57 00
        E 0 80 63 00
        E 180 90 18 60
        E 0 90 2a 60
        E 0 90 3f 60
        E 0 90 48 60
        E 0 90 4b 60
        E 0 90 54 60
        E 0 90 57 60
        E 0 90 60 60
        E 0 90 63 60
        E 60 80 18 00
        E 0 80 48 00
        E 0 80 54 00
        E 0 80 60 00
        E 1 80 2a 00
        E 0 80 3f 00
        E 0 80 4b 00
        E 0 80 57 00
        E 0 80 63 00
        E 179 90 2a 60
        E 0 90 57 60
        E 0 90 63 60
        E 60 80 2a 00
        E 0 80 57 00
        E 0 80 63 00
        E 180 90 1a 60
        E 0 90 2a 60
        E 0 90 3d 60
        E 0 90 3f 60
        E 0 90 49 60
        E 0 90 4b 60
        E 0 90 55 60
        E 0 90 57 60
        E 0 90 61 60
        E 0 90 63 60
        E 59 80 2a 00
        E 0 80 3f 00
        E 0 80 4b 00
        E 0 80 57 00
        E 0 80 63 00
        E 1 80 1a 00
        E 0 80 3d 00
        E 0 80 49 00
        E 0 80 55 00
        E 0 80 61 00
        E 180 90 18 60
        E 0 90 2a 60
        E 0 90 54 60
        E 0 90 57 60
        E 0 90 60 60
        E 0 90 63 60
        E 60 80 18 00
        E 0 80 2a 00
        E 0 80 54 00
        E 0 80 57 00
        E 0 80 60 00
        E 0 80 63 00
        E 180 90 18 60
        E 0 90 2a 60
        E 0 90 3f 60
        E 0 90 48 60
        E 0 90 4b 60
        E 0 90 54 60
        E 0 90 57 60
        E 0 90 60 60
        E 0 90 63 60
        E 60 80 18 00
        E 0 80 48 00
        E 0 80 54 00
        E 0 80 60 00
        E 1 80 2a 00
        E 0 80 3f 00
        E 0 80 4b 00
        E 0 80 57 00
        E 0 80 63 00
        E 179 90 2a 60
        E 0 90 57 60
        E 0 90 63 60
        E 59 80 2a 00
        E 0 80 57 00
        E 0 80 63 00
        E 181 90 1a 60
        E 0 90 2a 60
        E 0 90 3d 60
        E 0 90 3f 60
        E 0 90 49 60
        E 0 90 4b 60
        E 0 90 55 60
        E 0 90 57 60
        E 0 90 61 60
        E 0 90 63 60
        E 59 80 2a 00
        E 0 80 3f 00
        E 0 80 4b 00
        E 0 80 57 00
        E 0 80 63 00
        E 1 80 1a 00
        E 0 80 3d 00
        E 0 80 49 00
        E 0 80 55 00
        E 0 80 61 00
        E 180 90 2a 60
        E 0 90 57 60
        E 0 90 63 60
        E 60 80 2a 00
        E 0 80 57 00
        E 0 80 63 00
        E 180 90 18 60
        E 0 90 2a 60
        E 0 90 3f 60
        E 0 90 48 60
        E 0 90 4b 60
        E 0 90 54 60
        E 0 90 57 60
        E 0 90 60 60
        E 0 90 63 60
        E 60 80 18 00
        E 0 80 48 00
        E 0 80 54 00
        E 0 80 60 00
        E 1 80 2a 00
        E 0 80 3f 00
        E 0 80 4b 00
        E 0 80 57 00
        E 0 80 63 00
        E 179 90 2a 60
        E 0 90 57 60
        E 0 90 63 60
        E 60 80 2a 00
        E 0 80 57 00
        E 0 80 63 00
        E 180 90 1a 60
        E 0 90 2a 60
        E 0 90 3d 60
        E 0 90 3f 60
        E 0 90 49 60
        E 0 90 4b 60
        E 0 90 55 60
        E 0 90 57 60
        E 0 90 61 60
        E 0 90 63 60
        E 59 80 2a 00
        E 0 80 3f 00
        E 0 80 4b 00
        E 0 80 57 00
        E 0 80 63 00
        E 1 80 1a 00
        E 0 80 3d 00
        E 0 80 49 00
        E 0 80 55 00
        E 0 80 61 00
        E 180 90 18 60
        E 0 90 2a 60
        E 0 90 54 60
        E 0 90 57 60
        E 0 90 60 60
        E 0 90 63 60
        E 60 80 18 00
        E 0 80 2a 00
        E 0 80 54 00
        E 0 80 57 00
        E 0 80 60 00
        E 0 80 63 00
        E 180 90 18 60
        E 0 90 2a 60
        E 0 90 3f 60
        E 0 90 48 60
        E 0 90 4b 60
        E 0 90 54 60
        E 0 90 57 60
        E 0 90 60 60
        E 0 90 63 60
        E 60 80 18 00
        E 0 80 48 00
        E 0 80 54 00
        E 0 80 60 00
        E 1 80 2a 00
        E 0 80 3f 00
        E 0 80 4b 00
        E 0 80 57 00
        E 0 80 63 00
        E 179 90 2a 60
        E 0 90 57 60
        E 0 90 63 60
        E 59 80 2a 00
        E 0 80 57 00
        E 0 80 63 00
        E 181 90 1a 60
        E 0 90 2a 60
        E 0 90 3d 60
        E 0 90 3f 60
        E 0 90 49 60
        E 0 90 4b 60
        E 0 90 55 60
        E 0 90 57 60
        E 0 90 61 60
        E 0 90 63 60
        E 59 80 2a 00
        E 0 80 3f 00
        E 0 80 4b 00
        E 0 80 57 00
        E 0 80 63 00
        E 1 80 1a 00
        E 0 80 3d 00
        E 0 80 49 00
        E 0 80 55 00
        E 0 80 61 00
        E 180 90 2a 60
        E 0 90 57 60
        E 0 90 63 60
        E 60 80 2a 00
        E 0 80 57 00
        E 0 80 63 00
        E 180 90 18 60
        E 0 90 2a 60
        E 0 90 3f 60
        E 0 90 48 60
        E 0 90 4b 60
        E 0 90 54 60
        E 0 90 57 60
        E 0 90 60 60
        E 0 90 63 60
        E 60 80 18 00
        E 0 80 48 00
        E 0 80 54 00
        E 0 80 60 00
        E 1 80 2a 00
        E 0 80 3f 00
        E 0 80 4b 00
        E 0 80 57 00
        E 0 80 63 00
        E 179 90 2a 60
        E 0 90 57 60
        E 0 90 63 60
        E 60 80 2a 00
        E 0 80 57 00
        E 0 80 63 00
        E 180 90 1a 60
        E 0 90 2a 60
        E 0 90 3d 60
        E 0 90 3f 60
        E 0 90 49 60
        E 0 90 4b 60
        E 0 90 55 60
        E 0 90 57 60
        E 0 90 61 60
        E 0 90 63 60
        E 59 80 2a 00
        E 0 80 3f 00
        E 0 80 4b 00
        E 0 80 57 00
        E 0 80 63 00
        E 1 80 1a 00
        E 0 80 3d 00
        E 0 80 49 00
        E 0 80 55 00
        E 0 80 61 00
        E 180 90 18 60
        E 0 90 2a 60
        E 0 90 54 60
        E 0 90 57 60
        E 0 90 60 60
        E 0 90 63 60
        E 60 80 18 00
        E 0 80 2a 00
        E 0 80 54 00
        E 0 80 57 00
        E 0 80 60 00
        E 0 80 63 00
        E 180 90 18 60
        E 0 90 2a 60
        E 0 90 3f 60
        E 0 90 48 60
        E 0 90 4b 60
        E 0 90 54 60
        E 0 90 57 60
        E 0 90 60 60
        E 0 90 63 60
        E 60 80 18 00
        E 0 80 48 00
        E 0 80 54 00
        E 0 80 60 00
        E 1 80 2a 00
        E 0 80 3f 00
        E 0 80 4b 00
        E 0 80 57 00
        E 0 80 63 00
        E 179 90 2a 60
        E 0 90 57 60
        E 0 90 63 60
        E 59 80 2a 00
        E 0 80 57 00
        E 0 80 63 00
        E 181 90 1a 60
        E 0 90 2a 60
        E 0 90 3d 60
        E 0 90 3f 60
        E 0 90 49 60
        E 0 90 4b 60
        E 0 90 55 60
        E 0 90 57 60
        E 0 90 61 60
        E 0 90 63 60
        E 59 80 2a 00
        E 0 80 3f 00
        E 0 80 4b 00
        E 0 80 57 00
        E 0 80 63 00
        E 1 80 1a 00
        E 0 80 3d 00
        E 0 80 49 00
        E 0 80 55 00
        E 0 80 61 00
        E 180 90 2a 60
        E 0 90 57 60
        E 0 90 63 60
        E 60 80 2a 00
        E 0 80 57 00
        E 0 80 63 00
        E 180 90 18 60
        E 0 90 2a 60
        E 0 90 3f 60
        E 0 90 48 60
        E 0 90 4b 60
        E 0 90 54 60
        E 0 90 57 60
        E 0 90 60 60
        E 0 90 63 60
        E 60 80 18 00
        E 0 80 48 00
        E 0 80 54 00
        E 0 80 60 00
        E 1 80 2a 00
        E 0 80 3f 00
        E 0 80 4b 00
        E 0 80 57 00
        E 0 80 63 00
        E 179 90 2a 60
        E 0 90 57 60
        E 0 90 63 60
        E 60 80 2a 00
        E 0 80 57 00
        E 0 80 63 00
        E 180 90 1a 60
        E 0 90 2a 60
        E 0 90 3d 60
        E 0 90 3f 60
        E 0 90 49 60
        E 0 90 4b 60
        E 0 90 55 60
        E 0 90 57 60
        E 0 90 61 60
        E 0 90 63 60
        E 59 80 2a 00
        E 0 80 3f 00
        E 0 80 4b 00
        E 0 80 57 00
        E 0 80 63 00
        E 1 80 1a 00
        E 0 80 3d 00
        E 0 80 49 00
        E 0 80 55 00
        E 0 80 61 00
        E 180 90 18 60
        E 0 90 2a 60
        E 0 90 54 60
        E 0 90 57 60
        E 0 90 60 60
        E 0 90 63 60
        E 60 80 18 00
        E 0 80 2a 00
        E 0 80 54 00
        E 0 80 57 00
        E 0 80 60 00
        E 0 80 63 00
        E 180 90 18 60
        E 0 90 2a 60
        E 0 90 3f 60
        E 0 90 48 60
        E 0 90 4b 60
        E 0 90 54 60
        E 0 90 57 60
        E 0 90 60 60
        E 0 90 63 60
        E 60 80 18 00
        E 0 80 48 00
        E 0 80 54 00
        E 0 80 60 00
        E 1 80 2a 00
        E 0 80 3f 00
        E 0 80 4b 00
        E 0 80 57 00
        E 0 80 63 00
        E 179 90 2a 60
        E 0 90 57 60
        E 0 90 63 60
        E 59 80 2a 00
        E 0 80 57 00
        E 0 80 63 00
        E 181 90 1a 60
        E 0 90 2a 60
        E 0 90 3d 60
        E 0 90 3f 60
        E 0 90 49 60
        E 0 90 4b 60
        E 0 90 55 60
        E 0 90 57 60
        E 0 90 61 60
        E 0 90 63 60
        E 59 80 2a 00
        E 0 80 3f 00
        E 0 80 4b 00
        E 0 80 57 00
        E 0 80 63 00
        E 1 80 1a 00
        E 0 80 3d 00
        E 0 80 49 00
        E 0 80 55 00
        E 0 80 61 00
        E 180 90 2a 60
        E 0 90 57 60
        E 0 90 63 60
        E 60 80 2a 00
        E 0 80 57 00
        E 0 80 63 00
        E 180 90 18 60
        E 0 90 2a 60
        E 0 90 3f 60
        E 0 90 48 60
        E 0 90 4b 60
        E 0 90 54 60
        E 0 90 57 60
        E 0 90 60 60
        E 0 90 63 60
        E 60 80 18 00
        E 0 80 48 00
        E 0 80 54 00
        E 0 80 60 00
        E 1 80 2a 00
        E 0 80 3f 00
        E 0 80 4b 00
        E 0 80 57 00
        E 0 80 63 00
        E 179 90 2a 60
        E 0 90 57 60
        E 0 90 63 60
        E 60 80 2a 00
        E 0 80 57 00
        E 0 80 63 00
        E 180 90 1a 60
        E 0 90 2a 60
        E 0 90 3d 60
        E 0 90 3f 60
        E 0 90 49 60
        E 0 90 4b 60
        E 0 90 55 60
        E 0 90 57 60
        E 0 90 61 60
        E 0 90 63 60
        E 59 80 2a 00
        E 0 80 3f 00
        E 0 80 4b 00
        E 0 80 57 00
        E 0 80 63 00
        E 1 80 1a 00
        E 0 80 3d 00
        E 0 80 49 00
        E 0 80 55 00
        E 0 80 61 00
        E 180 90 18 60
        E 0 90 2a 60
        E 0 90 54 60
        E 0 90 57 60
        E 0 90 60 60
        E 0 90 63 60
        E 60 80 18 00
        E 0 80 2a 00
        E 0 80 54 00
        E 0 80 57 00
        E 0 80 60 00
        E 0 80 63 00
        E 180 90 18 60
        E 0 90 2a 60
        E 0 90 3f 60
        E 0 90 48 60
        E 0 90 4b 60
        E 0 90 54 60
        E 0 90 57 60
        E 0 90 60 60
        E 0 90 63 60
        E 60 80 18 00
        E 0 80 48 00
        E 0 80 54 00
        E 0 80 60 00
        E 1 80 2a 00
        E 0 80 3f 00
        E 0 80 4b 00
        E 0 80 57 00
        E 0 80 63 00
        E 179 90 2a 60
        E 0 90 57 60
        E 0 90 63 60
        E 59 80 2a 00
        E 0 80 57 00
        E 0 80 63 00
        E 181 90 1a 60
        E 0 90 2a 60
        E 0 90 3d 60
        E 0 90 3f 60
        E 0 90 49 60
        E 0 90 4b 60
        E 0 90 55 60
        E 0 90 57 60
        E 0 90 61 60
        E 0 90 63 60
        E 59 80 2a 00
        E 0 80 3f 00
        E 0 80 4b 00
        E 0 80 57 00
        E 0 80 63 00
        E 1 80 1a 00
        E 0 80 3d 00
        E 0 80 49 00
        E 0 80 55 00
        E 0 80 61 00
        E 180 90 2a 60
        E 0 90 57 60
        E 0 90 63 60
        E 60 80 2a 00
        E 0 80 57 00
        E 0 80 63 00
        E 180 90 18 60
        E 0 90 2a 60
        E 0 90 3f 60
        E 0 90 48 60
        E 0 90 4b 60
        E 0 90 54 60
        E 0 90 57 60
        E 0 90 60 60
        E 0 90 63 60
        E 60 80 18 00
        E 0 80 48 00
        E 0 80 54 00
        E 0 80 60 00
        E 1 80 2a 00
        E 0 80 3f 00
        E 0 80 4b 00
        E 0 80 57 00
        E 0 80 63 00
        E 179 90 2a 60
        E 0 90 57 60
        E 0 90 63 60
        E 60 80 2a 00
        E 0 80 57 00
        E 0 80 63 00
        E 180 90 1a 60
        E 0 90 2a 60
        E 0 90 3d 60
        E 0 90 3f 60
        E 0 90 49 60
        E 0 90 4b 60
        E 0 90 55 60
        E 0 90 57 60
        E 0 90 61 60
        E 0 90 63 60
        E 59 80 2a 00
        E 0 80 3f 00
        E 0 80 4b 00
        E 0 80 57 00
        E 0 80 63 00
        E 1 80 1a 00
        E 0 80 3d 00
        E 0 80 49 00
        E 0 80 55 00
        E 0 80 61 00
        E 180 90 18 60
        E 0 90 2a 60
        E 0 90 54 60
        E 0 90 57 60
        E 0 90 60 60
        E 0 90 63 60
        E 60 80 18 00
        E 0 80 2a 00
        E 0 80 54 00
        E 0 80 57 00
        E 0 80 60 00
        E 0 80 63 00
        E 180 90 18 60
        E 0 90 2a 60
        E 0 90 3f 60
        E 0 90 48 60
        E 0 90 4b 60
        E 0 90 54 60
        E 0 90 57 60
        E 0 90 60 60
        E 0 90 63 60
        E 60 80 18 00
        E 0 80 48 00
        E 0 80 54 00
        E 0 80 60 00
        E 1 80 2a 00
        E 0 80 3f 00
        E 0 80 4b 00
        E 0 80 57 00
        E 0 80 63 00
        E 179 90 2a 60
        E 0 90 57 60
        E 0 90 63 60
        E 59 80 2a 00
        E 0 80 57 00
        E 0 80 63 00
        E 181 90 1a 60
        E 0 90 2a 60
        E 0 90 3d 60
        E 0 90 3f 60
        E 0 90 49 60
        E 0 90 4b 60
        E 0 90 55 60
        E 0 90 57 60
        E 0 90 61 60
        E 0 90 63 60
        E 59 80 2a 00
        E 0 80 3f 00
        E 0 80 4b 00
        E 0 80 57 00
        E 0 80 63 00
        E 1 80 1a 00
        E 0 80 3d 00
        E 0 80 49 00
        E 0 80 55 00
        E 0 80 61 00
        E 180 90 2a 60
        E 0 90 57 60
        E 0 90 63 60
        E 60 80 2a 00
        E 0 80 57 00
        E 0 80 63 00
        E 180 90 18 60
        E 0 90 2a 60
        E 0 90 3f 60
        E 0 90 48 60
        E 0 90 4b 60
        E 0 90 54 60
        E 0 90 57 60
        E 0 90 60 60
        E 0 90 63 60
        E 60 80 18 00
        E 0 80 48 00
        E 0 80 54 00
        E 0 80 60 00
        E 1 80 2a 00
        E 0 80 3f 00
        E 0 80 4b 00
        E 0 80 57 00
        E 0 80 63 00
        E 179 90 2a 60
        E 0 90 57 60
        E 0 90 63 60
        E 60 80 2a 00
        E 0 80 57 00
        E 0 80 63 00
        E 180 90 1a 60
        E 0 90 2a 60
        E 0 90 3d 60
        E 0 90 3f 60
        E 0 90 49 60
        E 0 90 4b 60
        E 0 90 55 60
        E 0 90 57 60
        E 0 90 61 60
        E 0 90 63 60
        E 59 80 2a 00
        E 0 80 3f 00
        E 0 80 4b 00
        E 0 80 57 00
        E 0 80 63 00
        E 1 80 1a 00
        E 0 80 3d 00
        E 0 80 49 00
        E 0 80 55 00
        E 0 80 61 00
        E 180 90 18 60
        E 0 90 2a 60
        E 0 90 54 60
        E 0 90 57 60
        E 0 90 60 60
        E 0 90 63 60
        E 60 80 18 00
        E 0 80 2a 00
        E 0 80 54 00
        E 0 80 57 00
        E 0 80 60 00
        E 0 80 63 00
        E 180 90 18 60
        E 0 90 2a 60
        E 0 90 3f 60
        E 0 90 48 60
        E 0 90 4b 60
        E 0 90 54 60
        E 0 90 57 60
        E 0 90 60 60
        E 0 90 63 60
        E 60 80 18 00
        E 0 80 48 00
        E 0 80 54 00
        E 0 80 60 00
        E 1 80 2a 00
        E 0 80 3f 00
        E 0 80 4b 00
        E 0 80 57 00
        E 0 80 63 00
        E 179 90 2a 60
        E 0 90 57 60
        E 0 90 63 60
        E 59 80 2a 00
        E 0 80 57 00
        E 0 80 63 00
        E 181 90 1a 60
        E 0 90 2a 60
        E 0 90 3d 60
        E 0 90 3f 60
        E 0 90 49 60
        E 0 90 4b 60
        E 0 90 55 60
        E 0 90 57 60
        E 0 90 61 60
        E 0 90 63 60
        E 59 80 2a 00
        E 0 80 3f 00
        E 0 80 4b 00
        E 0 80 57 00
        E 0 80 63 00
        E 1 80 1a 00
        E 0 80 3d 00
        E 0 80 49 00
        E 0 80 55 00
        E 0 80 61 00
        E 180 90 2a 60
        E 0 90 57 60
        E 0 90 63 60
        E 60 80 2a 00
        E 0 80 57 00
        E 0 80 63 00
        E 180 90 18 60
        E 0 90 22 60
        E 0 90 26 60
        E 0 90 3e 60
        E 0 90 40 60
        E 0 90 48 60
        E 0 90 4a 60
        E 0 90 4c 60
        E 0 90 54 60
        E 0 90 56 60
        E 0 90 58 60
        E 0 90 60 60
        E 0 90 62 60
        E 0 90 64 60
        E 0 90 74 59
        E 60 80 18 00
        E 0 80 22 00
        E 0 80 40 00
        E 0 80 48 00
        E 0 80 4c 00
        E 0 80 54 00
        E 0 80 58 00
        E 0 80 60 00
        E 0 80 64 00
        E 1 80 26 00
        E 0 80 3e 00
        E 0 80 4a 00
        E 0 80 56 00
        E 0 80 62 00
        E 179 90 1f 60
        E 0 90 56 60
        E 0 90 62 60
        E 60 80 1f 00
        E 0 80 56 00
        E 0 80 62 00
        E 180 90 1a 60
        E 0 90 1f 60
        E 0 90 3d 60
        E 0 90 3e 60
        E 0 90 49 60
        E 0 90 4a 60
        E 0 90 55 60
        E 0 90 56 60
        E 0 90 61 60
        E 0 90 62 60
        E 59 80 1f 00
        E 0 80 3e 00
        E 0 80 4a 00
        E 0 80 56 00
        E 0 80 62 00
        E 1 80 1a 00
        E 0 80 3d 00
        E 0 80 49 00
        E 0 80 55 00
        E 0 80 61 00
        E 180 90 1f 60
        E 0 90 56 60
        E 0 90 62 60
        E 60 80 1f 00
        E 0 80 56 00
        E 0 80 62 00
        E 180 90 18 60
        E 0 90 1f 60
        E 0 90 3e 60
        E 0 90 48 60
        E 0 90 4a 60
        E 0 90 54 60
        E 0 90 56 60
        E 0 90 60 60
        E 0 90 62 60
        E 60 80 18 00
        E 0 80 48 00
        E 0 80 54 00
        E 0 80 60 00
        E 1 80 1f 00
        E 0 80 3e 00
        E 0 80 4a 00
        E 0 80 56 00
        E 0 80 62 00
        E 179 90 18 60
        E 0 90 1f 60
        E 0 90 54 60
        E 0 90 56 60
        E 0 90 60 60
        E 0 90 62 60
        E 59 80 1f 00
        E 0 80 56 00
        E 0 80 62 00
        E 1 80 18 00
        E 0 80 54 00
        E 0 80 60 00
        E 180 90 1a 60
        E 0 90 1f 60
        E 0 90 3d 60
        E 0 90 3e 60
        E 0 90 49 60
        E 0 90 4a 60
        E 0 90 55 60
        E 0 90 56 60
        E 0 90 61 60
        E 0 90 62 60
        E 59 80 1f 00
        E 0 80 3e 00
        E 0 80 4a 00
        E 0 80 56 00
        E 0 80 62 00
        E 1 80 1a 00
        E 0 80 3d 00
        E 0 80 49 00
        E 0 80 55 00
        E 0 80 61 00
        E 180 90 1f 60
        E 0 90 56 60
        E 0 90 62 60
        E 60 80 1f 00
        E 0 80 56 00
        E 0 80 62 00
        E 180 90 18 60
        E 0 90 1f 60
        E 0 90 3e 60
        E 0 90 48 60
        E 0 90 4a 60
        E 0 90 54 60
        E 0 90 56 60
        E 0 90 60 60
        E 0 90 62 60
        E 60 80 18 00
        E 0 80 48 00
        E 0 80 54 00
        E 0 80 60 00
        E 1 80 1f 00
        E 0 80 3e 00
        E 0 80 4a 00
        E 0 80 56 00
        E 0 80 62 00
        E 179 90 1f 60
        E 0 90 56 60
        E 0 90 62 60
        E 60 80 1f 00
        E 0 80 56 00
        E 0 80 62 00
        E 180 90 1a 60
        E 0 90 1f 60
        E 0 90 3d 60
        E 0 90 3e 60
        E 0 90 49 60
        E 0 90 4a 60
        E 0 90 55 60
        E 0 90 56 60
        E 0 90 61 60
        E 0 90 62 60
        E 59 80 1f 00
        E 0 80 3e 00
        E 0 80 4a 00
        E 0 80 56 00
        E 0 80 62 00
        E 1 80 1a 00
        E 0 80 3d 00
        E 0 80 49 00
        E 0 80 55 00
        E 0 80 61 00
        E 180 90 1f 60
        E 0 90 56 60
        E 0 90 62 60
        E 60 80 1f 00
        E 0 80 56 00
        E 0 80 62 00
        E 180 90 18 60
        E 0 90 1f 60
        E 0 90 3e 60
        E 0 90 48 60
        E 0 90 4a 60
        E 0 90 54 60
        E 0 90 56 60
        E 0 90 60 60
        E 0 90 62 60
        E 60 80 18 00
        E 0 80 48 00
        E 0 80 54 00
        E 0 80 60 00
        E 1 80 1f 00
        E 0 80 3e 00
        E 0 80 4a 00
        E 0 80 56 00
        E 0 80 62 00
        E 179 90 18 60
        E 0 90 1f 60
        E 0 90 54 60
        E 0 90 56 60
        E 0 90 60 60
        E 0 90 62 60
        E 59 80 1f 00
        E 0 80 56 00
        E 0 80 62 00
        E 1 80 18 00
        E 0 80 54 00
        E 0 80 60 00
        E 180 90 1a 60
        E 0 90 1f 60
        E 0 90 3d 60
        E 0 90 3e 60
        E 0 90 49 60
        E 0 90 4a 60
        E 0 90 55 60
        E 0 90 56 60
        E 0 90 61 60
        E 0 90 62 60
        E 59 80 1f 00
        E 0 80 3e 00
        E 0 80 4a 00
        E 0 80 56 00
        E 0 80 62 00
        E 1 80 1a 00
        E 0 80 3d 00
        E 0 80 49 00
        E 0 80 55 00
        E 0 80 61 00
        E 180 90 1f 60
        E 0 90 56 60
        E 0 90 62 60
        E 60 80 1f 00
        E 0 80 56 00
        E 0 80 62 00
        E 180 90 18 60
        E 0 90 1f 60
        E 0 90 3e 60
        E 0 90 48 60
        E 0 90 4a 60
        E 0 90 54 60
        E 0 90 56 60
        E 0 90 60 60
        E 0 90 62 60
        E 60 80 18 00
        E 0 80 48 00
        E 0 80 54 00
        E 0 80 60 00
        E 1 80 1f 00
        E 0 80 3e 00
        E 0 80 4a 00
        E 0 80 56 00
        E 0 80 62 00
        E 179 90 1f 60
        E 0 90 56 60
        E 0 90 62 60
        E 60 80 1f 00
        E 0 80 56 00
        E 0 80 62 00
        E 180 90 1a 60
        E 0 90 1f 60
        E 0 90 3d 60
        E 0 90 3e 60
        E 0 90 49 60
        E 0 90 4a 60
        E 0 90 55 60
        E 0 90 56 60
        E 0 90 61 60
        E 0 90 62 60
        E 59 80 1f 00
        E 0 80 3e 00
        E 0 80 4a 00
        E 0 80 56 00
        E 0 80 62 00
        E 1 80 1a 00
        E 0 80 3d 00
        E 0 80 49 00
        E 0 80 55 00
        E 0 80 61 00
        E 180 90 1f 60
        E 0 90 56 60
        E 0 90 62 60
        E 60 80 1f 00
        E 0 80 56 00
        E 0 80 62 00
        E 180 90 18 60
        E 0 90 1f 60
        E 0 90 3e 60
        E 0 90 48 60
        E 0 90 4a 60
        E 0 90 54 60
        E 0 90 56 60
        E 0 90 60 60
        E 0 90 62 60
        E 60 80 18 00
        E 0 80 48 00
        E 0 80 54 00
        E 0 80 60 00
        E 1 80 1f 00
        E 0 80 3e 00
        E 0 80 4a 00
        E 0 80 56 00
        E 0 80 62 00
        E 179 90 18 60
        E 0 90 1f 60
        E 0 90 54 60
        E 0 90 56 60
        E 0 90 60 60
        E 0 90 62 60
        E 59 80 1f 00
        E 0 80 56 00
        E 0 80 62 00
        E 1 80 18 00
        E 0 80 54 00
        E 0 80 60 00
        E 180 90 1a 60
        E 0 90 1f 60
        E 0 90 3d 60
        E 0 90 3e 60
        E 0 90 49 60
        E 0 90 4a 60
        E 0 90 55 60
        E 0 90 56 60
        E 0 90 61 60
        E 0 90 62 60
        E 59 80 1f 00
        E 0 80 3e 00
        E 0 80 4a 00
        E 0 80 56 00
        E 0 80 62 00
        E 1 80 1a 00
        E 0 80 3d 00
        E 0 80 49 00
        E 0 80 55 00
        E 0 80 61 00
        E 180 90 1f 60
        E 0 90 56 60
        E 0 90 62 60
        E 60 80 1f 00
        E 0 80 56 00
        E 0 80 62 00
        E 180 90 18 60
        E 0 90 1f 60
        E 0 90 3e 60
        E 0 90 48 60
        E 0 90 4a 60
        E 0 90 54 60
        E 0 90 56 60
        E 0 90 60 60
        E 0 90 62 60
        E 60 80 18 00
        E 0 80 48 00
        E 0 80 54 00
        E 0 80 60 00
        E 1 80 1f 00
        E 0 80 3e 00
        E 0 80 4a 00
        E 0 80 56 00
        E 0 80 62 00
        E 179 90 1f 60
        E 0 90 56 60
        E 0 90 62 60
        E 60 80 1f 00
        E 0 80 56 00
        E 0 80 62 00
        E 180 90 1a 60
        E 0 90 1f 60
        E 0 90 3d 60
        E 0 90 3e 60
        E 0 90 49 60
        E 0 90 4a 60
        E 0 90 55 60
        E 0 90 56 60
        E 0 90 61 60
        E 0 90 62 60
        E 59 80 1f 00
        E 0 80 3e 00
        E 0 80 4a 00
        E 0 80 56 00
        E 0 80 62 00
        E 1 80 1a 00
        E 0 80 3d 00
        E 0 80 49 00
        E 0 80 55 00
        E 0 80 61 00
        E 180 90 1f 60
        E 0 90 56 60
        E 0 90 62 60
        E 60 80 1f 00
        E 0 80 56 00
        E 0 80 62 00
        E 180 90 18 60
        E 0 90 1f 60
        E 0 90 3e 60
        E 0 90 48 60
        E 0 90 4a 60
        E 0 90 54 60
        E 0 90 56 60
        E 0 90 60 60
        E 0 90 62 60
        E 60 80 18 00
        E 0 80 48 00
        E 0 80 54 00
        E 0 80 60 00
        E 1 80 1f 00
        E 0 80 3e 00
        E 0 80 4a 00
        E 0 80 56 00
        E 0 80 62 00
        E 179 90 18 60
        E 0 90 1f 60
        E 0 90 54 60
        E 0 90 56 60
        E 0 90 60 60
        E 0 90 62 60
        E 59 80 1f 00
        E 0 80 56 00
        E 0 80 62 00
        E 1 80 18 00
        E 0 80 54 00
        E 0 80 60 00
        E 180 90 1a 60
        E 0 90 1f 60
        E 0 90 3d 60
        E 0 90 3e 60
        E 0 90 49 60
        E 0 90 4a 60
        E 0 90 55 60
        E 0 90 56 60
        E 0 90 61 60
        E 0 90 62 60
        E 59 80 1f 00
        E 0 80 3e 00
        E 0 80 4a 00
        E 0 80 56 00
        E 0 80 62 00
        E 1 80 1a 00
        E 0 80 3d 00
        E 0 80 49 00
        E 0 80 55 00
        E 0 80 61 00
        E 180 90 1f 60
        E 0 90 56 60
        E 0 90 62 60
        E 60 80 1f 00
        E 0 80 56 00
        E 0 80 62 00
        E 180 80 74 00
        E 0 90 18 60
        E 0 90 1f 60
        E 0 90 3e 60
        E 0 90 48 60
        E 0 90 4a 60
        E 0 90 54 60
        E 0 90 56 60
        E 0 90 60 60
        E 0 90 62 60
        E 60 80 18 00
        E 0 80 48 00
        E 0 80 54 00
        E 0 80 60 00
        E 1 80 1f 00
        E 0 80 3e 00
        E 0 80 4a 00
        E 0 80 56 00
        E 0 80 62 00
        E 179 90 1f 60
        E 0 90 56 60
        E 0 90 62 60
        E 60 80 1f 00
        E 0 80 56 00
        E 0 80 62 00
        E 180 90 1a 60
        E 0 90 1f 60
        E 0 90 3d 60
        E 0 90 3e 60
        E 0 90 49 60
        E 0 90 4a 60
        E 0 90 55 60
        E 0 90 56 60
        E 0 90 61 60
        E 0 90 62 60
        E 59 80 1f 00
        E 0 80 3e 00
        E 0 80 4a 00
        E 0 80 56 00
        E 0 80 62 00
        E 1 80 1a 00
        E 0 80 3d 00
        E 0 80 49 00
        E 0 80 55 00
        E 0 80 61 00
        E 180 90 1f 60
        E 0 90 56 60
        E 0 90 62 60
        E 60 80 1f 00
        E 0 80 56 00
        E 0 80 62 00
        E 180 90 18 60
        E 0 90 1f 60
        E 0 90 3e 60
        E 0 90 48 60
        E 0 90 4a 60
        E 0 90 54 60
        E 0 90 56 60
        E 0 90 60 60
        E 0 90 62 60
        E 60 80 18 00
        E 0 80 48 00
        E 0 80 54 00
        E 0 80 60 00
        E 1 80 1f 00
        E 0 80 3e 00
        E 0 80 4a 00
        E 0 80 56 00
        E 0 80 62 00
        E 179 90 18 60
        E 0 90 1f 60
        E 0 90 54 60
        E 0 90 56 60
        E 0 90 60 60
        E 0 90 62 60
        E 59 80 1f 00
        E 0 80 56 00
        E 0 80 62 00
        E 1 80 18 00
        E 0 80 54 00
        E 0 80 60 00
        E 180 90 1a 60
        E 0 90 1f 60
        E 0 90 3d 60
        E 0 90 3e 60
        E 0 90 49 60
        E 0 90 4a 60
        E 0 90 55 60
        E 0 90 56 60
        E 0 90 61 60
        E 0 90 62 60
        E 59 80 1f 00
        E 0 80 3e 00
        E 0 80 4a 00
        E 0 80 56 00
        E 0 80 62 00
        E 1 80 1a 00
        E 0 80 3d 00
        E 0 80 49 00
        E 0 80 55 00
        E 0 80 61 00
        E 180 90 1f 60
        E 0 90 56 60
        E 0 90 62 60
        E 60 80 1f 00
        E 0 80 56 00
        E 0 80 62 00
        E 180 90 18 60
        E 0 90 1f 60
        E 0 90 3e 60
        E 0 90 48 60
        E 0 90 4a 60
        E 0 90 54 60
        E 0 90 56 60
        E 0 90 60 60
        E 0 90 62 60
        E 60 80 18 00
        E 0 80 48 00
        E 0 80 54 00
        E 0 80 60 00
        E 1 80 1f 00
        E 0 80 3e 00
        E 0 80 4a 00
        E 0 80 56 00
        E 0 80 62 00
        E 179 90 1f 60
        E 0 90 56 60
        E 0 90 62 60
        E 60 80 1f 00
        E 0 80 56 00
        E 0 80 62 00
        E 180 90 1a 60
        E 0 90 1f 60
        E 0 90 3d 60
        E 0 90 3e 60
        E 0 90 49 60
        E 0 90 4a 60
        E 0 90 55 60
        E 0 90 56 60
        E 0 90 61 60
        E 0 90 62 60
        E 59 80 1f 00
        E 0 80 3e 00
        E 0 80 4a 00
        E 0 80 56 00
        E 0 80 62 00
        E 1 80 1a 00
        E 0 80 3d 00
        E 0 80 49 00
        E 0 80 55 00
        E 0 80 61 00
        E 180 90 1f 60
        E 0 90 56 60
        E 0 90 62 60
        E 60 80 1f 00
        E 0 80 56 00
        E 0 80 62 00
        E 180 90 18 60
        E 0 90 1f 60
        E 0 90 3e 60
        E 0 90 48 60
        E 0 90 4a 60
        E 0 90 54 60
        E 0 90 56 60
        E 0 90 60 60
        E 0 90 62 60
        E 60 80 18 00
        E 0 80 48 00
        E 0 80 54 00
        E 0 80 60 00
        E 1 80 1f 00
        E 0 80 3e 00
        E 0 80 4a 00
        E 0 80 56 00
        E 0 80 62 00
        E 179 90 18 60
        E 0 90 1f 60
        E 0 90 54 60
        E 0 90 56 60
        E 0 90 60 60
        E 0 90 62 60
        E 59 80 1f 00
        E 0 80 56 00
        E 0 80 62 00
        E 1 80 18 00
        E 0 80 54 00
        E 0 80 60 00
        E 180 90 1a 60
        E 0 90 1f 60
        E 0 90 3d 60
        E 0 90 3e 60
        E 0 90 49 60
        E 0 90 4a 60
        E 0 90 55 60
        E 0 90 56 60
        E 0 90 61 60
        E 0 90 62 60
        E 59 80 1f 00
        E 0 80 3e 00
        E 0 80 4a 00
        E 0 80 56 00
        E 0 80 62 00
        E 1 80 1a 00
        E 0 80 3d 00
        E 0 80 49 00
        E 0 80 55 00
        E 0 80 61 00
        E 180 90 1f 60
        E 0 90 56 60
        E 0 90 62 60
        E 60 80 1f 00
        E 0 80 56 00
        E 0 80 62 00
        E 180 90 18 60
        E 0 90 1f 60
        E 0 90 3e 60
        E 0 90 48 60
        E 0 90 4a 60
        E 0 90 54 60
        E 0 90 56 60
        E 0 90 60 60
        E 0 90 62 60
        E 60 80 18 00
        E 0 80 48 00
        E 0 80 54 00
        E 0 80 60 00
        E 1 80 1f 00
        E 0 80 3e 00
        E 0 80 4a 00
        E 0 80 56 00
        E 0 80 62 00
        E 179 90 1f 60
        E 0 90 56 60
        E 0 90 62 60
        E 60 80 1f 00
        E 0 80 56 00
        E 0 80 62 00
        E 180 90 1a 60
        E 0 90 1f 60
        E 0 90 3d 60
        E 0 90 3e 60
        E 0 90 49 60
        E 0 90 4a 60
        E 0 90 55 60
        E 0 90 56 60
        E 0 90 61 60
        E 0 90 62 60
        E 59 80 1f 00
        E 0 80 3e 00
        E 0 80 4a 00
        E 0 80 56 00
        E 0 80 62 00
        E 1 80 1a 00
        E 0 80 3d 00
        E 0 80 49 00
        E 0 80 55 00
        E 0 80 61 00
        E 180 90 1f 60
        E 0 90 56 60
        E 0 90 62 60
        E 60 80 1f 00
        E 0 80 56 00
        E 0 80 62 00
        E 180 90 18 60
        E 0 90 1f 60
        E 0 90 3e 60
        E 0 90 48 60
        E 0 90 4a 60
        E 0 90 54 60
        E 0 90 56 60
        E 0 90 60 60
        E 0 90 62 60
        E 60 80 18 00
        E 0 80 48 00
        E 0 80 54 00
        E 0 80 60 00
        E 1 80 1f 00
        E 0 80 3e 00
        E 0 80 4a 00
        E 0 80 56 00
        E 0 80 62 00
        E 179 90 18 60
        E 0 90 1f 60
        E 0 90 54 60
        E 0 90 56 60
        E 0 90 60 60
        E 0 90 62 60
        E 59 80 1f 00
        E 0 80 56 00
        E 0 80 62 00
        E 1 80 18 00
        E 0 80 54 00
        E 0 80 60 00
        E 180 90 1a 60
        E 0 90 1f 60
        E 0 90 3d 60
        E 0 90 3e 60
        E 0 90 49 60
        E 0 90 4a 60
        E 0 90 55 60
        E 0 90 56 60
        E 0 90 61 60
        E 0 90 62 60
        E 59 80 1f 00
        E 0 80 3e 00
        E 0 80 4a 00
        E 0 80 56 00
        E 0 80 62 00
        E 1 80 1a 00
        E 0 80 3d 00
        E 0 80 49 00
        E 0 80 55 00
        E 0 80 61 00
        E 180 90 1f 60
        E 0 90 56 60
        E 0 90 62 60
        E 60 80 1f 00
        E 0 80 56 00
        E 0 80 62 00
        E 180 90 18 60
        E 0 90 1f 60
        E 0 90 3e 60
        E 0 90 48 60
        E 0 90 4a 60
        E 0 90 54 60
        E 0 90 56 60
        E 0 90 60 60
        E 0 90 62 60
        E 60 80 18 00
        E 0 80 48 00
        E 0 80 54 00
        E 0 80 60 00
        E 1 80 1f 00
        E 0 80 3e 00
        E 0 80 4a 00
        E 0 80 56 00
        E 0 80 62 00
        E 179 90 1f 60
        E 0 90 56 60
        E 0 90 62 60
        E 60 80 1f 00
        E 0 80 56 00
        E 0 80 62 00
        E 180 90 1a 60
        E 0 90 1f 60
        E 0 90 3d 60
        E 0 90 3e 60
        E 0 90 49 60
        E 0 90 4a 60
        E 0 90 55 60
        E 0 90 56 60
        E 0 90 61 60
        E 0 90 62 60
        E 59 80 1f 00
        E 0 80 3e 00
        E 0 80 4a 00
        E 0 80 56 00
        E 0 80 62 00
        E 1 80 1a 00
        E 0 80 3d 00
        E 0 80 49 00
        E 0 80 55 00
        E 0 80 61 00
        E 180 90 1f 60
        E 0 90 56 60
        E 0 90 62 60
        E 60 80 1f 00
        E 0 80 56 00
        E 0 80 62 00
        E 180 90 18 60
        E 0 90 1f 60
        E 0 90 3e 60
        E 0 90 48 60
        E 0 90 4a 60
        E 0 90 54 60
        E 0 90 56 60
        E 0 90 60 60
        E 0 90 62 60
        E 0 90 78 60
        E 0 90 79 60
        E 0 90 7a 60
        E 0 90 7b 60
        E 0 90 7c 60
        E 60 80 18 00
        E 0 80 48 00
        E 0 80 54 00
        E 0 80 60 00
        E 1 80 1f 00
        E 0 80 3e 00
        E 0 80 4a 00
        E 0 80 56 00
        E 0 80 62 00
        E 179 90 18 60
        E 0 90 1f 60
        E 0 90 54 60
        E 0 90 56 60
        E 0 90 60 60
        E 0 90 62 60
        E 59 80 1f 00
        E 0 80 56 00
        E 0 80 62 00
        E 1 80 18 00
        E 0 80 54 00
        E 0 80 60 00
        E 180 90 1a 60
        E 0 90 1f 60
        E 0 90 3d 60
        E 0 90 3e 60
        E 0 90 49 60
        E 0 90 4a 60
        E 0 90 55 60
        E 0 90 56 60
        E 0 90 61 60
        E 0 90 62 60
        E 59 80 1f 00
        E 0 80 3e 00
        E 0 80 4a 00
        E 0 80 56 00
        E 0 80 62 00
        E 1 80 1a 00
        E 0 80 3d 00
        E 0 80 49 00
        E 0 80 55 00
        E 0 80 61 00
        E 180 90 1f 60
        E 0 90 56 60
        E 0 90 62 60
        E 60 80 1f 00
        E 0 80 56 00
        E 0 80 62 00
        E 180 80 78 00
        E 0 80 79 00
        E 0 80 7a 00
        E 0 80 7b 00
        E 0 80 7c 00
        E 0 90 18 60
        E 0 90 22 60
        E 0 90 26 60
        E 0 90 3f 60
        E 0 90 40 60
        E 0 90 48 60
        E 0 90 4b 60
        E 0 90 4c 60
        E 0 90 54 60
        E 0 90 57 60
        E 0 90 58 60
        E 0 90 60 60
        E 0 90 63 60
        E 0 90 64 60
        E 60 80 18 00
        E 0 80 26 00
        E 0 80 40 00
        E 0 80 48 00
        E 0 80 4c 00
        E 0 80 54 00
        E 0 80 58 00
        E 0 80 60 00
        E 0 80 64 00
        E 1 80 22 00
        E 0 80 3f 00
        E 0 80 4b 00
        E 0 80 57 00
        E 0 80 63 00
        E 179 90 2a 60
        E 0 90 57 60
        E 0 90 63 60
        E 60 80 2a 00
        E 0 80 57 00
        E 0 80 63 00
        E 180 90 1a 60
        E 0 90 2a 60
        E 0 90 3d 60
        E 0 90 3f 60
        E 0 90 49 60
        E 0 90 4b 60
        E 0 90 55 60
        E 0 90 57 60
        E 0 90 61 60
        E 0 90 63 60
        E 59 80 2a 00
        E 0 80 3f 00
        E 0 80 4b 00
        E 0 80 57 00
        E 0 80 63 00
        E 1 80 1a 00
        E 0 80 3d 00
        E 0 80 49 00
        E 0 80 55 00
        E 0 80 61 00
        E 180 90 2a 60
        E 0 90 57 60
        E 0 90 63 60
        E 60 80 2a 00
        E 0 80 57 00
        E 0 80 63 00
        E 180 90 18 60
        E 0 90 2a 60
        E 0 90 3f 60
        E 0 90 48 60
        E 0 90 4b 60
        E 0 90 54 60
        E 0 90 57 60
        E 0 90 60 60
        E 0 90 63 60
        E 60 80 18 00
        E 0 80 48 00
        E 0 80 54 00
        E 0 80 60 00
        E 1 80 2a 00
        E 0 80 3f 00
        E 0 80 4b 00
        E 0 80 57 00
        E 0 80 63 00
        E 179 90 18 60
        E 0 90 2a 60
        E 0 90 54 60
        E 0 90 57 60
        E 0 90 60 60
        E 0 90 63 60
        E 59 80 2a 00
        E 0 80 57 00
        E 0 80 63 00
        E 1 80 18 00
        E 0 80 54 00
        E 0 80 60 00
        E 180 90 1a 60
        E 0 90 2a 60
        E 0 90 3d 60
        E 0 90 3f 60
        E 0 90 49 60
        E 0 90 4b 60
        E 0 90 55 60
        E 0 90 57 60
        E 0 90 61 60
        E 0 90 63 60
        E 59 80 2a 00
        E 0 80 3f 00
        E 0 80 4b 00
        E 0 80 57 00
        E 0 80 63 00
        E 1 80 1a 00
        E 0 80 3d 00
        E 0 80 49 00
        E 0 80 55 00
        E 0 80 61 00
        E 180 90 2a 60
        E 0 90 57 60
        E 0 90 63 60
        E 60 80 2a 00
        E 0 80 57 00
        E 0 80 63 00
        E 180 90 18 60
        E 0 90 2a 60
        E 0 90 3f 60
        E 0 90 48 60
        E 0 90 4b 60
        E 0 90 54 60
        E 0 90 57 60
        E 0 90 60 60
        E 0 90 63 60
        E 60 80 18 00
        E 0 80 48 00
        E 0 80 54 00
        E 0 80 60 00
        E 1 80 2a 00
        E 0 80 3f 00
        E 0 80 4b 00
        E 0 80 57 00
        E 0 80 63 00
        E 179 90 2a 60
        E 0 90 57 60
        E 0 90 63 60
        E 60 80 2a 00
        E 0 80 57 00
        E 0 80 63 00
        E 180 90 1a 60
        E 0 90 2a 60
        E 0 90 3d 60
        E 0 90 3f 60
        E 0 90 49 60
        E 0 90 4b 60
        E 0 90 55 60
        E 0 90 57 60
        E 0 90 61 60
        E 0 90 63 60
        E 59 80 2a 00
        E 0 80 3f 00
        E 0 80 4b 00
        E 0 80 57 00
        E 0 80 63 00
        E 1 80 1a 00
        E 0 80 3d 00
        E 0 80 49 00
        E 0 80 55 00
        E 0 80 61 00
        E 180 90 2a 60
        E 0 90 57 60
        E 0 90 63 60
        E 60 80 2a 00
        E 0 80 57 00
        E 0 80 63 00
        E 180 90 18 60
        E 0 90 2a 60
        E 0 90 3f 60
        E 0 90 48 60
        E 0 90 4b 60
        E 0 90 54 60
        E 0 90 57 60
        E 0 90 60 60
        E 0 90 63 60
        E 60 80 18 00
        E 0 80 48 00
        E 0 80 54 00
        E 0 80 60 00
        E 1 80 2a 00
        E 0 80 3f 00
        E 0 80 4b 00
        E 0 80 57 00
        E 0 80 63 00
        E 179 90 18 60
        E 0 90 2a 60
        E 0 90 54 60
        E 0 90 57 60
        E 0 90 60 60
        E 0 90 63 60
        E 59 80 2a 00
        E 0 80 57 00
        E 0 80 63 00
        E 1 80 18 00
        E 0 80 54 00
        E 0 80 60 00
        E 180 90 1a 60
        E 0 90 2a 60
        E 0 90 3d 60
        E 0 90 3f 60
        E 0 90 49 60
        E 0 90 4b 60
        E 0 90 55 60
        E 0 90 57 60
        E 0 90 61 60
        E 0 90 63 60
        E 59 80 2a 00
        E 0 80 3f 00
        E 0 80 4b 00
        E 0 80 57 00
        E 0 80 63 00
        E 1 80 1a 00
        E 0 80 3d 00
        E 0 80 49 00
        E 0 80 55 00
        E 0 80 61 00
        E 180 90 2a 60
        E 0 90 57 60
        E 0 90 63 60
        E 60 80 2a 00
        E 0 80 57 00
        E 0 80 63 00
        E 180 90 18 60
        E 0 90 2a 60
        E 0 90 3f 60
        E 0 90 48 60
        E 0 90 4b 60
        E 0 90 54 60
        E 0 90 57 60
        E 0 90 60 60
        E 0 90 63 60
        E 60 80 18 00
        E 0 80 48 00
        E 0 80 54 00
        E 0 80 60 00
        E 1 80 2a 00
        E 0 80 3f 00
        E 0 80 4b 00
        E 0 80 57 00
        E 0 80 63 00
        E 179 90 2a 60
        E 0 90 57 60
        E 0 90 63 60
        E 60 80 2a 00
        E 0 80 57 00
        E 0 80 63 00
        E 180 90 1a 60
        E 0 90 2a 60
        E 0 90 3d 60
        E 0 90 3f 60
        E 0 90 49 60
        E 0 90 4b 60
        E 0 90 55 60
        E 0 90 57 60
        E 0 90 61 60
        E 0 90 63 60
        E 59 80 2a 00
        E 0 80 3f 00
        E 0 80 4b 00
        E 0 80 57 00
        E 0 80 63 00
        E 1 80 1a 00
        E 0 80 3d 00
        E 0 80 49 00
        E 0 80 55 00
        E 0 80 61 00
        E 180 90 2a 60
        E 0 90 57 60
        E 0 90 63 60
        E 60 80 2a 00
        E 0 80 57 00
        E 0 80 63 00
        E 180 90 18 60
        E 0 90 2a 60
        E 0 90 3f 60
        E 0 90 48 60
        E 0 90 4b 60
        E 0 90 54 60
        E 0 90 57 60
        E 0 90 60 60
        E 0 90 63 60
        E 60 80 18 00
        E 0 80 48 00
        E 0 80 54 00
        E 0 80 60 00
        E 1 80 2a 00
        E 0 80 3f 00
        E 0 80 4b 00
        E 0 80 57 00
        E 0 80 63 00
        E 179 90 18 60
        E 0 90 2a 60
        E 0 90 54 60
        E 0 90 57 60
        E 0 90 60 60
        E 0 90 63 60
        E 59 80 2a 00
        E 0 80 57 00
        E 0 80 63 00
        E 1 80 18 00
        E 0 80 54 00
        E 0 80 60 00
        E 180 90 1a 60
        E 0 90 2a 60
        E 0 90 3d 60
        E 0 90 3f 60
        E 0 90 49 60
        E 0 90 4b 60
        E 0 90 55 60
        E 0 90 57 60
        E 0 90 61 60
        E 0 90 63 60
        E 59 80 2a 00
        E 0 80 3f 00
        E 0 80 4b 00
        E 0 80 57 00
        E 0 80 63 00
        E 1 80 1a 00
        E 0 80 3d 00
        E 0 80 49 00
        E 0 80 55 00
        E 0 80 61 00
        E 180 90 2a 60
        E 0 90 57 60
        E 0 90 63 60
        E 60 80 2a 00
        E 0 80 57 00
        E 0 80 63 00
        E 180 90 18 60
        E 0 90 2a 60
        E 0 90 3f 60
        E 0 90 48 60
        E 0 90 4b 60
        E 0 90 54 60
        E 0 90 57 60
        E 0 90 60 60
        E 0 90 63 60
        E 60 80 18 00
        E 0 80 48 00
        E 0 80 54 00
        E 0 80 60 00
        E 1 80 2a 00
        E 0 80 3f 00
        E 0 80 4b 00
        E 0 80 57 00
        E 0 80 63 00
        E 179 90 2a 60
        E 0 90 57 60
        E 0 90 63 60
        E 60 80 2a 00
        E 0 80 57 00
        E 0 80 63 00
        E 180 90 1a 60
        E 0 90 2a 60
        E 0 90 3d 60
        E 0 90 3f 60
        E 0 90 49 60
        E 0 90 4b 60
        E 0 90 55 60
        E 0 90 57 60
        E 0 90 61 60
        E 0 90 63 60
        E 59 80 2a 00
        E 0 80 3f 00
        E 0 80 4b 00
        E 0 80 57 00
        E 0 80 63 00
        E 1 80 1a 00
        E 0 80 3d 00
        E 0 80 49 00
        E 0 80 55 00
        E 0 80 61 00
        E 180 90 2a 60
        E 0 90 57 60
        E 0 90 63 60
        E 60 80 2a 00
        E 0 80 57 00
        E 0 80 63 00
        E 180 90 18 60
        E 0 90 2a 60
        E 0 90 3f 60
        E 0 90 48 60
        E 0 90 4b 60
        E 0 90 54 60
        E 0 90 57 60
        E 0 90 60 60
        E 0 90 63 60
        E 0 90 74 60
        E 60 80 18 00
        E 0 80 48 00
        E 0 80 54 00
        E 0 80 60 00
        E 1 80 2a 00
        E 0 80 3f 00
        E 0 80 4b 00
        E 0 80 57 00
        E 0 80 63 00
        E 179 90 18 60
        E 0 90 2a 60
        E 0 90 54 60
        E 0 90 57 60
        E 0 90 60 60
        E 0 90 63 60
        E 59 80 2a 00
        E 0 80 57 00
        E 0 80 63 00
        E 1 80 18 00
        E 0 80 54 00
        E 0 80 60 00
        E 180 90 1a 60
        E 0 90 2a 60
        E 0 90 3d 60
        E 0 90 3f 60
        E 0 90 49 60
        E 0 90 4b 60
        E 0 90 55 60
        E 0 90 57 60
        E 0 90 61 60
        E 0 90 63 60
        E 59 80 2a 00
        E 0 80 3f 00
        E 0 80 4b 00
        E 0 80 57 00
        E 0 80 63 00
        E 1 80 1a 00
        E 0 80 3d 00
        E 0 80 49 00
        E 0 80 55 00
        E 0 80 61 00
        E 180 90 2a 60
        E 0 90 57 60
        E 0 90 63 60
        E 60 80 2a 00
        E 0 80 57 00
        E 0 80 63 00
        E 180 90 18 60
        E 0 90 2a 60
        E 0 90 3f 60
        E 0 90 48 60
        E 0 90 4b 60
        E 0 90 54 60
        E 0 90 57 60
        E 0 90 60 60
        E 0 90 63 60
        E 60 80 18 00
        E 0 80 48 00
        E 0 80 54 00
        E 0 80 60 00
        E 1 80 2a 00
        E 0 80 3f 00
        E 0 80 4b 00
        E 0 80 57 00
        E 0 80 63 00
        E 179 90 2a 60
        E 0 90 57 60
        E 0 90 63 60
        E 60 80 2a 00
        E 0 80 57 00
        E 0 80 63 00
        E 180 90 1a 60
        E 0 90 2a 60
        E 0 90 3d 60
        E 0 90 3f 60
        E 0 90 49 60
        E 0 90 4b 60
        E 0 90 55 60
        E 0 90 57 60
        E 0 90 61 60
        E 0 90 63 60
        E 59 80 2a 00
        E 0 80 3f 00
        E 0 80 4b 00
        E 0 80 57 00
        E 0 80 63 00
        E 1 80 1a 00
        E 0 80 3d 00
        E 0 80 49 00
        E 0 80 55 00
        E 0 80 61 00
        E 180 90 2a 60
        E 0 90 57 60
        E 0 90 63 60
        E 60 80 2a 00
        E 0 80 57 00
        E 0 80 63 00
        E 180 90 18 60
        E 0 90 2a 60
        E 0 90 3f 60
        E 0 90 48 60
        E 0 90 4b 60
        E 0 90 54 60
        E 0 90 57 60
        E 0 90 60 60
        E 0 90 63 60
        E 60 80 18 00
        E 0 80 48 00
        E 0 80 54 00
        E 0 80 60 00
        E 1 80 2a 00
        E 0 80 3f 00
        E 0 80 4b 00
        E 0 80 57 00
        E 0 80 63 00
        E 179 90 18 60
        E 0 90 2a 60
        E 0 90 54 60
        E 0 90 57 60
        E 0 90 60 60
        E 0 90 63 60
        E 59 80 2a 00
        E 0 80 57 00
        E 0 80 63 00
        E 1 80 18 00
        E 0 80 54 00
        E 0 80 60 00
        E 180 90 1a 60
        E 0 90 2a 60
        E 0 90 3d 60
        E 0 90 3f 60
        E 0 90 49 60
        E 0 90 4b 60
        E 0 90 55 60
        E 0 90 57 60
        E 0 90 61 60
        E 0 90 63 60
        E 59 80 2a 00
        E 0 80 3f 00
        E 0 80 4b 00
        E 0 80 57 00
        E 0 80 63 00
        E 1 80 1a 00
        E 0 80 3d 00
        E 0 80 49 00
        E 0 80 55 00
        E 0 80 61 00
        E 60 80 74 00
        E 120 90 2a 60
        E 0 90 57 60
        E 0 90 63 60
        E 60 80 2a 00
        E 0 80 57 00
        E 0 80 63 00
        E 180 90 18 60
        E 0 90 2a 60
        E 0 90 3f 60
        E 0 90 48 60
        E 0 90 4b 60
        E 0 90 54 60
        E 0 90 57 60
        E 0 90 60 60
        E 0 90 63 60
        E 60 80 18 00
        E 0 80 48 00
        E 0 80 54 00
        E 0 80 60 00
        E 1 80 2a 00
        E 0 80 3f 00
        E 0 80 4b 00
        E 0 80 57 00
        E 0 80 63 00
        E 179 90 2a 60
        E 0 90 57 60
        E 0 90 63 60
        E 60 80 2a 00
        E 0 80 57 00
        E 0 80 63 00
        E 180 90 1a 60
        E 0 90 2a 60
        E 0 90 3d 60
        E 0 90 3f 60
        E 0 90 49 60
        E 0 90 4b 60
        E 0 90 55 60
        E 0 90 57 60
        E 0 90 61 60
        E 0 90 63 60
        E 59 80 2a 00
        E 0 80 3f 00
        E 0 80 4b 00
        E 0 80 57 00
        E 0 80 63 00
        E 1 80 1a 00
        E 0 80 3d 00
        E 0 80 49 00
        E 0 80 55 00
        E 0 80 61 00
        E 180 90 2a 60
        E 0 90 57 60
        E 0 90 63 60
        E 60 80 2a 00
        E 0 80 57 00
        E 0 80 63 00
        E 180 90 18 60
        E 0 90 2a 60
        E 0 90 3f 60
        E 0 90 48 60
        E 0 90 4b 60
        E 0 90 54 60
        E 0 90 57 60
        E 0 90 60 60
        E 0 90 63 60
        E 60 80 18 00
        E 0 80 48 00
        E 0 80 54 00
        E 0 80 60 00
        E 1 80 2a 00
        E 0 80 3f 00
        E 0 80 4b 00
        E 0 80 57 00
        E 0 80 63 00
        E 179 90 18 60
        E 0 90 2a 60
        E 0 90 54 60
        E 0 90 57 60
        E 0 90 60 60
        E 0 90 63 60
        E 59 80 2a 00
        E 0 80 57 00
        E 0 80 63 00
        E 1 80 18 00
        E 0 80 54 00
        E 0 80 60 00
        E 180 90 1a 60
        E 0 90 2a 60
        E 0 90 3d 60
        E 0 90 3f 60
        E 0 90 49 60
        E 0 90 4b 60
        E 0 90 55 60
        E 0 90 57 60
        E 0 90 61 60
        E 0 90 63 60
        E 59 80 2a 00
        E 0 80 3f 00
        E 0 80 4b 00
        E 0 80 57 00
        E 0 80 63 00
        E 1 80 1a 00
        E 0 80 3d 00
        E 0 80 49 00
        E 0 80 55 00
        E 0 80 61 00
        E 180 90 2a 60
        E 0 90 57 60
        E 0 90 63 60
        E 60 80 2a 00
        E 0 80 57 00
        E 0 80 63 00
        E 180 90 18 60
        E 0 90 2a 60
        E 0 90 3f 60
        E 0 90 48 60
        E 0 90 4b 60
        E 0 90 54 60
        E 0 90 57 60
        E 0 90 60 60
        E 0 90 63 60
        E 60 80 18 00
        E 0 80 48 00
        E 0 80 54 00
        E 0 80 60 00
        E 1 80 2a 00
        E 0 80 3f 00
        E 0 80 4b 00
        E 0 80 57 00
        E 0 80 63 00
        E 179 90 2a 60
        E 0 90 57 60
        E 0 90 63 60
        E 60 80 2a 00
        E 0 80 57 00
        E 0 80 63 00
        E 180 90 1a 60
        E 0 90 2a 60
        E 0 90 3d 60
        E 0 90 3f 60
        E 0 90 49 60
        E 0 90 4b 60
        E 0 90 55 60
        E 0 90 57 60
        E 0 90 61 60
        E 0 90 63 60
        E 59 80 2a 00
        E 0 80 3f 00
        E 0 80 4b 00
        E 0 80 57 00
        E 0 80 63 00
        E 1 80 1a 00
        E 0 80 3d 00
        E 0 80 49 00
        E 0 80 55 00
        E 0 80 61 00
        E 180 90 2a 60
        E 0 90 57 60
        E 0 90 63 60
        E 60 80 2a 00
        E 0 80 57 00
        E 0 80 63 00
        E 180 90 18 60
        E 0 90 2a 60
        E 0 90 3f 60
        E 0 90 48 60
        E 0 90 4b 60
        E 0 90 54 60
        E 0 90 57 60
        E 0 90 60 60
        E 0 90 63 60
        E 60 80 18 00
        E 0 80 48 00
        E 0 80 54 00
        E 0 80 60 00
        E 1 80 2a 00
        E 0 80 3f 00
        E 0 80 4b 00
        E 0 80 57 00
        E 0 80 63 00
        E 179 90 18 60
        E 0 90 2a 60
        E 0 90 54 60
        E 0 90 57 60
        E 0 90 60 60
        E 0 90 63 60
        E 59 80 2a 00
        E 0 80 57 00
        E 0 80 63 00
        E 1 80 18 00
        E 0 80 54 00
        E 0 80 60 00
        E 180 90 1a 60
        E 0 90 2a 60
        E 0 90 3d 60
        E 0 90 3f 60
        E 0 90 49 60
        E 0 90 4b 60
        E 0 90 55 60
        E 0 90 57 60
        E 0 90 61 60
        E 0 90 63 60
        E 59 80 2a 00
        E 0 80 3f 00
        E 0 80 4b 00
        E 0 80 57 00
        E 0 80 63 00
        E 1 80 1a 00
        E 0 80 3d 00
        E 0 80 49 00
        E 0 80 55 00
        E 0 80 61 00
        E 180 90 2a 60
        E 0 90 57 60
        E 0 90 63 60
        E 60 80 2a 00
        E 0 80 57 00
        E 0 80 63 00
        E 180 90 18 60
        E 0 90 2a 60
        E 0 90 3f 60
        E 0 90 48 60
        E 0 90 4b 60
        E 0 90 54 60
        E 0 90 57 60
        E 0 90 60 60
        E 0 90 63 60
        E 60 80 18 00
        E 0 80 48 00
        E 0 80 54 00
        E 0 80 60 00
        E 1 80 2a 00
        E 0 80 3f 00
        E 0 80 4b 00
        E 0 80 57 00
        E 0 80 63 00
        E 179 90 2a 60
        E 0 90 57 60
        E 0 90 63 60
        E 60 80 2a 00
        E 0 80 57 00
        E 0 80 63 00
        E 180 90 1a 60
        E 0 90 2a 60
        E 0 90 3d 60
        E 0 90 3f 60
        E 0 90 49 60
        E 0 90 4b 60
        E 0 90 55 60
        E 0 90 57 60
        E 0 90 61 60
        E 0 90 63 60
        E 59 80 2a 00
        E 0 80 3f 00
        E 0 80 4b 00
        E 0 80 57 00
        E 0 80 63 00
        E 1 80 1a 00
        E 0 80 3d 00
        E 0 80 49 00
        E 0 80 55 00
        E 0 80 61 00
        E 180 90 2a 60
        E 0 90 57 60
        E 0 90 63 60
        E 60 80 2a 00
        E 0 80 57 00
        E 0 80 63 00
        E 180 90 18 60
        E 0 90 2a 60
        E 0 90 3f 60
        E 0 90 48 60
        E 0 90 4b 60
        E 0 90 54 60
        E 0 90 57 60
        E 0 90 60 60
        E 0 90 63 60
        E 0 90 78 60
        E 0 90 79 60
        E 0 90 7a 60
        E 0 90 7b 60
        E 0 90 7c 60
        E 60 80 18 00
        E 0 80 48 00
        E 0 80 54 00
        E 0 80 60 00
        E 1 80 2a 00
        E 0 80 3f 00
        E 0 80 4b 00
        E 0 80 57 00
        E 0 80 63 00
        E 179 90 18 60
        E 0 90 2a 60
        E 0 90 54 60
        E 0 90 57 60
        E 0 90 60 60
        E 0 90 63 60
        E 59 80 2a 00
        E 0 80 57 00
        E 0 80 63 00
        E 1 80 18 00
        E 0 80 54 00
        E 0 80 60 00
        E 180 90 1a 60
        E 0 90 2a 60
        E 0 90 3d 60
        E 0 90 3f 60
        E 0 90 49 60
        E 0 90 4b 60
        E 0 90 55 60
        E 0 90 57 60
        E 0 90 61 60
        E 0 90 63 60
        E 59 80 2a 00
        E 0 80 3f 00
        E 0 80 4b 00
        E 0 80 57 00
        E 0 80 63 00
        E 1 80 1a 00
        E 0 80 3d 00
        E 0 80 49 00
        E 0 80 55 00
        E 0 80 61 00
        E 180 90 2a 60
        E 0 90 57 60
        E 0 90 63 60
        E 60 80 2a 00
        E 0 80 57 00
        E 0 80 63 00
        E 180 80 78 00
        E 0 80 79 00
        E 0 80 7a 00
        E 0 80 7b 00
        E 0 80 7c 00
        E 0 90 18 60
        E 0 90 22 60
        E 0 90 26 60
        E 0 90 3f 60
        E 0 90 40 60
        E 0 90 48 60
        E 0 90 4b 60
        E 0 90 4c 60
        E 0 90 54 60
        E 0 90 57 60
        E 0 90 58 60
        E 0 90 60 60
        E 0 90 63 60
        E 0 90 64 60
        E 60 80 18 00
        E 0 80 26 00
        E 0 80 40 00
        E 0 80 48 00
        E 0 80 4c 00
        E 0 80 54 00
        E 0 80 58 00
        E 0 80 60 00
        E 0 80 64 00
        E 1 80 22 00
        E 0 80 3f 00
        E 0 80 4b 00
        E 0 80 57 00
        E 0 80 63 00
        E 179 90 2a 60
        E 0 90 57 60
        E 0 90 63 60
        E 60 80 2a 00
        E 0 80 57 00
        E 0 80 63 00
        E 180 90 1a 60
        E 0 90 2a 60
        E 0 90 3d 60
        E 0 90 3f 60
        E 0 90 49 60
        E 0 90 4b 60
        E 0 90 55 60
        E 0 90 57 60
        E 0 90 61 60
        E 0 90 63 60
        E 59 80 2a 00
        E 0 80 3f 00
        E 0 80 4b 00
        E 0 80 57 00
        E 0 80 63 00
        E 1 80 1a 00
        E 0 80 3d 00
        E 0 80 49 00
        E 0 80 55 00
        E 0 80 61 00
        E 180 90 2a 60
        E 0 90 57 60
        E 0 90 63 60
        E 60 80 2a 00
        E 0 80 57 00
        E 0 80 63 00
        E 180 90 18 60
        E 0 90 2a 60
        E 0 90 3f 60
        E 0 90 48 60
        E 0 90 4b 60
        E 0 90 54 60
        E 0 90 57 60
        E 0 90 60 60
        E 0 90 63 60
        E 60 80 18 00
        E 0 80 48 00
        E 0 80 54 00
        E 0 80 60 00
        E 1 80 2a 00
        E 0 80 3f 00
        E 0 80 4b 00
        E 0 80 57 00
        E 0 80 63 00
        E 179 90 18 60
        E 0 90 2a 60
        E 0 90 54 60
        E 0 90 57 60
        E 0 90 60 60
        E 0 90 63 60
        E 59 80 2a 00
        E 0 80 57 00
        E 0 80 63 00
        E 1 80 18 00
        E 0 80 54 00
        E 0 80 60 00
        E 180 90 1a 60
        E 0 90 2a 60
        E 0 90 3d 60
        E 0 90 3f 60
        E 0 90 49 60
        E 0 90 4b 60
        E 0 90 55 60
        E 0 90 57 60
        E 0 90 61 60
        E 0 90 63 60
        E 59 80 2a 00
        E 0 80 3f 00
        E 0 80 4b 00
        E 0 80 57 00
        E 0 80 63 00
        E 1 80 1a 00
        E 0 80 3d 00
        E 0 80 49 00
        E 0 80 55 00
        E 0 80 61 00
        E 180 90 2a 60
        E 0 90 57 60
        E 0 90 63 60
        E 60 80 2a 00
        E 0 80 57 00
        E 0 80 63 00
        E 180 90 18 60
        E 0 90 2a 60
        E 0 90 3f 60
        E 0 90 48 60
        E 0 90 4b 60
        E 0 90 54 60
        E 0 90 57 60
        E 0 90 60 60
        E 0 90 63 60
        E 60 80 18 00
        E 0 80 48 00
        E 0 80 54 00
        E 0 80 60 00
        E 1 80 2a 00
        E 0 80 3f 00
        E 0 80 4b 00
        E 0 80 57 00
        E 0 80 63 00
        E 179 90 2a 60
        E 0 90 57 60
        E 0 90 63 60
        E 60 80 2a 00
        E 0 80 57 00
        E 0 80 63 00
        E 180 90 1a 60
        E 0 90 2a 60
        E 0 90 3d 60
        E 0 90 3f 60
        E 0 90 49 60
        E 0 90 4b 60
        E 0 90 55 60
        E 0 90 57 60
        E 0 90 61 60
        E 0 90 63 60
        E 59 80 2a 00
        E 0 80 3f 00
        E 0 80 4b 00
        E 0 80 57 00
        E 0 80 63 00
        E 1 80 1a 00
        E 0 80 3d 00
        E 0 80 49 00
        E 0 80 55 00
        E 0 80 61 00
        E 180 90 2a 60
        E 0 90 57 60
        E 0 90 63 60
        E 60 80 2a 00
        E 0 80 57 00
        E 0 80 63 00
        E 180 90 18 60
        E 0 90 2a 60
        E 0 90 3f 60
        E 0 90 48 60
        E 0 90 4b 60
        E 0 90 54 60
        E 0 90 57 60
        E 0 90 60 60
        E 0 90 63 60
        E 60 80 18 00
        E 0 80 48 00
        E 0 80 54 00
        E 0 80 60 00
        E 1 80 2a 00
        E 0 80 3f 00
        E 0 80 4b 00
        E 0 80 57 00
        E 0 80 63 00
        E 179 90 18 60
        E 0 90 2a 60
        E 0 90 54 60
        E 0 90 57 60
        E 0 90 60 60
        E 0 90 63 60
        E 59 80 2a 00
        E 0 80 57 00
        E 0 80 63 00
        E 1 80 18 00
        E 0 80 54 00
        E 0 80 60 00
        E 180 90 1a 60
        E 0 90 2a 60
        E 0 90 3d 60
        E 0 90 3f 60
        E 0 90 49 60
        E 0 90 4b 60
        E 0 90 55 60
        E 0 90 57 60
        E 0 90 61 60
        E 0 90 63 60
        E 59 80 2a 00
        E 0 80 3f 00
        E 0 80 4b 00
        E 0 80 57 00
        E 0 80 63 00
        E 1 80 1a 00
        E 0 80 3d 00
        E 0 80 49 00
        E 0 80 55 00
        E 0 80 61 00
        E 180 90 2a 60
        E 0 90 57 60
        E 0 90 63 60
        E 60 80 2a 00
        E 0 80 57 00
        E 0 80 63 00
        E 180 90 18 60
        E 0 90 2a 60
        E 0 90 3f 60
        E 0 90 48 60
        E 0 90 4b 60
        E 0 90 54 60
        E 0 90 57 60
        E 0 90 60 60
        E 0 90 63 60
        E 60 80 18 00
        E 0 80 48 00
        E 0 80 54 00
        E 0 80 60 00
        E 1 80 2a 00
        E 0 80 3f 00
        E 0 80 4b 00
        E 0 80 57 00
        E 0 80 63 00
        E 179 90 2a 60
        E 0 90 57 60
        E 0 90 63 60
        E 60 80 2a 00
        E 0 80 57 00
        E 0 80 63 00
        E 180 90 1a 60
        E 0 90 2a 60
        E 0 90 3d 60
        E 0 90 3f 60
        E 0 90 49 60
        E 0 90 4b 60
        E 0 90 55 60
        E 0 90 57 60
        E 0 90 61 60
        E 0 90 63 60
        E 59 80 2a 00
        E 0 80 3f 00
        E 0 80 4b 00
        E 0 80 57 00
        E 0 80 63 00
        E 1 80 1a 00
        E 0 80 3d 00
        E 0 80 49 00
        E 0 80 55 00
        E 0 80 61 00
        E 180 90 2a 60
        E 0 90 57 60
        E 0 90 63 60
        E 60 80 2a 00
        E 0 80 57 00
        E 0 80 63 00
        E 180 90 18 60
        E 0 90 2a 60
        E 0 90 3f 60
        E 0 90 48 60
        E 0 90 4b 60
        E 0 90 54 60
        E 0 90 57 60
        E 0 90 60 60
        E 0 90 63 60
        E 60 80 18 00
        E 0 80 48 00
        E 0 80 54 00
        E 0 80 60 00
        E 1 80 2a 00
        E 0 80 3f 00
        E 0 80 4b 00
        E 0 80 57 00
        E 0 80 63 00
        E 179 90 18 60
        E 0 90 2a 60
        E 0 90 54 60
        E 0 90 57 60
        E 0 90 60 60
        E 0 90 63 60
        E 59 80 2a 00
        E 0 80 57 00
        E 0 80 63 00
        E 1 80 18 00
        E 0 80 54 00
        E 0 80 60 00
        E 180 90 1a 60
        E 0 90 2a 60
        E 0 90 3d 60
        E 0 90 3f 60
        E 0 90 49 60
        E 0 90 4b 60
        E 0 90 55 60
        E 0 90 57 60
        E 0 90 61 60
        E 0 90 63 60
        E 59 80 2a 00
        E 0 80 3f 00
        E 0 80 4b 00
        E 0 80 57 00
        E 0 80 63 00
        E 1 80 1a 00
        E 0 80 3d 00
        E 0 80 49 00
        E 0 80 55 00
        E 0 80 61 00
        E 180 90 2a 60
        E 0 90 57 60
        E 0 90 63 60
        E 60 80 2a 00
        E 0 80 57 00
        E 0 80 63 00
        E 180 90 18 60
        E 0 90 2a 60
        E 0 90 3f 60
        E 0 90 48 60
        E 0 90 4b 60
        E 0 90 54 60
        E 0 90 57 60
        E 0 90 60 60
        E 0 90 63 60
        E 60 80 18 00
        E 0 80 48 00
        E 0 80 54 00
        E 0 80 60 00
        E 1 80 2a 00
        E 0 80 3f 00
        E 0 80 4b 00
        E 0 80 57 00
        E 0 80 63 00
        E 179 90 2a 60
        E 0 90 57 60
        E 0 90 63 60
        E 60 80 2a 00
        E 0 80 57 00
        E 0 80 63 00
        E 180 90 1a 60
        E 0 90 2a 60
        E 0 90 3d 60
        E 0 90 3f 60
        E 0 90 49 60
        E 0 90 4b 60
        E 0 90 55 60
        E 0 90 57 60
        E 0 90 61 60
        E 0 90 63 60
        E 59 80 2a 00
        E 0 80 3f 00
        E 0 80 4b 00
        E 0 80 57 00
        E 0 80 63 00
        E 1 80 1a 00
        E 0 80 3d 00
        E 0 80 49 00
        E 0 80 55 00
        E 0 80 61 00
        E 180 90 2a 60
        E 0 90 57 60
        E 0 90 63 60
        E 60 80 2a 00
        E 0 80 57 00
        E 0 80 63 00
        E 180 90 18 60
        E 0 90 2a 60
        E 0 90 3f 60
        E 0 90 48 60
        E 0 90 4b 60
        E 0 90 54 60
        E 0 90 57 60
        E 0 90 60 60
        E 0 90 63 60
        E 60 80 18 00
        E 0 80 48 00
        E 0 80 54 00
        E 0 80 60 00
        E 1 80 2a 00
        E 0 80 3f 00
        E 0 80 4b 00
        E 0 80 57 00
        E 0 80 63 00
        E 179 90 18 60
        E 0 90 2a 60
        E 0 90 54 60
        E 0 90 57 60
        E 0 90 60 60
        E 0 90 63 60
        E 59 80 2a 00
        E 0 80 57 00
        E 0 80 63 00
        E 1 80 18 00
        E 0 80 54 00
        E 0 80 60 00
        E 180 90 1a 60
        E 0 90 2a 60
        E 0 90 3d 60
        E 0 90 3f 60
        E 0 90 49 60
        E 0 90 4b 60
        E 0 90 55 60
        E 0 90 57 60
        E 0 90 61 60
        E 0 90 63 60
        E 59 80 2a 00
        E 0 80 3f 00
        E 0 80 4b 00
        E 0 80 57 00
        E 0 80 63 00
        E 1 80 1a 00
        E 0 80 3d 00
        E 0 80 49 00
        E 0 80 55 00
        E 0 80 61 00
        E 180 90 2a 60
        E 0 90 57 60
        E 0 90 63 60
        E 60 80 2a 00
        E 0 80 57 00
        E 0 80 63 00
        E 180 90 18 60
        E 0 90 2a 60
        E 0 90 3f 60
        E 0 90 48 60
        E 0 90 4b 60
        E 0 90 54 60
        E 0 90 57 60
        E 0 90 60 60
        E 0 90 63 60
        E 60 80 18 00
        E 0 80 48 00
        E 0 80 54 00
        E 0 80 60 00
        E 1 80 2a 00
        E 0 80 3f 00
        E 0 80 4b 00
        E 0 80 57 00
        E 0 80 63 00
        E 179 90 2a 60
        E 0 90 57 60
        E 0 90 63 60
        E 60 80 2a 00
        E 0 80 57 00
        E 0 80 63 00
        E 180 90 1a 60
        E 0 90 2a 60
        E 0 90 3d 60
        E 0 90 3f 60
        E 0 90 49 60
        E 0 90 4b 60
        E 0 90 55 60
        E 0 90 57 60
        E 0 90 61 60
        E 0 90 63 60
        E 59 80 2a 00
        E 0 80 3f 00
        E 0 80 4b 00
        E 0 80 57 00
        E 0 80 63 00
        E 1 80 1a 00
        E 0 80 3d 00
        E 0 80 49 00
        E 0 80 55 00
        E 0 80 61 00
        E 180 90 2a 60
        E 0 90 57 60
        E 0 90 63 60
        E 60 80 2a 00
        E 0 80 57 00
        E 0 80 63 00
        E 180 90 18 60
        E 0 90 2a 60
        E 0 90 3f 60
        E 0 90 48 60
        E 0 90 4b 60
        E 0 90 54 60
        E 0 90 57 60
        E 0 90 60 60
        E 0 90 63 60
        E 60 80 18 00
        E 0 80 48 00
        E 0 80 54 00
        E 0 80 60 00
        E 1 80 2a 00
        E 0 80 3f 00
        E 0 80 4b 00
        E 0 80 57 00
        E 0 80 63 00
        E 179 90 18 60
        E 0 90 2a 60
        E 0 90 54 60
        E 0 90 57 60
        E 0 90 60 60
        E 0 90 63 60
        E 59 80 2a 00
        E 0 80 57 00
        E 0 80 63 00
        E 1 80 18 00
        E 0 80 54 00
        E 0 80 60 00
        E 180 90 1a 60
        E 0 90 2a 60
        E 0 90 3d 60
        E 0 90 3f 60
        E 0 90 49 60
        E 0 90 4b 60
        E 0 90 55 60
        E 0 90 57 60
        E 0 90 61 60
        E 0 90 63 60
        E 59 80 2a 00
        E 0 80 3f 00
        E 0 80 4b 00
        E 0 80 57 00
        E 0 80 63 00
        E 1 80 1a 00
        E 0 80 3d 00
        E 0 80 49 00
        E 0 80 55 00
        E 0 80 61 00
        E 180 90 2a 60
        E 0 90 57 60
        E 0 90 63 60
        E 60 80 2a 00
        E 0 80 57 00
        E 0 80 63 00
        E 180 90 18 60
        E 0 90 2a 60
        E 0 90 3f 60
        E 0 90 48 60
        E 0 90 4b 60
        E 0 90 54 60
        E 0 90 57 60
        E 0 90 60 60
        E 0 90 63 60
        E 60 80 18 00
        E 0 80 48 00
        E 0 80 54 00
        E 0 80 60 00
        E 1 80 2a 00
        E 0 80 3f 00
        E 0 80 4b 00
        E 0 80 57 00
        E 0 80 63 00
        E 179 90 2a 60
        E 0 90 57 60
        E 0 90 63 60
        E 60 80 2a 00
        E 0 80 57 00
        E 0 80 63 00
        E 180 90 1a 60
        E 0 90 2a 60
        E 0 90 3d 60
        E 0 90 3f 60
        E 0 90 49 60
        E 0 90 4b 60
        E 0 90 55 60
        E 0 90 57 60
        E 0 90 61 60
        E 0 90 63 60
        E 59 80 2a 00
        E 0 80 3f 00
        E 0 80 4b 00
        E 0 80 57 00
        E 0 80 63 00
        E 1 80 1a 00
        E 0 80 3d 00
        E 0 80 49 00
        E 0 80 55 00
        E 0 80 61 00
        E 180 90 2a 60
        E 0 90 57 60
        E 0 90 63 60
        E 60 80 2a 00
        E 0 80 57 00
        E 0 80 63 00
        E 180 90 18 60
        E 0 90 2a 60
        E 0 90 3f 60
        E 0 90 48 60
        E 0 90 4b 60
        E 0 90 54 60
        E 0 90 57 60
        E 0 90 60 60
        E 0 90 63 60
        E 60 80 18 00
        E 0 80 48 00
        E 0 80 54 00
        E 0 80 60 00
        E 1 80 2a 00
        E 0 80 3f 00
        E 0 80 4b 00
        E 0 80 57 00
        E 0 80 63 00
        E 179 90 18 60
        E 0 90 2a 60
        E 0 90 54 60
        E 0 90 57 60
        E 0 90 60 60
        E 0 90 63 60
        E 59 80 2a 00
        E 0 80 57 00
        E 0 80 63 00
        E 1 80 18 00
        E 0 80 54 00
        E 0 80 60 00
        E 180 90 1a 60
        E 0 90 2a 60
        E 0 90 3d 60
        E 0 90 3f 60
        E 0 90 49 60
        E 0 90 4b 60
        E 0 90 55 60
        E 0 90 57 60
        E 0 90 61 60
        E 0 90 63 60
        E 59 80 2a 00
        E 0 80 3f 00
        E 0 80 4b 00
        E 0 80 57 00
        E 0 80 63 00
        E 1 80 1a 00
        E 0 80 3d 00
        E 0 80 49 00
        E 0 80 55 00
        E 0 80 61 00
        E 180 90 2a 60
        E 0 90 57 60
        E 0 90 63 60
        E 60 80 2a 00
        E 0 80 57 00
        E 0 80 63 00
        E 180 90 18 60
        E 0 90 2a 60
        E 0 90 3f 60
        E 0 90 48 60
        E 0 90 4b 60
        E 0 90 54 60
        E 0 90 57 60
        E 0 90 60 60
        E 0 90 63 60
        E 60 80 18 00
        E 0 80 48 00
        E 0 80 54 00
        E 0 80 60 00
        E 1 80 2a 00
        E 0 80 3f 00
        E 0 80 4b 00
        E 0 80 57 00
        E 0 80 63 00
        E 179 90 2a 60
        E 0 90 57 60
        E 0 90 63 60
        E 60 80 2a 00
        E 0 80 57 00
        E 0 80 63 00
        E 180 90 1a 60
        E 0 90 2a 60
        E 0 90 3d 60
        E 0 90 3f 60
        E 0 90 49 60
        E 0 90 4b 60
        E 0 90 55 60
        E 0 90 57 60
        E 0 90 61 60
        E 0 90 63 60
        E 59 80 2a 00
        E 0 80 3f 00
        E 0 80 4b 00
        E 0 80 57 00
        E 0 80 63 00
        E 1 80 1a 00
        E 0 80 3d 00
        E 0 80 49 00
        E 0 80 55 00
        E 0 80 61 00
        E 180 90 2a 60
        E 0 90 57 60
        E 0 90 63 60
        E 60 80 2a 00
        E 0 80 57 00
        E 0 80 63 00
        E 180 90 18 60
        E 0 90 2a 60
        E 0 90 3f 60
        E 0 90 48 60
        E 0 90 4b 60
        E 0 90 54 60
        E 0 90 57 60
        E 0 90 60 60
        E 0 90 63 60
        E 60 80 18 00
        E 0 80 48 00
        E 0 80 54 00
        E 0 80 60 00
        E 1 80 2a 00
        E 0 80 3f 00
        E 0 80 4b 00
        E 0 80 57 00
        E 0 80 63 00
        E 179 90 18 60
        E 0 90 2a 60
        E 0 90 54 60
        E 0 90 57 60
        E 0 90 60 60
        E 0 90 63 60
        E 59 80 2a 00
        E 0 80 57 00
        E 0 80 63 00
        E 1 80 18 00
        E 0 80 54 00
        E 0 80 60 00
        E 180 90 1a 60
        E 0 90 2a 60
        E 0 90 3d 60
        E 0 90 3f 60
        E 0 90 49 60
        E 0 90 4b 60
        E 0 90 55 60
        E 0 90 57 60
        E 0 90 61 60
        E 0 90 63 60
        E 59 80 2a 00
        E 0 80 3f 00
        E 0 80 4b 00
        E 0 80 57 00
        E 0 80 63 00
        E 1 80 1a 00
        E 0 80 3d 00
        E 0 80 49 00
        E 0 80 55 00
        E 0 80 61 00
        E 180 90 2a 60
        E 0 90 57 60
        E 0 90 63 60
        E 60 80 2a 00
        E 0 80 57 00
        E 0 80 63 00
        E 180 90 18 60
        E 0 90 2a 60
        E 0 90 3f 60
        E 0 90 48 60
        E 0 90 4b 60
        E 0 90 54 60
        E 0 90 57 60
        E 0 90 60 60
        E 0 90 63 60
        E 60 80 18 00
        E 0 80 48 00
        E 0 80 54 00
        E 0 80 60 00
        E 1 80 2a 00
        E 0 80 3f 00
        E 0 80 4b 00
        E 0 80 57 00
        E 0 80 63 00
        E 179 90 2a 60
        E 0 90 57 60
        E 0 90 63 60
        E 60 80 2a 00
        E 0 80 57 00
        E 0 80 63 00
        E 180 90 1a 60
        E 0 90 2a 60
        E 0 90 3d 60
        E 0 90 3f 60
        E 0 90 49 60
        E 0 90 4b 60
        E 0 90 55 60
        E 0 90 57 60
        E 0 90 61 60
        E 0 90 63 60
        E 59 80 2a 00
        E 0 80 3f 00
        E 0 80 4b 00
        E 0 80 57 00
        E 0 80 63 00
        E 1 80 1a 00
        E 0 80 3d 00
        E 0 80 49 00
        E 0 80 55 00
        E 0 80 61 00
        E 180 90 2a 60
        E 0 90 57 60
        E 0 90 63 60
        E 60 80 2a 00
        E 0 80 57 00
        E 0 80 63 00
        E 180 90 18 60
        E 0 90 2a 60
        E 0 90 3f 60
        E 0 90 48 60
        E 0 90 4b 60
        E 0 90 54 60
        E 0 90 57 60
        E 0 90 60 60
        E 0 90 63 60
        E 60 80 18 00
        E 0 80 48 00
        E 0 80 54 00
        E 0 80 60 00
        E 1 80 2a 00
        E 0 80 3f 00
        E 0 80 4b 00
        E 0 80 57 00
        E 0 80 63 00
        E 179 90 18 60
        E 0 90 2a 60
        E 0 90 54 60
        E 0 90 57 60
        E 0 90 60 60
        E 0 90 63 60
        E 59 80 2a 00
        E 0 80 57 00
        E 0 80 63 00
        E 1 80 18 00
        E 0 80 54 00
        E 0 80 60 00
        E 180 90 1a 60
        E 0 90 2a 60
        E 0 90 3d 60
        E 0 90 3f 60
        E 0 90 49 60
        E 0 90 4b 60
        E 0 90 55 60
        E 0 90 57 60
        E 0 90 61 60
        E 0 90 63 60
        E 59 80 2a 00
        E 0 80 3f 00
        E 0 80 4b 00
        E 0 80 57 00
        E 0 80 63 00
        E 1 80 1a 00
        E 0 80 3d 00
        E 0 80 49 00
        E 0 80 55 00
        E 0 80 61 00
        E 180 90 2a 60
        E 0 90 57 60
        E 0 90 63 60
        E 60 80 2a 00
        E 0 80 57 00
        E 0 80 63 00
        E 180 90 18 60
        E 0 90 33 60
        E 0 90 40 60
        E 0 90 4c 60
        E 0 90 54 60
        E 0 90 58 60
        E 0 90 60 60
        E 0 90 64 60
        E 0 90 70 60
        E 60 80 18 00
        E 0 80 33 00
        E 0 80 40 00
        E 0 80 4c 00
        E 0 80 54 00
        E 0 80 58 00
        E 0 80 60 00
        E 0 80 64 00
        E 0 80 70 00
        E 180 90 33 60
        E 0 90 58 60
        E 0 90 64 60
        E 0 90 70 60
        E 60 80 33 00
        E 0 80 58 00
        E 0 80 64 00
        E 0 80 70 00
        E 180 90 1a 60
        E 0 90 33 60
        E 0 90 3d 60
        E 0 90 40 60
        E 0 90 49 60
        E 0 90 4c 60
        E 0 90 55 60
        E 0 90 58 60
        E 0 90 61 60
        E 0 90 64 60
        E 0 90 70 60
        E 60 80 1a 00
        E 0 80 33 00
        E 0 80 3d 00
        E 0 80 40 00
        E 0 80 49 00
        E 0 80 4c 00
        E 0 80 55 00
        E 0 80 58 00
        E 0 80 61 00
        E 0 80 64 00
        E 0 80 70 00
        E 180 90 33 60
        E 0 90 58 60
        E 0 90 64 60
        E 0 90 70 60
        E 60 80 33 00
        E 0 80 58 00
        E 0 80 64 00
        E 0 80 70 00
        E 180 90 18 60
        E 0 90 33 60
        E 0 90 40 60
        E 0 90 4c 60
        E 0 90 54 60
        E 0 90 58 60
        E 0 90 60 60
        E 0 90 64 60
        E 0 90 70 60
        E 60 80 18 00
        E 0 80 33 00
        E 0 80 40 00
        E 0 80 4c 00
        E 0 80 54 00
        E 0 80 58 00
        E 0 80 60 00
        E 0 80 64 00
        E 0 80 70 00
        E 180 90 33 60
        E 0 90 58 60
        E 0 90 64 60
        E 0 90 70 60
        E 60 80 33 00
        E 0 80 58 00
        E 0 80 64 00
        E 0 80 70 00
        E 180 90 2e 60
        E 0 90 31 60
        E 0 90 3e 60
        E 0 90 3f 60
        E 0 90 4a 60
        E 0 90 4b 60
        E 0 90 56 60
        E 0 90 57 60
        E 0 90 62 60
        E 0 90 63 60
        E 0 90 6e 60
        E 0 90 6f 60
        E 60 80 2e 00
        E 0 80 31 00
        E 0 80 3e 00
        E 0 80 3f 00
        E 0 80 4a 00
        E 0 80 4b 00
        E 0 80 56 00
        E 0 80 57 00
        E 0 80 62 00
        E 0 80 63 00
        E 0 80 6e 00
        E 0 80 6f 00
        E 180 90 2e 60
        E 0 90 31 60
        E 0 90 56 60
        E 0 90 57 60
        E 0 90 62 60
        E 0 90 63 60
        E 0 90 6e 60
        E 0 90 6f 60
        E 60 80 2e 00
        E 0 80 57 00
        E 0 80 63 00
        E 0 80 6f 00
        E 1 80 31 00
        E 0 80 56 00
        E 0 80 62 00
        E 0 80 6e 00
        E 179 90 18 60
        E 0 90 33 60
        E 0 90 40 60
        E 0 90 4c 60
        E 0 90 54 60
        E 0 90 58 60
        E 0 90 60 60
        E 0 90 64 60
        E 0 90 70 60
        E 60 80 18 00
        E 0 80 33 00
        E 0 80 40 00
        E 0 80 4c 00
        E 0 80 54 00
        E 0 80 58 00
        E 0 80 60 00
        E 0 80 64 00
        E 0 80 70 00
        E 180 90 33 60
        E 0 90 58 60
        E 0 90 64 60
        E 0 90 70 60
        E 60 80 33 00
        E 0 80 58 00
        E 0 80 64 00
        E 0 80 70 00
        E 180 90 1a 60
        E 0 90 33 60
        E 0 90 3d 60
        E 0 90 40 60
        E 0 90 49 60
        E 0 90 4c 60
        E 0 90 55 60
        E 0 90 58 60
        E 0 90 61 60
        E 0 90 64 60
        E 0 90 70 60
        E 60 80 1a 00
        E 0 80 33 00
        E 0 80 3d 00
        E 0 80 40 00
        E 0 80 49 00
        E 0 80 4c 00
        E 0 80 55 00
        E 0 80 58 00
        E 0 80 61 00
        E 0 80 64 00
        E 0 80 70 00
        E 180 90 33 60
        E 0 90 58 60
        E 0 90 64 60
        E 0 90 70 60
        E 60 80 33 00
        E 0 80 58 00
        E 0 80 64 00
        E 0 80 70 00
        E 180 90 18 60
        E 0 90 33 60
        E 0 90 40 60
        E 0 90 4c 60
        E 0 90 54 60
        E 0 90 58 60
        E 0 90 60 60
        E 0 90 64 60
        E 0 90 70 60
        E 60 80 18 00
        E 0 80 33 00
        E 0 80 40 00
        E 0 80 4c 00
        E 0 80 54 00
        E 0 80 58 00
        E 0 80 60 00
        E 0 80 64 00
        E 0 80 70 00
        E 180 90 33 60
        E 0 90 58 60
        E 0 90 64 60
        E 0 90 70 60
        E 60 80 33 00
        E 0 80 58 00
        E 0 80 64 00
        E 0 80 70 00
        E 180 90 2e 60
        E 0 90 31 60
        E 0 90 3e 60
        E 0 90 3f 60
        E 0 90 4a 60
        E 0 90 4b 60
        E 0 90 56 60
        E 0 90 57 60
        E 0 90 62 60
        E 0 90 63 60
        E 0 90 6e 60
        E 0 90 6f 60
        E 60 80 2e 00
        E 0 80 31 00
        E 0 80 3e 00
        E 0 80 3f 00
        E 0 80 4a 00
        E 0 80 4b 00
        E 0 80 56 00
        E 0 80 57 00
        E 0 80 62 00
        E 0 80 63 00
        E 0 80 6e 00
        E 0 80 6f 00
        E 180 90 2e 60
        E 0 90 31 60
        E 0 90 56 60
        E 0 90 57 60
        E 0 90 62 60
        E 0 90 63 60
        E 0 90 6e 60
        E 0 90 6f 60
        E 60 80 2e 00
        E 0 80 57 00
        E 0 80 63 00
        E 0 80 6f 00
        E 1 80 31 00
        E 0 80 56 00
        E 0 80 62 00
        E 0 80 6e 00
        E 179 90 18 60
        E 0 90 33 60
        E 0 90 40 60
        E 0 90 4c 60
        E 0 90 54 60
        E 0 90 58 60
        E 0 90 60 60
        E 0 90 64 60
        E 0 90 70 60
        E 60 80 18 00
        E 0 80 33 00
        E 0 80 40 00
        E 0 80 4c 00
        E 0 80 54 00
        E 0 80 58 00
        E 0 80 60 00
        E 0 80 64 00
        E 0 80 70 00
        E 180 90 33 60
        E 0 90 58 60
        E 0 90 64 60
        E 0 90 70 60
        E 60 80 33 00
        E 0 80 58 00
        E 0 80 64 00
        E 0 80 70 00
        E 180 90 1a 60
        E 0 90 33 60
        E 0 90 3d 60
        E 0 90 40 60
        E 0 90 49 60
        E 0 90 4c 60
        E 0 90 55 60
        E 0 90 58 60
        E 0 90 61 60
        E 0 90 64 60
        E 0 90 70 60
        E 60 80 1a 00
        E 0 80 33 00
        E 0 80 3d 00
        E 0 80 40 00
        E 0 80 49 00
        E 0 80 4c 00
        E 0 80 55 00
        E 0 80 58 00
        E 0 80 61 00
        E 0 80 64 00
        E 0 80 70 00
        E 180 90 33 60
        E 0 90 58 60
        E 0 90 64 60
        E 0 90 70 60
        E 60 80 33 00
        E 0 80 58 00
        E 0 80 64 00
        E 0 80 70 00
        E 180 90 18 60
        E 0 90 33 60
        E 0 90 40 60
        E 0 90 4c 60
        E 0 90 54 60
        E 0 90 58 60
        E 0 90 60 60
        E 0 90 64 60
        E 0 90 70 60
        E 60 80 18 00
        E 0 80 33 00
        E 0 80 40 00
        E 0 80 4c 00
        E 0 80 54 00
        E 0 80 58 00
        E 0 80 60 00
        E 0 80 64 00
        E 0 80 70 00
        E 180 90 33 60
        E 0 90 58 60
        E 0 90 64 60
        E 0 90 70 60
        E 60 80 33 00
        E 0 80 58 00
        E 0 80 64 00
        E 0 80 70 00
        E 180 90 2e 60
        E 0 90 31 60
        E 0 90 3e 60
        E 0 90 3f 60
        E 0 90 4a 60
        E 0 90 4b 60
        E 0 90 56 60
        E 0 90 57 60
        E 0 90 62 60
        E 0 90 63 60
        E 0 90 6e 60
        E 0 90 6f 60
        E 60 80 2e 00
        E 0 80 31 00
        E 0 80 3e 00
        E 0 80 3f 00
        E 0 80 4a 00
        E 0 80 4b 00
        E 0 80 56 00
        E 0 80 57 00
        E 0 80 62 00
        E 0 80 63 00
        E 0 80 6e 00
        E 0 80 6f 00
        E 180 90 2e 60
        E 0 90 31 60
        E 0 90 56 60
        E 0 90 57 60
        E 0 90 62 60
        E 0 90 63 60
        E 0 90 6e 60
        E 0 90 6f 60
        E 60 80 2e 00
        E 0 80 57 00
        E 0 80 63 00
        E 0 80 6f 00
        E 1 80 31 00
        E 0 80 56 00
        E 0 80 62 00
        E 0 80 6e 00
        E 179 90 18 60
        E 0 90 33 60
        E 0 90 40 60
        E 0 90 4c 60
        E 0 90 54 60
        E 0 90 58 60
        E 0 90 60 60
        E 0 90 64 60
        E 0 90 70 60
        E 60 80 18 00
        E 0 80 33 00
        E 0 80 40 00
        E 0 80 4c 00
        E 0 80 54 00
        E 0 80 58 00
        E 0 80 60 00
        E 0 80 64 00
        E 0 80 70 00
        E 180 90 33 60
        E 0 90 58 60
        E 0 90 64 60
        E 0 90 70 60
        E 60 80 33 00
        E 0 80 58 00
        E 0 80 64 00
        E 0 80 70 00
        E 180 90 1a 60
        E 0 90 33 60
        E 0 90 3d 60
        E 0 90 40 60
        E 0 90 49 60
        E 0 90 4c 60
        E 0 90 55 60
        E 0 90 58 60
        E 0 90 61 60
        E 0 90 64 60
        E 0 90 70 60
        E 60 80 1a 00
        E 0 80 33 00
        E 0 80 3d 00
        E 0 80 40 00
        E 0 80 49 00
        E 0 80 4c 00
        E 0 80 55 00
        E 0 80 58 00
        E 0 80 61 00
        E 0 80 64 00
        E 0 80 70 00
        E 180 90 33 60
        E 0 90 58 60
        E 0 90 64 60
        E 0 90 70 60
        E 60 80 33 00
        E 0 80 58 00
        E 0 80 64 00
        E 0 80 70 00
        E 180 90 18 60
        E 0 90 33 60
        E 0 90 40 60
        E 0 90 4c 60
        E 0 90 54 60
        E 0 90 58 60
        E 0 90 60 60
        E 0 90 64 60
        E 0 90 70 60
        E 60 80 18 00
        E 0 80 33 00
        E 0 80 40 00
        E 0 80 4c 00
        E 0 80 54 00
        E 0 80 58 00
        E 0 80 60 00
        E 0 80 64 00
        E 0 80 70 00
        E 180 90 33 60
        E 0 90 58 60
        E 0 90 64 60
        E 0 90 70 60
        E 60 80 33 00
        E 0 80 58 00
        E 0 80 64 00
        E 0 80 70 00
        E 180 90 2e 60
        E 0 90 31 60
        E 0 90 3e 60
        E 0 90 3f 60
        E 0 90 4a 60
        E 0 90 4b 60
        E 0 90 56 60
        E 0 90 57 60
        E 0 90 62 60
        E 0 90 63 60
        E 0 90 6e 60
        E 0 90 6f 60
        E 60 80 2e 00
        E 0 80 31 00
        E 0 80 3e 00
        E 0 80 3f 00
        E 0 80 4a 00
        E 0 80 4b 00
        E 0 80 56 00
        E 0 80 57 00
        E 0 80 62 00
        E 0 80 63 00
        E 0 80 6e 00
        E 0 80 6f 00
        E 180 90 2e 60
        E 0 90 31 60
        E 0 90 56 60
        E 0 90 57 60
        E 0 90 62 60
        E 0 90 63 60
        E 0 90 6e 60
        E 0 90 6f 60
        E 60 80 2e 00
        E 0 80 57 00
        E 0 80 63 00
        E 0 80 6f 00
        E 1 80 31 00
        E 0 80 56 00
        E 0 80 62 00
        E 0 80 6e 00
        E 179 90 18 60
        E 0 90 33 60
        E 0 90 40 60
        E 0 90 4c 60
        E 0 90 54 60
        E 0 90 58 60
        E 0 90 60 60
        E 0 90 64 60
        E 0 90 70 60
        E 60 80 18 00
        E 0 80 33 00
        E 0 80 40 00
        E 0 80 4c 00
        E 0 80 54 00
        E 0 80 58 00
        E 0 80 60 00
        E 0 80 64 00
        E 0 80 70 00
        E 180 90 33 60
        E 0 90 58 60
        E 0 90 64 60
        E 0 90 70 60
        E 60 80 33 00
        E 0 80 58 00
        E 0 80 64 00
        E 0 80 70 00
        E 180 90 1a 60
        E 0 90 33 60
        E 0 90 3d 60
        E 0 90 40 60
        E 0 90 49 60
        E 0 90 4c 60
        E 0 90 55 60
        E 0 90 58 60
        E 0 90 61 60
        E 0 90 64 60
        E 0 90 70 60
        E 60 80 1a 00
        E 0 80 33 00
        E 0 80 3d 00
        E 0 80 40 00
        E 0 80 49 00
        E 0 80 4c 00
        E 0 80 55 00
        E 0 80 58 00
        E 0 80 61 00
        E 0 80 64 00
        E 0 80 70 00
        E 180 90 33 60
        E 0 90 58 60
        E 0 90 64 60
        E 0 90 70 60
        E 60 80 33 00
        E 0 80 58 00
        E 0 80 64 00
        E 0 80 70 00
        E 180 90 18 60
        E 0 90 33 60
        E 0 90 40 60
        E 0 90 4c 60
        E 0 90 54 60
        E 0 90 58 60
        E 0 90 60 60
        E 0 90 64 60
        E 0 90 70 60
        E 60 80 18 00
        E 0 80 33 00
        E 0 80 40 00
        E 0 80 4c 00
        E 0 80 54 00
        E 0 80 58 00
        E 0 80 60 00
        E 0 80 64 00
        E 0 80 70 00
        E 180 90 33 60
        E 0 90 58 60
        E 0 90 64 60
        E 0 90 70 60
        E 60 80 33 00
        E 0 80 58 00
        E 0 80 64 00
        E 0 80 70 00
        E 180 90 2e 60
        E 0 90 31 60
        E 0 90 3e 60
        E 0 90 3f 60
        E 0 90 4a 60
        E 0 90 4b 60
        E 0 90 56 60
        E 0 90 57 60
        E 0 90 62 60
        E 0 90 63 60
        E 0 90 6e 60
        E 0 90 6f 60
        E 60 80 2e 00
        E 0 80 31 00
        E 0 80 3e 00
        E 0 80 3f 00
        E 0 80 4a 00
        E 0 80 4b 00
        E 0 80 56 00
        E 0 80 57 00
        E 0 80 62 00
        E 0 80 63 00
        E 0 80 6e 00
        E 0 80 6f 00
        E 180 90 2e 60
        E 0 90 31 60
        E 0 90 56 60
        E 0 90 57 60
        E 0 90 62 60
        E 0 90 63 60
        E 0 90 6e 60
        E 0 90 6f 60
        E 60 80 2e 00
        E 0 80 57 00
        E 0 80 63 00
        E 0 80 6f 00
        E 1 80 31 00
        E 0 80 56 00
        E 0 80 62 00
        E 0 80 6e 00
        E 179 90 18 60
        E 0 90 33 60
        E 0 90 40 60
        E 0 90 4c 60
        E 0 90 54 60
        E 0 90 58 60
        E 0 90 60 60
        E 0 90 64 60
        E 0 90 70 60
        E 60 80 18 00
        E 0 80 33 00
        E 0 80 40 00
        E 0 80 4c 00
        E 0 80 54 00
        E 0 80 58 00
        E 0 80 60 00
        E 0 80 64 00
        E 0 80 70 00
        E 180 90 33 60
        E 0 90 58 60
        E 0 90 64 60
        E 0 90 70 60
        E 60 80 33 00
        E 0 80 58 00
        E 0 80 64 00
        E 0 80 70 00
        E 180 90 1a 60
        E 0 90 33 60
        E 0 90 3d 60
        E 0 90 40 60
        E 0 90 49 60
        E 0 90 4c 60
        E 0 90 55 60
        E 0 90 58 60
        E 0 90 61 60
        E 0 90 64 60
        E 0 90 70 60
        E 60 80 1a 00
        E 0 80 33 00
        E 0 80 3d 00
        E 0 80 40 00
        E 0 80 49 00
        E 0 80 4c 00
        E 0 80 55 00
        E 0 80 58 00
        E 0 80 61 00
        E 0 80 64 00
        E 0 80 70 00
        E 180 90 33 60
        E 0 90 58 60
        E 0 90 64 60
        E 0 90 70 60
        E 60 80 33 00
        E 0 80 58 00
        E 0 80 64 00
        E 0 80 70 00
        E 180 90 18 60
        E 0 90 33 60
        E 0 90 40 60
        E 0 90 4c 60
        E 0 90 54 60
        E 0 90 58 60
        E 0 90 60 60
        E 0 90 64 60
        E 0 90 70 60
        E 60 80 18 00
        E 0 80 33 00
        E 0 80 40 00
        E 0 80 4c 00
        E 0 80 54 00
        E 0 80 58 00
        E 0 80 60 00
        E 0 80 64 00
        E 0 80 70 00
        E 180 90 33 60
        E 0 90 58 60
        E 0 90 64 60
        E 0 90 70 60
        E 60 80 33 00
        E 0 80 58 00
        E 0 80 64 00
        E 0 80 70 00
        E 180 90 2e 60
        E 0 90 31 60
        E 0 90 3e 60
        E 0 90 3f 60
        E 0 90 4a 60
        E 0 90 4b 60
        E 0 90 56 60
        E 0 90 57 60
        E 0 90 62 60
        E 0 90 63 60
        E 0 90 6e 60
        E 0 90 6f 60
        E 60 80 2e 00
        E 0 80 31 00
        E 0 80 3e 00
        E 0 80 3f 00
        E 0 80 4a 00
        E 0 80 4b 00
        E 0 80 56 00
        E 0 80 57 00
        E 0 80 62 00
        E 0 80 63 00
        E 0 80 6e 00
        E 0 80 6f 00
        E 180 90 2e 60
        E 0 90 31 60
        E 0 90 56 60
        E 0 90 57 60
        E 0 90 62 60
        E 0 90 63 60
        E 0 90 6e 60
        E 0 90 6f 60
        E 60 80 2e 00
        E 0 80 57 00
        E 0 80 63 00
        E 0 80 6f 00
        E 1 80 31 00
        E 0 80 56 00
        E 0 80 62 00
        E 0 80 6e 00
        E 179 90 18 60
        E 0 90 33 60
        E 0 90 40 60
        E 0 90 4c 60
        E 0 90 54 60
        E 0 90 58 60
        E 0 90 60 60
        E 0 90 64 60
        E 0 90 70 60
        E 0 90 74 60
        E 60 80 18 00
        E 0 80 33 00
        E 0 80 40 00
        E 0 80 4c 00
        E 0 80 54 00
        E 0 80 58 00
        E 0 80 60 00
        E 0 80 64 00
        E 0 80 70 00
        E 180 90 33 60
        E 0 90 58 60
        E 0 90 64 60
        E 0 90 70 60
        E 60 80 33 00
        E 0 80 58 00
        E 0 80 64 00
        E 0 80 70 00
        E 180 90 1a 60
        E 0 90 33 60
        E 0 90 3d 60
        E 0 90 40 60
        E 0 90 49 60
        E 0 90 4c 60
        E 0 90 55 60
        E 0 90 58 60
        E 0 90 61 60
        E 0 90 64 60
        E 0 90 70 60
        E 60 80 1a 00
        E 0 80 33 00
        E 0 80 3d 00
        E 0 80 40 00
        E 0 80 49 00
        E 0 80 4c 00
        E 0 80 55 00
        E 0 80 58 00
        E 0 80 61 00
        E 0 80 64 00
        E 0 80 70 00
        E 180 90 33 60
        E 0 90 58 60
        E 0 90 64 60
        E 0 90 70 60
        E 60 80 33 00
        E 0 80 58 00
        E 0 80 64 00
        E 0 80 70 00
        E 180 90 18 60
        E 0 90 33 60
        E 0 90 40 60
        E 0 90 4c 60
        E 0 90 54 60
        E 0 90 58 60
        E 0 90 60 60
        E 0 90 64 60
        E 0 90 70 60
        E 60 80 18 00
        E 0 80 33 00
        E 0 80 40 00
        E 0 80 4c 00
        E 0 80 54 00
        E 0 80 58 00
        E 0 80 60 00
        E 0 80 64 00
        E 0 80 70 00
        E 180 90 33 60
        E 0 90 58 60
        E 0 90 64 60
        E 0 90 70 60
        E 60 80 33 00
        E 0 80 58 00
        E 0 80 64 00
        E 0 80 70 00
        E 180 90 2e 60
        E 0 90 31 60
        E 0 90 3e 60
        E 0 90 3f 60
        E 0 90 4a 60
        E 0 90 4b 60
        E 0 90 56 60
        E 0 90 57 60
        E 0 90 62 60
        E 0 90 63 60
        E 0 90 6e 60
        E 0 90 6f 60
        E 60 80 2e 00
        E 0 80 31 00
        E 0 80 3e 00
        E 0 80 3f 00
        E 0 80 4a 00
        E 0 80 4b 00
        E 0 80 56 00
        E 0 80 57 00
        E 0 80 62 00
        E 0 80 63 00
        E 0 80 6e 00
        E 0 80 6f 00
        E 180 90 2e 60
        E 0 90 31 60
        E 0 90 56 60
        E 0 90 57 60
        E 0 90 62 60
        E 0 90 63 60
        E 0 90 6e 60
        E 0 90 6f 60
        E 60 80 2e 00
        E 0 80 57 00
        E 0 80 63 00
        E 0 80 6f 00
        E 1 80 31 00
        E 0 80 56 00
        E 0 80 62 00
        E 0 80 6e 00
        E 179 90 1a 60
        E 0 90 33 60
        E 0 90 3d 60
        E 0 90 40 60
        E 0 90 49 60
        E 0 90 4c 60
        E 0 90 55 60
        E 0 90 58 60
        E 0 90 61 60
        E 0 90 64 60
        E 0 90 70 60
        E 60 80 74 00
        E 0 80 1a 00
        E 0 80 33 00
        E 0 80 3d 00
        E 0 80 40 00
        E 0 80 49 00
        E 0 80 4c 00
        E 0 80 55 00
        E 0 80 58 00
        E 0 80 61 00
        E 0 80 64 00
        E 0 80 70 00
        E 900 90 78 60
        E 0 90 79 60
        E 0 90 7a 60
        E 0 90 7b 60
        E 0 90 7c 60
        E 960 80 78 00
        E 0 80 79 00
        E 0 80 7a 00
        E 0 80 7b 00
        E 0 80 7c 00
        E 0 90 18 60
        E 0 90 22 60
        E 0 90 26 60
        E 0 90 3f 60
        E 0 90 40 60
        E 0 90 48 60
        E 0 90 4b 60
        E 0 90 4c 60
        E 0 90 54 60
        E 0 90 57 60
        E 0 90 58 60
        E 0 90 60 60
        E 0 90 63 60
        E 0 90 64 60
        E 60 80 18 00
        E 0 80 26 00
        E 0 80 40 00
        E 0 80 48 00
        E 0 80 4c 00
        E 0 80 54 00
        E 0 80 58 00
        E 0 80 60 00
        E 0 80 64 00
        E 1 80 22 00
        E 0 80 3f 00
        E 0 80 4b 00
        E 0 80 57 00
        E 0 80 63 00
        E 179 90 2a 60
        E 0 90 57 60
        E 0 90 63 60
        E 60 80 2a 00
        E 0 80 57 00
        E 0 80 63 00
        E 180 90 1a 60
        E 0 90 2a 60
        E 0 90 3d 60
        E 0 90 3f 60
        E 0 90 49 60
        E 0 90 4b 60
        E 0 90 55 60
        E 0 90 57 60
        E 0 90 61 60
        E 0 90 63 60
        E 59 80 2a 00
        E 0 80 3f 00
        E 0 80 4b 00
        E 0 80 57 00
        E 0 80 63 00
        E 1 80 1a 00
        E 0 80 3d 00
        E 0 80 49 00
        E 0 80 55 00
        E 0 80 61 00
        E 180 90 18 60
        E 0 90 2a 60
        E 0 90 54 60
        E 0 90 57 60
        E 0 90 60 60
        E 0 90 63 60
        E 60 80 18 00
        E 0 80 2a 00
        E 0 80 54 00
        E 0 80 57 00
        E 0 80 60 00
        E 0 80 63 00
        E 180 90 18 60
        E 0 90 2a 60
        E 0 90 3f 60
        E 0 90 48 60
        E 0 90 4b 60
        E 0 90 54 60
        E 0 90 57 60
        E 0 90 60 60
        E 0 90 63 60
        E 60 80 18 00
        E 0 80 48 00
        E 0 80 54 00
        E 0 80 60 00
        E 1 80 2a 00
        E 0 80 3f 00
        E 0 80 4b 00
        E 0 80 57 00
        E 0 80 63 00
        E 179 90 2a 60
        E 0 90 57 60
        E 0 90 63 60
        E 59 80 2a 00
        E 0 80 57 00
        E 0 80 63 00
        E 181 90 1a 60
        E 0 90 2a 60
        E 0 90 3d 60
        E 0 90 3f 60
        E 0 90 49 60
        E 0 90 4b 60
        E 0 90 55 60
        E 0 90 57 60
        E 0 90 61 60
        E 0 90 63 60
        E 59 80 2a 00
        E 0 80 3f 00
        E 0 80 4b 00
        E 0 80 57 00
        E 0 80 63 00
        E 1 80 1a 00
        E 0 80 3d 00
        E 0 80 49 00
        E 0 80 55 00
        E 0 80 61 00
        E 180 90 2a 60
        E 0 90 57 60
        E 0 90 63 60
        E 60 80 2a 00
        E 0 80 57 00
        E 0 80 63 00
        E 180 90 18 60
        E 0 90 2a 60
        E 0 90 3f 60
        E 0 90 48 60
        E 0 90 4b 60
        E 0 90 54 60
        E 0 90 57 60
        E 0 90 60 60
        E 0 90 63 60
        E 60 80 18 00
        E 0 80 48 00
        E 0 80 54 00
        E 0 80 60 00
        E 1 80 2a 00
        E 0 80 3f 00
        E 0 80 4b 00
        E 0 80 57 00
        E 0 80 63 00
        E 179 90 2a 60
        E 0 90 57 60
        E 0 90 63 60
        E 60 80 2a 00
        E 0 80 57 00
        E 0 80 63 00
        E 180 90 1a 60
        E 0 90 2a 60
        E 0 90 3d 60
        E 0 90 3f 60
        E 0 90 49 60
        E 0 90 4b 60
        E 0 90 55 60
        E 0 90 57 60
        E 0 90 61 60
        E 0 90 63 60
        E 59 80 2a 00
        E 0 80 3f 00
        E 0 80 4b 00
        E 0 80 57 00
        E 0 80 63 00
        E 1 80 1a 00
        E 0 80 3d 00
        E 0 80 49 00
        E 0 80 55 00
        E 0 80 61 00
        E 180 90 18 60
        E 0 90 2a 60
        E 0 90 54 60
        E 0 90 57 60
        E 0 90 60 60
        E 0 90 63 60
        E 60 80 18 00
        E 0 80 2a 00
        E 0 80 54 00
        E 0 80 57 00
        E 0 80 60 00
        E 0 80 63 00
        E 180 90 18 60
        E 0 90 2a 60
        E 0 90 3f 60
        E 0 90 48 60
        E 0 90 4b 60
        E 0 90 54 60
        E 0 90 57 60
        E 0 90 60 60
        E 0 90 63 60
        E 60 80 18 00
        E 0 80 48 00
        E 0 80 54 00
        E 0 80 60 00
        E 1 80 2a 00
        E 0 80 3f 00
        E 0 80 4b 00
        E 0 80 57 00
        E 0 80 63 00
        E 179 90 2a 60
        E 0 90 57 60
        E 0 90 63 60
        E 59 80 2a 00
        E 0 80 57 00
        E 0 80 63 00
        E 181 90 1a 60
        E 0 90 2a 60
        E 0 90 3d 60
        E 0 90 3f 60
        E 0 90 49 60
        E 0 90 4b 60
        E 0 90 55 60
        E 0 90 57 60
        E 0 90 61 60
        E 0 90 63 60
        E 59 80 2a 00
        E 0 80 3f 00
        E 0 80 4b 00
        E 0 80 57 00
        E 0 80 63 00
        E 1 80 1a 00
        E 0 80 3d 00
        E 0 80 49 00
        E 0 80 55 00
        E 0 80 61 00
        E 180 90 2a 60
        E 0 90 57 60
        E 0 90 63 60
        E 60 80 2a 00
        E 0 80 57 00
        E 0 80 63 00
        E 180 90 18 60
        E 0 90 2a 60
        E 0 90 3f 60
        E 0 90 48 60
        E 0 90 4b 60
        E 0 90 54 60
        E 0 90 57 60
        E 0 90 60 60
        E 0 90 63 60
        E 60 80 18 00
        E 0 80 48 00
        E 0 80 54 00
        E 0 80 60 00
        E 1 80 2a 00
        E 0 80 3f 00
        E 0 80 4b 00
        E 0 80 57 00
        E 0 80 63 00
        E 179 90 2a 60
        E 0 90 57 60
        E 0 90 63 60
        E 60 80 2a 00
        E 0 80 57 00
        E 0 80 63 00
        E 180 90 1a 60
        E 0 90 2a 60
        E 0 90 3d 60
        E 0 90 3f 60
        E 0 90 49 60
        E 0 90 4b 60
        E 0 90 55 60
        E 0 90 57 60
        E 0 90 61 60
        E 0 90 63 60
        E 59 80 2a 00
        E 0 80 3f 00
        E 0 80 4b 00
        E 0 80 57 00
        E 0 80 63 00
        E 1 80 1a 00
        E 0 80 3d 00
        E 0 80 49 00
        E 0 80 55 00
        E 0 80 61 00
        E 180 90 18 60
        E 0 90 2a 60
        E 0 90 54 60
        E 0 90 57 60
        E 0 90 60 60
        E 0 90 63 60
        E 60 80 18 00
        E 0 80 2a 00
        E 0 80 54 00
        E 0 80 57 00
        E 0 80 60 00
        E 0 80 63 00
        E 180 90 18 60
        E 0 90 2a 60
        E 0 90 3f 60
        E 0 90 48 60
        E 0 90 4b 60
        E 0 90 54 60
        E 0 90 57 60
        E 0 90 60 60
        E 0 90 63 60
        E 60 80 18 00
        E 0 80 48 00
        E 0 80 54 00
        E 0 80 60 00
        E 1 80 2a 00
        E 0 80 3f 00
        E 0 80 4b 00
        E 0 80 57 00
        E 0 80 63 00
        E 179 90 2a 60
        E 0 90 57 60
        E 0 90 63 60
        E 59 80 2a 00
        E 0 80 57 00
        E 0 80 63 00
        E 181 90 1a 60
        E 0 90 2a 60
        E 0 90 3d 60
        E 0 90 3f 60
        E 0 90 49 60
        E 0 90 4b 60
        E 0 90 55 60
        E 0 90 57 60
        E 0 90 61 60
        E 0 90 63 60
        E 59 80 2a 00
        E 0 80 3f 00
        E 0 80 4b 00
        E 0 80 57 00
        E 0 80 63 00
        E 1 80 1a 00
        E 0 80 3d 00
        E 0 80 49 00
        E 0 80 55 00
        E 0 80 61 00
        E 180 90 2a 60
        E 0 90 57 60
        E 0 90 63 60
        E 60 80 2a 00
        E 0 80 57 00
        E 0 80 63 00
        E 180 90 18 60
        E 0 90 2a 60
        E 0 90 3f 60
        E 0 90 48 60
        E 0 90 4b 60
        E 0 90 54 60
        E 0 90 57 60
        E 0 90 60 60
        E 0 90 63 60
        E 60 80 18 00
        E 0 80 48 00
        E 0 80 54 00
        E 0 80 60 00
        E 1 80 2a 00
        E 0 80 3f 00
        E 0 80 4b 00
        E 0 80 57 00
        E 0 80 63 00
        E 179 90 2a 60
        E 0 90 57 60
        E 0 90 63 60
        E 60 80 2a 00
        E 0 80 57 00
        E 0 80 63 00
        E 180 90 1a 60
        E 0 90 2a 60
        E 0 90 3d 60
        E 0 90 3f 60
        E 0 90 49 60
        E 0 90 4b 60
        E 0 90 55 60
        E 0 90 57 60
        E 0 90 61 60
        E 0 90 63 60
        E 59 80 2a 00
        E 0 80 3f 00
        E 0 80 4b 00
        E 0 80 57 00
        E 0 80 63 00
        E 1 80 1a 00
        E 0 80 3d 00
        E 0 80 49 00
        E 0 80 55 00
        E 0 80 61 00
        E 180 90 18 60
        E 0 90 2a 60
        E 0 90 54 60
        E 0 90 57 60
        E 0 90 60 60
        E 0 90 63 60
        E 60 80 18 00
        E 0 80 2a 00
        E 0 80 54 00
        E 0 80 57 00
        E 0 80 60 00
        E 0 80 63 00
        E 180 90 18 60
        E 0 90 2a 60
        E 0 90 3f 60
        E 0 90 48 60
        E 0 90 4b 60
        E 0 90 54 60
        E 0 90 57 60
        E 0 90 60 60
        E 0 90 63 60
        E 60 80 18 00
        E 0 80 48 00
        E 0 80 54 00
        E 0 80 60 00
        E 1 80 2a 00
        E 0 80 3f 00
        E 0 80 4b 00
        E 0 80 57 00
        E 0 80 63 00
        E 179 90 2a 60
        E 0 90 57 60
        E 0 90 63 60
        E 59 80 2a 00
        E 0 80 57 00
        E 0 80 63 00
        E 181 90 1a 60
        E 0 90 2a 60
        E 0 90 3d 60
        E 0 90 3f 60
        E 0 90 49 60
        E 0 90 4b 60
        E 0 90 55 60
        E 0 90 57 60
        E 0 90 61 60
        E 0 90 63 60
        E 59 80 2a 00
        E 0 80 3f 00
        E 0 80 4b 00
        E 0 80 57 00
        E 0 80 63 00
        E 1 80 1a 00
        E 0 80 3d 00
        E 0 80 49 00
        E 0 80 55 00
        E 0 80 61 00
        E 180 90 2a 60
        E 0 90 57 60
        E 0 90 63 60
        E 60 80 2a 00
        E 0 80 57 00
        E 0 80 63 00
        E 180 90 18 60
        E 0 90 2a 60
        E 0 90 3f 60
        E 0 90 48 60
        E 0 90 4b 60
        E 0 90 54 60
        E 0 90 57 60
        E 0 90 60 60
        E 0 90 63 60
        E 60 80 18 00
        E 0 80 48 00
        E 0 80 54 00
        E 0 80 60 00
        E 1 80 2a 00
        E 0 80 3f 00
        E 0 80 4b 00
        E 0 80 57 00
        E 0 80 63 00
        E 179 90 2a 60
        E 0 90 57 60
        E 0 90 63 60
        E 60 80 2a 00
        E 0 80 57 00
        E 0 80 63 00
        E 180 90 1a 60
        E 0 90 2a 60
        E 0 90 3d 60
        E 0 90 3f 60
        E 0 90 49 60
        E 0 90 4b 60
        E 0 90 55 60
        E 0 90 57 60
        E 0 90 61 60
        E 0 90 63 60
        E 59 80 2a 00
        E 0 80 3f 00
        E 0 80 4b 00
        E 0 80 57 00
        E 0 80 63 00
        E 1 80 1a 00
        E 0 80 3d 00
        E 0 80 49 00
        E 0 80 55 00
        E 0 80 61 00
        E 180 90 18 60
        E 0 90 2a 60
        E 0 90 54 60
        E 0 90 57 60
        E 0 90 60 60
        E 0 90 63 60
        E 60 80 18 00
        E 0 80 2a 00
        E 0 80 54 00
        E 0 80 57 00
        E 0 80 60 00
        E 0 80 63 00
        E 180 90 18 60
        E 0 90 2a 60
        E 0 90 3f 60
        E 0 90 48 60
        E 0 90 4b 60
        E 0 90 54 60
        E 0 90 57 60
        E 0 90 60 60
        E 0 90 63 60
        E 60 80 18 00
        E 0 80 48 00
        E 0 80 54 00
        E 0 80 60 00
        E 1 80 2a 00
        E 0 80 3f 00
        E 0 80 4b 00
        E 0 80 57 00
        E 0 80 63 00
        E 179 90 2a 60
        E 0 90 57 60
        E 0 90 63 60
        E 59 80 2a 00
        E 0 80 57 00
        E 0 80 63 00
        E 181 90 1a 60
        E 0 90 2a 60
        E 0 90 3d 60
        E 0 90 3f 60
        E 0 90 49 60
        E 0 90 4b 60
        E 0 90 55 60
        E 0 90 57 60
        E 0 90 61 60
        E 0 90 63 60
        E 59 80 2a 00
        E 0 80 3f 00
        E 0 80 4b 00
        E 0 80 57 00
        E 0 80 63 00
        E 1 80 1a 00
        E 0 80 3d 00
        E 0 80 49 00
        E 0 80 55 00
        E 0 80 61 00
        E 180 90 2a 60
        E 0 90 57 60
        E 0 90 63 60
        E 60 80 2a 00
        E 0 80 57 00
        E 0 80 63 00
        E 180 90 18 60
        E 0 90 2a 60
        E 0 90 3f 60
        E 0 90 48 60
        E 0 90 4b 60
        E 0 90 54 60
        E 0 90 57 60
        E 0 90 60 60
        E 0 90 63 60
        E 60 80 18 00
        E 0 80 48 00
        E 0 80 54 00
        E 0 80 60 00
        E 1 80 2a 00
        E 0 80 3f 00
        E 0 80 4b 00
        E 0 80 57 00
        E 0 80 63 00
        E 179 90 2a 60
        E 0 90 57 60
        E 0 90 63 60
        E 60 80 2a 00
        E 0 80 57 00
        E 0 80 63 00
        E 180 90 1a 60
        E 0 90 2a 60
        E 0 90 3d 60
        E 0 90 3f 60
        E 0 90 49 60
        E 0 90 4b 60
        E 0 90 55 60
        E 0 90 57 60
        E 0 90 61 60
        E 0 90 63 60
        E 59 80 2a 00
        E 0 80 3f 00
        E 0 80 4b 00
        E 0 80 57 00
        E 0 80 63 00
        E 1 80 1a 00
        E 0 80 3d 00
        E 0 80 49 00
        E 0 80 55 00
        E 0 80 61 00
        E 180 90 18 60
        E 0 90 2a 60
        E 0 90 54 60
        E 0 90 57 60
        E 0 90 60 60
        E 0 90 63 60
        E 60 80 18 00
        E 0 80 2a 00
        E 0 80 54 00
        E 0 80 57 00
        E 0 80 60 00
        E 0 80 63 00
        E 180 90 18 60
        E 0 90 2a 60
        E 0 90 3f 60
        E 0 90 48 60
        E 0 90 4b 60
        E 0 90 54 60
        E 0 90 57 60
        E 0 90 60 60
        E 0 90 63 60
        E 60 80 18 00
        E 0 80 48 00
        E 0 80 54 00
        E 0 80 60 00
        E 1 80 2a 00
        E 0 80 3f 00
        E 0 80 4b 00
        E 0 80 57 00
        E 0 80 63 00
        E 179 90 2a 60
        E 0 90 57 60
        E 0 90 63 60
        E 59 80 2a 00
        E 0 80 57 00
        E 0 80 63 00
        E 181 90 1a 60
        E 0 90 2a 60
        E 0 90 3d 60
        E 0 90 3f 60
        E 0 90 49 60
        E 0 90 4b 60
        E 0 90 55 60
        E 0 90 57 60
        E 0 90 61 60
        E 0 90 63 60
        E 59 80 2a 00
        E 0 80 3f 00
        E 0 80 4b 00
        E 0 80 57 00
        E 0 80 63 00
        E 1 80 1a 00
        E 0 80 3d 00
        E 0 80 49 00
        E 0 80 55 00
        E 0 80 61 00
        E 180 90 2a 60
        E 0 90 57 60
        E 0 90 63 60
        E 60 80 2a 00
        E 0 80 57 00
        E 0 80 63 00
        E 180 90 18 60
        E 0 90 2a 60
        E 0 90 3f 60
        E 0 90 48 60
        E 0 90 4b 60
        E 0 90 54 60
        E 0 90 57 60
        E 0 90 60 60
        E 0 90 63 60
        E 60 80 18 00
        E 0 80 48 00
        E 0 80 54 00
        E 0 80 60 00
        E 1 80 2a 00
        E 0 80 3f 00
        E 0 80 4b 00
        E 0 80 57 00
        E 0 80 63 00
        E 179 90 2a 60
        E 0 90 57 60
        E 0 90 63 60
        E 60 80 2a 00
        E 0 80 57 00
        E 0 80 63 00
        E 180 90 1a 60
        E 0 90 2a 60
        E 0 90 3d 60
        E 0 90 3f 60
        E 0 90 49 60
        E 0 90 4b 60
        E 0 90 55 60
        E 0 90 57 60
        E 0 90 61 60
        E 0 90 63 60
        E 59 80 2a 00
        E 0 80 3f 00
        E 0 80 4b 00
        E 0 80 57 00
        E 0 80 63 00
        E 1 80 1a 00
        E 0 80 3d 00
        E 0 80 49 00
        E 0 80 55 00
        E 0 80 61 00
        E 180 90 18 60
        E 0 90 2a 60
        E 0 90 54 60
        E 0 90 57 60
        E 0 90 60 60
        E 0 90 63 60
        E 60 80 18 00
        E 0 80 2a 00
        E 0 80 54 00
        E 0 80 57 00
        E 0 80 60 00
        E 0 80 63 00
        E 180 90 18 60
        E 0 90 2a 60
        E 0 90 3f 60
        E 0 90 48 60
        E 0 90 4b 60
        E 0 90 54 60
        E 0 90 57 60
        E 0 90 60 60
        E 0 90 63 60
        E 60 80 18 00
        E 0 80 48 00
        E 0 80 54 00
        E 0 80 60 00
        E 1 80 2a 00
        E 0 80 3f 00
        E 0 80 4b 00
        E 0 80 57 00
        E 0 80 63 00
        E 179 90 2a 60
        E 0 90 57 60
        E 0 90 63 60
        E 59 80 2a 00
        E 0 80 57 00
        E 0 80 63 00
        E 181 90 1a 60
        E 0 90 2a 60
        E 0 90 3d 60
        E 0 90 3f 60
        E 0 90 49 60
        E 0 90 4b 60
        E 0 90 55 60
        E 0 90 57 60
        E 0 90 61 60
        E 0 90 63 60
        E 59 80 2a 00
        E 0 80 3f 00
        E 0 80 4b 00
        E 0 80 57 00
        E 0 80 63 00
        E 1 80 1a 00
        E 0 80 3d 00
        E 0 80 49 00
        E 0 80 55 00
        E 0 80 61 00
        E 180 90 2a 60
        E 0 90 57 60
        E 0 90 63 60
        E 60 80 2a 00
        E 0 80 57 00
        E 0 80 63 00
        E 180 90 18 60
        E 0 90 2a 60
        E 0 90 3f 60
        E 0 90 48 60
        E 0 90 4b 60
        E 0 90 54 60
        E 0 90 57 60
        E 0 90 60 60
        E 0 90 63 60
        E 60 80 18 00
        E 0 80 48 00
        E 0 80 54 00
        E 0 80 60 00
        E 1 80 2a 00
        E 0 80 3f 00
        E 0 80 4b 00
        E 0 80 57 00
        E 0 80 63 00
        E 179 90 2a 60
        E 0 90 57 60
        E 0 90 63 60
        E 60 80 2a 00
        E 0 80 57 00
        E 0 80 63 00
        E 180 90 1a 60
        E 0 90 2a 60
        E 0 90 3d 60
        E 0 90 3f 60
        E 0 90 49 60
        E 0 90 4b 60
        E 0 90 55 60
        E 0 90 57 60
        E 0 90 61 60
        E 0 90 63 60
        E 59 80 2a 00
        E 0 80 3f 00
        E 0 80 4b 00
        E 0 80 57 00
        E 0 80 63 00
        E 1 80 1a 00
        E 0 80 3d 00
        E 0 80 49 00
        E 0 80 55 00
        E 0 80 61 00
        E 180 90 18 60
        E 0 90 2a 60
        E 0 90 54 60
        E 0 90 57 60
        E 0 90 60 60
        E 0 90 63 60
        E 60 80 18 00
        E 0 80 2a 00
        E 0 80 54 00
        E 0 80 57 00
        E 0 80 60 00
        E 0 80 63 00
        E 180 90 18 60
        E 0 90 2a 60
        E 0 90 3f 60
        E 0 90 48 60
        E 0 90 4b 60
        E 0 90 54 60
        E 0 90 57 60
        E 0 90 60 60
        E 0 90 63 60
        E 0 90 78 60
        E 0 90 79 60
        E 0 90 7a 60
        E 0 90 7b 60
        E 0 90 7c 60
        E 60 80 18 00
        E 0 80 48 00
        E 0 80 54 00
        E 0 80 60 00
        E 1 80 2a 00
        E 0 80 3f 00
        E 0 80 4b 00
        E 0 80 57 00
        E 0 80 63 00
        E 179 90 2a 60
        E 0 90 57 60
        E 0 90 63 60
        E 59 80 2a 00
        E 0 80 57 00
        E 0 80 63 00
        E 181 90 1a 60
        E 0 90 2a 60
        E 0 90 3d 60
        E 0 90 3f 60
        E 0 90 49 60
        E 0 90 4b 60
        E 0 90 55 60
        E 0 90 57 60
        E 0 90 61 60
        E 0 90 63 60
        E 59 80 2a 00
        E 0 80 3f 00
        E 0 80 4b 00
        E 0 80 57 00
        E 0 80 63 00
        E 1 80 1a 00
        E 0 80 3d 00
        E 0 80 49 00
        E 0 80 55 00
        E 0 80 61 00
        E 180 90 2a 60
        E 0 90 57 60
        E 0 90 63 60
        E 60 80 2a 00
        E 0 80 57 00
        E 0 80 63 00
        E 180 80 78 00
        E 0 80 79 00
        E 0 80 7a 00
        E 0 80 7b 00
        E 0 80 7c 00
        E 0 90 18 60
        E 0 90 22 60
        E 0 90 26 60
        E 0 90 3f 60
        E 0 90 40 60
        E 0 90 48 60
        E 0 90 4b 60
        E 0 90 4c 60
        E 0 90 54 60
        E 0 90 57 60
        E 0 90 58 60
        E 0 90 60 60
        E 0 90 63 60
        E 0 90 64 60
        E 60 80 18 00
        E 0 80 26 00
        E 0 80 40 00
        E 0 80 48 00
        E 0 80 4c 00
        E 0 80 54 00
        E 0 80 58 00
        E 0 80 60 00
        E 0 80 64 00
        E 1 80 22 00
        E 0 80 3f 00
        E 0 80 4b 00
        E 0 80 57 00
        E 0 80 63 00
        E 179 90 2a 60
        E 0 90 57 60
        E 0 90 63 60
        E 60 80 2a 00
        E 0 80 57 00
        E 0 80 63 00
        E 180 90 1a 60
        E 0 90 2a 60
        E 0 90 3d 60
        E 0 90 3f 60
        E 0 90 49 60
        E 0 90 4b 60
        E 0 90 55 60
        E 0 90 57 60
        E 0 90 61 60
        E 0 90 63 60
        E 59 80 2a 00
        E 0 80 3f 00
        E 0 80 4b 00
        E 0 80 57 00
        E 0 80 63 00
        E 1 80 1a 00
        E 0 80 3d 00
        E 0 80 49 00
        E 0 80 55 00
        E 0 80 61 00
        E 180 90 18 60
        E 0 90 2a 60
        E 0 90 54 60
        E 0 90 57 60
        E 0 90 60 60
        E 0 90 63 60
        E 60 80 18 00
        E 0 80 2a 00
        E 0 80 54 00
        E 0 80 57 00
        E 0 80 60 00
        E 0 80 63 00
        E 180 90 18 60
        E 0 90 2a 60
        E 0 90 3f 60
        E 0 90 48 60
        E 0 90 4b 60
        E 0 90 54 60
        E 0 90 57 60
        E 0 90 60 60
        E 0 90 63 60
        E 60 80 18 00
        E 0 80 48 00
        E 0 80 54 00
        E 0 80 60 00
        E 1 80 2a 00
        E 0 80 3f 00
        E 0 80 4b 00
        E 0 80 57 00
        E 0 80 63 00
        E 179 90 2a 60
        E 0 90 57 60
        E 0 90 63 60
        E 59 80 2a 00
        E 0 80 57 00
        E 0 80 63 00
        E 181 90 1a 60
        E 0 90 2a 60
        E 0 90 3d 60
        E 0 90 3f 60
        E 0 90 49 60
        E 0 90 4b 60
        E 0 90 55 60
        E 0 90 57 60
        E 0 90 61 60
        E 0 90 63 60
        E 59 80 2a 00
        E 0 80 3f 00
        E 0 80 4b 00
        E 0 80 57 00
        E 0 80 63 00
        E 1 80 1a 00
        E 0 80 3d 00
        E 0 80 49 00
        E 0 80 55 00
        E 0 80 61 00
        E 180 90 2a 60
        E 0 90 57 60
        E 0 90 63 60
        E 60 80 2a 00
        E 0 80 57 00
        E 0 80 63 00
        E 180 90 18 60
        E 0 90 2a 60
        E 0 90 3f 60
        E 0 90 48 60
        E 0 90 4b 60
        E 0 90 54 60
        E 0 90 57 60
        E 0 90 60 60
        E 0 90 63 60
        E 60 80 18 00
        E 0 80 48 00
        E 0 80 54 00
        E 0 80 60 00
        E 1 80 2a 00
        E 0 80 3f 00
        E 0 80 4b 00
        E 0 80 57 00
        E 0 80 63 00
        E 179 90 2a 60
        E 0 90 57 60
        E 0 90 63 60
        E 60 80 2a 00
        E 0 80 57 00
        E 0 80 63 00
        E 180 90 1a 60
        E 0 90 2a 60
        E 0 90 3d 60
        E 0 90 3f 60
        E 0 90 49 60
        E 0 90 4b 60
        E 0 90 55 60
        E 0 90 57 60
        E 0 90 61 60
        E 0 90 63 60
        E 59 80 2a 00
        E 0 80 3f 00
        E 0 80 4b 00
        E 0 80 57 00
        E 0 80 63 00
        E 1 80 1a 00
        E 0 80 3d 00
        E 0 80 49 00
        E 0 80 55 00
        E 0 80 61 00
        E 180 90 18 60
        E 0 90 2a 60
        E 0 90 54 60
        E 0 90 57 60
        E 0 90 60 60
        E 0 90 63 60
        E 60 80 18 00
        E 0 80 2a 00
        E 0 80 54 00
        E 0 80 57 00
        E 0 80 60 00
        E 0 80 63 00
        E 180 90 18 60
        E 0 90 2a 60
        E 0 90 3f 60
        E 0 90 48 60
        E 0 90 4b 60
        E 0 90 54 60
        E 0 90 57 60
        E 0 90 60 60
        E 0 90 63 60
        E 60 80 18 00
        E 0 80 48 00
        E 0 80 54 00
        E 0 80 60 00
        E 1 80 2a 00
        E 0 80 3f 00
        E 0 80 4b 00
        E 0 80 57 00
        E 0 80 63 00
        E 179 90 2a 60
        E 0 90 57 60
        E 0 90 63 60
        E 59 80 2a 00
        E 0 80 57 00
        E 0 80 63 00
        E 181 90 1a 60
        E 0 90 2a 60
        E 0 90 3d 60
        E 0 90 3f 60
        E 0 90 49 60
        E 0 90 4b 60
        E 0 90 55 60
        E 0 90 57 60
        E 0 90 61 60
        E 0 90 63 60
        E 59 80 2a 00
        E 0 80 3f 00
        E 0 80 4b 00
        E 0 80 57 00
        E 0 80 63 00
        E 1 80 1a 00
        E 0 80 3d 00
        E 0 80 49 00
        E 0 80 55 00
        E 0 80 61 00
        E 180 90 2a 60
        E 0 90 57 60
        E 0 90 63 60
        E 52 90 74 12
        E 8 80 2a 00
        E 0 80 57 00
        E 0 80 63 00
        E 180 90 18 60
        E 0 90 2a 60
        E 0 90 3f 60
        E 0 90 48 60
        E 0 90 4b 60
        E 0 90 54 60
        E 0 90 57 60
        E 0 90 60 60
        E 0 90 63 60
        E 60 80 18 00
        E 0 80 48 00
        E 0 80 54 00
        E 0 80 60 00
        E 1 80 2a 00
        E 0 80 3f 00
        E 0 80 4b 00
        E 0 80 57 00
        E 0 80 63 00
        E 179 90 2a 60
        E 0 90 57 60
        E 0 90 63 60
        E 60 80 2a 00
        E 0 80 57 00
        E 0 80 63 00
        E 180 90 1a 60
        E 0 90 2a 60
        E 0 90 3d 60
        E 0 90 3f 60
        E 0 90 49 60
        E 0 90 4b 60
        E 0 90 55 60
        E 0 90 57 60
        E 0 90 61 60
        E 0 90 63 60
        E 59 80 2a 00
        E 0 80 3f 00
        E 0 80 4b 00
        E 0 80 57 00
        E 0 80 63 00
        E 1 80 1a 00
        E 0 80 3d 00
        E 0 80 49 00
        E 0 80 55 00
        E 0 80 61 00
        E 180 90 18 60
        E 0 90 2a 60
        E 0 90 54 60
        E 0 90 57 60
        E 0 90 60 60
        E 0 90 63 60
        E 60 80 18 00
        E 0 80 2a 00
        E 0 80 54 00
        E 0 80 57 00
        E 0 80 60 00
        E 0 80 63 00
        E 180 90 18 60
        E 0 90 2a 60
        E 0 90 3f 60
        E 0 90 48 60
        E 0 90 4b 60
        E 0 90 54 60
        E 0 90 57 60
        E 0 90 60 60
        E 0 90 63 60
        E 60 80 18 00
        E 0 80 48 00
        E 0 80 54 00
        E 0 80 60 00
        E 1 80 2a 00
        E 0 80 3f 00
        E 0 80 4b 00
        E 0 80 57 00
        E 0 80 63 00
        E 179 90 2a 60
        E 0 90 57 60
        E 0 90 63 60
        E 59 80 2a 00
        E 0 80 57 00
        E 0 80 63 00
        E 181 90 1a 60
        E 0 90 2a 60
        E 0 90 3d 60
        E 0 90 3f 60
        E 0 90 49 60
        E 0 90 4b 60
        E 0 90 55 60
        E 0 90 57 60
        E 0 90 61 60
        E 0 90 63 60
        E 59 80 2a 00
        E 0 80 3f 00
        E 0 80 4b 00
        E 0 80 57 00
        E 0 80 63 00
        E 1 80 1a 00
        E 0 80 3d 00
        E 0 80 49 00
        E 0 80 55 00
        E 0 80 61 00
        E 180 90 2a 60
        E 0 90 57 60
        E 0 90 63 60
        E 60 80 2a 00
        E 0 80 57 00
        E 0 80 63 00
        E 180 90 18 60
        E 0 90 2a 60
        E 0 90 3f 60
        E 0 90 48 60
        E 0 90 4b 60
        E 0 90 54 60
        E 0 90 57 60
        E 0 90 60 60
        E 0 90 63 60
        E 60 80 18 00
        E 0 80 48 00
        E 0 80 54 00
        E 0 80 60 00
        E 1 80 2a 00
        E 0 80 3f 00
        E 0 80 4b 00
        E 0 80 57 00
        E 0 80 63 00
        E 179 90 2a 60
        E 0 90 57 60
        E 0 90 63 60
        E 60 80 2a 00
        E 0 80 57 00
        E 0 80 63 00
        E 180 90 1a 60
        E 0 90 2a 60
        E 0 90 3d 60
        E 0 90 3f 60
        E 0 90 49 60
        E 0 90 4b 60
        E 0 90 55 60
        E 0 90 57 60
        E 0 90 61 60
        E 0 90 63 60
        E 59 80 2a 00
        E 0 80 3f 00
        E 0 80 4b 00
        E 0 80 57 00
        E 0 80 63 00
        E 1 80 1a 00
        E 0 80 3d 00
        E 0 80 49 00
        E 0 80 55 00
        E 0 80 61 00
        E 180 90 18 60
        E 0 90 2a 60
        E 0 90 54 60
        E 0 90 57 60
        E 0 90 60 60
        E 0 90 63 60
        E 60 80 18 00
        E 0 80 2a 00
        E 0 80 54 00
        E 0 80 57 00
        E 0 80 60 00
        E 0 80 63 00
        E 180 90 18 60
        E 0 90 2a 60
        E 0 90 3f 60
        E 0 90 48 60
        E 0 90 4b 60
        E 0 90 54 60
        E 0 90 57 60
        E 0 90 60 60
        E 0 90 63 60
        E 60 80 18 00
        E 0 80 48 00
        E 0 80 54 00
        E 0 80 60 00
        E 1 80 2a 00
        E 0 80 3f 00
        E 0 80 4b 00
        E 0 80 57 00
        E 0 80 63 00
        E 179 90 2a 60
        E 0 90 57 60
        E 0 90 63 60
        E 59 80 2a 00
        E 0 80 57 00
        E 0 80 63 00
        E 181 90 1a 60
        E 0 90 2a 60
        E 0 90 3d 60
        E 0 90 3f 60
        E 0 90 49 60
        E 0 90 4b 60
        E 0 90 55 60
        E 0 90 57 60
        E 0 90 61 60
        E 0 90 63 60
        E 59 80 2a 00
        E 0 80 3f 00
        E 0 80 4b 00
        E 0 80 57 00
        E 0 80 63 00
        E 1 80 1a 00
        E 0 80 3d 00
        E 0 80 49 00
        E 0 80 55 00
        E 0 80 61 00
        E 172 80 74 00
        E 8 90 2a 60
        E 0 90 57 60
        E 0 90 63 60
        E 60 80 2a 00
        E 0 80 57 00
        E 0 80 63 00
        E 180 90 18 60
        E 0 90 2a 60
        E 0 90 3f 60
        E 0 90 48 60
        E 0 90 4b 60
        E 0 90 54 60
        E 0 90 57 60
        E 0 90 60 60
        E 0 90 63 60
        E 60 80 18 00
        E 0 80 48 00
        E 0 80 54 00
        E 0 80 60 00
        E 1 80 2a 00
        E 0 80 3f 00
        E 0 80 4b 00
        E 0 80 57 00
        E 0 80 63 00
        E 179 90 2a 60
        E 0 90 57 60
        E 0 90 63 60
        E 60 80 2a 00
        E 0 80 57 00
        E 0 80 63 00
        E 180 90 1a 60
        E 0 90 2a 60
        E 0 90 3d 60
        E 0 90 3f 60
        E 0 90 49 60
        E 0 90 4b 60
        E 0 90 55 60
        E 0 90 57 60
        E 0 90 61 60
        E 0 90 63 60
        E 59 80 2a 00
        E 0 80 3f 00
        E 0 80 4b 00
        E 0 80 57 00
        E 0 80 63 00
        E 1 80 1a 00
        E 0 80 3d 00
        E 0 80 49 00
        E 0 80 55 00
        E 0 80 61 00
        E 180 90 18 60
        E 0 90 2a 60
        E 0 90 54 60
        E 0 90 57 60
        E 0 90 60 60
        E 0 90 63 60
        E 60 80 18 00
        E 0 80 2a 00
        E 0 80 54 00
        E 0 80 57 00
        E 0 80 60 00
        E 0 80 63 00
        E 180 90 18 60
        E 0 90 2a 60
        E 0 90 3f 60
        E 0 90 48 60
        E 0 90 4b 60
        E 0 90 54 60
        E 0 90 57 60
        E 0 90 60 60
        E 0 90 63 60
        E 60 80 18 00
        E 0 80 48 00
        E 0 80 54 00
        E 0 80 60 00
        E 1 80 2a 00
        E 0 80 3f 00
        E 0 80 4b 00
        E 0 80 57 00
        E 0 80 63 00
        E 179 90 2a 60
        E 0 90 57 60
        E 0 90 63 60
        E 59 80 2a 00
        E 0 80 57 00
        E 0 80 63 00
        E 181 90 1a 60
        E 0 90 2a 60
        E 0 90 3d 60
        E 0 90 3f 60
        E 0 90 49 60
        E 0 90 4b 60
        E 0 90 55 60
        E 0 90 57 60
        E 0 90 61 60
        E 0 90 63 60
        E 59 80 2a 00
        E 0 80 3f 00
        E 0 80 4b 00
        E 0 80 57 00
        E 0 80 63 00
        E 1 80 1a 00
        E 0 80 3d 00
        E 0 80 49 00
        E 0 80 55 00
        E 0 80 61 00
        E 180 90 2a 60
        E 0 90 57 60
        E 0 90 63 60
        E 60 80 2a 00
        E 0 80 57 00
        E 0 80 63 00
        E 180 90 18 60
        E 0 90 2a 60
        E 0 90 3f 60
        E 0 90 48 60
        E 0 90 4b 60
        E 0 90 54 60
        E 0 90 57 60
        E 0 90 60 60
        E 0 90 63 60
        E 60 80 18 00
        E 0 80 48 00
        E 0 80 54 00
        E 0 80 60 00
        E 1 80 2a 00
        E 0 80 3f 00
        E 0 80 4b 00
        E 0 80 57 00
        E 0 80 63 00
        E 179 90 2a 60
        E 0 90 57 60
        E 0 90 63 60
        E 60 80 2a 00
        E 0 80 57 00
        E 0 80 63 00
        E 180 90 1a 60
        E 0 90 2a 60
        E 0 90 3d 60
        E 0 90 3f 60
        E 0 90 49 60
        E 0 90 4b 60
        E 0 90 55 60
        E 0 90 57 60
        E 0 90 61 60
        E 0 90 63 60
        E 59 80 2a 00
        E 0 80 3f 00
        E 0 80 4b 00
        E 0 80 57 00
        E 0 80 63 00
        E 1 80 1a 00
        E 0 80 3d 00
        E 0 80 49 00
        E 0 80 55 00
        E 0 80 61 00
        E 180 90 18 60
        E 0 90 2a 60
        E 0 90 54 60
        E 0 90 57 60
        E 0 90 60 60
        E 0 90 63 60
        E 60 80 18 00
        E 0 80 2a 00
        E 0 80 54 00
        E 0 80 57 00
        E 0 80 60 00
        E 0 80 63 00
        E 180 90 18 60
        E 0 90 2a 60
        E 0 90 3f 60
        E 0 90 48 60
        E 0 90 4b 60
        E 0 90 54 60
        E 0 90 57 60
        E 0 90 60 60
        E 0 90 63 60
        E 60 80 18 00
        E 0 80 48 00
        E 0 80 54 00
        E 0 80 60 00
        E 1 80 2a 00
        E 0 80 3f 00
        E 0 80 4b 00
        E 0 80 57 00
        E 0 80 63 00
        E 179 90 2a 60
        E 0 90 57 60
        E 0 90 63 60
        E 59 80 2a 00
        E 0 80 57 00
        E 0 80 63 00
        E 181 90 1a 60
        E 0 90 2a 60
        E 0 90 3d 60
        E 0 90 3f 60
        E 0 90 49 60
        E 0 90 4b 60
        E 0 90 55 60
        E 0 90 57 60
        E 0 90 61 60
        E 0 90 63 60
        E 59 80 2a 00
        E 0 80 3f 00
        E 0 80 4b 00
        E 0 80 57 00
        E 0 80 63 00
        E 1 80 1a 00
        E 0 80 3d 00
        E 0 80 49 00
        E 0 80 55 00
        E 0 80 61 00
        E 180 90 2a 60
        E 0 90 57 60
        E 0 90 63 60
        E 60 80 2a 00
        E 0 80 57 00
        E 0 80 63 00
        E 180 90 18 60
        E 0 90 2a 60
        E 0 90 3f 60
        E 0 90 48 60
        E 0 90 4b 60
        E 0 90 54 60
        E 0 90 57 60
        E 0 90 60 60
        E 0 90 63 60
        E 60 80 18 00
        E 0 80 48 00
        E 0 80 54 00
        E 0 80 60 00
        E 1 80 2a 00
        E 0 80 3f 00
        E 0 80 4b 00
        E 0 80 57 00
        E 0 80 63 00
        E 179 90 2a 60
        E 0 90 57 60
        E 0 90 63 60
        E 60 80 2a 00
        E 0 80 57 00
        E 0 80 63 00
        E 180 90 1a 60
        E 0 90 2a 60
        E 0 90 3d 60
        E 0 90 3f 60
        E 0 90 49 60
        E 0 90 4b 60
        E 0 90 55 60
        E 0 90 57 60
        E 0 90 61 60
        E 0 90 63 60
        E 59 80 2a 00
        E 0 80 3f 00
        E 0 80 4b 00
        E 0 80 57 00
        E 0 80 63 00
        E 1 80 1a 00
        E 0 80 3d 00
        E 0 80 49 00
        E 0 80 55 00
        E 0 80 61 00
        E 180 90 18 60
        E 0 90 2a 60
        E 0 90 54 60
        E 0 90 57 60
        E 0 90 60 60
        E 0 90 63 60
        E 60 80 18 00
        E 0 80 2a 00
        E 0 80 54 00
        E 0 80 57 00
        E 0 80 60 00
        E 0 80 63 00
        E 180 90 18 60
        E 0 90 2a 60
        E 0 90 3f 60
        E 0 90 48 60
        E 0 90 4b 60
        E 0 90 54 60
        E 0 90 57 60
        E 0 90 60 60
        E 0 90 63 60
        E 60 80 18 00
        E 0 80 48 00
        E 0 80 54 00
        E 0 80 60 00
        E 1 80 2a 00
        E 0 80 3f 00
        E 0 80 4b 00
        E 0 80 57 00
        E 0 80 63 00
        E 179 90 2a 60
        E 0 90 57 60
        E 0 90 63 60
        E 59 80 2a 00
        E 0 80 57 00
        E 0 80 63 00
        E 181 90 1a 60
        E 0 90 2a 60
        E 0 90 3d 60
        E 0 90 3f 60
        E 0 90 49 60
        E 0 90 4b 60
        E 0 90 55 60
        E 0 90 57 60
        E 0 90 61 60
        E 0 90 63 60
        E 59 80 2a 00
        E 0 80 3f 00
        E 0 80 4b 00
        E 0 80 57 00
        E 0 80 63 00
        E 1 80 1a 00
        E 0 80 3d 00
        E 0 80 49 00
        E 0 80 55 00
        E 0 80 61 00
        E 180 90 2a 60
        E 0 90 57 60
        E 0 90 63 60
        E 60 80 2a 00
        E 0 80 57 00
        E 0 80 63 00
        E 180 90 18 60
        E 0 90 2a 60
        E 0 90 3f 60
        E 0 90 48 60
        E 0 90 4b 60
        E 0 90 54 60
        E 0 90 57 60
        E 0 90 60 60
        E 0 90 63 60
        E 60 80 18 00
        E 0 80 48 00
        E 0 80 54 00
        E 0 80 60 00
        E 1 80 2a 00
        E 0 80 3f 00
        E 0 80 4b 00
        E 0 80 57 00
        E 0 80 63 00
        E 179 90 2a 60
        E 0 90 57 60
        E 0 90 63 60
        E 60 80 2a 00
        E 0 80 57 00
        E 0 80 63 00
        E 180 90 1a 60
        E 0 90 2a 60
        E 0 90 3d 60
        E 0 90 3f 60
        E 0 90 49 60
        E 0 90 4b 60
        E 0 90 55 60
        E 0 90 57 60
        E 0 90 61 60
        E 0 90 63 60
        E 59 80 2a 00
        E 0 80 3f 00
        E 0 80 4b 00
        E 0 80 57 00
        E 0 80 63 00
        E 1 80 1a 00
        E 0 80 3d 00
        E 0 80 49 00
        E 0 80 55 00
        E 0 80 61 00
        E 180 90 18 60
        E 0 90 2a 60
        E 0 90 54 60
        E 0 90 57 60
        E 0 90 60 60
        E 0 90 63 60
        E 60 80 18 00
        E 0 80 2a 00
        E 0 80 54 00
        E 0 80 57 00
        E 0 80 60 00
        E 0 80 63 00
        E 180 90 18 60
        E 0 90 2a 60
        E 0 90 3f 60
        E 0 90 48 60
        E 0 90 4b 60
        E 0 90 54 60
        E 0 90 57 60
        E 0 90 60 60
        E 0 90 63 60
        E 0 90 78 60
        E 0 90 79 60
        E 0 90 7a 60
        E 0 90 7b 60
        E 0 90 7c 60
        E 60 80 18 00
        E 0 80 48 00
        E 0 80 54 00
        E 0 80 60 00
        E 1 80 2a 00
        E 0 80 3f 00
        E 0 80 4b 00
        E 0 80 57 00
        E 0 80 63 00
        E 179 90 2a 60
        E 0 90 57 60
        E 0 90 63 60
        E 59 80 2a 00
        E 0 80 57 00
        E 0 80 63 00
        E 181 90 1a 60
        E 0 90 2a 60
        E 0 90 3d 60
        E 0 90 3f 60
        E 0 90 49 60
        E 0 90 4b 60
        E 0 90 55 60
        E 0 90 57 60
        E 0 90 61 60
        E 0 90 63 60
        E 59 80 2a 00
        E 0 80 3f 00
        E 0 80 4b 00
        E 0 80 57 00
        E 0 80 63 00
        E 1 80 1a 00
        E 0 80 3d 00
        E 0 80 49 00
        E 0 80 55 00
        E 0 80 61 00
        E 180 90 2a 60
        E 0 90 57 60
        E 0 90 63 60
        E 60 80 2a 00
        E 0 80 57 00
        E 0 80 63 00
        E 180 80 78 00
        E 0 80 79 00
        E 0 80 7a 00
        E 0 80 7b 00
        E 0 80 7c 00
        E 0 90 18 60
        E 0 90 22 60
        E 0 90 26 60
        E 0 90 3f 60
        E 0 90 40 60
        E 0 90 48 60
        E 0 90 4b 60
        E 0 90 4c 60
        E 0 90 54 60
        E 0 90 57 60
        E 0 90 58 60
        E 0 90 60 60
        E 0 90 63 60
        E 0 90 64 60
        E 60 80 18 00
        E 0 80 26 00
        E 0 80 40 00
        E 0 80 48 00
        E 0 80 4c 00
        E 0 80 54 00
        E 0 80 58 00
        E 0 80 60 00
        E 0 80 64 00
        E 1 80 22 00
        E 0 80 3f 00
        E 0 80 4b 00
        E 0 80 57 00
        E 0 80 63 00
        E 179 90 2a 60
        E 0 90 57 60
        E 0 90 63 60
        E 60 80 2a 00
        E 0 80 57 00
        E 0 80 63 00
        E 180 90 1a 60
        E 0 90 2a 60
        E 0 90 3d 60
        E 0 90 3f 60
        E 0 90 49 60
        E 0 90 4b 60
        E 0 90 55 60
        E 0 90 57 60
        E 0 90 61 60
        E 0 90 63 60
        E 59 80 2a 00
        E 0 80 3f 00
        E 0 80 4b 00
        E 0 80 57 00
        E 0 80 63 00
        E 1 80 1a 00
        E 0 80 3d 00
        E 0 80 49 00
        E 0 80 55 00
        E 0 80 61 00
        E 180 90 18 60
        E 0 90 2a 60
        E 0 90 54 60
        E 0 90 57 60
        E 0 90 60 60
        E 0 90 63 60
        E 60 80 18 00
        E 0 80 2a 00
        E 0 80 54 00
        E 0 80 57 00
        E 0 80 60 00
        E 0 80 63 00
        E 180 90 18 60
        E 0 90 2a 60
        E 0 90 3f 60
        E 0 90 48 60
        E 0 90 4b 60
        E 0 90 54 60
        E 0 90 57 60
        E 0 90 60 60
        E 0 90 63 60
        E 60 80 18 00
        E 0 80 48 00
        E 0 80 54 00
        E 0 80 60 00
        E 1 80 2a 00
        E 0 80 3f 00
        E 0 80 4b 00
        E 0 80 57 00
        E 0 80 63 00
        E 179 90 2a 60
        E 0 90 57 60
        E 0 90 63 60
        E 59 80 2a 00
        E 0 80 57 00
        E 0 80 63 00
        E 181 90 1a 60
        E 0 90 2a 60
        E 0 90 3d 60
        E 0 90 3f 60
        E 0 90 49 60
        E 0 90 4b 60
        E 0 90 55 60
        E 0 90 57 60
        E 0 90 61 60
        E 0 90 63 60
        E 59 80 2a 00
        E 0 80 3f 00
        E 0 80 4b 00
        E 0 80 57 00
        E 0 80 63 00
        E 1 80 1a 00
        E 0 80 3d 00
        E 0 80 49 00
        E 0 80 55 00
        E 0 80 61 00
        E 180 90 2a 60
        E 0 90 57 60
        E 0 90 63 60
        E 60 80 2a 00
        E 0 80 57 00
        E 0 80 63 00
        E 180 90 18 60
        E 0 90 2a 60
        E 0 90 3f 60
        E 0 90 48 60
        E 0 90 4b 60
        E 0 90 54 60
        E 0 90 57 60
        E 0 90 60 60
        E 0 90 63 60
        E 60 80 18 00
        E 0 80 48 00
        E 0 80 54 00
        E 0 80 60 00
        E 1 80 2a 00
        E 0 80 3f 00
        E 0 80 4b 00
        E 0 80 57 00
        E 0 80 63 00
        E 179 90 2a 60
        E 0 90 57 60
        E 0 90 63 60
        E 60 80 2a 00
        E 0 80 57 00
        E 0 80 63 00
        E 180 90 1a 60
        E 0 90 2a 60
        E 0 90 3d 60
        E 0 90 3f 60
        E 0 90 49 60
        E 0 90 4b 60
        E 0 90 55 60
        E 0 90 57 60
        E 0 90 61 60
        E 0 90 63 60
        E 59 80 2a 00
        E 0 80 3f 00
        E 0 80 4b 00
        E 0 80 57 00
        E 0 80 63 00
        E 1 80 1a 00
        E 0 80 3d 00
        E 0 80 49 00
        E 0 80 55 00
        E 0 80 61 00
        E 180 90 18 60
        E 0 90 2a 60
        E 0 90 54 60
        E 0 90 57 60
        E 0 90 60 60
        E 0 90 63 60
        E 60 80 18 00
        E 0 80 2a 00
        E 0 80 54 00
        E 0 80 57 00
        E 0 80 60 00
        E 0 80 63 00
        E 180 90 18 60
        E 0 90 2a 60
        E 0 90 3f 60
        E 0 90 48 60
        E 0 90 4b 60
        E 0 90 54 60
        E 0 90 57 60
        E 0 90 60 60
        E 0 90 63 60
        E 60 80 18 00
        E 0 80 48 00
        E 0 80 54 00
        E 0 80 60 00
        E 1 80 2a 00
        E 0 80 3f 00
        E 0 80 4b 00
        E 0 80 57 00
        E 0 80 63 00
        E 179 90 2a 60
        E 0 90 57 60
        E 0 90 63 60
        E 59 80 2a 00
        E 0 80 57 00
        E 0 80 63 00
        E 181 90 1a 60
        E 0 90 2a 60
        E 0 90 3d 60
        E 0 90 3f 60
        E 0 90 49 60
        E 0 90 4b 60
        E 0 90 55 60
        E 0 90 57 60
        E 0 90 61 60
        E 0 90 63 60
        E 59 80 2a 00
        E 0 80 3f 00
        E 0 80 4b 00
        E 0 80 57 00
        E 0 80 63 00
        E 1 80 1a 00
        E 0 80 3d 00
        E 0 80 49 00
        E 0 80 55 00
        E 0 80 61 00
        E 180 90 2a 60
        E 0 90 57 60
        E 0 90 63 60
        E 60 80 2a 00
        E 0 80 57 00
        E 0 80 63 00
        E 180 90 18 60
        E 0 90 2a 60
        E 0 90 3f 60
        E 0 90 48 60
        E 0 90 4b 60
        E 0 90 54 60
        E 0 90 57 60
        E 0 90 60 60
        E 0 90 63 60
        E 60 80 18 00
        E 0 80 48 00
        E 0 80 54 00
        E 0 80 60 00
        E 1 80 2a 00
        E 0 80 3f 00
        E 0 80 4b 00
        E 0 80 57 00
        E 0 80 63 00
        E 179 90 2a 60
        E 0 90 57 60
        E 0 90 63 60
        E 60 80 2a 00
        E 0 80 57 00
        E 0 80 63 00
        E 180 90 1a 60
        E 0 90 2a 60
        E 0 90 3d 60
        E 0 90 3f 60
        E 0 90 49 60
        E 0 90 4b 60
        E 0 90 55 60
        E 0 90 57 60
        E 0 90 61 60
        E 0 90 63 60
        E 59 80 2a 00
        E 0 80 3f 00
        E 0 80 4b 00
        E 0 80 57 00
        E 0 80 63 00
        E 1 80 1a 00
        E 0 80 3d 00
        E 0 80 49 00
        E 0 80 55 00
        E 0 80 61 00
        E 180 90 18 60
        E 0 90 2a 60
        E 0 90 54 60
        E 0 90 57 60
        E 0 90 60 60
        E 0 90 63 60
        E 60 80 18 00
        E 0 80 2a 00
        E 0 80 54 00
        E 0 80 57 00
        E 0 80 60 00
        E 0 80 63 00
        E 180 90 18 60
        E 0 90 2a 60
        E 0 90 3f 60
        E 0 90 48 60
        E 0 90 4b 60
        E 0 90 54 60
        E 0 90 57 60
        E 0 90 60 60
        E 0 90 63 60
        E 60 80 18 00
        E 0 80 48 00
        E 0 80 54 00
        E 0 80 60 00
        E 1 80 2a 00
        E 0 80 3f 00
        E 0 80 4b 00
        E 0 80 57 00
        E 0 80 63 00
        E 179 90 2a 60
        E 0 90 57 60
        E 0 90 63 60
        E 59 80 2a 00
        E 0 80 57 00
        E 0 80 63 00
        E 181 90 1a 60
        E 0 90 2a 60
        E 0 90 3d 60
        E 0 90 3f 60
        E 0 90 49 60
        E 0 90 4b 60
        E 0 90 55 60
        E 0 90 57 60
        E 0 90 61 60
        E 0 90 63 60
        E 59 80 2a 00
        E 0 80 3f 00
        E 0 80 4b 00
        E 0 80 57 00
        E 0 80 63 00
        E 1 80 1a 00
        E 0 80 3d 00
        E 0 80 49 00
        E 0 80 55 00
        E 0 80 61 00
        E 180 90 2a 60
        E 0 90 57 60
        E 0 90 63 60
        E 60 80 2a 00
        E 0 80 57 00
        E 0 80 63 00
        E 180 90 18 60
        E 0 90 2a 60
        E 0 90 3f 60
        E 0 90 48 60
        E 0 90 4b 60
        E 0 90 54 60
        E 0 90 57 60
        E 0 90 60 60
        E 0 90 63 60
        E 60 80 18 00
        E 0 80 48 00
        E 0 80 54 00
        E 0 80 60 00
        E 1 80 2a 00
        E 0 80 3f 00
        E 0 80 4b 00
        E 0 80 57 00
        E 0 80 63 00
        E 179 90 2a 60
        E 0 90 57 60
        E 0 90 63 60
        E 60 80 2a 00
        E 0 80 57 00
        E 0 80 63 00
        E 180 90 1a 60
        E 0 90 2a 60
        E 0 90 3d 60
        E 0 90 3f 60
        E 0 90 49 60
        E 0 90 4b 60
        E 0 90 55 60
        E 0 90 57 60
        E 0 90 61 60
        E 0 90 63 60
        E 59 80 2a 00
        E 0 80 3f 00
        E 0 80 4b 00
        E 0 80 57 00
        E 0 80 63 00
        E 1 80 1a 00
        E 0 80 3d 00
        E 0 80 49 00
        E 0 80 55 00
        E 0 80 61 00
        E 180 90 18 60
        E 0 90 2a 60
        E 0 90 54 60
        E 0 90 57 60
        E 0 90 60 60
        E 0 90 63 60
        E 60 80 18 00
        E 0 80 2a 00
        E 0 80 54 00
        E 0 80 57 00
        E 0 80 60 00
        E 0 80 63 00
        E 180 90 18 60
        E 0 90 2a 60
        E 0 90 3f 60
        E 0 90 48 60
        E 0 90 4b 60
        E 0 90 54 60
        E 0 90 57 60
        E 0 90 60 60
        E 0 90 63 60
        E 60 80 18 00
        E 0 80 48 00
        E 0 80 54 00
        E 0 80 60 00
        E 1 80 2a 00
        E 0 80 3f 00
        E 0 80 4b 00
        E 0 80 57 00
        E 0 80 63 00
        E 179 90 2a 60
        E 0 90 57 60
        E 0 90 63 60
        E 59 80 2a 00
        E 0 80 57 00
        E 0 80 63 00
        E 181 90 1a 60
        E 0 90 2a 60
        E 0 90 3d 60
        E 0 90 3f 60
        E 0 90 49 60
        E 0 90 4b 60
        E 0 90 55 60
        E 0 90 57 60
        E 0 90 61 60
        E 0 90 63 60
        E 59 80 2a 00
        E 0 80 3f 00
        E 0 80 4b 00
        E 0 80 57 00
        E 0 80 63 00
        E 1 80 1a 00
        E 0 80 3d 00
        E 0 80 49 00
        E 0 80 55 00
        E 0 80 61 00
        E 180 90 2a 60
        E 0 90 57 60
        E 0 90 63 60
        E 60 80 2a 00
        E 0 80 57 00
        E 0 80 63 00
        E 180 90 18 60
        E 0 90 22 60
        E 0 90 26 60
        E 0 90 3f 60
        E 0 90 40 60
        E 0 90 48 60
        E 0 90 4b 60
        E 0 90 4c 60
        E 0 90 54 60
        E 0 90 57 60
        E 0 90 58 60
        E 0 90 60 60
        E 0 90 63 60
        E 0 90 64 60
        E 60 80 18 00
        E 0 80 26 00
        E 0 80 40 00
        E 0 80 48 00
        E 0 80 4c 00
        E 0 80 54 00
        E 0 80 58 00
        E 0 80 60 00
        E 0 80 64 00
        E 1 80 22 00
        E 0 80 3f 00
        E 0 80 4b 00
        E 0 80 57 00
        E 0 80 63 00
        E 179 90 2a 60
        E 0 90 57 60
        E 0 90 63 60
        E 60 80 2a 00
        E 0 80 57 00
        E 0 80 63 00
        E 180 90 1a 60
        E 0 90 2a 60
        E 0 90 3d 60
        E 0 90 3f 60
        E 0 90 49 60
        E 0 90 4b 60
        E 0 90 55 60
        E 0 90 57 60
        E 0 90 61 60
        E 0 90 63 60
        E 59 80 2a 00
        E 0 80 3f 00
        E 0 80 4b 00
        E 0 80 57 00
        E 0 80 63 00
        E 1 80 1a 00
        E 0 80 3d 00
        E 0 80 49 00
        E 0 80 55 00
        E 0 80 61 00
        E 180 90 18 60
        E 0 90 2a 60
        E 0 90 54 60
        E 0 90 57 60
        E 0 90 60 60
        E 0 90 63 60
        E 60 80 18 00
        E 0 80 2a 00
        E 0 80 54 00
        E 0 80 57 00
        E 0 80 60 00
        E 0 80 63 00
        E 180 90 18 60
        E 0 90 2a 60
        E 0 90 3f 60
        E 0 90 48 60
        E 0 90 4b 60
        E 0 90 54 60
        E 0 90 57 60
        E 0 90 60 60
        E 0 90 63 60
        E 60 80 18 00
        E 0 80 48 00
        E 0 80 54 00
        E 0 80 60 00
        E 1 80 2a 00
        E 0 80 3f 00
        E 0 80 4b 00
        E 0 80 57 00
        E 0 80 63 00
        E 179 90 2a 60
        E 0 90 57 60
        E 0 90 63 60
        E 59 80 2a 00
        E 0 80 57 00
        E 0 80 63 00
        E 181 90 1a 60
        E 0 90 2a 60
        E 0 90 3d 60
        E 0 90 3f 60
        E 0 90 49 60
        E 0 90 4b 60
        E 0 90 55 60
        E 0 90 57 60
        E 0 90 61 60
        E 0 90 63 60
        E 59 80 2a 00
        E 0 80 3f 00
        E 0 80 4b 00
        E 0 80 57 00
        E 0 80 63 00
        E 1 80 1a 00
        E 0 80 3d 00
        E 0 80 49 00
        E 0 80 55 00
        E 0 80 61 00
        E 180 90 2a 60
        E 0 90 57 60
        E 0 90 63 60
        E 60 80 2a 00
        E 0 80 57 00
        E 0 80 63 00
        E 180 90 18 60
        E 0 90 2a 60
        E 0 90 3f 60
        E 0 90 48 60
        E 0 90 4b 60
        E 0 90 54 60
        E 0 90 57 60
        E 0 90 60 60
        E 0 90 63 60
        E 60 80 18 00
        E 0 80 48 00
        E 0 80 54 00
        E 0 80 60 00
        E 1 80 2a 00
        E 0 80 3f 00
        E 0 80 4b 00
        E 0 80 57 00
        E 0 80 63 00
        E 179 90 2a 60
        E 0 90 57 60
        E 0 90 63 60
        E 60 80 2a 00
        E 0 80 57 00
        E 0 80 63 00
        E 180 90 1a 60
        E 0 90 2a 60
        E 0 90 3d 60
        E 0 90 3f 60
        E 0 90 49 60
        E 0 90 4b 60
        E 0 90 55 60
        E 0 90 57 60
        E 0 90 61 60
        E 0 90 63 60
        E 59 80 2a 00
        E 0 80 3f 00
        E 0 80 4b 00
        E 0 80 57 00
        E 0 80 63 00
        E 1 80 1a 00
        E 0 80 3d 00
        E 0 80 49 00
        E 0 80 55 00
        E 0 80 61 00
        E 180 90 18 60
        E 0 90 2a 60
        E 0 90 54 60
        E 0 90 57 60
        E 0 90 60 60
        E 0 90 63 60
        E 60 80 18 00
        E 0 80 2a 00
        E 0 80 54 00
        E 0 80 57 00
        E 0 80 60 00
        E 0 80 63 00
        E 180 90 18 60
        E 0 90 2a 60
        E 0 90 3f 60
        E 0 90 48 60
        E 0 90 4b 60
        E 0 90 54 60
        E 0 90 57 60
        E 0 90 60 60
        E 0 90 63 60
        E 60 80 18 00
        E 0 80 48 00
        E 0 80 54 00
        E 0 80 60 00
        E 1 80 2a 00
        E 0 80 3f 00
        E 0 80 4b 00
        E 0 80 57 00
        E 0 80 63 00
        E 179 90 2a 60
        E 0 90 57 60
        E 0 90 63 60
        E 59 80 2a 00
        E 0 80 57 00
        E 0 80 63 00
        E 181 90 1a 60
        E 0 90 2a 60
        E 0 90 3d 60
        E 0 90 3f 60
        E 0 90 49 60
        E 0 90 4b 60
        E 0 90 55 60
        E 0 90 57 60
        E 0 90 61 60
        E 0 90 63 60
        E 59 80 2a 00
        E 0 80 3f 00
        E 0 80 4b 00
        E 0 80 57 00
        E 0 80 63 00
        E 1 80 1a 00
        E 0 80 3d 00
        E 0 80 49 00
        E 0 80 55 00
        E 0 80 61 00
        E 180 90 2a 60
        E 0 90 57 60
        E 0 90 63 60
        E 60 80 2a 00
        E 0 80 57 00
        E 0 80 63 00
        E 180 90 18 60
        E 0 90 2a 60
        E 0 90 3f 60
        E 0 90 48 60
        E 0 90 4b 60
        E 0 90 54 60
        E 0 90 57 60
        E 0 90 60 60
        E 0 90 63 60
        E 60 80 18 00
        E 0 80 48 00
        E 0 80 54 00
        E 0 80 60 00
        E 1 80 2a 00
        E 0 80 3f 00
        E 0 80 4b 00
        E 0 80 57 00
        E 0 80 63 00
        E 179 90 2a 60
        E 0 90 57 60
        E 0 90 63 60
        E 60 80 2a 00
        E 0 80 57 00
        E 0 80 63 00
        E 180 90 1a 60
        E 0 90 2a 60
        E 0 90 3d 60
        E 0 90 3f 60
        E 0 90 49 60
        E 0 90 4b 60
        E 0 90 55 60
        E 0 90 57 60
        E 0 90 61 60
        E 0 90 63 60
        E 59 80 2a 00
        E 0 80 3f 00
        E 0 80 4b 00
        E 0 80 57 00
        E 0 80 63 00
        E 1 80 1a 00
        E 0 80 3d 00
        E 0 80 49 00
        E 0 80 55 00
        E 0 80 61 00
        E 180 90 18 60
        E 0 90 2a 60
        E 0 90 54 60
        E 0 90 57 60
        E 0 90 60 60
        E 0 90 63 60
        E 60 80 18 00
        E 0 80 2a 00
        E 0 80 54 00
        E 0 80 57 00
        E 0 80 60 00
        E 0 80 63 00
        E 180 90 18 60
        E 0 90 2a 60
        E 0 90 3f 60
        E 0 90 48 60
        E 0 90 4b 60
        E 0 90 54 60
        E 0 90 57 60
        E 0 90 60 60
        E 0 90 63 60
        E 60 80 18 00
        E 0 80 48 00
        E 0 80 54 00
        E 0 80 60 00
        E 1 80 2a 00
        E 0 80 3f 00
        E 0 80 4b 00
        E 0 80 57 00
        E 0 80 63 00
        E 179 90 2a 60
        E 0 90 57 60
        E 0 90 63 60
        E 59 80 2a 00
        E 0 80 57 00
        E 0 80 63 00
        E 181 90 1a 60
        E 0 90 2a 60
        E 0 90 3d 60
        E 0 90 3f 60
        E 0 90 49 60
        E 0 90 4b 60
        E 0 90 55 60
        E 0 90 57 60
        E 0 90 61 60
        E 0 90 63 60
        E 59 80 2a 00
        E 0 80 3f 00
        E 0 80 4b 00
        E 0 80 57 00
        E 0 80 63 00
        E 1 80 1a 00
        E 0 80 3d 00
        E 0 80 49 00
        E 0 80 55 00
        E 0 80 61 00
        E 180 90 2a 60
        E 0 90 57 60
        E 0 90 63 60
        E 60 80 2a 00
        E 0 80 57 00
        E 0 80 63 00
        E 180 90 18 60
        E 0 90 2a 60
        E 0 90 3f 60
        E 0 90 48 60
        E 0 90 4b 60
        E 0 90 54 60
        E 0 90 57 60
        E 0 90 60 60
        E 0 90 63 60
        E 60 80 18 00
        E 0 80 48 00
        E 0 80 54 00
        E 0 80 60 00
        E 1 80 2a 00
        E 0 80 3f 00
        E 0 80 4b 00
        E 0 80 57 00
        E 0 80 63 00
        E 179 90 2a 60
        E 0 90 57 60
        E 0 90 63 60
        E 60 80 2a 00
        E 0 80 57 00
        E 0 80 63 00
        E 180 90 1a 60
        E 0 90 2a 60
        E 0 90 3d 60
        E 0 90 3f 60
        E 0 90 49 60
        E 0 90 4b 60
        E 0 90 55 60
        E 0 90 57 60
        E 0 90 61 60
        E 0 90 63 60
        E 59 80 2a 00
        E 0 80 3f 00
        E 0 80 4b 00
        E 0 80 57 00
        E 0 80 63 00
        E 1 80 1a 00
        E 0 80 3d 00
        E 0 80 49 00
        E 0 80 55 00
        E 0 80 61 00
        E 180 90 18 60
        E 0 90 2a 60
        E 0 90 54 60
        E 0 90 57 60
        E 0 90 60 60
        E 0 90 63 60
        E 60 80 18 00
        E 0 80 2a 00
        E 0 80 54 00
        E 0 80 57 00
        E 0 80 60 00
        E 0 80 63 00
        E 180 90 18 60
        E 0 90 2a 60
        E 0 90 3f 60
        E 0 90 48 60
        E 0 90 4b 60
        E 0 90 54 60
        E 0 90 57 60
        E 0 90 60 60
        E 0 90 63 60
        E 60 80 18 00
        E 0 80 48 00
        E 0 80 54 00
        E 0 80 60 00
        E 1 80 2a 00
        E 0 80 3f 00
        E 0 80 4b 00
        E 0 80 57 00
        E 0 80 63 00
        E 179 90 2a 60
        E 0 90 57 60
        E 0 90 63 60
        E 59 80 2a 00
        E 0 80 57 00
        E 0 80 63 00
        E 181 90 1a 60
        E 0 90 2a 60
        E 0 90 3d 60
        E 0 90 3f 60
        E 0 90 49 60
        E 0 90 4b 60
        E 0 90 55 60
        E 0 90 57 60
        E 0 90 61 60
        E 0 90 63 60
        E 59 80 2a 00
        E 0 80 3f 00
        E 0 80 4b 00
        E 0 80 57 00
        E 0 80 63 00
        E 1 80 1a 00
        E 0 80 3d 00
        E 0 80 49 00
        E 0 80 55 00
        E 0 80 61 00
        E 180 90 2a 60
        E 0 90 57 60
        E 0 90 63 60
        E 60 80 2a 00
        E 0 80 57 00
        E 0 80 63 00
        E 180 90 18 60
        E 0 90 22 60
        E 0 90 26 60
        E 0 90 3f 60
        E 0 90 40 60
        E 0 90 48 60
        E 0 90 4b 60
        E 0 90 4c 60
        E 0 90 54 60
        E 0 90 57 60
        E 0 90 58 60
        E 0 90 60 60
        E 0 90 63 60
        E 0 90 64 60
        E 60 80 18 00
        E 0 80 22 00
        E 0 80 26 00
        E 0 80 3f 00
        E 0 80 40 00
        E 0 80 48 00
        E 0 80 4b 00
        E 0 80 4c 00
        E 0 80 54 00
        E 0 80 57 00
        E 0 80 58 00
        E 0 80 60 00
        E 0 80 63 00
        E 0 80 64 00
        <X 480 0
          /wFbaWRsZV9yZWFsdGltZV0=
        >
        E 6660 b0 7b 00
        GUID {99C52F88-C54B-4CCD-B038-A5C950AC8E6E}
        IGNTEMPO 0 120.00000000 4 4
        SRCCOLOR 1433
        VELLANE 132 38 60
        COLORMAP "C:\Users\wejaa\AppData\Roaming\REAPER\Data\color_maps\rockband_drums.png"
        TEXTSTRINGFILE "Text Events List.txt"
        CFGEDITVIEW 291348.501276 273.474866 0 12 0 0 0
        CFGEDIT 1 1 0 0 0 1 1 1 1 1 1 0.12500000 -8 -8 1370 736 1 0 1 2 0.00000000 0 0 0 0 0.500000 1 0 1.000000 64
        KEYSNAP 0 0 "102034050607" 0 "Major"
        EVTFILTER 0 -1 -1 -1 -1 0 1 0 0 -1.00000000 -1.00000000
      >
    >
  >
  <TRACK '{1862DD0A-B721-4A0D-9FB5-2E309BF9FC01}'
    NAME "drums_[mvsep.com]"
    PEAKCOL 16576
    BEAT -1
    AUTOMODE 0
    VOLPAN 1.00000000000000 0.00000000000000 -1.00000000000000 -1.00000000000000 1.00000000000000
    MUTESOLO 0 0 0
    IPHASE 0
    ISBUS 0 0
    BUSCOMP 0 0
    SHOWINMIX 1 0.666700 0.500000 1 0.500000 -1 -1 -1
    FREEMODE 0
    SEL 0
    REC 0 0 0 0 0 0 0
    VU 2
    TRACKHEIGHT 24 0
    INQ 0 0 0 0.5000000000 100 0 0 100
    NCHAN 2
    FX 1
    TRACKID {1862DD0A-B721-4A0D-9FB5-2E309BF9FC01}
    PERF 0
    MIDIOUT -1
    MAINSEND 1 0
    <ITEM
      POSITION 2.16421718522906
      SNAPOFFS 0.00000000000000
      LENGTH 255.68852607709749
      LOOP 0
      ALLTAKES 0
      SEL 0
      FADEIN 1 0.000000 0.000000 1 0
      FADEOUT 1 0.000000 0.000000 1 0
      MUTE 0
      IGUID {27B4DF56-C8AF-428E-9C85-F63ECDA9A4A7}
      IID 53
      NAME "drums_[mvsep.com].flac"
      VOLPAN 1.000000 0.000000 1.000000 -1.000000
      SOFFS 0.00000000000000
      PLAYRATE 1.00000000000000 1 0.00000000000000 -1
      CHANMODE 0
      GUID {1FB58C4A-BD2C-4359-A475-C3F7F8EB5F44}
      <SOURCE FLAC
        FILE "drums_[mvsep.com].flac"
      >
    >
  >
  <TRACK '{70C3FE4D-3BC3-4146-95C4-8AC455A2D0F5}'
    NAME "PART BASS"
    PEAKCOL 16777471
    BEAT -1
    AUTOMODE 0
    VOLPAN 1.00000000000000 0.00000000000000 -1.00000000000000 -1.00000000000000 1.00000000000000
    MUTESOLO 0 0 0
    IPHASE 0
    ISBUS 0 0
    BUSCOMP 1 0
    SHOWINMIX 1 0.666700 0.500000 1 0.500000 -1 -1 -1
    FREEMODE 0
    SEL 0
    REC 0 4096 1 0 0 0 0
    TRACKHEIGHT 24 0
    INQ 0 0 0 0.5000000000 100 0 0 100
    NCHAN 2
    FX 1
    TRACKID {70C3FE4D-3BC3-4146-95C4-8AC455A2D0F5}
    PERF 0
    MIDIOUT -1
    <MIDINOTENAMES
      0 96 "EXPERT Green"
      0 97 "EXPERT Red"
      0 98 "EXPERT Yellow"
      0 99 "EXPERT Blue"
      0 100 "EXPERT Orange"
      0 84 "HARD Green"
      0 85 "HARD Red"
      0 86 "HARD Yellow"
      0 87 "HARD Blue"
      0 88 "HARD Orange"
      0 91 "----"
      0 116 "OVERDRIVE"
      0 40 "Left Hand Lowest"
      0 59 "Left Hand Highest"
      0 58 "-"
      0 57 "-"
      0 56 "-"
      0 55 "-"
      0 54 "-"
      0 53 "-"
      0 52 "-"
      0 51 "-"
      0 50 "-"
      0 49 "-"
      0 47 "-"
      0 48 "-"
      0 46 "-"
      0 45 "-"
      0 44 "-"
      0 43 "-"
      0 42 "-"
      0 41 "-"
      0 111 "----"
      0 72 "MEDIUM Green"
      0 73 "MEDIUM Red"
      0 74 "MEDIUM Yellow"
      0 75 "MEDIUM Blue"
      0 76 "MEDIUM Orange"
      0 60 "EASY Green"
      0 61 "EASY Red"
      0 62 "EASY Yellow"
      0 63 "EASY Blue"
      0 64 "EASY Orange"
      0 68 "----"
      0 80 "----"
      0 102 "Force HOPO Off"
      0 101 "Force HOPO On"
      0 120 "BRE (use all 5)"
      0 121 "BRE"
      0 122 "BRE"
      0 123 "BRE"
      0 124 "BRE"
      0 119 "----"
      0 90 "Force HOPO Off"
      0 89 "Force HOPO On"
      0 127 "Trill Marker"
      0 125 "----"
      0 103 "Solo Marker"
      0 126 "Strum Marker"
    >
    MAINSEND 1 0
    <FXCHAIN
      WNDRECT -1035 461 878 585
      SHOW 0
      LASTSEL 1
      DOCKED 0
      BYPASS 1 0
      <VST "VSTi: ReaSynth (Cockos)" "reasynth.dll" 0 ""
        eXNlcu9e7f4AAAAAAgAAAAEAAAAAAAAAAgAAAAAAAAA4AAAAAAAAAA==
        AAAAAO++rd4N8K3eAAAAAAAAAAAAAAAAAAAAADm0SD59y9s+tbSxOQ==
        AAAAALbz/T5VpCs6AAAAAAAAAAAAAAAAAAA=
      >
      FLOATPOS 0 0 0 0
      FXID {D4EC3C58-478E-4D1F-A0FC-2252BD344989}
      WAK 0
      BYPASS 0 0
      <VST "VSTi: RBN Preview (RBN)" "rbprev_vst64_beta.dll" 0 ""
        dnBicu5e7f4AAAAAAgAAAAEAAAAAAAAAAgAAAAAAAAAEAAAAAQAAAA==
        AAAAAAMAqgAAAAAAAAA=
      >
      FLOATPOS 32 32 659 497
      FXID {72D22271-4F4F-4081-90C4-66415E7AEC47}
      WAK 0
    >
    <ITEM
      POSITION 0.00000000000000
      SNAPOFFS 0.00000000000000
      LENGTH 256.54924016774078
      LOOP 0
      ALLTAKES 0
      SEL 0
      FADEIN 1 0.000000 0.000000 1 0
      FADEOUT 1 0.000000 0.000000 1 0
      MUTE 0
      IGUID {A1B24BBF-93B7-476C-BC6D-33F5621C633F}
      IID 8
      NAME "PART BASS"
      VOLPAN 1.000000 0.000000 1.000000 -1.000000
      SOFFS 0.00000000000000 0.00000000000000
      PLAYRATE 1.00000000000000 1 0.00000000000000 -65536
      CHANMODE 0
      GUID {344A7487-35C3-41F9-8B1E-12A4F3D7F336}
      <SOURCE MIDI
        HASDATA 1 480 QN
        POOLEDEVTS {4C8A8E13-C88E-4BCD-B4DB-509F9FE9E782}
        <X 0 0
          /wNQQVJUIEJBU1M=
        >
        <X 3840 0
          /wFbaWRsZV0=
        >
        <X 9600 0
          /wFbcGxheV0=
        >
        E 0 90 3d 60
        E 0 90 49 60
        E 0 90 55 60
        E 0 90 61 60
        E 60 80 3d 00
        E 0 80 49 00
        E 0 80 55 00
        E 0 80 61 00
        E 180 90 49 60
        E 0 90 55 60
        E 0 90 61 60
        E 60 80 49 00
        E 0 80 55 00
        E 0 80 61 00
        E 1620 90 3e 60
        E 0 90 4a 60
        E 0 90 56 60
        E 0 90 62 60
        E 60 80 3e 00
        E 0 80 4a 00
        E 0 80 56 00
        E 0 80 62 00
        E 179 90 56 60
        E 0 90 62 60
        E 61 80 56 00
        E 0 80 62 00
        E 1620 90 3d 60
        E 0 90 49 60
        E 0 90 55 60
        E 0 90 61 60
        E 60 80 3d 00
        E 0 80 49 00
        E 0 80 55 00
        E 0 80 61 00
        E 180 90 49 60
        E 0 90 55 60
        E 0 90 61 60
        E 60 80 49 00
        E 0 80 55 00
        E 0 80 61 00
        E 1620 90 3e 60
        E 0 90 4a 60
        E 0 90 56 60
        E 0 90 62 60
        E 60 80 3e 00
        E 0 80 4a 00
        E 0 80 56 00
        E 0 80 62 00
        E 179 90 56 60
        E 0 90 62 60
        E 61 80 56 00
        E 0 80 62 00
        E 1620 90 3d 60
        E 0 90 49 60
        E 0 90 55 60
        E 0 90 61 60
        E 60 80 3d 00
        E 0 80 49 00
        E 0 80 55 00
        E 0 80 61 00
        E 180 90 49 60
        E 0 90 55 60
        E 0 90 61 60
        E 60 80 49 00
        E 0 80 55 00
        E 0 80 61 00
        E 1620 90 3e 60
        E 0 90 4a 60
        E 0 90 56 60
        E 0 90 62 60
        E 60 80 3e 00
        E 0 80 4a 00
        E 0 80 56 00
        E 0 80 62 00
        E 179 90 56 60
        E 0 90 62 60
        E 61 80 56 00
        E 0 80 62 00
        E 1620 90 3d 60
        E 0 90 49 60
        E 0 90 55 60
        E 0 90 61 60
        E 60 80 3d 00
        E 0 80 49 00
        E 0 80 55 00
        E 0 80 61 00
        E 180 90 49 60
        E 0 90 55 60
        E 0 90 61 60
        E 60 80 49 00
        E 0 80 55 00
        E 0 80 61 00
        E 1620 90 3d 60
        E 0 90 49 60
        E 0 90 55 60
        E 0 90 61 60
        E 120 80 3d 00
        E 0 80 49 00
        E 240 80 55 00
        E 60 80 61 00
        E 60 90 49 60
        E 0 90 55 60
        E 0 90 61 60
        E 120 80 49 00
        E 0 80 55 00
        E 180 80 61 00
        E 180 90 3f 60
        E 0 90 4b 60
        E 0 90 57 60
        E 0 90 63 60
        E 120 80 3f 00
        E 0 80 4b 00
        E 240 80 57 00
        E 60 80 63 00
        E 60 90 4b 60
        E 0 90 57 60
        E 0 90 63 60
        E 120 80 4b 00
        E 0 80 57 00
        E 180 80 63 00
        E 180 90 3d 60
        E 0 90 49 60
        E 0 90 55 60
        E 0 90 61 60
        E 120 80 3d 00
        E 0 80 49 00
        E 240 80 55 00
        E 60 80 61 00
        E 60 90 3d 60
        E 0 90 49 60
        E 0 90 55 60
        E 0 90 61 60
        E 60 80 3d 00
        E 0 80 49 00
        E 0 80 55 00
        E 0 80 61 00
        E 180 90 49 60
        E 0 90 55 60
        E 0 90 61 60
        E 120 80 49 00
        E 420 80 55 00
        E 0 80 61 00
        E 180 90 3c 60
        E 0 90 48 60
        E 0 90 54 60
        E 0 90 60 60
        E 120 80 3c 00
        E 0 80 48 00
        E 240 80 54 00
        E 60 80 60 00
        E 60 90 3c 60
        E 0 90 48 60
        E 0 90 54 60
        E 0 90 60 60
        E 120 80 3c 00
        E 0 80 48 00
        E 240 80 54 00
        E 60 80 60 00
        E 60 90 3c 59
        E 0 90 48 59
        E 0 90 54 59
        E 0 90 60 59
        E 60 80 3c 00
        E 0 80 48 00
        E 0 80 54 00
        E 0 80 60 00
        E 180 90 48 60
        E 0 90 54 60
        E 0 90 60 60
        E 120 80 48 00
        E 480 80 54 00
        E 60 80 60 00
        E 60 90 48 60
        E 0 90 54 60
        E 0 90 60 60
        E 120 80 48 00
        E 241 80 54 00
        E 59 80 60 00
        E 61 90 3d 60
        E 0 90 49 60
        E 0 90 55 60
        E 0 90 61 60
        E 120 80 3d 00
        E 0 80 49 00
        E 239 80 55 00
        E 60 80 61 00
        E 60 90 3d 59
        E 0 90 49 59
        E 0 90 55 59
        E 0 90 61 59
        E 60 80 3d 00
        E 0 80 49 00
        E 0 80 55 00
        E 0 80 61 00
        E 180 90 49 60
        E 0 90 55 60
        E 0 90 61 60
        E 120 80 49 00
        E 480 80 55 00
        E 60 80 61 00
        E 60 90 49 60
        E 0 90 55 60
        E 0 90 61 60
        E 120 80 49 00
        E 0 80 55 00
        E 180 80 61 00
        E 180 90 3c 60
        E 0 90 48 60
        E 0 90 54 60
        E 0 90 60 60
        E 120 80 3c 00
        E 0 80 48 00
        E 240 80 54 00
        E 60 80 60 00
        E 60 90 3c 59
        E 0 90 48 59
        E 0 90 54 59
        E 0 90 60 59
        E 60 80 3c 00
        E 0 80 48 00
        E 0 80 54 00
        E 0 80 60 00
        E 179 90 54 60
        E 0 90 60 60
        E 600 80 54 00
        E 60 80 60 00
        E 60 90 48 60
        E 0 90 54 60
        E 0 90 60 60
        E 120 80 48 00
        E 0 80 54 00
        E 180 80 60 00
        E 181 90 3d 60
        E 0 90 49 60
        E 0 90 55 60
        E 0 90 61 60
        E 120 80 3d 00
        E 0 80 49 00
        E 240 80 55 00
        E 60 80 61 00
        E 60 90 3d 60
        E 0 90 49 60
        E 0 90 55 60
        E 0 90 61 60
        E 60 80 3d 00
        E 0 80 49 00
        E 0 80 55 00
        E 0 80 61 00
        E 180 90 49 60
        E 0 90 55 60
        E 0 90 61 60
        E 120 80 49 00
        E 420 80 55 00
        E 0 80 61 00
        E 180 90 3c 60
        E 0 90 48 60
        E 0 90 54 60
        E 0 90 60 60
        E 120 80 3c 00
        E 0 80 48 00
        E 240 80 54 00
        E 60 80 60 00
        E 60 90 3c 60
        E 0 90 48 60
        E 0 90 54 60
        E 0 90 60 60
        E 120 80 3c 00
        E 0 80 48 00
        E 240 80 54 00
        E 60 80 60 00
        E 60 90 3c 59
        E 0 90 48 59
        E 0 90 54 59
        E 0 90 60 59
        E 60 80 3c 00
        E 0 80 48 00
        E 0 80 54 00
        E 0 80 60 00
        E 180 90 48 60
        E 0 90 54 60
        E 0 90 60 60
        E 120 80 48 00
        E 480 80 54 00
        E 60 80 60 00
        E 60 90 48 60
        E 0 90 54 60
        E 0 90 60 60
        E 120 80 48 00
        E 241 80 54 00
        E 59 80 60 00
        E 61 90 3d 60
        E 0 90 49 60
        E 0 90 55 60
        E 0 90 61 60
        E 120 80 3d 00
        E 0 80 49 00
        E 239 80 55 00
        E 60 80 61 00
        E 60 90 3d 59
        E 0 90 49 59
        E 0 90 55 59
        E 0 90 61 59
        E 60 80 3d 00
        E 0 80 49 00
        E 0 80 55 00
        E 0 80 61 00
        E 180 90 49 60
        E 0 90 55 60
        E 0 90 61 60
        E 0 90 74 59
        E 120 80 49 00
        E 480 80 55 00
        E 60 80 61 00
        E 60 90 3d 60
        E 0 90 49 60
        E 0 90 55 60
        E 0 90 61 60
        E 120 80 3d 00
        E 0 80 49 00
        E 240 80 55 00
        E 60 80 61 00
        E 60 90 3d 60
        E 0 90 49 60
        E 0 90 55 60
        E 0 90 61 60
        E 120 80 3d 00
        E 0 80 49 00
        E 240 80 55 00
        E 60 80 61 00
        E 60 90 49 60
        E 0 90 55 60
        E 0 90 61 60
        E 60 80 49 00
        E 0 80 55 00
        E 0 80 61 00
        E 180 90 55 60
        E 0 90 61 60
        E 64 80 55 00
        E 0 80 61 00
        E 176 90 3c 60
        E 0 90 48 60
        E 0 90 54 60
        E 0 90 60 60
        E 120 80 3c 00
        E 0 80 48 00
        E 239 80 54 00
        E 61 80 60 00
        E 59 90 48 60
        E 0 90 54 60
        E 0 90 60 60
        E 120 80 48 00
        E 0 80 54 00
        E 180 80 60 00
        E 181 96 3d 59
        E 0 96 49 59
        E 0 96 55 59
        E 0 96 61 59
        E 60 86 3d 00
        E 0 86 49 00
        E 0 86 55 00
        E 0 86 61 00
        E 180 96 49 59
        E 0 96 55 59
        E 0 96 61 59
        E 60 86 49 00
        E 0 86 55 00
        E 0 86 61 00
        E 660 80 74 00
        E 960 96 3e 59
        E 0 96 4a 59
        E 0 96 56 59
        E 0 96 62 59
        E 60 86 3e 00
        E 0 86 4a 00
        E 0 86 56 00
        E 0 86 62 00
        E 180 96 4a 59
        E 0 96 56 59
        E 0 96 62 59
        E 60 86 4a 00
        E 0 86 56 00
        E 0 86 62 00
        E 1620 96 3d 59
        E 0 96 49 59
        E 0 96 55 59
        E 0 96 61 59
        E 60 86 3d 00
        E 0 86 49 00
        E 0 86 55 00
        E 0 86 61 00
        E 180 96 49 59
        E 0 96 55 59
        E 0 96 61 59
        E 60 86 49 00
        E 0 86 55 00
        E 0 86 61 00
        E 1620 96 3e 59
        E 0 96 4a 59
        E 0 96 56 59
        E 0 96 62 59
        E 60 86 3e 00
        E 0 86 4a 00
        E 0 86 56 00
        E 0 86 62 00
        E 180 96 4a 59
        E 0 96 56 59
        E 0 96 62 59
        E 60 86 4a 00
        E 0 86 56 00
        E 0 86 62 00
        E 1620 96 3f 59
        E 0 96 4b 59
        E 0 96 58 59
        E 0 96 64 59
        E 60 86 3f 00
        E 0 86 4b 00
        E 0 86 58 00
        E 0 86 64 00
        E 180 96 4b 59
        E 0 96 58 59
        E 0 96 64 59
        E 60 86 4b 00
        E 0 86 58 00
        E 0 86 64 00
        E 1620 96 3c 59
        E 0 96 48 59
        E 0 96 54 59
        E 0 96 60 59
        E 60 86 3c 00
        E 0 86 48 00
        E 0 86 54 00
        E 0 86 60 00
        E 180 96 48 59
        E 0 96 54 59
        E 0 96 60 59
        E 60 86 48 00
        E 0 86 54 00
        E 0 86 60 00
        E 1620 96 3d 59
        E 0 96 49 59
        E 0 96 55 59
        E 0 96 61 59
        E 60 86 3d 00
        E 0 86 49 00
        E 0 86 55 00
        E 0 86 61 00
        E 180 96 49 59
        E 0 96 55 59
        E 0 96 61 59
        E 60 86 49 00
        E 0 86 55 00
        E 0 86 61 00
        E 1620 96 3d 59
        E 0 96 49 59
        E 0 96 55 59
        E 0 96 61 59
        E 60 86 3d 00
        E 0 86 49 00
        E 0 86 55 00
        E 0 86 61 00
        E 180 96 49 59
        E 0 96 55 59
        E 0 96 61 59
        E 60 86 49 00
        E 0 86 55 00
        E 0 86 61 00
        E 660 96 3f 59
        E 0 96 4b 59
        E 0 96 57 59
        E 0 96 63 59
        E 60 86 3f 00
        E 0 86 4b 00
        E 0 86 57 00
        E 0 86 63 00
        E 180 96 4b 59
        E 0 96 57 59
        E 0 96 63 59
        E 60 86 4b 00
        E 0 86 57 00
        E 0 86 63 00
        E 660 96 3d 59
        E 0 96 49 59
        E 0 96 55 59
        E 0 96 61 59
        E 60 86 3d 00
        E 0 86 49 00
        E 0 86 55 00
        E 0 86 61 00
        E 180 96 49 59
        E 0 96 55 59
        E 0 96 61 59
        E 60 86 49 00
        E 0 86 55 00
        E 0 86 61 00
        E 901 90 74 60
        E 719 96 3e 59
        E 0 96 4a 59
        E 0 96 56 59
        E 0 96 62 59
        E 60 86 3e 00
        E 0 86 4a 00
        E 0 86 56 00
        E 0 86 62 00
        E 180 96 4a 59
        E 0 96 56 59
        E 0 96 62 59
        E 60 86 4a 00
        E 0 86 56 00
        E 0 86 62 00
        E 1620 96 3d 59
        E 0 96 49 59
        E 0 96 55 59
        E 0 96 61 59
        E 60 86 3d 00
        E 0 86 49 00
        E 0 86 55 00
        E 0 86 61 00
        E 180 96 49 59
        E 0 96 55 59
        E 0 96 61 59
        E 60 86 49 00
        E 0 86 55 00
        E 0 86 61 00
        E 421 80 74 00
        E 1199 96 3e 59
        E 0 96 4a 59
        E 0 96 56 59
        E 0 96 62 59
        E 60 86 3e 00
        E 0 86 4a 00
        E 0 86 56 00
        E 0 86 62 00
        E 180 96 4a 59
        E 0 96 56 59
        E 0 96 62 59
        E 60 86 4a 00
        E 0 86 56 00
        E 0 86 62 00
        E 1620 96 3f 59
        E 0 96 4b 59
        E 0 96 58 59
        E 0 96 64 59
        E 60 86 3f 00
        E 0 86 4b 00
        E 0 86 58 00
        E 0 86 64 00
        E 180 96 4b 59
        E 0 96 58 59
        E 0 96 64 59
        E 60 86 4b 00
        E 0 86 58 00
        E 0 86 64 00
        E 1620 96 3c 59
        E 0 96 48 59
        E 0 96 54 59
        E 0 96 60 59
        E 60 86 3c 00
        E 0 86 48 00
        E 0 86 54 00
        E 0 86 60 00
        E 180 96 48 59
        E 0 96 54 59
        E 0 96 60 59
        E 60 86 48 00
        E 0 86 54 00
        E 0 86 60 00
        E 1620 96 3d 59
        E 0 96 49 59
        E 0 96 55 59
        E 0 96 61 59
        E 120 86 3d 00
        E 0 86 49 00
        E 240 86 55 00
        E 60 86 61 00
        E 60 90 3d 59
        E 0 90 49 59
        E 0 90 55 59
        E 0 90 61 59
        E 60 80 3d 00
        E 0 80 49 00
        E 0 80 55 00
        E 0 80 61 00
        E 180 96 49 59
        E 0 96 55 59
        E 0 96 61 59
        E 120 86 49 00
        E 480 86 55 00
        E 60 86 61 00
        E 60 96 49 59
        E 0 96 55 59
        E 0 96 61 59
        E 120 86 49 00
        E 0 86 55 00
        E 180 86 61 00
        E 180 96 3e 59
        E 0 96 4a 59
        E 0 96 56 59
        E 0 96 62 59
        E 60 86 3e 00
        E 0 86 4a 00
        E 0 86 56 00
        E 0 86 62 00
        E 180 96 4a 59
        E 0 96 56 59
        E 0 96 62 59
        E 60 86 4a 00
        E 0 86 56 00
        E 0 86 62 00
        E 180 96 4a 59
        E 0 96 56 59
        E 0 96 62 59
        E 120 86 4a 00
        E 0 86 56 00
        E 180 86 62 00
        E 180 96 3f 59
        E 0 96 4b 59
        E 0 96 57 59
        E 0 96 63 59
        E 120 86 3f 00
        E 0 86 4b 00
        E 240 86 57 00
        E 60 86 63 00
        E 60 96 4b 59
        E 0 96 57 59
        E 0 96 63 59
        E 120 86 4b 00
        E 0 86 57 00
        E 180 86 63 00
        E 180 96 3d 59
        E 0 96 49 59
        E 0 96 55 59
        E 0 96 61 59
        E 120 86 3d 00
        E 0 86 49 00
        E 240 86 55 00
        E 60 86 61 00
        E 60 90 3d 59
        E 0 90 49 59
        E 0 90 55 59
        E 0 90 61 59
        E 60 80 3d 00
        E 0 80 49 00
        E 0 80 55 00
        E 0 80 61 00
        E 180 96 49 59
        E 0 96 55 59
        E 0 96 61 59
        E 120 86 49 00
        E 480 86 55 00
        E 60 86 61 00
        E 60 96 49 59
        E 0 96 55 59
        E 0 96 61 59
        E 120 86 49 00
        E 0 86 55 00
        E 180 86 61 00
        E 180 96 3e 59
        E 0 96 4a 59
        E 0 96 56 59
        E 0 96 62 59
        E 120 86 3e 00
        E 0 86 4a 00
        E 240 86 56 00
        E 60 86 62 00
        E 60 90 3e 59
        E 0 90 4a 59
        E 0 90 56 59
        E 0 90 62 59
        E 60 80 3e 00
        E 0 80 4a 00
        E 0 80 56 00
        E 0 80 62 00
        E 180 96 4a 59
        E 0 96 56 59
        E 0 96 62 59
        E 120 86 4a 00
        E 480 86 56 00
        E 60 86 62 00
        E 60 96 4a 59
        E 0 96 56 59
        E 0 96 62 59
        E 120 86 4a 00
        E 0 86 56 00
        E 180 86 62 00
        E 180 96 3d 59
        E 0 96 49 59
        E 0 96 55 59
        E 0 96 61 59
        E 120 86 3d 00
        E 0 86 49 00
        E 240 86 55 00
        E 60 86 61 00
        E 60 90 3d 59
        E 0 90 49 59
        E 0 90 55 59
        E 0 90 61 59
        E 60 80 3d 00
        E 0 80 49 00
        E 0 80 55 00
        E 0 80 61 00
        E 180 96 49 59
        E 0 96 55 59
        E 0 96 61 59
        E 120 86 49 00
        E 480 86 55 00
        E 60 86 61 00
        E 60 96 49 59
        E 0 96 55 59
        E 0 96 61 59
        E 120 86 49 00
        E 0 86 55 00
        E 180 86 61 00
        E 180 96 3e 59
        E 0 96 4a 59
        E 0 96 56 59
        E 0 96 62 59
        E 120 86 3e 00
        E 0 86 4a 00
        E 240 86 56 00
        E 60 86 62 00
        E 60 90 3e 59
        E 0 90 4a 59
        E 0 90 56 59
        E 0 90 62 59
        E 60 80 3e 00
        E 0 80 4a 00
        E 0 80 56 00
        E 0 80 62 00
        E 180 96 4a 59
        E 0 96 56 59
        E 0 96 62 59
        E 120 86 4a 00
        E 420 86 56 00
        E 0 86 62 00
        E 180 96 3f 59
        E 0 96 4b 59
        E 0 96 57 59
        E 0 96 63 59
        E 120 86 3f 00
        E 0 86 4b 00
        E 0 86 57 00
        E 180 86 63 00
        E 180 96 3f 59
        E 0 96 4b 59
        E 0 96 58 59
        E 0 96 64 59
        E 120 86 3f 00
        E 0 86 4b 00
        E 240 86 58 00
        E 60 86 64 00
        E 60 90 3f 59
        E 0 90 4b 59
        E 0 90 58 59
        E 0 90 64 59
        E 60 80 3f 00
        E 0 80 4b 00
        E 0 80 58 00
        E 0 80 64 00
        E 180 96 4b 59
        E 0 96 58 59
        E 0 96 64 59
        E 120 86 4b 00
        E 480 86 58 00
        E 60 86 64 00
        E 60 96 4b 59
        E 0 96 58 59
        E 0 96 64 59
        E 120 86 4b 00
        E 0 86 58 00
        E 180 86 64 00
        E 180 96 3c 59
        E 0 96 48 59
        E 0 96 54 59
        E 0 96 60 59
        E 120 86 3c 00
        E 0 86 48 00
        E 240 86 54 00
        E 60 86 60 00
        E 60 90 3c 59
        E 0 90 48 59
        E 0 90 54 59
        E 0 90 60 59
        E 60 80 3c 00
        E 0 80 48 00
        E 0 80 54 00
        E 0 80 60 00
        E 180 96 48 59
        E 0 96 54 59
        E 0 96 60 59
        E 120 86 48 00
        E 480 86 54 00
        E 60 86 60 00
        E 60 96 48 59
        E 0 96 54 59
        E 0 96 60 59
        E 120 86 48 00
        E 0 86 54 00
        E 180 86 60 00
        E 180 96 3d 59
        E 0 96 49 59
        E 0 96 55 59
        E 0 96 61 59
        E 120 86 3d 00
        E 0 86 49 00
        E 240 86 55 00
        E 60 86 61 00
        E 60 90 3d 59
        E 0 90 49 59
        E 0 90 55 59
        E 0 90 61 59
        E 60 80 3d 00
        E 0 80 49 00
        E 0 80 55 00
        E 0 80 61 00
        E 180 96 49 59
        E 0 96 55 59
        E 0 96 61 59
        E 120 86 49 00
        E 480 86 55 00
        E 60 86 61 00
        E 60 96 3d 59
        E 0 96 49 59
        E 0 96 55 59
        E 0 96 61 59
        E 120 86 3d 00
        E 0 86 49 00
        E 240 86 55 00
        E 60 86 61 00
        E 60 96 3d 59
        E 0 96 49 59
        E 0 96 55 59
        E 0 96 61 59
        E 120 86 3d 00
        E 0 86 49 00
        E 240 86 55 00
        E 60 86 61 00
        E 60 96 49 59
        E 0 96 55 59
        E 0 96 61 59
        E 120 86 49 00
        E 0 86 55 00
        E 180 86 61 00
        E 180 96 3f 59
        E 0 96 4b 59
        E 0 96 57 59
        E 0 96 63 59
        E 120 86 3f 00
        E 0 86 4b 00
        E 240 86 57 00
        E 60 86 63 00
        E 60 96 4b 59
        E 0 96 57 59
        E 0 96 63 59
        E 120 86 4b 00
        E 0 86 57 00
        E 180 86 63 00
        E 180 96 3d 59
        E 0 96 49 59
        E 0 96 55 59
        E 0 96 61 59
        E 120 86 3d 00
        E 0 86 49 00
        E 240 86 55 00
        E 60 86 61 00
        E 60 90 3d 59
        E 0 90 49 59
        E 0 90 55 59
        E 0 90 61 59
        E 60 80 3d 00
        E 0 80 49 00
        E 0 80 55 00
        E 0 80 61 00
        E 180 96 49 59
        E 0 96 55 59
        E 0 96 61 59
        E 120 86 49 00
        E 480 86 55 00
        E 60 86 61 00
        E 60 96 49 59
        E 0 96 55 59
        E 0 96 61 59
        E 120 86 49 00
        E 0 86 55 00
        E 180 86 61 00
        E 180 96 3e 59
        E 0 96 4a 59
        E 0 96 56 59
        E 0 96 62 59
        E 120 86 3e 00
        E 0 86 4a 00
        E 240 86 56 00
        E 60 86 62 00
        E 60 90 3e 59
        E 0 90 4a 59
        E 0 90 56 59
        E 0 90 62 59
        E 60 80 3e 00
        E 0 80 4a 00
        E 0 80 56 00
        E 0 80 62 00
        E 180 96 4a 59
        E 0 96 56 59
        E 0 96 62 59
        E 120 86 4a 00
        E 480 86 56 00
        E 60 86 62 00
        E 60 96 4a 59
        E 0 96 56 59
        E 0 96 62 59
        E 120 86 4a 00
        E 0 86 56 00
        E 180 86 62 00
        E 180 96 3d 59
        E 0 96 49 59
        E 0 96 55 59
        E 0 96 61 59
        E 120 86 3d 00
        E 0 86 49 00
        E 240 86 55 00
        E 60 86 61 00
        E 60 90 3d 59
        E 0 90 49 59
        E 0 90 55 59
        E 0 90 61 59
        E 60 80 3d 00
        E 0 80 49 00
        E 0 80 55 00
        E 0 80 61 00
        E 180 96 49 59
        E 0 96 55 59
        E 0 96 61 59
        E 120 86 49 00
        E 480 86 55 00
        E 60 86 61 00
        E 60 96 49 59
        E 0 96 55 59
        E 0 96 61 59
        E 120 86 49 00
        E 0 86 55 00
        E 180 86 61 00
        E 180 90 74 59
        E 0 96 3e 59
        E 0 96 4a 59
        E 0 96 56 59
        E 0 96 62 59
        E 120 86 3e 00
        E 0 86 4a 00
        E 240 86 56 00
        E 60 86 62 00
        E 60 90 3e 59
        E 0 90 4a 59
        E 0 90 56 59
        E 0 90 62 59
        E 60 80 3e 00
        E 0 80 4a 00
        E 0 80 56 00
        E 0 80 62 00
        E 180 96 4a 59
        E 0 96 56 59
        E 0 96 62 59
        E 120 86 4a 00
        E 420 86 56 00
        E 0 86 62 00
        E 180 96 3f 59
        E 0 96 4b 59
        E 0 96 57 59
        E 0 96 63 59
        E 120 86 3f 00
        E 0 86 4b 00
        E 0 86 57 00
        E 180 86 63 00
        E 180 96 3f 59
        E 0 96 4b 59
        E 0 96 58 59
        E 0 96 64 59
        E 120 86 3f 00
        E 0 86 4b 00
        E 240 86 58 00
        E 60 86 64 00
        E 60 90 3f 59
        E 0 90 4b 59
        E 0 90 58 59
        E 0 90 64 59
        E 60 80 3f 00
        E 0 80 4b 00
        E 0 80 58 00
        E 0 80 64 00
        E 180 96 4b 59
        E 0 96 58 59
        E 0 96 64 59
        E 120 86 4b 00
        E 480 86 58 00
        E 60 86 64 00
        E 60 96 4b 59
        E 0 96 58 59
        E 0 96 64 59
        E 120 86 4b 00
        E 0 86 58 00
        E 180 86 64 00
        E 180 96 3c 59
        E 0 96 48 59
        E 0 96 54 59
        E 0 96 60 59
        E 60 80 74 00
        E 60 86 3c 00
        E 0 86 48 00
        E 240 86 54 00
        E 60 86 60 00
        E 60 90 3c 59
        E 0 90 48 59
        E 0 90 54 59
        E 0 90 60 59
        E 60 80 3c 00
        E 0 80 48 00
        E 0 80 54 00
        E 0 80 60 00
        E 180 96 48 59
        E 0 96 54 59
        E 0 96 60 59
        E 120 86 48 00
        E 480 86 54 00
        E 60 86 60 00
        E 60 96 48 59
        E 0 96 54 59
        E 0 96 60 59
        E 120 86 48 00
        E 0 86 54 00
        E 180 86 60 00
        E 180 96 3d 59
        E 0 96 49 59
        E 0 96 55 59
        E 0 96 61 59
        E 120 86 3d 00
        E 0 86 49 00
        E 240 86 55 00
        E 60 86 61 00
        E 60 90 3d 59
        E 0 90 49 59
        E 0 90 55 59
        E 0 90 61 59
        E 60 80 3d 00
        E 0 80 49 00
        E 0 80 55 00
        E 0 80 61 00
        E 180 96 49 59
        E 0 96 55 59
        E 0 96 61 59
        E 120 86 49 00
        E 480 86 55 00
        E 60 86 61 00
        E 60 96 49 59
        E 0 96 55 59
        E 0 96 61 59
        E 120 86 49 00
        E 0 86 55 00
        E 180 86 61 00
        E 180 96 3e 59
        E 0 96 4a 59
        E 0 96 56 59
        E 0 96 62 59
        E 120 86 3e 00
        E 0 86 4a 00
        E 240 86 56 00
        E 60 86 62 00
        E 60 96 4a 59
        E 0 96 56 59
        E 0 96 62 59
        E 120 86 4a 00
        E 0 86 56 00
        E 180 86 62 00
        E 180 96 3f 59
        E 0 96 4b 59
        E 0 96 57 59
        E 0 96 63 59
        E 120 86 3f 00
        E 0 86 4b 00
        E 240 86 57 00
        E 60 86 63 00
        E 60 96 4b 59
        E 0 96 57 59
        E 0 96 63 59
        E 120 86 4b 00
        E 0 86 57 00
        E 180 86 63 00
        E 180 96 3d 59
        E 0 96 49 59
        E 0 96 55 59
        E 0 96 61 59
        E 120 86 3d 00
        E 0 86 49 00
        E 240 86 55 00
        E 60 86 61 00
        E 60 90 3d 59
        E 0 90 49 59
        E 0 90 55 59
        E 0 90 61 59
        E 60 80 3d 00
        E 0 80 49 00
        E 0 80 55 00
        E 0 80 61 00
        E 180 96 49 59
        E 0 96 55 59
        E 0 96 61 59
        E 120 86 49 00
        E 480 86 55 00
        E 60 86 61 00
        E 60 96 49 59
        E 0 96 55 59
        E 0 96 61 59
        E 120 86 49 00
        E 0 86 55 00
        E 180 86 61 00
        E 180 96 3c 59
        E 0 96 48 59
        E 0 96 54 59
        E 0 96 60 59
        E 120 86 3c 00
        E 0 86 48 00
        E 240 86 54 00
        E 60 86 60 00
        E 60 90 3c 59
        E 0 90 48 59
        E 0 90 54 59
        E 0 90 60 59
        E 60 80 3c 00
        E 0 80 48 00
        E 0 80 54 00
        E 0 80 60 00
        E 180 96 48 59
        E 0 96 54 59
        E 0 96 60 59
        E 120 86 48 00
        E 480 86 54 00
        E 60 86 60 00
        E 60 96 48 59
        E 0 96 54 59
        E 0 96 60 59
        E 120 86 48 00
        E 0 86 54 00
        E 180 86 60 00
        E 180 96 3d 59
        E 0 96 49 59
        E 0 96 55 59
        E 0 96 61 59
        E 120 86 3d 00
        E 0 86 49 00
        E 240 86 55 00
        E 60 86 61 00
        E 60 90 3d 59
        E 0 90 49 59
        E 0 90 55 59
        E 0 90 61 59
        E 60 80 3d 00
        E 0 80 49 00
        E 0 80 55 00
        E 0 80 61 00
        E 180 96 49 59
        E 0 96 55 59
        E 0 96 61 59
        E 120 86 49 00
        E 480 86 55 00
        E 60 86 61 00
        E 60 96 3d 59
        E 0 96 49 59
        E 0 96 55 59
        E 0 96 61 59
        E 120 86 3d 00
        E 0 86 49 00
        E 240 86 55 00
        E 60 86 61 00
        E 60 96 3d 59
        E 0 96 49 59
        E 0 96 55 59
        E 0 96 61 59
        E 120 86 3d 00
        E 0 86 49 00
        E 240 86 55 00
        E 60 86 61 00
        E 60 96 49 59
        E 0 96 55 59
        E 0 96 61 59
        E 120 86 49 00
        E 0 86 55 00
        E 180 86 61 00
        E 180 96 3c 59
        E 0 96 48 59
        E 0 96 54 59
        E 0 96 60 59
        E 120 86 3c 00
        E 0 86 48 00
        E 240 86 54 00
        E 60 86 60 00
        E 60 96 48 59
        E 0 96 54 59
        E 0 96 60 59
        E 120 86 48 00
        E 0 86 54 00
        E 180 86 60 00
        E 180 96 3d 59
        E 0 96 49 59
        E 0 96 55 59
        E 0 96 61 59
        E 120 86 3d 00
        E 0 86 49 00
        E 240 86 55 00
        E 60 86 61 00
        E 60 90 3d 59
        E 0 90 49 59
        E 0 90 55 59
        E 0 90 61 59
        E 60 80 3d 00
        E 0 80 49 00
        E 0 80 55 00
        E 0 80 61 00
        E 180 96 49 59
        E 0 96 55 59
        E 0 96 61 59
        E 120 86 49 00
        E 480 86 55 00
        E 60 86 61 00
        E 60 96 49 59
        E 0 96 55 59
        E 0 96 61 59
        E 120 86 49 00
        E 0 86 55 00
        E 180 86 61 00
        E 180 96 3c 59
        E 0 96 48 59
        E 0 96 54 59
        E 0 96 60 59
        E 120 86 3c 00
        E 0 86 48 00
        E 240 86 54 00
        E 60 86 60 00
        E 60 90 3c 59
        E 0 90 48 59
        E 0 90 54 59
        E 0 90 60 59
        E 60 80 3c 00
        E 0 80 48 00
        E 0 80 54 00
        E 0 80 60 00
        E 180 96 48 59
        E 0 96 54 59
        E 0 96 60 59
        E 120 86 48 00
        E 480 86 54 00
        E 60 86 60 00
        E 60 96 48 59
        E 0 96 54 59
        E 0 96 60 59
        E 120 86 48 00
        E 0 86 54 00
        E 180 86 60 00
        E 121 90 74 12
        E 59 96 3d 59
        E 0 96 49 59
        E 0 96 55 59
        E 0 96 61 59
        E 120 86 3d 00
        E 0 86 49 00
        E 240 86 55 00
        E 60 86 61 00
        E 60 90 3d 59
        E 0 90 49 59
        E 0 90 55 59
        E 0 90 61 59
        E 60 80 3d 00
        E 0 80 49 00
        E 0 80 55 00
        E 0 80 61 00
        E 180 96 49 59
        E 0 96 55 59
        E 0 96 61 59
        E 120 86 49 00
        E 480 86 55 00
        E 60 86 61 00
        E 60 96 3d 59
        E 0 96 49 59
        E 0 96 55 59
        E 0 96 61 59
        E 120 86 3d 00
        E 0 86 49 00
        E 240 86 55 00
        E 60 86 61 00
        E 60 96 3d 59
        E 0 96 49 59
        E 0 96 55 59
        E 0 96 61 59
        E 120 86 3d 00
        E 0 86 49 00
        E 240 86 55 00
        E 60 86 61 00
        E 60 96 49 59
        E 0 96 55 59
        E 0 96 61 59
        E 120 86 49 00
        E 0 86 55 00
        E 180 86 61 00
        E 180 96 3c 59
        E 0 96 48 59
        E 0 96 54 59
        E 0 96 60 59
        E 120 86 3c 00
        E 0 86 48 00
        E 240 86 54 00
        E 60 86 60 00
        E 60 96 48 59
        E 0 96 54 59
        E 0 96 60 59
        E 120 86 48 00
        E 0 86 54 00
        E 121 80 74 00
        E 59 86 60 00
        E 180 96 3d 59
        E 0 96 49 59
        E 0 96 55 59
        E 0 96 61 59
        E 120 86 3d 00
        E 0 86 49 00
        E 240 86 55 00
        E 60 86 61 00
        E 60 90 3d 59
        E 0 90 49 59
        E 0 90 55 59
        E 0 90 61 59
        E 60 80 3d 00
        E 0 80 49 00
        E 0 80 55 00
        E 0 80 61 00
        E 180 96 49 59
        E 0 96 55 59
        E 0 96 61 59
        E 120 86 49 00
        E 480 86 55 00
        E 60 86 61 00
        E 60 96 49 59
        E 0 96 55 59
        E 0 96 61 59
        E 120 86 49 00
        E 0 86 55 00
        E 180 86 61 00
        E 180 96 3c 59
        E 0 96 48 59
        E 0 96 54 59
        E 0 96 60 59
        E 120 86 3c 00
        E 0 86 48 00
        E 240 86 54 00
        E 60 86 60 00
        E 60 90 3c 59
        E 0 90 48 59
        E 0 90 54 59
        E 0 90 60 59
        E 60 80 3c 00
        E 0 80 48 00
        E 0 80 54 00
        E 0 80 60 00
        E 180 96 48 59
        E 0 96 54 59
        E 0 96 60 59
        E 120 86 48 00
        E 480 86 54 00
        E 60 86 60 00
        E 60 96 48 59
        E 0 96 54 59
        E 0 96 60 59
        E 120 86 48 00
        E 0 86 54 00
        E 180 86 60 00
        E 180 96 3d 59
        E 0 96 49 59
        E 0 96 55 59
        E 0 96 61 59
        E 120 86 3d 00
        E 0 86 49 00
        E 240 86 55 00
        E 60 86 61 00
        E 60 90 3d 59
        E 0 90 49 59
        E 0 90 55 59
        E 0 90 61 59
        E 60 80 3d 00
        E 0 80 49 00
        E 0 80 55 00
        E 0 80 61 00
        E 180 96 49 59
        E 0 96 55 59
        E 0 96 61 59
        E 120 86 49 00
        E 480 86 55 00
        E 60 86 61 00
        E 60 96 3d 59
        E 0 96 49 59
        E 0 96 55 59
        E 0 96 61 59
        E 120 86 3d 00
        E 0 86 49 00
        E 240 86 55 00
        E 60 86 61 00
        E 60 96 3d 59
        E 0 96 49 59
        E 0 96 55 59
        E 0 96 61 59
        E 120 86 3d 00
        E 0 86 49 00
        E 240 86 55 00
        E 60 86 61 00
        E 60 96 49 59
        E 0 96 55 59
        E 0 96 61 59
        E 120 86 49 00
        E 0 86 55 00
        E 180 86 61 00
        E 180 96 3c 59
        E 0 96 48 59
        E 0 96 54 59
        E 0 96 60 59
        E 120 86 3c 00
        E 0 86 48 00
        E 240 86 54 00
        E 60 86 60 00
        E 60 96 48 59
        E 0 96 54 59
        E 0 96 60 59
        E 120 86 48 00
        E 0 86 54 00
        E 180 86 60 00
        E 180 96 3d 59
        E 0 96 49 59
        E 0 96 55 59
        E 0 96 61 59
        E 120 86 3d 00
        E 0 86 49 00
        E 240 86 55 00
        E 60 86 61 00
        E 60 90 3d 59
        E 0 90 49 59
        E 0 90 55 59
        E 0 90 61 59
        E 60 80 3d 00
        E 0 80 49 00
        E 0 80 55 00
        E 0 80 61 00
        E 180 96 49 59
        E 0 96 55 59
        E 0 96 61 59
        E 120 86 49 00
        E 480 86 55 00
        E 60 86 61 00
        E 60 96 49 59
        E 0 96 55 59
        E 0 96 61 59
        E 120 86 49 00
        E 0 86 55 00
        E 180 86 61 00
        E 180 96 3c 59
        E 0 96 48 59
        E 0 96 54 59
        E 0 96 60 59
        E 120 86 3c 00
        E 0 86 48 00
        E 240 86 54 00
        E 60 86 60 00
        E 60 90 3c 59
        E 0 90 48 59
        E 0 90 54 59
        E 0 90 60 59
        E 60 80 3c 00
        E 0 80 48 00
        E 0 80 54 00
        E 0 80 60 00
        E 180 96 48 59
        E 0 96 54 59
        E 0 96 60 59
        E 120 86 48 00
        E 480 86 54 00
        E 60 86 60 00
        E 60 96 48 59
        E 0 96 54 59
        E 0 96 60 59
        E 120 86 48 00
        E 0 86 54 00
        E 180 86 60 00
        E 180 96 3d 59
        E 0 96 49 59
        E 0 96 55 59
        E 0 96 61 59
        E 120 86 3d 00
        E 0 86 49 00
        E 240 86 55 00
        E 60 86 61 00
        E 60 90 3d 59
        E 0 90 49 59
        E 0 90 55 59
        E 0 90 61 59
        E 60 80 3d 00
        E 0 80 49 00
        E 0 80 55 00
        E 0 80 61 00
        E 180 96 49 59
        E 0 96 55 59
        E 0 96 61 59
        E 120 86 49 00
        E 480 86 55 00
        E 60 86 61 00
        E 60 96 3d 59
        E 0 96 49 59
        E 0 96 55 59
        E 0 96 61 59
        E 120 86 3d 00
        E 0 86 49 00
        E 240 86 55 00
        E 60 86 61 00
        E 60 96 3d 59
        E 0 96 49 59
        E 0 96 55 59
        E 0 96 61 59
        E 120 86 3d 00
        E 0 86 49 00
        E 240 86 55 00
        E 60 86 61 00
        E 60 96 49 59
        E 0 96 55 59
        E 0 96 61 59
        E 120 86 49 00
        E 0 86 55 00
        E 180 86 61 00
        E 180 96 3c 59
        E 0 96 48 59
        E 0 96 54 59
        E 0 96 60 59
        E 120 86 3c 00
        E 0 86 48 00
        E 240 86 54 00
        E 60 86 60 00
        E 60 96 48 59
        E 0 96 54 59
        E 0 96 60 59
        E 120 86 48 00
        E 0 86 54 00
        E 180 86 60 00
        E 180 96 3d 59
        E 0 96 49 59
        E 0 96 55 59
        E 0 96 61 59
        E 120 86 3d 00
        E 0 86 49 00
        E 240 86 55 00
        E 60 86 61 00
        E 60 90 3d 59
        E 0 90 49 59
        E 0 90 55 59
        E 0 90 61 59
        E 60 80 3d 00
        E 0 80 49 00
        E 0 80 55 00
        E 0 80 61 00
        E 180 96 49 59
        E 0 96 55 59
        E 0 96 61 59
        E 120 86 49 00
        E 480 86 55 00
        E 60 86 61 00
        E 60 96 49 59
        E 0 96 55 59
        E 0 96 61 59
        E 120 86 49 00
        E 0 86 55 00
        E 180 86 61 00
        E 180 96 3c 59
        E 0 96 48 59
        E 0 96 54 59
        E 0 96 60 59
        E 120 86 3c 00
        E 0 86 48 00
        E 240 86 54 00
        E 60 86 60 00
        E 60 90 3c 59
        E 0 90 48 59
        E 0 90 54 59
        E 0 90 60 59
        E 60 80 3c 00
        E 0 80 48 00
        E 0 80 54 00
        E 0 80 60 00
        E 180 96 48 59
        E 0 96 54 59
        E 0 96 60 59
        E 120 86 48 00
        E 480 86 54 00
        E 60 86 60 00
        E 60 96 48 59
        E 0 96 54 59
        E 0 96 60 59
        E 120 86 48 00
        E 0 86 54 00
        E 180 86 60 00
        E 180 96 3d 59
        E 0 96 49 59
        E 0 96 55 59
        E 0 96 61 59
        E 120 86 3d 00
        E 0 86 49 00
        E 240 86 55 00
        E 60 86 61 00
        E 60 90 3d 59
        E 0 90 49 59
        E 0 90 55 59
        E 0 90 61 59
        E 60 80 3d 00
        E 0 80 49 00
        E 0 80 55 00
        E 0 80 61 00
        E 180 96 49 59
        E 0 96 55 59
        E 0 96 61 59
        E 120 86 49 00
        E 360 90 74 59
        E 120 86 55 00
        E 60 86 61 00
        E 60 96 3d 59
        E 0 96 49 59
        E 0 96 55 59
        E 0 96 61 59
        E 120 86 3d 00
        E 0 86 49 00
        E 240 86 55 00
        E 60 86 61 00
        E 60 96 3d 59
        E 0 96 49 59
        E 0 96 55 59
        E 0 96 61 59
        E 120 86 3d 00
        E 0 86 49 00
        E 240 86 55 00
        E 60 86 61 00
        E 60 96 49 59
        E 0 96 55 59
        E 0 96 61 59
        E 120 86 49 00
        E 0 86 55 00
        E 180 86 61 00
        E 180 96 3c 59
        E 0 96 48 59
        E 0 96 54 59
        E 0 96 60 59
        E 120 86 3c 00
        E 0 86 48 00
        E 240 86 54 00
        E 60 86 60 00
        E 60 96 48 59
        E 0 96 54 59
        E 0 96 60 59
        E 120 86 48 00
        E 0 86 54 00
        E 180 86 60 00
        E 180 96 3d 59
        E 0 96 49 59
        E 0 96 55 59
        E 0 96 61 59
        E 60 86 3d 00
        E 0 86 49 00
        E 0 86 55 00
        E 0 86 61 00
        E 180 96 49 59
        E 0 96 55 59
        E 0 96 61 59
        E 60 86 49 00
        E 0 86 55 00
        E 0 86 61 00
        E 659 80 74 00
        E 961 96 3e 59
        E 0 96 4a 59
        E 0 96 56 59
        E 0 96 62 59
        E 60 86 3e 00
        E 0 86 4a 00
        E 0 86 56 00
        E 0 86 62 00
        E 180 96 4a 59
        E 0 96 56 59
        E 0 96 62 59
        E 60 86 4a 00
        E 0 86 56 00
        E 0 86 62 00
        E 1620 96 3d 59
        E 0 96 49 59
        E 0 96 55 59
        E 0 96 61 59
        E 60 86 3d 00
        E 0 86 49 00
        E 0 86 55 00
        E 0 86 61 00
        E 180 96 49 59
        E 0 96 55 59
        E 0 96 61 59
        E 60 86 49 00
        E 0 86 55 00
        E 0 86 61 00
        E 1620 96 3e 59
        E 0 96 4a 59
        E 0 96 56 59
        E 0 96 62 59
        E 60 86 3e 00
        E 0 86 4a 00
        E 0 86 56 00
        E 0 86 62 00
        E 180 96 4a 59
        E 0 96 56 59
        E 0 96 62 59
        E 60 86 4a 00
        E 0 86 56 00
        E 0 86 62 00
        E 1620 96 3f 59
        E 0 96 4b 59
        E 0 96 58 59
        E 0 96 64 59
        E 60 86 3f 00
        E 0 86 4b 00
        E 0 86 58 00
        E 0 86 64 00
        E 180 96 4b 59
        E 0 96 58 59
        E 0 96 64 59
        E 60 86 4b 00
        E 0 86 58 00
        E 0 86 64 00
        E 1620 96 3c 59
        E 0 96 48 59
        E 0 96 54 59
        E 0 96 60 59
        E 60 86 3c 00
        E 0 86 48 00
        E 0 86 54 00
        E 0 86 60 00
        E 180 96 48 59
        E 0 96 54 59
        E 0 96 60 59
        E 60 86 48 00
        E 0 86 54 00
        E 0 86 60 00
        E 1620 96 3d 59
        E 0 96 49 59
        E 0 96 55 59
        E 0 96 61 59
        E 120 86 3d 00
        E 0 86 49 00
        E 240 86 55 00
        E 60 86 61 00
        E 60 90 3d 59
        E 0 90 49 59
        E 0 90 55 59
        E 0 90 61 59
        E 60 80 3d 00
        E 0 80 49 00
        E 0 80 55 00
        E 0 80 61 00
        E 180 96 49 59
        E 0 96 55 59
        E 0 96 61 59
        E 120 86 49 00
        E 480 86 55 00
        E 60 86 61 00
        E 60 96 49 59
        E 0 96 55 59
        E 0 96 61 59
        E 120 86 49 00
        E 0 86 55 00
        E 180 86 61 00
        E 180 96 3e 59
        E 0 96 4a 59
        E 0 96 56 59
        E 0 96 62 59
        E 120 86 3e 00
        E 0 86 4a 00
        E 240 86 56 00
        E 60 86 62 00
        E 60 96 4a 59
        E 0 96 56 59
        E 0 96 62 59
        E 120 86 4a 00
        E 0 86 56 00
        E 180 86 62 00
        E 180 96 3f 59
        E 0 96 4b 59
        E 0 96 57 59
        E 0 96 63 59
        E 120 86 3f 00
        E 0 86 4b 00
        E 240 86 57 00
        E 60 86 63 00
        E 60 96 4b 59
        E 0 96 57 59
        E 0 96 63 59
        E 120 86 4b 00
        E 0 86 57 00
        E 180 86 63 00
        E 180 96 3d 59
        E 0 96 49 59
        E 0 96 55 59
        E 0 96 61 59
        E 120 86 3d 00
        E 0 86 49 00
        E 240 86 55 00
        E 60 86 61 00
        E 60 90 3d 59
        E 0 90 49 59
        E 0 90 55 59
        E 0 90 61 59
        E 60 80 3d 00
        E 0 80 49 00
        E 0 80 55 00
        E 0 80 61 00
        E 180 96 49 59
        E 0 96 55 59
        E 0 96 61 59
        E 120 86 49 00
        E 480 86 55 00
        E 60 86 61 00
        E 60 96 49 59
        E 0 96 55 59
        E 0 96 61 59
        E 120 86 49 00
        E 0 86 55 00
        E 180 86 61 00
        E 180 96 3e 59
        E 0 96 4a 59
        E 0 96 56 59
        E 0 96 62 59
        E 120 86 3e 00
        E 0 86 4a 00
        E 240 86 56 00
        E 60 86 62 00
        E 60 90 3e 59
        E 0 90 4a 59
        E 0 90 56 59
        E 0 90 62 59
        E 60 80 3e 00
        E 0 80 4a 00
        E 0 80 56 00
        E 0 80 62 00
        E 180 96 4a 59
        E 0 96 56 59
        E 0 96 62 59
        E 120 86 4a 00
        E 480 86 56 00
        E 60 86 62 00
        E 60 96 4a 59
        E 0 96 56 59
        E 0 96 62 59
        E 120 86 4a 00
        E 0 86 56 00
        E 180 86 62 00
        E 180 96 3d 59
        E 0 96 49 59
        E 0 96 55 59
        E 0 96 61 59
        E 120 86 3d 00
        E 0 86 49 00
        E 240 86 55 00
        E 60 86 61 00
        E 60 90 3d 59
        E 0 90 49 59
        E 0 90 55 59
        E 0 90 61 59
        E 60 80 3d 00
        E 0 80 49 00
        E 0 80 55 00
        E 0 80 61 00
        E 180 96 49 59
        E 0 96 55 59
        E 0 96 61 59
        E 120 86 49 00
        E 480 86 55 00
        E 60 86 61 00
        E 60 96 49 59
        E 0 96 55 59
        E 0 96 61 59
        E 120 86 49 00
        E 0 86 55 00
        E 180 86 61 00
        E 180 90 74 59
        E 0 96 3e 59
        E 0 96 4a 59
        E 0 96 56 59
        E 0 96 62 59
        E 120 86 3e 00
        E 0 86 4a 00
        E 240 86 56 00
        E 60 86 62 00
        E 60 90 3e 59
        E 0 90 4a 59
        E 0 90 56 59
        E 0 90 62 59
        E 60 80 3e 00
        E 0 80 4a 00
        E 0 80 56 00
        E 0 80 62 00
        E 180 96 4a 59
        E 0 96 56 59
        E 0 96 62 59
        E 120 86 4a 00
        E 420 86 56 00
        E 0 86 62 00
        E 180 96 3f 59
        E 0 96 4b 59
        E 0 96 57 59
        E 0 96 63 59
        E 120 86 3f 00
        E 0 86 4b 00
        E 0 86 57 00
        E 180 86 63 00
        E 180 80 74 00
        E 0 96 3f 59
        E 0 96 4b 59
        E 0 96 58 59
        E 0 96 64 59
        E 120 86 3f 00
        E 0 86 4b 00
        E 240 86 58 00
        E 60 86 64 00
        E 60 90 3f 59
        E 0 90 4b 59
        E 0 90 58 59
        E 0 90 64 59
        E 60 80 3f 00
        E 0 80 4b 00
        E 0 80 58 00
        E 0 80 64 00
        E 180 96 4b 59
        E 0 96 58 59
        E 0 96 64 59
        E 120 86 4b 00
        E 480 86 58 00
        E 60 86 64 00
        E 60 96 4b 59
        E 0 96 58 59
        E 0 96 64 59
        E 120 86 4b 00
        E 0 86 58 00
        E 180 86 64 00
        E 180 96 3c 59
        E 0 96 48 59
        E 0 96 54 59
        E 0 96 60 59
        E 120 86 3c 00
        E 0 86 48 00
        E 240 86 54 00
        E 60 86 60 00
        E 60 90 3c 59
        E 0 90 48 59
        E 0 90 54 59
        E 0 90 60 59
        E 60 80 3c 00
        E 0 80 48 00
        E 0 80 54 00
        E 0 80 60 00
        E 180 96 48 59
        E 0 96 54 59
        E 0 96 60 59
        E 120 86 48 00
        E 480 86 54 00
        E 60 86 60 00
        E 60 96 48 59
        E 0 96 54 59
        E 0 96 60 59
        E 120 86 48 00
        E 0 86 54 00
        E 180 86 60 00
        E 180 96 3d 59
        E 0 96 49 59
        E 0 96 55 59
        E 0 96 61 59
        E 120 86 3d 00
        E 0 86 49 00
        E 240 86 55 00
        E 60 86 61 00
        E 60 90 3d 59
        E 0 90 49 59
        E 0 90 55 59
        E 0 90 61 59
        E 60 80 3d 00
        E 0 80 49 00
        E 0 80 55 00
        E 0 80 61 00
        E 180 96 49 59
        E 0 96 55 59
        E 0 96 61 59
        E 120 86 49 00
        E 480 86 55 00
        E 60 86 61 00
        E 60 96 49 59
        E 0 96 55 59
        E 0 96 61 59
        E 120 86 49 00
        E 0 86 55 00
        E 180 86 61 00
        E 180 96 3e 59
        E 0 96 4a 59
        E 0 96 56 59
        E 0 96 62 59
        E 60 86 3e 00
        E 0 86 4a 00
        E 0 86 56 00
        E 0 86 62 00
        E 180 90 4a 59
        E 0 90 56 59
        E 0 90 62 59
        E 60 80 4a 00
        E 0 80 56 00
        E 0 80 62 00
        E 180 96 4a 59
        E 0 96 56 59
        E 0 96 62 59
        E 60 86 4a 00
        E 0 86 56 00
        E 0 86 62 00
        E 180 90 56 59
        E 0 90 62 59
        E 60 80 56 00
        E 0 80 62 00
        E 180 96 3f 59
        E 0 96 4b 59
        E 0 96 57 59
        E 0 96 63 59
        E 60 86 3f 00
        E 0 86 4b 00
        E 0 86 57 00
        E 0 86 63 00
        E 180 90 4b 59
        E 0 90 57 59
        E 0 90 63 59
        E 60 80 4b 00
        E 0 80 57 00
        E 0 80 63 00
        E 180 96 4b 59
        E 0 96 57 59
        E 0 96 63 59
        E 60 86 4b 00
        E 0 86 57 00
        E 0 86 63 00
        E 180 90 57 59
        E 0 90 63 59
        E 60 80 57 00
        E 0 80 63 00
        E 180 96 3d 59
        E 0 96 49 59
        E 0 96 55 59
        E 0 96 61 59
        E 120 86 3d 00
        E 0 86 49 00
        E 240 86 55 00
        E 60 86 61 00
        E 60 90 3d 59
        E 0 90 49 59
        E 0 90 55 59
        E 0 90 61 59
        E 60 80 3d 00
        E 0 80 49 00
        E 0 80 55 00
        E 0 80 61 00
        E 180 96 49 59
        E 0 96 55 59
        E 0 96 61 59
        E 120 86 49 00
        E 480 86 55 00
        E 60 86 61 00
        E 60 96 49 59
        E 0 96 55 59
        E 0 96 61 59
        E 120 86 49 00
        E 0 86 55 00
        E 180 86 61 00
        E 180 96 3c 59
        E 0 96 48 59
        E 0 96 54 59
        E 0 96 60 59
        E 120 86 3c 00
        E 0 86 48 00
        E 240 86 54 00
        E 60 86 60 00
        E 60 90 3c 59
        E 0 90 48 59
        E 0 90 54 59
        E 0 90 60 59
        E 60 80 3c 00
        E 0 80 48 00
        E 0 80 54 00
        E 0 80 60 00
        E 180 96 48 59
        E 0 96 54 59
        E 0 96 60 59
        E 120 86 48 00
        E 480 86 54 00
        E 60 86 60 00
        E 60 96 48 59
        E 0 96 54 59
        E 0 96 60 59
        E 120 86 48 00
        E 0 86 54 00
        E 180 86 60 00
        E 108 90 74 12
        E 72 96 3d 59
        E 0 96 49 59
        E 0 96 55 59
        E 0 96 61 59
        E 120 86 3d 00
        E 0 86 49 00
        E 240 86 55 00
        E 60 86 61 00
        E 60 90 3d 59
        E 0 90 49 59
        E 0 90 55 59
        E 0 90 61 59
        E 60 80 3d 00
        E 0 80 49 00
        E 0 80 55 00
        E 0 80 61 00
        E 180 96 49 59
        E 0 96 55 59
        E 0 96 61 59
        E 120 86 49 00
        E 480 86 55 00
        E 60 86 61 00
        E 60 96 3d 59
        E 0 96 49 59
        E 0 96 55 59
        E 0 96 61 59
        E 120 86 3d 00
        E 0 86 49 00
        E 240 86 55 00
        E 60 86 61 00
        E 60 96 3d 59
        E 0 96 49 59
        E 0 96 55 59
        E 0 96 61 59
        E 120 86 3d 00
        E 0 86 49 00
        E 240 86 55 00
        E 60 86 61 00
        E 60 96 49 59
        E 0 96 55 59
        E 0 96 61 59
        E 120 86 49 00
        E 0 86 55 00
        E 180 86 61 00
        E 180 96 3c 59
        E 0 96 48 59
        E 0 96 54 59
        E 0 96 60 59
        E 120 86 3c 00
        E 0 86 48 00
        E 240 86 54 00
        E 60 86 60 00
        E 60 96 48 59
        E 0 96 54 59
        E 0 96 60 59
        E 120 86 48 00
        E 0 86 54 00
        E 168 80 74 00
        E 12 86 60 00
        E 180 96 3d 59
        E 0 96 49 59
        E 0 96 55 59
        E 0 96 61 59
        E 120 86 3d 00
        E 0 86 49 00
        E 240 86 55 00
        E 60 86 61 00
        E 60 90 3d 59
        E 0 90 49 59
        E 0 90 55 59
        E 0 90 61 59
        E 60 80 3d 00
        E 0 80 49 00
        E 0 80 55 00
        E 0 80 61 00
        E 180 96 49 59
        E 0 96 55 59
        E 0 96 61 59
        E 120 86 49 00
        E 480 86 55 00
        E 60 86 61 00
        E 60 96 49 59
        E 0 96 55 59
        E 0 96 61 59
        E 120 86 49 00
        E 0 86 55 00
        E 180 86 61 00
        E 180 96 3c 59
        E 0 96 48 59
        E 0 96 54 59
        E 0 96 60 59
        E 120 86 3c 00
        E 0 86 48 00
        E 240 86 54 00
        E 60 86 60 00
        E 60 90 3c 59
        E 0 90 48 59
        E 0 90 54 59
        E 0 90 60 59
        E 60 80 3c 00
        E 0 80 48 00
        E 0 80 54 00
        E 0 80 60 00
        E 180 96 48 59
        E 0 96 54 59
        E 0 96 60 59
        E 120 86 48 00
        E 480 86 54 00
        E 60 86 60 00
        E 60 96 48 59
        E 0 96 54 59
        E 0 96 60 59
        E 120 86 48 00
        E 0 86 54 00
        E 180 86 60 00
        E 180 96 3d 59
        E 0 96 49 59
        E 0 96 55 59
        E 0 96 61 59
        E 120 86 3d 00
        E 0 86 49 00
        E 240 86 55 00
        E 60 86 61 00
        E 60 90 3d 59
        E 0 90 49 59
        E 0 90 55 59
        E 0 90 61 59
        E 60 80 3d 00
        E 0 80 49 00
        E 0 80 55 00
        E 0 80 61 00
        E 180 96 49 59
        E 0 96 55 59
        E 0 96 61 59
        E 120 86 49 00
        E 480 86 55 00
        E 60 86 61 00
        E 60 96 3d 59
        E 0 96 49 59
        E 0 96 55 59
        E 0 96 61 59
        E 120 86 3d 00
        E 0 86 49 00
        E 240 86 55 00
        E 60 86 61 00
        E 60 96 3d 59
        E 0 96 49 59
        E 0 96 55 59
        E 0 96 61 59
        E 120 86 3d 00
        E 0 86 49 00
        E 240 86 55 00
        E 60 86 61 00
        E 60 96 49 59
        E 0 96 55 59
        E 0 96 61 59
        E 120 86 49 00
        E 0 86 55 00
        E 180 86 61 00
        E 180 96 3c 59
        E 0 96 48 59
        E 0 96 54 59
        E 0 96 60 59
        E 120 86 3c 00
        E 0 86 48 00
        E 240 86 54 00
        E 60 86 60 00
        E 60 96 48 59
        E 0 96 54 59
        E 0 96 60 59
        E 120 86 48 00
        E 0 86 54 00
        E 180 86 60 00
        E 180 96 3d 59
        E 0 96 49 59
        E 0 96 55 59
        E 0 96 61 59
        E 120 86 3d 00
        E 0 86 49 00
        E 240 86 55 00
        E 60 86 61 00
        E 60 90 3d 59
        E 0 90 49 59
        E 0 90 55 59
        E 0 90 61 59
        E 60 80 3d 00
        E 0 80 49 00
        E 0 80 55 00
        E 0 80 61 00
        E 180 96 49 59
        E 0 96 55 59
        E 0 96 61 59
        E 120 86 49 00
        E 480 86 55 00
        E 60 86 61 00
        E 60 96 49 59
        E 0 96 55 59
        E 0 96 61 59
        E 120 86 49 00
        E 0 86 55 00
        E 180 86 61 00
        E 180 96 3c 59
        E 0 96 48 59
        E 0 96 54 59
        E 0 96 60 59
        E 120 86 3c 00
        E 0 86 48 00
        E 240 86 54 00
        E 60 86 60 00
        E 60 90 3c 59
        E 0 90 48 59
        E 0 90 54 59
        E 0 90 60 59
        E 60 80 3c 00
        E 0 80 48 00
        E 0 80 54 00
        E 0 80 60 00
        E 180 96 48 59
        E 0 96 54 59
        E 0 96 60 59
        E 120 86 48 00
        E 480 86 54 00
        E 60 86 60 00
        E 60 96 48 59
        E 0 96 54 59
        E 0 96 60 59
        E 120 86 48 00
        E 0 86 54 00
        E 180 86 60 00
        E 180 96 3d 59
        E 0 96 49 59
        E 0 96 55 59
        E 0 96 61 59
        E 120 86 3d 00
        E 0 86 49 00
        E 240 86 55 00
        E 60 86 61 00
        E 60 90 3d 59
        E 0 90 49 59
        E 0 90 55 59
        E 0 90 61 59
        E 60 80 3d 00
        E 0 80 49 00
        E 0 80 55 00
        E 0 80 61 00
        E 180 96 49 59
        E 0 96 55 59
        E 0 96 61 59
        E 120 86 49 00
        E 480 86 55 00
        E 60 86 61 00
        E 60 96 3d 59
        E 0 96 49 59
        E 0 96 55 59
        E 0 96 61 59
        E 120 86 3d 00
        E 0 86 49 00
        E 240 86 55 00
        E 60 86 61 00
        E 60 96 3d 59
        E 0 96 49 59
        E 0 96 55 59
        E 0 96 61 59
        E 120 86 3d 00
        E 0 86 49 00
        E 240 86 55 00
        E 60 86 61 00
        E 60 96 49 59
        E 0 96 55 59
        E 0 96 61 59
        E 120 86 49 00
        E 0 86 55 00
        E 180 86 61 00
        E 180 96 3c 59
        E 0 96 48 59
        E 0 96 54 59
        E 0 96 60 59
        E 120 86 3c 00
        E 0 86 48 00
        E 240 86 54 00
        E 60 86 60 00
        E 60 96 48 59
        E 0 96 54 59
        E 0 96 60 59
        E 120 86 48 00
        E 0 86 54 00
        E 180 86 60 00
        E 180 96 3d 59
        E 0 96 49 59
        E 0 96 55 59
        E 0 96 61 59
        E 120 86 3d 00
        E 0 86 49 00
        E 240 86 55 00
        E 60 86 61 00
        E 60 90 3d 59
        E 0 90 49 59
        E 0 90 55 59
        E 0 90 61 59
        E 60 80 3d 00
        E 0 80 49 00
        E 0 80 55 00
        E 0 80 61 00
        E 180 96 49 59
        E 0 96 55 59
        E 0 96 61 59
        E 120 86 49 00
        E 480 86 55 00
        E 60 86 61 00
        E 60 96 49 59
        E 0 96 55 59
        E 0 96 61 59
        E 120 86 49 00
        E 0 86 55 00
        E 180 86 61 00
        E 180 96 3c 59
        E 0 96 48 59
        E 0 96 54 59
        E 0 96 60 59
        E 120 86 3c 00
        E 0 86 48 00
        E 240 86 54 00
        E 60 86 60 00
        E 60 90 3c 59
        E 0 90 48 59
        E 0 90 54 59
        E 0 90 60 59
        E 60 80 3c 00
        E 0 80 48 00
        E 0 80 54 00
        E 0 80 60 00
        E 180 96 48 59
        E 0 96 54 59
        E 0 96 60 59
        E 120 86 48 00
        E 480 86 54 00
        E 60 86 60 00
        E 60 96 48 59
        E 0 96 54 59
        E 0 96 60 59
        E 120 86 48 00
        E 0 86 54 00
        E 180 86 60 00
        E 180 96 3d 59
        E 0 96 49 59
        E 0 96 55 59
        E 0 96 61 59
        E 120 86 3d 00
        E 0 86 49 00
        E 240 86 55 00
        E 60 86 61 00
        E 60 90 3d 59
        E 0 90 49 59
        E 0 90 55 59
        E 0 90 61 59
        E 60 80 3d 00
        E 0 80 49 00
        E 0 80 55 00
        E 0 80 61 00
        E 180 96 49 59
        E 0 96 55 59
        E 0 96 61 59
        E 120 86 49 00
        E 480 86 55 00
        E 60 86 61 00
        E 60 96 3d 59
        E 0 96 49 59
        E 0 96 55 59
        E 0 96 61 59
        E 120 86 3d 00
        E 0 86 49 00
        E 240 86 55 00
        E 60 86 61 00
        E 60 96 3d 59
        E 0 96 49 59
        E 0 96 55 59
        E 0 96 61 59
        E 120 86 3d 00
        E 0 86 49 00
        E 240 86 55 00
        E 60 86 61 00
        E 60 96 49 59
        E 0 96 55 59
        E 0 96 61 59
        E 120 86 49 00
        E 0 86 55 00
        E 180 86 61 00
        E 180 96 3c 59
        E 0 96 48 59
        E 0 96 54 59
        E 0 96 60 59
        E 120 86 3c 00
        E 0 86 48 00
        E 240 86 54 00
        E 60 86 60 00
        E 60 96 48 59
        E 0 96 54 59
        E 0 96 60 59
        E 120 86 48 00
        E 0 86 54 00
        E 180 86 60 00
        E 180 90 74 59
        E 0 96 3f 59
        E 0 96 4b 59
        E 0 96 58 59
        E 0 96 64 59
        E 60 86 3f 00
        E 0 86 4b 00
        E 0 86 58 00
        E 0 86 64 00
        E 180 96 4b 59
        E 0 96 58 59
        E 0 96 64 59
        E 60 86 4b 00
        E 0 86 58 00
        E 0 86 64 00
        E 180 96 3f 59
        E 0 96 4b 59
        E 0 96 58 59
        E 0 96 64 59
        E 60 86 3f 00
        E 0 86 4b 00
        E 0 86 58 00
        E 0 86 64 00
        E 180 96 4b 59
        E 0 96 58 59
        E 0 96 64 59
        E 60 86 4b 00
        E 0 86 58 00
        E 0 86 64 00
        E 180 96 3f 59
        E 0 96 4b 59
        E 0 96 58 59
        E 0 96 64 59
        E 60 86 3f 00
        E 0 86 4b 00
        E 0 86 58 00
        E 0 86 64 00
        E 180 96 4b 59
        E 0 96 58 59
        E 0 96 64 59
        E 60 86 4b 00
        E 0 86 58 00
        E 0 86 64 00
        E 180 96 3f 59
        E 0 96 4b 59
        E 0 96 58 59
        E 0 96 64 59
        E 60 86 3f 00
        E 0 86 4b 00
        E 0 86 58 00
        E 0 86 64 00
        E 180 96 4b 59
        E 0 96 58 59
        E 0 96 64 59
        E 60 86 4b 00
        E 0 86 58 00
        E 0 86 64 00
        E 180 96 3f 59
        E 0 96 4b 59
        E 0 96 58 59
        E 0 96 64 59
        E 60 86 3f 00
        E 0 86 4b 00
        E 0 86 58 00
        E 0 86 64 00
        E 180 96 4b 59
        E 0 96 58 59
        E 0 96 64 59
        E 60 86 4b 00
        E 0 86 58 00
        E 0 86 64 00
        E 180 96 3f 59
        E 0 96 4b 59
        E 0 96 58 59
        E 0 96 64 59
        E 60 86 3f 00
        E 0 86 4b 00
        E 0 86 58 00
        E 0 86 64 00
        E 180 96 58 59
        E 0 96 64 59
        E 60 86 58 00
        E 0 86 64 00
        E 180 96 3f 59
        E 0 96 4b 59
        E 0 96 57 59
        E 0 96 63 59
        E 60 86 3f 00
        E 0 86 4b 00
        E 0 86 57 00
        E 0 86 63 00
        E 180 96 4b 59
        E 0 96 57 59
        E 0 96 63 59
        E 60 86 4b 00
        E 0 86 57 00
        E 0 86 63 00
        E 180 96 4b 59
        E 0 96 57 59
        E 0 96 63 59
        E 60 86 4b 00
        E 0 86 57 00
        E 0 86 63 00
        E 180 96 57 59
        E 0 96 63 59
        E 60 86 57 00
        E 0 86 63 00
        E 180 96 3e 59
        E 0 96 4a 59
        E 0 96 56 59
        E 0 96 62 59
        E 60 86 3e 00
        E 0 86 4a 00
        E 0 86 56 00
        E 0 86 62 00
        E 180 96 4a 59
        E 0 96 56 59
        E 0 96 62 59
        E 60 86 4a 00
        E 0 86 56 00
        E 0 86 62 00
        E 180 96 3e 59
        E 0 96 4a 59
        E 0 96 56 59
        E 0 96 62 59
        E 60 86 3e 00
        E 0 86 4a 00
        E 0 86 56 00
        E 0 86 62 00
        E 180 96 4a 59
        E 0 96 56 59
        E 0 96 62 59
        E 60 86 4a 00
        E 0 86 56 00
        E 0 86 62 00
        E 180 96 3e 59
        E 0 96 4a 59
        E 0 96 56 59
        E 0 96 62 59
        E 60 86 3e 00
        E 0 86 4a 00
        E 0 86 56 00
        E 0 86 62 00
        E 180 96 4a 59
        E 0 96 56 59
        E 0 96 62 59
        E 60 86 4a 00
        E 0 86 56 00
        E 0 86 62 00
        E 180 96 3e 59
        E 0 96 4a 59
        E 0 96 56 59
        E 0 96 62 59
        E 60 86 3e 00
        E 0 86 4a 00
        E 0 86 56 00
        E 0 86 62 00
        E 180 96 4a 59
        E 0 96 56 59
        E 0 96 62 59
        E 60 86 4a 00
        E 0 86 56 00
        E 0 86 62 00
        E 180 96 3e 59
        E 0 96 4a 59
        E 0 96 56 59
        E 0 96 62 59
        E 60 86 3e 00
        E 0 86 4a 00
        E 0 86 56 00
        E 0 86 62 00
        E 180 96 4a 59
        E 0 96 56 59
        E 0 96 62 59
        E 60 86 4a 00
        E 0 86 56 00
        E 0 86 62 00
        E 180 96 3e 59
        E 0 96 4a 59
        E 0 96 56 59
        E 0 96 62 59
        E 60 86 3e 00
        E 0 86 4a 00
        E 0 86 56 00
        E 0 86 62 00
        E 180 96 4a 59
        E 0 96 56 59
        E 0 96 62 59
        E 60 86 4a 00
        E 0 86 56 00
        E 0 86 62 00
        E 180 96 3e 59
        E 0 96 4a 59
        E 0 96 56 59
        E 0 96 62 59
        E 60 86 3e 00
        E 0 86 4a 00
        E 0 86 56 00
        E 0 86 62 00
        E 180 96 4a 59
        E 0 96 56 59
        E 0 96 62 59
        E 60 86 4a 00
        E 0 86 56 00
        E 0 86 62 00
        E 180 96 4a 59
        E 0 96 56 59
        E 0 96 62 59
        E 60 86 4a 00
        E 0 86 56 00
        E 0 86 62 00
        E 180 96 56 59
        E 0 96 62 59
        E 60 86 56 00
        E 0 86 62 00
        E 180 80 74 00
        E 0 96 3d 59
        E 0 96 49 59
        E 0 96 55 59
        E 0 96 61 59
        E 60 86 3d 00
        E 0 86 49 00
        E 0 86 55 00
        E 0 86 61 00
        E 180 96 49 59
        E 0 96 55 59
        E 0 96 61 59
        E 60 86 49 00
        E 0 86 55 00
        E 0 86 61 00
        E 180 96 3d 59
        E 0 96 49 59
        E 0 96 55 59
        E 0 96 61 59
        E 60 86 3d 00
        E 0 86 49 00
        E 0 86 55 00
        E 0 86 61 00
        E 180 96 49 59
        E 0 96 55 59
        E 0 96 61 59
        E 60 86 49 00
        E 0 86 55 00
        E 0 86 61 00
        E 180 96 3d 59
        E 0 96 49 59
        E 0 96 55 59
        E 0 96 61 59
        E 60 86 3d 00
        E 0 86 49 00
        E 0 86 55 00
        E 0 86 61 00
        E 180 96 49 59
        E 0 96 55 59
        E 0 96 61 59
        E 60 86 49 00
        E 0 86 55 00
        E 0 86 61 00
        E 180 96 3d 59
        E 0 96 49 59
        E 0 96 55 59
        E 0 96 61 59
        E 60 86 3d 00
        E 0 86 49 00
        E 0 86 55 00
        E 0 86 61 00
        E 180 96 49 59
        E 0 96 55 59
        E 0 96 61 59
        E 60 86 49 00
        E 0 86 55 00
        E 0 86 61 00
        E 180 96 3d 59
        E 0 96 49 59
        E 0 96 55 59
        E 0 96 61 59
        E 60 86 3d 00
        E 0 86 49 00
        E 0 86 55 00
        E 0 86 61 00
        E 180 96 49 59
        E 0 96 55 59
        E 0 96 61 59
        E 60 86 49 00
        E 0 86 55 00
        E 0 86 61 00
        E 180 96 3d 59
        E 0 96 49 59
        E 0 96 55 59
        E 0 96 61 59
        E 60 86 3d 00
        E 0 86 49 00
        E 0 86 55 00
        E 0 86 61 00
        E 180 96 49 59
        E 0 96 55 59
        E 0 96 61 59
        E 60 86 49 00
        E 0 86 55 00
        E 0 86 61 00
        E 180 96 3d 59
        E 0 96 49 59
        E 0 96 55 59
        E 0 96 61 59
        E 60 86 3d 00
        E 0 86 49 00
        E 0 86 55 00
        E 0 86 61 00
        E 180 96 49 59
        E 0 96 55 59
        E 0 96 61 59
        E 60 86 49 00
        E 0 86 55 00
        E 0 86 61 00
        E 180 96 49 59
        E 0 96 55 59
        E 0 96 61 59
        E 60 86 49 00
        E 0 86 55 00
        E 0 86 61 00
        E 180 96 55 59
        E 0 96 61 59
        E 60 86 55 00
        E 0 86 61 00
        E 180 96 3c 59
        E 0 96 48 59
        E 0 96 54 59
        E 0 96 60 59
        E 60 86 3c 00
        E 0 86 48 00
        E 0 86 54 00
        E 0 86 60 00
        E 180 96 48 59
        E 0 96 54 59
        E 0 96 60 59
        E 60 86 48 00
        E 0 86 54 00
        E 0 86 60 00
        E 180 96 3c 59
        E 0 96 48 59
        E 0 96 54 59
        E 0 96 60 59
        E 60 86 3c 00
        E 0 86 48 00
        E 0 86 54 00
        E 0 86 60 00
        E 180 96 48 59
        E 0 96 54 59
        E 0 96 60 59
        E 60 86 48 00
        E 0 86 54 00
        E 0 86 60 00
        E 180 96 3c 59
        E 0 96 48 59
        E 0 96 54 59
        E 0 96 60 59
        E 60 86 3c 00
        E 0 86 48 00
        E 0 86 54 00
        E 0 86 60 00
        E 180 96 48 59
        E 0 96 54 59
        E 0 96 60 59
        E 60 86 48 00
        E 0 86 54 00
        E 0 86 60 00
        E 180 96 3c 59
        E 0 96 48 59
        E 0 96 54 59
        E 0 96 60 59
        E 60 86 3c 00
        E 0 86 48 00
        E 0 86 54 00
        E 0 86 60 00
        E 180 96 48 59
        E 0 96 54 59
        E 0 96 60 59
        E 60 86 48 00
        E 0 86 54 00
        E 0 86 60 00
        E 180 96 3c 59
        E 0 96 48 59
        E 0 96 54 59
        E 0 96 60 59
        E 60 86 3c 00
        E 0 86 48 00
        E 0 86 54 00
        E 0 86 60 00
        E 180 96 48 59
        E 0 96 54 59
        E 0 96 60 59
        E 60 86 48 00
        E 0 86 54 00
        E 0 86 60 00
        E 180 96 3c 59
        E 0 96 48 59
        E 0 96 54 59
        E 0 96 60 59
        E 60 86 3c 00
        E 0 86 48 00
        E 0 86 54 00
        E 0 86 60 00
        E 180 96 48 59
        E 0 96 54 59
        E 0 96 60 59
        E 60 86 48 00
        E 0 86 54 00
        E 0 86 60 00
        E 180 96 3c 59
        E 0 96 48 59
        E 0 96 54 59
        E 0 96 60 59
        E 60 86 3c 00
        E 0 86 48 00
        E 0 86 54 00
        E 0 86 60 00
        E 180 96 48 59
        E 0 96 54 59
        E 0 96 60 59
        E 60 86 48 00
        E 0 86 54 00
        E 0 86 60 00
        E 180 96 48 59
        E 0 96 54 59
        E 0 96 60 59
        E 60 86 48 00
        E 0 86 54 00
        E 0 86 60 00
        E 180 96 54 59
        E 0 96 60 59
        E 60 86 54 00
        E 0 86 60 00
        E 180 96 3f 59
        E 0 96 4b 59
        E 0 96 58 59
        E 0 96 64 59
        E 60 86 3f 00
        E 0 86 4b 00
        E 0 86 58 00
        E 0 86 64 00
        E 180 96 4b 59
        E 0 96 58 59
        E 0 96 64 59
        E 60 86 4b 00
        E 0 86 58 00
        E 0 86 64 00
        E 180 96 3f 59
        E 0 96 4b 59
        E 0 96 58 59
        E 0 96 64 59
        E 60 86 3f 00
        E 0 86 4b 00
        E 0 86 58 00
        E 0 86 64 00
        E 180 96 4b 59
        E 0 96 58 59
        E 0 96 64 59
        E 60 86 4b 00
        E 0 86 58 00
        E 0 86 64 00
        E 180 96 3f 59
        E 0 96 4b 59
        E 0 96 58 59
        E 0 96 64 59
        E 60 86 3f 00
        E 0 86 4b 00
        E 0 86 58 00
        E 0 86 64 00
        E 180 96 4b 59
        E 0 96 58 59
        E 0 96 64 59
        E 60 86 4b 00
        E 0 86 58 00
        E 0 86 64 00
        E 180 96 3f 59
        E 0 96 4b 59
        E 0 96 58 59
        E 0 96 64 59
        E 60 86 3f 00
        E 0 86 4b 00
        E 0 86 58 00
        E 0 86 64 00
        E 180 96 4b 59
        E 0 96 58 59
        E 0 96 64 59
        E 60 86 4b 00
        E 0 86 58 00
        E 0 86 64 00
        E 180 96 3f 59
        E 0 96 4b 59
        E 0 96 58 59
        E 0 96 64 59
        E 60 86 3f 00
        E 0 86 4b 00
        E 0 86 58 00
        E 0 86 64 00
        E 180 96 4b 59
        E 0 96 58 59
        E 0 96 64 59
        E 60 86 4b 00
        E 0 86 58 00
        E 0 86 64 00
        E 180 96 3f 59
        E 0 96 4b 59
        E 0 96 58 59
        E 0 96 64 59
        E 60 86 3f 00
        E 0 86 4b 00
        E 0 86 58 00
        E 0 86 64 00
        E 180 96 58 59
        E 0 96 64 59
        E 60 86 58 00
        E 0 86 64 00
        E 180 96 3f 59
        E 0 96 4b 59
        E 0 96 57 59
        E 0 96 63 59
        E 60 86 3f 00
        E 0 86 4b 00
        E 0 86 57 00
        E 0 86 63 00
        E 180 96 4b 59
        E 0 96 57 59
        E 0 96 63 59
        E 60 86 4b 00
        E 0 86 57 00
        E 0 86 63 00
        E 180 96 4b 59
        E 0 96 57 59
        E 0 96 63 59
        E 60 86 4b 00
        E 0 86 57 00
        E 0 86 63 00
        E 180 96 57 59
        E 0 96 63 59
        E 60 86 57 00
        E 0 86 63 00
        E 180 96 3e 59
        E 0 96 4a 59
        E 0 96 56 59
        E 0 96 62 59
        E 60 86 3e 00
        E 0 86 4a 00
        E 0 86 56 00
        E 0 86 62 00
        E 180 96 4a 59
        E 0 96 56 59
        E 0 96 62 59
        E 60 86 4a 00
        E 0 86 56 00
        E 0 86 62 00
        E 180 96 3e 59
        E 0 96 4a 59
        E 0 96 56 59
        E 0 96 62 59
        E 60 86 3e 00
        E 0 86 4a 00
        E 0 86 56 00
        E 0 86 62 00
        E 180 96 4a 59
        E 0 96 56 59
        E 0 96 62 59
        E 60 86 4a 00
        E 0 86 56 00
        E 0 86 62 00
        E 180 96 3e 59
        E 0 96 4a 59
        E 0 96 56 59
        E 0 96 62 59
        E 60 86 3e 00
        E 0 86 4a 00
        E 0 86 56 00
        E 0 86 62 00
        E 180 96 4a 59
        E 0 96 56 59
        E 0 96 62 59
        E 60 86 4a 00
        E 0 86 56 00
        E 0 86 62 00
        E 180 96 3e 59
        E 0 96 4a 59
        E 0 96 56 59
        E 0 96 62 59
        E 60 86 3e 00
        E 0 86 4a 00
        E 0 86 56 00
        E 0 86 62 00
        E 180 96 4a 59
        E 0 96 56 59
        E 0 96 62 59
        E 60 86 4a 00
        E 0 86 56 00
        E 0 86 62 00
        E 180 96 3e 59
        E 0 96 4a 59
        E 0 96 56 59
        E 0 96 62 59
        E 60 86 3e 00
        E 0 86 4a 00
        E 0 86 56 00
        E 0 86 62 00
        E 180 96 4a 59
        E 0 96 56 59
        E 0 96 62 59
        E 60 86 4a 00
        E 0 86 56 00
        E 0 86 62 00
        E 180 96 3e 59
        E 0 96 4a 59
        E 0 96 56 59
        E 0 96 62 59
        E 60 86 3e 00
        E 0 86 4a 00
        E 0 86 56 00
        E 0 86 62 00
        E 180 96 4a 59
        E 0 96 56 59
        E 0 96 62 59
        E 60 86 4a 00
        E 0 86 56 00
        E 0 86 62 00
        E 180 96 3e 59
        E 0 96 4a 59
        E 0 96 56 59
        E 0 96 62 59
        E 60 86 3e 00
        E 0 86 4a 00
        E 0 86 56 00
        E 0 86 62 00
        E 180 96 4a 59
        E 0 96 56 59
        E 0 96 62 59
        E 60 86 4a 00
        E 0 86 56 00
        E 0 86 62 00
        E 180 96 4a 59
        E 0 96 56 59
        E 0 96 62 59
        E 60 86 4a 00
        E 0 86 56 00
        E 0 86 62 00
        E 180 96 56 59
        E 0 96 62 59
        E 60 86 56 00
        E 0 86 62 00
        E 180 96 3d 59
        E 0 96 49 59
        E 0 96 55 59
        E 0 96 61 59
        E 60 86 3d 00
        E 0 86 49 00
        E 0 86 55 00
        E 0 86 61 00
        E 180 96 49 59
        E 0 96 55 59
        E 0 96 61 59
        E 60 86 49 00
        E 0 86 55 00
        E 0 86 61 00
        E 180 96 3d 59
        E 0 96 49 59
        E 0 96 55 59
        E 0 96 61 59
        E 60 86 3d 00
        E 0 86 49 00
        E 0 86 55 00
        E 0 86 61 00
        E 180 96 49 59
        E 0 96 55 59
        E 0 96 61 59
        E 60 86 49 00
        E 0 86 55 00
        E 0 86 61 00
        E 180 96 3d 59
        E 0 96 49 59
        E 0 96 55 59
        E 0 96 61 59
        E 60 86 3d 00
        E 0 86 49 00
        E 0 86 55 00
        E 0 86 61 00
        E 180 96 49 59
        E 0 96 55 59
        E 0 96 61 59
        E 60 86 49 00
        E 0 86 55 00
        E 0 86 61 00
        E 180 96 3d 59
        E 0 96 49 59
        E 0 96 55 59
        E 0 96 61 59
        E 60 86 3d 00
        E 0 86 49 00
        E 0 86 55 00
        E 0 86 61 00
        E 180 96 49 59
        E 0 96 55 59
        E 0 96 61 59
        E 60 86 49 00
        E 0 86 55 00
        E 0 86 61 00
        E 180 96 3d 59
        E 0 96 49 59
        E 0 96 55 59
        E 0 96 61 59
        E 60 86 3d 00
        E 0 86 49 00
        E 0 86 55 00
        E 0 86 61 00
        E 180 96 49 59
        E 0 96 55 59
        E 0 96 61 59
        E 60 86 49 00
        E 0 86 55 00
        E 0 86 61 00
        E 180 96 3d 59
        E 0 96 49 59
        E 0 96 55 59
        E 0 96 61 59
        E 60 86 3d 00
        E 0 86 49 00
        E 0 86 55 00
        E 0 86 61 00
        E 180 96 49 59
        E 0 96 55 59
        E 0 96 61 59
        E 60 86 49 00
        E 0 86 55 00
        E 0 86 61 00
        E 180 96 3d 59
        E 0 96 49 59
        E 0 96 55 59
        E 0 96 61 59
        E 60 86 3d 00
        E 0 86 49 00
        E 0 86 55 00
        E 0 86 61 00
        E 180 96 49 59
        E 0 96 55 59
        E 0 96 61 59
        E 60 86 49 00
        E 0 86 55 00
        E 0 86 61 00
        E 180 96 49 59
        E 0 96 55 59
        E 0 96 61 59
        E 60 86 49 00
        E 0 86 55 00
        E 0 86 61 00
        E 180 96 55 59
        E 0 96 61 59
        E 60 86 55 00
        E 0 86 61 00
        E 180 96 3c 59
        E 0 96 48 59
        E 0 96 54 59
        E 0 96 60 59
        E 60 86 3c 00
        E 0 86 48 00
        E 0 86 54 00
        E 0 86 60 00
        E 180 96 48 59
        E 0 96 54 59
        E 0 96 60 59
        E 60 86 48 00
        E 0 86 54 00
        E 0 86 60 00
        E 180 96 3c 59
        E 0 96 48 59
        E 0 96 54 59
        E 0 96 60 59
        E 60 86 3c 00
        E 0 86 48 00
        E 0 86 54 00
        E 0 86 60 00
        E 180 96 48 59
        E 0 96 54 59
        E 0 96 60 59
        E 60 86 48 00
        E 0 86 54 00
        E 0 86 60 00
        E 180 96 3c 59
        E 0 96 48 59
        E 0 96 54 59
        E 0 96 60 59
        E 60 86 3c 00
        E 0 86 48 00
        E 0 86 54 00
        E 0 86 60 00
        E 180 96 48 59
        E 0 96 54 59
        E 0 96 60 59
        E 60 86 48 00
        E 0 86 54 00
        E 0 86 60 00
        E 180 96 3c 59
        E 0 96 48 59
        E 0 96 54 59
        E 0 96 60 59
        E 60 86 3c 00
        E 0 86 48 00
        E 0 86 54 00
        E 0 86 60 00
        E 180 96 48 59
        E 0 96 54 59
        E 0 96 60 59
        E 60 86 48 00
        E 0 86 54 00
        E 0 86 60 00
        E 180 96 3c 59
        E 0 96 48 59
        E 0 96 54 59
        E 0 96 60 59
        E 60 86 3c 00
        E 0 86 48 00
        E 0 86 54 00
        E 0 86 60 00
        E 180 96 54 59
        E 0 96 60 59
        E 60 86 54 00
        E 0 86 60 00
        E 180 96 49 59
        E 0 96 55 59
        E 0 96 61 59
        E 60 86 49 00
        E 0 86 55 00
        E 0 86 61 00
        E 180 96 55 59
        E 0 96 61 59
        E 60 86 55 00
        E 0 86 61 00
        E 180 96 3e 59
        E 0 96 4a 59
        E 0 96 56 59
        E 0 96 62 59
        E 60 86 3e 00
        E 0 86 4a 00
        E 0 86 56 00
        E 0 86 62 00
        E 180 96 4a 59
        E 0 96 56 59
        E 0 96 62 59
        E 60 86 4a 00
        E 0 86 56 00
        E 0 86 62 00
        E 180 96 3e 59
        E 0 96 4a 59
        E 0 96 56 59
        E 0 96 62 59
        E 60 86 3e 00
        E 0 86 4a 00
        E 0 86 56 00
        E 0 86 62 00
        E 180 96 4a 59
        E 0 96 56 59
        E 0 96 62 59
        E 60 86 4a 00
        E 0 86 56 00
        E 0 86 62 00
        E 180 96 3e 59
        E 0 96 4a 59
        E 0 96 56 59
        E 0 96 62 59
        E 60 86 3e 00
        E 0 86 4a 00
        E 0 86 56 00
        E 0 86 62 00
        E 180 96 4a 59
        E 0 96 56 59
        E 0 96 62 59
        E 60 86 4a 00
        E 0 86 56 00
        E 0 86 62 00
        E 180 96 3e 59
        E 0 96 4a 59
        E 0 96 56 59
        E 0 96 62 59
        E 60 86 3e 00
        E 0 86 4a 00
        E 0 86 56 00
        E 0 86 62 00
        E 180 96 4a 59
        E 0 96 56 59
        E 0 96 62 59
        E 60 86 4a 00
        E 0 86 56 00
        E 0 86 62 00
        E 180 96 3e 59
        E 0 96 4a 59
        E 0 96 56 59
        E 0 96 62 59
        E 60 86 3e 00
        E 0 86 4a 00
        E 0 86 56 00
        E 0 86 62 00
        E 180 96 4a 59
        E 0 96 56 59
        E 0 96 62 59
        E 60 86 4a 00
        E 0 86 56 00
        E 0 86 62 00
        E 180 96 4a 59
        E 0 96 56 59
        E 0 96 62 59
        E 60 86 4a 00
        E 0 86 56 00
        E 0 86 62 00
        E 180 96 56 59
        E 0 96 62 59
        E 60 86 56 00
        E 0 86 62 00
        E 180 90 74 59
        E 0 96 3f 59
        E 0 96 4b 59
        E 0 96 57 59
        E 0 96 63 59
        E 60 86 3f 00
        E 0 86 4b 00
        E 0 86 57 00
        E 0 86 63 00
        E 180 96 58 59
        E 0 96 64 59
        E 60 86 58 00
        E 0 86 64 00
        E 180 96 3f 59
        E 0 96 4b 59
        E 0 96 57 59
        E 0 96 63 59
        E 60 86 3f 00
        E 0 86 4b 00
        E 0 86 57 00
        E 0 86 63 00
        E 180 96 58 59
        E 0 96 64 59
        E 60 86 58 00
        E 0 86 64 00
        E 180 96 3f 59
        E 0 96 4b 59
        E 0 96 57 59
        E 0 96 63 59
        E 60 86 3f 00
        E 0 86 4b 00
        E 0 86 57 00
        E 0 86 63 00
        E 180 96 58 59
        E 0 96 64 59
        E 60 86 58 00
        E 0 86 64 00
        E 180 96 4b 59
        E 0 96 58 59
        E 0 96 64 59
        E 60 86 4b 00
        E 0 86 58 00
        E 0 86 64 00
        E 120 80 74 00
        E 60 96 56 59
        E 0 96 62 59
        E 60 86 56 00
        E 0 86 62 00
        E 180 96 3e 59
        E 0 96 4a 59
        E 0 96 56 59
        E 0 96 62 59
        E 60 86 3e 00
        E 0 86 4a 00
        E 0 86 56 00
        E 0 86 62 00
        E 180 96 4a 59
        E 0 96 56 59
        E 0 96 62 59
        E 60 86 4a 00
        E 0 86 56 00
        E 0 86 62 00
        E 180 96 3e 59
        E 0 96 4a 59
        E 0 96 56 59
        E 0 96 62 59
        E 60 86 3e 00
        E 0 86 4a 00
        E 0 86 56 00
        E 0 86 62 00
        E 180 96 4a 59
        E 0 96 56 59
        E 0 96 62 59
        E 60 86 4a 00
        E 0 86 56 00
        E 0 86 62 00
        E 180 96 3e 59
        E 0 96 4a 59
        E 0 96 56 59
        E 0 96 62 59
        E 60 86 3e 00
        E 0 86 4a 00
        E 0 86 56 00
        E 0 86 62 00
        E 180 96 4a 59
        E 0 96 56 59
        E 0 96 62 59
        E 60 86 4a 00
        E 0 86 56 00
        E 0 86 62 00
        E 180 96 3e 59
        E 0 96 4a 59
        E 0 96 56 59
        E 0 96 62 59
        E 60 86 3e 00
        E 0 86 4a 00
        E 0 86 56 00
        E 0 86 62 00
        E 180 96 4a 59
        E 0 96 56 59
        E 0 96 62 59
        E 60 86 4a 00
        E 0 86 56 00
        E 0 86 62 00
        E 180 96 3e 59
        E 0 96 4a 59
        E 0 96 56 59
        E 0 96 62 59
        E 60 86 3e 00
        E 0 86 4a 00
        E 0 86 56 00
        E 0 86 62 00
        E 180 96 57 59
        E 0 96 63 59
        E 60 86 57 00
        E 0 86 63 00
        E 180 96 4b 59
        E 0 96 58 59
        E 0 96 64 59
        E 60 86 4b 00
        E 0 86 58 00
        E 0 86 64 00
        E 180 96 57 59
        E 0 96 63 59
        E 60 86 57 00
        E 0 86 63 00
        E 180 96 3f 59
        E 0 96 4b 59
        E 0 96 58 59
        E 0 96 64 59
        E 60 86 3f 00
        E 0 86 4b 00
        E 0 86 58 00
        E 0 86 64 00
        E 180 96 4b 59
        E 0 96 58 59
        E 0 96 64 59
        E 60 86 4b 00
        E 0 86 58 00
        E 0 86 64 00
        E 180 96 4b 59
        E 0 96 58 59
        E 0 96 64 59
        E 60 86 4b 00
        E 0 86 58 00
        E 0 86 64 00
        E 180 96 55 59
        E 0 96 61 59
        E 60 86 55 00
        E 0 86 61 00
        E 180 96 3d 59
        E 0 96 49 59
        E 0 96 55 59
        E 0 96 61 59
        E 60 86 3d 00
        E 0 86 49 00
        E 0 86 55 00
        E 0 86 61 00
        E 180 96 49 59
        E 0 96 55 59
        E 0 96 61 59
        E 60 86 49 00
        E 0 86 55 00
        E 0 86 61 00
        E 180 96 3d 59
        E 0 96 49 59
        E 0 96 55 59
        E 0 96 61 59
        E 60 86 3d 00
        E 0 86 49 00
        E 0 86 55 00
        E 0 86 61 00
        E 180 96 49 59
        E 0 96 55 59
        E 0 96 61 59
        E 60 86 49 00
        E 0 86 55 00
        E 0 86 61 00
        E 180 96 3d 59
        E 0 96 49 59
        E 0 96 55 59
        E 0 96 61 59
        E 60 86 3d 00
        E 0 86 49 00
        E 0 86 55 00
        E 0 86 61 00
        E 180 96 49 59
        E 0 96 55 59
        E 0 96 61 59
        E 60 86 49 00
        E 0 86 55 00
        E 0 86 61 00
        E 180 96 3d 59
        E 0 96 49 59
        E 0 96 55 59
        E 0 96 61 59
        E 60 86 3d 00
        E 0 86 49 00
        E 0 86 55 00
        E 0 86 61 00
        E 180 96 49 59
        E 0 96 55 59
        E 0 96 61 59
        E 60 86 49 00
        E 0 86 55 00
        E 0 86 61 00
        E 180 96 3d 59
        E 0 96 49 59
        E 0 96 55 59
        E 0 96 61 59
        E 60 86 3d 00
        E 0 86 49 00
        E 0 86 55 00
        E 0 86 61 00
        E 180 96 49 59
        E 0 96 55 59
        E 0 96 61 59
        E 60 86 49 00
        E 0 86 55 00
        E 0 86 61 00
        E 180 96 3d 59
        E 0 96 49 59
        E 0 96 55 59
        E 0 96 61 59
        E 60 86 3d 00
        E 0 86 49 00
        E 0 86 55 00
        E 0 86 61 00
        E 180 96 49 59
        E 0 96 55 59
        E 0 96 61 59
        E 60 86 49 00
        E 0 86 55 00
        E 0 86 61 00
        E 180 96 3d 59
        E 0 96 49 59
        E 0 96 55 59
        E 0 96 61 59
        E 60 86 3d 00
        E 0 86 49 00
        E 0 86 55 00
        E 0 86 61 00
        E 180 96 49 59
        E 0 96 55 59
        E 0 96 61 59
        E 60 86 49 00
        E 0 86 55 00
        E 0 86 61 00
        E 180 96 49 59
        E 0 96 55 59
        E 0 96 61 59
        E 60 86 49 00
        E 0 86 55 00
        E 0 86 61 00
        E 180 96 55 59
        E 0 96 61 59
        E 60 86 55 00
        E 0 86 61 00
        E 180 96 3c 59
        E 0 96 48 59
        E 0 96 54 59
        E 0 96 60 59
        E 60 86 3c 00
        E 0 86 48 00
        E 0 86 54 00
        E 0 86 60 00
        E 180 96 48 59
        E 0 96 54 59
        E 0 96 60 59
        E 60 86 48 00
        E 0 86 54 00
        E 0 86 60 00
        E 180 96 3c 59
        E 0 96 48 59
        E 0 96 54 59
        E 0 96 60 59
        E 60 86 3c 00
        E 0 86 48 00
        E 0 86 54 00
        E 0 86 60 00
        E 180 96 48 59
        E 0 96 54 59
        E 0 96 60 59
        E 60 86 48 00
        E 0 86 54 00
        E 0 86 60 00
        E 180 96 3c 59
        E 0 96 48 59
        E 0 96 54 59
        E 0 96 60 59
        E 60 86 3c 00
        E 0 86 48 00
        E 0 86 54 00
        E 0 86 60 00
        E 180 96 48 59
        E 0 96 54 59
        E 0 96 60 59
        E 60 86 48 00
        E 0 86 54 00
        E 0 86 60 00
        E 180 96 3c 59
        E 0 96 48 59
        E 0 96 54 59
        E 0 96 60 59
        E 60 86 3c 00
        E 0 86 48 00
        E 0 86 54 00
        E 0 86 60 00
        E 180 96 48 59
        E 0 96 54 59
        E 0 96 60 59
        E 60 86 48 00
        E 0 86 54 00
        E 0 86 60 00
        E 180 96 3c 59
        E 0 96 48 59
        E 0 96 54 59
        E 0 96 60 59
        E 60 86 3c 00
        E 0 86 48 00
        E 0 86 54 00
        E 0 86 60 00
        E 180 96 48 59
        E 0 96 54 59
        E 0 96 60 59
        E 60 86 48 00
        E 0 86 54 00
        E 0 86 60 00
        E 180 96 3c 59
        E 0 96 48 59
        E 0 96 54 59
        E 0 96 60 59
        E 60 86 3c 00
        E 0 86 48 00
        E 0 86 54 00
        E 0 86 60 00
        E 180 96 48 59
        E 0 96 54 59
        E 0 96 60 59
        E 60 86 48 00
        E 0 86 54 00
        E 0 86 60 00
        E 180 96 3c 59
        E 0 96 48 59
        E 0 96 54 59
        E 0 96 60 59
        E 60 86 3c 00
        E 0 86 48 00
        E 0 86 54 00
        E 0 86 60 00
        E 180 96 48 59
        E 0 96 54 59
        E 0 96 60 59
        E 60 86 48 00
        E 0 86 54 00
        E 0 86 60 00
        E 180 96 3c 59
        E 0 96 48 59
        E 0 96 54 59
        E 0 96 60 59
        E 60 86 3c 00
        E 0 86 48 00
        E 0 86 54 00
        E 0 86 60 00
        E 180 96 48 59
        E 0 96 54 59
        E 0 96 60 59
        E 120 86 48 00
        E 0 86 54 00
        E 180 86 60 00
        <X 480 0
          /wFbaWRsZV0=
        >
        <X 6660 0
          /wFbcGxheV0=
        >
        E 480 96 3d 59
        E 0 96 49 59
        E 0 96 55 59
        E 0 96 61 59
        E 60 86 3d 00
        E 0 86 49 00
        E 0 86 55 00
        E 0 86 61 00
        E 180 96 49 59
        E 0 96 55 59
        E 0 96 61 59
        E 60 86 49 00
        E 0 86 55 00
        E 0 86 61 00
        E 180 96 3d 59
        E 0 96 49 59
        E 0 96 55 59
        E 0 96 61 59
        E 60 86 3d 00
        E 0 86 49 00
        E 0 86 55 00
        E 0 86 61 00
        E 180 96 49 59
        E 0 96 55 59
        E 0 96 61 59
        E 60 86 49 00
        E 0 86 55 00
        E 0 86 61 00
        E 180 96 3d 59
        E 0 96 49 59
        E 0 96 55 59
        E 0 96 61 59
        E 60 86 3d 00
        E 0 86 49 00
        E 0 86 55 00
        E 0 86 61 00
        E 180 96 49 59
        E 0 96 55 59
        E 0 96 61 59
        E 60 86 49 00
        E 0 86 55 00
        E 0 86 61 00
        E 180 96 3d 59
        E 0 96 49 59
        E 0 96 55 59
        E 0 96 61 59
        E 60 86 3d 00
        E 0 86 49 00
        E 0 86 55 00
        E 0 86 61 00
        E 180 96 49 59
        E 0 96 55 59
        E 0 96 61 59
        E 60 86 49 00
        E 0 86 55 00
        E 0 86 61 00
        E 180 96 3d 59
        E 0 96 49 59
        E 0 96 55 59
        E 0 96 61 59
        E 60 86 3d 00
        E 0 86 49 00
        E 0 86 55 00
        E 0 86 61 00
        E 180 96 49 59
        E 0 96 55 59
        E 0 96 61 59
        E 60 86 49 00
        E 0 86 55 00
        E 0 86 61 00
        E 180 96 3d 59
        E 0 96 49 59
        E 0 96 55 59
        E 0 96 61 59
        E 60 86 3d 00
        E 0 86 49 00
        E 0 86 55 00
        E 0 86 61 00
        E 180 96 49 59
        E 0 96 55 59
        E 0 96 61 59
        E 60 86 49 00
        E 0 86 55 00
        E 0 86 61 00
        E 180 96 3d 59
        E 0 96 49 59
        E 0 96 55 59
        E 0 96 61 59
        E 60 86 3d 00
        E 0 86 49 00
        E 0 86 55 00
        E 0 86 61 00
        E 180 96 49 59
        E 0 96 55 59
        E 0 96 61 59
        E 60 86 49 00
        E 0 86 55 00
        E 0 86 61 00
        E 180 96 49 59
        E 0 96 55 59
        E 0 96 61 59
        E 60 86 49 00
        E 0 86 55 00
        E 0 86 61 00
        E 180 96 56 59
        E 0 96 62 59
        E 60 86 56 00
        E 0 86 62 00
        e 180 90 74 59
        E 0 96 3f 59
        E 0 96 4b 59
        E 0 96 58 59
        E 0 96 64 59
        E 60 86 3f 00
        E 0 86 4b 00
        E 0 86 58 00
        E 0 86 64 00
        E 180 96 4b 59
        E 0 96 58 59
        E 0 96 64 59
        E 60 86 4b 00
        E 0 86 58 00
        E 0 86 64 00
        E 180 96 3f 59
        E 0 96 4b 59
        E 0 96 58 59
        E 0 96 64 59
        E 60 86 3f 00
        E 0 86 4b 00
        E 0 86 58 00
        E 0 86 64 00
        E 180 96 4b 59
        E 0 96 58 59
        E 0 96 64 59
        E 60 86 4b 00
        E 0 86 58 00
        E 0 86 64 00
        E 180 96 3f 59
        E 0 96 4b 59
        E 0 96 58 59
        E 0 96 64 59
        E 60 86 3f 00
        E 0 86 4b 00
        E 0 86 58 00
        E 0 86 64 00
        E 180 96 4b 59
        E 0 96 58 59
        E 0 96 64 59
        E 60 86 4b 00
        E 0 86 58 00
        E 0 86 64 00
        E 180 96 3f 59
        E 0 96 4b 59
        E 0 96 58 59
        E 0 96 64 59
        E 60 86 3f 00
        E 0 86 4b 00
        E 0 86 58 00
        E 0 86 64 00
        E 180 96 4b 59
        E 0 96 58 59
        E 0 96 64 59
        E 60 86 4b 00
        E 0 86 58 00
        E 0 86 64 00
        E 180 96 3f 59
        E 0 96 4b 59
        E 0 96 58 59
        E 0 96 64 59
        E 120 86 3f 00
        E 0 86 4b 00
        E 0 86 58 00
        e 180 80 74 00
        E 0 86 64 00
        E 1620 96 3d 59
        E 0 96 49 59
        E 0 96 55 59
        E 0 96 61 59
        E 120 86 3d 00
        E 0 86 49 00
        E 240 86 55 00
        E 60 86 61 00
        E 60 90 3d 59
        E 0 90 49 59
        E 0 90 55 59
        E 0 90 61 59
        E 60 80 3d 00
        E 0 80 49 00
        E 0 80 55 00
        E 0 80 61 00
        E 180 96 49 59
        E 0 96 55 59
        E 0 96 61 59
        E 120 86 49 00
        E 480 86 55 00
        E 60 86 61 00
        E 60 96 49 59
        E 0 96 55 59
        E 0 96 61 59
        E 120 86 49 00
        E 0 86 55 00
        E 180 86 61 00
        E 180 96 3c 59
        E 0 96 48 59
        E 0 96 54 59
        E 0 96 60 59
        E 120 86 3c 00
        E 0 86 48 00
        E 240 86 54 00
        E 60 86 60 00
        E 60 90 3c 59
        E 0 90 48 59
        E 0 90 54 59
        E 0 90 60 59
        E 60 80 3c 00
        E 0 80 48 00
        E 0 80 54 00
        E 0 80 60 00
        E 180 96 48 59
        E 0 96 54 59
        E 0 96 60 59
        E 120 86 48 00
        E 480 86 54 00
        E 60 86 60 00
        E 60 96 48 59
        E 0 96 54 59
        E 0 96 60 59
        E 120 86 48 00
        E 0 86 54 00
        E 180 86 60 00
        E 180 96 3d 59
        E 0 96 49 59
        E 0 96 55 59
        E 0 96 61 59
        E 120 86 3d 00
        E 0 86 49 00
        E 240 86 55 00
        E 60 86 61 00
        E 60 90 3d 59
        E 0 90 49 59
        E 0 90 55 59
        E 0 90 61 59
        E 60 80 3d 00
        E 0 80 49 00
        E 0 80 55 00
        E 0 80 61 00
        E 180 96 49 59
        E 0 96 55 59
        E 0 96 61 59
        E 120 86 49 00
        E 480 86 55 00
        E 60 86 61 00
        E 60 96 3d 59
        E 0 96 49 59
        E 0 96 55 59
        E 0 96 61 59
        E 120 86 3d 00
        E 0 86 49 00
        E 240 86 55 00
        E 60 86 61 00
        E 60 96 3d 59
        E 0 96 49 59
        E 0 96 55 59
        E 0 96 61 59
        E 120 86 3d 00
        E 0 86 49 00
        E 240 86 55 00
        E 60 86 61 00
        E 60 96 49 59
        E 0 96 55 59
        E 0 96 61 59
        E 120 86 49 00
        E 0 86 55 00
        E 180 86 61 00
        E 180 96 3c 59
        E 0 96 48 59
        E 0 96 54 59
        E 0 96 60 59
        E 120 86 3c 00
        E 0 86 48 00
        E 240 86 54 00
        E 60 86 60 00
        E 60 96 48 59
        E 0 96 54 59
        E 0 96 60 59
        E 120 86 48 00
        E 0 86 54 00
        E 180 86 60 00
        E 180 96 3d 59
        E 0 96 49 59
        E 0 96 55 59
        E 0 96 61 59
        E 120 86 3d 00
        E 0 86 49 00
        E 240 86 55 00
        E 60 86 61 00
        E 60 90 3d 59
        E 0 90 49 59
        E 0 90 55 59
        E 0 90 61 59
        E 60 80 3d 00
        E 0 80 49 00
        E 0 80 55 00
        E 0 80 61 00
        E 180 96 49 59
        E 0 96 55 59
        E 0 96 61 59
        E 120 86 49 00
        E 480 86 55 00
        E 60 86 61 00
        E 60 96 49 59
        E 0 96 55 59
        E 0 96 61 59
        E 120 86 49 00
        E 0 86 55 00
        E 180 86 61 00
        E 180 96 3c 59
        E 0 96 48 59
        E 0 96 54 59
        E 0 96 60 59
        E 120 86 3c 00
        E 0 86 48 00
        E 240 86 54 00
        E 60 86 60 00
        E 60 90 3c 59
        E 0 90 48 59
        E 0 90 54 59
        E 0 90 60 59
        E 60 80 3c 00
        E 0 80 48 00
        E 0 80 54 00
        E 0 80 60 00
        E 180 96 48 59
        E 0 96 54 59
        E 0 96 60 59
        E 120 86 48 00
        E 480 86 54 00
        E 60 86 60 00
        E 60 96 48 59
        E 0 96 54 59
        E 0 96 60 59
        E 120 86 48 00
        E 0 86 54 00
        E 180 86 60 00
        E 180 96 3d 59
        E 0 96 49 59
        E 0 96 55 59
        E 0 96 61 59
        E 120 86 3d 00
        E 0 86 49 00
        E 240 86 55 00
        E 60 86 61 00
        E 60 90 3d 59
        E 0 90 49 59
        E 0 90 55 59
        E 0 90 61 59
        E 60 80 3d 00
        E 0 80 49 00
        E 0 80 55 00
        E 0 80 61 00
        E 180 96 49 59
        E 0 96 55 59
        E 0 96 61 59
        E 120 86 49 00
        E 480 86 55 00
        E 60 86 61 00
        E 60 96 3d 59
        E 0 96 49 59
        E 0 96 55 59
        E 0 96 61 59
        E 120 86 3d 00
        E 0 86 49 00
        E 240 86 55 00
        E 60 86 61 00
        E 60 96 3d 59
        E 0 96 49 59
        E 0 96 55 59
        E 0 96 61 59
        E 120 86 3d 00
        E 0 86 49 00
        E 240 86 55 00
        E 60 86 61 00
        E 60 96 49 59
        E 0 96 55 59
        E 0 96 61 59
        E 120 86 49 00
        E 0 86 55 00
        E 180 86 61 00
        E 180 96 3c 59
        E 0 96 48 59
        E 0 96 54 59
        E 0 96 60 59
        E 120 86 3c 00
        E 0 86 48 00
        E 240 86 54 00
        E 60 86 60 00
        E 60 96 48 59
        E 0 96 54 59
        E 0 96 60 59
        E 120 86 48 00
        E 0 86 54 00
        E 180 86 60 00
        E 180 96 3d 59
        E 0 96 49 59
        E 0 96 55 59
        E 0 96 61 59
        E 120 86 3d 00
        E 0 86 49 00
        E 240 86 55 00
        E 60 86 61 00
        E 60 90 3d 59
        E 0 90 49 59
        E 0 90 55 59
        E 0 90 61 59
        E 60 80 3d 00
        E 0 80 49 00
        E 0 80 55 00
        E 0 80 61 00
        E 180 96 49 59
        E 0 96 55 59
        E 0 96 61 59
        E 120 86 49 00
        E 480 86 55 00
        E 60 86 61 00
        E 60 96 49 59
        E 0 96 55 59
        E 0 96 61 59
        E 120 86 49 00
        E 0 86 55 00
        E 180 86 61 00
        E 180 96 3c 59
        E 0 96 48 59
        E 0 96 54 59
        E 0 96 60 59
        E 120 86 3c 00
        E 0 86 48 00
        E 240 86 54 00
        E 60 86 60 00
        E 60 90 3c 59
        E 0 90 48 59
        E 0 90 54 59
        E 0 90 60 59
        E 60 80 3c 00
        E 0 80 48 00
        E 0 80 54 00
        E 0 80 60 00
        E 180 96 48 59
        E 0 96 54 59
        E 0 96 60 59
        E 120 86 48 00
        E 480 86 54 00
        E 60 86 60 00
        E 60 96 48 59
        E 0 96 54 59
        E 0 96 60 59
        E 120 86 48 00
        E 0 86 54 00
        E 172 90 74 12
        E 8 86 60 00
        E 180 96 3d 59
        E 0 96 49 59
        E 0 96 55 59
        E 0 96 61 59
        E 120 86 3d 00
        E 0 86 49 00
        E 240 86 55 00
        E 60 86 61 00
        E 60 90 3d 59
        E 0 90 49 59
        E 0 90 55 59
        E 0 90 61 59
        E 60 80 3d 00
        E 0 80 49 00
        E 0 80 55 00
        E 0 80 61 00
        E 180 96 49 59
        E 0 96 55 59
        E 0 96 61 59
        E 120 86 49 00
        E 480 86 55 00
        E 60 86 61 00
        E 60 96 3d 59
        E 0 96 49 59
        E 0 96 55 59
        E 0 96 61 59
        E 120 86 3d 00
        E 0 86 49 00
        E 240 86 55 00
        E 60 86 61 00
        E 60 96 3d 59
        E 0 96 49 59
        E 0 96 55 59
        E 0 96 61 59
        E 120 86 3d 00
        E 0 86 49 00
        E 240 86 55 00
        E 60 86 61 00
        E 60 96 49 59
        E 0 96 55 59
        E 0 96 61 59
        E 120 86 49 00
        E 0 86 55 00
        E 180 86 61 00
        E 180 96 3c 59
        E 0 96 48 59
        E 0 96 54 59
        E 0 96 60 59
        E 120 86 3c 00
        E 0 86 48 00
        E 240 86 54 00
        E 60 86 60 00
        E 60 96 48 59
        E 0 96 54 59
        E 0 96 60 59
        E 120 86 48 00
        E 0 86 54 00
        E 112 80 74 00
        E 68 86 60 00
        E 180 96 3d 59
        E 0 96 49 59
        E 0 96 55 59
        E 0 96 61 59
        E 120 86 3d 00
        E 0 86 49 00
        E 240 86 55 00
        E 60 86 61 00
        E 60 90 3d 59
        E 0 90 49 59
        E 0 90 55 59
        E 0 90 61 59
        E 60 80 3d 00
        E 0 80 49 00
        E 0 80 55 00
        E 0 80 61 00
        E 180 96 49 59
        E 0 96 55 59
        E 0 96 61 59
        E 120 86 49 00
        E 480 86 55 00
        E 60 86 61 00
        E 60 96 49 59
        E 0 96 55 59
        E 0 96 61 59
        E 120 86 49 00
        E 0 86 55 00
        E 180 86 61 00
        E 180 96 3c 59
        E 0 96 48 59
        E 0 96 54 59
        E 0 96 60 59
        E 120 86 3c 00
        E 0 86 48 00
        E 240 86 54 00
        E 60 86 60 00
        E 60 90 3c 59
        E 0 90 48 59
        E 0 90 54 59
        E 0 90 60 59
        E 60 80 3c 00
        E 0 80 48 00
        E 0 80 54 00
        E 0 80 60 00
        E 180 96 48 59
        E 0 96 54 59
        E 0 96 60 59
        E 120 86 48 00
        E 480 86 54 00
        E 60 86 60 00
        E 60 96 48 59
        E 0 96 54 59
        E 0 96 60 59
        E 120 86 48 00
        E 0 86 54 00
        E 180 86 60 00
        E 180 96 3d 59
        E 0 96 49 59
        E 0 96 55 59
        E 0 96 61 59
        E 120 86 3d 00
        E 0 86 49 00
        E 240 86 55 00
        E 60 86 61 00
        E 60 90 3d 59
        E 0 90 49 59
        E 0 90 55 59
        E 0 90 61 59
        E 60 80 3d 00
        E 0 80 49 00
        E 0 80 55 00
        E 0 80 61 00
        E 180 96 49 59
        E 0 96 55 59
        E 0 96 61 59
        E 120 86 49 00
        E 480 86 55 00
        E 60 86 61 00
        E 60 96 3d 59
        E 0 96 49 59
        E 0 96 55 59
        E 0 96 61 59
        E 120 86 3d 00
        E 0 86 49 00
        E 240 86 55 00
        E 60 86 61 00
        E 60 96 3d 59
        E 0 96 49 59
        E 0 96 55 59
        E 0 96 61 59
        E 120 86 3d 00
        E 0 86 49 00
        E 240 86 55 00
        E 60 86 61 00
        E 60 96 49 59
        E 0 96 55 59
        E 0 96 61 59
        E 120 86 49 00
        E 0 86 55 00
        E 180 86 61 00
        E 180 96 3c 59
        E 0 96 48 59
        E 0 96 54 59
        E 0 96 60 59
        E 120 86 3c 00
        E 0 86 48 00
        E 240 86 54 00
        E 60 86 60 00
        E 60 96 48 59
        E 0 96 54 59
        E 0 96 60 59
        E 120 86 48 00
        E 0 86 54 00
        E 180 86 60 00
        E 180 96 3d 59
        E 0 96 49 59
        E 0 96 55 59
        E 0 96 61 59
        E 120 86 3d 00
        E 0 86 49 00
        E 240 86 55 00
        E 60 86 61 00
        E 60 90 3d 59
        E 0 90 49 59
        E 0 90 55 59
        E 0 90 61 59
        E 60 80 3d 00
        E 0 80 49 00
        E 0 80 55 00
        E 0 80 61 00
        E 180 96 49 59
        E 0 96 55 59
        E 0 96 61 59
        E 120 86 49 00
        E 480 86 55 00
        E 60 86 61 00
        E 60 96 49 59
        E 0 96 55 59
        E 0 96 61 59
        E 120 86 49 00
        E 0 86 55 00
        E 180 86 61 00
        E 180 96 3c 59
        E 0 96 48 59
        E 0 96 54 59
        E 0 96 60 59
        E 120 86 3c 00
        E 0 86 48 00
        E 240 86 54 00
        E 60 86 60 00
        E 60 90 3c 59
        E 0 90 48 59
        E 0 90 54 59
        E 0 90 60 59
        E 60 80 3c 00
        E 0 80 48 00
        E 0 80 54 00
        E 0 80 60 00
        E 180 96 48 59
        E 0 96 54 59
        E 0 96 60 59
        E 120 86 48 00
        E 480 86 54 00
        E 60 86 60 00
        E 60 96 48 59
        E 0 96 54 59
        E 0 96 60 59
        E 120 86 48 00
        E 0 86 54 00
        E 180 86 60 00
        E 180 96 3d 59
        E 0 96 49 59
        E 0 96 55 59
        E 0 96 61 59
        E 120 86 3d 00
        E 0 86 49 00
        E 240 86 55 00
        E 60 86 61 00
        E 60 90 3d 59
        E 0 90 49 59
        E 0 90 55 59
        E 0 90 61 59
        E 60 80 3d 00
        E 0 80 49 00
        E 0 80 55 00
        E 0 80 61 00
        E 180 96 49 59
        E 0 96 55 59
        E 0 96 61 59
        E 120 86 49 00
        E 480 86 55 00
        E 60 86 61 00
        E 60 96 3d 59
        E 0 96 49 59
        E 0 96 55 59
        E 0 96 61 59
        E 120 86 3d 00
        E 0 86 49 00
        E 240 86 55 00
        E 60 86 61 00
        E 60 96 3d 59
        E 0 96 49 59
        E 0 96 55 59
        E 0 96 61 59
        E 120 86 3d 00
        E 0 86 49 00
        E 240 86 55 00
        E 60 86 61 00
        E 60 96 49 59
        E 0 96 55 59
        E 0 96 61 59
        E 120 86 49 00
        E 0 86 55 00
        E 180 86 61 00
        E 180 96 3c 59
        E 0 96 48 59
        E 0 96 54 59
        E 0 96 60 59
        E 120 86 3c 00
        E 0 86 48 00
        E 240 86 54 00
        E 60 86 60 00
        E 60 96 48 59
        E 0 96 54 59
        E 0 96 60 59
        E 120 86 48 00
        E 0 86 54 00
        E 180 86 60 00
        E 180 96 3d 59
        E 0 96 49 59
        E 0 96 55 59
        E 0 96 61 59
        E 120 86 3d 00
        E 0 86 49 00
        E 240 86 55 00
        E 60 86 61 00
        E 60 90 3d 59
        E 0 90 49 59
        E 0 90 55 59
        E 0 90 61 59
        E 60 80 3d 00
        E 0 80 49 00
        E 0 80 55 00
        E 0 80 61 00
        E 180 96 49 59
        E 0 96 55 59
        E 0 96 61 59
        E 120 86 49 00
        E 480 86 55 00
        E 60 86 61 00
        E 60 96 49 59
        E 0 96 55 59
        E 0 96 61 59
        E 120 86 49 00
        E 0 86 55 00
        E 180 86 61 00
        E 180 96 3c 59
        E 0 96 48 59
        E 0 96 54 59
        E 0 96 60 59
        E 120 86 3c 00
        E 0 86 48 00
        E 240 86 54 00
        E 60 86 60 00
        E 60 90 3c 59
        E 0 90 48 59
        E 0 90 54 59
        E 0 90 60 59
        E 60 80 3c 00
        E 0 80 48 00
        E 0 80 54 00
        E 0 80 60 00
        E 180 96 48 59
        E 0 96 54 59
        E 0 96 60 59
        E 120 86 48 00
        E 480 86 54 00
        E 60 86 60 00
        E 60 96 48 59
        E 0 96 54 59
        E 0 96 60 59
        E 120 86 48 00
        E 0 86 54 00
        E 180 86 60 00
        E 180 96 3d 59
        E 0 96 49 59
        E 0 96 55 59
        E 0 96 61 59
        E 120 86 3d 00
        E 0 86 49 00
        E 240 86 55 00
        E 60 86 61 00
        E 60 90 3d 59
        E 0 90 49 59
        E 0 90 55 59
        E 0 90 61 59
        E 60 80 3d 00
        E 0 80 49 00
        E 0 80 55 00
        E 0 80 61 00
        E 180 96 49 59
        E 0 96 55 59
        E 0 96 61 59
        E 120 86 49 00
        E 480 86 55 00
        E 60 86 61 00
        E 60 96 3d 59
        E 0 96 49 59
        E 0 96 55 59
        E 0 96 61 59
        E 120 86 3d 00
        E 0 86 49 00
        E 240 86 55 00
        E 60 86 61 00
        E 60 96 3d 59
        E 0 96 49 59
        E 0 96 55 59
        E 0 96 61 59
        E 120 86 3d 00
        E 0 86 49 00
        E 240 86 55 00
        E 60 86 61 00
        E 60 96 49 59
        E 0 96 55 59
        E 0 96 61 59
        E 120 86 49 00
        E 0 86 55 00
        E 180 86 61 00
        E 180 96 3c 59
        E 0 96 48 59
        E 0 96 54 59
        E 0 96 60 59
        E 120 86 3c 00
        E 0 86 48 00
        E 240 86 54 00
        E 60 86 60 00
        E 60 96 48 59
        E 0 96 54 59
        E 0 96 60 59
        E 120 86 48 00
        E 0 86 54 00
        E 180 86 60 00
        E 180 96 3d 59
        E 0 96 49 59
        E 0 96 55 59
        E 0 96 61 59
        E 4320 86 3d 00
        E 0 86 49 00
        E 0 86 55 00
        E 0 86 61 00
        <X 480 0
          /wFbaWRsZV9yZWFsdGltZV0=
        >
        E 2400 b0 7b 00
        GUID {54A57D35-811F-42A6-AB75-F5706122F903}
        IGNTEMPO 0 120.00000000 4 4
        SRCCOLOR 1434
        VELLANE 132 128 60
        COLORMAP "C:\Users\wejaa\AppData\Roaming\REAPER\Data\color_maps\rockband_guitarbass.png"
        TEXTSTRINGFILE "Text Events List.txt"
        CFGEDITVIEW -44507.809821 6.365085 6 12 0 0 0
        CFGEDIT 1 1 0 0 0 1 1 1 1 1 1 0.12500000 -8 -8 1370 736 1 2 1 2 0.00000000 0 0 0 0 0.500000 1 0 1.000000 64
        KEYSNAP 0 0 "102034050607" 0 "Major"
        EVTFILTER 0 -1 -1 -1 -1 0 1 0 0 -1.00000000 -1.00000000
      >
    >
  >
  <TRACK '{6EDC8309-BF71-4570-A745-1033ABBB7DCD}'
    NAME "bass_[mvsep.com]"
    PEAKCOL 16576
    BEAT -1
    AUTOMODE 0
    VOLPAN 1.00000000000000 0.00000000000000 -1.00000000000000 -1.00000000000000 1.00000000000000
    MUTESOLO 0 0 0
    IPHASE 0
    ISBUS 0 0
    BUSCOMP 0 0
    SHOWINMIX 1 0.666700 0.500000 1 0.500000 -1 -1 -1
    FREEMODE 0
    SEL 0
    REC 0 0 0 0 0 0 0
    VU 2
    TRACKHEIGHT 24 0
    INQ 0 0 0 0.5000000000 100 0 0 100
    NCHAN 2
    FX 1
    TRACKID {6EDC8309-BF71-4570-A745-1033ABBB7DCD}
    PERF 0
    MIDIOUT -1
    MAINSEND 1 0
    <ITEM
      POSITION 2.16421718522906
      SNAPOFFS 0.00000000000000
      LENGTH 255.68852607709749
      LOOP 0
      ALLTAKES 0
      SEL 0
      FADEIN 1 0.000000 0.000000 1 0
      FADEOUT 1 0.000000 0.000000 1 0
      MUTE 0
      IGUID {80196579-3024-4F2E-9AE5-A1A024E13C38}
      IID 164
      NAME "bass_[mvsep.com].flac"
      VOLPAN 1.000000 0.000000 1.000000 -1.000000
      SOFFS 0.00000000000000
      PLAYRATE 1.00000000000000 1 0.00000000000000 -1
      CHANMODE 0
      GUID {9BA5C74F-FE66-404F-9DE0-A8CEBA677288}
      <SOURCE FLAC
        FILE "bass_[mvsep.com].flac"
      >
    >
  >
  <TRACK '{6B7F9B4B-FF4E-4CE6-9E2D-4C9BD5DAED77}'
    NAME "PART GUITAR"
    PEAKCOL 33488896
    BEAT -1
    AUTOMODE 0
    VOLPAN 1.00000000000000 0.00000000000000 -1.00000000000000 -1.00000000000000 1.00000000000000
    MUTESOLO 0 0 0
    IPHASE 0
    ISBUS 0 0
    BUSCOMP 1 0
    SHOWINMIX 1 0.666700 0.500000 1 0.500000 -1 -1 -1
    FREEMODE 0
    SEL 0
    REC 0 4096 1 7 0 0 0
    TRACKHEIGHT 24 0
    INQ 0 0 0 0.5000000000 100 0 0 100
    NCHAN 2
    FX 1
    TRACKID {6B7F9B4B-FF4E-4CE6-9E2D-4C9BD5DAED77}
    PERF 0
    MIDIOUT -1
    <MIDINOTENAMES
      0 116 "OVERDRIVE"
      0 102 "Force HOPO Off"
      0 101 "Force HOPO On"
      0 100 "EXPERT Orange"
      0 99 "EXPERT Blue"
      0 98 "EXPERT Yellow"
      0 97 "EXPERT Red"
      0 96 "EXPERT Green"
      0 88 "HARD Orange"
      0 87 "HARD Blue"
      0 86 "HARD Yellow"
      0 85 "HARD Red"
      0 84 "HARD Green"
      0 76 "MEDIUM Orange"
      0 75 "MEDIUM Blue"
      0 74 "MEDIUM Yellow"
      0 73 "MEDIUM Red"
      0 72 "MEDIUM Green"
      0 64 "EASY Orange"
      0 63 "EASY Blue"
      0 62 "EASY Yellow"
      0 61 "EASY Red"
      0 60 "EASY Green"
      0 59 "Left Hand Highest"
      0 40 "Left Hand Lowest"
      0 58 "-"
      0 57 "-"
      0 56 "-"
      0 55 "-"
      0 54 "-"
      0 53 "-"
      0 52 "-"
      0 51 "-"
      0 50 "-"
      0 49 "-"
      0 48 "-"
      0 47 "-"
      0 46 "-"
      0 45 "-"
      0 44 "-"
      0 43 "-"
      0 42 "-"
      0 41 "-"
      0 115 "----"
      0 95 "----"
      0 89 "Force HOPO On"
      0 77 "----"
      0 65 "----"
      0 119 "----"
      0 120 "BRE (use all 5)"
      0 121 "BRE"
      0 122 "BRE"
      0 123 "BRE"
      0 124 "BRE"
      0 90 "Force HOPO Off"
      0 103 "Solo Marker"
      0 127 "Trill Marker"
      0 125 "----"
      0 126 "Strum Marker"
    >
    MAINSEND 1 0
    <FXCHAIN
      WNDRECT 877 298 878 585
      SHOW 0
      LASTSEL 1
      DOCKED 0
      BYPASS 1 0
      <VST "VSTi: ReaSynth (Cockos)" "reasynth.dll" 0 ""
        eXNlcu9e7f4AAAAAAgAAAAEAAAAAAAAAAgAAAAAAAAA4AAAAAAAAAA==
        AAAAAO++rd4N8K3eAAAAAAAAAAAAAAAAAAAAADm0SD59y9s+tbSxOQ==
        AAAAALbz/T5VpCs6AAAAAAAAAAAAAAAAAAA=
      >
      FLOATPOS 0 0 0 0
      FXID {52B28C73-185B-48E4-B8F4-1FD7A8848B0F}
      WAK 0
      BYPASS 0 0
      <VST "VSTi: RBN Preview (RBN)" "rbprev_vst64_beta.dll" 0 ""
        dnBicu5e7f4AAAAAAgAAAAEAAAAAAAAAAgAAAAAAAAAEAAAAAQAAAA==
        AAAAAAMAqgAAAAAAAAA=
      >
      FLOATPOS 32 32 659 497
      FXID {190BBB08-7A86-476B-BD07-5F71F5CD6F7C}
      WAK 0
    >
    <ITEM
      POSITION 0.00000000000000
      SNAPOFFS 0.00000000000000
      LENGTH 256.54924016774078
      LOOP 0
      ALLTAKES 0
      SEL 0
      FADEIN 1 0.000000 0.000000 1 0
      FADEOUT 1 0.000000 0.000000 1 0
      MUTE 0
      IGUID {81210F06-DA35-41E7-BA75-C6E1C5689733}
      IID 9
      NAME "PART GUITAR"
      VOLPAN 1.000000 0.000000 1.000000 -1.000000
      SOFFS 0.00000000000000 0.00000000000000
      PLAYRATE 1.00000000000000 1 0.00000000000000 -65536
      CHANMODE 0
      GUID {61757875-B3D4-49E4-8483-EE351B7D2386}
      <SOURCE MIDI
        HASDATA 1 480 QN
        POOLEDEVTS {31B35383-8892-433B-BC6C-C36E02AE08BC}
        <X 0 0
          /wNQQVJUIEdVSVRBUg==
        >
        <X 3840 0
          /wFbaWRsZV0=
        >
        <X 9600 0
          /wFbcGxheV0=
        >
        E 0 90 3e 60
        E 0 90 49 60
        E 0 90 4a 60
        E 0 90 54 60
        E 0 90 57 60
        E 0 90 60 60
        E 0 90 62 60
        E 0 90 63 60
        E 60 80 3e 00
        E 0 80 49 00
        E 0 80 4a 00
        E 0 80 54 00
        E 0 80 57 00
        E 0 80 60 00
        E 0 80 62 00
        E 0 80 63 00
        E 180 90 54 60
        E 0 90 57 60
        E 0 90 60 60
        E 0 90 62 60
        E 0 90 63 60
        E 60 80 54 00
        E 0 80 57 00
        E 0 80 60 00
        E 0 80 62 00
        E 0 80 63 00
        E 180 90 48 60
        E 0 90 54 60
        E 0 90 60 60
        E 60 80 48 00
        E 0 80 54 00
        E 0 80 60 00
        E 180 90 48 60
        E 0 90 54 60
        E 0 90 60 60
        E 60 80 48 00
        E 0 80 54 00
        E 0 80 60 00
        E 180 90 3c 60
        E 0 90 48 60
        E 0 90 54 60
        E 0 90 60 60
        E 60 80 3c 00
        E 0 80 48 00
        E 0 80 54 00
        E 0 80 60 00
        E 180 90 55 60
        E 0 90 61 60
        E 60 80 55 00
        E 0 80 61 00
        E 180 90 49 60
        E 0 90 55 60
        E 0 90 61 60
        E 60 80 49 00
        E 0 80 55 00
        E 0 80 61 00
        E 180 90 55 60
        E 0 90 61 60
        E 60 80 55 00
        E 0 80 61 00
        E 180 90 40 60
        E 0 90 4a 60
        E 0 90 4b 60
        E 0 90 55 60
        E 0 90 58 60
        E 0 90 61 60
        E 0 90 62 60
        E 0 90 64 60
        E 60 80 40 00
        E 0 80 4a 00
        E 0 80 4b 00
        E 0 80 55 00
        E 0 80 58 00
        E 0 80 61 00
        E 0 80 62 00
        E 0 80 64 00
        E 180 90 55 60
        E 0 90 58 60
        E 0 90 61 60
        E 0 90 62 60
        E 0 90 64 60
        E 61 80 55 00
        E 0 80 58 00
        E 0 80 61 00
        E 0 80 62 00
        E 0 80 64 00
        E 179 90 49 60
        E 0 90 55 60
        E 0 90 61 60
        E 60 80 49 00
        E 0 80 55 00
        E 0 80 61 00
        E 180 90 49 60
        E 0 90 55 60
        E 0 90 61 60
        E 60 80 49 00
        E 0 80 55 00
        E 0 80 61 00
        E 180 90 3d 60
        E 0 90 49 60
        E 0 90 55 60
        E 0 90 61 60
        E 60 80 3d 00
        E 0 80 49 00
        E 0 80 55 00
        E 0 80 61 00
        E 180 90 54 60
        E 0 90 60 60
        E 60 80 54 00
        E 0 80 60 00
        E 180 90 48 60
        E 0 90 54 60
        E 0 90 60 60
        E 60 80 48 00
        E 0 80 54 00
        E 0 80 60 00
        E 180 90 54 60
        E 0 90 60 60
        E 60 80 54 00
        E 0 80 60 00
        E 180 90 3e 60
        E 0 90 49 60
        E 0 90 4a 60
        E 0 90 54 60
        E 0 90 57 60
        E 0 90 60 60
        E 0 90 62 60
        E 0 90 63 60
        E 60 80 3e 00
        E 0 80 49 00
        E 0 80 4a 00
        E 0 80 54 00
        E 0 80 57 00
        E 0 80 60 00
        E 0 80 62 00
        E 0 80 63 00
        E 180 90 54 60
        E 0 90 57 60
        E 0 90 60 60
        E 0 90 62 60
        E 0 90 63 60
        E 60 80 54 00
        E 0 80 57 00
        E 0 80 60 00
        E 0 80 62 00
        E 0 80 63 00
        E 180 90 48 60
        E 0 90 54 60
        E 0 90 60 60
        E 60 80 48 00
        E 0 80 54 00
        E 0 80 60 00
        E 180 90 48 60
        E 0 90 54 60
        E 0 90 60 60
        E 60 80 48 00
        E 0 80 54 00
        E 0 80 60 00
        E 180 90 3c 60
        E 0 90 48 60
        E 0 90 54 60
        E 0 90 60 60
        E 60 80 3c 00
        E 0 80 48 00
        E 0 80 54 00
        E 0 80 60 00
        E 180 90 55 60
        E 0 90 61 60
        E 60 80 55 00
        E 0 80 61 00
        E 180 90 49 60
        E 0 90 55 60
        E 0 90 61 60
        E 60 80 49 00
        E 0 80 55 00
        E 0 80 61 00
        E 180 90 55 60
        E 0 90 61 60
        E 60 80 55 00
        E 0 80 61 00
        E 180 90 40 60
        E 0 90 4a 60
        E 0 90 4b 60
        E 0 90 55 60
        E 0 90 58 60
        E 0 90 61 60
        E 0 90 62 60
        E 0 90 64 60
        E 60 80 40 00
        E 0 80 4a 00
        E 0 80 4b 00
        E 0 80 55 00
        E 0 80 58 00
        E 0 80 61 00
        E 0 80 62 00
        E 0 80 64 00
        E 180 90 55 60
        E 0 90 58 60
        E 0 90 61 60
        E 0 90 62 60
        E 0 90 64 60
        E 61 80 55 00
        E 0 80 58 00
        E 0 80 61 00
        E 0 80 62 00
        E 0 80 64 00
        E 179 90 49 60
        E 0 90 55 60
        E 0 90 61 60
        E 60 80 49 00
        E 0 80 55 00
        E 0 80 61 00
        E 180 90 49 60
        E 0 90 55 60
        E 0 90 61 60
        E 60 80 49 00
        E 0 80 55 00
        E 0 80 61 00
        E 180 90 3d 60
        E 0 90 49 60
        E 0 90 55 60
        E 0 90 61 60
        E 60 80 3d 00
        E 0 80 49 00
        E 0 80 55 00
        E 0 80 61 00
        E 180 90 54 60
        E 0 90 60 60
        E 60 80 54 00
        E 0 80 60 00
        E 180 90 48 60
        E 0 90 54 60
        E 0 90 60 60
        E 60 80 48 00
        E 0 80 54 00
        E 0 80 60 00
        E 180 90 54 60
        E 0 90 60 60
        E 60 80 54 00
        E 0 80 60 00
        E 180 90 3e 60
        E 0 90 49 60
        E 0 90 4a 60
        E 0 90 54 60
        E 0 90 57 60
        E 0 90 60 60
        E 0 90 62 60
        E 0 90 63 60
        E 60 80 3e 00
        E 0 80 49 00
        E 0 80 4a 00
        E 0 80 54 00
        E 0 80 57 00
        E 0 80 60 00
        E 0 80 62 00
        E 0 80 63 00
        E 180 90 54 60
        E 0 90 57 60
        E 0 90 60 60
        E 0 90 62 60
        E 0 90 63 60
        E 60 80 54 00
        E 0 80 57 00
        E 0 80 60 00
        E 0 80 62 00
        E 0 80 63 00
        E 180 90 48 60
        E 0 90 54 60
        E 0 90 60 60
        E 60 80 48 00
        E 0 80 54 00
        E 0 80 60 00
        E 180 90 48 60
        E 0 90 54 60
        E 0 90 60 60
        E 60 80 48 00
        E 0 80 54 00
        E 0 80 60 00
        E 180 90 3c 60
        E 0 90 48 60
        E 0 90 54 60
        E 0 90 60 60
        E 60 80 3c 00
        E 0 80 48 00
        E 0 80 54 00
        E 0 80 60 00
        E 180 90 55 60
        E 0 90 61 60
        E 60 80 55 00
        E 0 80 61 00
        E 180 90 49 60
        E 0 90 55 60
        E 0 90 61 60
        E 60 80 49 00
        E 0 80 55 00
        E 0 80 61 00
        E 180 90 55 60
        E 0 90 61 60
        E 60 80 55 00
        E 0 80 61 00
        E 180 90 40 60
        E 0 90 4a 60
        E 0 90 4b 60
        E 0 90 55 60
        E 0 90 58 60
        E 0 90 61 60
        E 0 90 62 60
        E 0 90 64 60
        E 60 80 40 00
        E 0 80 4a 00
        E 0 80 4b 00
        E 0 80 55 00
        E 0 80 58 00
        E 0 80 61 00
        E 0 80 62 00
        E 0 80 64 00
        E 180 90 55 60
        E 0 90 58 60
        E 0 90 61 60
        E 0 90 62 60
        E 0 90 64 60
        E 61 80 55 00
        E 0 80 58 00
        E 0 80 61 00
        E 0 80 62 00
        E 0 80 64 00
        E 179 90 49 60
        E 0 90 55 60
        E 0 90 61 60
        E 60 80 49 00
        E 0 80 55 00
        E 0 80 61 00
        E 180 90 49 60
        E 0 90 55 60
        E 0 90 61 60
        E 60 80 49 00
        E 0 80 55 00
        E 0 80 61 00
        E 180 90 3d 60
        E 0 90 49 60
        E 0 90 55 60
        E 0 90 61 60
        E 60 80 3d 00
        E 0 80 49 00
        E 0 80 55 00
        E 0 80 61 00
        E 180 90 54 60
        E 0 90 60 60
        E 60 80 54 00
        E 0 80 60 00
        E 180 90 48 60
        E 0 90 54 60
        E 0 90 60 60
        E 60 80 48 00
        E 0 80 54 00
        E 0 80 60 00
        E 180 90 54 60
        E 0 90 60 60
        E 60 80 54 00
        E 0 80 60 00
        E 180 90 3e 60
        E 0 90 49 60
        E 0 90 4a 60
        E 0 90 54 60
        E 0 90 57 60
        E 0 90 60 60
        E 0 90 62 60
        E 0 90 63 60
        E 60 80 3e 00
        E 0 80 49 00
        E 0 80 4a 00
        E 0 80 54 00
        E 0 80 57 00
        E 0 80 60 00
        E 0 80 62 00
        E 0 80 63 00
        E 180 90 54 60
        E 0 90 57 60
        E 0 90 60 60
        E 0 90 62 60
        E 0 90 63 60
        E 60 80 54 00
        E 0 80 57 00
        E 0 80 60 00
        E 0 80 62 00
        E 0 80 63 00
        E 180 90 48 60
        E 0 90 54 60
        E 0 90 60 60
        E 60 80 48 00
        E 0 80 54 00
        E 0 80 60 00
        E 180 90 48 60
        E 0 90 54 60
        E 0 90 60 60
        E 60 80 48 00
        E 0 80 54 00
        E 0 80 60 00
        E 180 90 3c 60
        E 0 90 48 60
        E 0 90 54 60
        E 0 90 60 60
        E 60 80 3c 00
        E 0 80 48 00
        E 0 80 54 00
        E 0 80 60 00
        E 180 90 55 60
        E 0 90 61 60
        E 60 80 55 00
        E 0 80 61 00
        E 180 90 49 60
        E 0 90 55 60
        E 0 90 61 60
        E 60 80 49 00
        E 0 80 55 00
        E 0 80 61 00
        E 180 90 55 60
        E 0 90 61 60
        E 60 80 55 00
        E 0 80 61 00
        E 180 90 3f 60
        E 0 90 49 60
        E 0 90 4b 60
        E 0 90 55 60
        E 0 90 57 60
        E 0 90 61 60
        E 0 90 62 60
        E 0 90 63 60
        E 120 80 3f 00
        E 0 80 49 00
        E 0 80 4b 00
        E 240 80 55 00
        E 0 80 57 00
        E 60 80 61 00
        E 0 80 62 00
        E 0 80 63 00
        E 60 90 49 60
        E 0 90 4b 60
        E 0 90 55 60
        E 0 90 57 60
        E 0 90 61 60
        E 0 90 62 60
        E 0 90 63 60
        E 60 80 49 00
        E 0 80 4b 00
        E 0 80 55 00
        E 0 80 57 00
        E 0 80 61 00
        E 0 80 62 00
        E 0 80 63 00
        E 180 90 55 60
        E 0 90 61 60
        E 60 80 55 00
        E 0 80 61 00
        E 180 90 40 60
        E 0 90 4a 60
        E 0 90 4b 60
        E 0 90 56 60
        E 0 90 58 60
        E 0 90 61 60
        E 0 90 63 60
        E 0 90 64 60
        E 60 80 40 00
        E 0 80 4a 00
        E 0 80 4b 00
        E 0 80 56 00
        E 0 80 58 00
        E 0 80 61 00
        E 0 80 63 00
        E 0 80 64 00
        E 180 90 4a 60
        E 0 90 4b 60
        E 0 90 56 60
        E 0 90 58 60
        E 0 90 61 60
        E 0 90 63 60
        E 0 90 64 60
        E 60 80 4a 00
        E 0 80 4b 00
        E 0 80 56 00
        E 0 80 58 00
        E 0 80 61 00
        E 0 80 63 00
        E 0 80 64 00
        E 180 90 4a 60
        E 0 90 4b 60
        E 0 90 56 60
        E 0 90 58 60
        E 0 90 61 60
        E 0 90 63 60
        E 0 90 64 60
        E 60 80 4a 00
        E 0 80 4b 00
        E 0 80 56 00
        E 0 80 58 00
        E 0 80 61 00
        E 0 80 63 00
        E 0 80 64 00
        E 180 90 54 60
        E 0 90 60 60
        E 60 80 54 00
        E 0 80 60 00
        E 180 90 3e 60
        E 0 90 49 60
        E 0 90 4a 60
        E 0 90 54 60
        E 0 90 57 60
        E 0 90 60 60
        E 0 90 62 60
        E 0 90 63 60
        E 120 80 3e 00
        E 0 80 49 00
        E 0 80 4a 00
        E 0 80 54 00
        E 0 80 57 00
        E 180 80 60 00
        E 0 80 62 00
        E 0 80 63 00
        E 180 90 48 60
        E 0 90 54 60
        E 0 90 60 60
        E 60 80 48 00
        E 0 80 54 00
        E 0 80 60 00
        E 180 90 54 60
        E 0 90 57 60
        E 0 90 60 60
        E 0 90 62 60
        E 0 90 63 60
        E 600 80 54 00
        E 0 80 57 00
        E 60 80 60 00
        E 0 80 62 00
        E 0 80 63 00
        E 60 90 49 60
        E 0 90 4a 60
        E 0 90 54 60
        E 0 90 57 60
        E 0 90 60 60
        E 0 90 62 60
        E 0 90 63 60
        E 120 80 49 00
        E 0 80 4a 00
        E 0 80 54 00
        E 0 80 57 00
        E 180 80 60 00
        E 0 80 62 00
        E 0 80 63 00
        E 180 90 3c 60
        E 0 90 48 60
        E 0 90 49 60
        E 0 90 54 60
        E 0 90 55 60
        E 0 90 60 60
        E 0 90 61 60
        E 0 90 62 60
        E 120 80 3c 00
        E 0 80 48 00
        E 0 80 49 00
        E 0 80 54 00
        E 0 80 55 00
        E 180 80 60 00
        E 0 80 61 00
        E 0 80 62 00
        E 180 90 48 60
        E 0 90 54 60
        E 0 90 60 60
        E 60 80 48 00
        E 0 80 54 00
        E 0 80 60 00
        E 180 90 54 60
        E 0 90 55 60
        E 0 90 60 60
        E 0 90 61 60
        E 0 90 62 60
        E 600 80 54 00
        E 0 80 55 00
        E 60 80 60 00
        E 0 80 61 00
        E 0 80 62 00
        E 60 90 48 60
        E 0 90 49 60
        E 0 90 54 60
        E 0 90 55 60
        E 0 90 60 60
        E 0 90 61 60
        E 0 90 62 60
        E 120 80 48 00
        E 0 80 49 00
        E 0 80 54 00
        E 0 80 55 00
        E 180 80 60 00
        E 0 80 61 00
        E 0 80 62 00
        E 180 90 3f 60
        E 0 90 49 60
        E 0 90 4b 60
        E 0 90 55 60
        E 0 90 57 60
        E 0 90 61 60
        E 0 90 62 60
        E 0 90 63 60
        E 0 90 74 60
        E 120 80 3f 00
        E 0 80 49 00
        E 0 80 4b 00
        E 0 80 55 00
        E 0 80 57 00
        E 180 80 61 00
        E 0 80 62 00
        E 0 80 63 00
        E 180 90 49 60
        E 0 90 55 60
        E 0 90 61 60
        E 60 80 49 00
        E 0 80 55 00
        E 0 80 61 00
        E 180 90 55 60
        E 0 90 57 60
        E 0 90 61 60
        E 0 90 62 60
        E 0 90 63 60
        E 600 80 55 00
        E 0 80 57 00
        E 60 80 61 00
        E 0 80 62 00
        E 0 80 63 00
        E 60 90 49 60
        E 0 90 4b 60
        E 0 90 55 60
        E 0 90 57 60
        E 0 90 61 60
        E 0 90 62 60
        E 0 90 63 60
        E 120 80 49 00
        E 0 80 4b 00
        E 0 80 55 00
        E 0 80 57 00
        E 180 80 61 00
        E 0 80 62 00
        E 0 80 63 00
        E 120 80 74 00
        E 60 90 3d 60
        E 0 90 48 60
        E 0 90 4a 60
        E 0 90 54 60
        E 0 90 56 60
        E 0 90 60 60
        E 0 90 61 60
        E 0 90 63 60
        E 120 80 3d 00
        E 0 80 48 00
        E 0 80 4a 00
        E 0 80 54 00
        E 0 80 56 00
        E 180 80 60 00
        E 0 80 61 00
        E 0 80 63 00
        E 180 90 48 60
        E 0 90 54 60
        E 0 90 60 60
        E 60 80 48 00
        E 0 80 54 00
        E 0 80 60 00
        E 180 90 54 60
        E 0 90 56 60
        E 0 90 60 60
        E 0 90 61 60
        E 0 90 63 60
        E 600 80 54 00
        E 0 80 56 00
        E 60 80 60 00
        E 0 80 61 00
        E 0 80 63 00
        E 60 90 48 60
        E 0 90 4a 60
        E 0 90 54 60
        E 0 90 56 60
        E 0 90 60 60
        E 0 90 61 60
        E 0 90 63 60
        E 120 80 48 00
        E 0 80 4a 00
        E 0 80 54 00
        E 0 80 56 00
        E 180 80 60 00
        E 0 80 61 00
        E 0 80 63 00
        E 180 90 3e 60
        E 0 90 49 60
        E 0 90 4a 60
        E 0 90 54 60
        E 0 90 57 60
        E 0 90 60 60
        E 0 90 62 60
        E 0 90 63 60
        E 120 80 3e 00
        E 0 80 49 00
        E 0 80 4a 00
        E 0 80 54 00
        E 0 80 57 00
        E 180 80 60 00
        E 0 80 62 00
        E 0 80 63 00
        E 180 90 48 60
        E 0 90 54 60
        E 0 90 60 60
        E 60 80 48 00
        E 0 80 54 00
        E 0 80 60 00
        E 180 90 54 60
        E 0 90 57 60
        E 0 90 60 60
        E 0 90 62 60
        E 0 90 63 60
        E 600 80 54 00
        E 0 80 57 00
        E 60 80 60 00
        E 0 80 62 00
        E 0 80 63 00
        E 60 90 49 60
        E 0 90 4a 60
        E 0 90 54 60
        E 0 90 57 60
        E 0 90 60 60
        E 0 90 62 60
        E 0 90 63 60
        E 120 80 49 00
        E 0 80 4a 00
        E 0 80 54 00
        E 0 80 57 00
        E 180 80 60 00
        E 0 80 62 00
        E 0 80 63 00
        E 180 90 3c 60
        E 0 90 48 60
        E 0 90 49 60
        E 0 90 54 60
        E 0 90 55 60
        E 0 90 60 60
        E 0 90 61 60
        E 0 90 62 60
        E 120 80 3c 00
        E 0 80 48 00
        E 0 80 49 00
        E 0 80 54 00
        E 0 80 55 00
        E 180 80 60 00
        E 0 80 61 00
        E 0 80 62 00
        E 180 90 48 60
        E 0 90 54 60
        E 0 90 60 60
        E 60 80 48 00
        E 0 80 54 00
        E 0 80 60 00
        E 180 90 54 60
        E 0 90 55 60
        E 0 90 60 60
        E 0 90 61 60
        E 0 90 62 60
        E 600 80 54 00
        E 0 80 55 00
        E 60 80 60 00
        E 0 80 61 00
        E 0 80 62 00
        E 60 90 48 60
        E 0 90 49 60
        E 0 90 54 60
        E 0 90 55 60
        E 0 90 60 60
        E 0 90 61 60
        E 0 90 62 60
        E 120 80 48 00
        E 0 80 49 00
        E 0 80 54 00
        E 0 80 55 00
        E 180 80 60 00
        E 0 80 61 00
        E 0 80 62 00
        E 180 90 3f 60
        E 0 90 49 60
        E 0 90 4b 60
        E 0 90 55 60
        E 0 90 57 60
        E 0 90 61 60
        E 0 90 62 60
        E 0 90 63 60
        E 120 80 3f 00
        E 0 80 49 00
        E 0 80 4b 00
        E 0 80 55 00
        E 0 80 57 00
        E 180 80 61 00
        E 0 80 62 00
        E 0 80 63 00
        E 180 90 49 60
        E 0 90 55 60
        E 0 90 61 60
        E 60 80 49 00
        E 0 80 55 00
        E 0 80 61 00
        E 180 90 55 60
        E 0 90 57 60
        E 0 90 61 60
        E 0 90 62 60
        E 0 90 63 60
        E 600 80 55 00
        E 0 80 57 00
        E 60 80 61 00
        E 0 80 62 00
        E 0 80 63 00
        E 60 90 3f 60
        E 0 90 49 60
        E 0 90 4b 60
        E 0 90 55 60
        E 0 90 57 60
        E 0 90 61 60
        E 0 90 62 60
        E 0 90 63 60
        E 120 80 3f 00
        E 0 80 49 00
        E 0 80 4b 00
        E 240 80 55 00
        E 0 80 57 00
        E 60 80 61 00
        E 0 80 62 00
        E 0 80 63 00
        E 60 90 3f 60
        E 0 90 49 60
        E 0 90 4b 60
        E 0 90 55 60
        E 0 90 57 60
        E 0 90 61 60
        E 0 90 62 60
        E 0 90 63 60
        E 120 80 3f 00
        E 0 80 49 00
        E 0 80 4b 00
        E 240 80 55 00
        E 0 80 57 00
        E 60 80 61 00
        E 0 80 62 00
        E 0 80 63 00
        E 60 90 49 60
        E 0 90 4b 60
        E 0 90 55 60
        E 0 90 57 60
        E 0 90 61 60
        E 0 90 62 60
        E 0 90 63 60
        E 60 80 49 00
        E 0 80 4b 00
        E 0 80 55 00
        E 0 80 57 00
        E 0 80 61 00
        E 0 80 62 00
        E 0 80 63 00
        E 180 90 54 60
        E 0 90 60 60
        E 60 80 54 00
        E 0 80 60 00
        E 180 90 3d 60
        E 0 90 48 60
        E 0 90 4a 60
        E 0 90 54 60
        E 0 90 56 60
        E 0 90 60 60
        E 0 90 61 60
        E 0 90 63 60
        E 120 80 3d 00
        E 0 80 48 00
        E 0 80 4a 00
        E 240 80 54 00
        E 0 80 56 00
        E 60 80 60 00
        E 0 80 61 00
        E 0 80 63 00
        E 60 90 48 60
        E 0 90 4a 60
        E 0 90 54 60
        E 0 90 56 60
        E 0 90 60 60
        E 0 90 61 60
        E 0 90 63 60
        E 120 80 48 00
        E 0 80 4a 00
        E 0 80 54 00
        E 0 80 56 00
        E 180 80 60 00
        E 0 80 61 00
        E 0 80 63 00
        E 180 90 3e 60
        E 0 90 49 60
        E 0 90 4a 60
        E 0 90 54 60
        E 0 90 57 60
        E 0 90 60 60
        E 0 90 62 60
        E 0 90 63 60
        E 60 80 3e 00
        E 0 80 49 00
        E 0 80 4a 00
        E 0 80 54 00
        E 0 80 57 00
        E 0 80 60 00
        E 0 80 62 00
        E 0 80 63 00
        E 180 90 49 60
        E 0 90 4a 60
        E 0 90 54 60
        E 0 90 57 60
        E 0 90 60 60
        E 0 90 62 60
        E 0 90 63 60
        E 60 80 49 00
        E 0 80 4a 00
        E 0 80 54 00
        E 0 80 57 00
        E 0 80 60 00
        E 0 80 62 00
        E 0 80 63 00
        E 1620 90 40 60
        E 0 90 4a 60
        E 0 90 4b 60
        E 0 90 55 60
        E 0 90 58 60
        E 0 90 61 60
        E 0 90 62 60
        E 0 90 64 60
        E 60 80 40 00
        E 0 80 4a 00
        E 0 80 4b 00
        E 0 80 55 00
        E 0 80 58 00
        E 0 80 61 00
        E 0 80 62 00
        E 0 80 64 00
        E 180 90 4a 60
        E 0 90 4b 60
        E 0 90 55 60
        E 0 90 58 60
        E 0 90 61 60
        E 0 90 62 60
        E 0 90 64 60
        E 60 80 4a 00
        E 0 80 4b 00
        E 0 80 55 00
        E 0 80 58 00
        E 0 80 61 00
        E 0 80 62 00
        E 0 80 64 00
        E 1620 90 3e 60
        E 0 90 49 60
        E 0 90 4a 60
        E 0 90 54 60
        E 0 90 57 60
        E 0 90 60 60
        E 0 90 62 60
        E 0 90 63 60
        E 60 80 3e 00
        E 0 80 49 00
        E 0 80 4a 00
        E 0 80 54 00
        E 0 80 57 00
        E 0 80 60 00
        E 0 80 62 00
        E 0 80 63 00
        E 180 90 49 60
        E 0 90 4a 60
        E 0 90 54 60
        E 0 90 57 60
        E 0 90 60 60
        E 0 90 62 60
        E 0 90 63 60
        E 60 80 49 00
        E 0 80 4a 00
        E 0 80 54 00
        E 0 80 57 00
        E 0 80 60 00
        E 0 80 62 00
        E 0 80 63 00
        E 1620 90 40 60
        E 0 90 4a 60
        E 0 90 4b 60
        E 0 90 55 60
        E 0 90 58 60
        E 0 90 61 60
        E 0 90 62 60
        E 0 90 64 60
        E 60 80 40 00
        E 0 80 4a 00
        E 0 80 4b 00
        E 0 80 55 00
        E 0 80 58 00
        E 0 80 61 00
        E 0 80 62 00
        E 0 80 64 00
        E 180 90 4a 60
        E 0 90 4b 60
        E 0 90 55 60
        E 0 90 58 60
        E 0 90 61 60
        E 0 90 62 60
        E 0 90 64 60
        E 60 80 4a 00
        E 0 80 4b 00
        E 0 80 55 00
        E 0 80 58 00
        E 0 80 61 00
        E 0 80 62 00
        E 0 80 64 00
        E 1620 90 40 60
        E 0 90 4a 60
        E 0 90 4b 60
        E 0 90 56 60
        E 0 90 58 60
        E 0 90 61 60
        E 0 90 63 60
        E 0 90 64 60
        E 60 80 40 00
        E 0 80 4a 00
        E 0 80 4b 00
        E 0 80 56 00
        E 0 80 58 00
        E 0 80 61 00
        E 0 80 63 00
        E 0 80 64 00
        E 180 90 4a 60
        E 0 90 4b 60
        E 0 90 56 60
        E 0 90 58 60
        E 0 90 61 60
        E 0 90 63 60
        E 0 90 64 60
        E 60 80 4a 00
        E 0 80 4b 00
        E 0 80 56 00
        E 0 80 58 00
        E 0 80 61 00
        E 0 80 63 00
        E 0 80 64 00
        E 1620 90 3d 60
        E 0 90 48 60
        E 0 90 4a 60
        E 0 90 54 60
        E 0 90 56 60
        E 0 90 60 60
        E 0 90 61 60
        E 0 90 63 60
        E 60 80 3d 00
        E 0 80 48 00
        E 0 80 4a 00
        E 0 80 54 00
        E 0 80 56 00
        E 0 80 60 00
        E 0 80 61 00
        E 0 80 63 00
        E 180 90 48 60
        E 0 90 4a 60
        E 0 90 54 60
        E 0 90 56 60
        E 0 90 60 60
        E 0 90 61 60
        E 0 90 63 60
        E 60 80 48 00
        E 0 80 4a 00
        E 0 80 54 00
        E 0 80 56 00
        E 0 80 60 00
        E 0 80 61 00
        E 0 80 63 00
        E 1620 90 3f 60
        E 0 90 49 60
        E 0 90 4b 60
        E 0 90 55 60
        E 0 90 57 60
        E 0 90 61 60
        E 0 90 62 60
        E 0 90 63 60
        E 60 80 3f 00
        E 0 80 49 00
        E 0 80 4b 00
        E 0 80 55 00
        E 0 80 57 00
        E 0 80 61 00
        E 0 80 62 00
        E 0 80 63 00
        E 180 90 49 60
        E 0 90 4b 60
        E 0 90 55 60
        E 0 90 57 60
        E 0 90 61 60
        E 0 90 62 60
        E 0 90 63 60
        E 60 80 49 00
        E 0 80 4b 00
        E 0 80 55 00
        E 0 80 57 00
        E 0 80 61 00
        E 0 80 62 00
        E 0 80 63 00
        E 1620 90 3f 60
        E 0 90 49 60
        E 0 90 4b 60
        E 0 90 55 60
        E 0 90 57 60
        E 0 90 61 60
        E 0 90 62 60
        E 0 90 63 60
        E 60 80 3f 00
        E 0 80 49 00
        E 0 80 4b 00
        E 0 80 55 00
        E 0 80 57 00
        E 0 80 61 00
        E 0 80 62 00
        E 0 80 63 00
        E 180 90 49 60
        E 0 90 4b 60
        E 0 90 55 60
        E 0 90 57 60
        E 0 90 61 60
        E 0 90 62 60
        E 0 90 63 60
        E 60 80 49 00
        E 0 80 4b 00
        E 0 80 55 00
        E 0 80 57 00
        E 0 80 61 00
        E 0 80 62 00
        E 0 80 63 00
        E 660 90 40 60
        E 0 90 4a 60
        E 0 90 4b 60
        E 0 90 56 60
        E 0 90 58 60
        E 0 90 61 60
        E 0 90 63 60
        E 0 90 64 60
        E 60 80 40 00
        E 0 80 4a 00
        E 0 80 4b 00
        E 0 80 56 00
        E 0 80 58 00
        E 0 80 61 00
        E 0 80 63 00
        E 0 80 64 00
        E 180 90 4a 60
        E 0 90 4b 60
        E 0 90 56 60
        E 0 90 58 60
        E 0 90 61 60
        E 0 90 63 60
        E 0 90 64 60
        E 60 80 4a 00
        E 0 80 4b 00
        E 0 80 56 00
        E 0 80 58 00
        E 0 80 61 00
        E 0 80 63 00
        E 0 80 64 00
        E 660 90 3e 60
        E 0 90 49 60
        E 0 90 4a 60
        E 0 90 54 60
        E 0 90 57 60
        E 0 90 60 60
        E 0 90 62 60
        E 0 90 63 60
        E 60 80 3e 00
        E 0 80 49 00
        E 0 80 4a 00
        E 0 80 54 00
        E 0 80 57 00
        E 0 80 60 00
        E 0 80 62 00
        E 0 80 63 00
        E 180 90 49 60
        E 0 90 4a 60
        E 0 90 54 60
        E 0 90 57 60
        E 0 90 60 60
        E 0 90 62 60
        E 0 90 63 60
        E 60 80 49 00
        E 0 80 4a 00
        E 0 80 54 00
        E 0 80 57 00
        E 0 80 60 00
        E 0 80 62 00
        E 0 80 63 00
        E 901 90 74 60
        E 719 90 40 60
        E 0 90 4a 60
        E 0 90 4b 60
        E 0 90 55 60
        E 0 90 58 60
        E 0 90 61 60
        E 0 90 62 60
        E 0 90 64 60
        E 60 80 40 00
        E 0 80 4a 00
        E 0 80 4b 00
        E 0 80 55 00
        E 0 80 58 00
        E 0 80 61 00
        E 0 80 62 00
        E 0 80 64 00
        E 180 90 4a 60
        E 0 90 4b 60
        E 0 90 55 60
        E 0 90 58 60
        E 0 90 61 60
        E 0 90 62 60
        E 0 90 64 60
        E 60 80 4a 00
        E 0 80 4b 00
        E 0 80 55 00
        E 0 80 58 00
        E 0 80 61 00
        E 0 80 62 00
        E 0 80 64 00
        E 1620 90 3e 60
        E 0 90 49 60
        E 0 90 4a 60
        E 0 90 54 60
        E 0 90 57 60
        E 0 90 60 60
        E 0 90 62 60
        E 0 90 63 60
        E 60 80 3e 00
        E 0 80 49 00
        E 0 80 4a 00
        E 0 80 54 00
        E 0 80 57 00
        E 0 80 60 00
        E 0 80 62 00
        E 0 80 63 00
        E 180 90 49 60
        E 0 90 4a 60
        E 0 90 54 60
        E 0 90 57 60
        E 0 90 60 60
        E 0 90 62 60
        E 0 90 63 60
        E 60 80 49 00
        E 0 80 4a 00
        E 0 80 54 00
        E 0 80 57 00
        E 0 80 60 00
        E 0 80 62 00
        E 0 80 63 00
        E 421 80 74 00
        E 1199 90 40 60
        E 0 90 4a 60
        E 0 90 4b 60
        E 0 90 55 60
        E 0 90 58 60
        E 0 90 61 60
        E 0 90 62 60
        E 0 90 64 60
        E 60 80 40 00
        E 0 80 4a 00
        E 0 80 4b 00
        E 0 80 55 00
        E 0 80 58 00
        E 0 80 61 00
        E 0 80 62 00
        E 0 80 64 00
        E 180 90 4a 60
        E 0 90 4b 60
        E 0 90 55 60
        E 0 90 58 60
        E 0 90 61 60
        E 0 90 62 60
        E 0 90 64 60
        E 60 80 4a 00
        E 0 80 4b 00
        E 0 80 55 00
        E 0 80 58 00
        E 0 80 61 00
        E 0 80 62 00
        E 0 80 64 00
        E 1620 90 40 60
        E 0 90 4b 60
        E 0 90 4c 60
        E 0 90 57 60
        E 0 90 58 60
        E 0 90 62 60
        E 0 90 63 60
        E 0 90 64 60
        E 60 80 40 00
        E 0 80 4b 00
        E 0 80 4c 00
        E 0 80 57 00
        E 0 80 58 00
        E 0 80 62 00
        E 0 80 63 00
        E 0 80 64 00
        E 180 90 4b 60
        E 0 90 4c 60
        E 0 90 57 60
        E 0 90 58 60
        E 0 90 62 60
        E 0 90 63 60
        E 0 90 64 60
        E 60 80 4b 00
        E 0 80 4c 00
        E 0 80 57 00
        E 0 80 58 00
        E 0 80 62 00
        E 0 80 63 00
        E 0 80 64 00
        E 1620 90 3d 60
        E 0 90 48 60
        E 0 90 4a 60
        E 0 90 54 60
        E 0 90 56 60
        E 0 90 60 60
        E 0 90 61 60
        E 0 90 63 60
        E 60 80 3d 00
        E 0 80 48 00
        E 0 80 4a 00
        E 0 80 54 00
        E 0 80 56 00
        E 0 80 60 00
        E 0 80 61 00
        E 0 80 63 00
        E 180 90 48 60
        E 0 90 4a 60
        E 0 90 54 60
        E 0 90 56 60
        E 0 90 60 60
        E 0 90 61 60
        E 0 90 63 60
        E 60 80 48 00
        E 0 80 4a 00
        E 0 80 54 00
        E 0 80 56 00
        E 0 80 60 00
        E 0 80 61 00
        E 0 80 63 00
        E 1620 90 3f 60
        E 0 90 49 60
        E 0 90 4b 60
        E 0 90 55 60
        E 0 90 57 60
        E 0 90 61 60
        E 0 90 62 60
        E 0 90 63 60
        E 120 80 3f 00
        E 0 80 49 00
        E 0 80 4b 00
        E 0 80 55 00
        E 0 80 57 00
        E 180 80 61 00
        E 0 80 62 00
        E 0 80 63 00
        E 180 90 49 60
        E 0 90 55 60
        E 0 90 61 60
        E 60 80 49 00
        E 0 80 55 00
        E 0 80 61 00
        E 180 90 55 60
        E 0 90 57 60
        E 0 90 61 60
        E 0 90 62 60
        E 0 90 63 60
        E 600 80 55 00
        E 0 80 57 00
        E 60 80 61 00
        E 0 80 62 00
        E 0 80 63 00
        E 60 90 49 60
        E 0 90 4b 60
        E 0 90 55 60
        E 0 90 57 60
        E 0 90 61 60
        E 0 90 62 60
        E 0 90 63 60
        E 60 80 49 00
        E 0 80 4b 00
        E 0 80 55 00
        E 0 80 57 00
        E 0 80 61 00
        E 0 80 62 00
        E 0 80 63 00
        E 180 90 55 60
        E 0 90 61 60
        E 60 80 55 00
        E 0 80 61 00
        E 180 90 40 60
        E 0 90 4a 60
        E 0 90 4b 60
        E 0 90 55 60
        E 0 90 58 60
        E 0 90 61 60
        E 0 90 62 60
        E 0 90 64 60
        E 120 80 40 00
        E 0 80 4a 00
        E 0 80 4b 00
        E 0 80 55 00
        E 0 80 58 00
        E 180 80 61 00
        E 0 80 62 00
        E 0 80 64 00
        E 180 90 40 60
        E 0 90 4a 60
        E 0 90 4b 60
        E 0 90 55 60
        E 0 90 58 60
        E 0 90 61 60
        E 0 90 62 60
        E 0 90 64 60
        E 60 80 40 00
        E 0 80 4a 00
        E 0 80 4b 00
        E 0 80 55 00
        E 0 80 58 00
        E 0 80 61 00
        E 0 80 62 00
        E 0 80 64 00
        E 180 90 55 60
        E 0 90 61 60
        E 60 80 55 00
        E 0 80 61 00
        E 180 90 40 60
        E 0 90 4a 60
        E 0 90 4b 60
        E 0 90 56 60
        E 0 90 58 60
        E 0 90 61 60
        E 0 90 63 60
        E 0 90 64 60
        E 120 80 40 00
        E 0 80 4a 00
        E 0 80 4b 00
        E 0 80 56 00
        E 0 80 58 00
        E 180 80 61 00
        E 0 80 63 00
        E 0 80 64 00
        E 180 90 4a 60
        E 0 90 4b 60
        E 0 90 56 60
        E 0 90 58 60
        E 0 90 61 60
        E 0 90 63 60
        E 0 90 64 60
        E 60 80 4a 00
        E 0 80 4b 00
        E 0 80 56 00
        E 0 80 58 00
        E 0 80 61 00
        E 0 80 63 00
        E 0 80 64 00
        E 180 90 54 60
        E 0 90 60 60
        E 60 80 54 00
        E 0 80 60 00
        E 180 90 3e 60
        E 0 90 49 60
        E 0 90 4a 60
        E 0 90 54 60
        E 0 90 57 60
        E 0 90 60 60
        E 0 90 62 60
        E 0 90 63 60
        E 120 80 3e 00
        E 0 80 49 00
        E 0 80 4a 00
        E 0 80 54 00
        E 0 80 57 00
        E 180 80 60 00
        E 0 80 62 00
        E 0 80 63 00
        E 180 90 48 60
        E 0 90 54 60
        E 0 90 60 60
        E 60 80 48 00
        E 0 80 54 00
        E 0 80 60 00
        E 180 90 54 60
        E 0 90 57 60
        E 0 90 60 60
        E 0 90 62 60
        E 0 90 63 60
        E 600 80 54 00
        E 0 80 57 00
        E 60 80 60 00
        E 0 80 62 00
        E 0 80 63 00
        E 60 90 49 60
        E 0 90 4a 60
        E 0 90 54 60
        E 0 90 57 60
        E 0 90 60 60
        E 0 90 62 60
        E 0 90 63 60
        E 60 80 49 00
        E 0 80 4a 00
        E 0 80 54 00
        E 0 80 57 00
        E 0 80 60 00
        E 0 80 62 00
        E 0 80 63 00
        E 180 90 55 60
        E 0 90 61 60
        E 60 80 55 00
        E 0 80 61 00
        E 180 90 40 60
        E 0 90 4a 60
        E 0 90 4b 60
        E 0 90 55 60
        E 0 90 58 60
        E 0 90 61 60
        E 0 90 62 60
        E 0 90 64 60
        E 120 80 40 00
        E 0 80 4a 00
        E 0 80 4b 00
        E 0 80 55 00
        E 0 80 58 00
        E 180 80 61 00
        E 0 80 62 00
        E 0 80 64 00
        E 180 90 49 60
        E 0 90 55 60
        E 0 90 61 60
        E 60 80 49 00
        E 0 80 55 00
        E 0 80 61 00
        E 180 90 55 60
        E 0 90 58 60
        E 0 90 61 60
        E 0 90 62 60
        E 0 90 64 60
        E 600 80 55 00
        E 0 80 58 00
        E 60 80 61 00
        E 0 80 62 00
        E 0 80 64 00
        E 60 90 4a 60
        E 0 90 4b 60
        E 0 90 55 60
        E 0 90 58 60
        E 0 90 61 60
        E 0 90 62 60
        E 0 90 64 60
        E 60 80 4a 00
        E 0 80 4b 00
        E 0 80 55 00
        E 0 80 58 00
        E 0 80 61 00
        E 0 80 62 00
        E 0 80 64 00
        E 180 90 54 60
        E 0 90 60 60
        E 60 80 54 00
        E 0 80 60 00
        E 180 90 3e 60
        E 0 90 49 60
        E 0 90 4a 60
        E 0 90 54 60
        E 0 90 57 60
        E 0 90 60 60
        E 0 90 62 60
        E 0 90 63 60
        E 120 80 3e 00
        E 0 80 49 00
        E 0 80 4a 00
        E 0 80 54 00
        E 0 80 57 00
        E 180 80 60 00
        E 0 80 62 00
        E 0 80 63 00
        E 180 90 48 60
        E 0 90 54 60
        E 0 90 60 60
        E 60 80 48 00
        E 0 80 54 00
        E 0 80 60 00
        E 180 90 54 60
        E 0 90 57 60
        E 0 90 60 60
        E 0 90 62 60
        E 0 90 63 60
        E 600 80 54 00
        E 0 80 57 00
        E 60 80 60 00
        E 0 80 62 00
        E 0 80 63 00
        E 60 90 49 60
        E 0 90 4a 60
        E 0 90 54 60
        E 0 90 57 60
        E 0 90 60 60
        E 0 90 62 60
        E 0 90 63 60
        E 60 80 49 00
        E 0 80 4a 00
        E 0 80 54 00
        E 0 80 57 00
        E 0 80 60 00
        E 0 80 62 00
        E 0 80 63 00
        E 180 90 55 60
        E 0 90 61 60
        E 60 80 55 00
        E 0 80 61 00
        E 180 90 40 60
        E 0 90 4a 60
        E 0 90 4b 60
        E 0 90 55 60
        E 0 90 58 60
        E 0 90 61 60
        E 0 90 62 60
        E 0 90 64 60
        E 120 80 40 00
        E 0 80 4a 00
        E 0 80 4b 00
        E 0 80 55 00
        E 0 80 58 00
        E 180 80 61 00
        E 0 80 62 00
        E 0 80 64 00
        E 180 90 49 60
        E 0 90 55 60
        E 0 90 61 60
        E 60 80 49 00
        E 0 80 55 00
        E 0 80 61 00
        E 180 90 55 60
        E 0 90 58 60
        E 0 90 61 60
        E 0 90 62 60
        E 0 90 64 60
        E 600 80 55 00
        E 0 80 58 00
        E 60 80 61 00
        E 0 80 62 00
        E 0 80 64 00
        E 60 90 40 60
        E 0 90 4a 60
        E 0 90 4b 60
        E 0 90 56 60
        E 0 90 58 60
        E 0 90 61 60
        E 0 90 63 60
        E 0 90 64 60
        E 60 80 40 00
        E 0 80 4a 00
        E 0 80 4b 00
        E 0 80 56 00
        E 0 80 58 00
        E 0 80 61 00
        E 0 80 63 00
        E 0 80 64 00
        E 180 90 55 60
        E 0 90 61 60
        E 60 80 55 00
        E 0 80 61 00
        E 180 90 40 60
        E 0 90 4a 60
        E 0 90 4b 60
        E 0 90 56 60
        E 0 90 58 60
        E 0 90 61 60
        E 0 90 63 60
        E 0 90 64 60
        E 120 80 40 00
        E 0 80 4a 00
        E 0 80 4b 00
        E 0 80 56 00
        E 0 80 58 00
        E 180 80 61 00
        E 0 80 63 00
        E 0 80 64 00
        E 180 90 49 60
        E 0 90 55 60
        E 0 90 61 60
        E 60 80 49 00
        E 0 80 55 00
        E 0 80 61 00
        E 180 90 56 60
        E 0 90 58 60
        E 0 90 61 60
        E 0 90 63 60
        E 0 90 64 60
        E 600 80 56 00
        E 0 80 58 00
        E 60 80 61 00
        E 0 80 63 00
        E 0 80 64 00
        E 60 90 4a 60
        E 0 90 4b 60
        E 0 90 56 60
        E 0 90 58 60
        E 0 90 61 60
        E 0 90 63 60
        E 0 90 64 60
        E 60 80 4a 00
        E 0 80 4b 00
        E 0 80 56 00
        E 0 80 58 00
        E 0 80 61 00
        E 0 80 63 00
        E 0 80 64 00
        E 180 90 54 60
        E 0 90 60 60
        E 60 80 54 00
        E 0 80 60 00
        E 180 90 3d 60
        E 0 90 48 60
        E 0 90 4a 60
        E 0 90 54 60
        E 0 90 56 60
        E 0 90 60 60
        E 0 90 61 60
        E 0 90 63 60
        E 120 80 3d 00
        E 0 80 48 00
        E 0 80 4a 00
        E 0 80 54 00
        E 0 80 56 00
        E 180 80 60 00
        E 0 80 61 00
        E 0 80 63 00
        E 180 90 48 60
        E 0 90 54 60
        E 0 90 60 60
        E 60 80 48 00
        E 0 80 54 00
        E 0 80 60 00
        E 180 90 54 60
        E 0 90 56 60
        E 0 90 60 60
        E 0 90 61 60
        E 0 90 63 60
        E 600 80 54 00
        E 0 80 56 00
        E 60 80 60 00
        E 0 80 61 00
        E 0 80 63 00
        E 60 90 48 60
        E 0 90 4a 60
        E 0 90 54 60
        E 0 90 56 60
        E 0 90 60 60
        E 0 90 61 60
        E 0 90 63 60
        E 60 80 48 00
        E 0 80 4a 00
        E 0 80 54 00
        E 0 80 56 00
        E 0 80 60 00
        E 0 80 61 00
        E 0 80 63 00
        E 180 90 55 60
        E 0 90 61 60
        E 60 80 55 00
        E 0 80 61 00
        E 180 90 3f 60
        E 0 90 49 60
        E 0 90 4b 60
        E 0 90 55 60
        E 0 90 57 60
        E 0 90 61 60
        E 0 90 62 60
        E 0 90 63 60
        E 120 80 3f 00
        E 0 80 49 00
        E 0 80 4b 00
        E 0 80 55 00
        E 0 80 57 00
        E 180 80 61 00
        E 0 80 62 00
        E 0 80 63 00
        E 180 90 49 60
        E 0 90 55 60
        E 0 90 61 60
        E 60 80 49 00
        E 0 80 55 00
        E 0 80 61 00
        E 180 90 55 60
        E 0 90 57 60
        E 0 90 61 60
        E 0 90 62 60
        E 0 90 63 60
        E 600 80 55 00
        E 0 80 57 00
        E 60 80 61 00
        E 0 80 62 00
        E 0 80 63 00
        E 60 90 3f 60
        E 0 90 49 60
        E 0 90 4b 60
        E 0 90 55 60
        E 0 90 57 60
        E 0 90 61 60
        E 0 90 62 60
        E 0 90 63 60
        E 60 80 3f 00
        E 0 80 49 00
        E 0 80 4b 00
        E 0 80 55 00
        E 0 80 57 00
        E 0 80 61 00
        E 0 80 62 00
        E 0 80 63 00
        E 180 90 55 60
        E 0 90 61 60
        E 60 80 55 00
        E 0 80 61 00
        E 180 90 3f 60
        E 0 90 49 60
        E 0 90 4b 60
        E 0 90 55 60
        E 0 90 57 60
        E 0 90 61 60
        E 0 90 62 60
        E 0 90 63 60
        E 0 90 74 60
        E 120 80 3f 00
        E 0 80 49 00
        E 0 80 4b 00
        E 0 80 55 00
        E 0 80 57 00
        E 180 80 61 00
        E 0 80 62 00
        E 0 80 63 00
        E 180 90 49 60
        E 0 90 4b 60
        E 0 90 55 60
        E 0 90 57 60
        E 0 90 61 60
        E 0 90 62 60
        E 0 90 63 60
        E 60 80 49 00
        E 0 80 4b 00
        E 0 80 55 00
        E 0 80 57 00
        E 0 80 61 00
        E 0 80 62 00
        E 0 80 63 00
        E 180 90 55 60
        E 0 90 61 60
        E 60 80 55 00
        E 0 80 61 00
        E 180 90 40 60
        E 0 90 4a 60
        E 0 90 4b 60
        E 0 90 56 60
        E 0 90 58 60
        E 0 90 61 60
        E 0 90 63 60
        E 0 90 64 60
        E 120 80 40 00
        E 0 80 4a 00
        E 0 80 4b 00
        E 0 80 56 00
        E 0 80 58 00
        E 180 80 61 00
        E 0 80 63 00
        E 0 80 64 00
        E 180 90 4a 60
        E 0 90 4b 60
        E 0 90 56 60
        E 0 90 58 60
        E 0 90 61 60
        E 0 90 63 60
        E 0 90 64 60
        E 60 80 4a 00
        E 0 80 4b 00
        E 0 80 56 00
        E 0 80 58 00
        E 0 80 61 00
        E 0 80 63 00
        E 0 80 64 00
        E 180 90 54 60
        E 0 90 60 60
        E 60 80 54 00
        E 0 80 60 00
        E 180 80 74 00
        E 0 90 3e 60
        E 0 90 49 60
        E 0 90 4a 60
        E 0 90 54 60
        E 0 90 57 60
        E 0 90 60 60
        E 0 90 62 60
        E 0 90 63 60
        E 120 80 3e 00
        E 0 80 49 00
        E 0 80 4a 00
        E 0 80 54 00
        E 0 80 57 00
        E 180 80 60 00
        E 0 80 62 00
        E 0 80 63 00
        E 180 90 48 60
        E 0 90 54 60
        E 0 90 60 60
        E 60 80 48 00
        E 0 80 54 00
        E 0 80 60 00
        E 180 90 54 60
        E 0 90 57 60
        E 0 90 60 60
        E 0 90 62 60
        E 0 90 63 60
        E 600 80 54 00
        E 0 80 57 00
        E 60 80 60 00
        E 0 80 62 00
        E 0 80 63 00
        E 60 90 49 60
        E 0 90 4a 60
        E 0 90 54 60
        E 0 90 57 60
        E 0 90 60 60
        E 0 90 62 60
        E 0 90 63 60
        E 60 80 49 00
        E 0 80 4a 00
        E 0 80 54 00
        E 0 80 57 00
        E 0 80 60 00
        E 0 80 62 00
        E 0 80 63 00
        E 180 90 55 60
        E 0 90 61 60
        E 60 80 55 00
        E 0 80 61 00
        E 180 90 40 60
        E 0 90 4a 60
        E 0 90 4b 60
        E 0 90 55 60
        E 0 90 58 60
        E 0 90 61 60
        E 0 90 62 60
        E 0 90 64 60
        E 120 80 40 00
        E 0 80 4a 00
        E 0 80 4b 00
        E 0 80 55 00
        E 0 80 58 00
        E 180 80 61 00
        E 0 80 62 00
        E 0 80 64 00
        E 180 90 49 60
        E 0 90 55 60
        E 0 90 61 60
        E 60 80 49 00
        E 0 80 55 00
        E 0 80 61 00
        E 180 90 55 60
        E 0 90 58 60
        E 0 90 61 60
        E 0 90 62 60
        E 0 90 64 60
        E 600 80 55 00
        E 0 80 58 00
        E 60 80 61 00
        E 0 80 62 00
        E 0 80 64 00
        E 60 90 4a 60
        E 0 90 4b 60
        E 0 90 55 60
        E 0 90 58 60
        E 0 90 61 60
        E 0 90 62 60
        E 0 90 64 60
        E 60 80 4a 00
        E 0 80 4b 00
        E 0 80 55 00
        E 0 80 58 00
        E 0 80 61 00
        E 0 80 62 00
        E 0 80 64 00
        E 180 90 54 60
        E 0 90 60 60
        E 60 80 54 00
        E 0 80 60 00
        E 180 90 3e 60
        E 0 90 49 60
        E 0 90 4a 60
        E 0 90 54 60
        E 0 90 57 60
        E 0 90 60 60
        E 0 90 62 60
        E 0 90 63 60
        E 120 80 3e 00
        E 0 80 49 00
        E 0 80 4a 00
        E 0 80 54 00
        E 0 80 57 00
        E 180 80 60 00
        E 0 80 62 00
        E 0 80 63 00
        E 180 90 48 60
        E 0 90 54 60
        E 0 90 60 60
        E 60 80 48 00
        E 0 80 54 00
        E 0 80 60 00
        E 180 90 54 60
        E 0 90 57 60
        E 0 90 60 60
        E 0 90 62 60
        E 0 90 63 60
        E 600 80 54 00
        E 0 80 57 00
        E 60 80 60 00
        E 0 80 62 00
        E 0 80 63 00
        E 60 90 49 60
        E 0 90 4a 60
        E 0 90 54 60
        E 0 90 57 60
        E 0 90 60 60
        E 0 90 62 60
        E 0 90 63 60
        E 60 80 49 00
        E 0 80 4a 00
        E 0 80 54 00
        E 0 80 57 00
        E 0 80 60 00
        E 0 80 62 00
        E 0 80 63 00
        E 180 90 55 60
        E 0 90 61 60
        E 60 80 55 00
        E 0 80 61 00
        E 180 90 40 60
        E 0 90 4a 60
        E 0 90 4b 60
        E 0 90 55 60
        E 0 90 58 60
        E 0 90 61 60
        E 0 90 62 60
        E 0 90 64 60
        E 120 80 40 00
        E 0 80 4a 00
        E 0 80 4b 00
        E 0 80 55 00
        E 0 80 58 00
        E 180 80 61 00
        E 0 80 62 00
        E 0 80 64 00
        E 180 90 49 60
        E 0 90 55 60
        E 0 90 61 60
        E 60 80 49 00
        E 0 80 55 00
        E 0 80 61 00
        E 180 90 55 60
        E 0 90 58 60
        E 0 90 61 60
        E 0 90 62 60
        E 0 90 64 60
        E 600 80 55 00
        E 0 80 58 00
        E 60 80 61 00
        E 0 80 62 00
        E 0 80 64 00
        E 60 90 40 60
        E 0 90 4a 60
        E 0 90 4b 60
        E 0 90 56 60
        E 0 90 58 60
        E 0 90 61 60
        E 0 90 63 60
        E 0 90 64 60
        E 60 80 40 00
        E 0 80 4a 00
        E 0 80 4b 00
        E 0 80 56 00
        E 0 80 58 00
        E 0 80 61 00
        E 0 80 63 00
        E 0 80 64 00
        E 180 90 55 60
        E 0 90 61 60
        E 60 80 55 00
        E 0 80 61 00
        E 180 90 40 60
        E 0 90 4a 60
        E 0 90 4b 60
        E 0 90 56 60
        E 0 90 58 60
        E 0 90 61 60
        E 0 90 63 60
        E 0 90 64 60
        E 120 80 40 00
        E 0 80 4a 00
        E 0 80 4b 00
        E 0 80 56 00
        E 0 80 58 00
        E 180 80 61 00
        E 0 80 63 00
        E 0 80 64 00
        E 180 90 49 60
        E 0 90 55 60
        E 0 90 61 60
        E 60 80 49 00
        E 0 80 55 00
        E 0 80 61 00
        E 180 90 56 60
        E 0 90 58 60
        E 0 90 61 60
        E 0 90 63 60
        E 0 90 64 60
        E 600 80 56 00
        E 0 80 58 00
        E 60 80 61 00
        E 0 80 63 00
        E 0 80 64 00
        E 60 90 4a 60
        E 0 90 4b 60
        E 0 90 56 60
        E 0 90 58 60
        E 0 90 61 60
        E 0 90 63 60
        E 0 90 64 60
        E 60 80 4a 00
        E 0 80 4b 00
        E 0 80 56 00
        E 0 80 58 00
        E 0 80 61 00
        E 0 80 63 00
        E 0 80 64 00
        E 180 90 54 60
        E 0 90 60 60
        E 60 80 54 00
        E 0 80 60 00
        E 180 90 3d 60
        E 0 90 48 60
        E 0 90 4a 60
        E 0 90 54 60
        E 0 90 56 60
        E 0 90 60 60
        E 0 90 61 60
        E 0 90 63 60
        E 120 80 3d 00
        E 0 80 48 00
        E 0 80 4a 00
        E 0 80 54 00
        E 0 80 56 00
        E 180 80 60 00
        E 0 80 61 00
        E 0 80 63 00
        E 180 90 48 60
        E 0 90 54 60
        E 0 90 60 60
        E 60 80 48 00
        E 0 80 54 00
        E 0 80 60 00
        E 180 90 54 60
        E 0 90 56 60
        E 0 90 60 60
        E 0 90 61 60
        E 0 90 63 60
        E 600 80 54 00
        E 0 80 56 00
        E 60 80 60 00
        E 0 80 61 00
        E 0 80 63 00
        E 60 90 48 60
        E 0 90 4a 60
        E 0 90 54 60
        E 0 90 56 60
        E 0 90 60 60
        E 0 90 61 60
        E 0 90 63 60
        E 60 80 48 00
        E 0 80 4a 00
        E 0 80 54 00
        E 0 80 56 00
        E 0 80 60 00
        E 0 80 61 00
        E 0 80 63 00
        E 180 90 55 60
        E 0 90 61 60
        E 60 80 55 00
        E 0 80 61 00
        E 180 90 3f 60
        E 0 90 49 60
        E 0 90 4b 60
        E 0 90 55 60
        E 0 90 57 60
        E 0 90 61 60
        E 0 90 62 60
        E 0 90 63 60
        E 120 80 3f 00
        E 0 80 49 00
        E 0 80 4b 00
        E 0 80 55 00
        E 0 80 57 00
        E 180 80 61 00
        E 0 80 62 00
        E 0 80 63 00
        E 180 90 49 60
        E 0 90 55 60
        E 0 90 61 60
        E 60 80 49 00
        E 0 80 55 00
        E 0 80 61 00
        E 180 90 55 60
        E 0 90 57 60
        E 0 90 61 60
        E 0 90 62 60
        E 0 90 63 60
        E 600 80 55 00
        E 0 80 57 00
        E 60 80 61 00
        E 0 80 62 00
        E 0 80 63 00
        E 60 90 49 60
        E 0 90 4b 60
        E 0 90 55 60
        E 0 90 57 60
        E 0 90 61 60
        E 0 90 62 60
        E 0 90 63 60
        E 60 80 49 00
        E 0 80 4b 00
        E 0 80 55 00
        E 0 80 57 00
        E 0 80 61 00
        E 0 80 62 00
        E 0 80 63 00
        E 180 90 55 60
        E 0 90 61 60
        E 60 80 55 00
        E 0 80 61 00
        E 180 90 40 60
        E 0 90 4a 60
        E 0 90 4b 60
        E 0 90 55 60
        E 0 90 58 60
        E 0 90 61 60
        E 0 90 62 60
        E 0 90 64 60
        E 120 80 40 00
        E 0 80 4a 00
        E 0 80 4b 00
        E 0 80 55 00
        E 0 80 58 00
        E 180 80 61 00
        E 0 80 62 00
        E 0 80 64 00
        E 180 90 40 60
        E 0 90 4a 60
        E 0 90 4b 60
        E 0 90 55 60
        E 0 90 58 60
        E 0 90 61 60
        E 0 90 62 60
        E 0 90 64 60
        E 60 80 40 00
        E 0 80 4a 00
        E 0 80 4b 00
        E 0 80 55 00
        E 0 80 58 00
        E 0 80 61 00
        E 0 80 62 00
        E 0 80 64 00
        E 180 90 55 60
        E 0 90 61 60
        E 60 80 55 00
        E 0 80 61 00
        E 180 90 40 60
        E 0 90 4a 60
        E 0 90 4b 60
        E 0 90 56 60
        E 0 90 58 60
        E 0 90 61 60
        E 0 90 63 60
        E 0 90 64 60
        E 120 80 40 00
        E 0 80 4a 00
        E 0 80 4b 00
        E 0 80 56 00
        E 0 80 58 00
        E 180 80 61 00
        E 0 80 63 00
        E 0 80 64 00
        E 180 90 4a 60
        E 0 90 4b 60
        E 0 90 56 60
        E 0 90 58 60
        E 0 90 61 60
        E 0 90 63 60
        E 0 90 64 60
        E 60 80 4a 00
        E 0 80 4b 00
        E 0 80 56 00
        E 0 80 58 00
        E 0 80 61 00
        E 0 80 63 00
        E 0 80 64 00
        E 180 90 54 60
        E 0 90 60 60
        E 60 80 54 00
        E 0 80 60 00
        E 180 90 3e 60
        E 0 90 49 60
        E 0 90 4a 60
        E 0 90 54 60
        E 0 90 57 60
        E 0 90 60 60
        E 0 90 62 60
        E 0 90 63 60
        E 120 80 3e 00
        E 0 80 49 00
        E 0 80 4a 00
        E 0 80 54 00
        E 0 80 57 00
        E 180 80 60 00
        E 0 80 62 00
        E 0 80 63 00
        E 180 90 48 60
        E 0 90 54 60
        E 0 90 60 60
        E 60 80 48 00
        E 0 80 54 00
        E 0 80 60 00
        E 180 90 54 60
        E 0 90 57 60
        E 0 90 60 60
        E 0 90 62 60
        E 0 90 63 60
        E 600 80 54 00
        E 0 80 57 00
        E 60 80 60 00
        E 0 80 62 00
        E 0 80 63 00
        E 60 90 49 60
        E 0 90 4a 60
        E 0 90 54 60
        E 0 90 57 60
        E 0 90 60 60
        E 0 90 62 60
        E 0 90 63 60
        E 60 80 49 00
        E 0 80 4a 00
        E 0 80 54 00
        E 0 80 57 00
        E 0 80 60 00
        E 0 80 62 00
        E 0 80 63 00
        E 180 90 54 60
        E 0 90 60 60
        E 60 80 54 00
        E 0 80 60 00
        E 180 90 3c 60
        E 0 90 48 60
        E 0 90 49 60
        E 0 90 54 60
        E 0 90 55 60
        E 0 90 60 60
        E 0 90 61 60
        E 0 90 62 60
        E 120 80 3c 00
        E 0 80 48 00
        E 0 80 49 00
        E 0 80 54 00
        E 0 80 55 00
        E 180 80 60 00
        E 0 80 61 00
        E 0 80 62 00
        E 180 90 48 60
        E 0 90 54 60
        E 0 90 60 60
        E 60 80 48 00
        E 0 80 54 00
        E 0 80 60 00
        E 180 90 54 60
        E 0 90 55 60
        E 0 90 60 60
        E 0 90 61 60
        E 0 90 62 60
        E 600 80 54 00
        E 0 80 55 00
        E 60 80 60 00
        E 0 80 61 00
        E 0 80 62 00
        E 60 90 48 60
        E 0 90 49 60
        E 0 90 54 60
        E 0 90 55 60
        E 0 90 60 60
        E 0 90 61 60
        E 0 90 62 60
        E 60 80 48 00
        E 0 80 49 00
        E 0 80 54 00
        E 0 80 55 00
        E 0 80 60 00
        E 0 80 61 00
        E 0 80 62 00
        E 180 90 55 60
        E 0 90 61 60
        E 60 80 55 00
        E 0 80 61 00
        E 180 90 3f 60
        E 0 90 49 60
        E 0 90 4b 60
        E 0 90 55 60
        E 0 90 57 60
        E 0 90 61 60
        E 0 90 62 60
        E 0 90 63 60
        E 120 80 3f 00
        E 0 80 49 00
        E 0 80 4b 00
        E 0 80 55 00
        E 0 80 57 00
        E 180 80 61 00
        E 0 80 62 00
        E 0 80 63 00
        E 180 90 49 60
        E 0 90 55 60
        E 0 90 61 60
        E 60 80 49 00
        E 0 80 55 00
        E 0 80 61 00
        E 180 90 55 60
        E 0 90 57 60
        E 0 90 61 60
        E 0 90 62 60
        E 0 90 63 60
        E 600 80 55 00
        E 0 80 57 00
        E 60 80 61 00
        E 0 80 62 00
        E 0 80 63 00
        E 60 90 3f 60
        E 0 90 49 60
        E 0 90 4b 60
        E 0 90 55 60
        E 0 90 57 60
        E 0 90 61 60
        E 0 90 62 60
        E 0 90 63 60
        E 60 80 3f 00
        E 0 80 49 00
        E 0 80 4b 00
        E 0 80 55 00
        E 0 80 57 00
        E 0 80 61 00
        E 0 80 62 00
        E 0 80 63 00
        E 180 90 55 60
        E 0 90 61 60
        E 60 80 55 00
        E 0 80 61 00
        E 180 90 3f 60
        E 0 90 49 60
        E 0 90 4b 60
        E 0 90 55 60
        E 0 90 57 60
        E 0 90 61 60
        E 0 90 62 60
        E 0 90 63 60
        E 120 80 3f 00
        E 0 80 49 00
        E 0 80 4b 00
        E 0 80 55 00
        E 0 80 57 00
        E 180 80 61 00
        E 0 80 62 00
        E 0 80 63 00
        E 180 90 49 60
        E 0 90 4b 60
        E 0 90 55 60
        E 0 90 57 60
        E 0 90 61 60
        E 0 90 62 60
        E 0 90 63 60
        E 60 80 49 00
        E 0 80 4b 00
        E 0 80 55 00
        E 0 80 57 00
        E 0 80 61 00
        E 0 80 62 00
        E 0 80 63 00
        E 180 90 54 60
        E 0 90 60 60
        E 60 80 54 00
        E 0 80 60 00
        E 180 90 3d 60
        E 0 90 48 60
        E 0 90 4a 60
        E 0 90 54 60
        E 0 90 56 60
        E 0 90 60 60
        E 0 90 61 60
        E 0 90 63 60
        E 120 80 3d 00
        E 0 80 48 00
        E 0 80 4a 00
        E 0 80 54 00
        E 0 80 56 00
        E 180 80 60 00
        E 0 80 61 00
        E 0 80 63 00
        E 180 90 48 60
        E 0 90 4a 60
        E 0 90 54 60
        E 0 90 56 60
        E 0 90 60 60
        E 0 90 61 60
        E 0 90 63 60
        E 60 80 48 00
        E 0 80 4a 00
        E 0 80 54 00
        E 0 80 56 00
        E 0 80 60 00
        E 0 80 61 00
        E 0 80 63 00
        E 180 90 54 60
        E 0 90 60 60
        E 60 80 54 00
        E 0 80 60 00
        E 180 90 3e 60
        E 0 90 49 60
        E 0 90 4a 60
        E 0 90 54 60
        E 0 90 57 60
        E 0 90 60 60
        E 0 90 62 60
        E 0 90 63 60
        E 120 80 3e 00
        E 0 80 49 00
        E 0 80 4a 00
        E 0 80 54 00
        E 0 80 57 00
        E 180 80 60 00
        E 0 80 62 00
        E 0 80 63 00
        E 180 90 48 60
        E 0 90 54 60
        E 0 90 60 60
        E 60 80 48 00
        E 0 80 54 00
        E 0 80 60 00
        E 180 90 54 60
        E 0 90 57 60
        E 0 90 60 60
        E 0 90 62 60
        E 0 90 63 60
        E 600 80 54 00
        E 0 80 57 00
        E 60 80 60 00
        E 0 80 62 00
        E 0 80 63 00
        E 60 90 49 60
        E 0 90 4a 60
        E 0 90 54 60
        E 0 90 57 60
        E 0 90 60 60
        E 0 90 62 60
        E 0 90 63 60
        E 60 80 49 00
        E 0 80 4a 00
        E 0 80 54 00
        E 0 80 57 00
        E 0 80 60 00
        E 0 80 62 00
        E 0 80 63 00
        E 180 90 54 60
        E 0 90 60 60
        E 60 80 54 00
        E 0 80 60 00
        E 180 90 3c 60
        E 0 90 48 60
        E 0 90 49 60
        E 0 90 54 60
        E 0 90 55 60
        E 0 90 60 60
        E 0 90 61 60
        E 0 90 62 60
        E 120 80 3c 00
        E 0 80 48 00
        E 0 80 49 00
        E 0 80 54 00
        E 0 80 55 00
        E 180 80 60 00
        E 0 80 61 00
        E 0 80 62 00
        E 180 90 48 60
        E 0 90 54 60
        E 0 90 60 60
        E 60 80 48 00
        E 0 80 54 00
        E 0 80 60 00
        E 180 90 54 60
        E 0 90 55 60
        E 0 90 60 60
        E 0 90 61 60
        E 0 90 62 60
        E 600 80 54 00
        E 0 80 55 00
        E 60 80 60 00
        E 0 80 61 00
        E 0 80 62 00
        E 60 90 48 60
        E 0 90 49 60
        E 0 90 54 60
        E 0 90 55 60
        E 0 90 60 60
        E 0 90 61 60
        E 0 90 62 60
        E 60 80 48 00
        E 0 80 49 00
        E 0 80 54 00
        E 0 80 55 00
        E 0 80 60 00
        E 0 80 61 00
        E 0 80 62 00
        E 180 90 55 60
        E 0 90 61 60
        E 60 80 55 00
        E 0 80 61 00
        E 121 90 74 12
        E 59 90 3f 60
        E 0 90 49 60
        E 0 90 4b 60
        E 0 90 55 60
        E 0 90 57 60
        E 0 90 61 60
        E 0 90 62 60
        E 0 90 63 60
        E 120 80 3f 00
        E 0 80 49 00
        E 0 80 4b 00
        E 0 80 55 00
        E 0 80 57 00
        E 180 80 61 00
        E 0 80 62 00
        E 0 80 63 00
        E 180 90 49 60
        E 0 90 55 60
        E 0 90 61 60
        E 60 80 49 00
        E 0 80 55 00
        E 0 80 61 00
        E 180 90 55 60
        E 0 90 57 60
        E 0 90 61 60
        E 0 90 62 60
        E 0 90 63 60
        E 600 80 55 00
        E 0 80 57 00
        E 60 80 61 00
        E 0 80 62 00
        E 0 80 63 00
        E 60 90 3f 60
        E 0 90 49 60
        E 0 90 4b 60
        E 0 90 55 60
        E 0 90 57 60
        E 0 90 61 60
        E 0 90 62 60
        E 0 90 63 60
        E 60 80 3f 00
        E 0 80 49 00
        E 0 80 4b 00
        E 0 80 55 00
        E 0 80 57 00
        E 0 80 61 00
        E 0 80 62 00
        E 0 80 63 00
        E 180 90 55 60
        E 0 90 61 60
        E 60 80 55 00
        E 0 80 61 00
        E 180 90 3f 60
        E 0 90 49 60
        E 0 90 4b 60
        E 0 90 55 60
        E 0 90 57 60
        E 0 90 61 60
        E 0 90 62 60
        E 0 90 63 60
        E 120 80 3f 00
        E 0 80 49 00
        E 0 80 4b 00
        E 0 80 55 00
        E 0 80 57 00
        E 180 80 61 00
        E 0 80 62 00
        E 0 80 63 00
        E 180 90 49 60
        E 0 90 4b 60
        E 0 90 55 60
        E 0 90 57 60
        E 0 90 61 60
        E 0 90 62 60
        E 0 90 63 60
        E 60 80 49 00
        E 0 80 4b 00
        E 0 80 55 00
        E 0 80 57 00
        E 0 80 61 00
        E 0 80 62 00
        E 0 80 63 00
        E 180 90 54 60
        E 0 90 60 60
        E 60 80 54 00
        E 0 80 60 00
        E 180 90 3d 60
        E 0 90 48 60
        E 0 90 4a 60
        E 0 90 54 60
        E 0 90 56 60
        E 0 90 60 60
        E 0 90 61 60
        E 0 90 63 60
        E 120 80 3d 00
        E 0 80 48 00
        E 0 80 4a 00
        E 0 80 54 00
        E 0 80 56 00
        E 180 80 60 00
        E 0 80 61 00
        E 0 80 63 00
        E 180 90 48 60
        E 0 90 4a 60
        E 0 90 54 60
        E 0 90 56 60
        E 0 90 60 60
        E 0 90 61 60
        E 0 90 63 60
        E 60 80 48 00
        E 0 80 4a 00
        E 0 80 54 00
        E 0 80 56 00
        E 0 80 60 00
        E 0 80 61 00
        E 0 80 63 00
        E 180 90 54 60
        E 0 90 60 60
        E 1 80 74 00
        E 59 80 54 00
        E 0 80 60 00
        E 180 90 3e 60
        E 0 90 49 60
        E 0 90 4a 60
        E 0 90 54 60
        E 0 90 57 60
        E 0 90 60 60
        E 0 90 62 60
        E 0 90 63 60
        E 120 80 3e 00
        E 0 80 49 00
        E 0 80 4a 00
        E 0 80 54 00
        E 0 80 57 00
        E 180 80 60 00
        E 0 80 62 00
        E 0 80 63 00
        E 180 90 48 60
        E 0 90 54 60
        E 0 90 60 60
        E 60 80 48 00
        E 0 80 54 00
        E 0 80 60 00
        E 180 90 54 60
        E 0 90 57 60
        E 0 90 60 60
        E 0 90 62 60
        E 0 90 63 60
        E 600 80 54 00
        E 0 80 57 00
        E 60 80 60 00
        E 0 80 62 00
        E 0 80 63 00
        E 60 90 49 60
        E 0 90 4a 60
        E 0 90 54 60
        E 0 90 57 60
        E 0 90 60 60
        E 0 90 62 60
        E 0 90 63 60
        E 60 80 49 00
        E 0 80 4a 00
        E 0 80 54 00
        E 0 80 57 00
        E 0 80 60 00
        E 0 80 62 00
        E 0 80 63 00
        E 180 90 54 60
        E 0 90 60 60
        E 60 80 54 00
        E 0 80 60 00
        E 180 90 3c 60
        E 0 90 48 60
        E 0 90 49 60
        E 0 90 54 60
        E 0 90 55 60
        E 0 90 60 60
        E 0 90 61 60
        E 0 90 62 60
        E 120 80 3c 00
        E 0 80 48 00
        E 0 80 49 00
        E 0 80 54 00
        E 0 80 55 00
        E 180 80 60 00
        E 0 80 61 00
        E 0 80 62 00
        E 180 90 48 60
        E 0 90 54 60
        E 0 90 60 60
        E 60 80 48 00
        E 0 80 54 00
        E 0 80 60 00
        E 180 90 54 60
        E 0 90 55 60
        E 0 90 60 60
        E 0 90 61 60
        E 0 90 62 60
        E 600 80 54 00
        E 0 80 55 00
        E 60 80 60 00
        E 0 80 61 00
        E 0 80 62 00
        E 60 90 48 60
        E 0 90 49 60
        E 0 90 54 60
        E 0 90 55 60
        E 0 90 60 60
        E 0 90 61 60
        E 0 90 62 60
        E 60 80 48 00
        E 0 80 49 00
        E 0 80 54 00
        E 0 80 55 00
        E 0 80 60 00
        E 0 80 61 00
        E 0 80 62 00
        E 180 90 55 60
        E 0 90 61 60
        E 60 80 55 00
        E 0 80 61 00
        E 180 90 3f 60
        E 0 90 49 60
        E 0 90 4b 60
        E 0 90 55 60
        E 0 90 57 60
        E 0 90 61 60
        E 0 90 62 60
        E 0 90 63 60
        E 120 80 3f 00
        E 0 80 49 00
        E 0 80 4b 00
        E 0 80 55 00
        E 0 80 57 00
        E 180 80 61 00
        E 0 80 62 00
        E 0 80 63 00
        E 180 90 49 60
        E 0 90 55 60
        E 0 90 61 60
        E 60 80 49 00
        E 0 80 55 00
        E 0 80 61 00
        E 180 90 55 60
        E 0 90 57 60
        E 0 90 61 60
        E 0 90 62 60
        E 0 90 63 60
        E 600 80 55 00
        E 0 80 57 00
        E 60 80 61 00
        E 0 80 62 00
        E 0 80 63 00
        E 60 90 3f 60
        E 0 90 49 60
        E 0 90 4b 60
        E 0 90 55 60
        E 0 90 57 60
        E 0 90 61 60
        E 0 90 62 60
        E 0 90 63 60
        E 60 80 3f 00
        E 0 80 49 00
        E 0 80 4b 00
        E 0 80 55 00
        E 0 80 57 00
        E 0 80 61 00
        E 0 80 62 00
        E 0 80 63 00
        E 180 90 55 60
        E 0 90 61 60
        E 60 80 55 00
        E 0 80 61 00
        E 180 90 3f 60
        E 0 90 49 60
        E 0 90 4b 60
        E 0 90 55 60
        E 0 90 57 60
        E 0 90 61 60
        E 0 90 62 60
        E 0 90 63 60
        E 120 80 3f 00
        E 0 80 49 00
        E 0 80 4b 00
        E 0 80 55 00
        E 0 80 57 00
        E 180 80 61 00
        E 0 80 62 00
        E 0 80 63 00
        E 180 90 49 60
        E 0 90 4b 60
        E 0 90 55 60
        E 0 90 57 60
        E 0 90 61 60
        E 0 90 62 60
        E 0 90 63 60
        E 60 80 49 00
        E 0 80 4b 00
        E 0 80 55 00
        E 0 80 57 00
        E 0 80 61 00
        E 0 80 62 00
        E 0 80 63 00
        E 180 90 54 60
        E 0 90 60 60
        E 60 80 54 00
        E 0 80 60 00
        E 180 90 3d 60
        E 0 90 48 60
        E 0 90 4a 60
        E 0 90 54 60
        E 0 90 56 60
        E 0 90 60 60
        E 0 90 61 60
        E 0 90 63 60
        E 120 80 3d 00
        E 0 80 48 00
        E 0 80 4a 00
        E 0 80 54 00
        E 0 80 56 00
        E 180 80 60 00
        E 0 80 61 00
        E 0 80 63 00
        E 180 90 48 60
        E 0 90 4a 60
        E 0 90 54 60
        E 0 90 56 60
        E 0 90 60 60
        E 0 90 61 60
        E 0 90 63 60
        E 60 80 48 00
        E 0 80 4a 00
        E 0 80 54 00
        E 0 80 56 00
        E 0 80 60 00
        E 0 80 61 00
        E 0 80 63 00
        E 180 90 54 60
        E 0 90 60 60
        E 60 80 54 00
        E 0 80 60 00
        E 180 90 3e 60
        E 0 90 49 60
        E 0 90 4a 60
        E 0 90 54 60
        E 0 90 57 60
        E 0 90 60 60
        E 0 90 62 60
        E 0 90 63 60
        E 120 80 3e 00
        E 0 80 49 00
        E 0 80 4a 00
        E 0 80 54 00
        E 0 80 57 00
        E 180 80 60 00
        E 0 80 62 00
        E 0 80 63 00
        E 180 90 48 60
        E 0 90 54 60
        E 0 90 60 60
        E 60 80 48 00
        E 0 80 54 00
        E 0 80 60 00
        E 180 90 54 60
        E 0 90 57 60
        E 0 90 60 60
        E 0 90 62 60
        E 0 90 63 60
        E 600 80 54 00
        E 0 80 57 00
        E 60 80 60 00
        E 0 80 62 00
        E 0 80 63 00
        E 60 90 49 60
        E 0 90 4a 60
        E 0 90 54 60
        E 0 90 57 60
        E 0 90 60 60
        E 0 90 62 60
        E 0 90 63 60
        E 60 80 49 00
        E 0 80 4a 00
        E 0 80 54 00
        E 0 80 57 00
        E 0 80 60 00
        E 0 80 62 00
        E 0 80 63 00
        E 180 90 54 60
        E 0 90 60 60
        E 60 80 54 00
        E 0 80 60 00
        E 180 90 3c 60
        E 0 90 48 60
        E 0 90 49 60
        E 0 90 54 60
        E 0 90 55 60
        E 0 90 60 60
        E 0 90 61 60
        E 0 90 62 60
        E 120 80 3c 00
        E 0 80 48 00
        E 0 80 49 00
        E 0 80 54 00
        E 0 80 55 00
        E 180 80 60 00
        E 0 80 61 00
        E 0 80 62 00
        E 180 90 48 60
        E 0 90 54 60
        E 0 90 60 60
        E 60 80 48 00
        E 0 80 54 00
        E 0 80 60 00
        E 180 90 54 60
        E 0 90 55 60
        E 0 90 60 60
        E 0 90 61 60
        E 0 90 62 60
        E 600 80 54 00
        E 0 80 55 00
        E 60 80 60 00
        E 0 80 61 00
        E 0 80 62 00
        E 60 90 48 60
        E 0 90 49 60
        E 0 90 54 60
        E 0 90 55 60
        E 0 90 60 60
        E 0 90 61 60
        E 0 90 62 60
        E 60 80 48 00
        E 0 80 49 00
        E 0 80 54 00
        E 0 80 55 00
        E 0 80 60 00
        E 0 80 61 00
        E 0 80 62 00
        E 180 90 55 60
        E 0 90 61 60
        E 60 80 55 00
        E 0 80 61 00
        E 180 90 3f 60
        E 0 90 49 60
        E 0 90 4b 60
        E 0 90 55 60
        E 0 90 57 60
        E 0 90 61 60
        E 0 90 62 60
        E 0 90 63 60
        E 120 80 3f 00
        E 0 80 49 00
        E 0 80 4b 00
        E 0 80 55 00
        E 0 80 57 00
        E 180 80 61 00
        E 0 80 62 00
        E 0 80 63 00
        E 180 90 49 60
        E 0 90 55 60
        E 0 90 61 60
        E 60 80 49 00
        E 0 80 55 00
        E 0 80 61 00
        E 180 90 55 60
        E 0 90 57 60
        E 0 90 61 60
        E 0 90 62 60
        E 0 90 63 60
        E 600 80 55 00
        E 0 80 57 00
        E 60 80 61 00
        E 0 80 62 00
        E 0 80 63 00
        E 60 90 3f 60
        E 0 90 49 60
        E 0 90 4b 60
        E 0 90 55 60
        E 0 90 57 60
        E 0 90 61 60
        E 0 90 62 60
        E 0 90 63 60
        E 60 80 3f 00
        E 0 80 49 00
        E 0 80 4b 00
        E 0 80 55 00
        E 0 80 57 00
        E 0 80 61 00
        E 0 80 62 00
        E 0 80 63 00
        E 180 90 55 60
        E 0 90 61 60
        E 60 80 55 00
        E 0 80 61 00
        E 180 90 3f 60
        E 0 90 49 60
        E 0 90 4b 60
        E 0 90 55 60
        E 0 90 57 60
        E 0 90 61 60
        E 0 90 62 60
        E 0 90 63 60
        E 120 80 3f 00
        E 0 80 49 00
        E 0 80 4b 00
        E 0 80 55 00
        E 0 80 57 00
        E 180 80 61 00
        E 0 80 62 00
        E 0 80 63 00
        E 180 90 49 60
        E 0 90 4b 60
        E 0 90 55 60
        E 0 90 57 60
        E 0 90 61 60
        E 0 90 62 60
        E 0 90 63 60
        E 60 80 49 00
        E 0 80 4b 00
        E 0 80 55 00
        E 0 80 57 00
        E 0 80 61 00
        E 0 80 62 00
        E 0 80 63 00
        E 180 90 54 60
        E 0 90 60 60
        E 60 80 54 00
        E 0 80 60 00
        E 180 90 3d 60
        E 0 90 48 60
        E 0 90 4a 60
        E 0 90 54 60
        E 0 90 56 60
        E 0 90 60 60
        E 0 90 61 60
        E 0 90 63 60
        E 120 80 3d 00
        E 0 80 48 00
        E 0 80 4a 00
        E 0 80 54 00
        E 0 80 56 00
        E 180 80 60 00
        E 0 80 61 00
        E 0 80 63 00
        E 180 90 48 60
        E 0 90 4a 60
        E 0 90 54 60
        E 0 90 56 60
        E 0 90 60 60
        E 0 90 61 60
        E 0 90 63 60
        E 60 80 48 00
        E 0 80 4a 00
        E 0 80 54 00
        E 0 80 56 00
        E 0 80 60 00
        E 0 80 61 00
        E 0 80 63 00
        E 180 90 54 60
        E 0 90 60 60
        E 60 80 54 00
        E 0 80 60 00
        E 180 90 3e 60
        E 0 90 49 60
        E 0 90 4a 60
        E 0 90 54 60
        E 0 90 57 60
        E 0 90 60 60
        E 0 90 62 60
        E 0 90 63 60
        E 120 80 3e 00
        E 0 80 49 00
        E 0 80 4a 00
        E 0 80 54 00
        E 0 80 57 00
        E 180 80 60 00
        E 0 80 62 00
        E 0 80 63 00
        E 180 90 48 60
        E 0 90 54 60
        E 0 90 60 60
        E 60 80 48 00
        E 0 80 54 00
        E 0 80 60 00
        E 180 90 54 60
        E 0 90 57 60
        E 0 90 60 60
        E 0 90 62 60
        E 0 90 63 60
        E 600 80 54 00
        E 0 80 57 00
        E 60 80 60 00
        E 0 80 62 00
        E 0 80 63 00
        E 60 90 49 60
        E 0 90 4a 60
        E 0 90 54 60
        E 0 90 57 60
        E 0 90 60 60
        E 0 90 62 60
        E 0 90 63 60
        E 60 80 49 00
        E 0 80 4a 00
        E 0 80 54 00
        E 0 80 57 00
        E 0 80 60 00
        E 0 80 62 00
        E 0 80 63 00
        E 180 90 54 60
        E 0 90 60 60
        E 60 80 54 00
        E 0 80 60 00
        E 180 90 3c 60
        E 0 90 48 60
        E 0 90 49 60
        E 0 90 54 60
        E 0 90 55 60
        E 0 90 60 60
        E 0 90 61 60
        E 0 90 62 60
        E 120 80 3c 00
        E 0 80 48 00
        E 0 80 49 00
        E 0 80 54 00
        E 0 80 55 00
        E 180 80 60 00
        E 0 80 61 00
        E 0 80 62 00
        E 180 90 48 60
        E 0 90 54 60
        E 0 90 60 60
        E 60 80 48 00
        E 0 80 54 00
        E 0 80 60 00
        E 180 90 54 60
        E 0 90 55 60
        E 0 90 60 60
        E 0 90 61 60
        E 0 90 62 60
        E 600 80 54 00
        E 0 80 55 00
        E 60 80 60 00
        E 0 80 61 00
        E 0 80 62 00
        E 60 90 48 60
        E 0 90 49 60
        E 0 90 54 60
        E 0 90 55 60
        E 0 90 60 60
        E 0 90 61 60
        E 0 90 62 60
        E 60 80 48 00
        E 0 80 49 00
        E 0 80 54 00
        E 0 80 55 00
        E 0 80 60 00
        E 0 80 61 00
        E 0 80 62 00
        E 180 90 55 60
        E 0 90 61 60
        E 60 80 55 00
        E 0 80 61 00
        E 180 90 3f 60
        E 0 90 49 60
        E 0 90 4b 60
        E 0 90 55 60
        E 0 90 57 60
        E 0 90 61 60
        E 0 90 62 60
        E 0 90 63 60
        E 120 80 3f 00
        E 0 80 49 00
        E 0 80 4b 00
        E 0 80 55 00
        E 0 80 57 00
        E 180 80 61 00
        E 0 80 62 00
        E 0 80 63 00
        E 180 90 49 60
        E 0 90 55 60
        E 0 90 61 60
        E 60 80 49 00
        E 0 80 55 00
        E 0 80 61 00
        E 180 90 55 60
        E 0 90 57 60
        E 0 90 61 60
        E 0 90 62 60
        E 0 90 63 60
        E 600 80 55 00
        E 0 80 57 00
        E 60 80 61 00
        E 0 80 62 00
        E 0 80 63 00
        E 60 90 3f 60
        E 0 90 49 60
        E 0 90 4b 60
        E 0 90 55 60
        E 0 90 57 60
        E 0 90 61 60
        E 0 90 62 60
        E 0 90 63 60
        E 60 80 3f 00
        E 0 80 49 00
        E 0 80 4b 00
        E 0 80 55 00
        E 0 80 57 00
        E 0 80 61 00
        E 0 80 62 00
        E 0 80 63 00
        E 180 90 55 60
        E 0 90 61 60
        E 60 80 55 00
        E 0 80 61 00
        E 180 90 3f 60
        E 0 90 49 60
        E 0 90 4b 60
        E 0 90 55 60
        E 0 90 57 60
        E 0 90 61 60
        E 0 90 62 60
        E 0 90 63 60
        E 0 90 74 60
        E 120 80 3f 00
        E 0 80 49 00
        E 0 80 4b 00
        E 0 80 55 00
        E 0 80 57 00
        E 180 80 61 00
        E 0 80 62 00
        E 0 80 63 00
        E 180 90 49 60
        E 0 90 4b 60
        E 0 90 55 60
        E 0 90 57 60
        E 0 90 61 60
        E 0 90 62 60
        E 0 90 63 60
        E 60 80 49 00
        E 0 80 4b 00
        E 0 80 55 00
        E 0 80 57 00
        E 0 80 61 00
        E 0 80 62 00
        E 0 80 63 00
        E 180 90 54 60
        E 0 90 60 60
        E 60 80 54 00
        E 0 80 60 00
        E 180 90 3d 60
        E 0 90 48 60
        E 0 90 4a 60
        E 0 90 54 60
        E 0 90 56 60
        E 0 90 60 60
        E 0 90 61 60
        E 0 90 63 60
        E 120 80 3d 00
        E 0 80 48 00
        E 0 80 4a 00
        E 0 80 54 00
        E 0 80 56 00
        E 180 80 60 00
        E 0 80 61 00
        E 0 80 63 00
        E 180 90 48 60
        E 0 90 4a 60
        E 0 90 54 60
        E 0 90 56 60
        E 0 90 60 60
        E 0 90 61 60
        E 0 90 63 60
        E 60 80 48 00
        E 0 80 4a 00
        E 0 80 54 00
        E 0 80 56 00
        E 0 80 60 00
        E 0 80 61 00
        E 0 80 63 00
        E 180 90 54 60
        E 0 90 60 60
        E 60 80 54 00
        E 0 80 60 00
        E 180 90 3e 60
        E 0 90 49 60
        E 0 90 4a 60
        E 0 90 54 60
        E 0 90 57 60
        E 0 90 60 60
        E 0 90 62 60
        E 0 90 63 60
        E 60 80 3e 00
        E 0 80 49 00
        E 0 80 4a 00
        E 0 80 54 00
        E 0 80 57 00
        E 0 80 60 00
        E 0 80 62 00
        E 0 80 63 00
        E 180 90 49 60
        E 0 90 4a 60
        E 0 90 54 60
        E 0 90 57 60
        E 0 90 60 60
        E 0 90 62 60
        E 0 90 63 60
        E 60 80 49 00
        E 0 80 4a 00
        E 0 80 54 00
        E 0 80 57 00
        E 0 80 60 00
        E 0 80 62 00
        E 0 80 63 00
        E 180 80 74 00
        E 1440 90 40 60
        E 0 90 4a 60
        E 0 90 4b 60
        E 0 90 55 60
        E 0 90 58 60
        E 0 90 61 60
        E 0 90 62 60
        E 0 90 64 60
        E 60 80 40 00
        E 0 80 4a 00
        E 0 80 4b 00
        E 0 80 55 00
        E 0 80 58 00
        E 0 80 61 00
        E 0 80 62 00
        E 0 80 64 00
        E 180 90 4a 60
        E 0 90 4b 60
        E 0 90 55 60
        E 0 90 58 60
        E 0 90 61 60
        E 0 90 62 60
        E 0 90 64 60
        E 60 80 4a 00
        E 0 80 4b 00
        E 0 80 55 00
        E 0 80 58 00
        E 0 80 61 00
        E 0 80 62 00
        E 0 80 64 00
        E 1620 90 3e 60
        E 0 90 49 60
        E 0 90 4a 60
        E 0 90 54 60
        E 0 90 57 60
        E 0 90 60 60
        E 0 90 62 60
        E 0 90 63 60
        E 60 80 3e 00
        E 0 80 49 00
        E 0 80 4a 00
        E 0 80 54 00
        E 0 80 57 00
        E 0 80 60 00
        E 0 80 62 00
        E 0 80 63 00
        E 180 90 49 60
        E 0 90 4a 60
        E 0 90 54 60
        E 0 90 57 60
        E 0 90 60 60
        E 0 90 62 60
        E 0 90 63 60
        E 60 80 49 00
        E 0 80 4a 00
        E 0 80 54 00
        E 0 80 57 00
        E 0 80 60 00
        E 0 80 62 00
        E 0 80 63 00
        E 1620 90 40 60
        E 0 90 4a 60
        E 0 90 4b 60
        E 0 90 55 60
        E 0 90 58 60
        E 0 90 61 60
        E 0 90 62 60
        E 0 90 64 60
        E 60 80 40 00
        E 0 80 4a 00
        E 0 80 4b 00
        E 0 80 55 00
        E 0 80 58 00
        E 0 80 61 00
        E 0 80 62 00
        E 0 80 64 00
        E 180 90 4a 60
        E 0 90 4b 60
        E 0 90 55 60
        E 0 90 58 60
        E 0 90 61 60
        E 0 90 62 60
        E 0 90 64 60
        E 60 80 4a 00
        E 0 80 4b 00
        E 0 80 55 00
        E 0 80 58 00
        E 0 80 61 00
        E 0 80 62 00
        E 0 80 64 00
        E 1620 90 40 60
        E 0 90 4a 60
        E 0 90 4b 60
        E 0 90 56 60
        E 0 90 58 60
        E 0 90 61 60
        E 0 90 63 60
        E 0 90 64 60
        E 0 90 74 60
        E 60 80 40 00
        E 0 80 4a 00
        E 0 80 4b 00
        E 0 80 56 00
        E 0 80 58 00
        E 0 80 61 00
        E 0 80 63 00
        E 0 80 64 00
        E 180 90 4a 60
        E 0 90 4b 60
        E 0 90 56 60
        E 0 90 58 60
        E 0 90 61 60
        E 0 90 63 60
        E 0 90 64 60
        E 60 80 4a 00
        E 0 80 4b 00
        E 0 80 56 00
        E 0 80 58 00
        E 0 80 61 00
        E 0 80 63 00
        E 0 80 64 00
        E 60 80 74 00
        E 1560 90 3d 60
        E 0 90 48 60
        E 0 90 4a 60
        E 0 90 54 60
        E 0 90 56 60
        E 0 90 60 60
        E 0 90 61 60
        E 0 90 63 60
        E 60 80 3d 00
        E 0 80 48 00
        E 0 80 4a 00
        E 0 80 54 00
        E 0 80 56 00
        E 0 80 60 00
        E 0 80 61 00
        E 0 80 63 00
        E 180 90 48 60
        E 0 90 4a 60
        E 0 90 54 60
        E 0 90 56 60
        E 0 90 60 60
        E 0 90 61 60
        E 0 90 63 60
        E 60 80 48 00
        E 0 80 4a 00
        E 0 80 54 00
        E 0 80 56 00
        E 0 80 60 00
        E 0 80 61 00
        E 0 80 63 00
        E 1620 90 3f 60
        E 0 90 49 60
        E 0 90 4b 60
        E 0 90 55 60
        E 0 90 57 60
        E 0 90 61 60
        E 0 90 62 60
        E 0 90 63 60
        E 120 80 3f 00
        E 0 80 49 00
        E 0 80 4b 00
        E 0 80 55 00
        E 0 80 57 00
        E 180 80 61 00
        E 0 80 62 00
        E 0 80 63 00
        E 180 90 49 60
        E 0 90 55 60
        E 0 90 61 60
        E 60 80 49 00
        E 0 80 55 00
        E 0 80 61 00
        E 180 90 55 60
        E 0 90 57 60
        E 0 90 61 60
        E 0 90 62 60
        E 0 90 63 60
        E 600 80 55 00
        E 0 80 57 00
        E 60 80 61 00
        E 0 80 62 00
        E 0 80 63 00
        E 60 90 49 60
        E 0 90 4b 60
        E 0 90 55 60
        E 0 90 57 60
        E 0 90 61 60
        E 0 90 62 60
        E 0 90 63 60
        E 60 80 49 00
        E 0 80 4b 00
        E 0 80 55 00
        E 0 80 57 00
        E 0 80 61 00
        E 0 80 62 00
        E 0 80 63 00
        E 180 90 55 60
        E 0 90 61 60
        E 60 80 55 00
        E 0 80 61 00
        E 180 90 40 60
        E 0 90 4a 60
        E 0 90 4b 60
        E 0 90 55 60
        E 0 90 58 60
        E 0 90 61 60
        E 0 90 62 60
        E 0 90 64 60
        E 120 80 40 00
        E 0 80 4a 00
        E 0 80 4b 00
        E 0 80 55 00
        E 0 80 58 00
        E 180 80 61 00
        E 0 80 62 00
        E 0 80 64 00
        E 180 90 40 60
        E 0 90 4a 60
        E 0 90 4b 60
        E 0 90 55 60
        E 0 90 58 60
        E 0 90 61 60
        E 0 90 62 60
        E 0 90 64 60
        E 60 80 40 00
        E 0 80 4a 00
        E 0 80 4b 00
        E 0 80 55 00
        E 0 80 58 00
        E 0 80 61 00
        E 0 80 62 00
        E 0 80 64 00
        E 180 90 55 60
        E 0 90 61 60
        E 60 80 55 00
        E 0 80 61 00
        E 180 90 40 60
        E 0 90 4a 60
        E 0 90 4b 60
        E 0 90 56 60
        E 0 90 58 60
        E 0 90 61 60
        E 0 90 63 60
        E 0 90 64 60
        E 120 80 40 00
        E 0 80 4a 00
        E 0 80 4b 00
        E 0 80 56 00
        E 0 80 58 00
        E 180 80 61 00
        E 0 80 63 00
        E 0 80 64 00
        E 180 90 4a 60
        E 0 90 4b 60
        E 0 90 56 60
        E 0 90 58 60
        E 0 90 61 60
        E 0 90 63 60
        E 0 90 64 60
        E 60 80 4a 00
        E 0 80 4b 00
        E 0 80 56 00
        E 0 80 58 00
        E 0 80 61 00
        E 0 80 63 00
        E 0 80 64 00
        E 180 90 54 60
        E 0 90 60 60
        E 60 80 54 00
        E 0 80 60 00
        E 180 90 3e 60
        E 0 90 49 60
        E 0 90 4a 60
        E 0 90 54 60
        E 0 90 57 60
        E 0 90 60 60
        E 0 90 62 60
        E 0 90 63 60
        E 120 80 3e 00
        E 0 80 49 00
        E 0 80 4a 00
        E 0 80 54 00
        E 0 80 57 00
        E 180 80 60 00
        E 0 80 62 00
        E 0 80 63 00
        E 180 90 48 60
        E 0 90 54 60
        E 0 90 60 60
        E 60 80 48 00
        E 0 80 54 00
        E 0 80 60 00
        E 180 90 54 60
        E 0 90 57 60
        E 0 90 60 60
        E 0 90 62 60
        E 0 90 63 60
        E 600 80 54 00
        E 0 80 57 00
        E 60 80 60 00
        E 0 80 62 00
        E 0 80 63 00
        E 60 90 49 60
        E 0 90 4a 60
        E 0 90 54 60
        E 0 90 57 60
        E 0 90 60 60
        E 0 90 62 60
        E 0 90 63 60
        E 60 80 49 00
        E 0 80 4a 00
        E 0 80 54 00
        E 0 80 57 00
        E 0 80 60 00
        E 0 80 62 00
        E 0 80 63 00
        E 180 90 55 60
        E 0 90 61 60
        E 60 80 55 00
        E 0 80 61 00
        E 180 90 40 60
        E 0 90 4a 60
        E 0 90 4b 60
        E 0 90 55 60
        E 0 90 58 60
        E 0 90 61 60
        E 0 90 62 60
        E 0 90 64 60
        E 120 80 40 00
        E 0 80 4a 00
        E 0 80 4b 00
        E 0 80 55 00
        E 0 80 58 00
        E 180 80 61 00
        E 0 80 62 00
        E 0 80 64 00
        E 180 90 49 60
        E 0 90 55 60
        E 0 90 61 60
        E 60 80 49 00
        E 0 80 55 00
        E 0 80 61 00
        E 180 90 55 60
        E 0 90 58 60
        E 0 90 61 60
        E 0 90 62 60
        E 0 90 64 60
        E 600 80 55 00
        E 0 80 58 00
        E 60 80 61 00
        E 0 80 62 00
        E 0 80 64 00
        E 60 90 4a 60
        E 0 90 4b 60
        E 0 90 55 60
        E 0 90 58 60
        E 0 90 61 60
        E 0 90 62 60
        E 0 90 64 60
        E 60 80 4a 00
        E 0 80 4b 00
        E 0 80 55 00
        E 0 80 58 00
        E 0 80 61 00
        E 0 80 62 00
        E 0 80 64 00
        E 180 90 54 60
        E 0 90 60 60
        E 60 80 54 00
        E 0 80 60 00
        E 180 90 3e 60
        E 0 90 49 60
        E 0 90 4a 60
        E 0 90 54 60
        E 0 90 57 60
        E 0 90 60 60
        E 0 90 62 60
        E 0 90 63 60
        E 120 80 3e 00
        E 0 80 49 00
        E 0 80 4a 00
        E 0 80 54 00
        E 0 80 57 00
        E 180 80 60 00
        E 0 80 62 00
        E 0 80 63 00
        E 180 90 48 60
        E 0 90 54 60
        E 0 90 60 60
        E 60 80 48 00
        E 0 80 54 00
        E 0 80 60 00
        E 180 90 54 60
        E 0 90 57 60
        E 0 90 60 60
        E 0 90 62 60
        E 0 90 63 60
        E 600 80 54 00
        E 0 80 57 00
        E 60 80 60 00
        E 0 80 62 00
        E 0 80 63 00
        E 60 90 49 60
        E 0 90 4a 60
        E 0 90 54 60
        E 0 90 57 60
        E 0 90 60 60
        E 0 90 62 60
        E 0 90 63 60
        E 60 80 49 00
        E 0 80 4a 00
        E 0 80 54 00
        E 0 80 57 00
        E 0 80 60 00
        E 0 80 62 00
        E 0 80 63 00
        E 180 90 55 60
        E 0 90 61 60
        E 60 80 55 00
        E 0 80 61 00
        E 180 90 40 60
        E 0 90 4a 60
        E 0 90 4b 60
        E 0 90 55 60
        E 0 90 58 60
        E 0 90 61 60
        E 0 90 62 60
        E 0 90 64 60
        E 120 80 40 00
        E 0 80 4a 00
        E 0 80 4b 00
        E 0 80 55 00
        E 0 80 58 00
        E 180 80 61 00
        E 0 80 62 00
        E 0 80 64 00
        E 180 90 49 60
        E 0 90 55 60
        E 0 90 61 60
        E 60 80 49 00
        E 0 80 55 00
        E 0 80 61 00
        E 180 90 55 60
        E 0 90 58 60
        E 0 90 61 60
        E 0 90 62 60
        E 0 90 64 60
        E 600 80 55 00
        E 0 80 58 00
        E 60 80 61 00
        E 0 80 62 00
        E 0 80 64 00
        E 60 90 40 60
        E 0 90 4a 60
        E 0 90 4b 60
        E 0 90 56 60
        E 0 90 58 60
        E 0 90 61 60
        E 0 90 63 60
        E 0 90 64 60
        E 60 80 40 00
        E 0 80 4a 00
        E 0 80 4b 00
        E 0 80 56 00
        E 0 80 58 00
        E 0 80 61 00
        E 0 80 63 00
        E 0 80 64 00
        E 180 90 55 60
        E 0 90 61 60
        E 60 80 55 00
        E 0 80 61 00
        E 180 90 40 60
        E 0 90 4a 60
        E 0 90 4b 60
        E 0 90 56 60
        E 0 90 58 60
        E 0 90 61 60
        E 0 90 63 60
        E 0 90 64 60
        E 120 80 40 00
        E 0 80 4a 00
        E 0 80 4b 00
        E 0 80 56 00
        E 0 80 58 00
        E 180 80 61 00
        E 0 80 63 00
        E 0 80 64 00
        E 180 90 49 60
        E 0 90 55 60
        E 0 90 61 60
        E 60 80 49 00
        E 0 80 55 00
        E 0 80 61 00
        E 180 90 56 60
        E 0 90 58 60
        E 0 90 61 60
        E 0 90 63 60
        E 0 90 64 60
        E 600 80 56 00
        E 0 80 58 00
        E 60 80 61 00
        E 0 80 63 00
        E 0 80 64 00
        E 60 90 4a 60
        E 0 90 4b 60
        E 0 90 56 60
        E 0 90 58 60
        E 0 90 61 60
        E 0 90 63 60
        E 0 90 64 60
        E 60 80 4a 00
        E 0 80 4b 00
        E 0 80 56 00
        E 0 80 58 00
        E 0 80 61 00
        E 0 80 63 00
        E 0 80 64 00
        E 180 90 54 60
        E 0 90 60 60
        E 60 80 54 00
        E 0 80 60 00
        E 180 90 3d 60
        E 0 90 48 60
        E 0 90 4a 60
        E 0 90 54 60
        E 0 90 56 60
        E 0 90 60 60
        E 0 90 61 60
        E 0 90 63 60
        E 120 80 3d 00
        E 0 80 48 00
        E 0 80 4a 00
        E 0 80 54 00
        E 0 80 56 00
        E 180 80 60 00
        E 0 80 61 00
        E 0 80 63 00
        E 180 90 48 60
        E 0 90 54 60
        E 0 90 60 60
        E 60 80 48 00
        E 0 80 54 00
        E 0 80 60 00
        E 180 90 54 60
        E 0 90 56 60
        E 0 90 60 60
        E 0 90 61 60
        E 0 90 63 60
        E 600 80 54 00
        E 0 80 56 00
        E 60 80 60 00
        E 0 80 61 00
        E 0 80 63 00
        E 60 90 48 60
        E 0 90 4a 60
        E 0 90 54 60
        E 0 90 56 60
        E 0 90 60 60
        E 0 90 61 60
        E 0 90 63 60
        E 60 80 48 00
        E 0 80 4a 00
        E 0 80 54 00
        E 0 80 56 00
        E 0 80 60 00
        E 0 80 61 00
        E 0 80 63 00
        E 180 90 55 60
        E 0 90 61 60
        E 60 80 55 00
        E 0 80 61 00
        E 180 90 3f 60
        E 0 90 49 60
        E 0 90 4b 60
        E 0 90 55 60
        E 0 90 57 60
        E 0 90 61 60
        E 0 90 62 60
        E 0 90 63 60
        E 120 80 3f 00
        E 0 80 49 00
        E 0 80 4b 00
        E 0 80 55 00
        E 0 80 57 00
        E 180 80 61 00
        E 0 80 62 00
        E 0 80 63 00
        E 180 90 49 60
        E 0 90 55 60
        E 0 90 61 60
        E 60 80 49 00
        E 0 80 55 00
        E 0 80 61 00
        E 180 90 55 60
        E 0 90 57 60
        E 0 90 61 60
        E 0 90 62 60
        E 0 90 63 60
        E 600 80 55 00
        E 0 80 57 00
        E 60 80 61 00
        E 0 80 62 00
        E 0 80 63 00
        E 60 90 49 60
        E 0 90 4b 60
        E 0 90 55 60
        E 0 90 57 60
        E 0 90 61 60
        E 0 90 62 60
        E 0 90 63 60
        E 60 80 49 00
        E 0 80 4b 00
        E 0 80 55 00
        E 0 80 57 00
        E 0 80 61 00
        E 0 80 62 00
        E 0 80 63 00
        E 180 90 55 60
        E 0 90 61 60
        E 60 80 55 00
        E 0 80 61 00
        E 180 90 40 60
        E 0 90 4a 60
        E 0 90 4b 60
        E 0 90 55 60
        E 0 90 58 60
        E 0 90 61 60
        E 0 90 62 60
        E 0 90 64 60
        E 60 80 40 00
        E 0 80 4a 00
        E 0 80 4b 00
        E 0 80 55 00
        E 0 80 58 00
        E 0 80 61 00
        E 0 80 62 00
        E 0 80 64 00
        E 180 90 4a 60
        E 0 90 4b 60
        E 0 90 55 60
        E 0 90 58 60
        E 0 90 61 60
        E 0 90 62 60
        E 0 90 64 60
        E 60 80 4a 00
        E 0 80 4b 00
        E 0 80 55 00
        E 0 80 58 00
        E 0 80 61 00
        E 0 80 62 00
        E 0 80 64 00
        E 180 90 40 60
        E 0 90 4a 60
        E 0 90 4b 60
        E 0 90 55 60
        E 0 90 58 60
        E 0 90 61 60
        E 0 90 62 60
        E 0 90 64 60
        E 60 80 40 00
        E 0 80 4a 00
        E 0 80 4b 00
        E 0 80 55 00
        E 0 80 58 00
        E 0 80 61 00
        E 0 80 62 00
        E 0 80 64 00
        E 180 90 55 60
        E 0 90 61 60
        E 60 80 55 00
        E 0 80 61 00
        E 180 90 40 60
        E 0 90 4a 60
        E 0 90 4b 60
        E 0 90 56 60
        E 0 90 58 60
        E 0 90 61 60
        E 0 90 63 60
        E 0 90 64 60
        E 60 80 40 00
        E 0 80 4a 00
        E 0 80 4b 00
        E 0 80 56 00
        E 0 80 58 00
        E 0 80 61 00
        E 0 80 63 00
        E 0 80 64 00
        E 180 90 4a 60
        E 0 90 4b 60
        E 0 90 56 60
        E 0 90 58 60
        E 0 90 61 60
        E 0 90 63 60
        E 0 90 64 60
        E 60 80 4a 00
        E 0 80 4b 00
        E 0 80 56 00
        E 0 80 58 00
        E 0 80 61 00
        E 0 80 63 00
        E 0 80 64 00
        E 180 90 4a 60
        E 0 90 4b 60
        E 0 90 56 60
        E 0 90 58 60
        E 0 90 61 60
        E 0 90 63 60
        E 0 90 64 60
        E 60 80 4a 00
        E 0 80 4b 00
        E 0 80 56 00
        E 0 80 58 00
        E 0 80 61 00
        E 0 80 63 00
        E 0 80 64 00
        E 180 90 54 60
        E 0 90 60 60
        E 60 80 54 00
        E 0 80 60 00
        E 180 90 3e 60
        E 0 90 49 60
        E 0 90 4a 60
        E 0 90 54 60
        E 0 90 57 60
        E 0 90 60 60
        E 0 90 62 60
        E 0 90 63 60
        E 120 80 3e 00
        E 0 80 49 00
        E 0 80 4a 00
        E 0 80 54 00
        E 0 80 57 00
        E 180 80 60 00
        E 0 80 62 00
        E 0 80 63 00
        E 180 90 48 60
        E 0 90 54 60
        E 0 90 60 60
        E 60 80 48 00
        E 0 80 54 00
        E 0 80 60 00
        E 180 90 54 60
        E 0 90 57 60
        E 0 90 60 60
        E 0 90 62 60
        E 0 90 63 60
        E 600 80 54 00
        E 0 80 57 00
        E 60 80 60 00
        E 0 80 62 00
        E 0 80 63 00
        E 60 90 49 60
        E 0 90 4a 60
        E 0 90 54 60
        E 0 90 57 60
        E 0 90 60 60
        E 0 90 62 60
        E 0 90 63 60
        E 60 80 49 00
        E 0 80 4a 00
        E 0 80 54 00
        E 0 80 57 00
        E 0 80 60 00
        E 0 80 62 00
        E 0 80 63 00
        E 180 90 54 60
        E 0 90 60 60
        E 60 80 54 00
        E 0 80 60 00
        E 180 90 3c 60
        E 0 90 48 60
        E 0 90 49 60
        E 0 90 54 60
        E 0 90 55 60
        E 0 90 60 60
        E 0 90 61 60
        E 0 90 62 60
        E 120 80 3c 00
        E 0 80 48 00
        E 0 80 49 00
        E 0 80 54 00
        E 0 80 55 00
        E 180 80 60 00
        E 0 80 61 00
        E 0 80 62 00
        E 180 90 48 60
        E 0 90 54 60
        E 0 90 60 60
        E 60 80 48 00
        E 0 80 54 00
        E 0 80 60 00
        E 180 90 54 60
        E 0 90 55 60
        E 0 90 60 60
        E 0 90 61 60
        E 0 90 62 60
        E 600 80 54 00
        E 0 80 55 00
        E 60 80 60 00
        E 0 80 61 00
        E 0 80 62 00
        E 60 90 48 60
        E 0 90 49 60
        E 0 90 54 60
        E 0 90 55 60
        E 0 90 60 60
        E 0 90 61 60
        E 0 90 62 60
        E 60 80 48 00
        E 0 80 49 00
        E 0 80 54 00
        E 0 80 55 00
        E 0 80 60 00
        E 0 80 61 00
        E 0 80 62 00
        E 180 90 55 60
        E 0 90 61 60
        E 60 80 55 00
        E 0 80 61 00
        E 108 90 74 12
        E 72 90 3f 60
        E 0 90 49 60
        E 0 90 4b 60
        E 0 90 55 60
        E 0 90 57 60
        E 0 90 61 60
        E 0 90 62 60
        E 0 90 63 60
        E 120 80 3f 00
        E 0 80 49 00
        E 0 80 4b 00
        E 0 80 55 00
        E 0 80 57 00
        E 180 80 61 00
        E 0 80 62 00
        E 0 80 63 00
        E 180 90 49 60
        E 0 90 55 60
        E 0 90 61 60
        E 60 80 49 00
        E 0 80 55 00
        E 0 80 61 00
        E 180 90 55 60
        E 0 90 57 60
        E 0 90 61 60
        E 0 90 62 60
        E 0 90 63 60
        E 600 80 55 00
        E 0 80 57 00
        E 60 80 61 00
        E 0 80 62 00
        E 0 80 63 00
        E 60 90 3f 60
        E 0 90 49 60
        E 0 90 4b 60
        E 0 90 55 60
        E 0 90 57 60
        E 0 90 61 60
        E 0 90 62 60
        E 0 90 63 60
        E 60 80 3f 00
        E 0 80 49 00
        E 0 80 4b 00
        E 0 80 55 00
        E 0 80 57 00
        E 0 80 61 00
        E 0 80 62 00
        E 0 80 63 00
        E 180 90 55 60
        E 0 90 61 60
        E 60 80 55 00
        E 0 80 61 00
        E 180 90 3f 60
        E 0 90 49 60
        E 0 90 4b 60
        E 0 90 55 60
        E 0 90 57 60
        E 0 90 61 60
        E 0 90 62 60
        E 0 90 63 60
        E 120 80 3f 00
        E 0 80 49 00
        E 0 80 4b 00
        E 0 80 55 00
        E 0 80 57 00
        E 180 80 61 00
        E 0 80 62 00
        E 0 80 63 00
        E 180 90 49 60
        E 0 90 4b 60
        E 0 90 55 60
        E 0 90 57 60
        E 0 90 61 60
        E 0 90 62 60
        E 0 90 63 60
        E 60 80 49 00
        E 0 80 4b 00
        E 0 80 55 00
        E 0 80 57 00
        E 0 80 61 00
        E 0 80 62 00
        E 0 80 63 00
        E 180 90 54 60
        E 0 90 60 60
        E 60 80 54 00
        E 0 80 60 00
        E 180 90 3d 60
        E 0 90 48 60
        E 0 90 4a 60
        E 0 90 54 60
        E 0 90 56 60
        E 0 90 60 60
        E 0 90 61 60
        E 0 90 63 60
        E 120 80 3d 00
        E 0 80 48 00
        E 0 80 4a 00
        E 0 80 54 00
        E 0 80 56 00
        E 180 80 60 00
        E 0 80 61 00
        E 0 80 63 00
        E 180 90 48 60
        E 0 90 4a 60
        E 0 90 54 60
        E 0 90 56 60
        E 0 90 60 60
        E 0 90 61 60
        E 0 90 63 60
        E 60 80 48 00
        E 0 80 4a 00
        E 0 80 54 00
        E 0 80 56 00
        E 0 80 60 00
        E 0 80 61 00
        E 0 80 63 00
        E 180 90 54 60
        E 0 90 60 60
        E 48 80 74 00
        E 12 80 54 00
        E 0 80 60 00
        E 180 90 3e 60
        E 0 90 49 60
        E 0 90 4a 60
        E 0 90 54 60
        E 0 90 57 60
        E 0 90 60 60
        E 0 90 62 60
        E 0 90 63 60
        E 120 80 3e 00
        E 0 80 49 00
        E 0 80 4a 00
        E 0 80 54 00
        E 0 80 57 00
        E 180 80 60 00
        E 0 80 62 00
        E 0 80 63 00
        E 180 90 48 60
        E 0 90 54 60
        E 0 90 60 60
        E 60 80 48 00
        E 0 80 54 00
        E 0 80 60 00
        E 180 90 54 60
        E 0 90 57 60
        E 0 90 60 60
        E 0 90 62 60
        E 0 90 63 60
        E 600 80 54 00
        E 0 80 57 00
        E 60 80 60 00
        E 0 80 62 00
        E 0 80 63 00
        E 60 90 49 60
        E 0 90 4a 60
        E 0 90 54 60
        E 0 90 57 60
        E 0 90 60 60
        E 0 90 62 60
        E 0 90 63 60
        E 60 80 49 00
        E 0 80 4a 00
        E 0 80 54 00
        E 0 80 57 00
        E 0 80 60 00
        E 0 80 62 00
        E 0 80 63 00
        E 180 90 54 60
        E 0 90 60 60
        E 60 80 54 00
        E 0 80 60 00
        E 180 90 3c 60
        E 0 90 48 60
        E 0 90 49 60
        E 0 90 54 60
        E 0 90 55 60
        E 0 90 60 60
        E 0 90 61 60
        E 0 90 62 60
        E 120 80 3c 00
        E 0 80 48 00
        E 0 80 49 00
        E 0 80 54 00
        E 0 80 55 00
        E 180 80 60 00
        E 0 80 61 00
        E 0 80 62 00
        E 180 90 48 60
        E 0 90 54 60
        E 0 90 60 60
        E 60 80 48 00
        E 0 80 54 00
        E 0 80 60 00
        E 180 90 54 60
        E 0 90 55 60
        E 0 90 60 60
        E 0 90 61 60
        E 0 90 62 60
        E 600 80 54 00
        E 0 80 55 00
        E 60 80 60 00
        E 0 80 61 00
        E 0 80 62 00
        E 60 90 48 60
        E 0 90 49 60
        E 0 90 54 60
        E 0 90 55 60
        E 0 90 60 60
        E 0 90 61 60
        E 0 90 62 60
        E 60 80 48 00
        E 0 80 49 00
        E 0 80 54 00
        E 0 80 55 00
        E 0 80 60 00
        E 0 80 61 00
        E 0 80 62 00
        E 180 90 55 60
        E 0 90 61 60
        E 60 80 55 00
        E 0 80 61 00
        E 180 90 3f 60
        E 0 90 49 60
        E 0 90 4b 60
        E 0 90 55 60
        E 0 90 57 60
        E 0 90 61 60
        E 0 90 62 60
        E 0 90 63 60
        E 120 80 3f 00
        E 0 80 49 00
        E 0 80 4b 00
        E 0 80 55 00
        E 0 80 57 00
        E 180 80 61 00
        E 0 80 62 00
        E 0 80 63 00
        E 180 90 49 60
        E 0 90 55 60
        E 0 90 61 60
        E 60 80 49 00
        E 0 80 55 00
        E 0 80 61 00
        E 180 90 55 60
        E 0 90 57 60
        E 0 90 61 60
        E 0 90 62 60
        E 0 90 63 60
        E 600 80 55 00
        E 0 80 57 00
        E 60 80 61 00
        E 0 80 62 00
        E 0 80 63 00
        E 60 90 3f 60
        E 0 90 49 60
        E 0 90 4b 60
        E 0 90 55 60
        E 0 90 57 60
        E 0 90 61 60
        E 0 90 62 60
        E 0 90 63 60
        E 60 80 3f 00
        E 0 80 49 00
        E 0 80 4b 00
        E 0 80 55 00
        E 0 80 57 00
        E 0 80 61 00
        E 0 80 62 00
        E 0 80 63 00
        E 180 90 55 60
        E 0 90 61 60
        E 60 80 55 00
        E 0 80 61 00
        E 180 90 3f 60
        E 0 90 49 60
        E 0 90 4b 60
        E 0 90 55 60
        E 0 90 57 60
        E 0 90 61 60
        E 0 90 62 60
        E 0 90 63 60
        E 120 80 3f 00
        E 0 80 49 00
        E 0 80 4b 00
        E 0 80 55 00
        E 0 80 57 00
        E 180 80 61 00
        E 0 80 62 00
        E 0 80 63 00
        E 180 90 49 60
        E 0 90 4b 60
        E 0 90 55 60
        E 0 90 57 60
        E 0 90 61 60
        E 0 90 62 60
        E 0 90 63 60
        E 60 80 49 00
        E 0 80 4b 00
        E 0 80 55 00
        E 0 80 57 00
        E 0 80 61 00
        E 0 80 62 00
        E 0 80 63 00
        E 180 90 54 60
        E 0 90 60 60
        E 60 80 54 00
        E 0 80 60 00
        E 180 90 3d 60
        E 0 90 48 60
        E 0 90 4a 60
        E 0 90 54 60
        E 0 90 56 60
        E 0 90 60 60
        E 0 90 61 60
        E 0 90 63 60
        E 120 80 3d 00
        E 0 80 48 00
        E 0 80 4a 00
        E 0 80 54 00
        E 0 80 56 00
        E 180 80 60 00
        E 0 80 61 00
        E 0 80 63 00
        E 180 90 48 60
        E 0 90 4a 60
        E 0 90 54 60
        E 0 90 56 60
        E 0 90 60 60
        E 0 90 61 60
        E 0 90 63 60
        E 60 80 48 00
        E 0 80 4a 00
        E 0 80 54 00
        E 0 80 56 00
        E 0 80 60 00
        E 0 80 61 00
        E 0 80 63 00
        E 180 90 54 60
        E 0 90 60 60
        E 60 80 54 00
        E 0 80 60 00
        E 180 90 3e 60
        E 0 90 49 60
        E 0 90 4a 60
        E 0 90 54 60
        E 0 90 57 60
        E 0 90 60 60
        E 0 90 62 60
        E 0 90 63 60
        E 120 80 3e 00
        E 0 80 49 00
        E 0 80 4a 00
        E 0 80 54 00
        E 0 80 57 00
        E 180 80 60 00
        E 0 80 62 00
        E 0 80 63 00
        E 180 90 48 60
        E 0 90 54 60
        E 0 90 60 60
        E 60 80 48 00
        E 0 80 54 00
        E 0 80 60 00
        E 180 90 54 60
        E 0 90 57 60
        E 0 90 60 60
        E 0 90 62 60
        E 0 90 63 60
        E 600 80 54 00
        E 0 80 57 00
        E 60 80 60 00
        E 0 80 62 00
        E 0 80 63 00
        E 60 90 49 60
        E 0 90 4a 60
        E 0 90 54 60
        E 0 90 57 60
        E 0 90 60 60
        E 0 90 62 60
        E 0 90 63 60
        E 60 80 49 00
        E 0 80 4a 00
        E 0 80 54 00
        E 0 80 57 00
        E 0 80 60 00
        E 0 80 62 00
        E 0 80 63 00
        E 180 90 54 60
        E 0 90 60 60
        E 60 80 54 00
        E 0 80 60 00
        E 180 90 3c 60
        E 0 90 48 60
        E 0 90 49 60
        E 0 90 54 60
        E 0 90 55 60
        E 0 90 60 60
        E 0 90 61 60
        E 0 90 62 60
        E 120 80 3c 00
        E 0 80 48 00
        E 0 80 49 00
        E 0 80 54 00
        E 0 80 55 00
        E 180 80 60 00
        E 0 80 61 00
        E 0 80 62 00
        E 180 90 48 60
        E 0 90 54 60
        E 0 90 60 60
        E 60 80 48 00
        E 0 80 54 00
        E 0 80 60 00
        E 180 90 54 60
        E 0 90 55 60
        E 0 90 60 60
        E 0 90 61 60
        E 0 90 62 60
        E 600 80 54 00
        E 0 80 55 00
        E 60 80 60 00
        E 0 80 61 00
        E 0 80 62 00
        E 60 90 48 60
        E 0 90 49 60
        E 0 90 54 60
        E 0 90 55 60
        E 0 90 60 60
        E 0 90 61 60
        E 0 90 62 60
        E 60 80 48 00
        E 0 80 49 00
        E 0 80 54 00
        E 0 80 55 00
        E 0 80 60 00
        E 0 80 61 00
        E 0 80 62 00
        E 180 90 55 60
        E 0 90 61 60
        E 60 80 55 00
        E 0 80 61 00
        E 180 90 3f 60
        E 0 90 49 60
        E 0 90 4b 60
        E 0 90 55 60
        E 0 90 57 60
        E 0 90 61 60
        E 0 90 62 60
        E 0 90 63 60
        E 120 80 3f 00
        E 0 80 49 00
        E 0 80 4b 00
        E 0 80 55 00
        E 0 80 57 00
        E 180 80 61 00
        E 0 80 62 00
        E 0 80 63 00
        E 180 90 49 60
        E 0 90 55 60
        E 0 90 61 60
        E 60 80 49 00
        E 0 80 55 00
        E 0 80 61 00
        E 180 90 55 60
        E 0 90 57 60
        E 0 90 61 60
        E 0 90 62 60
        E 0 90 63 60
        E 600 80 55 00
        E 0 80 57 00
        E 60 80 61 00
        E 0 80 62 00
        E 0 80 63 00
        E 60 90 3f 60
        E 0 90 49 60
        E 0 90 4b 60
        E 0 90 55 60
        E 0 90 57 60
        E 0 90 61 60
        E 0 90 62 60
        E 0 90 63 60
        E 60 80 3f 00
        E 0 80 49 00
        E 0 80 4b 00
        E 0 80 55 00
        E 0 80 57 00
        E 0 80 61 00
        E 0 80 62 00
        E 0 80 63 00
        E 180 90 55 60
        E 0 90 61 60
        E 60 80 55 00
        E 0 80 61 00
        E 180 90 3f 60
        E 0 90 49 60
        E 0 90 4b 60
        E 0 90 55 60
        E 0 90 57 60
        E 0 90 61 60
        E 0 90 62 60
        E 0 90 63 60
        E 120 80 3f 00
        E 0 80 49 00
        E 0 80 4b 00
        E 0 80 55 00
        E 0 80 57 00
        E 180 80 61 00
        E 0 80 62 00
        E 0 80 63 00
        E 180 90 49 60
        E 0 90 4b 60
        E 0 90 55 60
        E 0 90 57 60
        E 0 90 61 60
        E 0 90 62 60
        E 0 90 63 60
        E 60 80 49 00
        E 0 80 4b 00
        E 0 80 55 00
        E 0 80 57 00
        E 0 80 61 00
        E 0 80 62 00
        E 0 80 63 00
        E 180 90 54 60
        E 0 90 60 60
        E 60 80 54 00
        E 0 80 60 00
        E 180 90 3d 60
        E 0 90 48 60
        E 0 90 4a 60
        E 0 90 54 60
        E 0 90 56 60
        E 0 90 60 60
        E 0 90 61 60
        E 0 90 63 60
        E 120 80 3d 00
        E 0 80 48 00
        E 0 80 4a 00
        E 0 80 54 00
        E 0 80 56 00
        E 180 80 60 00
        E 0 80 61 00
        E 0 80 63 00
        E 180 90 48 60
        E 0 90 4a 60
        E 0 90 54 60
        E 0 90 56 60
        E 0 90 60 60
        E 0 90 61 60
        E 0 90 63 60
        E 60 80 48 00
        E 0 80 4a 00
        E 0 80 54 00
        E 0 80 56 00
        E 0 80 60 00
        E 0 80 61 00
        E 0 80 63 00
        E 180 90 54 60
        E 0 90 60 60
        E 60 80 54 00
        E 0 80 60 00
        E 180 90 3e 60
        E 0 90 49 60
        E 0 90 4a 60
        E 0 90 54 60
        E 0 90 57 60
        E 0 90 60 60
        E 0 90 62 60
        E 0 90 63 60
        E 120 80 3e 00
        E 0 80 49 00
        E 0 80 4a 00
        E 0 80 54 00
        E 0 80 57 00
        E 180 80 60 00
        E 0 80 62 00
        E 0 80 63 00
        E 180 90 48 60
        E 0 90 54 60
        E 0 90 60 60
        E 60 80 48 00
        E 0 80 54 00
        E 0 80 60 00
        E 180 90 54 60
        E 0 90 57 60
        E 0 90 60 60
        E 0 90 62 60
        E 0 90 63 60
        E 600 80 54 00
        E 0 80 57 00
        E 60 80 60 00
        E 0 80 62 00
        E 0 80 63 00
        E 60 90 49 60
        E 0 90 4a 60
        E 0 90 54 60
        E 0 90 57 60
        E 0 90 60 60
        E 0 90 62 60
        E 0 90 63 60
        E 60 80 49 00
        E 0 80 4a 00
        E 0 80 54 00
        E 0 80 57 00
        E 0 80 60 00
        E 0 80 62 00
        E 0 80 63 00
        E 180 90 54 60
        E 0 90 60 60
        E 60 80 54 00
        E 0 80 60 00
        E 180 90 3c 60
        E 0 90 48 60
        E 0 90 49 60
        E 0 90 54 60
        E 0 90 55 60
        E 0 90 60 60
        E 0 90 61 60
        E 0 90 62 60
        E 120 80 3c 00
        E 0 80 48 00
        E 0 80 49 00
        E 0 80 54 00
        E 0 80 55 00
        E 180 80 60 00
        E 0 80 61 00
        E 0 80 62 00
        E 180 90 48 60
        E 0 90 54 60
        E 0 90 60 60
        E 60 80 48 00
        E 0 80 54 00
        E 0 80 60 00
        E 180 90 54 60
        E 0 90 55 60
        E 0 90 60 60
        E 0 90 61 60
        E 0 90 62 60
        E 600 80 54 00
        E 0 80 55 00
        E 60 80 60 00
        E 0 80 61 00
        E 0 80 62 00
        E 60 90 48 60
        E 0 90 49 60
        E 0 90 54 60
        E 0 90 55 60
        E 0 90 60 60
        E 0 90 61 60
        E 0 90 62 60
        E 60 80 48 00
        E 0 80 49 00
        E 0 80 54 00
        E 0 80 55 00
        E 0 80 60 00
        E 0 80 61 00
        E 0 80 62 00
        E 180 90 55 60
        E 0 90 61 60
        E 60 80 55 00
        E 0 80 61 00
        E 180 90 3f 60
        E 0 90 49 60
        E 0 90 4b 60
        E 0 90 55 60
        E 0 90 57 60
        E 0 90 61 60
        E 0 90 62 60
        E 0 90 63 60
        E 120 80 3f 00
        E 0 80 49 00
        E 0 80 4b 00
        E 0 80 55 00
        E 0 80 57 00
        E 180 80 61 00
        E 0 80 62 00
        E 0 80 63 00
        E 180 90 49 60
        E 0 90 55 60
        E 0 90 61 60
        E 60 80 49 00
        E 0 80 55 00
        E 0 80 61 00
        E 180 90 55 60
        E 0 90 57 60
        E 0 90 61 60
        E 0 90 62 60
        E 0 90 63 60
        E 600 80 55 00
        E 0 80 57 00
        E 60 80 61 00
        E 0 80 62 00
        E 0 80 63 00
        E 60 90 3f 60
        E 0 90 49 60
        E 0 90 4b 60
        E 0 90 55 60
        E 0 90 57 60
        E 0 90 61 60
        E 0 90 62 60
        E 0 90 63 60
        E 60 80 3f 00
        E 0 80 49 00
        E 0 80 4b 00
        E 0 80 55 00
        E 0 80 57 00
        E 0 80 61 00
        E 0 80 62 00
        E 0 80 63 00
        E 180 90 55 60
        E 0 90 61 60
        E 60 80 55 00
        E 0 80 61 00
        E 180 90 3f 60
        E 0 90 49 60
        E 0 90 4b 60
        E 0 90 55 60
        E 0 90 57 60
        E 0 90 61 60
        E 0 90 62 60
        E 0 90 63 60
        E 120 80 3f 00
        E 0 80 49 00
        E 0 80 4b 00
        E 0 80 55 00
        E 0 80 57 00
        E 180 80 61 00
        E 0 80 62 00
        E 0 80 63 00
        E 180 90 49 60
        E 0 90 4b 60
        E 0 90 55 60
        E 0 90 57 60
        E 0 90 61 60
        E 0 90 62 60
        E 0 90 63 60
        E 60 80 49 00
        E 0 80 4b 00
        E 0 80 55 00
        E 0 80 57 00
        E 0 80 61 00
        E 0 80 62 00
        E 0 80 63 00
        E 180 90 54 60
        E 0 90 60 60
        E 60 80 54 00
        E 0 80 60 00
        E 180 90 3d 60
        E 0 90 48 60
        E 0 90 4a 60
        E 0 90 54 60
        E 0 90 56 60
        E 0 90 60 60
        E 0 90 61 60
        E 0 90 63 60
        E 120 80 3d 00
        E 0 80 48 00
        E 0 80 4a 00
        E 0 80 54 00
        E 0 80 56 00
        E 180 80 60 00
        E 0 80 61 00
        E 0 80 63 00
        E 180 90 48 60
        E 0 90 4a 60
        E 0 90 54 60
        E 0 90 56 60
        E 0 90 60 60
        E 0 90 61 60
        E 0 90 63 60
        E 60 80 48 00
        E 0 80 4a 00
        E 0 80 54 00
        E 0 80 56 00
        E 0 80 60 00
        E 0 80 61 00
        E 0 80 63 00
        E 180 90 54 60
        E 0 90 60 60
        E 60 80 54 00
        E 0 80 60 00
        E 180 90 40 60
        E 0 90 4a 60
        E 0 90 4b 60
        E 0 90 56 60
        E 0 90 58 60
        E 0 90 61 60
        E 0 90 63 60
        E 0 90 64 60
        E 0 90 74 59
        E 60 80 40 00
        E 0 80 4a 00
        E 0 80 4b 00
        E 0 80 56 00
        E 0 80 58 00
        E 0 80 61 00
        E 0 80 63 00
        E 0 80 64 00
        E 180 90 4a 60
        E 0 90 4b 60
        E 0 90 56 60
        E 0 90 58 60
        E 0 90 61 60
        E 0 90 63 60
        E 0 90 64 60
        E 60 80 4a 00
        E 0 80 4b 00
        E 0 80 56 00
        E 0 80 58 00
        E 0 80 61 00
        E 0 80 63 00
        E 0 80 64 00
        E 180 90 40 60
        E 0 90 4a 60
        E 0 90 4b 60
        E 0 90 56 60
        E 0 90 58 60
        E 0 90 61 60
        E 0 90 63 60
        E 0 90 64 60
        E 60 80 40 00
        E 0 80 4a 00
        E 0 80 4b 00
        E 0 80 56 00
        E 0 80 58 00
        E 0 80 61 00
        E 0 80 63 00
        E 0 80 64 00
        E 180 90 4a 60
        E 0 90 4b 60
        E 0 90 56 60
        E 0 90 58 60
        E 0 90 61 60
        E 0 90 63 60
        E 0 90 64 60
        E 60 80 4a 00
        E 0 80 4b 00
        E 0 80 56 00
        E 0 80 58 00
        E 0 80 61 00
        E 0 80 63 00
        E 0 80 64 00
        E 180 90 40 60
        E 0 90 4a 60
        E 0 90 4b 60
        E 0 90 56 60
        E 0 90 58 60
        E 0 90 61 60
        E 0 90 63 60
        E 0 90 64 60
        E 60 80 40 00
        E 0 80 4a 00
        E 0 80 4b 00
        E 0 80 56 00
        E 0 80 58 00
        E 0 80 61 00
        E 0 80 63 00
        E 0 80 64 00
        E 180 90 4a 60
        E 0 90 4b 60
        E 0 90 56 60
        E 0 90 58 60
        E 0 90 61 60
        E 0 90 63 60
        E 0 90 64 60
        E 60 80 4a 00
        E 0 80 4b 00
        E 0 80 56 00
        E 0 80 58 00
        E 0 80 61 00
        E 0 80 63 00
        E 0 80 64 00
        E 180 90 40 60
        E 0 90 4a 60
        E 0 90 4b 60
        E 0 90 56 60
        E 0 90 58 60
        E 0 90 61 60
        E 0 90 63 60
        E 0 90 64 60
        E 60 80 40 00
        E 0 80 4a 00
        E 0 80 4b 00
        E 0 80 56 00
        E 0 80 58 00
        E 0 80 61 00
        E 0 80 63 00
        E 0 80 64 00
        E 180 90 4a 60
        E 0 90 4b 60
        E 0 90 56 60
        E 0 90 58 60
        E 0 90 61 60
        E 0 90 63 60
        E 0 90 64 60
        E 60 80 4a 00
        E 0 80 4b 00
        E 0 80 56 00
        E 0 80 58 00
        E 0 80 61 00
        E 0 80 63 00
        E 0 80 64 00
        E 180 90 40 60
        E 0 90 4a 60
        E 0 90 4b 60
        E 0 90 56 60
        E 0 90 58 60
        E 0 90 61 60
        E 0 90 63 60
        E 0 90 64 60
        E 60 80 40 00
        E 0 80 4a 00
        E 0 80 4b 00
        E 0 80 56 00
        E 0 80 58 00
        E 0 80 61 00
        E 0 80 63 00
        E 0 80 64 00
        E 180 90 4a 60
        E 0 90 4b 60
        E 0 90 56 60
        E 0 90 58 60
        E 0 90 61 60
        E 0 90 63 60
        E 0 90 64 60
        E 60 80 4a 00
        E 0 80 4b 00
        E 0 80 56 00
        E 0 80 58 00
        E 0 80 61 00
        E 0 80 63 00
        E 0 80 64 00
        E 180 90 40 60
        E 0 90 4a 60
        E 0 90 4b 60
        E 0 90 56 60
        E 0 90 58 60
        E 0 90 61 60
        E 0 90 63 60
        E 0 90 64 60
        E 60 80 40 00
        E 0 80 4a 00
        E 0 80 4b 00
        E 0 80 56 00
        E 0 80 58 00
        E 0 80 61 00
        E 0 80 63 00
        E 0 80 64 00
        E 180 90 4a 60
        E 0 90 4b 60
        E 0 90 56 60
        E 0 90 58 60
        E 0 90 61 60
        E 0 90 63 60
        E 0 90 64 60
        E 60 80 4a 00
        E 0 80 4b 00
        E 0 80 56 00
        E 0 80 58 00
        E 0 80 61 00
        E 0 80 63 00
        E 0 80 64 00
        E 180 90 40 60
        E 0 90 4a 60
        E 0 90 4b 60
        E 0 90 56 60
        E 0 90 58 60
        E 0 90 61 60
        E 0 90 63 60
        E 0 90 64 60
        E 60 80 40 00
        E 0 80 4a 00
        E 0 80 4b 00
        E 0 80 56 00
        E 0 80 58 00
        E 0 80 61 00
        E 0 80 63 00
        E 0 80 64 00
        E 180 90 4a 60
        E 0 90 4b 60
        E 0 90 56 60
        E 0 90 58 60
        E 0 90 61 60
        E 0 90 63 60
        E 0 90 64 60
        E 60 80 4a 00
        E 0 80 4b 00
        E 0 80 56 00
        E 0 80 58 00
        E 0 80 61 00
        E 0 80 63 00
        E 0 80 64 00
        E 180 90 40 60
        E 0 90 4a 60
        E 0 90 4b 60
        E 0 90 56 60
        E 0 90 58 60
        E 0 90 61 60
        E 0 90 63 60
        E 0 90 64 60
        E 60 80 40 00
        E 0 80 4a 00
        E 0 80 4b 00
        E 0 80 56 00
        E 0 80 58 00
        E 0 80 61 00
        E 0 80 63 00
        E 0 80 64 00
        E 180 90 56 60
        E 0 90 58 60
        E 0 90 61 60
        E 0 90 63 60
        E 0 90 64 60
        E 60 80 56 00
        E 0 80 58 00
        E 0 80 61 00
        E 0 80 63 00
        E 0 80 64 00
        E 180 90 40 60
        E 0 90 4a 60
        E 0 90 4b 60
        E 0 90 55 60
        E 0 90 58 60
        E 0 90 61 60
        E 0 90 62 60
        E 0 90 64 60
        E 60 80 40 00
        E 0 80 4a 00
        E 0 80 4b 00
        E 0 80 55 00
        E 0 80 58 00
        E 0 80 61 00
        E 0 80 62 00
        E 0 80 64 00
        E 180 90 4a 60
        E 0 90 4b 60
        E 0 90 55 60
        E 0 90 58 60
        E 0 90 61 60
        E 0 90 62 60
        E 0 90 64 60
        E 60 80 4a 00
        E 0 80 4b 00
        E 0 80 55 00
        E 0 80 58 00
        E 0 80 61 00
        E 0 80 62 00
        E 0 80 64 00
        E 180 90 40 60
        E 0 90 4a 60
        E 0 90 4b 60
        E 0 90 55 60
        E 0 90 58 60
        E 0 90 61 60
        E 0 90 62 60
        E 0 90 64 60
        E 60 80 40 00
        E 0 80 4a 00
        E 0 80 4b 00
        E 0 80 55 00
        E 0 80 58 00
        E 0 80 61 00
        E 0 80 62 00
        E 0 80 64 00
        E 180 90 4a 60
        E 0 90 4b 60
        E 0 90 55 60
        E 0 90 58 60
        E 0 90 61 60
        E 0 90 62 60
        E 0 90 64 60
        E 60 80 4a 00
        E 0 80 4b 00
        E 0 80 55 00
        E 0 80 58 00
        E 0 80 61 00
        E 0 80 62 00
        E 0 80 64 00
        E 180 90 40 60
        E 0 90 4a 60
        E 0 90 4b 60
        E 0 90 55 60
        E 0 90 58 60
        E 0 90 61 60
        E 0 90 62 60
        E 0 90 64 60
        E 60 80 40 00
        E 0 80 4a 00
        E 0 80 4b 00
        E 0 80 55 00
        E 0 80 58 00
        E 0 80 61 00
        E 0 80 62 00
        E 0 80 64 00
        E 180 90 4a 60
        E 0 90 4b 60
        E 0 90 55 60
        E 0 90 58 60
        E 0 90 61 60
        E 0 90 62 60
        E 0 90 64 60
        E 60 80 4a 00
        E 0 80 4b 00
        E 0 80 55 00
        E 0 80 58 00
        E 0 80 61 00
        E 0 80 62 00
        E 0 80 64 00
        E 180 90 40 60
        E 0 90 4a 60
        E 0 90 4b 60
        E 0 90 55 60
        E 0 90 58 60
        E 0 90 61 60
        E 0 90 62 60
        E 0 90 64 60
        E 60 80 40 00
        E 0 80 4a 00
        E 0 80 4b 00
        E 0 80 55 00
        E 0 80 58 00
        E 0 80 61 00
        E 0 80 62 00
        E 0 80 64 00
        E 180 90 4a 60
        E 0 90 4b 60
        E 0 90 55 60
        E 0 90 58 60
        E 0 90 61 60
        E 0 90 62 60
        E 0 90 64 60
        E 60 80 4a 00
        E 0 80 4b 00
        E 0 80 55 00
        E 0 80 58 00
        E 0 80 61 00
        E 0 80 62 00
        E 0 80 64 00
        E 180 90 40 60
        E 0 90 4a 60
        E 0 90 4b 60
        E 0 90 55 60
        E 0 90 58 60
        E 0 90 61 60
        E 0 90 62 60
        E 0 90 64 60
        E 60 80 40 00
        E 0 80 4a 00
        E 0 80 4b 00
        E 0 80 55 00
        E 0 80 58 00
        E 0 80 61 00
        E 0 80 62 00
        E 0 80 64 00
        E 180 90 4a 60
        E 0 90 4b 60
        E 0 90 55 60
        E 0 90 58 60
        E 0 90 61 60
        E 0 90 62 60
        E 0 90 64 60
        E 60 80 4a 00
        E 0 80 4b 00
        E 0 80 55 00
        E 0 80 58 00
        E 0 80 61 00
        E 0 80 62 00
        E 0 80 64 00
        E 180 90 40 60
        E 0 90 4a 60
        E 0 90 4b 60
        E 0 90 55 60
        E 0 90 58 60
        E 0 90 61 60
        E 0 90 62 60
        E 0 90 64 60
        E 60 80 40 00
        E 0 80 4a 00
        E 0 80 4b 00
        E 0 80 55 00
        E 0 80 58 00
        E 0 80 61 00
        E 0 80 62 00
        E 0 80 64 00
        E 180 90 4a 60
        E 0 90 4b 60
        E 0 90 55 60
        E 0 90 58 60
        E 0 90 61 60
        E 0 90 62 60
        E 0 90 64 60
        E 60 80 4a 00
        E 0 80 4b 00
        E 0 80 55 00
        E 0 80 58 00
        E 0 80 61 00
        E 0 80 62 00
        E 0 80 64 00
        E 180 90 40 60
        E 0 90 4a 60
        E 0 90 4b 60
        E 0 90 55 60
        E 0 90 58 60
        E 0 90 61 60
        E 0 90 62 60
        E 0 90 64 60
        E 60 80 40 00
        E 0 80 4a 00
        E 0 80 4b 00
        E 0 80 55 00
        E 0 80 58 00
        E 0 80 61 00
        E 0 80 62 00
        E 0 80 64 00
        E 180 90 4a 60
        E 0 90 4b 60
        E 0 90 55 60
        E 0 90 58 60
        E 0 90 61 60
        E 0 90 62 60
        E 0 90 64 60
        E 60 80 4a 00
        E 0 80 4b 00
        E 0 80 55 00
        E 0 80 58 00
        E 0 80 61 00
        E 0 80 62 00
        E 0 80 64 00
        E 180 90 4a 60
        E 0 90 4b 60
        E 0 90 55 60
        E 0 90 58 60
        E 0 90 61 60
        E 0 90 62 60
        E 0 90 64 60
        E 60 80 4a 00
        E 0 80 4b 00
        E 0 80 55 00
        E 0 80 58 00
        E 0 80 61 00
        E 0 80 62 00
        E 0 80 64 00
        E 180 90 55 60
        E 0 90 58 60
        E 0 90 61 60
        E 0 90 62 60
        E 0 90 64 60
        E 60 80 55 00
        E 0 80 58 00
        E 0 80 61 00
        E 0 80 62 00
        E 0 80 64 00
        E 180 80 74 00
        E 0 90 3e 60
        E 0 90 49 60
        E 0 90 4a 60
        E 0 90 54 60
        E 0 90 57 60
        E 0 90 60 60
        E 0 90 62 60
        E 0 90 63 60
        E 60 80 3e 00
        E 0 80 49 00
        E 0 80 4a 00
        E 0 80 54 00
        E 0 80 57 00
        E 0 80 60 00
        E 0 80 62 00
        E 0 80 63 00
        E 180 90 49 60
        E 0 90 4a 60
        E 0 90 54 60
        E 0 90 57 60
        E 0 90 60 60
        E 0 90 62 60
        E 0 90 63 60
        E 60 80 49 00
        E 0 80 4a 00
        E 0 80 54 00
        E 0 80 57 00
        E 0 80 60 00
        E 0 80 62 00
        E 0 80 63 00
        E 180 90 3e 60
        E 0 90 49 60
        E 0 90 4a 60
        E 0 90 54 60
        E 0 90 57 60
        E 0 90 60 60
        E 0 90 62 60
        E 0 90 63 60
        E 60 80 3e 00
        E 0 80 49 00
        E 0 80 4a 00
        E 0 80 54 00
        E 0 80 57 00
        E 0 80 60 00
        E 0 80 62 00
        E 0 80 63 00
        E 180 90 49 60
        E 0 90 4a 60
        E 0 90 54 60
        E 0 90 57 60
        E 0 90 60 60
        E 0 90 62 60
        E 0 90 63 60
        E 60 80 49 00
        E 0 80 4a 00
        E 0 80 54 00
        E 0 80 57 00
        E 0 80 60 00
        E 0 80 62 00
        E 0 80 63 00
        E 180 90 3e 60
        E 0 90 49 60
        E 0 90 4a 60
        E 0 90 54 60
        E 0 90 57 60
        E 0 90 60 60
        E 0 90 62 60
        E 0 90 63 60
        E 60 80 3e 00
        E 0 80 49 00
        E 0 80 4a 00
        E 0 80 54 00
        E 0 80 57 00
        E 0 80 60 00
        E 0 80 62 00
        E 0 80 63 00
        E 180 90 49 60
        E 0 90 4a 60
        E 0 90 54 60
        E 0 90 57 60
        E 0 90 60 60
        E 0 90 62 60
        E 0 90 63 60
        E 60 80 49 00
        E 0 80 4a 00
        E 0 80 54 00
        E 0 80 57 00
        E 0 80 60 00
        E 0 80 62 00
        E 0 80 63 00
        E 180 90 3e 60
        E 0 90 49 60
        E 0 90 4a 60
        E 0 90 54 60
        E 0 90 57 60
        E 0 90 60 60
        E 0 90 62 60
        E 0 90 63 60
        E 60 80 3e 00
        E 0 80 49 00
        E 0 80 4a 00
        E 0 80 54 00
        E 0 80 57 00
        E 0 80 60 00
        E 0 80 62 00
        E 0 80 63 00
        E 180 90 49 60
        E 0 90 4a 60
        E 0 90 54 60
        E 0 90 57 60
        E 0 90 60 60
        E 0 90 62 60
        E 0 90 63 60
        E 60 80 49 00
        E 0 80 4a 00
        E 0 80 54 00
        E 0 80 57 00
        E 0 80 60 00
        E 0 80 62 00
        E 0 80 63 00
        E 180 90 3e 60
        E 0 90 49 60
        E 0 90 4a 60
        E 0 90 54 60
        E 0 90 57 60
        E 0 90 60 60
        E 0 90 62 60
        E 0 90 63 60
        E 60 80 3e 00
        E 0 80 49 00
        E 0 80 4a 00
        E 0 80 54 00
        E 0 80 57 00
        E 0 80 60 00
        E 0 80 62 00
        E 0 80 63 00
        E 180 90 49 60
        E 0 90 4a 60
        E 0 90 54 60
        E 0 90 57 60
        E 0 90 60 60
        E 0 90 62 60
        E 0 90 63 60
        E 60 80 49 00
        E 0 80 4a 00
        E 0 80 54 00
        E 0 80 57 00
        E 0 80 60 00
        E 0 80 62 00
        E 0 80 63 00
        E 180 90 3e 60
        E 0 90 49 60
        E 0 90 4a 60
        E 0 90 54 60
        E 0 90 57 60
        E 0 90 60 60
        E 0 90 62 60
        E 0 90 63 60
        E 60 80 3e 00
        E 0 80 49 00
        E 0 80 4a 00
        E 0 80 54 00
        E 0 80 57 00
        E 0 80 60 00
        E 0 80 62 00
        E 0 80 63 00
        E 180 90 49 60
        E 0 90 4a 60
        E 0 90 54 60
        E 0 90 57 60
        E 0 90 60 60
        E 0 90 62 60
        E 0 90 63 60
        E 60 80 49 00
        E 0 80 4a 00
        E 0 80 54 00
        E 0 80 57 00
        E 0 80 60 00
        E 0 80 62 00
        E 0 80 63 00
        E 180 90 3e 60
        E 0 90 49 60
        E 0 90 4a 60
        E 0 90 54 60
        E 0 90 57 60
        E 0 90 60 60
        E 0 90 62 60
        E 0 90 63 60
        E 60 80 3e 00
        E 0 80 49 00
        E 0 80 4a 00
        E 0 80 54 00
        E 0 80 57 00
        E 0 80 60 00
        E 0 80 62 00
        E 0 80 63 00
        E 180 90 49 60
        E 0 90 4a 60
        E 0 90 54 60
        E 0 90 57 60
        E 0 90 60 60
        E 0 90 62 60
        E 0 90 63 60
        E 60 80 49 00
        E 0 80 4a 00
        E 0 80 54 00
        E 0 80 57 00
        E 0 80 60 00
        E 0 80 62 00
        E 0 80 63 00
        E 180 90 49 60
        E 0 90 4a 60
        E 0 90 54 60
        E 0 90 57 60
        E 0 90 60 60
        E 0 90 62 60
        E 0 90 63 60
        E 60 80 49 00
        E 0 80 4a 00
        E 0 80 54 00
        E 0 80 57 00
        E 0 80 60 00
        E 0 80 62 00
        E 0 80 63 00
        E 180 90 54 60
        E 0 90 57 60
        E 0 90 60 60
        E 0 90 62 60
        E 0 90 63 60
        E 60 80 54 00
        E 0 80 57 00
        E 0 80 60 00
        E 0 80 62 00
        E 0 80 63 00
        E 180 90 3d 60
        E 0 90 48 60
        E 0 90 4a 60
        E 0 90 54 60
        E 0 90 56 60
        E 0 90 60 60
        E 0 90 61 60
        E 0 90 63 60
        E 60 80 3d 00
        E 0 80 48 00
        E 0 80 4a 00
        E 0 80 54 00
        E 0 80 56 00
        E 0 80 60 00
        E 0 80 61 00
        E 0 80 63 00
        E 180 90 48 60
        E 0 90 4a 60
        E 0 90 54 60
        E 0 90 56 60
        E 0 90 60 60
        E 0 90 61 60
        E 0 90 63 60
        E 60 80 48 00
        E 0 80 4a 00
        E 0 80 54 00
        E 0 80 56 00
        E 0 80 60 00
        E 0 80 61 00
        E 0 80 63 00
        E 180 90 3d 60
        E 0 90 48 60
        E 0 90 4a 60
        E 0 90 54 60
        E 0 90 56 60
        E 0 90 60 60
        E 0 90 61 60
        E 0 90 63 60
        E 60 80 3d 00
        E 0 80 48 00
        E 0 80 4a 00
        E 0 80 54 00
        E 0 80 56 00
        E 0 80 60 00
        E 0 80 61 00
        E 0 80 63 00
        E 180 90 48 60
        E 0 90 4a 60
        E 0 90 54 60
        E 0 90 56 60
        E 0 90 60 60
        E 0 90 61 60
        E 0 90 63 60
        E 60 80 48 00
        E 0 80 4a 00
        E 0 80 54 00
        E 0 80 56 00
        E 0 80 60 00
        E 0 80 61 00
        E 0 80 63 00
        E 180 90 3d 60
        E 0 90 48 60
        E 0 90 4a 60
        E 0 90 54 60
        E 0 90 56 60
        E 0 90 60 60
        E 0 90 61 60
        E 0 90 63 60
        E 60 80 3d 00
        E 0 80 48 00
        E 0 80 4a 00
        E 0 80 54 00
        E 0 80 56 00
        E 0 80 60 00
        E 0 80 61 00
        E 0 80 63 00
        E 180 90 48 60
        E 0 90 4a 60
        E 0 90 54 60
        E 0 90 56 60
        E 0 90 60 60
        E 0 90 61 60
        E 0 90 63 60
        E 60 80 48 00
        E 0 80 4a 00
        E 0 80 54 00
        E 0 80 56 00
        E 0 80 60 00
        E 0 80 61 00
        E 0 80 63 00
        E 180 90 3d 60
        E 0 90 48 60
        E 0 90 4a 60
        E 0 90 54 60
        E 0 90 56 60
        E 0 90 60 60
        E 0 90 61 60
        E 0 90 63 60
        E 60 80 3d 00
        E 0 80 48 00
        E 0 80 4a 00
        E 0 80 54 00
        E 0 80 56 00
        E 0 80 60 00
        E 0 80 61 00
        E 0 80 63 00
        E 180 90 48 60
        E 0 90 4a 60
        E 0 90 54 60
        E 0 90 56 60
        E 0 90 60 60
        E 0 90 61 60
        E 0 90 63 60
        E 60 80 48 00
        E 0 80 4a 00
        E 0 80 54 00
        E 0 80 56 00
        E 0 80 60 00
        E 0 80 61 00
        E 0 80 63 00
        E 180 90 3d 60
        E 0 90 48 60
        E 0 90 4a 60
        E 0 90 54 60
        E 0 90 56 60
        E 0 90 60 60
        E 0 90 61 60
        E 0 90 63 60
        E 60 80 3d 00
        E 0 80 48 00
        E 0 80 4a 00
        E 0 80 54 00
        E 0 80 56 00
        E 0 80 60 00
        E 0 80 61 00
        E 0 80 63 00
        E 180 90 48 60
        E 0 90 4a 60
        E 0 90 54 60
        E 0 90 56 60
        E 0 90 60 60
        E 0 90 61 60
        E 0 90 63 60
        E 60 80 48 00
        E 0 80 4a 00
        E 0 80 54 00
        E 0 80 56 00
        E 0 80 60 00
        E 0 80 61 00
        E 0 80 63 00
        E 180 90 3d 60
        E 0 90 48 60
        E 0 90 4a 60
        E 0 90 54 60
        E 0 90 56 60
        E 0 90 60 60
        E 0 90 61 60
        E 0 90 63 60
        E 60 80 3d 00
        E 0 80 48 00
        E 0 80 4a 00
        E 0 80 54 00
        E 0 80 56 00
        E 0 80 60 00
        E 0 80 61 00
        E 0 80 63 00
        E 180 90 48 60
        E 0 90 4a 60
        E 0 90 54 60
        E 0 90 56 60
        E 0 90 60 60
        E 0 90 61 60
        E 0 90 63 60
        E 60 80 48 00
        E 0 80 4a 00
        E 0 80 54 00
        E 0 80 56 00
        E 0 80 60 00
        E 0 80 61 00
        E 0 80 63 00
        E 180 90 3d 60
        E 0 90 48 60
        E 0 90 4a 60
        E 0 90 54 60
        E 0 90 56 60
        E 0 90 60 60
        E 0 90 61 60
        E 0 90 63 60
        E 60 80 3d 00
        E 0 80 48 00
        E 0 80 4a 00
        E 0 80 54 00
        E 0 80 56 00
        E 0 80 60 00
        E 0 80 61 00
        E 0 80 63 00
        E 180 90 48 60
        E 0 90 4a 60
        E 0 90 54 60
        E 0 90 56 60
        E 0 90 60 60
        E 0 90 61 60
        E 0 90 63 60
        E 60 80 48 00
        E 0 80 4a 00
        E 0 80 54 00
        E 0 80 56 00
        E 0 80 60 00
        E 0 80 61 00
        E 0 80 63 00
        E 180 90 48 60
        E 0 90 4a 60
        E 0 90 54 60
        E 0 90 56 60
        E 0 90 60 60
        E 0 90 61 60
        E 0 90 63 60
        E 60 80 48 00
        E 0 80 4a 00
        E 0 80 54 00
        E 0 80 56 00
        E 0 80 60 00
        E 0 80 61 00
        E 0 80 63 00
        E 180 90 54 60
        E 0 90 56 60
        E 0 90 60 60
        E 0 90 61 60
        E 0 90 63 60
        E 60 80 54 00
        E 0 80 56 00
        E 0 80 60 00
        E 0 80 61 00
        E 0 80 63 00
        E 180 90 40 60
        E 0 90 4a 60
        E 0 90 4b 60
        E 0 90 56 60
        E 0 90 58 60
        E 0 90 61 60
        E 0 90 63 60
        E 0 90 64 60
        E 60 80 40 00
        E 0 80 4a 00
        E 0 80 4b 00
        E 0 80 56 00
        E 0 80 58 00
        E 0 80 61 00
        E 0 80 63 00
        E 0 80 64 00
        E 180 90 4a 60
        E 0 90 4b 60
        E 0 90 56 60
        E 0 90 58 60
        E 0 90 61 60
        E 0 90 63 60
        E 0 90 64 60
        E 60 80 4a 00
        E 0 80 4b 00
        E 0 80 56 00
        E 0 80 58 00
        E 0 80 61 00
        E 0 80 63 00
        E 0 80 64 00
        E 180 90 40 60
        E 0 90 4a 60
        E 0 90 4b 60
        E 0 90 56 60
        E 0 90 58 60
        E 0 90 61 60
        E 0 90 63 60
        E 0 90 64 60
        E 60 80 40 00
        E 0 80 4a 00
        E 0 80 4b 00
        E 0 80 56 00
        E 0 80 58 00
        E 0 80 61 00
        E 0 80 63 00
        E 0 80 64 00
        E 180 90 4a 60
        E 0 90 4b 60
        E 0 90 56 60
        E 0 90 58 60
        E 0 90 61 60
        E 0 90 63 60
        E 0 90 64 60
        E 60 80 4a 00
        E 0 80 4b 00
        E 0 80 56 00
        E 0 80 58 00
        E 0 80 61 00
        E 0 80 63 00
        E 0 80 64 00
        E 180 90 40 60
        E 0 90 4a 60
        E 0 90 4b 60
        E 0 90 56 60
        E 0 90 58 60
        E 0 90 61 60
        E 0 90 63 60
        E 0 90 64 60
        E 60 80 40 00
        E 0 80 4a 00
        E 0 80 4b 00
        E 0 80 56 00
        E 0 80 58 00
        E 0 80 61 00
        E 0 80 63 00
        E 0 80 64 00
        E 180 90 4a 60
        E 0 90 4b 60
        E 0 90 56 60
        E 0 90 58 60
        E 0 90 61 60
        E 0 90 63 60
        E 0 90 64 60
        E 60 80 4a 00
        E 0 80 4b 00
        E 0 80 56 00
        E 0 80 58 00
        E 0 80 61 00
        E 0 80 63 00
        E 0 80 64 00
        E 180 90 40 60
        E 0 90 4a 60
        E 0 90 4b 60
        E 0 90 56 60
        E 0 90 58 60
        E 0 90 61 60
        E 0 90 63 60
        E 0 90 64 60
        E 60 80 40 00
        E 0 80 4a 00
        E 0 80 4b 00
        E 0 80 56 00
        E 0 80 58 00
        E 0 80 61 00
        E 0 80 63 00
        E 0 80 64 00
        E 180 90 4a 60
        E 0 90 4b 60
        E 0 90 56 60
        E 0 90 58 60
        E 0 90 61 60
        E 0 90 63 60
        E 0 90 64 60
        E 60 80 4a 00
        E 0 80 4b 00
        E 0 80 56 00
        E 0 80 58 00
        E 0 80 61 00
        E 0 80 63 00
        E 0 80 64 00
        E 180 90 40 60
        E 0 90 4a 60
        E 0 90 4b 60
        E 0 90 56 60
        E 0 90 58 60
        E 0 90 61 60
        E 0 90 63 60
        E 0 90 64 60
        E 60 80 40 00
        E 0 80 4a 00
        E 0 80 4b 00
        E 0 80 56 00
        E 0 80 58 00
        E 0 80 61 00
        E 0 80 63 00
        E 0 80 64 00
        E 180 90 4a 60
        E 0 90 4b 60
        E 0 90 56 60
        E 0 90 58 60
        E 0 90 61 60
        E 0 90 63 60
        E 0 90 64 60
        E 60 80 4a 00
        E 0 80 4b 00
        E 0 80 56 00
        E 0 80 58 00
        E 0 80 61 00
        E 0 80 63 00
        E 0 80 64 00
        E 180 90 40 60
        E 0 90 4a 60
        E 0 90 4b 60
        E 0 90 56 60
        E 0 90 58 60
        E 0 90 61 60
        E 0 90 63 60
        E 0 90 64 60
        E 60 80 40 00
        E 0 80 4a 00
        E 0 80 4b 00
        E 0 80 56 00
        E 0 80 58 00
        E 0 80 61 00
        E 0 80 63 00
        E 0 80 64 00
        E 180 90 4a 60
        E 0 90 4b 60
        E 0 90 56 60
        E 0 90 58 60
        E 0 90 61 60
        E 0 90 63 60
        E 0 90 64 60
        E 60 80 4a 00
        E 0 80 4b 00
        E 0 80 56 00
        E 0 80 58 00
        E 0 80 61 00
        E 0 80 63 00
        E 0 80 64 00
        E 180 90 40 60
        E 0 90 4a 60
        E 0 90 4b 60
        E 0 90 56 60
        E 0 90 58 60
        E 0 90 61 60
        E 0 90 63 60
        E 0 90 64 60
        E 60 80 40 00
        E 0 80 4a 00
        E 0 80 4b 00
        E 0 80 56 00
        E 0 80 58 00
        E 0 80 61 00
        E 0 80 63 00
        E 0 80 64 00
        E 180 90 4a 60
        E 0 90 4b 60
        E 0 90 56 60
        E 0 90 58 60
        E 0 90 61 60
        E 0 90 63 60
        E 0 90 64 60
        E 60 80 4a 00
        E 0 80 4b 00
        E 0 80 56 00
        E 0 80 58 00
        E 0 80 61 00
        E 0 80 63 00
        E 0 80 64 00
        E 180 90 40 60
        E 0 90 4a 60
        E 0 90 4b 60
        E 0 90 56 60
        E 0 90 58 60
        E 0 90 61 60
        E 0 90 63 60
        E 0 90 64 60
        E 60 80 40 00
        E 0 80 4a 00
        E 0 80 4b 00
        E 0 80 56 00
        E 0 80 58 00
        E 0 80 61 00
        E 0 80 63 00
        E 0 80 64 00
        E 180 90 56 60
        E 0 90 58 60
        E 0 90 61 60
        E 0 90 63 60
        E 0 90 64 60
        E 60 80 56 00
        E 0 80 58 00
        E 0 80 61 00
        E 0 80 63 00
        E 0 80 64 00
        E 180 90 40 60
        E 0 90 4a 60
        E 0 90 4b 60
        E 0 90 55 60
        E 0 90 58 60
        E 0 90 61 60
        E 0 90 62 60
        E 0 90 64 60
        E 60 80 40 00
        E 0 80 4a 00
        E 0 80 4b 00
        E 0 80 55 00
        E 0 80 58 00
        E 0 80 61 00
        E 0 80 62 00
        E 0 80 64 00
        E 180 90 4a 60
        E 0 90 4b 60
        E 0 90 55 60
        E 0 90 58 60
        E 0 90 61 60
        E 0 90 62 60
        E 0 90 64 60
        E 60 80 4a 00
        E 0 80 4b 00
        E 0 80 55 00
        E 0 80 58 00
        E 0 80 61 00
        E 0 80 62 00
        E 0 80 64 00
        E 180 90 40 60
        E 0 90 4a 60
        E 0 90 4b 60
        E 0 90 55 60
        E 0 90 58 60
        E 0 90 61 60
        E 0 90 62 60
        E 0 90 64 60
        E 60 80 40 00
        E 0 80 4a 00
        E 0 80 4b 00
        E 0 80 55 00
        E 0 80 58 00
        E 0 80 61 00
        E 0 80 62 00
        E 0 80 64 00
        E 180 90 4a 60
        E 0 90 4b 60
        E 0 90 55 60
        E 0 90 58 60
        E 0 90 61 60
        E 0 90 62 60
        E 0 90 64 60
        E 60 80 4a 00
        E 0 80 4b 00
        E 0 80 55 00
        E 0 80 58 00
        E 0 80 61 00
        E 0 80 62 00
        E 0 80 64 00
        E 180 90 40 60
        E 0 90 4a 60
        E 0 90 4b 60
        E 0 90 55 60
        E 0 90 58 60
        E 0 90 61 60
        E 0 90 62 60
        E 0 90 64 60
        E 60 80 40 00
        E 0 80 4a 00
        E 0 80 4b 00
        E 0 80 55 00
        E 0 80 58 00
        E 0 80 61 00
        E 0 80 62 00
        E 0 80 64 00
        E 180 90 4a 60
        E 0 90 4b 60
        E 0 90 55 60
        E 0 90 58 60
        E 0 90 61 60
        E 0 90 62 60
        E 0 90 64 60
        E 60 80 4a 00
        E 0 80 4b 00
        E 0 80 55 00
        E 0 80 58 00
        E 0 80 61 00
        E 0 80 62 00
        E 0 80 64 00
        E 180 90 40 60
        E 0 90 4a 60
        E 0 90 4b 60
        E 0 90 55 60
        E 0 90 58 60
        E 0 90 61 60
        E 0 90 62 60
        E 0 90 64 60
        E 60 80 40 00
        E 0 80 4a 00
        E 0 80 4b 00
        E 0 80 55 00
        E 0 80 58 00
        E 0 80 61 00
        E 0 80 62 00
        E 0 80 64 00
        E 180 90 4a 60
        E 0 90 4b 60
        E 0 90 55 60
        E 0 90 58 60
        E 0 90 61 60
        E 0 90 62 60
        E 0 90 64 60
        E 60 80 4a 00
        E 0 80 4b 00
        E 0 80 55 00
        E 0 80 58 00
        E 0 80 61 00
        E 0 80 62 00
        E 0 80 64 00
        E 180 90 40 60
        E 0 90 4a 60
        E 0 90 4b 60
        E 0 90 55 60
        E 0 90 58 60
        E 0 90 61 60
        E 0 90 62 60
        E 0 90 64 60
        E 60 80 40 00
        E 0 80 4a 00
        E 0 80 4b 00
        E 0 80 55 00
        E 0 80 58 00
        E 0 80 61 00
        E 0 80 62 00
        E 0 80 64 00
        E 180 90 4a 60
        E 0 90 4b 60
        E 0 90 55 60
        E 0 90 58 60
        E 0 90 61 60
        E 0 90 62 60
        E 0 90 64 60
        E 60 80 4a 00
        E 0 80 4b 00
        E 0 80 55 00
        E 0 80 58 00
        E 0 80 61 00
        E 0 80 62 00
        E 0 80 64 00
        E 180 90 40 60
        E 0 90 4a 60
        E 0 90 4b 60
        E 0 90 55 60
        E 0 90 58 60
        E 0 90 61 60
        E 0 90 62 60
        E 0 90 64 60
        E 60 80 40 00
        E 0 80 4a 00
        E 0 80 4b 00
        E 0 80 55 00
        E 0 80 58 00
        E 0 80 61 00
        E 0 80 62 00
        E 0 80 64 00
        E 180 90 4a 60
        E 0 90 4b 60
        E 0 90 55 60
        E 0 90 58 60
        E 0 90 61 60
        E 0 90 62 60
        E 0 90 64 60
        E 60 80 4a 00
        E 0 80 4b 00
        E 0 80 55 00
        E 0 80 58 00
        E 0 80 61 00
        E 0 80 62 00
        E 0 80 64 00
        E 180 90 40 60
        E 0 90 4a 60
        E 0 90 4b 60
        E 0 90 55 60
        E 0 90 58 60
        E 0 90 61 60
        E 0 90 62 60
        E 0 90 64 60
        E 60 80 40 00
        E 0 80 4a 00
        E 0 80 4b 00
        E 0 80 55 00
        E 0 80 58 00
        E 0 80 61 00
        E 0 80 62 00
        E 0 80 64 00
        E 180 90 4a 60
        E 0 90 4b 60
        E 0 90 55 60
        E 0 90 58 60
        E 0 90 61 60
        E 0 90 62 60
        E 0 90 64 60
        E 60 80 4a 00
        E 0 80 4b 00
        E 0 80 55 00
        E 0 80 58 00
        E 0 80 61 00
        E 0 80 62 00
        E 0 80 64 00
        E 180 90 4a 60
        E 0 90 4b 60
        E 0 90 55 60
        E 0 90 58 60
        E 0 90 61 60
        E 0 90 62 60
        E 0 90 64 60
        E 60 80 4a 00
        E 0 80 4b 00
        E 0 80 55 00
        E 0 80 58 00
        E 0 80 61 00
        E 0 80 62 00
        E 0 80 64 00
        E 180 90 55 60
        E 0 90 58 60
        E 0 90 61 60
        E 0 90 62 60
        E 0 90 64 60
        E 60 80 55 00
        E 0 80 58 00
        E 0 80 61 00
        E 0 80 62 00
        E 0 80 64 00
        E 180 90 3e 60
        E 0 90 49 60
        E 0 90 4a 60
        E 0 90 54 60
        E 0 90 57 60
        E 0 90 60 60
        E 0 90 62 60
        E 0 90 63 60
        E 60 80 3e 00
        E 0 80 49 00
        E 0 80 4a 00
        E 0 80 54 00
        E 0 80 57 00
        E 0 80 60 00
        E 0 80 62 00
        E 0 80 63 00
        E 180 90 49 60
        E 0 90 4a 60
        E 0 90 54 60
        E 0 90 57 60
        E 0 90 60 60
        E 0 90 62 60
        E 0 90 63 60
        E 60 80 49 00
        E 0 80 4a 00
        E 0 80 54 00
        E 0 80 57 00
        E 0 80 60 00
        E 0 80 62 00
        E 0 80 63 00
        E 180 90 3e 60
        E 0 90 49 60
        E 0 90 4a 60
        E 0 90 54 60
        E 0 90 57 60
        E 0 90 60 60
        E 0 90 62 60
        E 0 90 63 60
        E 60 80 3e 00
        E 0 80 49 00
        E 0 80 4a 00
        E 0 80 54 00
        E 0 80 57 00
        E 0 80 60 00
        E 0 80 62 00
        E 0 80 63 00
        E 180 90 49 60
        E 0 90 4a 60
        E 0 90 54 60
        E 0 90 57 60
        E 0 90 60 60
        E 0 90 62 60
        E 0 90 63 60
        E 60 80 49 00
        E 0 80 4a 00
        E 0 80 54 00
        E 0 80 57 00
        E 0 80 60 00
        E 0 80 62 00
        E 0 80 63 00
        E 180 90 3e 60
        E 0 90 49 60
        E 0 90 4a 60
        E 0 90 54 60
        E 0 90 57 60
        E 0 90 60 60
        E 0 90 62 60
        E 0 90 63 60
        E 60 80 3e 00
        E 0 80 49 00
        E 0 80 4a 00
        E 0 80 54 00
        E 0 80 57 00
        E 0 80 60 00
        E 0 80 62 00
        E 0 80 63 00
        E 180 90 49 60
        E 0 90 4a 60
        E 0 90 54 60
        E 0 90 57 60
        E 0 90 60 60
        E 0 90 62 60
        E 0 90 63 60
        E 60 80 49 00
        E 0 80 4a 00
        E 0 80 54 00
        E 0 80 57 00
        E 0 80 60 00
        E 0 80 62 00
        E 0 80 63 00
        E 180 90 3e 60
        E 0 90 49 60
        E 0 90 4a 60
        E 0 90 54 60
        E 0 90 57 60
        E 0 90 60 60
        E 0 90 62 60
        E 0 90 63 60
        E 60 80 3e 00
        E 0 80 49 00
        E 0 80 4a 00
        E 0 80 54 00
        E 0 80 57 00
        E 0 80 60 00
        E 0 80 62 00
        E 0 80 63 00
        E 180 90 49 60
        E 0 90 4a 60
        E 0 90 54 60
        E 0 90 57 60
        E 0 90 60 60
        E 0 90 62 60
        E 0 90 63 60
        E 60 80 49 00
        E 0 80 4a 00
        E 0 80 54 00
        E 0 80 57 00
        E 0 80 60 00
        E 0 80 62 00
        E 0 80 63 00
        E 180 90 3e 60
        E 0 90 49 60
        E 0 90 4a 60
        E 0 90 54 60
        E 0 90 57 60
        E 0 90 60 60
        E 0 90 62 60
        E 0 90 63 60
        E 60 80 3e 00
        E 0 80 49 00
        E 0 80 4a 00
        E 0 80 54 00
        E 0 80 57 00
        E 0 80 60 00
        E 0 80 62 00
        E 0 80 63 00
        E 180 90 49 60
        E 0 90 4a 60
        E 0 90 54 60
        E 0 90 57 60
        E 0 90 60 60
        E 0 90 62 60
        E 0 90 63 60
        E 60 80 49 00
        E 0 80 4a 00
        E 0 80 54 00
        E 0 80 57 00
        E 0 80 60 00
        E 0 80 62 00
        E 0 80 63 00
        E 180 90 3e 60
        E 0 90 49 60
        E 0 90 4a 60
        E 0 90 54 60
        E 0 90 57 60
        E 0 90 60 60
        E 0 90 62 60
        E 0 90 63 60
        E 60 80 3e 00
        E 0 80 49 00
        E 0 80 4a 00
        E 0 80 54 00
        E 0 80 57 00
        E 0 80 60 00
        E 0 80 62 00
        E 0 80 63 00
        E 180 90 49 60
        E 0 90 4a 60
        E 0 90 54 60
        E 0 90 57 60
        E 0 90 60 60
        E 0 90 62 60
        E 0 90 63 60
        E 60 80 49 00
        E 0 80 4a 00
        E 0 80 54 00
        E 0 80 57 00
        E 0 80 60 00
        E 0 80 62 00
        E 0 80 63 00
        E 180 90 3e 60
        E 0 90 49 60
        E 0 90 4a 60
        E 0 90 54 60
        E 0 90 57 60
        E 0 90 60 60
        E 0 90 62 60
        E 0 90 63 60
        E 60 80 3e 00
        E 0 80 49 00
        E 0 80 4a 00
        E 0 80 54 00
        E 0 80 57 00
        E 0 80 60 00
        E 0 80 62 00
        E 0 80 63 00
        E 180 90 49 60
        E 0 90 4a 60
        E 0 90 54 60
        E 0 90 57 60
        E 0 90 60 60
        E 0 90 62 60
        E 0 90 63 60
        E 60 80 49 00
        E 0 80 4a 00
        E 0 80 54 00
        E 0 80 57 00
        E 0 80 60 00
        E 0 80 62 00
        E 0 80 63 00
        E 180 90 49 60
        E 0 90 4a 60
        E 0 90 54 60
        E 0 90 57 60
        E 0 90 60 60
        E 0 90 62 60
        E 0 90 63 60
        E 60 80 49 00
        E 0 80 4a 00
        E 0 80 54 00
        E 0 80 57 00
        E 0 80 60 00
        E 0 80 62 00
        E 0 80 63 00
        E 180 90 54 60
        E 0 90 57 60
        E 0 90 60 60
        E 0 90 62 60
        E 0 90 63 60
        E 60 80 54 00
        E 0 80 57 00
        E 0 80 60 00
        E 0 80 62 00
        E 0 80 63 00
        E 180 90 3d 60
        E 0 90 48 60
        E 0 90 4a 60
        E 0 90 54 60
        E 0 90 56 60
        E 0 90 60 60
        E 0 90 61 60
        E 0 90 63 60
        E 0 90 74 60
        E 60 80 3d 00
        E 0 80 48 00
        E 0 80 4a 00
        E 0 80 54 00
        E 0 80 56 00
        E 0 80 60 00
        E 0 80 61 00
        E 0 80 63 00
        E 180 90 48 60
        E 0 90 4a 60
        E 0 90 54 60
        E 0 90 56 60
        E 0 90 60 60
        E 0 90 61 60
        E 0 90 63 60
        E 60 80 48 00
        E 0 80 4a 00
        E 0 80 54 00
        E 0 80 56 00
        E 0 80 60 00
        E 0 80 61 00
        E 0 80 63 00
        E 180 90 3d 60
        E 0 90 48 60
        E 0 90 4a 60
        E 0 90 54 60
        E 0 90 56 60
        E 0 90 60 60
        E 0 90 61 60
        E 0 90 63 60
        E 60 80 3d 00
        E 0 80 48 00
        E 0 80 4a 00
        E 0 80 54 00
        E 0 80 56 00
        E 0 80 60 00
        E 0 80 61 00
        E 0 80 63 00
        E 180 90 48 60
        E 0 90 4a 60
        E 0 90 54 60
        E 0 90 56 60
        E 0 90 60 60
        E 0 90 61 60
        E 0 90 63 60
        E 60 80 48 00
        E 0 80 4a 00
        E 0 80 54 00
        E 0 80 56 00
        E 0 80 60 00
        E 0 80 61 00
        E 0 80 63 00
        E 180 90 3d 60
        E 0 90 48 60
        E 0 90 4a 60
        E 0 90 54 60
        E 0 90 56 60
        E 0 90 60 60
        E 0 90 61 60
        E 0 90 63 60
        E 60 80 3d 00
        E 0 80 48 00
        E 0 80 4a 00
        E 0 80 54 00
        E 0 80 56 00
        E 0 80 60 00
        E 0 80 61 00
        E 0 80 63 00
        E 180 90 48 60
        E 0 90 4a 60
        E 0 90 54 60
        E 0 90 56 60
        E 0 90 60 60
        E 0 90 61 60
        E 0 90 63 60
        E 60 80 48 00
        E 0 80 4a 00
        E 0 80 54 00
        E 0 80 56 00
        E 0 80 60 00
        E 0 80 61 00
        E 0 80 63 00
        E 180 90 3d 60
        E 0 90 48 60
        E 0 90 4a 60
        E 0 90 54 60
        E 0 90 56 60
        E 0 90 60 60
        E 0 90 61 60
        E 0 90 63 60
        E 60 80 3d 00
        E 0 80 48 00
        E 0 80 4a 00
        E 0 80 54 00
        E 0 80 56 00
        E 0 80 60 00
        E 0 80 61 00
        E 0 80 63 00
        E 180 90 48 60
        E 0 90 4a 60
        E 0 90 54 60
        E 0 90 56 60
        E 0 90 60 60
        E 0 90 61 60
        E 0 90 63 60
        E 60 80 48 00
        E 0 80 4a 00
        E 0 80 54 00
        E 0 80 56 00
        E 0 80 60 00
        E 0 80 61 00
        E 0 80 63 00
        E 180 90 3d 60
        E 0 90 48 60
        E 0 90 4a 60
        E 0 90 54 60
        E 0 90 56 60
        E 0 90 60 60
        E 0 90 61 60
        E 0 90 63 60
        E 60 80 3d 00
        E 0 80 48 00
        E 0 80 4a 00
        E 0 80 54 00
        E 0 80 56 00
        E 0 80 60 00
        E 0 80 61 00
        E 0 80 63 00
        E 180 90 48 60
        E 0 90 4a 60
        E 0 90 54 60
        E 0 90 56 60
        E 0 90 60 60
        E 0 90 61 60
        E 0 90 63 60
        E 60 80 48 00
        E 0 80 4a 00
        E 0 80 54 00
        E 0 80 56 00
        E 0 80 60 00
        E 0 80 61 00
        E 0 80 63 00
        E 180 90 3d 60
        E 0 90 48 60
        E 0 90 4a 60
        E 0 90 54 60
        E 0 90 56 60
        E 0 90 60 60
        E 0 90 61 60
        E 0 90 63 60
        E 60 80 3d 00
        E 0 80 48 00
        E 0 80 4a 00
        E 0 80 54 00
        E 0 80 56 00
        E 0 80 60 00
        E 0 80 61 00
        E 0 80 63 00
        E 180 90 48 60
        E 0 90 4a 60
        E 0 90 54 60
        E 0 90 56 60
        E 0 90 60 60
        E 0 90 61 60
        E 0 90 63 60
        E 60 80 48 00
        E 0 80 4a 00
        E 0 80 54 00
        E 0 80 56 00
        E 0 80 60 00
        E 0 80 61 00
        E 0 80 63 00
        E 180 90 3d 60
        E 0 90 48 60
        E 0 90 4a 60
        E 0 90 54 60
        E 0 90 56 60
        E 0 90 60 60
        E 0 90 61 60
        E 0 90 63 60
        E 60 80 3d 00
        E 0 80 48 00
        E 0 80 4a 00
        E 0 80 54 00
        E 0 80 56 00
        E 0 80 60 00
        E 0 80 61 00
        E 0 80 63 00
        E 180 90 48 60
        E 0 90 4a 60
        E 0 90 54 60
        E 0 90 56 60
        E 0 90 60 60
        E 0 90 61 60
        E 0 90 63 60
        E 60 80 48 00
        E 0 80 4a 00
        E 0 80 54 00
        E 0 80 56 00
        E 0 80 60 00
        E 0 80 61 00
        E 0 80 63 00
        E 180 90 48 60
        E 0 90 4a 60
        E 0 90 54 60
        E 0 90 56 60
        E 0 90 60 60
        E 0 90 61 60
        E 0 90 63 60
        E 60 80 48 00
        E 0 80 4a 00
        E 0 80 54 00
        E 0 80 56 00
        E 0 80 60 00
        E 0 80 61 00
        E 0 80 63 00
        E 180 90 54 60
        E 0 90 56 60
        E 0 90 60 60
        E 0 90 61 60
        E 0 90 63 60
        E 60 80 54 00
        E 0 80 56 00
        E 0 80 60 00
        E 0 80 61 00
        E 0 80 63 00
        E 180 80 74 00
        E 0 90 40 60
        E 0 90 4a 60
        E 0 90 4b 60
        E 0 90 56 60
        E 0 90 58 60
        E 0 90 61 60
        E 0 90 63 60
        E 0 90 64 60
        E 60 80 40 00
        E 0 80 4a 00
        E 0 80 4b 00
        E 0 80 56 00
        E 0 80 58 00
        E 0 80 61 00
        E 0 80 63 00
        E 0 80 64 00
        E 180 90 4a 60
        E 0 90 4b 60
        E 0 90 56 60
        E 0 90 58 60
        E 0 90 61 60
        E 0 90 63 60
        E 0 90 64 60
        E 60 80 4a 00
        E 0 80 4b 00
        E 0 80 56 00
        E 0 80 58 00
        E 0 80 61 00
        E 0 80 63 00
        E 0 80 64 00
        E 180 90 40 60
        E 0 90 4a 60
        E 0 90 4b 60
        E 0 90 56 60
        E 0 90 58 60
        E 0 90 61 60
        E 0 90 63 60
        E 0 90 64 60
        E 60 80 40 00
        E 0 80 4a 00
        E 0 80 4b 00
        E 0 80 56 00
        E 0 80 58 00
        E 0 80 61 00
        E 0 80 63 00
        E 0 80 64 00
        E 180 90 4a 60
        E 0 90 4b 60
        E 0 90 56 60
        E 0 90 58 60
        E 0 90 61 60
        E 0 90 63 60
        E 0 90 64 60
        E 60 80 4a 00
        E 0 80 4b 00
        E 0 80 56 00
        E 0 80 58 00
        E 0 80 61 00
        E 0 80 63 00
        E 0 80 64 00
        E 180 90 40 60
        E 0 90 4a 60
        E 0 90 4b 60
        E 0 90 56 60
        E 0 90 58 60
        E 0 90 61 60
        E 0 90 63 60
        E 0 90 64 60
        E 60 80 40 00
        E 0 80 4a 00
        E 0 80 4b 00
        E 0 80 56 00
        E 0 80 58 00
        E 0 80 61 00
        E 0 80 63 00
        E 0 80 64 00
        E 180 90 4a 60
        E 0 90 4b 60
        E 0 90 56 60
        E 0 90 58 60
        E 0 90 61 60
        E 0 90 63 60
        E 0 90 64 60
        E 60 80 4a 00
        E 0 80 4b 00
        E 0 80 56 00
        E 0 80 58 00
        E 0 80 61 00
        E 0 80 63 00
        E 0 80 64 00
        E 180 90 40 60
        E 0 90 4a 60
        E 0 90 4b 60
        E 0 90 56 60
        E 0 90 58 60
        E 0 90 61 60
        E 0 90 63 60
        E 0 90 64 60
        E 60 80 40 00
        E 0 80 4a 00
        E 0 80 4b 00
        E 0 80 56 00
        E 0 80 58 00
        E 0 80 61 00
        E 0 80 63 00
        E 0 80 64 00
        E 180 90 4a 60
        E 0 90 4b 60
        E 0 90 56 60
        E 0 90 58 60
        E 0 90 61 60
        E 0 90 63 60
        E 0 90 64 60
        E 60 80 4a 00
        E 0 80 4b 00
        E 0 80 56 00
        E 0 80 58 00
        E 0 80 61 00
        E 0 80 63 00
        E 0 80 64 00
        E 180 90 40 60
        E 0 90 4a 60
        E 0 90 4b 60
        E 0 90 56 60
        E 0 90 58 60
        E 0 90 61 60
        E 0 90 63 60
        E 0 90 64 60
        E 60 80 40 00
        E 0 80 4a 00
        E 0 80 4b 00
        E 0 80 56 00
        E 0 80 58 00
        E 0 80 61 00
        E 0 80 63 00
        E 0 80 64 00
        E 180 90 4a 60
        E 0 90 4b 60
        E 0 90 56 60
        E 0 90 58 60
        E 0 90 61 60
        E 0 90 63 60
        E 0 90 64 60
        E 60 80 4a 00
        E 0 80 4b 00
        E 0 80 56 00
        E 0 80 58 00
        E 0 80 61 00
        E 0 80 63 00
        E 0 80 64 00
        E 180 90 40 60
        E 0 90 4a 60
        E 0 90 4b 60
        E 0 90 56 60
        E 0 90 58 60
        E 0 90 61 60
        E 0 90 63 60
        E 0 90 64 60
        E 60 80 40 00
        E 0 80 4a 00
        E 0 80 4b 00
        E 0 80 56 00
        E 0 80 58 00
        E 0 80 61 00
        E 0 80 63 00
        E 0 80 64 00
        E 180 90 4a 60
        E 0 90 4b 60
        E 0 90 56 60
        E 0 90 58 60
        E 0 90 61 60
        E 0 90 63 60
        E 0 90 64 60
        E 60 80 4a 00
        E 0 80 4b 00
        E 0 80 56 00
        E 0 80 58 00
        E 0 80 61 00
        E 0 80 63 00
        E 0 80 64 00
        E 180 90 40 60
        E 0 90 4a 60
        E 0 90 4b 60
        E 0 90 56 60
        E 0 90 58 60
        E 0 90 61 60
        E 0 90 63 60
        E 0 90 64 60
        E 60 80 40 00
        E 0 80 4a 00
        E 0 80 4b 00
        E 0 80 56 00
        E 0 80 58 00
        E 0 80 61 00
        E 0 80 63 00
        E 0 80 64 00
        E 180 90 4a 60
        E 0 90 4b 60
        E 0 90 56 60
        E 0 90 58 60
        E 0 90 61 60
        E 0 90 63 60
        E 0 90 64 60
        E 60 80 4a 00
        E 0 80 4b 00
        E 0 80 56 00
        E 0 80 58 00
        E 0 80 61 00
        E 0 80 63 00
        E 0 80 64 00
        E 180 90 40 60
        E 0 90 4a 60
        E 0 90 4b 60
        E 0 90 56 60
        E 0 90 58 60
        E 0 90 61 60
        E 0 90 63 60
        E 0 90 64 60
        E 60 80 40 00
        E 0 80 4a 00
        E 0 80 4b 00
        E 0 80 56 00
        E 0 80 58 00
        E 0 80 61 00
        E 0 80 63 00
        E 0 80 64 00
        E 180 90 56 60
        E 0 90 58 60
        E 0 90 61 60
        E 0 90 63 60
        E 0 90 64 60
        E 60 80 56 00
        E 0 80 58 00
        E 0 80 61 00
        E 0 80 63 00
        E 0 80 64 00
        E 180 90 40 60
        E 0 90 4a 60
        E 0 90 4b 60
        E 0 90 55 60
        E 0 90 58 60
        E 0 90 61 60
        E 0 90 62 60
        E 0 90 64 60
        E 60 80 40 00
        E 0 80 4a 00
        E 0 80 4b 00
        E 0 80 55 00
        E 0 80 58 00
        E 0 80 61 00
        E 0 80 62 00
        E 0 80 64 00
        E 180 90 4a 60
        E 0 90 4b 60
        E 0 90 55 60
        E 0 90 58 60
        E 0 90 61 60
        E 0 90 62 60
        E 0 90 64 60
        E 60 80 4a 00
        E 0 80 4b 00
        E 0 80 55 00
        E 0 80 58 00
        E 0 80 61 00
        E 0 80 62 00
        E 0 80 64 00
        E 180 90 40 60
        E 0 90 4a 60
        E 0 90 4b 60
        E 0 90 55 60
        E 0 90 58 60
        E 0 90 61 60
        E 0 90 62 60
        E 0 90 64 60
        E 60 80 40 00
        E 0 80 4a 00
        E 0 80 4b 00
        E 0 80 55 00
        E 0 80 58 00
        E 0 80 61 00
        E 0 80 62 00
        E 0 80 64 00
        E 180 90 4a 60
        E 0 90 4b 60
        E 0 90 55 60
        E 0 90 58 60
        E 0 90 61 60
        E 0 90 62 60
        E 0 90 64 60
        E 60 80 4a 00
        E 0 80 4b 00
        E 0 80 55 00
        E 0 80 58 00
        E 0 80 61 00
        E 0 80 62 00
        E 0 80 64 00
        E 180 90 40 60
        E 0 90 4a 60
        E 0 90 4b 60
        E 0 90 55 60
        E 0 90 58 60
        E 0 90 61 60
        E 0 90 62 60
        E 0 90 64 60
        E 60 80 40 00
        E 0 80 4a 00
        E 0 80 4b 00
        E 0 80 55 00
        E 0 80 58 00
        E 0 80 61 00
        E 0 80 62 00
        E 0 80 64 00
        E 180 90 4a 60
        E 0 90 4b 60
        E 0 90 55 60
        E 0 90 58 60
        E 0 90 61 60
        E 0 90 62 60
        E 0 90 64 60
        E 60 80 4a 00
        E 0 80 4b 00
        E 0 80 55 00
        E 0 80 58 00
        E 0 80 61 00
        E 0 80 62 00
        E 0 80 64 00
        E 180 90 40 60
        E 0 90 4a 60
        E 0 90 4b 60
        E 0 90 55 60
        E 0 90 58 60
        E 0 90 61 60
        E 0 90 62 60
        E 0 90 64 60
        E 60 80 40 00
        E 0 80 4a 00
        E 0 80 4b 00
        E 0 80 55 00
        E 0 80 58 00
        E 0 80 61 00
        E 0 80 62 00
        E 0 80 64 00
        E 180 90 4a 60
        E 0 90 4b 60
        E 0 90 55 60
        E 0 90 58 60
        E 0 90 61 60
        E 0 90 62 60
        E 0 90 64 60
        E 60 80 4a 00
        E 0 80 4b 00
        E 0 80 55 00
        E 0 80 58 00
        E 0 80 61 00
        E 0 80 62 00
        E 0 80 64 00
        E 180 90 40 60
        E 0 90 4a 60
        E 0 90 4b 60
        E 0 90 55 60
        E 0 90 58 60
        E 0 90 61 60
        E 0 90 62 60
        E 0 90 64 60
        E 60 80 40 00
        E 0 80 4a 00
        E 0 80 4b 00
        E 0 80 55 00
        E 0 80 58 00
        E 0 80 61 00
        E 0 80 62 00
        E 0 80 64 00
        E 180 90 4a 60
        E 0 90 4b 60
        E 0 90 55 60
        E 0 90 58 60
        E 0 90 61 60
        E 0 90 62 60
        E 0 90 64 60
        E 60 80 4a 00
        E 0 80 4b 00
        E 0 80 55 00
        E 0 80 58 00
        E 0 80 61 00
        E 0 80 62 00
        E 0 80 64 00
        E 180 90 40 60
        E 0 90 4a 60
        E 0 90 4b 60
        E 0 90 55 60
        E 0 90 58 60
        E 0 90 61 60
        E 0 90 62 60
        E 0 90 64 60
        E 60 80 40 00
        E 0 80 4a 00
        E 0 80 4b 00
        E 0 80 55 00
        E 0 80 58 00
        E 0 80 61 00
        E 0 80 62 00
        E 0 80 64 00
        E 180 90 4a 60
        E 0 90 4b 60
        E 0 90 55 60
        E 0 90 58 60
        E 0 90 61 60
        E 0 90 62 60
        E 0 90 64 60
        E 60 80 4a 00
        E 0 80 4b 00
        E 0 80 55 00
        E 0 80 58 00
        E 0 80 61 00
        E 0 80 62 00
        E 0 80 64 00
        E 180 90 40 60
        E 0 90 4a 60
        E 0 90 4b 60
        E 0 90 55 60
        E 0 90 58 60
        E 0 90 61 60
        E 0 90 62 60
        E 0 90 64 60
        E 60 80 40 00
        E 0 80 4a 00
        E 0 80 4b 00
        E 0 80 55 00
        E 0 80 58 00
        E 0 80 61 00
        E 0 80 62 00
        E 0 80 64 00
        E 180 90 4a 60
        E 0 90 4b 60
        E 0 90 55 60
        E 0 90 58 60
        E 0 90 61 60
        E 0 90 62 60
        E 0 90 64 60
        E 60 80 4a 00
        E 0 80 4b 00
        E 0 80 55 00
        E 0 80 58 00
        E 0 80 61 00
        E 0 80 62 00
        E 0 80 64 00
        E 180 90 4a 60
        E 0 90 4b 60
        E 0 90 55 60
        E 0 90 58 60
        E 0 90 61 60
        E 0 90 62 60
        E 0 90 64 60
        E 60 80 4a 00
        E 0 80 4b 00
        E 0 80 55 00
        E 0 80 58 00
        E 0 80 61 00
        E 0 80 62 00
        E 0 80 64 00
        E 180 90 55 60
        E 0 90 58 60
        E 0 90 61 60
        E 0 90 62 60
        E 0 90 64 60
        E 60 80 55 00
        E 0 80 58 00
        E 0 80 61 00
        E 0 80 62 00
        E 0 80 64 00
        E 180 90 3e 60
        E 0 90 49 60
        E 0 90 4a 60
        E 0 90 54 60
        E 0 90 57 60
        E 0 90 60 60
        E 0 90 62 60
        E 0 90 63 60
        E 60 80 3e 00
        E 0 80 49 00
        E 0 80 4a 00
        E 0 80 54 00
        E 0 80 57 00
        E 0 80 60 00
        E 0 80 62 00
        E 0 80 63 00
        E 180 90 49 60
        E 0 90 4a 60
        E 0 90 54 60
        E 0 90 57 60
        E 0 90 60 60
        E 0 90 62 60
        E 0 90 63 60
        E 60 80 49 00
        E 0 80 4a 00
        E 0 80 54 00
        E 0 80 57 00
        E 0 80 60 00
        E 0 80 62 00
        E 0 80 63 00
        E 180 90 3e 60
        E 0 90 49 60
        E 0 90 4a 60
        E 0 90 54 60
        E 0 90 57 60
        E 0 90 60 60
        E 0 90 62 60
        E 0 90 63 60
        E 60 80 3e 00
        E 0 80 49 00
        E 0 80 4a 00
        E 0 80 54 00
        E 0 80 57 00
        E 0 80 60 00
        E 0 80 62 00
        E 0 80 63 00
        E 180 90 49 60
        E 0 90 4a 60
        E 0 90 54 60
        E 0 90 57 60
        E 0 90 60 60
        E 0 90 62 60
        E 0 90 63 60
        E 60 80 49 00
        E 0 80 4a 00
        E 0 80 54 00
        E 0 80 57 00
        E 0 80 60 00
        E 0 80 62 00
        E 0 80 63 00
        E 180 90 3e 60
        E 0 90 49 60
        E 0 90 4a 60
        E 0 90 54 60
        E 0 90 57 60
        E 0 90 60 60
        E 0 90 62 60
        E 0 90 63 60
        E 60 80 3e 00
        E 0 80 49 00
        E 0 80 4a 00
        E 0 80 54 00
        E 0 80 57 00
        E 0 80 60 00
        E 0 80 62 00
        E 0 80 63 00
        E 180 90 49 60
        E 0 90 4a 60
        E 0 90 54 60
        E 0 90 57 60
        E 0 90 60 60
        E 0 90 62 60
        E 0 90 63 60
        E 60 80 49 00
        E 0 80 4a 00
        E 0 80 54 00
        E 0 80 57 00
        E 0 80 60 00
        E 0 80 62 00
        E 0 80 63 00
        E 180 90 3e 60
        E 0 90 49 60
        E 0 90 4a 60
        E 0 90 54 60
        E 0 90 57 60
        E 0 90 60 60
        E 0 90 62 60
        E 0 90 63 60
        E 60 80 3e 00
        E 0 80 49 00
        E 0 80 4a 00
        E 0 80 54 00
        E 0 80 57 00
        E 0 80 60 00
        E 0 80 62 00
        E 0 80 63 00
        E 180 90 49 60
        E 0 90 4a 60
        E 0 90 54 60
        E 0 90 57 60
        E 0 90 60 60
        E 0 90 62 60
        E 0 90 63 60
        E 60 80 49 00
        E 0 80 4a 00
        E 0 80 54 00
        E 0 80 57 00
        E 0 80 60 00
        E 0 80 62 00
        E 0 80 63 00
        E 180 90 3e 60
        E 0 90 49 60
        E 0 90 4a 60
        E 0 90 54 60
        E 0 90 57 60
        E 0 90 60 60
        E 0 90 62 60
        E 0 90 63 60
        E 60 80 3e 00
        E 0 80 49 00
        E 0 80 4a 00
        E 0 80 54 00
        E 0 80 57 00
        E 0 80 60 00
        E 0 80 62 00
        E 0 80 63 00
        E 180 90 49 60
        E 0 90 4a 60
        E 0 90 54 60
        E 0 90 57 60
        E 0 90 60 60
        E 0 90 62 60
        E 0 90 63 60
        E 60 80 49 00
        E 0 80 4a 00
        E 0 80 54 00
        E 0 80 57 00
        E 0 80 60 00
        E 0 80 62 00
        E 0 80 63 00
        E 180 90 3e 60
        E 0 90 49 60
        E 0 90 4a 60
        E 0 90 54 60
        E 0 90 57 60
        E 0 90 60 60
        E 0 90 62 60
        E 0 90 63 60
        E 60 80 3e 00
        E 0 80 49 00
        E 0 80 4a 00
        E 0 80 54 00
        E 0 80 57 00
        E 0 80 60 00
        E 0 80 62 00
        E 0 80 63 00
        E 180 90 49 60
        E 0 90 4a 60
        E 0 90 54 60
        E 0 90 57 60
        E 0 90 60 60
        E 0 90 62 60
        E 0 90 63 60
        E 60 80 49 00
        E 0 80 4a 00
        E 0 80 54 00
        E 0 80 57 00
        E 0 80 60 00
        E 0 80 62 00
        E 0 80 63 00
        E 180 90 3e 60
        E 0 90 49 60
        E 0 90 4a 60
        E 0 90 54 60
        E 0 90 57 60
        E 0 90 60 60
        E 0 90 62 60
        E 0 90 63 60
        E 60 80 3e 00
        E 0 80 49 00
        E 0 80 4a 00
        E 0 80 54 00
        E 0 80 57 00
        E 0 80 60 00
        E 0 80 62 00
        E 0 80 63 00
        E 180 90 49 60
        E 0 90 4a 60
        E 0 90 54 60
        E 0 90 57 60
        E 0 90 60 60
        E 0 90 62 60
        E 0 90 63 60
        E 60 80 49 00
        E 0 80 4a 00
        E 0 80 54 00
        E 0 80 57 00
        E 0 80 60 00
        E 0 80 62 00
        E 0 80 63 00
        E 180 90 49 60
        E 0 90 4a 60
        E 0 90 54 60
        E 0 90 57 60
        E 0 90 60 60
        E 0 90 62 60
        E 0 90 63 60
        E 60 80 49 00
        E 0 80 4a 00
        E 0 80 54 00
        E 0 80 57 00
        E 0 80 60 00
        E 0 80 62 00
        E 0 80 63 00
        E 180 90 54 60
        E 0 90 57 60
        E 0 90 60 60
        E 0 90 62 60
        E 0 90 63 60
        E 60 80 54 00
        E 0 80 57 00
        E 0 80 60 00
        E 0 80 62 00
        E 0 80 63 00
        E 180 90 3d 60
        E 0 90 48 60
        E 0 90 4a 60
        E 0 90 54 60
        E 0 90 56 60
        E 0 90 60 60
        E 0 90 61 60
        E 0 90 63 60
        E 60 80 3d 00
        E 0 80 48 00
        E 0 80 4a 00
        E 0 80 54 00
        E 0 80 56 00
        E 0 80 60 00
        E 0 80 61 00
        E 0 80 63 00
        E 180 90 48 60
        E 0 90 4a 60
        E 0 90 54 60
        E 0 90 56 60
        E 0 90 60 60
        E 0 90 61 60
        E 0 90 63 60
        E 60 80 48 00
        E 0 80 4a 00
        E 0 80 54 00
        E 0 80 56 00
        E 0 80 60 00
        E 0 80 61 00
        E 0 80 63 00
        E 180 90 3d 60
        E 0 90 48 60
        E 0 90 4a 60
        E 0 90 54 60
        E 0 90 56 60
        E 0 90 60 60
        E 0 90 61 60
        E 0 90 63 60
        E 60 80 3d 00
        E 0 80 48 00
        E 0 80 4a 00
        E 0 80 54 00
        E 0 80 56 00
        E 0 80 60 00
        E 0 80 61 00
        E 0 80 63 00
        E 180 90 48 60
        E 0 90 4a 60
        E 0 90 54 60
        E 0 90 56 60
        E 0 90 60 60
        E 0 90 61 60
        E 0 90 63 60
        E 60 80 48 00
        E 0 80 4a 00
        E 0 80 54 00
        E 0 80 56 00
        E 0 80 60 00
        E 0 80 61 00
        E 0 80 63 00
        E 180 90 3d 60
        E 0 90 48 60
        E 0 90 4a 60
        E 0 90 54 60
        E 0 90 56 60
        E 0 90 60 60
        E 0 90 61 60
        E 0 90 63 60
        E 60 80 3d 00
        E 0 80 48 00
        E 0 80 4a 00
        E 0 80 54 00
        E 0 80 56 00
        E 0 80 60 00
        E 0 80 61 00
        E 0 80 63 00
        E 180 90 48 60
        E 0 90 4a 60
        E 0 90 54 60
        E 0 90 56 60
        E 0 90 60 60
        E 0 90 61 60
        E 0 90 63 60
        E 60 80 48 00
        E 0 80 4a 00
        E 0 80 54 00
        E 0 80 56 00
        E 0 80 60 00
        E 0 80 61 00
        E 0 80 63 00
        E 180 90 3d 60
        E 0 90 48 60
        E 0 90 4a 60
        E 0 90 54 60
        E 0 90 56 60
        E 0 90 60 60
        E 0 90 61 60
        E 0 90 63 60
        E 60 80 3d 00
        E 0 80 48 00
        E 0 80 4a 00
        E 0 80 54 00
        E 0 80 56 00
        E 0 80 60 00
        E 0 80 61 00
        E 0 80 63 00
        E 180 90 48 60
        E 0 90 4a 60
        E 0 90 54 60
        E 0 90 56 60
        E 0 90 60 60
        E 0 90 61 60
        E 0 90 63 60
        E 60 80 48 00
        E 0 80 4a 00
        E 0 80 54 00
        E 0 80 56 00
        E 0 80 60 00
        E 0 80 61 00
        E 0 80 63 00
        E 180 90 3d 60
        E 0 90 48 60
        E 0 90 4a 60
        E 0 90 54 60
        E 0 90 56 60
        E 0 90 60 60
        E 0 90 61 60
        E 0 90 63 60
        E 60 80 3d 00
        E 0 80 48 00
        E 0 80 4a 00
        E 0 80 54 00
        E 0 80 56 00
        E 0 80 60 00
        E 0 80 61 00
        E 0 80 63 00
        E 180 90 48 60
        E 0 90 4a 60
        E 0 90 54 60
        E 0 90 56 60
        E 0 90 60 60
        E 0 90 61 60
        E 0 90 63 60
        E 60 80 48 00
        E 0 80 4a 00
        E 0 80 54 00
        E 0 80 56 00
        E 0 80 60 00
        E 0 80 61 00
        E 0 80 63 00
        E 180 90 3d 60
        E 0 90 48 60
        E 0 90 4a 60
        E 0 90 54 60
        E 0 90 56 60
        E 0 90 60 60
        E 0 90 61 60
        E 0 90 63 60
        E 60 80 3d 00
        E 0 80 48 00
        E 0 80 4a 00
        E 0 80 54 00
        E 0 80 56 00
        E 0 80 60 00
        E 0 80 61 00
        E 0 80 63 00
        E 180 90 48 60
        E 0 90 4a 60
        E 0 90 54 60
        E 0 90 56 60
        E 0 90 60 60
        E 0 90 61 60
        E 0 90 63 60
        E 60 80 48 00
        E 0 80 4a 00
        E 0 80 54 00
        E 0 80 56 00
        E 0 80 60 00
        E 0 80 61 00
        E 0 80 63 00
        E 180 90 3d 60
        E 0 90 48 60
        E 0 90 4a 60
        E 0 90 54 60
        E 0 90 56 60
        E 0 90 60 60
        E 0 90 61 60
        E 0 90 63 60
        E 60 80 3d 00
        E 0 80 48 00
        E 0 80 4a 00
        E 0 80 54 00
        E 0 80 56 00
        E 0 80 60 00
        E 0 80 61 00
        E 0 80 63 00
        E 180 90 48 60
        E 0 90 4a 60
        E 0 90 54 60
        E 0 90 56 60
        E 0 90 60 60
        E 0 90 61 60
        E 0 90 63 60
        E 60 80 48 00
        E 0 80 4a 00
        E 0 80 54 00
        E 0 80 56 00
        E 0 80 60 00
        E 0 80 61 00
        E 0 80 63 00
        E 180 90 48 60
        E 0 90 4a 60
        E 0 90 54 60
        E 0 90 56 60
        E 0 90 60 60
        E 0 90 61 60
        E 0 90 63 60
        E 60 80 48 00
        E 0 80 4a 00
        E 0 80 54 00
        E 0 80 56 00
        E 0 80 60 00
        E 0 80 61 00
        E 0 80 63 00
        E 180 90 54 60
        E 0 90 56 60
        E 0 90 60 60
        E 0 90 61 60
        E 0 90 63 60
        E 60 80 54 00
        E 0 80 56 00
        E 0 80 60 00
        E 0 80 61 00
        E 0 80 63 00
        E 180 90 3c 60
        E 0 90 48 60
        E 0 90 54 60
        E 0 90 60 60
        E 60 80 3c 00
        E 0 80 48 00
        E 0 80 54 00
        E 0 80 60 00
        E 180 90 48 60
        E 0 90 54 60
        E 0 90 60 60
        E 60 80 48 00
        E 0 80 54 00
        E 0 80 60 00
        E 180 90 3c 60
        E 0 90 48 60
        E 0 90 54 60
        E 0 90 60 60
        E 60 80 3c 00
        E 0 80 48 00
        E 0 80 54 00
        E 0 80 60 00
        E 180 90 48 60
        E 0 90 54 60
        E 0 90 60 60
        E 60 80 48 00
        E 0 80 54 00
        E 0 80 60 00
        E 180 90 3c 60
        E 0 90 48 60
        E 0 90 54 60
        E 0 90 60 60
        E 60 80 3c 00
        E 0 80 48 00
        E 0 80 54 00
        E 0 80 60 00
        E 180 90 48 60
        E 0 90 54 60
        E 0 90 60 60
        E 60 80 48 00
        E 0 80 54 00
        E 0 80 60 00
        E 180 90 3c 60
        E 0 90 48 60
        E 0 90 54 60
        E 0 90 60 60
        E 60 80 3c 00
        E 0 80 48 00
        E 0 80 54 00
        E 0 80 60 00
        E 180 90 48 60
        E 0 90 54 60
        E 0 90 60 60
        E 60 80 48 00
        E 0 80 54 00
        E 0 80 60 00
        E 180 90 3c 60
        E 0 90 48 60
        E 0 90 54 60
        E 0 90 60 60
        E 60 80 3c 00
        E 0 80 48 00
        E 0 80 54 00
        E 0 80 60 00
        E 180 90 48 60
        E 0 90 54 60
        E 0 90 60 60
        E 60 80 48 00
        E 0 80 54 00
        E 0 80 60 00
        E 180 90 3c 60
        E 0 90 48 60
        E 0 90 54 60
        E 0 90 60 60
        E 60 80 3c 00
        E 0 80 48 00
        E 0 80 54 00
        E 0 80 60 00
        E 180 90 48 60
        E 0 90 54 60
        E 0 90 60 60
        E 60 80 48 00
        E 0 80 54 00
        E 0 80 60 00
        E 180 90 3c 60
        E 0 90 48 60
        E 0 90 54 60
        E 0 90 60 60
        E 60 80 3c 00
        E 0 80 48 00
        E 0 80 54 00
        E 0 80 60 00
        E 180 90 48 60
        E 0 90 54 60
        E 0 90 60 60
        E 60 80 48 00
        E 0 80 54 00
        E 0 80 60 00
        E 180 90 3c 60
        E 0 90 48 60
        E 0 90 54 60
        E 0 90 60 60
        E 60 80 3c 00
        E 0 80 48 00
        E 0 80 54 00
        E 0 80 60 00
        E 180 90 48 60
        E 0 90 54 60
        E 0 90 60 60
        E 60 80 48 00
        E 0 80 54 00
        E 0 80 60 00
        E 180 90 3c 60
        E 0 90 48 60
        E 0 90 54 60
        E 0 90 60 60
        E 60 80 3c 00
        E 0 80 48 00
        E 0 80 54 00
        E 0 80 60 00
        E 180 90 48 60
        E 0 90 54 60
        E 0 90 60 60
        E 60 80 48 00
        E 0 80 54 00
        E 0 80 60 00
        E 180 90 3c 60
        E 0 90 48 60
        E 0 90 54 60
        E 0 90 60 60
        E 60 80 3c 00
        E 0 80 48 00
        E 0 80 54 00
        E 0 80 60 00
        E 180 90 48 60
        E 0 90 54 60
        E 0 90 60 60
        E 60 80 48 00
        E 0 80 54 00
        E 0 80 60 00
        E 180 90 3c 60
        E 0 90 48 60
        E 0 90 54 60
        E 0 90 60 60
        E 60 80 3c 00
        E 0 80 48 00
        E 0 80 54 00
        E 0 80 60 00
        E 180 90 48 60
        E 0 90 54 60
        E 0 90 60 60
        E 60 80 48 00
        E 0 80 54 00
        E 0 80 60 00
        E 180 90 3c 60
        E 0 90 48 60
        E 0 90 54 60
        E 0 90 60 60
        E 60 80 3c 00
        E 0 80 48 00
        E 0 80 54 00
        E 0 80 60 00
        E 180 90 48 60
        E 0 90 54 60
        E 0 90 60 60
        E 60 80 48 00
        E 0 80 54 00
        E 0 80 60 00
        E 180 90 3c 60
        E 0 90 48 60
        E 0 90 54 60
        E 0 90 60 60
        E 60 80 3c 00
        E 0 80 48 00
        E 0 80 54 00
        E 0 80 60 00
        E 180 90 48 60
        E 0 90 54 60
        E 0 90 60 60
        E 60 80 48 00
        E 0 80 54 00
        E 0 80 60 00
        E 180 90 3c 60
        E 0 90 48 60
        E 0 90 54 60
        E 0 90 60 60
        E 60 80 3c 00
        E 0 80 48 00
        E 0 80 54 00
        E 0 80 60 00
        E 180 90 48 60
        E 0 90 54 60
        E 0 90 60 60
        E 60 80 48 00
        E 0 80 54 00
        E 0 80 60 00
        E 180 90 3c 60
        E 0 90 48 60
        E 0 90 54 60
        E 0 90 60 60
        E 60 80 3c 00
        E 0 80 48 00
        E 0 80 54 00
        E 0 80 60 00
        E 180 90 48 60
        E 0 90 54 60
        E 0 90 60 60
        E 60 80 48 00
        E 0 80 54 00
        E 0 80 60 00
        E 180 90 3c 60
        E 0 90 48 60
        E 0 90 54 60
        E 0 90 60 60
        E 60 80 3c 00
        E 0 80 48 00
        E 0 80 54 00
        E 0 80 60 00
        E 180 90 48 60
        E 0 90 54 60
        E 0 90 60 60
        E 60 80 48 00
        E 0 80 54 00
        E 0 80 60 00
        E 180 90 3c 60
        E 0 90 48 60
        E 0 90 54 60
        E 0 90 60 60
        E 60 80 3c 00
        E 0 80 48 00
        E 0 80 54 00
        E 0 80 60 00
        E 180 90 48 60
        E 0 90 54 60
        E 0 90 60 60
        E 60 80 48 00
        E 0 80 54 00
        E 0 80 60 00
        E 180 90 3c 60
        E 0 90 48 60
        E 0 90 54 60
        E 0 90 60 60
        E 60 80 3c 00
        E 0 80 48 00
        E 0 80 54 00
        E 0 80 60 00
        E 180 90 48 60
        E 0 90 54 60
        E 0 90 60 60
        E 60 80 48 00
        E 0 80 54 00
        E 0 80 60 00
        E 180 90 3c 60
        E 0 90 48 60
        E 0 90 54 60
        E 0 90 60 60
        E 60 80 3c 00
        E 0 80 48 00
        E 0 80 54 00
        E 0 80 60 00
        E 180 90 48 60
        E 0 90 54 60
        E 0 90 60 60
        E 60 80 48 00
        E 0 80 54 00
        E 0 80 60 00
        E 180 90 3c 60
        E 0 90 48 60
        E 0 90 54 60
        E 0 90 60 60
        E 60 80 3c 00
        E 0 80 48 00
        E 0 80 54 00
        E 0 80 60 00
        E 180 90 48 60
        E 0 90 54 60
        E 0 90 60 60
        E 60 80 48 00
        E 0 80 54 00
        E 0 80 60 00
        E 180 90 3c 60
        E 0 90 48 60
        E 0 90 54 60
        E 0 90 60 60
        E 60 80 3c 00
        E 0 80 48 00
        E 0 80 54 00
        E 0 80 60 00
        E 180 90 48 60
        E 0 90 54 60
        E 0 90 60 60
        E 60 80 48 00
        E 0 80 54 00
        E 0 80 60 00
        E 180 90 3c 60
        E 0 90 48 60
        E 0 90 54 60
        E 0 90 60 60
        E 60 80 3c 00
        E 0 80 48 00
        E 0 80 54 00
        E 0 80 60 00
        E 180 90 48 60
        E 0 90 54 60
        E 0 90 60 60
        E 60 80 48 00
        E 0 80 54 00
        E 0 80 60 00
        E 180 90 3c 60
        E 0 90 48 60
        E 0 90 54 60
        E 0 90 60 60
        E 60 80 3c 00
        E 0 80 48 00
        E 0 80 54 00
        E 0 80 60 00
        E 180 90 48 60
        E 0 90 54 60
        E 0 90 60 60
        E 60 80 48 00
        E 0 80 54 00
        E 0 80 60 00
        E 180 90 3c 60
        E 0 90 48 60
        E 0 90 54 60
        E 0 90 60 60
        E 60 80 3c 00
        E 0 80 48 00
        E 0 80 54 00
        E 0 80 60 00
        E 180 90 48 60
        E 0 90 54 60
        E 0 90 60 60
        E 60 80 48 00
        E 0 80 54 00
        E 0 80 60 00
        E 180 90 3c 60
        E 0 90 48 60
        E 0 90 54 60
        E 0 90 60 60
        e 0 90 74 59
        E 60 80 3c 00
        E 0 80 48 00
        E 0 80 54 00
        E 0 80 60 00
        E 180 90 54 60
        E 0 90 60 60
        E 60 80 54 00
        E 0 80 60 00
        E 180 90 49 60
        E 0 90 4a 60
        E 0 90 54 60
        E 0 90 57 60
        E 0 90 60 60
        E 0 90 62 60
        E 0 90 63 60
        E 60 80 49 00
        E 0 80 4a 00
        E 0 80 54 00
        E 0 80 57 00
        E 0 80 60 00
        E 0 80 62 00
        E 0 80 63 00
        E 180 90 49 60
        E 0 90 4a 60
        E 0 90 54 60
        E 0 90 57 60
        E 0 90 60 60
        E 0 90 62 60
        E 0 90 63 60
        E 60 80 49 00
        E 0 80 4a 00
        E 0 80 54 00
        E 0 80 57 00
        E 0 80 60 00
        E 0 80 62 00
        E 0 80 63 00
        E 180 90 3e 60
        E 0 90 49 60
        E 0 90 4a 60
        E 0 90 54 60
        E 0 90 57 60
        E 0 90 60 60
        E 0 90 62 60
        E 0 90 63 60
        E 60 80 3e 00
        E 0 80 49 00
        E 0 80 4a 00
        E 0 80 54 00
        E 0 80 57 00
        E 0 80 60 00
        E 0 80 62 00
        E 0 80 63 00
        E 180 90 49 60
        E 0 90 4a 60
        E 0 90 54 60
        E 0 90 57 60
        E 0 90 60 60
        E 0 90 62 60
        E 0 90 63 60
        E 60 80 49 00
        E 0 80 4a 00
        E 0 80 54 00
        E 0 80 57 00
        E 0 80 60 00
        E 0 80 62 00
        E 0 80 63 00
        E 180 90 3e 60
        E 0 90 49 60
        E 0 90 4a 60
        E 0 90 54 60
        E 0 90 57 60
        E 0 90 60 60
        E 0 90 62 60
        E 0 90 63 60
        E 60 80 3e 00
        E 0 80 49 00
        E 0 80 4a 00
        E 0 80 54 00
        E 0 80 57 00
        E 0 80 60 00
        E 0 80 62 00
        E 0 80 63 00
        E 180 90 49 60
        E 0 90 4a 60
        E 0 90 54 60
        E 0 90 57 60
        E 0 90 60 60
        E 0 90 62 60
        E 0 90 63 60
        E 60 80 49 00
        E 0 80 4a 00
        E 0 80 54 00
        E 0 80 57 00
        E 0 80 60 00
        E 0 80 62 00
        E 0 80 63 00
        E 180 90 3e 60
        E 0 90 49 60
        E 0 90 4a 60
        E 0 90 54 60
        E 0 90 57 60
        E 0 90 60 60
        E 0 90 62 60
        E 0 90 63 60
        E 60 80 3e 00
        E 0 80 49 00
        E 0 80 4a 00
        E 0 80 54 00
        E 0 80 57 00
        E 0 80 60 00
        E 0 80 62 00
        E 0 80 63 00
        e 240 80 74 00
        E 180 90 48 60
        E 0 90 54 60
        E 0 90 60 60
        E 60 80 48 00
        E 0 80 54 00
        E 0 80 60 00
        E 180 90 48 60
        E 0 90 54 60
        E 0 90 60 60
        E 60 80 48 00
        E 0 80 54 00
        E 0 80 60 00
        E 180 90 3c 60
        E 0 90 48 60
        E 0 90 54 60
        E 0 90 60 60
        E 60 80 3c 00
        E 0 80 48 00
        E 0 80 54 00
        E 0 80 60 00
        E 180 90 48 60
        E 0 90 54 60
        E 0 90 60 60
        E 60 80 48 00
        E 0 80 54 00
        E 0 80 60 00
        E 180 90 48 60
        E 0 90 54 60
        E 0 90 60 60
        E 60 80 48 00
        E 0 80 54 00
        E 0 80 60 00
        E 180 90 54 60
        E 0 90 60 60
        E 60 80 54 00
        E 0 80 60 00
        E 180 90 3e 60
        E 0 90 49 60
        E 0 90 4a 60
        E 0 90 54 60
        E 0 90 57 60
        E 0 90 60 60
        E 0 90 62 60
        E 0 90 63 60
        E 120 80 3e 00
        E 0 80 49 00
        E 0 80 4a 00
        E 0 80 54 00
        E 0 80 57 00
        E 180 80 60 00
        E 0 80 62 00
        E 0 80 63 00
        E 180 90 48 60
        E 0 90 54 60
        E 0 90 60 60
        E 60 80 48 00
        E 0 80 54 00
        E 0 80 60 00
        E 180 90 54 60
        E 0 90 57 60
        E 0 90 60 60
        E 0 90 62 60
        E 0 90 63 60
        E 600 80 54 00
        E 0 80 57 00
        E 60 80 60 00
        E 0 80 62 00
        E 0 80 63 00
        E 60 90 49 60
        E 0 90 4a 60
        E 0 90 54 60
        E 0 90 57 60
        E 0 90 60 60
        E 0 90 62 60
        E 0 90 63 60
        E 60 80 49 00
        E 0 80 4a 00
        E 0 80 54 00
        E 0 80 57 00
        E 0 80 60 00
        E 0 80 62 00
        E 0 80 63 00
        E 180 90 54 60
        E 0 90 60 60
        E 60 80 54 00
        E 0 80 60 00
        E 180 90 3c 60
        E 0 90 48 60
        E 0 90 49 60
        E 0 90 54 60
        E 0 90 55 60
        E 0 90 60 60
        E 0 90 61 60
        E 0 90 62 60
        E 120 80 3c 00
        E 0 80 48 00
        E 0 80 49 00
        E 0 80 54 00
        E 0 80 55 00
        E 180 80 60 00
        E 0 80 61 00
        E 0 80 62 00
        E 180 90 48 60
        E 0 90 54 60
        E 0 90 60 60
        E 60 80 48 00
        E 0 80 54 00
        E 0 80 60 00
        E 180 90 54 60
        E 0 90 55 60
        E 0 90 60 60
        E 0 90 61 60
        E 0 90 62 60
        E 600 80 54 00
        E 0 80 55 00
        E 60 80 60 00
        E 0 80 61 00
        E 0 80 62 00
        E 60 90 48 60
        E 0 90 49 60
        E 0 90 54 60
        E 0 90 55 60
        E 0 90 60 60
        E 0 90 61 60
        E 0 90 62 60
        E 60 80 48 00
        E 0 80 49 00
        E 0 80 54 00
        E 0 80 55 00
        E 0 80 60 00
        E 0 80 61 00
        E 0 80 62 00
        E 180 90 55 60
        E 0 90 61 60
        E 60 80 55 00
        E 0 80 61 00
        E 180 90 3f 60
        E 0 90 49 60
        E 0 90 4b 60
        E 0 90 55 60
        E 0 90 57 60
        E 0 90 61 60
        E 0 90 62 60
        E 0 90 63 60
        E 120 80 3f 00
        E 0 80 49 00
        E 0 80 4b 00
        E 0 80 55 00
        E 0 80 57 00
        E 180 80 61 00
        E 0 80 62 00
        E 0 80 63 00
        E 180 90 49 60
        E 0 90 55 60
        E 0 90 61 60
        E 60 80 49 00
        E 0 80 55 00
        E 0 80 61 00
        E 180 90 55 60
        E 0 90 57 60
        E 0 90 61 60
        E 0 90 62 60
        E 0 90 63 60
        E 600 80 55 00
        E 0 80 57 00
        E 60 80 61 00
        E 0 80 62 00
        E 0 80 63 00
        E 60 90 3f 60
        E 0 90 49 60
        E 0 90 4b 60
        E 0 90 55 60
        E 0 90 57 60
        E 0 90 61 60
        E 0 90 62 60
        E 0 90 63 60
        E 60 80 3f 00
        E 0 80 49 00
        E 0 80 4b 00
        E 0 80 55 00
        E 0 80 57 00
        E 0 80 61 00
        E 0 80 62 00
        E 0 80 63 00
        E 180 90 55 60
        E 0 90 61 60
        E 60 80 55 00
        E 0 80 61 00
        E 180 90 3f 60
        E 0 90 49 60
        E 0 90 4b 60
        E 0 90 55 60
        E 0 90 57 60
        E 0 90 61 60
        E 0 90 62 60
        E 0 90 63 60
        E 120 80 3f 00
        E 0 80 49 00
        E 0 80 4b 00
        E 0 80 55 00
        E 0 80 57 00
        E 180 80 61 00
        E 0 80 62 00
        E 0 80 63 00
        E 180 90 49 60
        E 0 90 4b 60
        E 0 90 55 60
        E 0 90 57 60
        E 0 90 61 60
        E 0 90 62 60
        E 0 90 63 60
        E 60 80 49 00
        E 0 80 4b 00
        E 0 80 55 00
        E 0 80 57 00
        E 0 80 61 00
        E 0 80 62 00
        E 0 80 63 00
        E 180 90 54 60
        E 0 90 60 60
        E 60 80 54 00
        E 0 80 60 00
        E 180 90 3d 60
        E 0 90 48 60
        E 0 90 4a 60
        E 0 90 54 60
        E 0 90 56 60
        E 0 90 60 60
        E 0 90 61 60
        E 0 90 63 60
        E 120 80 3d 00
        E 0 80 48 00
        E 0 80 4a 00
        E 0 80 54 00
        E 0 80 56 00
        E 180 80 60 00
        E 0 80 61 00
        E 0 80 63 00
        E 180 90 48 60
        E 0 90 4a 60
        E 0 90 54 60
        E 0 90 56 60
        E 0 90 60 60
        E 0 90 61 60
        E 0 90 63 60
        E 60 80 48 00
        E 0 80 4a 00
        E 0 80 54 00
        E 0 80 56 00
        E 0 80 60 00
        E 0 80 61 00
        E 0 80 63 00
        E 180 90 54 60
        E 0 90 60 60
        E 60 80 54 00
        E 0 80 60 00
        E 180 90 3e 60
        E 0 90 49 60
        E 0 90 4a 60
        E 0 90 54 60
        E 0 90 57 60
        E 0 90 60 60
        E 0 90 62 60
        E 0 90 63 60
        E 120 80 3e 00
        E 0 80 49 00
        E 0 80 4a 00
        E 0 80 54 00
        E 0 80 57 00
        E 180 80 60 00
        E 0 80 62 00
        E 0 80 63 00
        E 180 90 48 60
        E 0 90 54 60
        E 0 90 60 60
        E 60 80 48 00
        E 0 80 54 00
        E 0 80 60 00
        E 180 90 54 60
        E 0 90 57 60
        E 0 90 60 60
        E 0 90 62 60
        E 0 90 63 60
        E 600 80 54 00
        E 0 80 57 00
        E 60 80 60 00
        E 0 80 62 00
        E 0 80 63 00
        E 60 90 49 60
        E 0 90 4a 60
        E 0 90 54 60
        E 0 90 57 60
        E 0 90 60 60
        E 0 90 62 60
        E 0 90 63 60
        E 60 80 49 00
        E 0 80 4a 00
        E 0 80 54 00
        E 0 80 57 00
        E 0 80 60 00
        E 0 80 62 00
        E 0 80 63 00
        E 180 90 54 60
        E 0 90 60 60
        E 60 80 54 00
        E 0 80 60 00
        E 180 90 3c 60
        E 0 90 48 60
        E 0 90 49 60
        E 0 90 54 60
        E 0 90 55 60
        E 0 90 60 60
        E 0 90 61 60
        E 0 90 62 60
        E 120 80 3c 00
        E 0 80 48 00
        E 0 80 49 00
        E 0 80 54 00
        E 0 80 55 00
        E 180 80 60 00
        E 0 80 61 00
        E 0 80 62 00
        E 180 90 48 60
        E 0 90 54 60
        E 0 90 60 60
        E 60 80 48 00
        E 0 80 54 00
        E 0 80 60 00
        E 180 90 54 60
        E 0 90 55 60
        E 0 90 60 60
        E 0 90 61 60
        E 0 90 62 60
        E 600 80 54 00
        E 0 80 55 00
        E 60 80 60 00
        E 0 80 61 00
        E 0 80 62 00
        E 60 90 48 60
        E 0 90 49 60
        E 0 90 54 60
        E 0 90 55 60
        E 0 90 60 60
        E 0 90 61 60
        E 0 90 62 60
        E 60 80 48 00
        E 0 80 49 00
        E 0 80 54 00
        E 0 80 55 00
        E 0 80 60 00
        E 0 80 61 00
        E 0 80 62 00
        E 180 90 55 60
        E 0 90 61 60
        E 60 80 55 00
        E 0 80 61 00
        E 180 90 3f 60
        E 0 90 49 60
        E 0 90 4b 60
        E 0 90 55 60
        E 0 90 57 60
        E 0 90 61 60
        E 0 90 62 60
        E 0 90 63 60
        E 120 80 3f 00
        E 0 80 49 00
        E 0 80 4b 00
        E 0 80 55 00
        E 0 80 57 00
        E 180 80 61 00
        E 0 80 62 00
        E 0 80 63 00
        E 180 90 49 60
        E 0 90 55 60
        E 0 90 61 60
        E 60 80 49 00
        E 0 80 55 00
        E 0 80 61 00
        E 180 90 55 60
        E 0 90 57 60
        E 0 90 61 60
        E 0 90 62 60
        E 0 90 63 60
        E 600 80 55 00
        E 0 80 57 00
        E 60 80 61 00
        E 0 80 62 00
        E 0 80 63 00
        E 60 90 3f 60
        E 0 90 49 60
        E 0 90 4b 60
        E 0 90 55 60
        E 0 90 57 60
        E 0 90 61 60
        E 0 90 62 60
        E 0 90 63 60
        E 60 80 3f 00
        E 0 80 49 00
        E 0 80 4b 00
        E 0 80 55 00
        E 0 80 57 00
        E 0 80 61 00
        E 0 80 62 00
        E 0 80 63 00
        E 180 90 55 60
        E 0 90 61 60
        E 60 80 55 00
        E 0 80 61 00
        E 180 90 3f 60
        E 0 90 49 60
        E 0 90 4b 60
        E 0 90 55 60
        E 0 90 57 60
        E 0 90 61 60
        E 0 90 62 60
        E 0 90 63 60
        E 120 80 3f 00
        E 0 80 49 00
        E 0 80 4b 00
        E 0 80 55 00
        E 0 80 57 00
        E 180 80 61 00
        E 0 80 62 00
        E 0 80 63 00
        E 180 90 49 60
        E 0 90 4b 60
        E 0 90 55 60
        E 0 90 57 60
        E 0 90 61 60
        E 0 90 62 60
        E 0 90 63 60
        E 60 80 49 00
        E 0 80 4b 00
        E 0 80 55 00
        E 0 80 57 00
        E 0 80 61 00
        E 0 80 62 00
        E 0 80 63 00
        E 180 90 54 60
        E 0 90 60 60
        E 60 80 54 00
        E 0 80 60 00
        E 180 90 3d 60
        E 0 90 48 60
        E 0 90 4a 60
        E 0 90 54 60
        E 0 90 56 60
        E 0 90 60 60
        E 0 90 61 60
        E 0 90 63 60
        E 120 80 3d 00
        E 0 80 48 00
        E 0 80 4a 00
        E 0 80 54 00
        E 0 80 56 00
        E 180 80 60 00
        E 0 80 61 00
        E 0 80 63 00
        E 180 90 48 60
        E 0 90 4a 60
        E 0 90 54 60
        E 0 90 56 60
        E 0 90 60 60
        E 0 90 61 60
        E 0 90 63 60
        E 60 80 48 00
        E 0 80 4a 00
        E 0 80 54 00
        E 0 80 56 00
        E 0 80 60 00
        E 0 80 61 00
        E 0 80 63 00
        E 180 90 54 60
        E 0 90 60 60
        E 60 80 54 00
        E 0 80 60 00
        E 180 90 3e 60
        E 0 90 49 60
        E 0 90 4a 60
        E 0 90 54 60
        E 0 90 57 60
        E 0 90 60 60
        E 0 90 62 60
        E 0 90 63 60
        E 120 80 3e 00
        E 0 80 49 00
        E 0 80 4a 00
        E 0 80 54 00
        E 0 80 57 00
        E 180 80 60 00
        E 0 80 62 00
        E 0 80 63 00
        E 180 90 48 60
        E 0 90 54 60
        E 0 90 60 60
        E 60 80 48 00
        E 0 80 54 00
        E 0 80 60 00
        E 180 90 54 60
        E 0 90 57 60
        E 0 90 60 60
        E 0 90 62 60
        E 0 90 63 60
        E 600 80 54 00
        E 0 80 57 00
        E 60 80 60 00
        E 0 80 62 00
        E 0 80 63 00
        E 60 90 49 60
        E 0 90 4a 60
        E 0 90 54 60
        E 0 90 57 60
        E 0 90 60 60
        E 0 90 62 60
        E 0 90 63 60
        E 60 80 49 00
        E 0 80 4a 00
        E 0 80 54 00
        E 0 80 57 00
        E 0 80 60 00
        E 0 80 62 00
        E 0 80 63 00
        E 180 90 54 60
        E 0 90 60 60
        E 60 80 54 00
        E 0 80 60 00
        E 180 90 3c 60
        E 0 90 48 60
        E 0 90 49 60
        E 0 90 54 60
        E 0 90 55 60
        E 0 90 60 60
        E 0 90 61 60
        E 0 90 62 60
        E 120 80 3c 00
        E 0 80 48 00
        E 0 80 49 00
        E 0 80 54 00
        E 0 80 55 00
        E 180 80 60 00
        E 0 80 61 00
        E 0 80 62 00
        E 180 90 48 60
        E 0 90 54 60
        E 0 90 60 60
        E 60 80 48 00
        E 0 80 54 00
        E 0 80 60 00
        E 180 90 54 60
        E 0 90 55 60
        E 0 90 60 60
        E 0 90 61 60
        E 0 90 62 60
        E 600 80 54 00
        E 0 80 55 00
        E 60 80 60 00
        E 0 80 61 00
        E 0 80 62 00
        E 60 90 48 60
        E 0 90 49 60
        E 0 90 54 60
        E 0 90 55 60
        E 0 90 60 60
        E 0 90 61 60
        E 0 90 62 60
        E 60 80 48 00
        E 0 80 49 00
        E 0 80 54 00
        E 0 80 55 00
        E 0 80 60 00
        E 0 80 61 00
        E 0 80 62 00
        E 180 90 55 60
        E 0 90 61 60
        E 52 90 74 12
        E 8 80 55 00
        E 0 80 61 00
        E 180 90 3f 60
        E 0 90 49 60
        E 0 90 4b 60
        E 0 90 55 60
        E 0 90 57 60
        E 0 90 61 60
        E 0 90 62 60
        E 0 90 63 60
        E 120 80 3f 00
        E 0 80 49 00
        E 0 80 4b 00
        E 0 80 55 00
        E 0 80 57 00
        E 180 80 61 00
        E 0 80 62 00
        E 0 80 63 00
        E 180 90 49 60
        E 0 90 55 60
        E 0 90 61 60
        E 60 80 49 00
        E 0 80 55 00
        E 0 80 61 00
        E 180 90 55 60
        E 0 90 57 60
        E 0 90 61 60
        E 0 90 62 60
        E 0 90 63 60
        E 600 80 55 00
        E 0 80 57 00
        E 60 80 61 00
        E 0 80 62 00
        E 0 80 63 00
        E 60 90 3f 60
        E 0 90 49 60
        E 0 90 4b 60
        E 0 90 55 60
        E 0 90 57 60
        E 0 90 61 60
        E 0 90 62 60
        E 0 90 63 60
        E 60 80 3f 00
        E 0 80 49 00
        E 0 80 4b 00
        E 0 80 55 00
        E 0 80 57 00
        E 0 80 61 00
        E 0 80 62 00
        E 0 80 63 00
        E 180 90 55 60
        E 0 90 61 60
        E 60 80 55 00
        E 0 80 61 00
        E 180 90 3f 60
        E 0 90 49 60
        E 0 90 4b 60
        E 0 90 55 60
        E 0 90 57 60
        E 0 90 61 60
        E 0 90 62 60
        E 0 90 63 60
        E 120 80 3f 00
        E 0 80 49 00
        E 0 80 4b 00
        E 0 80 55 00
        E 0 80 57 00
        E 180 80 61 00
        E 0 80 62 00
        E 0 80 63 00
        E 180 90 49 60
        E 0 90 4b 60
        E 0 90 55 60
        E 0 90 57 60
        E 0 90 61 60
        E 0 90 62 60
        E 0 90 63 60
        E 60 80 49 00
        E 0 80 4b 00
        E 0 80 55 00
        E 0 80 57 00
        E 0 80 61 00
        E 0 80 62 00
        E 0 80 63 00
        E 180 90 54 60
        E 0 90 60 60
        E 60 80 54 00
        E 0 80 60 00
        E 180 90 3d 60
        E 0 90 48 60
        E 0 90 4a 60
        E 0 90 54 60
        E 0 90 56 60
        E 0 90 60 60
        E 0 90 61 60
        E 0 90 63 60
        E 120 80 3d 00
        E 0 80 48 00
        E 0 80 4a 00
        E 0 80 54 00
        E 0 80 56 00
        E 180 80 60 00
        E 0 80 61 00
        E 0 80 63 00
        E 180 90 48 60
        E 0 90 4a 60
        E 0 90 54 60
        E 0 90 56 60
        E 0 90 60 60
        E 0 90 61 60
        E 0 90 63 60
        E 60 80 48 00
        E 0 80 4a 00
        E 0 80 54 00
        E 0 80 56 00
        E 0 80 60 00
        E 0 80 61 00
        E 0 80 63 00
        E 172 80 74 00
        E 8 90 54 60
        E 0 90 60 60
        E 60 80 54 00
        E 0 80 60 00
        E 180 90 3e 60
        E 0 90 49 60
        E 0 90 4a 60
        E 0 90 54 60
        E 0 90 57 60
        E 0 90 60 60
        E 0 90 62 60
        E 0 90 63 60
        E 120 80 3e 00
        E 0 80 49 00
        E 0 80 4a 00
        E 0 80 54 00
        E 0 80 57 00
        E 180 80 60 00
        E 0 80 62 00
        E 0 80 63 00
        E 180 90 48 60
        E 0 90 54 60
        E 0 90 60 60
        E 60 80 48 00
        E 0 80 54 00
        E 0 80 60 00
        E 180 90 54 60
        E 0 90 57 60
        E 0 90 60 60
        E 0 90 62 60
        E 0 90 63 60
        E 600 80 54 00
        E 0 80 57 00
        E 60 80 60 00
        E 0 80 62 00
        E 0 80 63 00
        E 60 90 49 60
        E 0 90 4a 60
        E 0 90 54 60
        E 0 90 57 60
        E 0 90 60 60
        E 0 90 62 60
        E 0 90 63 60
        E 60 80 49 00
        E 0 80 4a 00
        E 0 80 54 00
        E 0 80 57 00
        E 0 80 60 00
        E 0 80 62 00
        E 0 80 63 00
        E 180 90 54 60
        E 0 90 60 60
        E 60 80 54 00
        E 0 80 60 00
        E 180 90 3c 60
        E 0 90 48 60
        E 0 90 49 60
        E 0 90 54 60
        E 0 90 55 60
        E 0 90 60 60
        E 0 90 61 60
        E 0 90 62 60
        E 120 80 3c 00
        E 0 80 48 00
        E 0 80 49 00
        E 0 80 54 00
        E 0 80 55 00
        E 180 80 60 00
        E 0 80 61 00
        E 0 80 62 00
        E 180 90 48 60
        E 0 90 54 60
        E 0 90 60 60
        E 60 80 48 00
        E 0 80 54 00
        E 0 80 60 00
        E 180 90 54 60
        E 0 90 55 60
        E 0 90 60 60
        E 0 90 61 60
        E 0 90 62 60
        E 600 80 54 00
        E 0 80 55 00
        E 60 80 60 00
        E 0 80 61 00
        E 0 80 62 00
        E 60 90 48 60
        E 0 90 49 60
        E 0 90 54 60
        E 0 90 55 60
        E 0 90 60 60
        E 0 90 61 60
        E 0 90 62 60
        E 60 80 48 00
        E 0 80 49 00
        E 0 80 54 00
        E 0 80 55 00
        E 0 80 60 00
        E 0 80 61 00
        E 0 80 62 00
        E 180 90 55 60
        E 0 90 61 60
        E 60 80 55 00
        E 0 80 61 00
        E 180 90 3f 60
        E 0 90 49 60
        E 0 90 4b 60
        E 0 90 55 60
        E 0 90 57 60
        E 0 90 61 60
        E 0 90 62 60
        E 0 90 63 60
        E 120 80 3f 00
        E 0 80 49 00
        E 0 80 4b 00
        E 0 80 55 00
        E 0 80 57 00
        E 180 80 61 00
        E 0 80 62 00
        E 0 80 63 00
        E 180 90 49 60
        E 0 90 55 60
        E 0 90 61 60
        E 60 80 49 00
        E 0 80 55 00
        E 0 80 61 00
        E 180 90 55 60
        E 0 90 57 60
        E 0 90 61 60
        E 0 90 62 60
        E 0 90 63 60
        E 600 80 55 00
        E 0 80 57 00
        E 60 80 61 00
        E 0 80 62 00
        E 0 80 63 00
        E 60 90 3f 60
        E 0 90 49 60
        E 0 90 4b 60
        E 0 90 55 60
        E 0 90 57 60
        E 0 90 61 60
        E 0 90 62 60
        E 0 90 63 60
        E 60 80 3f 00
        E 0 80 49 00
        E 0 80 4b 00
        E 0 80 55 00
        E 0 80 57 00
        E 0 80 61 00
        E 0 80 62 00
        E 0 80 63 00
        E 180 90 55 60
        E 0 90 61 60
        E 60 80 55 00
        E 0 80 61 00
        E 180 90 3f 60
        E 0 90 49 60
        E 0 90 4b 60
        E 0 90 55 60
        E 0 90 57 60
        E 0 90 61 60
        E 0 90 62 60
        E 0 90 63 60
        E 120 80 3f 00
        E 0 80 49 00
        E 0 80 4b 00
        E 0 80 55 00
        E 0 80 57 00
        E 180 80 61 00
        E 0 80 62 00
        E 0 80 63 00
        E 180 90 49 60
        E 0 90 4b 60
        E 0 90 55 60
        E 0 90 57 60
        E 0 90 61 60
        E 0 90 62 60
        E 0 90 63 60
        E 60 80 49 00
        E 0 80 4b 00
        E 0 80 55 00
        E 0 80 57 00
        E 0 80 61 00
        E 0 80 62 00
        E 0 80 63 00
        E 180 90 54 60
        E 0 90 60 60
        E 60 80 54 00
        E 0 80 60 00
        E 180 90 3d 60
        E 0 90 48 60
        E 0 90 4a 60
        E 0 90 54 60
        E 0 90 56 60
        E 0 90 60 60
        E 0 90 61 60
        E 0 90 63 60
        E 120 80 3d 00
        E 0 80 48 00
        E 0 80 4a 00
        E 0 80 54 00
        E 0 80 56 00
        E 180 80 60 00
        E 0 80 61 00
        E 0 80 63 00
        E 180 90 48 60
        E 0 90 4a 60
        E 0 90 54 60
        E 0 90 56 60
        E 0 90 60 60
        E 0 90 61 60
        E 0 90 63 60
        E 60 80 48 00
        E 0 80 4a 00
        E 0 80 54 00
        E 0 80 56 00
        E 0 80 60 00
        E 0 80 61 00
        E 0 80 63 00
        E 180 90 54 60
        E 0 90 60 60
        E 60 80 54 00
        E 0 80 60 00
        E 180 90 3e 60
        E 0 90 49 60
        E 0 90 4a 60
        E 0 90 54 60
        E 0 90 57 60
        E 0 90 60 60
        E 0 90 62 60
        E 0 90 63 60
        E 120 80 3e 00
        E 0 80 49 00
        E 0 80 4a 00
        E 0 80 54 00
        E 0 80 57 00
        E 180 80 60 00
        E 0 80 62 00
        E 0 80 63 00
        E 180 90 48 60
        E 0 90 54 60
        E 0 90 60 60
        E 60 80 48 00
        E 0 80 54 00
        E 0 80 60 00
        E 180 90 54 60
        E 0 90 57 60
        E 0 90 60 60
        E 0 90 62 60
        E 0 90 63 60
        E 600 80 54 00
        E 0 80 57 00
        E 60 80 60 00
        E 0 80 62 00
        E 0 80 63 00
        E 60 90 49 60
        E 0 90 4a 60
        E 0 90 54 60
        E 0 90 57 60
        E 0 90 60 60
        E 0 90 62 60
        E 0 90 63 60
        E 60 80 49 00
        E 0 80 4a 00
        E 0 80 54 00
        E 0 80 57 00
        E 0 80 60 00
        E 0 80 62 00
        E 0 80 63 00
        E 180 90 54 60
        E 0 90 60 60
        E 60 80 54 00
        E 0 80 60 00
        E 180 90 3c 60
        E 0 90 48 60
        E 0 90 49 60
        E 0 90 54 60
        E 0 90 55 60
        E 0 90 60 60
        E 0 90 61 60
        E 0 90 62 60
        E 120 80 3c 00
        E 0 80 48 00
        E 0 80 49 00
        E 0 80 54 00
        E 0 80 55 00
        E 180 80 60 00
        E 0 80 61 00
        E 0 80 62 00
        E 180 90 48 60
        E 0 90 54 60
        E 0 90 60 60
        E 60 80 48 00
        E 0 80 54 00
        E 0 80 60 00
        E 180 90 54 60
        E 0 90 55 60
        E 0 90 60 60
        E 0 90 61 60
        E 0 90 62 60
        E 600 80 54 00
        E 0 80 55 00
        E 60 80 60 00
        E 0 80 61 00
        E 0 80 62 00
        E 60 90 48 60
        E 0 90 49 60
        E 0 90 54 60
        E 0 90 55 60
        E 0 90 60 60
        E 0 90 61 60
        E 0 90 62 60
        E 60 80 48 00
        E 0 80 49 00
        E 0 80 54 00
        E 0 80 55 00
        E 0 80 60 00
        E 0 80 61 00
        E 0 80 62 00
        E 180 90 55 60
        E 0 90 61 60
        E 60 80 55 00
        E 0 80 61 00
        E 180 90 3f 60
        E 0 90 49 60
        E 0 90 4b 60
        E 0 90 55 60
        E 0 90 57 60
        E 0 90 61 60
        E 0 90 62 60
        E 0 90 63 60
        E 120 80 3f 00
        E 0 80 49 00
        E 0 80 4b 00
        E 0 80 55 00
        E 0 80 57 00
        E 180 80 61 00
        E 0 80 62 00
        E 0 80 63 00
        E 180 90 49 60
        E 0 90 55 60
        E 0 90 61 60
        E 60 80 49 00
        E 0 80 55 00
        E 0 80 61 00
        E 180 90 55 60
        E 0 90 57 60
        E 0 90 61 60
        E 0 90 62 60
        E 0 90 63 60
        E 600 80 55 00
        E 0 80 57 00
        E 60 80 61 00
        E 0 80 62 00
        E 0 80 63 00
        E 60 90 3f 60
        E 0 90 49 60
        E 0 90 4b 60
        E 0 90 55 60
        E 0 90 57 60
        E 0 90 61 60
        E 0 90 62 60
        E 0 90 63 60
        E 60 80 3f 00
        E 0 80 49 00
        E 0 80 4b 00
        E 0 80 55 00
        E 0 80 57 00
        E 0 80 61 00
        E 0 80 62 00
        E 0 80 63 00
        E 180 90 55 60
        E 0 90 61 60
        E 60 80 55 00
        E 0 80 61 00
        E 180 90 3f 60
        E 0 90 49 60
        E 0 90 4b 60
        E 0 90 55 60
        E 0 90 57 60
        E 0 90 61 60
        E 0 90 62 60
        E 0 90 63 60
        E 120 80 3f 00
        E 0 80 49 00
        E 0 80 4b 00
        E 0 80 55 00
        E 0 80 57 00
        E 180 80 61 00
        E 0 80 62 00
        E 0 80 63 00
        E 180 90 49 60
        E 0 90 4b 60
        E 0 90 55 60
        E 0 90 57 60
        E 0 90 61 60
        E 0 90 62 60
        E 0 90 63 60
        E 60 80 49 00
        E 0 80 4b 00
        E 0 80 55 00
        E 0 80 57 00
        E 0 80 61 00
        E 0 80 62 00
        E 0 80 63 00
        E 180 90 54 60
        E 0 90 60 60
        E 60 80 54 00
        E 0 80 60 00
        E 180 90 3d 60
        E 0 90 48 60
        E 0 90 4a 60
        E 0 90 54 60
        E 0 90 56 60
        E 0 90 60 60
        E 0 90 61 60
        E 0 90 63 60
        E 120 80 3d 00
        E 0 80 48 00
        E 0 80 4a 00
        E 0 80 54 00
        E 0 80 56 00
        E 180 80 60 00
        E 0 80 61 00
        E 0 80 63 00
        E 180 90 48 60
        E 0 90 4a 60
        E 0 90 54 60
        E 0 90 56 60
        E 0 90 60 60
        E 0 90 61 60
        E 0 90 63 60
        E 60 80 48 00
        E 0 80 4a 00
        E 0 80 54 00
        E 0 80 56 00
        E 0 80 60 00
        E 0 80 61 00
        E 0 80 63 00
        E 180 90 54 60
        E 0 90 60 60
        E 60 80 54 00
        E 0 80 60 00
        E 180 90 3e 60
        E 0 90 49 60
        E 0 90 4a 60
        E 0 90 54 60
        E 0 90 57 60
        E 0 90 60 60
        E 0 90 62 60
        E 0 90 63 60
        E 120 80 3e 00
        E 0 80 49 00
        E 0 80 4a 00
        E 0 80 54 00
        E 0 80 57 00
        E 180 80 60 00
        E 0 80 62 00
        E 0 80 63 00
        E 180 90 48 60
        E 0 90 54 60
        E 0 90 60 60
        E 60 80 48 00
        E 0 80 54 00
        E 0 80 60 00
        E 180 90 54 60
        E 0 90 57 60
        E 0 90 60 60
        E 0 90 62 60
        E 0 90 63 60
        E 600 80 54 00
        E 0 80 57 00
        E 60 80 60 00
        E 0 80 62 00
        E 0 80 63 00
        E 60 90 49 60
        E 0 90 4a 60
        E 0 90 54 60
        E 0 90 57 60
        E 0 90 60 60
        E 0 90 62 60
        E 0 90 63 60
        E 60 80 49 00
        E 0 80 4a 00
        E 0 80 54 00
        E 0 80 57 00
        E 0 80 60 00
        E 0 80 62 00
        E 0 80 63 00
        E 180 90 54 60
        E 0 90 60 60
        E 60 80 54 00
        E 0 80 60 00
        E 180 90 3c 60
        E 0 90 48 60
        E 0 90 49 60
        E 0 90 54 60
        E 0 90 55 60
        E 0 90 60 60
        E 0 90 61 60
        E 0 90 62 60
        E 120 80 3c 00
        E 0 80 48 00
        E 0 80 49 00
        E 0 80 54 00
        E 0 80 55 00
        E 180 80 60 00
        E 0 80 61 00
        E 0 80 62 00
        E 180 90 48 60
        E 0 90 54 60
        E 0 90 60 60
        E 60 80 48 00
        E 0 80 54 00
        E 0 80 60 00
        E 180 90 54 60
        E 0 90 55 60
        E 0 90 60 60
        E 0 90 61 60
        E 0 90 62 60
        E 600 80 54 00
        E 0 80 55 00
        E 60 80 60 00
        E 0 80 61 00
        E 0 80 62 00
        E 60 90 48 60
        E 0 90 49 60
        E 0 90 54 60
        E 0 90 55 60
        E 0 90 60 60
        E 0 90 61 60
        E 0 90 62 60
        E 60 80 48 00
        E 0 80 49 00
        E 0 80 54 00
        E 0 80 55 00
        E 0 80 60 00
        E 0 80 61 00
        E 0 80 62 00
        E 180 90 55 60
        E 0 90 61 60
        E 60 80 55 00
        E 0 80 61 00
        E 180 90 3f 60
        E 0 90 49 60
        E 0 90 4b 60
        E 0 90 55 60
        E 0 90 57 60
        E 0 90 61 60
        E 0 90 62 60
        E 0 90 63 60
        E 120 80 3f 00
        E 0 80 49 00
        E 0 80 4b 00
        E 0 80 55 00
        E 0 80 57 00
        E 180 80 61 00
        E 0 80 62 00
        E 0 80 63 00
        E 180 90 49 60
        E 0 90 55 60
        E 0 90 61 60
        E 60 80 49 00
        E 0 80 55 00
        E 0 80 61 00
        E 180 90 55 60
        E 0 90 57 60
        E 0 90 61 60
        E 0 90 62 60
        E 0 90 63 60
        E 600 80 55 00
        E 0 80 57 00
        E 60 80 61 00
        E 0 80 62 00
        E 0 80 63 00
        E 60 90 3f 60
        E 0 90 49 60
        E 0 90 4b 60
        E 0 90 55 60
        E 0 90 57 60
        E 0 90 61 60
        E 0 90 62 60
        E 0 90 63 60
        E 60 80 3f 00
        E 0 80 49 00
        E 0 80 4b 00
        E 0 80 55 00
        E 0 80 57 00
        E 0 80 61 00
        E 0 80 62 00
        E 0 80 63 00
        E 180 90 55 60
        E 0 90 61 60
        E 60 80 55 00
        E 0 80 61 00
        E 180 90 3f 60
        E 0 90 49 60
        E 0 90 4b 60
        E 0 90 55 60
        E 0 90 57 60
        E 0 90 61 60
        E 0 90 62 60
        E 0 90 63 60
        E 120 80 3f 00
        E 0 80 49 00
        E 0 80 4b 00
        E 0 80 55 00
        E 0 80 57 00
        E 180 80 61 00
        E 0 80 62 00
        E 0 80 63 00
        E 180 90 49 60
        E 0 90 4b 60
        E 0 90 55 60
        E 0 90 57 60
        E 0 90 61 60
        E 0 90 62 60
        E 0 90 63 60
        E 60 80 49 00
        E 0 80 4b 00
        E 0 80 55 00
        E 0 80 57 00
        E 0 80 61 00
        E 0 80 62 00
        E 0 80 63 00
        E 180 90 54 60
        E 0 90 60 60
        E 60 80 54 00
        E 0 80 60 00
        E 180 90 3d 60
        E 0 90 48 60
        E 0 90 4a 60
        E 0 90 54 60
        E 0 90 56 60
        E 0 90 60 60
        E 0 90 61 60
        E 0 90 63 60
        E 120 80 3d 00
        E 0 80 48 00
        E 0 80 4a 00
        E 0 80 54 00
        E 0 80 56 00
        E 180 80 60 00
        E 0 80 61 00
        E 0 80 63 00
        E 180 90 48 60
        E 0 90 4a 60
        E 0 90 54 60
        E 0 90 56 60
        E 0 90 60 60
        E 0 90 61 60
        E 0 90 63 60
        E 60 80 48 00
        E 0 80 4a 00
        E 0 80 54 00
        E 0 80 56 00
        E 0 80 60 00
        E 0 80 61 00
        E 0 80 63 00
        E 180 90 54 60
        E 0 90 60 60
        E 60 80 54 00
        E 0 80 60 00
        E 180 90 3e 60
        E 0 90 49 60
        E 0 90 4a 60
        E 0 90 54 60
        E 0 90 57 60
        E 0 90 60 60
        E 0 90 62 60
        E 0 90 63 60
        E 4320 80 3e 00
        E 0 80 49 00
        E 0 80 4a 00
        E 0 80 54 00
        E 0 80 57 00
        E 0 80 60 00
        E 0 80 62 00
        E 0 80 63 00
        <X 480 0
          /wFbaWRsZV9yZWFsdGltZV0=
        >
        E 2400 b0 7b 00
        GUID {14D9E950-FB92-4048-8603-8FD02AE3B865}
        IGNTEMPO 0 120.00000000 4 4
        SRCCOLOR 1435
        VELLANE 132 38 60
        COLORMAP "C:\Users\wejaa\AppData\Roaming\REAPER\Data\color_maps\rockband_guitarbass.png"
        TEXTSTRINGFILE "Text Events List.txt"
        CFGEDITVIEW -44507.809821 6.365085 0 12 0 0 0
        CFGEDIT 1 1 0 0 0 1 1 1 1 1 1 0.12500000 -8 -8 1370 736 1 2 1 2 0.00000000 0 0 0 0 0.500000 1 0 1.000000 64
        KEYSNAP 0 0 "102034050607" 0 "Major"
        EVTFILTER 0 -1 -1 -1 -1 0 1 0 0 -1.00000000 -1.00000000
      >
    >
  >
  <TRACK '{4342CBF3-2270-47DA-BB30-F559A3EA1758}'
    NAME "guitar_[mvsep.com]"
    PEAKCOL 16576
    BEAT -1
    AUTOMODE 0
    VOLPAN 1.00000000000000 0.00000000000000 -1.00000000000000 -1.00000000000000 1.00000000000000
    MUTESOLO 0 0 0
    IPHASE 0
    ISBUS 0 0
    BUSCOMP 0 0
    SHOWINMIX 1 0.666700 0.500000 1 0.500000 -1 -1 -1
    FREEMODE 0
    SEL 0
    REC 0 0 0 0 0 0 0
    VU 2
    TRACKHEIGHT 32 0
    INQ 0 0 0 0.5000000000 100 0 0 100
    NCHAN 2
    FX 1
    TRACKID {4342CBF3-2270-47DA-BB30-F559A3EA1758}
    PERF 0
    MIDIOUT -1
    MAINSEND 1 0
    <ITEM
      POSITION 2.16421718522906
      SNAPOFFS 0.00000000000000
      LENGTH 255.68852607709749
      LOOP 0
      ALLTAKES 0
      SEL 0
      FADEIN 1 0.000000 0.000000 1 0
      FADEOUT 1 0.000000 0.000000 1 0
      MUTE 0
      IGUID {878844EE-8D69-46FC-8286-F434C58CA2E1}
      IID 146
      NAME "guitar_[mvsep.com].flac"
      VOLPAN 1.000000 0.000000 1.000000 -1.000000
      SOFFS 0.00000000000000
      PLAYRATE 1.00000000000000 1 0.00000000000000 -1
      CHANMODE 0
      GUID {375C5C2D-ED24-4540-966C-3B1133099C9F}
      <SOURCE FLAC
        FILE "guitar_[mvsep.com].flac"
      >
    >
  >
  <TRACK '{C298A11E-8E06-44B8-AA31-429ECCE3F0AF}'
    NAME "PART VOCALS"
    PEAKCOL 16810239
    BEAT -1
    AUTOMODE 0
    VOLPAN 0.99997469241676 0.00000000000000 -1.00000000000000 -1.00000000000000 1.00000000000000
    MUTESOLO 0 0 0
    IPHASE 0
    ISBUS 0 0
    BUSCOMP 1 0
    SHOWINMIX 1 0.666700 0.500000 1 0.500000 -1 -1 -1
    FREEMODE 0
    SEL 0
    REC 0 4096 1 7 0 0 0
    TRACKHEIGHT 0 0
    INQ 0 0 0 0.5000000000 100 0 0 100
    NCHAN 2
    FX 1
    TRACKID {C298A11E-8E06-44B8-AA31-429ECCE3F0AF}
    PERF 0
    MIDIOUT -1
    <MIDINOTENAMES
      0 105 "Phrase Marker"
      0 84 "C5"
      0 36 "C1"
      0 83 "B"
      0 82 "Bb"
      0 81 "A"
      0 80 "G#"
      0 79 "G"
      0 78 "F#"
      0 77 "F"
      0 76 "E"
      0 75 "Eb"
      0 74 "D"
      0 73 "C#"
      0 72 "C4"
      0 71 "B"
      0 70 "Bb"
      0 69 "A"
      0 68 "G#"
      0 67 "G"
      0 66 "F#"
      0 65 "F"
      0 64 "E"
      0 63 "Eb"
      0 62 "D"
      0 61 "C#"
      0 60 "C3"
      0 59 "B"
      0 58 "Bb"
      0 57 "A"
      0 56 "G#"
      0 55 "G"
      0 54 "F#"
      0 53 "F"
      0 52 "E"
      0 51 "Eb"
      0 50 "D"
      0 49 "C#"
      0 48 "C2"
      0 47 "B"
      0 46 "Bb"
      0 45 "A"
      0 44 "G#"
      0 43 "G"
      0 42 "F#"
      0 41 "F"
      0 40 "E"
      0 39 "Eb"
      0 38 "D"
      0 37 "C#"
      0 97 "Not Displayed Percussion"
      0 96 "Displayed Percussion"
      0 104 "----"
      0 95 "----"
      0 116 "OVERDRIVE"
      0 115 "----"
      0 0 "Range Shift"
      0 1 "Lyric Shift"
    >
    MAINSEND 1 0
    <FXCHAIN
      WNDRECT 581 377 716 493
      SHOW 0
      LASTSEL 1
      DOCKED 0
      BYPASS 0 0
      <JS "IX/MIDI_Tool II" ""
        0.000000 85.000000 127.000000 0.000000 0.000000 0.000000 100.000000 0.000000 0.000000 127.000000 0.000000 0.000000 1.000000 0.000000 0.000000 - - - - - - - - - - - - - - - - - - - - - - - - - - - - - - - - - - - - - - - - - - - - - - - - - 
      >
      FLOATPOS 0 0 0 0
      FXID {CA785021-0433-497E-9A6C-EE23A1BC21B0}
      WAK 0
      BYPASS 0 0
      <VST "VSTi: ReaSynth (Cockos)" "reasynth.dll" 0 ""
        eXNlcu9e7f4AAAAAAgAAAAEAAAAAAAAAAgAAAAAAAAA4AAAAAAAAAA==
        AAAAAO++rd4N8K3eppvEOxe30ToAAAAAAAAAAAAAAACa9Q8/6WeIPQ==
        AAAAAAAAAD8AAIA/AAAAAAAAAD8AAAAAAAA=
      >
      FLOATPOS 32 32 338 405
      FXID {F124DD19-73B4-4CD5-B659-E246F2A3D0B3}
      WAK 0
    >
    <ITEM
      POSITION 0.00000000000000
      SNAPOFFS 0.00000000000000
      LENGTH 256.16382087400871
      LOOP 0
      ALLTAKES 0
      SEL 0
      FADEIN 1 0.000000 0.000000 1 0
      FADEOUT 1 0.000000 0.000000 1 0
      MUTE 0
      IGUID {9C9617EC-369A-41B9-80F6-31F4222F13F6}
      IID 10
      NAME "PART VOCALS"
      VOLPAN 1.000000 0.000000 1.000000 -1.000000
      SOFFS 0.00000000000000 0.00000000000000
      PLAYRATE 1.00000000000000 1 0.00000000000000 -65536
      CHANMODE 0
      GUID {8E872349-00D8-4243-95D7-0B92852E4EE5}
      <SOURCE MIDI
        HASDATA 1 480 QN
        POOLEDEVTS {CA359B77-C1F0-46D0-9D49-87E53FADC490}
        <X 0 0
          /wNQQVJUIFZPQ0FMUw==
        >
        <X 3840 0
          /wFbaWRsZV0=
        >
        <X 40320 0
          /wFbcGxheV0=
        >
        E 1321 90 69 60
        <X 120 0
          /wVNdW4=
        >
        E 0 90 3f 61
        E 480 80 3f 00
        <X 55 0
          /wV2dW8t
        >
        E 0 90 3f 6a
        E 428 80 3f 00
        <X 63 0
          /wVkZXQ=
        >
        E 0 90 40 65
        E 179 80 40 00
        <X 285 0
          /wV2w6Qt
        >
        E 0 90 3f 6f
        E 270 80 3f 00
        <X 155 0
          /wVoZS0=
        >
        E 0 90 3d 67
        E 220 80 3d 00
        <X 101 0
          /wVuZWU=
        >
        E 0 90 3d 67
        E 171 80 3d 00
        <X 83 0
          /wUr
        >
        E 0 90 3f 5e
        E 458 80 3f 00
        E 172 80 69 00
        E 480 90 69 60
        <X 244 0
          /wVOZQ==
        >
        E 0 90 3e 5b
        E 140 80 3e 00
        <X 182 0
          /wVpbC0=
        >
        E 0 90 3f 6f
        E 242 80 3f 00
        <X 91 0
          /wUr
        >
        E 0 90 3d 6f
        E 191 80 3d 00
        <X 173 0
          /wVtYWFu
        >
        E 0 90 3d 6a
        E 330 80 3d 00
        <X 146 0
          /wVvLQ==
        >
        E 0 90 3b 6e
        E 261 80 3b 00
        <X 168 0
          /wVoZS0=
        >
        E 0 90 3a 62
        E 232 80 3a 00
        <X 139 0
          /wVuZWU=
        >
        E 0 90 3a 6a
        E 173 80 3a 00
        <X 58 0
          /wUr
        >
        E 0 90 3b 54
        E 397 80 3b 00
        E 193 80 69 00
        E 600 90 69 60
        <X 205 0
          /wVLdWlu
        >
        E 0 90 3b 60
        E 254 80 3b 00
        <X 126 0
          /wVzYS0=
        >
        E 0 90 3d 6a
        E 339 80 3d 00
        <X 79 0
          /wV2dQ==
        >
        E 0 90 3f 5e
        E 225 80 3f 00
        <X 170 0
          /wV0YWkt
        >
        E 0 90 40 72
        E 645 80 40 00
        <X 76 0
          /wV2YWEt
        >
        E 0 90 42 6b
        E 678 80 42 00
        <X 202 0
          /wVzZWVu
        >
        E 0 90 3f 6b
        E 1291 80 3f 00
        E 150 80 69 00
        E 3120 90 69 60
        E 0 90 74 60
        <X 252 0
          /wVNdW4=
        >
        E 0 90 3e 61
        E 345 80 3e 00
        <X 143 0
          /wVqw6RsLQ==
        >
        E 0 90 3f 6a
        E 377 80 3f 00
        <X 203 0
          /wVrZWUt
        >
        E 0 90 40 73
        E 350 80 40 00
        <X 79 0
          /wVuaQ==
        >
        E 0 90 40 5f
        E 155 80 40 00
        <X 121 0
          /wVlaQ==
        >
        E 0 90 3d 5f
        E 382 80 3d 00
        <X 84 0
          /wVqw6TDpA==
        >
        E 0 90 3d 72
        E 245 80 3d 00
        <X 68 0
          /wUr
        >
        E 0 90 3f 6b
        E 380 80 3f 00
        E 176 80 69 00
        E 0 80 74 00
        E 480 90 69 12
        <X 248 0
          /wVLYWk=
        >
        E 0 90 3e 6e
        E 349 80 3e 00
        <X 123 0
          /wVtaS0=
        >
        E 0 90 40 58
        E 186 80 40 00
        <X 185 0
          /wV0w6TDpG4=
        >
        E 0 90 3d 6a
        E 462 80 3d 00
        <X 158 0
          /wVrZXMt
        >
        E 0 90 3a 69
        E 341 80 3a 00
        <X 177 0
          /wV0w6Qt
        >
        E 0 90 3b 69
        E 195 80 3b 00
        <X 133 0
          /wV2w6TDpA==
        >
        E 0 90 3b 6b
        E 592 80 3b 00
        E 211 80 69 00
        E 480 90 69 12
        <X 239 0
          /wVQb2lz
        >
        E 0 90 3b 61
        E 333 80 3b 00
        <X 164 0
          /wVrYWlrLQ==
        >
        E 0 90 3d 61
        E 298 80 3d 00
        <X 214 0
          /wVraQ==
        >
        E 0 90 3f 66
        E 270 80 3f 00
        <X 216 0
          /wVow6Qt
        >
        E 0 90 40 6f
        E 339 80 40 00
        <X 192 0
          /wV2aS0=
        >
        E 0 90 43 6b
        E 255 80 43 00
        <X 115 0
          /wXDpMOk
        >
        E 0 90 3f 6b
        E 1476 80 3f 00
        E 209 80 69 00
        E 3360 90 69 12
        <X 249 0
          /wVNw6Q=
        >
        E 0 90 3f 5c
        E 171 80 3f 00
        <X 149 0
          /wVoaWVrLQ==
        >
        E 0 90 3f 63
        E 363 80 3f 00
        <X 304 0
          /wVrYS0=
        >
        E 0 90 40 69
        E 262 80 40 00
        <X 104 0
          /wVsaW4t
        >
        E 0 90 3f 60
        E 186 80 3f 00
        <X 60 0
          /wUr
        >
        E 0 90 3d 69
        E 209 80 3d 00
        <X 143 0
          /wVuYW4=
        >
        E 0 90 3d 62
        E 311 80 3d 00
        <X 160 0
          /wV0ZWVu
        >
        E 0 90 3f 5d
        E 638 80 3f 00
        E 291 80 69 00
        E 240 90 69 12
        E 0 90 74 12
        <X 179 0
          /wVTZQ==
        >
        E 0 90 3c 52
        E 189 80 3c 00
        <X 176 0
          /wV2YWkt
        >
        E 0 90 3f 71
        E 314 80 3f 00
        <X 64 0
          /wUr
        >
        E 0 90 3d 54
        E 181 80 3d 00
        <X 152 0
          /wVwdXU=
        >
        E 0 90 3d 51
        E 308 80 3d 00
        <X 153 0
          /wVwYWkt
        >
        E 0 90 3b 6d
        E 365 80 3b 00
        <X 137 0
          /wVrb2lsLQ==
        >
        E 0 90 3b 68
        E 309 80 3b 00
        <X 143 0
          /wVsZWVu
        >
        E 0 90 3b 68
        E 518 80 3b 00
        E 292 80 69 00
        E 0 80 74 00
        E 360 90 69 12
        <X 258 0
          /wVFaQ==
        >
        E 0 90 3b 69
        E 322 80 3b 00
        <X 137 0
          /wVrZXMt
        >
        E 0 90 3d 5d
        E 328 80 3d 00
        <X 203 0
          /wV0w6Q=
        >
        E 0 90 3f 69
        E 248 80 3f 00
        <X 198 0
          /wVodW8t
        >
        E 0 90 40 6b
        E 420 80 40 00
        <X 99 0
          /wVtaS0=
        >
        E 0 90 42 54
        E 143 80 42 00
        <X 145 0
          /wVzZWVu
        >
        E 0 90 3f 6f
        E 1621 80 3f 00
        E 198 80 69 00
        E 3360 90 69 12
        <X 257 0
          /wVPbg==
        >
        E 0 90 3f 5f
        E 329 80 3f 00
        <X 101 0
          /wV0dXIt
        >
        E 0 90 3f 62
        E 388 80 3f 00
        <X 124 0
          /wVoYQ==
        >
        E 0 90 40 64
        E 259 80 40 00
        <X 154 0
          /wVyYS0=
        >
        E 0 90 3f 62
        E 245 80 3f 00
        <X 147 0
          /wVrZW4t
        >
        E 0 90 3d 61
        E 363 80 3d 00
        <X 151 0
          /wV0YWE=
        >
        E 0 90 3f 6a
        E 701 80 3f 00
        E 261 80 69 00
        E 360 90 69 12
        <X 262 0
          /wVQb2wt
        >
        E 0 90 3f 67
        E 334 80 3f 00
        <X 124 0
          /wVrdS0=
        >
        E 0 90 3f 67
        E 255 80 3f 00
        <X 100 0
          /wVh
        >
        E 0 90 3d 63
        E 251 80 3d 00
        <X 391 0
          /wVqYXQt
        >
        E 0 90 3b 67
        E 257 80 3b 00
        <X 244 0
          /wVrdS0=
        >
        E 0 90 3a 62
        E 240 80 3a 00
        <X 107 0
          /wV2YWE=
        >
        E 0 90 3b 68
        E 708 80 3b 00
        E 207 80 69 00
        E 360 90 69 12
        E 0 90 74 12
        <X 193 0
          /wVKb3M=
        >
        E 0 90 3b 61
        E 308 80 3b 00
        <X 215 0
          /wVrYWlrLQ==
        >
        E 0 90 3d 67
        E 287 80 3d 00
        <X 224 0
          /wVraQ==
        >
        E 0 90 3f 57
        E 211 80 3f 00
        <X 287 0
          /wVrYS0=
        >
        E 0 90 40 64
        E 265 80 40 00
        <X 229 0
          /wV0by0=
        >
        E 0 90 42 6f
        E 324 80 42 00
        <X 142 0
          /wVhYQ==
        >
        E 0 90 3f 6e
        E 2852 80 3f 00
        E 223 80 69 00
        E 0 80 74 00
        E 600 90 69 12
        <X 138 0
          /wVFbi0=
        >
        E 0 90 3f 5a
        E 360 80 3f 00
        <X 120 0
          /wV0w6Q=
        >
        E 0 90 3f 66
        E 223 80 3f 00
        <X 82 0
          /wVqb3M=
        >
        E 0 90 3f 66
        E 161 80 3f 00
        <X 96 0
          /wVlLQ==
        >
        E 0 90 3f 6d
        E 199 80 3f 00
        <X 58 0
          /wVsw6Qt
        >
        E 0 90 3f 66
        E 257 80 3f 00
        <X 109 0
          /wVtw6Ru
        >
        E 0 90 3f 65
        E 182 80 3f 00
        <X 61 0
          /wVpLQ==
        >
        E 0 90 3f 65
        E 172 80 3f 00
        <X 161 0
          /wVrdWkt
        >
        E 0 90 3f 5d
        E 355 80 3f 00
        <X 80 0
          /wVuZW4=
        >
        E 0 90 3e 5d
        E 147 80 3e 00
        <X 99 0
          /wV2aXIt
        >
        E 0 90 3f 66
        E 149 80 3f 00
        <X 69 0
          /wUr
        >
        E 0 90 3d 47
        E 96 80 3d 00
        <X 105 0
          /wV0YQ==
        >
        E 0 90 3d 5c
        E 228 80 3d 00
        E 73 80 69 00
        E 120 90 69 12
        <X 69 0
          /wVLYXQt
        >
        E 0 90 3f 5c
        E 204 80 3f 00
        <X 268 0
          /wVrZS0=
        >
        E 0 90 3f 65
        E 214 80 3f 00
        <X 55 0
          /wVhYQ==
        >
        E 0 90 3f 65
        E 309 80 3f 00
        <X 452 0
          /wVrdWlu
        >
        E 0 90 42 6a
        E 243 80 42 00
        <X 140 0
          /wVsYS0=
        >
        E 0 90 42 65
        E 262 80 42 00
        <X 110 0
          /wVob24t
        >
        E 0 90 40 66
        E 160 80 40 00
        <X 46 0
          /wUr
        >
        E 0 90 3e 4c
        E 97 80 3e 00
        <X 85 0
          /wVudXQ=
        >
        E 0 90 40 48
        E 112 80 40 00
        <X 94 0
          /wVzaWwt
        >
        E 0 90 3d 5a
        E 405 80 3d 00
        <X 126 0
          /wV0YQ==
        >
        E 0 90 36 5c
        E 181 80 36 00
        E 88 80 69 00
        E 120 90 69 12
        <X 92 0
          /wVFbi0=
        >
        E 0 90 3c 5e
        E 347 80 3c 00
        <X 131 0
          /wV0w6Q=
        >
        E 0 90 3b 61
        E 207 80 3b 00
        <X 62 0
          /wVqb3M=
        >
        E 0 90 3b 61
        E 101 80 3b 00
        <X 103 0
          /wVlay0=
        >
        E 0 90 3b 61
        E 163 80 3b 00
        <X 222 0
          /wVzeW4=
        >
        E 0 90 38 56
        E 372 80 38 00
        <X 190 0
          /wVtYXQt
        >
        E 0 90 3b 58
        E 191 80 3b 00
        <X 272 0
          /wVrYWwt
        >
        E 0 90 3b 68
        E 248 80 3b 00
        <X 52 0
          /wVsYQ==
        >
        E 0 90 3b 68
        E 116 80 3b 00
        <X 125 0
          /wVsYWkt
        >
        E 0 90 3a 63
        E 343 80 3a 00
        <X 112 0
          /wV2YWFu
        >
        E 0 90 38 62
        E 210 80 38 00
        E 61 80 69 00
        E 120 90 69 12
        E 0 90 74 12
        <X 99 0
          /wVWb2luLQ==
        >
        E 0 90 35 5c
        E 342 80 35 00
        <X 129 0
          /wVrbw==
        >
        E 0 90 3b 68
        E 152 80 3b 00
        <X 103 0
          /wVtw6Q=
        >
        E 0 90 3b 5f
        E 159 80 3b 00
        <X 72 0
          /wVyYS0=
        >
        E 0 90 3b 5e
        E 131 80 3b 00
        <X 91 0
          /wVrZW4t
        >
        E 0 90 3b 5e
        E 169 80 3b 00
        <X 95 0
          /wV0YWE=
        >
        E 0 90 3f 5e
        E 258 80 3f 00
        <X 201 0
          /wV0dWgt
        >
        E 0 90 3f 53
        E 254 80 3f 00
        <X 233 0
          /wVrYXMt
        >
        E 0 90 41 4d
        E 114 80 41 00
        <X 101 0
          /wV0YQ==
        >
        E 0 90 41 48
        E 96 80 41 00
        <X 155 0
          /wV0YWkt
        >
        E 0 90 3d 68
        E 402 80 3d 00
        <X 69 0
          /wV2YWFu
        >
        E 0 90 3f 55
        E 184 80 3f 00
        E 51 80 69 00
        E 0 80 74 00
        E 180 90 69 12
        <X 111 0
          /wVBaS0=
        >
        E 0 90 3f 5d
        E 427 80 3f 00
        <X 80 0
          /wVuby0=
        >
        E 0 90 3f 68
        E 220 80 3f 00
        <X 54 0
          /wVh
        >
        E 0 90 3f 68
        E 80 80 3f 00
        <X 103 0
          /wV2YXIt
        >
        E 0 90 3f 6a
        E 345 80 3f 00
        <X 99 0
          /wVtYQ==
        >
        E 0 90 3f 59
        E 135 80 3f 00
        <X 92 0
          /wVvbg==
        >
        E 0 90 3f 5c
        E 209 80 3f 00
        <X 100 0
          /wV2YWlu
        >
        E 0 90 3e 60
        E 331 80 3e 00
        <X 98 0
          /wV0w6Qt
        >
        E 0 90 3e 63
        E 235 80 3e 00
        <X 69 0
          /wVtw6Q=
        >
        E 0 90 3f 5d
        E 116 80 3f 00
        <X 67 0
          /wVoZXQt
        >
        E 0 90 3f 5d
        E 201 80 3f 00
        <X 266 0
          /wVraQ==
        >
        E 0 90 3f 68
        E 211 80 3f 00
        E 41 80 69 00
        E 30 90 69 12
        <X 41 0
          /wVIZWkt
        >
        E 0 90 3f 68
        E 510 80 3f 00
        <X 152 0
          /wVrb2wt
        >
        E 0 90 3f 69
        E 201 80 3f 00
        <X 60 0
          /wVsYQ==
        >
        E 0 90 3f 69
        E 88 80 3f 00
        <X 88 0
          /wVqw6TDpGwt
        >
        E 0 90 3f 69
        E 349 80 3f 00
        <X 64 0
          /wVsw6Q=
        >
        E 0 90 3f 69
        E 166 80 3f 00
        <X 147 0
          /wVrw6R5
        >
        E 0 90 42 64
        E 149 80 42 00
        <X 100 0
          /wVzaWUt
        >
        E 0 90 42 6c
        E 425 80 42 00
        <X 87 0
          /wVsdS0=
        >
        E 0 90 3f 5d
        E 168 80 3f 00
        <X 75 0
          /wVuaQ==
        >
        E 0 90 3f 5d
        E 135 80 3f 00
        <X 55 0
          /wVyZXQt
        >
        E 0 90 3d 57
        E 205 80 3d 00
        <X 271 0
          /wVraQ==
        >
        E 0 90 36 44
        E 166 80 36 00
        E 78 80 69 00
        E 180 90 69 12
        <X 100 0
          /wVBbi0=
        >
        E 0 90 3b 5e
        E 371 80 3b 00
        <X 109 0
          /wV0ZWVrLQ==
        >
        E 0 90 3b 5f
        E 141 80 3b 00
        <X 102 0
          /wVzaQ==
        >
        E 0 90 3b 64
        E 112 80 3b 00
        <X 131 0
          /wVMdW8t
        >
        E 0 90 3b 64
        E 383 80 3b 00
        <X 91 0
          /wVqYQ==
        >
        E 0 90 37 5e
        E 135 80 37 00
        <X 109 0
          /wVyYXUt
        >
        E 0 90 3c 67
        E 399 80 3c 00
        <X 103 0
          /wVoYWEt
        >
        E 0 90 3b 65
        E 316 80 3b 00
        <X 108 0
          /wVzaQ==
        >
        E 0 90 3b 4a
        E 157 80 3b 00
        <X 124 0
          /wV2YWkt
        >
        E 0 90 3a 66
        E 359 80 3a 00
        <X 94 0
          /wV2YWFu
        >
        E 0 90 38 5d
        E 204 80 38 00
        E 72 80 69 00
        E 240 90 69 12
        E 0 90 74 12
        <X 69 0
          /wVWb2luLQ==
        >
        E 0 90 34 5d
        E 108 80 34 00
        <X 52 0
          /wUr
        >
        E 0 90 36 53
        E 128 80 36 00
        <X 137 0
          /wVrbw==
        >
        E 0 90 3b 69
        E 149 80 3b 00
        <X 96 0
          /wVtw6Q=
        >
        E 0 90 3b 69
        E 134 80 3b 00
        <X 69 0
          /wVyYS0=
        >
        E 0 90 3b 5f
        E 131 80 3b 00
        <X 103 0
          /wVrZW4t
        >
        E 0 90 3c 59
        E 158 80 3c 00
        <X 105 0
          /wV0YWE=
        >
        E 0 90 3f 60
        E 263 80 3f 00
        <X 206 0
          /wV0dWgt
        >
        E 0 90 3e 51
        E 260 80 3e 00
        <X 222 0
          /wVrYXMt
        >
        E 0 90 40 54
        E 148 80 40 00
        <X 74 0
          /wV0YQ==
        >
        E 0 90 40 4e
        E 111 80 40 00
        <X 140 0
          /wV0YWkt
        >
        E 0 90 3d 63
        E 324 80 3d 00
        <X 148 0
          /wV2YWEt
        >
        E 0 90 36 5a
        E 194 80 36 00
        <X 44 0
          /wUr
        >
        E 0 90 38 5c
        E 205 80 38 00
        <X 73 0
          /wVuaQ==
        >
        E 0 90 38 5c
        E 221 80 38 00
        E 128 80 69 00
        E 0 80 74 00
        <X 352 0
          /wFbaWRsZV0=
        >
        <X 7863 0
          /wFbcGxheV0=
        >
        E 185 90 69 6c
        <X 295 0
          /wVTw6Q=
        >
        E 0 90 3f 51
        E 156 80 3f 00
        <X 144 0
          /wVzw6TDpHMt
        >
        E 0 90 3f 6b
        E 479 80 3f 00
        <X 191 0
          /wV0w6R0
        >
        E 0 90 40 5e
        E 164 80 40 00
        <X 233 0
          /wVsaXAt
        >
        E 0 90 3f 5c
        E 266 80 3f 00
        <X 315 0
          /wVwYWEt
        >
        E 0 90 3d 6a
        E 291 80 3d 00
        <X 112 0
          /wVzZWVu
        >
        E 0 90 3f 62
        E 454 80 3f 00
        E 200 80 69 00
        E 240 90 69 6c
        <X 145 0
          /wVSYS0=
        >
        E 0 90 3f 7b
        E 190 80 3f 00
        <X 108 0
          /wVoYXQ=
        >
        E 0 90 3e 66
        E 186 80 3e 00
        <X 316 0
          /wVrw6R5LQ==
        >
        E 0 90 3f 7d
        E 199 80 3f 00
        <X 55 0
          /wUr
        >
        E 0 90 3d 5b
        E 245 80 3d 00
        <X 156 0
          /wV0w6R0
        >
        E 0 90 3d 5e
        E 185 80 3d 00
        <X 278 0
          /wVrb3It
        >
        E 0 90 3a 71
        E 324 80 3a 00
        <X 217 0
          /wVrb2kt
        >
        E 0 90 3a 6a
        E 329 80 3a 00
        <X 98 0
          /wVuZWVu
        >
        E 0 90 3b 67
        E 431 80 3b 00
        E 198 80 69 00
        E 600 90 69 6c
        <X 199 0
          /wVLYWk=
        >
        E 0 90 3b 6e
        E 355 80 3b 00
        <X 190 0
          /wV0YS0=
        >
        E 0 90 3d 6d
        E 247 80 3d 00
        <X 79 0
          /wVsb29u
        >
        E 0 90 3f 6a
        E 441 80 3f 00
        <X 178 0
          /wVraS0=
        >
        E 0 90 40 6d
        E 316 80 40 00
        <X 121 0
          /wV2aS0=
        >
        E 0 90 42 6b
        E 252 80 42 00
        <X 204 0
          /wVzZWVu
        >
        E 0 90 3f 68
        E 2034 80 3f 00
        E 184 80 69 00
        E 2880 90 69 6c
        E 0 90 74 6c
        <X 183 0
          /wVWYWFu
        >
        E 0 90 3f 62
        E 322 80 3f 00
        <X 84 0
          /wVtaWst
        >
        E 0 90 3f 62
        E 277 80 3f 00
        <X 241 0
          /wVzaQ==
        >
        E 0 90 3f 51
        E 216 80 3f 00
        <X 229 0
          /wV1cy0=
        >
        E 0 90 3f 54
        E 342 80 3f 00
        <X 239 0
          /wVrb3Q=
        >
        E 0 90 3d 5d
        E 177 80 3d 00
        <X 316 0
          /wVuaWlu
        >
        E 0 90 3f 5e
        E 476 80 3f 00
        E 198 80 69 00
        E 0 80 74 00
        E 660 90 69 6c
        <X 157 0
          /wVKb3M=
        >
        E 0 90 3f 5d
        E 243 80 3f 00
        <X 143 0
          /wVzdWwt
        >
        E 0 90 3e 62
        E 463 80 3e 00
        <X 94 0
          /wVsZQ==
        >
        E 0 90 3d 5d
        E 174 80 3d 00
        <X 265 0
          /wVwZS0=
        >
        E 0 90 3b 71
        E 232 80 3b 00
        <X 53 0
          /wVkYXQt
        >
        E 0 90 3a 68
        E 231 80 3a 00
        <X 288 0
          /wV0aWlu
        >
        E 0 90 3b 68
        E 781 80 3b 00
        E 176 80 69 00
        E 480 90 69 6c
        <X 145 0
          /wVWYWlu
        >
        E 0 90 3b 68
        E 324 80 3b 00
        <X 115 0
          /wVzw6RuLQ==
        >
        E 0 90 3d 68
        E 442 80 3d 00
        <X 118 0
          /wVreQ==
        >
        E 0 90 40 5b
        E 184 80 40 00
        <X 218 0
          /wVzYW0t
        >
        E 0 90 40 65
        E 325 80 40 00
        <X 230 0
          /wVtYS0=
        >
        E 0 90 42 6c
        E 342 80 42 00
        <X 157 0
          /wVsaWlu
        >
        E 0 90 3f 5c
        E 2002 80 3f 00
        E 198 80 69 00
        E 1427 90 69 12
        <X 139 0
          /wVFbi0=
        >
        E 0 90 3f 5a
        E 360 80 3f 00
        <X 120 0
          /wV0w6Q=
        >
        E 0 90 3f 66
        E 223 80 3f 00
        <X 82 0
          /wVqb3M=
        >
        E 0 90 3f 66
        E 161 80 3f 00
        <X 96 0
          /wVlLQ==
        >
        E 0 90 3f 6d
        E 199 80 3f 00
        <X 58 0
          /wVsw6Qt
        >
        E 0 90 3f 66
        E 257 80 3f 00
        <X 109 0
          /wVtw6Ru
        >
        E 0 90 3f 65
        E 182 80 3f 00
        <X 61 0
          /wVpLQ==
        >
        E 0 90 3f 65
        E 172 80 3f 00
        <X 161 0
          /wVrdWkt
        >
        E 0 90 3f 5d
        E 355 80 3f 00
        <X 80 0
          /wVuZW4=
        >
        E 0 90 3e 5d
        E 147 80 3e 00
        <X 99 0
          /wV2aXIt
        >
        E 0 90 3f 66
        E 149 80 3f 00
        <X 69 0
          /wUr
        >
        E 0 90 3d 47
        E 96 80 3d 00
        <X 105 0
          /wV0YQ==
        >
        E 0 90 3d 5c
        E 228 80 3d 00
        E 72 80 69 00
        E 120 90 69 12
        E 0 90 74 12
        <X 70 0
          /wVLYXQt
        >
        E 0 90 3f 5c
        E 204 80 3f 00
        <X 268 0
          /wVrZS0=
        >
        E 0 90 3f 65
        E 214 80 3f 00
        <X 55 0
          /wVhYQ==
        >
        E 0 90 3f 65
        E 309 80 3f 00
        <X 451 0
          /wVrdWlu
        >
        E 0 90 42 6a
        E 243 80 42 00
        <X 141 0
          /wVsYS0=
        >
        E 0 90 42 65
        E 262 80 42 00
        <X 110 0
          /wVob24t
        >
        E 0 90 40 66
        E 160 80 40 00
        <X 46 0
          /wUr
        >
        E 0 90 3e 4c
        E 97 80 3e 00
        <X 84 0
          /wVudXQ=
        >
        E 0 90 40 48
        E 113 80 40 00
        <X 94 0
          /wVzaWwt
        >
        E 0 90 3d 5a
        E 405 80 3d 00
        <X 125 0
          /wV0YQ==
        >
        E 0 90 36 5c
        E 181 80 36 00
        E 88 80 69 00
        E 0 80 74 00
        E 120 90 69 12
        <X 92 0
          /wVFbi0=
        >
        E 0 90 3c 5e
        E 347 80 3c 00
        <X 132 0
          /wV0w6Q=
        >
        E 0 90 3b 61
        E 207 80 3b 00
        <X 61 0
          /wVqb3M=
        >
        E 0 90 3b 61
        E 101 80 3b 00
        <X 103 0
          /wVlay0=
        >
        E 0 90 3b 61
        E 163 80 3b 00
        <X 222 0
          /wVzeW4=
        >
        E 0 90 38 56
        E 373 80 38 00
        <X 189 0
          /wVtYXQt
        >
        E 0 90 3b 58
        E 191 80 3b 00
        <X 272 0
          /wVrYWwt
        >
        E 0 90 3b 68
        E 248 80 3b 00
        <X 52 0
          /wVsYQ==
        >
        E 0 90 3b 68
        E 117 80 3b 00
        <X 124 0
          /wVsYWkt
        >
        E 0 90 3a 63
        E 344 80 3a 00
        <X 111 0
          /wV2YWFu
        >
        E 0 90 38 62
        E 210 80 38 00
        E 61 80 69 00
        E 120 90 69 12
        <X 99 0
          /wVWb2luLQ==
        >
        E 0 90 35 5c
        E 342 80 35 00
        <X 130 0
          /wVrbw==
        >
        E 0 90 3b 68
        E 151 80 3b 00
        <X 103 0
          /wVtw6Q=
        >
        E 0 90 3b 5f
        E 159 80 3b 00
        <X 72 0
          /wVyYS0=
        >
        E 0 90 3b 5e
        E 132 80 3b 00
        <X 90 0
          /wVrZW4t
        >
        E 0 90 3b 5e
        E 170 80 3b 00
        <X 94 0
          /wV0YWE=
        >
        E 0 90 3f 5e
        E 259 80 3f 00
        <X 200 0
          /wV0dWgt
        >
        E 0 90 3f 53
        E 255 80 3f 00
        <X 233 0
          /wVrYXMt
        >
        E 0 90 41 4d
        E 113 80 41 00
        <X 101 0
          /wV0YQ==
        >
        E 0 90 41 48
        E 97 80 41 00
        <X 154 0
          /wV0YWkt
        >
        E 0 90 3d 68
        E 403 80 3d 00
        <X 69 0
          /wV2YWFu
        >
        E 0 90 3f 55
        E 184 80 3f 00
        E 50 80 69 00
        E 180 90 69 12
        <X 111 0
          /wVBaS0=
        >
        E 0 90 3f 5d
        E 428 80 3f 00
        <X 79 0
          /wVuby0=
        >
        E 0 90 3f 68
        E 220 80 3f 00
        <X 55 0
          /wVh
        >
        E 0 90 3f 68
        E 79 80 3f 00
        <X 104 0
          /wV2YXIt
        >
        E 0 90 3f 6a
        E 344 80 3f 00
        <X 99 0
          /wVtYQ==
        >
        E 0 90 3f 59
        E 136 80 3f 00
        <X 91 0
          /wVvbg==
        >
        E 0 90 3f 5c
        E 209 80 3f 00
        <X 100 0
          /wV2YWlu
        >
        E 0 90 3e 60
        E 332 80 3e 00
        <X 97 0
          /wV0w6Qt
        >
        E 0 90 3e 63
        E 235 80 3e 00
        <X 70 0
          /wVtw6Q=
        >
        E 0 90 3f 5d
        E 115 80 3f 00
        <X 68 0
          /wVoZXQt
        >
        E 0 90 3f 5d
        E 200 80 3f 00
        <X 266 0
          /wVraQ==
        >
        E 0 90 3f 68
        E 212 80 3f 00
        E 40 80 69 00
        E 30 90 69 12
        E 0 90 74 12
        <X 41 0
          /wVIZWkt
        >
        E 0 90 3f 68
        E 511 80 3f 00
        <X 152 0
          /wVrb2wt
        >
        E 0 90 3f 69
        E 201 80 3f 00
        <X 60 0
          /wVsYQ==
        >
        E 0 90 3f 69
        E 88 80 3f 00
        <X 87 0
          /wVqw6TDpGwt
        >
        E 0 90 3f 69
        E 349 80 3f 00
        <X 64 0
          /wVsw6Q=
        >
        E 0 90 3f 69
        E 166 80 3f 00
        <X 147 0
          /wVrw6R5
        >
        E 0 90 42 64
        E 150 80 42 00
        <X 100 0
          /wVzaWUt
        >
        E 0 90 42 6c
        E 425 80 42 00
        <X 87 0
          /wVsdS0=
        >
        E 0 90 3f 5d
        E 168 80 3f 00
        <X 74 0
          /wVuaQ==
        >
        E 0 90 3f 5d
        E 136 80 3f 00
        <X 54 0
          /wVyZXQt
        >
        E 0 90 3d 57
        E 206 80 3d 00
        <X 270 0
          /wVraQ==
        >
        E 0 90 36 44
        E 167 80 36 00
        E 77 80 69 00
        E 0 80 74 00
        E 180 90 69 12
        <X 101 0
          /wVBbi0=
        >
        E 0 90 3b 5e
        E 370 80 3b 00
        <X 109 0
          /wV0ZWVrLQ==
        >
        E 0 90 3b 5f
        E 142 80 3b 00
        <X 101 0
          /wVzaQ==
        >
        E 0 90 3b 64
        E 112 80 3b 00
        <X 131 0
          /wVMdW8t
        >
        E 0 90 3b 64
        E 383 80 3b 00
        <X 91 0
          /wVqYQ==
        >
        E 0 90 37 5e
        E 135 80 37 00
        <X 109 0
          /wVyYXUt
        >
        E 0 90 3c 67
        E 399 80 3c 00
        <X 104 0
          /wVoYWEt
        >
        E 0 90 3b 65
        E 316 80 3b 00
        <X 107 0
          /wVzaQ==
        >
        E 0 90 3b 4a
        E 158 80 3b 00
        <X 124 0
          /wV2YWkt
        >
        E 0 90 3a 66
        E 358 80 3a 00
        <X 94 0
          /wV2YWFu
        >
        E 0 90 38 5d
        E 204 80 38 00
        E 72 80 69 00
        E 240 90 69 12
        <X 69 0
          /wVWb2luLQ==
        >
        E 0 90 34 5d
        E 108 80 34 00
        <X 52 0
          /wUr
        >
        E 0 90 36 53
        E 129 80 36 00
        <X 137 0
          /wVrbw==
        >
        E 0 90 3b 69
        E 149 80 3b 00
        <X 95 0
          /wVtw6Q=
        >
        E 0 90 3b 69
        E 135 80 3b 00
        <X 68 0
          /wVyYS0=
        >
        E 0 90 3b 5f
        E 131 80 3b 00
        <X 103 0
          /wVrZW4t
        >
        E 0 90 3c 59
        E 159 80 3c 00
        <X 105 0
          /wV0YWE=
        >
        E 0 90 3f 60
        E 262 80 3f 00
        <X 207 0
          /wV0dWgt
        >
        E 0 90 3e 51
        E 259 80 3e 00
        <X 222 0
          /wVrYXMt
        >
        E 0 90 40 54
        E 149 80 40 00
        <X 74 0
          /wV0YQ==
        >
        E 0 90 40 4e
        E 111 80 40 00
        <X 140 0
          /wV0YWkt
        >
        E 0 90 3d 63
        E 323 80 3d 00
        <X 148 0
          /wV2YWEt
        >
        E 0 90 36 5a
        E 193 80 36 00
        <X 44 0
          /wUr
        >
        E 0 90 38 5c
        E 206 80 38 00
        <X 73 0
          /wVuaQ==
        >
        E 0 90 38 5c
        E 221 80 38 00
        E 128 80 69 00
        <X 352 0
          /wFbaWRsZV0=
        >
        <X 14211 0
          /wFbcGxheV0=
        >
        E 270 90 69 61
        <X 210 0
          /wVBaA==
        >
        E 0 90 38 58
        E 2730 80 38 00
        <X 185 0
          /wVhYQ==
        >
        E 0 90 40 61
        E 381 80 40 00
        <X 83 0
          /wUr
        >
        E 0 90 3f 63
        E 243 80 3f 00
        <X 96 0
          /wUr
        >
        E 0 90 3d 5b
        E 2321 80 3d 00
        E 231 80 69 00
        E 180 90 69 61
        E 0 90 74 61
        <X 188 0
          /wVBaA==
        >
        E 0 90 3d 61
        E 465 80 3d 00
        <X 90 0
          /wVhYQ==
        >
        E 0 90 3f 61
        E 283 80 3f 00
        <X 135 0
          /wUr
        >
        E 0 90 38 55
        E 3825 80 38 00
        <X 80 0
          /wUr
        >
        E 0 90 36 3f
        E 2859 80 36 00
        E 295 80 69 00
        E 0 80 74 00
        E 660 90 69 61
        <X 256 0
          /wVBaA==
        >
        E 0 90 38 43
        E 2508 80 38 00
        <X 220 0
          /wVhYQ==
        >
        E 0 90 40 47
        E 633 80 40 00
        <X 126 0
          /wUr
        >
        E 0 90 3d 46
        E 2222 80 3d 00
        E 215 80 69 00
        E 240 90 69 61
        <X 234 0
          /wVBaA==
        >
        E 0 90 3d 5d
        E 483 80 3d 00
        <X 142 0
          /wUr
        >
        E 0 90 3f 61
        E 295 80 3f 00
        <X 115 0
          /wVhYQ==
        >
        E 0 90 38 5c
        E 3811 80 38 00
        <X 99 0
          /wUr
        >
        E 0 90 36 59
        E 3378 80 36 00
        E 263 80 69 00
        <X 217 0
          /wFbaWRsZV0=
        >
        <X 14733 0
          /wFbcGxheV0=
        >
        E 341 90 69 12
        <X 139 0
          /wVFbi0=
        >
        E 0 90 3f 5a
        E 360 80 3f 00
        <X 120 0
          /wV0w6Q=
        >
        E 0 90 3f 66
        E 223 80 3f 00
        <X 82 0
          /wVqb3M=
        >
        E 0 90 3f 66
        E 161 80 3f 00
        <X 96 0
          /wVlLQ==
        >
        E 0 90 3f 6d
        E 199 80 3f 00
        <X 58 0
          /wVsw6Qt
        >
        E 0 90 3f 66
        E 257 80 3f 00
        <X 109 0
          /wVtw6Ru
        >
        E 0 90 3f 65
        E 182 80 3f 00
        <X 61 0
          /wVpLQ==
        >
        E 0 90 3f 65
        E 172 80 3f 00
        <X 161 0
          /wVrdWkt
        >
        E 0 90 3f 5d
        E 355 80 3f 00
        <X 80 0
          /wVuZW4=
        >
        E 0 90 3e 5d
        E 147 80 3e 00
        <X 99 0
          /wV2aXIt
        >
        E 0 90 3f 66
        E 149 80 3f 00
        <X 69 0
          /wUr
        >
        E 0 90 3d 47
        E 96 80 3d 00
        <X 105 0
          /wV0YQ==
        >
        E 0 90 3d 5c
        E 228 80 3d 00
        E 72 80 69 00
        E 120 90 69 12
        E 0 90 74 12
        <X 70 0
          /wVLYXQt
        >
        E 0 90 3f 5c
        E 204 80 3f 00
        <X 268 0
          /wVrZS0=
        >
        E 0 90 3f 65
        E 214 80 3f 00
        <X 55 0
          /wVhYQ==
        >
        E 0 90 3f 65
        E 309 80 3f 00
        <X 451 0
          /wVrdWlu
        >
        E 0 90 42 6a
        E 243 80 42 00
        <X 141 0
          /wVsYS0=
        >
        E 0 90 42 65
        E 262 80 42 00
        <X 110 0
          /wVob24t
        >
        E 0 90 40 66
        E 160 80 40 00
        <X 46 0
          /wUr
        >
        E 0 90 3e 4c
        E 97 80 3e 00
        <X 84 0
          /wVudXQ=
        >
        E 0 90 40 48
        E 113 80 40 00
        <X 94 0
          /wVzaWwt
        >
        E 0 90 3d 5a
        E 405 80 3d 00
        <X 125 0
          /wV0YQ==
        >
        E 0 90 36 5c
        E 181 80 36 00
        E 88 80 69 00
        E 0 80 74 00
        E 120 90 69 12
        <X 92 0
          /wVFbi0=
        >
        E 0 90 3c 5e
        E 347 80 3c 00
        <X 132 0
          /wV0w6Q=
        >
        E 0 90 3b 61
        E 207 80 3b 00
        <X 61 0
          /wVqb3M=
        >
        E 0 90 3b 61
        E 101 80 3b 00
        <X 103 0
          /wVlay0=
        >
        E 0 90 3b 61
        E 163 80 3b 00
        <X 222 0
          /wVzeW4=
        >
        E 0 90 38 56
        E 373 80 38 00
        <X 189 0
          /wVtYXQt
        >
        E 0 90 3b 58
        E 191 80 3b 00
        <X 272 0
          /wVrYWwt
        >
        E 0 90 3b 68
        E 248 80 3b 00
        <X 52 0
          /wVsYQ==
        >
        E 0 90 3b 68
        E 117 80 3b 00
        <X 124 0
          /wVsYWkt
        >
        E 0 90 3a 63
        E 344 80 3a 00
        <X 111 0
          /wV2YWFu
        >
        E 0 90 38 62
        E 210 80 38 00
        E 61 80 69 00
        E 120 90 69 12
        <X 99 0
          /wVWb2luLQ==
        >
        E 0 90 35 5c
        E 342 80 35 00
        <X 130 0
          /wVrbw==
        >
        E 0 90 3b 68
        E 151 80 3b 00
        <X 103 0
          /wVtw6Q=
        >
        E 0 90 3b 5f
        E 159 80 3b 00
        <X 72 0
          /wVyYS0=
        >
        E 0 90 3b 5e
        E 132 80 3b 00
        <X 90 0
          /wVrZW4t
        >
        E 0 90 3b 5e
        E 170 80 3b 00
        <X 94 0
          /wV0YWE=
        >
        E 0 90 3f 5e
        E 259 80 3f 00
        <X 200 0
          /wV0dWgt
        >
        E 0 90 3f 53
        E 255 80 3f 00
        <X 233 0
          /wVrYXMt
        >
        E 0 90 41 4d
        E 113 80 41 00
        <X 101 0
          /wV0YQ==
        >
        E 0 90 41 48
        E 97 80 41 00
        <X 154 0
          /wV0YWkt
        >
        E 0 90 3d 68
        E 403 80 3d 00
        <X 69 0
          /wV2YWFu
        >
        E 0 90 3f 55
        E 184 80 3f 00
        E 50 80 69 00
        E 180 90 69 12
        <X 111 0
          /wVBaS0=
        >
        E 0 90 3f 5d
        E 428 80 3f 00
        <X 79 0
          /wVuby0=
        >
        E 0 90 3f 68
        E 220 80 3f 00
        <X 55 0
          /wVh
        >
        E 0 90 3f 68
        E 79 80 3f 00
        <X 104 0
          /wV2YXIt
        >
        E 0 90 3f 6a
        E 344 80 3f 00
        <X 99 0
          /wVtYQ==
        >
        E 0 90 3f 59
        E 136 80 3f 00
        <X 91 0
          /wVvbg==
        >
        E 0 90 3f 5c
        E 209 80 3f 00
        <X 100 0
          /wV2YWlu
        >
        E 0 90 3e 60
        E 332 80 3e 00
        <X 97 0
          /wV0w6Qt
        >
        E 0 90 3e 63
        E 235 80 3e 00
        <X 70 0
          /wVtw6Q=
        >
        E 0 90 3f 5d
        E 115 80 3f 00
        <X 68 0
          /wVoZXQt
        >
        E 0 90 3f 5d
        E 200 80 3f 00
        <X 266 0
          /wVraQ==
        >
        E 0 90 3f 68
        E 212 80 3f 00
        E 40 80 69 00
        E 30 90 69 12
        E 0 90 74 12
        <X 41 0
          /wVIZWkt
        >
        E 0 90 3f 68
        E 511 80 3f 00
        <X 152 0
          /wVrb2wt
        >
        E 0 90 3f 69
        E 201 80 3f 00
        <X 60 0
          /wVsYQ==
        >
        E 0 90 3f 69
        E 88 80 3f 00
        <X 87 0
          /wVqw6TDpGwt
        >
        E 0 90 3f 69
        E 349 80 3f 00
        <X 64 0
          /wVsw6Q=
        >
        E 0 90 3f 69
        E 166 80 3f 00
        <X 147 0
          /wVrw6R5
        >
        E 0 90 42 64
        E 150 80 42 00
        <X 100 0
          /wVzaWUt
        >
        E 0 90 42 6c
        E 425 80 42 00
        <X 87 0
          /wVsdS0=
        >
        E 0 90 3f 5d
        E 168 80 3f 00
        <X 74 0
          /wVuaQ==
        >
        E 0 90 3f 5d
        E 136 80 3f 00
        <X 54 0
          /wVyZXQt
        >
        E 0 90 3d 57
        E 206 80 3d 00
        <X 270 0
          /wVraQ==
        >
        E 0 90 36 44
        E 167 80 36 00
        E 77 80 69 00
        E 0 80 74 00
        E 180 90 69 12
        <X 101 0
          /wVBbi0=
        >
        E 0 90 3b 5e
        E 370 80 3b 00
        <X 109 0
          /wV0ZWVrLQ==
        >
        E 0 90 3b 5f
        E 142 80 3b 00
        <X 101 0
          /wVzaQ==
        >
        E 0 90 3b 64
        E 112 80 3b 00
        <X 131 0
          /wVMdW8t
        >
        E 0 90 3b 64
        E 383 80 3b 00
        <X 91 0
          /wVqYQ==
        >
        E 0 90 37 5e
        E 135 80 37 00
        <X 109 0
          /wVyYXUt
        >
        E 0 90 3c 67
        E 399 80 3c 00
        <X 104 0
          /wVoYWEt
        >
        E 0 90 3b 65
        E 316 80 3b 00
        <X 107 0
          /wVzaQ==
        >
        E 0 90 3b 4a
        E 158 80 3b 00
        <X 124 0
          /wV2YWkt
        >
        E 0 90 3a 66
        E 358 80 3a 00
        <X 94 0
          /wV2YWFu
        >
        E 0 90 38 5d
        E 204 80 38 00
        E 72 80 69 00
        E 240 90 69 12
        <X 69 0
          /wVWb2luLQ==
        >
        E 0 90 34 5d
        E 108 80 34 00
        <X 52 0
          /wUr
        >
        E 0 90 36 53
        E 129 80 36 00
        <X 137 0
          /wVrbw==
        >
        E 0 90 3b 69
        E 149 80 3b 00
        <X 95 0
          /wVtw6Q=
        >
        E 0 90 3b 69
        E 135 80 3b 00
        <X 68 0
          /wVyYS0=
        >
        E 0 90 3b 5f
        E 131 80 3b 00
        <X 103 0
          /wVrZW4t
        >
        E 0 90 3c 59
        E 159 80 3c 00
        <X 105 0
          /wV0YWE=
        >
        E 0 90 3f 60
        E 262 80 3f 00
        <X 207 0
          /wV0dWgt
        >
        E 0 90 3e 51
        E 259 80 3e 00
        <X 222 0
          /wVrYXMt
        >
        E 0 90 40 54
        E 149 80 40 00
        <X 74 0
          /wV0YQ==
        >
        E 0 90 40 4e
        E 111 80 40 00
        <X 140 0
          /wV0YWkt
        >
        E 0 90 3d 63
        E 323 80 3d 00
        <X 148 0
          /wV2YWEt
        >
        E 0 90 36 5a
        E 193 80 36 00
        <X 44 0
          /wUr
        >
        E 0 90 38 5c
        E 206 80 38 00
        <X 73 0
          /wVuaQ==
        >
        E 0 90 38 5c
        E 221 80 38 00
        E 128 80 69 00
        E 5109 90 69 5e
        <X 265 0
          /wVUdWgt
        >
        E 0 90 3f 56
        E 250 80 3f 00
        <X 209 0
          /wVrYXMt
        >
        E 0 90 40 56
        E 128 80 40 00
        <X 130 0
          /wV0YQ==
        >
        E 0 90 3f 4e
        E 78 80 3f 00
        <X 169 0
          /wV0YWkt
        >
        E 0 90 3d 67
        E 205 80 3d 00
        <X 51 0
          /wUr
        >
        E 0 90 37 55
        E 129 80 37 00
        <X 121 0
          /wV2YWEt
        >
        E 0 90 36 64
        E 194 80 36 00
        <X 52 0
          /wUr
        >
        E 0 90 38 69
        E 150 80 38 00
        <X 86 0
          /wVuaQ==
        >
        E 0 90 38 69
        E 276 80 38 00
        E 327 80 69 00
        E 4860 90 69 5e
        <X 272 0
          /wVUdWgt
        >
        E 0 90 3e 57
        E 229 80 3e 00
        <X 222 0
          /wVrYXMt
        >
        E 0 90 40 50
        E 142 80 40 00
        <X 100 0
          /wV0YQ==
        >
        E 0 90 3f 44
        E 81 80 3f 00
        <X 185 0
          /wV0YWkt
        >
        E 0 90 3d 6a
        E 385 80 3d 00
        <X 96 0
          /wV2YWEt
        >
        E 0 90 36 63
        E 429 80 36 00
        <X 87 0
          /wVuaQ==
        >
        E 0 90 38 5e
        E 281 80 38 00
        E 251 80 69 00
        <X 229 0
          /wFbaWRsZV9yZWFsdGltZV0=
        >
        E 5890 b0 7b 00
        GUID {C9A1A4CA-4224-4672-91C0-075BEB2A8650}
        IGNTEMPO 0 120.00000000 4 4
        SRCCOLOR 1436
        VELLANE 132 128 128
        COLORMAP "C:\Users\me\AppData\Roaming\REAPER\Data\color_maps\rockband_vox-other.png"
        TEXTSTRINGFILE "Text Events List.txt"
        CFGEDITVIEW 84882.961176 138.034532 0 12 0 0 0
        CFGEDIT 1 1 0 0 1 1 1 1 1 1 1 0.12500000 75 0 1611 691 1 2 1 2 0.00000000 0 0 0 0 0.500000 1 0 1.000000 64
        KEYSNAP 0 0 "102034050607" 0 "Major"
        EVTFILTER 0 -1 -1 -1 -1 0 1 0 0 -1.00000000 -1.00000000
      >
    >
  >
  <TRACK '{E60BCF67-80FD-4554-840A-5B0B5C2E06A0}'
    NAME "HARM1"
    PEAKCOL 24624127
    BEAT -1
    AUTOMODE 0
    VOLPAN 1.00000000000000 0.00000000000000 -1.00000000000000 -1.00000000000000 1.00000000000000
    MUTESOLO 0 0 0
    IPHASE 0
    ISBUS 0 0
    BUSCOMP 0 0
    SHOWINMIX 1 0.666700 0.500000 1 0.500000 -1 -1 -1
    FREEMODE 0
    SEL 0
    REC 0 0 0 0 0 0 0
    TRACKHEIGHT 24 0
    INQ 0 0 0 0.5000000000 100 0 0 100
    NCHAN 2
    FX 1
    TRACKID {E60BCF67-80FD-4554-840A-5B0B5C2E06A0}
    PERF 0
    MIDIOUT -1
    <MIDINOTENAMES
      0 0 "Range Shift"
      0 1 "Lyric Shift"
      0 36 "C1"
      0 37 "C#"
      0 38 "D"
      0 39 "Eb"
      0 40 "E"
      0 41 "F"
      0 42 "F#"
      0 43 "G"
      0 44 "G#"
      0 45 "A"
      0 46 "Bb"
      0 47 "B"
      0 48 "C2"
      0 49 "C#"
      0 50 "D"
      0 51 "Eb"
      0 52 "E"
      0 53 "F"
      0 54 "F#"
      0 55 "G"
      0 56 "G#"
      0 57 "A"
      0 58 "Bb"
      0 59 "B"
      0 60 "C3"
      0 61 "C#"
      0 62 "D"
      0 63 "Eb"
      0 64 "E"
      0 65 "F"
      0 66 "F#"
      0 67 "G"
      0 68 "G#"
      0 69 "A"
      0 70 "Bb"
      0 71 "B"
      0 72 "C4"
      0 73 "C#"
      0 74 "D"
      0 75 "Eb"
      0 76 "E"
      0 77 "F"
      0 78 "F#"
      0 79 "G"
      0 80 "G#"
      0 81 "A"
      0 82 "Bb"
      0 83 "B"
      0 105 "Phrase Marker"
      0 116 "OVERDRIVE"
      0 115 "----"
      0 104 "----"
      0 97 "Not Displayed Percussion"
      0 96 "Displayed Percussion"
      0 95 "----"
      0 84 "C5"
    >
    MAINSEND 1 0
    <FXCHAIN
      WNDRECT 786 197 716 493
      SHOW 0
      LASTSEL 1
      DOCKED 0
      BYPASS 0 0
      <JS "IX/MIDI_Tool II" ""
        0.000000 85.000000 127.000000 0.000000 0.000000 0.000000 100.000000 0.000000 0.000000 127.000000 0.000000 0.000000 1.000000 0.000000 0.000000 - - - - - - - - - - - - - - - - - - - - - - - - - - - - - - - - - - - - - - - - - - - - - - - - - 
      >
      FLOATPOS 0 0 0 0
      FXID {2E79298C-F056-441C-A64B-722C2599E1AA}
      WAK 0
      BYPASS 0 0
      <VST "VSTi: ReaSynth (Cockos)" "reasynth.dll" 0 ""
        eXNlcu9e7f4AAAAAAgAAAAEAAAAAAAAAAgAAAAAAAAA4AAAAAAAAAA==
        AAAAAO++rd4N8K3eppvEOxe30ToAAAAAAAAAAAAAAACa9Q8/6WeIPQ==
        AAAAAAAAAD8AAIA/AAAAAAAAAD8AAAAAAAA=
      >
      FLOATPOS 0 0 0 0
      FXID {A391E59B-3475-47CA-9BDB-E03F3B8FF2C4}
      WAK 0
    >
    <ITEM
      POSITION 0.00000000000000
      SNAPOFFS 0.00000000000000
      LENGTH 256.16382087400871
      LOOP 0
      ALLTAKES 0
      SEL 0
      FADEIN 1 0.000000 0.000000 1 0
      FADEOUT 1 0.000000 0.000000 1 0
      MUTE 0
      IGUID {FE84F6DE-5A5E-43D1-BFBE-4632BD10F85F}
      IID 11
      NAME "HARM1 untitled MIDI item"
      VOLPAN 1.000000 0.000000 1.000000 -1.000000
      SOFFS 0.00000000000000 0.00000000000000
      PLAYRATE 1.00000000000000 1 0.00000000000000 -1
      CHANMODE 0
      GUID {188D8841-6EF7-4ADC-A9DC-A83C2882A63B}
      <SOURCE MIDI
        HASDATA 1 480 QN
        POOLEDEVTS {DD8AAD2C-D527-4779-8960-C7C4B6E83B1D}
        <X 0 0
          /wNIQVJNMQ==
        >
        <X 3840 0
          /wFbaWRsZV0=
        >
        <X 40320 0
          /wFbcGxheV0=
        >
        e 1321 90 69 60
        <X 120 0
          /wVNdW4=
        >
        e 0 90 3f 61
        e 480 80 3f 00
        <X 55 0
          /wV2dW8t
        >
        e 0 90 3f 6a
        e 428 80 3f 00
        <X 63 0
          /wVkZXQ=
        >
        e 0 90 40 65
        e 179 80 40 00
        <X 285 0
          /wV2w6Qt
        >
        e 0 90 3f 6f
        e 270 80 3f 00
        <X 155 0
          /wVoZS0=
        >
        e 0 90 3d 67
        e 220 80 3d 00
        <X 101 0
          /wVuZWU=
        >
        e 0 90 3d 67
        e 171 80 3d 00
        <X 83 0
          /wUr
        >
        e 0 90 3f 5e
        e 458 80 3f 00
        e 172 80 69 00
        e 480 90 69 60
        <X 244 0
          /wVOZQ==
        >
        e 0 90 3e 5b
        e 140 80 3e 00
        <X 182 0
          /wVpbC0=
        >
        e 0 90 3f 6f
        e 242 80 3f 00
        <X 91 0
          /wUr
        >
        e 0 90 3d 6f
        e 191 80 3d 00
        <X 173 0
          /wVtYWFu
        >
        e 0 90 3d 6a
        e 330 80 3d 00
        <X 146 0
          /wVvLQ==
        >
        e 0 90 3b 6e
        e 261 80 3b 00
        <X 168 0
          /wVoZS0=
        >
        e 0 90 3a 62
        e 232 80 3a 00
        <X 139 0
          /wVuZWU=
        >
        e 0 90 3a 6a
        e 173 80 3a 00
        <X 58 0
          /wUr
        >
        e 0 90 3b 54
        e 397 80 3b 00
        e 193 80 69 00
        e 600 90 69 60
        <X 205 0
          /wVLdWlu
        >
        e 0 90 3b 60
        e 254 80 3b 00
        <X 126 0
          /wVzYS0=
        >
        e 0 90 3d 6a
        e 339 80 3d 00
        <X 79 0
          /wV2dQ==
        >
        e 0 90 3f 5e
        e 225 80 3f 00
        <X 170 0
          /wV0YWkt
        >
        e 0 90 40 72
        e 645 80 40 00
        <X 76 0
          /wV2YWEt
        >
        e 0 90 42 6b
        e 678 80 42 00
        <X 202 0
          /wVzZWVu
        >
        e 0 90 3f 6b
        e 1291 80 3f 00
        e 150 80 69 00
        e 3120 90 69 60
        e 0 90 74 60
        <X 252 0
          /wVNdW4=
        >
        e 0 90 3e 61
        e 345 80 3e 00
        <X 143 0
          /wVqw6RsLQ==
        >
        e 0 90 3f 6a
        e 377 80 3f 00
        <X 203 0
          /wVrZWUt
        >
        e 0 90 40 73
        e 350 80 40 00
        <X 79 0
          /wVuaQ==
        >
        e 0 90 40 5f
        e 155 80 40 00
        <X 121 0
          /wVlaQ==
        >
        e 0 90 3d 5f
        e 382 80 3d 00
        <X 84 0
          /wVqw6TDpA==
        >
        e 0 90 3d 72
        e 245 80 3d 00
        <X 68 0
          /wUr
        >
        e 0 90 3f 6b
        e 380 80 3f 00
        e 176 80 69 00
        e 0 80 74 00
        e 480 90 69 12
        <X 248 0
          /wVLYWk=
        >
        e 0 90 3e 6e
        e 349 80 3e 00
        <X 123 0
          /wVtaS0=
        >
        e 0 90 40 58
        e 186 80 40 00
        <X 185 0
          /wV0w6TDpG4=
        >
        e 0 90 3d 6a
        e 462 80 3d 00
        <X 158 0
          /wVrZXMt
        >
        e 0 90 3a 69
        e 341 80 3a 00
        <X 177 0
          /wV0w6Qt
        >
        e 0 90 3b 69
        e 195 80 3b 00
        <X 133 0
          /wV2w6TDpA==
        >
        e 0 90 3b 6b
        e 592 80 3b 00
        e 211 80 69 00
        e 480 90 69 12
        <X 239 0
          /wVQb2lz
        >
        e 0 90 3b 61
        e 333 80 3b 00
        <X 164 0
          /wVrYWlrLQ==
        >
        e 0 90 3d 61
        e 298 80 3d 00
        <X 214 0
          /wVraQ==
        >
        e 0 90 3f 66
        e 270 80 3f 00
        <X 216 0
          /wVow6Qt
        >
        e 0 90 40 6f
        e 339 80 40 00
        <X 192 0
          /wV2aS0=
        >
        e 0 90 43 6b
        e 255 80 43 00
        <X 115 0
          /wXDpMOk
        >
        e 0 90 3f 6b
        e 1476 80 3f 00
        e 209 80 69 00
        e 3360 90 69 12
        <X 249 0
          /wVNw6Q=
        >
        e 0 90 3f 5c
        e 171 80 3f 00
        <X 149 0
          /wVoaWVrLQ==
        >
        e 0 90 3f 63
        e 363 80 3f 00
        <X 304 0
          /wVrYS0=
        >
        e 0 90 40 69
        e 262 80 40 00
        <X 104 0
          /wVsaW4t
        >
        e 0 90 3f 60
        e 186 80 3f 00
        <X 60 0
          /wUr
        >
        e 0 90 3d 69
        e 209 80 3d 00
        <X 143 0
          /wVuYW4=
        >
        e 0 90 3d 62
        e 311 80 3d 00
        <X 160 0
          /wV0ZWVu
        >
        e 0 90 3f 5d
        e 638 80 3f 00
        e 291 80 69 00
        e 240 90 69 12
        e 0 90 74 12
        <X 179 0
          /wVTZQ==
        >
        e 0 90 3c 52
        e 189 80 3c 00
        <X 176 0
          /wV2YWkt
        >
        e 0 90 3f 71
        e 314 80 3f 00
        <X 64 0
          /wUr
        >
        e 0 90 3d 54
        e 181 80 3d 00
        <X 152 0
          /wVwdXU=
        >
        e 0 90 3d 51
        e 308 80 3d 00
        <X 153 0
          /wVwYWkt
        >
        e 0 90 3b 6d
        e 365 80 3b 00
        <X 137 0
          /wVrb2lsLQ==
        >
        e 0 90 3b 68
        e 309 80 3b 00
        <X 143 0
          /wVsZWVu
        >
        e 0 90 3b 68
        e 518 80 3b 00
        e 292 80 69 00
        e 0 80 74 00
        e 360 90 69 12
        <X 258 0
          /wVFaQ==
        >
        e 0 90 3b 69
        e 322 80 3b 00
        <X 137 0
          /wVrZXMt
        >
        e 0 90 3d 5d
        e 328 80 3d 00
        <X 203 0
          /wV0w6Q=
        >
        e 0 90 3f 69
        e 248 80 3f 00
        <X 198 0
          /wVodW8t
        >
        e 0 90 40 6b
        e 420 80 40 00
        <X 99 0
          /wVtaS0=
        >
        e 0 90 42 54
        e 143 80 42 00
        <X 145 0
          /wVzZWVu
        >
        e 0 90 3f 6f
        e 1621 80 3f 00
        e 198 80 69 00
        e 3360 90 69 12
        <X 257 0
          /wVPbg==
        >
        e 0 90 3f 5f
        e 329 80 3f 00
        <X 101 0
          /wV0dXIt
        >
        e 0 90 3f 62
        e 388 80 3f 00
        <X 124 0
          /wVoYQ==
        >
        e 0 90 40 64
        e 259 80 40 00
        <X 154 0
          /wVyYS0=
        >
        e 0 90 3f 62
        e 245 80 3f 00
        <X 147 0
          /wVrZW4t
        >
        e 0 90 3d 61
        e 363 80 3d 00
        <X 151 0
          /wV0YWE=
        >
        e 0 90 3f 6a
        e 701 80 3f 00
        e 261 80 69 00
        e 360 90 69 12
        <X 262 0
          /wVQb2wt
        >
        e 0 90 3f 67
        e 334 80 3f 00
        <X 124 0
          /wVrdS0=
        >
        e 0 90 3f 67
        e 255 80 3f 00
        <X 100 0
          /wVh
        >
        e 0 90 3d 63
        e 251 80 3d 00
        <X 391 0
          /wVqYXQt
        >
        e 0 90 3b 67
        e 257 80 3b 00
        <X 244 0
          /wVrdS0=
        >
        e 0 90 3a 62
        e 240 80 3a 00
        <X 107 0
          /wV2YWE=
        >
        e 0 90 3b 68
        e 708 80 3b 00
        e 207 80 69 00
        e 360 90 69 12
        e 0 90 74 12
        <X 193 0
          /wVKb3M=
        >
        e 0 90 3b 61
        e 308 80 3b 00
        <X 215 0
          /wVrYWlrLQ==
        >
        e 0 90 3d 67
        e 287 80 3d 00
        <X 224 0
          /wVraQ==
        >
        e 0 90 3f 57
        e 211 80 3f 00
        <X 287 0
          /wVrYS0=
        >
        e 0 90 40 64
        e 265 80 40 00
        <X 229 0
          /wV0by0=
        >
        e 0 90 42 6f
        e 324 80 42 00
        <X 142 0
          /wVhYQ==
        >
        e 0 90 3f 6e
        e 2852 80 3f 00
        e 223 80 69 00
        e 0 80 74 00
        e 600 90 69 12
        <X 138 0
          /wVFbi0=
        >
        e 0 90 3f 5a
        e 360 80 3f 00
        <X 120 0
          /wV0w6Q=
        >
        e 0 90 3f 66
        e 223 80 3f 00
        <X 82 0
          /wVqb3M=
        >
        e 0 90 3f 66
        e 161 80 3f 00
        <X 96 0
          /wVlLQ==
        >
        e 0 90 3f 6d
        e 199 80 3f 00
        <X 58 0
          /wVsw6Qt
        >
        e 0 90 3f 66
        e 257 80 3f 00
        <X 109 0
          /wVtw6Ru
        >
        e 0 90 3f 65
        e 182 80 3f 00
        <X 61 0
          /wVpLQ==
        >
        e 0 90 3f 65
        e 172 80 3f 00
        <X 161 0
          /wVrdWkt
        >
        e 0 90 3f 5d
        e 355 80 3f 00
        <X 80 0
          /wVuZW4=
        >
        e 0 90 3e 5d
        e 147 80 3e 00
        <X 99 0
          /wV2aXIt
        >
        e 0 90 3f 66
        e 149 80 3f 00
        <X 69 0
          /wUr
        >
        e 0 90 3d 47
        e 96 80 3d 00
        <X 105 0
          /wV0YQ==
        >
        e 0 90 3d 5c
        e 228 80 3d 00
        e 73 80 69 00
        e 120 90 69 12
        <X 69 0
          /wVLYXQt
        >
        e 0 90 3f 5c
        e 204 80 3f 00
        <X 268 0
          /wVrZS0=
        >
        e 0 90 3f 65
        e 214 80 3f 00
        <X 55 0
          /wVhYQ==
        >
        e 0 90 3f 65
        e 309 80 3f 00
        <X 452 0
          /wVrdWlu
        >
        e 0 90 42 6a
        e 243 80 42 00
        <X 140 0
          /wVsYS0=
        >
        e 0 90 42 65
        e 262 80 42 00
        <X 110 0
          /wVob24t
        >
        e 0 90 40 66
        e 160 80 40 00
        <X 46 0
          /wUr
        >
        e 0 90 3e 4c
        e 97 80 3e 00
        <X 85 0
          /wVudXQ=
        >
        e 0 90 40 48
        e 112 80 40 00
        <X 94 0
          /wVzaWwt
        >
        e 0 90 3d 5a
        e 405 80 3d 00
        <X 126 0
          /wV0YQ==
        >
        e 0 90 36 5c
        e 181 80 36 00
        e 88 80 69 00
        e 120 90 69 12
        <X 92 0
          /wVFbi0=
        >
        e 0 90 3c 5e
        e 347 80 3c 00
        <X 131 0
          /wV0w6Q=
        >
        e 0 90 3b 61
        e 207 80 3b 00
        <X 62 0
          /wVqb3M=
        >
        e 0 90 3b 61
        e 101 80 3b 00
        <X 103 0
          /wVlay0=
        >
        e 0 90 3b 61
        e 163 80 3b 00
        <X 222 0
          /wVzeW4=
        >
        e 0 90 38 56
        e 372 80 38 00
        <X 190 0
          /wVtYXQt
        >
        e 0 90 3b 58
        e 191 80 3b 00
        <X 272 0
          /wVrYWwt
        >
        e 0 90 3b 68
        e 248 80 3b 00
        <X 52 0
          /wVsYQ==
        >
        e 0 90 3b 68
        e 116 80 3b 00
        <X 125 0
          /wVsYWkt
        >
        e 0 90 3a 63
        e 343 80 3a 00
        <X 112 0
          /wV2YWFu
        >
        e 0 90 38 62
        e 210 80 38 00
        e 61 80 69 00
        e 120 90 69 12
        e 0 90 74 12
        <X 99 0
          /wVWb2luLQ==
        >
        e 0 90 35 5c
        e 342 80 35 00
        <X 129 0
          /wVrbw==
        >
        e 0 90 3b 68
        e 152 80 3b 00
        <X 103 0
          /wVtw6Q=
        >
        e 0 90 3b 5f
        e 159 80 3b 00
        <X 72 0
          /wVyYS0=
        >
        e 0 90 3b 5e
        e 131 80 3b 00
        <X 91 0
          /wVrZW4t
        >
        e 0 90 3b 5e
        e 169 80 3b 00
        <X 95 0
          /wV0YWE=
        >
        e 0 90 3f 5e
        e 258 80 3f 00
        <X 201 0
          /wV0dWgt
        >
        e 0 90 3f 53
        e 254 80 3f 00
        <X 233 0
          /wVrYXMt
        >
        e 0 90 41 4d
        e 114 80 41 00
        <X 101 0
          /wV0YQ==
        >
        e 0 90 41 48
        e 96 80 41 00
        <X 155 0
          /wV0YWkt
        >
        e 0 90 3d 68
        e 402 80 3d 00
        <X 69 0
          /wV2YWFu
        >
        e 0 90 3f 55
        e 184 80 3f 00
        e 51 80 69 00
        e 0 80 74 00
        e 180 90 69 12
        <X 111 0
          /wVBaS0=
        >
        e 0 90 3f 5d
        e 427 80 3f 00
        <X 80 0
          /wVuby0=
        >
        e 0 90 3f 68
        e 220 80 3f 00
        <X 54 0
          /wVh
        >
        e 0 90 3f 68
        e 80 80 3f 00
        <X 103 0
          /wV2YXIt
        >
        e 0 90 3f 6a
        e 345 80 3f 00
        <X 99 0
          /wVtYQ==
        >
        e 0 90 3f 59
        e 135 80 3f 00
        <X 92 0
          /wVvbg==
        >
        e 0 90 3f 5c
        e 209 80 3f 00
        <X 100 0
          /wV2YWlu
        >
        e 0 90 3e 60
        e 331 80 3e 00
        <X 98 0
          /wV0w6Qt
        >
        e 0 90 3e 63
        e 235 80 3e 00
        <X 69 0
          /wVtw6Q=
        >
        e 0 90 3f 5d
        e 116 80 3f 00
        <X 67 0
          /wVoZXQt
        >
        e 0 90 3f 5d
        e 201 80 3f 00
        <X 266 0
          /wVraQ==
        >
        e 0 90 3f 68
        e 211 80 3f 00
        e 41 80 69 00
        e 30 90 69 12
        <X 41 0
          /wVIZWkt
        >
        e 0 90 3f 68
        e 510 80 3f 00
        <X 152 0
          /wVrb2wt
        >
        e 0 90 3f 69
        e 201 80 3f 00
        <X 60 0
          /wVsYQ==
        >
        e 0 90 3f 69
        e 88 80 3f 00
        <X 88 0
          /wVqw6TDpGwt
        >
        e 0 90 3f 69
        e 349 80 3f 00
        <X 64 0
          /wVsw6Q=
        >
        e 0 90 3f 69
        e 166 80 3f 00
        <X 147 0
          /wVrw6R5
        >
        e 0 90 42 64
        e 149 80 42 00
        <X 100 0
          /wVzaWUt
        >
        e 0 90 42 6c
        e 425 80 42 00
        <X 87 0
          /wVsdS0=
        >
        e 0 90 3f 5d
        e 168 80 3f 00
        <X 75 0
          /wVuaQ==
        >
        e 0 90 3f 5d
        e 135 80 3f 00
        <X 55 0
          /wVyZXQt
        >
        e 0 90 3d 57
        e 205 80 3d 00
        <X 271 0
          /wVraQ==
        >
        e 0 90 36 44
        e 166 80 36 00
        e 78 80 69 00
        e 180 90 69 12
        <X 100 0
          /wVBbi0=
        >
        e 0 90 3b 5e
        e 371 80 3b 00
        <X 109 0
          /wV0ZWVrLQ==
        >
        e 0 90 3b 5f
        e 141 80 3b 00
        <X 102 0
          /wVzaQ==
        >
        e 0 90 3b 64
        e 112 80 3b 00
        <X 131 0
          /wVMdW8t
        >
        e 0 90 3b 64
        e 383 80 3b 00
        <X 91 0
          /wVqYQ==
        >
        e 0 90 37 5e
        e 135 80 37 00
        <X 109 0
          /wVyYXUt
        >
        e 0 90 3c 67
        e 399 80 3c 00
        <X 103 0
          /wVoYWEt
        >
        e 0 90 3b 65
        e 316 80 3b 00
        <X 108 0
          /wVzaQ==
        >
        e 0 90 3b 4a
        e 157 80 3b 00
        <X 124 0
          /wV2YWkt
        >
        e 0 90 3a 66
        e 359 80 3a 00
        <X 94 0
          /wV2YWFu
        >
        e 0 90 38 5d
        e 204 80 38 00
        e 72 80 69 00
        e 240 90 69 12
        e 0 90 74 12
        <X 69 0
          /wVWb2luLQ==
        >
        e 0 90 34 5d
        e 108 80 34 00
        <X 52 0
          /wUr
        >
        e 0 90 36 53
        e 128 80 36 00
        <X 137 0
          /wVrbw==
        >
        e 0 90 3b 69
        e 149 80 3b 00
        <X 96 0
          /wVtw6Q=
        >
        e 0 90 3b 69
        e 134 80 3b 00
        <X 69 0
          /wVyYS0=
        >
        e 0 90 3b 5f
        e 131 80 3b 00
        <X 103 0
          /wVrZW4t
        >
        e 0 90 3c 59
        e 158 80 3c 00
        <X 105 0
          /wV0YWE=
        >
        e 0 90 3f 60
        e 263 80 3f 00
        <X 206 0
          /wV0dWgt
        >
        e 0 90 3e 51
        e 260 80 3e 00
        <X 222 0
          /wVrYXMt
        >
        e 0 90 40 54
        e 148 80 40 00
        <X 74 0
          /wV0YQ==
        >
        e 0 90 40 4e
        e 111 80 40 00
        <X 140 0
          /wV0YWkt
        >
        e 0 90 3d 63
        e 324 80 3d 00
        <X 148 0
          /wV2YWEt
        >
        e 0 90 36 5a
        e 194 80 36 00
        <X 44 0
          /wUr
        >
        e 0 90 38 5c
        e 205 80 38 00
        <X 73 0
          /wVuaQ==
        >
        e 0 90 38 5c
        e 221 80 38 00
        e 128 80 69 00
        e 0 80 74 00
        <X 352 0
          /wFbaWRsZV0=
        >
        <X 7863 0
          /wFbcGxheV0=
        >
        e 185 90 69 6c
        <X 295 0
          /wVTw6Q=
        >
        e 0 90 3f 51
        e 156 80 3f 00
        <X 144 0
          /wVzw6TDpHMt
        >
        e 0 90 3f 6b
        e 479 80 3f 00
        <X 191 0
          /wV0w6R0
        >
        e 0 90 40 5e
        e 164 80 40 00
        <X 233 0
          /wVsaXAt
        >
        e 0 90 3f 5c
        e 266 80 3f 00
        <X 315 0
          /wVwYWEt
        >
        e 0 90 3d 6a
        e 291 80 3d 00
        <X 112 0
          /wVzZWVu
        >
        e 0 90 3f 62
        e 454 80 3f 00
        e 200 80 69 00
        e 240 90 69 6c
        <X 145 0
          /wVSYS0=
        >
        e 0 90 3f 7b
        e 190 80 3f 00
        <X 108 0
          /wVoYXQ=
        >
        e 0 90 3e 66
        e 186 80 3e 00
        <X 316 0
          /wVrw6R5LQ==
        >
        e 0 90 3f 7d
        e 199 80 3f 00
        <X 55 0
          /wUr
        >
        e 0 90 3d 5b
        e 245 80 3d 00
        <X 156 0
          /wV0w6R0
        >
        e 0 90 3d 5e
        e 185 80 3d 00
        <X 278 0
          /wVrb3It
        >
        e 0 90 3a 71
        e 324 80 3a 00
        <X 217 0
          /wVrb2kt
        >
        e 0 90 3a 6a
        e 329 80 3a 00
        <X 98 0
          /wVuZWVu
        >
        e 0 90 3b 67
        e 431 80 3b 00
        e 198 80 69 00
        e 600 90 69 6c
        <X 199 0
          /wVLYWk=
        >
        e 0 90 3b 6e
        e 355 80 3b 00
        <X 190 0
          /wV0YS0=
        >
        e 0 90 3d 6d
        e 247 80 3d 00
        <X 79 0
          /wVsb29u
        >
        e 0 90 3f 6a
        e 441 80 3f 00
        <X 178 0
          /wVraS0=
        >
        e 0 90 40 6d
        e 316 80 40 00
        <X 121 0
          /wV2aS0=
        >
        e 0 90 42 6b
        e 252 80 42 00
        <X 204 0
          /wVzZWVu
        >
        e 0 90 3f 68
        e 2034 80 3f 00
        e 184 80 69 00
        e 2880 90 69 6c
        e 0 90 74 6c
        <X 183 0
          /wVWYWFu
        >
        e 0 90 3f 62
        e 322 80 3f 00
        <X 84 0
          /wVtaWst
        >
        e 0 90 3f 62
        e 277 80 3f 00
        <X 241 0
          /wVzaQ==
        >
        e 0 90 3f 51
        e 216 80 3f 00
        <X 229 0
          /wV1cy0=
        >
        e 0 90 3f 54
        e 342 80 3f 00
        <X 239 0
          /wVrb3Q=
        >
        e 0 90 3d 5d
        e 177 80 3d 00
        <X 316 0
          /wVuaWlu
        >
        e 0 90 3f 5e
        e 476 80 3f 00
        e 198 80 69 00
        e 0 80 74 00
        e 660 90 69 6c
        <X 157 0
          /wVKb3M=
        >
        e 0 90 3f 5d
        e 243 80 3f 00
        <X 143 0
          /wVzdWwt
        >
        e 0 90 3e 62
        e 463 80 3e 00
        <X 94 0
          /wVsZQ==
        >
        e 0 90 3d 5d
        e 174 80 3d 00
        <X 265 0
          /wVwZS0=
        >
        e 0 90 3b 71
        e 232 80 3b 00
        <X 53 0
          /wVkYXQt
        >
        e 0 90 3a 68
        e 231 80 3a 00
        <X 288 0
          /wV0aWlu
        >
        e 0 90 3b 68
        e 781 80 3b 00
        e 176 80 69 00
        e 480 90 69 6c
        <X 145 0
          /wVWYWlu
        >
        e 0 90 3b 68
        e 324 80 3b 00
        <X 115 0
          /wVzw6RuLQ==
        >
        e 0 90 3d 68
        e 442 80 3d 00
        <X 118 0
          /wVreQ==
        >
        e 0 90 40 5b
        e 184 80 40 00
        <X 218 0
          /wVzYW0t
        >
        e 0 90 40 65
        e 325 80 40 00
        <X 230 0
          /wVtYS0=
        >
        e 0 90 42 6c
        e 342 80 42 00
        <X 157 0
          /wVsaWlu
        >
        e 0 90 3f 5c
        e 2002 80 3f 00
        e 198 80 69 00
        e 1427 90 69 12
        <X 139 0
          /wVFbi0=
        >
        e 0 90 3f 5a
        e 360 80 3f 00
        <X 120 0
          /wV0w6Q=
        >
        e 0 90 3f 66
        e 223 80 3f 00
        <X 82 0
          /wVqb3M=
        >
        e 0 90 3f 66
        e 161 80 3f 00
        <X 96 0
          /wVlLQ==
        >
        e 0 90 3f 6d
        e 199 80 3f 00
        <X 58 0
          /wVsw6Qt
        >
        e 0 90 3f 66
        e 257 80 3f 00
        <X 109 0
          /wVtw6Ru
        >
        e 0 90 3f 65
        e 182 80 3f 00
        <X 61 0
          /wVpLQ==
        >
        e 0 90 3f 65
        e 172 80 3f 00
        <X 161 0
          /wVrdWkt
        >
        e 0 90 3f 5d
        e 355 80 3f 00
        <X 80 0
          /wVuZW4=
        >
        e 0 90 3e 5d
        e 147 80 3e 00
        <X 99 0
          /wV2aXIt
        >
        e 0 90 3f 66
        e 149 80 3f 00
        <X 69 0
          /wUr
        >
        e 0 90 3d 47
        e 96 80 3d 00
        <X 105 0
          /wV0YQ==
        >
        e 0 90 3d 5c
        e 228 80 3d 00
        e 72 80 69 00
        e 120 90 69 12
        e 0 90 74 12
        <X 70 0
          /wVLYXQt
        >
        e 0 90 3f 5c
        e 204 80 3f 00
        <X 268 0
          /wVrZS0=
        >
        e 0 90 3f 65
        e 214 80 3f 00
        <X 55 0
          /wVhYQ==
        >
        e 0 90 3f 65
        e 309 80 3f 00
        <X 451 0
          /wVrdWlu
        >
        e 0 90 42 6a
        e 243 80 42 00
        <X 141 0
          /wVsYS0=
        >
        e 0 90 42 65
        e 262 80 42 00
        <X 110 0
          /wVob24t
        >
        e 0 90 40 66
        e 160 80 40 00
        <X 46 0
          /wUr
        >
        e 0 90 3e 4c
        e 97 80 3e 00
        <X 84 0
          /wVudXQ=
        >
        e 0 90 40 48
        e 113 80 40 00
        <X 94 0
          /wVzaWwt
        >
        e 0 90 3d 5a
        e 405 80 3d 00
        <X 125 0
          /wV0YQ==
        >
        e 0 90 36 5c
        e 181 80 36 00
        e 88 80 69 00
        e 0 80 74 00
        e 120 90 69 12
        <X 92 0
          /wVFbi0=
        >
        e 0 90 3c 5e
        e 347 80 3c 00
        <X 132 0
          /wV0w6Q=
        >
        e 0 90 3b 61
        e 207 80 3b 00
        <X 61 0
          /wVqb3M=
        >
        e 0 90 3b 61
        e 101 80 3b 00
        <X 103 0
          /wVlay0=
        >
        e 0 90 3b 61
        e 163 80 3b 00
        <X 222 0
          /wVzeW4=
        >
        e 0 90 38 56
        e 373 80 38 00
        <X 189 0
          /wVtYXQt
        >
        e 0 90 3b 58
        e 191 80 3b 00
        <X 272 0
          /wVrYWwt
        >
        e 0 90 3b 68
        e 248 80 3b 00
        <X 52 0
          /wVsYQ==
        >
        e 0 90 3b 68
        e 117 80 3b 00
        <X 124 0
          /wVsYWkt
        >
        e 0 90 3a 63
        e 344 80 3a 00
        <X 111 0
          /wV2YWFu
        >
        e 0 90 38 62
        e 210 80 38 00
        e 61 80 69 00
        e 120 90 69 12
        <X 99 0
          /wVWb2luLQ==
        >
        e 0 90 35 5c
        e 342 80 35 00
        <X 130 0
          /wVrbw==
        >
        e 0 90 3b 68
        e 151 80 3b 00
        <X 103 0
          /wVtw6Q=
        >
        e 0 90 3b 5f
        e 159 80 3b 00
        <X 72 0
          /wVyYS0=
        >
        e 0 90 3b 5e
        e 132 80 3b 00
        <X 90 0
          /wVrZW4t
        >
        e 0 90 3b 5e
        e 170 80 3b 00
        <X 94 0
          /wV0YWE=
        >
        e 0 90 3f 5e
        e 259 80 3f 00
        <X 200 0
          /wV0dWgt
        >
        e 0 90 3f 53
        e 255 80 3f 00
        <X 233 0
          /wVrYXMt
        >
        e 0 90 41 4d
        e 113 80 41 00
        <X 101 0
          /wV0YQ==
        >
        e 0 90 41 48
        e 97 80 41 00
        <X 154 0
          /wV0YWkt
        >
        e 0 90 3d 68
        e 403 80 3d 00
        <X 69 0
          /wV2YWFu
        >
        e 0 90 3f 55
        e 184 80 3f 00
        e 50 80 69 00
        e 180 90 69 12
        <X 111 0
          /wVBaS0=
        >
        e 0 90 3f 5d
        e 428 80 3f 00
        <X 79 0
          /wVuby0=
        >
        e 0 90 3f 68
        e 220 80 3f 00
        <X 55 0
          /wVh
        >
        e 0 90 3f 68
        e 79 80 3f 00
        <X 104 0
          /wV2YXIt
        >
        e 0 90 3f 6a
        e 344 80 3f 00
        <X 99 0
          /wVtYQ==
        >
        e 0 90 3f 59
        e 136 80 3f 00
        <X 91 0
          /wVvbg==
        >
        e 0 90 3f 5c
        e 209 80 3f 00
        <X 100 0
          /wV2YWlu
        >
        e 0 90 3e 60
        e 332 80 3e 00
        <X 97 0
          /wV0w6Qt
        >
        e 0 90 3e 63
        e 235 80 3e 00
        <X 70 0
          /wVtw6Q=
        >
        e 0 90 3f 5d
        e 115 80 3f 00
        <X 68 0
          /wVoZXQt
        >
        e 0 90 3f 5d
        e 200 80 3f 00
        <X 266 0
          /wVraQ==
        >
        e 0 90 3f 68
        e 212 80 3f 00
        e 40 80 69 00
        e 30 90 69 12
        e 0 90 74 12
        <X 41 0
          /wVIZWkt
        >
        e 0 90 3f 68
        e 511 80 3f 00
        <X 152 0
          /wVrb2wt
        >
        e 0 90 3f 69
        e 201 80 3f 00
        <X 60 0
          /wVsYQ==
        >
        e 0 90 3f 69
        e 88 80 3f 00
        <X 87 0
          /wVqw6TDpGwt
        >
        e 0 90 3f 69
        e 349 80 3f 00
        <X 64 0
          /wVsw6Q=
        >
        e 0 90 3f 69
        e 166 80 3f 00
        <X 147 0
          /wVrw6R5
        >
        e 0 90 42 64
        e 150 80 42 00
        <X 100 0
          /wVzaWUt
        >
        e 0 90 42 6c
        e 425 80 42 00
        <X 87 0
          /wVsdS0=
        >
        e 0 90 3f 5d
        e 168 80 3f 00
        <X 74 0
          /wVuaQ==
        >
        e 0 90 3f 5d
        e 136 80 3f 00
        <X 54 0
          /wVyZXQt
        >
        e 0 90 3d 57
        e 206 80 3d 00
        <X 270 0
          /wVraQ==
        >
        e 0 90 36 44
        e 167 80 36 00
        e 77 80 69 00
        e 0 80 74 00
        e 180 90 69 12
        <X 101 0
          /wVBbi0=
        >
        e 0 90 3b 5e
        e 370 80 3b 00
        <X 109 0
          /wV0ZWVrLQ==
        >
        e 0 90 3b 5f
        e 142 80 3b 00
        <X 101 0
          /wVzaQ==
        >
        e 0 90 3b 64
        e 112 80 3b 00
        <X 131 0
          /wVMdW8t
        >
        e 0 90 3b 64
        e 383 80 3b 00
        <X 91 0
          /wVqYQ==
        >
        e 0 90 37 5e
        e 135 80 37 00
        <X 109 0
          /wVyYXUt
        >
        e 0 90 3c 67
        e 399 80 3c 00
        <X 104 0
          /wVoYWEt
        >
        e 0 90 3b 65
        e 316 80 3b 00
        <X 107 0
          /wVzaQ==
        >
        e 0 90 3b 4a
        e 158 80 3b 00
        <X 124 0
          /wV2YWkt
        >
        e 0 90 3a 66
        e 358 80 3a 00
        <X 94 0
          /wV2YWFu
        >
        e 0 90 38 5d
        e 204 80 38 00
        e 72 80 69 00
        e 240 90 69 12
        <X 69 0
          /wVWb2luLQ==
        >
        e 0 90 34 5d
        e 108 80 34 00
        <X 52 0
          /wUr
        >
        e 0 90 36 53
        e 129 80 36 00
        <X 137 0
          /wVrbw==
        >
        e 0 90 3b 69
        e 149 80 3b 00
        <X 95 0
          /wVtw6Q=
        >
        e 0 90 3b 69
        e 135 80 3b 00
        <X 68 0
          /wVyYS0=
        >
        e 0 90 3b 5f
        e 131 80 3b 00
        <X 103 0
          /wVrZW4t
        >
        e 0 90 3c 59
        e 159 80 3c 00
        <X 105 0
          /wV0YWE=
        >
        e 0 90 3f 60
        e 262 80 3f 00
        <X 207 0
          /wV0dWgt
        >
        e 0 90 3e 51
        e 259 80 3e 00
        <X 222 0
          /wVrYXMt
        >
        e 0 90 40 54
        e 149 80 40 00
        <X 74 0
          /wV0YQ==
        >
        e 0 90 40 4e
        e 111 80 40 00
        <X 140 0
          /wV0YWkt
        >
        e 0 90 3d 63
        e 323 80 3d 00
        <X 148 0
          /wV2YWEt
        >
        e 0 90 36 5a
        e 193 80 36 00
        <X 44 0
          /wUr
        >
        e 0 90 38 5c
        e 206 80 38 00
        <X 73 0
          /wVuaQ==
        >
        e 0 90 38 5c
        e 221 80 38 00
        e 128 80 69 00
        <X 352 0
          /wFbaWRsZV0=
        >
        <X 14211 0
          /wFbcGxheV0=
        >
        e 270 90 69 61
        <X 210 0
          /wVBaA==
        >
        e 0 90 38 58
        e 2730 80 38 00
        <X 185 0
          /wVhYQ==
        >
        e 0 90 40 61
        e 381 80 40 00
        <X 83 0
          /wUr
        >
        e 0 90 3f 63
        e 243 80 3f 00
        <X 96 0
          /wUr
        >
        e 0 90 3d 5b
        e 2321 80 3d 00
        e 231 80 69 00
        e 180 90 69 61
        e 0 90 74 61
        <X 188 0
          /wVBaA==
        >
        e 0 90 3d 61
        e 465 80 3d 00
        <X 90 0
          /wVhYQ==
        >
        e 0 90 3f 61
        e 283 80 3f 00
        <X 135 0
          /wUr
        >
        e 0 90 38 55
        e 3825 80 38 00
        <X 80 0
          /wUr
        >
        e 0 90 36 3f
        e 2859 80 36 00
        e 295 80 69 00
        e 0 80 74 00
        e 660 90 69 61
        <X 256 0
          /wVBaA==
        >
        e 0 90 38 43
        e 2508 80 38 00
        <X 220 0
          /wVhYQ==
        >
        e 0 90 40 47
        e 633 80 40 00
        <X 126 0
          /wUr
        >
        e 0 90 3d 46
        e 2222 80 3d 00
        e 215 80 69 00
        e 240 90 69 61
        <X 234 0
          /wVBaA==
        >
        e 0 90 3d 5d
        e 483 80 3d 00
        <X 142 0
          /wUr
        >
        e 0 90 3f 61
        e 295 80 3f 00
        <X 115 0
          /wVhYQ==
        >
        e 0 90 38 5c
        e 3811 80 38 00
        <X 99 0
          /wUr
        >
        e 0 90 36 59
        e 3378 80 36 00
        e 263 80 69 00
        <X 217 0
          /wFbaWRsZV0=
        >
        <X 14733 0
          /wFbcGxheV0=
        >
        e 341 90 69 12
        <X 139 0
          /wVFbi0=
        >
        e 0 90 3f 5a
        e 360 80 3f 00
        <X 120 0
          /wV0w6Q=
        >
        e 0 90 3f 66
        e 223 80 3f 00
        <X 82 0
          /wVqb3M=
        >
        e 0 90 3f 66
        e 161 80 3f 00
        <X 96 0
          /wVlLQ==
        >
        e 0 90 3f 6d
        e 199 80 3f 00
        <X 58 0
          /wVsw6Qt
        >
        e 0 90 3f 66
        e 257 80 3f 00
        <X 109 0
          /wVtw6Ru
        >
        e 0 90 3f 65
        e 182 80 3f 00
        <X 61 0
          /wVpLQ==
        >
        e 0 90 3f 65
        e 172 80 3f 00
        <X 161 0
          /wVrdWkt
        >
        e 0 90 3f 5d
        e 355 80 3f 00
        <X 80 0
          /wVuZW4=
        >
        e 0 90 3e 5d
        e 147 80 3e 00
        <X 99 0
          /wV2aXIt
        >
        e 0 90 3f 66
        e 149 80 3f 00
        <X 69 0
          /wUr
        >
        e 0 90 3d 47
        e 96 80 3d 00
        <X 105 0
          /wV0YQ==
        >
        e 0 90 3d 5c
        e 228 80 3d 00
        e 72 80 69 00
        e 120 90 69 12
        e 0 90 74 12
        <X 70 0
          /wVLYXQt
        >
        e 0 90 3f 5c
        e 204 80 3f 00
        <X 268 0
          /wVrZS0=
        >
        e 0 90 3f 65
        e 214 80 3f 00
        <X 55 0
          /wVhYQ==
        >
        e 0 90 3f 65
        e 309 80 3f 00
        <X 451 0
          /wVrdWlu
        >
        e 0 90 42 6a
        e 243 80 42 00
        <X 141 0
          /wVsYS0=
        >
        e 0 90 42 65
        e 262 80 42 00
        <X 110 0
          /wVob24t
        >
        e 0 90 40 66
        e 160 80 40 00
        <X 46 0
          /wUr
        >
        e 0 90 3e 4c
        e 97 80 3e 00
        <X 84 0
          /wVudXQ=
        >
        e 0 90 40 48
        e 113 80 40 00
        <X 94 0
          /wVzaWwt
        >
        e 0 90 3d 5a
        e 405 80 3d 00
        <X 125 0
          /wV0YQ==
        >
        e 0 90 36 5c
        e 181 80 36 00
        e 88 80 69 00
        e 0 80 74 00
        e 120 90 69 12
        <X 92 0
          /wVFbi0=
        >
        e 0 90 3c 5e
        e 347 80 3c 00
        <X 132 0
          /wV0w6Q=
        >
        e 0 90 3b 61
        e 207 80 3b 00
        <X 61 0
          /wVqb3M=
        >
        e 0 90 3b 61
        e 101 80 3b 00
        <X 103 0
          /wVlay0=
        >
        e 0 90 3b 61
        e 163 80 3b 00
        <X 222 0
          /wVzeW4=
        >
        e 0 90 38 56
        e 373 80 38 00
        <X 189 0
          /wVtYXQt
        >
        e 0 90 3b 58
        e 191 80 3b 00
        <X 272 0
          /wVrYWwt
        >
        e 0 90 3b 68
        e 248 80 3b 00
        <X 52 0
          /wVsYQ==
        >
        e 0 90 3b 68
        e 117 80 3b 00
        <X 124 0
          /wVsYWkt
        >
        e 0 90 3a 63
        e 344 80 3a 00
        <X 111 0
          /wV2YWFu
        >
        e 0 90 38 62
        e 210 80 38 00
        e 61 80 69 00
        e 120 90 69 12
        <X 99 0
          /wVWb2luLQ==
        >
        e 0 90 35 5c
        e 342 80 35 00
        <X 130 0
          /wVrbw==
        >
        e 0 90 3b 68
        e 151 80 3b 00
        <X 103 0
          /wVtw6Q=
        >
        e 0 90 3b 5f
        e 159 80 3b 00
        <X 72 0
          /wVyYS0=
        >
        e 0 90 3b 5e
        e 132 80 3b 00
        <X 90 0
          /wVrZW4t
        >
        e 0 90 3b 5e
        e 170 80 3b 00
        <X 94 0
          /wV0YWE=
        >
        e 0 90 3f 5e
        e 259 80 3f 00
        <X 200 0
          /wV0dWgt
        >
        e 0 90 3f 53
        e 255 80 3f 00
        <X 233 0
          /wVrYXMt
        >
        e 0 90 41 4d
        e 113 80 41 00
        <X 101 0
          /wV0YQ==
        >
        e 0 90 41 48
        e 97 80 41 00
        <X 154 0
          /wV0YWkt
        >
        e 0 90 3d 68
        e 403 80 3d 00
        <X 69 0
          /wV2YWFu
        >
        e 0 90 3f 55
        e 184 80 3f 00
        e 50 80 69 00
        e 180 90 69 12
        <X 111 0
          /wVBaS0=
        >
        e 0 90 3f 5d
        e 428 80 3f 00
        <X 79 0
          /wVuby0=
        >
        e 0 90 3f 68
        e 220 80 3f 00
        <X 55 0
          /wVh
        >
        e 0 90 3f 68
        e 79 80 3f 00
        <X 104 0
          /wV2YXIt
        >
        e 0 90 3f 6a
        e 344 80 3f 00
        <X 99 0
          /wVtYQ==
        >
        e 0 90 3f 59
        e 136 80 3f 00
        <X 91 0
          /wVvbg==
        >
        e 0 90 3f 5c
        e 209 80 3f 00
        <X 100 0
          /wV2YWlu
        >
        e 0 90 3e 60
        e 332 80 3e 00
        <X 97 0
          /wV0w6Qt
        >
        e 0 90 3e 63
        e 235 80 3e 00
        <X 70 0
          /wVtw6Q=
        >
        e 0 90 3f 5d
        e 115 80 3f 00
        <X 68 0
          /wVoZXQt
        >
        e 0 90 3f 5d
        e 200 80 3f 00
        <X 266 0
          /wVraQ==
        >
        e 0 90 3f 68
        e 212 80 3f 00
        e 40 80 69 00
        e 30 90 69 12
        e 0 90 74 12
        <X 41 0
          /wVIZWkt
        >
        e 0 90 3f 68
        e 511 80 3f 00
        <X 152 0
          /wVrb2wt
        >
        e 0 90 3f 69
        e 201 80 3f 00
        <X 60 0
          /wVsYQ==
        >
        e 0 90 3f 69
        e 88 80 3f 00
        <X 87 0
          /wVqw6TDpGwt
        >
        e 0 90 3f 69
        e 349 80 3f 00
        <X 64 0
          /wVsw6Q=
        >
        e 0 90 3f 69
        e 166 80 3f 00
        <X 147 0
          /wVrw6R5
        >
        e 0 90 42 64
        e 150 80 42 00
        <X 100 0
          /wVzaWUt
        >
        e 0 90 42 6c
        e 425 80 42 00
        <X 87 0
          /wVsdS0=
        >
        e 0 90 3f 5d
        e 168 80 3f 00
        <X 74 0
          /wVuaQ==
        >
        e 0 90 3f 5d
        e 136 80 3f 00
        <X 54 0
          /wVyZXQt
        >
        e 0 90 3d 57
        e 206 80 3d 00
        <X 270 0
          /wVraQ==
        >
        e 0 90 36 44
        e 167 80 36 00
        e 77 80 69 00
        e 0 80 74 00
        e 180 90 69 12
        <X 101 0
          /wVBbi0=
        >
        e 0 90 3b 5e
        e 370 80 3b 00
        <X 109 0
          /wV0ZWVrLQ==
        >
        e 0 90 3b 5f
        e 142 80 3b 00
        <X 101 0
          /wVzaQ==
        >
        e 0 90 3b 64
        e 112 80 3b 00
        <X 131 0
          /wVMdW8t
        >
        e 0 90 3b 64
        e 383 80 3b 00
        <X 91 0
          /wVqYQ==
        >
        e 0 90 37 5e
        e 135 80 37 00
        <X 109 0
          /wVyYXUt
        >
        e 0 90 3c 67
        e 399 80 3c 00
        <X 104 0
          /wVoYWEt
        >
        e 0 90 3b 65
        e 316 80 3b 00
        <X 107 0
          /wVzaQ==
        >
        e 0 90 3b 4a
        e 158 80 3b 00
        <X 124 0
          /wV2YWkt
        >
        e 0 90 3a 66
        e 358 80 3a 00
        <X 94 0
          /wV2YWFu
        >
        e 0 90 38 5d
        e 204 80 38 00
        e 72 80 69 00
        e 240 90 69 12
        <X 69 0
          /wVWb2luLQ==
        >
        e 0 90 34 5d
        e 108 80 34 00
        <X 52 0
          /wUr
        >
        e 0 90 36 53
        e 129 80 36 00
        <X 137 0
          /wVrbw==
        >
        e 0 90 3b 69
        e 149 80 3b 00
        <X 95 0
          /wVtw6Q=
        >
        e 0 90 3b 69
        e 135 80 3b 00
        <X 68 0
          /wVyYS0=
        >
        e 0 90 3b 5f
        e 131 80 3b 00
        <X 103 0
          /wVrZW4t
        >
        e 0 90 3c 59
        e 159 80 3c 00
        <X 105 0
          /wV0YWE=
        >
        e 0 90 3f 60
        e 262 80 3f 00
        <X 207 0
          /wV0dWgt
        >
        e 0 90 3e 51
        e 259 80 3e 00
        <X 222 0
          /wVrYXMt
        >
        e 0 90 40 54
        e 149 80 40 00
        <X 74 0
          /wV0YQ==
        >
        e 0 90 40 4e
        e 111 80 40 00
        <X 140 0
          /wV0YWkt
        >
        e 0 90 3d 63
        e 323 80 3d 00
        <X 148 0
          /wV2YWEt
        >
        e 0 90 36 5a
        e 193 80 36 00
        <X 44 0
          /wUr
        >
        e 0 90 38 5c
        e 206 80 38 00
        <X 73 0
          /wVuaQ==
        >
        e 0 90 38 5c
        e 221 80 38 00
        e 128 80 69 00
        e 5109 90 69 5e
        <X 265 0
          /wVUdWgt
        >
        e 0 90 3f 56
        e 250 80 3f 00
        <X 209 0
          /wVrYXMt
        >
        e 0 90 40 56
        e 128 80 40 00
        <X 130 0
          /wV0YQ==
        >
        e 0 90 3f 4e
        e 78 80 3f 00
        <X 169 0
          /wV0YWkt
        >
        e 0 90 3d 67
        e 205 80 3d 00
        <X 51 0
          /wUr
        >
        e 0 90 37 55
        e 129 80 37 00
        <X 121 0
          /wV2YWEt
        >
        e 0 90 36 64
        e 194 80 36 00
        <X 52 0
          /wUr
        >
        e 0 90 38 69
        e 150 80 38 00
        <X 86 0
          /wVuaQ==
        >
        e 0 90 38 69
        e 276 80 38 00
        e 327 80 69 00
        e 4860 90 69 5e
        <X 272 0
          /wVUdWgt
        >
        e 0 90 3e 57
        e 229 80 3e 00
        <X 222 0
          /wVrYXMt
        >
        e 0 90 40 50
        e 142 80 40 00
        <X 100 0
          /wV0YQ==
        >
        e 0 90 3f 44
        e 81 80 3f 00
        <X 185 0
          /wV0YWkt
        >
        e 0 90 3d 6a
        e 385 80 3d 00
        <X 96 0
          /wV2YWEt
        >
        e 0 90 36 63
        e 429 80 36 00
        <X 87 0
          /wVuaQ==
        >
        e 0 90 38 5e
        e 281 80 38 00
        e 251 80 69 00
        <X 229 0
          /wFbaWRsZV9yZWFsdGltZV0=
        >
        E 5890 b0 7b 00
        GUID {D78D8959-2AD8-48C0-8F6C-4A6670952331}
        IGNTEMPO 0 120.00000000 4 4
        SRCCOLOR 1437
        VELLANE 132 128 60
        COLORMAP "C:\Users\me\AppData\Roaming\REAPER\Data\color_maps\rockband_vox-other.png"
        TEXTSTRINGFILE "C:\Program Files\REAPER\Data\Text_Strings\Text Events List.txt"
        CFGEDITVIEW 84892.001984 138.034532 0 12 0 0 0
        CFGEDIT 1 1 0 1 1 1 1 1 1 1 1 0.06250000 -8 -8 1374 736 1 2 1 2 0.00000000 0 0 0 0 0.500000 1 0 1.000000 64
        KEYSNAP 0 0 "102034050607" 0 "Major"
        EVTFILTER 0 -1 -1 -1 -1 0 1 0 0 -1.00000000 -1.00000000
      >
    >
  >
  <TRACK '{4A30D2A4-111B-40E3-8633-0926E85E641C}'
    NAME "DRYVOX1"
    PEAKCOL 16576
    BEAT -1
    AUTOMODE 0
    VOLPAN 1.00000000000000 0.00000000000000 -1.00000000000000 -1.00000000000000 1.00000000000000
    MUTESOLO 1 0 0
    IPHASE 0
    ISBUS 0 0
    BUSCOMP 0 0
    SHOWINMIX 1 0.666700 0.500000 1 0.500000 -1 -1 -1
    FREEMODE 0
    SEL 0
    REC 0 0 0 0 0 0 0
    TRACKHEIGHT 24 0
    INQ 0 0 0 0.5000000000 100 0 0 100
    NCHAN 2
    FX 1
    TRACKID {4A30D2A4-111B-40E3-8633-0926E85E641C}
    PERF 0
    MIDIOUT -1
    MAINSEND 1 0
    <FXCHAIN
      SHOW 0
      LASTSEL 0
      DOCKED 0
      BYPASS 0 0
      <VST "VST: ReaGate (Cockos)" "reagate.dll" 0 ""
        dGdlcu9e7f4EAAAAAQAAAAAAAAACAAAAAAAAAAQAAAAAAAAACAAAAA==
        AAAAAAIAAAABAAAAAAAAAAIAAAAAAAAAVAAAAAAAAAAAABAA776t3g==
        DfCt3pzRBzOmm8Q7CtejPAAAAAAAAAAAAACAPwAAAAAAAAAAAAAAAA==
        nNEHMx5Ucz+c0QczAACAPwAAAAAAAAAAAAAAACwWCz8AAAAAAAAAAA==
        AAAQAAAA
      >
      FLOATPOS 859 184 511 385
      FXID {BF545B5B-7DD0-4B4C-AC52-F095A552DA08}
      WAK 0
    >
    <ITEM
      POSITION 2.16421718522906
      SNAPOFFS 0.00000000000000
      LENGTH 255.68852607709749
      LOOP 0
      ALLTAKES 0
      SEL 0
      FADEIN 1 0.000000 0.000000 1 0
      FADEOUT 1 0.000000 0.000000 1 0
      MUTE 0
      IGUID {49003050-1DD9-42E5-9F7E-E941B384AFDF}
      IID 184
      NAME "vocals-lead-v2_[mvsep.com].flac"
      VOLPAN 1.000000 0.000000 1.000000 -1.000000
      SOFFS 0.00000000000000
      PLAYRATE 1.00000000000000 1 0.00000000000000 -1
      CHANMODE 0
      GUID {6A8EA74D-BCB6-424D-B3FF-87D81BD9A59D}
      <SOURCE FLAC
        FILE "vocals-lead-v2_[mvsep.com].flac"
      >
    >
  >
  <TRACK '{983C7D04-DAF6-462A-B5E6-64213F29FBA0}'
    NAME "HARM2"
    PEAKCOL 24624127
    BEAT -1
    AUTOMODE 0
    VOLPAN 1.00497380427334 0.00000000000000 -1.00000000000000 -1.00000000000000 1.00000000000000
    MUTESOLO 0 0 0
    IPHASE 0
    ISBUS 0 0
    BUSCOMP 0 0
    SHOWINMIX 1 0.666700 0.500000 1 0.500000 -1 -1 -1
    FREEMODE 0
    SEL 0
    REC 0 0 0 0 0 0 0
    TRACKHEIGHT 24 0
    INQ 0 0 0 0.5000000000 100 0 0 100
    NCHAN 2
    FX 1
    TRACKID {983C7D04-DAF6-462A-B5E6-64213F29FBA0}
    PERF 0
    MIDIOUT -1
    <MIDINOTENAMES
      0 0 "Range Shift"
      0 1 "Lyric Shift"
      0 36 "C1"
      0 37 "C#"
      0 38 "D"
      0 39 "Eb"
      0 40 "E"
      0 41 "F"
      0 42 "F#"
      0 43 "G"
      0 44 "G#"
      0 45 "A"
      0 46 "Bb"
      0 47 "B"
      0 48 "C2"
      0 49 "C#"
      0 50 "D"
      0 51 "Eb"
      0 52 "E"
      0 53 "F"
      0 54 "F#"
      0 55 "G"
      0 56 "G#"
      0 57 "A"
      0 58 "Bb"
      0 59 "B"
      0 60 "C3"
      0 61 "C#"
      0 62 "D"
      0 63 "Eb"
      0 64 "E"
      0 65 "F"
      0 66 "F#"
      0 67 "G"
      0 68 "G#"
      0 69 "A"
      0 70 "Bb"
      0 71 "B"
      0 72 "C4"
      0 73 "C#"
      0 74 "D"
      0 75 "Eb"
      0 76 "E"
      0 77 "F"
      0 78 "F#"
      0 79 "G"
      0 80 "G#"
      0 81 "A"
      0 82 "Bb"
      0 83 "B"
      0 105 "Phrase Marker"
      0 35 "----"
      0 84 "C5"
      0 116 "OVERDRIVE"
      0 115 "----"
      0 104 "----"
      0 97 "Not Displayed Percussion"
      0 96 "Displayed Percussion"
      0 95 "----"
    >
    MAINSEND 1 0
    <FXCHAIN
      WNDRECT 0 42 716 493
      SHOW 0
      LASTSEL 1
      DOCKED 0
      BYPASS 0 0
      <JS "IX/MIDI_Tool II" ""
        0.000000 85.000000 127.000000 0.000000 0.000000 0.000000 100.000000 0.000000 0.000000 127.000000 0.000000 0.000000 1.000000 0.000000 0.000000 - - - - - - - - - - - - - - - - - - - - - - - - - - - - - - - - - - - - - - - - - - - - - - - - - 
      >
      FLOATPOS 0 0 0 0
      FXID {0D2127EF-90E6-4278-AB57-59BADA75D3A0}
      WAK 0
      BYPASS 0 0
      <VST "VSTi: ReaSynth (Cockos)" "reasynth.dll" 0 ""
        eXNlcu9e7f4AAAAAAgAAAAEAAAAAAAAAAgAAAAAAAAA4AAAAAAAAAA==
        AAAAAO++rd4N8K3eppvEOxe30ToAAAAAAAAAAAAAAACa9Q8/6WeIPQ==
        AAAAAAAAAD8AAIA/AAAAAAAAAD8AAAAAAAA=
      >
      FLOATPOS 0 0 0 0
      FXID {9CF76FE8-51DE-4F46-8774-EF282D9874DF}
      WAK 0
    >
    <ITEM
      POSITION 0.00000000000000
      SNAPOFFS 0.00000000000000
      LENGTH 256.16382087400871
      LOOP 0
      ALLTAKES 0
      SEL 0
      FADEIN 1 0.000000 0.000000 1 0
      FADEOUT 1 0.000000 0.000000 1 0
      MUTE 0
      IGUID {85B4D2FA-0EE6-4979-8286-EAC89A15680D}
      IID 12
      NAME "HARM2 untitled MIDI item"
      VOLPAN 1.000000 0.000000 1.000000 -1.000000
      SOFFS 0.00000000000000 0.00000000000000
      PLAYRATE 1.00000000000000 1 0.00000000000000 -1
      CHANMODE 0
      GUID {67C8C31A-733D-46F5-9A6D-0FDF2143554E}
      <SOURCE MIDI
        HASDATA 1 480 QN
        POOLEDEVTS {53830073-2D14-4902-99E3-A3BC76657331}
        <X 0 0
          /wNIQVJNMg==
        >
        <X 3840 0
          /wFbaWRsZV0=
        >
        <X 40320 0
          /wFbcGxheV0=
        >
        E 1321 90 69 60
        E 3240 80 69 00
        E 480 90 69 60
        E 3360 80 69 00
        E 600 90 69 60
        E 4440 80 69 00
        E 3120 90 69 60
        E 0 90 74 60
        E 3360 80 69 00
        E 0 80 74 00
        E 480 90 69 12
        E 3360 80 69 00
        E 480 90 69 12
        E 4320 80 69 00
        E 3360 90 69 12
        E 3600 80 69 00
        E 240 90 69 12
        E 0 90 74 12
        E 3480 80 69 00
        E 0 80 74 00
        E 360 90 69 12
        E 4320 80 69 00
        E 3360 90 69 12
        E 3480 80 69 00
        E 360 90 69 12
        E 3480 80 69 00
        E 360 90 69 12
        E 0 90 74 12
        E 5760 80 69 00
        E 0 80 74 00
        E 600 90 69 12
        <X 138 0
          /wVFbi0=
        >
        E 0 90 42 5a
        E 360 80 42 00
        <X 120 0
          /wV0w6Q=
        >
        E 0 90 42 66
        E 223 80 42 00
        <X 82 0
          /wVqb3M=
        >
        E 0 90 42 66
        E 161 80 42 00
        <X 96 0
          /wVlLQ==
        >
        E 0 90 42 6d
        E 199 80 42 00
        <X 58 0
          /wVsw6Qt
        >
        E 0 90 42 66
        E 257 80 42 00
        <X 109 0
          /wVtw6Ru
        >
        E 0 90 42 65
        E 182 80 42 00
        <X 61 0
          /wVpLQ==
        >
        E 0 90 42 65
        E 172 80 42 00
        <X 161 0
          /wVrdWkt
        >
        E 0 90 42 5d
        E 355 80 42 00
        <X 80 0
          /wVuZW4=
        >
        E 0 90 41 5d
        E 147 80 41 00
        <X 99 0
          /wV2aXIt
        >
        E 0 90 42 66
        E 149 80 42 00
        <X 69 0
          /wUr
        >
        E 0 90 40 47
        E 96 80 40 00
        <X 105 0
          /wV0YQ==
        >
        E 0 90 40 5c
        E 228 80 40 00
        E 73 80 69 00
        E 120 90 69 12
        <X 69 0
          /wVLYXQt
        >
        E 0 90 42 5c
        E 204 80 42 00
        <X 268 0
          /wVrZS0=
        >
        E 0 90 42 65
        E 214 80 42 00
        <X 55 0
          /wVhYQ==
        >
        E 0 90 42 65
        E 309 80 42 00
        <X 452 0
          /wVrdWlu
        >
        E 0 90 45 6a
        E 243 80 45 00
        <X 140 0
          /wVsYS0=
        >
        E 0 90 45 65
        E 262 80 45 00
        <X 110 0
          /wVob24t
        >
        E 0 90 43 66
        E 160 80 43 00
        <X 46 0
          /wUr
        >
        E 0 90 41 4c
        E 97 80 41 00
        <X 85 0
          /wVudXQ=
        >
        E 0 90 43 48
        E 112 80 43 00
        <X 94 0
          /wVzaWwt
        >
        E 0 90 40 5a
        E 405 80 40 00
        <X 126 0
          /wV0YQ==
        >
        E 0 90 39 5c
        E 181 80 39 00
        E 88 80 69 00
        E 120 90 69 12
        <X 92 0
          /wVFbi0=
        >
        E 0 90 3f 5e
        E 347 80 3f 00
        <X 131 0
          /wV0w6Q=
        >
        E 0 90 3e 61
        E 207 80 3e 00
        <X 62 0
          /wVqb3M=
        >
        E 0 90 3e 61
        E 101 80 3e 00
        <X 103 0
          /wVlay0=
        >
        E 0 90 3e 61
        E 163 80 3e 00
        <X 222 0
          /wVzeW4=
        >
        E 0 90 3b 56
        E 372 80 3b 00
        <X 190 0
          /wVtYXQt
        >
        E 0 90 3e 58
        E 191 80 3e 00
        <X 272 0
          /wVrYWwt
        >
        E 0 90 3e 68
        E 248 80 3e 00
        <X 52 0
          /wVsYQ==
        >
        E 0 90 3e 68
        E 116 80 3e 00
        <X 125 0
          /wVsYWkt
        >
        E 0 90 3d 63
        E 343 80 3d 00
        <X 112 0
          /wV2YWFu
        >
        E 0 90 3b 62
        E 210 80 3b 00
        E 61 80 69 00
        E 120 90 69 12
        E 0 90 74 12
        <X 99 0
          /wVWb2luLQ==
        >
        E 0 90 38 5c
        E 342 80 38 00
        <X 129 0
          /wVrbw==
        >
        E 0 90 3e 68
        E 152 80 3e 00
        <X 103 0
          /wVtw6Q=
        >
        E 0 90 3e 5f
        E 159 80 3e 00
        <X 72 0
          /wVyYS0=
        >
        E 0 90 3e 5e
        E 131 80 3e 00
        <X 91 0
          /wVrZW4t
        >
        E 0 90 3e 5e
        E 169 80 3e 00
        <X 95 0
          /wV0YWE=
        >
        E 0 90 42 5e
        E 258 80 42 00
        <X 201 0
          /wV0dWgt
        >
        E 0 90 42 53
        E 254 80 42 00
        <X 233 0
          /wVrYXMt
        >
        E 0 90 44 4d
        E 114 80 44 00
        <X 101 0
          /wV0YQ==
        >
        E 0 90 44 48
        E 96 80 44 00
        <X 155 0
          /wV0YWkt
        >
        E 0 90 40 68
        E 402 80 40 00
        <X 69 0
          /wV2YWFu
        >
        E 0 90 42 55
        E 184 80 42 00
        E 51 80 69 00
        E 0 80 74 00
        E 180 90 69 12
        <X 111 0
          /wVBaS0=
        >
        E 0 90 42 5d
        E 427 80 42 00
        <X 80 0
          /wVuby0=
        >
        E 0 90 42 68
        E 220 80 42 00
        <X 54 0
          /wVh
        >
        E 0 90 42 68
        E 80 80 42 00
        <X 103 0
          /wV2YXIt
        >
        E 0 90 42 6a
        E 345 80 42 00
        <X 99 0
          /wVtYQ==
        >
        E 0 90 42 59
        E 135 80 42 00
        <X 92 0
          /wVvbg==
        >
        E 0 90 42 5c
        E 209 80 42 00
        <X 100 0
          /wV2YWlu
        >
        E 0 90 41 60
        E 331 80 41 00
        <X 98 0
          /wV0w6Qt
        >
        E 0 90 41 63
        E 235 80 41 00
        <X 69 0
          /wVtw6Q=
        >
        E 0 90 42 5d
        E 116 80 42 00
        <X 67 0
          /wVoZXQt
        >
        E 0 90 42 5d
        E 201 80 42 00
        <X 266 0
          /wVraQ==
        >
        E 0 90 42 68
        E 211 80 42 00
        E 41 80 69 00
        E 30 90 69 12
        <X 41 0
          /wVIZWkt
        >
        E 0 90 42 68
        E 510 80 42 00
        <X 152 0
          /wVrb2wt
        >
        E 0 90 42 69
        E 201 80 42 00
        <X 60 0
          /wVsYQ==
        >
        E 0 90 42 69
        E 88 80 42 00
        <X 88 0
          /wVqw6TDpGwt
        >
        E 0 90 42 69
        E 349 80 42 00
        <X 64 0
          /wVsw6Q=
        >
        E 0 90 42 69
        E 166 80 42 00
        <X 147 0
          /wVrw6R5
        >
        E 0 90 45 64
        E 149 80 45 00
        <X 100 0
          /wVzaWUt
        >
        E 0 90 45 6c
        E 425 80 45 00
        <X 87 0
          /wVsdS0=
        >
        E 0 90 42 5d
        E 168 80 42 00
        <X 75 0
          /wVuaQ==
        >
        E 0 90 42 5d
        E 135 80 42 00
        <X 55 0
          /wVyZXQt
        >
        E 0 90 40 57
        E 205 80 40 00
        <X 271 0
          /wVraQ==
        >
        E 0 90 39 44
        E 166 80 39 00
        E 78 80 69 00
        E 180 90 69 12
        <X 100 0
          /wVBbi0=
        >
        E 0 90 3e 5e
        E 371 80 3e 00
        <X 109 0
          /wV0ZWVrLQ==
        >
        E 0 90 3e 5f
        E 141 80 3e 00
        <X 102 0
          /wVzaQ==
        >
        E 0 90 3e 64
        E 112 80 3e 00
        <X 131 0
          /wVMdW8t
        >
        E 0 90 3e 64
        E 383 80 3e 00
        <X 91 0
          /wVqYQ==
        >
        E 0 90 3a 5e
        E 135 80 3a 00
        <X 109 0
          /wVyYXUt
        >
        E 0 90 3f 67
        E 399 80 3f 00
        <X 103 0
          /wVoYWEt
        >
        E 0 90 3e 65
        E 316 80 3e 00
        <X 108 0
          /wVzaQ==
        >
        E 0 90 3e 4a
        E 157 80 3e 00
        <X 124 0
          /wV2YWkt
        >
        E 0 90 3d 66
        E 359 80 3d 00
        <X 94 0
          /wV2YWFu
        >
        E 0 90 3b 5d
        E 204 80 3b 00
        E 72 80 69 00
        E 240 90 69 12
        E 0 90 74 12
        <X 69 0
          /wVWb2luLQ==
        >
        E 0 90 37 5d
        E 108 80 37 00
        <X 52 0
          /wUr
        >
        E 0 90 39 53
        E 128 80 39 00
        <X 137 0
          /wVrbw==
        >
        E 0 90 3e 69
        E 149 80 3e 00
        <X 96 0
          /wVtw6Q=
        >
        E 0 90 3e 69
        E 134 80 3e 00
        <X 69 0
          /wVyYS0=
        >
        E 0 90 3e 5f
        E 131 80 3e 00
        <X 103 0
          /wVrZW4t
        >
        E 0 90 3f 59
        E 158 80 3f 00
        <X 105 0
          /wV0YWE=
        >
        E 0 90 42 60
        E 263 80 42 00
        <X 206 0
          /wV0dWgt
        >
        E 0 90 41 51
        E 260 80 41 00
        <X 222 0
          /wVrYXMt
        >
        E 0 90 43 54
        E 148 80 43 00
        <X 74 0
          /wV0YQ==
        >
        E 0 90 43 4e
        E 111 80 43 00
        <X 140 0
          /wV0YWkt
        >
        E 0 90 40 63
        E 324 80 40 00
        <X 148 0
          /wV2YWEt
        >
        E 0 90 39 5a
        E 194 80 39 00
        <X 44 0
          /wUr
        >
        E 0 90 3b 5c
        E 205 80 3b 00
        <X 73 0
          /wVuaQ==
        >
        E 0 90 3b 5c
        E 221 80 3b 00
        E 128 80 69 00
        E 0 80 74 00
        E 8400 90 69 6c
        E 3300 80 69 00
        E 240 90 69 6c
        E 3660 80 69 00
        E 600 90 69 6c
        E 4800 80 69 00
        E 2880 90 69 6c
        E 0 90 74 6c
        E 3300 80 69 00
        E 0 80 74 00
        E 660 90 69 6c
        E 3300 80 69 00
        E 480 90 69 6c
        E 4800 80 69 00
        E 1427 90 69 12
        <X 139 0
          /wVFbi0=
        >
        E 0 90 42 5a
        E 360 80 42 00
        <X 120 0
          /wV0w6Q=
        >
        E 0 90 42 66
        E 223 80 42 00
        <X 82 0
          /wVqb3M=
        >
        E 0 90 42 66
        E 161 80 42 00
        <X 96 0
          /wVlLQ==
        >
        E 0 90 42 6d
        E 199 80 42 00
        <X 58 0
          /wVsw6Qt
        >
        E 0 90 42 66
        E 257 80 42 00
        <X 109 0
          /wVtw6Ru
        >
        E 0 90 42 65
        E 182 80 42 00
        <X 61 0
          /wVpLQ==
        >
        E 0 90 42 65
        E 172 80 42 00
        <X 161 0
          /wVrdWkt
        >
        E 0 90 42 5d
        E 355 80 42 00
        <X 80 0
          /wVuZW4=
        >
        E 0 90 41 5d
        E 147 80 41 00
        <X 99 0
          /wV2aXIt
        >
        E 0 90 42 66
        E 149 80 42 00
        <X 69 0
          /wUr
        >
        E 0 90 40 47
        E 96 80 40 00
        <X 105 0
          /wV0YQ==
        >
        E 0 90 40 5c
        E 228 80 40 00
        E 72 80 69 00
        E 120 90 69 12
        E 0 90 74 12
        <X 70 0
          /wVLYXQt
        >
        E 0 90 42 5c
        E 204 80 42 00
        <X 268 0
          /wVrZS0=
        >
        E 0 90 42 65
        E 214 80 42 00
        <X 55 0
          /wVhYQ==
        >
        E 0 90 42 65
        E 309 80 42 00
        <X 451 0
          /wVrdWlu
        >
        E 0 90 45 6a
        E 243 80 45 00
        <X 141 0
          /wVsYS0=
        >
        E 0 90 45 65
        E 262 80 45 00
        <X 110 0
          /wVob24t
        >
        E 0 90 43 66
        E 160 80 43 00
        <X 46 0
          /wUr
        >
        E 0 90 41 4c
        E 97 80 41 00
        <X 84 0
          /wVudXQ=
        >
        E 0 90 43 48
        E 113 80 43 00
        <X 94 0
          /wVzaWwt
        >
        E 0 90 40 5a
        E 405 80 40 00
        <X 125 0
          /wV0YQ==
        >
        E 0 90 39 5c
        E 181 80 39 00
        E 88 80 69 00
        E 0 80 74 00
        E 120 90 69 12
        <X 92 0
          /wVFbi0=
        >
        E 0 90 3f 5e
        E 347 80 3f 00
        <X 132 0
          /wV0w6Q=
        >
        E 0 90 3e 61
        E 207 80 3e 00
        <X 61 0
          /wVqb3M=
        >
        E 0 90 3e 61
        E 101 80 3e 00
        <X 103 0
          /wVlay0=
        >
        E 0 90 3e 61
        E 163 80 3e 00
        <X 222 0
          /wVzeW4=
        >
        E 0 90 3b 56
        E 373 80 3b 00
        <X 189 0
          /wVtYXQt
        >
        E 0 90 3e 58
        E 191 80 3e 00
        <X 272 0
          /wVrYWwt
        >
        E 0 90 3e 68
        E 248 80 3e 00
        <X 52 0
          /wVsYQ==
        >
        E 0 90 3e 68
        E 117 80 3e 00
        <X 124 0
          /wVsYWkt
        >
        E 0 90 3d 63
        E 344 80 3d 00
        <X 111 0
          /wV2YWFu
        >
        E 0 90 3b 62
        E 210 80 3b 00
        E 61 80 69 00
        E 120 90 69 12
        <X 99 0
          /wVWb2luLQ==
        >
        E 0 90 38 5c
        E 342 80 38 00
        <X 130 0
          /wVrbw==
        >
        E 0 90 3e 68
        E 151 80 3e 00
        <X 103 0
          /wVtw6Q=
        >
        E 0 90 3e 5f
        E 159 80 3e 00
        <X 72 0
          /wVyYS0=
        >
        E 0 90 3e 5e
        E 132 80 3e 00
        <X 90 0
          /wVrZW4t
        >
        E 0 90 3e 5e
        E 170 80 3e 00
        <X 94 0
          /wV0YWE=
        >
        E 0 90 42 5e
        E 259 80 42 00
        <X 200 0
          /wV0dWgt
        >
        E 0 90 42 53
        E 255 80 42 00
        <X 233 0
          /wVrYXMt
        >
        E 0 90 44 4d
        E 113 80 44 00
        <X 101 0
          /wV0YQ==
        >
        E 0 90 44 48
        E 97 80 44 00
        <X 154 0
          /wV0YWkt
        >
        E 0 90 40 68
        E 403 80 40 00
        <X 69 0
          /wV2YWFu
        >
        E 0 90 42 55
        E 184 80 42 00
        E 50 80 69 00
        E 180 90 69 12
        <X 111 0
          /wVBaS0=
        >
        E 0 90 42 5d
        E 428 80 42 00
        <X 79 0
          /wVuby0=
        >
        E 0 90 42 68
        E 220 80 42 00
        <X 55 0
          /wVh
        >
        E 0 90 42 68
        E 79 80 42 00
        <X 104 0
          /wV2YXIt
        >
        E 0 90 42 6a
        E 344 80 42 00
        <X 99 0
          /wVtYQ==
        >
        E 0 90 42 59
        E 136 80 42 00
        <X 91 0
          /wVvbg==
        >
        E 0 90 42 5c
        E 209 80 42 00
        <X 100 0
          /wV2YWlu
        >
        E 0 90 41 60
        E 332 80 41 00
        <X 97 0
          /wV0w6Qt
        >
        E 0 90 41 63
        E 235 80 41 00
        <X 70 0
          /wVtw6Q=
        >
        E 0 90 42 5d
        E 115 80 42 00
        <X 68 0
          /wVoZXQt
        >
        E 0 90 42 5d
        E 200 80 42 00
        <X 266 0
          /wVraQ==
        >
        E 0 90 42 68
        E 212 80 42 00
        E 40 80 69 00
        E 30 90 69 12
        E 0 90 74 12
        <X 41 0
          /wVIZWkt
        >
        E 0 90 42 68
        E 511 80 42 00
        <X 152 0
          /wVrb2wt
        >
        E 0 90 42 69
        E 201 80 42 00
        <X 60 0
          /wVsYQ==
        >
        E 0 90 42 69
        E 88 80 42 00
        <X 87 0
          /wVqw6TDpGwt
        >
        E 0 90 42 69
        E 349 80 42 00
        <X 64 0
          /wVsw6Q=
        >
        E 0 90 42 69
        E 166 80 42 00
        <X 147 0
          /wVrw6R5
        >
        E 0 90 45 64
        E 150 80 45 00
        <X 100 0
          /wVzaWUt
        >
        E 0 90 45 6c
        E 425 80 45 00
        <X 87 0
          /wVsdS0=
        >
        E 0 90 42 5d
        E 168 80 42 00
        <X 74 0
          /wVuaQ==
        >
        E 0 90 42 5d
        E 136 80 42 00
        <X 54 0
          /wVyZXQt
        >
        E 0 90 40 57
        E 206 80 40 00
        <X 270 0
          /wVraQ==
        >
        E 0 90 39 44
        E 167 80 39 00
        E 77 80 69 00
        E 0 80 74 00
        E 180 90 69 12
        <X 101 0
          /wVBbi0=
        >
        E 0 90 3e 5e
        E 370 80 3e 00
        <X 109 0
          /wV0ZWVrLQ==
        >
        E 0 90 3e 5f
        E 142 80 3e 00
        <X 101 0
          /wVzaQ==
        >
        E 0 90 3e 64
        E 112 80 3e 00
        <X 131 0
          /wVMdW8t
        >
        E 0 90 3e 64
        E 383 80 3e 00
        <X 91 0
          /wVqYQ==
        >
        E 0 90 3a 5e
        E 135 80 3a 00
        <X 109 0
          /wVyYXUt
        >
        E 0 90 3f 67
        E 399 80 3f 00
        <X 104 0
          /wVoYWEt
        >
        E 0 90 3e 65
        E 316 80 3e 00
        <X 107 0
          /wVzaQ==
        >
        E 0 90 3e 4a
        E 158 80 3e 00
        <X 124 0
          /wV2YWkt
        >
        E 0 90 3d 66
        E 358 80 3d 00
        <X 94 0
          /wV2YWFu
        >
        E 0 90 3b 5d
        E 204 80 3b 00
        E 72 80 69 00
        E 240 90 69 12
        <X 69 0
          /wVWb2luLQ==
        >
        E 0 90 37 5d
        E 108 80 37 00
        <X 52 0
          /wUr
        >
        E 0 90 39 53
        E 129 80 39 00
        <X 137 0
          /wVrbw==
        >
        E 0 90 3e 69
        E 149 80 3e 00
        <X 95 0
          /wVtw6Q=
        >
        E 0 90 3e 69
        E 135 80 3e 00
        <X 68 0
          /wVyYS0=
        >
        E 0 90 3e 5f
        E 131 80 3e 00
        <X 103 0
          /wVrZW4t
        >
        E 0 90 3f 59
        E 159 80 3f 00
        <X 105 0
          /wV0YWE=
        >
        E 0 90 42 60
        E 262 80 42 00
        <X 207 0
          /wV0dWgt
        >
        E 0 90 41 51
        E 259 80 41 00
        <X 222 0
          /wVrYXMt
        >
        E 0 90 43 54
        E 149 80 43 00
        <X 74 0
          /wV0YQ==
        >
        E 0 90 43 4e
        E 111 80 43 00
        <X 140 0
          /wV0YWkt
        >
        E 0 90 40 63
        E 323 80 40 00
        <X 148 0
          /wV2YWEt
        >
        E 0 90 39 5a
        E 193 80 39 00
        <X 44 0
          /wUr
        >
        E 0 90 3b 5c
        E 206 80 3b 00
        <X 73 0
          /wVuaQ==
        >
        E 0 90 3b 5c
        E 221 80 3b 00
        E 128 80 69 00
        E 14833 90 69 61
        <X 210 0
          /wVBaA==
        >
        E 0 90 3b 58
        E 2730 80 3b 00
        <X 185 0
          /wVhYQ==
        >
        E 0 90 43 61
        E 381 80 43 00
        <X 83 0
          /wUr
        >
        E 0 90 42 63
        E 243 80 42 00
        <X 96 0
          /wUr
        >
        E 0 90 40 5b
        E 2321 80 40 00
        E 231 80 69 00
        E 180 90 69 61
        E 0 90 74 61
        <X 188 0
          /wVBaA==
        >
        E 0 90 40 61
        E 465 80 40 00
        <X 90 0
          /wVhYQ==
        >
        E 0 90 42 61
        E 283 80 42 00
        <X 135 0
          /wUr
        >
        E 0 90 3b 55
        E 3825 80 3b 00
        <X 80 0
          /wUr
        >
        E 0 90 39 3f
        E 2859 80 39 00
        E 295 80 69 00
        E 0 80 74 00
        E 660 90 69 61
        <X 256 0
          /wVBaA==
        >
        E 0 90 3b 43
        E 2508 80 3b 00
        <X 220 0
          /wVhYQ==
        >
        E 0 90 43 47
        E 633 80 43 00
        <X 126 0
          /wUr
        >
        E 0 90 40 46
        E 2222 80 40 00
        E 215 80 69 00
        E 240 90 69 61
        <X 234 0
          /wVBaA==
        >
        E 0 90 40 5d
        E 483 80 40 00
        <X 142 0
          /wUr
        >
        E 0 90 42 61
        E 295 80 42 00
        <X 115 0
          /wVhYQ==
        >
        E 0 90 3b 5c
        E 3811 80 3b 00
        <X 99 0
          /wUr
        >
        E 0 90 39 59
        E 3378 80 39 00
        E 263 80 69 00
        E 15291 90 69 12
        <X 139 0
          /wVFbi0=
        >
        E 0 90 42 5a
        E 360 80 42 00
        <X 120 0
          /wV0w6Q=
        >
        E 0 90 42 66
        E 223 80 42 00
        <X 82 0
          /wVqb3M=
        >
        E 0 90 42 66
        E 161 80 42 00
        <X 96 0
          /wVlLQ==
        >
        E 0 90 42 6d
        E 199 80 42 00
        <X 58 0
          /wVsw6Qt
        >
        E 0 90 42 66
        E 257 80 42 00
        <X 109 0
          /wVtw6Ru
        >
        E 0 90 42 65
        E 182 80 42 00
        <X 61 0
          /wVpLQ==
        >
        E 0 90 42 65
        E 172 80 42 00
        <X 161 0
          /wVrdWkt
        >
        E 0 90 42 5d
        E 355 80 42 00
        <X 80 0
          /wVuZW4=
        >
        E 0 90 41 5d
        E 147 80 41 00
        <X 99 0
          /wV2aXIt
        >
        E 0 90 42 66
        E 149 80 42 00
        <X 69 0
          /wUr
        >
        E 0 90 40 47
        E 96 80 40 00
        <X 105 0
          /wV0YQ==
        >
        E 0 90 40 5c
        E 228 80 40 00
        E 72 80 69 00
        E 120 90 69 12
        E 0 90 74 12
        <X 70 0
          /wVLYXQt
        >
        E 0 90 42 5c
        E 204 80 42 00
        <X 268 0
          /wVrZS0=
        >
        E 0 90 42 65
        E 214 80 42 00
        <X 55 0
          /wVhYQ==
        >
        E 0 90 42 65
        E 309 80 42 00
        <X 451 0
          /wVrdWlu
        >
        E 0 90 45 6a
        E 243 80 45 00
        <X 141 0
          /wVsYS0=
        >
        E 0 90 45 65
        E 262 80 45 00
        <X 110 0
          /wVob24t
        >
        E 0 90 43 66
        E 160 80 43 00
        <X 46 0
          /wUr
        >
        E 0 90 41 4c
        E 97 80 41 00
        <X 84 0
          /wVudXQ=
        >
        E 0 90 43 48
        E 113 80 43 00
        <X 94 0
          /wVzaWwt
        >
        E 0 90 40 5a
        E 405 80 40 00
        <X 125 0
          /wV0YQ==
        >
        E 0 90 39 5c
        E 181 80 39 00
        E 88 80 69 00
        E 0 80 74 00
        E 120 90 69 12
        <X 92 0
          /wVFbi0=
        >
        E 0 90 3f 5e
        E 347 80 3f 00
        <X 132 0
          /wV0w6Q=
        >
        E 0 90 3e 61
        E 207 80 3e 00
        <X 61 0
          /wVqb3M=
        >
        E 0 90 3e 61
        E 101 80 3e 00
        <X 103 0
          /wVlay0=
        >
        E 0 90 3e 61
        E 163 80 3e 00
        <X 222 0
          /wVzeW4=
        >
        E 0 90 3b 56
        E 373 80 3b 00
        <X 189 0
          /wVtYXQt
        >
        E 0 90 3e 58
        E 191 80 3e 00
        <X 272 0
          /wVrYWwt
        >
        E 0 90 3e 68
        E 248 80 3e 00
        <X 52 0
          /wVsYQ==
        >
        E 0 90 3e 68
        E 117 80 3e 00
        <X 124 0
          /wVsYWkt
        >
        E 0 90 3d 63
        E 344 80 3d 00
        <X 111 0
          /wV2YWFu
        >
        E 0 90 3b 62
        E 210 80 3b 00
        E 61 80 69 00
        E 120 90 69 12
        <X 99 0
          /wVWb2luLQ==
        >
        E 0 90 38 5c
        E 342 80 38 00
        <X 130 0
          /wVrbw==
        >
        E 0 90 3e 68
        E 151 80 3e 00
        <X 103 0
          /wVtw6Q=
        >
        E 0 90 3e 5f
        E 159 80 3e 00
        <X 72 0
          /wVyYS0=
        >
        E 0 90 3e 5e
        E 132 80 3e 00
        <X 90 0
          /wVrZW4t
        >
        E 0 90 3e 5e
        E 170 80 3e 00
        <X 94 0
          /wV0YWE=
        >
        E 0 90 42 5e
        E 259 80 42 00
        <X 200 0
          /wV0dWgt
        >
        E 0 90 42 53
        E 255 80 42 00
        <X 233 0
          /wVrYXMt
        >
        E 0 90 44 4d
        E 113 80 44 00
        <X 101 0
          /wV0YQ==
        >
        E 0 90 44 48
        E 97 80 44 00
        <X 154 0
          /wV0YWkt
        >
        E 0 90 40 68
        E 403 80 40 00
        <X 69 0
          /wV2YWFu
        >
        E 0 90 42 55
        E 184 80 42 00
        E 50 80 69 00
        E 180 90 69 12
        <X 111 0
          /wVBaS0=
        >
        E 0 90 42 5d
        E 428 80 42 00
        <X 79 0
          /wVuby0=
        >
        E 0 90 42 68
        E 220 80 42 00
        <X 55 0
          /wVh
        >
        E 0 90 42 68
        E 79 80 42 00
        <X 104 0
          /wV2YXIt
        >
        E 0 90 42 6a
        E 344 80 42 00
        <X 99 0
          /wVtYQ==
        >
        E 0 90 42 59
        E 136 80 42 00
        <X 91 0
          /wVvbg==
        >
        E 0 90 42 5c
        E 209 80 42 00
        <X 100 0
          /wV2YWlu
        >
        E 0 90 41 60
        E 332 80 41 00
        <X 97 0
          /wV0w6Qt
        >
        E 0 90 41 63
        E 235 80 41 00
        <X 70 0
          /wVtw6Q=
        >
        E 0 90 42 5d
        E 115 80 42 00
        <X 68 0
          /wVoZXQt
        >
        E 0 90 42 5d
        E 200 80 42 00
        <X 266 0
          /wVraQ==
        >
        E 0 90 42 68
        E 212 80 42 00
        E 40 80 69 00
        E 30 90 69 12
        E 0 90 74 12
        <X 41 0
          /wVIZWkt
        >
        E 0 90 42 68
        E 511 80 42 00
        <X 152 0
          /wVrb2wt
        >
        E 0 90 42 69
        E 201 80 42 00
        <X 60 0
          /wVsYQ==
        >
        E 0 90 42 69
        E 88 80 42 00
        <X 87 0
          /wVqw6TDpGwt
        >
        E 0 90 42 69
        E 349 80 42 00
        <X 64 0
          /wVsw6Q=
        >
        E 0 90 42 69
        E 166 80 42 00
        <X 147 0
          /wVrw6R5
        >
        E 0 90 45 64
        E 150 80 45 00
        <X 100 0
          /wVzaWUt
        >
        E 0 90 45 6c
        E 425 80 45 00
        <X 87 0
          /wVsdS0=
        >
        E 0 90 42 5d
        E 168 80 42 00
        <X 74 0
          /wVuaQ==
        >
        E 0 90 42 5d
        E 136 80 42 00
        <X 54 0
          /wVyZXQt
        >
        E 0 90 40 57
        E 206 80 40 00
        <X 270 0
          /wVraQ==
        >
        E 0 90 39 44
        E 167 80 39 00
        E 77 80 69 00
        E 0 80 74 00
        E 180 90 69 12
        <X 101 0
          /wVBbi0=
        >
        E 0 90 3e 5e
        E 370 80 3e 00
        <X 109 0
          /wV0ZWVrLQ==
        >
        E 0 90 3e 5f
        E 142 80 3e 00
        <X 101 0
          /wVzaQ==
        >
        E 0 90 3e 64
        E 112 80 3e 00
        <X 131 0
          /wVMdW8t
        >
        E 0 90 3e 64
        E 383 80 3e 00
        <X 91 0
          /wVqYQ==
        >
        E 0 90 3a 5e
        E 135 80 3a 00
        <X 109 0
          /wVyYXUt
        >
        E 0 90 3f 67
        E 399 80 3f 00
        <X 104 0
          /wVoYWEt
        >
        E 0 90 3e 65
        E 316 80 3e 00
        <X 107 0
          /wVzaQ==
        >
        E 0 90 3e 4a
        E 158 80 3e 00
        <X 124 0
          /wV2YWkt
        >
        E 0 90 3d 66
        E 358 80 3d 00
        <X 94 0
          /wV2YWFu
        >
        E 0 90 3b 5d
        E 204 80 3b 00
        E 72 80 69 00
        E 240 90 69 12
        <X 69 0
          /wVWb2luLQ==
        >
        E 0 90 37 5d
        E 108 80 37 00
        <X 52 0
          /wUr
        >
        E 0 90 39 53
        E 129 80 39 00
        <X 137 0
          /wVrbw==
        >
        E 0 90 3e 69
        E 149 80 3e 00
        <X 95 0
          /wVtw6Q=
        >
        E 0 90 3e 69
        E 135 80 3e 00
        <X 68 0
          /wVyYS0=
        >
        E 0 90 3e 5f
        E 131 80 3e 00
        <X 103 0
          /wVrZW4t
        >
        E 0 90 3f 59
        E 159 80 3f 00
        <X 105 0
          /wV0YWE=
        >
        E 0 90 42 60
        E 262 80 42 00
        <X 207 0
          /wV0dWgt
        >
        E 0 90 41 51
        E 259 80 41 00
        <X 222 0
          /wVrYXMt
        >
        E 0 90 43 54
        E 149 80 43 00
        <X 74 0
          /wV0YQ==
        >
        E 0 90 43 4e
        E 111 80 43 00
        <X 140 0
          /wV0YWkt
        >
        E 0 90 40 63
        E 323 80 40 00
        <X 148 0
          /wV2YWEt
        >
        E 0 90 39 5a
        E 193 80 39 00
        <X 44 0
          /wUr
        >
        E 0 90 3b 5c
        E 206 80 3b 00
        <X 73 0
          /wVuaQ==
        >
        E 0 90 3b 5c
        E 221 80 3b 00
        E 128 80 69 00
        E 5109 90 69 5e
        E 2820 80 69 00
        E 4860 90 69 5e
        E 2760 80 69 00
        <X 229 0
          /wFbaWRsZV9yZWFsdGltZV0=
        >
        E 5890 b0 7b 00
        GUID {E53B89F8-ECC8-4A25-86E2-BC4D240C9444}
        IGNTEMPO 0 120.00000000 4 4
        SRCCOLOR 1438
        VELLANE 132 128 60
        COLORMAP "C:\Users\me\AppData\Roaming\REAPER\Data\color_maps\rockband_vox-other.png"
        TEXTSTRINGFILE "C:\Program Files\REAPER\Data\Text_Strings\Text Events List.txt"
        CFGEDITVIEW 291348.501276 273.474866 0 12 0 0 0
        CFGEDIT 1 1 0 1 1 1 1 1 1 1 1 0.06250000 -8 -8 1374 736 1 2 1 2 0.00000000 0 0 0 0 0.500000 1 0 1.000000 64
        KEYSNAP 0 0 "102034050607" 0 "Major"
        EVTFILTER 0 -1 -1 -1 -1 0 1 0 0 -1.00000000 -1.00000000
      >
    >
  >
  <TRACK '{58A7B9C6-1373-47A1-A41A-295306551BF7}'
    NAME "DRYVOX2"
    PEAKCOL 16576
    BEAT -1
    AUTOMODE 0
    VOLPAN 1.00000000000000 0.00000000000000 -1.00000000000000 -1.00000000000000 1.00000000000000
    MUTESOLO 1 0 0
    IPHASE 0
    ISBUS 0 0
    BUSCOMP 0 0
    SHOWINMIX 1 0.666700 0.500000 1 0.500000 -1 -1 -1
    FREEMODE 0
    SEL 0
    REC 0 0 0 0 0 0 0
    TRACKHEIGHT 24 0
    INQ 0 0 0 0.5000000000 100 0 0 100
    NCHAN 2
    FX 1
    TRACKID {58A7B9C6-1373-47A1-A41A-295306551BF7}
    PERF 0
    MIDIOUT -1
    MAINSEND 1 0
    <FXCHAIN
      SHOW 0
      LASTSEL 0
      DOCKED 0
      BYPASS 0 0
      <VST "VST: ReaGate (Cockos)" "reagate.dll" 0 ""
        dGdlcu9e7f4EAAAAAQAAAAAAAAACAAAAAAAAAAQAAAAAAAAACAAAAA==
        AAAAAAIAAAABAAAAAAAAAAIAAAAAAAAAVAAAAAAAAAAAABAA776t3g==
        DfCt3pzRBzOmm8Q7CtejPAAAAAAAAAAAAACAPwAAAAAAAAAAAAAAAA==
        nNEHMx5Ucz+c0QczAACAPwAAAAAAAAAAAAAAACwWCz8AAAAAAAAAAA==
        AAAQAAAA
      >
      FLOATPOS 859 184 511 385
      FXID {BF545B5B-7DD0-4B4C-AC52-F095A552DA08}
      WAK 0
    >
    <ITEM
      POSITION 2.16421718522906
      SNAPOFFS 0.00000000000000
      LENGTH 255.68852607709749
      LOOP 0
      ALLTAKES 0
      SEL 0
      FADEIN 1 0.000000 0.000000 1 0
      FADEOUT 1 0.000000 0.000000 1 0
      MUTE 0
      IGUID {38531F6A-4B4F-44AB-BC7A-1D48A1D6ABDD}
      IID 202
      NAME "vocals-back_[mvsep.com].flac"
      VOLPAN 1.000000 0.000000 1.000000 -1.000000
      SOFFS 0.00000000000000
      PLAYRATE 1.00000000000000 1 0.00000000000000 -1
      CHANMODE 0
      GUID {2F4590CA-84AA-4061-8932-CC0A57D6EA76}
      <SOURCE FLAC
        FILE "vocals-back_[mvsep.com].flac"
      >
    >
  >
  <TRACK '{4299BF31-E988-4C64-900A-97AC9ECE5EBC}'
    NAME "HARM3"
    PEAKCOL 24624127
    BEAT -1
    AUTOMODE 0
    VOLPAN 1.00000000000000 0.00000000000000 -1.00000000000000 -1.00000000000000 1.00000000000000
    MUTESOLO 0 0 0
    IPHASE 0
    ISBUS 0 0
    BUSCOMP 0 0
    SHOWINMIX 1 0.666700 0.500000 1 0.500000 -1 -1 -1
    FREEMODE 0
    SEL 0
    REC 0 0 0 0 0 0 0
    TRACKHEIGHT 0 0
    INQ 0 0 0 0.5000000000 100 0 0 100
    NCHAN 2
    FX 1
    TRACKID {4299BF31-E988-4C64-900A-97AC9ECE5EBC}
    PERF 0
    MIDIOUT -1
    <MIDINOTENAMES
      0 0 "Range Shift"
      0 1 "Lyric Shift"
      0 35 "----"
      0 36 "C1"
      0 37 "C#"
      0 38 "D"
      0 39 "Eb"
      0 40 "E"
      0 41 "F"
      0 42 "F#"
      0 43 "G"
      0 44 "G#"
      0 45 "A"
      0 46 "Bb"
      0 47 "B"
      0 48 "C2"
      0 49 "C#"
      0 50 "D"
      0 51 "Eb"
      0 52 "E"
      0 53 "F"
      0 54 "F#"
      0 55 "G"
      0 56 "G#"
      0 57 "A"
      0 58 "Bb"
      0 59 "B"
      0 60 "C3"
      0 61 "C#"
      0 62 "D"
      0 63 "Eb"
      0 64 "E"
      0 65 "F"
      0 66 "F#"
      0 67 "G"
      0 68 "G#"
      0 69 "A"
      0 70 "Bb"
      0 71 "B"
      0 72 "C4"
      0 73 "C#"
      0 74 "D"
      0 75 "Eb"
      0 76 "E"
      0 77 "F"
      0 78 "F#"
      0 79 "G"
      0 80 "G#"
      0 81 "A"
      0 82 "Bb"
      0 83 "B"
      0 84 "C5"
      0 116 "OVERDRIVE"
      0 115 "----"
      0 105 "Phrase Marker"
      0 104 "----"
      0 97 "Not Displayed Percussion"
      0 96 "Displayed Percussion"
      0 95 "----"
    >
    MAINSEND 1 0
    <FXCHAIN
      WNDRECT 0 42 716 493
      SHOW 0
      LASTSEL 1
      DOCKED 0
      BYPASS 0 0
      <JS "IX/MIDI_Tool II" ""
        0.000000 85.000000 127.000000 0.000000 0.000000 0.000000 100.000000 0.000000 0.000000 127.000000 0.000000 0.000000 1.000000 0.000000 0.000000 - - - - - - - - - - - - - - - - - - - - - - - - - - - - - - - - - - - - - - - - - - - - - - - - - 
      >
      FLOATPOS 0 0 0 0
      FXID {3D33E2FB-5DDE-4F81-B16F-BCB1EAD8D4FA}
      WAK 0
      BYPASS 0 0
      <VST "VSTi: ReaSynth (Cockos)" "reasynth.dll" 0 ""
        eXNlcu9e7f4AAAAAAgAAAAEAAAAAAAAAAgAAAAAAAAA4AAAAAAAAAA==
        AAAAAO++rd4N8K3eppvEOxe30ToAAAAAAAAAAAAAAACa9Q8/6WeIPQ==
        AAAAAAAAAD8AAIA/AAAAAAAAAD8AAAAAAAA=
      >
      FLOATPOS 0 0 0 0
      FXID {98E235B6-3365-4F58-AC74-F5BD513BFA85}
      WAK 0
    >
    <ITEM
      POSITION 0.00000000000000
      SNAPOFFS 0.00000000000000
      LENGTH 256.16382087400871
      LOOP 0
      ALLTAKES 0
      SEL 0
      FADEIN 1 0.000000 0.000000 1 0
      FADEOUT 1 0.000000 0.000000 1 0
      MUTE 0
      IGUID {14DAFADF-64E7-40FA-8E65-65BBB77CBDB7}
      IID 13
      NAME "HARM3 untitled MIDI item"
      VOLPAN 1.000000 0.000000 1.000000 -1.000000
      SOFFS 0.00000000000000 0.00000000000000
      PLAYRATE 1.00000000000000 1 0.00000000000000 -1
      CHANMODE 0
      GUID {BA30FF02-694D-4D9D-9D54-87AECA42C3BA}
      <SOURCE MIDI
        HASDATA 1 480 QN
        POOLEDEVTS {E1E12F2B-8CD9-4AE0-AFB5-927BA65E718F}
        <X 0 0
          /wNIQVJNMw==
        >
        <X 3840 0
          /wFbaWRsZV0=
        >
        <X 40320 0
          /wFbcGxheV0=
        >
        E 1321 90 69 60
        E 3240 80 69 00
        E 480 90 69 60
        E 3360 80 69 00
        E 600 90 69 60
        E 4440 80 69 00
        E 3120 90 69 60
        E 0 90 74 60
        E 3360 80 69 00
        E 0 80 74 00
        E 480 90 69 12
        E 3360 80 69 00
        E 480 90 69 12
        E 4320 80 69 00
        E 3360 90 69 12
        E 3600 80 69 00
        E 240 90 69 12
        E 0 90 74 12
        E 3480 80 69 00
        E 0 80 74 00
        E 360 90 69 12
        E 4320 80 69 00
        E 3360 90 69 12
        E 3480 80 69 00
        E 360 90 69 12
        E 3480 80 69 00
        E 360 90 69 12
        E 0 90 74 12
        E 5760 80 69 00
        E 0 80 74 00
        E 600 90 69 12
        <X 138 0
          /wVFbi0=
        >
        E 0 90 3c 5a
        E 360 80 3c 00
        <X 120 0
          /wV0w6Q=
        >
        E 0 90 3c 66
        E 223 80 3c 00
        <X 82 0
          /wVqb3M=
        >
        E 0 90 3c 66
        E 161 80 3c 00
        <X 96 0
          /wVlLQ==
        >
        E 0 90 3c 6d
        E 199 80 3c 00
        <X 58 0
          /wVsw6Qt
        >
        E 0 90 3c 66
        E 257 80 3c 00
        <X 109 0
          /wVtw6Ru
        >
        E 0 90 3c 65
        E 182 80 3c 00
        <X 61 0
          /wVpLQ==
        >
        E 0 90 3c 65
        E 172 80 3c 00
        <X 161 0
          /wVrdWkt
        >
        E 0 90 3c 5d
        E 355 80 3c 00
        <X 80 0
          /wVuZW4=
        >
        E 0 90 3b 5d
        E 147 80 3b 00
        <X 99 0
          /wV2aXIt
        >
        E 0 90 3c 66
        E 149 80 3c 00
        <X 69 0
          /wUr
        >
        E 0 90 3a 47
        E 96 80 3a 00
        <X 105 0
          /wV0YQ==
        >
        E 0 90 3a 5c
        E 228 80 3a 00
        E 73 80 69 00
        E 120 90 69 12
        <X 69 0
          /wVLYXQt
        >
        E 0 90 3c 5c
        E 204 80 3c 00
        <X 268 0
          /wVrZS0=
        >
        E 0 90 3c 65
        E 214 80 3c 00
        <X 55 0
          /wVhYQ==
        >
        E 0 90 3c 65
        E 309 80 3c 00
        <X 452 0
          /wVrdWlu
        >
        E 0 90 3f 6a
        E 243 80 3f 00
        <X 140 0
          /wVsYS0=
        >
        E 0 90 3f 65
        E 262 80 3f 00
        <X 110 0
          /wVob24t
        >
        E 0 90 3d 66
        E 160 80 3d 00
        <X 46 0
          /wUr
        >
        E 0 90 3b 4c
        E 97 80 3b 00
        <X 85 0
          /wVudXQ=
        >
        E 0 90 3d 48
        E 112 80 3d 00
        <X 94 0
          /wVzaWwt
        >
        E 0 90 3a 5a
        E 405 80 3a 00
        <X 126 0
          /wV0YQ==
        >
        E 0 90 33 5c
        E 181 80 33 00
        E 88 80 69 00
        E 120 90 69 12
        <X 92 0
          /wVFbi0=
        >
        E 0 90 39 5e
        E 347 80 39 00
        <X 131 0
          /wV0w6Q=
        >
        E 0 90 38 61
        E 207 80 38 00
        <X 62 0
          /wVqb3M=
        >
        E 0 90 38 61
        E 101 80 38 00
        <X 103 0
          /wVlay0=
        >
        E 0 90 38 61
        E 163 80 38 00
        <X 222 0
          /wVzeW4=
        >
        E 0 90 35 56
        E 372 80 35 00
        <X 190 0
          /wVtYXQt
        >
        E 0 90 38 58
        E 191 80 38 00
        <X 272 0
          /wVrYWwt
        >
        E 0 90 38 68
        E 248 80 38 00
        <X 52 0
          /wVsYQ==
        >
        E 0 90 38 68
        E 116 80 38 00
        <X 125 0
          /wVsYWkt
        >
        E 0 90 37 63
        E 343 80 37 00
        <X 112 0
          /wV2YWFu
        >
        E 0 90 35 62
        E 210 80 35 00
        E 61 80 69 00
        E 120 90 69 12
        E 0 90 74 12
        <X 99 0
          /wVWb2luLQ==
        >
        E 0 90 32 5c
        E 342 80 32 00
        <X 129 0
          /wVrbw==
        >
        E 0 90 38 68
        E 152 80 38 00
        <X 103 0
          /wVtw6Q=
        >
        E 0 90 38 5f
        E 159 80 38 00
        <X 72 0
          /wVyYS0=
        >
        E 0 90 38 5e
        E 131 80 38 00
        <X 91 0
          /wVrZW4t
        >
        E 0 90 38 5e
        E 169 80 38 00
        <X 95 0
          /wV0YWE=
        >
        E 0 90 3c 5e
        E 258 80 3c 00
        <X 201 0
          /wV0dWgt
        >
        E 0 90 3c 53
        E 254 80 3c 00
        <X 233 0
          /wVrYXMt
        >
        E 0 90 3e 4d
        E 114 80 3e 00
        <X 101 0
          /wV0YQ==
        >
        E 0 90 3e 48
        E 96 80 3e 00
        <X 155 0
          /wV0YWkt
        >
        E 0 90 3a 68
        E 402 80 3a 00
        <X 69 0
          /wV2YWFu
        >
        E 0 90 3c 55
        E 184 80 3c 00
        E 51 80 69 00
        E 0 80 74 00
        E 180 90 69 12
        <X 111 0
          /wVBaS0=
        >
        E 0 90 3c 5d
        E 427 80 3c 00
        <X 80 0
          /wVuby0=
        >
        E 0 90 3c 68
        E 220 80 3c 00
        <X 54 0
          /wVh
        >
        E 0 90 3c 68
        E 80 80 3c 00
        <X 103 0
          /wV2YXIt
        >
        E 0 90 3c 6a
        E 345 80 3c 00
        <X 99 0
          /wVtYQ==
        >
        E 0 90 3c 59
        E 135 80 3c 00
        <X 92 0
          /wVvbg==
        >
        E 0 90 3c 5c
        E 209 80 3c 00
        <X 100 0
          /wV2YWlu
        >
        E 0 90 3b 60
        E 331 80 3b 00
        <X 98 0
          /wV0w6Qt
        >
        E 0 90 3b 63
        E 235 80 3b 00
        <X 69 0
          /wVtw6Q=
        >
        E 0 90 3c 5d
        E 116 80 3c 00
        <X 67 0
          /wVoZXQt
        >
        E 0 90 3c 5d
        E 201 80 3c 00
        <X 266 0
          /wVraQ==
        >
        E 0 90 3c 68
        E 211 80 3c 00
        E 41 80 69 00
        E 30 90 69 12
        <X 41 0
          /wVIZWkt
        >
        E 0 90 3c 68
        E 510 80 3c 00
        <X 152 0
          /wVrb2wt
        >
        E 0 90 3c 69
        E 201 80 3c 00
        <X 60 0
          /wVsYQ==
        >
        E 0 90 3c 69
        E 88 80 3c 00
        <X 88 0
          /wVqw6TDpGwt
        >
        E 0 90 3c 69
        E 349 80 3c 00
        <X 64 0
          /wVsw6Q=
        >
        E 0 90 3c 69
        E 166 80 3c 00
        <X 147 0
          /wVrw6R5
        >
        E 0 90 3f 64
        E 149 80 3f 00
        <X 100 0
          /wVzaWUt
        >
        E 0 90 3f 6c
        E 425 80 3f 00
        <X 87 0
          /wVsdS0=
        >
        E 0 90 3c 5d
        E 168 80 3c 00
        <X 75 0
          /wVuaQ==
        >
        E 0 90 3c 5d
        E 135 80 3c 00
        <X 55 0
          /wVyZXQt
        >
        E 0 90 3a 57
        E 205 80 3a 00
        <X 271 0
          /wVraQ==
        >
        E 0 90 33 44
        E 166 80 33 00
        E 78 80 69 00
        E 180 90 69 12
        <X 100 0
          /wVBbi0=
        >
        E 0 90 38 5e
        E 371 80 38 00
        <X 109 0
          /wV0ZWVrLQ==
        >
        E 0 90 38 5f
        E 141 80 38 00
        <X 102 0
          /wVzaQ==
        >
        E 0 90 38 64
        E 112 80 38 00
        <X 131 0
          /wVMdW8t
        >
        E 0 90 38 64
        E 383 80 38 00
        <X 91 0
          /wVqYQ==
        >
        E 0 90 34 5e
        E 135 80 34 00
        <X 109 0
          /wVyYXUt
        >
        E 0 90 39 67
        E 399 80 39 00
        <X 103 0
          /wVoYWEt
        >
        E 0 90 38 65
        E 316 80 38 00
        <X 108 0
          /wVzaQ==
        >
        E 0 90 38 4a
        E 157 80 38 00
        <X 124 0
          /wV2YWkt
        >
        E 0 90 37 66
        E 359 80 37 00
        <X 94 0
          /wV2YWFu
        >
        E 0 90 35 5d
        E 204 80 35 00
        E 72 80 69 00
        E 240 90 69 12
        E 0 90 74 12
        <X 69 0
          /wVWb2luLQ==
        >
        E 0 90 31 5d
        E 108 80 31 00
        <X 52 0
          /wUr
        >
        E 0 90 33 53
        E 128 80 33 00
        <X 137 0
          /wVrbw==
        >
        E 0 90 38 69
        E 149 80 38 00
        <X 96 0
          /wVtw6Q=
        >
        E 0 90 38 69
        E 134 80 38 00
        <X 69 0
          /wVyYS0=
        >
        E 0 90 38 5f
        E 131 80 38 00
        <X 103 0
          /wVrZW4t
        >
        E 0 90 39 59
        E 158 80 39 00
        <X 105 0
          /wV0YWE=
        >
        E 0 90 3c 60
        E 263 80 3c 00
        <X 206 0
          /wV0dWgt
        >
        E 0 90 3b 51
        E 260 80 3b 00
        <X 222 0
          /wVrYXMt
        >
        E 0 90 3d 54
        E 148 80 3d 00
        <X 74 0
          /wV0YQ==
        >
        E 0 90 3d 4e
        E 111 80 3d 00
        <X 140 0
          /wV0YWkt
        >
        E 0 90 3a 63
        E 324 80 3a 00
        <X 148 0
          /wV2YWEt
        >
        E 0 90 33 5a
        E 194 80 33 00
        <X 44 0
          /wUr
        >
        E 0 90 35 5c
        E 205 80 35 00
        <X 73 0
          /wVuaQ==
        >
        E 0 90 35 5c
        E 221 80 35 00
        E 128 80 69 00
        E 0 80 74 00
        E 8400 90 69 6c
        E 3300 80 69 00
        E 240 90 69 6c
        E 3660 80 69 00
        E 600 90 69 6c
        E 4800 80 69 00
        E 2880 90 69 6c
        E 0 90 74 6c
        E 3300 80 69 00
        E 0 80 74 00
        E 660 90 69 6c
        E 3300 80 69 00
        E 480 90 69 6c
        E 4800 80 69 00
        E 1427 90 69 12
        <X 139 0
          /wVFbi0=
        >
        E 0 90 3c 5a
        E 360 80 3c 00
        <X 120 0
          /wV0w6Q=
        >
        E 0 90 3c 66
        E 223 80 3c 00
        <X 82 0
          /wVqb3M=
        >
        E 0 90 3c 66
        E 161 80 3c 00
        <X 96 0
          /wVlLQ==
        >
        E 0 90 3c 6d
        E 199 80 3c 00
        <X 58 0
          /wVsw6Qt
        >
        E 0 90 3c 66
        E 257 80 3c 00
        <X 109 0
          /wVtw6Ru
        >
        E 0 90 3c 65
        E 182 80 3c 00
        <X 61 0
          /wVpLQ==
        >
        E 0 90 3c 65
        E 172 80 3c 00
        <X 161 0
          /wVrdWkt
        >
        E 0 90 3c 5d
        E 355 80 3c 00
        <X 80 0
          /wVuZW4=
        >
        E 0 90 3b 5d
        E 147 80 3b 00
        <X 99 0
          /wV2aXIt
        >
        E 0 90 3c 66
        E 149 80 3c 00
        <X 69 0
          /wUr
        >
        E 0 90 3a 47
        E 96 80 3a 00
        <X 105 0
          /wV0YQ==
        >
        E 0 90 3a 5c
        E 228 80 3a 00
        E 72 80 69 00
        E 120 90 69 12
        E 0 90 74 12
        <X 70 0
          /wVLYXQt
        >
        E 0 90 3c 5c
        E 204 80 3c 00
        <X 268 0
          /wVrZS0=
        >
        E 0 90 3c 65
        E 214 80 3c 00
        <X 55 0
          /wVhYQ==
        >
        E 0 90 3c 65
        E 309 80 3c 00
        <X 451 0
          /wVrdWlu
        >
        E 0 90 3f 6a
        E 243 80 3f 00
        <X 141 0
          /wVsYS0=
        >
        E 0 90 3f 65
        E 262 80 3f 00
        <X 110 0
          /wVob24t
        >
        E 0 90 3d 66
        E 160 80 3d 00
        <X 46 0
          /wUr
        >
        E 0 90 3b 4c
        E 97 80 3b 00
        <X 84 0
          /wVudXQ=
        >
        E 0 90 3d 48
        E 113 80 3d 00
        <X 94 0
          /wVzaWwt
        >
        E 0 90 3a 5a
        E 405 80 3a 00
        <X 125 0
          /wV0YQ==
        >
        E 0 90 33 5c
        E 181 80 33 00
        E 88 80 69 00
        E 0 80 74 00
        E 120 90 69 12
        <X 92 0
          /wVFbi0=
        >
        E 0 90 39 5e
        E 347 80 39 00
        <X 132 0
          /wV0w6Q=
        >
        E 0 90 38 61
        E 207 80 38 00
        <X 61 0
          /wVqb3M=
        >
        E 0 90 38 61
        E 101 80 38 00
        <X 103 0
          /wVlay0=
        >
        E 0 90 38 61
        E 163 80 38 00
        <X 222 0
          /wVzeW4=
        >
        E 0 90 35 56
        E 373 80 35 00
        <X 189 0
          /wVtYXQt
        >
        E 0 90 38 58
        E 191 80 38 00
        <X 272 0
          /wVrYWwt
        >
        E 0 90 38 68
        E 248 80 38 00
        <X 52 0
          /wVsYQ==
        >
        E 0 90 38 68
        E 117 80 38 00
        <X 124 0
          /wVsYWkt
        >
        E 0 90 37 63
        E 344 80 37 00
        <X 111 0
          /wV2YWFu
        >
        E 0 90 35 62
        E 210 80 35 00
        E 61 80 69 00
        E 120 90 69 12
        <X 99 0
          /wVWb2luLQ==
        >
        E 0 90 32 5c
        E 342 80 32 00
        <X 130 0
          /wVrbw==
        >
        E 0 90 38 68
        E 151 80 38 00
        <X 103 0
          /wVtw6Q=
        >
        E 0 90 38 5f
        E 159 80 38 00
        <X 72 0
          /wVyYS0=
        >
        E 0 90 38 5e
        E 132 80 38 00
        <X 90 0
          /wVrZW4t
        >
        E 0 90 38 5e
        E 170 80 38 00
        <X 94 0
          /wV0YWE=
        >
        E 0 90 3c 5e
        E 259 80 3c 00
        <X 200 0
          /wV0dWgt
        >
        E 0 90 3c 53
        E 255 80 3c 00
        <X 233 0
          /wVrYXMt
        >
        E 0 90 3e 4d
        E 113 80 3e 00
        <X 101 0
          /wV0YQ==
        >
        E 0 90 3e 48
        E 97 80 3e 00
        <X 154 0
          /wV0YWkt
        >
        E 0 90 3a 68
        E 403 80 3a 00
        <X 69 0
          /wV2YWFu
        >
        E 0 90 3c 55
        E 184 80 3c 00
        E 50 80 69 00
        E 180 90 69 12
        <X 111 0
          /wVBaS0=
        >
        E 0 90 3c 5d
        E 428 80 3c 00
        <X 79 0
          /wVuby0=
        >
        E 0 90 3c 68
        E 220 80 3c 00
        <X 55 0
          /wVh
        >
        E 0 90 3c 68
        E 79 80 3c 00
        <X 104 0
          /wV2YXIt
        >
        E 0 90 3c 6a
        E 344 80 3c 00
        <X 99 0
          /wVtYQ==
        >
        E 0 90 3c 59
        E 136 80 3c 00
        <X 91 0
          /wVvbg==
        >
        E 0 90 3c 5c
        E 209 80 3c 00
        <X 100 0
          /wV2YWlu
        >
        E 0 90 3b 60
        E 332 80 3b 00
        <X 97 0
          /wV0w6Qt
        >
        E 0 90 3b 63
        E 235 80 3b 00
        <X 70 0
          /wVtw6Q=
        >
        E 0 90 3c 5d
        E 115 80 3c 00
        <X 68 0
          /wVoZXQt
        >
        E 0 90 3c 5d
        E 200 80 3c 00
        <X 266 0
          /wVraQ==
        >
        E 0 90 3c 68
        E 212 80 3c 00
        E 40 80 69 00
        E 30 90 69 12
        E 0 90 74 12
        <X 41 0
          /wVIZWkt
        >
        E 0 90 3c 68
        E 511 80 3c 00
        <X 152 0
          /wVrb2wt
        >
        E 0 90 3c 69
        E 201 80 3c 00
        <X 60 0
          /wVsYQ==
        >
        E 0 90 3c 69
        E 88 80 3c 00
        <X 87 0
          /wVqw6TDpGwt
        >
        E 0 90 3c 69
        E 349 80 3c 00
        <X 64 0
          /wVsw6Q=
        >
        E 0 90 3c 69
        E 166 80 3c 00
        <X 147 0
          /wVrw6R5
        >
        E 0 90 3f 64
        E 150 80 3f 00
        <X 100 0
          /wVzaWUt
        >
        E 0 90 3f 6c
        E 425 80 3f 00
        <X 87 0
          /wVsdS0=
        >
        E 0 90 3c 5d
        E 168 80 3c 00
        <X 74 0
          /wVuaQ==
        >
        E 0 90 3c 5d
        E 136 80 3c 00
        <X 54 0
          /wVyZXQt
        >
        E 0 90 3a 57
        E 206 80 3a 00
        <X 270 0
          /wVraQ==
        >
        E 0 90 33 44
        E 167 80 33 00
        E 77 80 69 00
        E 0 80 74 00
        E 180 90 69 12
        <X 101 0
          /wVBbi0=
        >
        E 0 90 38 5e
        E 370 80 38 00
        <X 109 0
          /wV0ZWVrLQ==
        >
        E 0 90 38 5f
        E 142 80 38 00
        <X 101 0
          /wVzaQ==
        >
        E 0 90 38 64
        E 112 80 38 00
        <X 131 0
          /wVMdW8t
        >
        E 0 90 38 64
        E 383 80 38 00
        <X 91 0
          /wVqYQ==
        >
        E 0 90 34 5e
        E 135 80 34 00
        <X 109 0
          /wVyYXUt
        >
        E 0 90 39 67
        E 399 80 39 00
        <X 104 0
          /wVoYWEt
        >
        E 0 90 38 65
        E 316 80 38 00
        <X 107 0
          /wVzaQ==
        >
        E 0 90 38 4a
        E 158 80 38 00
        <X 124 0
          /wV2YWkt
        >
        E 0 90 37 66
        E 358 80 37 00
        <X 94 0
          /wV2YWFu
        >
        E 0 90 35 5d
        E 204 80 35 00
        E 72 80 69 00
        E 240 90 69 12
        <X 69 0
          /wVWb2luLQ==
        >
        E 0 90 31 5d
        E 108 80 31 00
        <X 52 0
          /wUr
        >
        E 0 90 33 53
        E 129 80 33 00
        <X 137 0
          /wVrbw==
        >
        E 0 90 38 69
        E 149 80 38 00
        <X 95 0
          /wVtw6Q=
        >
        E 0 90 38 69
        E 135 80 38 00
        <X 68 0
          /wVyYS0=
        >
        E 0 90 38 5f
        E 131 80 38 00
        <X 103 0
          /wVrZW4t
        >
        E 0 90 39 59
        E 159 80 39 00
        <X 105 0
          /wV0YWE=
        >
        E 0 90 3c 60
        E 262 80 3c 00
        <X 207 0
          /wV0dWgt
        >
        E 0 90 3b 51
        E 259 80 3b 00
        <X 222 0
          /wVrYXMt
        >
        E 0 90 3d 54
        E 149 80 3d 00
        <X 74 0
          /wV0YQ==
        >
        E 0 90 3d 4e
        E 111 80 3d 00
        <X 140 0
          /wV0YWkt
        >
        E 0 90 3a 63
        E 323 80 3a 00
        <X 148 0
          /wV2YWEt
        >
        E 0 90 33 5a
        E 193 80 33 00
        <X 44 0
          /wUr
        >
        E 0 90 35 5c
        E 206 80 35 00
        <X 73 0
          /wVuaQ==
        >
        E 0 90 35 5c
        E 221 80 35 00
        E 128 80 69 00
        E 14833 90 69 61
        <X 210 0
          /wVBaA==
        >
        E 0 90 35 58
        E 2730 80 35 00
        <X 185 0
          /wVhYQ==
        >
        E 0 90 3d 61
        E 381 80 3d 00
        <X 83 0
          /wUr
        >
        E 0 90 3c 63
        E 243 80 3c 00
        <X 96 0
          /wUr
        >
        E 0 90 3a 5b
        E 2321 80 3a 00
        E 231 80 69 00
        E 180 90 69 61
        E 0 90 74 61
        <X 188 0
          /wVBaA==
        >
        E 0 90 3a 61
        E 465 80 3a 00
        <X 90 0
          /wVhYQ==
        >
        E 0 90 3c 61
        E 283 80 3c 00
        <X 135 0
          /wUr
        >
        E 0 90 35 55
        E 3825 80 35 00
        <X 80 0
          /wUr
        >
        E 0 90 33 3f
        E 2859 80 33 00
        E 295 80 69 00
        E 0 80 74 00
        E 660 90 69 61
        <X 256 0
          /wVBaA==
        >
        E 0 90 35 43
        E 2508 80 35 00
        <X 220 0
          /wVhYQ==
        >
        E 0 90 3d 47
        E 633 80 3d 00
        <X 126 0
          /wUr
        >
        E 0 90 3a 46
        E 2222 80 3a 00
        E 215 80 69 00
        E 240 90 69 61
        <X 234 0
          /wVBaA==
        >
        E 0 90 3a 5d
        E 483 80 3a 00
        <X 142 0
          /wUr
        >
        E 0 90 3c 61
        E 295 80 3c 00
        <X 115 0
          /wVhYQ==
        >
        E 0 90 35 5c
        E 3811 80 35 00
        <X 99 0
          /wUr
        >
        E 0 90 33 59
        E 3378 80 33 00
        E 263 80 69 00
        E 15291 90 69 12
        <X 139 0
          /wVFbi0=
        >
        E 0 90 3c 5a
        E 360 80 3c 00
        <X 120 0
          /wV0w6Q=
        >
        E 0 90 3c 66
        E 223 80 3c 00
        <X 82 0
          /wVqb3M=
        >
        E 0 90 3c 66
        E 161 80 3c 00
        <X 96 0
          /wVlLQ==
        >
        E 0 90 3c 6d
        E 199 80 3c 00
        <X 58 0
          /wVsw6Qt
        >
        E 0 90 3c 66
        E 257 80 3c 00
        <X 109 0
          /wVtw6Ru
        >
        E 0 90 3c 65
        E 182 80 3c 00
        <X 61 0
          /wVpLQ==
        >
        E 0 90 3c 65
        E 172 80 3c 00
        <X 161 0
          /wVrdWkt
        >
        E 0 90 3c 5d
        E 355 80 3c 00
        <X 80 0
          /wVuZW4=
        >
        E 0 90 3b 5d
        E 147 80 3b 00
        <X 99 0
          /wV2aXIt
        >
        E 0 90 3c 66
        E 149 80 3c 00
        <X 69 0
          /wUr
        >
        E 0 90 3a 47
        E 96 80 3a 00
        <X 105 0
          /wV0YQ==
        >
        E 0 90 3a 5c
        E 228 80 3a 00
        E 72 80 69 00
        E 120 90 69 12
        E 0 90 74 12
        <X 70 0
          /wVLYXQt
        >
        E 0 90 3c 5c
        E 204 80 3c 00
        <X 268 0
          /wVrZS0=
        >
        E 0 90 3c 65
        E 214 80 3c 00
        <X 55 0
          /wVhYQ==
        >
        E 0 90 3c 65
        E 309 80 3c 00
        <X 451 0
          /wVrdWlu
        >
        E 0 90 3f 6a
        E 243 80 3f 00
        <X 141 0
          /wVsYS0=
        >
        E 0 90 3f 65
        E 262 80 3f 00
        <X 110 0
          /wVob24t
        >
        E 0 90 3d 66
        E 160 80 3d 00
        <X 46 0
          /wUr
        >
        E 0 90 3b 4c
        E 97 80 3b 00
        <X 84 0
          /wVudXQ=
        >
        E 0 90 3d 48
        E 113 80 3d 00
        <X 94 0
          /wVzaWwt
        >
        E 0 90 3a 5a
        E 405 80 3a 00
        <X 125 0
          /wV0YQ==
        >
        E 0 90 33 5c
        E 181 80 33 00
        E 88 80 69 00
        E 0 80 74 00
        E 120 90 69 12
        <X 92 0
          /wVFbi0=
        >
        E 0 90 39 5e
        E 347 80 39 00
        <X 132 0
          /wV0w6Q=
        >
        E 0 90 38 61
        E 207 80 38 00
        <X 61 0
          /wVqb3M=
        >
        E 0 90 38 61
        E 101 80 38 00
        <X 103 0
          /wVlay0=
        >
        E 0 90 38 61
        E 163 80 38 00
        <X 222 0
          /wVzeW4=
        >
        E 0 90 35 56
        E 373 80 35 00
        <X 189 0
          /wVtYXQt
        >
        E 0 90 38 58
        E 191 80 38 00
        <X 272 0
          /wVrYWwt
        >
        E 0 90 38 68
        E 248 80 38 00
        <X 52 0
          /wVsYQ==
        >
        E 0 90 38 68
        E 117 80 38 00
        <X 124 0
          /wVsYWkt
        >
        E 0 90 37 63
        E 344 80 37 00
        <X 111 0
          /wV2YWFu
        >
        E 0 90 35 62
        E 210 80 35 00
        E 61 80 69 00
        E 120 90 69 12
        <X 99 0
          /wVWb2luLQ==
        >
        E 0 90 32 5c
        E 342 80 32 00
        <X 130 0
          /wVrbw==
        >
        E 0 90 38 68
        E 151 80 38 00
        <X 103 0
          /wVtw6Q=
        >
        E 0 90 38 5f
        E 159 80 38 00
        <X 72 0
          /wVyYS0=
        >
        E 0 90 38 5e
        E 132 80 38 00
        <X 90 0
          /wVrZW4t
        >
        E 0 90 38 5e
        E 170 80 38 00
        <X 94 0
          /wV0YWE=
        >
        E 0 90 3c 5e
        E 259 80 3c 00
        <X 200 0
          /wV0dWgt
        >
        E 0 90 3c 53
        E 255 80 3c 00
        <X 233 0
          /wVrYXMt
        >
        E 0 90 3e 4d
        E 113 80 3e 00
        <X 101 0
          /wV0YQ==
        >
        E 0 90 3e 48
        E 97 80 3e 00
        <X 154 0
          /wV0YWkt
        >
        E 0 90 3a 68
        E 403 80 3a 00
        <X 69 0
          /wV2YWFu
        >
        E 0 90 3c 55
        E 184 80 3c 00
        E 50 80 69 00
        E 180 90 69 12
        <X 111 0
          /wVBaS0=
        >
        E 0 90 3c 5d
        E 428 80 3c 00
        <X 79 0
          /wVuby0=
        >
        E 0 90 3c 68
        E 220 80 3c 00
        <X 55 0
          /wVh
        >
        E 0 90 3c 68
        E 79 80 3c 00
        <X 104 0
          /wV2YXIt
        >
        E 0 90 3c 6a
        E 344 80 3c 00
        <X 99 0
          /wVtYQ==
        >
        E 0 90 3c 59
        E 136 80 3c 00
        <X 91 0
          /wVvbg==
        >
        E 0 90 3c 5c
        E 209 80 3c 00
        <X 100 0
          /wV2YWlu
        >
        E 0 90 3b 60
        E 332 80 3b 00
        <X 97 0
          /wV0w6Qt
        >
        E 0 90 3b 63
        E 235 80 3b 00
        <X 70 0
          /wVtw6Q=
        >
        E 0 90 3c 5d
        E 115 80 3c 00
        <X 68 0
          /wVoZXQt
        >
        E 0 90 3c 5d
        E 200 80 3c 00
        <X 266 0
          /wVraQ==
        >
        E 0 90 3c 68
        E 212 80 3c 00
        E 40 80 69 00
        E 30 90 69 12
        E 0 90 74 12
        <X 41 0
          /wVIZWkt
        >
        E 0 90 3c 68
        E 511 80 3c 00
        <X 152 0
          /wVrb2wt
        >
        E 0 90 3c 69
        E 201 80 3c 00
        <X 60 0
          /wVsYQ==
        >
        E 0 90 3c 69
        E 88 80 3c 00
        <X 87 0
          /wVqw6TDpGwt
        >
        E 0 90 3c 69
        E 349 80 3c 00
        <X 64 0
          /wVsw6Q=
        >
        E 0 90 3c 69
        E 166 80 3c 00
        <X 147 0
          /wVrw6R5
        >
        E 0 90 3f 64
        E 150 80 3f 00
        <X 100 0
          /wVzaWUt
        >
        E 0 90 3f 6c
        E 425 80 3f 00
        <X 87 0
          /wVsdS0=
        >
        E 0 90 3c 5d
        E 168 80 3c 00
        <X 74 0
          /wVuaQ==
        >
        E 0 90 3c 5d
        E 136 80 3c 00
        <X 54 0
          /wVyZXQt
        >
        E 0 90 3a 57
        E 206 80 3a 00
        <X 270 0
          /wVraQ==
        >
        E 0 90 33 44
        E 167 80 33 00
        E 77 80 69 00
        E 0 80 74 00
        E 180 90 69 12
        <X 101 0
          /wVBbi0=
        >
        E 0 90 38 5e
        E 370 80 38 00
        <X 109 0
          /wV0ZWVrLQ==
        >
        E 0 90 38 5f
        E 142 80 38 00
        <X 101 0
          /wVzaQ==
        >
        E 0 90 38 64
        E 112 80 38 00
        <X 131 0
          /wVMdW8t
        >
        E 0 90 38 64
        E 383 80 38 00
        <X 91 0
          /wVqYQ==
        >
        E 0 90 34 5e
        E 135 80 34 00
        <X 109 0
          /wVyYXUt
        >
        E 0 90 39 67
        E 399 80 39 00
        <X 104 0
          /wVoYWEt
        >
        E 0 90 38 65
        E 316 80 38 00
        <X 107 0
          /wVzaQ==
        >
        E 0 90 38 4a
        E 158 80 38 00
        <X 124 0
          /wV2YWkt
        >
        E 0 90 37 66
        E 358 80 37 00
        <X 94 0
          /wV2YWFu
        >
        E 0 90 35 5d
        E 204 80 35 00
        E 72 80 69 00
        E 240 90 69 12
        <X 69 0
          /wVWb2luLQ==
        >
        E 0 90 31 5d
        E 108 80 31 00
        <X 52 0
          /wUr
        >
        E 0 90 33 53
        E 129 80 33 00
        <X 137 0
          /wVrbw==
        >
        E 0 90 38 69
        E 149 80 38 00
        <X 95 0
          /wVtw6Q=
        >
        E 0 90 38 69
        E 135 80 38 00
        <X 68 0
          /wVyYS0=
        >
        E 0 90 38 5f
        E 131 80 38 00
        <X 103 0
          /wVrZW4t
        >
        E 0 90 39 59
        E 159 80 39 00
        <X 105 0
          /wV0YWE=
        >
        E 0 90 3c 60
        E 262 80 3c 00
        <X 207 0
          /wV0dWgt
        >
        E 0 90 3b 51
        E 259 80 3b 00
        <X 222 0
          /wVrYXMt
        >
        E 0 90 3d 54
        E 149 80 3d 00
        <X 74 0
          /wV0YQ==
        >
        E 0 90 3d 4e
        E 111 80 3d 00
        <X 140 0
          /wV0YWkt
        >
        E 0 90 3a 63
        E 323 80 3a 00
        <X 148 0
          /wV2YWEt
        >
        E 0 90 33 5a
        E 193 80 33 00
        <X 44 0
          /wUr
        >
        E 0 90 35 5c
        E 206 80 35 00
        <X 73 0
          /wVuaQ==
        >
        E 0 90 35 5c
        E 221 80 35 00
        E 128 80 69 00
        E 5109 90 69 5e
        E 2820 80 69 00
        E 4860 90 69 5e
        E 2760 80 69 00
        <X 229 0
          /wFbaWRsZV9yZWFsdGltZV0=
        >
        E 5890 b0 7b 00
        GUID {F1082209-E2A8-4526-8AA6-2FE8F2DEB335}
        IGNTEMPO 0 120.00000000 4 4
        SRCCOLOR 1439
        VELLANE 132 128 60
        COLORMAP "C:\Users\me\AppData\Roaming\REAPER\Data\color_maps\rockband_vox-other.png"
        TEXTSTRINGFILE "C:\Program Files\REAPER\Data\Text_Strings\Text Events List.txt"
        CFGEDITVIEW 291348.501276 273.474866 0 12 0 0 0
        CFGEDIT 1 1 0 1 1 1 1 1 1 1 1 0.06250000 -8 -8 1374 736 1 2 1 2 0.00000000 0 0 0 0 0.500000 1 0 1.000000 64
        KEYSNAP 0 0 "102034050607" 0 "Major"
        EVTFILTER 0 -1 -1 -1 -1 0 1 0 0 -1.00000000 -1.00000000
      >
    >
  >
  <TRACK '{AB3E8FDC-23A9-4945-BA6C-055C630028D0}'
    NAME "DRYVOX3"
    PEAKCOL 16576
    BEAT -1
    AUTOMODE 0
    VOLPAN 1.00000000000000 0.00000000000000 -1.00000000000000 -1.00000000000000 1.00000000000000
    MUTESOLO 1 0 0
    IPHASE 0
    ISBUS 0 0
    BUSCOMP 0 0
    SHOWINMIX 1 0.666700 0.500000 1 0.500000 -1 -1 -1
    FREEMODE 0
    SEL 0
    REC 0 0 0 0 0 0 0
    TRACKHEIGHT 24 0
    INQ 0 0 0 0.5000000000 100 0 0 100
    NCHAN 2
    FX 1
    TRACKID {AB3E8FDC-23A9-4945-BA6C-055C630028D0}
    PERF 0
    MIDIOUT -1
    MAINSEND 1 0
    <FXCHAIN
      SHOW 0
      LASTSEL 0
      DOCKED 0
      BYPASS 0 0
      <VST "VST: ReaGate (Cockos)" "reagate.dll" 0 ""
        dGdlcu9e7f4EAAAAAQAAAAAAAAACAAAAAAAAAAQAAAAAAAAACAAAAA==
        AAAAAAIAAAABAAAAAAAAAAIAAAAAAAAAVAAAAAAAAAAAABAA776t3g==
        DfCt3pzRBzOmm8Q7CtejPAAAAAAAAAAAAACAPwAAAAAAAAAAAAAAAA==
        nNEHMx5Ucz+c0QczAACAPwAAAAAAAAAAAAAAACwWCz8AAAAAAAAAAA==
        AAAQAAAA
      >
      FLOATPOS 859 184 511 385
      FXID {BF545B5B-7DD0-4B4C-AC52-F095A552DA08}
      WAK 0
    >
  >
  <TRACK '{14F64FB7-FE44-4E53-9F58-44F4178BCEF9}'
    NAME "PART KEYS"
    PEAKCOL 16842496
    BEAT -1
    AUTOMODE 0
    VOLPAN 1.00000000000000 0.00000000000000 -1.00000000000000 -1.00000000000000 1.00000000000000
    MUTESOLO 0 0 0
    IPHASE 0
    ISBUS 1 1
    BUSCOMP 0 0
    SHOWINMIX 1 0.666700 0.500000 1 0.500000 -1 -1 -1
    FREEMODE 0
    SEL 0
    REC 0 0 0 0 0 0 0
    TRACKHEIGHT 24 0
    INQ 0 0 0 0.5000000000 100 0 0 100
    NCHAN 2
    FX 1
    TRACKID {14F64FB7-FE44-4E53-9F58-44F4178BCEF9}
    PERF 0
    MIDIOUT -1
    <MIDINOTENAMES
      0 124 "BRE"
      0 123 "BRE"
      0 122 "BRE"
      0 121 "BRE"
      0 120 "BRE (use all 5)"
      0 116 "OVERDRIVE"
      0 119 "----"
      0 115 "----"
      0 103 "Solo Marker"
      0 95 "----"
      0 96 "EXPERT Green"
      0 97 "EXPERT Red"
      0 98 "EXPERT Yellow"
      0 99 "EXPERT Blue"
      0 100 "EXPERT Orange"
      0 102 "Force HoPo off"
      0 83 "----"
      0 84 "HARD Green"
      0 85 "HARD Red"
      0 86 "HARD Yellow"
      0 87 "HARD Blue"
      0 88 "HARD Orange"
      0 72 "MEDIUM Green"
      0 73 "MEDIUM Red"
      0 74 "MEDIUM Yellow"
      0 75 "MEDIUM Blue"
      0 76 "MEDIUM Orange"
      0 71 "----"
      0 64 "EASY Orange"
      0 63 "EASY Blue"
      0 62 "EASY Yellow"
      0 61 "EASY Red"
      0 60 "EASY Green"
      0 127 "Trill Marker"
      0 126 "----"
      0 101 "Force HoPo on"
    >
    MAINSEND 1 0
    <FXCHAIN
      WNDRECT -911 1158 878 585
      SHOW 0
      LASTSEL 0
      DOCKED 0
      BYPASS 0 0
      <VST "VSTi: RBN Preview (RBN)" "rbprev_vst64_beta.dll" 0 ""
        dnBicu5e7f4AAAAAAgAAAAEAAAAAAAAAAgAAAAAAAAAEAAAAAQAAAA==
        AAAAAAMAqgAAAAAAAAA=
      >
      FLOATPOS 0 0 0 0
      FXID {EE0C80EE-5E5F-4EA2-B367-78AAAB3793F5}
      WAK 0
    >
    <ITEM
      POSITION 0.00000000000000
      SNAPOFFS 0.00000000000000
      LENGTH 256.16382087400871
      LOOP 0
      ALLTAKES 0
      SEL 0
      FADEIN 1 0.000000 0.000000 1 0
      FADEOUT 1 0.000000 0.000000 1 0
      MUTE 0
      IGUID {52D9F6AC-16AD-4CE9-95E4-6AD6396BB4E2}
      IID 14
      NAME "PART KEYS"
      VOLPAN 1.000000 0.000000 1.000000 -1.000000
      SOFFS 0.00000000000000 0.00000000000000
      PLAYRATE 1.00000000000000 1 0.00000000000000 -65536
      CHANMODE 0
      GUID {78E1CCBD-C30B-4DD8-81CD-2AEB0D2D38C8}
      <SOURCE MIDI
        HASDATA 1 480 QN
        POOLEDEVTS {0798EA8E-8099-438D-85E8-F5985A6201A3}
        <X 0 0
          /wNQQVJUIEtFWVM=
        >
        <X 3840 0
          /wFbaWRsZV0=
        >
        <X 23040 0
          /wFbcGxheV0=
        >
        E 1200 90 55 59
        E 0 90 61 59
        E 60 80 55 00
        E 0 80 61 00
        E 180 90 4a 59
        E 0 90 56 59
        E 0 90 62 59
        E 60 80 4a 00
        E 0 80 56 00
        E 0 80 62 00
        E 180 90 57 59
        E 0 90 63 59
        E 60 80 57 00
        E 0 80 63 00
        E 180 90 3e 59
        E 0 90 4b 59
        E 0 90 57 59
        E 0 90 63 59
        E 60 80 3e 00
        E 0 80 4b 00
        E 0 80 57 00
        E 0 80 63 00
        E 180 90 56 59
        E 0 90 62 59
        E 60 80 56 00
        E 0 80 62 00
        E 180 90 49 59
        E 0 90 55 59
        E 0 90 61 59
        E 60 80 49 00
        E 0 80 55 00
        E 0 80 61 00
        E 180 90 58 59
        E 0 90 64 59
        E 120 80 58 00
        E 180 80 64 00
        E 180 90 55 59
        E 0 90 61 59
        E 60 80 55 00
        E 0 80 61 00
        E 180 90 4a 59
        E 0 90 56 59
        E 0 90 62 59
        E 60 80 4a 00
        E 0 80 56 00
        E 0 80 62 00
        E 180 90 57 59
        E 0 90 63 59
        E 60 80 57 00
        E 0 80 63 00
        E 180 90 3e 59
        E 0 90 4b 59
        E 0 90 57 59
        E 0 90 63 59
        E 960 80 3e 00
        E 0 80 4b 00
        E 60 80 57 00
        E 0 80 63 00
        E 180 90 55 59
        E 0 90 61 59
        E 60 80 55 00
        E 0 80 61 00
        E 180 90 4a 59
        E 0 90 56 59
        E 0 90 62 59
        E 60 80 4a 00
        E 0 80 56 00
        E 0 80 62 00
        E 180 90 57 59
        E 0 90 63 59
        E 60 80 57 00
        E 0 80 63 00
        E 180 90 3e 59
        E 0 90 4b 59
        E 0 90 57 59
        E 0 90 63 59
        E 60 80 3e 00
        E 0 80 4b 00
        E 0 80 57 00
        E 0 80 63 00
        E 180 90 56 59
        E 0 90 62 59
        E 60 80 56 00
        E 0 80 62 00
        E 180 90 49 59
        E 0 90 55 59
        E 0 90 61 59
        E 60 80 49 00
        E 0 80 55 00
        E 0 80 61 00
        E 180 90 58 59
        E 0 90 64 59
        E 120 80 58 00
        E 180 80 64 00
        E 180 90 55 59
        E 0 90 61 59
        E 60 80 55 00
        E 0 80 61 00
        E 180 90 3d 59
        E 0 90 4a 59
        E 0 90 56 59
        E 0 90 62 59
        E 60 80 3d 00
        E 0 80 4a 00
        E 0 80 56 00
        E 0 80 62 00
        E 180 90 57 59
        E 0 90 63 59
        E 60 80 57 00
        E 0 80 63 00
        E 180 90 3d 59
        E 0 90 4a 59
        E 0 90 56 59
        E 0 90 62 59
        E 960 80 3d 00
        E 0 80 4a 00
        E 60 80 56 00
        E 0 80 62 00
        E 180 90 55 59
        E 0 90 61 59
        E 60 80 55 00
        E 0 80 61 00
        E 180 90 4a 59
        E 0 90 56 59
        E 0 90 62 59
        E 60 80 4a 00
        E 0 80 56 00
        E 0 80 62 00
        E 180 90 57 59
        E 0 90 63 59
        E 60 80 57 00
        E 0 80 63 00
        E 180 90 3e 59
        E 0 90 4b 59
        E 0 90 57 59
        E 0 90 63 59
        E 60 80 3e 00
        E 0 80 4b 00
        E 0 80 57 00
        E 0 80 63 00
        E 180 90 56 59
        E 0 90 62 59
        E 60 80 56 00
        E 0 80 62 00
        E 180 90 49 59
        E 0 90 55 59
        E 0 90 61 59
        E 60 80 49 00
        E 0 80 55 00
        E 0 80 61 00
        E 180 90 58 59
        E 0 90 64 59
        E 120 80 58 00
        E 180 80 64 00
        E 180 90 55 59
        E 0 90 61 59
        E 60 80 55 00
        E 0 80 61 00
        E 180 90 4a 59
        E 0 90 56 59
        E 0 90 62 59
        E 60 80 4a 00
        E 0 80 56 00
        E 0 80 62 00
        E 180 90 57 59
        E 0 90 63 59
        E 60 80 57 00
        E 0 80 63 00
        E 180 90 3e 59
        E 0 90 4b 59
        E 0 90 57 59
        E 0 90 63 59
        E 960 80 3e 00
        E 0 80 4b 00
        E 60 80 57 00
        E 0 80 63 00
        E 180 90 55 59
        E 0 90 61 59
        E 60 80 55 00
        E 0 80 61 00
        E 180 90 4a 59
        E 0 90 56 59
        E 0 90 62 59
        E 60 80 4a 00
        E 0 80 56 00
        E 0 80 62 00
        E 180 90 57 59
        E 0 90 63 59
        E 60 80 57 00
        E 0 80 63 00
        E 180 90 3e 59
        E 0 90 4b 59
        E 0 90 57 59
        E 0 90 63 59
        E 60 80 3e 00
        E 0 80 4b 00
        E 0 80 57 00
        E 0 80 63 00
        E 180 90 56 59
        E 0 90 62 59
        E 60 80 56 00
        E 0 80 62 00
        E 180 90 49 59
        E 0 90 55 59
        E 0 90 61 59
        E 60 80 49 00
        E 0 80 55 00
        E 0 80 61 00
        E 180 90 58 59
        E 0 90 64 59
        E 0 90 74 59
        E 120 80 58 00
        E 180 80 64 00
        E 180 90 55 59
        E 0 90 61 59
        E 60 80 55 00
        E 0 80 61 00
        E 180 90 3d 59
        E 0 90 4a 59
        E 0 90 56 59
        E 0 90 62 59
        E 60 80 3d 00
        E 0 80 4a 00
        E 0 80 56 00
        E 0 80 62 00
        E 180 90 57 59
        E 0 90 63 59
        E 60 80 57 00
        E 0 80 63 00
        E 180 90 3d 59
        E 0 90 4a 59
        E 0 90 56 59
        E 0 90 62 59
        E 2880 80 74 00
        E 0 80 3d 00
        E 0 80 4a 00
        E 0 80 56 00
        E 0 80 62 00
        <X 480 0
          /wFbaWRsZV0=
        >
        <X 57600 0
          /wFbcGxheV0=
        >
        E 480 90 3d 59
        E 0 90 4a 59
        E 0 90 56 59
        E 0 90 62 59
        E 480 80 3d 00
        E 0 80 4a 00
        E 300 80 56 00
        E 0 80 62 00
        E 180 90 3e 59
        E 0 90 4b 59
        E 0 90 57 59
        E 0 90 63 59
        E 480 80 3e 00
        E 0 80 4b 00
        E 300 80 57 00
        E 0 80 63 00
        E 180 90 3e 59
        E 0 90 4a 59
        E 0 90 4b 59
        E 0 90 56 59
        E 0 90 57 59
        E 0 90 62 59
        E 0 90 63 59
        E 1440 80 3e 00
        E 0 80 4a 00
        E 0 80 4b 00
        E 300 80 56 00
        E 0 80 62 00
        E 180 90 3c 59
        E 0 90 48 59
        E 0 90 54 59
        E 0 90 60 59
        E 1440 80 3c 00
        E 0 80 48 00
        E 300 80 54 00
        E 0 80 60 00
        E 180 90 3c 59
        E 0 90 49 59
        E 0 90 55 59
        E 0 90 61 59
        E 2400 80 3c 00
        E 0 80 49 00
        E 360 80 57 00
        E 0 80 63 00
        E 0 80 55 00
        E 120 90 3e 59
        E 0 90 4b 59
        E 0 90 57 59
        E 0 90 63 59
        E 480 80 3e 00
        E 0 80 4b 00
        E 300 80 61 00
        E 60 80 57 00
        E 0 80 63 00
        E 120 90 3e 59
        E 0 90 4a 59
        E 0 90 4b 59
        E 0 90 56 59
        E 0 90 57 59
        E 0 90 62 59
        E 0 90 63 59
        E 1440 80 3e 00
        E 0 80 4a 00
        E 0 80 4b 00
        E 300 80 56 00
        E 0 80 62 00
        E 180 90 3c 59
        E 0 90 48 59
        E 0 90 54 59
        E 0 90 60 59
        E 1440 80 3c 00
        E 0 80 48 00
        E 300 80 54 00
        E 0 80 60 00
        E 121 90 74 12
        E 59 90 3c 59
        E 0 90 49 59
        E 0 90 55 59
        E 0 90 61 59
        E 2400 80 3c 00
        E 0 80 49 00
        E 359 80 57 00
        E 0 80 63 00
        E 1 80 55 00
        E 120 90 3e 59
        E 0 90 4b 59
        E 0 90 57 59
        E 0 90 63 59
        E 480 80 3e 00
        E 0 80 4b 00
        E 241 80 74 00
        E 59 80 61 00
        E 0 80 57 00
        E 0 80 63 00
        E 180 90 3e 59
        E 0 90 4a 59
        E 0 90 4b 59
        E 0 90 56 59
        E 0 90 57 59
        E 0 90 62 59
        E 0 90 63 59
        E 1440 80 3e 00
        E 0 80 4a 00
        E 0 80 4b 00
        E 300 80 56 00
        E 0 80 62 00
        E 180 90 3c 59
        E 0 90 48 59
        E 0 90 54 59
        E 0 90 60 59
        E 1440 80 3c 00
        E 0 80 48 00
        E 300 80 54 00
        E 0 80 60 00
        E 180 90 3c 59
        E 0 90 49 59
        E 0 90 55 59
        E 0 90 61 59
        E 2400 80 3c 00
        E 0 80 49 00
        E 358 80 57 00
        E 0 80 63 00
        E 2 80 55 00
        E 120 90 3e 59
        E 0 90 4b 59
        E 0 90 57 59
        E 0 90 63 59
        E 480 80 3e 00
        E 0 80 4b 00
        E 300 80 61 00
        E 0 80 57 00
        E 0 80 63 00
        E 180 90 3e 59
        E 0 90 4a 59
        E 0 90 4b 59
        E 0 90 56 59
        E 0 90 57 59
        E 0 90 62 59
        E 0 90 63 59
        E 1440 80 3e 00
        E 0 80 4a 00
        E 0 80 4b 00
        E 300 80 56 00
        E 0 80 62 00
        E 180 90 3c 59
        E 0 90 48 59
        E 0 90 54 59
        E 0 90 60 59
        E 1440 80 3c 00
        E 0 80 48 00
        E 300 80 54 00
        E 0 80 60 00
        E 180 90 3c 59
        E 0 90 49 59
        E 0 90 55 59
        E 0 90 61 59
        E 2879 80 57 00
        E 0 80 63 00
        E 1 80 3c 00
        E 0 80 49 00
        E 0 80 55 00
        E 0 80 61 00
        E 240 90 55 59
        E 0 90 61 59
        E 60 80 55 00
        E 0 80 61 00
        E 180 90 4a 59
        E 0 90 56 59
        E 0 90 62 59
        E 60 80 4a 00
        E 0 80 56 00
        E 0 80 62 00
        E 180 90 57 59
        E 0 90 63 59
        E 60 80 57 00
        E 0 80 63 00
        E 180 90 3e 59
        E 0 90 4b 59
        E 0 90 57 59
        E 0 90 63 59
        E 60 80 3e 00
        E 0 80 4b 00
        E 0 80 57 00
        E 0 80 63 00
        E 180 90 56 59
        E 0 90 62 59
        E 60 80 56 00
        E 0 80 62 00
        E 180 90 49 59
        E 0 90 55 59
        E 0 90 61 59
        E 60 80 49 00
        E 0 80 55 00
        E 0 80 61 00
        E 180 90 58 59
        E 0 90 64 59
        E 120 80 58 00
        E 180 80 64 00
        E 180 90 55 59
        E 0 90 61 59
        E 60 80 55 00
        E 0 80 61 00
        E 180 90 4a 59
        E 0 90 56 59
        E 0 90 62 59
        E 60 80 4a 00
        E 0 80 56 00
        E 0 80 62 00
        E 180 90 57 59
        E 0 90 63 59
        E 60 80 57 00
        E 0 80 63 00
        E 180 90 3e 59
        E 0 90 4b 59
        E 0 90 57 59
        E 0 90 63 59
        E 960 80 3e 00
        E 0 80 4b 00
        E 60 80 57 00
        E 0 80 63 00
        E 180 90 55 59
        E 0 90 61 59
        E 60 80 55 00
        E 0 80 61 00
        E 180 90 4a 59
        E 0 90 56 59
        E 0 90 62 59
        E 60 80 4a 00
        E 0 80 56 00
        E 0 80 62 00
        E 180 90 57 59
        E 0 90 63 59
        E 60 80 57 00
        E 0 80 63 00
        E 180 90 3e 59
        E 0 90 4b 59
        E 0 90 57 59
        E 0 90 63 59
        E 60 80 3e 00
        E 0 80 4b 00
        E 0 80 57 00
        E 0 80 63 00
        E 180 90 56 59
        E 0 90 62 59
        E 60 80 56 00
        E 0 80 62 00
        E 180 90 49 59
        E 0 90 55 59
        E 0 90 61 59
        E 60 80 49 00
        E 0 80 55 00
        E 0 80 61 00
        E 180 90 58 59
        E 0 90 64 59
        E 120 80 58 00
        E 180 80 64 00
        E 180 90 55 59
        E 0 90 61 59
        E 0 90 74 59
        E 60 80 55 00
        E 0 80 61 00
        E 180 90 3d 59
        E 0 90 4a 59
        E 0 90 56 59
        E 0 90 62 59
        E 60 80 3d 00
        E 0 80 4a 00
        E 0 80 56 00
        E 0 80 62 00
        E 180 90 57 59
        E 0 90 63 59
        E 60 80 57 00
        E 0 80 63 00
        E 180 90 3d 59
        E 0 90 4a 59
        E 0 90 56 59
        E 0 90 62 59
        E 2880 80 74 00
        E 0 80 3d 00
        E 0 80 4a 00
        E 0 80 56 00
        E 0 80 62 00
        <X 480 0
          /wFbaWRsZV0=
        >
        <X 11520 0
          /wFbcGxheV0=
        >
        E 480 90 3d 59
        E 0 90 4a 59
        E 0 90 56 59
        E 0 90 62 59
        E 480 80 3d 00
        E 0 80 4a 00
        E 301 80 56 00
        E 0 80 62 00
        E 179 90 3e 59
        E 0 90 4b 59
        E 0 90 57 59
        E 0 90 63 59
        E 480 80 3e 00
        E 0 80 4b 00
        E 301 80 57 00
        E 0 80 63 00
        E 179 90 3d 59
        E 0 90 48 59
        E 0 90 4a 59
        E 0 90 54 59
        E 0 90 56 59
        E 0 90 60 59
        E 0 90 62 59
        E 1440 80 3d 00
        E 0 80 48 00
        E 0 80 4a 00
        E 360 80 54 00
        E 0 80 56 00
        E 0 80 62 00
        E 120 90 3d 59
        E 0 90 4a 59
        E 0 90 56 59
        E 0 90 62 59
        E 1440 80 3d 00
        E 0 80 4a 00
        E 300 80 56 00
        E 0 80 62 00
        E 180 90 3c 59
        E 0 90 49 59
        E 0 90 55 59
        E 0 90 61 59
        E 1440 80 3c 00
        E 0 80 49 00
        E 299 80 55 00
        E 0 80 61 00
        E 181 90 3d 59
        E 0 90 4a 59
        E 0 90 56 59
        E 0 90 62 59
        E 1440 80 3d 00
        E 0 80 4a 00
        E 300 80 60 00
        E 0 80 56 00
        E 0 80 62 00
        E 180 90 3e 59
        E 0 90 4a 59
        E 0 90 4b 59
        E 0 90 56 59
        E 0 90 57 59
        E 0 90 62 59
        E 0 90 63 59
        E 1440 80 3e 00
        E 0 80 4a 00
        E 0 80 4b 00
        E 300 80 56 00
        E 0 80 57 00
        E 0 80 62 00
        E 0 80 63 00
        E 180 90 3f 59
        E 0 90 49 59
        E 0 90 4b 59
        E 0 90 55 59
        E 0 90 57 59
        E 0 90 61 59
        E 0 90 63 59
        E 1440 80 3f 00
        E 0 80 49 00
        E 0 80 4b 00
        E 360 80 55 00
        E 0 80 57 00
        E 0 80 63 00
        E 120 90 3e 59
        E 0 90 4b 59
        E 0 90 57 59
        E 0 90 63 59
        E 1440 80 3e 00
        E 0 80 4b 00
        E 300 80 61 00
        E 0 80 57 00
        E 0 80 63 00
        E 180 90 3d 59
        E 0 90 4a 59
        E 0 90 56 59
        E 0 90 62 59
        E 480 80 3d 00
        E 0 80 4a 00
        E 301 80 56 00
        E 0 80 62 00
        E 179 90 3e 59
        E 0 90 4b 59
        E 0 90 57 59
        E 0 90 63 59
        E 480 80 3e 00
        E 0 80 4b 00
        E 301 80 57 00
        E 0 80 63 00
        E 179 90 3e 59
        E 0 90 4a 59
        E 0 90 4b 59
        E 0 90 56 59
        E 0 90 57 59
        E 0 90 62 59
        E 0 90 63 59
        E 1440 80 3e 00
        E 0 80 4a 00
        E 0 80 4b 00
        E 300 80 56 00
        E 0 80 62 00
        E 180 90 3c 59
        E 0 90 48 59
        E 0 90 54 59
        E 0 90 60 59
        E 1440 80 3c 00
        E 0 80 48 00
        E 300 80 54 00
        E 0 80 60 00
        E 108 90 74 12
        E 72 90 3c 59
        E 0 90 49 59
        E 0 90 55 59
        E 0 90 61 59
        E 2400 80 3c 00
        E 0 80 49 00
        E 360 80 57 00
        E 0 80 63 00
        E 0 80 55 00
        E 120 90 3e 59
        E 0 90 4b 59
        E 0 90 57 59
        E 0 90 63 59
        E 480 80 3e 00
        E 0 80 4b 00
        E 288 80 74 00
        E 12 80 61 00
        E 60 80 57 00
        E 0 80 63 00
        E 120 90 3e 59
        E 0 90 4a 59
        E 0 90 4b 59
        E 0 90 56 59
        E 0 90 57 59
        E 0 90 62 59
        E 0 90 63 59
        E 1440 80 3e 00
        E 0 80 4a 00
        E 0 80 4b 00
        E 300 80 56 00
        E 0 80 62 00
        E 180 90 3c 59
        E 0 90 48 59
        E 0 90 54 59
        E 0 90 60 59
        E 1440 80 3c 00
        E 0 80 48 00
        E 300 80 54 00
        E 0 80 60 00
        E 180 90 3c 59
        E 0 90 49 59
        E 0 90 55 59
        E 0 90 61 59
        E 2400 80 3c 00
        E 0 80 49 00
        E 359 80 57 00
        E 0 80 63 00
        E 1 80 55 00
        E 120 90 3e 59
        E 0 90 4b 59
        E 0 90 57 59
        E 0 90 63 59
        E 480 80 3e 00
        E 0 80 4b 00
        E 300 80 61 00
        E 0 80 57 00
        E 0 80 63 00
        E 180 90 3e 59
        E 0 90 4a 59
        E 0 90 4b 59
        E 0 90 56 59
        E 0 90 57 59
        E 0 90 62 59
        E 0 90 63 59
        E 1440 80 3e 00
        E 0 80 4a 00
        E 0 80 4b 00
        E 300 80 56 00
        E 0 80 62 00
        E 180 90 3c 59
        E 0 90 48 59
        E 0 90 54 59
        E 0 90 60 59
        E 1440 80 3c 00
        E 0 80 48 00
        E 300 80 54 00
        E 0 80 60 00
        E 180 90 3c 59
        E 0 90 49 59
        E 0 90 55 59
        E 0 90 61 59
        E 2400 80 3c 00
        E 0 80 49 00
        E 358 80 57 00
        E 0 80 63 00
        E 2 80 55 00
        E 120 90 3e 59
        E 0 90 4b 59
        E 0 90 57 59
        E 0 90 63 59
        E 480 80 3e 00
        E 0 80 4b 00
        E 300 80 61 00
        E 0 80 57 00
        E 0 80 63 00
        E 180 90 3e 59
        E 0 90 4a 59
        E 0 90 4b 59
        E 0 90 56 59
        E 0 90 57 59
        E 0 90 62 59
        E 0 90 63 59
        E 1440 80 3e 00
        E 0 80 4a 00
        E 0 80 4b 00
        E 300 80 56 00
        E 0 80 62 00
        E 180 90 3c 59
        E 0 90 48 59
        E 0 90 54 59
        E 0 90 60 59
        E 1440 80 3c 00
        E 0 80 48 00
        E 300 80 54 00
        E 0 80 60 00
        E 180 90 3c 59
        E 0 90 49 59
        E 0 90 55 59
        E 0 90 61 59
        E 2400 80 3c 00
        E 0 80 49 00
        E 358 80 57 00
        E 0 80 63 00
        E 2 80 55 00
        E 120 90 3e 59
        E 0 90 4b 59
        E 0 90 57 59
        E 0 90 63 59
        E 480 80 3e 00
        E 0 80 4b 00
        E 300 80 61 00
        E 0 80 57 00
        E 0 80 63 00
        E 180 90 40 59
        E 0 90 4c 59
        E 0 90 58 59
        E 0 90 64 59
        E 0 90 74 59
        E 2400 80 40 00
        E 0 80 4c 00
        E 360 80 58 00
        E 0 80 64 00
        E 120 90 40 59
        E 0 90 4c 59
        E 0 90 58 59
        E 0 90 64 59
        E 480 80 40 00
        E 0 80 4c 00
        E 300 80 58 00
        E 0 80 64 00
        E 180 90 3e 59
        E 0 90 4b 59
        E 0 90 57 59
        E 0 90 63 59
        E 2400 80 3e 00
        E 0 80 4b 00
        E 300 80 57 00
        E 0 80 63 00
        E 180 90 40 59
        E 0 90 4c 59
        E 0 90 58 59
        E 0 90 64 59
        E 480 80 40 00
        E 0 80 4c 00
        E 300 80 58 00
        E 0 80 64 00
        E 180 80 74 00
        E 0 90 3d 59
        E 0 90 4a 59
        E 0 90 56 59
        E 0 90 62 59
        E 3360 80 3d 00
        E 0 80 4a 00
        E 300 80 56 00
        E 0 80 62 00
        E 180 90 3c 59
        E 0 90 49 59
        E 0 90 55 59
        E 0 90 61 59
        E 3360 80 3c 00
        E 0 80 49 00
        E 300 80 55 00
        E 0 80 61 00
        E 180 92 3e 59
        E 0 92 4b 59
        E 0 92 57 59
        E 0 92 63 59
        E 60 82 3e 00
        E 0 82 4b 00
        E 0 82 57 00
        E 0 82 63 00
        E 180 92 54 59
        E 0 92 60 59
        E 60 82 54 00
        E 0 82 60 00
        E 180 92 4a 59
        E 0 92 56 59
        E 0 92 62 59
        E 60 82 4a 00
        E 0 82 56 00
        E 0 82 62 00
        E 180 92 57 59
        E 0 92 63 59
        E 60 82 57 00
        E 0 82 63 00
        E 180 92 3d 59
        E 0 92 4a 59
        E 0 92 56 59
        E 0 92 62 59
        E 60 82 3d 00
        E 0 82 4a 00
        E 0 82 56 00
        E 0 82 62 00
        E 180 92 54 59
        E 0 92 60 59
        E 60 82 54 00
        E 0 82 60 00
        E 180 92 49 59
        E 0 92 55 59
        E 0 92 61 59
        E 60 82 49 00
        E 0 82 55 00
        E 0 82 61 00
        E 180 92 56 59
        E 0 92 62 59
        E 60 82 56 00
        E 0 82 62 00
        E 180 92 3e 59
        E 0 92 4b 59
        E 0 92 57 59
        E 0 92 63 59
        E 60 82 3e 00
        E 0 82 4b 00
        E 0 82 57 00
        E 0 82 63 00
        E 180 92 54 59
        E 0 92 60 59
        E 60 82 54 00
        E 0 82 60 00
        E 180 92 3e 59
        E 0 92 4b 59
        E 0 92 57 59
        E 0 92 63 59
        E 60 82 3e 00
        E 0 82 4b 00
        E 0 82 57 00
        E 0 82 63 00
        E 180 92 56 59
        E 0 92 62 59
        E 1020 82 56 00
        E 0 82 62 00
        E 180 92 3e 59
        E 0 92 4b 59
        E 0 92 57 59
        E 0 92 63 59
        E 60 82 3e 00
        E 0 82 4b 00
        E 0 82 57 00
        E 0 82 63 00
        E 180 92 54 59
        E 0 92 60 59
        E 60 82 54 00
        E 0 82 60 00
        E 180 92 4a 59
        E 0 92 56 59
        E 0 92 62 59
        E 60 82 4a 00
        E 0 82 56 00
        E 0 82 62 00
        E 180 92 57 59
        E 0 92 63 59
        E 60 82 57 00
        E 0 82 63 00
        E 180 92 3d 59
        E 0 92 4a 59
        E 0 92 56 59
        E 0 92 62 59
        E 60 82 3d 00
        E 0 82 4a 00
        E 0 82 56 00
        E 0 82 62 00
        E 180 92 54 59
        E 0 92 60 59
        E 60 82 54 00
        E 0 82 60 00
        E 180 92 49 59
        E 0 92 55 59
        E 0 92 61 59
        E 60 82 49 00
        E 0 82 55 00
        E 0 82 61 00
        E 180 92 56 59
        E 0 92 62 59
        E 60 82 56 00
        E 0 82 62 00
        E 180 92 3e 59
        E 0 92 4b 59
        E 0 92 57 59
        E 0 92 63 59
        E 60 82 3e 00
        E 0 82 4b 00
        E 0 82 57 00
        E 0 82 63 00
        E 180 92 54 59
        E 0 92 60 59
        E 60 82 54 00
        E 0 82 60 00
        E 180 92 3e 59
        E 0 92 4b 59
        E 0 92 57 59
        E 0 92 63 59
        E 60 82 3e 00
        E 0 82 4b 00
        E 0 82 57 00
        E 0 82 63 00
        E 180 92 56 59
        E 0 92 62 59
        E 1020 82 56 00
        E 0 82 62 00
        E 180 92 3e 59
        E 0 92 4b 59
        E 0 92 57 59
        E 0 92 63 59
        E 60 82 3e 00
        E 0 82 4b 00
        E 0 82 57 00
        E 0 82 63 00
        E 180 92 54 59
        E 0 92 60 59
        E 60 82 54 00
        E 0 82 60 00
        E 180 92 4a 59
        E 0 92 56 59
        E 0 92 62 59
        E 60 82 4a 00
        E 0 82 56 00
        E 0 82 62 00
        E 180 92 57 59
        E 0 92 63 59
        E 60 82 57 00
        E 0 82 63 00
        E 180 92 3d 59
        E 0 92 4a 59
        E 0 92 56 59
        E 0 92 62 59
        E 120 82 3d 00
        E 0 82 4a 00
        E 0 82 56 00
        E 180 82 62 00
        E 180 92 49 59
        E 0 92 55 59
        E 0 92 61 59
        E 60 82 49 00
        E 0 82 55 00
        E 0 82 61 00
        E 180 92 56 59
        E 0 92 62 59
        E 60 82 56 00
        E 0 82 62 00
        E 180 92 3e 59
        E 0 92 4b 59
        E 0 92 57 59
        E 0 92 63 59
        E 60 82 3e 00
        E 0 82 4b 00
        E 0 82 57 00
        E 0 82 63 00
        E 180 92 54 59
        E 0 92 60 59
        E 60 82 54 00
        E 0 82 60 00
        E 180 92 3e 59
        E 0 92 4b 59
        E 0 92 57 59
        E 0 92 63 59
        E 60 82 3e 00
        E 0 82 4b 00
        E 0 82 57 00
        E 0 82 63 00
        E 180 92 56 59
        E 0 92 62 59
        E 1020 82 56 00
        E 0 82 62 00
        E 180 92 3e 59
        E 0 92 4b 59
        E 0 92 57 59
        E 0 92 63 59
        E 60 82 3e 00
        E 0 82 4b 00
        E 0 82 57 00
        E 0 82 63 00
        E 180 92 54 59
        E 0 92 60 59
        E 60 82 54 00
        E 0 82 60 00
        E 180 92 4a 59
        E 0 92 56 59
        E 0 92 62 59
        E 60 82 4a 00
        E 0 82 56 00
        E 0 82 62 00
        E 180 92 57 59
        E 0 92 63 59
        E 60 82 57 00
        E 0 82 63 00
        E 180 92 3d 59
        E 0 92 4a 59
        E 0 92 56 59
        E 0 92 62 59
        E 60 82 3d 00
        E 0 82 4a 00
        E 0 82 56 00
        E 0 82 62 00
        E 180 92 54 59
        E 0 92 60 59
        E 60 82 54 00
        E 0 82 60 00
        E 180 92 49 59
        E 0 92 55 59
        E 0 92 61 59
        E 60 82 49 00
        E 0 82 55 00
        E 0 82 61 00
        E 180 92 56 59
        E 0 92 62 59
        E 60 82 56 00
        E 0 82 62 00
        E 180 92 3e 59
        E 0 92 4b 59
        E 0 92 57 59
        E 0 92 63 59
        E 60 82 3e 00
        E 0 82 4b 00
        E 0 82 57 00
        E 0 82 63 00
        E 180 92 54 59
        E 0 92 60 59
        E 60 82 54 00
        E 0 82 60 00
        E 180 92 3e 59
        E 0 92 4b 59
        E 0 92 57 59
        E 0 92 63 59
        E 60 82 3e 00
        E 0 82 4b 00
        E 0 82 57 00
        E 0 82 63 00
        E 180 92 56 59
        E 0 92 62 59
        E 1020 82 56 00
        E 0 82 62 00
        E 180 92 3e 59
        E 0 92 4b 59
        E 0 92 57 59
        E 0 92 63 59
        E 60 82 3e 00
        E 0 82 4b 00
        E 0 82 57 00
        E 0 82 63 00
        E 180 92 54 59
        E 0 92 60 59
        E 60 82 54 00
        E 0 82 60 00
        E 180 92 4a 59
        E 0 92 56 59
        E 0 92 62 59
        E 60 82 4a 00
        E 0 82 56 00
        E 0 82 62 00
        E 180 92 57 59
        E 0 92 63 59
        E 60 82 57 00
        E 0 82 63 00
        E 180 92 3d 59
        E 0 92 4a 59
        E 0 92 56 59
        E 0 92 62 59
        E 60 82 3d 00
        E 0 82 4a 00
        E 0 82 56 00
        E 0 82 62 00
        E 180 92 54 59
        E 0 92 60 59
        E 60 82 54 00
        E 0 82 60 00
        E 180 92 49 59
        E 0 92 55 59
        E 0 92 61 59
        E 60 82 49 00
        E 0 82 55 00
        E 0 82 61 00
        E 180 92 56 59
        E 0 92 62 59
        E 60 82 56 00
        E 0 82 62 00
        E 180 92 3e 59
        E 0 92 4b 59
        E 0 92 57 59
        E 0 92 63 59
        E 60 82 3e 00
        E 0 82 4b 00
        E 0 82 57 00
        E 0 82 63 00
        E 180 92 54 59
        E 0 92 60 59
        E 60 82 54 00
        E 0 82 60 00
        E 180 92 3e 59
        E 0 92 4b 59
        E 0 92 57 59
        E 0 92 63 59
        E 60 82 3e 00
        E 0 82 4b 00
        E 0 82 57 00
        E 0 82 63 00
        E 180 92 56 59
        E 0 92 62 59
        E 1020 82 56 00
        E 0 82 62 00
        E 180 92 3e 59
        E 0 92 4b 59
        E 0 92 57 59
        E 0 92 63 59
        E 60 82 3e 00
        E 0 82 4b 00
        E 0 82 57 00
        E 0 82 63 00
        E 180 92 54 59
        E 0 92 60 59
        E 60 82 54 00
        E 0 82 60 00
        E 180 92 4a 59
        E 0 92 56 59
        E 0 92 62 59
        E 60 82 4a 00
        E 0 82 56 00
        E 0 82 62 00
        E 180 92 57 59
        E 0 92 63 59
        E 60 82 57 00
        E 0 82 63 00
        E 180 92 3d 59
        E 0 92 4a 59
        E 0 92 56 59
        E 0 92 62 59
        E 60 82 3d 00
        E 0 82 4a 00
        E 0 82 56 00
        E 0 82 62 00
        E 180 92 54 59
        E 0 92 60 59
        E 60 82 54 00
        E 0 82 60 00
        E 180 92 49 59
        E 0 92 55 59
        E 0 92 61 59
        E 60 82 49 00
        E 0 82 55 00
        E 0 82 61 00
        E 180 92 56 59
        E 0 92 62 59
        E 60 82 56 00
        E 0 82 62 00
        E 180 92 3e 59
        E 0 92 4b 59
        E 0 92 57 59
        E 0 92 63 59
        E 60 82 3e 00
        E 0 82 4b 00
        E 0 82 57 00
        E 0 82 63 00
        E 180 92 54 59
        E 0 92 60 59
        E 60 82 54 00
        E 0 82 60 00
        E 180 92 3e 59
        E 0 92 4b 59
        E 0 92 57 59
        E 0 92 63 59
        E 60 82 3e 00
        E 0 82 4b 00
        E 0 82 57 00
        E 0 82 63 00
        E 180 92 56 59
        E 0 92 62 59
        E 1020 82 56 00
        E 0 82 62 00
        E 180 92 3e 59
        E 0 92 4b 59
        E 0 92 57 59
        E 0 92 63 59
        E 60 82 3e 00
        E 0 82 4b 00
        E 0 82 57 00
        E 0 82 63 00
        E 180 92 54 59
        E 0 92 60 59
        E 60 82 54 00
        E 0 82 60 00
        E 180 92 4a 59
        E 0 92 56 59
        E 0 92 62 59
        E 60 82 4a 00
        E 0 82 56 00
        E 0 82 62 00
        E 180 92 57 59
        E 0 92 63 59
        E 60 82 57 00
        E 0 82 63 00
        E 180 92 3d 59
        E 0 92 4a 59
        E 0 92 56 59
        E 0 92 62 59
        E 120 82 3d 00
        E 0 82 4a 00
        E 0 82 56 00
        E 180 82 62 00
        E 180 92 49 59
        E 0 92 55 59
        E 0 92 61 59
        E 60 82 49 00
        E 0 82 55 00
        E 0 82 61 00
        E 180 92 56 59
        E 0 92 62 59
        E 60 82 56 00
        E 0 82 62 00
        E 180 92 3e 59
        E 0 92 4b 59
        E 0 92 57 59
        E 0 92 63 59
        E 60 82 3e 00
        E 0 82 4b 00
        E 0 82 57 00
        E 0 82 63 00
        E 180 92 54 59
        E 0 92 60 59
        E 60 82 54 00
        E 0 82 60 00
        E 180 92 3e 59
        E 0 92 4b 59
        E 0 92 57 59
        E 0 92 63 59
        E 60 82 3e 00
        E 0 82 4b 00
        E 0 82 57 00
        E 0 82 63 00
        E 180 92 56 59
        E 0 92 62 59
        E 1020 82 56 00
        E 0 82 62 00
        E 180 92 3e 59
        E 0 92 4b 59
        E 0 92 57 59
        E 0 92 63 59
        E 60 82 3e 00
        E 0 82 4b 00
        E 0 82 57 00
        E 0 82 63 00
        E 180 92 54 59
        E 0 92 60 59
        E 60 82 54 00
        E 0 82 60 00
        E 180 92 4a 59
        E 0 92 56 59
        E 0 92 62 59
        E 60 82 4a 00
        E 0 82 56 00
        E 0 82 62 00
        E 180 92 57 59
        E 0 92 63 59
        E 60 82 57 00
        E 0 82 63 00
        E 180 92 3d 59
        E 0 92 4a 59
        E 0 92 56 59
        E 0 92 62 59
        E 60 82 3d 00
        E 0 82 4a 00
        E 0 82 56 00
        E 0 82 62 00
        E 180 92 54 59
        E 0 92 60 59
        E 60 82 54 00
        E 0 82 60 00
        E 180 92 49 59
        E 0 92 55 59
        E 0 92 61 59
        E 60 82 49 00
        E 0 82 55 00
        E 0 82 61 00
        E 180 92 56 59
        E 0 92 62 59
        E 60 82 56 00
        E 0 82 62 00
        E 180 92 3e 59
        E 0 92 4b 59
        E 0 92 57 59
        E 0 92 63 59
        E 60 82 3e 00
        E 0 82 4b 00
        E 0 82 57 00
        E 0 82 63 00
        E 180 92 54 59
        E 0 92 60 59
        E 60 82 54 00
        E 0 82 60 00
        E 180 92 3e 59
        E 0 92 4b 59
        E 0 92 57 59
        E 0 92 63 59
        E 60 82 3e 00
        E 0 82 4b 00
        E 0 82 57 00
        E 0 82 63 00
        E 180 92 56 59
        E 0 92 62 59
        E 1020 82 56 00
        E 0 82 62 00
        <X 480 0
          /wFbaWRsZV0=
        >
        <X 14580 0
          /wFbcGxheV0=
        >
        E 480 90 3e 59
        E 0 90 4a 59
        E 0 90 4b 59
        E 0 90 56 59
        E 0 90 57 59
        E 0 90 62 59
        E 0 90 63 59
        e 0 90 74 59
        E 1440 80 3e 00
        E 0 80 4a 00
        E 0 80 4b 00
        E 300 80 56 00
        E 0 80 62 00
        E 180 90 3c 59
        E 0 90 48 59
        E 0 90 54 59
        E 0 90 60 59
        E 1440 80 3c 00
        E 0 80 48 00
        E 300 80 54 00
        E 0 80 60 00
        e 60 80 74 00
        E 120 90 3c 59
        E 0 90 49 59
        E 0 90 55 59
        E 0 90 61 59
        E 2400 80 3c 00
        E 0 80 49 00
        E 360 80 57 00
        E 0 80 63 00
        E 0 80 55 00
        E 120 90 3e 59
        E 0 90 4b 59
        E 0 90 57 59
        E 0 90 63 59
        E 480 80 3e 00
        E 0 80 4b 00
        E 300 80 61 00
        E 60 80 57 00
        E 0 80 63 00
        E 120 90 3e 59
        E 0 90 4a 59
        E 0 90 4b 59
        E 0 90 56 59
        E 0 90 57 59
        E 0 90 62 59
        E 0 90 63 59
        E 1440 80 3e 00
        E 0 80 4a 00
        E 0 80 4b 00
        E 300 80 56 00
        E 0 80 62 00
        E 180 90 3c 59
        E 0 90 48 59
        E 0 90 54 59
        E 0 90 60 59
        E 1440 80 3c 00
        E 0 80 48 00
        E 300 80 54 00
        E 0 80 60 00
        E 180 90 3c 59
        E 0 90 49 59
        E 0 90 55 59
        E 0 90 61 59
        E 2400 80 3c 00
        E 0 80 49 00
        E 359 80 57 00
        E 0 80 63 00
        E 1 80 55 00
        E 120 90 3e 59
        E 0 90 4b 59
        E 0 90 57 59
        E 0 90 63 59
        E 480 80 3e 00
        E 0 80 4b 00
        E 300 80 61 00
        E 0 80 57 00
        E 0 80 63 00
        E 180 90 3e 59
        E 0 90 4a 59
        E 0 90 4b 59
        E 0 90 56 59
        E 0 90 57 59
        E 0 90 62 59
        E 0 90 63 59
        E 1440 80 3e 00
        E 0 80 4a 00
        E 0 80 4b 00
        E 300 80 56 00
        E 0 80 62 00
        E 180 90 3c 59
        E 0 90 48 59
        E 0 90 54 59
        E 0 90 60 59
        E 1440 80 3c 00
        E 0 80 48 00
        E 292 90 74 12
        E 8 80 54 00
        E 0 80 60 00
        E 180 90 3c 59
        E 0 90 49 59
        E 0 90 55 59
        E 0 90 61 59
        E 2400 80 3c 00
        E 0 80 49 00
        E 358 80 57 00
        E 0 80 63 00
        E 2 80 55 00
        E 120 90 3e 59
        E 0 90 4b 59
        E 0 90 57 59
        E 0 90 63 59
        E 480 80 3e 00
        E 0 80 4b 00
        E 232 80 74 00
        E 68 80 61 00
        E 0 80 57 00
        E 0 80 63 00
        E 180 90 3e 59
        E 0 90 4a 59
        E 0 90 4b 59
        E 0 90 56 59
        E 0 90 57 59
        E 0 90 62 59
        E 0 90 63 59
        E 1440 80 3e 00
        E 0 80 4a 00
        E 0 80 4b 00
        E 300 80 56 00
        E 0 80 62 00
        E 180 90 3c 59
        E 0 90 48 59
        E 0 90 54 59
        E 0 90 60 59
        E 1440 80 3c 00
        E 0 80 48 00
        E 300 80 54 00
        E 0 80 60 00
        E 180 90 3c 59
        E 0 90 49 59
        E 0 90 55 59
        E 0 90 61 59
        E 2879 80 57 00
        E 0 80 63 00
        E 1 80 3c 00
        E 0 80 49 00
        E 0 80 55 00
        E 0 80 61 00
        E 240 90 55 59
        E 0 90 61 59
        E 60 80 55 00
        E 0 80 61 00
        E 180 90 4a 59
        E 0 90 56 59
        E 0 90 62 59
        E 60 80 4a 00
        E 0 80 56 00
        E 0 80 62 00
        E 180 90 57 59
        E 0 90 63 59
        E 60 80 57 00
        E 0 80 63 00
        E 180 90 3e 59
        E 0 90 4b 59
        E 0 90 57 59
        E 0 90 63 59
        E 60 80 3e 00
        E 0 80 4b 00
        E 0 80 57 00
        E 0 80 63 00
        E 180 90 56 59
        E 0 90 62 59
        E 60 80 56 00
        E 0 80 62 00
        E 180 90 49 59
        E 0 90 55 59
        E 0 90 61 59
        E 60 80 49 00
        E 0 80 55 00
        E 0 80 61 00
        E 180 90 58 59
        E 0 90 64 59
        E 120 80 58 00
        E 180 80 64 00
        E 180 90 55 59
        E 0 90 61 59
        E 60 80 55 00
        E 0 80 61 00
        E 180 90 4a 59
        E 0 90 56 59
        E 0 90 62 59
        E 60 80 4a 00
        E 0 80 56 00
        E 0 80 62 00
        E 180 90 57 59
        E 0 90 63 59
        E 60 80 57 00
        E 0 80 63 00
        E 180 90 3e 59
        E 0 90 4b 59
        E 0 90 57 59
        E 0 90 63 59
        E 960 80 3e 00
        E 0 80 4b 00
        E 60 80 57 00
        E 0 80 63 00
        E 180 90 55 59
        E 0 90 61 59
        E 60 80 55 00
        E 0 80 61 00
        E 180 90 4a 59
        E 0 90 56 59
        E 0 90 62 59
        E 60 80 4a 00
        E 0 80 56 00
        E 0 80 62 00
        E 180 90 57 59
        E 0 90 63 59
        E 60 80 57 00
        E 0 80 63 00
        E 180 90 3e 59
        E 0 90 4b 59
        E 0 90 57 59
        E 0 90 63 59
        E 60 80 3e 00
        E 0 80 4b 00
        E 0 80 57 00
        E 0 80 63 00
        E 180 90 56 59
        E 0 90 62 59
        E 60 80 56 00
        E 0 80 62 00
        E 180 90 49 59
        E 0 90 55 59
        E 0 90 61 59
        E 60 80 49 00
        E 0 80 55 00
        E 0 80 61 00
        E 180 90 58 59
        E 0 90 64 59
        E 120 80 58 00
        E 180 80 64 00
        E 180 90 55 59
        E 0 90 61 59
        E 60 80 55 00
        E 0 80 61 00
        E 180 90 3d 59
        E 0 90 4a 59
        E 0 90 56 59
        E 0 90 62 59
        E 60 80 3d 00
        E 0 80 4a 00
        E 0 80 56 00
        E 0 80 62 00
        E 180 90 57 59
        E 0 90 63 59
        E 60 80 57 00
        E 0 80 63 00
        E 180 90 3d 59
        E 0 90 4a 59
        E 0 90 56 59
        E 0 90 62 59
        E 960 80 3d 00
        E 0 80 4a 00
        E 60 80 56 00
        E 0 80 62 00
        E 180 90 55 59
        E 0 90 61 59
        E 60 80 55 00
        E 0 80 61 00
        E 180 90 4a 59
        E 0 90 56 59
        E 0 90 62 59
        E 60 80 4a 00
        E 0 80 56 00
        E 0 80 62 00
        E 180 90 57 59
        E 0 90 63 59
        E 60 80 57 00
        E 0 80 63 00
        E 180 90 3e 59
        E 0 90 4b 59
        E 0 90 57 59
        E 0 90 63 59
        E 60 80 3e 00
        E 0 80 4b 00
        E 0 80 57 00
        E 0 80 63 00
        E 180 90 56 59
        E 0 90 62 59
        E 60 80 56 00
        E 0 80 62 00
        E 180 90 49 59
        E 0 90 55 59
        E 0 90 61 59
        E 60 80 49 00
        E 0 80 55 00
        E 0 80 61 00
        E 180 90 58 59
        E 0 90 64 59
        E 120 80 58 00
        E 180 80 64 00
        E 180 90 55 59
        E 0 90 61 59
        E 60 80 55 00
        E 0 80 61 00
        E 180 90 4a 59
        E 0 90 56 59
        E 0 90 62 59
        E 60 80 4a 00
        E 0 80 56 00
        E 0 80 62 00
        E 180 90 57 59
        E 0 90 63 59
        E 60 80 57 00
        E 0 80 63 00
        E 180 90 3e 59
        E 0 90 4b 59
        E 0 90 57 59
        E 0 90 63 59
        E 960 80 3e 00
        E 0 80 4b 00
        E 60 80 57 00
        E 0 80 63 00
        E 180 90 55 59
        E 0 90 61 59
        E 60 80 55 00
        E 0 80 61 00
        E 180 90 4a 59
        E 0 90 56 59
        E 0 90 62 59
        E 60 80 4a 00
        E 0 80 56 00
        E 0 80 62 00
        E 180 90 57 59
        E 0 90 63 59
        E 60 80 57 00
        E 0 80 63 00
        E 180 90 3e 59
        E 0 90 4b 59
        E 0 90 57 59
        E 0 90 63 59
        E 60 80 3e 00
        E 0 80 4b 00
        E 0 80 57 00
        E 0 80 63 00
        E 180 90 56 59
        E 0 90 62 59
        E 60 80 56 00
        E 0 80 62 00
        E 180 90 49 59
        E 0 90 55 59
        E 0 90 61 59
        E 60 80 49 00
        E 0 80 55 00
        E 0 80 61 00
        E 180 90 58 59
        E 0 90 64 59
        E 120 80 58 00
        E 180 80 64 00
        E 180 90 55 59
        E 0 90 61 59
        E 60 80 55 00
        E 0 80 61 00
        E 180 90 3d 59
        E 0 90 4a 59
        E 0 90 56 59
        E 0 90 62 59
        E 60 80 3d 00
        E 0 80 4a 00
        E 0 80 56 00
        E 0 80 62 00
        E 180 90 57 59
        E 0 90 63 59
        E 60 80 57 00
        E 0 80 63 00
        E 180 90 3d 59
        E 0 90 4a 59
        E 0 90 56 59
        E 0 90 62 59
        E 6240 80 3d 00
        E 0 80 4a 00
        E 0 80 56 00
        E 0 80 62 00
        <X 480 0
          /wFbaWRsZV9yZWFsdGltZV0=
        >
        E 1920 b0 7b 00
        GUID {F537F270-CEBA-461E-8612-DC28913708FC}
        IGNTEMPO 0 120.00000000 4 4
        SRCCOLOR 1440
        VELLANE 132 128 60
        COLORMAP "C:\Users\wejaa\AppData\Roaming\REAPER\Data\color_maps\rockband_vox-other.png"
        TEXTSTRINGFILE "C:\Program Files\REAPER\Data\Text_Strings\Text Events List.txt"
        CFGEDITVIEW 71985.263444 49.498637 11 11 0 0 0
        CFGEDIT 1 1 0 0 0 1 1 1 1 1 1 0.12500000 -8 -8 1370 736 1 0 1 2 0.00000000 0 0 0 0 0.500000 1 0 1.000000 64
        KEYSNAP 0 0 "102034050607" 0 "Major"
        EVTFILTER 0 -1 -1 -1 -1 0 1 0 0 -1.00000000 -1.00000000
      >
    >
  >
  <TRACK '{D39F8BD7-8730-4182-94EC-51AF9F9ACC90}'
    NAME "PART REAL_KEYS_X"
    PEAKCOL 25231232
    BEAT -1
    AUTOMODE 0
    VOLPAN 1.00000000000000 0.00000000000000 -1.00000000000000 -1.00000000000000 1.00000000000000
    MUTESOLO 1 0 0
    IPHASE 0
    ISBUS 0 0
    BUSCOMP 1 0
    SHOWINMIX 1 0.666700 0.500000 1 0.500000 -1 -1 -1
    FREEMODE 0
    SEL 0
    REC 0 0 0 0 0 0 0
    TRACKHEIGHT 0 0
    INQ 0 0 0 0.5000000000 100 0 0 100
    NCHAN 2
    FX 1
    TRACKID {D39F8BD7-8730-4182-94EC-51AF9F9ACC90}
    PERF 0
    MIDIOUT -1
    <MIDINOTENAMES
      0 0 "C2-E3 Range"
      0 5 "F2-A3 Range"
      0 9 "A2-C4 Range"
      0 48 "C2 (Lowest Note)"
      0 72 "C4 (Highest Note)"
      0 115 "Solo Marker"
      0 126 "Glissando Marker"
      0 116 "Overdrive Marker"
      0 127 "Trill Marker"
      0 125 "----"
      0 114 "----"
      0 47 "----"
      0 49 "C#2"
      0 50 "D2"
      0 51 "Eb2"
      0 52 "E2"
      0 53 "F2"
      0 54 "F#2"
      0 55 "G2"
      0 56 "G#2"
      0 57 "A2"
      0 58 "Bb2"
      0 59 "B2"
      0 60 "C3"
      0 61 "C#3"
      0 62 "D3"
      0 63 "Eb3"
      0 64 "E3"
      0 65 "F3"
      0 66 "F#3"
      0 67 "G3"
      0 68 "G#3"
      0 69 "A3"
      0 70 "Bb3"
      0 71 "B3"
      0 2 "D2-F3 Range"
      0 4 "E2-G3 Range"
      0 7 "G2-B3 Range"
    >
    MAINSEND 1 0
    <FXCHAIN
      WNDRECT 0 40 655 493
      SHOW 0
      LASTSEL 1
      DOCKED 0
      BYPASS 0 0
      <JS "IX/MIDI_Tool II" ""
        0.000000 85.000000 127.000000 0.000000 0.000000 0.000000 100.000000 0.000000 0.000000 127.000000 0.000000 0.000000 1.000000 0.000000 0.000000 - - - - - - - - - - - - - - - - - - - - - - - - - - - - - - - - - - - - - - - - - - - - - - - - - 
      >
      FLOATPOS 0 0 0 0
      FXID {A891DAA7-5D8A-4720-AA8F-E43D2ABA2AE5}
      WAK 0
      BYPASS 0 0
      <VST "VSTi: ReaSynth (Cockos)" "reasynth.dll" 0 ""
        eXNlcu9e7f4AAAAAAgAAAAEAAAAAAAAAAgAAAAAAAAA4AAAAAAAAAA==
        AAAAAO++rd4N8K3eppvEOxe30TqcxKA+c2jRPgAAAADMm4A+6WeIPQ==
        AAAAAAAAAD8AAIA/6SaxPgAAAD8AAAAAAAA=
      >
      FLOATPOS 0 0 0 0
      FXID {A0CE5851-0C70-49E2-AD61-BC7B1C50A030}
      WAK 0
    >
    <ITEM
      POSITION 0.00000000000000
      SNAPOFFS 0.00000000000000
      LENGTH 144.60931900820358
      LOOP 0
      ALLTAKES 0
      SEL 0
      FADEIN 1 0.000000 0.000000 1 0
      FADEOUT 1 0.000000 0.000000 1 0
      MUTE 0
      IGUID {974100C2-06C4-4CB5-BD67-2F1BC71A1259}
      IID 15
      NAME "PART REAL_KEYS_X"
      VOLPAN 1.000000 0.000000 1.000000 -1.000000
      SOFFS 0.00000000000000 0.00000000000000
      PLAYRATE 1.00000000000000 1 0.00000000000000 -65536
      CHANMODE 0
      GUID {08703F3F-9741-46EB-9ED4-B09B2390F876}
      <SOURCE MIDI
        HASDATA 1 480 QN
        POOLEDEVTS {2530D104-11FE-45A5-AAB4-ECECEDB6FDE3}
        <X 0 0
          /wNQQVJUIFJFQUxfS0VZU19Y
        >
        <X 3840 0
          /wFbcGxheV0=
        >
        E 176641 b0 7b 00
        GUID {0E0CBFB7-4AC8-4E67-A764-85891754BB41}
        IGNTEMPO 0 120.00000000 4 4
        SRCCOLOR 1441
        VELLANE 132 128 60
        COLORMAP "C:\Program Files\REAPER\Data\color_maps\rockband_guitarbass.png"
        TEXTSTRINGFILE "C:\Program Files\REAPER\Data\Text_Strings\Text Events List.txt"
        CFGEDITVIEW -4299.275963 82.395269 48 12 0 0 0
        CFGEDIT 1 1 0 1 1 1 1 1 1 1 1 0.12500000 -8 -8 1370 736 1 0 1 2 0.00000000 0 0 0 0 0.500000 1 0 1.000000 64
        KEYSNAP 0 0 "102034050607" 0 "Major"
        EVTFILTER 0 -1 -1 -1 -1 0 1 0 0 -1.00000000 -1.00000000
      >
    >
  >
  <TRACK '{117931B6-9EA5-432A-AEED-ACF4C8876354}'
    NAME "PART REAL _KEYS_H"
    PEAKCOL 25231232
    BEAT -1
    AUTOMODE 0
    VOLPAN 1.00000843600341 0.00000000000000 -1.00000000000000 -1.00000000000000 1.00000000000000
    MUTESOLO 1 0 0
    IPHASE 0
    ISBUS 0 0
    BUSCOMP 0 0
    SHOWINMIX 1 0.666700 0.500000 1 0.500000 -1 -1 -1
    FREEMODE 0
    SEL 0
    REC 0 0 0 0 0 0 0
    TRACKHEIGHT 0 0
    INQ 0 0 0 0.5000000000 100 0 0 100
    NCHAN 2
    FX 1
    TRACKID {117931B6-9EA5-432A-AEED-ACF4C8876354}
    PERF 0
    MIDIOUT -1
    <MIDINOTENAMES
      0 0 "C2-E3 Range"
      0 5 "F2-A3 Range"
      0 9 "A2-C4 Range"
      0 48 "C2 (Lowest Note)"
      0 72 "C4 (Highest Note)"
      0 115 "Solo Marker"
      0 126 "Glissando Marker"
      0 127 "Trill Marker"
      0 125 "----"
      0 116 "Overdrive Marker"
      0 114 "----"
      0 71 "B3"
      0 70 "Bb3"
      0 69 "A3"
      0 68 "G#3"
      0 67 "G3"
      0 66 "F#3"
      0 65 "F3"
      0 64 "E3"
      0 63 "Eb3"
      0 62 "D3"
      0 61 "C#3"
      0 60 "C3"
      0 59 "B2"
      0 58 "Bb2"
      0 57 "A2"
      0 56 "G#2"
      0 55 "G2"
      0 54 "F#2"
      0 53 "F2"
      0 52 "E2"
      0 51 "Eb2"
      0 50 "D2"
      0 49 "C#2"
      0 47 "----"
      0 7 "G2-B3 Range"
      0 4 "E2-G3 Range"
      0 2 "D2-F3 Range"
    >
    MAINSEND 1 0
    <FXCHAIN
      SHOW 0
      LASTSEL 0
      DOCKED 0
      BYPASS 0 0
      <JS "IX/MIDI_Tool II" ""
        0.000000 85.000000 127.000000 0.000000 0.000000 0.000000 100.000000 0.000000 0.000000 127.000000 0.000000 0.000000 1.000000 0.000000 0.000000 - - - - - - - - - - - - - - - - - - - - - - - - - - - - - - - - - - - - - - - - - - - - - - - - - 
      >
      FLOATPOS 0 0 0 0
      FXID {5BF1E178-D070-4445-A488-4CE4E31F6508}
      WAK 0
      BYPASS 0 0
      <VST "VSTi: ReaSynth (Cockos)" "reasynth.dll" 0 ""
        eXNlcu9e7f4AAAAAAgAAAAEAAAAAAAAAAgAAAAAAAAA4AAAAAAAAAA==
        AAAAAO++rd4N8K3eppvEOxe30TqcxKA+c2jRPgAAAADMm4A+6WeIPQ==
        AAAAAAAAAD8AAIA/6SaxPgAAAD8AAAAAAAA=
      >
      FLOATPOS 0 0 0 0
      FXID {C48567E0-8372-4900-9933-4B040EA2A253}
      WAK 0
    >
    <ITEM
      POSITION 0.00000000000000
      SNAPOFFS 0.00000000000000
      LENGTH 144.60931900820358
      LOOP 0
      ALLTAKES 0
      SEL 0
      FADEIN 1 0.000000 0.000000 1 0
      FADEOUT 1 0.000000 0.000000 1 0
      MUTE 0
      IGUID {DA514BF3-AF34-46C0-BD23-58406C871A44}
      IID 16
      NAME "PART REAL _KEYS_H"
      VOLPAN 1.000000 0.000000 1.000000 -1.000000
      SOFFS 0.00000000000000 0.00000000000000
      PLAYRATE 1.00000000000000 1 0.00000000000000 -65536
      CHANMODE 0
      GUID {8E0AC36B-D538-4BB8-A507-FFF40527D1BA}
      <SOURCE MIDI
        HASDATA 1 480 QN
        POOLEDEVTS {9DB2A6FB-AE3D-4705-8634-658C4619223D}
        <X 0 0
          /wNQQVJUIFJFQUxfS0VZU19I
        >
        E 0 90 09 60
        E 480 80 09 00
        E 3360 90 39 60
        E 360 80 39 00
        E 176281 b0 7b 00
        GUID {53F487B1-1F2F-4D54-9DAE-BC2E7B032E3B}
        IGNTEMPO 0 120.00000000 4 4
        SRCCOLOR 1442
        VELLANE 132 128 60
        COLORMAP "C:\Program Files\REAPER\Data\color_maps\rockband_guitarbass.png"
        TEXTSTRINGFILE "C:\Program Files\REAPER\Data\Text_Strings\Text Events List.txt"
        CFGEDITVIEW -4299.275963 82.395269 5 14 0 0 0
        CFGEDIT 1 1 0 1 1 1 1 1 1 1 1 0.12500000 -8 -8 1374 736 1 2 1 2 0.00000000 0 0 0 0 0.500000 1 0 1.000000 64
        KEYSNAP 0 0 "102034050607" 0 "Major"
        EVTFILTER 0 -1 -1 -1 -1 0 1 0 0 -1.00000000 -1.00000000
      >
    >
  >
  <TRACK '{3B6F726E-1CAB-4A00-9B01-2E1CC375B13E}'
    NAME "PART REAL_KEYS_M"
    PEAKCOL 25231232
    BEAT -1
    AUTOMODE 0
    VOLPAN 1.00000000000000 0.00000000000000 -1.00000000000000 -1.00000000000000 1.00000000000000
    MUTESOLO 1 0 0
    IPHASE 0
    ISBUS 0 0
    BUSCOMP 0 0
    SHOWINMIX 1 0.666700 0.500000 1 0.500000 -1 -1 -1
    FREEMODE 0
    SEL 0
    REC 0 0 0 0 0 0 0
    TRACKHEIGHT 0 0
    INQ 0 0 0 0.5000000000 100 0 0 100
    NCHAN 2
    FX 1
    TRACKID {3B6F726E-1CAB-4A00-9B01-2E1CC375B13E}
    PERF 0
    MIDIOUT -1
    <MIDINOTENAMES
      0 0 "C2-E3 Range"
      0 5 "F2-A3 Range"
      0 9 "A2-C4 Range"
      0 48 "C2 (Lowest Note)"
      0 72 "C4 (Highest Note)"
      0 115 "Solo Marker"
      0 126 "Glissando Marker"
      0 127 "Trill Marker"
      0 125 "----"
      0 116 "Overdrive Marker"
      0 114 "----"
      0 71 "B3"
      0 70 "Bb3"
      0 69 "A3"
      0 68 "G#3"
      0 67 "G3"
      0 66 "F#3"
      0 65 "F3"
      0 64 "E3"
      0 63 "Eb3"
      0 62 "D3"
      0 61 "C#3"
      0 60 "C3"
      0 59 "B2"
      0 58 "Bb2"
      0 57 "A2"
      0 56 "G#2"
      0 55 "G2"
      0 54 "F#2"
      0 53 "F2"
      0 52 "E2"
      0 51 "Eb2"
      0 50 "D2"
      0 49 "C#2"
      0 47 "----"
      0 7 "G2-B3 Range"
      0 4 "E2-G3 Range"
      0 2 "D2-F3 Range"
    >
    MAINSEND 1 0
    <FXCHAIN
      SHOW 0
      LASTSEL 0
      DOCKED 0
      BYPASS 0 0
      <JS "IX/MIDI_Tool II" ""
        0.000000 85.000000 127.000000 0.000000 0.000000 0.000000 100.000000 0.000000 0.000000 127.000000 0.000000 0.000000 1.000000 0.000000 0.000000 - - - - - - - - - - - - - - - - - - - - - - - - - - - - - - - - - - - - - - - - - - - - - - - - - 
      >
      FLOATPOS 0 0 0 0
      FXID {096BA8B0-BFAB-4802-A0D3-DEA88A16B5B2}
      WAK 0
      BYPASS 0 0
      <VST "VSTi: ReaSynth (Cockos)" "reasynth.dll" 0 ""
        eXNlcu9e7f4AAAAAAgAAAAEAAAAAAAAAAgAAAAAAAAA4AAAAAAAAAA==
        AAAAAO++rd4N8K3eppvEOxe30TqcxKA+c2jRPgAAAADMm4A+6WeIPQ==
        AAAAAAAAAD8AAIA/6SaxPgAAAD8AAAAAAAA=
      >
      FLOATPOS 0 0 0 0
      FXID {A5115AF9-13EF-41D8-80FF-CB81A74D6CD4}
      WAK 0
    >
    <ITEM
      POSITION 0.00000000000000
      SNAPOFFS 0.00000000000000
      LENGTH 144.60931900820358
      LOOP 0
      ALLTAKES 0
      SEL 0
      FADEIN 1 0.000000 0.000000 1 0
      FADEOUT 1 0.000000 0.000000 1 0
      MUTE 0
      IGUID {6F5DF5D5-958D-4566-AA6E-AFD27D997F3F}
      IID 17
      NAME "PART REAL_KEYS_M"
      VOLPAN 1.000000 0.000000 1.000000 -1.000000
      SOFFS 0.00000000000000 0.00000000000000
      PLAYRATE 1.00000000000000 1 0.00000000000000 -65536
      CHANMODE 0
      GUID {14BC6779-E32B-455D-A61C-C2E68D8FE08C}
      <SOURCE MIDI
        HASDATA 1 480 QN
        POOLEDEVTS {3EC5FB6F-1CB6-47FA-B215-D650FD920909}
        <X 0 0
          /wNQQVJUIFJFQUxfS0VZU19N
        >
        e 0 90 09 60
        e 480 80 09 00
        e 3360 90 39 60
        e 360 80 39 00
        E 176281 b0 7b 00
        GUID {806139BE-556B-4882-A297-06705078FD7A}
        IGNTEMPO 0 120.00000000 4 4
        SRCCOLOR 1443
        VELLANE 132 128 60
        COLORMAP "C:\Program Files\REAPER\Data\color_maps\rockband_guitarbass.png"
        TEXTSTRINGFILE "C:\Program Files\REAPER\Data\Text_Strings\Text Events List.txt"
        CFGEDITVIEW -4299.275963 82.395269 0 17 0 0 0
        CFGEDIT 1 1 0 1 1 1 1 1 1 1 1 0.12500000 -8 -8 1374 736 1 2 1 2 0.00000000 0 0 0 0 0.500000 1 0 1.000000 64
        KEYSNAP 0 0 "102034050607" 0 "Major"
        EVTFILTER 0 -1 -1 -1 -1 0 1 0 0 -1.00000000 -1.00000000
      >
    >
  >
  <TRACK '{49B8D0E0-0069-415C-8FC3-AC29B0E2C3CF}'
    NAME "PART REAL_KEYS_E"
    PEAKCOL 25231232
    BEAT -1
    AUTOMODE 0
    VOLPAN 1.00000000000000 0.00000000000000 -1.00000000000000 -1.00000000000000 1.00000000000000
    MUTESOLO 1 0 0
    IPHASE 0
    ISBUS 0 0
    BUSCOMP 0 0
    SHOWINMIX 1 0.666700 0.500000 1 0.500000 -1 -1 -1
    FREEMODE 0
    SEL 0
    REC 0 0 0 0 0 0 0
    TRACKHEIGHT 0 0
    INQ 0 0 0 0.5000000000 100 0 0 100
    NCHAN 2
    FX 1
    TRACKID {49B8D0E0-0069-415C-8FC3-AC29B0E2C3CF}
    PERF 0
    MIDIOUT -1
    <MIDINOTENAMES
      0 0 "C2-E3 Range"
      0 5 "F2-A3 Range"
      0 9 "A2-C4 Range"
      0 48 "C2 (Lowest Note)"
      0 72 "C4 (Highest Note)"
      0 115 "Solo Marker"
      0 126 "Glissando Marker"
      0 127 "Trill Marker"
      0 125 "----"
      0 116 "Overdrive Marker"
      0 114 "----"
      0 71 "B3"
      0 70 "Bb3"
      0 69 "A3"
      0 68 "G#3"
      0 67 "G3"
      0 66 "F#3"
      0 65 "F3"
      0 64 "E3"
      0 63 "Eb3"
      0 62 "D3"
      0 61 "C#3"
      0 60 "C3"
      0 59 "B2"
      0 58 "Bb2"
      0 57 "A2"
      0 56 "G#2"
      0 55 "G2"
      0 54 "F#2"
      0 53 "F2"
      0 52 "E2"
      0 51 "Eb2"
      0 50 "D2"
      0 49 "C#2"
      0 47 "----"
      0 7 "G2-B3 Range"
      0 4 "E2-G3 Range"
      0 2 "D2-F3 Range"
    >
    MAINSEND 1 0
    <FXCHAIN
      SHOW 0
      LASTSEL 0
      DOCKED 0
      BYPASS 0 0
      <JS "IX/MIDI_Tool II" ""
        0.000000 85.000000 127.000000 0.000000 0.000000 0.000000 100.000000 0.000000 0.000000 127.000000 0.000000 0.000000 1.000000 0.000000 0.000000 - - - - - - - - - - - - - - - - - - - - - - - - - - - - - - - - - - - - - - - - - - - - - - - - - 
      >
      FLOATPOS 0 0 0 0
      FXID {71EF04AA-9A38-4C4E-8E04-9FB37BDA6361}
      WAK 0
      BYPASS 0 0
      <VST "VSTi: ReaSynth (Cockos)" "reasynth.dll" 0 ""
        eXNlcu9e7f4AAAAAAgAAAAEAAAAAAAAAAgAAAAAAAAA4AAAAAAAAAA==
        AAAAAO++rd4N8K3eppvEOxe30TqcxKA+c2jRPgAAAADMm4A+6WeIPQ==
        AAAAAAAAAD8AAIA/6SaxPgAAAD8AAAAAAAA=
      >
      FLOATPOS 0 0 0 0
      FXID {6C388847-2A2F-4264-AA7A-4C4ACA9A9672}
      WAK 0
    >
    <ITEM
      POSITION 0.00000000000000
      SNAPOFFS 0.00000000000000
      LENGTH 144.60931900820358
      LOOP 0
      ALLTAKES 0
      SEL 0
      FADEIN 1 0.000000 0.000000 1 0
      FADEOUT 1 0.000000 0.000000 1 0
      MUTE 0
      IGUID {656317AD-B690-4307-9096-C4F4536C131B}
      IID 18
      NAME "PART REAL_KEYS_E"
      VOLPAN 1.000000 0.000000 1.000000 -1.000000
      SOFFS 0.00000000000000 0.00000000000000
      PLAYRATE 1.00000000000000 1 0.00000000000000 -65536
      CHANMODE 0
      GUID {43BDFFBF-75D6-4727-BD3F-08B25C56980C}
      <SOURCE MIDI
        HASDATA 1 480 QN
        POOLEDEVTS {20B8B462-0926-46EE-9E35-7FC012DB702F}
        <X 0 0
          /wNQQVJUIFJFQUxfS0VZU19F
        >
        E 0 90 09 60
        E 480 80 09 00
        E 180001 b0 7b 00
        GUID {F9363449-15E8-4EF0-8BC0-ABEB4CDC1D98}
        IGNTEMPO 0 120.00000000 4 4
        SRCCOLOR 1444
        VELLANE 132 128 60
        COLORMAP "C:\Program Files\REAPER\Data\color_maps\rockband_guitarbass.png"
        TEXTSTRINGFILE "C:\Program Files\REAPER\Data\Text_Strings\Text Events List.txt"
        CFGEDITVIEW 1257.930012 0.103438 51 12 0 0 0
        CFGEDIT 1 1 0 0 1 1 1 1 1 1 1 0.25000000 0 0 683 728 1 0 0 2 0.12500000 0 0 0 0 0.500000 0 0 1.000000 64
        KEYSNAP 0 0 "102034050607" 0 "Major"
        EVTFILTER 0 -1 -1 -1 -1 0 1 0 0 -1.00000000 -1.00000000
      >
    >
  >
  <TRACK '{80604035-2BD9-43BB-A255-4E5F9E756779}'
    NAME "PART KEYS_ANIM_RH"
    PEAKCOL 16842624
    BEAT -1
    AUTOMODE 0
    VOLPAN 1.00000000000000 0.00000000000000 -1.00000000000000 -1.00000000000000 1.00000000000000
    MUTESOLO 1 0 0
    IPHASE 0
    ISBUS 0 0
    BUSCOMP 0 0
    SHOWINMIX 1 0.666700 0.500000 1 0.500000 -1 -1 -1
    FREEMODE 0
    SEL 0
    REC 0 0 0 0 0 0 0
    TRACKHEIGHT 0 0
    INQ 0 0 0 0.5000000000 100 0 0 100
    NCHAN 2
    FX 1
    TRACKID {80604035-2BD9-43BB-A255-4E5F9E756779}
    PERF 0
    MIDIOUT -1
    <MIDINOTENAMES
      0 48 "C2 (Lowest Note)"
      0 72 "C4 (Highest Note)"
      0 127 "Trill Marker"
      0 126 "Glissando Marker"
      0 125 "----"
      0 116 "Overdrive Marker"
      0 115 "Solo Marker"
      0 114 "----"
      0 71 "B3"
      0 70 "Bb3"
      0 69 "A3"
      0 68 "G#3"
      0 67 "G3"
      0 66 "F#3"
      0 65 "F3"
      0 64 "E3"
      0 63 "Eb3"
      0 62 "D3"
      0 61 "C#3"
      0 60 "C3"
      0 59 "B2"
      0 58 "Bb2"
      0 57 "A2"
      0 56 "G#2"
      0 55 "G2"
      0 54 "F#2"
      0 53 "F2"
      0 52 "E2"
      0 51 "Eb2"
      0 50 "D2"
      0 49 "C#2"
      0 47 "----"
      0 9 "A2-C4 Range"
      0 5 "F2-A3 Range"
      0 0 "C2-E3 Range"
      0 7 "G2-B3 Range"
      0 4 "E2-G3 Range"
      0 2 "D2-F3 Range"
    >
    MAINSEND 1 0
    <FXCHAIN
      SHOW 0
      LASTSEL 0
      DOCKED 0
    >
    <ITEM
      POSITION 0.00000000000000
      SNAPOFFS 0.00000000000000
      LENGTH 144.60931900820358
      LOOP 0
      ALLTAKES 0
      SEL 0
      FADEIN 1 0.000000 0.000000 1 0
      FADEOUT 1 0.000000 0.000000 1 0
      MUTE 0
      IGUID {6A43A4E9-6390-4FBA-9F07-B2C821A1720C}
      IID 19
      NAME "PART KEYS_ANIM_RH"
      VOLPAN 1.000000 0.000000 1.000000 -1.000000
      SOFFS 0.00000000000000 0.00000000000000
      PLAYRATE 1.00000000000000 1 0.00000000000000 -65536
      CHANMODE 0
      GUID {FA5AE238-E1D7-41F5-A663-4C49E4376041}
      <SOURCE MIDI
        HASDATA 1 480 QN
        POOLEDEVTS {403F7F1F-50DE-4CD6-8831-648B984BDDEB}
        <X 0 0
          /wNQQVJUIEtFWVNfQU5JTV9SSA==
        >
        E 180481 b0 7b 00
        GUID {268DE88D-9169-44F5-97A1-ABDA1E2CF031}
        IGNTEMPO 0 120.00000000 4 4
        SRCCOLOR 1445
        VELLANE 132 128 60
        COLORMAP "C:\Program Files\REAPER\Data\color_maps\rockband_guitarbass.png"
        TEXTSTRINGFILE "C:\Program Files\REAPER\Data\Text_Strings\Text Events List.txt"
        CFGEDITVIEW 2612.554938 0.179136 51 12 0 0 0
        CFGEDIT 1 1 0 0 1 1 1 1 1 1 1 0.25000000 0 0 683 728 1 0 0 2 0.00000000 0 0 0 0 0.500000 0 0 1.000000 64
        KEYSNAP 0 0 "102034050607" 0 "Major"
        EVTFILTER 0 -1 -1 -1 -1 0 1 0 0 -1.00000000 -1.00000000
      >
    >
  >
  <TRACK '{F014911F-41F0-491C-9A25-C3D2A462D8D7}'
    NAME "PART KEYS_ANIM_LH"
    PEAKCOL 16842624
    BEAT -1
    AUTOMODE 0
    VOLPAN 1.00000000000000 0.00000000000000 -1.00000000000000 -1.00000000000000 1.00000000000000
    MUTESOLO 1 0 0
    IPHASE 0
    ISBUS 2 -1
    BUSCOMP 0 0
    SHOWINMIX 1 0.666700 0.500000 1 0.500000 -1 -1 -1
    FREEMODE 0
    SEL 0
    REC 0 0 0 0 0 0 0
    TRACKHEIGHT 0 0
    INQ 0 0 0 0.5000000000 100 0 0 100
    NCHAN 2
    FX 1
    TRACKID {F014911F-41F0-491C-9A25-C3D2A462D8D7}
    PERF 0
    MIDIOUT -1
    <MIDINOTENAMES
      0 48 "C2 (Lowest Note)"
      0 72 "C4 (Highest Note)"
      0 127 "Trill Marker"
      0 126 "Glissando Marker"
      0 125 "----"
      0 116 "Overdrive Marker"
      0 115 "Solo Marker"
      0 114 "----"
      0 71 "B3"
      0 70 "Bb3"
      0 69 "A3"
      0 68 "G#3"
      0 67 "G3"
      0 66 "F#3"
      0 65 "F3"
      0 64 "E3"
      0 63 "Eb3"
      0 62 "D3"
      0 61 "C#3"
      0 60 "C3"
      0 59 "B2"
      0 58 "Bb2"
      0 57 "A2"
      0 56 "G#2"
      0 55 "G2"
      0 54 "F#2"
      0 53 "F2"
      0 52 "E2"
      0 51 "Eb2"
      0 50 "D2"
      0 49 "C#2"
      0 47 "----"
      0 9 "A2-C4 Range"
      0 5 "F2-A3 Range"
      0 0 "C2-E3 Range"
      0 7 "G2-B3 Range"
      0 4 "E2-G3 Range"
      0 2 "D2-F3 Range"
    >
    MAINSEND 1 0
    <FXCHAIN
      SHOW 0
      LASTSEL 0
      DOCKED 0
    >
    <ITEM
      POSITION 0.00000000000000
      SNAPOFFS 0.00000000000000
      LENGTH 144.60931900820358
      LOOP 0
      ALLTAKES 0
      SEL 0
      FADEIN 1 0.000000 0.000000 1 0
      FADEOUT 1 0.000000 0.000000 1 0
      MUTE 0
      IGUID {F0F97A68-91AD-4B41-8D32-822B6159FDBC}
      IID 20
      NAME "PART KEYS_ANIM_LH"
      VOLPAN 1.000000 0.000000 1.000000 -1.000000
      SOFFS 0.00000000000000 0.00000000000000
      PLAYRATE 1.00000000000000 1 0.00000000000000 -65536
      CHANMODE 0
      GUID {214023C3-6BA4-450F-A73F-59780553B94C}
      <SOURCE MIDI
        HASDATA 1 480 QN
        POOLEDEVTS {58129BD0-9A48-4DB5-BABD-2AE9F734EF84}
        <X 0 0
          /wNQQVJUIEtFWVNfQU5JTV9MSA==
        >
        E 180481 b0 7b 00
        GUID {9527D45A-14D5-4C89-A39E-3528B0F29941}
        IGNTEMPO 0 120.00000000 4 4
        SRCCOLOR 1446
        VELLANE 132 128 60
        COLORMAP "C:\Program Files\REAPER\Data\color_maps\rockband_guitarbass.png"
        TEXTSTRINGFILE "C:\Program Files\REAPER\Data\Text_Strings\Text Events List.txt"
        CFGEDITVIEW -4299.275963 82.395269 11 17 0 0 0
        CFGEDIT 1 1 0 1 1 1 1 1 1 1 1 0.12500000 -8 -8 1374 736 1 2 1 2 0.00000000 0 0 0 0 0.500000 1 0 1.000000 64
        KEYSNAP 0 0 "102034050607" 0 "Major"
        EVTFILTER 0 -1 -1 -1 -1 0 1 0 0 -1.00000000 -1.00000000
      >
    >
  >
  <TRACK '{4BCC1CF3-63A3-43C4-A155-D3593AD88A10}'
    NAME "EVENTS"
    PEAKCOL 29393024
    BEAT -1
    AUTOMODE 0
    VOLPAN 1.00000000000000 0.00000000000000 -1.00000000000000 -1.00000000000000 1.00000000000000
    MUTESOLO 0 0 0
    IPHASE 0
    ISBUS 0 0
    BUSCOMP 0 0
    SHOWINMIX 1 0.666700 0.500000 1 0.500000 -1 -1 -1
    FREEMODE 0
    SEL 0
    REC 0 0 0 0 0 0 0
    TRACKHEIGHT 0 0
    INQ 0 0 0 0.5000000000 100 0 0 100
    NCHAN 2
    FX 1
    TRACKID {4BCC1CF3-63A3-43C4-A155-D3593AD88A10}
    PERF 0
    MIDIOUT -1
    MAINSEND 1 0
    <FXCHAIN
      SHOW 0
      LASTSEL 0
      DOCKED 0
    >
    <ITEM
      POSITION 0.00000000000000
      SNAPOFFS 0.00000000000000
      LENGTH 256.16382087400871
      LOOP 0
      ALLTAKES 0
      SEL 0
      FADEIN 1 0.000000 0.000000 1 0
      FADEOUT 1 0.000000 0.000000 1 0
      MUTE 0
      IGUID {86A06D27-867C-4398-9CE6-8F0526B3B594}
      IID 21
      NAME "EVENTS"
      VOLPAN 1.000000 0.000000 1.000000 -1.000000
      SOFFS 0.00000000000000 0.00000000000000
      PLAYRATE 1.00000000000000 1 0.00000000000000 -65536
      CHANMODE 0
      GUID {584C8192-4FF3-4E29-8138-2E6BD568B61A}
      <SOURCE MIDI
        HASDATA 1 480 QN
        POOLEDEVTS {EAB525E5-2505-4447-ADC9-E584E7A7A3A7}
        <X 0 0
          /wNFVkVOVFM=
        >
        <X 0 0
          /wFbY3Jvd2Rfbm9ybWFsXQ==
        >
        <X 0 0
          /wFbcHJjX2ludHJvX2Fd
        >
        <X 13440 0
          /wFbcHJjX2ludHJvX2Jd
        >
        <X 0 0
          /wFbbXVzaWNfc3RhcnRd
        >
        <X 15360 0
          /wFbcHJjX21haW5fcmlmZl8xXQ==
        >
        <X 15360 0
          /wFbcHJjX3ZlcnNlXzFhXQ==
        >
        <X 15360 0
          /wFbcHJjX3ZlcnNlXzFiXQ==
        >
        <X 15360 0
          /wFbcHJjX3ZlcnNlXzFjXQ==
        >
        <X 15360 0
          /wFbcHJjX3ZlcnNlXzFkXQ==
        >
        <X 14880 0
          /wFbcHJjX2Nob3J1c18xYV0=
        >
        <X 15600 0
          /wFbcHJjX2Nob3J1c18xYl0=
        >
        <X 16080 0
          /wFbcHJjX21haW5fcmlmZl8yXQ==
        >
        <X 7200 0
          /wFbcHJjX3ZlcnNlXzJhXQ==
        >
        <X 15360 0
          /wFbcHJjX3ZlcnNlXzJiXQ==
        >
        <X 14880 0
          /wFbcHJjX2Nob3J1c18yYV0=
        >
        <X 15600 0
          /wFbcHJjX2Nob3J1c18yYl0=
        >
        <X 16080 0
          /wFbcHJjX2ludGVybHVkZV0=
        >
        <X 60480 0
          /wFbcHJjX2Nob3J1c18zYV0=
        >
        <X 15600 0
          /wFbcHJjX2Nob3J1c18zYl0=
        >
        <X 16080 0
          /wFbcHJjX291dHJvXQ==
        >
        <X 17760 0
          /wFbbXVzaWNfZW5kXQ==
        >
        <X 3360 0
          /wFbZW5kXQ==
        >
        E 480 b0 7b 00
        GUID {40AD7956-A22A-434A-8513-4D3792B9DF69}
        IGNTEMPO 0 120.00000000 4 4
        SRCCOLOR 1447
        VELLANE 132 100 100
        COLORMAP "M:\RGS Documents\ColorMaps\rockband_vox-other.png"
        TEXTSTRINGFILE "C:\Program Files\REAPER (x64)\REAPER\Data\Text_Strings\Text Events List - Events.txt"
        CFGEDITVIEW -44507.809821 6.365085 6 48 0 0 0
        CFGEDIT 1 1 0 0 0 1 1 1 1 1 1 0.25000000 44 63 1223 847 1 2 1 2 0.00000000 0 0 0 0 0.500000 1 0 1.000000 64
        KEYSNAP 0 0 "102034050607" 0 "Major"
        EVTFILTER 0 -1 -1 -1 -1 0 1 0 0 -1.00000000 -1.00000000
      >
    >
  >
  <TRACK '{1529008F-97D2-43EB-8634-7C5A7418AD90}'
    NAME "VENUE"
    PEAKCOL 16842496
    BEAT -1
    AUTOMODE 0
    VOLPAN 1.00000000000000 0.00000000000000 -1.00000000000000 -1.00000000000000 1.00000000000000
    MUTESOLO 0 0 0
    IPHASE 0
    ISBUS 0 0
    BUSCOMP 0 0
    SHOWINMIX 1 0.666700 0.500000 1 0.500000 -1 -1 -1
    FREEMODE 0
    SEL 0
    REC 0 0 0 0 0 0 0
    TRACKHEIGHT 0 0
    INQ 0 0 0 0.5000000000 100 0 0 100
    NCHAN 2
    FX 1
    TRACKID {1529008F-97D2-43EB-8634-7C5A7418AD90}
    PERF 0
    MIDIOUT -1
    <MIDINOTENAMES
      0 87 "Guitarist Sing Along"
      0 86 "Drummer Sing Along"
      0 85 "Bassist Sing Along"
      0 40 "Spotlight on Vocals"
      0 39 "Spotlight on Guitar"
      0 38 "Spotlight on Drums"
      0 37 "Spotlight on Bass"
      0 41 "Spotlight on Keys"
    >
    MAINSEND 1 0
    <FXCHAIN
      SHOW 0
      LASTSEL 0
      DOCKED 0
    >
    <ITEM
      POSITION 0.00000000000000
      SNAPOFFS 0.00000000000000
      LENGTH 256.16382087400871
      LOOP 0
      ALLTAKES 0
      SEL 0
      FADEIN 1 0.000000 0.000000 1 0
      FADEOUT 1 0.000000 0.000000 1 0
      MUTE 0
      IGUID {71027329-E0AB-447D-A192-4839733334E7}
      IID 22
      NAME "VENUE"
      VOLPAN 1.000000 0.000000 1.000000 -1.000000
      SOFFS 0.00000000000000 0.00000000000000
      PLAYRATE 1.00000000000000 1 0.00000000000000 -65536
      CHANMODE 0
      GUID {44F0FFD1-5109-4A47-8BED-262AA04D3B23}
      <SOURCE MIDI
        HASDATA 1 480 QN
        POOLEDEVTS {0ABD65AF-DE57-4694-AF12-C5EA7DC0E306}
        <X 0 0
          /wNWRU5VRQ==
        >
        <X 0 0
          /wFbbGlnaHRpbmcgKGludHJvKV0=
        >
        <X 0 0
          /wFbUHJvRmlsbV9hLnBwXQ==
        >
        <X 0 0
          /wFbY29vcF9hbGxfZmFyXQ==
        >
        <X 0 0
          /wFbY29vcF9mcm9udF9uZWFyXQ==
        >
        <X 1920 0
          /wFbY29vcF9iZ19uZWFyXQ==
        >
        <X 3810 0
          /wFbY29vcF9kX25lYXJd
        >
        <X 1950 0
          /wFbY29vcF9mcm9udF9uZWFyXQ==
        >
        <X 3825 0
          /wFbbGlnaHRpbmcgKGludHJvKV0=
        >
        <X 0 0
          /wFbY29vcF9hbGxfbmVhcl0=
        >
        <X 1920 0
          /wFbbGlnaHRpbmcgKGhhcm1vbnkpXQ==
        >
        <X 1 0
          /wFbUHJvRmlsbV9hLnBwXQ==
        >
        <X 464 0
          /wFbY29vcF9iZ19uZWFyXQ==
        >
        <X 3870 0
          /wFbY29vcF9kX25lYXJd
        >
        <X 1905 0
          /wFbY29vcF9kX25lYXJd
        >
        <X 1905 0
          /wFbY29vcF9iZ19uZWFyXQ==
        >
        <X 2400 0
          /wFbY29vcF9iX25lYXJd
        >
        <X 1950 0
          /wFbY29vcF9rX25lYXJd
        >
        <X 1905 0
          /wFbbGlnaHRpbmcgKGhhcm1vbnkpXQ==
        >
        <X 960 0
          /wFbbGlnaHRpbmcgKGNob3J1cyld
        >
        <X 1 0
          /wFbUHJvRmlsbV9hLnBwXQ==
        >
        <X 14 0
          /wFbbmV4dF0=
        >
        <X 945 0
          /wFbY29vcF9ia19uZWFyXQ==
        >
        <X 15 0
          /wFbbmV4dF0=
        >
        <X 960 0
          /wFbbmV4dF0=
        >
        <X 960 0
          /wFbbmV4dF0=
        >
        <X 960 0
          /wFbbmV4dF0=
        >
        <X 930 0
          /wFbY29vcF9na19iZWhpbmRd
        >
        <X 30 0
          /wFbbmV4dF0=
        >
        <X 960 0
          /wFbbmV4dF0=
        >
        <X 960 0
          /wFbbmV4dF0=
        >
        <X 465 0
          /wFbY29vcF9kX2JlaGluZF0=
        >
        <X 495 0
          /wFbbmV4dF0=
        >
        <X 960 0
          /wFbbmV4dF0=
        >
        <X 480 0
          /wFbY29vcF9ia19uZWFyXQ==
        >
        <X 480 0
          /wFbbmV4dF0=
        >
        <X 960 0
          /wFbbmV4dF0=
        >
        <X 960 0
          /wFbbmV4dF0=
        >
        <X 930 0
          /wFbY29vcF9na19uZWFyXQ==
        >
        <X 30 0
          /wFbbmV4dF0=
        >
        <X 960 0
          /wFbbmV4dF0=
        >
        <X 945 0
          /wFbbGlnaHRpbmcgKGNob3J1cyld
        >
        <X 15 0
          /wFbbmV4dF0=
        >
        <X 465 0
          /wFbY29vcF9rdl9uZWFyXQ==
        >
        <X 480 0
          /wFbbGlnaHRpbmcgKHZlcnNlKV0=
        >
        <X 1 0
          /wFbUHJvRmlsbV9hLnBwXQ==
        >
        <X 14 0
          /wFbbmV4dF0=
        >
        <X 1410 0
          /wFbY29vcF92X25lYXJd
        >
        <X 510 0
          /wFbbmV4dF0=
        >
        <X 465 0
          /wFbY29vcF92X25lYXJd
        >
        <X 1440 0
          /wFbY29vcF9mcm9udF9uZWFyXQ==
        >
        <X 15 0
          /wFbbmV4dF0=
        >
        <X 1425 0
          /wFbY29vcF92X25lYXJd
        >
        <X 495 0
          /wFbbmV4dF0=
        >
        <X 1920 0
          /wFbbmV4dF0=
        >
        <X 450 0
          /wFbY29vcF9kX25lYXJd
        >
        <X 960 0
          /wFbY29vcF92X25lYXJd
        >
        <X 510 0
          /wFbbmV4dF0=
        >
        <X 450 0
          /wFbY29vcF9hbGxfZmFyXQ==
        >
        <X 1470 0
          /wFbbmV4dF0=
        >
        <X 1425 0
          /wFbY29vcF92X25lYXJd
        >
        <X 495 0
          /wFbbmV4dF0=
        >
        <X 480 0
          /wFbY29vcF9nX25lYXJd
        >
        <X 1440 0
          /wFbbmV4dF0=
        >
        <X 450 0
          /wFbY29vcF92X25lYXJd
        >
        <X 975 0
          /wFbY29vcF92X2Nsb3NldXBd
        >
        <X 495 0
          /wFbbmV4dF0=
        >
        <X 960 0
          /wFbY29vcF9iX2JlaGluZF0=
        >
        <X 960 0
          /wFbbmV4dF0=
        >
        <X 465 0
          /wFbY29vcF9kX25lYXJd
        >
        <X 960 0
          /wFbY29vcF92X25lYXJd
        >
        <X 495 0
          /wFbbmV4dF0=
        >
        <X 1920 0
          /wFbbmV4dF0=
        >
        <X 465 0
          /wFbY29vcF9ndl9uZWFyXQ==
        >
        <X 945 0
          /wFbY29vcF9ndl9uZWFyXQ==
        >
        <X 510 0
          /wFbbmV4dF0=
        >
        <X 1905 0
          /wFbY29vcF9idl9uZWFyXQ==
        >
        <X 15 0
          /wFbbmV4dF0=
        >
        <X 1905 0
          /wFbY29vcF9iX2JlaGluZF0=
        >
        <X 15 0
          /wFbbmV4dF0=
        >
        <X 1905 0
          /wFbY29vcF9nX25lYXJd
        >
        <X 15 0
          /wFbbmV4dF0=
        >
        <X 1440 0
          /wFbY29vcF92X2Nsb3NldXBd
        >
        <X 480 0
          /wFbbmV4dF0=
        >
        <X 1920 0
          /wFbbmV4dF0=
        >
        <X 1425 0
          /wFbY29vcF9hbGxfZmFyXQ==
        >
        <X 495 0
          /wFbbmV4dF0=
        >
        <X 465 0
          /wFbY29vcF9nX25lYXJd
        >
        <X 960 0
          /wFbY29vcF9mcm9udF9iZWhpbmRd
        >
        <X 495 0
          /wFbbmV4dF0=
        >
        <X 1440 0
          /wFbY29vcF92X2Nsb3NldXBd
        >
        <X 480 0
          /wFbbmV4dF0=
        >
        <X 945 0
          /wFbY29vcF9ndl9uZWFyXQ==
        >
        <X 975 0
          /wFbbmV4dF0=
        >
        <X 945 0
          /wFbY29vcF9idl9uZWFyXQ==
        >
        <X 975 0
          /wFbbmV4dF0=
        >
        <X 930 0
          /wFbY29vcF9mcm9udF9uZWFyXQ==
        >
        <X 990 0
          /wFbbmV4dF0=
        >
        <X 1410 0
          /wFbY29vcF9ndl9uZWFyXQ==
        >
        <X 510 0
          /wFbbmV4dF0=
        >
        <X 1920 0
          /wFbbmV4dF0=
        >
        <X 0 0
          /wFbY29vcF9ndl9uZWFyXQ==
        >
        <X 1425 0
          /wFbY29vcF92X25lYXJd
        >
        <X 495 0
          /wFbbmV4dF0=
        >
        <X 945 0
          /wFbY29vcF9iX25lYXJd
        >
        <X 975 0
          /wFbbmV4dF0=
        >
        <X 1410 0
          /wFbY29vcF92X25lYXJd
        >
        <X 510 0
          /wFbbmV4dF0=
        >
        <X 960 0
          /wFbY29vcF9hbGxfZmFyXQ==
        >
        <X 960 0
          /wFbbmV4dF0=
        >
        <X 945 0
          /wFbY29vcF9mcm9udF9uZWFyXQ==
        >
        <X 975 0
          /wFbbmV4dF0=
        >
        <X 960 0
          /wFbY29vcF9rX25lYXJd
        >
        <X 465 0
          /wFbbGlnaHRpbmcgKG1hbnVhbF93YXJtKV0=
        >
        <X 1 0
          /wFbUHJvRmlsbV9hLnBwXQ==
        >
        <X 14 0
          /wFbbmV4dF0=
        >
        e 0 90 55 60
        e 0 90 57 60
        <X 480 0
          /wFbY29vcF92X2Nsb3NldXBd
        >
        <X 480 0
          /wFbbmV4dF0=
        >
        <X 960 0
          /wFbbmV4dF0=
        >
        <X 960 0
          /wFbbmV4dF0=
        >
        <X 450 0
          /wFbY29vcF9rdl9uZWFyXQ==
        >
        <X 510 0
          /wFbbmV4dF0=
        >
        <X 465 0
          /wFbY29vcF9idl9uZWFyXQ==
        >
        <X 495 0
          /wFbbmV4dF0=
        >
        <X 465 0
          /wFbY29vcF9hbGxfYmVoaW5kXQ==
        >
        <X 495 0
          /wFbbmV4dF0=
        >
        <X 960 0
          /wFbbmV4dF0=
        >
        <X 960 0
          /wFbbmV4dF0=
        >
        <X 465 0
          /wFbY29vcF9hbGxfZmFyXQ==
        >
        <X 495 0
          /wFbbmV4dF0=
        >
        <X 960 0
          /wFbbmV4dF0=
        >
        <X 960 0
          /wFbbmV4dF0=
        >
        <X 450 0
          /wFbY29vcF9hbGxfbmVhcl0=
        >
        <X 510 0
          /wFbbmV4dF0=
        >
        <X 480 0
          /wFbY29vcF9idl9uZWFyXQ==
        >
        <X 480 0
          /wFbbmV4dF0=
        >
        <X 960 0
          /wFbbmV4dF0=
        >
        <X 960 0
          /wFbbmV4dF0=
        >
        <X 450 0
          /wFbY29vcF9iX25lYXJd
        >
        <X 510 0
          /wFbbmV4dF0=
        >
        <X 480 0
          /wFbY29vcF9ndl9iZWhpbmRd
        >
        <X 480 0
          /wFbbmV4dF0=
        >
        <X 960 0
          /wFbbmV4dF0=
        >
        <X 960 0
          /wFbbmV4dF0=
        >
        <X 480 0
          /wFbY29vcF9mcm9udF9uZWFyXQ==
        >
        <X 480 0
          /wFbbmV4dF0=
        >
        <X 465 0
          /wFbY29vcF92X25lYXJd
        >
        <X 495 0
          /wFbbmV4dF0=
        >
        <X 960 0
          /wFbbmV4dF0=
        >
        <X 450 0
          /wFbY29vcF9rdl9uZWFyXQ==
        >
        <X 510 0
          /wFbbmV4dF0=
        >
        <X 960 0
          /wFbbmV4dF0=
        >
        <X 480 0
          /wFbY29vcF9ndl9uZWFyXQ==
        >
        <X 480 0
          /wFbbmV4dF0=
        >
        <X 930 0
          /wFbY29vcF9hbGxfYmVoaW5kXQ==
        >
        <X 30 0
          /wFbbmV4dF0=
        >
        <X 960 0
          /wFbbmV4dF0=
        >
        <X 960 0
          /wFbbmV4dF0=
        >
        <X 450 0
          /wFbY29vcF9mcm9udF9uZWFyXQ==
        >
        <X 510 0
          /wFbbmV4dF0=
        >
        <X 960 0
          /wFbbmV4dF0=
        >
        <X 960 0
          /wFbbmV4dF0=
        >
        <X 0 0
          /wFbY29vcF92X25lYXJd
        >
        <X 945 0
          /wFbbGlnaHRpbmcgKG1hbnVhbF93YXJtKV0=
        >
        <X 15 0
          /wFbbmV4dF0=
        >
        <X 945 0
          /wFbbGlnaHRpbmcgKGNob3J1cyld
        >
        <X 1 0
          /wFbUHJvRmlsbV9hLnBwXQ==
        >
        <X 14 0
          /wFbbmV4dF0=
        >
        e 0 80 55 00
        e 0 80 57 00
        <X 480 0
          /wFbY29vcF9ia19uZWFyXQ==
        >
        <X 480 0
          /wFbbmV4dF0=
        >
        <X 960 0
          /wFbbmV4dF0=
        >
        <X 465 0
          /wFbY29vcF9iZ19iZWhpbmRd
        >
        <X 495 0
          /wFbbmV4dF0=
        >
        <X 960 0
          /wFbbmV4dF0=
        >
        <X 960 0
          /wFbbmV4dF0=
        >
        <X 960 0
          /wFbbmV4dF0=
        >
        <X 465 0
          /wFbbGlnaHRpbmcgKGNob3J1cyld
        >
        <X 0 0
          /wFbY29vcF9nX25lYXJd
        >
        <X 495 0
          /wFbbmV4dF0=
        >
        <X 465 0
          /wFbbGlnaHRpbmcgKHZlcnNlKV0=
        >
        <X 1 0
          /wFbUHJvRmlsbV9hLnBwXQ==
        >
        <X 14 0
          /wFbbmV4dF0=
        >
        <X 0 0
          /wFbY29vcF9mcm9udF9uZWFyXQ==
        >
        <X 960 0
          /wFbY29vcF92X2Nsb3NldXBd
        >
        <X 960 0
          /wFbbmV4dF0=
        >
        <X 480 0
          /wFbY29vcF9idl9uZWFyXQ==
        >
        <X 1440 0
          /wFbbmV4dF0=
        >
        <X 945 0
          /wFbY29vcF92X25lYXJd
        >
        <X 975 0
          /wFbbmV4dF0=
        >
        <X 450 0
          /wFbY29vcF92X2JlaGluZF0=
        >
        <X 1470 0
          /wFbbmV4dF0=
        >
        <X 1410 0
          /wFbY29vcF9idl9uZWFyXQ==
        >
        <X 510 0
          /wFbbmV4dF0=
        >
        <X 960 0
          /wFbY29vcF92X25lYXJd
        >
        <X 960 0
          /wFbbmV4dF0=
        >
        <X 1920 0
          /wFbbmV4dF0=
        >
        <X 930 0
          /wFbY29vcF9rX25lYXJd
        >
        <X 990 0
          /wFbbmV4dF0=
        >
        <X 450 0
          /wFbY29vcF9hbGxfbmVhcl0=
        >
        <X 960 0
          /wFbY29vcF92X25lYXJd
        >
        <X 510 0
          /wFbbmV4dF0=
        >
        <X 450 0
          /wFbY29vcF9hbGxfbmVhcl0=
        >
        <X 1470 0
          /wFbbmV4dF0=
        >
        <X 465 0
          /wFbY29vcF9nX25lYXJd
        >
        <X 975 0
          /wFbY29vcF92X2Nsb3NldXBd
        >
        <X 480 0
          /wFbbmV4dF0=
        >
        <X 480 0
          /wFbY29vcF9hbGxfZmFyXQ==
        >
        <X 1440 0
          /wFbbmV4dF0=
        >
        <X 1425 0
          /wFbY29vcF92X2Nsb3NldXBd
        >
        <X 495 0
          /wFbbmV4dF0=
        >
        <X 1920 0
          /wFbbmV4dF0=
        >
        <X 1425 0
          /wFbY29vcF92X25lYXJd
        >
        <X 495 0
          /wFbbmV4dF0=
        >
        <X 930 0
          /wFbY29vcF9kX2JlaGluZF0=
        >
        <X 495 0
          /wFbbGlnaHRpbmcgKG1hbnVhbF93YXJtKV0=
        >
        <X 1 0
          /wFbUHJvRmlsbV9hLnBwXQ==
        >
        <X 14 0
          /wFbbmV4dF0=
        >
        e 240 90 55 60
        e 1 90 57 60
        <X 224 0
          /wFbY29vcF9mcm9udF9uZWFyXQ==
        >
        <X 495 0
          /wFbbmV4dF0=
        >
        <X 465 0
          /wFbY29vcF92X2JlaGluZF0=
        >
        <X 495 0
          /wFbbmV4dF0=
        >
        <X 960 0
          /wFbbmV4dF0=
        >
        <X 480 0
          /wFbY29vcF9iX25lYXJd
        >
        <X 480 0
          /wFbbmV4dF0=
        >
        <X 450 0
          /wFbY29vcF92X25lYXJd
        >
        <X 510 0
          /wFbbmV4dF0=
        >
        <X 960 0
          /wFbbmV4dF0=
        >
        <X 930 0
          /wFbY29vcF9mcm9udF9uZWFyXQ==
        >
        <X 30 0
          /wFbbmV4dF0=
        >
        <X 960 0
          /wFbbmV4dF0=
        >
        <X 480 0
          /wFbY29vcF92X2Nsb3NldXBd
        >
        <X 480 0
          /wFbbmV4dF0=
        >
        <X 480 0
          /wFbY29vcF9ndl9uZWFyXQ==
        >
        <X 480 0
          /wFbbmV4dF0=
        >
        <X 960 0
          /wFbbmV4dF0=
        >
        <X 960 0
          /wFbbmV4dF0=
        >
        <X 465 0
          /wFbY29vcF92X25lYXJd
        >
        <X 495 0
          /wFbbmV4dF0=
        >
        <X 465 0
          /wFbY29vcF9ndl9uZWFyXQ==
        >
        <X 495 0
          /wFbbmV4dF0=
        >
        <X 945 0
          /wFbY29vcF9rdl9uZWFyXQ==
        >
        <X 15 0
          /wFbbmV4dF0=
        >
        <X 960 0
          /wFbbmV4dF0=
        >
        <X 465 0
          /wFbY29vcF92X25lYXJd
        >
        <X 495 0
          /wFbbmV4dF0=
        >
        <X 465 0
          /wFbY29vcF9hbGxfZmFyXQ==
        >
        <X 495 0
          /wFbbmV4dF0=
        >
        <X 960 0
          /wFbbmV4dF0=
        >
        <X 450 0
          /wFbY29vcF9hbGxfYmVoaW5kXQ==
        >
        <X 510 0
          /wFbbmV4dF0=
        >
        <X 450 0
          /wFbY29vcF92X25lYXJd
        >
        <X 510 0
          /wFbbmV4dF0=
        >
        <X 960 0
          /wFbbmV4dF0=
        >
        <X 960 0
          /wFbbmV4dF0=
        >
        <X 480 0
          /wFbY29vcF9mcm9udF9uZWFyXQ==
        >
        <X 480 0
          /wFbbmV4dF0=
        >
        <X 465 0
          /wFbY29vcF9ndl9uZWFyXQ==
        >
        <X 495 0
          /wFbbmV4dF0=
        >
        <X 960 0
          /wFbbmV4dF0=
        >
        <X 960 0
          /wFbbmV4dF0=
        >
        <X 465 0
          /wFbY29vcF9rX25lYXJd
        >
        <X 495 0
          /wFbbmV4dF0=
        >
        <X 450 0
          /wFbY29vcF92X25lYXJd
        >
        <X 510 0
          /wFbbmV4dF0=
        >
        <X 960 0
          /wFbbmV4dF0=
        >
        <X 0 0
          /wFbY29vcF92X2JlaGluZF0=
        >
        <X 960 0
          /wFbbmV4dF0=
        >
        <X 480 0
          /wFbY29vcF92X25lYXJd
        >
        <X 465 0
          /wFbbGlnaHRpbmcgKG1hbnVhbF93YXJtKV0=
        >
        <X 15 0
          /wFbbmV4dF0=
        >
        <X 945 0
          /wFbbGlnaHRpbmcgKHN3ZWVwKV0=
        >
        <X 1 0
          /wFbUHJvRmlsbV9hLnBwXQ==
        >
        e 255 80 55 00
        e 0 80 57 00
        <X 2159 0
          /wFbY29vcF9na19uZWFyXQ==
        >
        <X 960 0
          /wFbY29vcF9ia19uZWFyXQ==
        >
        <X 1410 0
          /wFbY29vcF9ia19uZWFyXQ==
        >
        <X 1935 0
          /wFbY29vcF9iX25lYXJd
        >
        <X 1935 0
          /wFbY29vcF9rX25lYXJd
        >
        <X 3360 0
          /wFbY29vcF9rX2JlaGluZF0=
        >
        <X 1920 0
          /wFbY29vcF9mcm9udF9uZWFyXQ==
        >
        e 480 90 55 60
        e 1 90 57 60
        <X 479 0
          /wFbY29vcF92X25lYXJd
        >
        <X 4770 0
          /wFbY29vcF9mcm9udF9uZWFyXQ==
        >
        <X 990 0
          /wFbY29vcF9hbGxfbmVhcl0=
        >
        <X 930 0
          /wFbY29vcF9mcm9udF9uZWFyXQ==
        >
        <X 1440 0
          /wFbY29vcF9idl9uZWFyXQ==
        >
        <X 2430 0
          /wFbY29vcF92X25lYXJd
        >
        <X 3345 0
          /wFbY29vcF92X25lYXJd
        >
        <X 1440 0
          /wFbY29vcF92X2Nsb3NldXBd
        >
        <X 975 0
          /wFbY29vcF9mcm9udF9iZWhpbmRd
        >
        <X 3810 0
          /wFbY29vcF9rX25lYXJd
        >
        <X 1920 0
          /wFbY29vcF92X25lYXJd
        >
        <X 990 0
          /wFbY29vcF9kX25lYXJd
        >
        <X 3810 0
          /wFbY29vcF9kX25lYXJd
        >
        <X 1935 0
          /wFbY29vcF92X25lYXJd
        >
        e 2416 80 55 00
        e 0 80 57 00
        <X 944 0
          /wFbY29vcF9nX25lYXJd
        >
        <X 1920 0
          /wFbY29vcF9hbGxfbmVhcl0=
        >
        <X 1905 0
          /wFbY29vcF9nX2JlaGluZF0=
        >
        <X 3855 0
          /wFbY29vcF9iX25lYXJd
        >
        <X 3825 0
          /wFbY29vcF9nX25lYXJd
        >
        <X 960 0
          /wFbY29vcF9ia19uZWFyXQ==
        >
        <X 975 0
          /wFbbGlnaHRpbmcgKG1hbnVhbF93YXJtKV0=
        >
        <X 1 0
          /wFbUHJvRmlsbV9hLnBwXQ==
        >
        <X 14 0
          /wFbbmV4dF0=
        >
        e 0 90 55 60
        e 1 90 57 60
        <X 464 0
          /wFbY29vcF92X25lYXJd
        >
        <X 495 0
          /wFbbmV4dF0=
        >
        <X 960 0
          /wFbbmV4dF0=
        >
        <X 960 0
          /wFbbmV4dF0=
        >
        <X 0 0
          /wFbY29vcF9idl9uZWFyXQ==
        >
        <X 960 0
          /wFbbmV4dF0=
        >
        <X 465 0
          /wFbY29vcF92X25lYXJd
        >
        <X 495 0
          /wFbbmV4dF0=
        >
        <X 480 0
          /wFbY29vcF9iX2JlaGluZF0=
        >
        <X 480 0
          /wFbbmV4dF0=
        >
        <X 960 0
          /wFbbmV4dF0=
        >
        <X 960 0
          /wFbbmV4dF0=
        >
        <X 465 0
          /wFbY29vcF92X2Nsb3NldXBd
        >
        <X 495 0
          /wFbbmV4dF0=
        >
        <X 960 0
          /wFbbmV4dF0=
        >
        <X 960 0
          /wFbbmV4dF0=
        >
        <X 0 0
          /wFbY29vcF9kX25lYXJd
        >
        <X 960 0
          /wFbbmV4dF0=
        >
        <X 480 0
          /wFbY29vcF9hbGxfbmVhcl0=
        >
        <X 480 0
          /wFbbmV4dF0=
        >
        <X 960 0
          /wFbbmV4dF0=
        >
        <X 945 0
          /wFbY29vcF92X2JlaGluZF0=
        >
        <X 15 0
          /wFbbmV4dF0=
        >
        <X 960 0
          /wFbbmV4dF0=
        >
        <X 465 0
          /wFbY29vcF92X2Nsb3NldXBd
        >
        <X 495 0
          /wFbbmV4dF0=
        >
        <X 930 0
          /wFbY29vcF92X25lYXJd
        >
        <X 30 0
          /wFbbmV4dF0=
        >
        <X 945 0
          /wFbY29vcF9mcm9udF9iZWhpbmRd
        >
        <X 15 0
          /wFbbmV4dF0=
        >
        <X 960 0
          /wFbbmV4dF0=
        >
        <X 465 0
          /wFbY29vcF92X2Nsb3NldXBd
        >
        <X 495 0
          /wFbbmV4dF0=
        >
        <X 480 0
          /wFbY29vcF9rX25lYXJd
        >
        <X 480 0
          /wFbbmV4dF0=
        >
        <X 960 0
          /wFbbmV4dF0=
        >
        <X 450 0
          /wFbY29vcF9kX25lYXJd
        >
        <X 510 0
          /wFbbmV4dF0=
        >
        <X 480 0
          /wFbY29vcF9mcm9udF9iZWhpbmRd
        >
        <X 480 0
          /wFbbmV4dF0=
        >
        <X 960 0
          /wFbbmV4dF0=
        >
        <X 960 0
          /wFbbmV4dF0=
        >
        <X 465 0
          /wFbY29vcF9nX25lYXJd
        >
        <X 495 0
          /wFbbmV4dF0=
        >
        <X 480 0
          /wFbY29vcF92X25lYXJd
        >
        <X 480 0
          /wFbbmV4dF0=
        >
        <X 960 0
          /wFbbmV4dF0=
        >
        <X 930 0
          /wFbY29vcF9kX25lYXJd
        >
        <X 30 0
          /wFbbmV4dF0=
        >
        <X 945 0
          /wFbbGlnaHRpbmcgKG1hbnVhbF93YXJtKV0=
        >
        <X 15 0
          /wFbbmV4dF0=
        >
        <X 945 0
          /wFbbGlnaHRpbmcgKG1hbnVhbF93YXJtKV0=
        >
        <X 1 0
          /wFbUHJvRmlsbV9hLnBwXQ==
        >
        <X 14 0
          /wFbbmV4dF0=
        >
        e 1 80 55 00
        e 0 80 57 00
        <X 959 0
          /wFbbmV4dF0=
        >
        <X 450 0
          /wFbY29vcF9iZ19uZWFyXQ==
        >
        <X 510 0
          /wFbbmV4dF0=
        >
        <X 930 0
          /wFbY29vcF9rX25lYXJd
        >
        <X 30 0
          /wFbbmV4dF0=
        >
        <X 960 0
          /wFbbmV4dF0=
        >
        <X 450 0
          /wFbY29vcF9iZ19uZWFyXQ==
        >
        <X 510 0
          /wFbbmV4dF0=
        >
        <X 480 0
          /wFbY29vcF92X2Nsb3NldXBd
        >
        <X 480 0
          /wFbbmV4dF0=
        >
        <X 960 0
          /wFbbmV4dF0=
        >
        <X 960 0
          /wFbbmV4dF0=
        >
        <X 480 0
          /wFbY29vcF9mcm9udF9iZWhpbmRd
        >
        <X 480 0
          /wFbbmV4dF0=
        >
        <X 960 0
          /wFbbmV4dF0=
        >
        <X 960 0
          /wFbbmV4dF0=
        >
        <X 960 0
          /wFbbmV4dF0=
        >
        <X 480 0
          /wFbY29vcF9rX25lYXJd
        >
        <X 480 0
          /wFbbmV4dF0=
        >
        <X 480 0
          /wFbY29vcF92X25lYXJd
        >
        <X 480 0
          /wFbbmV4dF0=
        >
        <X 960 0
          /wFbbmV4dF0=
        >
        <X 960 0
          /wFbbmV4dF0=
        >
        <X 450 0
          /wFbY29vcF9nX25lYXJd
        >
        <X 510 0
          /wFbbmV4dF0=
        >
        <X 960 0
          /wFbbmV4dF0=
        >
        <X 480 0
          /wFbbGlnaHRpbmcgKHNpbGhvdWV0dGVzKV0=
        >
        <X 0 0
          /wFbUHJvRmlsbV9hLnBwXQ==
        >
        <X 1890 0
          /wFbY29vcF92X2JlaGluZF0=
        >
        <X 1469 0
          /wFbUHJvRmlsbV9hLnBwXQ==
        >
        E 481 b0 7b 00
        GUID {30097062-47C5-4B33-B665-170EF09D70D9}
        IGNTEMPO 0 120.00000000 4 4
        SRCCOLOR 1448
        VELLANE 132 230 230
        COLORMAP "M:\RGS Documents\ColorMaps\rockband_vox-other.png"
        TEXTSTRINGFILE "Text Events List.txt"
        CFGEDITVIEW 84882.961176 138.034532 29 12 0 0 0
        CFGEDIT 1 1 0 0 1 1 1 1 1 1 1 0.25000000 133 19 1300 803 1 0 1 2 0.00000000 0 0 0 0 0.500000 1 0 1.000000 64
        KEYSNAP 0 0 "102034050607" 0 "Major"
        EVTFILTER 0 -1 -1 -1 -1 0 1 0 0 -1.00000000 -1.00000000
      >
    >
  >
  <TRACK '{7BC63EFC-0ABC-4D0D-8204-E9893AE9FFFA}'
    NAME "BEAT"
    PEAKCOL 23514346
    BEAT -1
    AUTOMODE 0
    VOLPAN 1.00000000000000 0.00000000000000 -1.00000000000000 -1.00000000000000 1.00000000000000
    MUTESOLO 0 0 0
    IPHASE 0
    ISBUS 0 0
    BUSCOMP 1 0
    SHOWINMIX 1 0.666700 0.500000 1 0.500000 -1 -1 -1
    FREEMODE 0
    SEL 0
    REC 0 0 0 0 0 0 0
    TRACKHEIGHT 0 0
    INQ 0 0 0 0.5000000000 100 0 0 100
    NCHAN 2
    FX 1
    TRACKID {7BC63EFC-0ABC-4D0D-8204-E9893AE9FFFA}
    PERF 0
    MIDIOUT -1
    <MIDINOTENAMES
      0 12 "Downbeat"
      0 13 "Up Beats"
    >
    MAINSEND 1 0
    <FXCHAIN
      SHOW 0
      LASTSEL 0
      DOCKED 0
    >
    <ITEM
      POSITION 0.00000000000000
      SNAPOFFS 0.00000000000000
      LENGTH 256.16382087400871
      LOOP 0
      ALLTAKES 0
      SEL 0
      FADEIN 1 0.000000 0.000000 1 0
      FADEOUT 1 0.000000 0.000000 1 0
      MUTE 0
      IGUID {9960CDFD-BF2E-4E67-97CD-4F13D0A3F2ED}
      IID 23
      NAME "BEAT"
      VOLPAN 1.000000 0.000000 1.000000 -1.000000
      SOFFS 0.00000000000000 0.00000000000000
      PLAYRATE 1.00000000000000 1 0.00000000000000 -65536
      CHANMODE 0
      GUID {CEBFDCF1-B2BD-47E1-A085-C26E1C9E9ED2}
      <SOURCE MIDI
        HASDATA 1 480 QN
        POOLEDEVTS {55D4D56A-D30D-4DF9-8FE9-D582E1304C3B}
        <X 0 0
          /wNCRUFU
        >
        e 0 96 0c 64
        e 120 86 0c 00
        e 360 96 0d 64
        e 120 86 0d 00
        e 360 96 0d 64
        e 120 86 0d 00
        e 360 96 0d 64
        e 120 86 0d 00
        e 360 96 0c 64
        e 120 86 0c 00
        e 360 96 0d 64
        e 120 86 0d 00
        e 360 96 0d 64
        e 120 86 0d 00
        e 360 96 0d 64
        e 120 86 0d 00
        e 360 96 0c 64
        e 120 86 0c 00
        e 360 96 0d 64
        e 120 86 0d 00
        e 360 96 0d 64
        e 120 86 0d 00
        e 360 96 0d 64
        e 120 86 0d 00
        e 360 96 0c 64
        e 120 86 0c 00
        e 360 96 0d 64
        e 120 86 0d 00
        e 360 96 0d 64
        e 120 86 0d 00
        e 360 96 0d 64
        e 120 86 0d 00
        e 360 96 0c 64
        e 120 86 0c 00
        e 360 96 0d 64
        e 120 86 0d 00
        e 360 96 0d 64
        e 120 86 0d 00
        e 360 96 0d 64
        e 120 86 0d 00
        e 360 96 0c 64
        e 120 86 0c 00
        e 360 96 0d 64
        e 120 86 0d 00
        e 360 96 0d 64
        e 120 86 0d 00
        e 360 96 0d 64
        e 120 86 0d 00
        e 360 96 0c 64
        e 120 86 0c 00
        e 360 96 0d 64
        e 120 86 0d 00
        e 360 96 0d 64
        e 120 86 0d 00
        e 360 96 0d 64
        e 120 86 0d 00
        e 360 96 0c 64
        e 120 86 0c 00
        e 360 96 0d 64
        e 120 86 0d 00
        e 360 96 0d 64
        e 120 86 0d 00
        e 360 96 0d 64
        e 120 86 0d 00
        e 360 96 0c 64
        e 120 86 0c 00
        e 360 96 0d 64
        e 120 86 0d 00
        e 360 96 0d 64
        e 120 86 0d 00
        e 360 96 0d 64
        e 120 86 0d 00
        e 360 96 0c 64
        e 120 86 0c 00
        e 360 96 0d 64
        e 120 86 0d 00
        e 360 96 0d 64
        e 120 86 0d 00
        e 360 96 0d 64
        e 120 86 0d 00
        e 360 96 0c 64
        e 120 86 0c 00
        e 360 96 0d 64
        e 120 86 0d 00
        e 360 96 0d 64
        e 120 86 0d 00
        e 360 96 0d 64
        e 120 86 0d 00
        e 360 96 0c 64
        e 120 86 0c 00
        e 360 96 0d 64
        e 120 86 0d 00
        e 360 96 0d 64
        e 120 86 0d 00
        e 360 96 0d 64
        e 120 86 0d 00
        e 360 96 0c 64
        e 120 86 0c 00
        e 360 96 0d 64
        e 120 86 0d 00
        e 360 96 0d 64
        e 120 86 0d 00
        e 360 96 0d 64
        e 120 86 0d 00
        e 360 96 0c 64
        e 120 86 0c 00
        e 360 96 0d 64
        e 120 86 0d 00
        e 360 96 0d 64
        e 120 86 0d 00
        e 360 96 0d 64
        e 120 86 0d 00
        e 360 96 0c 64
        e 120 86 0c 00
        e 360 96 0d 64
        e 120 86 0d 00
        e 360 96 0d 64
        e 120 86 0d 00
        e 360 96 0d 64
        e 120 86 0d 00
        e 360 96 0c 64
        e 120 86 0c 00
        e 360 96 0d 64
        e 120 86 0d 00
        e 360 96 0d 64
        e 120 86 0d 00
        e 360 96 0d 64
        e 120 86 0d 00
        e 360 96 0c 64
        e 120 86 0c 00
        e 360 96 0d 64
        e 120 86 0d 00
        e 360 96 0d 64
        e 120 86 0d 00
        e 360 96 0d 64
        e 120 86 0d 00
        e 360 96 0c 64
        e 120 86 0c 00
        e 360 96 0d 64
        e 120 86 0d 00
        e 360 96 0d 64
        e 120 86 0d 00
        e 360 96 0d 64
        e 120 86 0d 00
        e 360 96 0c 64
        e 120 86 0c 00
        e 360 96 0d 64
        e 120 86 0d 00
        e 360 96 0d 64
        e 120 86 0d 00
        e 360 96 0d 64
        e 120 86 0d 00
        e 360 96 0c 64
        e 120 86 0c 00
        e 360 96 0d 64
        e 120 86 0d 00
        e 360 96 0d 64
        e 120 86 0d 00
        e 360 96 0d 64
        e 120 86 0d 00
        e 360 96 0c 64
        e 120 86 0c 00
        e 360 96 0d 64
        e 120 86 0d 00
        e 360 96 0d 64
        e 120 86 0d 00
        e 360 96 0d 64
        e 120 86 0d 00
        e 360 96 0c 64
        e 120 86 0c 00
        e 360 96 0d 64
        e 120 86 0d 00
        e 360 96 0d 64
        e 120 86 0d 00
        e 360 96 0d 64
        e 120 86 0d 00
        e 360 96 0c 64
        e 120 86 0c 00
        e 360 96 0d 64
        e 120 86 0d 00
        e 360 96 0d 64
        e 120 86 0d 00
        e 360 96 0d 64
        e 120 86 0d 00
        e 360 96 0c 64
        e 120 86 0c 00
        e 360 96 0d 64
        e 120 86 0d 00
        e 360 96 0d 64
        e 120 86 0d 00
        e 360 96 0d 64
        e 120 86 0d 00
        e 360 96 0c 64
        e 120 86 0c 00
        e 360 96 0d 64
        e 120 86 0d 00
        e 360 96 0d 64
        e 120 86 0d 00
        e 360 96 0d 64
        e 120 86 0d 00
        e 360 96 0c 64
        e 120 86 0c 00
        e 360 96 0d 64
        e 120 86 0d 00
        e 360 96 0d 64
        e 120 86 0d 00
        e 360 96 0d 64
        e 120 86 0d 00
        e 360 96 0c 64
        e 120 86 0c 00
        e 360 96 0d 64
        e 120 86 0d 00
        e 360 96 0d 64
        e 120 86 0d 00
        e 360 96 0d 64
        e 120 86 0d 00
        e 360 96 0c 64
        e 120 86 0c 00
        e 360 96 0d 64
        e 120 86 0d 00
        e 360 96 0d 64
        e 120 86 0d 00
        e 360 96 0d 64
        e 120 86 0d 00
        e 360 96 0c 64
        e 120 86 0c 00
        e 360 96 0d 64
        e 120 86 0d 00
        e 360 96 0d 64
        e 120 86 0d 00
        e 360 96 0d 64
        e 120 86 0d 00
        e 360 96 0c 64
        e 120 86 0c 00
        e 360 96 0d 64
        e 120 86 0d 00
        e 360 96 0d 64
        e 120 86 0d 00
        e 360 96 0d 64
        e 120 86 0d 00
        e 360 96 0c 64
        e 120 86 0c 00
        e 360 96 0d 64
        e 120 86 0d 00
        e 360 96 0d 64
        e 120 86 0d 00
        e 360 96 0d 64
        e 120 86 0d 00
        e 360 96 0c 64
        e 120 86 0c 00
        e 360 96 0d 64
        e 120 86 0d 00
        e 360 96 0d 64
        e 120 86 0d 00
        e 360 96 0d 64
        e 120 86 0d 00
        e 360 96 0c 64
        e 120 86 0c 00
        e 360 96 0d 64
        e 120 86 0d 00
        e 360 96 0d 64
        e 120 86 0d 00
        e 360 96 0d 64
        e 120 86 0d 00
        e 360 96 0c 64
        e 120 86 0c 00
        e 360 96 0d 64
        e 120 86 0d 00
        e 360 96 0d 64
        e 120 86 0d 00
        e 360 96 0d 64
        e 120 86 0d 00
        e 360 96 0c 64
        e 120 86 0c 00
        e 360 96 0d 64
        e 120 86 0d 00
        e 360 96 0d 64
        e 120 86 0d 00
        e 360 96 0d 64
        e 120 86 0d 00
        e 360 96 0c 64
        e 120 86 0c 00
        e 360 96 0d 64
        e 120 86 0d 00
        e 360 96 0d 64
        e 120 86 0d 00
        e 360 96 0d 64
        e 120 86 0d 00
        e 360 96 0c 64
        e 120 86 0c 00
        e 360 96 0d 64
        e 120 86 0d 00
        e 360 96 0d 64
        e 120 86 0d 00
        e 360 96 0d 64
        e 120 86 0d 00
        e 360 96 0c 64
        e 120 86 0c 00
        e 360 96 0d 64
        e 120 86 0d 00
        e 360 96 0d 64
        e 120 86 0d 00
        e 360 96 0d 64
        e 120 86 0d 00
        e 360 96 0c 64
        e 120 86 0c 00
        e 360 96 0d 64
        e 120 86 0d 00
        e 360 96 0d 64
        e 120 86 0d 00
        e 360 96 0d 64
        e 120 86 0d 00
        e 360 96 0c 64
        e 120 86 0c 00
        e 360 96 0d 64
        e 120 86 0d 00
        e 360 96 0d 64
        e 120 86 0d 00
        e 360 96 0d 64
        e 120 86 0d 00
        e 360 96 0c 64
        e 120 86 0c 00
        e 360 96 0d 64
        e 120 86 0d 00
        e 360 96 0d 64
        e 120 86 0d 00
        e 360 96 0d 64
        e 120 86 0d 00
        e 360 96 0c 64
        e 120 86 0c 00
        e 360 96 0d 64
        e 120 86 0d 00
        e 360 96 0d 64
        e 120 86 0d 00
        e 360 96 0d 64
        e 120 86 0d 00
        e 360 96 0c 64
        e 120 86 0c 00
        e 360 96 0d 64
        e 120 86 0d 00
        e 360 96 0d 64
        e 120 86 0d 00
        e 360 96 0d 64
        e 120 86 0d 00
        e 360 96 0c 64
        e 120 86 0c 00
        e 360 96 0d 64
        e 120 86 0d 00
        e 360 96 0d 64
        e 120 86 0d 00
        e 360 96 0d 64
        e 120 86 0d 00
        e 360 96 0c 64
        e 120 86 0c 00
        e 360 96 0d 64
        e 120 86 0d 00
        e 360 96 0d 64
        e 120 86 0d 00
        e 360 96 0d 64
        e 120 86 0d 00
        e 360 96 0c 64
        e 120 86 0c 00
        e 360 96 0d 64
        e 120 86 0d 00
        e 360 96 0d 64
        e 120 86 0d 00
        e 360 96 0d 64
        e 120 86 0d 00
        e 360 96 0c 64
        e 120 86 0c 00
        e 360 96 0d 64
        e 120 86 0d 00
        e 360 96 0d 64
        e 120 86 0d 00
        e 360 96 0d 64
        e 120 86 0d 00
        e 360 96 0c 64
        e 120 86 0c 00
        e 360 96 0d 64
        e 120 86 0d 00
        e 360 96 0d 64
        e 120 86 0d 00
        e 360 96 0d 64
        e 120 86 0d 00
        e 360 96 0c 64
        e 120 86 0c 00
        e 360 96 0d 64
        e 120 86 0d 00
        e 360 96 0d 64
        e 120 86 0d 00
        e 360 96 0d 64
        e 120 86 0d 00
        e 360 96 0c 64
        e 120 86 0c 00
        e 360 96 0d 64
        e 120 86 0d 00
        e 360 96 0d 64
        e 120 86 0d 00
        e 360 96 0d 64
        e 120 86 0d 00
        e 360 96 0c 64
        e 120 86 0c 00
        e 360 96 0d 64
        e 120 86 0d 00
        e 360 96 0d 64
        e 120 86 0d 00
        e 360 96 0d 64
        e 120 86 0d 00
        e 360 96 0c 64
        e 120 86 0c 00
        e 360 96 0d 64
        e 120 86 0d 00
        e 360 96 0d 64
        e 120 86 0d 00
        e 360 96 0d 64
        e 120 86 0d 00
        e 360 96 0c 64
        e 120 86 0c 00
        e 360 96 0d 64
        e 120 86 0d 00
        e 360 96 0d 64
        e 120 86 0d 00
        e 360 96 0d 64
        e 120 86 0d 00
        e 360 96 0c 64
        e 120 86 0c 00
        e 360 96 0d 64
        e 120 86 0d 00
        e 360 96 0d 64
        e 120 86 0d 00
        e 360 96 0d 64
        e 120 86 0d 00
        e 360 96 0c 64
        e 120 86 0c 00
        e 360 96 0d 64
        e 120 86 0d 00
        e 360 96 0d 64
        e 120 86 0d 00
        e 360 96 0d 64
        e 120 86 0d 00
        e 360 96 0c 64
        e 120 86 0c 00
        e 360 96 0d 64
        e 120 86 0d 00
        e 360 96 0d 64
        e 120 86 0d 00
        e 360 96 0d 64
        e 120 86 0d 00
        e 360 96 0c 64
        e 120 86 0c 00
        e 360 96 0d 64
        e 120 86 0d 00
        e 360 96 0d 64
        e 120 86 0d 00
        e 360 96 0d 64
        e 120 86 0d 00
        e 360 96 0c 64
        e 120 86 0c 00
        e 360 96 0d 64
        e 120 86 0d 00
        e 360 96 0d 64
        e 120 86 0d 00
        e 360 96 0d 64
        e 120 86 0d 00
        e 360 96 0c 64
        e 120 86 0c 00
        e 360 96 0d 64
        e 120 86 0d 00
        e 360 96 0d 64
        e 120 86 0d 00
        e 360 96 0d 64
        e 120 86 0d 00
        e 360 96 0c 64
        e 120 86 0c 00
        e 360 96 0d 64
        e 120 86 0d 00
        e 360 96 0d 64
        e 120 86 0d 00
        e 360 96 0d 64
        e 120 86 0d 00
        e 360 96 0c 64
        e 120 86 0c 00
        e 360 96 0d 64
        e 120 86 0d 00
        e 360 96 0d 64
        e 120 86 0d 00
        e 360 96 0d 64
        e 120 86 0d 00
        e 360 96 0c 64
        e 120 86 0c 00
        e 360 96 0d 64
        e 120 86 0d 00
        e 360 96 0d 64
        e 120 86 0d 00
        e 360 96 0d 64
        e 120 86 0d 00
        e 360 96 0c 64
        e 120 86 0c 00
        e 360 96 0d 64
        e 120 86 0d 00
        e 360 96 0d 64
        e 120 86 0d 00
        e 360 96 0d 64
        e 120 86 0d 00
        e 360 96 0c 64
        e 120 86 0c 00
        e 360 96 0d 64
        e 120 86 0d 00
        e 360 96 0d 64
        e 120 86 0d 00
        e 360 96 0d 64
        e 120 86 0d 00
        e 360 96 0c 64
        e 120 86 0c 00
        e 360 96 0d 64
        e 120 86 0d 00
        e 360 96 0d 64
        e 120 86 0d 00
        e 360 96 0d 64
        e 120 86 0d 00
        e 360 96 0c 64
        e 120 86 0c 00
        e 360 96 0d 64
        e 120 86 0d 00
        e 360 96 0d 64
        e 120 86 0d 00
        e 360 96 0d 64
        e 120 86 0d 00
        e 360 96 0c 64
        e 120 86 0c 00
        e 360 96 0d 64
        e 120 86 0d 00
        e 360 96 0d 64
        e 120 86 0d 00
        e 360 96 0d 64
        e 120 86 0d 00
        e 360 96 0c 64
        e 120 86 0c 00
        e 360 96 0d 64
        e 120 86 0d 00
        e 360 96 0d 64
        e 120 86 0d 00
        e 360 96 0d 64
        e 120 86 0d 00
        e 360 96 0c 64
        e 120 86 0c 00
        e 360 96 0d 64
        e 120 86 0d 00
        e 360 96 0d 64
        e 120 86 0d 00
        e 360 96 0d 64
        e 120 86 0d 00
        e 360 96 0c 64
        e 120 86 0c 00
        e 360 96 0d 64
        e 120 86 0d 00
        e 360 96 0d 64
        e 120 86 0d 00
        e 360 96 0d 64
        e 120 86 0d 00
        e 360 96 0c 64
        e 120 86 0c 00
        e 360 96 0d 64
        e 120 86 0d 00
        e 360 96 0d 64
        e 120 86 0d 00
        e 360 96 0d 64
        e 120 86 0d 00
        e 360 96 0c 64
        e 120 86 0c 00
        e 360 96 0d 64
        e 120 86 0d 00
        e 360 96 0d 64
        e 120 86 0d 00
        e 360 96 0d 64
        e 120 86 0d 00
        e 360 96 0c 64
        e 120 86 0c 00
        e 360 96 0d 64
        e 120 86 0d 00
        e 360 96 0d 64
        e 120 86 0d 00
        e 360 96 0d 64
        e 120 86 0d 00
        e 360 96 0c 64
        e 120 86 0c 00
        e 360 96 0d 64
        e 120 86 0d 00
        e 360 96 0d 64
        e 120 86 0d 00
        e 360 96 0d 64
        e 120 86 0d 00
        e 360 96 0c 64
        e 120 86 0c 00
        e 360 96 0d 64
        e 120 86 0d 00
        e 360 96 0d 64
        e 120 86 0d 00
        e 360 96 0d 64
        e 120 86 0d 00
        e 360 96 0c 64
        e 120 86 0c 00
        e 360 96 0d 64
        e 120 86 0d 00
        e 360 96 0d 64
        e 120 86 0d 00
        e 360 96 0d 64
        e 120 86 0d 00
        e 360 96 0c 64
        e 120 86 0c 00
        e 360 96 0d 64
        e 120 86 0d 00
        e 360 96 0d 64
        e 120 86 0d 00
        e 360 96 0d 64
        e 120 86 0d 00
        e 360 96 0c 64
        e 120 86 0c 00
        e 360 96 0d 64
        e 120 86 0d 00
        e 360 96 0d 64
        e 120 86 0d 00
        e 360 96 0d 64
        e 120 86 0d 00
        e 360 96 0c 64
        e 120 86 0c 00
        e 360 96 0d 64
        e 120 86 0d 00
        e 360 96 0d 64
        e 120 86 0d 00
        e 360 96 0d 64
        e 120 86 0d 00
        e 360 96 0c 64
        e 120 86 0c 00
        e 360 96 0d 64
        e 120 86 0d 00
        e 360 96 0d 64
        e 120 86 0d 00
        e 360 96 0d 64
        e 120 86 0d 00
        e 360 96 0c 64
        e 120 86 0c 00
        e 360 96 0d 64
        e 120 86 0d 00
        e 360 96 0d 64
        e 120 86 0d 00
        e 360 96 0d 64
        e 120 86 0d 00
        e 360 96 0c 64
        e 120 86 0c 00
        e 360 96 0d 64
        e 120 86 0d 00
        e 360 96 0d 64
        e 120 86 0d 00
        e 360 96 0d 64
        e 120 86 0d 00
        e 360 96 0c 64
        e 120 86 0c 00
        e 360 96 0d 64
        e 120 86 0d 00
        e 360 96 0d 64
        e 120 86 0d 00
        e 360 96 0d 64
        e 120 86 0d 00
        e 360 96 0c 64
        e 120 86 0c 00
        e 360 96 0d 64
        e 120 86 0d 00
        e 360 96 0d 64
        e 120 86 0d 00
        e 360 96 0d 64
        e 120 86 0d 00
        e 360 96 0c 64
        e 120 86 0c 00
        e 360 96 0d 64
        e 120 86 0d 00
        e 360 96 0d 64
        e 120 86 0d 00
        e 360 96 0d 64
        e 120 86 0d 00
        e 360 96 0c 64
        e 120 86 0c 00
        e 360 96 0d 64
        e 120 86 0d 00
        e 360 96 0d 64
        e 120 86 0d 00
        e 360 96 0d 64
        e 120 86 0d 00
        e 360 96 0c 64
        e 120 86 0c 00
        e 360 96 0d 64
        e 120 86 0d 00
        e 360 96 0d 64
        e 120 86 0d 00
        e 360 96 0d 64
        e 120 86 0d 00
        e 360 96 0c 64
        e 120 86 0c 00
        e 360 96 0d 64
        e 120 86 0d 00
        e 360 96 0d 64
        e 120 86 0d 00
        e 360 96 0d 64
        e 120 86 0d 00
        e 360 96 0c 64
        e 120 86 0c 00
        e 360 96 0d 64
        e 120 86 0d 00
        e 360 96 0d 64
        e 120 86 0d 00
        e 360 96 0d 64
        e 120 86 0d 00
        e 360 96 0c 64
        e 120 86 0c 00
        e 360 96 0d 64
        e 120 86 0d 00
        e 360 96 0d 64
        e 120 86 0d 00
        e 360 96 0d 64
        e 120 86 0d 00
        e 360 96 0c 64
        e 120 86 0c 00
        e 360 96 0d 64
        e 120 86 0d 00
        e 360 96 0d 64
        e 120 86 0d 00
        e 360 96 0d 64
        e 120 86 0d 00
        e 360 96 0c 64
        e 120 86 0c 00
        e 360 96 0d 64
        e 120 86 0d 00
        e 360 96 0d 64
        e 120 86 0d 00
        e 360 96 0d 64
        e 120 86 0d 00
        e 360 96 0c 64
        e 120 86 0c 00
        e 360 96 0d 64
        e 120 86 0d 00
        e 360 96 0d 64
        e 120 86 0d 00
        e 360 96 0d 64
        e 120 86 0d 00
        e 360 96 0c 64
        e 120 86 0c 00
        e 360 96 0d 64
        e 120 86 0d 00
        e 360 96 0d 64
        e 120 86 0d 00
        e 360 96 0d 64
        e 120 86 0d 00
        e 360 96 0c 64
        e 120 86 0c 00
        e 360 96 0d 64
        e 120 86 0d 00
        e 360 96 0d 64
        e 120 86 0d 00
        e 360 96 0d 64
        e 120 86 0d 00
        e 360 96 0c 64
        e 120 86 0c 00
        e 360 96 0d 64
        e 120 86 0d 00
        e 360 96 0d 64
        e 120 86 0d 00
        e 360 96 0d 64
        e 120 86 0d 00
        e 360 96 0c 64
        e 120 86 0c 00
        e 360 96 0d 64
        e 120 86 0d 00
        e 360 96 0d 64
        e 120 86 0d 00
        e 360 96 0d 64
        e 120 86 0d 00
        e 360 96 0c 64
        e 120 86 0c 00
        e 360 96 0d 64
        e 120 86 0d 00
        e 360 96 0d 64
        e 120 86 0d 00
        e 360 96 0d 64
        e 120 86 0d 00
        e 360 96 0c 64
        e 120 86 0c 00
        e 360 96 0d 64
        e 120 86 0d 00
        e 360 96 0d 64
        e 120 86 0d 00
        e 360 96 0d 64
        e 120 86 0d 00
        e 360 96 0c 64
        e 120 86 0c 00
        e 360 96 0d 64
        e 120 86 0d 00
        e 360 96 0d 64
        e 120 86 0d 00
        e 360 96 0d 64
        e 120 86 0d 00
        e 360 96 0c 64
        e 120 86 0c 00
        e 360 96 0d 64
        e 120 86 0d 00
        e 360 96 0d 64
        e 120 86 0d 00
        e 360 96 0d 64
        e 120 86 0d 00
        e 360 96 0c 64
        e 120 86 0c 00
        e 360 96 0d 64
        e 120 86 0d 00
        e 360 96 0d 64
        e 120 86 0d 00
        e 360 96 0d 64
        e 120 86 0d 00
        e 360 96 0c 64
        e 120 86 0c 00
        e 360 96 0d 64
        e 120 86 0d 00
        e 360 96 0d 64
        e 120 86 0d 00
        e 360 96 0d 64
        e 120 86 0d 00
        e 360 96 0c 64
        e 120 86 0c 00
        e 360 96 0d 64
        e 120 86 0d 00
        e 360 96 0d 64
        e 120 86 0d 00
        e 360 96 0d 64
        e 120 86 0d 00
        e 360 96 0c 64
        e 120 86 0c 00
        e 360 96 0d 64
        e 120 86 0d 00
        e 360 96 0d 64
        e 120 86 0d 00
        e 360 96 0d 64
        e 120 86 0d 00
        e 360 96 0c 64
        e 120 86 0c 00
        e 360 96 0d 64
        e 120 86 0d 00
        e 360 96 0d 64
        e 120 86 0d 00
        e 360 96 0d 64
        e 120 86 0d 00
        e 360 96 0c 64
        e 120 86 0c 00
        e 360 96 0d 64
        e 120 86 0d 00
        e 360 96 0d 64
        e 120 86 0d 00
        e 360 96 0d 64
        e 120 86 0d 00
        e 360 96 0c 64
        e 120 86 0c 00
        e 360 96 0d 64
        e 120 86 0d 00
        e 360 96 0d 64
        e 120 86 0d 00
        e 360 96 0d 64
        e 120 86 0d 00
        e 360 96 0c 64
        e 120 86 0c 00
        e 360 96 0d 64
        e 120 86 0d 00
        e 360 96 0d 64
        e 120 86 0d 00
        e 360 96 0d 64
        e 120 86 0d 00
        e 360 96 0c 64
        e 120 86 0c 00
        e 360 96 0d 64
        e 120 86 0d 00
        e 360 96 0d 64
        e 120 86 0d 00
        e 360 96 0d 64
        e 120 86 0d 00
        e 360 96 0c 64
        e 120 86 0c 00
        e 360 96 0d 64
        e 120 86 0d 00
        e 360 96 0d 64
        e 120 86 0d 00
        e 360 96 0d 64
        e 120 86 0d 00
        e 360 96 0c 64
        e 120 86 0c 00
        e 360 96 0d 64
        e 120 86 0d 00
        e 360 96 0d 64
        e 120 86 0d 00
        e 360 96 0d 64
        e 120 86 0d 00
        e 360 96 0c 64
        e 120 86 0c 00
        e 360 96 0d 64
        e 120 86 0d 00
        e 360 96 0d 64
        e 120 86 0d 00
        e 360 96 0d 64
        e 120 86 0d 00
        e 360 96 0c 64
        e 120 86 0c 00
        e 360 96 0d 64
        e 120 86 0d 00
        e 360 96 0d 64
        e 120 86 0d 00
        e 360 96 0d 64
        e 120 86 0d 00
        e 360 96 0c 64
        e 120 86 0c 00
        e 360 96 0d 64
        e 120 86 0d 00
        e 360 96 0d 64
        e 120 86 0d 00
        e 360 96 0d 64
        e 120 86 0d 00
        e 360 96 0c 64
        e 120 86 0c 00
        e 360 96 0d 64
        e 120 86 0d 00
        e 360 96 0d 64
        e 120 86 0d 00
        e 360 96 0d 64
        e 120 86 0d 00
        e 360 96 0c 64
        e 120 86 0c 00
        e 360 96 0d 64
        e 120 86 0d 00
        e 360 96 0d 64
        e 120 86 0d 00
        e 360 96 0d 64
        e 120 86 0d 00
        e 360 96 0c 64
        e 120 86 0c 00
        e 360 96 0d 64
        e 120 86 0d 00
        e 360 96 0d 64
        e 120 86 0d 00
        e 360 96 0d 64
        e 120 86 0d 00
        e 360 96 0c 64
        e 120 86 0c 00
        e 360 96 0d 64
        e 120 86 0d 00
        e 360 96 0d 64
        e 120 86 0d 00
        e 360 96 0d 64
        e 120 86 0d 00
        e 360 96 0c 64
        e 120 86 0c 00
        e 360 96 0d 64
        e 120 86 0d 00
        e 360 96 0d 64
        e 120 86 0d 00
        e 360 96 0d 64
        e 120 86 0d 00
        e 360 96 0c 64
        e 120 86 0c 00
        e 360 96 0d 64
        e 120 86 0d 00
        e 360 96 0d 64
        e 120 86 0d 00
        e 360 96 0d 64
        e 120 86 0d 00
        e 360 96 0c 64
        e 120 86 0c 00
        e 360 96 0d 64
        e 120 86 0d 00
        e 360 96 0d 64
        e 120 86 0d 00
        e 360 96 0d 64
        e 120 86 0d 00
        e 360 96 0c 64
        e 120 86 0c 00
        e 360 96 0d 64
        e 120 86 0d 00
        e 360 96 0d 64
        e 120 86 0d 00
        e 360 96 0d 64
        e 120 86 0d 00
        e 360 96 0c 64
        e 120 86 0c 00
        e 360 96 0d 64
        e 120 86 0d 00
        e 360 96 0d 64
        e 120 86 0d 00
        e 360 96 0d 64
        e 120 86 0d 00
        e 360 96 0c 64
        e 120 86 0c 00
        e 360 96 0d 64
        e 120 86 0d 00
        e 360 96 0d 64
        e 120 86 0d 00
        e 360 96 0d 64
        e 120 86 0d 00
        e 360 96 0c 64
        e 120 86 0c 00
        e 360 96 0d 64
        e 120 86 0d 00
        e 360 96 0d 64
        e 120 86 0d 00
        e 360 96 0d 64
        e 120 86 0d 00
        e 360 96 0c 64
        e 120 86 0c 00
        e 360 96 0d 64
        e 120 86 0d 00
        e 360 96 0d 64
        e 120 86 0d 00
        e 360 96 0d 64
        e 120 86 0d 00
        e 360 96 0c 64
        e 120 86 0c 00
        e 360 96 0d 64
        e 120 86 0d 00
        e 360 96 0d 64
        e 120 86 0d 00
        e 360 96 0d 64
        e 120 86 0d 00
        e 360 96 0c 64
        e 120 86 0c 00
        e 360 96 0d 64
        e 120 86 0d 00
        e 360 96 0d 64
        e 120 86 0d 00
        e 360 96 0d 64
        e 120 86 0d 00
        e 360 96 0c 64
        e 120 86 0c 00
        e 360 96 0d 64
        e 120 86 0d 00
        e 360 96 0d 64
        e 120 86 0d 00
        e 360 96 0d 64
        e 120 86 0d 00
        e 360 96 0c 64
        e 120 86 0c 00
        e 360 96 0d 64
        e 120 86 0d 00
        e 360 96 0d 64
        e 120 86 0d 00
        e 360 96 0d 64
        e 120 86 0d 00
        e 360 96 0c 64
        e 120 86 0c 00
        e 360 96 0d 64
        e 120 86 0d 00
        e 360 96 0d 64
        e 120 86 0d 00
        e 360 96 0d 64
        e 120 86 0d 00
        e 360 96 0c 64
        e 120 86 0c 00
        e 360 96 0d 64
        e 120 86 0d 00
        e 360 96 0d 64
        e 120 86 0d 00
        e 360 96 0d 64
        e 120 86 0d 00
        e 360 96 0c 64
        e 120 86 0c 00
        e 360 96 0d 64
        e 120 86 0d 00
        e 360 96 0d 64
        e 120 86 0d 00
        e 360 96 0d 64
        e 120 86 0d 00
        e 360 96 0c 64
        e 120 86 0c 00
        e 360 96 0d 64
        e 120 86 0d 00
        e 360 96 0d 64
        e 120 86 0d 00
        e 360 96 0d 64
        e 120 86 0d 00
        e 360 96 0c 64
        e 120 86 0c 00
        e 360 96 0d 64
        e 120 86 0d 00
        e 360 96 0d 64
        e 120 86 0d 00
        e 360 96 0d 64
        e 120 86 0d 00
        e 360 96 0c 64
        e 120 86 0c 00
        e 360 96 0d 64
        e 120 86 0d 00
        e 360 96 0d 64
        e 120 86 0d 00
        e 360 96 0d 64
        e 120 86 0d 00
        e 360 96 0c 64
        e 120 86 0c 00
        e 360 96 0d 64
        e 120 86 0d 00
        e 360 96 0d 64
        e 120 86 0d 00
        e 360 96 0d 64
        e 120 86 0d 00
        e 360 96 0c 64
        e 120 86 0c 00
        e 360 96 0d 64
        e 120 86 0d 00
        e 360 96 0d 64
        e 120 86 0d 00
        e 360 96 0d 64
        e 120 86 0d 00
        e 360 96 0c 64
        e 120 86 0c 00
        e 360 96 0d 64
        e 120 86 0d 00
        e 360 96 0d 64
        e 120 86 0d 00
        e 360 96 0d 64
        e 120 86 0d 00
        e 360 96 0c 64
        e 120 86 0c 00
        e 360 96 0d 64
        e 120 86 0d 00
        e 360 96 0d 64
        e 120 86 0d 00
        e 360 96 0d 64
        e 120 86 0d 00
        e 360 96 0c 64
        e 120 86 0c 00
        e 360 96 0d 64
        e 120 86 0d 00
        e 360 96 0d 64
        e 120 86 0d 00
        e 360 96 0d 64
        e 120 86 0d 00
        e 360 96 0c 64
        e 120 86 0c 00
        e 360 96 0d 64
        e 120 86 0d 00
        e 360 96 0d 64
        e 120 86 0d 00
        e 360 96 0d 64
        e 120 86 0d 00
        e 360 96 0c 64
        e 120 86 0c 00
        e 360 96 0d 64
        e 120 86 0d 00
        e 360 96 0d 64
        e 120 86 0d 00
        e 360 96 0d 64
        e 120 86 0d 00
        e 360 96 0c 64
        e 120 86 0c 00
        e 360 96 0d 64
        e 120 86 0d 00
        e 360 96 0d 64
        e 120 86 0d 00
        e 360 96 0d 64
        e 120 86 0d 00
        e 360 96 0c 64
        e 120 86 0c 00
        e 360 96 0d 64
        e 120 86 0d 00
        e 360 96 0d 64
        e 120 86 0d 00
        e 360 96 0d 64
        e 120 86 0d 00
        e 360 96 0c 64
        e 120 86 0c 00
        e 360 96 0d 64
        e 120 86 0d 00
        e 360 96 0d 64
        e 120 86 0d 00
        e 360 96 0d 64
        e 120 86 0d 00
        e 360 96 0c 64
        e 120 86 0c 00
        e 360 96 0d 64
        e 120 86 0d 00
        e 360 96 0d 64
        e 120 86 0d 00
        e 360 96 0d 64
        e 120 86 0d 00
        e 360 96 0c 64
        e 120 86 0c 00
        e 360 96 0d 64
        e 120 86 0d 00
        e 360 96 0d 64
        e 120 86 0d 00
        e 360 96 0d 64
        e 120 86 0d 00
        e 360 96 0c 64
        e 120 86 0c 00
        e 360 96 0d 64
        e 120 86 0d 00
        e 360 96 0d 64
        e 120 86 0d 00
        e 360 96 0d 64
        e 120 86 0d 00
        e 360 96 0c 64
        e 120 86 0c 00
        e 360 96 0d 64
        e 120 86 0d 00
        e 360 96 0d 64
        e 120 86 0d 00
        e 360 96 0d 64
        e 120 86 0d 00
        e 360 96 0c 64
        e 120 86 0c 00
        e 360 96 0d 64
        e 120 86 0d 00
        e 360 96 0d 64
        e 120 86 0d 00
        e 360 96 0d 64
        e 120 86 0d 00
        e 360 96 0c 64
        e 120 86 0c 00
        e 360 96 0d 64
        e 120 86 0d 00
        e 360 96 0d 64
        e 120 86 0d 00
        e 360 96 0d 64
        e 120 86 0d 00
        e 360 96 0c 64
        e 120 86 0c 00
        e 360 96 0d 64
        e 120 86 0d 00
        e 360 96 0d 64
        e 120 86 0d 00
        e 360 96 0d 64
        e 120 86 0d 00
        e 360 96 0c 64
        e 120 86 0c 00
        e 360 96 0d 64
        e 120 86 0d 00
        e 360 96 0d 64
        e 120 86 0d 00
        e 360 96 0d 64
        e 120 86 0d 00
        e 360 96 0c 64
        e 120 86 0c 00
        e 360 96 0d 64
        e 120 86 0d 00
        e 360 96 0d 64
        e 120 86 0d 00
        e 360 96 0d 64
        e 120 86 0d 00
        e 360 96 0c 64
        e 120 86 0c 00
        e 360 96 0d 64
        e 120 86 0d 00
        e 360 96 0d 64
        e 120 86 0d 00
        e 360 96 0d 64
        e 120 86 0d 00
        e 360 96 0c 64
        e 120 86 0c 00
        e 360 96 0d 64
        e 120 86 0d 00
        e 360 96 0d 64
        e 120 86 0d 00
        e 360 96 0d 64
        e 120 86 0d 00
        e 360 96 0c 64
        e 120 86 0c 00
        e 360 96 0d 64
        e 120 86 0d 00
        e 360 96 0d 64
        e 120 86 0d 00
        e 360 96 0d 64
        e 120 86 0d 00
        e 360 96 0c 64
        e 120 86 0c 00
        e 360 96 0d 64
        e 120 86 0d 00
        e 360 96 0d 64
        e 120 86 0d 00
        e 360 96 0d 64
        e 120 86 0d 00
        e 360 96 0c 64
        e 120 86 0c 00
        e 360 96 0d 64
        e 120 86 0d 00
        e 360 96 0d 64
        e 120 86 0d 00
        e 360 96 0d 64
        e 120 86 0d 00
        e 360 96 0c 64
        e 120 86 0c 00
        e 360 96 0d 64
        e 120 86 0d 00
        e 360 96 0d 64
        e 120 86 0d 00
        e 360 96 0d 64
        e 120 86 0d 00
        e 360 96 0c 64
        e 120 86 0c 00
        e 360 96 0d 64
        e 120 86 0d 00
        e 360 96 0d 64
        e 120 86 0d 00
        e 360 96 0d 64
        e 120 86 0d 00
        e 360 96 0c 64
        e 120 86 0c 00
        e 360 96 0d 64
        e 120 86 0d 00
        e 360 96 0d 64
        e 120 86 0d 00
        e 360 96 0d 64
        e 120 86 0d 00
        e 360 96 0c 64
        e 120 86 0c 00
        e 360 96 0d 64
        e 120 86 0d 00
        e 360 96 0d 64
        e 120 86 0d 00
        e 360 96 0d 64
        e 120 86 0d 00
        e 360 96 0c 64
        e 120 86 0c 00
        e 360 96 0d 64
        e 120 86 0d 00
        e 360 96 0d 64
        e 120 86 0d 00
        e 360 96 0d 64
        e 120 86 0d 00
        e 360 96 0c 64
        e 120 86 0c 00
        E 840 b0 7b 00
        GUID {8CB930E8-B6A0-4CAD-825A-9F47FB66C1D0}
        IGNTEMPO 0 120.00000000 4 4
        SRCCOLOR 1449
        VELLANE 132 100 100
        COLORMAP "M:\RGS Documents\ColorMaps\rockband_vox-other.png"
        TEXTSTRINGFILE "Text Events List.txt"
        CFGEDITVIEW -1453.808403 33.478965 0 48 0 0 0
        CFGEDIT 1 1 0 0 0 1 1 1 1 1 1 1.00000000 44 63 1223 847 1 2 1 2 0.00000000 0 0 0 0 0.500000 1 0 1.000000 64
        KEYSNAP 0 0 "102034050607" 0 "Major"
        EVTFILTER 0 -1 -1 -1 -1 0 1 0 0 -1.00000000 -1.00000000
      >
    >
  >
  <TRACK '{0E2FE3F2-76C0-4A51-94D0-F118951ACC28}'
    NAME "PART REAL_GUITAR"
    PEAKCOL 16576
    BEAT -1
    AUTOMODE 0
    VOLPAN 1.00000000000000 0.00000000000000 -1.00000000000000 -1.00000000000000 1.00000000000000
    MUTESOLO 1 0 0
    IPHASE 0
    ISBUS 0 0
    BUSCOMP 0 0
    SHOWINMIX 1 0.666700 0.500000 1 0.500000 -1 -1 -1
    FREEMODE 0
    SEL 0
    REC 0 0 0 0 0 0 0
    TRACKHEIGHT 0 0
    INQ 0 0 0 0.5000000000 100 0 0 100
    NCHAN 2
    FX 1
    TRACKID {0E2FE3F2-76C0-4A51-94D0-F118951ACC28}
    PERF 0
    MIDIOUT -1
    <MIDINOTENAMES
      0 101 "EXPERT E String (HIGH)"
      0 100 "EXPERT B String"
      0 99 "EXPERT G String"
      0 98 "EXPERT D String"
      0 97 "EXPERT A String"
      0 96 "EXPERT E String (LOW)"
      0 77 "HARD E String (HIGH)"
      0 72 "HARD E String (LOW)"
      0 53 "MEDIUM E String (HIGH)"
      0 48 "MEDIUM E String (LOW)"
      0 29 "EASY E String (HIGH)"
      0 24 "EASY E String (LOW)"
      0 76 "HARD B String"
      0 75 "HARD G String"
      0 74 "HARD D String"
      0 73 "HARD A String"
      0 52 "MEDIUM B String"
      0 51 "MEDIUM G String"
      0 50 "MEDIUM D String"
      0 49 "MEDIUM A String"
      0 28 "EASY B String"
      0 27 "EASY G String"
      0 26 "EASY D String"
      0 25 "EASY A String"
      0 116 "OVERDRIVE"
      0 115 "Solo Marker"
      0 125 "BRE"
      0 120 "BRE (use all 6)"
      0 124 "BRE"
      0 123 "BRE"
      0 122 "BRE"
      0 121 "BRE"
      0 127 "Trill"
      0 126 "Tremelo"
      0 108 "Left hand position"
      0 107 "Force Chord Numbering"
      0 104 "EXPERT Arpeggio Marker"
      0 103 "EXPERT Slide Marker"
      0 102 "EXPERT Force Ho/Po"
      0 80 "HARD Arpeggio Marker"
      0 79 "HARD Slide Marker"
      0 78 "Force Ho/Po"
      0 55 "MEDIUM Slide Marker"
      0 31 "EASY Slide Marker"
      0 17 "Hide Chord Names"
      0 15 "Eb"
      0 14 "D"
      0 13 "Db"
      0 12 "C"
      0 11 "B"
      0 10 "Bb"
      0 9 "A"
      0 8 "Ab"
      0 7 "G"
      0 6 "Gb"
      0 5 "F"
      0 4 "E"
      0 105 "EXPERT Strum Direction"
      0 81 "HARD Strum Direction"
      0 56 "MEDIUM Arpeggio Marker"
      0 32 "EASY Arpeggio Marker"
      0 21 "CHORD NAMES"
      0 18 "Flat/Sharp Swap"
      0 16 "Slash Chord"
    >
    MAINSEND 1 0
    <FXCHAIN
      SHOW 0
      LASTSEL 0
      DOCKED 0
    >
    <ITEM
      POSITION 0.00000000000000
      SNAPOFFS 0.00000000000000
      LENGTH 144.99395173193938
      LOOP 0
      ALLTAKES 0
      SEL 0
      FADEIN 1 0.000000 0.000000 1 0
      FADEOUT 1 0.000000 0.000000 1 0
      MUTE 0
      IGUID {20F1321F-9ED7-4853-AD09-40B222B05CF8}
      IID 24
      NAME "PART REAL_GUITAR"
      VOLPAN 1.000000 0.000000 1.000000 -1.000000
      SOFFS 0.00000000000000 0.00000000000000
      PLAYRATE 1.00000000000000 1 0.00000000000000 -1
      CHANMODE 0
      GUID {3CDDC74F-292B-448F-83EC-680F8CEF1C9B}
      <SOURCE MIDI
        HASDATA 1 480 QN
        POOLEDEVTS {2E48BA73-2588-483B-98A8-FA6061710493}
        <X 0 0
          /wNQQVJUIFJFQUxfR1VJVEFS
        >
        E 3840 90 18 64
        E 0 90 19 64
        E 0 90 1a 64
        E 0 90 1b 64
        E 0 90 1c 64
        E 0 90 1d 64
        E 0 90 30 64
        E 0 90 31 64
        E 0 90 32 64
        E 0 90 33 64
        E 0 90 34 64
        E 0 90 35 64
        E 0 90 48 64
        E 0 90 49 64
        E 0 90 4a 64
        E 0 90 4b 64
        E 0 90 4c 64
        E 0 90 4d 64
        E 0 90 60 64
        E 0 90 61 64
        E 0 90 62 64
        E 0 90 63 64
        E 0 90 64 64
        E 0 90 65 64
        E 120 80 18 00
        E 0 80 19 00
        E 0 80 1a 00
        E 0 80 1b 00
        E 0 80 1c 00
        E 0 80 1d 00
        E 0 80 30 00
        E 0 80 31 00
        E 0 80 32 00
        E 0 80 33 00
        E 0 80 34 00
        E 0 80 35 00
        E 0 80 48 00
        E 0 80 49 00
        E 0 80 4a 00
        E 0 80 4b 00
        E 0 80 4c 00
        E 0 80 4d 00
        E 0 80 60 00
        E 0 80 61 00
        E 0 80 62 00
        E 0 80 63 00
        E 0 80 64 00
        E 0 80 65 00
        E 177000 b0 7b 00
        GUID {95EB2031-BC44-4B36-809B-F7595C07BF30}
        IGNTEMPO 0 120.00000000 4 4
        SRCCOLOR 1450
        VELLANE 132 123 128
        COLORMAP "C:\Program Files\REAPER\Data\color_maps\rockband_guitarbass.png"
        TEXTSTRINGFILE "C:\Program Files\REAPER\Data\Text_Strings\Text Events List.txt"
        CFGEDITVIEW 0.000000 0.103438 87 12 0 0 0
        CFGEDIT 1 1 0 0 0 1 1 1 1 1 1 0.25000000 0 0 683 728 1 0 0 2 0.12500000 0 1 0 0 0.500000 0 0 1.000000 64
        KEYSNAP 0 0 "102034050607" 0 "Major"
        EVTFILTER 0 -1 -1 -1 -1 0 1 0 0 -1.00000000 -1.00000000
      >
    >
  >
  <TRACK '{4048E3A2-B3FC-493C-BF0E-D7B7B9F9DFF3}'
    NAME "PART REAL_BASS"
    PEAKCOL 16576
    BEAT -1
    AUTOMODE 0
    VOLPAN 1.00000000000000 0.00000000000000 -1.00000000000000 -1.00000000000000 1.00000000000000
    MUTESOLO 1 0 0
    IPHASE 0
    ISBUS 0 0
    BUSCOMP 0 0
    SHOWINMIX 1 0.666700 0.500000 1 0.500000 -1 -1 -1
    FREEMODE 0
    SEL 0
    REC 0 0 0 0 0 0 0
    TRACKHEIGHT 0 0
    INQ 0 0 0 0.5000000000 100 0 0 100
    NCHAN 2
    FX 1
    TRACKID {4048E3A2-B3FC-493C-BF0E-D7B7B9F9DFF3}
    PERF 0
    MIDIOUT -1
    <MIDINOTENAMES
      0 99 "EXPERT G String"
      0 98 "EXPERT D String"
      0 97 "EXPERT A String"
      0 96 "EXPERT E String (LOW)"
      0 72 "HARD E String (LOW)"
      0 48 "MEDIUM E String (LOW)"
      0 24 "EASY E String (LOW)"
      0 75 "HARD G String"
      0 74 "HARD D String"
      0 73 "HARD A String"
      0 51 "MEDIUM G String"
      0 50 "MEDIUM D String"
      0 49 "MEDIUM A String"
      0 27 "EASY G String"
      0 26 "EASY D String"
      0 25 "EASY A String"
      0 116 "OVERDRIVE"
      0 115 "Solo Marker"
      0 120 "BRE (use all 6)"
      0 123 "BRE"
      0 122 "BRE"
      0 121 "BRE"
      0 127 "Trill"
      0 126 "Tremelo"
      0 125 "BRE"
      0 124 "BRE"
      0 108 "Left hand position"
      0 107 "Force Chord Numbering"
      0 104 "EXPERT Arpeggio Marker"
      0 103 "EXPERT Slide Marker"
      0 102 "EXPERT Force Ho/Po"
      0 101 "EXPERT E String (HIGH)"
      0 100 "EXPERT B String"
      0 80 "HARD Arpeggio Marker"
      0 79 "HARD Slide Marker"
      0 78 "Force Ho/Po"
      0 77 "HARD E String (HIGH)"
      0 76 "HARD B String"
      0 55 "MEDIUM Slide Marker"
      0 53 "MEDIUM E String (HIGH)"
      0 52 "MEDIUM B String"
      0 31 "EASY Slide Marker"
      0 29 "EASY E String (HIGH)"
      0 28 "EASY B String"
      0 17 "Hide Chord Names"
      0 15 "Eb"
      0 14 "D"
      0 13 "Db"
      0 12 "C"
      0 11 "B"
      0 10 "Bb"
      0 9 "A"
      0 8 "Ab"
      0 7 "G"
      0 6 "Gb"
      0 5 "F"
      0 4 "E"
      0 105 "EXPERT Strum Direction"
      0 81 "HARD Strum Direction"
      0 56 "MEDIUM Arpeggio Marker"
      0 32 "EASY Arpeggio Marker"
      0 21 "CHORD NAMES"
      0 18 "Flat/Sharp Swap"
      0 16 "Slash Chord"
    >
    MAINSEND 1 0
    <FXCHAIN
      SHOW 0
      LASTSEL 0
      DOCKED 0
    >
    <ITEM
      POSITION 0.00000000000000
      SNAPOFFS 0.00000000000000
      LENGTH 144.99395173193938
      LOOP 0
      ALLTAKES 0
      SEL 0
      FADEIN 1 0.000000 0.000000 1 0
      FADEOUT 1 0.000000 0.000000 1 0
      MUTE 0
      IGUID {20F1321F-9ED7-4853-AD09-40B222B05CF8}
      IID 25
      NAME "PART REAL_BASS"
      VOLPAN 1.000000 0.000000 1.000000 -1.000000
      SOFFS 0.00000000000000 0.00000000000000
      PLAYRATE 1.00000000000000 1 0.00000000000000 -1
      CHANMODE 0
      GUID {3CDDC74F-292B-448F-83EC-680F8CEF1C9B}
      <SOURCE MIDI
        HASDATA 1 480 QN
        POOLEDEVTS {6B54C0EB-73E7-4945-8B47-508DE1FF2B6C}
        <X 0 0
          /wNQQVJUIFJFQUxfQkFTUw==
        >
        E 3840 90 18 64
        E 0 90 19 64
        E 0 90 1a 64
        E 0 90 1b 64
        E 0 90 30 64
        E 0 90 31 64
        E 0 90 32 64
        E 0 90 33 64
        E 0 90 48 64
        E 0 90 49 64
        E 0 90 4a 64
        E 0 90 4b 64
        E 0 90 60 64
        E 0 90 61 64
        E 0 90 62 64
        E 0 90 63 64
        E 120 80 18 00
        E 0 80 19 00
        E 0 80 1a 00
        E 0 80 1b 00
        E 0 80 30 00
        E 0 80 31 00
        E 0 80 32 00
        E 0 80 33 00
        E 0 80 48 00
        E 0 80 49 00
        E 0 80 4a 00
        E 0 80 4b 00
        E 0 80 60 00
        E 0 80 61 00
        E 0 80 62 00
        E 0 80 63 00
        E 177000 b0 7b 00
        GUID {95EB2031-BC44-4B36-809B-F7595C07BF30}
        IGNTEMPO 0 120.00000000 4 4
        SRCCOLOR 1451
        VELLANE 132 123 128
        COLORMAP "C:\Program Files\REAPER\Data\color_maps\rockband_guitarbass.png"
        TEXTSTRINGFILE "C:\Program Files\REAPER\Data\Text_Strings\Text Events List.txt"
        CFGEDITVIEW 0.000000 0.179136 0 12 0 0 0
        CFGEDIT 1 1 0 0 0 1 1 1 1 1 1 0.25000000 0 0 683 728 1 0 0 2 0.00000000 0 1 0 0 0.500000 0 0 1.000000 64
        KEYSNAP 0 0 "102034050607" 0 "Major"
        EVTFILTER 0 -1 -1 -1 -1 0 1 0 0 -1.00000000 -1.00000000
      >
    >
  >
>
