<REAPER_PROJECT 0.1 "4.22/x64"
  RIPPLE 0
  GROUPOVERRIDE 0 1 0
  AUTOXFADE 1
  ENVATTACH 1
  MIXERUIFLAGS 11 48
  PEAKGAIN 1.00000000000000
  FEEDBACK 0
  PANLAW 1.00000000000000
  PROJOFFS 0.00000000000000 0
  MAXPROJLEN 0 600.00000000000000
  GRID 1279 8 1.00000000000000 8 1.00000000000000 0
  TIMEMODE 1 0 -1
  CURSOR 102.62385396458673
  ZOOM 5.82370345803829 0 0
  VZOOMEX 4
  USE_REC_CFG 0
  RECMODE 1
  SMPTESYNC 0 30.000000 100 40 1000 300 0 0.000000 0
  LOOP 1
  LOOPGRAN 0 4.00000000000000
  RECORD_PATH "" ""
  <RECORD_CFG
    ZXZhdxgA
  >
  <APPLYFX_CFG
  >
  RENDER_FILE ""
  RENDER_PATTERN ""
  RENDER_FMT 0 2 0
  RENDER_1X 0
  RENDER_RANGE 1 0.00000000000000 0.00000000000000
  RENDER_RESAMPLE 3 0 1
  RENDER_ADDTOPROJ 0
  RENDER_STEMS 0
  RENDER_DITHER 0
  TIMELOCKMODE 0
  ITEMMIX 0
  DEFPITCHMODE 0
  TAKELANE 0
  SAMPLERATE 44100 0 0
  <RENDER_CFG
  >
  LOCK 1
  <METRONOME 6 2.000000
    VOL 0.752735 0.723913
    FREQ 800 1600 0
    BEATLEN 4
    SAMPLES "" ""
  >
  GLOBAL_AUTO -1
  TEMPO 120.00000000000000 4 4
  PLAYRATE 0.97900000000000 0 0.25000 4.00000
  SELECTION 0.00000000000000 0.00000000000000
  SELECTION2 0.00000000000000 0.00000000000000
  MASTERAUTOMODE 0
  MASTERTRACKHEIGHT 0
  MASTERPEAKCOL 16576
  MASTERMUTESOLO 0
  MASTERTRACKVIEW 1 0.666700 0.500000 0.500000 -1 -1 -1
  MASTERHWOUT 0 0 1.00000000000000 0.00000000000000 0 0 0 -1.00000000000000
  MASTER_NCH 2 2
  MASTER_VOLUME 1.05925372517729 0.00000000000000 -1.00000000000000 -1.00000000000000 1.00000000000000
  MASTER_FX 1
  MASTER_SEL 0
  <MASTERFXLIST
    SHOW 0
    LASTSEL 0
    DOCKED 0
    BYPASS 0 0
    <VST "VST: W1 Limiter (George Yohng)" "George Yohng_s W1 Limiter.dll" 0 ""
      THdGNO5e7f4CAAAAAQAAAAAAAAACAAAAAAAAAAIAAAABAAAAAAAAAA==
      AgAAAAAAAABMAAAAAQAAAAAAEAAMAACBdGhyZXNoAAAAAIA/DAAAgQ==
      Y2VpbGluZwAAAIA/DAAAgXJlbGVhc2UAMEAfPxQAAIFhZGFwdFJlbA==
      ZWFzZQAAAAAAAAAAAAAAgAAAEAAAAA==
    >
    FLOATPOS 24 24 481 152
    FXID {69D45D23-FE06-4141-B0BB-1A6D9443AFA8}
    WAK 0
  >
  <MASTERPLAYSPEEDENV
    ACT 0
    VIS 0 1 1.000000
    LANEHEIGHT 0 0
    ARM 0
    DEFSHAPE 0 -1 -1
  >
  <TEMPOENVEX
    ACT 1
    VIS 1 0 1.000000
    LANEHEIGHT 0 0
    ARM 0
    DEFSHAPE 1 -1 -1
    PT 0.000000000000 140.0000000000 1
    PT 1.714285714286 139.7678212765 1
    PT 3.431419156076 140.1258278155 1
    PT 5.144165505136 140.1258278155 1
    PT 6.856911854196 139.4823108106 1
    PT 8.577560147197 140.2934160484 1
    PT 10.288260526160 140.2934160484 1
    PT 11.998960905124 139.0140887955 1
    PT 13.725404620861 140.5986787976 1
    PT 15.432390789241 140.5986787976 1
    PT 17.139376957620 139.3377040999 1
    PT 18.861810964627 140.2813002902 1
    PT 20.572659092664 140.2813002902 1
    PT 22.283507220700 139.3377040999 1
    PT 24.005941227708 140.5986787976 1
    PT 25.712927396087 140.5986787976 1
    PT 27.419913564466 139.3377040999 1
    PT 29.142347571474 140.2813002902 1
    PT 30.853195699510 140.2813002902 1
    PT 32.564043827547 139.3377040999 1
    PT 34.286477834554 140.2813002902 1
    PT 35.997325962590 140.2813002902 1
    PT 37.708174090627 139.6508225361 1
    PT 39.426746137977 140.5986787976 1
    PT 41.133732306357 140.5986787976 1
    PT 42.840718474736 138.7156607780 1
    PT 44.570876401057 140.2813002902 1
    PT 46.281724529094 140.2813002902 1
    PT 49.703420785167 139.6508225361 1
    PT 51.421992832517 139.6508225361 1
    PT 54.859136927218 139.9653514157 1
    PT 56.573847014911 139.9653514157 1
    PT 58.288557102604 139.9653514157 1
    PT 60.003267190298 140.9174966634 1
    PT 61.706391399020 140.9174966634 1
    PT 63.409515607743 140.2813002902 1
    PT 65.120363735779 139.3377040999 1
    PT 66.842797742787 139.3377040999 1
    PT 68.565231749794 141.5594898145 1
    PT 70.260632039202 138.4067172128 1
    PT 71.994651925181 141.8826849967 1
    PT 73.686190254932 139.9653514157 1
    PT 75.400900342626 138.7156607780 1
    PT 77.131058268947 140.2813002902 1
    PT 78.841906396983 140.5986787976 1
    PT 80.548892565363 139.3377040999 1
    PT 82.271326572370 140.2813002902 1
    PT 83.982174700407 140.2813002902 1
    PT 85.693022828443 139.6508225361 1
    PT 87.411594875793 139.6508225361 1
    PT 89.130166923144 141.2377637013 1
    PT 90.829429172209 141.2377637013 1
    PT 92.528691421275 137.7929401964 1
    PT 94.270435226567 141.2377637013 1
    PT 95.969697475632 138.7156607780 1
    PT 97.699855401954 138.7156607780 1
    PT 99.430013328275 142.8611862725 1
    PT 101.109965779056 138.7156607780 1
    PT 102.840123705377 140.2813002902 1
    PT 104.550971833413 139.9653514157 1
    PT 106.265681921107 139.9653514157 1
    PT 107.980392008800 139.9653514157 1
    PT 109.695102096494 139.6508225361 1
    PT 111.413674143843 140.2813002902 1 0 1
    PT 113.124522271880 140.5986787976 1
    PT 114.831508440260 139.3377040999 1
    PT 116.553942447267 140.2813002902 1
    PT 118.264790575304 140.2813002902 1
    PT 119.975638703340 139.3377040999 1
    PT 121.698072710347 140.5986787976 1
    PT 123.405058878727 140.5986787976 1
    PT 125.112045047106 140.9174966634 1
    PT 126.815169255829 138.0991467301 1
    PT 128.553051101464 141.8826849967 1
    PT 130.244589431216 139.9653514157 1
    PT 131.959299518909 138.7156607780 1
    PT 133.689457445230 140.9174966634 1
    PT 135.392581653953 140.2813002902 1
    PT 137.103429781989 139.0259866411 1
    PT 138.829725748653 140.2813002902 1
    PT 140.540573876690 140.2813002902 1
    PT 142.251422004726 139.3377040999 1
    PT 143.973856011734 139.9653514157 1
    PT 145.688566099427 140.9174966634 1
    PT 147.391690308149 138.7156607780 1
    PT 149.121848234471 140.5986787976 1
    PT 150.828834402850 139.9653514157 1
    PT 152.543544490544 140.2813002902 1
    PT 154.254392618580 139.9653514157 1
    PT 155.969102706273 140.5986787976 1
    PT 157.676088874653 139.0259866411 1
    PT 159.402384841317 139.9653514157 1
    PT 161.117094929011 140.5986787977 1
    PT 162.824081097390 139.6508225361 1
    PT 164.542653144740 139.9653514157 1
    PT 166.257363232434 139.9653514157 1
    PT 167.972073320126 139.9653514156 1
    PT 169.686783407821 139.3377040999 1
    PT 171.409217414828 142.8611862726 1
    PT 173.089169865609 138.0991467301 1
    PT 174.827051711244 139.9653514157 1
    PT 176.541761798937 141.5594898145 1
    PT 178.237162088346 138.7156607780 1
    PT 179.967320014667 140.9174966634 1
    PT 181.670444223389 141.8826849967 1
    PT 183.361982553141 141.8826849967 1
    PT 185.053520882891 135.3913203235 1
    PT 186.826160365441 141.2377637013 1
    PT 188.525422614506 141.2377637013 1
    PT 190.224684863571 137.4880885587 1
    PT 191.970290628521 143.1903595128 1
    PT 193.646381119644 143.1903595128 1
    PT 195.322471610768 135.0969913664 1
    PT 197.098973052973 139.6508225361 1
    PT 198.817545100323 139.3377040999 1
    PT 200.539979107331 139.3377040999 1
    PT 202.262413114338 143.1903595128 1
    PT 203.938503605462 143.1903595128 1
    PT 205.614594096586 135.0969913664 1
    PT 207.391095538790 139.9653514156 1
    PT 209.105805626484 140.2813002902 1
    PT 210.816653754520 139.9653514157 1
    PT 212.531363842214 141.2377637013 1
    PT 214.230626091279 141.2377637013 1
    PT 215.929888340346 137.7929401965 1
    PT 217.671632145637 139.6508225361 1
    PT 219.390204192987 140.2813002902 1
    PT 221.101052321024 139.9653514157 1
    PT 222.815762408717 140.9174966634 1
    PT 224.518886617439 139.0259866411 1
    PT 226.245182584104 139.6508225361 1
    PT 227.963754631454 139.9653514157 1
    PT 229.678464719148 140.2813002902 1
    PT 231.389312847184 140.2813002902 1
    PT 233.100160975220 139.6508225361 1
    PT 234.818733022571 140.5986787976 1
    PT 236.525719190950 140.5986787976 1
    PT 238.232705359330 139.0259866411 1
    PT 239.959001325994 140.2813002902 1
    PT 241.669849454030 140.2813002902 1
    PT 243.380697582067 139.0259866411 1
    PT 245.106993548731 140.9174966634 1
    PT 246.810117757454 140.9174966634 1
    PT 248.513241966176 138.7156607780 1
    PT 250.243399892497 140.5986787976 1
    PT 251.950386060877 140.5986787976 1
    PT 253.657372229256 139.0259866411 1
    PT 255.383668195921 139.9653514157 1
    PT 257.098378283614 139.9653514157 1
    PT 258.813088371307 139.9653514157 1
    PT 260.527798459001 140.2813002902 1
  >
  <PROJBAY
  >
  <TRACK '{4D889F49-FE1F-4D1D-9FB8-BFD5BA06901A}'
    NAME "SONG AUDIO"
    PEAKCOL 16576
    BEAT -1
    AUTOMODE 0
    VOLPAN 1.18169906277985 0.00000000000000 -1.00000000000000 -1.00000000000000 1.00000000000000
    MUTESOLO 1 0 0
    IPHASE 0
    ISBUS 0 0
    BUSCOMP 0 0
    SHOWINMIX 1 0.666700 0.500000 1 0.500000 -1 -1 -1
    FREEMODE 0
    SEL 0
    REC 0 0 0 0 0 0 0
    TRACKHEIGHT 0 0
    INQ 0 0 0 0.5000000000 100 0 0 100
    NCHAN 2
    FX 1
    TRACKID {4D889F49-FE1F-4D1D-9FB8-BFD5BA06901A}
    PERF 0
    MIDIOUT -1
    MAINSEND 1 0
    <FXCHAIN
      SHOW 0
      LASTSEL 0
      DOCKED 0
      BYPASS 0 0
      <VST "VST: W1 Limiter (George Yohng)" "George Yohng_s W1 Limiter.dll" 0 ""
        THdGNO5e7f4CAAAAAQAAAAAAAAACAAAAAAAAAAIAAAABAAAAAAAAAA==
        AgAAAAAAAABMAAAAAQAAAAAAEAAMAACBdGhyZXNoAAAAAIA/DAAAgQ==
        Y2VpbGluZwAAAIA/DAAAgXJlbGVhc2UAMEAfPxQAAIFhZGFwdFJlbA==
        ZWFzZQAAAAAAAAAAAAAAgAAAEAAAAA==
      >
      FLOATPOS 24 24 481 152
      FXID {D32BE511-3942-4A83-B6D7-DF2FE763A2B4}
      WAK 0
    >
    <ITEM
      POSITION 0.00000000000000
      SNAPOFFS 0.00000000000000
      LENGTH 267.23845804988662
      LOOP 1
      ALLTAKES 0
      SEL 0
      FADEIN 1 0.000000 0.000000 1 0
      FADEOUT 1 0.000000 0.000000 1 0
      MUTE 0
      IGUID {8F4E0229-CDFD-4DB5-B722-EB6CC1283E63}
      IID 141
      NAME "01-SONG AUDIO-consolidated-250519_2208.wav"
      VOLPAN 1.000000 0.000000 1.000000 -1.000000
      SOFFS 0.00000000000000
      PLAYRATE 1.00000000000000 1 0.00000000000000 -1
      CHANMODE 0
      GUID {E0CF380D-C197-4FD6-93D9-D9F6B621928F}
      <SOURCE WAVE
        FILE "01-SONG AUDIO-consolidated-250519_2208.wav"
      >
    >
  >
  <TRACK '{CA70EC59-5670-4DEF-93CD-D80A5B5961E5}'
    NAME "1_01-SONG AUDIO-consolidated-250406_1821_(Other)"
    PEAKCOL 16576
    BEAT -1
    AUTOMODE 0
    VOLPAN 1.18169906277985 0.00000000000000 -1.00000000000000 -1.00000000000000 1.00000000000000
    MUTESOLO 1 0 0
    IPHASE 0
    ISBUS 0 0
    BUSCOMP 0 0
    SHOWINMIX 1 0.666700 0.500000 1 0.500000 -1 -1 -1
    FREEMODE 0
    SEL 0
    REC 0 0 0 0 0 0 0
    VU 2
    TRACKHEIGHT 24 0
    INQ 0 0 0 0.5000000000 100 0 0 100
    NCHAN 2
    FX 1
    TRACKID {CA70EC59-5670-4DEF-93CD-D80A5B5961E5}
    PERF 0
    MIDIOUT -1
    MAINSEND 1 0
    <ITEM
      POSITION 0.00000000000000
      SNAPOFFS 0.00000000000000
      LENGTH 267.21986394557825
      LOOP 0
      ALLTAKES 0
      SEL 0
      FADEIN 1 0.000000 0.000000 1 0
      FADEOUT 1 0.000000 0.000000 1 0
      MUTE 0
      IGUID {499FF373-F72F-433A-8EF6-9FBB10450412}
      IID 111
      NAME "1_01-SONG AUDIO-consolidated-250406_1821_(Other).wav"
      VOLPAN 1.000000 0.000000 1.000000 -1.000000
      SOFFS 0.00000000000000
      PLAYRATE 1.00000000000000 1 0.00000000000000 -1
      CHANMODE 0
      GUID {FA43E961-DB68-4A77-AEE9-35FC85D6FA1D}
      <SOURCE WAVE
        FILE "1_01-SONG AUDIO-consolidated-250406_1821_(Other).wav"
      >
    >
  >
  <TRACK '{7613A508-C1E4-4211-8D5A-7699C61B292F}'
    NAME "1_01-SONG AUDIO-consolidated-250406_1821_(Drums)"
    PEAKCOL 16576
    BEAT -1
    AUTOMODE 0
    VOLPAN 0.36279289742106 -0.25600000000000 -1.00000000000000 -1.00000000000000 1.00000000000000
    MUTESOLO 1 0 0
    IPHASE 0
    ISBUS 0 0
    BUSCOMP 0 0
    SHOWINMIX 1 0.666700 0.500000 1 0.500000 -1 -1 -1
    FREEMODE 0
    SEL 0
    REC 0 0 0 0 0 0 0
    VU 2
    TRACKHEIGHT 24 0
    INQ 0 0 0 0.5000000000 100 0 0 100
    NCHAN 2
    FX 1
    TRACKID {7613A508-C1E4-4211-8D5A-7699C61B292F}
    PERF 0
    MIDIOUT -1
    MAINSEND 1 0
    <ITEM
      POSITION 0.00000000000000
      SNAPOFFS 0.00000000000000
      LENGTH 267.21986394557825
      LOOP 0
      ALLTAKES 0
      SEL 0
      FADEIN 1 0.000000 0.000000 1 0
      FADEOUT 1 0.000000 0.000000 1 0
      MUTE 0
      IGUID {B1588FA8-3F1F-4F46-9BE4-6696E7CE40B5}
      IID 29
      NAME "1_01-SONG AUDIO-consolidated-250406_1821_(Drums).wav"
      VOLPAN 1.000000 0.000000 1.000000 -1.000000
      SOFFS 0.00000000000000
      PLAYRATE 1.00000000000000 1 0.00000000000000 -1
      CHANMODE 0
      GUID {F83D9FA5-4195-41A8-BD5D-836F5C4B7C64}
      <SOURCE WAVE
        FILE "1_01-SONG AUDIO-consolidated-250406_1821_(Drums).wav"
      >
    >
  >
  <TRACK '{A69323D7-83AA-4D7C-A4E2-D00E7DB84592}'
    NAME "1_01-SONG AUDIO-consolidated-250406_1821_(Bass)"
    PEAKCOL 16576
    BEAT -1
    AUTOMODE 0
    VOLPAN 1.51029054812145 0.00000000000000 -1.00000000000000 -1.00000000000000 1.00000000000000
    MUTESOLO 1 0 0
    IPHASE 0
    ISBUS 0 0
    BUSCOMP 0 0
    SHOWINMIX 1 0.666700 0.500000 1 0.500000 -1 -1 -1
    FREEMODE 0
    SEL 0
    REC 0 0 0 0 0 0 0
    VU 2
    TRACKHEIGHT 24 0
    INQ 0 0 0 0.5000000000 100 0 0 100
    NCHAN 2
    FX 1
    TRACKID {A69323D7-83AA-4D7C-A4E2-D00E7DB84592}
    PERF 0
    MIDIOUT -1
    MAINSEND 1 0
    <ITEM
      POSITION 0.00000000000000
      SNAPOFFS 0.00000000000000
      LENGTH 267.21986394557825
      LOOP 0
      ALLTAKES 0
      SEL 0
      FADEIN 1 0.000000 0.000000 1 0
      FADEOUT 1 0.000000 0.000000 1 0
      MUTE 0
      IGUID {AB6939FC-2FCE-4C8C-90E2-EAB82874C186}
      IID 88
      NAME "1_01-SONG AUDIO-consolidated-250406_1821_(Bass).wav"
      VOLPAN 1.000000 0.000000 1.000000 -1.000000
      SOFFS 0.00000000000000
      PLAYRATE 1.00000000000000 1 0.00000000000000 -1
      CHANMODE 0
      GUID {D67D2891-CFA9-4E4B-9543-0F497C76B5B2}
      <SOURCE WAVE
        FILE "1_01-SONG AUDIO-consolidated-250406_1821_(Bass).wav"
      >
    >
  >
  <TRACK '{8F33A645-3DF2-48FA-99BC-10992A4F8042}'
    NAME "PART DRUMS"
    PEAKCOL 16842751
    BEAT -1
    AUTOMODE 0
    VOLPAN 1.39288064923275 -0.03200000000000 -1.00000000000000 -1.00000000000000 1.00000000000000
    MUTESOLO 0 0 0
    IPHASE 0
    ISBUS 0 0
    BUSCOMP 1 0
    SHOWINMIX 1 0.666700 0.500000 1 0.500000 -1 -1 -1
    FREEMODE 0
    SEL 0
    REC 0 4096 1 7 0 0 0
    TRACKHEIGHT 0 0
    INQ 0 0 0 0.5000000000 100 0 0 100
    NCHAN 2
    FX 1
    TRACKID {8F33A645-3DF2-48FA-99BC-10992A4F8042}
    PERF 0
    MIDIOUT -1
    <MIDINOTENAMES
      0 84 "HARD Kick"
      0 96 "EXPERT Kick"
      0 72 "MEDIUM Kick"
      0 60 "EASY Kick"
      0 97 "EXPERT Red"
      0 98 "EXPERT Yellow"
      0 99 "EXPERT Blue"
      0 100 "EXPERT Green"
      0 85 "HARD Red"
      0 86 "HARD Yellow"
      0 87 "HARD Blue"
      0 88 "HARD Green"
      0 73 "MEDIUM Red"
      0 74 "MEDIUM Yellow"
      0 75 "MEDIUM Blue"
      0 76 "MEDIUM Green"
      0 61 "EASY Red"
      0 62 "EASY Yellow"
      0 63 "EASY Blue"
      0 64 "EASY Green"
      0 101 ""
      0 92 "----"
      0 80 "----"
      0 68 "----"
      0 120 "DRUM FILL (use all 5)"
      0 121 "DRUM FILL"
      0 122 "DRUM FILL"
      0 123 "DRUM FILL"
      0 124 "DRUM FILL"
      0 114 "----"
      0 116 "OVERDRIVE"
      0 118 "----"
      0 24 "KICK RF"
      0 25 "HI-HAT OPEN"
      0 26 "SNARE HARD LH"
      0 27 "SNARE HARD RH"
      0 30 "HI-HAT LH"
      0 31 "HI-HAT RH"
      0 32 "PERCUSSION RH"
      0 34 "CRASH1 HARD LH"
      0 35 "CRASH1 SOFT LH"
      0 36 "CRASH1 HARD RH"
      0 37 "CRASH1 SOFT RH"
      0 38 "CRASH2 HARD RH"
      0 39 "CRASH2 SOFT RH"
      0 40 "CRASH1 CHOKE"
      0 41 "CRASH2 CHOKE"
      0 42 "RIDE CYM RH"
      0 46 "TOM1 LH"
      0 47 "TOM1 RH"
      0 48 "TOM2 LH"
      0 49 "TOM2 RH"
      0 50 "FLOOR TOM LH"
      0 51 "FLOOR TOM RH"
      0 52 "--DRUM ANIMATION--"
      0 56 "----"
      0 103 "Solo Marker"
      0 102 "----"
      0 110 "PRO Yellow Tom"
      0 111 "PRO Blue Tom"
      0 112 "PRO Green Tom"
      0 108 "----"
      0 127 "Roll Marker 2-Lane / Cym"
      0 126 "Roll Marker 1-Lane"
      0 125 "----"
      0 28 "SNARE RIM LH"
      0 29 "SNARE RIM RH"
      0 43 "RIDE CYM LH"
      0 44 "CRASH2 HARD LH"
      0 45 "CRASH2 SOFT LH"
      0 33 "PERCUSSION LH"
    >
    MAINSEND 1 0
    <FXCHAIN
      WNDRECT 1977 937 878 574
      SHOW 0
      LASTSEL 1
      DOCKED 0
      BYPASS 1 0
      <VST "VSTi: ReaSynth (Cockos)" "reasynth.dll" 0 ""
        eXNlcu9e7f4AAAAAAgAAAAEAAAAAAAAAAgAAAAAAAAA4AAAAAAAAAA==
        AAAAAO++rd4N8K3eAAAAAAAAAAAAAAAAAAAAADm0SD59y9s+tbSxOQ==
        AAAAALbz/T5VpCs6AAAAAAAAAAAAAAAAAAA=
      >
      FLOATPOS 0 0 0 0
      FXID {58F55556-9407-4062-A048-6AFCC0B53535}
      WAK 0
      BYPASS 0 0
      <VST "VSTi: RBN Preview (RBN)" "rbprev_vst64_beta.dll" 0 ""
        dnBicu5e7f4AAAAAAgAAAAEAAAAAAAAAAgAAAAAAAAAEAAAAAQAAAA==
        AAAAAAMBqgAAAAAAAAA=
      >
      FLOATPOS 32 32 659 497
      FXID {D7126437-AB1E-4109-A0FA-F2D5D0AC68DC}
      WAK 0
    >
    <ITEM
      POSITION 0.00000000000000
      SNAPOFFS 0.00000000000000
      LENGTH 267.16289758939246
      LOOP 0
      ALLTAKES 0
      COLOR 19150555
      SEL 0
      FADEIN 1 0.000000 0.000000 1 0
      FADEOUT 1 0.000000 0.000000 1 0
      MUTE 0
      IGUID {9FF11F36-E94F-4396-9C0E-8449C916EC21}
      IID 7
      NAME "PART DRUMS"
      VOLPAN 1.000000 0.000000 1.000000 -1.000000
      SOFFS 0.00000000000000 0.00000000000000
      PLAYRATE 1.00000000000000 1 0.00000000000000 -65536
      CHANMODE 0
      GUID {70A79ADF-E70C-430A-913F-E16D0CC85517}
      <SOURCE MIDI
        HASDATA 1 480 QN
        POOLEDEVTS {0483CDC4-4206-444A-A730-F8993909E31A}
        <X 0 0
          /wNQQVJUIERSVU1T
        >
        <X 300 0
          /wFbbWl4IDEgZHJ1bXMwXQ==
        >
        <X 0 0
          /wFbbWl4IDAgZHJ1bXMwXQ==
        >
        <X 60 0
          /wFbbWl4IDIgZHJ1bXMwXQ==
        >
        <X 60 0
          /wFbbWl4IDMgZHJ1bXMwXQ==
        >
        <X 3420 0
          /wFbbWVsbG93XQ==
        >
        E 0 90 63 60
        E 0 90 57 60
        E 0 90 4b 60
        E 0 90 6f 60
        E 0 90 3f 60
        E 0 90 31 60
        E 60 80 63 00
        E 0 80 57 00
        E 0 80 4b 00
        E 0 80 6f 00
        E 0 80 3f 00
        E 0 80 31 00
        E 180 90 62 60
        E 0 90 56 60
        E 0 90 6e 60
        E 0 90 2f 60
        E 60 80 62 00
        E 0 80 56 00
        E 0 80 6e 00
        E 0 80 2f 00
        E 180 90 62 60
        E 0 90 56 60
        E 0 90 4a 60
        E 0 90 6e 60
        E 0 90 3e 60
        E 0 90 2f 60
        E 60 80 62 00
        E 0 80 56 00
        E 0 80 4a 00
        E 0 80 6e 00
        E 0 80 3e 00
        E 0 80 2f 00
        E 180 90 61 60
        E 0 90 63 60
        E 0 90 55 60
        E 0 90 57 60
        E 0 90 6f 60
        E 0 90 1a 60
        E 0 90 31 60
        E 60 80 61 00
        E 0 80 63 00
        E 0 80 55 00
        E 0 80 57 00
        E 0 80 6f 00
        E 0 80 1a 00
        E 0 80 31 00
        E 660 90 62 60
        E 0 90 56 60
        E 0 90 4a 60
        E 0 90 6e 60
        E 0 90 3e 60
        E 0 90 2f 60
        E 60 80 62 00
        E 0 80 56 00
        E 0 80 4a 00
        E 0 80 6e 00
        E 0 80 3e 00
        E 0 80 2f 00
        E 420 90 62 60
        E 0 90 56 60
        E 0 90 4a 60
        E 0 90 6e 60
        E 0 90 3e 60
        E 0 90 2f 60
        E 60 80 62 00
        E 0 80 56 00
        E 0 80 4a 00
        E 0 80 6e 00
        E 0 80 3e 00
        E 0 80 2f 00
        E 420 90 63 60
        E 0 90 57 60
        E 0 90 4b 60
        E 0 90 6f 60
        E 0 90 3f 60
        E 0 90 31 60
        E 60 80 63 00
        E 0 80 57 00
        E 0 80 4b 00
        E 0 80 6f 00
        E 0 80 3f 00
        E 0 80 31 00
        E 180 90 62 60
        E 0 90 56 60
        E 0 90 6e 60
        E 0 90 2f 60
        E 60 80 62 00
        E 0 80 56 00
        E 0 80 6e 00
        E 0 80 2f 00
        E 180 90 63 60
        E 0 90 57 60
        E 0 90 4b 60
        E 0 90 6f 60
        E 0 90 3f 60
        E 0 90 31 60
        E 60 80 63 00
        E 0 80 57 00
        E 0 80 4b 00
        E 0 80 6f 00
        E 0 80 3f 00
        E 0 80 31 00
        E 180 90 62 60
        E 0 90 56 60
        E 0 90 6e 60
        E 0 90 2f 60
        E 60 80 62 00
        E 0 80 56 00
        E 0 80 6e 00
        E 0 80 2f 00
        E 180 90 62 60
        E 0 90 56 60
        E 0 90 4a 60
        E 0 90 6e 60
        E 0 90 3e 60
        E 0 90 2f 60
        E 60 80 62 00
        E 0 80 56 00
        E 0 80 4a 00
        E 0 80 6e 00
        E 0 80 3e 00
        E 0 80 2f 00
        E 180 90 61 60
        E 0 90 63 60
        E 0 90 55 60
        E 0 90 57 60
        E 0 90 6f 60
        E 0 90 1a 60
        E 0 90 31 60
        E 60 80 61 00
        E 0 80 63 00
        E 0 80 55 00
        E 0 80 57 00
        E 0 80 6f 00
        E 0 80 1a 00
        E 0 80 31 00
        E 660 90 62 60
        E 0 90 56 60
        E 0 90 4a 60
        E 0 90 6e 60
        E 0 90 3e 60
        E 0 90 2f 60
        E 60 80 62 00
        E 0 80 56 00
        E 0 80 4a 00
        E 0 80 6e 00
        E 0 80 3e 00
        E 0 80 2f 00
        E 420 90 62 60
        E 0 90 56 60
        E 0 90 4a 60
        E 0 90 6e 60
        E 0 90 3e 60
        E 0 90 2f 60
        E 60 80 62 00
        E 0 80 56 00
        E 0 80 4a 00
        E 0 80 6e 00
        E 0 80 3e 00
        E 0 80 2f 00
        E 420 90 63 60
        E 0 90 57 60
        E 0 90 4b 60
        E 0 90 6f 60
        E 0 90 3f 60
        E 0 90 31 60
        E 60 80 63 00
        E 0 80 57 00
        E 0 80 4b 00
        E 0 80 6f 00
        E 0 80 3f 00
        E 0 80 31 00
        E 180 90 62 60
        E 0 90 56 60
        E 0 90 6e 60
        E 0 90 2f 60
        E 60 80 62 00
        E 0 80 56 00
        E 0 80 6e 00
        E 0 80 2f 00
        E 180 90 63 60
        E 0 90 57 60
        E 0 90 4b 60
        E 0 90 6f 60
        E 0 90 3f 60
        E 0 90 31 60
        E 60 80 63 00
        E 0 80 57 00
        E 0 80 4b 00
        E 0 80 6f 00
        E 0 80 3f 00
        E 0 80 31 00
        E 180 90 62 60
        E 0 90 56 60
        E 0 90 6e 60
        E 0 90 2f 60
        E 60 80 62 00
        E 0 80 56 00
        E 0 80 6e 00
        E 0 80 2f 00
        E 180 90 62 60
        E 0 90 56 60
        E 0 90 4a 60
        E 0 90 6e 60
        E 0 90 3e 60
        E 0 90 2f 60
        E 60 80 62 00
        E 0 80 56 00
        E 0 80 4a 00
        E 0 80 6e 00
        E 0 80 3e 00
        E 0 80 2f 00
        E 180 90 61 60
        E 0 90 63 60
        E 0 90 55 60
        E 0 90 57 60
        E 0 90 6f 60
        E 0 90 1a 60
        E 0 90 31 60
        E 60 80 61 00
        E 0 80 63 00
        E 0 80 55 00
        E 0 80 57 00
        E 0 80 6f 00
        E 0 80 1a 00
        E 0 80 31 00
        E 660 90 62 60
        E 0 90 56 60
        E 0 90 4a 60
        E 0 90 6e 60
        E 0 90 3e 60
        E 0 90 2f 60
        E 60 80 62 00
        E 0 80 56 00
        E 0 80 4a 00
        E 0 80 6e 00
        E 0 80 3e 00
        E 0 80 2f 00
        E 420 90 62 60
        E 0 90 56 60
        E 0 90 4a 60
        E 0 90 6e 60
        E 0 90 3e 60
        E 0 90 2f 60
        E 60 80 62 00
        E 0 80 56 00
        E 0 80 4a 00
        E 0 80 6e 00
        E 0 80 3e 00
        E 0 80 2f 00
        E 420 90 63 60
        E 0 90 57 60
        E 0 90 4b 60
        E 0 90 6f 60
        E 0 90 3f 60
        E 0 90 31 60
        E 60 80 63 00
        E 0 80 57 00
        E 0 80 4b 00
        E 0 80 6f 00
        E 0 80 3f 00
        E 0 80 31 00
        E 180 90 62 60
        E 0 90 56 60
        E 0 90 6e 60
        E 0 90 2f 60
        E 60 80 62 00
        E 0 80 56 00
        E 0 80 6e 00
        E 0 80 2f 00
        E 180 90 63 60
        E 0 90 57 60
        E 0 90 4b 60
        E 0 90 6f 60
        E 0 90 3f 60
        E 0 90 31 60
        E 60 80 63 00
        E 0 80 57 00
        E 0 80 4b 00
        E 0 80 6f 00
        E 0 80 3f 00
        E 0 80 31 00
        E 180 90 62 60
        E 0 90 56 60
        E 0 90 6e 60
        E 0 90 2f 60
        E 60 80 62 00
        E 0 80 56 00
        E 0 80 6e 00
        E 0 80 2f 00
        E 180 90 62 60
        E 0 90 56 60
        E 0 90 4a 60
        E 0 90 6e 60
        E 0 90 3e 60
        E 0 90 2f 60
        E 60 80 62 00
        E 0 80 56 00
        E 0 80 4a 00
        E 0 80 6e 00
        E 0 80 3e 00
        E 0 80 2f 00
        E 180 90 61 60
        E 0 90 63 60
        E 0 90 55 60
        E 0 90 57 60
        E 0 90 6f 60
        E 0 90 1a 60
        E 0 90 31 60
        E 60 80 61 00
        E 0 80 63 00
        E 0 80 55 00
        E 0 80 57 00
        E 0 80 6f 00
        E 0 80 1a 00
        E 0 80 31 00
        E 660 90 62 60
        E 0 90 56 60
        E 0 90 4a 60
        E 0 90 6e 60
        E 0 90 3e 60
        E 0 90 2f 60
        E 60 80 62 00
        E 0 80 56 00
        E 0 80 4a 00
        E 0 80 6e 00
        E 0 80 3e 00
        E 0 80 2f 00
        E 420 90 62 60
        E 0 90 56 60
        E 0 90 4a 60
        E 0 90 6e 60
        E 0 90 3e 60
        E 0 90 2f 60
        E 60 80 62 00
        E 0 80 56 00
        E 0 80 4a 00
        E 0 80 6e 00
        E 0 80 3e 00
        E 0 80 2f 00
        E 420 90 63 60
        E 0 90 57 60
        E 0 90 4b 60
        E 0 90 6f 60
        E 0 90 3f 60
        E 0 90 31 60
        E 60 80 63 00
        E 0 80 57 00
        E 0 80 4b 00
        E 0 80 6f 00
        E 0 80 3f 00
        E 0 80 31 00
        E 180 90 62 60
        E 0 90 56 60
        E 0 90 6e 60
        E 0 90 2f 60
        E 60 80 62 00
        E 0 80 56 00
        E 0 80 6e 00
        E 0 80 2f 00
        E 180 90 63 60
        E 0 90 57 60
        E 0 90 4b 60
        E 0 90 6f 60
        E 0 90 3f 60
        E 0 90 31 60
        E 60 80 63 00
        E 0 80 57 00
        E 0 80 4b 00
        E 0 80 6f 00
        E 0 80 3f 00
        E 0 80 31 00
        E 180 90 62 60
        E 0 90 56 60
        E 0 90 6e 60
        E 0 90 2f 60
        E 60 80 62 00
        E 0 80 56 00
        E 0 80 6e 00
        E 0 80 2f 00
        E 180 90 62 60
        E 0 90 56 60
        E 0 90 4a 60
        E 0 90 6e 60
        E 0 90 3e 60
        E 0 90 2f 60
        E 60 80 62 00
        E 0 80 56 00
        E 0 80 4a 00
        E 0 80 6e 00
        E 0 80 3e 00
        E 0 80 2f 00
        E 180 90 61 60
        E 0 90 63 60
        E 0 90 55 60
        E 0 90 57 60
        E 0 90 6f 60
        E 0 90 1a 60
        E 0 90 31 60
        E 60 80 61 00
        E 0 80 63 00
        E 0 80 55 00
        E 0 80 57 00
        E 0 80 6f 00
        E 0 80 1a 00
        E 0 80 31 00
        E 660 90 62 60
        E 0 90 56 60
        E 0 90 4a 60
        E 0 90 6e 60
        E 0 90 3e 60
        E 0 90 2f 60
        E 60 80 62 00
        E 0 80 56 00
        E 0 80 4a 00
        E 0 80 6e 00
        E 0 80 3e 00
        E 0 80 2f 00
        E 420 90 62 60
        E 0 90 56 60
        E 0 90 4a 60
        E 0 90 6e 60
        E 0 90 3e 60
        E 0 90 2f 60
        E 60 80 62 00
        E 0 80 56 00
        E 0 80 4a 00
        E 0 80 6e 00
        E 0 80 3e 00
        E 0 80 2f 00
        E 420 90 63 60
        E 0 90 57 60
        E 0 90 4b 60
        E 0 90 6f 60
        E 0 90 3f 60
        E 0 90 31 60
        E 60 80 63 00
        E 0 80 57 00
        E 0 80 4b 00
        E 0 80 6f 00
        E 0 80 3f 00
        E 0 80 31 00
        E 180 90 62 60
        E 0 90 56 60
        E 0 90 6e 60
        E 0 90 2f 60
        E 60 80 62 00
        E 0 80 56 00
        E 0 80 6e 00
        E 0 80 2f 00
        E 180 90 63 60
        E 0 90 57 60
        E 0 90 4b 60
        E 0 90 6f 60
        E 0 90 3f 60
        E 0 90 31 60
        E 60 80 63 00
        E 0 80 57 00
        E 0 80 4b 00
        E 0 80 6f 00
        E 0 80 3f 00
        E 0 80 31 00
        E 180 90 62 60
        E 0 90 56 60
        E 0 90 6e 60
        E 0 90 2f 60
        E 60 80 62 00
        E 0 80 56 00
        E 0 80 6e 00
        E 0 80 2f 00
        E 180 90 62 60
        E 0 90 56 60
        E 0 90 4a 60
        E 0 90 6e 60
        E 0 90 3e 60
        E 0 90 2f 60
        E 60 80 62 00
        E 0 80 56 00
        E 0 80 4a 00
        E 0 80 6e 00
        E 0 80 3e 00
        E 0 80 2f 00
        E 180 90 61 60
        E 0 90 63 60
        E 0 90 55 60
        E 0 90 57 60
        E 0 90 6f 60
        E 0 90 1a 60
        E 0 90 31 60
        E 60 80 61 00
        E 0 80 63 00
        E 0 80 55 00
        E 0 80 57 00
        E 0 80 6f 00
        E 0 80 1a 00
        E 0 80 31 00
        E 660 90 62 60
        E 0 90 56 60
        E 0 90 4a 60
        E 0 90 6e 60
        E 0 90 3e 60
        E 0 90 2f 60
        E 60 80 62 00
        E 0 80 56 00
        E 0 80 4a 00
        E 0 80 6e 00
        E 0 80 3e 00
        E 0 80 2f 00
        E 420 90 62 60
        E 0 90 56 60
        E 0 90 4a 60
        E 0 90 6e 60
        E 0 90 3e 60
        E 0 90 2f 60
        E 60 80 62 00
        E 0 80 56 00
        E 0 80 4a 00
        E 0 80 6e 00
        E 0 80 3e 00
        E 0 80 2f 00
        E 420 90 63 60
        E 0 90 57 60
        E 0 90 4b 60
        E 0 90 6f 60
        E 0 90 3f 60
        E 0 90 31 60
        E 60 80 63 00
        E 0 80 57 00
        E 0 80 4b 00
        E 0 80 6f 00
        E 0 80 3f 00
        E 0 80 31 00
        E 180 90 62 60
        E 0 90 56 60
        E 0 90 6e 60
        E 0 90 2f 60
        E 60 80 62 00
        E 0 80 56 00
        E 0 80 6e 00
        E 0 80 2f 00
        E 180 90 63 60
        E 0 90 57 60
        E 0 90 4b 60
        E 0 90 6f 60
        E 0 90 3f 60
        E 0 90 31 60
        E 60 80 63 00
        E 0 80 57 00
        E 0 80 4b 00
        E 0 80 6f 00
        E 0 80 3f 00
        E 0 80 31 00
        E 180 90 62 60
        E 0 90 56 60
        E 0 90 6e 60
        E 0 90 2f 60
        E 60 80 62 00
        E 0 80 56 00
        E 0 80 6e 00
        E 0 80 2f 00
        E 180 90 62 60
        E 0 90 56 60
        E 0 90 4a 60
        E 0 90 6e 60
        E 0 90 3e 60
        E 0 90 2f 60
        E 60 80 62 00
        E 0 80 56 00
        E 0 80 4a 00
        E 0 80 6e 00
        E 0 80 3e 00
        E 0 80 2f 00
        E 180 90 61 60
        E 0 90 63 60
        E 0 90 55 60
        E 0 90 57 60
        E 0 90 6f 60
        E 0 90 1a 60
        E 0 90 31 60
        E 60 80 61 00
        E 0 80 63 00
        E 0 80 55 00
        E 0 80 57 00
        E 0 80 6f 00
        E 0 80 1a 00
        E 0 80 31 00
        E 660 90 62 60
        E 0 90 56 60
        E 0 90 4a 60
        E 0 90 6e 60
        E 0 90 3e 60
        E 0 90 2f 60
        E 60 80 62 00
        E 0 80 56 00
        E 0 80 4a 00
        E 0 80 6e 00
        E 0 80 3e 00
        E 0 80 2f 00
        E 420 90 62 60
        E 0 90 56 60
        E 0 90 4a 60
        E 0 90 6e 60
        E 0 90 3e 60
        E 0 90 2f 60
        E 60 80 62 00
        E 0 80 56 00
        E 0 80 4a 00
        E 0 80 6e 00
        E 0 80 3e 00
        E 0 80 2f 00
        E 420 90 63 60
        E 0 90 57 60
        E 0 90 4b 60
        E 0 90 6f 60
        E 0 90 3f 60
        E 0 90 31 60
        E 60 80 63 00
        E 0 80 57 00
        E 0 80 4b 00
        E 0 80 6f 00
        E 0 80 3f 00
        E 0 80 31 00
        E 180 90 62 60
        E 0 90 56 60
        E 0 90 6e 60
        E 0 90 2f 60
        E 60 80 62 00
        E 0 80 56 00
        E 0 80 6e 00
        E 0 80 2f 00
        E 180 90 63 60
        E 0 90 57 60
        E 0 90 4b 60
        E 0 90 6f 60
        E 0 90 3f 60
        E 0 90 31 60
        E 60 80 63 00
        E 0 80 57 00
        E 0 80 4b 00
        E 0 80 6f 00
        E 0 80 3f 00
        E 0 80 31 00
        E 180 90 62 60
        E 0 90 56 60
        E 0 90 6e 60
        E 0 90 2f 60
        E 60 80 62 00
        E 0 80 56 00
        E 0 80 6e 00
        E 0 80 2f 00
        E 180 90 62 60
        E 0 90 56 60
        E 0 90 4a 60
        E 0 90 6e 60
        E 0 90 3e 60
        E 0 90 2f 60
        E 60 80 62 00
        E 0 80 56 00
        E 0 80 4a 00
        E 0 80 6e 00
        E 0 80 3e 00
        E 0 80 2f 00
        E 180 90 61 60
        E 0 90 63 60
        E 0 90 55 60
        E 0 90 57 60
        E 0 90 6f 60
        E 0 90 1a 60
        E 0 90 31 60
        E 60 80 61 00
        E 0 80 63 00
        E 0 80 55 00
        E 0 80 57 00
        E 0 80 6f 00
        E 0 80 1a 00
        E 0 80 31 00
        E 660 90 62 60
        E 0 90 56 60
        E 0 90 4a 60
        E 0 90 6e 60
        E 0 90 3e 60
        E 0 90 2f 60
        E 60 80 62 00
        E 0 80 56 00
        E 0 80 4a 00
        E 0 80 6e 00
        E 0 80 3e 00
        E 0 80 2f 00
        E 420 90 62 60
        E 0 90 56 60
        E 0 90 4a 60
        E 0 90 6e 60
        E 0 90 3e 60
        E 0 90 2f 60
        E 60 80 62 00
        E 0 80 56 00
        E 0 80 4a 00
        E 0 80 6e 00
        E 0 80 3e 00
        E 0 80 2f 00
        E 420 90 63 60
        E 0 90 57 60
        E 0 90 4b 60
        E 0 90 6f 60
        E 0 90 3f 60
        E 0 90 31 60
        E 60 80 63 00
        E 0 80 57 00
        E 0 80 4b 00
        E 0 80 6f 00
        E 0 80 3f 00
        E 0 80 31 00
        E 420 90 60 60
        E 0 90 63 60
        E 0 90 54 60
        E 0 90 57 60
        E 0 90 4b 60
        E 0 90 6f 60
        E 0 90 3f 60
        E 0 90 18 60
        E 0 90 31 60
        E 60 80 60 00
        E 0 80 63 00
        E 0 80 54 00
        E 0 80 57 00
        E 0 80 4b 00
        E 0 80 6f 00
        E 0 80 3f 00
        E 0 80 18 00
        E 0 80 31 00
        E 180 90 62 60
        E 0 90 56 60
        E 0 90 6e 60
        E 0 90 2f 60
        E 60 80 62 00
        E 0 80 56 00
        E 0 80 6e 00
        E 0 80 2f 00
        E 180 90 62 60
        E 0 90 56 60
        E 0 90 4a 60
        E 0 90 6e 60
        E 0 90 3e 60
        E 0 90 2f 60
        E 60 80 62 00
        E 0 80 56 00
        E 0 80 4a 00
        E 0 80 6e 00
        E 0 80 3e 00
        E 0 80 2f 00
        E 180 90 61 60
        E 0 90 63 60
        E 0 90 55 60
        E 0 90 57 60
        E 0 90 1a 60
        E 0 90 2a 60
        E 1 90 6f 60
        E 59 80 61 00
        E 0 80 63 00
        E 0 80 55 00
        E 0 80 57 00
        E 0 80 1a 00
        E 0 80 2a 00
        E 1 80 6f 00
        E 179 90 62 60
        E 0 90 56 60
        E 0 90 4a 60
        E 0 90 6e 60
        E 0 90 3e 60
        E 0 90 2f 60
        E 60 80 62 00
        E 0 80 56 00
        E 0 80 4a 00
        E 0 80 6e 00
        E 0 80 3e 00
        E 0 80 2f 00
        E 173 90 6e 60
        E 8 90 62 60
        E 0 90 56 60
        E 0 90 1f 60
        E 60 80 6e 00
        E 0 80 62 00
        E 0 80 56 00
        E 0 80 1f 00
        E 179 90 62 60
        E 0 90 63 60
        E 0 90 56 60
        E 0 90 57 60
        E 0 90 4a 60
        E 0 90 4b 60
        E 0 90 6e 60
        E 0 90 3e 60
        E 0 90 3f 60
        E 0 90 2e 60
        E 0 90 2a 60
        E 1 90 6f 60
        E 59 80 62 00
        E 0 80 63 00
        E 0 80 56 00
        E 0 80 57 00
        E 0 80 4a 00
        E 0 80 4b 00
        E 0 80 6e 00
        E 0 80 3e 00
        E 0 80 3f 00
        E 0 80 6f 00
        E 0 80 2e 00
        E 0 80 2a 00
        E 180 90 62 60
        E 0 90 56 60
        E 0 90 6e 60
        E 0 90 2f 60
        E 59 80 6e 00
        E 1 80 62 00
        E 0 80 56 00
        E 0 80 2f 00
        E 181 90 63 60
        E 0 90 57 60
        E 0 90 4b 60
        E 0 90 6f 60
        E 0 90 3f 60
        E 0 90 31 60
        E 60 80 63 00
        E 0 80 57 00
        E 0 80 4b 00
        E 0 80 6f 00
        E 0 80 3f 00
        E 0 80 31 00
        E 180 90 62 60
        E 0 90 56 60
        E 0 90 6e 60
        E 0 90 2f 60
        E 59 80 62 00
        E 0 80 56 00
        E 0 80 6e 00
        E 0 80 2f 00
        E 181 90 63 60
        E 0 90 57 60
        E 0 90 4b 60
        E 0 90 6f 60
        E 0 90 3f 60
        E 0 90 31 60
        E 60 80 63 00
        E 0 80 57 00
        E 0 80 4b 00
        E 0 80 6f 00
        E 0 80 3f 00
        E 0 80 31 00
        E 179 90 62 60
        E 0 90 56 60
        E 0 90 6e 60
        E 0 90 2f 60
        E 60 80 62 00
        E 0 80 56 00
        E 0 80 6e 00
        E 0 80 2f 00
        E 180 90 60 60
        E 0 90 63 60
        E 0 90 54 60
        E 0 90 57 60
        E 0 90 4b 60
        E 0 90 6f 60
        E 0 90 3f 60
        E 0 90 18 60
        E 0 90 31 60
        E 60 80 60 00
        E 0 80 63 00
        E 0 80 54 00
        E 0 80 57 00
        E 0 80 4b 00
        E 0 80 6f 00
        E 0 80 3f 00
        E 0 80 18 00
        E 0 80 31 00
        E 180 90 62 60
        E 0 90 56 60
        E 0 90 6e 60
        E 0 90 2f 60
        E 60 80 62 00
        E 0 80 56 00
        E 0 80 6e 00
        E 0 80 2f 00
        E 180 90 62 60
        E 0 90 56 60
        E 0 90 4a 60
        E 0 90 6e 60
        E 0 90 3e 60
        E 0 90 2f 60
        E 60 80 62 00
        E 0 80 56 00
        E 0 80 4a 00
        E 0 80 6e 00
        E 0 80 3e 00
        E 0 80 2f 00
        E 180 90 61 60
        E 0 90 63 60
        E 0 90 55 60
        E 0 90 57 60
        E 0 90 1a 60
        E 0 90 2a 60
        E 1 90 6f 60
        E 59 80 61 00
        E 0 80 63 00
        E 0 80 55 00
        E 0 80 57 00
        E 0 80 1a 00
        E 0 80 2a 00
        E 1 80 6f 00
        E 179 90 62 60
        E 0 90 56 60
        E 0 90 4a 60
        E 0 90 6e 60
        E 0 90 3e 60
        E 0 90 2f 60
        E 60 80 62 00
        E 0 80 56 00
        E 0 80 4a 00
        E 0 80 6e 00
        E 0 80 3e 00
        E 0 80 2f 00
        E 173 90 6e 60
        E 8 90 62 60
        E 0 90 56 60
        E 0 90 1f 60
        E 60 80 6e 00
        E 0 80 62 00
        E 0 80 56 00
        E 0 80 1f 00
        E 179 90 64 60
        E 0 90 58 60
        E 0 90 4c 60
        E 0 90 70 60
        E 0 90 40 60
        E 0 90 33 60
        E 60 80 64 00
        E 0 80 58 00
        E 0 80 4c 00
        E 0 80 70 00
        E 0 80 40 00
        E 0 80 33 00
        E 180 90 62 60
        E 0 90 74 60
        E 0 90 56 60
        E 0 90 6e 60
        E 0 90 2f 60
        E 59 80 6e 00
        E 1 80 62 00
        E 0 80 56 00
        E 0 80 2f 00
        E 181 90 63 60
        E 0 90 57 60
        E 0 90 4b 60
        E 0 90 6f 60
        E 0 90 3f 60
        E 0 90 31 60
        E 60 80 63 00
        E 0 80 57 00
        E 0 80 4b 00
        E 0 80 6f 00
        E 0 80 3f 00
        E 0 80 31 00
        E 180 90 62 60
        E 0 90 56 60
        E 0 90 6e 60
        E 0 90 2f 60
        E 59 80 62 00
        E 0 80 56 00
        E 0 80 6e 00
        E 0 80 2f 00
        E 181 90 63 60
        E 0 90 57 60
        E 0 90 4b 60
        E 0 90 6f 60
        E 0 90 3f 60
        E 0 90 31 60
        E 60 80 63 00
        E 0 80 57 00
        E 0 80 4b 00
        E 0 80 6f 00
        E 0 80 3f 00
        E 0 80 31 00
        E 179 90 62 60
        E 0 90 56 60
        E 0 90 6e 60
        E 0 90 2f 60
        E 60 80 62 00
        E 0 80 56 00
        E 0 80 6e 00
        E 0 80 2f 00
        E 180 90 60 60
        E 0 90 63 60
        E 0 90 54 60
        E 0 90 57 60
        E 0 90 4b 60
        E 0 90 6f 60
        E 0 90 3f 60
        E 0 90 18 60
        E 0 90 31 60
        E 60 80 60 00
        E 0 80 63 00
        E 0 80 54 00
        E 0 80 57 00
        E 0 80 4b 00
        E 0 80 6f 00
        E 0 80 3f 00
        E 0 80 18 00
        E 0 80 31 00
        E 180 90 62 60
        E 0 90 56 60
        E 0 90 6e 60
        E 0 90 2f 60
        E 60 80 62 00
        E 0 80 56 00
        E 0 80 6e 00
        E 0 80 2f 00
        E 180 90 62 60
        E 0 90 56 60
        E 0 90 4a 60
        E 0 90 6e 60
        E 0 90 3e 60
        E 0 90 2f 60
        E 60 80 62 00
        E 0 80 56 00
        E 0 80 4a 00
        E 0 80 6e 00
        E 0 80 3e 00
        E 0 80 2f 00
        E 180 90 61 60
        E 0 90 63 60
        E 0 90 55 60
        E 0 90 57 60
        E 0 90 1a 60
        E 0 90 2a 60
        E 1 90 6f 60
        E 59 80 61 00
        E 0 80 63 00
        E 0 80 55 00
        E 0 80 57 00
        E 0 80 1a 00
        E 0 80 2a 00
        E 1 80 6f 00
        E 179 80 74 00
        E 0 90 62 60
        E 0 90 56 60
        E 0 90 4a 60
        E 0 90 6e 60
        E 0 90 3e 60
        E 0 90 2f 60
        E 60 80 62 00
        E 0 80 56 00
        E 0 80 4a 00
        E 0 80 6e 00
        E 0 80 3e 00
        E 0 80 2f 00
        E 173 90 6e 60
        E 8 90 62 60
        E 0 90 56 60
        E 0 90 1f 60
        E 60 80 6e 00
        E 0 80 62 00
        E 0 80 56 00
        E 0 80 1f 00
        E 179 90 62 60
        E 0 90 63 60
        E 0 90 56 60
        E 0 90 57 60
        E 0 90 4a 60
        E 0 90 4b 60
        E 0 90 6e 60
        E 0 90 3e 60
        E 0 90 3f 60
        E 0 90 2e 60
        E 0 90 2a 60
        E 1 90 6f 60
        E 59 80 62 00
        E 0 80 63 00
        E 0 80 56 00
        E 0 80 57 00
        E 0 80 4a 00
        E 0 80 4b 00
        E 0 80 6e 00
        E 0 80 3e 00
        E 0 80 3f 00
        E 0 80 6f 00
        E 0 80 2e 00
        E 0 80 2a 00
        E 180 90 62 60
        E 0 90 56 60
        E 0 90 6e 60
        E 0 90 2f 60
        E 59 80 6e 00
        E 1 80 62 00
        E 0 80 56 00
        E 0 80 2f 00
        E 181 90 63 60
        E 0 90 57 60
        E 0 90 4b 60
        E 0 90 6f 60
        E 0 90 3f 60
        E 0 90 31 60
        E 60 80 63 00
        E 0 80 57 00
        E 0 80 4b 00
        E 0 80 6f 00
        E 0 80 3f 00
        E 0 80 31 00
        E 180 90 62 60
        E 0 90 56 60
        E 0 90 6e 60
        E 0 90 2f 60
        E 59 80 62 00
        E 0 80 56 00
        E 0 80 6e 00
        E 0 80 2f 00
        E 181 90 63 60
        E 0 90 57 60
        E 0 90 4b 60
        E 0 90 6f 60
        E 0 90 3f 60
        E 0 90 31 60
        E 60 80 63 00
        E 0 80 57 00
        E 0 80 4b 00
        E 0 80 6f 00
        E 0 80 3f 00
        E 0 80 31 00
        E 179 90 62 60
        E 0 90 56 60
        E 0 90 6e 60
        E 0 90 2f 60
        E 60 80 62 00
        E 0 80 56 00
        E 0 80 6e 00
        E 0 80 2f 00
        E 180 90 60 60
        E 0 90 63 60
        E 0 90 54 60
        E 0 90 57 60
        E 0 90 4b 60
        E 0 90 6f 60
        E 0 90 3f 60
        E 0 90 18 60
        E 0 90 31 60
        E 60 80 60 00
        E 0 80 63 00
        E 0 80 54 00
        E 0 80 57 00
        E 0 80 4b 00
        E 0 80 6f 00
        E 0 80 3f 00
        E 0 80 18 00
        E 0 80 31 00
        E 180 90 62 60
        E 0 90 56 60
        E 0 90 6e 60
        E 0 90 2f 60
        E 60 80 62 00
        E 0 80 56 00
        E 0 80 6e 00
        E 0 80 2f 00
        E 180 90 62 60
        E 0 90 56 60
        E 0 90 4a 60
        E 0 90 6e 60
        E 0 90 3e 60
        E 0 90 2f 60
        E 60 80 62 00
        E 0 80 56 00
        E 0 80 4a 00
        E 0 80 6e 00
        E 0 80 3e 00
        E 0 80 2f 00
        E 180 90 61 60
        E 0 90 63 60
        E 0 90 55 60
        E 0 90 57 60
        E 0 90 1a 60
        E 0 90 2a 60
        E 1 90 6f 60
        E 59 80 61 00
        E 0 80 63 00
        E 0 80 55 00
        E 0 80 57 00
        E 0 80 1a 00
        E 0 80 2a 00
        E 1 80 6f 00
        E 179 90 62 60
        E 0 90 56 60
        E 0 90 4a 60
        E 0 90 6e 60
        E 0 90 3e 60
        E 0 90 2f 60
        E 60 80 62 00
        E 0 80 56 00
        E 0 80 4a 00
        E 0 80 6e 00
        E 0 80 3e 00
        E 0 80 2f 00
        E 173 90 6e 60
        E 7 90 62 60
        E 0 90 56 60
        E 0 90 1f 60
        E 60 80 62 00
        E 0 80 56 00
        E 0 80 1f 00
        E 1 80 6e 00
        E 179 90 62 60
        E 0 90 63 60
        E 0 90 56 60
        E 0 90 57 60
        E 0 90 4a 60
        E 0 90 4b 60
        E 0 90 6e 60
        E 0 90 3e 60
        E 0 90 3f 60
        E 0 90 2e 60
        E 0 90 2a 60
        E 1 90 6f 60
        E 59 80 62 00
        E 0 80 63 00
        E 0 80 56 00
        E 0 80 57 00
        E 0 80 4a 00
        E 0 80 4b 00
        E 0 80 6e 00
        E 0 80 3e 00
        E 0 80 3f 00
        E 0 80 6f 00
        E 0 80 2e 00
        E 0 80 2a 00
        E 180 90 62 60
        E 0 90 56 60
        E 0 90 6e 60
        E 0 90 2f 60
        E 59 80 6e 00
        E 1 80 62 00
        E 0 80 56 00
        E 0 80 2f 00
        E 181 90 63 60
        E 0 90 57 60
        E 0 90 4b 60
        E 0 90 6f 60
        E 0 90 3f 60
        E 0 90 31 60
        E 60 80 63 00
        E 0 80 57 00
        E 0 80 4b 00
        E 0 80 6f 00
        E 0 80 3f 00
        E 0 80 31 00
        E 180 90 62 60
        E 0 90 56 60
        E 0 90 6e 60
        E 0 90 2f 60
        E 59 80 62 00
        E 0 80 56 00
        E 0 80 6e 00
        E 0 80 2f 00
        E 181 90 63 60
        E 0 90 57 60
        E 0 90 4b 60
        E 0 90 6f 60
        E 0 90 3f 60
        E 0 90 31 60
        E 60 80 63 00
        E 0 80 57 00
        E 0 80 4b 00
        E 0 80 6f 00
        E 0 80 3f 00
        E 0 80 31 00
        E 179 90 62 60
        E 0 90 56 60
        E 0 90 6e 60
        E 0 90 2f 60
        E 60 80 62 00
        E 0 80 56 00
        E 0 80 6e 00
        E 0 80 2f 00
        E 180 90 60 60
        E 0 90 63 60
        E 0 90 54 60
        E 0 90 57 60
        E 0 90 4b 60
        E 0 90 6f 60
        E 0 90 3f 60
        E 0 90 18 60
        E 0 90 31 60
        E 60 80 60 00
        E 0 80 63 00
        E 0 80 54 00
        E 0 80 57 00
        E 0 80 4b 00
        E 0 80 6f 00
        E 0 80 3f 00
        E 0 80 18 00
        E 0 80 31 00
        E 180 90 62 60
        E 0 90 56 60
        E 0 90 6e 60
        E 0 90 2f 60
        E 60 80 62 00
        E 0 80 56 00
        E 0 80 6e 00
        E 0 80 2f 00
        E 180 90 62 60
        E 0 90 56 60
        E 0 90 4a 60
        E 0 90 6e 60
        E 0 90 3e 60
        E 0 90 2f 60
        E 60 80 62 00
        E 0 80 56 00
        E 0 80 4a 00
        E 0 80 6e 00
        E 0 80 3e 00
        E 0 80 2f 00
        E 180 90 61 60
        E 0 90 63 60
        E 0 90 55 60
        E 0 90 57 60
        E 0 90 6f 60
        E 0 90 1a 60
        E 0 90 31 60
        E 60 80 61 00
        E 0 80 63 00
        E 0 80 55 00
        E 0 80 57 00
        E 0 80 6f 00
        E 0 80 1a 00
        E 0 80 31 00
        E 180 90 62 60
        E 0 90 56 60
        E 0 90 4a 60
        E 0 90 6e 60
        E 0 90 3e 60
        E 0 90 2f 60
        E 60 80 62 00
        E 0 80 56 00
        E 0 80 4a 00
        E 0 80 6e 00
        E 0 80 3e 00
        E 0 80 2f 00
        E 172 90 6e 60
        E 8 90 62 60
        E 0 90 56 60
        E 0 90 1f 60
        E 60 80 6e 00
        E 0 80 62 00
        E 0 80 56 00
        E 0 80 1f 00
        E 180 90 62 60
        E 0 90 63 60
        E 0 90 56 60
        E 0 90 57 60
        E 0 90 4a 60
        E 0 90 4b 60
        E 0 90 6e 60
        E 0 90 6f 60
        E 0 90 3e 60
        E 0 90 3f 60
        E 0 90 31 60
        E 0 90 2e 60
        E 59 80 6f 00
        E 1 80 62 00
        E 0 80 63 00
        E 0 80 56 00
        E 0 80 57 00
        E 0 80 4a 00
        E 0 80 4b 00
        E 0 80 6e 00
        E 0 80 3e 00
        E 0 80 3f 00
        E 0 80 31 00
        E 0 80 2e 00
        E 180 90 62 60
        E 0 90 56 60
        E 0 90 6e 60
        E 0 90 2f 60
        E 60 80 62 00
        E 0 80 56 00
        E 0 80 6e 00
        E 0 80 2f 00
        E 180 90 63 60
        E 0 90 57 60
        E 0 90 4b 60
        E 0 90 6f 60
        E 0 90 3f 60
        E 0 90 31 60
        E 60 80 63 00
        E 0 80 57 00
        E 0 80 4b 00
        E 0 80 6f 00
        E 0 80 3f 00
        E 0 80 31 00
        E 180 90 62 60
        E 0 90 56 60
        E 0 90 6e 60
        E 0 90 2f 60
        E 60 80 62 00
        E 0 80 56 00
        E 0 80 6e 00
        E 0 80 2f 00
        E 180 90 63 60
        E 0 90 57 60
        E 0 90 4b 60
        E 0 90 6f 60
        E 0 90 3f 60
        E 0 90 31 60
        E 60 80 63 00
        E 0 80 57 00
        E 0 80 4b 00
        E 0 80 6f 00
        E 0 80 3f 00
        E 0 80 31 00
        E 180 90 62 60
        E 0 90 56 60
        E 0 90 6e 60
        E 0 90 2f 60
        E 60 80 62 00
        E 0 80 56 00
        E 0 80 6e 00
        E 0 80 2f 00
        E 180 90 60 60
        E 0 90 63 60
        E 0 90 54 60
        E 0 90 57 60
        E 0 90 4b 60
        E 0 90 6f 60
        E 0 90 3f 60
        E 0 90 18 60
        E 0 90 31 60
        E 60 80 60 00
        E 0 80 63 00
        E 0 80 54 00
        E 0 80 57 00
        E 0 80 4b 00
        E 0 80 6f 00
        E 0 80 3f 00
        E 0 80 18 00
        E 0 80 31 00
        E 180 90 62 60
        E 0 90 56 60
        E 0 90 6e 60
        E 0 90 2f 60
        E 60 80 62 00
        E 0 80 56 00
        E 0 80 6e 00
        E 0 80 2f 00
        E 180 90 62 60
        E 0 90 56 60
        E 0 90 4a 60
        E 0 90 6e 60
        E 0 90 3e 60
        E 0 90 2f 60
        E 60 80 62 00
        E 0 80 56 00
        E 0 80 4a 00
        E 0 80 6e 00
        E 0 80 3e 00
        E 0 80 2f 00
        E 180 90 61 60
        E 0 90 63 60
        E 0 90 55 60
        E 0 90 57 60
        E 0 90 6f 60
        E 0 90 1a 60
        E 0 90 31 60
        E 60 80 61 00
        E 0 80 63 00
        E 0 80 55 00
        E 0 80 57 00
        E 0 80 6f 00
        E 0 80 1a 00
        E 0 80 31 00
        E 180 90 62 60
        E 0 90 56 60
        E 0 90 4a 60
        E 0 90 6e 60
        E 0 90 3e 60
        E 0 90 2f 60
        E 60 80 62 00
        E 0 80 56 00
        E 0 80 4a 00
        E 0 80 6e 00
        E 0 80 3e 00
        E 0 80 2f 00
        E 172 90 6e 60
        E 8 90 62 60
        E 0 90 56 60
        E 0 90 1f 60
        E 60 80 6e 00
        E 0 80 62 00
        E 0 80 56 00
        E 0 80 1f 00
        E 180 90 64 60
        E 0 90 58 60
        E 0 90 4c 60
        E 0 90 70 60
        E 0 90 40 60
        E 0 90 33 60
        E 59 80 70 00
        E 1 80 64 00
        E 0 80 58 00
        E 0 80 4c 00
        E 0 80 40 00
        E 0 80 33 00
        E 180 90 62 60
        E 0 90 56 60
        E 0 90 6e 60
        E 0 90 2f 60
        E 60 80 62 00
        E 0 80 56 00
        E 0 80 6e 00
        E 0 80 2f 00
        E 180 90 63 60
        E 0 90 57 60
        E 0 90 4b 60
        E 0 90 6f 60
        E 0 90 3f 60
        E 0 90 31 60
        E 60 80 63 00
        E 0 80 57 00
        E 0 80 4b 00
        E 0 80 6f 00
        E 0 80 3f 00
        E 0 80 31 00
        E 180 90 62 60
        E 0 90 56 60
        E 0 90 6e 60
        E 0 90 2f 60
        E 60 80 62 00
        E 0 80 56 00
        E 0 80 6e 00
        E 0 80 2f 00
        E 180 90 63 60
        E 0 90 57 60
        E 0 90 4b 60
        E 0 90 6f 60
        E 0 90 3f 60
        E 0 90 31 60
        E 60 80 63 00
        E 0 80 57 00
        E 0 80 4b 00
        E 0 80 6f 00
        E 0 80 3f 00
        E 0 80 31 00
        E 180 90 62 60
        E 0 90 56 60
        E 0 90 6e 60
        E 0 90 2f 60
        E 60 80 62 00
        E 0 80 56 00
        E 0 80 6e 00
        E 0 80 2f 00
        E 180 90 63 60
        E 0 90 57 60
        E 0 90 4b 60
        E 0 90 6f 60
        E 0 90 3f 60
        E 0 90 31 60
        E 60 80 63 00
        E 0 80 57 00
        E 0 80 4b 00
        E 0 80 6f 00
        E 0 80 3f 00
        E 0 80 31 00
        E 180 90 62 60
        E 0 90 56 60
        E 0 90 6e 60
        E 0 90 2f 60
        E 60 80 62 00
        E 0 80 56 00
        E 0 80 6e 00
        E 0 80 2f 00
        E 180 90 62 60
        E 0 90 56 60
        E 0 90 4a 60
        E 0 90 6e 60
        E 0 90 3e 60
        E 0 90 2f 60
        E 60 80 62 00
        E 0 80 56 00
        E 0 80 4a 00
        E 0 80 6e 00
        E 0 80 3e 00
        E 0 80 2f 00
        E 180 90 61 60
        E 0 90 63 60
        E 0 90 55 60
        E 0 90 57 60
        E 0 90 6f 60
        E 0 90 1a 60
        E 0 90 31 60
        E 60 80 61 00
        E 0 80 63 00
        E 0 80 55 00
        E 0 80 57 00
        E 0 80 6f 00
        E 0 80 1a 00
        E 0 80 31 00
        E 660 90 62 60
        E 0 90 56 60
        E 0 90 4a 60
        E 0 90 6e 60
        E 0 90 3e 60
        E 0 90 2f 60
        E 60 80 62 00
        E 0 80 56 00
        E 0 80 4a 00
        E 0 80 6e 00
        E 0 80 3e 00
        E 0 80 2f 00
        E 420 90 63 60
        E 0 90 57 60
        E 0 90 4b 60
        E 0 90 6f 60
        E 0 90 3f 60
        E 0 90 31 60
        E 60 80 63 00
        E 0 80 57 00
        E 0 80 4b 00
        E 0 80 6f 00
        E 0 80 3f 00
        E 0 80 31 00
        E 420 90 63 60
        E 0 90 57 60
        E 0 90 4b 60
        E 0 90 6f 60
        E 0 90 3f 60
        E 0 90 31 60
        E 60 80 63 00
        E 0 80 57 00
        E 0 80 4b 00
        E 0 80 6f 00
        E 0 80 3f 00
        E 0 80 31 00
        E 420 90 63 60
        E 0 90 57 60
        E 0 90 4b 60
        E 0 90 6f 60
        E 0 90 3f 60
        E 0 90 31 60
        E 60 80 63 00
        E 0 80 57 00
        E 0 80 4b 00
        E 0 80 6f 00
        E 0 80 3f 00
        E 0 80 31 00
        E 2820 90 62 60
        E 0 90 56 60
        E 0 90 4a 60
        E 0 90 6e 60
        E 0 90 3e 60
        E 0 90 2f 60
        E 60 80 62 00
        E 0 80 56 00
        E 0 80 4a 00
        E 0 80 6e 00
        E 0 80 3e 00
        E 0 80 2f 00
        E 660 90 63 60
        E 0 90 57 60
        E 0 90 4b 60
        E 0 90 6f 60
        E 0 90 3f 60
        E 0 90 31 60
        E 60 80 63 00
        E 0 80 57 00
        E 0 80 4b 00
        E 0 80 6f 00
        E 0 80 3f 00
        E 0 80 31 00
        E 660 90 62 60
        E 0 90 56 60
        E 0 90 4a 60
        E 0 90 6e 60
        E 0 90 3e 60
        E 0 90 2f 60
        E 60 80 62 00
        E 0 80 56 00
        E 0 80 4a 00
        E 0 80 6e 00
        E 0 80 3e 00
        E 0 80 2f 00
        E 420 90 63 60
        E 0 90 57 60
        E 0 90 4b 60
        E 0 90 6f 60
        E 0 90 3f 60
        E 0 90 31 60
        E 60 80 63 00
        E 0 80 57 00
        E 0 80 4b 00
        E 0 80 6f 00
        E 0 80 3f 00
        E 0 80 31 00
        E 420 90 62 60
        E 0 90 56 60
        E 0 90 4a 60
        E 0 90 6e 60
        E 0 90 3e 60
        E 0 90 2f 60
        E 60 80 62 00
        E 0 80 56 00
        E 0 80 4a 00
        E 0 80 6e 00
        E 0 80 3e 00
        E 0 80 2f 00
        E 420 90 62 60
        E 0 90 56 60
        E 0 90 4a 60
        E 0 90 6e 60
        E 0 90 3e 60
        E 0 90 2f 60
        E 60 80 62 00
        E 0 80 56 00
        E 0 80 4a 00
        E 0 80 6e 00
        E 0 80 3e 00
        E 0 80 2f 00
        E 660 90 61 60
        E 0 90 63 60
        E 0 90 55 60
        E 0 90 57 60
        E 0 90 49 60
        E 0 90 4b 60
        E 0 90 6f 60
        E 0 90 3d 60
        E 0 90 3f 60
        E 0 90 1a 60
        E 0 90 31 60
        E 60 80 61 00
        E 0 80 63 00
        E 0 80 55 00
        E 0 80 57 00
        E 0 80 49 00
        E 0 80 4b 00
        E 0 80 6f 00
        E 0 80 3d 00
        E 0 80 3f 00
        E 0 80 1a 00
        E 0 80 31 00
        E 660 90 62 60
        E 0 90 56 60
        E 0 90 4a 60
        E 0 90 6e 60
        E 0 90 3e 60
        E 0 90 2f 60
        E 60 80 62 00
        E 0 80 56 00
        E 0 80 4a 00
        E 0 80 6e 00
        E 0 80 3e 00
        E 0 80 2f 00
        E 420 90 63 60
        E 0 90 57 60
        E 0 90 4b 60
        E 0 90 6f 60
        E 0 90 3f 60
        E 0 90 31 60
        E 60 80 63 00
        E 0 80 57 00
        E 0 80 4b 00
        E 0 80 6f 00
        E 0 80 3f 00
        E 0 80 31 00
        E 420 90 62 60
        E 0 90 56 60
        E 0 90 4a 60
        E 0 90 6e 60
        E 0 90 3e 60
        E 0 90 2f 60
        E 60 80 62 00
        E 0 80 56 00
        E 0 80 4a 00
        E 0 80 6e 00
        E 0 80 3e 00
        E 0 80 2f 00
        E 660 90 62 60
        E 0 90 56 60
        E 0 90 4a 60
        E 0 90 6e 60
        E 0 90 3e 60
        E 0 90 2f 60
        E 60 80 62 00
        E 0 80 56 00
        E 0 80 4a 00
        E 0 80 6e 00
        E 0 80 3e 00
        E 0 80 2f 00
        E 420 90 61 60
        E 0 90 63 60
        E 0 90 55 60
        E 0 90 57 60
        E 0 90 49 60
        E 0 90 4b 60
        E 0 90 6f 60
        E 0 90 3d 60
        E 0 90 3f 60
        E 0 90 1a 60
        E 0 90 31 60
        E 60 80 61 00
        E 0 80 63 00
        E 0 80 55 00
        E 0 80 57 00
        E 0 80 49 00
        E 0 80 4b 00
        E 0 80 6f 00
        E 0 80 3d 00
        E 0 80 3f 00
        E 0 80 1a 00
        E 0 80 31 00
        E 660 90 62 60
        E 0 90 56 60
        E 0 90 4a 60
        E 0 90 6e 60
        E 0 90 3e 60
        E 0 90 2f 60
        E 60 80 62 00
        E 0 80 56 00
        E 0 80 4a 00
        E 0 80 6e 00
        E 0 80 3e 00
        E 0 80 2f 00
        E 420 90 63 60
        E 0 90 57 60
        E 0 90 4b 60
        E 0 90 6f 60
        E 0 90 3f 60
        E 0 90 31 60
        E 60 80 63 00
        E 0 80 57 00
        E 0 80 4b 00
        E 0 80 6f 00
        E 0 80 3f 00
        E 0 80 31 00
        E 420 90 62 60
        E 0 90 78 61
        E 0 90 79 61
        E 0 90 7a 61
        E 0 90 7b 61
        E 0 90 7c 61
        E 0 90 56 60
        E 0 90 4a 60
        E 0 90 6e 60
        E 0 90 3e 60
        E 0 90 2f 60
        E 60 80 62 00
        E 0 80 56 00
        E 0 80 4a 00
        E 0 80 6e 00
        E 0 80 3e 00
        E 0 80 2f 00
        E 420 90 62 60
        E 0 90 56 60
        E 0 90 4a 60
        E 0 90 6e 60
        E 0 90 3e 60
        E 0 90 2f 60
        E 60 80 62 00
        E 0 80 56 00
        E 0 80 4a 00
        E 0 80 6e 00
        E 0 80 3e 00
        E 0 80 2f 00
        E 660 80 78 00
        E 0 80 79 00
        E 0 80 7a 00
        E 0 80 7b 00
        E 0 80 7c 00
        E 0 90 61 60
        E 0 90 63 60
        E 0 90 55 60
        E 0 90 57 60
        E 0 90 49 60
        E 0 90 4b 60
        E 0 90 6f 60
        E 0 90 3d 60
        E 0 90 3f 60
        E 0 90 1a 60
        E 0 90 31 60
        E 60 80 61 00
        E 0 80 63 00
        E 0 80 55 00
        E 0 80 57 00
        E 0 80 49 00
        E 0 80 4b 00
        E 0 80 6f 00
        E 0 80 3d 00
        E 0 80 3f 00
        E 0 80 1a 00
        E 0 80 31 00
        E 660 90 62 60
        E 0 90 56 60
        E 0 90 4a 60
        E 0 90 6e 60
        E 0 90 3e 60
        E 0 90 2f 60
        E 60 80 62 00
        E 0 80 56 00
        E 0 80 4a 00
        E 0 80 6e 00
        E 0 80 3e 00
        E 0 80 2f 00
        E 420 90 63 60
        E 0 90 57 60
        E 0 90 4b 60
        E 0 90 6f 60
        E 0 90 3f 60
        E 0 90 31 60
        E 60 80 63 00
        E 0 80 57 00
        E 0 80 4b 00
        E 0 80 6f 00
        E 0 80 3f 00
        E 0 80 31 00
        E 420 90 63 60
        E 0 90 57 60
        E 0 90 4b 60
        E 0 90 6f 60
        E 0 90 3f 60
        E 0 90 31 60
        E 60 80 63 00
        E 0 80 57 00
        E 0 80 4b 00
        E 0 80 6f 00
        E 0 80 3f 00
        E 0 80 31 00
        E 180 90 62 60
        E 0 90 56 60
        E 0 90 6e 60
        E 0 90 2f 60
        E 60 80 62 00
        E 0 80 56 00
        E 0 80 6e 00
        E 0 80 2f 00
        E 420 90 62 60
        E 0 90 56 60
        E 0 90 4a 60
        E 0 90 6e 60
        E 0 90 3e 60
        E 0 90 2f 60
        E 60 80 62 00
        E 0 80 56 00
        E 0 80 4a 00
        E 0 80 6e 00
        E 0 80 3e 00
        E 0 80 2f 00
        E 420 90 61 60
        E 0 90 63 60
        E 0 90 55 60
        E 0 90 57 60
        E 0 90 49 60
        E 0 90 4b 60
        E 0 90 6f 60
        E 0 90 3d 60
        E 0 90 3f 60
        E 0 90 1a 60
        E 0 90 31 60
        E 60 80 61 00
        E 0 80 63 00
        E 0 80 55 00
        E 0 80 57 00
        E 0 80 49 00
        E 0 80 4b 00
        E 0 80 6f 00
        E 0 80 3d 00
        E 0 80 3f 00
        E 0 80 1a 00
        E 0 80 31 00
        E 1140 90 63 60
        E 0 90 57 60
        E 0 90 4b 60
        E 0 90 6f 60
        E 0 90 3f 60
        E 0 90 31 60
        E 60 80 63 00
        E 0 80 57 00
        E 0 80 4b 00
        E 0 80 6f 00
        E 0 80 3f 00
        E 0 80 31 00
        E 420 90 62 60
        E 0 90 56 60
        E 0 90 4a 60
        E 0 90 6e 60
        E 0 90 3e 60
        E 0 90 2f 60
        E 60 80 62 00
        E 0 80 56 00
        E 0 80 4a 00
        E 0 80 6e 00
        E 0 80 3e 00
        E 0 80 2f 00
        E 660 90 62 60
        E 0 90 56 60
        E 0 90 4a 60
        E 0 90 6e 60
        E 0 90 3e 60
        E 0 90 2f 60
        E 60 80 62 00
        E 0 80 56 00
        E 0 80 4a 00
        E 0 80 6e 00
        E 0 80 3e 00
        E 0 80 2f 00
        E 420 90 61 60
        E 0 90 63 60
        E 0 90 55 60
        E 0 90 57 60
        E 0 90 49 60
        E 0 90 4b 60
        E 0 90 6f 60
        E 0 90 3d 60
        E 0 90 3f 60
        E 0 90 1a 60
        E 0 90 31 60
        E 60 80 61 00
        E 0 80 63 00
        E 0 80 55 00
        E 0 80 57 00
        E 0 80 49 00
        E 0 80 4b 00
        E 0 80 6f 00
        E 0 80 3d 00
        E 0 80 3f 00
        E 0 80 1a 00
        E 0 80 31 00
        E 158 90 74 61
        E 982 90 62 60
        E 0 90 56 60
        E 0 90 4a 60
        E 0 90 6e 60
        E 0 90 3e 60
        E 0 90 2f 60
        E 60 80 62 00
        E 0 80 56 00
        E 0 80 4a 00
        E 0 80 6e 00
        E 0 80 3e 00
        E 0 80 2f 00
        E 420 90 62 60
        E 0 90 56 60
        E 0 90 4a 60
        E 0 90 6e 60
        E 0 90 3e 60
        E 0 90 2f 60
        E 60 80 62 00
        E 0 80 56 00
        E 0 80 4a 00
        E 0 80 6e 00
        E 0 80 3e 00
        E 0 80 2f 00
        E 420 90 62 60
        E 0 90 56 60
        E 0 90 4a 60
        E 0 90 6e 60
        E 0 90 3e 60
        E 0 90 2f 60
        E 60 80 62 00
        E 0 80 56 00
        E 0 80 4a 00
        E 0 80 6e 00
        E 0 80 3e 00
        E 0 80 2f 00
        E 660 90 61 60
        E 0 90 63 60
        E 0 90 55 60
        E 0 90 57 60
        E 0 90 49 60
        E 0 90 4b 60
        E 0 90 6f 60
        E 0 90 3d 60
        E 0 90 3f 60
        E 0 90 1a 60
        E 0 90 31 60
        E 60 80 61 00
        E 0 80 63 00
        E 0 80 55 00
        E 0 80 57 00
        E 0 80 49 00
        E 0 80 4b 00
        E 0 80 6f 00
        E 0 80 3d 00
        E 0 80 3f 00
        E 0 80 1a 00
        E 0 80 31 00
        E 660 90 62 60
        E 0 90 56 60
        E 0 90 4a 60
        E 0 90 6e 60
        E 0 90 3e 60
        E 0 90 2f 60
        E 60 80 62 00
        E 0 80 56 00
        E 0 80 4a 00
        E 0 80 6e 00
        E 0 80 3e 00
        E 0 80 2f 00
        E 420 90 62 60
        E 0 90 56 60
        E 0 90 4a 60
        E 0 90 6e 60
        E 0 90 3e 60
        E 0 90 2f 60
        E 60 80 62 00
        E 0 80 56 00
        E 0 80 4a 00
        E 0 80 6e 00
        E 0 80 3e 00
        E 0 80 2f 00
        E 420 90 62 60
        E 0 90 56 60
        E 0 90 4a 60
        E 0 90 6e 60
        E 0 90 3e 60
        E 0 90 2f 60
        E 60 80 62 00
        E 0 80 56 00
        E 0 80 4a 00
        E 0 80 6e 00
        E 0 80 3e 00
        E 0 80 2f 00
        E 420 90 62 60
        E 0 90 56 60
        E 0 90 4a 60
        E 0 90 6e 60
        E 0 90 3e 60
        E 0 90 2f 60
        E 60 80 62 00
        E 0 80 56 00
        E 0 80 4a 00
        E 0 80 6e 00
        E 0 80 3e 00
        E 0 80 2f 00
        E 660 90 61 60
        E 0 90 63 60
        E 0 90 55 60
        E 0 90 57 60
        E 0 90 49 60
        E 0 90 4b 60
        E 0 90 6f 60
        E 0 90 3d 60
        E 0 90 3f 60
        E 0 90 1a 60
        E 0 90 31 60
        E 60 80 61 00
        E 0 80 63 00
        E 0 80 55 00
        E 0 80 57 00
        E 0 80 49 00
        E 0 80 4b 00
        E 0 80 6f 00
        E 0 80 3d 00
        E 0 80 3f 00
        E 0 80 1a 00
        E 0 80 31 00
        E 180 80 74 00
        E 480 90 62 60
        E 0 90 56 60
        E 0 90 4a 60
        E 0 90 6e 60
        E 0 90 3e 60
        E 0 90 2f 60
        E 60 80 62 00
        E 0 80 56 00
        E 0 80 4a 00
        E 0 80 6e 00
        E 0 80 3e 00
        E 0 80 2f 00
        E 420 90 62 60
        E 0 90 56 60
        E 0 90 4a 60
        E 0 90 6e 60
        E 0 90 3e 60
        E 0 90 2f 60
        E 60 80 62 00
        E 0 80 56 00
        E 0 80 4a 00
        E 0 80 6e 00
        E 0 80 3e 00
        E 0 80 2f 00
        E 180 90 62 60
        E 0 90 56 60
        E 0 90 6e 60
        E 0 90 2f 60
        E 60 80 62 00
        E 0 80 56 00
        E 0 80 6e 00
        E 0 80 2f 00
        E 180 90 63 60
        E 0 90 57 60
        E 0 90 4b 60
        E 0 90 6f 60
        E 0 90 3f 60
        E 0 90 31 60
        E 60 80 63 00
        E 0 80 57 00
        E 0 80 4b 00
        E 0 80 6f 00
        E 0 80 3f 00
        E 0 80 31 00
        E 420 90 60 60
        E 0 90 61 60
        E 0 90 54 60
        E 0 90 55 60
        E 0 90 49 60
        E 0 90 3d 60
        E 0 90 18 60
        E 0 90 1a 60
        E 60 80 60 00
        E 0 80 61 00
        E 0 80 54 00
        E 0 80 55 00
        E 0 80 49 00
        E 0 80 3d 00
        E 0 80 18 00
        E 0 80 1a 00
        E 660 90 63 60
        E 0 90 57 60
        E 0 90 4b 60
        E 0 90 6f 60
        E 0 90 3f 60
        E 0 90 31 60
        E 60 80 63 00
        E 0 80 57 00
        E 0 80 4b 00
        E 0 80 6f 00
        E 0 80 3f 00
        E 0 80 31 00
        E 420 90 62 60
        E 0 90 56 60
        E 0 90 6e 60
        E 0 90 2f 60
        E 60 80 62 00
        E 0 80 56 00
        E 0 80 6e 00
        E 0 80 2f 00
        E 180 90 61 60
        E 0 90 63 60
        E 0 90 55 60
        E 0 90 57 60
        E 0 90 49 60
        E 0 90 4b 60
        E 0 90 6f 60
        E 0 90 3d 60
        E 0 90 3f 60
        E 0 90 1a 60
        E 0 90 31 60
        E 59 80 6f 00
        E 1 80 61 00
        E 0 80 63 00
        E 0 80 55 00
        E 0 80 57 00
        E 0 80 49 00
        E 0 80 4b 00
        E 0 80 3d 00
        E 0 80 3f 00
        E 0 80 1a 00
        E 0 80 31 00
        E 420 90 63 60
        E 0 90 57 60
        E 0 90 4b 60
        E 0 90 6f 60
        E 0 90 3f 60
        E 0 90 31 60
        E 60 80 63 00
        E 0 80 57 00
        E 0 80 4b 00
        E 0 80 6f 00
        E 0 80 3f 00
        E 0 80 31 00
        E 420 90 62 60
        E 0 90 56 60
        E 0 90 4a 60
        E 0 90 6e 60
        E 0 90 3e 60
        E 0 90 2f 60
        E 60 80 62 00
        E 0 80 56 00
        E 0 80 4a 00
        E 0 80 6e 00
        E 0 80 3e 00
        E 0 80 2f 00
        E 420 90 60 60
        E 0 90 61 60
        E 0 90 54 60
        E 0 90 55 60
        E 0 90 49 60
        E 0 90 3d 60
        E 0 90 18 60
        E 0 90 1a 60
        E 60 80 60 00
        E 0 80 61 00
        E 0 80 54 00
        E 0 80 55 00
        E 0 80 49 00
        E 0 80 3d 00
        E 0 80 18 00
        E 0 80 1a 00
        E 660 90 63 60
        E 0 90 57 60
        E 0 90 4b 60
        E 0 90 6f 60
        E 0 90 3f 60
        E 0 90 31 60
        E 60 80 63 00
        E 0 80 57 00
        E 0 80 4b 00
        E 0 80 6f 00
        E 0 80 3f 00
        E 0 80 31 00
        E 420 90 62 60
        E 0 90 56 60
        E 0 90 6e 60
        E 0 90 2f 60
        E 60 80 62 00
        E 0 80 56 00
        E 0 80 6e 00
        E 0 80 2f 00
        E 180 90 61 60
        E 0 90 63 60
        E 0 90 55 60
        E 0 90 57 60
        E 0 90 49 60
        E 0 90 4b 60
        E 0 90 6f 60
        E 0 90 3d 60
        E 0 90 3f 60
        E 0 90 1a 60
        E 0 90 31 60
        E 59 80 6f 00
        E 1 80 61 00
        E 0 80 63 00
        E 0 80 55 00
        E 0 80 57 00
        E 0 80 49 00
        E 0 80 4b 00
        E 0 80 3d 00
        E 0 80 3f 00
        E 0 80 1a 00
        E 0 80 31 00
        E 180 90 62 60
        E 0 90 78 61
        E 0 90 79 61
        E 0 90 7a 61
        E 0 90 7b 61
        E 0 90 7c 61
        E 0 90 56 60
        E 0 90 1f 60
        E 60 80 62 00
        E 0 80 56 00
        E 0 80 1f 00
        E 180 90 62 60
        E 0 90 56 60
        E 0 90 4a 60
        E 0 90 3e 60
        E 0 90 1f 60
        E 60 80 62 00
        E 0 80 56 00
        E 0 80 4a 00
        E 0 80 3e 00
        E 0 80 1f 00
        E 180 90 62 60
        E 0 90 56 60
        E 0 90 1f 60
        E 60 80 62 00
        E 0 80 56 00
        E 0 80 1f 00
        E 180 90 62 60
        E 0 90 56 60
        E 0 90 4a 60
        E 0 90 3e 60
        E 0 90 1f 60
        E 60 80 62 00
        E 0 80 56 00
        E 0 80 4a 00
        E 0 80 3e 00
        E 0 80 1f 00
        E 420 80 78 00
        E 0 80 79 00
        E 0 80 7a 00
        E 0 80 7b 00
        E 0 80 7c 00
        E 0 90 60 60
        E 0 90 61 60
        E 0 90 54 60
        E 0 90 55 60
        E 0 90 49 60
        E 0 90 3d 60
        E 0 90 18 60
        E 0 90 1a 60
        E 60 80 60 00
        E 0 80 61 00
        E 0 80 54 00
        E 0 80 55 00
        E 0 80 49 00
        E 0 80 3d 00
        E 0 80 18 00
        E 0 80 1a 00
        E 660 90 63 60
        E 0 90 57 60
        E 0 90 4b 60
        E 0 90 6f 60
        E 0 90 3f 60
        E 0 90 31 60
        E 60 80 63 00
        E 0 80 57 00
        E 0 80 4b 00
        E 0 80 6f 00
        E 0 80 3f 00
        E 0 80 31 00
        E 420 90 62 60
        E 0 90 56 60
        E 0 90 6e 60
        E 0 90 2f 60
        E 60 80 62 00
        E 0 80 56 00
        E 0 80 6e 00
        E 0 80 2f 00
        E 180 90 61 60
        E 0 90 63 60
        E 0 90 55 60
        E 0 90 57 60
        E 0 90 49 60
        E 0 90 4b 60
        E 0 90 6f 60
        E 0 90 3d 60
        E 0 90 3f 60
        E 0 90 1a 60
        E 0 90 31 60
        E 59 80 6f 00
        E 1 80 61 00
        E 0 80 63 00
        E 0 80 55 00
        E 0 80 57 00
        E 0 80 49 00
        E 0 80 4b 00
        E 0 80 3d 00
        E 0 80 3f 00
        E 0 80 1a 00
        E 0 80 31 00
        E 420 90 63 60
        E 0 90 57 60
        E 0 90 4b 60
        E 0 90 6f 60
        E 0 90 3f 60
        E 0 90 31 60
        E 60 80 63 00
        E 0 80 57 00
        E 0 80 4b 00
        E 0 80 6f 00
        E 0 80 3f 00
        E 0 80 31 00
        E 420 90 61 60
        E 0 90 55 60
        E 0 90 49 60
        E 0 90 3d 60
        E 0 90 1a 60
        E 60 80 61 00
        E 0 80 55 00
        E 0 80 49 00
        E 0 80 3d 00
        E 0 80 1a 00
        E 420 90 60 60
        E 0 90 61 60
        E 0 90 54 60
        E 0 90 55 60
        E 0 90 49 60
        E 0 90 3d 60
        E 0 90 18 60
        E 0 90 1a 60
        E 60 80 60 00
        E 0 80 61 00
        E 0 80 54 00
        E 0 80 55 00
        E 0 80 49 00
        E 0 80 3d 00
        E 0 80 18 00
        E 0 80 1a 00
        E 660 90 63 60
        E 0 90 57 60
        E 0 90 4b 60
        E 0 90 6f 60
        E 0 90 3f 60
        E 0 90 31 60
        E 60 80 63 00
        E 0 80 57 00
        E 0 80 4b 00
        E 0 80 6f 00
        E 0 80 3f 00
        E 0 80 31 00
        E 420 90 62 60
        E 0 90 56 60
        E 0 90 6e 60
        E 0 90 2f 60
        E 60 80 62 00
        E 0 80 56 00
        E 0 80 6e 00
        E 0 80 2f 00
        E 180 90 61 60
        E 0 90 63 60
        E 0 90 55 60
        E 0 90 57 60
        E 0 90 49 60
        E 0 90 4b 60
        E 0 90 6f 60
        E 0 90 3d 60
        E 0 90 3f 60
        E 0 90 1a 60
        E 0 90 31 60
        E 60 80 61 00
        E 0 80 63 00
        E 0 80 55 00
        E 0 80 57 00
        E 0 80 49 00
        E 0 80 4b 00
        E 0 80 6f 00
        E 0 80 3d 00
        E 0 80 3f 00
        E 0 80 1a 00
        E 0 80 31 00
        E 180 90 62 60
        E 0 90 56 60
        E 0 90 1f 60
        E 60 80 62 00
        E 0 80 56 00
        E 0 80 1f 00
        E 180 90 62 60
        E 0 90 56 60
        E 0 90 4a 60
        E 0 90 3e 60
        E 0 90 1f 60
        E 60 80 62 00
        E 0 80 56 00
        E 0 80 4a 00
        E 0 80 3e 00
        E 0 80 1f 00
        E 180 90 62 60
        E 0 90 56 60
        E 0 90 1f 60
        E 60 80 62 00
        E 0 80 56 00
        E 0 80 1f 00
        E 180 90 61 60
        E 0 90 55 60
        E 0 90 49 60
        E 0 90 3d 60
        E 0 90 1a 60
        E 60 80 61 00
        E 0 80 55 00
        E 0 80 49 00
        E 0 80 3d 00
        E 0 80 1a 00
        E 420 90 60 60
        E 0 90 61 60
        E 0 90 54 60
        E 0 90 55 60
        E 0 90 49 60
        E 0 90 3d 60
        E 0 90 18 60
        E 0 90 1a 60
        E 60 80 60 00
        E 0 80 61 00
        E 0 80 54 00
        E 0 80 55 00
        E 0 80 49 00
        E 0 80 3d 00
        E 0 80 18 00
        E 0 80 1a 00
        E 660 90 63 60
        E 0 90 57 60
        E 0 90 4b 60
        E 0 90 6f 60
        E 0 90 3f 60
        E 0 90 31 60
        E 60 80 63 00
        E 0 80 57 00
        E 0 80 4b 00
        E 0 80 6f 00
        E 0 80 3f 00
        E 0 80 31 00
        E 420 90 62 60
        E 0 90 56 60
        E 0 90 6e 60
        E 0 90 2f 60
        E 60 80 62 00
        E 0 80 56 00
        E 0 80 6e 00
        E 0 80 2f 00
        E 180 90 61 60
        E 0 90 63 60
        E 0 90 55 60
        E 0 90 57 60
        E 0 90 49 60
        E 0 90 4b 60
        E 0 90 6f 60
        E 0 90 3d 60
        E 0 90 3f 60
        E 0 90 1a 60
        E 0 90 31 60
        E 60 80 61 00
        E 0 80 63 00
        E 0 80 55 00
        E 0 80 57 00
        E 0 80 49 00
        E 0 80 4b 00
        E 0 80 6f 00
        E 0 80 3d 00
        E 0 80 3f 00
        E 0 80 1a 00
        E 0 80 31 00
        E 420 90 63 60
        E 0 90 57 60
        E 0 90 4b 60
        E 0 90 6f 60
        E 0 90 3f 60
        E 0 90 31 60
        E 60 80 63 00
        E 0 80 57 00
        E 0 80 4b 00
        E 0 80 6f 00
        E 0 80 3f 00
        E 0 80 31 00
        E 420 90 61 60
        E 0 90 55 60
        E 0 90 49 60
        E 0 90 3d 60
        E 0 90 1a 60
        E 60 80 61 00
        E 0 80 55 00
        E 0 80 49 00
        E 0 80 3d 00
        E 0 80 1a 00
        E 420 90 60 60
        E 0 90 61 60
        E 0 90 54 60
        E 0 90 55 60
        E 0 90 49 60
        E 0 90 3d 60
        E 0 90 18 60
        E 0 90 1a 60
        E 60 80 60 00
        E 0 80 61 00
        E 0 80 54 00
        E 0 80 55 00
        E 0 80 49 00
        E 0 80 3d 00
        E 0 80 18 00
        E 0 80 1a 00
        E 660 90 63 60
        E 0 90 57 60
        E 0 90 4b 60
        E 0 90 6f 60
        E 0 90 3f 60
        E 0 90 31 60
        E 60 80 63 00
        E 0 80 57 00
        E 0 80 4b 00
        E 0 80 6f 00
        E 0 80 3f 00
        E 0 80 31 00
        E 420 90 62 60
        E 0 90 56 60
        E 0 90 6e 60
        E 0 90 2f 60
        E 60 80 62 00
        E 0 80 56 00
        E 0 80 6e 00
        E 0 80 2f 00
        E 121 90 74 61
        E 59 90 61 60
        E 0 90 63 60
        E 0 90 55 60
        E 0 90 57 60
        E 0 90 49 60
        E 0 90 4b 60
        E 0 90 6f 60
        E 0 90 3d 60
        E 0 90 3f 60
        E 0 90 1a 60
        E 0 90 31 60
        E 60 80 61 00
        E 0 80 63 00
        E 0 80 55 00
        E 0 80 57 00
        E 0 80 49 00
        E 0 80 4b 00
        E 0 80 6f 00
        E 0 80 3d 00
        E 0 80 3f 00
        E 0 80 1a 00
        E 0 80 31 00
        E 120 90 62 60
        E 0 90 1f 60
        E 60 80 62 00
        E 0 80 1f 00
        E 180 90 62 60
        E 0 90 56 60
        E 0 90 1f 60
        E 60 80 62 00
        E 0 80 56 00
        E 0 80 1f 00
        E 180 90 62 60
        E 0 90 56 60
        E 0 90 4a 60
        E 0 90 3e 60
        E 0 90 1f 60
        E 60 80 62 00
        E 0 80 56 00
        E 0 80 4a 00
        E 0 80 3e 00
        E 0 80 1f 00
        E 181 90 62 60
        E 0 90 56 60
        E 0 90 1f 60
        E 60 80 62 00
        E 0 80 56 00
        E 0 80 1f 00
        E 479 90 60 60
        E 0 90 61 60
        E 0 90 54 60
        E 0 90 55 60
        E 0 90 49 60
        E 0 90 3d 60
        E 0 90 18 60
        E 0 90 1a 60
        E 60 80 60 00
        E 0 80 61 00
        E 0 80 54 00
        E 0 80 55 00
        E 0 80 49 00
        E 0 80 3d 00
        E 0 80 18 00
        E 0 80 1a 00
        E 660 90 63 60
        E 0 90 57 60
        E 0 90 4b 60
        E 0 90 6f 60
        E 0 90 3f 60
        E 0 90 31 60
        E 60 80 63 00
        E 0 80 57 00
        E 0 80 4b 00
        E 0 80 6f 00
        E 0 80 3f 00
        E 0 80 31 00
        E 420 90 62 60
        E 0 90 56 60
        E 0 90 6e 60
        E 0 90 2f 60
        E 60 80 62 00
        E 0 80 56 00
        E 0 80 6e 00
        E 0 80 2f 00
        E 180 90 61 60
        E 0 90 63 60
        E 0 90 55 60
        E 0 90 57 60
        E 0 90 49 60
        E 0 90 4b 60
        E 0 90 6f 60
        E 0 90 3d 60
        E 0 90 3f 60
        E 0 90 1a 60
        E 0 90 31 60
        E 60 80 61 00
        E 0 80 63 00
        E 0 80 55 00
        E 0 80 57 00
        E 0 80 49 00
        E 0 80 4b 00
        E 0 80 6f 00
        E 0 80 3d 00
        E 0 80 3f 00
        E 0 80 1a 00
        E 0 80 31 00
        E 420 90 63 60
        E 0 90 57 60
        E 0 90 4b 60
        E 0 90 6f 60
        E 0 90 3f 60
        E 0 90 31 60
        E 60 80 63 00
        E 0 80 57 00
        E 0 80 4b 00
        E 0 80 6f 00
        E 0 80 3f 00
        E 0 80 31 00
        E 420 90 61 60
        E 0 90 55 60
        E 0 90 49 60
        E 0 90 3d 60
        E 0 90 1a 60
        E 60 80 61 00
        E 0 80 55 00
        E 0 80 49 00
        E 0 80 3d 00
        E 0 80 1a 00
        E 420 90 60 60
        E 0 90 61 60
        E 0 90 54 60
        E 0 90 55 60
        E 0 90 49 60
        E 0 90 3d 60
        E 0 90 18 60
        E 0 90 1a 60
        E 60 80 60 00
        E 0 80 61 00
        E 0 80 54 00
        E 0 80 55 00
        E 0 80 49 00
        E 0 80 3d 00
        E 0 80 18 00
        E 0 80 1a 00
        E 429 80 74 00
        E 231 90 63 60
        E 0 90 57 60
        E 0 90 4b 60
        E 0 90 6f 60
        E 0 90 3f 60
        E 0 90 31 60
        E 60 80 63 00
        E 0 80 57 00
        E 0 80 4b 00
        E 0 80 6f 00
        E 0 80 3f 00
        E 0 80 31 00
        E 420 90 62 60
        E 0 90 56 60
        E 0 90 6e 60
        E 0 90 2f 60
        E 60 80 62 00
        E 0 80 56 00
        E 0 80 6e 00
        E 0 80 2f 00
        E 180 90 61 60
        E 0 90 63 60
        E 0 90 55 60
        E 0 90 57 60
        E 0 90 49 60
        E 0 90 4b 60
        E 0 90 6f 60
        E 0 90 3d 60
        E 0 90 3f 60
        E 0 90 1a 60
        E 0 90 31 60
        E 60 80 61 00
        E 0 80 63 00
        E 0 80 55 00
        E 0 80 57 00
        E 0 80 49 00
        E 0 80 4b 00
        E 0 80 6f 00
        E 0 80 3d 00
        E 0 80 3f 00
        E 0 80 1a 00
        E 0 80 31 00
        E 420 90 63 60
        E 0 90 57 60
        E 0 90 4b 60
        E 0 90 6f 60
        E 0 90 3f 60
        E 0 90 31 60
        E 60 80 63 00
        E 0 80 57 00
        E 0 80 4b 00
        E 0 80 6f 00
        E 0 80 3f 00
        E 0 80 31 00
        E 60 90 62 60
        E 0 90 7e 60
        E 0 90 56 60
        E 0 90 4a 60
        E 0 90 3e 60
        E 0 90 1e 60
        E 60 80 62 00
        E 0 80 56 00
        E 0 80 4a 00
        E 0 80 3e 00
        E 0 80 1e 00
        E 60 90 62 60
        E 0 90 1f 60
        E 60 80 62 00
        E 0 80 1f 00
        E 60 90 62 60
        E 0 90 56 60
        E 0 90 1e 60
        E 60 80 62 00
        E 0 80 56 00
        E 0 80 1e 00
        E 60 90 62 60
        E 0 90 1f 60
        E 60 80 62 00
        E 0 80 1f 00
        E 60 90 62 60
        E 0 90 56 60
        E 0 90 4a 60
        E 0 90 1e 60
        E 60 80 62 00
        E 0 80 56 00
        E 0 80 4a 00
        E 0 80 1e 00
        E 60 90 62 60
        E 0 90 1f 60
        E 60 80 62 00
        E 0 80 1f 00
        E 60 90 62 60
        E 0 90 56 60
        E 0 90 1e 60
        E 60 80 62 00
        E 0 80 56 00
        E 0 80 1e 00
        E 60 90 62 60
        E 0 90 1f 60
        E 60 80 62 00
        E 0 80 1f 00
        E 60 90 62 60
        E 0 90 56 60
        E 0 90 4a 60
        E 0 90 3e 60
        E 0 90 1e 60
        E 60 80 62 00
        E 0 80 56 00
        E 0 80 4a 00
        E 0 80 3e 00
        E 0 80 1e 00
        E 60 90 62 60
        E 0 90 1f 60
        E 60 80 62 00
        E 0 80 1f 00
        E 60 90 62 60
        E 0 90 56 60
        E 0 90 1e 60
        E 60 80 62 00
        E 0 80 56 00
        E 0 80 1e 00
        E 60 90 62 60
        E 0 90 1f 60
        E 60 80 62 00
        E 0 80 1f 00
        E 60 90 62 60
        E 0 90 56 60
        E 0 90 4a 60
        E 0 90 1e 60
        E 60 80 62 00
        E 0 80 56 00
        E 0 80 4a 00
        E 0 80 1e 00
        E 60 90 62 60
        E 0 90 1f 60
        E 60 80 62 00
        E 0 80 1f 00
        E 60 90 62 60
        E 0 90 56 60
        E 0 90 1e 60
        E 60 80 7e 00
        E 0 80 62 00
        E 0 80 56 00
        E 0 80 1e 00
        E 300 90 60 60
        E 0 90 62 60
        E 0 90 54 60
        E 0 90 56 60
        E 0 90 18 60
        E 0 90 1f 60
        E 60 80 60 00
        E 0 80 62 00
        E 0 80 54 00
        E 0 80 56 00
        E 0 80 18 00
        E 0 80 1f 00
        E 180 90 60 60
        E 0 90 62 60
        E 0 90 54 60
        E 0 90 56 60
        E 0 90 48 60
        E 0 90 4a 60
        E 0 90 3e 60
        E 0 90 18 60
        E 0 90 1f 60
        E 60 80 60 00
        E 0 80 62 00
        E 0 80 54 00
        E 0 80 56 00
        E 0 80 48 00
        E 0 80 4a 00
        E 0 80 3e 00
        E 0 80 18 00
        E 0 80 1f 00
        E 180 90 62 60
        E 0 90 56 60
        E 0 90 1f 60
        E 60 80 62 00
        E 0 80 56 00
        E 0 80 1f 00
        E 180 90 62 60
        E 0 90 56 60
        E 0 90 4a 60
        E 0 90 3e 60
        E 0 90 1f 60
        E 60 80 62 00
        E 0 80 56 00
        E 0 80 4a 00
        E 0 80 3e 00
        E 0 80 1f 00
        E 180 90 62 60
        E 0 90 56 60
        E 0 90 1f 60
        E 60 80 62 00
        E 0 80 56 00
        E 0 80 1f 00
        E 180 90 63 60
        E 0 90 57 60
        E 0 90 4b 60
        E 0 90 6f 60
        E 0 90 3f 60
        E 0 90 31 60
        E 60 80 63 00
        E 0 80 57 00
        E 0 80 4b 00
        E 0 80 6f 00
        E 0 80 3f 00
        E 0 80 31 00
        E 180 90 62 60
        E 0 90 56 60
        E 0 90 1f 60
        E 60 80 62 00
        E 0 80 56 00
        E 0 80 1f 00
        E 180 90 60 60
        E 0 90 61 60
        E 0 90 54 60
        E 0 90 55 60
        E 0 90 49 60
        E 0 90 3d 60
        E 0 90 18 60
        E 0 90 1a 60
        E 60 80 60 00
        E 0 80 61 00
        E 0 80 54 00
        E 0 80 55 00
        E 0 80 49 00
        E 0 80 3d 00
        E 0 80 18 00
        E 0 80 1a 00
        E 180 90 62 60
        E 0 90 56 60
        E 0 90 1f 60
        E 60 80 62 00
        E 0 80 56 00
        E 0 80 1f 00
        E 180 90 60 60
        E 0 90 54 60
        E 0 90 48 60
        E 0 90 3c 60
        E 0 90 18 60
        E 60 80 60 00
        E 0 80 54 00
        E 0 80 48 00
        E 0 80 3c 00
        E 0 80 18 00
        E 180 90 60 60
        E 0 90 61 60
        E 0 90 63 60
        E 0 90 54 60
        E 0 90 55 60
        E 0 90 57 60
        E 0 90 6f 60
        E 0 90 18 60
        E 0 90 1a 60
        E 0 90 31 60
        E 60 80 60 00
        E 0 80 61 00
        E 0 80 63 00
        E 0 80 54 00
        E 0 80 55 00
        E 0 80 57 00
        E 0 80 6f 00
        E 0 80 18 00
        E 0 80 1a 00
        E 0 80 31 00
        E 180 90 62 60
        E 0 90 56 60
        E 0 90 4a 60
        E 0 90 3e 60
        E 0 90 1f 60
        E 60 80 62 00
        E 0 80 56 00
        E 0 80 4a 00
        E 0 80 3e 00
        E 0 80 1f 00
        E 180 90 60 60
        E 0 90 62 60
        E 0 90 54 60
        E 0 90 56 60
        E 0 90 18 60
        E 0 90 1f 60
        E 60 80 60 00
        E 0 80 62 00
        E 0 80 54 00
        E 0 80 56 00
        E 0 80 18 00
        E 0 80 1f 00
        E 180 90 60 60
        E 0 90 61 60
        E 0 90 64 60
        E 0 90 54 60
        E 0 90 55 60
        E 0 90 58 60
        E 0 90 49 60
        E 0 90 4c 60
        E 0 90 70 60
        E 0 90 3d 60
        E 0 90 40 60
        E 0 90 18 60
        E 0 90 1a 60
        E 0 90 33 60
        E 60 80 60 00
        E 0 80 61 00
        E 0 80 64 00
        E 0 80 54 00
        E 0 80 55 00
        E 0 80 58 00
        E 0 80 49 00
        E 0 80 4c 00
        E 0 80 70 00
        E 0 80 3d 00
        E 0 80 40 00
        E 0 80 18 00
        E 0 80 1a 00
        E 0 80 33 00
        E 180 90 62 60
        E 0 90 56 60
        E 0 90 1f 60
        E 60 80 62 00
        E 0 80 56 00
        E 0 80 1f 00
        E 180 90 61 60
        E 0 90 55 60
        E 0 90 49 60
        E 0 90 3d 60
        E 0 90 1a 60
        E 60 80 61 00
        E 0 80 55 00
        E 0 80 49 00
        E 0 80 3d 00
        E 0 80 1a 00
        E 180 90 62 60
        E 0 90 56 60
        E 0 90 1f 60
        E 60 80 62 00
        E 0 80 56 00
        E 0 80 1f 00
        E 420 90 62 60
        E 0 90 56 60
        E 0 90 1f 60
        E 60 80 62 00
        E 0 80 56 00
        E 0 80 1f 00
        E 180 90 60 60
        E 0 90 61 60
        E 0 90 54 60
        E 0 90 55 60
        E 0 90 49 60
        E 0 90 3d 60
        E 0 90 18 60
        E 0 90 1a 60
        E 60 80 60 00
        E 0 80 61 00
        E 0 80 54 00
        E 0 80 55 00
        E 0 80 49 00
        E 0 80 3d 00
        E 0 80 18 00
        E 0 80 1a 00
        E 180 90 62 60
        E 0 90 56 60
        E 0 90 1f 60
        E 60 80 62 00
        E 0 80 56 00
        E 0 80 1f 00
        E 180 90 62 60
        E 0 90 56 60
        E 0 90 4a 60
        E 0 90 6e 60
        E 0 90 3e 60
        E 0 90 2f 60
        E 60 80 62 00
        E 0 80 56 00
        E 0 80 4a 00
        E 0 80 6e 00
        E 0 80 3e 00
        E 0 80 2f 00
        E 180 90 62 60
        E 0 90 63 60
        E 0 90 56 60
        E 0 90 57 60
        E 0 90 6e 60
        E 0 90 6f 60
        E 0 90 31 60
        E 0 90 2e 60
        E 60 80 62 00
        E 0 80 63 00
        E 0 80 56 00
        E 0 80 57 00
        E 0 80 6e 00
        E 0 80 6f 00
        E 0 80 31 00
        E 0 80 2e 00
        E 420 90 60 60
        E 0 90 62 60
        E 0 90 54 60
        E 0 90 56 60
        E 0 90 18 60
        E 0 90 1f 60
        E 60 80 60 00
        E 0 80 62 00
        E 0 80 54 00
        E 0 80 56 00
        E 0 80 18 00
        E 0 80 1f 00
        E 180 90 70 60
        E 10 90 60 60
        E 0 90 61 60
        E 0 90 64 60
        E 0 90 54 60
        E 0 90 55 60
        E 0 90 58 60
        E 0 90 49 60
        E 0 90 4c 60
        E 0 90 3d 60
        E 0 90 40 60
        E 0 90 18 60
        E 0 90 1a 60
        E 0 90 26 60
        E 50 80 70 00
        E 10 80 60 00
        E 0 80 61 00
        E 0 80 64 00
        E 0 80 54 00
        E 0 80 55 00
        E 0 80 58 00
        E 0 80 49 00
        E 0 80 4c 00
        E 0 80 3d 00
        E 0 80 40 00
        E 0 80 18 00
        E 0 80 1a 00
        E 0 80 26 00
        E 410 90 62 60
        E 0 90 56 60
        E 0 90 4a 60
        E 0 90 3e 60
        E 0 90 1f 60
        E 60 80 62 00
        E 0 80 56 00
        E 0 80 4a 00
        E 0 80 3e 00
        E 0 80 1f 00
        E 180 90 62 60
        E 0 90 56 60
        E 0 90 1f 60
        E 60 80 62 00
        E 0 80 56 00
        E 0 80 1f 00
        E 180 90 63 60
        E 0 90 57 60
        E 0 90 4b 60
        E 0 90 6f 60
        E 0 90 3f 60
        E 0 90 31 60
        E 60 80 63 00
        E 0 80 57 00
        E 0 80 4b 00
        E 0 80 6f 00
        E 0 80 3f 00
        E 0 80 31 00
        E 180 90 62 60
        E 0 90 56 60
        E 0 90 1f 60
        E 60 80 62 00
        E 0 80 56 00
        E 0 80 1f 00
        E 180 90 60 60
        E 0 90 61 60
        E 0 90 54 60
        E 0 90 55 60
        E 0 90 49 60
        E 0 90 3d 60
        E 0 90 18 60
        E 0 90 1a 60
        E 60 80 60 00
        E 0 80 61 00
        E 0 80 54 00
        E 0 80 55 00
        E 0 80 49 00
        E 0 80 3d 00
        E 0 80 18 00
        E 0 80 1a 00
        E 180 90 62 60
        E 0 90 56 60
        E 0 90 1f 60
        E 60 80 62 00
        E 0 80 56 00
        E 0 80 1f 00
        E 180 90 60 60
        E 0 90 54 60
        E 0 90 48 60
        E 0 90 3c 60
        E 0 90 18 60
        E 60 80 60 00
        E 0 80 54 00
        E 0 80 48 00
        E 0 80 3c 00
        E 0 80 18 00
        E 180 90 60 60
        E 0 90 61 60
        E 0 90 63 60
        E 0 90 54 60
        E 0 90 55 60
        E 0 90 57 60
        E 0 90 6f 60
        E 0 90 18 60
        E 0 90 1a 60
        E 0 90 31 60
        E 60 80 60 00
        E 0 80 61 00
        E 0 80 63 00
        E 0 80 54 00
        E 0 80 55 00
        E 0 80 57 00
        E 0 80 6f 00
        E 0 80 18 00
        E 0 80 1a 00
        E 0 80 31 00
        E 180 90 62 60
        E 0 90 56 60
        E 0 90 4a 60
        E 0 90 3e 60
        E 0 90 1f 60
        E 60 80 62 00
        E 0 80 56 00
        E 0 80 4a 00
        E 0 80 3e 00
        E 0 80 1f 00
        E 180 90 60 60
        E 0 90 62 60
        E 0 90 54 60
        E 0 90 56 60
        E 0 90 18 60
        E 0 90 1f 60
        E 60 80 60 00
        E 0 80 62 00
        E 0 80 54 00
        E 0 80 56 00
        E 0 80 18 00
        E 0 80 1f 00
        E 180 90 60 60
        E 0 90 61 60
        E 0 90 64 60
        E 0 90 54 60
        E 0 90 55 60
        E 0 90 58 60
        E 0 90 49 60
        E 0 90 4c 60
        E 0 90 70 60
        E 0 90 3d 60
        E 0 90 40 60
        E 0 90 18 60
        E 0 90 1a 60
        E 0 90 33 60
        E 60 80 60 00
        E 0 80 61 00
        E 0 80 64 00
        E 0 80 54 00
        E 0 80 55 00
        E 0 80 58 00
        E 0 80 49 00
        E 0 80 4c 00
        E 0 80 70 00
        E 0 80 3d 00
        E 0 80 40 00
        E 0 80 18 00
        E 0 80 1a 00
        E 0 80 33 00
        E 180 90 62 60
        E 0 90 56 60
        E 0 90 1f 60
        E 60 80 62 00
        E 0 80 56 00
        E 0 80 1f 00
        E 180 90 61 60
        E 0 90 55 60
        E 0 90 49 60
        E 0 90 3d 60
        E 0 90 1a 60
        E 60 80 61 00
        E 0 80 55 00
        E 0 80 49 00
        E 0 80 3d 00
        E 0 80 1a 00
        E 180 90 62 60
        E 0 90 56 60
        E 0 90 1f 60
        E 60 80 62 00
        E 0 80 56 00
        E 0 80 1f 00
        E 180 90 78 61
        E 0 90 79 61
        E 0 90 7a 61
        E 0 90 7b 61
        E 0 90 7c 61
        E 240 90 62 60
        E 0 90 56 60
        E 0 90 1f 60
        E 60 80 62 00
        E 0 80 56 00
        E 0 80 1f 00
        E 180 90 60 60
        E 0 90 61 60
        E 0 90 54 60
        E 0 90 55 60
        E 0 90 49 60
        E 0 90 3d 60
        E 0 90 18 60
        E 0 90 1a 60
        E 60 80 60 00
        E 0 80 61 00
        E 0 80 54 00
        E 0 80 55 00
        E 0 80 49 00
        E 0 80 3d 00
        E 0 80 18 00
        E 0 80 1a 00
        E 180 90 62 60
        E 0 90 56 60
        E 0 90 1f 60
        E 60 80 62 00
        E 0 80 56 00
        E 0 80 1f 00
        E 180 90 62 60
        E 0 90 56 60
        E 0 90 4a 60
        E 0 90 6e 60
        E 0 90 3e 60
        E 0 90 2f 60
        E 60 80 62 00
        E 0 80 56 00
        E 0 80 4a 00
        E 0 80 6e 00
        E 0 80 3e 00
        E 0 80 2f 00
        E 180 80 78 00
        E 0 80 79 00
        E 0 80 7a 00
        E 0 80 7b 00
        E 0 80 7c 00
        E 0 90 62 60
        E 0 90 63 60
        E 0 90 56 60
        E 0 90 57 60
        E 0 90 6e 60
        E 0 90 6f 60
        E 0 90 31 60
        E 0 90 2e 60
        E 60 80 62 00
        E 0 80 63 00
        E 0 80 56 00
        E 0 80 57 00
        E 0 80 6e 00
        E 0 80 6f 00
        E 0 80 31 00
        E 0 80 2e 00
        E 420 90 60 60
        E 0 90 62 60
        E 0 90 54 60
        E 0 90 56 60
        E 0 90 18 60
        E 0 90 1f 60
        E 60 80 60 00
        E 0 80 62 00
        E 0 80 54 00
        E 0 80 56 00
        E 0 80 18 00
        E 0 80 1f 00
        E 180 90 70 60
        E 10 90 60 60
        E 0 90 61 60
        E 0 90 64 60
        E 0 90 54 60
        E 0 90 55 60
        E 0 90 58 60
        E 0 90 49 60
        E 0 90 4c 60
        E 0 90 3d 60
        E 0 90 40 60
        E 0 90 18 60
        E 0 90 1a 60
        E 0 90 26 60
        E 50 80 70 00
        E 10 80 60 00
        E 0 80 61 00
        E 0 80 64 00
        E 0 80 54 00
        E 0 80 55 00
        E 0 80 58 00
        E 0 80 49 00
        E 0 80 4c 00
        E 0 80 3d 00
        E 0 80 40 00
        E 0 80 18 00
        E 0 80 1a 00
        E 0 80 26 00
        E 410 90 62 60
        E 0 90 56 60
        E 0 90 4a 60
        E 0 90 3e 60
        E 0 90 1f 60
        E 60 80 62 00
        E 0 80 56 00
        E 0 80 4a 00
        E 0 80 3e 00
        E 0 80 1f 00
        E 180 90 62 60
        E 0 90 56 60
        E 0 90 1f 60
        E 60 80 62 00
        E 0 80 56 00
        E 0 80 1f 00
        E 180 90 63 60
        E 0 90 57 60
        E 0 90 4b 60
        E 0 90 6f 60
        E 0 90 3f 60
        E 0 90 31 60
        E 60 80 63 00
        E 0 80 57 00
        E 0 80 4b 00
        E 0 80 6f 00
        E 0 80 3f 00
        E 0 80 31 00
        E 180 90 62 60
        E 0 90 56 60
        E 0 90 1f 60
        E 60 80 62 00
        E 0 80 56 00
        E 0 80 1f 00
        E 180 90 60 60
        E 0 90 61 60
        E 0 90 54 60
        E 0 90 55 60
        E 0 90 49 60
        E 0 90 3d 60
        E 0 90 18 60
        E 0 90 1a 60
        E 60 80 60 00
        E 0 80 61 00
        E 0 80 54 00
        E 0 80 55 00
        E 0 80 49 00
        E 0 80 3d 00
        E 0 80 18 00
        E 0 80 1a 00
        E 180 90 62 60
        E 0 90 56 60
        E 0 90 1f 60
        E 60 80 62 00
        E 0 80 56 00
        E 0 80 1f 00
        E 180 90 60 60
        E 0 90 54 60
        E 0 90 48 60
        E 0 90 3c 60
        E 0 90 18 60
        E 60 80 60 00
        E 0 80 54 00
        E 0 80 48 00
        E 0 80 3c 00
        E 0 80 18 00
        E 180 90 60 60
        E 0 90 61 60
        E 0 90 63 60
        E 0 90 54 60
        E 0 90 55 60
        E 0 90 57 60
        E 0 90 6f 60
        E 0 90 18 60
        E 0 90 1a 60
        E 0 90 31 60
        E 60 80 60 00
        E 0 80 61 00
        E 0 80 63 00
        E 0 80 54 00
        E 0 80 55 00
        E 0 80 57 00
        E 0 80 6f 00
        E 0 80 18 00
        E 0 80 1a 00
        E 0 80 31 00
        E 180 90 62 60
        E 0 90 56 60
        E 0 90 4a 60
        E 0 90 3e 60
        E 0 90 1f 60
        E 60 80 62 00
        E 0 80 56 00
        E 0 80 4a 00
        E 0 80 3e 00
        E 0 80 1f 00
        E 180 90 60 60
        E 0 90 62 60
        E 0 90 54 60
        E 0 90 56 60
        E 0 90 18 60
        E 0 90 1f 60
        E 60 80 60 00
        E 0 80 62 00
        E 0 80 54 00
        E 0 80 56 00
        E 0 80 18 00
        E 0 80 1f 00
        E 180 90 60 60
        E 0 90 61 60
        E 0 90 64 60
        E 0 90 54 60
        E 0 90 55 60
        E 0 90 58 60
        E 0 90 49 60
        E 0 90 4c 60
        E 0 90 70 60
        E 0 90 3d 60
        E 0 90 40 60
        E 0 90 18 60
        E 0 90 1a 60
        E 0 90 33 60
        E 60 80 60 00
        E 0 80 61 00
        E 0 80 64 00
        E 0 80 54 00
        E 0 80 55 00
        E 0 80 58 00
        E 0 80 49 00
        E 0 80 4c 00
        E 0 80 70 00
        E 0 80 3d 00
        E 0 80 40 00
        E 0 80 18 00
        E 0 80 1a 00
        E 0 80 33 00
        E 180 90 62 60
        E 0 90 56 60
        E 0 90 1f 60
        E 60 80 62 00
        E 0 80 56 00
        E 0 80 1f 00
        E 180 90 61 60
        E 0 90 55 60
        E 0 90 49 60
        E 0 90 3d 60
        E 0 90 1a 60
        E 60 80 61 00
        E 0 80 55 00
        E 0 80 49 00
        E 0 80 3d 00
        E 0 80 1a 00
        E 47 90 74 61
        E 133 90 62 60
        E 0 90 56 60
        E 0 90 1f 60
        E 60 80 62 00
        E 0 80 56 00
        E 0 80 1f 00
        E 420 90 62 60
        E 0 90 56 60
        E 0 90 1f 60
        E 60 80 62 00
        E 0 80 56 00
        E 0 80 1f 00
        E 180 90 60 60
        E 0 90 61 60
        E 0 90 54 60
        E 0 90 55 60
        E 0 90 49 60
        E 0 90 3d 60
        E 0 90 18 60
        E 0 90 1a 60
        E 60 80 60 00
        E 0 80 61 00
        E 0 80 54 00
        E 0 80 55 00
        E 0 80 49 00
        E 0 80 3d 00
        E 0 80 18 00
        E 0 80 1a 00
        E 180 90 62 60
        E 0 90 56 60
        E 0 90 1f 60
        E 60 80 62 00
        E 0 80 56 00
        E 0 80 1f 00
        E 180 90 62 60
        E 0 90 56 60
        E 0 90 4a 60
        E 0 90 6e 60
        E 0 90 3e 60
        E 0 90 2f 60
        E 60 80 62 00
        E 0 80 56 00
        E 0 80 4a 00
        E 0 80 6e 00
        E 0 80 3e 00
        E 0 80 2f 00
        E 180 90 62 60
        E 0 90 63 60
        E 0 90 56 60
        E 0 90 57 60
        E 0 90 6e 60
        E 0 90 6f 60
        E 0 90 31 60
        E 0 90 2e 60
        E 60 80 62 00
        E 0 80 63 00
        E 0 80 56 00
        E 0 80 57 00
        E 0 80 6e 00
        E 0 80 6f 00
        E 0 80 31 00
        E 0 80 2e 00
        E 420 90 60 60
        E 0 90 62 60
        E 0 90 54 60
        E 0 90 56 60
        E 0 90 18 60
        E 0 90 1f 60
        E 60 80 60 00
        E 0 80 62 00
        E 0 80 54 00
        E 0 80 56 00
        E 0 80 18 00
        E 0 80 1f 00
        E 180 90 70 60
        E 10 90 60 60
        E 0 90 61 60
        E 0 90 64 60
        E 0 90 54 60
        E 0 90 55 60
        E 0 90 58 60
        E 0 90 49 60
        E 0 90 4c 60
        E 0 90 3d 60
        E 0 90 40 60
        E 0 90 18 60
        E 0 90 1a 60
        E 0 90 26 60
        E 50 80 70 00
        E 10 80 60 00
        E 0 80 61 00
        E 0 80 64 00
        E 0 80 54 00
        E 0 80 55 00
        E 0 80 58 00
        E 0 80 49 00
        E 0 80 4c 00
        E 0 80 3d 00
        E 0 80 40 00
        E 0 80 18 00
        E 0 80 1a 00
        E 0 80 26 00
        E 410 80 74 00
        E 0 90 62 60
        E 0 90 56 60
        E 0 90 4a 60
        E 0 90 3e 60
        E 0 90 1f 60
        E 60 80 62 00
        E 0 80 56 00
        E 0 80 4a 00
        E 0 80 3e 00
        E 0 80 1f 00
        E 180 90 62 60
        E 0 90 56 60
        E 0 90 1f 60
        E 60 80 62 00
        E 0 80 56 00
        E 0 80 1f 00
        E 180 90 63 60
        E 0 90 57 60
        E 0 90 4b 60
        E 0 90 6f 60
        E 0 90 3f 60
        E 0 90 31 60
        E 60 80 63 00
        E 0 80 57 00
        E 0 80 4b 00
        E 0 80 6f 00
        E 0 80 3f 00
        E 0 80 31 00
        E 180 90 62 60
        E 0 90 56 60
        E 0 90 1f 60
        E 60 80 62 00
        E 0 80 56 00
        E 0 80 1f 00
        E 180 90 60 60
        E 0 90 61 60
        E 0 90 54 60
        E 0 90 55 60
        E 0 90 49 60
        E 0 90 3d 60
        E 0 90 18 60
        E 0 90 1a 60
        E 60 80 60 00
        E 0 80 61 00
        E 0 80 54 00
        E 0 80 55 00
        E 0 80 49 00
        E 0 80 3d 00
        E 0 80 18 00
        E 0 80 1a 00
        E 180 90 62 60
        E 0 90 56 60
        E 0 90 1f 60
        E 60 80 62 00
        E 0 80 56 00
        E 0 80 1f 00
        E 180 90 60 60
        E 0 90 54 60
        E 0 90 48 60
        E 0 90 3c 60
        E 0 90 18 60
        E 60 80 60 00
        E 0 80 54 00
        E 0 80 48 00
        E 0 80 3c 00
        E 0 80 18 00
        E 180 90 60 60
        E 0 90 61 60
        E 0 90 63 60
        E 0 90 54 60
        E 0 90 55 60
        E 0 90 57 60
        E 0 90 6f 60
        E 0 90 18 60
        E 0 90 1a 60
        E 0 90 31 60
        E 60 80 60 00
        E 0 80 61 00
        E 0 80 63 00
        E 0 80 54 00
        E 0 80 55 00
        E 0 80 57 00
        E 0 80 6f 00
        E 0 80 18 00
        E 0 80 1a 00
        E 0 80 31 00
        E 180 90 62 60
        E 0 90 56 60
        E 0 90 4a 60
        E 0 90 3e 60
        E 0 90 1f 60
        E 60 80 62 00
        E 0 80 56 00
        E 0 80 4a 00
        E 0 80 3e 00
        E 0 80 1f 00
        E 180 90 60 60
        E 0 90 62 60
        E 0 90 54 60
        E 0 90 56 60
        E 0 90 18 60
        E 0 90 1f 60
        E 60 80 60 00
        E 0 80 62 00
        E 0 80 54 00
        E 0 80 56 00
        E 0 80 18 00
        E 0 80 1f 00
        E 180 90 60 60
        E 0 90 61 60
        E 0 90 64 60
        E 0 90 54 60
        E 0 90 55 60
        E 0 90 58 60
        E 0 90 49 60
        E 0 90 4c 60
        E 0 90 70 60
        E 0 90 3d 60
        E 0 90 40 60
        E 0 90 18 60
        E 0 90 1a 60
        E 0 90 33 60
        E 60 80 60 00
        E 0 80 61 00
        E 0 80 64 00
        E 0 80 54 00
        E 0 80 55 00
        E 0 80 58 00
        E 0 80 49 00
        E 0 80 4c 00
        E 0 80 70 00
        E 0 80 3d 00
        E 0 80 40 00
        E 0 80 18 00
        E 0 80 1a 00
        E 0 80 33 00
        E 180 90 62 60
        E 0 90 56 60
        E 0 90 1f 60
        E 60 80 62 00
        E 0 80 56 00
        E 0 80 1f 00
        E 180 90 61 60
        E 0 90 62 60
        E 0 90 55 60
        E 0 90 56 60
        E 0 90 49 60
        E 0 90 4a 60
        E 0 90 6e 60
        E 0 90 3d 60
        E 0 90 3e 60
        E 0 90 1a 60
        E 0 90 1b 60
        E 60 80 61 00
        E 0 80 62 00
        E 0 80 55 00
        E 0 80 56 00
        E 0 80 49 00
        E 0 80 4a 00
        E 0 80 6e 00
        E 0 80 3d 00
        E 0 80 3e 00
        E 0 80 1a 00
        E 0 80 1b 00
        E 180 90 62 60
        E 0 90 56 60
        E 0 90 1f 60
        E 60 80 62 00
        E 0 80 56 00
        E 0 80 1f 00
        E 180 90 62 60
        E 0 90 56 60
        E 0 90 4a 60
        E 0 90 3e 60
        E 0 90 1f 60
        E 60 80 62 00
        E 0 80 56 00
        E 0 80 4a 00
        E 0 80 3e 00
        E 0 80 1f 00
        E 180 90 62 60
        E 0 90 56 60
        E 0 90 1f 60
        E 60 80 62 00
        E 0 80 56 00
        E 0 80 1f 00
        E 180 90 62 60
        E 0 90 56 60
        E 0 90 4a 60
        E 0 90 3e 60
        E 0 90 1f 60
        E 60 80 62 00
        E 0 80 56 00
        E 0 80 4a 00
        E 0 80 3e 00
        E 0 80 1f 00
        E 191 90 62 60
        E 0 90 56 60
        E 0 90 6e 60
        E 0 90 2e 60
        E 60 80 62 00
        E 0 80 56 00
        E 0 80 6e 00
        E 0 80 2e 00
        E 156 90 62 60
        E 0 90 56 60
        E 0 90 4a 60
        E 0 90 6e 60
        E 0 90 3e 60
        E 0 90 2f 60
        E 60 80 62 00
        E 0 80 56 00
        E 0 80 4a 00
        E 0 80 6e 00
        E 0 80 3e 00
        E 0 80 2f 00
        E 193 90 61 60
        E 0 90 63 60
        E 0 90 55 60
        E 0 90 57 60
        E 0 90 6f 60
        E 0 90 1a 60
        E 0 90 31 60
        E 60 80 61 00
        E 0 80 63 00
        E 0 80 55 00
        E 0 80 57 00
        E 0 80 6f 00
        E 0 80 1a 00
        E 0 80 31 00
        E 660 90 62 60
        E 0 90 56 60
        E 0 90 4a 60
        E 0 90 6e 60
        E 0 90 3e 60
        E 0 90 2f 60
        E 60 80 62 00
        E 0 80 56 00
        E 0 80 4a 00
        E 0 80 6e 00
        E 0 80 3e 00
        E 0 80 2f 00
        E 420 90 62 60
        E 0 90 56 60
        E 0 90 4a 60
        E 0 90 6e 60
        E 0 90 3e 60
        E 0 90 2f 60
        E 60 80 62 00
        E 0 80 56 00
        E 0 80 4a 00
        E 0 80 6e 00
        E 0 80 3e 00
        E 0 80 2f 00
        E 420 90 63 60
        E 0 90 57 60
        E 0 90 4b 60
        E 0 90 6f 60
        E 0 90 3f 60
        E 0 90 31 60
        E 60 80 63 00
        E 0 80 57 00
        E 0 80 4b 00
        E 0 80 6f 00
        E 0 80 3f 00
        E 0 80 31 00
        E 180 90 62 60
        E 0 90 56 60
        E 0 90 6e 60
        E 0 90 2f 60
        E 60 80 62 00
        E 0 80 56 00
        E 0 80 6e 00
        E 0 80 2f 00
        E 180 90 62 60
        E 0 90 56 60
        E 0 90 4a 60
        E 0 90 6e 60
        E 0 90 3e 60
        E 0 90 2f 60
        E 60 80 62 00
        E 0 80 56 00
        E 0 80 4a 00
        E 0 80 6e 00
        E 0 80 3e 00
        E 0 80 2f 00
        E 180 90 63 60
        E 0 90 57 60
        E 0 90 6f 60
        E 0 90 31 60
        E 60 80 63 00
        E 0 80 57 00
        E 0 80 6f 00
        E 0 80 31 00
        E 178 90 62 60
        E 0 90 56 60
        E 0 90 4a 60
        E 0 90 6e 60
        E 0 90 3e 60
        E 0 90 2f 60
        E 60 80 62 00
        E 0 80 56 00
        E 0 80 4a 00
        E 0 80 6e 00
        E 0 80 3e 00
        E 0 80 2f 00
        E 182 90 61 60
        E 0 90 63 60
        E 0 90 55 60
        E 0 90 57 60
        E 0 90 6f 60
        E 0 90 1a 60
        E 0 90 31 60
        E 60 80 61 00
        E 0 80 63 00
        E 0 80 55 00
        E 0 80 57 00
        E 0 80 6f 00
        E 0 80 1a 00
        E 0 80 31 00
        E 660 90 62 60
        E 0 90 56 60
        E 0 90 4a 60
        E 0 90 6e 60
        E 0 90 3e 60
        E 0 90 2f 60
        E 60 80 62 00
        E 0 80 56 00
        E 0 80 4a 00
        E 0 80 6e 00
        E 0 80 3e 00
        E 0 80 2f 00
        E 420 90 63 60
        E 0 90 57 60
        E 0 90 4b 60
        E 0 90 6f 60
        E 0 90 3f 60
        E 0 90 31 60
        E 60 80 63 00
        E 0 80 57 00
        E 0 80 4b 00
        E 0 80 6f 00
        E 0 80 3f 00
        E 0 80 31 00
        E 420 90 63 60
        E 0 90 57 60
        E 0 90 4b 60
        E 0 90 6f 60
        E 0 90 3f 60
        E 0 90 31 60
        E 60 80 63 00
        E 0 80 57 00
        E 0 80 4b 00
        E 0 80 6f 00
        E 0 80 3f 00
        E 0 80 31 00
        E 180 90 62 60
        E 0 90 56 60
        E 0 90 6e 60
        E 0 90 2f 60
        E 60 80 62 00
        E 0 80 56 00
        E 0 80 6e 00
        E 0 80 2f 00
        E 180 90 62 60
        E 0 90 56 60
        E 0 90 4a 60
        E 0 90 6e 60
        E 0 90 3e 60
        E 0 90 2f 60
        E 60 80 62 00
        E 0 80 56 00
        E 0 80 4a 00
        E 0 80 6e 00
        E 0 80 3e 00
        E 0 80 2f 00
        E 180 90 63 60
        E 0 90 57 60
        E 0 90 6f 60
        E 0 90 31 60
        E 60 80 63 00
        E 0 80 57 00
        E 0 80 6f 00
        E 0 80 31 00
        E 178 90 62 60
        E 0 90 56 60
        E 0 90 4a 60
        E 0 90 6e 60
        E 0 90 3e 60
        E 0 90 2f 60
        E 60 80 62 00
        E 0 80 56 00
        E 0 80 4a 00
        E 0 80 6e 00
        E 0 80 3e 00
        E 0 80 2f 00
        E 182 90 61 60
        E 0 90 63 60
        E 0 90 55 60
        E 0 90 57 60
        E 0 90 6f 60
        E 0 90 1a 60
        E 0 90 31 60
        E 60 80 61 00
        E 0 80 63 00
        E 0 80 55 00
        E 0 80 57 00
        E 0 80 6f 00
        E 0 80 1a 00
        E 0 80 31 00
        E 660 90 62 60
        E 0 90 56 60
        E 0 90 4a 60
        E 0 90 6e 60
        E 0 90 3e 60
        E 0 90 2f 60
        E 60 80 62 00
        E 0 80 56 00
        E 0 80 4a 00
        E 0 80 6e 00
        E 0 80 3e 00
        E 0 80 2f 00
        E 420 90 63 60
        E 0 90 57 60
        E 0 90 4b 60
        E 0 90 6f 60
        E 0 90 3f 60
        E 0 90 31 60
        E 60 80 63 00
        E 0 80 57 00
        E 0 80 4b 00
        E 0 80 6f 00
        E 0 80 3f 00
        E 0 80 31 00
        E 420 90 63 60
        E 0 90 57 60
        E 0 90 4b 60
        E 0 90 6f 60
        E 0 90 3f 60
        E 0 90 31 60
        E 60 80 63 00
        E 0 80 57 00
        E 0 80 4b 00
        E 0 80 6f 00
        E 0 80 3f 00
        E 0 80 31 00
        E 180 90 62 60
        E 0 90 56 60
        E 0 90 6e 60
        E 0 90 2f 60
        E 60 80 62 00
        E 0 80 56 00
        E 0 80 6e 00
        E 0 80 2f 00
        E 180 90 62 60
        E 0 90 56 60
        E 0 90 4a 60
        E 0 90 6e 60
        E 0 90 3e 60
        E 0 90 2f 60
        E 60 80 62 00
        E 0 80 56 00
        E 0 80 4a 00
        E 0 80 6e 00
        E 0 80 3e 00
        E 0 80 2f 00
        E 180 90 63 60
        E 0 90 57 60
        E 0 90 6f 60
        E 0 90 31 60
        E 60 80 63 00
        E 0 80 57 00
        E 0 80 6f 00
        E 0 80 31 00
        E 178 90 62 60
        E 0 90 56 60
        E 0 90 4a 60
        E 0 90 6e 60
        E 0 90 3e 60
        E 0 90 2f 60
        E 60 80 62 00
        E 0 80 56 00
        E 0 80 4a 00
        E 0 80 6e 00
        E 0 80 3e 00
        E 0 80 2f 00
        E 182 90 61 60
        E 0 90 63 60
        E 0 90 55 60
        E 0 90 57 60
        E 0 90 6f 60
        E 0 90 1a 60
        E 0 90 31 60
        E 60 80 61 00
        E 0 80 63 00
        E 0 80 55 00
        E 0 80 57 00
        E 0 80 6f 00
        E 0 80 1a 00
        E 0 80 31 00
        E 660 90 62 60
        E 0 90 56 60
        E 0 90 4a 60
        E 0 90 6e 60
        E 0 90 3e 60
        E 0 90 2f 60
        E 60 80 62 00
        E 0 80 56 00
        E 0 80 4a 00
        E 0 80 6e 00
        E 0 80 3e 00
        E 0 80 2f 00
        E 420 90 63 60
        E 0 90 57 60
        E 0 90 4b 60
        E 0 90 6f 60
        E 0 90 3f 60
        E 0 90 31 60
        E 60 80 63 00
        E 0 80 57 00
        E 0 80 4b 00
        E 0 80 6f 00
        E 0 80 3f 00
        E 0 80 31 00
        E 420 90 63 60
        E 0 90 57 60
        E 0 90 4b 60
        E 0 90 6f 60
        E 0 90 3f 60
        E 0 90 31 60
        E 60 80 63 00
        E 0 80 57 00
        E 0 80 4b 00
        E 0 80 6f 00
        E 0 80 3f 00
        E 0 80 31 00
        E 180 90 62 60
        E 0 90 56 60
        E 0 90 6e 60
        E 0 90 2f 60
        E 60 80 62 00
        E 0 80 56 00
        E 0 80 6e 00
        E 0 80 2f 00
        E 180 90 62 60
        E 0 90 56 60
        E 0 90 4a 60
        E 0 90 6e 60
        E 0 90 3e 60
        E 0 90 2f 60
        E 60 80 62 00
        E 0 80 56 00
        E 0 80 4a 00
        E 0 80 6e 00
        E 0 80 3e 00
        E 0 80 2f 00
        E 180 90 63 60
        E 0 90 57 60
        E 0 90 6f 60
        E 0 90 31 60
        E 60 80 63 00
        E 0 80 57 00
        E 0 80 6f 00
        E 0 80 31 00
        E 178 90 62 60
        E 0 90 56 60
        E 0 90 4a 60
        E 0 90 6e 60
        E 0 90 3e 60
        E 0 90 2f 60
        E 60 80 62 00
        E 0 80 56 00
        E 0 80 4a 00
        E 0 80 6e 00
        E 0 80 3e 00
        E 0 80 2f 00
        E 182 90 61 60
        E 0 90 63 60
        E 0 90 55 60
        E 0 90 57 60
        E 0 90 6f 60
        E 0 90 1a 60
        E 0 90 31 60
        E 60 80 61 00
        E 0 80 63 00
        E 0 80 55 00
        E 0 80 57 00
        E 0 80 6f 00
        E 0 80 1a 00
        E 0 80 31 00
        E 660 90 62 60
        E 0 90 56 60
        E 0 90 4a 60
        E 0 90 6e 60
        E 0 90 3e 60
        E 0 90 2f 60
        E 60 80 62 00
        E 0 80 56 00
        E 0 80 4a 00
        E 0 80 6e 00
        E 0 80 3e 00
        E 0 80 2f 00
        E 420 90 63 60
        E 0 90 57 60
        E 0 90 4b 60
        E 0 90 6f 60
        E 0 90 3f 60
        E 0 90 31 60
        E 60 80 63 00
        E 0 80 57 00
        E 0 80 4b 00
        E 0 80 6f 00
        E 0 80 3f 00
        E 0 80 31 00
        E 420 90 63 60
        E 0 90 57 60
        E 0 90 4b 60
        E 0 90 6f 60
        E 0 90 3f 60
        E 0 90 31 60
        E 60 80 63 00
        E 0 80 57 00
        E 0 80 4b 00
        E 0 80 6f 00
        E 0 80 3f 00
        E 0 80 31 00
        E 180 90 62 60
        E 0 90 56 60
        E 0 90 6e 60
        E 0 90 2f 60
        E 60 80 62 00
        E 0 80 56 00
        E 0 80 6e 00
        E 0 80 2f 00
        E 180 90 62 60
        E 0 90 56 60
        E 0 90 4a 60
        E 0 90 6e 60
        E 0 90 3e 60
        E 0 90 2f 60
        E 60 80 62 00
        E 0 80 56 00
        E 0 80 4a 00
        E 0 80 6e 00
        E 0 80 3e 00
        E 0 80 2f 00
        E 180 90 63 60
        E 0 90 57 60
        E 0 90 6f 60
        E 0 90 31 60
        E 60 80 63 00
        E 0 80 57 00
        E 0 80 6f 00
        E 0 80 31 00
        E 178 90 62 60
        E 0 90 56 60
        E 0 90 4a 60
        E 0 90 6e 60
        E 0 90 3e 60
        E 0 90 2f 60
        E 60 80 62 00
        E 0 80 56 00
        E 0 80 4a 00
        E 0 80 6e 00
        E 0 80 3e 00
        E 0 80 2f 00
        E 182 90 61 60
        E 0 90 63 60
        E 0 90 55 60
        E 0 90 57 60
        E 0 90 6f 60
        E 0 90 1a 60
        E 0 90 31 60
        E 60 80 61 00
        E 0 80 63 00
        E 0 80 55 00
        E 0 80 57 00
        E 0 80 6f 00
        E 0 80 1a 00
        E 0 80 31 00
        E 660 90 62 60
        E 0 90 56 60
        E 0 90 4a 60
        E 0 90 6e 60
        E 0 90 3e 60
        E 0 90 2f 60
        E 60 80 62 00
        E 0 80 56 00
        E 0 80 4a 00
        E 0 80 6e 00
        E 0 80 3e 00
        E 0 80 2f 00
        E 420 90 63 60
        E 0 90 57 60
        E 0 90 4b 60
        E 0 90 6f 60
        E 0 90 3f 60
        E 0 90 31 60
        E 60 80 63 00
        E 0 80 57 00
        E 0 80 4b 00
        E 0 80 6f 00
        E 0 80 3f 00
        E 0 80 31 00
        E 420 90 63 60
        E 0 90 57 60
        E 0 90 4b 60
        E 0 90 6f 60
        E 0 90 3f 60
        E 0 90 31 60
        E 60 80 63 00
        E 0 80 57 00
        E 0 80 4b 00
        E 0 80 6f 00
        E 0 80 3f 00
        E 0 80 31 00
        E 180 90 62 60
        E 0 90 56 60
        E 0 90 6e 60
        E 0 90 2f 60
        E 60 80 62 00
        E 0 80 56 00
        E 0 80 6e 00
        E 0 80 2f 00
        E 180 90 62 60
        E 0 90 56 60
        E 0 90 4a 60
        E 0 90 6e 60
        E 0 90 3e 60
        E 0 90 2f 60
        E 60 80 62 00
        E 0 80 56 00
        E 0 80 4a 00
        E 0 80 6e 00
        E 0 80 3e 00
        E 0 80 2f 00
        E 180 90 63 60
        E 0 90 57 60
        E 0 90 6f 60
        E 0 90 31 60
        E 60 80 63 00
        E 0 80 57 00
        E 0 80 6f 00
        E 0 80 31 00
        E 178 90 62 60
        E 0 90 56 60
        E 0 90 4a 60
        E 0 90 6e 60
        E 0 90 3e 60
        E 0 90 2f 60
        E 60 80 62 00
        E 0 80 56 00
        E 0 80 4a 00
        E 0 80 6e 00
        E 0 80 3e 00
        E 0 80 2f 00
        E 182 90 61 60
        E 0 90 63 60
        E 0 90 55 60
        E 0 90 57 60
        E 0 90 6f 60
        E 0 90 1a 60
        E 0 90 31 60
        E 60 80 61 00
        E 0 80 63 00
        E 0 80 55 00
        E 0 80 57 00
        E 0 80 6f 00
        E 0 80 1a 00
        E 0 80 31 00
        E 660 90 62 60
        E 0 90 56 60
        E 0 90 4a 60
        E 0 90 6e 60
        E 0 90 3e 60
        E 0 90 2f 60
        E 60 80 62 00
        E 0 80 56 00
        E 0 80 4a 00
        E 0 80 6e 00
        E 0 80 3e 00
        E 0 80 2f 00
        E 420 90 63 60
        E 0 90 57 60
        E 0 90 4b 60
        E 0 90 6f 60
        E 0 90 3f 60
        E 0 90 31 60
        E 60 80 63 00
        E 0 80 57 00
        E 0 80 4b 00
        E 0 80 6f 00
        E 0 80 3f 00
        E 0 80 31 00
        E 420 90 63 60
        E 0 90 57 60
        E 0 90 4b 60
        E 0 90 6f 60
        E 0 90 3f 60
        E 0 90 31 60
        E 60 80 63 00
        E 0 80 57 00
        E 0 80 4b 00
        E 0 80 6f 00
        E 0 80 3f 00
        E 0 80 31 00
        E 420 90 63 60
        E 0 90 57 60
        E 0 90 4b 60
        E 0 90 6f 60
        E 0 90 3f 60
        E 0 90 31 60
        E 60 80 63 00
        E 0 80 57 00
        E 0 80 4b 00
        E 0 80 6f 00
        E 0 80 3f 00
        E 0 80 31 00
        E 2340 90 62 60
        E 0 90 56 60
        E 0 90 4a 60
        E 0 90 6e 60
        E 0 90 3e 60
        E 0 90 2f 60
        E 60 80 62 00
        E 0 80 56 00
        E 0 80 4a 00
        E 0 80 6e 00
        E 0 80 3e 00
        E 0 80 2f 00
        E 420 90 62 60
        E 0 90 56 60
        E 0 90 4a 60
        E 0 90 6e 60
        E 0 90 3e 60
        E 0 90 2f 60
        E 60 80 62 00
        E 0 80 56 00
        E 0 80 4a 00
        E 0 80 6e 00
        E 0 80 3e 00
        E 0 80 2f 00
        E 180 90 62 60
        E 0 90 56 60
        E 0 90 6e 60
        E 0 90 2f 60
        E 60 80 62 00
        E 0 80 56 00
        E 0 80 6e 00
        E 0 80 2f 00
        E 420 90 60 60
        E 0 90 61 60
        E 0 90 54 60
        E 0 90 55 60
        E 0 90 49 60
        E 0 90 3d 60
        E 0 90 18 60
        E 0 90 1a 60
        E 60 80 60 00
        E 0 80 61 00
        E 0 80 54 00
        E 0 80 55 00
        E 0 80 49 00
        E 0 80 3d 00
        E 0 80 18 00
        E 0 80 1a 00
        E 420 90 63 60
        E 0 90 57 60
        E 0 90 4b 60
        E 0 90 6f 60
        E 0 90 3f 60
        E 0 90 31 60
        E 60 80 63 00
        E 0 80 57 00
        E 0 80 4b 00
        E 0 80 6f 00
        E 0 80 3f 00
        E 0 80 31 00
        E 420 90 62 60
        E 0 90 56 60
        E 0 90 6e 60
        E 0 90 2f 60
        E 60 80 62 00
        E 0 80 56 00
        E 0 80 6e 00
        E 0 80 2f 00
        E 180 90 61 60
        E 0 90 63 60
        E 0 90 55 60
        E 0 90 57 60
        E 0 90 49 60
        E 0 90 4b 60
        E 0 90 6f 60
        E 0 90 3d 60
        E 0 90 3f 60
        E 0 90 1a 60
        E 0 90 31 60
        E 60 80 61 00
        E 0 80 63 00
        E 0 80 55 00
        E 0 80 57 00
        E 0 80 49 00
        E 0 80 4b 00
        E 0 80 6f 00
        E 0 80 3d 00
        E 0 80 3f 00
        E 0 80 1a 00
        E 0 80 31 00
        E 420 90 60 60
        E 0 90 61 60
        E 0 90 54 60
        E 0 90 55 60
        E 0 90 49 60
        E 0 90 3d 60
        E 0 90 18 60
        E 0 90 1a 60
        E 60 80 60 00
        E 0 80 61 00
        E 0 80 54 00
        E 0 80 55 00
        E 0 80 49 00
        E 0 80 3d 00
        E 0 80 18 00
        E 0 80 1a 00
        E 420 90 60 60
        E 0 90 61 60
        E 0 90 54 60
        E 0 90 55 60
        E 0 90 49 60
        E 0 90 3d 60
        E 0 90 18 60
        E 0 90 1a 60
        E 60 80 60 00
        E 0 80 61 00
        E 0 80 54 00
        E 0 80 55 00
        E 0 80 49 00
        E 0 80 3d 00
        E 0 80 18 00
        E 0 80 1a 00
        E 660 90 63 60
        E 0 90 57 60
        E 0 90 4b 60
        E 0 90 6f 60
        E 0 90 3f 60
        E 0 90 31 60
        E 60 80 63 00
        E 0 80 57 00
        E 0 80 4b 00
        E 0 80 6f 00
        E 0 80 3f 00
        E 0 80 31 00
        E 420 90 62 60
        E 0 90 56 60
        E 0 90 6e 60
        E 0 90 2f 60
        E 60 80 62 00
        E 0 80 56 00
        E 0 80 6e 00
        E 0 80 2f 00
        E 180 90 61 60
        E 0 90 63 60
        E 0 90 55 60
        E 0 90 57 60
        E 0 90 49 60
        E 0 90 4b 60
        E 0 90 6f 60
        E 0 90 3d 60
        E 0 90 3f 60
        E 0 90 1a 60
        E 0 90 31 60
        E 60 80 61 00
        E 0 80 63 00
        E 0 80 55 00
        E 0 80 57 00
        E 0 80 49 00
        E 0 80 4b 00
        E 0 80 6f 00
        E 0 80 3d 00
        E 0 80 3f 00
        E 0 80 1a 00
        E 0 80 31 00
        E 420 90 63 60
        E 0 90 57 60
        E 0 90 4b 60
        E 0 90 6f 60
        E 0 90 3f 60
        E 0 90 31 60
        E 60 80 63 00
        E 0 80 57 00
        E 0 80 4b 00
        E 0 80 6f 00
        E 0 80 3f 00
        E 0 80 31 00
        E 420 90 61 60
        E 0 90 55 60
        E 0 90 49 60
        E 0 90 3d 60
        E 0 90 1a 60
        E 60 80 61 00
        E 0 80 55 00
        E 0 80 49 00
        E 0 80 3d 00
        E 0 80 1a 00
        E 420 90 60 60
        E 0 90 61 60
        E 0 90 54 60
        E 0 90 55 60
        E 0 90 49 60
        E 0 90 3d 60
        E 0 90 18 60
        E 0 90 1a 60
        E 60 80 60 00
        E 0 80 61 00
        E 0 80 54 00
        E 0 80 55 00
        E 0 80 49 00
        E 0 80 3d 00
        E 0 80 18 00
        E 0 80 1a 00
        E 660 90 63 60
        E 0 90 57 60
        E 0 90 4b 60
        E 0 90 6f 60
        E 0 90 3f 60
        E 0 90 31 60
        E 60 80 63 00
        E 0 80 57 00
        E 0 80 4b 00
        E 0 80 6f 00
        E 0 80 3f 00
        E 0 80 31 00
        E 420 90 62 60
        E 0 90 56 60
        E 0 90 6e 60
        E 0 90 2f 60
        E 60 80 62 00
        E 0 80 56 00
        E 0 80 6e 00
        E 0 80 2f 00
        E 180 90 61 60
        E 0 90 63 60
        E 0 90 55 60
        E 0 90 57 60
        E 0 90 49 60
        E 0 90 4b 60
        E 0 90 6f 60
        E 0 90 3d 60
        E 0 90 3f 60
        E 0 90 1a 60
        E 0 90 31 60
        E 60 80 61 00
        E 0 80 63 00
        E 0 80 55 00
        E 0 80 57 00
        E 0 80 49 00
        E 0 80 4b 00
        E 0 80 6f 00
        E 0 80 3d 00
        E 0 80 3f 00
        E 0 80 1a 00
        E 0 80 31 00
        E 420 90 63 60
        E 0 90 57 60
        E 0 90 4b 60
        E 0 90 6f 60
        E 0 90 3f 60
        E 0 90 31 60
        E 60 80 63 00
        E 0 80 57 00
        E 0 80 4b 00
        E 0 80 6f 00
        E 0 80 3f 00
        E 0 80 31 00
        E 420 90 61 60
        E 0 90 55 60
        E 0 90 49 60
        E 0 90 3d 60
        E 0 90 1a 60
        E 60 80 61 00
        E 0 80 55 00
        E 0 80 49 00
        E 0 80 3d 00
        E 0 80 1a 00
        E 420 90 60 60
        E 0 90 61 60
        E 0 90 54 60
        E 0 90 55 60
        E 0 90 49 60
        E 0 90 3d 60
        E 0 90 18 60
        E 0 90 1a 60
        E 60 80 60 00
        E 0 80 61 00
        E 0 80 54 00
        E 0 80 55 00
        E 0 80 49 00
        E 0 80 3d 00
        E 0 80 18 00
        E 0 80 1a 00
        E 660 90 63 60
        E 0 90 57 60
        E 0 90 4b 60
        E 0 90 6f 60
        E 0 90 3f 60
        E 0 90 31 60
        E 60 80 63 00
        E 0 80 57 00
        E 0 80 4b 00
        E 0 80 6f 00
        E 0 80 3f 00
        E 0 80 31 00
        E 420 90 62 60
        E 0 90 56 60
        E 0 90 6e 60
        E 0 90 2f 60
        E 60 80 62 00
        E 0 80 56 00
        E 0 80 6e 00
        E 0 80 2f 00
        E 180 90 61 60
        E 0 90 63 60
        E 0 90 55 60
        E 0 90 57 60
        E 0 90 49 60
        E 0 90 4b 60
        E 0 90 6f 60
        E 0 90 3d 60
        E 0 90 3f 60
        E 0 90 1a 60
        E 0 90 31 60
        E 60 80 61 00
        E 0 80 63 00
        E 0 80 55 00
        E 0 80 57 00
        E 0 80 49 00
        E 0 80 4b 00
        E 0 80 6f 00
        E 0 80 3d 00
        E 0 80 3f 00
        E 0 80 1a 00
        E 0 80 31 00
        E 180 90 62 60
        E 0 90 78 61
        E 0 90 79 61
        E 0 90 7a 61
        E 0 90 7b 61
        E 0 90 7c 61
        E 0 90 56 60
        E 0 90 1f 60
        E 60 80 62 00
        E 0 80 56 00
        E 0 80 1f 00
        E 180 90 62 60
        E 0 90 56 60
        E 0 90 4a 60
        E 0 90 3e 60
        E 0 90 1f 60
        E 60 80 62 00
        E 0 80 56 00
        E 0 80 4a 00
        E 0 80 3e 00
        E 0 80 1f 00
        E 180 90 62 60
        E 0 90 56 60
        E 0 90 1f 60
        E 60 80 62 00
        E 0 80 56 00
        E 0 80 1f 00
        E 180 90 61 60
        E 0 90 55 60
        E 0 90 49 60
        E 0 90 3d 60
        E 0 90 1a 60
        E 60 80 61 00
        E 0 80 55 00
        E 0 80 49 00
        E 0 80 3d 00
        E 0 80 1a 00
        E 420 80 78 00
        E 0 80 79 00
        E 0 80 7a 00
        E 0 80 7b 00
        E 0 80 7c 00
        E 0 90 60 60
        E 0 90 61 60
        E 0 90 54 60
        E 0 90 55 60
        E 0 90 49 60
        E 0 90 3d 60
        E 0 90 18 60
        E 0 90 1a 60
        E 60 80 60 00
        E 0 80 61 00
        E 0 80 54 00
        E 0 80 55 00
        E 0 80 49 00
        E 0 80 3d 00
        E 0 80 18 00
        E 0 80 1a 00
        E 660 90 63 60
        E 0 90 57 60
        E 0 90 4b 60
        E 0 90 6f 60
        E 0 90 3f 60
        E 0 90 31 60
        E 60 80 63 00
        E 0 80 57 00
        E 0 80 4b 00
        E 0 80 6f 00
        E 0 80 3f 00
        E 0 80 31 00
        E 420 90 62 60
        E 0 90 56 60
        E 0 90 6e 60
        E 0 90 2f 60
        E 60 80 62 00
        E 0 80 56 00
        E 0 80 6e 00
        E 0 80 2f 00
        E 180 90 61 60
        E 0 90 63 60
        E 0 90 55 60
        E 0 90 57 60
        E 0 90 49 60
        E 0 90 4b 60
        E 0 90 6f 60
        E 0 90 3d 60
        E 0 90 3f 60
        E 0 90 1a 60
        E 0 90 31 60
        E 60 80 61 00
        E 0 80 63 00
        E 0 80 55 00
        E 0 80 57 00
        E 0 80 49 00
        E 0 80 4b 00
        E 0 80 6f 00
        E 0 80 3d 00
        E 0 80 3f 00
        E 0 80 1a 00
        E 0 80 31 00
        E 420 90 63 60
        E 0 90 57 60
        E 0 90 4b 60
        E 0 90 6f 60
        E 0 90 3f 60
        E 0 90 31 60
        E 60 80 63 00
        E 0 80 57 00
        E 0 80 4b 00
        E 0 80 6f 00
        E 0 80 3f 00
        E 0 80 31 00
        E 420 90 61 60
        E 0 90 55 60
        E 0 90 49 60
        E 0 90 3d 60
        E 0 90 1a 60
        E 60 80 61 00
        E 0 80 55 00
        E 0 80 49 00
        E 0 80 3d 00
        E 0 80 1a 00
        E 420 90 60 60
        E 0 90 61 60
        E 0 90 54 60
        E 0 90 55 60
        E 0 90 49 60
        E 0 90 3d 60
        E 0 90 18 60
        E 0 90 1a 60
        E 60 80 60 00
        E 0 80 61 00
        E 0 80 54 00
        E 0 80 55 00
        E 0 80 49 00
        E 0 80 3d 00
        E 0 80 18 00
        E 0 80 1a 00
        E 660 90 63 60
        E 0 90 57 60
        E 0 90 4b 60
        E 0 90 6f 60
        E 0 90 3f 60
        E 0 90 31 60
        E 60 80 63 00
        E 0 80 57 00
        E 0 80 4b 00
        E 0 80 6f 00
        E 0 80 3f 00
        E 0 80 31 00
        E 420 90 62 60
        E 0 90 56 60
        E 0 90 6e 60
        E 0 90 2f 60
        E 60 80 62 00
        E 0 80 56 00
        E 0 80 6e 00
        E 0 80 2f 00
        E 180 90 61 60
        E 0 90 63 60
        E 0 90 55 60
        E 0 90 57 60
        E 0 90 49 60
        E 0 90 4b 60
        E 0 90 6f 60
        E 0 90 3d 60
        E 0 90 3f 60
        E 0 90 1a 60
        E 0 90 31 60
        E 60 80 61 00
        E 0 80 63 00
        E 0 80 55 00
        E 0 80 57 00
        E 0 80 49 00
        E 0 80 4b 00
        E 0 80 6f 00
        E 0 80 3d 00
        E 0 80 3f 00
        E 0 80 1a 00
        E 0 80 31 00
        E 180 90 62 60
        E 0 90 56 60
        E 0 90 1f 60
        E 60 80 62 00
        E 0 80 56 00
        E 0 80 1f 00
        E 43 90 74 61
        E 137 90 62 60
        E 0 90 56 60
        E 0 90 4a 60
        E 0 90 3e 60
        E 0 90 1f 60
        E 60 80 62 00
        E 0 80 56 00
        E 0 80 4a 00
        E 0 80 3e 00
        E 0 80 1f 00
        E 180 90 62 60
        E 0 90 56 60
        E 0 90 1f 60
        E 60 80 62 00
        E 0 80 56 00
        E 0 80 1f 00
        E 180 90 61 60
        E 0 90 55 60
        E 0 90 49 60
        E 0 90 3d 60
        E 0 90 1a 60
        E 60 80 61 00
        E 0 80 55 00
        E 0 80 49 00
        E 0 80 3d 00
        E 0 80 1a 00
        E 420 90 60 60
        E 0 90 61 60
        E 0 90 54 60
        E 0 90 55 60
        E 0 90 49 60
        E 0 90 3d 60
        E 0 90 18 60
        E 0 90 1a 60
        E 60 80 60 00
        E 0 80 61 00
        E 0 80 54 00
        E 0 80 55 00
        E 0 80 49 00
        E 0 80 3d 00
        E 0 80 18 00
        E 0 80 1a 00
        E 660 90 63 60
        E 0 90 57 60
        E 0 90 4b 60
        E 0 90 6f 60
        E 0 90 3f 60
        E 0 90 31 60
        E 60 80 63 00
        E 0 80 57 00
        E 0 80 4b 00
        E 0 80 6f 00
        E 0 80 3f 00
        E 0 80 31 00
        E 420 90 62 60
        E 0 90 56 60
        E 0 90 6e 60
        E 0 90 2f 60
        E 60 80 62 00
        E 0 80 56 00
        E 0 80 6e 00
        E 0 80 2f 00
        E 180 90 61 60
        E 0 90 63 60
        E 0 90 55 60
        E 0 90 57 60
        E 0 90 49 60
        E 0 90 4b 60
        E 0 90 6f 60
        E 0 90 3d 60
        E 0 90 3f 60
        E 0 90 1a 60
        E 0 90 31 60
        E 60 80 61 00
        E 0 80 63 00
        E 0 80 55 00
        E 0 80 57 00
        E 0 80 49 00
        E 0 80 4b 00
        E 0 80 6f 00
        E 0 80 3d 00
        E 0 80 3f 00
        E 0 80 1a 00
        E 0 80 31 00
        E 420 90 63 60
        E 0 90 57 60
        E 0 90 4b 60
        E 0 90 6f 60
        E 0 90 3f 60
        E 0 90 31 60
        E 60 80 63 00
        E 0 80 57 00
        E 0 80 4b 00
        E 0 80 6f 00
        E 0 80 3f 00
        E 0 80 31 00
        E 420 90 61 60
        E 0 90 55 60
        E 0 90 49 60
        E 0 90 3d 60
        E 0 90 1a 60
        E 60 80 61 00
        E 0 80 55 00
        E 0 80 49 00
        E 0 80 3d 00
        E 0 80 1a 00
        E 420 90 60 60
        E 0 90 61 60
        E 0 90 54 60
        E 0 90 55 60
        E 0 90 49 60
        E 0 90 3d 60
        E 0 90 18 60
        E 0 90 1a 60
        E 60 80 60 00
        E 0 80 61 00
        E 0 80 54 00
        E 0 80 55 00
        E 0 80 49 00
        E 0 80 3d 00
        E 0 80 18 00
        E 0 80 1a 00
        E 660 90 63 60
        E 0 90 57 60
        E 0 90 4b 60
        E 0 90 6f 60
        E 0 90 3f 60
        E 0 90 31 60
        E 60 80 63 00
        E 0 80 57 00
        E 0 80 4b 00
        E 0 80 6f 00
        E 0 80 3f 00
        E 0 80 31 00
        E 420 90 62 60
        E 0 90 56 60
        E 0 90 6e 60
        E 0 90 2f 60
        E 60 80 62 00
        E 0 80 56 00
        E 0 80 6e 00
        E 0 80 2f 00
        E 180 90 61 60
        E 0 90 63 60
        E 0 90 55 60
        E 0 90 57 60
        E 0 90 49 60
        E 0 90 4b 60
        E 0 90 6f 60
        E 0 90 3d 60
        E 0 90 3f 60
        E 0 90 1a 60
        E 0 90 31 60
        E 60 80 61 00
        E 0 80 63 00
        E 0 80 55 00
        E 0 80 57 00
        E 0 80 49 00
        E 0 80 4b 00
        E 0 80 6f 00
        E 0 80 3d 00
        E 0 80 3f 00
        E 0 80 1a 00
        E 0 80 31 00
        E 114 80 74 00
        E 66 90 62 60
        E 0 90 56 60
        E 0 90 1f 60
        E 60 80 62 00
        E 0 80 56 00
        E 0 80 1f 00
        E 180 90 62 60
        E 0 90 56 60
        E 0 90 4a 60
        E 0 90 3e 60
        E 0 90 1f 60
        E 60 80 62 00
        E 0 80 56 00
        E 0 80 4a 00
        E 0 80 3e 00
        E 0 80 1f 00
        E 180 90 62 60
        E 0 90 56 60
        E 0 90 1f 60
        E 60 80 62 00
        E 0 80 56 00
        E 0 80 1f 00
        E 180 90 61 60
        E 0 90 55 60
        E 0 90 49 60
        E 0 90 3d 60
        E 0 90 1a 60
        E 60 80 61 00
        E 0 80 55 00
        E 0 80 49 00
        E 0 80 3d 00
        E 0 80 1a 00
        E 420 90 60 60
        E 0 90 61 60
        E 0 90 54 60
        E 0 90 55 60
        E 0 90 49 60
        E 0 90 3d 60
        E 0 90 18 60
        E 0 90 1a 60
        E 60 80 60 00
        E 0 80 61 00
        E 0 80 54 00
        E 0 80 55 00
        E 0 80 49 00
        E 0 80 3d 00
        E 0 80 18 00
        E 0 80 1a 00
        E 660 90 63 60
        E 0 90 57 60
        E 0 90 4b 60
        E 0 90 6f 60
        E 0 90 3f 60
        E 0 90 31 60
        E 60 80 63 00
        E 0 80 57 00
        E 0 80 4b 00
        E 0 80 6f 00
        E 0 80 3f 00
        E 0 80 31 00
        E 420 90 62 60
        E 0 90 56 60
        E 0 90 6e 60
        E 0 90 2f 60
        E 60 80 62 00
        E 0 80 56 00
        E 0 80 6e 00
        E 0 80 2f 00
        E 180 90 61 60
        E 0 90 63 60
        E 0 90 55 60
        E 0 90 57 60
        E 0 90 49 60
        E 0 90 4b 60
        E 0 90 6f 60
        E 0 90 3d 60
        E 0 90 3f 60
        E 0 90 1a 60
        E 0 90 31 60
        E 60 80 61 00
        E 0 80 63 00
        E 0 80 55 00
        E 0 80 57 00
        E 0 80 49 00
        E 0 80 4b 00
        E 0 80 6f 00
        E 0 80 3d 00
        E 0 80 3f 00
        E 0 80 1a 00
        E 0 80 31 00
        E 420 90 63 60
        E 0 90 57 60
        E 0 90 4b 60
        E 0 90 6f 60
        E 0 90 3f 60
        E 0 90 31 60
        E 60 80 63 00
        E 0 80 57 00
        E 0 80 4b 00
        E 0 80 6f 00
        E 0 80 3f 00
        E 0 80 31 00
        E 420 90 61 60
        E 0 90 55 60
        E 0 90 49 60
        E 0 90 3d 60
        E 0 90 1a 60
        E 60 80 61 00
        E 0 80 55 00
        E 0 80 49 00
        E 0 80 3d 00
        E 0 80 1a 00
        E 420 90 60 60
        E 0 90 61 60
        E 0 90 54 60
        E 0 90 55 60
        E 0 90 49 60
        E 0 90 3d 60
        E 0 90 18 60
        E 0 90 1a 60
        E 60 80 60 00
        E 0 80 61 00
        E 0 80 54 00
        E 0 80 55 00
        E 0 80 49 00
        E 0 80 3d 00
        E 0 80 18 00
        E 0 80 1a 00
        E 660 90 63 60
        E 0 90 57 60
        E 0 90 4b 60
        E 0 90 6f 60
        E 0 90 3f 60
        E 0 90 31 60
        E 60 80 63 00
        E 0 80 57 00
        E 0 80 4b 00
        E 0 80 6f 00
        E 0 80 3f 00
        E 0 80 31 00
        E 420 90 62 60
        E 0 90 56 60
        E 0 90 6e 60
        E 0 90 2f 60
        E 60 80 62 00
        E 0 80 56 00
        E 0 80 6e 00
        E 0 80 2f 00
        E 180 90 61 60
        E 0 90 63 60
        E 0 90 55 60
        E 0 90 57 60
        E 0 90 49 60
        E 0 90 4b 60
        E 0 90 6f 60
        E 0 90 3d 60
        E 0 90 3f 60
        E 0 90 1a 60
        E 0 90 31 60
        E 60 80 61 00
        E 0 80 63 00
        E 0 80 55 00
        E 0 80 57 00
        E 0 80 49 00
        E 0 80 4b 00
        E 0 80 6f 00
        E 0 80 3d 00
        E 0 80 3f 00
        E 0 80 1a 00
        E 0 80 31 00
        E 180 90 62 60
        E 0 90 56 60
        E 0 90 1f 60
        E 60 80 62 00
        E 0 80 56 00
        E 0 80 1f 00
        E 180 90 62 60
        E 0 90 56 60
        E 0 90 4a 60
        E 0 90 3e 60
        E 0 90 1f 60
        E 60 80 62 00
        E 0 80 56 00
        E 0 80 4a 00
        E 0 80 3e 00
        E 0 80 1f 00
        E 180 90 62 60
        E 0 90 56 60
        E 0 90 1f 60
        E 60 80 62 00
        E 0 80 56 00
        E 0 80 1f 00
        E 180 90 61 60
        E 0 90 55 60
        E 0 90 49 60
        E 0 90 3d 60
        E 0 90 1a 60
        E 60 80 61 00
        E 0 80 55 00
        E 0 80 49 00
        E 0 80 3d 00
        E 0 80 1a 00
        E 420 90 60 60
        E 0 90 61 60
        E 0 90 54 60
        E 0 90 55 60
        E 0 90 49 60
        E 0 90 3d 60
        E 0 90 18 60
        E 0 90 1a 60
        E 60 80 60 00
        E 0 80 61 00
        E 0 80 54 00
        E 0 80 55 00
        E 0 80 49 00
        E 0 80 3d 00
        E 0 80 18 00
        E 0 80 1a 00
        E 660 90 63 60
        E 0 90 57 60
        E 0 90 4b 60
        E 0 90 6f 60
        E 0 90 3f 60
        E 0 90 31 60
        E 60 80 63 00
        E 0 80 57 00
        E 0 80 4b 00
        E 0 80 6f 00
        E 0 80 3f 00
        E 0 80 31 00
        E 420 90 62 60
        E 0 90 56 60
        E 0 90 6e 60
        E 0 90 2f 60
        E 60 80 62 00
        E 0 80 56 00
        E 0 80 6e 00
        E 0 80 2f 00
        E 180 90 61 60
        E 0 90 63 60
        E 0 90 55 60
        E 0 90 57 60
        E 0 90 49 60
        E 0 90 4b 60
        E 0 90 6f 60
        E 0 90 3d 60
        E 0 90 3f 60
        E 0 90 1a 60
        E 0 90 31 60
        E 60 80 61 00
        E 0 80 63 00
        E 0 80 55 00
        E 0 80 57 00
        E 0 80 49 00
        E 0 80 4b 00
        E 0 80 6f 00
        E 0 80 3d 00
        E 0 80 3f 00
        E 0 80 1a 00
        E 0 80 31 00
        E 420 90 63 60
        E 0 90 57 60
        E 0 90 4b 60
        E 0 90 6f 60
        E 0 90 3f 60
        E 0 90 31 60
        E 60 80 63 00
        E 0 80 57 00
        E 0 80 4b 00
        E 0 80 6f 00
        E 0 80 3f 00
        E 0 80 31 00
        E 420 90 61 60
        E 0 90 55 60
        E 0 90 49 60
        E 0 90 3d 60
        E 0 90 1a 60
        E 60 80 61 00
        E 0 80 55 00
        E 0 80 49 00
        E 0 80 3d 00
        E 0 80 1a 00
        E 420 90 60 60
        E 0 90 61 60
        E 0 90 54 60
        E 0 90 55 60
        E 0 90 49 60
        E 0 90 3d 60
        E 0 90 18 60
        E 0 90 1a 60
        E 60 80 60 00
        E 0 80 61 00
        E 0 80 54 00
        E 0 80 55 00
        E 0 80 49 00
        E 0 80 3d 00
        E 0 80 18 00
        E 0 80 1a 00
        E 660 90 63 60
        E 0 90 57 60
        E 0 90 4b 60
        E 0 90 6f 60
        E 0 90 3f 60
        E 0 90 31 60
        E 60 80 63 00
        E 0 80 57 00
        E 0 80 4b 00
        E 0 80 6f 00
        E 0 80 3f 00
        E 0 80 31 00
        E 420 90 62 60
        E 0 90 56 60
        E 0 90 6e 60
        E 0 90 2f 60
        E 60 80 62 00
        E 0 80 56 00
        E 0 80 6e 00
        E 0 80 2f 00
        E 180 90 61 60
        E 0 90 63 60
        E 0 90 55 60
        E 0 90 57 60
        E 0 90 49 60
        E 0 90 4b 60
        E 0 90 6f 60
        E 0 90 3d 60
        E 0 90 3f 60
        E 0 90 1a 60
        E 0 90 31 60
        E 60 80 61 00
        E 0 80 63 00
        E 0 80 55 00
        E 0 80 57 00
        E 0 80 49 00
        E 0 80 4b 00
        E 0 80 6f 00
        E 0 80 3d 00
        E 0 80 3f 00
        E 0 80 1a 00
        E 0 80 31 00
        E 180 90 62 60
        E 0 90 56 60
        E 0 90 1f 60
        E 60 80 62 00
        E 0 80 56 00
        E 0 80 1f 00
        E 180 90 62 60
        E 0 90 56 60
        E 0 90 4a 60
        E 0 90 3e 60
        E 0 90 1f 60
        E 60 80 62 00
        E 0 80 56 00
        E 0 80 4a 00
        E 0 80 3e 00
        E 0 80 1f 00
        E 180 90 62 60
        E 0 90 56 60
        E 0 90 1f 60
        E 60 80 62 00
        E 0 80 56 00
        E 0 80 1f 00
        E 180 90 61 60
        E 0 90 55 60
        E 0 90 49 60
        E 0 90 3d 60
        E 0 90 1a 60
        E 60 80 61 00
        E 0 80 55 00
        E 0 80 49 00
        E 0 80 3d 00
        E 0 80 1a 00
        E 420 90 60 60
        E 0 90 61 60
        E 0 90 54 60
        E 0 90 55 60
        E 0 90 49 60
        E 0 90 3d 60
        E 0 90 18 60
        E 0 90 1a 60
        E 60 80 60 00
        E 0 80 61 00
        E 0 80 54 00
        E 0 80 55 00
        E 0 80 49 00
        E 0 80 3d 00
        E 0 80 18 00
        E 0 80 1a 00
        E 660 90 63 60
        E 0 90 57 60
        E 0 90 4b 60
        E 0 90 6f 60
        E 0 90 3f 60
        E 0 90 31 60
        E 60 80 63 00
        E 0 80 57 00
        E 0 80 4b 00
        E 0 80 6f 00
        E 0 80 3f 00
        E 0 80 31 00
        E 420 90 62 60
        E 0 90 56 60
        E 0 90 6e 60
        E 0 90 2f 60
        E 60 80 62 00
        E 0 80 56 00
        E 0 80 6e 00
        E 0 80 2f 00
        E 180 90 61 60
        E 0 90 63 60
        E 0 90 55 60
        E 0 90 57 60
        E 0 90 49 60
        E 0 90 4b 60
        E 0 90 6f 60
        E 0 90 3d 60
        E 0 90 3f 60
        E 0 90 1a 60
        E 0 90 31 60
        E 60 80 61 00
        E 0 80 63 00
        E 0 80 55 00
        E 0 80 57 00
        E 0 80 49 00
        E 0 80 4b 00
        E 0 80 6f 00
        E 0 80 3d 00
        E 0 80 3f 00
        E 0 80 1a 00
        E 0 80 31 00
        E 420 90 63 60
        E 0 90 57 60
        E 0 90 4b 60
        E 0 90 6f 60
        E 0 90 3f 60
        E 0 90 31 60
        E 60 80 63 00
        E 0 80 57 00
        E 0 80 4b 00
        E 0 80 6f 00
        E 0 80 3f 00
        E 0 80 31 00
        E 420 90 61 60
        E 0 90 55 60
        E 0 90 49 60
        E 0 90 3d 60
        E 0 90 1a 60
        E 60 80 61 00
        E 0 80 55 00
        E 0 80 49 00
        E 0 80 3d 00
        E 0 80 1a 00
        E 420 90 60 60
        E 0 90 61 60
        E 0 90 54 60
        E 0 90 55 60
        E 0 90 49 60
        E 0 90 3d 60
        E 0 90 18 60
        E 0 90 1a 60
        E 60 80 60 00
        E 0 80 61 00
        E 0 80 54 00
        E 0 80 55 00
        E 0 80 49 00
        E 0 80 3d 00
        E 0 80 18 00
        E 0 80 1a 00
        E 660 90 63 60
        E 0 90 57 60
        E 0 90 4b 60
        E 0 90 6f 60
        E 0 90 3f 60
        E 0 90 31 60
        E 60 80 63 00
        E 0 80 57 00
        E 0 80 4b 00
        E 0 80 6f 00
        E 0 80 3f 00
        E 0 80 31 00
        E 420 90 62 60
        E 0 90 56 60
        E 0 90 6e 60
        E 0 90 2f 60
        E 60 80 62 00
        E 0 80 56 00
        E 0 80 6e 00
        E 0 80 2f 00
        E 180 90 61 60
        E 0 90 63 60
        E 0 90 55 60
        E 0 90 57 60
        E 0 90 49 60
        E 0 90 4b 60
        E 0 90 6f 60
        E 0 90 3d 60
        E 0 90 3f 60
        E 0 90 1a 60
        E 0 90 31 60
        E 60 80 61 00
        E 0 80 63 00
        E 0 80 55 00
        E 0 80 57 00
        E 0 80 49 00
        E 0 80 4b 00
        E 0 80 6f 00
        E 0 80 3d 00
        E 0 80 3f 00
        E 0 80 1a 00
        E 0 80 31 00
        E 420 90 63 60
        E 0 90 57 60
        E 0 90 4b 60
        E 0 90 6f 60
        E 0 90 3f 60
        E 0 90 31 60
        E 60 80 63 00
        E 0 80 57 00
        E 0 80 4b 00
        E 0 80 6f 00
        E 0 80 3f 00
        E 0 80 31 00
        E 420 90 61 60
        E 0 90 55 60
        E 0 90 49 60
        E 0 90 3d 60
        E 0 90 1a 60
        E 60 80 61 00
        E 0 80 55 00
        E 0 80 49 00
        E 0 80 3d 00
        E 0 80 1a 00
        E 420 90 60 60
        E 0 90 61 60
        E 0 90 54 60
        E 0 90 55 60
        E 0 90 49 60
        E 0 90 3d 60
        E 0 90 18 60
        E 0 90 1a 60
        E 60 80 60 00
        E 0 80 61 00
        E 0 80 54 00
        E 0 80 55 00
        E 0 80 49 00
        E 0 80 3d 00
        E 0 80 18 00
        E 0 80 1a 00
        E 660 90 63 60
        E 0 90 57 60
        E 0 90 4b 60
        E 0 90 6f 60
        E 0 90 3f 60
        E 0 90 31 60
        E 60 80 63 00
        E 0 80 57 00
        E 0 80 4b 00
        E 0 80 6f 00
        E 0 80 3f 00
        E 0 80 31 00
        E 420 90 62 60
        E 0 90 56 60
        E 0 90 6e 60
        E 0 90 2f 60
        E 60 80 62 00
        E 0 80 56 00
        E 0 80 6e 00
        E 0 80 2f 00
        E 180 90 61 60
        E 0 90 63 60
        E 0 90 55 60
        E 0 90 57 60
        E 0 90 49 60
        E 0 90 4b 60
        E 0 90 6f 60
        E 0 90 3d 60
        E 0 90 3f 60
        E 0 90 1a 60
        E 0 90 31 60
        E 60 80 61 00
        E 0 80 63 00
        E 0 80 55 00
        E 0 80 57 00
        E 0 80 49 00
        E 0 80 4b 00
        E 0 80 6f 00
        E 0 80 3d 00
        E 0 80 3f 00
        E 0 80 1a 00
        E 0 80 31 00
        E 420 90 63 60
        E 0 90 57 60
        E 0 90 4b 60
        E 0 90 6f 60
        E 0 90 3f 60
        E 0 90 31 60
        E 60 80 63 00
        E 0 80 57 00
        E 0 80 4b 00
        E 0 80 6f 00
        E 0 80 3f 00
        E 0 80 31 00
        E 420 90 61 60
        E 0 90 55 60
        E 0 90 49 60
        E 0 90 3d 60
        E 0 90 1a 60
        E 60 80 61 00
        E 0 80 55 00
        E 0 80 49 00
        E 0 80 3d 00
        E 0 80 1a 00
        E 420 90 60 60
        E 0 90 61 60
        E 0 90 54 60
        E 0 90 55 60
        E 0 90 49 60
        E 0 90 3d 60
        E 0 90 18 60
        E 0 90 1a 60
        E 60 80 60 00
        E 0 80 61 00
        E 0 80 54 00
        E 0 80 55 00
        E 0 80 49 00
        E 0 80 3d 00
        E 0 80 18 00
        E 0 80 1a 00
        E 660 90 63 60
        E 0 90 57 60
        E 0 90 4b 60
        E 0 90 6f 60
        E 0 90 3f 60
        E 0 90 31 60
        E 60 80 63 00
        E 0 80 57 00
        E 0 80 4b 00
        E 0 80 6f 00
        E 0 80 3f 00
        E 0 80 31 00
        E 420 90 62 60
        E 0 90 56 60
        E 0 90 6e 60
        E 0 90 2f 60
        E 60 80 62 00
        E 0 80 56 00
        E 0 80 6e 00
        E 0 80 2f 00
        E 180 90 61 60
        E 0 90 63 60
        E 0 90 55 60
        E 0 90 57 60
        E 0 90 49 60
        E 0 90 4b 60
        E 0 90 6f 60
        E 0 90 3d 60
        E 0 90 3f 60
        E 0 90 1a 60
        E 0 90 31 60
        E 60 80 61 00
        E 0 80 63 00
        E 0 80 55 00
        E 0 80 57 00
        E 0 80 49 00
        E 0 80 4b 00
        E 0 80 6f 00
        E 0 80 3d 00
        E 0 80 3f 00
        E 0 80 1a 00
        E 0 80 31 00
        E 420 90 62 60
        E 0 90 78 61
        E 0 90 79 61
        E 0 90 7a 61
        E 0 90 7b 61
        E 0 90 7c 61
        E 0 90 7e 60
        E 0 90 56 60
        E 0 90 4a 60
        E 0 90 3e 60
        E 0 90 1f 60
        E 60 80 62 00
        E 0 80 56 00
        E 0 80 4a 00
        E 0 80 3e 00
        E 0 80 1f 00
        E 60 90 62 60
        E 0 90 1e 60
        E 60 80 62 00
        E 0 80 1e 00
        E 60 90 62 60
        E 0 90 56 60
        E 0 90 1f 60
        E 60 80 62 00
        E 0 80 56 00
        E 0 80 1f 00
        E 60 90 62 60
        E 0 90 1e 60
        E 60 80 62 00
        E 0 80 1e 00
        E 60 90 62 60
        E 0 90 56 60
        E 0 90 4a 60
        E 0 90 1f 60
        E 60 80 62 00
        E 0 80 56 00
        E 0 80 4a 00
        E 0 80 1f 00
        E 60 90 62 60
        E 0 90 1e 60
        E 60 80 62 00
        E 0 80 1e 00
        E 60 90 62 60
        E 0 90 56 60
        E 0 90 1f 60
        E 60 80 62 00
        E 0 80 56 00
        E 0 80 1f 00
        E 60 90 62 60
        E 0 90 1e 60
        E 60 80 62 00
        E 0 80 1e 00
        E 60 90 62 60
        E 0 90 56 60
        E 0 90 4a 60
        E 0 90 3e 60
        E 0 90 1f 60
        E 60 80 62 00
        E 0 80 56 00
        E 0 80 4a 00
        E 0 80 3e 00
        E 0 80 1f 00
        E 60 90 62 60
        E 0 90 1e 60
        E 60 80 62 00
        E 0 80 1e 00
        E 60 90 62 60
        E 0 90 56 60
        E 0 90 1f 60
        E 60 80 62 00
        E 0 80 56 00
        E 0 80 1f 00
        E 60 90 62 60
        E 0 90 1e 60
        E 60 80 62 00
        E 0 80 1e 00
        E 60 90 62 60
        E 0 90 56 60
        E 0 90 4a 60
        E 0 90 1f 60
        E 60 80 62 00
        E 0 80 56 00
        E 0 80 4a 00
        E 0 80 1f 00
        E 60 90 62 60
        E 0 90 1e 60
        E 60 80 62 00
        E 0 80 1e 00
        E 60 90 62 60
        E 0 90 56 60
        E 0 90 1f 60
        E 60 80 62 00
        E 0 80 56 00
        E 0 80 1f 00
        E 60 90 62 60
        E 0 90 1e 60
        E 60 80 7e 00
        E 0 80 62 00
        E 0 80 1e 00
        E 60 80 78 00
        E 0 80 79 00
        E 0 80 7a 00
        E 0 80 7b 00
        E 0 80 7c 00
        E 240 90 60 60
        E 0 90 62 60
        E 0 90 54 60
        E 0 90 56 60
        E 0 90 18 60
        E 0 90 1f 60
        E 60 80 60 00
        E 0 80 62 00
        E 0 80 54 00
        E 0 80 56 00
        E 0 80 18 00
        E 0 80 1f 00
        E 180 90 60 60
        E 0 90 62 60
        E 0 90 54 60
        E 0 90 56 60
        E 0 90 48 60
        E 0 90 4a 60
        E 0 90 3e 60
        E 0 90 18 60
        E 0 90 1f 60
        E 60 80 60 00
        E 0 80 62 00
        E 0 80 54 00
        E 0 80 56 00
        E 0 80 48 00
        E 0 80 4a 00
        E 0 80 3e 00
        E 0 80 18 00
        E 0 80 1f 00
        E 180 90 62 60
        E 0 90 56 60
        E 0 90 1f 60
        E 60 80 62 00
        E 0 80 56 00
        E 0 80 1f 00
        E 180 90 62 60
        E 0 90 56 60
        E 0 90 4a 60
        E 0 90 3e 60
        E 0 90 1f 60
        E 60 80 62 00
        E 0 80 56 00
        E 0 80 4a 00
        E 0 80 3e 00
        E 0 80 1f 00
        E 180 90 62 60
        E 0 90 56 60
        E 0 90 1f 60
        E 60 80 62 00
        E 0 80 56 00
        E 0 80 1f 00
        E 180 90 63 60
        E 0 90 57 60
        E 0 90 4b 60
        E 0 90 6f 60
        E 0 90 3f 60
        E 0 90 31 60
        E 60 80 63 00
        E 0 80 57 00
        E 0 80 4b 00
        E 0 80 6f 00
        E 0 80 3f 00
        E 0 80 31 00
        E 180 90 62 60
        E 0 90 56 60
        E 0 90 1f 60
        E 60 80 62 00
        E 0 80 56 00
        E 0 80 1f 00
        E 180 90 60 60
        E 0 90 61 60
        E 0 90 54 60
        E 0 90 55 60
        E 0 90 49 60
        E 0 90 3d 60
        E 0 90 18 60
        E 0 90 1a 60
        E 60 80 60 00
        E 0 80 61 00
        E 0 80 54 00
        E 0 80 55 00
        E 0 80 49 00
        E 0 80 3d 00
        E 0 80 18 00
        E 0 80 1a 00
        E 180 90 62 60
        E 0 90 56 60
        E 0 90 1f 60
        E 60 80 62 00
        E 0 80 56 00
        E 0 80 1f 00
        E 180 90 60 60
        E 0 90 54 60
        E 0 90 48 60
        E 0 90 3c 60
        E 0 90 18 60
        E 60 80 60 00
        E 0 80 54 00
        E 0 80 48 00
        E 0 80 3c 00
        E 0 80 18 00
        E 180 90 60 60
        E 0 90 61 60
        E 0 90 63 60
        E 0 90 54 60
        E 0 90 55 60
        E 0 90 57 60
        E 0 90 6f 60
        E 0 90 18 60
        E 0 90 1a 60
        E 0 90 31 60
        E 60 80 60 00
        E 0 80 61 00
        E 0 80 63 00
        E 0 80 54 00
        E 0 80 55 00
        E 0 80 57 00
        E 0 80 6f 00
        E 0 80 18 00
        E 0 80 1a 00
        E 0 80 31 00
        E 180 90 62 60
        E 0 90 56 60
        E 0 90 4a 60
        E 0 90 3e 60
        E 0 90 1f 60
        E 60 80 62 00
        E 0 80 56 00
        E 0 80 4a 00
        E 0 80 3e 00
        E 0 80 1f 00
        E 180 90 60 60
        E 0 90 62 60
        E 0 90 54 60
        E 0 90 56 60
        E 0 90 18 60
        E 0 90 1f 60
        E 60 80 60 00
        E 0 80 62 00
        E 0 80 54 00
        E 0 80 56 00
        E 0 80 18 00
        E 0 80 1f 00
        E 180 90 60 60
        E 0 90 61 60
        E 0 90 64 60
        E 0 90 54 60
        E 0 90 55 60
        E 0 90 58 60
        E 0 90 49 60
        E 0 90 4c 60
        E 0 90 70 60
        E 0 90 3d 60
        E 0 90 40 60
        E 0 90 18 60
        E 0 90 1a 60
        E 0 90 33 60
        E 60 80 60 00
        E 0 80 61 00
        E 0 80 64 00
        E 0 80 54 00
        E 0 80 55 00
        E 0 80 58 00
        E 0 80 49 00
        E 0 80 4c 00
        E 0 80 70 00
        E 0 80 3d 00
        E 0 80 40 00
        E 0 80 18 00
        E 0 80 1a 00
        E 0 80 33 00
        E 180 90 62 60
        E 0 90 56 60
        E 0 90 1f 60
        E 60 80 62 00
        E 0 80 56 00
        E 0 80 1f 00
        E 180 90 61 60
        E 0 90 55 60
        E 0 90 49 60
        E 0 90 3d 60
        E 0 90 1a 60
        E 60 80 61 00
        E 0 80 55 00
        E 0 80 49 00
        E 0 80 3d 00
        E 0 80 1a 00
        E 180 90 62 60
        E 0 90 56 60
        E 0 90 1f 60
        E 60 80 62 00
        E 0 80 56 00
        E 0 80 1f 00
        E 420 90 62 60
        E 0 90 56 60
        E 0 90 1f 60
        E 60 80 62 00
        E 0 80 56 00
        E 0 80 1f 00
        E 180 90 60 60
        E 0 90 61 60
        E 0 90 54 60
        E 0 90 55 60
        E 0 90 49 60
        E 0 90 3d 60
        E 0 90 18 60
        E 0 90 1a 60
        E 60 80 60 00
        E 0 80 61 00
        E 0 80 54 00
        E 0 80 55 00
        E 0 80 49 00
        E 0 80 3d 00
        E 0 80 18 00
        E 0 80 1a 00
        E 180 90 62 60
        E 0 90 56 60
        E 0 90 1f 60
        E 60 80 62 00
        E 0 80 56 00
        E 0 80 1f 00
        E 180 90 62 60
        E 0 90 56 60
        E 0 90 4a 60
        E 0 90 6e 60
        E 0 90 3e 60
        E 0 90 2f 60
        E 60 80 62 00
        E 0 80 56 00
        E 0 80 4a 00
        E 0 80 6e 00
        E 0 80 3e 00
        E 0 80 2f 00
        E 180 90 62 60
        E 0 90 63 60
        E 0 90 56 60
        E 0 90 57 60
        E 0 90 6e 60
        E 0 90 6f 60
        E 0 90 31 60
        E 0 90 2e 60
        E 60 80 62 00
        E 0 80 63 00
        E 0 80 56 00
        E 0 80 57 00
        E 0 80 6e 00
        E 0 80 6f 00
        E 0 80 31 00
        E 0 80 2e 00
        E 420 90 60 60
        E 0 90 62 60
        E 0 90 54 60
        E 0 90 56 60
        E 0 90 18 60
        E 0 90 1f 60
        E 60 80 60 00
        E 0 80 62 00
        E 0 80 54 00
        E 0 80 56 00
        E 0 80 18 00
        E 0 80 1f 00
        E 180 90 70 60
        E 10 90 60 60
        E 0 90 61 60
        E 0 90 64 60
        E 0 90 54 60
        E 0 90 55 60
        E 0 90 58 60
        E 0 90 49 60
        E 0 90 4c 60
        E 0 90 3d 60
        E 0 90 40 60
        E 0 90 18 60
        E 0 90 1a 60
        E 0 90 26 60
        E 50 80 70 00
        E 10 80 60 00
        E 0 80 61 00
        E 0 80 64 00
        E 0 80 54 00
        E 0 80 55 00
        E 0 80 58 00
        E 0 80 49 00
        E 0 80 4c 00
        E 0 80 3d 00
        E 0 80 40 00
        E 0 80 18 00
        E 0 80 1a 00
        E 0 80 26 00
        E 410 90 62 60
        E 0 90 56 60
        E 0 90 4a 60
        E 0 90 3e 60
        E 0 90 1f 60
        E 60 80 62 00
        E 0 80 56 00
        E 0 80 4a 00
        E 0 80 3e 00
        E 0 80 1f 00
        E 180 90 62 60
        E 0 90 56 60
        E 0 90 1f 60
        E 60 80 62 00
        E 0 80 56 00
        E 0 80 1f 00
        E 180 90 63 60
        E 0 90 57 60
        E 0 90 4b 60
        E 0 90 6f 60
        E 0 90 3f 60
        E 0 90 31 60
        E 60 80 63 00
        E 0 80 57 00
        E 0 80 4b 00
        E 0 80 6f 00
        E 0 80 3f 00
        E 0 80 31 00
        E 180 90 62 60
        E 0 90 56 60
        E 0 90 1f 60
        E 60 80 62 00
        E 0 80 56 00
        E 0 80 1f 00
        E 180 90 60 60
        E 0 90 61 60
        E 0 90 54 60
        E 0 90 55 60
        E 0 90 49 60
        E 0 90 3d 60
        E 0 90 18 60
        E 0 90 1a 60
        E 60 80 60 00
        E 0 80 61 00
        E 0 80 54 00
        E 0 80 55 00
        E 0 80 49 00
        E 0 80 3d 00
        E 0 80 18 00
        E 0 80 1a 00
        E 180 90 62 60
        E 0 90 56 60
        E 0 90 1f 60
        E 60 80 62 00
        E 0 80 56 00
        E 0 80 1f 00
        E 180 90 60 60
        E 0 90 54 60
        E 0 90 48 60
        E 0 90 3c 60
        E 0 90 18 60
        E 60 80 60 00
        E 0 80 54 00
        E 0 80 48 00
        E 0 80 3c 00
        E 0 80 18 00
        E 180 90 60 60
        E 0 90 61 60
        E 0 90 63 60
        E 0 90 54 60
        E 0 90 55 60
        E 0 90 57 60
        E 0 90 6f 60
        E 0 90 18 60
        E 0 90 1a 60
        E 0 90 31 60
        E 60 80 60 00
        E 0 80 61 00
        E 0 80 63 00
        E 0 80 54 00
        E 0 80 55 00
        E 0 80 57 00
        E 0 80 6f 00
        E 0 80 18 00
        E 0 80 1a 00
        E 0 80 31 00
        E 180 90 62 60
        E 0 90 56 60
        E 0 90 4a 60
        E 0 90 3e 60
        E 0 90 1f 60
        E 60 80 62 00
        E 0 80 56 00
        E 0 80 4a 00
        E 0 80 3e 00
        E 0 80 1f 00
        E 180 90 60 60
        E 0 90 62 60
        E 0 90 54 60
        E 0 90 56 60
        E 0 90 18 60
        E 0 90 1f 60
        E 60 80 60 00
        E 0 80 62 00
        E 0 80 54 00
        E 0 80 56 00
        E 0 80 18 00
        E 0 80 1f 00
        E 180 90 60 60
        E 0 90 61 60
        E 0 90 64 60
        E 0 90 54 60
        E 0 90 55 60
        E 0 90 58 60
        E 0 90 49 60
        E 0 90 4c 60
        E 0 90 70 60
        E 0 90 3d 60
        E 0 90 40 60
        E 0 90 18 60
        E 0 90 1a 60
        E 0 90 33 60
        E 60 80 60 00
        E 0 80 61 00
        E 0 80 64 00
        E 0 80 54 00
        E 0 80 55 00
        E 0 80 58 00
        E 0 80 49 00
        E 0 80 4c 00
        E 0 80 70 00
        E 0 80 3d 00
        E 0 80 40 00
        E 0 80 18 00
        E 0 80 1a 00
        E 0 80 33 00
        E 180 90 62 60
        E 0 90 56 60
        E 0 90 1f 60
        E 60 80 62 00
        E 0 80 56 00
        E 0 80 1f 00
        E 180 90 61 60
        E 0 90 55 60
        E 0 90 49 60
        E 0 90 3d 60
        E 0 90 1a 60
        E 60 80 61 00
        E 0 80 55 00
        E 0 80 49 00
        E 0 80 3d 00
        E 0 80 1a 00
        E 180 90 62 60
        E 0 90 56 60
        E 0 90 1f 60
        E 60 80 62 00
        E 0 80 56 00
        E 0 80 1f 00
        E 180 90 78 61
        E 0 90 79 61
        E 0 90 7a 61
        E 0 90 7b 61
        E 0 90 7c 61
        E 240 90 62 60
        E 0 90 56 60
        E 0 90 1f 60
        E 60 80 62 00
        E 0 80 56 00
        E 0 80 1f 00
        E 180 90 60 60
        E 0 90 61 60
        E 0 90 54 60
        E 0 90 55 60
        E 0 90 49 60
        E 0 90 3d 60
        E 0 90 18 60
        E 0 90 1a 60
        E 60 80 60 00
        E 0 80 61 00
        E 0 80 54 00
        E 0 80 55 00
        E 0 80 49 00
        E 0 80 3d 00
        E 0 80 18 00
        E 0 80 1a 00
        E 180 90 62 60
        E 0 90 56 60
        E 0 90 1f 60
        E 60 80 62 00
        E 0 80 56 00
        E 0 80 1f 00
        E 180 90 62 60
        E 0 90 56 60
        E 0 90 4a 60
        E 0 90 6e 60
        E 0 90 3e 60
        E 0 90 2f 60
        E 60 80 62 00
        E 0 80 56 00
        E 0 80 4a 00
        E 0 80 6e 00
        E 0 80 3e 00
        E 0 80 2f 00
        E 180 80 78 00
        E 0 80 79 00
        E 0 80 7a 00
        E 0 80 7b 00
        E 0 80 7c 00
        E 0 90 62 60
        E 0 90 63 60
        E 0 90 56 60
        E 0 90 57 60
        E 0 90 6e 60
        E 0 90 6f 60
        E 0 90 31 60
        E 0 90 2e 60
        E 60 80 62 00
        E 0 80 63 00
        E 0 80 56 00
        E 0 80 57 00
        E 0 80 6e 00
        E 0 80 6f 00
        E 0 80 31 00
        E 0 80 2e 00
        E 420 90 60 60
        E 0 90 62 60
        E 0 90 54 60
        E 0 90 56 60
        E 0 90 18 60
        E 0 90 1f 60
        E 60 80 60 00
        E 0 80 62 00
        E 0 80 54 00
        E 0 80 56 00
        E 0 80 18 00
        E 0 80 1f 00
        E 180 90 70 60
        E 10 90 60 60
        E 0 90 61 60
        E 0 90 64 60
        E 0 90 54 60
        E 0 90 55 60
        E 0 90 58 60
        E 0 90 49 60
        E 0 90 4c 60
        E 0 90 3d 60
        E 0 90 40 60
        E 0 90 18 60
        E 0 90 1a 60
        E 0 90 26 60
        E 50 80 70 00
        E 10 80 60 00
        E 0 80 61 00
        E 0 80 64 00
        E 0 80 54 00
        E 0 80 55 00
        E 0 80 58 00
        E 0 80 49 00
        E 0 80 4c 00
        E 0 80 3d 00
        E 0 80 40 00
        E 0 80 18 00
        E 0 80 1a 00
        E 0 80 26 00
        E 410 90 62 60
        E 0 90 56 60
        E 0 90 4a 60
        E 0 90 3e 60
        E 0 90 1f 60
        E 60 80 62 00
        E 0 80 56 00
        E 0 80 4a 00
        E 0 80 3e 00
        E 0 80 1f 00
        E 180 90 62 60
        E 0 90 56 60
        E 0 90 1f 60
        E 60 80 62 00
        E 0 80 56 00
        E 0 80 1f 00
        E 180 90 63 60
        E 0 90 57 60
        E 0 90 4b 60
        E 0 90 6f 60
        E 0 90 3f 60
        E 0 90 31 60
        E 60 80 63 00
        E 0 80 57 00
        E 0 80 4b 00
        E 0 80 6f 00
        E 0 80 3f 00
        E 0 80 31 00
        E 180 90 62 60
        E 0 90 56 60
        E 0 90 1f 60
        E 60 80 62 00
        E 0 80 56 00
        E 0 80 1f 00
        E 180 90 60 60
        E 0 90 61 60
        E 0 90 54 60
        E 0 90 55 60
        E 0 90 49 60
        E 0 90 3d 60
        E 0 90 18 60
        E 0 90 1a 60
        E 60 80 60 00
        E 0 80 61 00
        E 0 80 54 00
        E 0 80 55 00
        E 0 80 49 00
        E 0 80 3d 00
        E 0 80 18 00
        E 0 80 1a 00
        E 180 90 62 60
        E 0 90 56 60
        E 0 90 1f 60
        E 60 80 62 00
        E 0 80 56 00
        E 0 80 1f 00
        E 180 90 60 60
        E 0 90 54 60
        E 0 90 48 60
        E 0 90 3c 60
        E 0 90 18 60
        E 60 80 60 00
        E 0 80 54 00
        E 0 80 48 00
        E 0 80 3c 00
        E 0 80 18 00
        E 180 90 60 60
        E 0 90 61 60
        E 0 90 63 60
        E 0 90 54 60
        E 0 90 55 60
        E 0 90 57 60
        E 0 90 6f 60
        E 0 90 18 60
        E 0 90 1a 60
        E 0 90 31 60
        E 60 80 60 00
        E 0 80 61 00
        E 0 80 63 00
        E 0 80 54 00
        E 0 80 55 00
        E 0 80 57 00
        E 0 80 6f 00
        E 0 80 18 00
        E 0 80 1a 00
        E 0 80 31 00
        E 180 90 62 60
        E 0 90 56 60
        E 0 90 4a 60
        E 0 90 3e 60
        E 0 90 1f 60
        E 60 80 62 00
        E 0 80 56 00
        E 0 80 4a 00
        E 0 80 3e 00
        E 0 80 1f 00
        E 180 90 60 60
        E 0 90 62 60
        E 0 90 54 60
        E 0 90 56 60
        E 0 90 18 60
        E 0 90 1f 60
        E 60 80 60 00
        E 0 80 62 00
        E 0 80 54 00
        E 0 80 56 00
        E 0 80 18 00
        E 0 80 1f 00
        E 180 90 60 60
        E 0 90 61 60
        E 0 90 64 60
        E 0 90 54 60
        E 0 90 55 60
        E 0 90 58 60
        E 0 90 49 60
        E 0 90 4c 60
        E 0 90 70 60
        E 0 90 3d 60
        E 0 90 40 60
        E 0 90 18 60
        E 0 90 1a 60
        E 0 90 33 60
        E 60 80 60 00
        E 0 80 61 00
        E 0 80 64 00
        E 0 80 54 00
        E 0 80 55 00
        E 0 80 58 00
        E 0 80 49 00
        E 0 80 4c 00
        E 0 80 70 00
        E 0 80 3d 00
        E 0 80 40 00
        E 0 80 18 00
        E 0 80 1a 00
        E 0 80 33 00
        E 180 90 62 60
        E 0 90 56 60
        E 0 90 1f 60
        E 60 80 62 00
        E 0 80 56 00
        E 0 80 1f 00
        E 180 90 61 60
        E 0 90 55 60
        E 0 90 49 60
        E 0 90 3d 60
        E 0 90 1a 60
        E 60 80 61 00
        E 0 80 55 00
        E 0 80 49 00
        E 0 80 3d 00
        E 0 80 1a 00
        E 180 90 62 60
        E 0 90 56 60
        E 0 90 1f 60
        E 60 80 62 00
        E 0 80 56 00
        E 0 80 1f 00
        E 420 90 62 60
        E 0 90 56 60
        E 0 90 1f 60
        E 60 80 62 00
        E 0 80 56 00
        E 0 80 1f 00
        E 180 90 60 60
        E 0 90 61 60
        E 0 90 54 60
        E 0 90 55 60
        E 0 90 49 60
        E 0 90 3d 60
        E 0 90 18 60
        E 0 90 1a 60
        E 60 80 60 00
        E 0 80 61 00
        E 0 80 54 00
        E 0 80 55 00
        E 0 80 49 00
        E 0 80 3d 00
        E 0 80 18 00
        E 0 80 1a 00
        E 180 90 62 60
        E 0 90 56 60
        E 0 90 1f 60
        E 60 80 62 00
        E 0 80 56 00
        E 0 80 1f 00
        E 180 90 62 60
        E 0 90 56 60
        E 0 90 4a 60
        E 0 90 6e 60
        E 0 90 3e 60
        E 0 90 2f 60
        E 60 80 62 00
        E 0 80 56 00
        E 0 80 4a 00
        E 0 80 6e 00
        E 0 80 3e 00
        E 0 80 2f 00
        E 180 90 62 60
        E 0 90 63 60
        E 0 90 56 60
        E 0 90 57 60
        E 0 90 6e 60
        E 0 90 6f 60
        E 0 90 31 60
        E 0 90 2e 60
        E 60 80 62 00
        E 0 80 63 00
        E 0 80 56 00
        E 0 80 57 00
        E 0 80 6e 00
        E 0 80 6f 00
        E 0 80 31 00
        E 0 80 2e 00
        E 420 90 60 60
        E 0 90 62 60
        E 0 90 54 60
        E 0 90 56 60
        E 0 90 18 60
        E 0 90 1f 60
        E 60 80 60 00
        E 0 80 62 00
        E 0 80 54 00
        E 0 80 56 00
        E 0 80 18 00
        E 0 80 1f 00
        E 180 90 70 60
        E 10 90 60 60
        E 0 90 61 60
        E 0 90 64 60
        E 0 90 54 60
        E 0 90 55 60
        E 0 90 58 60
        E 0 90 49 60
        E 0 90 4c 60
        E 0 90 3d 60
        E 0 90 40 60
        E 0 90 18 60
        E 0 90 1a 60
        E 0 90 26 60
        E 50 80 70 00
        E 10 80 60 00
        E 0 80 61 00
        E 0 80 64 00
        E 0 80 54 00
        E 0 80 55 00
        E 0 80 58 00
        E 0 80 49 00
        E 0 80 4c 00
        E 0 80 3d 00
        E 0 80 40 00
        E 0 80 18 00
        E 0 80 1a 00
        E 0 80 26 00
        E 410 90 62 60
        E 0 90 56 60
        E 0 90 4a 60
        E 0 90 3e 60
        E 0 90 1f 60
        E 60 80 62 00
        E 0 80 56 00
        E 0 80 4a 00
        E 0 80 3e 00
        E 0 80 1f 00
        E 180 90 62 60
        E 0 90 56 60
        E 0 90 1f 60
        E 60 80 62 00
        E 0 80 56 00
        E 0 80 1f 00
        E 180 90 63 60
        E 0 90 57 60
        E 0 90 4b 60
        E 0 90 6f 60
        E 0 90 3f 60
        E 0 90 31 60
        E 60 80 63 00
        E 0 80 57 00
        E 0 80 4b 00
        E 0 80 6f 00
        E 0 80 3f 00
        E 0 80 31 00
        E 180 90 62 60
        E 0 90 56 60
        E 0 90 1f 60
        E 60 80 62 00
        E 0 80 56 00
        E 0 80 1f 00
        E 180 90 60 60
        E 0 90 61 60
        E 0 90 54 60
        E 0 90 55 60
        E 0 90 49 60
        E 0 90 3d 60
        E 0 90 18 60
        E 0 90 1a 60
        E 60 80 60 00
        E 0 80 61 00
        E 0 80 54 00
        E 0 80 55 00
        E 0 80 49 00
        E 0 80 3d 00
        E 0 80 18 00
        E 0 80 1a 00
        E 180 90 62 60
        E 0 90 56 60
        E 0 90 1f 60
        E 60 80 62 00
        E 0 80 56 00
        E 0 80 1f 00
        E 180 90 60 60
        E 0 90 54 60
        E 0 90 48 60
        E 0 90 3c 60
        E 0 90 18 60
        E 60 80 60 00
        E 0 80 54 00
        E 0 80 48 00
        E 0 80 3c 00
        E 0 80 18 00
        E 180 90 60 60
        E 0 90 61 60
        E 0 90 63 60
        E 0 90 54 60
        E 0 90 55 60
        E 0 90 57 60
        E 0 90 6f 60
        E 0 90 18 60
        E 0 90 1a 60
        E 0 90 31 60
        E 60 80 60 00
        E 0 80 61 00
        E 0 80 63 00
        E 0 80 54 00
        E 0 80 55 00
        E 0 80 57 00
        E 0 80 6f 00
        E 0 80 18 00
        E 0 80 1a 00
        E 0 80 31 00
        E 180 90 62 60
        E 0 90 56 60
        E 0 90 4a 60
        E 0 90 3e 60
        E 0 90 1f 60
        E 60 80 62 00
        E 0 80 56 00
        E 0 80 4a 00
        E 0 80 3e 00
        E 0 80 1f 00
        E 180 90 60 60
        E 0 90 62 60
        E 0 90 54 60
        E 0 90 56 60
        E 0 90 18 60
        E 0 90 1f 60
        E 60 80 60 00
        E 0 80 62 00
        E 0 80 54 00
        E 0 80 56 00
        E 0 80 18 00
        E 0 80 1f 00
        E 180 90 60 60
        E 0 90 61 60
        E 0 90 64 60
        E 0 90 54 60
        E 0 90 55 60
        E 0 90 58 60
        E 0 90 49 60
        E 0 90 4c 60
        E 0 90 70 60
        E 0 90 3d 60
        E 0 90 40 60
        E 0 90 18 60
        E 0 90 1a 60
        E 0 90 33 60
        E 60 80 60 00
        E 0 80 61 00
        E 0 80 64 00
        E 0 80 54 00
        E 0 80 55 00
        E 0 80 58 00
        E 0 80 49 00
        E 0 80 4c 00
        E 0 80 70 00
        E 0 80 3d 00
        E 0 80 40 00
        E 0 80 18 00
        E 0 80 1a 00
        E 0 80 33 00
        E 180 90 62 60
        E 0 90 56 60
        E 0 90 1f 60
        E 60 80 62 00
        E 0 80 56 00
        E 0 80 1f 00
        E 180 90 61 60
        E 0 90 55 60
        E 0 90 49 60
        E 0 90 3d 60
        E 0 90 1a 60
        E 60 80 61 00
        E 0 80 55 00
        E 0 80 49 00
        E 0 80 3d 00
        E 0 80 1a 00
        E 180 90 62 60
        E 0 90 56 60
        E 0 90 1f 60
        E 60 80 62 00
        E 0 80 56 00
        E 0 80 1f 00
        E 420 90 62 60
        E 0 90 56 60
        E 0 90 1f 60
        E 60 80 62 00
        E 0 80 56 00
        E 0 80 1f 00
        E 180 90 60 60
        E 0 90 61 60
        E 0 90 54 60
        E 0 90 55 60
        E 0 90 49 60
        E 0 90 3d 60
        E 0 90 18 60
        E 0 90 1a 60
        E 60 80 60 00
        E 0 80 61 00
        E 0 80 54 00
        E 0 80 55 00
        E 0 80 49 00
        E 0 80 3d 00
        E 0 80 18 00
        E 0 80 1a 00
        E 180 90 62 60
        E 0 90 56 60
        E 0 90 1f 60
        E 60 80 62 00
        E 0 80 56 00
        E 0 80 1f 00
        E 180 90 62 60
        E 0 90 56 60
        E 0 90 4a 60
        E 0 90 6e 60
        E 0 90 3e 60
        E 0 90 2f 60
        E 60 80 62 00
        E 0 80 56 00
        E 0 80 4a 00
        E 0 80 6e 00
        E 0 80 3e 00
        E 0 80 2f 00
        E 180 90 62 60
        E 0 90 63 60
        E 0 90 56 60
        E 0 90 57 60
        E 0 90 6e 60
        E 0 90 6f 60
        E 0 90 31 60
        E 0 90 2e 60
        E 60 80 62 00
        E 0 80 63 00
        E 0 80 56 00
        E 0 80 57 00
        E 0 80 6e 00
        E 0 80 6f 00
        E 0 80 31 00
        E 0 80 2e 00
        E 420 90 60 60
        E 0 90 62 60
        E 0 90 54 60
        E 0 90 56 60
        E 0 90 18 60
        E 0 90 1f 60
        E 60 80 60 00
        E 0 80 62 00
        E 0 80 54 00
        E 0 80 56 00
        E 0 80 18 00
        E 0 80 1f 00
        E 180 90 70 60
        E 10 90 60 60
        E 0 90 61 60
        E 0 90 64 60
        E 0 90 54 60
        E 0 90 55 60
        E 0 90 58 60
        E 0 90 49 60
        E 0 90 4c 60
        E 0 90 3d 60
        E 0 90 40 60
        E 0 90 18 60
        E 0 90 1a 60
        E 0 90 26 60
        E 50 80 70 00
        E 10 80 60 00
        E 0 80 61 00
        E 0 80 64 00
        E 0 80 54 00
        E 0 80 55 00
        E 0 80 58 00
        E 0 80 49 00
        E 0 80 4c 00
        E 0 80 3d 00
        E 0 80 40 00
        E 0 80 18 00
        E 0 80 1a 00
        E 0 80 26 00
        E 410 90 62 60
        E 0 90 56 60
        E 0 90 4a 60
        E 0 90 3e 60
        E 0 90 1f 60
        E 60 80 62 00
        E 0 80 56 00
        E 0 80 4a 00
        E 0 80 3e 00
        E 0 80 1f 00
        E 180 90 62 60
        E 0 90 56 60
        E 0 90 1f 60
        E 60 80 62 00
        E 0 80 56 00
        E 0 80 1f 00
        E 180 90 63 60
        E 0 90 57 60
        E 0 90 4b 60
        E 0 90 6f 60
        E 0 90 3f 60
        E 0 90 31 60
        E 60 80 63 00
        E 0 80 57 00
        E 0 80 4b 00
        E 0 80 6f 00
        E 0 80 3f 00
        E 0 80 31 00
        E 180 90 62 60
        E 0 90 56 60
        E 0 90 1f 60
        E 60 80 62 00
        E 0 80 56 00
        E 0 80 1f 00
        E 180 90 60 60
        E 0 90 61 60
        E 0 90 54 60
        E 0 90 55 60
        E 0 90 49 60
        E 0 90 3d 60
        E 0 90 18 60
        E 0 90 1a 60
        E 60 80 60 00
        E 0 80 61 00
        E 0 80 54 00
        E 0 80 55 00
        E 0 80 49 00
        E 0 80 3d 00
        E 0 80 18 00
        E 0 80 1a 00
        E 180 90 62 60
        E 0 90 56 60
        E 0 90 1f 60
        E 60 80 62 00
        E 0 80 56 00
        E 0 80 1f 00
        E 180 90 60 60
        E 0 90 54 60
        E 0 90 48 60
        E 0 90 3c 60
        E 0 90 18 60
        E 60 80 60 00
        E 0 80 54 00
        E 0 80 48 00
        E 0 80 3c 00
        E 0 80 18 00
        E 180 90 60 60
        E 0 90 61 60
        E 0 90 63 60
        E 0 90 54 60
        E 0 90 55 60
        E 0 90 57 60
        E 0 90 6f 60
        E 0 90 18 60
        E 0 90 1a 60
        E 0 90 31 60
        E 60 80 60 00
        E 0 80 61 00
        E 0 80 63 00
        E 0 80 54 00
        E 0 80 55 00
        E 0 80 57 00
        E 0 80 6f 00
        E 0 80 18 00
        E 0 80 1a 00
        E 0 80 31 00
        E 180 90 62 60
        E 0 90 56 60
        E 0 90 4a 60
        E 0 90 3e 60
        E 0 90 1f 60
        E 60 80 62 00
        E 0 80 56 00
        E 0 80 4a 00
        E 0 80 3e 00
        E 0 80 1f 00
        E 180 90 60 60
        E 0 90 62 60
        E 0 90 54 60
        E 0 90 56 60
        E 0 90 18 60
        E 0 90 1f 60
        E 60 80 60 00
        E 0 80 62 00
        E 0 80 54 00
        E 0 80 56 00
        E 0 80 18 00
        E 0 80 1f 00
        E 180 90 60 60
        E 0 90 61 60
        E 0 90 64 60
        E 0 90 54 60
        E 0 90 55 60
        E 0 90 58 60
        E 0 90 49 60
        E 0 90 4c 60
        E 0 90 70 60
        E 0 90 3d 60
        E 0 90 40 60
        E 0 90 18 60
        E 0 90 1a 60
        E 0 90 33 60
        E 60 80 60 00
        E 0 80 61 00
        E 0 80 64 00
        E 0 80 54 00
        E 0 80 55 00
        E 0 80 58 00
        E 0 80 49 00
        E 0 80 4c 00
        E 0 80 70 00
        E 0 80 3d 00
        E 0 80 40 00
        E 0 80 18 00
        E 0 80 1a 00
        E 0 80 33 00
        E 180 90 62 60
        E 0 90 56 60
        E 0 90 1f 60
        E 60 80 62 00
        E 0 80 56 00
        E 0 80 1f 00
        E 180 90 61 60
        E 0 90 55 60
        E 0 90 49 60
        E 0 90 3d 60
        E 0 90 1a 60
        E 60 80 61 00
        E 0 80 55 00
        E 0 80 49 00
        E 0 80 3d 00
        E 0 80 1a 00
        E 180 90 62 60
        E 0 90 56 60
        E 0 90 1f 60
        E 60 80 62 00
        E 0 80 56 00
        E 0 80 1f 00
        E 420 90 62 60
        E 0 90 56 60
        E 0 90 1f 60
        E 60 80 62 00
        E 0 80 56 00
        E 0 80 1f 00
        E 180 90 60 60
        E 0 90 61 60
        E 0 90 54 60
        E 0 90 55 60
        E 0 90 49 60
        E 0 90 3d 60
        E 0 90 18 60
        E 0 90 1a 60
        E 60 80 60 00
        E 0 80 61 00
        E 0 80 54 00
        E 0 80 55 00
        E 0 80 49 00
        E 0 80 3d 00
        E 0 80 18 00
        E 0 80 1a 00
        E 180 90 62 60
        E 0 90 56 60
        E 0 90 1f 60
        E 60 80 62 00
        E 0 80 56 00
        E 0 80 1f 00
        E 180 90 62 60
        E 0 90 56 60
        E 0 90 4a 60
        E 0 90 6e 60
        E 0 90 3e 60
        E 0 90 2f 60
        E 60 80 62 00
        E 0 80 56 00
        E 0 80 4a 00
        E 0 80 6e 00
        E 0 80 3e 00
        E 0 80 2f 00
        E 180 90 62 60
        E 0 90 63 60
        E 0 90 56 60
        E 0 90 57 60
        E 0 90 6e 60
        E 0 90 6f 60
        E 0 90 31 60
        E 0 90 2e 60
        E 60 80 62 00
        E 0 80 63 00
        E 0 80 56 00
        E 0 80 57 00
        E 0 80 6e 00
        E 0 80 6f 00
        E 0 80 31 00
        E 0 80 2e 00
        E 420 90 60 60
        E 0 90 62 60
        E 0 90 54 60
        E 0 90 56 60
        E 0 90 18 60
        E 0 90 1f 60
        E 60 80 60 00
        E 0 80 62 00
        E 0 80 54 00
        E 0 80 56 00
        E 0 80 18 00
        E 0 80 1f 00
        E 180 90 70 60
        E 10 90 60 60
        E 0 90 61 60
        E 0 90 64 60
        E 0 90 54 60
        E 0 90 55 60
        E 0 90 58 60
        E 0 90 49 60
        E 0 90 4c 60
        E 0 90 3d 60
        E 0 90 40 60
        E 0 90 18 60
        E 0 90 1a 60
        E 0 90 26 60
        E 50 80 70 00
        E 10 80 60 00
        E 0 80 61 00
        E 0 80 64 00
        E 0 80 54 00
        E 0 80 55 00
        E 0 80 58 00
        E 0 80 49 00
        E 0 80 4c 00
        E 0 80 3d 00
        E 0 80 40 00
        E 0 80 18 00
        E 0 80 1a 00
        E 0 80 26 00
        E 410 90 62 60
        E 0 90 56 60
        E 0 90 4a 60
        E 0 90 3e 60
        E 0 90 1f 60
        E 60 80 62 00
        E 0 80 56 00
        E 0 80 4a 00
        E 0 80 3e 00
        E 0 80 1f 00
        E 180 90 62 60
        E 0 90 56 60
        E 0 90 1f 60
        E 60 80 62 00
        E 0 80 56 00
        E 0 80 1f 00
        E 180 90 63 60
        E 0 90 57 60
        E 0 90 4b 60
        E 0 90 6f 60
        E 0 90 3f 60
        E 0 90 31 60
        E 60 80 63 00
        E 0 80 57 00
        E 0 80 4b 00
        E 0 80 6f 00
        E 0 80 3f 00
        E 0 80 31 00
        E 180 90 62 60
        E 0 90 56 60
        E 0 90 1f 60
        E 60 80 62 00
        E 0 80 56 00
        E 0 80 1f 00
        E 180 90 60 60
        E 0 90 61 60
        E 0 90 54 60
        E 0 90 55 60
        E 0 90 49 60
        E 0 90 3d 60
        E 0 90 18 60
        E 0 90 1a 60
        E 60 80 60 00
        E 0 80 61 00
        E 0 80 54 00
        E 0 80 55 00
        E 0 80 49 00
        E 0 80 3d 00
        E 0 80 18 00
        E 0 80 1a 00
        E 180 90 62 60
        E 0 90 56 60
        E 0 90 1f 60
        E 60 80 62 00
        E 0 80 56 00
        E 0 80 1f 00
        E 180 90 60 60
        E 0 90 54 60
        E 0 90 48 60
        E 0 90 3c 60
        E 0 90 18 60
        E 60 80 60 00
        E 0 80 54 00
        E 0 80 48 00
        E 0 80 3c 00
        E 0 80 18 00
        E 180 90 60 60
        E 0 90 61 60
        E 0 90 63 60
        E 0 90 54 60
        E 0 90 55 60
        E 0 90 57 60
        E 0 90 6f 60
        E 0 90 18 60
        E 0 90 1a 60
        E 0 90 31 60
        E 60 80 60 00
        E 0 80 61 00
        E 0 80 63 00
        E 0 80 54 00
        E 0 80 55 00
        E 0 80 57 00
        E 0 80 6f 00
        E 0 80 18 00
        E 0 80 1a 00
        E 0 80 31 00
        E 180 90 62 60
        E 0 90 56 60
        E 0 90 4a 60
        E 0 90 3e 60
        E 0 90 1f 60
        E 60 80 62 00
        E 0 80 56 00
        E 0 80 4a 00
        E 0 80 3e 00
        E 0 80 1f 00
        E 180 90 60 60
        E 0 90 62 60
        E 0 90 54 60
        E 0 90 56 60
        E 0 90 18 60
        E 0 90 1f 60
        E 60 80 60 00
        E 0 80 62 00
        E 0 80 54 00
        E 0 80 56 00
        E 0 80 18 00
        E 0 80 1f 00
        E 180 90 60 60
        E 0 90 61 60
        E 0 90 64 60
        E 0 90 54 60
        E 0 90 55 60
        E 0 90 58 60
        E 0 90 49 60
        E 0 90 4c 60
        E 0 90 70 60
        E 0 90 3d 60
        E 0 90 40 60
        E 0 90 18 60
        E 0 90 1a 60
        E 0 90 33 60
        E 60 80 60 00
        E 0 80 61 00
        E 0 80 64 00
        E 0 80 54 00
        E 0 80 55 00
        E 0 80 58 00
        E 0 80 49 00
        E 0 80 4c 00
        E 0 80 70 00
        E 0 80 3d 00
        E 0 80 40 00
        E 0 80 18 00
        E 0 80 1a 00
        E 0 80 33 00
        E 180 90 62 60
        E 0 90 56 60
        E 0 90 1f 60
        E 60 80 62 00
        E 0 80 56 00
        E 0 80 1f 00
        E 180 90 61 60
        E 0 90 55 60
        E 0 90 49 60
        E 0 90 3d 60
        E 0 90 1a 60
        E 60 80 61 00
        E 0 80 55 00
        E 0 80 49 00
        E 0 80 3d 00
        E 0 80 1a 00
        E 180 90 62 60
        E 0 90 56 60
        E 0 90 1f 60
        E 60 80 62 00
        E 0 80 56 00
        E 0 80 1f 00
        E 180 90 78 61
        E 0 90 79 61
        E 0 90 7a 61
        E 0 90 7b 61
        E 0 90 7c 61
        E 240 90 62 60
        E 0 90 56 60
        E 0 90 1f 60
        E 60 80 62 00
        E 0 80 56 00
        E 0 80 1f 00
        E 180 90 60 60
        E 0 90 61 60
        E 0 90 54 60
        E 0 90 55 60
        E 0 90 49 60
        E 0 90 3d 60
        E 0 90 18 60
        E 0 90 1a 60
        E 60 80 60 00
        E 0 80 61 00
        E 0 80 54 00
        E 0 80 55 00
        E 0 80 49 00
        E 0 80 3d 00
        E 0 80 18 00
        E 0 80 1a 00
        E 180 90 62 60
        E 0 90 56 60
        E 0 90 1f 60
        E 60 80 62 00
        E 0 80 56 00
        E 0 80 1f 00
        E 180 90 62 60
        E 0 90 56 60
        E 0 90 4a 60
        E 0 90 6e 60
        E 0 90 3e 60
        E 0 90 2f 60
        E 60 80 62 00
        E 0 80 56 00
        E 0 80 4a 00
        E 0 80 6e 00
        E 0 80 3e 00
        E 0 80 2f 00
        E 180 80 78 00
        E 0 80 79 00
        E 0 80 7a 00
        E 0 80 7b 00
        E 0 80 7c 00
        E 0 90 62 60
        E 0 90 63 60
        E 0 90 56 60
        E 0 90 57 60
        E 0 90 6e 60
        E 0 90 6f 60
        E 0 90 31 60
        E 0 90 2e 60
        E 60 80 62 00
        E 0 80 63 00
        E 0 80 56 00
        E 0 80 57 00
        E 0 80 6e 00
        E 0 80 6f 00
        E 0 80 31 00
        E 0 80 2e 00
        E 420 90 60 60
        E 0 90 62 60
        E 0 90 54 60
        E 0 90 56 60
        E 0 90 18 60
        E 0 90 1f 60
        E 60 80 60 00
        E 0 80 62 00
        E 0 80 54 00
        E 0 80 56 00
        E 0 80 18 00
        E 0 80 1f 00
        E 180 90 70 60
        E 10 90 60 60
        E 0 90 61 60
        E 0 90 64 60
        E 0 90 54 60
        E 0 90 55 60
        E 0 90 58 60
        E 0 90 49 60
        E 0 90 4c 60
        E 0 90 3d 60
        E 0 90 40 60
        E 0 90 18 60
        E 0 90 1a 60
        E 0 90 26 60
        E 50 80 70 00
        E 10 80 60 00
        E 0 80 61 00
        E 0 80 64 00
        E 0 80 54 00
        E 0 80 55 00
        E 0 80 58 00
        E 0 80 49 00
        E 0 80 4c 00
        E 0 80 3d 00
        E 0 80 40 00
        E 0 80 18 00
        E 0 80 1a 00
        E 0 80 26 00
        E 410 90 62 60
        E 0 90 56 60
        E 0 90 4a 60
        E 0 90 3e 60
        E 0 90 1f 60
        E 60 80 62 00
        E 0 80 56 00
        E 0 80 4a 00
        E 0 80 3e 00
        E 0 80 1f 00
        E 180 90 62 60
        E 0 90 56 60
        E 0 90 1f 60
        E 60 80 62 00
        E 0 80 56 00
        E 0 80 1f 00
        E 180 90 63 60
        E 0 90 57 60
        E 0 90 4b 60
        E 0 90 6f 60
        E 0 90 3f 60
        E 0 90 31 60
        E 60 80 63 00
        E 0 80 57 00
        E 0 80 4b 00
        E 0 80 6f 00
        E 0 80 3f 00
        E 0 80 31 00
        E 180 90 62 60
        E 0 90 56 60
        E 0 90 1f 60
        E 60 80 62 00
        E 0 80 56 00
        E 0 80 1f 00
        E 180 90 60 60
        E 0 90 61 60
        E 0 90 54 60
        E 0 90 55 60
        E 0 90 49 60
        E 0 90 3d 60
        E 0 90 18 60
        E 0 90 1a 60
        E 60 80 60 00
        E 0 80 61 00
        E 0 80 54 00
        E 0 80 55 00
        E 0 80 49 00
        E 0 80 3d 00
        E 0 80 18 00
        E 0 80 1a 00
        E 180 90 62 60
        E 0 90 56 60
        E 0 90 1f 60
        E 60 80 62 00
        E 0 80 56 00
        E 0 80 1f 00
        E 180 90 60 60
        E 0 90 54 60
        E 0 90 48 60
        E 0 90 3c 60
        E 0 90 18 60
        E 60 80 60 00
        E 0 80 54 00
        E 0 80 48 00
        E 0 80 3c 00
        E 0 80 18 00
        E 180 90 60 60
        E 0 90 61 60
        E 0 90 63 60
        E 0 90 54 60
        E 0 90 55 60
        E 0 90 57 60
        E 0 90 6f 60
        E 0 90 18 60
        E 0 90 1a 60
        E 0 90 31 60
        E 60 80 60 00
        E 0 80 61 00
        E 0 80 63 00
        E 0 80 54 00
        E 0 80 55 00
        E 0 80 57 00
        E 0 80 6f 00
        E 0 80 18 00
        E 0 80 1a 00
        E 0 80 31 00
        E 180 90 62 60
        E 0 90 56 60
        E 0 90 4a 60
        E 0 90 3e 60
        E 0 90 1f 60
        E 60 80 62 00
        E 0 80 56 00
        E 0 80 4a 00
        E 0 80 3e 00
        E 0 80 1f 00
        E 180 90 60 60
        E 0 90 62 60
        E 0 90 54 60
        E 0 90 56 60
        E 0 90 18 60
        E 0 90 1f 60
        E 60 80 60 00
        E 0 80 62 00
        E 0 80 54 00
        E 0 80 56 00
        E 0 80 18 00
        E 0 80 1f 00
        E 180 90 60 60
        E 0 90 61 60
        E 0 90 64 60
        E 0 90 54 60
        E 0 90 55 60
        E 0 90 58 60
        E 0 90 49 60
        E 0 90 4c 60
        E 0 90 70 60
        E 0 90 3d 60
        E 0 90 40 60
        E 0 90 18 60
        E 0 90 1a 60
        E 0 90 33 60
        E 60 80 60 00
        E 0 80 61 00
        E 0 80 64 00
        E 0 80 54 00
        E 0 80 55 00
        E 0 80 58 00
        E 0 80 49 00
        E 0 80 4c 00
        E 0 80 70 00
        E 0 80 3d 00
        E 0 80 40 00
        E 0 80 18 00
        E 0 80 1a 00
        E 0 80 33 00
        E 180 90 62 60
        E 0 90 56 60
        E 0 90 1f 60
        E 60 80 62 00
        E 0 80 56 00
        E 0 80 1f 00
        E 180 90 61 60
        E 0 90 55 60
        E 0 90 49 60
        E 0 90 3d 60
        E 0 90 1a 60
        E 31 90 74 61
        E 29 80 61 00
        E 0 80 55 00
        E 0 80 49 00
        E 0 80 3d 00
        E 0 80 1a 00
        E 180 90 62 60
        E 0 90 56 60
        E 0 90 1f 60
        E 60 80 62 00
        E 0 80 56 00
        E 0 80 1f 00
        E 420 90 62 60
        E 0 90 56 60
        E 0 90 1f 60
        E 60 80 62 00
        E 0 80 56 00
        E 0 80 1f 00
        E 180 90 60 60
        E 0 90 61 60
        E 0 90 54 60
        E 0 90 55 60
        E 0 90 49 60
        E 0 90 3d 60
        E 0 90 18 60
        E 0 90 1a 60
        E 60 80 60 00
        E 0 80 61 00
        E 0 80 54 00
        E 0 80 55 00
        E 0 80 49 00
        E 0 80 3d 00
        E 0 80 18 00
        E 0 80 1a 00
        E 180 90 62 60
        E 0 90 56 60
        E 0 90 1f 60
        E 60 80 62 00
        E 0 80 56 00
        E 0 80 1f 00
        E 180 90 62 60
        E 0 90 56 60
        E 0 90 4a 60
        E 0 90 6e 60
        E 0 90 3e 60
        E 0 90 2f 60
        E 60 80 62 00
        E 0 80 56 00
        E 0 80 4a 00
        E 0 80 6e 00
        E 0 80 3e 00
        E 0 80 2f 00
        E 180 90 62 60
        E 0 90 63 60
        E 0 90 56 60
        E 0 90 57 60
        E 0 90 6e 60
        E 0 90 6f 60
        E 0 90 31 60
        E 0 90 2e 60
        E 60 80 62 00
        E 0 80 63 00
        E 0 80 56 00
        E 0 80 57 00
        E 0 80 6e 00
        E 0 80 6f 00
        E 0 80 31 00
        E 0 80 2e 00
        E 420 90 60 60
        E 0 90 62 60
        E 0 90 54 60
        E 0 90 56 60
        E 0 90 18 60
        E 0 90 1f 60
        E 60 80 60 00
        E 0 80 62 00
        E 0 80 54 00
        E 0 80 56 00
        E 0 80 18 00
        E 0 80 1f 00
        E 180 90 70 60
        E 10 90 60 60
        E 0 90 61 60
        E 0 90 64 60
        E 0 90 54 60
        E 0 90 55 60
        E 0 90 58 60
        E 0 90 49 60
        E 0 90 4c 60
        E 0 90 3d 60
        E 0 90 40 60
        E 0 90 18 60
        E 0 90 1a 60
        E 0 90 26 60
        E 50 80 70 00
        E 10 80 60 00
        E 0 80 61 00
        E 0 80 64 00
        E 0 80 54 00
        E 0 80 55 00
        E 0 80 58 00
        E 0 80 49 00
        E 0 80 4c 00
        E 0 80 3d 00
        E 0 80 40 00
        E 0 80 18 00
        E 0 80 1a 00
        E 0 80 26 00
        E 410 90 62 60
        E 0 90 56 60
        E 0 90 4a 60
        E 0 90 3e 60
        E 0 90 1f 60
        E 60 80 62 00
        E 0 80 56 00
        E 0 80 4a 00
        E 0 80 3e 00
        E 0 80 1f 00
        E 180 90 62 60
        E 0 90 56 60
        E 0 90 1f 60
        E 60 80 62 00
        E 0 80 56 00
        E 0 80 1f 00
        E 180 90 63 60
        E 0 90 57 60
        E 0 90 4b 60
        E 0 90 6f 60
        E 0 90 3f 60
        E 0 90 31 60
        E 60 80 63 00
        E 0 80 57 00
        E 0 80 4b 00
        E 0 80 6f 00
        E 0 80 3f 00
        E 0 80 31 00
        E 180 90 62 60
        E 0 90 56 60
        E 0 90 1f 60
        E 60 80 62 00
        E 0 80 56 00
        E 0 80 1f 00
        E 180 90 60 60
        E 0 90 61 60
        E 0 90 54 60
        E 0 90 55 60
        E 0 90 49 60
        E 0 90 3d 60
        E 0 90 18 60
        E 0 90 1a 60
        E 60 80 60 00
        E 0 80 61 00
        E 0 80 54 00
        E 0 80 55 00
        E 0 80 49 00
        E 0 80 3d 00
        E 0 80 18 00
        E 0 80 1a 00
        E 180 90 62 60
        E 0 90 56 60
        E 0 90 1f 60
        E 60 80 62 00
        E 0 80 56 00
        E 0 80 1f 00
        E 180 90 60 60
        E 0 90 54 60
        E 0 90 48 60
        E 0 90 3c 60
        E 0 90 18 60
        E 60 80 60 00
        E 0 80 54 00
        E 0 80 48 00
        E 0 80 3c 00
        E 0 80 18 00
        E 180 90 60 60
        E 0 90 61 60
        E 0 90 63 60
        E 0 90 54 60
        E 0 90 55 60
        E 0 90 57 60
        E 0 90 6f 60
        E 0 90 18 60
        E 0 90 1a 60
        E 0 90 31 60
        E 60 80 60 00
        E 0 80 61 00
        E 0 80 63 00
        E 0 80 54 00
        E 0 80 55 00
        E 0 80 57 00
        E 0 80 6f 00
        E 0 80 18 00
        E 0 80 1a 00
        E 0 80 31 00
        E 180 90 62 60
        E 0 90 56 60
        E 0 90 4a 60
        E 0 90 3e 60
        E 0 90 1f 60
        E 60 80 62 00
        E 0 80 56 00
        E 0 80 4a 00
        E 0 80 3e 00
        E 0 80 1f 00
        E 180 90 60 60
        E 0 90 62 60
        E 0 90 54 60
        E 0 90 56 60
        E 0 90 18 60
        E 0 90 1f 60
        E 60 80 60 00
        E 0 80 62 00
        E 0 80 54 00
        E 0 80 56 00
        E 0 80 18 00
        E 0 80 1f 00
        E 180 90 60 60
        E 0 90 61 60
        E 0 90 64 60
        E 0 90 54 60
        E 0 90 55 60
        E 0 90 58 60
        E 0 90 49 60
        E 0 90 4c 60
        E 0 90 70 60
        E 0 90 3d 60
        E 0 90 40 60
        E 0 90 18 60
        E 0 90 1a 60
        E 0 90 33 60
        E 60 80 60 00
        E 0 80 61 00
        E 0 80 64 00
        E 0 80 54 00
        E 0 80 55 00
        E 0 80 58 00
        E 0 80 49 00
        E 0 80 4c 00
        E 0 80 70 00
        E 0 80 3d 00
        E 0 80 40 00
        E 0 80 18 00
        E 0 80 1a 00
        E 0 80 33 00
        E 92 80 74 00
        E 88 90 62 60
        E 0 90 56 60
        E 0 90 1f 60
        E 60 80 62 00
        E 0 80 56 00
        E 0 80 1f 00
        E 180 90 61 60
        E 0 90 55 60
        E 0 90 49 60
        E 0 90 3d 60
        E 0 90 1a 60
        E 60 80 61 00
        E 0 80 55 00
        E 0 80 49 00
        E 0 80 3d 00
        E 0 80 1a 00
        E 180 90 62 60
        E 0 90 56 60
        E 0 90 1f 60
        E 60 80 62 00
        E 0 80 56 00
        E 0 80 1f 00
        E 420 90 62 60
        E 0 90 56 60
        E 0 90 1f 60
        E 60 80 62 00
        E 0 80 56 00
        E 0 80 1f 00
        E 180 90 60 60
        E 0 90 61 60
        E 0 90 54 60
        E 0 90 55 60
        E 0 90 49 60
        E 0 90 3d 60
        E 0 90 18 60
        E 0 90 1a 60
        E 60 80 60 00
        E 0 80 61 00
        E 0 80 54 00
        E 0 80 55 00
        E 0 80 49 00
        E 0 80 3d 00
        E 0 80 18 00
        E 0 80 1a 00
        E 180 90 62 60
        E 0 90 56 60
        E 0 90 1f 60
        E 60 80 62 00
        E 0 80 56 00
        E 0 80 1f 00
        E 180 90 62 60
        E 0 90 56 60
        E 0 90 4a 60
        E 0 90 6e 60
        E 0 90 3e 60
        E 0 90 2f 60
        E 60 80 62 00
        E 0 80 56 00
        E 0 80 4a 00
        E 0 80 6e 00
        E 0 80 3e 00
        E 0 80 2f 00
        E 180 90 62 60
        E 0 90 63 60
        E 0 90 56 60
        E 0 90 57 60
        E 0 90 6e 60
        E 0 90 6f 60
        E 0 90 31 60
        E 0 90 2e 60
        E 60 80 62 00
        E 0 80 63 00
        E 0 80 56 00
        E 0 80 57 00
        E 0 80 6e 00
        E 0 80 6f 00
        E 0 80 31 00
        E 0 80 2e 00
        E 420 90 60 60
        E 0 90 62 60
        E 0 90 54 60
        E 0 90 56 60
        E 0 90 18 60
        E 0 90 1f 60
        E 60 80 60 00
        E 0 80 62 00
        E 0 80 54 00
        E 0 80 56 00
        E 0 80 18 00
        E 0 80 1f 00
        E 180 90 70 60
        E 10 90 60 60
        E 0 90 61 60
        E 0 90 64 60
        E 0 90 54 60
        E 0 90 55 60
        E 0 90 58 60
        E 0 90 49 60
        E 0 90 4c 60
        E 0 90 3d 60
        E 0 90 40 60
        E 0 90 18 60
        E 0 90 1a 60
        E 0 90 26 60
        E 50 80 70 00
        E 10 80 60 00
        E 0 80 61 00
        E 0 80 64 00
        E 0 80 54 00
        E 0 80 55 00
        E 0 80 58 00
        E 0 80 49 00
        E 0 80 4c 00
        E 0 80 3d 00
        E 0 80 40 00
        E 0 80 18 00
        E 0 80 1a 00
        E 0 80 26 00
        E 410 90 62 60
        E 0 90 56 60
        E 0 90 4a 60
        E 0 90 3e 60
        E 0 90 1f 60
        E 60 80 62 00
        E 0 80 56 00
        E 0 80 4a 00
        E 0 80 3e 00
        E 0 80 1f 00
        E 180 90 62 60
        E 0 90 56 60
        E 0 90 1f 60
        E 60 80 62 00
        E 0 80 56 00
        E 0 80 1f 00
        E 180 90 63 60
        E 0 90 57 60
        E 0 90 4b 60
        E 0 90 6f 60
        E 0 90 3f 60
        E 0 90 31 60
        E 60 80 63 00
        E 0 80 57 00
        E 0 80 4b 00
        E 0 80 6f 00
        E 0 80 3f 00
        E 0 80 31 00
        E 180 90 62 60
        E 0 90 56 60
        E 0 90 1f 60
        E 60 80 62 00
        E 0 80 56 00
        E 0 80 1f 00
        E 180 90 60 60
        E 0 90 61 60
        E 0 90 54 60
        E 0 90 55 60
        E 0 90 49 60
        E 0 90 3d 60
        E 0 90 18 60
        E 0 90 1a 60
        E 60 80 60 00
        E 0 80 61 00
        E 0 80 54 00
        E 0 80 55 00
        E 0 80 49 00
        E 0 80 3d 00
        E 0 80 18 00
        E 0 80 1a 00
        E 180 90 62 60
        E 0 90 56 60
        E 0 90 1f 60
        E 60 80 62 00
        E 0 80 56 00
        E 0 80 1f 00
        E 180 90 60 60
        E 0 90 54 60
        E 0 90 48 60
        E 0 90 3c 60
        E 0 90 18 60
        E 60 80 60 00
        E 0 80 54 00
        E 0 80 48 00
        E 0 80 3c 00
        E 0 80 18 00
        E 180 90 60 60
        E 0 90 61 60
        E 0 90 63 60
        E 0 90 54 60
        E 0 90 55 60
        E 0 90 57 60
        E 0 90 6f 60
        E 0 90 18 60
        E 0 90 1a 60
        E 0 90 31 60
        E 60 80 60 00
        E 0 80 61 00
        E 0 80 63 00
        E 0 80 54 00
        E 0 80 55 00
        E 0 80 57 00
        E 0 80 6f 00
        E 0 80 18 00
        E 0 80 1a 00
        E 0 80 31 00
        E 180 90 62 60
        E 0 90 56 60
        E 0 90 4a 60
        E 0 90 3e 60
        E 0 90 1f 60
        E 60 80 62 00
        E 0 80 56 00
        E 0 80 4a 00
        E 0 80 3e 00
        E 0 80 1f 00
        E 180 90 60 60
        E 0 90 62 60
        E 0 90 54 60
        E 0 90 56 60
        E 0 90 18 60
        E 0 90 1f 60
        E 60 80 60 00
        E 0 80 62 00
        E 0 80 54 00
        E 0 80 56 00
        E 0 80 18 00
        E 0 80 1f 00
        E 180 90 60 60
        E 0 90 61 60
        E 0 90 64 60
        E 0 90 54 60
        E 0 90 55 60
        E 0 90 58 60
        E 0 90 49 60
        E 0 90 4c 60
        E 0 90 70 60
        E 0 90 3d 60
        E 0 90 40 60
        E 0 90 18 60
        E 0 90 1a 60
        E 0 90 33 60
        E 60 80 60 00
        E 0 80 61 00
        E 0 80 64 00
        E 0 80 54 00
        E 0 80 55 00
        E 0 80 58 00
        E 0 80 49 00
        E 0 80 4c 00
        E 0 80 70 00
        E 0 80 3d 00
        E 0 80 40 00
        E 0 80 18 00
        E 0 80 1a 00
        E 0 80 33 00
        E 180 90 62 60
        E 0 90 56 60
        E 0 90 1f 60
        E 60 80 62 00
        E 0 80 56 00
        E 0 80 1f 00
        E 180 90 61 60
        E 0 90 55 60
        E 0 90 49 60
        E 0 90 3d 60
        E 0 90 1a 60
        E 60 80 61 00
        E 0 80 55 00
        E 0 80 49 00
        E 0 80 3d 00
        E 0 80 1a 00
        E 180 90 62 60
        E 0 90 56 60
        E 0 90 1f 60
        E 60 80 62 00
        E 0 80 56 00
        E 0 80 1f 00
        E 420 90 62 60
        E 0 90 56 60
        E 0 90 1f 60
        E 60 80 62 00
        E 0 80 56 00
        E 0 80 1f 00
        E 180 90 60 60
        E 0 90 61 60
        E 0 90 54 60
        E 0 90 55 60
        E 0 90 49 60
        E 0 90 3d 60
        E 0 90 18 60
        E 0 90 1a 60
        E 60 80 60 00
        E 0 80 61 00
        E 0 80 54 00
        E 0 80 55 00
        E 0 80 49 00
        E 0 80 3d 00
        E 0 80 18 00
        E 0 80 1a 00
        E 180 90 62 60
        E 0 90 56 60
        E 0 90 1f 60
        E 60 80 62 00
        E 0 80 56 00
        E 0 80 1f 00
        E 180 90 62 60
        E 0 90 56 60
        E 0 90 4a 60
        E 0 90 6e 60
        E 0 90 3e 60
        E 0 90 2f 60
        E 60 80 62 00
        E 0 80 56 00
        E 0 80 4a 00
        E 0 80 6e 00
        E 0 80 3e 00
        E 0 80 2f 00
        E 180 90 62 60
        E 0 90 63 60
        E 0 90 56 60
        E 0 90 57 60
        E 0 90 6e 60
        E 0 90 6f 60
        E 0 90 31 60
        E 0 90 2e 60
        E 60 80 62 00
        E 0 80 63 00
        E 0 80 56 00
        E 0 80 57 00
        E 0 80 6e 00
        E 0 80 6f 00
        E 0 80 31 00
        E 0 80 2e 00
        E 420 90 60 60
        E 0 90 62 60
        E 0 90 54 60
        E 0 90 56 60
        E 0 90 18 60
        E 0 90 1f 60
        E 60 80 60 00
        E 0 80 62 00
        E 0 80 54 00
        E 0 80 56 00
        E 0 80 18 00
        E 0 80 1f 00
        E 180 90 70 60
        E 10 90 60 60
        E 0 90 61 60
        E 0 90 64 60
        E 0 90 54 60
        E 0 90 55 60
        E 0 90 58 60
        E 0 90 49 60
        E 0 90 4c 60
        E 0 90 3d 60
        E 0 90 40 60
        E 0 90 18 60
        E 0 90 1a 60
        E 0 90 26 60
        E 50 80 70 00
        E 10 80 60 00
        E 0 80 61 00
        E 0 80 64 00
        E 0 80 54 00
        E 0 80 55 00
        E 0 80 58 00
        E 0 80 49 00
        E 0 80 4c 00
        E 0 80 3d 00
        E 0 80 40 00
        E 0 80 18 00
        E 0 80 1a 00
        E 0 80 26 00
        E 410 90 62 60
        E 0 90 56 60
        E 0 90 4a 60
        E 0 90 3e 60
        E 0 90 1f 60
        E 60 80 62 00
        E 0 80 56 00
        E 0 80 4a 00
        E 0 80 3e 00
        E 0 80 1f 00
        E 180 90 62 60
        E 0 90 56 60
        E 0 90 1f 60
        E 60 80 62 00
        E 0 80 56 00
        E 0 80 1f 00
        E 180 90 63 60
        E 0 90 57 60
        E 0 90 4b 60
        E 0 90 6f 60
        E 0 90 3f 60
        E 0 90 31 60
        E 60 80 63 00
        E 0 80 57 00
        E 0 80 4b 00
        E 0 80 6f 00
        E 0 80 3f 00
        E 0 80 31 00
        E 180 90 62 60
        E 0 90 56 60
        E 0 90 1f 60
        E 60 80 62 00
        E 0 80 56 00
        E 0 80 1f 00
        E 180 90 60 60
        E 0 90 61 60
        E 0 90 54 60
        E 0 90 55 60
        E 0 90 49 60
        E 0 90 3d 60
        E 0 90 18 60
        E 0 90 1a 60
        E 60 80 60 00
        E 0 80 61 00
        E 0 80 54 00
        E 0 80 55 00
        E 0 80 49 00
        E 0 80 3d 00
        E 0 80 18 00
        E 0 80 1a 00
        E 180 90 62 60
        E 0 90 56 60
        E 0 90 1f 60
        E 60 80 62 00
        E 0 80 56 00
        E 0 80 1f 00
        E 180 90 60 60
        E 0 90 54 60
        E 0 90 48 60
        E 0 90 3c 60
        E 0 90 18 60
        E 60 80 60 00
        E 0 80 54 00
        E 0 80 48 00
        E 0 80 3c 00
        E 0 80 18 00
        E 180 90 60 60
        E 0 90 61 60
        E 0 90 63 60
        E 0 90 54 60
        E 0 90 55 60
        E 0 90 57 60
        E 0 90 6f 60
        E 0 90 18 60
        E 0 90 1a 60
        E 0 90 31 60
        E 60 80 60 00
        E 0 80 61 00
        E 0 80 63 00
        E 0 80 54 00
        E 0 80 55 00
        E 0 80 57 00
        E 0 80 6f 00
        E 0 80 18 00
        E 0 80 1a 00
        E 0 80 31 00
        E 180 90 62 60
        E 0 90 56 60
        E 0 90 4a 60
        E 0 90 3e 60
        E 0 90 1f 60
        E 60 80 62 00
        E 0 80 56 00
        E 0 80 4a 00
        E 0 80 3e 00
        E 0 80 1f 00
        E 180 90 60 60
        E 0 90 62 60
        E 0 90 54 60
        E 0 90 56 60
        E 0 90 18 60
        E 0 90 1f 60
        E 60 80 60 00
        E 0 80 62 00
        E 0 80 54 00
        E 0 80 56 00
        E 0 80 18 00
        E 0 80 1f 00
        E 180 90 60 60
        E 0 90 61 60
        E 0 90 64 60
        E 0 90 54 60
        E 0 90 55 60
        E 0 90 58 60
        E 0 90 49 60
        E 0 90 4c 60
        E 0 90 70 60
        E 0 90 3d 60
        E 0 90 40 60
        E 0 90 18 60
        E 0 90 1a 60
        E 0 90 33 60
        E 60 80 60 00
        E 0 80 61 00
        E 0 80 64 00
        E 0 80 54 00
        E 0 80 55 00
        E 0 80 58 00
        E 0 80 49 00
        E 0 80 4c 00
        E 0 80 70 00
        E 0 80 3d 00
        E 0 80 40 00
        E 0 80 18 00
        E 0 80 1a 00
        E 0 80 33 00
        E 180 90 62 60
        E 0 90 56 60
        E 0 90 1f 60
        E 60 80 62 00
        E 0 80 56 00
        E 0 80 1f 00
        E 180 90 61 60
        E 0 90 55 60
        E 0 90 49 60
        E 0 90 3d 60
        E 0 90 1a 60
        E 60 80 61 00
        E 0 80 55 00
        E 0 80 49 00
        E 0 80 3d 00
        E 0 80 1a 00
        E 180 90 62 60
        E 0 90 56 60
        E 0 90 1f 60
        E 60 80 62 00
        E 0 80 56 00
        E 0 80 1f 00
        E 180 90 78 61
        E 0 90 79 61
        E 0 90 7a 61
        E 0 90 7b 61
        E 0 90 7c 61
        E 240 90 62 60
        E 0 90 56 60
        E 0 90 1f 60
        E 60 80 62 00
        E 0 80 56 00
        E 0 80 1f 00
        E 180 90 60 60
        E 0 90 61 60
        E 0 90 54 60
        E 0 90 55 60
        E 0 90 49 60
        E 0 90 3d 60
        E 0 90 18 60
        E 0 90 1a 60
        E 60 80 60 00
        E 0 80 61 00
        E 0 80 54 00
        E 0 80 55 00
        E 0 80 49 00
        E 0 80 3d 00
        E 0 80 18 00
        E 0 80 1a 00
        E 180 90 62 60
        E 0 90 56 60
        E 0 90 1f 60
        E 60 80 62 00
        E 0 80 56 00
        E 0 80 1f 00
        E 180 90 62 60
        E 0 90 56 60
        E 0 90 4a 60
        E 0 90 6e 60
        E 0 90 3e 60
        E 0 90 2f 60
        E 60 80 62 00
        E 0 80 56 00
        E 0 80 4a 00
        E 0 80 6e 00
        E 0 80 3e 00
        E 0 80 2f 00
        E 180 80 78 00
        E 0 80 79 00
        E 0 80 7a 00
        E 0 80 7b 00
        E 0 80 7c 00
        E 0 90 62 60
        E 0 90 63 60
        E 0 90 56 60
        E 0 90 57 60
        E 0 90 6e 60
        E 0 90 6f 60
        E 0 90 31 60
        E 0 90 2e 60
        E 60 80 62 00
        E 0 80 63 00
        E 0 80 56 00
        E 0 80 57 00
        E 0 80 6e 00
        E 0 80 6f 00
        E 0 80 31 00
        E 0 80 2e 00
        E 420 90 60 60
        E 0 90 62 60
        E 0 90 54 60
        E 0 90 56 60
        E 0 90 18 60
        E 0 90 1f 60
        E 60 80 60 00
        E 0 80 62 00
        E 0 80 54 00
        E 0 80 56 00
        E 0 80 18 00
        E 0 80 1f 00
        E 180 90 70 60
        E 10 90 60 60
        E 0 90 61 60
        E 0 90 64 60
        E 0 90 54 60
        E 0 90 55 60
        E 0 90 58 60
        E 0 90 49 60
        E 0 90 4c 60
        E 0 90 3d 60
        E 0 90 40 60
        E 0 90 18 60
        E 0 90 1a 60
        E 0 90 26 60
        E 50 80 70 00
        E 10 80 60 00
        E 0 80 61 00
        E 0 80 64 00
        E 0 80 54 00
        E 0 80 55 00
        E 0 80 58 00
        E 0 80 49 00
        E 0 80 4c 00
        E 0 80 3d 00
        E 0 80 40 00
        E 0 80 18 00
        E 0 80 1a 00
        E 0 80 26 00
        E 410 90 62 60
        E 0 90 56 60
        E 0 90 4a 60
        E 0 90 3e 60
        E 0 90 1f 60
        E 60 80 62 00
        E 0 80 56 00
        E 0 80 4a 00
        E 0 80 3e 00
        E 0 80 1f 00
        E 180 90 62 60
        E 0 90 56 60
        E 0 90 1f 60
        E 60 80 62 00
        E 0 80 56 00
        E 0 80 1f 00
        E 180 90 63 60
        E 0 90 57 60
        E 0 90 4b 60
        E 0 90 6f 60
        E 0 90 3f 60
        E 0 90 31 60
        E 60 80 63 00
        E 0 80 57 00
        E 0 80 4b 00
        E 0 80 6f 00
        E 0 80 3f 00
        E 0 80 31 00
        E 180 90 62 60
        E 0 90 56 60
        E 0 90 1f 60
        E 60 80 62 00
        E 0 80 56 00
        E 0 80 1f 00
        E 180 90 60 60
        E 0 90 61 60
        E 0 90 54 60
        E 0 90 55 60
        E 0 90 49 60
        E 0 90 3d 60
        E 0 90 18 60
        E 0 90 1a 60
        E 60 80 60 00
        E 0 80 61 00
        E 0 80 54 00
        E 0 80 55 00
        E 0 80 49 00
        E 0 80 3d 00
        E 0 80 18 00
        E 0 80 1a 00
        E 180 90 62 60
        E 0 90 56 60
        E 0 90 1f 60
        E 60 80 62 00
        E 0 80 56 00
        E 0 80 1f 00
        E 180 90 60 60
        E 0 90 54 60
        E 0 90 48 60
        E 0 90 3c 60
        E 0 90 18 60
        E 60 80 60 00
        E 0 80 54 00
        E 0 80 48 00
        E 0 80 3c 00
        E 0 80 18 00
        E 180 90 60 60
        E 0 90 61 60
        E 0 90 63 60
        E 0 90 54 60
        E 0 90 55 60
        E 0 90 57 60
        E 0 90 6f 60
        E 0 90 18 60
        E 0 90 1a 60
        E 0 90 31 60
        E 60 80 60 00
        E 0 80 61 00
        E 0 80 63 00
        E 0 80 54 00
        E 0 80 55 00
        E 0 80 57 00
        E 0 80 6f 00
        E 0 80 18 00
        E 0 80 1a 00
        E 0 80 31 00
        E 180 90 62 60
        E 0 90 56 60
        E 0 90 4a 60
        E 0 90 3e 60
        E 0 90 1f 60
        E 60 80 62 00
        E 0 80 56 00
        E 0 80 4a 00
        E 0 80 3e 00
        E 0 80 1f 00
        E 180 90 60 60
        E 0 90 62 60
        E 0 90 54 60
        E 0 90 56 60
        E 0 90 18 60
        E 0 90 1f 60
        E 60 80 60 00
        E 0 80 62 00
        E 0 80 54 00
        E 0 80 56 00
        E 0 80 18 00
        E 0 80 1f 00
        E 180 90 60 60
        E 0 90 61 60
        E 0 90 64 60
        E 0 90 54 60
        E 0 90 55 60
        E 0 90 58 60
        E 0 90 49 60
        E 0 90 4c 60
        E 0 90 70 60
        E 0 90 3d 60
        E 0 90 40 60
        E 0 90 18 60
        E 0 90 1a 60
        E 0 90 33 60
        E 60 80 60 00
        E 0 80 61 00
        E 0 80 64 00
        E 0 80 54 00
        E 0 80 55 00
        E 0 80 58 00
        E 0 80 49 00
        E 0 80 4c 00
        E 0 80 70 00
        E 0 80 3d 00
        E 0 80 40 00
        E 0 80 18 00
        E 0 80 1a 00
        E 0 80 33 00
        E 180 90 62 60
        E 0 90 56 60
        E 0 90 1f 60
        E 60 80 62 00
        E 0 80 56 00
        E 0 80 1f 00
        E 180 90 61 60
        E 0 90 55 60
        E 0 90 49 60
        E 0 90 3d 60
        E 0 90 1a 60
        E 60 80 61 00
        E 0 80 55 00
        E 0 80 49 00
        E 0 80 3d 00
        E 0 80 1a 00
        E 180 90 62 60
        E 0 90 56 60
        E 0 90 1f 60
        E 60 80 62 00
        E 0 80 56 00
        E 0 80 1f 00
        E 420 90 62 60
        E 0 90 56 60
        E 0 90 1f 60
        E 60 80 62 00
        E 0 80 56 00
        E 0 80 1f 00
        E 180 90 60 60
        E 0 90 61 60
        E 0 90 54 60
        E 0 90 55 60
        E 0 90 49 60
        E 0 90 3d 60
        E 0 90 18 60
        E 0 90 1a 60
        E 60 80 60 00
        E 0 80 61 00
        E 0 80 54 00
        E 0 80 55 00
        E 0 80 49 00
        E 0 80 3d 00
        E 0 80 18 00
        E 0 80 1a 00
        E 180 90 62 60
        E 0 90 56 60
        E 0 90 1f 60
        E 60 80 62 00
        E 0 80 56 00
        E 0 80 1f 00
        E 180 90 62 60
        E 0 90 56 60
        E 0 90 4a 60
        E 0 90 6e 60
        E 0 90 3e 60
        E 0 90 2f 60
        E 60 80 62 00
        E 0 80 56 00
        E 0 80 4a 00
        E 0 80 6e 00
        E 0 80 3e 00
        E 0 80 2f 00
        E 180 90 62 60
        E 0 90 63 60
        E 0 90 56 60
        E 0 90 57 60
        E 0 90 6e 60
        E 0 90 6f 60
        E 0 90 31 60
        E 0 90 2e 60
        E 60 80 62 00
        E 0 80 63 00
        E 0 80 56 00
        E 0 80 57 00
        E 0 80 6e 00
        E 0 80 6f 00
        E 0 80 31 00
        E 0 80 2e 00
        E 420 90 60 60
        E 0 90 62 60
        E 0 90 54 60
        E 0 90 56 60
        E 0 90 18 60
        E 0 90 1f 60
        E 60 80 60 00
        E 0 80 62 00
        E 0 80 54 00
        E 0 80 56 00
        E 0 80 18 00
        E 0 80 1f 00
        E 180 90 70 60
        E 10 90 60 60
        E 0 90 61 60
        E 0 90 64 60
        E 0 90 54 60
        E 0 90 55 60
        E 0 90 58 60
        E 0 90 49 60
        E 0 90 4c 60
        E 0 90 3d 60
        E 0 90 40 60
        E 0 90 18 60
        E 0 90 1a 60
        E 0 90 26 60
        E 50 80 70 00
        E 10 80 60 00
        E 0 80 61 00
        E 0 80 64 00
        E 0 80 54 00
        E 0 80 55 00
        E 0 80 58 00
        E 0 80 49 00
        E 0 80 4c 00
        E 0 80 3d 00
        E 0 80 40 00
        E 0 80 18 00
        E 0 80 1a 00
        E 0 80 26 00
        E 410 90 62 60
        E 0 90 56 60
        E 0 90 4a 60
        E 0 90 3e 60
        E 0 90 1f 60
        E 60 80 62 00
        E 0 80 56 00
        E 0 80 4a 00
        E 0 80 3e 00
        E 0 80 1f 00
        E 180 90 62 60
        E 0 90 56 60
        E 0 90 1f 60
        E 60 80 62 00
        E 0 80 56 00
        E 0 80 1f 00
        E 180 90 63 60
        E 0 90 57 60
        E 0 90 4b 60
        E 0 90 6f 60
        E 0 90 3f 60
        E 0 90 31 60
        E 60 80 63 00
        E 0 80 57 00
        E 0 80 4b 00
        E 0 80 6f 00
        E 0 80 3f 00
        E 0 80 31 00
        E 180 90 62 60
        E 0 90 56 60
        E 0 90 1f 60
        E 60 80 62 00
        E 0 80 56 00
        E 0 80 1f 00
        E 180 90 60 60
        E 0 90 61 60
        E 0 90 54 60
        E 0 90 55 60
        E 0 90 49 60
        E 0 90 3d 60
        E 0 90 18 60
        E 0 90 1a 60
        E 60 80 60 00
        E 0 80 61 00
        E 0 80 54 00
        E 0 80 55 00
        E 0 80 49 00
        E 0 80 3d 00
        E 0 80 18 00
        E 0 80 1a 00
        E 180 90 62 60
        E 0 90 56 60
        E 0 90 1f 60
        E 60 80 62 00
        E 0 80 56 00
        E 0 80 1f 00
        E 180 90 60 60
        E 0 90 54 60
        E 0 90 48 60
        E 0 90 3c 60
        E 0 90 18 60
        E 60 80 60 00
        E 0 80 54 00
        E 0 80 48 00
        E 0 80 3c 00
        E 0 80 18 00
        E 180 90 60 60
        E 0 90 61 60
        E 0 90 63 60
        E 0 90 54 60
        E 0 90 55 60
        E 0 90 57 60
        E 0 90 6f 60
        E 0 90 18 60
        E 0 90 1a 60
        E 0 90 31 60
        E 60 80 60 00
        E 0 80 61 00
        E 0 80 63 00
        E 0 80 54 00
        E 0 80 55 00
        E 0 80 57 00
        E 0 80 6f 00
        E 0 80 18 00
        E 0 80 1a 00
        E 0 80 31 00
        E 180 90 62 60
        E 0 90 56 60
        E 0 90 4a 60
        E 0 90 3e 60
        E 0 90 1f 60
        E 60 80 62 00
        E 0 80 56 00
        E 0 80 4a 00
        E 0 80 3e 00
        E 0 80 1f 00
        E 180 90 60 60
        E 0 90 62 60
        E 0 90 54 60
        E 0 90 56 60
        E 0 90 18 60
        E 0 90 1f 60
        E 60 80 60 00
        E 0 80 62 00
        E 0 80 54 00
        E 0 80 56 00
        E 0 80 18 00
        E 0 80 1f 00
        E 180 90 60 60
        E 0 90 61 60
        E 0 90 64 60
        E 0 90 54 60
        E 0 90 55 60
        E 0 90 58 60
        E 0 90 49 60
        E 0 90 4c 60
        E 0 90 70 60
        E 0 90 3d 60
        E 0 90 40 60
        E 0 90 18 60
        E 0 90 1a 60
        E 0 90 33 60
        E 60 80 60 00
        E 0 80 61 00
        E 0 80 64 00
        E 0 80 54 00
        E 0 80 55 00
        E 0 80 58 00
        E 0 80 49 00
        E 0 80 4c 00
        E 0 80 70 00
        E 0 80 3d 00
        E 0 80 40 00
        E 0 80 18 00
        E 0 80 1a 00
        E 0 80 33 00
        E 180 90 62 60
        E 0 90 56 60
        E 0 90 1f 60
        E 60 80 62 00
        E 0 80 56 00
        E 0 80 1f 00
        E 180 90 61 60
        E 0 90 55 60
        E 0 90 49 60
        E 0 90 3d 60
        E 0 90 1a 60
        E 60 80 61 00
        E 0 80 55 00
        E 0 80 49 00
        E 0 80 3d 00
        E 0 80 1a 00
        E 180 90 62 60
        E 0 90 78 61
        E 0 90 79 61
        E 0 90 7a 61
        E 0 90 7b 61
        E 0 90 7c 61
        E 0 90 7e 61
        E 0 90 56 60
        E 0 90 4a 60
        E 0 90 3e 60
        E 0 90 1f 60
        E 60 80 62 00
        E 0 80 56 00
        E 0 80 4a 00
        E 0 80 3e 00
        E 0 80 1f 00
        E 60 90 62 60
        E 0 90 1e 60
        E 60 80 62 00
        E 0 80 1e 00
        E 60 90 62 60
        E 0 90 56 60
        E 0 90 1f 60
        E 60 80 62 00
        E 0 80 56 00
        E 0 80 1f 00
        E 60 90 62 60
        E 0 90 1e 60
        E 60 80 62 00
        E 0 80 1e 00
        E 60 90 62 60
        E 0 90 56 60
        E 0 90 4a 60
        E 0 90 1f 60
        E 60 80 62 00
        E 0 80 56 00
        E 0 80 4a 00
        E 0 80 1f 00
        E 60 90 62 60
        E 0 90 1e 60
        E 60 80 62 00
        E 0 80 1e 00
        E 60 90 62 60
        E 0 90 56 60
        E 0 90 1f 60
        E 60 80 7e 00
        E 0 80 62 00
        E 0 80 56 00
        E 0 80 1f 00
        E 180 80 78 00
        E 0 80 79 00
        E 0 80 7a 00
        E 0 80 7b 00
        E 0 80 7c 00
        E 480 90 61 60
        E 0 90 63 60
        E 0 90 55 60
        E 0 90 57 60
        E 0 90 49 60
        E 0 90 4b 60
        E 0 90 6f 60
        E 0 90 3d 60
        E 0 90 3f 60
        E 0 90 1a 60
        E 0 90 31 60
        E 60 80 61 00
        E 0 80 63 00
        E 0 80 55 00
        E 0 80 57 00
        E 0 80 49 00
        E 0 80 4b 00
        E 0 80 6f 00
        E 0 80 3d 00
        E 0 80 3f 00
        E 0 80 1a 00
        E 0 80 31 00
        E 660 90 62 60
        E 0 90 56 60
        E 0 90 4a 60
        E 0 90 6e 60
        E 0 90 3e 60
        E 0 90 2f 60
        E 60 80 62 00
        E 0 80 56 00
        E 0 80 4a 00
        E 0 80 6e 00
        E 0 80 3e 00
        E 0 80 2f 00
        E 420 90 62 60
        E 0 90 56 60
        E 0 90 4a 60
        E 0 90 6e 60
        E 0 90 3e 60
        E 0 90 2f 60
        E 60 80 62 00
        E 0 80 56 00
        E 0 80 4a 00
        E 0 80 6e 00
        E 0 80 3e 00
        E 0 80 2f 00
        E 420 90 63 60
        E 0 90 57 60
        E 0 90 4b 60
        E 0 90 6f 60
        E 0 90 3f 60
        E 0 90 31 60
        E 60 80 63 00
        E 0 80 57 00
        E 0 80 4b 00
        E 0 80 6f 00
        E 0 80 3f 00
        E 0 80 31 00
        E 180 90 62 60
        E 0 90 56 60
        E 0 90 6e 60
        E 0 90 2f 60
        E 60 80 62 00
        E 0 80 56 00
        E 0 80 6e 00
        E 0 80 2f 00
        E 180 90 63 60
        E 0 90 57 60
        E 0 90 4b 60
        E 0 90 6f 60
        E 0 90 3f 60
        E 0 90 31 60
        E 60 80 63 00
        E 0 80 57 00
        E 0 80 4b 00
        E 0 80 6f 00
        E 0 80 3f 00
        E 0 80 31 00
        E 180 90 62 60
        E 0 90 56 60
        E 0 90 6e 60
        E 0 90 2f 60
        E 60 80 62 00
        E 0 80 56 00
        E 0 80 6e 00
        E 0 80 2f 00
        E 180 90 62 60
        E 0 90 56 60
        E 0 90 4a 60
        E 0 90 6e 60
        E 0 90 3e 60
        E 0 90 2f 60
        E 60 80 62 00
        E 0 80 56 00
        E 0 80 4a 00
        E 0 80 6e 00
        E 0 80 3e 00
        E 0 80 2f 00
        E 180 90 61 60
        E 0 90 63 60
        E 0 90 55 60
        E 0 90 57 60
        E 0 90 6f 60
        E 0 90 1a 60
        E 0 90 31 60
        E 60 80 61 00
        E 0 80 63 00
        E 0 80 55 00
        E 0 80 57 00
        E 0 80 6f 00
        E 0 80 1a 00
        E 0 80 31 00
        E 660 90 62 60
        E 0 90 56 60
        E 0 90 4a 60
        E 0 90 6e 60
        E 0 90 3e 60
        E 0 90 2f 60
        E 60 80 62 00
        E 0 80 56 00
        E 0 80 4a 00
        E 0 80 6e 00
        E 0 80 3e 00
        E 0 80 2f 00
        E 420 90 62 60
        E 0 90 56 60
        E 0 90 4a 60
        E 0 90 6e 60
        E 0 90 3e 60
        E 0 90 2f 60
        E 60 80 62 00
        E 0 80 56 00
        E 0 80 4a 00
        E 0 80 6e 00
        E 0 80 3e 00
        E 0 80 2f 00
        E 420 90 63 60
        E 0 90 57 60
        E 0 90 4b 60
        E 0 90 6f 60
        E 0 90 3f 60
        E 0 90 31 60
        E 60 80 63 00
        E 0 80 57 00
        E 0 80 4b 00
        E 0 80 6f 00
        E 0 80 3f 00
        E 0 80 31 00
        E 180 90 62 60
        E 0 90 56 60
        E 0 90 6e 60
        E 0 90 2f 60
        E 60 80 62 00
        E 0 80 56 00
        E 0 80 6e 00
        E 0 80 2f 00
        E 180 90 63 60
        E 0 90 57 60
        E 0 90 4b 60
        E 0 90 6f 60
        E 0 90 3f 60
        E 0 90 31 60
        E 60 80 63 00
        E 0 80 57 00
        E 0 80 4b 00
        E 0 80 6f 00
        E 0 80 3f 00
        E 0 80 31 00
        E 180 90 62 60
        E 0 90 56 60
        E 0 90 6e 60
        E 0 90 2f 60
        E 60 80 62 00
        E 0 80 56 00
        E 0 80 6e 00
        E 0 80 2f 00
        E 180 90 62 60
        E 0 90 56 60
        E 0 90 4a 60
        E 0 90 6e 60
        E 0 90 3e 60
        E 0 90 2f 60
        E 60 80 62 00
        E 0 80 56 00
        E 0 80 4a 00
        E 0 80 6e 00
        E 0 80 3e 00
        E 0 80 2f 00
        E 180 90 61 60
        E 0 90 63 60
        E 0 90 55 60
        E 0 90 57 60
        E 0 90 6f 60
        E 0 90 1a 60
        E 0 90 31 60
        E 60 80 61 00
        E 0 80 63 00
        E 0 80 55 00
        E 0 80 57 00
        E 0 80 6f 00
        E 0 80 1a 00
        E 0 80 31 00
        E 660 90 62 60
        E 0 90 56 60
        E 0 90 4a 60
        E 0 90 6e 60
        E 0 90 3e 60
        E 0 90 2f 60
        E 60 80 62 00
        E 0 80 56 00
        E 0 80 4a 00
        E 0 80 6e 00
        E 0 80 3e 00
        E 0 80 2f 00
        E 420 90 62 60
        E 0 90 56 60
        E 0 90 4a 60
        E 0 90 6e 60
        E 0 90 3e 60
        E 0 90 2f 60
        E 60 80 62 00
        E 0 80 56 00
        E 0 80 4a 00
        E 0 80 6e 00
        E 0 80 3e 00
        E 0 80 2f 00
        E 420 90 63 60
        E 0 90 57 60
        E 0 90 4b 60
        E 0 90 6f 60
        E 0 90 3f 60
        E 0 90 31 60
        E 60 80 63 00
        E 0 80 57 00
        E 0 80 4b 00
        E 0 80 6f 00
        E 0 80 3f 00
        E 0 80 31 00
        E 180 90 62 60
        E 0 90 56 60
        E 0 90 6e 60
        E 0 90 2f 60
        E 60 80 62 00
        E 0 80 56 00
        E 0 80 6e 00
        E 0 80 2f 00
        E 180 90 63 60
        E 0 90 57 60
        E 0 90 4b 60
        E 0 90 6f 60
        E 0 90 3f 60
        E 0 90 31 60
        E 60 80 63 00
        E 0 80 57 00
        E 0 80 4b 00
        E 0 80 6f 00
        E 0 80 3f 00
        E 0 80 31 00
        E 180 90 62 60
        E 0 90 56 60
        E 0 90 6e 60
        E 0 90 2f 60
        E 60 80 62 00
        E 0 80 56 00
        E 0 80 6e 00
        E 0 80 2f 00
        E 180 90 62 60
        E 0 90 56 60
        E 0 90 4a 60
        E 0 90 6e 60
        E 0 90 3e 60
        E 0 90 2f 60
        E 60 80 62 00
        E 0 80 56 00
        E 0 80 4a 00
        E 0 80 6e 00
        E 0 80 3e 00
        E 0 80 2f 00
        E 180 90 61 60
        E 0 90 63 60
        E 0 90 55 60
        E 0 90 57 60
        E 0 90 6f 60
        E 0 90 1a 60
        E 0 90 31 60
        E 60 80 61 00
        E 0 80 63 00
        E 0 80 55 00
        E 0 80 57 00
        E 0 80 6f 00
        E 0 80 1a 00
        E 0 80 31 00
        E 660 90 62 60
        E 0 90 56 60
        E 0 90 4a 60
        E 0 90 6e 60
        E 0 90 3e 60
        E 0 90 2f 60
        E 60 80 62 00
        E 0 80 56 00
        E 0 80 4a 00
        E 0 80 6e 00
        E 0 80 3e 00
        E 0 80 2f 00
        E 420 90 62 60
        E 0 90 56 60
        E 0 90 4a 60
        E 0 90 6e 60
        E 0 90 3e 60
        E 0 90 2f 60
        E 60 80 62 00
        E 0 80 56 00
        E 0 80 4a 00
        E 0 80 6e 00
        E 0 80 3e 00
        E 0 80 2f 00
        E 420 90 63 60
        E 0 90 57 60
        E 0 90 4b 60
        E 0 90 6f 60
        E 0 90 3f 60
        E 0 90 31 60
        E 60 80 63 00
        E 0 80 57 00
        E 0 80 4b 00
        E 0 80 6f 00
        E 0 80 3f 00
        E 0 80 31 00
        E 180 90 62 60
        E 0 90 56 60
        E 0 90 6e 60
        E 0 90 2f 60
        E 60 80 62 00
        E 0 80 56 00
        E 0 80 6e 00
        E 0 80 2f 00
        E 180 90 63 60
        E 0 90 57 60
        E 0 90 4b 60
        E 0 90 6f 60
        E 0 90 3f 60
        E 0 90 31 60
        E 60 80 63 00
        E 0 80 57 00
        E 0 80 4b 00
        E 0 80 6f 00
        E 0 80 3f 00
        E 0 80 31 00
        E 180 90 62 60
        E 0 90 56 60
        E 0 90 6e 60
        E 0 90 2f 60
        E 60 80 62 00
        E 0 80 56 00
        E 0 80 6e 00
        E 0 80 2f 00
        E 180 90 62 60
        E 0 90 56 60
        E 0 90 4a 60
        E 0 90 6e 60
        E 0 90 3e 60
        E 0 90 2f 60
        E 60 80 62 00
        E 0 80 56 00
        E 0 80 4a 00
        E 0 80 6e 00
        E 0 80 3e 00
        E 0 80 2f 00
        E 180 90 61 60
        E 0 90 63 60
        E 0 90 55 60
        E 0 90 57 60
        E 0 90 6f 60
        E 0 90 1a 60
        E 0 90 31 60
        E 60 80 61 00
        E 0 80 63 00
        E 0 80 55 00
        E 0 80 57 00
        E 0 80 6f 00
        E 0 80 1a 00
        E 0 80 31 00
        E 660 90 62 60
        E 0 90 56 60
        E 0 90 4a 60
        E 0 90 6e 60
        E 0 90 3e 60
        E 0 90 2f 60
        E 60 80 62 00
        E 0 80 56 00
        E 0 80 4a 00
        E 0 80 6e 00
        E 0 80 3e 00
        E 0 80 2f 00
        E 420 90 62 60
        E 0 90 56 60
        E 0 90 4a 60
        E 0 90 6e 60
        E 0 90 3e 60
        E 0 90 2f 60
        E 60 80 62 00
        E 0 80 56 00
        E 0 80 4a 00
        E 0 80 6e 00
        E 0 80 3e 00
        E 0 80 2f 00
        E 420 90 63 60
        E 0 90 57 60
        E 0 90 4b 60
        E 0 90 6f 60
        E 0 90 3f 60
        E 0 90 31 60
        E 60 80 63 00
        E 0 80 57 00
        E 0 80 4b 00
        E 0 80 6f 00
        E 0 80 3f 00
        E 0 80 31 00
        E 180 90 62 60
        E 0 90 56 60
        E 0 90 6e 60
        E 0 90 2f 60
        E 60 80 62 00
        E 0 80 56 00
        E 0 80 6e 00
        E 0 80 2f 00
        E 180 90 63 60
        E 0 90 57 60
        E 0 90 4b 60
        E 0 90 6f 60
        E 0 90 3f 60
        E 0 90 31 60
        E 60 80 63 00
        E 0 80 57 00
        E 0 80 4b 00
        E 0 80 6f 00
        E 0 80 3f 00
        E 0 80 31 00
        E 180 90 62 60
        E 0 90 56 60
        E 0 90 6e 60
        E 0 90 2f 60
        E 60 80 62 00
        E 0 80 56 00
        E 0 80 6e 00
        E 0 80 2f 00
        E 180 90 62 60
        E 0 90 56 60
        E 0 90 4a 60
        E 0 90 6e 60
        E 0 90 3e 60
        E 0 90 2f 60
        E 60 80 62 00
        E 0 80 56 00
        E 0 80 4a 00
        E 0 80 6e 00
        E 0 80 3e 00
        E 0 80 2f 00
        E 180 90 61 60
        E 0 90 63 60
        E 0 90 55 60
        E 0 90 57 60
        E 0 90 6f 60
        E 0 90 1a 60
        E 0 90 31 60
        E 60 80 61 00
        E 0 80 63 00
        E 0 80 55 00
        E 0 80 57 00
        E 0 80 6f 00
        E 0 80 1a 00
        E 0 80 31 00
        E 660 90 62 60
        E 0 90 56 60
        E 0 90 4a 60
        E 0 90 6e 60
        E 0 90 3e 60
        E 0 90 2f 60
        E 60 80 62 00
        E 0 80 56 00
        E 0 80 4a 00
        E 0 80 6e 00
        E 0 80 3e 00
        E 0 80 2f 00
        E 420 90 62 60
        E 0 90 56 60
        E 0 90 4a 60
        E 0 90 6e 60
        E 0 90 3e 60
        E 0 90 2f 60
        E 60 80 62 00
        E 0 80 56 00
        E 0 80 4a 00
        E 0 80 6e 00
        E 0 80 3e 00
        E 0 80 2f 00
        E 420 90 63 60
        E 0 90 57 60
        E 0 90 4b 60
        E 0 90 6f 60
        E 0 90 3f 60
        E 0 90 31 60
        E 60 80 63 00
        E 0 80 57 00
        E 0 80 4b 00
        E 0 80 6f 00
        E 0 80 3f 00
        E 0 80 31 00
        E 180 90 62 60
        E 0 90 56 60
        E 0 90 6e 60
        E 0 90 2f 60
        E 60 80 62 00
        E 0 80 56 00
        E 0 80 6e 00
        E 0 80 2f 00
        E 180 90 63 60
        E 0 90 57 60
        E 0 90 4b 60
        E 0 90 6f 60
        E 0 90 3f 60
        E 0 90 31 60
        E 60 80 63 00
        E 0 80 57 00
        E 0 80 4b 00
        E 0 80 6f 00
        E 0 80 3f 00
        E 0 80 31 00
        E 180 90 62 60
        E 0 90 56 60
        E 0 90 6e 60
        E 0 90 2f 60
        E 60 80 62 00
        E 0 80 56 00
        E 0 80 6e 00
        E 0 80 2f 00
        E 180 90 62 60
        E 0 90 56 60
        E 0 90 4a 60
        E 0 90 6e 60
        E 0 90 3e 60
        E 0 90 2f 60
        E 60 80 62 00
        E 0 80 56 00
        E 0 80 4a 00
        E 0 80 6e 00
        E 0 80 3e 00
        E 0 80 2f 00
        E 180 90 61 60
        E 0 90 63 60
        E 0 90 55 60
        E 0 90 57 60
        E 0 90 6f 60
        E 0 90 1a 60
        E 0 90 31 60
        E 60 80 61 00
        E 0 80 63 00
        E 0 80 55 00
        E 0 80 57 00
        E 0 80 6f 00
        E 0 80 1a 00
        E 0 80 31 00
        E 660 90 62 60
        E 0 90 56 60
        E 0 90 4a 60
        E 0 90 6e 60
        E 0 90 3e 60
        E 0 90 2f 60
        E 60 80 62 00
        E 0 80 56 00
        E 0 80 4a 00
        E 0 80 6e 00
        E 0 80 3e 00
        E 0 80 2f 00
        E 420 90 62 60
        E 0 90 56 60
        E 0 90 4a 60
        E 0 90 6e 60
        E 0 90 3e 60
        E 0 90 2f 60
        E 60 80 62 00
        E 0 80 56 00
        E 0 80 4a 00
        E 0 80 6e 00
        E 0 80 3e 00
        E 0 80 2f 00
        E 420 90 63 60
        E 0 90 57 60
        E 0 90 4b 60
        E 0 90 6f 60
        E 0 90 3f 60
        E 0 90 31 60
        E 60 80 63 00
        E 0 80 57 00
        E 0 80 4b 00
        E 0 80 6f 00
        E 0 80 3f 00
        E 0 80 31 00
        E 180 90 62 60
        E 0 90 56 60
        E 0 90 6e 60
        E 0 90 2f 60
        E 60 80 62 00
        E 0 80 56 00
        E 0 80 6e 00
        E 0 80 2f 00
        E 180 90 63 60
        E 0 90 57 60
        E 0 90 4b 60
        E 0 90 6f 60
        E 0 90 3f 60
        E 0 90 31 60
        E 60 80 63 00
        E 0 80 57 00
        E 0 80 4b 00
        E 0 80 6f 00
        E 0 80 3f 00
        E 0 80 31 00
        E 180 90 62 60
        E 0 90 56 60
        E 0 90 6e 60
        E 0 90 2f 60
        E 60 80 62 00
        E 0 80 56 00
        E 0 80 6e 00
        E 0 80 2f 00
        E 180 90 62 60
        E 0 90 56 60
        E 0 90 4a 60
        E 0 90 6e 60
        E 0 90 3e 60
        E 0 90 2f 60
        E 60 80 62 00
        E 0 80 56 00
        E 0 80 4a 00
        E 0 80 6e 00
        E 0 80 3e 00
        E 0 80 2f 00
        E 180 90 61 60
        E 0 90 63 60
        E 0 90 55 60
        E 0 90 57 60
        E 0 90 6f 60
        E 0 90 1a 60
        E 0 90 31 60
        E 60 80 61 00
        E 0 80 63 00
        E 0 80 55 00
        E 0 80 57 00
        E 0 80 6f 00
        E 0 80 1a 00
        E 0 80 31 00
        E 660 90 62 60
        E 0 90 56 60
        E 0 90 4a 60
        E 0 90 6e 60
        E 0 90 3e 60
        E 0 90 2f 60
        E 60 80 62 00
        E 0 80 56 00
        E 0 80 4a 00
        E 0 80 6e 00
        E 0 80 3e 00
        E 0 80 2f 00
        E 420 90 62 60
        E 0 90 56 60
        E 0 90 4a 60
        E 0 90 6e 60
        E 0 90 3e 60
        E 0 90 2f 60
        E 60 80 62 00
        E 0 80 56 00
        E 0 80 4a 00
        E 0 80 6e 00
        E 0 80 3e 00
        E 0 80 2f 00
        E 420 90 63 60
        E 0 90 57 60
        E 0 90 4b 60
        E 0 90 6f 60
        E 0 90 3f 60
        E 0 90 31 60
        E 60 80 63 00
        E 0 80 57 00
        E 0 80 4b 00
        E 0 80 6f 00
        E 0 80 3f 00
        E 0 80 31 00
        E 180 90 62 60
        E 0 90 56 60
        E 0 90 6e 60
        E 0 90 2f 60
        E 60 80 62 00
        E 0 80 56 00
        E 0 80 6e 00
        E 0 80 2f 00
        E 180 90 63 60
        E 0 90 57 60
        E 0 90 4b 60
        E 0 90 6f 60
        E 0 90 3f 60
        E 0 90 31 60
        E 60 80 63 00
        E 0 80 57 00
        E 0 80 4b 00
        E 0 80 6f 00
        E 0 80 3f 00
        E 0 80 31 00
        E 180 90 62 60
        E 0 90 56 60
        E 0 90 6e 60
        E 0 90 2f 60
        E 60 80 62 00
        E 0 80 56 00
        E 0 80 6e 00
        E 0 80 2f 00
        E 180 90 62 60
        E 0 90 56 60
        E 0 90 4a 60
        E 0 90 6e 60
        E 0 90 3e 60
        E 0 90 2f 60
        E 60 80 62 00
        E 0 80 56 00
        E 0 80 4a 00
        E 0 80 6e 00
        E 0 80 3e 00
        E 0 80 2f 00
        E 180 90 61 60
        E 0 90 63 60
        E 0 90 55 60
        E 0 90 57 60
        E 0 90 6f 60
        E 0 90 1a 60
        E 0 90 31 60
        E 60 80 61 00
        E 0 80 63 00
        E 0 80 55 00
        E 0 80 57 00
        E 0 80 6f 00
        E 0 80 1a 00
        E 0 80 31 00
        E 660 90 62 60
        E 0 90 56 60
        E 0 90 4a 60
        E 0 90 6e 60
        E 0 90 3e 60
        E 0 90 2f 60
        E 60 80 62 00
        E 0 80 56 00
        E 0 80 4a 00
        E 0 80 6e 00
        E 0 80 3e 00
        E 0 80 2f 00
        E 420 90 62 60
        E 0 90 56 60
        E 0 90 4a 60
        E 0 90 6e 60
        E 0 90 3e 60
        E 0 90 2f 60
        E 60 80 62 00
        E 0 80 56 00
        E 0 80 4a 00
        E 0 80 6e 00
        E 0 80 3e 00
        E 0 80 2f 00
        E 420 90 63 60
        E 0 90 57 60
        E 0 90 4b 60
        E 0 90 6f 60
        E 0 90 3f 60
        E 0 90 31 60
        E 60 80 63 00
        E 0 80 57 00
        E 0 80 4b 00
        E 0 80 6f 00
        E 0 80 3f 00
        E 0 80 31 00
        E 180 90 62 60
        E 0 90 56 60
        E 0 90 6e 60
        E 0 90 2f 60
        E 60 80 62 00
        E 0 80 56 00
        E 0 80 6e 00
        E 0 80 2f 00
        E 180 90 63 60
        E 0 90 57 60
        E 0 90 4b 60
        E 0 90 6f 60
        E 0 90 3f 60
        E 0 90 31 60
        E 60 80 63 00
        E 0 80 57 00
        E 0 80 4b 00
        E 0 80 6f 00
        E 0 80 3f 00
        E 0 80 31 00
        E 180 90 62 60
        E 0 90 56 60
        E 0 90 6e 60
        E 0 90 2f 60
        E 60 80 62 00
        E 0 80 56 00
        E 0 80 6e 00
        E 0 80 2f 00
        E 180 90 62 60
        E 0 90 56 60
        E 0 90 4a 60
        E 0 90 6e 60
        E 0 90 3e 60
        E 0 90 2f 60
        E 60 80 62 00
        E 0 80 56 00
        E 0 80 4a 00
        E 0 80 6e 00
        E 0 80 3e 00
        E 0 80 2f 00
        E 180 90 61 60
        E 0 90 63 60
        E 0 90 55 60
        E 0 90 57 60
        E 0 90 6f 60
        E 0 90 1a 60
        E 0 90 31 60
        E 60 80 61 00
        E 0 80 63 00
        E 0 80 55 00
        E 0 80 57 00
        E 0 80 6f 00
        E 0 80 1a 00
        E 0 80 31 00
        E 660 90 62 60
        E 0 90 56 60
        E 0 90 4a 60
        E 0 90 6e 60
        E 0 90 3e 60
        E 0 90 2f 60
        E 60 80 62 00
        E 0 80 56 00
        E 0 80 4a 00
        E 0 80 6e 00
        E 0 80 3e 00
        E 0 80 2f 00
        E 420 90 62 60
        E 0 90 56 60
        E 0 90 4a 60
        E 0 90 6e 60
        E 0 90 3e 60
        E 0 90 2f 60
        E 60 80 62 00
        E 0 80 56 00
        E 0 80 4a 00
        E 0 80 6e 00
        E 0 80 3e 00
        E 0 80 2f 00
        E 420 90 63 60
        E 0 90 57 60
        E 0 90 4b 60
        E 0 90 6f 60
        E 0 90 3f 60
        E 0 90 31 60
        E 60 80 63 00
        E 0 80 57 00
        E 0 80 4b 00
        E 0 80 6f 00
        E 0 80 3f 00
        E 0 80 31 00
        E 180 90 62 60
        E 0 90 56 60
        E 0 90 6e 60
        E 0 90 2f 60
        E 60 80 62 00
        E 0 80 56 00
        E 0 80 6e 00
        E 0 80 2f 00
        E 180 90 63 60
        E 0 90 57 60
        E 0 90 4b 60
        E 0 90 6f 60
        E 0 90 3f 60
        E 0 90 31 60
        E 60 80 63 00
        E 0 80 57 00
        E 0 80 4b 00
        E 0 80 6f 00
        E 0 80 3f 00
        E 0 80 31 00
        E 180 90 62 60
        E 0 90 56 60
        E 0 90 6e 60
        E 0 90 2f 60
        E 60 80 62 00
        E 0 80 56 00
        E 0 80 6e 00
        E 0 80 2f 00
        E 180 90 62 60
        E 0 90 56 60
        E 0 90 4a 60
        E 0 90 6e 60
        E 0 90 3e 60
        E 0 90 2f 60
        E 60 80 62 00
        E 0 80 56 00
        E 0 80 4a 00
        E 0 80 6e 00
        E 0 80 3e 00
        E 0 80 2f 00
        E 180 90 61 60
        E 0 90 63 60
        E 0 90 55 60
        E 0 90 57 60
        E 0 90 6f 60
        E 0 90 1a 60
        E 0 90 31 60
        E 60 80 61 00
        E 0 80 63 00
        E 0 80 55 00
        E 0 80 57 00
        E 0 80 6f 00
        E 0 80 1a 00
        E 0 80 31 00
        E 660 90 62 60
        E 0 90 56 60
        E 0 90 4a 60
        E 0 90 6e 60
        E 0 90 3e 60
        E 0 90 2f 60
        E 60 80 62 00
        E 0 80 56 00
        E 0 80 4a 00
        E 0 80 6e 00
        E 0 80 3e 00
        E 0 80 2f 00
        E 420 90 62 60
        E 0 90 56 60
        E 0 90 4a 60
        E 0 90 6e 60
        E 0 90 3e 60
        E 0 90 2f 60
        E 60 80 62 00
        E 0 80 56 00
        E 0 80 4a 00
        E 0 80 6e 00
        E 0 80 3e 00
        E 0 80 2f 00
        E 420 90 63 60
        E 0 90 57 60
        E 0 90 4b 60
        E 0 90 6f 60
        E 0 90 3f 60
        E 0 90 31 60
        E 60 80 63 00
        E 0 80 57 00
        E 0 80 4b 00
        E 0 80 6f 00
        E 0 80 3f 00
        E 0 80 31 00
        E 180 90 62 60
        E 0 90 56 60
        E 0 90 6e 60
        E 0 90 2f 60
        E 60 80 62 00
        E 0 80 56 00
        E 0 80 6e 00
        E 0 80 2f 00
        E 180 90 63 60
        E 0 90 57 60
        E 0 90 4b 60
        E 0 90 6f 60
        E 0 90 3f 60
        E 0 90 31 60
        E 60 80 63 00
        E 0 80 57 00
        E 0 80 4b 00
        E 0 80 6f 00
        E 0 80 3f 00
        E 0 80 31 00
        E 180 90 62 60
        E 0 90 56 60
        E 0 90 6e 60
        E 0 90 2f 60
        E 60 80 62 00
        E 0 80 56 00
        E 0 80 6e 00
        E 0 80 2f 00
        E 180 90 62 60
        E 0 90 56 60
        E 0 90 4a 60
        E 0 90 6e 60
        E 0 90 3e 60
        E 0 90 2f 60
        E 60 80 62 00
        E 0 80 56 00
        E 0 80 4a 00
        E 0 80 6e 00
        E 0 80 3e 00
        E 0 80 2f 00
        E 180 90 61 60
        E 0 90 63 60
        E 0 90 55 60
        E 0 90 57 60
        E 0 90 6f 60
        E 0 90 1a 60
        E 0 90 31 60
        E 60 80 61 00
        E 0 80 63 00
        E 0 80 55 00
        E 0 80 57 00
        E 0 80 6f 00
        E 0 80 1a 00
        E 0 80 31 00
        <X 480 0
          /wFbaWRsZV9yZWFsdGltZV0=
        >
        E 9066 b0 7b 00
        GUID {99C52F88-C54B-4CCD-B038-A5C950AC8E6E}
        IGNTEMPO 0 120.00000000 4 4
        SRCCOLOR 1121
        VELLANE 132 38 60
        COLORMAP "C:\Users\Tanja\works\REAPER (x64)\Data\color_maps\rockband_drums.png"
        TEXTSTRINGFILE "Text Events List.txt"
        CFGEDITVIEW -125775.634916 5.823703 0 11 0 0 0
        CFGEDIT 1 1 0 0 0 1 1 1 1 1 1 0.12500000 -8 -8 1370 736 1 0 1 2 0.00000000 0 0 0 0 0.500000 1 0 1.000000 64
        KEYSNAP 0 0 "102034050607" 0 "Major"
        EVTFILTER 0 -1 -1 -1 -1 0 1 0 0 -1.00000000 -1.00000000
      >
    >
  >
  <TRACK '{70C3FE4D-3BC3-4146-95C4-8AC455A2D0F5}'
    NAME "PART BASS"
    PEAKCOL 16777471
    BEAT -1
    AUTOMODE 0
    VOLPAN 1.00000000000000 0.00000000000000 -1.00000000000000 -1.00000000000000 1.00000000000000
    MUTESOLO 0 0 0
    IPHASE 0
    ISBUS 0 0
    BUSCOMP 1 0
    SHOWINMIX 1 0.666700 0.500000 1 0.500000 -1 -1 -1
    FREEMODE 0
    SEL 0
    REC 0 4096 1 0 0 0 0
    TRACKHEIGHT 0 0
    INQ 0 0 0 0.5000000000 100 0 0 100
    NCHAN 2
    FX 1
    TRACKID {70C3FE4D-3BC3-4146-95C4-8AC455A2D0F5}
    PERF 0
    MIDIOUT -1
    <MIDINOTENAMES
      0 96 "EXPERT Green"
      0 97 "EXPERT Red"
      0 98 "EXPERT Yellow"
      0 99 "EXPERT Blue"
      0 100 "EXPERT Orange"
      0 84 "HARD Green"
      0 85 "HARD Red"
      0 86 "HARD Yellow"
      0 87 "HARD Blue"
      0 88 "HARD Orange"
      0 91 "----"
      0 116 "OVERDRIVE"
      0 40 "Left Hand Lowest"
      0 59 "Left Hand Highest"
      0 58 "-"
      0 57 "-"
      0 56 "-"
      0 55 "-"
      0 54 "-"
      0 53 "-"
      0 52 "-"
      0 51 "-"
      0 50 "-"
      0 49 "-"
      0 47 "-"
      0 48 "-"
      0 46 "-"
      0 45 "-"
      0 44 "-"
      0 43 "-"
      0 42 "-"
      0 41 "-"
      0 111 "----"
      0 72 "MEDIUM Green"
      0 73 "MEDIUM Red"
      0 74 "MEDIUM Yellow"
      0 75 "MEDIUM Blue"
      0 76 "MEDIUM Orange"
      0 60 "EASY Green"
      0 61 "EASY Red"
      0 62 "EASY Yellow"
      0 63 "EASY Blue"
      0 64 "EASY Orange"
      0 68 "----"
      0 80 "----"
      0 102 "Force HOPO Off"
      0 101 "Force HOPO On"
      0 120 "BRE (use all 5)"
      0 121 "BRE"
      0 122 "BRE"
      0 123 "BRE"
      0 124 "BRE"
      0 119 "----"
      0 90 "Force HOPO Off"
      0 89 "Force HOPO On"
      0 127 "Trill Marker"
      0 125 "----"
      0 103 "Solo Marker"
      0 126 "Strum Marker"
    >
    MAINSEND 1 0
    <FXCHAIN
      WNDRECT 2052 326 878 585
      SHOW 0
      LASTSEL 1
      DOCKED 0
      BYPASS 1 0
      <VST "VSTi: ReaSynth (Cockos)" "reasynth.dll" 0 ""
        eXNlcu9e7f4AAAAAAgAAAAEAAAAAAAAAAgAAAAAAAAA4AAAAAAAAAA==
        AAAAAO++rd4N8K3eAAAAAAAAAAAAAAAAAAAAADm0SD59y9s+tbSxOQ==
        AAAAALbz/T5VpCs6AAAAAAAAAAAAAAAAAAA=
      >
      FLOATPOS 0 0 0 0
      FXID {D4EC3C58-478E-4D1F-A0FC-2252BD344989}
      WAK 0
      BYPASS 0 0
      <VST "VSTi: RBN Preview (RBN)" "rbprev_vst64_beta.dll" 0 ""
        dnBicu5e7f4AAAAAAgAAAAEAAAAAAAAAAgAAAAAAAAAEAAAAAQAAAA==
        AAAAAAMAqgAAAAAAAAA=
      >
      FLOATPOS 32 32 659 497
      FXID {72D22271-4F4F-4081-90C4-66415E7AEC47}
      WAK 0
    >
    <ITEM
      POSITION 0.00000000000000
      SNAPOFFS 0.00000000000000
      LENGTH 266.94347893916262
      LOOP 0
      ALLTAKES 0
      SEL 0
      FADEIN 1 0.000000 0.000000 1 0
      FADEOUT 1 0.000000 0.000000 1 0
      MUTE 0
      IGUID {A1B24BBF-93B7-476C-BC6D-33F5621C633F}
      IID 8
      NAME "PART BASS"
      VOLPAN 1.000000 0.000000 1.000000 -1.000000
      SOFFS 0.00000000000000 0.00000000000000
      PLAYRATE 1.00000000000000 1 0.00000000000000 -65536
      CHANMODE 0
      GUID {344A7487-35C3-41F9-8B1E-12A4F3D7F336}
      <SOURCE MIDI
        HASDATA 1 480 QN
        POOLEDEVTS {1C3AE93B-B38F-4E67-8803-DA73AD908EDA}
        <X 0 0
          /wNQQVJUIEJBU1M=
        >
        <X 3840 0
          /wFbaWRsZV0=
        >
        <X 69120 0
          /wFbbWVsbG93XQ==
        >
        E 0 90 3e 60
        E 0 90 4a 60
        E 0 90 56 60
        E 0 90 62 60
        E 720 80 3e 00
        E 0 80 4a 00
        E 240 80 56 00
        E 0 80 62 00
        E 240 90 49 60
        E 0 90 55 60
        E 0 90 61 60
        E 120 80 49 00
        E 0 80 55 00
        E 0 80 61 00
        E 120 90 3d 60
        E 0 90 49 60
        E 0 90 55 60
        E 0 90 61 60
        E 720 80 3d 00
        E 0 80 49 00
        E 240 80 55 00
        E 0 80 61 00
        E 240 90 48 60
        E 0 90 54 60
        E 0 90 60 60
        E 120 80 48 00
        E 0 80 54 00
        E 0 80 60 00
        E 120 90 3c 60
        E 0 90 48 60
        E 0 90 54 60
        E 0 90 60 60
        E 720 80 3c 00
        E 0 80 48 00
        E 240 80 54 00
        E 0 80 60 00
        E 240 90 4b 60
        E 0 90 57 60
        E 0 90 63 60
        E 60 80 4b 00
        E 0 80 57 00
        E 0 80 63 00
        E 180 90 4b 60
        E 0 90 57 60
        E 0 90 63 60
        E 60 80 4b 00
        E 0 80 57 00
        E 0 80 63 00
        E 180 90 57 60
        E 0 90 63 60
        E 60 80 57 00
        E 0 80 63 00
        E 180 90 3e 60
        E 0 90 4a 60
        E 0 90 56 60
        E 0 90 62 60
        E 120 80 3e 00
        E 0 80 4a 00
        E 0 80 56 00
        E 0 80 62 00
        E 360 90 4b 60
        E 0 90 57 60
        E 0 90 63 60
        E 60 80 4b 00
        E 0 80 57 00
        E 0 80 63 00
        E 420 90 3e 60
        E 0 90 4a 60
        E 0 90 56 60
        E 0 90 62 60
        E 720 80 3e 00
        E 0 80 4a 00
        E 240 80 56 00
        E 0 80 62 00
        E 240 90 49 60
        E 0 90 55 60
        E 0 90 61 60
        E 120 80 49 00
        E 0 80 55 00
        E 0 80 61 00
        E 120 90 3d 60
        E 0 90 49 60
        E 0 90 55 60
        E 0 90 61 60
        E 720 80 3d 00
        E 0 80 49 00
        E 240 80 55 00
        E 0 80 61 00
        E 240 90 48 60
        E 0 90 54 60
        E 0 90 60 60
        E 120 80 48 00
        E 0 80 54 00
        E 0 80 60 00
        E 120 90 3c 60
        E 0 90 48 60
        E 0 90 54 60
        E 0 90 60 60
        E 720 80 3c 00
        E 0 80 48 00
        E 240 80 54 00
        E 0 80 60 00
        E 240 90 4b 60
        E 0 90 57 60
        E 0 90 63 60
        E 60 80 4b 00
        E 0 80 57 00
        E 0 80 63 00
        E 180 90 4b 60
        E 0 90 57 60
        E 0 90 63 60
        E 60 80 4b 00
        E 0 80 57 00
        E 0 80 63 00
        E 180 90 57 60
        E 0 90 63 60
        E 60 80 57 00
        E 0 80 63 00
        E 180 90 3e 60
        E 0 90 4a 60
        E 0 90 56 60
        E 0 90 62 60
        E 119 80 3e 00
        E 0 80 4a 00
        E 0 80 56 00
        E 0 80 62 00
        E 361 90 4b 60
        E 0 90 57 60
        E 0 90 63 60
        E 60 80 4b 00
        E 0 80 57 00
        E 0 80 63 00
        E 420 90 3e 60
        E 0 90 4a 60
        E 0 90 56 60
        E 0 90 62 60
        E 720 80 3e 00
        E 0 80 4a 00
        E 240 80 56 00
        E 0 80 62 00
        E 240 90 49 60
        E 0 90 55 60
        E 0 90 61 60
        E 120 80 49 00
        E 0 80 55 00
        E 0 80 61 00
        E 120 90 3d 60
        E 0 90 49 60
        E 0 90 55 60
        E 0 90 61 60
        E 720 80 3d 00
        E 0 80 49 00
        E 240 80 55 00
        E 0 80 61 00
        E 240 90 48 60
        E 0 90 54 60
        E 0 90 60 60
        E 120 80 48 00
        E 0 80 54 00
        E 0 80 60 00
        E 120 90 3c 60
        E 0 90 48 60
        E 0 90 54 60
        E 0 90 60 60
        E 720 80 3c 00
        E 0 80 48 00
        E 240 80 54 00
        E 0 80 60 00
        E 240 90 4b 60
        E 0 90 57 60
        E 0 90 63 60
        E 60 80 4b 00
        E 0 80 57 00
        E 0 80 63 00
        E 121 90 74 61
        E 59 90 4b 60
        E 0 90 57 60
        E 0 90 63 60
        E 60 80 4b 00
        E 0 80 57 00
        E 0 80 63 00
        E 180 90 57 60
        E 0 90 63 60
        E 60 80 57 00
        E 0 80 63 00
        E 180 90 3e 60
        E 0 90 4a 60
        E 0 90 56 60
        E 0 90 62 60
        E 119 80 3e 00
        E 0 80 4a 00
        E 0 80 56 00
        E 0 80 62 00
        E 361 90 4b 60
        E 0 90 57 60
        E 0 90 63 60
        E 60 80 4b 00
        E 0 80 57 00
        E 0 80 63 00
        E 420 90 3e 60
        E 0 90 4a 60
        E 0 90 56 60
        E 0 90 62 60
        E 720 80 3e 00
        E 0 80 4a 00
        E 240 80 56 00
        E 0 80 62 00
        E 240 90 49 60
        E 0 90 55 60
        E 0 90 61 60
        E 120 80 49 00
        E 0 80 55 00
        E 0 80 61 00
        E 120 90 3d 60
        E 0 90 49 60
        E 0 90 55 60
        E 0 90 61 60
        E 720 80 3d 00
        E 0 80 49 00
        E 240 80 55 00
        E 0 80 61 00
        E 240 90 48 60
        E 0 90 54 60
        E 0 90 60 60
        E 120 80 48 00
        E 0 80 54 00
        E 0 80 60 00
        E 120 90 3c 60
        E 0 90 48 60
        E 0 90 54 60
        E 0 90 60 60
        E 489 80 74 00
        E 471 80 3c 00
        E 0 80 48 00
        E 0 80 54 00
        E 0 80 60 00
        E 1920 90 3e 60
        E 0 90 4a 60
        E 0 90 56 60
        E 0 90 62 60
        E 960 80 3e 00
        E 0 80 4a 00
        E 0 80 56 00
        E 0 80 62 00
        E 240 90 58 60
        E 0 90 64 60
        E 120 80 58 00
        E 0 80 64 00
        E 120 90 4a 60
        E 0 90 56 60
        E 0 90 62 60
        E 120 80 4a 00
        E 0 80 56 00
        E 0 80 62 00
        E 360 90 3d 60
        E 0 90 49 60
        E 0 90 55 60
        E 0 90 61 60
        E 120 80 3d 00
        E 0 80 49 00
        E 0 80 55 00
        E 0 80 61 00
        E 360 90 4a 60
        E 0 90 56 60
        E 0 90 62 60
        E 120 80 4a 00
        E 0 80 56 00
        E 0 80 62 00
        E 360 90 3c 60
        E 0 90 48 60
        E 0 90 54 60
        E 0 90 60 60
        E 960 80 3c 00
        E 0 80 48 00
        E 0 80 54 00
        E 0 80 60 00
        E 481 90 3c 60
        E 0 90 48 60
        E 0 90 54 60
        E 0 90 60 60
        E 60 80 3c 00
        E 0 80 48 00
        E 0 80 54 00
        E 0 80 60 00
        E 180 90 48 60
        E 0 90 54 60
        E 0 90 60 60
        E 60 80 48 00
        E 0 80 54 00
        E 0 80 60 00
        E 419 90 48 60
        E 0 90 54 60
        E 0 90 60 60
        E 60 80 48 00
        E 0 80 54 00
        E 0 80 60 00
        E 180 90 48 60
        E 0 90 54 60
        E 0 90 60 60
        E 60 80 48 00
        E 0 80 54 00
        E 0 80 60 00
        E 420 90 3e 60
        E 0 90 4a 60
        E 0 90 56 60
        E 0 90 62 60
        E 960 80 3e 00
        E 0 80 4a 00
        E 0 80 56 00
        E 0 80 62 00
        E 240 90 58 60
        E 0 90 64 60
        E 120 80 58 00
        E 0 80 64 00
        E 120 90 4a 60
        E 0 90 56 60
        E 0 90 62 60
        E 120 80 4a 00
        E 0 80 56 00
        E 0 80 62 00
        E 360 90 3d 60
        E 0 90 49 60
        E 0 90 55 60
        E 0 90 61 60
        E 120 80 3d 00
        E 0 80 49 00
        E 0 80 55 00
        E 0 80 61 00
        E 360 90 4a 60
        E 0 90 56 60
        E 0 90 62 60
        E 120 80 4a 00
        E 0 80 56 00
        E 0 80 62 00
        E 360 90 3c 60
        E 0 90 48 60
        E 0 90 54 60
        E 0 90 60 60
        E 960 80 3c 00
        E 0 80 48 00
        E 0 80 54 00
        E 0 80 60 00
        E 481 90 3c 60
        E 0 90 48 60
        E 0 90 54 60
        E 0 90 60 60
        E 60 80 3c 00
        E 0 80 48 00
        E 0 80 54 00
        E 0 80 60 00
        E 180 90 48 60
        E 0 90 54 60
        E 0 90 60 60
        E 60 80 48 00
        E 0 80 54 00
        E 0 80 60 00
        E 419 90 48 60
        E 0 90 54 60
        E 0 90 60 60
        E 60 80 48 00
        E 0 80 54 00
        E 0 80 60 00
        E 180 90 48 60
        E 0 90 54 60
        E 0 90 60 60
        E 60 80 48 00
        E 0 80 54 00
        E 0 80 60 00
        E 420 90 3f 60
        E 0 90 4b 60
        E 0 90 57 60
        E 0 90 63 60
        E 0 90 74 61
        E 960 80 3f 00
        E 0 80 4b 00
        E 240 80 57 00
        E 0 80 63 00
        E 240 90 3e 60
        E 0 90 4a 60
        E 0 90 56 60
        E 0 90 62 60
        E 960 80 3e 00
        E 0 80 4a 00
        E 240 80 56 00
        E 0 80 62 00
        E 240 90 3c 60
        E 0 90 48 60
        E 0 90 54 60
        E 0 90 60 60
        E 720 80 3c 00
        E 0 80 48 00
        E 240 80 54 00
        E 0 80 60 00
        E 240 90 48 60
        E 0 90 54 60
        E 0 90 60 60
        E 60 80 48 00
        E 0 80 54 00
        E 0 80 60 00
        E 180 90 3c 60
        E 0 90 48 60
        E 0 90 54 60
        E 0 90 60 60
        E 480 80 3c 00
        E 0 80 48 00
        E 0 80 54 00
        E 0 80 60 00
        E 68 80 74 00
        E 412 90 48 60
        E 0 90 54 60
        E 0 90 60 60
        E 120 80 48 00
        E 0 80 54 00
        E 0 80 60 00
        E 360 90 3f 60
        E 0 90 4b 60
        E 0 90 57 60
        E 0 90 63 60
        E 960 80 3f 00
        E 0 80 4b 00
        E 0 80 57 00
        E 0 80 63 00
        E 240 90 55 60
        E 0 90 61 60
        E 60 80 55 00
        E 0 80 61 00
        E 180 90 3e 60
        E 0 90 4a 60
        E 0 90 56 60
        E 0 90 62 60
        E 720 80 3e 00
        E 0 80 4a 00
        E 240 80 56 00
        E 0 80 62 00
        E 240 90 48 60
        E 0 90 54 60
        E 0 90 60 60
        E 60 80 48 00
        E 0 80 54 00
        E 0 80 60 00
        E 180 90 3c 60
        E 0 90 48 60
        E 0 90 54 60
        E 0 90 60 60
        E 960 80 3c 00
        E 0 80 48 00
        E 240 80 54 00
        E 0 80 60 00
        E 240 90 3c 60
        E 0 90 48 60
        E 0 90 54 60
        E 0 90 60 60
        E 60 80 3c 00
        E 0 80 48 00
        E 0 80 54 00
        E 0 80 60 00
        E 180 90 48 60
        E 0 90 54 60
        E 0 90 60 60
        E 60 80 48 00
        E 0 80 54 00
        E 0 80 60 00
        E 420 90 48 60
        E 0 90 54 60
        E 0 90 60 60
        E 60 80 48 00
        E 0 80 54 00
        E 0 80 60 00
        E 180 90 3c 60
        E 0 90 48 60
        E 0 90 54 60
        E 0 90 60 60
        E 480 80 3c 00
        E 0 80 48 00
        E 0 80 54 00
        E 0 80 60 00
        <X 480 0
          /wFbaWRsZV0=
        >
        <X 22080 0
          /wFbbWVsbG93XQ==
        >
        E 480 90 3f 60
        E 0 90 4b 60
        E 0 90 57 60
        E 0 90 63 60
        E 1920 80 3f 00
        E 0 80 4b 00
        E 0 80 57 00
        E 0 80 63 00
        E 960 90 3d 60
        E 0 90 49 60
        E 0 90 55 60
        E 0 90 61 60
        E 1860 80 3d 00
        E 0 80 49 00
        E 0 80 55 00
        E 0 80 61 00
        E 1020 90 3c 60
        E 0 90 48 60
        E 0 90 54 60
        E 0 90 60 60
        E 1920 80 3c 00
        E 0 80 48 00
        E 0 80 54 00
        E 0 80 60 00
        E 960 90 3e 60
        E 0 90 4a 60
        E 0 90 56 60
        E 0 90 62 60
        E 1200 80 3e 00
        E 0 80 4a 00
        E 240 80 56 00
        E 0 80 62 00
        E 240 90 48 60
        E 0 90 54 60
        E 0 90 60 60
        E 60 80 48 00
        E 0 80 54 00
        E 0 80 60 00
        E 180 90 3c 60
        E 0 90 48 60
        E 0 90 54 60
        E 0 90 60 60
        E 120 80 3c 00
        E 0 80 48 00
        E 0 80 54 00
        E 0 80 60 00
        E 360 90 48 60
        E 0 90 54 60
        E 0 90 60 60
        E 120 80 48 00
        E 0 80 54 00
        E 0 80 60 00
        E 360 90 3f 60
        E 0 90 4b 60
        E 0 90 57 60
        E 0 90 63 60
        E 1440 80 3f 00
        E 0 80 4b 00
        E 0 80 57 00
        E 0 80 63 00
        E 480 90 3c 60
        E 0 90 48 60
        E 0 90 54 60
        E 0 90 60 60
        E 60 80 3c 00
        E 0 80 48 00
        E 0 80 54 00
        E 0 80 60 00
        E 180 90 57 60
        E 0 90 63 60
        E 120 80 57 00
        E 0 80 63 00
        E 600 90 3e 60
        E 0 90 4a 60
        E 0 90 56 60
        E 0 90 62 60
        E 1440 80 3e 00
        E 0 80 4a 00
        E 0 80 56 00
        E 0 80 62 00
        e 343 90 74 61
        E 137 90 3c 60
        E 0 90 48 60
        E 0 90 54 60
        E 0 90 60 60
        E 120 80 3c 00
        E 0 80 48 00
        E 0 80 54 00
        E 0 80 60 00
        E 360 90 4a 60
        E 0 90 56 60
        E 0 90 62 60
        E 120 80 4a 00
        E 0 80 56 00
        E 0 80 62 00
        E 360 90 3d 60
        E 0 90 49 60
        E 0 90 55 60
        E 0 90 61 60
        E 1440 80 3d 00
        E 0 80 49 00
        E 0 80 55 00
        E 0 80 61 00
        E 480 90 40 60
        E 0 90 4c 60
        E 0 90 58 60
        E 0 90 64 60
        E 120 80 40 00
        E 0 80 4c 00
        E 0 80 58 00
        E 0 80 64 00
        E 360 90 49 60
        E 0 90 55 60
        E 0 90 61 60
        E 120 80 49 00
        E 0 80 55 00
        E 0 80 61 00
        E 360 90 3c 60
        E 0 90 48 60
        E 0 90 54 60
        E 0 90 60 60
        E 1200 80 3c 00
        E 0 80 48 00
        E 0 80 54 00
        E 0 80 60 00
        e 414 80 74 00
        E 66 90 48 60
        E 0 90 54 60
        E 0 90 60 60
        E 60 80 48 00
        E 0 80 54 00
        E 0 80 60 00
        E 180 90 3c 60
        E 0 90 48 60
        E 0 90 54 60
        E 0 90 60 60
        E 60 80 3c 00
        E 0 80 48 00
        E 0 80 54 00
        E 0 80 60 00
        E 420 90 48 60
        E 0 90 54 60
        E 0 90 60 60
        E 60 80 48 00
        E 0 80 54 00
        E 0 80 60 00
        E 420 90 3e 60
        E 0 90 4a 60
        E 0 90 56 60
        E 0 90 62 60
        E 720 80 3e 00
        E 0 80 4a 00
        E 240 80 56 00
        E 0 80 62 00
        E 240 90 49 60
        E 0 90 55 60
        E 0 90 61 60
        E 120 80 49 00
        E 0 80 55 00
        E 0 80 61 00
        E 120 90 3d 60
        E 0 90 49 60
        E 0 90 55 60
        E 0 90 61 60
        E 720 80 3d 00
        E 0 80 49 00
        E 240 80 55 00
        E 0 80 61 00
        E 240 90 48 60
        E 0 90 54 60
        E 0 90 60 60
        E 120 80 48 00
        E 0 80 54 00
        E 0 80 60 00
        E 120 90 3c 60
        E 0 90 48 60
        E 0 90 54 60
        E 0 90 60 60
        E 720 80 3c 00
        E 0 80 48 00
        E 240 80 54 00
        E 0 80 60 00
        E 240 90 4b 60
        E 0 90 57 60
        E 0 90 63 60
        E 60 80 4b 00
        E 0 80 57 00
        E 0 80 63 00
        E 180 90 4b 60
        E 0 90 57 60
        E 0 90 63 60
        E 60 80 4b 00
        E 0 80 57 00
        E 0 80 63 00
        E 180 90 57 60
        E 0 90 63 60
        E 60 80 57 00
        E 0 80 63 00
        E 180 90 3e 60
        E 0 90 4a 60
        E 0 90 56 60
        E 0 90 62 60
        E 119 80 3e 00
        E 0 80 4a 00
        E 0 80 56 00
        E 0 80 62 00
        E 361 90 4b 60
        E 0 90 57 60
        E 0 90 63 60
        E 60 80 4b 00
        E 0 80 57 00
        E 0 80 63 00
        E 420 90 3e 60
        E 0 90 4a 60
        E 0 90 56 60
        E 0 90 62 60
        E 720 80 3e 00
        E 0 80 4a 00
        E 240 80 56 00
        E 0 80 62 00
        E 240 90 49 60
        E 0 90 55 60
        E 0 90 61 60
        E 120 80 49 00
        E 0 80 55 00
        E 0 80 61 00
        E 120 90 3d 60
        E 0 90 49 60
        E 0 90 55 60
        E 0 90 61 60
        E 720 80 3d 00
        E 0 80 49 00
        E 240 80 55 00
        E 0 80 61 00
        E 240 90 48 60
        E 0 90 54 60
        E 0 90 60 60
        E 120 80 48 00
        E 0 80 54 00
        E 0 80 60 00
        E 120 90 3c 60
        E 0 90 48 60
        E 0 90 54 60
        E 0 90 60 60
        E 720 80 3c 00
        E 0 80 48 00
        E 240 80 54 00
        E 0 80 60 00
        E 240 90 4b 60
        E 0 90 57 60
        E 0 90 63 60
        E 60 80 4b 00
        E 0 80 57 00
        E 0 80 63 00
        E 180 90 4b 60
        E 0 90 57 60
        E 0 90 63 60
        E 60 80 4b 00
        E 0 80 57 00
        E 0 80 63 00
        E 180 90 57 60
        E 0 90 63 60
        E 60 80 57 00
        E 0 80 63 00
        E 180 90 3e 60
        E 0 90 4a 60
        E 0 90 56 60
        E 0 90 62 60
        E 119 80 3e 00
        E 0 80 4a 00
        E 0 80 56 00
        E 0 80 62 00
        E 361 90 4b 60
        E 0 90 57 60
        E 0 90 63 60
        E 60 80 4b 00
        E 0 80 57 00
        E 0 80 63 00
        E 420 90 3e 60
        E 0 90 4a 60
        E 0 90 56 60
        E 0 90 62 60
        E 720 80 3e 00
        E 0 80 4a 00
        E 240 80 56 00
        E 0 80 62 00
        E 240 90 49 60
        E 0 90 55 60
        E 0 90 61 60
        E 120 80 49 00
        E 0 80 55 00
        E 0 80 61 00
        E 120 90 3d 60
        E 0 90 49 60
        E 0 90 55 60
        E 0 90 61 60
        E 720 80 3d 00
        E 0 80 49 00
        E 240 80 55 00
        E 0 80 61 00
        E 240 90 48 60
        E 0 90 54 60
        E 0 90 60 60
        E 120 80 48 00
        E 0 80 54 00
        E 0 80 60 00
        E 120 90 3c 60
        E 0 90 48 60
        E 0 90 54 60
        E 0 90 60 60
        E 720 80 3c 00
        E 0 80 48 00
        E 240 80 54 00
        E 0 80 60 00
        E 240 90 4b 60
        E 0 90 57 60
        E 0 90 63 60
        E 60 80 4b 00
        E 0 80 57 00
        E 0 80 63 00
        E 180 90 4b 60
        E 0 90 57 60
        E 0 90 63 60
        E 60 80 4b 00
        E 0 80 57 00
        E 0 80 63 00
        E 180 90 57 60
        E 0 90 63 60
        E 60 80 57 00
        E 0 80 63 00
        E 180 90 3e 60
        E 0 90 4a 60
        E 0 90 56 60
        E 0 90 62 60
        E 119 80 3e 00
        E 0 80 4a 00
        E 0 80 56 00
        E 0 80 62 00
        E 361 90 4b 60
        E 0 90 57 60
        E 0 90 63 60
        E 60 80 4b 00
        E 0 80 57 00
        E 0 80 63 00
        E 420 90 3e 60
        E 0 90 4a 60
        E 0 90 56 60
        E 0 90 62 60
        E 720 80 3e 00
        E 0 80 4a 00
        E 240 80 56 00
        E 0 80 62 00
        E 240 90 49 60
        E 0 90 55 60
        E 0 90 61 60
        E 120 80 49 00
        E 0 80 55 00
        E 0 80 61 00
        E 120 90 3d 60
        E 0 90 49 60
        E 0 90 55 60
        E 0 90 61 60
        E 720 80 3d 00
        E 0 80 49 00
        E 240 80 55 00
        E 0 80 61 00
        E 240 90 48 60
        E 0 90 54 60
        E 0 90 60 60
        E 120 80 48 00
        E 0 80 54 00
        E 0 80 60 00
        E 120 90 3c 60
        E 0 90 48 60
        E 0 90 54 60
        E 0 90 60 60
        E 960 80 3c 00
        E 0 80 48 00
        E 0 80 54 00
        E 0 80 60 00
        E 1920 90 3e 60
        E 0 90 4a 60
        E 0 90 56 60
        E 0 90 62 60
        E 0 90 74 61
        E 960 80 3e 00
        E 0 80 4a 00
        E 0 80 56 00
        E 0 80 62 00
        E 240 90 58 60
        E 0 90 64 60
        E 120 80 58 00
        E 0 80 64 00
        E 120 90 4a 60
        E 0 90 56 60
        E 0 90 62 60
        E 120 80 4a 00
        E 0 80 56 00
        E 0 80 62 00
        E 360 90 3d 60
        E 0 90 49 60
        E 0 90 55 60
        E 0 90 61 60
        E 120 80 3d 00
        E 0 80 49 00
        E 0 80 55 00
        E 0 80 61 00
        E 360 90 4a 60
        E 0 90 56 60
        E 0 90 62 60
        E 120 80 4a 00
        E 0 80 56 00
        E 0 80 62 00
        E 360 90 3c 60
        E 0 90 48 60
        E 0 90 54 60
        E 0 90 60 60
        E 960 80 3c 00
        E 0 80 48 00
        E 0 80 54 00
        E 0 80 60 00
        E 480 90 3c 60
        E 0 90 48 60
        E 0 90 54 60
        E 0 90 60 60
        E 60 80 3c 00
        E 0 80 48 00
        E 0 80 54 00
        E 0 80 60 00
        E 180 90 48 60
        E 0 90 54 60
        E 0 90 60 60
        E 60 80 48 00
        E 0 80 54 00
        E 0 80 60 00
        E 180 80 74 00
        E 240 90 48 60
        E 0 90 54 60
        E 0 90 60 60
        E 60 80 48 00
        E 0 80 54 00
        E 0 80 60 00
        E 180 90 48 60
        E 0 90 54 60
        E 0 90 60 60
        E 60 80 48 00
        E 0 80 54 00
        E 0 80 60 00
        E 420 90 3e 60
        E 0 90 4a 60
        E 0 90 56 60
        E 0 90 62 60
        E 960 80 3e 00
        E 0 80 4a 00
        E 0 80 56 00
        E 0 80 62 00
        E 240 90 58 60
        E 0 90 64 60
        E 120 80 58 00
        E 0 80 64 00
        E 120 90 4a 60
        E 0 90 56 60
        E 0 90 62 60
        E 120 80 4a 00
        E 0 80 56 00
        E 0 80 62 00
        E 360 90 3d 60
        E 0 90 49 60
        E 0 90 55 60
        E 0 90 61 60
        E 120 80 3d 00
        E 0 80 49 00
        E 0 80 55 00
        E 0 80 61 00
        E 360 90 4a 60
        E 0 90 56 60
        E 0 90 62 60
        E 120 80 4a 00
        E 0 80 56 00
        E 0 80 62 00
        E 360 90 3c 60
        E 0 90 48 60
        E 0 90 54 60
        E 0 90 60 60
        E 960 80 3c 00
        E 0 80 48 00
        E 0 80 54 00
        E 0 80 60 00
        E 481 90 3c 60
        E 0 90 48 60
        E 0 90 54 60
        E 0 90 60 60
        E 60 80 3c 00
        E 0 80 48 00
        E 0 80 54 00
        E 0 80 60 00
        E 180 90 48 60
        E 0 90 54 60
        E 0 90 60 60
        E 60 80 48 00
        E 0 80 54 00
        E 0 80 60 00
        E 419 90 48 60
        E 0 90 54 60
        E 0 90 60 60
        E 60 80 48 00
        E 0 80 54 00
        E 0 80 60 00
        E 180 90 48 60
        E 0 90 54 60
        E 0 90 60 60
        E 60 80 48 00
        E 0 80 54 00
        E 0 80 60 00
        E 420 90 3f 60
        E 0 90 4b 60
        E 0 90 57 60
        E 0 90 63 60
        E 960 80 3f 00
        E 0 80 4b 00
        E 240 80 57 00
        E 0 80 63 00
        E 240 90 3e 60
        E 0 90 4a 60
        E 0 90 56 60
        E 0 90 62 60
        E 960 80 3e 00
        E 0 80 4a 00
        E 240 80 56 00
        E 0 80 62 00
        E 240 90 3c 60
        E 0 90 48 60
        E 0 90 54 60
        E 0 90 60 60
        E 720 80 3c 00
        E 0 80 48 00
        E 240 80 54 00
        E 0 80 60 00
        E 240 90 48 60
        E 0 90 54 60
        E 0 90 60 60
        E 60 80 48 00
        E 0 80 54 00
        E 0 80 60 00
        E 180 90 3c 60
        E 0 90 48 60
        E 0 90 54 60
        E 0 90 60 60
        E 60 80 3c 00
        E 0 80 48 00
        E 0 80 54 00
        E 0 80 60 00
        E 523 90 74 61
        E 377 90 48 60
        E 0 90 54 60
        E 0 90 60 60
        E 60 80 48 00
        E 0 80 54 00
        E 0 80 60 00
        E 420 90 3e 60
        E 0 90 4a 60
        E 0 90 56 60
        E 0 90 62 60
        E 720 80 3e 00
        E 0 80 4a 00
        E 240 80 56 00
        E 0 80 62 00
        E 240 90 3d 60
        E 0 90 49 60
        E 0 90 55 60
        E 0 90 61 60
        E 960 80 3d 00
        E 0 80 49 00
        E 240 80 55 00
        E 0 80 61 00
        E 240 90 48 60
        E 0 90 54 60
        E 0 90 60 60
        E 60 80 48 00
        E 0 80 54 00
        E 0 80 60 00
        E 180 90 3c 60
        E 0 90 48 60
        E 0 90 54 60
        E 0 90 60 60
        E 960 80 3c 00
        E 0 80 48 00
        E 240 80 54 00
        E 0 80 60 00
        E 240 90 3c 60
        E 0 90 48 60
        E 0 90 54 60
        E 0 90 60 60
        E 60 80 3c 00
        E 0 80 48 00
        E 0 80 54 00
        E 0 80 60 00
        E 149 80 74 00
        E 31 90 48 60
        E 0 90 54 60
        E 0 90 60 60
        E 60 80 48 00
        E 0 80 54 00
        E 0 80 60 00
        E 420 90 48 60
        E 0 90 54 60
        E 0 90 60 60
        E 60 80 48 00
        E 0 80 54 00
        E 0 80 60 00
        E 180 90 48 60
        E 0 90 54 60
        E 0 90 60 60
        E 60 80 48 00
        E 0 80 54 00
        E 0 80 60 00
        E 420 90 3e 60
        E 0 90 4a 60
        E 0 90 56 60
        E 0 90 62 60
        E 960 80 3e 00
        E 0 80 4a 00
        E 0 80 56 00
        E 0 80 62 00
        E 240 90 58 60
        E 0 90 64 60
        E 120 80 58 00
        E 0 80 64 00
        E 120 90 4a 60
        E 0 90 56 60
        E 0 90 62 60
        E 120 80 4a 00
        E 0 80 56 00
        E 0 80 62 00
        E 360 90 3d 60
        E 0 90 49 60
        E 0 90 55 60
        E 0 90 61 60
        E 120 80 3d 00
        E 0 80 49 00
        E 0 80 55 00
        E 0 80 61 00
        E 360 90 4a 60
        E 0 90 56 60
        E 0 90 62 60
        E 120 80 4a 00
        E 0 80 56 00
        E 0 80 62 00
        E 360 90 3c 60
        E 0 90 48 60
        E 0 90 54 60
        E 0 90 60 60
        E 960 80 3c 00
        E 0 80 48 00
        E 0 80 54 00
        E 0 80 60 00
        E 480 90 3c 60
        E 0 90 48 60
        E 0 90 54 60
        E 0 90 60 60
        E 60 80 3c 00
        E 0 80 48 00
        E 0 80 54 00
        E 0 80 60 00
        E 180 90 48 60
        E 0 90 54 60
        E 0 90 60 60
        E 60 80 48 00
        E 0 80 54 00
        E 0 80 60 00
        E 420 90 48 60
        E 0 90 54 60
        E 0 90 60 60
        E 60 80 48 00
        E 0 80 54 00
        E 0 80 60 00
        E 180 90 48 60
        E 0 90 54 60
        E 0 90 60 60
        E 60 80 48 00
        E 0 80 54 00
        E 0 80 60 00
        E 420 90 3e 60
        E 0 90 4a 60
        E 0 90 56 60
        E 0 90 62 60
        E 960 80 3e 00
        E 0 80 4a 00
        E 0 80 56 00
        E 0 80 62 00
        E 240 90 58 60
        E 0 90 64 60
        E 120 80 58 00
        E 0 80 64 00
        E 120 90 4a 60
        E 0 90 56 60
        E 0 90 62 60
        E 120 80 4a 00
        E 0 80 56 00
        E 0 80 62 00
        E 360 90 3d 60
        E 0 90 49 60
        E 0 90 55 60
        E 0 90 61 60
        E 120 80 3d 00
        E 0 80 49 00
        E 0 80 55 00
        E 0 80 61 00
        E 360 90 4a 60
        E 0 90 56 60
        E 0 90 62 60
        E 120 80 4a 00
        E 0 80 56 00
        E 0 80 62 00
        E 360 90 3c 60
        E 0 90 48 60
        E 0 90 54 60
        E 0 90 60 60
        E 960 80 3c 00
        E 0 80 48 00
        E 0 80 54 00
        E 0 80 60 00
        E 481 90 3c 60
        E 0 90 48 60
        E 0 90 54 60
        E 0 90 60 60
        E 60 80 3c 00
        E 0 80 48 00
        E 0 80 54 00
        E 0 80 60 00
        E 180 90 48 60
        E 0 90 54 60
        E 0 90 60 60
        E 60 80 48 00
        E 0 80 54 00
        E 0 80 60 00
        E 419 90 48 60
        E 0 90 54 60
        E 0 90 60 60
        E 60 80 48 00
        E 0 80 54 00
        E 0 80 60 00
        E 180 90 48 60
        E 0 90 54 60
        E 0 90 60 60
        E 60 80 48 00
        E 0 80 54 00
        E 0 80 60 00
        E 420 90 3f 60
        E 0 90 4b 60
        E 0 90 57 60
        E 0 90 63 60
        E 960 80 3f 00
        E 0 80 4b 00
        E 240 80 57 00
        E 0 80 63 00
        E 240 90 3e 60
        E 0 90 4a 60
        E 0 90 56 60
        E 0 90 62 60
        E 960 80 3e 00
        E 0 80 4a 00
        E 240 80 56 00
        E 0 80 62 00
        E 240 90 3c 60
        E 0 90 48 60
        E 0 90 54 60
        E 0 90 60 60
        E 720 80 3c 00
        E 0 80 48 00
        E 240 80 54 00
        E 0 80 60 00
        E 240 90 48 60
        E 0 90 54 60
        E 0 90 60 60
        E 60 80 48 00
        E 0 80 54 00
        E 0 80 60 00
        E 180 90 3c 60
        E 0 90 48 60
        E 0 90 54 60
        E 0 90 60 60
        E 480 80 3c 00
        E 0 80 48 00
        E 0 80 54 00
        E 0 80 60 00
        E 31 90 74 61
        E 449 90 48 60
        E 0 90 54 60
        E 0 90 60 60
        E 120 80 48 00
        E 240 80 54 00
        E 120 80 60 00
        E 0 90 3e 60
        E 0 90 4a 60
        E 0 90 56 60
        E 0 90 62 60
        E 720 80 3e 00
        E 0 80 4a 00
        E 240 80 56 00
        E 0 80 62 00
        E 240 90 3d 60
        E 0 90 49 60
        E 0 90 55 60
        E 0 90 61 60
        E 960 80 3d 00
        E 0 80 49 00
        E 240 80 55 00
        E 0 80 61 00
        E 240 90 48 60
        E 0 90 54 60
        E 0 90 60 60
        E 60 80 48 00
        E 0 80 54 00
        E 0 80 60 00
        E 180 90 3c 60
        E 0 90 48 60
        E 0 90 54 60
        E 0 90 60 60
        E 960 80 3c 00
        E 0 80 48 00
        E 240 80 54 00
        E 0 80 60 00
        E 240 90 3c 60
        E 0 90 48 60
        E 0 90 54 60
        E 0 90 60 60
        E 60 80 3c 00
        E 0 80 48 00
        E 0 80 54 00
        E 0 80 60 00
        E 92 80 74 00
        E 88 90 48 60
        E 0 90 54 60
        E 0 90 60 60
        E 120 80 48 00
        E 0 80 54 00
        E 120 80 60 00
        E 240 90 48 60
        E 0 90 54 60
        E 0 90 60 60
        E 60 80 48 00
        E 0 80 54 00
        E 0 80 60 00
        E 180 90 48 60
        E 0 90 54 60
        E 0 90 60 60
        E 120 80 48 00
        E 240 80 54 00
        E 120 80 60 00
        E 0 90 3e 60
        E 0 90 4a 60
        E 0 90 56 60
        E 0 90 62 60
        E 960 80 3e 00
        E 0 80 4a 00
        E 0 80 56 00
        E 0 80 62 00
        E 240 90 58 60
        E 0 90 64 60
        E 120 80 58 00
        E 0 80 64 00
        E 120 90 4a 60
        E 0 90 56 60
        E 0 90 62 60
        E 120 80 4a 00
        E 0 80 56 00
        E 0 80 62 00
        E 360 90 3d 60
        E 0 90 49 60
        E 0 90 55 60
        E 0 90 61 60
        E 120 80 3d 00
        E 0 80 49 00
        E 0 80 55 00
        E 0 80 61 00
        E 360 90 4a 60
        E 0 90 56 60
        E 0 90 62 60
        E 120 80 4a 00
        E 0 80 56 00
        E 0 80 62 00
        E 360 90 3c 60
        E 0 90 48 60
        E 0 90 54 60
        E 0 90 60 60
        E 960 80 3c 00
        E 0 80 48 00
        E 0 80 54 00
        E 0 80 60 00
        E 481 90 3c 60
        E 0 90 48 60
        E 0 90 54 60
        E 0 90 60 60
        E 60 80 3c 00
        E 0 80 48 00
        E 0 80 54 00
        E 0 80 60 00
        E 180 90 48 60
        E 0 90 54 60
        E 0 90 60 60
        E 60 80 48 00
        E 0 80 54 00
        E 0 80 60 00
        E 419 90 48 60
        E 0 90 54 60
        E 0 90 60 60
        E 60 80 48 00
        E 0 80 54 00
        E 0 80 60 00
        E 180 90 48 60
        E 0 90 54 60
        E 0 90 60 60
        E 60 80 48 00
        E 0 80 54 00
        E 0 80 60 00
        E 420 90 3e 60
        E 0 90 4a 60
        E 0 90 56 60
        E 0 90 62 60
        E 960 80 3e 00
        E 0 80 4a 00
        E 0 80 56 00
        E 0 80 62 00
        E 240 90 58 60
        E 0 90 64 60
        E 120 80 58 00
        E 0 80 64 00
        E 120 90 4a 60
        E 0 90 56 60
        E 0 90 62 60
        E 120 80 4a 00
        E 0 80 56 00
        E 0 80 62 00
        E 360 90 3d 60
        E 0 90 49 60
        E 0 90 55 60
        E 0 90 61 60
        E 120 80 3d 00
        E 0 80 49 00
        E 0 80 55 00
        E 0 80 61 00
        E 360 90 4a 60
        E 0 90 56 60
        E 0 90 62 60
        E 120 80 4a 00
        E 0 80 56 00
        E 0 80 62 00
        E 360 90 3c 60
        E 0 90 48 60
        E 0 90 54 60
        E 0 90 60 60
        E 960 80 3c 00
        E 0 80 48 00
        E 0 80 54 00
        E 0 80 60 00
        E 481 90 3c 60
        E 0 90 48 60
        E 0 90 54 60
        E 0 90 60 60
        E 60 80 3c 00
        E 0 80 48 00
        E 0 80 54 00
        E 0 80 60 00
        E 180 90 48 60
        E 0 90 54 60
        E 0 90 60 60
        E 60 80 48 00
        E 0 80 54 00
        E 0 80 60 00
        E 419 90 48 60
        E 0 90 54 60
        E 0 90 60 60
        E 60 80 48 00
        E 0 80 54 00
        E 0 80 60 00
        E 180 90 48 60
        E 0 90 54 60
        E 0 90 60 60
        E 60 80 48 00
        E 0 80 54 00
        E 0 80 60 00
        E 420 90 3f 60
        E 0 90 4b 60
        E 0 90 57 60
        E 0 90 63 60
        E 960 80 3f 00
        E 0 80 4b 00
        E 240 80 57 00
        E 0 80 63 00
        E 240 90 3e 60
        E 0 90 4a 60
        E 0 90 56 60
        E 0 90 62 60
        E 960 80 3e 00
        E 0 80 4a 00
        E 240 80 56 00
        E 0 80 62 00
        E 240 90 3c 60
        E 0 90 48 60
        E 0 90 54 60
        E 0 90 60 60
        E 720 80 3c 00
        E 0 80 48 00
        E 240 80 54 00
        E 0 80 60 00
        E 240 90 48 60
        E 0 90 54 60
        E 0 90 60 60
        E 60 80 48 00
        E 0 80 54 00
        E 0 80 60 00
        E 180 90 3c 60
        E 0 90 48 60
        E 0 90 54 60
        E 0 90 60 60
        E 120 80 3c 00
        E 0 80 48 00
        E 0 80 54 00
        E 0 80 60 00
        E 840 90 48 60
        E 0 90 54 60
        E 0 90 60 60
        E 60 80 48 00
        E 0 80 54 00
        E 0 80 60 00
        E 420 90 3e 60
        E 0 90 4a 60
        E 0 90 56 60
        E 0 90 62 60
        E 720 80 3e 00
        E 0 80 4a 00
        E 300 80 56 00
        E 0 80 62 00
        E 180 90 3d 60
        E 0 90 49 60
        E 0 90 55 60
        E 0 90 61 60
        E 960 80 3d 00
        E 0 80 49 00
        E 240 80 55 00
        E 0 80 61 00
        E 240 90 48 60
        E 0 90 54 60
        E 0 90 60 60
        E 60 80 48 00
        E 0 80 54 00
        E 0 80 60 00
        E 180 90 3c 60
        E 0 90 48 60
        E 0 90 54 60
        E 0 90 60 60
        E 960 80 3c 00
        E 0 80 48 00
        E 240 80 54 00
        E 0 80 60 00
        E 240 90 3c 60
        E 0 90 48 60
        E 0 90 54 60
        E 0 90 60 60
        E 60 80 3c 00
        E 0 80 48 00
        E 0 80 54 00
        E 0 80 60 00
        E 180 90 48 60
        E 0 90 54 60
        E 0 90 60 60
        E 60 80 48 00
        E 0 80 54 00
        E 0 80 60 00
        E 420 90 48 60
        E 0 90 54 60
        E 0 90 60 60
        E 60 80 48 00
        E 0 80 54 00
        E 0 80 60 00
        E 180 90 3c 60
        E 0 90 48 60
        E 0 90 54 60
        E 0 90 60 60
        E 480 80 3c 00
        E 0 80 48 00
        E 0 80 54 00
        E 0 80 60 00
        <X 480 0
          /wFbaWRsZV9yZWFsdGltZV0=
        >
        E 41280 b0 7b 00
        GUID {54A57D35-811F-42A6-AB75-F5706122F903}
        IGNTEMPO 0 120.00000000 4 4
        SRCCOLOR 1122
        VELLANE 132 128 60
        COLORMAP "C:\Users\Tanja\works\REAPER (x64)\Data\color_maps\rockband_guitarbass.png"
        TEXTSTRINGFILE "Text Events List.txt"
        CFGEDITVIEW -125775.634916 5.823703 2 12 0 0 0
        CFGEDIT 1 1 0 0 0 1 1 1 1 1 1 0.12500000 -8 -8 1370 736 1 2 1 2 0.00000000 0 0 0 0 0.500000 1 0 1.000000 64
        KEYSNAP 0 0 "102034050607" 0 "Major"
        EVTFILTER 0 -1 -1 -1 -1 0 1 0 0 -1.00000000 -1.00000000
      >
    >
  >
  <TRACK '{6B7F9B4B-FF4E-4CE6-9E2D-4C9BD5DAED77}'
    NAME "PART GUITAR"
    PEAKCOL 33488896
    BEAT -1
    AUTOMODE 0
    VOLPAN 3.02651776366786 0.00000000000000 -1.00000000000000 -1.00000000000000 1.00000000000000
    MUTESOLO 1 0 0
    IPHASE 0
    ISBUS 0 0
    BUSCOMP 1 0
    SHOWINMIX 1 0.666700 0.500000 1 0.500000 -1 -1 -1
    FREEMODE 0
    SEL 0
    REC 0 4096 1 7 0 0 0
    TRACKHEIGHT 24 0
    INQ 0 0 0 0.5000000000 100 0 0 100
    NCHAN 2
    FX 1
    TRACKID {6B7F9B4B-FF4E-4CE6-9E2D-4C9BD5DAED77}
    PERF 0
    MIDIOUT -1
    <MIDINOTENAMES
      0 116 "OVERDRIVE"
      0 102 "Force HOPO Off"
      0 101 "Force HOPO On"
      0 100 "EXPERT Orange"
      0 99 "EXPERT Blue"
      0 98 "EXPERT Yellow"
      0 97 "EXPERT Red"
      0 96 "EXPERT Green"
      0 88 "HARD Orange"
      0 87 "HARD Blue"
      0 86 "HARD Yellow"
      0 85 "HARD Red"
      0 84 "HARD Green"
      0 76 "MEDIUM Orange"
      0 75 "MEDIUM Blue"
      0 74 "MEDIUM Yellow"
      0 73 "MEDIUM Red"
      0 72 "MEDIUM Green"
      0 64 "EASY Orange"
      0 63 "EASY Blue"
      0 62 "EASY Yellow"
      0 61 "EASY Red"
      0 60 "EASY Green"
      0 59 "Left Hand Highest"
      0 40 "Left Hand Lowest"
      0 58 "-"
      0 57 "-"
      0 56 "-"
      0 55 "-"
      0 54 "-"
      0 53 "-"
      0 52 "-"
      0 51 "-"
      0 50 "-"
      0 49 "-"
      0 48 "-"
      0 47 "-"
      0 46 "-"
      0 45 "-"
      0 44 "-"
      0 43 "-"
      0 42 "-"
      0 41 "-"
      0 115 "----"
      0 95 "----"
      0 89 "Force HOPO On"
      0 77 "----"
      0 65 "----"
      0 119 "----"
      0 120 "BRE (use all 5)"
      0 121 "BRE"
      0 122 "BRE"
      0 123 "BRE"
      0 124 "BRE"
      0 90 "Force HOPO Off"
      0 103 "Solo Marker"
      0 127 "Trill Marker"
      0 125 "----"
      0 126 "Strum Marker"
    >
    MAINSEND 1 0
    <FXCHAIN
      WNDRECT 0 38 878 585
      SHOW 0
      LASTSEL 1
      DOCKED 0
      BYPASS 1 0
      <VST "VSTi: ReaSynth (Cockos)" "reasynth.dll" 0 ""
        eXNlcu9e7f4AAAAAAgAAAAEAAAAAAAAAAgAAAAAAAAA4AAAAAAAAAA==
        AAAAAO++rd4N8K3eAAAAAAAAAAAAAAAAAAAAADm0SD59y9s+tbSxOQ==
        AAAAALbz/T5VpCs6AAAAAAAAAAAAAAAAAAA=
      >
      FLOATPOS 0 0 0 0
      FXID {52B28C73-185B-48E4-B8F4-1FD7A8848B0F}
      WAK 0
      BYPASS 1 0
      <VST "VSTi: RBN Preview (RBN)" "rbprev_vst64_beta.dll" 0 ""
        dnBicu5e7f4AAAAAAgAAAAEAAAAAAAAAAgAAAAAAAAAEAAAAAQAAAA==
        AAAAAAMAqgAAAAAAAAA=
      >
      FLOATPOS 32 32 659 497
      FXID {190BBB08-7A86-476B-BD07-5F71F5CD6F7C}
      WAK 0
    >
    <ITEM
      POSITION 0.00000000000000
      SNAPOFFS 0.00000000000000
      LENGTH 266.94347893916262
      LOOP 0
      ALLTAKES 0
      SEL 0
      FADEIN 1 0.000000 0.000000 1 0
      FADEOUT 1 0.000000 0.000000 1 0
      MUTE 0
      IGUID {81210F06-DA35-41E7-BA75-C6E1C5689733}
      IID 9
      NAME "PART GUITAR"
      VOLPAN 1.000000 0.000000 1.000000 -1.000000
      SOFFS 0.00000000000000 0.00000000000000
      PLAYRATE 1.00000000000000 1 0.00000000000000 -65536
      CHANMODE 0
      GUID {61757875-B3D4-49E4-8483-EE351B7D2386}
      <SOURCE MIDI
        HASDATA 1 480 QN
        POOLEDEVTS {91D9FFA5-05E7-4AA2-8210-9BA24616609B}
        <X 0 0
          /wNQQVJUIEdVSVRBUg==
        >
        E 3840 90 40 7f
        E 0 90 4c 7f
        E 60 80 40 00
        E 0 80 4c 00
        E 30 90 3f 7f
        E 0 90 4b 7f
        E 60 80 3f 00
        E 0 80 4b 00
        E 30 90 3e 7f
        E 0 90 4a 7f
        E 60 80 3e 00
        E 0 80 4a 00
        E 30 90 3d 7f
        E 0 90 49 7f
        E 60 80 3d 00
        E 0 80 49 00
        E 30 90 3c 7f
        E 0 90 48 7f
        E 60 80 3c 00
        E 0 80 48 00
        E 294780 b0 7b 00
        GUID {14D9E950-FB92-4048-8603-8FD02AE3B865}
        IGNTEMPO 0 120.00000000 4 4
        SRCCOLOR 1123
        VELLANE 132 38 60
        COLORMAP "C:\Users\me\AppData\Roaming\REAPER\Data\color_maps\rockband_guitarbass.png"
        TEXTSTRINGFILE "Text Events List.txt"
        CFGEDITVIEW -1610.539100 150.210572 0 12 0 0 0
        CFGEDIT 1 1 0 0 0 1 1 1 1 1 1 0.12500000 -8 -8 1370 736 1 2 1 2 0.00000000 0 0 0 0 0.500000 1 0 1.000000 64
        KEYSNAP 0 0 "102034050607" 0 "Major"
        EVTFILTER 0 -1 -1 -1 -1 0 1 0 0 -1.00000000 -1.00000000
      >
    >
  >
  <TRACK '{C298A11E-8E06-44B8-AA31-429ECCE3F0AF}'
    NAME "PART VOCALS"
    PEAKCOL 16810239
    BEAT -1
    AUTOMODE 0
    VOLPAN 0.58746333409396 -0.09600000000000 -1.00000000000000 -1.00000000000000 1.00000000000000
    MUTESOLO 0 0 0
    IPHASE 0
    ISBUS 0 0
    BUSCOMP 1 0
    SHOWINMIX 1 0.666700 0.500000 1 0.500000 -1 -1 -1
    FREEMODE 0
    SEL 0
    REC 0 4096 1 7 0 0 0
    TRACKHEIGHT 0 0
    INQ 0 0 0 0.5000000000 100 0 0 100
    NCHAN 2
    FX 1
    TRACKID {C298A11E-8E06-44B8-AA31-429ECCE3F0AF}
    PERF 0
    MIDIOUT -1
    <MIDINOTENAMES
      0 105 "Phrase Marker"
      0 84 "C5"
      0 36 "C1"
      0 83 "B"
      0 82 "Bb"
      0 81 "A"
      0 80 "G#"
      0 79 "G"
      0 78 "F#"
      0 77 "F"
      0 76 "E"
      0 75 "Eb"
      0 74 "D"
      0 73 "C#"
      0 72 "C4"
      0 71 "B"
      0 70 "Bb"
      0 69 "A"
      0 68 "G#"
      0 67 "G"
      0 66 "F#"
      0 65 "F"
      0 64 "E"
      0 63 "Eb"
      0 62 "D"
      0 61 "C#"
      0 60 "C3"
      0 59 "B"
      0 58 "Bb"
      0 57 "A"
      0 56 "G#"
      0 55 "G"
      0 54 "F#"
      0 53 "F"
      0 52 "E"
      0 51 "Eb"
      0 50 "D"
      0 49 "C#"
      0 48 "C2"
      0 47 "B"
      0 46 "Bb"
      0 45 "A"
      0 44 "G#"
      0 43 "G"
      0 42 "F#"
      0 41 "F"
      0 40 "E"
      0 39 "Eb"
      0 38 "D"
      0 37 "C#"
      0 97 "Not Displayed Percussion"
      0 96 "Displayed Percussion"
      0 104 "----"
      0 95 "----"
      0 116 "OVERDRIVE"
      0 115 "----"
      0 0 "Range Shift"
      0 1 "Lyric Shift"
    >
    MAINSEND 1 0
    <FXCHAIN
      WNDRECT 581 377 716 493
      SHOW 0
      LASTSEL 1
      DOCKED 0
      BYPASS 0 0
      <JS "IX/MIDI_Tool II" ""
        0.000000 85.000000 127.000000 0.000000 0.000000 0.000000 100.000000 0.000000 0.000000 127.000000 0.000000 0.000000 1.000000 0.000000 0.000000 - - - - - - - - - - - - - - - - - - - - - - - - - - - - - - - - - - - - - - - - - - - - - - - - - 
      >
      FLOATPOS 0 0 0 0
      FXID {CA785021-0433-497E-9A6C-EE23A1BC21B0}
      WAK 0
      BYPASS 0 0
      <VST "VSTi: ReaSynth (Cockos)" "reasynth.dll" 0 ""
        eXNlcu9e7f4AAAAAAgAAAAEAAAAAAAAAAgAAAAAAAAA4AAAAAAAAAA==
        AAAAAO++rd4N8K3eppvEOxe30ToAAAAAAAAAAAAAAACa9Q8/6WeIPQ==
        AAAAAAAAAD8AAIA/AAAAAAAAAD8AAAAAAAA=
      >
      FLOATPOS 32 32 338 405
      FXID {F124DD19-73B4-4CD5-B659-E246F2A3D0B3}
      WAK 0
    >
    <ITEM
      POSITION 0.00000000000000
      SNAPOFFS 0.00000000000000
      LENGTH 266.94347893916262
      LOOP 0
      ALLTAKES 0
      SEL 0
      FADEIN 1 0.000000 0.000000 1 0
      FADEOUT 1 0.000000 0.000000 1 0
      MUTE 0
      IGUID {9C9617EC-369A-41B9-80F6-31F4222F13F6}
      IID 10
      NAME "PART VOCALS"
      VOLPAN 1.000000 0.000000 1.000000 -1.000000
      SOFFS 0.00000000000000 0.00000000000000
      PLAYRATE 1.00000000000000 1 0.00000000000000 -65536
      CHANMODE 0
      GUID {8E872349-00D8-4243-95D7-0B92852E4EE5}
      <SOURCE MIDI
        HASDATA 1 480 QN
        POOLEDEVTS {A9619BE4-6A92-4064-A251-D4A02A7E1E5A}
        <X 0 0
          /wNQQVJUIFZPQ0FMUw==
        >
        <X 3840 0
          /wFbaWRsZV0=
        >
        <X 44160 0
          /wFbbWVsbG93XQ==
        >
        E 750 90 69 61
        <X 1014 0
          /wVOZWkt
        >
        E 0 90 37 61
        E 501 80 37 00
        <X 141 0
          /wV0bw==
        >
        E 0 90 39 61
        E 175 80 39 00
        <X 123 0
          /wVrw6R5
        >
        E 0 90 3c 61
        E 673 80 3c 00
        <X 643 0
          /wVsw6Qt
        >
        E 0 90 3c 61
        E 448 80 3c 00
        <X 107 0
          /wVwaQ==
        >
        E 0 90 3c 61
        E 171 80 3c 00
        <X 57 0
          /wVtZXQt
        >
        E 0 90 37 61
        E 283 80 37 00
        <X 199 0
          /wVzw6Ru
        >
        E 0 90 3c 61
        E 483 80 3c 00
        E 652 80 69 00
        E 120 90 69 61
        <X 347 0
          /wVTeS0=
        >
        E 0 90 3c 61
        E 313 80 3c 00
        <X 144 0
          /wVkw6Ru
        >
        E 0 90 3a 61
        E 276 80 3a 00
        <X 110 0
          /wVoYWst
        >
        E 0 90 3f 61
        E 268 80 3f 00
        <X 402 0
          /wVrYWE=
        >
        E 0 90 3d 61
        E 1110 80 3d 00
        <X 90 0
          /wVyaW4t
        >
        E 0 90 3c 61
        E 404 80 3c 00
        <X 92 0
          /wVuYXMt
        >
        E 0 90 3a 61
        E 395 80 3a 00
        <X 92 0
          /wVzYWFu
        >
        E 0 90 39 61
        E 1632 80 39 00
        E 535 80 69 00
        E 391 90 69 61
        <X 289 0
          /wVLYXUt
        >
        E 0 90 38 61
        E 366 80 38 00
        <X 119 0
          /wVsYXMt
        >
        E 0 90 3a 61
        E 285 80 3a 00
        <X 136 0
          /wVzYWFu
        >
        E 0 90 3c 61
        E 799 80 3c 00
        <X 255 0
          /wVrYXUt
        >
        E 0 90 3c 61
        E 277 80 3c 00
        <X 169 0
          /wVuaXM=
        >
        E 0 90 38 61
        E 263 80 38 00
        <X 237 0
          /wVrby0=
        >
        E 0 90 37 61
        E 206 80 37 00
        <X 96 0
          /wVydQ==
        >
        E 0 90 3c 61
        E 246 80 3c 00
        E 205 80 69 00
        E 169 90 69 61
        E 0 90 74 61
        <X 172 0
          /wVTZW4=
        >
        E 0 90 3c 61
        E 330 80 3c 00
        <X 150 0
          /wVsYWgt
        >
        E 0 90 3f 61
        E 360 80 3f 00
        <X 120 0
          /wVqYWst
        >
        E 0 90 3b 61
        E 240 80 3b 00
        <X 134 0
          /wVzaQ==
        >
        E 0 90 3e 61
        E 326 80 3e 00
        <X 144 0
          /wVzYWk=
        >
        E 0 90 41 61
        E 2814 80 41 00
        E 267 80 69 00
        E 0 80 74 00
        E 1775 90 69 61
        <X 870 0
          /wVQb2kt
        >
        E 0 90 3f 61
        E 761 80 3f 00
        <X 172 0
          /wVrYQ==
        >
        E 0 90 3f 61
        E 435 80 3f 00
        <X 79 0
          /wVsZS0=
        >
        E 0 90 3f 61
        E 251 80 3f 00
        <X 83 0
          /wV2by0=
        >
        E 0 90 3c 61
        E 193 80 3c 00
        <X 183 0
          /wV0b24=
        >
        E 0 90 3a 61
        E 629 80 3a 00
        <X 108 0
          /wVvLQ==
        >
        E 0 90 39 61
        E 186 80 39 00
        <X 44 0
          /wVkb3Qt
        >
        E 0 90 39 61
        E 193 80 39 00
        <X 247 0
          /wV0YWE=
        >
        E 0 90 3c 61
        E 1237 80 3c 00
        E 133 80 69 00
        E 255 90 69 61
        <X 91 0
          /wVLby0=
        >
        E 0 90 3c 61
        E 137 80 3c 00
        <X 104 0
          /wVydW4=
        >
        E 0 90 3e 61
        E 157 80 3e 00
        <X 166 0
          /wVwdW8t
        >
        E 0 90 3f 61
        E 528 80 3f 00
        <X 87 0
          /wVsaS0=
        >
        E 0 90 3f 61
        E 153 80 3f 00
        <X 96 0
          /wVrYXM=
        >
        E 0 90 3f 61
        E 266 80 3f 00
        <X 270 0
          /wVrYXUt
        >
        E 0 90 3f 61
        E 404 80 3f 00
        <X 62 0
          /wUr
        >
        E 0 90 41 61
        E 397 80 41 00
        <X 84 0
          /wVsYXMt
        >
        E 0 90 3d 61
        E 271 80 3d 00
        <X 233 0
          /wVzYWFu
        >
        E 0 90 3c 61
        E 1875 80 3c 00
        E 125 80 69 00
        E 255 90 69 61
        <X 363 0
          /wVKYQ==
        >
        E 0 90 39 61
        E 117 80 39 00
        <X 126 0
          /wVwb2wt
        >
        E 0 90 3f 61
        E 534 80 3f 00
        <X 180 0
          /wVrdWE=
        >
        E 0 90 3f 61
        E 450 80 3f 00
        <X 234 0
          /wVwaXQt
        >
        E 0 90 3f 61
        E 246 80 3f 00
        <X 246 0
          /wVraW4=
        >
        E 0 90 3d 61
        E 294 80 3d 00
        <X 129 0
          /wVrw6R5
        >
        E 0 90 3a 61
        E 339 80 3a 00
        <X 215 0
          /wV0eXQt
        >
        E 0 90 3c 61
        E 237 80 3c 00
        <X 445 0
          /wV0w7Y=
        >
        E 0 90 35 61
        E 283 80 35 00
        E 210 80 69 00
        E 183 90 69 61
        E 0 90 74 61
        <X 356 0
          /wVKw6RsLQ==
        >
        E 0 90 38 61
        E 525 80 38 00
        <X 138 0
          /wVsZWVu
        >
        E 0 90 35 61
        E 330 80 35 00
        <X 196 0
          /wVrb2gt
        >
        E 0 90 37 61
        E 314 80 37 00
        <X 90 0
          /wVkYS0=
        >
        E 0 90 35 61
        E 120 80 35 00
        <X 140 0
          /wV0YWFu
        >
        E 0 90 35 61
        E 2428 80 35 00
        E 231 80 69 00
        E 0 80 74 00
        E 471 90 00 60
        E 390 80 00 00
        E 120 90 69 60
        <X 407 0
          /wVKdWgt
        >
        E 0 90 41 60
        E 303 80 41 00
        <X 157 0
          /wVsYXQ=
        >
        E 0 90 45 60
        E 273 80 45 00
        <X 240 0
          /wVhbC0=
        >
        E 0 90 43 60
        E 570 80 43 00
        <X 164 0
          /wVrYS0=
        >
        E 0 90 41 60
        E 120 80 41 00
        <X 136 0
          /wVrb29u
        >
        E 0 90 3c 60
        E 803 80 3c 00
        <X 187 0
          /wVhbC0=
        >
        E 0 90 45 60
        E 420 80 45 00
        <X 60 0
          /wVsYQ==
        >
        E 0 90 48 60
        E 300 80 48 00
        <X 120 0
          /wVrdXUt
        >
        E 0 90 48 60
        E 600 80 48 00
        <X 161 0
          /wV0YS0=
        >
        E 0 90 45 60
        E 167 80 45 00
        <X 65 0
          /wVtb24=
        >
        E 0 90 41 60
        E 619 80 41 00
        E 32 80 69 00
        E 210 90 69 61
        <X 98 0
          /wVKdWgt
        >
        E 0 90 41 60
        E 360 80 41 00
        <X 60 0
          /wVsYXQ=
        >
        E 0 90 45 60
        E 390 80 45 00
        <X 148 0
          /wVhbC0=
        >
        E 0 90 43 60
        E 569 80 43 00
        <X 163 0
          /wVrYS0=
        >
        E 0 90 41 60
        E 127 80 41 00
        <X 135 0
          /wVrb29u
        >
        E 0 90 3c 60
        E 803 80 3c 00
        <X 171 0
          /wVrYWkt
        >
        E 0 90 45 60
        E 379 80 45 00
        <X 101 0
          /wVrdXU=
        >
        E 0 90 47 60
        E 792 80 47 00
        <X 120 0
          /wVtYWE=
        >
        E 0 90 48 60
        E 1920 80 48 00
        E 148 80 69 00
        E 282 90 69 60
        <X 47 0
          /wVUYW5zLQ==
        >
        E 0 90 4c 60
        E 679 80 4c 00
        <X 70 0
          /wVzaS0=
        >
        E 0 90 4c 60
        E 136 80 4c 00
        <X 92 0
          /wVzYS0=
        >
        E 0 90 4c 60
        E 181 80 4c 00
        <X 75 0
          /wVsaS0=
        >
        E 0 90 4c 60
        E 108 80 4c 00
        <X 120 0
          /wVuYW0t
        >
        E 0 90 48 60
        E 300 80 48 00
        <X 143 0
          /wVtZQ==
        >
        E 0 90 48 60
        E 149 80 48 00
        <X 348 0
          /wVzb2k=
        >
        E 0 90 48 60
        E 274 80 48 00
        <X 182 0
          /wV0w6RoLQ==
        >
        E 0 90 4a 60
        E 322 80 4a 00
        <X 200 0
          /wV0aS0=
        >
        E 0 90 48 60
        E 206 80 48 00
        <X 58 0
          /wVlbg==
        >
        E 0 90 46 60
        E 424 80 46 00
        <X 257 0
          /wV2ecO2
        >
        E 0 90 48 60
        E 467 80 48 00
        E 35 80 69 00
        E 84 90 69 61
        E 0 90 74 61
        <X 80 0
          /wVKdWgt
        >
        E 0 90 41 60
        E 173 80 41 00
        <X 90 0
          /wVsYXQ=
        >
        E 0 90 45 60
        E 295 80 45 00
        <X 201 0
          /wVhbC0=
        >
        E 0 90 43 60
        E 606 80 43 00
        <X 128 0
          /wVrYS0=
        >
        E 0 90 41 60
        E 120 80 41 00
        <X 120 0
          /wVrb29u
        >
        E 0 90 3c 60
        E 803 80 3c 00
        <X 187 0
          /wVraXIt
        >
        E 0 90 43 60
        E 270 80 43 00
        <X 182 0
          /wVrYXM=
        >
        E 0 90 40 60
        E 385 80 40 00
        <X 123 0
          /wV5w7Y=
        >
        E 0 90 41 60
        E 1920 80 41 00
        E 87 80 69 00
        E 0 80 74 00
        <X 393 0
          /wFbaWRsZV0=
        >
        E 19650 90 00 60
        E 390 80 00 00
        <X 3028 0
          /wFbbWVsbG93XQ==
        >
        E 92 90 69 60
        <X 388 0
          /wVBLQ==
        >
        E 0 90 37 60
        E 224 80 37 00
        <X 93 0
          /wV2YS0=
        >
        E 0 90 39 60
        E 255 80 39 00
        <X 60 0
          /wVydXVz
        >
        E 0 90 3c 60
        E 1502 80 3c 00
        <X 293 0
          /wVvbg==
        >
        E 0 90 37 60
        E 290 80 37 00
        <X 180 0
          /wVzdXUt
        >
        E 0 90 37 60
        E 782 80 37 00
        <X 136 0
          /wVyaQ==
        >
        E 0 90 3c 60
        E 269 80 3c 00
        E 275 80 69 00
        E 569 90 69 61
        <X 295 0
          /wVKYQ==
        >
        E 0 90 3d 60
        E 414 80 3d 00
        <X 185 0
          /wVtaXQt
        >
        E 0 90 3f 60
        E 281 80 3f 00
        <X 456 0
          /wV0YWEt
        >
        E 0 90 3d 60
        E 1571 80 3d 00
        <X 92 0
          /wVtYS0=
        >
        E 0 90 3c 60
        E 208 80 3c 00
        <X 92 0
          /wV0b24=
        >
        E 0 90 3a 60
        E 667 80 3a 00
        E 444 80 69 00
        E 1529 90 69 60
        <X 395 0
          /wVLYXQt
        >
        E 0 90 37 60
        E 213 80 37 00
        <X 118 0
          /wVzZWVzLQ==
        >
        E 0 90 3a 60
        E 473 80 3a 00
        <X 271 0
          /wVzYQ==
        >
        E 0 90 3c 60
        E 270 80 3c 00
        <X 539 0
          /wV5cy0=
        >
        E 0 90 3b 60
        E 351 80 3b 00
        <X 147 0
          /wV0w6Qt
        >
        E 0 90 37 60
        E 153 80 37 00
        <X 120 0
          /wV2eXMt
        >
        E 0 90 37 60
        E 314 80 37 00
        <X 188 0
          /wV0ZW4=
        >
        E 0 90 3c 60
        E 678 80 3c 00
        E 348 80 69 00
        E 385 90 69 61
        E 0 90 74 61
        <X 156 0
          /wVIZWkt
        >
        E 0 90 3f 60
        E 409 80 3f 00
        <X 105 0
          /wVqYXMt
        >
        E 0 90 3c 60
        E 270 80 3c 00
        <X 217 0
          /wV0dXUt
        >
        E 0 90 41 60
        E 2461 80 41 00
        <X 330 0
          /wUr
        >
        E 0 90 3f 60
        E 1493 80 3f 00
        E 150 80 69 00
        E 0 80 74 00
        E 1086 90 69 60
        <X 242 0
          /wVBYWwt
        >
        E 0 90 3f 60
        E 657 80 3f 00
        <X 125 0
          /wVsb3Q=
        >
        E 0 90 3f 60
        E 347 80 3f 00
        <X 279 0
          /wVrYWwt
        >
        E 0 90 3f 60
        E 563 80 3f 00
        <X 254 0
          /wVsaS0=
        >
        E 0 90 3c 60
        E 132 80 3c 00
        <X 92 0
          /wVvb24=
        >
        E 0 90 39 60
        E 369 80 39 00
        <X 121 0
          /wVoYWpvLQ==
        >
        E 0 90 39 60
        E 376 80 39 00
        <X 284 0
          /wVhYQ==
        >
        E 0 90 3c 60
        E 1140 80 3c 00
        E 272 80 69 00
        E 529 90 69 61
        <X 183 0
          /wVMb2lzLQ==
        >
        E 0 90 3f 60
        E 627 80 3f 00
        <X 248 0
          /wV0YWE=
        >
        E 0 90 3f 60
        E 439 80 3f 00
        <X 181 0
          /wVwaS0=
        >
        E 0 90 3e 60
        E 130 80 3e 00
        <X 123 0
          /wVzYS0=
        >
        E 0 90 41 60
        E 236 80 41 00
        <X 103 0
          /wVyYXQ=
        >
        E 0 90 3d 60
        E 293 80 3d 00
        <X 463 0
          /wVrYXMt
        >
        E 0 90 3c 60
        E 311 80 3c 00
        <X 115 0
          /wV2b2lsLQ==
        >
        E 0 90 39 60
        E 429 80 39 00
        <X 208 0
          /wVsYQ==
        >
        E 0 90 38 60
        E 878 80 38 00
        E 330 80 69 00
        E 232 90 69 60
        <X 131 0
          /wVKYQ==
        >
        E 0 90 37 60
        E 117 80 37 00
        <X 136 0
          /wVrb3It
        >
        E 0 90 3e 60
        E 598 80 3e 00
        <X 173 0
          /wVrZS0=
        >
        E 0 90 3f 60
        E 231 80 3f 00
        <X 75 0
          /wVhbg==
        >
        E 0 90 3f 60
        E 241 80 3f 00
        <X 180 0
          /wVqeXIt
        >
        E 0 90 3f 60
        E 247 80 3f 00
        <X 161 0
          /wVrw6RuLQ==
        >
        E 0 90 3c 60
        E 309 80 3c 00
        <X 149 0
          /wV0ZWVu
        >
        E 0 90 3a 60
        E 346 80 3a 00
        <X 173 0
          /wVwaWVuLQ==
        >
        E 0 90 3c 60
        E 586 80 3c 00
        <X 141 0
          /wVuYXI=
        >
        E 0 90 35 60
        E 573 80 35 00
        E 180 80 69 00
        E 285 90 69 61
        E 0 90 74 61
        <X 127 0
          /wVZw7Yt
        >
        E 0 90 35 60
        E 407 80 35 00
        <X 137 0
          /wVow7Zu
        >
        E 0 90 34 60
        E 307 80 34 00
        <X 170 0
          /wVhdS0=
        >
        E 0 90 37 60
        E 522 80 37 00
        <X 227 0
          /wVrZWFh
        >
        E 0 90 35 60
        E 2442 80 35 00
        E 133 80 69 00
        E 0 80 74 00
        E 665 90 00 60
        E 270 80 00 00
        E 180 90 69 60
        <X 300 0
          /wVKdWgt
        >
        E 0 90 41 60
        E 303 80 41 00
        <X 157 0
          /wVsYXQ=
        >
        E 0 90 45 60
        E 273 80 45 00
        <X 240 0
          /wVhbC0=
        >
        E 0 90 43 60
        E 570 80 43 00
        <X 164 0
          /wVrYS0=
        >
        E 0 90 41 60
        E 120 80 41 00
        <X 136 0
          /wVrb29u
        >
        E 0 90 3c 60
        E 804 80 3c 00
        <X 186 0
          /wVhbC0=
        >
        E 0 90 45 60
        E 420 80 45 00
        <X 60 0
          /wVsYQ==
        >
        E 0 90 48 60
        E 300 80 48 00
        <X 120 0
          /wVrdXUt
        >
        E 0 90 48 60
        E 600 80 48 00
        <X 161 0
          /wV0YS0=
        >
        E 0 90 45 60
        E 167 80 45 00
        <X 65 0
          /wVtb24=
        >
        E 0 90 41 60
        E 619 80 41 00
        E 41 80 69 00
        E 194 90 69 61
        <X 105 0
          /wVKdWgt
        >
        E 0 90 41 60
        E 360 80 41 00
        <X 60 0
          /wVsYXQ=
        >
        E 0 90 45 60
        E 390 80 45 00
        <X 148 0
          /wVhbC0=
        >
        E 0 90 43 60
        E 569 80 43 00
        <X 163 0
          /wVrYS0=
        >
        E 0 90 41 60
        E 127 80 41 00
        <X 135 0
          /wVrb29u
        >
        E 0 90 3c 60
        E 803 80 3c 00
        <X 171 0
          /wVrYWkt
        >
        E 0 90 45 60
        E 379 80 45 00
        <X 101 0
          /wVrdXU=
        >
        E 0 90 47 60
        E 792 80 47 00
        <X 120 0
          /wVtYWE=
        >
        E 0 90 48 60
        E 1920 80 48 00
        E 61 80 69 00
        E 196 90 69 60
        <X 220 0
          /wVUYW5zLQ==
        >
        E 0 90 4c 60
        E 679 80 4c 00
        <X 70 0
          /wVzaS0=
        >
        E 0 90 4c 60
        E 136 80 4c 00
        <X 92 0
          /wVzYS0=
        >
        E 0 90 4c 60
        E 181 80 4c 00
        <X 75 0
          /wVsaS0=
        >
        E 0 90 4c 60
        E 108 80 4c 00
        <X 120 0
          /wVuYW0t
        >
        E 0 90 48 60
        E 300 80 48 00
        <X 143 0
          /wVtZQ==
        >
        E 0 90 48 60
        E 149 80 48 00
        <X 348 0
          /wVzb2k=
        >
        E 0 90 48 60
        E 274 80 48 00
        <X 182 0
          /wV0w6RoLQ==
        >
        E 0 90 4a 60
        E 322 80 4a 00
        <X 200 0
          /wV0aS0=
        >
        E 0 90 48 60
        E 206 80 48 00
        <X 58 0
          /wVlbg==
        >
        E 0 90 46 60
        E 424 80 46 00
        <X 257 0
          /wV2ecO2
        >
        E 0 90 48 60
        E 467 80 48 00
        E 36 80 69 00
        E 66 90 69 61
        E 0 90 74 61
        <X 31 0
          /wVKdWgt
        >
        E 0 90 41 60
        E 239 80 41 00
        <X 90 0
          /wVsYXQ=
        >
        E 0 90 45 60
        E 295 80 45 00
        <X 201 0
          /wVhbC0=
        >
        E 0 90 43 60
        E 606 80 43 00
        <X 128 0
          /wVrYS0=
        >
        E 0 90 41 60
        E 120 80 41 00
        <X 120 0
          /wVrb29u
        >
        E 0 90 3c 60
        E 803 80 3c 00
        <X 187 0
          /wVraXIt
        >
        E 0 90 43 60
        E 270 80 43 00
        <X 182 0
          /wVrYXM=
        >
        E 0 90 40 60
        E 385 80 40 00
        <X 123 0
          /wV5w7Y=
        >
        E 0 90 41 60
        E 1560 80 41 00
        E 46 80 69 00
        E 0 80 74 00
        E 91 90 69 60
        <X 93 0
          /wVKdWgt
        >
        E 0 90 41 60
        E 303 80 41 00
        <X 157 0
          /wVsYXQ=
        >
        E 0 90 45 60
        E 273 80 45 00
        <X 240 0
          /wVhbC0=
        >
        E 0 90 43 60
        E 570 80 43 00
        <X 164 0
          /wVrYS0=
        >
        E 0 90 41 60
        E 120 80 41 00
        <X 136 0
          /wVrb29u
        >
        E 0 90 3c 60
        E 803 80 3c 00
        <X 187 0
          /wVhbC0=
        >
        E 0 90 45 60
        E 420 80 45 00
        <X 60 0
          /wVsYQ==
        >
        E 0 90 48 60
        E 300 80 48 00
        <X 120 0
          /wVrdXUt
        >
        E 0 90 48 60
        E 600 80 48 00
        <X 161 0
          /wV0YS0=
        >
        E 0 90 45 60
        E 167 80 45 00
        <X 65 0
          /wVtb24=
        >
        E 0 90 41 60
        E 619 80 41 00
        E 88 80 69 00
        E 83 90 69 61
        <X 169 0
          /wVKdWgt
        >
        E 0 90 41 60
        E 360 80 41 00
        <X 60 0
          /wVsYXQ=
        >
        E 0 90 45 60
        E 390 80 45 00
        <X 148 0
          /wVhbC0=
        >
        E 0 90 43 60
        E 569 80 43 00
        <X 163 0
          /wVrYS0=
        >
        E 0 90 41 60
        E 127 80 41 00
        <X 135 0
          /wVrb29u
        >
        E 0 90 3c 60
        E 803 80 3c 00
        <X 171 0
          /wVrYWkt
        >
        E 0 90 45 60
        E 379 80 45 00
        <X 101 0
          /wVrdXU=
        >
        E 0 90 47 60
        E 792 80 47 00
        <X 120 0
          /wVtYWE=
        >
        E 0 90 48 60
        E 1920 80 48 00
        E 112 80 69 00
        E 262 90 69 60
        <X 103 0
          /wVUYW5zLQ==
        >
        E 0 90 4c 60
        E 679 80 4c 00
        <X 70 0
          /wVzaS0=
        >
        E 0 90 4c 60
        E 136 80 4c 00
        <X 92 0
          /wVzYS0=
        >
        E 0 90 4c 60
        E 181 80 4c 00
        <X 75 0
          /wVsaS0=
        >
        E 0 90 4c 60
        E 108 80 4c 00
        <X 120 0
          /wVuYW0t
        >
        E 0 90 48 60
        E 300 80 48 00
        <X 143 0
          /wVtZQ==
        >
        E 0 90 48 60
        E 149 80 48 00
        <X 348 0
          /wVzb2k=
        >
        E 0 90 48 60
        E 274 80 48 00
        <X 182 0
          /wV0w6RoLQ==
        >
        E 0 90 4a 60
        E 322 80 4a 00
        <X 200 0
          /wV0aS0=
        >
        E 0 90 48 60
        E 206 80 48 00
        <X 58 0
          /wVlbg==
        >
        E 0 90 46 60
        E 424 80 46 00
        <X 257 0
          /wV2ecO2
        >
        E 0 90 48 60
        E 467 80 48 00
        E 44 80 69 00
        E 43 90 69 61
        E 0 90 74 61
        <X 46 0
          /wVKdWgt
        >
        E 0 90 41 60
        E 239 80 41 00
        <X 90 0
          /wVsYXQ=
        >
        E 0 90 45 60
        E 295 80 45 00
        <X 201 0
          /wVhbC0=
        >
        E 0 90 43 60
        E 606 80 43 00
        <X 128 0
          /wVrYS0=
        >
        E 0 90 41 60
        E 120 80 41 00
        <X 120 0
          /wVrb29u
        >
        E 0 90 3c 60
        E 803 80 3c 00
        <X 187 0
          /wVraXIt
        >
        E 0 90 43 60
        E 270 80 43 00
        <X 182 0
          /wVrYXM=
        >
        E 0 90 40 60
        E 385 80 40 00
        <X 123 0
          /wV5w7Y=
        >
        E 0 90 41 60
        E 1560 80 41 00
        E 46 80 69 00
        E 0 80 74 00
        E 268 90 69 60
        <X 30 0
          /wVKdWgt
        >
        E 0 90 41 60
        E 303 80 41 00
        <X 157 0
          /wVsYXQ=
        >
        E 0 90 45 60
        E 273 80 45 00
        <X 240 0
          /wVhbC0=
        >
        E 0 90 43 60
        E 570 80 43 00
        <X 164 0
          /wVrYS0=
        >
        E 0 90 41 60
        E 120 80 41 00
        <X 136 0
          /wVrb29u
        >
        E 0 90 3c 60
        E 803 80 3c 00
        <X 187 0
          /wVhbC0=
        >
        E 0 90 45 60
        E 420 80 45 00
        <X 60 0
          /wVsYQ==
        >
        E 0 90 48 60
        E 300 80 48 00
        <X 120 0
          /wVrdXUt
        >
        E 0 90 48 60
        E 600 80 48 00
        <X 161 0
          /wV0YS0=
        >
        E 0 90 45 60
        E 167 80 45 00
        <X 65 0
          /wVtb24=
        >
        E 0 90 41 60
        E 619 80 41 00
        E 81 80 69 00
        E 118 90 69 61
        <X 141 0
          /wVKdWgt
        >
        E 0 90 41 60
        E 360 80 41 00
        <X 60 0
          /wVsYXQ=
        >
        E 0 90 45 60
        E 390 80 45 00
        <X 148 0
          /wVhbC0=
        >
        E 0 90 43 60
        E 569 80 43 00
        <X 163 0
          /wVrYS0=
        >
        E 0 90 41 60
        E 127 80 41 00
        <X 135 0
          /wVrb29u
        >
        E 0 90 3c 60
        E 803 80 3c 00
        <X 171 0
          /wVrYWkt
        >
        E 0 90 45 60
        E 379 80 45 00
        <X 101 0
          /wVrdXU=
        >
        E 0 90 47 60
        E 792 80 47 00
        <X 120 0
          /wVtYWE=
        >
        E 0 90 48 60
        E 1920 80 48 00
        E 91 80 69 00
        E 256 90 69 60
        <X 130 0
          /wVUYW5zLQ==
        >
        E 0 90 4c 60
        E 679 80 4c 00
        <X 70 0
          /wVzaS0=
        >
        E 0 90 4c 60
        E 136 80 4c 00
        <X 92 0
          /wVzYS0=
        >
        E 0 90 4c 60
        E 181 80 4c 00
        <X 75 0
          /wVsaS0=
        >
        E 0 90 4c 60
        E 108 80 4c 00
        <X 120 0
          /wVuYW0t
        >
        E 0 90 48 60
        E 300 80 48 00
        <X 143 0
          /wVtZQ==
        >
        E 0 90 48 60
        E 149 80 48 00
        <X 348 0
          /wVzb2k=
        >
        E 0 90 48 60
        E 274 80 48 00
        <X 182 0
          /wV0w6RoLQ==
        >
        E 0 90 4a 60
        E 322 80 4a 00
        <X 200 0
          /wV0aS0=
        >
        E 0 90 48 60
        E 206 80 48 00
        <X 58 0
          /wVlbg==
        >
        E 0 90 46 60
        E 424 80 46 00
        <X 257 0
          /wV2ecO2
        >
        E 0 90 48 60
        E 467 80 48 00
        E 49 80 69 00
        E 55 90 69 61
        <X 29 0
          /wVKdWgt
        >
        E 0 90 41 60
        E 239 80 41 00
        <X 90 0
          /wVsYXQ=
        >
        E 0 90 45 60
        E 295 80 45 00
        <X 201 0
          /wVhbC0=
        >
        E 0 90 43 60
        E 606 80 43 00
        <X 128 0
          /wVrYS0=
        >
        E 0 90 41 60
        E 120 80 41 00
        <X 120 0
          /wVrb29u
        >
        E 0 90 3c 60
        E 803 80 3c 00
        <X 187 0
          /wVraXIt
        >
        E 0 90 43 60
        E 270 80 43 00
        <X 182 0
          /wVrYXM=
        >
        E 0 90 40 60
        E 385 80 40 00
        <X 123 0
          /wV5w7Y=
        >
        E 0 90 41 60
        E 1560 80 41 00
        E 348 80 69 00
        <X 132 0
          /wFbaWRsZV9yZWFsdGltZV0=
        >
        E 42557 b0 7b 00
        GUID {C9A1A4CA-4224-4672-91C0-075BEB2A8650}
        IGNTEMPO 0 120.00000000 4 4
        SRCCOLOR 1124
        VELLANE 132 128 128
        COLORMAP "C:\Users\me\AppData\Roaming\REAPER\Data\color_maps\rockband_vox-other.png"
        TEXTSTRINGFILE "Text Events List.txt"
        CFGEDITVIEW 181266.349006 16.407504 2 12 0 0 0
        CFGEDIT 1 1 0 0 1 1 1 1 1 0 1 0.06250000 75 0 1611 691 1 2 1 2 0.00000000 0 0 0 0 0.500000 1 0 1.000000 64
        KEYSNAP 0 5 "102034050607" 0 "Major"
        EVTFILTER 0 -1 -1 -1 -1 0 1 0 0 -1.00000000 -1.00000000
      >
    >
  >
  <TRACK '{FAA968E5-C34E-4448-A34E-2BA8E334B29E}'
    NAME "1_01-SONG AUDIO-consolidated-250406_1821_(Vocals)"
    PEAKCOL 16576
    BEAT -1
    AUTOMODE 0
    VOLPAN 0.55760551322897 0.00000000000000 -1.00000000000000 -1.00000000000000 1.00000000000000
    MUTESOLO 1 0 0
    IPHASE 0
    ISBUS 0 0
    BUSCOMP 0 0
    SHOWINMIX 1 0.666700 0.500000 1 0.500000 -1 -1 -1
    FREEMODE 0
    SEL 0
    REC 0 0 0 0 0 0 0
    TRACKHEIGHT 24 0
    INQ 0 0 0 0.5000000000 100 0 0 100
    NCHAN 2
    FX 1
    TRACKID {FAA968E5-C34E-4448-A34E-2BA8E334B29E}
    PERF 0
    MIDIOUT -1
    MAINSEND 1 0
    <ITEM
      POSITION 0.00000000000000
      SNAPOFFS 0.00000000000000
      LENGTH 267.21986394557825
      LOOP 0
      ALLTAKES 0
      SEL 0
      FADEIN 1 0.000000 0.000000 1 0
      FADEOUT 1 0.000000 0.000000 1 0
      MUTE 0
      IGUID {99B77145-D70B-426E-9928-BE7F04BE978E}
      IID 31
      NAME "1_01-SONG AUDIO-consolidated-250406_1821_(Vocals).wav"
      VOLPAN 1.000000 0.000000 1.000000 -1.000000
      SOFFS 0.00000000000000
      PLAYRATE 1.00000000000000 1 0.00000000000000 -1
      CHANMODE 0
      GUID {C5E9C068-9B57-45AC-954C-7A4807FF813E}
      <SOURCE WAVE
        FILE "1_01-SONG AUDIO-consolidated-250406_1821_(Vocals).wav"
      >
    >
  >
  <TRACK '{E60BCF67-80FD-4554-840A-5B0B5C2E06A0}'
    NAME "HARM1"
    PEAKCOL 24624127
    BEAT -1
    AUTOMODE 0
    VOLPAN 1.00000000000000 0.06400000000000 -1.00000000000000 -1.00000000000000 1.00000000000000
    MUTESOLO 0 0 0
    IPHASE 0
    ISBUS 0 0
    BUSCOMP 0 0
    SHOWINMIX 1 0.666700 0.500000 1 0.500000 -1 -1 -1
    FREEMODE 0
    SEL 0
    REC 0 0 0 0 0 0 0
    TRACKHEIGHT 0 0
    INQ 0 0 0 0.5000000000 100 0 0 100
    NCHAN 2
    FX 1
    TRACKID {E60BCF67-80FD-4554-840A-5B0B5C2E06A0}
    PERF 0
    MIDIOUT -1
    <MIDINOTENAMES
      0 0 "Range Shift"
      0 1 "Lyric Shift"
      0 36 "C1"
      0 37 "C#"
      0 38 "D"
      0 39 "Eb"
      0 40 "E"
      0 41 "F"
      0 42 "F#"
      0 43 "G"
      0 44 "G#"
      0 45 "A"
      0 46 "Bb"
      0 47 "B"
      0 48 "C2"
      0 49 "C#"
      0 50 "D"
      0 51 "Eb"
      0 52 "E"
      0 53 "F"
      0 54 "F#"
      0 55 "G"
      0 56 "G#"
      0 57 "A"
      0 58 "Bb"
      0 59 "B"
      0 60 "C3"
      0 61 "C#"
      0 62 "D"
      0 63 "Eb"
      0 64 "E"
      0 65 "F"
      0 66 "F#"
      0 67 "G"
      0 68 "G#"
      0 69 "A"
      0 70 "Bb"
      0 71 "B"
      0 72 "C4"
      0 73 "C#"
      0 74 "D"
      0 75 "Eb"
      0 76 "E"
      0 77 "F"
      0 78 "F#"
      0 79 "G"
      0 80 "G#"
      0 81 "A"
      0 82 "Bb"
      0 83 "B"
      0 105 "Phrase Marker"
      0 116 "OVERDRIVE"
      0 115 "----"
      0 104 "----"
      0 97 "Not Displayed Percussion"
      0 96 "Displayed Percussion"
      0 95 "----"
      0 84 "C5"
    >
    MAINSEND 1 0
    <FXCHAIN
      WNDRECT 786 197 716 493
      SHOW 0
      LASTSEL 1
      DOCKED 0
      BYPASS 0 0
      <JS "IX/MIDI_Tool II" ""
        0.000000 85.000000 127.000000 0.000000 0.000000 0.000000 100.000000 0.000000 0.000000 127.000000 0.000000 0.000000 1.000000 0.000000 0.000000 - - - - - - - - - - - - - - - - - - - - - - - - - - - - - - - - - - - - - - - - - - - - - - - - - 
      >
      FLOATPOS 0 0 0 0
      FXID {2E79298C-F056-441C-A64B-722C2599E1AA}
      WAK 0
      BYPASS 0 0
      <VST "VSTi: ReaSynth (Cockos)" "reasynth.dll" 0 ""
        eXNlcu9e7f4AAAAAAgAAAAEAAAAAAAAAAgAAAAAAAAA4AAAAAAAAAA==
        AAAAAO++rd4N8K3eppvEOxe30ToAAAAAAAAAAAAAAACa9Q8/6WeIPQ==
        AAAAAAAAAD8AAIA/AAAAAAAAAD8AAAAAAAA=
      >
      FLOATPOS 0 0 0 0
      FXID {A391E59B-3475-47CA-9BDB-E03F3B8FF2C4}
      WAK 0
    >
    <ITEM
      POSITION 0.00000000000000
      SNAPOFFS 0.00000000000000
      LENGTH 266.94347893916307
      LOOP 0
      ALLTAKES 0
      SEL 0
      FADEIN 1 0.000000 0.000000 1 0
      FADEOUT 1 0.000000 0.000000 1 0
      MUTE 0
      IGUID {993BD912-0DF2-47C4-BB68-8216A3136C5E}
      IID 11
      NAME "HARM1 untitled MIDI item"
      VOLPAN 1.000000 0.000000 1.000000 -1.000000
      SOFFS 0.00000000000000 0.00000000000000
      PLAYRATE 1.00000000000000 1 0.00000000000000 -1
      CHANMODE 0
      GUID {4B51FA38-B2FC-4F03-8A55-8D948D921624}
      <SOURCE MIDI
        HASDATA 1 480 QN
        POOLEDEVTS {BA37BD25-1B11-49E8-BD86-62C5922C2157}
        <X 0 0
          /wNIQVJNMQ==
        >
        <X 3840 0
          /wFbaWRsZV0=
        >
        <X 44160 0
          /wFbbWVsbG93XQ==
        >
        E 750 90 69 61
        <X 1014 0
          /wVOZWkt
        >
        E 0 90 37 61
        E 501 80 37 00
        <X 141 0
          /wV0bw==
        >
        E 0 90 39 61
        E 175 80 39 00
        <X 123 0
          /wVrw6R5
        >
        E 0 90 3c 61
        E 673 80 3c 00
        <X 643 0
          /wVsw6Qt
        >
        E 0 90 3c 61
        E 448 80 3c 00
        <X 107 0
          /wVwaQ==
        >
        E 0 90 3c 61
        E 171 80 3c 00
        <X 57 0
          /wVtZXQt
        >
        E 0 90 37 61
        E 283 80 37 00
        <X 199 0
          /wVzw6Ru
        >
        E 0 90 3c 61
        E 483 80 3c 00
        E 652 80 69 00
        E 120 90 69 61
        <X 347 0
          /wVTeS0=
        >
        E 0 90 3c 61
        E 313 80 3c 00
        <X 144 0
          /wVkw6Ru
        >
        E 0 90 3a 61
        E 276 80 3a 00
        <X 110 0
          /wVoYWst
        >
        E 0 90 3f 61
        E 268 80 3f 00
        <X 402 0
          /wVrYWE=
        >
        E 0 90 3d 61
        E 1110 80 3d 00
        <X 90 0
          /wVyaW4t
        >
        E 0 90 3c 61
        E 404 80 3c 00
        <X 92 0
          /wVuYXMt
        >
        E 0 90 3a 61
        E 395 80 3a 00
        <X 92 0
          /wVzYWFu
        >
        E 0 90 39 61
        E 1632 80 39 00
        E 535 80 69 00
        E 391 90 69 61
        <X 289 0
          /wVLYXUt
        >
        E 0 90 38 61
        E 366 80 38 00
        <X 119 0
          /wVsYXMt
        >
        E 0 90 3a 61
        E 285 80 3a 00
        <X 136 0
          /wVzYWFu
        >
        E 0 90 3c 61
        E 799 80 3c 00
        <X 255 0
          /wVrYXUt
        >
        E 0 90 3c 61
        E 277 80 3c 00
        <X 169 0
          /wVuaXM=
        >
        E 0 90 38 61
        E 263 80 38 00
        <X 237 0
          /wVrby0=
        >
        E 0 90 37 61
        E 206 80 37 00
        <X 96 0
          /wVydQ==
        >
        E 0 90 3c 61
        E 246 80 3c 00
        E 205 80 69 00
        E 169 90 69 61
        E 0 90 74 61
        <X 172 0
          /wVTZW4=
        >
        E 0 90 3c 61
        E 330 80 3c 00
        <X 150 0
          /wVsYWgt
        >
        E 0 90 3f 61
        E 360 80 3f 00
        <X 120 0
          /wVqYWst
        >
        E 0 90 3b 61
        E 240 80 3b 00
        <X 134 0
          /wVzaQ==
        >
        E 0 90 3e 61
        E 326 80 3e 00
        <X 144 0
          /wVzYWk=
        >
        E 0 90 41 61
        E 2814 80 41 00
        E 267 80 69 00
        E 0 80 74 00
        E 1775 90 69 61
        <X 870 0
          /wVQb2kt
        >
        E 0 90 3f 61
        E 761 80 3f 00
        <X 172 0
          /wVrYQ==
        >
        E 0 90 3f 61
        E 435 80 3f 00
        <X 79 0
          /wVsZS0=
        >
        E 0 90 3f 61
        E 251 80 3f 00
        <X 83 0
          /wV2by0=
        >
        E 0 90 3c 61
        E 193 80 3c 00
        <X 183 0
          /wV0b24=
        >
        E 0 90 3a 61
        E 629 80 3a 00
        <X 108 0
          /wVvLQ==
        >
        E 0 90 39 61
        E 186 80 39 00
        <X 44 0
          /wVkb3Qt
        >
        E 0 90 39 61
        E 193 80 39 00
        <X 247 0
          /wV0YWE=
        >
        E 0 90 3c 61
        E 1237 80 3c 00
        E 133 80 69 00
        E 255 90 69 61
        <X 91 0
          /wVLby0=
        >
        E 0 90 3c 61
        E 137 80 3c 00
        <X 104 0
          /wVydW4=
        >
        E 0 90 3e 61
        E 157 80 3e 00
        <X 166 0
          /wVwdW8t
        >
        E 0 90 3f 61
        E 528 80 3f 00
        <X 87 0
          /wVsaS0=
        >
        E 0 90 3f 61
        E 153 80 3f 00
        <X 96 0
          /wVrYXM=
        >
        E 0 90 3f 61
        E 266 80 3f 00
        <X 270 0
          /wVrYXUt
        >
        E 0 90 3f 61
        E 404 80 3f 00
        <X 62 0
          /wUr
        >
        E 0 90 41 61
        E 397 80 41 00
        <X 84 0
          /wVsYXMt
        >
        E 0 90 3d 61
        E 271 80 3d 00
        <X 233 0
          /wVzYWFu
        >
        E 0 90 3c 61
        E 1875 80 3c 00
        E 125 80 69 00
        E 255 90 69 61
        <X 363 0
          /wVKYQ==
        >
        E 0 90 39 61
        E 117 80 39 00
        <X 126 0
          /wVwb2wt
        >
        E 0 90 3f 61
        E 534 80 3f 00
        <X 180 0
          /wVrdWE=
        >
        E 0 90 3f 61
        E 450 80 3f 00
        <X 234 0
          /wVwaXQt
        >
        E 0 90 3f 61
        E 246 80 3f 00
        <X 246 0
          /wVraW4=
        >
        E 0 90 3d 61
        E 294 80 3d 00
        <X 129 0
          /wVrw6R5
        >
        E 0 90 3a 61
        E 339 80 3a 00
        <X 215 0
          /wV0eXQt
        >
        E 0 90 3c 61
        E 237 80 3c 00
        <X 445 0
          /wV0w7Y=
        >
        E 0 90 35 61
        E 283 80 35 00
        E 210 80 69 00
        E 183 90 69 61
        E 0 90 74 61
        <X 356 0
          /wVKw6RsLQ==
        >
        E 0 90 38 61
        E 525 80 38 00
        <X 138 0
          /wVsZWVu
        >
        E 0 90 35 61
        E 330 80 35 00
        <X 196 0
          /wVrb2gt
        >
        E 0 90 37 61
        E 314 80 37 00
        <X 90 0
          /wVkYS0=
        >
        E 0 90 35 61
        E 120 80 35 00
        <X 140 0
          /wV0YWFu
        >
        E 0 90 35 61
        E 2428 80 35 00
        E 231 80 69 00
        E 0 80 74 00
        E 471 90 00 60
        E 390 80 00 00
        E 120 90 69 60
        <X 3360 0
          /wVhbC0=
        >
        E 0 90 45 60
        E 420 80 45 00
        <X 60 0
          /wVsYQ==
        >
        E 0 90 48 60
        E 300 80 48 00
        <X 120 0
          /wVrdXUt
        >
        E 0 90 48 60
        E 600 80 48 00
        <X 161 0
          /wV0YS0=
        >
        E 0 90 45 60
        E 167 80 45 00
        <X 65 0
          /wVtb24=
        >
        e 0 90 41 60
        e 619 80 41 00
        E 32 80 69 00
        E 210 90 69 61
        <X 3024 0
          /wVrYWkt
        >
        E 0 90 45 60
        E 379 80 45 00
        <X 101 0
          /wVrdXU=
        >
        E 0 90 47 60
        E 792 80 47 00
        <X 120 0
          /wVtYWE=
        >
        E 0 90 48 60
        E 1920 80 48 00
        E 148 80 69 00
        E 282 90 69 60
        <X 47 0
          /wVUYW5zLQ==
        >
        E 0 90 4c 60
        E 679 80 4c 00
        <X 70 0
          /wVzaS0=
        >
        E 0 90 4c 60
        E 136 80 4c 00
        <X 92 0
          /wVzYS0=
        >
        E 0 90 4c 60
        E 181 80 4c 00
        <X 75 0
          /wVsaS0=
        >
        E 0 90 4c 60
        E 108 80 4c 00
        <X 120 0
          /wVuYW0t
        >
        E 0 90 48 60
        E 300 80 48 00
        <X 143 0
          /wVtZQ==
        >
        E 0 90 48 60
        E 149 80 48 00
        <X 348 0
          /wVzb2k=
        >
        E 0 90 48 60
        E 274 80 48 00
        <X 182 0
          /wV0w6RoLQ==
        >
        E 0 90 4a 60
        E 322 80 4a 00
        <X 200 0
          /wV0aS0=
        >
        E 0 90 48 60
        E 206 80 48 00
        <X 58 0
          /wVlbg==
        >
        E 0 90 46 60
        E 424 80 46 00
        <X 257 0
          /wV2ecO2
        >
        E 0 90 48 60
        E 467 80 48 00
        E 35 80 69 00
        E 84 90 69 61
        E 0 90 74 61
        <X 2803 0
          /wVraXIt
        >
        E 0 90 43 60
        E 270 80 43 00
        <X 182 0
          /wVrYXM=
        >
        E 0 90 40 60
        E 385 80 40 00
        <X 123 0
          /wV5w7Y=
        >
        E 0 90 41 60
        E 1920 80 41 00
        E 87 80 69 00
        E 0 80 74 00
        <X 393 0
          /wFbaWRsZV0=
        >
        E 19650 90 00 60
        E 390 80 00 00
        <X 3028 0
          /wFbbWVsbG93XQ==
        >
        E 92 90 69 60
        <X 388 0
          /wVBLQ==
        >
        E 0 90 37 60
        E 224 80 37 00
        <X 93 0
          /wV2YS0=
        >
        E 0 90 39 60
        E 255 80 39 00
        <X 60 0
          /wVydXVz
        >
        E 0 90 3c 60
        E 1502 80 3c 00
        <X 293 0
          /wVvbg==
        >
        E 0 90 37 60
        E 290 80 37 00
        <X 180 0
          /wVzdXUt
        >
        E 0 90 37 60
        E 782 80 37 00
        <X 136 0
          /wVyaQ==
        >
        E 0 90 3c 60
        E 269 80 3c 00
        E 275 80 69 00
        E 569 90 69 61
        <X 295 0
          /wVKYQ==
        >
        E 0 90 3d 60
        E 414 80 3d 00
        <X 185 0
          /wVtaXQt
        >
        E 0 90 3f 60
        E 281 80 3f 00
        <X 456 0
          /wV0YWEt
        >
        E 0 90 3d 60
        E 1571 80 3d 00
        <X 92 0
          /wVtYS0=
        >
        E 0 90 3c 60
        E 208 80 3c 00
        <X 92 0
          /wV0b24=
        >
        E 0 90 3a 60
        E 667 80 3a 00
        E 444 80 69 00
        E 1529 90 69 60
        <X 395 0
          /wVLYXQt
        >
        E 0 90 37 60
        E 213 80 37 00
        <X 118 0
          /wVzZWVzLQ==
        >
        E 0 90 3a 60
        E 473 80 3a 00
        <X 271 0
          /wVzYQ==
        >
        E 0 90 3c 60
        E 270 80 3c 00
        <X 539 0
          /wV5cy0=
        >
        E 0 90 3b 60
        E 351 80 3b 00
        <X 147 0
          /wV0w6Qt
        >
        E 0 90 37 60
        E 153 80 37 00
        <X 120 0
          /wV2eXMt
        >
        E 0 90 37 60
        E 314 80 37 00
        <X 188 0
          /wV0ZW4=
        >
        E 0 90 3c 60
        E 678 80 3c 00
        E 348 80 69 00
        E 385 90 69 61
        E 0 90 74 61
        <X 156 0
          /wVIZWkt
        >
        E 0 90 3f 60
        E 409 80 3f 00
        <X 105 0
          /wVqYXMt
        >
        E 0 90 3c 60
        E 270 80 3c 00
        <X 217 0
          /wV0dXUt
        >
        E 0 90 41 60
        E 2461 80 41 00
        <X 330 0
          /wUr
        >
        E 0 90 3f 60
        E 1493 80 3f 00
        E 150 80 69 00
        E 0 80 74 00
        E 1086 90 69 60
        <X 242 0
          /wVBYWwt
        >
        E 0 90 3f 60
        E 657 80 3f 00
        <X 125 0
          /wVsb3Q=
        >
        E 0 90 3f 60
        E 347 80 3f 00
        <X 279 0
          /wVrYWwt
        >
        E 0 90 3f 60
        E 563 80 3f 00
        <X 254 0
          /wVsaS0=
        >
        E 0 90 3c 60
        E 132 80 3c 00
        <X 92 0
          /wVvb24=
        >
        E 0 90 39 60
        E 369 80 39 00
        <X 121 0
          /wVoYWpvLQ==
        >
        E 0 90 39 60
        E 376 80 39 00
        <X 284 0
          /wVhYQ==
        >
        E 0 90 3c 60
        E 1140 80 3c 00
        E 272 80 69 00
        E 529 90 69 61
        <X 183 0
          /wVMb2lzLQ==
        >
        E 0 90 3f 60
        E 627 80 3f 00
        <X 248 0
          /wV0YWE=
        >
        E 0 90 3f 60
        E 439 80 3f 00
        <X 181 0
          /wVwaS0=
        >
        E 0 90 3e 60
        E 130 80 3e 00
        <X 123 0
          /wVzYS0=
        >
        E 0 90 41 60
        E 236 80 41 00
        <X 103 0
          /wVyYXQ=
        >
        E 0 90 3d 60
        E 293 80 3d 00
        <X 463 0
          /wVrYXMt
        >
        E 0 90 3c 60
        E 311 80 3c 00
        <X 115 0
          /wV2b2lsLQ==
        >
        E 0 90 39 60
        E 429 80 39 00
        <X 208 0
          /wVsYQ==
        >
        E 0 90 38 60
        E 878 80 38 00
        E 330 80 69 00
        E 232 90 69 60
        <X 131 0
          /wVKYQ==
        >
        E 0 90 37 60
        E 117 80 37 00
        <X 136 0
          /wVrb3It
        >
        E 0 90 3e 60
        E 598 80 3e 00
        <X 173 0
          /wVrZS0=
        >
        E 0 90 3f 60
        E 231 80 3f 00
        <X 75 0
          /wVhbg==
        >
        E 0 90 3f 60
        E 241 80 3f 00
        <X 180 0
          /wVqeXIt
        >
        E 0 90 3f 60
        E 247 80 3f 00
        <X 161 0
          /wVrw6RuLQ==
        >
        E 0 90 3c 60
        E 309 80 3c 00
        <X 149 0
          /wV0ZWVu
        >
        E 0 90 3a 60
        E 346 80 3a 00
        <X 173 0
          /wVwaWVuLQ==
        >
        E 0 90 3c 60
        E 586 80 3c 00
        <X 141 0
          /wVuYXI=
        >
        E 0 90 35 60
        E 573 80 35 00
        E 180 80 69 00
        E 285 90 69 61
        E 0 90 74 61
        <X 127 0
          /wVZw7Yt
        >
        E 0 90 35 60
        E 407 80 35 00
        <X 137 0
          /wVow7Zu
        >
        E 0 90 34 60
        E 307 80 34 00
        <X 170 0
          /wVhdS0=
        >
        E 0 90 37 60
        E 522 80 37 00
        <X 227 0
          /wVrZWFh
        >
        E 0 90 35 60
        E 2442 80 35 00
        E 133 80 69 00
        E 0 80 74 00
        E 665 90 00 60
        E 270 80 00 00
        E 180 90 69 60
        <X 3253 0
          /wVhbC0=
        >
        E 0 90 45 60
        E 420 80 45 00
        <X 60 0
          /wVsYQ==
        >
        E 0 90 48 60
        E 300 80 48 00
        <X 120 0
          /wVrdXUt
        >
        E 0 90 48 60
        E 600 80 48 00
        <X 161 0
          /wV0YS0=
        >
        E 0 90 45 60
        E 167 80 45 00
        <X 65 0
          /wVtb24=
        >
        E 0 90 41 60
        E 619 80 41 00
        E 41 80 69 00
        E 194 90 69 61
        <X 3031 0
          /wVrYWkt
        >
        E 0 90 45 60
        E 379 80 45 00
        <X 101 0
          /wVrdXU=
        >
        E 0 90 47 60
        E 792 80 47 00
        <X 120 0
          /wVtYWE=
        >
        E 0 90 48 60
        E 1920 80 48 00
        E 61 80 69 00
        E 196 90 69 60
        <X 220 0
          /wVUYW5zLQ==
        >
        E 0 90 4c 60
        E 679 80 4c 00
        <X 70 0
          /wVzaS0=
        >
        E 0 90 4c 60
        E 136 80 4c 00
        <X 92 0
          /wVzYS0=
        >
        E 0 90 4c 60
        E 181 80 4c 00
        <X 75 0
          /wVsaS0=
        >
        E 0 90 4c 60
        E 108 80 4c 00
        <X 120 0
          /wVuYW0t
        >
        E 0 90 48 60
        E 300 80 48 00
        <X 143 0
          /wVtZQ==
        >
        E 0 90 48 60
        E 149 80 48 00
        <X 348 0
          /wVzb2k=
        >
        E 0 90 48 60
        E 274 80 48 00
        <X 182 0
          /wV0w6RoLQ==
        >
        E 0 90 4a 60
        E 322 80 4a 00
        <X 200 0
          /wV0aS0=
        >
        E 0 90 48 60
        E 206 80 48 00
        <X 58 0
          /wVlbg==
        >
        E 0 90 46 60
        E 424 80 46 00
        <X 257 0
          /wV2ecO2
        >
        E 0 90 48 60
        E 467 80 48 00
        E 36 80 69 00
        E 66 90 69 61
        E 0 90 74 61
        <X 2820 0
          /wVraXIt
        >
        E 0 90 43 60
        E 270 80 43 00
        <X 182 0
          /wVrYXM=
        >
        E 0 90 40 60
        E 385 80 40 00
        <X 123 0
          /wV5w7Y=
        >
        E 0 90 41 60
        E 1560 80 41 00
        E 46 80 69 00
        E 0 80 74 00
        E 91 90 69 60
        <X 3046 0
          /wVhbC0=
        >
        E 0 90 45 60
        E 420 80 45 00
        <X 60 0
          /wVsYQ==
        >
        E 0 90 48 60
        E 300 80 48 00
        <X 120 0
          /wVrdXUt
        >
        E 0 90 48 60
        E 600 80 48 00
        <X 161 0
          /wV0YS0=
        >
        E 0 90 45 60
        E 167 80 45 00
        <X 65 0
          /wVtb24=
        >
        E 0 90 41 60
        E 619 80 41 00
        E 88 80 69 00
        E 83 90 69 61
        <X 3095 0
          /wVrYWkt
        >
        E 0 90 45 60
        E 379 80 45 00
        <X 101 0
          /wVrdXU=
        >
        E 0 90 47 60
        E 792 80 47 00
        <X 120 0
          /wVtYWE=
        >
        E 0 90 48 60
        E 1920 80 48 00
        E 112 80 69 00
        E 262 90 69 60
        <X 103 0
          /wVUYW5zLQ==
        >
        E 0 90 4c 60
        E 679 80 4c 00
        <X 70 0
          /wVzaS0=
        >
        E 0 90 4c 60
        E 136 80 4c 00
        <X 92 0
          /wVzYS0=
        >
        E 0 90 4c 60
        E 181 80 4c 00
        <X 75 0
          /wVsaS0=
        >
        E 0 90 4c 60
        E 108 80 4c 00
        <X 120 0
          /wVuYW0t
        >
        E 0 90 48 60
        E 300 80 48 00
        <X 143 0
          /wVtZQ==
        >
        E 0 90 48 60
        E 149 80 48 00
        <X 348 0
          /wVzb2k=
        >
        E 0 90 48 60
        E 274 80 48 00
        <X 182 0
          /wV0w6RoLQ==
        >
        E 0 90 4a 60
        E 322 80 4a 00
        <X 200 0
          /wV0aS0=
        >
        E 0 90 48 60
        E 206 80 48 00
        <X 58 0
          /wVlbg==
        >
        E 0 90 46 60
        E 424 80 46 00
        <X 257 0
          /wV2ecO2
        >
        E 0 90 48 60
        E 467 80 48 00
        E 44 80 69 00
        E 43 90 69 61
        E 0 90 74 61
        <X 2835 0
          /wVraXIt
        >
        E 0 90 43 60
        E 270 80 43 00
        <X 182 0
          /wVrYXM=
        >
        E 0 90 40 60
        E 385 80 40 00
        <X 123 0
          /wV5w7Y=
        >
        E 0 90 41 60
        E 1560 80 41 00
        E 46 80 69 00
        E 0 80 74 00
        E 268 90 69 60
        <X 2983 0
          /wVhbC0=
        >
        E 0 90 45 60
        E 420 80 45 00
        <X 60 0
          /wVsYQ==
        >
        E 0 90 48 60
        E 300 80 48 00
        <X 120 0
          /wVrdXUt
        >
        E 0 90 48 60
        E 600 80 48 00
        <X 161 0
          /wV0YS0=
        >
        E 0 90 45 60
        E 167 80 45 00
        <X 65 0
          /wVtb24=
        >
        E 0 90 41 60
        E 619 80 41 00
        E 81 80 69 00
        E 118 90 69 61
        <X 3067 0
          /wVrYWkt
        >
        E 0 90 45 60
        E 379 80 45 00
        <X 101 0
          /wVrdXU=
        >
        E 0 90 47 60
        E 792 80 47 00
        <X 120 0
          /wVtYWE=
        >
        E 0 90 48 60
        E 1920 80 48 00
        E 91 80 69 00
        E 256 90 69 60
        <X 130 0
          /wVUYW5zLQ==
        >
        E 0 90 4c 60
        E 679 80 4c 00
        <X 70 0
          /wVzaS0=
        >
        E 0 90 4c 60
        E 136 80 4c 00
        <X 92 0
          /wVzYS0=
        >
        E 0 90 4c 60
        E 181 80 4c 00
        <X 75 0
          /wVsaS0=
        >
        E 0 90 4c 60
        E 108 80 4c 00
        <X 120 0
          /wVuYW0t
        >
        E 0 90 48 60
        E 300 80 48 00
        <X 143 0
          /wVtZQ==
        >
        E 0 90 48 60
        E 149 80 48 00
        <X 348 0
          /wVzb2k=
        >
        E 0 90 48 60
        E 274 80 48 00
        <X 182 0
          /wV0w6RoLQ==
        >
        E 0 90 4a 60
        E 322 80 4a 00
        <X 200 0
          /wV0aS0=
        >
        E 0 90 48 60
        E 206 80 48 00
        <X 58 0
          /wVlbg==
        >
        E 0 90 46 60
        E 424 80 46 00
        <X 257 0
          /wV2ecO2
        >
        E 0 90 48 60
        E 467 80 48 00
        E 49 80 69 00
        E 55 90 69 61
        <X 2818 0
          /wVraXIt
        >
        E 0 90 43 60
        E 270 80 43 00
        <X 182 0
          /wVrYXM=
        >
        E 0 90 40 60
        E 385 80 40 00
        <X 123 0
          /wV5w7Y=
        >
        E 0 90 41 60
        E 1560 80 41 00
        E 348 80 69 00
        <X 132 0
          /wFbaWRsZV9yZWFsdGltZV0=
        >
        E 42557 b0 7b 00
        GUID {A03C6B1C-514F-4475-A5AA-A89B4DCBB0FA}
        IGNTEMPO 0 120.00000000 4 4
        SRCCOLOR 1258
        VELLANE 132 128 60
        COLORMAP "C:\Users\me\AppData\Roaming\REAPER\Data\color_maps\rockband_vox-other.png"
        TEXTSTRINGFILE "C:\Program Files\REAPER\Data\Text_Strings\Text Events List.txt"
        CFGEDITVIEW -15076.543063 6.017295 20 12 0 0 0
        CFGEDIT 1 1 0 1 1 1 1 1 1 1 1 0.06250000 -8 -8 1374 736 1 2 1 2 0.00000000 0 0 0 0 0.500000 0 0 1.000000 64
        KEYSNAP 0 0 "102034050607" 0 "Major"
        EVTFILTER 0 -1 -1 -1 -1 0 1 0 0 -1.00000000 -1.00000000
      >
    >
  >
  <TRACK '{4A30D2A4-111B-40E3-8633-0926E85E641C}'
    NAME "DRYVOX1"
    PEAKCOL 16576
    BEAT -1
    AUTOMODE 0
    VOLPAN 1.08695635014794 -0.09600000000000 -1.00000000000000 -1.00000000000000 1.00000000000000
    MUTESOLO 1 0 0
    IPHASE 0
    ISBUS 0 0
    BUSCOMP 0 0
    SHOWINMIX 1 0.666700 0.500000 1 0.500000 -1 -1 -1
    FREEMODE 0
    SEL 0
    REC 0 0 0 0 0 0 0
    TRACKHEIGHT 182 0
    INQ 0 0 0 0.5000000000 100 0 0 100
    NCHAN 2
    FX 1
    TRACKID {4A30D2A4-111B-40E3-8633-0926E85E641C}
    PERF 0
    MIDIOUT -1
    MAINSEND 1 0
    <FXCHAIN
      SHOW 0
      LASTSEL 0
      DOCKED 0
      BYPASS 0 0
      <VST "VST: ReaGate (Cockos)" "reagate.dll" 0 ""
        dGdlcu9e7f4EAAAAAQAAAAAAAAACAAAAAAAAAAQAAAAAAAAACAAAAA==
        AAAAAAIAAAABAAAAAAAAAAIAAAAAAAAAVAAAAAAAAAAAABAA776t3g==
        DfCt3pzRBzOmm8Q7CtejPAAAAAAAAAAAAACAPwAAAAAAAAAAAAAAAA==
        nNEHMx5Ucz+c0QczAACAPwAAAAAAAAAAAAAAACwWCz8AAAAAAAAAAA==
        AAAQAAAA
      >
      FLOATPOS 859 184 511 385
      FXID {BF545B5B-7DD0-4B4C-AC52-F095A552DA08}
      WAK 0
    >
    <ITEM
      POSITION 0.00000000000000
      SNAPOFFS 0.00000000000000
      LENGTH 267.21181005651357
      LOOP 1
      ALLTAKES 0
      SEL 0
      FADEIN 1 0.000000 0.000000 1 0
      FADEOUT 1 0.000000 0.000000 1 0
      MUTE 0
      IGUID {6182D6ED-BA0A-4B18-BFF6-64380D0CCA06}
      IID 395
      NAME "19 Juhlat Alkakoon-vocals-F minor-70bpm-441hz.mp3 glued"
      VOLPAN 1.000000 0.000000 1.000000 -1.000000
      SOFFS 0.00000000000000
      PLAYRATE 1.00000000000000 1 0.00000000000000 -1
      CHANMODE 0
      GUID {44FFBE32-5108-44EE-809C-084659DAF61D}
      <SOURCE WAVE
        FILE "12-19 Juhlat Alkakoon-vocals-only-samuli-F minor-70bpm-441hz-glued-250628_2108.wav"
      >
    >
  >
  <TRACK '{983C7D04-DAF6-462A-B5E6-64213F29FBA0}'
    NAME "HARM2"
    PEAKCOL 24624127
    BEAT -1
    AUTOMODE 0
    VOLPAN 1.00497380427334 0.00000000000000 -1.00000000000000 -1.00000000000000 1.00000000000000
    MUTESOLO 0 0 0
    IPHASE 0
    ISBUS 0 0
    BUSCOMP 0 0
    SHOWINMIX 1 0.666700 0.500000 1 0.500000 -1 -1 -1
    FREEMODE 0
    SEL 0
    REC 0 0 0 0 0 0 0
    TRACKHEIGHT 0 0
    INQ 0 0 0 0.5000000000 100 0 0 100
    NCHAN 2
    FX 1
    TRACKID {983C7D04-DAF6-462A-B5E6-64213F29FBA0}
    PERF 0
    MIDIOUT -1
    <MIDINOTENAMES
      0 0 "Range Shift"
      0 1 "Lyric Shift"
      0 36 "C1"
      0 37 "C#"
      0 38 "D"
      0 39 "Eb"
      0 40 "E"
      0 41 "F"
      0 42 "F#"
      0 43 "G"
      0 44 "G#"
      0 45 "A"
      0 46 "Bb"
      0 47 "B"
      0 48 "C2"
      0 49 "C#"
      0 50 "D"
      0 51 "Eb"
      0 52 "E"
      0 53 "F"
      0 54 "F#"
      0 55 "G"
      0 56 "G#"
      0 57 "A"
      0 58 "Bb"
      0 59 "B"
      0 60 "C3"
      0 61 "C#"
      0 62 "D"
      0 63 "Eb"
      0 64 "E"
      0 65 "F"
      0 66 "F#"
      0 67 "G"
      0 68 "G#"
      0 69 "A"
      0 70 "Bb"
      0 71 "B"
      0 72 "C4"
      0 73 "C#"
      0 74 "D"
      0 75 "Eb"
      0 76 "E"
      0 77 "F"
      0 78 "F#"
      0 79 "G"
      0 80 "G#"
      0 81 "A"
      0 82 "Bb"
      0 83 "B"
      0 105 "Phrase Marker"
      0 35 "----"
      0 84 "C5"
      0 116 "OVERDRIVE"
      0 115 "----"
      0 104 "----"
      0 97 "Not Displayed Percussion"
      0 96 "Displayed Percussion"
      0 95 "----"
    >
    MAINSEND 1 0
    <FXCHAIN
      WNDRECT 0 42 716 493
      SHOW 0
      LASTSEL 1
      DOCKED 0
      BYPASS 0 0
      <JS "IX/MIDI_Tool II" ""
        0.000000 85.000000 127.000000 0.000000 0.000000 0.000000 100.000000 0.000000 0.000000 127.000000 0.000000 0.000000 1.000000 0.000000 0.000000 - - - - - - - - - - - - - - - - - - - - - - - - - - - - - - - - - - - - - - - - - - - - - - - - - 
      >
      FLOATPOS 0 0 0 0
      FXID {0D2127EF-90E6-4278-AB57-59BADA75D3A0}
      WAK 0
      BYPASS 0 0
      <VST "VSTi: ReaSynth (Cockos)" "reasynth.dll" 0 ""
        eXNlcu9e7f4AAAAAAgAAAAEAAAAAAAAAAgAAAAAAAAA4AAAAAAAAAA==
        AAAAAO++rd4N8K3eppvEOxe30ToAAAAAAAAAAAAAAACa9Q8/6WeIPQ==
        AAAAAAAAAD8AAIA/AAAAAAAAAD8AAAAAAAA=
      >
      FLOATPOS 0 0 0 0
      FXID {9CF76FE8-51DE-4F46-8774-EF282D9874DF}
      WAK 0
    >
    <ITEM
      POSITION 0.00000000000000
      SNAPOFFS 0.00000000000000
      LENGTH 266.94347893916307
      LOOP 0
      ALLTAKES 0
      SEL 0
      FADEIN 1 0.000000 0.000000 1 0
      FADEOUT 1 0.000000 0.000000 1 0
      MUTE 0
      IGUID {85B4D2FA-0EE6-4979-8286-EAC89A15680D}
      IID 12
      NAME "HARM2 untitled MIDI item"
      VOLPAN 1.000000 0.000000 1.000000 -1.000000
      SOFFS 0.00000000000000 0.00000000000000
      PLAYRATE 1.00000000000000 1 0.00000000000000 -1
      CHANMODE 0
      GUID {67C8C31A-733D-46F5-9A6D-0FDF2143554E}
      <SOURCE MIDI
        HASDATA 1 480 QN
        POOLEDEVTS {E783839E-B65C-4666-A3D6-75EAA9A93CF6}
        <X 0 0
          /wNIQVJNMg==
        >
        <X 3840 0
          /wFbaWRsZV0=
        >
        <X 44160 0
          /wFbbWVsbG93XQ==
        >
        E 750 90 69 61
        E 5670 80 69 00
        E 120 90 69 61
        E 6210 80 69 00
        E 391 90 69 61
        E 3948 80 69 00
        E 169 90 69 61
        E 0 90 74 61
        E 5057 80 69 00
        E 0 80 74 00
        E 1775 90 69 61
        E 5804 80 69 00
        E 255 90 69 61
        E 5506 80 69 00
        E 255 90 69 61
        E 4648 80 69 00
        E 183 90 69 61
        E 0 90 74 61
        E 4868 80 69 00
        E 0 80 74 00
        E 471 90 00 60
        E 390 80 00 00
        E 120 90 69 60
        <X 407 0
          /wVKdWgt
        >
        E 0 90 41 60
        E 303 80 41 00
        <X 157 0
          /wVsYXQ=
        >
        E 0 90 45 60
        E 273 80 45 00
        <X 240 0
          /wVhbC0=
        >
        E 0 90 43 60
        E 570 80 43 00
        <X 164 0
          /wVrYS0=
        >
        E 0 90 41 60
        E 120 80 41 00
        <X 136 0
          /wVrb29u
        >
        E 0 90 3c 60
        E 1680 80 3c 00
        <X 240 0
          /wUr
        >
        E 0 90 47 60
        E 1440 80 47 00
        E 174 80 69 00
        E 210 90 69 61
        <X 98 0
          /wVKdWgt
        >
        E 0 90 41 60
        E 360 80 41 00
        <X 60 0
          /wVsYXQ=
        >
        E 0 90 45 60
        E 390 80 45 00
        <X 148 0
          /wVhbC0=
        >
        E 0 90 43 60
        E 569 80 43 00
        <X 163 0
          /wVrYS0=
        >
        E 0 90 41 60
        E 127 80 41 00
        <X 135 0
          /wVrb29u
        >
        E 0 90 3c 60
        E 1646 80 3c 00
        <X 240 0
          /wUr
        >
        E 0 90 45 60
        E 2400 80 45 00
        E 148 80 69 00
        E 282 90 69 60
        <X 47 0
          /wVUYW5zLQ==
        >
        E 0 90 47 60
        E 679 80 47 00
        <X 70 0
          /wVzaS0=
        >
        E 0 90 47 60
        E 136 80 47 00
        <X 92 0
          /wVzYS0=
        >
        E 0 90 45 60
        E 181 80 45 00
        <X 75 0
          /wVsaS0=
        >
        E 0 90 45 60
        E 108 80 45 00
        <X 120 0
          /wVuYW0t
        >
        E 0 90 43 60
        E 300 80 43 00
        <X 143 0
          /wVtZQ==
        >
        E 0 90 43 60
        E 149 80 43 00
        <X 348 0
          /wVzb2k=
        >
        E 0 90 43 60
        E 274 80 43 00
        <X 182 0
          /wV0w6RoLQ==
        >
        E 0 90 45 60
        E 322 80 45 00
        <X 200 0
          /wV0aS0=
        >
        E 0 90 43 60
        E 206 80 43 00
        <X 58 0
          /wVlbg==
        >
        E 0 90 41 60
        E 424 80 41 00
        <X 257 0
          /wV2ecO2
        >
        E 0 90 43 60
        E 467 80 43 00
        E 35 80 69 00
        E 84 90 69 61
        E 0 90 74 61
        <X 80 0
          /wVKdWgt
        >
        E 0 90 41 60
        E 173 80 41 00
        <X 90 0
          /wVsYXQ=
        >
        E 0 90 45 60
        E 295 80 45 00
        <X 201 0
          /wVhbC0=
        >
        E 0 90 43 60
        E 606 80 43 00
        <X 128 0
          /wVrYS0=
        >
        E 0 90 41 60
        E 120 80 41 00
        <X 120 0
          /wVrb29u
        >
        E 0 90 3c 60
        E 1680 80 3c 00
        E 2277 80 69 00
        E 0 80 74 00
        <X 393 0
          /wFbaWRsZV0=
        >
        E 19650 90 00 60
        E 390 80 00 00
        <X 3028 0
          /wFbbWVsbG93XQ==
        >
        E 92 90 69 60
        E 4747 80 69 00
        E 569 90 69 61
        E 4705 80 69 00
        E 1529 90 69 60
        E 4578 80 69 00
        E 385 90 69 61
        E 0 90 74 61
        E 5591 80 69 00
        E 0 80 74 00
        E 1086 90 69 60
        E 5253 80 69 00
        E 529 90 69 61
        E 5297 80 69 00
        E 232 90 69 60
        E 4747 80 69 00
        E 285 90 69 61
        E 0 90 74 61
        E 4472 80 69 00
        E 0 80 74 00
        E 665 90 00 60
        E 270 80 00 00
        E 180 90 69 60
        <X 300 0
          /wVKdWgt
        >
        E 0 90 41 60
        E 303 80 41 00
        <X 157 0
          /wVsYXQ=
        >
        E 0 90 45 60
        E 273 80 45 00
        <X 240 0
          /wVhbC0=
        >
        E 0 90 43 60
        E 570 80 43 00
        <X 164 0
          /wVrYS0=
        >
        E 0 90 41 60
        E 120 80 41 00
        <X 136 0
          /wVrb29u
        >
        E 0 90 3c 60
        E 1667 80 3c 00
        <X 240 0
          /wUr
        >
        E 0 90 47 60
        E 1440 80 47 00
        E 196 80 69 00
        E 194 90 69 61
        <X 105 0
          /wVKdWgt
        >
        E 0 90 41 60
        E 360 80 41 00
        <X 60 0
          /wVsYXQ=
        >
        E 0 90 45 60
        E 390 80 45 00
        <X 148 0
          /wVhbC0=
        >
        E 0 90 43 60
        E 569 80 43 00
        <X 163 0
          /wVrYS0=
        >
        E 0 90 41 60
        E 127 80 41 00
        <X 135 0
          /wVrb29u
        >
        E 0 90 3c 60
        E 1633 80 3c 00
        <X 240 0
          /wUr
        >
        E 0 90 45 60
        E 2400 80 45 00
        E 74 80 69 00
        E 196 90 69 60
        <X 220 0
          /wVUYW5zLQ==
        >
        E 0 90 47 60
        E 679 80 47 00
        <X 70 0
          /wVzaS0=
        >
        E 0 90 47 60
        E 136 80 47 00
        <X 92 0
          /wVzYS0=
        >
        E 0 90 45 60
        E 181 80 45 00
        <X 75 0
          /wVsaS0=
        >
        E 0 90 45 60
        E 108 80 45 00
        <X 120 0
          /wVuYW0t
        >
        E 0 90 43 60
        E 300 80 43 00
        <X 143 0
          /wVtZQ==
        >
        E 0 90 43 60
        E 149 80 43 00
        <X 348 0
          /wVzb2k=
        >
        E 0 90 43 60
        E 274 80 43 00
        <X 182 0
          /wV0w6RoLQ==
        >
        E 0 90 45 60
        E 322 80 45 00
        <X 200 0
          /wV0aS0=
        >
        E 0 90 43 60
        E 206 80 43 00
        <X 58 0
          /wVlbg==
        >
        E 0 90 41 60
        E 424 80 41 00
        <X 257 0
          /wV2ecO2
        >
        E 0 90 43 60
        E 467 80 43 00
        E 36 80 69 00
        E 66 90 69 61
        E 0 90 74 61
        <X 31 0
          /wVKdWgt
        >
        E 0 90 41 60
        E 239 80 41 00
        <X 90 0
          /wVsYXQ=
        >
        E 0 90 45 60
        E 295 80 45 00
        <X 201 0
          /wVhbC0=
        >
        E 0 90 43 60
        E 606 80 43 00
        <X 128 0
          /wVrYS0=
        >
        E 0 90 41 60
        E 120 80 41 00
        <X 120 0
          /wVrb29u
        >
        E 0 90 3c 60
        E 1667 80 3c 00
        E 1889 80 69 00
        E 0 80 74 00
        E 91 90 69 60
        <X 93 0
          /wVKdWgt
        >
        E 0 90 41 60
        E 303 80 41 00
        <X 157 0
          /wVsYXQ=
        >
        E 0 90 45 60
        E 273 80 45 00
        <X 240 0
          /wVhbC0=
        >
        E 0 90 43 60
        E 570 80 43 00
        <X 164 0
          /wVrYS0=
        >
        E 0 90 41 60
        E 120 80 41 00
        <X 136 0
          /wVrb29u
        >
        E 0 90 3c 60
        E 1724 80 3c 00
        <X 240 0
          /wUr
        >
        E 0 90 47 60
        E 1440 80 47 00
        E 186 80 69 00
        E 83 90 69 61
        <X 169 0
          /wVKdWgt
        >
        E 0 90 41 60
        E 360 80 41 00
        <X 60 0
          /wVsYXQ=
        >
        E 0 90 45 60
        E 390 80 45 00
        <X 148 0
          /wVhbC0=
        >
        E 0 90 43 60
        E 569 80 43 00
        <X 163 0
          /wVrYS0=
        >
        E 0 90 41 60
        E 127 80 41 00
        <X 135 0
          /wVrb29u
        >
        E 0 90 3c 60
        E 1690 80 3c 00
        <X 240 0
          /wUr
        >
        E 0 90 45 60
        E 2400 80 45 00
        E 68 80 69 00
        E 262 90 69 60
        <X 103 0
          /wVUYW5zLQ==
        >
        E 0 90 47 60
        E 679 80 47 00
        <X 70 0
          /wVzaS0=
        >
        E 0 90 47 60
        E 136 80 47 00
        <X 92 0
          /wVzYS0=
        >
        E 0 90 45 60
        E 181 80 45 00
        <X 75 0
          /wVsaS0=
        >
        E 0 90 45 60
        E 108 80 45 00
        <X 120 0
          /wVuYW0t
        >
        E 0 90 43 60
        E 300 80 43 00
        <X 143 0
          /wVtZQ==
        >
        E 0 90 43 60
        E 149 80 43 00
        <X 348 0
          /wVzb2k=
        >
        E 0 90 43 60
        E 274 80 43 00
        <X 182 0
          /wV0w6RoLQ==
        >
        E 0 90 45 60
        E 322 80 45 00
        <X 200 0
          /wV0aS0=
        >
        E 0 90 43 60
        E 206 80 43 00
        <X 58 0
          /wVlbg==
        >
        E 0 90 41 60
        E 424 80 41 00
        <X 257 0
          /wV2ecO2
        >
        E 0 90 43 60
        E 467 80 43 00
        E 44 80 69 00
        E 43 90 69 61
        E 0 90 74 61
        <X 46 0
          /wVKdWgt
        >
        E 0 90 41 60
        E 239 80 41 00
        <X 90 0
          /wVsYXQ=
        >
        E 0 90 45 60
        E 295 80 45 00
        <X 201 0
          /wVhbC0=
        >
        E 0 90 43 60
        E 606 80 43 00
        <X 128 0
          /wVrYS0=
        >
        E 0 90 41 60
        E 120 80 41 00
        <X 120 0
          /wVrb29u
        >
        E 0 90 3c 60
        E 1724 80 3c 00
        E 1832 80 69 00
        E 0 80 74 00
        E 268 90 69 60
        <X 30 0
          /wVKdWgt
        >
        E 0 90 41 60
        E 303 80 41 00
        <X 157 0
          /wVsYXQ=
        >
        E 0 90 45 60
        E 273 80 45 00
        <X 240 0
          /wVhbC0=
        >
        E 0 90 43 60
        E 570 80 43 00
        <X 164 0
          /wVrYS0=
        >
        E 0 90 41 60
        E 120 80 41 00
        <X 136 0
          /wVrb29u
        >
        E 0 90 3c 60
        E 1667 80 3c 00
        <X 240 0
          /wUr
        >
        E 0 90 47 60
        E 1440 80 47 00
        E 236 80 69 00
        E 118 90 69 61
        <X 141 0
          /wVKdWgt
        >
        E 0 90 41 60
        E 360 80 41 00
        <X 60 0
          /wVsYXQ=
        >
        E 0 90 45 60
        E 390 80 45 00
        <X 148 0
          /wVhbC0=
        >
        E 0 90 43 60
        E 569 80 43 00
        <X 163 0
          /wVrYS0=
        >
        E 0 90 41 60
        E 127 80 41 00
        <X 135 0
          /wVrb29u
        >
        E 0 90 3c 60
        E 1633 80 3c 00
        <X 240 0
          /wUr
        >
        E 0 90 45 60
        E 2400 80 45 00
        E 104 80 69 00
        E 256 90 69 60
        <X 130 0
          /wVUYW5zLQ==
        >
        E 0 90 47 60
        E 679 80 47 00
        <X 70 0
          /wVzaS0=
        >
        E 0 90 47 60
        E 136 80 47 00
        <X 92 0
          /wVzYS0=
        >
        E 0 90 45 60
        E 181 80 45 00
        <X 75 0
          /wVsaS0=
        >
        E 0 90 45 60
        E 108 80 45 00
        <X 120 0
          /wVuYW0t
        >
        E 0 90 43 60
        E 300 80 43 00
        <X 143 0
          /wVtZQ==
        >
        E 0 90 43 60
        E 149 80 43 00
        <X 348 0
          /wVzb2k=
        >
        E 0 90 43 60
        E 274 80 43 00
        <X 182 0
          /wV0w6RoLQ==
        >
        E 0 90 45 60
        E 322 80 45 00
        <X 200 0
          /wV0aS0=
        >
        E 0 90 43 60
        E 206 80 43 00
        <X 58 0
          /wVlbg==
        >
        E 0 90 41 60
        E 424 80 41 00
        <X 257 0
          /wV2ecO2
        >
        E 0 90 43 60
        E 467 80 43 00
        E 49 80 69 00
        E 55 90 69 61
        <X 29 0
          /wVKdWgt
        >
        E 0 90 41 60
        E 239 80 41 00
        <X 90 0
          /wVsYXQ=
        >
        E 0 90 45 60
        E 295 80 45 00
        <X 201 0
          /wVhbC0=
        >
        E 0 90 43 60
        E 606 80 43 00
        <X 128 0
          /wVrYS0=
        >
        E 0 90 41 60
        E 120 80 41 00
        <X 120 0
          /wVrb29u
        >
        E 0 90 3c 60
        E 1667 80 3c 00
        E 2191 80 69 00
        <X 132 0
          /wFbaWRsZV9yZWFsdGltZV0=
        >
        E 42557 b0 7b 00
        GUID {E53B89F8-ECC8-4A25-86E2-BC4D240C9444}
        IGNTEMPO 0 120.00000000 4 4
        SRCCOLOR 1126
        VELLANE 132 128 60
        COLORMAP "C:\Users\me\AppData\Roaming\REAPER\Data\color_maps\rockband_vox-other.png"
        TEXTSTRINGFILE "C:\Program Files\REAPER\Data\Text_Strings\Text Events List.txt"
        CFGEDITVIEW -15076.543063 6.017295 9 12 0 0 0
        CFGEDIT 1 1 0 1 1 1 1 1 1 1 1 0.06250000 -8 -8 1374 736 1 2 1 2 0.00000000 0 0 0 0 0.500000 1 0 1.000000 64
        KEYSNAP 0 0 "102034050607" 0 "Major"
        EVTFILTER 0 -1 -1 -1 -1 0 1 0 0 -1.00000000 -1.00000000
      >
    >
  >
  <TRACK '{58A7B9C6-1373-47A1-A41A-295306551BF7}'
    NAME "DRYVOX2"
    PEAKCOL 16576
    BEAT -1
    AUTOMODE 0
    VOLPAN 0.64382266579432 0.00000000000000 -1.00000000000000 -1.00000000000000 1.00000000000000
    MUTESOLO 1 0 0
    IPHASE 0
    ISBUS 0 0
    BUSCOMP 0 0
    SHOWINMIX 1 0.666700 0.500000 1 0.500000 -1 -1 -1
    FREEMODE 0
    SEL 0
    REC 0 0 0 0 0 0 0
    TRACKHEIGHT 91 0
    INQ 0 0 0 0.5000000000 100 0 0 100
    NCHAN 2
    FX 1
    TRACKID {58A7B9C6-1373-47A1-A41A-295306551BF7}
    PERF 0
    MIDIOUT -1
    MAINSEND 1 0
    <FXCHAIN
      SHOW 0
      LASTSEL 0
      DOCKED 0
      BYPASS 0 0
      <VST "VST: ReaGate (Cockos)" "reagate.dll" 0 ""
        dGdlcu9e7f4EAAAAAQAAAAAAAAACAAAAAAAAAAQAAAAAAAAACAAAAA==
        AAAAAAIAAAABAAAAAAAAAAIAAAAAAAAAVAAAAAAAAAAAABAA776t3g==
        DfCt3pzRBzOmm8Q7CtejPAAAAAAAAAAAAACAPwAAAAAAAAAAAAAAAA==
        nNEHMx5Ucz+c0QczAACAPwAAAAAAAAAAAAAAACwWCz8AAAAAAAAAAA==
        AAAQAAAA
      >
      FLOATPOS 859 184 511 385
      FXID {BF545B5B-7DD0-4B4C-AC52-F095A552DA08}
      WAK 0
    >
    <ITEM
      POSITION 0.00000000000000
      SNAPOFFS 0.00000000000000
      LENGTH 267.18673069143421
      LOOP 0
      ALLTAKES 0
      SEL 0
      FADEIN 1 0.000000 0.000000 1 0
      FADEOUT 1 0.000000 0.000000 1 0
      MUTE 0
      IGUID {8B4D20A0-BA5A-4A5E-AF76-48E04C425343}
      IID 338
      NAME "19 Juhlat Alkakoon-backing_vocals-F minor-70bpm-441hz.mp3"
      VOLPAN 1.000000 0.000000 1.000000 -1.000000
      SOFFS -2.46078964835033
      PLAYRATE 1.00000000000000 1 0.00000000000000 -1
      CHANMODE 0
      GUID {418FBDFD-04BD-4B4B-966D-E3912B55FDBE}
      <SOURCE MP3
        FILE "19 Juhlat Alkakoon-backing_vocals-F minor-70bpm-441hz.mp3" 1
      >
    >
  >
  <TRACK '{4299BF31-E988-4C64-900A-97AC9ECE5EBC}'
    NAME "HARM3"
    PEAKCOL 24624127
    BEAT -1
    AUTOMODE 0
    VOLPAN 1.51029054812145 0.00000000000000 -1.00000000000000 -1.00000000000000 1.00000000000000
    MUTESOLO 0 0 0
    IPHASE 0
    ISBUS 0 0
    BUSCOMP 0 0
    SHOWINMIX 1 0.666700 0.500000 1 0.500000 -1 -1 -1
    FREEMODE 0
    SEL 0
    REC 0 0 0 0 0 0 0
    TRACKHEIGHT 0 0
    INQ 0 0 0 0.5000000000 100 0 0 100
    NCHAN 2
    FX 1
    TRACKID {4299BF31-E988-4C64-900A-97AC9ECE5EBC}
    PERF 0
    MIDIOUT -1
    <MIDINOTENAMES
      0 0 "Range Shift"
      0 1 "Lyric Shift"
      0 35 "----"
      0 36 "C1"
      0 37 "C#"
      0 38 "D"
      0 39 "Eb"
      0 40 "E"
      0 41 "F"
      0 42 "F#"
      0 43 "G"
      0 44 "G#"
      0 45 "A"
      0 46 "Bb"
      0 47 "B"
      0 48 "C2"
      0 49 "C#"
      0 50 "D"
      0 51 "Eb"
      0 52 "E"
      0 53 "F"
      0 54 "F#"
      0 55 "G"
      0 56 "G#"
      0 57 "A"
      0 58 "Bb"
      0 59 "B"
      0 60 "C3"
      0 61 "C#"
      0 62 "D"
      0 63 "Eb"
      0 64 "E"
      0 65 "F"
      0 66 "F#"
      0 67 "G"
      0 68 "G#"
      0 69 "A"
      0 70 "Bb"
      0 71 "B"
      0 72 "C4"
      0 73 "C#"
      0 74 "D"
      0 75 "Eb"
      0 76 "E"
      0 77 "F"
      0 78 "F#"
      0 79 "G"
      0 80 "G#"
      0 81 "A"
      0 82 "Bb"
      0 83 "B"
      0 84 "C5"
      0 116 "OVERDRIVE"
      0 115 "----"
      0 105 "Phrase Marker"
      0 104 "----"
      0 97 "Not Displayed Percussion"
      0 96 "Displayed Percussion"
      0 95 "----"
    >
    MAINSEND 1 0
    <FXCHAIN
      WNDRECT 0 42 716 493
      SHOW 0
      LASTSEL 1
      DOCKED 0
      BYPASS 0 0
      <JS "IX/MIDI_Tool II" ""
        0.000000 85.000000 127.000000 0.000000 0.000000 0.000000 100.000000 0.000000 0.000000 127.000000 0.000000 0.000000 1.000000 0.000000 0.000000 - - - - - - - - - - - - - - - - - - - - - - - - - - - - - - - - - - - - - - - - - - - - - - - - - 
      >
      FLOATPOS 0 0 0 0
      FXID {3D33E2FB-5DDE-4F81-B16F-BCB1EAD8D4FA}
      WAK 0
      BYPASS 0 0
      <VST "VSTi: ReaSynth (Cockos)" "reasynth.dll" 0 ""
        eXNlcu9e7f4AAAAAAgAAAAEAAAAAAAAAAgAAAAAAAAA4AAAAAAAAAA==
        AAAAAO++rd4N8K3eppvEOxe30ToAAAAAAAAAAAAAAACa9Q8/6WeIPQ==
        AAAAAAAAAD8AAIA/AAAAAAAAAD8AAAAAAAA=
      >
      FLOATPOS 0 0 0 0
      FXID {98E235B6-3365-4F58-AC74-F5BD513BFA85}
      WAK 0
    >
    <ITEM
      POSITION 0.00000000000000
      SNAPOFFS 0.00000000000000
      LENGTH 266.94347893916307
      LOOP 0
      ALLTAKES 0
      SEL 0
      FADEIN 1 0.000000 0.000000 1 0
      FADEOUT 1 0.000000 0.000000 1 0
      MUTE 0
      IGUID {14DAFADF-64E7-40FA-8E65-65BBB77CBDB7}
      IID 13
      NAME "HARM3 untitled MIDI item"
      VOLPAN 1.000000 0.000000 1.000000 -1.000000
      SOFFS 0.00000000000000 0.00000000000000
      PLAYRATE 1.00000000000000 1 0.00000000000000 -1
      CHANMODE 0
      GUID {BA30FF02-694D-4D9D-9D54-87AECA42C3BA}
      <SOURCE MIDI
        HASDATA 1 480 QN
        POOLEDEVTS {E372A8FD-EB48-4BDE-BD03-999FBB99F784}
        <X 0 0
          /wNIQVJNMw==
        >
        <X 3840 0
          /wFbaWRsZV0=
        >
        <X 44160 0
          /wFbbWVsbG93XQ==
        >
        E 750 90 69 61
        E 5670 80 69 00
        E 120 90 69 61
        E 6210 80 69 00
        E 391 90 69 61
        E 3948 80 69 00
        E 169 90 69 61
        E 0 90 74 61
        E 5057 80 69 00
        E 0 80 74 00
        E 1775 90 69 61
        E 5804 80 69 00
        E 255 90 69 61
        E 5506 80 69 00
        E 255 90 69 61
        E 4648 80 69 00
        E 183 90 69 61
        E 0 90 74 61
        E 4868 80 69 00
        E 0 80 74 00
        E 471 90 00 60
        E 390 80 00 00
        E 120 90 69 60
        <X 407 0
          /wVKdWgt
        >
        E 0 90 3e 60
        E 303 80 3e 00
        <X 157 0
          /wVsYXQ=
        >
        E 0 90 42 60
        E 273 80 42 00
        <X 240 0
          /wVhbC0=
        >
        E 0 90 40 60
        E 570 80 40 00
        <X 164 0
          /wVrYS0=
        >
        E 0 90 3e 60
        E 120 80 3e 00
        <X 136 0
          /wVrb29u
        >
        E 0 90 39 60
        E 1680 80 39 00
        <X 240 0
          /wUr
        >
        E 0 90 44 60
        E 1440 80 44 00
        E 174 80 69 00
        E 210 90 69 61
        <X 98 0
          /wVKdWgt
        >
        E 0 90 3e 60
        E 360 80 3e 00
        <X 60 0
          /wVsYXQ=
        >
        E 0 90 42 60
        E 390 80 42 00
        <X 148 0
          /wVhbC0=
        >
        E 0 90 40 60
        E 569 80 40 00
        <X 163 0
          /wVrYS0=
        >
        E 0 90 3e 60
        E 127 80 3e 00
        <X 135 0
          /wVrb29u
        >
        E 0 90 39 60
        E 1646 80 39 00
        <X 240 0
          /wUr
        >
        E 0 90 42 60
        E 2400 80 42 00
        E 148 80 69 00
        E 282 90 69 60
        <X 47 0
          /wVUYW5zLQ==
        >
        E 0 90 44 60
        E 679 80 44 00
        <X 70 0
          /wVzaS0=
        >
        E 0 90 44 60
        E 136 80 44 00
        <X 92 0
          /wVzYS0=
        >
        E 0 90 42 60
        E 181 80 42 00
        <X 75 0
          /wVsaS0=
        >
        E 0 90 42 60
        E 108 80 42 00
        <X 120 0
          /wVuYW0t
        >
        E 0 90 40 60
        E 300 80 40 00
        <X 143 0
          /wVtZQ==
        >
        E 0 90 40 60
        E 149 80 40 00
        <X 348 0
          /wVzb2k=
        >
        E 0 90 40 60
        E 274 80 40 00
        <X 182 0
          /wV0w6RoLQ==
        >
        E 0 90 42 60
        E 322 80 42 00
        <X 200 0
          /wV0aS0=
        >
        E 0 90 40 60
        E 206 80 40 00
        <X 58 0
          /wVlbg==
        >
        E 0 90 3e 60
        E 424 80 3e 00
        <X 257 0
          /wV2ecO2
        >
        E 0 90 40 60
        E 467 80 40 00
        E 35 80 69 00
        E 84 90 69 61
        E 0 90 74 61
        <X 80 0
          /wVKdWgt
        >
        E 0 90 3e 60
        E 173 80 3e 00
        <X 90 0
          /wVsYXQ=
        >
        E 0 90 42 60
        E 295 80 42 00
        <X 201 0
          /wVhbC0=
        >
        E 0 90 40 60
        E 606 80 40 00
        <X 128 0
          /wVrYS0=
        >
        E 0 90 3e 60
        E 120 80 3e 00
        <X 120 0
          /wVrb29u
        >
        E 0 90 39 60
        E 1680 80 39 00
        E 2277 80 69 00
        E 0 80 74 00
        <X 393 0
          /wFbaWRsZV0=
        >
        E 19650 90 00 60
        E 390 80 00 00
        <X 3028 0
          /wFbbWVsbG93XQ==
        >
        E 92 90 69 60
        E 4747 80 69 00
        E 569 90 69 61
        E 4705 80 69 00
        E 1529 90 69 60
        E 4578 80 69 00
        E 385 90 69 61
        E 0 90 74 61
        E 5591 80 69 00
        E 0 80 74 00
        E 1086 90 69 60
        E 5253 80 69 00
        E 529 90 69 61
        E 5297 80 69 00
        E 232 90 69 60
        E 4747 80 69 00
        E 285 90 69 61
        E 0 90 74 61
        E 4472 80 69 00
        E 0 80 74 00
        E 665 90 00 60
        E 270 80 00 00
        E 180 90 69 60
        <X 300 0
          /wVKdWgt
        >
        E 0 90 3e 60
        E 303 80 3e 00
        <X 157 0
          /wVsYXQ=
        >
        E 0 90 42 60
        E 273 80 42 00
        <X 240 0
          /wVhbC0=
        >
        E 0 90 40 60
        E 570 80 40 00
        <X 164 0
          /wVrYS0=
        >
        E 0 90 3e 60
        E 120 80 3e 00
        <X 136 0
          /wVrb29u
        >
        E 0 90 39 60
        E 1667 80 39 00
        <X 240 0
          /wUr
        >
        E 0 90 44 60
        E 1440 80 44 00
        E 196 80 69 00
        E 194 90 69 61
        <X 105 0
          /wVKdWgt
        >
        E 0 90 3e 60
        E 360 80 3e 00
        <X 60 0
          /wVsYXQ=
        >
        E 0 90 42 60
        E 390 80 42 00
        <X 148 0
          /wVhbC0=
        >
        E 0 90 40 60
        E 569 80 40 00
        <X 163 0
          /wVrYS0=
        >
        E 0 90 3e 60
        E 127 80 3e 00
        <X 135 0
          /wVrb29u
        >
        E 0 90 39 60
        E 1633 80 39 00
        <X 240 0
          /wUr
        >
        E 0 90 42 60
        E 2400 80 42 00
        E 74 80 69 00
        E 196 90 69 60
        <X 220 0
          /wVUYW5zLQ==
        >
        E 0 90 44 60
        E 679 80 44 00
        <X 70 0
          /wVzaS0=
        >
        E 0 90 44 60
        E 136 80 44 00
        <X 92 0
          /wVzYS0=
        >
        E 0 90 42 60
        E 181 80 42 00
        <X 75 0
          /wVsaS0=
        >
        E 0 90 42 60
        E 108 80 42 00
        <X 120 0
          /wVuYW0t
        >
        E 0 90 40 60
        E 300 80 40 00
        <X 143 0
          /wVtZQ==
        >
        E 0 90 40 60
        E 149 80 40 00
        <X 348 0
          /wVzb2k=
        >
        E 0 90 40 60
        E 274 80 40 00
        <X 182 0
          /wV0w6RoLQ==
        >
        E 0 90 42 60
        E 322 80 42 00
        <X 200 0
          /wV0aS0=
        >
        E 0 90 40 60
        E 206 80 40 00
        <X 58 0
          /wVlbg==
        >
        E 0 90 3e 60
        E 424 80 3e 00
        <X 257 0
          /wV2ecO2
        >
        E 0 90 40 60
        E 467 80 40 00
        E 36 80 69 00
        E 66 90 69 61
        E 0 90 74 61
        <X 31 0
          /wVKdWgt
        >
        E 0 90 3e 60
        E 239 80 3e 00
        <X 90 0
          /wVsYXQ=
        >
        E 0 90 42 60
        E 295 80 42 00
        <X 201 0
          /wVhbC0=
        >
        E 0 90 40 60
        E 606 80 40 00
        <X 128 0
          /wVrYS0=
        >
        E 0 90 3e 60
        E 120 80 3e 00
        <X 120 0
          /wVrb29u
        >
        E 0 90 39 60
        E 1667 80 39 00
        E 1889 80 69 00
        E 0 80 74 00
        E 91 90 69 60
        <X 93 0
          /wVKdWgt
        >
        E 0 90 3e 60
        E 303 80 3e 00
        <X 157 0
          /wVsYXQ=
        >
        E 0 90 42 60
        E 273 80 42 00
        <X 240 0
          /wVhbC0=
        >
        E 0 90 40 60
        E 570 80 40 00
        <X 164 0
          /wVrYS0=
        >
        E 0 90 3e 60
        E 120 80 3e 00
        <X 136 0
          /wVrb29u
        >
        E 0 90 39 60
        E 1724 80 39 00
        <X 240 0
          /wUr
        >
        E 0 90 44 60
        E 1440 80 44 00
        E 186 80 69 00
        E 83 90 69 61
        <X 169 0
          /wVKdWgt
        >
        E 0 90 3e 60
        E 360 80 3e 00
        <X 60 0
          /wVsYXQ=
        >
        E 0 90 42 60
        E 390 80 42 00
        <X 148 0
          /wVhbC0=
        >
        E 0 90 40 60
        E 569 80 40 00
        <X 163 0
          /wVrYS0=
        >
        E 0 90 3e 60
        E 127 80 3e 00
        <X 135 0
          /wVrb29u
        >
        E 0 90 39 60
        E 1690 80 39 00
        <X 240 0
          /wUr
        >
        E 0 90 42 60
        E 2400 80 42 00
        E 68 80 69 00
        E 262 90 69 60
        <X 103 0
          /wVUYW5zLQ==
        >
        E 0 90 44 60
        E 679 80 44 00
        <X 70 0
          /wVzaS0=
        >
        E 0 90 44 60
        E 136 80 44 00
        <X 92 0
          /wVzYS0=
        >
        E 0 90 42 60
        E 181 80 42 00
        <X 75 0
          /wVsaS0=
        >
        E 0 90 42 60
        E 108 80 42 00
        <X 120 0
          /wVuYW0t
        >
        E 0 90 40 60
        E 300 80 40 00
        <X 143 0
          /wVtZQ==
        >
        E 0 90 40 60
        E 149 80 40 00
        <X 348 0
          /wVzb2k=
        >
        E 0 90 40 60
        E 274 80 40 00
        <X 182 0
          /wV0w6RoLQ==
        >
        E 0 90 42 60
        E 322 80 42 00
        <X 200 0
          /wV0aS0=
        >
        E 0 90 40 60
        E 206 80 40 00
        <X 58 0
          /wVlbg==
        >
        E 0 90 3e 60
        E 424 80 3e 00
        <X 257 0
          /wV2ecO2
        >
        E 0 90 40 60
        E 467 80 40 00
        E 44 80 69 00
        E 43 90 69 61
        E 0 90 74 61
        <X 46 0
          /wVKdWgt
        >
        E 0 90 3e 60
        E 239 80 3e 00
        <X 90 0
          /wVsYXQ=
        >
        E 0 90 42 60
        E 295 80 42 00
        <X 201 0
          /wVhbC0=
        >
        E 0 90 40 60
        E 606 80 40 00
        <X 128 0
          /wVrYS0=
        >
        E 0 90 3e 60
        E 120 80 3e 00
        <X 120 0
          /wVrb29u
        >
        E 0 90 39 60
        E 1724 80 39 00
        E 1832 80 69 00
        E 0 80 74 00
        E 268 90 69 60
        <X 30 0
          /wVKdWgt
        >
        E 0 90 3e 60
        E 303 80 3e 00
        <X 157 0
          /wVsYXQ=
        >
        E 0 90 42 60
        E 273 80 42 00
        <X 240 0
          /wVhbC0=
        >
        E 0 90 40 60
        E 570 80 40 00
        <X 164 0
          /wVrYS0=
        >
        E 0 90 3e 60
        E 120 80 3e 00
        <X 136 0
          /wVrb29u
        >
        E 0 90 39 60
        E 1667 80 39 00
        <X 240 0
          /wUr
        >
        E 0 90 44 60
        E 1440 80 44 00
        E 236 80 69 00
        E 118 90 69 61
        <X 141 0
          /wVKdWgt
        >
        E 0 90 3e 60
        E 360 80 3e 00
        <X 60 0
          /wVsYXQ=
        >
        E 0 90 42 60
        E 390 80 42 00
        <X 148 0
          /wVhbC0=
        >
        E 0 90 40 60
        E 569 80 40 00
        <X 163 0
          /wVrYS0=
        >
        E 0 90 3e 60
        E 127 80 3e 00
        <X 135 0
          /wVrb29u
        >
        E 0 90 39 60
        E 1633 80 39 00
        <X 240 0
          /wUr
        >
        E 0 90 42 60
        E 2400 80 42 00
        E 104 80 69 00
        E 256 90 69 60
        <X 130 0
          /wVUYW5zLQ==
        >
        E 0 90 44 60
        E 679 80 44 00
        <X 70 0
          /wVzaS0=
        >
        E 0 90 44 60
        E 136 80 44 00
        <X 92 0
          /wVzYS0=
        >
        E 0 90 42 60
        E 181 80 42 00
        <X 75 0
          /wVsaS0=
        >
        E 0 90 42 60
        E 108 80 42 00
        <X 120 0
          /wVuYW0t
        >
        E 0 90 40 60
        E 300 80 40 00
        <X 143 0
          /wVtZQ==
        >
        E 0 90 40 60
        E 149 80 40 00
        <X 348 0
          /wVzb2k=
        >
        E 0 90 40 60
        E 274 80 40 00
        <X 182 0
          /wV0w6RoLQ==
        >
        E 0 90 42 60
        E 322 80 42 00
        <X 200 0
          /wV0aS0=
        >
        E 0 90 40 60
        E 206 80 40 00
        <X 58 0
          /wVlbg==
        >
        E 0 90 3e 60
        E 424 80 3e 00
        <X 257 0
          /wV2ecO2
        >
        E 0 90 40 60
        E 467 80 40 00
        E 49 80 69 00
        E 55 90 69 61
        <X 29 0
          /wVKdWgt
        >
        E 0 90 3e 60
        E 239 80 3e 00
        <X 90 0
          /wVsYXQ=
        >
        E 0 90 42 60
        E 295 80 42 00
        <X 201 0
          /wVhbC0=
        >
        E 0 90 40 60
        E 606 80 40 00
        <X 128 0
          /wVrYS0=
        >
        E 0 90 3e 60
        E 120 80 3e 00
        <X 120 0
          /wVrb29u
        >
        E 0 90 39 60
        E 1667 80 39 00
        E 2191 80 69 00
        <X 132 0
          /wFbaWRsZV9yZWFsdGltZV0=
        >
        E 42557 b0 7b 00
        GUID {F1082209-E2A8-4526-8AA6-2FE8F2DEB335}
        IGNTEMPO 0 120.00000000 4 4
        SRCCOLOR 1127
        VELLANE 132 128 60
        COLORMAP "C:\Users\me\AppData\Roaming\REAPER\Data\color_maps\rockband_vox-other.png"
        TEXTSTRINGFILE "C:\Program Files\REAPER\Data\Text_Strings\Text Events List.txt"
        CFGEDITVIEW -15076.543063 6.017295 13 12 0 0 0
        CFGEDIT 1 1 0 1 1 1 1 1 1 1 1 0.06250000 -8 -8 1374 736 1 2 1 2 0.00000000 0 0 0 0 0.500000 1 0 1.000000 64
        KEYSNAP 0 0 "102034050607" 0 "Major"
        EVTFILTER 0 -1 -1 -1 -1 0 1 0 0 -1.00000000 -1.00000000
      >
    >
  >
  <TRACK '{AB3E8FDC-23A9-4945-BA6C-055C630028D0}'
    NAME "DRYVOX3"
    PEAKCOL 16576
    BEAT -1
    AUTOMODE 0
    VOLPAN 1.00000000000000 0.00000000000000 -1.00000000000000 -1.00000000000000 1.00000000000000
    MUTESOLO 1 0 0
    IPHASE 0
    ISBUS 0 0
    BUSCOMP 0 0
    SHOWINMIX 1 0.666700 0.500000 1 0.500000 -1 -1 -1
    FREEMODE 0
    SEL 0
    REC 0 0 0 0 0 0 0
    TRACKHEIGHT 24 0
    INQ 0 0 0 0.5000000000 100 0 0 100
    NCHAN 2
    FX 1
    TRACKID {AB3E8FDC-23A9-4945-BA6C-055C630028D0}
    PERF 0
    MIDIOUT -1
    MAINSEND 1 0
    <FXCHAIN
      SHOW 0
      LASTSEL 0
      DOCKED 0
      BYPASS 0 0
      <VST "VST: ReaGate (Cockos)" "reagate.dll" 0 ""
        dGdlcu9e7f4EAAAAAQAAAAAAAAACAAAAAAAAAAQAAAAAAAAACAAAAA==
        AAAAAAIAAAABAAAAAAAAAAIAAAAAAAAAVAAAAAAAAAAAABAA776t3g==
        DfCt3pzRBzOmm8Q7CtejPAAAAAAAAAAAAACAPwAAAAAAAAAAAAAAAA==
        nNEHMx5Ucz+c0QczAACAPwAAAAAAAAAAAAAAACwWCz8AAAAAAAAAAA==
        AAAQAAAA
      >
      FLOATPOS 859 184 511 385
      FXID {BF545B5B-7DD0-4B4C-AC52-F095A552DA08}
      WAK 0
    >
  >
  <TRACK '{BDF9D434-D6E6-4FA8-849C-50EE8792C796}'
    NAME "amp_19 Juhlat Alkakoon-keys-F minor-70bpm-441hz"
    PEAKCOL 16576
    BEAT -1
    AUTOMODE 0
    VOLPAN 1.00000000000000 0.00000000000000 -1.00000000000000 -1.00000000000000 1.00000000000000
    MUTESOLO 1 0 0
    IPHASE 0
    ISBUS 0 0
    BUSCOMP 0 0
    SHOWINMIX 1 0.666700 0.500000 1 0.500000 -1 -1 -1
    FREEMODE 0
    SEL 0
    REC 0 0 0 0 0 0 0
    VU 2
    TRACKHEIGHT 183 0
    INQ 0 0 0 0.5000000000 100 0 0 100
    NCHAN 2
    FX 1
    TRACKID {BDF9D434-D6E6-4FA8-849C-50EE8792C796}
    PERF 0
    MIDIOUT -1
    MAINSEND 1 0
    <FXCHAIN
      SHOW 0
      LASTSEL 0
      DOCKED 0
    >
    <ITEM
      POSITION 2.46078964835033
      SNAPOFFS 0.00000000000000
      LENGTH 264.75102040816324
      LOOP 0
      ALLTAKES 0
      SEL 0
      FADEIN 1 0.000000 0.000000 1 0
      FADEOUT 1 0.000000 0.000000 1 0
      MUTE 0
      IGUID {366812AA-D77E-4B09-8CB3-B7CC004370F4}
      IID 325
      NAME "_amp_19 Juhlat Alkakoon-keys-F minor-70bpm-441hz.wav"
      VOLPAN 1.000000 0.000000 1.000000 -1.000000
      SOFFS 0.00000000000000
      PLAYRATE 1.00000000000000 1 0.00000000000000 -1
      CHANMODE 0
      GUID {1EF0D15D-FF0A-4D78-BB7C-647DC15DE94E}
      <SOURCE WAVE
        FILE "_amp_19 Juhlat Alkakoon-keys-F minor-70bpm-441hz.wav"
      >
    >
  >
  <TRACK '{14F64FB7-FE44-4E53-9F58-44F4178BCEF9}'
    NAME "PART KEYS"
    PEAKCOL 16842496
    BEAT -1
    AUTOMODE 0
    VOLPAN 1.00000000000000 0.06400000000000 -1.00000000000000 -1.00000000000000 1.00000000000000
    MUTESOLO 0 0 0
    IPHASE 0
    ISBUS 1 1
    BUSCOMP 0 0
    SHOWINMIX 1 0.666700 0.500000 1 0.500000 -1 -1 -1
    FREEMODE 0
    SEL 1
    REC 0 0 0 0 0 0 0
    TRACKHEIGHT 0 0
    INQ 0 0 0 0.5000000000 100 0 0 100
    NCHAN 2
    FX 1
    TRACKID {14F64FB7-FE44-4E53-9F58-44F4178BCEF9}
    PERF 0
    MIDIOUT -1
    <MIDINOTENAMES
      0 124 "BRE"
      0 123 "BRE"
      0 122 "BRE"
      0 121 "BRE"
      0 120 "BRE (use all 5)"
      0 116 "OVERDRIVE"
      0 119 "----"
      0 115 "----"
      0 103 "Solo Marker"
      0 95 "----"
      0 96 "EXPERT Green"
      0 97 "EXPERT Red"
      0 98 "EXPERT Yellow"
      0 99 "EXPERT Blue"
      0 100 "EXPERT Orange"
      0 102 "Force HoPo off"
      0 83 "----"
      0 84 "HARD Green"
      0 85 "HARD Red"
      0 86 "HARD Yellow"
      0 87 "HARD Blue"
      0 88 "HARD Orange"
      0 72 "MEDIUM Green"
      0 73 "MEDIUM Red"
      0 74 "MEDIUM Yellow"
      0 75 "MEDIUM Blue"
      0 76 "MEDIUM Orange"
      0 71 "----"
      0 64 "EASY Orange"
      0 63 "EASY Blue"
      0 62 "EASY Yellow"
      0 61 "EASY Red"
      0 60 "EASY Green"
      0 127 "Trill Marker"
      0 126 "----"
      0 101 "Force HoPo on"
    >
    MAINSEND 1 0
    <FXCHAIN
      WNDRECT 1066 354 878 585
      SHOW 0
      LASTSEL 0
      DOCKED 0
      BYPASS 0 0
      <VST "VSTi: RBN Preview (RBN)" "rbprev_vst64_beta.dll" 0 ""
        dnBicu5e7f4AAAAAAgAAAAEAAAAAAAAAAgAAAAAAAAAEAAAAAQAAAA==
        AAAAAAMAqgAAAAAAAAA=
      >
      FLOATPOS 0 0 0 0
      FXID {EE0C80EE-5E5F-4EA2-B367-78AAAB3793F5}
      WAK 0
    >
    <ITEM
      POSITION 0.00000000000000
      SNAPOFFS 0.00000000000000
      LENGTH 266.94347893916262
      LOOP 0
      ALLTAKES 0
      SEL 1
      FADEIN 1 0.000000 0.000000 1 0
      FADEOUT 1 0.000000 0.000000 1 0
      MUTE 0
      IGUID {52D9F6AC-16AD-4CE9-95E4-6AD6396BB4E2}
      IID 14
      NAME "PART KEYS"
      VOLPAN 1.000000 0.000000 1.000000 -1.000000
      SOFFS 0.00000000000000 0.00000000000000
      PLAYRATE 1.00000000000000 1 0.00000000000000 -65536
      CHANMODE 0
      GUID {78E1CCBD-C30B-4DD8-81CD-2AEB0D2D38C8}
      <SOURCE MIDI
        HASDATA 1 480 QN
        POOLEDEVTS {B2EE26B0-1882-4068-8C99-CC7C7C19D410}
        <X 0 0
          /wNQQVJUIEtFWVM=
        >
        <X 3840 0
          /wFbbWVsbG93XQ==
        >
        E 0 90 3d 60
        E 0 90 4a 60
        E 0 90 57 60
        E 0 90 63 60
        E 61 80 3d 00
        E 0 80 4a 00
        E 0 80 57 00
        E 0 80 63 00
        E 179 90 55 60
        E 0 90 61 60
        E 61 80 55 00
        E 0 80 61 00
        E 179 90 4a 60
        E 0 90 57 60
        E 0 90 63 60
        E 120 80 4a 00
        E 239 80 57 00
        E 1 80 63 00
        E 119 90 3d 60
        E 0 90 4a 60
        E 0 90 57 60
        E 0 90 63 60
        E 61 80 3d 00
        E 0 80 4a 00
        E 0 80 57 00
        E 0 80 63 00
        E 179 90 55 60
        E 0 90 61 60
        E 61 80 55 00
        E 0 80 61 00
        E 179 90 4a 60
        E 0 90 57 60
        E 0 90 63 60
        E 60 80 4a 00
        E 0 80 57 00
        E 0 80 63 00
        E 181 90 55 60
        E 0 90 61 60
        E 60 80 55 00
        E 0 80 61 00
        E 178 90 3d 60
        E 0 90 4a 60
        E 0 90 57 60
        E 0 90 63 60
        E 120 80 3d 00
        E 0 80 4a 00
        E 240 80 57 00
        E 2 80 63 00
        E 118 90 4a 60
        E 0 90 57 60
        E 0 90 63 60
        E 62 80 4a 00
        E 0 80 57 00
        E 0 80 63 00
        E 180 90 55 60
        E 0 90 61 60
        E 60 80 55 00
        E 0 80 61 00
        E 180 90 3e 60
        E 0 90 4b 60
        E 0 90 58 60
        E 0 90 64 60
        E 61 80 3e 00
        E 0 80 4b 00
        E 0 80 58 00
        E 0 80 64 00
        E 179 90 56 60
        E 0 90 62 60
        E 61 80 56 00
        E 0 80 62 00
        E 179 90 4b 60
        E 0 90 58 60
        E 0 90 64 60
        E 120 80 4b 00
        E 239 80 58 00
        E 1 80 64 00
        E 119 90 3e 60
        E 0 90 4b 60
        E 0 90 58 60
        E 0 90 64 60
        E 61 80 3e 00
        E 0 80 4b 00
        E 0 80 58 00
        E 0 80 64 00
        E 179 90 56 60
        E 0 90 62 60
        E 61 80 56 00
        E 0 80 62 00
        E 179 90 4b 60
        E 0 90 58 60
        E 0 90 64 60
        E 60 80 4b 00
        E 0 80 58 00
        E 0 80 64 00
        E 181 90 56 60
        E 0 90 62 60
        E 60 80 56 00
        E 0 80 62 00
        E 178 90 3e 60
        E 0 90 4b 60
        E 0 90 58 60
        E 0 90 64 60
        E 120 80 3e 00
        E 0 80 4b 00
        E 240 80 58 00
        E 2 80 64 00
        E 118 90 4b 60
        E 0 90 58 60
        E 0 90 64 60
        E 62 80 4b 00
        E 0 80 58 00
        E 0 80 64 00
        E 180 90 56 60
        E 0 90 62 60
        E 60 80 56 00
        E 0 80 62 00
        E 180 90 3d 60
        E 0 90 4a 60
        E 0 90 57 60
        E 0 90 63 60
        E 61 80 3d 00
        E 0 80 4a 00
        E 0 80 57 00
        E 0 80 63 00
        E 179 90 55 60
        E 0 90 61 60
        E 61 80 55 00
        E 0 80 61 00
        E 179 90 4a 60
        E 0 90 57 60
        E 0 90 63 60
        E 120 80 4a 00
        E 239 80 57 00
        E 1 80 63 00
        E 119 90 3d 60
        E 0 90 4a 60
        E 0 90 57 60
        E 0 90 63 60
        E 61 80 3d 00
        E 0 80 4a 00
        E 0 80 57 00
        E 0 80 63 00
        E 179 90 55 60
        E 0 90 61 60
        E 61 80 55 00
        E 0 80 61 00
        E 179 90 4a 60
        E 0 90 57 60
        E 0 90 63 60
        E 60 80 4a 00
        E 0 80 57 00
        E 0 80 63 00
        E 181 90 55 60
        E 0 90 61 60
        E 60 80 55 00
        E 0 80 61 00
        E 178 90 3d 60
        E 0 90 4a 60
        E 0 90 57 60
        E 0 90 63 60
        E 120 80 3d 00
        E 0 80 4a 00
        E 240 80 57 00
        E 2 80 63 00
        E 118 90 4a 60
        E 0 90 57 60
        E 0 90 63 60
        E 62 80 4a 00
        E 0 80 57 00
        E 0 80 63 00
        E 180 90 55 60
        E 0 90 61 60
        E 60 80 55 00
        E 0 80 61 00
        E 179 90 3c 60
        E 0 90 49 60
        E 0 90 56 60
        E 0 90 62 60
        E 61 80 3c 00
        E 0 80 49 00
        E 0 80 56 00
        E 0 80 62 00
        E 179 90 54 60
        E 0 90 60 60
        E 61 80 54 00
        E 0 80 60 00
        E 180 90 3c 60
        E 0 90 49 60
        E 0 90 56 60
        E 0 90 62 60
        E 120 80 3c 00
        E 0 80 49 00
        E 240 80 56 00
        E 0 80 62 00
        E 120 90 3c 60
        E 0 90 49 60
        E 0 90 56 60
        E 0 90 62 60
        E 61 80 3c 00
        E 0 80 49 00
        E 0 80 56 00
        E 0 80 62 00
        E 179 90 54 60
        E 0 90 60 60
        E 61 80 54 00
        E 0 80 60 00
        E 179 90 3c 60
        E 0 90 49 60
        E 0 90 56 60
        E 0 90 62 60
        E 60 80 3c 00
        E 0 80 49 00
        E 0 80 56 00
        E 0 80 62 00
        E 179 90 54 60
        E 0 90 60 60
        E 60 80 54 00
        E 0 80 60 00
        E 181 90 3c 60
        E 0 90 49 60
        E 0 90 56 60
        E 0 90 62 60
        E 120 80 3c 00
        E 0 80 49 00
        E 240 80 56 00
        E 2 80 62 00
        E 118 90 49 60
        E 0 90 56 60
        E 0 90 62 60
        E 62 80 49 00
        E 0 80 56 00
        E 0 80 62 00
        E 178 90 54 60
        E 0 90 60 60
        E 60 80 54 00
        E 0 80 60 00
        E 179 90 3d 60
        E 0 90 4a 60
        E 0 90 57 60
        E 0 90 63 60
        E 61 80 3d 00
        E 0 80 4a 00
        E 0 80 57 00
        E 0 80 63 00
        E 180 90 55 60
        E 0 90 61 60
        E 61 80 55 00
        E 0 80 61 00
        E 179 90 4a 60
        E 0 90 57 60
        E 0 90 63 60
        E 120 80 4a 00
        E 239 80 57 00
        E 1 80 63 00
        E 119 90 3d 60
        E 0 90 4a 60
        E 0 90 57 60
        E 0 90 63 60
        E 61 80 3d 00
        E 0 80 4a 00
        E 0 80 57 00
        E 0 80 63 00
        E 179 90 55 60
        E 0 90 61 60
        E 61 80 55 00
        E 0 80 61 00
        E 180 90 3d 60
        E 0 90 4a 60
        E 0 90 57 60
        E 0 90 63 60
        E 60 80 3d 00
        E 0 80 4a 00
        E 0 80 57 00
        E 0 80 63 00
        E 180 90 55 60
        E 0 90 61 60
        E 60 80 55 00
        E 0 80 61 00
        E 180 90 3d 60
        E 0 90 4a 60
        E 0 90 57 60
        E 0 90 63 60
        E 120 80 3d 00
        E 0 80 4a 00
        E 238 80 57 00
        E 2 80 63 00
        E 118 90 4a 60
        E 0 90 57 60
        E 0 90 63 60
        E 62 80 4a 00
        E 0 80 57 00
        E 0 80 63 00
        E 180 90 55 60
        E 0 90 61 60
        E 60 80 55 00
        E 0 80 61 00
        E 179 90 3e 60
        E 0 90 4b 60
        E 0 90 58 60
        E 0 90 64 60
        E 61 80 3e 00
        E 0 80 4b 00
        E 0 80 58 00
        E 0 80 64 00
        E 179 90 56 60
        E 0 90 62 60
        E 61 80 56 00
        E 0 80 62 00
        E 180 90 4b 60
        E 0 90 58 60
        E 0 90 64 60
        E 120 80 4b 00
        E 239 80 58 00
        E 1 80 64 00
        E 119 90 3e 60
        E 0 90 4b 60
        E 0 90 58 60
        E 0 90 64 60
        E 61 80 3e 00
        E 0 80 4b 00
        E 0 80 58 00
        E 0 80 64 00
        E 179 90 56 60
        E 0 90 62 60
        E 61 80 56 00
        E 0 80 62 00
        E 180 90 4b 60
        E 0 90 58 60
        E 0 90 64 60
        E 60 80 4b 00
        E 0 80 58 00
        E 0 80 64 00
        E 180 90 56 60
        E 0 90 62 60
        E 60 80 56 00
        E 0 80 62 00
        E 178 90 3e 60
        E 0 90 4b 60
        E 0 90 58 60
        E 0 90 64 60
        E 120 80 3e 00
        E 0 80 4b 00
        E 240 80 58 00
        E 2 80 64 00
        E 118 90 4b 60
        E 0 90 58 60
        E 0 90 64 60
        E 62 80 4b 00
        E 0 80 58 00
        E 0 80 64 00
        E 180 90 56 60
        E 0 90 62 60
        E 60 80 56 00
        E 0 80 62 00
        E 179 90 3d 60
        E 0 90 4a 60
        E 0 90 57 60
        E 0 90 63 60
        E 61 80 3d 00
        E 0 80 4a 00
        E 0 80 57 00
        E 0 80 63 00
        E 179 90 55 60
        E 0 90 61 60
        E 61 80 55 00
        E 0 80 61 00
        E 180 90 4a 60
        E 0 90 57 60
        E 0 90 63 60
        E 120 80 4a 00
        E 239 80 57 00
        E 1 80 63 00
        E 119 90 3d 60
        E 0 90 4a 60
        E 0 90 57 60
        E 0 90 63 60
        E 61 80 3d 00
        E 0 80 4a 00
        E 0 80 57 00
        E 0 80 63 00
        E 179 90 55 60
        E 0 90 61 60
        E 61 80 55 00
        E 0 80 61 00
        E 180 90 4a 60
        E 0 90 57 60
        E 0 90 63 60
        E 60 80 4a 00
        E 0 80 57 00
        E 0 80 63 00
        E 180 90 55 60
        E 0 90 61 60
        E 60 80 55 00
        E 0 80 61 00
        E 178 90 3d 60
        E 0 90 4a 60
        E 0 90 57 60
        E 0 90 63 60
        E 120 80 3d 00
        E 0 80 4a 00
        E 240 80 57 00
        E 2 80 63 00
        E 118 90 4a 60
        E 0 90 57 60
        E 0 90 63 60
        E 62 80 4a 00
        E 0 80 57 00
        E 0 80 63 00
        E 180 90 55 60
        E 0 90 61 60
        E 60 80 55 00
        E 0 80 61 00
        E 179 90 3c 60
        E 0 90 49 60
        E 0 90 56 60
        E 0 90 62 60
        E 61 80 3c 00
        E 0 80 49 00
        E 0 80 56 00
        E 0 80 62 00
        E 179 90 54 60
        E 0 90 60 60
        E 61 80 54 00
        E 0 80 60 00
        E 180 90 3c 60
        E 0 90 49 60
        E 0 90 56 60
        E 0 90 62 60
        E 120 80 3c 00
        E 0 80 49 00
        E 240 80 56 00
        E 0 80 62 00
        E 120 90 3c 60
        E 0 90 49 60
        E 0 90 56 60
        E 0 90 62 60
        E 60 80 3c 00
        E 0 80 49 00
        E 0 80 56 00
        E 0 80 62 00
        E 179 90 54 60
        E 0 90 60 60
        E 61 80 54 00
        E 0 80 60 00
        E 180 90 49 60
        E 0 90 56 60
        E 0 90 62 60
        E 60 80 49 00
        E 0 80 56 00
        E 0 80 62 00
        E 180 90 54 60
        E 0 90 60 60
        E 60 80 54 00
        E 0 80 60 00
        E 178 90 3c 60
        E 0 90 49 60
        E 0 90 56 60
        E 0 90 62 60
        E 120 80 3c 00
        E 0 80 49 00
        E 240 80 56 00
        E 2 80 62 00
        E 118 90 49 60
        E 0 90 56 60
        E 0 90 62 60
        E 62 80 49 00
        E 0 80 56 00
        E 0 80 62 00
        E 180 90 54 60
        E 0 90 60 60
        E 60 80 54 00
        E 0 80 60 00
        E 180 90 3d 60
        E 0 90 4a 60
        E 0 90 57 60
        E 0 90 63 60
        E 480 80 3d 00
        E 0 80 4a 00
        E 360 80 57 00
        E 0 80 63 00
        E 120 90 3c 60
        E 0 90 49 60
        E 0 90 56 60
        E 0 90 62 60
        E 120 80 3c 00
        E 0 80 49 00
        E 360 80 56 00
        E 0 80 62 00
        E 120 90 48 60
        E 0 90 55 60
        E 0 90 61 60
        E 120 80 48 00
        E 480 80 55 00
        E 0 80 61 00
        E 120 90 3c 60
        E 0 90 49 60
        E 0 90 56 60
        E 0 90 62 60
        E 120 80 3c 00
        E 0 80 49 00
        E 480 80 56 00
        E 0 80 62 00
        E 120 90 4a 60
        E 0 90 57 60
        E 0 90 63 60
        E 960 80 4a 00
        E 120 80 57 00
        E 0 80 63 00
        E 360 90 3d 60
        E 0 90 48 60
        E 0 90 4a 60
        E 0 90 54 60
        E 0 90 56 60
        E 0 90 60 60
        E 0 90 62 60
        E 120 80 3d 00
        E 0 80 48 00
        E 0 80 4a 00
        E 0 80 54 00
        E 0 80 56 00
        E 0 90 74 60
        E 119 80 60 00
        E 0 80 62 00
        E 241 90 4a 60
        E 0 90 4b 60
        E 0 90 56 60
        E 0 90 58 60
        E 0 90 62 60
        E 0 90 64 60
        E 480 80 4a 00
        E 0 80 4b 00
        E 239 80 56 00
        E 0 80 58 00
        E 0 80 62 00
        E 0 80 64 00
        E 241 90 3e 60
        E 0 90 49 60
        E 0 90 4b 60
        E 0 90 55 60
        E 0 90 57 60
        E 0 90 61 60
        E 0 90 63 60
        E 719 80 3e 00
        E 0 80 49 00
        E 0 80 4b 00
        E 0 80 55 00
        E 0 80 57 00
        E 0 80 61 00
        E 0 80 63 00
        E 121 80 74 00
        E 240 90 55 60
        E 0 90 61 60
        E 60 80 55 00
        E 0 80 61 00
        E 179 90 4a 60
        E 0 90 57 60
        E 0 90 63 60
        E 60 80 4a 00
        E 0 80 57 00
        E 0 80 63 00
        E 181 90 55 60
        E 0 90 61 60
        E 60 80 55 00
        E 0 80 61 00
        E 178 90 3d 60
        E 0 90 4a 60
        E 0 90 57 60
        E 0 90 63 60
        E 120 80 3d 00
        E 0 80 4a 00
        E 240 80 57 00
        E 2 80 63 00
        E 118 90 4a 60
        E 0 90 57 60
        E 0 90 63 60
        E 62 80 4a 00
        E 0 80 57 00
        E 0 80 63 00
        E 180 90 55 60
        E 0 90 61 60
        E 60 80 55 00
        E 0 80 61 00
        E 179 90 3c 60
        E 0 90 49 60
        E 0 90 56 60
        E 0 90 62 60
        E 61 80 3c 00
        E 0 80 49 00
        E 0 80 56 00
        E 0 80 62 00
        E 179 90 54 60
        E 0 90 60 60
        E 61 80 54 00
        E 0 80 60 00
        E 179 90 49 60
        E 0 90 56 60
        E 0 90 62 60
        E 120 80 49 00
        E 239 80 56 00
        E 1 80 62 00
        E 119 90 3c 60
        E 0 90 49 60
        E 0 90 56 60
        E 0 90 62 60
        E 61 80 3c 00
        E 0 80 49 00
        E 0 80 56 00
        E 0 80 62 00
        E 179 90 54 60
        E 0 90 60 60
        E 61 80 54 00
        E 0 80 60 00
        E 179 90 49 60
        E 0 90 56 60
        E 0 90 62 60
        E 60 80 49 00
        E 0 80 56 00
        E 0 80 62 00
        E 181 90 60 60
        E 60 80 60 00
        E 178 90 3c 60
        E 0 90 49 60
        E 0 90 56 60
        E 0 90 62 60
        E 120 80 3c 00
        E 0 80 49 00
        E 240 80 56 00
        E 3 80 62 00
        E 117 90 49 60
        E 0 90 56 60
        E 0 90 62 60
        E 62 80 49 00
        E 0 80 56 00
        E 0 80 62 00
        E 421 90 3d 60
        E 0 90 4a 60
        E 0 90 57 60
        E 0 90 63 60
        E 480 80 3d 00
        E 0 80 4a 00
        E 360 80 57 00
        E 0 80 63 00
        E 120 90 3c 60
        E 0 90 49 60
        E 0 90 56 60
        E 0 90 62 60
        E 120 80 3c 00
        E 0 80 49 00
        E 360 80 56 00
        E 0 80 62 00
        E 120 90 48 60
        E 0 90 55 60
        E 0 90 61 60
        E 120 80 48 00
        E 480 80 55 00
        E 0 80 61 00
        E 120 90 3c 60
        E 0 90 49 60
        E 0 90 56 60
        E 0 90 62 60
        E 120 80 3c 00
        E 0 80 49 00
        E 480 80 56 00
        E 0 80 62 00
        E 120 90 4a 60
        E 0 90 57 60
        E 0 90 63 60
        E 960 80 4a 00
        E 120 80 57 00
        E 0 80 63 00
        E 360 90 3d 60
        E 0 90 48 60
        E 0 90 4a 60
        E 0 90 54 60
        E 0 90 56 60
        E 0 90 60 60
        E 0 90 62 60
        E 120 80 3d 00
        E 0 80 48 00
        E 0 80 4a 00
        E 0 80 54 00
        E 0 80 56 00
        E 119 80 60 00
        E 0 80 62 00
        E 241 90 4a 60
        E 0 90 4b 60
        E 0 90 56 60
        E 0 90 58 60
        E 0 90 62 60
        E 0 90 64 60
        E 480 80 4a 00
        E 0 80 4b 00
        E 239 80 56 00
        E 0 80 58 00
        E 0 80 62 00
        E 0 80 64 00
        E 241 90 49 60
        E 0 90 4b 60
        E 0 90 55 60
        E 0 90 57 60
        E 0 90 61 60
        E 0 90 63 60
        E 360 80 49 00
        E 0 80 4b 00
        E 359 80 55 00
        E 0 80 57 00
        E 0 80 61 00
        E 0 80 63 00
        E 121 90 3d 60
        E 0 90 4a 60
        E 0 90 57 60
        E 0 90 63 60
        E 60 80 3d 00
        E 0 80 4a 00
        E 0 80 57 00
        E 0 80 63 00
        E 181 90 55 60
        E 0 90 61 60
        E 60 80 55 00
        E 0 80 61 00
        E 178 90 4a 60
        E 0 90 57 60
        E 0 90 63 60
        E 120 80 4a 00
        E 240 80 57 00
        E 1 80 63 00
        E 119 90 3d 60
        E 0 90 4a 60
        E 0 90 57 60
        E 0 90 63 60
        E 62 80 3d 00
        E 0 80 4a 00
        E 0 80 57 00
        E 0 80 63 00
        E 180 90 55 60
        E 0 90 61 60
        E 60 80 55 00
        E 0 80 61 00
        E 179 90 4a 60
        E 0 90 57 60
        E 0 90 63 60
        E 60 80 4a 00
        E 0 80 57 00
        E 0 80 63 00
        E 420 90 3c 60
        E 0 90 49 60
        E 0 90 56 60
        E 0 90 62 60
        E 60 80 3c 00
        E 0 80 49 00
        E 0 80 56 00
        E 0 80 62 00
        E 420 90 48 60
        E 0 90 55 60
        E 0 90 61 60
        E 60 80 48 00
        E 0 80 55 00
        E 0 80 61 00
        E 180 90 56 60
        E 0 90 62 60
        E 600 80 56 00
        E 0 80 62 00
        E 120 90 3c 60
        E 0 90 48 60
        E 0 90 55 60
        E 0 90 61 60
        E 60 80 3c 00
        E 0 80 48 00
        E 0 80 55 00
        E 0 80 61 00
        E 1260 90 3d 60
        E 0 90 4a 60
        E 0 90 57 60
        E 60 80 3d 00
        E 0 80 4a 00
        E 0 80 57 00
        E 60 90 63 60
        E 60 80 63 00
        E 300 90 4a 60
        E 0 90 57 60
        E 60 80 4a 00
        E 0 80 57 00
        E 60 90 63 60
        E 60 80 63 00
        E 300 90 3c 60
        E 0 90 48 60
        E 0 90 55 60
        E 60 80 3c 00
        E 0 80 48 00
        E 0 80 55 00
        E 60 90 61 60
        E 60 80 61 00
        E 300 90 48 60
        E 0 90 55 60
        E 60 80 48 00
        E 0 80 55 00
        E 60 90 61 60
        E 60 80 61 00
        E 300 90 3d 60
        E 0 90 4a 60
        E 0 90 57 60
        E 60 80 3d 00
        E 0 80 4a 00
        E 0 80 57 00
        E 60 90 63 60
        E 60 80 63 00
        E 300 90 4a 60
        E 0 90 57 60
        E 60 80 4a 00
        E 0 80 57 00
        E 60 90 63 60
        E 60 80 63 00
        E 300 90 3e 60
        E 0 90 4b 60
        E 0 90 58 60
        E 60 80 3e 00
        E 0 80 4b 00
        E 0 80 58 00
        E 60 90 64 60
        E 60 80 64 00
        E 300 90 4b 60
        E 0 90 58 60
        E 60 80 4b 00
        E 0 80 58 00
        E 60 90 64 60
        E 60 80 64 00
        E 300 90 3c 60
        E 0 90 49 60
        E 0 90 56 60
        E 60 80 3c 00
        E 0 80 49 00
        E 0 80 56 00
        E 60 90 62 60
        E 60 80 62 00
        E 300 90 49 60
        E 0 90 56 60
        E 60 80 49 00
        E 0 80 56 00
        E 60 90 62 60
        E 60 80 62 00
        E 300 90 3e 60
        E 0 90 4b 60
        E 0 90 58 60
        E 60 80 3e 00
        E 0 80 4b 00
        E 0 80 58 00
        E 60 90 64 60
        E 60 80 64 00
        E 300 90 4b 60
        E 0 90 58 60
        E 60 80 4b 00
        E 0 80 58 00
        E 60 90 64 60
        E 60 80 64 00
        E 300 90 3d 60
        E 0 90 4a 60
        E 0 90 57 60
        E 60 80 3d 00
        E 0 80 4a 00
        E 0 80 57 00
        E 60 90 63 60
        E 60 80 63 00
        E 300 90 4a 60
        E 0 90 57 60
        E 60 80 4a 00
        E 0 80 57 00
        E 60 90 63 60
        E 60 80 63 00
        E 300 90 3c 60
        E 0 90 48 60
        E 0 90 55 60
        E 60 80 3c 00
        E 0 80 48 00
        E 0 80 55 00
        E 60 90 61 60
        E 60 80 61 00
        E 300 90 48 60
        E 0 90 55 60
        E 60 80 48 00
        E 0 80 55 00
        E 60 90 61 60
        E 60 80 61 00
        E 300 90 3d 60
        E 0 90 4a 60
        E 0 90 57 60
        E 60 80 3d 00
        E 0 80 4a 00
        E 0 80 57 00
        E 60 90 63 60
        E 60 80 63 00
        E 300 90 4a 60
        E 0 90 57 60
        E 60 80 4a 00
        E 0 80 57 00
        E 60 90 63 60
        E 60 80 63 00
        E 540 90 3d 60
        E 0 90 48 60
        E 0 90 4a 60
        E 0 90 54 60
        E 0 90 56 60
        E 0 90 60 60
        E 0 90 62 60
        E 120 80 3d 00
        E 0 80 48 00
        E 0 80 4a 00
        E 0 80 54 00
        E 0 80 56 00
        E 0 90 74 60
        E 120 80 60 00
        E 0 80 62 00
        E 240 90 4a 60
        E 0 90 4b 60
        E 0 90 56 60
        E 0 90 58 60
        E 0 90 62 60
        E 0 90 64 60
        E 480 80 4a 00
        E 0 80 4b 00
        E 240 80 56 00
        E 0 80 58 00
        E 0 80 62 00
        E 0 80 64 00
        E 240 90 3e 60
        E 0 90 49 60
        E 0 90 4b 60
        E 0 90 55 60
        E 0 90 57 60
        E 0 90 61 60
        E 0 90 63 60
        E 720 80 3e 00
        E 0 80 49 00
        E 0 80 4b 00
        E 0 80 55 00
        E 0 80 57 00
        E 0 80 61 00
        E 0 80 63 00
        E 120 80 74 00
        E 360 90 3d 60
        E 0 90 4a 60
        E 0 90 57 60
        E 60 80 3d 00
        E 0 80 4a 00
        E 0 80 57 00
        E 60 90 63 60
        E 60 80 63 00
        E 300 90 4a 60
        E 0 90 57 60
        E 60 80 4a 00
        E 0 80 57 00
        E 60 90 63 60
        E 60 80 63 00
        E 300 90 3c 60
        E 0 90 48 60
        E 0 90 55 60
        E 60 80 3c 00
        E 0 80 48 00
        E 0 80 55 00
        E 60 90 61 60
        E 60 80 61 00
        E 300 90 48 60
        E 0 90 55 60
        E 60 80 48 00
        E 0 80 55 00
        E 60 90 61 60
        E 60 80 61 00
        E 300 90 3d 60
        E 0 90 4a 60
        E 0 90 57 60
        E 60 80 3d 00
        E 0 80 4a 00
        E 0 80 57 00
        E 60 90 63 60
        E 60 80 63 00
        E 300 90 4a 60
        E 0 90 57 60
        E 60 80 4a 00
        E 0 80 57 00
        E 60 90 63 60
        E 60 80 63 00
        E 300 90 3e 60
        E 0 90 4b 60
        E 0 90 58 60
        E 60 80 3e 00
        E 0 80 4b 00
        E 0 80 58 00
        E 60 90 64 60
        E 60 80 64 00
        E 300 90 4b 60
        E 0 90 58 60
        E 60 80 4b 00
        E 0 80 58 00
        E 60 90 64 60
        E 60 80 64 00
        E 300 90 3c 60
        E 0 90 49 60
        E 0 90 56 60
        E 60 80 3c 00
        E 0 80 49 00
        E 0 80 56 00
        E 60 90 62 60
        E 60 80 62 00
        E 300 90 49 60
        E 0 90 56 60
        E 60 80 49 00
        E 0 80 56 00
        E 60 90 62 60
        E 60 80 62 00
        E 300 90 3e 60
        E 0 90 4b 60
        E 0 90 58 60
        E 60 80 3e 00
        E 0 80 4b 00
        E 0 80 58 00
        E 60 90 64 60
        E 60 80 64 00
        E 300 90 4b 60
        E 0 90 58 60
        E 60 80 4b 00
        E 0 80 58 00
        E 60 90 64 60
        E 60 80 64 00
        E 420 90 3d 60
        E 0 90 4a 60
        E 0 90 57 60
        E 0 90 63 60
        E 480 80 3d 00
        E 0 80 4a 00
        E 360 80 57 00
        E 0 80 63 00
        E 120 90 3c 60
        E 0 90 49 60
        E 0 90 56 60
        E 0 90 62 60
        E 120 80 3c 00
        E 0 80 49 00
        E 360 80 56 00
        E 0 80 62 00
        E 120 90 48 60
        E 0 90 55 60
        E 0 90 61 60
        E 120 80 48 00
        E 480 80 55 00
        E 0 80 61 00
        E 120 90 3c 60
        E 0 90 49 60
        E 0 90 56 60
        E 0 90 62 60
        E 120 80 3c 00
        E 0 80 49 00
        E 480 80 56 00
        E 0 80 62 00
        E 120 90 4a 60
        E 0 90 57 60
        E 0 90 63 60
        E 2160 80 4a 00
        E 0 80 57 00
        E 0 80 63 00
        E 840 90 3c 60
        E 0 90 49 60
        E 0 90 56 60
        E 0 90 62 60
        E 60 80 3c 00
        E 0 80 49 00
        E 0 80 56 00
        E 0 80 62 00
        E 420 90 4b 60
        E 0 90 58 60
        E 0 90 64 60
        E 60 80 4b 00
        E 0 80 58 00
        E 0 80 64 00
        E 420 90 57 60
        E 0 90 63 60
        E 60 80 57 00
        E 0 80 63 00
        E 180 90 3c 60
        E 0 90 48 60
        E 0 90 55 60
        E 0 90 61 60
        E 480 80 3c 00
        E 0 80 48 00
        E 300 80 55 00
        E 0 80 61 00
        E 180 90 48 60
        E 0 90 54 60
        E 0 90 60 60
        E 60 80 48 00
        E 0 80 54 00
        E 0 80 60 00
        E 420 90 3e 60
        E 0 90 4a 60
        E 0 90 4b 60
        E 0 90 56 60
        E 0 90 58 60
        E 0 90 62 60
        E 0 90 64 60
        E 60 80 64 00
        E 60 80 3e 00
        E 0 80 4a 00
        E 0 80 4b 00
        E 240 80 56 00
        E 0 80 58 00
        E 120 90 4b 60
        E 0 90 58 60
        E 0 90 64 60
        E 60 80 4b 00
        E 0 80 58 00
        E 0 80 64 00
        E 419 90 3e 60
        E 0 90 4b 60
        E 0 90 58 60
        E 0 90 64 60
        E 60 80 3e 00
        E 0 80 4b 00
        E 0 80 58 00
        E 0 80 64 00
        E 421 90 4b 60
        E 0 90 58 60
        E 0 90 64 60
        E 60 80 4b 00
        E 0 80 58 00
        E 0 80 64 00
        E 419 90 3e 60
        E 0 90 4b 60
        E 0 90 58 60
        E 0 90 64 60
        E 60 80 3e 00
        E 0 80 4b 00
        E 0 80 58 00
        E 0 80 64 00
        E 421 90 3e 60
        E 0 90 4b 60
        E 0 90 58 60
        E 0 90 64 60
        E 60 80 62 00
        E 0 80 3e 00
        E 0 80 4b 00
        E 0 80 58 00
        E 0 80 64 00
        E 660 90 49 60
        E 0 90 56 60
        E 0 90 62 60
        E 60 80 49 00
        E 0 80 56 00
        E 0 80 62 00
        E 420 90 3e 60
        E 0 90 4b 60
        E 0 90 58 60
        E 0 90 64 60
        E 60 80 3e 00
        E 0 80 4b 00
        E 0 80 58 00
        E 0 80 64 00
        E 420 90 57 60
        E 0 90 63 60
        E 60 80 57 00
        E 0 80 63 00
        E 180 90 48 60
        E 0 90 55 60
        E 0 90 61 60
        E 481 80 48 00
        E 299 80 55 00
        E 0 80 61 00
        E 181 90 48 60
        E 0 90 54 60
        E 0 90 60 60
        E 60 80 48 00
        E 0 80 54 00
        E 0 80 60 00
        E 419 90 3e 60
        E 0 90 4a 60
        E 0 90 4b 60
        E 0 90 56 60
        E 0 90 58 60
        E 0 90 62 60
        E 0 90 64 60
        E 60 80 64 00
        E 60 80 3e 00
        E 0 80 4a 00
        E 0 80 4b 00
        E 240 80 56 00
        E 0 80 58 00
        E 120 90 4b 60
        E 0 90 58 60
        E 0 90 64 60
        E 60 80 4b 00
        E 0 80 58 00
        E 0 80 64 00
        E 420 90 3e 60
        E 0 90 4b 60
        E 0 90 58 60
        E 0 90 64 60
        E 60 80 3e 00
        E 0 80 4b 00
        E 0 80 58 00
        E 0 80 64 00
        E 420 90 3e 60
        E 0 90 4b 60
        E 0 90 58 60
        E 0 90 64 60
        E 60 80 3e 00
        E 0 80 4b 00
        E 0 80 58 00
        E 0 80 64 00
        E 420 90 3e 60
        E 0 90 4b 60
        E 0 90 58 60
        E 0 90 64 60
        E 60 80 3e 00
        E 0 80 4b 00
        E 0 80 58 00
        E 0 80 64 00
        E 420 90 4b 60
        E 0 90 58 60
        E 0 90 64 60
        E 60 80 62 00
        E 0 80 4b 00
        E 0 80 58 00
        E 0 80 64 00
        E 420 90 3c 60
        E 0 90 49 60
        E 0 90 56 60
        E 0 90 62 60
        E 60 80 3c 00
        E 0 80 49 00
        E 0 80 56 00
        E 0 80 62 00
        E 300 90 56 60
        E 0 90 62 60
        E 60 80 56 00
        E 0 80 62 00
        E 420 90 4b 60
        E 0 90 58 60
        E 0 90 64 60
        E 60 80 4b 00
        E 0 80 58 00
        E 0 80 64 00
        E 420 90 3d 60
        E 0 90 4a 60
        E 0 90 57 60
        E 0 90 63 60
        E 60 80 3d 00
        E 0 80 4a 00
        E 0 80 57 00
        E 0 80 63 00
        E 180 90 55 60
        E 0 90 61 60
        E 720 80 55 00
        E 0 80 61 00
        E 121 90 48 60
        E 0 90 54 60
        E 0 90 60 60
        E 60 80 48 00
        E 0 80 54 00
        E 0 80 60 00
        E 419 90 3e 60
        E 0 90 4a 60
        E 0 90 4b 60
        E 0 90 56 60
        E 0 90 58 60
        E 0 90 62 60
        E 0 90 64 60
        E 60 80 64 00
        E 60 80 3e 00
        E 0 80 4a 00
        E 0 80 4b 00
        E 240 80 56 00
        E 0 80 58 00
        E 120 90 4b 60
        E 0 90 58 60
        E 0 90 64 60
        E 60 80 4b 00
        E 0 80 58 00
        E 0 80 64 00
        E 419 90 3e 60
        E 0 90 4b 60
        E 0 90 58 60
        E 0 90 64 60
        E 60 80 3e 00
        E 0 80 4b 00
        E 0 80 58 00
        E 0 80 64 00
        E 362 90 74 61
        E 59 90 4b 60
        E 0 90 58 60
        E 0 90 64 60
        E 60 80 4b 00
        E 0 80 58 00
        E 0 80 64 00
        E 419 90 3e 60
        E 0 90 4b 60
        E 0 90 58 60
        E 0 90 64 60
        E 60 80 3e 00
        E 0 80 4b 00
        E 0 80 58 00
        E 0 80 64 00
        E 421 90 4b 60
        E 0 90 58 60
        E 0 90 64 60
        E 60 80 62 00
        E 0 80 4b 00
        E 0 80 58 00
        E 0 80 64 00
        E 419 90 3c 60
        E 0 90 49 60
        E 0 90 56 60
        E 0 90 62 60
        E 59 80 3c 00
        E 0 80 49 00
        E 0 80 56 00
        E 0 80 62 00
        E 302 90 56 60
        E 0 90 62 60
        E 60 80 56 00
        E 0 80 62 00
        E 420 90 4b 60
        E 0 90 58 60
        E 0 90 64 60
        E 60 80 4b 00
        E 0 80 58 00
        E 0 80 64 00
        E 420 90 3d 60
        E 0 90 4a 60
        E 0 90 57 60
        E 0 90 63 60
        E 60 80 3d 00
        E 0 80 4a 00
        E 0 80 57 00
        E 0 80 63 00
        E 180 90 55 60
        E 0 90 61 60
        E 720 80 55 00
        E 0 80 61 00
        E 121 90 48 60
        E 0 90 54 60
        E 0 90 60 60
        E 60 80 48 00
        E 0 80 54 00
        E 0 80 60 00
        E 419 90 3e 60
        E 0 90 4a 60
        E 0 90 4b 60
        E 0 90 56 60
        E 0 90 58 60
        e 0 90 62 60
        E 0 90 64 60
        E 60 80 64 00
        E 60 80 3e 00
        E 0 80 4a 00
        E 0 80 4b 00
        E 240 80 56 00
        E 0 80 58 00
        E 120 90 4b 60
        E 0 90 58 60
        E 0 90 64 60
        E 9 80 74 00
        E 51 80 4b 00
        E 0 80 58 00
        E 0 80 64 00
        E 419 90 3e 60
        E 0 90 4b 60
        E 0 90 58 60
        E 0 90 64 60
        E 60 80 3e 00
        E 0 80 4b 00
        E 0 80 58 00
        E 0 80 64 00
        E 421 90 4b 60
        E 0 90 58 60
        E 0 90 64 60
        E 60 80 4b 00
        E 0 80 58 00
        E 0 80 64 00
        E 419 90 3e 60
        E 0 90 4b 60
        E 0 90 58 60
        E 0 90 64 60
        E 60 80 3e 00
        E 0 80 4b 00
        E 0 80 58 00
        E 0 80 64 00
        E 421 90 4b 60
        E 0 90 58 60
        E 0 90 64 60
        e 60 80 62 00
        E 0 80 4b 00
        E 0 80 58 00
        E 0 80 64 00
        E 420 90 3c 60
        E 0 90 48 60
        E 0 90 55 60
        E 0 90 61 60
        E 120 80 3c 00
        E 0 80 48 00
        E 240 80 55 00
        E 120 90 49 60
        E 0 90 56 60
        E 0 90 62 60
        E 120 80 49 00
        E 240 80 56 00
        E 120 90 3d 60
        E 0 90 4a 60
        E 0 90 57 60
        E 0 90 63 60
        E 120 80 3d 00
        E 0 80 4a 00
        E 240 80 57 00
        E 120 90 4b 60
        E 0 90 58 60
        E 0 90 64 60
        E 1200 80 61 00
        E 0 80 62 00
        E 0 80 63 00
        E 0 80 4b 00
        E 0 80 58 00
        E 0 80 64 00
        E 720 90 48 60
        E 0 90 55 60
        E 0 90 61 60
        E 120 80 48 00
        E 240 80 55 00
        E 120 90 3e 60
        E 0 90 4b 60
        E 0 90 58 60
        E 0 90 64 60
        E 120 80 3e 00
        E 0 80 4b 00
        E 240 80 58 00
        E 120 90 49 60
        E 0 90 56 60
        E 0 90 62 60
        E 1200 80 61 00
        E 0 80 64 00
        E 0 80 49 00
        E 0 80 56 00
        E 0 80 62 00
        E 719 90 48 60
        E 0 90 55 60
        E 0 90 61 60
        E 120 80 48 00
        E 240 80 55 00
        E 120 90 3c 60
        E 0 90 49 60
        E 0 90 56 60
        E 0 90 62 60
        E 120 80 3c 00
        E 0 80 49 00
        E 241 80 56 00
        E 120 90 4b 60
        E 0 90 58 60
        E 0 90 64 60
        E 1438 80 4b 00
        E 241 80 61 00
        E 0 80 62 00
        E 0 80 58 00
        E 0 80 64 00
        E 239 90 48 60
        E 0 90 55 60
        E 0 90 61 60
        E 120 80 48 00
        E 240 80 55 00
        E 120 90 3e 60
        E 0 90 4b 60
        E 0 90 58 60
        E 0 90 64 60
        E 120 80 3e 00
        E 0 80 4b 00
        E 241 80 58 00
        E 120 90 49 60
        E 0 90 56 60
        E 0 90 62 60
        E 1200 80 61 00
        E 0 80 64 00
        E 0 80 49 00
        E 0 80 56 00
        E 0 80 62 00
        E 241 90 74 61
        E 480 90 3c 60
        E 0 90 49 60
        E 0 90 56 60
        E 0 90 62 60
        E 60 80 3c 00
        E 0 80 49 00
        E 0 80 56 00
        E 0 80 62 00
        E 180 90 49 60
        E 0 90 56 60
        E 0 90 62 60
        E 60 80 49 00
        E 0 80 56 00
        E 0 80 62 00
        E 420 90 4a 60
        E 0 90 57 60
        E 0 90 63 60
        E 1560 80 4a 00
        E 0 80 57 00
        E 0 80 63 00
        E 600 90 48 60
        E 0 90 55 60
        E 0 90 61 60
        E 120 80 48 00
        E 240 80 55 00
        E 120 90 3e 60
        E 0 90 4b 60
        E 0 90 58 60
        E 0 90 64 60
        E 120 80 3e 00
        E 0 80 4b 00
        E 241 80 58 00
        E 120 90 49 60
        E 0 90 56 60
        E 0 90 62 60
        E 547 80 74 00
        E 653 80 61 00
        E 0 80 64 00
        E 0 80 49 00
        E 0 80 56 00
        E 0 80 62 00
        E 719 90 48 60
        E 0 90 55 60
        E 0 90 61 60
        E 120 80 48 00
        E 240 80 55 00
        E 120 90 3d 60
        E 0 90 4a 60
        E 0 90 57 60
        E 0 90 63 60
        E 120 80 3d 00
        E 0 80 4a 00
        E 240 80 57 00
        E 120 90 4b 60
        E 0 90 58 60
        E 0 90 64 60
        E 960 80 4b 00
        E 360 80 58 00
        E 120 90 3c 60
        E 0 90 49 60
        E 0 90 56 60
        E 0 90 62 60
        E 1800 80 61 00
        E 0 80 63 00
        E 0 80 64 00
        E 0 80 3c 00
        E 0 80 49 00
        E 0 80 56 00
        E 0 80 62 00
        E 1080 90 3d 60
        E 0 90 4a 60
        E 0 90 57 60
        E 0 90 63 60
        E 600 80 3d 00
        E 0 80 4a 00
        E 360 80 57 00
        E 0 80 63 00
        E 120 90 3c 60
        E 0 90 49 60
        E 0 90 56 60
        E 0 90 62 60
        E 120 80 3c 00
        E 0 80 49 00
        E 360 80 56 00
        E 0 80 62 00
        E 120 90 48 60
        E 0 90 55 60
        E 0 90 61 60
        E 120 80 48 00
        E 480 80 55 00
        E 0 80 61 00
        E 120 90 3c 60
        E 0 90 49 60
        E 0 90 56 60
        E 0 90 62 60
        E 120 80 3c 00
        E 0 80 49 00
        E 480 80 56 00
        E 0 80 62 00
        E 120 90 4a 60
        E 0 90 57 60
        E 0 90 63 60
        E 1800 80 4a 00
        E 0 80 57 00
        E 0 80 63 00
        E 840 90 3d 60
        E 0 90 4a 60
        E 0 90 57 60
        E 0 90 63 60
        E 61 80 3d 00
        E 0 80 4a 00
        E 0 80 57 00
        E 0 80 63 00
        E 179 90 55 60
        E 0 90 61 60
        E 61 80 55 00
        E 0 80 61 00
        E 179 90 4a 60
        E 0 90 57 60
        E 0 90 63 60
        E 120 80 4a 00
        E 239 80 57 00
        E 61 80 63 00
        E 59 90 3d 60
        E 0 90 4a 60
        E 0 90 57 60
        E 0 90 63 60
        E 61 80 3d 00
        E 0 80 4a 00
        E 0 80 57 00
        E 0 80 63 00
        E 179 90 55 60
        E 0 90 61 60
        E 61 80 55 00
        E 0 80 61 00
        E 179 90 4a 60
        E 0 90 57 60
        E 0 90 63 60
        E 61 80 4a 00
        E 0 80 57 00
        E 0 80 63 00
        E 418 90 3d 60
        E 0 90 4a 60
        E 0 90 57 60
        E 0 90 63 60
        E 120 80 3d 00
        E 0 80 4a 00
        E 240 80 57 00
        E 2 80 63 00
        E 118 90 4a 60
        E 0 90 57 60
        E 0 90 63 60
        E 62 80 4a 00
        E 0 80 57 00
        E 0 80 63 00
        E 180 90 55 60
        E 0 90 61 60
        E 60 80 55 00
        E 0 80 61 00
        E 180 90 3c 60
        E 0 90 49 60
        E 0 90 56 60
        E 0 90 62 60
        E 61 80 3c 00
        E 0 80 49 00
        E 0 80 56 00
        E 0 80 62 00
        E 179 90 54 60
        E 0 90 60 60
        E 61 80 54 00
        E 0 80 60 00
        E 179 90 49 60
        E 0 90 56 60
        E 0 90 62 60
        E 120 80 49 00
        E 239 80 56 00
        E 1 80 62 00
        E 119 90 3c 60
        E 0 90 49 60
        E 0 90 56 60
        E 0 90 62 60
        E 61 80 3c 00
        E 0 80 49 00
        E 0 80 56 00
        E 0 80 62 00
        E 179 90 54 60
        E 0 90 60 60
        E 61 80 54 00
        E 0 80 60 00
        E 179 90 49 60
        E 0 90 56 60
        E 0 90 62 60
        E 60 80 49 00
        E 0 80 56 00
        E 0 80 62 00
        E 181 90 54 60
        E 0 90 60 60
        E 60 80 54 00
        E 0 80 60 00
        E 178 90 3c 60
        E 0 90 49 60
        E 0 90 56 60
        E 0 90 62 60
        E 120 80 3c 00
        E 0 80 49 00
        E 240 80 56 00
        E 2 80 62 00
        E 118 90 49 60
        E 0 90 56 60
        E 0 90 62 60
        E 62 80 49 00
        E 0 80 56 00
        E 0 80 62 00
        E 180 90 54 60
        E 0 90 60 60
        E 60 80 54 00
        E 0 80 60 00
        E 180 90 3d 60
        E 0 90 4a 60
        E 0 90 57 60
        E 0 90 63 60
        E 0 90 74 61
        E 480 80 3d 00
        E 0 80 4a 00
        E 360 80 57 00
        E 0 80 63 00
        E 120 90 3c 60
        E 0 90 49 60
        E 0 90 56 60
        E 0 90 62 60
        E 120 80 3c 00
        E 0 80 49 00
        E 360 80 56 00
        E 0 80 62 00
        E 120 90 48 60
        E 0 90 55 60
        E 0 90 61 60
        E 120 80 48 00
        E 480 80 55 00
        E 0 80 61 00
        E 120 90 3c 60
        E 0 90 49 60
        E 0 90 56 60
        E 0 90 62 60
        E 120 80 3c 00
        E 0 80 49 00
        E 480 80 56 00
        E 0 80 62 00
        E 120 90 4a 60
        E 0 90 57 60
        E 0 90 63 60
        E 1200 80 4a 00
        E 0 80 57 00
        E 0 80 63 00
        E 120 80 74 00
        E 360 90 3d 60
        E 0 90 48 60
        E 0 90 4a 60
        E 0 90 54 60
        E 0 90 56 60
        E 0 90 60 60
        E 0 90 62 60
        E 120 80 3d 00
        E 0 80 48 00
        E 0 80 4a 00
        E 240 80 54 00
        E 0 80 56 00
        E 0 80 60 00
        E 0 80 62 00
        E 120 90 4a 60
        E 0 90 4b 60
        E 0 90 56 60
        E 0 90 58 60
        E 0 90 62 60
        E 0 90 64 60
        E 480 80 4a 00
        E 0 80 4b 00
        E 360 80 56 00
        E 0 80 58 00
        E 0 80 62 00
        E 0 80 64 00
        E 120 90 3e 60
        E 0 90 49 60
        E 0 90 4b 60
        E 0 90 55 60
        E 0 90 57 60
        E 0 90 61 60
        E 0 90 63 60
        E 480 80 3e 00
        E 0 80 49 00
        E 0 80 4b 00
        E 0 80 55 00
        E 0 80 57 00
        E 0 80 61 00
        E 0 80 63 00
        E 362 90 55 60
        E 0 90 61 60
        E 60 80 55 00
        E 0 80 61 00
        E 178 90 3d 60
        E 0 90 4a 60
        E 0 90 57 60
        E 0 90 63 60
        E 120 80 3d 00
        E 0 80 4a 00
        E 241 80 57 00
        E 0 80 63 00
        E 120 90 3d 60
        E 0 90 4a 60
        E 0 90 57 60
        E 0 90 63 60
        E 62 80 3d 00
        E 0 80 4a 00
        E 0 80 57 00
        E 0 80 63 00
        E 178 90 55 60
        E 0 90 61 60
        E 60 80 55 00
        E 0 80 61 00
        E 180 90 4a 60
        E 0 90 57 60
        E 0 90 63 60
        E 60 80 4a 00
        E 0 80 57 00
        E 0 80 63 00
        E 180 90 55 60
        E 0 90 61 60
        E 60 80 55 00
        E 0 80 61 00
        E 180 90 3c 60
        E 0 90 48 60
        E 0 90 54 60
        E 0 90 60 60
        E 61 80 3c 00
        E 0 80 48 00
        E 0 80 54 00
        E 0 80 60 00
        E 178 90 56 60
        E 0 90 62 60
        E 2160 80 56 00
        E 0 80 62 00
        E 480 90 3c 61
        E 0 90 48 61
        E 0 90 54 61
        E 0 90 60 61
        E 120 80 3c 00
        E 0 80 48 00
        E 360 80 54 00
        E 0 80 60 00
        E 240 90 48 61
        E 0 90 55 61
        E 0 90 61 61
        E 120 80 48 00
        E 360 80 55 00
        E 0 80 61 00
        E 240 90 3c 61
        E 0 90 49 61
        E 0 90 56 61
        E 0 90 62 61
        E 120 80 3c 00
        E 0 80 49 00
        E 360 80 56 00
        E 0 80 62 00
        E 240 90 48 61
        E 0 90 55 61
        E 0 90 61 61
        E 120 80 48 00
        E 360 80 55 00
        E 0 80 61 00
        E 240 90 3c 61
        E 0 90 48 61
        E 0 90 54 61
        E 0 90 60 61
        E 120 80 3c 00
        E 0 80 48 00
        E 360 80 54 00
        E 0 80 60 00
        E 240 90 48 61
        E 0 90 55 61
        E 0 90 61 61
        E 120 80 48 00
        E 360 80 55 00
        E 0 80 61 00
        E 240 90 3d 61
        E 0 90 4a 61
        E 0 90 57 61
        E 0 90 63 61
        E 120 80 3d 00
        E 0 80 4a 00
        E 360 80 57 00
        E 0 80 63 00
        E 240 90 48 61
        E 0 90 55 61
        E 0 90 61 61
        E 120 80 48 00
        E 360 80 55 00
        E 0 80 61 00
        E 240 90 3c 61
        E 0 90 48 61
        E 0 90 54 61
        E 0 90 60 61
        E 120 80 3c 00
        E 0 80 48 00
        E 360 80 54 00
        E 0 80 60 00
        E 240 90 48 61
        E 0 90 55 61
        E 0 90 61 61
        E 120 80 48 00
        E 360 80 55 00
        E 0 80 61 00
        E 240 90 3c 61
        E 0 90 49 61
        E 0 90 56 61
        E 0 90 62 61
        E 120 80 3c 00
        E 0 80 49 00
        E 360 80 56 00
        E 0 80 62 00
        E 240 90 48 61
        E 0 90 55 61
        E 0 90 61 61
        E 360 80 48 00
        E 120 80 55 00
        E 0 80 61 00
        E 360 90 3d 60
        E 0 90 48 60
        E 0 90 4a 60
        E 0 90 54 60
        E 0 90 56 60
        E 0 90 60 60
        E 0 90 62 60
        E 120 80 3d 00
        E 0 80 48 00
        E 0 80 4a 00
        E 0 80 54 00
        E 0 80 56 00
        E 120 80 60 00
        E 0 80 62 00
        E 240 90 4a 60
        E 0 90 4b 60
        E 0 90 56 60
        E 0 90 58 60
        E 0 90 62 60
        E 0 90 64 60
        E 480 80 4a 00
        E 0 80 4b 00
        E 240 80 56 00
        E 0 80 58 00
        E 0 80 62 00
        E 0 80 64 00
        E 240 90 3e 60
        E 0 90 49 60
        E 0 90 4b 60
        E 0 90 55 60
        E 0 90 57 60
        E 0 90 61 60
        E 0 90 63 60
        E 720 80 3e 00
        E 0 80 49 00
        E 0 80 4b 00
        E 0 80 55 00
        E 0 80 57 00
        E 0 80 61 00
        E 0 80 63 00
        E 720 90 3c 61
        E 0 90 48 61
        E 0 90 54 61
        E 0 90 60 61
        E 120 80 3c 00
        E 0 80 48 00
        E 360 80 54 00
        E 0 80 60 00
        E 240 90 48 61
        E 0 90 55 61
        E 0 90 61 61
        E 120 80 48 00
        E 360 80 55 00
        E 0 80 61 00
        E 240 90 3c 61
        E 0 90 49 61
        E 0 90 56 61
        E 0 90 62 61
        E 120 80 3c 00
        E 0 80 49 00
        E 360 80 56 00
        E 0 80 62 00
        E 240 90 48 61
        E 0 90 55 61
        E 0 90 61 61
        E 120 80 48 00
        E 360 80 55 00
        E 0 80 61 00
        E 240 90 3c 61
        E 0 90 48 61
        E 0 90 54 61
        E 0 90 60 61
        E 120 80 3c 00
        E 0 80 48 00
        E 360 80 54 00
        E 0 80 60 00
        E 240 90 48 61
        E 0 90 55 61
        E 0 90 61 61
        E 120 80 48 00
        E 360 80 55 00
        E 0 80 61 00
        E 240 90 3d 61
        E 0 90 4a 61
        E 0 90 57 61
        E 0 90 63 61
        E 120 80 3d 00
        E 0 80 4a 00
        E 103 90 74 61
        E 257 80 57 00
        E 0 80 63 00
        E 240 90 48 61
        E 0 90 55 61
        E 0 90 61 61
        E 120 80 48 00
        E 360 80 55 00
        E 0 80 61 00
        E 120 90 3d 60
        E 0 90 4a 60
        E 0 90 57 60
        E 0 90 63 60
        E 480 80 3d 00
        E 0 80 4a 00
        E 360 80 57 00
        E 0 80 63 00
        E 120 90 3c 60
        E 0 90 49 60
        E 0 90 56 60
        E 0 90 62 60
        E 120 80 3c 00
        E 0 80 49 00
        E 360 80 56 00
        E 0 80 62 00
        E 120 90 48 60
        E 0 90 55 60
        E 0 90 61 60
        E 120 80 48 00
        E 480 80 55 00
        E 0 80 61 00
        E 120 90 3c 60
        E 0 90 49 60
        E 0 90 56 60
        E 0 90 62 60
        E 120 80 3c 00
        E 0 80 49 00
        E 480 80 56 00
        E 0 80 62 00
        E 120 90 4a 60
        E 0 90 57 60
        E 0 90 63 60
        E 1494 80 74 00
        E 666 80 4a 00
        E 0 80 57 00
        E 0 80 63 00
        E 960 90 3c 60
        E 0 90 49 60
        E 0 90 56 60
        E 60 80 3c 00
        E 0 80 49 00
        E 0 80 56 00
        E 63 90 62 60
        E 60 80 62 00
        E 297 90 4b 60
        E 0 90 58 60
        E 60 80 4b 00
        E 0 80 58 00
        E 63 90 64 60
        E 60 80 64 00
        E 297 90 3d 60
        E 0 90 4a 60
        E 0 90 57 60
        E 60 80 3d 00
        E 0 80 4a 00
        E 0 80 57 00
        E 63 90 63 60
        E 60 80 63 00
        E 57 90 55 60
        E 123 90 61 60
        E 717 80 55 00
        E 120 90 3c 60
        E 0 90 48 60
        E 0 90 54 60
        E 3 80 61 00
        E 57 80 3c 00
        E 0 80 48 00
        E 0 80 54 00
        E 63 90 60 60
        E 60 80 60 00
        E 297 90 49 60
        E 0 90 56 60
        E 60 80 49 00
        E 0 80 56 00
        E 63 90 62 60
        E 60 80 62 00
        E 297 90 3c 60
        E 0 90 49 60
        E 0 90 56 60
        E 60 80 3c 00
        E 0 80 49 00
        E 0 80 56 00
        E 63 90 62 60
        E 60 80 62 00
        E 297 90 4b 60
        E 0 90 58 60
        E 60 80 4b 00
        E 0 80 58 00
        E 63 90 64 60
        E 60 80 64 00
        E 297 90 3d 60
        E 0 90 4a 60
        E 0 90 57 60
        E 120 80 3d 00
        E 0 80 4a 00
        E 3 90 63 60
        E 357 80 57 00
        E 123 80 63 00
        E 117 90 48 60
        E 0 90 55 60
        E 120 80 48 00
        E 0 80 55 00
        E 3 90 61 60
        E 357 80 61 00
        E 480 90 3c 60
        E 0 90 49 60
        E 0 90 56 60
        E 60 80 3c 00
        E 0 80 49 00
        E 0 80 56 00
        E 63 90 62 60
        E 60 80 62 00
        E 297 90 4b 60
        E 0 90 58 60
        E 60 80 4b 00
        E 0 80 58 00
        E 63 90 64 60
        E 60 80 64 00
        E 297 90 3d 60
        E 0 90 4a 60
        E 0 90 57 60
        E 60 80 3d 00
        E 0 80 4a 00
        E 0 80 57 00
        E 63 90 63 60
        E 60 80 63 00
        E 57 90 55 60
        E 123 90 61 60
        E 717 80 55 00
        E 120 90 3c 60
        E 0 90 48 60
        E 0 90 54 60
        E 3 80 61 00
        E 57 80 3c 00
        E 0 80 48 00
        E 0 80 54 00
        E 63 90 60 60
        E 60 80 60 00
        E 297 90 49 60
        E 0 90 56 60
        E 60 80 49 00
        E 0 80 56 00
        E 63 90 62 60
        E 60 80 62 00
        E 297 90 3c 60
        E 0 90 49 60
        E 0 90 56 60
        E 60 80 3c 00
        E 0 80 49 00
        E 0 80 56 00
        E 63 90 62 60
        E 60 80 62 00
        E 297 90 4b 60
        E 0 90 58 60
        E 60 80 4b 00
        E 0 80 58 00
        E 63 90 64 60
        E 60 80 64 00
        E 297 90 3d 60
        E 0 90 4a 60
        E 0 90 57 60
        E 120 80 3d 00
        E 0 80 4a 00
        E 3 90 63 60
        E 357 80 57 00
        E 123 80 63 00
        E 117 90 48 60
        E 0 90 55 60
        E 120 80 48 00
        E 0 80 55 00
        E 3 90 61 60
        E 357 80 61 00
        E 480 90 3c 60
        E 0 90 49 60
        E 0 90 56 60
        E 60 80 3c 00
        E 0 80 49 00
        E 0 80 56 00
        E 63 90 62 60
        E 60 80 62 00
        E 297 90 4b 60
        E 0 90 58 60
        E 60 80 4b 00
        E 0 80 58 00
        E 63 90 64 60
        E 60 80 64 00
        E 297 90 3d 60
        E 0 90 4a 60
        E 0 90 57 60
        E 60 80 3d 00
        E 0 80 4a 00
        E 0 80 57 00
        E 63 90 63 60
        E 60 80 63 00
        E 57 90 55 60
        E 123 90 61 60
        E 717 80 55 00
        E 120 90 3c 60
        E 0 90 48 60
        E 0 90 54 60
        E 3 80 61 00
        E 57 80 3c 00
        E 0 80 48 00
        E 0 80 54 00
        E 63 90 60 60
        E 60 80 60 00
        E 297 90 49 60
        E 0 90 56 60
        E 60 80 49 00
        E 0 80 56 00
        E 63 90 62 60
        E 60 80 62 00
        E 297 90 3c 60
        E 0 90 49 60
        E 0 90 56 60
        E 60 80 3c 00
        E 0 80 49 00
        E 0 80 56 00
        E 63 90 62 60
        E 60 80 62 00
        E 297 90 4b 60
        E 0 90 58 60
        E 60 80 4b 00
        E 0 80 58 00
        E 63 90 64 60
        E 60 80 64 00
        E 297 90 3d 60
        E 0 90 4a 60
        E 0 90 57 60
        E 120 80 3d 00
        E 0 80 4a 00
        E 3 90 63 60
        E 357 80 57 00
        E 123 80 63 00
        E 117 90 48 60
        E 0 90 55 60
        E 120 80 48 00
        E 0 80 55 00
        E 3 90 61 60
        E 357 80 61 00
        E 480 90 3c 60
        E 0 90 49 60
        E 0 90 56 60
        E 60 80 3c 00
        E 0 80 49 00
        E 0 80 56 00
        E 63 90 62 60
        E 60 80 62 00
        E 297 90 4b 60
        E 0 90 58 60
        E 60 80 4b 00
        E 0 80 58 00
        E 63 90 64 60
        E 60 80 64 00
        E 297 90 3d 60
        E 0 90 4a 60
        E 0 90 57 60
        E 60 80 3d 00
        E 0 80 4a 00
        E 0 80 57 00
        E 63 90 63 60
        E 60 80 63 00
        E 57 90 55 60
        E 123 90 61 60
        E 717 80 55 00
        E 120 90 3c 60
        E 0 90 48 60
        E 0 90 54 60
        E 3 80 61 00
        E 57 80 3c 00
        E 0 80 48 00
        E 0 80 54 00
        E 63 90 60 60
        E 60 80 60 00
        E 297 90 4a 60
        E 0 90 4b 60
        E 0 90 56 60
        E 0 90 58 60
        E 0 90 62 60
        E 0 90 64 60
        E 60 80 64 00
        E 60 80 4a 00
        E 0 80 4b 00
        E 240 80 56 00
        E 0 80 58 00
        E 120 90 3e 60
        E 0 90 4b 60
        E 0 90 58 60
        E 0 90 64 60
        E 60 80 3e 00
        E 0 80 4b 00
        E 0 80 58 00
        E 0 80 64 00
        E 419 90 58 60
        E 0 90 64 60
        E 60 80 58 00
        E 0 80 64 00
        E 421 90 3e 60
        E 0 90 4b 60
        E 0 90 58 60
        E 0 90 64 60
        E 60 80 3e 00
        E 0 80 4b 00
        E 0 80 58 00
        E 0 80 64 00
        E 419 90 58 60
        E 0 90 64 60
        E 60 80 58 00
        E 0 80 64 00
        E 421 90 58 60
        E 0 90 64 60
        E 60 80 62 00
        E 0 80 58 00
        E 0 80 64 00
        E 300 90 3c 60
        E 0 90 48 60
        E 0 90 55 60
        E 0 90 61 60
        E 0 90 74 61
        E 120 80 3c 00
        E 0 80 48 00
        E 0 80 55 00
        E 120 90 56 60
        E 0 90 62 60
        E 360 80 56 00
        E 120 90 4a 60
        E 0 90 57 60
        E 0 90 63 60
        E 120 80 4a 00
        E 480 80 57 00
        E 120 90 3e 60
        E 0 90 4b 60
        E 0 90 58 60
        E 0 90 64 60
        E 1200 80 61 00
        E 0 80 62 00
        E 0 80 63 00
        E 0 80 3e 00
        E 0 80 4b 00
        E 0 80 58 00
        E 0 80 64 00
        E 720 90 48 60
        E 0 90 55 60
        E 0 90 61 60
        E 120 80 48 00
        E 240 80 55 00
        E 120 90 3e 60
        E 0 90 4b 60
        E 0 90 58 60
        E 0 90 64 60
        E 120 80 3e 00
        E 0 80 4b 00
        E 240 80 58 00
        E 120 90 49 60
        E 0 90 56 60
        E 0 90 62 60
        E 480 80 74 00
        E 240 80 61 00
        E 0 80 64 00
        E 0 80 49 00
        E 0 80 56 00
        E 0 80 62 00
        E 720 90 3c 60
        E 0 90 48 60
        E 0 90 55 60
        E 0 90 61 60
        E 120 80 3c 00
        E 0 80 48 00
        E 240 80 55 00
        E 120 90 49 60
        E 0 90 56 60
        E 0 90 62 60
        E 480 80 49 00
        E 360 80 56 00
        E 120 90 3e 60
        E 0 90 4b 60
        E 0 90 58 60
        E 0 90 64 60
        E 1200 80 61 00
        E 0 80 62 00
        E 0 80 3e 00
        E 0 80 4b 00
        E 0 80 58 00
        E 0 80 64 00
        E 720 90 48 60
        E 0 90 55 60
        E 0 90 61 60
        E 120 80 48 00
        E 240 80 55 00
        E 120 90 3e 60
        E 0 90 4b 60
        E 0 90 58 60
        E 0 90 64 60
        E 120 80 3e 00
        E 0 80 4b 00
        E 240 80 58 00
        E 120 90 49 60
        E 0 90 56 60
        E 0 90 62 60
        E 1200 80 61 00
        E 0 80 64 00
        E 0 80 49 00
        E 0 80 56 00
        E 0 80 62 00
        E 600 90 3c 60
        E 0 90 49 60
        E 0 90 56 60
        E 60 80 3c 00
        E 0 80 49 00
        E 0 80 56 00
        E 60 90 62 60
        E 60 80 62 00
        E 60 90 56 60
        E 60 80 56 00
        E 60 90 62 60
        E 60 80 62 00
        E 300 90 4a 60
        E 0 90 57 60
        E 0 90 63 60
        E 1680 80 4a 00
        E 0 80 57 00
        E 0 80 63 00
        E 599 90 48 60
        E 0 90 55 60
        E 0 90 61 60
        E 120 80 48 00
        E 240 80 55 00
        E 120 90 3e 60
        E 0 90 4b 60
        E 0 90 58 60
        E 0 90 64 60
        E 120 80 3e 00
        E 0 80 4b 00
        E 241 80 58 00
        E 120 90 49 60
        E 0 90 56 60
        E 0 90 62 60
        E 1200 80 61 00
        E 0 80 64 00
        E 0 80 49 00
        E 0 80 56 00
        E 0 80 62 00
        E 720 90 48 60
        E 0 90 55 60
        E 0 90 61 60
        E 120 80 48 00
        E 240 80 55 00
        E 120 90 3d 60
        E 0 90 4a 60
        E 0 90 57 60
        E 0 90 63 60
        E 120 80 3d 00
        E 0 80 4a 00
        E 240 80 57 00
        E 120 90 4b 60
        E 0 90 58 60
        E 0 90 64 60
        E 960 80 4b 00
        E 360 80 58 00
        E 120 90 3c 60
        E 0 90 49 60
        E 0 90 56 60
        E 0 90 62 60
        E 1740 80 61 00
        E 0 80 63 00
        E 0 80 64 00
        E 0 80 3c 00
        E 0 80 49 00
        E 0 80 56 00
        E 0 80 62 00
        E 1140 90 3c 60
        E 0 90 48 60
        E 0 90 55 60
        E 0 90 61 60
        E 120 80 3c 00
        E 0 80 48 00
        E 0 80 55 00
        E 120 90 56 60
        E 0 90 62 60
        E 360 80 56 00
        E 120 90 4a 60
        E 0 90 57 60
        E 0 90 63 60
        E 120 80 4a 00
        E 480 80 57 00
        E 120 90 3e 60
        E 0 90 4b 60
        E 0 90 58 60
        E 0 90 64 60
        E 1200 80 61 00
        E 0 80 62 00
        E 0 80 63 00
        E 0 80 3e 00
        E 0 80 4b 00
        E 0 80 58 00
        E 0 80 64 00
        E 720 90 48 60
        E 0 90 55 60
        E 0 90 61 60
        E 120 80 48 00
        E 240 80 55 00
        E 120 90 3e 60
        E 0 90 4b 60
        E 0 90 58 60
        E 0 90 64 60
        E 120 80 3e 00
        E 0 80 4b 00
        E 240 80 58 00
        E 120 90 49 60
        E 0 90 56 60
        E 0 90 62 60
        E 720 80 61 00
        E 0 80 64 00
        E 0 80 49 00
        E 0 80 56 00
        E 0 80 62 00
        E 720 90 3c 60
        E 0 90 48 60
        E 0 90 55 60
        E 0 90 61 60
        E 120 80 3c 00
        E 0 80 48 00
        E 240 80 55 00
        E 120 90 49 60
        E 0 90 56 60
        E 0 90 62 60
        E 480 80 49 00
        E 360 80 56 00
        E 120 90 3e 60
        E 0 90 4b 60
        E 0 90 58 60
        E 0 90 64 60
        E 1200 80 61 00
        E 0 80 62 00
        E 0 80 3e 00
        E 0 80 4b 00
        E 0 80 58 00
        E 0 80 64 00
        E 720 90 48 60
        E 0 90 55 60
        E 0 90 61 60
        E 120 80 48 00
        E 240 80 55 00
        E 120 90 3e 60
        E 0 90 4b 60
        E 0 90 58 60
        E 0 90 64 60
        E 120 80 3e 00
        E 0 80 4b 00
        E 240 80 58 00
        E 120 90 49 60
        E 0 90 56 60
        E 0 90 62 60
        E 1200 80 61 00
        E 0 80 64 00
        E 0 80 49 00
        E 0 80 56 00
        E 0 80 62 00
        E 600 90 3c 60
        E 0 90 49 60
        E 0 90 56 60
        E 60 80 3c 00
        E 0 80 49 00
        E 0 80 56 00
        E 60 90 62 60
        E 60 80 62 00
        E 60 90 56 60
        E 60 80 56 00
        E 60 90 62 60
        E 60 80 62 00
        E 300 90 4a 60
        E 0 90 57 60
        E 0 90 63 60
        E 1680 80 4a 00
        E 0 80 57 00
        E 0 80 63 00
        E 599 90 48 60
        E 0 90 55 60
        E 0 90 61 60
        E 120 80 48 00
        E 240 80 55 00
        E 120 90 3e 60
        E 0 90 4b 60
        E 0 90 58 60
        E 0 90 64 60
        E 120 80 3e 00
        E 0 80 4b 00
        E 241 80 58 00
        E 120 90 49 60
        E 0 90 56 60
        E 0 90 62 60
        E 511 90 74 61
        E 689 80 61 00
        E 0 80 64 00
        E 0 80 49 00
        E 0 80 56 00
        E 0 80 62 00
        E 720 90 48 60
        E 0 90 55 60
        E 0 90 61 60
        E 120 80 48 00
        E 240 80 55 00
        E 120 90 3d 60
        E 0 90 4a 60
        E 0 90 57 60
        E 0 90 63 60
        E 120 80 3d 00
        E 0 80 4a 00
        E 240 80 57 00
        E 120 90 4b 60
        E 0 90 58 60
        E 0 90 64 60
        E 960 80 4b 00
        E 360 80 58 00
        E 120 90 3c 60
        E 0 90 49 60
        E 0 90 56 60
        E 0 90 62 60
        E 1592 80 74 00
        E 148 80 61 00
        E 0 80 63 00
        E 0 80 64 00
        E 0 80 3c 00
        E 0 80 49 00
        E 0 80 56 00
        E 0 80 62 00
        E 1140 90 3c 60
        E 0 90 48 60
        E 0 90 55 60
        E 0 90 61 60
        E 120 80 3c 00
        E 0 80 48 00
        E 0 80 55 00
        E 120 90 56 60
        E 0 90 62 60
        E 360 80 56 00
        E 120 90 4a 60
        E 0 90 57 60
        E 0 90 63 60
        E 120 80 4a 00
        E 480 80 57 00
        E 120 90 3e 60
        E 0 90 4b 60
        E 0 90 58 60
        E 0 90 64 60
        E 1200 80 61 00
        E 0 80 62 00
        E 0 80 63 00
        E 0 80 3e 00
        E 0 80 4b 00
        E 0 80 58 00
        E 0 80 64 00
        E 720 90 48 60
        E 0 90 55 60
        E 0 90 61 60
        E 120 80 48 00
        E 240 80 55 00
        E 120 90 3e 60
        E 0 90 4b 60
        E 0 90 58 60
        E 0 90 64 60
        E 120 80 3e 00
        E 0 80 4b 00
        E 240 80 58 00
        E 120 90 49 60
        E 0 90 56 60
        E 0 90 62 60
        E 720 80 61 00
        E 0 80 64 00
        E 0 80 49 00
        E 0 80 56 00
        E 0 80 62 00
        E 720 90 3c 60
        E 0 90 48 60
        E 0 90 55 60
        E 0 90 61 60
        E 120 80 3c 00
        E 0 80 48 00
        E 240 80 55 00
        E 120 90 49 60
        E 0 90 56 60
        E 0 90 62 60
        E 480 80 49 00
        E 360 80 56 00
        E 120 90 3e 60
        E 0 90 4b 60
        E 0 90 58 60
        E 0 90 64 60
        E 1200 80 61 00
        E 0 80 62 00
        E 0 80 3e 00
        E 0 80 4b 00
        E 0 80 58 00
        E 0 80 64 00
        E 720 90 48 60
        E 0 90 55 60
        E 0 90 61 60
        E 120 80 48 00
        E 240 80 55 00
        E 120 90 3e 60
        E 0 90 4b 60
        E 0 90 58 60
        E 0 90 64 60
        E 120 80 3e 00
        E 0 80 4b 00
        E 240 80 58 00
        E 120 90 49 60
        E 0 90 56 60
        E 0 90 62 60
        E 1200 80 61 00
        E 0 80 64 00
        E 0 80 49 00
        E 0 80 56 00
        E 0 80 62 00
        E 600 90 3c 60
        E 0 90 49 60
        E 0 90 56 60
        E 60 80 3c 00
        E 0 80 49 00
        E 0 80 56 00
        E 60 90 62 60
        E 60 80 62 00
        E 60 90 56 60
        E 60 80 56 00
        E 60 90 62 60
        E 60 80 62 00
        E 300 90 4a 60
        E 0 90 57 60
        E 0 90 63 60
        E 1680 80 4a 00
        E 0 80 57 00
        E 0 80 63 00
        E 599 90 48 60
        E 0 90 55 60
        E 0 90 61 60
        E 120 80 48 00
        E 240 80 55 00
        E 120 90 3e 60
        E 0 90 4b 60
        E 0 90 58 60
        E 0 90 64 60
        E 120 80 3e 00
        E 0 80 4b 00
        E 241 80 58 00
        E 120 90 49 60
        E 0 90 56 60
        E 0 90 62 60
        E 1200 80 61 00
        E 0 80 64 00
        E 0 80 49 00
        E 0 80 56 00
        E 0 80 62 00
        E 720 90 48 60
        E 0 90 55 60
        E 0 90 61 60
        E 120 80 48 00
        E 240 80 55 00
        E 120 90 3d 60
        E 0 90 4a 60
        E 0 90 57 60
        E 0 90 63 60
        E 120 80 3d 00
        E 0 80 4a 00
        E 240 80 57 00
        E 120 90 4b 60
        E 0 90 58 60
        E 0 90 64 60
        E 960 80 4b 00
        E 360 80 58 00
        E 120 90 3c 60
        E 0 90 49 60
        E 0 90 56 60
        E 0 90 62 60
        E 1740 80 61 00
        E 0 80 63 00
        E 0 80 64 00
        E 0 80 3c 00
        E 0 80 49 00
        E 0 80 56 00
        E 0 80 62 00
        E 1140 90 3d 60
        E 0 90 4a 60
        E 0 90 57 60
        E 0 90 63 60
        E 480 80 3d 00
        E 0 80 4a 00
        E 360 80 57 00
        E 0 80 63 00
        E 120 90 3c 60
        E 0 90 49 60
        E 0 90 56 60
        E 0 90 62 60
        E 120 80 3c 00
        E 0 80 49 00
        E 360 80 56 00
        E 0 80 62 00
        E 120 90 48 60
        E 0 90 55 60
        E 0 90 61 60
        E 120 80 48 00
        E 480 80 55 00
        E 0 80 61 00
        E 120 90 3c 60
        E 0 90 49 60
        E 0 90 56 60
        E 0 90 62 60
        E 120 80 3c 00
        E 0 80 49 00
        E 480 80 56 00
        E 0 80 62 00
        E 120 90 4a 60
        E 0 90 57 60
        E 0 90 63 60
        E 960 80 4a 00
        E 120 80 57 00
        E 0 80 63 00
        E 360 90 3d 60
        E 0 90 48 60
        E 0 90 4a 60
        E 0 90 54 60
        E 0 90 56 60
        E 0 90 60 60
        E 0 90 62 60
        E 120 80 3d 00
        E 0 80 48 00
        E 0 80 4a 00
        E 0 80 54 00
        E 0 80 56 00
        E 120 80 60 00
        E 0 80 62 00
        E 240 90 4a 60
        E 0 90 4b 60
        E 0 90 56 60
        E 0 90 58 60
        E 0 90 62 60
        E 0 90 64 60
        E 480 80 4a 00
        E 0 80 4b 00
        E 240 80 56 00
        E 0 80 58 00
        E 0 80 62 00
        E 0 80 64 00
        E 240 90 3e 60
        E 0 90 49 60
        E 0 90 4b 60
        E 0 90 55 60
        E 0 90 57 60
        E 0 90 61 60
        E 0 90 63 60
        E 720 80 3e 00
        E 0 80 49 00
        E 0 80 4b 00
        E 0 80 55 00
        E 0 80 57 00
        E 0 80 61 00
        E 0 80 63 00
        E 599 90 4a 60
        E 0 90 57 60
        E 0 90 63 60
        E 60 80 4a 00
        E 0 80 57 00
        E 0 80 63 00
        E 181 90 55 60
        E 0 90 61 60
        E 60 80 55 00
        E 0 80 61 00
        E 178 90 3d 60
        E 0 90 4a 60
        E 0 90 57 60
        E 0 90 63 60
        E 120 80 3d 00
        E 0 80 4a 00
        E 240 80 57 00
        E 2 80 63 00
        E 118 90 4a 60
        E 0 90 57 60
        E 0 90 63 60
        E 62 80 4a 00
        E 0 80 57 00
        E 0 80 63 00
        E 180 90 55 60
        E 0 90 61 60
        E 60 80 55 00
        E 0 80 61 00
        E 179 90 3c 60
        E 0 90 49 60
        E 0 90 56 60
        E 0 90 62 60
        E 61 80 3c 00
        E 0 80 49 00
        E 0 80 56 00
        E 0 80 62 00
        E 179 90 54 60
        E 0 90 60 60
        E 61 80 54 00
        E 0 80 60 00
        E 179 90 49 60
        E 0 90 56 60
        E 0 90 62 60
        E 120 80 49 00
        E 239 80 56 00
        E 1 80 62 00
        E 119 90 3c 60
        E 0 90 49 60
        E 0 90 56 60
        E 0 90 62 60
        E 61 80 3c 00
        E 0 80 49 00
        E 0 80 56 00
        E 0 80 62 00
        E 179 90 54 60
        E 0 90 60 60
        E 61 80 54 00
        E 0 80 60 00
        E 179 90 49 60
        E 0 90 56 60
        E 0 90 62 60
        E 60 80 49 00
        E 0 80 56 00
        E 0 80 62 00
        E 181 90 60 60
        E 60 80 60 00
        E 179 90 3c 60
        E 0 90 49 60
        E 0 90 56 60
        E 0 90 62 60
        E 120 80 3c 00
        E 0 80 49 00
        E 239 80 56 00
        E 3 80 62 00
        E 117 90 49 60
        E 0 90 56 60
        E 0 90 62 60
        E 62 80 49 00
        E 0 80 56 00
        E 0 80 62 00
        E 180 90 54 60
        E 0 90 60 60
        E 60 80 54 00
        E 0 80 60 00
        E 181 90 3d 60
        E 0 90 4a 60
        E 0 90 57 60
        E 0 90 63 60
        E 480 80 3d 00
        E 0 80 4a 00
        E 360 80 57 00
        E 0 80 63 00
        E 120 90 3c 60
        E 0 90 49 60
        E 0 90 56 60
        E 0 90 62 60
        E 120 80 3c 00
        E 0 80 49 00
        E 360 80 56 00
        E 0 80 62 00
        E 120 90 48 60
        E 0 90 55 60
        E 0 90 61 60
        E 120 80 48 00
        E 480 80 55 00
        E 0 80 61 00
        E 120 90 3c 60
        E 0 90 49 60
        E 0 90 56 60
        E 0 90 62 60
        E 120 80 3c 00
        E 0 80 49 00
        E 480 80 56 00
        E 0 80 62 00
        E 120 90 4a 60
        E 0 90 57 60
        E 0 90 63 60
        E 960 80 4a 00
        E 120 80 57 00
        E 0 80 63 00
        E 360 90 3d 60
        E 0 90 48 60
        E 0 90 4a 60
        E 0 90 54 60
        E 0 90 56 60
        E 0 90 60 60
        E 0 90 62 60
        E 120 80 3d 00
        E 0 80 48 00
        E 0 80 4a 00
        E 0 80 54 00
        E 0 80 56 00
        E 119 80 60 00
        E 0 80 62 00
        E 241 90 4a 60
        E 0 90 4b 60
        E 0 90 56 60
        E 0 90 58 60
        E 0 90 62 60
        E 0 90 64 60
        E 480 80 4a 00
        E 0 80 4b 00
        E 239 80 56 00
        E 0 80 58 00
        E 0 80 62 00
        E 0 80 64 00
        E 241 90 3e 60
        E 0 90 49 60
        E 0 90 4b 60
        E 0 90 55 60
        E 0 90 57 60
        E 0 90 61 60
        E 0 90 63 60
        E 719 80 3e 00
        E 0 80 49 00
        E 0 80 4b 00
        E 0 80 55 00
        E 0 80 57 00
        E 0 80 61 00
        E 0 80 63 00
        E 602 90 4a 60
        E 0 90 57 60
        E 0 90 63 60
        E 60 80 4a 00
        E 0 80 57 00
        E 0 80 63 00
        E 181 90 55 60
        E 0 90 61 60
        E 60 80 55 00
        E 0 80 61 00
        E 178 90 3d 60
        E 0 90 4a 60
        E 0 90 57 60
        E 0 90 63 60
        E 120 80 3d 00
        E 0 80 4a 00
        E 240 80 57 00
        E 2 80 63 00
        E 118 90 4a 60
        E 0 90 57 60
        E 0 90 63 60
        E 62 80 4a 00
        E 0 80 57 00
        E 0 80 63 00
        E 180 90 55 60
        E 0 90 61 60
        E 60 80 55 00
        E 0 80 61 00
        E 179 90 3c 60
        E 0 90 49 60
        E 0 90 56 60
        E 0 90 62 60
        E 61 80 3c 00
        E 0 80 49 00
        E 0 80 56 00
        E 0 80 62 00
        E 179 90 54 60
        E 0 90 60 60
        E 61 80 54 00
        E 0 80 60 00
        E 179 90 49 60
        E 0 90 56 60
        E 0 90 62 60
        E 120 80 49 00
        E 239 80 56 00
        E 1 80 62 00
        E 119 90 3c 60
        E 0 90 49 60
        E 0 90 56 60
        E 0 90 62 60
        E 61 80 3c 00
        E 0 80 49 00
        E 0 80 56 00
        E 0 80 62 00
        E 179 90 54 60
        E 0 90 60 60
        E 61 80 54 00
        E 0 80 60 00
        E 179 90 3c 60
        E 0 90 49 60
        E 0 90 56 60
        E 0 90 62 60
        E 60 80 3c 00
        E 0 80 49 00
        E 0 80 56 00
        E 0 80 62 00
        E 181 90 54 60
        E 0 90 60 60
        E 60 80 54 00
        E 0 80 60 00
        E 179 90 3c 60
        E 0 90 49 60
        E 0 90 56 60
        E 0 90 62 60
        E 120 80 3c 00
        E 0 80 49 00
        E 239 80 56 00
        E 3 80 62 00
        E 117 90 49 60
        E 0 90 56 60
        E 0 90 62 60
        E 62 80 49 00
        E 0 80 56 00
        E 0 80 62 00
        E 180 90 54 60
        E 0 90 60 60
        E 60 80 54 00
        E 0 80 60 00
        E 179 90 3d 60
        E 0 90 4a 60
        E 0 90 57 60
        E 0 90 63 60
        E 480 80 3d 00
        E 0 80 4a 00
        E 360 80 57 00
        E 0 80 63 00
        E 120 90 3c 60
        E 0 90 49 60
        E 0 90 56 60
        E 0 90 62 60
        E 120 80 3c 00
        E 0 80 49 00
        E 360 80 56 00
        E 0 80 62 00
        E 120 90 48 60
        E 0 90 55 60
        E 0 90 61 60
        E 120 80 48 00
        E 480 80 55 00
        E 0 80 61 00
        E 120 90 3c 60
        E 0 90 49 60
        E 0 90 56 60
        E 0 90 62 60
        E 120 80 3c 00
        E 0 80 49 00
        E 480 80 56 00
        E 0 80 62 00
        E 120 90 4a 60
        E 0 90 57 60
        E 0 90 63 60
        E 960 80 4a 00
        E 120 80 57 00
        E 0 80 63 00
        E 360 90 3d 60
        E 0 90 48 60
        E 0 90 4a 60
        E 0 90 54 60
        E 0 90 56 60
        E 0 90 60 60
        E 0 90 62 60
        E 120 80 3d 00
        E 0 80 48 00
        E 0 80 4a 00
        E 0 80 54 00
        E 0 80 56 00
        E 119 80 60 00
        E 0 80 62 00
        E 241 90 4a 60
        E 0 90 4b 60
        E 0 90 56 60
        E 0 90 58 60
        E 0 90 62 60
        E 0 90 64 60
        E 480 80 4a 00
        E 0 80 4b 00
        E 239 80 56 00
        E 0 80 58 00
        E 0 80 62 00
        E 0 80 64 00
        E 241 90 3e 60
        E 0 90 49 60
        E 0 90 4b 60
        E 0 90 55 60
        E 0 90 57 60
        E 0 90 61 60
        E 0 90 63 60
        E 719 80 3e 00
        E 0 80 49 00
        E 0 80 4b 00
        E 0 80 55 00
        E 0 80 57 00
        E 0 80 61 00
        E 0 80 63 00
        E 601 90 4a 60
        E 0 90 57 60
        E 0 90 63 60
        E 60 80 4a 00
        E 0 80 57 00
        E 0 80 63 00
        E 181 90 55 60
        E 0 90 61 60
        E 60 80 55 00
        E 0 80 61 00
        E 178 90 3d 60
        E 0 90 4a 60
        E 0 90 57 60
        E 0 90 63 60
        E 120 80 3d 00
        E 0 80 4a 00
        E 240 80 57 00
        E 2 80 63 00
        E 118 90 4a 60
        E 0 90 57 60
        E 0 90 63 60
        E 62 80 4a 00
        E 0 80 57 00
        E 0 80 63 00
        E 180 90 55 60
        E 0 90 61 60
        E 60 80 55 00
        E 0 80 61 00
        E 179 90 3c 60
        E 0 90 49 60
        E 0 90 56 60
        E 0 90 62 60
        E 61 80 3c 00
        E 0 80 49 00
        E 0 80 56 00
        E 0 80 62 00
        E 179 90 54 60
        E 0 90 60 60
        E 61 80 54 00
        E 0 80 60 00
        E 179 90 49 60
        E 0 90 56 60
        E 0 90 62 60
        E 120 80 49 00
        E 239 80 56 00
        E 1 80 62 00
        E 119 90 3c 60
        E 0 90 49 60
        E 0 90 56 60
        E 0 90 62 60
        E 61 80 3c 00
        E 0 80 49 00
        E 0 80 56 00
        E 0 80 62 00
        E 179 90 54 60
        E 0 90 60 60
        E 61 80 54 00
        E 0 80 60 00
        E 179 90 49 60
        E 0 90 56 60
        E 0 90 62 60
        E 60 80 49 00
        E 0 80 56 00
        E 0 80 62 00
        E 181 90 54 60
        E 0 90 60 60
        E 60 80 54 00
        E 0 80 60 00
        E 179 90 3c 60
        E 0 90 49 60
        E 0 90 56 60
        E 0 90 62 60
        E 120 80 3c 00
        E 0 80 49 00
        E 239 80 56 00
        E 3 80 62 00
        E 117 90 49 60
        E 0 90 56 60
        E 0 90 62 60
        E 62 80 49 00
        E 0 80 56 00
        E 0 80 62 00
        E 180 90 54 60
        E 0 90 60 60
        E 60 80 54 00
        E 0 80 60 00
        <X 480 0
          /wFbaWRsZV9yZWFsdGltZV0=
        >
        E 6900 b0 7b 00
        GUID {F537F270-CEBA-461E-8612-DC28913708FC}
        IGNTEMPO 0 120.00000000 4 4
        SRCCOLOR 1128
        VELLANE 132 128 60
        COLORMAP "C:\Users\Tanja\works\REAPER (x64)\Data\color_maps\rockband_vox-other.png"
        TEXTSTRINGFILE "C:\Program Files\REAPER\Data\Text_Strings\Text Events List.txt"
        CFGEDITVIEW -125775.634916 5.823703 6 11 0 0 0
        CFGEDIT 1 1 0 0 0 1 1 1 1 1 1 0.12500000 -8 -8 1370 736 1 0 1 2 0.00000000 0 0 0 0 0.500000 1 0 1.000000 64
        KEYSNAP 0 0 "102034050607" 0 "Major"
        EVTFILTER 0 -1 -1 -1 -1 0 1 0 0 -1.00000000 -1.00000000
      >
    >
  >
  <TRACK '{D39F8BD7-8730-4182-94EC-51AF9F9ACC90}'
    NAME "PART REAL_KEYS_X"
    PEAKCOL 25231232
    BEAT -1
    AUTOMODE 0
    VOLPAN 1.00000000000000 0.00000000000000 -1.00000000000000 -1.00000000000000 1.00000000000000
    MUTESOLO 1 0 0
    IPHASE 0
    ISBUS 0 0
    BUSCOMP 1 0
    SHOWINMIX 1 0.666700 0.500000 1 0.500000 -1 -1 -1
    FREEMODE 0
    SEL 0
    REC 0 0 0 0 0 0 0
    TRACKHEIGHT 24 0
    INQ 0 0 0 0.5000000000 100 0 0 100
    NCHAN 2
    FX 1
    TRACKID {D39F8BD7-8730-4182-94EC-51AF9F9ACC90}
    PERF 0
    MIDIOUT -1
    <MIDINOTENAMES
      0 0 "C2-E3 Range"
      0 5 "F2-A3 Range"
      0 9 "A2-C4 Range"
      0 48 "C2 (Lowest Note)"
      0 72 "C4 (Highest Note)"
      0 115 "Solo Marker"
      0 126 "Glissando Marker"
      0 116 "Overdrive Marker"
      0 127 "Trill Marker"
      0 125 "----"
      0 114 "----"
      0 47 "----"
      0 49 "C#2"
      0 50 "D2"
      0 51 "Eb2"
      0 52 "E2"
      0 53 "F2"
      0 54 "F#2"
      0 55 "G2"
      0 56 "G#2"
      0 57 "A2"
      0 58 "Bb2"
      0 59 "B2"
      0 60 "C3"
      0 61 "C#3"
      0 62 "D3"
      0 63 "Eb3"
      0 64 "E3"
      0 65 "F3"
      0 66 "F#3"
      0 67 "G3"
      0 68 "G#3"
      0 69 "A3"
      0 70 "Bb3"
      0 71 "B3"
      0 2 "D2-F3 Range"
      0 4 "E2-G3 Range"
      0 7 "G2-B3 Range"
    >
    MAINSEND 1 0
    <FXCHAIN
      WNDRECT 0 40 655 493
      SHOW 0
      LASTSEL 1
      DOCKED 0
      BYPASS 0 0
      <JS "IX/MIDI_Tool II" ""
        0.000000 85.000000 127.000000 0.000000 0.000000 0.000000 100.000000 0.000000 0.000000 127.000000 0.000000 0.000000 1.000000 0.000000 0.000000 - - - - - - - - - - - - - - - - - - - - - - - - - - - - - - - - - - - - - - - - - - - - - - - - - 
      >
      FLOATPOS 0 0 0 0
      FXID {A891DAA7-5D8A-4720-AA8F-E43D2ABA2AE5}
      WAK 0
      BYPASS 0 0
      <VST "VSTi: ReaSynth (Cockos)" "reasynth.dll" 0 ""
        eXNlcu9e7f4AAAAAAgAAAAEAAAAAAAAAAgAAAAAAAAA4AAAAAAAAAA==
        AAAAAO++rd4N8K3eppvEOxe30TqcxKA+c2jRPgAAAADMm4A+6WeIPQ==
        AAAAAAAAAD8AAIA/6SaxPgAAAD8AAAAAAAA=
      >
      FLOATPOS 0 0 0 0
      FXID {A0CE5851-0C70-49E2-AD61-BC7B1C50A030}
      WAK 0
    >
    <ITEM
      POSITION 0.00000000000000
      SNAPOFFS 0.00000000000000
      LENGTH 266.94347893916262
      LOOP 0
      ALLTAKES 0
      SEL 0
      FADEIN 1 0.000000 0.000000 1 0
      FADEOUT 1 0.000000 0.000000 1 0
      MUTE 0
      IGUID {974100C2-06C4-4CB5-BD67-2F1BC71A1259}
      IID 15
      NAME "PART REAL_KEYS_X"
      VOLPAN 1.000000 0.000000 1.000000 -1.000000
      SOFFS 0.00000000000000 0.00000000000000
      PLAYRATE 1.00000000000000 1 0.00000000000000 -65536
      CHANMODE 0
      GUID {08703F3F-9741-46EB-9ED4-B09B2390F876}
      <SOURCE MIDI
        HASDATA 1 480 QN
        POOLEDEVTS {1533B8DC-F41D-4EE1-A82B-AF357BB4777C}
        <X 0 0
          /wNQQVJUIFJFQUxfS0VZU19Y
        >
        <X 3840 0
          /wFbcGxheV0=
        >
        E 295200 b0 7b 00
        GUID {0E0CBFB7-4AC8-4E67-A764-85891754BB41}
        IGNTEMPO 0 120.00000000 4 4
        SRCCOLOR 1129
        VELLANE 132 128 60
        COLORMAP "C:\Program Files\REAPER\Data\color_maps\rockband_guitarbass.png"
        TEXTSTRINGFILE "C:\Program Files\REAPER\Data\Text_Strings\Text Events List.txt"
        CFGEDITVIEW -1610.539100 150.210572 48 12 0 0 0
        CFGEDIT 1 1 0 1 1 1 1 1 1 1 1 0.12500000 -8 -8 1370 736 1 0 1 2 0.00000000 0 0 0 0 0.500000 1 0 1.000000 64
        KEYSNAP 0 0 "102034050607" 0 "Major"
        EVTFILTER 0 -1 -1 -1 -1 0 1 0 0 -1.00000000 -1.00000000
      >
    >
  >
  <TRACK '{117931B6-9EA5-432A-AEED-ACF4C8876354}'
    NAME "PART REAL _KEYS_H"
    PEAKCOL 25231232
    BEAT -1
    AUTOMODE 0
    VOLPAN 1.00000843600341 0.00000000000000 -1.00000000000000 -1.00000000000000 1.00000000000000
    MUTESOLO 1 0 0
    IPHASE 0
    ISBUS 0 0
    BUSCOMP 0 0
    SHOWINMIX 1 0.666700 0.500000 1 0.500000 -1 -1 -1
    FREEMODE 0
    SEL 0
    REC 0 0 0 0 0 0 0
    TRACKHEIGHT 24 0
    INQ 0 0 0 0.5000000000 100 0 0 100
    NCHAN 2
    FX 1
    TRACKID {117931B6-9EA5-432A-AEED-ACF4C8876354}
    PERF 0
    MIDIOUT -1
    <MIDINOTENAMES
      0 0 "C2-E3 Range"
      0 5 "F2-A3 Range"
      0 9 "A2-C4 Range"
      0 48 "C2 (Lowest Note)"
      0 72 "C4 (Highest Note)"
      0 115 "Solo Marker"
      0 126 "Glissando Marker"
      0 127 "Trill Marker"
      0 125 "----"
      0 116 "Overdrive Marker"
      0 114 "----"
      0 71 "B3"
      0 70 "Bb3"
      0 69 "A3"
      0 68 "G#3"
      0 67 "G3"
      0 66 "F#3"
      0 65 "F3"
      0 64 "E3"
      0 63 "Eb3"
      0 62 "D3"
      0 61 "C#3"
      0 60 "C3"
      0 59 "B2"
      0 58 "Bb2"
      0 57 "A2"
      0 56 "G#2"
      0 55 "G2"
      0 54 "F#2"
      0 53 "F2"
      0 52 "E2"
      0 51 "Eb2"
      0 50 "D2"
      0 49 "C#2"
      0 47 "----"
      0 7 "G2-B3 Range"
      0 4 "E2-G3 Range"
      0 2 "D2-F3 Range"
    >
    MAINSEND 1 0
    <FXCHAIN
      SHOW 0
      LASTSEL 0
      DOCKED 0
      BYPASS 0 0
      <JS "IX/MIDI_Tool II" ""
        0.000000 85.000000 127.000000 0.000000 0.000000 0.000000 100.000000 0.000000 0.000000 127.000000 0.000000 0.000000 1.000000 0.000000 0.000000 - - - - - - - - - - - - - - - - - - - - - - - - - - - - - - - - - - - - - - - - - - - - - - - - - 
      >
      FLOATPOS 0 0 0 0
      FXID {5BF1E178-D070-4445-A488-4CE4E31F6508}
      WAK 0
      BYPASS 0 0
      <VST "VSTi: ReaSynth (Cockos)" "reasynth.dll" 0 ""
        eXNlcu9e7f4AAAAAAgAAAAEAAAAAAAAAAgAAAAAAAAA4AAAAAAAAAA==
        AAAAAO++rd4N8K3eppvEOxe30TqcxKA+c2jRPgAAAADMm4A+6WeIPQ==
        AAAAAAAAAD8AAIA/6SaxPgAAAD8AAAAAAAA=
      >
      FLOATPOS 0 0 0 0
      FXID {C48567E0-8372-4900-9933-4B040EA2A253}
      WAK 0
    >
    <ITEM
      POSITION 0.00000000000000
      SNAPOFFS 0.00000000000000
      LENGTH 266.94347893916262
      LOOP 0
      ALLTAKES 0
      SEL 0
      FADEIN 1 0.000000 0.000000 1 0
      FADEOUT 1 0.000000 0.000000 1 0
      MUTE 0
      IGUID {DA514BF3-AF34-46C0-BD23-58406C871A44}
      IID 16
      NAME "PART REAL _KEYS_H"
      VOLPAN 1.000000 0.000000 1.000000 -1.000000
      SOFFS 0.00000000000000 0.00000000000000
      PLAYRATE 1.00000000000000 1 0.00000000000000 -65536
      CHANMODE 0
      GUID {8E0AC36B-D538-4BB8-A507-FFF40527D1BA}
      <SOURCE MIDI
        HASDATA 1 480 QN
        POOLEDEVTS {C1031580-A84A-480D-ABE4-B9D1908AF87F}
        <X 0 0
          /wNQQVJUIFJFQUxfS0VZU19I
        >
        E 0 90 09 60
        E 480 80 09 00
        E 3360 90 39 60
        E 360 80 39 00
        E 294840 b0 7b 00
        GUID {53F487B1-1F2F-4D54-9DAE-BC2E7B032E3B}
        IGNTEMPO 0 120.00000000 4 4
        SRCCOLOR 1130
        VELLANE 132 128 60
        COLORMAP "C:\Program Files\REAPER\Data\color_maps\rockband_guitarbass.png"
        TEXTSTRINGFILE "C:\Program Files\REAPER\Data\Text_Strings\Text Events List.txt"
        CFGEDITVIEW -1610.539100 150.210572 0 14 0 0 0
        CFGEDIT 1 1 0 1 1 1 1 1 1 1 1 0.12500000 -8 -8 1374 736 1 2 1 2 0.00000000 0 0 0 0 0.500000 1 0 1.000000 64
        KEYSNAP 0 0 "102034050607" 0 "Major"
        EVTFILTER 0 -1 -1 -1 -1 0 1 0 0 -1.00000000 -1.00000000
      >
    >
  >
  <TRACK '{3B6F726E-1CAB-4A00-9B01-2E1CC375B13E}'
    NAME "PART REAL_KEYS_M"
    PEAKCOL 25231232
    BEAT -1
    AUTOMODE 0
    VOLPAN 1.00000000000000 0.00000000000000 -1.00000000000000 -1.00000000000000 1.00000000000000
    MUTESOLO 1 0 0
    IPHASE 0
    ISBUS 0 0
    BUSCOMP 0 0
    SHOWINMIX 1 0.666700 0.500000 1 0.500000 -1 -1 -1
    FREEMODE 0
    SEL 0
    REC 0 0 0 0 0 0 0
    TRACKHEIGHT 24 0
    INQ 0 0 0 0.5000000000 100 0 0 100
    NCHAN 2
    FX 1
    TRACKID {3B6F726E-1CAB-4A00-9B01-2E1CC375B13E}
    PERF 0
    MIDIOUT -1
    <MIDINOTENAMES
      0 0 "C2-E3 Range"
      0 5 "F2-A3 Range"
      0 9 "A2-C4 Range"
      0 48 "C2 (Lowest Note)"
      0 72 "C4 (Highest Note)"
      0 115 "Solo Marker"
      0 126 "Glissando Marker"
      0 127 "Trill Marker"
      0 125 "----"
      0 116 "Overdrive Marker"
      0 114 "----"
      0 71 "B3"
      0 70 "Bb3"
      0 69 "A3"
      0 68 "G#3"
      0 67 "G3"
      0 66 "F#3"
      0 65 "F3"
      0 64 "E3"
      0 63 "Eb3"
      0 62 "D3"
      0 61 "C#3"
      0 60 "C3"
      0 59 "B2"
      0 58 "Bb2"
      0 57 "A2"
      0 56 "G#2"
      0 55 "G2"
      0 54 "F#2"
      0 53 "F2"
      0 52 "E2"
      0 51 "Eb2"
      0 50 "D2"
      0 49 "C#2"
      0 47 "----"
      0 7 "G2-B3 Range"
      0 4 "E2-G3 Range"
      0 2 "D2-F3 Range"
    >
    MAINSEND 1 0
    <FXCHAIN
      SHOW 0
      LASTSEL 0
      DOCKED 0
      BYPASS 0 0
      <JS "IX/MIDI_Tool II" ""
        0.000000 85.000000 127.000000 0.000000 0.000000 0.000000 100.000000 0.000000 0.000000 127.000000 0.000000 0.000000 1.000000 0.000000 0.000000 - - - - - - - - - - - - - - - - - - - - - - - - - - - - - - - - - - - - - - - - - - - - - - - - - 
      >
      FLOATPOS 0 0 0 0
      FXID {096BA8B0-BFAB-4802-A0D3-DEA88A16B5B2}
      WAK 0
      BYPASS 0 0
      <VST "VSTi: ReaSynth (Cockos)" "reasynth.dll" 0 ""
        eXNlcu9e7f4AAAAAAgAAAAEAAAAAAAAAAgAAAAAAAAA4AAAAAAAAAA==
        AAAAAO++rd4N8K3eppvEOxe30TqcxKA+c2jRPgAAAADMm4A+6WeIPQ==
        AAAAAAAAAD8AAIA/6SaxPgAAAD8AAAAAAAA=
      >
      FLOATPOS 0 0 0 0
      FXID {A5115AF9-13EF-41D8-80FF-CB81A74D6CD4}
      WAK 0
    >
    <ITEM
      POSITION 0.00000000000000
      SNAPOFFS 0.00000000000000
      LENGTH 266.94347893916262
      LOOP 0
      ALLTAKES 0
      SEL 0
      FADEIN 1 0.000000 0.000000 1 0
      FADEOUT 1 0.000000 0.000000 1 0
      MUTE 0
      IGUID {6F5DF5D5-958D-4566-AA6E-AFD27D997F3F}
      IID 17
      NAME "PART REAL_KEYS_M"
      VOLPAN 1.000000 0.000000 1.000000 -1.000000
      SOFFS 0.00000000000000 0.00000000000000
      PLAYRATE 1.00000000000000 1 0.00000000000000 -65536
      CHANMODE 0
      GUID {14BC6779-E32B-455D-A61C-C2E68D8FE08C}
      <SOURCE MIDI
        HASDATA 1 480 QN
        POOLEDEVTS {99A55C8D-C3B3-41A3-A564-053A46771920}
        <X 0 0
          /wNQQVJUIFJFQUxfS0VZU19N
        >
        e 0 90 09 60
        e 480 80 09 00
        e 3360 90 39 60
        e 360 80 39 00
        E 294840 b0 7b 00
        GUID {806139BE-556B-4882-A297-06705078FD7A}
        IGNTEMPO 0 120.00000000 4 4
        SRCCOLOR 1131
        VELLANE 132 128 60
        COLORMAP "C:\Program Files\REAPER\Data\color_maps\rockband_guitarbass.png"
        TEXTSTRINGFILE "C:\Program Files\REAPER\Data\Text_Strings\Text Events List.txt"
        CFGEDITVIEW -1610.539100 150.210572 0 17 0 0 0
        CFGEDIT 1 1 0 1 1 1 1 1 1 1 1 0.12500000 -8 -8 1374 736 1 2 1 2 0.00000000 0 0 0 0 0.500000 1 0 1.000000 64
        KEYSNAP 0 0 "102034050607" 0 "Major"
        EVTFILTER 0 -1 -1 -1 -1 0 1 0 0 -1.00000000 -1.00000000
      >
    >
  >
  <TRACK '{49B8D0E0-0069-415C-8FC3-AC29B0E2C3CF}'
    NAME "PART REAL_KEYS_E"
    PEAKCOL 25231232
    BEAT -1
    AUTOMODE 0
    VOLPAN 1.00000000000000 0.00000000000000 -1.00000000000000 -1.00000000000000 1.00000000000000
    MUTESOLO 1 0 0
    IPHASE 0
    ISBUS 0 0
    BUSCOMP 0 0
    SHOWINMIX 1 0.666700 0.500000 1 0.500000 -1 -1 -1
    FREEMODE 0
    SEL 0
    REC 0 0 0 0 0 0 0
    TRACKHEIGHT 24 0
    INQ 0 0 0 0.5000000000 100 0 0 100
    NCHAN 2
    FX 1
    TRACKID {49B8D0E0-0069-415C-8FC3-AC29B0E2C3CF}
    PERF 0
    MIDIOUT -1
    <MIDINOTENAMES
      0 0 "C2-E3 Range"
      0 5 "F2-A3 Range"
      0 9 "A2-C4 Range"
      0 48 "C2 (Lowest Note)"
      0 72 "C4 (Highest Note)"
      0 115 "Solo Marker"
      0 126 "Glissando Marker"
      0 127 "Trill Marker"
      0 125 "----"
      0 116 "Overdrive Marker"
      0 114 "----"
      0 71 "B3"
      0 70 "Bb3"
      0 69 "A3"
      0 68 "G#3"
      0 67 "G3"
      0 66 "F#3"
      0 65 "F3"
      0 64 "E3"
      0 63 "Eb3"
      0 62 "D3"
      0 61 "C#3"
      0 60 "C3"
      0 59 "B2"
      0 58 "Bb2"
      0 57 "A2"
      0 56 "G#2"
      0 55 "G2"
      0 54 "F#2"
      0 53 "F2"
      0 52 "E2"
      0 51 "Eb2"
      0 50 "D2"
      0 49 "C#2"
      0 47 "----"
      0 7 "G2-B3 Range"
      0 4 "E2-G3 Range"
      0 2 "D2-F3 Range"
    >
    MAINSEND 1 0
    <FXCHAIN
      SHOW 0
      LASTSEL 0
      DOCKED 0
      BYPASS 0 0
      <JS "IX/MIDI_Tool II" ""
        0.000000 85.000000 127.000000 0.000000 0.000000 0.000000 100.000000 0.000000 0.000000 127.000000 0.000000 0.000000 1.000000 0.000000 0.000000 - - - - - - - - - - - - - - - - - - - - - - - - - - - - - - - - - - - - - - - - - - - - - - - - - 
      >
      FLOATPOS 0 0 0 0
      FXID {71EF04AA-9A38-4C4E-8E04-9FB37BDA6361}
      WAK 0
      BYPASS 0 0
      <VST "VSTi: ReaSynth (Cockos)" "reasynth.dll" 0 ""
        eXNlcu9e7f4AAAAAAgAAAAEAAAAAAAAAAgAAAAAAAAA4AAAAAAAAAA==
        AAAAAO++rd4N8K3eppvEOxe30TqcxKA+c2jRPgAAAADMm4A+6WeIPQ==
        AAAAAAAAAD8AAIA/6SaxPgAAAD8AAAAAAAA=
      >
      FLOATPOS 0 0 0 0
      FXID {6C388847-2A2F-4264-AA7A-4C4ACA9A9672}
      WAK 0
    >
    <ITEM
      POSITION 0.00000000000000
      SNAPOFFS 0.00000000000000
      LENGTH 266.94347893916262
      LOOP 0
      ALLTAKES 0
      SEL 0
      FADEIN 1 0.000000 0.000000 1 0
      FADEOUT 1 0.000000 0.000000 1 0
      MUTE 0
      IGUID {656317AD-B690-4307-9096-C4F4536C131B}
      IID 18
      NAME "PART REAL_KEYS_E"
      VOLPAN 1.000000 0.000000 1.000000 -1.000000
      SOFFS 0.00000000000000 0.00000000000000
      PLAYRATE 1.00000000000000 1 0.00000000000000 -65536
      CHANMODE 0
      GUID {43BDFFBF-75D6-4727-BD3F-08B25C56980C}
      <SOURCE MIDI
        HASDATA 1 480 QN
        POOLEDEVTS {7CC25702-DCFA-4208-A0C2-5E3EA3A4DDBF}
        <X 0 0
          /wNQQVJUIFJFQUxfS0VZU19F
        >
        E 0 90 09 60
        E 480 80 09 00
        E 298560 b0 7b 00
        GUID {F9363449-15E8-4EF0-8BC0-ABEB4CDC1D98}
        IGNTEMPO 0 120.00000000 4 4
        SRCCOLOR 1132
        VELLANE 132 128 60
        COLORMAP "C:\Program Files\REAPER\Data\color_maps\rockband_guitarbass.png"
        TEXTSTRINGFILE "C:\Program Files\REAPER\Data\Text_Strings\Text Events List.txt"
        CFGEDITVIEW 1257.930012 0.103438 51 12 0 0 0
        CFGEDIT 1 1 0 0 1 1 1 1 1 1 1 0.25000000 0 0 683 728 1 0 0 2 0.12500000 0 0 0 0 0.500000 0 0 1.000000 64
        KEYSNAP 0 0 "102034050607" 0 "Major"
        EVTFILTER 0 -1 -1 -1 -1 0 1 0 0 -1.00000000 -1.00000000
      >
    >
  >
  <TRACK '{80604035-2BD9-43BB-A255-4E5F9E756779}'
    NAME "PART KEYS_ANIM_RH"
    PEAKCOL 16842624
    BEAT -1
    AUTOMODE 0
    VOLPAN 1.00000000000000 0.00000000000000 -1.00000000000000 -1.00000000000000 1.00000000000000
    MUTESOLO 1 0 0
    IPHASE 0
    ISBUS 0 0
    BUSCOMP 0 0
    SHOWINMIX 1 0.666700 0.500000 1 0.500000 -1 -1 -1
    FREEMODE 0
    SEL 0
    REC 0 0 0 0 0 0 0
    TRACKHEIGHT 24 0
    INQ 0 0 0 0.5000000000 100 0 0 100
    NCHAN 2
    FX 1
    TRACKID {80604035-2BD9-43BB-A255-4E5F9E756779}
    PERF 0
    MIDIOUT -1
    <MIDINOTENAMES
      0 48 "C2 (Lowest Note)"
      0 72 "C4 (Highest Note)"
      0 127 "Trill Marker"
      0 126 "Glissando Marker"
      0 125 "----"
      0 116 "Overdrive Marker"
      0 115 "Solo Marker"
      0 114 "----"
      0 71 "B3"
      0 70 "Bb3"
      0 69 "A3"
      0 68 "G#3"
      0 67 "G3"
      0 66 "F#3"
      0 65 "F3"
      0 64 "E3"
      0 63 "Eb3"
      0 62 "D3"
      0 61 "C#3"
      0 60 "C3"
      0 59 "B2"
      0 58 "Bb2"
      0 57 "A2"
      0 56 "G#2"
      0 55 "G2"
      0 54 "F#2"
      0 53 "F2"
      0 52 "E2"
      0 51 "Eb2"
      0 50 "D2"
      0 49 "C#2"
      0 47 "----"
      0 9 "A2-C4 Range"
      0 5 "F2-A3 Range"
      0 0 "C2-E3 Range"
      0 7 "G2-B3 Range"
      0 4 "E2-G3 Range"
      0 2 "D2-F3 Range"
    >
    MAINSEND 1 0
    <FXCHAIN
      SHOW 0
      LASTSEL 0
      DOCKED 0
    >
    <ITEM
      POSITION 0.00000000000000
      SNAPOFFS 0.00000000000000
      LENGTH 266.94347893916262
      LOOP 0
      ALLTAKES 0
      SEL 0
      FADEIN 1 0.000000 0.000000 1 0
      FADEOUT 1 0.000000 0.000000 1 0
      MUTE 0
      IGUID {6A43A4E9-6390-4FBA-9F07-B2C821A1720C}
      IID 19
      NAME "PART KEYS_ANIM_RH"
      VOLPAN 1.000000 0.000000 1.000000 -1.000000
      SOFFS 0.00000000000000 0.00000000000000
      PLAYRATE 1.00000000000000 1 0.00000000000000 -65536
      CHANMODE 0
      GUID {FA5AE238-E1D7-41F5-A663-4C49E4376041}
      <SOURCE MIDI
        HASDATA 1 480 QN
        POOLEDEVTS {9105C17D-C7B0-4CEE-8830-3454AB67D32D}
        <X 0 0
          /wNQQVJUIEtFWVNfQU5JTV9SSA==
        >
        E 299040 b0 7b 00
        GUID {268DE88D-9169-44F5-97A1-ABDA1E2CF031}
        IGNTEMPO 0 120.00000000 4 4
        SRCCOLOR 1133
        VELLANE 132 128 60
        COLORMAP "C:\Program Files\REAPER\Data\color_maps\rockband_guitarbass.png"
        TEXTSTRINGFILE "C:\Program Files\REAPER\Data\Text_Strings\Text Events List.txt"
        CFGEDITVIEW 2612.554938 0.179136 51 12 0 0 0
        CFGEDIT 1 1 0 0 1 1 1 1 1 1 1 0.25000000 0 0 683 728 1 0 0 2 0.00000000 0 0 0 0 0.500000 0 0 1.000000 64
        KEYSNAP 0 0 "102034050607" 0 "Major"
        EVTFILTER 0 -1 -1 -1 -1 0 1 0 0 -1.00000000 -1.00000000
      >
    >
  >
  <TRACK '{F014911F-41F0-491C-9A25-C3D2A462D8D7}'
    NAME "PART KEYS_ANIM_LH"
    PEAKCOL 16842624
    BEAT -1
    AUTOMODE 0
    VOLPAN 1.00000000000000 0.00000000000000 -1.00000000000000 -1.00000000000000 1.00000000000000
    MUTESOLO 1 0 0
    IPHASE 0
    ISBUS 2 -1
    BUSCOMP 0 0
    SHOWINMIX 1 0.666700 0.500000 1 0.500000 -1 -1 -1
    FREEMODE 0
    SEL 0
    REC 0 0 0 0 0 0 0
    TRACKHEIGHT 24 0
    INQ 0 0 0 0.5000000000 100 0 0 100
    NCHAN 2
    FX 1
    TRACKID {F014911F-41F0-491C-9A25-C3D2A462D8D7}
    PERF 0
    MIDIOUT -1
    <MIDINOTENAMES
      0 48 "C2 (Lowest Note)"
      0 72 "C4 (Highest Note)"
      0 127 "Trill Marker"
      0 126 "Glissando Marker"
      0 125 "----"
      0 116 "Overdrive Marker"
      0 115 "Solo Marker"
      0 114 "----"
      0 71 "B3"
      0 70 "Bb3"
      0 69 "A3"
      0 68 "G#3"
      0 67 "G3"
      0 66 "F#3"
      0 65 "F3"
      0 64 "E3"
      0 63 "Eb3"
      0 62 "D3"
      0 61 "C#3"
      0 60 "C3"
      0 59 "B2"
      0 58 "Bb2"
      0 57 "A2"
      0 56 "G#2"
      0 55 "G2"
      0 54 "F#2"
      0 53 "F2"
      0 52 "E2"
      0 51 "Eb2"
      0 50 "D2"
      0 49 "C#2"
      0 47 "----"
      0 9 "A2-C4 Range"
      0 5 "F2-A3 Range"
      0 0 "C2-E3 Range"
      0 7 "G2-B3 Range"
      0 4 "E2-G3 Range"
      0 2 "D2-F3 Range"
    >
    MAINSEND 1 0
    <FXCHAIN
      SHOW 0
      LASTSEL 0
      DOCKED 0
    >
    <ITEM
      POSITION 0.00000000000000
      SNAPOFFS 0.00000000000000
      LENGTH 266.94347893916262
      LOOP 0
      ALLTAKES 0
      SEL 0
      FADEIN 1 0.000000 0.000000 1 0
      FADEOUT 1 0.000000 0.000000 1 0
      MUTE 0
      IGUID {F0F97A68-91AD-4B41-8D32-822B6159FDBC}
      IID 20
      NAME "PART KEYS_ANIM_LH"
      VOLPAN 1.000000 0.000000 1.000000 -1.000000
      SOFFS 0.00000000000000 0.00000000000000
      PLAYRATE 1.00000000000000 1 0.00000000000000 -65536
      CHANMODE 0
      GUID {214023C3-6BA4-450F-A73F-59780553B94C}
      <SOURCE MIDI
        HASDATA 1 480 QN
        POOLEDEVTS {B95142A6-23FF-4A15-8DCD-169EE4E57970}
        <X 0 0
          /wNQQVJUIEtFWVNfQU5JTV9MSA==
        >
        E 299040 b0 7b 00
        GUID {9527D45A-14D5-4C89-A39E-3528B0F29941}
        IGNTEMPO 0 120.00000000 4 4
        SRCCOLOR 1134
        VELLANE 132 128 60
        COLORMAP "C:\Program Files\REAPER\Data\color_maps\rockband_guitarbass.png"
        TEXTSTRINGFILE "C:\Program Files\REAPER\Data\Text_Strings\Text Events List.txt"
        CFGEDITVIEW -1610.539100 150.210572 0 17 0 0 0
        CFGEDIT 1 1 0 1 1 1 1 1 1 1 1 0.12500000 -8 -8 1374 736 1 2 1 2 0.00000000 0 0 0 0 0.500000 1 0 1.000000 64
        KEYSNAP 0 0 "102034050607" 0 "Major"
        EVTFILTER 0 -1 -1 -1 -1 0 1 0 0 -1.00000000 -1.00000000
      >
    >
  >
  <TRACK '{4BCC1CF3-63A3-43C4-A155-D3593AD88A10}'
    NAME "EVENTS"
    PEAKCOL 29393024
    BEAT -1
    AUTOMODE 0
    VOLPAN 1.00000000000000 0.00000000000000 -1.00000000000000 -1.00000000000000 1.00000000000000
    MUTESOLO 0 0 0
    IPHASE 0
    ISBUS 0 0
    BUSCOMP 0 0
    SHOWINMIX 1 0.666700 0.500000 1 0.500000 -1 -1 -1
    FREEMODE 0
    SEL 0
    REC 0 0 0 0 0 0 0
    TRACKHEIGHT 24 0
    INQ 0 0 0 0.5000000000 100 0 0 100
    NCHAN 2
    FX 1
    TRACKID {4BCC1CF3-63A3-43C4-A155-D3593AD88A10}
    PERF 0
    MIDIOUT -1
    MAINSEND 1 0
    <FXCHAIN
      SHOW 0
      LASTSEL 0
      DOCKED 0
    >
    <ITEM
      POSITION 0.00000000000000
      SNAPOFFS 0.00000000000000
      LENGTH 266.94347893916262
      LOOP 0
      ALLTAKES 0
      SEL 0
      FADEIN 1 0.000000 0.000000 1 0
      FADEOUT 1 0.000000 0.000000 1 0
      MUTE 0
      IGUID {86A06D27-867C-4398-9CE6-8F0526B3B594}
      IID 21
      NAME "EVENTS"
      VOLPAN 1.000000 0.000000 1.000000 -1.000000
      SOFFS 0.00000000000000 0.00000000000000
      PLAYRATE 1.00000000000000 1 0.00000000000000 -65536
      CHANMODE 0
      GUID {584C8192-4FF3-4E29-8138-2E6BD568B61A}
      <SOURCE MIDI
        HASDATA 1 480 QN
        POOLEDEVTS {B6BB1053-95D1-4C34-A4ED-D9D178532EB4}
        <X 0 0
          /wNFVkVOVFM=
        >
        <X 3840 0
          /wFbY3Jvd2Rfbm9jbGFwXQ==
        >
        <X 0 0
          /wFbcHJjX2ludHJvXQ==
        >
        <X 0 0
          /wFbY3Jvd2RfbWVsbG93XQ==
        >
        <X 45120 0
          /wFbcHJjX3ZlcnNlXzFhXQ==
        >
        <X 23040 0
          /wFbcHJjX3ZlcnNlXzFiXQ==
        >
        <X 22080 0
          /wFbcHJjX2Nob3J1c18xXQ==
        >
        <X 24960 0
          /wFbcHJjX2JyaWRnZV0=
        >
        <X 22080 0
          /wFbcHJjX3ZlcnNlXzJhXQ==
        >
        <X 23040 0
          /wFbcHJjX3ZlcnNlXzJiXQ==
        >
        <X 22080 0
          /wFbcHJjX2Nob3J1c18yXQ==
        >
        <X 23040 0
          /wFbcHJjX2Nob3J1c18zXQ==
        >
        <X 23040 0
          /wFbcHJjX2Nob3J1c180XQ==
        >
        <X 24000 0
          /wFbcHJjX291dHJvXQ==
        >
        <X 31200 0
          /wFbbXVzaWNfc3RhcnRd
        >
        <X 960 0
          /wFbY3Jvd2Rfbm9jbGFwXQ==
        >
        <X 3360 0
          /wFbbXVzaWNfZW5kXQ==
        >
        <X 1920 0
          /wFbZW5kXQ==
        >
        E 5280 b0 7b 00
        GUID {40AD7956-A22A-434A-8513-4D3792B9DF69}
        IGNTEMPO 0 120.00000000 4 4
        SRCCOLOR 1135
        VELLANE 132 100 100
        COLORMAP "M:\RGS Documents\ColorMaps\rockband_vox-other.png"
        TEXTSTRINGFILE "C:\Users\Tanja\works\REAPER (x64)\REAPER\Data\Text_Strings\Text Events List - Events.txt"
        CFGEDITVIEW -44642.987622 16.407504 73 48 0 0 0
        CFGEDIT 1 1 0 0 0 1 1 1 1 1 1 1.00000000 44 63 1223 847 1 2 1 2 0.00000000 0 0 0 0 0.500000 1 0 1.000000 64
        KEYSNAP 0 0 "102034050607" 0 "Major"
        EVTFILTER 0 -1 -1 -1 -1 0 1 0 0 -1.00000000 -1.00000000
      >
    >
  >
  <TRACK '{1529008F-97D2-43EB-8634-7C5A7418AD90}'
    NAME "VENUE"
    PEAKCOL 16842496
    BEAT -1
    AUTOMODE 0
    VOLPAN 1.00000000000000 0.03200000000000 -1.00000000000000 -1.00000000000000 1.00000000000000
    MUTESOLO 0 0 0
    IPHASE 0
    ISBUS 0 0
    BUSCOMP 0 0
    SHOWINMIX 1 0.666700 0.500000 1 0.500000 -1 -1 -1
    FREEMODE 0
    SEL 0
    REC 0 0 0 0 0 0 0
    TRACKHEIGHT 24 0
    INQ 0 0 0 0.5000000000 100 0 0 100
    NCHAN 2
    FX 1
    TRACKID {1529008F-97D2-43EB-8634-7C5A7418AD90}
    PERF 0
    MIDIOUT -1
    <MIDINOTENAMES
      0 87 "Guitarist Sing Along"
      0 86 "Drummer Sing Along"
      0 85 "Bassist Sing Along"
      0 40 "Spotlight on Vocals"
      0 39 "Spotlight on Guitar"
      0 38 "Spotlight on Drums"
      0 37 "Spotlight on Bass"
      0 41 "Spotlight on Keys"
    >
    MAINSEND 1 0
    <FXCHAIN
      SHOW 0
      LASTSEL 0
      DOCKED 0
    >
    <ITEM
      POSITION 0.00000000000000
      SNAPOFFS 0.00000000000000
      LENGTH 266.94347893916262
      LOOP 0
      ALLTAKES 0
      SEL 0
      FADEIN 1 0.000000 0.000000 1 0
      FADEOUT 1 0.000000 0.000000 1 0
      MUTE 0
      IGUID {71027329-E0AB-447D-A192-4839733334E7}
      IID 22
      NAME "VENUE"
      VOLPAN 1.000000 0.000000 1.000000 -1.000000
      SOFFS 0.00000000000000 0.00000000000000
      PLAYRATE 1.00000000000000 1 0.00000000000000 -65536
      CHANMODE 0
      GUID {44F0FFD1-5109-4A47-8BED-262AA04D3B23}
      <SOURCE MIDI
        HASDATA 1 480 QN
        POOLEDEVTS {E3E74090-237F-4639-8D80-0DF57F02C481}
        <X 0 0
          /wNWRU5VRQ==
        >
        <X 0 0
          /wFbY29vcF9hbGxfZmFyXQ==
        >
        <X 5010 0
          /wFbY29vcF9hbGxfYmVoaW5kXQ==
        >
        <X 5055 0
          /wFbY29vcF9hbGxfZmFyXQ==
        >
        <X 2895 0
          /wFbY29vcF9rX25lYXJd
        >
        <X 11505 0
          /wFbY29vcF9kX25lYXJd
        >
        <X 4335 0
          /wFbY29vcF9kX2JlaGluZF0=
        >
        <X 9360 0
          /wFbY29vcF9rX25lYXJd
        >
        <X 6120 0
          /wFbY29vcF9mcm9udF9iZWhpbmRd
        >
        <X 4665 0
          /wFbY29vcF92X2Nsb3NldXBd
        >
        <X 5775 0
          /wFbY29vcF9rdl9iZWhpbmRd
        >
        <X 6210 0
          /wFbY29vcF92X2Nsb3NldXBd
        >
        <X 4320 0
          /wFbY29vcF9rdl9uZWFyXQ==
        >
        <X 3375 0
          /wFbY29vcF9kX25lYXJd
        >
        <X 4335 0
          /wFbY29vcF9iX25lYXJd
        >
        <X 5280 0
          /wFbY29vcF92X25lYXJd
        >
        <X 5745 0
          /wFbY29vcF92X2Nsb3NldXBd
        >
        <X 5055 0
          /wFbY29vcF9hbGxfbmVhcl0=
        >
        <X 5520 0
          /wFbY29vcF92X25lYXJd
        >
        E 480 90 55 60
        E 0 90 57 60
        <X 2880 0
          /wFbY29vcF92X2Nsb3NldXBd
        >
        E 2400 80 55 00
        E 0 80 57 00
        <X 360 0
          /wFbY29vcF9idl9uZWFyXQ==
        >
        E 122 90 55 60
        E 1 90 57 60
        E 6237 80 55 00
        E 0 80 57 00
        E 477 90 55 60
        E 1 90 57 60
        <X 2 0
          /wFbY29vcF9idl9uZWFyXQ==
        >
        <X 5160 0
          /wFbY29vcF9hbGxfbmVhcl0=
        >
        E 3960 80 55 00
        E 0 80 57 00
        <X 1920 0
          /wFbY29vcF9kX25lYXJd
        >
        <X 6240 0
          /wFbY29vcF9kX2JlaGluZF0=
        >
        <X 5760 0
          /wFbY29vcF9rX25lYXJd
        >
        <X 6720 0
          /wFbY29vcF9hbGxfZmFyXQ==
        >
        <X 4800 0
          /wFbY29vcF9iX25lYXJd
        >
        <X 5040 0
          /wFbY29vcF92X25lYXJd
        >
        <X 5760 0
          /wFbY29vcF9rdl9uZWFyXQ==
        >
        <X 5520 0
          /wFbY29vcF92X25lYXJd
        >
        <X 4800 0
          /wFbY29vcF9rX2JlaGluZF0=
        >
        <X 7680 0
          /wFbY29vcF9hbGxfbmVhcl0=
        >
        <X 5250 0
          /wFbY29vcF9idl9uZWFyXQ==
        >
        <X 5310 0
          /wFbY29vcF9hbGxfZmFyXQ==
        >
        <X 2880 0
          /wFbY29vcF9iX25lYXJd
        >
        <X 2880 0
          /wFbY29vcF9mcm9udF9uZWFyXQ==
        >
        E 0 90 55 60
        E 0 90 57 60
        <X 4920 0
          /wFbY29vcF9kX2JlaGluZF0=
        >
        E 360 80 55 00
        E 0 80 57 00
        E 480 90 55 60
        E 1 90 57 60
        <X 1919 0
          /wFbY29vcF92X2Nsb3NldXBd
        >
        E 4320 80 55 00
        E 0 80 57 00
        E 480 90 55 60
        E 1 90 57 60
        <X 1919 0
          /wFbY29vcF92X2Nsb3NldXBd
        >
        E 7200 80 55 00
        E 0 80 57 00
        <X 360 0
          /wFbY29vcF9rdl9uZWFyXQ==
        >
        E 993 90 55 60
        E 0 90 57 60
        <X 5367 0
          /wFbY29vcF92X2Nsb3NldXBd
        >
        E 0 80 55 00
        E 0 80 57 00
        E 393 90 55 60
        E 1 90 57 60
        <X 5576 0
          /wFbY29vcF9rX25lYXJd
        >
        E 750 80 55 00
        E 0 80 57 00
        E 393 90 55 60
        E 1 90 57 60
        <X 5846 0
          /wFbY29vcF9hbGxfbmVhcl0=
        >
        E 3360 80 55 00
        E 0 80 57 00
        E 1410 90 55 60
        E 0 90 57 60
        <X 870 0
          /wFbY29vcF9hbGxfYmVoaW5kXQ==
        >
        E 4440 80 55 00
        E 0 80 57 00
        <X 120 0
          /wFbY29vcF92X2Nsb3NldXBd
        >
        E 330 90 55 60
        E 1 90 57 60
        E 6269 80 55 00
        E 0 80 57 00
        E 450 90 55 60
        E 1 90 57 60
        <X 29 0
          /wFbY29vcF9iX25lYXJd
        >
        <X 3840 0
          /wFbY29vcF9rX25lYXJd
        >
        <X 1920 0
          /wFbY29vcF92X25lYXJd
        >
        E 3360 80 55 00
        E 0 80 57 00
        <X 2400 0
          /wFbY29vcF9kX25lYXJd
        >
        <X 5640 0
          /wFbY29vcF9kdl9uZWFyXQ==
        >
        <X 6000 0
          /wFbY29vcF9rX2JlaGluZF0=
        >
        <X 5640 0
          /wFbY29vcF9rX25lYXJd
        >
        <X 7680 0
          /wFbY29vcF9hbGxfZmFyXQ==
        >
        <X 5730 0
          /wFbY29vcF9hbGxfZmFyXQ==
        >
        E 11070 b0 7b 00
        GUID {30097062-47C5-4B33-B665-170EF09D70D9}
        IGNTEMPO 0 120.00000000 4 4
        SRCCOLOR 1136
        VELLANE 132 153 230
        COLORMAP "M:\RGS Documents\ColorMaps\rockband_vox-other.png"
        TEXTSTRINGFILE "C:\Users\Tanja\works\REAPER (x64)\REAPER\Data\Text_Strings\Text Events List - Venue.txt"
        CFGEDITVIEW -44642.987622 16.407504 86 12 0 0 0
        CFGEDIT 1 1 0 0 1 1 1 1 1 1 1 0.25000000 133 19 1300 803 1 0 1 2 0.00000000 0 0 0 0 0.500000 1 0 1.000000 64
        KEYSNAP 0 0 "102034050607" 0 "Major"
        EVTFILTER 0 -1 -1 -1 -1 0 1 0 0 -1.00000000 -1.00000000
      >
    >
  >
  <TRACK '{7BC63EFC-0ABC-4D0D-8204-E9893AE9FFFA}'
    NAME "BEAT"
    PEAKCOL 23514346
    BEAT -1
    AUTOMODE 0
    VOLPAN 1.00000000000000 0.00000000000000 -1.00000000000000 -1.00000000000000 1.00000000000000
    MUTESOLO 0 0 0
    IPHASE 0
    ISBUS 0 0
    BUSCOMP 1 0
    SHOWINMIX 1 0.666700 0.500000 1 0.500000 -1 -1 -1
    FREEMODE 0
    SEL 0
    REC 0 0 0 0 0 0 0
    TRACKHEIGHT 24 0
    INQ 0 0 0 0.5000000000 100 0 0 100
    NCHAN 2
    FX 1
    TRACKID {7BC63EFC-0ABC-4D0D-8204-E9893AE9FFFA}
    PERF 0
    MIDIOUT -1
    <MIDINOTENAMES
      0 12 "Downbeat"
      0 13 "Up Beats"
    >
    MAINSEND 1 0
    <FXCHAIN
      SHOW 0
      LASTSEL 0
      DOCKED 0
    >
    <ITEM
      POSITION 0.00000000000000
      SNAPOFFS 0.00000000000000
      LENGTH 267.05040694715507
      LOOP 0
      ALLTAKES 0
      SEL 0
      FADEIN 1 0.000000 0.000000 1 0
      FADEOUT 1 0.000000 0.000000 1 0
      MUTE 0
      IGUID {9960CDFD-BF2E-4E67-97CD-4F13D0A3F2ED}
      IID 23
      NAME "BEAT"
      VOLPAN 1.000000 0.000000 1.000000 -1.000000
      SOFFS 0.00000000000000 0.00000000000000
      PLAYRATE 1.00000000000000 1 0.00000000000000 -65536
      CHANMODE 0
      GUID {CEBFDCF1-B2BD-47E1-A085-C26E1C9E9ED2}
      <SOURCE MIDI
        HASDATA 1 480 QN
        POOLEDEVTS {EFBB2626-082E-497A-8555-717DA6E496ED}
        <X 0 0
          /wNCRUFU
        >
        E 0 96 0c 64
        E 120 86 0c 00
        E 360 96 0d 64
        E 120 86 0d 00
        E 360 96 0d 64
        E 120 86 0d 00
        E 360 96 0d 64
        E 120 86 0d 00
        E 360 96 0c 64
        E 120 86 0c 00
        E 360 96 0d 64
        E 120 86 0d 00
        E 360 96 0d 64
        E 120 86 0d 00
        E 360 96 0d 64
        E 120 86 0d 00
        E 360 96 0c 64
        E 120 86 0c 00
        E 360 96 0d 64
        E 120 86 0d 00
        E 360 96 0d 64
        E 120 86 0d 00
        E 360 96 0d 64
        E 120 86 0d 00
        E 360 96 0c 64
        E 120 86 0c 00
        E 360 96 0d 64
        E 120 86 0d 00
        E 360 96 0d 64
        E 120 86 0d 00
        E 360 96 0d 64
        E 120 86 0d 00
        E 360 96 0c 64
        E 120 86 0c 00
        E 360 96 0d 64
        E 120 86 0d 00
        E 360 96 0d 64
        E 120 86 0d 00
        E 360 96 0d 64
        E 120 86 0d 00
        E 360 96 0c 64
        E 120 86 0c 00
        E 360 96 0d 64
        E 120 86 0d 00
        E 360 96 0d 64
        E 120 86 0d 00
        E 360 96 0d 64
        E 120 86 0d 00
        E 360 96 0c 64
        E 120 86 0c 00
        E 360 96 0d 64
        E 120 86 0d 00
        E 360 96 0d 64
        E 120 86 0d 00
        E 360 96 0d 64
        E 120 86 0d 00
        E 360 96 0c 64
        E 120 86 0c 00
        E 360 96 0d 64
        E 120 86 0d 00
        E 360 96 0d 64
        E 120 86 0d 00
        E 360 96 0d 64
        E 120 86 0d 00
        E 360 96 0c 64
        E 120 86 0c 00
        E 360 96 0d 64
        E 120 86 0d 00
        E 360 96 0d 64
        E 120 86 0d 00
        E 360 96 0d 64
        E 120 86 0d 00
        E 360 96 0c 64
        E 120 86 0c 00
        E 360 96 0d 64
        E 120 86 0d 00
        E 360 96 0d 64
        E 120 86 0d 00
        E 360 96 0d 64
        E 120 86 0d 00
        E 360 96 0c 64
        E 120 86 0c 00
        E 360 96 0d 64
        E 120 86 0d 00
        E 360 96 0d 64
        E 120 86 0d 00
        E 360 96 0d 64
        E 120 86 0d 00
        E 360 96 0c 64
        E 120 86 0c 00
        E 360 96 0d 64
        E 120 86 0d 00
        E 360 96 0d 64
        E 120 86 0d 00
        E 360 96 0d 64
        E 120 86 0d 00
        E 360 96 0c 64
        E 120 86 0c 00
        E 360 96 0d 64
        E 120 86 0d 00
        E 360 96 0d 64
        E 120 86 0d 00
        E 360 96 0d 64
        E 120 86 0d 00
        E 360 96 0c 64
        E 120 86 0c 00
        E 360 96 0d 64
        E 120 86 0d 00
        E 360 96 0d 64
        E 120 86 0d 00
        E 360 96 0d 64
        E 120 86 0d 00
        E 360 96 0c 64
        E 120 86 0c 00
        E 360 96 0d 64
        E 120 86 0d 00
        E 360 96 0d 64
        E 120 86 0d 00
        E 360 96 0d 64
        E 120 86 0d 00
        E 360 96 0c 64
        E 120 86 0c 00
        E 360 96 0d 64
        E 120 86 0d 00
        E 360 96 0d 64
        E 120 86 0d 00
        E 360 96 0d 64
        E 120 86 0d 00
        E 360 96 0c 64
        E 120 86 0c 00
        E 360 96 0d 64
        E 120 86 0d 00
        E 360 96 0d 64
        E 120 86 0d 00
        E 360 96 0d 64
        E 120 86 0d 00
        E 360 96 0c 64
        E 120 86 0c 00
        E 360 96 0d 64
        E 120 86 0d 00
        E 360 96 0d 64
        E 120 86 0d 00
        E 360 96 0d 64
        E 120 86 0d 00
        E 360 96 0c 64
        E 120 86 0c 00
        E 360 96 0d 64
        E 120 86 0d 00
        E 360 96 0d 64
        E 120 86 0d 00
        E 360 96 0d 64
        E 120 86 0d 00
        E 360 96 0c 64
        E 120 86 0c 00
        E 360 96 0d 64
        E 120 86 0d 00
        E 360 96 0d 64
        E 120 86 0d 00
        E 360 96 0d 64
        E 120 86 0d 00
        E 360 96 0c 64
        E 120 86 0c 00
        E 360 96 0d 64
        E 120 86 0d 00
        E 360 96 0d 64
        E 120 86 0d 00
        E 360 96 0d 64
        E 120 86 0d 00
        E 360 96 0c 64
        E 120 86 0c 00
        E 360 96 0d 64
        E 120 86 0d 00
        E 360 96 0d 64
        E 120 86 0d 00
        E 360 96 0d 64
        E 120 86 0d 00
        E 360 96 0c 64
        E 120 86 0c 00
        E 360 96 0d 64
        E 120 86 0d 00
        E 360 96 0d 64
        E 120 86 0d 00
        E 360 96 0d 64
        E 120 86 0d 00
        E 360 96 0c 64
        E 120 86 0c 00
        E 360 96 0d 64
        E 120 86 0d 00
        E 360 96 0d 64
        E 120 86 0d 00
        E 360 96 0d 64
        E 120 86 0d 00
        E 360 96 0c 64
        E 120 86 0c 00
        E 360 96 0d 64
        E 120 86 0d 00
        E 360 96 0d 64
        E 120 86 0d 00
        E 360 96 0d 64
        E 120 86 0d 00
        E 360 96 0c 64
        E 120 86 0c 00
        E 360 96 0d 64
        E 120 86 0d 00
        E 360 96 0d 64
        E 120 86 0d 00
        E 360 96 0d 64
        E 120 86 0d 00
        E 360 96 0c 64
        E 120 86 0c 00
        E 360 96 0d 64
        E 120 86 0d 00
        E 360 96 0d 64
        E 120 86 0d 00
        E 360 96 0d 64
        E 120 86 0d 00
        E 360 96 0c 64
        E 120 86 0c 00
        E 360 96 0d 64
        E 120 86 0d 00
        E 360 96 0d 64
        E 120 86 0d 00
        E 360 96 0d 64
        E 120 86 0d 00
        E 360 96 0c 64
        E 120 86 0c 00
        E 360 96 0d 64
        E 120 86 0d 00
        E 360 96 0d 64
        E 120 86 0d 00
        E 360 96 0d 64
        E 120 86 0d 00
        E 360 96 0c 64
        E 120 86 0c 00
        E 360 96 0d 64
        E 120 86 0d 00
        E 360 96 0d 64
        E 120 86 0d 00
        E 360 96 0d 64
        E 120 86 0d 00
        E 360 96 0c 64
        E 120 86 0c 00
        E 360 96 0d 64
        E 120 86 0d 00
        E 360 96 0d 64
        E 120 86 0d 00
        E 360 96 0d 64
        E 120 86 0d 00
        E 360 96 0c 64
        E 120 86 0c 00
        E 360 96 0d 64
        E 120 86 0d 00
        E 360 96 0d 64
        E 120 86 0d 00
        E 360 96 0d 64
        E 120 86 0d 00
        E 360 96 0c 64
        E 120 86 0c 00
        E 360 96 0d 64
        E 120 86 0d 00
        E 360 96 0d 64
        E 120 86 0d 00
        E 360 96 0d 64
        E 120 86 0d 00
        E 360 96 0c 64
        E 120 86 0c 00
        E 360 96 0d 64
        E 120 86 0d 00
        E 360 96 0d 64
        E 120 86 0d 00
        E 360 96 0d 64
        E 120 86 0d 00
        E 360 96 0c 64
        E 120 86 0c 00
        E 360 96 0d 64
        E 120 86 0d 00
        E 360 96 0d 64
        E 120 86 0d 00
        E 360 96 0d 64
        E 120 86 0d 00
        E 360 96 0c 64
        E 120 86 0c 00
        E 360 96 0d 64
        E 120 86 0d 00
        E 360 96 0d 64
        E 120 86 0d 00
        E 360 96 0d 64
        E 120 86 0d 00
        E 360 96 0c 64
        E 120 86 0c 00
        E 360 96 0d 64
        E 120 86 0d 00
        E 360 96 0d 64
        E 120 86 0d 00
        E 360 96 0d 64
        E 120 86 0d 00
        E 360 96 0c 64
        E 120 86 0c 00
        E 360 96 0d 64
        E 120 86 0d 00
        E 360 96 0d 64
        E 120 86 0d 00
        E 360 96 0d 64
        E 120 86 0d 00
        E 360 96 0c 64
        E 120 86 0c 00
        E 360 96 0d 64
        E 120 86 0d 00
        E 360 96 0d 64
        E 120 86 0d 00
        E 360 96 0d 64
        E 120 86 0d 00
        E 360 96 0c 64
        E 120 86 0c 00
        E 360 96 0d 64
        E 120 86 0d 00
        E 360 96 0d 64
        E 120 86 0d 00
        E 360 96 0d 64
        E 120 86 0d 00
        E 360 96 0c 64
        E 120 86 0c 00
        E 360 96 0d 64
        E 120 86 0d 00
        E 360 96 0d 64
        E 120 86 0d 00
        E 360 96 0d 64
        E 120 86 0d 00
        E 360 96 0c 64
        E 120 86 0c 00
        E 360 96 0d 64
        E 120 86 0d 00
        E 360 96 0d 64
        E 120 86 0d 00
        E 360 96 0d 64
        E 120 86 0d 00
        E 360 96 0c 64
        E 120 86 0c 00
        E 360 96 0d 64
        E 120 86 0d 00
        E 360 96 0d 64
        E 120 86 0d 00
        E 360 96 0d 64
        E 120 86 0d 00
        E 360 96 0c 64
        E 120 86 0c 00
        E 360 96 0d 64
        E 120 86 0d 00
        E 360 96 0d 64
        E 120 86 0d 00
        E 360 96 0d 64
        E 120 86 0d 00
        E 360 96 0c 64
        E 120 86 0c 00
        E 360 96 0d 64
        E 120 86 0d 00
        E 360 96 0d 64
        E 120 86 0d 00
        E 360 96 0d 64
        E 120 86 0d 00
        E 360 96 0c 64
        E 120 86 0c 00
        E 360 96 0d 64
        E 120 86 0d 00
        E 360 96 0d 64
        E 120 86 0d 00
        E 360 96 0d 64
        E 120 86 0d 00
        E 360 96 0c 64
        E 120 86 0c 00
        E 360 96 0d 64
        E 120 86 0d 00
        E 360 96 0d 64
        E 120 86 0d 00
        E 360 96 0d 64
        E 120 86 0d 00
        E 360 96 0c 64
        E 120 86 0c 00
        E 360 96 0d 64
        E 120 86 0d 00
        E 360 96 0d 64
        E 120 86 0d 00
        E 360 96 0d 64
        E 120 86 0d 00
        E 360 96 0c 64
        E 120 86 0c 00
        E 360 96 0d 64
        E 120 86 0d 00
        E 360 96 0d 64
        E 120 86 0d 00
        E 360 96 0d 64
        E 120 86 0d 00
        E 360 96 0c 64
        E 120 86 0c 00
        E 360 96 0d 64
        E 120 86 0d 00
        E 360 96 0d 64
        E 120 86 0d 00
        E 360 96 0d 64
        E 120 86 0d 00
        E 360 96 0c 64
        E 120 86 0c 00
        E 360 96 0d 64
        E 120 86 0d 00
        E 360 96 0d 64
        E 120 86 0d 00
        E 360 96 0d 64
        E 120 86 0d 00
        E 360 96 0c 64
        E 120 86 0c 00
        E 360 96 0d 64
        E 120 86 0d 00
        E 360 96 0d 64
        E 120 86 0d 00
        E 360 96 0d 64
        E 120 86 0d 00
        E 360 96 0c 64
        E 120 86 0c 00
        E 360 96 0d 64
        E 120 86 0d 00
        E 360 96 0d 64
        E 120 86 0d 00
        E 360 96 0d 64
        E 120 86 0d 00
        E 360 96 0c 64
        E 120 86 0c 00
        E 360 96 0d 64
        E 120 86 0d 00
        E 360 96 0d 64
        E 120 86 0d 00
        E 360 96 0d 64
        E 120 86 0d 00
        E 360 96 0c 64
        E 120 86 0c 00
        E 360 96 0d 64
        E 120 86 0d 00
        E 360 96 0d 64
        E 120 86 0d 00
        E 360 96 0d 64
        E 120 86 0d 00
        E 360 96 0c 64
        E 120 86 0c 00
        E 360 96 0d 64
        E 120 86 0d 00
        E 360 96 0d 64
        E 120 86 0d 00
        E 360 96 0d 64
        E 120 86 0d 00
        E 360 96 0c 64
        E 120 86 0c 00
        E 360 96 0d 64
        E 120 86 0d 00
        E 360 96 0d 64
        E 120 86 0d 00
        E 360 96 0d 64
        E 120 86 0d 00
        E 360 96 0c 64
        E 120 86 0c 00
        E 360 96 0d 64
        E 120 86 0d 00
        E 360 96 0d 64
        E 120 86 0d 00
        E 360 96 0d 64
        E 120 86 0d 00
        E 360 96 0c 64
        E 120 86 0c 00
        E 360 96 0d 64
        E 120 86 0d 00
        E 360 96 0d 64
        E 120 86 0d 00
        E 360 96 0d 64
        E 120 86 0d 00
        E 360 96 0c 64
        E 120 86 0c 00
        E 360 96 0d 64
        E 120 86 0d 00
        E 360 96 0d 64
        E 120 86 0d 00
        E 360 96 0d 64
        E 120 86 0d 00
        E 360 96 0c 64
        E 120 86 0c 00
        E 360 96 0d 64
        E 120 86 0d 00
        E 360 96 0d 64
        E 120 86 0d 00
        E 360 96 0d 64
        E 120 86 0d 00
        E 360 96 0c 64
        E 120 86 0c 00
        E 360 96 0d 64
        E 120 86 0d 00
        E 360 96 0d 64
        E 120 86 0d 00
        E 360 96 0d 64
        E 120 86 0d 00
        E 360 96 0c 64
        E 120 86 0c 00
        E 360 96 0d 64
        E 120 86 0d 00
        E 360 96 0d 64
        E 120 86 0d 00
        E 360 96 0d 64
        E 120 86 0d 00
        E 360 96 0c 64
        E 120 86 0c 00
        E 360 96 0d 64
        E 120 86 0d 00
        E 360 96 0d 64
        E 120 86 0d 00
        E 360 96 0d 64
        E 120 86 0d 00
        E 360 96 0c 64
        E 120 86 0c 00
        E 360 96 0d 64
        E 120 86 0d 00
        E 360 96 0d 64
        E 120 86 0d 00
        E 360 96 0d 64
        E 120 86 0d 00
        E 360 96 0c 64
        E 120 86 0c 00
        E 360 96 0d 64
        E 120 86 0d 00
        E 360 96 0d 64
        E 120 86 0d 00
        E 360 96 0d 64
        E 120 86 0d 00
        E 360 96 0c 64
        E 120 86 0c 00
        E 360 96 0d 64
        E 120 86 0d 00
        E 360 96 0d 64
        E 120 86 0d 00
        E 360 96 0d 64
        E 120 86 0d 00
        E 360 96 0c 64
        E 120 86 0c 00
        E 360 96 0d 64
        E 120 86 0d 00
        E 360 96 0d 64
        E 120 86 0d 00
        E 360 96 0d 64
        E 120 86 0d 00
        E 360 96 0c 64
        E 120 86 0c 00
        E 360 96 0d 64
        E 120 86 0d 00
        E 360 96 0d 64
        E 120 86 0d 00
        E 360 96 0d 64
        E 120 86 0d 00
        E 360 96 0c 64
        E 120 86 0c 00
        E 360 96 0d 64
        E 120 86 0d 00
        E 360 96 0d 64
        E 120 86 0d 00
        E 360 96 0d 64
        E 120 86 0d 00
        E 360 96 0c 64
        E 120 86 0c 00
        E 360 96 0d 64
        E 120 86 0d 00
        E 360 96 0d 64
        E 120 86 0d 00
        E 360 96 0d 64
        E 120 86 0d 00
        E 360 96 0c 64
        E 120 86 0c 00
        E 360 96 0d 64
        E 120 86 0d 00
        E 360 96 0d 64
        E 120 86 0d 00
        E 360 96 0d 64
        E 120 86 0d 00
        E 360 96 0c 64
        E 120 86 0c 00
        E 360 96 0d 64
        E 120 86 0d 00
        E 360 96 0d 64
        E 120 86 0d 00
        E 360 96 0d 64
        E 120 86 0d 00
        E 360 96 0c 64
        E 120 86 0c 00
        E 360 96 0d 64
        E 120 86 0d 00
        E 360 96 0d 64
        E 120 86 0d 00
        E 360 96 0d 64
        E 120 86 0d 00
        E 360 96 0c 64
        E 120 86 0c 00
        E 360 96 0d 64
        E 120 86 0d 00
        E 360 96 0d 64
        E 120 86 0d 00
        E 360 96 0d 64
        E 120 86 0d 00
        E 360 96 0c 64
        E 120 86 0c 00
        E 360 96 0d 64
        E 120 86 0d 00
        E 360 96 0d 64
        E 120 86 0d 00
        E 360 96 0d 64
        E 120 86 0d 00
        E 360 96 0c 64
        E 120 86 0c 00
        E 360 96 0d 64
        E 120 86 0d 00
        E 360 96 0d 64
        E 120 86 0d 00
        E 360 96 0d 64
        E 120 86 0d 00
        E 360 96 0c 64
        E 120 86 0c 00
        E 360 96 0d 64
        E 120 86 0d 00
        E 360 96 0d 64
        E 120 86 0d 00
        E 360 96 0d 64
        E 120 86 0d 00
        E 360 96 0c 64
        E 120 86 0c 00
        E 360 96 0d 64
        E 120 86 0d 00
        E 360 96 0d 64
        E 120 86 0d 00
        E 360 96 0d 64
        E 120 86 0d 00
        E 360 96 0c 64
        E 120 86 0c 00
        E 360 96 0d 64
        E 120 86 0d 00
        E 360 96 0d 64
        E 120 86 0d 00
        E 360 96 0d 64
        E 120 86 0d 00
        E 360 96 0c 64
        E 120 86 0c 00
        E 360 96 0d 64
        E 120 86 0d 00
        E 360 96 0d 64
        E 120 86 0d 00
        E 360 96 0d 64
        E 120 86 0d 00
        E 360 96 0c 64
        E 120 86 0c 00
        E 360 96 0d 64
        E 120 86 0d 00
        E 360 96 0d 64
        E 120 86 0d 00
        E 360 96 0d 64
        E 120 86 0d 00
        E 360 96 0c 64
        E 120 86 0c 00
        E 360 96 0d 64
        E 120 86 0d 00
        E 360 96 0d 64
        E 120 86 0d 00
        E 360 96 0d 64
        E 120 86 0d 00
        E 360 96 0c 64
        E 120 86 0c 00
        E 360 96 0d 64
        E 120 86 0d 00
        E 360 96 0d 64
        E 120 86 0d 00
        E 360 96 0d 64
        E 120 86 0d 00
        E 360 96 0c 64
        E 120 86 0c 00
        E 360 96 0d 64
        E 120 86 0d 00
        E 360 96 0d 64
        E 120 86 0d 00
        E 360 96 0d 64
        E 120 86 0d 00
        E 360 96 0c 64
        E 120 86 0c 00
        E 360 96 0d 64
        E 120 86 0d 00
        E 360 96 0d 64
        E 120 86 0d 00
        E 360 96 0d 64
        E 120 86 0d 00
        E 360 96 0c 64
        E 120 86 0c 00
        E 360 96 0d 64
        E 120 86 0d 00
        E 360 96 0d 64
        E 120 86 0d 00
        E 360 96 0d 64
        E 120 86 0d 00
        E 360 96 0c 64
        E 120 86 0c 00
        E 360 96 0d 64
        E 120 86 0d 00
        E 360 96 0d 64
        E 120 86 0d 00
        E 360 96 0d 64
        E 120 86 0d 00
        E 360 96 0c 64
        E 120 86 0c 00
        E 360 96 0d 64
        E 120 86 0d 00
        E 360 96 0d 64
        E 120 86 0d 00
        E 360 96 0d 64
        E 120 86 0d 00
        E 360 96 0c 64
        E 120 86 0c 00
        E 360 96 0d 64
        E 120 86 0d 00
        E 360 96 0d 64
        E 120 86 0d 00
        E 360 96 0d 64
        E 120 86 0d 00
        E 360 96 0c 64
        E 120 86 0c 00
        E 360 96 0d 64
        E 120 86 0d 00
        E 360 96 0d 64
        E 120 86 0d 00
        E 360 96 0d 64
        E 120 86 0d 00
        E 360 96 0c 64
        E 120 86 0c 00
        E 360 96 0d 64
        E 120 86 0d 00
        E 360 96 0d 64
        E 120 86 0d 00
        E 360 96 0d 64
        E 120 86 0d 00
        E 360 96 0c 64
        E 120 86 0c 00
        E 360 96 0d 64
        E 120 86 0d 00
        E 360 96 0d 64
        E 120 86 0d 00
        E 360 96 0d 64
        E 120 86 0d 00
        E 360 96 0c 64
        E 120 86 0c 00
        E 360 96 0d 64
        E 120 86 0d 00
        E 360 96 0d 64
        E 120 86 0d 00
        E 360 96 0d 64
        E 120 86 0d 00
        E 360 96 0c 64
        E 120 86 0c 00
        E 360 96 0d 64
        E 120 86 0d 00
        E 360 96 0d 64
        E 120 86 0d 00
        E 360 96 0d 64
        E 120 86 0d 00
        E 360 96 0c 64
        E 120 86 0c 00
        E 360 96 0d 64
        E 120 86 0d 00
        E 360 96 0d 64
        E 120 86 0d 00
        E 360 96 0d 64
        E 120 86 0d 00
        E 360 96 0c 64
        E 120 86 0c 00
        E 360 96 0d 64
        E 120 86 0d 00
        E 360 96 0d 64
        E 120 86 0d 00
        E 360 96 0d 64
        E 120 86 0d 00
        E 360 96 0c 64
        E 120 86 0c 00
        E 360 96 0d 64
        E 120 86 0d 00
        E 360 96 0d 64
        E 120 86 0d 00
        E 360 96 0d 64
        E 120 86 0d 00
        E 360 96 0c 64
        E 120 86 0c 00
        E 360 96 0d 64
        E 120 86 0d 00
        E 360 96 0d 64
        E 120 86 0d 00
        E 360 96 0d 64
        E 120 86 0d 00
        E 360 96 0c 64
        E 120 86 0c 00
        E 360 96 0d 64
        E 120 86 0d 00
        E 360 96 0d 64
        E 120 86 0d 00
        E 360 96 0d 64
        E 120 86 0d 00
        E 360 96 0c 64
        E 120 86 0c 00
        E 360 96 0d 64
        E 120 86 0d 00
        E 360 96 0d 64
        E 120 86 0d 00
        E 360 96 0d 64
        E 120 86 0d 00
        E 360 96 0c 64
        E 120 86 0c 00
        E 360 96 0d 64
        E 120 86 0d 00
        E 360 96 0d 64
        E 120 86 0d 00
        E 360 96 0d 64
        E 120 86 0d 00
        E 360 96 0c 64
        E 120 86 0c 00
        E 360 96 0d 64
        E 120 86 0d 00
        E 360 96 0d 64
        E 120 86 0d 00
        E 360 96 0d 64
        E 120 86 0d 00
        E 360 96 0c 64
        E 120 86 0c 00
        E 360 96 0d 64
        E 120 86 0d 00
        E 360 96 0d 64
        E 120 86 0d 00
        E 360 96 0d 64
        E 120 86 0d 00
        E 360 96 0c 64
        E 120 86 0c 00
        E 360 96 0d 64
        E 120 86 0d 00
        E 360 96 0d 64
        E 120 86 0d 00
        E 360 96 0d 64
        E 120 86 0d 00
        E 360 96 0c 64
        E 120 86 0c 00
        E 360 96 0d 64
        E 120 86 0d 00
        E 360 96 0d 64
        E 120 86 0d 00
        E 360 96 0d 64
        E 120 86 0d 00
        E 360 96 0c 64
        E 120 86 0c 00
        E 360 96 0d 64
        E 120 86 0d 00
        E 360 96 0d 64
        E 120 86 0d 00
        E 360 96 0d 64
        E 120 86 0d 00
        E 360 96 0c 64
        E 120 86 0c 00
        E 360 96 0d 64
        E 120 86 0d 00
        E 360 96 0d 64
        E 120 86 0d 00
        E 360 96 0d 64
        E 120 86 0d 00
        E 360 96 0c 64
        E 120 86 0c 00
        E 360 96 0d 64
        E 120 86 0d 00
        E 360 96 0d 64
        E 120 86 0d 00
        E 360 96 0d 64
        E 120 86 0d 00
        E 360 96 0c 64
        E 120 86 0c 00
        E 360 96 0d 64
        E 120 86 0d 00
        E 360 96 0d 64
        E 120 86 0d 00
        E 360 96 0d 64
        E 120 86 0d 00
        E 360 96 0c 64
        E 120 86 0c 00
        E 360 96 0d 64
        E 120 86 0d 00
        E 360 96 0d 64
        E 120 86 0d 00
        E 360 96 0d 64
        E 120 86 0d 00
        E 360 96 0c 64
        E 120 86 0c 00
        E 360 96 0d 64
        E 120 86 0d 00
        E 360 96 0d 64
        E 120 86 0d 00
        E 360 96 0d 64
        E 120 86 0d 00
        E 360 96 0c 64
        E 120 86 0c 00
        E 360 96 0d 64
        E 120 86 0d 00
        E 360 96 0d 64
        E 120 86 0d 00
        E 360 96 0d 64
        E 120 86 0d 00
        E 360 96 0c 64
        E 120 86 0c 00
        E 360 96 0d 64
        E 120 86 0d 00
        E 360 96 0d 64
        E 120 86 0d 00
        E 360 96 0d 64
        E 120 86 0d 00
        E 360 96 0c 64
        E 120 86 0c 00
        E 360 96 0d 64
        E 120 86 0d 00
        E 360 96 0d 64
        E 120 86 0d 00
        E 360 96 0d 64
        E 120 86 0d 00
        E 360 96 0c 64
        E 120 86 0c 00
        E 360 96 0d 64
        E 120 86 0d 00
        E 360 96 0d 64
        E 120 86 0d 00
        E 360 96 0d 64
        E 120 86 0d 00
        E 360 96 0c 64
        E 120 86 0c 00
        E 360 96 0d 64
        E 120 86 0d 00
        E 360 96 0d 64
        E 120 86 0d 00
        E 360 96 0d 64
        E 120 86 0d 00
        E 360 96 0c 64
        E 120 86 0c 00
        E 360 96 0d 64
        E 120 86 0d 00
        E 360 96 0d 64
        E 120 86 0d 00
        E 360 96 0d 64
        E 120 86 0d 00
        E 360 96 0c 64
        E 120 86 0c 00
        E 360 96 0d 64
        E 120 86 0d 00
        E 360 96 0d 64
        E 120 86 0d 00
        E 360 96 0d 64
        E 120 86 0d 00
        E 360 96 0c 64
        E 120 86 0c 00
        E 360 96 0d 64
        E 120 86 0d 00
        E 360 96 0d 64
        E 120 86 0d 00
        E 360 96 0d 64
        E 120 86 0d 00
        E 360 96 0c 64
        E 120 86 0c 00
        E 360 96 0d 64
        E 120 86 0d 00
        E 360 96 0d 64
        E 120 86 0d 00
        E 360 96 0d 64
        E 120 86 0d 00
        E 360 96 0c 64
        E 120 86 0c 00
        E 360 96 0d 64
        E 120 86 0d 00
        E 360 96 0d 64
        E 120 86 0d 00
        E 360 96 0d 64
        E 120 86 0d 00
        E 360 96 0c 64
        E 120 86 0c 00
        E 360 96 0d 64
        E 120 86 0d 00
        E 360 96 0d 64
        E 120 86 0d 00
        E 360 96 0d 64
        E 120 86 0d 00
        E 360 96 0c 64
        E 120 86 0c 00
        E 360 96 0d 64
        E 120 86 0d 00
        E 360 96 0d 64
        E 120 86 0d 00
        E 360 96 0d 64
        E 120 86 0d 00
        E 360 96 0c 64
        E 120 86 0c 00
        E 360 96 0d 64
        E 120 86 0d 00
        E 360 96 0d 64
        E 120 86 0d 00
        E 360 96 0d 64
        E 120 86 0d 00
        E 360 96 0c 64
        E 120 86 0c 00
        E 360 96 0d 64
        E 120 86 0d 00
        E 360 96 0d 64
        E 120 86 0d 00
        E 360 96 0d 64
        E 120 86 0d 00
        E 360 96 0c 64
        E 120 86 0c 00
        E 360 96 0d 64
        E 120 86 0d 00
        E 360 96 0d 64
        E 120 86 0d 00
        E 360 96 0d 64
        E 120 86 0d 00
        E 360 96 0c 64
        E 120 86 0c 00
        E 360 96 0d 64
        E 120 86 0d 00
        E 360 96 0d 64
        E 120 86 0d 00
        E 360 96 0d 64
        E 120 86 0d 00
        E 360 96 0c 64
        E 120 86 0c 00
        E 360 96 0d 64
        E 120 86 0d 00
        E 360 96 0d 64
        E 120 86 0d 00
        E 360 96 0d 64
        E 120 86 0d 00
        E 360 96 0c 64
        E 120 86 0c 00
        E 360 96 0d 64
        E 120 86 0d 00
        E 360 96 0d 64
        E 120 86 0d 00
        E 360 96 0d 64
        E 120 86 0d 00
        E 360 96 0c 64
        E 120 86 0c 00
        E 360 96 0d 64
        E 120 86 0d 00
        E 360 96 0d 64
        E 120 86 0d 00
        E 360 96 0d 64
        E 120 86 0d 00
        E 360 96 0c 64
        E 120 86 0c 00
        E 360 96 0d 64
        E 120 86 0d 00
        E 360 96 0d 64
        E 120 86 0d 00
        E 360 96 0d 64
        E 120 86 0d 00
        E 360 96 0c 64
        E 120 86 0c 00
        E 360 96 0d 64
        E 120 86 0d 00
        E 360 96 0d 64
        E 120 86 0d 00
        E 360 96 0d 64
        E 120 86 0d 00
        E 360 96 0c 64
        E 120 86 0c 00
        E 360 96 0d 64
        E 120 86 0d 00
        E 360 96 0d 64
        E 120 86 0d 00
        E 360 96 0d 64
        E 120 86 0d 00
        E 360 96 0c 64
        E 120 86 0c 00
        E 360 96 0d 64
        E 120 86 0d 00
        E 360 96 0d 64
        E 120 86 0d 00
        E 360 96 0d 64
        E 120 86 0d 00
        E 360 96 0c 64
        E 120 86 0c 00
        E 360 96 0d 64
        E 120 86 0d 00
        E 360 96 0d 64
        E 120 86 0d 00
        E 360 96 0d 64
        E 120 86 0d 00
        E 360 96 0c 64
        E 120 86 0c 00
        E 360 96 0d 64
        E 120 86 0d 00
        E 360 96 0d 64
        E 120 86 0d 00
        E 360 96 0d 64
        E 120 86 0d 00
        E 360 96 0c 64
        E 120 86 0c 00
        E 360 96 0d 64
        E 120 86 0d 00
        E 360 96 0d 64
        E 120 86 0d 00
        E 360 96 0d 64
        E 120 86 0d 00
        E 360 96 0c 64
        E 120 86 0c 00
        E 360 96 0d 64
        E 120 86 0d 00
        E 360 96 0d 64
        E 120 86 0d 00
        E 360 96 0d 64
        E 120 86 0d 00
        E 360 96 0c 64
        E 120 86 0c 00
        E 360 96 0d 64
        E 120 86 0d 00
        E 360 96 0d 64
        E 120 86 0d 00
        E 360 96 0d 64
        E 120 86 0d 00
        E 360 96 0c 64
        E 120 86 0c 00
        E 360 96 0d 64
        E 120 86 0d 00
        E 360 96 0d 64
        E 120 86 0d 00
        E 360 96 0d 64
        E 120 86 0d 00
        E 360 96 0c 64
        E 120 86 0c 00
        E 360 96 0d 64
        E 120 86 0d 00
        E 360 96 0d 64
        E 120 86 0d 00
        E 360 96 0d 64
        E 120 86 0d 00
        E 360 96 0c 64
        E 120 86 0c 00
        E 360 96 0d 64
        E 120 86 0d 00
        E 360 96 0d 64
        E 120 86 0d 00
        E 360 96 0d 64
        E 120 86 0d 00
        E 360 96 0c 64
        E 120 86 0c 00
        E 360 96 0d 64
        E 120 86 0d 00
        E 360 96 0d 64
        E 120 86 0d 00
        E 360 96 0d 64
        E 120 86 0d 00
        E 360 96 0c 64
        E 120 86 0c 00
        E 360 96 0d 64
        E 120 86 0d 00
        E 360 96 0d 64
        E 120 86 0d 00
        E 360 96 0d 64
        E 120 86 0d 00
        E 360 96 0c 64
        E 120 86 0c 00
        E 360 96 0d 64
        E 120 86 0d 00
        E 360 96 0d 64
        E 120 86 0d 00
        E 360 96 0d 64
        E 120 86 0d 00
        E 360 96 0c 64
        E 120 86 0c 00
        E 360 96 0d 64
        E 120 86 0d 00
        E 360 96 0d 64
        E 120 86 0d 00
        E 360 96 0d 64
        E 120 86 0d 00
        E 360 96 0c 64
        E 120 86 0c 00
        E 360 96 0d 64
        E 120 86 0d 00
        E 360 96 0d 64
        E 120 86 0d 00
        E 360 96 0d 64
        E 120 86 0d 00
        E 360 96 0c 64
        E 120 86 0c 00
        E 360 96 0d 64
        E 120 86 0d 00
        E 360 96 0d 64
        E 120 86 0d 00
        E 360 96 0d 64
        E 120 86 0d 00
        E 360 96 0c 64
        E 120 86 0c 00
        E 360 96 0d 64
        E 120 86 0d 00
        E 360 96 0d 64
        E 120 86 0d 00
        E 360 96 0d 64
        E 120 86 0d 00
        E 360 96 0c 64
        E 120 86 0c 00
        E 360 96 0d 64
        E 120 86 0d 00
        E 360 96 0d 64
        E 120 86 0d 00
        E 360 96 0d 64
        E 120 86 0d 00
        E 360 96 0c 64
        E 120 86 0c 00
        E 360 96 0d 64
        E 120 86 0d 00
        E 360 96 0d 64
        E 120 86 0d 00
        E 360 96 0d 64
        E 120 86 0d 00
        E 360 96 0c 64
        E 120 86 0c 00
        E 360 96 0d 64
        E 120 86 0d 00
        E 360 96 0d 64
        E 120 86 0d 00
        E 360 96 0d 64
        E 120 86 0d 00
        E 5760 b0 7b 00
        GUID {8CB930E8-B6A0-4CAD-825A-9F47FB66C1D0}
        IGNTEMPO 0 120.00000000 4 4
        SRCCOLOR 1137
        VELLANE 132 100 100
        COLORMAP "M:\RGS Documents\ColorMaps\rockband_vox-other.png"
        TEXTSTRINGFILE "Text Events List.txt"
        CFGEDITVIEW 181266.349006 16.407504 0 48 0 0 0
        CFGEDIT 1 1 0 0 0 1 1 1 1 1 1 1.00000000 44 63 1223 847 1 2 1 2 0.00000000 0 0 0 0 0.500000 1 0 1.000000 64
        KEYSNAP 0 0 "102034050607" 0 "Major"
        EVTFILTER 0 -1 -1 -1 -1 0 1 0 0 -1.00000000 -1.00000000
      >
    >
  >
  <TRACK '{0E2FE3F2-76C0-4A51-94D0-F118951ACC28}'
    NAME "PART REAL_GUITAR"
    PEAKCOL 16576
    BEAT -1
    AUTOMODE 0
    VOLPAN 1.00000000000000 0.00000000000000 -1.00000000000000 -1.00000000000000 1.00000000000000
    MUTESOLO 1 0 0
    IPHASE 0
    ISBUS 0 0
    BUSCOMP 0 0
    SHOWINMIX 1 0.666700 0.500000 1 0.500000 -1 -1 -1
    FREEMODE 0
    SEL 0
    REC 0 0 0 0 0 0 0
    TRACKHEIGHT 24 0
    INQ 0 0 0 0.5000000000 100 0 0 100
    NCHAN 2
    FX 1
    TRACKID {0E2FE3F2-76C0-4A51-94D0-F118951ACC28}
    PERF 0
    MIDIOUT -1
    <MIDINOTENAMES
      0 101 "EXPERT E String (HIGH)"
      0 100 "EXPERT B String"
      0 99 "EXPERT G String"
      0 98 "EXPERT D String"
      0 97 "EXPERT A String"
      0 96 "EXPERT E String (LOW)"
      0 77 "HARD E String (HIGH)"
      0 72 "HARD E String (LOW)"
      0 53 "MEDIUM E String (HIGH)"
      0 48 "MEDIUM E String (LOW)"
      0 29 "EASY E String (HIGH)"
      0 24 "EASY E String (LOW)"
      0 76 "HARD B String"
      0 75 "HARD G String"
      0 74 "HARD D String"
      0 73 "HARD A String"
      0 52 "MEDIUM B String"
      0 51 "MEDIUM G String"
      0 50 "MEDIUM D String"
      0 49 "MEDIUM A String"
      0 28 "EASY B String"
      0 27 "EASY G String"
      0 26 "EASY D String"
      0 25 "EASY A String"
      0 116 "OVERDRIVE"
      0 115 "Solo Marker"
      0 125 "BRE"
      0 120 "BRE (use all 6)"
      0 124 "BRE"
      0 123 "BRE"
      0 122 "BRE"
      0 121 "BRE"
      0 127 "Trill"
      0 126 "Tremelo"
      0 108 "Left hand position"
      0 107 "Force Chord Numbering"
      0 104 "EXPERT Arpeggio Marker"
      0 103 "EXPERT Slide Marker"
      0 102 "EXPERT Force Ho/Po"
      0 80 "HARD Arpeggio Marker"
      0 79 "HARD Slide Marker"
      0 78 "Force Ho/Po"
      0 55 "MEDIUM Slide Marker"
      0 31 "EASY Slide Marker"
      0 17 "Hide Chord Names"
      0 15 "Eb"
      0 14 "D"
      0 13 "Db"
      0 12 "C"
      0 11 "B"
      0 10 "Bb"
      0 9 "A"
      0 8 "Ab"
      0 7 "G"
      0 6 "Gb"
      0 5 "F"
      0 4 "E"
      0 105 "EXPERT Strum Direction"
      0 81 "HARD Strum Direction"
      0 56 "MEDIUM Arpeggio Marker"
      0 32 "EASY Arpeggio Marker"
      0 21 "CHORD NAMES"
      0 18 "Flat/Sharp Swap"
      0 16 "Slash Chord"
    >
    MAINSEND 1 0
    <FXCHAIN
      SHOW 0
      LASTSEL 0
      DOCKED 0
    >
    <ITEM
      POSITION 0.00000000000000
      SNAPOFFS 0.00000000000000
      LENGTH 267.37119097116141
      LOOP 0
      ALLTAKES 0
      SEL 0
      FADEIN 1 0.000000 0.000000 1 0
      FADEOUT 1 0.000000 0.000000 1 0
      MUTE 0
      IGUID {20F1321F-9ED7-4853-AD09-40B222B05CF8}
      IID 24
      NAME "PART REAL_GUITAR"
      VOLPAN 1.000000 0.000000 1.000000 -1.000000
      SOFFS 0.00000000000000 0.00000000000000
      PLAYRATE 1.00000000000000 1 0.00000000000000 -1
      CHANMODE 0
      GUID {3CDDC74F-292B-448F-83EC-680F8CEF1C9B}
      <SOURCE MIDI
        HASDATA 1 480 QN
        POOLEDEVTS {3561342A-0877-447F-927E-E95FD1255996}
        <X 0 0
          /wNQQVJUIFJFQUxfR1VJVEFS
        >
        E 3840 90 18 64
        E 0 90 19 64
        E 0 90 1a 64
        E 0 90 1b 64
        E 0 90 1c 64
        E 0 90 1d 64
        E 0 90 30 64
        E 0 90 31 64
        E 0 90 32 64
        E 0 90 33 64
        E 0 90 34 64
        E 0 90 35 64
        E 0 90 48 64
        E 0 90 49 64
        E 0 90 4a 64
        E 0 90 4b 64
        E 0 90 4c 64
        E 0 90 4d 64
        E 0 90 60 64
        E 0 90 61 64
        E 0 90 62 64
        E 0 90 63 64
        E 0 90 64 64
        E 0 90 65 64
        E 120 80 18 00
        E 0 80 19 00
        E 0 80 1a 00
        E 0 80 1b 00
        E 0 80 1c 00
        E 0 80 1d 00
        E 0 80 30 00
        E 0 80 31 00
        E 0 80 32 00
        E 0 80 33 00
        E 0 80 34 00
        E 0 80 35 00
        E 0 80 48 00
        E 0 80 49 00
        E 0 80 4a 00
        E 0 80 4b 00
        E 0 80 4c 00
        E 0 80 4d 00
        E 0 80 60 00
        E 0 80 61 00
        E 0 80 62 00
        E 0 80 63 00
        E 0 80 64 00
        E 0 80 65 00
        E 295560 b0 7b 00
        GUID {95EB2031-BC44-4B36-809B-F7595C07BF30}
        IGNTEMPO 0 120.00000000 4 4
        SRCCOLOR 1138
        VELLANE 132 123 128
        COLORMAP "C:\Program Files\REAPER\Data\color_maps\rockband_guitarbass.png"
        TEXTSTRINGFILE "C:\Program Files\REAPER\Data\Text_Strings\Text Events List.txt"
        CFGEDITVIEW 0.000000 0.103438 87 12 0 0 0
        CFGEDIT 1 1 0 0 0 1 1 1 1 1 1 0.25000000 0 0 683 728 1 0 0 2 0.12500000 0 1 0 0 0.500000 0 0 1.000000 64
        KEYSNAP 0 0 "102034050607" 0 "Major"
        EVTFILTER 0 -1 -1 -1 -1 0 1 0 0 -1.00000000 -1.00000000
      >
    >
  >
  <TRACK '{4048E3A2-B3FC-493C-BF0E-D7B7B9F9DFF3}'
    NAME "PART REAL_BASS"
    PEAKCOL 16576
    BEAT -1
    AUTOMODE 0
    VOLPAN 1.00000000000000 0.00000000000000 -1.00000000000000 -1.00000000000000 1.00000000000000
    MUTESOLO 1 0 0
    IPHASE 0
    ISBUS 0 0
    BUSCOMP 0 0
    SHOWINMIX 1 0.666700 0.500000 1 0.500000 -1 -1 -1
    FREEMODE 0
    SEL 0
    REC 0 0 0 0 0 0 0
    TRACKHEIGHT 24 0
    INQ 0 0 0 0.5000000000 100 0 0 100
    NCHAN 2
    FX 1
    TRACKID {4048E3A2-B3FC-493C-BF0E-D7B7B9F9DFF3}
    PERF 0
    MIDIOUT -1
    <MIDINOTENAMES
      0 99 "EXPERT G String"
      0 98 "EXPERT D String"
      0 97 "EXPERT A String"
      0 96 "EXPERT E String (LOW)"
      0 72 "HARD E String (LOW)"
      0 48 "MEDIUM E String (LOW)"
      0 24 "EASY E String (LOW)"
      0 75 "HARD G String"
      0 74 "HARD D String"
      0 73 "HARD A String"
      0 51 "MEDIUM G String"
      0 50 "MEDIUM D String"
      0 49 "MEDIUM A String"
      0 27 "EASY G String"
      0 26 "EASY D String"
      0 25 "EASY A String"
      0 116 "OVERDRIVE"
      0 115 "Solo Marker"
      0 120 "BRE (use all 6)"
      0 123 "BRE"
      0 122 "BRE"
      0 121 "BRE"
      0 127 "Trill"
      0 126 "Tremelo"
      0 125 "BRE"
      0 124 "BRE"
      0 108 "Left hand position"
      0 107 "Force Chord Numbering"
      0 104 "EXPERT Arpeggio Marker"
      0 103 "EXPERT Slide Marker"
      0 102 "EXPERT Force Ho/Po"
      0 101 "EXPERT E String (HIGH)"
      0 100 "EXPERT B String"
      0 80 "HARD Arpeggio Marker"
      0 79 "HARD Slide Marker"
      0 78 "Force Ho/Po"
      0 77 "HARD E String (HIGH)"
      0 76 "HARD B String"
      0 55 "MEDIUM Slide Marker"
      0 53 "MEDIUM E String (HIGH)"
      0 52 "MEDIUM B String"
      0 31 "EASY Slide Marker"
      0 29 "EASY E String (HIGH)"
      0 28 "EASY B String"
      0 17 "Hide Chord Names"
      0 15 "Eb"
      0 14 "D"
      0 13 "Db"
      0 12 "C"
      0 11 "B"
      0 10 "Bb"
      0 9 "A"
      0 8 "Ab"
      0 7 "G"
      0 6 "Gb"
      0 5 "F"
      0 4 "E"
      0 105 "EXPERT Strum Direction"
      0 81 "HARD Strum Direction"
      0 56 "MEDIUM Arpeggio Marker"
      0 32 "EASY Arpeggio Marker"
      0 21 "CHORD NAMES"
      0 18 "Flat/Sharp Swap"
      0 16 "Slash Chord"
    >
    MAINSEND 1 0
    <FXCHAIN
      SHOW 0
      LASTSEL 0
      DOCKED 0
    >
    <ITEM
      POSITION 0.00000000000000
      SNAPOFFS 0.00000000000000
      LENGTH 267.37119097116141
      LOOP 0
      ALLTAKES 0
      SEL 0
      FADEIN 1 0.000000 0.000000 1 0
      FADEOUT 1 0.000000 0.000000 1 0
      MUTE 0
      IGUID {20F1321F-9ED7-4853-AD09-40B222B05CF8}
      IID 25
      NAME "PART REAL_BASS"
      VOLPAN 1.000000 0.000000 1.000000 -1.000000
      SOFFS 0.00000000000000 0.00000000000000
      PLAYRATE 1.00000000000000 1 0.00000000000000 -1
      CHANMODE 0
      GUID {3CDDC74F-292B-448F-83EC-680F8CEF1C9B}
      <SOURCE MIDI
        HASDATA 1 480 QN
        POOLEDEVTS {D7D18710-B5E3-4E6D-A483-FFAC2BBF3B4D}
        <X 0 0
          /wNQQVJUIFJFQUxfQkFTUw==
        >
        E 3840 90 18 64
        E 0 90 19 64
        E 0 90 1a 64
        E 0 90 1b 64
        E 0 90 30 64
        E 0 90 31 64
        E 0 90 32 64
        E 0 90 33 64
        E 0 90 48 64
        E 0 90 49 64
        E 0 90 4a 64
        E 0 90 4b 64
        E 0 90 60 64
        E 0 90 61 64
        E 0 90 62 64
        E 0 90 63 64
        E 120 80 18 00
        E 0 80 19 00
        E 0 80 1a 00
        E 0 80 1b 00
        E 0 80 30 00
        E 0 80 31 00
        E 0 80 32 00
        E 0 80 33 00
        E 0 80 48 00
        E 0 80 49 00
        E 0 80 4a 00
        E 0 80 4b 00
        E 0 80 60 00
        E 0 80 61 00
        E 0 80 62 00
        E 0 80 63 00
        E 295560 b0 7b 00
        GUID {95EB2031-BC44-4B36-809B-F7595C07BF30}
        IGNTEMPO 0 120.00000000 4 4
        SRCCOLOR 1139
        VELLANE 132 123 128
        COLORMAP "C:\Program Files\REAPER\Data\color_maps\rockband_guitarbass.png"
        TEXTSTRINGFILE "C:\Program Files\REAPER\Data\Text_Strings\Text Events List.txt"
        CFGEDITVIEW 0.000000 0.179136 0 12 0 0 0
        CFGEDIT 1 1 0 0 0 1 1 1 1 1 1 0.25000000 0 0 683 728 1 0 0 2 0.00000000 0 1 0 0 0.500000 0 0 1.000000 64
        KEYSNAP 0 0 "102034050607" 0 "Major"
        EVTFILTER 0 -1 -1 -1 -1 0 1 0 0 -1.00000000 -1.00000000
      >
    >
  >
>
