<REAPER_PROJECT 0.1 "4.22/x64"
  RIPPLE 0
  GROUPOVERRIDE 0 1 0
  AUTOXFADE 1
  ENVATTACH 1
  MIXERUIFLAGS 11 48
  PEAKGAIN 1.00000000000000
  FEEDBACK 0
  PANLAW 1.00000000000000
  PROJOFFS 0.00000000000000 0
  MAXPROJLEN 0 600.00000000000000
  GRID 1151 8 1.00000000000000 8 1.00000000000000 0
  TIMEMODE 1 0 -1
  CURSOR 91.40342329827905
  ZOOM 90.52754544884765 15933 0
  VZOOMEX 3
  USE_REC_CFG 0
  RECMODE 1
  SMPTESYNC 0 30.000000 100 40 1000 300 0 0.000000 0
  LOOP 1
  LOOPGRAN 0 4.00000000000000
  RECORD_PATH "" ""
  <RECORD_CFG
    ZXZhdxgA
  >
  <APPLYFX_CFG
  >
  RENDER_FILE ""
  RENDER_PATTERN ""
  RENDER_FMT 0 2 0
  RENDER_1X 0
  RENDER_RANGE 1 0.00000000000000 0.00000000000000
  RENDER_RESAMPLE 3 0 1
  RENDER_ADDTOPROJ 0
  RENDER_STEMS 0
  RENDER_DITHER 0
  TIMELOCKMODE 0
  ITEMMIX 0
  DEFPITCHMODE 0
  TAKELANE 1
  SAMPLERATE 44100 0 0
  <RENDER_CFG
  >
  LOCK 1
  <METRONOME 6 2.000000
    VOL 0.752735 0.723913
    FREQ 800 1600 0
    BEATLEN 4
    SAMPLES "" ""
  >
  GLOBAL_AUTO -1
  TEMPO 120.00000000000000 4 4
  PLAYRATE 0.63700000000000 0 0.25000 4.00000
  SELECTION 0.00000000000000 0.00000000000000
  SELECTION2 0.00000000000000 0.00000000000000
  MASTERAUTOMODE 0
  MASTERTRACKHEIGHT 0
  MASTERPEAKCOL 16576
  MASTERMUTESOLO 0
  MASTERTRACKVIEW 1 0.666700 0.500000 0.500000 -1 -1 -1
  MASTERHWOUT 0 0 1.00000000000000 0.00000000000000 0 0 0 -1.00000000000000
  MASTER_NCH 2 2
  MASTER_VOLUME 1.05925372517729 0.00000000000000 -1.00000000000000 -1.00000000000000 1.00000000000000
  MASTER_FX 1
  MASTER_SEL 0
  <MASTERFXLIST
    SHOW 0
    LASTSEL 0
    DOCKED 0
    BYPASS 0 0
    <VST "VST: W1 Limiter (George Yohng)" "George Yohng_s W1 Limiter.dll" 0 ""
      THdGNO5e7f4CAAAAAQAAAAAAAAACAAAAAAAAAAIAAAABAAAAAAAAAA==
      AgAAAAAAAABMAAAAAQAAAAAAEAAMAACBdGhyZXNoAAD+1Hg/DAAAgQ==
      Y2VpbGluZwD+1Hg/DAAAgXJlbGVhc2UAMEAfPxQAAIFhZGFwdFJlbA==
      ZWFzZQAAAAAAAAAAAAAAgAAAEAAAAA==
    >
    FLOATPOS 24 24 481 152
    FXID {69D45D23-FE06-4141-B0BB-1A6D9443AFA8}
    WAK 0
  >
  <MASTERPLAYSPEEDENV
    ACT 0
    VIS 0 1 1.000000
    LANEHEIGHT 0 0
    ARM 0
    DEFSHAPE 0 -1 -1
  >
  <TEMPOENVEX
    ACT 1
    VIS 1 0 1.000000
    LANEHEIGHT 0 0
    ARM 0
    DEFSHAPE 1 -1 -1
    PT 0.000000000000 122.0000000000 1
    PT 3.934426229508 147.7380815098 1
    PT 7.209904262043 140.1201279329 1
    PT 8.922720283129 136.6664628078 1
    PT 10.650189880244 132.5105924091 1
    PT 12.461365844646 133.0218877503 1
    PT 14.265580204094 133.0218877503 1
    PT 16.069794563541 126.0207357634 1
    PT 17.974243054070 161.5369170069 1
    PT 19.459971545408 161.0113088171 1
    PT 20.950550075346 164.2172862050 1
    PT 22.412028373680 161.3613334015 1
    PT 23.899373544551 162.2430893217 1
    PT 25.378635317755 159.2837196667 1
    PT 26.885380643028 164.9471408104 1
    PT 28.340392223228 160.3157956040 1
    PT 29.837437471301 162.4205981722 1
    PT 31.315082564970 162.4205981722 1
    PT 32.792727658640 162.2430893217 1
    PT 34.271989431843 164.3991436648 1
    PT 35.731851050644 162.5984958701 1
    PT 37.207879464780 161.5369170069 1
    PT 38.693607956118 162.2430893217 1
    PT 40.172869729321 158.6030200100 1
    PT 41.686081772729 163.1345348674 1
    PT 43.157260148265 164.3991436648 1
    PT 44.617121767065 162.4205981722 1
    PT 46.094766860735 163.3140008024 1
    PT 47.564328556737 162.4205981722 1
    PT 49.041973650407 162.4205981722 1
    PT 50.519618744076 166.0541686011 1
    PT 51.964930247075 162.7767836945 1
    PT 53.439341981678 161.3613334015 1
    PT 54.926687152549 163.4938620367 1
    PT 56.394632169017 162.2430893217 1
    PT 57.873893942220 164.2172862050 1
    PT 59.335372240555 161.1861310851 1
    PT 60.824334090959 162.7767836945 1
    PT 62.298745825562 166.9881065572 1
    PT 63.735973930893 159.4548085170 1
    PT 65.241102576633 161.0113088171 1
    PT 66.731681106571 162.5984958701 1
    PT 68.207709520707 165.3145063801 1
    PT 69.659487741840 162.2430893217 1
    PT 71.138749515043 165.1306192763 1
    PT 72.592144415710 160.6627994906 1
    PT 74.085956304715 167.3646299091 1
    PT 75.519951050979 160.3157956041 1
    PT 77.016996299051 162.0659680451 1
    PT 78.497874751788 163.3140008024 1
    PT 79.967436447790 163.1345348674 1
    PT 81.438614823326 160.6627994906 1
    PT 82.932426712331 164.9471408104 1
    PT 84.387438292531 160.4891099777 1
    PT 85.882866861070 168.8878574850 1
    PT 87.303928171065 159.2837196667 1
    PT 88.810673496339 161.5369170069 1
    PT 90.296401987676 162.5984958700 1
    PT 91.772430401813 164.9471408104 1
    PT 93.227441982012 160.8368653623 1
    PT 94.719637191484 162.2430893217 1
    PT 96.198898964688 161.0113088171 1
    PT 97.689477494626 168.8878574850 1
    PT 99.110538804621 159.2837196667 1
    PT 100.617284129895 160.3157956041 1
    PT 102.114329377967 164.3991436648 1
    PT 103.574190996768 166.4264873647 1
    PT 105.016269140699 161.8892330745 1
    PT 106.498764272970 162.2430893217 1
    PT 107.978026046173 162.5984958701 1
    PT 109.454054460309 165.4988034887 1
    PT 110.904216001908 161.7128831474 1
    PT 112.388327813712 163.6741198780 1
    PT 113.854656150647 164.0358306402 1
    PT 115.317751128515 162.4205981722 1
    PT 116.795396222185 161.5369170069 1
    PT 118.281124713522 165.3145063801 1
    PT 119.732902934655 162.0659680451 1
    PT 121.213781387392 166.8004794712 1
    PT 122.652626172256 162.9554629301 1
    PT 124.125421227326 163.4938620367 1
    PT 125.593366243794 164.9471408104 1
    PT 127.048377823994 165.3145063801 1
    PT 128.500156045127 161.7821956087 1
    PT 129.983632017851 166.7784329237 1
    PT 131.422667004525 161.6150139478 1
    PT 132.907677549879 169.4858750167 1
    PT 134.323724757214 161.2821302939 1
    PT 135.811800339813 164.5009963397 1
    PT 137.270758068582 168.9373770393 1
    PT 138.691402831785 164.8473142267 1
    PT 140.147295523308 163.1301547035 1
    PT 141.618513401058 168.2115451293 1
    PT 143.045288238751 163.4707187008 1
    PT 144.513441079256 169.3026470437 1
    PT 145.931020805214 160.7853680856 1
    PT 147.423693943681 163.3002591401 1
    PT 148.893379302808 164.6739732023 1
    PT 150.350804512955 163.9842392831 1
    PT 151.814359797592 164.1561305193 1
    PT 153.276382563606 164.1561305193 1
    PT 154.738405329620 160.6204600158 1
    PT 156.232610986710 167.3129791831 1
    PT 157.667048417516 160.7853680856 1
    PT 159.159721555984 161.2821302939 1
    PT 160.647797138583 165.5443430395 1
    PT 162.097559755616 163.3002591401 1
    PT 163.567245114744 164.5009963397 1
    PT 165.026202843513 163.4707187008 1
    PT 166.494355684018 161.2821302939 1
    PT 167.982431266617 167.3129791831 1
    PT 169.416868697423 161.2821302939 1
    PT 170.904944280023 164.1561305193 1
    PT 172.366967046037 166.0709952443 1
    PT 173.812132107202 164.8473142267 1
    PT 175.268024798726 164.9624720492 1
    PT 176.722901153442 164.9196090609 1
    PT 178.178155633892 165.1830589156 1
    PT 179.631089134310 165.1830589156 1
    PT 181.084022634728 163.2274583760 1
    PT 182.554363485390 162.2032860881 1
    PT 184.033988256183 165.7124917968 1
    PT 185.482279796535 166.5130352354 1
    PT 186.923608396790 164.6569982185 1
    PT 188.381183857273 164.7881990138 1
    PT 189.837598827739 163.6148653183 1
    PT 191.304458208353 169.5157293134 1
    PT 192.720256028249 163.3563900177 1
    PT 194.189436388895 165.8453807236 1
    PT 195.636567439231 163.3563900177 1
    PT 197.105747799877 162.2032860881 1
    PT 198.585372570670 167.4568338157 1
    PT 200.018577740810 167.1860871159 1
    PT 201.454103890983 164.1342775892 1
    PT 202.916321311531 164.1342775892 1
    PT 204.378538732080 163.2274583760 1
    PT 205.848879582742 165.3150997301 1
    PT 207.300652593143 163.7444099465 1
    PT 208.766351483740 161.0663471670 1
    PT 210.256420664680 165.1830589156 1
    PT 211.709354165098 161.6960045054 1
    PT 213.193620895956 160.9410037061 1
    PT 214.684850566912 165.4473518099 1
    PT 216.135463087297 160.9410037061 1
    PT 217.626692758253 161.8225272006 1
    PT 219.109798999094 163.4855255039 1
    PT 220.577818869724 161.9492480520 1
    PT 222.059764620549 162.8418817027 1
    PT 223.533586941261 163.5397495824 1
    PT 225.001120067689 161.3155645495 1
    PT 226.488887231820 165.2237946013 1
    PT 227.941462513601 163.4486629237 1
    PT 229.409813466781 163.3136929296 1
    PT 230.879377933145 166.8969469517 1
    PT 232.317391056714 162.6421728106 1
    PT 233.793023089000 161.1840930218 1
    PT 235.282003766315 163.5838561933 1
    PT 236.749141206311 162.1089197850 1
    PT 238.229627291335 165.9168474310 1
    PT 239.676135007194 161.8436024040 1
    PT 241.159048118587 161.8436024040 1
    PT 242.641961229980 165.2995766803 1
    PT 244.093870574335 160.1565412611 1
    PT 245.592404434458 163.9667682538 1
    PT 247.056115664215 167.0130006204 1
    PT 248.493129544023 161.2808851545 1
    PT 249.981216615036 167.8263756234 1
    PT 251.411265968771 167.8263756234 1
  >
  <PROJBAY
  >
  <TRACK '{4D889F49-FE1F-4D1D-9FB8-BFD5BA06901A}'
    NAME "SONG AUDIO"
    PEAKCOL 16576
    BEAT -1
    AUTOMODE 0
    VOLPAN 1.00000000000000 0.00000000000000 -1.00000000000000 -1.00000000000000 1.00000000000000
    MUTESOLO 0 0 0
    IPHASE 0
    ISBUS 0 0
    BUSCOMP 0 0
    SHOWINMIX 1 0.666700 0.500000 1 0.500000 -1 -1 -1
    FREEMODE 0
    SEL 0
    REC 0 0 0 0 0 0 0
    TRACKHEIGHT 345 0
    INQ 0 0 0 0.5000000000 100 0 0 100
    NCHAN 2
    FX 1
    TRACKID {4D889F49-FE1F-4D1D-9FB8-BFD5BA06901A}
    PERF 0
    MIDIOUT -1
    MAINSEND 1 0
    <FXCHAIN
      SHOW 0
      LASTSEL 0
      DOCKED 0
      BYPASS 0 0
      <VST "VST: W1 Limiter (George Yohng)" "George Yohng_s W1 Limiter.dll" 0 ""
        THdGNO5e7f4CAAAAAQAAAAAAAAACAAAAAAAAAAIAAAABAAAAAAAAAA==
        AgAAAAAAAABMAAAAAQAAAAAAEAAMAACBdGhyZXNoAAD+1Hg/DAAAgQ==
        Y2VpbGluZwD+1Hg/DAAAgXJlbGVhc2UAMEAfPxQAAIFhZGFwdFJlbA==
        ZWFzZQAAAAAAAAAAAAAAgAAAEAAAAA==
      >
      FLOATPOS 24 24 481 152
      FXID {D32BE511-3942-4A83-B6D7-DF2FE763A2B4}
      WAK 0
    >
    <ITEM
      POSITION 0.00000000000000
      SNAPOFFS 0.00000000000000
      LENGTH 0.28216019417451
      LOOP 0
      ALLTAKES 0
      SEL 0
      FADEIN 1 0.000000 0.000000 1 0
      FADEOUT 1 0.000000 0.000000 1 0
      MUTE 0
      IGUID {D829F3DA-0BE5-4277-954B-C2D10DB114A6}
      IID 1
      NAME "stick.wav"
      VOLPAN 0.271028 0.000000 1.000000 -1.000000
      SOFFS 0.00000000000000
      PLAYRATE 1.00000000000052 1 0.00000000000000 -1
      CHANMODE 0
      GUID {3A242298-C3E5-4DC8-9A3C-2EE82D8D2134}
      <SOURCE WAVE
        FILE "C:\Users\wejaa\AppData\Roaming\REAPER\ProjectTemplates\hihat.wav"
      >
    >
    <ITEM
      POSITION 0.98360655737705
      SNAPOFFS 0.00000000000000
      LENGTH 0.28216019417451
      LOOP 0
      ALLTAKES 0
      SEL 0
      FADEIN 1 0.000000 0.000000 1 0
      FADEOUT 1 0.000000 0.000000 1 0
      MUTE 0
      IGUID {5AEC5162-2B2C-4FF2-BB3B-E29ADC0916FE}
      IID 2
      NAME "stick.wav"
      VOLPAN 0.271028 0.000000 1.000000 -1.000000
      SOFFS 0.00000000000000
      PLAYRATE 1.00000000000052 1 0.00000000000000 -1
      CHANMODE 0
      GUID {16E29BEE-96F5-48F0-9FB0-3F04A1AF90D5}
      <SOURCE WAVE
        FILE "C:\Users\wejaa\AppData\Roaming\REAPER\ProjectTemplates\hihat.wav"
      >
    >
    <ITEM
      POSITION 1.96721311475410
      SNAPOFFS 0.00000000000000
      LENGTH 0.28216019417451
      LOOP 0
      ALLTAKES 0
      SEL 0
      FADEIN 1 0.000000 0.000000 1 0
      FADEOUT 1 0.000000 0.000000 1 0
      MUTE 0
      IGUID {1FA8F8C4-F448-4E02-B340-4A6644F6D8AB}
      IID 3
      NAME "stick.wav"
      VOLPAN 0.271028 0.000000 1.000000 -1.000000
      SOFFS 0.00000000000000
      PLAYRATE 1.00000000000052 1 0.00000000000000 -1
      CHANMODE 0
      GUID {8D594F7C-8B39-4D29-A27D-55F46BC65189}
      <SOURCE WAVE
        FILE "C:\Users\wejaa\AppData\Roaming\REAPER\ProjectTemplates\hihat.wav"
      >
    >
    <ITEM
      POSITION 2.45901639344262
      SNAPOFFS 0.00000000000000
      LENGTH 0.28216019417451
      LOOP 0
      ALLTAKES 0
      SEL 0
      FADEIN 1 0.000000 0.000000 1 0
      FADEOUT 1 0.000000 0.000000 1 0
      MUTE 0
      IGUID {1D23FF37-8166-4C8E-915E-19EFDB52B4D8}
      IID 4
      NAME "stick.wav"
      VOLPAN 0.271028 0.000000 1.000000 -1.000000
      SOFFS 0.00000000000000
      PLAYRATE 1.00000000000052 1 0.00000000000000 -1
      CHANMODE 0
      GUID {1D91F480-CA0B-4E03-8204-02893D660CDF}
      <SOURCE WAVE
        FILE "C:\Users\wejaa\AppData\Roaming\REAPER\ProjectTemplates\hihat.wav"
      >
    >
    <ITEM
      POSITION 2.95081967213115
      SNAPOFFS 0.00000000000000
      LENGTH 0.28216019417451
      LOOP 0
      ALLTAKES 0
      SEL 0
      FADEIN 1 0.000000 0.000000 1 0
      FADEOUT 1 0.000000 0.000000 1 0
      MUTE 0
      IGUID {A6BA2F37-4089-4BF2-A73E-A602F32B7614}
      IID 5
      NAME "stick.wav"
      VOLPAN 0.271028 0.000000 1.000000 -1.000000
      SOFFS 0.00000000000000
      PLAYRATE 1.00000000000050 1 0.00000000000000 -1
      CHANMODE 0
      GUID {ABD24FE2-95CA-428E-ADD9-9A13921FCC29}
      <SOURCE WAVE
        FILE "C:\Users\wejaa\AppData\Roaming\REAPER\ProjectTemplates\hihat.wav"
      >
    >
    <ITEM
      POSITION 3.44262295081967
      SNAPOFFS 0.00000000000000
      LENGTH 0.28216019417451
      LOOP 0
      ALLTAKES 0
      SEL 0
      FADEIN 1 0.000000 0.000000 1 0
      FADEOUT 1 0.000000 0.000000 1 0
      MUTE 0
      IGUID {49CCEEAD-12F1-472E-8B9C-48A90BF6E20A}
      IID 6
      NAME "stick.wav"
      VOLPAN 0.271028 0.000000 1.000000 -1.000000
      SOFFS 0.00000000000000
      PLAYRATE 1.00000000000052 1 0.00000000000000 -1
      CHANMODE 0
      GUID {3DFEA1C1-AD72-4DF8-A1BD-3977672F4D80}
      <SOURCE WAVE
        FILE "C:\Users\wejaa\AppData\Roaming\REAPER\ProjectTemplates\hihat.wav"
      >
    >
    <ITEM
      POSITION 3.93442622950800
      SNAPOFFS 0.00000000000000
      LENGTH 249.02182284469833
      LOOP 0
      ALLTAKES 0
      SEL 0
      FADEIN 1 0.000000 0.000000 1 0
      FADEOUT 1 0.000000 0.000000 1 0
      MUTE 0
      IGUID {9617558C-D9F2-4C8A-A10C-2D9D85B76ACE}
      IID 167
      NAME "01 Teuvo, Maanteiden Kuningas.wav"
      VOLPAN 1.000000 0.000000 1.000000 -1.000000
      SOFFS 0.47151048863500
      PLAYRATE 1.00000000000000 1 0.00000000000000 -1
      CHANMODE 0
      GUID {BF101D8F-C67B-418E-B11A-96850EFEFAC0}
      <SOURCE WAVE
        FILE "C:\Users\wejaa\__CustomOwnSongs\teuvo\NewVersion\V5\01 Teuvo, Maanteiden Kuningas.wav"
      >
    >
  >
  <TRACK '{BDCFF37A-71AC-4D17-AF26-EA560B308842}'
    NAME "COUNTIN"
    PEAKCOL 16576
    BEAT -1
    AUTOMODE 0
    VOLPAN 1.00000000000000 -0.16000000000000 -1.00000000000000 -1.00000000000000 1.00000000000000
    MUTESOLO 1 0 0
    IPHASE 0
    ISBUS 0 0
    BUSCOMP 0 0
    SHOWINMIX 1 0.666700 0.500000 1 0.500000 -1 -1 -1
    FREEMODE 0
    SEL 0
    REC 0 0 0 0 0 0 0
    TRACKHEIGHT 0 0
    INQ 0 0 0 0.5000000000 100 0 0 100
    NCHAN 2
    FX 1
    TRACKID {BDCFF37A-71AC-4D17-AF26-EA560B308842}
    PERF 0
    MIDIOUT -1
    MAINSEND 1 0
  >
  <TRACK '{8F33A645-3DF2-48FA-99BC-10992A4F8042}'
    NAME "PART DRUMS"
    PEAKCOL 16842751
    BEAT -1
    AUTOMODE 0
    VOLPAN 1.00000000000000 0.00000000000000 -1.00000000000000 -1.00000000000000 1.00000000000000
    MUTESOLO 0 0 0
    IPHASE 0
    ISBUS 0 0
    BUSCOMP 1 0
    SHOWINMIX 1 0.666700 0.500000 1 0.500000 -1 -1 -1
    FREEMODE 0
    SEL 0
    REC 0 4096 1 7 0 0 0
    TRACKHEIGHT 0 0
    INQ 0 0 0 0.5000000000 100 0 0 100
    NCHAN 2
    FX 1
    TRACKID {8F33A645-3DF2-48FA-99BC-10992A4F8042}
    PERF 0
    MIDIOUT -1
    <MIDINOTENAMES
      0 84 "HARD Kick"
      0 96 "EXPERT Kick"
      0 72 "MEDIUM Kick"
      0 60 "EASY Kick"
      0 97 "EXPERT Red"
      0 98 "EXPERT Yellow"
      0 99 "EXPERT Blue"
      0 100 "EXPERT Green"
      0 85 "HARD Red"
      0 86 "HARD Yellow"
      0 87 "HARD Blue"
      0 88 "HARD Green"
      0 73 "MEDIUM Red"
      0 74 "MEDIUM Yellow"
      0 75 "MEDIUM Blue"
      0 76 "MEDIUM Green"
      0 61 "EASY Red"
      0 62 "EASY Yellow"
      0 63 "EASY Blue"
      0 64 "EASY Green"
      0 101 ""
      0 92 "----"
      0 80 "----"
      0 68 "----"
      0 120 "DRUM FILL (use all 5)"
      0 121 "DRUM FILL"
      0 122 "DRUM FILL"
      0 123 "DRUM FILL"
      0 124 "DRUM FILL"
      0 114 "----"
      0 116 "OVERDRIVE"
      0 118 "----"
      0 24 "KICK RF"
      0 25 "HI-HAT OPEN"
      0 26 "SNARE HARD LH"
      0 27 "SNARE HARD RH"
      0 30 "HI-HAT LH"
      0 31 "HI-HAT RH"
      0 32 "PERCUSSION RH"
      0 34 "CRASH1 HARD LH"
      0 35 "CRASH1 SOFT LH"
      0 36 "CRASH1 HARD RH"
      0 37 "CRASH1 SOFT RH"
      0 38 "CRASH2 HARD RH"
      0 39 "CRASH2 SOFT RH"
      0 40 "CRASH1 CHOKE"
      0 41 "CRASH2 CHOKE"
      0 42 "RIDE CYM RH"
      0 46 "TOM1 LH"
      0 47 "TOM1 RH"
      0 48 "TOM2 LH"
      0 49 "TOM2 RH"
      0 50 "FLOOR TOM LH"
      0 51 "FLOOR TOM RH"
      0 52 "--DRUM ANIMATION--"
      0 56 "----"
      0 103 "Solo Marker"
      0 102 "----"
      0 110 "PRO Yellow Tom"
      0 111 "PRO Blue Tom"
      0 112 "PRO Green Tom"
      0 108 "----"
      0 127 "Roll Marker 2-Lane / Cym"
      0 126 "Roll Marker 1-Lane"
      0 125 "----"
      0 28 "SNARE RIM LH"
      0 29 "SNARE RIM RH"
      0 43 "RIDE CYM LH"
      0 44 "CRASH2 HARD LH"
      0 45 "CRASH2 SOFT LH"
      0 33 "PERCUSSION LH"
    >
    MAINSEND 1 0
    <FXCHAIN
      WNDRECT 1318 958 1174 559
      SHOW 0
      LASTSEL 1
      DOCKED 0
      BYPASS 1 0
      <VST "VSTi: ReaSynth (Cockos)" "reasynth.dll" 0 ""
        eXNlcu9e7f4AAAAAAgAAAAEAAAAAAAAAAgAAAAAAAAA4AAAAAAAAAA==
        AAAAAO++rd4N8K3eAAAAAAAAAAAAAAAAAAAAADm0SD59y9s+tbSxOQ==
        AAAAALbz/T5VpCs6AAAAAAAAAAAAAAAAAAA=
      >
      FLOATPOS 0 0 0 0
      FXID {58F55556-9407-4062-A048-6AFCC0B53535}
      WAK 0
      BYPASS 0 0
      <VST "VSTi: RBN Preview (RBN)" "rbprev_vst64_beta.dll" 0 ""
        dnBicu5e7f4AAAAAAgAAAAEAAAAAAAAAAgAAAAAAAAAEAAAAAQAAAA==
        AAAAAAMBqgAAAAAAAAA=
      >
      FLOATPOS 32 32 659 497
      FXID {D7126437-AB1E-4109-A0FA-F2D5D0AC68DC}
      WAK 0
    >
    <ITEM
      POSITION 0.00000000000000
      SNAPOFFS 0.00000000000000
      LENGTH 252.98525897370561
      LOOP 0
      ALLTAKES 0
      COLOR 19150555
      SEL 0
      FADEIN 1 0.000000 0.000000 1 0
      FADEOUT 1 0.000000 0.000000 1 0
      MUTE 0
      IGUID {9FF11F36-E94F-4396-9C0E-8449C916EC21}
      IID 7
      NAME "PART DRUMS"
      VOLPAN 1.000000 0.000000 1.000000 -1.000000
      SOFFS 0.00000000000000 0.00000000000000
      PLAYRATE 1.00000000000000 1 0.00000000000000 -65536
      CHANMODE 0
      GUID {70A79ADF-E70C-430A-913F-E16D0CC85517}
      <SOURCE MIDI
        HASDATA 1 480 QN
        POOLEDEVTS {8AD37273-800B-4AD7-9C7B-5E5B90959A7B}
        <X 0 0
          /wNQQVJUIERSVU1T
        >
        <X 300 0
          /wFbbWl4IDEgZHJ1bXMwXQ==
        >
        <X 0 0
          /wFbbWl4IDAgZHJ1bXMwXQ==
        >
        <X 60 0
          /wFbbWl4IDIgZHJ1bXMwXQ==
        >
        <X 60 0
          /wFbbWl4IDMgZHJ1bXMwXQ==
        >
        <X 3420 0
          /wFbaWRsZV0=
        >
        <X 7680 0
          /wFbbWVsbG93XQ==
        >
        E 1440 90 1b 60
        E 0 90 3d 60
        E 0 90 49 60
        E 0 90 55 60
        E 0 90 61 60
        E 40 80 1b 00
        E 0 80 3d 00
        E 0 80 49 00
        E 0 80 55 00
        E 0 80 61 00
        E 80 90 1a 60
        E 0 90 61 60
        E 40 80 1a 00
        E 0 80 61 00
        E 80 90 1b 60
        E 0 90 55 60
        E 0 90 61 60
        E 40 80 1b 00
        E 0 80 55 00
        E 0 80 61 00
        E 80 90 1a 60
        E 0 90 61 60
        E 40 80 1a 00
        E 0 80 61 00
        E 80 90 18 60
        E 0 90 26 60
        E 0 90 40 60
        E 0 90 48 60
        E 0 90 4c 60
        E 0 90 54 60
        E 0 90 58 60
        E 0 90 60 60
        E 0 90 64 60
        E 40 80 18 00
        E 0 80 26 00
        E 0 80 40 00
        E 0 80 48 00
        E 0 80 4c 00
        E 0 80 54 00
        E 0 80 58 00
        E 0 80 60 00
        E 0 80 64 00
        E 240 90 1f 60
        E 0 90 56 60
        E 0 90 62 60
        E 40 80 1f 00
        E 0 80 56 00
        E 0 80 62 00
        E 240 90 1a 60
        E 0 90 1f 60
        E 0 90 3d 60
        E 0 90 3e 60
        E 0 90 49 60
        E 0 90 4a 60
        E 0 90 55 60
        E 0 90 56 60
        E 0 90 61 60
        E 0 90 62 60
        E 40 80 1a 00
        E 0 80 1f 00
        E 0 80 3d 00
        E 0 80 3e 00
        E 0 80 49 00
        E 0 80 4a 00
        E 0 80 55 00
        E 0 80 56 00
        E 0 80 61 00
        E 0 80 62 00
        E 240 90 1f 60
        E 0 90 56 60
        E 0 90 62 60
        E 40 80 1f 00
        E 0 80 56 00
        E 0 80 62 00
        E 240 90 1a 60
        E 0 90 1f 60
        E 0 90 3d 60
        E 0 90 3e 60
        E 0 90 49 60
        E 0 90 4a 60
        E 0 90 55 60
        E 0 90 56 60
        E 0 90 60 60
        E 0 90 62 60
        E 40 80 1a 00
        E 0 80 1f 00
        E 0 80 3d 00
        E 0 80 3e 00
        E 0 80 49 00
        E 0 80 4a 00
        E 0 80 55 00
        E 0 80 56 00
        E 0 80 60 00
        E 0 80 62 00
        E 240 90 1f 60
        E 0 90 56 60
        E 0 90 62 60
        E 40 80 1f 00
        E 0 80 56 00
        E 0 80 62 00
        E 240 90 1a 60
        E 0 90 1f 60
        E 0 90 3d 60
        E 0 90 3e 60
        E 0 90 49 60
        E 0 90 4a 60
        E 0 90 55 60
        E 0 90 56 60
        E 0 90 61 60
        E 0 90 62 60
        E 40 80 1a 00
        E 0 80 1f 00
        E 0 80 3d 00
        E 0 80 3e 00
        E 0 80 49 00
        E 0 80 4a 00
        E 0 80 55 00
        E 0 80 56 00
        E 0 80 61 00
        E 0 80 62 00
        E 240 90 18 60
        E 0 90 1f 60
        E 0 90 60 60
        E 0 90 62 60
        E 40 80 18 00
        E 0 80 1f 00
        E 0 80 60 00
        E 0 80 62 00
        E 160 90 18 60
        E 0 90 1f 60
        E 0 90 3e 60
        E 0 90 48 60
        E 0 90 4a 60
        E 0 90 54 60
        E 0 90 56 60
        E 0 90 60 60
        E 0 90 62 60
        E 40 80 18 00
        E 0 80 1f 00
        E 0 80 3e 00
        E 0 80 48 00
        E 0 80 4a 00
        E 0 80 54 00
        E 0 80 56 00
        E 0 80 60 00
        E 0 80 62 00
        E 240 90 1f 60
        E 0 90 56 60
        E 0 90 62 60
        E 40 80 1f 00
        E 0 80 56 00
        E 0 80 62 00
        E 240 90 1a 60
        E 0 90 1f 60
        E 0 90 3d 60
        E 0 90 3e 60
        E 0 90 49 60
        E 0 90 4a 60
        E 0 90 55 60
        E 0 90 56 60
        E 0 90 61 60
        E 0 90 62 60
        E 40 80 1a 00
        E 0 80 1f 00
        E 0 80 3d 00
        E 0 80 3e 00
        E 0 80 49 00
        E 0 80 4a 00
        E 0 80 55 00
        E 0 80 56 00
        E 0 80 61 00
        E 0 80 62 00
        E 240 90 1f 60
        E 0 90 56 60
        E 0 90 62 60
        E 40 80 1f 00
        E 0 80 56 00
        E 0 80 62 00
        E 200 90 18 60
        E 0 90 1f 60
        E 0 90 3e 60
        E 0 90 48 60
        E 0 90 4a 60
        E 0 90 54 60
        E 0 90 56 60
        E 0 90 60 60
        E 0 90 62 60
        E 40 80 18 00
        E 0 80 1f 00
        E 0 80 3e 00
        E 0 80 48 00
        E 0 80 4a 00
        E 0 80 54 00
        E 0 80 56 00
        E 0 80 60 00
        E 0 80 62 00
        E 240 90 1a 60
        E 0 90 55 60
        E 0 90 61 60
        E 40 80 1a 00
        E 0 80 55 00
        E 0 80 61 00
        E 80 90 1b 60
        E 0 90 61 60
        E 40 80 1b 00
        E 0 80 61 00
        E 80 90 1a 60
        E 0 90 3d 60
        E 0 90 49 60
        E 0 90 55 60
        E 0 90 61 60
        E 40 80 1a 00
        E 0 80 3d 00
        E 0 80 49 00
        E 0 80 55 00
        E 0 80 61 00
        E 80 90 1b 60
        E 0 90 61 60
        E 40 80 1b 00
        E 0 80 61 00
        E 80 90 1a 60
        E 0 90 55 60
        E 0 90 61 60
        E 40 80 1a 00
        E 0 80 55 00
        E 0 80 61 00
        E 80 90 1b 60
        E 0 90 61 60
        E 40 80 1b 00
        E 0 80 61 00
        E 80 90 18 60
        E 0 90 2c 60
        E 0 90 40 60
        E 0 90 48 60
        E 0 90 4c 60
        E 0 90 54 60
        E 0 90 58 60
        E 0 90 60 60
        E 0 90 64 60
        E 40 80 18 00
        E 0 80 2c 00
        E 0 80 40 00
        E 0 80 48 00
        E 0 80 4c 00
        E 0 80 54 00
        E 0 80 58 00
        E 0 80 60 00
        E 0 80 64 00
        E 240 90 1f 60
        E 0 90 56 60
        E 0 90 62 60
        E 40 80 1f 00
        E 0 80 56 00
        E 0 80 62 00
        E 240 90 1a 60
        E 0 90 1f 60
        E 0 90 3d 60
        E 0 90 3e 60
        E 0 90 49 60
        E 0 90 4a 60
        E 0 90 55 60
        E 0 90 56 60
        E 0 90 61 60
        E 0 90 62 60
        E 40 80 1a 00
        E 0 80 1f 00
        E 0 80 3d 00
        E 0 80 3e 00
        E 0 80 49 00
        E 0 80 4a 00
        E 0 80 55 00
        E 0 80 56 00
        E 0 80 61 00
        E 0 80 62 00
        E 200 90 1f 60
        E 0 90 56 60
        E 0 90 62 60
        E 40 80 1f 00
        E 0 80 56 00
        E 0 80 62 00
        E 200 90 18 60
        E 0 90 1f 60
        E 0 90 3e 60
        E 0 90 48 60
        E 0 90 4a 60
        E 0 90 54 60
        E 0 90 56 60
        E 0 90 60 60
        E 0 90 62 60
        E 40 80 18 00
        E 0 80 1f 00
        E 0 80 3e 00
        E 0 80 48 00
        E 0 80 4a 00
        E 0 80 54 00
        E 0 80 56 00
        E 0 80 60 00
        E 0 80 62 00
        E 200 90 1f 60
        E 0 90 56 60
        E 0 90 62 60
        E 40 80 1f 00
        E 0 80 56 00
        E 0 80 62 00
        E 200 90 1a 60
        E 0 90 1f 60
        E 0 90 3d 60
        E 0 90 3e 60
        E 0 90 49 60
        E 0 90 4a 60
        E 0 90 55 60
        E 0 90 56 60
        E 0 90 61 60
        E 0 90 62 60
        E 40 80 1a 00
        E 0 80 1f 00
        E 0 80 3d 00
        E 0 80 3e 00
        E 0 80 49 00
        E 0 80 4a 00
        E 0 80 55 00
        E 0 80 56 00
        E 0 80 61 00
        E 0 80 62 00
        E 280 90 1f 60
        E 0 90 56 60
        E 0 90 62 60
        E 40 80 1f 00
        E 0 80 56 00
        E 0 80 62 00
        E 280 90 18 60
        E 0 90 1f 60
        E 0 90 54 60
        E 0 90 56 60
        E 0 90 60 60
        E 0 90 62 60
        E 40 80 18 00
        E 0 80 1f 00
        E 0 80 54 00
        E 0 80 56 00
        E 0 80 60 00
        E 0 80 62 00
        E 280 90 1f 60
        E 0 90 3e 60
        E 0 90 4a 60
        E 0 90 56 60
        E 0 90 62 60
        E 40 80 1f 00
        E 0 80 3e 00
        E 0 80 4a 00
        E 0 80 56 00
        E 0 80 62 00
        E 280 90 1a 60
        E 0 90 1f 60
        E 0 90 55 60
        E 0 90 56 60
        E 0 90 61 60
        E 0 90 62 60
        E 40 80 1a 00
        E 0 80 1f 00
        E 0 80 55 00
        E 0 80 56 00
        E 0 80 61 00
        E 0 80 62 00
        E 280 90 18 60
        E 0 90 1f 60
        E 0 90 54 60
        E 0 90 56 60
        E 0 90 60 60
        E 0 90 62 60
        E 40 80 18 00
        E 0 80 1f 00
        E 0 80 54 00
        E 0 80 56 00
        E 0 80 60 00
        E 0 80 62 00
        E 280 90 18 60
        E 0 90 1f 60
        E 0 90 3e 60
        E 0 90 48 60
        E 0 90 4a 60
        E 0 90 54 60
        E 0 90 56 60
        E 0 90 60 60
        E 0 90 62 60
        E 40 80 18 00
        E 0 80 1f 00
        E 0 80 3e 00
        E 0 80 48 00
        E 0 80 4a 00
        E 0 80 54 00
        E 0 80 56 00
        E 0 80 60 00
        E 0 80 62 00
        E 280 90 1f 60
        E 0 90 56 60
        E 0 90 62 60
        E 40 80 1f 00
        E 0 80 56 00
        E 0 80 62 00
        E 280 90 1a 60
        E 0 90 55 60
        E 0 90 61 60
        E 40 80 1a 00
        E 0 80 55 00
        E 0 80 61 00
        E 120 90 1b 60
        E 0 90 61 60
        E 40 80 1b 00
        E 0 80 61 00
        E 120 90 1a 60
        E 0 90 3d 60
        E 0 90 49 60
        E 0 90 55 60
        E 0 90 61 60
        E 40 80 1a 00
        E 0 80 3d 00
        E 0 80 49 00
        E 0 80 55 00
        E 0 80 61 00
        E 120 90 1b 60
        E 0 90 61 60
        E 40 80 1b 00
        E 0 80 61 00
        E 120 90 18 60
        E 0 90 2c 60
        E 0 90 54 60
        E 0 90 58 60
        E 0 90 60 60
        E 0 90 64 60
        E 40 80 18 00
        E 0 80 2c 00
        E 0 80 54 00
        E 0 80 58 00
        E 0 80 60 00
        E 0 80 64 00
        E 280 90 1f 60
        E 0 90 56 60
        E 0 90 62 60
        E 40 80 1f 00
        E 0 80 56 00
        E 0 80 62 00
        E 280 90 1a 60
        E 0 90 1f 60
        E 0 90 3d 60
        E 0 90 3e 60
        E 0 90 49 60
        E 0 90 4a 60
        E 0 90 55 60
        E 0 90 56 60
        E 0 90 61 60
        E 0 90 62 60
        E 40 80 1a 00
        E 0 80 1f 00
        E 0 80 3d 00
        E 0 80 3e 00
        E 0 80 49 00
        E 0 80 4a 00
        E 0 80 55 00
        E 0 80 56 00
        E 0 80 61 00
        E 0 80 62 00
        E 280 90 1f 60
        E 0 90 56 60
        E 0 90 62 60
        E 40 80 1f 00
        E 0 80 56 00
        E 0 80 62 00
        E 280 90 18 60
        E 0 90 1f 60
        E 0 90 54 60
        E 0 90 56 60
        E 0 90 60 60
        E 0 90 62 60
        E 40 80 18 00
        E 0 80 1f 00
        E 0 80 54 00
        E 0 80 56 00
        E 0 80 60 00
        E 0 80 62 00
        E 280 90 1f 60
        E 0 90 3e 60
        E 0 90 4a 60
        E 0 90 56 60
        E 0 90 62 60
        E 40 80 1f 00
        E 0 80 3e 00
        E 0 80 4a 00
        E 0 80 56 00
        E 0 80 62 00
        E 280 90 1a 60
        E 0 90 1f 60
        E 0 90 55 60
        E 0 90 56 60
        E 0 90 61 60
        E 0 90 62 60
        E 40 80 1a 00
        E 0 80 1f 00
        E 0 80 55 00
        E 0 80 56 00
        E 0 80 61 00
        E 0 80 62 00
        E 280 90 1f 60
        E 0 90 56 60
        E 0 90 62 60
        E 40 80 1f 00
        E 0 80 56 00
        E 0 80 62 00
        E 280 90 18 60
        E 0 90 1f 60
        E 0 90 3e 60
        E 0 90 48 60
        E 0 90 4a 60
        E 0 90 54 60
        E 0 90 56 60
        E 0 90 60 60
        E 0 90 62 60
        E 40 80 18 00
        E 0 80 1f 00
        E 0 80 3e 00
        E 0 80 48 00
        E 0 80 4a 00
        E 0 80 54 00
        E 0 80 56 00
        E 0 80 60 00
        E 0 80 62 00
        E 280 90 1f 60
        E 0 90 56 60
        E 0 90 62 60
        E 40 80 1f 00
        E 0 80 56 00
        E 0 80 62 00
        E 280 90 1a 60
        E 0 90 1f 60
        E 0 90 55 60
        E 0 90 56 60
        E 0 90 61 60
        E 0 90 62 60
        E 40 80 1a 00
        E 0 80 1f 00
        E 0 80 55 00
        E 0 80 56 00
        E 0 80 61 00
        E 0 80 62 00
        E 280 90 18 60
        E 0 90 1f 60
        E 0 90 3e 60
        E 0 90 48 60
        E 0 90 4a 60
        E 0 90 54 60
        E 0 90 56 60
        E 0 90 60 60
        E 0 90 62 60
        E 40 80 18 00
        E 0 80 1f 00
        E 0 80 3e 00
        E 0 80 48 00
        E 0 80 4a 00
        E 0 80 54 00
        E 0 80 56 00
        E 0 80 60 00
        E 0 80 62 00
        E 280 90 18 60
        E 0 90 1f 60
        E 0 90 54 60
        E 0 90 56 60
        E 0 90 60 60
        E 0 90 62 60
        E 40 80 18 00
        E 0 80 1f 00
        E 0 80 54 00
        E 0 80 56 00
        E 0 80 60 00
        E 0 80 62 00
        E 280 90 1f 60
        E 0 90 56 60
        E 0 90 62 60
        E 40 80 1f 00
        E 0 80 56 00
        E 0 80 62 00
        E 280 90 1b 60
        E 0 90 3d 60
        E 0 90 49 60
        E 0 90 55 60
        E 0 90 61 60
        E 40 80 1b 00
        E 0 80 3d 00
        E 0 80 49 00
        E 0 80 55 00
        E 0 80 61 00
        E 120 90 1a 60
        E 0 90 61 60
        E 40 80 1a 00
        E 0 80 61 00
        E 120 90 1b 60
        E 0 90 61 60
        E 40 80 1b 00
        E 0 80 61 00
        E 120 90 1a 60
        E 0 90 3d 60
        E 0 90 49 60
        E 0 90 55 60
        E 0 90 61 60
        E 40 80 1a 00
        E 0 80 3d 00
        E 0 80 49 00
        E 0 80 55 00
        E 0 80 61 00
        E 120 90 18 60
        E 0 90 26 60
        E 0 90 60 60
        E 0 90 64 60
        E 40 80 18 00
        E 0 80 26 00
        E 0 80 60 00
        E 0 80 64 00
        E 280 90 1f 60
        E 0 90 3e 60
        E 0 90 4a 60
        E 0 90 56 60
        E 0 90 62 60
        E 40 80 1f 00
        E 0 80 3e 00
        E 0 80 4a 00
        E 0 80 56 00
        E 0 80 62 00
        E 280 90 18 60
        E 0 90 1a 60
        E 0 90 54 60
        E 0 90 55 60
        E 0 90 60 60
        E 0 90 61 60
        E 40 80 18 00
        E 0 80 1a 00
        E 0 80 54 00
        E 0 80 55 00
        E 0 80 60 00
        E 0 80 61 00
        E 280 90 1f 60
        E 0 90 56 60
        E 0 90 62 60
        E 40 80 1f 00
        E 0 80 56 00
        E 0 80 62 00
        E 280 90 18 60
        E 0 90 1f 60
        E 0 90 3e 60
        E 0 90 48 60
        E 0 90 4a 60
        E 0 90 54 60
        E 0 90 56 60
        E 0 90 60 60
        E 0 90 62 60
        E 40 80 18 00
        E 0 80 1f 00
        E 0 80 3e 00
        E 0 80 48 00
        E 0 80 4a 00
        E 0 80 54 00
        E 0 80 56 00
        E 0 80 60 00
        E 0 80 62 00
        E 280 90 1f 60
        E 0 90 56 60
        E 0 90 62 60
        E 40 80 1f 00
        E 0 80 56 00
        E 0 80 62 00
        E 280 90 1a 60
        E 0 90 1f 60
        E 0 90 55 60
        E 0 90 56 60
        E 0 90 61 60
        E 0 90 62 60
        E 40 80 1a 00
        E 0 80 1f 00
        E 0 80 55 00
        E 0 80 56 00
        E 0 80 61 00
        E 0 80 62 00
        E 280 90 18 60
        E 0 90 1f 60
        E 0 90 3e 60
        E 0 90 48 60
        E 0 90 4a 60
        E 0 90 54 60
        E 0 90 56 60
        E 0 90 60 60
        E 0 90 62 60
        E 40 80 18 00
        E 0 80 1f 00
        E 0 80 3e 00
        E 0 80 48 00
        E 0 80 4a 00
        E 0 80 54 00
        E 0 80 56 00
        E 0 80 60 00
        E 0 80 62 00
        E 280 90 18 60
        E 0 90 1f 60
        E 0 90 54 60
        E 0 90 56 60
        E 0 90 60 60
        E 0 90 62 60
        E 40 80 18 00
        E 0 80 1f 00
        E 0 80 54 00
        E 0 80 56 00
        E 0 80 60 00
        E 0 80 62 00
        E 280 90 1f 60
        E 0 90 56 60
        E 0 90 62 60
        E 40 80 1f 00
        E 0 80 56 00
        E 0 80 62 00
        E 280 90 1a 60
        E 0 90 1f 60
        E 0 90 3d 60
        E 0 90 3e 60
        E 0 90 49 60
        E 0 90 4a 60
        E 0 90 55 60
        E 0 90 56 60
        E 0 90 61 60
        E 0 90 62 60
        E 40 80 1a 00
        E 0 80 1f 00
        E 0 80 3d 00
        E 0 80 3e 00
        E 0 80 49 00
        E 0 80 4a 00
        E 0 80 55 00
        E 0 80 56 00
        E 0 80 61 00
        E 0 80 62 00
        E 280 90 1f 60
        E 0 90 56 60
        E 0 90 62 60
        E 40 80 1f 00
        E 0 80 56 00
        E 0 80 62 00
        E 280 90 18 60
        E 0 90 1f 60
        E 0 90 54 60
        E 0 90 56 60
        E 0 90 60 60
        E 0 90 62 60
        E 40 80 18 00
        E 0 80 1f 00
        E 0 80 54 00
        E 0 80 56 00
        E 0 80 60 00
        E 0 80 62 00
        E 280 90 1b 60
        E 0 90 3d 60
        E 0 90 49 60
        E 0 90 55 60
        E 0 90 61 60
        E 40 80 1b 00
        E 0 80 3d 00
        E 0 80 49 00
        E 0 80 55 00
        E 0 80 61 00
        E 120 90 1a 60
        E 0 90 61 60
        E 40 80 1a 00
        E 0 80 61 00
        E 120 90 1b 60
        E 0 90 61 60
        E 40 80 1b 00
        E 0 80 61 00
        E 120 90 1a 60
        E 0 90 3d 60
        E 0 90 49 60
        E 0 90 55 60
        E 0 90 61 60
        E 40 80 1a 00
        E 0 80 3d 00
        E 0 80 49 00
        E 0 80 55 00
        E 0 80 61 00
        E 120 90 1b 60
        E 0 90 61 60
        E 40 80 1b 00
        E 0 80 61 00
        E 120 90 1a 60
        E 0 90 61 60
        E 40 80 1a 00
        E 0 80 61 00
        E 120 90 18 60
        E 0 90 26 60
        E 0 90 40 60
        E 0 90 48 60
        E 0 90 4c 60
        E 0 90 54 60
        E 0 90 58 60
        E 0 90 60 60
        E 0 90 64 60
        E 40 80 18 00
        E 0 80 26 00
        E 0 80 40 00
        E 0 80 48 00
        E 0 80 4c 00
        E 0 80 54 00
        E 0 80 58 00
        E 0 80 60 00
        E 0 80 64 00
        E 280 90 1f 60
        E 0 90 56 60
        E 0 90 62 60
        E 40 80 1f 00
        E 0 80 56 00
        E 0 80 62 00
        E 280 90 1a 60
        E 0 90 1f 60
        E 0 90 55 60
        E 0 90 56 60
        E 0 90 61 60
        E 0 90 62 60
        E 40 80 1a 00
        E 0 80 1f 00
        E 0 80 55 00
        E 0 80 56 00
        E 0 80 61 00
        E 0 80 62 00
        E 280 90 1f 60
        E 0 90 3e 60
        E 0 90 4a 60
        E 0 90 56 60
        E 0 90 62 60
        E 40 80 1f 00
        E 0 80 3e 00
        E 0 80 4a 00
        E 0 80 56 00
        E 0 80 62 00
        E 280 90 18 60
        E 0 90 1f 60
        E 0 90 54 60
        E 0 90 56 60
        E 0 90 60 60
        E 0 90 62 60
        E 40 80 18 00
        E 0 80 1f 00
        E 0 80 54 00
        E 0 80 56 00
        E 0 80 60 00
        E 0 80 62 00
        E 280 90 18 60
        E 0 90 1f 60
        E 0 90 54 60
        E 0 90 56 60
        E 0 90 60 60
        E 0 90 62 60
        E 40 80 18 00
        E 0 80 1f 00
        E 0 80 54 00
        E 0 80 56 00
        E 0 80 60 00
        E 0 80 62 00
        E 280 90 1a 60
        E 0 90 1f 60
        E 0 90 3d 60
        E 0 90 3e 60
        E 0 90 49 60
        E 0 90 4a 60
        E 0 90 55 60
        E 0 90 56 60
        E 0 90 61 60
        E 0 90 62 60
        E 40 80 1a 00
        E 0 80 1f 00
        E 0 80 3d 00
        E 0 80 3e 00
        E 0 80 49 00
        E 0 80 4a 00
        E 0 80 55 00
        E 0 80 56 00
        E 0 80 61 00
        E 0 80 62 00
        E 280 90 1f 60
        E 0 90 56 60
        E 0 90 62 60
        E 40 80 1f 00
        E 0 80 56 00
        E 0 80 62 00
        E 280 90 18 60
        E 0 90 1f 60
        E 0 90 54 60
        E 0 90 56 60
        E 0 90 60 60
        E 0 90 62 60
        E 40 80 18 00
        E 0 80 1f 00
        E 0 80 54 00
        E 0 80 56 00
        E 0 80 60 00
        E 0 80 62 00
        E 280 90 1f 60
        E 0 90 3e 60
        E 0 90 4a 60
        E 0 90 56 60
        E 0 90 62 60
        E 40 80 1f 00
        E 0 80 3e 00
        E 0 80 4a 00
        E 0 80 56 00
        E 0 80 62 00
        E 280 90 1a 60
        E 0 90 1f 60
        E 0 90 55 60
        E 0 90 56 60
        E 0 90 61 60
        E 0 90 62 60
        E 40 80 1a 00
        E 0 80 1f 00
        E 0 80 55 00
        E 0 80 56 00
        E 0 80 61 00
        E 0 80 62 00
        E 280 90 1f 60
        E 0 90 56 60
        E 0 90 62 60
        E 40 80 1f 00
        E 0 80 56 00
        E 0 80 62 00
        E 280 90 18 60
        E 0 90 1f 60
        E 0 90 3e 60
        E 0 90 48 60
        E 0 90 4a 60
        E 0 90 54 60
        E 0 90 56 60
        E 0 90 60 60
        E 0 90 62 60
        E 40 80 18 00
        E 0 80 1f 00
        E 0 80 3e 00
        E 0 80 48 00
        E 0 80 4a 00
        E 0 80 54 00
        E 0 80 56 00
        E 0 80 60 00
        E 0 80 62 00
        E 280 90 1a 60
        E 0 90 61 60
        E 40 80 1a 00
        E 0 80 61 00
        E 120 90 1b 60
        E 0 90 3d 60
        E 0 90 49 60
        E 0 90 55 60
        E 0 90 61 60
        E 40 80 1b 00
        E 0 80 3d 00
        E 0 80 49 00
        E 0 80 55 00
        E 0 80 61 00
        E 120 90 1a 60
        E 0 90 61 60
        E 40 80 1a 00
        E 0 80 61 00
        E 120 90 1b 60
        E 0 90 61 60
        E 40 80 1b 00
        E 0 80 61 00
        E 120 90 1a 60
        E 0 90 3d 60
        E 0 90 49 60
        E 0 90 55 60
        E 0 90 61 60
        E 40 80 1a 00
        E 0 80 3d 00
        E 0 80 49 00
        E 0 80 55 00
        E 0 80 61 00
        E 120 90 1b 60
        E 0 90 61 60
        E 40 80 1b 00
        E 0 80 61 00
        E 120 90 18 60
        E 0 90 2c 60
        E 0 90 54 60
        E 0 90 58 60
        E 0 90 60 60
        E 0 90 64 60
        E 40 80 18 00
        E 0 80 2c 00
        E 0 80 54 00
        E 0 80 58 00
        E 0 80 60 00
        E 0 80 64 00
        E 280 90 1f 60
        E 0 90 56 60
        E 0 90 62 60
        E 40 80 1f 00
        E 0 80 56 00
        E 0 80 62 00
        E 280 90 1a 60
        E 0 90 1f 60
        E 0 90 3d 60
        E 0 90 3e 60
        E 0 90 49 60
        E 0 90 4a 60
        E 0 90 55 60
        E 0 90 56 60
        E 0 90 61 60
        E 0 90 62 60
        E 40 80 1a 00
        E 0 80 1f 00
        E 0 80 3d 00
        E 0 80 3e 00
        E 0 80 49 00
        E 0 80 4a 00
        E 0 80 55 00
        E 0 80 56 00
        E 0 80 61 00
        E 0 80 62 00
        E 280 90 1f 60
        E 0 90 56 60
        E 0 90 62 60
        E 40 80 1f 00
        E 0 80 56 00
        E 0 80 62 00
        E 280 90 18 60
        E 0 90 1f 60
        E 0 90 54 60
        E 0 90 56 60
        E 0 90 60 60
        E 0 90 62 60
        E 40 80 18 00
        E 0 80 1f 00
        E 0 80 54 00
        E 0 80 56 00
        E 0 80 60 00
        E 0 80 62 00
        E 280 90 1f 60
        E 0 90 3e 60
        E 0 90 4a 60
        E 0 90 56 60
        E 0 90 62 60
        E 40 80 1f 00
        E 0 80 3e 00
        E 0 80 4a 00
        E 0 80 56 00
        E 0 80 62 00
        E 280 90 1a 60
        E 0 90 1f 60
        E 0 90 55 60
        E 0 90 56 60
        E 0 90 61 60
        E 0 90 62 60
        E 40 80 1a 00
        E 0 80 1f 00
        E 0 80 55 00
        E 0 80 56 00
        E 0 80 61 00
        E 0 80 62 00
        E 280 90 1f 60
        E 0 90 56 60
        E 0 90 62 60
        E 40 80 1f 00
        E 0 80 56 00
        E 0 80 62 00
        E 280 90 18 60
        E 0 90 1f 60
        E 0 90 3e 60
        E 0 90 48 60
        E 0 90 4a 60
        E 0 90 54 60
        E 0 90 56 60
        E 0 90 60 60
        E 0 90 62 60
        E 40 80 18 00
        E 0 80 1f 00
        E 0 80 3e 00
        E 0 80 48 00
        E 0 80 4a 00
        E 0 80 54 00
        E 0 80 56 00
        E 0 80 60 00
        E 0 80 62 00
        E 280 90 1f 60
        E 0 90 56 60
        E 0 90 62 60
        E 40 80 1f 00
        E 0 80 56 00
        E 0 80 62 00
        E 280 90 1a 60
        E 0 90 1f 60
        E 0 90 55 60
        E 0 90 56 60
        E 0 90 61 60
        E 0 90 62 60
        E 40 80 1a 00
        E 0 80 1f 00
        E 0 80 55 00
        E 0 80 56 00
        E 0 80 61 00
        E 0 80 62 00
        E 280 90 1f 60
        E 0 90 3e 60
        E 0 90 4a 60
        E 0 90 56 60
        E 0 90 62 60
        E 40 80 1f 00
        E 0 80 3e 00
        E 0 80 4a 00
        E 0 80 56 00
        E 0 80 62 00
        E 280 90 1e 60
        E 0 90 62 60
        E 40 80 1e 00
        E 0 80 62 00
        E 120 90 1b 60
        E 0 90 3d 60
        E 0 90 49 60
        E 0 90 55 60
        E 0 90 61 60
        E 40 80 1b 00
        E 0 80 3d 00
        E 0 80 49 00
        E 0 80 55 00
        E 0 80 61 00
        E 120 90 1a 60
        E 0 90 61 60
        E 40 80 1a 00
        E 0 80 61 00
        E 120 90 1b 60
        E 0 90 61 60
        E 40 80 1b 00
        E 0 80 61 00
        E 120 90 1a 60
        E 0 90 3d 60
        E 0 90 49 60
        E 0 90 55 60
        E 0 90 61 60
        E 40 80 1a 00
        E 0 80 3d 00
        E 0 80 49 00
        E 0 80 55 00
        E 0 80 61 00
        E 120 90 1b 60
        E 0 90 61 60
        E 40 80 1b 00
        E 0 80 61 00
        E 120 90 1a 60
        E 0 90 61 60
        E 40 80 1a 00
        E 0 80 61 00
        E 120 90 1b 60
        E 0 90 3d 60
        E 0 90 49 60
        E 0 90 55 60
        E 0 90 61 60
        E 40 80 1b 00
        E 0 80 3d 00
        E 0 80 49 00
        E 0 80 55 00
        E 0 80 61 00
        E 120 90 18 60
        E 0 90 2c 60
        E 0 90 60 60
        E 0 90 64 60
        E 40 80 18 00
        E 0 80 2c 00
        E 0 80 60 00
        E 0 80 64 00
        E 280 90 1f 60
        E 0 90 3e 60
        E 0 90 4a 60
        E 0 90 56 60
        E 0 90 62 60
        E 40 80 1f 00
        E 0 80 3e 00
        E 0 80 4a 00
        E 0 80 56 00
        E 0 80 62 00
        E 280 90 1a 60
        E 0 90 1f 60
        E 0 90 55 60
        E 0 90 56 60
        E 0 90 61 60
        E 0 90 62 60
        E 40 80 1a 00
        E 0 80 1f 00
        E 0 80 55 00
        E 0 80 56 00
        E 0 80 61 00
        E 0 80 62 00
        E 280 90 1f 60
        E 0 90 56 60
        E 0 90 62 60
        E 40 80 1f 00
        E 0 80 56 00
        E 0 80 62 00
        E 280 90 18 60
        E 0 90 1f 60
        E 0 90 3e 60
        E 0 90 48 60
        E 0 90 4a 60
        E 0 90 54 60
        E 0 90 56 60
        E 0 90 60 60
        E 0 90 62 60
        E 40 80 18 00
        E 0 80 1f 00
        E 0 80 3e 00
        E 0 80 48 00
        E 0 80 4a 00
        E 0 80 54 00
        E 0 80 56 00
        E 0 80 60 00
        E 0 80 62 00
        E 280 90 1f 60
        E 0 90 56 60
        E 0 90 62 60
        E 40 80 1f 00
        E 0 80 56 00
        E 0 80 62 00
        E 280 90 1a 60
        E 0 90 1f 60
        E 0 90 55 60
        E 0 90 56 60
        E 0 90 61 60
        E 0 90 62 60
        E 40 80 1a 00
        E 0 80 1f 00
        E 0 80 55 00
        E 0 80 56 00
        E 0 80 61 00
        E 0 80 62 00
        E 280 90 1f 60
        E 0 90 3e 60
        E 0 90 4a 60
        E 0 90 56 60
        E 0 90 62 60
        E 40 80 1f 00
        E 0 80 3e 00
        E 0 80 4a 00
        E 0 80 56 00
        E 0 80 62 00
        E 280 90 18 60
        E 0 90 1f 60
        E 0 90 54 60
        E 0 90 56 60
        E 0 90 60 60
        E 0 90 62 60
        E 40 80 18 00
        E 0 80 1f 00
        E 0 80 54 00
        E 0 80 56 00
        E 0 80 60 00
        E 0 80 62 00
        E 280 90 1f 60
        E 0 90 56 60
        E 0 90 62 60
        E 40 80 1f 00
        E 0 80 56 00
        E 0 80 62 00
        E 280 90 1a 60
        E 0 90 1f 60
        E 0 90 3d 60
        E 0 90 3e 60
        E 0 90 49 60
        E 0 90 4a 60
        E 0 90 55 60
        E 0 90 56 60
        E 0 90 61 60
        E 0 90 62 60
        E 40 80 1a 00
        E 0 80 1f 00
        E 0 80 3d 00
        E 0 80 3e 00
        E 0 80 49 00
        E 0 80 4a 00
        E 0 80 55 00
        E 0 80 56 00
        E 0 80 61 00
        E 0 80 62 00
        E 280 90 18 60
        E 0 90 1f 60
        E 0 90 54 60
        E 0 90 56 60
        E 0 90 60 60
        E 0 90 62 60
        E 40 80 18 00
        E 0 80 1f 00
        E 0 80 54 00
        E 0 80 56 00
        E 0 80 60 00
        E 0 80 62 00
        E 280 90 18 60
        E 0 90 1f 60
        E 0 90 54 60
        E 0 90 56 60
        E 0 90 60 60
        E 0 90 62 60
        E 40 80 18 00
        E 0 80 1f 00
        E 0 80 54 00
        E 0 80 56 00
        E 0 80 60 00
        E 0 80 62 00
        E 280 90 1f 60
        E 0 90 3e 60
        E 0 90 4a 60
        E 0 90 56 60
        E 0 90 62 60
        E 40 80 1f 00
        E 0 80 3e 00
        E 0 80 4a 00
        E 0 80 56 00
        E 0 80 62 00
        E 200 90 74 50
        E 80 90 1a 60
        E 0 90 61 60
        E 40 80 1a 00
        E 0 80 61 00
        E 120 90 1b 60
        E 0 90 3d 60
        E 0 90 49 60
        E 0 90 55 60
        E 0 90 61 60
        E 40 80 1b 00
        E 0 80 3d 00
        E 0 80 49 00
        E 0 80 55 00
        E 0 80 61 00
        E 120 90 1a 60
        E 0 90 61 60
        E 40 80 1a 00
        E 0 80 61 00
        E 120 90 1b 60
        E 0 90 61 60
        E 40 80 1b 00
        E 0 80 61 00
        E 120 90 18 60
        E 0 90 2c 60
        E 0 90 40 60
        E 0 90 48 60
        E 0 90 4c 60
        E 0 90 54 60
        E 0 90 58 60
        E 0 90 60 60
        E 0 90 64 60
        E 40 80 18 00
        E 0 80 2c 00
        E 0 80 40 00
        E 0 80 48 00
        E 0 80 4c 00
        E 0 80 54 00
        E 0 80 58 00
        E 0 80 60 00
        E 0 80 64 00
        E 200 80 74 00
        E 80 90 1f 60
        E 0 90 56 60
        E 0 90 62 60
        E 40 80 1f 00
        E 0 80 56 00
        E 0 80 62 00
        E 280 90 1a 60
        E 0 90 1f 60
        E 0 90 55 60
        E 0 90 56 60
        E 0 90 61 60
        E 0 90 62 60
        E 40 80 1a 00
        E 0 80 1f 00
        E 0 80 55 00
        E 0 80 56 00
        E 0 80 61 00
        E 0 80 62 00
        E 280 90 1f 60
        E 0 90 3e 60
        E 0 90 4a 60
        E 0 90 56 60
        E 0 90 62 60
        E 40 80 1f 00
        E 0 80 3e 00
        E 0 80 4a 00
        E 0 80 56 00
        E 0 80 62 00
        E 280 90 18 60
        E 0 90 1f 60
        E 0 90 54 60
        E 0 90 56 60
        E 0 90 60 60
        E 0 90 62 60
        E 40 80 18 00
        E 0 80 1f 00
        E 0 80 54 00
        E 0 80 56 00
        E 0 80 60 00
        E 0 80 62 00
        E 280 90 1f 60
        E 0 90 56 60
        E 0 90 62 60
        E 40 80 1f 00
        E 0 80 56 00
        E 0 80 62 00
        E 280 90 1a 60
        E 0 90 1f 60
        E 0 90 3d 60
        E 0 90 3e 60
        E 0 90 49 60
        E 0 90 4a 60
        E 0 90 55 60
        E 0 90 56 60
        E 0 90 61 60
        E 0 90 62 60
        E 40 80 1a 00
        E 0 80 1f 00
        E 0 80 3d 00
        E 0 80 3e 00
        E 0 80 49 00
        E 0 80 4a 00
        E 0 80 55 00
        E 0 80 56 00
        E 0 80 61 00
        E 0 80 62 00
        E 280 90 1f 60
        E 0 90 56 60
        E 0 90 62 60
        E 40 80 1f 00
        E 0 80 56 00
        E 0 80 62 00
        E 280 90 18 60
        E 0 90 1f 60
        E 0 90 54 60
        E 0 90 56 60
        E 0 90 60 60
        E 0 90 62 60
        E 40 80 18 00
        E 0 80 1f 00
        E 0 80 54 00
        E 0 80 56 00
        E 0 80 60 00
        E 0 80 62 00
        E 280 90 1f 60
        E 0 90 3e 60
        E 0 90 4a 60
        E 0 90 56 60
        E 0 90 62 60
        E 40 80 1f 00
        E 0 80 3e 00
        E 0 80 4a 00
        E 0 80 56 00
        E 0 80 62 00
        E 280 90 1a 60
        E 0 90 1f 60
        E 0 90 55 60
        E 0 90 56 60
        E 0 90 61 60
        E 0 90 62 60
        E 40 80 1a 00
        E 0 80 1f 00
        E 0 80 55 00
        E 0 80 56 00
        E 0 80 61 00
        E 0 80 62 00
        E 280 90 1f 60
        E 0 90 56 60
        E 0 90 62 60
        E 40 80 1f 00
        E 0 80 56 00
        E 0 80 62 00
        E 280 90 18 60
        E 0 90 1f 60
        E 0 90 3e 60
        E 0 90 48 60
        E 0 90 4a 60
        E 0 90 54 60
        E 0 90 56 60
        E 0 90 60 60
        E 0 90 62 60
        E 40 80 18 00
        E 0 80 1f 00
        E 0 80 3e 00
        E 0 80 48 00
        E 0 80 4a 00
        E 0 80 54 00
        E 0 80 56 00
        E 0 80 60 00
        E 0 80 62 00
        E 280 90 1a 60
        E 0 90 61 60
        E 40 80 1a 00
        E 0 80 61 00
        E 120 90 1b 60
        E 0 90 3d 60
        E 0 90 49 60
        E 0 90 55 60
        E 0 90 61 60
        E 40 80 1b 00
        E 0 80 3d 00
        E 0 80 49 00
        E 0 80 55 00
        E 0 80 61 00
        E 120 90 1a 60
        E 0 90 61 60
        E 40 80 1a 00
        E 0 80 61 00
        E 120 90 1b 60
        E 0 90 61 60
        E 40 80 1b 00
        E 0 80 61 00
        E 120 90 1a 60
        E 0 90 3d 60
        E 0 90 49 60
        E 0 90 55 60
        E 0 90 61 60
        E 40 80 1a 00
        E 0 80 3d 00
        E 0 80 49 00
        E 0 80 55 00
        E 0 80 61 00
        E 120 90 1b 60
        E 0 90 61 60
        E 40 80 1b 00
        E 0 80 61 00
        E 120 90 18 60
        E 0 90 2c 60
        E 0 90 54 60
        E 0 90 58 60
        E 0 90 60 60
        E 0 90 64 60
        E 40 80 18 00
        E 0 80 2c 00
        E 0 80 54 00
        E 0 80 58 00
        E 0 80 60 00
        E 0 80 64 00
        E 280 90 1f 60
        E 0 90 56 60
        E 0 90 62 60
        E 40 80 1f 00
        E 0 80 56 00
        E 0 80 62 00
        E 280 90 1a 60
        E 0 90 1f 60
        E 0 90 3d 60
        E 0 90 3e 60
        E 0 90 49 60
        E 0 90 4a 60
        E 0 90 55 60
        E 0 90 56 60
        E 0 90 61 60
        E 0 90 62 60
        E 40 80 1a 00
        E 0 80 1f 00
        E 0 80 3d 00
        E 0 80 3e 00
        E 0 80 49 00
        E 0 80 4a 00
        E 0 80 55 00
        E 0 80 56 00
        E 0 80 61 00
        E 0 80 62 00
        E 280 90 1f 60
        E 0 90 56 60
        E 0 90 62 60
        E 40 80 1f 00
        E 0 80 56 00
        E 0 80 62 00
        E 280 90 18 60
        E 0 90 1f 60
        E 0 90 54 60
        E 0 90 56 60
        E 0 90 60 60
        E 0 90 62 60
        E 40 80 18 00
        E 0 80 1f 00
        E 0 80 54 00
        E 0 80 56 00
        E 0 80 60 00
        E 0 80 62 00
        E 280 90 1f 60
        E 0 90 3e 60
        E 0 90 4a 60
        E 0 90 56 60
        E 0 90 62 60
        E 40 80 1f 00
        E 0 80 3e 00
        E 0 80 4a 00
        E 0 80 56 00
        E 0 80 62 00
        E 280 90 1a 60
        E 0 90 1f 60
        E 0 90 55 60
        E 0 90 56 60
        E 0 90 61 60
        E 0 90 62 60
        E 40 80 1a 00
        E 0 80 1f 00
        E 0 80 55 00
        E 0 80 56 00
        E 0 80 61 00
        E 0 80 62 00
        E 280 90 18 60
        E 0 90 1f 60
        E 0 90 54 60
        E 0 90 56 60
        E 0 90 60 60
        E 0 90 62 60
        E 40 80 18 00
        E 0 80 1f 00
        E 0 80 54 00
        E 0 80 56 00
        E 0 80 60 00
        E 0 80 62 00
        E 280 90 18 60
        E 0 90 1f 60
        E 0 90 3e 60
        E 0 90 48 60
        E 0 90 4a 60
        E 0 90 54 60
        E 0 90 56 60
        E 0 90 60 60
        E 0 90 62 60
        E 40 80 18 00
        E 0 80 1f 00
        E 0 80 3e 00
        E 0 80 48 00
        E 0 80 4a 00
        E 0 80 54 00
        E 0 80 56 00
        E 0 80 60 00
        E 0 80 62 00
        E 280 90 1f 60
        E 0 90 56 60
        E 0 90 62 60
        E 40 80 1f 00
        E 0 80 56 00
        E 0 80 62 00
        E 280 90 1a 60
        E 0 90 1f 60
        E 0 90 55 60
        E 0 90 56 60
        E 0 90 61 60
        E 0 90 62 60
        E 40 80 1a 00
        E 0 80 1f 00
        E 0 80 55 00
        E 0 80 56 00
        E 0 80 61 00
        E 0 80 62 00
        E 280 90 1f 60
        E 0 90 3e 60
        E 0 90 4a 60
        E 0 90 56 60
        E 0 90 62 60
        E 40 80 1f 00
        E 0 80 3e 00
        E 0 80 4a 00
        E 0 80 56 00
        E 0 80 62 00
        E 280 90 18 60
        E 0 90 1f 60
        E 0 90 54 60
        E 0 90 56 60
        E 0 90 60 60
        E 0 90 62 60
        E 40 80 18 00
        E 0 80 1f 00
        E 0 80 54 00
        E 0 80 56 00
        E 0 80 60 00
        E 0 80 62 00
        E 280 90 1a 60
        E 0 90 55 60
        E 0 90 61 60
        E 40 80 1a 00
        E 0 80 55 00
        E 0 80 61 00
        E 120 90 1b 60
        E 0 90 61 60
        E 40 80 1b 00
        E 0 80 61 00
        E 120 90 1a 60
        E 0 90 3d 60
        E 0 90 49 60
        E 0 90 55 60
        E 0 90 61 60
        E 40 80 1a 00
        E 0 80 3d 00
        E 0 80 49 00
        E 0 80 55 00
        E 0 80 61 00
        E 120 90 1b 60
        E 0 90 61 60
        E 40 80 1b 00
        E 0 80 61 00
        E 120 90 1a 60
        E 0 90 61 60
        E 40 80 1a 00
        E 0 80 61 00
        E 120 90 1b 60
        E 0 90 3d 60
        E 0 90 49 60
        E 0 90 55 60
        E 0 90 61 60
        E 40 80 1b 00
        E 0 80 3d 00
        E 0 80 49 00
        E 0 80 55 00
        E 0 80 61 00
        E 80 90 18 60
        E 0 90 2c 60
        E 0 90 60 60
        E 0 90 64 60
        E 40 80 18 00
        E 0 80 2c 00
        E 0 80 60 00
        E 0 80 64 00
        E 320 90 1f 60
        E 0 90 3e 60
        E 0 90 4a 60
        E 0 90 56 60
        E 0 90 62 60
        E 40 80 1f 00
        E 0 80 3e 00
        E 0 80 4a 00
        E 0 80 56 00
        E 0 80 62 00
        E 280 90 1a 60
        E 0 90 1f 60
        E 0 90 55 60
        E 0 90 56 60
        E 0 90 61 60
        E 0 90 62 60
        E 40 80 1a 00
        E 0 80 1f 00
        E 0 80 55 00
        E 0 80 56 00
        E 0 80 61 00
        E 0 80 62 00
        E 280 90 1f 60
        E 0 90 56 60
        E 0 90 62 60
        E 40 80 1f 00
        E 0 80 56 00
        E 0 80 62 00
        E 280 90 18 60
        E 0 90 1f 60
        E 0 90 3e 60
        E 0 90 48 60
        E 0 90 4a 60
        E 0 90 54 60
        E 0 90 56 60
        E 0 90 60 60
        E 0 90 62 60
        E 40 80 18 00
        E 0 80 1f 00
        E 0 80 3e 00
        E 0 80 48 00
        E 0 80 4a 00
        E 0 80 54 00
        E 0 80 56 00
        E 0 80 60 00
        E 0 80 62 00
        E 280 90 1f 60
        E 0 90 56 60
        E 0 90 62 60
        E 40 80 1f 00
        E 0 80 56 00
        E 0 80 62 00
        E 280 90 1a 60
        E 0 90 1f 60
        E 0 90 55 60
        E 0 90 56 60
        E 0 90 61 60
        E 0 90 62 60
        E 40 80 1a 00
        E 0 80 1f 00
        E 0 80 55 00
        E 0 80 56 00
        E 0 80 61 00
        E 0 80 62 00
        E 280 90 18 60
        E 0 90 1f 60
        E 0 90 3e 60
        E 0 90 48 60
        E 0 90 4a 60
        E 0 90 54 60
        E 0 90 56 60
        E 0 90 60 60
        E 0 90 62 60
        E 40 80 18 00
        E 0 80 1f 00
        E 0 80 3e 00
        E 0 80 48 00
        E 0 80 4a 00
        E 0 80 54 00
        E 0 80 56 00
        E 0 80 60 00
        E 0 80 62 00
        E 280 90 18 60
        E 0 90 1f 60
        E 0 90 54 60
        E 0 90 56 60
        E 0 90 60 60
        E 0 90 62 60
        E 40 80 18 00
        E 0 80 1f 00
        E 0 80 54 00
        E 0 80 56 00
        E 0 80 60 00
        E 0 80 62 00
        E 280 90 1f 60
        E 0 90 56 60
        E 0 90 62 60
        E 40 80 1f 00
        E 0 80 56 00
        E 0 80 62 00
        E 280 90 1a 60
        E 0 90 1f 60
        E 0 90 3d 60
        E 0 90 3e 60
        E 0 90 49 60
        E 0 90 4a 60
        E 0 90 55 60
        E 0 90 56 60
        E 0 90 61 60
        E 0 90 62 60
        E 40 80 1a 00
        E 0 80 1f 00
        E 0 80 3d 00
        E 0 80 3e 00
        E 0 80 49 00
        E 0 80 4a 00
        E 0 80 55 00
        E 0 80 56 00
        E 0 80 61 00
        E 0 80 62 00
        E 280 90 1f 60
        E 0 90 56 60
        E 0 90 62 60
        E 40 80 1f 00
        E 0 80 56 00
        E 0 80 62 00
        E 280 90 18 60
        E 0 90 1f 60
        E 0 90 54 60
        E 0 90 56 60
        E 0 90 60 60
        E 0 90 62 60
        E 40 80 18 00
        E 0 80 1f 00
        E 0 80 54 00
        E 0 80 56 00
        E 0 80 60 00
        E 0 80 62 00
        E 280 90 1b 60
        E 0 90 3d 60
        E 0 90 49 60
        E 0 90 55 60
        E 0 90 61 60
        E 40 80 1b 00
        E 0 80 3d 00
        E 0 80 49 00
        E 0 80 55 00
        E 0 80 61 00
        E 120 90 1a 60
        E 0 90 61 60
        E 40 80 1a 00
        E 0 80 61 00
        E 120 90 1b 60
        E 0 90 61 60
        E 40 80 1b 00
        E 0 80 61 00
        E 120 90 1a 60
        E 0 90 3d 60
        E 0 90 49 60
        E 0 90 55 60
        E 0 90 61 60
        E 40 80 1a 00
        E 0 80 3d 00
        E 0 80 49 00
        E 0 80 55 00
        E 0 80 61 00
        E 120 90 1b 60
        E 0 90 61 60
        E 40 80 1b 00
        E 0 80 61 00
        E 120 90 1a 60
        E 0 90 61 60
        E 40 80 1a 00
        E 0 80 61 00
        E 120 90 18 60
        E 0 90 26 60
        E 0 90 40 60
        E 0 90 48 60
        E 0 90 4c 60
        E 0 90 54 60
        E 0 90 58 60
        E 0 90 60 60
        E 0 90 64 60
        E 40 80 18 00
        E 0 80 26 00
        E 0 80 40 00
        E 0 80 48 00
        E 0 80 4c 00
        E 0 80 54 00
        E 0 80 58 00
        E 0 80 60 00
        E 0 80 64 00
        E 280 90 1f 60
        E 0 90 56 60
        E 0 90 62 60
        E 40 80 1f 00
        E 0 80 56 00
        E 0 80 62 00
        E 280 90 1a 60
        E 0 90 1f 60
        E 0 90 55 60
        E 0 90 56 60
        E 0 90 61 60
        E 0 90 62 60
        E 40 80 1a 00
        E 0 80 1f 00
        E 0 80 55 00
        E 0 80 56 00
        E 0 80 61 00
        E 0 80 62 00
        E 280 90 1f 60
        E 0 90 3e 60
        E 0 90 4a 60
        E 0 90 56 60
        E 0 90 62 60
        E 40 80 1f 00
        E 0 80 3e 00
        E 0 80 4a 00
        E 0 80 56 00
        E 0 80 62 00
        E 280 90 18 60
        E 0 90 1f 60
        E 0 90 54 60
        E 0 90 56 60
        E 0 90 60 60
        E 0 90 62 60
        E 40 80 18 00
        E 0 80 1f 00
        E 0 80 54 00
        E 0 80 56 00
        E 0 80 60 00
        E 0 80 62 00
        E 280 90 1f 60
        E 0 90 56 60
        E 0 90 62 60
        E 40 80 1f 00
        E 0 80 56 00
        E 0 80 62 00
        E 280 90 1a 60
        E 0 90 1f 60
        E 0 90 3d 60
        E 0 90 3e 60
        E 0 90 49 60
        E 0 90 4a 60
        E 0 90 55 60
        E 0 90 56 60
        E 0 90 61 60
        E 0 90 62 60
        E 40 80 1a 00
        E 0 80 1f 00
        E 0 80 3d 00
        E 0 80 3e 00
        E 0 80 49 00
        E 0 80 4a 00
        E 0 80 55 00
        E 0 80 56 00
        E 0 80 61 00
        E 0 80 62 00
        E 280 90 1f 60
        E 0 90 56 60
        E 0 90 62 60
        E 40 80 1f 00
        E 0 80 56 00
        E 0 80 62 00
        E 280 90 18 60
        E 0 90 1f 60
        E 0 90 54 60
        E 0 90 56 60
        E 0 90 60 60
        E 0 90 62 60
        E 40 80 18 00
        E 0 80 1f 00
        E 0 80 54 00
        E 0 80 56 00
        E 0 80 60 00
        E 0 80 62 00
        E 280 90 1f 60
        E 0 90 3e 60
        E 0 90 4a 60
        E 0 90 56 60
        E 0 90 62 60
        E 40 80 1f 00
        E 0 80 3e 00
        E 0 80 4a 00
        E 0 80 56 00
        E 0 80 62 00
        E 280 90 1a 60
        E 0 90 1f 60
        E 0 90 55 60
        E 0 90 56 60
        E 0 90 61 60
        E 0 90 62 60
        E 40 80 1a 00
        E 0 80 1f 00
        E 0 80 55 00
        E 0 80 56 00
        E 0 80 61 00
        E 0 80 62 00
        E 280 90 1f 60
        E 0 90 56 60
        E 0 90 62 60
        E 40 80 1f 00
        E 0 80 56 00
        E 0 80 62 00
        E 280 90 18 60
        E 0 90 1f 60
        E 0 90 3e 60
        E 0 90 48 60
        E 0 90 4a 60
        E 0 90 54 60
        E 0 90 56 60
        E 0 90 60 60
        E 0 90 62 60
        E 40 80 18 00
        E 0 80 1f 00
        E 0 80 3e 00
        E 0 80 48 00
        E 0 80 4a 00
        E 0 80 54 00
        E 0 80 56 00
        E 0 80 60 00
        E 0 80 62 00
        E 280 90 1a 60
        E 0 90 61 60
        E 40 80 1a 00
        E 0 80 61 00
        E 120 90 1b 60
        E 0 90 3d 60
        E 0 90 49 60
        E 0 90 55 60
        E 0 90 61 60
        E 40 80 1b 00
        E 0 80 3d 00
        E 0 80 49 00
        E 0 80 55 00
        E 0 80 61 00
        E 100 90 74 60
        E 20 90 1a 60
        E 0 90 61 60
        E 40 80 1a 00
        E 0 80 61 00
        E 120 90 1b 60
        E 0 90 61 60
        E 40 80 1b 00
        E 0 80 61 00
        E 120 90 1a 60
        E 0 90 3d 60
        E 0 90 49 60
        E 0 90 55 60
        E 0 90 61 60
        E 40 80 1a 00
        E 0 80 3d 00
        E 0 80 49 00
        E 0 80 55 00
        E 0 80 61 00
        E 120 90 1b 60
        E 0 90 61 60
        E 40 80 1b 00
        E 0 80 61 00
        E 120 90 18 60
        E 0 90 2c 60
        E 0 90 54 60
        E 0 90 58 60
        E 0 90 60 60
        E 0 90 64 60
        E 40 80 18 00
        E 0 80 2c 00
        E 0 80 54 00
        E 0 80 58 00
        E 0 80 60 00
        E 0 80 64 00
        E 280 90 1f 60
        E 0 90 56 60
        E 0 90 62 60
        E 40 80 1f 00
        E 0 80 56 00
        E 0 80 62 00
        E 280 90 1a 60
        E 0 90 1f 60
        E 0 90 3d 60
        E 0 90 3e 60
        E 0 90 49 60
        E 0 90 4a 60
        E 0 90 55 60
        E 0 90 56 60
        E 0 90 61 60
        E 0 90 62 60
        E 40 80 1a 00
        E 0 80 1f 00
        E 0 80 3d 00
        E 0 80 3e 00
        E 0 80 49 00
        E 0 80 4a 00
        E 0 80 55 00
        E 0 80 56 00
        E 0 80 61 00
        E 0 80 62 00
        E 280 90 1f 60
        E 0 90 56 60
        E 0 90 62 60
        E 40 80 1f 00
        E 0 80 56 00
        E 0 80 62 00
        E 280 90 18 60
        E 0 90 1f 60
        E 0 90 54 60
        E 0 90 56 60
        E 0 90 60 60
        E 0 90 62 60
        E 40 80 18 00
        E 0 80 1f 00
        E 0 80 54 00
        E 0 80 56 00
        E 0 80 60 00
        E 0 80 62 00
        E 280 90 1f 60
        E 0 90 3e 60
        E 0 90 4a 60
        E 0 90 56 60
        E 0 90 62 60
        E 40 80 1f 00
        E 0 80 3e 00
        E 0 80 4a 00
        E 0 80 56 00
        E 0 80 62 00
        E 280 90 1a 60
        E 0 90 1f 60
        E 0 90 55 60
        E 0 90 56 60
        E 0 90 61 60
        E 0 90 62 60
        E 40 80 1a 00
        E 0 80 1f 00
        E 0 80 55 00
        E 0 80 56 00
        E 0 80 61 00
        E 0 80 62 00
        E 280 90 1f 60
        E 0 90 56 60
        E 0 90 62 60
        E 40 80 1f 00
        E 0 80 56 00
        E 0 80 62 00
        E 280 90 18 60
        E 0 90 1f 60
        E 0 90 3e 60
        E 0 90 48 60
        E 0 90 4a 60
        E 0 90 54 60
        E 0 90 56 60
        E 0 90 60 60
        E 0 90 62 60
        E 40 80 18 00
        E 0 80 1f 00
        E 0 80 3e 00
        E 0 80 48 00
        E 0 80 4a 00
        E 0 80 54 00
        E 0 80 56 00
        E 0 80 60 00
        E 0 80 62 00
        E 280 90 1f 60
        E 0 90 56 60
        E 0 90 62 60
        E 40 80 1f 00
        E 0 80 56 00
        E 0 80 62 00
        E 280 80 74 00
        E 0 90 1a 60
        E 0 90 1f 60
        E 0 90 55 60
        E 0 90 56 60
        E 0 90 61 60
        E 0 90 62 60
        E 40 80 1a 00
        E 0 80 1f 00
        E 0 80 55 00
        E 0 80 56 00
        E 0 80 61 00
        E 0 80 62 00
        E 280 90 1f 60
        E 0 90 3e 60
        E 0 90 4a 60
        E 0 90 56 60
        E 0 90 62 60
        E 40 80 1f 00
        E 0 80 3e 00
        E 0 80 4a 00
        E 0 80 56 00
        E 0 80 62 00
        E 280 90 18 60
        E 0 90 1f 60
        E 0 90 54 60
        E 0 90 56 60
        E 0 90 60 60
        E 0 90 62 60
        E 40 80 18 00
        E 0 80 1f 00
        E 0 80 54 00
        E 0 80 56 00
        E 0 80 60 00
        E 0 80 62 00
        E 280 90 1a 60
        E 0 90 55 60
        E 0 90 61 60
        E 40 80 1a 00
        E 0 80 55 00
        E 0 80 61 00
        E 120 90 1b 60
        E 0 90 61 60
        E 40 80 1b 00
        E 0 80 61 00
        E 120 90 1a 60
        E 0 90 3d 60
        E 0 90 49 60
        E 0 90 55 60
        E 0 90 61 60
        E 40 80 1a 00
        E 0 80 3d 00
        E 0 80 49 00
        E 0 80 55 00
        E 0 80 61 00
        E 120 90 1b 60
        E 0 90 61 60
        E 40 80 1b 00
        E 0 80 61 00
        E 120 90 1a 60
        E 0 90 61 60
        E 40 80 1a 00
        E 0 80 61 00
        E 120 90 1b 60
        E 0 90 3d 60
        E 0 90 49 60
        E 0 90 55 60
        E 0 90 61 60
        E 40 80 1b 00
        E 0 80 3d 00
        E 0 80 49 00
        E 0 80 55 00
        E 0 80 61 00
        E 120 90 18 60
        E 0 90 2c 60
        E 0 90 60 60
        E 0 90 64 60
        E 40 80 18 00
        E 0 80 2c 00
        E 0 80 60 00
        E 0 80 64 00
        E 280 90 1f 60
        E 0 90 3e 60
        E 0 90 4a 60
        E 0 90 56 60
        E 0 90 62 60
        E 40 80 1f 00
        E 0 80 3e 00
        E 0 80 4a 00
        E 0 80 56 00
        E 0 80 62 00
        E 280 90 1a 60
        E 0 90 1f 60
        E 0 90 55 60
        E 0 90 56 60
        E 0 90 61 60
        E 0 90 62 60
        E 40 80 1a 00
        E 0 80 1f 00
        E 0 80 55 00
        E 0 80 56 00
        E 0 80 61 00
        E 0 80 62 00
        E 280 90 1f 60
        E 0 90 56 60
        E 0 90 62 60
        E 40 80 1f 00
        E 0 80 56 00
        E 0 80 62 00
        E 280 90 18 60
        E 0 90 1f 60
        E 0 90 3e 60
        E 0 90 48 60
        E 0 90 4a 60
        E 0 90 54 60
        E 0 90 56 60
        E 0 90 60 60
        E 0 90 62 60
        E 40 80 18 00
        E 0 80 1f 00
        E 0 80 3e 00
        E 0 80 48 00
        E 0 80 4a 00
        E 0 80 54 00
        E 0 80 56 00
        E 0 80 60 00
        E 0 80 62 00
        E 280 90 1f 60
        E 0 90 56 60
        E 0 90 62 60
        E 46 80 1f 00
        E 0 80 56 00
        E 0 80 62 00
        E 274 90 1a 60
        E 0 90 1f 60
        E 0 90 55 60
        E 0 90 56 60
        E 0 90 61 60
        E 0 90 62 60
        E 40 80 1a 00
        E 0 80 1f 00
        E 0 80 55 00
        E 0 80 56 00
        E 0 80 61 00
        E 0 80 62 00
        E 280 90 1f 60
        E 0 90 3e 60
        E 0 90 4a 60
        E 0 90 56 60
        E 0 90 62 60
        E 40 80 1f 00
        E 0 80 3e 00
        E 0 80 4a 00
        E 0 80 56 00
        E 0 80 62 00
        E 280 90 18 60
        E 0 90 1f 60
        E 0 90 54 60
        E 0 90 56 60
        E 0 90 60 60
        E 0 90 62 60
        E 40 80 18 00
        E 0 80 1f 00
        E 0 80 54 00
        E 0 80 56 00
        E 0 80 60 00
        E 0 80 62 00
        E 280 90 1f 60
        E 0 90 56 60
        E 0 90 62 60
        E 40 80 1f 00
        E 0 80 56 00
        E 0 80 62 00
        E 280 90 1a 60
        E 0 90 1f 60
        E 0 90 3d 60
        E 0 90 3e 60
        E 0 90 49 60
        E 0 90 4a 60
        E 0 90 55 60
        E 0 90 56 60
        E 0 90 61 60
        E 0 90 62 60
        E 40 80 1a 00
        E 0 80 1f 00
        E 0 80 3d 00
        E 0 80 3e 00
        E 0 80 49 00
        E 0 80 4a 00
        E 0 80 55 00
        E 0 80 56 00
        E 0 80 61 00
        E 0 80 62 00
        E 280 90 1f 60
        E 0 90 56 60
        E 0 90 62 60
        E 40 80 1f 00
        E 0 80 56 00
        E 0 80 62 00
        E 280 90 18 60
        E 0 90 1f 60
        E 0 90 54 60
        E 0 90 56 60
        E 0 90 60 60
        E 0 90 62 60
        E 40 80 18 00
        E 0 80 1f 00
        E 0 80 54 00
        E 0 80 56 00
        E 0 80 60 00
        E 0 80 62 00
        E 240 90 78 50
        E 0 90 79 50
        E 0 90 7a 50
        E 0 90 7b 50
        E 0 90 7c 50
        E 40 90 1b 60
        E 0 90 3d 60
        E 0 90 49 60
        E 0 90 55 60
        E 0 90 61 60
        E 40 80 1b 00
        E 0 80 3d 00
        E 0 80 49 00
        E 0 80 55 00
        E 0 80 61 00
        E 120 90 1a 60
        E 0 90 61 60
        E 40 80 1a 00
        E 0 80 61 00
        E 120 90 1b 60
        E 0 90 61 60
        E 40 80 1b 00
        E 0 80 61 00
        E 120 90 1a 60
        E 0 90 3d 60
        E 0 90 49 60
        E 0 90 55 60
        E 0 90 61 60
        E 40 80 1a 00
        E 0 80 3d 00
        E 0 80 49 00
        E 0 80 55 00
        E 0 80 61 00
        E 120 90 1b 60
        E 0 90 61 60
        E 40 80 1b 00
        E 0 80 61 00
        E 120 90 1a 60
        E 0 90 61 60
        E 40 80 1a 00
        E 0 80 61 00
        E 120 90 18 60
        E 0 90 26 60
        E 0 90 40 60
        E 0 90 48 60
        E 0 90 4c 60
        E 0 90 54 60
        E 0 90 58 60
        E 0 90 60 60
        E 0 90 64 60
        E 40 80 18 00
        E 0 80 26 00
        E 0 80 40 00
        E 0 80 48 00
        E 0 80 4c 00
        E 0 80 54 00
        E 0 80 58 00
        E 0 80 60 00
        E 0 80 64 00
        E 40 80 78 00
        E 0 80 79 00
        E 0 80 7a 00
        E 0 80 7b 00
        E 0 80 7c 00
        E 240 90 1f 60
        E 0 90 56 60
        E 0 90 62 60
        E 40 80 1f 00
        E 0 80 56 00
        E 0 80 62 00
        E 280 90 1a 60
        E 0 90 1f 60
        E 0 90 55 60
        E 0 90 56 60
        E 0 90 61 60
        E 0 90 62 60
        E 40 80 1a 00
        E 0 80 1f 00
        E 0 80 55 00
        E 0 80 56 00
        E 0 80 61 00
        E 0 80 62 00
        E 280 90 1f 60
        E 0 90 3e 60
        E 0 90 4a 60
        E 0 90 56 60
        E 0 90 62 60
        E 40 80 1f 00
        E 0 80 3e 00
        E 0 80 4a 00
        E 0 80 56 00
        E 0 80 62 00
        E 280 90 18 60
        E 0 90 1f 60
        E 0 90 54 60
        E 0 90 56 60
        E 0 90 60 60
        E 0 90 62 60
        E 40 80 18 00
        E 0 80 1f 00
        E 0 80 54 00
        E 0 80 56 00
        E 0 80 60 00
        E 0 80 62 00
        E 280 90 1f 60
        E 0 90 56 60
        E 0 90 62 60
        E 40 80 1f 00
        E 0 80 56 00
        E 0 80 62 00
        E 280 90 1a 60
        E 0 90 1f 60
        E 0 90 3d 60
        E 0 90 3e 60
        E 0 90 49 60
        E 0 90 4a 60
        E 0 90 55 60
        E 0 90 56 60
        E 0 90 61 60
        E 0 90 62 60
        E 40 80 1a 00
        E 0 80 1f 00
        E 0 80 3d 00
        E 0 80 3e 00
        E 0 80 49 00
        E 0 80 4a 00
        E 0 80 55 00
        E 0 80 56 00
        E 0 80 61 00
        E 0 80 62 00
        E 280 90 18 60
        E 0 90 1f 60
        E 0 90 54 60
        E 0 90 56 60
        E 0 90 60 60
        E 0 90 62 60
        E 40 80 18 00
        E 0 80 1f 00
        E 0 80 54 00
        E 0 80 56 00
        E 0 80 60 00
        E 0 80 62 00
        E 280 90 18 60
        E 0 90 1f 60
        E 0 90 54 60
        E 0 90 56 60
        E 0 90 60 60
        E 0 90 62 60
        E 40 80 18 00
        E 0 80 1f 00
        E 0 80 54 00
        E 0 80 56 00
        E 0 80 60 00
        E 0 80 62 00
        E 280 90 1f 60
        E 0 90 3e 60
        E 0 90 4a 60
        E 0 90 56 60
        E 0 90 62 60
        E 40 80 1f 00
        E 0 80 3e 00
        E 0 80 4a 00
        E 0 80 56 00
        E 0 80 62 00
        E 280 90 1a 60
        E 0 90 1f 60
        E 0 90 55 60
        E 0 90 56 60
        E 0 90 61 60
        E 0 90 62 60
        E 40 80 1a 00
        E 0 80 1f 00
        E 0 80 55 00
        E 0 80 56 00
        E 0 80 61 00
        E 0 80 62 00
        E 280 90 1f 60
        E 0 90 56 60
        E 0 90 62 60
        E 40 80 1f 00
        E 0 80 56 00
        E 0 80 62 00
        E 280 90 18 60
        E 0 90 1f 60
        E 0 90 3e 60
        E 0 90 48 60
        E 0 90 4a 60
        E 0 90 54 60
        E 0 90 56 60
        E 0 90 60 60
        E 0 90 62 60
        E 40 80 18 00
        E 0 80 1f 00
        E 0 80 3e 00
        E 0 80 48 00
        E 0 80 4a 00
        E 0 80 54 00
        E 0 80 56 00
        E 0 80 60 00
        E 0 80 62 00
        E 280 90 1a 60
        E 0 90 61 60
        E 40 80 1a 00
        E 0 80 61 00
        E 120 90 1b 60
        E 0 90 3d 60
        E 0 90 49 60
        E 0 90 55 60
        E 0 90 61 60
        E 40 80 1b 00
        E 0 80 3d 00
        E 0 80 49 00
        E 0 80 55 00
        E 0 80 61 00
        E 120 90 1a 60
        E 0 90 61 60
        E 40 80 1a 00
        E 0 80 61 00
        E 120 90 1b 60
        E 0 90 61 60
        E 40 80 1b 00
        E 0 80 61 00
        E 120 90 1a 60
        E 0 90 3d 60
        E 0 90 49 60
        E 0 90 55 60
        E 0 90 61 60
        E 40 80 1a 00
        E 0 80 3d 00
        E 0 80 49 00
        E 0 80 55 00
        E 0 80 61 00
        E 120 90 1b 60
        E 0 90 61 60
        E 40 80 1b 00
        E 0 80 61 00
        E 120 90 18 60
        E 0 90 2c 60
        E 0 90 54 60
        E 0 90 58 60
        E 0 90 60 60
        E 0 90 64 60
        E 40 80 18 00
        E 0 80 2c 00
        E 0 80 54 00
        E 0 80 58 00
        E 0 80 60 00
        E 0 80 64 00
        E 280 90 1f 60
        E 0 90 56 60
        E 0 90 62 60
        E 40 80 1f 00
        E 0 80 56 00
        E 0 80 62 00
        E 280 90 1a 60
        E 0 90 1f 60
        E 0 90 3d 60
        E 0 90 3e 60
        E 0 90 49 60
        E 0 90 4a 60
        E 0 90 55 60
        E 0 90 56 60
        E 0 90 61 60
        E 0 90 62 60
        E 40 80 1a 00
        E 0 80 1f 00
        E 0 80 3d 00
        E 0 80 3e 00
        E 0 80 49 00
        E 0 80 4a 00
        E 0 80 55 00
        E 0 80 56 00
        E 0 80 61 00
        E 0 80 62 00
        E 280 90 1f 60
        E 0 90 56 60
        E 0 90 62 60
        E 40 80 1f 00
        E 0 80 56 00
        E 0 80 62 00
        E 280 90 18 60
        E 0 90 1f 60
        E 0 90 54 60
        E 0 90 56 60
        E 0 90 60 60
        E 0 90 62 60
        E 40 80 18 00
        E 0 80 1f 00
        E 0 80 54 00
        E 0 80 56 00
        E 0 80 60 00
        E 0 80 62 00
        E 280 90 1f 60
        E 0 90 3e 60
        E 0 90 4a 60
        E 0 90 56 60
        E 0 90 62 60
        E 40 80 1f 00
        E 0 80 3e 00
        E 0 80 4a 00
        E 0 80 56 00
        E 0 80 62 00
        E 280 90 1a 60
        E 0 90 1f 60
        E 0 90 55 60
        E 0 90 56 60
        E 0 90 61 60
        E 0 90 62 60
        E 40 80 1a 00
        E 0 80 1f 00
        E 0 80 55 00
        E 0 80 56 00
        E 0 80 61 00
        E 0 80 62 00
        E 280 90 1f 60
        E 0 90 56 60
        E 0 90 62 60
        E 40 80 1f 00
        E 0 80 56 00
        E 0 80 62 00
        E 280 90 18 60
        E 0 90 1f 60
        E 0 90 3e 60
        E 0 90 48 60
        E 0 90 4a 60
        E 0 90 54 60
        E 0 90 56 60
        E 0 90 60 60
        E 0 90 62 60
        E 40 80 18 00
        E 0 80 1f 00
        E 0 80 3e 00
        E 0 80 48 00
        E 0 80 4a 00
        E 0 80 54 00
        E 0 80 56 00
        E 0 80 60 00
        E 0 80 62 00
        E 280 90 1f 60
        E 0 90 56 60
        E 0 90 62 60
        E 40 80 1f 00
        E 0 80 56 00
        E 0 80 62 00
        E 280 90 1a 60
        E 0 90 1f 60
        E 0 90 55 60
        E 0 90 56 60
        E 0 90 61 60
        E 0 90 62 60
        E 40 80 1a 00
        E 0 80 1f 00
        E 0 80 55 00
        E 0 80 56 00
        E 0 80 61 00
        E 0 80 62 00
        E 280 90 18 60
        E 0 90 1f 60
        E 0 90 3e 60
        E 0 90 48 60
        E 0 90 4a 60
        E 0 90 54 60
        E 0 90 56 60
        E 0 90 60 60
        E 0 90 62 60
        E 40 80 18 00
        E 0 80 1f 00
        E 0 80 3e 00
        E 0 80 48 00
        E 0 80 4a 00
        E 0 80 54 00
        E 0 80 56 00
        E 0 80 60 00
        E 0 80 62 00
        E 280 90 18 60
        E 0 90 1f 60
        E 0 90 54 60
        E 0 90 56 60
        E 0 90 60 60
        E 0 90 62 60
        E 40 80 18 00
        E 0 80 1f 00
        E 0 80 54 00
        E 0 80 56 00
        E 0 80 60 00
        E 0 80 62 00
        E 280 90 1f 60
        E 0 90 56 60
        E 0 90 62 60
        E 40 80 1f 00
        E 0 80 56 00
        E 0 80 62 00
        E 280 90 1b 60
        E 0 90 3d 60
        E 0 90 49 60
        E 0 90 55 60
        E 0 90 61 60
        E 40 80 1b 00
        E 0 80 3d 00
        E 0 80 49 00
        E 0 80 55 00
        E 0 80 61 00
        E 120 90 1a 60
        E 0 90 61 60
        E 40 80 1a 00
        E 0 80 61 00
        E 120 90 1b 60
        E 0 90 61 60
        E 40 80 1b 00
        E 0 80 61 00
        E 120 90 1a 60
        E 0 90 3d 60
        E 0 90 49 60
        E 0 90 55 60
        E 0 90 61 60
        E 40 80 1a 00
        E 0 80 3d 00
        E 0 80 49 00
        E 0 80 55 00
        E 0 80 61 00
        E 120 90 18 60
        E 0 90 26 60
        E 0 90 60 60
        E 0 90 64 60
        E 40 80 18 00
        E 0 80 26 00
        E 0 80 60 00
        E 0 80 64 00
        E 280 90 1f 60
        E 0 90 3e 60
        E 0 90 4a 60
        E 0 90 56 60
        E 0 90 62 60
        E 40 80 1f 00
        E 0 80 3e 00
        E 0 80 4a 00
        E 0 80 56 00
        E 0 80 62 00
        E 280 90 1a 60
        E 0 90 1f 60
        E 0 90 55 60
        E 0 90 56 60
        E 0 90 61 60
        E 0 90 62 60
        E 40 80 1a 00
        E 0 80 1f 00
        E 0 80 55 00
        E 0 80 56 00
        E 0 80 61 00
        E 0 80 62 00
        E 280 90 1f 60
        E 0 90 56 60
        E 0 90 62 60
        E 46 80 1f 00
        E 0 80 56 00
        E 0 80 62 00
        E 274 90 18 60
        E 0 90 1f 60
        E 0 90 3e 60
        E 0 90 48 60
        E 0 90 4a 60
        E 0 90 54 60
        E 0 90 56 60
        E 0 90 60 60
        E 0 90 62 60
        E 40 80 18 00
        E 0 80 1f 00
        E 0 80 3e 00
        E 0 80 48 00
        E 0 80 4a 00
        E 0 80 54 00
        E 0 80 56 00
        E 0 80 60 00
        E 0 80 62 00
        E 280 90 1f 60
        E 0 90 56 60
        E 0 90 62 60
        E 40 80 1f 00
        E 0 80 56 00
        E 0 80 62 00
        E 280 90 1a 60
        E 0 90 1f 60
        E 0 90 55 60
        E 0 90 56 60
        E 0 90 61 60
        E 0 90 62 60
        E 40 80 1a 00
        E 0 80 1f 00
        E 0 80 55 00
        E 0 80 56 00
        E 0 80 61 00
        E 0 80 62 00
        E 280 90 18 60
        E 0 90 1f 60
        E 0 90 3e 60
        E 0 90 48 60
        E 0 90 4a 60
        E 0 90 54 60
        E 0 90 56 60
        E 0 90 60 60
        E 0 90 62 60
        E 40 80 18 00
        E 0 80 1f 00
        E 0 80 3e 00
        E 0 80 48 00
        E 0 80 4a 00
        E 0 80 54 00
        E 0 80 56 00
        E 0 80 60 00
        E 0 80 62 00
        E 280 90 18 60
        E 0 90 1f 60
        E 0 90 54 60
        E 0 90 56 60
        E 0 90 60 60
        E 0 90 62 60
        E 40 80 18 00
        E 0 80 1f 00
        E 0 80 54 00
        E 0 80 56 00
        E 0 80 60 00
        E 0 80 62 00
        E 280 90 1f 60
        E 0 90 56 60
        E 0 90 62 60
        E 40 80 1f 00
        E 0 80 56 00
        E 0 80 62 00
        E 280 90 1a 60
        E 0 90 1f 60
        E 0 90 3d 60
        E 0 90 3e 60
        E 0 90 49 60
        E 0 90 4a 60
        E 0 90 55 60
        E 0 90 56 60
        E 0 90 61 60
        E 0 90 62 60
        E 40 80 1a 00
        E 0 80 1f 00
        E 0 80 3d 00
        E 0 80 3e 00
        E 0 80 49 00
        E 0 80 4a 00
        E 0 80 55 00
        E 0 80 56 00
        E 0 80 61 00
        E 0 80 62 00
        E 280 90 1f 60
        E 0 90 56 60
        E 0 90 62 60
        E 46 80 1f 00
        E 0 80 56 00
        E 0 80 62 00
        E 274 90 18 60
        E 0 90 1f 60
        E 0 90 54 60
        E 0 90 56 60
        E 0 90 60 60
        E 0 90 62 60
        E 40 80 18 00
        E 0 80 54 00
        E 0 80 60 00
        E 4 80 1f 00
        E 0 80 56 00
        E 0 80 62 00
        E 236 90 78 50
        E 0 90 79 50
        E 0 90 7a 50
        E 0 90 7b 50
        E 0 90 7c 50
        E 40 90 1b 60
        E 0 90 3d 60
        E 0 90 49 60
        E 0 90 55 60
        E 0 90 61 60
        E 40 80 1b 00
        E 0 80 3d 00
        E 0 80 49 00
        E 0 80 55 00
        E 0 80 61 00
        E 120 90 1a 60
        E 0 90 61 60
        E 40 80 1a 00
        E 0 80 61 00
        E 120 90 1b 60
        E 0 90 61 60
        E 40 80 1b 00
        E 0 80 61 00
        E 120 90 1a 60
        E 0 90 3d 60
        E 0 90 49 60
        E 0 90 55 60
        E 0 90 61 60
        E 40 80 1a 00
        E 0 80 3d 00
        E 0 80 49 00
        E 0 80 55 00
        E 0 80 61 00
        E 120 90 1b 60
        E 0 90 61 60
        E 40 80 1b 00
        E 0 80 61 00
        E 120 90 1a 60
        E 0 90 61 60
        E 40 80 1a 00
        E 0 80 61 00
        E 120 90 18 60
        E 0 90 26 60
        E 0 90 40 60
        E 0 90 48 60
        E 0 90 4c 60
        E 0 90 54 60
        E 0 90 58 60
        E 0 90 60 60
        E 0 90 64 60
        E 40 80 18 00
        E 0 80 26 00
        E 0 80 40 00
        E 0 80 48 00
        E 0 80 4c 00
        E 0 80 54 00
        E 0 80 58 00
        E 0 80 60 00
        E 0 80 64 00
        E 40 80 78 00
        E 0 80 79 00
        E 0 80 7a 00
        E 0 80 7b 00
        E 0 80 7c 00
        E 240 90 1f 60
        E 0 90 56 60
        E 0 90 62 60
        E 40 80 1f 00
        E 0 80 56 00
        E 0 80 62 00
        E 280 90 1a 60
        E 0 90 1f 60
        E 0 90 55 60
        E 0 90 56 60
        E 0 90 61 60
        E 0 90 62 60
        E 40 80 1a 00
        E 0 80 1f 00
        E 0 80 55 00
        E 0 80 56 00
        E 0 80 61 00
        E 0 80 62 00
        E 280 90 1f 60
        E 0 90 3e 60
        E 0 90 4a 60
        E 0 90 56 60
        E 0 90 62 60
        E 40 80 1f 00
        E 0 80 3e 00
        E 0 80 4a 00
        E 0 80 56 00
        E 0 80 62 00
        E 280 90 18 60
        E 0 90 1f 60
        E 0 90 54 60
        E 0 90 56 60
        E 0 90 60 60
        E 0 90 62 60
        E 40 80 18 00
        E 0 80 1f 00
        E 0 80 54 00
        E 0 80 56 00
        E 0 80 60 00
        E 0 80 62 00
        E 280 90 1f 60
        E 0 90 56 60
        E 0 90 62 60
        E 40 80 1f 00
        E 0 80 56 00
        E 0 80 62 00
        E 280 90 1a 60
        E 0 90 1f 60
        E 0 90 3d 60
        E 0 90 3e 60
        E 0 90 49 60
        E 0 90 4a 60
        E 0 90 55 60
        E 0 90 56 60
        E 0 90 61 60
        E 0 90 62 60
        E 40 80 1a 00
        E 0 80 1f 00
        E 0 80 3d 00
        E 0 80 3e 00
        E 0 80 49 00
        E 0 80 4a 00
        E 0 80 55 00
        E 0 80 56 00
        E 0 80 61 00
        E 0 80 62 00
        E 280 90 18 60
        E 0 90 1f 60
        E 0 90 54 60
        E 0 90 56 60
        E 0 90 60 60
        E 0 90 62 60
        E 40 80 18 00
        E 0 80 1f 00
        E 0 80 54 00
        E 0 80 56 00
        E 0 80 60 00
        E 0 80 62 00
        E 280 90 18 60
        E 0 90 1f 60
        E 0 90 54 60
        E 0 90 56 60
        E 0 90 60 60
        E 0 90 62 60
        E 40 80 18 00
        E 0 80 1f 00
        E 0 80 54 00
        E 0 80 56 00
        E 0 80 60 00
        E 0 80 62 00
        E 280 90 1f 60
        E 0 90 3e 60
        E 0 90 4a 60
        E 0 90 56 60
        E 0 90 62 60
        E 40 80 1f 00
        E 0 80 3e 00
        E 0 80 4a 00
        E 0 80 56 00
        E 0 80 62 00
        E 280 90 1a 60
        E 0 90 1f 60
        E 0 90 55 60
        E 0 90 56 60
        E 0 90 61 60
        E 0 90 62 60
        E 40 80 1a 00
        E 0 80 1f 00
        E 0 80 55 00
        E 0 80 56 00
        E 0 80 61 00
        E 0 80 62 00
        E 280 90 1f 60
        E 0 90 56 60
        E 0 90 62 60
        E 40 80 1f 00
        E 0 80 56 00
        E 0 80 62 00
        E 280 90 18 60
        E 0 90 1f 60
        E 0 90 3e 60
        E 0 90 48 60
        E 0 90 4a 60
        E 0 90 54 60
        E 0 90 56 60
        E 0 90 60 60
        E 0 90 62 60
        E 40 80 18 00
        E 0 80 1f 00
        E 0 80 3e 00
        E 0 80 48 00
        E 0 80 4a 00
        E 0 80 54 00
        E 0 80 56 00
        E 0 80 60 00
        E 0 80 62 00
        E 280 90 1a 60
        E 0 90 61 60
        E 40 80 1a 00
        E 0 80 61 00
        E 120 90 1b 60
        E 0 90 3d 60
        E 0 90 49 60
        E 0 90 55 60
        E 0 90 61 60
        E 40 80 1b 00
        E 0 80 3d 00
        E 0 80 49 00
        E 0 80 55 00
        E 0 80 61 00
        E 120 90 1a 60
        E 0 90 61 60
        E 40 80 1a 00
        E 0 80 61 00
        E 120 90 1b 60
        E 0 90 61 60
        E 40 80 1b 00
        E 0 80 61 00
        E 120 90 1a 60
        E 0 90 3d 60
        E 0 90 49 60
        E 0 90 55 60
        E 0 90 61 60
        E 40 80 1a 00
        E 0 80 3d 00
        E 0 80 49 00
        E 0 80 55 00
        E 0 80 61 00
        E 120 90 1b 60
        E 0 90 61 60
        E 40 80 1b 00
        E 0 80 61 00
        E 120 90 18 60
        E 0 90 2c 60
        E 0 90 54 60
        E 0 90 58 60
        E 0 90 60 60
        E 0 90 64 60
        E 40 80 18 00
        E 0 80 2c 00
        E 0 80 54 00
        E 0 80 58 00
        E 0 80 60 00
        E 0 80 64 00
        E 280 90 1f 60
        E 0 90 56 60
        E 0 90 62 60
        E 40 80 1f 00
        E 0 80 56 00
        E 0 80 62 00
        E 280 90 1a 60
        E 0 90 1f 60
        E 0 90 3d 60
        E 0 90 3e 60
        E 0 90 49 60
        E 0 90 4a 60
        E 0 90 55 60
        E 0 90 56 60
        E 0 90 61 60
        E 0 90 62 60
        E 40 80 1a 00
        E 0 80 1f 00
        E 0 80 3d 00
        E 0 80 3e 00
        E 0 80 49 00
        E 0 80 4a 00
        E 0 80 55 00
        E 0 80 56 00
        E 0 80 61 00
        E 0 80 62 00
        E 280 90 1f 60
        E 0 90 56 60
        E 0 90 62 60
        E 40 80 1f 00
        E 0 80 56 00
        E 0 80 62 00
        E 280 90 18 60
        E 0 90 1f 60
        E 0 90 54 60
        E 0 90 56 60
        E 0 90 60 60
        E 0 90 62 60
        E 40 80 18 00
        E 0 80 1f 00
        E 0 80 54 00
        E 0 80 56 00
        E 0 80 60 00
        E 0 80 62 00
        E 280 90 1f 60
        E 0 90 3e 60
        E 0 90 4a 60
        E 0 90 56 60
        E 0 90 62 60
        E 40 80 1f 00
        E 0 80 3e 00
        E 0 80 4a 00
        E 0 80 56 00
        E 0 80 62 00
        E 280 90 1a 60
        E 0 90 1f 60
        E 0 90 55 60
        E 0 90 56 60
        E 0 90 61 60
        E 0 90 62 60
        E 40 80 1a 00
        E 0 80 1f 00
        E 0 80 55 00
        E 0 80 56 00
        E 0 80 61 00
        E 0 80 62 00
        E 280 90 1f 60
        E 0 90 56 60
        E 0 90 62 60
        E 40 80 1f 00
        E 0 80 56 00
        E 0 80 62 00
        E 280 90 18 60
        E 0 90 1f 60
        E 0 90 3e 60
        E 0 90 48 60
        E 0 90 4a 60
        E 0 90 54 60
        E 0 90 56 60
        E 0 90 60 60
        E 0 90 62 60
        E 40 80 18 00
        E 0 80 1f 00
        E 0 80 3e 00
        E 0 80 48 00
        E 0 80 4a 00
        E 0 80 54 00
        E 0 80 56 00
        E 0 80 60 00
        E 0 80 62 00
        E 280 90 1f 60
        E 0 90 56 60
        E 0 90 62 60
        E 40 80 1f 00
        E 0 80 56 00
        E 0 80 62 00
        E 280 90 1a 60
        E 0 90 1f 60
        E 0 90 55 60
        E 0 90 56 60
        E 0 90 61 60
        E 0 90 62 60
        E 40 80 1a 00
        E 0 80 1f 00
        E 0 80 55 00
        E 0 80 56 00
        E 0 80 61 00
        E 0 80 62 00
        E 280 90 1f 60
        E 0 90 3e 60
        E 0 90 4a 60
        E 0 90 56 60
        E 0 90 62 60
        E 40 80 1f 00
        E 0 80 3e 00
        E 0 80 4a 00
        E 0 80 56 00
        E 0 80 62 00
        E 280 90 18 60
        E 0 90 1f 60
        E 0 90 54 60
        E 0 90 56 60
        E 0 90 60 60
        E 0 90 62 60
        E 40 80 18 00
        E 0 80 1f 00
        E 0 80 54 00
        E 0 80 56 00
        E 0 80 60 00
        E 0 80 62 00
        E 0 90 74 50
        E 280 90 1a 60
        E 0 90 55 60
        E 0 90 61 60
        E 40 80 1a 00
        E 0 80 55 00
        E 0 80 61 00
        E 120 90 1b 60
        E 0 90 61 60
        E 40 80 1b 00
        E 0 80 61 00
        E 120 90 1a 60
        E 0 90 3d 60
        E 0 90 49 60
        E 0 90 55 60
        E 0 90 61 60
        E 40 80 1a 00
        E 0 80 3d 00
        E 0 80 49 00
        E 0 80 55 00
        E 0 80 61 00
        E 120 90 1b 60
        E 0 90 61 60
        E 40 80 1b 00
        E 0 80 61 00
        E 120 90 1a 60
        E 0 90 61 60
        E 40 80 1a 00
        E 0 80 61 00
        E 120 90 1b 60
        E 0 90 3d 60
        E 0 90 49 60
        E 0 90 55 60
        E 0 90 61 60
        E 40 80 1b 00
        E 0 80 3d 00
        E 0 80 49 00
        E 0 80 55 00
        E 0 80 61 00
        E 120 90 18 60
        E 0 90 2c 60
        E 0 90 60 60
        E 0 90 64 60
        E 40 80 18 00
        E 0 80 2c 00
        E 0 80 60 00
        E 0 80 64 00
        E 280 90 1f 60
        E 0 90 3e 60
        E 0 90 4a 60
        E 0 90 56 60
        E 0 90 62 60
        E 40 80 1f 00
        E 0 80 3e 00
        E 0 80 4a 00
        E 0 80 56 00
        E 0 80 62 00
        E 280 90 1a 60
        E 0 90 1f 60
        E 0 90 55 60
        E 0 90 56 60
        E 0 90 61 60
        E 0 90 62 60
        E 40 80 1a 00
        E 0 80 1f 00
        E 0 80 55 00
        E 0 80 56 00
        E 0 80 61 00
        E 0 80 62 00
        E 280 90 18 60
        E 0 90 1f 60
        E 0 90 54 60
        E 0 90 56 60
        E 0 90 60 60
        E 0 90 62 60
        E 40 80 18 00
        E 0 80 1f 00
        E 0 80 54 00
        E 0 80 56 00
        E 0 80 60 00
        E 0 80 62 00
        E 280 90 18 60
        E 0 90 1f 60
        E 0 90 3e 60
        E 0 90 48 60
        E 0 90 4a 60
        E 0 90 54 60
        E 0 90 56 60
        E 0 90 60 60
        E 0 90 62 60
        E 40 80 18 00
        E 0 80 1f 00
        E 0 80 3e 00
        E 0 80 48 00
        E 0 80 4a 00
        E 0 80 54 00
        E 0 80 56 00
        E 0 80 60 00
        E 0 80 62 00
        E 280 90 1f 60
        E 0 90 56 60
        E 0 90 62 60
        E 40 80 1f 00
        E 0 80 56 00
        E 0 80 62 00
        E 280 90 1a 60
        E 0 90 1f 60
        E 0 90 55 60
        E 0 90 56 60
        E 0 90 61 60
        E 0 90 62 60
        E 40 80 1a 00
        E 0 80 1f 00
        E 0 80 55 00
        E 0 80 56 00
        E 0 80 61 00
        E 0 80 62 00
        E 280 90 1f 60
        E 0 90 3e 60
        E 0 90 4a 60
        E 0 90 56 60
        E 0 90 62 60
        E 40 80 1f 00
        E 0 80 3e 00
        E 0 80 4a 00
        E 0 80 56 00
        E 0 80 62 00
        E 280 90 18 60
        E 0 90 1f 60
        E 0 90 54 60
        E 0 90 56 60
        E 0 90 60 60
        E 0 90 62 60
        E 40 80 18 00
        E 0 80 1f 00
        E 0 80 54 00
        E 0 80 56 00
        E 0 80 60 00
        E 0 80 62 00
        E 280 90 1f 60
        E 0 90 56 60
        E 0 90 62 60
        E 40 80 1f 00
        E 0 80 56 00
        E 0 80 62 00
        E 280 90 1a 60
        E 0 90 1f 60
        E 0 90 3d 60
        E 0 90 3e 60
        E 0 90 49 60
        E 0 90 4a 60
        E 0 90 55 60
        E 0 90 56 60
        E 0 90 61 60
        E 0 90 62 60
        E 40 80 1a 00
        E 0 80 1f 00
        E 0 80 3d 00
        E 0 80 3e 00
        E 0 80 49 00
        E 0 80 4a 00
        E 0 80 55 00
        E 0 80 56 00
        E 0 80 61 00
        E 0 80 62 00
        E 280 90 1f 60
        E 0 90 56 60
        E 0 90 62 60
        E 40 80 1f 00
        E 0 80 56 00
        E 0 80 62 00
        E 280 90 18 60
        E 0 90 1f 60
        E 0 90 54 60
        E 0 90 56 60
        E 0 90 60 60
        E 0 90 62 60
        E 40 80 18 00
        E 0 80 1f 00
        E 0 80 54 00
        E 0 80 56 00
        E 0 80 60 00
        E 0 80 62 00
        E 280 90 1f 60
        E 0 90 3e 60
        E 0 90 4a 60
        E 0 90 56 60
        E 0 90 62 60
        E 40 80 1f 00
        E 0 80 3e 00
        E 0 80 4a 00
        E 0 80 56 00
        E 0 80 62 00
        E 280 90 1a 60
        E 0 90 61 60
        E 40 80 1a 00
        E 0 80 61 00
        E 120 90 1b 60
        E 0 90 3d 60
        E 0 90 49 60
        E 0 90 55 60
        E 0 90 61 60
        E 40 80 1b 00
        E 0 80 3d 00
        E 0 80 49 00
        E 0 80 55 00
        E 0 80 61 00
        E 120 90 1a 60
        E 0 90 61 60
        E 40 80 1a 00
        E 0 80 61 00
        E 120 90 1b 60
        E 0 90 61 60
        E 40 80 1b 00
        E 0 80 61 00
        E 120 90 18 60
        E 0 90 2c 60
        E 0 90 40 60
        E 0 90 48 60
        E 0 90 4c 60
        E 0 90 54 60
        E 0 90 58 60
        E 0 90 60 60
        E 0 90 64 60
        E 40 80 18 00
        E 0 80 2c 00
        E 0 80 40 00
        E 0 80 48 00
        E 0 80 4c 00
        E 0 80 54 00
        E 0 80 58 00
        E 0 80 60 00
        E 0 80 64 00
        E 280 90 1f 60
        E 0 90 56 60
        E 0 90 62 60
        E 40 80 1f 00
        E 0 80 56 00
        E 0 80 62 00
        E 280 90 1a 60
        E 0 90 1f 60
        E 0 90 55 60
        E 0 90 56 60
        E 0 90 61 60
        E 0 90 62 60
        E 40 80 1a 00
        E 0 80 1f 00
        E 0 80 55 00
        E 0 80 56 00
        E 0 80 61 00
        E 0 80 62 00
        E 280 90 1f 60
        E 0 90 3e 60
        E 0 90 4a 60
        E 0 90 56 60
        E 0 90 62 60
        E 40 80 1f 00
        E 0 80 3e 00
        E 0 80 4a 00
        E 0 80 56 00
        E 0 80 62 00
        E 280 90 18 60
        E 0 90 1f 60
        E 0 90 54 60
        E 0 90 56 60
        E 0 90 60 60
        E 0 90 62 60
        E 40 80 18 00
        E 0 80 1f 00
        E 0 80 54 00
        E 0 80 56 00
        E 0 80 60 00
        E 0 80 62 00
        E 280 90 1f 60
        E 0 90 56 60
        E 0 90 62 60
        E 40 80 1f 00
        E 0 80 56 00
        E 0 80 62 00
        E 280 90 1a 60
        E 0 90 1f 60
        E 0 90 3d 60
        E 0 90 3e 60
        E 0 90 49 60
        E 0 90 4a 60
        E 0 90 55 60
        E 0 90 56 60
        E 0 90 61 60
        E 0 90 62 60
        E 40 80 1a 00
        E 0 80 1f 00
        E 0 80 3d 00
        E 0 80 3e 00
        E 0 80 49 00
        E 0 80 4a 00
        E 0 80 55 00
        E 0 80 56 00
        E 0 80 61 00
        E 0 80 62 00
        E 280 90 1f 60
        E 0 90 56 60
        E 0 90 62 60
        E 40 80 1f 00
        E 0 80 56 00
        E 0 80 62 00
        E 280 90 18 60
        E 0 90 1f 60
        E 0 90 54 60
        E 0 90 56 60
        E 0 90 60 60
        E 0 90 62 60
        E 40 80 18 00
        E 0 80 1f 00
        E 0 80 54 00
        E 0 80 56 00
        E 0 80 60 00
        E 0 80 62 00
        E 280 90 1f 60
        E 0 90 3e 60
        E 0 90 4a 60
        E 0 90 56 60
        E 0 90 62 60
        E 40 80 1f 00
        E 0 80 3e 00
        E 0 80 4a 00
        E 0 80 56 00
        E 0 80 62 00
        E 280 90 1a 60
        E 0 90 1f 60
        E 0 90 55 60
        E 0 90 56 60
        E 0 90 61 60
        E 0 90 62 60
        E 40 80 1a 00
        E 0 80 1f 00
        E 0 80 55 00
        E 0 80 56 00
        E 0 80 61 00
        E 0 80 62 00
        E 280 90 18 60
        E 0 90 1f 60
        E 0 90 54 60
        E 0 90 56 60
        E 0 90 60 60
        E 0 90 62 60
        E 40 80 18 00
        E 0 80 1f 00
        E 0 80 54 00
        E 0 80 56 00
        E 0 80 60 00
        E 0 80 62 00
        E 220 80 74 00
        E 60 90 18 60
        E 0 90 1f 60
        E 0 90 3e 60
        E 0 90 48 60
        E 0 90 4a 60
        E 0 90 54 60
        E 0 90 56 60
        E 0 90 60 60
        E 0 90 62 60
        E 40 80 18 00
        E 0 80 1f 00
        E 0 80 3e 00
        E 0 80 48 00
        E 0 80 4a 00
        E 0 80 54 00
        E 0 80 56 00
        E 0 80 60 00
        E 0 80 62 00
        E 280 90 1f 60
        E 0 90 56 60
        E 0 90 62 60
        E 40 80 1f 00
        E 0 80 56 00
        E 0 80 62 00
        E 240 90 78 50
        E 0 90 79 50
        E 0 90 7a 50
        E 0 90 7b 50
        E 0 90 7c 50
        E 40 90 1a 60
        E 0 90 55 60
        E 0 90 61 60
        E 40 80 1a 00
        E 0 80 55 00
        E 0 80 61 00
        E 120 90 1b 60
        E 0 90 61 60
        E 40 80 1b 00
        E 0 80 61 00
        E 120 90 1a 60
        E 0 90 3d 60
        E 0 90 49 60
        E 0 90 55 60
        E 0 90 61 60
        E 40 80 1a 00
        E 0 80 3d 00
        E 0 80 49 00
        E 0 80 55 00
        E 0 80 61 00
        E 120 90 1b 60
        E 0 90 61 60
        E 40 80 1b 00
        E 0 80 61 00
        E 120 90 18 60
        E 0 90 2c 60
        E 0 90 54 60
        E 0 90 58 60
        E 0 90 60 60
        E 0 90 64 60
        E 40 80 18 00
        E 0 80 2c 00
        E 0 80 54 00
        E 0 80 58 00
        E 0 80 60 00
        E 0 80 64 00
        E 120 80 78 00
        E 0 80 79 00
        E 0 80 7a 00
        E 0 80 7b 00
        E 0 80 7c 00
        E 160 90 1f 60
        E 0 90 56 60
        E 0 90 62 60
        E 40 80 1f 00
        E 0 80 56 00
        E 0 80 62 00
        E 280 90 1a 60
        E 0 90 1f 60
        E 0 90 3d 60
        E 0 90 3e 60
        E 0 90 49 60
        E 0 90 4a 60
        E 0 90 55 60
        E 0 90 56 60
        E 0 90 61 60
        E 0 90 62 60
        E 40 80 1a 00
        E 0 80 1f 00
        E 0 80 3d 00
        E 0 80 3e 00
        E 0 80 49 00
        E 0 80 4a 00
        E 0 80 55 00
        E 0 80 56 00
        E 0 80 61 00
        E 0 80 62 00
        E 280 90 1f 60
        E 0 90 56 60
        E 0 90 62 60
        E 40 80 1f 00
        E 0 80 56 00
        E 0 80 62 00
        E 280 90 18 60
        E 0 90 1f 60
        E 0 90 54 60
        E 0 90 56 60
        E 0 90 60 60
        E 0 90 62 60
        E 40 80 18 00
        E 0 80 1f 00
        E 0 80 54 00
        E 0 80 56 00
        E 0 80 60 00
        E 0 80 62 00
        E 280 90 1f 60
        E 0 90 3e 60
        E 0 90 4a 60
        E 0 90 56 60
        E 0 90 62 60
        E 40 80 1f 00
        E 0 80 3e 00
        E 0 80 4a 00
        E 0 80 56 00
        E 0 80 62 00
        E 280 90 1a 60
        E 0 90 1f 60
        E 0 90 55 60
        E 0 90 56 60
        E 0 90 61 60
        E 0 90 62 60
        E 40 80 1a 00
        E 0 80 1f 00
        E 0 80 55 00
        E 0 80 56 00
        E 0 80 61 00
        E 0 80 62 00
        E 280 90 1f 60
        E 0 90 56 60
        E 0 90 62 60
        E 40 80 1f 00
        E 0 80 56 00
        E 0 80 62 00
        E 280 90 18 60
        E 0 90 1f 60
        E 0 90 3e 60
        E 0 90 48 60
        E 0 90 4a 60
        E 0 90 54 60
        E 0 90 56 60
        E 0 90 60 60
        E 0 90 62 60
        E 40 80 18 00
        E 0 80 1f 00
        E 0 80 3e 00
        E 0 80 48 00
        E 0 80 4a 00
        E 0 80 54 00
        E 0 80 56 00
        E 0 80 60 00
        E 0 80 62 00
        E 280 90 1f 60
        E 0 90 56 60
        E 0 90 62 60
        E 40 80 1f 00
        E 0 80 56 00
        E 0 80 62 00
        E 280 90 1a 60
        E 0 90 1f 60
        E 0 90 55 60
        E 0 90 56 60
        E 0 90 61 60
        E 0 90 62 60
        E 40 80 1a 00
        E 0 80 1f 00
        E 0 80 55 00
        E 0 80 56 00
        E 0 80 61 00
        E 0 80 62 00
        E 280 90 18 60
        E 0 90 1f 60
        E 0 90 3e 60
        E 0 90 48 60
        E 0 90 4a 60
        E 0 90 54 60
        E 0 90 56 60
        E 0 90 60 60
        E 0 90 62 60
        E 40 80 18 00
        E 0 80 1f 00
        E 0 80 3e 00
        E 0 80 48 00
        E 0 80 4a 00
        E 0 80 54 00
        E 0 80 56 00
        E 0 80 60 00
        E 0 80 62 00
        E 280 90 18 60
        E 0 90 1f 60
        E 0 90 54 60
        E 0 90 56 60
        E 0 90 60 60
        E 0 90 62 60
        E 40 80 18 00
        E 0 80 1f 00
        E 0 80 54 00
        E 0 80 56 00
        E 0 80 60 00
        E 0 80 62 00
        E 280 90 1f 60
        E 0 90 56 60
        E 0 90 62 60
        E 40 80 1f 00
        E 0 80 56 00
        E 0 80 62 00
        E 280 90 1b 60
        E 0 90 3d 60
        E 0 90 49 60
        E 0 90 55 60
        E 0 90 61 60
        E 40 80 1b 00
        E 0 80 3d 00
        E 0 80 49 00
        E 0 80 55 00
        E 0 80 61 00
        E 120 90 1a 60
        E 0 90 61 60
        E 40 80 1a 00
        E 0 80 61 00
        E 120 90 1b 60
        E 0 90 61 60
        E 40 80 1b 00
        E 0 80 61 00
        E 120 90 1a 60
        E 0 90 3d 60
        E 0 90 49 60
        E 0 90 55 60
        E 0 90 61 60
        E 40 80 1a 00
        E 0 80 3d 00
        E 0 80 49 00
        E 0 80 55 00
        E 0 80 61 00
        E 120 90 18 60
        E 0 90 26 60
        E 0 90 60 60
        E 0 90 64 60
        E 40 80 18 00
        E 0 80 26 00
        E 0 80 60 00
        E 0 80 64 00
        E 280 90 1f 60
        E 0 90 3e 60
        E 0 90 4a 60
        E 0 90 56 60
        E 0 90 62 60
        E 40 80 1f 00
        E 0 80 3e 00
        E 0 80 4a 00
        E 0 80 56 00
        E 0 80 62 00
        E 280 90 1a 60
        E 0 90 1f 60
        E 0 90 55 60
        E 0 90 56 60
        E 0 90 61 60
        E 0 90 62 60
        E 40 80 1a 00
        E 0 80 1f 00
        E 0 80 55 00
        E 0 80 56 00
        E 0 80 61 00
        E 0 80 62 00
        E 280 90 1a 60
        E 0 90 1f 60
        E 0 90 55 60
        E 0 90 56 60
        E 0 90 61 60
        E 0 90 62 60
        E 40 80 1a 00
        E 0 80 1f 00
        E 0 80 55 00
        E 0 80 56 00
        E 0 80 61 00
        E 0 80 62 00
        E 280 90 18 60
        E 0 90 1f 60
        E 0 90 3e 60
        E 0 90 48 60
        E 0 90 4a 60
        E 0 90 54 60
        E 0 90 56 60
        E 0 90 60 60
        E 0 90 62 60
        E 40 80 18 00
        E 0 80 1f 00
        E 0 80 3e 00
        E 0 80 48 00
        E 0 80 4a 00
        E 0 80 54 00
        E 0 80 56 00
        E 0 80 60 00
        E 0 80 62 00
        E 280 90 1f 60
        E 0 90 56 60
        E 0 90 62 60
        E 40 80 1f 00
        E 0 80 56 00
        E 0 80 62 00
        E 280 90 1a 60
        E 0 90 1f 60
        E 0 90 55 60
        E 0 90 56 60
        E 0 90 61 60
        E 0 90 62 60
        E 40 80 1a 00
        E 0 80 1f 00
        E 0 80 55 00
        E 0 80 56 00
        E 0 80 61 00
        E 0 80 62 00
        E 280 90 18 60
        E 0 90 1f 60
        E 0 90 3e 60
        E 0 90 48 60
        E 0 90 4a 60
        E 0 90 54 60
        E 0 90 56 60
        E 0 90 60 60
        E 0 90 62 60
        E 40 80 18 00
        E 0 80 1f 00
        E 0 80 3e 00
        E 0 80 48 00
        E 0 80 4a 00
        E 0 80 54 00
        E 0 80 56 00
        E 0 80 60 00
        E 0 80 62 00
        E 280 90 18 60
        E 0 90 1f 60
        E 0 90 54 60
        E 0 90 56 60
        E 0 90 60 60
        E 0 90 62 60
        E 40 80 18 00
        E 0 80 1f 00
        E 0 80 54 00
        E 0 80 56 00
        E 0 80 60 00
        E 0 80 62 00
        E 280 90 1f 60
        E 0 90 56 60
        E 0 90 62 60
        E 40 80 1f 00
        E 0 80 56 00
        E 0 80 62 00
        E 280 90 1a 60
        E 0 90 1f 60
        E 0 90 3d 60
        E 0 90 3e 60
        E 0 90 49 60
        E 0 90 4a 60
        E 0 90 55 60
        E 0 90 56 60
        E 0 90 61 60
        E 0 90 62 60
        E 40 80 1a 00
        E 0 80 1f 00
        E 0 80 3d 00
        E 0 80 3e 00
        E 0 80 49 00
        E 0 80 4a 00
        E 0 80 55 00
        E 0 80 56 00
        E 0 80 61 00
        E 0 80 62 00
        E 280 90 1f 60
        E 0 90 56 60
        E 0 90 62 60
        E 40 80 1f 00
        E 0 80 56 00
        E 0 80 62 00
        E 280 90 18 60
        E 0 90 1f 60
        E 0 90 54 60
        E 0 90 56 60
        E 0 90 60 60
        E 0 90 62 60
        E 40 80 18 00
        E 0 80 1f 00
        E 0 80 54 00
        E 0 80 56 00
        E 0 80 60 00
        E 0 80 62 00
        E 280 90 1f 60
        E 0 90 3e 60
        E 0 90 4a 60
        E 0 90 56 60
        E 0 90 62 60
        E 40 80 1f 00
        E 0 80 3e 00
        E 0 80 4a 00
        E 0 80 56 00
        E 0 80 62 00
        E 280 90 1a 60
        E 0 90 61 60
        E 40 80 1a 00
        E 0 80 61 00
        E 120 90 1b 60
        E 0 90 3d 60
        E 0 90 49 60
        E 0 90 55 60
        E 0 90 61 60
        E 40 80 1b 00
        E 0 80 3d 00
        E 0 80 49 00
        E 0 80 55 00
        E 0 80 61 00
        E 120 90 1a 60
        E 0 90 61 60
        E 40 80 1a 00
        E 0 80 61 00
        E 120 90 1b 60
        E 0 90 61 60
        E 40 80 1b 00
        E 0 80 61 00
        E 120 90 18 60
        E 0 90 2c 60
        E 0 90 40 60
        E 0 90 48 60
        E 0 90 4c 60
        E 0 90 54 60
        E 0 90 58 60
        E 0 90 60 60
        E 0 90 64 60
        E 40 80 18 00
        E 0 80 2c 00
        E 0 80 40 00
        E 0 80 48 00
        E 0 80 4c 00
        E 0 80 54 00
        E 0 80 58 00
        E 0 80 60 00
        E 0 80 64 00
        E 280 90 1f 60
        E 0 90 56 60
        E 0 90 62 60
        E 40 80 1f 00
        E 0 80 56 00
        E 0 80 62 00
        E 280 90 1a 60
        E 0 90 1f 60
        E 0 90 55 60
        E 0 90 56 60
        E 0 90 61 60
        E 0 90 62 60
        E 40 80 1a 00
        E 0 80 1f 00
        E 0 80 55 00
        E 0 80 56 00
        E 0 80 61 00
        E 0 80 62 00
        E 280 90 1f 60
        E 0 90 3e 60
        E 0 90 4a 60
        E 0 90 56 60
        E 0 90 62 60
        E 40 80 1f 00
        E 0 80 3e 00
        E 0 80 4a 00
        E 0 80 56 00
        E 0 80 62 00
        E 280 90 18 60
        E 0 90 1f 60
        E 0 90 54 60
        E 0 90 56 60
        E 0 90 60 60
        E 0 90 62 60
        E 40 80 18 00
        E 0 80 1f 00
        E 0 80 54 00
        E 0 80 56 00
        E 0 80 60 00
        E 0 80 62 00
        E 280 90 1f 60
        E 0 90 56 60
        E 0 90 62 60
        E 40 80 1f 00
        E 0 80 56 00
        E 0 80 62 00
        E 280 90 1a 60
        E 0 90 1f 60
        E 0 90 3d 60
        E 0 90 3e 60
        E 0 90 49 60
        E 0 90 4a 60
        E 0 90 55 60
        E 0 90 56 60
        E 0 90 61 60
        E 0 90 62 60
        E 40 80 1a 00
        E 0 80 1f 00
        E 0 80 3d 00
        E 0 80 3e 00
        E 0 80 49 00
        E 0 80 4a 00
        E 0 80 55 00
        E 0 80 56 00
        E 0 80 61 00
        E 0 80 62 00
        E 280 90 18 60
        E 0 90 1f 60
        E 0 90 54 60
        E 0 90 56 60
        E 0 90 60 60
        E 0 90 62 60
        E 40 80 18 00
        E 0 80 1f 00
        E 0 80 54 00
        E 0 80 56 00
        E 0 80 60 00
        E 0 80 62 00
        E 280 90 18 60
        E 0 90 1f 60
        E 0 90 54 60
        E 0 90 56 60
        E 0 90 60 60
        E 0 90 62 60
        E 40 80 18 00
        E 0 80 1f 00
        E 0 80 54 00
        E 0 80 56 00
        E 0 80 60 00
        E 0 80 62 00
        E 280 90 1f 60
        E 0 90 3e 60
        E 0 90 4a 60
        E 0 90 56 60
        E 0 90 62 60
        E 40 80 1f 00
        E 0 80 3e 00
        E 0 80 4a 00
        E 0 80 56 00
        E 0 80 62 00
        E 280 90 1a 60
        E 0 90 1f 60
        E 0 90 55 60
        E 0 90 56 60
        E 0 90 61 60
        E 0 90 62 60
        E 40 80 1a 00
        E 0 80 1f 00
        E 0 80 55 00
        E 0 80 56 00
        E 0 80 61 00
        E 0 80 62 00
        E 280 90 1f 60
        E 0 90 56 60
        E 0 90 62 60
        E 40 80 1f 00
        E 0 80 56 00
        E 0 80 62 00
        E 280 90 18 60
        E 0 90 1f 60
        E 0 90 3e 60
        E 0 90 48 60
        E 0 90 4a 60
        E 0 90 54 60
        E 0 90 56 60
        E 0 90 60 60
        E 0 90 62 60
        E 40 80 18 00
        E 0 80 1f 00
        E 0 80 3e 00
        E 0 80 48 00
        E 0 80 4a 00
        E 0 80 54 00
        E 0 80 56 00
        E 0 80 60 00
        E 0 80 62 00
        E 240 90 78 50
        E 0 90 79 50
        E 0 90 7a 50
        E 0 90 7b 50
        E 0 90 7c 50
        E 40 90 1a 60
        E 0 90 61 60
        E 40 80 1a 00
        E 0 80 61 00
        E 120 90 1b 60
        E 0 90 3d 60
        E 0 90 49 60
        E 0 90 55 60
        E 0 90 61 60
        E 40 80 1b 00
        E 0 80 3d 00
        E 0 80 49 00
        E 0 80 55 00
        E 0 80 61 00
        E 120 90 1a 60
        E 0 90 61 60
        E 40 80 1a 00
        E 0 80 61 00
        E 120 90 1b 60
        E 0 90 61 60
        E 40 80 1b 00
        E 0 80 61 00
        E 120 90 1a 60
        E 0 90 3d 60
        E 0 90 49 60
        E 0 90 55 60
        E 0 90 61 60
        E 40 80 1a 00
        E 0 80 3d 00
        E 0 80 49 00
        E 0 80 55 00
        E 0 80 61 00
        E 120 90 1b 60
        E 0 90 61 60
        E 40 80 1b 00
        E 0 80 61 00
        E 120 90 18 60
        E 0 90 2c 60
        E 0 90 54 60
        E 0 90 58 60
        E 0 90 60 60
        E 0 90 64 60
        E 40 80 18 00
        E 0 80 2c 00
        E 0 80 54 00
        E 0 80 58 00
        E 0 80 60 00
        E 0 80 64 00
        E 40 80 78 00
        E 0 80 79 00
        E 0 80 7a 00
        E 0 80 7b 00
        E 0 80 7c 00
        E 240 90 1f 60
        E 0 90 56 60
        E 0 90 62 60
        E 40 80 1f 00
        E 0 80 56 00
        E 0 80 62 00
        E 280 90 1a 60
        E 0 90 1f 60
        E 0 90 3d 60
        E 0 90 3e 60
        E 0 90 49 60
        E 0 90 4a 60
        E 0 90 55 60
        E 0 90 56 60
        E 0 90 61 60
        E 0 90 62 60
        E 40 80 1a 00
        E 0 80 1f 00
        E 0 80 3d 00
        E 0 80 3e 00
        E 0 80 49 00
        E 0 80 4a 00
        E 0 80 55 00
        E 0 80 56 00
        E 0 80 61 00
        E 0 80 62 00
        E 280 90 1f 60
        E 0 90 56 60
        E 0 90 62 60
        E 40 80 1f 00
        E 0 80 56 00
        E 0 80 62 00
        E 280 90 18 60
        E 0 90 1f 60
        E 0 90 54 60
        E 0 90 56 60
        E 0 90 60 60
        E 0 90 62 60
        E 40 80 18 00
        E 0 80 1f 00
        E 0 80 54 00
        E 0 80 56 00
        E 0 80 60 00
        E 0 80 62 00
        E 280 90 1f 60
        E 0 90 3e 60
        E 0 90 4a 60
        E 0 90 56 60
        E 0 90 62 60
        E 40 80 1f 00
        E 0 80 3e 00
        E 0 80 4a 00
        E 0 80 56 00
        E 0 80 62 00
        E 280 90 1a 60
        E 0 90 1f 60
        E 0 90 55 60
        E 0 90 56 60
        E 0 90 61 60
        E 0 90 62 60
        E 40 80 1a 00
        E 0 80 1f 00
        E 0 80 55 00
        E 0 80 56 00
        E 0 80 61 00
        E 0 80 62 00
        E 280 90 1f 60
        E 0 90 56 60
        E 0 90 62 60
        E 40 80 1f 00
        E 0 80 56 00
        E 0 80 62 00
        E 280 90 18 60
        E 0 90 1f 60
        E 0 90 3e 60
        E 0 90 48 60
        E 0 90 4a 60
        E 0 90 54 60
        E 0 90 56 60
        E 0 90 60 60
        E 0 90 62 60
        E 40 80 18 00
        E 0 80 1f 00
        E 0 80 3e 00
        E 0 80 48 00
        E 0 80 4a 00
        E 0 80 54 00
        E 0 80 56 00
        E 0 80 60 00
        E 0 80 62 00
        E 280 90 1f 60
        E 0 90 56 60
        E 0 90 62 60
        E 40 80 1f 00
        E 0 80 56 00
        E 0 80 62 00
        E 280 90 1a 60
        E 0 90 1f 60
        E 0 90 55 60
        E 0 90 56 60
        E 0 90 61 60
        E 0 90 62 60
        E 40 80 1a 00
        E 0 80 1f 00
        E 0 80 55 00
        E 0 80 56 00
        E 0 80 61 00
        E 0 80 62 00
        E 280 90 1f 60
        E 0 90 3e 60
        E 0 90 4a 60
        E 0 90 56 60
        E 0 90 62 60
        E 40 80 1f 00
        E 0 80 3e 00
        E 0 80 4a 00
        E 0 80 56 00
        E 0 80 62 00
        E 280 90 18 60
        E 0 90 1f 60
        E 0 90 54 60
        E 0 90 56 60
        E 0 90 60 60
        E 0 90 62 60
        E 40 80 18 00
        E 0 80 1f 00
        E 0 80 54 00
        E 0 80 56 00
        E 0 80 60 00
        E 0 80 62 00
        E 280 90 1a 60
        E 0 90 55 60
        E 0 90 61 60
        E 40 80 1a 00
        E 0 80 55 00
        E 0 80 61 00
        E 120 90 1b 60
        E 0 90 61 60
        E 40 80 1b 00
        E 0 80 61 00
        E 120 90 1a 60
        E 0 90 3d 60
        E 0 90 49 60
        E 0 90 55 60
        E 0 90 61 60
        E 40 80 1a 00
        E 0 80 3d 00
        E 0 80 49 00
        E 0 80 55 00
        E 0 80 61 00
        E 120 90 1b 60
        E 0 90 61 60
        E 40 80 1b 00
        E 0 80 61 00
        E 120 90 1a 60
        E 0 90 61 60
        E 40 80 1a 00
        E 0 80 61 00
        E 120 90 1b 60
        E 0 90 3d 60
        E 0 90 49 60
        E 0 90 55 60
        E 0 90 61 60
        E 40 80 1b 00
        E 0 80 3d 00
        E 0 80 49 00
        E 0 80 55 00
        E 0 80 61 00
        E 120 90 18 60
        E 0 90 2c 60
        E 0 90 60 60
        E 0 90 64 60
        E 40 80 18 00
        E 0 80 2c 00
        E 0 80 60 00
        E 0 80 64 00
        E 280 90 1f 60
        E 0 90 3e 60
        E 0 90 4a 60
        E 0 90 56 60
        E 0 90 62 60
        E 40 80 1f 00
        E 0 80 3e 00
        E 0 80 4a 00
        E 0 80 56 00
        E 0 80 62 00
        E 280 90 1a 60
        E 0 90 1f 60
        E 0 90 55 60
        E 0 90 56 60
        E 0 90 61 60
        E 0 90 62 60
        E 40 80 1a 00
        E 0 80 1f 00
        E 0 80 55 00
        E 0 80 56 00
        E 0 80 61 00
        E 0 80 62 00
        E 280 90 1f 60
        E 0 90 56 60
        E 0 90 62 60
        E 40 80 1f 00
        E 0 80 56 00
        E 0 80 62 00
        E 280 90 18 60
        E 0 90 1f 60
        E 0 90 3e 60
        E 0 90 48 60
        E 0 90 4a 60
        E 0 90 54 60
        E 0 90 56 60
        E 0 90 60 60
        E 0 90 62 60
        E 40 80 18 00
        E 0 80 1f 00
        E 0 80 3e 00
        E 0 80 48 00
        E 0 80 4a 00
        E 0 80 54 00
        E 0 80 56 00
        E 0 80 60 00
        E 0 80 62 00
        E 280 90 1f 60
        E 0 90 56 60
        E 0 90 62 60
        E 40 80 1f 00
        E 0 80 56 00
        E 0 80 62 00
        E 280 90 1a 60
        E 0 90 1f 60
        E 0 90 55 60
        E 0 90 56 60
        E 0 90 61 60
        E 0 90 62 60
        E 40 80 1a 00
        E 0 80 1f 00
        E 0 80 55 00
        E 0 80 56 00
        E 0 80 61 00
        E 0 80 62 00
        E 280 90 18 60
        E 0 90 1f 60
        E 0 90 3e 60
        E 0 90 48 60
        E 0 90 4a 60
        E 0 90 54 60
        E 0 90 56 60
        E 0 90 60 60
        E 0 90 62 60
        E 40 80 18 00
        E 0 80 1f 00
        E 0 80 3e 00
        E 0 80 48 00
        E 0 80 4a 00
        E 0 80 54 00
        E 0 80 56 00
        E 0 80 60 00
        E 0 80 62 00
        E 280 90 18 60
        E 0 90 1f 60
        E 0 90 54 60
        E 0 90 56 60
        E 0 90 60 60
        E 0 90 62 60
        E 40 80 18 00
        E 0 80 1f 00
        E 0 80 54 00
        E 0 80 56 00
        E 0 80 60 00
        E 0 80 62 00
        E 280 90 1f 60
        E 0 90 56 60
        E 0 90 62 60
        E 40 80 1f 00
        E 0 80 56 00
        E 0 80 62 00
        E 280 90 1a 60
        E 0 90 1f 60
        E 0 90 3d 60
        E 0 90 3e 60
        E 0 90 49 60
        E 0 90 4a 60
        E 0 90 55 60
        E 0 90 56 60
        E 0 90 61 60
        E 0 90 62 60
        E 40 80 1a 00
        E 0 80 1f 00
        E 0 80 3d 00
        E 0 80 3e 00
        E 0 80 49 00
        E 0 80 4a 00
        E 0 80 55 00
        E 0 80 56 00
        E 0 80 61 00
        E 0 80 62 00
        E 280 90 1f 60
        E 0 90 56 60
        E 0 90 62 60
        E 45 80 1f 00
        E 0 80 56 00
        E 0 80 62 00
        E 275 90 18 60
        E 0 90 1f 60
        E 0 90 54 60
        E 0 90 56 60
        E 0 90 60 60
        E 0 90 62 60
        E 40 80 18 00
        E 0 80 1f 00
        E 0 80 54 00
        E 0 80 56 00
        E 0 80 60 00
        E 0 80 62 00
        E 280 90 1f 60
        E 0 90 3e 60
        E 0 90 4a 60
        E 0 90 56 60
        E 0 90 62 60
        E 40 80 1f 00
        E 0 80 3e 00
        E 0 80 4a 00
        E 0 80 56 00
        E 0 80 62 00
        E 280 90 1a 60
        E 0 90 1f 60
        E 0 90 55 60
        E 0 90 56 60
        E 0 90 61 60
        E 0 90 62 60
        E 40 80 1a 00
        E 0 80 1f 00
        E 0 80 55 00
        E 0 80 56 00
        E 0 80 61 00
        E 0 80 62 00
        E 280 90 18 60
        E 0 90 1f 60
        E 0 90 54 60
        E 0 90 56 60
        E 0 90 60 60
        E 0 90 62 60
        E 40 80 18 00
        E 0 80 1f 00
        E 0 80 54 00
        E 0 80 56 00
        E 0 80 60 00
        E 0 80 62 00
        E 280 90 18 60
        E 0 90 1f 60
        E 0 90 3e 60
        E 0 90 48 60
        E 0 90 4a 60
        E 0 90 54 60
        E 0 90 56 60
        E 0 90 60 60
        E 0 90 62 60
        E 40 80 18 00
        E 0 80 1f 00
        E 0 80 3e 00
        E 0 80 48 00
        E 0 80 4a 00
        E 0 80 54 00
        E 0 80 56 00
        E 0 80 60 00
        E 0 80 62 00
        E 280 90 1f 60
        E 0 90 56 60
        E 0 90 62 60
        E 40 80 1f 00
        E 0 80 56 00
        E 0 80 62 00
        E 280 90 1a 60
        E 0 90 1f 60
        E 0 90 55 60
        E 0 90 56 60
        E 0 90 61 60
        E 0 90 62 60
        E 40 80 1a 00
        E 0 80 1f 00
        E 0 80 55 00
        E 0 80 56 00
        E 0 80 61 00
        E 0 80 62 00
        E 280 90 1f 60
        E 0 90 3e 60
        E 0 90 4a 60
        E 0 90 56 60
        E 0 90 62 60
        E 40 80 1f 00
        E 0 80 3e 00
        E 0 80 4a 00
        E 0 80 56 00
        E 0 80 62 00
        E 280 90 18 60
        E 0 90 1f 60
        E 0 90 54 60
        E 0 90 56 60
        E 0 90 60 60
        E 0 90 62 60
        E 40 80 18 00
        E 0 80 1f 00
        E 0 80 54 00
        E 0 80 56 00
        E 0 80 60 00
        E 0 80 62 00
        E 280 90 1f 60
        E 0 90 56 60
        E 0 90 62 60
        E 40 80 1f 00
        E 0 80 56 00
        E 0 80 62 00
        E 280 90 1a 60
        E 0 90 1f 60
        E 0 90 3d 60
        E 0 90 3e 60
        E 0 90 49 60
        E 0 90 4a 60
        E 0 90 55 60
        E 0 90 56 60
        E 0 90 61 60
        E 0 90 62 60
        E 40 80 1a 00
        E 0 80 1f 00
        E 0 80 3d 00
        E 0 80 3e 00
        E 0 80 49 00
        E 0 80 4a 00
        E 0 80 55 00
        E 0 80 56 00
        E 0 80 61 00
        E 0 80 62 00
        E 280 90 1f 60
        E 0 90 56 60
        E 0 90 62 60
        E 40 80 1f 00
        E 0 80 56 00
        E 0 80 62 00
        E 280 90 18 60
        E 0 90 1f 60
        E 0 90 54 60
        E 0 90 56 60
        E 0 90 60 60
        E 0 90 62 60
        E 40 80 18 00
        E 0 80 1f 00
        E 0 80 54 00
        E 0 80 56 00
        E 0 80 60 00
        E 0 80 62 00
        E 280 90 1f 60
        E 0 90 3e 60
        E 0 90 4a 60
        E 0 90 56 60
        E 0 90 62 60
        E 40 80 1f 00
        E 0 80 3e 00
        E 0 80 4a 00
        E 0 80 56 00
        E 0 80 62 00
        E 280 90 1a 60
        E 0 90 1f 60
        E 0 90 55 60
        E 0 90 56 60
        E 0 90 61 60
        E 0 90 62 60
        E 40 80 1a 00
        E 0 80 1f 00
        E 0 80 55 00
        E 0 80 56 00
        E 0 80 61 00
        E 0 80 62 00
        E 280 90 1f 60
        E 0 90 56 60
        E 0 90 62 60
        E 40 80 1f 00
        E 0 80 56 00
        E 0 80 62 00
        E 280 90 18 60
        E 0 90 1f 60
        E 0 90 3e 60
        E 0 90 48 60
        E 0 90 4a 60
        E 0 90 54 60
        E 0 90 56 60
        E 0 90 60 60
        E 0 90 62 60
        E 40 80 18 00
        E 0 80 1f 00
        E 0 80 3e 00
        E 0 80 48 00
        E 0 80 4a 00
        E 0 80 54 00
        E 0 80 56 00
        E 0 80 60 00
        E 0 80 62 00
        E 280 90 1f 60
        E 0 90 56 60
        E 0 90 62 60
        E 40 80 1f 00
        E 0 80 56 00
        E 0 80 62 00
        E 200 90 74 50
        E 80 90 1a 60
        E 0 90 55 60
        E 0 90 61 60
        E 40 80 1a 00
        E 0 80 55 00
        E 0 80 61 00
        E 120 90 1b 60
        E 0 90 61 60
        E 40 80 1b 00
        E 0 80 61 00
        E 120 90 1a 60
        E 0 90 3d 60
        E 0 90 49 60
        E 0 90 55 60
        E 0 90 61 60
        E 40 80 1a 00
        E 0 80 3d 00
        E 0 80 49 00
        E 0 80 55 00
        E 0 80 61 00
        E 120 90 1b 60
        E 0 90 61 60
        E 40 80 1b 00
        E 0 80 61 00
        E 120 90 18 60
        E 0 90 2c 60
        E 0 90 54 60
        E 0 90 58 60
        E 0 90 60 60
        E 0 90 64 60
        E 40 80 18 00
        E 0 80 2c 00
        E 0 80 54 00
        E 0 80 58 00
        E 0 80 60 00
        E 0 80 64 00
        E 240 80 74 00
        E 40 90 1f 60
        E 0 90 56 60
        E 0 90 62 60
        E 40 80 1f 00
        E 0 80 56 00
        E 0 80 62 00
        E 280 90 1a 60
        E 0 90 1f 60
        E 0 90 3d 60
        E 0 90 3e 60
        E 0 90 49 60
        E 0 90 4a 60
        E 0 90 55 60
        E 0 90 56 60
        E 0 90 61 60
        E 0 90 62 60
        E 40 80 1a 00
        E 0 80 1f 00
        E 0 80 3d 00
        E 0 80 3e 00
        E 0 80 49 00
        E 0 80 4a 00
        E 0 80 55 00
        E 0 80 56 00
        E 0 80 61 00
        E 0 80 62 00
        E 280 90 1f 60
        E 0 90 56 60
        E 0 90 62 60
        E 40 80 1f 00
        E 0 80 56 00
        E 0 80 62 00
        E 280 90 18 60
        E 0 90 1f 60
        E 0 90 54 60
        E 0 90 56 60
        E 0 90 60 60
        E 0 90 62 60
        E 40 80 18 00
        E 0 80 1f 00
        E 0 80 54 00
        E 0 80 56 00
        E 0 80 60 00
        E 0 80 62 00
        E 280 90 1f 60
        E 0 90 3e 60
        E 0 90 4a 60
        E 0 90 56 60
        E 0 90 62 60
        E 40 80 1f 00
        E 0 80 3e 00
        E 0 80 4a 00
        E 0 80 56 00
        E 0 80 62 00
        E 280 90 1a 60
        E 0 90 1f 60
        E 0 90 55 60
        E 0 90 56 60
        E 0 90 61 60
        E 0 90 62 60
        E 40 80 1a 00
        E 0 80 1f 00
        E 0 80 55 00
        E 0 80 56 00
        E 0 80 61 00
        E 0 80 62 00
        E 280 90 18 60
        E 0 90 1f 60
        E 0 90 54 60
        E 0 90 56 60
        E 0 90 60 60
        E 0 90 62 60
        E 40 80 18 00
        E 0 80 1f 00
        E 0 80 54 00
        E 0 80 56 00
        E 0 80 60 00
        E 0 80 62 00
        E 280 90 18 60
        E 0 90 1f 60
        E 0 90 3e 60
        E 0 90 48 60
        E 0 90 4a 60
        E 0 90 54 60
        E 0 90 56 60
        E 0 90 60 60
        E 0 90 62 60
        E 40 80 18 00
        E 0 80 1f 00
        E 0 80 3e 00
        E 0 80 48 00
        E 0 80 4a 00
        E 0 80 54 00
        E 0 80 56 00
        E 0 80 60 00
        E 0 80 62 00
        E 280 90 1f 60
        E 0 90 56 60
        E 0 90 62 60
        E 40 80 1f 00
        E 0 80 56 00
        E 0 80 62 00
        E 280 90 1a 60
        E 0 90 1f 60
        E 0 90 55 60
        E 0 90 56 60
        E 0 90 61 60
        E 0 90 62 60
        E 40 80 1a 00
        E 0 80 1f 00
        E 0 80 55 00
        E 0 80 56 00
        E 0 80 61 00
        E 0 80 62 00
        E 280 90 1f 60
        E 0 90 3e 60
        E 0 90 4a 60
        E 0 90 56 60
        E 0 90 62 60
        E 40 80 1f 00
        E 0 80 3e 00
        E 0 80 4a 00
        E 0 80 56 00
        E 0 80 62 00
        E 280 90 18 60
        E 0 90 1f 60
        E 0 90 54 60
        E 0 90 56 60
        E 0 90 60 60
        E 0 90 62 60
        E 40 80 18 00
        E 0 80 1f 00
        E 0 80 54 00
        E 0 80 56 00
        E 0 80 60 00
        E 0 80 62 00
        E 280 90 1f 60
        E 0 90 56 60
        E 0 90 62 60
        E 40 80 1f 00
        E 0 80 56 00
        E 0 80 62 00
        E 280 90 1a 60
        E 0 90 1f 60
        E 0 90 3d 60
        E 0 90 3e 60
        E 0 90 49 60
        E 0 90 4a 60
        E 0 90 55 60
        E 0 90 56 60
        E 0 90 61 60
        E 0 90 62 60
        E 40 80 1a 00
        E 0 80 1f 00
        E 0 80 3d 00
        E 0 80 3e 00
        E 0 80 49 00
        E 0 80 4a 00
        E 0 80 55 00
        E 0 80 56 00
        E 0 80 61 00
        E 0 80 62 00
        E 280 90 18 60
        E 0 90 1f 60
        E 0 90 54 60
        E 0 90 56 60
        E 0 90 60 60
        E 0 90 62 60
        E 40 80 18 00
        E 0 80 1f 00
        E 0 80 54 00
        E 0 80 56 00
        E 0 80 60 00
        E 0 80 62 00
        E 280 90 18 60
        E 0 90 1f 60
        E 0 90 54 60
        E 0 90 56 60
        E 0 90 60 60
        E 0 90 62 60
        E 40 80 18 00
        E 0 80 1f 00
        E 0 80 54 00
        E 0 80 56 00
        E 0 80 60 00
        E 0 80 62 00
        E 280 90 1f 60
        E 0 90 3e 60
        E 0 90 4a 60
        E 0 90 56 60
        E 0 90 62 60
        E 40 80 1f 00
        E 0 80 3e 00
        E 0 80 4a 00
        E 0 80 56 00
        E 0 80 62 00
        E 280 90 1a 60
        E 0 90 1f 60
        E 0 90 55 60
        E 0 90 56 60
        E 0 90 61 60
        E 0 90 62 60
        E 40 80 1a 00
        E 0 80 1f 00
        E 0 80 55 00
        E 0 80 56 00
        E 0 80 61 00
        E 0 80 62 00
        E 280 90 1f 60
        E 0 90 56 60
        E 0 90 62 60
        E 40 80 1f 00
        E 0 80 56 00
        E 0 80 62 00
        E 280 90 18 60
        E 0 90 1f 60
        E 0 90 3e 60
        E 0 90 48 60
        E 0 90 4a 60
        E 0 90 54 60
        E 0 90 56 60
        E 0 90 60 60
        E 0 90 62 60
        E 40 80 18 00
        E 0 80 1f 00
        E 0 80 3e 00
        E 0 80 48 00
        E 0 80 4a 00
        E 0 80 54 00
        E 0 80 56 00
        E 0 80 60 00
        E 0 80 62 00
        E 280 90 1f 60
        E 0 90 56 60
        E 0 90 62 60
        E 40 80 1f 00
        E 0 80 56 00
        E 0 80 62 00
        E 280 90 1a 60
        E 0 90 1f 60
        E 0 90 55 60
        E 0 90 56 60
        E 0 90 61 60
        E 0 90 62 60
        E 40 80 1a 00
        E 0 80 1f 00
        E 0 80 55 00
        E 0 80 56 00
        E 0 80 61 00
        E 0 80 62 00
        E 280 90 1f 60
        E 0 90 3e 60
        E 0 90 4a 60
        E 0 90 56 60
        E 0 90 62 60
        E 40 80 1f 00
        E 0 80 3e 00
        E 0 80 4a 00
        E 0 80 56 00
        E 0 80 62 00
        E 280 90 18 60
        E 0 90 1f 60
        E 0 90 54 60
        E 0 90 56 60
        E 0 90 60 60
        E 0 90 62 60
        E 40 80 18 00
        E 0 80 1f 00
        E 0 80 54 00
        E 0 80 56 00
        E 0 80 60 00
        E 0 80 62 00
        E 280 90 1f 60
        E 0 90 56 60
        E 0 90 62 60
        E 40 80 1f 00
        E 0 80 56 00
        E 0 80 62 00
        E 280 90 1a 60
        E 0 90 1f 60
        E 0 90 3d 60
        E 0 90 3e 60
        E 0 90 49 60
        E 0 90 4a 60
        E 0 90 55 60
        E 0 90 56 60
        E 0 90 61 60
        E 0 90 62 60
        E 40 80 1a 00
        E 0 80 1f 00
        E 0 80 3d 00
        E 0 80 3e 00
        E 0 80 49 00
        E 0 80 4a 00
        E 0 80 55 00
        E 0 80 56 00
        E 0 80 61 00
        E 0 80 62 00
        E 280 90 1f 60
        E 0 90 56 60
        E 0 90 62 60
        E 40 80 1f 00
        E 0 80 56 00
        E 0 80 62 00
        E 280 90 18 60
        E 0 90 1f 60
        E 0 90 54 60
        E 0 90 56 60
        E 0 90 60 60
        E 0 90 62 60
        E 40 80 18 00
        E 0 80 1f 00
        E 0 80 54 00
        E 0 80 56 00
        E 0 80 60 00
        E 0 80 62 00
        E 200 90 78 50
        E 0 90 79 50
        E 0 90 7a 50
        E 0 90 7b 50
        E 0 90 7c 50
        E 80 90 1b 60
        E 0 90 3d 60
        E 0 90 49 60
        E 0 90 55 60
        E 0 90 61 60
        E 40 80 1b 00
        E 0 80 3d 00
        E 0 80 49 00
        E 0 80 55 00
        E 0 80 61 00
        E 120 90 1a 60
        E 0 90 61 60
        E 40 80 1a 00
        E 0 80 61 00
        E 120 90 1b 60
        E 0 90 61 60
        E 40 80 1b 00
        E 0 80 61 00
        E 120 90 1a 60
        E 0 90 3d 60
        E 0 90 49 60
        E 0 90 55 60
        E 0 90 61 60
        E 40 80 1a 00
        E 0 80 3d 00
        E 0 80 49 00
        E 0 80 55 00
        E 0 80 61 00
        E 120 90 1b 60
        E 0 90 61 60
        E 40 80 1b 00
        E 0 80 61 00
        E 120 90 1a 60
        E 0 90 61 60
        E 40 80 1a 00
        E 0 80 61 00
        E 120 90 18 60
        E 0 90 26 60
        E 0 90 40 60
        E 0 90 48 60
        E 0 90 4c 60
        E 0 90 54 60
        E 0 90 58 60
        E 0 90 60 60
        E 0 90 64 60
        E 40 80 78 00
        E 0 80 79 00
        E 0 80 7a 00
        E 0 80 7b 00
        E 0 80 7c 00
        E 0 80 18 00
        E 0 80 26 00
        E 0 80 40 00
        E 0 80 48 00
        E 0 80 4c 00
        E 0 80 54 00
        E 0 80 58 00
        E 0 80 60 00
        E 0 80 64 00
        E 280 90 1f 60
        E 0 90 56 60
        E 0 90 62 60
        E 40 80 1f 00
        E 0 80 56 00
        E 0 80 62 00
        E 280 90 1a 60
        E 0 90 1f 60
        E 0 90 55 60
        E 0 90 56 60
        E 0 90 61 60
        E 0 90 62 60
        E 40 80 1a 00
        E 0 80 1f 00
        E 0 80 55 00
        E 0 80 56 00
        E 0 80 61 00
        E 0 80 62 00
        E 280 90 1f 60
        E 0 90 3e 60
        E 0 90 4a 60
        E 0 90 56 60
        E 0 90 62 60
        E 40 80 1f 00
        E 0 80 3e 00
        E 0 80 4a 00
        E 0 80 56 00
        E 0 80 62 00
        E 280 90 18 60
        E 0 90 1f 60
        E 0 90 54 60
        E 0 90 56 60
        E 0 90 60 60
        E 0 90 62 60
        E 40 80 18 00
        E 0 80 1f 00
        E 0 80 54 00
        E 0 80 56 00
        E 0 80 60 00
        E 0 80 62 00
        E 280 90 1f 60
        E 0 90 56 60
        E 0 90 62 60
        E 40 80 1f 00
        E 0 80 56 00
        E 0 80 62 00
        E 280 90 1a 60
        E 0 90 1f 60
        E 0 90 3d 60
        E 0 90 3e 60
        E 0 90 49 60
        E 0 90 4a 60
        E 0 90 55 60
        E 0 90 56 60
        E 0 90 61 60
        E 0 90 62 60
        E 40 80 1a 00
        E 0 80 1f 00
        E 0 80 3d 00
        E 0 80 3e 00
        E 0 80 49 00
        E 0 80 4a 00
        E 0 80 55 00
        E 0 80 56 00
        E 0 80 61 00
        E 0 80 62 00
        E 280 90 18 60
        E 0 90 1f 60
        E 0 90 54 60
        E 0 90 56 60
        E 0 90 60 60
        E 0 90 62 60
        E 40 80 18 00
        E 0 80 1f 00
        E 0 80 54 00
        E 0 80 56 00
        E 0 80 60 00
        E 0 80 62 00
        E 280 90 18 60
        E 0 90 1f 60
        E 0 90 54 60
        E 0 90 56 60
        E 0 90 60 60
        E 0 90 62 60
        E 40 80 18 00
        E 0 80 1f 00
        E 0 80 54 00
        E 0 80 56 00
        E 0 80 60 00
        E 0 80 62 00
        E 280 90 1f 60
        E 0 90 3e 60
        E 0 90 4a 60
        E 0 90 56 60
        E 0 90 62 60
        E 40 80 1f 00
        E 0 80 3e 00
        E 0 80 4a 00
        E 0 80 56 00
        E 0 80 62 00
        E 280 90 1a 60
        E 0 90 1f 60
        E 0 90 55 60
        E 0 90 56 60
        E 0 90 61 60
        E 0 90 62 60
        E 40 80 1a 00
        E 0 80 1f 00
        E 0 80 55 00
        E 0 80 56 00
        E 0 80 61 00
        E 0 80 62 00
        E 280 90 1f 60
        E 0 90 56 60
        E 0 90 62 60
        E 40 80 1f 00
        E 0 80 56 00
        E 0 80 62 00
        E 280 90 18 60
        E 0 90 1f 60
        E 0 90 3e 60
        E 0 90 48 60
        E 0 90 4a 60
        E 0 90 54 60
        E 0 90 56 60
        E 0 90 60 60
        E 0 90 62 60
        E 40 80 18 00
        E 0 80 1f 00
        E 0 80 3e 00
        E 0 80 48 00
        E 0 80 4a 00
        E 0 80 54 00
        E 0 80 56 00
        E 0 80 60 00
        E 0 80 62 00
        E 280 90 1f 60
        E 0 90 56 60
        E 0 90 62 60
        E 40 80 1f 00
        E 0 80 56 00
        E 0 80 62 00
        E 280 90 1a 60
        E 0 90 55 60
        E 0 90 61 60
        E 40 80 1a 00
        E 0 80 55 00
        E 0 80 61 00
        E 120 90 1b 60
        E 0 90 61 60
        E 40 80 1b 00
        E 0 80 61 00
        E 120 90 1a 60
        E 0 90 3d 60
        E 0 90 49 60
        E 0 90 55 60
        E 0 90 61 60
        E 40 80 1a 00
        E 0 80 3d 00
        E 0 80 49 00
        E 0 80 55 00
        E 0 80 61 00
        E 120 90 1b 60
        E 0 90 61 60
        E 40 80 1b 00
        E 0 80 61 00
        E 120 90 18 60
        E 0 90 2c 60
        E 0 90 54 60
        E 0 90 58 60
        E 0 90 60 60
        E 0 90 64 60
        E 40 80 18 00
        E 0 80 2c 00
        E 0 80 54 00
        E 0 80 58 00
        E 0 80 60 00
        E 0 80 64 00
        E 280 90 1f 60
        E 0 90 56 60
        E 0 90 62 60
        E 40 80 1f 00
        E 0 80 56 00
        E 0 80 62 00
        E 280 90 1a 60
        E 0 90 1f 60
        E 0 90 3d 60
        E 0 90 3e 60
        E 0 90 49 60
        E 0 90 4a 60
        E 0 90 55 60
        E 0 90 56 60
        E 0 90 61 60
        E 0 90 62 60
        E 40 80 1a 00
        E 0 80 1f 00
        E 0 80 3d 00
        E 0 80 3e 00
        E 0 80 49 00
        E 0 80 4a 00
        E 0 80 55 00
        E 0 80 56 00
        E 0 80 61 00
        E 0 80 62 00
        E 280 90 1f 60
        E 0 90 56 60
        E 0 90 62 60
        E 40 80 1f 00
        E 0 80 56 00
        E 0 80 62 00
        E 280 90 18 60
        E 0 90 1f 60
        E 0 90 54 60
        E 0 90 56 60
        E 0 90 60 60
        E 0 90 62 60
        E 40 80 18 00
        E 0 80 54 00
        E 0 80 60 00
        E 3 80 1f 00
        E 0 80 56 00
        E 0 80 62 00
        E 277 90 1f 60
        E 0 90 3e 60
        E 0 90 4a 60
        E 0 90 56 60
        E 0 90 62 60
        E 40 80 1f 00
        E 0 80 3e 00
        E 0 80 4a 00
        E 0 80 56 00
        E 0 80 62 00
        E 280 90 1a 60
        E 0 90 1f 60
        E 0 90 55 60
        E 0 90 56 60
        E 0 90 61 60
        E 0 90 62 60
        E 40 80 1a 00
        E 0 80 1f 00
        E 0 80 55 00
        E 0 80 56 00
        E 0 80 61 00
        E 0 80 62 00
        E 280 90 1f 60
        E 0 90 56 60
        E 0 90 62 60
        E 40 80 1f 00
        E 0 80 56 00
        E 0 80 62 00
        E 280 90 18 60
        E 0 90 1f 60
        E 0 90 3e 60
        E 0 90 48 60
        E 0 90 4a 60
        E 0 90 54 60
        E 0 90 56 60
        E 0 90 60 60
        E 0 90 62 60
        E 40 80 18 00
        E 0 80 1f 00
        E 0 80 3e 00
        E 0 80 48 00
        E 0 80 4a 00
        E 0 80 54 00
        E 0 80 56 00
        E 0 80 60 00
        E 0 80 62 00
        E 280 90 1f 60
        E 0 90 56 60
        E 0 90 62 60
        E 40 80 1f 00
        E 0 80 56 00
        E 0 80 62 00
        E 280 90 1a 60
        E 0 90 1f 60
        E 0 90 55 60
        E 0 90 56 60
        E 0 90 61 60
        E 0 90 62 60
        E 40 80 1a 00
        E 0 80 1f 00
        E 0 80 55 00
        E 0 80 56 00
        E 0 80 61 00
        E 0 80 62 00
        E 280 90 1f 60
        E 0 90 3e 60
        E 0 90 4a 60
        E 0 90 56 60
        E 0 90 62 60
        E 40 80 1f 00
        E 0 80 3e 00
        E 0 80 4a 00
        E 0 80 56 00
        E 0 80 62 00
        E 280 90 18 60
        E 0 90 1f 60
        E 0 90 54 60
        E 0 90 56 60
        E 0 90 60 60
        E 0 90 62 60
        E 40 80 18 00
        E 0 80 1f 00
        E 0 80 54 00
        E 0 80 56 00
        E 0 80 60 00
        E 0 80 62 00
        E 320 90 74 50
        E 120 90 1a 60
        E 0 90 61 60
        E 40 80 1a 00
        E 0 80 61 00
        E 120 90 1b 60
        E 0 90 3d 60
        E 0 90 49 60
        E 0 90 55 60
        E 0 90 61 60
        E 40 80 1b 00
        E 0 80 3d 00
        E 0 80 49 00
        E 0 80 55 00
        E 0 80 61 00
        E 280 90 1a 60
        E 0 90 61 60
        E 40 80 1a 00
        E 0 80 61 00
        E 120 90 1b 60
        E 0 90 3d 60
        E 0 90 49 60
        E 0 90 55 60
        E 0 90 61 60
        E 40 80 1b 00
        E 0 80 3d 00
        E 0 80 49 00
        E 0 80 55 00
        E 0 80 61 00
        E 120 90 18 60
        E 0 90 2c 60
        E 0 90 60 60
        E 0 90 64 60
        E 40 80 18 00
        E 0 80 2c 00
        E 0 80 60 00
        E 0 80 64 00
        E 160 80 74 00
        E 120 90 1f 60
        E 0 90 3e 60
        E 0 90 4a 60
        E 0 90 56 60
        E 0 90 62 60
        E 40 80 1f 00
        E 0 80 3e 00
        E 0 80 4a 00
        E 0 80 56 00
        E 0 80 62 00
        E 280 90 1a 60
        E 0 90 1f 60
        E 0 90 55 60
        E 0 90 56 60
        E 0 90 61 60
        E 0 90 62 60
        E 40 80 1a 00
        E 0 80 1f 00
        E 0 80 55 00
        E 0 80 56 00
        E 0 80 61 00
        E 0 80 62 00
        E 280 90 1f 60
        E 0 90 56 60
        E 0 90 62 60
        E 40 80 1f 00
        E 0 80 56 00
        E 0 80 62 00
        E 280 90 18 60
        E 0 90 1f 60
        E 0 90 3e 60
        E 0 90 48 60
        E 0 90 4a 60
        E 0 90 54 60
        E 0 90 56 60
        E 0 90 60 60
        E 0 90 62 60
        E 40 80 18 00
        E 0 80 1f 00
        E 0 80 3e 00
        E 0 80 48 00
        E 0 80 4a 00
        E 0 80 54 00
        E 0 80 56 00
        E 0 80 60 00
        E 0 80 62 00
        E 280 90 18 60
        E 0 90 1f 60
        E 0 90 54 60
        E 0 90 56 60
        E 0 90 60 60
        E 0 90 62 60
        E 40 80 18 00
        E 0 80 1f 00
        E 0 80 54 00
        E 0 80 56 00
        E 0 80 60 00
        E 0 80 62 00
        E 280 90 1a 60
        E 0 90 1f 60
        E 0 90 55 60
        E 0 90 56 60
        E 0 90 61 60
        E 0 90 62 60
        E 40 80 1a 00
        E 0 80 1f 00
        E 0 80 55 00
        E 0 80 56 00
        E 0 80 61 00
        E 0 80 62 00
        E 280 90 18 60
        E 0 90 1f 60
        E 0 90 3e 60
        E 0 90 48 60
        E 0 90 4a 60
        E 0 90 54 60
        E 0 90 56 60
        E 0 90 60 60
        E 0 90 62 60
        E 40 80 18 00
        E 0 80 1f 00
        E 0 80 3e 00
        E 0 80 48 00
        E 0 80 4a 00
        E 0 80 54 00
        E 0 80 56 00
        E 0 80 60 00
        E 0 80 62 00
        E 280 90 18 60
        E 0 90 1f 60
        E 0 90 54 60
        E 0 90 56 60
        E 0 90 60 60
        E 0 90 62 60
        E 40 80 18 00
        E 0 80 1f 00
        E 0 80 54 00
        E 0 80 56 00
        E 0 80 60 00
        E 0 80 62 00
        E 280 90 1f 60
        E 0 90 56 60
        E 0 90 62 60
        E 40 80 1f 00
        E 0 80 56 00
        E 0 80 62 00
        E 280 90 1a 60
        E 0 90 1f 60
        E 0 90 3d 60
        E 0 90 3e 60
        E 0 90 49 60
        E 0 90 4a 60
        E 0 90 55 60
        E 0 90 56 60
        E 0 90 61 60
        E 0 90 62 60
        E 40 80 1a 00
        E 0 80 1f 00
        E 0 80 3d 00
        E 0 80 3e 00
        E 0 80 49 00
        E 0 80 4a 00
        E 0 80 55 00
        E 0 80 56 00
        E 0 80 61 00
        E 0 80 62 00
        E 280 90 1f 60
        E 0 90 56 60
        E 0 90 62 60
        E 40 80 1f 00
        E 0 80 56 00
        E 0 80 62 00
        E 280 90 18 60
        E 0 90 1f 60
        E 0 90 54 60
        E 0 90 56 60
        E 0 90 60 60
        E 0 90 62 60
        E 40 80 18 00
        E 0 80 1f 00
        E 0 80 54 00
        E 0 80 56 00
        E 0 80 60 00
        E 0 80 62 00
        E 280 90 1f 60
        E 0 90 3e 60
        E 0 90 4a 60
        E 0 90 56 60
        E 0 90 62 60
        E 40 80 1f 00
        E 0 80 3e 00
        E 0 80 4a 00
        E 0 80 56 00
        E 0 80 62 00
        E 280 90 1a 60
        E 0 90 61 60
        E 40 80 1a 00
        E 0 80 61 00
        E 120 90 1b 60
        E 0 90 3d 60
        E 0 90 49 60
        E 0 90 55 60
        E 0 90 61 60
        E 40 80 1b 00
        E 0 80 3d 00
        E 0 80 49 00
        E 0 80 55 00
        E 0 80 61 00
        E 120 90 1a 60
        E 0 90 61 60
        E 40 80 1a 00
        E 0 80 61 00
        E 120 90 1b 60
        E 0 90 61 60
        E 40 80 1b 00
        E 0 80 61 00
        E 120 90 18 60
        E 0 90 2c 60
        E 0 90 40 60
        E 0 90 48 60
        E 0 90 4c 60
        E 0 90 54 60
        E 0 90 58 60
        E 0 90 60 60
        E 0 90 64 60
        E 40 80 18 00
        E 0 80 2c 00
        E 0 80 40 00
        E 0 80 48 00
        E 0 80 4c 00
        E 0 80 54 00
        E 0 80 58 00
        E 0 80 60 00
        E 0 80 64 00
        E 280 90 1f 60
        E 0 90 56 60
        E 0 90 62 60
        E 40 80 1f 00
        E 0 80 56 00
        E 0 80 62 00
        E 280 90 1a 60
        E 0 90 1f 60
        E 0 90 55 60
        E 0 90 56 60
        E 0 90 61 60
        E 0 90 62 60
        E 40 80 1a 00
        E 0 80 1f 00
        E 0 80 55 00
        E 0 80 56 00
        E 0 80 61 00
        E 0 80 62 00
        E 280 90 1f 60
        E 0 90 3e 60
        E 0 90 4a 60
        E 0 90 56 60
        E 0 90 62 60
        E 40 80 1f 00
        E 0 80 3e 00
        E 0 80 4a 00
        E 0 80 56 00
        E 0 80 62 00
        E 280 90 18 60
        E 0 90 1f 60
        E 0 90 54 60
        E 0 90 56 60
        E 0 90 60 60
        E 0 90 62 60
        E 40 80 18 00
        E 0 80 1f 00
        E 0 80 54 00
        E 0 80 56 00
        E 0 80 60 00
        E 0 80 62 00
        E 280 90 1f 60
        E 0 90 56 60
        E 0 90 62 60
        E 40 80 1f 00
        E 0 80 56 00
        E 0 80 62 00
        E 280 90 1a 60
        E 0 90 1f 60
        E 0 90 3d 60
        E 0 90 3e 60
        E 0 90 49 60
        E 0 90 4a 60
        E 0 90 55 60
        E 0 90 56 60
        E 0 90 61 60
        E 0 90 62 60
        E 40 80 1a 00
        E 0 80 1f 00
        E 0 80 3d 00
        E 0 80 3e 00
        E 0 80 49 00
        E 0 80 4a 00
        E 0 80 55 00
        E 0 80 56 00
        E 0 80 61 00
        E 0 80 62 00
        E 280 90 1f 60
        E 0 90 56 60
        E 0 90 62 60
        E 40 80 1f 00
        E 0 80 56 00
        E 0 80 62 00
        E 280 90 18 60
        E 0 90 1f 60
        E 0 90 54 60
        E 0 90 56 60
        E 0 90 60 60
        E 0 90 62 60
        E 40 80 18 00
        E 0 80 1f 00
        E 0 80 54 00
        E 0 80 56 00
        E 0 80 60 00
        E 0 80 62 00
        E 280 90 1f 60
        E 0 90 3e 60
        E 0 90 4a 60
        E 0 90 56 60
        E 0 90 62 60
        E 40 80 1f 00
        E 0 80 3e 00
        E 0 80 4a 00
        E 0 80 56 00
        E 0 80 62 00
        E 280 90 1a 60
        E 0 90 1f 60
        E 0 90 55 60
        E 0 90 56 60
        E 0 90 61 60
        E 0 90 62 60
        E 40 80 1a 00
        E 0 80 1f 00
        E 0 80 55 00
        E 0 80 56 00
        E 0 80 61 00
        E 0 80 62 00
        E 280 90 1f 60
        E 0 90 56 60
        E 0 90 62 60
        E 40 80 1f 00
        E 0 80 56 00
        E 0 80 62 00
        E 280 90 18 60
        E 0 90 1f 60
        E 0 90 3e 60
        E 0 90 48 60
        E 0 90 4a 60
        E 0 90 54 60
        E 0 90 56 60
        E 0 90 60 60
        E 0 90 62 60
        E 40 80 18 00
        E 0 80 1f 00
        E 0 80 3e 00
        E 0 80 48 00
        E 0 80 4a 00
        E 0 80 54 00
        E 0 80 56 00
        E 0 80 60 00
        E 0 80 62 00
        E 200 90 78 50
        E 0 90 79 50
        E 0 90 7a 50
        E 0 90 7b 50
        E 0 90 7c 50
        E 80 90 1a 60
        E 0 90 61 60
        E 40 80 1a 00
        E 0 80 61 00
        E 120 90 1b 60
        E 0 90 3d 60
        E 0 90 49 60
        E 0 90 55 60
        E 0 90 61 60
        E 40 80 1b 00
        E 0 80 3d 00
        E 0 80 49 00
        E 0 80 55 00
        E 0 80 61 00
        E 120 90 1a 60
        E 0 90 61 60
        E 40 80 1a 00
        E 0 80 61 00
        E 120 90 1b 60
        E 0 90 61 60
        E 40 80 1b 00
        E 0 80 61 00
        E 120 90 1a 60
        E 0 90 3d 60
        E 0 90 49 60
        E 0 90 55 60
        E 0 90 61 60
        E 40 80 1a 00
        E 0 80 3d 00
        E 0 80 49 00
        E 0 80 55 00
        E 0 80 61 00
        E 120 90 1b 60
        E 0 90 61 60
        E 40 80 1b 00
        E 0 80 61 00
        E 120 90 18 60
        E 0 90 2c 60
        E 0 90 54 60
        E 0 90 58 60
        E 0 90 60 60
        E 0 90 64 60
        E 40 80 78 00
        E 0 80 79 00
        E 0 80 7a 00
        E 0 80 7b 00
        E 0 80 7c 00
        E 0 80 18 00
        E 0 80 2c 00
        E 0 80 54 00
        E 0 80 58 00
        E 0 80 60 00
        E 0 80 64 00
        E 280 90 1f 60
        E 0 90 56 60
        E 0 90 62 60
        E 40 80 1f 00
        E 0 80 56 00
        E 0 80 62 00
        E 280 90 1a 60
        E 0 90 1f 60
        E 0 90 3d 60
        E 0 90 3e 60
        E 0 90 49 60
        E 0 90 4a 60
        E 0 90 55 60
        E 0 90 56 60
        E 0 90 61 60
        E 0 90 62 60
        E 40 80 1a 00
        E 0 80 1f 00
        E 0 80 3d 00
        E 0 80 3e 00
        E 0 80 49 00
        E 0 80 4a 00
        E 0 80 55 00
        E 0 80 56 00
        E 0 80 61 00
        E 0 80 62 00
        E 280 90 1f 60
        E 0 90 56 60
        E 0 90 62 60
        E 40 80 1f 00
        E 0 80 56 00
        E 0 80 62 00
        E 280 90 18 60
        E 0 90 1f 60
        E 0 90 54 60
        E 0 90 56 60
        E 0 90 60 60
        E 0 90 62 60
        E 40 80 18 00
        E 0 80 1f 00
        E 0 80 54 00
        E 0 80 56 00
        E 0 80 60 00
        E 0 80 62 00
        E 280 90 1f 60
        E 0 90 3e 60
        E 0 90 4a 60
        E 0 90 56 60
        E 0 90 62 60
        E 40 80 1f 00
        E 0 80 3e 00
        E 0 80 4a 00
        E 0 80 56 00
        E 0 80 62 00
        E 280 90 1a 60
        E 0 90 1f 60
        E 0 90 55 60
        E 0 90 56 60
        E 0 90 61 60
        E 0 90 62 60
        E 40 80 1a 00
        E 0 80 1f 00
        E 0 80 55 00
        E 0 80 56 00
        E 0 80 61 00
        E 0 80 62 00
        E 280 90 18 60
        E 0 90 1f 60
        E 0 90 54 60
        E 0 90 56 60
        E 0 90 60 60
        E 0 90 62 60
        E 40 80 18 00
        E 0 80 1f 00
        E 0 80 54 00
        E 0 80 56 00
        E 0 80 60 00
        E 0 80 62 00
        E 280 90 18 60
        E 0 90 1f 60
        E 0 90 3e 60
        E 0 90 48 60
        E 0 90 4a 60
        E 0 90 54 60
        E 0 90 56 60
        E 0 90 60 60
        E 0 90 62 60
        E 40 80 18 00
        E 0 80 1f 00
        E 0 80 3e 00
        E 0 80 48 00
        E 0 80 4a 00
        E 0 80 54 00
        E 0 80 56 00
        E 0 80 60 00
        E 0 80 62 00
        E 280 90 1f 60
        E 0 90 56 60
        E 0 90 62 60
        E 40 80 1f 00
        E 0 80 56 00
        E 0 80 62 00
        E 280 90 1a 60
        E 0 90 1f 60
        E 0 90 55 60
        E 0 90 56 60
        E 0 90 61 60
        E 0 90 62 60
        E 40 80 1a 00
        E 0 80 1f 00
        E 0 80 55 00
        E 0 80 56 00
        E 0 80 61 00
        E 0 80 62 00
        E 280 90 1f 60
        E 0 90 3e 60
        E 0 90 4a 60
        E 0 90 56 60
        E 0 90 62 60
        E 40 80 1f 00
        E 0 80 3e 00
        E 0 80 4a 00
        E 0 80 56 00
        E 0 80 62 00
        E 280 90 18 60
        E 0 90 1f 60
        E 0 90 54 60
        E 0 90 56 60
        E 0 90 60 60
        E 0 90 62 60
        E 40 80 18 00
        E 0 80 1f 00
        E 0 80 54 00
        E 0 80 56 00
        E 0 80 60 00
        E 0 80 62 00
        E 280 90 1f 60
        E 0 90 56 60
        E 0 90 62 60
        E 40 80 1f 00
        E 0 80 56 00
        E 0 80 62 00
        E 280 90 1a 60
        E 0 90 1f 60
        E 0 90 3d 60
        E 0 90 3e 60
        E 0 90 49 60
        E 0 90 4a 60
        E 0 90 55 60
        E 0 90 56 60
        E 0 90 61 60
        E 0 90 62 60
        E 40 80 1a 00
        E 0 80 1f 00
        E 0 80 3d 00
        E 0 80 3e 00
        E 0 80 49 00
        E 0 80 4a 00
        E 0 80 55 00
        E 0 80 56 00
        E 0 80 61 00
        E 0 80 62 00
        E 280 90 18 60
        E 0 90 1f 60
        E 0 90 60 60
        E 0 90 62 60
        E 40 80 18 00
        E 0 80 1f 00
        E 0 80 60 00
        E 0 80 62 00
        E 120 90 18 60
        E 0 90 3d 60
        E 0 90 49 60
        E 0 90 55 60
        E 0 90 61 60
        E 40 80 18 00
        E 0 80 3d 00
        E 0 80 49 00
        E 0 80 55 00
        E 0 80 61 00
        E 120 90 18 60
        E 0 90 1f 60
        E 0 90 60 60
        E 0 90 62 60
        E 40 80 18 00
        E 0 80 1f 00
        E 0 80 60 00
        E 0 80 62 00
        E 280 90 1f 60
        E 0 90 3e 60
        E 0 90 4a 60
        E 0 90 56 60
        E 0 90 62 60
        E 40 80 1f 00
        E 0 80 3e 00
        E 0 80 4a 00
        E 0 80 56 00
        E 0 80 62 00
        E 280 90 1a 60
        E 0 90 1f 60
        E 0 90 55 60
        E 0 90 56 60
        E 0 90 61 60
        E 0 90 62 60
        E 40 80 1a 00
        E 0 80 1f 00
        E 0 80 55 00
        E 0 80 56 00
        E 0 80 61 00
        E 0 80 62 00
        E 280 90 1f 60
        E 0 90 56 60
        E 0 90 62 60
        E 40 80 1f 00
        E 0 80 56 00
        E 0 80 62 00
        E 280 90 18 60
        E 0 90 1f 60
        E 0 90 3e 60
        E 0 90 48 60
        E 0 90 4a 60
        E 0 90 54 60
        E 0 90 56 60
        E 0 90 60 60
        E 0 90 62 60
        E 40 80 18 00
        E 0 80 1f 00
        E 0 80 3e 00
        E 0 80 48 00
        E 0 80 4a 00
        E 0 80 54 00
        E 0 80 56 00
        E 0 80 60 00
        E 0 80 62 00
        E 280 90 1f 60
        E 0 90 56 60
        E 0 90 62 60
        E 40 80 1f 00
        E 0 80 56 00
        E 0 80 62 00
        E 280 90 1a 60
        E 0 90 1f 60
        E 0 90 55 60
        E 0 90 56 60
        E 0 90 61 60
        E 0 90 62 60
        E 40 80 1a 00
        E 0 80 1f 00
        E 0 80 55 00
        E 0 80 56 00
        E 0 80 61 00
        E 0 80 62 00
        E 280 90 1f 60
        E 0 90 3e 60
        E 0 90 4a 60
        E 0 90 56 60
        E 0 90 62 60
        E 40 80 1f 00
        E 0 80 3e 00
        E 0 80 4a 00
        E 0 80 56 00
        E 0 80 62 00
        E 280 90 18 60
        E 0 90 1f 60
        E 0 90 54 60
        E 0 90 56 60
        E 0 90 60 60
        E 0 90 62 60
        E 40 80 18 00
        E 0 80 1f 00
        E 0 80 54 00
        E 0 80 56 00
        E 0 80 60 00
        E 0 80 62 00
        E 280 90 1f 60
        E 0 90 56 60
        E 0 90 62 60
        E 40 80 1f 00
        E 0 80 56 00
        E 0 80 62 00
        E 280 90 1a 60
        E 0 90 1f 60
        E 0 90 3d 60
        E 0 90 3e 60
        E 0 90 49 60
        E 0 90 4a 60
        E 0 90 55 60
        E 0 90 56 60
        E 0 90 61 60
        E 0 90 62 60
        E 40 80 1a 00
        E 0 80 1f 00
        E 0 80 3d 00
        E 0 80 3e 00
        E 0 80 49 00
        E 0 80 4a 00
        E 0 80 55 00
        E 0 80 56 00
        E 0 80 61 00
        E 0 80 62 00
        E 280 90 1f 60
        E 0 90 56 60
        E 0 90 62 60
        E 40 80 1f 00
        E 0 80 56 00
        E 0 80 62 00
        E 280 90 18 60
        E 0 90 1f 60
        E 0 90 54 60
        E 0 90 56 60
        E 0 90 60 60
        E 0 90 62 60
        E 40 80 18 00
        E 0 80 1f 00
        E 0 80 54 00
        E 0 80 56 00
        E 0 80 60 00
        E 0 80 62 00
        E 280 90 1b 60
        E 0 90 3d 60
        E 0 90 49 60
        E 0 90 55 60
        E 0 90 61 60
        E 40 80 1b 00
        E 0 80 3d 00
        E 0 80 49 00
        E 0 80 55 00
        E 0 80 61 00
        E 120 90 1a 60
        E 0 90 61 60
        E 40 80 1a 00
        E 0 80 61 00
        E 120 90 1b 60
        E 0 90 61 60
        E 40 80 1b 00
        E 0 80 61 00
        E 120 90 1a 60
        E 0 90 3d 60
        E 0 90 49 60
        E 0 90 55 60
        E 0 90 61 60
        E 40 80 1a 00
        E 0 80 3d 00
        E 0 80 49 00
        E 0 80 55 00
        E 0 80 61 00
        E 120 90 1b 60
        E 0 90 61 60
        E 40 80 1b 00
        E 0 80 61 00
        E 120 90 1a 60
        E 0 90 61 60
        E 40 80 1a 00
        E 0 80 61 00
        E 120 90 18 60
        E 0 90 26 60
        E 0 90 40 60
        E 0 90 48 60
        E 0 90 4c 60
        E 0 90 54 60
        E 0 90 58 60
        E 0 90 60 60
        E 0 90 64 60
        E 40 80 18 00
        E 0 80 26 00
        E 0 80 40 00
        E 0 80 48 00
        E 0 80 4c 00
        E 0 80 54 00
        E 0 80 58 00
        E 0 80 60 00
        E 0 80 64 00
        E 280 90 1f 60
        E 0 90 56 60
        E 0 90 62 60
        E 40 80 1f 00
        E 0 80 56 00
        E 0 80 62 00
        E 280 90 1a 60
        E 0 90 1f 60
        E 0 90 55 60
        E 0 90 56 60
        E 0 90 61 60
        E 0 90 62 60
        E 40 80 1a 00
        E 0 80 1f 00
        E 0 80 55 00
        E 0 80 56 00
        E 0 80 61 00
        E 0 80 62 00
        E 280 90 1f 60
        E 0 90 3e 60
        E 0 90 4a 60
        E 0 90 56 60
        E 0 90 62 60
        E 40 80 1f 00
        E 0 80 3e 00
        E 0 80 4a 00
        E 0 80 56 00
        E 0 80 62 00
        E 280 90 18 60
        E 0 90 1f 60
        E 0 90 54 60
        E 0 90 56 60
        E 0 90 60 60
        E 0 90 62 60
        E 40 80 18 00
        E 0 80 1f 00
        E 0 80 54 00
        E 0 80 56 00
        E 0 80 60 00
        E 0 80 62 00
        E 280 90 1f 60
        E 0 90 56 60
        E 0 90 62 60
        E 40 80 1f 00
        E 0 80 56 00
        E 0 80 62 00
        E 280 90 1a 60
        E 0 90 1f 60
        E 0 90 3d 60
        E 0 90 3e 60
        E 0 90 49 60
        E 0 90 4a 60
        E 0 90 55 60
        E 0 90 56 60
        E 0 90 61 60
        E 0 90 62 60
        E 40 80 1a 00
        E 0 80 1f 00
        E 0 80 3d 00
        E 0 80 3e 00
        E 0 80 49 00
        E 0 80 4a 00
        E 0 80 55 00
        E 0 80 56 00
        E 0 80 61 00
        E 0 80 62 00
        E 280 90 1f 60
        E 0 90 56 60
        E 0 90 62 60
        E 40 80 1f 00
        E 0 80 56 00
        E 0 80 62 00
        E 280 90 18 60
        E 0 90 1f 60
        E 0 90 54 60
        E 0 90 56 60
        E 0 90 60 60
        E 0 90 62 60
        E 40 80 18 00
        E 0 80 1f 00
        E 0 80 54 00
        E 0 80 56 00
        E 0 80 60 00
        E 0 80 62 00
        E 280 90 1f 60
        E 0 90 3e 60
        E 0 90 4a 60
        E 0 90 56 60
        E 0 90 62 60
        E 40 80 1f 00
        E 0 80 3e 00
        E 0 80 4a 00
        E 0 80 56 00
        E 0 80 62 00
        E 280 90 1a 60
        E 0 90 1f 60
        E 0 90 55 60
        E 0 90 56 60
        E 0 90 61 60
        E 0 90 62 60
        E 40 80 1a 00
        E 0 80 1f 00
        E 0 80 55 00
        E 0 80 56 00
        E 0 80 61 00
        E 0 80 62 00
        E 280 90 18 60
        E 0 90 1f 60
        E 0 90 54 60
        E 0 90 56 60
        E 0 90 60 60
        E 0 90 62 60
        E 40 80 18 00
        E 0 80 1f 00
        E 0 80 54 00
        E 0 80 56 00
        E 0 80 60 00
        E 0 80 62 00
        E 280 90 18 60
        E 0 90 1f 60
        E 0 90 3e 60
        E 0 90 48 60
        E 0 90 4a 60
        E 0 90 54 60
        E 0 90 56 60
        E 0 90 60 60
        E 0 90 62 60
        E 40 80 18 00
        E 0 80 1f 00
        E 0 80 3e 00
        E 0 80 48 00
        E 0 80 4a 00
        E 0 80 54 00
        E 0 80 56 00
        E 0 80 60 00
        E 0 80 62 00
        E 280 90 1f 60
        E 0 90 56 60
        E 0 90 62 60
        E 40 80 1f 00
        E 0 80 56 00
        E 0 80 62 00
        E 280 90 1a 60
        E 0 90 55 60
        E 0 90 61 60
        E 40 80 1a 00
        E 0 80 55 00
        E 0 80 61 00
        E 120 90 1b 60
        E 0 90 61 60
        E 40 80 1b 00
        E 0 80 61 00
        E 120 90 1a 60
        E 0 90 3d 60
        E 0 90 49 60
        E 0 90 55 60
        E 0 90 61 60
        E 40 80 1a 00
        E 0 80 3d 00
        E 0 80 49 00
        E 0 80 55 00
        E 0 80 61 00
        E 120 90 1b 60
        E 0 90 61 60
        E 40 80 1b 00
        E 0 80 61 00
        E 120 90 18 60
        E 0 90 2c 60
        E 0 90 54 60
        E 0 90 58 60
        E 0 90 60 60
        E 0 90 64 60
        E 40 80 18 00
        E 0 80 2c 00
        E 0 80 54 00
        E 0 80 58 00
        E 0 80 60 00
        E 0 80 64 00
        E 280 90 1f 60
        E 0 90 56 60
        E 0 90 62 60
        E 40 80 1f 00
        E 0 80 56 00
        E 0 80 62 00
        E 280 90 1a 60
        E 0 90 1f 60
        E 0 90 3d 60
        E 0 90 3e 60
        E 0 90 49 60
        E 0 90 4a 60
        E 0 90 55 60
        E 0 90 56 60
        E 0 90 61 60
        E 0 90 62 60
        E 40 80 1a 00
        E 0 80 1f 00
        E 0 80 3d 00
        E 0 80 3e 00
        E 0 80 49 00
        E 0 80 4a 00
        E 0 80 55 00
        E 0 80 56 00
        E 0 80 61 00
        E 0 80 62 00
        E 280 90 1f 60
        E 0 90 56 60
        E 0 90 62 60
        E 40 80 1f 00
        E 0 80 56 00
        E 0 80 62 00
        E 280 90 18 60
        E 0 90 1f 60
        E 0 90 54 60
        E 0 90 56 60
        E 0 90 60 60
        E 0 90 62 60
        E 40 80 18 00
        E 0 80 1f 00
        E 0 80 54 00
        E 0 80 56 00
        E 0 80 60 00
        E 0 80 62 00
        E 280 90 1f 60
        E 0 90 3e 60
        E 0 90 4a 60
        E 0 90 56 60
        E 0 90 62 60
        E 40 80 1f 00
        E 0 80 3e 00
        E 0 80 4a 00
        E 0 80 56 00
        E 0 80 62 00
        E 280 90 1a 60
        E 0 90 1f 60
        E 0 90 55 60
        E 0 90 56 60
        E 0 90 61 60
        E 0 90 62 60
        E 40 80 1a 00
        E 0 80 1f 00
        E 0 80 55 00
        E 0 80 56 00
        E 0 80 61 00
        E 0 80 62 00
        E 280 90 1f 60
        E 0 90 56 60
        E 0 90 62 60
        E 40 80 1f 00
        E 0 80 56 00
        E 0 80 62 00
        E 280 90 18 60
        E 0 90 1f 60
        E 0 90 3e 60
        E 0 90 48 60
        E 0 90 4a 60
        E 0 90 54 60
        E 0 90 56 60
        E 0 90 60 60
        E 0 90 62 60
        E 40 80 18 00
        E 0 80 1f 00
        E 0 80 3e 00
        E 0 80 48 00
        E 0 80 4a 00
        E 0 80 54 00
        E 0 80 56 00
        E 0 80 60 00
        E 0 80 62 00
        E 280 90 1f 60
        E 0 90 56 60
        E 0 90 62 60
        E 40 80 1f 00
        E 0 80 56 00
        E 0 80 62 00
        E 280 90 1a 60
        E 0 90 1f 60
        E 0 90 55 60
        E 0 90 56 60
        E 0 90 61 60
        E 0 90 62 60
        E 40 80 1a 00
        E 0 80 1f 00
        E 0 80 55 00
        E 0 80 56 00
        E 0 80 61 00
        E 0 80 62 00
        E 280 90 1f 60
        E 0 90 3e 60
        E 0 90 4a 60
        E 0 90 56 60
        E 0 90 62 60
        E 40 80 1f 00
        E 0 80 3e 00
        E 0 80 4a 00
        E 0 80 56 00
        E 0 80 62 00
        E 280 90 18 60
        E 0 90 1f 60
        E 0 90 54 60
        E 0 90 56 60
        E 0 90 60 60
        E 0 90 62 60
        E 40 80 18 00
        E 0 80 1f 00
        E 0 80 54 00
        E 0 80 56 00
        E 0 80 60 00
        E 0 80 62 00
        E 280 90 1a 60
        E 0 90 55 60
        E 0 90 61 60
        E 40 80 1a 00
        E 0 80 55 00
        E 0 80 61 00
        E 120 90 1b 60
        E 0 90 61 60
        E 40 80 1b 00
        E 0 80 61 00
        E 120 90 1a 60
        E 0 90 3d 60
        E 0 90 49 60
        E 0 90 55 60
        E 0 90 61 60
        E 40 80 1a 00
        E 0 80 3d 00
        E 0 80 49 00
        E 0 80 55 00
        E 0 80 61 00
        E 120 90 1b 60
        E 0 90 61 60
        E 40 80 1b 00
        E 0 80 61 00
        E 120 90 1a 60
        E 0 90 61 60
        E 40 80 1a 00
        E 0 80 61 00
        E 120 90 1b 60
        E 0 90 3d 60
        E 0 90 49 60
        E 0 90 55 60
        E 0 90 61 60
        E 40 80 1b 00
        E 0 80 3d 00
        E 0 80 49 00
        E 0 80 55 00
        E 0 80 61 00
        E 120 90 18 60
        E 0 90 2c 60
        E 0 90 60 60
        E 0 90 64 60
        E 40 80 18 00
        E 0 80 2c 00
        E 0 80 60 00
        E 0 80 64 00
        E 280 90 1f 60
        E 0 90 3e 60
        E 0 90 4a 60
        E 0 90 56 60
        E 0 90 62 60
        E 40 80 1f 00
        E 0 80 3e 00
        E 0 80 4a 00
        E 0 80 56 00
        E 0 80 62 00
        E 280 90 1a 60
        E 0 90 1f 60
        E 0 90 55 60
        E 0 90 56 60
        E 0 90 61 60
        E 0 90 62 60
        E 40 80 1a 00
        E 0 80 1f 00
        E 0 80 55 00
        E 0 80 56 00
        E 0 80 61 00
        E 0 80 62 00
        E 280 90 1f 60
        E 0 90 56 60
        E 0 90 62 60
        E 40 80 1f 00
        E 0 80 56 00
        E 0 80 62 00
        E 280 90 18 60
        E 0 90 1f 60
        E 0 90 3e 60
        E 0 90 48 60
        E 0 90 4a 60
        E 0 90 54 60
        E 0 90 56 60
        E 0 90 60 60
        E 0 90 62 60
        E 40 80 18 00
        E 0 80 1f 00
        E 0 80 3e 00
        E 0 80 48 00
        E 0 80 4a 00
        E 0 80 54 00
        E 0 80 56 00
        E 0 80 60 00
        E 0 80 62 00
        E 280 90 1f 60
        E 0 90 56 60
        E 0 90 62 60
        E 40 80 1f 00
        E 0 80 56 00
        E 0 80 62 00
        E 280 90 1a 60
        E 0 90 1f 60
        E 0 90 55 60
        E 0 90 56 60
        E 0 90 61 60
        E 0 90 62 60
        E 40 80 1a 00
        E 0 80 1f 00
        E 0 80 55 00
        E 0 80 56 00
        E 0 80 61 00
        E 0 80 62 00
        E 280 90 1f 60
        E 0 90 3e 60
        E 0 90 4a 60
        E 0 90 56 60
        E 0 90 62 60
        E 40 80 1f 00
        E 0 80 3e 00
        E 0 80 4a 00
        E 0 80 56 00
        E 0 80 62 00
        E 280 90 18 60
        E 0 90 1f 60
        E 0 90 54 60
        E 0 90 56 60
        E 0 90 60 60
        E 0 90 62 60
        E 40 80 18 00
        E 0 80 1f 00
        E 0 80 54 00
        E 0 80 56 00
        E 0 80 60 00
        E 0 80 62 00
        E 280 90 1f 60
        E 0 90 56 60
        E 0 90 62 60
        E 40 80 1f 00
        E 0 80 56 00
        E 0 80 62 00
        E 280 90 1a 60
        E 0 90 1f 60
        E 0 90 3d 60
        E 0 90 3e 60
        E 0 90 49 60
        E 0 90 4a 60
        E 0 90 55 60
        E 0 90 56 60
        E 0 90 61 60
        E 0 90 62 60
        E 40 80 1a 00
        E 0 80 1f 00
        E 0 80 3d 00
        E 0 80 3e 00
        E 0 80 49 00
        E 0 80 4a 00
        E 0 80 55 00
        E 0 80 56 00
        E 0 80 61 00
        E 0 80 62 00
        E 280 90 1f 60
        E 0 90 56 60
        E 0 90 62 60
        E 40 80 1f 00
        E 0 80 56 00
        E 0 80 62 00
        E 280 90 18 60
        E 0 90 1f 60
        E 0 90 54 60
        E 0 90 56 60
        E 0 90 60 60
        E 0 90 62 60
        E 40 80 18 00
        E 0 80 1f 00
        E 0 80 54 00
        E 0 80 56 00
        E 0 80 60 00
        E 0 80 62 00
        E 280 90 1f 60
        E 0 90 3e 60
        E 0 90 4a 60
        E 0 90 56 60
        E 0 90 62 60
        E 40 80 1f 00
        E 0 80 3e 00
        E 0 80 4a 00
        E 0 80 56 00
        E 0 80 62 00
        E 280 90 1a 60
        E 0 90 61 60
        E 40 80 1a 00
        E 0 80 61 00
        E 120 90 1b 60
        E 0 90 3d 60
        E 0 90 49 60
        E 0 90 55 60
        E 0 90 61 60
        E 0 90 74 60
        E 40 80 1b 00
        E 0 80 3d 00
        E 0 80 49 00
        E 0 80 55 00
        E 0 80 61 00
        E 120 90 1a 60
        E 0 90 61 60
        E 40 80 1a 00
        E 0 80 61 00
        E 120 90 1b 60
        E 0 90 61 60
        E 40 80 1b 00
        E 0 80 61 00
        E 120 90 18 60
        E 0 90 2c 60
        E 0 90 40 60
        E 0 90 48 60
        E 0 90 4c 60
        E 0 90 54 60
        E 0 90 58 60
        E 0 90 60 60
        E 0 90 64 60
        E 40 80 18 00
        E 0 80 2c 00
        E 0 80 40 00
        E 0 80 48 00
        E 0 80 4c 00
        E 0 80 54 00
        E 0 80 58 00
        E 0 80 60 00
        E 0 80 64 00
        E 280 90 1f 60
        E 0 90 56 60
        E 0 90 62 60
        E 40 80 1f 00
        E 0 80 56 00
        E 0 80 62 00
        E 280 90 1a 60
        E 0 90 1f 60
        E 0 90 55 60
        E 0 90 56 60
        E 0 90 61 60
        E 0 90 62 60
        E 40 80 1a 00
        E 0 80 1f 00
        E 0 80 55 00
        E 0 80 56 00
        E 0 80 61 00
        E 0 80 62 00
        E 280 90 1f 60
        E 0 90 3e 60
        E 0 90 4a 60
        E 0 90 56 60
        E 0 90 62 60
        E 40 80 1f 00
        E 0 80 3e 00
        E 0 80 4a 00
        E 0 80 56 00
        E 0 80 62 00
        E 280 90 18 60
        E 0 90 1f 60
        E 0 90 54 60
        E 0 90 56 60
        E 0 90 60 60
        E 0 90 62 60
        E 40 80 18 00
        E 0 80 1f 00
        E 0 80 54 00
        E 0 80 56 00
        E 0 80 60 00
        E 0 80 62 00
        E 280 90 1f 60
        E 0 90 56 60
        E 0 90 62 60
        E 40 80 1f 00
        E 0 80 56 00
        E 0 80 62 00
        E 280 90 1a 60
        E 0 90 1f 60
        E 0 90 3d 60
        E 0 90 3e 60
        E 0 90 49 60
        E 0 90 4a 60
        E 0 90 55 60
        E 0 90 56 60
        E 0 90 61 60
        E 0 90 62 60
        E 40 80 1a 00
        E 0 80 1f 00
        E 0 80 3d 00
        E 0 80 3e 00
        E 0 80 49 00
        E 0 80 4a 00
        E 0 80 55 00
        E 0 80 56 00
        E 0 80 61 00
        E 0 80 62 00
        E 280 90 1f 60
        E 0 90 56 60
        E 0 90 62 60
        E 40 80 1f 00
        E 0 80 56 00
        E 0 80 62 00
        E 280 90 18 60
        E 0 90 1f 60
        E 0 90 54 60
        E 0 90 56 60
        E 0 90 60 60
        E 0 90 62 60
        E 40 80 18 00
        E 0 80 1f 00
        E 0 80 54 00
        E 0 80 56 00
        E 0 80 60 00
        E 0 80 62 00
        E 280 90 1f 60
        E 0 90 3e 60
        E 0 90 4a 60
        E 0 90 56 60
        E 0 90 62 60
        E 40 80 1f 00
        E 0 80 3e 00
        E 0 80 4a 00
        E 0 80 56 00
        E 0 80 62 00
        E 280 90 1a 60
        E 0 90 1f 60
        E 0 90 55 60
        E 0 90 56 60
        E 0 90 61 60
        E 0 90 62 60
        E 40 80 1a 00
        E 0 80 1f 00
        E 0 80 55 00
        E 0 80 56 00
        E 0 80 61 00
        E 0 80 62 00
        E 120 80 74 00
        E 160 90 1f 60
        E 0 90 56 60
        E 0 90 62 60
        E 40 80 1f 00
        E 0 80 56 00
        E 0 80 62 00
        E 280 90 18 60
        E 0 90 1f 60
        E 0 90 3e 60
        E 0 90 48 60
        E 0 90 4a 60
        E 0 90 54 60
        E 0 90 56 60
        E 0 90 60 60
        E 0 90 62 60
        E 40 80 18 00
        E 0 80 1f 00
        E 0 80 3e 00
        E 0 80 48 00
        E 0 80 4a 00
        E 0 80 54 00
        E 0 80 56 00
        E 0 80 60 00
        E 0 80 62 00
        E 280 90 1a 60
        E 0 90 61 60
        E 40 80 1a 00
        E 0 80 61 00
        E 120 90 1b 60
        E 0 90 3d 60
        E 0 90 49 60
        E 0 90 55 60
        E 0 90 61 60
        E 40 80 1b 00
        E 0 80 3d 00
        E 0 80 49 00
        E 0 80 55 00
        E 0 80 61 00
        E 120 90 1a 60
        E 0 90 61 60
        E 40 80 1a 00
        E 0 80 61 00
        E 120 90 1b 60
        E 0 90 61 60
        E 40 80 1b 00
        E 0 80 61 00
        E 120 90 1a 60
        E 0 90 3d 60
        E 0 90 49 60
        E 0 90 55 60
        E 0 90 61 60
        E 40 80 1a 00
        E 0 80 3d 00
        E 0 80 49 00
        E 0 80 55 00
        E 0 80 61 00
        E 120 90 1b 60
        E 0 90 61 60
        E 40 80 1b 00
        E 0 80 61 00
        E 120 90 18 60
        E 0 90 2c 60
        E 0 90 54 60
        E 0 90 58 60
        E 0 90 60 60
        E 0 90 64 60
        E 40 80 18 00
        E 0 80 2c 00
        E 0 80 54 00
        E 0 80 58 00
        E 0 80 60 00
        E 0 80 64 00
        E 280 90 1f 60
        E 0 90 56 60
        E 0 90 62 60
        E 40 80 1f 00
        E 0 80 56 00
        E 0 80 62 00
        E 280 90 1a 60
        E 0 90 1f 60
        E 0 90 3d 60
        E 0 90 3e 60
        E 0 90 49 60
        E 0 90 4a 60
        E 0 90 55 60
        E 0 90 56 60
        E 0 90 61 60
        E 0 90 62 60
        E 40 80 1a 00
        E 0 80 1f 00
        E 0 80 3d 00
        E 0 80 3e 00
        E 0 80 49 00
        E 0 80 4a 00
        E 0 80 55 00
        E 0 80 56 00
        E 0 80 61 00
        E 0 80 62 00
        E 280 90 1f 60
        E 0 90 56 60
        E 0 90 62 60
        E 40 80 1f 00
        E 0 80 56 00
        E 0 80 62 00
        E 280 90 18 60
        E 0 90 1f 60
        E 0 90 54 60
        E 0 90 56 60
        E 0 90 60 60
        E 0 90 62 60
        E 40 80 18 00
        E 0 80 1f 00
        E 0 80 54 00
        E 0 80 56 00
        E 0 80 60 00
        E 0 80 62 00
        E 280 90 1f 60
        E 0 90 3e 60
        E 0 90 4a 60
        E 0 90 56 60
        E 0 90 62 60
        E 40 80 1f 00
        E 0 80 3e 00
        E 0 80 4a 00
        E 0 80 56 00
        E 0 80 62 00
        E 280 90 1a 60
        E 0 90 1f 60
        E 0 90 55 60
        E 0 90 56 60
        E 0 90 61 60
        E 0 90 62 60
        E 40 80 1a 00
        E 0 80 1f 00
        E 0 80 55 00
        E 0 80 56 00
        E 0 80 61 00
        E 0 80 62 00
        E 280 90 1f 60
        E 0 90 56 60
        E 0 90 62 60
        E 40 80 1f 00
        E 0 80 56 00
        E 0 80 62 00
        E 280 90 18 60
        E 0 90 1f 60
        E 0 90 3e 60
        E 0 90 48 60
        E 0 90 4a 60
        E 0 90 54 60
        E 0 90 56 60
        E 0 90 60 60
        E 0 90 62 60
        E 40 80 18 00
        E 0 80 1f 00
        E 0 80 3e 00
        E 0 80 48 00
        E 0 80 4a 00
        E 0 80 54 00
        E 0 80 56 00
        E 0 80 60 00
        E 0 80 62 00
        E 280 90 1f 60
        E 0 90 56 60
        E 0 90 62 60
        E 40 80 1f 00
        E 0 80 56 00
        E 0 80 62 00
        E 280 90 1a 60
        E 0 90 1f 60
        E 0 90 55 60
        E 0 90 56 60
        E 0 90 61 60
        E 0 90 62 60
        E 40 80 1a 00
        E 0 80 1f 00
        E 0 80 55 00
        E 0 80 56 00
        E 0 80 61 00
        E 0 80 62 00
        E 280 90 1f 60
        E 0 90 3e 60
        E 0 90 4a 60
        E 0 90 56 60
        E 0 90 62 60
        E 40 80 1f 00
        E 0 80 3e 00
        E 0 80 4a 00
        E 0 80 56 00
        E 0 80 62 00
        E 280 90 18 60
        E 0 90 1f 60
        E 0 90 54 60
        E 0 90 56 60
        E 0 90 60 60
        E 0 90 62 60
        E 40 80 18 00
        E 0 80 1f 00
        E 0 80 54 00
        E 0 80 56 00
        E 0 80 60 00
        E 0 80 62 00
        E 280 90 1f 60
        E 0 90 56 60
        E 0 90 62 60
        E 40 80 1f 00
        E 0 80 56 00
        E 0 80 62 00
        E 280 90 1b 60
        E 0 90 3d 60
        E 0 90 49 60
        E 0 90 55 60
        E 0 90 61 60
        E 40 80 1b 00
        E 0 80 3d 00
        E 0 80 49 00
        E 0 80 55 00
        E 0 80 61 00
        E 120 90 1a 60
        E 0 90 61 60
        E 40 80 1a 00
        E 0 80 61 00
        E 120 90 1b 60
        E 0 90 61 60
        E 40 80 1b 00
        E 0 80 61 00
        E 120 90 1a 60
        E 0 90 3d 60
        E 0 90 49 60
        E 0 90 55 60
        E 0 90 61 60
        E 40 80 1a 00
        E 0 80 3d 00
        E 0 80 49 00
        E 0 80 55 00
        E 0 80 61 00
        E 120 90 18 60
        E 0 90 26 60
        E 0 90 60 60
        E 0 90 64 60
        E 40 80 18 00
        E 0 80 26 00
        E 0 80 60 00
        E 0 80 64 00
        E 280 90 1f 60
        E 0 90 3e 60
        E 0 90 4a 60
        E 0 90 56 60
        E 0 90 62 60
        E 40 80 1f 00
        E 0 80 3e 00
        E 0 80 4a 00
        E 0 80 56 00
        E 0 80 62 00
        E 280 90 1a 60
        E 0 90 1f 60
        E 0 90 55 60
        E 0 90 56 60
        E 0 90 61 60
        E 0 90 62 60
        E 40 80 1a 00
        E 0 80 1f 00
        E 0 80 55 00
        E 0 80 56 00
        E 0 80 61 00
        E 0 80 62 00
        E 280 90 1f 60
        E 0 90 56 60
        E 0 90 62 60
        E 40 80 1f 00
        E 0 80 56 00
        E 0 80 62 00
        E 280 90 18 60
        E 0 90 1f 60
        E 0 90 3e 60
        E 0 90 48 60
        E 0 90 4a 60
        E 0 90 54 60
        E 0 90 56 60
        E 0 90 60 60
        E 0 90 62 60
        E 40 80 18 00
        E 0 80 1f 00
        E 0 80 3e 00
        E 0 80 48 00
        E 0 80 4a 00
        E 0 80 54 00
        E 0 80 56 00
        E 0 80 60 00
        E 0 80 62 00
        E 280 90 1f 60
        E 0 90 56 60
        E 0 90 62 60
        E 40 80 1f 00
        E 0 80 56 00
        E 0 80 62 00
        E 280 90 1a 60
        E 0 90 1f 60
        E 0 90 55 60
        E 0 90 56 60
        E 0 90 61 60
        E 0 90 62 60
        E 40 80 1a 00
        E 0 80 1f 00
        E 0 80 55 00
        E 0 80 56 00
        E 0 80 61 00
        E 0 80 62 00
        E 280 90 18 60
        E 0 90 1f 60
        E 0 90 3e 60
        E 0 90 48 60
        E 0 90 4a 60
        E 0 90 54 60
        E 0 90 56 60
        E 0 90 60 60
        E 0 90 62 60
        E 40 80 18 00
        E 0 80 1f 00
        E 0 80 3e 00
        E 0 80 48 00
        E 0 80 4a 00
        E 0 80 54 00
        E 0 80 56 00
        E 0 80 60 00
        E 0 80 62 00
        E 280 90 18 60
        E 0 90 1f 60
        E 0 90 54 60
        E 0 90 56 60
        E 0 90 60 60
        E 0 90 62 60
        E 40 80 18 00
        E 0 80 1f 00
        E 0 80 54 00
        E 0 80 56 00
        E 0 80 60 00
        E 0 80 62 00
        E 280 90 1f 60
        E 0 90 56 60
        E 0 90 62 60
        E 40 80 1f 00
        E 0 80 56 00
        E 0 80 62 00
        E 280 90 1a 60
        E 0 90 1f 60
        E 0 90 3d 60
        E 0 90 3e 60
        E 0 90 49 60
        E 0 90 4a 60
        E 0 90 55 60
        E 0 90 56 60
        E 0 90 61 60
        E 0 90 62 60
        E 40 80 1a 00
        E 0 80 1f 00
        E 0 80 3d 00
        E 0 80 3e 00
        E 0 80 49 00
        E 0 80 4a 00
        E 0 80 55 00
        E 0 80 56 00
        E 0 80 61 00
        E 0 80 62 00
        E 280 90 1f 60
        E 0 90 56 60
        E 0 90 62 60
        E 40 80 1f 00
        E 0 80 56 00
        E 0 80 62 00
        E 280 90 18 60
        E 0 90 1f 60
        E 0 90 54 60
        E 0 90 56 60
        E 0 90 60 60
        E 0 90 62 60
        E 40 80 18 00
        E 0 80 1f 00
        E 0 80 54 00
        E 0 80 56 00
        E 0 80 60 00
        E 0 80 62 00
        E 200 90 78 50
        E 0 90 79 50
        E 0 90 7a 50
        E 0 90 7b 50
        E 0 90 7c 50
        E 80 90 1b 60
        E 0 90 3d 60
        E 0 90 49 60
        E 0 90 55 60
        E 0 90 61 60
        E 40 80 1b 00
        E 0 80 3d 00
        E 0 80 49 00
        E 0 80 55 00
        E 0 80 61 00
        E 120 90 1a 60
        E 0 90 61 60
        E 40 80 1a 00
        E 0 80 61 00
        E 120 90 1b 60
        E 0 90 61 60
        E 40 80 1b 00
        E 0 80 61 00
        E 120 90 1a 60
        E 0 90 3d 60
        E 0 90 49 60
        E 0 90 55 60
        E 0 90 61 60
        E 40 80 1a 00
        E 0 80 3d 00
        E 0 80 49 00
        E 0 80 55 00
        E 0 80 61 00
        E 120 90 1b 60
        E 0 90 61 60
        E 40 80 1b 00
        E 0 80 61 00
        E 120 90 1a 60
        E 0 90 61 60
        E 40 80 1a 00
        E 0 80 61 00
        E 120 90 18 60
        E 0 90 26 60
        E 0 90 40 60
        E 0 90 48 60
        E 0 90 4c 60
        E 0 90 54 60
        E 0 90 58 60
        E 0 90 60 60
        E 0 90 64 60
        E 40 80 18 00
        E 0 80 26 00
        E 0 80 40 00
        E 0 80 48 00
        E 0 80 4c 00
        E 0 80 54 00
        E 0 80 58 00
        E 0 80 60 00
        E 0 80 64 00
        E 40 80 78 00
        E 0 80 79 00
        E 0 80 7a 00
        E 0 80 7b 00
        E 0 80 7c 00
        E 240 90 1f 60
        E 0 90 56 60
        E 0 90 62 60
        E 40 80 1f 00
        E 0 80 56 00
        E 0 80 62 00
        E 280 90 1a 60
        E 0 90 1f 60
        E 0 90 55 60
        E 0 90 56 60
        E 0 90 61 60
        E 0 90 62 60
        E 40 80 1a 00
        E 0 80 1f 00
        E 0 80 55 00
        E 0 80 56 00
        E 0 80 61 00
        E 0 80 62 00
        E 280 90 1f 60
        E 0 90 3e 60
        E 0 90 4a 60
        E 0 90 56 60
        E 0 90 62 60
        E 40 80 1f 00
        E 0 80 3e 00
        E 0 80 4a 00
        E 0 80 56 00
        E 0 80 62 00
        E 280 90 18 60
        E 0 90 1f 60
        E 0 90 54 60
        E 0 90 56 60
        E 0 90 60 60
        E 0 90 62 60
        E 40 80 18 00
        E 0 80 1f 00
        E 0 80 54 00
        E 0 80 56 00
        E 0 80 60 00
        E 0 80 62 00
        E 280 90 1f 60
        E 0 90 56 60
        E 0 90 62 60
        E 40 80 1f 00
        E 0 80 56 00
        E 0 80 62 00
        E 280 90 1a 60
        E 0 90 1f 60
        E 0 90 3d 60
        E 0 90 3e 60
        E 0 90 49 60
        E 0 90 4a 60
        E 0 90 55 60
        E 0 90 56 60
        E 0 90 61 60
        E 0 90 62 60
        E 40 80 1a 00
        E 0 80 1f 00
        E 0 80 3d 00
        E 0 80 3e 00
        E 0 80 49 00
        E 0 80 4a 00
        E 0 80 55 00
        E 0 80 56 00
        E 0 80 61 00
        E 0 80 62 00
        E 280 90 18 60
        E 0 90 1f 60
        E 0 90 54 60
        E 0 90 56 60
        E 0 90 60 60
        E 0 90 62 60
        E 40 80 18 00
        E 0 80 1f 00
        E 0 80 54 00
        E 0 80 56 00
        E 0 80 60 00
        E 0 80 62 00
        E 280 90 18 60
        E 0 90 1f 60
        E 0 90 54 60
        E 0 90 56 60
        E 0 90 60 60
        E 0 90 62 60
        E 40 80 18 00
        E 0 80 1f 00
        E 0 80 54 00
        E 0 80 56 00
        E 0 80 60 00
        E 0 80 62 00
        E 280 90 1f 60
        E 0 90 3e 60
        E 0 90 4a 60
        E 0 90 56 60
        E 0 90 62 60
        E 40 80 1f 00
        E 0 80 3e 00
        E 0 80 4a 00
        E 0 80 56 00
        E 0 80 62 00
        E 280 90 1a 60
        E 0 90 1f 60
        E 0 90 55 60
        E 0 90 56 60
        E 0 90 61 60
        E 0 90 62 60
        E 40 80 1a 00
        E 0 80 1f 00
        E 0 80 55 00
        E 0 80 56 00
        E 0 80 61 00
        E 0 80 62 00
        E 280 90 1f 60
        E 0 90 56 60
        E 0 90 62 60
        E 40 80 1f 00
        E 0 80 56 00
        E 0 80 62 00
        E 280 90 18 60
        E 0 90 1f 60
        E 0 90 3e 60
        E 0 90 48 60
        E 0 90 4a 60
        E 0 90 54 60
        E 0 90 56 60
        E 0 90 60 60
        E 0 90 62 60
        E 40 80 18 00
        E 0 80 1f 00
        E 0 80 3e 00
        E 0 80 48 00
        E 0 80 4a 00
        E 0 80 54 00
        E 0 80 56 00
        E 0 80 60 00
        E 0 80 62 00
        E 280 90 1f 60
        E 0 90 56 60
        E 0 90 62 60
        E 40 80 1f 00
        E 0 80 56 00
        E 0 80 62 00
        E 280 90 1a 60
        E 0 90 55 60
        E 0 90 61 60
        E 40 80 1a 00
        E 0 80 55 00
        E 0 80 61 00
        E 120 90 1b 60
        E 0 90 61 60
        E 40 80 1b 00
        E 0 80 61 00
        E 120 90 1a 60
        E 0 90 3d 60
        E 0 90 49 60
        E 0 90 55 60
        E 0 90 61 60
        E 40 80 1a 00
        E 0 80 3d 00
        E 0 80 49 00
        E 0 80 55 00
        E 0 80 61 00
        E 120 90 1b 60
        E 0 90 61 60
        E 40 80 1b 00
        E 0 80 61 00
        E 120 90 18 60
        E 0 90 2c 60
        E 0 90 54 60
        E 0 90 58 60
        E 0 90 60 60
        E 0 90 64 60
        E 40 80 18 00
        E 0 80 2c 00
        E 0 80 54 00
        E 0 80 58 00
        E 0 80 60 00
        E 0 80 64 00
        E 280 90 1f 60
        E 0 90 56 60
        E 0 90 62 60
        E 40 80 1f 00
        E 0 80 56 00
        E 0 80 62 00
        E 280 90 1a 60
        E 0 90 1f 60
        E 0 90 3d 60
        E 0 90 3e 60
        E 0 90 49 60
        E 0 90 4a 60
        E 0 90 55 60
        E 0 90 56 60
        E 0 90 61 60
        E 0 90 62 60
        E 40 80 1a 00
        E 0 80 1f 00
        E 0 80 3d 00
        E 0 80 3e 00
        E 0 80 49 00
        E 0 80 4a 00
        E 0 80 55 00
        E 0 80 56 00
        E 0 80 61 00
        E 0 80 62 00
        E 280 90 1f 60
        E 0 90 56 60
        E 0 90 62 60
        E 40 80 1f 00
        E 0 80 56 00
        E 0 80 62 00
        E 280 90 18 60
        E 0 90 1f 60
        E 0 90 54 60
        E 0 90 56 60
        E 0 90 60 60
        E 0 90 62 60
        E 40 80 18 00
        E 0 80 1f 00
        E 0 80 54 00
        E 0 80 56 00
        E 0 80 60 00
        E 0 80 62 00
        E 280 90 1f 60
        E 0 90 3e 60
        E 0 90 4a 60
        E 0 90 56 60
        E 0 90 62 60
        E 40 80 1f 00
        E 0 80 3e 00
        E 0 80 4a 00
        E 0 80 56 00
        E 0 80 62 00
        E 280 90 1a 60
        E 0 90 1f 60
        E 0 90 55 60
        E 0 90 56 60
        E 0 90 61 60
        E 0 90 62 60
        E 40 80 1a 00
        E 0 80 1f 00
        E 0 80 55 00
        E 0 80 56 00
        E 0 80 61 00
        E 0 80 62 00
        E 280 90 1f 60
        E 0 90 56 60
        E 0 90 62 60
        E 40 80 1f 00
        E 0 80 56 00
        E 0 80 62 00
        E 280 90 18 60
        E 0 90 1f 60
        E 0 90 3e 60
        E 0 90 48 60
        E 0 90 4a 60
        E 0 90 54 60
        E 0 90 56 60
        E 0 90 60 60
        E 0 90 62 60
        E 40 80 18 00
        E 0 80 1f 00
        E 0 80 3e 00
        E 0 80 48 00
        E 0 80 4a 00
        E 0 80 54 00
        E 0 80 56 00
        E 0 80 60 00
        E 0 80 62 00
        E 280 90 1f 60
        E 0 90 56 60
        E 0 90 62 60
        E 40 80 1f 00
        E 0 80 56 00
        E 0 80 62 00
        E 280 90 1a 60
        E 0 90 1f 60
        E 0 90 55 60
        E 0 90 56 60
        E 0 90 61 60
        E 0 90 62 60
        E 40 80 1a 00
        E 0 80 1f 00
        E 0 80 55 00
        E 0 80 56 00
        E 0 80 61 00
        E 0 80 62 00
        E 280 90 1f 60
        E 0 90 3e 60
        E 0 90 4a 60
        E 0 90 56 60
        E 0 90 62 60
        E 40 80 1f 00
        E 0 80 3e 00
        E 0 80 4a 00
        E 0 80 56 00
        E 0 80 62 00
        E 280 90 18 60
        E 0 90 1f 60
        E 0 90 54 60
        E 0 90 56 60
        E 0 90 60 60
        E 0 90 62 60
        E 40 80 18 00
        E 0 80 1f 00
        E 0 80 54 00
        E 0 80 56 00
        E 0 80 60 00
        E 0 80 62 00
        E 280 90 1a 60
        E 0 90 55 60
        E 0 90 61 60
        E 40 80 1a 00
        E 0 80 55 00
        E 0 80 61 00
        E 120 90 1b 60
        E 0 90 61 60
        E 40 80 1b 00
        E 0 80 61 00
        E 120 90 1a 60
        E 0 90 3d 60
        E 0 90 49 60
        E 0 90 55 60
        E 0 90 61 60
        E 40 80 1a 00
        E 0 80 3d 00
        E 0 80 49 00
        E 0 80 55 00
        E 0 80 61 00
        E 120 90 1b 60
        E 0 90 61 60
        E 40 80 1b 00
        E 0 80 61 00
        E 120 90 1a 60
        E 0 90 61 60
        E 40 80 1a 00
        E 0 80 61 00
        E 120 90 1b 60
        E 0 90 3d 60
        E 0 90 49 60
        E 0 90 55 60
        E 0 90 61 60
        E 40 80 1b 00
        E 0 80 3d 00
        E 0 80 49 00
        E 0 80 55 00
        E 0 80 61 00
        E 120 90 18 60
        E 0 90 2c 60
        E 0 90 60 60
        E 0 90 64 60
        E 40 80 18 00
        E 0 80 2c 00
        E 0 80 60 00
        E 0 80 64 00
        E 280 90 1f 60
        E 0 90 3e 60
        E 0 90 4a 60
        E 0 90 56 60
        E 0 90 62 60
        E 40 80 1f 00
        E 0 80 3e 00
        E 0 80 4a 00
        E 0 80 56 00
        E 0 80 62 00
        E 280 90 1a 60
        E 0 90 1f 60
        E 0 90 55 60
        E 0 90 56 60
        E 0 90 61 60
        E 0 90 62 60
        E 40 80 1a 00
        E 0 80 1f 00
        E 0 80 55 00
        E 0 80 56 00
        E 0 80 61 00
        E 0 80 62 00
        E 280 90 1f 60
        E 0 90 56 60
        E 0 90 62 60
        E 40 80 1f 00
        E 0 80 56 00
        E 0 80 62 00
        E 280 90 18 60
        E 0 90 1f 60
        E 0 90 3e 60
        E 0 90 48 60
        E 0 90 4a 60
        E 0 90 54 60
        E 0 90 56 60
        E 0 90 60 60
        E 0 90 62 60
        E 40 80 18 00
        E 0 80 1f 00
        E 0 80 3e 00
        E 0 80 48 00
        E 0 80 4a 00
        E 0 80 54 00
        E 0 80 56 00
        E 0 80 60 00
        E 0 80 62 00
        E 280 90 1f 60
        E 0 90 56 60
        E 0 90 62 60
        E 40 80 1f 00
        E 0 80 56 00
        E 0 80 62 00
        E 280 90 1a 60
        E 0 90 1f 60
        E 0 90 55 60
        E 0 90 56 60
        E 0 90 61 60
        E 0 90 62 60
        E 40 80 1a 00
        E 0 80 1f 00
        E 0 80 55 00
        E 0 80 56 00
        E 0 80 61 00
        E 0 80 62 00
        E 280 90 18 60
        E 0 90 1f 60
        E 0 90 3e 60
        E 0 90 48 60
        E 0 90 4a 60
        E 0 90 54 60
        E 0 90 56 60
        E 0 90 60 60
        E 0 90 62 60
        E 40 80 18 00
        E 0 80 1f 00
        E 0 80 3e 00
        E 0 80 48 00
        E 0 80 4a 00
        E 0 80 54 00
        E 0 80 56 00
        E 0 80 60 00
        E 0 80 62 00
        E 280 90 18 60
        E 0 90 1f 60
        E 0 90 54 60
        E 0 90 56 60
        E 0 90 60 60
        E 0 90 62 60
        E 40 80 18 00
        E 0 80 1f 00
        E 0 80 54 00
        E 0 80 56 00
        E 0 80 60 00
        E 0 80 62 00
        E 280 90 1f 60
        E 0 90 56 60
        E 0 90 62 60
        E 40 80 1f 00
        E 0 80 56 00
        E 0 80 62 00
        E 280 90 1a 60
        E 0 90 1f 60
        E 0 90 3d 60
        E 0 90 3e 60
        E 0 90 49 60
        E 0 90 4a 60
        E 0 90 55 60
        E 0 90 56 60
        E 0 90 61 60
        E 0 90 62 60
        E 40 80 1a 00
        E 0 80 1f 00
        E 0 80 3d 00
        E 0 80 3e 00
        E 0 80 49 00
        E 0 80 4a 00
        E 0 80 55 00
        E 0 80 56 00
        E 0 80 61 00
        E 0 80 62 00
        E 280 90 1f 60
        E 0 90 56 60
        E 0 90 62 60
        E 40 80 1f 00
        E 0 80 56 00
        E 0 80 62 00
        E 280 90 18 60
        E 0 90 1f 60
        E 0 90 54 60
        E 0 90 56 60
        E 0 90 60 60
        E 0 90 62 60
        E 40 80 18 00
        E 0 80 1f 00
        E 0 80 54 00
        E 0 80 56 00
        E 0 80 60 00
        E 0 80 62 00
        E 280 90 1f 60
        E 0 90 3e 60
        E 0 90 4a 60
        E 0 90 56 60
        E 0 90 62 60
        E 40 80 1f 00
        E 0 80 3e 00
        E 0 80 4a 00
        E 0 80 56 00
        E 0 80 62 00
        E 280 90 1a 60
        E 0 90 1f 60
        E 0 90 55 60
        E 0 90 56 60
        E 0 90 61 60
        E 0 90 62 60
        E 40 80 1a 00
        E 0 80 1f 00
        E 0 80 55 00
        E 0 80 56 00
        E 0 80 61 00
        E 0 80 62 00
        E 280 90 18 60
        E 0 90 1f 60
        E 0 90 54 60
        E 0 90 56 60
        E 0 90 60 60
        E 0 90 62 60
        E 40 80 18 00
        E 0 80 1f 00
        E 0 80 54 00
        E 0 80 56 00
        E 0 80 60 00
        E 0 80 62 00
        E 280 90 18 60
        E 0 90 1f 60
        E 0 90 3e 60
        E 0 90 48 60
        E 0 90 4a 60
        E 0 90 54 60
        E 0 90 56 60
        E 0 90 60 60
        E 0 90 62 60
        E 40 80 18 00
        E 0 80 1f 00
        E 0 80 3e 00
        E 0 80 48 00
        E 0 80 4a 00
        E 0 80 54 00
        E 0 80 56 00
        E 0 80 60 00
        E 0 80 62 00
        E 280 90 1f 60
        E 0 90 56 60
        E 0 90 62 60
        E 40 80 1f 00
        E 0 80 56 00
        E 0 80 62 00
        E 280 90 1a 60
        E 0 90 1f 60
        E 0 90 55 60
        E 0 90 56 60
        E 0 90 61 60
        E 0 90 62 60
        E 40 80 1a 00
        E 0 80 1f 00
        E 0 80 55 00
        E 0 80 56 00
        E 0 80 61 00
        E 0 80 62 00
        E 280 90 1f 60
        E 0 90 3e 60
        E 0 90 4a 60
        E 0 90 56 60
        E 0 90 62 60
        E 40 80 1f 00
        E 0 80 3e 00
        E 0 80 4a 00
        E 0 80 56 00
        E 0 80 62 00
        E 280 90 18 60
        E 0 90 1f 60
        E 0 90 54 60
        E 0 90 56 60
        E 0 90 60 60
        E 0 90 62 60
        E 40 80 18 00
        E 0 80 1f 00
        E 0 80 54 00
        E 0 80 56 00
        E 0 80 60 00
        E 0 80 62 00
        E 280 90 1f 60
        E 0 90 56 60
        E 0 90 62 60
        E 40 80 1f 00
        E 0 80 56 00
        E 0 80 62 00
        E 280 90 1a 60
        E 0 90 1f 60
        E 0 90 3d 60
        E 0 90 3e 60
        E 0 90 49 60
        E 0 90 4a 60
        E 0 90 55 60
        E 0 90 56 60
        E 0 90 61 60
        E 0 90 62 60
        E 40 80 1a 00
        E 0 80 1f 00
        E 0 80 3d 00
        E 0 80 3e 00
        E 0 80 49 00
        E 0 80 4a 00
        E 0 80 55 00
        E 0 80 56 00
        E 0 80 61 00
        E 0 80 62 00
        E 280 90 18 60
        E 0 90 1f 60
        E 0 90 54 60
        E 0 90 56 60
        E 0 90 60 60
        E 0 90 62 60
        E 40 80 18 00
        E 0 80 1f 00
        E 0 80 54 00
        E 0 80 56 00
        E 0 80 60 00
        E 0 80 62 00
        E 280 90 18 60
        E 0 90 1f 60
        E 0 90 54 60
        E 0 90 56 60
        E 0 90 60 60
        E 0 90 62 60
        E 40 80 18 00
        E 0 80 1f 00
        E 0 80 54 00
        E 0 80 56 00
        E 0 80 60 00
        E 0 80 62 00
        E 280 90 1f 60
        E 0 90 3e 60
        E 0 90 4a 60
        E 0 90 56 60
        E 0 90 62 60
        E 40 80 1f 00
        E 0 80 3e 00
        E 0 80 4a 00
        E 0 80 56 00
        E 0 80 62 00
        E 280 90 1a 60
        E 0 90 1f 60
        E 0 90 55 60
        E 0 90 56 60
        E 0 90 61 60
        E 0 90 62 60
        E 40 80 1a 00
        E 0 80 1f 00
        E 0 80 55 00
        E 0 80 56 00
        E 0 80 61 00
        E 0 80 62 00
        E 280 90 1f 60
        E 0 90 56 60
        E 0 90 62 60
        E 40 80 1f 00
        E 0 80 56 00
        E 0 80 62 00
        E 280 90 18 60
        E 0 90 1f 60
        E 0 90 3e 60
        E 0 90 48 60
        E 0 90 4a 60
        E 0 90 54 60
        E 0 90 56 60
        E 0 90 60 60
        E 0 90 62 60
        E 40 80 18 00
        E 0 80 1f 00
        E 0 80 3e 00
        E 0 80 48 00
        E 0 80 4a 00
        E 0 80 54 00
        E 0 80 56 00
        E 0 80 60 00
        E 0 80 62 00
        E 280 90 1f 60
        E 0 90 56 60
        E 0 90 62 60
        E 40 80 1f 00
        E 0 80 56 00
        E 0 80 62 00
        E 200 90 74 50
        E 80 90 1a 60
        E 0 90 55 60
        E 0 90 61 60
        E 40 80 1a 00
        E 0 80 55 00
        E 0 80 61 00
        E 120 90 1b 60
        E 0 90 61 60
        E 40 80 1b 00
        E 0 80 61 00
        E 120 90 1a 60
        E 0 90 3d 60
        E 0 90 49 60
        E 0 90 55 60
        E 0 90 61 60
        E 40 80 1a 00
        E 0 80 3d 00
        E 0 80 49 00
        E 0 80 55 00
        E 0 80 61 00
        E 120 90 1b 60
        E 0 90 61 60
        E 40 80 1b 00
        E 0 80 61 00
        E 120 90 18 60
        E 0 90 2c 60
        E 0 90 54 60
        E 0 90 58 60
        E 0 90 60 60
        E 0 90 64 60
        E 40 80 18 00
        E 0 80 2c 00
        E 0 80 54 00
        E 0 80 58 00
        E 0 80 60 00
        E 0 80 64 00
        E 80 80 74 00
        E 200 90 1f 60
        E 0 90 56 60
        E 0 90 62 60
        E 40 80 1f 00
        E 0 80 56 00
        E 0 80 62 00
        E 280 90 1a 60
        E 0 90 1f 60
        E 0 90 3d 60
        E 0 90 3e 60
        E 0 90 49 60
        E 0 90 4a 60
        E 0 90 55 60
        E 0 90 56 60
        E 0 90 61 60
        E 0 90 62 60
        E 40 80 1a 00
        E 0 80 1f 00
        E 0 80 3d 00
        E 0 80 3e 00
        E 0 80 49 00
        E 0 80 4a 00
        E 0 80 55 00
        E 0 80 56 00
        E 0 80 61 00
        E 0 80 62 00
        E 280 90 1f 60
        E 0 90 56 60
        E 0 90 62 60
        E 40 80 1f 00
        E 0 80 56 00
        E 0 80 62 00
        E 280 90 18 60
        E 0 90 1f 60
        E 0 90 54 60
        E 0 90 56 60
        E 0 90 60 60
        E 0 90 62 60
        E 40 80 18 00
        E 0 80 1f 00
        E 0 80 54 00
        E 0 80 56 00
        E 0 80 60 00
        E 0 80 62 00
        E 280 90 1f 60
        E 0 90 3e 60
        E 0 90 4a 60
        E 0 90 56 60
        E 0 90 62 60
        E 40 80 1f 00
        E 0 80 3e 00
        E 0 80 4a 00
        E 0 80 56 00
        E 0 80 62 00
        E 280 90 1a 60
        E 0 90 1f 60
        E 0 90 55 60
        E 0 90 56 60
        E 0 90 61 60
        E 0 90 62 60
        E 40 80 1a 00
        E 0 80 1f 00
        E 0 80 55 00
        E 0 80 56 00
        E 0 80 61 00
        E 0 80 62 00
        E 280 90 18 60
        E 0 90 1f 60
        E 0 90 54 60
        E 0 90 56 60
        E 0 90 60 60
        E 0 90 62 60
        E 40 80 18 00
        E 0 80 1f 00
        E 0 80 54 00
        E 0 80 56 00
        E 0 80 60 00
        E 0 80 62 00
        E 280 90 18 60
        E 0 90 1f 60
        E 0 90 3e 60
        E 0 90 48 60
        E 0 90 4a 60
        E 0 90 54 60
        E 0 90 56 60
        E 0 90 60 60
        E 0 90 62 60
        E 40 80 18 00
        E 0 80 1f 00
        E 0 80 3e 00
        E 0 80 48 00
        E 0 80 4a 00
        E 0 80 54 00
        E 0 80 56 00
        E 0 80 60 00
        E 0 80 62 00
        E 280 90 1f 60
        E 0 90 56 60
        E 0 90 62 60
        E 40 80 1f 00
        E 0 80 56 00
        E 0 80 62 00
        E 280 90 1a 60
        E 0 90 1f 60
        E 0 90 55 60
        E 0 90 56 60
        E 0 90 61 60
        E 0 90 62 60
        E 40 80 1a 00
        E 0 80 1f 00
        E 0 80 55 00
        E 0 80 56 00
        E 0 80 61 00
        E 0 80 62 00
        E 280 90 1f 60
        E 0 90 3e 60
        E 0 90 4a 60
        E 0 90 56 60
        E 0 90 62 60
        E 40 80 1f 00
        E 0 80 3e 00
        E 0 80 4a 00
        E 0 80 56 00
        E 0 80 62 00
        E 280 90 18 60
        E 0 90 1f 60
        E 0 90 54 60
        E 0 90 56 60
        E 0 90 60 60
        E 0 90 62 60
        E 40 80 18 00
        E 0 80 1f 00
        E 0 80 54 00
        E 0 80 56 00
        E 0 80 60 00
        E 0 80 62 00
        E 280 90 1f 60
        E 0 90 56 60
        E 0 90 62 60
        E 40 80 1f 00
        E 0 80 56 00
        E 0 80 62 00
        E 280 90 1b 60
        E 0 90 3d 60
        E 0 90 49 60
        E 0 90 55 60
        E 0 90 61 60
        E 40 80 1b 00
        E 0 80 3d 00
        E 0 80 49 00
        E 0 80 55 00
        E 0 80 61 00
        E 120 90 1a 60
        E 0 90 61 60
        E 40 80 1a 00
        E 0 80 61 00
        E 120 90 1b 60
        E 0 90 61 60
        E 40 80 1b 00
        E 0 80 61 00
        E 120 90 1a 60
        E 0 90 3d 60
        E 0 90 49 60
        E 0 90 55 60
        E 0 90 61 60
        E 40 80 1a 00
        E 0 80 3d 00
        E 0 80 49 00
        E 0 80 55 00
        E 0 80 61 00
        E 120 90 18 60
        E 0 90 26 60
        E 0 90 60 60
        E 0 90 64 60
        E 40 80 18 00
        E 0 80 26 00
        E 0 80 60 00
        E 0 80 64 00
        E 280 90 1f 60
        E 0 90 3e 60
        E 0 90 4a 60
        E 0 90 56 60
        E 0 90 62 60
        E 40 80 1f 00
        E 0 80 3e 00
        E 0 80 4a 00
        E 0 80 56 00
        E 0 80 62 00
        E 280 90 1a 60
        E 0 90 1f 60
        E 0 90 55 60
        E 0 90 56 60
        E 0 90 61 60
        E 0 90 62 60
        E 40 80 1a 00
        E 0 80 1f 00
        E 0 80 55 00
        E 0 80 56 00
        E 0 80 61 00
        E 0 80 62 00
        E 280 90 1f 60
        E 0 90 56 60
        E 0 90 62 60
        E 40 80 1f 00
        E 0 80 56 00
        E 0 80 62 00
        E 280 90 18 60
        E 0 90 1f 60
        E 0 90 3e 60
        E 0 90 48 60
        E 0 90 4a 60
        E 0 90 54 60
        E 0 90 56 60
        E 0 90 60 60
        E 0 90 62 60
        E 40 80 18 00
        E 0 80 1f 00
        E 0 80 3e 00
        E 0 80 48 00
        E 0 80 4a 00
        E 0 80 54 00
        E 0 80 56 00
        E 0 80 60 00
        E 0 80 62 00
        E 280 90 1f 60
        E 0 90 56 60
        E 0 90 62 60
        E 40 80 1f 00
        E 0 80 56 00
        E 0 80 62 00
        E 280 90 1a 60
        E 0 90 1f 60
        E 0 90 55 60
        E 0 90 56 60
        E 0 90 61 60
        E 0 90 62 60
        E 40 80 1a 00
        E 0 80 1f 00
        E 0 80 55 00
        E 0 80 56 00
        E 0 80 61 00
        E 0 80 62 00
        E 280 90 18 60
        E 0 90 1f 60
        E 0 90 3e 60
        E 0 90 48 60
        E 0 90 4a 60
        E 0 90 54 60
        E 0 90 56 60
        E 0 90 60 60
        E 0 90 62 60
        E 40 80 18 00
        E 0 80 1f 00
        E 0 80 3e 00
        E 0 80 48 00
        E 0 80 4a 00
        E 0 80 54 00
        E 0 80 56 00
        E 0 80 60 00
        E 0 80 62 00
        E 280 90 18 60
        E 0 90 1f 60
        E 0 90 54 60
        E 0 90 56 60
        E 0 90 60 60
        E 0 90 62 60
        E 40 80 18 00
        E 0 80 1f 00
        E 0 80 54 00
        E 0 80 56 00
        E 0 80 60 00
        E 0 80 62 00
        E 280 90 1f 60
        E 0 90 56 60
        E 0 90 62 60
        E 40 80 1f 00
        E 0 80 56 00
        E 0 80 62 00
        E 280 90 1a 60
        E 0 90 1f 60
        E 0 90 3d 60
        E 0 90 3e 60
        E 0 90 49 60
        E 0 90 4a 60
        E 0 90 55 60
        E 0 90 56 60
        E 0 90 61 60
        E 0 90 62 60
        E 40 80 1a 00
        E 0 80 1f 00
        E 0 80 3d 00
        E 0 80 3e 00
        E 0 80 49 00
        E 0 80 4a 00
        E 0 80 55 00
        E 0 80 56 00
        E 0 80 61 00
        E 0 80 62 00
        E 280 90 1f 60
        E 0 90 56 60
        E 0 90 62 60
        E 40 80 1f 00
        E 0 80 56 00
        E 0 80 62 00
        E 280 90 18 60
        E 0 90 1f 60
        E 0 90 3e 60
        E 0 90 48 60
        E 0 90 4a 60
        E 0 90 54 60
        E 0 90 56 60
        E 0 90 60 60
        E 0 90 62 60
        E 40 80 18 00
        E 0 80 1f 00
        E 0 80 3e 00
        E 0 80 48 00
        E 0 80 4a 00
        E 0 80 54 00
        E 0 80 56 00
        E 0 80 60 00
        E 0 80 62 00
        E 240 90 78 50
        E 0 90 79 50
        E 0 90 7a 50
        E 0 90 7b 50
        E 0 90 7c 50
        E 80 90 1a 60
        E 0 90 55 60
        E 0 90 61 60
        E 40 80 1a 00
        E 0 80 55 00
        E 0 80 61 00
        E 120 90 1b 60
        E 0 90 61 60
        E 40 80 1b 00
        E 0 80 61 00
        E 120 90 1a 60
        E 0 90 3d 60
        E 0 90 49 60
        E 0 90 55 60
        E 0 90 61 60
        E 40 80 1a 00
        E 0 80 3d 00
        E 0 80 49 00
        E 0 80 55 00
        E 0 80 61 00
        E 120 90 1b 60
        E 0 90 61 60
        E 40 80 1b 00
        E 0 80 61 00
        E 120 90 1a 60
        E 0 90 55 60
        E 0 90 61 60
        E 40 80 1a 00
        E 0 80 55 00
        E 0 80 61 00
        E 120 90 1b 60
        E 0 90 61 60
        E 40 80 1b 00
        E 0 80 61 00
        E 80 90 18 60
        E 0 90 2c 60
        E 0 90 40 60
        E 0 90 48 60
        E 0 90 4c 60
        E 0 90 54 60
        E 0 90 58 60
        E 0 90 60 60
        E 0 90 64 60
        E 40 80 18 00
        E 0 80 2c 00
        E 0 80 40 00
        E 0 80 48 00
        E 0 80 4c 00
        E 0 80 54 00
        E 0 80 58 00
        E 0 80 60 00
        E 0 80 64 00
        E 40 80 78 00
        E 0 80 79 00
        E 0 80 7a 00
        E 0 80 7b 00
        E 0 80 7c 00
        E 240 90 1f 60
        E 0 90 56 60
        E 0 90 62 60
        E 40 80 1f 00
        E 0 80 56 00
        E 0 80 62 00
        E 280 90 1a 60
        E 0 90 1f 60
        E 0 90 55 60
        E 0 90 56 60
        E 0 90 61 60
        E 0 90 62 60
        E 40 80 1a 00
        E 0 80 1f 00
        E 0 80 55 00
        E 0 80 56 00
        E 0 80 61 00
        E 0 80 62 00
        E 280 90 1f 60
        E 0 90 3e 60
        E 0 90 4a 60
        E 0 90 56 60
        E 0 90 62 60
        E 40 80 1f 00
        E 0 80 3e 00
        E 0 80 4a 00
        E 0 80 56 00
        E 0 80 62 00
        E 280 90 18 60
        E 0 90 1f 60
        E 0 90 54 60
        E 0 90 56 60
        E 0 90 60 60
        E 0 90 62 60
        E 40 80 18 00
        E 0 80 1f 00
        E 0 80 54 00
        E 0 80 56 00
        E 0 80 60 00
        E 0 80 62 00
        E 280 90 1f 60
        E 0 90 56 60
        E 0 90 62 60
        E 40 80 1f 00
        E 0 80 56 00
        E 0 80 62 00
        E 280 90 1a 60
        E 0 90 1f 60
        E 0 90 3d 60
        E 0 90 3e 60
        E 0 90 49 60
        E 0 90 4a 60
        E 0 90 55 60
        E 0 90 56 60
        E 0 90 61 60
        E 0 90 62 60
        E 40 80 1a 00
        E 0 80 1f 00
        E 0 80 3d 00
        E 0 80 3e 00
        E 0 80 49 00
        E 0 80 4a 00
        E 0 80 55 00
        E 0 80 56 00
        E 0 80 61 00
        E 0 80 62 00
        E 280 90 18 60
        E 0 90 1f 60
        E 0 90 54 60
        E 0 90 56 60
        E 0 90 60 60
        E 0 90 62 60
        E 40 80 18 00
        E 0 80 1f 00
        E 0 80 54 00
        E 0 80 56 00
        E 0 80 60 00
        E 0 80 62 00
        E 280 90 18 60
        E 0 90 1f 60
        E 0 90 54 60
        E 0 90 56 60
        E 0 90 60 60
        E 0 90 62 60
        E 40 80 18 00
        E 0 80 1f 00
        E 0 80 54 00
        E 0 80 56 00
        E 0 80 60 00
        E 0 80 62 00
        E 280 90 1f 60
        E 0 90 3e 60
        E 0 90 4a 60
        E 0 90 56 60
        E 0 90 62 60
        E 40 80 1f 00
        E 0 80 3e 00
        E 0 80 4a 00
        E 0 80 56 00
        E 0 80 62 00
        E 280 90 1a 60
        E 0 90 1f 60
        E 0 90 55 60
        E 0 90 56 60
        E 0 90 61 60
        E 0 90 62 60
        E 40 80 1a 00
        E 0 80 1f 00
        E 0 80 55 00
        E 0 80 56 00
        E 0 80 61 00
        E 0 80 62 00
        E 280 90 1f 60
        E 0 90 56 60
        E 0 90 62 60
        E 40 80 1f 00
        E 0 80 56 00
        E 0 80 62 00
        E 280 90 18 60
        E 0 90 1f 60
        E 0 90 3e 60
        E 0 90 48 60
        E 0 90 4a 60
        E 0 90 54 60
        E 0 90 56 60
        E 0 90 60 60
        E 0 90 62 60
        E 40 80 18 00
        E 0 80 1f 00
        E 0 80 3e 00
        E 0 80 48 00
        E 0 80 4a 00
        E 0 80 54 00
        E 0 80 56 00
        E 0 80 60 00
        E 0 80 62 00
        E 280 90 1f 60
        E 0 90 56 60
        E 0 90 62 60
        E 40 80 1f 00
        E 0 80 56 00
        E 0 80 62 00
        E 280 90 1a 60
        E 0 90 1f 60
        E 0 90 55 60
        E 0 90 56 60
        E 0 90 61 60
        E 0 90 62 60
        E 40 80 1a 00
        E 0 80 1f 00
        E 0 80 55 00
        E 0 80 56 00
        E 0 80 61 00
        E 0 80 62 00
        E 280 90 18 60
        E 0 90 1f 60
        E 0 90 3e 60
        E 0 90 48 60
        E 0 90 4a 60
        E 0 90 54 60
        E 0 90 56 60
        E 0 90 60 60
        E 0 90 62 60
        E 40 80 18 00
        E 0 80 1f 00
        E 0 80 3e 00
        E 0 80 48 00
        E 0 80 4a 00
        E 0 80 54 00
        E 0 80 56 00
        E 0 80 60 00
        E 0 80 62 00
        E 280 90 18 60
        E 0 90 1f 60
        E 0 90 54 60
        E 0 90 56 60
        E 0 90 60 60
        E 0 90 62 60
        E 40 80 18 00
        E 0 80 1f 00
        E 0 80 54 00
        E 0 80 56 00
        E 0 80 60 00
        E 0 80 62 00
        E 280 90 1f 60
        E 0 90 56 60
        E 0 90 62 60
        E 40 80 1f 00
        E 0 80 56 00
        E 0 80 62 00
        E 280 90 1a 60
        E 0 90 1f 60
        E 0 90 3d 60
        E 0 90 3e 60
        E 0 90 49 60
        E 0 90 4a 60
        E 0 90 55 60
        E 0 90 56 60
        E 0 90 61 60
        E 0 90 62 60
        E 40 80 1a 00
        E 0 80 1f 00
        E 0 80 3d 00
        E 0 80 3e 00
        E 0 80 49 00
        E 0 80 4a 00
        E 0 80 55 00
        E 0 80 56 00
        E 0 80 61 00
        E 0 80 62 00
        E 280 90 1f 60
        E 0 90 56 60
        E 0 90 62 60
        E 40 80 1f 00
        E 0 80 56 00
        E 0 80 62 00
        E 280 90 18 60
        E 0 90 1f 60
        E 0 90 54 60
        E 0 90 56 60
        E 0 90 60 60
        E 0 90 62 60
        E 40 80 18 00
        E 0 80 1f 00
        E 0 80 54 00
        E 0 80 56 00
        E 0 80 60 00
        E 0 80 62 00
        E 280 90 1f 60
        E 0 90 3e 60
        E 0 90 4a 60
        E 0 90 56 60
        E 0 90 62 60
        E 40 80 1f 00
        E 0 80 3e 00
        E 0 80 4a 00
        E 0 80 56 00
        E 0 80 62 00
        E 280 90 1a 60
        E 0 90 1f 60
        E 0 90 55 60
        E 0 90 56 60
        E 0 90 61 60
        E 0 90 62 60
        E 40 80 1a 00
        E 0 80 1f 00
        E 0 80 55 00
        E 0 80 56 00
        E 0 80 61 00
        E 0 80 62 00
        E 280 90 18 60
        E 0 90 1f 60
        E 0 90 54 60
        E 0 90 56 60
        E 0 90 60 60
        E 0 90 62 60
        E 40 80 18 00
        E 0 80 1f 00
        E 0 80 54 00
        E 0 80 56 00
        E 0 80 60 00
        E 0 80 62 00
        E 280 90 18 60
        E 0 90 1f 60
        E 0 90 3e 60
        E 0 90 48 60
        E 0 90 4a 60
        E 0 90 54 60
        E 0 90 56 60
        E 0 90 60 60
        E 0 90 62 60
        E 40 80 18 00
        E 0 80 1f 00
        E 0 80 3e 00
        E 0 80 48 00
        E 0 80 4a 00
        E 0 80 54 00
        E 0 80 56 00
        E 0 80 60 00
        E 0 80 62 00
        E 280 90 1f 60
        E 0 90 56 60
        E 0 90 62 60
        E 40 80 1f 00
        E 0 80 56 00
        E 0 80 62 00
        E 280 90 1a 60
        E 0 90 1f 60
        E 0 90 55 60
        E 0 90 56 60
        E 0 90 61 60
        E 0 90 62 60
        E 40 80 1a 00
        E 0 80 1f 00
        E 0 80 55 00
        E 0 80 56 00
        E 0 80 61 00
        E 0 80 62 00
        E 280 90 1f 60
        E 0 90 3e 60
        E 0 90 4a 60
        E 0 90 56 60
        E 0 90 62 60
        E 40 80 1f 00
        E 0 80 3e 00
        E 0 80 4a 00
        E 0 80 56 00
        E 0 80 62 00
        E 280 90 18 60
        E 0 90 1f 60
        E 0 90 54 60
        E 0 90 56 60
        E 0 90 60 60
        E 0 90 62 60
        E 40 80 18 00
        E 0 80 1f 00
        E 0 80 54 00
        E 0 80 56 00
        E 0 80 60 00
        E 0 80 62 00
        E 280 90 1a 60
        E 0 90 55 60
        E 0 90 61 60
        E 40 80 1a 00
        E 0 80 55 00
        E 0 80 61 00
        E 120 90 1b 60
        E 0 90 61 60
        E 40 80 1b 00
        E 0 80 61 00
        E 120 90 1a 60
        E 0 90 3d 60
        E 0 90 49 60
        E 0 90 55 60
        E 0 90 61 60
        E 40 80 1a 00
        E 0 80 3d 00
        E 0 80 49 00
        E 0 80 55 00
        E 0 80 61 00
        E 120 90 1b 60
        E 0 90 61 60
        E 40 80 1b 00
        E 0 80 61 00
        E 120 90 1a 60
        E 0 90 61 60
        E 40 80 1a 00
        E 0 80 61 00
        E 120 90 1b 60
        E 0 90 3d 60
        E 0 90 49 60
        E 0 90 55 60
        E 0 90 61 60
        E 40 80 1b 00
        E 0 80 3d 00
        E 0 80 49 00
        E 0 80 55 00
        E 0 80 61 00
        E 120 90 18 60
        E 0 90 2c 60
        E 0 90 60 60
        E 0 90 64 60
        E 40 80 18 00
        E 0 80 2c 00
        E 0 80 60 00
        E 0 80 64 00
        E 280 90 1f 60
        E 0 90 3e 60
        E 0 90 4a 60
        E 0 90 56 60
        E 0 90 62 60
        E 40 80 1f 00
        E 0 80 3e 00
        E 0 80 4a 00
        E 0 80 56 00
        E 0 80 62 00
        E 280 90 1a 60
        E 0 90 1f 60
        E 0 90 55 60
        E 0 90 56 60
        E 0 90 61 60
        E 0 90 62 60
        E 40 80 1a 00
        E 0 80 1f 00
        E 0 80 55 00
        E 0 80 56 00
        E 0 80 61 00
        E 0 80 62 00
        E 280 90 1f 60
        E 0 90 56 60
        E 0 90 62 60
        E 40 80 1f 00
        E 0 80 56 00
        E 0 80 62 00
        E 280 90 18 60
        E 0 90 1f 60
        E 0 90 3e 60
        E 0 90 48 60
        E 0 90 4a 60
        E 0 90 54 60
        E 0 90 56 60
        E 0 90 60 60
        E 0 90 62 60
        E 40 80 18 00
        E 0 80 1f 00
        E 0 80 3e 00
        E 0 80 48 00
        E 0 80 4a 00
        E 0 80 54 00
        E 0 80 56 00
        E 0 80 60 00
        E 0 80 62 00
        E 280 90 1f 60
        E 0 90 56 60
        E 0 90 62 60
        E 40 80 1f 00
        E 0 80 56 00
        E 0 80 62 00
        E 280 90 1a 60
        E 0 90 1f 60
        E 0 90 55 60
        E 0 90 56 60
        E 0 90 61 60
        E 0 90 62 60
        E 40 80 1a 00
        E 0 80 1f 00
        E 0 80 55 00
        E 0 80 56 00
        E 0 80 61 00
        E 0 80 62 00
        E 280 90 18 60
        E 0 90 1f 60
        E 0 90 3e 60
        E 0 90 48 60
        E 0 90 4a 60
        E 0 90 54 60
        E 0 90 56 60
        E 0 90 60 60
        E 0 90 62 60
        E 40 80 18 00
        E 0 80 1f 00
        E 0 80 3e 00
        E 0 80 48 00
        E 0 80 4a 00
        E 0 80 54 00
        E 0 80 56 00
        E 0 80 60 00
        E 0 80 62 00
        E 280 90 18 60
        E 0 90 1f 60
        E 0 90 54 60
        E 0 90 56 60
        E 0 90 60 60
        E 0 90 62 60
        E 40 80 18 00
        E 0 80 1f 00
        E 0 80 54 00
        E 0 80 56 00
        E 0 80 60 00
        E 0 80 62 00
        E 280 90 1f 60
        E 0 90 56 60
        E 0 90 62 60
        E 40 80 1f 00
        E 0 80 56 00
        E 0 80 62 00
        E 280 90 1a 60
        E 0 90 1f 60
        E 0 90 3d 60
        E 0 90 3e 60
        E 0 90 49 60
        E 0 90 4a 60
        E 0 90 55 60
        E 0 90 56 60
        E 0 90 61 60
        E 0 90 62 60
        E 40 80 1a 00
        E 0 80 1f 00
        E 0 80 3d 00
        E 0 80 3e 00
        E 0 80 49 00
        E 0 80 4a 00
        E 0 80 55 00
        E 0 80 56 00
        E 0 80 61 00
        E 0 80 62 00
        E 280 90 1f 60
        E 0 90 56 60
        E 0 90 62 60
        E 40 80 1f 00
        E 0 80 56 00
        E 0 80 62 00
        E 280 90 18 60
        E 0 90 1f 60
        E 0 90 54 60
        E 0 90 56 60
        E 0 90 60 60
        E 0 90 62 60
        E 40 80 18 00
        E 0 80 1f 00
        E 0 80 54 00
        E 0 80 56 00
        E 0 80 60 00
        E 0 80 62 00
        E 280 90 18 60
        E 0 90 1f 60
        E 0 90 3e 60
        E 0 90 48 60
        E 0 90 4a 60
        E 0 90 54 60
        E 0 90 56 60
        E 0 90 60 60
        E 0 90 62 60
        E 40 80 18 00
        E 0 80 1f 00
        E 0 80 3e 00
        E 0 80 48 00
        E 0 80 4a 00
        E 0 80 54 00
        E 0 80 56 00
        E 0 80 60 00
        E 0 80 62 00
        E 280 90 1a 60
        E 0 90 1f 60
        E 0 90 55 60
        E 0 90 56 60
        E 0 90 61 60
        E 0 90 62 60
        E 40 80 1a 00
        E 0 80 1f 00
        E 0 80 55 00
        E 0 80 56 00
        E 0 80 61 00
        E 0 80 62 00
        E 280 90 18 60
        E 0 90 1f 60
        E 0 90 54 60
        E 0 90 56 60
        E 0 90 60 60
        E 0 90 62 60
        E 40 80 18 00
        E 0 80 1f 00
        E 0 80 54 00
        E 0 80 56 00
        E 0 80 60 00
        E 0 80 62 00
        E 280 90 18 60
        E 0 90 1f 60
        E 0 90 3e 60
        E 0 90 48 60
        E 0 90 4a 60
        E 0 90 54 60
        E 0 90 56 60
        E 0 90 60 60
        E 0 90 62 60
        E 40 80 18 00
        E 0 80 1f 00
        E 0 80 3e 00
        E 0 80 48 00
        E 0 80 4a 00
        E 0 80 54 00
        E 0 80 56 00
        E 0 80 60 00
        E 0 80 62 00
        E 280 90 1f 60
        E 0 90 56 60
        E 0 90 62 60
        E 40 80 1f 00
        E 0 80 56 00
        E 0 80 62 00
        E 280 90 1a 60
        E 0 90 1f 60
        E 0 90 55 60
        E 0 90 56 60
        E 0 90 61 60
        E 0 90 62 60
        E 40 80 1a 00
        E 0 80 1f 00
        E 0 80 55 00
        E 0 80 56 00
        E 0 80 61 00
        E 0 80 62 00
        E 280 90 1f 60
        E 0 90 3e 60
        E 0 90 4a 60
        E 0 90 56 60
        E 0 90 62 60
        E 40 80 1f 00
        E 0 80 3e 00
        E 0 80 4a 00
        E 0 80 56 00
        E 0 80 62 00
        E 280 90 18 60
        E 0 90 1f 60
        E 0 90 54 60
        E 0 90 56 60
        E 0 90 60 60
        E 0 90 62 60
        E 40 80 18 00
        E 0 80 1f 00
        E 0 80 54 00
        E 0 80 56 00
        E 0 80 60 00
        E 0 80 62 00
        E 280 90 18 60
        E 0 90 1f 60
        E 0 90 54 60
        E 0 90 56 60
        E 0 90 60 60
        E 0 90 62 60
        E 40 80 18 00
        E 0 80 1f 00
        E 0 80 54 00
        E 0 80 56 00
        E 0 80 60 00
        E 0 80 62 00
        E 280 90 1a 60
        E 0 90 1f 60
        E 0 90 3d 60
        E 0 90 3e 60
        E 0 90 49 60
        E 0 90 4a 60
        E 0 90 55 60
        E 0 90 56 60
        E 0 90 61 60
        E 0 90 62 60
        E 40 80 1a 00
        E 0 80 1f 00
        E 0 80 3d 00
        E 0 80 3e 00
        E 0 80 49 00
        E 0 80 4a 00
        E 0 80 55 00
        E 0 80 56 00
        E 0 80 61 00
        E 0 80 62 00
        E 280 90 18 60
        E 0 90 1f 60
        E 0 90 54 60
        E 0 90 56 60
        E 0 90 60 60
        E 0 90 62 60
        E 40 80 18 00
        E 0 80 1f 00
        E 0 80 54 00
        E 0 80 56 00
        E 0 80 60 00
        E 0 80 62 00
        E 280 90 18 60
        E 0 90 1f 60
        E 0 90 54 60
        E 0 90 56 60
        E 0 90 60 60
        E 0 90 62 60
        E 40 80 18 00
        E 0 80 1f 00
        E 0 80 54 00
        E 0 80 56 00
        E 0 80 60 00
        E 0 80 62 00
        E 280 90 1f 60
        E 0 90 3e 60
        E 0 90 4a 60
        E 0 90 56 60
        E 0 90 62 60
        E 40 80 1f 00
        E 0 80 3e 00
        E 0 80 4a 00
        E 0 80 56 00
        E 0 80 62 00
        E 280 90 1a 60
        E 0 90 1f 60
        E 0 90 55 60
        E 0 90 56 60
        E 0 90 61 60
        E 0 90 62 60
        E 40 80 1a 00
        E 0 80 1f 00
        E 0 80 55 00
        E 0 80 56 00
        E 0 80 61 00
        E 0 80 62 00
        E 280 90 1f 60
        E 0 90 56 60
        E 0 90 62 60
        E 40 80 1f 00
        E 0 80 56 00
        E 0 80 62 00
        E 280 90 18 60
        E 0 90 1f 60
        E 0 90 3e 60
        E 0 90 48 60
        E 0 90 4a 60
        E 0 90 54 60
        E 0 90 56 60
        E 0 90 60 60
        E 0 90 62 60
        E 40 80 18 00
        E 0 80 1f 00
        E 0 80 3e 00
        E 0 80 48 00
        E 0 80 4a 00
        E 0 80 54 00
        E 0 80 56 00
        E 0 80 60 00
        E 0 80 62 00
        E 280 90 1e 60
        E 0 90 62 60
        E 40 80 1e 00
        E 0 80 62 00
        E 120 90 1b 60
        E 0 90 3d 60
        E 0 90 49 60
        E 0 90 55 60
        E 0 90 61 60
        E 40 80 1b 00
        E 0 80 3d 00
        E 0 80 49 00
        E 0 80 55 00
        E 0 80 61 00
        E 120 90 1a 60
        E 0 90 61 60
        E 40 80 1a 00
        E 0 80 61 00
        E 280 90 1b 60
        E 0 90 3d 60
        E 0 90 49 60
        E 0 90 55 60
        E 0 90 61 60
        E 40 80 1b 00
        E 0 80 3d 00
        E 0 80 49 00
        E 0 80 55 00
        E 0 80 61 00
        E 120 90 1a 60
        E 0 90 61 60
        E 40 80 1a 00
        E 0 80 61 00
        E 120 90 18 60
        E 0 90 26 60
        E 0 90 54 60
        E 0 90 58 60
        E 0 90 60 60
        E 0 90 64 60
        E 40 80 18 00
        E 0 80 26 00
        E 0 80 54 00
        E 0 80 58 00
        E 0 80 60 00
        E 0 80 64 00
        E 280 90 1f 60
        E 0 90 56 60
        E 0 90 62 60
        E 40 80 1f 00
        E 0 80 56 00
        E 0 80 62 00
        E 280 90 1a 60
        E 0 90 1f 60
        E 0 90 3d 60
        E 0 90 3e 60
        E 0 90 49 60
        E 0 90 4a 60
        E 0 90 55 60
        E 0 90 56 60
        E 0 90 61 60
        E 0 90 62 60
        E 40 80 1a 00
        E 0 80 1f 00
        E 0 80 3d 00
        E 0 80 3e 00
        E 0 80 49 00
        E 0 80 4a 00
        E 0 80 55 00
        E 0 80 56 00
        E 0 80 61 00
        E 0 80 62 00
        E 280 90 1f 60
        E 0 90 56 60
        E 0 90 62 60
        E 40 80 1f 00
        E 0 80 56 00
        E 0 80 62 00
        E 280 90 18 60
        E 0 90 1f 60
        E 0 90 54 60
        E 0 90 56 60
        E 0 90 60 60
        E 0 90 62 60
        E 40 80 18 00
        E 0 80 1f 00
        E 0 80 54 00
        E 0 80 56 00
        E 0 80 60 00
        E 0 80 62 00
        E 280 90 1f 60
        E 0 90 3e 60
        E 0 90 4a 60
        E 0 90 56 60
        E 0 90 62 60
        E 40 80 1f 00
        E 0 80 3e 00
        E 0 80 4a 00
        E 0 80 56 00
        E 0 80 62 00
        E 280 90 1a 60
        E 0 90 1f 60
        E 0 90 55 60
        E 0 90 56 60
        E 0 90 61 60
        E 0 90 62 60
        E 40 80 1a 00
        E 0 80 1f 00
        E 0 80 55 00
        E 0 80 56 00
        E 0 80 61 00
        E 0 80 62 00
        E 280 90 18 60
        E 0 90 1f 60
        E 0 90 54 60
        E 0 90 56 60
        E 0 90 60 60
        E 0 90 62 60
        E 40 80 18 00
        E 0 80 1f 00
        E 0 80 54 00
        E 0 80 56 00
        E 0 80 60 00
        E 0 80 62 00
        E 280 90 18 60
        E 0 90 1f 60
        E 0 90 3e 60
        E 0 90 48 60
        E 0 90 4a 60
        E 0 90 54 60
        E 0 90 56 60
        E 0 90 60 60
        E 0 90 62 60
        E 40 80 18 00
        E 0 80 1f 00
        E 0 80 3e 00
        E 0 80 48 00
        E 0 80 4a 00
        E 0 80 54 00
        E 0 80 56 00
        E 0 80 60 00
        E 0 80 62 00
        E 280 90 1f 60
        E 0 90 56 60
        E 0 90 62 60
        E 40 80 1f 00
        E 0 80 56 00
        E 0 80 62 00
        E 280 90 1a 60
        E 0 90 1f 60
        E 0 90 55 60
        E 0 90 56 60
        E 0 90 61 60
        E 0 90 62 60
        E 40 80 1a 00
        E 0 80 1f 00
        E 0 80 55 00
        E 0 80 56 00
        E 0 80 61 00
        E 0 80 62 00
        E 280 90 1f 60
        E 0 90 3e 60
        E 0 90 4a 60
        E 0 90 56 60
        E 0 90 62 60
        E 40 80 1f 00
        E 0 80 3e 00
        E 0 80 4a 00
        E 0 80 56 00
        E 0 80 62 00
        E 280 90 18 60
        E 0 90 1f 60
        E 0 90 54 60
        E 0 90 56 60
        E 0 90 60 60
        E 0 90 62 60
        E 40 80 18 00
        E 0 80 1f 00
        E 0 80 54 00
        E 0 80 56 00
        E 0 80 60 00
        E 0 80 62 00
        E 280 90 1f 60
        E 0 90 56 60
        E 0 90 62 60
        E 40 80 1f 00
        E 0 80 56 00
        E 0 80 62 00
        E 280 90 1a 60
        E 0 90 1f 60
        E 0 90 3d 60
        E 0 90 3e 60
        E 0 90 49 60
        E 0 90 4a 60
        E 0 90 55 60
        E 0 90 56 60
        E 0 90 61 60
        E 0 90 62 60
        E 40 80 1a 00
        E 0 80 1f 00
        E 0 80 3d 00
        E 0 80 3e 00
        E 0 80 49 00
        E 0 80 4a 00
        E 0 80 55 00
        E 0 80 56 00
        E 0 80 61 00
        E 0 80 62 00
        E 280 90 18 60
        E 0 90 1f 60
        E 0 90 54 60
        E 0 90 56 60
        E 0 90 60 60
        E 0 90 62 60
        E 40 80 18 00
        E 0 80 1f 00
        E 0 80 54 00
        E 0 80 56 00
        E 0 80 60 00
        E 0 80 62 00
        E 280 90 18 60
        E 0 90 1f 60
        E 0 90 54 60
        E 0 90 56 60
        E 0 90 60 60
        E 0 90 62 60
        E 40 80 18 00
        E 0 80 1f 00
        E 0 80 54 00
        E 0 80 56 00
        E 0 80 60 00
        E 0 80 62 00
        E 280 90 1f 60
        E 0 90 3e 60
        E 0 90 4a 60
        E 0 90 56 60
        E 0 90 62 60
        E 40 80 1f 00
        E 0 80 3e 00
        E 0 80 4a 00
        E 0 80 56 00
        E 0 80 62 00
        E 280 90 1a 60
        E 0 90 1f 60
        E 0 90 55 60
        E 0 90 56 60
        E 0 90 61 60
        E 0 90 62 60
        E 40 80 1a 00
        E 0 80 1f 00
        E 0 80 55 00
        E 0 80 56 00
        E 0 80 61 00
        E 0 80 62 00
        E 280 90 1f 60
        E 0 90 56 60
        E 0 90 62 60
        E 40 80 1f 00
        E 0 80 56 00
        E 0 80 62 00
        E 280 90 18 60
        E 0 90 1f 60
        E 0 90 3e 60
        E 0 90 48 60
        E 0 90 4a 60
        E 0 90 54 60
        E 0 90 56 60
        E 0 90 60 60
        E 0 90 62 60
        E 40 80 18 00
        E 0 80 1f 00
        E 0 80 3e 00
        E 0 80 48 00
        E 0 80 4a 00
        E 0 80 54 00
        E 0 80 56 00
        E 0 80 60 00
        E 0 80 62 00
        E 280 90 18 60
        E 0 90 1f 60
        E 0 90 54 60
        E 0 90 56 60
        E 0 90 60 60
        E 0 90 62 60
        E 40 80 18 00
        E 0 80 1f 00
        E 0 80 54 00
        E 0 80 56 00
        E 0 80 60 00
        E 0 80 62 00
        E 280 90 1a 60
        E 0 90 1f 60
        E 0 90 55 60
        E 0 90 56 60
        E 0 90 61 60
        E 0 90 62 60
        E 40 80 1a 00
        E 0 80 1f 00
        E 0 80 55 00
        E 0 80 56 00
        E 0 80 61 00
        E 0 80 62 00
        E 280 90 18 60
        E 0 90 1f 60
        E 0 90 3e 60
        E 0 90 48 60
        E 0 90 4a 60
        E 0 90 54 60
        E 0 90 56 60
        E 0 90 60 60
        E 0 90 62 60
        E 40 80 18 00
        E 0 80 1f 00
        E 0 80 3e 00
        E 0 80 48 00
        E 0 80 4a 00
        E 0 80 54 00
        E 0 80 56 00
        E 0 80 60 00
        E 0 80 62 00
        E 280 90 18 60
        E 0 90 1f 60
        E 0 90 54 60
        E 0 90 56 60
        E 0 90 60 60
        E 0 90 62 60
        E 40 80 18 00
        E 0 80 1f 00
        E 0 80 54 00
        E 0 80 56 00
        E 0 80 60 00
        E 0 80 62 00
        E 280 90 1f 60
        E 0 90 56 60
        E 0 90 62 60
        E 40 80 1f 00
        E 0 80 56 00
        E 0 80 62 00
        E 280 90 1a 60
        E 0 90 1f 60
        E 0 90 3d 60
        E 0 90 3e 60
        E 0 90 49 60
        E 0 90 4a 60
        E 0 90 55 60
        E 0 90 56 60
        E 0 90 61 60
        E 0 90 62 60
        E 40 80 1a 00
        E 0 80 1f 00
        E 0 80 3d 00
        E 0 80 3e 00
        E 0 80 49 00
        E 0 80 4a 00
        E 0 80 55 00
        E 0 80 56 00
        E 0 80 61 00
        E 0 80 62 00
        E 280 90 1f 60
        E 0 90 56 60
        E 0 90 62 60
        E 40 80 1f 00
        E 0 80 56 00
        E 0 80 62 00
        E 280 90 18 60
        E 0 90 1f 60
        E 0 90 54 60
        E 0 90 56 60
        E 0 90 60 60
        E 0 90 62 60
        E 40 80 18 00
        E 0 80 1f 00
        E 0 80 54 00
        E 0 80 56 00
        E 0 80 60 00
        E 0 80 62 00
        E 200 90 74 50
        E 80 90 1f 60
        E 0 90 3e 60
        E 0 90 4a 60
        E 0 90 56 60
        E 0 90 62 60
        E 40 80 1f 00
        E 0 80 3e 00
        E 0 80 4a 00
        E 0 80 56 00
        E 0 80 62 00
        E 120 90 1a 60
        E 0 90 61 60
        E 40 80 1a 00
        E 0 80 61 00
        E 120 90 1b 60
        E 0 90 55 60
        E 0 90 61 60
        E 40 80 1b 00
        E 0 80 55 00
        E 0 80 61 00
        E 280 90 1a 60
        E 0 90 55 60
        E 0 90 61 60
        E 40 80 1a 00
        E 0 80 55 00
        E 0 80 61 00
        E 120 90 1b 60
        E 0 90 61 60
        E 40 80 1b 00
        E 0 80 61 00
        E 120 90 18 60
        E 0 90 2c 60
        E 0 90 40 60
        E 0 90 48 60
        E 0 90 4c 60
        E 0 90 54 60
        E 0 90 58 60
        E 0 90 60 60
        E 0 90 64 60
        E 40 80 18 00
        E 0 80 2c 00
        E 0 80 40 00
        E 0 80 48 00
        E 0 80 4c 00
        E 0 80 54 00
        E 0 80 58 00
        E 0 80 60 00
        E 0 80 64 00
        E 80 80 74 00
        E 200 90 1f 60
        E 0 90 56 60
        E 0 90 62 60
        E 40 80 1f 00
        E 0 80 56 00
        E 0 80 62 00
        E 280 90 1a 60
        E 0 90 1f 60
        E 0 90 55 60
        E 0 90 56 60
        E 0 90 61 60
        E 0 90 62 60
        E 40 80 1a 00
        E 0 80 1f 00
        E 0 80 55 00
        E 0 80 56 00
        E 0 80 61 00
        E 0 80 62 00
        E 280 90 1f 60
        E 0 90 3e 60
        E 0 90 4a 60
        E 0 90 56 60
        E 0 90 62 60
        E 40 80 1f 00
        E 0 80 3e 00
        E 0 80 4a 00
        E 0 80 56 00
        E 0 80 62 00
        E 280 90 18 60
        E 0 90 1f 60
        E 0 90 54 60
        E 0 90 56 60
        E 0 90 60 60
        E 0 90 62 60
        E 40 80 18 00
        E 0 80 1f 00
        E 0 80 54 00
        E 0 80 56 00
        E 0 80 60 00
        E 0 80 62 00
        E 280 90 1f 60
        E 0 90 56 60
        E 0 90 62 60
        E 40 80 1f 00
        E 0 80 56 00
        E 0 80 62 00
        E 280 90 1a 60
        E 0 90 1f 60
        E 0 90 3d 60
        E 0 90 3e 60
        E 0 90 49 60
        E 0 90 4a 60
        E 0 90 55 60
        E 0 90 56 60
        E 0 90 61 60
        E 0 90 62 60
        E 40 80 1a 00
        E 0 80 1f 00
        E 0 80 3d 00
        E 0 80 3e 00
        E 0 80 49 00
        E 0 80 4a 00
        E 0 80 55 00
        E 0 80 56 00
        E 0 80 61 00
        E 0 80 62 00
        E 280 90 18 60
        E 0 90 1f 60
        E 0 90 54 60
        E 0 90 56 60
        E 0 90 60 60
        E 0 90 62 60
        E 40 80 18 00
        E 0 80 1f 00
        E 0 80 54 00
        E 0 80 56 00
        E 0 80 60 00
        E 0 80 62 00
        E 280 90 18 60
        E 0 90 1f 60
        E 0 90 54 60
        E 0 90 56 60
        E 0 90 60 60
        E 0 90 62 60
        E 40 80 18 00
        E 0 80 1f 00
        E 0 80 54 00
        E 0 80 56 00
        E 0 80 60 00
        E 0 80 62 00
        E 280 90 1f 60
        E 0 90 3e 60
        E 0 90 4a 60
        E 0 90 56 60
        E 0 90 62 60
        E 40 80 1f 00
        E 0 80 3e 00
        E 0 80 4a 00
        E 0 80 56 00
        E 0 80 62 00
        E 280 90 1a 60
        E 0 90 1f 60
        E 0 90 55 60
        E 0 90 56 60
        E 0 90 61 60
        E 0 90 62 60
        E 40 80 1a 00
        E 0 80 1f 00
        E 0 80 55 00
        E 0 80 56 00
        E 0 80 61 00
        E 0 80 62 00
        E 280 90 1f 60
        E 0 90 56 60
        E 0 90 62 60
        E 40 80 1f 00
        E 0 80 56 00
        E 0 80 62 00
        E 280 90 18 60
        E 0 90 1f 60
        E 0 90 3e 60
        E 0 90 48 60
        E 0 90 4a 60
        E 0 90 54 60
        E 0 90 56 60
        E 0 90 60 60
        E 0 90 62 60
        E 40 80 18 00
        E 0 80 1f 00
        E 0 80 3e 00
        E 0 80 48 00
        E 0 80 4a 00
        E 0 80 54 00
        E 0 80 56 00
        E 0 80 60 00
        E 0 80 62 00
        E 280 90 1f 60
        E 0 90 56 60
        E 0 90 62 60
        E 40 80 1f 00
        E 0 80 56 00
        E 0 80 62 00
        E 280 90 1a 60
        E 0 90 1f 60
        E 0 90 55 60
        E 0 90 56 60
        E 0 90 61 60
        E 0 90 62 60
        E 40 80 1a 00
        E 0 80 1f 00
        E 0 80 55 00
        E 0 80 56 00
        E 0 80 61 00
        E 0 80 62 00
        E 280 90 18 60
        E 0 90 1f 60
        E 0 90 3e 60
        E 0 90 48 60
        E 0 90 4a 60
        E 0 90 54 60
        E 0 90 56 60
        E 0 90 60 60
        E 0 90 62 60
        E 40 80 18 00
        E 0 80 1f 00
        E 0 80 3e 00
        E 0 80 48 00
        E 0 80 4a 00
        E 0 80 54 00
        E 0 80 56 00
        E 0 80 60 00
        E 0 80 62 00
        E 280 90 18 60
        E 0 90 1f 60
        E 0 90 54 60
        E 0 90 56 60
        E 0 90 60 60
        E 0 90 62 60
        E 40 80 18 00
        E 0 80 1f 00
        E 0 80 54 00
        E 0 80 56 00
        E 0 80 60 00
        E 0 80 62 00
        E 280 90 1f 60
        E 0 90 56 60
        E 0 90 62 60
        E 40 80 1f 00
        E 0 80 56 00
        E 0 80 62 00
        E 280 90 1a 60
        E 0 90 1f 60
        E 0 90 3d 60
        E 0 90 3e 60
        E 0 90 49 60
        E 0 90 4a 60
        E 0 90 55 60
        E 0 90 56 60
        E 0 90 61 60
        E 0 90 62 60
        E 40 80 1a 00
        E 0 80 1f 00
        E 0 80 3d 00
        E 0 80 3e 00
        E 0 80 49 00
        E 0 80 4a 00
        E 0 80 55 00
        E 0 80 56 00
        E 0 80 61 00
        E 0 80 62 00
        E 280 90 1f 60
        E 0 90 56 60
        E 0 90 62 60
        E 40 80 1f 00
        E 0 80 56 00
        E 0 80 62 00
        E 280 90 18 60
        E 0 90 1f 60
        E 0 90 54 60
        E 0 90 56 60
        E 0 90 60 60
        E 0 90 62 60
        E 40 80 18 00
        E 0 80 1f 00
        E 0 80 54 00
        E 0 80 56 00
        E 0 80 60 00
        E 0 80 62 00
        E 280 90 18 60
        E 0 90 1f 60
        E 0 90 3e 60
        E 0 90 48 60
        E 0 90 4a 60
        E 0 90 54 60
        E 0 90 56 60
        E 0 90 60 60
        E 0 90 62 60
        E 40 80 18 00
        E 0 80 1f 00
        E 0 80 3e 00
        E 0 80 48 00
        E 0 80 4a 00
        E 0 80 54 00
        E 0 80 56 00
        E 0 80 60 00
        E 0 80 62 00
        E 280 90 1a 60
        E 0 90 1f 60
        E 0 90 55 60
        E 0 90 56 60
        E 0 90 61 60
        E 0 90 62 60
        E 40 80 1a 00
        E 0 80 1f 00
        E 0 80 55 00
        E 0 80 56 00
        E 0 80 61 00
        E 0 80 62 00
        E 280 90 18 60
        E 0 90 1f 60
        E 0 90 54 60
        E 0 90 56 60
        E 0 90 60 60
        E 0 90 62 60
        E 40 80 18 00
        E 0 80 1f 00
        E 0 80 54 00
        E 0 80 56 00
        E 0 80 60 00
        E 0 80 62 00
        E 280 90 18 60
        E 0 90 1f 60
        E 0 90 3e 60
        E 0 90 48 60
        E 0 90 4a 60
        E 0 90 54 60
        E 0 90 56 60
        E 0 90 60 60
        E 0 90 62 60
        E 40 80 18 00
        E 0 80 1f 00
        E 0 80 3e 00
        E 0 80 48 00
        E 0 80 4a 00
        E 0 80 54 00
        E 0 80 56 00
        E 0 80 60 00
        E 0 80 62 00
        E 280 90 1f 60
        E 0 90 56 60
        E 0 90 62 60
        E 40 80 1f 00
        E 0 80 56 00
        E 0 80 62 00
        E 280 90 1a 60
        E 0 90 1f 60
        E 0 90 55 60
        E 0 90 56 60
        E 0 90 61 60
        E 0 90 62 60
        E 40 80 1a 00
        E 0 80 1f 00
        E 0 80 55 00
        E 0 80 56 00
        E 0 80 61 00
        E 0 80 62 00
        E 280 90 1f 60
        E 0 90 3e 60
        E 0 90 4a 60
        E 0 90 56 60
        E 0 90 62 60
        E 40 80 1f 00
        E 0 80 3e 00
        E 0 80 4a 00
        E 0 80 56 00
        E 0 80 62 00
        E 280 90 18 60
        E 0 90 1f 60
        E 0 90 54 60
        E 0 90 56 60
        E 0 90 60 60
        E 0 90 62 60
        E 40 80 18 00
        E 0 80 1f 00
        E 0 80 54 00
        E 0 80 56 00
        E 0 80 60 00
        E 0 80 62 00
        E 280 90 18 60
        E 0 90 1f 60
        E 0 90 54 60
        E 0 90 56 60
        E 0 90 60 60
        E 0 90 62 60
        E 40 80 18 00
        E 0 80 1f 00
        E 0 80 54 00
        E 0 80 56 00
        E 0 80 60 00
        E 0 80 62 00
        E 280 90 1a 60
        E 0 90 1f 60
        E 0 90 3d 60
        E 0 90 3e 60
        E 0 90 49 60
        E 0 90 4a 60
        E 0 90 55 60
        E 0 90 56 60
        E 0 90 61 60
        E 0 90 62 60
        E 40 80 1a 00
        E 0 80 1f 00
        E 0 80 3d 00
        E 0 80 3e 00
        E 0 80 49 00
        E 0 80 4a 00
        E 0 80 55 00
        E 0 80 56 00
        E 0 80 61 00
        E 0 80 62 00
        E 280 90 18 60
        E 0 90 1f 60
        E 0 90 60 60
        E 0 90 62 60
        E 40 80 18 00
        E 0 80 1f 00
        E 0 80 60 00
        E 0 80 62 00
        E 120 90 1b 60
        E 0 90 3d 60
        E 0 90 49 60
        E 0 90 55 60
        E 0 90 61 60
        E 40 80 1b 00
        E 0 80 3d 00
        E 0 80 49 00
        E 0 80 55 00
        E 0 80 61 00
        E 120 90 18 60
        E 0 90 1e 60
        E 0 90 60 60
        E 0 90 62 60
        E 40 80 18 00
        E 0 80 1e 00
        E 0 80 60 00
        E 0 80 62 00
        E 280 90 1f 60
        E 0 90 3e 60
        E 0 90 4a 60
        E 0 90 56 60
        E 0 90 62 60
        E 40 80 1f 00
        E 0 80 3e 00
        E 0 80 4a 00
        E 0 80 56 00
        E 0 80 62 00
        E 280 90 1a 60
        E 0 90 1f 60
        E 0 90 55 60
        E 0 90 56 60
        E 0 90 61 60
        E 0 90 62 60
        E 40 80 1a 00
        E 0 80 1f 00
        E 0 80 55 00
        E 0 80 56 00
        E 0 80 61 00
        E 0 80 62 00
        E 280 90 18 60
        E 0 90 1f 60
        E 0 90 54 60
        E 0 90 56 60
        E 0 90 60 60
        E 0 90 62 60
        E 40 80 18 00
        E 0 80 1f 00
        E 0 80 54 00
        E 0 80 56 00
        E 0 80 60 00
        E 0 80 62 00
        E 280 90 18 60
        E 0 90 1f 60
        E 0 90 3e 60
        E 0 90 48 60
        E 0 90 4a 60
        E 0 90 54 60
        E 0 90 56 60
        E 0 90 60 60
        E 0 90 62 60
        E 40 80 18 00
        E 0 80 1f 00
        E 0 80 3e 00
        E 0 80 48 00
        E 0 80 4a 00
        E 0 80 54 00
        E 0 80 56 00
        E 0 80 60 00
        E 0 80 62 00
        E 280 90 1f 60
        E 0 90 56 60
        E 0 90 62 60
        E 40 80 1f 00
        E 0 80 56 00
        E 0 80 62 00
        E 280 90 1a 60
        E 0 90 1f 60
        E 0 90 55 60
        E 0 90 56 60
        E 0 90 61 60
        E 0 90 62 60
        E 40 80 1a 00
        E 0 80 1f 00
        E 0 80 55 00
        E 0 80 56 00
        E 0 80 61 00
        E 0 80 62 00
        E 280 90 1f 60
        E 0 90 3e 60
        E 0 90 4a 60
        E 0 90 56 60
        E 0 90 62 60
        E 40 80 1f 00
        E 0 80 3e 00
        E 0 80 4a 00
        E 0 80 56 00
        E 0 80 62 00
        E 280 90 18 60
        E 0 90 1f 60
        E 0 90 54 60
        E 0 90 56 60
        E 0 90 60 60
        E 0 90 62 60
        E 40 80 18 00
        E 0 80 1f 00
        E 0 80 54 00
        E 0 80 56 00
        E 0 80 60 00
        E 0 80 62 00
        E 280 90 1f 60
        E 0 90 56 60
        E 0 90 62 60
        E 40 80 1f 00
        E 0 80 56 00
        E 0 80 62 00
        E 280 90 1a 60
        E 0 90 1f 60
        E 0 90 3d 60
        E 0 90 3e 60
        E 0 90 49 60
        E 0 90 4a 60
        E 0 90 55 60
        E 0 90 56 60
        E 0 90 61 60
        E 0 90 62 60
        E 40 80 1a 00
        E 0 80 1f 00
        E 0 80 3d 00
        E 0 80 3e 00
        E 0 80 49 00
        E 0 80 4a 00
        E 0 80 55 00
        E 0 80 56 00
        E 0 80 61 00
        E 0 80 62 00
        E 280 90 1f 60
        E 0 90 56 60
        E 0 90 62 60
        E 40 80 1f 00
        E 0 80 56 00
        E 0 80 62 00
        E 280 90 18 60
        E 0 90 1f 60
        E 0 90 54 60
        E 0 90 56 60
        E 0 90 60 60
        E 0 90 62 60
        E 40 80 18 00
        E 0 80 1f 00
        E 0 80 54 00
        E 0 80 56 00
        E 0 80 60 00
        E 0 80 62 00
        E 280 90 1f 60
        E 0 90 3e 60
        E 0 90 4a 60
        E 0 90 56 60
        E 0 90 62 60
        E 40 80 1f 00
        E 0 80 3e 00
        E 0 80 4a 00
        E 0 80 56 00
        E 0 80 62 00
        E 280 90 1a 60
        E 0 90 61 60
        E 40 80 1a 00
        E 0 80 61 00
        E 120 90 1b 60
        E 0 90 3d 60
        E 0 90 49 60
        E 0 90 55 60
        E 0 90 61 60
        E 40 80 1b 00
        E 0 80 3d 00
        E 0 80 49 00
        E 0 80 55 00
        E 0 80 61 00
        E 120 90 1a 60
        E 0 90 61 60
        E 40 80 1a 00
        E 0 80 61 00
        E 120 90 1b 60
        E 0 90 61 60
        E 40 80 1b 00
        E 0 80 61 00
        E 120 90 18 60
        E 0 90 2c 60
        E 0 90 40 60
        E 0 90 48 60
        E 0 90 4c 60
        E 0 90 54 60
        E 0 90 58 60
        E 0 90 60 60
        E 0 90 64 60
        E 40 80 18 00
        E 0 80 2c 00
        E 0 80 40 00
        E 0 80 48 00
        E 0 80 4c 00
        E 0 80 54 00
        E 0 80 58 00
        E 0 80 60 00
        E 0 80 64 00
        E 280 90 1f 60
        E 0 90 56 60
        E 0 90 62 60
        E 40 80 1f 00
        E 0 80 56 00
        E 0 80 62 00
        E 280 90 1a 60
        E 0 90 1f 60
        E 0 90 55 60
        E 0 90 56 60
        E 0 90 61 60
        E 0 90 62 60
        E 40 80 1a 00
        E 0 80 1f 00
        E 0 80 55 00
        E 0 80 56 00
        E 0 80 61 00
        E 0 80 62 00
        E 280 90 1f 60
        E 0 90 3e 60
        E 0 90 4a 60
        E 0 90 56 60
        E 0 90 62 60
        E 40 80 1f 00
        E 0 80 3e 00
        E 0 80 4a 00
        E 0 80 56 00
        E 0 80 62 00
        E 280 90 18 60
        E 0 90 1f 60
        E 0 90 54 60
        E 0 90 56 60
        E 0 90 60 60
        E 0 90 62 60
        E 40 80 18 00
        E 0 80 1f 00
        E 0 80 54 00
        E 0 80 56 00
        E 0 80 60 00
        E 0 80 62 00
        E 280 90 1f 60
        E 0 90 56 60
        E 0 90 62 60
        E 40 80 1f 00
        E 0 80 56 00
        E 0 80 62 00
        E 280 90 1a 60
        E 0 90 1f 60
        E 0 90 3d 60
        E 0 90 3e 60
        E 0 90 49 60
        E 0 90 4a 60
        E 0 90 55 60
        E 0 90 56 60
        E 0 90 61 60
        E 0 90 62 60
        E 40 80 1a 00
        E 0 80 1f 00
        E 0 80 3d 00
        E 0 80 3e 00
        E 0 80 49 00
        E 0 80 4a 00
        E 0 80 55 00
        E 0 80 56 00
        E 0 80 61 00
        E 0 80 62 00
        E 280 90 18 60
        E 0 90 1f 60
        E 0 90 54 60
        E 0 90 56 60
        E 0 90 60 60
        E 0 90 62 60
        E 40 80 18 00
        E 0 80 1f 00
        E 0 80 54 00
        E 0 80 56 00
        E 0 80 60 00
        E 0 80 62 00
        E 280 90 18 60
        E 0 90 1f 60
        E 0 90 54 60
        E 0 90 56 60
        E 0 90 60 60
        E 0 90 62 60
        E 40 80 18 00
        E 0 80 1f 00
        E 0 80 54 00
        E 0 80 56 00
        E 0 80 60 00
        E 0 80 62 00
        E 280 90 1f 60
        E 0 90 3e 60
        E 0 90 4a 60
        E 0 90 56 60
        E 0 90 62 60
        E 40 80 1f 00
        E 0 80 3e 00
        E 0 80 4a 00
        E 0 80 56 00
        E 0 80 62 00
        E 280 90 1a 60
        E 0 90 1f 60
        E 0 90 55 60
        E 0 90 56 60
        E 0 90 61 60
        E 0 90 62 60
        E 40 80 1a 00
        E 0 80 1f 00
        E 0 80 55 00
        E 0 80 56 00
        E 0 80 61 00
        E 0 80 62 00
        E 280 90 1f 60
        E 0 90 56 60
        E 0 90 62 60
        E 40 80 1f 00
        E 0 80 56 00
        E 0 80 62 00
        E 280 90 18 60
        E 0 90 1f 60
        E 0 90 3e 60
        E 0 90 48 60
        E 0 90 4a 60
        E 0 90 54 60
        E 0 90 56 60
        E 0 90 60 60
        E 0 90 62 60
        E 40 80 18 00
        E 0 80 1f 00
        E 0 80 3e 00
        E 0 80 48 00
        E 0 80 4a 00
        E 0 80 54 00
        E 0 80 56 00
        E 0 80 60 00
        E 0 80 62 00
        E 280 90 1f 60
        E 0 90 56 60
        E 0 90 62 60
        E 40 80 1f 00
        E 0 80 56 00
        E 0 80 62 00
        E 240 90 78 50
        E 0 90 79 50
        E 0 90 7a 50
        E 0 90 7b 50
        E 0 90 7c 50
        E 40 90 1a 60
        E 0 90 55 60
        E 0 90 61 60
        E 40 80 1a 00
        E 0 80 55 00
        E 0 80 61 00
        E 120 90 1b 60
        E 0 90 61 60
        E 40 80 1b 00
        E 0 80 61 00
        E 120 90 1a 60
        E 0 90 3d 60
        E 0 90 49 60
        E 0 90 55 60
        E 0 90 61 60
        E 40 80 1a 00
        E 0 80 3d 00
        E 0 80 49 00
        E 0 80 55 00
        E 0 80 61 00
        E 120 90 1b 60
        E 0 90 61 60
        E 40 80 1b 00
        E 0 80 61 00
        E 120 90 18 60
        E 0 90 2c 60
        E 0 90 54 60
        E 0 90 58 60
        E 0 90 60 60
        E 0 90 64 60
        E 40 80 18 00
        E 0 80 2c 00
        E 0 80 54 00
        E 0 80 58 00
        E 0 80 60 00
        E 0 80 64 00
        E 80 80 78 00
        E 0 80 79 00
        E 0 80 7a 00
        E 0 80 7b 00
        E 0 80 7c 00
        E 200 90 1f 60
        E 0 90 56 60
        E 0 90 62 60
        E 40 80 1f 00
        E 0 80 56 00
        E 0 80 62 00
        E 280 90 1a 60
        E 0 90 1f 60
        E 0 90 3d 60
        E 0 90 3e 60
        E 0 90 49 60
        E 0 90 4a 60
        E 0 90 55 60
        E 0 90 56 60
        E 0 90 61 60
        E 0 90 62 60
        E 40 80 1a 00
        E 0 80 1f 00
        E 0 80 3d 00
        E 0 80 3e 00
        E 0 80 49 00
        E 0 80 4a 00
        E 0 80 55 00
        E 0 80 56 00
        E 0 80 61 00
        E 0 80 62 00
        E 280 90 1f 60
        E 0 90 56 60
        E 0 90 62 60
        E 40 80 1f 00
        E 0 80 56 00
        E 0 80 62 00
        E 280 90 18 60
        E 0 90 1f 60
        E 0 90 54 60
        E 0 90 56 60
        E 0 90 60 60
        E 0 90 62 60
        E 40 80 18 00
        E 0 80 1f 00
        E 0 80 54 00
        E 0 80 56 00
        E 0 80 60 00
        E 0 80 62 00
        E 280 90 1f 60
        E 0 90 3e 60
        E 0 90 4a 60
        E 0 90 56 60
        E 0 90 62 60
        E 40 80 1f 00
        E 0 80 3e 00
        E 0 80 4a 00
        E 0 80 56 00
        E 0 80 62 00
        E 280 90 1a 60
        E 0 90 1f 60
        E 0 90 55 60
        E 0 90 56 60
        E 0 90 61 60
        E 0 90 62 60
        E 40 80 1a 00
        E 0 80 1f 00
        E 0 80 55 00
        E 0 80 56 00
        E 0 80 61 00
        E 0 80 62 00
        E 280 90 18 60
        E 0 90 1f 60
        E 0 90 54 60
        E 0 90 56 60
        E 0 90 60 60
        E 0 90 62 60
        E 40 80 18 00
        E 0 80 1f 00
        E 0 80 54 00
        E 0 80 56 00
        E 0 80 60 00
        E 0 80 62 00
        E 280 90 18 60
        E 0 90 1f 60
        E 0 90 3e 60
        E 0 90 48 60
        E 0 90 4a 60
        E 0 90 54 60
        E 0 90 56 60
        E 0 90 60 60
        E 0 90 62 60
        E 40 80 18 00
        E 0 80 1f 00
        E 0 80 3e 00
        E 0 80 48 00
        E 0 80 4a 00
        E 0 80 54 00
        E 0 80 56 00
        E 0 80 60 00
        E 0 80 62 00
        E 280 90 1f 60
        E 0 90 56 60
        E 0 90 62 60
        E 40 80 1f 00
        E 0 80 56 00
        E 0 80 62 00
        E 280 90 1a 60
        E 0 90 1f 60
        E 0 90 55 60
        E 0 90 56 60
        E 0 90 61 60
        E 0 90 62 60
        E 40 80 1a 00
        E 0 80 1f 00
        E 0 80 55 00
        E 0 80 56 00
        E 0 80 61 00
        E 0 80 62 00
        E 280 90 1f 60
        E 0 90 3e 60
        E 0 90 4a 60
        E 0 90 56 60
        E 0 90 62 60
        E 40 80 1f 00
        E 0 80 3e 00
        E 0 80 4a 00
        E 0 80 56 00
        E 0 80 62 00
        E 280 90 18 60
        E 0 90 1f 60
        E 0 90 54 60
        E 0 90 56 60
        E 0 90 60 60
        E 0 90 62 60
        E 40 80 18 00
        E 0 80 1f 00
        E 0 80 54 00
        E 0 80 56 00
        E 0 80 60 00
        E 0 80 62 00
        E 280 90 1f 60
        E 0 90 56 60
        E 0 90 62 60
        E 40 80 1f 00
        E 0 80 56 00
        E 0 80 62 00
        E 280 90 1a 60
        E 0 90 1f 60
        E 0 90 3d 60
        E 0 90 3e 60
        E 0 90 49 60
        E 0 90 4a 60
        E 0 90 55 60
        E 0 90 56 60
        E 0 90 61 60
        E 0 90 62 60
        E 40 80 1a 00
        E 0 80 1f 00
        E 0 80 3d 00
        E 0 80 3e 00
        E 0 80 49 00
        E 0 80 4a 00
        E 0 80 55 00
        E 0 80 56 00
        E 0 80 61 00
        E 0 80 62 00
        E 280 90 18 60
        E 0 90 1f 60
        E 0 90 54 60
        E 0 90 56 60
        E 0 90 60 60
        E 0 90 62 60
        E 40 80 18 00
        E 0 80 1f 00
        E 0 80 54 00
        E 0 80 56 00
        E 0 80 60 00
        E 0 80 62 00
        E 280 90 18 60
        E 0 90 1f 60
        E 0 90 54 60
        E 0 90 56 60
        E 0 90 60 60
        E 0 90 62 60
        E 40 80 18 00
        E 0 80 1f 00
        E 0 80 54 00
        E 0 80 56 00
        E 0 80 60 00
        E 0 80 62 00
        E 280 90 1f 60
        E 0 90 3e 60
        E 0 90 4a 60
        E 0 90 56 60
        E 0 90 62 60
        E 40 80 1f 00
        E 0 80 3e 00
        E 0 80 4a 00
        E 0 80 56 00
        E 0 80 62 00
        E 280 90 1a 60
        E 0 90 1f 60
        E 0 90 55 60
        E 0 90 56 60
        E 0 90 61 60
        E 0 90 62 60
        E 40 80 1a 00
        E 0 80 1f 00
        E 0 80 55 00
        E 0 80 56 00
        E 0 80 61 00
        E 0 80 62 00
        E 280 90 1f 60
        E 0 90 56 60
        E 0 90 62 60
        E 40 80 1f 00
        E 0 80 56 00
        E 0 80 62 00
        E 280 90 18 60
        E 0 90 1f 60
        E 0 90 3e 60
        E 0 90 48 60
        E 0 90 4a 60
        E 0 90 54 60
        E 0 90 56 60
        E 0 90 60 60
        E 0 90 62 60
        E 40 80 18 00
        E 0 80 1f 00
        E 0 80 3e 00
        E 0 80 48 00
        E 0 80 4a 00
        E 0 80 54 00
        E 0 80 56 00
        E 0 80 60 00
        E 0 80 62 00
        E 280 90 1f 60
        E 0 90 56 60
        E 0 90 62 60
        E 40 80 1f 00
        E 0 80 56 00
        E 0 80 62 00
        E 280 90 1a 60
        E 0 90 1f 60
        E 0 90 55 60
        E 0 90 56 60
        E 0 90 61 60
        E 0 90 62 60
        E 40 80 1a 00
        E 0 80 1f 00
        E 0 80 55 00
        E 0 80 56 00
        E 0 80 61 00
        E 0 80 62 00
        E 280 90 18 60
        E 0 90 1f 60
        E 0 90 3e 60
        E 0 90 48 60
        E 0 90 4a 60
        E 0 90 54 60
        E 0 90 56 60
        E 0 90 60 60
        E 0 90 62 60
        E 40 80 18 00
        E 0 80 1f 00
        E 0 80 3e 00
        E 0 80 48 00
        E 0 80 4a 00
        E 0 80 54 00
        E 0 80 56 00
        E 0 80 60 00
        E 0 80 62 00
        E 280 90 18 60
        E 0 90 1f 60
        E 0 90 54 60
        E 0 90 56 60
        E 0 90 60 60
        E 0 90 62 60
        E 40 80 18 00
        E 0 80 1f 00
        E 0 80 54 00
        E 0 80 56 00
        E 0 80 60 00
        E 0 80 62 00
        E 280 90 1f 60
        E 0 90 56 60
        E 0 90 62 60
        E 40 80 1f 00
        E 0 80 56 00
        E 0 80 62 00
        E 280 90 18 60
        E 0 90 1f 60
        E 0 90 3e 60
        E 0 90 48 60
        E 0 90 4a 60
        E 0 90 54 60
        E 0 90 56 60
        E 0 90 60 60
        E 0 90 62 60
        E 40 80 18 00
        E 0 80 1f 00
        E 0 80 3e 00
        E 0 80 48 00
        E 0 80 4a 00
        E 0 80 54 00
        E 0 80 56 00
        E 0 80 60 00
        E 0 80 62 00
        E 280 90 1f 60
        E 0 90 56 60
        E 0 90 62 60
        E 40 80 1f 00
        E 0 80 56 00
        E 0 80 62 00
        E 280 90 1a 60
        E 0 90 1f 60
        E 0 90 55 60
        E 0 90 56 60
        E 0 90 61 60
        E 0 90 62 60
        E 40 80 1a 00
        E 0 80 1f 00
        E 0 80 55 00
        E 0 80 56 00
        E 0 80 61 00
        E 0 80 62 00
        E 280 90 1b 60
        E 0 90 3d 60
        E 0 90 49 60
        E 0 90 55 60
        E 0 90 61 60
        E 40 80 1b 00
        E 0 80 3d 00
        E 0 80 49 00
        E 0 80 55 00
        E 0 80 61 00
        E 120 90 1a 60
        E 0 90 61 60
        E 40 80 1a 00
        E 0 80 61 00
        E 120 90 1b 60
        E 0 90 61 60
        E 40 80 1b 00
        E 0 80 61 00
        E 120 90 1a 60
        E 0 90 3d 60
        E 0 90 49 60
        E 0 90 55 60
        E 0 90 61 60
        E 40 80 1a 00
        E 0 80 3d 00
        E 0 80 49 00
        E 0 80 55 00
        E 0 80 61 00
        E 120 90 1b 60
        E 0 90 61 60
        E 40 80 1b 00
        E 0 80 61 00
        E 120 90 1a 60
        E 0 90 61 60
        E 40 80 1a 00
        E 0 80 61 00
        E 120 90 18 60
        E 0 90 26 60
        E 0 90 40 60
        E 0 90 48 60
        E 0 90 4c 60
        E 0 90 54 60
        E 0 90 58 60
        E 0 90 60 60
        E 0 90 64 60
        E 40 80 18 00
        E 0 80 26 00
        E 0 80 40 00
        E 0 80 48 00
        E 0 80 4c 00
        E 0 80 54 00
        E 0 80 58 00
        E 0 80 60 00
        E 0 80 64 00
        E 280 90 1f 60
        E 0 90 56 60
        E 0 90 62 60
        E 40 80 1f 00
        E 0 80 56 00
        E 0 80 62 00
        E 280 90 1a 60
        E 0 90 1f 60
        E 0 90 55 60
        E 0 90 56 60
        E 0 90 61 60
        E 0 90 62 60
        E 40 80 1a 00
        E 0 80 1f 00
        E 0 80 55 00
        E 0 80 56 00
        E 0 80 61 00
        E 0 80 62 00
        E 280 90 1f 60
        E 0 90 3e 60
        E 0 90 4a 60
        E 0 90 56 60
        E 0 90 62 60
        E 40 80 1f 00
        E 0 80 3e 00
        E 0 80 4a 00
        E 0 80 56 00
        E 0 80 62 00
        E 280 90 18 60
        E 0 90 1f 60
        E 0 90 54 60
        E 0 90 56 60
        E 0 90 60 60
        E 0 90 62 60
        E 40 80 18 00
        E 0 80 1f 00
        E 0 80 54 00
        E 0 80 56 00
        E 0 80 60 00
        E 0 80 62 00
        E 280 90 1f 60
        E 0 90 56 60
        E 0 90 62 60
        E 40 80 1f 00
        E 0 80 56 00
        E 0 80 62 00
        E 280 90 1a 60
        E 0 90 1f 60
        E 0 90 3d 60
        E 0 90 3e 60
        E 0 90 49 60
        E 0 90 4a 60
        E 0 90 55 60
        E 0 90 56 60
        E 0 90 61 60
        E 0 90 62 60
        E 40 80 1a 00
        E 0 80 1f 00
        E 0 80 3d 00
        E 0 80 3e 00
        E 0 80 49 00
        E 0 80 4a 00
        E 0 80 55 00
        E 0 80 56 00
        E 0 80 61 00
        E 0 80 62 00
        E 280 90 18 60
        E 0 90 1f 60
        E 0 90 54 60
        E 0 90 56 60
        E 0 90 60 60
        E 0 90 62 60
        E 40 80 18 00
        E 0 80 1f 00
        E 0 80 54 00
        E 0 80 56 00
        E 0 80 60 00
        E 0 80 62 00
        E 280 90 18 60
        E 0 90 1f 60
        E 0 90 54 60
        E 0 90 56 60
        E 0 90 60 60
        E 0 90 62 60
        E 40 80 18 00
        E 0 80 1f 00
        E 0 80 54 00
        E 0 80 56 00
        E 0 80 60 00
        E 0 80 62 00
        E 280 90 1f 60
        E 0 90 3e 60
        E 0 90 4a 60
        E 0 90 56 60
        E 0 90 62 60
        E 40 80 1f 00
        E 0 80 3e 00
        E 0 80 4a 00
        E 0 80 56 00
        E 0 80 62 00
        E 280 90 1a 60
        E 0 90 1f 60
        E 0 90 55 60
        E 0 90 56 60
        E 0 90 61 60
        E 0 90 62 60
        E 40 80 1a 00
        E 0 80 1f 00
        E 0 80 55 00
        E 0 80 56 00
        E 0 80 61 00
        E 0 80 62 00
        E 280 90 1f 60
        E 0 90 56 60
        E 0 90 62 60
        E 40 80 1f 00
        E 0 80 56 00
        E 0 80 62 00
        E 280 90 18 60
        E 0 90 1f 60
        E 0 90 3e 60
        E 0 90 48 60
        E 0 90 4a 60
        E 0 90 54 60
        E 0 90 56 60
        E 0 90 60 60
        E 0 90 62 60
        E 40 80 18 00
        E 0 80 1f 00
        E 0 80 3e 00
        E 0 80 48 00
        E 0 80 4a 00
        E 0 80 54 00
        E 0 80 56 00
        E 0 80 60 00
        E 0 80 62 00
        E 280 90 1f 60
        E 0 90 56 60
        E 0 90 62 60
        E 40 80 1f 00
        E 0 80 56 00
        E 0 80 62 00
        E 200 90 78 50
        E 0 90 79 50
        E 0 90 7a 50
        E 0 90 7b 50
        E 0 90 7c 50
        E 80 90 1a 60
        E 0 90 55 60
        E 0 90 61 60
        E 40 80 1a 00
        E 0 80 55 00
        E 0 80 61 00
        E 120 90 1b 60
        E 0 90 61 60
        E 40 80 1b 00
        E 0 80 61 00
        E 120 90 1a 60
        E 0 90 3d 60
        E 0 90 49 60
        E 0 90 55 60
        E 0 90 61 60
        E 40 80 1a 00
        E 0 80 3d 00
        E 0 80 49 00
        E 0 80 55 00
        E 0 80 61 00
        E 120 90 1b 60
        E 0 90 61 60
        E 40 80 1b 00
        E 0 80 61 00
        E 120 90 18 60
        E 0 90 2c 60
        E 0 90 54 60
        E 0 90 58 60
        E 0 90 60 60
        E 0 90 64 60
        E 40 80 18 00
        E 0 80 2c 00
        E 0 80 54 00
        E 0 80 58 00
        E 0 80 60 00
        E 0 80 64 00
        E 40 80 78 00
        E 0 80 79 00
        E 0 80 7a 00
        E 0 80 7b 00
        E 0 80 7c 00
        E 240 90 1f 60
        E 0 90 56 60
        E 0 90 62 60
        E 40 80 1f 00
        E 0 80 56 00
        E 0 80 62 00
        E 280 90 1a 60
        E 0 90 1f 60
        E 0 90 3d 60
        E 0 90 3e 60
        E 0 90 49 60
        E 0 90 4a 60
        E 0 90 55 60
        E 0 90 56 60
        E 0 90 61 60
        E 0 90 62 60
        E 40 80 1a 00
        E 0 80 1f 00
        E 0 80 3d 00
        E 0 80 3e 00
        E 0 80 49 00
        E 0 80 4a 00
        E 0 80 55 00
        E 0 80 56 00
        E 0 80 61 00
        E 0 80 62 00
        E 280 90 1f 60
        E 0 90 56 60
        E 0 90 62 60
        E 40 80 1f 00
        E 0 80 56 00
        E 0 80 62 00
        E 280 90 18 60
        E 0 90 1f 60
        E 0 90 54 60
        E 0 90 56 60
        E 0 90 60 60
        E 0 90 62 60
        E 40 80 18 00
        E 0 80 1f 00
        E 0 80 54 00
        E 0 80 56 00
        E 0 80 60 00
        E 0 80 62 00
        E 280 90 1f 60
        E 0 90 3e 60
        E 0 90 4a 60
        E 0 90 56 60
        E 0 90 62 60
        E 40 80 1f 00
        E 0 80 3e 00
        E 0 80 4a 00
        E 0 80 56 00
        E 0 80 62 00
        E 280 90 1a 60
        E 0 90 1f 60
        E 0 90 55 60
        E 0 90 56 60
        E 0 90 61 60
        E 0 90 62 60
        E 40 80 1a 00
        E 0 80 1f 00
        E 0 80 55 00
        E 0 80 56 00
        E 0 80 61 00
        E 0 80 62 00
        E 280 90 18 60
        E 0 90 1f 60
        E 0 90 54 60
        E 0 90 56 60
        E 0 90 60 60
        E 0 90 62 60
        E 40 80 18 00
        E 0 80 1f 00
        E 0 80 54 00
        E 0 80 56 00
        E 0 80 60 00
        E 0 80 62 00
        E 280 90 18 60
        E 0 90 1f 60
        E 0 90 3e 60
        E 0 90 48 60
        E 0 90 4a 60
        E 0 90 54 60
        E 0 90 56 60
        E 0 90 60 60
        E 0 90 62 60
        E 40 80 18 00
        E 0 80 1f 00
        E 0 80 3e 00
        E 0 80 48 00
        E 0 80 4a 00
        E 0 80 54 00
        E 0 80 56 00
        E 0 80 60 00
        E 0 80 62 00
        E 280 90 1f 60
        E 0 90 56 60
        E 0 90 62 60
        E 40 80 1f 00
        E 0 80 56 00
        E 0 80 62 00
        E 280 90 1a 60
        E 0 90 1f 60
        E 0 90 55 60
        E 0 90 56 60
        E 0 90 61 60
        E 0 90 62 60
        E 40 80 1a 00
        E 0 80 1f 00
        E 0 80 55 00
        E 0 80 56 00
        E 0 80 61 00
        E 0 80 62 00
        E 280 90 1f 60
        E 0 90 3e 60
        E 0 90 4a 60
        E 0 90 56 60
        E 0 90 62 60
        E 40 80 1f 00
        E 0 80 3e 00
        E 0 80 4a 00
        E 0 80 56 00
        E 0 80 62 00
        E 280 90 18 60
        E 0 90 1f 60
        E 0 90 54 60
        E 0 90 56 60
        E 0 90 60 60
        E 0 90 62 60
        E 40 80 18 00
        E 0 80 1f 00
        E 0 80 54 00
        E 0 80 56 00
        E 0 80 60 00
        E 0 80 62 00
        E 280 90 1f 60
        E 0 90 56 60
        E 0 90 62 60
        E 40 80 1f 00
        E 0 80 56 00
        E 0 80 62 00
        E 280 90 1b 60
        E 0 90 3d 60
        E 0 90 49 60
        E 0 90 55 60
        E 0 90 61 60
        E 40 80 1b 00
        E 0 80 3d 00
        E 0 80 49 00
        E 0 80 55 00
        E 0 80 61 00
        E 120 90 1a 60
        E 0 90 61 60
        E 40 80 1a 00
        E 0 80 61 00
        E 120 90 1b 60
        E 0 90 61 60
        E 40 80 1b 00
        E 0 80 61 00
        E 120 90 1a 60
        E 0 90 3d 60
        E 0 90 49 60
        E 0 90 55 60
        E 0 90 61 60
        E 40 80 1a 00
        E 0 80 3d 00
        E 0 80 49 00
        E 0 80 55 00
        E 0 80 61 00
        E 120 90 18 60
        E 0 90 26 60
        E 0 90 60 60
        E 0 90 64 60
        E 40 80 18 00
        E 0 80 26 00
        E 0 80 60 00
        E 0 80 64 00
        E 280 90 1f 60
        E 0 90 3e 60
        E 0 90 4a 60
        E 0 90 56 60
        E 0 90 62 60
        E 40 80 1f 00
        E 0 80 3e 00
        E 0 80 4a 00
        E 0 80 56 00
        E 0 80 62 00
        E 280 90 1a 60
        E 0 90 1f 60
        E 0 90 55 60
        E 0 90 56 60
        E 0 90 61 60
        E 0 90 62 60
        E 40 80 1a 00
        E 0 80 1f 00
        E 0 80 55 00
        E 0 80 56 00
        E 0 80 61 00
        E 0 80 62 00
        E 280 90 1f 60
        E 0 90 56 60
        E 0 90 62 60
        E 40 80 1f 00
        E 0 80 56 00
        E 0 80 62 00
        E 280 90 18 60
        E 0 90 1f 60
        E 0 90 3e 60
        E 0 90 48 60
        E 0 90 4a 60
        E 0 90 54 60
        E 0 90 56 60
        E 0 90 60 60
        E 0 90 62 60
        E 40 80 18 00
        E 0 80 1f 00
        E 0 80 3e 00
        E 0 80 48 00
        E 0 80 4a 00
        E 0 80 54 00
        E 0 80 56 00
        E 0 80 60 00
        E 0 80 62 00
        E 280 90 1f 60
        E 0 90 56 60
        E 0 90 62 60
        E 40 80 1f 00
        E 0 80 56 00
        E 0 80 62 00
        E 280 90 1a 60
        E 0 90 1f 60
        E 0 90 55 60
        E 0 90 56 60
        E 0 90 61 60
        E 0 90 62 60
        E 40 80 1a 00
        E 0 80 1f 00
        E 0 80 55 00
        E 0 80 56 00
        E 0 80 61 00
        E 0 80 62 00
        E 280 90 18 60
        E 0 90 1f 60
        E 0 90 3e 60
        E 0 90 48 60
        E 0 90 4a 60
        E 0 90 54 60
        E 0 90 56 60
        E 0 90 60 60
        E 0 90 62 60
        E 40 80 18 00
        E 0 80 1f 00
        E 0 80 3e 00
        E 0 80 48 00
        E 0 80 4a 00
        E 0 80 54 00
        E 0 80 56 00
        E 0 80 60 00
        E 0 80 62 00
        E 280 90 18 60
        E 0 90 1f 60
        E 0 90 54 60
        E 0 90 56 60
        E 0 90 60 60
        E 0 90 62 60
        E 40 80 18 00
        E 0 80 1f 00
        E 0 80 54 00
        E 0 80 56 00
        E 0 80 60 00
        E 0 80 62 00
        E 280 90 1f 60
        E 0 90 56 60
        E 0 90 62 60
        E 40 80 1f 00
        E 0 80 56 00
        E 0 80 62 00
        E 280 90 1a 60
        E 0 90 1f 60
        E 0 90 3d 60
        E 0 90 3e 60
        E 0 90 49 60
        E 0 90 4a 60
        E 0 90 55 60
        E 0 90 56 60
        E 0 90 61 60
        E 0 90 62 60
        E 40 80 1a 00
        E 0 80 1f 00
        E 0 80 3d 00
        E 0 80 3e 00
        E 0 80 49 00
        E 0 80 4a 00
        E 0 80 55 00
        E 0 80 56 00
        E 0 80 61 00
        E 0 80 62 00
        E 280 90 1f 60
        E 0 90 56 60
        E 0 90 62 60
        E 40 80 1f 00
        E 0 80 56 00
        E 0 80 62 00
        E 280 90 18 60
        E 0 90 1f 60
        E 0 90 54 60
        E 0 90 56 60
        E 0 90 60 60
        E 0 90 62 60
        E 40 80 18 00
        E 0 80 1f 00
        E 0 80 54 00
        E 0 80 56 00
        E 0 80 60 00
        E 0 80 62 00
        E 280 90 1f 60
        E 0 90 3e 60
        E 0 90 4a 60
        E 0 90 56 60
        E 0 90 62 60
        E 40 80 1f 00
        E 0 80 3e 00
        E 0 80 4a 00
        E 0 80 56 00
        E 0 80 62 00
        E 280 90 1a 60
        E 0 90 61 60
        E 40 80 1a 00
        E 0 80 61 00
        E 120 90 1b 60
        E 0 90 3d 60
        E 0 90 49 60
        E 0 90 55 60
        E 0 90 61 60
        E 40 80 1b 00
        E 0 80 3d 00
        E 0 80 49 00
        E 0 80 55 00
        E 0 80 61 00
        E 120 90 1a 60
        E 0 90 61 60
        E 40 80 1a 00
        E 0 80 61 00
        E 120 90 1b 60
        E 0 90 61 60
        E 40 80 1b 00
        E 0 80 61 00
        E 120 90 18 60
        E 0 90 2c 60
        E 0 90 40 60
        E 0 90 48 60
        E 0 90 4c 60
        E 0 90 54 60
        E 0 90 58 60
        E 0 90 60 60
        E 0 90 64 60
        E 40 80 18 00
        E 0 80 2c 00
        E 0 80 40 00
        E 0 80 48 00
        E 0 80 4c 00
        E 0 80 54 00
        E 0 80 58 00
        E 0 80 60 00
        E 0 80 64 00
        E 280 90 1f 60
        E 0 90 56 60
        E 0 90 62 60
        E 40 80 1f 00
        E 0 80 56 00
        E 0 80 62 00
        E 280 90 1a 60
        E 0 90 1f 60
        E 0 90 55 60
        E 0 90 56 60
        E 0 90 61 60
        E 0 90 62 60
        E 40 80 1a 00
        E 0 80 1f 00
        E 0 80 55 00
        E 0 80 56 00
        E 0 80 61 00
        E 0 80 62 00
        E 280 90 1f 60
        E 0 90 3e 60
        E 0 90 4a 60
        E 0 90 56 60
        E 0 90 62 60
        E 40 80 1f 00
        E 0 80 3e 00
        E 0 80 4a 00
        E 0 80 56 00
        E 0 80 62 00
        E 280 90 18 60
        E 0 90 1f 60
        E 0 90 54 60
        E 0 90 56 60
        E 0 90 60 60
        E 0 90 62 60
        E 40 80 18 00
        E 0 80 1f 00
        E 0 80 54 00
        E 0 80 56 00
        E 0 80 60 00
        E 0 80 62 00
        <X 480 0
          /wFbaWRsZV9yZWFsdGltZV0=
        >
        E 313 b0 7b 00
        GUID {99C52F88-C54B-4CCD-B038-A5C950AC8E6E}
        IGNTEMPO 0 120.00000000 4 4
        SRCCOLOR 401
        VELLANE 132 38 60
        COLORMAP "C:\Users\wejaa\AppData\Roaming\REAPER\Data\color_maps\rockband_drums.png"
        TEXTSTRINGFILE "Text Events List.txt"
        CFGEDITVIEW 7532.505120 90.527545 21 11 0 0 0
        CFGEDIT 1 1 0 0 0 1 1 1 1 1 1 0.08333333 -8 -8 1370 736 1 0 1 2 0.00000000 0 0 0 0 0.500000 1 0 1.000000 64
        KEYSNAP 0 0 "102034050607" 0 "Major"
        EVTFILTER 0 -1 -1 -1 -1 0 1 0 0 -1.00000000 -1.00000000
      >
    >
  >
  <TRACK '{7EB31C5E-FF16-4FD5-82CE-3813E0D2F4E9}'
    NAME "drums"
    PEAKCOL 16576
    BEAT -1
    AUTOMODE 0
    VOLPAN 1.00000000000000 0.00000000000000 -1.00000000000000 -1.00000000000000 1.00000000000000
    MUTESOLO 0 0 0
    IPHASE 0
    ISBUS 0 0
    BUSCOMP 0 0
    SHOWINMIX 1 0.666700 0.500000 1 0.500000 -1 -1 -1
    FREEMODE 0
    SEL 0
    REC 0 0 0 0 0 0 0
    VU 2
    TRACKHEIGHT 458 0
    INQ 0 0 0 0.5000000000 100 0 0 100
    NCHAN 2
    FX 1
    TRACKID {7EB31C5E-FF16-4FD5-82CE-3813E0D2F4E9}
    PERF 0
    MIDIOUT -1
    MAINSEND 1 0
    <ITEM
      POSITION 0.00000000000000
      SNAPOFFS 0.00000000000000
      LENGTH 252.95818594104310
      LOOP 0
      ALLTAKES 0
      SEL 0
      FADEIN 1 0.000000 0.000000 1 0
      FADEOUT 1 0.000000 0.000000 1 0
      MUTE 0
      IGUID {D5AA8102-FC91-4137-A822-F74591C1BC76}
      IID 196
      NAME "drums.wav"
      VOLPAN 1.000000 0.000000 1.000000 -1.000000
      SOFFS 0.00000000000000
      PLAYRATE 1.00000000000000 1 0.00000000000000 -1
      CHANMODE 0
      GUID {AE964942-1A5E-4759-B80C-082933F92623}
      <SOURCE WAVE
        FILE "C:\Users\wejaa\__CustomOwnSongs\teuvo\NewVersion\V5\drums.wav"
      >
    >
  >
  <TRACK '{70C3FE4D-3BC3-4146-95C4-8AC455A2D0F5}'
    NAME "PART BASS"
    PEAKCOL 16777471
    BEAT -1
    AUTOMODE 0
    VOLPAN 2.60568150391440 -0.16000000000000 -1.00000000000000 -1.00000000000000 1.00000000000000
    MUTESOLO 0 0 0
    IPHASE 0
    ISBUS 0 0
    BUSCOMP 1 0
    SHOWINMIX 1 0.666700 0.500000 1 0.500000 -1 -1 -1
    FREEMODE 0
    SEL 0
    REC 0 4096 1 0 0 0 0
    TRACKHEIGHT 192 0
    INQ 0 0 0 0.5000000000 100 0 0 100
    NCHAN 2
    FX 1
    TRACKID {70C3FE4D-3BC3-4146-95C4-8AC455A2D0F5}
    PERF 0
    MIDIOUT -1
    <MIDINOTENAMES
      0 96 "EXPERT Green"
      0 97 "EXPERT Red"
      0 98 "EXPERT Yellow"
      0 99 "EXPERT Blue"
      0 100 "EXPERT Orange"
      0 84 "HARD Green"
      0 85 "HARD Red"
      0 86 "HARD Yellow"
      0 87 "HARD Blue"
      0 88 "HARD Orange"
      0 91 "----"
      0 116 "OVERDRIVE"
      0 40 "Left Hand Lowest"
      0 59 "Left Hand Highest"
      0 58 "-"
      0 57 "-"
      0 56 "-"
      0 55 "-"
      0 54 "-"
      0 53 "-"
      0 52 "-"
      0 51 "-"
      0 50 "-"
      0 49 "-"
      0 47 "-"
      0 48 "-"
      0 46 "-"
      0 45 "-"
      0 44 "-"
      0 43 "-"
      0 42 "-"
      0 41 "-"
      0 111 "----"
      0 72 "MEDIUM Green"
      0 73 "MEDIUM Red"
      0 74 "MEDIUM Yellow"
      0 75 "MEDIUM Blue"
      0 76 "MEDIUM Orange"
      0 60 "EASY Green"
      0 61 "EASY Red"
      0 62 "EASY Yellow"
      0 63 "EASY Blue"
      0 64 "EASY Orange"
      0 68 "----"
      0 80 "----"
      0 102 "Force HOPO Off"
      0 101 "Force HOPO On"
      0 120 "BRE (use all 5)"
      0 121 "BRE"
      0 122 "BRE"
      0 123 "BRE"
      0 124 "BRE"
      0 119 "----"
      0 90 "Force HOPO Off"
      0 89 "Force HOPO On"
      0 127 "Trill Marker"
      0 125 "----"
      0 103 "Solo Marker"
      0 126 "Strum Marker"
    >
    MAINSEND 1 0
    <FXCHAIN
      WNDRECT 812 225 878 585
      SHOW 0
      LASTSEL 1
      DOCKED 0
      BYPASS 1 0
      <VST "VSTi: ReaSynth (Cockos)" "reasynth.dll" 0 ""
        eXNlcu9e7f4AAAAAAgAAAAEAAAAAAAAAAgAAAAAAAAA4AAAAAAAAAA==
        AAAAAO++rd4N8K3eAAAAAAAAAAAAAAAAAAAAADm0SD59y9s+tbSxOQ==
        AAAAALbz/T5VpCs6AAAAAAAAAAAAAAAAAAA=
      >
      FLOATPOS 0 0 0 0
      FXID {D4EC3C58-478E-4D1F-A0FC-2252BD344989}
      WAK 0
      BYPASS 0 0
      <VST "VSTi: RBN Preview (RBN)" "rbprev_vst64_beta.dll" 0 ""
        dnBicu5e7f4AAAAAAgAAAAEAAAAAAAAAAgAAAAAAAAAEAAAAAQAAAA==
        AAAAAAMAqgAAAAAAAAA=
      >
      FLOATPOS 32 32 659 497
      FXID {72D22271-4F4F-4081-90C4-66415E7AEC47}
      WAK 0
    >
    <ITEM
      POSITION 0.00000000000000
      SNAPOFFS 0.00000000000000
      LENGTH 252.98014618046557
      LOOP 0
      ALLTAKES 0
      SEL 0
      FADEIN 1 0.000000 0.000000 1 0
      FADEOUT 1 0.000000 0.000000 1 0
      MUTE 0
      IGUID {A1B24BBF-93B7-476C-BC6D-33F5621C633F}
      IID 8
      NAME "PART BASS"
      VOLPAN 1.000000 0.000000 1.000000 -1.000000
      SOFFS 0.00000000000000 0.00000000000000
      PLAYRATE 1.00000000000000 1 0.00000000000000 -65536
      CHANMODE 0
      GUID {344A7487-35C3-41F9-8B1E-12A4F3D7F336}
      <SOURCE MIDI
        HASDATA 1 480 QN
        POOLEDEVTS {7F5F09B2-48D4-45A7-A5C7-0712E09437CF}
        <X 0 0
          /wNQQVJUIEJBU1M=
        >
        <X 3840 0
          /wFbaWRsZV0=
        >
        <X 9600 0
          /wFbbWVsbG93XQ==
        >
        E 40 90 3d 60
        E 0 90 49 60
        E 0 90 55 60
        E 0 90 61 60
        E 860 80 3d 00
        E 0 80 49 00
        E 100 80 55 00
        E 0 80 61 00
        E 380 90 4a 60
        E 0 90 56 60
        E 0 90 62 60
        E 20 80 4a 00
        E 0 80 56 00
        E 0 80 62 00
        E 260 90 56 60
        E 0 90 62 60
        E 20 80 56 00
        E 0 80 62 00
        E 260 90 3f 60
        E 0 90 4b 60
        E 0 90 57 60
        E 0 90 63 60
        E 20 80 3f 00
        E 0 80 4b 00
        E 0 80 57 00
        E 0 80 63 00
        E 240 90 55 60
        E 0 90 61 60
        E 760 80 55 00
        E 0 80 61 00
        E 540 90 3e 60
        E 0 90 4a 60
        E 0 90 56 60
        E 0 90 62 60
        E 20 80 3e 00
        E 0 80 4a 00
        E 0 80 56 00
        E 0 80 62 00
        E 260 90 57 60
        E 0 90 63 60
        E 20 80 57 00
        E 0 80 63 00
        E 260 90 4b 60
        E 0 90 57 60
        E 0 90 63 60
        E 20 80 4b 00
        E 0 80 57 00
        E 0 80 63 00
        E 200 90 63 60
        E 300 80 63 00
        E 40 90 40 60
        E 0 90 4c 60
        E 0 90 58 60
        E 0 90 64 60
        E 120 80 40 00
        E 0 80 4c 00
        E 0 80 58 00
        E 180 80 64 00
        E 40 90 57 60
        E 0 90 63 60
        E 120 80 57 00
        E 180 80 63 00
        E 20 90 4b 60
        E 0 90 57 60
        E 0 90 63 60
        E 340 80 4b 00
        E 180 80 57 00
        E 0 80 63 00
        E 300 90 3d 60
        E 0 90 49 60
        E 0 90 55 60
        E 0 90 61 60
        E 780 80 3d 00
        E 120 80 49 00
        E 40 80 55 00
        E 0 80 61 00
        E 320 90 3e 60
        E 0 90 4a 60
        E 0 90 56 60
        E 0 90 62 60
        E 1060 80 3e 00
        E 0 80 4a 00
        E 0 80 56 00
        E 0 80 62 00
        E 520 90 3d 60
        E 0 90 49 60
        E 0 90 55 60
        E 0 90 61 60
        E 1020 80 3d 00
        E 0 80 49 00
        E 0 80 55 00
        E 0 80 61 00
        E 440 90 74 60
        E 160 90 3e 60
        E 0 90 4a 60
        E 0 90 56 60
        E 0 90 62 60
        E 20 80 3e 00
        E 0 80 4a 00
        E 0 80 56 00
        E 0 80 62 00
        E 320 90 56 60
        E 0 90 62 60
        E 20 80 56 00
        E 0 80 62 00
        E 320 90 4b 60
        E 0 90 57 60
        E 0 90 63 60
        E 20 80 4b 00
        E 0 80 57 00
        E 0 80 63 00
        E 300 90 55 60
        E 0 90 61 60
        E 880 80 55 00
        E 0 80 61 00
        E 640 90 56 60
        E 0 90 62 60
        E 20 80 56 00
        E 0 80 62 00
        E 320 90 3f 60
        E 0 90 4b 60
        E 0 90 57 60
        E 0 90 63 60
        E 20 80 3f 00
        E 0 80 4b 00
        E 0 80 57 00
        E 0 80 63 00
        E 320 90 57 60
        E 0 90 63 60
        E 20 80 57 00
        E 0 80 63 00
        E 320 90 4b 60
        E 0 90 57 60
        E 0 90 63 60
        E 120 80 4b 00
        E 0 80 57 00
        E 320 80 63 00
        E 40 90 4c 60
        E 0 90 58 60
        E 0 90 64 60
        E 120 80 4c 00
        E 0 80 58 00
        E 240 80 64 00
        E 59 90 57 60
        E 0 90 63 60
        E 120 80 57 00
        E 241 80 63 00
        E 20 90 3f 60
        E 0 90 4b 60
        E 0 90 57 60
        E 0 90 63 60
        E 460 80 3f 00
        E 0 80 4b 00
        E 60 80 57 00
        E 0 80 63 00
        E 420 90 3d 60
        E 0 90 49 60
        E 0 90 55 60
        E 0 90 61 60
        E 800 80 3d 00
        E 0 80 49 00
        E 140 80 55 00
        E 0 80 61 00
        E 100 80 74 00
        E 240 90 3e 60
        E 0 90 4a 60
        E 0 90 56 60
        E 0 90 62 60
        E 1040 80 3e 00
        E 0 80 4a 00
        E 0 80 56 00
        E 0 80 62 00
        E 560 90 3c 60
        E 0 90 48 60
        E 0 90 54 60
        E 0 90 60 60
        E 20 80 3c 00
        E 0 80 48 00
        E 0 80 54 00
        E 0 80 60 00
        E 300 90 54 60
        E 0 90 60 60
        E 20 80 54 00
        E 0 80 60 00
        E 300 90 48 60
        E 0 90 54 60
        E 0 90 60 60
        E 20 80 48 00
        E 0 80 54 00
        E 0 80 60 00
        E 300 90 3c 60
        E 0 90 48 60
        E 0 90 54 60
        E 0 90 60 60
        E 20 80 3c 00
        E 0 80 48 00
        E 0 80 54 00
        E 0 80 60 00
        E 300 90 54 60
        E 0 90 60 60
        E 20 80 54 00
        E 0 80 60 00
        E 300 90 48 60
        E 0 90 54 60
        E 0 90 60 60
        E 20 80 48 00
        E 0 80 54 00
        E 0 80 60 00
        E 300 90 3c 60
        E 0 90 48 60
        E 0 90 54 60
        E 0 90 60 60
        E 20 80 3c 00
        E 0 80 48 00
        E 0 80 54 00
        E 0 80 60 00
        E 300 90 55 60
        E 0 90 61 60
        E 120 80 55 00
        E 480 80 61 00
        E 80 90 3d 60
        E 0 90 49 60
        E 0 90 55 60
        E 0 90 61 60
        E 20 80 3d 00
        E 0 80 49 00
        E 0 80 55 00
        E 0 80 61 00
        E 300 90 55 60
        E 0 90 61 60
        E 20 80 55 00
        E 0 80 61 00
        E 300 90 4a 60
        E 0 90 56 60
        E 0 90 62 60
        E 20 80 4a 00
        E 0 80 56 00
        E 0 80 62 00
        E 600 90 3c 60
        E 0 90 48 60
        E 0 90 54 60
        E 0 90 60 60
        E 20 80 3c 00
        E 0 80 48 00
        E 0 80 54 00
        E 0 80 60 00
        E 300 90 54 60
        E 0 90 60 60
        E 30 80 54 00
        E 0 80 60 00
        E 570 90 48 60
        E 0 90 54 60
        E 0 90 60 60
        E 640 80 48 00
        E 40 80 54 00
        E 0 80 60 00
        E 320 90 3d 60
        E 0 90 49 60
        E 0 90 55 60
        E 0 90 61 60
        E 20 80 3d 00
        E 0 80 49 00
        E 0 80 55 00
        E 0 80 61 00
        E 300 90 55 60
        E 0 90 61 60
        E 20 80 55 00
        E 0 80 61 00
        E 910 90 3e 60
        E 0 90 4a 60
        E 0 90 56 60
        E 0 90 62 60
        E 30 80 3e 00
        E 0 80 4a 00
        E 0 80 56 00
        E 0 80 62 00
        E 240 90 56 60
        E 0 90 62 60
        E 30 80 56 00
        E 0 80 62 00
        E 240 90 4a 60
        E 0 90 56 60
        E 0 90 62 60
        E 30 80 4a 00
        E 0 80 56 00
        E 0 80 62 00
        E 240 90 3e 60
        E 0 90 4a 60
        E 0 90 56 60
        E 0 90 62 60
        E 34 80 3e 00
        E 0 80 4a 00
        E 0 80 56 00
        E 0 80 62 00
        E 236 90 56 60
        E 0 90 62 60
        E 30 80 56 00
        E 0 80 62 00
        E 240 90 4a 60
        E 0 90 56 60
        E 0 90 62 60
        E 30 80 4a 00
        E 0 80 56 00
        E 0 80 62 00
        E 600 90 3e 60
        E 0 90 4a 60
        E 0 90 56 60
        E 0 90 62 60
        E 120 80 3e 00
        E 0 80 4a 00
        E 510 80 56 00
        E 0 80 62 00
        E 240 90 48 60
        E 0 90 54 60
        E 0 90 60 60
        E 20 80 48 00
        E 0 80 54 00
        E 0 80 60 00
        E 300 90 54 60
        E 0 90 60 60
        E 20 80 54 00
        E 0 80 60 00
        E 300 90 3c 60
        E 0 90 48 60
        E 0 90 54 60
        E 0 90 60 60
        E 20 80 3c 00
        E 0 80 48 00
        E 0 80 54 00
        E 0 80 60 00
        E 300 90 54 60
        E 0 90 60 60
        E 20 80 54 00
        E 0 80 60 00
        E 300 90 48 60
        E 0 90 54 60
        E 0 90 60 60
        E 20 80 48 00
        E 0 80 54 00
        E 0 80 60 00
        E 300 90 54 60
        E 0 90 60 60
        E 20 80 54 00
        E 0 80 60 00
        E 300 90 3c 60
        E 0 90 48 60
        E 0 90 54 60
        E 0 90 60 60
        E 20 80 3c 00
        E 0 80 48 00
        E 0 80 54 00
        E 0 80 60 00
        E 300 90 55 60
        E 0 90 61 60
        E 120 80 55 00
        E 460 80 61 00
        E 100 90 49 60
        E 0 90 55 60
        E 0 90 61 60
        E 20 80 49 00
        E 0 80 55 00
        E 0 80 61 00
        E 300 90 3d 60
        E 0 90 49 60
        E 0 90 55 60
        E 0 90 61 60
        E 20 80 3d 00
        E 0 80 49 00
        E 0 80 55 00
        E 0 80 61 00
        E 300 90 56 60
        E 0 90 62 60
        E 20 80 56 00
        E 0 80 62 00
        E 600 90 3c 60
        E 0 90 48 60
        E 0 90 54 60
        E 0 90 60 60
        E 20 80 3c 00
        E 0 80 48 00
        E 0 80 54 00
        E 0 80 60 00
        E 300 90 54 60
        E 0 90 60 60
        E 30 80 54 00
        E 0 80 60 00
        E 570 90 48 60
        E 0 90 54 60
        E 0 90 60 60
        E 640 80 48 00
        E 40 80 54 00
        E 0 80 60 00
        E 320 90 3d 60
        E 0 90 49 60
        E 0 90 55 60
        E 0 90 61 60
        E 20 80 3d 00
        E 0 80 49 00
        E 0 80 55 00
        E 0 80 61 00
        E 299 90 55 60
        E 0 90 61 60
        E 20 80 55 00
        E 0 80 61 00
        E 961 90 3e 60
        E 0 90 4a 60
        E 0 90 56 60
        E 0 90 62 60
        E 20 80 3e 00
        E 0 80 4a 00
        E 0 80 56 00
        E 0 80 62 00
        E 320 90 56 60
        E 0 90 62 60
        E 20 80 56 00
        E 0 80 62 00
        E 320 90 4a 60
        E 0 90 56 60
        E 0 90 62 60
        E 20 80 4a 00
        E 0 80 56 00
        E 0 80 62 00
        E 320 90 56 60
        E 0 90 62 60
        E 20 80 56 00
        E 0 80 62 00
        E 320 90 3e 60
        E 0 90 4a 60
        E 0 90 56 60
        E 0 90 62 60
        E 20 80 3e 00
        E 0 80 4a 00
        E 0 80 56 00
        E 0 80 62 00
        E 580 90 4a 60
        E 0 90 56 60
        E 0 90 62 60
        E 30 80 4a 00
        E 0 80 56 00
        E 0 80 62 00
        E 550 90 74 60
        E 220 90 3c 60
        E 0 90 48 60
        E 0 90 54 60
        E 0 90 60 60
        E 20 80 3c 00
        E 0 80 48 00
        E 0 80 54 00
        E 0 80 60 00
        E 300 90 54 60
        E 0 90 60 60
        E 20 80 54 00
        E 0 80 60 00
        E 300 90 48 60
        E 0 90 54 60
        E 0 90 60 60
        E 20 80 48 00
        E 0 80 54 00
        E 0 80 60 00
        E 300 90 54 60
        E 0 90 60 60
        E 20 80 54 00
        E 0 80 60 00
        E 300 90 3c 60
        E 0 90 48 60
        E 0 90 54 60
        E 0 90 60 60
        E 20 80 3c 00
        E 0 80 48 00
        E 0 80 54 00
        E 0 80 60 00
        E 300 90 54 60
        E 0 90 60 60
        E 20 80 54 00
        E 0 80 60 00
        E 300 90 48 60
        E 0 90 54 60
        E 0 90 60 60
        E 20 80 48 00
        E 0 80 54 00
        E 0 80 60 00
        E 300 90 55 60
        E 0 90 61 60
        E 120 80 55 00
        E 460 80 61 00
        E 100 90 3d 60
        E 0 90 49 60
        E 0 90 55 60
        E 0 90 61 60
        E 20 80 3d 00
        E 0 80 49 00
        E 0 80 55 00
        E 0 80 61 00
        E 300 90 55 60
        E 0 90 61 60
        E 20 80 55 00
        E 0 80 61 00
        E 300 90 4a 60
        E 0 90 56 60
        E 0 90 62 60
        E 20 80 4a 00
        E 0 80 56 00
        E 0 80 62 00
        E 180 80 74 00
        E 420 90 3c 60
        E 0 90 48 60
        E 0 90 54 60
        E 0 90 60 60
        E 20 80 3c 00
        E 0 80 48 00
        E 0 80 54 00
        E 0 80 60 00
        E 300 90 54 60
        E 0 90 60 60
        E 30 80 54 00
        E 0 80 60 00
        E 570 90 3c 60
        E 0 90 48 60
        E 0 90 54 60
        E 0 90 60 60
        E 120 80 3c 00
        E 520 80 48 00
        E 40 80 54 00
        E 0 80 60 00
        E 320 90 3d 60
        E 0 90 49 60
        E 0 90 55 60
        E 0 90 61 60
        E 20 80 3d 00
        E 0 80 49 00
        E 0 80 55 00
        E 0 80 61 00
        E 299 90 55 60
        E 0 90 61 60
        E 20 80 55 00
        E 0 80 61 00
        E 960 90 3e 60
        E 0 90 4a 60
        E 0 90 56 60
        E 0 90 62 60
        E 21 80 3e 00
        E 0 80 4a 00
        E 0 80 56 00
        E 0 80 62 00
        E 319 90 4a 60
        E 0 90 56 60
        E 0 90 62 60
        E 20 80 4a 00
        E 0 80 56 00
        E 0 80 62 00
        E 320 90 56 60
        E 0 90 62 60
        E 20 80 56 00
        E 0 80 62 00
        E 320 90 3e 60
        E 0 90 4a 60
        E 0 90 56 60
        E 0 90 62 60
        E 20 80 3e 00
        E 0 80 4a 00
        E 0 80 56 00
        E 0 80 62 00
        E 320 90 56 60
        E 0 90 62 60
        E 20 80 56 00
        E 0 80 62 00
        E 581 90 4a 60
        E 0 90 56 60
        E 0 90 62 60
        E 30 80 4a 00
        E 0 80 56 00
        E 0 80 62 00
        E 910 90 3c 60
        E 0 90 48 60
        E 0 90 54 60
        E 0 90 60 60
        E 20 80 3c 00
        E 0 80 48 00
        E 0 80 54 00
        E 0 80 60 00
        E 300 90 48 60
        E 0 90 54 60
        E 0 90 60 60
        E 20 80 48 00
        E 0 80 54 00
        E 0 80 60 00
        E 300 90 54 60
        E 0 90 60 60
        E 20 80 54 00
        E 0 80 60 00
        E 300 90 3c 60
        E 0 90 48 60
        E 0 90 54 60
        E 0 90 60 60
        E 20 80 3c 00
        E 0 80 48 00
        E 0 80 54 00
        E 0 80 60 00
        E 300 90 48 60
        E 0 90 54 60
        E 0 90 60 60
        E 20 80 48 00
        E 0 80 54 00
        E 0 80 60 00
        E 300 90 54 60
        E 0 90 60 60
        E 20 80 54 00
        E 0 80 60 00
        E 300 90 3c 60
        E 0 90 48 60
        E 0 90 54 60
        E 0 90 60 60
        E 20 80 3c 00
        E 0 80 48 00
        E 0 80 54 00
        E 0 80 60 00
        E 300 90 55 60
        E 0 90 61 60
        E 120 80 55 00
        E 460 80 61 00
        E 100 90 3d 60
        E 0 90 49 60
        E 0 90 55 60
        E 0 90 61 60
        E 20 80 3d 00
        E 0 80 49 00
        E 0 80 55 00
        E 0 80 61 00
        E 300 90 55 60
        E 0 90 61 60
        E 20 80 55 00
        E 0 80 61 00
        E 300 90 4a 60
        E 0 90 56 60
        E 0 90 62 60
        E 20 80 4a 00
        E 0 80 56 00
        E 0 80 62 00
        E 600 90 3c 60
        E 0 90 48 60
        E 0 90 54 60
        E 0 90 60 60
        E 20 80 3c 00
        E 0 80 48 00
        E 0 80 54 00
        E 0 80 60 00
        E 300 90 54 60
        E 0 90 60 60
        E 20 90 74 60
        E 10 80 54 00
        E 0 80 60 00
        E 570 90 48 60
        E 0 90 54 60
        E 0 90 60 60
        E 640 80 48 00
        E 40 80 54 00
        E 0 80 60 00
        E 320 90 3d 60
        E 0 90 49 60
        E 0 90 55 60
        E 0 90 61 60
        E 20 80 3d 00
        E 0 80 49 00
        E 0 80 55 00
        E 0 80 61 00
        E 299 90 55 60
        E 0 90 61 60
        E 20 80 55 00
        E 0 80 61 00
        E 960 90 4a 60
        E 0 90 56 60
        E 0 90 62 60
        E 21 80 4a 00
        E 0 80 56 00
        E 0 80 62 00
        E 319 90 3e 60
        E 0 90 4a 60
        E 0 90 56 60
        E 0 90 62 60
        E 20 80 3e 00
        E 0 80 4a 00
        E 0 80 56 00
        E 0 80 62 00
        E 320 90 56 60
        E 0 90 62 60
        E 20 80 56 00
        E 0 80 62 00
        E 281 80 74 00
        E 39 90 4a 60
        E 0 90 56 60
        E 0 90 62 60
        E 20 80 4a 00
        E 0 80 56 00
        E 0 80 62 00
        E 320 90 56 60
        E 0 90 62 60
        E 20 80 56 00
        E 0 80 62 00
        E 581 90 3e 60
        E 0 90 4a 60
        E 0 90 56 60
        E 0 90 62 60
        E 30 80 3e 00
        E 0 80 4a 00
        E 0 80 56 00
        E 0 80 62 00
        E 870 90 49 60
        E 0 90 55 60
        E 0 90 61 60
        E 1020 80 49 00
        E 0 80 55 00
        E 0 80 61 00
        E 600 90 4a 60
        E 0 90 56 60
        E 0 90 62 60
        E 20 80 4a 00
        E 0 80 56 00
        E 0 80 62 00
        E 320 90 56 60
        E 0 90 62 60
        E 20 80 56 00
        E 0 80 62 00
        E 320 90 3f 60
        E 0 90 4b 60
        E 0 90 57 60
        E 0 90 63 60
        E 20 80 3f 00
        E 0 80 4b 00
        E 0 80 57 00
        E 0 80 63 00
        E 300 90 55 60
        E 0 90 61 60
        E 880 80 55 00
        E 0 80 61 00
        E 640 90 3e 60
        E 0 90 4a 60
        E 0 90 56 60
        E 0 90 62 60
        E 20 80 3e 00
        E 0 80 4a 00
        E 0 80 56 00
        E 0 80 62 00
        E 320 90 57 60
        E 0 90 63 60
        E 20 80 57 00
        E 0 80 63 00
        E 320 90 4b 60
        E 0 90 57 60
        E 0 90 63 60
        E 20 80 4b 00
        E 0 80 57 00
        E 0 80 63 00
        E 320 90 3f 60
        E 0 90 4b 60
        E 0 90 57 60
        E 0 90 63 60
        E 120 80 3f 00
        E 0 80 4b 00
        E 240 80 57 00
        E 80 80 63 00
        E 40 90 4c 60
        E 0 90 58 60
        E 0 90 64 60
        E 120 80 4c 00
        E 0 80 58 00
        E 240 80 64 00
        E 59 90 57 60
        E 0 90 63 60
        E 120 80 57 00
        E 241 80 63 00
        E 20 90 3f 60
        E 0 90 4b 60
        E 0 90 57 60
        E 0 90 63 60
        E 460 80 3f 00
        E 0 80 4b 00
        E 60 80 57 00
        E 0 80 63 00
        E 420 90 49 60
        E 0 90 55 60
        E 0 90 61 60
        E 920 80 49 00
        E 20 80 55 00
        E 0 80 61 00
        E 340 90 3e 60
        E 0 90 4a 60
        E 0 90 56 60
        E 0 90 62 60
        E 1040 80 3e 00
        E 0 80 4a 00
        E 0 80 56 00
        E 0 80 62 00
        E 540 90 3d 60
        E 0 90 49 60
        E 0 90 55 60
        E 0 90 61 60
        E 1020 80 3d 00
        E 0 80 49 00
        E 0 80 55 00
        E 0 80 61 00
        E 600 90 3e 60
        E 0 90 4a 60
        E 0 90 56 60
        E 0 90 62 60
        E 20 80 3e 00
        E 0 80 4a 00
        E 0 80 56 00
        E 0 80 62 00
        E 320 90 56 60
        E 0 90 62 60
        E 20 80 56 00
        E 0 80 62 00
        E 320 90 57 60
        E 0 90 63 60
        E 20 80 57 00
        E 0 80 63 00
        E 300 90 3d 60
        E 0 90 49 60
        E 0 90 55 60
        E 0 90 61 60
        E 880 80 3d 00
        E 0 80 49 00
        E 0 80 55 00
        E 0 80 61 00
        E 640 90 3e 60
        E 0 90 4a 60
        E 0 90 56 60
        E 0 90 62 60
        E 20 80 3e 00
        E 0 80 4a 00
        E 0 80 56 00
        E 0 80 62 00
        E 320 90 57 60
        E 0 90 63 60
        E 20 80 57 00
        E 0 80 63 00
        E 320 90 4b 60
        E 0 90 57 60
        E 0 90 63 60
        E 20 80 4b 00
        E 0 80 57 00
        E 0 80 63 00
        E 320 90 57 60
        E 0 90 63 60
        E 120 80 57 00
        E 320 80 63 00
        E 40 90 4c 60
        E 0 90 58 60
        E 0 90 64 60
        E 120 80 4c 00
        E 0 80 58 00
        E 240 80 64 00
        E 59 90 57 60
        E 0 90 63 60
        E 120 80 57 00
        E 241 80 63 00
        E 20 90 3f 60
        E 0 90 4b 60
        E 0 90 57 60
        E 0 90 63 60
        E 460 80 3f 00
        E 0 80 4b 00
        E 60 80 57 00
        E 0 80 63 00
        E 420 90 3d 60
        E 0 90 49 60
        E 0 90 55 60
        E 0 90 61 60
        E 800 80 3d 00
        E 0 80 49 00
        E 140 80 55 00
        E 0 80 61 00
        E 340 90 3e 60
        E 0 90 4a 60
        E 0 90 56 60
        E 0 90 62 60
        E 1040 80 3e 00
        E 0 80 4a 00
        E 0 80 56 00
        E 0 80 62 00
        E 580 90 3c 60
        E 0 90 48 60
        E 0 90 54 60
        E 0 90 60 60
        E 20 80 3c 00
        E 0 80 48 00
        E 0 80 54 00
        E 0 80 60 00
        E 300 90 54 60
        E 0 90 60 60
        E 20 80 54 00
        E 0 80 60 00
        E 300 90 48 60
        E 0 90 54 60
        E 0 90 60 60
        E 20 80 48 00
        E 0 80 54 00
        E 0 80 60 00
        E 300 90 3c 60
        E 0 90 48 60
        E 0 90 54 60
        E 0 90 60 60
        E 20 80 3c 00
        E 0 80 48 00
        E 0 80 54 00
        E 0 80 60 00
        E 300 90 54 60
        E 0 90 60 60
        E 20 80 54 00
        E 0 80 60 00
        E 300 90 48 60
        E 0 90 54 60
        E 0 90 60 60
        E 20 80 48 00
        E 0 80 54 00
        E 0 80 60 00
        E 300 90 3c 60
        E 0 90 48 60
        E 0 90 54 60
        E 0 90 60 60
        E 20 80 3c 00
        E 0 80 48 00
        E 0 80 54 00
        E 0 80 60 00
        E 300 90 55 60
        E 0 90 61 60
        E 120 80 55 00
        E 460 80 61 00
        E 100 90 3d 60
        E 0 90 49 60
        E 0 90 55 60
        E 0 90 61 60
        E 20 80 3d 00
        E 0 80 49 00
        E 0 80 55 00
        E 0 80 61 00
        E 300 90 55 60
        E 0 90 61 60
        E 20 80 55 00
        E 0 80 61 00
        E 300 90 4a 60
        E 0 90 56 60
        E 0 90 62 60
        E 20 80 4a 00
        E 0 80 56 00
        E 0 80 62 00
        E 380 90 74 60
        E 220 90 3c 60
        E 0 90 48 60
        E 0 90 54 60
        E 0 90 60 60
        E 20 80 3c 00
        E 0 80 48 00
        E 0 80 54 00
        E 0 80 60 00
        E 300 90 54 60
        E 0 90 60 60
        E 30 80 54 00
        E 0 80 60 00
        E 570 90 48 60
        E 0 90 54 60
        E 0 90 60 60
        E 640 80 48 00
        E 40 80 54 00
        E 0 80 60 00
        E 320 90 3d 60
        E 0 90 49 60
        E 0 90 55 60
        E 0 90 61 60
        E 20 80 3d 00
        E 0 80 49 00
        E 0 80 55 00
        E 0 80 61 00
        E 299 90 55 60
        E 0 90 61 60
        E 20 80 55 00
        E 0 80 61 00
        E 960 90 3e 60
        E 0 90 4a 60
        E 0 90 56 60
        E 0 90 62 60
        E 21 80 3e 00
        E 0 80 4a 00
        E 0 80 56 00
        E 0 80 62 00
        E 319 90 56 60
        E 0 90 62 60
        E 20 80 56 00
        E 0 80 62 00
        E 320 90 4a 60
        E 0 90 56 60
        E 0 90 62 60
        E 20 80 4a 00
        E 0 80 56 00
        E 0 80 62 00
        E 320 90 3e 60
        E 0 90 4a 60
        E 0 90 56 60
        E 0 90 62 60
        E 20 80 3e 00
        E 0 80 4a 00
        E 0 80 56 00
        E 0 80 62 00
        E 320 90 56 60
        E 0 90 62 60
        E 20 80 56 00
        E 0 80 62 00
        E 581 90 4a 60
        E 0 90 56 60
        E 0 90 62 60
        E 30 80 4a 00
        E 0 80 56 00
        E 0 80 62 00
        E 290 80 74 00
        E 560 90 48 60
        E 0 90 54 60
        E 0 90 60 60
        E 20 80 48 00
        E 0 80 54 00
        E 0 80 60 00
        E 300 90 3c 60
        E 0 90 48 60
        E 0 90 54 60
        E 0 90 60 60
        E 20 80 3c 00
        E 0 80 48 00
        E 0 80 54 00
        E 0 80 60 00
        E 300 90 54 60
        E 0 90 60 60
        E 20 80 54 00
        E 0 80 60 00
        E 300 90 48 60
        E 0 90 54 60
        E 0 90 60 60
        E 20 80 48 00
        E 0 80 54 00
        E 0 80 60 00
        E 300 90 3c 60
        E 0 90 48 60
        E 0 90 54 60
        E 0 90 60 60
        E 20 80 3c 00
        E 0 80 48 00
        E 0 80 54 00
        E 0 80 60 00
        E 300 90 54 60
        E 0 90 60 60
        E 20 80 54 00
        E 0 80 60 00
        E 300 90 54 60
        E 0 90 60 60
        E 20 80 54 00
        E 0 80 60 00
        E 300 90 3d 60
        E 0 90 49 60
        E 0 90 55 60
        E 0 90 61 60
        E 120 80 3d 00
        E 0 80 49 00
        E 440 80 55 00
        E 20 80 61 00
        E 100 90 49 60
        E 0 90 55 60
        E 0 90 61 60
        E 20 80 49 00
        E 0 80 55 00
        E 0 80 61 00
        E 300 90 55 60
        E 0 90 61 60
        E 20 80 55 00
        E 0 80 61 00
        E 300 90 4a 60
        E 0 90 56 60
        E 0 90 62 60
        E 20 80 4a 00
        E 0 80 56 00
        E 0 80 62 00
        E 600 90 3c 60
        E 0 90 48 60
        E 0 90 54 60
        E 0 90 60 60
        E 20 80 3c 00
        E 0 80 48 00
        E 0 80 54 00
        E 0 80 60 00
        E 300 90 54 60
        E 0 90 60 60
        E 30 80 54 00
        E 0 80 60 00
        E 570 90 3c 60
        E 0 90 48 60
        E 0 90 54 60
        E 0 90 60 60
        E 120 80 3c 00
        E 520 80 48 00
        E 40 80 54 00
        E 0 80 60 00
        E 320 90 3d 60
        E 0 90 49 60
        E 0 90 55 60
        E 0 90 61 60
        E 20 80 3d 00
        E 0 80 49 00
        E 0 80 55 00
        E 0 80 61 00
        E 299 90 55 60
        E 0 90 61 60
        E 20 80 55 00
        E 0 80 61 00
        E 960 90 3e 60
        E 0 90 4a 60
        E 0 90 56 60
        E 0 90 62 60
        E 21 80 3e 00
        E 0 80 4a 00
        E 0 80 56 00
        E 0 80 62 00
        E 319 90 56 60
        E 0 90 62 60
        E 20 80 56 00
        E 0 80 62 00
        E 320 90 4a 60
        E 0 90 56 60
        E 0 90 62 60
        E 20 80 4a 00
        E 0 80 56 00
        E 0 80 62 00
        E 320 90 56 60
        E 0 90 62 60
        E 20 80 56 00
        E 0 80 62 00
        E 320 90 3e 60
        E 0 90 4a 60
        E 0 90 56 60
        E 0 90 62 60
        E 20 80 3e 00
        E 0 80 4a 00
        E 0 80 56 00
        E 0 80 62 00
        E 581 90 4a 60
        E 0 90 56 60
        E 0 90 62 60
        E 30 80 4a 00
        E 0 80 56 00
        E 0 80 62 00
        E 810 90 3d 60
        E 0 90 49 60
        E 0 90 55 60
        E 0 90 61 60
        E 1020 80 3d 00
        E 0 80 49 00
        E 0 80 55 00
        E 0 80 61 00
        E 600 90 3e 60
        E 0 90 4a 60
        E 0 90 56 60
        E 0 90 62 60
        E 20 80 3e 00
        E 0 80 4a 00
        E 0 80 56 00
        E 0 80 62 00
        E 320 90 56 60
        E 0 90 62 60
        E 20 80 56 00
        E 0 80 62 00
        E 320 90 57 60
        E 0 90 63 60
        E 20 80 57 00
        E 0 80 63 00
        E 300 90 3d 60
        E 0 90 49 60
        E 0 90 55 60
        E 0 90 61 60
        E 880 80 3d 00
        E 0 80 49 00
        E 0 80 55 00
        E 0 80 61 00
        E 640 90 3e 60
        E 0 90 4a 60
        E 0 90 56 60
        E 0 90 62 60
        E 20 80 3e 00
        E 0 80 4a 00
        E 0 80 56 00
        E 0 80 62 00
        E 320 90 57 60
        E 0 90 63 60
        E 20 80 57 00
        E 0 80 63 00
        E 320 90 4b 60
        E 0 90 57 60
        E 0 90 63 60
        E 20 80 4b 00
        E 0 80 57 00
        E 0 80 63 00
        E 320 90 57 60
        E 0 90 63 60
        E 120 80 57 00
        E 320 80 63 00
        E 40 90 4c 60
        E 0 90 58 60
        E 0 90 64 60
        E 120 80 4c 00
        E 0 80 58 00
        E 240 80 64 00
        E 59 90 57 60
        E 0 90 63 60
        E 120 80 57 00
        E 241 80 63 00
        E 20 90 3f 60
        E 0 90 4b 60
        E 0 90 57 60
        E 0 90 63 60
        E 120 80 3f 00
        E 0 80 4b 00
        E 0 80 57 00
        E 400 80 63 00
        E 420 90 3d 60
        E 0 90 49 60
        E 0 90 55 60
        E 0 90 61 60
        E 800 80 3d 00
        E 120 80 49 00
        E 20 80 55 00
        E 0 80 61 00
        E 340 90 3e 60
        E 0 90 4a 60
        E 0 90 56 60
        E 0 90 62 60
        E 1040 80 3e 00
        E 0 80 4a 00
        E 0 80 56 00
        E 0 80 62 00
        E 580 90 3d 60
        E 0 90 49 60
        E 0 90 55 60
        E 0 90 61 60
        E 1020 80 3d 00
        E 0 80 49 00
        E 0 80 55 00
        E 0 80 61 00
        E 600 90 3e 60
        E 0 90 4a 60
        E 0 90 56 60
        E 0 90 62 60
        E 20 80 3e 00
        E 0 80 4a 00
        E 0 80 56 00
        E 0 80 62 00
        E 320 90 56 60
        E 0 90 62 60
        E 20 80 56 00
        E 0 80 62 00
        E 320 90 4b 60
        E 0 90 57 60
        E 0 90 63 60
        E 20 80 4b 00
        E 0 80 57 00
        E 0 80 63 00
        E 300 90 55 60
        E 0 90 61 60
        E 880 80 55 00
        E 0 80 61 00
        E 640 90 4a 60
        E 0 90 56 60
        E 0 90 62 60
        E 20 80 4a 00
        E 0 80 56 00
        E 0 80 62 00
        E 320 90 57 60
        E 0 90 63 60
        E 20 80 57 00
        E 0 80 63 00
        E 320 90 3f 60
        E 0 90 4b 60
        E 0 90 57 60
        E 0 90 63 60
        E 20 80 3f 00
        E 0 80 4b 00
        E 0 80 57 00
        E 0 80 63 00
        E 320 90 57 60
        E 0 90 63 60
        E 120 80 57 00
        E 320 80 63 00
        E 40 90 4c 60
        E 0 90 58 60
        E 0 90 64 60
        E 120 80 4c 00
        E 0 80 58 00
        E 240 80 64 00
        E 59 90 57 60
        E 0 90 63 60
        E 120 80 57 00
        E 241 80 63 00
        E 20 90 3f 60
        E 0 90 4b 60
        E 0 90 57 60
        E 0 90 63 60
        E 120 80 3f 00
        E 0 80 4b 00
        E 0 80 57 00
        E 400 80 63 00
        E 420 90 49 60
        E 0 90 55 60
        E 0 90 61 60
        E 920 80 49 00
        E 20 80 55 00
        E 0 80 61 00
        E 340 90 3e 60
        E 0 90 4a 60
        E 0 90 56 60
        E 0 90 62 60
        E 1040 80 3e 00
        E 0 80 4a 00
        E 0 80 56 00
        E 0 80 62 00
        E 540 90 49 60
        E 0 90 55 60
        E 0 90 61 60
        E 20 80 49 00
        E 0 80 55 00
        E 0 80 61 00
        E 300 90 3d 60
        E 0 90 49 60
        E 0 90 55 60
        E 0 90 61 60
        E 20 80 3d 00
        E 0 80 49 00
        E 0 80 55 00
        E 0 80 61 00
        E 300 90 55 60
        E 0 90 61 60
        E 20 80 55 00
        E 0 80 61 00
        E 300 90 49 60
        E 0 90 55 60
        E 0 90 61 60
        E 20 80 49 00
        E 0 80 55 00
        E 0 80 61 00
        E 300 90 3d 60
        E 0 90 49 60
        E 0 90 55 60
        E 0 90 61 60
        E 20 80 3d 00
        E 0 80 49 00
        E 0 80 55 00
        E 0 80 61 00
        E 300 90 55 60
        E 0 90 61 60
        E 20 80 55 00
        E 0 80 61 00
        E 300 90 49 60
        E 0 90 55 60
        E 0 90 61 60
        E 20 80 49 00
        E 0 80 55 00
        E 0 80 61 00
        E 300 90 3d 60
        E 0 90 49 60
        E 0 90 55 60
        E 0 90 61 60
        E 20 80 3d 00
        E 0 80 49 00
        E 0 80 55 00
        E 0 80 61 00
        E 300 90 54 60
        E 0 90 60 60
        E 20 80 54 00
        E 0 80 60 00
        E 300 90 48 60
        E 0 90 54 60
        E 0 90 60 60
        E 20 80 48 00
        E 0 80 54 00
        E 0 80 60 00
        E 301 90 3c 60
        E 0 90 48 60
        E 0 90 54 60
        E 0 90 60 60
        E 19 80 3c 00
        E 0 80 48 00
        E 0 80 54 00
        E 0 80 60 00
        E 300 90 54 60
        E 0 90 60 60
        E 20 80 54 00
        E 0 80 60 00
        E 300 90 48 60
        E 0 90 54 60
        E 0 90 60 60
        E 21 80 48 00
        E 0 80 54 00
        E 0 80 60 00
        E 299 90 3c 60
        E 0 90 48 60
        E 0 90 54 60
        E 0 90 60 60
        E 20 80 3c 00
        E 0 80 48 00
        E 0 80 54 00
        E 0 80 60 00
        E 300 90 54 60
        E 0 90 60 60
        E 20 80 54 00
        E 0 80 60 00
        E 300 90 54 60
        E 0 90 60 60
        E 20 80 54 00
        E 0 80 60 00
        E 300 90 3d 60
        E 0 90 49 60
        E 0 90 55 60
        E 0 90 61 60
        E 20 80 3d 00
        E 0 80 49 00
        E 0 80 55 00
        E 0 80 61 00
        E 300 90 55 60
        E 0 90 61 60
        E 20 80 55 00
        E 0 80 61 00
        E 300 90 49 60
        E 0 90 55 60
        E 0 90 61 60
        E 20 80 49 00
        E 0 80 55 00
        E 0 80 61 00
        E 300 90 3d 60
        E 0 90 49 60
        E 0 90 55 60
        E 0 90 61 60
        E 20 80 3d 00
        E 0 80 49 00
        E 0 80 55 00
        E 0 80 61 00
        E 300 90 55 60
        E 0 90 61 60
        E 20 80 55 00
        E 0 80 61 00
        E 300 90 49 60
        E 0 90 55 60
        E 0 90 61 60
        E 20 80 49 00
        E 0 80 55 00
        E 0 80 61 00
        E 300 90 3d 60
        E 0 90 49 60
        E 0 90 55 60
        E 0 90 61 60
        E 20 80 3d 00
        E 0 80 49 00
        E 0 80 55 00
        E 0 80 61 00
        E 300 90 55 60
        E 0 90 61 60
        E 20 80 55 00
        E 0 80 61 00
        E 200 90 74 60
        E 100 90 48 60
        E 0 90 54 60
        E 0 90 60 60
        E 20 80 48 00
        E 0 80 54 00
        E 0 80 60 00
        E 300 90 3c 60
        E 0 90 48 60
        E 0 90 54 60
        E 0 90 60 60
        E 20 80 3c 00
        E 0 80 48 00
        E 0 80 54 00
        E 0 80 60 00
        E 300 90 54 60
        E 0 90 60 60
        E 20 80 54 00
        E 0 80 60 00
        E 300 90 48 60
        E 0 90 54 60
        E 0 90 60 60
        E 20 80 48 00
        E 0 80 54 00
        E 0 80 60 00
        E 300 90 3c 60
        E 0 90 48 60
        E 0 90 54 60
        E 0 90 60 60
        E 20 80 3c 00
        E 0 80 48 00
        E 0 80 54 00
        E 0 80 60 00
        E 300 90 54 60
        E 0 90 60 60
        E 20 80 54 00
        E 0 80 60 00
        E 300 90 48 60
        E 0 90 54 60
        E 0 90 60 60
        E 20 80 48 00
        E 0 80 54 00
        E 0 80 60 00
        E 300 90 3c 60
        E 0 90 48 60
        E 0 90 54 60
        E 0 90 60 60
        E 20 80 3c 00
        E 0 80 48 00
        E 0 80 54 00
        E 0 80 60 00
        E 300 90 54 60
        E 0 90 60 60
        E 20 80 54 00
        E 0 80 60 00
        E 300 90 48 60
        E 0 90 54 60
        E 0 90 60 60
        E 20 80 48 00
        E 0 80 54 00
        E 0 80 60 00
        E 300 90 3c 60
        E 0 90 48 60
        E 0 90 54 60
        E 0 90 60 60
        E 20 80 3c 00
        E 0 80 48 00
        E 0 80 54 00
        E 0 80 60 00
        E 300 90 54 60
        E 0 90 60 60
        E 20 80 54 00
        E 0 80 60 00
        E 300 90 48 60
        E 0 90 54 60
        E 0 90 60 60
        E 20 80 48 00
        E 0 80 54 00
        E 0 80 60 00
        E 300 90 3c 60
        E 0 90 48 60
        E 0 90 54 60
        E 0 90 60 60
        E 20 80 3c 00
        E 0 80 48 00
        E 0 80 54 00
        E 0 80 60 00
        E 300 90 54 60
        E 0 90 60 60
        E 20 80 54 00
        E 0 80 60 00
        E 300 90 54 60
        E 0 90 60 60
        E 20 80 54 00
        E 0 80 60 00
        E 140 90 60 60
        E 20 80 60 00
        E 140 90 3d 60
        E 0 90 49 60
        E 0 90 55 60
        E 0 90 61 60
        E 0 90 65 60
        E 20 80 3d 00
        E 0 80 49 00
        E 0 80 55 00
        E 0 80 61 00
        E 0 80 65 00
        E 300 90 56 60
        E 0 90 62 60
        E 0 90 66 60
        E 20 80 56 00
        E 0 80 62 00
        E 0 80 66 00
        E 300 90 4a 60
        E 0 90 56 60
        E 0 90 62 60
        E 20 80 4a 00
        E 0 80 56 00
        E 0 80 62 00
        E 300 90 3e 60
        E 0 90 4a 60
        E 0 90 56 60
        E 0 90 62 60
        E 20 80 3e 00
        E 0 80 4a 00
        E 0 80 56 00
        E 0 80 62 00
        E 300 90 56 60
        E 0 90 62 60
        E 20 80 56 00
        E 0 80 62 00
        E 300 90 4a 60
        E 0 90 56 60
        E 0 90 62 60
        E 20 80 4a 00
        E 0 80 56 00
        E 0 80 62 00
        E 300 90 3e 60
        E 0 90 4a 60
        E 0 90 56 60
        E 0 90 62 60
        E 20 80 3e 00
        E 0 80 4a 00
        E 0 80 56 00
        E 0 80 62 00
        E 300 90 56 60
        E 0 90 62 60
        E 20 80 56 00
        E 0 80 62 00
        E 120 80 74 00
        E 180 90 49 60
        E 0 90 55 60
        E 0 90 61 60
        E 20 80 49 00
        E 0 80 55 00
        E 0 80 61 00
        E 300 90 3d 60
        E 0 90 49 60
        E 0 90 55 60
        E 0 90 61 60
        E 20 80 3d 00
        E 0 80 49 00
        E 0 80 55 00
        E 0 80 61 00
        E 300 90 55 60
        E 0 90 61 60
        E 20 80 55 00
        E 0 80 61 00
        E 300 90 49 60
        E 0 90 55 60
        E 0 90 61 60
        E 20 80 49 00
        E 0 80 55 00
        E 0 80 61 00
        E 300 90 3d 60
        E 0 90 49 60
        E 0 90 55 60
        E 0 90 61 60
        E 20 80 3d 00
        E 0 80 49 00
        E 0 80 55 00
        E 0 80 61 00
        E 300 90 55 60
        E 0 90 61 60
        E 20 80 55 00
        E 0 80 61 00
        E 300 90 49 60
        E 0 90 55 60
        E 0 90 61 60
        E 20 80 49 00
        E 0 80 55 00
        E 0 80 61 00
        E 300 90 3d 60
        E 0 90 49 60
        E 0 90 55 60
        E 0 90 61 60
        E 20 80 3d 00
        E 0 80 49 00
        E 0 80 55 00
        E 0 80 61 00
        E 300 90 54 60
        E 0 90 60 60
        E 20 80 54 00
        E 0 80 60 00
        E 300 90 48 60
        E 0 90 54 60
        E 0 90 60 60
        E 20 80 48 00
        E 0 80 54 00
        E 0 80 60 00
        E 301 90 3c 60
        E 0 90 48 60
        E 0 90 54 60
        E 0 90 60 60
        E 19 80 3c 00
        E 0 80 48 00
        E 0 80 54 00
        E 0 80 60 00
        E 300 90 54 60
        E 0 90 60 60
        E 20 80 54 00
        E 0 80 60 00
        E 300 90 48 60
        E 0 90 54 60
        E 0 90 60 60
        E 21 80 48 00
        E 0 80 54 00
        E 0 80 60 00
        E 299 90 3c 60
        E 0 90 48 60
        E 0 90 54 60
        E 0 90 60 60
        E 20 80 3c 00
        E 0 80 48 00
        E 0 80 54 00
        E 0 80 60 00
        E 300 90 54 60
        E 0 90 60 60
        E 20 80 54 00
        E 0 80 60 00
        E 300 90 54 60
        E 0 90 60 60
        E 20 80 54 00
        E 0 80 60 00
        E 300 90 3d 60
        E 0 90 49 60
        E 0 90 55 60
        E 0 90 61 60
        E 20 80 3d 00
        E 0 80 49 00
        E 0 80 55 00
        E 0 80 61 00
        E 300 90 55 60
        E 0 90 61 60
        E 20 80 55 00
        E 0 80 61 00
        E 300 90 49 60
        E 0 90 55 60
        E 0 90 61 60
        E 20 80 49 00
        E 0 80 55 00
        E 0 80 61 00
        E 300 90 3d 60
        E 0 90 49 60
        E 0 90 55 60
        E 0 90 61 60
        E 20 80 3d 00
        E 0 80 49 00
        E 0 80 55 00
        E 0 80 61 00
        E 300 90 55 60
        E 0 90 61 60
        E 20 80 55 00
        E 0 80 61 00
        E 300 90 49 60
        E 0 90 55 60
        E 0 90 61 60
        E 20 80 49 00
        E 0 80 55 00
        E 0 80 61 00
        E 300 90 3d 60
        E 0 90 49 60
        E 0 90 55 60
        E 0 90 61 60
        E 20 80 3d 00
        E 0 80 49 00
        E 0 80 55 00
        E 0 80 61 00
        E 300 90 55 60
        E 0 90 61 60
        E 20 80 55 00
        E 0 80 61 00
        E 300 90 48 60
        E 0 90 54 60
        E 0 90 60 60
        E 20 80 48 00
        E 0 80 54 00
        E 0 80 60 00
        E 300 90 3c 60
        E 0 90 48 60
        E 0 90 54 60
        E 0 90 60 60
        E 20 80 3c 00
        E 0 80 48 00
        E 0 80 54 00
        E 0 80 60 00
        E 300 90 54 60
        E 0 90 60 60
        E 20 80 54 00
        E 0 80 60 00
        E 300 90 48 60
        E 0 90 54 60
        E 0 90 60 60
        E 20 80 48 00
        E 0 80 54 00
        E 0 80 60 00
        E 300 90 3c 60
        E 0 90 48 60
        E 0 90 54 60
        E 0 90 60 60
        E 20 80 3c 00
        E 0 80 48 00
        E 0 80 54 00
        E 0 80 60 00
        E 300 90 54 60
        E 0 90 60 60
        E 20 80 54 00
        E 0 80 60 00
        E 300 90 48 60
        E 0 90 54 60
        E 0 90 60 60
        E 20 80 48 00
        E 0 80 54 00
        E 0 80 60 00
        E 300 90 3c 60
        E 0 90 48 60
        E 0 90 54 60
        E 0 90 60 60
        E 20 80 3c 00
        E 0 80 48 00
        E 0 80 54 00
        E 0 80 60 00
        E 300 90 54 60
        E 0 90 60 60
        E 20 80 54 00
        E 0 80 60 00
        E 300 90 48 60
        E 0 90 54 60
        E 0 90 60 60
        E 20 80 48 00
        E 0 80 54 00
        E 0 80 60 00
        E 300 90 3c 60
        E 0 90 48 60
        E 0 90 54 60
        E 0 90 60 60
        E 20 80 3c 00
        E 0 80 48 00
        E 0 80 54 00
        E 0 80 60 00
        E 300 90 54 60
        E 0 90 60 60
        E 20 80 54 00
        E 0 80 60 00
        E 300 90 48 60
        E 0 90 54 60
        E 0 90 60 60
        E 20 80 48 00
        E 0 80 54 00
        E 0 80 60 00
        E 300 90 3c 60
        E 0 90 48 60
        E 0 90 54 60
        E 0 90 60 60
        E 20 80 3c 00
        E 0 80 48 00
        E 0 80 54 00
        E 0 80 60 00
        E 300 90 54 60
        E 0 90 60 60
        E 20 80 54 00
        E 0 80 60 00
        E 300 90 54 60
        E 0 90 60 60
        E 20 80 54 00
        E 0 80 60 00
        E 140 90 60 60
        E 20 80 60 00
        E 140 90 3d 60
        E 0 90 49 60
        E 0 90 55 60
        E 0 90 61 60
        E 0 90 65 60
        E 20 80 3d 00
        E 0 80 49 00
        E 0 80 55 00
        E 0 80 61 00
        E 1 80 65 00
        E 299 90 56 60
        E 0 90 62 60
        E 0 90 66 60
        E 20 80 56 00
        E 0 80 62 00
        E 0 80 66 00
        E 300 90 4a 60
        E 0 90 56 60
        E 0 90 62 60
        E 20 80 4a 00
        E 0 80 56 00
        E 0 80 62 00
        E 300 90 3e 60
        E 0 90 4a 60
        E 0 90 56 60
        E 0 90 62 60
        E 20 80 3e 00
        E 0 80 4a 00
        E 0 80 56 00
        E 0 80 62 00
        E 300 90 56 60
        E 0 90 62 60
        E 20 80 56 00
        E 0 80 62 00
        E 300 90 4a 60
        E 0 90 56 60
        E 0 90 62 60
        E 20 80 4a 00
        E 0 80 56 00
        E 0 80 62 00
        E 300 90 3e 60
        E 0 90 4a 60
        E 0 90 56 60
        E 0 90 62 60
        E 120 80 3e 00
        E 0 80 4a 00
        E 0 80 56 00
        E 360 80 62 00
        E 200 90 49 60
        E 0 90 55 60
        E 0 90 61 60
        E 960 80 49 00
        E 0 80 55 00
        E 0 80 61 00
        E 620 90 3e 60
        E 0 90 4a 60
        E 0 90 56 60
        E 0 90 62 60
        E 20 80 3e 00
        E 0 80 4a 00
        E 0 80 56 00
        E 0 80 62 00
        E 320 90 56 60
        E 0 90 62 60
        E 20 80 56 00
        E 0 80 62 00
        E 320 90 4b 60
        E 0 90 57 60
        E 0 90 63 60
        E 21 80 4b 00
        E 0 80 57 00
        E 0 80 63 00
        E 279 90 55 60
        E 0 90 61 60
        E 890 80 55 00
        E 0 80 61 00
        E 510 90 74 60
        E 160 90 3e 60
        E 0 90 4a 60
        E 0 90 56 60
        E 0 90 62 60
        E 20 80 3e 00
        E 0 80 4a 00
        E 0 80 56 00
        E 0 80 62 00
        E 320 90 57 60
        E 0 90 63 60
        E 20 80 57 00
        E 0 80 63 00
        E 320 90 4b 60
        E 0 90 57 60
        E 0 90 63 60
        E 20 80 4b 00
        E 0 80 57 00
        E 0 80 63 00
        E 320 90 57 60
        E 0 90 63 60
        E 120 80 57 00
        E 300 80 63 00
        E 60 90 58 60
        E 0 90 64 60
        E 120 80 58 00
        E 240 80 64 00
        E 60 90 3f 60
        E 0 90 4b 60
        E 0 90 57 60
        E 0 90 63 60
        E 140 80 3f 00
        E 0 80 4b 00
        E 0 80 57 00
        E 220 80 63 00
        E 20 90 57 60
        E 0 90 63 60
        E 620 80 57 00
        E 0 80 63 00
        E 320 90 3d 60
        E 0 90 49 60
        E 0 90 55 60
        E 0 90 61 60
        E 800 80 3d 00
        E 120 80 49 00
        E 40 80 55 00
        E 0 80 61 00
        E 320 90 3e 60
        E 0 90 4a 60
        E 0 90 56 60
        E 0 90 62 60
        E 1020 80 3e 00
        E 0 80 4a 00
        E 0 80 56 00
        E 0 80 62 00
        E 540 90 3d 60
        E 0 90 49 60
        E 0 90 55 60
        E 0 90 61 60
        E 960 80 3d 00
        E 0 80 49 00
        E 0 80 55 00
        E 0 80 61 00
        E 620 90 3e 60
        E 0 90 4a 60
        E 0 90 56 60
        E 0 90 62 60
        E 20 80 3e 00
        E 0 80 4a 00
        E 0 80 56 00
        E 0 80 62 00
        E 320 90 56 60
        E 0 90 62 60
        E 20 80 56 00
        E 0 80 62 00
        E 320 90 57 60
        E 0 90 63 60
        E 21 80 57 00
        E 0 80 63 00
        E 279 90 3d 60
        E 0 90 49 60
        E 0 90 55 60
        E 0 90 61 60
        E 890 80 3d 00
        E 0 80 49 00
        E 0 80 55 00
        E 0 80 61 00
        E 110 80 74 00
        E 560 90 56 60
        E 0 90 62 60
        E 20 80 56 00
        E 0 80 62 00
        E 320 90 3f 60
        E 0 90 4b 60
        E 0 90 57 60
        E 0 90 63 60
        E 20 80 3f 00
        E 0 80 4b 00
        E 0 80 57 00
        E 0 80 63 00
        E 320 90 57 60
        E 0 90 63 60
        E 20 80 57 00
        E 0 80 63 00
        E 320 90 4b 60
        E 0 90 57 60
        E 0 90 63 60
        E 120 80 4b 00
        E 0 80 57 00
        E 300 80 63 00
        E 60 90 4c 60
        E 0 90 58 60
        E 0 90 64 60
        E 120 80 4c 00
        E 0 80 58 00
        E 240 80 64 00
        E 60 90 57 60
        E 0 90 63 60
        E 140 80 57 00
        E 220 80 63 00
        E 20 90 3f 60
        E 0 90 4b 60
        E 0 90 57 60
        E 0 90 63 60
        E 120 80 3f 00
        E 460 80 4b 00
        E 40 80 57 00
        E 0 80 63 00
        E 320 90 3d 60
        E 0 90 49 60
        E 0 90 55 60
        E 0 90 61 60
        E 800 80 3d 00
        E 120 80 49 00
        E 40 80 55 00
        E 0 80 61 00
        E 320 90 3e 60
        E 0 90 4a 60
        E 0 90 56 60
        E 0 90 62 60
        E 1020 80 3e 00
        E 0 80 4a 00
        E 0 80 56 00
        E 0 80 62 00
        E 560 90 3c 60
        E 0 90 48 60
        E 0 90 54 60
        E 0 90 60 60
        E 30 80 3c 00
        E 0 80 48 00
        E 0 80 54 00
        E 0 80 60 00
        E 300 90 54 60
        E 0 90 60 60
        E 30 80 54 00
        E 0 80 60 00
        E 270 90 48 60
        E 0 90 54 60
        E 0 90 60 60
        E 37 80 48 00
        E 0 80 54 00
        E 0 80 60 00
        E 263 90 54 60
        E 0 90 60 60
        E 30 80 54 00
        E 0 80 60 00
        E 270 90 3c 60
        E 0 90 48 60
        E 0 90 54 60
        E 0 90 60 60
        E 30 80 3c 00
        E 0 80 48 00
        E 0 80 54 00
        E 0 80 60 00
        E 270 90 54 60
        E 0 90 60 60
        E 30 80 54 00
        E 0 80 60 00
        E 270 90 48 60
        E 0 90 54 60
        E 0 90 60 60
        E 30 80 48 00
        E 0 80 54 00
        E 0 80 60 00
        E 390 90 55 60
        E 0 90 61 60
        E 120 80 55 00
        E 390 80 61 00
        E 150 90 3d 60
        E 0 90 49 60
        E 0 90 55 60
        E 0 90 61 60
        E 30 80 3d 00
        E 0 80 49 00
        E 0 80 55 00
        E 0 80 61 00
        E 270 90 55 60
        E 0 90 61 60
        E 30 80 55 00
        E 0 80 61 00
        E 270 90 56 60
        E 0 90 62 60
        E 30 80 56 00
        E 0 80 62 00
        E 300 90 3c 60
        E 0 90 48 60
        E 0 90 54 60
        E 0 90 60 60
        E 30 80 3c 00
        E 0 80 48 00
        E 0 80 54 00
        E 0 80 60 00
        E 359 90 54 60
        E 0 90 60 60
        E 30 80 54 00
        E 0 80 60 00
        E 300 90 48 60
        E 0 90 54 60
        E 0 90 60 60
        E 30 80 48 00
        E 0 80 54 00
        E 0 80 60 00
        E 570 90 3d 60
        E 0 90 49 60
        E 0 90 55 60
        E 0 90 61 60
        E 120 80 3d 00
        E 510 80 49 00
        E 31 80 55 00
        E 0 80 61 00
        E 329 90 3d 60
        E 0 90 49 60
        E 0 90 55 60
        E 0 90 61 60
        E 780 80 3d 00
        E 90 80 49 00
        E 0 80 55 00
        E 0 80 61 00
        E 390 90 3e 60
        E 0 90 4a 60
        E 0 90 56 60
        E 0 90 62 60
        E 30 80 3e 00
        E 0 80 4a 00
        E 0 80 56 00
        E 0 80 62 00
        E 330 90 56 60
        E 0 90 62 60
        E 30 80 56 00
        E 0 80 62 00
        E 300 90 4a 60
        E 0 90 56 60
        E 0 90 62 60
        E 30 80 4a 00
        E 0 80 56 00
        E 0 80 62 00
        E 300 90 3e 60
        E 0 90 4a 60
        E 0 90 56 60
        E 0 90 62 60
        E 30 80 3e 00
        E 0 80 4a 00
        E 0 80 56 00
        E 0 80 62 00
        E 296 90 56 60
        E 0 90 62 60
        E 34 80 56 00
        E 0 80 62 00
        E 570 90 4a 60
        E 0 90 56 60
        E 0 90 62 60
        E 30 80 4a 00
        E 0 80 56 00
        E 0 80 62 00
        E 811 90 3c 60
        E 0 90 48 60
        E 0 90 54 60
        E 0 90 60 60
        E 30 80 3c 00
        E 0 80 48 00
        E 0 80 54 00
        E 0 80 60 00
        E 300 90 54 60
        E 0 90 60 60
        E 30 80 54 00
        E 0 80 60 00
        E 270 90 48 60
        E 0 90 54 60
        E 0 90 60 60
        E 37 80 48 00
        E 0 80 54 00
        E 0 80 60 00
        E 263 90 54 60
        E 0 90 60 60
        E 30 80 54 00
        E 0 80 60 00
        E 270 90 3c 60
        E 0 90 48 60
        E 0 90 54 60
        E 0 90 60 60
        E 30 80 3c 00
        E 0 80 48 00
        E 0 80 54 00
        E 0 80 60 00
        E 270 90 54 60
        E 0 90 60 60
        E 30 80 54 00
        E 0 80 60 00
        E 270 90 3c 60
        E 0 90 48 60
        E 0 90 54 60
        E 0 90 60 60
        E 30 80 3c 00
        E 0 80 48 00
        E 0 80 54 00
        E 0 80 60 00
        E 390 90 55 60
        E 0 90 61 60
        E 510 80 55 00
        E 0 80 61 00
        E 150 90 3d 60
        E 0 90 49 60
        E 0 90 55 60
        E 0 90 61 60
        E 30 80 3d 00
        E 0 80 49 00
        E 0 80 55 00
        E 0 80 61 00
        E 270 90 55 60
        E 0 90 61 60
        E 30 80 55 00
        E 0 80 61 00
        E 270 90 4a 60
        E 0 90 56 60
        E 0 90 62 60
        E 30 80 4a 00
        E 0 80 56 00
        E 0 80 62 00
        E 300 90 54 60
        E 0 90 60 60
        E 30 80 54 00
        E 0 80 60 00
        E 359 90 3c 60
        E 0 90 48 60
        E 0 90 54 60
        E 0 90 60 60
        E 30 80 3c 00
        E 0 80 48 00
        E 0 80 54 00
        E 0 80 60 00
        E 300 90 54 60
        E 0 90 60 60
        E 30 80 54 00
        E 0 80 60 00
        E 111 90 74 60
        E 459 90 49 60
        E 0 90 55 60
        E 0 90 61 60
        E 630 80 49 00
        E 31 80 55 00
        E 0 80 61 00
        E 329 90 3d 60
        E 0 90 49 60
        E 0 90 55 60
        E 0 90 61 60
        E 780 80 3d 00
        E 0 80 49 00
        E 90 80 55 00
        E 0 80 61 00
        E 390 90 3e 60
        E 0 90 4a 60
        E 0 90 56 60
        E 0 90 62 60
        E 30 80 3e 00
        E 0 80 4a 00
        E 0 80 56 00
        E 0 80 62 00
        E 330 90 56 60
        E 0 90 62 60
        E 30 80 56 00
        E 0 80 62 00
        E 300 90 4a 60
        E 0 90 56 60
        E 0 90 62 60
        E 30 80 4a 00
        E 0 80 56 00
        E 0 80 62 00
        E 300 90 56 60
        E 0 90 62 60
        E 30 80 56 00
        E 0 80 62 00
        E 81 80 74 00
        E 215 90 3e 60
        E 0 90 4a 60
        E 0 90 56 60
        E 0 90 62 60
        E 34 80 3e 00
        E 0 80 4a 00
        E 0 80 56 00
        E 0 80 62 00
        E 570 90 4a 60
        E 0 90 56 60
        E 0 90 62 60
        E 30 80 4a 00
        E 0 80 56 00
        E 0 80 62 00
        E 891 90 3d 60
        E 0 90 49 60
        E 0 90 55 60
        E 0 90 61 60
        E 960 80 3d 00
        E 0 80 49 00
        E 0 80 55 00
        E 0 80 61 00
        E 620 90 3e 60
        E 0 90 4a 60
        E 0 90 56 60
        E 0 90 62 60
        E 20 80 3e 00
        E 0 80 4a 00
        E 0 80 56 00
        E 0 80 62 00
        E 320 90 56 60
        E 0 90 62 60
        E 20 80 56 00
        E 0 80 62 00
        E 320 90 57 60
        E 0 90 63 60
        E 21 80 57 00
        E 0 80 63 00
        E 279 90 3d 60
        E 0 90 49 60
        E 0 90 55 60
        E 0 90 61 60
        E 890 80 3d 00
        E 0 80 49 00
        E 0 80 55 00
        E 0 80 61 00
        E 670 90 3e 60
        E 0 90 4a 60
        E 0 90 56 60
        E 0 90 62 60
        E 20 80 3e 00
        E 0 80 4a 00
        E 0 80 56 00
        E 0 80 62 00
        E 320 90 57 60
        E 0 90 63 60
        E 20 80 57 00
        E 0 80 63 00
        E 320 90 4b 60
        E 0 90 57 60
        E 0 90 63 60
        E 20 80 4b 00
        E 0 80 57 00
        E 0 80 63 00
        E 320 90 57 60
        E 0 90 63 60
        E 120 80 57 00
        E 300 80 63 00
        E 60 90 4c 60
        E 0 90 58 60
        E 0 90 64 60
        E 120 80 4c 00
        E 0 80 58 00
        E 240 80 64 00
        E 60 90 57 60
        E 0 90 63 60
        E 140 80 57 00
        E 220 80 63 00
        E 20 90 3f 60
        E 0 90 4b 60
        E 0 90 57 60
        E 0 90 63 60
        E 120 80 3f 00
        E 460 80 4b 00
        E 40 80 57 00
        E 0 80 63 00
        E 320 90 3d 60
        E 0 90 49 60
        E 0 90 55 60
        E 0 90 61 60
        E 800 80 3d 00
        E 120 80 49 00
        E 40 80 55 00
        E 0 80 61 00
        E 320 90 3e 60
        E 0 90 4a 60
        E 0 90 56 60
        E 0 90 62 60
        E 1020 80 3e 00
        E 0 80 4a 00
        E 0 80 56 00
        E 0 80 62 00
        E 580 90 3d 60
        E 0 90 49 60
        E 0 90 55 60
        E 0 90 61 60
        E 960 80 3d 00
        E 0 80 49 00
        E 0 80 55 00
        E 0 80 61 00
        E 620 90 4a 60
        E 0 90 56 60
        E 0 90 62 60
        E 20 80 4a 00
        E 0 80 56 00
        E 0 80 62 00
        E 320 90 3e 60
        E 0 90 4a 60
        E 0 90 56 60
        E 0 90 62 60
        E 20 80 3e 00
        E 0 80 4a 00
        E 0 80 56 00
        E 0 80 62 00
        E 320 90 57 60
        E 0 90 63 60
        E 21 80 57 00
        E 0 80 63 00
        E 279 90 49 60
        E 0 90 55 60
        E 0 90 61 60
        E 890 80 49 00
        E 0 80 55 00
        E 0 80 61 00
        E 550 90 74 60
        E 120 90 4a 60
        E 0 90 56 60
        E 0 90 62 60
        E 20 80 4a 00
        E 0 80 56 00
        E 0 80 62 00
        E 320 90 57 60
        E 0 90 63 60
        E 20 80 57 00
        E 0 80 63 00
        E 320 90 3f 60
        E 0 90 4b 60
        E 0 90 57 60
        E 0 90 63 60
        E 20 80 3f 00
        E 0 80 4b 00
        E 0 80 57 00
        E 0 80 63 00
        E 320 90 57 60
        E 0 90 63 60
        E 120 80 57 00
        E 300 80 63 00
        E 60 90 4c 60
        E 0 90 58 60
        E 0 90 64 60
        E 120 80 4c 00
        E 0 80 58 00
        E 240 80 64 00
        E 60 90 57 60
        E 0 90 63 60
        E 140 80 57 00
        E 220 80 63 00
        E 20 90 3f 60
        E 0 90 4b 60
        E 0 90 57 60
        E 0 90 63 60
        E 580 80 3f 00
        E 0 80 4b 00
        E 40 80 57 00
        E 0 80 63 00
        E 320 90 49 60
        E 0 90 55 60
        E 0 90 61 60
        E 920 80 49 00
        E 40 80 55 00
        E 0 80 61 00
        E 320 90 3e 60
        E 0 90 4a 60
        E 0 90 56 60
        E 0 90 62 60
        E 1020 80 3e 00
        E 0 80 4a 00
        E 0 80 56 00
        E 0 80 62 00
        E 600 90 3f 60
        E 0 90 4b 60
        E 0 90 57 60
        E 0 90 63 60
        E 8760 80 3f 00
        E 0 80 4b 00
        E 0 80 57 00
        E 0 80 63 00
        E 220 80 74 00
        E 660 90 3e 60
        E 0 90 4a 60
        E 0 90 56 60
        E 0 90 62 60
        E 40 80 3e 00
        E 0 80 4a 00
        E 0 80 56 00
        E 0 80 62 00
        E 540 90 49 60
        E 0 90 55 60
        E 0 90 61 60
        E 960 80 49 00
        E 0 80 55 00
        E 0 80 61 00
        E 620 90 3e 60
        E 0 90 4a 60
        E 0 90 56 60
        E 0 90 62 60
        E 20 80 3e 00
        E 0 80 4a 00
        E 0 80 56 00
        E 0 80 62 00
        E 320 90 56 60
        E 0 90 62 60
        E 20 80 56 00
        E 0 80 62 00
        E 320 90 57 60
        E 0 90 63 60
        E 21 80 57 00
        E 0 80 63 00
        E 279 90 3d 60
        E 0 90 49 60
        E 0 90 55 60
        E 0 90 61 60
        E 890 80 3d 00
        E 0 80 49 00
        E 0 80 55 00
        E 0 80 61 00
        E 670 90 3e 60
        E 0 90 4a 60
        E 0 90 56 60
        E 0 90 62 60
        E 20 80 3e 00
        E 0 80 4a 00
        E 0 80 56 00
        E 0 80 62 00
        E 320 90 57 60
        E 0 90 63 60
        E 20 80 57 00
        E 0 80 63 00
        E 320 90 4b 60
        E 0 90 57 60
        E 0 90 63 60
        E 20 80 4b 00
        E 0 80 57 00
        E 0 80 63 00
        E 320 90 57 60
        E 0 90 63 60
        E 120 80 57 00
        E 300 80 63 00
        E 60 90 4c 60
        E 0 90 58 60
        E 0 90 64 60
        E 120 80 4c 00
        E 0 80 58 00
        E 240 80 64 00
        E 60 90 57 60
        E 0 90 63 60
        E 140 80 57 00
        E 220 80 63 00
        E 20 90 3f 60
        E 0 90 4b 60
        E 0 90 57 60
        E 0 90 63 60
        E 120 80 3f 00
        E 460 80 4b 00
        E 40 80 57 00
        E 0 80 63 00
        E 320 90 3d 60
        E 0 90 49 60
        E 0 90 55 60
        E 0 90 61 60
        E 800 80 3d 00
        E 120 80 49 00
        E 40 80 55 00
        E 0 80 61 00
        E 320 90 3e 60
        E 0 90 4a 60
        E 0 90 56 60
        E 0 90 62 60
        E 1020 80 3e 00
        E 0 80 4a 00
        E 0 80 56 00
        E 0 80 62 00
        E 620 90 3d 60
        E 0 90 49 60
        E 0 90 55 60
        E 0 90 61 60
        E 960 80 3d 00
        E 0 80 49 00
        E 0 80 55 00
        E 0 80 61 00
        E 620 90 4a 60
        E 0 90 56 60
        E 0 90 62 60
        E 20 80 4a 00
        E 0 80 56 00
        E 0 80 62 00
        E 320 90 3e 60
        E 0 90 4a 60
        E 0 90 56 60
        E 0 90 62 60
        E 20 80 3e 00
        E 0 80 4a 00
        E 0 80 56 00
        E 0 80 62 00
        E 320 90 57 60
        E 0 90 63 60
        E 21 80 57 00
        E 0 80 63 00
        E 279 90 49 60
        E 0 90 55 60
        E 0 90 61 60
        E 890 80 49 00
        E 0 80 55 00
        E 0 80 61 00
        E 670 90 4a 60
        E 0 90 56 60
        E 0 90 62 60
        E 20 80 4a 00
        E 0 80 56 00
        E 0 80 62 00
        E 320 90 57 60
        E 0 90 63 60
        E 20 80 57 00
        E 0 80 63 00
        E 320 90 3f 60
        E 0 90 4b 60
        E 0 90 57 60
        E 0 90 63 60
        E 20 80 3f 00
        E 0 80 4b 00
        E 0 80 57 00
        E 0 80 63 00
        E 320 90 57 60
        E 0 90 63 60
        E 120 80 57 00
        E 300 80 63 00
        E 60 90 4c 60
        E 0 90 58 60
        E 0 90 64 60
        E 120 80 4c 00
        E 0 80 58 00
        E 240 80 64 00
        E 60 90 57 60
        E 0 90 63 60
        E 140 80 57 00
        E 220 80 63 00
        E 20 90 3f 60
        E 0 90 4b 60
        E 0 90 57 60
        E 0 90 63 60
        E 580 80 3f 00
        E 0 80 4b 00
        E 40 80 57 00
        E 0 80 63 00
        E 320 90 49 60
        E 0 90 55 60
        E 0 90 61 60
        E 920 80 49 00
        E 40 80 55 00
        E 0 80 61 00
        E 320 90 3e 60
        E 0 90 4a 60
        E 0 90 56 60
        E 0 90 62 60
        E 1020 80 3e 00
        E 0 80 4a 00
        E 0 80 56 00
        E 0 80 62 00
        E 520 90 3d 60
        E 0 90 49 60
        E 0 90 55 60
        E 0 90 61 60
        E 960 80 3d 00
        E 0 80 49 00
        E 0 80 55 00
        E 0 80 61 00
        E 620 90 4a 60
        E 0 90 56 60
        E 0 90 62 60
        E 20 80 4a 00
        E 0 80 56 00
        E 0 80 62 00
        E 320 90 56 60
        E 0 90 62 60
        E 20 80 56 00
        E 0 80 62 00
        E 320 90 3f 60
        E 0 90 4b 60
        E 0 90 57 60
        E 0 90 63 60
        E 21 80 3f 00
        E 0 80 4b 00
        E 0 80 57 00
        E 0 80 63 00
        E 279 90 55 60
        E 0 90 61 60
        E 890 80 55 00
        E 0 80 61 00
        E 670 90 3e 60
        E 0 90 4a 60
        E 0 90 56 60
        E 0 90 62 60
        E 20 80 3e 00
        E 0 80 4a 00
        E 0 80 56 00
        E 0 80 62 00
        E 320 90 57 60
        E 0 90 63 60
        E 20 80 57 00
        E 0 80 63 00
        E 320 90 4b 60
        E 0 90 57 60
        E 0 90 63 60
        E 20 80 4b 00
        E 0 80 57 00
        E 0 80 63 00
        E 320 90 3f 60
        E 0 90 4b 60
        E 0 90 57 60
        E 0 90 63 60
        E 120 80 3f 00
        E 0 80 4b 00
        E 0 80 57 00
        E 300 80 63 00
        E 60 90 4c 60
        E 0 90 58 60
        E 0 90 64 60
        E 120 80 4c 00
        E 0 80 58 00
        E 240 80 64 00
        E 60 90 57 60
        E 0 90 63 60
        E 140 80 57 00
        E 220 80 63 00
        E 20 90 3f 60
        E 0 90 4b 60
        E 0 90 57 60
        E 0 90 63 60
        E 580 80 3f 00
        E 0 80 4b 00
        E 40 80 57 00
        E 0 80 63 00
        E 320 90 49 60
        E 0 90 55 60
        E 0 90 61 60
        E 920 80 49 00
        E 40 80 55 00
        E 0 80 61 00
        E 320 90 3e 60
        E 0 90 4a 60
        E 0 90 56 60
        E 0 90 62 60
        E 120 80 3e 00
        E 540 80 4a 00
        E 120 80 56 00
        E 240 80 62 00
        E 0 90 3c 60
        E 0 90 48 60
        E 0 90 54 60
        E 0 90 60 60
        E 120 80 3c 00
        E 0 80 48 00
        E 0 80 54 00
        E 400 80 60 00
        E 120 90 49 60
        E 0 90 55 60
        E 0 90 61 60
        E 960 80 49 00
        E 0 80 55 00
        E 0 80 61 00
        E 620 90 3e 60
        E 0 90 4a 60
        E 0 90 56 60
        E 0 90 62 60
        E 20 80 3e 00
        E 0 80 4a 00
        E 0 80 56 00
        E 0 80 62 00
        E 320 90 56 60
        E 0 90 62 60
        E 20 80 56 00
        E 0 80 62 00
        e 120 90 74 60
        E 200 90 57 60
        E 0 90 63 60
        E 21 80 57 00
        E 0 80 63 00
        E 279 90 3d 60
        E 0 90 49 60
        E 0 90 55 60
        E 0 90 61 60
        E 890 80 3d 00
        E 0 80 49 00
        E 0 80 55 00
        E 0 80 61 00
        E 670 90 56 60
        E 0 90 62 60
        E 20 80 56 00
        E 0 80 62 00
        E 320 90 3f 60
        E 0 90 4b 60
        E 0 90 57 60
        E 0 90 63 60
        E 20 80 3f 00
        E 0 80 4b 00
        E 0 80 57 00
        E 0 80 63 00
        E 320 90 57 60
        E 0 90 63 60
        E 20 80 57 00
        E 0 80 63 00
        E 320 90 4b 60
        E 0 90 57 60
        E 0 90 63 60
        E 120 80 4b 00
        E 0 80 57 00
        E 300 80 63 00
        E 60 90 40 60
        E 0 90 4c 60
        E 0 90 58 60
        E 0 90 64 60
        E 120 80 40 00
        E 0 80 4c 00
        E 0 80 58 00
        E 240 80 64 00
        E 60 90 57 60
        E 0 90 63 60
        E 140 80 57 00
        E 220 80 63 00
        E 20 90 4b 60
        E 0 90 57 60
        E 0 90 63 60
        E 460 80 4b 00
        E 160 80 57 00
        E 0 80 63 00
        E 320 90 3d 60
        E 0 90 49 60
        E 0 90 55 60
        E 0 90 61 60
        E 800 80 3d 00
        E 0 80 49 00
        E 160 80 55 00
        E 0 80 61 00
        E 320 90 3e 60
        E 0 90 4a 60
        E 0 90 56 60
        E 0 90 62 60
        E 1020 80 3e 00
        E 0 80 4a 00
        E 0 80 56 00
        E 0 80 62 00
        E 580 90 3d 60
        E 0 90 49 60
        E 0 90 55 60
        E 0 90 61 60
        E 960 80 3d 00
        E 0 80 49 00
        E 0 80 55 00
        E 0 80 61 00
        E 620 90 4a 60
        E 0 90 56 60
        E 0 90 62 60
        E 20 80 4a 00
        E 0 80 56 00
        E 0 80 62 00
        E 320 90 3e 60
        E 0 90 4a 60
        E 0 90 56 60
        E 0 90 62 60
        E 20 80 3e 00
        E 0 80 4a 00
        E 0 80 56 00
        E 0 80 62 00
        E 320 90 57 60
        E 0 90 63 60
        E 21 80 57 00
        E 0 80 63 00
        E 279 90 49 60
        E 0 90 55 60
        E 0 90 61 60
        E 890 80 49 00
        E 0 80 55 00
        E 0 80 61 00
        E 670 90 4a 60
        E 0 90 56 60
        E 0 90 62 60
        E 20 80 4a 00
        E 0 80 56 00
        E 0 80 62 00
        E 320 90 57 60
        E 0 90 63 60
        E 20 80 57 00
        E 0 80 63 00
        E 320 90 3f 60
        E 0 90 4b 60
        E 0 90 57 60
        E 0 90 63 60
        E 20 80 3f 00
        E 0 80 4b 00
        E 0 80 57 00
        E 0 80 63 00
        E 320 90 57 60
        E 0 90 63 60
        E 120 80 57 00
        E 300 80 63 00
        E 60 90 4c 60
        E 0 90 58 60
        E 0 90 64 60
        E 120 80 4c 00
        E 0 80 58 00
        E 240 80 64 00
        E 60 90 57 60
        E 0 90 63 60
        E 140 80 57 00
        E 220 80 63 00
        E 20 90 3f 60
        E 0 90 4b 60
        E 0 90 57 60
        E 0 90 63 60
        E 580 80 3f 00
        E 0 80 4b 00
        E 40 80 57 00
        E 0 80 63 00
        E 320 90 49 60
        E 0 90 55 60
        E 0 90 61 60
        E 920 80 49 00
        E 40 80 55 00
        E 0 80 61 00
        E 320 90 3e 60
        E 0 90 4a 60
        E 0 90 56 60
        E 0 90 62 60
        e 820 80 74 00
        E 200 80 3e 00
        E 0 80 4a 00
        E 0 80 56 00
        E 0 80 62 00
        E 560 90 3d 60
        E 0 90 49 60
        E 0 90 55 60
        E 0 90 61 60
        E 960 80 3d 00
        E 0 80 49 00
        E 0 80 55 00
        E 0 80 61 00
        E 620 90 4a 60
        E 0 90 56 60
        E 0 90 62 60
        E 20 80 4a 00
        E 0 80 56 00
        E 0 80 62 00
        E 320 90 56 60
        E 0 90 62 60
        E 20 80 56 00
        E 0 80 62 00
        E 320 90 3f 60
        E 0 90 4b 60
        E 0 90 57 60
        E 0 90 63 60
        E 21 80 3f 00
        E 0 80 4b 00
        E 0 80 57 00
        E 0 80 63 00
        E 279 90 55 60
        E 0 90 61 60
        E 890 80 55 00
        E 0 80 61 00
        E 670 90 3e 60
        E 0 90 4a 60
        E 0 90 56 60
        E 0 90 62 60
        E 20 80 3e 00
        E 0 80 4a 00
        E 0 80 56 00
        E 0 80 62 00
        E 320 90 57 60
        E 0 90 63 60
        E 20 80 57 00
        E 0 80 63 00
        E 320 90 4b 60
        E 0 90 57 60
        E 0 90 63 60
        E 20 80 4b 00
        E 0 80 57 00
        E 0 80 63 00
        E 320 90 3f 60
        E 0 90 4b 60
        E 0 90 57 60
        E 0 90 63 60
        E 120 80 3f 00
        E 0 80 4b 00
        E 0 80 57 00
        E 300 80 63 00
        E 60 90 4c 60
        E 0 90 58 60
        E 0 90 64 60
        E 120 80 4c 00
        E 0 80 58 00
        E 240 80 64 00
        E 60 90 57 60
        E 0 90 63 60
        E 140 80 57 00
        E 220 80 63 00
        E 20 90 3f 60
        E 0 90 4b 60
        E 0 90 57 60
        E 0 90 63 60
        E 580 80 3f 00
        E 0 80 4b 00
        E 40 80 57 00
        E 0 80 63 00
        E 320 90 49 60
        E 0 90 55 60
        E 0 90 61 60
        E 920 80 49 00
        E 40 80 55 00
        E 0 80 61 00
        E 320 90 3e 60
        E 0 90 4a 60
        E 0 90 56 60
        E 0 90 62 60
        E 1020 80 3e 00
        E 0 80 4a 00
        E 0 80 56 00
        E 0 80 62 00
        E 560 90 3d 60
        E 0 90 49 60
        E 0 90 55 60
        E 0 90 61 60
        E 960 80 3d 00
        E 0 80 49 00
        E 0 80 55 00
        E 0 80 61 00
        E 620 90 3e 60
        E 0 90 4a 60
        E 0 90 56 60
        E 0 90 62 60
        E 20 80 3e 00
        E 0 80 4a 00
        E 0 80 56 00
        E 0 80 62 00
        E 320 90 56 60
        E 0 90 62 60
        E 20 80 56 00
        E 0 80 62 00
        E 320 90 57 60
        E 0 90 63 60
        E 21 80 57 00
        E 0 80 63 00
        E 279 90 3d 60
        E 0 90 49 60
        E 0 90 55 60
        E 0 90 61 60
        E 890 80 3d 00
        E 0 80 49 00
        E 0 80 55 00
        E 0 80 61 00
        E 670 90 3e 60
        E 0 90 4a 60
        E 0 90 56 60
        E 0 90 62 60
        E 20 80 3e 00
        E 0 80 4a 00
        E 0 80 56 00
        E 0 80 62 00
        E 320 90 57 60
        E 0 90 63 60
        E 20 80 57 00
        E 0 80 63 00
        E 320 90 4b 60
        E 0 90 57 60
        E 0 90 63 60
        E 20 80 4b 00
        E 0 80 57 00
        E 0 80 63 00
        E 320 90 57 60
        E 0 90 63 60
        E 120 80 57 00
        E 300 80 63 00
        E 60 90 4c 60
        E 0 90 58 60
        E 0 90 64 60
        E 120 80 4c 00
        E 0 80 58 00
        E 240 80 64 00
        E 60 90 57 60
        E 0 90 63 60
        E 140 80 57 00
        E 220 80 63 00
        E 20 90 3f 60
        E 0 90 4b 60
        E 0 90 57 60
        E 0 90 63 60
        E 120 80 3f 00
        E 460 80 4b 00
        E 40 80 57 00
        E 0 80 63 00
        E 320 90 3d 60
        E 0 90 49 60
        E 0 90 55 60
        E 0 90 61 60
        E 800 80 3d 00
        E 120 80 49 00
        E 40 80 55 00
        E 0 80 61 00
        E 320 90 3e 60
        E 0 90 4a 60
        E 0 90 56 60
        E 0 90 62 60
        E 1020 80 3e 00
        E 0 80 4a 00
        E 0 80 56 00
        E 0 80 62 00
        E 620 90 3d 60
        E 0 90 49 60
        E 0 90 55 60
        E 0 90 61 60
        E 960 80 3d 00
        E 0 80 49 00
        E 0 80 55 00
        E 0 80 61 00
        E 620 90 4a 60
        E 0 90 56 60
        E 0 90 62 60
        E 20 80 4a 00
        E 0 80 56 00
        E 0 80 62 00
        E 320 90 3e 60
        E 0 90 4a 60
        E 0 90 56 60
        E 0 90 62 60
        E 20 80 3e 00
        E 0 80 4a 00
        E 0 80 56 00
        E 0 80 62 00
        E 320 90 57 60
        E 0 90 63 60
        E 21 80 57 00
        E 0 80 63 00
        E 279 90 49 60
        E 0 90 55 60
        E 0 90 61 60
        E 890 80 49 00
        E 0 80 55 00
        E 0 80 61 00
        E 670 90 4a 60
        E 0 90 56 60
        E 0 90 62 60
        E 20 80 4a 00
        E 0 80 56 00
        E 0 80 62 00
        E 320 90 57 60
        E 0 90 63 60
        E 20 80 57 00
        E 0 80 63 00
        E 320 90 3f 60
        E 0 90 4b 60
        E 0 90 57 60
        E 0 90 63 60
        E 20 80 3f 00
        E 0 80 4b 00
        E 0 80 57 00
        E 0 80 63 00
        E 320 90 57 60
        E 0 90 63 60
        E 120 80 57 00
        E 300 80 63 00
        E 60 90 4c 60
        E 0 90 58 60
        E 0 90 64 60
        E 120 80 4c 00
        E 0 80 58 00
        E 240 80 64 00
        E 60 90 57 60
        E 0 90 63 60
        E 120 80 57 00
        E 240 80 63 00
        E 20 90 3f 60
        E 0 90 4b 60
        E 0 90 57 60
        E 0 90 63 60
        E 460 80 3f 00
        E 0 80 4b 00
        E 160 80 57 00
        E 0 80 63 00
        E 320 90 49 60
        E 0 90 55 60
        E 0 90 61 60
        E 800 80 49 00
        E 160 80 55 00
        E 0 80 61 00
        E 320 90 3e 60
        E 0 90 4a 60
        E 0 90 56 60
        E 0 90 62 60
        E 1020 80 3e 00
        E 0 80 4a 00
        E 0 80 56 00
        E 0 80 62 00
        E 540 90 3d 60
        E 0 90 49 60
        E 0 90 55 60
        E 0 90 61 60
        E 960 80 3d 00
        E 0 80 49 00
        E 0 80 55 00
        E 0 80 61 00
        E 620 90 4a 60
        E 0 90 56 60
        E 0 90 62 60
        E 20 80 4a 00
        E 0 80 56 00
        E 0 80 62 00
        E 320 90 56 60
        E 0 90 62 60
        E 20 80 56 00
        E 0 80 62 00
        E 320 90 3f 60
        E 0 90 4b 60
        E 0 90 57 60
        E 0 90 63 60
        E 21 80 3f 00
        E 0 80 4b 00
        E 0 80 57 00
        E 0 80 63 00
        E 279 90 55 60
        E 0 90 61 60
        E 890 80 55 00
        E 0 80 61 00
        E 670 90 3e 60
        E 0 90 4a 60
        E 0 90 56 60
        E 0 90 62 60
        E 20 80 3e 00
        E 0 80 4a 00
        E 0 80 56 00
        E 0 80 62 00
        E 320 90 57 60
        E 0 90 63 60
        E 20 80 57 00
        E 0 80 63 00
        E 320 90 4b 60
        E 0 90 57 60
        E 0 90 63 60
        E 20 80 4b 00
        E 0 80 57 00
        E 0 80 63 00
        E 320 90 3f 60
        E 0 90 4b 60
        E 0 90 57 60
        E 0 90 63 60
        E 120 80 3f 00
        E 0 80 4b 00
        E 0 80 57 00
        E 300 80 63 00
        E 60 90 4c 60
        E 0 90 58 60
        E 0 90 64 60
        E 120 80 4c 00
        E 0 80 58 00
        E 240 80 64 00
        E 60 90 57 60
        E 0 90 63 60
        E 120 80 57 00
        E 240 80 63 00
        <X 480 0
          /wFbaWRsZV9yZWFsdGltZV0=
        >
        E 366 b0 7b 00
        GUID {54A57D35-811F-42A6-AB75-F5706122F903}
        IGNTEMPO 0 120.00000000 4 4
        SRCCOLOR 402
        VELLANE 132 128 60
        COLORMAP "C:\Users\wejaa\AppData\Roaming\REAPER\Data\color_maps\rockband_guitarbass.png"
        TEXTSTRINGFILE "Text Events List.txt"
        CFGEDITVIEW 90161.114252 264.019833 6 12 0 0 0
        CFGEDIT 1 1 0 0 0 1 1 1 1 1 1 0.04166667 -8 -8 1370 736 1 2 1 2 0.00000000 0 0 0 0 0.500000 1 0 1.000000 64
        KEYSNAP 0 0 "102034050607" 0 "Major"
        EVTFILTER 0 -1 -1 -1 -1 0 1 0 0 -1.00000000 -1.00000000
      >
    >
  >
  <TRACK '{6B7F9B4B-FF4E-4CE6-9E2D-4C9BD5DAED77}'
    NAME "PART GUITAR"
    PEAKCOL 33488896
    BEAT -1
    AUTOMODE 0
    VOLPAN 1.00000000000000 0.41600000000000 -1.00000000000000 -1.00000000000000 1.00000000000000
    MUTESOLO 0 0 0
    IPHASE 0
    ISBUS 0 0
    BUSCOMP 1 0
    SHOWINMIX 1 0.666700 0.500000 1 0.500000 -1 -1 -1
    FREEMODE 0
    SEL 0
    REC 0 4096 1 7 0 0 0
    TRACKHEIGHT 0 0
    INQ 0 0 0 0.5000000000 100 0 0 100
    NCHAN 2
    FX 1
    TRACKID {6B7F9B4B-FF4E-4CE6-9E2D-4C9BD5DAED77}
    PERF 0
    MIDIOUT -1
    <MIDINOTENAMES
      0 116 "OVERDRIVE"
      0 102 "Force HOPO Off"
      0 101 "Force HOPO On"
      0 100 "EXPERT Orange"
      0 99 "EXPERT Blue"
      0 98 "EXPERT Yellow"
      0 97 "EXPERT Red"
      0 96 "EXPERT Green"
      0 88 "HARD Orange"
      0 87 "HARD Blue"
      0 86 "HARD Yellow"
      0 85 "HARD Red"
      0 84 "HARD Green"
      0 76 "MEDIUM Orange"
      0 75 "MEDIUM Blue"
      0 74 "MEDIUM Yellow"
      0 73 "MEDIUM Red"
      0 72 "MEDIUM Green"
      0 64 "EASY Orange"
      0 63 "EASY Blue"
      0 62 "EASY Yellow"
      0 61 "EASY Red"
      0 60 "EASY Green"
      0 59 "Left Hand Highest"
      0 40 "Left Hand Lowest"
      0 58 "-"
      0 57 "-"
      0 56 "-"
      0 55 "-"
      0 54 "-"
      0 53 "-"
      0 52 "-"
      0 51 "-"
      0 50 "-"
      0 49 "-"
      0 48 "-"
      0 47 "-"
      0 46 "-"
      0 45 "-"
      0 44 "-"
      0 43 "-"
      0 42 "-"
      0 41 "-"
      0 115 "----"
      0 95 "----"
      0 89 "Force HOPO On"
      0 77 "----"
      0 65 "----"
      0 119 "----"
      0 120 "BRE (use all 5)"
      0 121 "BRE"
      0 122 "BRE"
      0 123 "BRE"
      0 124 "BRE"
      0 90 "Force HOPO Off"
      0 103 "Solo Marker"
      0 127 "Trill Marker"
      0 125 "----"
      0 126 "Strum Marker"
    >
    MAINSEND 1 0
    <FXCHAIN
      WNDRECT -926 921 878 585
      SHOW 0
      LASTSEL 1
      DOCKED 0
      BYPASS 1 0
      <VST "VSTi: ReaSynth (Cockos)" "reasynth.dll" 0 ""
        eXNlcu9e7f4AAAAAAgAAAAEAAAAAAAAAAgAAAAAAAAA4AAAAAAAAAA==
        AAAAAO++rd4N8K3eAAAAAAAAAAAAAAAAAAAAADm0SD59y9s+tbSxOQ==
        AAAAALbz/T5VpCs6AAAAAAAAAAAAAAAAAAA=
      >
      FLOATPOS 0 0 0 0
      FXID {52B28C73-185B-48E4-B8F4-1FD7A8848B0F}
      WAK 0
      BYPASS 0 0
      <VST "VSTi: RBN Preview (RBN)" "rbprev_vst64_beta.dll" 0 ""
        dnBicu5e7f4AAAAAAgAAAAEAAAAAAAAAAgAAAAAAAAAEAAAAAQAAAA==
        AAAAAAMAqgAAAAAAAAA=
      >
      FLOATPOS 32 32 659 497
      FXID {190BBB08-7A86-476B-BD07-5F71F5CD6F7C}
      WAK 0
    >
    <ITEM
      POSITION 0.00000000000000
      SNAPOFFS 0.00000000000000
      LENGTH 252.99027879686230
      LOOP 0
      ALLTAKES 0
      SEL 0
      FADEIN 1 0.000000 0.000000 1 0
      FADEOUT 1 0.000000 0.000000 1 0
      MUTE 0
      IGUID {81210F06-DA35-41E7-BA75-C6E1C5689733}
      IID 9
      NAME "PART GUITAR"
      VOLPAN 1.000000 0.000000 1.000000 -1.000000
      SOFFS 0.00000000000000 0.00000000000000
      PLAYRATE 1.00000000000000 1 0.00000000000000 -65536
      CHANMODE 0
      GUID {61757875-B3D4-49E4-8483-EE351B7D2386}
      <SOURCE MIDI
        HASDATA 1 480 QN
        POOLEDEVTS {81A11BB8-1C39-492F-9E7E-2F9410B82F7B}
        <X 0 0
          /wNQQVJUIEdVSVRBUg==
        >
        <X 3840 0
          /wFbbWVsbG93XQ==
        >
        E 0 90 3e 60
        E 0 90 49 60
        E 0 90 4b 60
        E 0 90 55 60
        E 0 90 57 60
        E 0 90 61 60
        E 0 90 62 60
        E 0 90 63 60
        E 20 80 3e 00
        E 0 80 49 00
        E 0 80 4b 00
        E 0 80 55 00
        E 0 80 57 00
        E 0 80 61 00
        E 0 80 62 00
        E 0 80 63 00
        E 320 90 56 60
        E 0 90 58 60
        E 0 90 61 60
        E 0 90 63 60
        E 0 90 64 60
        E 20 80 56 00
        E 0 80 58 00
        E 0 80 61 00
        E 0 80 63 00
        E 0 80 64 00
        E 320 90 57 60
        E 0 90 58 60
        E 0 90 63 60
        E 0 90 64 60
        E 20 80 57 00
        E 0 80 58 00
        E 0 80 63 00
        E 0 80 64 00
        E 280 90 3e 60
        E 0 90 49 60
        E 0 90 4a 60
        E 0 90 55 60
        E 0 90 56 60
        E 0 90 61 60
        E 0 90 62 60
        E 20 80 3e 00
        E 0 80 49 00
        E 0 80 4a 00
        E 0 80 55 00
        E 0 80 56 00
        E 0 80 61 00
        E 0 80 62 00
        E 300 90 55 60
        E 0 90 57 60
        E 0 90 61 60
        E 0 90 62 60
        E 0 90 63 60
        E 20 80 55 00
        E 0 80 57 00
        E 0 80 61 00
        E 0 80 62 00
        E 0 80 63 00
        E 300 90 49 60
        E 0 90 4a 60
        E 0 90 55 60
        E 0 90 56 60
        E 0 90 61 60
        E 0 90 62 60
        E 20 80 49 00
        E 0 80 4a 00
        E 0 80 55 00
        E 0 80 56 00
        E 0 80 61 00
        E 0 80 62 00
        E 320 90 57 60
        E 0 90 58 60
        E 0 90 63 60
        E 0 90 64 60
        E 20 80 57 00
        E 0 80 58 00
        E 0 80 63 00
        E 0 80 64 00
        E 280 90 3e 60
        E 0 90 49 60
        E 0 90 4b 60
        E 0 90 55 60
        E 0 90 57 60
        E 0 90 61 60
        E 0 90 62 60
        E 0 90 63 60
        E 20 80 3e 00
        E 0 80 49 00
        E 0 80 4b 00
        E 0 80 55 00
        E 0 80 57 00
        E 0 80 61 00
        E 0 80 62 00
        E 0 80 63 00
        E 300 90 55 60
        E 0 90 57 60
        E 0 90 61 60
        E 0 90 62 60
        E 0 90 63 60
        E 20 80 55 00
        E 0 80 57 00
        E 0 80 61 00
        E 0 80 62 00
        E 0 80 63 00
        E 320 90 4b 60
        E 0 90 4c 60
        E 0 90 57 60
        E 0 90 58 60
        E 0 90 63 60
        E 0 90 64 60
        E 20 80 4b 00
        E 0 80 4c 00
        E 0 80 57 00
        E 0 80 58 00
        E 0 80 63 00
        E 0 80 64 00
        E 320 90 55 60
        E 0 90 57 60
        E 0 90 61 60
        E 0 90 62 60
        E 0 90 63 60
        E 20 80 55 00
        E 0 80 57 00
        E 0 80 61 00
        E 0 80 62 00
        E 0 80 63 00
        E 280 90 3e 60
        E 0 90 4a 60
        E 0 90 4b 60
        E 0 90 56 60
        E 0 90 58 60
        E 0 90 61 60
        E 0 90 63 60
        E 0 90 64 60
        E 20 80 3e 00
        E 0 80 4a 00
        E 0 80 4b 00
        E 0 80 56 00
        E 0 80 58 00
        E 0 80 61 00
        E 0 80 63 00
        E 0 80 64 00
        E 220 90 57 60
        E 0 90 58 60
        E 0 90 63 60
        E 0 90 64 60
        E 500 80 57 00
        E 0 80 58 00
        E 20 80 63 00
        E 0 80 64 00
        E 100 90 4b 60
        E 0 90 4c 60
        E 0 90 57 60
        E 0 90 58 60
        E 0 90 63 60
        E 0 90 64 60
        E 120 80 4b 00
        E 0 80 4c 00
        E 400 80 57 00
        E 0 80 58 00
        E 0 80 63 00
        E 0 80 64 00
        E 140 90 3e 60
        E 0 90 49 60
        E 0 90 4b 60
        E 0 90 55 60
        E 0 90 57 60
        E 0 90 61 60
        E 0 90 62 60
        E 0 90 63 60
        E 20 80 3e 00
        E 0 80 49 00
        E 0 80 4b 00
        E 0 80 55 00
        E 0 80 57 00
        E 0 80 61 00
        E 0 80 62 00
        E 0 80 63 00
        E 300 90 56 60
        E 0 90 58 60
        E 0 90 61 60
        E 0 90 63 60
        E 0 90 64 60
        E 20 80 56 00
        E 0 80 58 00
        E 0 80 61 00
        E 0 80 63 00
        E 0 80 64 00
        E 300 90 4b 60
        E 0 90 4c 60
        E 0 90 57 60
        E 0 90 58 60
        E 0 90 63 60
        E 0 90 64 60
        E 20 80 4b 00
        E 0 80 4c 00
        E 0 80 57 00
        E 0 80 58 00
        E 0 80 63 00
        E 0 80 64 00
        E 220 90 55 60
        E 0 90 56 60
        E 0 90 61 60
        E 0 90 62 60
        E 20 80 55 00
        E 0 80 56 00
        E 0 80 61 00
        E 0 80 62 00
        E 260 90 3e 60
        E 0 90 49 60
        E 0 90 4b 60
        E 0 90 55 60
        E 0 90 57 60
        E 0 90 61 60
        E 0 90 62 60
        E 0 90 63 60
        E 20 80 3e 00
        E 0 80 49 00
        E 0 80 4b 00
        E 0 80 55 00
        E 0 80 57 00
        E 0 80 61 00
        E 0 80 62 00
        E 0 80 63 00
        E 280 90 55 60
        E 0 90 56 60
        E 0 90 61 60
        E 0 90 62 60
        E 20 80 55 00
        E 0 80 56 00
        E 0 80 61 00
        E 0 80 62 00
        E 280 90 4b 60
        E 0 90 4c 60
        E 0 90 57 60
        E 0 90 58 60
        E 0 90 63 60
        E 0 90 64 60
        E 20 80 4b 00
        E 0 80 4c 00
        E 0 80 57 00
        E 0 80 58 00
        E 0 80 63 00
        E 0 80 64 00
        E 280 90 55 60
        E 0 90 57 60
        E 0 90 61 60
        E 0 90 62 60
        E 0 90 63 60
        E 20 80 55 00
        E 0 80 57 00
        E 0 80 61 00
        E 0 80 62 00
        E 0 80 63 00
        E 260 90 55 60
        E 0 90 57 60
        E 0 90 61 60
        E 0 90 62 60
        E 0 90 63 60
        E 20 80 55 00
        E 0 80 57 00
        E 0 80 61 00
        E 0 80 62 00
        E 0 80 63 00
        E 260 90 3e 60
        E 0 90 4b 60
        E 0 90 4c 60
        E 0 90 57 60
        E 0 90 58 60
        E 0 90 63 60
        E 0 90 64 60
        E 20 80 3e 00
        E 0 80 4b 00
        E 0 80 4c 00
        E 0 80 57 00
        E 0 80 58 00
        E 0 80 63 00
        E 0 80 64 00
        E 260 90 55 60
        E 0 90 57 60
        E 0 90 61 60
        E 0 90 62 60
        E 0 90 63 60
        E 20 80 55 00
        E 0 80 57 00
        E 0 80 61 00
        E 0 80 62 00
        E 0 80 63 00
        E 260 90 4a 60
        E 0 90 4b 60
        E 0 90 56 60
        E 0 90 58 60
        E 0 90 61 60
        E 0 90 63 60
        E 0 90 64 60
        E 20 80 4a 00
        E 0 80 4b 00
        E 0 80 56 00
        E 0 80 58 00
        E 0 80 61 00
        E 0 80 63 00
        E 0 80 64 00
        E 260 90 57 60
        E 0 90 58 60
        E 0 90 63 60
        E 0 90 64 60
        E 420 80 57 00
        E 0 80 58 00
        E 80 80 63 00
        E 0 80 64 00
        E 40 90 4b 60
        E 0 90 4c 60
        E 0 90 57 60
        E 0 90 58 60
        E 0 90 63 60
        E 0 90 64 60
        E 120 80 4b 00
        E 0 80 4c 00
        E 300 80 57 00
        E 0 80 58 00
        E 100 80 63 00
        E 0 80 64 00
        E 20 90 3e 60
        E 0 90 49 60
        E 0 90 4b 60
        E 0 90 55 60
        E 0 90 57 60
        E 0 90 61 60
        E 0 90 62 60
        E 0 90 63 60
        E 20 80 3e 00
        E 0 80 49 00
        E 0 80 4b 00
        E 0 80 55 00
        E 0 80 57 00
        E 0 80 61 00
        E 0 80 62 00
        E 0 80 63 00
        E 300 90 56 60
        E 0 90 58 60
        E 0 90 61 60
        E 0 90 63 60
        E 0 90 64 60
        E 20 80 56 00
        E 0 80 58 00
        E 0 80 61 00
        E 0 80 63 00
        E 0 80 64 00
        E 240 90 4b 60
        E 0 90 4c 60
        E 0 90 57 60
        E 0 90 58 60
        E 0 90 63 60
        E 0 90 64 60
        E 20 80 4b 00
        E 0 80 4c 00
        E 0 80 57 00
        E 0 80 58 00
        E 0 80 63 00
        E 0 80 64 00
        E 240 90 55 60
        E 0 90 56 60
        E 0 90 61 60
        E 0 90 62 60
        E 20 80 55 00
        E 0 80 56 00
        E 0 80 61 00
        E 0 80 62 00
        E 260 90 3e 60
        E 0 90 49 60
        E 0 90 4b 60
        E 0 90 55 60
        E 0 90 57 60
        E 0 90 61 60
        E 0 90 62 60
        E 0 90 63 60
        E 20 80 3e 00
        E 0 80 49 00
        E 0 80 4b 00
        E 0 80 55 00
        E 0 80 57 00
        E 0 80 61 00
        E 0 80 62 00
        E 0 80 63 00
        E 240 90 55 60
        E 0 90 56 60
        E 0 90 61 60
        E 0 90 62 60
        E 20 80 55 00
        E 0 80 56 00
        E 0 80 61 00
        E 0 80 62 00
        E 240 90 57 60
        E 0 90 58 60
        E 0 90 63 60
        E 0 90 64 60
        E 20 80 57 00
        E 0 80 58 00
        E 0 80 63 00
        E 0 80 64 00
        E 240 90 3e 60
        E 0 90 49 60
        E 0 90 4b 60
        E 0 90 55 60
        E 0 90 57 60
        E 0 90 61 60
        E 0 90 62 60
        E 0 90 63 60
        E 20 80 3e 00
        E 0 80 49 00
        E 0 80 4b 00
        E 0 80 55 00
        E 0 80 57 00
        E 0 80 61 00
        E 0 80 62 00
        E 0 80 63 00
        E 240 90 49 60
        E 0 90 4b 60
        E 0 90 55 60
        E 0 90 57 60
        E 0 90 61 60
        E 0 90 62 60
        E 0 90 63 60
        E 20 80 49 00
        E 0 80 4b 00
        E 0 80 55 00
        E 0 80 57 00
        E 0 80 61 00
        E 0 80 62 00
        E 0 80 63 00
        E 240 90 57 60
        E 0 90 58 60
        E 0 90 63 60
        E 0 90 64 60
        E 20 80 57 00
        E 0 80 58 00
        E 0 80 63 00
        E 0 80 64 00
        E 240 90 49 60
        E 0 90 4b 60
        E 0 90 55 60
        E 0 90 57 60
        E 0 90 61 60
        E 0 90 62 60
        E 0 90 63 60
        E 20 80 49 00
        E 0 80 4b 00
        E 0 80 55 00
        E 0 80 57 00
        E 0 80 61 00
        E 0 80 62 00
        E 0 80 63 00
        E 240 90 56 60
        E 0 90 58 60
        E 0 90 61 60
        E 0 90 63 60
        E 0 90 64 60
        E 20 80 56 00
        E 0 80 58 00
        E 0 80 61 00
        E 0 80 63 00
        E 0 80 64 00
        E 240 90 3e 60
        E 0 90 4b 60
        E 0 90 4c 60
        E 0 90 57 60
        E 0 90 58 60
        E 0 90 63 60
        E 0 90 64 60
        E 120 80 3e 00
        E 0 80 4b 00
        E 0 80 4c 00
        E 320 80 57 00
        E 0 80 58 00
        E 80 80 63 00
        E 0 80 64 00
        E 40 90 4b 60
        E 0 90 4c 60
        E 0 90 57 60
        E 0 90 58 60
        E 0 90 63 60
        E 0 90 64 60
        E 120 80 4b 00
        E 0 80 4c 00
        E 240 80 57 00
        E 0 80 58 00
        E 40 80 63 00
        E 0 80 64 00
        E 0 90 74 60
        E 80 90 49 60
        E 0 90 4b 60
        E 0 90 55 60
        E 0 90 57 60
        E 0 90 61 60
        E 0 90 62 60
        E 0 90 63 60
        E 20 80 49 00
        E 0 80 4b 00
        E 0 80 55 00
        E 0 80 57 00
        E 0 80 61 00
        E 0 80 62 00
        E 0 80 63 00
        E 260 90 56 60
        E 0 90 58 60
        E 0 90 61 60
        E 0 90 63 60
        E 0 90 64 60
        E 20 80 56 00
        E 0 80 58 00
        E 0 80 61 00
        E 0 80 63 00
        E 0 80 64 00
        E 220 90 3e 60
        E 0 90 4b 60
        E 0 90 4c 60
        E 0 90 57 60
        E 0 90 58 60
        E 0 90 63 60
        E 0 90 64 60
        E 20 80 3e 00
        E 0 80 4b 00
        E 0 80 4c 00
        E 0 80 57 00
        E 0 80 58 00
        E 0 80 63 00
        E 0 80 64 00
        E 220 90 55 60
        E 0 90 56 60
        E 0 90 61 60
        E 0 90 62 60
        E 20 80 55 00
        E 0 80 56 00
        E 0 80 61 00
        E 0 80 62 00
        E 240 90 49 60
        E 0 90 4b 60
        E 0 90 55 60
        E 0 90 57 60
        E 0 90 61 60
        E 0 90 62 60
        E 0 90 63 60
        E 20 80 49 00
        E 0 80 4b 00
        E 0 80 55 00
        E 0 80 57 00
        E 0 80 61 00
        E 0 80 62 00
        E 0 80 63 00
        E 220 90 55 60
        E 0 90 56 60
        E 0 90 61 60
        E 0 90 62 60
        E 20 80 55 00
        E 0 80 56 00
        E 0 80 61 00
        E 0 80 62 00
        E 220 90 3e 60
        E 0 90 4b 60
        E 0 90 4c 60
        E 0 90 57 60
        E 0 90 58 60
        E 0 90 63 60
        E 0 90 64 60
        E 20 80 3e 00
        E 0 80 4b 00
        E 0 80 4c 00
        E 0 80 57 00
        E 0 80 58 00
        E 0 80 63 00
        E 0 80 64 00
        E 240 90 55 60
        E 0 90 57 60
        E 0 90 61 60
        E 0 90 62 60
        E 0 90 63 60
        E 20 80 55 00
        E 0 80 57 00
        E 0 80 61 00
        E 0 80 62 00
        E 0 80 63 00
        E 240 90 49 60
        E 0 90 4b 60
        E 0 90 55 60
        E 0 90 57 60
        E 0 90 61 60
        E 0 90 62 60
        E 0 90 63 60
        E 20 80 49 00
        E 0 80 4b 00
        E 0 80 55 00
        E 0 80 57 00
        E 0 80 61 00
        E 0 80 62 00
        E 0 80 63 00
        E 240 90 57 60
        E 0 90 58 60
        E 0 90 63 60
        E 0 90 64 60
        E 20 80 57 00
        E 0 80 58 00
        E 0 80 63 00
        E 0 80 64 00
        E 260 90 3e 60
        E 0 90 49 60
        E 0 90 4b 60
        E 0 90 55 60
        E 0 90 57 60
        E 0 90 61 60
        E 0 90 62 60
        E 0 90 63 60
        E 20 80 3e 00
        E 0 80 49 00
        E 0 80 4b 00
        E 0 80 55 00
        E 0 80 57 00
        E 0 80 61 00
        E 0 80 62 00
        E 0 80 63 00
        E 420 90 56 60
        E 0 90 58 60
        E 0 90 61 60
        E 0 90 63 60
        E 0 90 64 60
        E 20 80 56 00
        E 0 80 58 00
        E 0 80 61 00
        E 0 80 63 00
        E 0 80 64 00
        E 360 90 4b 60
        E 0 90 4c 60
        E 0 90 57 60
        E 0 90 58 60
        E 0 90 63 60
        E 0 90 64 60
        E 120 80 4b 00
        E 0 80 4c 00
        E 0 80 57 00
        E 0 80 58 00
        E 400 80 63 00
        E 0 80 64 00
        E 60 90 3e 60
        E 0 90 4b 60
        E 0 90 4c 60
        E 0 90 57 60
        E 0 90 58 60
        E 0 90 63 60
        E 0 90 64 60
        E 120 80 3e 00
        E 0 80 4b 00
        E 0 80 4c 00
        E 0 80 57 00
        E 0 80 58 00
        E 380 80 63 00
        E 0 80 64 00
        E 80 80 74 00
        E 120 90 49 60
        E 0 90 4b 60
        E 0 90 55 60
        E 0 90 57 60
        E 0 90 61 60
        E 0 90 62 60
        E 0 90 63 60
        E 20 80 49 00
        E 0 80 4b 00
        E 0 80 55 00
        E 0 80 57 00
        E 0 80 61 00
        E 0 80 62 00
        E 0 80 63 00
        E 320 90 56 60
        E 0 90 58 60
        E 0 90 61 60
        E 0 90 63 60
        E 0 90 64 60
        E 20 80 56 00
        E 0 80 58 00
        E 0 80 61 00
        E 0 80 63 00
        E 0 80 64 00
        E 320 90 3e 60
        E 0 90 4b 60
        E 0 90 4c 60
        E 0 90 57 60
        E 0 90 58 60
        E 0 90 63 60
        E 0 90 64 60
        E 20 80 3e 00
        E 0 80 4b 00
        E 0 80 4c 00
        E 0 80 57 00
        E 0 80 58 00
        E 0 80 63 00
        E 0 80 64 00
        E 280 90 55 60
        E 0 90 56 60
        E 0 90 61 60
        E 0 90 62 60
        E 20 80 55 00
        E 0 80 56 00
        E 0 80 61 00
        E 0 80 62 00
        E 300 90 55 60
        E 0 90 57 60
        E 0 90 61 60
        E 0 90 62 60
        E 0 90 63 60
        E 20 80 55 00
        E 0 80 57 00
        E 0 80 61 00
        E 0 80 62 00
        E 0 80 63 00
        E 300 90 3e 60
        E 0 90 49 60
        E 0 90 4a 60
        E 0 90 55 60
        E 0 90 56 60
        E 0 90 61 60
        E 0 90 62 60
        E 20 80 3e 00
        E 0 80 49 00
        E 0 80 4a 00
        E 0 80 55 00
        E 0 80 56 00
        E 0 80 61 00
        E 0 80 62 00
        E 320 90 57 60
        E 0 90 58 60
        E 0 90 63 60
        E 0 90 64 60
        E 20 80 57 00
        E 0 80 58 00
        E 0 80 63 00
        E 0 80 64 00
        E 280 90 49 60
        E 0 90 4b 60
        E 0 90 55 60
        E 0 90 57 60
        E 0 90 61 60
        E 0 90 62 60
        E 0 90 63 60
        E 20 80 49 00
        E 0 80 4b 00
        E 0 80 55 00
        E 0 80 57 00
        E 0 80 61 00
        E 0 80 62 00
        E 0 80 63 00
        E 300 90 3e 60
        E 0 90 49 60
        E 0 90 4b 60
        E 0 90 55 60
        E 0 90 57 60
        E 0 90 61 60
        E 0 90 62 60
        E 0 90 63 60
        E 20 80 3e 00
        E 0 80 49 00
        E 0 80 4b 00
        E 0 80 55 00
        E 0 80 57 00
        E 0 80 61 00
        E 0 80 62 00
        E 0 80 63 00
        E 320 90 57 60
        E 0 90 58 60
        E 0 90 63 60
        E 0 90 64 60
        E 20 80 57 00
        E 0 80 58 00
        E 0 80 63 00
        E 0 80 64 00
        E 320 90 55 60
        E 0 90 57 60
        E 0 90 61 60
        E 0 90 62 60
        E 0 90 63 60
        E 20 80 55 00
        E 0 80 57 00
        E 0 80 61 00
        E 0 80 62 00
        E 0 80 63 00
        E 280 90 3e 60
        E 0 90 4a 60
        E 0 90 4b 60
        E 0 90 56 60
        E 0 90 58 60
        E 0 90 61 60
        E 0 90 63 60
        E 0 90 64 60
        E 20 80 3e 00
        E 0 80 4a 00
        E 0 80 4b 00
        E 0 80 56 00
        E 0 80 58 00
        E 0 80 61 00
        E 0 80 63 00
        E 0 80 64 00
        E 220 90 57 60
        E 0 90 58 60
        E 0 90 63 60
        E 0 90 64 60
        E 120 80 57 00
        E 0 80 58 00
        E 400 80 63 00
        E 0 80 64 00
        E 60 90 4b 60
        E 0 90 4c 60
        E 0 90 57 60
        E 0 90 58 60
        E 0 90 63 60
        E 0 90 64 60
        E 120 80 4b 00
        E 0 80 4c 00
        E 0 80 57 00
        E 0 80 58 00
        E 400 80 63 00
        E 0 80 64 00
        E 220 90 55 60
        E 0 90 57 60
        E 0 90 61 60
        E 0 90 62 60
        E 0 90 63 60
        E 20 80 55 00
        E 0 80 57 00
        E 0 80 61 00
        E 0 80 62 00
        E 0 80 63 00
        E 320 90 3e 60
        E 0 90 4a 60
        E 0 90 4b 60
        E 0 90 56 60
        E 0 90 58 60
        E 0 90 61 60
        E 0 90 63 60
        E 0 90 64 60
        E 20 80 3e 00
        E 0 80 4a 00
        E 0 80 4b 00
        E 0 80 56 00
        E 0 80 58 00
        E 0 80 61 00
        E 0 80 63 00
        E 0 80 64 00
        E 320 90 57 60
        E 0 90 58 60
        E 0 90 63 60
        E 0 90 64 60
        E 20 80 57 00
        E 0 80 58 00
        E 0 80 63 00
        E 0 80 64 00
        E 280 90 55 60
        E 0 90 56 60
        E 0 90 61 60
        E 0 90 62 60
        E 20 80 55 00
        E 0 80 56 00
        E 0 80 61 00
        E 0 80 62 00
        E 300 90 3e 60
        E 0 90 49 60
        E 0 90 4b 60
        E 0 90 55 60
        E 0 90 57 60
        E 0 90 61 60
        E 0 90 62 60
        E 0 90 63 60
        E 20 80 3e 00
        E 0 80 49 00
        E 0 80 4b 00
        E 0 80 55 00
        E 0 80 57 00
        E 0 80 61 00
        E 0 80 62 00
        E 0 80 63 00
        E 300 90 55 60
        E 0 90 56 60
        E 0 90 61 60
        E 0 90 62 60
        E 20 80 55 00
        E 0 80 56 00
        E 0 80 61 00
        E 0 80 62 00
        E 320 90 57 60
        E 0 90 58 60
        E 0 90 63 60
        E 0 90 64 60
        E 20 80 57 00
        E 0 80 58 00
        E 0 80 63 00
        E 0 80 64 00
        E 280 90 3e 60
        E 0 90 49 60
        E 0 90 4b 60
        E 0 90 55 60
        E 0 90 57 60
        E 0 90 61 60
        E 0 90 62 60
        E 0 90 63 60
        E 20 80 3e 00
        E 0 80 49 00
        E 0 80 4b 00
        E 0 80 55 00
        E 0 80 57 00
        E 0 80 61 00
        E 0 80 62 00
        E 0 80 63 00
        E 300 90 55 60
        E 0 90 57 60
        E 0 90 61 60
        E 0 90 62 60
        E 0 90 63 60
        E 20 80 55 00
        E 0 80 57 00
        E 0 80 61 00
        E 0 80 62 00
        E 0 80 63 00
        E 320 90 57 60
        E 0 90 58 60
        E 0 90 63 60
        E 0 90 64 60
        E 20 80 57 00
        E 0 80 58 00
        E 0 80 63 00
        E 0 80 64 00
        E 320 90 3e 60
        E 0 90 49 60
        E 0 90 4b 60
        E 0 90 55 60
        E 0 90 57 60
        E 0 90 61 60
        E 0 90 62 60
        E 0 90 63 60
        E 20 80 3e 00
        E 0 80 49 00
        E 0 80 4b 00
        E 0 80 55 00
        E 0 80 57 00
        E 0 80 61 00
        E 0 80 62 00
        E 0 80 63 00
        E 280 90 56 60
        E 0 90 58 60
        E 0 90 61 60
        E 0 90 63 60
        E 0 90 64 60
        E 20 80 56 00
        E 0 80 58 00
        E 0 80 61 00
        E 0 80 63 00
        E 0 80 64 00
        E 300 90 4b 60
        E 0 90 4c 60
        E 0 90 57 60
        E 0 90 58 60
        E 0 90 63 60
        E 0 90 64 60
        E 120 80 4b 00
        E 0 80 4c 00
        E 0 80 57 00
        E 0 80 58 00
        E 400 80 63 00
        E 0 80 64 00
        E 60 90 4b 60
        E 0 90 4c 60
        E 0 90 57 60
        E 0 90 58 60
        E 0 90 63 60
        E 0 90 64 60
        E 120 80 4b 00
        E 0 80 4c 00
        E 0 80 57 00
        E 0 80 58 00
        E 520 80 63 00
        E 0 80 64 00
        E 60 90 3c 60
        E 0 90 48 60
        E 0 90 54 60
        E 0 90 60 60
        E 20 80 3c 00
        E 0 80 48 00
        E 0 80 54 00
        E 0 80 60 00
        E 220 90 57 60
        E 0 90 63 60
        E 20 80 57 00
        E 0 80 63 00
        E 300 90 49 60
        E 0 90 55 60
        E 0 90 61 60
        E 20 80 49 00
        E 0 80 55 00
        E 0 80 61 00
        E 320 90 56 60
        E 0 90 62 60
        E 20 80 56 00
        E 0 80 62 00
        E 320 90 4b 60
        E 0 90 57 60
        E 0 90 63 60
        E 20 80 4b 00
        E 0 80 57 00
        E 0 80 63 00
        E 300 90 56 60
        E 0 90 62 60
        E 20 80 56 00
        E 0 80 62 00
        E 340 90 3c 60
        E 0 90 49 60
        E 0 90 55 60
        E 0 90 61 60
        E 20 80 3c 00
        E 0 80 49 00
        E 0 80 55 00
        E 0 80 61 00
        E 320 90 56 60
        E 0 90 62 60
        E 20 80 56 00
        E 0 80 62 00
        E 320 90 4b 60
        E 0 90 57 60
        E 0 90 63 60
        E 20 80 4b 00
        E 0 80 57 00
        E 0 80 63 00
        E 320 90 56 60
        E 0 90 62 60
        E 20 80 56 00
        E 0 80 62 00
        E 320 90 3c 60
        E 0 90 49 60
        E 0 90 55 60
        E 0 90 61 60
        E 20 80 3c 00
        E 0 80 49 00
        E 0 80 55 00
        E 0 80 61 00
        E 320 90 56 60
        E 0 90 62 60
        E 20 80 56 00
        E 0 80 62 00
        E 320 90 57 60
        E 0 90 63 60
        E 20 80 57 00
        E 0 80 63 00
        E 320 90 3e 60
        E 0 90 4b 60
        E 0 90 58 60
        E 0 90 64 60
        E 20 80 3e 00
        E 0 80 4b 00
        E 0 80 58 00
        E 0 80 64 00
        E 320 90 57 60
        E 0 90 63 60
        E 20 80 57 00
        E 0 80 63 00
        E 320 90 48 60
        E 0 90 54 60
        E 0 90 60 60
        E 20 80 48 00
        E 0 80 54 00
        E 0 80 60 00
        E 320 90 55 60
        E 0 90 61 60
        E 20 80 55 00
        E 0 80 61 00
        E 320 90 3d 60
        E 0 90 4a 60
        E 0 90 56 60
        E 0 90 62 60
        E 20 80 3d 00
        E 0 80 4a 00
        E 0 80 56 00
        E 0 80 62 00
        E 320 90 55 60
        E 0 90 61 60
        E 20 80 55 00
        E 0 80 61 00
        E 320 90 4a 60
        E 0 90 56 60
        E 0 90 62 60
        E 20 80 4a 00
        E 0 80 56 00
        E 0 80 62 00
        E 320 90 57 60
        E 0 90 63 60
        E 20 80 57 00
        E 0 80 63 00
        E 320 90 4a 60
        E 0 90 56 60
        E 0 90 62 60
        E 20 80 4a 00
        E 0 80 56 00
        E 0 80 62 00
        E 320 90 56 60
        E 0 90 62 60
        E 20 80 56 00
        E 0 80 62 00
        E 320 90 3e 60
        E 0 90 4b 60
        E 0 90 57 60
        E 0 90 63 60
        E 20 80 3e 00
        E 0 80 4b 00
        E 0 80 57 00
        E 0 80 63 00
        E 320 90 58 60
        E 0 90 64 60
        E 20 80 58 00
        E 0 80 64 00
        E 320 90 4b 60
        E 0 90 57 60
        E 0 90 63 60
        E 20 80 4b 00
        E 0 80 57 00
        E 0 80 63 00
        E 320 90 56 60
        E 0 90 62 60
        E 20 80 56 00
        E 0 80 62 00
        E 320 90 3e 60
        E 0 90 4b 60
        E 0 90 57 60
        E 0 90 63 60
        E 20 80 3e 00
        E 0 80 4b 00
        E 0 80 57 00
        E 0 80 63 00
        E 320 90 58 60
        E 0 90 64 60
        E 20 80 58 00
        E 0 80 64 00
        E 720 90 3c 60
        E 0 90 48 60
        E 0 90 54 60
        E 0 90 60 60
        E 20 80 3c 00
        E 0 80 48 00
        E 0 80 54 00
        E 0 80 60 00
        E 220 90 57 60
        E 0 90 63 60
        E 20 80 57 00
        E 0 80 63 00
        E 300 90 55 60
        E 0 90 61 60
        E 20 80 55 00
        E 0 80 61 00
        E 320 90 4a 60
        E 0 90 56 60
        E 0 90 62 60
        E 20 80 4a 00
        E 0 80 56 00
        E 0 80 62 00
        E 320 90 57 60
        E 0 90 63 60
        E 20 80 57 00
        E 0 80 63 00
        E 300 90 3d 60
        E 0 90 4a 60
        E 0 90 56 60
        E 0 90 62 60
        E 20 80 3d 00
        E 0 80 4a 00
        E 0 80 56 00
        E 0 80 62 00
        E 340 90 55 60
        E 0 90 61 60
        E 20 80 55 00
        E 0 80 61 00
        E 320 90 4a 60
        E 0 90 56 60
        E 0 90 62 60
        E 20 80 4a 00
        E 0 80 56 00
        E 0 80 62 00
        E 320 90 57 60
        E 0 90 63 60
        E 20 80 57 00
        E 0 80 63 00
        E 320 90 56 60
        E 0 90 62 60
        E 20 80 56 00
        E 0 80 62 00
        E 320 90 3c 60
        E 0 90 49 60
        E 0 90 55 60
        E 0 90 61 60
        E 20 80 3c 00
        E 0 80 49 00
        E 0 80 55 00
        E 0 80 61 00
        E 320 90 56 60
        E 0 90 62 60
        E 20 80 56 00
        E 0 80 62 00
        E 320 90 4b 60
        E 0 90 57 60
        E 0 90 63 60
        E 20 80 4b 00
        E 0 80 57 00
        E 0 80 63 00
        E 320 90 58 60
        E 0 90 64 60
        E 20 80 58 00
        E 0 80 64 00
        E 320 90 3e 60
        E 0 90 4b 60
        E 0 90 57 60
        E 0 90 63 60
        E 20 80 3e 00
        E 0 80 4b 00
        E 0 80 57 00
        E 0 80 63 00
        E 320 90 54 60
        E 0 90 60 60
        E 20 80 54 00
        E 0 80 60 00
        E 320 90 49 60
        E 0 90 55 60
        E 0 90 61 60
        E 20 80 49 00
        E 0 80 55 00
        E 0 80 61 00
        E 320 90 56 60
        E 0 90 62 60
        E 20 80 56 00
        E 0 80 62 00
        E 320 90 3c 60
        E 0 90 49 60
        E 0 90 55 60
        E 0 90 61 60
        E 20 80 3c 00
        E 0 80 49 00
        E 0 80 55 00
        E 0 80 61 00
        E 320 90 56 60
        E 0 90 62 60
        E 20 80 56 00
        E 0 80 62 00
        E 320 90 4b 60
        E 0 90 57 60
        E 0 90 63 60
        E 20 80 4b 00
        E 0 80 57 00
        E 0 80 63 00
        E 320 90 56 60
        E 0 90 62 60
        E 20 80 56 00
        E 0 80 62 00
        E 320 90 3d 60
        E 0 90 4a 60
        E 0 90 56 60
        E 0 90 62 60
        E 20 80 3d 00
        E 0 80 4a 00
        E 0 80 56 00
        E 0 80 62 00
        E 320 90 57 60
        E 0 90 63 60
        E 20 80 57 00
        E 0 80 63 00
        E 319 90 4b 60
        E 0 90 58 60
        E 0 90 64 60
        E 20 80 4b 00
        E 0 80 58 00
        E 0 80 64 00
        E 321 90 57 60
        E 0 90 63 60
        E 20 80 57 00
        E 0 80 63 00
        E 320 90 56 60
        E 0 90 62 60
        E 20 80 56 00
        E 0 80 62 00
        E 320 90 3e 60
        E 0 90 4b 60
        E 0 90 57 60
        E 0 90 63 60
        E 20 80 3e 00
        E 0 80 4b 00
        E 0 80 57 00
        E 0 80 63 00
        E 320 90 58 60
        E 0 90 64 60
        E 20 80 58 00
        E 0 80 64 00
        E 840 90 54 60
        E 0 90 60 60
        E 20 80 54 00
        E 0 80 60 00
        E 220 90 3e 60
        E 0 90 4b 60
        E 0 90 57 60
        E 0 90 63 60
        E 20 80 3e 00
        E 0 80 4b 00
        E 0 80 57 00
        E 0 80 63 00
        E 300 90 55 60
        E 0 90 61 60
        E 20 80 55 00
        E 0 80 61 00
        E 320 90 4a 60
        E 0 90 56 60
        E 0 90 62 60
        E 20 80 4a 00
        E 0 80 56 00
        E 0 80 62 00
        E 320 90 57 60
        E 0 90 63 60
        E 20 80 57 00
        E 0 80 63 00
        E 300 90 3d 60
        E 0 90 4a 60
        E 0 90 56 60
        E 0 90 62 60
        E 20 80 3d 00
        E 0 80 4a 00
        E 0 80 56 00
        E 0 80 62 00
        E 340 90 55 60
        E 0 90 61 60
        E 20 80 55 00
        E 0 80 61 00
        E 320 90 4a 60
        E 0 90 56 60
        E 0 90 62 60
        E 20 80 4a 00
        E 0 80 56 00
        E 0 80 62 00
        E 320 90 57 60
        E 0 90 63 60
        E 20 80 57 00
        E 0 80 63 00
        E 320 90 3d 60
        E 0 90 4a 60
        E 0 90 56 60
        E 0 90 62 60
        E 20 80 3d 00
        E 0 80 4a 00
        E 0 80 56 00
        E 0 80 62 00
        E 320 90 55 60
        E 0 90 61 60
        E 20 80 55 00
        E 0 80 61 00
        E 320 90 3d 60
        E 0 90 4a 60
        E 0 90 56 60
        E 0 90 62 60
        E 20 80 3d 00
        E 0 80 4a 00
        E 0 80 56 00
        E 0 80 62 00
        E 320 90 57 60
        E 0 90 63 60
        E 20 80 57 00
        E 0 80 63 00
        E 320 90 4b 60
        E 0 90 58 60
        E 0 90 64 60
        E 20 80 4b 00
        E 0 80 58 00
        E 0 80 64 00
        E 320 90 57 60
        E 0 90 63 60
        E 20 80 57 00
        E 0 80 63 00
        E 320 90 3c 60
        E 0 90 48 60
        E 0 90 54 60
        E 0 90 60 60
        E 20 80 3c 00
        E 0 80 48 00
        E 0 80 54 00
        E 0 80 60 00
        E 320 90 55 60
        E 0 90 61 60
        E 20 80 55 00
        E 0 80 61 00
        E 320 90 56 60
        E 0 90 62 60
        E 20 80 56 00
        E 0 80 62 00
        E 320 90 3c 60
        E 0 90 49 60
        E 0 90 55 60
        E 0 90 61 60
        E 20 80 3c 00
        E 0 80 49 00
        E 0 80 55 00
        E 0 80 61 00
        E 320 90 56 60
        E 0 90 62 60
        E 20 80 56 00
        E 0 80 62 00
        E 320 90 4b 60
        E 0 90 57 60
        E 0 90 63 60
        E 20 80 4b 00
        E 0 80 57 00
        E 0 80 63 00
        E 320 90 56 60
        E 0 90 62 60
        E 20 80 56 00
        E 0 80 62 00
        E 320 90 3d 60
        E 0 90 4a 60
        E 0 90 56 60
        E 0 90 62 60
        E 20 80 3d 00
        E 0 80 4a 00
        E 0 80 56 00
        E 0 80 62 00
        E 320 90 57 60
        E 0 90 63 60
        E 20 80 57 00
        E 0 80 63 00
        E 319 90 58 60
        E 0 90 64 60
        E 20 80 58 00
        E 0 80 64 00
        E 321 90 3e 60
        E 0 90 4b 60
        E 0 90 57 60
        E 0 90 63 60
        E 20 80 3e 00
        E 0 80 4b 00
        E 0 80 57 00
        E 0 80 63 00
        E 320 90 56 60
        E 0 90 62 60
        E 20 80 56 00
        E 0 80 62 00
        E 320 90 4b 60
        E 0 90 57 60
        E 0 90 63 60
        E 20 80 4b 00
        E 0 80 57 00
        E 0 80 63 00
        E 320 90 58 60
        E 0 90 64 60
        E 20 80 58 00
        E 0 80 64 00
        E 1100 90 3c 60
        E 0 90 48 60
        E 0 90 54 60
        E 0 90 60 60
        E 20 80 3c 00
        E 0 80 48 00
        E 0 80 54 00
        E 0 80 60 00
        E 220 90 57 60
        E 0 90 63 60
        E 20 80 57 00
        E 0 80 63 00
        E 300 90 49 60
        E 0 90 55 60
        E 0 90 61 60
        E 20 80 49 00
        E 0 80 55 00
        E 0 80 61 00
        E 320 90 56 60
        E 0 90 62 60
        E 20 80 56 00
        E 0 80 62 00
        E 320 90 3e 60
        E 0 90 4b 60
        E 0 90 57 60
        E 0 90 63 60
        E 20 80 3e 00
        E 0 80 4b 00
        E 0 80 57 00
        E 0 80 63 00
        E 300 90 56 60
        E 0 90 62 60
        E 20 80 56 00
        E 0 80 62 00
        E 340 90 49 60
        E 0 90 55 60
        E 0 90 61 60
        E 20 80 49 00
        E 0 80 55 00
        E 0 80 61 00
        E 320 90 56 60
        E 0 90 62 60
        E 20 80 56 00
        E 0 80 62 00
        E 320 90 3e 60
        E 0 90 4b 60
        E 0 90 57 60
        E 0 90 63 60
        E 20 80 3e 00
        E 0 80 4b 00
        E 0 80 57 00
        E 0 80 63 00
        E 320 90 56 60
        E 0 90 62 60
        E 20 80 56 00
        E 0 80 62 00
        E 320 90 55 60
        E 0 90 61 60
        E 20 80 55 00
        E 0 80 61 00
        E 320 90 3d 60
        E 0 90 4a 60
        E 0 90 56 60
        E 0 90 62 60
        E 20 80 3d 00
        E 0 80 4a 00
        E 0 80 56 00
        E 0 80 62 00
        E 320 90 57 60
        E 0 90 63 60
        E 20 80 57 00
        E 0 80 63 00
        E 280 90 74 60
        E 40 90 4b 60
        E 0 90 58 60
        E 0 90 64 60
        E 20 80 4b 00
        E 0 80 58 00
        E 0 80 64 00
        E 320 90 57 60
        E 0 90 63 60
        E 20 80 57 00
        E 0 80 63 00
        E 320 90 3c 60
        E 0 90 48 60
        E 0 90 54 60
        E 0 90 60 60
        E 20 80 3c 00
        E 0 80 48 00
        E 0 80 54 00
        E 0 80 60 00
        E 320 90 55 60
        E 0 90 61 60
        E 20 80 55 00
        E 0 80 61 00
        E 320 90 4a 60
        E 0 90 56 60
        E 0 90 62 60
        E 20 80 4a 00
        E 0 80 56 00
        E 0 80 62 00
        E 320 90 55 60
        E 0 90 61 60
        E 20 80 55 00
        E 0 80 61 00
        E 320 90 3d 60
        E 0 90 4a 60
        E 0 90 56 60
        E 0 90 62 60
        E 20 80 3d 00
        E 0 80 4a 00
        E 0 80 56 00
        E 0 80 62 00
        E 320 90 57 60
        E 0 90 63 60
        E 20 80 57 00
        E 0 80 63 00
        E 320 90 3d 60
        E 0 90 4a 60
        E 0 90 56 60
        E 0 90 62 60
        E 20 80 3d 00
        E 0 80 4a 00
        E 0 80 56 00
        E 0 80 62 00
        E 320 90 56 60
        E 0 90 62 60
        E 20 80 56 00
        E 0 80 62 00
        E 320 90 4b 60
        E 0 90 57 60
        E 0 90 63 60
        E 20 80 4b 00
        E 0 80 57 00
        E 0 80 63 00
        E 319 90 58 60
        E 0 90 64 60
        E 20 80 58 00
        E 0 80 64 00
        E 61 80 74 00
        E 260 90 3e 60
        E 0 90 4b 60
        E 0 90 57 60
        E 0 90 63 60
        E 20 80 3e 00
        E 0 80 4b 00
        E 0 80 57 00
        E 0 80 63 00
        E 320 90 56 60
        E 0 90 62 60
        E 20 80 56 00
        E 0 80 62 00
        E 320 90 57 60
        E 0 90 63 60
        E 20 80 57 00
        E 0 80 63 00
        E 320 90 3e 60
        E 0 90 4b 60
        E 0 90 58 60
        E 0 90 64 60
        E 20 80 3e 00
        E 0 80 4b 00
        E 0 80 58 00
        E 0 80 64 00
        E 320 90 57 60
        E 0 90 63 60
        E 20 80 57 00
        E 0 80 63 00
        E 260 90 55 60
        E 0 90 57 60
        E 0 90 61 60
        E 0 90 62 60
        E 0 90 63 60
        E 20 80 55 00
        E 0 80 57 00
        E 0 80 61 00
        E 0 80 62 00
        E 0 80 63 00
        E 320 90 3e 60
        E 0 90 4a 60
        E 0 90 4b 60
        E 0 90 56 60
        E 0 90 58 60
        E 0 90 61 60
        E 0 90 63 60
        E 0 90 64 60
        E 20 80 3e 00
        E 0 80 4a 00
        E 0 80 4b 00
        E 0 80 56 00
        E 0 80 58 00
        E 0 80 61 00
        E 0 80 63 00
        E 0 80 64 00
        E 320 90 57 60
        E 0 90 58 60
        E 0 90 63 60
        E 0 90 64 60
        E 20 80 57 00
        E 0 80 58 00
        E 0 80 63 00
        E 0 80 64 00
        E 280 90 55 60
        E 0 90 56 60
        E 0 90 61 60
        E 0 90 62 60
        E 20 80 55 00
        E 0 80 56 00
        E 0 80 61 00
        E 0 80 62 00
        E 300 90 3e 60
        E 0 90 49 60
        E 0 90 4b 60
        E 0 90 55 60
        E 0 90 57 60
        E 0 90 61 60
        E 0 90 62 60
        E 0 90 63 60
        E 20 80 3e 00
        E 0 80 49 00
        E 0 80 4b 00
        E 0 80 55 00
        E 0 80 57 00
        E 0 80 61 00
        E 0 80 62 00
        E 0 80 63 00
        E 300 90 55 60
        E 0 90 56 60
        E 0 90 61 60
        E 0 90 62 60
        E 20 80 55 00
        E 0 80 56 00
        E 0 80 61 00
        E 0 80 62 00
        E 320 90 57 60
        E 0 90 58 60
        E 0 90 63 60
        E 0 90 64 60
        E 20 80 57 00
        E 0 80 58 00
        E 0 80 63 00
        E 0 80 64 00
        E 280 90 3e 60
        E 0 90 49 60
        E 0 90 4b 60
        E 0 90 55 60
        E 0 90 57 60
        E 0 90 61 60
        E 0 90 62 60
        E 0 90 63 60
        E 20 80 3e 00
        E 0 80 49 00
        E 0 80 4b 00
        E 0 80 55 00
        E 0 80 57 00
        E 0 80 61 00
        E 0 80 62 00
        E 0 80 63 00
        E 300 90 55 60
        E 0 90 57 60
        E 0 90 61 60
        E 0 90 62 60
        E 0 90 63 60
        E 20 80 55 00
        E 0 80 57 00
        E 0 80 61 00
        E 0 80 62 00
        E 0 80 63 00
        E 320 90 4b 60
        E 0 90 4c 60
        E 0 90 57 60
        E 0 90 58 60
        E 0 90 63 60
        E 0 90 64 60
        E 20 80 4b 00
        E 0 80 4c 00
        E 0 80 57 00
        E 0 80 58 00
        E 0 80 63 00
        E 0 80 64 00
        E 320 90 55 60
        E 0 90 57 60
        E 0 90 61 60
        E 0 90 62 60
        E 0 90 63 60
        E 20 80 55 00
        E 0 80 57 00
        E 0 80 61 00
        E 0 80 62 00
        E 0 80 63 00
        E 280 90 3e 60
        E 0 90 4a 60
        E 0 90 4b 60
        E 0 90 56 60
        E 0 90 58 60
        E 0 90 61 60
        E 0 90 63 60
        E 0 90 64 60
        E 20 80 3e 00
        E 0 80 4a 00
        E 0 80 4b 00
        E 0 80 56 00
        E 0 80 58 00
        E 0 80 61 00
        E 0 80 63 00
        E 0 80 64 00
        E 300 90 57 60
        E 0 90 58 60
        E 0 90 63 60
        E 0 90 64 60
        E 120 80 57 00
        E 0 80 58 00
        E 400 80 63 00
        E 0 80 64 00
        E 60 90 4b 60
        E 0 90 4c 60
        E 0 90 57 60
        E 0 90 58 60
        E 0 90 63 60
        E 0 90 64 60
        E 120 80 4b 00
        E 0 80 4c 00
        E 0 80 57 00
        E 0 80 58 00
        E 520 80 63 00
        E 0 80 64 00
        E 80 90 3e 60
        E 0 90 49 60
        E 0 90 4b 60
        E 0 90 55 60
        E 0 90 57 60
        E 0 90 61 60
        E 0 90 62 60
        E 0 90 63 60
        E 20 80 3e 00
        E 0 80 49 00
        E 0 80 4b 00
        E 0 80 55 00
        E 0 80 57 00
        E 0 80 61 00
        E 0 80 62 00
        E 0 80 63 00
        E 320 90 56 60
        E 0 90 58 60
        E 0 90 61 60
        E 0 90 63 60
        E 0 90 64 60
        E 20 80 56 00
        E 0 80 58 00
        E 0 80 61 00
        E 0 80 63 00
        E 0 80 64 00
        E 320 90 4b 60
        E 0 90 4c 60
        E 0 90 57 60
        E 0 90 58 60
        E 0 90 63 60
        E 0 90 64 60
        E 20 80 4b 00
        E 0 80 4c 00
        E 0 80 57 00
        E 0 80 58 00
        E 0 80 63 00
        E 0 80 64 00
        E 280 90 55 60
        E 0 90 56 60
        E 0 90 61 60
        E 0 90 62 60
        E 20 80 55 00
        E 0 80 56 00
        E 0 80 61 00
        E 0 80 62 00
        E 300 90 3e 60
        E 0 90 49 60
        E 0 90 4b 60
        E 0 90 55 60
        E 0 90 57 60
        E 0 90 61 60
        E 0 90 62 60
        E 0 90 63 60
        E 20 80 3e 00
        E 0 80 49 00
        E 0 80 4b 00
        E 0 80 55 00
        E 0 80 57 00
        E 0 80 61 00
        E 0 80 62 00
        E 0 80 63 00
        E 300 90 55 60
        E 0 90 56 60
        E 0 90 61 60
        E 0 90 62 60
        E 20 80 55 00
        E 0 80 56 00
        E 0 80 61 00
        E 0 80 62 00
        E 320 90 4b 60
        E 0 90 4c 60
        E 0 90 57 60
        E 0 90 58 60
        E 0 90 63 60
        E 0 90 64 60
        E 20 80 4b 00
        E 0 80 4c 00
        E 0 80 57 00
        E 0 80 58 00
        E 0 80 63 00
        E 0 80 64 00
        E 280 90 55 60
        E 0 90 57 60
        E 0 90 61 60
        E 0 90 62 60
        E 0 90 63 60
        E 20 80 55 00
        E 0 80 57 00
        E 0 80 61 00
        E 0 80 62 00
        E 0 80 63 00
        E 300 90 3e 60
        E 0 90 49 60
        E 0 90 4b 60
        E 0 90 55 60
        E 0 90 57 60
        E 0 90 61 60
        E 0 90 62 60
        E 0 90 63 60
        E 20 80 3e 00
        E 0 80 49 00
        E 0 80 4b 00
        E 0 80 55 00
        E 0 80 57 00
        E 0 80 61 00
        E 0 80 62 00
        E 0 80 63 00
        E 320 90 57 60
        E 0 90 58 60
        E 0 90 63 60
        E 0 90 64 60
        E 20 80 57 00
        E 0 80 58 00
        E 0 80 63 00
        E 0 80 64 00
        E 320 90 49 60
        E 0 90 4b 60
        E 0 90 55 60
        E 0 90 57 60
        E 0 90 61 60
        E 0 90 62 60
        E 0 90 63 60
        E 20 80 49 00
        E 0 80 4b 00
        E 0 80 55 00
        E 0 80 57 00
        E 0 80 61 00
        E 0 80 62 00
        E 0 80 63 00
        E 280 90 56 60
        E 0 90 58 60
        E 0 90 61 60
        E 0 90 63 60
        E 0 90 64 60
        E 20 80 56 00
        E 0 80 58 00
        E 0 80 61 00
        E 0 80 63 00
        E 0 80 64 00
        E 300 90 3e 60
        E 0 90 4b 60
        E 0 90 4c 60
        E 0 90 57 60
        E 0 90 58 60
        E 0 90 63 60
        E 0 90 64 60
        E 120 80 3e 00
        E 0 80 4b 00
        E 0 80 4c 00
        E 0 80 57 00
        E 0 80 58 00
        E 400 80 63 00
        E 0 80 64 00
        E 60 90 4b 60
        E 0 90 4c 60
        E 0 90 57 60
        E 0 90 58 60
        E 0 90 63 60
        E 0 90 64 60
        E 120 80 4b 00
        E 0 80 4c 00
        E 0 80 57 00
        E 0 80 58 00
        E 400 80 63 00
        E 0 80 64 00
        E 60 90 49 60
        E 0 90 4b 60
        E 0 90 55 60
        E 0 90 57 60
        E 0 90 61 60
        E 0 90 62 60
        E 0 90 63 60
        E 20 80 49 00
        E 0 80 4b 00
        E 0 80 55 00
        E 0 80 57 00
        E 0 80 61 00
        E 0 80 62 00
        E 0 80 63 00
        E 160 90 74 60
        E 160 90 56 60
        E 0 90 58 60
        E 0 90 61 60
        E 0 90 63 60
        E 0 90 64 60
        E 20 80 56 00
        E 0 80 58 00
        E 0 80 61 00
        E 0 80 63 00
        E 0 80 64 00
        E 320 90 3e 60
        E 0 90 4b 60
        E 0 90 4c 60
        E 0 90 57 60
        E 0 90 58 60
        E 0 90 63 60
        E 0 90 64 60
        E 20 80 3e 00
        E 0 80 4b 00
        E 0 80 4c 00
        E 0 80 57 00
        E 0 80 58 00
        E 0 80 63 00
        E 0 80 64 00
        E 280 90 55 60
        E 0 90 56 60
        E 0 90 61 60
        E 0 90 62 60
        E 20 80 55 00
        E 0 80 56 00
        E 0 80 61 00
        E 0 80 62 00
        E 300 90 55 60
        E 0 90 57 60
        E 0 90 61 60
        E 0 90 62 60
        E 0 90 63 60
        E 20 80 55 00
        E 0 80 57 00
        E 0 80 61 00
        E 0 80 62 00
        E 0 80 63 00
        E 300 90 3e 60
        E 0 90 49 60
        E 0 90 4a 60
        E 0 90 55 60
        E 0 90 56 60
        E 0 90 61 60
        E 0 90 62 60
        E 20 80 3e 00
        E 0 80 49 00
        E 0 80 4a 00
        E 0 80 55 00
        E 0 80 56 00
        E 0 80 61 00
        E 0 80 62 00
        E 320 90 57 60
        E 0 90 58 60
        E 0 90 63 60
        E 0 90 64 60
        E 20 80 57 00
        E 0 80 58 00
        E 0 80 63 00
        E 0 80 64 00
        E 280 90 49 60
        E 0 90 4b 60
        E 0 90 55 60
        E 0 90 57 60
        E 0 90 61 60
        E 0 90 62 60
        E 0 90 63 60
        E 20 80 49 00
        E 0 80 4b 00
        E 0 80 55 00
        E 0 80 57 00
        E 0 80 61 00
        E 0 80 62 00
        E 0 80 63 00
        E 300 90 3e 60
        E 0 90 49 60
        E 0 90 4b 60
        E 0 90 55 60
        E 0 90 57 60
        E 0 90 61 60
        E 0 90 62 60
        E 0 90 63 60
        E 20 80 3e 00
        E 0 80 49 00
        E 0 80 4b 00
        E 0 80 55 00
        E 0 80 57 00
        E 0 80 61 00
        E 0 80 62 00
        E 0 80 63 00
        E 320 90 57 60
        E 0 90 58 60
        E 0 90 63 60
        E 0 90 64 60
        E 20 80 57 00
        E 0 80 58 00
        E 0 80 63 00
        E 0 80 64 00
        E 320 90 55 60
        E 0 90 57 60
        E 0 90 61 60
        E 0 90 62 60
        E 0 90 63 60
        E 20 80 55 00
        E 0 80 57 00
        E 0 80 61 00
        E 0 80 62 00
        E 0 80 63 00
        E 280 90 3e 60
        E 0 90 4a 60
        E 0 90 4b 60
        E 0 90 56 60
        E 0 90 58 60
        E 0 90 61 60
        E 0 90 63 60
        E 0 90 64 60
        E 20 80 3e 00
        E 0 80 4a 00
        E 0 80 4b 00
        E 0 80 56 00
        E 0 80 58 00
        E 0 80 61 00
        E 0 80 63 00
        E 0 80 64 00
        E 300 90 57 60
        E 0 90 58 60
        E 0 90 63 60
        E 0 90 64 60
        E 120 80 57 00
        E 0 80 58 00
        E 400 80 63 00
        E 0 80 64 00
        E 60 90 4b 60
        E 0 90 4c 60
        E 0 90 57 60
        E 0 90 58 60
        E 0 90 63 60
        E 0 90 64 60
        E 120 80 4b 00
        E 0 80 4c 00
        E 0 80 57 00
        E 0 80 58 00
        E 520 80 63 00
        E 0 80 64 00
        E 20 80 74 00
        E 20 90 55 60
        E 0 90 57 60
        E 0 90 61 60
        E 0 90 62 60
        E 0 90 63 60
        E 20 80 55 00
        E 0 80 57 00
        E 0 80 61 00
        E 0 80 62 00
        E 0 80 63 00
        E 320 90 3e 60
        E 0 90 4a 60
        E 0 90 4b 60
        E 0 90 56 60
        E 0 90 58 60
        E 0 90 61 60
        E 0 90 63 60
        E 0 90 64 60
        E 20 80 3e 00
        E 0 80 4a 00
        E 0 80 4b 00
        E 0 80 56 00
        E 0 80 58 00
        E 0 80 61 00
        E 0 80 63 00
        E 0 80 64 00
        E 320 90 57 60
        E 0 90 58 60
        E 0 90 63 60
        E 0 90 64 60
        E 20 80 57 00
        E 0 80 58 00
        E 0 80 63 00
        E 0 80 64 00
        E 280 90 55 60
        E 0 90 56 60
        E 0 90 61 60
        E 0 90 62 60
        E 20 80 55 00
        E 0 80 56 00
        E 0 80 61 00
        E 0 80 62 00
        E 300 90 3e 60
        E 0 90 49 60
        E 0 90 4b 60
        E 0 90 55 60
        E 0 90 57 60
        E 0 90 61 60
        E 0 90 62 60
        E 0 90 63 60
        E 20 80 3e 00
        E 0 80 49 00
        E 0 80 4b 00
        E 0 80 55 00
        E 0 80 57 00
        E 0 80 61 00
        E 0 80 62 00
        E 0 80 63 00
        E 300 90 55 60
        E 0 90 56 60
        E 0 90 61 60
        E 0 90 62 60
        E 20 80 55 00
        E 0 80 56 00
        E 0 80 61 00
        E 0 80 62 00
        E 320 90 57 60
        E 0 90 58 60
        E 0 90 63 60
        E 0 90 64 60
        E 20 80 57 00
        E 0 80 58 00
        E 0 80 63 00
        E 0 80 64 00
        E 280 90 3e 60
        E 0 90 49 60
        E 0 90 4b 60
        E 0 90 55 60
        E 0 90 57 60
        E 0 90 61 60
        E 0 90 62 60
        E 0 90 63 60
        E 20 80 3e 00
        E 0 80 49 00
        E 0 80 4b 00
        E 0 80 55 00
        E 0 80 57 00
        E 0 80 61 00
        E 0 80 62 00
        E 0 80 63 00
        E 300 90 55 60
        E 0 90 57 60
        E 0 90 61 60
        E 0 90 62 60
        E 0 90 63 60
        E 20 80 55 00
        E 0 80 57 00
        E 0 80 61 00
        E 0 80 62 00
        E 0 80 63 00
        E 320 90 4b 60
        E 0 90 4c 60
        E 0 90 57 60
        E 0 90 58 60
        E 0 90 63 60
        E 0 90 64 60
        E 20 80 4b 00
        E 0 80 4c 00
        E 0 80 57 00
        E 0 80 58 00
        E 0 80 63 00
        E 0 80 64 00
        E 320 90 55 60
        E 0 90 57 60
        E 0 90 61 60
        E 0 90 62 60
        E 0 90 63 60
        E 20 80 55 00
        E 0 80 57 00
        E 0 80 61 00
        E 0 80 62 00
        E 0 80 63 00
        E 280 90 3e 60
        E 0 90 4a 60
        E 0 90 4b 60
        E 0 90 56 60
        E 0 90 58 60
        E 0 90 61 60
        E 0 90 63 60
        E 0 90 64 60
        E 20 80 3e 00
        E 0 80 4a 00
        E 0 80 4b 00
        E 0 80 56 00
        E 0 80 58 00
        E 0 80 61 00
        E 0 80 63 00
        E 0 80 64 00
        E 300 90 57 60
        E 0 90 58 60
        E 0 90 63 60
        E 0 90 64 60
        E 120 80 57 00
        E 0 80 58 00
        E 400 80 63 00
        E 0 80 64 00
        E 60 90 4b 60
        E 0 90 4c 60
        E 0 90 57 60
        E 0 90 58 60
        E 0 90 63 60
        E 0 90 64 60
        E 120 80 4b 00
        E 0 80 4c 00
        E 0 80 57 00
        E 0 80 58 00
        E 520 80 63 00
        E 0 80 64 00
        E 40 90 3c 60
        E 0 90 48 60
        E 0 90 54 60
        E 0 90 60 60
        E 20 80 3c 00
        E 0 80 48 00
        E 0 80 54 00
        E 0 80 60 00
        E 220 90 57 60
        E 0 90 63 60
        E 20 80 57 00
        E 0 80 63 00
        E 300 90 49 60
        E 0 90 55 60
        E 0 90 61 60
        E 20 80 49 00
        E 0 80 55 00
        E 0 80 61 00
        E 320 90 56 60
        E 0 90 62 60
        E 20 80 56 00
        E 0 80 62 00
        E 320 90 4b 60
        E 0 90 57 60
        E 0 90 63 60
        E 20 80 4b 00
        E 0 80 57 00
        E 0 80 63 00
        E 300 90 56 60
        E 0 90 62 60
        E 20 80 56 00
        E 0 80 62 00
        E 340 90 3c 60
        E 0 90 49 60
        E 0 90 55 60
        E 0 90 61 60
        E 20 80 3c 00
        E 0 80 49 00
        E 0 80 55 00
        E 0 80 61 00
        E 320 90 56 60
        E 0 90 62 60
        E 20 80 56 00
        E 0 80 62 00
        E 320 90 4b 60
        E 0 90 57 60
        E 0 90 63 60
        E 20 80 4b 00
        E 0 80 57 00
        E 0 80 63 00
        E 320 90 56 60
        E 0 90 62 60
        E 20 80 56 00
        E 0 80 62 00
        E 320 90 3c 60
        E 0 90 49 60
        E 0 90 55 60
        E 0 90 61 60
        E 20 80 3c 00
        E 0 80 49 00
        E 0 80 55 00
        E 0 80 61 00
        E 320 90 56 60
        E 0 90 62 60
        E 20 80 56 00
        E 0 80 62 00
        E 320 90 57 60
        E 0 90 63 60
        E 20 80 57 00
        E 0 80 63 00
        E 320 90 3e 60
        E 0 90 4b 60
        E 0 90 58 60
        E 0 90 64 60
        E 20 80 3e 00
        E 0 80 4b 00
        E 0 80 58 00
        E 0 80 64 00
        E 320 90 57 60
        E 0 90 63 60
        E 20 80 57 00
        E 0 80 63 00
        E 320 90 48 60
        E 0 90 54 60
        E 0 90 60 60
        E 20 80 48 00
        E 0 80 54 00
        E 0 80 60 00
        E 320 90 55 60
        E 0 90 61 60
        E 20 80 55 00
        E 0 80 61 00
        E 320 90 3d 60
        E 0 90 4a 60
        E 0 90 56 60
        E 0 90 62 60
        E 20 80 3d 00
        E 0 80 4a 00
        E 0 80 56 00
        E 0 80 62 00
        E 320 90 55 60
        E 0 90 61 60
        E 20 80 55 00
        E 0 80 61 00
        E 320 90 4a 60
        E 0 90 56 60
        E 0 90 62 60
        E 20 80 4a 00
        E 0 80 56 00
        E 0 80 62 00
        E 320 90 57 60
        E 0 90 63 60
        E 20 80 57 00
        E 0 80 63 00
        E 320 90 4a 60
        E 0 90 56 60
        E 0 90 62 60
        E 20 80 4a 00
        E 0 80 56 00
        E 0 80 62 00
        E 320 90 56 60
        E 0 90 62 60
        E 20 80 56 00
        E 0 80 62 00
        E 320 90 3e 60
        E 0 90 4b 60
        E 0 90 57 60
        E 0 90 63 60
        E 20 80 3e 00
        E 0 80 4b 00
        E 0 80 57 00
        E 0 80 63 00
        E 320 90 58 60
        E 0 90 64 60
        E 20 80 58 00
        E 0 80 64 00
        E 320 90 4b 60
        E 0 90 57 60
        E 0 90 63 60
        E 20 80 4b 00
        E 0 80 57 00
        E 0 80 63 00
        E 320 90 56 60
        E 0 90 62 60
        E 20 80 56 00
        E 0 80 62 00
        E 320 90 3e 60
        E 0 90 4b 60
        E 0 90 57 60
        E 0 90 63 60
        E 20 80 3e 00
        E 0 80 4b 00
        E 0 80 57 00
        E 0 80 63 00
        E 320 90 58 60
        E 0 90 64 60
        E 20 80 58 00
        E 0 80 64 00
        E 660 90 74 60
        E 60 90 3c 60
        E 0 90 48 60
        E 0 90 54 60
        E 0 90 60 60
        E 20 80 3c 00
        E 0 80 48 00
        E 0 80 54 00
        E 0 80 60 00
        E 220 90 57 60
        E 0 90 63 60
        E 20 80 57 00
        E 0 80 63 00
        E 300 90 55 60
        E 0 90 61 60
        E 20 80 55 00
        E 0 80 61 00
        E 320 90 4a 60
        E 0 90 56 60
        E 0 90 62 60
        E 20 80 4a 00
        E 0 80 56 00
        E 0 80 62 00
        E 320 90 57 60
        E 0 90 63 60
        E 20 80 57 00
        E 0 80 63 00
        E 300 90 3d 60
        E 0 90 4a 60
        E 0 90 56 60
        E 0 90 62 60
        E 20 80 3d 00
        E 0 80 4a 00
        E 0 80 56 00
        E 0 80 62 00
        E 340 90 55 60
        E 0 90 61 60
        E 20 80 55 00
        E 0 80 61 00
        E 320 90 4a 60
        E 0 90 56 60
        E 0 90 62 60
        E 20 80 4a 00
        E 0 80 56 00
        E 0 80 62 00
        E 320 90 57 60
        E 0 90 63 60
        E 20 80 57 00
        E 0 80 63 00
        E 320 90 56 60
        E 0 90 62 60
        E 20 80 56 00
        E 0 80 62 00
        E 320 90 3c 60
        E 0 90 49 60
        E 0 90 55 60
        E 0 90 61 60
        E 20 80 3c 00
        E 0 80 49 00
        E 0 80 55 00
        E 0 80 61 00
        E 320 90 56 60
        E 0 90 62 60
        E 20 80 56 00
        E 0 80 62 00
        E 320 90 4b 60
        E 0 90 57 60
        E 0 90 63 60
        E 20 80 4b 00
        E 0 80 57 00
        E 0 80 63 00
        E 320 90 58 60
        E 0 90 64 60
        E 20 80 58 00
        E 0 80 64 00
        E 320 90 3e 60
        E 0 90 4b 60
        E 0 90 57 60
        E 0 90 63 60
        E 20 80 3e 00
        E 0 80 4b 00
        E 0 80 57 00
        E 0 80 63 00
        E 220 80 74 00
        E 100 90 54 60
        E 0 90 60 60
        E 20 80 54 00
        E 0 80 60 00
        E 320 90 49 60
        E 0 90 55 60
        E 0 90 61 60
        E 20 80 49 00
        E 0 80 55 00
        E 0 80 61 00
        E 320 90 56 60
        E 0 90 62 60
        E 20 80 56 00
        E 0 80 62 00
        E 320 90 3c 60
        E 0 90 49 60
        E 0 90 55 60
        E 0 90 61 60
        E 20 80 3c 00
        E 0 80 49 00
        E 0 80 55 00
        E 0 80 61 00
        E 320 90 56 60
        E 0 90 62 60
        E 20 80 56 00
        E 0 80 62 00
        E 320 90 4b 60
        E 0 90 57 60
        E 0 90 63 60
        E 20 80 4b 00
        E 0 80 57 00
        E 0 80 63 00
        E 320 90 56 60
        E 0 90 62 60
        E 20 80 56 00
        E 0 80 62 00
        E 320 90 3d 60
        E 0 90 4a 60
        E 0 90 56 60
        E 0 90 62 60
        E 20 80 3d 00
        E 0 80 4a 00
        E 0 80 56 00
        E 0 80 62 00
        E 320 90 57 60
        E 0 90 63 60
        E 20 80 57 00
        E 0 80 63 00
        E 319 90 4b 60
        E 0 90 58 60
        E 0 90 64 60
        E 20 80 4b 00
        E 0 80 58 00
        E 0 80 64 00
        E 321 90 57 60
        E 0 90 63 60
        E 20 80 57 00
        E 0 80 63 00
        E 320 90 56 60
        E 0 90 62 60
        E 20 80 56 00
        E 0 80 62 00
        E 320 90 3e 60
        E 0 90 4b 60
        E 0 90 57 60
        E 0 90 63 60
        E 20 80 3e 00
        E 0 80 4b 00
        E 0 80 57 00
        E 0 80 63 00
        E 320 90 58 60
        E 0 90 64 60
        E 20 80 58 00
        E 0 80 64 00
        E 320 90 4b 60
        E 0 90 57 60
        E 0 90 63 60
        E 20 80 4b 00
        E 0 80 57 00
        E 0 80 63 00
        E 320 90 56 60
        E 0 90 62 60
        E 20 80 56 00
        E 0 80 62 00
        E 200 90 61 60
        E 0 90 62 60
        E 0 90 63 60
        E 20 80 61 00
        E 0 80 62 00
        E 0 80 63 00
        E 320 90 56 60
        E 0 90 58 60
        E 0 90 61 60
        E 0 90 63 60
        E 0 90 64 60
        E 20 80 56 00
        E 0 80 58 00
        E 0 80 61 00
        E 0 80 63 00
        E 0 80 64 00
        E 320 90 3e 60
        E 0 90 4b 60
        E 0 90 4c 60
        E 0 90 57 60
        E 0 90 58 60
        E 0 90 63 60
        E 0 90 64 60
        E 20 80 3e 00
        E 0 80 4b 00
        E 0 80 4c 00
        E 0 80 57 00
        E 0 80 58 00
        E 0 80 63 00
        E 0 80 64 00
        E 280 90 55 60
        E 0 90 56 60
        E 0 90 61 60
        E 0 90 62 60
        E 20 80 55 00
        E 0 80 56 00
        E 0 80 61 00
        E 0 80 62 00
        E 300 90 55 60
        E 0 90 57 60
        E 0 90 61 60
        E 0 90 62 60
        E 0 90 63 60
        E 20 80 55 00
        E 0 80 57 00
        E 0 80 61 00
        E 0 80 62 00
        E 0 80 63 00
        E 300 90 3e 60
        E 0 90 49 60
        E 0 90 4a 60
        E 0 90 55 60
        E 0 90 56 60
        E 0 90 61 60
        E 0 90 62 60
        E 20 80 3e 00
        E 0 80 49 00
        E 0 80 4a 00
        E 0 80 55 00
        E 0 80 56 00
        E 0 80 61 00
        E 0 80 62 00
        E 320 90 57 60
        E 0 90 58 60
        E 0 90 63 60
        E 0 90 64 60
        E 20 80 57 00
        E 0 80 58 00
        E 0 80 63 00
        E 0 80 64 00
        E 280 90 49 60
        E 0 90 4b 60
        E 0 90 55 60
        E 0 90 57 60
        E 0 90 61 60
        E 0 90 62 60
        E 0 90 63 60
        E 20 80 49 00
        E 0 80 4b 00
        E 0 80 55 00
        E 0 80 57 00
        E 0 80 61 00
        E 0 80 62 00
        E 0 80 63 00
        E 300 90 3e 60
        E 0 90 49 60
        E 0 90 4b 60
        E 0 90 55 60
        E 0 90 57 60
        E 0 90 61 60
        E 0 90 62 60
        E 0 90 63 60
        E 20 80 3e 00
        E 0 80 49 00
        E 0 80 4b 00
        E 0 80 55 00
        E 0 80 57 00
        E 0 80 61 00
        E 0 80 62 00
        E 0 80 63 00
        E 320 90 57 60
        E 0 90 58 60
        E 0 90 63 60
        E 0 90 64 60
        E 20 80 57 00
        E 0 80 58 00
        E 0 80 63 00
        E 0 80 64 00
        E 320 90 55 60
        E 0 90 57 60
        E 0 90 61 60
        E 0 90 62 60
        E 0 90 63 60
        E 20 80 55 00
        E 0 80 57 00
        E 0 80 61 00
        E 0 80 62 00
        E 0 80 63 00
        E 280 90 3e 60
        E 0 90 4a 60
        E 0 90 4b 60
        E 0 90 56 60
        E 0 90 58 60
        E 0 90 61 60
        E 0 90 63 60
        E 0 90 64 60
        E 20 80 3e 00
        E 0 80 4a 00
        E 0 80 4b 00
        E 0 80 56 00
        E 0 80 58 00
        E 0 80 61 00
        E 0 80 63 00
        E 0 80 64 00
        E 300 90 57 60
        E 0 90 58 60
        E 0 90 63 60
        E 0 90 64 60
        E 460 80 57 00
        E 0 80 58 00
        E 60 80 63 00
        E 0 80 64 00
        E 60 90 4b 60
        E 0 90 4c 60
        E 0 90 57 60
        E 0 90 58 60
        E 0 90 63 60
        E 0 90 64 60
        E 120 80 4b 00
        E 0 80 4c 00
        E 480 80 57 00
        E 0 80 58 00
        E 40 80 63 00
        E 0 80 64 00
        E 80 90 3e 60
        E 0 90 49 60
        E 0 90 4b 60
        E 0 90 55 60
        E 0 90 57 60
        E 0 90 61 60
        E 0 90 62 60
        E 0 90 63 60
        E 20 80 3e 00
        E 0 80 49 00
        E 0 80 4b 00
        E 0 80 55 00
        E 0 80 57 00
        E 0 80 61 00
        E 0 80 62 00
        E 0 80 63 00
        E 320 90 56 60
        E 0 90 58 60
        E 0 90 61 60
        E 0 90 63 60
        E 0 90 64 60
        E 20 80 56 00
        E 0 80 58 00
        E 0 80 61 00
        E 0 80 63 00
        E 0 80 64 00
        E 320 90 4b 60
        E 0 90 4c 60
        E 0 90 57 60
        E 0 90 58 60
        E 0 90 63 60
        E 0 90 64 60
        E 20 80 4b 00
        E 0 80 4c 00
        E 0 80 57 00
        E 0 80 58 00
        E 0 80 63 00
        E 0 80 64 00
        E 280 90 55 60
        E 0 90 56 60
        E 0 90 61 60
        E 0 90 62 60
        E 20 80 55 00
        E 0 80 56 00
        E 0 80 61 00
        E 0 80 62 00
        E 300 90 3e 60
        E 0 90 49 60
        E 0 90 4b 60
        E 0 90 55 60
        E 0 90 57 60
        E 0 90 61 60
        E 0 90 62 60
        E 0 90 63 60
        E 20 80 3e 00
        E 0 80 49 00
        E 0 80 4b 00
        E 0 80 55 00
        E 0 80 57 00
        E 0 80 61 00
        E 0 80 62 00
        E 0 80 63 00
        E 300 90 55 60
        E 0 90 56 60
        E 0 90 61 60
        E 0 90 62 60
        E 20 80 55 00
        E 0 80 56 00
        E 0 80 61 00
        E 0 80 62 00
        E 320 90 4b 60
        E 0 90 4c 60
        E 0 90 57 60
        E 0 90 58 60
        E 0 90 63 60
        E 0 90 64 60
        E 20 80 4b 00
        E 0 80 4c 00
        E 0 80 57 00
        E 0 80 58 00
        E 0 80 63 00
        E 0 80 64 00
        E 280 90 55 60
        E 0 90 57 60
        E 0 90 61 60
        E 0 90 62 60
        E 0 90 63 60
        E 20 80 55 00
        E 0 80 57 00
        E 0 80 61 00
        E 0 80 62 00
        E 0 80 63 00
        E 300 90 3e 60
        E 0 90 49 60
        E 0 90 4b 60
        E 0 90 55 60
        E 0 90 57 60
        E 0 90 61 60
        E 0 90 62 60
        E 0 90 63 60
        E 20 80 3e 00
        E 0 80 49 00
        E 0 80 4b 00
        E 0 80 55 00
        E 0 80 57 00
        E 0 80 61 00
        E 0 80 62 00
        E 0 80 63 00
        E 320 90 57 60
        E 0 90 58 60
        E 0 90 63 60
        E 0 90 64 60
        E 20 80 57 00
        E 0 80 58 00
        E 0 80 63 00
        E 0 80 64 00
        E 320 90 49 60
        E 0 90 4b 60
        E 0 90 55 60
        E 0 90 57 60
        E 0 90 61 60
        E 0 90 62 60
        E 0 90 63 60
        E 20 80 49 00
        E 0 80 4b 00
        E 0 80 55 00
        E 0 80 57 00
        E 0 80 61 00
        E 0 80 62 00
        E 0 80 63 00
        E 280 90 56 60
        E 0 90 58 60
        E 0 90 61 60
        E 0 90 63 60
        E 0 90 64 60
        E 20 80 56 00
        E 0 80 58 00
        E 0 80 61 00
        E 0 80 63 00
        E 0 80 64 00
        E 300 90 3e 60
        E 0 90 4b 60
        E 0 90 4c 60
        E 0 90 57 60
        E 0 90 58 60
        E 0 90 63 60
        E 0 90 64 60
        E 120 80 3e 00
        E 0 80 4b 00
        E 0 80 4c 00
        E 0 80 57 00
        E 0 80 58 00
        E 400 80 63 00
        E 0 80 64 00
        E 60 90 4b 60
        E 0 90 4c 60
        E 0 90 57 60
        E 0 90 58 60
        E 0 90 63 60
        E 0 90 64 60
        E 120 80 4b 00
        E 0 80 4c 00
        E 0 80 57 00
        E 0 80 58 00
        E 400 80 63 00
        E 0 80 64 00
        E 60 90 3e 60
        E 0 90 49 60
        E 0 90 4b 60
        E 0 90 55 60
        E 0 90 57 60
        E 0 90 61 60
        E 0 90 62 60
        E 0 90 63 60
        E 20 80 3e 00
        E 0 80 49 00
        E 0 80 4b 00
        E 0 80 55 00
        E 0 80 57 00
        E 0 80 61 00
        E 0 80 62 00
        E 0 80 63 00
        E 320 90 56 60
        E 0 90 58 60
        E 0 90 61 60
        E 0 90 63 60
        E 0 90 64 60
        E 20 80 56 00
        E 0 80 58 00
        E 0 80 61 00
        E 0 80 63 00
        E 0 80 64 00
        E 320 90 4b 60
        E 0 90 4c 60
        E 0 90 57 60
        E 0 90 58 60
        E 0 90 63 60
        E 0 90 64 60
        E 20 80 4b 00
        E 0 80 4c 00
        E 0 80 57 00
        E 0 80 58 00
        E 0 80 63 00
        E 0 80 64 00
        E 280 90 55 60
        E 0 90 56 60
        E 0 90 61 60
        E 0 90 62 60
        E 20 80 55 00
        E 0 80 56 00
        E 0 80 61 00
        E 0 80 62 00
        E 300 90 49 60
        E 0 90 4b 60
        E 0 90 55 60
        E 0 90 57 60
        E 0 90 61 60
        E 0 90 62 60
        E 0 90 63 60
        E 20 80 49 00
        E 0 80 4b 00
        E 0 80 55 00
        E 0 80 57 00
        E 0 80 61 00
        E 0 80 62 00
        E 0 80 63 00
        E 300 90 55 60
        E 0 90 56 60
        E 0 90 61 60
        E 0 90 62 60
        E 20 80 55 00
        E 0 80 56 00
        E 0 80 61 00
        E 0 80 62 00
        E 320 90 3e 60
        E 0 90 4b 60
        E 0 90 4c 60
        E 0 90 57 60
        E 0 90 58 60
        E 0 90 63 60
        E 0 90 64 60
        E 20 80 3e 00
        E 0 80 4b 00
        E 0 80 4c 00
        E 0 80 57 00
        E 0 80 58 00
        E 0 80 63 00
        E 0 80 64 00
        E 280 90 55 60
        E 0 90 57 60
        E 0 90 61 60
        E 0 90 62 60
        E 0 90 63 60
        E 20 80 55 00
        E 0 80 57 00
        E 0 80 61 00
        E 0 80 62 00
        E 0 80 63 00
        E 300 90 55 60
        E 0 90 57 60
        E 0 90 61 60
        E 0 90 62 60
        E 0 90 63 60
        E 20 80 55 00
        E 0 80 57 00
        E 0 80 61 00
        E 0 80 62 00
        E 0 80 63 00
        E 320 90 3e 60
        E 0 90 4b 60
        E 0 90 4c 60
        E 0 90 57 60
        E 0 90 58 60
        E 0 90 63 60
        E 0 90 64 60
        E 20 80 3e 00
        E 0 80 4b 00
        E 0 80 4c 00
        E 0 80 57 00
        E 0 80 58 00
        E 0 80 63 00
        E 0 80 64 00
        E 320 90 55 60
        E 0 90 57 60
        E 0 90 61 60
        E 0 90 62 60
        E 0 90 63 60
        E 20 80 55 00
        E 0 80 57 00
        E 0 80 61 00
        E 0 80 62 00
        E 0 80 63 00
        E 280 90 56 60
        E 0 90 58 60
        E 0 90 61 60
        E 0 90 63 60
        E 0 90 64 60
        E 20 80 56 00
        E 0 80 58 00
        E 0 80 61 00
        E 0 80 63 00
        E 0 80 64 00
        E 300 90 3e 60
        E 0 90 4b 60
        E 0 90 4c 60
        E 0 90 57 60
        E 0 90 58 60
        E 0 90 63 60
        E 0 90 64 60
        E 120 80 3e 00
        E 0 80 4b 00
        E 0 80 4c 00
        E 340 80 57 00
        E 0 80 58 00
        E 60 80 63 00
        E 0 80 64 00
        E 60 90 4b 60
        E 0 90 4c 60
        E 0 90 57 60
        E 0 90 58 60
        E 0 90 63 60
        E 0 90 64 60
        E 120 80 4b 00
        E 0 80 4c 00
        E 0 80 57 00
        E 0 80 58 00
        E 520 80 63 00
        E 0 80 64 00
        E 40 90 49 60
        E 0 90 4b 60
        E 0 90 55 60
        E 0 90 57 60
        E 0 90 61 60
        E 0 90 62 60
        E 0 90 63 60
        E 20 80 49 00
        E 0 80 4b 00
        E 0 80 55 00
        E 0 80 57 00
        E 0 80 61 00
        E 0 80 62 00
        E 0 80 63 00
        E 320 90 56 60
        E 0 90 58 60
        E 0 90 61 60
        E 0 90 63 60
        E 0 90 64 60
        E 20 80 56 00
        E 0 80 58 00
        E 0 80 61 00
        E 0 80 63 00
        E 0 80 64 00
        E 320 90 3e 60
        E 0 90 4b 60
        E 0 90 4c 60
        E 0 90 57 60
        E 0 90 58 60
        E 0 90 63 60
        E 0 90 64 60
        E 20 80 3e 00
        E 0 80 4b 00
        E 0 80 4c 00
        E 0 80 57 00
        E 0 80 58 00
        E 0 80 63 00
        E 0 80 64 00
        E 280 90 55 60
        E 0 90 56 60
        E 0 90 61 60
        E 0 90 62 60
        E 20 80 55 00
        E 0 80 56 00
        E 0 80 61 00
        E 0 80 62 00
        E 300 90 55 60
        E 0 90 57 60
        E 0 90 61 60
        E 0 90 62 60
        E 0 90 63 60
        E 20 80 55 00
        E 0 80 57 00
        E 0 80 61 00
        E 0 80 62 00
        E 0 80 63 00
        E 300 90 3e 60
        E 0 90 49 60
        E 0 90 4a 60
        E 0 90 55 60
        E 0 90 56 60
        E 0 90 61 60
        E 0 90 62 60
        E 20 80 3e 00
        E 0 80 49 00
        E 0 80 4a 00
        E 0 80 55 00
        E 0 80 56 00
        E 0 80 61 00
        E 0 80 62 00
        E 320 90 57 60
        E 0 90 58 60
        E 0 90 63 60
        E 0 90 64 60
        E 20 80 57 00
        E 0 80 58 00
        E 0 80 63 00
        E 0 80 64 00
        E 280 90 49 60
        E 0 90 4b 60
        E 0 90 55 60
        E 0 90 57 60
        E 0 90 61 60
        E 0 90 62 60
        E 0 90 63 60
        E 20 80 49 00
        E 0 80 4b 00
        E 0 80 55 00
        E 0 80 57 00
        E 0 80 61 00
        E 0 80 62 00
        E 0 80 63 00
        E 300 90 3e 60
        E 0 90 49 60
        E 0 90 4b 60
        E 0 90 55 60
        E 0 90 57 60
        E 0 90 61 60
        E 0 90 62 60
        E 0 90 63 60
        E 20 80 3e 00
        E 0 80 49 00
        E 0 80 4b 00
        E 0 80 55 00
        E 0 80 57 00
        E 0 80 61 00
        E 0 80 62 00
        E 0 80 63 00
        E 320 90 57 60
        E 0 90 58 60
        E 0 90 63 60
        E 0 90 64 60
        E 20 80 57 00
        E 0 80 58 00
        E 0 80 63 00
        E 0 80 64 00
        E 320 90 55 60
        E 0 90 57 60
        E 0 90 61 60
        E 0 90 62 60
        E 0 90 63 60
        E 20 80 55 00
        E 0 80 57 00
        E 0 80 61 00
        E 0 80 62 00
        E 0 80 63 00
        E 280 90 3e 60
        E 0 90 4a 60
        E 0 90 4b 60
        E 0 90 56 60
        E 0 90 58 60
        E 0 90 61 60
        E 0 90 63 60
        E 0 90 64 60
        E 20 80 3e 00
        E 0 80 4a 00
        E 0 80 4b 00
        E 0 80 56 00
        E 0 80 58 00
        E 0 80 61 00
        E 0 80 63 00
        E 0 80 64 00
        E 300 90 57 60
        E 0 90 58 60
        E 0 90 63 60
        E 0 90 64 60
        E 120 80 57 00
        E 0 80 58 00
        E 400 80 63 00
        E 0 80 64 00
        E 60 90 4b 60
        E 0 90 4c 60
        E 0 90 57 60
        E 0 90 58 60
        E 0 90 63 60
        E 0 90 64 60
        E 120 80 4b 00
        E 0 80 4c 00
        E 0 80 57 00
        E 0 80 58 00
        E 420 80 63 00
        E 0 80 64 00
        E 120 90 3c 60
        E 0 90 48 60
        E 0 90 54 60
        E 0 90 60 60
        E 20 80 3c 00
        E 0 80 48 00
        E 0 80 54 00
        E 0 80 60 00
        E 220 90 57 60
        E 0 90 63 60
        E 20 80 57 00
        E 0 80 63 00
        E 300 90 49 60
        E 0 90 55 60
        E 0 90 61 60
        E 20 80 49 00
        E 0 80 55 00
        E 0 80 61 00
        E 320 90 56 60
        E 0 90 62 60
        E 20 80 56 00
        E 0 80 62 00
        E 320 90 3e 60
        E 0 90 4b 60
        E 0 90 57 60
        E 0 90 63 60
        E 20 80 3e 00
        E 0 80 4b 00
        E 0 80 57 00
        E 0 80 63 00
        E 300 90 56 60
        E 0 90 62 60
        E 20 80 56 00
        E 0 80 62 00
        E 340 90 55 60
        E 0 90 61 60
        E 20 80 55 00
        E 0 80 61 00
        E 340 90 3d 60
        E 0 90 4a 60
        E 0 90 56 60
        E 0 90 62 60
        E 20 80 3d 00
        E 0 80 4a 00
        E 0 80 56 00
        E 0 80 62 00
        E 260 90 74 60
        E 80 90 57 60
        E 0 90 63 60
        E 20 80 57 00
        E 0 80 63 00
        E 340 90 4b 60
        E 0 90 58 60
        E 0 90 64 60
        E 20 80 4b 00
        E 0 80 58 00
        E 0 80 64 00
        E 340 90 57 60
        E 0 90 63 60
        E 20 80 57 00
        E 0 80 63 00
        E 340 90 3e 60
        E 0 90 4b 60
        E 0 90 58 60
        E 0 90 64 60
        E 20 80 3e 00
        E 0 80 4b 00
        E 0 80 58 00
        E 0 80 64 00
        E 340 90 57 60
        E 0 90 63 60
        E 20 80 57 00
        E 0 80 63 00
        E 340 90 4b 60
        E 0 90 58 60
        E 0 90 64 60
        E 20 80 4b 00
        E 0 80 58 00
        E 0 80 64 00
        E 340 90 57 60
        E 0 90 63 60
        E 20 80 57 00
        E 0 80 63 00
        E 340 90 3e 60
        E 0 90 4b 60
        E 0 90 58 60
        E 0 90 64 60
        E 2180 80 3e 00
        E 0 80 4b 00
        E 0 80 58 00
        E 0 80 64 00
        E 340 90 57 60
        E 0 90 63 60
        E 20 80 57 00
        E 0 80 63 00
        E 340 90 3e 60
        E 0 90 4b 60
        E 0 90 58 60
        E 0 90 64 60
        E 20 80 3e 00
        E 0 80 4b 00
        E 0 80 58 00
        E 0 80 64 00
        E 340 90 57 60
        E 0 90 63 60
        E 20 80 57 00
        E 0 80 63 00
        E 340 90 4b 60
        E 0 90 58 60
        E 0 90 64 60
        E 20 80 4b 00
        E 0 80 58 00
        E 0 80 64 00
        E 340 90 57 60
        E 0 90 63 60
        E 20 80 57 00
        E 0 80 63 00
        E 340 90 3e 60
        E 0 90 4b 60
        E 0 90 58 60
        E 0 90 64 60
        E 20 80 3e 00
        E 0 80 4b 00
        E 0 80 58 00
        E 0 80 64 00
        E 340 90 57 60
        E 0 90 63 60
        E 20 80 57 00
        E 0 80 63 00
        E 340 90 4b 60
        E 0 90 58 60
        E 0 90 64 60
        E 2160 80 4b 00
        E 20 80 58 00
        E 0 80 64 00
        E 80 80 74 00
        E 260 90 3c 60
        E 0 90 48 60
        E 0 90 54 60
        E 0 90 60 60
        E 20 80 3c 00
        E 0 80 48 00
        E 0 80 54 00
        E 0 80 60 00
        E 220 90 57 60
        E 0 90 63 60
        E 20 80 57 00
        E 0 80 63 00
        E 300 90 49 60
        E 0 90 55 60
        E 0 90 61 60
        E 20 80 49 00
        E 0 80 55 00
        E 0 80 61 00
        E 320 90 56 60
        E 0 90 62 60
        E 20 80 56 00
        E 0 80 62 00
        E 320 90 57 60
        E 0 90 63 60
        E 20 80 57 00
        E 0 80 63 00
        E 300 90 3d 60
        E 0 90 4a 60
        E 0 90 56 60
        E 0 90 62 60
        E 20 80 3d 00
        E 0 80 4a 00
        E 0 80 56 00
        E 0 80 62 00
        E 340 90 55 60
        E 0 90 61 60
        E 20 80 55 00
        E 0 80 61 00
        E 340 90 4a 60
        E 0 90 56 60
        E 0 90 62 60
        E 20 80 4a 00
        E 0 80 56 00
        E 0 80 62 00
        E 340 90 57 60
        E 0 90 63 60
        E 20 80 57 00
        E 0 80 63 00
        E 320 90 3d 60
        E 0 90 4a 60
        E 0 90 56 60
        E 0 90 62 60
        E 20 80 3d 00
        E 0 80 4a 00
        E 0 80 56 00
        E 0 80 62 00
        E 320 90 55 60
        E 0 90 61 60
        E 20 80 55 00
        E 0 80 61 00
        E 320 90 4a 60
        E 0 90 56 60
        E 0 90 62 60
        E 20 80 4a 00
        E 0 80 56 00
        E 0 80 62 00
        E 320 90 57 60
        E 0 90 63 60
        E 20 80 57 00
        E 0 80 63 00
        E 320 90 3e 60
        E 0 90 4b 60
        E 0 90 58 60
        E 0 90 64 60
        E 20 80 3e 00
        E 0 80 4b 00
        E 0 80 58 00
        E 0 80 64 00
        E 340 90 57 60
        E 0 90 63 60
        E 20 80 57 00
        E 0 80 63 00
        E 320 90 48 60
        E 0 90 54 60
        E 0 90 60 60
        E 20 80 48 00
        E 0 80 54 00
        E 0 80 60 00
        E 220 90 57 60
        E 0 90 63 60
        E 20 80 57 00
        E 0 80 63 00
        E 340 90 3e 60
        E 0 90 4b 60
        E 0 90 58 60
        E 0 90 64 60
        E 20 80 3e 00
        E 0 80 4b 00
        E 0 80 58 00
        E 0 80 64 00
        E 340 90 57 60
        E 0 90 63 60
        E 20 80 57 00
        E 0 80 63 00
        E 340 90 3e 60
        E 0 90 4b 60
        E 0 90 58 60
        E 0 90 64 60
        E 20 80 3e 00
        E 0 80 4b 00
        E 0 80 58 00
        E 0 80 64 00
        E 340 90 57 60
        E 0 90 63 60
        E 20 80 57 00
        E 0 80 63 00
        E 340 90 4b 60
        E 0 90 58 60
        E 0 90 64 60
        E 20 80 4b 00
        E 0 80 58 00
        E 0 80 64 00
        E 340 90 57 60
        E 0 90 63 60
        E 20 80 57 00
        E 0 80 63 00
        E 340 90 3e 60
        E 0 90 4b 60
        E 0 90 58 60
        E 0 90 64 60
        E 2180 80 3e 00
        E 0 80 4b 00
        E 0 80 58 00
        E 0 80 64 00
        E 340 90 57 60
        E 0 90 63 60
        E 20 80 57 00
        E 0 80 63 00
        E 340 90 3e 60
        E 0 90 4b 60
        E 0 90 58 60
        E 0 90 64 60
        E 20 80 3e 00
        E 0 80 4b 00
        E 0 80 58 00
        E 0 80 64 00
        E 340 90 57 60
        E 0 90 63 60
        E 20 80 57 00
        E 0 80 63 00
        E 340 90 4b 60
        E 0 90 58 60
        E 0 90 64 60
        E 20 80 4b 00
        E 0 80 58 00
        E 0 80 64 00
        E 340 90 57 60
        E 0 90 63 60
        E 20 80 57 00
        E 0 80 63 00
        E 340 90 3e 60
        E 0 90 4b 60
        E 0 90 58 60
        E 0 90 64 60
        E 20 80 3e 00
        E 0 80 4b 00
        E 0 80 58 00
        E 0 80 64 00
        E 340 90 57 60
        E 0 90 63 60
        E 20 80 57 00
        E 0 80 63 00
        E 340 90 4b 60
        E 0 90 58 60
        E 0 90 64 60
        E 2160 80 4b 00
        E 20 80 58 00
        E 0 80 64 00
        E 340 90 3c 60
        E 0 90 48 60
        E 0 90 54 60
        E 0 90 60 60
        E 20 80 3c 00
        E 0 80 48 00
        E 0 80 54 00
        E 0 80 60 00
        E 220 90 57 60
        E 0 90 63 60
        E 20 80 57 00
        E 0 80 63 00
        E 300 90 49 60
        E 0 90 55 60
        E 0 90 61 60
        E 20 80 49 00
        E 0 80 55 00
        E 0 80 61 00
        E 260 90 2b 60
        E 60 90 56 60
        E 0 90 62 60
        E 20 80 56 00
        E 0 80 62 00
        E 260 80 2b 00
        E 60 90 57 60
        E 0 90 63 60
        E 20 80 57 00
        E 0 80 63 00
        E 300 90 3d 60
        E 0 90 4a 60
        E 0 90 56 60
        E 0 90 62 60
        E 20 80 3d 00
        E 0 80 4a 00
        E 0 80 56 00
        E 0 80 62 00
        E 340 90 55 60
        E 0 90 61 60
        E 20 80 55 00
        E 0 80 61 00
        E 340 90 4a 60
        E 0 90 56 60
        E 0 90 62 60
        E 20 80 4a 00
        E 0 80 56 00
        E 0 80 62 00
        E 380 90 55 60
        E 0 90 57 60
        E 0 90 61 60
        E 0 90 62 60
        E 0 90 63 60
        E 20 80 55 00
        E 0 80 57 00
        E 0 80 61 00
        E 0 80 62 00
        E 0 80 63 00
        E 320 90 3e 60
        E 0 90 4a 60
        E 0 90 4b 60
        E 0 90 56 60
        E 0 90 58 60
        E 0 90 61 60
        E 0 90 63 60
        E 0 90 64 60
        E 20 80 3e 00
        E 0 80 4a 00
        E 0 80 4b 00
        E 0 80 56 00
        E 0 80 58 00
        E 0 80 61 00
        E 0 80 63 00
        E 0 80 64 00
        E 320 90 57 60
        E 0 90 58 60
        E 0 90 63 60
        E 0 90 64 60
        E 20 80 57 00
        E 0 80 58 00
        E 0 80 63 00
        E 0 80 64 00
        E 280 90 55 60
        E 0 90 56 60
        E 0 90 61 60
        E 0 90 62 60
        E 20 80 55 00
        E 0 80 56 00
        E 0 80 61 00
        E 0 80 62 00
        E 300 90 3e 60
        E 0 90 49 60
        E 0 90 4b 60
        E 0 90 55 60
        E 0 90 57 60
        E 0 90 61 60
        E 0 90 62 60
        E 0 90 63 60
        E 20 80 3e 00
        E 0 80 49 00
        E 0 80 4b 00
        E 0 80 55 00
        E 0 80 57 00
        E 0 80 61 00
        E 0 80 62 00
        E 0 80 63 00
        E 300 90 55 60
        E 0 90 56 60
        E 0 90 61 60
        E 0 90 62 60
        E 20 80 55 00
        E 0 80 56 00
        E 0 80 61 00
        E 0 80 62 00
        E 320 90 57 60
        E 0 90 58 60
        E 0 90 63 60
        E 0 90 64 60
        E 20 80 57 00
        E 0 80 58 00
        E 0 80 63 00
        E 0 80 64 00
        E 280 90 3e 60
        E 0 90 49 60
        E 0 90 4b 60
        E 0 90 55 60
        E 0 90 57 60
        E 0 90 61 60
        E 0 90 62 60
        E 0 90 63 60
        E 20 80 3e 00
        E 0 80 49 00
        E 0 80 4b 00
        E 0 80 55 00
        E 0 80 57 00
        E 0 80 61 00
        E 0 80 62 00
        E 0 80 63 00
        E 300 90 55 60
        E 0 90 57 60
        E 0 90 61 60
        E 0 90 62 60
        E 0 90 63 60
        E 20 80 55 00
        E 0 80 57 00
        E 0 80 61 00
        E 0 80 62 00
        E 0 80 63 00
        E 320 90 4b 60
        E 0 90 4c 60
        E 0 90 57 60
        E 0 90 58 60
        E 0 90 63 60
        E 0 90 64 60
        E 20 80 4b 00
        E 0 80 4c 00
        E 0 80 57 00
        E 0 80 58 00
        E 0 80 63 00
        E 0 80 64 00
        E 320 90 55 60
        E 0 90 57 60
        E 0 90 61 60
        E 0 90 62 60
        E 0 90 63 60
        E 20 80 55 00
        E 0 80 57 00
        E 0 80 61 00
        E 0 80 62 00
        E 0 80 63 00
        E 280 90 3e 60
        E 0 90 4a 60
        E 0 90 4b 60
        E 0 90 56 60
        E 0 90 58 60
        E 0 90 61 60
        E 0 90 63 60
        E 0 90 64 60
        E 20 80 3e 00
        E 0 80 4a 00
        E 0 80 4b 00
        E 0 80 56 00
        E 0 80 58 00
        E 0 80 61 00
        E 0 80 63 00
        E 0 80 64 00
        E 300 90 57 60
        E 0 90 58 60
        E 0 90 63 60
        E 0 90 64 60
        E 120 80 57 00
        E 0 80 58 00
        E 400 80 63 00
        E 0 80 64 00
        E 60 90 4b 60
        E 0 90 4c 60
        E 0 90 57 60
        E 0 90 58 60
        E 0 90 63 60
        E 0 90 64 60
        E 120 80 4b 00
        E 0 80 4c 00
        E 0 80 57 00
        E 0 80 58 00
        E 520 80 63 00
        E 0 80 64 00
        E 80 90 3e 60
        E 0 90 49 60
        E 0 90 4b 60
        E 0 90 55 60
        E 0 90 57 60
        E 0 90 61 60
        E 0 90 62 60
        E 0 90 63 60
        E 20 80 3e 00
        E 0 80 49 00
        E 0 80 4b 00
        E 0 80 55 00
        E 0 80 57 00
        E 0 80 61 00
        E 0 80 62 00
        E 0 80 63 00
        E 320 90 56 60
        E 0 90 58 60
        E 0 90 61 60
        E 0 90 63 60
        E 0 90 64 60
        E 20 80 56 00
        E 0 80 58 00
        E 0 80 61 00
        E 0 80 63 00
        E 0 80 64 00
        E 320 90 4b 60
        E 0 90 4c 60
        E 0 90 57 60
        E 0 90 58 60
        E 0 90 63 60
        E 0 90 64 60
        E 20 80 4b 00
        E 0 80 4c 00
        E 0 80 57 00
        E 0 80 58 00
        E 0 80 63 00
        E 0 80 64 00
        E 280 90 55 60
        E 0 90 56 60
        E 0 90 61 60
        E 0 90 62 60
        E 20 80 55 00
        E 0 80 56 00
        E 0 80 61 00
        E 0 80 62 00
        E 300 90 3e 60
        E 0 90 49 60
        E 0 90 4b 60
        E 0 90 55 60
        E 0 90 57 60
        E 0 90 61 60
        E 0 90 62 60
        E 0 90 63 60
        E 20 80 3e 00
        E 0 80 49 00
        E 0 80 4b 00
        E 0 80 55 00
        E 0 80 57 00
        E 0 80 61 00
        E 0 80 62 00
        E 0 80 63 00
        E 300 90 55 60
        E 0 90 56 60
        E 0 90 61 60
        E 0 90 62 60
        E 20 80 55 00
        E 0 80 56 00
        E 0 80 61 00
        E 0 80 62 00
        E 320 90 4b 60
        E 0 90 4c 60
        E 0 90 57 60
        E 0 90 58 60
        E 0 90 63 60
        E 0 90 64 60
        E 20 80 4b 00
        E 0 80 4c 00
        E 0 80 57 00
        E 0 80 58 00
        E 0 80 63 00
        E 0 80 64 00
        E 280 90 55 60
        E 0 90 57 60
        E 0 90 61 60
        E 0 90 62 60
        E 0 90 63 60
        E 20 80 55 00
        E 0 80 57 00
        E 0 80 61 00
        E 0 80 62 00
        E 0 80 63 00
        E 300 90 3e 60
        E 0 90 49 60
        E 0 90 4b 60
        E 0 90 55 60
        E 0 90 57 60
        E 0 90 61 60
        E 0 90 62 60
        E 0 90 63 60
        E 20 80 3e 00
        E 0 80 49 00
        E 0 80 4b 00
        E 0 80 55 00
        E 0 80 57 00
        E 0 80 61 00
        E 0 80 62 00
        E 0 80 63 00
        E 320 90 57 60
        E 0 90 58 60
        E 0 90 63 60
        E 0 90 64 60
        E 20 80 57 00
        E 0 80 58 00
        E 0 80 63 00
        E 0 80 64 00
        E 320 90 49 60
        E 0 90 4b 60
        E 0 90 55 60
        E 0 90 57 60
        E 0 90 61 60
        E 0 90 62 60
        E 0 90 63 60
        E 20 80 49 00
        E 0 80 4b 00
        E 0 80 55 00
        E 0 80 57 00
        E 0 80 61 00
        E 0 80 62 00
        E 0 80 63 00
        E 280 90 56 60
        E 0 90 58 60
        E 0 90 61 60
        E 0 90 63 60
        E 0 90 64 60
        E 20 80 56 00
        E 0 80 58 00
        E 0 80 61 00
        E 0 80 63 00
        E 0 80 64 00
        E 300 90 3e 60
        E 0 90 4b 60
        E 0 90 4c 60
        E 0 90 57 60
        E 0 90 58 60
        E 0 90 63 60
        E 0 90 64 60
        E 120 80 3e 00
        E 0 80 4b 00
        E 0 80 4c 00
        E 0 80 57 00
        E 0 80 58 00
        E 400 80 63 00
        E 0 80 64 00
        E 60 90 4b 60
        E 0 90 4c 60
        E 0 90 57 60
        E 0 90 58 60
        E 0 90 63 60
        E 0 90 64 60
        E 120 80 4b 00
        E 0 80 4c 00
        E 0 80 57 00
        E 0 80 58 00
        E 400 80 63 00
        E 0 80 64 00
        E 60 90 49 60
        E 0 90 4b 60
        E 0 90 55 60
        E 0 90 57 60
        E 0 90 61 60
        E 0 90 62 60
        E 0 90 63 60
        E 20 80 49 00
        E 0 80 4b 00
        E 0 80 55 00
        E 0 80 57 00
        E 0 80 61 00
        E 0 80 62 00
        E 0 80 63 00
        E 240 90 74 60
        E 80 90 56 60
        E 0 90 58 60
        E 0 90 61 60
        E 0 90 63 60
        E 0 90 64 60
        E 20 80 56 00
        E 0 80 58 00
        E 0 80 61 00
        E 0 80 63 00
        E 0 80 64 00
        E 320 90 3e 60
        E 0 90 4b 60
        E 0 90 4c 60
        E 0 90 57 60
        E 0 90 58 60
        E 0 90 63 60
        E 0 90 64 60
        E 20 80 3e 00
        E 0 80 4b 00
        E 0 80 4c 00
        E 0 80 57 00
        E 0 80 58 00
        E 0 80 63 00
        E 0 80 64 00
        E 280 90 55 60
        E 0 90 56 60
        E 0 90 61 60
        E 0 90 62 60
        E 20 80 55 00
        E 0 80 56 00
        E 0 80 61 00
        E 0 80 62 00
        E 300 90 55 60
        E 0 90 57 60
        E 0 90 61 60
        E 0 90 62 60
        E 0 90 63 60
        E 20 80 55 00
        E 0 80 57 00
        E 0 80 61 00
        E 0 80 62 00
        E 0 80 63 00
        E 300 90 3e 60
        E 0 90 49 60
        E 0 90 4a 60
        E 0 90 55 60
        E 0 90 56 60
        E 0 90 61 60
        E 0 90 62 60
        E 20 80 3e 00
        E 0 80 49 00
        E 0 80 4a 00
        E 0 80 55 00
        E 0 80 56 00
        E 0 80 61 00
        E 0 80 62 00
        E 320 90 57 60
        E 0 90 58 60
        E 0 90 63 60
        E 0 90 64 60
        E 20 80 57 00
        E 0 80 58 00
        E 0 80 63 00
        E 0 80 64 00
        E 280 90 49 60
        E 0 90 4b 60
        E 0 90 55 60
        E 0 90 57 60
        E 0 90 61 60
        E 0 90 62 60
        E 0 90 63 60
        E 20 80 49 00
        E 0 80 4b 00
        E 0 80 55 00
        E 0 80 57 00
        E 0 80 61 00
        E 0 80 62 00
        E 0 80 63 00
        E 300 90 3e 60
        E 0 90 49 60
        E 0 90 4b 60
        E 0 90 55 60
        E 0 90 57 60
        E 0 90 61 60
        E 0 90 62 60
        E 0 90 63 60
        E 20 80 3e 00
        E 0 80 49 00
        E 0 80 4b 00
        E 0 80 55 00
        E 0 80 57 00
        E 0 80 61 00
        E 0 80 62 00
        E 0 80 63 00
        E 320 90 57 60
        E 0 90 58 60
        E 0 90 63 60
        E 0 90 64 60
        E 20 80 57 00
        E 0 80 58 00
        E 0 80 63 00
        E 0 80 64 00
        E 320 90 55 60
        E 0 90 57 60
        E 0 90 61 60
        E 0 90 62 60
        E 0 90 63 60
        E 20 80 55 00
        E 0 80 57 00
        E 0 80 61 00
        E 0 80 62 00
        E 0 80 63 00
        E 280 90 3e 60
        E 0 90 4a 60
        E 0 90 4b 60
        E 0 90 56 60
        E 0 90 58 60
        E 0 90 61 60
        E 0 90 63 60
        E 0 90 64 60
        E 20 80 3e 00
        E 0 80 4a 00
        E 0 80 4b 00
        E 0 80 56 00
        E 0 80 58 00
        E 0 80 61 00
        E 0 80 63 00
        E 0 80 64 00
        E 300 90 57 60
        E 0 90 58 60
        E 0 90 63 60
        E 0 90 64 60
        E 120 80 57 00
        E 0 80 58 00
        E 400 80 63 00
        E 0 80 64 00
        E 60 90 4b 60
        E 0 90 4c 60
        E 0 90 57 60
        E 0 90 58 60
        E 0 90 63 60
        E 0 90 64 60
        E 120 80 4b 00
        E 0 80 4c 00
        E 0 80 57 00
        E 0 80 58 00
        E 520 80 63 00
        E 0 80 64 00
        E 20 80 74 00
        E 20 90 55 60
        E 0 90 57 60
        E 0 90 61 60
        E 0 90 62 60
        E 0 90 63 60
        E 20 80 55 00
        E 0 80 57 00
        E 0 80 61 00
        E 0 80 62 00
        E 0 80 63 00
        E 320 90 3e 60
        E 0 90 4a 60
        E 0 90 4b 60
        E 0 90 56 60
        E 0 90 58 60
        E 0 90 61 60
        E 0 90 63 60
        E 0 90 64 60
        E 20 80 3e 00
        E 0 80 4a 00
        E 0 80 4b 00
        E 0 80 56 00
        E 0 80 58 00
        E 0 80 61 00
        E 0 80 63 00
        E 0 80 64 00
        E 320 90 57 60
        E 0 90 58 60
        E 0 90 63 60
        E 0 90 64 60
        E 20 80 57 00
        E 0 80 58 00
        E 0 80 63 00
        E 0 80 64 00
        E 280 90 55 60
        E 0 90 56 60
        E 0 90 61 60
        E 0 90 62 60
        E 20 80 55 00
        E 0 80 56 00
        E 0 80 61 00
        E 0 80 62 00
        E 300 90 3e 60
        E 0 90 49 60
        E 0 90 4b 60
        E 0 90 55 60
        E 0 90 57 60
        E 0 90 61 60
        E 0 90 62 60
        E 0 90 63 60
        E 20 80 3e 00
        E 0 80 49 00
        E 0 80 4b 00
        E 0 80 55 00
        E 0 80 57 00
        E 0 80 61 00
        E 0 80 62 00
        E 0 80 63 00
        E 300 90 55 60
        E 0 90 56 60
        E 0 90 61 60
        E 0 90 62 60
        E 20 80 55 00
        E 0 80 56 00
        E 0 80 61 00
        E 0 80 62 00
        E 320 90 57 60
        E 0 90 58 60
        E 0 90 63 60
        E 0 90 64 60
        E 20 80 57 00
        E 0 80 58 00
        E 0 80 63 00
        E 0 80 64 00
        E 280 90 3e 60
        E 0 90 49 60
        E 0 90 4b 60
        E 0 90 55 60
        E 0 90 57 60
        E 0 90 61 60
        E 0 90 62 60
        E 0 90 63 60
        E 20 80 3e 00
        E 0 80 49 00
        E 0 80 4b 00
        E 0 80 55 00
        E 0 80 57 00
        E 0 80 61 00
        E 0 80 62 00
        E 0 80 63 00
        E 300 90 55 60
        E 0 90 57 60
        E 0 90 61 60
        E 0 90 62 60
        E 0 90 63 60
        E 20 80 55 00
        E 0 80 57 00
        E 0 80 61 00
        E 0 80 62 00
        E 0 80 63 00
        E 320 90 4b 60
        E 0 90 4c 60
        E 0 90 57 60
        E 0 90 58 60
        E 0 90 63 60
        E 0 90 64 60
        E 20 80 4b 00
        E 0 80 4c 00
        E 0 80 57 00
        E 0 80 58 00
        E 0 80 63 00
        E 0 80 64 00
        E 320 90 55 60
        E 0 90 57 60
        E 0 90 61 60
        E 0 90 62 60
        E 0 90 63 60
        E 20 80 55 00
        E 0 80 57 00
        E 0 80 61 00
        E 0 80 62 00
        E 0 80 63 00
        E 280 90 3e 60
        E 0 90 4a 60
        E 0 90 4b 60
        E 0 90 56 60
        E 0 90 58 60
        E 0 90 61 60
        E 0 90 63 60
        E 0 90 64 60
        E 20 80 3e 00
        E 0 80 4a 00
        E 0 80 4b 00
        E 0 80 56 00
        E 0 80 58 00
        E 0 80 61 00
        E 0 80 63 00
        E 0 80 64 00
        E 300 90 57 60
        E 0 90 58 60
        E 0 90 63 60
        E 0 90 64 60
        E 120 80 57 00
        E 0 80 58 00
        E 400 80 63 00
        E 0 80 64 00
        E 60 90 4b 60
        E 0 90 4c 60
        E 0 90 57 60
        E 0 90 58 60
        E 0 90 63 60
        E 0 90 64 60
        E 120 80 4b 00
        E 0 80 4c 00
        E 0 80 57 00
        E 0 80 58 00
        E 420 80 63 00
        E 0 80 64 00
        E 120 90 3c 60
        E 0 90 48 60
        E 0 90 54 60
        E 0 90 60 60
        E 20 80 3c 00
        E 0 80 48 00
        E 0 80 54 00
        E 0 80 60 00
        E 220 90 57 60
        E 0 90 63 60
        E 20 80 57 00
        E 0 80 63 00
        E 300 90 49 60
        E 0 90 55 60
        E 0 90 61 60
        E 20 80 49 00
        E 0 80 55 00
        E 0 80 61 00
        E 320 90 56 60
        E 0 90 62 60
        E 20 80 56 00
        E 0 80 62 00
        E 320 90 4b 60
        E 0 90 57 60
        E 0 90 63 60
        E 20 80 4b 00
        E 0 80 57 00
        E 0 80 63 00
        E 300 90 56 60
        E 0 90 62 60
        E 20 80 56 00
        E 0 80 62 00
        E 340 90 3c 60
        E 0 90 49 60
        E 0 90 55 60
        E 0 90 61 60
        E 20 80 3c 00
        E 0 80 49 00
        E 0 80 55 00
        E 0 80 61 00
        E 320 90 56 60
        E 0 90 62 60
        E 20 80 56 00
        E 0 80 62 00
        E 320 90 4b 60
        E 0 90 57 60
        E 0 90 63 60
        E 20 80 4b 00
        E 0 80 57 00
        E 0 80 63 00
        E 320 90 56 60
        E 0 90 62 60
        E 20 80 56 00
        E 0 80 62 00
        E 320 90 3c 60
        E 0 90 49 60
        E 0 90 55 60
        E 0 90 61 60
        E 20 80 3c 00
        E 0 80 49 00
        E 0 80 55 00
        E 0 80 61 00
        E 320 90 56 60
        E 0 90 62 60
        E 20 80 56 00
        E 0 80 62 00
        E 320 90 57 60
        E 0 90 63 60
        E 20 80 57 00
        E 0 80 63 00
        E 320 90 3e 60
        E 0 90 4b 60
        E 0 90 58 60
        E 0 90 64 60
        E 20 80 3e 00
        E 0 80 4b 00
        E 0 80 58 00
        E 0 80 64 00
        E 320 90 57 60
        E 0 90 63 60
        E 20 80 57 00
        E 0 80 63 00
        E 320 90 48 60
        E 0 90 54 60
        E 0 90 60 60
        E 20 80 48 00
        E 0 80 54 00
        E 0 80 60 00
        E 320 90 55 60
        E 0 90 61 60
        E 20 80 55 00
        E 0 80 61 00
        E 320 90 3d 60
        E 0 90 4a 60
        E 0 90 56 60
        E 0 90 62 60
        E 20 80 3d 00
        E 0 80 4a 00
        E 0 80 56 00
        E 0 80 62 00
        E 320 90 55 60
        E 0 90 61 60
        E 20 80 55 00
        E 0 80 61 00
        E 320 90 4a 60
        E 0 90 56 60
        E 0 90 62 60
        E 20 80 4a 00
        E 0 80 56 00
        E 0 80 62 00
        E 320 90 57 60
        E 0 90 63 60
        E 20 80 57 00
        E 0 80 63 00
        E 320 90 4a 60
        E 0 90 56 60
        E 0 90 62 60
        E 20 80 4a 00
        E 0 80 56 00
        E 0 80 62 00
        E 320 90 56 60
        E 0 90 62 60
        E 20 80 56 00
        E 0 80 62 00
        E 320 90 3e 60
        E 0 90 4b 60
        E 0 90 57 60
        E 0 90 63 60
        E 20 80 3e 00
        E 0 80 4b 00
        E 0 80 57 00
        E 0 80 63 00
        E 320 90 58 60
        E 0 90 64 60
        E 20 80 58 00
        E 0 80 64 00
        E 320 90 4b 60
        E 0 90 57 60
        E 0 90 63 60
        E 20 80 4b 00
        E 0 80 57 00
        E 0 80 63 00
        E 320 90 56 60
        E 0 90 62 60
        E 20 80 56 00
        E 0 80 62 00
        E 320 90 3e 60
        E 0 90 4b 60
        E 0 90 57 60
        E 0 90 63 60
        E 20 80 3e 00
        E 0 80 4b 00
        E 0 80 57 00
        E 0 80 63 00
        E 320 90 58 60
        E 0 90 64 60
        E 20 80 58 00
        E 0 80 64 00
        E 720 90 3c 60
        E 0 90 48 60
        E 0 90 54 60
        E 0 90 60 60
        E 20 80 3c 00
        E 0 80 48 00
        E 0 80 54 00
        E 0 80 60 00
        E 220 90 57 60
        E 0 90 63 60
        E 20 80 57 00
        E 0 80 63 00
        E 300 90 55 60
        E 0 90 61 60
        E 20 80 55 00
        E 0 80 61 00
        E 320 90 4a 60
        E 0 90 56 60
        E 0 90 62 60
        E 20 80 4a 00
        E 0 80 56 00
        E 0 80 62 00
        E 320 90 57 60
        E 0 90 63 60
        E 20 80 57 00
        E 0 80 63 00
        E 300 90 3d 60
        E 0 90 4a 60
        E 0 90 56 60
        E 0 90 62 60
        E 20 80 3d 00
        E 0 80 4a 00
        E 0 80 56 00
        E 0 80 62 00
        E 340 90 55 60
        E 0 90 61 60
        E 20 80 55 00
        E 0 80 61 00
        E 320 90 4a 60
        E 0 90 56 60
        E 0 90 62 60
        E 20 80 4a 00
        E 0 80 56 00
        E 0 80 62 00
        E 320 90 57 60
        E 0 90 63 60
        E 20 80 57 00
        E 0 80 63 00
        E 320 90 56 60
        E 0 90 62 60
        E 20 80 56 00
        E 0 80 62 00
        E 320 90 3c 60
        E 0 90 49 60
        E 0 90 55 60
        E 0 90 61 60
        E 20 80 3c 00
        E 0 80 49 00
        E 0 80 55 00
        E 0 80 61 00
        E 320 90 56 60
        E 0 90 62 60
        E 20 80 56 00
        E 0 80 62 00
        E 320 90 4b 60
        E 0 90 57 60
        E 0 90 63 60
        E 20 80 4b 00
        E 0 80 57 00
        E 0 80 63 00
        E 320 90 58 60
        E 0 90 64 60
        E 20 80 58 00
        E 0 80 64 00
        E 320 90 3e 60
        E 0 90 4b 60
        E 0 90 57 60
        E 0 90 63 60
        E 20 80 3e 00
        E 0 80 4b 00
        E 0 80 57 00
        E 0 80 63 00
        E 80 90 74 60
        E 240 90 54 60
        E 0 90 60 60
        E 20 80 54 00
        E 0 80 60 00
        E 320 90 49 60
        E 0 90 55 60
        E 0 90 61 60
        E 20 80 49 00
        E 0 80 55 00
        E 0 80 61 00
        E 320 90 56 60
        E 0 90 62 60
        E 20 80 56 00
        E 0 80 62 00
        E 320 90 3c 60
        E 0 90 49 60
        E 0 90 55 60
        E 0 90 61 60
        E 20 80 3c 00
        E 0 80 49 00
        E 0 80 55 00
        E 0 80 61 00
        E 320 90 56 60
        E 0 90 62 60
        E 20 80 56 00
        E 0 80 62 00
        E 320 90 4b 60
        E 0 90 57 60
        E 0 90 63 60
        E 20 80 4b 00
        E 0 80 57 00
        E 0 80 63 00
        E 320 90 56 60
        E 0 90 62 60
        E 20 80 56 00
        E 0 80 62 00
        E 320 90 3d 60
        E 0 90 4a 60
        E 0 90 56 60
        E 0 90 62 60
        E 20 80 3d 00
        E 0 80 4a 00
        E 0 80 56 00
        E 0 80 62 00
        E 320 90 57 60
        E 0 90 63 60
        E 20 80 57 00
        E 0 80 63 00
        E 319 90 4b 60
        E 0 90 58 60
        E 0 90 64 60
        E 20 80 4b 00
        E 0 80 58 00
        E 0 80 64 00
        E 321 90 57 60
        E 0 90 63 60
        E 20 80 57 00
        E 0 80 63 00
        E 180 80 74 00
        E 140 90 56 60
        E 0 90 62 60
        E 20 80 56 00
        E 0 80 62 00
        E 320 90 3e 60
        E 0 90 4b 60
        E 0 90 57 60
        E 0 90 63 60
        E 20 80 3e 00
        E 0 80 4b 00
        E 0 80 57 00
        E 0 80 63 00
        E 320 90 58 60
        E 0 90 64 60
        E 20 80 58 00
        E 0 80 64 00
        E 320 90 4b 60
        E 0 90 57 60
        E 0 90 63 60
        E 20 80 4b 00
        E 0 80 57 00
        E 0 80 63 00
        E 320 90 62 60
        E 20 80 62 00
        E 180 90 49 60
        E 0 90 4b 60
        E 0 90 55 60
        E 0 90 57 60
        E 0 90 61 60
        E 0 90 62 60
        E 0 90 63 60
        E 20 80 49 00
        E 0 80 4b 00
        E 0 80 55 00
        E 0 80 57 00
        E 0 80 61 00
        E 0 80 62 00
        E 0 80 63 00
        E 320 90 56 60
        E 0 90 58 60
        E 0 90 61 60
        E 0 90 63 60
        E 0 90 64 60
        E 20 80 56 00
        E 0 80 58 00
        E 0 80 61 00
        E 0 80 63 00
        E 0 80 64 00
        E 320 90 3e 60
        E 0 90 4b 60
        E 0 90 4c 60
        E 0 90 57 60
        E 0 90 58 60
        E 0 90 63 60
        E 0 90 64 60
        E 20 80 3e 00
        E 0 80 4b 00
        E 0 80 4c 00
        E 0 80 57 00
        E 0 80 58 00
        E 0 80 63 00
        E 0 80 64 00
        E 280 90 55 60
        E 0 90 56 60
        E 0 90 61 60
        E 0 90 62 60
        E 20 80 55 00
        E 0 80 56 00
        E 0 80 61 00
        E 0 80 62 00
        E 300 90 49 60
        E 0 90 4b 60
        E 0 90 55 60
        E 0 90 57 60
        E 0 90 61 60
        E 0 90 62 60
        E 0 90 63 60
        E 20 80 49 00
        E 0 80 4b 00
        E 0 80 55 00
        E 0 80 57 00
        E 0 80 61 00
        E 0 80 62 00
        E 0 80 63 00
        E 300 90 55 60
        E 0 90 56 60
        E 0 90 61 60
        E 0 90 62 60
        E 20 80 55 00
        E 0 80 56 00
        E 0 80 61 00
        E 0 80 62 00
        E 320 90 3e 60
        E 0 90 4b 60
        E 0 90 4c 60
        E 0 90 57 60
        E 0 90 58 60
        E 0 90 63 60
        E 0 90 64 60
        E 20 80 3e 00
        E 0 80 4b 00
        E 0 80 4c 00
        E 0 80 57 00
        E 0 80 58 00
        E 0 80 63 00
        E 0 80 64 00
        E 280 90 55 60
        E 0 90 57 60
        E 0 90 61 60
        E 0 90 62 60
        E 0 90 63 60
        E 20 80 55 00
        E 0 80 57 00
        E 0 80 61 00
        E 0 80 62 00
        E 0 80 63 00
        E 300 90 49 60
        E 0 90 4b 60
        E 0 90 55 60
        E 0 90 57 60
        E 0 90 61 60
        E 0 90 62 60
        E 0 90 63 60
        E 20 80 49 00
        E 0 80 4b 00
        E 0 80 55 00
        E 0 80 57 00
        E 0 80 61 00
        E 0 80 62 00
        E 0 80 63 00
        E 320 90 57 60
        E 0 90 58 60
        E 0 90 63 60
        E 0 90 64 60
        E 20 80 57 00
        E 0 80 58 00
        E 0 80 63 00
        E 0 80 64 00
        E 320 90 55 60
        E 0 90 57 60
        E 0 90 61 60
        E 0 90 62 60
        E 0 90 63 60
        E 20 80 55 00
        E 0 80 57 00
        E 0 80 61 00
        E 0 80 62 00
        E 0 80 63 00
        E 280 90 3e 60
        E 0 90 4a 60
        E 0 90 4b 60
        E 0 90 56 60
        E 0 90 58 60
        E 0 90 61 60
        E 0 90 63 60
        E 0 90 64 60
        E 20 80 3e 00
        E 0 80 4a 00
        E 0 80 4b 00
        E 0 80 56 00
        E 0 80 58 00
        E 0 80 61 00
        E 0 80 63 00
        E 0 80 64 00
        E 300 90 57 60
        E 0 90 58 60
        E 0 90 63 60
        E 0 90 64 60
        E 120 80 57 00
        E 0 80 58 00
        E 400 80 63 00
        E 0 80 64 00
        E 60 90 4b 60
        E 0 90 4c 60
        E 0 90 57 60
        E 0 90 58 60
        E 0 90 63 60
        E 0 90 64 60
        E 120 80 4b 00
        E 0 80 4c 00
        E 0 80 57 00
        E 0 80 58 00
        E 520 80 63 00
        E 0 80 64 00
        E 80 90 55 60
        E 0 90 57 60
        E 0 90 61 60
        E 0 90 62 60
        E 0 90 63 60
        E 20 80 55 00
        E 0 80 57 00
        E 0 80 61 00
        E 0 80 62 00
        E 0 80 63 00
        E 320 90 3e 60
        E 0 90 4a 60
        E 0 90 4b 60
        E 0 90 56 60
        E 0 90 58 60
        E 0 90 61 60
        E 0 90 63 60
        E 0 90 64 60
        E 20 80 3e 00
        E 0 80 4a 00
        E 0 80 4b 00
        E 0 80 56 00
        E 0 80 58 00
        E 0 80 61 00
        E 0 80 63 00
        E 0 80 64 00
        E 320 90 57 60
        E 0 90 58 60
        E 0 90 63 60
        E 0 90 64 60
        E 20 80 57 00
        E 0 80 58 00
        E 0 80 63 00
        E 0 80 64 00
        E 280 90 55 60
        E 0 90 56 60
        E 0 90 61 60
        E 0 90 62 60
        E 20 80 55 00
        E 0 80 56 00
        E 0 80 61 00
        E 0 80 62 00
        E 300 90 3e 60
        E 0 90 49 60
        E 0 90 4b 60
        E 0 90 55 60
        E 0 90 57 60
        E 0 90 61 60
        E 0 90 62 60
        E 0 90 63 60
        E 20 80 3e 00
        E 0 80 49 00
        E 0 80 4b 00
        E 0 80 55 00
        E 0 80 57 00
        E 0 80 61 00
        E 0 80 62 00
        E 0 80 63 00
        E 300 90 55 60
        E 0 90 56 60
        E 0 90 61 60
        E 0 90 62 60
        E 20 80 55 00
        E 0 80 56 00
        E 0 80 61 00
        E 0 80 62 00
        E 320 90 57 60
        E 0 90 58 60
        E 0 90 63 60
        E 0 90 64 60
        E 20 80 57 00
        E 0 80 58 00
        E 0 80 63 00
        E 0 80 64 00
        E 280 90 3e 60
        E 0 90 49 60
        E 0 90 4b 60
        E 0 90 55 60
        E 0 90 57 60
        E 0 90 61 60
        E 0 90 62 60
        E 0 90 63 60
        E 20 80 3e 00
        E 0 80 49 00
        E 0 80 4b 00
        E 0 80 55 00
        E 0 80 57 00
        E 0 80 61 00
        E 0 80 62 00
        E 0 80 63 00
        E 300 90 55 60
        E 0 90 57 60
        E 0 90 61 60
        E 0 90 62 60
        E 0 90 63 60
        E 20 80 55 00
        E 0 80 57 00
        E 0 80 61 00
        E 0 80 62 00
        E 0 80 63 00
        E 320 90 4b 60
        E 0 90 4c 60
        E 0 90 57 60
        E 0 90 58 60
        E 0 90 63 60
        E 0 90 64 60
        E 20 80 4b 00
        E 0 80 4c 00
        E 0 80 57 00
        E 0 80 58 00
        E 0 80 63 00
        E 0 80 64 00
        E 320 90 55 60
        E 0 90 57 60
        E 0 90 61 60
        E 0 90 62 60
        E 0 90 63 60
        E 20 80 55 00
        E 0 80 57 00
        E 0 80 61 00
        E 0 80 62 00
        E 0 80 63 00
        E 280 90 3e 60
        E 0 90 4a 60
        E 0 90 4b 60
        E 0 90 56 60
        E 0 90 58 60
        E 0 90 61 60
        E 0 90 63 60
        E 0 90 64 60
        E 20 80 3e 00
        E 0 80 4a 00
        E 0 80 4b 00
        E 0 80 56 00
        E 0 80 58 00
        E 0 80 61 00
        E 0 80 63 00
        E 0 80 64 00
        E 300 90 57 60
        E 0 90 58 60
        E 0 90 63 60
        E 0 90 64 60
        E 120 80 57 00
        E 0 80 58 00
        E 400 80 63 00
        E 0 80 64 00
        E 60 90 4b 60
        E 0 90 4c 60
        E 0 90 57 60
        E 0 90 58 60
        E 0 90 63 60
        E 0 90 64 60
        E 120 80 4b 00
        E 0 80 4c 00
        E 0 80 57 00
        E 0 80 58 00
        E 400 80 63 00
        E 0 80 64 00
        E 60 90 3e 60
        E 0 90 49 60
        E 0 90 4b 60
        E 0 90 55 60
        E 0 90 57 60
        E 0 90 61 60
        E 0 90 62 60
        E 0 90 63 60
        E 20 80 3e 00
        E 0 80 49 00
        E 0 80 4b 00
        E 0 80 55 00
        E 0 80 57 00
        E 0 80 61 00
        E 0 80 62 00
        E 0 80 63 00
        E 320 90 56 60
        E 0 90 58 60
        E 0 90 61 60
        E 0 90 63 60
        E 0 90 64 60
        E 20 80 56 00
        E 0 80 58 00
        E 0 80 61 00
        E 0 80 63 00
        E 0 80 64 00
        E 320 90 4b 60
        E 0 90 4c 60
        E 0 90 57 60
        E 0 90 58 60
        E 0 90 63 60
        E 0 90 64 60
        E 20 80 4b 00
        E 0 80 4c 00
        E 0 80 57 00
        E 0 80 58 00
        E 0 80 63 00
        E 0 80 64 00
        E 280 90 55 60
        E 0 90 56 60
        E 0 90 61 60
        E 0 90 62 60
        E 20 80 55 00
        E 0 80 56 00
        E 0 80 61 00
        E 0 80 62 00
        E 300 90 3e 60
        E 0 90 49 60
        E 0 90 4b 60
        E 0 90 55 60
        E 0 90 57 60
        E 0 90 61 60
        E 0 90 62 60
        E 0 90 63 60
        E 20 80 3e 00
        E 0 80 49 00
        E 0 80 4b 00
        E 0 80 55 00
        E 0 80 57 00
        E 0 80 61 00
        E 0 80 62 00
        E 0 80 63 00
        E 300 90 55 60
        E 0 90 56 60
        E 0 90 61 60
        E 0 90 62 60
        E 20 80 55 00
        E 0 80 56 00
        E 0 80 61 00
        E 0 80 62 00
        E 320 90 4b 60
        E 0 90 4c 60
        E 0 90 57 60
        E 0 90 58 60
        E 0 90 63 60
        E 0 90 64 60
        E 20 80 4b 00
        E 0 80 4c 00
        E 0 80 57 00
        E 0 80 58 00
        E 0 80 63 00
        E 0 80 64 00
        E 280 90 55 60
        E 0 90 57 60
        E 0 90 61 60
        E 0 90 62 60
        E 0 90 63 60
        E 20 80 55 00
        E 0 80 57 00
        E 0 80 61 00
        E 0 80 62 00
        E 0 80 63 00
        E 300 90 3e 60
        E 0 90 49 60
        E 0 90 4b 60
        E 0 90 55 60
        E 0 90 57 60
        E 0 90 61 60
        E 0 90 62 60
        E 0 90 63 60
        E 20 80 3e 00
        E 0 80 49 00
        E 0 80 4b 00
        E 0 80 55 00
        E 0 80 57 00
        E 0 80 61 00
        E 0 80 62 00
        E 0 80 63 00
        E 320 90 57 60
        E 0 90 58 60
        E 0 90 63 60
        E 0 90 64 60
        E 20 80 57 00
        E 0 80 58 00
        E 0 80 63 00
        E 0 80 64 00
        E 320 90 49 60
        E 0 90 4b 60
        E 0 90 55 60
        E 0 90 57 60
        E 0 90 61 60
        E 0 90 62 60
        E 0 90 63 60
        E 20 80 49 00
        E 0 80 4b 00
        E 0 80 55 00
        E 0 80 57 00
        E 0 80 61 00
        E 0 80 62 00
        E 0 80 63 00
        E 280 90 56 60
        E 0 90 58 60
        E 0 90 61 60
        E 0 90 63 60
        E 0 90 64 60
        E 20 80 56 00
        E 0 80 58 00
        E 0 80 61 00
        E 0 80 63 00
        E 0 80 64 00
        E 300 90 3e 60
        E 0 90 4b 60
        E 0 90 4c 60
        E 0 90 57 60
        E 0 90 58 60
        E 0 90 63 60
        E 0 90 64 60
        E 120 80 3e 00
        E 0 80 4b 00
        E 0 80 4c 00
        E 0 80 57 00
        E 0 80 58 00
        E 400 80 63 00
        E 0 80 64 00
        E 60 90 4b 60
        E 0 90 4c 60
        E 0 90 57 60
        E 0 90 58 60
        E 0 90 63 60
        E 0 90 64 60
        E 120 80 4b 00
        E 0 80 4c 00
        E 0 80 57 00
        E 0 80 58 00
        E 520 80 63 00
        E 0 80 64 00
        E 40 90 49 60
        E 0 90 4b 60
        E 0 90 55 60
        E 0 90 57 60
        E 0 90 61 60
        E 0 90 62 60
        E 0 90 63 60
        E 20 80 49 00
        E 0 80 4b 00
        E 0 80 55 00
        E 0 80 57 00
        E 0 80 61 00
        E 0 80 62 00
        E 0 80 63 00
        E 320 90 56 60
        E 0 90 58 60
        E 0 90 61 60
        E 0 90 63 60
        E 0 90 64 60
        E 20 80 56 00
        E 0 80 58 00
        E 0 80 61 00
        E 0 80 63 00
        E 0 80 64 00
        E 320 90 3e 60
        E 0 90 4b 60
        E 0 90 4c 60
        E 0 90 57 60
        E 0 90 58 60
        E 0 90 63 60
        E 0 90 64 60
        E 20 80 3e 00
        E 0 80 4b 00
        E 0 80 4c 00
        E 0 80 57 00
        E 0 80 58 00
        E 0 80 63 00
        E 0 80 64 00
        E 280 90 55 60
        E 0 90 56 60
        E 0 90 61 60
        E 0 90 62 60
        E 20 80 55 00
        E 0 80 56 00
        E 0 80 61 00
        E 0 80 62 00
        E 300 90 49 60
        E 0 90 4b 60
        E 0 90 55 60
        E 0 90 57 60
        E 0 90 61 60
        E 0 90 62 60
        E 0 90 63 60
        E 20 80 49 00
        E 0 80 4b 00
        E 0 80 55 00
        E 0 80 57 00
        E 0 80 61 00
        E 0 80 62 00
        E 0 80 63 00
        E 300 90 55 60
        E 0 90 56 60
        E 0 90 61 60
        E 0 90 62 60
        E 20 80 55 00
        E 0 80 56 00
        E 0 80 61 00
        E 0 80 62 00
        E 320 90 3e 60
        E 0 90 4b 60
        E 0 90 4c 60
        E 0 90 57 60
        E 0 90 58 60
        E 0 90 63 60
        E 0 90 64 60
        E 20 80 3e 00
        E 0 80 4b 00
        E 0 80 4c 00
        E 0 80 57 00
        E 0 80 58 00
        E 0 80 63 00
        E 0 80 64 00
        E 280 90 55 60
        E 0 90 57 60
        E 0 90 61 60
        E 0 90 62 60
        E 0 90 63 60
        E 20 80 55 00
        E 0 80 57 00
        E 0 80 61 00
        E 0 80 62 00
        E 0 80 63 00
        E 300 90 49 60
        E 0 90 4b 60
        E 0 90 55 60
        E 0 90 57 60
        E 0 90 61 60
        E 0 90 62 60
        E 0 90 63 60
        E 20 80 49 00
        E 0 80 4b 00
        E 0 80 55 00
        E 0 80 57 00
        E 0 80 61 00
        E 0 80 62 00
        E 0 80 63 00
        E 320 90 57 60
        E 0 90 58 60
        E 0 90 63 60
        E 0 90 64 60
        E 20 80 57 00
        E 0 80 58 00
        E 0 80 63 00
        E 0 80 64 00
        E 320 90 55 60
        E 0 90 57 60
        E 0 90 61 60
        E 0 90 62 60
        E 0 90 63 60
        E 20 80 55 00
        E 0 80 57 00
        E 0 80 61 00
        E 0 80 62 00
        E 0 80 63 00
        E 240 90 74 60
        E 40 90 3e 60
        E 0 90 4a 60
        E 0 90 4b 60
        E 0 90 56 60
        E 0 90 58 60
        E 0 90 61 60
        E 0 90 63 60
        E 0 90 64 60
        E 20 80 3e 00
        E 0 80 4a 00
        E 0 80 4b 00
        E 0 80 56 00
        E 0 80 58 00
        E 0 80 61 00
        E 0 80 63 00
        E 0 80 64 00
        E 300 90 57 60
        E 0 90 58 60
        E 0 90 63 60
        E 0 90 64 60
        E 120 80 57 00
        E 0 80 58 00
        E 400 80 63 00
        E 0 80 64 00
        E 60 90 4b 60
        E 0 90 4c 60
        E 0 90 57 60
        E 0 90 58 60
        E 0 90 63 60
        E 0 90 64 60
        E 120 80 4b 00
        E 0 80 4c 00
        E 0 80 57 00
        E 0 80 58 00
        E 420 80 63 00
        E 0 80 64 00
        E 80 80 74 00
        E 100 90 55 60
        E 0 90 57 60
        E 0 90 61 60
        E 0 90 62 60
        E 0 90 63 60
        E 20 80 55 00
        E 0 80 57 00
        E 0 80 61 00
        E 0 80 62 00
        E 0 80 63 00
        E 320 90 3e 60
        E 0 90 4a 60
        E 0 90 4b 60
        E 0 90 56 60
        E 0 90 58 60
        E 0 90 61 60
        E 0 90 63 60
        E 0 90 64 60
        E 20 80 3e 00
        E 0 80 4a 00
        E 0 80 4b 00
        E 0 80 56 00
        E 0 80 58 00
        E 0 80 61 00
        E 0 80 63 00
        E 0 80 64 00
        E 320 90 57 60
        E 0 90 58 60
        E 0 90 63 60
        E 0 90 64 60
        E 20 80 57 00
        E 0 80 58 00
        E 0 80 63 00
        E 0 80 64 00
        E 280 90 55 60
        E 0 90 56 60
        E 0 90 61 60
        E 0 90 62 60
        E 20 80 55 00
        E 0 80 56 00
        E 0 80 61 00
        E 0 80 62 00
        E 300 90 3e 60
        E 0 90 49 60
        E 0 90 4b 60
        E 0 90 55 60
        E 0 90 57 60
        E 0 90 61 60
        E 0 90 62 60
        E 0 90 63 60
        E 20 80 3e 00
        E 0 80 49 00
        E 0 80 4b 00
        E 0 80 55 00
        E 0 80 57 00
        E 0 80 61 00
        E 0 80 62 00
        E 0 80 63 00
        E 300 90 55 60
        E 0 90 56 60
        E 0 90 61 60
        E 0 90 62 60
        E 20 80 55 00
        E 0 80 56 00
        E 0 80 61 00
        E 0 80 62 00
        E 320 90 57 60
        E 0 90 58 60
        E 0 90 63 60
        E 0 90 64 60
        E 20 80 57 00
        E 0 80 58 00
        E 0 80 63 00
        E 0 80 64 00
        E 280 90 3e 60
        E 0 90 49 60
        E 0 90 4b 60
        E 0 90 55 60
        E 0 90 57 60
        E 0 90 61 60
        E 0 90 62 60
        E 0 90 63 60
        E 20 80 3e 00
        E 0 80 49 00
        E 0 80 4b 00
        E 0 80 55 00
        E 0 80 57 00
        E 0 80 61 00
        E 0 80 62 00
        E 0 80 63 00
        E 300 90 55 60
        E 0 90 57 60
        E 0 90 61 60
        E 0 90 62 60
        E 0 90 63 60
        E 20 80 55 00
        E 0 80 57 00
        E 0 80 61 00
        E 0 80 62 00
        E 0 80 63 00
        E 320 90 4b 60
        E 0 90 4c 60
        E 0 90 57 60
        E 0 90 58 60
        E 0 90 63 60
        E 0 90 64 60
        E 20 80 4b 00
        E 0 80 4c 00
        E 0 80 57 00
        E 0 80 58 00
        E 0 80 63 00
        E 0 80 64 00
        E 320 90 55 60
        E 0 90 57 60
        E 0 90 61 60
        E 0 90 62 60
        E 0 90 63 60
        E 20 80 55 00
        E 0 80 57 00
        E 0 80 61 00
        E 0 80 62 00
        E 0 80 63 00
        E 280 90 3e 60
        E 0 90 4a 60
        E 0 90 4b 60
        E 0 90 56 60
        E 0 90 58 60
        E 0 90 61 60
        E 0 90 63 60
        E 0 90 64 60
        E 20 80 3e 00
        E 0 80 4a 00
        E 0 80 4b 00
        E 0 80 56 00
        E 0 80 58 00
        E 0 80 61 00
        E 0 80 63 00
        E 0 80 64 00
        E 300 90 57 60
        E 0 90 58 60
        E 0 90 63 60
        E 0 90 64 60
        E 120 80 57 00
        E 0 80 58 00
        E 400 80 63 00
        E 0 80 64 00
        E 60 90 4b 60
        E 0 90 4c 60
        E 0 90 57 60
        E 0 90 58 60
        E 0 90 63 60
        E 0 90 64 60
        E 120 80 4b 00
        E 0 80 4c 00
        E 0 80 57 00
        E 0 80 58 00
        E 520 80 63 00
        E 0 80 64 00
        E 80 90 3e 60
        E 0 90 49 60
        E 0 90 4b 60
        E 0 90 55 60
        E 0 90 57 60
        E 0 90 61 60
        E 0 90 62 60
        E 0 90 63 60
        E 20 80 3e 00
        E 0 80 49 00
        E 0 80 4b 00
        E 0 80 55 00
        E 0 80 57 00
        E 0 80 61 00
        E 0 80 62 00
        E 0 80 63 00
        E 320 90 56 60
        E 0 90 58 60
        E 0 90 61 60
        E 0 90 63 60
        E 0 90 64 60
        E 20 80 56 00
        E 0 80 58 00
        E 0 80 61 00
        E 0 80 63 00
        E 0 80 64 00
        E 320 90 4b 60
        E 0 90 4c 60
        E 0 90 57 60
        E 0 90 58 60
        E 0 90 63 60
        E 0 90 64 60
        E 20 80 4b 00
        E 0 80 4c 00
        E 0 80 57 00
        E 0 80 58 00
        E 0 80 63 00
        E 0 80 64 00
        E 280 90 55 60
        E 0 90 56 60
        E 0 90 61 60
        E 0 90 62 60
        E 20 80 55 00
        E 0 80 56 00
        E 0 80 61 00
        E 0 80 62 00
        E 300 90 3e 60
        E 0 90 49 60
        E 0 90 4b 60
        E 0 90 55 60
        E 0 90 57 60
        E 0 90 61 60
        E 0 90 62 60
        E 0 90 63 60
        E 20 80 3e 00
        E 0 80 49 00
        E 0 80 4b 00
        E 0 80 55 00
        E 0 80 57 00
        E 0 80 61 00
        E 0 80 62 00
        E 0 80 63 00
        E 300 90 55 60
        E 0 90 56 60
        E 0 90 61 60
        E 0 90 62 60
        E 20 80 55 00
        E 0 80 56 00
        E 0 80 61 00
        E 0 80 62 00
        E 320 90 4b 60
        E 0 90 4c 60
        E 0 90 57 60
        E 0 90 58 60
        E 0 90 63 60
        E 0 90 64 60
        E 20 80 4b 00
        E 0 80 4c 00
        E 0 80 57 00
        E 0 80 58 00
        E 0 80 63 00
        E 0 80 64 00
        E 280 90 55 60
        E 0 90 57 60
        E 0 90 61 60
        E 0 90 62 60
        E 0 90 63 60
        E 20 80 55 00
        E 0 80 57 00
        E 0 80 61 00
        E 0 80 62 00
        E 0 80 63 00
        E 300 90 3e 60
        E 0 90 49 60
        E 0 90 4b 60
        E 0 90 55 60
        E 0 90 57 60
        E 0 90 61 60
        E 0 90 62 60
        E 0 90 63 60
        E 20 80 3e 00
        E 0 80 49 00
        E 0 80 4b 00
        E 0 80 55 00
        E 0 80 57 00
        E 0 80 61 00
        E 0 80 62 00
        E 0 80 63 00
        E 320 90 57 60
        E 0 90 58 60
        E 0 90 63 60
        E 0 90 64 60
        E 20 80 57 00
        E 0 80 58 00
        E 0 80 63 00
        E 0 80 64 00
        E 320 90 49 60
        E 0 90 4b 60
        E 0 90 55 60
        E 0 90 57 60
        E 0 90 61 60
        E 0 90 62 60
        E 0 90 63 60
        E 20 80 49 00
        E 0 80 4b 00
        E 0 80 55 00
        E 0 80 57 00
        E 0 80 61 00
        E 0 80 62 00
        E 0 80 63 00
        E 280 90 56 60
        E 0 90 58 60
        E 0 90 61 60
        E 0 90 63 60
        E 0 90 64 60
        E 20 80 56 00
        E 0 80 58 00
        E 0 80 61 00
        E 0 80 63 00
        E 0 80 64 00
        E 300 90 3e 60
        E 0 90 4b 60
        E 0 90 4c 60
        E 0 90 57 60
        E 0 90 58 60
        E 0 90 63 60
        E 0 90 64 60
        E 120 80 3e 00
        E 0 80 4b 00
        E 0 80 4c 00
        E 0 80 57 00
        E 0 80 58 00
        E 400 80 63 00
        E 0 80 64 00
        E 60 90 4b 60
        E 0 90 4c 60
        E 0 90 57 60
        E 0 90 58 60
        E 0 90 63 60
        E 0 90 64 60
        E 120 80 4b 00
        E 0 80 4c 00
        E 0 80 57 00
        E 0 80 58 00
        E 400 80 63 00
        E 0 80 64 00
        E 60 90 49 60
        E 0 90 4b 60
        E 0 90 55 60
        E 0 90 57 60
        E 0 90 61 60
        E 0 90 62 60
        E 0 90 63 60
        E 20 80 49 00
        E 0 80 4b 00
        E 0 80 55 00
        E 0 80 57 00
        E 0 80 61 00
        E 0 80 62 00
        E 0 80 63 00
        E 320 90 56 60
        E 0 90 58 60
        E 0 90 61 60
        E 0 90 63 60
        E 0 90 64 60
        E 20 80 56 00
        E 0 80 58 00
        E 0 80 61 00
        E 0 80 63 00
        E 0 80 64 00
        E 320 90 3e 60
        E 0 90 4b 60
        E 0 90 4c 60
        E 0 90 57 60
        E 0 90 58 60
        E 0 90 63 60
        E 0 90 64 60
        E 20 80 3e 00
        E 0 80 4b 00
        E 0 80 4c 00
        E 0 80 57 00
        E 0 80 58 00
        E 0 80 63 00
        E 0 80 64 00
        E 280 90 55 60
        E 0 90 56 60
        E 0 90 61 60
        E 0 90 62 60
        E 20 80 55 00
        E 0 80 56 00
        E 0 80 61 00
        E 0 80 62 00
        E 300 90 55 60
        E 0 90 57 60
        E 0 90 61 60
        E 0 90 62 60
        E 0 90 63 60
        E 20 80 55 00
        E 0 80 57 00
        E 0 80 61 00
        E 0 80 62 00
        E 0 80 63 00
        E 300 90 3e 60
        E 0 90 49 60
        E 0 90 4a 60
        E 0 90 55 60
        E 0 90 56 60
        E 0 90 61 60
        E 0 90 62 60
        E 20 80 3e 00
        E 0 80 49 00
        E 0 80 4a 00
        E 0 80 55 00
        E 0 80 56 00
        E 0 80 61 00
        E 0 80 62 00
        E 320 90 57 60
        E 0 90 58 60
        E 0 90 63 60
        E 0 90 64 60
        E 20 80 57 00
        E 0 80 58 00
        E 0 80 63 00
        E 0 80 64 00
        E 280 90 49 60
        E 0 90 4b 60
        E 0 90 55 60
        E 0 90 57 60
        E 0 90 61 60
        E 0 90 62 60
        E 0 90 63 60
        E 20 80 49 00
        E 0 80 4b 00
        E 0 80 55 00
        E 0 80 57 00
        E 0 80 61 00
        E 0 80 62 00
        E 0 80 63 00
        E 300 90 3e 60
        E 0 90 49 60
        E 0 90 4b 60
        E 0 90 55 60
        E 0 90 57 60
        E 0 90 61 60
        E 0 90 62 60
        E 0 90 63 60
        E 20 80 3e 00
        E 0 80 49 00
        E 0 80 4b 00
        E 0 80 55 00
        E 0 80 57 00
        E 0 80 61 00
        E 0 80 62 00
        E 0 80 63 00
        E 320 90 57 60
        E 0 90 58 60
        E 0 90 63 60
        E 0 90 64 60
        E 20 80 57 00
        E 0 80 58 00
        E 0 80 63 00
        E 0 80 64 00
        E 320 90 55 60
        E 0 90 57 60
        E 0 90 61 60
        E 0 90 62 60
        E 0 90 63 60
        E 20 80 55 00
        E 0 80 57 00
        E 0 80 61 00
        E 0 80 62 00
        E 0 80 63 00
        E 280 90 3e 60
        E 0 90 4a 60
        E 0 90 4b 60
        E 0 90 56 60
        E 0 90 58 60
        E 0 90 61 60
        E 0 90 63 60
        E 0 90 64 60
        E 20 80 3e 00
        E 0 80 4a 00
        E 0 80 4b 00
        E 0 80 56 00
        E 0 80 58 00
        E 0 80 61 00
        E 0 80 63 00
        E 0 80 64 00
        E 300 90 57 60
        E 0 90 58 60
        E 0 90 63 60
        E 0 90 64 60
        E 120 80 57 00
        E 0 80 58 00
        E 400 80 63 00
        E 0 80 64 00
        E 60 90 4b 60
        E 0 90 4c 60
        E 0 90 57 60
        E 0 90 58 60
        E 0 90 63 60
        E 0 90 64 60
        E 120 80 4b 00
        E 0 80 4c 00
        E 0 80 57 00
        E 0 80 58 00
        E 520 80 63 00
        E 0 80 64 00
        E 40 90 55 60
        E 0 90 57 60
        E 0 90 61 60
        E 0 90 62 60
        E 0 90 63 60
        E 20 80 55 00
        E 0 80 57 00
        E 0 80 61 00
        E 0 80 62 00
        E 0 80 63 00
        E 320 90 3e 60
        E 0 90 4a 60
        E 0 90 4b 60
        E 0 90 56 60
        E 0 90 58 60
        E 0 90 61 60
        E 0 90 63 60
        E 0 90 64 60
        E 20 80 3e 00
        E 0 80 4a 00
        E 0 80 4b 00
        E 0 80 56 00
        E 0 80 58 00
        E 0 80 61 00
        E 0 80 63 00
        E 0 80 64 00
        E 320 90 57 60
        E 0 90 58 60
        E 0 90 63 60
        E 0 90 64 60
        E 20 80 57 00
        E 0 80 58 00
        E 0 80 63 00
        E 0 80 64 00
        E 280 90 55 60
        E 0 90 56 60
        E 0 90 61 60
        E 0 90 62 60
        E 20 80 55 00
        E 0 80 56 00
        E 0 80 61 00
        E 0 80 62 00
        E 300 90 3e 60
        E 0 90 49 60
        E 0 90 4b 60
        E 0 90 55 60
        E 0 90 57 60
        E 0 90 61 60
        E 0 90 62 60
        E 0 90 63 60
        E 20 80 3e 00
        E 0 80 49 00
        E 0 80 4b 00
        E 0 80 55 00
        E 0 80 57 00
        E 0 80 61 00
        E 0 80 62 00
        E 0 80 63 00
        E 300 90 55 60
        E 0 90 56 60
        E 0 90 61 60
        E 0 90 62 60
        E 20 80 55 00
        E 0 80 56 00
        E 0 80 61 00
        E 0 80 62 00
        E 320 90 57 60
        E 0 90 58 60
        E 0 90 63 60
        E 0 90 64 60
        E 20 80 57 00
        E 0 80 58 00
        E 0 80 63 00
        E 0 80 64 00
        E 280 90 3e 60
        E 0 90 49 60
        E 0 90 4b 60
        E 0 90 55 60
        E 0 90 57 60
        E 0 90 61 60
        E 0 90 62 60
        E 0 90 63 60
        E 20 80 3e 00
        E 0 80 49 00
        E 0 80 4b 00
        E 0 80 55 00
        E 0 80 57 00
        E 0 80 61 00
        E 0 80 62 00
        E 0 80 63 00
        E 300 90 55 60
        E 0 90 57 60
        E 0 90 61 60
        E 0 90 62 60
        E 0 90 63 60
        E 20 80 55 00
        E 0 80 57 00
        E 0 80 61 00
        E 0 80 62 00
        E 0 80 63 00
        E 320 90 4b 60
        E 0 90 4c 60
        E 0 90 57 60
        E 0 90 58 60
        E 0 90 63 60
        E 0 90 64 60
        E 20 80 4b 00
        E 0 80 4c 00
        E 0 80 57 00
        E 0 80 58 00
        E 0 80 63 00
        E 0 80 64 00
        E 320 90 55 60
        E 0 90 57 60
        E 0 90 61 60
        E 0 90 62 60
        E 0 90 63 60
        E 20 80 55 00
        E 0 80 57 00
        E 0 80 61 00
        E 0 80 62 00
        E 0 80 63 00
        E 280 90 3e 60
        E 0 90 4a 60
        E 0 90 4b 60
        E 0 90 56 60
        E 0 90 58 60
        E 0 90 61 60
        E 0 90 63 60
        E 0 90 64 60
        E 20 80 3e 00
        E 0 80 4a 00
        E 0 80 4b 00
        E 0 80 56 00
        E 0 80 58 00
        E 0 80 61 00
        E 0 80 63 00
        E 0 80 64 00
        E 300 90 57 60
        E 0 90 58 60
        E 0 90 63 60
        E 0 90 64 60
        E 120 80 57 00
        E 0 80 58 00
        E 400 80 63 00
        E 0 80 64 00
        E 60 90 4b 60
        E 0 90 4c 60
        E 0 90 57 60
        E 0 90 58 60
        E 0 90 63 60
        E 0 90 64 60
        E 120 80 4b 00
        E 0 80 4c 00
        E 0 80 57 00
        E 0 80 58 00
        E 420 80 63 00
        E 0 80 64 00
        E 140 90 3e 60
        E 0 90 49 60
        E 0 90 4b 60
        E 0 90 55 60
        E 0 90 57 60
        E 0 90 61 60
        E 0 90 62 60
        E 0 90 63 60
        E 20 80 3e 00
        E 0 80 49 00
        E 0 80 4b 00
        E 0 80 55 00
        E 0 80 57 00
        E 0 80 61 00
        E 0 80 62 00
        E 0 80 63 00
        E 320 90 56 60
        E 0 90 58 60
        E 0 90 61 60
        E 0 90 63 60
        E 0 90 64 60
        E 20 80 56 00
        E 0 80 58 00
        E 0 80 61 00
        E 0 80 63 00
        E 0 80 64 00
        E 320 90 4b 60
        E 0 90 4c 60
        E 0 90 57 60
        E 0 90 58 60
        E 0 90 63 60
        E 0 90 64 60
        E 20 80 4b 00
        E 0 80 4c 00
        E 0 80 57 00
        E 0 80 58 00
        E 0 80 63 00
        E 0 80 64 00
        E 280 90 55 60
        E 0 90 56 60
        E 0 90 61 60
        E 0 90 62 60
        E 20 80 55 00
        E 0 80 56 00
        E 0 80 61 00
        E 0 80 62 00
        E 300 90 3e 60
        E 0 90 49 60
        E 0 90 4b 60
        E 0 90 55 60
        E 0 90 57 60
        E 0 90 61 60
        E 0 90 62 60
        E 0 90 63 60
        E 20 80 3e 00
        E 0 80 49 00
        E 0 80 4b 00
        E 0 80 55 00
        E 0 80 57 00
        E 0 80 61 00
        E 0 80 62 00
        E 0 80 63 00
        E 300 90 55 60
        E 0 90 56 60
        E 0 90 61 60
        E 0 90 62 60
        E 20 80 55 00
        E 0 80 56 00
        E 0 80 61 00
        E 0 80 62 00
        E 320 90 4b 60
        E 0 90 4c 60
        E 0 90 57 60
        E 0 90 58 60
        E 0 90 63 60
        E 0 90 64 60
        E 20 80 4b 00
        E 0 80 4c 00
        E 0 80 57 00
        E 0 80 58 00
        E 0 80 63 00
        E 0 80 64 00
        E 280 90 55 60
        E 0 90 57 60
        E 0 90 61 60
        E 0 90 62 60
        E 0 90 63 60
        E 20 80 55 00
        E 0 80 57 00
        E 0 80 61 00
        E 0 80 62 00
        E 0 80 63 00
        E 300 90 3e 60
        E 0 90 49 60
        E 0 90 4b 60
        E 0 90 55 60
        E 0 90 57 60
        E 0 90 61 60
        E 0 90 62 60
        E 0 90 63 60
        E 20 80 3e 00
        E 0 80 49 00
        E 0 80 4b 00
        E 0 80 55 00
        E 0 80 57 00
        E 0 80 61 00
        E 0 80 62 00
        E 0 80 63 00
        E 320 90 57 60
        E 0 90 58 60
        E 0 90 63 60
        E 0 90 64 60
        E 20 80 57 00
        E 0 80 58 00
        E 0 80 63 00
        E 0 80 64 00
        E 320 90 49 60
        E 0 90 4b 60
        E 0 90 55 60
        E 0 90 57 60
        E 0 90 61 60
        E 0 90 62 60
        E 0 90 63 60
        E 20 80 49 00
        E 0 80 4b 00
        E 0 80 55 00
        E 0 80 57 00
        E 0 80 61 00
        E 0 80 62 00
        E 0 80 63 00
        E 280 90 56 60
        E 0 90 58 60
        E 0 90 61 60
        E 0 90 63 60
        E 0 90 64 60
        E 20 80 56 00
        E 0 80 58 00
        E 0 80 61 00
        E 0 80 63 00
        E 0 80 64 00
        E 220 90 74 60
        E 80 90 3e 60
        E 0 90 4b 60
        E 0 90 4c 60
        E 0 90 57 60
        E 0 90 58 60
        E 0 90 63 60
        E 0 90 64 60
        E 120 80 3e 00
        E 0 80 4b 00
        E 0 80 4c 00
        E 0 80 57 00
        E 0 80 58 00
        E 400 80 63 00
        E 0 80 64 00
        E 60 90 4b 60
        E 0 90 4c 60
        E 0 90 57 60
        E 0 90 58 60
        E 0 90 63 60
        E 0 90 64 60
        E 120 80 4b 00
        E 0 80 4c 00
        E 0 80 57 00
        E 0 80 58 00
        E 480 80 63 00
        E 0 80 64 00
        E 20 80 74 00
        E 20 90 3e 60
        E 0 90 49 60
        E 0 90 4b 60
        E 0 90 55 60
        E 0 90 57 60
        E 0 90 61 60
        E 0 90 62 60
        E 0 90 63 60
        E 20 80 3e 00
        E 0 80 49 00
        E 0 80 4b 00
        E 0 80 55 00
        E 0 80 57 00
        E 0 80 61 00
        E 0 80 62 00
        E 0 80 63 00
        E 320 90 56 60
        E 0 90 58 60
        E 0 90 61 60
        E 0 90 63 60
        E 0 90 64 60
        E 20 80 56 00
        E 0 80 58 00
        E 0 80 61 00
        E 0 80 63 00
        E 0 80 64 00
        E 320 90 4b 60
        E 0 90 4c 60
        E 0 90 57 60
        E 0 90 58 60
        E 0 90 63 60
        E 0 90 64 60
        E 20 80 4b 00
        E 0 80 4c 00
        E 0 80 57 00
        E 0 80 58 00
        E 0 80 63 00
        E 0 80 64 00
        E 280 90 55 60
        E 0 90 56 60
        E 0 90 61 60
        E 0 90 62 60
        E 20 80 55 00
        E 0 80 56 00
        E 0 80 61 00
        E 0 80 62 00
        E 300 90 55 60
        E 0 90 57 60
        E 0 90 61 60
        E 0 90 62 60
        E 0 90 63 60
        E 20 80 55 00
        E 0 80 57 00
        E 0 80 61 00
        E 0 80 62 00
        E 0 80 63 00
        E 300 90 3e 60
        E 0 90 49 60
        E 0 90 4a 60
        E 0 90 55 60
        E 0 90 56 60
        E 0 90 61 60
        E 0 90 62 60
        E 20 80 3e 00
        E 0 80 49 00
        E 0 80 4a 00
        E 0 80 55 00
        E 0 80 56 00
        E 0 80 61 00
        E 0 80 62 00
        E 320 90 57 60
        E 0 90 58 60
        E 0 90 63 60
        E 0 90 64 60
        E 20 80 57 00
        E 0 80 58 00
        E 0 80 63 00
        E 0 80 64 00
        E 280 90 49 60
        E 0 90 4b 60
        E 0 90 55 60
        E 0 90 57 60
        E 0 90 61 60
        E 0 90 62 60
        E 0 90 63 60
        E 20 80 49 00
        E 0 80 4b 00
        E 0 80 55 00
        E 0 80 57 00
        E 0 80 61 00
        E 0 80 62 00
        E 0 80 63 00
        E 300 90 3e 60
        E 0 90 49 60
        E 0 90 4b 60
        E 0 90 55 60
        E 0 90 57 60
        E 0 90 61 60
        E 0 90 62 60
        E 0 90 63 60
        E 20 80 3e 00
        E 0 80 49 00
        E 0 80 4b 00
        E 0 80 55 00
        E 0 80 57 00
        E 0 80 61 00
        E 0 80 62 00
        E 0 80 63 00
        E 320 90 57 60
        E 0 90 58 60
        E 0 90 63 60
        E 0 90 64 60
        E 20 80 57 00
        E 0 80 58 00
        E 0 80 63 00
        E 0 80 64 00
        E 320 90 49 60
        E 0 90 4b 60
        E 0 90 55 60
        E 0 90 57 60
        E 0 90 61 60
        E 0 90 62 60
        E 0 90 63 60
        E 20 80 49 00
        E 0 80 4b 00
        E 0 80 55 00
        E 0 80 57 00
        E 0 80 61 00
        E 0 80 62 00
        E 0 80 63 00
        E 280 90 56 60
        E 0 90 58 60
        E 0 90 61 60
        E 0 90 63 60
        E 0 90 64 60
        E 20 80 56 00
        E 0 80 58 00
        E 0 80 61 00
        E 0 80 63 00
        E 0 80 64 00
        E 300 90 3e 60
        E 0 90 4b 60
        E 0 90 4c 60
        E 0 90 57 60
        E 0 90 58 60
        E 0 90 63 60
        E 0 90 64 60
        E 120 80 3e 00
        E 0 80 4b 00
        E 0 80 4c 00
        E 0 80 57 00
        E 0 80 58 00
        E 400 80 63 00
        E 0 80 64 00
        E 80 90 3e 60
        E 0 90 4b 60
        E 0 90 4c 60
        E 0 90 57 60
        E 0 90 58 60
        E 0 90 63 60
        E 0 90 64 60
        E 120 80 3e 00
        E 0 80 4b 00
        E 0 80 4c 00
        E 0 80 57 00
        E 0 80 58 00
        E 360 80 63 00
        E 0 80 64 00
        E 140 90 55 60
        E 0 90 57 60
        E 0 90 61 60
        E 0 90 62 60
        E 0 90 63 60
        E 20 80 55 00
        E 0 80 57 00
        E 0 80 61 00
        E 0 80 62 00
        E 0 80 63 00
        E 320 90 3e 60
        E 0 90 4a 60
        E 0 90 4b 60
        E 0 90 56 60
        E 0 90 58 60
        E 0 90 61 60
        E 0 90 63 60
        E 0 90 64 60
        E 20 80 3e 00
        E 0 80 4a 00
        E 0 80 4b 00
        E 0 80 56 00
        E 0 80 58 00
        E 0 80 61 00
        E 0 80 63 00
        E 0 80 64 00
        E 320 90 57 60
        E 0 90 58 60
        E 0 90 63 60
        E 0 90 64 60
        E 20 80 57 00
        E 0 80 58 00
        E 0 80 63 00
        E 0 80 64 00
        E 280 90 55 60
        E 0 90 56 60
        E 0 90 61 60
        E 0 90 62 60
        E 20 80 55 00
        E 0 80 56 00
        E 0 80 61 00
        E 0 80 62 00
        E 300 90 3e 60
        E 0 90 49 60
        E 0 90 4b 60
        E 0 90 55 60
        E 0 90 57 60
        E 0 90 61 60
        E 0 90 62 60
        E 0 90 63 60
        E 20 80 3e 00
        E 0 80 49 00
        E 0 80 4b 00
        E 0 80 55 00
        E 0 80 57 00
        E 0 80 61 00
        E 0 80 62 00
        E 0 80 63 00
        E 300 90 55 60
        E 0 90 56 60
        E 0 90 61 60
        E 0 90 62 60
        E 20 80 55 00
        E 0 80 56 00
        E 0 80 61 00
        E 0 80 62 00
        E 320 90 57 60
        E 0 90 58 60
        E 0 90 63 60
        E 0 90 64 60
        E 20 80 57 00
        E 0 80 58 00
        E 0 80 63 00
        E 0 80 64 00
        E 280 90 3e 60
        E 0 90 49 60
        E 0 90 4b 60
        E 0 90 55 60
        E 0 90 57 60
        E 0 90 61 60
        E 0 90 62 60
        E 0 90 63 60
        E 20 80 3e 00
        E 0 80 49 00
        E 0 80 4b 00
        E 0 80 55 00
        E 0 80 57 00
        E 0 80 61 00
        E 0 80 62 00
        E 0 80 63 00
        E 300 90 55 60
        E 0 90 57 60
        E 0 90 61 60
        E 0 90 62 60
        E 0 90 63 60
        E 20 80 55 00
        E 0 80 57 00
        E 0 80 61 00
        E 0 80 62 00
        E 0 80 63 00
        E 320 90 4b 60
        E 0 90 4c 60
        E 0 90 57 60
        E 0 90 58 60
        E 0 90 63 60
        E 0 90 64 60
        E 20 80 4b 00
        E 0 80 4c 00
        E 0 80 57 00
        E 0 80 58 00
        E 0 80 63 00
        E 0 80 64 00
        E 320 90 55 60
        E 0 90 57 60
        E 0 90 61 60
        E 0 90 62 60
        E 0 90 63 60
        E 20 80 55 00
        E 0 80 57 00
        E 0 80 61 00
        E 0 80 62 00
        E 0 80 63 00
        E 280 90 3e 60
        E 0 90 4a 60
        E 0 90 4b 60
        E 0 90 56 60
        E 0 90 58 60
        E 0 90 61 60
        E 0 90 63 60
        E 0 90 64 60
        E 20 80 3e 00
        E 0 80 4a 00
        E 0 80 4b 00
        E 0 80 56 00
        E 0 80 58 00
        E 0 80 61 00
        E 0 80 63 00
        E 0 80 64 00
        E 300 90 57 60
        E 0 90 58 60
        E 0 90 63 60
        E 0 90 64 60
        E 120 80 57 00
        E 0 80 58 00
        E 400 80 63 00
        E 0 80 64 00
        E 80 90 4b 60
        E 0 90 4c 60
        E 0 90 57 60
        E 0 90 58 60
        E 0 90 63 60
        E 0 90 64 60
        E 120 80 4b 00
        E 0 80 4c 00
        E 0 80 57 00
        E 0 80 58 00
        E 360 80 63 00
        E 0 80 64 00
        E 140 90 3e 60
        E 0 90 49 60
        E 0 90 4b 60
        E 0 90 55 60
        E 0 90 57 60
        E 0 90 61 60
        E 0 90 62 60
        E 0 90 63 60
        E 20 80 3e 00
        E 0 80 49 00
        E 0 80 4b 00
        E 0 80 55 00
        E 0 80 57 00
        E 0 80 61 00
        E 0 80 62 00
        E 0 80 63 00
        E 320 90 56 60
        E 0 90 58 60
        E 0 90 61 60
        E 0 90 63 60
        E 0 90 64 60
        E 20 80 56 00
        E 0 80 58 00
        E 0 80 61 00
        E 0 80 63 00
        E 0 80 64 00
        E 320 90 57 60
        E 0 90 58 60
        E 0 90 63 60
        E 0 90 64 60
        E 20 80 57 00
        E 0 80 58 00
        E 0 80 63 00
        E 0 80 64 00
        E 280 90 3e 60
        E 0 90 49 60
        E 0 90 4a 60
        E 0 90 55 60
        E 0 90 56 60
        E 0 90 61 60
        E 0 90 62 60
        E 20 80 3e 00
        E 0 80 49 00
        E 0 80 4a 00
        E 0 80 55 00
        E 0 80 56 00
        E 0 80 61 00
        E 0 80 62 00
        E 300 90 55 60
        E 0 90 57 60
        E 0 90 61 60
        E 0 90 62 60
        E 0 90 63 60
        E 20 80 55 00
        E 0 80 57 00
        E 0 80 61 00
        E 0 80 62 00
        E 0 80 63 00
        E 300 90 55 60
        E 0 90 56 60
        E 0 90 61 60
        E 0 90 62 60
        E 20 80 55 00
        E 0 80 56 00
        E 0 80 61 00
        E 0 80 62 00
        E 320 90 3e 60
        E 0 90 4b 60
        E 0 90 4c 60
        E 0 90 57 60
        E 0 90 58 60
        E 0 90 63 60
        E 0 90 64 60
        E 20 80 3e 00
        E 0 80 4b 00
        E 0 80 4c 00
        E 0 80 57 00
        E 0 80 58 00
        E 0 80 63 00
        E 0 80 64 00
        E 280 90 55 60
        E 0 90 57 60
        E 0 90 61 60
        E 0 90 62 60
        E 0 90 63 60
        E 20 80 55 00
        E 0 80 57 00
        E 0 80 61 00
        E 0 80 62 00
        E 0 80 63 00
        E 300 90 55 60
        E 0 90 57 60
        E 0 90 61 60
        E 0 90 62 60
        E 0 90 63 60
        E 20 80 55 00
        E 0 80 57 00
        E 0 80 61 00
        E 0 80 62 00
        E 0 80 63 00
        E 320 90 3e 60
        E 0 90 4b 60
        E 0 90 4c 60
        E 0 90 57 60
        E 0 90 58 60
        E 0 90 63 60
        E 0 90 64 60
        E 20 80 3e 00
        E 0 80 4b 00
        E 0 80 4c 00
        E 0 80 57 00
        E 0 80 58 00
        E 0 80 63 00
        E 0 80 64 00
        E 320 90 55 60
        E 0 90 57 60
        E 0 90 61 60
        E 0 90 62 60
        E 0 90 63 60
        E 20 80 55 00
        E 0 80 57 00
        E 0 80 61 00
        E 0 80 62 00
        E 0 80 63 00
        E 280 90 56 60
        E 0 90 58 60
        E 0 90 61 60
        E 0 90 63 60
        E 0 90 64 60
        E 20 80 56 00
        E 0 80 58 00
        E 0 80 61 00
        E 0 80 63 00
        E 0 80 64 00
        E 300 90 3e 60
        E 0 90 4b 60
        E 0 90 4c 60
        E 0 90 57 60
        E 0 90 58 60
        E 0 90 63 60
        E 0 90 64 60
        E 120 80 3e 00
        E 0 80 4b 00
        E 0 80 4c 00
        E 0 80 57 00
        E 0 80 58 00
        E 400 80 63 00
        E 0 80 64 00
        E 120 90 49 60
        E 0 90 55 60
        E 0 90 61 60
        E 40 80 49 00
        E 0 80 55 00
        E 0 80 61 00
        E 420 90 56 60
        E 0 90 62 60
        E 40 80 56 00
        E 0 80 62 00
        E 420 90 3e 60
        E 0 90 4b 60
        E 0 90 57 60
        E 0 90 63 60
        E 40 80 3e 00
        E 0 80 4b 00
        E 0 80 57 00
        E 0 80 63 00
        E 420 90 56 60
        E 0 90 62 60
        E 40 80 56 00
        E 0 80 62 00
        E 420 90 49 60
        E 0 90 55 60
        E 0 90 61 60
        E 40 80 49 00
        E 0 80 55 00
        E 0 80 61 00
        E 420 90 58 60
        E 0 90 64 60
        E 40 80 58 00
        E 0 80 64 00
        E 380 90 74 60
        E 40 90 3d 60
        E 0 90 4a 60
        E 0 90 56 60
        E 0 90 62 60
        E 120 80 3d 00
        E 0 80 4a 00
        E 0 80 56 00
        E 340 80 62 00
        E 460 90 4b 60
        E 0 90 58 60
        E 0 90 64 60
        E 40 80 4b 00
        E 0 80 58 00
        E 0 80 64 00
        E 420 90 3e 60
        E 0 90 4b 60
        E 0 90 57 60
        E 0 90 63 60
        E 120 80 3e 00
        E 500 80 4b 00
        E 120 80 57 00
        E 0 80 63 00
        E 240 90 3c 60
        E 0 90 49 60
        E 0 90 55 60
        E 0 90 61 60
        E 40 80 3c 00
        E 0 80 49 00
        E 0 80 55 00
        E 0 80 61 00
        E 420 90 4a 60
        E 0 90 56 60
        E 0 90 62 60
        E 40 80 4a 00
        E 0 80 56 00
        E 0 80 62 00
        E 420 90 57 60
        E 0 90 63 60
        E 40 80 57 00
        E 0 80 63 00
        E 420 90 3d 60
        E 0 90 4a 60
        E 0 90 56 60
        E 0 90 62 60
        E 40 80 3d 00
        E 0 80 4a 00
        E 0 80 56 00
        E 0 80 62 00
        E 420 90 55 60
        E 0 90 61 60
        E 40 80 55 00
        E 0 80 61 00
        E 420 90 48 60
        E 0 90 54 60
        E 0 90 60 60
        E 40 80 48 00
        E 0 80 54 00
        E 0 80 60 00
        E 420 90 55 60
        E 0 90 61 60
        E 740 80 55 00
        E 0 80 61 00
        E 640 90 3e 60
        E 0 90 4b 60
        E 0 90 57 60
        E 0 90 63 60
        E 120 80 3e 00
        E 500 80 4b 00
        E 120 80 57 00
        E 0 80 63 00
        E 240 90 3c 60
        E 0 90 49 60
        E 0 90 55 60
        E 0 90 61 60
        E 40 80 3c 00
        E 0 80 49 00
        E 0 80 55 00
        E 0 80 61 00
        E 420 90 56 60
        E 0 90 62 60
        E 40 80 56 00
        E 0 80 62 00
        E 420 90 4b 60
        E 0 90 57 60
        E 0 90 63 60
        E 40 80 4b 00
        E 0 80 57 00
        E 0 80 63 00
        E 420 90 56 60
        E 0 90 62 60
        E 40 80 56 00
        E 0 80 62 00
        E 420 90 3c 60
        E 0 90 49 60
        E 0 90 55 60
        E 0 90 61 60
        E 40 80 3c 00
        E 0 80 49 00
        E 0 80 55 00
        E 0 80 61 00
        E 420 90 58 60
        E 0 90 64 60
        E 40 80 58 00
        E 0 80 64 00
        E 420 90 4a 60
        E 0 90 56 60
        E 0 90 62 60
        E 120 80 4a 00
        E 0 80 56 00
        E 340 80 62 00
        E 460 90 3e 60
        E 0 90 4b 60
        E 0 90 58 60
        E 0 90 64 60
        E 40 80 3e 00
        E 0 80 4b 00
        E 0 80 58 00
        E 0 80 64 00
        E 420 90 57 60
        E 0 90 63 60
        E 740 80 57 00
        E 0 80 63 00
        E 240 90 3c 60
        E 0 90 49 60
        E 0 90 55 60
        E 0 90 61 60
        E 40 80 3c 00
        E 0 80 49 00
        E 0 80 55 00
        E 0 80 61 00
        E 420 90 56 60
        E 0 90 62 60
        E 40 80 56 00
        E 0 80 62 00
        E 420 90 4b 60
        E 0 90 57 60
        E 0 90 63 60
        E 40 80 4b 00
        E 0 80 57 00
        E 0 80 63 00
        E 420 90 56 60
        E 0 90 62 60
        E 40 80 56 00
        E 0 80 62 00
        E 420 90 3c 60
        E 0 90 49 60
        E 0 90 55 60
        E 0 90 61 60
        E 40 80 3c 00
        E 0 80 49 00
        E 0 80 55 00
        E 0 80 61 00
        E 420 90 54 60
        E 0 90 60 60
        E 40 80 54 00
        E 0 80 60 00
        E 420 90 49 60
        E 0 90 55 60
        E 0 90 61 60
        E 740 80 49 00
        E 0 80 55 00
        E 0 80 61 00
        E 640 90 3e 60
        E 0 90 4b 60
        E 0 90 57 60
        E 0 90 63 60
        E 120 80 3e 00
        E 500 80 4b 00
        E 120 80 57 00
        E 0 80 63 00
        E 120 80 74 00
        E 120 90 3c 60
        E 0 90 49 60
        E 0 90 55 60
        E 0 90 61 60
        E 40 80 3c 00
        E 0 80 49 00
        E 0 80 55 00
        E 0 80 61 00
        E 420 90 4a 60
        E 0 90 56 60
        E 0 90 62 60
        E 40 80 4a 00
        E 0 80 56 00
        E 0 80 62 00
        E 420 90 57 60
        E 0 90 63 60
        E 40 80 57 00
        E 0 80 63 00
        E 420 90 3d 60
        E 0 90 4a 60
        E 0 90 56 60
        E 0 90 62 60
        E 40 80 3d 00
        E 0 80 4a 00
        E 0 80 56 00
        E 0 80 62 00
        E 420 90 55 60
        E 0 90 61 60
        E 40 80 55 00
        E 0 80 61 00
        E 420 90 4b 60
        E 0 90 58 60
        E 0 90 64 60
        E 40 80 4b 00
        E 0 80 58 00
        E 0 80 64 00
        E 420 90 56 60
        E 0 90 62 60
        E 120 80 56 00
        E 340 80 62 00
        E 460 90 3e 60
        E 0 90 4b 60
        E 0 90 58 60
        E 0 90 64 60
        E 40 80 3e 00
        E 0 80 4b 00
        E 0 80 58 00
        E 0 80 64 00
        E 420 90 57 60
        E 0 90 63 60
        E 740 80 57 00
        E 0 80 63 00
        E 240 90 3c 60
        E 0 90 49 60
        E 0 90 55 60
        E 0 90 61 60
        E 40 80 3c 00
        E 0 80 49 00
        E 0 80 55 00
        E 0 80 61 00
        E 420 90 56 60
        E 0 90 62 60
        E 40 80 56 00
        E 0 80 62 00
        E 420 90 4b 60
        E 0 90 57 60
        E 0 90 63 60
        E 40 80 4b 00
        E 0 80 57 00
        E 0 80 63 00
        E 420 90 56 60
        E 0 90 62 60
        E 40 80 56 00
        E 0 80 62 00
        E 420 90 3c 60
        E 0 90 49 60
        E 0 90 55 60
        E 0 90 61 60
        E 40 80 3c 00
        E 0 80 49 00
        E 0 80 55 00
        E 0 80 61 00
        E 420 90 54 60
        E 0 90 60 60
        E 40 80 54 00
        E 0 80 60 00
        E 420 90 49 60
        E 0 90 55 60
        E 0 90 61 60
        E 740 80 49 00
        E 0 80 55 00
        E 0 80 61 00
        E 640 90 3e 60
        E 0 90 4b 60
        E 0 90 57 60
        E 0 90 63 60
        E 120 80 3e 00
        E 500 80 4b 00
        E 120 80 57 00
        E 0 80 63 00
        E 240 90 3c 60
        E 0 90 49 60
        E 0 90 55 60
        E 0 90 61 60
        E 40 80 3c 00
        E 0 80 49 00
        E 0 80 55 00
        E 0 80 61 00
        E 420 90 56 60
        E 0 90 62 60
        E 40 80 56 00
        E 0 80 62 00
        E 420 90 4b 60
        E 0 90 57 60
        E 0 90 63 60
        E 40 80 4b 00
        E 0 80 57 00
        E 0 80 63 00
        E 420 90 56 60
        E 0 90 62 60
        E 40 80 56 00
        E 0 80 62 00
        E 420 90 3c 60
        E 0 90 49 60
        E 0 90 55 60
        E 0 90 61 60
        E 40 80 3c 00
        E 0 80 49 00
        E 0 80 55 00
        E 0 80 61 00
        E 420 90 58 60
        E 0 90 64 60
        E 40 80 58 00
        E 0 80 64 00
        E 420 90 4a 60
        E 0 90 56 60
        E 0 90 62 60
        E 120 80 4a 00
        E 0 80 56 00
        E 340 80 62 00
        E 460 90 4b 60
        E 0 90 58 60
        E 0 90 64 60
        E 40 80 4b 00
        E 0 80 58 00
        E 0 80 64 00
        E 420 90 3e 60
        E 0 90 4b 60
        E 0 90 57 60
        E 0 90 63 60
        E 120 80 3e 00
        E 500 80 4b 00
        E 120 80 57 00
        E 0 80 63 00
        E 240 90 3c 60
        E 0 90 49 60
        E 0 90 55 60
        E 0 90 61 60
        E 40 80 3c 00
        E 0 80 49 00
        E 0 80 55 00
        E 0 80 61 00
        E 420 90 4a 60
        E 0 90 56 60
        E 0 90 62 60
        E 40 80 4a 00
        E 0 80 56 00
        E 0 80 62 00
        E 420 90 57 60
        E 0 90 63 60
        E 40 80 57 00
        E 0 80 63 00
        E 420 90 3d 60
        E 0 90 4a 60
        E 0 90 56 60
        E 0 90 62 60
        E 40 80 3d 00
        E 0 80 4a 00
        E 0 80 56 00
        E 0 80 62 00
        E 420 90 55 60
        E 0 90 61 60
        E 40 80 55 00
        E 0 80 61 00
        E 420 90 48 60
        E 0 90 54 60
        E 0 90 60 60
        E 40 80 48 00
        E 0 80 54 00
        E 0 80 60 00
        E 420 90 55 60
        E 0 90 61 60
        E 740 80 55 00
        E 0 80 61 00
        E 640 90 3e 60
        E 0 90 4b 60
        E 0 90 57 60
        E 0 90 63 60
        E 600 80 3e 00
        E 120 80 4b 00
        E 20 80 57 00
        E 0 80 63 00
        E 340 90 3c 60
        E 0 90 49 60
        E 0 90 55 60
        E 0 90 61 60
        E 40 80 3c 00
        E 0 80 49 00
        E 0 80 55 00
        E 0 80 61 00
        E 420 90 56 60
        E 0 90 62 60
        E 40 80 56 00
        E 0 80 62 00
        E 420 90 4b 60
        E 0 90 57 60
        E 0 90 63 60
        E 40 80 4b 00
        E 0 80 57 00
        E 0 80 63 00
        E 420 90 56 60
        E 0 90 62 60
        E 40 80 56 00
        E 0 80 62 00
        E 420 90 3c 60
        E 0 90 49 60
        E 0 90 55 60
        E 0 90 61 60
        E 40 80 3c 00
        E 0 80 49 00
        E 0 80 55 00
        E 0 80 61 00
        E 420 90 58 60
        E 0 90 64 60
        E 40 80 58 00
        E 0 80 64 00
        E 420 90 4a 60
        E 0 90 56 60
        E 0 90 62 60
        E 120 80 4a 00
        E 0 80 56 00
        E 340 80 62 00
        E 460 90 3e 60
        E 0 90 4b 60
        E 0 90 58 60
        E 0 90 64 60
        E 40 80 3e 00
        E 0 80 4b 00
        E 0 80 58 00
        E 0 80 64 00
        E 420 90 57 60
        E 0 90 63 60
        E 740 80 57 00
        E 0 80 63 00
        E 240 90 3c 60
        E 0 90 49 60
        E 0 90 55 60
        E 0 90 61 60
        E 40 80 3c 00
        E 0 80 49 00
        E 0 80 55 00
        E 0 80 61 00
        E 420 90 56 60
        E 0 90 62 60
        E 40 80 56 00
        E 0 80 62 00
        E 420 90 4b 60
        E 0 90 57 60
        E 0 90 63 60
        E 40 80 4b 00
        E 0 80 57 00
        E 0 80 63 00
        E 420 90 56 60
        E 0 90 62 60
        E 40 80 56 00
        E 0 80 62 00
        E 420 90 3c 60
        E 0 90 49 60
        E 0 90 55 60
        E 0 90 61 60
        E 40 80 3c 00
        E 0 80 49 00
        E 0 80 55 00
        E 0 80 61 00
        E 420 90 54 60
        E 0 90 60 60
        E 40 80 54 00
        E 0 80 60 00
        E 420 90 49 60
        E 0 90 55 60
        E 0 90 61 60
        E 740 80 49 00
        E 0 80 55 00
        E 0 80 61 00
        E 640 90 3e 60
        E 0 90 4b 60
        E 0 90 57 60
        E 0 90 63 60
        E 120 80 3e 00
        E 500 80 4b 00
        E 120 80 57 00
        E 0 80 63 00
        E 240 90 3c 60
        E 0 90 49 60
        E 0 90 55 60
        E 0 90 61 60
        E 40 80 3c 00
        E 0 80 49 00
        E 0 80 55 00
        E 0 80 61 00
        E 420 90 56 60
        E 0 90 62 60
        E 40 80 56 00
        E 0 80 62 00
        E 420 90 4b 60
        E 0 90 57 60
        E 0 90 63 60
        E 40 80 4b 00
        E 0 80 57 00
        E 0 80 63 00
        E 420 90 56 60
        E 0 90 62 60
        E 40 80 56 00
        E 0 80 62 00
        E 420 90 3c 60
        E 0 90 49 60
        E 0 90 55 60
        E 0 90 61 60
        E 40 80 3c 00
        E 0 80 49 00
        E 0 80 55 00
        E 0 80 61 00
        E 420 90 4b 60
        E 0 90 58 60
        E 0 90 64 60
        E 40 80 4b 00
        E 0 80 58 00
        E 0 80 64 00
        E 420 90 3d 60
        E 0 90 4a 60
        E 0 90 56 60
        E 0 90 62 60
        E 120 80 3d 00
        E 0 80 4a 00
        E 0 80 56 00
        E 340 80 62 00
        E 460 90 4b 60
        E 0 90 58 60
        E 0 90 64 60
        E 40 80 4b 00
        E 0 80 58 00
        E 0 80 64 00
        E 420 90 57 60
        E 0 90 63 60
        E 740 80 57 00
        E 0 80 63 00
        E 240 90 3c 60
        E 0 90 49 60
        E 0 90 55 60
        E 0 90 61 60
        E 40 80 3c 00
        E 0 80 49 00
        E 0 80 55 00
        E 0 80 61 00
        E 420 90 56 60
        E 0 90 62 60
        E 40 80 56 00
        E 0 80 62 00
        E 420 90 4b 60
        E 0 90 57 60
        E 0 90 63 60
        E 40 80 4b 00
        E 0 80 57 00
        E 0 80 63 00
        <X 480 0
          /wFbaWRsZV9yZWFsdGltZV0=
        >
        E 1220 b0 7b 00
        GUID {14D9E950-FB92-4048-8603-8FD02AE3B865}
        IGNTEMPO 0 120.00000000 4 4
        SRCCOLOR 403
        VELLANE 132 38 60
        COLORMAP "C:\Users\wejaa\AppData\Roaming\REAPER\Data\color_maps\rockband_guitarbass.png"
        TEXTSTRINGFILE "Text Events List.txt"
        CFGEDITVIEW 90161.114252 264.019833 3 12 0 0 0
        CFGEDIT 1 1 0 0 0 1 1 1 1 1 1 0.04166667 -8 -8 1370 736 1 2 1 2 0.00000000 0 0 0 0 0.500000 1 0 1.000000 64
        KEYSNAP 0 0 "102034050607" 0 "Major"
        EVTFILTER 0 -1 -1 -1 -1 0 1 0 0 -1.00000000 -1.00000000
      >
    >
  >
  <TRACK '{C298A11E-8E06-44B8-AA31-429ECCE3F0AF}'
    NAME "PART VOCALS"
    PEAKCOL 16810239
    BEAT -1
    AUTOMODE 0
    VOLPAN 0.99997469241676 0.00000000000000 -1.00000000000000 -1.00000000000000 1.00000000000000
    MUTESOLO 0 0 0
    IPHASE 0
    ISBUS 0 0
    BUSCOMP 1 0
    SHOWINMIX 1 0.666700 0.500000 1 0.500000 -1 -1 -1
    FREEMODE 0
    SEL 0
    REC 0 4096 1 7 0 0 0
    TRACKHEIGHT 0 0
    INQ 0 0 0 0.5000000000 100 0 0 100
    NCHAN 2
    FX 1
    TRACKID {C298A11E-8E06-44B8-AA31-429ECCE3F0AF}
    PERF 0
    MIDIOUT -1
    <MIDINOTENAMES
      0 105 "Phrase Marker"
      0 84 "C5"
      0 36 "C1"
      0 83 "B"
      0 82 "Bb"
      0 81 "A"
      0 80 "G#"
      0 79 "G"
      0 78 "F#"
      0 77 "F"
      0 76 "E"
      0 75 "Eb"
      0 74 "D"
      0 73 "C#"
      0 72 "C4"
      0 71 "B"
      0 70 "Bb"
      0 69 "A"
      0 68 "G#"
      0 67 "G"
      0 66 "F#"
      0 65 "F"
      0 64 "E"
      0 63 "Eb"
      0 62 "D"
      0 61 "C#"
      0 60 "C3"
      0 59 "B"
      0 58 "Bb"
      0 57 "A"
      0 56 "G#"
      0 55 "G"
      0 54 "F#"
      0 53 "F"
      0 52 "E"
      0 51 "Eb"
      0 50 "D"
      0 49 "C#"
      0 48 "C2"
      0 47 "B"
      0 46 "Bb"
      0 45 "A"
      0 44 "G#"
      0 43 "G"
      0 42 "F#"
      0 41 "F"
      0 40 "E"
      0 39 "Eb"
      0 38 "D"
      0 37 "C#"
      0 97 "Not Displayed Percussion"
      0 96 "Displayed Percussion"
      0 104 "----"
      0 95 "----"
      0 116 "OVERDRIVE"
      0 115 "----"
      0 0 "Range Shift"
      0 1 "Lyric Shift"
    >
    MAINSEND 1 0
    <FXCHAIN
      WNDRECT 581 377 716 493
      SHOW 0
      LASTSEL 1
      DOCKED 0
      BYPASS 0 0
      <JS "IX/MIDI_Tool II" ""
        0.000000 85.000000 127.000000 0.000000 0.000000 0.000000 100.000000 0.000000 0.000000 127.000000 0.000000 0.000000 1.000000 0.000000 0.000000 - - - - - - - - - - - - - - - - - - - - - - - - - - - - - - - - - - - - - - - - - - - - - - - - - 
      >
      FLOATPOS 0 0 0 0
      FXID {CA785021-0433-497E-9A6C-EE23A1BC21B0}
      WAK 0
      BYPASS 0 0
      <VST "VSTi: ReaSynth (Cockos)" "reasynth.dll" 0 ""
        eXNlcu9e7f4AAAAAAgAAAAEAAAAAAAAAAgAAAAAAAAA4AAAAAAAAAA==
        AAAAAO++rd4N8K3eppvEOxe30ToAAAAAAAAAAAAAAACa9Q8/6WeIPQ==
        AAAAAAAAAD8AAIA/AAAAAAAAAD8AAAAAAAA=
      >
      FLOATPOS 32 32 338 405
      FXID {F124DD19-73B4-4CD5-B659-E246F2A3D0B3}
      WAK 0
    >
    <ITEM
      POSITION 0.00000000000000
      SNAPOFFS 0.00000000000000
      LENGTH 252.98525897370561
      LOOP 0
      ALLTAKES 0
      SEL 0
      FADEIN 1 0.000000 0.000000 1 0
      FADEOUT 1 0.000000 0.000000 1 0
      MUTE 0
      IGUID {9C9617EC-369A-41B9-80F6-31F4222F13F6}
      IID 10
      NAME "PART VOCALS"
      VOLPAN 1.000000 0.000000 1.000000 -1.000000
      SOFFS 0.00000000000000 0.00000000000000
      PLAYRATE 1.00000000000000 1 0.00000000000000 -65536
      CHANMODE 0
      GUID {8E872349-00D8-4243-95D7-0B92852E4EE5}
      <SOURCE MIDI
        HASDATA 1 480 QN
        POOLEDEVTS {35D20975-50A2-478B-8369-EC2AE5105529}
        <X 0 0
          /wNQQVJUIFZPQ0FMUw==
        >
        <X 3840 0
          /wFbaWRsZV0=
        >
        <X 26880 0
          /wFbbWVsbG93XQ==
        >
        E 720 90 69 50
        <X 540 0
          /wVLby0=
        >
        E 0 90 3e 50
        E 180 80 3e 00
        <X 120 0
          /wV0aS0=
        >
        E 0 96 3e 50
        E 210 86 3e 00
        <X 150 0
          /wVrYXUt
        >
        E 0 96 3e 50
        E 300 86 3e 00
        <X 180 0
          /wVwdW4t
        >
        E 0 96 40 50
        E 360 86 40 00
        <X 120 0
          /wVnaW4=
        >
        E 0 96 40 50
        E 240 86 40 00
        <X 60 0
          /wVrYS0=
        >
        E 0 96 40 50
        E 240 86 40 00
        <X 120 0
          /wV0dQ==
        >
        E 0 96 40 50
        E 180 86 40 00
        <X 120 0
          /wVvbGk=
        >
        E 0 96 3e 50
        E 480 86 3e 00
        <X 180 0
          /wVoaWVrLQ==
        >
        E 0 96 3c 50
        E 364 86 3c 00
        <X 296 0
          /wVrYWkt
        >
        E 0 96 3a 50
        E 240 86 3a 00
        <X 60 0
          /wVuZW4=
        >
        E 0 96 39 50
        E 240 86 39 00
        <X 60 0
          /wV0aWU=
        >
        E 0 96 3e 50
        E 480 86 3e 00
        E 30 80 69 00
        E 90 90 69 60
        <X 60 0
          /wVTaWkt
        >
        E 0 96 39 50
        E 300 86 39 00
        <X 60 0
          /wVuw6Q=
        >
        E 0 96 3a 50
        E 120 86 3a 00
        <X 116 0
          /wVBbmct
        >
        E 0 96 3a 50
        E 544 86 3a 00
        <X 180 0
          /wVsaWE=
        >
        E 0 90 35 50
        E 480 80 35 00
        <X 120 0
          /wVrYS0=
        >
        E 0 96 39 50
        E 240 86 39 00
        <X 180 0
          /wV0b2wt
        >
        E 0 96 34 50
        E 360 86 34 00
        <X 60 0
          /wVsZWVu
        >
        E 0 96 35 50
        E 180 86 35 00
        <X 60 0
          /wUr
        >
        E 0 96 37 50
        E 120 86 37 00
        <X 60 0
          /wVrw6TDpG4t
        >
        E 0 96 39 60
        E 540 86 39 00
        <X 120 0
          /wV0eWk=
        >
        E 0 96 39 50
        E 540 86 39 00
        E 90 80 69 00
        E 450 90 69 50
        <X 180 0
          /wVWaWUt
        >
        E 0 96 3e 50
        E 240 86 3e 00
        <X 60 0
          /wVsw6Q=
        >
        E 0 96 3e 50
        E 240 86 3e 00
        <X 120 0
          /wV2aS0=
        >
        E 0 96 3e 50
        E 180 86 3e 00
        <X 116 0
          /wVub3Mt
        >
        E 0 96 3e 50
        E 364 86 3e 00
        <X 120 0
          /wVzYQ==
        >
        E 0 96 40 50
        E 480 86 40 00
        <X 114 0
          /wVsaWkt
        >
        E 0 96 40 50
        E 366 86 40 00
        <X 120 0
          /wVrZW4t
        >
        E 0 96 3f 50
        E 300 86 3f 00
        <X 62 0
          /wVuZS0=
        >
        E 0 96 3d 50
        E 178 86 3d 00
        <X 62 0
          /wVtZXJrLQ==
        >
        E 0 96 3b 50
        E 598 86 3b 00
        <X 116 0
          /wVraS0=
        >
        E 0 96 39 50
        E 304 86 39 00
        <X 62 0
          /wVraW4=
        >
        E 0 96 38 50
        E 118 86 38 00
        <X 182 0
          /wVsaWU=
        >
        E 0 96 3d 50
        E 418 86 3d 00
        E 60 80 69 00
        E 90 90 69 60
        E 0 90 74 60
        <X 86 0
          /wVKby0=
        >
        E 0 96 38 50
        E 184 86 38 00
        <X 60 0
          /wVrYQ==
        >
        E 0 96 39 50
        E 184 86 39 00
        <X 172 0
          /wVvaC0=
        >
        E 0 96 39 50
        E 484 86 39 00
        <X 60 0
          /wVqYXVzLQ==
        >
        E 0 96 39 50
        E 184 86 39 00
        <X 116 0
          /wUr
        >
        E 0 96 38 50
        E 300 86 38 00
        <X 120 0
          /wV2aXIt
        >
        E 0 96 33 50
        E 364 86 33 00
        <X 116 0
          /wVoZWUt
        >
        E 0 96 34 50
        E 240 86 34 00
        <X 60 0
          /wVzdMOk
        >
        E 0 96 35 50
        E 360 86 35 00
        <X 120 0
          /wV2w6TDpG4t
        >
        E 0 96 37 50
        E 480 86 37 00
        <X 120 0
          /wV0eWk=
        >
        E 0 96 37 50
        E 540 86 37 00
        E 90 80 69 00
        E 0 80 74 00
        E 330 90 69 50
        <X 372 0
          /wVFLQ==
        >
        E 0 96 3e 50
        E 228 86 3e 00
        <X 120 0
          /wV0dS0=
        >
        E 0 90 3e 50
        E 180 80 3e 00
        <X 116 0
          /wVwZW4t
        >
        E 0 96 3e 50
        E 424 86 3e 00
        <X 120 0
          /wVraWwt
        >
        E 0 96 3e 50
        E 364 86 3e 00
        <X 56 0
          /wV0w6Q=
        >
        E 0 96 3e 50
        E 180 86 3e 00
        <X 120 0
          /wVsYS0=
        >
        E 0 96 40 50
        E 124 86 40 00
        <X 116 0
          /wVzaW4=
        >
        E 0 96 40 50
        E 240 86 40 00
        <X 120 0
          /wVsw6Qt
        >
        E 0 96 40 50
        E 240 86 40 00
        <X 116 0
          /wVwaQ==
        >
        E 0 96 40 50
        E 124 86 40 00
        <X 116 0
          /wVsZW4t
        >
        E 0 96 3e 50
        E 484 86 3e 00
        <X 120 0
          /wVuZXQt
        >
        E 0 96 3c 50
        E 364 86 3c 00
        <X 116 0
          /wV0ecOkLQ==
        >
        E 0 96 3a 50
        E 124 86 3a 00
        <X 116 0
          /wUr
        >
        E 0 96 39 50
        E 300 86 39 00
        <X 60 0
          /wVuaQ==
        >
        E 0 96 3e 50
        E 124 86 3e 00
        E 56 80 69 00
        E 90 90 69 60
        <X 30 0
          /wVPLQ==
        >
        E 0 96 3e 50
        E 184 86 3e 00
        <X 56 0
          /wVsaW4=
        >
        E 0 96 39 50
        E 300 86 39 00
        <X 120 0
          /wVwecO2LQ==
        >
        E 0 96 3a 50
        E 540 86 3a 00
        <X 60 0
          /wVyaS0=
        >
        E 0 96 3a 50
        E 300 86 3a 00
        <X 60 0
          /wVueXQ=
        >
        E 0 96 3a 50
        E 120 86 3a 00
        <X 60 0
          /wUr
        >
        E 0 96 39 50
        E 120 86 39 00
        <X 60 0
          /wVwaWVuLQ==
        >
        E 0 96 34 50
        E 480 86 34 00
        <X 60 0
          /wVuYXIt
        >
        E 0 96 35 50
        E 300 86 35 00
        <X 120 0
          /wV0YQ==
        >
        E 0 96 37 50
        E 180 86 37 00
        <X 120 0
          /wVwaXQt
        >
        E 0 96 39 50
        E 360 86 39 00
        <X 180 0
          /wVraW4=
        >
        E 0 96 39 50
        E 540 86 39 00
        E 90 80 69 00
        E 450 90 69 50
        <X 312 0
          /wVPLQ==
        >
        E 0 96 3e 50
        E 124 86 3e 00
        <X 116 0
          /wVqYW4=
        >
        E 0 96 3e 50
        E 288 86 3e 00
        <X 116 0
          /wVwb2gt
        >
        E 0 96 3e 50
        E 364 86 3e 00
        <X 116 0
          /wVqYWwt
        >
        E 0 96 3e 50
        E 364 86 3e 00
        <X 120 0
          /wVsYQ==
        >
        E 0 96 40 50
        E 180 86 40 00
        <X 120 0
          /wVoYW0t
        >
        E 0 96 40 50
        E 364 86 40 00
        <X 116 0
          /wVwYWkt
        >
        E 0 96 40 50
        E 360 86 40 00
        <X 120 0
          /wV0YQ==
        >
        E 0 96 3e 50
        E 180 86 3e 00
        <X 120 0
          /wVzeWwt
        >
        E 0 96 3c 50
        E 480 86 3c 00
        <X 120 0
          /wVraS0=
        >
        E 0 96 3a 50
        E 240 86 3a 00
        <X 56 0
          /wVlcy0=
        >
        E 0 96 39 50
        E 304 86 39 00
        <X 116 0
          /wVzw6Qt
        >
        E 0 96 3e 50
        E 304 86 3e 00
        <X 56 0
          /wVuaQ==
        >
        E 0 96 3e 50
        E 124 86 3e 00
        E 60 80 69 00
        E 30 90 69 60
        E 0 90 74 60
        <X 26 0
          /wVNaS0=
        >
        E 0 96 39 50
        E 244 86 39 00
        <X 56 0
          /wVuw6Q=
        >
        E 0 96 3a 50
        E 244 86 3a 00
        <X 120 0
          /wVvay0=
        >
        E 0 96 3a 50
        E 300 86 3a 00
        <X 60 0
          /wVzZW4t
        >
        E 0 96 3a 50
        E 360 86 3a 00
        <X 56 0
          /wVzaW4=
        >
        E 0 96 39 50
        E 364 86 39 00
        <X 120 0
          /wV2ZXIt
        >
        E 0 96 34 50
        E 480 86 34 00
        <X 120 0
          /wV0YQ==
        >
        E 0 96 35 50
        E 240 86 35 00
        <X 120 0
          /wVqYQ==
        >
        E 0 96 37 50
        E 124 86 37 00
        <X 236 0
          /wVpdC0=
        >
        E 0 96 39 50
        E 300 86 39 00
        <X 236 0
          /wVraW4=
        >
        E 0 96 39 50
        E 664 86 39 00
        E 30 80 69 00
        E 0 80 74 00
        <X 450 0
          /wFbaWRsZV0=
        >
        <X 20241 0
          /wFbbWVsbG93XQ==
        >
        E 9 90 69 50
        <X 471 0
          /wVUw6RzLQ==
        >
        E 0 96 3e 50
        E 279 86 3e 00
        <X 60 0
          /wVzw6Q=
        >
        E 0 96 3e 50
        E 240 86 3e 00
        <X 120 0
          /wVuYWEt
        >
        E 0 96 3e 50
        E 364 86 3e 00
        <X 77 0
          /wVtYXMt
        >
        E 0 96 3e 50
        E 399 86 3e 00
        <X 60 0
          /wVzYQ==
        >
        E 0 96 40 50
        E 180 86 40 00
        <X 180 0
          /wVhci0=
        >
        E 0 96 40 50
        E 420 86 40 00
        <X 176 0
          /wVwaS0=
        >
        E 0 96 40 50
        E 184 86 40 00
        <X 120 0
          /wVraW4=
        >
        E 0 96 40 50
        E 120 86 40 00
        <X 56 0
          /wUr
        >
        E 0 96 3e 50
        E 64 86 3e 00
        <X 120 0
          /wVrYXUt
        >
        E 0 96 3c 50
        E 420 86 3c 00
        <X 116 0
          /wVuaXMt
        >
        E 0 96 3b 50
        E 304 86 3b 00
        <X 120 0
          /wV0dXM=
        >
        E 0 96 39 50
        E 180 86 39 00
        <X 141 0
          /wVvLQ==
        >
        E 0 96 3e 50
        E 279 86 3e 00
        <X 81 0
          /wVsaS0=
        >
        E 0 96 3e 50
        E 159 86 3e 00
        <X 81 0
          /wVzaQ==
        >
        E 0 96 39 50
        E 159 86 39 00
        E 30 80 69 00
        E 60 90 69 60
        <X 30 0
          /wVKYQ==
        >
        E 0 96 3b 50
        E 240 86 3b 00
        <X 120 0
          /wVoYW0t
        >
        E 0 96 3b 50
        E 364 86 3b 00
        <X 116 0
          /wVwYWF0
        >
        E 0 96 3b 50
        E 300 86 3b 00
        <X 116 0
          /wV2b2k=
        >
        E 0 96 39 50
        E 304 86 39 00
        <X 116 0
          /wV1dS0=
        >
        E 0 96 34 50
        E 364 86 34 00
        <X 116 0
          /wVzaWst
        >
        E 0 96 36 50
        E 184 86 36 00
        <X 120 0
          /wVzaQ==
        >
        E 0 96 37 50
        E 240 86 37 00
        <X 176 0
          /wVsYWl0LQ==
        >
        E 0 96 39 50
        E 424 86 39 00
        <X 180 0
          /wV0YWE=
        >
        E 0 96 39 50
        E 420 86 39 00
        E 60 80 69 00
        E 300 90 69 50
        <X 236 0
          /wVNdXQ=
        >
        E 0 96 3e 50
        E 184 86 3e 00
        <X 120 0
          /wVhLQ==
        >
        E 0 96 3e 50
        E 180 86 3e 00
        <X 120 0
          /wVqby0=
        >
        E 0 90 3e 50
        E 240 80 3e 00
        <X 120 0
          /wVrb3It
        >
        E 0 96 3e 50
        E 360 86 3e 00
        <X 176 0
          /wV0aW4=
        >
        E 0 96 3e 50
        E 304 86 3e 00
        <X 120 0
          /wVqYQ==
        >
        E 0 96 40 50
        E 240 86 40 00
        <X 120 0
          /wVBbmct
        >
        E 0 96 40 50
        E 480 86 40 00
        <X 116 0
          /wVsaS0=
        >
        E 0 96 40 50
        E 124 86 40 00
        <X 116 0
          /wVhbg==
        >
        E 0 96 3e 50
        E 244 86 3e 00
        <X 120 0
          /wVraWwt
        >
        E 0 96 3c 50
        E 420 86 3c 00
        <X 116 0
          /wV2ZXQ=
        >
        E 0 96 3b 50
        E 304 86 3b 00
        <X 120 0
          /wV2ZWk=
        >
        E 0 96 39 50
        E 300 86 39 00
        <X 120 0
          /wVwby0=
        >
        E 0 96 3e 50
        E 180 86 3e 00
        <X 116 0
          /wVsaWkt
        >
        E 0 96 3e 50
        E 184 86 3e 00
        <X 116 0
          /wVzaQ==
        >
        E 0 96 39 50
        E 184 86 39 00
        E 30 80 69 00
        E 60 90 69 60
        E 0 90 74 60
        <X 26 0
          /wVTZQ==
        >
        E 0 96 3b 50
        E 244 86 3b 00
        <X 116 0
          /wVoYXIt
        >
        E 0 96 3b 50
        E 364 86 3b 00
        <X 60 0
          /wVyYXMt
        >
        E 0 96 3b 50
        E 300 86 3b 00
        <X 176 0
          /wV0dXMt
        >
        E 0 96 39 50
        E 124 86 39 00
        <X 176 0
          /wV0b2kt
        >
        E 0 96 34 50
        E 484 86 34 00
        <X 56 0
          /wVtaW4t
        >
        E 0 96 36 50
        E 244 86 36 00
        <X 120 0
          /wV0YWE=
        >
        E 0 96 37 50
        E 300 86 37 00
        <X 116 0
          /wVoYWl0LQ==
        >
        E 0 96 39 50
        E 364 86 39 00
        <X 236 0
          /wV0YWE=
        >
        E 0 96 39 50
        E 484 86 39 00
        E 90 80 69 00
        E 0 80 74 00
        <X 390 0
          /wFbaWRsZV0=
        >
        <X 20156 0
          /wFbbWVsbG93XQ==
        >
        E 330 90 69 50
        <X 150 0
          /wVSYWxsaS0=
        >
        E 0 96 3d 50
        E 424 86 3d 00
        <X 120 0
          /wUr
        >
        E 0 96 3f 50
        E 180 86 3f 00
        <X 120 0
          /wVrdXMt
        >
        E 0 96 41 50
        E 360 86 41 00
        <X 120 0
          /wVraWst
        >
        E 0 96 41 50
        E 180 86 41 00
        <X 116 0
          /wVzaQ==
        >
        E 0 96 42 50
        E 304 86 42 00
        <X 116 0
          /wVww6TDpC0=
        >
        E 0 96 41 50
        E 484 86 41 00
        <X 120 0
          /wVzeXMt
        >
        E 0 96 3f 50
        E 360 86 3f 00
        <X 120 0
          /wV0w6Q=
        >
        E 0 96 3d 50
        E 180 86 3d 00
        <X 116 0
          /wV0b2kt
        >
        E 0 96 3b 50
        E 424 86 3b 00
        <X 180 0
          /wV2ZWkt
        >
        E 0 96 3b 50
        E 240 86 3b 00
        <X 116 0
          /wV0YQ==
        >
        E 0 96 3d 50
        E 184 86 3d 00
        <X 120 0
          /wVlLQ==
        >
        E 0 96 3b 50
        E 180 86 3b 00
        <X 116 0
          /wVsw6Qt
        >
        E 0 96 3a 50
        E 244 86 3a 00
        <X 116 0
          /wV0w6Ru
        >
        E 0 96 38 50
        E 364 86 38 00
        E 90 80 69 00
        E 150 90 69 50
        <X 56 0
          /wVUdXIt
        >
        E 0 96 42 50
        E 484 86 42 00
        <X 116 0
          /wVoYQ==
        >
        E 0 96 42 50
        E 244 86 42 00
        <X 116 0
          /wVvbg==
        >
        E 0 96 42 50
        E 244 86 42 00
        <X 116 0
          /wXDpGkt
        >
        E 0 96 42 50
        E 484 86 42 00
        <X 116 0
          /wV0aS0=
        >
        E 0 96 41 50
        E 244 86 41 00
        <X 120 0
          /wVlbg==
        >
        E 0 96 3f 50
        E 124 86 3f 00
        <X 116 0
          /wVzYW4t
        >
        E 0 96 3d 50
        E 480 86 3d 00
        <X 120 0
          /wVrYS0=
        >
        E 0 96 3f 50
        E 240 86 3f 00
        <X 120 0
          /wVyaS0=
        >
        E 0 96 3d 50
        E 124 86 3d 00
        <X 116 0
          /wVwb2kt
        >
        E 0 96 3b 50
        E 600 86 3b 00
        <X 116 0
          /wVraS0=
        >
        E 0 96 3d 50
        E 124 86 3d 00
        <X 116 0
          /wVh
        >
        E 0 96 3b 50
        E 304 86 3b 00
        <X 120 0
          /wVuZXUt
        >
        E 0 96 3a 50
        E 780 86 3a 00
        <X 176 0
          /wV2b2E=
        >
        E 0 96 36 50
        E 124 86 36 00
        <X 116 0
          /wUr
        >
        E 0 96 36 50
        E 844 86 36 00
        E 180 80 69 00
        E 1920 90 69 50
        <X 300 0
          /wVFaS0=
        >
        E 0 96 3d 50
        E 240 86 3d 00
        <X 120 0
          /wVow6Ru
        >
        E 0 96 3f 50
        E 124 86 3f 00
        <X 116 0
          /wVyYWwt
        >
        E 0 96 41 50
        E 660 86 41 00
        <X 116 0
          /wVsaWE=
        >
        E 0 96 41 50
        E 304 86 41 00
        <X 60 0
          /wUr
        >
        E 0 96 42 50
        E 180 86 42 00
        <X 116 0
          /wV2b2kt
        >
        E 0 96 41 50
        E 424 86 41 00
        <X 116 0
          /wV0ZS0=
        >
        E 0 96 3f 50
        E 184 86 3f 00
        <X 116 0
          /wV0YQ==
        >
        E 0 96 3d 50
        E 184 86 3d 00
        <X 120 0
          /wVqb3M=
        >
        E 0 96 3b 50
        E 480 86 3b 00
        <X 120 0
          /wVzaWVsLQ==
        >
        E 0 96 3b 50
        E 360 86 3b 00
        <X 116 0
          /wVsw6Q=
        >
        E 0 96 3d 50
        E 184 86 3d 00
        <X 120 0
          /wVwZS0=
        >
        E 0 96 3b 50
        E 180 86 3b 00
        <X 120 0
          /wVsw6Qt
        >
        E 0 96 3a 50
        E 240 86 3a 00
        <X 116 0
          /wV0w6TDpG4=
        >
        E 0 96 38 50
        E 364 86 38 00
        E 60 80 69 00
        E 120 90 69 50
        E 0 90 74 50
        <X 60 0
          /wVNYWEt
        >
        E 0 96 42 50
        E 720 86 42 00
        <X 120 0
          /wVsaXMt
        >
        E 0 96 42 50
        E 124 86 42 00
        <X 116 0
          /wVzYQ==
        >
        E 0 96 42 50
        E 124 86 42 00
        <X 116 0
          /wVqdWgt
        >
        E 0 96 42 50
        E 300 86 42 00
        <X 180 0
          /wVsaS0=
        >
        E 0 96 41 50
        E 124 86 41 00
        <X 116 0
          /wV0YWFu
        >
        E 0 96 3f 50
        E 300 86 3f 00
        <X 120 0
          /wV2b2l0LQ==
        >
        E 0 96 3d 50
        E 364 86 3d 00
        <X 232 0
          /wV0YS0=
        >
        E 0 96 3f 50
        E 184 86 3f 00
        <X 116 0
          /wVqYS0=
        >
        E 0 96 3d 50
        E 364 86 3d 00
        <X 180 0
          /wVwb2kt
        >
        E 0 96 3b 50
        E 364 86 3b 00
        <X 116 0
          /wVrYWFtLQ==
        >
        E 0 96 3d 50
        E 360 86 3d 00
        <X 116 0
          /wVtZQ==
        >
        E 0 96 3b 50
        E 124 86 3b 00
        <X 176 0
          /wVUZXUt
        >
        E 0 96 3a 50
        E 784 86 3a 00
        <X 120 0
          /wV2b2E=
        >
        E 0 96 36 50
        E 124 86 36 00
        <X 116 0
          /wUr
        >
        E 0 96 36 50
        E 364 86 36 00
        E 176 80 69 00
        E 0 80 74 00
        <X 304 0
          /wFbaWRsZV0=
        >
        <X 22529 0
          /wFbbWVsbG93XQ==
        >
        E 267 90 69 50
        <X 210 0
          /wVWaWkt
        >
        E 0 96 3e 50
        E 207 86 3e 00
        <X 116 0
          /wVrb24t
        >
        E 0 96 3e 50
        E 184 86 3e 00
        <X 116 0
          /wVsb3B1ay0=
        >
        E 0 96 3e 50
        E 184 86 3e 00
        <X 180 0
          /wUr
        >
        E 0 96 3e 50
        E 300 86 3e 00
        <X 120 0
          /wVzaQ==
        >
        E 0 96 40 50
        E 300 86 40 00
        <X 120 0
          /wVhdS0=
        >
        E 0 96 40 50
        E 480 86 40 00
        <X 180 0
          /wV0b2E=
        >
        E 0 96 40 50
        E 480 86 40 00
        <X 180 0
          /wUr
        >
        E 0 96 3e 50
        E 360 86 3e 00
        <X 176 0
          /wVldHNpLQ==
        >
        E 0 96 3c 50
        E 244 86 3c 00
        <X 120 0
          /wUr
        >
        E 0 96 3a 50
        E 120 86 3a 00
        <X 60 0
          /wVlcy0=
        >
        E 0 96 39 50
        E 124 86 39 00
        <X 176 0
          /wVzw6RuaQ==
        >
        E 0 96 3e 50
        E 240 86 3e 00
        <X 120 0
          /wUr
        >
        E 0 96 3e 50
        E 120 86 3e 00
        E 3 80 69 00
        E 90 90 69 60
        <X 27 0
          /wVPLQ==
        >
        E 0 96 39 50
        E 180 86 39 00
        <X 56 0
          /wV0aW4=
        >
        E 0 96 3b 50
        E 184 86 3b 00
        <X 116 0
          /wVsYWkt
        >
        E 0 96 3b 50
        E 364 86 3b 00
        <X 180 0
          /wVuYWst
        >
        E 0 96 3b 50
        E 180 86 3b 00
        <X 120 0
          /wVzaQ==
        >
        E 0 96 39 50
        E 300 86 39 00
        <X 116 0
          /wVuYWEt
        >
        E 0 96 34 50
        E 484 86 34 00
        <X 180 0
          /wVwdS0=
        >
        E 0 96 36 50
        E 180 86 36 00
        <X 60 0
          /wVyaW4=
        >
        E 0 96 37 50
        E 240 86 37 00
        <X 120 0
          /wVTaWVyLQ==
        >
        E 0 96 39 50
        E 660 86 39 00
        <X 116 0
          /wVyYW4=
        >
        E 0 96 39 50
        E 304 86 39 00
        E 63 80 69 00
        E 630 90 69 50
        <X 267 0
          /wVQaS0=
        >
        E 0 96 3e 50
        E 124 86 3e 00
        <X 116 0
          /wVrYS0=
        >
        E 0 96 3e 50
        E 124 86 3e 00
        <X 232 0
          /wV0aWVsLQ==
        >
        E 0 96 3e 50
        E 484 86 3e 00
        <X 120 0
          /wVsw6Q=
        >
        E 0 96 3e 50
        E 180 86 3e 00
        <X 120 0
          /wVtw6Q=
        >
        E 0 96 40 50
        E 240 86 40 00
        <X 120 0
          /wVyZWst
        >
        E 0 96 40 50
        E 180 86 40 00
        <X 300 0
          /wVrYWE=
        >
        E 0 96 40 50
        E 240 86 40 00
        <X 120 0
          /wVww6Rpbg==
        >
        E 0 96 3e 50
        E 240 86 3e 00
        <X 180 0
          /wV0w7ZyLQ==
        >
        E 0 96 3c 50
        E 300 86 3c 00
        <X 240 0
          /wVtw6Qt
        >
        E 0 96 3b 50
        E 180 86 3b 00
        <X 176 0
          /wV0ZXMt
        >
        E 0 96 39 50
        E 244 86 39 00
        <X 116 0
          /wVzw6Qt
        >
        E 0 96 3e 50
        E 244 86 3e 00
        <X 120 0
          /wVuaQ==
        >
        E 0 96 3e 50
        E 124 86 3e 00
        E 59 80 69 00
        E 330 90 74 60
        E 30 90 69 60
        <X 113 0
          /wVLYWk=
        >
        E 0 96 39 50
        E 184 86 39 00
        <X 180 0
          /wV0w7ZyLQ==
        >
        E 0 96 3b 50
        E 300 86 3b 00
        <X 236 0
          /wVtw6Qt
        >
        E 0 96 3b 50
        E 184 86 3b 00
        <X 116 0
          /wVzaW4=
        >
        E 0 96 39 50
        E 244 86 39 00
        <X 116 0
          /wV2aWkt
        >
        E 0 96 34 50
        E 364 86 34 00
        <X 60 0
          /wVtZWkt
        >
        E 0 96 36 50
        E 300 86 36 00
        <X 120 0
          /wVzZW4=
        >
        E 0 96 37 50
        E 300 86 37 00
        <X 180 0
          /wVrZXIt
        >
        E 0 96 39 50
        E 420 86 39 00
        <X 120 0
          /wVyYW4=
        >
        E 0 96 39 50
        E 364 86 39 00
        E 179 80 74 00
        E 0 80 69 00
        <X 304 0
          /wFbaWRsZV0=
        >
        E 10856 90 69 50
        <X 60 0
          /wFbbWVsbG93XQ==
        >
        <X 480 0
          /wVUZXUt
        >
        E 0 96 40 50
        E 780 86 40 00
        <X 236 0
          /wV2bw==
        >
        E 0 96 39 50
        E 364 86 39 00
        <X 236 0
          /wV2by0=
        >
        E 0 96 39 50
        E 244 86 39 00
        <X 116 0
          /wVv
        >
        E 0 96 40 50
        E 424 86 40 00
        <X 116 0
          /wUr
        >
        E 0 96 3e 50
        E 544 86 3e 00
        E 210 80 69 00
        E 390 90 69 60
        <X 176 0
          /wVvLQ==
        >
        E 0 96 3e 50
        E 124 86 3e 00
        <X 176 0
          /wV0YQ==
        >
        E 0 96 3c 50
        E 184 86 3c 00
        <X 120 0
          /wVtZWkt
        >
        E 0 96 3e 50
        E 180 86 3e 00
        <X 176 0
          /wVkw6R0
        >
        E 0 96 3c 50
        E 124 86 3c 00
        <X 176 0
          /wVreXkt
        >
        E 0 96 40 50
        E 784 86 40 00
        <X 236 0
          /wV0aS0=
        >
        E 0 96 39 50
        E 124 86 39 00
        <X 116 0
          /wVp
        >
        E 0 96 39 50
        E 844 86 39 00
        <X 176 0
          /wVqbw==
        >
        E 0 96 37 50
        E 124 86 37 00
        <X 116 0
          /wUr
        >
        E 0 96 39 50
        E 1384 86 39 00
        E 300 80 69 00
        <X 180 0
          /wFbaWRsZV0=
        >
        <X 10503 0
          /wFbbWVsbG93XQ==
        >
        E 177 90 69 50
        <X 303 0
          /wVUZXUt
        >
        E 0 96 40 50
        E 777 86 40 00
        <X 176 0
          /wV2bw==
        >
        E 0 96 39 50
        E 424 86 39 00
        <X 236 0
          /wV2by0=
        >
        E 0 96 39 50
        E 364 86 39 00
        <X 56 0
          /wVv
        >
        E 0 96 40 50
        E 184 86 40 00
        <X 116 0
          /wUr
        >
        E 0 96 3e 50
        E 784 86 3e 00
        E 210 80 69 00
        E 150 90 69 60
        <X 56 0
          /wVzdW4=
        >
        E 0 96 3c 50
        E 184 86 3c 00
        <X 116 0
          /wVBbmct
        >
        E 0 96 3e 50
        E 184 86 3e 00
        <X 176 0
          /wVsaS0=
        >
        E 0 96 3c 50
        E 124 86 3c 00
        <X 116 0
          /wVhLQ==
        >
        E 0 96 3e 50
        E 184 86 3e 00
        <X 120 0
          /wVzaQ==
        >
        E 0 96 3c 50
        E 240 86 3c 00
        <X 120 0
          /wVteXkt
        >
        E 0 96 40 50
        E 840 86 40 00
        <X 180 0
          /wV0aS0=
        >
        E 0 96 39 50
        E 300 86 39 00
        <X 60 0
          /wVpbg==
        >
        E 0 96 39 50
        E 484 86 39 00
        <X 416 0
          /wV2bw==
        >
        E 0 96 37 50
        E 240 86 37 00
        <X 120 0
          /wUr
        >
        E 0 96 39 50
        E 1203 86 39 00
        E 207 80 69 00
        <X 273 0
          /wFbaWRsZV9yZWFsdGltZV0=
        >
        E 79750 b0 7b 00
        GUID {C9A1A4CA-4224-4672-91C0-075BEB2A8650}
        IGNTEMPO 0 120.00000000 4 4
        SRCCOLOR 563
        VELLANE 132 128 128
        COLORMAP "C:\Users\me\AppData\Roaming\REAPER\Data\color_maps\rockband_vox-other.png"
        TEXTSTRINGFILE "Text Events List.txt"
        CFGEDITVIEW 72187.292098 24.120300 0 12 0 0 0
        CFGEDIT 1 1 0 0 1 1 1 1 1 1 1 0.06250000 75 0 1611 691 1 2 1 2 0.00000000 0 0 0 0 0.500000 1 0 1.000000 64
        KEYSNAP 0 0 "102034050607" 0 "Major"
        EVTFILTER 0 -1 -1 -1 -1 0 1 0 0 -1.00000000 -1.00000000
      >
    >
  >
  <TRACK '{E60BCF67-80FD-4554-840A-5B0B5C2E06A0}'
    NAME "HARM1"
    PEAKCOL 24624127
    BEAT -1
    AUTOMODE 0
    VOLPAN 1.00000000000000 0.00000000000000 -1.00000000000000 -1.00000000000000 1.00000000000000
    MUTESOLO 0 0 0
    IPHASE 0
    ISBUS 0 0
    BUSCOMP 0 0
    SHOWINMIX 1 0.666700 0.500000 1 0.500000 -1 -1 -1
    FREEMODE 0
    SEL 0
    REC 0 0 0 0 0 0 0
    TRACKHEIGHT 0 0
    INQ 0 0 0 0.5000000000 100 0 0 100
    NCHAN 2
    FX 1
    TRACKID {E60BCF67-80FD-4554-840A-5B0B5C2E06A0}
    PERF 0
    MIDIOUT -1
    <MIDINOTENAMES
      0 0 "Range Shift"
      0 1 "Lyric Shift"
      0 36 "C1"
      0 37 "C#"
      0 38 "D"
      0 39 "Eb"
      0 40 "E"
      0 41 "F"
      0 42 "F#"
      0 43 "G"
      0 44 "G#"
      0 45 "A"
      0 46 "Bb"
      0 47 "B"
      0 48 "C2"
      0 49 "C#"
      0 50 "D"
      0 51 "Eb"
      0 52 "E"
      0 53 "F"
      0 54 "F#"
      0 55 "G"
      0 56 "G#"
      0 57 "A"
      0 58 "Bb"
      0 59 "B"
      0 60 "C3"
      0 61 "C#"
      0 62 "D"
      0 63 "Eb"
      0 64 "E"
      0 65 "F"
      0 66 "F#"
      0 67 "G"
      0 68 "G#"
      0 69 "A"
      0 70 "Bb"
      0 71 "B"
      0 72 "C4"
      0 73 "C#"
      0 74 "D"
      0 75 "Eb"
      0 76 "E"
      0 77 "F"
      0 78 "F#"
      0 79 "G"
      0 80 "G#"
      0 81 "A"
      0 82 "Bb"
      0 83 "B"
      0 105 "Phrase Marker"
      0 116 "OVERDRIVE"
      0 115 "----"
      0 104 "----"
      0 97 "Not Displayed Percussion"
      0 96 "Displayed Percussion"
      0 95 "----"
      0 84 "C5"
    >
    MAINSEND 1 0
    <FXCHAIN
      WNDRECT 786 197 716 493
      SHOW 0
      LASTSEL 1
      DOCKED 0
      BYPASS 0 0
      <JS "IX/MIDI_Tool II" ""
        0.000000 85.000000 127.000000 0.000000 0.000000 0.000000 100.000000 0.000000 0.000000 127.000000 0.000000 0.000000 1.000000 0.000000 0.000000 - - - - - - - - - - - - - - - - - - - - - - - - - - - - - - - - - - - - - - - - - - - - - - - - - 
      >
      FLOATPOS 0 0 0 0
      FXID {2E79298C-F056-441C-A64B-722C2599E1AA}
      WAK 0
      BYPASS 0 0
      <VST "VSTi: ReaSynth (Cockos)" "reasynth.dll" 0 ""
        eXNlcu9e7f4AAAAAAgAAAAEAAAAAAAAAAgAAAAAAAAA4AAAAAAAAAA==
        AAAAAO++rd4N8K3eppvEOxe30ToAAAAAAAAAAAAAAACa9Q8/6WeIPQ==
        AAAAAAAAAD8AAIA/AAAAAAAAAD8AAAAAAAA=
      >
      FLOATPOS 0 0 0 0
      FXID {A391E59B-3475-47CA-9BDB-E03F3B8FF2C4}
      WAK 0
    >
    <ITEM
      POSITION 0.00000000000000
      SNAPOFFS 0.00000000000000
      LENGTH 252.95626724134925
      LOOP 0
      ALLTAKES 0
      SEL 0
      FADEIN 1 0.000000 0.000000 1 0
      FADEOUT 1 0.000000 0.000000 1 0
      MUTE 0
      IGUID {FE84F6DE-5A5E-43D1-BFBE-4632BD10F85F}
      IID 11
      NAME "HARM1 untitled MIDI item"
      VOLPAN 1.000000 0.000000 1.000000 -1.000000
      SOFFS 0.00000000000000 0.00000000000000
      PLAYRATE 1.00000000000000 1 0.00000000000000 -1
      CHANMODE 0
      GUID {188D8841-6EF7-4ADC-A9DC-A83C2882A63B}
      <SOURCE MIDI
        HASDATA 1 480 QN
        POOLEDEVTS {8B1DAE5F-5C3D-4396-B273-2E81558F80ED}
        <X 0 0
          /wNIQVJNMQ==
        >
        <X 3840 0
          /wFbaWRsZV0=
        >
        <X 26880 0
          /wFbbWVsbG93XQ==
        >
        e 720 90 69 50
        <X 540 0
          /wVLby0=
        >
        e 0 90 3e 50
        e 180 80 3e 00
        <X 120 0
          /wV0aS0=
        >
        e 0 96 3e 50
        e 210 86 3e 00
        <X 150 0
          /wVrYXUt
        >
        e 0 96 3e 50
        e 300 86 3e 00
        <X 180 0
          /wVwdW4t
        >
        e 0 96 40 50
        e 360 86 40 00
        <X 120 0
          /wVnaW4=
        >
        e 0 96 40 50
        e 240 86 40 00
        <X 60 0
          /wVrYS0=
        >
        e 0 96 40 50
        e 240 86 40 00
        <X 120 0
          /wV0dQ==
        >
        e 0 96 40 50
        e 180 86 40 00
        <X 120 0
          /wVvbGk=
        >
        e 0 96 3e 50
        e 480 86 3e 00
        <X 180 0
          /wVoaWVrLQ==
        >
        e 0 96 3c 50
        e 364 86 3c 00
        <X 296 0
          /wVrYWkt
        >
        e 0 96 3a 50
        e 240 86 3a 00
        <X 60 0
          /wVuZW4=
        >
        e 0 96 39 50
        e 240 86 39 00
        <X 60 0
          /wV0aWU=
        >
        e 0 96 3e 50
        e 480 86 3e 00
        e 30 80 69 00
        e 90 90 69 60
        <X 60 0
          /wVTaWkt
        >
        e 0 96 39 50
        e 300 86 39 00
        <X 60 0
          /wVuw6Q=
        >
        e 0 96 3a 50
        e 120 86 3a 00
        <X 116 0
          /wVBbmct
        >
        e 0 96 3a 50
        e 544 86 3a 00
        <X 180 0
          /wVsaWE=
        >
        e 0 90 35 50
        e 480 80 35 00
        <X 120 0
          /wVrYS0=
        >
        e 0 96 39 50
        e 240 86 39 00
        <X 180 0
          /wV0b2wt
        >
        e 0 96 34 50
        e 360 86 34 00
        <X 60 0
          /wVsZWVu
        >
        e 0 96 35 50
        e 180 86 35 00
        <X 60 0
          /wUr
        >
        e 0 96 37 50
        e 120 86 37 00
        <X 60 0
          /wVrw6TDpG4t
        >
        e 0 96 39 60
        e 540 86 39 00
        <X 120 0
          /wV0eWk=
        >
        e 0 96 39 50
        e 540 86 39 00
        e 90 80 69 00
        e 450 90 69 50
        <X 180 0
          /wVWaWUt
        >
        e 0 96 3e 50
        e 240 86 3e 00
        <X 60 0
          /wVsw6Q=
        >
        e 0 96 3e 50
        e 240 86 3e 00
        <X 120 0
          /wV2aS0=
        >
        e 0 96 3e 50
        e 180 86 3e 00
        <X 116 0
          /wVub3Mt
        >
        e 0 96 3e 50
        e 364 86 3e 00
        <X 120 0
          /wVzYQ==
        >
        e 0 96 40 50
        e 480 86 40 00
        <X 114 0
          /wVsaWkt
        >
        e 0 96 40 50
        e 366 86 40 00
        <X 120 0
          /wVrZW4t
        >
        e 0 96 3f 50
        e 300 86 3f 00
        <X 62 0
          /wVuZS0=
        >
        e 0 96 3d 50
        e 178 86 3d 00
        <X 62 0
          /wVtZXJrLQ==
        >
        e 0 96 3b 50
        e 598 86 3b 00
        <X 116 0
          /wVraS0=
        >
        e 0 96 39 50
        e 304 86 39 00
        <X 62 0
          /wVraW4=
        >
        e 0 96 38 50
        e 118 86 38 00
        <X 182 0
          /wVsaWU=
        >
        e 0 96 3d 50
        e 418 86 3d 00
        e 60 80 69 00
        e 90 90 69 60
        e 0 90 74 60
        <X 86 0
          /wVKby0=
        >
        e 0 96 38 50
        e 184 86 38 00
        <X 60 0
          /wVrYQ==
        >
        e 0 96 39 50
        e 184 86 39 00
        <X 172 0
          /wVvaC0=
        >
        e 0 96 39 50
        e 484 86 39 00
        <X 60 0
          /wVqYXVzLQ==
        >
        e 0 96 39 50
        e 184 86 39 00
        <X 116 0
          /wUr
        >
        e 0 96 38 50
        e 300 86 38 00
        <X 120 0
          /wV2aXIt
        >
        e 0 96 33 50
        e 364 86 33 00
        <X 116 0
          /wVoZWUt
        >
        e 0 96 34 50
        e 240 86 34 00
        <X 60 0
          /wVzdMOk
        >
        e 0 96 35 50
        e 360 86 35 00
        <X 120 0
          /wV2w6TDpG4t
        >
        e 0 96 37 50
        e 480 86 37 00
        <X 120 0
          /wV0eWk=
        >
        e 0 96 37 50
        e 540 86 37 00
        e 90 80 69 00
        e 0 80 74 00
        e 330 90 69 50
        <X 372 0
          /wVFLQ==
        >
        e 0 96 3e 50
        e 228 86 3e 00
        <X 120 0
          /wV0dS0=
        >
        e 0 90 3e 50
        e 180 80 3e 00
        <X 116 0
          /wVwZW4t
        >
        e 0 96 3e 50
        e 424 86 3e 00
        <X 120 0
          /wVraWwt
        >
        e 0 96 3e 50
        e 364 86 3e 00
        <X 56 0
          /wV0w6Q=
        >
        e 0 96 3e 50
        e 180 86 3e 00
        <X 120 0
          /wVsYS0=
        >
        e 0 96 40 50
        e 124 86 40 00
        <X 116 0
          /wVzaW4=
        >
        e 0 96 40 50
        e 240 86 40 00
        <X 120 0
          /wVsw6Qt
        >
        e 0 96 40 50
        e 240 86 40 00
        <X 116 0
          /wVwaQ==
        >
        e 0 96 40 50
        e 124 86 40 00
        <X 116 0
          /wVsZW4t
        >
        e 0 96 3e 50
        e 484 86 3e 00
        <X 120 0
          /wVuZXQt
        >
        e 0 96 3c 50
        e 364 86 3c 00
        <X 116 0
          /wV0ecOkLQ==
        >
        e 0 96 3a 50
        e 124 86 3a 00
        <X 116 0
          /wUr
        >
        e 0 96 39 50
        e 300 86 39 00
        <X 60 0
          /wVuaQ==
        >
        e 0 96 3e 50
        e 124 86 3e 00
        e 56 80 69 00
        e 90 90 69 60
        <X 30 0
          /wVPLQ==
        >
        e 0 96 3e 50
        e 184 86 3e 00
        <X 56 0
          /wVsaW4=
        >
        e 0 96 39 50
        e 300 86 39 00
        <X 120 0
          /wVwecO2LQ==
        >
        e 0 96 3a 50
        e 540 86 3a 00
        <X 60 0
          /wVyaS0=
        >
        e 0 96 3a 50
        e 300 86 3a 00
        <X 60 0
          /wVueXQ=
        >
        e 0 96 3a 50
        e 120 86 3a 00
        <X 60 0
          /wUr
        >
        e 0 96 39 50
        e 120 86 39 00
        <X 60 0
          /wVwaWVuLQ==
        >
        e 0 96 34 50
        e 480 86 34 00
        <X 60 0
          /wVuYXIt
        >
        e 0 96 35 50
        e 300 86 35 00
        <X 120 0
          /wV0YQ==
        >
        e 0 96 37 50
        e 180 86 37 00
        <X 120 0
          /wVwaXQt
        >
        e 0 96 39 50
        e 360 86 39 00
        <X 180 0
          /wVraW4=
        >
        e 0 96 39 50
        e 540 86 39 00
        e 90 80 69 00
        e 450 90 69 50
        <X 312 0
          /wVPLQ==
        >
        e 0 96 3e 50
        e 124 86 3e 00
        <X 116 0
          /wVqYW4=
        >
        e 0 96 3e 50
        e 288 86 3e 00
        <X 116 0
          /wVwb2gt
        >
        e 0 96 3e 50
        e 364 86 3e 00
        <X 116 0
          /wVqYWwt
        >
        e 0 96 3e 50
        e 364 86 3e 00
        <X 120 0
          /wVsYQ==
        >
        e 0 96 40 50
        e 180 86 40 00
        <X 120 0
          /wVoYW0t
        >
        e 0 96 40 50
        e 364 86 40 00
        <X 116 0
          /wVwYWkt
        >
        e 0 96 40 50
        e 360 86 40 00
        <X 120 0
          /wV0YQ==
        >
        e 0 96 3e 50
        e 180 86 3e 00
        <X 120 0
          /wVzeWwt
        >
        e 0 96 3c 50
        e 480 86 3c 00
        <X 120 0
          /wVraS0=
        >
        e 0 96 3a 50
        e 240 86 3a 00
        <X 56 0
          /wVlcy0=
        >
        e 0 96 39 50
        e 304 86 39 00
        <X 116 0
          /wVzw6Qt
        >
        e 0 96 3e 50
        e 304 86 3e 00
        <X 56 0
          /wVuaQ==
        >
        e 0 96 3e 50
        e 124 86 3e 00
        e 60 80 69 00
        e 30 90 69 60
        e 0 90 74 60
        <X 26 0
          /wVNaS0=
        >
        e 0 96 39 50
        e 244 86 39 00
        <X 56 0
          /wVuw6Q=
        >
        e 0 96 3a 50
        e 244 86 3a 00
        <X 120 0
          /wVvay0=
        >
        e 0 96 3a 50
        e 300 86 3a 00
        <X 60 0
          /wVzZW4t
        >
        e 0 96 3a 50
        e 360 86 3a 00
        <X 56 0
          /wVzaW4=
        >
        e 0 96 39 50
        e 364 86 39 00
        <X 120 0
          /wV2ZXIt
        >
        e 0 96 34 50
        e 480 86 34 00
        <X 120 0
          /wV0YQ==
        >
        e 0 96 35 50
        e 240 86 35 00
        <X 120 0
          /wVqYQ==
        >
        e 0 96 37 50
        e 124 86 37 00
        <X 236 0
          /wVpdC0=
        >
        e 0 96 39 50
        e 300 86 39 00
        <X 236 0
          /wVraW4=
        >
        e 0 96 39 50
        e 664 86 39 00
        e 30 80 69 00
        e 0 80 74 00
        <X 450 0
          /wFbaWRsZV0=
        >
        <X 20241 0
          /wFbbWVsbG93XQ==
        >
        e 9 90 69 50
        <X 471 0
          /wVUw6RzLQ==
        >
        e 0 96 3e 50
        e 279 86 3e 00
        <X 60 0
          /wVzw6Q=
        >
        e 0 96 3e 50
        e 240 86 3e 00
        <X 120 0
          /wVuYWEt
        >
        e 0 96 3e 50
        e 364 86 3e 00
        <X 77 0
          /wVtYXMt
        >
        e 0 96 3e 50
        e 399 86 3e 00
        <X 60 0
          /wVzYQ==
        >
        e 0 96 40 50
        e 180 86 40 00
        <X 180 0
          /wVhci0=
        >
        e 0 96 40 50
        e 420 86 40 00
        <X 176 0
          /wVwaS0=
        >
        e 0 96 40 50
        e 184 86 40 00
        <X 120 0
          /wVraW4=
        >
        e 0 96 40 50
        e 120 86 40 00
        <X 56 0
          /wUr
        >
        e 0 96 3e 50
        e 64 86 3e 00
        <X 120 0
          /wVrYXUt
        >
        e 0 96 3c 50
        e 420 86 3c 00
        <X 116 0
          /wVuaXMt
        >
        e 0 96 3b 50
        e 304 86 3b 00
        <X 120 0
          /wV0dXM=
        >
        e 0 96 39 50
        e 180 86 39 00
        <X 141 0
          /wVvLQ==
        >
        e 0 96 3e 50
        e 279 86 3e 00
        <X 81 0
          /wVsaS0=
        >
        e 0 96 3e 50
        e 159 86 3e 00
        <X 81 0
          /wVzaQ==
        >
        e 0 96 39 50
        e 159 86 39 00
        e 30 80 69 00
        e 60 90 69 60
        <X 30 0
          /wVKYQ==
        >
        e 0 96 3b 50
        e 240 86 3b 00
        <X 120 0
          /wVoYW0t
        >
        e 0 96 3b 50
        e 364 86 3b 00
        <X 116 0
          /wVwYWF0
        >
        e 0 96 3b 50
        e 300 86 3b 00
        <X 116 0
          /wV2b2k=
        >
        e 0 96 39 50
        e 304 86 39 00
        <X 116 0
          /wV1dS0=
        >
        e 0 96 34 50
        e 364 86 34 00
        <X 116 0
          /wVzaWst
        >
        e 0 96 36 50
        e 184 86 36 00
        <X 120 0
          /wVzaQ==
        >
        e 0 96 37 50
        e 240 86 37 00
        <X 176 0
          /wVsYWl0LQ==
        >
        e 0 96 39 50
        e 424 86 39 00
        <X 180 0
          /wV0YWE=
        >
        e 0 96 39 50
        e 420 86 39 00
        e 60 80 69 00
        e 300 90 69 50
        <X 236 0
          /wVNdXQ=
        >
        e 0 96 3e 50
        e 184 86 3e 00
        <X 120 0
          /wVhLQ==
        >
        e 0 96 3e 50
        e 180 86 3e 00
        <X 120 0
          /wVqby0=
        >
        e 0 90 3e 50
        e 240 80 3e 00
        <X 120 0
          /wVrb3It
        >
        e 0 96 3e 50
        e 360 86 3e 00
        <X 176 0
          /wV0aW4=
        >
        e 0 96 3e 50
        e 304 86 3e 00
        <X 120 0
          /wVqYQ==
        >
        e 0 96 40 50
        e 240 86 40 00
        <X 120 0
          /wVBbmct
        >
        e 0 96 40 50
        e 480 86 40 00
        <X 116 0
          /wVsaS0=
        >
        e 0 96 40 50
        e 124 86 40 00
        <X 116 0
          /wVhbg==
        >
        e 0 96 3e 50
        e 244 86 3e 00
        <X 120 0
          /wVraWwt
        >
        e 0 96 3c 50
        e 420 86 3c 00
        <X 116 0
          /wV2ZXQ=
        >
        e 0 96 3b 50
        e 304 86 3b 00
        <X 120 0
          /wV2ZWk=
        >
        e 0 96 39 50
        e 300 86 39 00
        <X 120 0
          /wVwby0=
        >
        e 0 96 3e 50
        e 180 86 3e 00
        <X 116 0
          /wVsaWkt
        >
        e 0 96 3e 50
        e 184 86 3e 00
        <X 116 0
          /wVzaQ==
        >
        e 0 96 39 50
        e 184 86 39 00
        e 30 80 69 00
        e 60 90 69 60
        e 0 90 74 60
        <X 26 0
          /wVTZQ==
        >
        e 0 96 3b 50
        e 244 86 3b 00
        <X 116 0
          /wVoYXIt
        >
        e 0 96 3b 50
        e 364 86 3b 00
        <X 60 0
          /wVyYXMt
        >
        e 0 96 3b 50
        e 300 86 3b 00
        <X 176 0
          /wV0dXMt
        >
        e 0 96 39 50
        e 124 86 39 00
        <X 176 0
          /wV0b2kt
        >
        e 0 96 34 50
        e 484 86 34 00
        <X 56 0
          /wVtaW4t
        >
        e 0 96 36 50
        e 244 86 36 00
        <X 120 0
          /wV0YWE=
        >
        e 0 96 37 50
        e 300 86 37 00
        <X 116 0
          /wVoYWl0LQ==
        >
        e 0 96 39 50
        e 364 86 39 00
        <X 236 0
          /wV0YWE=
        >
        e 0 96 39 50
        e 484 86 39 00
        e 90 80 69 00
        e 0 80 74 00
        <X 390 0
          /wFbaWRsZV0=
        >
        <X 20156 0
          /wFbbWVsbG93XQ==
        >
        e 330 90 69 50
        <X 150 0
          /wVSYWxsaS0=
        >
        e 0 96 3d 50
        e 424 86 3d 00
        <X 120 0
          /wUr
        >
        e 0 96 3f 50
        e 180 86 3f 00
        <X 120 0
          /wVrdXMt
        >
        e 0 96 41 50
        e 360 86 41 00
        <X 120 0
          /wVraWst
        >
        e 0 96 41 50
        e 180 86 41 00
        <X 116 0
          /wVzaQ==
        >
        e 0 96 42 50
        e 304 86 42 00
        <X 116 0
          /wVww6TDpC0=
        >
        e 0 96 41 50
        e 484 86 41 00
        <X 120 0
          /wVzeXMt
        >
        e 0 96 3f 50
        e 360 86 3f 00
        <X 120 0
          /wV0w6Q=
        >
        e 0 96 3d 50
        e 180 86 3d 00
        <X 116 0
          /wV0b2kt
        >
        e 0 96 3b 50
        e 424 86 3b 00
        <X 180 0
          /wV2ZWkt
        >
        e 0 96 3b 50
        e 240 86 3b 00
        <X 116 0
          /wV0YQ==
        >
        e 0 96 3d 50
        e 184 86 3d 00
        <X 120 0
          /wVlLQ==
        >
        e 0 96 3b 50
        e 180 86 3b 00
        <X 116 0
          /wVsw6Qt
        >
        e 0 96 3a 50
        e 244 86 3a 00
        <X 116 0
          /wV0w6Ru
        >
        e 0 96 38 50
        e 364 86 38 00
        e 90 80 69 00
        e 150 90 69 50
        <X 56 0
          /wVUdXIt
        >
        e 0 96 42 50
        e 484 86 42 00
        <X 116 0
          /wVoYQ==
        >
        e 0 96 42 50
        e 244 86 42 00
        <X 116 0
          /wVvbg==
        >
        e 0 96 42 50
        e 244 86 42 00
        <X 116 0
          /wXDpGkt
        >
        e 0 96 42 50
        e 484 86 42 00
        <X 116 0
          /wV0aS0=
        >
        e 0 96 41 50
        e 244 86 41 00
        <X 120 0
          /wVlbg==
        >
        e 0 96 3f 50
        e 124 86 3f 00
        <X 116 0
          /wVzYW4t
        >
        e 0 96 3d 50
        e 480 86 3d 00
        <X 120 0
          /wVrYS0=
        >
        e 0 96 3f 50
        e 240 86 3f 00
        <X 120 0
          /wVyaS0=
        >
        e 0 96 3d 50
        e 124 86 3d 00
        <X 116 0
          /wVwb2kt
        >
        e 0 96 3b 50
        e 600 86 3b 00
        <X 116 0
          /wVraS0=
        >
        e 0 96 3d 50
        e 124 86 3d 00
        <X 116 0
          /wVh
        >
        e 0 96 3b 50
        e 304 86 3b 00
        <X 120 0
          /wVuZXUt
        >
        e 0 96 3a 50
        e 780 86 3a 00
        <X 176 0
          /wV2b2E=
        >
        e 0 96 36 50
        e 124 86 36 00
        <X 116 0
          /wUr
        >
        e 0 96 36 50
        e 844 86 36 00
        e 180 80 69 00
        e 1920 90 69 50
        <X 300 0
          /wVFaS0=
        >
        e 0 96 3d 50
        e 240 86 3d 00
        <X 120 0
          /wVow6Ru
        >
        e 0 96 3f 50
        e 124 86 3f 00
        <X 116 0
          /wVyYWwt
        >
        e 0 96 41 50
        e 660 86 41 00
        <X 116 0
          /wVsaWE=
        >
        e 0 96 41 50
        e 304 86 41 00
        <X 60 0
          /wUr
        >
        e 0 96 42 50
        e 180 86 42 00
        <X 116 0
          /wV2b2kt
        >
        e 0 96 41 50
        e 424 86 41 00
        <X 116 0
          /wV0ZS0=
        >
        e 0 96 3f 50
        e 184 86 3f 00
        <X 116 0
          /wV0YQ==
        >
        e 0 96 3d 50
        e 184 86 3d 00
        <X 120 0
          /wVqb3M=
        >
        e 0 96 3b 50
        e 480 86 3b 00
        <X 120 0
          /wVzaWVsLQ==
        >
        e 0 96 3b 50
        e 360 86 3b 00
        <X 116 0
          /wVsw6Q=
        >
        e 0 96 3d 50
        e 184 86 3d 00
        <X 120 0
          /wVwZS0=
        >
        e 0 96 3b 50
        e 180 86 3b 00
        <X 120 0
          /wVsw6Qt
        >
        e 0 96 3a 50
        e 240 86 3a 00
        <X 116 0
          /wV0w6TDpG4=
        >
        e 0 96 38 50
        e 364 86 38 00
        e 60 80 69 00
        e 120 90 69 50
        e 0 90 74 50
        <X 60 0
          /wVNYWEt
        >
        e 0 96 42 50
        e 720 86 42 00
        <X 120 0
          /wVsaXMt
        >
        e 0 96 42 50
        e 124 86 42 00
        <X 116 0
          /wVzYQ==
        >
        e 0 96 42 50
        e 124 86 42 00
        <X 116 0
          /wVqdWgt
        >
        e 0 96 42 50
        e 300 86 42 00
        <X 180 0
          /wVsaS0=
        >
        e 0 96 41 50
        e 124 86 41 00
        <X 116 0
          /wV0YWFu
        >
        e 0 96 3f 50
        e 300 86 3f 00
        <X 120 0
          /wV2b2l0LQ==
        >
        e 0 96 3d 50
        e 364 86 3d 00
        <X 232 0
          /wV0YS0=
        >
        e 0 96 3f 50
        e 184 86 3f 00
        <X 116 0
          /wVqYS0=
        >
        e 0 96 3d 50
        e 364 86 3d 00
        <X 180 0
          /wVwb2kt
        >
        e 0 96 3b 50
        e 364 86 3b 00
        <X 116 0
          /wVrYWFtLQ==
        >
        e 0 96 3d 50
        e 360 86 3d 00
        <X 116 0
          /wVtZQ==
        >
        e 0 96 3b 50
        e 124 86 3b 00
        <X 176 0
          /wVUZXUt
        >
        e 0 96 3a 50
        e 784 86 3a 00
        <X 120 0
          /wV2b2E=
        >
        e 0 96 36 50
        e 124 86 36 00
        <X 116 0
          /wUr
        >
        e 0 96 36 50
        e 364 86 36 00
        e 176 80 69 00
        e 0 80 74 00
        <X 304 0
          /wFbaWRsZV0=
        >
        <X 22529 0
          /wFbbWVsbG93XQ==
        >
        e 267 90 69 50
        <X 210 0
          /wVWaWkt
        >
        e 0 96 3e 50
        e 207 86 3e 00
        <X 116 0
          /wVrb24t
        >
        e 0 96 3e 50
        e 184 86 3e 00
        <X 116 0
          /wVsb3B1ay0=
        >
        e 0 96 3e 50
        e 184 86 3e 00
        <X 180 0
          /wUr
        >
        e 0 96 3e 50
        e 300 86 3e 00
        <X 120 0
          /wVzaQ==
        >
        e 0 96 40 50
        e 300 86 40 00
        <X 120 0
          /wVhdS0=
        >
        e 0 96 40 50
        e 480 86 40 00
        <X 180 0
          /wV0b2E=
        >
        e 0 96 40 50
        e 480 86 40 00
        <X 180 0
          /wUr
        >
        e 0 96 3e 50
        e 360 86 3e 00
        <X 176 0
          /wVldHNpLQ==
        >
        e 0 96 3c 50
        e 244 86 3c 00
        <X 120 0
          /wUr
        >
        e 0 96 3a 50
        e 120 86 3a 00
        <X 60 0
          /wVlcy0=
        >
        e 0 96 39 50
        e 124 86 39 00
        <X 176 0
          /wVzw6RuaQ==
        >
        e 0 96 3e 50
        e 240 86 3e 00
        <X 120 0
          /wUr
        >
        e 0 96 3e 50
        e 120 86 3e 00
        e 3 80 69 00
        e 90 90 69 60
        <X 27 0
          /wVPLQ==
        >
        e 0 96 39 50
        e 180 86 39 00
        <X 56 0
          /wV0aW4=
        >
        e 0 96 3b 50
        e 184 86 3b 00
        <X 116 0
          /wVsYWkt
        >
        e 0 96 3b 50
        e 364 86 3b 00
        <X 180 0
          /wVuYWst
        >
        e 0 96 3b 50
        e 180 86 3b 00
        <X 120 0
          /wVzaQ==
        >
        e 0 96 39 50
        e 300 86 39 00
        <X 116 0
          /wVuYWEt
        >
        e 0 96 34 50
        e 484 86 34 00
        <X 180 0
          /wVwdS0=
        >
        e 0 96 36 50
        e 180 86 36 00
        <X 60 0
          /wVyaW4=
        >
        e 0 96 37 50
        e 240 86 37 00
        <X 120 0
          /wVTaWVyLQ==
        >
        e 0 96 39 50
        e 660 86 39 00
        <X 116 0
          /wVyYW4=
        >
        e 0 96 39 50
        e 304 86 39 00
        e 63 80 69 00
        e 630 90 69 50
        <X 267 0
          /wVQaS0=
        >
        e 0 96 3e 50
        e 124 86 3e 00
        <X 116 0
          /wVrYS0=
        >
        e 0 96 3e 50
        e 124 86 3e 00
        <X 232 0
          /wV0aWVsLQ==
        >
        e 0 96 3e 50
        e 484 86 3e 00
        <X 120 0
          /wVsw6Q=
        >
        e 0 96 3e 50
        e 180 86 3e 00
        <X 120 0
          /wVtw6Q=
        >
        e 0 96 40 50
        e 240 86 40 00
        <X 120 0
          /wVyZWst
        >
        e 0 96 40 50
        e 180 86 40 00
        <X 300 0
          /wVrYWE=
        >
        e 0 96 40 50
        e 240 86 40 00
        <X 120 0
          /wVww6Rpbg==
        >
        e 0 96 3e 50
        e 240 86 3e 00
        <X 180 0
          /wV0w7ZyLQ==
        >
        e 0 96 3c 50
        e 300 86 3c 00
        <X 240 0
          /wVtw6Qt
        >
        e 0 96 3b 50
        e 180 86 3b 00
        <X 176 0
          /wV0ZXMt
        >
        e 0 96 39 50
        e 244 86 39 00
        <X 116 0
          /wVzw6Qt
        >
        e 0 96 3e 50
        e 244 86 3e 00
        <X 120 0
          /wVuaQ==
        >
        e 0 96 3e 50
        e 124 86 3e 00
        e 59 80 69 00
        e 330 90 74 60
        e 30 90 69 60
        <X 113 0
          /wVLYWk=
        >
        e 0 96 39 50
        e 184 86 39 00
        <X 180 0
          /wV0w7ZyLQ==
        >
        e 0 96 3b 50
        e 300 86 3b 00
        <X 236 0
          /wVtw6Qt
        >
        e 0 96 3b 50
        e 184 86 3b 00
        <X 116 0
          /wVzaW4=
        >
        e 0 96 39 50
        e 244 86 39 00
        <X 116 0
          /wV2aWkt
        >
        e 0 96 34 50
        e 364 86 34 00
        <X 60 0
          /wVtZWkt
        >
        e 0 96 36 50
        e 300 86 36 00
        <X 120 0
          /wVzZW4=
        >
        e 0 96 37 50
        e 300 86 37 00
        <X 180 0
          /wVrZXIt
        >
        e 0 96 39 50
        e 420 86 39 00
        <X 120 0
          /wVyYW4=
        >
        e 0 96 39 50
        e 364 86 39 00
        e 179 80 74 00
        e 0 80 69 00
        <X 304 0
          /wFbaWRsZV0=
        >
        e 10856 90 69 50
        <X 60 0
          /wFbbWVsbG93XQ==
        >
        <X 480 0
          /wVUZXUt
        >
        e 0 96 40 50
        e 780 86 40 00
        <X 236 0
          /wV2bw==
        >
        e 0 96 39 50
        e 364 86 39 00
        <X 236 0
          /wV2by0=
        >
        e 0 96 39 50
        e 244 86 39 00
        <X 116 0
          /wVv
        >
        e 0 96 40 50
        e 424 86 40 00
        <X 116 0
          /wUr
        >
        e 0 96 3e 50
        e 544 86 3e 00
        e 210 80 69 00
        e 390 90 69 60
        <X 176 0
          /wVvLQ==
        >
        e 0 96 3e 50
        e 124 86 3e 00
        <X 176 0
          /wV0YQ==
        >
        e 0 96 3c 50
        e 184 86 3c 00
        <X 120 0
          /wVtZWkt
        >
        e 0 96 3e 50
        e 180 86 3e 00
        <X 176 0
          /wVkw6R0
        >
        e 0 96 3c 50
        e 124 86 3c 00
        <X 176 0
          /wVreXkt
        >
        e 0 96 40 50
        e 784 86 40 00
        <X 236 0
          /wV0aS0=
        >
        e 0 96 39 50
        e 124 86 39 00
        <X 116 0
          /wVp
        >
        e 0 96 39 50
        e 844 86 39 00
        <X 176 0
          /wVqbw==
        >
        e 0 96 37 50
        e 124 86 37 00
        <X 116 0
          /wUr
        >
        e 0 96 39 50
        e 1384 86 39 00
        e 300 80 69 00
        <X 180 0
          /wFbaWRsZV0=
        >
        <X 10503 0
          /wFbbWVsbG93XQ==
        >
        e 177 90 69 50
        <X 303 0
          /wVUZXUt
        >
        e 0 96 40 50
        e 777 86 40 00
        <X 176 0
          /wV2bw==
        >
        e 0 96 39 50
        e 424 86 39 00
        <X 236 0
          /wV2by0=
        >
        e 0 96 39 50
        e 364 86 39 00
        <X 56 0
          /wVv
        >
        e 0 96 40 50
        e 184 86 40 00
        <X 116 0
          /wUr
        >
        e 0 96 3e 50
        e 784 86 3e 00
        e 210 80 69 00
        e 150 90 69 60
        <X 56 0
          /wVzdW4=
        >
        e 0 96 3c 50
        e 184 86 3c 00
        <X 116 0
          /wVBbmct
        >
        e 0 96 3e 50
        e 184 86 3e 00
        <X 176 0
          /wVsaS0=
        >
        e 0 96 3c 50
        e 124 86 3c 00
        <X 116 0
          /wVhLQ==
        >
        e 0 96 3e 50
        e 184 86 3e 00
        <X 120 0
          /wVzaQ==
        >
        e 0 96 3c 50
        e 240 86 3c 00
        <X 120 0
          /wVteXkt
        >
        e 0 96 40 50
        e 840 86 40 00
        <X 180 0
          /wV0aS0=
        >
        e 0 96 39 50
        e 300 86 39 00
        <X 60 0
          /wVpbg==
        >
        e 0 96 39 50
        e 484 86 39 00
        <X 416 0
          /wV2bw==
        >
        e 0 96 37 50
        e 240 86 37 00
        <X 120 0
          /wUr
        >
        e 0 96 39 50
        e 1203 86 39 00
        e 207 80 69 00
        <X 273 0
          /wFbaWRsZV9yZWFsdGltZV0=
        >
        E 79711 b0 7b 00
        GUID {D78D8959-2AD8-48C0-8F6C-4A6670952331}
        IGNTEMPO 0 120.00000000 4 4
        SRCCOLOR 405
        VELLANE 132 128 60
        COLORMAP "C:\Users\me\AppData\Roaming\REAPER\Data\color_maps\rockband_vox-other.png"
        TEXTSTRINGFILE "C:\Program Files\REAPER\Data\Text_Strings\Text Events List.txt"
        CFGEDITVIEW 223378.668715 90.527545 0 12 0 0 0
        CFGEDIT 1 1 0 1 1 1 1 1 1 1 1 0.06250000 -8 -8 1374 736 1 2 1 2 0.00000000 0 0 0 0 0.500000 1 0 1.000000 64
        KEYSNAP 0 0 "102034050607" 0 "Major"
        EVTFILTER 0 -1 -1 -1 -1 0 1 0 0 -1.00000000 -1.00000000
      >
    >
  >
  <TRACK '{4A30D2A4-111B-40E3-8633-0926E85E641C}'
    NAME "DRYVOX1"
    PEAKCOL 16576
    BEAT -1
    AUTOMODE 0
    VOLPAN 1.00000000000000 0.00000000000000 -1.00000000000000 -1.00000000000000 1.00000000000000
    MUTESOLO 0 0 0
    IPHASE 0
    ISBUS 0 0
    BUSCOMP 0 0
    SHOWINMIX 1 0.666700 0.500000 1 0.500000 -1 -1 -1
    FREEMODE 0
    SEL 0
    REC 0 0 0 0 0 0 0
    TRACKHEIGHT 241 0
    INQ 0 0 0 0.5000000000 100 0 0 100
    NCHAN 2
    FX 1
    TRACKID {4A30D2A4-111B-40E3-8633-0926E85E641C}
    PERF 0
    MIDIOUT -1
    MAINSEND 1 0
    <FXCHAIN
      SHOW 0
      LASTSEL 0
      DOCKED 0
      BYPASS 0 0
      <VST "VST: ReaGate (Cockos)" "reagate.dll" 0 ""
        dGdlcu9e7f4EAAAAAQAAAAAAAAACAAAAAAAAAAQAAAAAAAAACAAAAA==
        AAAAAAIAAAABAAAAAAAAAAIAAAAAAAAAVAAAAAAAAAAAABAA776t3g==
        DfCt3pzRBzOmm8Q7CtejPAAAAAAAAAAAAACAPwAAAAAAAAAAAAAAAA==
        nNEHMx5Ucz+c0QczAACAPwAAAAAAAAAAAAAAACwWCz8AAAAAAAAAAA==
        AAAQAAAA
      >
      FLOATPOS 859 184 511 385
      FXID {BF545B5B-7DD0-4B4C-AC52-F095A552DA08}
      WAK 0
    >
    <ITEM
      POSITION 0.00000000000000
      SNAPOFFS 0.00000000000000
      LENGTH 252.95818594104310
      LOOP 0
      ALLTAKES 0
      SEL 0
      FADEIN 1 0.000000 0.000000 1 0
      FADEOUT 1 0.000000 0.000000 1 0
      MUTE 0
      IGUID {5C32B73D-9455-4B9F-92D4-2891B6ACCACD}
      IID 171
      NAME "vocals.wav"
      VOLPAN 1.000000 0.000000 1.000000 -1.000000
      SOFFS 0.00000000000000
      PLAYRATE 1.00000000000000 1 0.00000000000000 -1
      CHANMODE 0
      GUID {4ED4E04F-97B5-4A96-919F-08ABD0F61CF7}
      <SOURCE WAVE
        FILE "C:\Users\wejaa\__CustomOwnSongs\teuvo\NewVersion\V5\vocals.wav"
      >
    >
  >
  <TRACK '{983C7D04-DAF6-462A-B5E6-64213F29FBA0}'
    NAME "HARM2"
    PEAKCOL 24624127
    BEAT -1
    AUTOMODE 0
    VOLPAN 1.00497380427334 0.00000000000000 -1.00000000000000 -1.00000000000000 1.00000000000000
    MUTESOLO 0 0 0
    IPHASE 0
    ISBUS 0 0
    BUSCOMP 0 0
    SHOWINMIX 1 0.666700 0.500000 1 0.500000 -1 -1 -1
    FREEMODE 0
    SEL 0
    REC 0 0 0 0 0 0 0
    TRACKHEIGHT 0 0
    INQ 0 0 0 0.5000000000 100 0 0 100
    NCHAN 2
    FX 1
    TRACKID {983C7D04-DAF6-462A-B5E6-64213F29FBA0}
    PERF 0
    MIDIOUT -1
    <MIDINOTENAMES
      0 0 "Range Shift"
      0 1 "Lyric Shift"
      0 36 "C1"
      0 37 "C#"
      0 38 "D"
      0 39 "Eb"
      0 40 "E"
      0 41 "F"
      0 42 "F#"
      0 43 "G"
      0 44 "G#"
      0 45 "A"
      0 46 "Bb"
      0 47 "B"
      0 48 "C2"
      0 49 "C#"
      0 50 "D"
      0 51 "Eb"
      0 52 "E"
      0 53 "F"
      0 54 "F#"
      0 55 "G"
      0 56 "G#"
      0 57 "A"
      0 58 "Bb"
      0 59 "B"
      0 60 "C3"
      0 61 "C#"
      0 62 "D"
      0 63 "Eb"
      0 64 "E"
      0 65 "F"
      0 66 "F#"
      0 67 "G"
      0 68 "G#"
      0 69 "A"
      0 70 "Bb"
      0 71 "B"
      0 72 "C4"
      0 73 "C#"
      0 74 "D"
      0 75 "Eb"
      0 76 "E"
      0 77 "F"
      0 78 "F#"
      0 79 "G"
      0 80 "G#"
      0 81 "A"
      0 82 "Bb"
      0 83 "B"
      0 105 "Phrase Marker"
      0 35 "----"
      0 84 "C5"
      0 116 "OVERDRIVE"
      0 115 "----"
      0 104 "----"
      0 97 "Not Displayed Percussion"
      0 96 "Displayed Percussion"
      0 95 "----"
    >
    MAINSEND 1 0
    <FXCHAIN
      WNDRECT 0 42 716 493
      SHOW 0
      LASTSEL 1
      DOCKED 0
      BYPASS 0 0
      <JS "IX/MIDI_Tool II" ""
        0.000000 85.000000 127.000000 0.000000 0.000000 0.000000 100.000000 0.000000 0.000000 127.000000 0.000000 0.000000 1.000000 0.000000 0.000000 - - - - - - - - - - - - - - - - - - - - - - - - - - - - - - - - - - - - - - - - - - - - - - - - - 
      >
      FLOATPOS 0 0 0 0
      FXID {0D2127EF-90E6-4278-AB57-59BADA75D3A0}
      WAK 0
      BYPASS 0 0
      <VST "VSTi: ReaSynth (Cockos)" "reasynth.dll" 0 ""
        eXNlcu9e7f4AAAAAAgAAAAEAAAAAAAAAAgAAAAAAAAA4AAAAAAAAAA==
        AAAAAO++rd4N8K3eppvEOxe30ToAAAAAAAAAAAAAAACa9Q8/6WeIPQ==
        AAAAAAAAAD8AAIA/AAAAAAAAAD8AAAAAAAA=
      >
      FLOATPOS 0 0 0 0
      FXID {9CF76FE8-51DE-4F46-8774-EF282D9874DF}
      WAK 0
    >
    <ITEM
      POSITION 0.00000000000000
      SNAPOFFS 0.00000000000000
      LENGTH 252.84131532251479
      LOOP 0
      ALLTAKES 0
      SEL 0
      FADEIN 1 0.000000 0.000000 1 0
      FADEOUT 1 0.000000 0.000000 1 0
      MUTE 0
      IGUID {85B4D2FA-0EE6-4979-8286-EAC89A15680D}
      IID 12
      NAME "HARM2 untitled MIDI item"
      VOLPAN 1.000000 0.000000 1.000000 -1.000000
      SOFFS 0.00000000000000 0.00000000000000
      PLAYRATE 1.00000000000000 1 0.00000000000000 -1
      CHANMODE 0
      GUID {67C8C31A-733D-46F5-9A6D-0FDF2143554E}
      <SOURCE MIDI
        HASDATA 1 480 QN
        POOLEDEVTS {21ED99FA-B713-432D-92EA-A57089611F76}
        <X 0 0
          /wNIQVJNMg==
        >
        E 47310 90 69 60
        E 0 90 74 60
        <X 86 0
          /wVKby0=
        >
        E 0 96 3a 50
        E 184 86 3a 00
        <X 60 0
          /wVrYQ==
        >
        E 0 96 3b 50
        E 184 86 3b 00
        <X 172 0
          /wVvaC0=
        >
        E 0 96 3b 50
        E 484 86 3b 00
        <X 60 0
          /wVqYXVzLQ==
        >
        E 0 96 3b 50
        E 184 86 3b 00
        <X 116 0
          /wUr
        >
        E 0 96 3a 50
        E 300 86 3a 00
        <X 120 0
          /wV2aXIt
        >
        E 0 96 35 50
        E 364 86 35 00
        <X 116 0
          /wVoZWUt
        >
        E 0 96 36 50
        E 240 86 36 00
        <X 60 0
          /wVzdMOk
        >
        E 0 96 37 50
        E 360 86 37 00
        <X 120 0
          /wV2w6TDpG4t
        >
        E 0 96 39 50
        E 480 86 39 00
        <X 120 0
          /wV0eWk=
        >
        E 0 96 39 50
        E 540 86 39 00
        E 90 80 69 00
        E 0 80 74 00
        E 16020 90 69 60
        E 0 90 74 60
        <X 26 0
          /wVNaS0=
        >
        E 0 96 3b 50
        E 244 86 3b 00
        <X 56 0
          /wVuw6Q=
        >
        E 0 96 3c 50
        E 244 86 3c 00
        <X 120 0
          /wVvay0=
        >
        E 0 96 3c 50
        E 300 86 3c 00
        <X 60 0
          /wVzZW4t
        >
        E 0 96 3c 50
        E 360 86 3c 00
        <X 56 0
          /wVzaW4=
        >
        E 0 96 3b 50
        E 364 86 3b 00
        <X 120 0
          /wV2ZXIt
        >
        E 0 96 36 50
        E 480 86 36 00
        <X 120 0
          /wV0YQ==
        >
        E 0 96 37 50
        E 240 86 37 00
        <X 120 0
          /wVqYQ==
        >
        E 0 96 39 50
        E 124 86 39 00
        <X 236 0
          /wVpdC0=
        >
        E 0 96 3b 50
        E 300 86 3b 00
        <X 236 0
          /wVraW4=
        >
        E 0 96 3b 50
        E 664 86 3b 00
        E 30 80 69 00
        E 0 80 74 00
        E 36780 90 69 60
        E 0 90 74 60
        <X 26 0
          /wVTZQ==
        >
        E 0 96 3d 50
        E 244 86 3d 00
        <X 116 0
          /wVoYXIt
        >
        E 0 96 3d 50
        E 364 86 3d 00
        <X 60 0
          /wVyYXMt
        >
        E 0 96 3d 50
        E 300 86 3d 00
        <X 176 0
          /wV0dXMt
        >
        E 0 96 3b 50
        E 124 86 3b 00
        <X 176 0
          /wV0b2kt
        >
        E 0 96 36 50
        E 484 86 36 00
        <X 56 0
          /wVtaW4t
        >
        E 0 96 38 50
        E 244 86 38 00
        <X 120 0
          /wV0YWE=
        >
        E 0 96 39 50
        E 300 86 39 00
        <X 116 0
          /wVoYWl0LQ==
        >
        E 0 96 3b 50
        E 364 86 3b 00
        <X 236 0
          /wV0YWE=
        >
        E 0 96 3b 50
        E 484 86 3b 00
        E 90 80 69 00
        E 0 80 74 00
        E 20876 90 69 50
        <X 150 0
          /wVSYWxsaS0=
        >
        E 0 96 3f 50
        E 424 86 3f 00
        <X 120 0
          /wUr
        >
        E 0 96 41 50
        E 180 86 41 00
        <X 120 0
          /wVrdXMt
        >
        E 0 96 43 50
        E 360 86 43 00
        <X 120 0
          /wVraWst
        >
        E 0 96 43 50
        E 180 86 43 00
        <X 116 0
          /wVzaQ==
        >
        E 0 96 44 50
        E 304 86 44 00
        <X 116 0
          /wVww6TDpC0=
        >
        E 0 96 43 50
        E 484 86 43 00
        <X 120 0
          /wVzeXMt
        >
        E 0 96 41 50
        E 360 86 41 00
        <X 120 0
          /wV0w6Q=
        >
        E 0 96 3f 50
        E 180 86 3f 00
        <X 116 0
          /wV0b2kt
        >
        E 0 96 3d 50
        E 424 86 3d 00
        <X 180 0
          /wV2ZWkt
        >
        E 0 96 3d 50
        E 240 86 3d 00
        <X 116 0
          /wV0YQ==
        >
        E 0 96 3f 50
        E 184 86 3f 00
        <X 120 0
          /wVlLQ==
        >
        E 0 96 3d 50
        E 180 86 3d 00
        <X 116 0
          /wVsw6Qt
        >
        E 0 96 3c 50
        E 244 86 3c 00
        <X 116 0
          /wV0w6Ru
        >
        E 0 96 3a 50
        E 364 86 3a 00
        E 90 80 69 00
        E 150 90 69 50
        <X 56 0
          /wVUdXIt
        >
        E 0 96 44 50
        E 484 86 44 00
        <X 116 0
          /wVoYQ==
        >
        E 0 96 44 50
        E 244 86 44 00
        <X 116 0
          /wVvbg==
        >
        E 0 96 44 50
        E 244 86 44 00
        <X 116 0
          /wXDpGkt
        >
        E 0 96 44 50
        E 484 86 44 00
        <X 116 0
          /wV0aS0=
        >
        E 0 96 43 50
        E 244 86 43 00
        <X 120 0
          /wVlbg==
        >
        E 0 96 41 50
        E 124 86 41 00
        <X 116 0
          /wVzYW4t
        >
        E 0 96 3f 50
        E 480 86 3f 00
        <X 120 0
          /wVrYS0=
        >
        E 0 96 41 50
        E 240 86 41 00
        <X 120 0
          /wVyaS0=
        >
        E 0 96 3f 50
        E 124 86 3f 00
        <X 116 0
          /wVwb2kt
        >
        E 0 96 3d 50
        E 600 86 3d 00
        <X 116 0
          /wVraS0=
        >
        E 0 96 3f 50
        E 124 86 3f 00
        <X 116 0
          /wVh
        >
        E 0 96 3d 50
        E 304 86 3d 00
        <X 120 0
          /wVuZXUt
        >
        E 0 96 3c 50
        E 780 86 3c 00
        <X 176 0
          /wV2b2E=
        >
        E 0 96 38 50
        E 124 86 38 00
        <X 116 0
          /wUr
        >
        E 0 96 38 50
        E 844 86 38 00
        E 180 80 69 00
        E 1920 90 69 50
        <X 300 0
          /wVFaS0=
        >
        E 0 96 3f 50
        E 240 86 3f 00
        <X 120 0
          /wVow6Ru
        >
        E 0 96 41 50
        E 124 86 41 00
        <X 116 0
          /wVyYWwt
        >
        E 0 96 43 50
        E 660 86 43 00
        <X 116 0
          /wVsaWE=
        >
        E 0 96 43 50
        E 304 86 43 00
        <X 60 0
          /wUr
        >
        E 0 96 44 50
        E 180 86 44 00
        <X 116 0
          /wV2b2kt
        >
        E 0 96 43 50
        E 424 86 43 00
        <X 116 0
          /wV0ZS0=
        >
        E 0 96 41 50
        E 184 86 41 00
        <X 116 0
          /wV0YQ==
        >
        E 0 96 3f 50
        E 184 86 3f 00
        <X 120 0
          /wVqb3M=
        >
        E 0 96 3d 50
        E 480 86 3d 00
        <X 120 0
          /wVzaWVsLQ==
        >
        E 0 96 3d 50
        E 360 86 3d 00
        <X 116 0
          /wVsw6Q=
        >
        E 0 96 3f 50
        E 184 86 3f 00
        <X 120 0
          /wVwZS0=
        >
        E 0 96 3d 50
        E 180 86 3d 00
        <X 120 0
          /wVsw6Qt
        >
        E 0 96 3c 50
        E 240 86 3c 00
        <X 116 0
          /wV0w6TDpG4=
        >
        E 0 96 3a 50
        E 364 86 3a 00
        E 60 80 69 00
        E 120 90 69 50
        E 0 90 74 50
        <X 60 0
          /wVNYWEt
        >
        E 0 96 44 50
        E 720 86 44 00
        <X 120 0
          /wVsaXMt
        >
        E 0 96 44 50
        E 124 86 44 00
        <X 116 0
          /wVzYQ==
        >
        E 0 96 44 50
        E 124 86 44 00
        <X 116 0
          /wVqdWgt
        >
        E 0 96 44 50
        E 300 86 44 00
        <X 180 0
          /wVsaS0=
        >
        E 0 96 43 50
        E 124 86 43 00
        <X 116 0
          /wV0YWFu
        >
        E 0 96 41 50
        E 300 86 41 00
        <X 120 0
          /wV2b2l0LQ==
        >
        E 0 96 3f 50
        E 364 86 3f 00
        <X 232 0
          /wV0YS0=
        >
        E 0 96 41 50
        E 184 86 41 00
        <X 116 0
          /wVqYS0=
        >
        E 0 96 3f 50
        E 364 86 3f 00
        <X 180 0
          /wVwb2kt
        >
        E 0 96 3d 50
        E 364 86 3d 00
        <X 116 0
          /wVrYWFtLQ==
        >
        E 0 96 3f 50
        E 360 86 3f 00
        <X 116 0
          /wVtZQ==
        >
        E 0 96 3d 50
        E 124 86 3d 00
        <X 176 0
          /wVUZXUt
        >
        E 0 96 3c 50
        E 784 86 3c 00
        <X 120 0
          /wV2b2E=
        >
        E 0 96 38 50
        E 124 86 38 00
        <X 116 0
          /wUr
        >
        E 0 96 38 50
        E 364 86 38 00
        E 176 80 69 00
        E 0 80 74 00
        E 38790 90 74 60
        E 30 90 69 60
        <X 113 0
          /wVLYWk=
        >
        E 0 96 3b 50
        E 184 86 3b 00
        <X 180 0
          /wV0w7ZyLQ==
        >
        E 0 96 3d 50
        E 300 86 3d 00
        <X 236 0
          /wVtw6Qt
        >
        E 0 96 3d 50
        E 184 86 3d 00
        <X 116 0
          /wVzaW4=
        >
        E 0 96 3b 50
        E 244 86 3b 00
        <X 116 0
          /wV2aWkt
        >
        E 0 96 36 50
        E 364 86 36 00
        <X 60 0
          /wVtZWkt
        >
        E 0 96 38 50
        E 300 86 38 00
        <X 120 0
          /wVzZW4=
        >
        E 0 96 39 50
        E 300 86 39 00
        <X 180 0
          /wVrZXIt
        >
        E 0 96 3b 50
        E 420 86 3b 00
        <X 120 0
          /wVyYW4=
        >
        E 0 96 3b 50
        E 364 86 3b 00
        E 179 80 74 00
        E 0 80 69 00
        E 11160 90 69 50
        <X 540 0
          /wVUZXUt
        >
        E 0 96 42 50
        E 780 86 42 00
        <X 236 0
          /wV2bw==
        >
        E 0 96 3b 50
        E 364 86 3b 00
        <X 236 0
          /wV2by0=
        >
        E 0 96 3b 50
        E 244 86 3b 00
        <X 116 0
          /wVv
        >
        E 0 96 42 50
        E 424 86 42 00
        <X 116 0
          /wUr
        >
        E 0 96 40 50
        E 544 86 40 00
        E 210 80 69 00
        E 390 90 69 60
        <X 176 0
          /wVvLQ==
        >
        E 0 96 40 50
        E 124 86 40 00
        <X 176 0
          /wV0YQ==
        >
        E 0 96 3e 50
        E 184 86 3e 00
        <X 120 0
          /wVtZWkt
        >
        E 0 96 40 50
        E 180 86 40 00
        <X 176 0
          /wVkw6R0
        >
        E 0 96 3e 50
        E 124 86 3e 00
        <X 176 0
          /wVreXkt
        >
        E 0 96 42 50
        E 784 86 42 00
        <X 236 0
          /wV0aS0=
        >
        E 0 96 3b 50
        E 124 86 3b 00
        <X 116 0
          /wVp
        >
        E 0 96 3b 50
        E 844 86 3b 00
        <X 176 0
          /wVqbw==
        >
        E 0 96 39 50
        E 124 86 39 00
        <X 116 0
          /wUr
        >
        E 0 96 3b 50
        E 1384 86 3b 00
        E 300 80 69 00
        E 10860 90 69 50
        <X 303 0
          /wVUZXUt
        >
        E 0 96 42 50
        E 777 86 42 00
        <X 176 0
          /wV2bw==
        >
        E 0 96 3b 50
        E 424 86 3b 00
        <X 236 0
          /wV2by0=
        >
        E 0 96 3b 50
        E 364 86 3b 00
        <X 56 0
          /wVv
        >
        E 0 96 42 50
        E 184 86 42 00
        <X 116 0
          /wUr
        >
        E 0 96 40 50
        E 784 86 40 00
        E 210 80 69 00
        E 150 90 69 60
        <X 56 0
          /wVzdW4=
        >
        E 0 96 3e 50
        E 184 86 3e 00
        <X 116 0
          /wVBbmct
        >
        E 0 96 40 50
        E 184 86 40 00
        <X 176 0
          /wVsaS0=
        >
        E 0 96 3e 50
        E 124 86 3e 00
        <X 116 0
          /wVhLQ==
        >
        E 0 96 40 50
        E 184 86 40 00
        <X 120 0
          /wVzaQ==
        >
        E 0 96 3e 50
        E 240 86 3e 00
        <X 120 0
          /wVteXkt
        >
        E 0 96 42 50
        E 840 86 42 00
        <X 180 0
          /wV0aS0=
        >
        E 0 96 3b 50
        E 300 86 3b 00
        <X 60 0
          /wVpbg==
        >
        E 0 96 3b 50
        E 484 86 3b 00
        <X 416 0
          /wV2bw==
        >
        E 0 96 39 50
        E 240 86 39 00
        <X 120 0
          /wUr
        >
        E 0 96 3b 50
        E 1203 86 3b 00
        E 207 80 69 00
        <X 273 0
          /wFbaWRsZV9yZWFsdGltZV0=
        >
        E 79557 b0 7b 00
        GUID {E53B89F8-ECC8-4A25-86E2-BC4D240C9444}
        IGNTEMPO 0 120.00000000 4 4
        SRCCOLOR 406
        VELLANE 132 128 60
        COLORMAP "C:\Users\me\AppData\Roaming\REAPER\Data\color_maps\rockband_vox-other.png"
        TEXTSTRINGFILE "C:\Program Files\REAPER\Data\Text_Strings\Text Events List.txt"
        CFGEDITVIEW 223378.668715 90.527545 0 12 0 0 0
        CFGEDIT 1 1 0 1 1 1 1 1 1 0 1 0.06250000 -8 -8 1374 736 1 2 1 2 0.00000000 0 0 0 0 0.500000 1 0 1.000000 64
        KEYSNAP 0 0 "102034050607" 0 "Major"
        EVTFILTER 0 -1 -1 -1 -1 0 1 0 0 -1.00000000 -1.00000000
      >
    >
  >
  <TRACK '{58A7B9C6-1373-47A1-A41A-295306551BF7}'
    NAME "DRYVOX2"
    PEAKCOL 16576
    BEAT -1
    AUTOMODE 0
    VOLPAN 1.00000000000000 0.00000000000000 -1.00000000000000 -1.00000000000000 1.00000000000000
    MUTESOLO 0 0 0
    IPHASE 0
    ISBUS 0 0
    BUSCOMP 0 0
    SHOWINMIX 1 0.666700 0.500000 1 0.500000 -1 -1 -1
    FREEMODE 0
    SEL 0
    REC 0 0 0 0 0 0 0
    TRACKHEIGHT 222 0
    INQ 0 0 0 0.5000000000 100 0 0 100
    NCHAN 2
    FX 1
    TRACKID {58A7B9C6-1373-47A1-A41A-295306551BF7}
    PERF 0
    MIDIOUT -1
    MAINSEND 1 0
    <FXCHAIN
      SHOW 0
      LASTSEL 0
      DOCKED 0
      BYPASS 0 0
      <VST "VST: ReaGate (Cockos)" "reagate.dll" 0 ""
        dGdlcu9e7f4EAAAAAQAAAAAAAAACAAAAAAAAAAQAAAAAAAAACAAAAA==
        AAAAAAIAAAABAAAAAAAAAAIAAAAAAAAAVAAAAAAAAAAAABAA776t3g==
        DfCt3pzRBzOmm8Q7CtejPAAAAAAAAAAAAACAPwAAAAAAAAAAAAAAAA==
        nNEHMx5Ucz+c0QczAACAPwAAAAAAAAAAAAAAACwWCz8AAAAAAAAAAA==
        AAAQAAAA
      >
      FLOATPOS 859 184 511 385
      FXID {BF545B5B-7DD0-4B4C-AC52-F095A552DA08}
      WAK 0
    >
    <ITEM
      POSITION 39.64861783939394
      SNAPOFFS 0.00000000000000
      LENGTH 3.46372683727048
      LOOP 0
      ALLTAKES 0
      SEL 0
      FADEIN 1 0.000000 0.000000 1 0
      FADEOUT 1 0.000000 0.000000 1 0
      MUTE 0
      IGUID {870DD844-8649-4450-882D-693490E3B905}
      IID 174
      NAME "vocals.wav"
      VOLPAN 1.000000 0.000000 1.000000 -1.000000
      SOFFS 39.64861783939394
      PLAYRATE 1.00000000000000 1 0.00000000000000 -1
      CHANMODE 0
      GUID {72E327EA-064E-4B53-8A89-ECA46E09145B}
      <SOURCE WAVE
        FILE "C:\Users\wejaa\__CustomOwnSongs\teuvo\NewVersion\V5\vocals.wav"
      >
    >
    <ITEM
      POSITION 55.35646112573907
      SNAPOFFS 0.00000000000000
      LENGTH 3.60585544609465
      LOOP 0
      ALLTAKES 0
      SEL 0
      FADEIN 1 0.000000 0.000000 1 0
      FADEOUT 1 0.000000 0.000000 1 0
      MUTE 0
      IGUID {5424DC9B-8185-4210-A84A-289A3639B65D}
      IID 174
      NAME "vocals.wav"
      VOLPAN 1.000000 0.000000 1.000000 -1.000000
      SOFFS 55.35646112573907
      PLAYRATE 1.00000000000000 1 0.00000000000000 -1
      CHANMODE 0
      GUID {CDFFC731-9A78-430C-BB8F-69C6C6415E73}
      <SOURCE WAVE
        FILE "C:\Users\wejaa\__CustomOwnSongs\teuvo\NewVersion\V5\vocals.wav"
      >
    >
    <ITEM
      POSITION 87.00902871313629
      SNAPOFFS 0.00000000000000
      LENGTH 40.94883140900762
      LOOP 0
      ALLTAKES 0
      SEL 0
      FADEIN 1 0.000000 0.000000 1 0
      FADEOUT 1 0.000000 0.000000 1 0
      MUTE 0
      IGUID {1615A6E2-DB94-4970-AA6D-7DD9C6B4316D}
      IID 174
      NAME "vocals.wav"
      VOLPAN 1.000000 0.000000 1.000000 -1.000000
      SOFFS 87.00902871313629
      PLAYRATE 1.00000000000000 1 0.00000000000000 -1
      CHANMODE 0
      GUID {961BCABA-BDA2-4C7B-8EAF-A753FEB0C510}
      <SOURCE WAVE
        FILE "C:\Users\wejaa\__CustomOwnSongs\teuvo\NewVersion\V5\vocals.wav"
      >
    >
    <ITEM
      POSITION 157.36795410364869
      SNAPOFFS 0.00000000000000
      LENGTH 95.59023183739437
      LOOP 0
      ALLTAKES 0
      SEL 0
      FADEIN 1 0.000000 0.000000 1 0
      FADEOUT 1 0.000000 0.000000 1 0
      MUTE 0
      IGUID {A962471D-D834-4AD7-8C14-5D70EC8DC6A7}
      IID 174
      NAME "vocals.wav"
      VOLPAN 1.000000 0.000000 1.000000 -1.000000
      SOFFS 157.36795410364869
      PLAYRATE 1.00000000000000 1 0.00000000000000 -1
      CHANMODE 0
      GUID {A00AD5E8-6170-442A-90DF-ABDF42DA8BA6}
      <SOURCE WAVE
        FILE "C:\Users\wejaa\__CustomOwnSongs\teuvo\NewVersion\V5\vocals.wav"
      >
    >
  >
  <TRACK '{4299BF31-E988-4C64-900A-97AC9ECE5EBC}'
    NAME "HARM3"
    PEAKCOL 24624127
    BEAT -1
    AUTOMODE 0
    VOLPAN 1.00000000000000 0.00000000000000 -1.00000000000000 -1.00000000000000 1.00000000000000
    MUTESOLO 0 0 0
    IPHASE 0
    ISBUS 0 0
    BUSCOMP 0 0
    SHOWINMIX 1 0.666700 0.500000 1 0.500000 -1 -1 -1
    FREEMODE 0
    SEL 1
    REC 0 0 0 0 0 0 0
    TRACKHEIGHT 0 0
    INQ 0 0 0 0.5000000000 100 0 0 100
    NCHAN 2
    FX 1
    TRACKID {4299BF31-E988-4C64-900A-97AC9ECE5EBC}
    PERF 0
    MIDIOUT -1
    <MIDINOTENAMES
      0 0 "Range Shift"
      0 1 "Lyric Shift"
      0 35 "----"
      0 36 "C1"
      0 37 "C#"
      0 38 "D"
      0 39 "Eb"
      0 40 "E"
      0 41 "F"
      0 42 "F#"
      0 43 "G"
      0 44 "G#"
      0 45 "A"
      0 46 "Bb"
      0 47 "B"
      0 48 "C2"
      0 49 "C#"
      0 50 "D"
      0 51 "Eb"
      0 52 "E"
      0 53 "F"
      0 54 "F#"
      0 55 "G"
      0 56 "G#"
      0 57 "A"
      0 58 "Bb"
      0 59 "B"
      0 60 "C3"
      0 61 "C#"
      0 62 "D"
      0 63 "Eb"
      0 64 "E"
      0 65 "F"
      0 66 "F#"
      0 67 "G"
      0 68 "G#"
      0 69 "A"
      0 70 "Bb"
      0 71 "B"
      0 72 "C4"
      0 73 "C#"
      0 74 "D"
      0 75 "Eb"
      0 76 "E"
      0 77 "F"
      0 78 "F#"
      0 79 "G"
      0 80 "G#"
      0 81 "A"
      0 82 "Bb"
      0 83 "B"
      0 84 "C5"
      0 116 "OVERDRIVE"
      0 115 "----"
      0 105 "Phrase Marker"
      0 104 "----"
      0 97 "Not Displayed Percussion"
      0 96 "Displayed Percussion"
      0 95 "----"
    >
    MAINSEND 1 0
    <FXCHAIN
      WNDRECT 0 42 716 493
      SHOW 0
      LASTSEL 1
      DOCKED 0
      BYPASS 0 0
      <JS "IX/MIDI_Tool II" ""
        0.000000 85.000000 127.000000 0.000000 0.000000 0.000000 100.000000 0.000000 0.000000 127.000000 0.000000 0.000000 1.000000 0.000000 0.000000 - - - - - - - - - - - - - - - - - - - - - - - - - - - - - - - - - - - - - - - - - - - - - - - - - 
      >
      FLOATPOS 0 0 0 0
      FXID {3D33E2FB-5DDE-4F81-B16F-BCB1EAD8D4FA}
      WAK 0
      BYPASS 0 0
      <VST "VSTi: ReaSynth (Cockos)" "reasynth.dll" 0 ""
        eXNlcu9e7f4AAAAAAgAAAAEAAAAAAAAAAgAAAAAAAAA4AAAAAAAAAA==
        AAAAAO++rd4N8K3eppvEOxe30ToAAAAAAAAAAAAAAACa9Q8/6WeIPQ==
        AAAAAAAAAD8AAIA/AAAAAAAAAD8AAAAAAAA=
      >
      FLOATPOS 0 0 0 0
      FXID {98E235B6-3365-4F58-AC74-F5BD513BFA85}
      WAK 0
    >
    <ITEM
      POSITION 0.00000000000000
      SNAPOFFS 0.00000000000000
      LENGTH 252.98525897370561
      LOOP 0
      ALLTAKES 0
      SEL 1
      FADEIN 1 0.000000 0.000000 1 0
      FADEOUT 1 0.000000 0.000000 1 0
      MUTE 0
      IGUID {14DAFADF-64E7-40FA-8E65-65BBB77CBDB7}
      IID 13
      NAME "HARM3 untitled MIDI item"
      VOLPAN 1.000000 0.000000 1.000000 -1.000000
      SOFFS 0.00000000000000 0.00000000000000
      PLAYRATE 1.00000000000000 1 0.00000000000000 -1
      CHANMODE 0
      GUID {BA30FF02-694D-4D9D-9D54-87AECA42C3BA}
      <SOURCE MIDI
        HASDATA 1 480 QN
        POOLEDEVTS {F04D1382-B94C-451C-BDB4-C2C20C041D89}
        <X 0 0
          /wNIQVJNMw==
        >
        E 47310 90 69 60
        E 0 90 74 60
        <X 83 0
          /wVKby0=
        >
        E 0 96 36 50
        E 184 86 36 00
        <X 60 0
          /wVrYQ==
        >
        E 0 96 37 50
        E 184 86 37 00
        <X 172 0
          /wVvaC0=
        >
        E 0 96 37 50
        E 484 86 37 00
        <X 60 0
          /wVqYXVzLQ==
        >
        E 0 96 37 50
        E 184 86 37 00
        <X 116 0
          /wUr
        >
        E 0 96 36 50
        E 300 86 36 00
        <X 120 0
          /wV2aXIt
        >
        E 0 96 31 50
        E 364 86 31 00
        <X 116 0
          /wVoZWUt
        >
        E 0 96 32 50
        E 240 86 32 00
        <X 60 0
          /wVzdMOk
        >
        E 0 96 33 50
        E 360 86 33 00
        <X 120 0
          /wV2w6TDpG4t
        >
        E 0 96 35 50
        E 480 86 35 00
        <X 120 0
          /wV0eWk=
        >
        E 0 96 35 50
        E 540 86 35 00
        E 93 80 69 00
        E 0 80 74 00
        E 16020 90 69 60
        E 0 90 74 60
        <X 23 0
          /wVNaS0=
        >
        E 0 96 37 50
        E 244 86 37 00
        <X 56 0
          /wVuw6Q=
        >
        E 0 96 38 50
        E 244 86 38 00
        <X 120 0
          /wVvay0=
        >
        E 0 96 38 50
        E 300 86 38 00
        <X 60 0
          /wVzZW4t
        >
        E 0 96 38 50
        E 360 86 38 00
        <X 56 0
          /wVzaW4=
        >
        E 0 96 37 50
        E 364 86 37 00
        <X 120 0
          /wV2ZXIt
        >
        E 0 96 32 50
        E 480 86 32 00
        <X 120 0
          /wV0YQ==
        >
        E 0 96 33 50
        E 240 86 33 00
        <X 120 0
          /wVqYQ==
        >
        E 0 96 35 50
        E 124 86 35 00
        <X 236 0
          /wVpdC0=
        >
        E 0 96 37 50
        E 300 86 37 00
        <X 236 0
          /wVraW4=
        >
        E 0 96 37 50
        E 664 86 37 00
        E 33 80 69 00
        E 0 80 74 00
        E 36780 90 69 60
        E 0 90 74 60
        <X 23 0
          /wVTZQ==
        >
        E 0 96 39 50
        E 244 86 39 00
        <X 116 0
          /wVoYXIt
        >
        E 0 96 39 50
        E 364 86 39 00
        <X 60 0
          /wVyYXMt
        >
        E 0 96 39 50
        E 300 86 39 00
        <X 176 0
          /wV0dXMt
        >
        E 0 96 37 50
        E 124 86 37 00
        <X 176 0
          /wV0b2kt
        >
        E 0 96 32 50
        E 484 86 32 00
        <X 56 0
          /wVtaW4t
        >
        E 0 96 34 50
        E 244 86 34 00
        <X 120 0
          /wV0YWE=
        >
        E 0 96 35 50
        E 300 86 35 00
        <X 116 0
          /wVoYWl0LQ==
        >
        E 0 96 37 50
        E 364 86 37 00
        <X 236 0
          /wV0YWE=
        >
        E 0 96 37 50
        E 484 86 37 00
        E 93 80 69 00
        E 0 80 74 00
        E 20876 90 69 50
        <X 147 0
          /wVSYWxsaS0=
        >
        E 0 96 3b 50
        E 424 86 3b 00
        <X 120 0
          /wUr
        >
        E 0 96 3d 50
        E 180 86 3d 00
        <X 120 0
          /wVrdXMt
        >
        E 0 96 3f 50
        E 360 86 3f 00
        <X 120 0
          /wVraWst
        >
        E 0 96 3f 50
        E 180 86 3f 00
        <X 116 0
          /wVzaQ==
        >
        E 0 96 40 50
        E 304 86 40 00
        <X 116 0
          /wVww6TDpC0=
        >
        E 0 96 3f 50
        E 484 86 3f 00
        <X 120 0
          /wVzeXMt
        >
        E 0 96 3d 50
        E 360 86 3d 00
        <X 120 0
          /wV0w6Q=
        >
        E 0 96 3b 50
        E 180 86 3b 00
        <X 116 0
          /wV0b2kt
        >
        E 0 96 39 50
        E 424 86 39 00
        <X 180 0
          /wV2ZWkt
        >
        E 0 96 39 50
        E 240 86 39 00
        <X 116 0
          /wV0YQ==
        >
        E 0 96 3b 50
        E 184 86 3b 00
        <X 120 0
          /wVlLQ==
        >
        E 0 96 39 50
        E 180 86 39 00
        <X 116 0
          /wVsw6Qt
        >
        E 0 96 38 50
        E 244 86 38 00
        <X 116 0
          /wV0w6Ru
        >
        E 0 96 36 50
        E 364 86 36 00
        E 93 80 69 00
        E 150 90 69 50
        <X 53 0
          /wVUdXIt
        >
        E 0 96 40 50
        E 484 86 40 00
        <X 116 0
          /wVoYQ==
        >
        E 0 96 40 50
        E 244 86 40 00
        <X 116 0
          /wVvbg==
        >
        E 0 96 40 50
        E 244 86 40 00
        <X 116 0
          /wXDpGkt
        >
        E 0 96 40 50
        E 484 86 40 00
        <X 116 0
          /wV0aS0=
        >
        E 0 96 3f 50
        E 244 86 3f 00
        <X 120 0
          /wVlbg==
        >
        E 0 96 3d 50
        E 124 86 3d 00
        <X 116 0
          /wVzYW4t
        >
        E 0 96 3b 50
        E 480 86 3b 00
        <X 120 0
          /wVrYS0=
        >
        E 0 96 3d 50
        E 240 86 3d 00
        <X 120 0
          /wVyaS0=
        >
        E 0 96 3b 50
        E 124 86 3b 00
        <X 116 0
          /wVwb2kt
        >
        E 0 96 39 50
        E 600 86 39 00
        <X 116 0
          /wVraS0=
        >
        E 0 96 3b 50
        E 124 86 3b 00
        <X 116 0
          /wVh
        >
        E 0 96 39 50
        E 304 86 39 00
        <X 120 0
          /wVuZXUt
        >
        E 0 96 38 50
        E 780 86 38 00
        <X 176 0
          /wV2b2E=
        >
        E 0 96 34 50
        E 124 86 34 00
        <X 116 0
          /wUr
        >
        E 0 96 34 50
        E 844 86 34 00
        E 183 80 69 00
        E 1920 90 69 50
        <X 297 0
          /wVFaS0=
        >
        E 0 96 3b 50
        E 240 86 3b 00
        <X 120 0
          /wVow6Ru
        >
        E 0 96 3d 50
        E 124 86 3d 00
        <X 116 0
          /wVyYWwt
        >
        E 0 96 3f 50
        E 660 86 3f 00
        <X 116 0
          /wVsaWE=
        >
        E 0 96 3f 50
        E 304 86 3f 00
        <X 60 0
          /wUr
        >
        E 0 96 40 50
        E 180 86 40 00
        <X 116 0
          /wV2b2kt
        >
        E 0 96 3f 50
        E 424 86 3f 00
        <X 116 0
          /wV0ZS0=
        >
        E 0 96 3d 50
        E 184 86 3d 00
        <X 116 0
          /wV0YQ==
        >
        E 0 96 3b 50
        E 184 86 3b 00
        <X 120 0
          /wVqb3M=
        >
        E 0 96 39 50
        E 480 86 39 00
        <X 120 0
          /wVzaWVsLQ==
        >
        E 0 96 39 50
        E 360 86 39 00
        <X 116 0
          /wVsw6Q=
        >
        E 0 96 3b 50
        E 184 86 3b 00
        <X 120 0
          /wVwZS0=
        >
        E 0 96 39 50
        E 180 86 39 00
        <X 120 0
          /wVsw6Qt
        >
        E 0 96 38 50
        E 240 86 38 00
        <X 116 0
          /wV0w6TDpG4=
        >
        E 0 96 36 50
        E 364 86 36 00
        E 63 80 69 00
        E 120 90 69 50
        E 0 90 74 50
        <X 57 0
          /wVNYWEt
        >
        E 0 96 40 50
        E 720 86 40 00
        <X 120 0
          /wVsaXMt
        >
        E 0 96 40 50
        E 124 86 40 00
        <X 116 0
          /wVzYQ==
        >
        E 0 96 40 50
        E 124 86 40 00
        <X 116 0
          /wVqdWgt
        >
        E 0 96 40 50
        E 300 86 40 00
        <X 180 0
          /wVsaS0=
        >
        E 0 96 3f 50
        E 124 86 3f 00
        <X 116 0
          /wV0YWFu
        >
        E 0 96 3d 50
        E 300 86 3d 00
        <X 120 0
          /wV2b2l0LQ==
        >
        E 0 96 3b 50
        E 364 86 3b 00
        <X 232 0
          /wV0YS0=
        >
        E 0 96 3d 50
        E 184 86 3d 00
        <X 116 0
          /wVqYS0=
        >
        E 0 96 3b 50
        E 364 86 3b 00
        <X 180 0
          /wVwb2kt
        >
        E 0 96 39 50
        E 364 86 39 00
        <X 116 0
          /wVrYWFtLQ==
        >
        E 0 96 3b 50
        E 360 86 3b 00
        <X 116 0
          /wVtZQ==
        >
        E 0 96 39 50
        E 124 86 39 00
        <X 176 0
          /wVUZXUt
        >
        E 0 96 38 50
        E 784 86 38 00
        <X 120 0
          /wV2b2E=
        >
        E 0 96 34 50
        E 124 86 34 00
        <X 116 0
          /wUr
        >
        E 0 96 34 50
        E 364 86 34 00
        E 179 80 69 00
        E 0 80 74 00
        E 38790 90 74 60
        E 30 90 69 60
        <X 110 0
          /wVLYWk=
        >
        E 0 96 37 50
        E 184 86 37 00
        <X 180 0
          /wV0w7ZyLQ==
        >
        E 0 96 39 50
        E 300 86 39 00
        <X 236 0
          /wVtw6Qt
        >
        E 0 96 39 50
        E 184 86 39 00
        <X 116 0
          /wVzaW4=
        >
        E 0 96 37 50
        E 244 86 37 00
        <X 116 0
          /wV2aWkt
        >
        E 0 96 32 50
        E 364 86 32 00
        <X 60 0
          /wVtZWkt
        >
        E 0 96 34 50
        E 300 86 34 00
        <X 120 0
          /wVzZW4=
        >
        E 0 96 35 50
        E 300 86 35 00
        <X 180 0
          /wVrZXIt
        >
        E 0 96 37 50
        E 420 86 37 00
        <X 120 0
          /wVyYW4=
        >
        E 0 96 37 50
        E 364 86 37 00
        E 182 80 74 00
        E 0 80 69 00
        E 11160 90 69 50
        <X 537 0
          /wVUZXUt
        >
        E 0 96 3e 50
        E 780 86 3e 00
        <X 236 0
          /wV2bw==
        >
        E 0 96 37 50
        E 364 86 37 00
        <X 236 0
          /wV2by0=
        >
        E 0 96 37 50
        E 244 86 37 00
        <X 116 0
          /wVv
        >
        E 0 96 3e 50
        E 424 86 3e 00
        <X 116 0
          /wUr
        >
        E 0 96 3c 50
        E 544 86 3c 00
        E 213 80 69 00
        E 390 90 69 60
        <X 173 0
          /wVvLQ==
        >
        E 0 96 3c 50
        E 124 86 3c 00
        <X 176 0
          /wV0YQ==
        >
        E 0 96 3a 50
        E 184 86 3a 00
        <X 120 0
          /wVtZWkt
        >
        E 0 96 3c 50
        E 180 86 3c 00
        <X 176 0
          /wVkw6R0
        >
        E 0 96 3a 50
        E 124 86 3a 00
        <X 176 0
          /wVreXkt
        >
        E 0 96 3e 50
        E 784 86 3e 00
        <X 236 0
          /wV0aS0=
        >
        E 0 96 37 50
        E 124 86 37 00
        <X 116 0
          /wVp
        >
        E 0 96 37 50
        E 844 86 37 00
        <X 176 0
          /wVqbw==
        >
        E 0 96 35 50
        E 124 86 35 00
        <X 116 0
          /wUr
        >
        E 0 96 37 50
        E 1384 86 37 00
        E 303 80 69 00
        E 10860 90 69 50
        <X 300 0
          /wVUZXUt
        >
        E 0 96 3e 50
        E 777 86 3e 00
        <X 176 0
          /wV2bw==
        >
        E 0 96 37 50
        E 424 86 37 00
        <X 236 0
          /wV2by0=
        >
        E 0 96 37 50
        E 364 86 37 00
        <X 56 0
          /wVv
        >
        E 0 96 3e 50
        E 184 86 3e 00
        <X 116 0
          /wUr
        >
        E 0 96 3c 50
        E 784 86 3c 00
        E 213 80 69 00
        E 150 90 69 60
        <X 53 0
          /wVzdW4=
        >
        E 0 96 3a 50
        E 184 86 3a 00
        <X 116 0
          /wVBbmct
        >
        E 0 96 3c 50
        E 184 86 3c 00
        <X 176 0
          /wVsaS0=
        >
        E 0 96 3a 50
        E 124 86 3a 00
        <X 116 0
          /wVhLQ==
        >
        E 0 96 3c 50
        E 184 86 3c 00
        <X 120 0
          /wVzaQ==
        >
        E 0 96 3a 50
        E 240 86 3a 00
        <X 120 0
          /wVteXkt
        >
        E 0 96 3e 50
        E 840 86 3e 00
        <X 180 0
          /wV0aS0=
        >
        E 0 96 37 50
        E 300 86 37 00
        <X 60 0
          /wVpbg==
        >
        E 0 96 37 50
        E 484 86 37 00
        <X 416 0
          /wV2bw==
        >
        E 0 96 35 50
        E 240 86 35 00
        <X 120 0
          /wUr
        >
        E 0 96 37 50
        E 1203 86 37 00
        E 210 80 69 00
        E 80023 b0 7b 00
        GUID {F1082209-E2A8-4526-8AA6-2FE8F2DEB335}
        IGNTEMPO 0 120.00000000 4 4
        SRCCOLOR 407
        VELLANE 132 128 60
        COLORMAP "C:\Users\me\AppData\Roaming\REAPER\Data\color_maps\rockband_vox-other.png"
        TEXTSTRINGFILE "C:\Program Files\REAPER\Data\Text_Strings\Text Events List.txt"
        CFGEDITVIEW 223393.236419 90.527545 0 12 0 0 0
        CFGEDIT 1 1 0 1 1 1 1 1 1 1 1 0.06250000 -8 -8 1374 736 1 2 1 2 0.00000000 0 0 0 0 0.500000 1 0 1.000000 64
        KEYSNAP 0 0 "102034050607" 0 "Major"
        EVTFILTER 0 -1 -1 -1 -1 0 1 0 0 -1.00000000 -1.00000000
      >
    >
  >
  <TRACK '{AB3E8FDC-23A9-4945-BA6C-055C630028D0}'
    NAME "DRYVOX3"
    PEAKCOL 16576
    BEAT -1
    AUTOMODE 0
    VOLPAN 1.00000000000000 0.00000000000000 -1.00000000000000 -1.00000000000000 1.00000000000000
    MUTESOLO 0 0 0
    IPHASE 0
    ISBUS 0 0
    BUSCOMP 0 0
    SHOWINMIX 1 0.666700 0.500000 1 0.500000 -1 -1 -1
    FREEMODE 0
    SEL 0
    REC 0 0 0 0 0 0 0
    TRACKHEIGHT 0 0
    INQ 0 0 0 0.5000000000 100 0 0 100
    NCHAN 2
    FX 1
    TRACKID {AB3E8FDC-23A9-4945-BA6C-055C630028D0}
    PERF 0
    MIDIOUT -1
    MAINSEND 1 0
    <FXCHAIN
      SHOW 0
      LASTSEL 0
      DOCKED 0
      BYPASS 0 0
      <VST "VST: ReaGate (Cockos)" "reagate.dll" 0 ""
        dGdlcu9e7f4EAAAAAQAAAAAAAAACAAAAAAAAAAQAAAAAAAAACAAAAA==
        AAAAAAIAAAABAAAAAAAAAAIAAAAAAAAAVAAAAAAAAAAAABAA776t3g==
        DfCt3pzRBzOmm8Q7CtejPAAAAAAAAAAAAACAPwAAAAAAAAAAAAAAAA==
        nNEHMx5Ucz+c0QczAACAPwAAAAAAAAAAAAAAACwWCz8AAAAAAAAAAA==
        AAAQAAAA
      >
      FLOATPOS 859 184 511 385
      FXID {BF545B5B-7DD0-4B4C-AC52-F095A552DA08}
      WAK 0
    >
    <ITEM
      POSITION 39.64861783939394
      SNAPOFFS 0.00000000000000
      LENGTH 3.46372683727048
      LOOP 0
      ALLTAKES 0
      SEL 0
      FADEIN 1 0.000000 0.000000 1 0
      FADEOUT 1 0.000000 0.000000 1 0
      MUTE 0
      IGUID {CCD791CA-B0FF-406A-8AE5-574B79F30E11}
      IID 174
      NAME "vocals.wav"
      VOLPAN 1.000000 0.000000 1.000000 -1.000000
      SOFFS 39.64861783939394
      PLAYRATE 1.00000000000000 1 0.00000000000000 -1
      CHANMODE 0
      GUID {38854D37-6024-4B57-BB96-F253BD0BBB98}
      <SOURCE WAVE
        FILE "C:\Users\wejaa\__CustomOwnSongs\teuvo\NewVersion\V5\vocals.wav"
      >
    >
    <ITEM
      POSITION 55.35646112573907
      SNAPOFFS 0.00000000000000
      LENGTH 3.60585544609465
      LOOP 0
      ALLTAKES 0
      SEL 0
      FADEIN 1 0.000000 0.000000 1 0
      FADEOUT 1 0.000000 0.000000 1 0
      MUTE 0
      IGUID {3AE3A2A0-ECFD-4781-AE2A-D8A87078A465}
      IID 174
      NAME "vocals.wav"
      VOLPAN 1.000000 0.000000 1.000000 -1.000000
      SOFFS 55.35646112573907
      PLAYRATE 1.00000000000000 1 0.00000000000000 -1
      CHANMODE 0
      GUID {8AEB031D-CB71-4D63-9F20-184DE619F7FB}
      <SOURCE WAVE
        FILE "C:\Users\wejaa\__CustomOwnSongs\teuvo\NewVersion\V5\vocals.wav"
      >
    >
    <ITEM
      POSITION 87.00902871313629
      SNAPOFFS 0.00000000000000
      LENGTH 40.94883140900762
      LOOP 0
      ALLTAKES 0
      SEL 0
      FADEIN 1 0.000000 0.000000 1 0
      FADEOUT 1 0.000000 0.000000 1 0
      MUTE 0
      IGUID {55DE8C01-CFEB-4133-8193-2A3CC1D5A813}
      IID 174
      NAME "vocals.wav"
      VOLPAN 1.000000 0.000000 1.000000 -1.000000
      SOFFS 87.00902871313629
      PLAYRATE 1.00000000000000 1 0.00000000000000 -1
      CHANMODE 0
      GUID {29AC10B1-459F-473A-8B7E-4DE0106762A6}
      <SOURCE WAVE
        FILE "C:\Users\wejaa\__CustomOwnSongs\teuvo\NewVersion\V5\vocals.wav"
      >
    >
    <ITEM
      POSITION 157.36795410364869
      SNAPOFFS 0.00000000000000
      LENGTH 95.59023183739437
      LOOP 0
      ALLTAKES 0
      SEL 0
      FADEIN 1 0.000000 0.000000 1 0
      FADEOUT 1 0.000000 0.000000 1 0
      MUTE 0
      IGUID {48C02ACA-B04F-4D96-A842-AB9088718B7B}
      IID 174
      NAME "vocals.wav"
      VOLPAN 1.000000 0.000000 1.000000 -1.000000
      SOFFS 157.36795410364869
      PLAYRATE 1.00000000000000 1 0.00000000000000 -1
      CHANMODE 0
      GUID {04633179-37BA-4685-B8B3-D778BD5DD510}
      <SOURCE WAVE
        FILE "C:\Users\wejaa\__CustomOwnSongs\teuvo\NewVersion\V5\vocals.wav"
      >
    >
  >
  <TRACK '{14F64FB7-FE44-4E53-9F58-44F4178BCEF9}'
    NAME "PART KEYS"
    PEAKCOL 16842496
    BEAT -1
    AUTOMODE 0
    VOLPAN 1.00000000000000 0.00000000000000 -1.00000000000000 -1.00000000000000 1.00000000000000
    MUTESOLO 1 0 0
    IPHASE 0
    ISBUS 1 1
    BUSCOMP 0 0
    SHOWINMIX 1 0.666700 0.500000 1 0.500000 -1 -1 -1
    FREEMODE 0
    SEL 0
    REC 0 0 0 0 0 0 0
    TRACKHEIGHT 0 0
    INQ 0 0 0 0.5000000000 100 0 0 100
    NCHAN 2
    FX 1
    TRACKID {14F64FB7-FE44-4E53-9F58-44F4178BCEF9}
    PERF 0
    MIDIOUT -1
    <MIDINOTENAMES
      0 124 "BRE"
      0 123 "BRE"
      0 122 "BRE"
      0 121 "BRE"
      0 120 "BRE (use all 5)"
      0 116 "OVERDRIVE"
      0 119 "----"
      0 115 "----"
      0 103 "Solo Marker"
      0 95 "----"
      0 96 "EXPERT Green"
      0 97 "EXPERT Red"
      0 98 "EXPERT Yellow"
      0 99 "EXPERT Blue"
      0 100 "EXPERT Orange"
      0 102 "Force HoPo off"
      0 83 "----"
      0 84 "HARD Green"
      0 85 "HARD Red"
      0 86 "HARD Yellow"
      0 87 "HARD Blue"
      0 88 "HARD Orange"
      0 72 "MEDIUM Green"
      0 73 "MEDIUM Red"
      0 74 "MEDIUM Yellow"
      0 75 "MEDIUM Blue"
      0 76 "MEDIUM Orange"
      0 71 "----"
      0 64 "EASY Orange"
      0 63 "EASY Blue"
      0 62 "EASY Yellow"
      0 61 "EASY Red"
      0 60 "EASY Green"
      0 127 "Trill Marker"
      0 126 "----"
      0 101 "Force HoPo on"
    >
    MAINSEND 1 0
    <FXCHAIN
      WNDRECT 0 40 878 585
      SHOW 0
      LASTSEL 0
      DOCKED 0
      BYPASS 0 0
      <VST "VSTi: RBN Preview (RBN)" "rbprev_vst64_beta.dll" 0 ""
        dnBicu5e7f4AAAAAAgAAAAEAAAAAAAAAAgAAAAAAAAAEAAAAAQAAAA==
        AAAAAAMAqgAAAAAAAAA=
      >
      FLOATPOS 0 0 0 0
      FXID {EE0C80EE-5E5F-4EA2-B367-78AAAB3793F5}
      WAK 0
    >
    <ITEM
      POSITION 0.00000000000000
      SNAPOFFS 0.00000000000000
      LENGTH 141.61851340095805
      LOOP 0
      ALLTAKES 0
      SEL 0
      FADEIN 1 0.000000 0.000000 1 0
      FADEOUT 1 0.000000 0.000000 1 0
      MUTE 0
      IGUID {52D9F6AC-16AD-4CE9-95E4-6AD6396BB4E2}
      IID 14
      NAME "PART KEYS"
      VOLPAN 1.000000 0.000000 1.000000 -1.000000
      SOFFS 0.00000000000000 0.00000000000000
      PLAYRATE 1.00000000000000 1 0.00000000000000 -65536
      CHANMODE 0
      GUID {78E1CCBD-C30B-4DD8-81CD-2AEB0D2D38C8}
      <SOURCE MIDI
        HASDATA 1 480 QN
        POOLEDEVTS {D7353500-D675-49B4-9B30-1E6BA92DEB1E}
        <X 0 0
          /wNQQVJUIEtFWVM=
        >
        <X 3840 0
          /wFbcGxheV0=
        >
        E 0 90 40 7f
        E 0 90 4c 7f
        E 0 90 58 7f
        E 60 80 40 00
        E 0 80 4c 00
        E 0 80 58 00
        E 30 90 3f 7f
        E 0 90 4b 7f
        E 0 90 57 7f
        E 60 80 3f 00
        E 0 80 4b 00
        E 0 80 57 00
        E 30 90 3e 7f
        E 0 90 4a 7f
        E 0 90 56 7f
        E 60 80 3e 00
        E 0 80 4a 00
        E 0 80 56 00
        E 30 90 3d 7f
        E 0 90 49 7f
        E 0 90 55 7f
        E 60 80 3d 00
        E 0 80 49 00
        E 0 80 55 00
        E 30 90 3c 7f
        E 0 90 48 7f
        E 0 90 54 7f
        E 60 80 3c 00
        E 0 80 48 00
        E 0 80 54 00
        E 176221 b0 7b 00
        GUID {F537F270-CEBA-461E-8612-DC28913708FC}
        IGNTEMPO 0 120.00000000 4 4
        SRCCOLOR 408
        VELLANE 132 128 60
        COLORMAP "C:\Users\me\AppData\Roaming\REAPER\Data\color_maps\rockband_guitarbass.png"
        TEXTSTRINGFILE "C:\Program Files\REAPER\Data\Text_Strings\Text Events List.txt"
        CFGEDITVIEW -4299.275963 82.395269 19 12 0 0 0
        CFGEDIT 1 1 0 0 0 1 1 1 1 1 1 0.12500000 -8 -8 1370 736 1 0 1 2 0.00000000 0 0 0 0 0.500000 1 0 1.000000 64
        KEYSNAP 0 0 "102034050607" 0 "Major"
        EVTFILTER 0 -1 -1 -1 -1 0 1 0 0 -1.00000000 -1.00000000
      >
    >
  >
  <TRACK '{D39F8BD7-8730-4182-94EC-51AF9F9ACC90}'
    NAME "PART REAL_KEYS_X"
    PEAKCOL 25231232
    BEAT -1
    AUTOMODE 0
    VOLPAN 1.00000000000000 0.00000000000000 -1.00000000000000 -1.00000000000000 1.00000000000000
    MUTESOLO 1 0 0
    IPHASE 0
    ISBUS 0 0
    BUSCOMP 1 0
    SHOWINMIX 1 0.666700 0.500000 1 0.500000 -1 -1 -1
    FREEMODE 0
    SEL 0
    REC 0 0 0 0 0 0 0
    TRACKHEIGHT 0 0
    INQ 0 0 0 0.5000000000 100 0 0 100
    NCHAN 2
    FX 1
    TRACKID {D39F8BD7-8730-4182-94EC-51AF9F9ACC90}
    PERF 0
    MIDIOUT -1
    <MIDINOTENAMES
      0 0 "C2-E3 Range"
      0 5 "F2-A3 Range"
      0 9 "A2-C4 Range"
      0 48 "C2 (Lowest Note)"
      0 72 "C4 (Highest Note)"
      0 115 "Solo Marker"
      0 126 "Glissando Marker"
      0 116 "Overdrive Marker"
      0 127 "Trill Marker"
      0 125 "----"
      0 114 "----"
      0 47 "----"
      0 49 "C#2"
      0 50 "D2"
      0 51 "Eb2"
      0 52 "E2"
      0 53 "F2"
      0 54 "F#2"
      0 55 "G2"
      0 56 "G#2"
      0 57 "A2"
      0 58 "Bb2"
      0 59 "B2"
      0 60 "C3"
      0 61 "C#3"
      0 62 "D3"
      0 63 "Eb3"
      0 64 "E3"
      0 65 "F3"
      0 66 "F#3"
      0 67 "G3"
      0 68 "G#3"
      0 69 "A3"
      0 70 "Bb3"
      0 71 "B3"
      0 2 "D2-F3 Range"
      0 4 "E2-G3 Range"
      0 7 "G2-B3 Range"
    >
    MAINSEND 1 0
    <FXCHAIN
      WNDRECT 0 40 655 493
      SHOW 0
      LASTSEL 1
      DOCKED 0
      BYPASS 0 0
      <JS "IX/MIDI_Tool II" ""
        0.000000 85.000000 127.000000 0.000000 0.000000 0.000000 100.000000 0.000000 0.000000 127.000000 0.000000 0.000000 1.000000 0.000000 0.000000 - - - - - - - - - - - - - - - - - - - - - - - - - - - - - - - - - - - - - - - - - - - - - - - - - 
      >
      FLOATPOS 0 0 0 0
      FXID {A891DAA7-5D8A-4720-AA8F-E43D2ABA2AE5}
      WAK 0
      BYPASS 0 0
      <VST "VSTi: ReaSynth (Cockos)" "reasynth.dll" 0 ""
        eXNlcu9e7f4AAAAAAgAAAAEAAAAAAAAAAgAAAAAAAAA4AAAAAAAAAA==
        AAAAAO++rd4N8K3eppvEOxe30TqcxKA+c2jRPgAAAADMm4A+6WeIPQ==
        AAAAAAAAAD8AAIA/6SaxPgAAAD8AAAAAAAA=
      >
      FLOATPOS 0 0 0 0
      FXID {A0CE5851-0C70-49E2-AD61-BC7B1C50A030}
      WAK 0
    >
    <ITEM
      POSITION 0.00000000000000
      SNAPOFFS 0.00000000000000
      LENGTH 141.61851340095805
      LOOP 0
      ALLTAKES 0
      SEL 0
      FADEIN 1 0.000000 0.000000 1 0
      FADEOUT 1 0.000000 0.000000 1 0
      MUTE 0
      IGUID {974100C2-06C4-4CB5-BD67-2F1BC71A1259}
      IID 15
      NAME "PART REAL_KEYS_X"
      VOLPAN 1.000000 0.000000 1.000000 -1.000000
      SOFFS 0.00000000000000 0.00000000000000
      PLAYRATE 1.00000000000000 1 0.00000000000000 -65536
      CHANMODE 0
      GUID {08703F3F-9741-46EB-9ED4-B09B2390F876}
      <SOURCE MIDI
        HASDATA 1 480 QN
        POOLEDEVTS {6E0C2114-62C0-471B-ADA9-EEF783751E45}
        <X 0 0
          /wNQQVJUIFJFQUxfS0VZU19Y
        >
        <X 3840 0
          /wFbcGxheV0=
        >
        E 176641 b0 7b 00
        GUID {0E0CBFB7-4AC8-4E67-A764-85891754BB41}
        IGNTEMPO 0 120.00000000 4 4
        SRCCOLOR 409
        VELLANE 132 128 60
        COLORMAP "C:\Program Files\REAPER\Data\color_maps\rockband_guitarbass.png"
        TEXTSTRINGFILE "C:\Program Files\REAPER\Data\Text_Strings\Text Events List.txt"
        CFGEDITVIEW -4299.275963 82.395269 48 12 0 0 0
        CFGEDIT 1 1 0 1 1 1 1 1 1 1 1 0.12500000 -8 -8 1370 736 1 0 1 2 0.00000000 0 0 0 0 0.500000 1 0 1.000000 64
        KEYSNAP 0 0 "102034050607" 0 "Major"
        EVTFILTER 0 -1 -1 -1 -1 0 1 0 0 -1.00000000 -1.00000000
      >
    >
  >
  <TRACK '{117931B6-9EA5-432A-AEED-ACF4C8876354}'
    NAME "PART REAL _KEYS_H"
    PEAKCOL 25231232
    BEAT -1
    AUTOMODE 0
    VOLPAN 1.00000843600341 0.00000000000000 -1.00000000000000 -1.00000000000000 1.00000000000000
    MUTESOLO 1 0 0
    IPHASE 0
    ISBUS 0 0
    BUSCOMP 0 0
    SHOWINMIX 1 0.666700 0.500000 1 0.500000 -1 -1 -1
    FREEMODE 0
    SEL 0
    REC 0 0 0 0 0 0 0
    TRACKHEIGHT 0 0
    INQ 0 0 0 0.5000000000 100 0 0 100
    NCHAN 2
    FX 1
    TRACKID {117931B6-9EA5-432A-AEED-ACF4C8876354}
    PERF 0
    MIDIOUT -1
    <MIDINOTENAMES
      0 0 "C2-E3 Range"
      0 5 "F2-A3 Range"
      0 9 "A2-C4 Range"
      0 48 "C2 (Lowest Note)"
      0 72 "C4 (Highest Note)"
      0 115 "Solo Marker"
      0 126 "Glissando Marker"
      0 127 "Trill Marker"
      0 125 "----"
      0 116 "Overdrive Marker"
      0 114 "----"
      0 71 "B3"
      0 70 "Bb3"
      0 69 "A3"
      0 68 "G#3"
      0 67 "G3"
      0 66 "F#3"
      0 65 "F3"
      0 64 "E3"
      0 63 "Eb3"
      0 62 "D3"
      0 61 "C#3"
      0 60 "C3"
      0 59 "B2"
      0 58 "Bb2"
      0 57 "A2"
      0 56 "G#2"
      0 55 "G2"
      0 54 "F#2"
      0 53 "F2"
      0 52 "E2"
      0 51 "Eb2"
      0 50 "D2"
      0 49 "C#2"
      0 47 "----"
      0 7 "G2-B3 Range"
      0 4 "E2-G3 Range"
      0 2 "D2-F3 Range"
    >
    MAINSEND 1 0
    <FXCHAIN
      SHOW 0
      LASTSEL 0
      DOCKED 0
      BYPASS 0 0
      <JS "IX/MIDI_Tool II" ""
        0.000000 85.000000 127.000000 0.000000 0.000000 0.000000 100.000000 0.000000 0.000000 127.000000 0.000000 0.000000 1.000000 0.000000 0.000000 - - - - - - - - - - - - - - - - - - - - - - - - - - - - - - - - - - - - - - - - - - - - - - - - - 
      >
      FLOATPOS 0 0 0 0
      FXID {5BF1E178-D070-4445-A488-4CE4E31F6508}
      WAK 0
      BYPASS 0 0
      <VST "VSTi: ReaSynth (Cockos)" "reasynth.dll" 0 ""
        eXNlcu9e7f4AAAAAAgAAAAEAAAAAAAAAAgAAAAAAAAA4AAAAAAAAAA==
        AAAAAO++rd4N8K3eppvEOxe30TqcxKA+c2jRPgAAAADMm4A+6WeIPQ==
        AAAAAAAAAD8AAIA/6SaxPgAAAD8AAAAAAAA=
      >
      FLOATPOS 0 0 0 0
      FXID {C48567E0-8372-4900-9933-4B040EA2A253}
      WAK 0
    >
    <ITEM
      POSITION 0.00000000000000
      SNAPOFFS 0.00000000000000
      LENGTH 141.61851340095805
      LOOP 0
      ALLTAKES 0
      SEL 0
      FADEIN 1 0.000000 0.000000 1 0
      FADEOUT 1 0.000000 0.000000 1 0
      MUTE 0
      IGUID {DA514BF3-AF34-46C0-BD23-58406C871A44}
      IID 16
      NAME "PART REAL _KEYS_H"
      VOLPAN 1.000000 0.000000 1.000000 -1.000000
      SOFFS 0.00000000000000 0.00000000000000
      PLAYRATE 1.00000000000000 1 0.00000000000000 -65536
      CHANMODE 0
      GUID {8E0AC36B-D538-4BB8-A507-FFF40527D1BA}
      <SOURCE MIDI
        HASDATA 1 480 QN
        POOLEDEVTS {E4FCC25C-EA6C-406A-A783-4A256B57070C}
        <X 0 0
          /wNQQVJUIFJFQUxfS0VZU19I
        >
        E 0 90 09 60
        E 480 80 09 00
        E 3360 90 39 60
        E 360 80 39 00
        E 176281 b0 7b 00
        GUID {53F487B1-1F2F-4D54-9DAE-BC2E7B032E3B}
        IGNTEMPO 0 120.00000000 4 4
        SRCCOLOR 410
        VELLANE 132 128 60
        COLORMAP "C:\Program Files\REAPER\Data\color_maps\rockband_guitarbass.png"
        TEXTSTRINGFILE "C:\Program Files\REAPER\Data\Text_Strings\Text Events List.txt"
        CFGEDITVIEW -4299.275963 82.395269 5 14 0 0 0
        CFGEDIT 1 1 0 1 1 1 1 1 1 1 1 0.12500000 -8 -8 1374 736 1 2 1 2 0.00000000 0 0 0 0 0.500000 1 0 1.000000 64
        KEYSNAP 0 0 "102034050607" 0 "Major"
        EVTFILTER 0 -1 -1 -1 -1 0 1 0 0 -1.00000000 -1.00000000
      >
    >
  >
  <TRACK '{3B6F726E-1CAB-4A00-9B01-2E1CC375B13E}'
    NAME "PART REAL_KEYS_M"
    PEAKCOL 25231232
    BEAT -1
    AUTOMODE 0
    VOLPAN 1.00000000000000 0.00000000000000 -1.00000000000000 -1.00000000000000 1.00000000000000
    MUTESOLO 1 0 0
    IPHASE 0
    ISBUS 0 0
    BUSCOMP 0 0
    SHOWINMIX 1 0.666700 0.500000 1 0.500000 -1 -1 -1
    FREEMODE 0
    SEL 0
    REC 0 0 0 0 0 0 0
    TRACKHEIGHT 0 0
    INQ 0 0 0 0.5000000000 100 0 0 100
    NCHAN 2
    FX 1
    TRACKID {3B6F726E-1CAB-4A00-9B01-2E1CC375B13E}
    PERF 0
    MIDIOUT -1
    <MIDINOTENAMES
      0 0 "C2-E3 Range"
      0 5 "F2-A3 Range"
      0 9 "A2-C4 Range"
      0 48 "C2 (Lowest Note)"
      0 72 "C4 (Highest Note)"
      0 115 "Solo Marker"
      0 126 "Glissando Marker"
      0 127 "Trill Marker"
      0 125 "----"
      0 116 "Overdrive Marker"
      0 114 "----"
      0 71 "B3"
      0 70 "Bb3"
      0 69 "A3"
      0 68 "G#3"
      0 67 "G3"
      0 66 "F#3"
      0 65 "F3"
      0 64 "E3"
      0 63 "Eb3"
      0 62 "D3"
      0 61 "C#3"
      0 60 "C3"
      0 59 "B2"
      0 58 "Bb2"
      0 57 "A2"
      0 56 "G#2"
      0 55 "G2"
      0 54 "F#2"
      0 53 "F2"
      0 52 "E2"
      0 51 "Eb2"
      0 50 "D2"
      0 49 "C#2"
      0 47 "----"
      0 7 "G2-B3 Range"
      0 4 "E2-G3 Range"
      0 2 "D2-F3 Range"
    >
    MAINSEND 1 0
    <FXCHAIN
      SHOW 0
      LASTSEL 0
      DOCKED 0
      BYPASS 0 0
      <JS "IX/MIDI_Tool II" ""
        0.000000 85.000000 127.000000 0.000000 0.000000 0.000000 100.000000 0.000000 0.000000 127.000000 0.000000 0.000000 1.000000 0.000000 0.000000 - - - - - - - - - - - - - - - - - - - - - - - - - - - - - - - - - - - - - - - - - - - - - - - - - 
      >
      FLOATPOS 0 0 0 0
      FXID {096BA8B0-BFAB-4802-A0D3-DEA88A16B5B2}
      WAK 0
      BYPASS 0 0
      <VST "VSTi: ReaSynth (Cockos)" "reasynth.dll" 0 ""
        eXNlcu9e7f4AAAAAAgAAAAEAAAAAAAAAAgAAAAAAAAA4AAAAAAAAAA==
        AAAAAO++rd4N8K3eppvEOxe30TqcxKA+c2jRPgAAAADMm4A+6WeIPQ==
        AAAAAAAAAD8AAIA/6SaxPgAAAD8AAAAAAAA=
      >
      FLOATPOS 0 0 0 0
      FXID {A5115AF9-13EF-41D8-80FF-CB81A74D6CD4}
      WAK 0
    >
    <ITEM
      POSITION 0.00000000000000
      SNAPOFFS 0.00000000000000
      LENGTH 141.61851340095805
      LOOP 0
      ALLTAKES 0
      SEL 0
      FADEIN 1 0.000000 0.000000 1 0
      FADEOUT 1 0.000000 0.000000 1 0
      MUTE 0
      IGUID {6F5DF5D5-958D-4566-AA6E-AFD27D997F3F}
      IID 17
      NAME "PART REAL_KEYS_M"
      VOLPAN 1.000000 0.000000 1.000000 -1.000000
      SOFFS 0.00000000000000 0.00000000000000
      PLAYRATE 1.00000000000000 1 0.00000000000000 -65536
      CHANMODE 0
      GUID {14BC6779-E32B-455D-A61C-C2E68D8FE08C}
      <SOURCE MIDI
        HASDATA 1 480 QN
        POOLEDEVTS {98D52DD8-874F-433F-858A-B23CA879C25C}
        <X 0 0
          /wNQQVJUIFJFQUxfS0VZU19N
        >
        e 0 90 09 60
        e 480 80 09 00
        e 3360 90 39 60
        e 360 80 39 00
        E 176281 b0 7b 00
        GUID {806139BE-556B-4882-A297-06705078FD7A}
        IGNTEMPO 0 120.00000000 4 4
        SRCCOLOR 411
        VELLANE 132 128 60
        COLORMAP "C:\Program Files\REAPER\Data\color_maps\rockband_guitarbass.png"
        TEXTSTRINGFILE "C:\Program Files\REAPER\Data\Text_Strings\Text Events List.txt"
        CFGEDITVIEW -4299.275963 82.395269 0 17 0 0 0
        CFGEDIT 1 1 0 1 1 1 1 1 1 1 1 0.12500000 -8 -8 1374 736 1 2 1 2 0.00000000 0 0 0 0 0.500000 1 0 1.000000 64
        KEYSNAP 0 0 "102034050607" 0 "Major"
        EVTFILTER 0 -1 -1 -1 -1 0 1 0 0 -1.00000000 -1.00000000
      >
    >
  >
  <TRACK '{49B8D0E0-0069-415C-8FC3-AC29B0E2C3CF}'
    NAME "PART REAL_KEYS_E"
    PEAKCOL 25231232
    BEAT -1
    AUTOMODE 0
    VOLPAN 1.00000000000000 0.00000000000000 -1.00000000000000 -1.00000000000000 1.00000000000000
    MUTESOLO 1 0 0
    IPHASE 0
    ISBUS 0 0
    BUSCOMP 0 0
    SHOWINMIX 1 0.666700 0.500000 1 0.500000 -1 -1 -1
    FREEMODE 0
    SEL 0
    REC 0 0 0 0 0 0 0
    TRACKHEIGHT 0 0
    INQ 0 0 0 0.5000000000 100 0 0 100
    NCHAN 2
    FX 1
    TRACKID {49B8D0E0-0069-415C-8FC3-AC29B0E2C3CF}
    PERF 0
    MIDIOUT -1
    <MIDINOTENAMES
      0 0 "C2-E3 Range"
      0 5 "F2-A3 Range"
      0 9 "A2-C4 Range"
      0 48 "C2 (Lowest Note)"
      0 72 "C4 (Highest Note)"
      0 115 "Solo Marker"
      0 126 "Glissando Marker"
      0 127 "Trill Marker"
      0 125 "----"
      0 116 "Overdrive Marker"
      0 114 "----"
      0 71 "B3"
      0 70 "Bb3"
      0 69 "A3"
      0 68 "G#3"
      0 67 "G3"
      0 66 "F#3"
      0 65 "F3"
      0 64 "E3"
      0 63 "Eb3"
      0 62 "D3"
      0 61 "C#3"
      0 60 "C3"
      0 59 "B2"
      0 58 "Bb2"
      0 57 "A2"
      0 56 "G#2"
      0 55 "G2"
      0 54 "F#2"
      0 53 "F2"
      0 52 "E2"
      0 51 "Eb2"
      0 50 "D2"
      0 49 "C#2"
      0 47 "----"
      0 7 "G2-B3 Range"
      0 4 "E2-G3 Range"
      0 2 "D2-F3 Range"
    >
    MAINSEND 1 0
    <FXCHAIN
      SHOW 0
      LASTSEL 0
      DOCKED 0
      BYPASS 0 0
      <JS "IX/MIDI_Tool II" ""
        0.000000 85.000000 127.000000 0.000000 0.000000 0.000000 100.000000 0.000000 0.000000 127.000000 0.000000 0.000000 1.000000 0.000000 0.000000 - - - - - - - - - - - - - - - - - - - - - - - - - - - - - - - - - - - - - - - - - - - - - - - - - 
      >
      FLOATPOS 0 0 0 0
      FXID {71EF04AA-9A38-4C4E-8E04-9FB37BDA6361}
      WAK 0
      BYPASS 0 0
      <VST "VSTi: ReaSynth (Cockos)" "reasynth.dll" 0 ""
        eXNlcu9e7f4AAAAAAgAAAAEAAAAAAAAAAgAAAAAAAAA4AAAAAAAAAA==
        AAAAAO++rd4N8K3eppvEOxe30TqcxKA+c2jRPgAAAADMm4A+6WeIPQ==
        AAAAAAAAAD8AAIA/6SaxPgAAAD8AAAAAAAA=
      >
      FLOATPOS 0 0 0 0
      FXID {6C388847-2A2F-4264-AA7A-4C4ACA9A9672}
      WAK 0
    >
    <ITEM
      POSITION 0.00000000000000
      SNAPOFFS 0.00000000000000
      LENGTH 141.61851340095805
      LOOP 0
      ALLTAKES 0
      SEL 0
      FADEIN 1 0.000000 0.000000 1 0
      FADEOUT 1 0.000000 0.000000 1 0
      MUTE 0
      IGUID {656317AD-B690-4307-9096-C4F4536C131B}
      IID 18
      NAME "PART REAL_KEYS_E"
      VOLPAN 1.000000 0.000000 1.000000 -1.000000
      SOFFS 0.00000000000000 0.00000000000000
      PLAYRATE 1.00000000000000 1 0.00000000000000 -65536
      CHANMODE 0
      GUID {43BDFFBF-75D6-4727-BD3F-08B25C56980C}
      <SOURCE MIDI
        HASDATA 1 480 QN
        POOLEDEVTS {F1913B54-60FA-4685-B614-1170229EA242}
        <X 0 0
          /wNQQVJUIFJFQUxfS0VZU19F
        >
        E 0 90 09 60
        E 480 80 09 00
        E 180001 b0 7b 00
        GUID {F9363449-15E8-4EF0-8BC0-ABEB4CDC1D98}
        IGNTEMPO 0 120.00000000 4 4
        SRCCOLOR 412
        VELLANE 132 128 60
        COLORMAP "C:\Program Files\REAPER\Data\color_maps\rockband_guitarbass.png"
        TEXTSTRINGFILE "C:\Program Files\REAPER\Data\Text_Strings\Text Events List.txt"
        CFGEDITVIEW 1257.930012 0.103438 51 12 0 0 0
        CFGEDIT 1 1 0 0 1 1 1 1 1 1 1 0.25000000 0 0 683 728 1 0 0 2 0.12500000 0 0 0 0 0.500000 0 0 1.000000 64
        KEYSNAP 0 0 "102034050607" 0 "Major"
        EVTFILTER 0 -1 -1 -1 -1 0 1 0 0 -1.00000000 -1.00000000
      >
    >
  >
  <TRACK '{80604035-2BD9-43BB-A255-4E5F9E756779}'
    NAME "PART KEYS_ANIM_RH"
    PEAKCOL 16842624
    BEAT -1
    AUTOMODE 0
    VOLPAN 1.00000000000000 0.00000000000000 -1.00000000000000 -1.00000000000000 1.00000000000000
    MUTESOLO 1 0 0
    IPHASE 0
    ISBUS 0 0
    BUSCOMP 0 0
    SHOWINMIX 1 0.666700 0.500000 1 0.500000 -1 -1 -1
    FREEMODE 0
    SEL 0
    REC 0 0 0 0 0 0 0
    TRACKHEIGHT 0 0
    INQ 0 0 0 0.5000000000 100 0 0 100
    NCHAN 2
    FX 1
    TRACKID {80604035-2BD9-43BB-A255-4E5F9E756779}
    PERF 0
    MIDIOUT -1
    <MIDINOTENAMES
      0 48 "C2 (Lowest Note)"
      0 72 "C4 (Highest Note)"
      0 127 "Trill Marker"
      0 126 "Glissando Marker"
      0 125 "----"
      0 116 "Overdrive Marker"
      0 115 "Solo Marker"
      0 114 "----"
      0 71 "B3"
      0 70 "Bb3"
      0 69 "A3"
      0 68 "G#3"
      0 67 "G3"
      0 66 "F#3"
      0 65 "F3"
      0 64 "E3"
      0 63 "Eb3"
      0 62 "D3"
      0 61 "C#3"
      0 60 "C3"
      0 59 "B2"
      0 58 "Bb2"
      0 57 "A2"
      0 56 "G#2"
      0 55 "G2"
      0 54 "F#2"
      0 53 "F2"
      0 52 "E2"
      0 51 "Eb2"
      0 50 "D2"
      0 49 "C#2"
      0 47 "----"
      0 9 "A2-C4 Range"
      0 5 "F2-A3 Range"
      0 0 "C2-E3 Range"
      0 7 "G2-B3 Range"
      0 4 "E2-G3 Range"
      0 2 "D2-F3 Range"
    >
    MAINSEND 1 0
    <FXCHAIN
      SHOW 0
      LASTSEL 0
      DOCKED 0
    >
    <ITEM
      POSITION 0.00000000000000
      SNAPOFFS 0.00000000000000
      LENGTH 141.61851340095805
      LOOP 0
      ALLTAKES 0
      SEL 0
      FADEIN 1 0.000000 0.000000 1 0
      FADEOUT 1 0.000000 0.000000 1 0
      MUTE 0
      IGUID {6A43A4E9-6390-4FBA-9F07-B2C821A1720C}
      IID 19
      NAME "PART KEYS_ANIM_RH"
      VOLPAN 1.000000 0.000000 1.000000 -1.000000
      SOFFS 0.00000000000000 0.00000000000000
      PLAYRATE 1.00000000000000 1 0.00000000000000 -65536
      CHANMODE 0
      GUID {FA5AE238-E1D7-41F5-A663-4C49E4376041}
      <SOURCE MIDI
        HASDATA 1 480 QN
        POOLEDEVTS {D9FA4836-A12E-4C1D-A330-99A2367809C8}
        <X 0 0
          /wNQQVJUIEtFWVNfQU5JTV9SSA==
        >
        E 180481 b0 7b 00
        GUID {268DE88D-9169-44F5-97A1-ABDA1E2CF031}
        IGNTEMPO 0 120.00000000 4 4
        SRCCOLOR 413
        VELLANE 132 128 60
        COLORMAP "C:\Program Files\REAPER\Data\color_maps\rockband_guitarbass.png"
        TEXTSTRINGFILE "C:\Program Files\REAPER\Data\Text_Strings\Text Events List.txt"
        CFGEDITVIEW 2612.554938 0.179136 51 12 0 0 0
        CFGEDIT 1 1 0 0 1 1 1 1 1 1 1 0.25000000 0 0 683 728 1 0 0 2 0.00000000 0 0 0 0 0.500000 0 0 1.000000 64
        KEYSNAP 0 0 "102034050607" 0 "Major"
        EVTFILTER 0 -1 -1 -1 -1 0 1 0 0 -1.00000000 -1.00000000
      >
    >
  >
  <TRACK '{F014911F-41F0-491C-9A25-C3D2A462D8D7}'
    NAME "PART KEYS_ANIM_LH"
    PEAKCOL 16842624
    BEAT -1
    AUTOMODE 0
    VOLPAN 1.00000000000000 0.00000000000000 -1.00000000000000 -1.00000000000000 1.00000000000000
    MUTESOLO 1 0 0
    IPHASE 0
    ISBUS 2 -1
    BUSCOMP 0 0
    SHOWINMIX 1 0.666700 0.500000 1 0.500000 -1 -1 -1
    FREEMODE 0
    SEL 0
    REC 0 0 0 0 0 0 0
    TRACKHEIGHT 0 0
    INQ 0 0 0 0.5000000000 100 0 0 100
    NCHAN 2
    FX 1
    TRACKID {F014911F-41F0-491C-9A25-C3D2A462D8D7}
    PERF 0
    MIDIOUT -1
    <MIDINOTENAMES
      0 48 "C2 (Lowest Note)"
      0 72 "C4 (Highest Note)"
      0 127 "Trill Marker"
      0 126 "Glissando Marker"
      0 125 "----"
      0 116 "Overdrive Marker"
      0 115 "Solo Marker"
      0 114 "----"
      0 71 "B3"
      0 70 "Bb3"
      0 69 "A3"
      0 68 "G#3"
      0 67 "G3"
      0 66 "F#3"
      0 65 "F3"
      0 64 "E3"
      0 63 "Eb3"
      0 62 "D3"
      0 61 "C#3"
      0 60 "C3"
      0 59 "B2"
      0 58 "Bb2"
      0 57 "A2"
      0 56 "G#2"
      0 55 "G2"
      0 54 "F#2"
      0 53 "F2"
      0 52 "E2"
      0 51 "Eb2"
      0 50 "D2"
      0 49 "C#2"
      0 47 "----"
      0 9 "A2-C4 Range"
      0 5 "F2-A3 Range"
      0 0 "C2-E3 Range"
      0 7 "G2-B3 Range"
      0 4 "E2-G3 Range"
      0 2 "D2-F3 Range"
    >
    MAINSEND 1 0
    <FXCHAIN
      SHOW 0
      LASTSEL 0
      DOCKED 0
    >
    <ITEM
      POSITION 0.00000000000000
      SNAPOFFS 0.00000000000000
      LENGTH 141.61851340095805
      LOOP 0
      ALLTAKES 0
      SEL 0
      FADEIN 1 0.000000 0.000000 1 0
      FADEOUT 1 0.000000 0.000000 1 0
      MUTE 0
      IGUID {F0F97A68-91AD-4B41-8D32-822B6159FDBC}
      IID 20
      NAME "PART KEYS_ANIM_LH"
      VOLPAN 1.000000 0.000000 1.000000 -1.000000
      SOFFS 0.00000000000000 0.00000000000000
      PLAYRATE 1.00000000000000 1 0.00000000000000 -65536
      CHANMODE 0
      GUID {214023C3-6BA4-450F-A73F-59780553B94C}
      <SOURCE MIDI
        HASDATA 1 480 QN
        POOLEDEVTS {B07FE0BF-A452-4945-9650-E8FFE917A113}
        <X 0 0
          /wNQQVJUIEtFWVNfQU5JTV9MSA==
        >
        E 180481 b0 7b 00
        GUID {9527D45A-14D5-4C89-A39E-3528B0F29941}
        IGNTEMPO 0 120.00000000 4 4
        SRCCOLOR 414
        VELLANE 132 128 60
        COLORMAP "C:\Program Files\REAPER\Data\color_maps\rockband_guitarbass.png"
        TEXTSTRINGFILE "C:\Program Files\REAPER\Data\Text_Strings\Text Events List.txt"
        CFGEDITVIEW -4299.275963 82.395269 11 17 0 0 0
        CFGEDIT 1 1 0 1 1 1 1 1 1 1 1 0.12500000 -8 -8 1374 736 1 2 1 2 0.00000000 0 0 0 0 0.500000 1 0 1.000000 64
        KEYSNAP 0 0 "102034050607" 0 "Major"
        EVTFILTER 0 -1 -1 -1 -1 0 1 0 0 -1.00000000 -1.00000000
      >
    >
  >
  <TRACK '{4BCC1CF3-63A3-43C4-A155-D3593AD88A10}'
    NAME "EVENTS"
    PEAKCOL 29393024
    BEAT -1
    AUTOMODE 0
    VOLPAN 1.00000000000000 0.09600000000000 -1.00000000000000 -1.00000000000000 1.00000000000000
    MUTESOLO 0 0 0
    IPHASE 0
    ISBUS 0 0
    BUSCOMP 0 0
    SHOWINMIX 1 0.666700 0.500000 1 0.500000 -1 -1 -1
    FREEMODE 0
    SEL 0
    REC 0 0 0 0 0 0 0
    TRACKHEIGHT 0 0
    INQ 0 0 0 0.5000000000 100 0 0 100
    NCHAN 2
    FX 1
    TRACKID {4BCC1CF3-63A3-43C4-A155-D3593AD88A10}
    PERF 0
    MIDIOUT -1
    MAINSEND 1 0
    <FXCHAIN
      SHOW 0
      LASTSEL 0
      DOCKED 0
    >
    <ITEM
      POSITION 0.00000000000000
      SNAPOFFS 0.00000000000000
      LENGTH 255.34390169155176
      LOOP 0
      ALLTAKES 0
      SEL 0
      FADEIN 1 0.000000 0.000000 1 0
      FADEOUT 1 0.000000 0.000000 1 0
      MUTE 0
      IGUID {86A06D27-867C-4398-9CE6-8F0526B3B594}
      IID 21
      NAME "EVENTS"
      VOLPAN 1.000000 0.000000 1.000000 -1.000000
      SOFFS 0.00000000000000 0.00000000000000
      PLAYRATE 1.00000000000000 1 0.00000000000000 -65536
      CHANMODE 0
      GUID {584C8192-4FF3-4E29-8138-2E6BD568B61A}
      <SOURCE MIDI
        HASDATA 1 480 QN
        POOLEDEVTS {8CFB5AE3-EE5E-4B4B-B0D4-07A43555B7AD}
        <X 0 0
          /wNFVkVOVFM=
        >
        <X 0 0
          /wFbY3Jvd2Rfbm9ybWFsXQ==
        >
        <X 0 0
          /wFbcHJjX2ludHJvXQ==
        >
        <X 3840 0
          /wFbbXVzaWNfc3RhcnRd
        >
        <X 0 0
          /wFbcHJjX2ludHJvXQ==
        >
        <X 9120 0
          /wFbcHJjX2JyaWRnZV8xXQ==
        >
        <X 18240 0
          /wFbcHJjX3ZlcnNlXzFhXQ==
        >
        <X 20640 0
          /wFbcHJjX3ZlcnNlXzFiXQ==
        >
        <X 21600 0
          /wFbcHJjX2JyaWRnZV8yXQ==
        >
        <X 19680 0
          /wFbcHJjX3ZlcnNlXzJd
        >
        <X 21120 0
          /wFbcHJjX2JyaWRnZV8zXQ==
        >
        <X 19680 0
          /wFbcHJjX2Nob3J1c18xYV0=
        >
        <X 15360 0
          /wFbcHJjX2Nob3J1c18xYl0=
        >
        <X 13440 0
          /wFbcHJjX2JyaWRnZV80XQ==
        >
        <X 22560 0
          /wFbcHJjX3ZlcnNlXzNhXQ==
        >
        <X 31200 0
          /wFbcHJjX3ZlcnNlXzRhXQ==
        >
        <X 20640 0
          /wFbcHJjX3ZlcnNlXzRiXQ==
        >
        <X 9600 0
          /wFbcHJjX291dHJvXQ==
        >
        <X 79200 0
          /wFbbXVzaWNfZW5kXQ==
        >
        <X 3360 0
          /wFbZW5kXQ==
        >
        E 480 b0 7b 00
        GUID {40AD7956-A22A-434A-8513-4D3792B9DF69}
        IGNTEMPO 0 120.00000000 4 4
        SRCCOLOR 415
        VELLANE 132 100 100
        COLORMAP "M:\RGS Documents\ColorMaps\rockband_vox-other.png"
        TEXTSTRINGFILE "Text Events List.txt"
        CFGEDITVIEW 90161.114252 264.019833 95 48 0 0 0
        CFGEDIT 1 1 0 0 0 1 1 1 1 1 1 1.00000000 44 63 1223 847 1 2 1 2 0.00000000 0 0 0 0 0.500000 1 0 1.000000 64
        KEYSNAP 0 0 "102034050607" 0 "Major"
        EVTFILTER 0 -1 -1 -1 -1 0 1 0 0 -1.00000000 -1.00000000
      >
    >
  >
  <TRACK '{1529008F-97D2-43EB-8634-7C5A7418AD90}'
    NAME "VENUE"
    PEAKCOL 16842496
    BEAT -1
    AUTOMODE 0
    VOLPAN 1.00000000000000 0.00000000000000 -1.00000000000000 -1.00000000000000 1.00000000000000
    MUTESOLO 0 0 0
    IPHASE 0
    ISBUS 0 0
    BUSCOMP 0 0
    SHOWINMIX 1 0.666700 0.500000 1 0.500000 -1 -1 -1
    FREEMODE 0
    SEL 0
    REC 0 0 0 0 0 0 0
    TRACKHEIGHT 0 0
    INQ 0 0 0 0.5000000000 100 0 0 100
    NCHAN 2
    FX 1
    TRACKID {1529008F-97D2-43EB-8634-7C5A7418AD90}
    PERF 0
    MIDIOUT -1
    <MIDINOTENAMES
      0 87 "Guitarist Sing Along"
      0 86 "Drummer Sing Along"
      0 85 "Bassist Sing Along"
      0 40 "Spotlight on Vocals"
      0 39 "Spotlight on Guitar"
      0 38 "Spotlight on Drums"
      0 37 "Spotlight on Bass"
      0 41 "Spotlight on Keys"
    >
    MAINSEND 1 0
    <FXCHAIN
      SHOW 0
      LASTSEL 0
      DOCKED 0
    >
    <ITEM
      POSITION 0.00000000000000
      SNAPOFFS 0.00000000000000
      LENGTH 255.34390169155176
      LOOP 0
      ALLTAKES 0
      SEL 0
      FADEIN 1 0.000000 0.000000 1 0
      FADEOUT 1 0.000000 0.000000 1 0
      MUTE 0
      IGUID {71027329-E0AB-447D-A192-4839733334E7}
      IID 22
      NAME "VENUE"
      VOLPAN 1.000000 0.000000 1.000000 -1.000000
      SOFFS 0.00000000000000 0.00000000000000
      PLAYRATE 1.00000000000000 1 0.00000000000000 -65536
      CHANMODE 0
      GUID {44F0FFD1-5109-4A47-8BED-262AA04D3B23}
      <SOURCE MIDI
        HASDATA 1 480 QN
        POOLEDEVTS {529668B4-1984-40B2-BED7-EAF56C4C3F6D}
        <X 0 0
          /wNWRU5VRQ==
        >
        <X 0 0
          /wFbbGlnaHRpbmcgKCld
        >
        E 12960 90 26 60
        E 13980 80 26 00
        E 4860 90 28 60
        E 15540 90 55 60
        E 0 90 56 60
        E 0 90 57 60
        E 4440 80 55 00
        E 0 80 56 00
        E 0 80 57 00
        E 15420 80 28 00
        E 540 90 55 60
        E 0 90 56 60
        E 0 90 57 60
        E 4500 80 55 00
        E 0 80 56 00
        E 0 80 57 00
        E 36780 90 55 60
        E 0 90 56 60
        E 0 90 57 60
        E 4080 80 55 00
        E 0 80 56 00
        E 0 80 57 00
        E 21000 90 55 60
        E 0 90 56 60
        E 0 90 57 60
        E 12960 80 55 00
        E 0 80 56 00
        E 0 80 57 00
        E 2580 90 55 60
        E 0 90 56 60
        E 0 90 57 60
        E 12720 80 55 00
        E 0 80 56 00
        E 0 80 57 00
        E 38880 90 55 60
        E 0 90 56 60
        E 0 90 57 60
        E 3960 80 55 00
        E 0 80 56 00
        E 0 80 57 00
        E 11760 90 55 60
        E 0 90 56 60
        E 0 90 57 60
        E 9480 80 55 00
        E 0 80 56 00
        E 0 80 57 00
        E 10920 90 55 60
        E 0 90 56 60
        E 0 90 57 60
        E 9480 80 55 00
        E 0 80 56 00
        E 0 80 57 00
        E 82920 b0 7b 00
        GUID {30097062-47C5-4B33-B665-170EF09D70D9}
        IGNTEMPO 0 120.00000000 4 4
        SRCCOLOR 416
        VELLANE 132 230 230
        COLORMAP "M:\RGS Documents\ColorMaps\rockband_vox-other.png"
        TEXTSTRINGFILE "Text Events List.txt"
        CFGEDITVIEW 55274.697808 133.259525 67 12 0 0 0
        CFGEDIT 1 1 0 0 1 1 1 1 1 1 1 0.12500000 133 19 1300 803 1 0 1 2 0.00000000 0 0 0 0 0.500000 1 0 1.000000 64
        KEYSNAP 0 0 "102034050607" 0 "Major"
        EVTFILTER 0 -1 -1 -1 -1 0 1 0 0 -1.00000000 -1.00000000
      >
    >
  >
  <TRACK '{7BC63EFC-0ABC-4D0D-8204-E9893AE9FFFA}'
    NAME "BEAT"
    PEAKCOL 23514346
    BEAT -1
    AUTOMODE 0
    VOLPAN 1.00000000000000 0.00000000000000 -1.00000000000000 -1.00000000000000 1.00000000000000
    MUTESOLO 0 0 0
    IPHASE 0
    ISBUS 0 0
    BUSCOMP 1 0
    SHOWINMIX 1 0.666700 0.500000 1 0.500000 -1 -1 -1
    FREEMODE 0
    SEL 0
    REC 0 0 0 0 0 0 0
    TRACKHEIGHT 0 0
    INQ 0 0 0 0.5000000000 100 0 0 100
    NCHAN 2
    FX 1
    TRACKID {7BC63EFC-0ABC-4D0D-8204-E9893AE9FFFA}
    PERF 0
    MIDIOUT -1
    <MIDINOTENAMES
      0 12 "Downbeat"
      0 13 "Up Beats"
    >
    MAINSEND 1 0
    <FXCHAIN
      SHOW 0
      LASTSEL 0
      DOCKED 0
    >
    <ITEM
      POSITION 0.00000000000000
      SNAPOFFS 0.00000000000000
      LENGTH 255.43327977616022
      LOOP 0
      ALLTAKES 0
      SEL 0
      FADEIN 1 0.000000 0.000000 1 0
      FADEOUT 1 0.000000 0.000000 1 0
      MUTE 0
      IGUID {9960CDFD-BF2E-4E67-97CD-4F13D0A3F2ED}
      IID 23
      NAME "BEAT"
      VOLPAN 1.000000 0.000000 1.000000 -1.000000
      SOFFS 0.00000000000000 0.00000000000000
      PLAYRATE 1.00000000000000 1 0.00000000000000 -65536
      CHANMODE 0
      GUID {CEBFDCF1-B2BD-47E1-A085-C26E1C9E9ED2}
      <SOURCE MIDI
        HASDATA 1 480 QN
        POOLEDEVTS {D0B9CDFA-5A5E-4E6A-AD60-73FEA500C829}
        <X 0 0
          /wNCRUFU
        >
        e 0 96 0c 64
        e 120 86 0c 00
        e 360 96 0d 64
        e 120 86 0d 00
        e 360 96 0d 64
        e 120 86 0d 00
        e 360 96 0d 64
        e 120 86 0d 00
        e 360 96 0c 64
        e 120 86 0c 00
        e 360 96 0d 64
        e 120 86 0d 00
        e 360 96 0d 64
        e 120 86 0d 00
        e 360 96 0d 64
        e 120 86 0d 00
        e 360 96 0c 64
        e 120 86 0c 00
        e 360 96 0d 64
        e 120 86 0d 00
        e 360 96 0d 64
        e 120 86 0d 00
        e 360 96 0d 64
        e 120 86 0d 00
        e 360 96 0c 64
        e 120 86 0c 00
        e 360 96 0d 64
        e 120 86 0d 00
        e 360 96 0d 64
        e 120 86 0d 00
        e 360 96 0d 64
        e 120 86 0d 00
        e 360 96 0c 64
        e 120 86 0c 00
        e 360 96 0d 64
        e 120 86 0d 00
        e 360 96 0d 64
        e 120 86 0d 00
        e 360 96 0d 64
        e 120 86 0d 00
        e 360 96 0c 64
        e 120 86 0c 00
        e 360 96 0d 64
        e 120 86 0d 00
        e 360 96 0d 64
        e 120 86 0d 00
        e 360 96 0d 64
        e 120 86 0d 00
        e 360 96 0c 64
        e 120 86 0c 00
        e 360 96 0d 64
        e 120 86 0d 00
        e 360 96 0d 64
        e 120 86 0d 00
        e 360 96 0d 64
        e 120 86 0d 00
        e 360 96 0c 64
        e 120 86 0c 00
        e 360 96 0d 64
        e 120 86 0d 00
        e 360 96 0d 64
        e 120 86 0d 00
        e 360 96 0d 64
        e 120 86 0d 00
        e 360 96 0c 64
        e 120 86 0c 00
        e 360 96 0d 64
        e 120 86 0d 00
        e 360 96 0d 64
        e 120 86 0d 00
        e 360 96 0d 64
        e 120 86 0d 00
        e 360 96 0c 64
        e 120 86 0c 00
        e 360 96 0d 64
        e 120 86 0d 00
        e 360 96 0d 64
        e 120 86 0d 00
        e 360 96 0d 64
        e 120 86 0d 00
        e 360 96 0c 64
        e 120 86 0c 00
        e 360 96 0d 64
        e 120 86 0d 00
        e 360 96 0d 64
        e 120 86 0d 00
        e 360 96 0d 64
        e 120 86 0d 00
        e 360 96 0c 64
        e 120 86 0c 00
        e 360 96 0d 64
        e 120 86 0d 00
        e 360 96 0d 64
        e 120 86 0d 00
        e 360 96 0d 64
        e 120 86 0d 00
        e 360 96 0c 64
        e 120 86 0c 00
        e 360 96 0d 64
        e 120 86 0d 00
        e 360 96 0d 64
        e 120 86 0d 00
        e 360 96 0d 64
        e 120 86 0d 00
        e 360 96 0c 64
        e 120 86 0c 00
        e 360 96 0d 64
        e 120 86 0d 00
        e 360 96 0d 64
        e 120 86 0d 00
        e 360 96 0d 64
        e 120 86 0d 00
        e 360 96 0c 64
        e 120 86 0c 00
        e 360 96 0d 64
        e 120 86 0d 00
        e 360 96 0d 64
        e 120 86 0d 00
        e 360 96 0d 64
        e 120 86 0d 00
        e 360 96 0c 64
        e 120 86 0c 00
        e 360 96 0d 64
        e 120 86 0d 00
        e 360 96 0d 64
        e 120 86 0d 00
        e 360 96 0d 64
        e 120 86 0d 00
        e 360 96 0c 64
        e 120 86 0c 00
        e 360 96 0d 64
        e 120 86 0d 00
        e 360 96 0d 64
        e 120 86 0d 00
        e 360 96 0d 64
        e 120 86 0d 00
        e 360 96 0c 64
        e 120 86 0c 00
        e 360 96 0d 64
        e 120 86 0d 00
        e 360 96 0d 64
        e 120 86 0d 00
        e 360 96 0d 64
        e 120 86 0d 00
        e 360 96 0c 64
        e 120 86 0c 00
        e 360 96 0d 64
        e 120 86 0d 00
        e 360 96 0d 64
        e 120 86 0d 00
        e 360 96 0d 64
        e 120 86 0d 00
        e 360 96 0c 64
        e 120 86 0c 00
        e 360 96 0d 64
        e 120 86 0d 00
        e 360 96 0d 64
        e 120 86 0d 00
        e 360 96 0d 64
        e 120 86 0d 00
        e 360 96 0c 64
        e 120 86 0c 00
        e 360 96 0d 64
        e 120 86 0d 00
        e 360 96 0d 64
        e 120 86 0d 00
        e 360 96 0d 64
        e 120 86 0d 00
        e 360 96 0c 64
        e 120 86 0c 00
        e 360 96 0d 64
        e 120 86 0d 00
        e 360 96 0d 64
        e 120 86 0d 00
        e 360 96 0d 64
        e 120 86 0d 00
        e 360 96 0c 64
        e 120 86 0c 00
        e 360 96 0d 64
        e 120 86 0d 00
        e 360 96 0d 64
        e 120 86 0d 00
        e 360 96 0d 64
        e 120 86 0d 00
        e 360 96 0c 64
        e 120 86 0c 00
        e 360 96 0d 64
        e 120 86 0d 00
        e 360 96 0d 64
        e 120 86 0d 00
        e 360 96 0d 64
        e 120 86 0d 00
        e 360 96 0c 64
        e 120 86 0c 00
        e 360 96 0d 64
        e 120 86 0d 00
        e 360 96 0d 64
        e 120 86 0d 00
        e 360 96 0d 64
        e 120 86 0d 00
        e 360 96 0c 64
        e 120 86 0c 00
        e 360 96 0d 64
        e 120 86 0d 00
        e 360 96 0d 64
        e 120 86 0d 00
        e 360 96 0d 64
        e 120 86 0d 00
        e 360 96 0c 64
        e 120 86 0c 00
        e 360 96 0d 64
        e 120 86 0d 00
        e 360 96 0d 64
        e 120 86 0d 00
        e 360 96 0d 64
        e 120 86 0d 00
        e 360 96 0c 64
        e 120 86 0c 00
        e 360 96 0d 64
        e 120 86 0d 00
        e 360 96 0d 64
        e 120 86 0d 00
        e 360 96 0d 64
        e 120 86 0d 00
        e 360 96 0c 64
        e 120 86 0c 00
        e 360 96 0d 64
        e 120 86 0d 00
        e 360 96 0d 64
        e 120 86 0d 00
        e 360 96 0d 64
        e 120 86 0d 00
        e 360 96 0c 64
        e 120 86 0c 00
        e 360 96 0d 64
        e 120 86 0d 00
        e 360 96 0d 64
        e 120 86 0d 00
        e 360 96 0d 64
        e 120 86 0d 00
        e 360 96 0c 64
        e 120 86 0c 00
        e 360 96 0d 64
        e 120 86 0d 00
        e 360 96 0d 64
        e 120 86 0d 00
        e 360 96 0d 64
        e 120 86 0d 00
        e 360 96 0c 64
        e 120 86 0c 00
        e 360 96 0d 64
        e 120 86 0d 00
        e 360 96 0d 64
        e 120 86 0d 00
        e 360 96 0d 64
        e 120 86 0d 00
        e 360 96 0c 64
        e 120 86 0c 00
        e 360 96 0d 64
        e 120 86 0d 00
        e 360 96 0d 64
        e 120 86 0d 00
        e 360 96 0d 64
        e 120 86 0d 00
        e 360 96 0c 64
        e 120 86 0c 00
        e 360 96 0d 64
        e 120 86 0d 00
        e 360 96 0d 64
        e 120 86 0d 00
        e 360 96 0d 64
        e 120 86 0d 00
        e 360 96 0c 64
        e 120 86 0c 00
        e 360 96 0d 64
        e 120 86 0d 00
        e 360 96 0d 64
        e 120 86 0d 00
        e 360 96 0d 64
        e 120 86 0d 00
        e 360 96 0c 64
        e 120 86 0c 00
        e 360 96 0d 64
        e 120 86 0d 00
        e 360 96 0d 64
        e 120 86 0d 00
        e 360 96 0d 64
        e 120 86 0d 00
        e 360 96 0c 64
        e 120 86 0c 00
        e 360 96 0d 64
        e 120 86 0d 00
        e 360 96 0d 64
        e 120 86 0d 00
        e 360 96 0d 64
        e 120 86 0d 00
        e 360 96 0c 64
        e 120 86 0c 00
        e 360 96 0d 64
        e 120 86 0d 00
        e 360 96 0d 64
        e 120 86 0d 00
        e 360 96 0d 64
        e 120 86 0d 00
        e 360 96 0c 64
        e 120 86 0c 00
        e 360 96 0d 64
        e 120 86 0d 00
        e 360 96 0d 64
        e 120 86 0d 00
        e 360 96 0d 64
        e 120 86 0d 00
        e 360 96 0c 64
        e 120 86 0c 00
        e 360 96 0d 64
        e 120 86 0d 00
        e 360 96 0d 64
        e 120 86 0d 00
        e 360 96 0d 64
        e 120 86 0d 00
        e 360 96 0c 64
        e 120 86 0c 00
        e 360 96 0d 64
        e 120 86 0d 00
        e 360 96 0d 64
        e 120 86 0d 00
        e 360 96 0d 64
        e 120 86 0d 00
        e 360 96 0c 64
        e 120 86 0c 00
        e 360 96 0d 64
        e 120 86 0d 00
        e 360 96 0d 64
        e 120 86 0d 00
        e 360 96 0d 64
        e 120 86 0d 00
        e 360 96 0c 64
        e 120 86 0c 00
        e 360 96 0d 64
        e 120 86 0d 00
        e 360 96 0d 64
        e 120 86 0d 00
        e 360 96 0d 64
        e 120 86 0d 00
        e 360 96 0c 64
        e 120 86 0c 00
        e 360 96 0d 64
        e 120 86 0d 00
        e 360 96 0d 64
        e 120 86 0d 00
        e 360 96 0d 64
        e 120 86 0d 00
        e 360 96 0c 64
        e 120 86 0c 00
        e 360 96 0d 64
        e 120 86 0d 00
        e 360 96 0d 64
        e 120 86 0d 00
        e 360 96 0d 64
        e 120 86 0d 00
        e 360 96 0c 64
        e 120 86 0c 00
        e 360 96 0d 64
        e 120 86 0d 00
        e 360 96 0d 64
        e 120 86 0d 00
        e 360 96 0d 64
        e 120 86 0d 00
        e 360 96 0c 64
        e 120 86 0c 00
        e 360 96 0d 64
        e 120 86 0d 00
        e 360 96 0d 64
        e 120 86 0d 00
        e 360 96 0d 64
        e 120 86 0d 00
        e 360 96 0c 64
        e 120 86 0c 00
        e 360 96 0d 64
        e 120 86 0d 00
        e 360 96 0d 64
        e 120 86 0d 00
        e 360 96 0d 64
        e 120 86 0d 00
        e 360 96 0c 64
        e 120 86 0c 00
        e 360 96 0d 64
        e 120 86 0d 00
        e 360 96 0d 64
        e 120 86 0d 00
        e 360 96 0d 64
        e 120 86 0d 00
        e 360 96 0c 64
        e 120 86 0c 00
        e 360 96 0d 64
        e 120 86 0d 00
        e 360 96 0d 64
        e 120 86 0d 00
        e 360 96 0d 64
        e 120 86 0d 00
        e 360 96 0c 64
        e 120 86 0c 00
        e 360 96 0d 64
        e 120 86 0d 00
        e 360 96 0d 64
        e 120 86 0d 00
        e 360 96 0d 64
        e 120 86 0d 00
        e 360 96 0c 64
        e 120 86 0c 00
        e 360 96 0d 64
        e 120 86 0d 00
        e 360 96 0d 64
        e 120 86 0d 00
        e 360 96 0d 64
        e 120 86 0d 00
        e 360 96 0c 64
        e 120 86 0c 00
        e 360 96 0d 64
        e 120 86 0d 00
        e 360 96 0d 64
        e 120 86 0d 00
        e 360 96 0d 64
        e 120 86 0d 00
        e 360 96 0c 64
        e 120 86 0c 00
        e 360 96 0d 64
        e 120 86 0d 00
        e 360 96 0d 64
        e 120 86 0d 00
        e 360 96 0d 64
        e 120 86 0d 00
        e 360 96 0c 64
        e 120 86 0c 00
        e 360 96 0d 64
        e 120 86 0d 00
        e 360 96 0d 64
        e 120 86 0d 00
        e 360 96 0d 64
        e 120 86 0d 00
        e 360 96 0c 64
        e 120 86 0c 00
        e 360 96 0d 64
        e 120 86 0d 00
        e 360 96 0d 64
        e 120 86 0d 00
        e 360 96 0d 64
        e 120 86 0d 00
        e 360 96 0c 64
        e 120 86 0c 00
        e 360 96 0d 64
        e 120 86 0d 00
        e 360 96 0d 64
        e 120 86 0d 00
        e 360 96 0d 64
        e 120 86 0d 00
        e 360 96 0c 64
        e 120 86 0c 00
        e 360 96 0d 64
        e 120 86 0d 00
        e 360 96 0d 64
        e 120 86 0d 00
        e 360 96 0d 64
        e 120 86 0d 00
        e 360 96 0c 64
        e 120 86 0c 00
        e 360 96 0d 64
        e 120 86 0d 00
        e 360 96 0d 64
        e 120 86 0d 00
        e 360 96 0d 64
        e 120 86 0d 00
        e 360 96 0c 64
        e 120 86 0c 00
        e 360 96 0d 64
        e 120 86 0d 00
        e 360 96 0d 64
        e 120 86 0d 00
        e 360 96 0d 64
        e 120 86 0d 00
        e 360 96 0c 64
        e 120 86 0c 00
        e 360 96 0d 64
        e 120 86 0d 00
        e 360 96 0d 64
        e 120 86 0d 00
        e 360 96 0d 64
        e 120 86 0d 00
        e 360 96 0c 64
        e 120 86 0c 00
        e 360 96 0d 64
        e 120 86 0d 00
        e 360 96 0d 64
        e 120 86 0d 00
        e 360 96 0d 64
        e 120 86 0d 00
        e 360 96 0c 64
        e 120 86 0c 00
        e 360 96 0d 64
        e 120 86 0d 00
        e 360 96 0d 64
        e 120 86 0d 00
        e 360 96 0d 64
        e 120 86 0d 00
        e 360 96 0c 64
        e 120 86 0c 00
        e 360 96 0d 64
        e 120 86 0d 00
        e 360 96 0d 64
        e 120 86 0d 00
        e 360 96 0d 64
        e 120 86 0d 00
        e 360 96 0c 64
        e 120 86 0c 00
        e 360 96 0d 64
        e 120 86 0d 00
        e 360 96 0d 64
        e 120 86 0d 00
        e 360 96 0d 64
        e 120 86 0d 00
        e 360 96 0c 64
        e 120 86 0c 00
        e 360 96 0d 64
        e 120 86 0d 00
        e 360 96 0d 64
        e 120 86 0d 00
        e 360 96 0d 64
        e 120 86 0d 00
        e 360 96 0c 64
        e 120 86 0c 00
        e 360 96 0d 64
        e 120 86 0d 00
        e 360 96 0d 64
        e 120 86 0d 00
        e 360 96 0d 64
        e 120 86 0d 00
        e 360 96 0c 64
        e 120 86 0c 00
        e 360 96 0d 64
        e 120 86 0d 00
        e 360 96 0d 64
        e 120 86 0d 00
        e 360 96 0d 64
        e 120 86 0d 00
        e 360 96 0c 64
        e 120 86 0c 00
        e 360 96 0d 64
        e 120 86 0d 00
        e 360 96 0d 64
        e 120 86 0d 00
        e 360 96 0d 64
        e 120 86 0d 00
        e 360 96 0c 64
        e 120 86 0c 00
        e 360 96 0d 64
        e 120 86 0d 00
        e 360 96 0d 64
        e 120 86 0d 00
        e 360 96 0d 64
        e 120 86 0d 00
        e 360 96 0c 64
        e 120 86 0c 00
        e 360 96 0d 64
        e 120 86 0d 00
        e 360 96 0d 64
        e 120 86 0d 00
        e 360 96 0d 64
        e 120 86 0d 00
        e 360 96 0c 64
        e 120 86 0c 00
        e 360 96 0d 64
        e 120 86 0d 00
        e 360 96 0d 64
        e 120 86 0d 00
        e 360 96 0d 64
        e 120 86 0d 00
        e 360 96 0c 64
        e 120 86 0c 00
        e 360 96 0d 64
        e 120 86 0d 00
        e 360 96 0d 64
        e 120 86 0d 00
        e 360 96 0d 64
        e 120 86 0d 00
        e 360 96 0c 64
        e 120 86 0c 00
        e 360 96 0d 64
        e 120 86 0d 00
        e 360 96 0d 64
        e 120 86 0d 00
        e 360 96 0d 64
        e 120 86 0d 00
        e 360 96 0c 64
        e 120 86 0c 00
        e 360 96 0d 64
        e 120 86 0d 00
        e 360 96 0d 64
        e 120 86 0d 00
        e 360 96 0d 64
        e 120 86 0d 00
        e 360 96 0c 64
        e 120 86 0c 00
        e 360 96 0d 64
        e 120 86 0d 00
        e 360 96 0d 64
        e 120 86 0d 00
        e 360 96 0d 64
        e 120 86 0d 00
        e 360 96 0c 64
        e 120 86 0c 00
        e 360 96 0d 64
        e 120 86 0d 00
        e 360 96 0d 64
        e 120 86 0d 00
        e 360 96 0d 64
        e 120 86 0d 00
        e 360 96 0c 64
        e 120 86 0c 00
        e 360 96 0d 64
        e 120 86 0d 00
        e 360 96 0d 64
        e 120 86 0d 00
        e 360 96 0d 64
        e 120 86 0d 00
        e 360 96 0c 64
        e 120 86 0c 00
        e 360 96 0d 64
        e 120 86 0d 00
        e 360 96 0d 64
        e 120 86 0d 00
        e 360 96 0d 64
        e 120 86 0d 00
        e 360 96 0c 64
        e 120 86 0c 00
        e 360 96 0d 64
        e 120 86 0d 00
        e 360 96 0d 64
        e 120 86 0d 00
        e 360 96 0d 64
        e 120 86 0d 00
        e 360 96 0c 64
        e 120 86 0c 00
        e 360 96 0d 64
        e 120 86 0d 00
        e 360 96 0d 64
        e 120 86 0d 00
        e 360 96 0d 64
        e 120 86 0d 00
        e 360 96 0c 64
        e 120 86 0c 00
        e 360 96 0d 64
        e 120 86 0d 00
        e 360 96 0d 64
        e 120 86 0d 00
        e 360 96 0d 64
        e 120 86 0d 00
        e 360 96 0c 64
        e 120 86 0c 00
        e 360 96 0d 64
        e 120 86 0d 00
        e 360 96 0d 64
        e 120 86 0d 00
        e 360 96 0d 64
        e 120 86 0d 00
        e 360 96 0c 64
        e 120 86 0c 00
        e 360 96 0d 64
        e 120 86 0d 00
        e 360 96 0d 64
        e 120 86 0d 00
        e 360 96 0d 64
        e 120 86 0d 00
        e 360 96 0c 64
        e 120 86 0c 00
        e 360 96 0d 64
        e 120 86 0d 00
        e 360 96 0d 64
        e 120 86 0d 00
        e 360 96 0d 64
        e 120 86 0d 00
        e 360 96 0c 64
        e 120 86 0c 00
        e 360 96 0d 64
        e 120 86 0d 00
        e 360 96 0d 64
        e 120 86 0d 00
        e 360 96 0d 64
        e 120 86 0d 00
        e 360 96 0c 64
        e 120 86 0c 00
        e 360 96 0d 64
        e 120 86 0d 00
        e 360 96 0d 64
        e 120 86 0d 00
        e 360 96 0d 64
        e 120 86 0d 00
        e 360 96 0c 64
        e 120 86 0c 00
        e 360 96 0d 64
        e 120 86 0d 00
        e 360 96 0d 64
        e 120 86 0d 00
        e 360 96 0d 64
        e 120 86 0d 00
        e 360 96 0c 64
        e 120 86 0c 00
        e 360 96 0d 64
        e 120 86 0d 00
        e 360 96 0d 64
        e 120 86 0d 00
        e 360 96 0d 64
        e 120 86 0d 00
        e 360 96 0c 64
        e 120 86 0c 00
        e 360 96 0d 64
        e 120 86 0d 00
        e 360 96 0d 64
        e 120 86 0d 00
        e 360 96 0d 64
        e 120 86 0d 00
        e 360 96 0c 64
        e 120 86 0c 00
        e 360 96 0d 64
        e 120 86 0d 00
        e 360 96 0d 64
        e 120 86 0d 00
        e 360 96 0d 64
        e 120 86 0d 00
        e 360 96 0c 64
        e 120 86 0c 00
        e 360 96 0d 64
        e 120 86 0d 00
        e 360 96 0d 64
        e 120 86 0d 00
        e 360 96 0d 64
        e 120 86 0d 00
        e 360 96 0c 64
        e 120 86 0c 00
        e 360 96 0d 64
        e 120 86 0d 00
        e 360 96 0d 64
        e 120 86 0d 00
        e 360 96 0d 64
        e 120 86 0d 00
        e 360 96 0c 64
        e 120 86 0c 00
        e 360 96 0d 64
        e 120 86 0d 00
        e 360 96 0d 64
        e 120 86 0d 00
        e 360 96 0d 64
        e 120 86 0d 00
        e 360 96 0c 64
        e 120 86 0c 00
        e 360 96 0d 64
        e 120 86 0d 00
        e 360 96 0d 64
        e 120 86 0d 00
        e 360 96 0d 64
        e 120 86 0d 00
        e 360 96 0c 64
        e 120 86 0c 00
        e 360 96 0d 64
        e 120 86 0d 00
        e 360 96 0d 64
        e 120 86 0d 00
        e 360 96 0d 64
        e 120 86 0d 00
        e 360 96 0c 64
        e 120 86 0c 00
        e 360 96 0d 64
        e 120 86 0d 00
        e 360 96 0d 64
        e 120 86 0d 00
        e 360 96 0d 64
        e 120 86 0d 00
        e 360 96 0c 64
        e 120 86 0c 00
        e 360 96 0d 64
        e 120 86 0d 00
        e 360 96 0d 64
        e 120 86 0d 00
        e 360 96 0d 64
        e 120 86 0d 00
        e 360 96 0c 64
        e 120 86 0c 00
        e 360 96 0d 64
        e 120 86 0d 00
        e 360 96 0d 64
        e 120 86 0d 00
        e 360 96 0d 64
        e 120 86 0d 00
        e 360 96 0c 64
        e 120 86 0c 00
        e 360 96 0d 64
        e 120 86 0d 00
        e 360 96 0d 64
        e 120 86 0d 00
        e 360 96 0d 64
        e 120 86 0d 00
        e 360 96 0c 64
        e 120 86 0c 00
        e 360 96 0d 64
        e 120 86 0d 00
        e 360 96 0d 64
        e 120 86 0d 00
        e 360 96 0d 64
        e 120 86 0d 00
        e 360 96 0c 64
        e 120 86 0c 00
        e 360 96 0d 64
        e 120 86 0d 00
        e 360 96 0d 64
        e 120 86 0d 00
        e 360 96 0d 64
        e 120 86 0d 00
        e 360 96 0c 64
        e 120 86 0c 00
        e 360 96 0d 64
        e 120 86 0d 00
        e 360 96 0d 64
        e 120 86 0d 00
        e 360 96 0d 64
        e 120 86 0d 00
        e 360 96 0c 64
        e 120 86 0c 00
        e 360 96 0d 64
        e 120 86 0d 00
        e 360 96 0d 64
        e 120 86 0d 00
        e 360 96 0d 64
        e 120 86 0d 00
        e 360 96 0c 64
        e 120 86 0c 00
        e 360 96 0d 64
        e 120 86 0d 00
        e 360 96 0d 64
        e 120 86 0d 00
        e 360 96 0d 64
        e 120 86 0d 00
        e 360 96 0c 64
        e 120 86 0c 00
        e 360 96 0d 64
        e 120 86 0d 00
        e 360 96 0d 64
        e 120 86 0d 00
        e 360 96 0d 64
        e 120 86 0d 00
        e 360 96 0c 64
        e 120 86 0c 00
        e 360 96 0d 64
        e 120 86 0d 00
        e 360 96 0d 64
        e 120 86 0d 00
        e 360 96 0d 64
        e 120 86 0d 00
        e 360 96 0c 64
        e 120 86 0c 00
        e 360 96 0d 64
        e 120 86 0d 00
        e 360 96 0d 64
        e 120 86 0d 00
        e 360 96 0d 64
        e 120 86 0d 00
        e 360 96 0c 64
        e 120 86 0c 00
        e 360 96 0d 64
        e 120 86 0d 00
        e 360 96 0d 64
        e 120 86 0d 00
        e 360 96 0d 64
        e 120 86 0d 00
        e 360 96 0c 64
        e 120 86 0c 00
        e 360 96 0d 64
        e 120 86 0d 00
        e 360 96 0d 64
        e 120 86 0d 00
        e 360 96 0d 64
        e 120 86 0d 00
        e 360 96 0c 64
        e 120 86 0c 00
        e 360 96 0d 64
        e 120 86 0d 00
        e 360 96 0d 64
        e 120 86 0d 00
        e 360 96 0d 64
        e 120 86 0d 00
        e 360 96 0c 64
        e 120 86 0c 00
        e 360 96 0d 64
        e 120 86 0d 00
        e 360 96 0d 64
        e 120 86 0d 00
        e 360 96 0d 64
        e 120 86 0d 00
        e 360 96 0c 64
        e 120 86 0c 00
        e 360 96 0d 64
        e 120 86 0d 00
        e 360 96 0d 64
        e 120 86 0d 00
        e 360 96 0d 64
        e 120 86 0d 00
        e 360 96 0c 64
        e 120 86 0c 00
        e 360 96 0d 64
        e 120 86 0d 00
        e 360 96 0d 64
        e 120 86 0d 00
        e 360 96 0d 64
        e 120 86 0d 00
        e 360 96 0c 64
        e 120 86 0c 00
        e 360 96 0d 64
        e 120 86 0d 00
        e 360 96 0d 64
        e 120 86 0d 00
        e 360 96 0d 64
        e 120 86 0d 00
        e 360 96 0c 64
        e 120 86 0c 00
        e 360 96 0d 64
        e 120 86 0d 00
        e 360 96 0d 64
        e 120 86 0d 00
        e 360 96 0d 64
        e 120 86 0d 00
        e 360 96 0c 64
        e 120 86 0c 00
        e 360 96 0d 64
        e 120 86 0d 00
        e 360 96 0d 64
        e 120 86 0d 00
        e 360 96 0d 64
        e 120 86 0d 00
        e 360 96 0c 64
        e 120 86 0c 00
        e 360 96 0d 64
        e 120 86 0d 00
        e 360 96 0d 64
        e 120 86 0d 00
        e 360 96 0d 64
        e 120 86 0d 00
        e 360 96 0c 64
        e 120 86 0c 00
        e 360 96 0d 64
        e 120 86 0d 00
        e 360 96 0d 64
        e 120 86 0d 00
        e 360 96 0d 64
        e 120 86 0d 00
        e 360 96 0c 64
        e 120 86 0c 00
        e 360 96 0d 64
        e 120 86 0d 00
        e 360 96 0d 64
        e 120 86 0d 00
        e 360 96 0d 64
        e 120 86 0d 00
        e 360 96 0c 64
        e 120 86 0c 00
        e 360 96 0d 64
        e 120 86 0d 00
        e 360 96 0d 64
        e 120 86 0d 00
        e 360 96 0d 64
        e 120 86 0d 00
        e 360 96 0c 64
        e 120 86 0c 00
        e 360 96 0d 64
        e 120 86 0d 00
        e 360 96 0d 64
        e 120 86 0d 00
        e 360 96 0d 64
        e 120 86 0d 00
        e 360 96 0c 64
        e 120 86 0c 00
        e 360 96 0d 64
        e 120 86 0d 00
        e 360 96 0d 64
        e 120 86 0d 00
        e 360 96 0d 64
        e 120 86 0d 00
        e 360 96 0c 64
        e 120 86 0c 00
        e 360 96 0d 64
        e 120 86 0d 00
        e 360 96 0d 64
        e 120 86 0d 00
        e 360 96 0d 64
        e 120 86 0d 00
        e 360 96 0c 64
        e 120 86 0c 00
        e 360 96 0d 64
        e 120 86 0d 00
        e 360 96 0d 64
        e 120 86 0d 00
        e 360 96 0d 64
        e 120 86 0d 00
        e 360 96 0c 64
        e 120 86 0c 00
        e 360 96 0d 64
        e 120 86 0d 00
        e 360 96 0d 64
        e 120 86 0d 00
        e 360 96 0d 64
        e 120 86 0d 00
        e 360 96 0c 64
        e 120 86 0c 00
        e 360 96 0d 64
        e 120 86 0d 00
        e 360 96 0d 64
        e 120 86 0d 00
        e 360 96 0d 64
        e 120 86 0d 00
        e 360 96 0c 64
        e 120 86 0c 00
        e 360 96 0d 64
        e 120 86 0d 00
        e 360 96 0d 64
        e 120 86 0d 00
        e 360 96 0d 64
        e 120 86 0d 00
        e 360 96 0c 64
        e 120 86 0c 00
        e 360 96 0d 64
        e 120 86 0d 00
        e 360 96 0d 64
        e 120 86 0d 00
        e 360 96 0d 64
        e 120 86 0d 00
        e 360 96 0c 64
        e 120 86 0c 00
        e 360 96 0d 64
        e 120 86 0d 00
        e 360 96 0d 64
        e 120 86 0d 00
        e 360 96 0d 64
        e 120 86 0d 00
        e 360 96 0c 64
        e 120 86 0c 00
        e 360 96 0d 64
        e 120 86 0d 00
        e 360 96 0d 64
        e 120 86 0d 00
        e 360 96 0d 64
        e 120 86 0d 00
        e 360 96 0c 64
        e 120 86 0c 00
        e 360 96 0d 64
        e 120 86 0d 00
        e 360 96 0d 64
        e 120 86 0d 00
        e 360 96 0d 64
        e 120 86 0d 00
        e 360 96 0c 64
        e 120 86 0c 00
        e 360 96 0d 64
        e 120 86 0d 00
        e 360 96 0d 64
        e 120 86 0d 00
        e 360 96 0d 64
        e 120 86 0d 00
        e 360 96 0c 64
        e 120 86 0c 00
        e 360 96 0d 64
        e 120 86 0d 00
        e 360 96 0d 64
        e 120 86 0d 00
        e 360 96 0d 64
        e 120 86 0d 00
        e 360 96 0c 64
        e 120 86 0c 00
        e 360 96 0d 64
        e 120 86 0d 00
        e 360 96 0d 64
        e 120 86 0d 00
        e 360 96 0d 64
        e 120 86 0d 00
        e 360 96 0c 64
        e 120 86 0c 00
        e 360 96 0d 64
        e 120 86 0d 00
        e 360 96 0d 64
        e 120 86 0d 00
        e 360 96 0d 64
        e 120 86 0d 00
        e 360 96 0c 64
        e 120 86 0c 00
        e 360 96 0d 64
        e 120 86 0d 00
        e 360 96 0d 64
        e 120 86 0d 00
        e 360 96 0d 64
        e 120 86 0d 00
        e 360 96 0c 64
        e 120 86 0c 00
        e 360 96 0d 64
        e 120 86 0d 00
        e 360 96 0d 64
        e 120 86 0d 00
        e 360 96 0d 64
        e 120 86 0d 00
        e 360 96 0c 64
        e 120 86 0c 00
        e 360 96 0d 64
        e 120 86 0d 00
        e 360 96 0d 64
        e 120 86 0d 00
        e 360 96 0d 64
        e 120 86 0d 00
        e 360 96 0c 64
        e 120 86 0c 00
        e 360 96 0d 64
        e 120 86 0d 00
        e 360 96 0d 64
        e 120 86 0d 00
        e 360 96 0d 64
        e 120 86 0d 00
        e 360 96 0c 64
        e 120 86 0c 00
        e 360 96 0d 64
        e 120 86 0d 00
        e 360 96 0d 64
        e 120 86 0d 00
        e 360 96 0d 64
        e 120 86 0d 00
        e 360 96 0c 64
        e 120 86 0c 00
        e 360 96 0d 64
        e 120 86 0d 00
        e 360 96 0d 64
        e 120 86 0d 00
        e 360 96 0d 64
        e 120 86 0d 00
        e 360 96 0c 64
        e 120 86 0c 00
        e 360 96 0d 64
        e 120 86 0d 00
        e 360 96 0d 64
        e 120 86 0d 00
        e 360 96 0d 64
        e 120 86 0d 00
        e 360 96 0c 64
        e 120 86 0c 00
        e 360 96 0d 64
        e 120 86 0d 00
        e 360 96 0d 64
        e 120 86 0d 00
        e 360 96 0d 64
        e 120 86 0d 00
        e 360 96 0c 64
        e 120 86 0c 00
        e 360 96 0d 64
        e 120 86 0d 00
        e 360 96 0d 64
        e 120 86 0d 00
        e 360 96 0d 64
        e 120 86 0d 00
        e 360 96 0c 64
        e 120 86 0c 00
        e 360 96 0d 64
        e 120 86 0d 00
        e 360 96 0d 64
        e 120 86 0d 00
        e 360 96 0d 64
        e 120 86 0d 00
        e 360 96 0c 64
        e 120 86 0c 00
        e 360 96 0d 64
        e 120 86 0d 00
        e 360 96 0d 64
        e 120 86 0d 00
        e 360 96 0d 64
        e 120 86 0d 00
        e 360 96 0c 64
        e 120 86 0c 00
        e 360 96 0d 64
        e 120 86 0d 00
        e 360 96 0d 64
        e 120 86 0d 00
        e 360 96 0d 64
        e 120 86 0d 00
        e 360 96 0c 64
        e 120 86 0c 00
        e 360 96 0d 64
        e 120 86 0d 00
        e 360 96 0d 64
        e 120 86 0d 00
        e 360 96 0d 64
        e 120 86 0d 00
        e 360 96 0c 64
        e 120 86 0c 00
        e 360 96 0d 64
        e 120 86 0d 00
        e 360 96 0d 64
        e 120 86 0d 00
        e 360 96 0d 64
        e 120 86 0d 00
        e 360 96 0c 64
        e 120 86 0c 00
        e 360 96 0d 64
        e 120 86 0d 00
        e 360 96 0d 64
        e 120 86 0d 00
        e 360 96 0d 64
        e 120 86 0d 00
        e 360 96 0c 64
        e 120 86 0c 00
        e 360 96 0d 64
        e 120 86 0d 00
        e 360 96 0d 64
        e 120 86 0d 00
        e 360 96 0d 64
        e 120 86 0d 00
        e 360 96 0c 64
        e 120 86 0c 00
        e 360 96 0d 64
        e 120 86 0d 00
        e 360 96 0d 64
        e 120 86 0d 00
        e 360 96 0d 64
        e 120 86 0d 00
        e 360 96 0c 64
        e 120 86 0c 00
        e 360 96 0d 64
        e 120 86 0d 00
        e 360 96 0d 64
        e 120 86 0d 00
        e 360 96 0d 64
        e 120 86 0d 00
        e 360 96 0c 64
        e 120 86 0c 00
        e 360 96 0d 64
        e 120 86 0d 00
        e 360 96 0d 64
        e 120 86 0d 00
        e 360 96 0d 64
        e 120 86 0d 00
        e 360 96 0c 64
        e 120 86 0c 00
        e 360 96 0d 64
        e 120 86 0d 00
        e 360 96 0d 64
        e 120 86 0d 00
        e 360 96 0d 64
        e 120 86 0d 00
        e 360 96 0c 64
        e 120 86 0c 00
        e 360 96 0d 64
        e 120 86 0d 00
        e 360 96 0d 64
        e 120 86 0d 00
        e 360 96 0d 64
        e 120 86 0d 00
        e 360 96 0c 64
        e 120 86 0c 00
        e 360 96 0d 64
        e 120 86 0d 00
        e 360 96 0d 64
        e 120 86 0d 00
        e 360 96 0d 64
        e 120 86 0d 00
        e 360 96 0c 64
        e 120 86 0c 00
        e 360 96 0d 64
        e 120 86 0d 00
        e 360 96 0d 64
        e 120 86 0d 00
        e 360 96 0d 64
        e 120 86 0d 00
        e 360 96 0c 64
        e 120 86 0c 00
        e 360 96 0d 64
        e 120 86 0d 00
        e 360 96 0d 64
        e 120 86 0d 00
        e 360 96 0d 64
        e 120 86 0d 00
        e 360 96 0c 64
        e 120 86 0c 00
        e 360 96 0d 64
        e 120 86 0d 00
        e 360 96 0d 64
        e 120 86 0d 00
        e 360 96 0d 64
        e 120 86 0d 00
        e 360 96 0c 64
        e 120 86 0c 00
        e 360 96 0d 64
        e 120 86 0d 00
        e 360 96 0d 64
        e 120 86 0d 00
        e 360 96 0d 64
        e 120 86 0d 00
        e 360 96 0c 64
        e 120 86 0c 00
        e 360 96 0d 64
        e 120 86 0d 00
        e 360 96 0d 64
        e 120 86 0d 00
        e 360 96 0d 64
        e 120 86 0d 00
        e 360 96 0c 64
        e 120 86 0c 00
        e 360 96 0d 64
        e 120 86 0d 00
        e 360 96 0d 64
        e 120 86 0d 00
        e 360 96 0d 64
        e 120 86 0d 00
        e 360 96 0c 64
        e 120 86 0c 00
        e 360 96 0d 64
        e 120 86 0d 00
        e 360 96 0d 64
        e 120 86 0d 00
        e 360 96 0d 64
        e 120 86 0d 00
        e 360 96 0c 64
        e 120 86 0c 00
        e 360 96 0d 64
        e 120 86 0d 00
        e 360 96 0d 64
        e 120 86 0d 00
        e 360 96 0d 64
        e 120 86 0d 00
        e 360 96 0c 64
        e 120 86 0c 00
        e 360 96 0d 64
        e 120 86 0d 00
        e 360 96 0d 64
        e 120 86 0d 00
        e 360 96 0d 64
        e 120 86 0d 00
        e 360 96 0c 64
        e 120 86 0c 00
        e 360 96 0d 64
        e 120 86 0d 00
        e 360 96 0d 64
        e 120 86 0d 00
        e 360 96 0d 64
        e 120 86 0d 00
        e 360 96 0c 64
        e 120 86 0c 00
        e 360 96 0d 64
        e 120 86 0d 00
        e 360 96 0d 64
        e 120 86 0d 00
        e 360 96 0d 64
        e 120 86 0d 00
        e 360 96 0c 64
        e 120 86 0c 00
        e 360 96 0d 64
        e 120 86 0d 00
        e 360 96 0d 64
        e 120 86 0d 00
        e 360 96 0d 64
        e 120 86 0d 00
        e 360 96 0c 64
        e 120 86 0c 00
        e 360 96 0d 64
        e 120 86 0d 00
        e 360 96 0d 64
        e 120 86 0d 00
        e 360 96 0d 64
        e 120 86 0d 00
        e 360 96 0c 64
        e 120 86 0c 00
        e 360 96 0d 64
        e 120 86 0d 00
        E 960 b0 7b 00
        GUID {8CB930E8-B6A0-4CAD-825A-9F47FB66C1D0}
        IGNTEMPO 0 120.00000000 4 4
        SRCCOLOR 417
        VELLANE 132 100 100
        COLORMAP "M:\RGS Documents\ColorMaps\rockband_vox-other.png"
        TEXTSTRINGFILE "Text Events List.txt"
        CFGEDITVIEW -138.350270 275.127762 0 48 0 0 0
        CFGEDIT 1 1 0 0 0 1 1 1 1 1 1 1.00000000 44 63 1223 847 1 2 1 2 0.00000000 0 0 0 0 0.500000 1 0 1.000000 64
        KEYSNAP 0 0 "102034050607" 0 "Major"
        EVTFILTER 0 -1 -1 -1 -1 0 1 0 0 -1.00000000 -1.00000000
      >
    >
  >
  <TRACK '{0E2FE3F2-76C0-4A51-94D0-F118951ACC28}'
    NAME "PART REAL_GUITAR"
    PEAKCOL 16576
    BEAT -1
    AUTOMODE 0
    VOLPAN 1.00000000000000 0.00000000000000 -1.00000000000000 -1.00000000000000 1.00000000000000
    MUTESOLO 1 0 0
    IPHASE 0
    ISBUS 0 0
    BUSCOMP 0 0
    SHOWINMIX 1 0.666700 0.500000 1 0.500000 -1 -1 -1
    FREEMODE 0
    SEL 0
    REC 0 0 0 0 0 0 0
    TRACKHEIGHT 0 0
    INQ 0 0 0 0.5000000000 100 0 0 100
    NCHAN 2
    FX 1
    TRACKID {0E2FE3F2-76C0-4A51-94D0-F118951ACC28}
    PERF 0
    MIDIOUT -1
    <MIDINOTENAMES
      0 101 "EXPERT E String (HIGH)"
      0 100 "EXPERT B String"
      0 99 "EXPERT G String"
      0 98 "EXPERT D String"
      0 97 "EXPERT A String"
      0 96 "EXPERT E String (LOW)"
      0 77 "HARD E String (HIGH)"
      0 72 "HARD E String (LOW)"
      0 53 "MEDIUM E String (HIGH)"
      0 48 "MEDIUM E String (LOW)"
      0 29 "EASY E String (HIGH)"
      0 24 "EASY E String (LOW)"
      0 76 "HARD B String"
      0 75 "HARD G String"
      0 74 "HARD D String"
      0 73 "HARD A String"
      0 52 "MEDIUM B String"
      0 51 "MEDIUM G String"
      0 50 "MEDIUM D String"
      0 49 "MEDIUM A String"
      0 28 "EASY B String"
      0 27 "EASY G String"
      0 26 "EASY D String"
      0 25 "EASY A String"
      0 116 "OVERDRIVE"
      0 115 "Solo Marker"
      0 125 "BRE"
      0 120 "BRE (use all 6)"
      0 124 "BRE"
      0 123 "BRE"
      0 122 "BRE"
      0 121 "BRE"
      0 127 "Trill"
      0 126 "Tremelo"
      0 108 "Left hand position"
      0 107 "Force Chord Numbering"
      0 104 "EXPERT Arpeggio Marker"
      0 103 "EXPERT Slide Marker"
      0 102 "EXPERT Force Ho/Po"
      0 80 "HARD Arpeggio Marker"
      0 79 "HARD Slide Marker"
      0 78 "Force Ho/Po"
      0 55 "MEDIUM Slide Marker"
      0 31 "EASY Slide Marker"
      0 17 "Hide Chord Names"
      0 15 "Eb"
      0 14 "D"
      0 13 "Db"
      0 12 "C"
      0 11 "B"
      0 10 "Bb"
      0 9 "A"
      0 8 "Ab"
      0 7 "G"
      0 6 "Gb"
      0 5 "F"
      0 4 "E"
      0 105 "EXPERT Strum Direction"
      0 81 "HARD Strum Direction"
      0 56 "MEDIUM Arpeggio Marker"
      0 32 "EASY Arpeggio Marker"
      0 21 "CHORD NAMES"
      0 18 "Flat/Sharp Swap"
      0 16 "Slash Chord"
    >
    MAINSEND 1 0
    <FXCHAIN
      SHOW 0
      LASTSEL 0
      DOCKED 0
    >
    <ITEM
      POSITION 0.00000000000000
      SNAPOFFS 0.00000000000000
      LENGTH 141.97520711041886
      LOOP 0
      ALLTAKES 0
      SEL 0
      FADEIN 1 0.000000 0.000000 1 0
      FADEOUT 1 0.000000 0.000000 1 0
      MUTE 0
      IGUID {20F1321F-9ED7-4853-AD09-40B222B05CF8}
      IID 24
      NAME "PART REAL_GUITAR"
      VOLPAN 1.000000 0.000000 1.000000 -1.000000
      SOFFS 0.00000000000000 0.00000000000000
      PLAYRATE 1.00000000000000 1 0.00000000000000 -1
      CHANMODE 0
      GUID {3CDDC74F-292B-448F-83EC-680F8CEF1C9B}
      <SOURCE MIDI
        HASDATA 1 480 QN
        POOLEDEVTS {45EA4612-2869-434F-A23C-49E3DAB8D6AE}
        <X 0 0
          /wNQQVJUIFJFQUxfR1VJVEFS
        >
        E 3840 90 18 64
        E 0 90 19 64
        E 0 90 1a 64
        E 0 90 1b 64
        E 0 90 1c 64
        E 0 90 1d 64
        E 0 90 30 64
        E 0 90 31 64
        E 0 90 32 64
        E 0 90 33 64
        E 0 90 34 64
        E 0 90 35 64
        E 0 90 48 64
        E 0 90 49 64
        E 0 90 4a 64
        E 0 90 4b 64
        E 0 90 4c 64
        E 0 90 4d 64
        E 0 90 60 64
        E 0 90 61 64
        E 0 90 62 64
        E 0 90 63 64
        E 0 90 64 64
        E 0 90 65 64
        E 120 80 18 00
        E 0 80 19 00
        E 0 80 1a 00
        E 0 80 1b 00
        E 0 80 1c 00
        E 0 80 1d 00
        E 0 80 30 00
        E 0 80 31 00
        E 0 80 32 00
        E 0 80 33 00
        E 0 80 34 00
        E 0 80 35 00
        E 0 80 48 00
        E 0 80 49 00
        E 0 80 4a 00
        E 0 80 4b 00
        E 0 80 4c 00
        E 0 80 4d 00
        E 0 80 60 00
        E 0 80 61 00
        E 0 80 62 00
        E 0 80 63 00
        E 0 80 64 00
        E 0 80 65 00
        E 177000 b0 7b 00
        GUID {95EB2031-BC44-4B36-809B-F7595C07BF30}
        IGNTEMPO 0 120.00000000 4 4
        SRCCOLOR 418
        VELLANE 132 123 128
        COLORMAP "C:\Program Files\REAPER\Data\color_maps\rockband_guitarbass.png"
        TEXTSTRINGFILE "C:\Program Files\REAPER\Data\Text_Strings\Text Events List.txt"
        CFGEDITVIEW 0.000000 0.103438 87 12 0 0 0
        CFGEDIT 1 1 0 0 0 1 1 1 1 1 1 0.25000000 0 0 683 728 1 0 0 2 0.12500000 0 1 0 0 0.500000 0 0 1.000000 64
        KEYSNAP 0 0 "102034050607" 0 "Major"
        EVTFILTER 0 -1 -1 -1 -1 0 1 0 0 -1.00000000 -1.00000000
      >
    >
  >
  <TRACK '{4048E3A2-B3FC-493C-BF0E-D7B7B9F9DFF3}'
    NAME "PART REAL_BASS"
    PEAKCOL 16576
    BEAT -1
    AUTOMODE 0
    VOLPAN 1.00000000000000 0.00000000000000 -1.00000000000000 -1.00000000000000 1.00000000000000
    MUTESOLO 1 0 0
    IPHASE 0
    ISBUS 0 0
    BUSCOMP 0 0
    SHOWINMIX 1 0.666700 0.500000 1 0.500000 -1 -1 -1
    FREEMODE 0
    SEL 0
    REC 0 0 0 0 0 0 0
    TRACKHEIGHT 0 0
    INQ 0 0 0 0.5000000000 100 0 0 100
    NCHAN 2
    FX 1
    TRACKID {4048E3A2-B3FC-493C-BF0E-D7B7B9F9DFF3}
    PERF 0
    MIDIOUT -1
    <MIDINOTENAMES
      0 99 "EXPERT G String"
      0 98 "EXPERT D String"
      0 97 "EXPERT A String"
      0 96 "EXPERT E String (LOW)"
      0 72 "HARD E String (LOW)"
      0 48 "MEDIUM E String (LOW)"
      0 24 "EASY E String (LOW)"
      0 75 "HARD G String"
      0 74 "HARD D String"
      0 73 "HARD A String"
      0 51 "MEDIUM G String"
      0 50 "MEDIUM D String"
      0 49 "MEDIUM A String"
      0 27 "EASY G String"
      0 26 "EASY D String"
      0 25 "EASY A String"
      0 116 "OVERDRIVE"
      0 115 "Solo Marker"
      0 120 "BRE (use all 6)"
      0 123 "BRE"
      0 122 "BRE"
      0 121 "BRE"
      0 127 "Trill"
      0 126 "Tremelo"
      0 125 "BRE"
      0 124 "BRE"
      0 108 "Left hand position"
      0 107 "Force Chord Numbering"
      0 104 "EXPERT Arpeggio Marker"
      0 103 "EXPERT Slide Marker"
      0 102 "EXPERT Force Ho/Po"
      0 101 "EXPERT E String (HIGH)"
      0 100 "EXPERT B String"
      0 80 "HARD Arpeggio Marker"
      0 79 "HARD Slide Marker"
      0 78 "Force Ho/Po"
      0 77 "HARD E String (HIGH)"
      0 76 "HARD B String"
      0 55 "MEDIUM Slide Marker"
      0 53 "MEDIUM E String (HIGH)"
      0 52 "MEDIUM B String"
      0 31 "EASY Slide Marker"
      0 29 "EASY E String (HIGH)"
      0 28 "EASY B String"
      0 17 "Hide Chord Names"
      0 15 "Eb"
      0 14 "D"
      0 13 "Db"
      0 12 "C"
      0 11 "B"
      0 10 "Bb"
      0 9 "A"
      0 8 "Ab"
      0 7 "G"
      0 6 "Gb"
      0 5 "F"
      0 4 "E"
      0 105 "EXPERT Strum Direction"
      0 81 "HARD Strum Direction"
      0 56 "MEDIUM Arpeggio Marker"
      0 32 "EASY Arpeggio Marker"
      0 21 "CHORD NAMES"
      0 18 "Flat/Sharp Swap"
      0 16 "Slash Chord"
    >
    MAINSEND 1 0
    <FXCHAIN
      SHOW 0
      LASTSEL 0
      DOCKED 0
    >
    <ITEM
      POSITION 0.00000000000000
      SNAPOFFS 0.00000000000000
      LENGTH 141.97520711041886
      LOOP 0
      ALLTAKES 0
      SEL 0
      FADEIN 1 0.000000 0.000000 1 0
      FADEOUT 1 0.000000 0.000000 1 0
      MUTE 0
      IGUID {20F1321F-9ED7-4853-AD09-40B222B05CF8}
      IID 25
      NAME "PART REAL_BASS"
      VOLPAN 1.000000 0.000000 1.000000 -1.000000
      SOFFS 0.00000000000000 0.00000000000000
      PLAYRATE 1.00000000000000 1 0.00000000000000 -1
      CHANMODE 0
      GUID {3CDDC74F-292B-448F-83EC-680F8CEF1C9B}
      <SOURCE MIDI
        HASDATA 1 480 QN
        POOLEDEVTS {06817904-5246-48BD-881F-BD4BAEE78A2B}
        <X 0 0
          /wNQQVJUIFJFQUxfQkFTUw==
        >
        E 3840 90 18 64
        E 0 90 19 64
        E 0 90 1a 64
        E 0 90 1b 64
        E 0 90 30 64
        E 0 90 31 64
        E 0 90 32 64
        E 0 90 33 64
        E 0 90 48 64
        E 0 90 49 64
        E 0 90 4a 64
        E 0 90 4b 64
        E 0 90 60 64
        E 0 90 61 64
        E 0 90 62 64
        E 0 90 63 64
        E 120 80 18 00
        E 0 80 19 00
        E 0 80 1a 00
        E 0 80 1b 00
        E 0 80 30 00
        E 0 80 31 00
        E 0 80 32 00
        E 0 80 33 00
        E 0 80 48 00
        E 0 80 49 00
        E 0 80 4a 00
        E 0 80 4b 00
        E 0 80 60 00
        E 0 80 61 00
        E 0 80 62 00
        E 0 80 63 00
        E 177000 b0 7b 00
        GUID {95EB2031-BC44-4B36-809B-F7595C07BF30}
        IGNTEMPO 0 120.00000000 4 4
        SRCCOLOR 419
        VELLANE 132 123 128
        COLORMAP "C:\Program Files\REAPER\Data\color_maps\rockband_guitarbass.png"
        TEXTSTRINGFILE "C:\Program Files\REAPER\Data\Text_Strings\Text Events List.txt"
        CFGEDITVIEW 0.000000 0.179136 0 12 0 0 0
        CFGEDIT 1 1 0 0 0 1 1 1 1 1 1 0.25000000 0 0 683 728 1 0 0 2 0.00000000 0 1 0 0 0.500000 0 0 1.000000 64
        KEYSNAP 0 0 "102034050607" 0 "Major"
        EVTFILTER 0 -1 -1 -1 -1 0 1 0 0 -1.00000000 -1.00000000
      >
    >
  >
  <TRACK '{D33AD49D-2DB0-43B6-AF29-E0B569EE238B}'
    NAME ""
    PEAKCOL 16576
    BEAT -1
    AUTOMODE 0
    VOLPAN 1.00000000000000 0.00000000000000 -1.00000000000000 -1.00000000000000 1.00000000000000
    MUTESOLO 0 0 0
    IPHASE 0
    ISBUS 0 0
    BUSCOMP 0 0
    SHOWINMIX 1 0.666700 0.500000 1 0.500000 -1 -1 -1
    FREEMODE 0
    SEL 0
    REC 0 0 0 0 0 0 0
    VU 2
    TRACKHEIGHT 0 0
    INQ 0 0 0 0.5000000000 100 0 0 100
    NCHAN 2
    FX 1
    TRACKID {D33AD49D-2DB0-43B6-AF29-E0B569EE238B}
    PERF 0
    MIDIOUT -1
    MAINSEND 1 0
  >
>
