<REAPER_PROJECT 0.1 "4.22/x64"
  RIPPLE 0
  GROUPOVERRIDE 0 1 0
  AUTOXFADE 131
  ENVATTACH 1
  MIXERUIFLAGS 11 48
  PEAKGAIN 1.00000000000000
  FEEDBACK 0
  PANLAW 1.00000000000000
  PROJOFFS 0.00000000000000 0
  MAXPROJLEN 0 600.00000000000000
  GRID 511 8 1.00000000000000 8 1.00000000000000 0
  TIMEMODE 1 0 -1
  CURSOR 92.66016006422848
  ZOOM 494.06321868177849 44929 0
  VZOOMEX 13
  USE_REC_CFG 0
  RECMODE 1
  SMPTESYNC 0 30.000000 100 40 1000 300 0 0.000000 0
  LOOP 1
  LOOPGRAN 0 4.00000000000000
  RECORD_PATH "" ""
  <RECORD_CFG
    ZXZhdxgA
  >
  <APPLYFX_CFG
  >
  RENDER_FILE ""
  RENDER_PATTERN ""
  RENDER_FMT 0 2 0
  RENDER_1X 0
  RENDER_RANGE 1 0.00000000000000 0.00000000000000
  RENDER_RESAMPLE 3 0 1
  RENDER_ADDTOPROJ 0
  RENDER_STEMS 0
  RENDER_DITHER 0
  TIMELOCKMODE 0
  ITEMMIX 0
  DEFPITCHMODE 0
  TAKELANE 1
  SAMPLERATE 44100 0 0
  <RENDER_CFG
  >
  LOCK 1
  <METRONOME 6 2.000000
    VOL 0.752735 0.723913
    FREQ 800 1600 0
    BEATLEN 4
    SAMPLES "" ""
  >
  GLOBAL_AUTO -1
  TEMPO 120.00000000000000 4 4
  PLAYRATE 1.00000000000000 0 0.25000 4.00000
  SELECTION 0.00000000000000 0.00000000000000
  SELECTION2 0.00000000000000 0.00000000000000
  MASTERAUTOMODE 0
  MASTERTRACKHEIGHT 0
  MASTERPEAKCOL 16576
  MASTERMUTESOLO 0
  MASTERTRACKVIEW 1 0.666700 0.500000 0.500000 -1 -1 -1
  MASTERHWOUT 0 0 1.00000000000000 0.00000000000000 0 0 0 -1.00000000000000
  MASTER_NCH 2 2
  MASTER_VOLUME 1.05925372517729 0.00000000000000 -1.00000000000000 -1.00000000000000 1.00000000000000
  MASTER_FX 1
  MASTER_SEL 0
  <MASTERFXLIST
    SHOW 0
    LASTSEL 0
    DOCKED 0
    BYPASS 0 0
    <VST "VST: W1 Limiter (George Yohng)" "George Yohng_s W1 Limiter.dll" 0 ""
      THdGNO5e7f4CAAAAAQAAAAAAAAACAAAAAAAAAAIAAAABAAAAAAAAAA==
      AgAAAAAAAABMAAAAAQAAAAAAEAAMAACBdGhyZXNoAAD+1Hg/DAAAgQ==
      Y2VpbGluZwD+1Hg/DAAAgXJlbGVhc2UAMEAfPxQAAIFhZGFwdFJlbA==
      ZWFzZQAAAAAAAAAAAAAAgABEZWZhdWx0ABAAAAA=
    >
    FLOATPOS 24 24 481 152
    FXID {69D45D23-FE06-4141-B0BB-1A6D9443AFA8}
    WAK 0
  >
  <MASTERPLAYSPEEDENV
    ACT 0
    VIS 0 1 1.000000
    LANEHEIGHT 0 0
    ARM 0
    DEFSHAPE 0 -1 -1
  >
  <TEMPOENVEX
    ACT 1
    VIS 1 0 1.000000
    LANEHEIGHT 0 0
    ARM 0
    DEFSHAPE 1 -1 -1
    PT 0.000000000000 168.0000000000 1
    PT 1.428571428571 167.3110697210 1
    PT 2.863025230106 167.3110697210 1
    PT 4.297479031640 169.4639034562 1
    PT 5.713709834219 169.4639034562 1
    PT 7.129940636799 164.0086366857 1
    PT 8.593278207612 161.7764668372 1
    PT 10.076806712666 164.1186006575 1
    PT 11.539163807099 164.9444010969 1
    PT 12.994199554927 167.1186097562 1
    PT 14.430305326452 162.9717313926 1
    PT 15.902953361477 168.6239301692 1
    PT 17.326238892536 164.1947837858 1
    PT 18.787917482235 162.3670125377 1
    PT 20.266050239924 166.5381917370 1
    PT 21.707161119637 166.5381917370 1
    PT 23.148271999350 162.7918251477 1
    PT 24.622547502940 164.9444010969 1
    PT 26.077583250768 164.9444010969 1
    PT 27.532618998596 165.6639840391 1
    PT 28.981334610454 165.6639840391 1
    PT 30.430050222312 164.3890327430 1
    PT 31.890001631450 165.9587242634 1
    PT 33.336144345942 165.9587242634 1
    PT 34.782287060434 163.7997413150 1
    PT 36.247490839593 163.1769251156 1
    PT 37.718287031089 163.1769251156 1
    PT 39.189083222584 169.9888650635 1
    PT 40.600940404585 164.9799850617 1
    PT 42.055662320763 162.5846313765 1
    PT 43.531816604031 162.5846313765 1
    PT 45.007970887299 169.0266639404 1
    PT 46.427865206958 169.0266639404 1
    PT 47.847759526618 161.4128502496 1
    PT 49.334629993430 161.4128502496 1
    PT 50.821500460241 167.4469754923 1
    PT 52.254790009332 167.4469754923 1
    PT 53.688079558423 164.3745539239 1
    PT 55.148159566373 165.2843761780 1
    PT 56.600202436665 163.1769251156 1
    PT 58.070998628161 166.8233368500 1
    PT 59.509646269023 163.7735500703 1
    PT 60.975084368746 165.5898925850 1
    PT 62.424448193153 164.0735016272 1
    PT 63.887207246990 164.0735016272 1
    PT 65.349966300827 166.8233368500 1
    PT 66.788613941689 166.5132562983 1
    PT 68.229940628437 165.8965405342 1
    PT 69.676625406957 162.2900940008 1
    PT 71.155458736111 166.5132562983 1
    PT 72.596785422860 163.7735500703 1
    PT 74.062223522583 164.6767130303 1
    PT 75.519624484648 164.6767130303 1
    PT 76.977025446713 168.0752943498 1
    PT 78.404956904030 163.7735500703 1
    PT 79.870395003753 163.1769251156 1
    PT 81.341191195249 167.4469754925 1
    PT 82.774480744339 164.3745539238 1
    PT 84.234560752290 164.6767130303 1
    PT 85.691961714355 163.7735500703 1
    PT 87.157399814078 166.8233368500 1
    PT 88.596047454940 164.3745539238 1
    PT 90.056127462891 164.9799850616 1
    PT 91.510849379070 169.6669164554 1
    PT 92.925385606956 159.6865096051 1
    PT 94.428330349086 159.6865096051 1
  >
  <PROJBAY
  >
  <TRACK '{4D889F49-FE1F-4D1D-9FB8-BFD5BA06901A}'
    NAME "SONG AUDIO"
    PEAKCOL 16576
    BEAT -1
    AUTOMODE 0
    VOLPAN 1.00000000000000 0.00000000000000 -1.00000000000000 -1.00000000000000 1.00000000000000
    MUTESOLO 0 0 0
    IPHASE 0
    ISBUS 0 0
    BUSCOMP 0 0
    SHOWINMIX 1 0.666700 0.500000 1 0.500000 -1 -1 -1
    FREEMODE 0
    SEL 0
    REC 0 0 0 0 0 0 0
    TRACKHEIGHT 310 0
    INQ 0 0 0 0.5000000000 100 0 0 100
    NCHAN 2
    FX 1
    TRACKID {4D889F49-FE1F-4D1D-9FB8-BFD5BA06901A}
    PERF 0
    MIDIOUT -1
    MAINSEND 1 0
    <FXCHAIN
      SHOW 0
      LASTSEL 0
      DOCKED 0
      BYPASS 0 0
      <VST "VST: W1 Limiter (George Yohng)" "George Yohng_s W1 Limiter.dll" 0 ""
        THdGNO5e7f4CAAAAAQAAAAAAAAACAAAAAAAAAAIAAAABAAAAAAAAAA==
        AgAAAAAAAABMAAAAAQAAAAAAEAAMAACBdGhyZXNoAAD+1Hg/DAAAgQ==
        Y2VpbGluZwD+1Hg/DAAAgXJlbGVhc2UAMEAfPxQAAIFhZGFwdFJlbA==
        ZWFzZQAAAAAAAAAAAAAAgABEZWZhdWx0ABAAAAA=
      >
      FLOATPOS 24 24 481 152
      FXID {D32BE511-3942-4A83-B6D7-DF2FE763A2B4}
      WAK 0
    >
    <ITEM
      POSITION 0.00000000000000
      SNAPOFFS 0.00000000000000
      LENGTH 0.28216019417451
      LOOP 0
      ALLTAKES 0
      SEL 0
      FADEIN 1 0.000000 0.000000 1 0
      FADEOUT 1 0.000000 0.000000 1 0
      MUTE 0
      IGUID {D829F3DA-0BE5-4277-954B-C2D10DB114A6}
      IID 1
      NAME "stick.wav"
      VOLPAN 0.271028 0.000000 1.000000 -1.000000
      SOFFS 0.00000000000000
      PLAYRATE 1.00000000000052 1 0.00000000000000 -1
      CHANMODE 0
      GUID {3A242298-C3E5-4DC8-9A3C-2EE82D8D2134}
      <SOURCE WAVE
        FILE "C:\Users\wejaa\AppData\Roaming\REAPER\ProjectTemplates\hihat.wav"
      >
    >
    <ITEM
      POSITION 0.71428571428571
      SNAPOFFS 0.00000000000000
      LENGTH 0.28216019417451
      LOOP 0
      ALLTAKES 0
      SEL 0
      FADEIN 1 0.000000 0.000000 1 0
      FADEOUT 1 0.000000 0.000000 1 0
      MUTE 0
      IGUID {5AEC5162-2B2C-4FF2-BB3B-E29ADC0916FE}
      IID 2
      NAME "stick.wav"
      VOLPAN 0.271028 0.000000 1.000000 -1.000000
      SOFFS 0.00000000000000
      PLAYRATE 1.00000000000052 1 0.00000000000000 -1
      CHANMODE 0
      GUID {16E29BEE-96F5-48F0-9FB0-3F04A1AF90D5}
      <SOURCE WAVE
        FILE "C:\Users\wejaa\AppData\Roaming\REAPER\ProjectTemplates\hihat.wav"
      >
    >
    <ITEM
      POSITION 1.42857142857143
      SNAPOFFS 0.00000000000000
      LENGTH 0.28216019417451
      LOOP 0
      ALLTAKES 0
      SEL 0
      FADEIN 1 0.000000 0.000000 1 0
      FADEOUT 1 0.000000 0.000000 1 0
      MUTE 0
      IGUID {1FA8F8C4-F448-4E02-B340-4A6644F6D8AB}
      IID 3
      NAME "stick.wav"
      VOLPAN 0.271028 0.000000 1.000000 -1.000000
      SOFFS 0.00000000000000
      PLAYRATE 1.00000000000052 1 0.00000000000000 -1
      CHANMODE 0
      GUID {8D594F7C-8B39-4D29-A27D-55F46BC65189}
      <SOURCE WAVE
        FILE "C:\Users\wejaa\AppData\Roaming\REAPER\ProjectTemplates\hihat.wav"
      >
    >
    <ITEM
      POSITION 1.78571428571429
      SNAPOFFS 0.00000000000000
      LENGTH 0.28216019417451
      LOOP 0
      ALLTAKES 0
      SEL 0
      FADEIN 1 0.000000 0.000000 1 0
      FADEOUT 1 0.000000 0.000000 1 0
      MUTE 0
      IGUID {1D23FF37-8166-4C8E-915E-19EFDB52B4D8}
      IID 4
      NAME "stick.wav"
      VOLPAN 0.271028 0.000000 1.000000 -1.000000
      SOFFS 0.00000000000000
      PLAYRATE 1.00000000000052 1 0.00000000000000 -1
      CHANMODE 0
      GUID {1D91F480-CA0B-4E03-8204-02893D660CDF}
      <SOURCE WAVE
        FILE "C:\Users\wejaa\AppData\Roaming\REAPER\ProjectTemplates\hihat.wav"
      >
    >
    <ITEM
      POSITION 2.14285714285714
      SNAPOFFS 0.00000000000000
      LENGTH 0.28216019417451
      LOOP 0
      ALLTAKES 0
      SEL 0
      FADEIN 1 0.000000 0.000000 1 0
      FADEOUT 1 0.000000 0.000000 1 0
      MUTE 0
      IGUID {A6BA2F37-4089-4BF2-A73E-A602F32B7614}
      IID 5
      NAME "stick.wav"
      VOLPAN 0.271028 0.000000 1.000000 -1.000000
      SOFFS 0.00000000000000
      PLAYRATE 1.00000000000050 1 0.00000000000000 -1
      CHANMODE 0
      GUID {ABD24FE2-95CA-428E-ADD9-9A13921FCC29}
      <SOURCE WAVE
        FILE "C:\Users\wejaa\AppData\Roaming\REAPER\ProjectTemplates\hihat.wav"
      >
    >
    <ITEM
      POSITION 2.43325234856369
      SNAPOFFS 0.00000000000000
      LENGTH 93.92814575077384
      LOOP 0
      ALLTAKES 0
      SEL 0
      FADEIN 1 0.000000 0.000000 1 0
      FADEOUT 1 0.000000 0.000000 1 0
      MUTE 0
      IGUID {78C01728-67C7-47D2-9EB6-2750F99E0863}
      IID 135
      NAME "Digimon jakso 36.wav"
      VOLPAN 1.000000 0.000000 1.000000 -1.000000
      SOFFS 0.40568644877265
      PLAYRATE 1.00000000000000 1 0.00000000000000 -1
      CHANMODE 0
      GUID {C3031143-3737-4E64-B19C-D472A72F7496}
      <SOURCE WAVE
        FILE "Digimon jakso 36.wav"
      >
    >
  >
  <TRACK '{DAD081D9-E850-49EF-A341-F511A80FBA52}'
    NAME "drums"
    PEAKCOL 16576
    BEAT -1
    AUTOMODE 0
    VOLPAN 1.00000000000000 0.00000000000000 -1.00000000000000 -1.00000000000000 1.00000000000000
    MUTESOLO 0 0 0
    IPHASE 0
    ISBUS 0 0
    BUSCOMP 0 0
    SHOWINMIX 1 0.666700 0.500000 1 0.500000 -1 -1 -1
    FREEMODE 0
    SEL 0
    REC 0 0 0 0 0 0 0
    VU 2
    TRACKHEIGHT 477 0
    INQ 0 0 0 0.5000000000 100 0 0 100
    NCHAN 2
    FX 1
    TRACKID {DAD081D9-E850-49EF-A341-F511A80FBA52}
    PERF 0
    MIDIOUT -1
    MAINSEND 1 0
    <FXCHAIN
      SHOW 0
      LASTSEL 0
      DOCKED 0
    >
    <ITEM
      POSITION 2.43325234856369
      SNAPOFFS 0.00000000000000
      LENGTH 93.92814575077384
      LOOP 0
      ALLTAKES 0
      SEL 0
      FADEIN 1 0.000000 0.000000 1 0
      FADEOUT 1 0.000000 0.000000 1 0
      MUTE 0
      IGUID {BF761A6F-C10A-43EE-81DC-7E2380F733E6}
      IID 136
      NAME "drums.wav"
      VOLPAN 1.000000 0.000000 1.000000 -1.000000
      SOFFS 0.40568644877265
      PLAYRATE 1.00000000000000 1 0.00000000000000 -1
      CHANMODE 0
      GUID {7ABE46C8-4DA5-453E-86CA-C749F17A6709}
      <SOURCE WAVE
        FILE "drums.wav"
      >
    >
  >
  <TRACK '{2787CF56-CE3C-4D9B-A1E0-73AAEF990937}'
    NAME "bass"
    PEAKCOL 16576
    BEAT -1
    AUTOMODE 0
    VOLPAN 1.00000000000000 0.00000000000000 -1.00000000000000 -1.00000000000000 1.00000000000000
    MUTESOLO 0 0 0
    IPHASE 0
    ISBUS 0 0
    BUSCOMP 0 0
    SHOWINMIX 1 0.666700 0.500000 1 0.500000 -1 -1 -1
    FREEMODE 0
    SEL 0
    REC 0 0 0 0 0 0 0
    VU 2
    TRACKHEIGHT 0 0
    INQ 0 0 0 0.5000000000 100 0 0 100
    NCHAN 2
    FX 1
    TRACKID {2787CF56-CE3C-4D9B-A1E0-73AAEF990937}
    PERF 0
    MIDIOUT -1
    MAINSEND 1 0
    <ITEM
      POSITION 2.43325234856369
      SNAPOFFS 0.00000000000000
      LENGTH 93.92814575075352
      LOOP 0
      ALLTAKES 0
      SEL 0
      FADEIN 1 0.000000 0.000000 1 0
      FADEOUT 1 0.000000 0.000000 1 0
      MUTE 0
      IGUID {D58A61F9-A88C-4688-A3B6-AA83C857DE5A}
      IID 158
      NAME "bass.wav"
      VOLPAN 1.000000 0.000000 1.000000 -1.000000
      SOFFS 0.40568644879298
      PLAYRATE 1.00000000000000 1 0.00000000000000 -1
      CHANMODE 0
      GUID {1F4C4D8B-8457-41A8-82A5-24A474467EA4}
      <SOURCE WAVE
        FILE "bass.wav"
      >
    >
  >
  <TRACK '{D4005234-E895-470E-8931-5B5B9C971F50}'
    NAME "drums"
    PEAKCOL 16576
    BEAT -1
    AUTOMODE 0
    VOLPAN 1.00000000000000 0.00000000000000 -1.00000000000000 -1.00000000000000 1.00000000000000
    MUTESOLO 0 0 0
    IPHASE 0
    ISBUS 0 0
    BUSCOMP 0 0
    SHOWINMIX 1 0.666700 0.500000 1 0.500000 -1 -1 -1
    FREEMODE 0
    SEL 0
    REC 0 0 0 0 0 0 0
    VU 2
    TRACKHEIGHT 372 0
    INQ 0 0 0 0.5000000000 100 0 0 100
    NCHAN 2
    FX 1
    TRACKID {D4005234-E895-470E-8931-5B5B9C971F50}
    PERF 0
    MIDIOUT -1
    MAINSEND 1 0
    <ITEM
      POSITION 2.43337077007163
      SNAPOFFS 0.00000000000000
      LENGTH 94.57494331065760
      LOOP 0
      ALLTAKES 0
      SEL 0
      FADEIN 1 0.000000 0.000000 1 0
      FADEOUT 1 0.000000 0.000000 1 0
      MUTE 0
      IGUID {B71D7F9A-EB9B-481C-A984-307C3A31277C}
      IID 102
      NAME "drums.wav"
      VOLPAN 1.000000 0.000000 1.000000 -1.000000
      SOFFS 0.00000000000000
      PLAYRATE 1.00000000000000 1 0.00000000000000 -1
      CHANMODE 0
      GUID {4FADA83F-D630-44EC-889A-9B36954AF1A7}
      <SOURCE WAVE
        FILE "C:\Users\wejaa\__CustomOwnSongs\Digimon - Agapio\drums.wav"
      >
    >
  >
  <TRACK '{BDCFF37A-71AC-4D17-AF26-EA560B308842}'
    NAME "COUNTIN"
    PEAKCOL 16576
    BEAT -1
    AUTOMODE 0
    VOLPAN 1.00000000000000 0.00000000000000 -1.00000000000000 -1.00000000000000 1.00000000000000
    MUTESOLO 1 0 0
    IPHASE 0
    ISBUS 0 0
    BUSCOMP 0 0
    SHOWINMIX 1 0.666700 0.500000 1 0.500000 -1 -1 -1
    FREEMODE 0
    SEL 0
    REC 0 0 0 0 0 0 0
    TRACKHEIGHT 44 0
    INQ 0 0 0 0.5000000000 100 0 0 100
    NCHAN 2
    FX 1
    TRACKID {BDCFF37A-71AC-4D17-AF26-EA560B308842}
    PERF 0
    MIDIOUT -1
    MAINSEND 1 0
    <FXCHAIN
      SHOW 0
      LASTSEL 0
      DOCKED 0
    >
  >
  <TRACK '{8F33A645-3DF2-48FA-99BC-10992A4F8042}'
    NAME "PART DRUMS"
    PEAKCOL 16842751
    BEAT -1
    AUTOMODE 0
    VOLPAN 1.00000000000000 0.00000000000000 -1.00000000000000 -1.00000000000000 1.00000000000000
    MUTESOLO 0 0 0
    IPHASE 0
    ISBUS 0 0
    BUSCOMP 1 0
    SHOWINMIX 1 0.666700 0.500000 1 0.500000 -1 -1 -1
    FREEMODE 0
    SEL 1
    REC 0 4096 1 7 0 0 0
    TRACKHEIGHT 0 0
    INQ 0 0 0 0.5000000000 100 0 0 100
    NCHAN 2
    FX 1
    TRACKID {8F33A645-3DF2-48FA-99BC-10992A4F8042}
    PERF 0
    MIDIOUT -1
    <MIDINOTENAMES
      0 24 "KICK RF"
      0 25 "HI-HAT OPEN"
      0 26 "SNARE HARD LH"
      0 27 "SNARE HARD RH"
      0 28 "SNARE RIM LH"
      0 29 "SNARE RIM RH"
      0 30 "HI-HAT LH"
      0 31 "HI-HAT RH"
      0 32 "PERCUSSION RH"
      0 33 "PERCUSSION LH"
      0 34 "CRASH1 HARD LH"
      0 35 "CRASH1 SOFT LH"
      0 36 "CRASH1 HARD RH"
      0 37 "CRASH1 SOFT RH"
      0 38 "CRASH2 HARD RH"
      0 39 "CRASH2 SOFT RH"
      0 40 "CRASH1 CHOKE"
      0 41 "CRASH2 CHOKE"
      0 42 "RIDE CYM RH"
      0 43 "RIDE CYM LH"
      0 44 "CRASH2 HARD LH"
      0 45 "CRASH2 SOFT LH"
      0 46 "TOM1 LH"
      0 47 "TOM1 RH"
      0 48 "TOM2 LH"
      0 49 "TOM2 RH"
      0 50 "FLOOR TOM LH"
      0 51 "FLOOR TOM RH"
      0 52 "--DRUM ANIMATION--"
      0 56 "----"
      0 60 "EASY Kick"
      0 61 "EASY Red"
      0 62 "EASY Yellow"
      0 63 "EASY Blue"
      0 64 "EASY Green"
      0 68 "----"
      0 72 "MEDIUM Kick"
      0 73 "MEDIUM Red"
      0 74 "MEDIUM Yellow"
      0 75 "MEDIUM Blue"
      0 76 "MEDIUM Green"
      0 80 "----"
      0 84 "HARD Kick"
      0 85 "HARD Red"
      0 86 "HARD Yellow"
      0 87 "HARD Blue"
      0 88 "HARD Green"
      0 92 "----"
      0 96 "EXPERT Kick"
      0 97 "EXPERT Red"
      0 98 "EXPERT Yellow"
      0 99 "EXPERT Blue"
      0 100 "EXPERT Green"
      0 101 ""
      0 102 "----"
      0 103 "Solo Marker"
      0 108 "----"
      0 110 "PRO Yellow Tom"
      0 111 "PRO Blue Tom"
      0 112 "PRO Green Tom"
      0 114 "----"
      0 116 "OVERDRIVE"
      0 118 "----"
      0 120 "DRUM FILL (use all 5)"
      0 121 "DRUM FILL"
      0 122 "DRUM FILL"
      0 123 "DRUM FILL"
      0 124 "DRUM FILL"
      0 125 "----"
      0 126 "Roll Marker 1-Lane"
      0 127 "Roll Marker 2-Lane / Cym"
    >
    MAINSEND 1 0
    <FXCHAIN
      WNDRECT -973 598 878 574
      SHOW 0
      LASTSEL 1
      DOCKED 0
      BYPASS 1 0
      <VST "VSTi: ReaSynth (Cockos)" "reasynth.dll" 0 ""
        eXNlcu9e7f4AAAAAAgAAAAEAAAAAAAAAAgAAAAAAAAA4AAAAAAAAAA==
        AAAAAO++rd4N8K3eAAAAAAAAAAAAAAAAAAAAADm0SD59y9s+tbSxOQ==
        AAAAALbz/T5VpCs6AAAAAAAAAAAAUHJvZ3JhbSAxAAAAAAA=
      >
      FLOATPOS 0 0 0 0
      FXID {58F55556-9407-4062-A048-6AFCC0B53535}
      WAK 0
      BYPASS 0 0
      <VST "VSTi: RBN Preview (RBN)" "rbprev_vst64_beta.dll" 0 ""
        dnBicu5e7f4AAAAAAgAAAAEAAAAAAAAAAgAAAAAAAAAEAAAAAQAAAA==
        AAAAAAMBqgAAAAAAAAA=
      >
      FLOATPOS 32 32 659 497
      FXID {D7126437-AB1E-4109-A0FA-F2D5D0AC68DC}
      WAK 0
    >
    <ITEM
      POSITION 0.00000000000000
      SNAPOFFS 0.00000000000000
      LENGTH 96.84220114785178
      LOOP 0
      ALLTAKES 0
      COLOR 19150555
      SEL 1
      FADEIN 1 0.000000 0.000000 1 0
      FADEOUT 1 0.000000 0.000000 1 0
      MUTE 0
      IGUID {9FF11F36-E94F-4396-9C0E-8449C916EC21}
      IID 7
      NAME "PART DRUMS"
      VOLPAN 1.000000 0.000000 1.000000 -1.000000
      SOFFS 0.00000000000000 0.00000000000000
      PLAYRATE 1.00000000000000 1 0.00000000000000 -65536
      CHANMODE 0
      GUID {70A79ADF-E70C-430A-913F-E16D0CC85517}
      <SOURCE MIDI
        HASDATA 1 480 QN
        POOLEDEVTS {61FB5133-0EA2-47FF-B9A7-6AC8B69E28F9}
        <X 0 0
          /wNQQVJUIERSVU1T
        >
        <X 300 0
          /wFbbWl4IDEgZHJ1bXMwXQ==
        >
        <X 0 0
          /wFbbWl4IDAgZHJ1bXMwXQ==
        >
        <X 60 0
          /wFbbWl4IDIgZHJ1bXMwXQ==
        >
        <X 60 0
          /wFbbWl4IDMgZHJ1bXMwXQ==
        >
        <X 1500 0
          /wFbcGxheV0=
        >
        E 1640 90 62 60
        E 0 90 56 60
        E 0 90 6e 60
        E 0 90 2e 60
        E 20 80 62 00
        E 0 80 56 00
        E 0 80 6e 00
        E 0 80 2e 00
        E 80 90 62 60
        E 0 90 6e 60
        E 0 90 2f 60
        E 20 80 62 00
        E 0 80 6e 00
        E 0 80 2f 00
        E 60 90 63 60
        E 0 90 6f 60
        E 0 90 30 60
        E 20 80 63 00
        E 0 80 6f 00
        E 0 80 30 00
        E 80 90 60 60
        E 0 90 61 60
        E 0 90 64 60
        E 0 90 54 60
        E 0 90 55 60
        E 0 90 58 60
        E 0 90 49 60
        E 0 90 4c 60
        E 0 90 3d 60
        E 0 90 40 60
        E 0 90 18 60
        E 0 90 1a 60
        E 0 90 26 60
        E 60 80 60 00
        E 0 80 61 00
        E 0 80 64 00
        E 0 80 54 00
        E 0 80 55 00
        E 0 80 58 00
        E 0 80 49 00
        E 0 80 4c 00
        E 0 80 3d 00
        E 0 80 40 00
        E 0 80 18 00
        E 0 80 1a 00
        E 0 80 26 00
        E 2520 90 61 60
        E 0 90 64 60
        E 0 90 55 60
        E 0 90 58 60
        E 0 90 49 60
        E 0 90 4c 60
        E 0 90 70 60
        E 0 90 3d 60
        E 0 90 40 60
        E 0 90 1a 60
        E 0 90 33 60
        E 60 80 61 00
        E 0 80 64 00
        E 0 80 55 00
        E 0 80 58 00
        E 0 80 49 00
        E 0 80 4c 00
        E 0 80 70 00
        E 0 80 3d 00
        E 0 80 40 00
        E 0 80 1a 00
        E 0 80 33 00
        E 480 90 62 60
        E 0 90 63 60
        E 0 90 56 60
        E 0 90 57 60
        E 0 90 6e 60
        E 0 90 6f 60
        E 0 90 31 60
        E 0 90 2e 60
        E 60 80 62 00
        E 0 80 63 00
        E 0 80 56 00
        E 0 80 57 00
        E 0 80 6e 00
        E 0 80 6f 00
        E 0 80 31 00
        E 0 80 2e 00
        E 180 90 62 60
        E 0 90 63 60
        E 0 90 56 60
        E 0 90 57 60
        E 0 90 4a 60
        E 0 90 4b 60
        E 0 90 6e 60
        E 0 90 6f 60
        E 0 90 3e 60
        E 0 90 3f 60
        E 0 90 31 60
        E 0 90 2e 60
        E 60 80 62 00
        E 0 80 63 00
        E 0 80 56 00
        E 0 80 57 00
        E 0 80 4a 00
        E 0 80 4b 00
        E 0 80 6e 00
        E 0 80 6f 00
        E 0 80 3e 00
        E 0 80 3f 00
        E 0 80 31 00
        E 0 80 2e 00
        E 180 90 62 60
        E 0 90 63 60
        E 0 90 56 60
        E 0 90 57 60
        E 0 90 6e 60
        E 0 90 6f 60
        E 0 90 31 60
        E 0 90 2e 60
        E 60 80 62 00
        E 0 80 63 00
        E 0 80 56 00
        E 0 80 57 00
        E 0 80 6e 00
        E 0 80 6f 00
        E 0 80 31 00
        E 0 80 2e 00
        E 180 90 60 60
        E 0 90 64 60
        E 0 90 54 60
        E 0 90 58 60
        E 0 90 48 60
        E 0 90 4c 60
        E 0 90 40 60
        E 0 90 18 60
        E 0 90 26 60
        E 60 80 60 00
        E 0 80 64 00
        E 0 80 54 00
        E 0 80 58 00
        E 0 80 48 00
        E 0 80 4c 00
        E 0 80 40 00
        E 0 80 18 00
        E 0 80 26 00
        E 1180 90 62 60
        E 0 90 1f 60
        E 40 80 62 00
        E 0 80 1f 00
        E 80 90 60 60
        E 0 90 18 60
        E 40 80 60 00
        E 0 80 18 00
        E 40 90 61 60
        E 0 90 64 60
        E 0 90 55 60
        E 0 90 58 60
        E 0 90 49 60
        E 0 90 4c 60
        E 0 90 3d 60
        E 0 90 40 60
        E 0 90 1a 60
        E 0 90 26 60
        E 60 80 61 00
        E 0 80 64 00
        E 0 80 55 00
        E 0 80 58 00
        E 0 80 49 00
        E 0 80 4c 00
        E 0 80 3d 00
        E 0 80 40 00
        E 0 80 1a 00
        E 0 80 26 00
        E 460 90 62 60
        E 0 90 56 60
        E 0 90 4a 60
        E 0 90 3e 60
        E 0 90 1f 60
        E 40 80 62 00
        E 0 80 56 00
        E 0 80 4a 00
        E 0 80 3e 00
        E 0 80 1f 00
        E 200 90 60 60
        E 0 90 61 60
        E 0 90 54 60
        E 0 90 55 60
        E 0 90 18 60
        E 0 90 1a 60
        E 40 80 60 00
        E 0 80 61 00
        E 0 80 54 00
        E 0 80 55 00
        E 0 80 18 00
        E 0 80 1a 00
        E 200 90 60 60
        E 0 90 61 60
        E 0 90 54 60
        E 0 90 55 60
        E 0 90 18 60
        E 0 90 1a 60
        E 40 80 60 00
        E 0 80 61 00
        E 0 80 54 00
        E 0 80 55 00
        E 0 80 18 00
        E 0 80 1a 00
        E 200 90 60 60
        E 0 90 61 60
        E 0 90 18 60
        E 0 90 1a 60
        E 40 80 60 00
        E 0 80 61 00
        E 0 80 18 00
        E 0 80 1a 00
        E 180 90 61 60
        E 0 90 64 60
        E 0 90 55 60
        E 0 90 58 60
        E 0 90 49 60
        E 0 90 4c 60
        E 0 90 3d 60
        E 0 90 40 60
        E 0 90 1a 60
        E 0 90 26 60
        E 20 80 61 00
        E 0 80 64 00
        E 0 80 55 00
        E 0 80 58 00
        E 0 80 49 00
        E 0 80 4c 00
        E 0 80 3d 00
        E 0 80 40 00
        E 0 80 1a 00
        E 0 80 26 00
        E 200 90 61 60
        E 0 90 55 60
        E 0 90 1b 60
        E 20 80 61 00
        E 0 80 55 00
        E 0 80 1b 00
        E 80 90 61 60
        E 0 90 1a 60
        E 20 80 61 00
        E 0 80 1a 00
        E 80 90 61 60
        E 0 90 1b 60
        E 20 80 61 00
        E 0 80 1b 00
        E 80 90 61 60
        E 0 90 1a 60
        E 20 80 61 00
        E 0 80 1a 00
        E 80 90 61 60
        E 0 90 1b 60
        E 20 80 61 00
        E 0 80 1b 00
        E 80 90 61 60
        E 0 90 55 60
        E 0 90 1a 60
        E 20 80 61 00
        E 0 80 55 00
        E 0 80 1a 00
        E 80 90 61 60
        E 0 90 1b 60
        E 20 80 61 00
        E 0 80 1b 00
        E 100 90 60 60
        E 0 90 64 60
        E 0 90 54 60
        E 0 90 58 60
        E 0 90 48 60
        E 0 90 4c 60
        E 0 90 40 60
        E 0 90 18 60
        E 0 90 2c 60
        E 60 80 60 00
        E 0 80 64 00
        E 0 80 54 00
        E 0 80 58 00
        E 0 80 48 00
        E 0 80 4c 00
        E 0 80 40 00
        E 0 80 18 00
        E 0 80 2c 00
        E 420 90 61 60
        E 0 90 62 60
        E 0 90 55 60
        E 0 90 56 60
        E 0 90 49 60
        E 0 90 4a 60
        E 0 90 3d 60
        E 0 90 3e 60
        E 0 90 1a 60
        E 0 90 1f 60
        E 60 80 61 00
        E 0 80 62 00
        E 0 80 55 00
        E 0 80 56 00
        E 0 80 49 00
        E 0 80 4a 00
        E 0 80 3d 00
        E 0 80 3e 00
        E 0 80 1a 00
        E 0 80 1f 00
        E 180 90 62 60
        E 0 90 56 60
        E 0 90 1f 60
        E 60 80 62 00
        E 0 80 56 00
        E 0 80 1f 00
        E 60 90 61 60
        E 0 90 1a 60
        E 60 80 61 00
        E 0 80 1a 00
        E 60 90 60 60
        E 0 90 62 60
        E 0 90 54 60
        E 0 90 56 60
        E 0 90 48 60
        E 0 90 4a 60
        E 0 90 3e 60
        E 0 90 18 60
        E 0 90 1f 60
        E 60 80 60 00
        E 0 80 62 00
        E 0 80 54 00
        E 0 80 56 00
        E 0 80 48 00
        E 0 80 4a 00
        E 0 80 3e 00
        E 0 80 18 00
        E 0 80 1f 00
        E 180 90 60 60
        E 0 90 62 60
        E 0 90 54 60
        E 0 90 56 60
        E 0 90 18 60
        E 0 90 1f 60
        E 60 80 60 00
        E 0 80 62 00
        E 0 80 54 00
        E 0 80 56 00
        E 0 80 18 00
        E 0 80 1f 00
        E 180 90 61 60
        E 0 90 62 60
        E 0 90 55 60
        E 0 90 56 60
        E 0 90 49 60
        E 0 90 4a 60
        E 0 90 3d 60
        E 0 90 3e 60
        E 0 90 1a 60
        E 0 90 1f 60
        E 60 80 61 00
        E 0 80 62 00
        E 0 80 55 00
        E 0 80 56 00
        E 0 80 49 00
        E 0 80 4a 00
        E 0 80 3d 00
        E 0 80 3e 00
        E 0 80 1a 00
        E 0 80 1f 00
        E 180 90 62 60
        E 0 90 56 60
        E 0 90 1f 60
        E 60 80 62 00
        E 0 80 56 00
        E 0 80 1f 00
        E 180 90 60 60
        E 0 90 62 60
        E 0 90 54 60
        E 0 90 56 60
        E 0 90 48 60
        E 0 90 4a 60
        E 0 90 3e 60
        E 0 90 18 60
        E 0 90 1f 60
        E 60 80 60 00
        E 0 80 62 00
        E 0 80 54 00
        E 0 80 56 00
        E 0 80 48 00
        E 0 80 4a 00
        E 0 80 3e 00
        E 0 80 18 00
        E 0 80 1f 00
        E 180 90 60 60
        E 0 90 62 60
        E 0 90 54 60
        E 0 90 56 60
        E 0 90 18 60
        E 0 90 1f 60
        E 60 80 60 00
        E 0 80 62 00
        E 0 80 54 00
        E 0 80 56 00
        E 0 80 18 00
        E 0 80 1f 00
        E 180 90 61 60
        E 0 90 62 60
        E 0 90 55 60
        E 0 90 56 60
        E 0 90 49 60
        E 0 90 4a 60
        E 0 90 3d 60
        E 0 90 3e 60
        E 0 90 1a 60
        E 0 90 1f 60
        E 60 80 61 00
        E 0 80 62 00
        E 0 80 55 00
        E 0 80 56 00
        E 0 80 49 00
        E 0 80 4a 00
        E 0 80 3d 00
        E 0 80 3e 00
        E 0 80 1a 00
        E 0 80 1f 00
        E 180 90 60 60
        E 0 90 62 60
        E 0 90 54 60
        E 0 90 56 60
        E 0 90 18 60
        E 0 90 1f 60
        E 60 80 60 00
        E 0 80 62 00
        E 0 80 54 00
        E 0 80 56 00
        E 0 80 18 00
        E 0 80 1f 00
        E 180 90 62 60
        E 0 90 56 60
        E 0 90 4a 60
        E 0 90 3e 60
        E 0 90 1f 60
        E 60 80 62 00
        E 0 80 56 00
        E 0 80 4a 00
        E 0 80 3e 00
        E 0 80 1f 00
        E 180 90 60 60
        E 0 90 62 60
        E 0 90 54 60
        E 0 90 56 60
        E 0 90 18 60
        E 0 90 1f 60
        E 60 80 60 00
        E 0 80 62 00
        E 0 80 54 00
        E 0 80 56 00
        E 0 80 18 00
        E 0 80 1f 00
        E 180 90 61 60
        E 0 90 62 60
        E 0 90 55 60
        E 0 90 56 60
        E 0 90 49 60
        E 0 90 4a 60
        E 0 90 3d 60
        E 0 90 3e 60
        E 0 90 1a 60
        E 0 90 1f 60
        E 60 80 61 00
        E 0 80 62 00
        E 0 80 55 00
        E 0 80 56 00
        E 0 80 49 00
        E 0 80 4a 00
        E 0 80 3d 00
        E 0 80 3e 00
        E 0 80 1a 00
        E 0 80 1f 00
        E 180 90 62 60
        E 0 90 56 60
        E 0 90 1f 60
        E 60 80 62 00
        E 0 80 56 00
        E 0 80 1f 00
        E 60 90 61 60
        E 0 90 1a 60
        E 60 80 61 00
        E 0 80 1a 00
        E 60 90 60 60
        E 0 90 62 60
        E 0 90 54 60
        E 0 90 56 60
        E 0 90 48 60
        E 0 90 4a 60
        E 0 90 3e 60
        E 0 90 18 60
        E 0 90 1f 60
        E 60 80 60 00
        E 0 80 62 00
        E 0 80 54 00
        E 0 80 56 00
        E 0 80 48 00
        E 0 80 4a 00
        E 0 80 3e 00
        E 0 80 18 00
        E 0 80 1f 00
        E 180 90 62 60
        E 0 90 56 60
        E 0 90 1f 60
        E 60 80 62 00
        E 0 80 56 00
        E 0 80 1f 00
        E 180 90 61 60
        E 0 90 62 60
        E 0 90 55 60
        E 0 90 56 60
        E 0 90 49 60
        E 0 90 4a 60
        E 0 90 3d 60
        E 0 90 3e 60
        E 0 90 1a 60
        E 0 90 1f 60
        E 60 80 61 00
        E 0 80 62 00
        E 0 80 55 00
        E 0 80 56 00
        E 0 80 49 00
        E 0 80 4a 00
        E 0 80 3d 00
        E 0 80 3e 00
        E 0 80 1a 00
        E 0 80 1f 00
        E 180 90 62 60
        E 0 90 56 60
        E 0 90 1f 60
        E 60 80 62 00
        E 0 80 56 00
        E 0 80 1f 00
        E 60 90 61 60
        E 0 90 1a 60
        E 60 80 61 00
        E 0 80 1a 00
        E 60 90 60 60
        E 0 90 62 60
        E 0 90 54 60
        E 0 90 56 60
        E 0 90 48 60
        E 0 90 4a 60
        E 0 90 3e 60
        E 0 90 18 60
        E 0 90 1f 60
        E 60 80 60 00
        E 0 80 62 00
        E 0 80 54 00
        E 0 80 56 00
        E 0 80 48 00
        E 0 80 4a 00
        E 0 80 3e 00
        E 0 80 18 00
        E 0 80 1f 00
        E 180 90 60 60
        E 0 90 62 60
        E 0 90 54 60
        E 0 90 56 60
        E 0 90 18 60
        E 0 90 1f 60
        E 60 80 60 00
        E 0 80 62 00
        E 0 80 54 00
        E 0 80 56 00
        E 0 80 18 00
        E 0 80 1f 00
        E 180 90 61 60
        E 0 90 62 60
        E 0 90 55 60
        E 0 90 56 60
        E 0 90 49 60
        E 0 90 4a 60
        E 0 90 3d 60
        E 0 90 3e 60
        E 0 90 1a 60
        E 0 90 1f 60
        E 60 80 61 00
        E 0 80 62 00
        E 0 80 55 00
        E 0 80 56 00
        E 0 80 49 00
        E 0 80 4a 00
        E 0 80 3d 00
        E 0 80 3e 00
        E 0 80 1a 00
        E 0 80 1f 00
        E 180 90 62 60
        E 0 90 56 60
        E 0 90 1f 60
        E 60 80 62 00
        E 0 80 56 00
        E 0 80 1f 00
        E 180 90 60 60
        E 0 90 62 60
        E 0 90 54 60
        E 0 90 56 60
        E 0 90 48 60
        E 0 90 4a 60
        E 0 90 3e 60
        E 0 90 18 60
        E 0 90 1f 60
        E 60 80 60 00
        E 0 80 62 00
        E 0 80 54 00
        E 0 80 56 00
        E 0 80 48 00
        E 0 80 4a 00
        E 0 80 3e 00
        E 0 80 18 00
        E 0 80 1f 00
        E 180 90 60 60
        E 0 90 62 60
        E 0 90 54 60
        E 0 90 56 60
        E 0 90 18 60
        E 0 90 1f 60
        E 60 80 60 00
        E 0 80 62 00
        E 0 80 54 00
        E 0 80 56 00
        E 0 80 18 00
        E 0 80 1f 00
        E 180 90 61 60
        E 0 90 62 60
        E 0 90 55 60
        E 0 90 56 60
        E 0 90 49 60
        E 0 90 4a 60
        E 0 90 3d 60
        E 0 90 3e 60
        E 0 90 1a 60
        E 0 90 1f 60
        E 60 80 61 00
        E 0 80 62 00
        E 0 80 55 00
        E 0 80 56 00
        E 0 80 49 00
        E 0 80 4a 00
        E 0 80 3d 00
        E 0 80 3e 00
        E 0 80 1a 00
        E 0 80 1f 00
        E 180 90 60 60
        E 0 90 62 60
        E 0 90 54 60
        E 0 90 56 60
        E 0 90 18 60
        E 0 90 1f 60
        E 60 80 60 00
        E 0 80 62 00
        E 0 80 54 00
        E 0 80 56 00
        E 0 80 18 00
        E 0 80 1f 00
        E 181 90 62 60
        E 0 90 56 60
        E 0 90 4a 60
        E 0 90 3e 60
        E 0 90 1f 60
        E 60 80 62 00
        E 0 80 56 00
        E 0 80 4a 00
        E 0 80 3e 00
        E 0 80 1f 00
        E 179 90 60 60
        E 0 90 62 60
        E 0 90 54 60
        E 0 90 56 60
        E 0 90 18 60
        E 0 90 1f 60
        E 60 80 60 00
        E 0 80 62 00
        E 0 80 54 00
        E 0 80 56 00
        E 0 80 18 00
        E 0 80 1f 00
        E 180 90 61 60
        E 0 90 62 60
        E 0 90 55 60
        E 0 90 56 60
        E 0 90 49 60
        E 0 90 4a 60
        E 0 90 3d 60
        E 0 90 3e 60
        E 0 90 1a 60
        E 0 90 1f 60
        E 60 80 61 00
        E 0 80 62 00
        E 0 80 55 00
        E 0 80 56 00
        E 0 80 49 00
        E 0 80 4a 00
        E 0 80 3d 00
        E 0 80 3e 00
        E 0 80 1a 00
        E 0 80 1f 00
        E 181 90 62 60
        E 0 90 56 60
        E 0 90 1f 60
        E 60 80 62 00
        E 0 80 56 00
        E 0 80 1f 00
        E 59 90 61 60
        E 0 90 1a 60
        E 60 80 61 00
        E 0 80 1a 00
        E 60 90 60 60
        E 0 90 64 60
        E 0 90 54 60
        E 0 90 58 60
        E 0 90 48 60
        E 0 90 4c 60
        E 0 90 40 60
        E 0 90 18 60
        E 0 90 26 60
        E 60 80 60 00
        E 0 80 54 00
        E 0 80 48 00
        E 0 80 18 00
        E 1 80 64 00
        E 0 80 58 00
        E 0 80 4c 00
        E 0 80 40 00
        E 0 80 26 00
        E 179 90 62 60
        E 0 90 56 60
        E 0 90 1f 60
        E 60 80 62 00
        E 0 80 56 00
        E 0 80 1f 00
        E 180 90 61 60
        E 0 90 62 60
        E 0 90 55 60
        E 0 90 56 60
        E 0 90 49 60
        E 0 90 4a 60
        E 0 90 3d 60
        E 0 90 3e 60
        E 0 90 1a 60
        E 0 90 1f 60
        E 60 80 61 00
        E 0 80 62 00
        E 0 80 55 00
        E 0 80 56 00
        E 0 80 49 00
        E 0 80 4a 00
        E 0 80 3d 00
        E 0 80 3e 00
        E 0 80 1a 00
        E 0 80 1f 00
        E 181 90 62 60
        E 0 90 56 60
        E 0 90 1f 60
        E 60 80 62 00
        E 0 80 56 00
        E 0 80 1f 00
        E 59 90 61 60
        E 0 90 1a 60
        E 60 80 61 00
        E 0 80 1a 00
        E 60 90 60 60
        E 0 90 62 60
        E 0 90 54 60
        E 0 90 56 60
        E 0 90 48 60
        E 0 90 4a 60
        E 0 90 3e 60
        E 0 90 18 60
        E 0 90 1f 60
        E 60 80 60 00
        E 0 80 62 00
        E 0 80 54 00
        E 0 80 56 00
        E 0 80 48 00
        E 0 80 4a 00
        E 0 80 3e 00
        E 0 80 18 00
        E 0 80 1f 00
        E 180 90 60 60
        E 0 90 62 60
        E 0 90 54 60
        E 0 90 56 60
        E 0 90 18 60
        E 0 90 1f 60
        E 60 80 60 00
        E 0 80 62 00
        E 0 80 54 00
        E 0 80 56 00
        E 0 80 18 00
        E 0 80 1f 00
        E 180 90 61 60
        E 0 90 62 60
        E 0 90 55 60
        E 0 90 56 60
        E 0 90 49 60
        E 0 90 4a 60
        E 0 90 3d 60
        E 0 90 3e 60
        E 0 90 1a 60
        E 0 90 1f 60
        E 60 80 61 00
        E 0 80 62 00
        E 0 80 55 00
        E 0 80 56 00
        E 0 80 49 00
        E 0 80 4a 00
        E 0 80 3d 00
        E 0 80 3e 00
        E 0 80 1a 00
        E 0 80 1f 00
        E 180 90 62 60
        E 0 90 56 60
        E 0 90 1f 60
        E 60 80 62 00
        E 0 80 56 00
        E 0 80 1f 00
        E 180 90 60 60
        E 0 90 62 60
        E 0 90 54 60
        E 0 90 56 60
        E 0 90 48 60
        E 0 90 4a 60
        E 0 90 3e 60
        E 0 90 18 60
        E 0 90 1f 60
        E 60 80 60 00
        E 0 80 54 00
        E 0 80 48 00
        E 0 80 18 00
        E 1 80 62 00
        E 0 80 56 00
        E 0 80 4a 00
        E 0 80 3e 00
        E 0 80 1f 00
        E 179 90 60 60
        E 0 90 62 60
        E 0 90 54 60
        E 0 90 56 60
        E 0 90 18 60
        E 0 90 1f 60
        E 60 80 60 00
        E 0 80 62 00
        E 0 80 54 00
        E 0 80 56 00
        E 0 80 18 00
        E 0 80 1f 00
        E 180 90 61 60
        E 0 90 62 60
        E 0 90 55 60
        E 0 90 56 60
        E 0 90 49 60
        E 0 90 4a 60
        E 0 90 3d 60
        E 0 90 3e 60
        E 0 90 1a 60
        E 0 90 1f 60
        E 60 80 61 00
        E 0 80 62 00
        E 0 80 55 00
        E 0 80 56 00
        E 0 80 49 00
        E 0 80 4a 00
        E 0 80 3d 00
        E 0 80 3e 00
        E 0 80 1a 00
        E 0 80 1f 00
        E 180 90 60 60
        E 0 90 62 60
        E 0 90 54 60
        E 0 90 56 60
        E 0 90 18 60
        E 0 90 1f 60
        E 60 80 60 00
        E 0 80 62 00
        E 0 80 54 00
        E 0 80 56 00
        E 0 80 18 00
        E 0 80 1f 00
        E 180 90 62 60
        E 0 90 56 60
        E 0 90 4a 60
        E 0 90 3e 60
        E 0 90 1f 60
        E 60 80 62 00
        E 0 80 56 00
        E 0 80 4a 00
        E 0 80 3e 00
        E 0 80 1f 00
        E 180 90 60 60
        E 0 90 62 60
        E 0 90 54 60
        E 0 90 56 60
        E 0 90 18 60
        E 0 90 1f 60
        E 60 80 60 00
        E 0 80 62 00
        E 0 80 54 00
        E 0 80 56 00
        E 0 80 18 00
        E 0 80 1f 00
        E 180 90 61 60
        E 0 90 62 60
        E 0 90 55 60
        E 0 90 56 60
        E 0 90 49 60
        E 0 90 4a 60
        E 0 90 3d 60
        E 0 90 3e 60
        E 0 90 1a 60
        E 0 90 1f 60
        E 60 80 61 00
        E 0 80 62 00
        E 0 80 55 00
        E 0 80 56 00
        E 0 80 49 00
        E 0 80 4a 00
        E 0 80 3d 00
        E 0 80 3e 00
        E 0 80 1a 00
        E 0 80 1f 00
        E 180 90 62 60
        E 0 90 56 60
        E 0 90 1f 60
        E 60 80 62 00
        E 0 80 56 00
        E 0 80 1f 00
        E 60 90 61 60
        E 0 90 1a 60
        E 60 80 61 00
        E 0 80 1a 00
        E 60 90 60 60
        E 0 90 64 60
        E 0 90 54 60
        E 0 90 58 60
        E 0 90 48 60
        E 0 90 4c 60
        E 0 90 40 60
        E 0 90 18 60
        E 0 90 26 60
        E 60 80 60 00
        E 0 80 54 00
        E 0 80 48 00
        E 0 80 18 00
        E 1 80 64 00
        E 0 80 58 00
        E 0 80 4c 00
        E 0 80 40 00
        E 0 80 26 00
        E 179 90 62 60
        E 0 90 56 60
        E 0 90 1f 60
        E 60 80 62 00
        E 0 80 56 00
        E 0 80 1f 00
        E 180 90 61 60
        E 0 90 62 60
        E 0 90 55 60
        E 0 90 56 60
        E 0 90 49 60
        E 0 90 4a 60
        E 0 90 3d 60
        E 0 90 3e 60
        E 0 90 1a 60
        E 0 90 1f 60
        E 60 80 61 00
        E 0 80 62 00
        E 0 80 55 00
        E 0 80 56 00
        E 0 80 49 00
        E 0 80 4a 00
        E 0 80 3d 00
        E 0 80 3e 00
        E 0 80 1a 00
        E 0 80 1f 00
        E 180 90 62 60
        E 0 90 56 60
        E 0 90 1f 60
        E 60 80 62 00
        E 0 80 56 00
        E 0 80 1f 00
        E 180 90 60 60
        E 0 90 62 60
        E 0 90 54 60
        E 0 90 56 60
        E 0 90 48 60
        E 0 90 4a 60
        E 0 90 3e 60
        E 0 90 18 60
        E 0 90 1f 60
        E 60 80 60 00
        E 0 80 62 00
        E 0 80 54 00
        E 0 80 56 00
        E 0 80 48 00
        E 0 80 4a 00
        E 0 80 3e 00
        E 0 80 18 00
        E 0 80 1f 00
        E 180 90 60 60
        E 0 90 62 60
        E 0 90 54 60
        E 0 90 56 60
        E 0 90 18 60
        E 0 90 1f 60
        E 60 80 60 00
        E 0 80 62 00
        E 0 80 54 00
        E 0 80 56 00
        E 0 80 18 00
        E 0 80 1f 00
        E 180 90 61 60
        E 0 90 62 60
        E 0 90 55 60
        E 0 90 56 60
        E 0 90 49 60
        E 0 90 4a 60
        E 0 90 3d 60
        E 0 90 3e 60
        E 0 90 1a 60
        E 0 90 1f 60
        E 60 80 61 00
        E 0 80 62 00
        E 0 80 55 00
        E 0 80 56 00
        E 0 80 49 00
        E 0 80 4a 00
        E 0 80 3d 00
        E 0 80 3e 00
        E 0 80 1a 00
        E 0 80 1f 00
        E 180 90 60 60
        E 0 90 62 60
        E 0 90 54 60
        E 0 90 56 60
        E 0 90 18 60
        E 0 90 1f 60
        E 60 80 60 00
        E 0 80 62 00
        E 0 80 54 00
        E 0 80 56 00
        E 0 80 18 00
        E 0 80 1f 00
        E 180 90 61 60
        E 0 90 64 60
        E 0 90 55 60
        E 0 90 58 60
        E 0 90 49 60
        E 0 90 4c 60
        E 0 90 3d 60
        E 0 90 40 60
        E 0 90 1a 60
        E 0 90 26 60
        E 60 80 61 00
        E 0 80 64 00
        E 0 80 55 00
        E 0 80 58 00
        E 0 80 49 00
        E 0 80 4c 00
        E 0 80 3d 00
        E 0 80 40 00
        E 0 80 1a 00
        E 0 80 26 00
        E 180 90 61 60
        E 0 90 55 60
        E 0 90 1a 60
        E 60 80 61 00
        E 0 80 55 00
        E 0 80 1a 00
        E 180 90 61 60
        E 0 90 55 60
        E 0 90 49 60
        E 0 90 3d 60
        E 0 90 1a 60
        E 60 80 61 00
        E 0 80 55 00
        E 0 80 49 00
        E 0 80 3d 00
        E 0 80 1a 00
        E 180 90 61 60
        E 0 90 55 60
        E 0 90 1a 60
        E 60 80 61 00
        E 0 80 55 00
        E 0 80 1a 00
        E 180 90 61 60
        E 0 90 55 60
        E 0 90 49 60
        E 0 90 3d 60
        E 0 90 1a 60
        E 60 80 61 00
        E 0 80 55 00
        E 0 80 49 00
        E 0 80 3d 00
        E 0 80 1a 00
        E 180 90 61 60
        E 0 90 55 60
        E 0 90 1a 60
        E 60 80 61 00
        E 0 80 55 00
        E 0 80 1a 00
        E 180 90 61 60
        E 0 90 55 60
        E 0 90 49 60
        E 0 90 3d 60
        E 0 90 1b 60
        E 40 80 61 00
        E 0 80 55 00
        E 0 80 49 00
        E 0 80 3d 00
        E 0 80 1b 00
        E 80 90 61 60
        E 0 90 1a 60
        E 40 80 61 00
        E 0 80 1a 00
        E 80 90 61 60
        E 0 90 55 60
        E 0 90 1b 60
        E 40 80 61 00
        E 0 80 55 00
        E 0 80 1b 00
        E 80 90 61 60
        E 0 90 1a 60
        E 40 80 61 00
        E 0 80 1a 00
        E 80 90 60 60
        E 0 90 64 60
        E 0 90 54 60
        E 0 90 58 60
        E 0 90 48 60
        E 0 90 4c 60
        E 0 90 40 60
        E 0 90 18 60
        E 0 90 26 60
        E 60 80 60 00
        E 0 80 64 00
        E 0 80 54 00
        E 0 80 58 00
        E 0 80 48 00
        E 0 80 4c 00
        E 0 80 40 00
        E 0 80 18 00
        E 0 80 26 00
        E 180 90 62 60
        E 0 90 56 60
        E 0 90 1f 60
        E 60 80 62 00
        E 0 80 56 00
        E 0 80 1f 00
        E 180 90 61 60
        E 0 90 62 60
        E 0 90 55 60
        E 0 90 56 60
        E 0 90 49 60
        E 0 90 4a 60
        E 0 90 3d 60
        E 0 90 3e 60
        E 0 90 1a 60
        E 0 90 1f 60
        E 60 80 61 00
        E 0 80 62 00
        E 0 80 55 00
        E 0 80 56 00
        E 0 80 49 00
        E 0 80 4a 00
        E 0 80 3d 00
        E 0 80 3e 00
        E 0 80 1a 00
        E 0 80 1f 00
        E 180 90 62 60
        E 0 90 56 60
        E 0 90 1f 60
        E 60 80 62 00
        E 0 80 56 00
        E 0 80 1f 00
        E 180 90 60 60
        E 0 90 62 60
        E 0 90 54 60
        E 0 90 56 60
        E 0 90 48 60
        E 0 90 4a 60
        E 0 90 3e 60
        E 0 90 18 60
        E 0 90 1f 60
        E 60 80 60 00
        E 0 80 62 00
        E 0 80 54 00
        E 0 80 56 00
        E 0 80 48 00
        E 0 80 4a 00
        E 0 80 3e 00
        E 0 80 18 00
        E 0 80 1f 00
        E 180 90 60 60
        E 0 90 62 60
        E 0 90 54 60
        E 0 90 56 60
        E 0 90 18 60
        E 0 90 1f 60
        E 60 80 60 00
        E 0 80 62 00
        E 0 80 54 00
        E 0 80 56 00
        E 0 80 18 00
        E 0 80 1f 00
        E 180 90 61 60
        E 0 90 62 60
        E 0 90 55 60
        E 0 90 56 60
        E 0 90 49 60
        E 0 90 4a 60
        E 0 90 3d 60
        E 0 90 3e 60
        E 0 90 1a 60
        E 0 90 1f 60
        E 60 80 61 00
        E 0 80 62 00
        E 0 80 55 00
        E 0 80 56 00
        E 0 80 49 00
        E 0 80 4a 00
        E 0 80 3d 00
        E 0 80 3e 00
        E 0 80 1a 00
        E 0 80 1f 00
        E 180 90 62 60
        E 0 90 56 60
        E 0 90 1f 60
        E 60 80 62 00
        E 0 80 56 00
        E 0 80 1f 00
        E 180 90 60 60
        E 0 90 62 60
        E 0 90 54 60
        E 0 90 56 60
        E 0 90 48 60
        E 0 90 4a 60
        E 0 90 3e 60
        E 0 90 18 60
        E 0 90 1f 60
        E 60 80 60 00
        E 0 80 54 00
        E 0 80 48 00
        E 0 80 18 00
        E 1 80 62 00
        E 0 80 56 00
        E 0 80 4a 00
        E 0 80 3e 00
        E 0 80 1f 00
        E 180 90 62 60
        E 0 90 56 60
        E 0 90 1f 60
        E 60 80 62 00
        E 0 80 56 00
        E 0 80 1f 00
        E 179 90 61 60
        E 0 90 62 60
        E 0 90 55 60
        E 0 90 56 60
        E 0 90 49 60
        E 0 90 4a 60
        E 0 90 3d 60
        E 0 90 3e 60
        E 0 90 1a 60
        E 0 90 1f 60
        E 60 80 61 00
        E 0 80 62 00
        E 0 80 55 00
        E 0 80 56 00
        E 0 80 49 00
        E 0 80 4a 00
        E 0 80 3d 00
        E 0 80 3e 00
        E 0 80 1a 00
        E 0 80 1f 00
        E 181 90 62 60
        E 0 90 56 60
        E 0 90 1f 60
        E 60 80 62 00
        E 0 80 56 00
        E 0 80 1f 00
        E 179 90 60 60
        E 0 90 62 60
        E 0 90 54 60
        E 0 90 56 60
        E 0 90 48 60
        E 0 90 4a 60
        E 0 90 3e 60
        E 0 90 18 60
        E 0 90 1f 60
        E 60 80 60 00
        E 0 80 62 00
        E 0 80 54 00
        E 0 80 56 00
        E 0 80 48 00
        E 0 80 4a 00
        E 0 80 3e 00
        E 0 80 18 00
        E 0 80 1f 00
        E 180 90 60 60
        E 0 90 62 60
        E 0 90 54 60
        E 0 90 56 60
        E 0 90 18 60
        E 0 90 1f 60
        E 60 80 60 00
        E 0 80 62 00
        E 0 80 54 00
        E 0 80 56 00
        E 0 80 18 00
        E 0 80 1f 00
        E 180 90 61 60
        E 0 90 62 60
        E 0 90 55 60
        E 0 90 56 60
        E 0 90 49 60
        E 0 90 4a 60
        E 0 90 3d 60
        E 0 90 3e 60
        E 0 90 1a 60
        E 0 90 1f 60
        E 60 80 61 00
        E 0 80 62 00
        E 0 80 55 00
        E 0 80 56 00
        E 0 80 49 00
        E 0 80 4a 00
        E 0 80 3d 00
        E 0 80 3e 00
        E 0 80 1a 00
        E 0 80 1f 00
        E 180 90 60 60
        E 0 90 62 60
        E 0 90 54 60
        E 0 90 56 60
        E 0 90 18 60
        E 0 90 1f 60
        E 60 80 60 00
        E 0 80 62 00
        E 0 80 54 00
        E 0 80 56 00
        E 0 80 18 00
        E 0 80 1f 00
        E 180 90 62 60
        E 0 90 56 60
        E 0 90 4a 60
        E 0 90 3e 60
        E 0 90 1f 60
        E 61 80 62 00
        E 0 80 56 00
        E 0 80 4a 00
        E 0 80 3e 00
        E 0 80 1f 00
        E 179 90 60 60
        E 0 90 62 60
        E 0 90 54 60
        E 0 90 56 60
        E 0 90 18 60
        E 0 90 1f 60
        E 60 80 60 00
        E 0 80 62 00
        E 0 80 54 00
        E 0 80 56 00
        E 0 80 18 00
        E 0 80 1f 00
        E 180 90 61 60
        E 0 90 62 60
        E 0 90 55 60
        E 0 90 56 60
        E 0 90 49 60
        E 0 90 4a 60
        E 0 90 3d 60
        E 0 90 3e 60
        E 0 90 1a 60
        E 0 90 1f 60
        E 60 80 61 00
        E 0 80 62 00
        E 0 80 55 00
        E 0 80 56 00
        E 0 80 49 00
        E 0 80 4a 00
        E 0 80 3d 00
        E 0 80 3e 00
        E 0 80 1a 00
        E 0 80 1f 00
        E 180 90 62 60
        E 0 90 56 60
        E 0 90 1f 60
        E 60 80 62 00
        E 0 80 56 00
        E 0 80 1f 00
        E 180 90 60 60
        E 0 90 62 60
        E 0 90 54 60
        E 0 90 56 60
        E 0 90 48 60
        E 0 90 4a 60
        E 0 90 3e 60
        E 0 90 18 60
        E 0 90 1f 60
        E 60 80 60 00
        E 0 80 62 00
        E 0 80 54 00
        E 0 80 56 00
        E 0 80 48 00
        E 0 80 4a 00
        E 0 80 3e 00
        E 0 80 18 00
        E 0 80 1f 00
        E 180 90 60 60
        E 0 90 62 60
        E 0 90 54 60
        E 0 90 56 60
        E 0 90 18 60
        E 0 90 1f 60
        E 60 80 60 00
        E 0 80 62 00
        E 0 80 54 00
        E 0 80 56 00
        E 0 80 18 00
        E 0 80 1f 00
        E 180 90 61 60
        E 0 90 62 60
        E 0 90 55 60
        E 0 90 56 60
        E 0 90 49 60
        E 0 90 4a 60
        E 0 90 3d 60
        E 0 90 3e 60
        E 0 90 1a 60
        E 0 90 1f 60
        E 60 80 61 00
        E 0 80 62 00
        E 0 80 55 00
        E 0 80 56 00
        E 0 80 49 00
        E 0 80 4a 00
        E 0 80 3d 00
        E 0 80 3e 00
        E 0 80 1a 00
        E 0 80 1f 00
        E 179 90 62 60
        E 0 90 56 60
        E 0 90 1f 60
        E 61 80 62 00
        E 0 80 56 00
        E 0 80 1f 00
        E 180 90 60 60
        E 0 90 62 60
        E 0 90 54 60
        E 0 90 56 60
        E 0 90 48 60
        E 0 90 4a 60
        E 0 90 3e 60
        E 0 90 18 60
        E 0 90 1f 60
        E 60 80 60 00
        E 0 80 54 00
        E 0 80 48 00
        E 0 80 18 00
        E 1 80 62 00
        E 0 80 56 00
        E 0 80 4a 00
        E 0 80 3e 00
        E 0 80 1f 00
        E 180 90 62 60
        E 0 90 56 60
        E 0 90 1f 60
        E 60 80 62 00
        E 0 80 56 00
        E 0 80 1f 00
        E 179 90 61 60
        E 0 90 62 60
        E 0 90 55 60
        E 0 90 56 60
        E 0 90 49 60
        E 0 90 4a 60
        E 0 90 3d 60
        E 0 90 3e 60
        E 0 90 1a 60
        E 0 90 1f 60
        E 60 80 61 00
        E 0 80 62 00
        E 0 80 55 00
        E 0 80 56 00
        E 0 80 49 00
        E 0 80 4a 00
        E 0 80 3d 00
        E 0 80 3e 00
        E 0 80 1a 00
        E 0 80 1f 00
        E 180 90 62 60
        E 0 90 56 60
        E 0 90 1f 60
        E 60 80 62 00
        E 0 80 56 00
        E 0 80 1f 00
        E 180 90 60 60
        E 0 90 62 60
        E 0 90 54 60
        E 0 90 56 60
        E 0 90 48 60
        E 0 90 4a 60
        E 0 90 3e 60
        E 0 90 18 60
        E 0 90 1f 60
        E 60 80 60 00
        E 0 80 62 00
        E 0 80 54 00
        E 0 80 56 00
        E 0 80 48 00
        E 0 80 4a 00
        E 0 80 3e 00
        E 0 80 18 00
        E 0 80 1f 00
        E 180 90 60 60
        E 0 90 62 60
        E 0 90 54 60
        E 0 90 56 60
        E 0 90 18 60
        E 0 90 1f 60
        E 60 80 60 00
        E 0 80 62 00
        E 0 80 54 00
        E 0 80 56 00
        E 0 80 18 00
        E 0 80 1f 00
        E 180 90 61 60
        E 0 90 62 60
        E 0 90 55 60
        E 0 90 56 60
        E 0 90 49 60
        E 0 90 4a 60
        E 0 90 3d 60
        E 0 90 3e 60
        E 0 90 1a 60
        E 0 90 1f 60
        E 60 80 61 00
        E 0 80 62 00
        E 0 80 55 00
        E 0 80 56 00
        E 0 80 49 00
        E 0 80 4a 00
        E 0 80 3d 00
        E 0 80 3e 00
        E 0 80 1a 00
        E 0 80 1f 00
        E 180 90 60 60
        E 0 90 62 60
        E 0 90 54 60
        E 0 90 56 60
        E 0 90 18 60
        E 0 90 1f 60
        E 60 80 60 00
        E 0 80 62 00
        E 0 80 54 00
        E 0 80 56 00
        E 0 80 18 00
        E 0 80 1f 00
        E 180 90 60 60
        E 0 90 64 60
        E 0 90 54 60
        E 0 90 58 60
        E 0 90 48 60
        E 0 90 4c 60
        E 0 90 40 60
        E 0 90 18 60
        E 0 90 26 60
        E 60 80 60 00
        E 0 80 54 00
        E 0 80 48 00
        E 0 80 18 00
        E 1 80 64 00
        E 0 80 58 00
        E 0 80 4c 00
        E 0 80 40 00
        E 0 80 26 00
        E 180 90 62 60
        E 0 90 56 60
        E 0 90 1f 60
        E 60 80 62 00
        E 0 80 56 00
        E 0 80 1f 00
        E 179 90 61 60
        E 0 90 62 60
        E 0 90 55 60
        E 0 90 56 60
        E 0 90 49 60
        E 0 90 4a 60
        E 0 90 3d 60
        E 0 90 3e 60
        E 0 90 1a 60
        E 0 90 1f 60
        E 60 80 61 00
        E 0 80 62 00
        E 0 80 55 00
        E 0 80 56 00
        E 0 80 49 00
        E 0 80 4a 00
        E 0 80 3d 00
        E 0 80 3e 00
        E 0 80 1a 00
        E 0 80 1f 00
        E 180 90 62 60
        E 0 90 56 60
        E 0 90 1f 60
        E 60 80 62 00
        E 0 80 56 00
        E 0 80 1f 00
        E 180 90 60 60
        E 0 90 62 60
        E 0 90 54 60
        E 0 90 56 60
        E 0 90 48 60
        E 0 90 4a 60
        E 0 90 3e 60
        E 0 90 18 60
        E 0 90 1f 60
        E 60 80 60 00
        E 0 80 62 00
        E 0 80 54 00
        E 0 80 56 00
        E 0 80 48 00
        E 0 80 4a 00
        E 0 80 3e 00
        E 0 80 18 00
        E 0 80 1f 00
        E 180 90 60 60
        E 0 90 62 60
        E 0 90 54 60
        E 0 90 56 60
        E 0 90 18 60
        E 0 90 1f 60
        E 60 80 60 00
        E 0 80 62 00
        E 0 80 54 00
        E 0 80 56 00
        E 0 80 18 00
        E 0 80 1f 00
        E 36 90 74 60
        E 144 90 61 60
        E 0 90 62 60
        E 0 90 55 60
        E 0 90 56 60
        E 0 90 49 60
        E 0 90 4a 60
        E 0 90 3d 60
        E 0 90 3e 60
        E 0 90 1a 60
        E 0 90 1f 60
        E 60 80 61 00
        E 0 80 62 00
        E 0 80 55 00
        E 0 80 56 00
        E 0 80 49 00
        E 0 80 4a 00
        E 0 80 3d 00
        E 0 80 3e 00
        E 0 80 1a 00
        E 0 80 1f 00
        E 180 90 60 60
        E 0 90 62 60
        E 0 90 54 60
        E 0 90 56 60
        E 0 90 18 60
        E 0 90 1f 60
        E 60 80 60 00
        E 0 80 62 00
        E 0 80 54 00
        E 0 80 56 00
        E 0 80 18 00
        E 0 80 1f 00
        E 180 90 62 60
        E 0 90 56 60
        E 0 90 4a 60
        E 0 90 3e 60
        E 0 90 1f 60
        E 60 80 62 00
        E 0 80 56 00
        E 0 80 4a 00
        E 0 80 3e 00
        E 0 80 1f 00
        E 180 90 60 60
        E 0 90 62 60
        E 0 90 54 60
        E 0 90 56 60
        E 0 90 18 60
        E 0 90 1f 60
        E 60 80 60 00
        E 0 80 62 00
        E 0 80 54 00
        E 0 80 56 00
        E 0 80 18 00
        E 0 80 1f 00
        E 180 90 61 60
        E 0 90 62 60
        E 0 90 55 60
        E 0 90 56 60
        E 0 90 49 60
        E 0 90 4a 60
        E 0 90 3d 60
        E 0 90 3e 60
        E 0 90 1a 60
        E 0 90 1f 60
        E 60 80 61 00
        E 0 80 62 00
        E 0 80 55 00
        E 0 80 56 00
        E 0 80 49 00
        E 0 80 4a 00
        E 0 80 3d 00
        E 0 80 3e 00
        E 0 80 1a 00
        E 0 80 1f 00
        E 180 90 60 60
        E 0 90 62 60
        E 0 90 54 60
        E 0 90 56 60
        E 0 90 18 60
        E 0 90 1f 60
        E 60 80 60 00
        E 0 80 62 00
        E 0 80 54 00
        E 0 80 56 00
        E 0 80 18 00
        E 0 80 1f 00
        E 180 90 62 60
        E 0 90 56 60
        E 0 90 4a 60
        E 0 90 3e 60
        E 0 90 1f 60
        E 60 80 62 00
        E 0 80 56 00
        E 0 80 4a 00
        E 0 80 3e 00
        E 0 80 1f 00
        E 180 90 60 60
        E 0 90 62 60
        E 0 90 54 60
        E 0 90 56 60
        E 0 90 18 60
        E 0 90 1f 60
        E 60 80 60 00
        E 0 80 62 00
        E 0 80 54 00
        E 0 80 56 00
        E 0 80 18 00
        E 0 80 1f 00
        E 180 90 61 60
        E 0 90 62 60
        E 0 90 55 60
        E 0 90 56 60
        E 0 90 49 60
        E 0 90 4a 60
        E 0 90 3d 60
        E 0 90 3e 60
        E 0 90 1a 60
        E 0 90 1f 60
        E 60 80 61 00
        E 0 80 62 00
        E 0 80 55 00
        E 0 80 56 00
        E 0 80 49 00
        E 0 80 4a 00
        E 0 80 3d 00
        E 0 80 3e 00
        E 0 80 1a 00
        E 0 80 1f 00
        E 179 90 62 60
        E 0 90 56 60
        E 0 90 1f 60
        E 61 80 62 00
        E 0 80 56 00
        E 0 80 1f 00
        E 180 90 60 60
        E 0 90 61 60
        E 0 90 64 60
        E 0 90 54 60
        E 0 90 55 60
        E 0 90 58 60
        E 0 90 49 60
        E 0 90 4c 60
        E 0 90 3d 60
        E 0 90 40 60
        E 0 90 18 60
        E 0 90 1a 60
        E 0 90 26 60
        E 60 80 60 00
        E 0 80 61 00
        E 0 80 54 00
        E 0 80 55 00
        E 0 80 49 00
        E 0 80 3d 00
        E 0 80 18 00
        E 0 80 1a 00
        E 1 80 64 00
        E 0 80 58 00
        E 0 80 4c 00
        E 0 80 40 00
        E 0 80 26 00
        E 180 90 62 60
        E 0 90 56 60
        E 0 90 1f 60
        E 60 80 62 00
        E 0 80 56 00
        E 0 80 1f 00
        E 179 90 60 60
        E 0 90 62 60
        E 0 90 54 60
        E 0 90 56 60
        E 0 90 48 60
        E 0 90 4a 60
        E 0 90 3e 60
        E 0 90 18 60
        E 0 90 1f 60
        E 60 80 60 00
        E 0 80 62 00
        E 0 80 54 00
        E 0 80 56 00
        E 0 80 48 00
        E 0 80 4a 00
        E 0 80 3e 00
        E 0 80 18 00
        E 0 80 1f 00
        E 180 90 60 60
        E 0 90 62 60
        E 0 90 54 60
        E 0 90 56 60
        E 0 90 18 60
        E 0 90 1f 60
        E 60 80 60 00
        E 0 80 62 00
        E 0 80 54 00
        E 0 80 56 00
        E 0 80 18 00
        E 0 80 1f 00
        E 180 90 61 60
        E 0 90 62 60
        E 0 90 55 60
        E 0 90 56 60
        E 0 90 49 60
        E 0 90 4a 60
        E 0 90 3d 60
        E 0 90 3e 60
        E 0 90 1a 60
        E 0 90 1f 60
        E 60 80 61 00
        E 0 80 62 00
        E 0 80 55 00
        E 0 80 56 00
        E 0 80 49 00
        E 0 80 4a 00
        E 0 80 3d 00
        E 0 80 3e 00
        E 0 80 1a 00
        E 0 80 1f 00
        E 26 80 74 00
        E 155 90 62 60
        E 0 90 56 60
        E 0 90 1f 60
        E 60 80 62 00
        E 0 80 56 00
        E 0 80 1f 00
        E 179 90 62 60
        E 0 90 56 60
        E 0 90 4a 60
        E 0 90 3e 60
        E 0 90 1f 60
        E 60 80 62 00
        E 0 80 56 00
        E 0 80 4a 00
        E 0 80 3e 00
        E 0 80 1f 00
        E 180 90 61 60
        E 0 90 55 60
        E 0 90 1a 60
        E 60 80 61 00
        E 0 80 55 00
        E 0 80 1a 00
        E 180 90 62 60
        E 0 90 56 60
        E 0 90 4a 60
        E 0 90 3e 60
        E 0 90 1f 60
        E 61 80 62 00
        E 0 80 56 00
        E 0 80 4a 00
        E 0 80 3e 00
        E 0 80 1f 00
        E 179 90 61 60
        E 0 90 55 60
        E 0 90 1a 60
        E 60 80 61 00
        E 0 80 55 00
        E 0 80 1a 00
        E 180 90 60 60
        E 0 90 62 60
        E 0 90 54 60
        E 0 90 56 60
        E 0 90 48 60
        E 0 90 4a 60
        E 0 90 3e 60
        E 0 90 18 60
        E 0 90 1f 60
        E 60 80 60 00
        E 0 80 62 00
        E 0 80 54 00
        E 0 80 56 00
        E 0 80 48 00
        E 0 80 4a 00
        E 0 80 3e 00
        E 0 80 18 00
        E 0 80 1f 00
        E 180 90 60 60
        E 0 90 62 60
        E 0 90 54 60
        E 0 90 56 60
        E 0 90 18 60
        E 0 90 1f 60
        E 60 80 60 00
        E 0 80 62 00
        E 0 80 54 00
        E 0 80 56 00
        E 0 80 18 00
        E 0 80 1f 00
        E 180 90 61 60
        E 0 90 62 60
        E 0 90 55 60
        E 0 90 56 60
        E 0 90 49 60
        E 0 90 4a 60
        E 0 90 3d 60
        E 0 90 3e 60
        E 0 90 1a 60
        E 0 90 1f 60
        E 60 80 61 00
        E 0 80 62 00
        E 0 80 55 00
        E 0 80 56 00
        E 0 80 49 00
        E 0 80 4a 00
        E 0 80 3d 00
        E 0 80 3e 00
        E 0 80 1a 00
        E 0 80 1f 00
        E 180 90 60 60
        E 0 90 62 60
        E 0 90 54 60
        E 0 90 56 60
        E 0 90 18 60
        E 0 90 1f 60
        E 60 80 60 00
        E 0 80 62 00
        E 0 80 54 00
        E 0 80 56 00
        E 0 80 18 00
        E 0 80 1f 00
        E 180 90 61 60
        E 0 90 62 60
        E 0 90 55 60
        E 0 90 56 60
        E 0 90 49 60
        E 0 90 4a 60
        E 0 90 3d 60
        E 0 90 3e 60
        E 0 90 1a 60
        E 0 90 1f 60
        E 60 80 61 00
        E 0 80 62 00
        E 0 80 55 00
        E 0 80 56 00
        E 0 80 49 00
        E 0 80 4a 00
        E 0 80 3d 00
        E 0 80 3e 00
        E 0 80 1a 00
        E 0 80 1f 00
        E 180 90 61 60
        E 0 90 55 60
        E 0 90 1b 60
        E 40 80 61 00
        E 0 80 55 00
        E 0 80 1b 00
        E 80 90 61 60
        E 0 90 1a 60
        E 40 80 61 00
        E 0 80 1a 00
        E 80 90 60 60
        E 0 90 64 60
        E 0 90 54 60
        E 0 90 58 60
        E 0 90 48 60
        E 0 90 4c 60
        E 0 90 40 60
        E 0 90 18 60
        E 0 90 26 60
        E 60 80 60 00
        E 0 80 54 00
        E 0 80 48 00
        E 0 80 18 00
        E 1 80 64 00
        E 0 80 58 00
        E 0 80 4c 00
        E 0 80 40 00
        E 0 80 26 00
        E 179 90 62 60
        E 0 90 56 60
        E 0 90 1f 60
        E 60 80 62 00
        E 0 80 56 00
        E 0 80 1f 00
        E 180 90 61 60
        E 0 90 62 60
        E 0 90 55 60
        E 0 90 56 60
        E 0 90 49 60
        E 0 90 4a 60
        E 0 90 3d 60
        E 0 90 3e 60
        E 0 90 1a 60
        E 0 90 1f 60
        E 60 80 61 00
        E 0 80 62 00
        E 0 80 55 00
        E 0 80 56 00
        E 0 80 49 00
        E 0 80 4a 00
        E 0 80 3d 00
        E 0 80 3e 00
        E 0 80 1a 00
        E 0 80 1f 00
        E 180 90 62 60
        E 0 90 56 60
        E 0 90 1f 60
        E 60 80 62 00
        E 0 80 56 00
        E 0 80 1f 00
        E 180 90 60 60
        E 0 90 62 60
        E 0 90 54 60
        E 0 90 56 60
        E 0 90 48 60
        E 0 90 4a 60
        E 0 90 3e 60
        E 0 90 18 60
        E 0 90 1f 60
        E 60 80 60 00
        E 0 80 62 00
        E 0 80 54 00
        E 0 80 56 00
        E 0 80 48 00
        E 0 80 4a 00
        E 0 80 3e 00
        E 0 80 18 00
        E 0 80 1f 00
        E 180 90 60 60
        E 0 90 62 60
        E 0 90 54 60
        E 0 90 56 60
        E 0 90 18 60
        E 0 90 1f 60
        E 60 80 60 00
        E 0 80 62 00
        E 0 80 54 00
        E 0 80 56 00
        E 0 80 18 00
        E 0 80 1f 00
        E 180 90 61 60
        E 0 90 62 60
        E 0 90 55 60
        E 0 90 56 60
        E 0 90 49 60
        E 0 90 4a 60
        E 0 90 3d 60
        E 0 90 3e 60
        E 0 90 1a 60
        E 0 90 1f 60
        E 60 80 61 00
        E 0 80 62 00
        E 0 80 55 00
        E 0 80 56 00
        E 0 80 49 00
        E 0 80 4a 00
        E 0 80 3d 00
        E 0 80 3e 00
        E 0 80 1a 00
        E 0 80 1f 00
        E 180 90 62 60
        E 0 90 56 60
        E 0 90 1f 60
        E 61 80 62 00
        E 0 80 56 00
        E 0 80 1f 00
        E 179 90 60 60
        E 0 90 62 60
        E 0 90 54 60
        E 0 90 56 60
        E 0 90 48 60
        E 0 90 4a 60
        E 0 90 3e 60
        E 0 90 18 60
        E 0 90 1f 60
        E 60 80 60 00
        E 0 80 54 00
        E 0 80 48 00
        E 0 80 18 00
        E 1 80 62 00
        E 0 80 56 00
        E 0 80 4a 00
        E 0 80 3e 00
        E 0 80 1f 00
        E 179 90 62 60
        E 0 90 56 60
        E 0 90 1f 60
        E 60 80 62 00
        E 0 80 56 00
        E 0 80 1f 00
        E 180 90 61 60
        E 0 90 62 60
        E 0 90 78 60
        E 0 90 79 60
        E 0 90 7a 60
        E 0 90 7b 60
        E 0 90 7c 60
        E 0 90 55 60
        E 0 90 56 60
        E 0 90 49 60
        E 0 90 4a 60
        E 0 90 3d 60
        E 0 90 3e 60
        E 0 90 1a 60
        E 0 90 1f 60
        E 60 80 61 00
        E 0 80 62 00
        E 0 80 55 00
        E 0 80 56 00
        E 0 80 49 00
        E 0 80 4a 00
        E 0 80 3d 00
        E 0 80 3e 00
        E 0 80 1a 00
        E 0 80 1f 00
        E 180 90 62 60
        E 0 90 56 60
        E 0 90 1f 60
        E 60 80 62 00
        E 0 80 56 00
        E 0 80 1f 00
        E 180 90 60 60
        E 0 90 62 60
        E 0 90 54 60
        E 0 90 56 60
        E 0 90 48 60
        E 0 90 4a 60
        E 0 90 3e 60
        E 0 90 18 60
        E 0 90 1f 60
        E 60 80 60 00
        E 0 80 62 00
        E 0 80 54 00
        E 0 80 56 00
        E 0 80 48 00
        E 0 80 4a 00
        E 0 80 3e 00
        E 0 80 18 00
        E 0 80 1f 00
        E 180 90 60 60
        E 0 90 62 60
        E 0 90 54 60
        E 0 90 56 60
        E 0 90 18 60
        E 0 90 1f 60
        E 60 80 60 00
        E 0 80 62 00
        E 0 80 54 00
        E 0 80 56 00
        E 0 80 18 00
        E 0 80 1f 00
        E 180 90 61 60
        E 0 90 62 60
        E 0 90 55 60
        E 0 90 56 60
        E 0 90 49 60
        E 0 90 4a 60
        E 0 90 3d 60
        E 0 90 3e 60
        E 0 90 1a 60
        E 0 90 1f 60
        E 60 80 61 00
        E 0 80 62 00
        E 0 80 55 00
        E 0 80 56 00
        E 0 80 49 00
        E 0 80 4a 00
        E 0 80 3d 00
        E 0 80 3e 00
        E 0 80 1a 00
        E 0 80 1f 00
        E 180 80 78 00
        E 0 80 79 00
        E 0 80 7a 00
        E 0 80 7b 00
        E 0 80 7c 00
        E 0 90 60 60
        E 0 90 62 60
        E 0 90 54 60
        E 0 90 56 60
        E 0 90 18 60
        E 0 90 1f 60
        E 60 80 60 00
        E 0 80 62 00
        E 0 80 54 00
        E 0 80 56 00
        E 0 80 18 00
        E 0 80 1f 00
        E 180 90 62 60
        E 0 90 56 60
        E 0 90 4a 60
        E 0 90 3e 60
        E 0 90 1f 60
        E 61 80 62 00
        E 0 80 56 00
        E 0 80 4a 00
        E 0 80 3e 00
        E 0 80 1f 00
        E 179 90 60 60
        E 0 90 62 60
        E 0 90 54 60
        E 0 90 56 60
        E 0 90 18 60
        E 0 90 1f 60
        E 60 80 60 00
        E 0 80 62 00
        E 0 80 54 00
        E 0 80 56 00
        E 0 80 18 00
        E 0 80 1f 00
        E 180 90 61 60
        E 0 90 62 60
        E 0 90 55 60
        E 0 90 56 60
        E 0 90 49 60
        E 0 90 4a 60
        E 0 90 3d 60
        E 0 90 3e 60
        E 0 90 1a 60
        E 0 90 1f 60
        E 60 80 61 00
        E 0 80 62 00
        E 0 80 55 00
        E 0 80 56 00
        E 0 80 49 00
        E 0 80 4a 00
        E 0 80 3d 00
        E 0 80 3e 00
        E 0 80 1a 00
        E 0 80 1f 00
        E 180 90 62 60
        E 0 90 56 60
        E 0 90 1f 60
        E 60 80 62 00
        E 0 80 56 00
        E 0 80 1f 00
        E 180 90 62 60
        E 0 90 56 60
        E 0 90 4a 60
        E 0 90 3e 60
        E 0 90 1f 60
        E 60 80 62 00
        E 0 80 56 00
        E 0 80 4a 00
        E 0 80 3e 00
        E 0 80 1f 00
        E 180 90 60 60
        E 0 90 62 60
        E 0 90 54 60
        E 0 90 56 60
        E 0 90 18 60
        E 0 90 1f 60
        E 60 80 60 00
        E 0 80 62 00
        E 0 80 54 00
        E 0 80 56 00
        E 0 80 18 00
        E 0 80 1f 00
        E 60 90 60 60
        E 0 90 18 60
        E 60 80 60 00
        E 0 80 18 00
        E 60 90 61 60
        E 0 90 62 60
        E 0 90 55 60
        E 0 90 56 60
        E 0 90 49 60
        E 0 90 4a 60
        E 0 90 3d 60
        E 0 90 3e 60
        E 0 90 1a 60
        E 0 90 1f 60
        E 60 80 61 00
        E 0 80 62 00
        E 0 80 55 00
        E 0 80 56 00
        E 0 80 49 00
        E 0 80 4a 00
        E 0 80 3d 00
        E 0 80 3e 00
        E 0 80 1a 00
        E 0 80 1f 00
        E 180 90 60 60
        E 0 90 62 60
        E 0 90 54 60
        E 0 90 56 60
        E 0 90 18 60
        E 0 90 1f 60
        E 60 80 60 00
        E 0 80 54 00
        E 0 80 18 00
        E 1 80 62 00
        E 0 80 56 00
        E 0 80 1f 00
        E 59 90 60 60
        E 0 90 18 60
        E 60 80 60 00
        E 0 80 18 00
        E 60 90 62 60
        E 0 90 56 60
        E 0 90 4a 60
        E 0 90 3e 60
        E 0 90 1f 60
        E 61 80 62 00
        E 0 80 56 00
        E 0 80 4a 00
        E 0 80 3e 00
        E 0 80 1f 00
        E 179 90 60 60
        E 0 90 62 60
        E 0 90 54 60
        E 0 90 56 60
        E 0 90 18 60
        E 0 90 1f 60
        E 60 80 60 00
        E 0 80 62 00
        E 0 80 54 00
        E 0 80 56 00
        E 0 80 18 00
        E 0 80 1f 00
        E 60 90 60 60
        E 0 90 18 60
        E 60 80 60 00
        E 0 80 18 00
        E 60 90 61 60
        E 0 90 62 60
        E 0 90 55 60
        E 0 90 56 60
        E 0 90 49 60
        E 0 90 4a 60
        E 0 90 3d 60
        E 0 90 3e 60
        E 0 90 1a 60
        E 0 90 1f 60
        E 60 80 61 00
        E 0 80 62 00
        E 0 80 55 00
        E 0 80 56 00
        E 0 80 49 00
        E 0 80 4a 00
        E 0 80 3d 00
        E 0 80 3e 00
        E 0 80 1a 00
        E 0 80 1f 00
        E 180 90 60 60
        E 0 90 62 60
        E 0 90 54 60
        E 0 90 56 60
        E 0 90 18 60
        E 0 90 1f 60
        E 60 80 60 00
        E 0 80 62 00
        E 0 80 54 00
        E 0 80 56 00
        E 0 80 18 00
        E 0 80 1f 00
        E 180 90 62 60
        E 0 90 56 60
        E 0 90 4a 60
        E 0 90 3e 60
        E 0 90 1f 60
        E 60 80 62 00
        E 0 80 56 00
        E 0 80 4a 00
        E 0 80 3e 00
        E 0 80 1f 00
        E 180 90 60 60
        E 0 90 62 60
        E 0 90 54 60
        E 0 90 56 60
        E 0 90 18 60
        E 0 90 1f 60
        E 60 80 60 00
        E 0 80 62 00
        E 0 80 54 00
        E 0 80 56 00
        E 0 80 18 00
        E 0 80 1f 00
        E 180 90 61 60
        E 0 90 62 60
        E 0 90 55 60
        E 0 90 56 60
        E 0 90 49 60
        E 0 90 4a 60
        E 0 90 3d 60
        E 0 90 3e 60
        E 0 90 1a 60
        E 0 90 1f 60
        E 60 80 61 00
        E 0 80 62 00
        E 0 80 55 00
        E 0 80 56 00
        E 0 80 49 00
        E 0 80 4a 00
        E 0 80 3d 00
        E 0 80 3e 00
        E 0 80 1a 00
        E 0 80 1f 00
        E 179 90 62 60
        E 0 90 56 60
        E 0 90 1f 60
        E 61 80 62 00
        E 0 80 56 00
        E 0 80 1f 00
        E 180 90 60 60
        E 0 90 64 60
        E 0 90 54 60
        E 0 90 58 60
        E 0 90 48 60
        E 0 90 4c 60
        E 0 90 40 60
        E 0 90 18 60
        E 0 90 26 60
        E 60 80 60 00
        E 0 80 54 00
        E 0 80 48 00
        E 0 80 18 00
        E 1 80 64 00
        E 0 80 58 00
        E 0 80 4c 00
        E 0 80 40 00
        E 0 80 26 00
        E 180 90 62 60
        E 0 90 56 60
        E 0 90 1f 60
        E 60 80 62 00
        E 0 80 56 00
        E 0 80 1f 00
        E 179 90 61 60
        E 0 90 62 60
        E 0 90 55 60
        E 0 90 56 60
        E 0 90 49 60
        E 0 90 4a 60
        E 0 90 3d 60
        E 0 90 3e 60
        E 0 90 1a 60
        E 0 90 1f 60
        E 60 80 61 00
        E 0 80 62 00
        E 0 80 55 00
        E 0 80 56 00
        E 0 80 49 00
        E 0 80 4a 00
        E 0 80 3d 00
        E 0 80 3e 00
        E 0 80 1a 00
        E 0 80 1f 00
        E 180 90 62 60
        E 0 90 56 60
        E 0 90 1f 60
        E 60 80 62 00
        E 0 80 56 00
        E 0 80 1f 00
        E 180 90 60 60
        E 0 90 62 60
        E 0 90 54 60
        E 0 90 56 60
        E 0 90 48 60
        E 0 90 4a 60
        E 0 90 3e 60
        E 0 90 18 60
        E 0 90 1f 60
        E 60 80 60 00
        E 0 80 62 00
        E 0 80 54 00
        E 0 80 56 00
        E 0 80 48 00
        E 0 80 4a 00
        E 0 80 3e 00
        E 0 80 18 00
        E 0 80 1f 00
        E 180 90 60 60
        E 0 90 62 60
        E 0 90 54 60
        E 0 90 56 60
        E 0 90 18 60
        E 0 90 1f 60
        E 60 80 60 00
        E 0 80 62 00
        E 0 80 54 00
        E 0 80 56 00
        E 0 80 18 00
        E 0 80 1f 00
        E 180 90 61 60
        E 0 90 62 60
        E 0 90 55 60
        E 0 90 56 60
        E 0 90 49 60
        E 0 90 4a 60
        E 0 90 3d 60
        E 0 90 3e 60
        E 0 90 1a 60
        E 0 90 1f 60
        E 60 80 61 00
        E 0 80 55 00
        E 0 80 49 00
        E 0 80 3d 00
        E 0 80 1a 00
        E 1 80 62 00
        E 0 80 56 00
        E 0 80 4a 00
        E 0 80 3e 00
        E 0 80 1f 00
        E 179 90 60 60
        E 0 90 62 60
        E 0 90 54 60
        E 0 90 56 60
        E 0 90 18 60
        E 0 90 1f 60
        E 60 80 60 00
        E 0 80 62 00
        E 0 80 54 00
        E 0 80 56 00
        E 0 80 18 00
        E 0 80 1f 00
        E 180 90 62 60
        E 0 90 56 60
        E 0 90 4a 60
        E 0 90 3e 60
        E 0 90 1f 60
        E 61 80 62 00
        E 0 80 56 00
        E 0 80 4a 00
        E 0 80 3e 00
        E 0 80 1f 00
        E 179 90 60 60
        E 0 90 62 60
        E 0 90 54 60
        E 0 90 56 60
        E 0 90 18 60
        E 0 90 1f 60
        E 60 80 60 00
        E 0 80 62 00
        E 0 80 54 00
        E 0 80 56 00
        E 0 80 18 00
        E 0 80 1f 00
        E 180 90 61 60
        E 0 90 62 60
        E 0 90 55 60
        E 0 90 56 60
        E 0 90 49 60
        E 0 90 4a 60
        E 0 90 3d 60
        E 0 90 3e 60
        E 0 90 1a 60
        E 0 90 1f 60
        E 60 80 61 00
        E 0 80 62 00
        E 0 80 55 00
        E 0 80 56 00
        E 0 80 49 00
        E 0 80 4a 00
        E 0 80 3d 00
        E 0 80 3e 00
        E 0 80 1a 00
        E 0 80 1f 00
        E 180 90 60 60
        E 0 90 62 60
        E 0 90 78 60
        E 0 90 79 60
        E 0 90 7a 60
        E 0 90 7b 60
        E 0 90 7c 60
        E 0 90 54 60
        E 0 90 56 60
        E 0 90 18 60
        E 0 90 1f 60
        E 60 80 60 00
        E 0 80 62 00
        E 0 80 54 00
        E 0 80 56 00
        E 0 80 18 00
        E 0 80 1f 00
        E 180 90 62 60
        E 0 90 56 60
        E 0 90 4a 60
        E 0 90 3e 60
        E 0 90 1f 60
        E 60 80 62 00
        E 0 80 56 00
        E 0 80 4a 00
        E 0 80 3e 00
        E 0 80 1f 00
        E 180 90 60 60
        E 0 90 62 60
        E 0 90 54 60
        E 0 90 56 60
        E 0 90 18 60
        E 0 90 1f 60
        E 60 80 60 00
        E 0 80 62 00
        E 0 80 54 00
        E 0 80 56 00
        E 0 80 18 00
        E 0 80 1f 00
        E 180 90 61 60
        E 0 90 62 60
        E 0 90 55 60
        E 0 90 56 60
        E 0 90 49 60
        E 0 90 4a 60
        E 0 90 3d 60
        E 0 90 3e 60
        E 0 90 1a 60
        E 0 90 1f 60
        E 60 80 61 00
        E 0 80 62 00
        E 0 80 55 00
        E 0 80 56 00
        E 0 80 49 00
        E 0 80 4a 00
        E 0 80 3d 00
        E 0 80 3e 00
        E 0 80 1a 00
        E 0 80 1f 00
        E 179 90 62 60
        E 0 90 56 60
        E 0 90 1f 60
        E 61 80 62 00
        E 0 80 56 00
        E 0 80 1f 00
        E 180 80 78 00
        E 0 80 79 00
        E 0 80 7a 00
        E 0 80 7b 00
        E 0 80 7c 00
        E 0 90 60 60
        E 0 90 61 60
        E 0 90 64 60
        E 0 90 54 60
        E 0 90 55 60
        E 0 90 58 60
        E 0 90 49 60
        E 0 90 4c 60
        E 0 90 3d 60
        E 0 90 40 60
        E 0 90 18 60
        E 0 90 1a 60
        E 0 90 26 60
        E 60 80 60 00
        E 0 80 61 00
        E 0 80 54 00
        E 0 80 55 00
        E 0 80 49 00
        E 0 80 3d 00
        E 0 80 18 00
        E 0 80 1a 00
        E 1 80 64 00
        E 0 80 58 00
        E 0 80 4c 00
        E 0 80 40 00
        E 0 80 26 00
        E 119 90 74 60
        E 61 90 62 60
        E 0 90 56 60
        E 0 90 1f 60
        E 60 80 62 00
        E 0 80 56 00
        E 0 80 1f 00
        E 179 90 60 60
        E 0 90 62 60
        E 0 90 54 60
        E 0 90 56 60
        E 0 90 48 60
        E 0 90 4a 60
        E 0 90 3e 60
        E 0 90 18 60
        E 0 90 1f 60
        E 60 80 60 00
        E 0 80 62 00
        E 0 80 54 00
        E 0 80 56 00
        E 0 80 48 00
        E 0 80 4a 00
        E 0 80 3e 00
        E 0 80 18 00
        E 0 80 1f 00
        E 180 90 60 60
        E 0 90 62 60
        E 0 90 54 60
        E 0 90 56 60
        E 0 90 18 60
        E 0 90 1f 60
        E 60 80 60 00
        E 0 80 62 00
        E 0 80 54 00
        E 0 80 56 00
        E 0 80 18 00
        E 0 80 1f 00
        E 180 90 61 60
        E 0 90 62 60
        E 0 90 55 60
        E 0 90 56 60
        E 0 90 49 60
        E 0 90 4a 60
        E 0 90 3d 60
        E 0 90 3e 60
        E 0 90 1a 60
        E 0 90 1f 60
        E 60 80 61 00
        E 0 80 62 00
        E 0 80 55 00
        E 0 80 56 00
        E 0 80 49 00
        E 0 80 4a 00
        E 0 80 3d 00
        E 0 80 3e 00
        E 0 80 1a 00
        E 0 80 1f 00
        E 180 90 62 60
        E 0 90 56 60
        E 0 90 1f 60
        E 60 80 62 00
        E 0 80 56 00
        E 0 80 1f 00
        E 179 90 62 60
        E 0 90 56 60
        E 0 90 4a 60
        E 0 90 3e 60
        E 0 90 1f 60
        E 61 80 62 00
        E 0 80 56 00
        E 0 80 4a 00
        E 0 80 3e 00
        E 0 80 1f 00
        E 179 90 62 60
        E 0 90 56 60
        E 0 90 1f 60
        E 61 80 62 00
        E 0 80 56 00
        E 0 80 1f 00
        E 180 90 60 60
        E 0 90 62 60
        E 0 90 54 60
        E 0 90 56 60
        E 0 90 48 60
        E 0 90 4a 60
        E 0 90 3e 60
        E 0 90 18 60
        E 0 90 1f 60
        E 60 80 60 00
        E 0 80 62 00
        E 0 80 54 00
        E 0 80 56 00
        E 0 80 48 00
        E 0 80 4a 00
        E 0 80 3e 00
        E 0 80 18 00
        E 0 80 1f 00
        E 180 90 61 60
        E 0 90 62 60
        E 0 90 55 60
        E 0 90 56 60
        E 0 90 1a 60
        E 0 90 1f 60
        E 60 80 61 00
        E 0 80 62 00
        E 0 80 55 00
        E 0 80 56 00
        E 0 80 1a 00
        E 0 80 1f 00
        E 180 90 60 60
        E 0 90 62 60
        E 0 90 54 60
        E 0 90 56 60
        E 0 90 48 60
        E 0 90 4a 60
        E 0 90 3e 60
        E 0 90 18 60
        E 0 90 1f 60
        E 60 80 60 00
        E 0 80 62 00
        E 0 80 54 00
        E 0 80 56 00
        E 0 80 48 00
        E 0 80 4a 00
        E 0 80 3e 00
        E 0 80 18 00
        E 0 80 1f 00
        E 180 90 60 60
        E 0 90 62 60
        E 0 90 54 60
        E 0 90 56 60
        E 0 90 18 60
        E 0 90 1f 60
        E 60 80 60 00
        E 0 80 62 00
        E 0 80 54 00
        E 0 80 56 00
        E 0 80 18 00
        E 0 80 1f 00
        E 180 90 61 60
        E 0 90 64 60
        E 0 90 55 60
        E 0 90 58 60
        E 0 90 49 60
        E 0 90 4c 60
        E 0 90 3d 60
        E 0 90 40 60
        E 0 90 1a 60
        E 0 90 26 60
        E 60 80 61 00
        E 0 80 64 00
        E 0 80 55 00
        E 0 80 58 00
        E 0 80 49 00
        E 0 80 4c 00
        E 0 80 3d 00
        E 0 80 40 00
        E 0 80 1a 00
        E 0 80 26 00
        E 60 80 74 00
        E 120 90 60 60
        E 0 90 62 60
        E 0 90 54 60
        E 0 90 56 60
        E 0 90 18 60
        E 0 90 1f 60
        E 60 80 60 00
        E 0 80 62 00
        E 0 80 54 00
        E 0 80 56 00
        E 0 80 18 00
        E 0 80 1f 00
        E 180 90 61 60
        E 0 90 64 60
        E 0 90 55 60
        E 0 90 58 60
        E 0 90 49 60
        E 0 90 4c 60
        E 0 90 3d 60
        E 0 90 40 60
        E 0 90 1a 60
        E 0 90 26 60
        E 60 80 61 00
        E 0 80 64 00
        E 0 80 55 00
        E 0 80 58 00
        E 0 80 49 00
        E 0 80 4c 00
        E 0 80 3d 00
        E 0 80 40 00
        E 0 80 1a 00
        E 0 80 26 00
        E 180 90 62 60
        E 0 90 56 60
        E 0 90 1f 60
        E 61 80 62 00
        E 0 80 56 00
        E 0 80 1f 00
        E 59 90 61 60
        E 0 90 1a 60
        E 60 80 61 00
        E 0 80 1a 00
        E 60 90 60 60
        E 0 90 62 60
        E 0 90 54 60
        E 0 90 56 60
        E 0 90 48 60
        E 0 90 4a 60
        E 0 90 3e 60
        E 0 90 18 60
        E 0 90 1f 60
        E 60 80 60 00
        E 0 80 54 00
        E 0 80 48 00
        E 0 80 18 00
        E 1 80 62 00
        E 0 80 56 00
        E 0 80 4a 00
        E 0 80 3e 00
        E 0 80 1f 00
        E 179 90 62 60
        E 0 90 56 60
        E 0 90 1f 60
        E 60 80 62 00
        E 0 80 56 00
        E 0 80 1f 00
        E 180 90 61 60
        E 0 90 62 60
        E 0 90 55 60
        E 0 90 56 60
        E 0 90 49 60
        E 0 90 4a 60
        E 0 90 3d 60
        E 0 90 3e 60
        E 0 90 1a 60
        E 0 90 1f 60
        E 60 80 61 00
        E 0 80 62 00
        E 0 80 55 00
        E 0 80 56 00
        E 0 80 49 00
        E 0 80 4a 00
        E 0 80 3d 00
        E 0 80 3e 00
        E 0 80 1a 00
        E 0 80 1f 00
        E 180 90 62 60
        E 0 90 56 60
        E 0 90 1f 60
        E 60 80 62 00
        E 0 80 56 00
        E 0 80 1f 00
        E 180 90 60 60
        E 0 90 62 60
        E 0 90 54 60
        E 0 90 56 60
        E 0 90 48 60
        E 0 90 4a 60
        E 0 90 3e 60
        E 0 90 18 60
        E 0 90 1f 60
        E 60 80 60 00
        E 0 80 62 00
        E 0 80 54 00
        E 0 80 56 00
        E 0 80 48 00
        E 0 80 4a 00
        E 0 80 3e 00
        E 0 80 18 00
        E 0 80 1f 00
        E 180 90 60 60
        E 0 90 62 60
        E 0 90 54 60
        E 0 90 56 60
        E 0 90 18 60
        E 0 90 1f 60
        E 60 80 60 00
        E 0 80 62 00
        E 0 80 54 00
        E 0 80 56 00
        E 0 80 18 00
        E 0 80 1f 00
        E 180 90 61 60
        E 0 90 62 60
        E 0 90 55 60
        E 0 90 56 60
        E 0 90 49 60
        E 0 90 4a 60
        E 0 90 3d 60
        E 0 90 3e 60
        E 0 90 1a 60
        E 0 90 1f 60
        E 60 80 61 00
        E 0 80 55 00
        E 0 80 49 00
        E 0 80 3d 00
        E 0 80 1a 00
        E 1 80 62 00
        E 0 80 56 00
        E 0 80 4a 00
        E 0 80 3e 00
        E 0 80 1f 00
        E 179 90 60 60
        E 0 90 62 60
        E 0 90 54 60
        E 0 90 56 60
        E 0 90 18 60
        E 0 90 1f 60
        E 60 80 60 00
        E 0 80 62 00
        E 0 80 54 00
        E 0 80 56 00
        E 0 80 18 00
        E 0 80 1f 00
        E 180 90 62 60
        E 0 90 56 60
        E 0 90 4a 60
        E 0 90 3e 60
        E 0 90 1f 60
        E 61 80 62 00
        E 0 80 56 00
        E 0 80 4a 00
        E 0 80 3e 00
        E 0 80 1f 00
        E 179 90 60 60
        E 0 90 62 60
        E 0 90 54 60
        E 0 90 56 60
        E 0 90 18 60
        E 0 90 1f 60
        E 60 80 60 00
        E 0 80 62 00
        E 0 80 54 00
        E 0 80 56 00
        E 0 80 18 00
        E 0 80 1f 00
        E 180 90 61 60
        E 0 90 62 60
        E 0 90 55 60
        E 0 90 56 60
        E 0 90 49 60
        E 0 90 4a 60
        E 0 90 3d 60
        E 0 90 3e 60
        E 0 90 1a 60
        E 0 90 1f 60
        E 60 80 61 00
        E 0 80 62 00
        E 0 80 55 00
        E 0 80 56 00
        E 0 80 49 00
        E 0 80 4a 00
        E 0 80 3d 00
        E 0 80 3e 00
        E 0 80 1a 00
        E 0 80 1f 00
        E 180 90 62 60
        E 0 90 56 60
        E 0 90 1f 60
        E 60 80 62 00
        E 0 80 56 00
        E 0 80 1f 00
        E 180 90 60 60
        E 0 90 62 60
        E 0 90 54 60
        E 0 90 56 60
        E 0 90 48 60
        E 0 90 4a 60
        E 0 90 3e 60
        E 0 90 18 60
        E 0 90 1f 60
        E 60 80 60 00
        E 0 80 62 00
        E 0 80 54 00
        E 0 80 56 00
        E 0 80 48 00
        E 0 80 4a 00
        E 0 80 3e 00
        E 0 80 18 00
        E 0 80 1f 00
        E 180 90 60 60
        E 0 90 62 60
        E 0 90 54 60
        E 0 90 56 60
        E 0 90 18 60
        E 0 90 1f 60
        E 60 80 60 00
        E 0 80 62 00
        E 0 80 54 00
        E 0 80 56 00
        E 0 80 18 00
        E 0 80 1f 00
        E 180 90 61 60
        E 0 90 62 60
        E 0 90 55 60
        E 0 90 56 60
        E 0 90 49 60
        E 0 90 4a 60
        E 0 90 3d 60
        E 0 90 3e 60
        E 0 90 1a 60
        E 0 90 1f 60
        E 60 80 61 00
        E 0 80 62 00
        E 0 80 55 00
        E 0 80 56 00
        E 0 80 49 00
        E 0 80 4a 00
        E 0 80 3d 00
        E 0 80 3e 00
        E 0 80 1a 00
        E 0 80 1f 00
        E 179 90 62 60
        E 0 90 56 60
        E 0 90 1f 60
        E 61 80 62 00
        E 0 80 56 00
        E 0 80 1f 00
        E 180 90 60 60
        E 0 90 62 60
        E 0 90 54 60
        E 0 90 56 60
        E 0 90 48 60
        E 0 90 4a 60
        E 0 90 3e 60
        E 0 90 18 60
        E 0 90 1f 60
        E 60 80 60 00
        E 0 80 54 00
        E 0 80 48 00
        E 0 80 18 00
        E 1 80 62 00
        E 0 80 56 00
        E 0 80 4a 00
        E 0 80 3e 00
        E 0 80 1f 00
        E 180 90 62 60
        E 0 90 56 60
        E 0 90 1f 60
        E 60 80 62 00
        E 0 80 56 00
        E 0 80 1f 00
        E 179 90 61 60
        E 0 90 62 60
        E 0 90 55 60
        E 0 90 56 60
        E 0 90 49 60
        E 0 90 4a 60
        E 0 90 3d 60
        E 0 90 3e 60
        E 0 90 1a 60
        E 0 90 1f 60
        E 60 80 61 00
        E 0 80 62 00
        E 0 80 55 00
        E 0 80 56 00
        E 0 80 49 00
        E 0 80 4a 00
        E 0 80 3d 00
        E 0 80 3e 00
        E 0 80 1a 00
        E 0 80 1f 00
        E 180 90 62 60
        E 0 90 56 60
        E 0 90 1f 60
        E 60 80 62 00
        E 0 80 56 00
        E 0 80 1f 00
        E 180 90 60 60
        E 0 90 62 60
        E 0 90 54 60
        E 0 90 56 60
        E 0 90 48 60
        E 0 90 4a 60
        E 0 90 3e 60
        E 0 90 18 60
        E 0 90 1f 60
        E 60 80 60 00
        E 0 80 62 00
        E 0 80 54 00
        E 0 80 56 00
        E 0 80 48 00
        E 0 80 4a 00
        E 0 80 3e 00
        E 0 80 18 00
        E 0 80 1f 00
        E 180 90 60 60
        E 0 90 62 60
        E 0 90 54 60
        E 0 90 56 60
        E 0 90 18 60
        E 0 90 1f 60
        E 60 80 60 00
        E 0 80 62 00
        E 0 80 54 00
        E 0 80 56 00
        E 0 80 18 00
        E 0 80 1f 00
        E 180 90 61 60
        E 0 90 62 60
        E 0 90 55 60
        E 0 90 56 60
        E 0 90 49 60
        E 0 90 4a 60
        E 0 90 3d 60
        E 0 90 3e 60
        E 0 90 1a 60
        E 0 90 1f 60
        E 60 80 61 00
        E 0 80 55 00
        E 0 80 49 00
        E 0 80 3d 00
        E 0 80 1a 00
        E 1 80 62 00
        E 0 80 56 00
        E 0 80 4a 00
        E 0 80 3e 00
        E 0 80 1f 00
        E 179 90 60 60
        E 0 90 62 60
        E 0 90 54 60
        E 0 90 56 60
        E 0 90 18 60
        E 0 90 1f 60
        E 60 80 60 00
        E 0 80 62 00
        E 0 80 54 00
        E 0 80 56 00
        E 0 80 18 00
        E 0 80 1f 00
        E 180 90 62 60
        E 0 90 56 60
        E 0 90 4a 60
        E 0 90 3e 60
        E 0 90 1f 60
        E 61 80 62 00
        E 0 80 56 00
        E 0 80 4a 00
        E 0 80 3e 00
        E 0 80 1f 00
        E 179 90 60 60
        E 0 90 62 60
        E 0 90 54 60
        E 0 90 56 60
        E 0 90 18 60
        E 0 90 1f 60
        E 60 80 60 00
        E 0 80 62 00
        E 0 80 54 00
        E 0 80 56 00
        E 0 80 18 00
        E 0 80 1f 00
        E 180 90 61 60
        E 0 90 62 60
        E 0 90 55 60
        E 0 90 56 60
        E 0 90 49 60
        E 0 90 4a 60
        E 0 90 3d 60
        E 0 90 3e 60
        E 0 90 1a 60
        E 0 90 1f 60
        E 60 80 61 00
        E 0 80 62 00
        E 0 80 55 00
        E 0 80 56 00
        E 0 80 49 00
        E 0 80 4a 00
        E 0 80 3d 00
        E 0 80 3e 00
        E 0 80 1a 00
        E 0 80 1f 00
        E 180 90 62 60
        E 0 90 56 60
        E 0 90 1f 60
        E 60 80 62 00
        E 0 80 56 00
        E 0 80 1f 00
        E 180 90 60 60
        E 0 90 62 60
        E 0 90 54 60
        E 0 90 56 60
        E 0 90 48 60
        E 0 90 4a 60
        E 0 90 3e 60
        E 0 90 18 60
        E 0 90 1f 60
        E 60 80 60 00
        E 0 80 62 00
        E 0 80 54 00
        E 0 80 56 00
        E 0 80 48 00
        E 0 80 4a 00
        E 0 80 3e 00
        E 0 80 18 00
        E 0 80 1f 00
        E 180 90 60 60
        E 0 90 62 60
        E 0 90 54 60
        E 0 90 56 60
        E 0 90 18 60
        E 0 90 1f 60
        E 60 80 60 00
        E 0 80 62 00
        E 0 80 54 00
        E 0 80 56 00
        E 0 80 18 00
        E 0 80 1f 00
        E 180 90 61 60
        E 0 90 62 60
        E 0 90 55 60
        E 0 90 56 60
        E 0 90 49 60
        E 0 90 4a 60
        E 0 90 3d 60
        E 0 90 3e 60
        E 0 90 1a 60
        E 0 90 1f 60
        E 60 80 61 00
        E 0 80 62 00
        E 0 80 55 00
        E 0 80 56 00
        E 0 80 49 00
        E 0 80 4a 00
        E 0 80 3d 00
        E 0 80 3e 00
        E 0 80 1a 00
        E 0 80 1f 00
        E 179 90 62 60
        E 0 90 56 60
        E 0 90 1f 60
        E 61 80 62 00
        E 0 80 56 00
        E 0 80 1f 00
        E 180 90 60 60
        E 0 90 62 60
        E 0 90 54 60
        E 0 90 56 60
        E 0 90 48 60
        E 0 90 4a 60
        E 0 90 3e 60
        E 0 90 18 60
        E 0 90 1f 60
        E 60 80 60 00
        E 0 80 54 00
        E 0 80 48 00
        E 0 80 18 00
        E 1 80 62 00
        E 0 80 56 00
        E 0 80 4a 00
        E 0 80 3e 00
        E 0 80 1f 00
        E 180 90 62 60
        E 0 90 56 60
        E 0 90 1f 60
        E 60 80 62 00
        E 0 80 56 00
        E 0 80 1f 00
        E 179 90 61 60
        E 0 90 62 60
        E 0 90 55 60
        E 0 90 56 60
        E 0 90 49 60
        E 0 90 4a 60
        E 0 90 3d 60
        E 0 90 3e 60
        E 0 90 1a 60
        E 0 90 1f 60
        E 60 80 61 00
        E 0 80 62 00
        E 0 80 55 00
        E 0 80 56 00
        E 0 80 49 00
        E 0 80 4a 00
        E 0 80 3d 00
        E 0 80 3e 00
        E 0 80 1a 00
        E 0 80 1f 00
        E 180 90 62 60
        E 0 90 56 60
        E 0 90 1f 60
        E 60 80 62 00
        E 0 80 56 00
        E 0 80 1f 00
        E 180 90 60 60
        E 0 90 62 60
        E 0 90 54 60
        E 0 90 56 60
        E 0 90 48 60
        E 0 90 4a 60
        E 0 90 3e 60
        E 0 90 18 60
        E 0 90 1f 60
        E 60 80 60 00
        E 0 80 62 00
        E 0 80 54 00
        E 0 80 56 00
        E 0 80 48 00
        E 0 80 4a 00
        E 0 80 3e 00
        E 0 80 18 00
        E 0 80 1f 00
        E 180 90 60 60
        E 0 90 62 60
        E 0 90 54 60
        E 0 90 56 60
        E 0 90 18 60
        E 0 90 1f 60
        E 60 80 60 00
        E 0 80 62 00
        E 0 80 54 00
        E 0 80 56 00
        E 0 80 18 00
        E 0 80 1f 00
        E 180 90 61 60
        E 0 90 62 60
        E 0 90 55 60
        E 0 90 56 60
        E 0 90 49 60
        E 0 90 4a 60
        E 0 90 3d 60
        E 0 90 3e 60
        E 0 90 1a 60
        E 0 90 1f 60
        E 60 80 61 00
        E 0 80 55 00
        E 0 80 49 00
        E 0 80 3d 00
        E 0 80 1a 00
        E 1 80 62 00
        E 0 80 56 00
        E 0 80 4a 00
        E 0 80 3e 00
        E 0 80 1f 00
        E 179 90 60 60
        E 0 90 62 60
        E 0 90 54 60
        E 0 90 56 60
        E 0 90 18 60
        E 0 90 1f 60
        E 60 80 60 00
        E 0 80 54 00
        E 0 80 18 00
        E 1 80 62 00
        E 0 80 56 00
        E 0 80 1f 00
        E 179 90 62 60
        E 0 90 56 60
        E 0 90 4a 60
        E 0 90 3e 60
        E 0 90 1f 60
        E 61 80 62 00
        E 0 80 56 00
        E 0 80 4a 00
        E 0 80 3e 00
        E 0 80 1f 00
        E 179 90 60 60
        E 0 90 62 60
        E 0 90 54 60
        E 0 90 56 60
        E 0 90 18 60
        E 0 90 1f 60
        E 60 80 60 00
        E 0 80 62 00
        E 0 80 54 00
        E 0 80 56 00
        E 0 80 18 00
        E 0 80 1f 00
        E 180 90 61 60
        E 0 90 62 60
        E 0 90 55 60
        E 0 90 56 60
        E 0 90 49 60
        E 0 90 4a 60
        E 0 90 3d 60
        E 0 90 3e 60
        E 0 90 1a 60
        E 0 90 1f 60
        E 60 80 61 00
        E 0 80 62 00
        E 0 80 55 00
        E 0 80 56 00
        E 0 80 49 00
        E 0 80 4a 00
        E 0 80 3d 00
        E 0 80 3e 00
        E 0 80 1a 00
        E 0 80 1f 00
        E 180 90 62 60
        E 0 90 78 60
        E 0 90 79 60
        E 0 90 7a 60
        E 0 90 7b 60
        E 0 90 7c 60
        E 0 90 56 60
        E 0 90 1f 60
        E 60 80 62 00
        E 0 80 56 00
        E 0 80 1f 00
        E 180 90 60 60
        E 0 90 62 60
        E 0 90 54 60
        E 0 90 56 60
        E 0 90 48 60
        E 0 90 4a 60
        E 0 90 3e 60
        E 0 90 18 60
        E 0 90 1f 60
        E 60 80 60 00
        E 0 80 62 00
        E 0 80 54 00
        E 0 80 56 00
        E 0 80 48 00
        E 0 80 4a 00
        E 0 80 3e 00
        E 0 80 18 00
        E 0 80 1f 00
        E 180 90 60 60
        E 0 90 62 60
        E 0 90 54 60
        E 0 90 56 60
        E 0 90 18 60
        E 0 90 1f 60
        E 60 80 60 00
        E 0 80 62 00
        E 0 80 54 00
        E 0 80 56 00
        E 0 80 18 00
        E 0 80 1f 00
        E 180 90 61 60
        E 0 90 62 60
        E 0 90 55 60
        E 0 90 56 60
        E 0 90 49 60
        E 0 90 4a 60
        E 0 90 3d 60
        E 0 90 3e 60
        E 0 90 1a 60
        E 0 90 1f 60
        E 60 80 61 00
        E 0 80 55 00
        E 0 80 49 00
        E 0 80 3d 00
        E 0 80 1a 00
        E 1 80 62 00
        E 0 80 56 00
        E 0 80 4a 00
        E 0 80 3e 00
        E 0 80 1f 00
        E 178 90 62 60
        E 0 90 56 60
        E 0 90 1f 60
        E 61 80 62 00
        E 0 80 56 00
        E 0 80 1f 00
        E 180 80 78 00
        E 0 80 79 00
        E 0 80 7a 00
        E 0 80 7b 00
        E 0 80 7c 00
        E 0 90 60 60
        E 0 90 64 60
        E 0 90 54 60
        E 0 90 58 60
        E 0 90 48 60
        E 0 90 4c 60
        E 0 90 40 60
        E 0 90 18 60
        E 0 90 26 60
        E 60 80 60 00
        E 0 80 54 00
        E 0 80 48 00
        E 0 80 18 00
        E 1 80 64 00
        E 0 80 58 00
        E 0 80 4c 00
        E 0 80 40 00
        E 0 80 26 00
        E 179 90 60 60
        E 0 90 62 60
        E 0 90 54 60
        E 0 90 56 60
        E 0 90 18 60
        E 0 90 1f 60
        E 60 80 60 00
        E 0 80 62 00
        E 0 80 54 00
        E 0 80 56 00
        E 0 80 18 00
        E 0 80 1f 00
        E 180 90 61 60
        E 0 90 62 60
        E 0 90 55 60
        E 0 90 56 60
        E 0 90 49 60
        E 0 90 4a 60
        E 0 90 3d 60
        E 0 90 3e 60
        E 0 90 1a 60
        E 0 90 1f 60
        E 60 80 61 00
        E 0 80 62 00
        E 0 80 55 00
        E 0 80 56 00
        E 0 80 49 00
        E 0 80 4a 00
        E 0 80 3d 00
        E 0 80 3e 00
        E 0 80 1a 00
        E 0 80 1f 00
        E 180 90 60 60
        E 0 90 62 60
        E 0 90 54 60
        E 0 90 56 60
        E 0 90 18 60
        E 0 90 1f 60
        E 60 80 60 00
        E 0 80 62 00
        E 0 80 54 00
        E 0 80 56 00
        E 0 80 18 00
        E 0 80 1f 00
        E 180 90 62 60
        E 0 90 56 60
        E 0 90 4a 60
        E 0 90 3e 60
        E 0 90 1f 60
        E 60 80 62 00
        E 0 80 56 00
        E 0 80 4a 00
        E 0 80 3e 00
        E 0 80 1f 00
        E 180 90 60 60
        E 0 90 62 60
        E 0 90 54 60
        E 0 90 56 60
        E 0 90 18 60
        E 0 90 1f 60
        E 60 80 60 00
        E 0 80 62 00
        E 0 80 54 00
        E 0 80 56 00
        E 0 80 18 00
        E 0 80 1f 00
        E 180 90 61 60
        E 0 90 62 60
        E 0 90 55 60
        E 0 90 56 60
        E 0 90 49 60
        E 0 90 4a 60
        E 0 90 3d 60
        E 0 90 3e 60
        E 0 90 1a 60
        E 0 90 1f 60
        E 60 80 61 00
        E 0 80 62 00
        E 0 80 55 00
        E 0 80 56 00
        E 0 80 49 00
        E 0 80 4a 00
        E 0 80 3d 00
        E 0 80 3e 00
        E 0 80 1a 00
        E 0 80 1f 00
        E 180 90 60 60
        E 0 90 62 60
        E 0 90 54 60
        E 0 90 56 60
        E 0 90 18 60
        E 0 90 1f 60
        E 60 80 60 00
        E 0 80 54 00
        E 0 80 18 00
        E 1 80 62 00
        E 0 80 56 00
        E 0 80 1f 00
        E 179 90 62 60
        E 0 90 56 60
        E 0 90 4a 60
        E 0 90 3e 60
        E 0 90 1f 60
        E 61 80 62 00
        E 0 80 56 00
        E 0 80 4a 00
        E 0 80 3e 00
        E 0 80 1f 00
        E 179 90 60 60
        E 0 90 62 60
        E 0 90 54 60
        E 0 90 56 60
        E 0 90 18 60
        E 0 90 1f 60
        E 60 80 60 00
        E 0 80 62 00
        E 0 80 54 00
        E 0 80 56 00
        E 0 80 18 00
        E 0 80 1f 00
        E 180 90 61 60
        E 0 90 62 60
        E 0 90 55 60
        E 0 90 56 60
        E 0 90 49 60
        E 0 90 4a 60
        E 0 90 3d 60
        E 0 90 3e 60
        E 0 90 1a 60
        E 0 90 1f 60
        E 60 80 61 00
        E 0 80 62 00
        E 0 80 55 00
        E 0 80 56 00
        E 0 80 49 00
        E 0 80 4a 00
        E 0 80 3d 00
        E 0 80 3e 00
        E 0 80 1a 00
        E 0 80 1f 00
        E 180 90 60 60
        E 0 90 62 60
        E 0 90 54 60
        E 0 90 56 60
        E 0 90 18 60
        E 0 90 1f 60
        E 60 80 60 00
        E 0 80 62 00
        E 0 80 54 00
        E 0 80 56 00
        E 0 80 18 00
        E 0 80 1f 00
        E 180 90 62 60
        E 0 90 56 60
        E 0 90 4a 60
        E 0 90 3e 60
        E 0 90 1f 60
        E 60 80 62 00
        E 0 80 56 00
        E 0 80 4a 00
        E 0 80 3e 00
        E 0 80 1f 00
        E 180 90 60 60
        E 0 90 62 60
        E 0 90 54 60
        E 0 90 56 60
        E 0 90 18 60
        E 0 90 1f 60
        E 60 80 60 00
        E 0 80 62 00
        E 0 80 54 00
        E 0 80 56 00
        E 0 80 18 00
        E 0 80 1f 00
        E 180 90 61 60
        E 0 90 62 60
        E 0 90 55 60
        E 0 90 56 60
        E 0 90 49 60
        E 0 90 4a 60
        E 0 90 3d 60
        E 0 90 3e 60
        E 0 90 1a 60
        E 0 90 1f 60
        E 60 80 61 00
        E 0 80 55 00
        E 0 80 49 00
        E 0 80 3d 00
        E 0 80 1a 00
        E 1 80 62 00
        E 0 80 56 00
        E 0 80 4a 00
        E 0 80 3e 00
        E 0 80 1f 00
        E 179 90 60 60
        E 0 90 62 60
        E 0 90 54 60
        E 0 90 56 60
        E 0 90 18 60
        E 0 90 1f 60
        E 60 80 60 00
        E 0 80 54 00
        E 0 80 18 00
        E 1 80 62 00
        E 0 80 56 00
        E 0 80 1f 00
        E 179 90 61 60
        E 0 90 62 60
        E 0 90 55 60
        E 0 90 56 60
        E 0 90 49 60
        E 0 90 4a 60
        E 0 90 3d 60
        E 0 90 3e 60
        E 0 90 1a 60
        E 0 90 1f 60
        E 60 80 61 00
        E 0 80 62 00
        E 0 80 55 00
        E 0 80 56 00
        E 0 80 49 00
        E 0 80 4a 00
        E 0 80 3d 00
        E 0 80 3e 00
        E 0 80 1a 00
        E 0 80 1f 00
        E 180 90 60 60
        E 0 90 62 60
        E 0 90 54 60
        E 0 90 56 60
        E 0 90 18 60
        E 0 90 1f 60
        E 60 80 60 00
        E 0 80 62 00
        E 0 80 54 00
        E 0 80 56 00
        E 0 80 18 00
        E 0 80 1f 00
        E 180 90 61 60
        E 0 90 62 60
        E 0 90 55 60
        E 0 90 56 60
        E 0 90 49 60
        E 0 90 4a 60
        E 0 90 3d 60
        E 0 90 3e 60
        E 0 90 1a 60
        E 0 90 1f 60
        E 60 80 61 00
        E 0 80 62 00
        E 0 80 55 00
        E 0 80 56 00
        E 0 80 49 00
        E 0 80 4a 00
        E 0 80 3d 00
        E 0 80 3e 00
        E 0 80 1a 00
        E 0 80 1f 00
        E 180 90 60 60
        E 0 90 62 60
        E 0 90 54 60
        E 0 90 56 60
        E 0 90 18 60
        E 0 90 1f 60
        E 60 80 60 00
        E 0 80 62 00
        E 0 80 54 00
        E 0 80 56 00
        E 0 80 18 00
        E 0 80 1f 00
        E 180 90 61 60
        E 0 90 62 60
        E 0 90 55 60
        E 0 90 56 60
        E 0 90 49 60
        E 0 90 4a 60
        E 0 90 3d 60
        E 0 90 3e 60
        E 0 90 1a 60
        E 0 90 1f 60
        E 60 80 61 00
        E 0 80 62 00
        E 0 80 55 00
        E 0 80 56 00
        E 0 80 49 00
        E 0 80 4a 00
        E 0 80 3d 00
        E 0 80 3e 00
        E 0 80 1a 00
        E 0 80 1f 00
        E 180 90 60 60
        E 0 90 62 60
        E 0 90 54 60
        E 0 90 56 60
        E 0 90 18 60
        E 0 90 1f 60
        E 60 80 60 00
        E 0 80 62 00
        E 0 80 54 00
        E 0 80 56 00
        E 0 80 18 00
        E 0 80 1f 00
        E 180 90 61 60
        E 0 90 55 60
        E 0 90 49 60
        E 0 90 3d 60
        E 0 90 1b 60
        E 60 80 61 00
        E 0 80 55 00
        E 0 80 49 00
        E 0 80 3d 00
        E 0 80 1b 00
        E 60 90 61 60
        E 0 90 1a 60
        E 60 80 61 00
        E 0 80 1a 00
        E 60 90 61 60
        E 0 90 55 60
        E 0 90 1b 60
        E 60 80 61 00
        E 0 80 55 00
        E 0 80 1b 00
        E 60 90 61 60
        E 0 90 1a 60
        E 60 80 61 00
        E 0 80 1a 00
        E 60 90 61 60
        E 0 90 55 60
        E 0 90 49 60
        E 0 90 3d 60
        E 0 90 1b 60
        E 60 80 61 00
        E 0 80 55 00
        E 0 80 49 00
        E 0 80 3d 00
        E 0 80 1b 00
        E 1140 90 62 60
        E 0 90 56 60
        E 0 90 6e 60
        E 0 90 2f 60
        E 60 80 62 00
        E 0 80 56 00
        E 0 80 6e 00
        E 0 80 2f 00
        E 60 90 60 60
        E 0 90 18 60
        E 60 80 60 00
        E 0 80 18 00
        E 60 90 61 60
        E 0 90 64 60
        E 0 90 55 60
        E 0 90 58 60
        E 0 90 49 60
        E 0 90 4c 60
        E 0 90 3d 60
        E 0 90 40 60
        E 0 90 1a 60
        E 0 90 26 60
        E 60 80 61 00
        E 0 80 64 00
        E 0 80 55 00
        E 0 80 58 00
        E 0 80 49 00
        E 0 80 4c 00
        E 0 80 3d 00
        E 0 80 40 00
        E 0 80 1a 00
        E 0 80 26 00
        E 420 90 60 60
        E 0 90 62 60
        E 0 90 54 60
        E 0 90 56 60
        E 0 90 48 60
        E 0 90 4a 60
        E 0 90 3e 60
        E 0 90 18 60
        E 0 90 1f 60
        E 60 80 60 00
        E 0 80 54 00
        E 0 80 48 00
        E 0 80 18 00
        E 1 80 62 00
        E 0 80 56 00
        E 0 80 4a 00
        E 0 80 3e 00
        E 0 80 1f 00
        E 179 90 62 60
        E 0 90 56 60
        E 0 90 1f 60
        E 60 80 62 00
        E 0 80 56 00
        E 0 80 1f 00
        E 180 90 61 60
        E 0 90 62 60
        E 0 90 55 60
        E 0 90 56 60
        E 0 90 49 60
        E 0 90 4a 60
        E 0 90 3d 60
        E 0 90 3e 60
        E 0 90 1a 60
        E 0 90 1f 60
        E 60 80 61 00
        E 0 80 62 00
        E 0 80 55 00
        E 0 80 56 00
        E 0 80 49 00
        E 0 80 4a 00
        E 0 80 3d 00
        E 0 80 3e 00
        E 0 80 1a 00
        E 0 80 1f 00
        E 180 90 62 60
        E 0 90 56 60
        E 0 90 1f 60
        E 60 80 62 00
        E 0 80 56 00
        E 0 80 1f 00
        E 180 90 60 60
        E 0 90 62 60
        E 0 90 54 60
        E 0 90 56 60
        E 0 90 48 60
        E 0 90 4a 60
        E 0 90 3e 60
        E 0 90 18 60
        E 0 90 1f 60
        E 60 80 60 00
        E 0 80 62 00
        E 0 80 54 00
        E 0 80 56 00
        E 0 80 48 00
        E 0 80 4a 00
        E 0 80 3e 00
        E 0 80 18 00
        E 0 80 1f 00
        E 180 90 60 60
        E 0 90 62 60
        E 0 90 54 60
        E 0 90 56 60
        E 0 90 18 60
        E 0 90 1f 60
        E 60 80 60 00
        E 0 80 62 00
        E 0 80 54 00
        E 0 80 56 00
        E 0 80 18 00
        E 0 80 1f 00
        E 180 90 61 60
        E 0 90 62 60
        E 0 90 55 60
        E 0 90 56 60
        E 0 90 49 60
        E 0 90 4a 60
        E 0 90 3d 60
        E 0 90 3e 60
        E 0 90 1a 60
        E 0 90 1f 60
        E 60 80 61 00
        E 0 80 55 00
        E 0 80 49 00
        E 0 80 3d 00
        E 0 80 1a 00
        E 1 80 62 00
        E 0 80 56 00
        E 0 80 4a 00
        E 0 80 3e 00
        E 0 80 1f 00
        E 179 90 62 60
        E 0 90 56 60
        E 0 90 1f 60
        E 61 80 62 00
        E 0 80 56 00
        E 0 80 1f 00
        E 179 90 60 60
        E 0 90 62 60
        E 0 90 54 60
        E 0 90 56 60
        E 0 90 48 60
        E 0 90 4a 60
        E 0 90 3e 60
        E 0 90 18 60
        E 0 90 1f 60
        E 60 80 60 00
        E 0 80 54 00
        E 0 80 48 00
        E 0 80 18 00
        E 1 80 62 00
        E 0 80 56 00
        E 0 80 4a 00
        E 0 80 3e 00
        E 0 80 1f 00
        E 179 90 62 60
        E 0 90 56 60
        E 0 90 1f 60
        E 60 80 62 00
        E 0 80 56 00
        E 0 80 1f 00
        E 180 90 61 60
        E 0 90 62 60
        E 0 90 55 60
        E 0 90 56 60
        E 0 90 49 60
        E 0 90 4a 60
        E 0 90 3d 60
        E 0 90 3e 60
        E 0 90 1a 60
        E 0 90 1f 60
        E 60 80 61 00
        E 0 80 62 00
        E 0 80 55 00
        E 0 80 56 00
        E 0 80 49 00
        E 0 80 4a 00
        E 0 80 3d 00
        E 0 80 3e 00
        E 0 80 1a 00
        E 0 80 1f 00
        E 180 90 62 60
        E 0 90 56 60
        E 0 90 1f 60
        E 60 80 62 00
        E 0 80 56 00
        E 0 80 1f 00
        E 180 90 60 60
        E 0 90 62 60
        E 0 90 54 60
        E 0 90 56 60
        E 0 90 48 60
        E 0 90 4a 60
        E 0 90 3e 60
        E 0 90 18 60
        E 0 90 1f 60
        E 60 80 60 00
        E 0 80 62 00
        E 0 80 54 00
        E 0 80 56 00
        E 0 80 48 00
        E 0 80 4a 00
        E 0 80 3e 00
        E 0 80 18 00
        E 0 80 1f 00
        E 180 90 60 60
        E 0 90 62 60
        E 0 90 54 60
        E 0 90 56 60
        E 0 90 18 60
        E 0 90 1f 60
        E 60 80 60 00
        E 0 80 62 00
        E 0 80 54 00
        E 0 80 56 00
        E 0 80 18 00
        E 0 80 1f 00
        E 180 90 61 60
        E 0 90 62 60
        E 0 90 55 60
        E 0 90 56 60
        E 0 90 49 60
        E 0 90 4a 60
        E 0 90 3d 60
        E 0 90 3e 60
        E 0 90 1a 60
        E 0 90 1f 60
        E 60 80 61 00
        E 0 80 55 00
        E 0 80 49 00
        E 0 80 3d 00
        E 0 80 1a 00
        E 1 80 62 00
        E 0 80 56 00
        E 0 80 4a 00
        E 0 80 3e 00
        E 0 80 1f 00
        E 179 90 62 60
        E 0 90 56 60
        E 0 90 1f 60
        E 61 80 62 00
        E 0 80 56 00
        E 0 80 1f 00
        E 179 90 60 60
        E 0 90 62 60
        E 0 90 54 60
        E 0 90 56 60
        E 0 90 48 60
        E 0 90 4a 60
        E 0 90 3e 60
        E 0 90 18 60
        E 0 90 1f 60
        E 60 80 60 00
        E 0 80 54 00
        E 0 80 48 00
        E 0 80 18 00
        E 1 80 62 00
        E 0 80 56 00
        E 0 80 4a 00
        E 0 80 3e 00
        E 0 80 1f 00
        E 179 90 62 60
        E 0 90 56 60
        E 0 90 1f 60
        E 60 80 62 00
        E 0 80 56 00
        E 0 80 1f 00
        E 180 90 61 60
        E 0 90 62 60
        E 0 90 55 60
        E 0 90 56 60
        E 0 90 49 60
        E 0 90 4a 60
        E 0 90 3d 60
        E 0 90 3e 60
        E 0 90 1a 60
        E 0 90 1f 60
        E 60 80 61 00
        E 0 80 62 00
        E 0 80 55 00
        E 0 80 56 00
        E 0 80 49 00
        E 0 80 4a 00
        E 0 80 3d 00
        E 0 80 3e 00
        E 0 80 1a 00
        E 0 80 1f 00
        E 180 90 62 60
        E 0 90 56 60
        E 0 90 1f 60
        E 60 80 62 00
        E 0 80 56 00
        E 0 80 1f 00
        E 180 90 60 60
        E 0 90 62 60
        E 0 90 54 60
        E 0 90 56 60
        E 0 90 48 60
        E 0 90 4a 60
        E 0 90 3e 60
        E 0 90 18 60
        E 0 90 1f 60
        E 60 80 60 00
        E 0 80 62 00
        E 0 80 54 00
        E 0 80 56 00
        E 0 80 48 00
        E 0 80 4a 00
        E 0 80 3e 00
        E 0 80 18 00
        E 0 80 1f 00
        E 180 90 60 60
        E 0 90 62 60
        E 0 90 54 60
        E 0 90 56 60
        E 0 90 18 60
        E 0 90 1f 60
        E 60 80 60 00
        E 0 80 62 00
        E 0 80 54 00
        E 0 80 56 00
        E 0 80 18 00
        E 0 80 1f 00
        E 180 90 61 60
        E 0 90 62 60
        E 0 90 55 60
        E 0 90 56 60
        E 0 90 49 60
        E 0 90 4a 60
        E 0 90 3d 60
        E 0 90 3e 60
        E 0 90 1a 60
        E 0 90 1f 60
        E 60 80 61 00
        E 0 80 62 00
        E 0 80 55 00
        E 0 80 56 00
        E 0 80 49 00
        E 0 80 4a 00
        E 0 80 3d 00
        E 0 80 3e 00
        E 0 80 1a 00
        E 0 80 1f 00
        E 180 90 62 60
        E 0 90 56 60
        E 0 90 1f 60
        E 61 80 62 00
        E 0 80 56 00
        E 0 80 1f 00
        E 179 90 60 60
        E 0 90 62 60
        E 0 90 54 60
        E 0 90 56 60
        E 0 90 48 60
        E 0 90 4a 60
        E 0 90 3e 60
        E 0 90 18 60
        E 0 90 1f 60
        E 60 80 60 00
        E 0 80 54 00
        E 0 80 48 00
        E 0 80 18 00
        E 1 80 62 00
        E 0 80 56 00
        E 0 80 4a 00
        E 0 80 3e 00
        E 0 80 1f 00
        E 179 90 62 60
        E 0 90 56 60
        E 0 90 1f 60
        E 60 80 62 00
        E 0 80 56 00
        E 0 80 1f 00
        E 180 90 61 60
        E 0 90 62 60
        E 0 90 55 60
        E 0 90 56 60
        E 0 90 49 60
        E 0 90 4a 60
        E 0 90 3d 60
        E 0 90 3e 60
        E 0 90 1a 60
        E 0 90 1f 60
        E 60 80 61 00
        E 0 80 62 00
        E 0 80 55 00
        E 0 80 56 00
        E 0 80 49 00
        E 0 80 4a 00
        E 0 80 3d 00
        E 0 80 3e 00
        E 0 80 1a 00
        E 0 80 1f 00
        E 180 90 62 60
        E 0 90 56 60
        E 0 90 1f 60
        E 60 80 62 00
        E 0 80 56 00
        E 0 80 1f 00
        E 180 90 60 60
        E 0 90 62 60
        E 0 90 54 60
        E 0 90 56 60
        E 0 90 48 60
        E 0 90 4a 60
        E 0 90 3e 60
        E 0 90 18 60
        E 0 90 1f 60
        E 60 80 60 00
        E 0 80 62 00
        E 0 80 54 00
        E 0 80 56 00
        E 0 80 48 00
        E 0 80 4a 00
        E 0 80 3e 00
        E 0 80 18 00
        E 0 80 1f 00
        E 180 90 60 60
        E 0 90 62 60
        E 0 90 54 60
        E 0 90 56 60
        E 0 90 18 60
        E 0 90 1f 60
        E 60 80 60 00
        E 0 80 62 00
        E 0 80 54 00
        E 0 80 56 00
        E 0 80 18 00
        E 0 80 1f 00
        E 180 90 61 60
        E 0 90 62 60
        E 0 90 55 60
        E 0 90 56 60
        E 0 90 49 60
        E 0 90 4a 60
        E 0 90 3d 60
        E 0 90 3e 60
        E 0 90 1a 60
        E 0 90 1f 60
        E 60 80 61 00
        E 0 80 62 00
        E 0 80 55 00
        E 0 80 56 00
        E 0 80 49 00
        E 0 80 4a 00
        E 0 80 3d 00
        E 0 80 3e 00
        E 0 80 1a 00
        E 0 80 1f 00
        E 180 90 62 60
        E 0 90 56 60
        E 0 90 1f 60
        E 61 80 62 00
        E 0 80 56 00
        E 0 80 1f 00
        E 179 90 60 60
        E 0 90 62 60
        E 0 90 54 60
        E 0 90 56 60
        E 0 90 48 60
        E 0 90 4a 60
        E 0 90 3e 60
        E 0 90 18 60
        E 0 90 1f 60
        E 60 80 60 00
        E 0 80 54 00
        E 0 80 48 00
        E 0 80 18 00
        E 1 80 62 00
        E 0 80 56 00
        E 0 80 4a 00
        E 0 80 3e 00
        E 0 80 1f 00
        E 179 90 62 60
        E 0 90 56 60
        E 0 90 1f 60
        E 60 80 62 00
        E 0 80 56 00
        E 0 80 1f 00
        E 180 90 61 60
        E 0 90 62 60
        E 0 90 55 60
        E 0 90 56 60
        E 0 90 49 60
        E 0 90 4a 60
        E 0 90 3d 60
        E 0 90 3e 60
        E 0 90 1a 60
        E 0 90 1f 60
        E 60 80 61 00
        E 0 80 62 00
        E 0 80 55 00
        E 0 80 56 00
        E 0 80 49 00
        E 0 80 4a 00
        E 0 80 3d 00
        E 0 80 3e 00
        E 0 80 1a 00
        E 0 80 1f 00
        E 162 90 74 60
        E 18 90 62 60
        E 0 90 56 60
        E 0 90 1f 60
        E 60 80 62 00
        E 0 80 56 00
        E 0 80 1f 00
        E 180 90 60 60
        E 0 90 62 60
        E 0 90 54 60
        E 0 90 56 60
        E 0 90 48 60
        E 0 90 4a 60
        E 0 90 3e 60
        E 0 90 18 60
        E 0 90 1f 60
        E 60 80 60 00
        E 0 80 62 00
        E 0 80 54 00
        E 0 80 56 00
        E 0 80 48 00
        E 0 80 4a 00
        E 0 80 3e 00
        E 0 80 18 00
        E 0 80 1f 00
        E 180 90 60 60
        E 0 90 62 60
        E 0 90 54 60
        E 0 90 56 60
        E 0 90 18 60
        E 0 90 1f 60
        E 60 80 60 00
        E 0 80 62 00
        E 0 80 54 00
        E 0 80 56 00
        E 0 80 18 00
        E 0 80 1f 00
        E 180 90 61 60
        E 0 90 62 60
        E 0 90 55 60
        E 0 90 56 60
        E 0 90 49 60
        E 0 90 4a 60
        E 0 90 3d 60
        E 0 90 3e 60
        E 0 90 1a 60
        E 0 90 1f 60
        E 60 80 61 00
        E 0 80 62 00
        E 0 80 55 00
        E 0 80 56 00
        E 0 80 49 00
        E 0 80 4a 00
        E 0 80 3d 00
        E 0 80 3e 00
        E 0 80 1a 00
        E 0 80 1f 00
        E 180 90 60 60
        E 0 90 64 60
        E 0 90 54 60
        E 0 90 58 60
        E 0 90 18 60
        E 0 90 26 60
        E 60 80 60 00
        E 0 80 64 00
        E 0 80 54 00
        E 0 80 58 00
        E 0 80 18 00
        E 0 80 26 00
        E 420 90 62 60
        E 0 90 63 60
        E 0 90 56 60
        E 0 90 57 60
        E 0 90 6e 60
        E 0 90 6f 60
        E 0 90 31 60
        E 0 90 2e 60
        E 60 80 62 00
        E 0 80 63 00
        E 0 80 56 00
        E 0 80 57 00
        E 0 80 6e 00
        E 0 80 6f 00
        E 0 80 31 00
        E 0 80 2e 00
        E 180 90 62 60
        E 0 90 63 60
        E 0 90 56 60
        E 0 90 57 60
        E 0 90 4a 60
        E 0 90 4b 60
        E 0 90 6e 60
        E 0 90 6f 60
        E 0 90 3e 60
        E 0 90 3f 60
        E 0 90 31 60
        E 0 90 2e 60
        E 60 80 62 00
        E 0 80 63 00
        E 0 80 56 00
        E 0 80 57 00
        E 0 80 4a 00
        E 0 80 4b 00
        E 0 80 6e 00
        E 0 80 6f 00
        E 0 80 3e 00
        E 0 80 3f 00
        E 0 80 31 00
        E 0 80 2e 00
        E 180 90 61 60
        E 0 90 64 60
        E 0 90 55 60
        E 0 90 58 60
        E 0 90 1a 60
        E 0 90 26 60
        E 60 80 61 00
        E 0 80 64 00
        E 0 80 55 00
        E 0 80 58 00
        E 0 80 1a 00
        E 0 80 26 00
        E 420 90 62 60
        E 0 90 63 60
        E 0 90 56 60
        E 0 90 57 60
        E 0 90 6e 60
        E 0 90 6f 60
        E 0 90 31 60
        E 0 90 2e 60
        E 60 80 62 00
        E 0 80 63 00
        E 0 80 56 00
        E 0 80 57 00
        E 0 80 6e 00
        E 0 80 6f 00
        E 0 80 31 00
        E 0 80 2e 00
        E 180 90 61 60
        E 0 90 64 60
        E 0 90 55 60
        E 0 90 58 60
        E 0 90 49 60
        E 0 90 4c 60
        E 0 90 3d 60
        E 0 90 40 60
        E 0 90 1a 60
        E 0 90 26 60
        E 20 80 74 00
        E 40 80 61 00
        E 0 80 64 00
        E 0 80 55 00
        E 0 80 58 00
        E 0 80 49 00
        E 0 80 4c 00
        E 0 80 3d 00
        E 0 80 40 00
        E 0 80 1a 00
        E 0 80 26 00
        E 420 90 60 60
        E 0 90 64 60
        E 0 90 54 60
        E 0 90 58 60
        E 0 90 48 60
        E 0 90 4c 60
        E 0 90 40 60
        E 0 90 18 60
        E 0 90 26 60
        E 60 80 60 00
        E 0 80 54 00
        E 0 80 48 00
        E 0 80 18 00
        E 1 80 64 00
        E 0 80 58 00
        E 0 80 4c 00
        E 0 80 40 00
        E 0 80 26 00
        E 179 90 62 60
        E 0 90 56 60
        E 0 90 1f 60
        E 60 80 62 00
        E 0 80 56 00
        E 0 80 1f 00
        E 180 90 61 60
        E 0 90 62 60
        E 0 90 55 60
        E 0 90 56 60
        E 0 90 49 60
        E 0 90 4a 60
        E 0 90 3d 60
        E 0 90 3e 60
        E 0 90 1a 60
        E 0 90 1f 60
        E 60 80 61 00
        E 0 80 62 00
        E 0 80 55 00
        E 0 80 56 00
        E 0 80 49 00
        E 0 80 4a 00
        E 0 80 3d 00
        E 0 80 3e 00
        E 0 80 1a 00
        E 0 80 1f 00
        E 180 90 62 60
        E 0 90 78 60
        E 0 90 79 60
        E 0 90 7a 60
        E 0 90 7b 60
        E 0 90 7c 60
        E 0 90 56 60
        E 0 90 1f 60
        E 60 80 62 00
        E 0 80 56 00
        E 0 80 1f 00
        E 180 90 60 60
        E 0 90 62 60
        E 0 90 54 60
        E 0 90 56 60
        E 0 90 48 60
        E 0 90 4a 60
        E 0 90 3e 60
        E 0 90 18 60
        E 0 90 1f 60
        E 60 80 60 00
        E 0 80 62 00
        E 0 80 54 00
        E 0 80 56 00
        E 0 80 48 00
        E 0 80 4a 00
        E 0 80 3e 00
        E 0 80 18 00
        E 0 80 1f 00
        E 180 90 60 60
        E 0 90 62 60
        E 0 90 54 60
        E 0 90 56 60
        E 0 90 18 60
        E 0 90 1f 60
        E 60 80 60 00
        E 0 80 62 00
        E 0 80 54 00
        E 0 80 56 00
        E 0 80 18 00
        E 0 80 1f 00
        E 180 90 61 60
        E 0 90 62 60
        E 0 90 55 60
        E 0 90 56 60
        E 0 90 49 60
        E 0 90 4a 60
        E 0 90 3d 60
        E 0 90 3e 60
        E 0 90 1a 60
        E 0 90 1f 60
        E 60 80 61 00
        E 0 80 62 00
        E 0 80 55 00
        E 0 80 56 00
        E 0 80 49 00
        E 0 80 4a 00
        E 0 80 3d 00
        E 0 80 3e 00
        E 0 80 1a 00
        E 0 80 1f 00
        E 180 90 62 60
        E 0 90 56 60
        E 0 90 1f 60
        E 61 80 62 00
        E 0 80 56 00
        E 0 80 1f 00
        E 179 80 78 00
        E 0 80 79 00
        E 0 80 7a 00
        E 0 80 7b 00
        E 0 80 7c 00
        E 0 90 61 60
        E 0 90 64 60
        E 0 90 55 60
        E 0 90 58 60
        E 0 90 49 60
        E 0 90 4c 60
        E 0 90 3d 60
        E 0 90 40 60
        E 0 90 1a 60
        E 0 90 26 60
        E 60 80 61 00
        E 0 80 55 00
        E 0 80 49 00
        E 0 80 3d 00
        E 0 80 1a 00
        E 1 80 64 00
        E 0 80 58 00
        E 0 80 4c 00
        E 0 80 40 00
        E 0 80 26 00
        E 179 90 60 60
        E 0 90 62 60
        E 0 90 54 60
        E 0 90 56 60
        E 0 90 18 60
        E 0 90 1f 60
        E 60 80 60 00
        E 0 80 62 00
        E 0 80 54 00
        E 0 80 56 00
        E 0 80 18 00
        E 0 80 1f 00
        E 180 90 61 60
        E 0 90 62 60
        E 0 90 55 60
        E 0 90 56 60
        E 0 90 49 60
        E 0 90 4a 60
        E 0 90 3d 60
        E 0 90 3e 60
        E 0 90 1a 60
        E 0 90 1f 60
        E 60 80 61 00
        E 0 80 62 00
        E 0 80 55 00
        E 0 80 56 00
        E 0 80 49 00
        E 0 80 4a 00
        E 0 80 3d 00
        E 0 80 3e 00
        E 0 80 1a 00
        E 0 80 1f 00
        E 180 90 60 60
        E 0 90 62 60
        E 0 90 54 60
        E 0 90 56 60
        E 0 90 18 60
        E 0 90 1f 60
        E 60 80 60 00
        E 0 80 62 00
        E 0 80 54 00
        E 0 80 56 00
        E 0 80 18 00
        E 0 80 1f 00
        E 180 90 61 60
        E 0 90 62 60
        E 0 90 55 60
        E 0 90 56 60
        E 0 90 49 60
        E 0 90 4a 60
        E 0 90 3d 60
        E 0 90 3e 60
        E 0 90 1a 60
        E 0 90 1f 60
        E 60 80 61 00
        E 0 80 62 00
        E 0 80 55 00
        E 0 80 56 00
        E 0 80 49 00
        E 0 80 4a 00
        E 0 80 3d 00
        E 0 80 3e 00
        E 0 80 1a 00
        E 0 80 1f 00
        E 180 90 61 60
        E 0 90 55 60
        E 0 90 1b 60
        E 60 80 61 00
        E 0 80 55 00
        E 0 80 1b 00
        E 60 90 61 60
        E 0 90 1a 60
        E 60 80 61 00
        E 0 80 1a 00
        E 60 90 61 60
        E 0 90 55 60
        E 0 90 49 60
        E 0 90 3d 60
        E 0 90 1b 60
        E 60 80 61 00
        E 0 80 55 00
        E 0 80 49 00
        E 0 80 3d 00
        E 0 80 1b 00
        E 60 90 61 60
        E 0 90 1a 60
        E 60 80 61 00
        E 0 80 1a 00
        E 60 90 61 60
        E 0 90 55 60
        E 0 90 1b 60
        E 60 80 61 00
        E 0 80 55 00
        E 0 80 1b 00
        E 60 90 61 60
        E 0 90 1a 60
        E 60 80 61 00
        E 0 80 1a 00
        E 60 90 60 60
        E 0 90 64 60
        E 0 90 54 60
        E 0 90 58 60
        E 0 90 48 60
        E 0 90 4c 60
        E 0 90 40 60
        E 0 90 18 60
        E 0 90 26 60
        E 60 80 60 00
        E 0 80 54 00
        E 0 80 48 00
        E 0 80 18 00
        E 1 80 64 00
        E 0 80 58 00
        E 0 80 4c 00
        E 0 80 40 00
        E 0 80 26 00
        E 179 90 62 60
        E 0 90 56 60
        E 0 90 1f 60
        E 60 80 62 00
        E 0 80 56 00
        E 0 80 1f 00
        E 180 90 61 60
        E 0 90 62 60
        E 0 90 55 60
        E 0 90 56 60
        E 0 90 49 60
        E 0 90 4a 60
        E 0 90 3d 60
        E 0 90 3e 60
        E 0 90 1a 60
        E 0 90 1f 60
        E 60 80 61 00
        E 0 80 62 00
        E 0 80 55 00
        E 0 80 56 00
        E 0 80 49 00
        E 0 80 4a 00
        E 0 80 3d 00
        E 0 80 3e 00
        E 0 80 1a 00
        E 0 80 1f 00
        E 180 90 62 60
        E 0 90 56 60
        E 0 90 1f 60
        E 60 80 62 00
        E 0 80 56 00
        E 0 80 1f 00
        E 180 90 60 60
        E 0 90 62 60
        E 0 90 54 60
        E 0 90 56 60
        E 0 90 48 60
        E 0 90 4a 60
        E 0 90 3e 60
        E 0 90 18 60
        E 0 90 1f 60
        E 60 80 60 00
        E 0 80 62 00
        E 0 80 54 00
        E 0 80 56 00
        E 0 80 48 00
        E 0 80 4a 00
        E 0 80 3e 00
        E 0 80 18 00
        E 0 80 1f 00
        E 180 90 60 60
        E 0 90 62 60
        E 0 90 54 60
        E 0 90 56 60
        E 0 90 18 60
        E 0 90 1f 60
        E 60 80 60 00
        E 0 80 62 00
        E 0 80 54 00
        E 0 80 56 00
        E 0 80 18 00
        E 0 80 1f 00
        E 180 90 61 60
        E 0 90 62 60
        E 0 90 55 60
        E 0 90 56 60
        E 0 90 49 60
        E 0 90 4a 60
        E 0 90 3d 60
        E 0 90 3e 60
        E 0 90 1a 60
        E 0 90 1f 60
        E 60 80 61 00
        E 0 80 62 00
        E 0 80 55 00
        E 0 80 56 00
        E 0 80 49 00
        E 0 80 4a 00
        E 0 80 3d 00
        E 0 80 3e 00
        E 0 80 1a 00
        E 0 80 1f 00
        E 179 90 62 60
        E 0 90 56 60
        E 0 90 1f 60
        E 61 80 62 00
        E 0 80 56 00
        E 0 80 1f 00
        E 180 90 60 60
        E 0 90 62 60
        E 0 90 54 60
        E 0 90 56 60
        E 0 90 48 60
        E 0 90 4a 60
        E 0 90 3e 60
        E 0 90 18 60
        E 0 90 1f 60
        E 60 80 60 00
        E 0 80 54 00
        E 0 80 48 00
        E 0 80 18 00
        E 1 80 62 00
        E 0 80 56 00
        E 0 80 4a 00
        E 0 80 3e 00
        E 0 80 1f 00
        E 180 90 62 60
        E 0 90 56 60
        E 0 90 1f 60
        E 60 80 62 00
        E 0 80 56 00
        E 0 80 1f 00
        E 179 90 61 60
        E 0 90 62 60
        E 0 90 55 60
        E 0 90 56 60
        E 0 90 49 60
        E 0 90 4a 60
        E 0 90 3d 60
        E 0 90 3e 60
        E 0 90 1a 60
        E 0 90 1f 60
        E 60 80 61 00
        E 0 80 62 00
        E 0 80 55 00
        E 0 80 56 00
        E 0 80 49 00
        E 0 80 4a 00
        E 0 80 3d 00
        E 0 80 3e 00
        E 0 80 1a 00
        E 0 80 1f 00
        E 180 90 62 60
        E 0 90 56 60
        E 0 90 1f 60
        E 60 80 62 00
        E 0 80 56 00
        E 0 80 1f 00
        E 180 90 60 60
        E 0 90 62 60
        E 0 90 54 60
        E 0 90 56 60
        E 0 90 48 60
        E 0 90 4a 60
        E 0 90 3e 60
        E 0 90 18 60
        E 0 90 1f 60
        E 60 80 60 00
        E 0 80 62 00
        E 0 80 54 00
        E 0 80 56 00
        E 0 80 48 00
        E 0 80 4a 00
        E 0 80 3e 00
        E 0 80 18 00
        E 0 80 1f 00
        E 180 90 60 60
        E 0 90 62 60
        E 0 90 54 60
        E 0 90 56 60
        E 0 90 18 60
        E 0 90 1f 60
        E 60 80 60 00
        E 0 80 62 00
        E 0 80 54 00
        E 0 80 56 00
        E 0 80 18 00
        E 0 80 1f 00
        E 180 90 61 60
        E 0 90 62 60
        E 0 90 55 60
        E 0 90 56 60
        E 0 90 49 60
        E 0 90 4a 60
        E 0 90 3d 60
        E 0 90 3e 60
        E 0 90 1a 60
        E 0 90 1f 60
        E 60 80 61 00
        E 0 80 62 00
        E 0 80 55 00
        E 0 80 56 00
        E 0 80 49 00
        E 0 80 4a 00
        E 0 80 3d 00
        E 0 80 3e 00
        E 0 80 1a 00
        E 0 80 1f 00
        E 179 90 62 60
        E 0 90 56 60
        E 0 90 1f 60
        E 61 80 62 00
        E 0 80 56 00
        E 0 80 1f 00
        E 180 90 60 60
        E 0 90 64 60
        E 0 90 54 60
        E 0 90 58 60
        E 0 90 48 60
        E 0 90 4c 60
        E 0 90 40 60
        E 0 90 18 60
        E 0 90 26 60
        E 60 80 60 00
        E 0 80 54 00
        E 0 80 48 00
        E 0 80 18 00
        E 1 80 64 00
        E 0 80 58 00
        E 0 80 4c 00
        E 0 80 40 00
        E 0 80 26 00
        E 180 90 62 60
        E 0 90 56 60
        E 0 90 1f 60
        E 60 80 62 00
        E 0 80 56 00
        E 0 80 1f 00
        E 179 90 61 60
        E 0 90 62 60
        E 0 90 55 60
        E 0 90 56 60
        E 0 90 49 60
        E 0 90 4a 60
        E 0 90 3d 60
        E 0 90 3e 60
        E 0 90 1a 60
        E 0 90 1f 60
        E 60 80 61 00
        E 0 80 62 00
        E 0 80 55 00
        E 0 80 56 00
        E 0 80 49 00
        E 0 80 4a 00
        E 0 80 3d 00
        E 0 80 3e 00
        E 0 80 1a 00
        E 0 80 1f 00
        E 180 90 62 60
        E 0 90 56 60
        E 0 90 1f 60
        E 60 80 62 00
        E 0 80 56 00
        E 0 80 1f 00
        E 180 90 60 60
        E 0 90 62 60
        E 0 90 54 60
        E 0 90 56 60
        E 0 90 48 60
        E 0 90 4a 60
        E 0 90 3e 60
        E 0 90 18 60
        E 0 90 1f 60
        E 60 80 60 00
        E 0 80 62 00
        E 0 80 54 00
        E 0 80 56 00
        E 0 80 48 00
        E 0 80 4a 00
        E 0 80 3e 00
        E 0 80 18 00
        E 0 80 1f 00
        E 180 90 60 60
        E 0 90 62 60
        E 0 90 54 60
        E 0 90 56 60
        E 0 90 18 60
        E 0 90 1f 60
        E 60 80 60 00
        E 0 80 62 00
        E 0 80 54 00
        E 0 80 56 00
        E 0 80 18 00
        E 0 80 1f 00
        E 180 90 61 60
        E 0 90 62 60
        E 0 90 55 60
        E 0 90 56 60
        E 0 90 49 60
        E 0 90 4a 60
        E 0 90 3d 60
        E 0 90 3e 60
        E 0 90 1a 60
        E 0 90 1f 60
        E 60 80 61 00
        E 0 80 62 00
        E 0 80 55 00
        E 0 80 56 00
        E 0 80 49 00
        E 0 80 4a 00
        E 0 80 3d 00
        E 0 80 3e 00
        E 0 80 1a 00
        E 0 80 1f 00
        E 179 90 62 60
        E 0 90 56 60
        E 0 90 1f 60
        E 61 80 62 00
        E 0 80 56 00
        E 0 80 1f 00
        E 180 90 60 60
        E 0 90 62 60
        E 0 90 54 60
        E 0 90 56 60
        E 0 90 48 60
        E 0 90 4a 60
        E 0 90 3e 60
        E 0 90 18 60
        E 0 90 1f 60
        E 60 80 60 00
        E 0 80 54 00
        E 0 80 48 00
        E 0 80 18 00
        E 1 80 62 00
        E 0 80 56 00
        E 0 80 4a 00
        E 0 80 3e 00
        E 0 80 1f 00
        E 180 90 62 60
        E 0 90 56 60
        E 0 90 1f 60
        E 60 80 62 00
        E 0 80 56 00
        E 0 80 1f 00
        E 179 90 61 60
        E 0 90 62 60
        E 0 90 55 60
        E 0 90 56 60
        E 0 90 49 60
        E 0 90 4a 60
        E 0 90 3d 60
        E 0 90 3e 60
        E 0 90 1a 60
        E 0 90 1f 60
        E 60 80 61 00
        E 0 80 62 00
        E 0 80 55 00
        E 0 80 56 00
        E 0 80 49 00
        E 0 80 4a 00
        E 0 80 3d 00
        E 0 80 3e 00
        E 0 80 1a 00
        E 0 80 1f 00
        E 180 90 62 60
        E 0 90 56 60
        E 0 90 1f 60
        E 60 80 62 00
        E 0 80 56 00
        E 0 80 1f 00
        E 180 90 60 60
        E 0 90 62 60
        E 0 90 54 60
        E 0 90 56 60
        E 0 90 48 60
        E 0 90 4a 60
        E 0 90 3e 60
        E 0 90 18 60
        E 0 90 1f 60
        E 60 80 60 00
        E 0 80 62 00
        E 0 80 54 00
        E 0 80 56 00
        E 0 80 48 00
        E 0 80 4a 00
        E 0 80 3e 00
        E 0 80 18 00
        E 0 80 1f 00
        E 180 90 60 60
        E 0 90 62 60
        E 0 90 54 60
        E 0 90 56 60
        E 0 90 18 60
        E 0 90 1f 60
        E 60 80 60 00
        E 0 80 62 00
        E 0 80 54 00
        E 0 80 56 00
        E 0 80 18 00
        E 0 80 1f 00
        E 180 90 61 60
        E 0 90 62 60
        E 0 90 55 60
        E 0 90 56 60
        E 0 90 49 60
        E 0 90 4a 60
        E 0 90 3d 60
        E 0 90 3e 60
        E 0 90 1a 60
        E 0 90 1f 60
        E 60 80 61 00
        E 0 80 62 00
        E 0 80 55 00
        E 0 80 56 00
        E 0 80 49 00
        E 0 80 4a 00
        E 0 80 3d 00
        E 0 80 3e 00
        E 0 80 1a 00
        E 0 80 1f 00
        E 179 90 62 60
        E 0 90 56 60
        E 0 90 1f 60
        E 61 80 62 00
        E 0 80 56 00
        E 0 80 1f 00
        E 180 90 60 60
        E 0 90 62 60
        E 0 90 54 60
        E 0 90 56 60
        E 0 90 48 60
        E 0 90 4a 60
        E 0 90 3e 60
        E 0 90 18 60
        E 0 90 1f 60
        E 60 80 60 00
        E 0 80 54 00
        E 0 80 48 00
        E 0 80 18 00
        E 1 80 62 00
        E 0 80 56 00
        E 0 80 4a 00
        E 0 80 3e 00
        E 0 80 1f 00
        E 180 90 62 60
        E 0 90 56 60
        E 0 90 1f 60
        E 60 80 62 00
        E 0 80 56 00
        E 0 80 1f 00
        E 179 90 61 60
        E 0 90 62 60
        E 0 90 78 60
        E 0 90 79 60
        E 0 90 7a 60
        E 0 90 7b 60
        E 0 90 7c 60
        E 0 90 55 60
        E 0 90 56 60
        E 0 90 49 60
        E 0 90 4a 60
        E 0 90 3d 60
        E 0 90 3e 60
        E 0 90 1a 60
        E 0 90 1f 60
        E 60 80 61 00
        E 0 80 62 00
        E 0 80 55 00
        E 0 80 56 00
        E 0 80 49 00
        E 0 80 4a 00
        E 0 80 3d 00
        E 0 80 3e 00
        E 0 80 1a 00
        E 0 80 1f 00
        E 180 90 62 60
        E 0 90 56 60
        E 0 90 1f 60
        E 60 80 62 00
        E 0 80 56 00
        E 0 80 1f 00
        E 180 90 60 60
        E 0 90 62 60
        E 0 90 54 60
        E 0 90 56 60
        E 0 90 48 60
        E 0 90 4a 60
        E 0 90 3e 60
        E 0 90 18 60
        E 0 90 1f 60
        E 60 80 60 00
        E 0 80 62 00
        E 0 80 54 00
        E 0 80 56 00
        E 0 80 48 00
        E 0 80 4a 00
        E 0 80 3e 00
        E 0 80 18 00
        E 0 80 1f 00
        E 180 90 60 60
        E 0 90 62 60
        E 0 90 54 60
        E 0 90 56 60
        E 0 90 18 60
        E 0 90 1f 60
        E 60 80 60 00
        E 0 80 62 00
        E 0 80 54 00
        E 0 80 56 00
        E 0 80 18 00
        E 0 80 1f 00
        E 180 90 61 60
        E 0 90 62 60
        E 0 90 55 60
        E 0 90 56 60
        E 0 90 49 60
        E 0 90 4a 60
        E 0 90 3d 60
        E 0 90 3e 60
        E 0 90 1a 60
        E 0 90 1f 60
        E 60 80 61 00
        E 0 80 62 00
        E 0 80 55 00
        E 0 80 56 00
        E 0 80 49 00
        E 0 80 4a 00
        E 0 80 3d 00
        E 0 80 3e 00
        E 0 80 1a 00
        E 0 80 1f 00
        E 180 80 78 00
        E 0 80 79 00
        E 0 80 7a 00
        E 0 80 7b 00
        E 0 80 7c 00
        E 0 90 60 60
        E 0 90 64 60
        E 0 90 54 60
        E 0 90 58 60
        E 0 90 18 60
        E 0 90 26 60
        E 60 80 60 00
        E 0 80 54 00
        E 0 80 18 00
        E 1 80 64 00
        E 0 80 58 00
        E 0 80 26 00
        E 179 90 62 60
        E 0 90 56 60
        E 0 90 4a 60
        E 0 90 3e 60
        E 0 90 1f 60
        E 61 80 62 00
        E 0 80 56 00
        E 0 80 4a 00
        E 0 80 3e 00
        E 0 80 1f 00
        E 179 90 60 60
        E 0 90 63 60
        E 0 90 54 60
        E 0 90 57 60
        E 0 90 6f 60
        E 0 90 18 60
        E 0 90 31 60
        E 60 80 60 00
        E 0 80 63 00
        E 0 80 54 00
        E 0 80 57 00
        E 0 80 6f 00
        E 0 80 18 00
        E 0 80 31 00
        E 180 90 60 60
        E 0 90 63 60
        E 0 90 54 60
        E 0 90 57 60
        E 0 90 4b 60
        E 0 90 6f 60
        E 0 90 3f 60
        E 0 90 18 60
        E 0 90 31 60
        E 60 80 60 00
        E 0 80 63 00
        E 0 80 54 00
        E 0 80 57 00
        E 0 80 4b 00
        E 0 80 6f 00
        E 0 80 3f 00
        E 0 80 18 00
        E 0 80 31 00
        E 180 90 61 60
        E 0 90 64 60
        E 0 90 55 60
        E 0 90 58 60
        E 0 90 1a 60
        E 0 90 26 60
        E 60 80 61 00
        E 0 80 64 00
        E 0 80 55 00
        E 0 80 58 00
        E 0 80 1a 00
        E 0 80 26 00
        E 180 90 62 60
        E 0 90 56 60
        E 0 90 4a 60
        E 0 90 3e 60
        E 0 90 1f 60
        E 60 80 62 00
        E 0 80 56 00
        E 0 80 4a 00
        E 0 80 3e 00
        E 0 80 1f 00
        E 180 90 60 60
        E 0 90 63 60
        E 0 90 54 60
        E 0 90 57 60
        E 0 90 6f 60
        E 0 90 18 60
        E 0 90 31 60
        E 60 80 60 00
        E 0 80 63 00
        E 0 80 54 00
        E 0 80 57 00
        E 0 80 6f 00
        E 0 80 18 00
        E 0 80 31 00
        E 180 90 61 60
        E 0 90 55 60
        E 0 90 49 60
        E 0 90 3d 60
        E 0 90 1a 60
        E 60 80 61 00
        E 0 80 55 00
        E 0 80 49 00
        E 0 80 3d 00
        E 0 80 1a 00
        E 179 90 62 60
        E 0 90 56 60
        E 0 90 1f 60
        E 61 80 62 00
        E 0 80 56 00
        E 0 80 1f 00
        E 180 90 61 60
        E 0 90 55 60
        E 0 90 49 60
        E 0 90 3d 60
        E 0 90 1a 60
        E 60 80 61 00
        E 0 80 55 00
        E 0 80 49 00
        E 0 80 3d 00
        E 0 80 1a 00
        E 180 90 60 60
        E 0 90 62 60
        E 0 90 54 60
        E 0 90 56 60
        E 0 90 18 60
        E 0 90 1f 60
        E 60 80 60 00
        E 0 80 62 00
        E 0 80 54 00
        E 0 80 56 00
        E 0 80 18 00
        E 0 80 1f 00
        E 180 90 61 60
        E 0 90 62 60
        E 0 90 55 60
        E 0 90 56 60
        E 0 90 49 60
        E 0 90 4a 60
        E 0 90 3d 60
        E 0 90 3e 60
        E 0 90 1a 60
        E 0 90 1f 60
        E 60 80 61 00
        E 0 80 62 00
        E 0 80 55 00
        E 0 80 56 00
        E 0 80 49 00
        E 0 80 4a 00
        E 0 80 3d 00
        E 0 80 3e 00
        E 0 80 1a 00
        E 0 80 1f 00
        E 180 90 60 60
        E 0 90 62 60
        E 0 90 54 60
        E 0 90 56 60
        E 0 90 18 60
        E 0 90 1f 60
        E 60 80 60 00
        E 0 80 62 00
        E 0 80 54 00
        E 0 80 56 00
        E 0 80 18 00
        E 0 80 1f 00
        E 180 90 61 60
        E 0 90 62 60
        E 0 90 55 60
        E 0 90 56 60
        E 0 90 49 60
        E 0 90 4a 60
        E 0 90 3d 60
        E 0 90 3e 60
        E 0 90 1a 60
        E 0 90 1f 60
        E 60 80 61 00
        E 0 80 62 00
        E 0 80 55 00
        E 0 80 56 00
        E 0 80 49 00
        E 0 80 4a 00
        E 0 80 3d 00
        E 0 80 3e 00
        E 0 80 1a 00
        E 0 80 1f 00
        E 180 90 60 60
        E 0 90 62 60
        E 0 90 54 60
        E 0 90 56 60
        E 0 90 18 60
        E 0 90 1f 60
        E 60 80 60 00
        E 0 80 62 00
        E 0 80 54 00
        E 0 80 56 00
        E 0 80 18 00
        E 0 80 1f 00
        E 180 90 61 60
        E 0 90 62 60
        E 0 90 55 60
        E 0 90 56 60
        E 0 90 49 60
        E 0 90 4a 60
        E 0 90 3d 60
        E 0 90 3e 60
        E 0 90 1a 60
        E 0 90 1f 60
        E 60 80 61 00
        E 0 80 62 00
        E 0 80 55 00
        E 0 80 56 00
        E 0 80 49 00
        E 0 80 4a 00
        E 0 80 3d 00
        E 0 80 3e 00
        E 0 80 1a 00
        E 0 80 1f 00
        E 180 90 60 60
        E 0 90 62 60
        E 0 90 54 60
        E 0 90 56 60
        E 0 90 18 60
        E 0 90 1f 60
        E 60 80 60 00
        E 0 80 54 00
        E 0 80 18 00
        E 1 80 62 00
        E 0 80 56 00
        E 0 80 1f 00
        E 179 90 61 60
        E 0 90 62 60
        E 0 90 55 60
        E 0 90 56 60
        E 0 90 49 60
        E 0 90 4a 60
        E 0 90 3d 60
        E 0 90 3e 60
        E 0 90 1a 60
        E 0 90 1f 60
        E 60 80 61 00
        E 0 80 62 00
        E 0 80 55 00
        E 0 80 56 00
        E 0 80 49 00
        E 0 80 4a 00
        E 0 80 3d 00
        E 0 80 3e 00
        E 0 80 1a 00
        E 0 80 1f 00
        E 180 90 60 60
        E 0 90 62 60
        E 0 90 54 60
        E 0 90 56 60
        E 0 90 18 60
        E 0 90 1f 60
        E 60 80 60 00
        E 0 80 62 00
        E 0 80 54 00
        E 0 80 56 00
        E 0 80 18 00
        E 0 80 1f 00
        E 180 90 61 60
        E 0 90 62 60
        E 0 90 55 60
        E 0 90 56 60
        E 0 90 49 60
        E 0 90 4a 60
        E 0 90 3d 60
        E 0 90 3e 60
        E 0 90 1a 60
        E 0 90 1f 60
        E 60 80 61 00
        E 0 80 62 00
        E 0 80 55 00
        E 0 80 56 00
        E 0 80 49 00
        E 0 80 4a 00
        E 0 80 3d 00
        E 0 80 3e 00
        E 0 80 1a 00
        E 0 80 1f 00
        E 60 90 74 60
        E 120 90 60 60
        E 0 90 62 60
        E 0 90 54 60
        E 0 90 56 60
        E 0 90 18 60
        E 0 90 1f 60
        E 60 80 60 00
        E 0 80 62 00
        E 0 80 54 00
        E 0 80 56 00
        E 0 80 18 00
        E 0 80 1f 00
        E 180 90 61 60
        E 0 90 62 60
        E 0 90 55 60
        E 0 90 56 60
        E 0 90 49 60
        E 0 90 4a 60
        E 0 90 3d 60
        E 0 90 3e 60
        E 0 90 1a 60
        E 0 90 1f 60
        E 60 80 61 00
        E 0 80 62 00
        E 0 80 55 00
        E 0 80 56 00
        E 0 80 49 00
        E 0 80 4a 00
        E 0 80 3d 00
        E 0 80 3e 00
        E 0 80 1a 00
        E 0 80 1f 00
        E 180 90 61 60
        E 0 90 55 60
        E 0 90 1b 60
        E 60 80 61 00
        E 0 80 55 00
        E 0 80 1b 00
        E 60 90 61 60
        E 0 90 1a 60
        E 60 80 61 00
        E 0 80 1a 00
        E 60 90 61 60
        E 0 90 55 60
        E 0 90 49 60
        E 0 90 3d 60
        E 0 90 1b 60
        E 60 80 61 00
        E 0 80 55 00
        E 0 80 49 00
        E 0 80 3d 00
        E 0 80 1b 00
        E 60 90 61 60
        E 0 90 1a 60
        E 60 80 61 00
        E 0 80 1a 00
        E 60 90 61 60
        E 0 90 55 60
        E 0 90 1b 60
        E 60 80 61 00
        E 0 80 55 00
        E 0 80 1b 00
        E 60 90 61 60
        E 0 90 1a 60
        E 60 80 61 00
        E 0 80 1a 00
        E 60 90 60 60
        E 0 90 64 60
        E 0 90 54 60
        E 0 90 58 60
        E 0 90 48 60
        E 0 90 4c 60
        E 0 90 40 60
        E 0 90 18 60
        E 0 90 26 60
        E 60 80 60 00
        E 0 80 54 00
        E 0 80 48 00
        E 0 80 18 00
        E 1 80 64 00
        E 0 80 58 00
        E 0 80 4c 00
        E 0 80 40 00
        E 0 80 26 00
        E 59 80 74 00
        E 121 90 62 60
        E 0 90 56 60
        E 0 90 1f 60
        E 60 80 62 00
        E 0 80 56 00
        E 0 80 1f 00
        E 179 90 61 60
        E 0 90 62 60
        E 0 90 55 60
        E 0 90 56 60
        E 0 90 49 60
        E 0 90 4a 60
        E 0 90 3d 60
        E 0 90 3e 60
        E 0 90 1a 60
        E 0 90 1f 60
        E 60 80 61 00
        E 0 80 62 00
        E 0 80 55 00
        E 0 80 56 00
        E 0 80 49 00
        E 0 80 4a 00
        E 0 80 3d 00
        E 0 80 3e 00
        E 0 80 1a 00
        E 0 80 1f 00
        E 180 90 62 60
        E 0 90 56 60
        E 0 90 1f 60
        E 60 80 62 00
        E 0 80 56 00
        E 0 80 1f 00
        E 60 90 61 60
        E 0 90 1a 60
        E 60 80 61 00
        E 0 80 1a 00
        E 60 90 60 60
        E 0 90 62 60
        E 0 90 54 60
        E 0 90 56 60
        E 0 90 48 60
        E 0 90 4a 60
        E 0 90 3e 60
        E 0 90 18 60
        E 0 90 1f 60
        E 60 80 60 00
        E 0 80 62 00
        E 0 80 54 00
        E 0 80 56 00
        E 0 80 48 00
        E 0 80 4a 00
        E 0 80 3e 00
        E 0 80 18 00
        E 0 80 1f 00
        E 180 90 60 60
        E 0 90 62 60
        E 0 90 54 60
        E 0 90 56 60
        E 0 90 18 60
        E 0 90 1f 60
        E 60 80 60 00
        E 0 80 62 00
        E 0 80 54 00
        E 0 80 56 00
        E 0 80 18 00
        E 0 80 1f 00
        E 180 90 61 60
        E 0 90 62 60
        E 0 90 55 60
        E 0 90 56 60
        E 0 90 49 60
        E 0 90 4a 60
        E 0 90 3d 60
        E 0 90 3e 60
        E 0 90 1a 60
        E 0 90 1f 60
        E 60 80 61 00
        E 0 80 62 00
        E 0 80 55 00
        E 0 80 56 00
        E 0 80 49 00
        E 0 80 4a 00
        E 0 80 3d 00
        E 0 80 3e 00
        E 0 80 1a 00
        E 0 80 1f 00
        E 179 90 62 60
        E 0 90 56 60
        E 0 90 1f 60
        E 61 80 62 00
        E 0 80 56 00
        E 0 80 1f 00
        E 180 90 60 60
        E 0 90 62 60
        E 0 90 54 60
        E 0 90 56 60
        E 0 90 48 60
        E 0 90 4a 60
        E 0 90 3e 60
        E 0 90 18 60
        E 0 90 1f 60
        E 60 80 60 00
        E 0 80 54 00
        E 0 80 48 00
        E 0 80 18 00
        E 1 80 62 00
        E 0 80 56 00
        E 0 80 4a 00
        E 0 80 3e 00
        E 0 80 1f 00
        E 179 90 60 60
        E 0 90 62 60
        E 0 90 54 60
        E 0 90 56 60
        E 0 90 18 60
        E 0 90 1f 60
        E 60 80 60 00
        E 0 80 62 00
        E 0 80 54 00
        E 0 80 56 00
        E 0 80 18 00
        E 0 80 1f 00
        E 180 90 61 60
        E 0 90 62 60
        E 0 90 55 60
        E 0 90 56 60
        E 0 90 49 60
        E 0 90 4a 60
        E 0 90 3d 60
        E 0 90 3e 60
        E 0 90 1a 60
        E 0 90 1f 60
        E 60 80 61 00
        E 0 80 62 00
        E 0 80 55 00
        E 0 80 56 00
        E 0 80 49 00
        E 0 80 4a 00
        E 0 80 3d 00
        E 0 80 3e 00
        E 0 80 1a 00
        E 0 80 1f 00
        E 180 90 60 60
        E 0 90 62 60
        E 0 90 54 60
        E 0 90 56 60
        E 0 90 18 60
        E 0 90 1f 60
        E 60 80 60 00
        E 0 80 62 00
        E 0 80 54 00
        E 0 80 56 00
        E 0 80 18 00
        E 0 80 1f 00
        E 180 90 62 60
        E 0 90 56 60
        E 0 90 4a 60
        E 0 90 3e 60
        E 0 90 1f 60
        E 60 80 62 00
        E 0 80 56 00
        E 0 80 4a 00
        E 0 80 3e 00
        E 0 80 1f 00
        E 180 90 60 60
        E 0 90 62 60
        E 0 90 54 60
        E 0 90 56 60
        E 0 90 18 60
        E 0 90 1f 60
        E 60 80 60 00
        E 0 80 62 00
        E 0 80 54 00
        E 0 80 56 00
        E 0 80 18 00
        E 0 80 1f 00
        E 180 90 61 60
        E 0 90 62 60
        E 0 90 55 60
        E 0 90 56 60
        E 0 90 49 60
        E 0 90 4a 60
        E 0 90 3d 60
        E 0 90 3e 60
        E 0 90 1a 60
        E 0 90 1f 60
        E 60 80 61 00
        E 0 80 62 00
        E 0 80 55 00
        E 0 80 56 00
        E 0 80 49 00
        E 0 80 4a 00
        E 0 80 3d 00
        E 0 80 3e 00
        E 0 80 1a 00
        E 0 80 1f 00
        E 179 90 62 60
        E 0 90 56 60
        E 0 90 1f 60
        E 61 80 62 00
        E 0 80 56 00
        E 0 80 1f 00
        E 60 90 61 60
        E 0 90 1a 60
        E 60 80 61 00
        E 0 80 1a 00
        E 60 90 60 60
        E 0 90 62 60
        E 0 90 54 60
        E 0 90 56 60
        E 0 90 48 60
        E 0 90 4a 60
        E 0 90 3e 60
        E 0 90 18 60
        E 0 90 1f 60
        E 60 80 60 00
        E 0 80 54 00
        E 0 80 48 00
        E 0 80 18 00
        E 1 80 62 00
        E 0 80 56 00
        E 0 80 4a 00
        E 0 80 3e 00
        E 0 80 1f 00
        E 179 90 78 60
        E 0 90 79 60
        E 0 90 7a 60
        E 0 90 7b 60
        E 0 90 7c 60
        E 1 90 62 60
        E 0 90 56 60
        E 0 90 1f 60
        E 60 80 62 00
        E 0 80 56 00
        E 0 80 1f 00
        E 179 90 61 60
        E 0 90 62 60
        E 0 90 55 60
        E 0 90 56 60
        E 0 90 49 60
        E 0 90 4a 60
        E 0 90 3d 60
        E 0 90 3e 60
        E 0 90 1a 60
        E 0 90 1f 60
        E 60 80 61 00
        E 0 80 62 00
        E 0 80 55 00
        E 0 80 56 00
        E 0 80 49 00
        E 0 80 4a 00
        E 0 80 3d 00
        E 0 80 3e 00
        E 0 80 1a 00
        E 0 80 1f 00
        E 180 90 62 60
        E 0 90 56 60
        E 0 90 1f 60
        E 60 80 62 00
        E 0 80 56 00
        E 0 80 1f 00
        E 60 90 61 60
        E 0 90 1a 60
        E 60 80 61 00
        E 0 80 1a 00
        E 60 90 60 60
        E 0 90 62 60
        E 0 90 54 60
        E 0 90 56 60
        E 0 90 48 60
        E 0 90 4a 60
        E 0 90 3e 60
        E 0 90 18 60
        E 0 90 1f 60
        E 60 80 60 00
        E 0 80 62 00
        E 0 80 54 00
        E 0 80 56 00
        E 0 80 48 00
        E 0 80 4a 00
        E 0 80 3e 00
        E 0 80 18 00
        E 0 80 1f 00
        E 180 90 60 60
        E 0 90 62 60
        E 0 90 54 60
        E 0 90 56 60
        E 0 90 18 60
        E 0 90 1f 60
        E 60 80 60 00
        E 0 80 62 00
        E 0 80 54 00
        E 0 80 56 00
        E 0 80 18 00
        E 0 80 1f 00
        E 180 80 78 00
        E 0 80 79 00
        E 0 80 7a 00
        E 0 80 7b 00
        E 0 80 7c 00
        E 0 90 61 60
        E 0 90 62 60
        E 0 90 55 60
        E 0 90 56 60
        E 0 90 49 60
        E 0 90 4a 60
        E 0 90 3d 60
        E 0 90 3e 60
        E 0 90 1a 60
        E 0 90 1f 60
        E 60 80 61 00
        E 0 80 62 00
        E 0 80 55 00
        E 0 80 56 00
        E 0 80 49 00
        E 0 80 4a 00
        E 0 80 3d 00
        E 0 80 3e 00
        E 0 80 1a 00
        E 0 80 1f 00
        E 179 90 62 60
        E 0 90 56 60
        E 0 90 1f 60
        E 61 80 62 00
        E 0 80 56 00
        E 0 80 1f 00
        E 180 90 60 60
        E 0 90 62 60
        E 0 90 54 60
        E 0 90 56 60
        E 0 90 48 60
        E 0 90 4a 60
        E 0 90 3e 60
        E 0 90 18 60
        E 0 90 1f 60
        E 60 80 60 00
        E 0 80 54 00
        E 0 80 48 00
        E 0 80 18 00
        E 1 80 62 00
        E 0 80 56 00
        E 0 80 4a 00
        E 0 80 3e 00
        E 0 80 1f 00
        E 179 90 60 60
        E 0 90 62 60
        E 0 90 54 60
        E 0 90 56 60
        E 0 90 18 60
        E 0 90 1f 60
        E 60 80 60 00
        E 0 80 62 00
        E 0 80 54 00
        E 0 80 56 00
        E 0 80 18 00
        E 0 80 1f 00
        E 180 90 61 60
        E 0 90 62 60
        E 0 90 55 60
        E 0 90 56 60
        E 0 90 49 60
        E 0 90 4a 60
        E 0 90 3d 60
        E 0 90 3e 60
        E 0 90 1a 60
        E 0 90 1f 60
        E 60 80 61 00
        E 0 80 62 00
        E 0 80 55 00
        E 0 80 56 00
        E 0 80 49 00
        E 0 80 4a 00
        E 0 80 3d 00
        E 0 80 3e 00
        E 0 80 1a 00
        E 0 80 1f 00
        E 180 90 60 60
        E 0 90 62 60
        E 0 90 54 60
        E 0 90 56 60
        E 0 90 18 60
        E 0 90 1f 60
        E 60 80 60 00
        E 0 80 62 00
        E 0 80 54 00
        E 0 80 56 00
        E 0 80 18 00
        E 0 80 1f 00
        E 180 90 62 60
        E 0 90 56 60
        E 0 90 4a 60
        E 0 90 3e 60
        E 0 90 1f 60
        E 60 80 62 00
        E 0 80 56 00
        E 0 80 4a 00
        E 0 80 3e 00
        E 0 80 1f 00
        E 180 90 60 60
        E 0 90 62 60
        E 0 90 54 60
        E 0 90 56 60
        E 0 90 18 60
        E 0 90 1f 60
        E 60 80 60 00
        E 0 80 62 00
        E 0 80 54 00
        E 0 80 56 00
        E 0 80 18 00
        E 0 80 1f 00
        E 180 90 61 60
        E 0 90 62 60
        E 0 90 55 60
        E 0 90 56 60
        E 0 90 49 60
        E 0 90 4a 60
        E 0 90 3d 60
        E 0 90 3e 60
        E 0 90 1a 60
        E 0 90 1f 60
        E 60 80 61 00
        E 0 80 62 00
        E 0 80 55 00
        E 0 80 56 00
        E 0 80 49 00
        E 0 80 4a 00
        E 0 80 3d 00
        E 0 80 3e 00
        E 0 80 1a 00
        E 0 80 1f 00
        E 179 90 62 60
        E 0 90 56 60
        E 0 90 1f 60
        E 61 80 62 00
        E 0 80 56 00
        E 0 80 1f 00
        E 60 90 61 60
        E 0 90 1a 60
        E 60 80 61 00
        E 0 80 1a 00
        E 60 90 60 60
        E 0 90 64 60
        E 0 90 54 60
        E 0 90 58 60
        E 0 90 48 60
        E 0 90 4c 60
        E 0 90 40 60
        E 0 90 18 60
        E 0 90 26 60
        E 60 80 60 00
        E 0 80 54 00
        E 0 80 48 00
        E 0 80 18 00
        E 1 80 64 00
        E 0 80 58 00
        E 0 80 4c 00
        E 0 80 40 00
        E 0 80 26 00
        E 180 90 62 60
        E 0 90 56 60
        E 0 90 1f 60
        E 60 80 62 00
        E 0 80 56 00
        E 0 80 1f 00
        E 179 90 61 60
        E 0 90 62 60
        E 0 90 55 60
        E 0 90 56 60
        E 0 90 49 60
        E 0 90 4a 60
        E 0 90 3d 60
        E 0 90 3e 60
        E 0 90 1a 60
        E 0 90 1f 60
        E 60 80 61 00
        E 0 80 62 00
        E 0 80 55 00
        E 0 80 56 00
        E 0 80 49 00
        E 0 80 4a 00
        E 0 80 3d 00
        E 0 80 3e 00
        E 0 80 1a 00
        E 0 80 1f 00
        E 180 90 62 60
        E 0 90 56 60
        E 0 90 1f 60
        E 60 80 62 00
        E 0 80 56 00
        E 0 80 1f 00
        E 60 90 61 60
        E 0 90 1a 60
        E 60 80 61 00
        E 0 80 1a 00
        E 60 90 60 60
        E 0 90 62 60
        E 0 90 54 60
        E 0 90 56 60
        E 0 90 48 60
        E 0 90 4a 60
        E 0 90 3e 60
        E 0 90 18 60
        E 0 90 1f 60
        E 60 80 60 00
        E 0 80 62 00
        E 0 80 54 00
        E 0 80 56 00
        E 0 80 48 00
        E 0 80 4a 00
        E 0 80 3e 00
        E 0 80 18 00
        E 0 80 1f 00
        E 180 90 60 60
        E 0 90 62 60
        E 0 90 54 60
        E 0 90 56 60
        E 0 90 18 60
        E 0 90 1f 60
        E 60 80 60 00
        E 0 80 62 00
        E 0 80 54 00
        E 0 80 56 00
        E 0 80 18 00
        E 0 80 1f 00
        E 180 90 62 60
        E 0 90 56 60
        E 0 90 4a 60
        E 0 90 3e 60
        E 0 90 1f 60
        E 60 80 62 00
        E 0 80 56 00
        E 0 80 4a 00
        E 0 80 3e 00
        E 0 80 1f 00
        E 179 90 62 60
        E 0 90 56 60
        E 0 90 1f 60
        E 61 80 62 00
        E 0 80 56 00
        E 0 80 1f 00
        E 180 90 60 60
        E 0 90 62 60
        E 0 90 54 60
        E 0 90 56 60
        E 0 90 48 60
        E 0 90 4a 60
        E 0 90 3e 60
        E 0 90 18 60
        E 0 90 1f 60
        E 60 80 60 00
        E 0 80 54 00
        E 0 80 48 00
        E 0 80 18 00
        E 1 80 62 00
        E 0 80 56 00
        E 0 80 4a 00
        E 0 80 3e 00
        E 0 80 1f 00
        E 179 90 60 60
        E 0 90 62 60
        E 0 90 78 60
        E 0 90 79 60
        E 0 90 7a 60
        E 0 90 7b 60
        E 0 90 7c 60
        E 0 90 54 60
        E 0 90 56 60
        E 0 90 18 60
        E 0 90 1f 60
        E 60 80 60 00
        E 0 80 62 00
        E 0 80 54 00
        E 0 80 56 00
        E 0 80 18 00
        E 0 80 1f 00
        E 180 90 61 60
        E 0 90 62 60
        E 0 90 55 60
        E 0 90 56 60
        E 0 90 49 60
        E 0 90 4a 60
        E 0 90 3d 60
        E 0 90 3e 60
        E 0 90 1a 60
        E 0 90 1f 60
        E 60 80 61 00
        E 0 80 62 00
        E 0 80 55 00
        E 0 80 56 00
        E 0 80 49 00
        E 0 80 4a 00
        E 0 80 3d 00
        E 0 80 3e 00
        E 0 80 1a 00
        E 0 80 1f 00
        E 180 90 60 60
        E 0 90 62 60
        E 0 90 54 60
        E 0 90 56 60
        E 0 90 18 60
        E 0 90 1f 60
        E 60 80 60 00
        E 0 80 62 00
        E 0 80 54 00
        E 0 80 56 00
        E 0 80 18 00
        E 0 80 1f 00
        E 180 90 62 60
        E 0 90 56 60
        E 0 90 4a 60
        E 0 90 3e 60
        E 0 90 1f 60
        E 60 80 62 00
        E 0 80 56 00
        E 0 80 4a 00
        E 0 80 3e 00
        E 0 80 1f 00
        E 180 90 60 60
        E 0 90 62 60
        E 0 90 54 60
        E 0 90 56 60
        E 0 90 18 60
        E 0 90 1f 60
        E 60 80 60 00
        E 0 80 62 00
        E 0 80 54 00
        E 0 80 56 00
        E 0 80 18 00
        E 0 80 1f 00
        E 180 80 78 00
        E 0 80 79 00
        E 0 80 7a 00
        E 0 80 7b 00
        E 0 80 7c 00
        E 0 90 61 60
        E 0 90 62 60
        E 0 90 55 60
        E 0 90 56 60
        E 0 90 49 60
        E 0 90 4a 60
        E 0 90 3d 60
        E 0 90 3e 60
        E 0 90 1a 60
        E 0 90 1f 60
        E 60 80 61 00
        E 0 80 62 00
        E 0 80 55 00
        E 0 80 56 00
        E 0 80 49 00
        E 0 80 4a 00
        E 0 80 3d 00
        E 0 80 3e 00
        E 0 80 1a 00
        E 0 80 1f 00
        E 180 90 60 60
        E 0 90 62 60
        E 0 90 54 60
        E 0 90 56 60
        E 0 90 18 60
        E 0 90 1f 60
        E 60 80 60 00
        E 0 80 62 00
        E 0 80 54 00
        E 0 80 56 00
        E 0 80 18 00
        E 0 80 1f 00
        E 180 90 61 60
        E 0 90 55 60
        E 0 90 49 60
        E 0 90 3d 60
        E 0 90 1b 60
        E 20 80 61 00
        E 0 80 55 00
        E 0 80 49 00
        E 0 80 3d 00
        E 0 80 1b 00
        E 100 90 60 60
        E 0 90 18 60
        E 20 80 60 00
        E 0 80 18 00
        E 100 90 62 60
        E 0 90 56 60
        E 0 90 6e 60
        E 0 90 2f 60
        E 20 80 62 00
        E 0 80 56 00
        E 0 80 6e 00
        E 0 80 2f 00
        E 80 90 60 60
        E 0 90 18 60
        E 20 80 60 00
        E 0 80 18 00
        E 100 90 63 60
        E 0 90 57 60
        E 0 90 4b 60
        E 0 90 6f 60
        E 0 90 3f 60
        E 0 90 30 60
        E 20 80 63 00
        E 0 80 57 00
        E 0 80 4b 00
        E 0 80 6f 00
        E 0 80 3f 00
        E 0 80 30 00
        E 100 90 60 60
        E 0 90 18 60
        E 20 80 60 00
        E 0 80 18 00
        E 100 90 62 60
        E 0 90 56 60
        E 0 90 6e 60
        E 0 90 2e 60
        E 20 80 62 00
        E 0 80 56 00
        E 0 80 6e 00
        E 0 80 2e 00
        E 80 90 60 60
        E 0 90 18 60
        E 20 80 60 00
        E 0 80 18 00
        E 100 90 61 60
        E 0 90 1a 60
        E 20 80 61 00
        E 0 80 1a 00
        E 120 90 60 60
        E 0 90 18 60
        E 20 80 60 00
        E 0 80 18 00
        E 100 90 62 60
        E 0 90 56 60
        E 0 90 6e 60
        E 0 90 2e 60
        E 20 80 62 00
        E 0 80 56 00
        E 0 80 6e 00
        E 0 80 2e 00
        E 100 90 60 60
        E 0 90 18 60
        E 20 80 60 00
        E 0 80 18 00
        E 100 90 63 60
        E 0 90 57 60
        E 0 90 4b 60
        E 0 90 3f 60
        E 0 90 2a 60
        E 20 80 63 00
        E 0 80 57 00
        E 0 80 4b 00
        E 0 80 3f 00
        E 0 80 2a 00
        E 100 90 60 60
        E 0 90 18 60
        E 20 80 60 00
        E 0 80 18 00
        E 100 90 62 60
        E 0 90 56 60
        E 0 90 6e 60
        E 0 90 2e 60
        E 20 80 62 00
        E 0 80 56 00
        E 0 80 6e 00
        E 0 80 2e 00
        E 100 90 60 60
        E 0 90 18 60
        E 20 80 60 00
        E 0 80 18 00
        E 120 90 61 60
        E 0 90 64 60
        E 0 90 55 60
        E 0 90 58 60
        E 0 90 49 60
        E 0 90 4c 60
        E 0 90 3d 60
        E 0 90 40 60
        E 0 90 1a 60
        E 0 90 26 60
        E 60 80 61 00
        E 0 80 64 00
        E 0 80 55 00
        E 0 80 58 00
        E 0 80 49 00
        E 0 80 4c 00
        E 0 80 3d 00
        E 0 80 40 00
        E 0 80 1a 00
        E 0 80 26 00
        E 180 90 63 60
        E 0 90 57 60
        E 0 90 6f 60
        E 0 90 31 60
        E 20 80 63 00
        E 0 80 57 00
        E 0 80 6f 00
        E 0 80 31 00
        E 240 90 63 60
        E 0 90 57 60
        E 0 90 4b 60
        E 0 90 6f 60
        E 0 90 3f 60
        E 0 90 31 60
        E 20 80 63 00
        E 0 80 57 00
        E 0 80 4b 00
        E 0 80 6f 00
        E 0 80 3f 00
        E 0 80 31 00
        E 220 90 61 60
        E 0 90 62 60
        E 0 90 55 60
        E 0 90 56 60
        E 0 90 1a 60
        E 0 90 1f 60
        E 30 80 61 00
        E 0 80 62 00
        E 0 80 55 00
        E 0 80 56 00
        E 0 80 1a 00
        E 0 80 1f 00
        E 169 90 6f 60
        E 1 90 63 60
        E 0 90 57 60
        E 0 90 4b 60
        E 0 90 3f 60
        E 0 90 2a 60
        E 19 80 6f 00
        E 1 80 63 00
        E 0 80 57 00
        E 0 80 4b 00
        E 0 80 3f 00
        E 0 80 2a 00
        E 240 90 63 60
        E 0 90 57 60
        E 0 90 6f 60
        E 0 90 31 60
        E 20 80 63 00
        E 0 80 57 00
        E 0 80 6f 00
        E 0 80 31 00
        E 220 90 61 60
        E 0 90 62 60
        E 0 90 55 60
        E 0 90 56 60
        E 0 90 49 60
        E 0 90 4a 60
        E 0 90 3d 60
        E 0 90 3e 60
        E 0 90 1a 60
        E 0 90 1f 60
        E 30 80 61 00
        E 0 80 62 00
        E 0 80 55 00
        E 0 80 56 00
        E 0 80 49 00
        E 0 80 4a 00
        E 0 80 3d 00
        E 0 80 3e 00
        E 0 80 1a 00
        E 0 80 1f 00
        E 450 90 61 60
        E 0 90 62 60
        E 0 90 55 60
        E 0 90 56 60
        E 0 90 49 60
        E 0 90 4a 60
        E 0 90 3d 60
        E 0 90 3e 60
        E 0 90 1a 60
        E 0 90 1f 60
        E 20 80 61 00
        E 0 80 62 00
        E 0 80 55 00
        E 0 80 56 00
        E 0 80 49 00
        E 0 80 4a 00
        E 0 80 3d 00
        E 0 80 3e 00
        E 0 80 1a 00
        E 0 80 1f 00
        E 120 90 60 60
        E 0 90 18 60
        E 20 80 60 00
        E 0 80 18 00
        E 80 90 62 60
        E 0 90 56 60
        E 0 90 6e 60
        E 0 90 2f 60
        E 20 80 62 00
        E 0 80 56 00
        E 0 80 6e 00
        E 0 80 2f 00
        E 100 90 60 60
        E 0 90 18 60
        E 20 80 60 00
        E 0 80 18 00
        E 100 90 63 60
        E 0 90 57 60
        E 0 90 4b 60
        E 0 90 6f 60
        E 0 90 3f 60
        E 0 90 31 60
        E 20 80 63 00
        E 0 80 57 00
        E 0 80 4b 00
        E 0 80 6f 00
        E 0 80 3f 00
        E 0 80 31 00
        E 120 90 60 60
        E 0 90 18 60
        E 20 80 60 00
        E 0 80 18 00
        E 80 90 63 60
        E 0 90 57 60
        E 0 90 6f 60
        E 0 90 31 60
        E 20 80 63 00
        E 0 80 57 00
        E 0 80 6f 00
        E 0 80 31 00
        E 100 90 60 60
        E 0 90 18 60
        E 20 80 60 00
        E 0 80 18 00
        E 80 90 61 60
        E 0 90 55 60
        E 0 90 49 60
        E 0 90 3d 60
        E 0 90 1a 60
        E 20 80 61 00
        E 0 80 55 00
        E 0 80 49 00
        E 0 80 3d 00
        E 0 80 1a 00
        E 140 90 60 60
        E 0 90 18 60
        E 20 80 60 00
        E 0 80 18 00
        E 100 90 62 60
        E 0 90 56 60
        E 0 90 6e 60
        E 0 90 2e 60
        E 20 80 62 00
        E 0 80 56 00
        E 0 80 6e 00
        E 0 80 2e 00
        E 80 90 60 60
        E 0 90 18 60
        E 20 80 60 00
        E 0 80 18 00
        E 100 90 61 60
        E 0 90 55 60
        E 0 90 49 60
        E 0 90 3d 60
        E 0 90 1b 60
        E 20 80 61 00
        E 0 80 55 00
        E 0 80 49 00
        E 0 80 3d 00
        E 0 80 1b 00
        E 20 90 63 60
        E 0 90 6f 60
        E 0 90 30 60
        E 20 80 63 00
        E 0 80 6f 00
        E 0 80 30 00
        E 180 90 60 60
        E 0 90 54 60
        E 0 90 18 60
        E 20 80 60 00
        E 0 80 54 00
        E 0 80 18 00
        E 220 90 61 60
        E 0 90 62 60
        E 0 90 55 60
        E 0 90 56 60
        E 0 90 49 60
        E 0 90 4a 60
        E 0 90 3d 60
        E 0 90 3e 60
        E 0 90 1a 60
        E 0 90 1f 60
        E 60 80 61 00
        E 0 80 62 00
        E 0 80 55 00
        E 0 80 56 00
        E 0 80 49 00
        E 0 80 4a 00
        E 0 80 3d 00
        E 0 80 3e 00
        E 0 80 1a 00
        E 0 80 1f 00
        E 180 90 61 60
        E 0 90 63 60
        E 0 90 55 60
        E 0 90 57 60
        E 0 90 6f 60
        E 0 90 1a 60
        E 0 90 31 60
        E 60 80 61 00
        E 0 80 63 00
        E 0 80 55 00
        E 0 80 57 00
        E 0 80 6f 00
        E 0 80 1a 00
        E 0 80 31 00
        E 180 90 61 60
        E 0 90 63 60
        E 0 90 55 60
        E 0 90 57 60
        E 0 90 49 60
        E 0 90 4b 60
        E 0 90 6f 60
        E 0 90 3d 60
        E 0 90 3f 60
        E 0 90 1a 60
        E 0 90 31 60
        E 60 80 61 00
        E 0 80 63 00
        E 0 80 55 00
        E 0 80 57 00
        E 0 80 49 00
        E 0 80 4b 00
        E 0 80 6f 00
        E 0 80 3d 00
        E 0 80 3f 00
        E 0 80 1a 00
        E 0 80 31 00
        E 180 90 60 60
        E 0 90 61 60
        E 0 90 64 60
        E 0 90 54 60
        E 0 90 55 60
        E 0 90 58 60
        E 0 90 18 60
        E 0 90 1a 60
        E 0 90 26 60
        E 60 80 60 00
        E 0 80 61 00
        E 0 80 64 00
        E 0 80 54 00
        E 0 80 55 00
        E 0 80 58 00
        E 0 80 18 00
        E 0 80 1a 00
        E 0 80 26 00
        <X 480 0
          /wFbaWRsZV9yZWFsdGltZV0=
        >
        E 1788 b0 7b 00
        GUID {99C52F88-C54B-4CCD-B038-A5C950AC8E6E}
        IGNTEMPO 0 120.00000000 4 4
        SRCCOLOR 1149
        VELLANE 132 38 60
        COLORMAP "C:\Users\wejaa\AppData\Roaming\REAPER\Data\color_maps\rockband_drums.png"
        TEXTSTRINGFILE "Text Events List.txt"
        CFGEDITVIEW 119263.274986 494.063219 0 12 0 -1 0
        CFGEDIT 1 1 0 0 0 1 1 1 1 1 1 0.12500000 -8 -8 1370 736 1 0 1 2 0.00000000 0 0 0 0 0.500000 1 0 1.000000 64
        KEYSNAP 0 0 "102034050607" 0 "Major"
        EVTFILTER 1 -1 -1 -1 -1 0 1 0 0 -1.00000000 -1.00000000
      >
    >
  >
  <TRACK '{70C3FE4D-3BC3-4146-95C4-8AC455A2D0F5}'
    NAME "PART BASS"
    PEAKCOL 16777471
    BEAT -1
    AUTOMODE 0
    VOLPAN 1.00000000000000 0.00000000000000 -1.00000000000000 -1.00000000000000 1.00000000000000
    MUTESOLO 0 0 0
    IPHASE 0
    ISBUS 0 0
    BUSCOMP 1 0
    SHOWINMIX 1 0.666700 0.500000 1 0.500000 -1 -1 -1
    FREEMODE 0
    SEL 0
    REC 0 4096 1 0 0 0 0
    TRACKHEIGHT 0 0
    INQ 0 0 0 0.5000000000 100 0 0 100
    NCHAN 2
    FX 1
    TRACKID {70C3FE4D-3BC3-4146-95C4-8AC455A2D0F5}
    PERF 0
    MIDIOUT -1
    <MIDINOTENAMES
      0 40 "Left Hand Lowest"
      0 41 "-"
      0 42 "-"
      0 43 "-"
      0 44 "-"
      0 45 "-"
      0 46 "-"
      0 47 "-"
      0 48 "-"
      0 49 "-"
      0 50 "-"
      0 51 "-"
      0 52 "-"
      0 53 "-"
      0 54 "-"
      0 55 "-"
      0 56 "-"
      0 57 "-"
      0 58 "-"
      0 59 "Left Hand Highest"
      0 60 "EASY Green"
      0 61 "EASY Red"
      0 62 "EASY Yellow"
      0 63 "EASY Blue"
      0 64 "EASY Orange"
      0 68 "----"
      0 72 "MEDIUM Green"
      0 73 "MEDIUM Red"
      0 74 "MEDIUM Yellow"
      0 75 "MEDIUM Blue"
      0 76 "MEDIUM Orange"
      0 80 "----"
      0 84 "HARD Green"
      0 85 "HARD Red"
      0 86 "HARD Yellow"
      0 87 "HARD Blue"
      0 88 "HARD Orange"
      0 89 "Force HOPO On"
      0 90 "Force HOPO Off"
      0 91 "----"
      0 96 "EXPERT Green"
      0 97 "EXPERT Red"
      0 98 "EXPERT Yellow"
      0 99 "EXPERT Blue"
      0 100 "EXPERT Orange"
      0 101 "Force HOPO On"
      0 102 "Force HOPO Off"
      0 103 "Solo Marker"
      0 111 "----"
      0 116 "OVERDRIVE"
      0 119 "----"
      0 120 "BRE (use all 5)"
      0 121 "BRE"
      0 122 "BRE"
      0 123 "BRE"
      0 124 "BRE"
      0 125 "----"
      0 126 "Strum Marker"
      0 127 "Trill Marker"
    >
    MAINSEND 1 0
    <FXCHAIN
      WNDRECT -1092 1078 1080 853
      SHOW 0
      LASTSEL 1
      DOCKED 0
      BYPASS 1 0
      <VST "VSTi: ReaSynth (Cockos)" "reasynth.dll" 0 ""
        eXNlcu9e7f4AAAAAAgAAAAEAAAAAAAAAAgAAAAAAAAA4AAAAAAAAAA==
        AAAAAO++rd4N8K3eAAAAAAAAAAAAAAAAAAAAADm0SD59y9s+tbSxOQ==
        AAAAALbz/T5VpCs6AAAAAAAAAAAAUHJvZ3JhbSAxAAAAAAA=
      >
      FLOATPOS 0 0 0 0
      FXID {D4EC3C58-478E-4D1F-A0FC-2252BD344989}
      WAK 0
      BYPASS 0 0
      <VST "VSTi: RBN Preview (RBN)" "rbprev_vst64_beta.dll" 0 ""
        dnBicu5e7f4AAAAAAgAAAAEAAAAAAAAAAgAAAAAAAAAEAAAAAQAAAA==
        AAAAAAMAqgAAAAAAAAA=
      >
      FLOATPOS 32 32 659 497
      FXID {72D22271-4F4F-4081-90C4-66415E7AEC47}
      WAK 0
    >
    <ITEM
      POSITION 0.00000000000000
      SNAPOFFS 0.00000000000000
      LENGTH 96.84220114785178
      LOOP 0
      ALLTAKES 0
      SEL 0
      FADEIN 1 0.000000 0.000000 1 0
      FADEOUT 1 0.000000 0.000000 1 0
      MUTE 0
      IGUID {A1B24BBF-93B7-476C-BC6D-33F5621C633F}
      IID 8
      NAME "PART BASS"
      VOLPAN 1.000000 0.000000 1.000000 -1.000000
      SOFFS 0.00000000000000 0.00000000000000
      PLAYRATE 1.00000000000000 1 0.00000000000000 -65536
      CHANMODE 0
      GUID {344A7487-35C3-41F9-8B1E-12A4F3D7F336}
      <SOURCE MIDI
        HASDATA 1 480 QN
        POOLEDEVTS {18953146-1BB8-4FA1-822C-F1A59F0960C6}
        <X 0 0
          /wNQQVJUIEJBU1M=
        >
        <X 1920 0
          /wFbcGxheV0=
        >
        E 1830 90 3c 60
        E 0 90 48 60
        E 0 90 54 60
        E 0 90 60 60
        E 3450 80 3c 00
        E 120 80 48 00
        E 120 80 54 00
        E 180 80 60 00
        E 60 90 3c 60
        E 0 90 48 60
        E 0 90 54 60
        E 0 90 60 60
        E 3360 80 3c 00
        E 120 80 48 00
        E 120 80 54 00
        E 180 80 60 00
        E 60 90 3c 60
        E 0 90 48 60
        E 0 90 54 60
        E 0 90 60 60
        E 60 80 3c 00
        E 0 80 48 00
        E 0 80 54 00
        E 0 80 60 00
        E 180 90 48 60
        E 0 90 54 60
        E 0 90 60 60
        E 60 80 48 00
        E 0 80 54 00
        E 0 80 60 00
        E 180 90 3c 60
        E 0 90 48 60
        E 0 90 54 60
        E 0 90 60 60
        E 60 80 3c 00
        E 0 80 48 00
        E 0 80 54 00
        E 0 80 60 00
        E 180 90 48 60
        E 0 90 54 60
        E 0 90 60 60
        E 60 80 48 00
        E 0 80 54 00
        E 0 80 60 00
        E 180 90 3c 60
        E 0 90 48 60
        E 0 90 54 60
        E 0 90 60 60
        E 60 80 3c 00
        E 0 80 48 00
        E 0 80 54 00
        E 0 80 60 00
        E 180 90 48 60
        E 0 90 54 60
        E 0 90 60 60
        E 60 80 48 00
        E 0 80 54 00
        E 0 80 60 00
        E 180 90 3c 60
        E 0 90 48 60
        E 0 90 54 60
        E 0 90 60 60
        E 60 80 3c 00
        E 0 80 48 00
        E 0 80 54 00
        E 0 80 60 00
        E 180 90 48 60
        E 0 90 54 60
        E 0 90 60 60
        E 60 80 48 00
        E 0 80 54 00
        E 0 80 60 00
        E 180 90 3c 60
        E 0 90 48 60
        E 0 90 54 60
        E 0 90 60 60
        E 60 80 3c 00
        E 0 80 48 00
        E 0 80 54 00
        E 0 80 60 00
        E 180 90 48 60
        E 0 90 54 60
        E 0 90 60 60
        E 60 80 48 00
        E 0 80 54 00
        E 0 80 60 00
        E 180 90 3c 60
        E 0 90 48 60
        E 0 90 54 60
        E 0 90 60 60
        E 60 80 3c 00
        E 0 80 48 00
        E 0 80 54 00
        E 0 80 60 00
        E 180 90 48 60
        E 0 90 54 60
        E 0 90 60 60
        E 60 80 48 00
        E 0 80 54 00
        E 0 80 60 00
        E 180 90 3c 60
        E 0 90 48 60
        E 0 90 54 60
        E 0 90 60 60
        E 60 80 3c 00
        E 0 80 48 00
        E 0 80 54 00
        E 0 80 60 00
        E 180 90 54 60
        E 0 90 60 60
        E 59 80 54 00
        E 0 80 60 00
        E 180 90 48 60
        E 0 90 54 60
        E 0 90 60 60
        E 60 80 48 00
        E 0 80 54 00
        E 0 80 60 00
        E 180 90 54 60
        E 0 90 60 60
        E 60 80 54 00
        E 0 80 60 00
        E 181 90 3c 60
        E 0 90 48 60
        E 0 90 54 60
        E 0 90 60 60
        E 60 80 3c 00
        E 0 80 48 00
        E 0 80 54 00
        E 0 80 60 00
        E 180 90 48 60
        E 0 90 54 60
        E 0 90 60 60
        E 60 80 48 00
        E 0 80 54 00
        E 0 80 60 00
        E 180 90 3c 60
        E 0 90 48 60
        E 0 90 54 60
        E 0 90 60 60
        E 60 80 3c 00
        E 0 80 48 00
        E 0 80 54 00
        E 0 80 60 00
        E 180 90 48 60
        E 0 90 54 60
        E 0 90 60 60
        E 60 80 48 00
        E 0 80 54 00
        E 0 80 60 00
        E 180 90 3c 60
        E 0 90 48 60
        E 0 90 54 60
        E 0 90 60 60
        E 60 80 3c 00
        E 0 80 48 00
        E 0 80 54 00
        E 0 80 60 00
        E 180 90 54 60
        E 0 90 60 60
        E 59 80 54 00
        E 0 80 60 00
        E 180 90 48 60
        E 0 90 54 60
        E 0 90 60 60
        E 60 80 48 00
        E 0 80 54 00
        E 0 80 60 00
        E 180 90 54 60
        E 0 90 60 60
        E 60 80 54 00
        E 0 80 60 00
        E 181 90 3c 60
        E 0 90 48 60
        E 0 90 54 60
        E 0 90 60 60
        E 60 80 3c 00
        E 0 80 48 00
        E 0 80 54 00
        E 0 80 60 00
        E 180 90 48 60
        E 0 90 54 60
        E 0 90 60 60
        E 60 80 48 00
        E 0 80 54 00
        E 0 80 60 00
        E 180 90 3c 60
        E 0 90 48 60
        E 0 90 54 60
        E 0 90 60 60
        E 60 80 3c 00
        E 0 80 48 00
        E 0 80 54 00
        E 0 80 60 00
        E 180 90 48 60
        E 0 90 54 60
        E 0 90 60 60
        E 60 80 48 00
        E 0 80 54 00
        E 0 80 60 00
        E 180 90 3c 60
        E 0 90 48 60
        E 0 90 54 60
        E 0 90 60 60
        E 60 80 3c 00
        E 0 80 48 00
        E 0 80 54 00
        E 0 80 60 00
        E 180 90 54 60
        E 0 90 60 60
        E 59 80 54 00
        E 0 80 60 00
        E 180 90 48 60
        E 0 90 54 60
        E 0 90 60 60
        E 60 80 48 00
        E 0 80 54 00
        E 0 80 60 00
        E 180 90 54 60
        E 0 90 60 60
        E 60 80 54 00
        E 0 80 60 00
        E 181 90 3c 60
        E 0 90 48 60
        E 0 90 54 60
        E 0 90 60 60
        E 60 80 3c 00
        E 0 80 48 00
        E 0 80 54 00
        E 0 80 60 00
        E 180 90 48 60
        E 0 90 54 60
        E 0 90 60 60
        E 60 80 48 00
        E 0 80 54 00
        E 0 80 60 00
        E 180 90 3c 60
        E 0 90 48 60
        E 0 90 54 60
        E 0 90 60 60
        E 60 80 3c 00
        E 0 80 48 00
        E 0 80 54 00
        E 0 80 60 00
        E 180 90 48 60
        E 0 90 54 60
        E 0 90 60 60
        E 60 80 48 00
        E 0 80 54 00
        E 0 80 60 00
        E 180 90 3c 60
        E 0 90 48 60
        E 0 90 54 60
        E 0 90 60 60
        E 60 80 3c 00
        E 0 80 48 00
        E 0 80 54 00
        E 0 80 60 00
        E 180 90 54 60
        E 0 90 60 60
        E 59 80 54 00
        E 0 80 60 00
        E 180 90 48 60
        E 0 90 54 60
        E 0 90 60 60
        E 60 80 48 00
        E 0 80 54 00
        E 0 80 60 00
        E 180 90 54 60
        E 0 90 60 60
        E 60 80 54 00
        E 0 80 60 00
        E 181 90 3c 60
        E 0 90 48 60
        E 0 90 54 60
        E 0 90 60 60
        E 60 80 3c 00
        E 0 80 48 00
        E 0 80 54 00
        E 0 80 60 00
        E 180 90 48 60
        E 0 90 54 60
        E 0 90 60 60
        E 60 80 48 00
        E 0 80 54 00
        E 0 80 60 00
        E 180 90 3c 60
        E 0 90 48 60
        E 0 90 54 60
        E 0 90 60 60
        E 60 80 3c 00
        E 0 80 48 00
        E 0 80 54 00
        E 0 80 60 00
        E 180 90 48 60
        E 0 90 54 60
        E 0 90 60 60
        E 60 80 48 00
        E 0 80 54 00
        E 0 80 60 00
        E 180 90 3c 60
        E 0 90 48 60
        E 0 90 54 60
        E 0 90 60 60
        E 60 80 3c 00
        E 0 80 48 00
        E 0 80 54 00
        E 0 80 60 00
        E 180 90 54 60
        E 0 90 60 60
        E 59 80 54 00
        E 0 80 60 00
        E 180 90 48 60
        E 0 90 54 60
        E 0 90 60 60
        E 60 80 48 00
        E 0 80 54 00
        E 0 80 60 00
        E 180 90 54 60
        E 0 90 60 60
        E 60 80 54 00
        E 0 80 60 00
        E 181 90 3c 60
        E 0 90 48 60
        E 0 90 54 60
        E 0 90 60 60
        E 60 80 3c 00
        E 0 80 48 00
        E 0 80 54 00
        E 0 80 60 00
        E 180 90 48 60
        E 0 90 54 60
        E 0 90 60 60
        E 60 80 48 00
        E 0 80 54 00
        E 0 80 60 00
        E 180 90 3c 60
        E 0 90 48 60
        E 0 90 54 60
        E 0 90 60 60
        E 60 80 3c 00
        E 0 80 48 00
        E 0 80 54 00
        E 0 80 60 00
        E 180 90 48 60
        E 0 90 54 60
        E 0 90 60 60
        E 60 80 48 00
        E 0 80 54 00
        E 0 80 60 00
        E 180 90 3c 60
        E 0 90 48 60
        E 0 90 54 60
        E 0 90 60 60
        E 60 80 3c 00
        E 0 80 48 00
        E 0 80 54 00
        E 0 80 60 00
        E 180 90 54 60
        E 0 90 60 60
        E 59 80 54 00
        E 0 80 60 00
        E 180 90 48 60
        E 0 90 54 60
        E 0 90 60 60
        E 60 80 48 00
        E 0 80 54 00
        E 0 80 60 00
        E 180 90 55 60
        E 0 90 61 60
        E 60 80 55 00
        E 0 80 61 00
        E 181 90 3d 60
        E 0 90 49 60
        E 0 90 55 60
        E 0 90 61 60
        E 60 80 3d 00
        E 0 80 49 00
        E 0 80 55 00
        E 0 80 61 00
        E 180 90 49 60
        E 0 90 55 60
        E 0 90 61 60
        E 60 80 49 00
        E 0 80 55 00
        E 0 80 61 00
        E 180 90 3d 60
        E 0 90 49 60
        E 0 90 55 60
        E 0 90 61 60
        E 60 80 3d 00
        E 0 80 49 00
        E 0 80 55 00
        E 0 80 61 00
        E 180 90 56 60
        E 0 90 62 60
        E 120 80 56 00
        E 300 80 62 00
        E 60 90 55 60
        E 0 90 61 60
        E 60 80 55 00
        E 0 80 61 00
        E 180 90 3c 60
        E 0 90 48 60
        E 0 90 54 60
        E 0 90 60 60
        E 60 80 3c 00
        E 0 80 48 00
        E 0 80 54 00
        E 0 80 60 00
        E 180 90 48 60
        E 0 90 54 60
        E 0 90 60 60
        E 60 80 48 00
        E 0 80 54 00
        E 0 80 60 00
        E 180 90 3c 60
        E 0 90 48 60
        E 0 90 54 60
        E 0 90 60 60
        E 120 80 3c 00
        E 0 80 48 00
        E 0 80 54 00
        E 300 80 60 00
        E 60 90 49 60
        E 0 90 55 60
        E 0 90 61 60
        E 60 80 49 00
        E 0 80 55 00
        E 0 80 61 00
        E 181 90 54 60
        E 0 90 60 60
        E 60 80 54 00
        E 0 80 60 00
        E 180 90 3c 60
        E 0 90 48 60
        E 0 90 54 60
        E 0 90 60 60
        E 60 80 3c 00
        E 0 80 48 00
        E 0 80 54 00
        E 0 80 60 00
        E 180 90 48 60
        E 0 90 54 60
        E 0 90 60 60
        E 60 80 48 00
        E 0 80 54 00
        E 0 80 60 00
        E 180 90 3c 60
        E 0 90 48 60
        E 0 90 54 60
        E 0 90 60 60
        E 60 80 3c 00
        E 0 80 48 00
        E 0 80 54 00
        E 0 80 60 00
        E 180 90 48 60
        E 0 90 54 60
        E 0 90 60 60
        E 60 80 48 00
        E 0 80 54 00
        E 0 80 60 00
        E 180 90 3c 60
        E 0 90 48 60
        E 0 90 54 60
        E 0 90 60 60
        E 59 80 3c 00
        E 0 80 48 00
        E 0 80 54 00
        E 0 80 60 00
        E 180 90 48 60
        E 0 90 54 60
        E 0 90 60 60
        E 60 80 48 00
        E 0 80 54 00
        E 0 80 60 00
        E 180 90 3c 60
        E 0 90 48 60
        E 0 90 54 60
        E 0 90 60 60
        E 60 80 3c 00
        E 0 80 48 00
        E 0 80 54 00
        E 0 80 60 00
        E 180 90 48 60
        E 0 90 54 60
        E 0 90 60 60
        E 60 80 48 00
        E 0 80 54 00
        E 0 80 60 00
        E 180 90 3c 60
        E 0 90 48 60
        E 0 90 54 60
        E 0 90 60 60
        E 60 80 3c 00
        E 0 80 48 00
        E 0 80 54 00
        E 0 80 60 00
        E 180 90 54 60
        E 0 90 60 60
        E 60 80 54 00
        E 0 80 60 00
        E 180 90 49 60
        E 0 90 55 60
        E 0 90 61 60
        E 60 80 49 00
        E 0 80 55 00
        E 0 80 61 00
        E 180 90 49 60
        E 0 90 55 60
        E 0 90 61 60
        E 60 80 49 00
        E 0 80 55 00
        E 0 80 61 00
        E 180 90 3d 60
        E 0 90 49 60
        E 0 90 55 60
        E 0 90 61 60
        E 59 80 3d 00
        E 0 80 49 00
        E 0 80 55 00
        E 0 80 61 00
        E 180 90 55 60
        E 0 90 61 60
        E 60 80 55 00
        E 0 80 61 00
        E 180 90 49 60
        E 0 90 55 60
        E 0 90 61 60
        E 60 80 49 00
        E 0 80 55 00
        E 0 80 61 00
        E 181 90 49 60
        E 0 90 55 60
        E 0 90 61 60
        E 60 80 49 00
        E 0 80 55 00
        E 0 80 61 00
        E 180 90 3d 60
        E 0 90 49 60
        E 0 90 55 60
        E 0 90 61 60
        E 60 80 3d 00
        E 0 80 49 00
        E 0 80 55 00
        E 0 80 61 00
        E 180 90 55 60
        E 0 90 61 60
        E 59 80 55 00
        E 0 80 61 00
        E 180 90 49 60
        E 0 90 55 60
        E 0 90 61 60
        E 60 80 49 00
        E 0 80 55 00
        E 0 80 61 00
        E 180 90 55 60
        E 0 90 61 60
        E 60 80 55 00
        E 0 80 61 00
        E 181 90 3d 60
        E 0 90 49 60
        E 0 90 55 60
        E 0 90 61 60
        E 60 80 3d 00
        E 0 80 49 00
        E 0 80 55 00
        E 0 80 61 00
        E 180 90 49 60
        E 0 90 55 60
        E 0 90 61 60
        E 60 80 49 00
        E 0 80 55 00
        E 0 80 61 00
        E 180 90 49 60
        E 0 90 55 60
        E 0 90 61 60
        E 59 80 49 00
        E 0 80 55 00
        E 0 80 61 00
        E 180 90 55 60
        E 0 90 61 60
        E 60 80 55 00
        E 0 80 61 00
        E 180 90 3d 60
        E 0 90 49 60
        E 0 90 55 60
        E 0 90 61 60
        E 60 80 3d 00
        E 0 80 49 00
        E 0 80 55 00
        E 0 80 61 00
        E 181 90 49 60
        E 0 90 55 60
        E 0 90 61 60
        E 60 80 49 00
        E 0 80 55 00
        E 0 80 61 00
        E 180 90 3d 60
        E 0 90 49 60
        E 0 90 55 60
        E 0 90 61 60
        E 60 80 3d 00
        E 0 80 49 00
        E 0 80 55 00
        E 0 80 61 00
        E 180 90 49 60
        E 0 90 55 60
        E 0 90 61 60
        E 60 80 49 00
        E 0 80 55 00
        E 0 80 61 00
        E 180 90 3d 60
        E 0 90 49 60
        E 0 90 55 60
        E 0 90 61 60
        E 60 80 3d 00
        E 0 80 49 00
        E 0 80 55 00
        E 0 80 61 00
        E 181 90 49 60
        E 0 90 55 60
        E 0 90 61 60
        E 60 80 49 00
        E 0 80 55 00
        E 0 80 61 00
        E 180 90 3d 60
        E 0 90 49 60
        E 0 90 55 60
        E 0 90 61 60
        E 60 80 3d 00
        E 0 80 49 00
        E 0 80 55 00
        E 0 80 61 00
        E 179 90 49 60
        E 0 90 55 60
        E 0 90 61 60
        E 60 80 49 00
        E 0 80 55 00
        E 0 80 61 00
        E 181 90 3d 60
        E 0 90 49 60
        E 0 90 55 60
        E 0 90 61 60
        E 60 80 3d 00
        E 0 80 49 00
        E 0 80 55 00
        E 0 80 61 00
        E 180 90 55 60
        E 0 90 61 60
        E 60 80 55 00
        E 0 80 61 00
        e 35 90 74 60
        E 144 90 3d 60
        E 0 90 49 60
        E 0 90 55 60
        E 0 90 61 60
        E 60 80 3d 00
        E 0 80 49 00
        E 0 80 55 00
        E 0 80 61 00
        E 240 90 55 60
        E 0 90 61 60
        E 120 80 55 00
        E 240 80 61 00
        E 60 90 49 60
        E 0 90 55 60
        E 0 90 61 60
        E 60 80 49 00
        E 0 80 55 00
        E 0 80 61 00
        E 180 90 3d 60
        E 0 90 49 60
        E 0 90 55 60
        E 0 90 61 60
        E 60 80 3d 00
        E 0 80 49 00
        E 0 80 55 00
        E 0 80 61 00
        E 180 90 56 60
        E 0 90 62 60
        E 120 80 56 00
        E 300 80 62 00
        E 60 90 4a 60
        E 0 90 56 60
        E 0 90 62 60
        E 60 80 4a 00
        E 0 80 56 00
        E 0 80 62 00
        E 180 90 4a 60
        E 0 90 56 60
        E 0 90 62 60
        E 60 80 4a 00
        E 0 80 56 00
        E 0 80 62 00
        E 180 90 56 60
        E 0 90 62 60
        E 60 80 56 00
        E 0 80 62 00
        E 180 90 3c 60
        E 0 90 48 60
        E 0 90 54 60
        E 0 90 60 60
        E 120 80 3c 00
        E 0 80 48 00
        E 0 80 54 00
        E 300 80 60 00
        E 60 90 49 60
        E 0 90 55 60
        E 0 90 61 60
        E 60 80 49 00
        E 0 80 55 00
        E 0 80 61 00
        E 180 90 56 60
        E 0 90 62 60
        E 60 80 56 00
        E 0 80 62 00
        E 180 90 3c 60
        E 0 90 48 60
        E 0 90 54 60
        E 0 90 60 60
        E 60 80 3c 00
        E 0 80 48 00
        E 0 80 54 00
        E 0 80 60 00
        e 26 80 74 00
        E 154 90 55 60
        E 0 90 61 60
        E 60 80 55 00
        E 0 80 61 00
        E 180 90 4a 60
        E 0 90 56 60
        E 0 90 62 60
        E 60 80 4a 00
        E 0 80 56 00
        E 0 80 62 00
        E 180 90 54 60
        E 0 90 60 60
        E 120 80 54 00
        E 300 80 60 00
        E 60 90 54 60
        E 0 90 60 60
        E 60 80 54 00
        E 0 80 60 00
        E 180 90 3d 60
        E 0 90 49 60
        E 0 90 55 60
        E 0 90 61 60
        E 60 80 3d 00
        E 0 80 49 00
        E 0 80 55 00
        E 0 80 61 00
        E 180 90 54 60
        E 0 90 60 60
        E 60 80 54 00
        E 0 80 60 00
        E 180 90 3d 60
        E 0 90 49 60
        E 0 90 55 60
        E 0 90 61 60
        E 60 80 3d 00
        E 0 80 49 00
        E 0 80 55 00
        E 0 80 61 00
        E 180 90 54 60
        E 0 90 60 60
        E 60 80 54 00
        E 0 80 60 00
        E 180 90 4a 60
        E 0 90 56 60
        E 0 90 62 60
        E 120 80 4a 00
        E 0 80 56 00
        E 300 80 62 00
        E 60 90 3c 60
        E 0 90 48 60
        E 0 90 54 60
        E 0 90 60 60
        E 60 80 3c 00
        E 0 80 48 00
        E 0 80 54 00
        E 0 80 60 00
        E 180 90 48 60
        E 0 90 54 60
        E 0 90 60 60
        E 60 80 48 00
        E 0 80 54 00
        E 0 80 60 00
        E 180 90 3c 60
        E 0 90 48 60
        E 0 90 54 60
        E 0 90 60 60
        E 60 80 3c 00
        E 0 80 48 00
        E 0 80 54 00
        E 0 80 60 00
        E 180 90 48 60
        E 0 90 54 60
        E 0 90 60 60
        E 60 80 48 00
        E 0 80 54 00
        E 0 80 60 00
        E 180 90 3c 60
        E 0 90 48 60
        E 0 90 54 60
        E 0 90 60 60
        E 60 80 3c 00
        E 0 80 48 00
        E 0 80 54 00
        E 0 80 60 00
        E 180 90 48 60
        E 0 90 54 60
        E 0 90 60 60
        E 60 80 48 00
        E 0 80 54 00
        E 0 80 60 00
        E 180 90 3c 60
        E 0 90 48 60
        E 0 90 54 60
        E 0 90 60 60
        E 60 80 3c 00
        E 0 80 48 00
        E 0 80 54 00
        E 0 80 60 00
        E 180 90 48 60
        E 0 90 54 60
        E 0 90 60 60
        E 60 80 48 00
        E 0 80 54 00
        E 0 80 60 00
        E 180 90 3c 60
        E 0 90 48 60
        E 0 90 54 60
        E 0 90 60 60
        E 60 80 3c 00
        E 0 80 48 00
        E 0 80 54 00
        E 0 80 60 00
        E 180 90 48 60
        E 0 90 54 60
        E 0 90 60 60
        E 60 80 48 00
        E 0 80 54 00
        E 0 80 60 00
        E 180 90 3c 60
        E 0 90 48 60
        E 0 90 54 60
        E 0 90 60 60
        E 60 80 3c 00
        E 0 80 48 00
        E 0 80 54 00
        E 0 80 60 00
        E 180 90 48 60
        E 0 90 54 60
        E 0 90 60 60
        E 60 80 48 00
        E 0 80 54 00
        E 0 80 60 00
        E 180 90 3c 60
        E 0 90 48 60
        E 0 90 54 60
        E 0 90 60 60
        E 60 80 3c 00
        E 0 80 48 00
        E 0 80 54 00
        E 0 80 60 00
        E 180 90 48 60
        E 0 90 54 60
        E 0 90 60 60
        E 60 80 48 00
        E 0 80 54 00
        E 0 80 60 00
        E 180 90 3c 60
        E 0 90 48 60
        E 0 90 54 60
        E 0 90 60 60
        E 60 80 3c 00
        E 0 80 48 00
        E 0 80 54 00
        E 0 80 60 00
        E 180 90 55 60
        E 0 90 61 60
        E 120 80 55 00
        E 300 80 61 00
        E 60 90 49 60
        E 0 90 55 60
        E 0 90 61 60
        E 60 80 49 00
        E 0 80 55 00
        E 0 80 61 00
        E 180 90 3d 60
        E 0 90 49 60
        E 0 90 55 60
        E 0 90 61 60
        E 60 80 3d 00
        E 0 80 49 00
        E 0 80 55 00
        E 0 80 61 00
        E 180 90 49 60
        E 0 90 55 60
        E 0 90 61 60
        E 60 80 49 00
        E 0 80 55 00
        E 0 80 61 00
        E 180 90 3d 60
        E 0 90 49 60
        E 0 90 55 60
        E 0 90 61 60
        E 60 80 3d 00
        E 0 80 49 00
        E 0 80 55 00
        E 0 80 61 00
        E 180 90 49 60
        E 0 90 55 60
        E 0 90 61 60
        E 60 80 49 00
        E 0 80 55 00
        E 0 80 61 00
        E 180 90 3d 60
        E 0 90 49 60
        E 0 90 55 60
        E 0 90 61 60
        E 60 80 3d 00
        E 0 80 49 00
        E 0 80 55 00
        E 0 80 61 00
        E 180 90 49 60
        E 0 90 55 60
        E 0 90 61 60
        E 60 80 49 00
        E 0 80 55 00
        E 0 80 61 00
        E 180 90 3d 60
        E 0 90 49 60
        E 0 90 55 60
        E 0 90 61 60
        E 60 80 3d 00
        E 0 80 49 00
        E 0 80 55 00
        E 0 80 61 00
        E 180 90 49 60
        E 0 90 55 60
        E 0 90 61 60
        E 60 80 49 00
        E 0 80 55 00
        E 0 80 61 00
        E 180 90 3d 60
        E 0 90 49 60
        E 0 90 55 60
        E 0 90 61 60
        E 60 80 3d 00
        E 0 80 49 00
        E 0 80 55 00
        E 0 80 61 00
        E 180 90 49 60
        E 0 90 55 60
        E 0 90 61 60
        E 60 80 49 00
        E 0 80 55 00
        E 0 80 61 00
        E 180 90 3d 60
        E 0 90 49 60
        E 0 90 55 60
        E 0 90 61 60
        E 60 80 3d 00
        E 0 80 49 00
        E 0 80 55 00
        E 0 80 61 00
        E 180 90 55 60
        E 0 90 61 60
        E 60 80 55 00
        E 0 80 61 00
        E 180 90 48 60
        E 0 90 54 60
        E 0 90 60 60
        E 60 80 48 00
        E 0 80 54 00
        E 0 80 60 00
        E 180 90 55 60
        E 0 90 61 60
        E 60 80 55 00
        E 0 80 61 00
        E 180 90 3d 60
        E 0 90 49 60
        E 0 90 55 60
        E 0 90 61 60
        E 120 80 3d 00
        E 0 80 49 00
        E 0 80 55 00
        E 300 80 61 00
        E 60 90 3d 60
        E 0 90 49 60
        E 0 90 55 60
        E 0 90 61 60
        E 60 80 3d 00
        E 0 80 49 00
        E 0 80 55 00
        E 0 80 61 00
        E 180 90 49 60
        E 0 90 55 60
        E 0 90 61 60
        E 60 80 49 00
        E 0 80 55 00
        E 0 80 61 00
        E 180 90 3d 60
        E 0 90 49 60
        E 0 90 55 60
        E 0 90 61 60
        E 60 80 3d 00
        E 0 80 49 00
        E 0 80 55 00
        E 0 80 61 00
        E 180 90 49 60
        E 0 90 55 60
        E 0 90 61 60
        E 60 80 49 00
        E 0 80 55 00
        E 0 80 61 00
        E 180 90 3d 60
        E 0 90 49 60
        E 0 90 55 60
        E 0 90 61 60
        E 60 80 3d 00
        E 0 80 49 00
        E 0 80 55 00
        E 0 80 61 00
        E 180 90 56 60
        E 0 90 62 60
        E 120 80 56 00
        E 300 80 62 00
        E 60 90 4a 60
        E 0 90 56 60
        E 0 90 62 60
        E 60 80 4a 00
        E 0 80 56 00
        E 0 80 62 00
        E 180 90 3e 60
        E 0 90 4a 60
        E 0 90 56 60
        E 0 90 62 60
        E 60 80 3e 00
        E 0 80 4a 00
        E 0 80 56 00
        E 0 80 62 00
        E 180 90 57 60
        E 0 90 63 60
        E 120 80 57 00
        E 300 80 63 00
        E 60 90 4b 60
        E 0 90 57 60
        E 0 90 63 60
        E 60 80 4b 00
        E 0 80 57 00
        E 0 80 63 00
        E 180 90 4b 60
        E 0 90 57 60
        E 0 90 63 60
        E 60 80 4b 00
        E 0 80 57 00
        E 0 80 63 00
        E 180 90 57 60
        E 0 90 63 60
        E 60 80 57 00
        E 0 80 63 00
        E 180 90 3c 60
        E 0 90 48 60
        E 0 90 54 60
        E 0 90 60 60
        E 120 80 3c 00
        E 0 80 48 00
        E 0 80 54 00
        E 300 80 60 00
        E 60 90 49 60
        E 0 90 55 60
        E 0 90 61 60
        E 60 80 49 00
        E 0 80 55 00
        E 0 80 61 00
        E 180 90 56 60
        E 0 90 62 60
        E 60 80 56 00
        E 0 80 62 00
        E 180 90 3c 60
        E 0 90 48 60
        E 0 90 54 60
        E 0 90 60 60
        E 60 80 3c 00
        E 0 80 48 00
        E 0 80 54 00
        E 0 80 60 00
        E 180 90 55 60
        E 0 90 61 60
        E 60 80 55 00
        E 0 80 61 00
        E 180 90 4a 60
        E 0 90 56 60
        E 0 90 62 60
        E 60 80 4a 00
        E 0 80 56 00
        E 0 80 62 00
        E 180 90 54 60
        E 0 90 60 60
        E 120 80 54 00
        E 300 80 60 00
        E 60 90 54 60
        E 0 90 60 60
        E 60 80 54 00
        E 0 80 60 00
        E 180 90 3d 60
        E 0 90 49 60
        E 0 90 55 60
        E 0 90 61 60
        E 60 80 3d 00
        E 0 80 49 00
        E 0 80 55 00
        E 0 80 61 00
        E 180 90 54 60
        E 0 90 60 60
        E 60 80 54 00
        E 0 80 60 00
        E 180 90 3d 60
        E 0 90 49 60
        E 0 90 55 60
        E 0 90 61 60
        E 60 80 3d 00
        E 0 80 49 00
        E 0 80 55 00
        E 0 80 61 00
        E 180 90 54 60
        E 0 90 60 60
        E 60 80 54 00
        E 0 80 60 00
        E 180 90 4a 60
        E 0 90 56 60
        E 0 90 62 60
        E 120 80 4a 00
        E 0 80 56 00
        E 300 80 62 00
        E 60 90 3f 60
        E 0 90 4b 60
        E 0 90 57 60
        E 0 90 63 60
        E 60 80 3f 00
        E 0 80 4b 00
        E 0 80 57 00
        E 0 80 63 00
        E 180 90 4b 60
        E 0 90 57 60
        E 0 90 63 60
        E 60 80 4b 00
        E 0 80 57 00
        E 0 80 63 00
        E 180 90 3f 60
        E 0 90 4b 60
        E 0 90 57 60
        E 0 90 63 60
        E 60 80 3f 00
        E 0 80 4b 00
        E 0 80 57 00
        E 0 80 63 00
        E 180 90 4b 60
        E 0 90 57 60
        E 0 90 63 60
        E 60 80 4b 00
        E 0 80 57 00
        E 0 80 63 00
        E 180 90 3f 60
        E 0 90 4b 60
        E 0 90 57 60
        E 0 90 63 60
        E 60 80 3f 00
        E 0 80 4b 00
        E 0 80 57 00
        E 0 80 63 00
        E 180 90 4b 60
        E 0 90 57 60
        E 0 90 63 60
        E 60 80 4b 00
        E 0 80 57 00
        E 0 80 63 00
        E 180 90 3f 60
        E 0 90 4b 60
        E 0 90 57 60
        E 0 90 63 60
        E 60 80 3f 00
        E 0 80 4b 00
        E 0 80 57 00
        E 0 80 63 00
        E 120 90 61 60
        E 480 80 61 00
        E 60 90 55 60
        E 0 90 61 60
        E 60 80 55 00
        E 0 80 61 00
        E 180 90 3e 60
        E 0 90 4a 60
        E 0 90 56 60
        E 0 90 62 60
        E 60 80 3e 00
        E 0 80 4a 00
        E 0 80 56 00
        E 0 80 62 00
        E 180 90 55 60
        E 0 90 61 60
        E 60 80 55 00
        E 0 80 61 00
        E 180 90 3e 60
        E 0 90 4a 60
        E 0 90 56 60
        E 0 90 62 60
        E 60 80 3e 00
        E 0 80 4a 00
        E 0 80 56 00
        E 0 80 62 00
        E 180 90 55 60
        E 0 90 61 60
        E 60 80 55 00
        E 0 80 61 00
        E 180 90 49 60
        E 0 90 55 60
        E 0 90 61 60
        E 60 80 49 00
        E 0 80 55 00
        E 0 80 61 00
        E 180 90 49 60
        E 0 90 55 60
        E 0 90 61 60
        E 60 80 49 00
        E 0 80 55 00
        E 0 80 61 00
        E 180 90 3d 60
        E 0 90 49 60
        E 0 90 55 60
        E 0 90 61 60
        E 60 80 3d 00
        E 0 80 49 00
        E 0 80 55 00
        E 0 80 61 00
        E 180 90 49 60
        E 0 90 55 60
        E 0 90 61 60
        E 60 80 49 00
        E 0 80 55 00
        E 0 80 61 00
        E 180 90 3d 60
        E 0 90 49 60
        E 0 90 55 60
        E 0 90 61 60
        E 60 80 3d 00
        E 0 80 49 00
        E 0 80 55 00
        E 0 80 61 00
        E 180 90 49 60
        E 0 90 55 60
        E 0 90 61 60
        E 60 80 49 00
        E 0 80 55 00
        E 0 80 61 00
        E 180 90 3d 60
        E 0 90 49 60
        E 0 90 55 60
        E 0 90 61 60
        E 60 80 3d 00
        E 0 80 49 00
        E 0 80 55 00
        E 0 80 61 00
        E 180 90 49 60
        E 0 90 55 60
        E 0 90 61 60
        E 60 80 49 00
        E 0 80 55 00
        E 0 80 61 00
        E 180 90 3d 60
        E 0 90 49 60
        E 0 90 55 60
        E 0 90 61 60
        E 60 80 3d 00
        E 0 80 49 00
        E 0 80 55 00
        E 0 80 61 00
        E 180 90 54 60
        E 0 90 60 60
        E 120 80 54 00
        E 300 80 60 00
        E 60 90 48 60
        E 0 90 54 60
        E 0 90 60 60
        E 60 80 48 00
        E 0 80 54 00
        E 0 80 60 00
        E 180 90 3c 60
        E 0 90 48 60
        E 0 90 54 60
        E 0 90 60 60
        E 120 80 3c 00
        E 0 80 48 00
        E 240 80 54 00
        E 60 80 60 00
        E 60 90 3c 60
        E 0 90 48 60
        E 0 90 54 60
        E 0 90 60 60
        E 60 80 3c 00
        E 0 80 48 00
        E 0 80 54 00
        E 0 80 60 00
        E 180 90 48 60
        E 0 90 54 60
        E 0 90 60 60
        E 60 80 48 00
        E 0 80 54 00
        E 0 80 60 00
        E 180 90 48 60
        E 0 90 54 60
        E 0 90 60 60
        E 60 80 48 00
        E 0 80 54 00
        E 0 80 60 00
        E 180 90 54 60
        E 0 90 60 60
        E 60 80 54 00
        E 0 80 60 00
        E 180 90 3f 60
        E 0 90 4b 60
        E 0 90 57 60
        E 0 90 63 60
        E 60 80 3f 00
        E 0 80 4b 00
        E 0 80 57 00
        E 0 80 63 00
        E 180 90 4b 60
        E 0 90 57 60
        E 0 90 63 60
        E 60 80 4b 00
        E 0 80 57 00
        E 0 80 63 00
        E 180 90 3f 60
        E 0 90 4b 60
        E 0 90 57 60
        E 0 90 63 60
        E 60 80 3f 00
        E 0 80 4b 00
        E 0 80 57 00
        E 0 80 63 00
        E 180 90 4b 60
        E 0 90 57 60
        E 0 90 63 60
        E 60 80 4b 00
        E 0 80 57 00
        E 0 80 63 00
        E 180 90 3f 60
        E 0 90 4b 60
        E 0 90 57 60
        E 0 90 63 60
        E 60 80 3f 00
        E 0 80 4b 00
        E 0 80 57 00
        E 0 80 63 00
        E 180 90 4b 60
        E 0 90 57 60
        E 0 90 63 60
        E 60 80 4b 00
        E 0 80 57 00
        E 0 80 63 00
        E 180 90 3f 60
        E 0 90 4b 60
        E 0 90 57 60
        E 0 90 63 60
        E 60 80 3f 00
        E 0 80 4b 00
        E 0 80 57 00
        E 0 80 63 00
        E 180 90 55 60
        E 0 90 61 60
        E 360 80 55 00
        E 60 80 61 00
        E 60 90 49 60
        E 0 90 55 60
        E 0 90 61 60
        E 60 80 49 00
        E 0 80 55 00
        E 0 80 61 00
        E 180 90 3d 60
        E 0 90 49 60
        E 0 90 55 60
        E 0 90 61 60
        E 60 80 3d 00
        E 0 80 49 00
        E 0 80 55 00
        E 0 80 61 00
        E 180 90 49 60
        E 0 90 55 60
        E 0 90 61 60
        E 60 80 49 00
        E 0 80 55 00
        E 0 80 61 00
        E 140 90 62 60
        E 40 80 62 00
        E 240 90 56 60
        E 0 90 62 60
        E 40 80 56 00
        E 0 80 62 00
        E 200 90 4b 60
        E 0 90 57 60
        E 0 90 63 60
        E 40 80 4b 00
        E 0 80 57 00
        E 0 80 63 00
        E 120 90 74 60
        E 80 90 58 60
        E 0 90 64 60
        E 40 80 58 00
        E 0 80 64 00
        E 200 90 3e 60
        E 0 90 4a 60
        E 0 90 56 60
        E 0 90 62 60
        E 40 80 3e 00
        E 0 80 4a 00
        E 0 80 56 00
        E 0 80 62 00
        E 200 90 57 60
        E 0 90 63 60
        E 40 80 57 00
        E 0 80 63 00
        E 200 90 4c 60
        E 0 90 58 60
        E 0 90 64 60
        E 40 80 4c 00
        E 0 80 58 00
        E 0 80 64 00
        E 200 90 56 60
        E 0 90 62 60
        E 120 80 56 00
        E 320 80 62 00
        E 40 90 58 60
        E 0 90 64 60
        E 40 80 58 00
        E 0 80 64 00
        E 200 90 3c 60
        E 0 90 48 60
        E 0 90 54 60
        E 0 90 60 60
        E 40 80 3c 00
        E 0 80 48 00
        E 0 80 54 00
        E 0 80 60 00
        E 240 90 56 60
        E 0 90 62 60
        E 120 80 56 00
        E 280 80 62 00
        E 40 90 58 60
        E 0 90 64 60
        E 40 80 58 00
        E 0 80 64 00
        E 200 90 3c 60
        E 0 90 48 60
        E 0 90 54 60
        E 0 90 60 60
        E 60 80 3c 00
        E 0 80 48 00
        E 0 80 54 00
        E 0 80 60 00
        E 240 90 56 60
        E 0 90 62 60
        E 140 80 56 00
        E 200 80 62 00
        E 40 90 4c 60
        E 0 90 58 60
        E 0 90 64 60
        E 40 80 4c 00
        E 0 80 58 00
        E 0 80 64 00
        E 200 90 54 60
        E 0 90 60 60
        E 40 80 54 00
        E 0 80 60 00
        E 200 90 56 60
        E 0 90 62 60
        E 40 80 56 00
        E 0 80 62 00
        E 40 80 74 00
        E 200 90 3d 60
        E 0 90 49 60
        E 0 90 55 60
        E 0 90 61 60
        E 60 80 3d 00
        E 0 80 49 00
        E 0 80 55 00
        E 0 80 61 00
        E 180 90 49 60
        E 0 90 55 60
        E 0 90 61 60
        E 60 80 49 00
        E 0 80 55 00
        E 0 80 61 00
        E 180 90 3d 60
        E 0 90 49 60
        E 0 90 55 60
        E 0 90 61 60
        E 60 80 3d 00
        E 0 80 49 00
        E 0 80 55 00
        E 0 80 61 00
        E 180 90 49 60
        E 0 90 55 60
        E 0 90 61 60
        E 60 80 49 00
        E 0 80 55 00
        E 0 80 61 00
        E 180 90 3d 60
        E 0 90 49 60
        E 0 90 55 60
        E 0 90 61 60
        E 60 80 3d 00
        E 0 80 49 00
        E 0 80 55 00
        E 0 80 61 00
        E 180 90 49 60
        E 0 90 55 60
        E 0 90 61 60
        E 60 80 49 00
        E 0 80 55 00
        E 0 80 61 00
        E 180 90 3d 60
        E 0 90 49 60
        E 0 90 55 60
        E 0 90 61 60
        E 60 80 3d 00
        E 0 80 49 00
        E 0 80 55 00
        E 0 80 61 00
        E 180 90 49 60
        E 0 90 55 60
        E 0 90 61 60
        E 60 80 49 00
        E 0 80 55 00
        E 0 80 61 00
        E 180 90 3d 60
        E 0 90 49 60
        E 0 90 55 60
        E 0 90 61 60
        E 60 80 3d 00
        E 0 80 49 00
        E 0 80 55 00
        E 0 80 61 00
        E 1380 90 3c 60
        E 0 90 48 60
        E 0 90 54 60
        E 0 90 60 60
        E 120 80 3c 00
        E 0 80 48 00
        E 0 80 54 00
        E 280 80 60 00
        E 80 90 3c 60
        E 0 90 48 60
        E 0 90 54 60
        E 0 90 60 60
        E 40 80 3c 00
        E 0 80 48 00
        E 0 80 54 00
        E 0 80 60 00
        E 200 90 48 60
        E 0 90 54 60
        E 0 90 60 60
        E 40 80 48 00
        E 0 80 54 00
        E 0 80 60 00
        E 200 90 3c 60
        E 0 90 48 60
        E 0 90 54 60
        E 0 90 60 60
        E 40 80 3c 00
        E 0 80 48 00
        E 0 80 54 00
        E 0 80 60 00
        E 200 90 48 60
        E 0 90 54 60
        E 0 90 60 60
        E 40 80 48 00
        E 0 80 54 00
        E 0 80 60 00
        E 200 90 3c 60
        E 0 90 48 60
        E 0 90 54 60
        E 0 90 60 60
        E 40 80 3c 00
        E 0 80 48 00
        E 0 80 54 00
        E 0 80 60 00
        E 200 90 48 60
        E 0 90 54 60
        E 0 90 60 60
        E 40 80 48 00
        E 0 80 54 00
        E 0 80 60 00
        E 200 90 48 60
        E 0 90 54 60
        E 0 90 60 60
        E 40 80 48 00
        E 0 80 54 00
        E 0 80 60 00
        E 200 90 54 60
        E 0 90 60 60
        E 40 80 54 00
        E 0 80 60 00
        E 200 90 3d 60
        E 0 90 49 60
        E 0 90 55 60
        E 0 90 61 60
        E 40 80 3d 00
        E 0 80 49 00
        E 0 80 55 00
        E 0 80 61 00
        E 200 90 49 60
        E 0 90 55 60
        E 0 90 61 60
        E 40 80 49 00
        E 0 80 55 00
        E 0 80 61 00
        E 200 90 3d 60
        E 0 90 49 60
        E 0 90 55 60
        E 0 90 61 60
        E 40 80 3d 00
        E 0 80 49 00
        E 0 80 55 00
        E 0 80 61 00
        E 200 90 49 60
        E 0 90 55 60
        E 0 90 61 60
        E 40 80 49 00
        E 0 80 55 00
        E 0 80 61 00
        E 200 90 3d 60
        E 0 90 49 60
        E 0 90 55 60
        E 0 90 61 60
        E 40 80 3d 00
        E 0 80 49 00
        E 0 80 55 00
        E 0 80 61 00
        E 200 90 49 60
        E 0 90 55 60
        E 0 90 61 60
        E 40 80 49 00
        E 0 80 55 00
        E 0 80 61 00
        E 200 90 49 60
        E 0 90 55 60
        E 0 90 61 60
        E 40 80 49 00
        E 0 80 55 00
        E 0 80 61 00
        E 200 90 55 60
        E 0 90 61 60
        E 40 80 55 00
        E 0 80 61 00
        E 200 90 3e 60
        E 0 90 4a 60
        E 0 90 56 60
        E 0 90 62 60
        E 40 80 3e 00
        E 0 80 4a 00
        E 0 80 56 00
        E 0 80 62 00
        E 200 90 4a 60
        E 0 90 56 60
        E 0 90 62 60
        E 40 80 4a 00
        E 0 80 56 00
        E 0 80 62 00
        E 200 90 3e 60
        E 0 90 4a 60
        E 0 90 56 60
        E 0 90 62 60
        E 40 80 3e 00
        E 0 80 4a 00
        E 0 80 56 00
        E 0 80 62 00
        E 200 90 4a 60
        E 0 90 56 60
        E 0 90 62 60
        E 40 80 4a 00
        E 0 80 56 00
        E 0 80 62 00
        E 200 90 3e 60
        E 0 90 4a 60
        E 0 90 56 60
        E 0 90 62 60
        E 40 80 3e 00
        E 0 80 4a 00
        E 0 80 56 00
        E 0 80 62 00
        E 200 90 4a 60
        E 0 90 56 60
        E 0 90 62 60
        E 40 80 4a 00
        E 0 80 56 00
        E 0 80 62 00
        E 200 90 4a 60
        E 0 90 56 60
        E 0 90 62 60
        E 40 80 4a 00
        E 0 80 56 00
        E 0 80 62 00
        E 200 90 56 60
        E 0 90 62 60
        E 40 80 56 00
        E 0 80 62 00
        E 200 90 3d 60
        E 0 90 49 60
        E 0 90 55 60
        E 0 90 61 60
        E 40 80 3d 00
        E 0 80 49 00
        E 0 80 55 00
        E 0 80 61 00
        E 200 90 49 60
        E 0 90 55 60
        E 0 90 61 60
        E 40 80 49 00
        E 0 80 55 00
        E 0 80 61 00
        E 200 90 3d 60
        E 0 90 49 60
        E 0 90 55 60
        E 0 90 61 60
        E 40 80 3d 00
        E 0 80 49 00
        E 0 80 55 00
        E 0 80 61 00
        E 200 90 49 60
        E 0 90 55 60
        E 0 90 61 60
        E 40 80 49 00
        E 0 80 55 00
        E 0 80 61 00
        E 200 90 3d 60
        E 0 90 49 60
        E 0 90 55 60
        E 0 90 61 60
        E 40 80 3d 00
        E 0 80 49 00
        E 0 80 55 00
        E 0 80 61 00
        E 200 90 49 60
        E 0 90 55 60
        E 0 90 61 60
        E 40 80 49 00
        E 0 80 55 00
        E 0 80 61 00
        E 200 90 49 60
        E 0 90 55 60
        E 0 90 61 60
        E 40 80 49 00
        E 0 80 55 00
        E 0 80 61 00
        E 200 90 55 60
        E 0 90 61 60
        E 40 80 55 00
        E 0 80 61 00
        E 200 90 3c 60
        E 0 90 48 60
        E 0 90 54 60
        E 0 90 60 60
        E 40 80 3c 00
        E 0 80 48 00
        E 0 80 54 00
        E 0 80 60 00
        E 200 90 48 60
        E 0 90 54 60
        E 0 90 60 60
        E 40 80 48 00
        E 0 80 54 00
        E 0 80 60 00
        E 200 90 3c 60
        E 0 90 48 60
        E 0 90 54 60
        E 0 90 60 60
        E 40 80 3c 00
        E 0 80 48 00
        E 0 80 54 00
        E 0 80 60 00
        E 200 90 48 60
        E 0 90 54 60
        E 0 90 60 60
        E 40 80 48 00
        E 0 80 54 00
        E 0 80 60 00
        E 200 90 3c 60
        E 0 90 48 60
        E 0 90 54 60
        E 0 90 60 60
        E 40 80 3c 00
        E 0 80 48 00
        E 0 80 54 00
        E 0 80 60 00
        E 200 90 48 60
        E 0 90 54 60
        E 0 90 60 60
        E 40 80 48 00
        E 0 80 54 00
        E 0 80 60 00
        E 200 90 3c 60
        E 0 90 48 60
        E 0 90 54 60
        E 0 90 60 60
        E 40 80 3c 00
        E 0 80 48 00
        E 0 80 54 00
        E 0 80 60 00
        E 200 90 55 60
        E 0 90 61 60
        E 120 80 55 00
        E 280 80 61 00
        E 80 90 55 60
        E 0 90 61 60
        E 40 80 55 00
        E 0 80 61 00
        E 200 90 3e 60
        E 0 90 4a 60
        E 0 90 56 60
        E 0 90 62 60
        E 40 80 3e 00
        E 0 80 4a 00
        E 0 80 56 00
        E 0 80 62 00
        E 200 90 4a 60
        E 0 90 56 60
        E 0 90 62 60
        E 120 80 4a 00
        E 0 80 56 00
        E 280 80 62 00
        E 80 90 49 60
        E 0 90 55 60
        E 0 90 61 60
        E 40 80 49 00
        E 0 80 55 00
        E 0 80 61 00
        E 200 90 49 60
        E 0 90 55 60
        E 0 90 61 60
        E 40 80 49 00
        E 0 80 55 00
        E 0 80 61 00
        E 200 90 54 60
        E 0 90 60 60
        E 40 80 54 00
        E 0 80 60 00
        E 200 90 3c 60
        E 0 90 48 60
        E 0 90 54 60
        E 0 90 60 60
        E 40 80 3c 00
        E 0 80 48 00
        E 0 80 54 00
        E 0 80 60 00
        E 200 90 48 60
        E 0 90 54 60
        E 0 90 60 60
        E 40 80 48 00
        E 0 80 54 00
        E 0 80 60 00
        E 200 90 3c 60
        E 0 90 48 60
        E 0 90 54 60
        E 0 90 60 60
        E 40 80 3c 00
        E 0 80 48 00
        E 0 80 54 00
        E 0 80 60 00
        E 200 90 48 60
        E 0 90 54 60
        E 0 90 60 60
        E 40 80 48 00
        E 0 80 54 00
        E 0 80 60 00
        E 200 90 3c 60
        E 0 90 48 60
        E 0 90 54 60
        E 0 90 60 60
        E 40 80 3c 00
        E 0 80 48 00
        E 0 80 54 00
        E 0 80 60 00
        E 200 90 48 60
        E 0 90 54 60
        E 0 90 60 60
        E 40 80 48 00
        E 0 80 54 00
        E 0 80 60 00
        E 200 90 3c 60
        E 0 90 48 60
        E 0 90 54 60
        E 0 90 60 60
        E 40 80 3c 00
        E 0 80 48 00
        E 0 80 54 00
        E 0 80 60 00
        E 80 90 74 60
        E 80 90 60 60
        E 400 80 60 00
        E 120 90 54 60
        E 0 90 60 60
        E 60 80 54 00
        E 0 80 60 00
        E 180 90 3e 60
        E 0 90 4a 60
        E 0 90 56 60
        E 0 90 62 60
        E 60 80 3e 00
        E 0 80 4a 00
        E 0 80 56 00
        E 0 80 62 00
        E 180 90 54 60
        E 0 90 60 60
        E 60 80 54 00
        E 0 80 60 00
        E 180 90 3e 60
        E 0 90 4a 60
        E 0 90 56 60
        E 0 90 62 60
        E 60 80 3e 00
        E 0 80 4a 00
        E 0 80 56 00
        E 0 80 62 00
        E 180 90 54 60
        E 0 90 60 60
        E 60 80 54 00
        E 0 80 60 00
        E 180 90 49 60
        E 0 90 55 60
        E 0 90 61 60
        E 60 80 49 00
        E 0 80 55 00
        E 0 80 61 00
        E 180 90 54 60
        E 0 90 60 60
        E 60 80 54 00
        E 0 80 60 00
        E 180 90 3f 60
        E 0 90 4b 60
        E 0 90 57 60
        E 0 90 63 60
        E 60 80 3f 00
        E 0 80 4b 00
        E 0 80 57 00
        E 0 80 63 00
        E 60 80 74 00
        E 120 90 56 60
        E 0 90 62 60
        E 60 80 56 00
        E 0 80 62 00
        E 180 90 4a 60
        E 0 90 56 60
        E 0 90 62 60
        E 60 80 4a 00
        E 0 80 56 00
        E 0 80 62 00
        E 180 90 4a 60
        E 0 90 56 60
        E 0 90 62 60
        E 60 80 4a 00
        E 0 80 56 00
        E 0 80 62 00
        E 180 90 3e 60
        E 0 90 4a 60
        E 0 90 56 60
        E 0 90 62 60
        E 60 80 3e 00
        E 0 80 4a 00
        E 0 80 56 00
        E 0 80 62 00
        E 180 90 4a 60
        E 0 90 56 60
        E 0 90 62 60
        E 60 80 4a 00
        E 0 80 56 00
        E 0 80 62 00
        E 180 90 3e 60
        E 0 90 4a 60
        E 0 90 56 60
        E 0 90 62 60
        E 60 80 3e 00
        E 0 80 4a 00
        E 0 80 56 00
        E 0 80 62 00
        E 180 90 57 60
        E 0 90 63 60
        E 60 80 57 00
        E 0 80 63 00
        E 180 90 3e 60
        E 0 90 4a 60
        E 0 90 56 60
        E 0 90 62 60
        E 60 80 3e 00
        E 0 80 4a 00
        E 0 80 56 00
        E 0 80 62 00
        E 180 90 4a 60
        E 0 90 56 60
        E 0 90 62 60
        E 60 80 4a 00
        E 0 80 56 00
        E 0 80 62 00
        E 180 90 3e 60
        E 0 90 4a 60
        E 0 90 56 60
        E 0 90 62 60
        E 60 80 3e 00
        E 0 80 4a 00
        E 0 80 56 00
        E 0 80 62 00
        E 180 90 4a 60
        E 0 90 56 60
        E 0 90 62 60
        E 60 80 4a 00
        E 0 80 56 00
        E 0 80 62 00
        E 180 90 3e 60
        E 0 90 4a 60
        E 0 90 56 60
        E 0 90 62 60
        E 60 80 3e 00
        E 0 80 4a 00
        E 0 80 56 00
        E 0 80 62 00
        E 180 90 4a 60
        E 0 90 56 60
        E 0 90 62 60
        E 60 80 4a 00
        E 0 80 56 00
        E 0 80 62 00
        E 180 90 4a 60
        E 0 90 56 60
        E 0 90 62 60
        E 60 80 4a 00
        E 0 80 56 00
        E 0 80 62 00
        E 180 90 57 60
        E 0 90 63 60
        E 60 80 57 00
        E 0 80 63 00
        E 180 90 3f 60
        E 0 90 4b 60
        E 0 90 57 60
        E 0 90 63 60
        E 60 80 3f 00
        E 0 80 4b 00
        E 0 80 57 00
        E 0 80 63 00
        E 180 90 4b 60
        E 0 90 57 60
        E 0 90 63 60
        E 60 80 4b 00
        E 0 80 57 00
        E 0 80 63 00
        E 180 90 3f 60
        E 0 90 4b 60
        E 0 90 57 60
        E 0 90 63 60
        E 60 80 3f 00
        E 0 80 4b 00
        E 0 80 57 00
        E 0 80 63 00
        E 180 90 4b 60
        E 0 90 57 60
        E 0 90 63 60
        E 60 80 4b 00
        E 0 80 57 00
        E 0 80 63 00
        E 180 90 3f 60
        E 0 90 4b 60
        E 0 90 57 60
        E 0 90 63 60
        E 60 80 3f 00
        E 0 80 4b 00
        E 0 80 57 00
        E 0 80 63 00
        E 180 90 4b 60
        E 0 90 57 60
        E 0 90 63 60
        E 60 80 4b 00
        E 0 80 57 00
        E 0 80 63 00
        E 180 90 4b 60
        E 0 90 57 60
        E 0 90 63 60
        E 60 80 4b 00
        E 0 80 57 00
        E 0 80 63 00
        E 180 90 57 60
        E 0 90 63 60
        E 60 80 57 00
        E 0 80 63 00
        E 180 90 3e 60
        E 0 90 4a 60
        E 0 90 56 60
        E 0 90 62 60
        E 60 80 3e 00
        E 0 80 4a 00
        E 0 80 56 00
        E 0 80 62 00
        E 180 90 55 60
        E 0 90 61 60
        E 60 80 55 00
        E 0 80 61 00
        E 180 90 49 60
        E 0 90 55 60
        E 0 90 61 60
        E 60 80 49 00
        E 0 80 55 00
        E 0 80 61 00
        E 180 90 56 60
        E 0 90 62 60
        E 60 80 56 00
        E 0 80 62 00
        E 180 90 3e 60
        E 0 90 4a 60
        E 0 90 56 60
        E 0 90 62 60
        E 60 80 3e 00
        E 0 80 4a 00
        E 0 80 56 00
        E 0 80 62 00
        E 180 90 4a 60
        E 0 90 56 60
        E 0 90 62 60
        E 60 80 4a 00
        E 0 80 56 00
        E 0 80 62 00
        E 180 90 3e 60
        E 0 90 4a 60
        E 0 90 56 60
        E 0 90 62 60
        E 60 80 3e 00
        E 0 80 4a 00
        E 0 80 56 00
        E 0 80 62 00
        E 180 90 4a 60
        E 0 90 56 60
        E 0 90 62 60
        E 60 80 4a 00
        E 0 80 56 00
        E 0 80 62 00
        E 180 90 3e 60
        E 0 90 4a 60
        E 0 90 56 60
        E 0 90 62 60
        E 60 80 3e 00
        E 0 80 4a 00
        E 0 80 56 00
        E 0 80 62 00
        E 180 90 4a 60
        E 0 90 56 60
        E 0 90 62 60
        E 60 80 4a 00
        E 0 80 56 00
        E 0 80 62 00
        E 180 90 3e 60
        E 0 90 4a 60
        E 0 90 56 60
        E 0 90 62 60
        E 60 80 3e 00
        E 0 80 4a 00
        E 0 80 56 00
        E 0 80 62 00
        E 180 90 4a 60
        E 0 90 56 60
        E 0 90 62 60
        E 60 80 4a 00
        E 0 80 56 00
        E 0 80 62 00
        E 180 90 3e 60
        E 0 90 4a 60
        E 0 90 56 60
        E 0 90 62 60
        E 60 80 3e 00
        E 0 80 4a 00
        E 0 80 56 00
        E 0 80 62 00
        E 60 90 74 60
        E 120 90 57 60
        E 0 90 63 60
        E 60 80 57 00
        E 0 80 63 00
        E 180 90 3e 60
        E 0 90 4a 60
        E 0 90 56 60
        E 0 90 62 60
        E 60 80 3e 00
        E 0 80 4a 00
        E 0 80 56 00
        E 0 80 62 00
        E 180 90 4a 60
        E 0 90 56 60
        E 0 90 62 60
        E 120 80 4a 00
        E 0 80 56 00
        E 240 80 62 00
        E 120 90 4a 60
        E 0 90 56 60
        E 0 90 62 60
        E 60 80 4a 00
        E 0 80 56 00
        E 0 80 62 00
        E 180 90 3e 60
        E 0 90 4a 60
        E 0 90 56 60
        E 0 90 62 60
        E 60 80 3e 00
        E 0 80 4a 00
        E 0 80 56 00
        E 0 80 62 00
        E 180 90 57 60
        E 0 90 63 60
        E 120 80 57 00
        E 240 80 63 00
        E 120 90 4b 60
        E 0 90 57 60
        E 0 90 63 60
        E 60 80 4b 00
        E 0 80 57 00
        E 0 80 63 00
        E 120 80 74 00
        E 60 90 3f 60
        E 0 90 4b 60
        E 0 90 57 60
        E 0 90 63 60
        E 60 80 3f 00
        E 0 80 4b 00
        E 0 80 57 00
        E 0 80 63 00
        E 180 90 56 60
        E 0 90 62 60
        E 60 80 56 00
        E 0 80 62 00
        E 180 90 3f 60
        E 0 90 4b 60
        E 0 90 57 60
        E 0 90 63 60
        E 60 80 3f 00
        E 0 80 4b 00
        E 0 80 57 00
        E 0 80 63 00
        E 180 90 4b 60
        E 0 90 57 60
        E 0 90 63 60
        E 60 80 4b 00
        E 0 80 57 00
        E 0 80 63 00
        E 180 90 3f 60
        E 0 90 4b 60
        E 0 90 57 60
        E 0 90 63 60
        E 60 80 3f 00
        E 0 80 4b 00
        E 0 80 57 00
        E 0 80 63 00
        E 180 90 4b 60
        E 0 90 57 60
        E 0 90 63 60
        E 60 80 4b 00
        E 0 80 57 00
        E 0 80 63 00
        E 180 90 3f 60
        E 0 90 4b 60
        E 0 90 57 60
        E 0 90 63 60
        E 60 80 3f 00
        E 0 80 4b 00
        E 0 80 57 00
        E 0 80 63 00
        E 180 90 4b 60
        E 0 90 57 60
        E 0 90 63 60
        E 60 80 4b 00
        E 0 80 57 00
        E 0 80 63 00
        E 180 90 3f 60
        E 0 90 4b 60
        E 0 90 57 60
        E 0 90 63 60
        E 60 80 3f 00
        E 0 80 4b 00
        E 0 80 57 00
        E 0 80 63 00
        E 180 90 4b 60
        E 0 90 57 60
        E 0 90 63 60
        E 60 80 4b 00
        E 0 80 57 00
        E 0 80 63 00
        E 180 90 3f 60
        E 0 90 4b 60
        E 0 90 57 60
        E 0 90 63 60
        E 60 80 3f 00
        E 0 80 4b 00
        E 0 80 57 00
        E 0 80 63 00
        E 180 90 4b 60
        E 0 90 57 60
        E 0 90 63 60
        E 60 80 4b 00
        E 0 80 57 00
        E 0 80 63 00
        E 180 90 3f 60
        E 0 90 4b 60
        E 0 90 57 60
        E 0 90 63 60
        E 60 80 3f 00
        E 0 80 4b 00
        E 0 80 57 00
        E 0 80 63 00
        E 180 90 4b 60
        E 0 90 57 60
        E 0 90 63 60
        E 60 80 4b 00
        E 0 80 57 00
        E 0 80 63 00
        E 180 90 3f 60
        E 0 90 4b 60
        E 0 90 57 60
        E 0 90 63 60
        E 60 80 3f 00
        E 0 80 4b 00
        E 0 80 57 00
        E 0 80 63 00
        E 180 90 4b 60
        E 0 90 57 60
        E 0 90 63 60
        E 60 80 4b 00
        E 0 80 57 00
        E 0 80 63 00
        E 180 90 4b 60
        E 0 90 57 60
        E 0 90 63 60
        E 60 80 4b 00
        E 0 80 57 00
        E 0 80 63 00
        E 180 90 56 60
        E 0 90 62 60
        E 60 80 56 00
        E 0 80 62 00
        E 180 90 3d 60
        E 0 90 49 60
        E 0 90 55 60
        E 0 90 61 60
        E 40 80 3d 00
        E 0 80 49 00
        E 0 80 55 00
        E 0 80 61 00
        E 200 90 49 60
        E 0 90 55 60
        E 0 90 61 60
        E 40 80 49 00
        E 0 80 55 00
        E 0 80 61 00
        E 200 90 3d 60
        E 0 90 49 60
        E 0 90 55 60
        E 0 90 61 60
        E 40 80 3d 00
        E 0 80 49 00
        E 0 80 55 00
        E 0 80 61 00
        E 200 90 49 60
        E 0 90 55 60
        E 0 90 61 60
        E 40 80 49 00
        E 0 80 55 00
        E 0 80 61 00
        E 200 90 3d 60
        E 0 90 49 60
        E 0 90 55 60
        E 0 90 61 60
        E 40 80 3d 00
        E 0 80 49 00
        E 0 80 55 00
        E 0 80 61 00
        E 200 90 49 60
        E 0 90 55 60
        E 0 90 61 60
        E 40 80 49 00
        E 0 80 55 00
        E 0 80 61 00
        E 200 90 3d 60
        E 0 90 49 60
        E 0 90 55 60
        E 0 90 61 60
        E 40 80 3d 00
        E 0 80 49 00
        E 0 80 55 00
        E 0 80 61 00
        E 200 90 49 60
        E 0 90 55 60
        E 0 90 61 60
        E 40 80 49 00
        E 0 80 55 00
        E 0 80 61 00
        E 200 90 3d 60
        E 0 90 49 60
        E 0 90 55 60
        E 0 90 61 60
        E 40 80 3d 00
        E 0 80 49 00
        E 0 80 55 00
        E 0 80 61 00
        E 200 90 49 60
        E 0 90 55 60
        E 0 90 61 60
        E 40 80 49 00
        E 0 80 55 00
        E 0 80 61 00
        E 200 90 3d 60
        E 0 90 49 60
        E 0 90 55 60
        E 0 90 61 60
        E 40 80 3d 00
        E 0 80 49 00
        E 0 80 55 00
        E 0 80 61 00
        E 200 90 49 60
        E 0 90 55 60
        E 0 90 61 60
        E 40 80 49 00
        E 0 80 55 00
        E 0 80 61 00
        E 200 90 3d 60
        E 0 90 49 60
        E 0 90 55 60
        E 0 90 61 60
        E 40 80 3d 00
        E 0 80 49 00
        E 0 80 55 00
        E 0 80 61 00
        E 200 90 49 60
        E 0 90 55 60
        E 0 90 61 60
        E 40 80 49 00
        E 0 80 55 00
        E 0 80 61 00
        E 200 90 3d 60
        E 0 90 49 60
        E 0 90 55 60
        E 0 90 61 60
        E 40 80 3d 00
        E 0 80 49 00
        E 0 80 55 00
        E 0 80 61 00
        E 200 90 49 60
        E 0 90 55 60
        E 0 90 61 60
        E 40 80 49 00
        E 0 80 55 00
        E 0 80 61 00
        E 200 90 3d 60
        E 0 90 49 60
        E 0 90 55 60
        E 0 90 61 60
        E 40 80 3d 00
        E 0 80 49 00
        E 0 80 55 00
        E 0 80 61 00
        E 200 90 49 60
        E 0 90 55 60
        E 0 90 61 60
        E 40 80 49 00
        E 0 80 55 00
        E 0 80 61 00
        E 200 90 3d 60
        E 0 90 49 60
        E 0 90 55 60
        E 0 90 61 60
        E 40 80 3d 00
        E 0 80 49 00
        E 0 80 55 00
        E 0 80 61 00
        E 200 90 49 60
        E 0 90 55 60
        E 0 90 61 60
        E 40 80 49 00
        E 0 80 55 00
        E 0 80 61 00
        E 200 90 3d 60
        E 0 90 49 60
        E 0 90 55 60
        E 0 90 61 60
        E 40 80 3d 00
        E 0 80 49 00
        E 0 80 55 00
        E 0 80 61 00
        E 200 90 49 60
        E 0 90 55 60
        E 0 90 61 60
        E 40 80 49 00
        E 0 80 55 00
        E 0 80 61 00
        E 200 90 3d 60
        E 0 90 49 60
        E 0 90 55 60
        E 0 90 61 60
        E 40 80 3d 00
        E 0 80 49 00
        E 0 80 55 00
        E 0 80 61 00
        E 200 90 49 60
        E 0 90 55 60
        E 0 90 61 60
        E 40 80 49 00
        E 0 80 55 00
        E 0 80 61 00
        E 200 90 3d 60
        E 0 90 49 60
        E 0 90 55 60
        E 0 90 61 60
        E 40 80 3d 00
        E 0 80 49 00
        E 0 80 55 00
        E 0 80 61 00
        E 200 90 49 60
        E 0 90 55 60
        E 0 90 61 60
        E 40 80 49 00
        E 0 80 55 00
        E 0 80 61 00
        E 200 90 3d 60
        E 0 90 49 60
        E 0 90 55 60
        E 0 90 61 60
        E 40 80 3d 00
        E 0 80 49 00
        E 0 80 55 00
        E 0 80 61 00
        E 200 90 49 60
        E 0 90 55 60
        E 0 90 61 60
        E 40 80 49 00
        E 0 80 55 00
        E 0 80 61 00
        E 200 90 3d 60
        E 0 90 49 60
        E 0 90 55 60
        E 0 90 61 60
        E 40 80 3d 00
        E 0 80 49 00
        E 0 80 55 00
        E 0 80 61 00
        E 200 90 49 60
        E 0 90 55 60
        E 0 90 61 60
        E 40 80 49 00
        E 0 80 55 00
        E 0 80 61 00
        E 200 90 3d 60
        E 0 90 49 60
        E 0 90 55 60
        E 0 90 61 60
        E 40 80 3d 00
        E 0 80 49 00
        E 0 80 55 00
        E 0 80 61 00
        E 200 90 49 60
        E 0 90 55 60
        E 0 90 61 60
        E 40 80 49 00
        E 0 80 55 00
        E 0 80 61 00
        E 200 90 3d 60
        E 0 90 49 60
        E 0 90 55 60
        E 0 90 61 60
        E 40 80 3d 00
        E 0 80 49 00
        E 0 80 55 00
        E 0 80 61 00
        E 200 90 49 60
        E 0 90 55 60
        E 0 90 61 60
        E 40 80 49 00
        E 0 80 55 00
        E 0 80 61 00
        E 200 90 3d 60
        E 0 90 49 60
        E 0 90 55 60
        E 0 90 61 60
        E 40 80 3d 00
        E 0 80 49 00
        E 0 80 55 00
        E 0 80 61 00
        E 200 90 49 60
        E 0 90 55 60
        E 0 90 61 60
        E 40 80 49 00
        E 0 80 55 00
        E 0 80 61 00
        E 200 90 3d 60
        E 0 90 49 60
        E 0 90 55 60
        E 0 90 61 60
        E 40 80 3d 00
        E 0 80 49 00
        E 0 80 55 00
        E 0 80 61 00
        E 200 90 49 60
        E 0 90 55 60
        E 0 90 61 60
        E 40 80 49 00
        E 0 80 55 00
        E 0 80 61 00
        E 200 90 3d 60
        E 0 90 49 60
        E 0 90 55 60
        E 0 90 61 60
        E 40 80 3d 00
        E 0 80 49 00
        E 0 80 55 00
        E 0 80 61 00
        E 200 90 49 60
        E 0 90 55 60
        E 0 90 61 60
        E 40 80 49 00
        E 0 80 55 00
        E 0 80 61 00
        E 200 90 3d 60
        E 0 90 49 60
        E 0 90 55 60
        E 0 90 61 60
        E 40 80 3d 00
        E 0 80 49 00
        E 0 80 55 00
        E 0 80 61 00
        E 200 90 49 60
        E 0 90 55 60
        E 0 90 61 60
        E 40 80 49 00
        E 0 80 55 00
        E 0 80 61 00
        E 200 90 3d 60
        E 0 90 49 60
        E 0 90 55 60
        E 0 90 61 60
        E 40 80 3d 00
        E 0 80 49 00
        E 0 80 55 00
        E 0 80 61 00
        E 200 90 49 60
        E 0 90 55 60
        E 0 90 61 60
        E 40 80 49 00
        E 0 80 55 00
        E 0 80 61 00
        E 200 90 3d 60
        E 0 90 49 60
        E 0 90 55 60
        E 0 90 61 60
        E 40 80 3d 00
        E 0 80 49 00
        E 0 80 55 00
        E 0 80 61 00
        E 200 90 49 60
        E 0 90 55 60
        E 0 90 61 60
        E 40 80 49 00
        E 0 80 55 00
        E 0 80 61 00
        E 200 90 3d 60
        E 0 90 49 60
        E 0 90 55 60
        E 0 90 61 60
        E 40 80 3d 00
        E 0 80 49 00
        E 0 80 55 00
        E 0 80 61 00
        E 200 90 49 60
        E 0 90 55 60
        E 0 90 61 60
        E 40 80 49 00
        E 0 80 55 00
        E 0 80 61 00
        E 200 90 3d 60
        E 0 90 49 60
        E 0 90 55 60
        E 0 90 61 60
        E 40 80 3d 00
        E 0 80 49 00
        E 0 80 55 00
        E 0 80 61 00
        E 200 90 49 60
        E 0 90 55 60
        E 0 90 61 60
        E 40 80 49 00
        E 0 80 55 00
        E 0 80 61 00
        E 200 90 3d 60
        E 0 90 49 60
        E 0 90 55 60
        E 0 90 61 60
        E 40 80 3d 00
        E 0 80 49 00
        E 0 80 55 00
        E 0 80 61 00
        E 200 90 49 60
        E 0 90 55 60
        E 0 90 61 60
        E 40 80 49 00
        E 0 80 55 00
        E 0 80 61 00
        E 200 90 3d 60
        E 0 90 49 60
        E 0 90 55 60
        E 0 90 61 60
        E 40 80 3d 00
        E 0 80 49 00
        E 0 80 55 00
        E 0 80 61 00
        E 200 90 49 60
        E 0 90 55 60
        E 0 90 61 60
        E 40 80 49 00
        E 0 80 55 00
        E 0 80 61 00
        E 200 90 49 60
        E 0 90 55 60
        E 0 90 61 60
        E 40 80 49 00
        E 0 80 55 00
        E 0 80 61 00
        E 200 90 55 60
        E 0 90 61 60
        E 40 80 55 00
        E 0 80 61 00
        E 200 90 3e 60
        E 0 90 4a 60
        E 0 90 56 60
        E 0 90 62 60
        E 120 80 3e 00
        E 0 80 4a 00
        E 440 80 56 00
        E 40 80 62 00
        E 120 90 49 60
        E 0 90 55 60
        E 60 90 61 60
        E 60 80 49 00
        E 440 80 55 00
        E 100 80 61 00
        E 60 90 3c 60
        E 0 90 48 60
        E 0 90 54 60
        E 60 90 60 60
        E 1620 80 3c 00
        E 0 80 48 00
        E 320 80 54 00
        E 160 80 60 00
        E 0 90 49 60
        E 0 90 55 60
        E 40 80 49 00
        E 0 80 55 00
        E 200 90 3d 60
        E 0 90 49 60
        E 0 90 55 60
        E 0 90 61 60
        E 40 80 3d 00
        E 0 80 49 00
        E 0 80 55 00
        E 0 80 61 00
        E 200 90 56 60
        E 40 80 56 00
        E 20 90 61 60
        E 40 80 61 00
        E 140 90 3d 60
        E 0 90 49 60
        E 0 90 55 60
        E 40 80 3d 00
        E 0 80 49 00
        E 0 80 55 00
        E 20 90 62 60
        E 40 80 62 00
        E 200 90 61 60
        E 40 80 61 00
        <X 480 0
          /wFbaWRsZV9yZWFsdGltZV0=
        >
        E 1748 b0 7b 00
        GUID {54A57D35-811F-42A6-AB75-F5706122F903}
        IGNTEMPO 0 120.00000000 4 4
        SRCCOLOR 1150
        VELLANE 132 38 60
        COLORMAP "C:\Program Files\REAPER (x64)\REAPER\Data\color_maps\rockband_guitarbass.png"
        TEXTSTRINGFILE "Text Events List.txt"
        CFGEDITVIEW 119491.227524 249.374964 0 12 0 -1 0
        CFGEDIT 1 1 0 0 0 1 1 1 1 1 1 0.12500000 -8 -8 1370 736 1 2 1 2 0.00000000 0 0 0 0 0.500000 1 0 1.000000 64
        KEYSNAP 0 0 "102034050607" 0 "Major"
        EVTFILTER 1 -1 -1 -1 -1 0 1 0 0 -1.00000000 -1.00000000
      >
    >
  >
  <TRACK '{6B7F9B4B-FF4E-4CE6-9E2D-4C9BD5DAED77}'
    NAME "PART GUITAR"
    PEAKCOL 33488896
    BEAT -1
    AUTOMODE 0
    VOLPAN 1.00000000000000 0.00000000000000 -1.00000000000000 -1.00000000000000 1.00000000000000
    MUTESOLO 0 0 0
    IPHASE 0
    ISBUS 0 0
    BUSCOMP 1 0
    SHOWINMIX 1 0.666700 0.500000 1 0.500000 -1 -1 -1
    FREEMODE 0
    SEL 0
    REC 0 4096 1 7 0 0 0
    TRACKHEIGHT 0 0
    INQ 0 0 0 0.5000000000 100 0 0 100
    NCHAN 2
    FX 1
    TRACKID {6B7F9B4B-FF4E-4CE6-9E2D-4C9BD5DAED77}
    PERF 0
    MIDIOUT -1
    <MIDINOTENAMES
      0 40 "Left Hand Lowest"
      0 41 "-"
      0 42 "-"
      0 43 "-"
      0 44 "-"
      0 45 "-"
      0 46 "-"
      0 47 "-"
      0 48 "-"
      0 49 "-"
      0 50 "-"
      0 51 "-"
      0 52 "-"
      0 53 "-"
      0 54 "-"
      0 55 "-"
      0 56 "-"
      0 57 "-"
      0 58 "-"
      0 59 "Left Hand Highest"
      0 60 "EASY Green"
      0 61 "EASY Red"
      0 62 "EASY Yellow"
      0 63 "EASY Blue"
      0 64 "EASY Orange"
      0 65 "----"
      0 72 "MEDIUM Green"
      0 73 "MEDIUM Red"
      0 74 "MEDIUM Yellow"
      0 75 "MEDIUM Blue"
      0 76 "MEDIUM Orange"
      0 77 "----"
      0 84 "HARD Green"
      0 85 "HARD Red"
      0 86 "HARD Yellow"
      0 87 "HARD Blue"
      0 88 "HARD Orange"
      0 89 "Force HOPO On"
      0 90 "Force HOPO Off"
      0 95 "----"
      0 96 "EXPERT Green"
      0 97 "EXPERT Red"
      0 98 "EXPERT Yellow"
      0 99 "EXPERT Blue"
      0 100 "EXPERT Orange"
      0 101 "Force HOPO On"
      0 102 "Force HOPO Off"
      0 103 "Solo Marker"
      0 115 "----"
      0 116 "OVERDRIVE"
      0 119 "----"
      0 120 "BRE (use all 5)"
      0 121 "BRE"
      0 122 "BRE"
      0 123 "BRE"
      0 124 "BRE"
      0 125 "----"
      0 126 "Strum Marker"
      0 127 "Trill Marker"
    >
    MAINSEND 1 0
    <FXCHAIN
      WNDRECT -1121 716 1109 821
      SHOW 0
      LASTSEL 1
      DOCKED 0
      BYPASS 1 0
      <VST "VSTi: ReaSynth (Cockos)" "reasynth.dll" 0 ""
        eXNlcu9e7f4AAAAAAgAAAAEAAAAAAAAAAgAAAAAAAAA4AAAAAAAAAA==
        AAAAAO++rd4N8K3eAAAAAAAAAAAAAAAAAAAAADm0SD59y9s+tbSxOQ==
        AAAAALbz/T5VpCs6AAAAAAAAAAAAUHJvZ3JhbSAxAAAAAAA=
      >
      FLOATPOS 0 0 0 0
      FXID {52B28C73-185B-48E4-B8F4-1FD7A8848B0F}
      WAK 0
      BYPASS 0 0
      <VST "VSTi: RBN Preview (RBN)" "rbprev_vst64_beta.dll" 0 ""
        dnBicu5e7f4AAAAAAgAAAAEAAAAAAAAAAgAAAAAAAAAEAAAAAQAAAA==
        AAAAAAMAqgAAAAAAAAA=
      >
      FLOATPOS 32 32 659 497
      FXID {190BBB08-7A86-476B-BD07-5F71F5CD6F7C}
      WAK 0
    >
    <ITEM
      POSITION 0.00000000000000
      SNAPOFFS 0.00000000000000
      LENGTH 96.84220114785178
      LOOP 0
      ALLTAKES 0
      SEL 0
      FADEIN 1 0.000000 0.000000 1 0
      FADEOUT 1 0.000000 0.000000 1 0
      MUTE 0
      IGUID {81210F06-DA35-41E7-BA75-C6E1C5689733}
      IID 9
      NAME "PART GUITAR"
      VOLPAN 1.000000 0.000000 1.000000 -1.000000
      SOFFS 0.00000000000000 0.00000000000000
      PLAYRATE 1.00000000000000 1 0.00000000000000 -65536
      CHANMODE 0
      GUID {61757875-B3D4-49E4-8483-EE351B7D2386}
      <SOURCE MIDI
        HASDATA 1 480 QN
        POOLEDEVTS {BEB462C6-2CD5-4AC5-B3F3-17BE39893221}
        <X 0 0
          /wNQQVJUIEdVSVRBUg==
        >
        <X 1920 0
          /wFbcGxheV0=
        >
        E 1860 90 3e 60
        E 0 90 49 60
        E 0 90 4b 60
        E 0 90 55 60
        E 0 90 57 60
        E 0 90 61 60
        E 0 90 63 60
        E 120 80 3e 00
        E 0 80 49 00
        E 0 80 4b 00
        E 0 80 55 00
        E 0 80 57 00
        E 480 80 61 00
        E 0 80 63 00
        E 120 90 49 60
        E 0 90 4b 60
        E 0 90 55 60
        E 0 90 57 60
        E 0 90 61 60
        E 0 90 63 60
        E 60 80 49 00
        E 0 80 4b 00
        E 0 80 55 00
        E 0 80 57 00
        E 0 80 61 00
        E 0 80 63 00
        E 240 90 3e 60
        E 0 90 49 60
        E 0 90 4b 60
        E 0 90 55 60
        E 0 90 57 60
        E 0 90 61 60
        E 0 90 63 60
        E 120 80 3e 00
        E 0 80 49 00
        E 0 80 4b 00
        E 0 80 55 00
        E 0 80 57 00
        E 420 80 61 00
        E 0 80 63 00
        E 120 90 49 60
        E 0 90 4b 60
        E 0 90 55 60
        E 0 90 57 60
        E 0 90 61 60
        E 0 90 63 60
        E 60 80 49 00
        E 0 80 4b 00
        E 0 80 55 00
        E 0 80 57 00
        E 0 80 61 00
        E 0 80 63 00
        E 180 90 55 60
        E 0 90 56 60
        E 0 90 61 60
        E 0 90 62 60
        E 120 80 55 00
        E 0 80 56 00
        E 480 80 61 00
        E 0 80 62 00
        E 120 90 3d 60
        E 0 90 48 60
        E 0 90 4a 60
        E 0 90 54 60
        E 0 90 56 60
        E 0 90 60 60
        E 0 90 62 60
        E 120 80 3d 00
        E 0 80 48 00
        E 0 80 4a 00
        E 0 80 54 00
        E 0 80 56 00
        E 300 80 60 00
        E 0 80 62 00
        E 120 90 49 60
        E 0 90 4a 60
        E 0 90 55 60
        E 0 90 56 60
        E 0 90 61 60
        E 0 90 62 60
        E 120 80 49 00
        E 0 80 4a 00
        E 0 80 55 00
        E 0 80 56 00
        E 360 80 61 00
        E 0 80 62 00
        E 120 90 3e 60
        E 0 90 49 60
        E 0 90 4b 60
        E 0 90 55 60
        E 0 90 57 60
        E 0 90 61 60
        E 0 90 63 60
        E 120 80 3e 00
        E 0 80 49 00
        E 0 80 4b 00
        E 0 80 55 00
        E 0 80 57 00
        E 480 80 61 00
        E 0 80 63 00
        E 120 90 49 60
        E 0 90 4b 60
        E 0 90 55 60
        E 0 90 57 60
        E 0 90 61 60
        E 0 90 63 60
        E 60 80 49 00
        E 0 80 4b 00
        E 0 80 55 00
        E 0 80 57 00
        E 0 80 61 00
        E 0 80 63 00
        E 240 90 55 60
        E 0 90 57 60
        E 0 90 61 60
        E 0 90 63 60
        E 120 80 55 00
        E 0 80 57 00
        E 420 80 61 00
        E 0 80 63 00
        E 120 90 3e 60
        E 0 90 49 60
        E 0 90 4b 60
        E 0 90 55 60
        E 0 90 57 60
        E 0 90 61 60
        E 0 90 63 60
        E 60 80 3e 00
        E 0 80 49 00
        E 0 80 4b 00
        E 0 80 55 00
        E 0 80 57 00
        E 0 80 61 00
        E 0 80 63 00
        E 180 90 55 60
        E 0 90 56 60
        E 0 90 61 60
        E 0 90 62 60
        E 120 80 55 00
        E 0 80 56 00
        E 480 80 61 00
        E 0 80 62 00
        E 120 90 3d 60
        E 0 90 48 60
        E 0 90 4a 60
        E 0 90 54 60
        E 0 90 56 60
        E 0 90 60 60
        E 0 90 62 60
        E 120 80 3d 00
        E 0 80 48 00
        E 0 80 4a 00
        E 0 80 54 00
        E 0 80 56 00
        E 299 80 60 00
        E 0 80 62 00
        E 121 90 49 60
        E 0 90 4a 60
        E 0 90 55 60
        E 0 90 56 60
        E 0 90 61 60
        E 0 90 62 60
        E 120 80 49 00
        E 0 80 4a 00
        E 0 80 55 00
        E 0 80 56 00
        E 360 80 61 00
        E 0 80 62 00
        E 300 90 3e 60
        E 0 90 4b 60
        E 0 90 57 60
        E 0 90 63 60
        E 120 80 3e 00
        E 0 80 4b 00
        E 0 80 57 00
        E 480 80 63 00
        E 120 90 57 60
        E 0 90 63 60
        E 60 80 57 00
        E 0 80 63 00
        E 180 90 3e 60
        E 0 90 4b 60
        E 0 90 58 60
        E 0 90 64 60
        E 0 90 65 60
        E 60 80 3e 00
        E 0 80 4b 00
        E 0 80 58 00
        E 0 80 64 00
        E 0 80 65 00
        E 180 90 57 60
        E 0 90 63 60
        E 0 90 65 60
        E 60 80 57 00
        E 0 80 63 00
        E 0 80 65 00
        E 180 90 3e 60
        E 0 90 4b 60
        E 0 90 57 60
        E 0 90 63 60
        E 60 80 3e 00
        E 0 80 4b 00
        E 0 80 57 00
        E 0 80 63 00
        E 180 90 55 60
        E 0 90 61 60
        E 60 80 55 00
        E 0 80 61 00
        E 180 90 3e 60
        E 0 90 4b 60
        E 0 90 57 60
        E 0 90 63 60
        E 120 80 3e 00
        E 0 80 4b 00
        E 0 80 57 00
        E 480 80 63 00
        E 120 90 4b 60
        E 0 90 58 60
        E 0 90 64 60
        E 840 80 4b 00
        E 120 80 58 00
        E 120 80 64 00
        E 120 90 3e 60
        E 0 90 4b 60
        E 0 90 57 60
        E 0 90 63 60
        E 120 80 3e 00
        E 0 80 4b 00
        E 0 80 57 00
        E 480 80 63 00
        E 120 90 57 60
        E 0 90 63 60
        E 60 80 57 00
        E 0 80 63 00
        E 180 90 3e 60
        E 0 90 4b 60
        E 0 90 58 60
        E 0 90 64 60
        E 0 90 65 60
        E 60 80 3e 00
        E 0 80 4b 00
        E 0 80 58 00
        E 0 80 64 00
        E 0 80 65 00
        E 180 90 57 60
        E 0 90 63 60
        E 0 90 65 60
        E 60 80 57 00
        E 0 80 63 00
        E 0 80 65 00
        E 180 90 3e 60
        E 0 90 4b 60
        E 0 90 57 60
        E 0 90 63 60
        E 60 80 3e 00
        E 0 80 4b 00
        E 0 80 57 00
        E 0 80 63 00
        E 180 90 55 60
        E 0 90 61 60
        E 60 80 55 00
        E 0 80 61 00
        E 180 90 3e 60
        E 0 90 4b 60
        E 0 90 57 60
        E 0 90 63 60
        E 120 80 3e 00
        E 0 80 4b 00
        E 0 80 57 00
        E 480 80 63 00
        E 120 90 4a 60
        E 0 90 56 60
        E 0 90 62 60
        E 840 80 4a 00
        E 120 80 56 00
        E 120 80 62 00
        E 120 90 3e 60
        E 0 90 4b 60
        E 0 90 57 60
        E 0 90 63 60
        E 120 80 3e 00
        E 0 80 4b 00
        E 0 80 57 00
        E 480 80 63 00
        E 120 90 57 60
        E 0 90 63 60
        E 60 80 57 00
        E 0 80 63 00
        E 180 90 3e 60
        E 0 90 4b 60
        E 0 90 58 60
        E 0 90 64 60
        E 0 90 65 60
        E 60 80 3e 00
        E 0 80 4b 00
        E 0 80 58 00
        E 0 80 64 00
        E 0 80 65 00
        E 180 90 57 60
        E 0 90 63 60
        E 0 90 65 60
        E 60 80 57 00
        E 0 80 63 00
        E 0 80 65 00
        E 180 90 3e 60
        E 0 90 4b 60
        E 0 90 57 60
        E 0 90 63 60
        E 60 80 3e 00
        E 0 80 4b 00
        E 0 80 57 00
        E 0 80 63 00
        E 180 90 55 60
        E 0 90 61 60
        E 60 80 55 00
        E 0 80 61 00
        E 180 90 3e 60
        E 0 90 4b 60
        E 0 90 57 60
        E 0 90 63 60
        E 120 80 3e 00
        E 0 80 4b 00
        E 0 80 57 00
        E 480 80 63 00
        E 120 90 4b 60
        E 0 90 58 60
        E 0 90 64 60
        E 840 80 4b 00
        E 120 80 58 00
        E 120 80 64 00
        E 120 90 3e 60
        E 0 90 4b 60
        E 0 90 57 60
        E 0 90 63 60
        E 120 80 3e 00
        E 0 80 4b 00
        E 0 80 57 00
        E 480 80 63 00
        E 120 90 57 60
        E 0 90 63 60
        E 60 80 57 00
        E 0 80 63 00
        E 180 90 3e 60
        E 0 90 4b 60
        E 0 90 58 60
        E 0 90 64 60
        E 0 90 65 60
        E 60 80 3e 00
        E 0 80 4b 00
        E 0 80 58 00
        E 0 80 64 00
        E 0 80 65 00
        E 180 90 57 60
        E 0 90 63 60
        E 0 90 65 60
        E 60 80 57 00
        E 0 80 63 00
        E 0 80 65 00
        E 180 90 3e 60
        E 0 90 4b 60
        E 0 90 57 60
        E 0 90 63 60
        E 60 80 3e 00
        E 0 80 4b 00
        E 0 80 57 00
        E 0 80 63 00
        E 180 90 55 60
        E 0 90 61 60
        E 60 80 55 00
        E 0 80 61 00
        E 180 90 3e 60
        E 0 90 4b 60
        E 0 90 57 60
        E 0 90 63 60
        E 120 80 3e 00
        E 0 80 4b 00
        E 0 80 57 00
        E 480 80 63 00
        E 120 90 4a 60
        E 0 90 56 60
        E 0 90 62 60
        E 840 80 4a 00
        E 120 80 56 00
        E 120 80 62 00
        E 120 90 3c 60
        E 0 90 48 60
        E 0 90 54 60
        E 0 90 60 60
        E 60 80 3c 00
        E 0 80 48 00
        E 0 80 54 00
        E 0 80 60 00
        E 180 90 48 60
        E 0 90 54 60
        E 0 90 60 60
        E 60 80 48 00
        E 0 80 54 00
        E 0 80 60 00
        E 180 90 3c 60
        E 0 90 48 60
        E 0 90 54 60
        E 0 90 60 60
        E 60 80 3c 00
        E 0 80 48 00
        E 0 80 54 00
        E 0 80 60 00
        E 180 90 48 60
        E 0 90 54 60
        E 0 90 60 60
        E 60 80 48 00
        E 0 80 54 00
        E 0 80 60 00
        E 180 90 3c 60
        E 0 90 48 60
        E 0 90 54 60
        E 0 90 60 60
        E 60 80 3c 00
        E 0 80 48 00
        E 0 80 54 00
        E 0 80 60 00
        E 180 90 48 60
        E 0 90 54 60
        E 0 90 60 60
        E 60 80 48 00
        E 0 80 54 00
        E 0 80 60 00
        E 180 90 3c 60
        E 0 90 48 60
        E 0 90 54 60
        E 0 90 60 60
        E 60 80 3c 00
        E 0 80 48 00
        E 0 80 54 00
        E 0 80 60 00
        E 180 90 48 60
        E 0 90 54 60
        E 0 90 60 60
        E 60 80 48 00
        E 0 80 54 00
        E 0 80 60 00
        E 180 90 3c 60
        E 0 90 48 60
        E 0 90 54 60
        E 0 90 60 60
        E 60 80 3c 00
        E 0 80 48 00
        E 0 80 54 00
        E 0 80 60 00
        E 180 90 48 60
        E 0 90 54 60
        E 0 90 60 60
        E 60 80 48 00
        E 0 80 54 00
        E 0 80 60 00
        E 180 90 3c 60
        E 0 90 48 60
        E 0 90 54 60
        E 0 90 60 60
        E 60 80 3c 00
        E 0 80 48 00
        E 0 80 54 00
        E 0 80 60 00
        E 180 90 48 60
        E 0 90 54 60
        E 0 90 60 60
        E 60 80 48 00
        E 0 80 54 00
        E 0 80 60 00
        E 180 90 3c 60
        E 0 90 48 60
        E 0 90 54 60
        E 0 90 60 60
        E 60 80 3c 00
        E 0 80 48 00
        E 0 80 54 00
        E 0 80 60 00
        E 180 90 48 60
        E 0 90 54 60
        E 0 90 60 60
        E 60 80 48 00
        E 0 80 54 00
        E 0 80 60 00
        E 180 90 3c 60
        E 0 90 48 60
        E 0 90 54 60
        E 0 90 60 60
        E 60 80 3c 00
        E 0 80 48 00
        E 0 80 54 00
        E 0 80 60 00
        E 180 90 54 60
        E 0 90 55 60
        E 0 90 60 60
        E 0 90 61 60
        E 120 80 54 00
        E 0 80 55 00
        E 240 80 60 00
        E 0 80 61 00
        E 120 90 49 60
        E 0 90 55 60
        E 0 90 61 60
        E 60 80 49 00
        E 0 80 55 00
        E 0 80 61 00
        E 180 90 3d 60
        E 0 90 49 60
        E 0 90 55 60
        E 0 90 61 60
        E 60 80 3d 00
        E 0 80 49 00
        E 0 80 55 00
        E 0 80 61 00
        E 180 90 49 60
        E 0 90 55 60
        E 0 90 61 60
        E 60 80 49 00
        E 0 80 55 00
        E 0 80 61 00
        E 180 90 3d 60
        E 0 90 49 60
        E 0 90 55 60
        E 0 90 61 60
        E 60 80 3d 00
        E 0 80 49 00
        E 0 80 55 00
        E 0 80 61 00
        E 180 90 49 60
        E 0 90 55 60
        E 0 90 61 60
        E 60 80 49 00
        E 0 80 55 00
        E 0 80 61 00
        E 180 90 3d 60
        E 0 90 49 60
        E 0 90 55 60
        E 0 90 61 60
        E 60 80 3d 00
        E 0 80 49 00
        E 0 80 55 00
        E 0 80 61 00
        E 180 90 49 60
        E 0 90 55 60
        E 0 90 61 60
        E 60 80 49 00
        E 0 80 55 00
        E 0 80 61 00
        E 180 90 3d 60
        E 0 90 49 60
        E 0 90 55 60
        E 0 90 61 60
        E 60 80 3d 00
        E 0 80 49 00
        E 0 80 55 00
        E 0 80 61 00
        E 180 90 49 60
        E 0 90 55 60
        E 0 90 61 60
        E 60 80 49 00
        E 0 80 55 00
        E 0 80 61 00
        E 180 90 3d 60
        E 0 90 49 60
        E 0 90 55 60
        E 0 90 61 60
        E 60 80 3d 00
        E 0 80 49 00
        E 0 80 55 00
        E 0 80 61 00
        E 180 90 49 60
        E 0 90 55 60
        E 0 90 61 60
        E 60 80 49 00
        E 0 80 55 00
        E 0 80 61 00
        E 180 90 3d 60
        E 0 90 49 60
        E 0 90 55 60
        E 0 90 61 60
        E 60 80 3d 00
        E 0 80 49 00
        E 0 80 55 00
        E 0 80 61 00
        E 180 90 55 60
        E 0 90 61 60
        E 60 80 55 00
        E 0 80 61 00
        E 180 90 48 60
        E 0 90 49 60
        E 0 90 54 60
        E 0 90 55 60
        E 0 90 60 60
        E 0 90 61 60
        E 120 80 48 00
        E 0 80 49 00
        E 0 80 54 00
        E 0 80 55 00
        E 240 80 60 00
        E 0 80 61 00
        E 120 90 3e 60
        E 0 90 49 60
        E 0 90 4a 60
        E 0 90 55 60
        E 0 90 56 60
        E 0 90 61 60
        E 0 90 62 60
        E 60 80 3e 00
        E 0 80 49 00
        E 0 80 4a 00
        E 0 80 55 00
        E 0 80 56 00
        E 0 80 61 00
        E 0 80 62 00
        E 180 90 55 60
        E 0 90 61 60
        E 60 80 55 00
        E 0 80 61 00
        E 180 90 49 60
        E 0 90 55 60
        E 0 90 61 60
        E 60 80 49 00
        E 0 80 55 00
        E 0 80 61 00
        E 180 90 49 60
        E 0 90 55 60
        E 0 90 61 60
        E 60 80 49 00
        E 0 80 55 00
        E 0 80 61 00
        E 180 90 3d 60
        E 0 90 49 60
        E 0 90 55 60
        E 0 90 61 60
        E 60 80 3d 00
        E 0 80 49 00
        E 0 80 55 00
        E 0 80 61 00
        E 180 90 55 60
        E 0 90 61 60
        E 60 80 55 00
        E 0 80 61 00
        E 36 90 74 60
        E 144 90 49 60
        E 0 90 4a 60
        E 0 90 55 60
        E 0 90 56 60
        E 0 90 61 60
        E 0 90 62 60
        E 600 80 49 00
        E 0 80 4a 00
        E 120 80 55 00
        E 0 80 56 00
        E 0 80 61 00
        E 0 80 62 00
        E 240 90 3e 60
        E 0 90 49 60
        E 0 90 4b 60
        E 0 90 55 60
        E 0 90 57 60
        E 0 90 61 60
        E 0 90 62 60
        E 0 90 63 60
        E 960 80 3e 00
        E 120 80 49 00
        E 0 80 4b 00
        E 120 80 55 00
        E 0 80 57 00
        E 0 80 61 00
        E 0 80 62 00
        E 0 80 63 00
        E 240 90 3d 60
        E 0 90 49 60
        E 0 90 55 60
        E 0 90 61 60
        E 120 80 3d 00
        E 0 80 49 00
        E 0 80 55 00
        E 300 80 61 00
        E 60 90 4a 60
        E 0 90 56 60
        E 0 90 62 60
        E 60 80 4a 00
        E 0 80 56 00
        E 0 80 62 00
        E 180 90 57 60
        E 0 90 63 60
        E 60 80 57 00
        E 0 80 63 00
        E 180 90 3d 60
        E 0 90 49 60
        E 0 90 55 60
        E 0 90 61 60
        E 60 80 3d 00
        E 0 80 49 00
        E 0 80 55 00
        E 0 80 61 00
        E 26 80 74 00
        E 154 90 56 60
        E 0 90 62 60
        E 60 80 56 00
        E 0 80 62 00
        E 180 90 4b 60
        E 0 90 57 60
        E 0 90 63 60
        E 60 80 4b 00
        E 0 80 57 00
        E 0 80 63 00
        E 180 90 55 60
        E 0 90 61 60
        E 120 80 55 00
        E 300 80 61 00
        E 60 90 55 60
        E 0 90 61 60
        E 60 80 55 00
        E 0 80 61 00
        E 180 90 3e 60
        E 0 90 4a 60
        E 0 90 56 60
        E 0 90 62 60
        E 60 80 3e 00
        E 0 80 4a 00
        E 0 80 56 00
        E 0 80 62 00
        E 180 90 55 60
        E 0 90 61 60
        E 60 80 55 00
        E 0 80 61 00
        E 180 90 3e 60
        E 0 90 4a 60
        E 0 90 56 60
        E 0 90 62 60
        E 60 80 3e 00
        E 0 80 4a 00
        E 0 80 56 00
        E 0 80 62 00
        E 180 90 55 60
        E 0 90 61 60
        E 60 80 55 00
        E 0 80 61 00
        E 180 90 4b 60
        E 0 90 57 60
        E 0 90 63 60
        E 120 80 4b 00
        E 0 80 57 00
        E 300 80 63 00
        E 60 90 3c 60
        E 0 90 48 60
        E 0 90 54 60
        E 0 90 60 60
        E 60 80 3c 00
        E 0 80 48 00
        E 0 80 54 00
        E 0 80 60 00
        E 180 90 48 60
        E 0 90 54 60
        E 0 90 60 60
        E 60 80 48 00
        E 0 80 54 00
        E 0 80 60 00
        E 180 90 3c 60
        E 0 90 48 60
        E 0 90 54 60
        E 0 90 60 60
        E 60 80 3c 00
        E 0 80 48 00
        E 0 80 54 00
        E 0 80 60 00
        E 180 90 48 60
        E 0 90 54 60
        E 0 90 60 60
        E 60 80 48 00
        E 0 80 54 00
        E 0 80 60 00
        E 180 90 3c 60
        E 0 90 48 60
        E 0 90 54 60
        E 0 90 60 60
        E 60 80 3c 00
        E 0 80 48 00
        E 0 80 54 00
        E 0 80 60 00
        E 180 90 48 60
        E 0 90 54 60
        E 0 90 60 60
        E 60 80 48 00
        E 0 80 54 00
        E 0 80 60 00
        E 180 90 3c 60
        E 0 90 48 60
        E 0 90 54 60
        E 0 90 60 60
        E 60 80 3c 00
        E 0 80 48 00
        E 0 80 54 00
        E 0 80 60 00
        E 180 90 48 60
        E 0 90 54 60
        E 0 90 60 60
        E 60 80 48 00
        E 0 80 54 00
        E 0 80 60 00
        E 180 90 3c 60
        E 0 90 48 60
        E 0 90 54 60
        E 0 90 60 60
        E 60 80 3c 00
        E 0 80 48 00
        E 0 80 54 00
        E 0 80 60 00
        E 180 90 48 60
        E 0 90 54 60
        E 0 90 60 60
        E 60 80 48 00
        E 0 80 54 00
        E 0 80 60 00
        E 180 90 3c 60
        E 0 90 48 60
        E 0 90 54 60
        E 0 90 60 60
        E 60 80 3c 00
        E 0 80 48 00
        E 0 80 54 00
        E 0 80 60 00
        E 180 90 48 60
        E 0 90 54 60
        E 0 90 60 60
        E 60 80 48 00
        E 0 80 54 00
        E 0 80 60 00
        E 180 90 3c 60
        E 0 90 48 60
        E 0 90 54 60
        E 0 90 60 60
        E 60 80 3c 00
        E 0 80 48 00
        E 0 80 54 00
        E 0 80 60 00
        E 180 90 48 60
        E 0 90 54 60
        E 0 90 60 60
        E 60 80 48 00
        E 0 80 54 00
        E 0 80 60 00
        E 180 90 3c 60
        E 0 90 48 60
        E 0 90 54 60
        E 0 90 60 60
        E 60 80 3c 00
        E 0 80 48 00
        E 0 80 54 00
        E 0 80 60 00
        E 180 90 54 60
        E 0 90 55 60
        E 0 90 60 60
        E 0 90 61 60
        E 120 80 54 00
        E 0 80 55 00
        E 240 80 60 00
        E 0 80 61 00
        E 120 90 49 60
        E 0 90 55 60
        E 0 90 61 60
        E 60 80 49 00
        E 0 80 55 00
        E 0 80 61 00
        E 180 90 3d 60
        E 0 90 49 60
        E 0 90 55 60
        E 0 90 61 60
        E 60 80 3d 00
        E 0 80 49 00
        E 0 80 55 00
        E 0 80 61 00
        E 180 90 49 60
        E 0 90 55 60
        E 0 90 61 60
        E 60 80 49 00
        E 0 80 55 00
        E 0 80 61 00
        E 180 90 3d 60
        E 0 90 49 60
        E 0 90 55 60
        E 0 90 61 60
        E 60 80 3d 00
        E 0 80 49 00
        E 0 80 55 00
        E 0 80 61 00
        E 180 90 49 60
        E 0 90 55 60
        E 0 90 61 60
        E 60 80 49 00
        E 0 80 55 00
        E 0 80 61 00
        E 180 90 3d 60
        E 0 90 49 60
        E 0 90 55 60
        E 0 90 61 60
        E 60 80 3d 00
        E 0 80 49 00
        E 0 80 55 00
        E 0 80 61 00
        E 180 90 49 60
        E 0 90 55 60
        E 0 90 61 60
        E 60 80 49 00
        E 0 80 55 00
        E 0 80 61 00
        E 180 90 3d 60
        E 0 90 49 60
        E 0 90 55 60
        E 0 90 61 60
        E 60 80 3d 00
        E 0 80 49 00
        E 0 80 55 00
        E 0 80 61 00
        E 180 90 49 60
        E 0 90 55 60
        E 0 90 61 60
        E 60 80 49 00
        E 0 80 55 00
        E 0 80 61 00
        E 180 90 3d 60
        E 0 90 49 60
        E 0 90 55 60
        E 0 90 61 60
        E 60 80 3d 00
        E 0 80 49 00
        E 0 80 55 00
        E 0 80 61 00
        E 180 90 49 60
        E 0 90 55 60
        E 0 90 61 60
        E 60 80 49 00
        E 0 80 55 00
        E 0 80 61 00
        E 180 90 3d 60
        E 0 90 49 60
        E 0 90 55 60
        E 0 90 61 60
        E 60 80 3d 00
        E 0 80 49 00
        E 0 80 55 00
        E 0 80 61 00
        E 180 90 55 60
        E 0 90 61 60
        E 60 80 55 00
        E 0 80 61 00
        E 180 90 48 60
        E 0 90 49 60
        E 0 90 54 60
        E 0 90 55 60
        E 0 90 60 60
        E 0 90 61 60
        E 120 80 48 00
        E 0 80 49 00
        E 0 80 54 00
        E 0 80 55 00
        E 240 80 60 00
        E 0 80 61 00
        E 120 90 3e 60
        E 0 90 49 60
        E 0 90 4a 60
        E 0 90 55 60
        E 0 90 56 60
        E 0 90 61 60
        E 0 90 62 60
        E 60 80 3e 00
        E 0 80 49 00
        E 0 80 4a 00
        E 0 80 55 00
        E 0 80 56 00
        E 0 80 61 00
        E 0 80 62 00
        E 180 90 55 60
        E 0 90 61 60
        E 60 80 55 00
        E 0 80 61 00
        E 180 90 49 60
        E 0 90 55 60
        E 0 90 61 60
        E 60 80 49 00
        E 0 80 55 00
        E 0 80 61 00
        E 180 90 49 60
        E 0 90 55 60
        E 0 90 61 60
        E 60 80 49 00
        E 0 80 55 00
        E 0 80 61 00
        E 180 90 3d 60
        E 0 90 49 60
        E 0 90 55 60
        E 0 90 61 60
        E 60 80 3d 00
        E 0 80 49 00
        E 0 80 55 00
        E 0 80 61 00
        E 180 90 55 60
        E 0 90 61 60
        E 60 80 55 00
        E 0 80 61 00
        E 180 90 49 60
        E 0 90 4a 60
        E 0 90 55 60
        E 0 90 56 60
        E 0 90 61 60
        E 0 90 62 60
        E 600 80 49 00
        E 0 80 4a 00
        E 120 80 55 00
        E 0 80 56 00
        E 0 80 61 00
        E 0 80 62 00
        E 240 90 3e 60
        E 0 90 49 60
        E 0 90 4b 60
        E 0 90 55 60
        E 0 90 57 60
        E 0 90 61 60
        E 0 90 62 60
        E 0 90 63 60
        E 960 80 3e 00
        E 120 80 49 00
        E 0 80 4b 00
        E 120 80 55 00
        E 0 80 57 00
        E 0 80 61 00
        E 0 80 62 00
        E 0 80 63 00
        E 240 90 3d 60
        E 0 90 49 60
        E 0 90 55 60
        E 0 90 61 60
        E 120 80 3d 00
        E 0 80 49 00
        E 0 80 55 00
        E 420 80 61 00
        E 60 90 4a 60
        E 0 90 56 60
        E 0 90 62 60
        E 60 80 4a 00
        E 0 80 56 00
        E 0 80 62 00
        E 180 90 57 60
        E 0 90 63 60
        E 60 80 57 00
        E 0 80 63 00
        E 180 90 3d 60
        E 0 90 49 60
        E 0 90 55 60
        E 0 90 61 60
        E 60 80 3d 00
        E 0 80 49 00
        E 0 80 55 00
        E 0 80 61 00
        E 180 90 56 60
        E 0 90 62 60
        E 60 80 56 00
        E 0 80 62 00
        E 180 90 49 60
        E 0 90 55 60
        E 0 90 61 60
        E 120 80 49 00
        E 0 80 55 00
        E 420 80 61 00
        E 60 90 55 60
        E 0 90 61 60
        E 60 80 55 00
        E 0 80 61 00
        E 180 90 3e 60
        E 0 90 4a 60
        E 0 90 56 60
        E 0 90 62 60
        E 60 80 3e 00
        E 0 80 4a 00
        E 0 80 56 00
        E 0 80 62 00
        E 180 90 55 60
        E 0 90 61 60
        E 60 80 55 00
        E 0 80 61 00
        E 180 90 3e 60
        E 0 90 4a 60
        E 0 90 56 60
        E 0 90 62 60
        E 60 80 3e 00
        E 0 80 4a 00
        E 0 80 56 00
        E 0 80 62 00
        E 180 90 55 60
        E 0 90 61 60
        E 60 80 55 00
        E 0 80 61 00
        E 180 90 4b 60
        E 0 90 57 60
        E 0 90 63 60
        E 60 80 4b 00
        E 0 80 57 00
        E 0 80 63 00
        E 420 90 3e 60
        E 0 90 49 60
        E 0 90 4b 60
        E 0 90 55 60
        E 0 90 57 60
        E 0 90 61 60
        E 0 90 62 60
        E 0 90 63 60
        E 60 80 3e 00
        E 0 80 49 00
        E 0 80 4b 00
        E 0 80 55 00
        E 0 80 57 00
        E 0 80 61 00
        E 0 80 62 00
        E 0 80 63 00
        E 180 90 56 60
        E 0 90 62 60
        E 60 80 56 00
        E 0 80 62 00
        E 180 90 49 60
        E 0 90 55 60
        E 0 90 61 60
        E 60 80 49 00
        E 0 80 55 00
        E 0 80 61 00
        E 180 90 55 60
        E 0 90 57 60
        E 0 90 61 60
        E 0 90 62 60
        E 0 90 63 60
        E 60 80 55 00
        E 0 80 57 00
        E 0 80 61 00
        E 0 80 62 00
        E 0 80 63 00
        E 180 90 3e 60
        E 0 90 4a 60
        E 0 90 56 60
        E 0 90 62 60
        E 60 80 3e 00
        E 0 80 4a 00
        E 0 80 56 00
        E 0 80 62 00
        E 180 90 55 60
        E 0 90 61 60
        E 60 80 55 00
        E 0 80 61 00
        E 180 90 49 60
        E 0 90 4b 60
        E 0 90 55 60
        E 0 90 57 60
        E 0 90 61 60
        E 0 90 62 60
        E 0 90 63 60
        E 60 80 49 00
        E 0 80 4b 00
        E 0 80 55 00
        E 0 80 57 00
        E 0 80 61 00
        E 0 80 62 00
        E 0 80 63 00
        E 180 90 56 60
        E 0 90 62 60
        E 60 80 56 00
        E 0 80 62 00
        E 180 90 3d 60
        E 0 90 48 60
        E 0 90 4a 60
        E 0 90 54 60
        E 0 90 56 60
        E 0 90 60 60
        E 0 90 61 60
        E 0 90 63 60
        E 60 80 3d 00
        E 0 80 48 00
        E 0 80 4a 00
        E 0 80 54 00
        E 0 80 56 00
        E 0 80 60 00
        E 0 80 61 00
        E 0 80 63 00
        E 180 90 55 60
        E 0 90 61 60
        E 60 80 55 00
        E 0 80 61 00
        E 180 90 48 60
        E 0 90 54 60
        E 0 90 60 60
        E 60 80 48 00
        E 0 80 54 00
        E 0 80 60 00
        E 180 90 54 60
        E 0 90 56 60
        E 0 90 60 60
        E 0 90 61 60
        E 0 90 63 60
        E 60 80 54 00
        E 0 80 56 00
        E 0 80 60 00
        E 0 80 61 00
        E 0 80 63 00
        E 180 90 3d 60
        E 0 90 49 60
        E 0 90 55 60
        E 0 90 61 60
        E 60 80 3d 00
        E 0 80 49 00
        E 0 80 55 00
        E 0 80 61 00
        E 180 90 54 60
        E 0 90 60 60
        E 60 80 54 00
        E 0 80 60 00
        E 180 90 48 60
        E 0 90 4a 60
        E 0 90 54 60
        E 0 90 56 60
        E 0 90 60 60
        E 0 90 61 60
        E 0 90 63 60
        E 60 80 48 00
        E 0 80 4a 00
        E 0 80 54 00
        E 0 80 56 00
        E 0 80 60 00
        E 0 80 61 00
        E 0 80 63 00
        E 180 90 55 60
        E 0 90 61 60
        E 60 80 55 00
        E 0 80 61 00
        E 180 90 3e 60
        E 0 90 49 60
        E 0 90 4b 60
        E 0 90 55 60
        E 0 90 57 60
        E 0 90 61 60
        E 0 90 62 60
        E 0 90 63 60
        E 60 80 3e 00
        E 0 80 49 00
        E 0 80 4b 00
        E 0 80 55 00
        E 0 80 57 00
        E 0 80 61 00
        E 0 80 62 00
        E 0 80 63 00
        E 180 90 56 60
        E 0 90 62 60
        E 60 80 56 00
        E 0 80 62 00
        E 180 90 49 60
        E 0 90 55 60
        E 0 90 61 60
        E 60 80 49 00
        E 0 80 55 00
        E 0 80 61 00
        E 180 90 55 60
        E 0 90 57 60
        E 0 90 61 60
        E 0 90 62 60
        E 0 90 63 60
        E 60 80 55 00
        E 0 80 57 00
        E 0 80 61 00
        E 0 80 62 00
        E 0 80 63 00
        E 180 90 3e 60
        E 0 90 4a 60
        E 0 90 56 60
        E 0 90 62 60
        E 60 80 3e 00
        E 0 80 4a 00
        E 0 80 56 00
        E 0 80 62 00
        E 180 90 55 60
        E 0 90 61 60
        E 60 80 55 00
        E 0 80 61 00
        E 180 90 49 60
        E 0 90 4b 60
        E 0 90 55 60
        E 0 90 57 60
        E 0 90 61 60
        E 0 90 62 60
        E 0 90 63 60
        E 60 80 49 00
        E 0 80 4b 00
        E 0 80 55 00
        E 0 80 57 00
        E 0 80 61 00
        E 0 80 62 00
        E 0 80 63 00
        E 180 90 56 60
        E 0 90 62 60
        E 60 80 56 00
        E 0 80 62 00
        E 180 90 40 60
        E 0 90 4b 60
        E 0 90 4c 60
        E 0 90 57 60
        E 0 90 58 60
        E 0 90 62 60
        E 0 90 63 60
        E 0 90 64 60
        E 60 80 40 00
        E 0 80 4b 00
        E 0 80 4c 00
        E 0 80 57 00
        E 0 80 58 00
        E 0 80 62 00
        E 0 80 63 00
        E 0 80 64 00
        E 180 90 57 60
        E 0 90 63 60
        E 60 80 57 00
        E 0 80 63 00
        E 180 90 4a 60
        E 0 90 56 60
        E 0 90 62 60
        E 60 80 4a 00
        E 0 80 56 00
        E 0 80 62 00
        E 180 90 57 60
        E 0 90 58 60
        E 0 90 62 60
        E 0 90 63 60
        E 0 90 64 60
        E 60 80 57 00
        E 0 80 58 00
        E 0 80 62 00
        E 0 80 63 00
        E 0 80 64 00
        E 180 90 3e 60
        E 0 90 4b 60
        E 0 90 57 60
        E 0 90 63 60
        E 60 80 3e 00
        E 0 80 4b 00
        E 0 80 57 00
        E 0 80 63 00
        E 180 90 56 60
        E 0 90 62 60
        E 60 80 56 00
        E 0 80 62 00
        E 180 90 4b 60
        E 0 90 4c 60
        E 0 90 57 60
        E 0 90 58 60
        E 0 90 62 60
        E 0 90 63 60
        E 0 90 64 60
        E 60 80 4b 00
        E 0 80 4c 00
        E 0 80 57 00
        E 0 80 58 00
        E 0 80 62 00
        E 0 80 63 00
        E 0 80 64 00
        E 180 90 57 60
        E 0 90 63 60
        E 60 80 57 00
        E 0 80 63 00
        E 180 90 3e 60
        E 0 90 49 60
        E 0 90 4b 60
        E 0 90 55 60
        E 0 90 57 60
        E 0 90 61 60
        E 0 90 62 60
        E 0 90 63 60
        E 60 80 3e 00
        E 0 80 49 00
        E 0 80 4b 00
        E 0 80 55 00
        E 0 80 57 00
        E 0 80 61 00
        E 0 80 62 00
        E 0 80 63 00
        E 180 90 56 60
        E 0 90 62 60
        E 60 80 56 00
        E 0 80 62 00
        E 180 90 49 60
        E 0 90 55 60
        E 0 90 61 60
        E 60 80 49 00
        E 0 80 55 00
        E 0 80 61 00
        E 180 90 55 60
        E 0 90 57 60
        E 0 90 61 60
        E 0 90 62 60
        E 0 90 63 60
        E 60 80 55 00
        E 0 80 57 00
        E 0 80 61 00
        E 0 80 62 00
        E 0 80 63 00
        E 180 90 3e 60
        E 0 90 4a 60
        E 0 90 56 60
        E 0 90 62 60
        E 60 80 3e 00
        E 0 80 4a 00
        E 0 80 56 00
        E 0 80 62 00
        E 180 90 55 60
        E 0 90 61 60
        E 60 80 55 00
        E 0 80 61 00
        E 180 90 49 60
        E 0 90 4b 60
        E 0 90 55 60
        E 0 90 57 60
        E 0 90 61 60
        E 0 90 62 60
        E 0 90 63 60
        E 60 80 49 00
        E 0 80 4b 00
        E 0 80 55 00
        E 0 80 57 00
        E 0 80 61 00
        E 0 80 62 00
        E 0 80 63 00
        E 180 90 56 60
        E 0 90 62 60
        E 60 80 56 00
        E 0 80 62 00
        E 180 90 3d 60
        E 0 90 48 60
        E 0 90 4a 60
        E 0 90 54 60
        E 0 90 56 60
        E 0 90 60 60
        E 0 90 61 60
        E 0 90 63 60
        E 60 80 3d 00
        E 0 80 48 00
        E 0 80 4a 00
        E 0 80 54 00
        E 0 80 56 00
        E 0 80 60 00
        E 0 80 61 00
        E 0 80 63 00
        E 180 90 55 60
        E 0 90 61 60
        E 60 80 55 00
        E 0 80 61 00
        E 180 90 48 60
        E 0 90 54 60
        E 0 90 60 60
        E 60 80 48 00
        E 0 80 54 00
        E 0 80 60 00
        E 180 90 54 60
        E 0 90 56 60
        E 0 90 60 60
        E 0 90 61 60
        E 0 90 63 60
        E 60 80 54 00
        E 0 80 56 00
        E 0 80 60 00
        E 0 80 61 00
        E 0 80 63 00
        E 180 90 3d 60
        E 0 90 49 60
        E 0 90 55 60
        E 0 90 61 60
        E 60 80 3d 00
        E 0 80 49 00
        E 0 80 55 00
        E 0 80 61 00
        E 180 90 54 60
        E 0 90 60 60
        E 60 80 54 00
        E 0 80 60 00
        E 180 90 48 60
        E 0 90 4a 60
        E 0 90 54 60
        E 0 90 56 60
        E 0 90 60 60
        E 0 90 61 60
        E 0 90 63 60
        E 60 80 48 00
        E 0 80 4a 00
        E 0 80 54 00
        E 0 80 56 00
        E 0 80 60 00
        E 0 80 61 00
        E 0 80 63 00
        E 100 90 74 60
        E 80 90 55 60
        E 0 90 57 60
        E 0 90 61 60
        E 0 90 62 60
        E 0 90 63 60
        E 600 80 55 00
        E 0 80 57 00
        E 120 80 61 00
        E 0 80 62 00
        E 0 80 63 00
        E 120 90 3c 60
        E 0 90 48 60
        E 0 90 49 60
        E 0 90 54 60
        E 0 90 55 60
        E 0 90 60 60
        E 0 90 61 60
        E 0 90 62 60
        E 120 80 3c 00
        E 480 80 48 00
        E 0 80 49 00
        E 120 80 54 00
        E 0 80 55 00
        E 120 80 60 00
        E 0 80 61 00
        E 0 80 62 00
        E 120 90 3c 60
        E 0 90 48 60
        E 0 90 49 60
        E 0 90 54 60
        E 0 90 55 60
        E 0 90 60 60
        E 0 90 61 60
        E 0 90 62 60
        E 120 80 3c 00
        E 480 80 48 00
        E 0 80 49 00
        E 120 80 54 00
        E 0 80 55 00
        E 120 80 60 00
        E 0 80 61 00
        E 0 80 62 00
        E 120 90 3c 60
        E 0 90 3d 60
        E 0 90 3e 60
        E 0 90 3f 60
        E 0 90 48 60
        E 0 90 49 60
        E 0 90 4a 60
        E 0 90 4b 60
        E 0 90 54 60
        E 0 90 55 60
        E 0 90 56 60
        E 0 90 57 60
        E 0 90 60 60
        E 0 90 61 60
        E 0 90 62 60
        E 0 90 63 60
        E 720 80 3c 00
        E 0 80 3d 00
        E 0 80 3e 00
        E 0 80 3f 00
        E 120 80 48 00
        E 0 80 49 00
        E 0 80 4a 00
        E 0 80 4b 00
        E 120 80 54 00
        E 0 80 55 00
        E 0 80 56 00
        E 0 80 57 00
        E 120 80 60 00
        E 0 80 61 00
        E 0 80 62 00
        E 0 80 63 00
        E 40 80 74 00
        E 80 90 3e 60
        E 0 90 4b 60
        E 0 90 58 60
        E 0 90 64 60
        E 60 80 3e 00
        E 0 80 4b 00
        E 0 80 58 00
        E 0 80 64 00
        E 180 90 57 60
        E 0 90 63 60
        E 60 80 57 00
        E 0 80 63 00
        E 180 90 4a 60
        E 0 90 56 60
        E 0 90 62 60
        E 60 80 4a 00
        E 0 80 56 00
        E 0 80 62 00
        E 180 90 58 60
        E 0 90 64 60
        E 60 80 58 00
        E 0 80 64 00
        E 180 90 3e 60
        E 0 90 4b 60
        E 0 90 57 60
        E 0 90 63 60
        E 60 80 3e 00
        E 0 80 4b 00
        E 0 80 57 00
        E 0 80 63 00
        E 180 90 56 60
        E 0 90 62 60
        E 60 80 56 00
        E 0 80 62 00
        E 180 90 4b 60
        E 0 90 58 60
        E 0 90 64 60
        E 60 80 4b 00
        E 0 80 58 00
        E 0 80 64 00
        E 180 90 57 60
        E 0 90 63 60
        E 60 80 57 00
        E 0 80 63 00
        E 180 90 3e 60
        E 0 90 4b 60
        E 0 90 58 60
        E 0 90 64 60
        E 60 80 3e 00
        E 0 80 4b 00
        E 0 80 58 00
        E 0 80 64 00
        E 300 90 57 60
        E 0 90 58 60
        E 0 90 63 60
        E 0 90 64 60
        E 120 80 57 00
        E 0 80 58 00
        E 360 80 63 00
        E 0 80 64 00
        E 120 90 63 60
        E 0 90 64 60
        E 60 80 63 00
        E 0 80 64 00
        E 60 90 40 60
        E 0 90 4b 60
        E 0 90 4c 60
        E 0 90 57 60
        E 0 90 58 60
        E 0 90 63 60
        E 0 90 64 60
        E 120 80 40 00
        E 480 80 4b 00
        E 0 80 4c 00
        E 120 80 57 00
        E 0 80 58 00
        E 120 80 63 00
        E 0 80 64 00
        E 120 90 40 60
        E 0 90 4b 60
        E 0 90 4c 60
        E 0 90 57 60
        E 0 90 58 60
        E 0 90 62 60
        E 0 90 63 60
        E 0 90 64 60
        E 60 80 40 00
        E 0 80 4b 00
        E 0 80 4c 00
        E 0 80 57 00
        E 0 80 58 00
        E 0 80 62 00
        E 0 80 63 00
        E 0 80 64 00
        E 180 90 57 60
        E 0 90 63 60
        E 60 80 57 00
        E 0 80 63 00
        E 180 90 4a 60
        E 0 90 56 60
        E 0 90 62 60
        E 60 80 4a 00
        E 0 80 56 00
        E 0 80 62 00
        E 180 90 57 60
        E 0 90 58 60
        E 0 90 62 60
        E 0 90 63 60
        E 0 90 64 60
        E 60 80 57 00
        E 0 80 58 00
        E 0 80 62 00
        E 0 80 63 00
        E 0 80 64 00
        E 180 90 3e 60
        E 0 90 4b 60
        E 0 90 57 60
        E 0 90 63 60
        E 60 80 3e 00
        E 0 80 4b 00
        E 0 80 57 00
        E 0 80 63 00
        E 180 90 56 60
        E 0 90 62 60
        E 60 80 56 00
        E 0 80 62 00
        E 180 90 4b 60
        E 0 90 4c 60
        E 0 90 57 60
        E 0 90 58 60
        E 0 90 62 60
        E 0 90 63 60
        E 0 90 64 60
        E 60 80 4b 00
        E 0 80 4c 00
        E 0 80 57 00
        E 0 80 58 00
        E 0 80 62 00
        E 0 80 63 00
        E 0 80 64 00
        E 180 90 57 60
        E 0 90 63 60
        E 60 80 57 00
        E 0 80 63 00
        E 180 90 40 60
        E 0 90 4a 60
        E 0 90 4c 60
        E 0 90 55 60
        E 0 90 58 60
        E 0 90 61 60
        E 0 90 62 60
        E 0 90 64 60
        E 60 80 40 00
        E 0 80 4a 00
        E 0 80 4c 00
        E 0 80 55 00
        E 0 80 58 00
        E 0 80 61 00
        E 0 80 62 00
        E 0 80 64 00
        E 180 90 57 60
        E 0 90 63 60
        E 60 80 57 00
        E 0 80 63 00
        E 180 90 4a 60
        E 0 90 56 60
        E 0 90 62 60
        E 60 80 4a 00
        E 0 80 56 00
        E 0 80 62 00
        E 180 90 55 60
        E 0 90 58 60
        E 0 90 61 60
        E 0 90 62 60
        E 0 90 64 60
        E 60 80 55 00
        E 0 80 58 00
        E 0 80 61 00
        E 0 80 62 00
        E 0 80 64 00
        E 180 90 3e 60
        E 0 90 4b 60
        E 0 90 57 60
        E 0 90 63 60
        E 60 80 3e 00
        E 0 80 4b 00
        E 0 80 57 00
        E 0 80 63 00
        E 180 90 56 60
        E 0 90 62 60
        E 60 80 56 00
        E 0 80 62 00
        E 180 90 4a 60
        E 0 90 4c 60
        E 0 90 55 60
        E 0 90 58 60
        E 0 90 61 60
        E 0 90 62 60
        E 0 90 64 60
        E 60 80 4a 00
        E 0 80 4c 00
        E 0 80 55 00
        E 0 80 58 00
        E 0 80 61 00
        E 0 80 62 00
        E 0 80 64 00
        E 180 90 57 60
        E 0 90 63 60
        E 60 80 57 00
        E 0 80 63 00
        E 180 90 3e 60
        E 0 90 49 60
        E 0 90 4b 60
        E 0 90 55 60
        E 0 90 57 60
        E 0 90 61 60
        E 0 90 62 60
        E 0 90 63 60
        E 60 80 3e 00
        E 0 80 49 00
        E 0 80 4b 00
        E 0 80 55 00
        E 0 80 57 00
        E 0 80 61 00
        E 0 80 62 00
        E 0 80 63 00
        E 180 90 56 60
        E 0 90 62 60
        E 60 80 56 00
        E 0 80 62 00
        E 180 90 49 60
        E 0 90 55 60
        E 0 90 61 60
        E 60 80 49 00
        E 0 80 55 00
        E 0 80 61 00
        E 180 90 55 60
        E 0 90 57 60
        E 0 90 61 60
        E 0 90 62 60
        E 0 90 63 60
        E 60 80 55 00
        E 0 80 57 00
        E 0 80 61 00
        E 0 80 62 00
        E 0 80 63 00
        E 180 90 3e 60
        E 0 90 4a 60
        E 0 90 56 60
        E 0 90 62 60
        E 60 80 3e 00
        E 0 80 4a 00
        E 0 80 56 00
        E 0 80 62 00
        E 180 90 55 60
        E 0 90 61 60
        E 60 80 55 00
        E 0 80 61 00
        E 180 90 49 60
        E 0 90 4b 60
        E 0 90 55 60
        E 0 90 57 60
        E 0 90 61 60
        E 0 90 62 60
        E 0 90 63 60
        E 60 80 49 00
        E 0 80 4b 00
        E 0 80 55 00
        E 0 80 57 00
        E 0 80 61 00
        E 0 80 62 00
        E 0 80 63 00
        E 180 90 56 60
        E 0 90 62 60
        E 60 80 56 00
        E 0 80 62 00
        E 180 90 3d 60
        E 0 90 48 60
        E 0 90 4a 60
        E 0 90 54 60
        E 0 90 56 60
        E 0 90 60 60
        E 0 90 61 60
        E 0 90 63 60
        E 60 80 3d 00
        E 0 80 48 00
        E 0 80 4a 00
        E 0 80 54 00
        E 0 80 56 00
        E 0 80 60 00
        E 0 80 61 00
        E 0 80 63 00
        E 180 90 55 60
        E 0 90 61 60
        E 60 80 55 00
        E 0 80 61 00
        E 180 90 48 60
        E 0 90 54 60
        E 0 90 60 60
        E 60 80 48 00
        E 0 80 54 00
        E 0 80 60 00
        E 180 90 54 60
        E 0 90 56 60
        E 0 90 60 60
        E 0 90 61 60
        E 0 90 63 60
        E 60 80 54 00
        E 0 80 56 00
        E 0 80 60 00
        E 0 80 61 00
        E 0 80 63 00
        E 180 90 3d 60
        E 0 90 49 60
        E 0 90 55 60
        E 0 90 61 60
        E 60 80 3d 00
        E 0 80 49 00
        E 0 80 55 00
        E 0 80 61 00
        E 180 90 54 60
        E 0 90 60 60
        E 60 80 54 00
        E 0 80 60 00
        E 180 90 48 60
        E 0 90 4a 60
        E 0 90 54 60
        E 0 90 56 60
        E 0 90 60 60
        E 0 90 61 60
        E 0 90 63 60
        E 60 80 48 00
        E 0 80 4a 00
        E 0 80 54 00
        E 0 80 56 00
        E 0 80 60 00
        E 0 80 61 00
        E 0 80 63 00
        E 180 90 55 60
        E 0 90 61 60
        E 60 80 55 00
        E 0 80 61 00
        E 180 90 3e 60
        E 0 90 49 60
        E 0 90 4b 60
        E 0 90 55 60
        E 0 90 57 60
        E 0 90 61 60
        E 0 90 62 60
        E 0 90 63 60
        E 60 80 3e 00
        E 0 80 49 00
        E 0 80 4b 00
        E 0 80 55 00
        E 0 80 57 00
        E 0 80 61 00
        E 0 80 62 00
        E 0 80 63 00
        E 180 90 56 60
        E 0 90 62 60
        E 60 80 56 00
        E 0 80 62 00
        E 180 90 49 60
        E 0 90 55 60
        E 0 90 61 60
        E 60 80 49 00
        E 0 80 55 00
        E 0 80 61 00
        E 180 90 55 60
        E 0 90 57 60
        E 0 90 61 60
        E 0 90 62 60
        E 0 90 63 60
        E 60 80 55 00
        E 0 80 57 00
        E 0 80 61 00
        E 0 80 62 00
        E 0 80 63 00
        E 180 90 3e 60
        E 0 90 4a 60
        E 0 90 56 60
        E 0 90 62 60
        E 60 80 3e 00
        E 0 80 4a 00
        E 0 80 56 00
        E 0 80 62 00
        E 180 90 55 60
        E 0 90 61 60
        E 60 80 55 00
        E 0 80 61 00
        E 180 90 49 60
        E 0 90 4b 60
        E 0 90 55 60
        E 0 90 57 60
        E 0 90 61 60
        E 0 90 62 60
        E 0 90 63 60
        E 60 80 49 00
        E 0 80 4b 00
        E 0 80 55 00
        E 0 80 57 00
        E 0 80 61 00
        E 0 80 62 00
        E 0 80 63 00
        E 140 90 74 60
        E 40 90 55 60
        E 0 90 56 60
        E 0 90 57 60
        E 0 90 58 60
        E 0 90 61 60
        E 0 90 62 60
        E 0 90 63 60
        E 0 90 64 60
        E 660 80 55 00
        E 0 80 56 00
        E 0 80 57 00
        E 0 80 58 00
        E 120 80 61 00
        E 0 80 62 00
        E 0 80 63 00
        E 0 80 64 00
        E 120 90 3e 60
        E 0 90 49 60
        E 0 90 4b 60
        E 0 90 55 60
        E 0 90 57 60
        E 0 90 61 60
        E 0 90 62 60
        E 0 90 63 60
        E 780 80 3e 00
        E 120 80 49 00
        E 0 80 4b 00
        E 120 80 55 00
        E 0 80 57 00
        E 120 80 61 00
        E 0 80 62 00
        E 0 80 63 00
        E 80 80 74 00
        E 40 90 3e 60
        E 0 90 49 60
        E 0 90 4b 60
        E 0 90 55 60
        E 0 90 57 60
        E 0 90 61 60
        E 0 90 62 60
        E 0 90 63 60
        E 60 80 3e 00
        E 0 80 49 00
        E 0 80 4b 00
        E 0 80 55 00
        E 0 80 57 00
        E 0 80 61 00
        E 0 80 62 00
        E 0 80 63 00
        E 180 90 56 60
        E 0 90 62 60
        E 60 80 56 00
        E 0 80 62 00
        E 180 90 49 60
        E 0 90 55 60
        E 0 90 61 60
        E 60 80 49 00
        E 0 80 55 00
        E 0 80 61 00
        E 180 90 55 60
        E 0 90 57 60
        E 0 90 61 60
        E 0 90 62 60
        E 0 90 63 60
        E 60 80 55 00
        E 0 80 57 00
        E 0 80 61 00
        E 0 80 62 00
        E 0 80 63 00
        E 180 90 3e 60
        E 0 90 4a 60
        E 0 90 56 60
        E 0 90 62 60
        E 60 80 3e 00
        E 0 80 4a 00
        E 0 80 56 00
        E 0 80 62 00
        E 180 90 55 60
        E 0 90 61 60
        E 60 80 55 00
        E 0 80 61 00
        E 180 90 49 60
        E 0 90 4b 60
        E 0 90 55 60
        E 0 90 57 60
        E 0 90 61 60
        E 0 90 62 60
        E 0 90 63 60
        E 60 80 49 00
        E 0 80 4b 00
        E 0 80 55 00
        E 0 80 57 00
        E 0 80 61 00
        E 0 80 62 00
        E 0 80 63 00
        E 180 90 56 60
        E 0 90 62 60
        E 60 80 56 00
        E 0 80 62 00
        E 180 90 3f 60
        E 0 90 4a 60
        E 0 90 4b 60
        E 0 90 56 60
        E 0 90 58 60
        E 0 90 61 60
        E 0 90 63 60
        E 0 90 64 60
        E 60 80 3f 00
        E 0 80 4a 00
        E 0 80 4b 00
        E 0 80 56 00
        E 0 80 58 00
        E 0 80 61 00
        E 0 80 63 00
        E 0 80 64 00
        E 180 90 57 60
        E 0 90 63 60
        E 60 80 57 00
        E 0 80 63 00
        E 180 90 4a 60
        E 0 90 56 60
        E 0 90 62 60
        E 60 80 4a 00
        E 0 80 56 00
        E 0 80 62 00
        E 180 90 56 60
        E 0 90 58 60
        E 0 90 61 60
        E 0 90 63 60
        E 0 90 64 60
        E 60 80 56 00
        E 0 80 58 00
        E 0 80 61 00
        E 0 80 63 00
        E 0 80 64 00
        E 180 90 3e 60
        E 0 90 4b 60
        E 0 90 57 60
        E 0 90 63 60
        E 60 80 3e 00
        E 0 80 4b 00
        E 0 80 57 00
        E 0 80 63 00
        E 180 90 56 60
        E 0 90 62 60
        E 60 80 56 00
        E 0 80 62 00
        E 180 90 4a 60
        E 0 90 4b 60
        E 0 90 56 60
        E 0 90 58 60
        E 0 90 61 60
        E 0 90 63 60
        E 0 90 64 60
        E 60 80 4a 00
        E 0 80 4b 00
        E 0 80 56 00
        E 0 80 58 00
        E 0 80 61 00
        E 0 80 63 00
        E 0 80 64 00
        E 180 90 57 60
        E 0 90 63 60
        E 60 80 57 00
        E 0 80 63 00
        E 180 90 40 60
        E 0 90 4b 60
        E 0 90 4c 60
        E 0 90 57 60
        E 0 90 58 60
        E 0 90 62 60
        E 0 90 63 60
        E 0 90 64 60
        E 60 80 40 00
        E 0 80 4b 00
        E 0 80 4c 00
        E 0 80 57 00
        E 0 80 58 00
        E 0 80 62 00
        E 0 80 63 00
        E 0 80 64 00
        E 180 90 57 60
        E 0 90 63 60
        E 60 80 57 00
        E 0 80 63 00
        E 180 90 4a 60
        E 0 90 56 60
        E 0 90 62 60
        E 60 80 4a 00
        E 0 80 56 00
        E 0 80 62 00
        E 180 90 57 60
        E 0 90 58 60
        E 0 90 62 60
        E 0 90 63 60
        E 0 90 64 60
        E 60 80 57 00
        E 0 80 58 00
        E 0 80 62 00
        E 0 80 63 00
        E 0 80 64 00
        E 180 90 3e 60
        E 0 90 4b 60
        E 0 90 57 60
        E 0 90 63 60
        E 60 80 3e 00
        E 0 80 4b 00
        E 0 80 57 00
        E 0 80 63 00
        E 180 90 56 60
        E 0 90 62 60
        E 60 80 56 00
        E 0 80 62 00
        E 180 90 4b 60
        E 0 90 4c 60
        E 0 90 57 60
        E 0 90 58 60
        E 0 90 62 60
        E 0 90 63 60
        E 0 90 64 60
        E 60 80 4b 00
        E 0 80 4c 00
        E 0 80 57 00
        E 0 80 58 00
        E 0 80 62 00
        E 0 80 63 00
        E 0 80 64 00
        E 180 90 57 60
        E 0 90 63 60
        E 60 80 57 00
        E 0 80 63 00
        E 180 90 3f 60
        E 0 90 4a 60
        E 0 90 4b 60
        E 0 90 56 60
        E 0 90 58 60
        E 0 90 61 60
        E 0 90 63 60
        E 0 90 64 60
        E 60 80 3f 00
        E 0 80 4a 00
        E 0 80 4b 00
        E 0 80 56 00
        E 0 80 58 00
        E 0 80 61 00
        E 0 80 63 00
        E 0 80 64 00
        E 180 90 57 60
        E 0 90 63 60
        E 60 80 57 00
        E 0 80 63 00
        E 180 90 4a 60
        E 0 90 56 60
        E 0 90 62 60
        E 60 80 4a 00
        E 0 80 56 00
        E 0 80 62 00
        E 180 90 56 60
        E 0 90 58 60
        E 0 90 61 60
        E 0 90 63 60
        E 0 90 64 60
        E 60 80 56 00
        E 0 80 58 00
        E 0 80 61 00
        E 0 80 63 00
        E 0 80 64 00
        E 180 90 3e 60
        E 0 90 4b 60
        E 0 90 57 60
        E 0 90 63 60
        E 60 80 3e 00
        E 0 80 4b 00
        E 0 80 57 00
        E 0 80 63 00
        E 180 90 56 60
        E 0 90 62 60
        E 60 80 56 00
        E 0 80 62 00
        E 180 90 4a 60
        E 0 90 4b 60
        E 0 90 56 60
        E 0 90 58 60
        E 0 90 61 60
        E 0 90 63 60
        E 0 90 64 60
        E 60 80 4a 00
        E 0 80 4b 00
        E 0 80 56 00
        E 0 80 58 00
        E 0 80 61 00
        E 0 80 63 00
        E 0 80 64 00
        E 180 90 57 60
        E 0 90 63 60
        E 60 80 57 00
        E 0 80 63 00
        E 180 90 3e 60
        E 0 90 49 60
        E 0 90 4b 60
        E 0 90 55 60
        E 0 90 57 60
        E 0 90 61 60
        E 0 90 62 60
        E 0 90 63 60
        E 60 80 3e 00
        E 0 80 49 00
        E 0 80 4b 00
        E 0 80 55 00
        E 0 80 57 00
        E 0 80 61 00
        E 0 80 62 00
        E 0 80 63 00
        E 180 90 56 60
        E 0 90 62 60
        E 60 80 56 00
        E 0 80 62 00
        E 180 90 49 60
        E 0 90 55 60
        E 0 90 61 60
        E 60 80 49 00
        E 0 80 55 00
        E 0 80 61 00
        E 180 90 55 60
        E 0 90 57 60
        E 0 90 61 60
        E 0 90 62 60
        E 0 90 63 60
        E 60 80 55 00
        E 0 80 57 00
        E 0 80 61 00
        E 0 80 62 00
        E 0 80 63 00
        E 180 90 3e 60
        E 0 90 4a 60
        E 0 90 56 60
        E 0 90 62 60
        E 60 80 3e 00
        E 0 80 4a 00
        E 0 80 56 00
        E 0 80 62 00
        E 180 90 55 60
        E 0 90 61 60
        E 60 80 55 00
        E 0 80 61 00
        E 180 90 49 60
        E 0 90 4b 60
        E 0 90 55 60
        E 0 90 57 60
        E 0 90 61 60
        E 0 90 62 60
        E 0 90 63 60
        E 60 80 49 00
        E 0 80 4b 00
        E 0 80 55 00
        E 0 80 57 00
        E 0 80 61 00
        E 0 80 62 00
        E 0 80 63 00
        E 180 90 56 60
        E 0 90 62 60
        E 60 80 56 00
        E 0 80 62 00
        E 180 90 3d 60
        E 0 90 48 60
        E 0 90 4a 60
        E 0 90 54 60
        E 0 90 56 60
        E 0 90 60 60
        E 0 90 61 60
        E 0 90 63 60
        E 60 80 3d 00
        E 0 80 48 00
        E 0 80 4a 00
        E 0 80 54 00
        E 0 80 56 00
        E 0 80 60 00
        E 0 80 61 00
        E 0 80 63 00
        E 180 90 55 60
        E 0 90 61 60
        E 60 80 55 00
        E 0 80 61 00
        E 180 90 48 60
        E 0 90 54 60
        E 0 90 60 60
        E 60 80 48 00
        E 0 80 54 00
        E 0 80 60 00
        E 180 90 54 60
        E 0 90 56 60
        E 0 90 60 60
        E 0 90 61 60
        E 0 90 63 60
        E 60 80 54 00
        E 0 80 56 00
        E 0 80 60 00
        E 0 80 61 00
        E 0 80 63 00
        E 180 90 3d 60
        E 0 90 49 60
        E 0 90 55 60
        E 0 90 61 60
        E 60 80 3d 00
        E 0 80 49 00
        E 0 80 55 00
        E 0 80 61 00
        E 180 90 54 60
        E 0 90 60 60
        E 60 80 54 00
        E 0 80 60 00
        E 180 90 48 60
        E 0 90 4a 60
        E 0 90 54 60
        E 0 90 56 60
        E 0 90 60 60
        E 0 90 61 60
        E 0 90 63 60
        E 60 80 48 00
        E 0 80 4a 00
        E 0 80 54 00
        E 0 80 56 00
        E 0 80 60 00
        E 0 80 61 00
        E 0 80 63 00
        E 180 90 55 60
        E 0 90 61 60
        E 60 80 55 00
        E 0 80 61 00
        E 180 90 3e 60
        E 0 90 49 60
        E 0 90 4b 60
        E 0 90 55 60
        E 0 90 57 60
        E 0 90 61 60
        E 0 90 62 60
        E 0 90 63 60
        E 60 80 3e 00
        E 0 80 49 00
        E 0 80 4b 00
        E 0 80 55 00
        E 0 80 57 00
        E 0 80 61 00
        E 0 80 62 00
        E 0 80 63 00
        E 180 90 56 60
        E 0 90 62 60
        E 60 80 56 00
        E 0 80 62 00
        E 180 90 49 60
        E 0 90 55 60
        E 0 90 61 60
        E 60 80 49 00
        E 0 80 55 00
        E 0 80 61 00
        E 180 90 55 60
        E 0 90 57 60
        E 0 90 61 60
        E 0 90 62 60
        E 0 90 63 60
        E 60 80 55 00
        E 0 80 57 00
        E 0 80 61 00
        E 0 80 62 00
        E 0 80 63 00
        E 180 90 3e 60
        E 0 90 4a 60
        E 0 90 56 60
        E 0 90 62 60
        E 60 80 3e 00
        E 0 80 4a 00
        E 0 80 56 00
        E 0 80 62 00
        E 180 90 55 60
        E 0 90 61 60
        E 60 80 55 00
        E 0 80 61 00
        E 180 90 49 60
        E 0 90 4b 60
        E 0 90 55 60
        E 0 90 57 60
        E 0 90 61 60
        E 0 90 62 60
        E 0 90 63 60
        E 60 80 49 00
        E 0 80 4b 00
        E 0 80 55 00
        E 0 80 57 00
        E 0 80 61 00
        E 0 80 62 00
        E 0 80 63 00
        E 60 90 74 60
        E 120 90 54 60
        E 0 90 56 60
        E 0 90 60 60
        E 0 90 61 60
        E 0 90 63 60
        E 720 80 54 00
        E 0 80 56 00
        E 120 80 60 00
        E 0 80 61 00
        E 0 80 63 00
        E 120 90 3e 60
        E 0 90 49 60
        E 0 90 4b 60
        E 0 90 55 60
        E 0 90 57 60
        E 0 90 61 60
        E 0 90 62 60
        E 0 90 63 60
        E 720 80 3e 00
        E 120 80 49 00
        E 0 80 4b 00
        E 120 80 55 00
        E 0 80 57 00
        E 120 80 61 00
        E 0 80 62 00
        E 0 80 63 00
        E 120 90 3e 60
        E 0 90 49 60
        E 0 90 4b 60
        E 0 90 55 60
        E 0 90 57 60
        E 0 90 61 60
        E 0 90 62 60
        E 0 90 63 60
        E 1440 80 3e 00
        E 120 80 49 00
        E 0 80 4b 00
        E 120 80 55 00
        E 0 80 57 00
        E 120 80 61 00
        E 0 80 62 00
        E 0 80 63 00
        E 120 90 40 60
        E 0 90 4b 60
        E 0 90 4c 60
        E 0 90 57 60
        E 0 90 58 60
        E 0 90 62 60
        E 0 90 63 60
        E 0 90 64 60
        E 1440 80 40 00
        E 120 80 4b 00
        E 0 80 4c 00
        E 120 80 57 00
        E 0 80 58 00
        E 120 80 62 00
        E 0 80 63 00
        E 0 80 64 00
        E 40 80 74 00
        E 80 90 3e 60
        E 0 90 4b 60
        E 0 90 57 60
        E 0 90 63 60
        E 120 80 3e 00
        E 0 80 4b 00
        E 0 80 57 00
        E 480 80 63 00
        E 120 90 57 60
        E 0 90 63 60
        E 60 80 57 00
        E 0 80 63 00
        E 180 90 3e 60
        E 0 90 4b 60
        E 0 90 58 60
        E 0 90 64 60
        E 0 90 65 60
        E 60 80 3e 00
        E 0 80 4b 00
        E 0 80 58 00
        E 0 80 64 00
        E 0 80 65 00
        E 180 90 57 60
        E 0 90 63 60
        E 0 90 65 60
        E 60 80 57 00
        E 0 80 63 00
        E 0 80 65 00
        E 180 90 3e 60
        E 0 90 4b 60
        E 0 90 57 60
        E 0 90 63 60
        E 60 80 3e 00
        E 0 80 4b 00
        E 0 80 57 00
        E 0 80 63 00
        E 180 90 55 60
        E 0 90 61 60
        E 60 80 55 00
        E 0 80 61 00
        E 180 90 3e 60
        E 0 90 4b 60
        E 0 90 57 60
        E 0 90 63 60
        E 120 80 3e 00
        E 0 80 4b 00
        E 0 80 57 00
        E 480 80 63 00
        E 120 90 4b 60
        E 0 90 58 60
        E 0 90 64 60
        E 840 80 4b 00
        E 120 80 58 00
        E 120 80 64 00
        E 120 90 3e 60
        E 0 90 4b 60
        E 0 90 57 60
        E 0 90 63 60
        E 120 80 3e 00
        E 0 80 4b 00
        E 0 80 57 00
        E 480 80 63 00
        E 120 90 57 60
        E 0 90 63 60
        E 60 80 57 00
        E 0 80 63 00
        E 180 90 3e 60
        E 0 90 4b 60
        E 0 90 58 60
        E 0 90 64 60
        E 0 90 65 60
        E 60 80 3e 00
        E 0 80 4b 00
        E 0 80 58 00
        E 0 80 64 00
        E 0 80 65 00
        E 180 90 57 60
        E 0 90 63 60
        E 0 90 65 60
        E 60 80 57 00
        E 0 80 63 00
        E 0 80 65 00
        E 180 90 3e 60
        E 0 90 4b 60
        E 0 90 57 60
        E 0 90 63 60
        E 60 80 3e 00
        E 0 80 4b 00
        E 0 80 57 00
        E 0 80 63 00
        E 180 90 55 60
        E 0 90 61 60
        E 60 80 55 00
        E 0 80 61 00
        E 180 90 3e 60
        E 0 90 4b 60
        E 0 90 57 60
        E 0 90 63 60
        E 120 80 3e 00
        E 0 80 4b 00
        E 0 80 57 00
        E 480 80 63 00
        E 120 90 4a 60
        E 0 90 56 60
        E 0 90 62 60
        E 840 80 4a 00
        E 120 80 56 00
        E 120 80 62 00
        E 120 90 3e 60
        E 0 90 4b 60
        E 0 90 57 60
        E 0 90 63 60
        E 120 80 3e 00
        E 0 80 4b 00
        E 0 80 57 00
        E 480 80 63 00
        E 120 90 57 60
        E 0 90 63 60
        E 60 80 57 00
        E 0 80 63 00
        E 180 90 3e 60
        E 0 90 4b 60
        E 0 90 58 60
        E 0 90 64 60
        E 0 90 65 60
        E 60 80 3e 00
        E 0 80 4b 00
        E 0 80 58 00
        E 0 80 64 00
        E 0 80 65 00
        E 180 90 57 60
        E 0 90 63 60
        E 0 90 65 60
        E 60 80 57 00
        E 0 80 63 00
        E 0 80 65 00
        E 180 90 3e 60
        E 0 90 4b 60
        E 0 90 57 60
        E 0 90 63 60
        E 60 80 3e 00
        E 0 80 4b 00
        E 0 80 57 00
        E 0 80 63 00
        E 180 90 55 60
        E 0 90 61 60
        E 60 80 55 00
        E 0 80 61 00
        E 180 90 3e 60
        E 0 90 4b 60
        E 0 90 57 60
        E 0 90 63 60
        E 120 80 3e 00
        E 0 80 4b 00
        E 0 80 57 00
        E 480 80 63 00
        E 120 90 4b 60
        E 0 90 58 60
        E 0 90 64 60
        E 840 80 4b 00
        E 120 80 58 00
        E 120 80 64 00
        E 120 90 3e 60
        E 0 90 4b 60
        E 0 90 57 60
        E 0 90 63 60
        E 60 80 3e 00
        E 0 80 4b 00
        E 0 80 57 00
        E 0 80 63 00
        E 660 90 57 60
        E 0 90 63 60
        E 60 80 57 00
        E 0 80 63 00
        E 180 90 3e 60
        E 0 90 4b 60
        E 0 90 58 60
        E 0 90 64 60
        E 0 90 65 60
        E 60 80 3e 00
        E 0 80 4b 00
        E 0 80 58 00
        E 0 80 64 00
        E 0 80 65 00
        E 180 90 57 60
        E 0 90 63 60
        E 0 90 65 60
        E 60 80 57 00
        E 0 80 63 00
        E 0 80 65 00
        E 180 90 3e 60
        E 0 90 4b 60
        E 0 90 57 60
        E 0 90 63 60
        E 60 80 3e 00
        E 0 80 4b 00
        E 0 80 57 00
        E 0 80 63 00
        E 180 90 55 60
        E 0 90 61 60
        E 60 80 55 00
        E 0 80 61 00
        E 180 90 3e 60
        E 0 90 4b 60
        E 0 90 57 60
        E 0 90 63 60
        E 120 80 3e 00
        E 0 80 4b 00
        E 420 80 57 00
        E 0 80 63 00
        E 120 90 4a 60
        E 0 90 56 60
        E 0 90 62 60
        E 120 80 4a 00
        E 480 80 56 00
        E 0 80 62 00
        E 120 90 3e 60
        E 0 90 4b 60
        E 0 90 57 60
        E 0 90 63 60
        E 1740 80 3e 00
        E 0 80 4b 00
        E 360 80 57 00
        E 0 80 63 00
        E 120 90 4b 60
        E 0 90 57 60
        E 60 80 4b 00
        E 0 80 57 00
        E 180 90 3e 60
        E 0 90 4b 60
        E 0 90 57 60
        E 0 90 63 60
        E 60 80 3e 00
        E 0 80 4b 00
        E 0 80 57 00
        E 0 80 63 00
        E 180 90 58 60
        E 60 80 58 00
        E 0 90 63 60
        E 60 80 63 00
        E 120 90 3e 60
        E 0 90 4b 60
        E 0 90 57 60
        E 60 80 3e 00
        E 0 80 4b 00
        E 0 80 57 00
        E 0 90 64 60
        E 60 80 64 00
        E 180 90 63 60
        E 60 80 63 00
        <X 480 0
          /wFbaWRsZV9yZWFsdGltZV0=
        >
        E 1728 b0 7b 00
        GUID {14D9E950-FB92-4048-8603-8FD02AE3B865}
        IGNTEMPO 0 120.00000000 4 4
        SRCCOLOR 1151
        VELLANE 132 38 60
        COLORMAP "C:\Program Files\REAPER (x64)\REAPER\Data\color_maps\rockband_guitarbass.png"
        TEXTSTRINGFILE "Text Events List.txt"
        CFGEDITVIEW 119491.227524 249.374964 0 12 0 -1 0
        CFGEDIT 1 1 0 0 0 1 1 1 1 1 1 0.12500000 -8 -8 1370 736 1 2 1 2 0.00000000 0 0 0 0 0.500000 1 0 1.000000 64
        KEYSNAP 0 0 "102034050607" 0 "Major"
        EVTFILTER 1 -1 -1 -1 -1 0 1 0 0 -1.00000000 -1.00000000
      >
    >
  >
  <TRACK '{2102AE6B-2D81-4CDC-8DB9-22383FA0EF2C}'
    NAME "vocals"
    PEAKCOL 16576
    BEAT -1
    AUTOMODE 0
    VOLPAN 1.00000000000000 0.00000000000000 -1.00000000000000 -1.00000000000000 1.00000000000000
    MUTESOLO 0 0 0
    IPHASE 0
    ISBUS 0 0
    BUSCOMP 0 0
    SHOWINMIX 1 0.666700 0.500000 1 0.500000 -1 -1 -1
    FREEMODE 0
    SEL 0
    REC 0 0 0 0 0 0 0
    VU 2
    TRACKHEIGHT 426 0
    INQ 0 0 0 0.5000000000 100 0 0 100
    NCHAN 2
    FX 1
    TRACKID {2102AE6B-2D81-4CDC-8DB9-22383FA0EF2C}
    PERF 0
    MIDIOUT -1
    MAINSEND 1 0
    <ITEM
      POSITION 2.43325234856369
      SNAPOFFS 0.00000000000000
      LENGTH 93.92814575075352
      LOOP 0
      ALLTAKES 0
      SEL 0
      FADEIN 1 0.000000 0.000000 1 0
      FADEOUT 1 0.000000 0.000000 1 0
      MUTE 0
      IGUID {993FDABD-3921-4442-B5E2-3330E0878C34}
      IID 157
      NAME "vocals.wav"
      VOLPAN 1.000000 0.000000 1.000000 -1.000000
      SOFFS 0.40568644879298
      PLAYRATE 1.00000000000000 1 0.00000000000000 -1
      CHANMODE 0
      GUID {5927A7E1-E371-45D7-91CB-61424FA0BC2B}
      <SOURCE WAVE
        FILE "vocals.wav"
      >
    >
  >
  <TRACK '{3D1C3538-7337-455F-A19E-F842D8F64FEF}'
    NAME "PART VOCALS"
    PEAKCOL 16810239
    BEAT -1
    AUTOMODE 0
    VOLPAN 0.99997469241676 0.00000000000000 -1.00000000000000 -1.00000000000000 1.00000000000000
    MUTESOLO 0 2 0
    IPHASE 0
    ISBUS 0 0
    BUSCOMP 1 0
    SHOWINMIX 1 0.666700 0.500000 1 0.500000 -1 -1 -1
    FREEMODE 0
    SEL 0
    REC 0 4096 1 7 0 0 0
    TRACKHEIGHT 0 0
    INQ 0 0 0 0.5000000000 100 0 0 100
    NCHAN 2
    FX 1
    TRACKID {3D1C3538-7337-455F-A19E-F842D8F64FEF}
    PERF 0
    MIDIOUT -1
    <MIDINOTENAMES
      0 105 "Phrase Marker"
      0 84 "C5"
      0 36 "C1"
      0 83 "B"
      0 82 "Bb"
      0 81 "A"
      0 80 "G#"
      0 79 "G"
      0 78 "F#"
      0 77 "F"
      0 76 "E"
      0 75 "Eb"
      0 74 "D"
      0 73 "C#"
      0 72 "C4"
      0 71 "B"
      0 70 "Bb"
      0 69 "A"
      0 68 "G#"
      0 67 "G"
      0 66 "F#"
      0 65 "F"
      0 64 "E"
      0 63 "Eb"
      0 62 "D"
      0 61 "C#"
      0 60 "C3"
      0 59 "B"
      0 58 "Bb"
      0 57 "A"
      0 56 "G#"
      0 55 "G"
      0 54 "F#"
      0 53 "F"
      0 52 "E"
      0 51 "Eb"
      0 50 "D"
      0 49 "C#"
      0 48 "C2"
      0 47 "B"
      0 46 "Bb"
      0 45 "A"
      0 44 "G#"
      0 43 "G"
      0 42 "F#"
      0 41 "F"
      0 40 "E"
      0 39 "Eb"
      0 38 "D"
      0 37 "C#"
      0 97 "Not Displayed Percussion"
      0 96 "Displayed Percussion"
      0 104 "----"
      0 95 "----"
      0 116 "OVERDRIVE"
      0 115 "----"
      0 0 "Range Shift"
      0 1 "Lyric Shift"
    >
    MAINSEND 1 0
    <FXCHAIN
      WNDRECT 581 377 716 493
      SHOW 0
      LASTSEL 1
      DOCKED 0
      BYPASS 0 0
      <JS "IX/MIDI_Tool II" ""
        0.000000 85.000000 127.000000 0.000000 0.000000 0.000000 100.000000 0.000000 0.000000 127.000000 0.000000 0.000000 1.000000 0.000000 0.000000 - - - - - - - - - - - - - - - - - - - - - - - - - - - - - - - - - - - - - - - - - - - - - - - - - 
      >
      FLOATPOS 0 0 0 0
      FXID {CA785021-0433-497E-9A6C-EE23A1BC21B0}
      WAK 0
      BYPASS 0 0
      <VST "VSTi: ReaSynth (Cockos)" "reasynth.dll" 0 ""
        eXNlcu9e7f4AAAAAAgAAAAEAAAAAAAAAAgAAAAAAAAA4AAAAAAAAAA==
        AAAAAO++rd4N8K3eppvEOxe30ToAAAAAAAAAAAAAAACa9Q8/6WeIPQ==
        AAAAAAAAAD8AAIA/AAAAAAAAAD8AAAAAAAA=
      >
      FLOATPOS 32 32 338 405
      FXID {F124DD19-73B4-4CD5-B659-E246F2A3D0B3}
      WAK 0
    >
    <ITEM
      POSITION 0.00000000000000
      SNAPOFFS 0.00000000000000
      LENGTH 97.00221379299322
      LOOP 0
      ALLTAKES 0
      SEL 0
      FADEIN 1 0.000000 0.000000 1 0
      FADEOUT 1 0.000000 0.000000 1 0
      MUTE 0
      IGUID {9C9617EC-369A-41B9-80F6-31F4222F13F6}
      IID 10
      NAME "PART VOCALS"
      VOLPAN 1.000000 0.000000 1.000000 -1.000000
      SOFFS 0.00000000000000 0.00000000000000
      PLAYRATE 1.00000000000000 1 0.00000000000000 -65536
      CHANMODE 0
      GUID {8E872349-00D8-4243-95D7-0B92852E4EE5}
      <SOURCE MIDI
        HASDATA 1 480 QN
        POOLEDEVTS {C46A1947-01FB-4B06-8C3E-EBBF471D77B5}
        <X 0 0
          /wNQQVJUIFZPQ0FMUw==
        >
        <X 3840 0
          /wFbaWRsZV0=
        >
        <X 21120 0
          /wFbcGxheV0=
        >
        E 1471 90 69 60
        <X 144 0
          /wVTw6Q=
        >
        E 0 90 38 60
        E 188 80 38 00
        <X 91 0
          /wVuw6Qt
        >
        E 0 90 3b 7f
        E 219 80 3b 00
        <X 57 0
          /wVldC0=
        >
        E 0 90 3d 7f
        E 240 80 3d 00
        <X 216 0
          /wVrw7Y=
        >
        E 0 90 3b 7f
        E 86 80 3b 00
        <X 148 0
          /wV0YWkt
        >
        E 0 90 3b 7f
        E 485 80 3b 00
        <X 42 0
          /wVhbg==
        >
        E 0 90 3b 7f
        E 83 80 3b 00
        <X 229 0
          /wV1dS0=
        >
        E 0 90 3b 7f
        E 158 80 3b 00
        <X 60 0
          /wUr
        >
        E 0 90 3d 7f
        E 143 80 3d 00
        <X 56 0
          /wVkZW4=
        >
        E 0 90 3b 7f
        E 396 80 3b 00
        E 125 80 69 00
        E 602 90 69 60
        <X 44 0
          /wVqYQ==
        >
        E 0 90 3b 7f
        E 106 80 3b 00
        <X 201 0
          /wV0dW4t
        >
        E 0 90 38 7f
        E 295 80 38 00
        <X 43 0
          /wVuaXMt
        >
        E 0 90 38 7f
        E 231 80 38 00
        <X 87 0
          /wV0YXQt
        >
        E 0 90 3b 7f
        E 127 80 3b 00
        <X 116 0
          /wVrbw==
        >
        E 0 90 38 7f
        E 77 80 38 00
        <X 141 0
          /wV0YWkt
        >
        E 0 90 3b 7f
        E 424 80 3b 00
        <X 85 0
          /wV0YS0=
        >
        E 0 90 3b 7f
        E 147 80 3b 00
        <X 121 0
          /wV2dXUt
        >
        E 0 90 3d 7f
        E 354 80 3d 00
        <X 50 0
          /wVkZW4=
        >
        E 0 90 3d 7f
        E 125 80 3d 00
        <X 28 0
          /wUr
        >
        E 0 90 40 7f
        E 328 80 40 00
        E 98 80 69 00
        E 149 90 69 60
        <X 169 0
          /wVTZQ==
        >
        E 0 90 36 7f
        E 220 80 36 00
        <X 140 0
          /wVwYWwt
        >
        E 0 90 36 7f
        E 167 80 36 00
        <X 71 0
          /wVqYXMt
        >
        E 0 90 38 7f
        E 156 80 38 00
        <X 116 0
          /wV0dXU=
        >
        E 0 90 36 7f
        E 241 80 36 00
        <X 105 0
          /wUr
        >
        E 0 90 33 7f
        E 482 80 33 00
        E 205 80 69 00
        E 208 90 69 60
        E 0 90 74 60
        <X 104 0
          /wVueXQ=
        >
        E 0 90 34 7f
        E 156 80 34 00
        <X 127 0
          /wVrYW5zLQ==
        >
        E 0 90 37 7f
        E 373 80 37 00
        <X 91 0
          /wVzYW0t
        >
        E 0 90 37 7f
        E 213 80 37 00
        <X 55 0
          /wVtZQ==
        >
        E 0 90 35 7f
        E 133 80 35 00
        <X 83 0
          /wVzZWlrLQ==
        >
        E 0 90 37 7f
        E 376 80 37 00
        <X 145 0
          /wVrYWkt
        >
        E 0 90 37 7f
        E 194 80 37 00
        <X 54 0
          /wVsdXVu
        >
        E 0 90 36 7f
        E 211 80 36 00
        <X 94 0
          /wV0dXU=
        >
        E 0 90 37 7f
        E 479 80 37 00
        <X 142 0
          /wUr
        >
        E 0 90 33 7f
        E 185 80 33 00
        E 375 80 69 00
        E 0 80 74 00
        E 2219 90 69 60
        <X 387 0
          /wVZcy0=
        >
        E 0 90 37 7f
        E 85 80 37 00
        <X 48 0
          /wUr
        >
        E 0 90 39 7f
        E 125 80 39 00
        <X 169 0
          /wV0w6Qt
        >
        E 0 90 3b 7f
        E 188 80 3b 00
        <X 63 0
          /wV2w6TDpG4t
        >
        E 0 90 3b 7f
        E 177 80 3b 00
        <X 48 0
          /wVzw6Q=
        >
        E 0 90 3b 7f
        E 126 80 3b 00
        <X 180 0
          /wVrdW4=
        >
        E 0 90 3c 7f
        E 334 80 3c 00
        <X 71 0
          /wV2b2k=
        >
        E 0 90 39 7f
        E 206 80 39 00
        <X 82 0
          /wVsdW90LQ==
        >
        E 0 90 3b 7f
        E 129 80 3b 00
        <X 40 0
          /wUr
        >
        E 0 90 3e 7f
        E 160 80 3e 00
        <X 177 0
          /wV0YWE=
        >
        E 0 90 3b 7f
        E 542 80 3b 00
        E 182 80 69 00
        E 240 90 69 60
        <X 143 0
          /wVTZQ==
        >
        E 0 90 39 7f
        E 146 80 39 00
        <X 162 0
          /wVwYWwt
        >
        E 0 90 39 7f
        E 381 80 39 00
        <X 115 0
          /wVraW4t
        >
        E 0 90 39 7f
        E 127 80 39 00
        <X 50 0
          /wVub24=
        >
        E 0 90 3b 7f
        E 164 80 3b 00
        <X 98 0
          /wVwYXIt
        >
        E 0 90 3b 7f
        E 372 80 3b 00
        <X 62 0
          /wVoYWltLQ==
        >
        E 0 90 38 7f
        E 217 80 38 00
        <X 62 0
          /wVtYW4=
        >
        E 0 90 3b 7f
        E 135 80 3b 00
        <X 113 0
          /wV0dW90LQ==
        >
        E 0 90 3d 7f
        E 332 80 3d 00
        <X 157 0
          /wV0YWE=
        >
        E 0 90 3d 7f
        E 180 80 3d 00
        <X 59 0
          /wUr
        >
        E 0 90 3f 7f
        E 348 80 3f 00
        E 84 80 69 00
        E 199 90 69 60
        <X 65 0
          /wVTZQ==
        >
        E 0 90 38 7f
        E 190 80 38 00
        <X 93 0
          /wVvbi0=
        >
        E 0 90 36 7f
        E 171 80 36 00
        <X 48 0
          /wVuaXMt
        >
        E 0 90 36 7f
        E 202 80 36 00
        <X 87 0
          /wV0dXU=
        >
        E 0 90 36 7f
        E 292 80 36 00
        <X 95 0
          /wUr
        >
        E 0 90 34 7f
        E 452 80 34 00
        E 125 80 69 00
        E 270 90 69 60
        E 0 90 74 60
        <X 118 0
          /wVueXQ=
        >
        E 0 90 34 7f
        E 123 80 34 00
        <X 126 0
          /wVrYW5zLQ==
        >
        E 0 90 34 7f
        E 368 80 34 00
        <X 57 0
          /wVzYW0t
        >
        E 0 90 37 7f
        E 221 80 37 00
        <X 46 0
          /wVtZQ==
        >
        E 0 90 36 7f
        E 87 80 36 00
        <X 156 0
          /wVzZWlrLQ==
        >
        E 0 90 36 7f
        E 177 80 36 00
        <X 50 0
          /wUr
        >
        E 0 90 38 7f
        E 139 80 38 00
        <X 183 0
          /wVrYWkt
        >
        E 0 90 37 7f
        E 146 80 37 00
        <X 47 0
          /wVsdXVu
        >
        E 0 90 36 7f
        E 244 80 36 00
        <X 88 0
          /wV0dXU=
        >
        E 0 90 36 7f
        E 418 80 36 00
        <X 81 0
          /wUr
        >
        E 0 90 33 7f
        E 490 80 33 00
        E 222 80 69 00
        E 0 80 74 00
        E 1818 90 69 60
        <X 275 0
          /wVKYQ==
        >
        E 0 90 39 7f
        E 80 80 39 00
        <X 44 0
          /wVzaWwt
        >
        E 0 90 3b 7f
        E 274 80 3b 00
        <X 46 0
          /wVsb2lu
        >
        E 0 90 3b 7f
        E 158 80 3b 00
        <X 97 0
          /wVraXIt
        >
        E 0 90 40 7f
        E 384 80 40 00
        <X 111 0
          /wVrYWFu
        >
        E 0 90 3f 7f
        E 361 80 3f 00
        <X 103 0
          /wV2YS0=
        >
        E 0 90 3d 7f
        E 233 80 3d 00
        <X 38 0
          /wVsb24=
        >
        E 0 90 3b 7f
        E 255 80 3b 00
        <X 131 0
          /wVuw6TDpHQ=
        >
        E 0 90 38 7f
        E 744 80 38 00
        E 131 80 69 00
        E 381 90 69 60
        <X 182 0
          /wVTZQ==
        >
        E 0 90 38 7f
        E 214 80 38 00
        <X 96 0
          /wV2w6Qt
        >
        E 0 90 36 7f
        E 155 80 36 00
        <X 54 0
          /wVsw6RoLQ==
        >
        E 0 90 36 7f
        E 179 80 36 00
        <X 110 0
          /wV0w6TDpA==
        >
        E 0 90 34 7f
        E 904 80 34 00
        E 124 80 69 00
        E 76 90 69 60
        <X 164 0
          /wVow6Qt
        >
        E 0 90 37 7f
        E 222 80 37 00
        <X 88 0
          /wV2aS0=
        >
        E 0 90 39 7f
        E 141 80 39 00
        <X 78 0
          /wXDpMOk
        >
        E 0 90 39 7f
        E 300 80 39 00
        <X 64 0
          /wUr
        >
        E 0 90 38 7f
        E 579 80 38 00
        E 131 80 69 00
        E 133 90 69 60
        E 0 90 74 60
        <X 125 0
          /wVKYQ==
        >
        E 0 90 39 7f
        E 112 80 39 00
        <X 93 0
          /wVoYWgt
        >
        E 0 90 3b 7f
        E 193 80 3b 00
        <X 84 0
          /wVtbw==
        >
        E 0 90 3b 7f
        E 155 80 3b 00
        <X 81 0
          /wV1dS0=
        >
        E 0 90 40 7f
        E 398 80 40 00
        <X 97 0
          /wVkZW4=
        >
        E 0 90 3f 7f
        E 274 80 3f 00
        <X 147 0
          /wVtdW8t
        >
        E 0 90 3d 7f
        E 233 80 3d 00
        <X 61 0
          /wVkb24=
        >
        E 0 90 3b 7f
        E 217 80 3b 00
        <X 99 0
          /wVzYWE=
        >
        E 0 90 38 7f
        E 261 80 38 00
        <X 61 0
          /wUr
        >
        E 0 90 38 7f
        E 550 80 38 00
        E 43 80 69 00
        E 0 80 74 00
        E 645 90 69 60
        <X 196 0
          /wVTZQ==
        >
        E 0 90 39 7f
        E 180 80 39 00
        <X 150 0
          /wV1aC0=
        >
        E 0 90 39 7f
        E 310 80 39 00
        <X 156 0
          /wVtYS0=
        >
        E 0 90 38 7f
        E 172 80 38 00
        <X 69 0
          /wV0ZW4=
        >
        E 0 90 3a 7f
        E 153 80 3a 00
        <X 81 0
          /wV0YWlzLQ==
        >
        E 0 90 3c 7f
        E 376 80 3c 00
        <X 166 0
          /wV0ZWwt
        >
        E 0 90 39 7f
        E 150 80 39 00
        <X 57 0
          /wVsZW4=
        >
        E 0 90 3c 7f
        E 129 80 3c 00
        <X 124 0
          /wVrYW1wLQ==
        >
        E 0 90 3c 7f
        E 348 80 3c 00
        <X 127 0
          /wVwYWlsLQ==
        >
        E 0 90 3c 7f
        E 174 80 3c 00
        <X 80 0
          /wVsZW4=
        >
        E 0 90 3c 7f
        E 153 80 3c 00
        <X 109 0
          /wV2b2l0LQ==
        >
        E 0 90 3c 7f
        E 169 80 3c 00
        <X 82 0
          /wUr
        >
        E 0 90 3e 7f
        E 593 80 3e 00
        <X 287 0
          /wV0YWE=
        >
        E 0 90 39 7f
        E 297 80 39 00
        <X 106 0
          /wUr
        >
        E 0 90 3b 7f
        E 1687 80 3b 00
        E 138 80 69 00
        E 1132 90 69 60
        <X 247 0
          /wVNZQ==
        >
        E 0 90 3e 7f
        E 123 80 3e 00
        <X 166 0
          /wV5aC0=
        >
        E 0 90 40 7f
        E 530 80 40 00
        <X 134 0
          /wVkZXMt
        >
        E 0 90 43 7f
        E 484 80 43 00
        <X 96 0
          /wVzw6Q=
        >
        E 0 90 43 7f
        E 496 80 43 00
        <X 145 0
          /wV1aC0=
        >
        E 0 90 43 7f
        E 317 80 43 00
        <X 112 0
          /wVrYQ==
        >
        E 0 90 43 7f
        E 198 80 43 00
        <X 95 0
          /wVrYXIt
        >
        E 0 90 43 7f
        E 365 80 43 00
        <X 104 0
          /wVrb2kt
        >
        E 0 90 43 7f
        E 131 80 43 00
        <X 100 0
          /wV0ZS0=
        >
        E 0 90 43 7f
        E 152 80 43 00
        <X 125 0
          /wV0YWFu
        >
        E 0 90 43 7f
        E 738 80 43 00
        E 230 80 69 00
        E 542 90 69 60
        <X 126 0
          /wVWb2kt
        >
        E 0 90 43 7f
        E 196 80 43 00
        <X 69 0
          /wVtYXQ=
        >
        E 0 90 43 7f
        E 156 80 43 00
        <X 121 0
          /wVwYS0=
        >
        E 0 90 43 7f
        E 235 80 43 00
        <X 65 0
          /wVodXUt
        >
        E 0 90 43 7f
        E 332 80 43 00
        <X 53 0
          /wVkZW4=
        >
        E 0 90 43 7f
        E 267 80 43 00
        <X 202 0
          /wV0dS0=
        >
        E 0 90 43 7f
        E 174 80 43 00
        <X 73 0
          /wVoby0=
        >
        E 0 90 43 7f
        E 130 80 43 00
        <X 129 0
          /wV0YWFu
        >
        E 0 90 43 7f
        E 693 80 43 00
        E 81 80 69 00
        E 105 90 69 60
        E 0 90 74 60
        <X 67 0
          /wVQZWwt
        >
        E 0 90 40 7f
        E 357 80 40 00
        <X 86 0
          /wVrby0=
        >
        E 0 90 3f 7f
        E 219 80 3f 00
        <X 54 0
          /wVh
        >
        E 0 90 3d 7f
        E 156 80 3d 00
        <X 80 0
          /wV0dW4t
        >
        E 0 90 3a 7f
        E 351 80 3a 00
        <X 82 0
          /wVuZS0=
        >
        E 0 90 38 7f
        E 178 80 38 00
        <X 76 0
          /wV0YQ==
        >
        E 0 90 3b 7f
        E 167 80 3b 00
        <X 93 0
          /wVlaQ==
        >
        E 0 90 3d 7f
        E 600 80 3d 00
        E 112 80 69 00
        E 0 80 74 00
        E 214 90 69 60
        <X 54 0
          /wVLdW4=
        >
        E 0 90 3d 7f
        E 105 80 3d 00
        <X 62 0
          /wVyb2gt
        >
        E 0 90 40 7f
        E 198 80 40 00
        <X 111 0
          /wVrZXUt
        >
        E 0 90 3d 7f
        E 143 80 3d 00
        <X 94 0
          /wV0ZW0t
        >
        E 0 90 40 7f
        E 140 80 40 00
        <X 79 0
          /wVtZQ==
        >
        E 0 90 3d 7f
        E 163 80 3d 00
        <X 91 0
          /wVQaS0=
        >
        E 0 90 40 7f
        E 175 80 40 00
        <X 61 0
          /wVtZXkt
        >
        E 0 90 3d 7f
        E 158 80 3d 00
        <X 55 0
          /wVkZW4=
        >
        E 0 90 40 7f
        E 155 80 40 00
        <X 111 0
          /wV2YWwt
        >
        E 0 90 44 7f
        E 426 80 44 00
        <X 98 0
          /wV0aS0=
        >
        E 0 90 44 7f
        E 221 80 44 00
        <X 93 0
          /wVhYXQ=
        >
        E 0 90 42 7f
        E 253 80 42 00
        <X 140 0
          /wVqbw==
        >
        E 0 90 40 7f
        E 189 80 40 00
        <X 67 0
          /wV2ZWk=
        >
        E 0 90 42 7f
        E 456 80 42 00
        E 40 80 69 00
        E 96 90 69 60
        <X 126 0
          /wVUYWlzLQ==
        >
        E 0 90 40 7f
        E 601 80 40 00
        <X 144 0
          /wV0ZWwt
        >
        E 0 90 40 7f
        E 561 80 40 00
        <X 108 0
          /wVsZW4=
        >
        E 0 90 42 7f
        E 400 80 42 00
        <X 98 0
          /wVrw6R5
        >
        E 0 90 42 7f
        E 588 80 42 00
        <X 168 0
          /wVwdW8t
        >
        E 0 90 42 7f
        E 382 80 42 00
        <X 78 0
          /wVsdXMt
        >
        E 0 90 42 7f
        E 169 80 42 00
        <X 66 0
          /wV0YS0=
        >
        E 0 90 42 7f
        E 172 80 42 00
        <X 65 0
          /wVtYWFu
        >
        E 0 90 40 7f
        E 663 80 40 00
        E 136 80 69 00
        E 641 90 69 60
        <X 176 0
          /wVNYWEt
        >
        E 0 90 40 7f
        E 222 80 40 00
        <X 90 0
          /wV0YQ==
        >
        E 0 90 40 7f
        E 144 80 40 00
        <X 78 0
          /wVoeS0=
        >
        E 0 90 44 7f
        E 240 80 44 00
        <X 47 0
          /wV2eXkt
        >
        E 0 90 43 7f
        E 342 80 43 00
        <X 44 0
          /wVkZW4=
        >
        E 0 90 42 7f
        E 173 80 42 00
        <X 85 0
          /wVyYS0=
        >
        E 0 90 42 7f
        E 162 80 42 00
        <X 102 0
          /wVrZW4t
        >
        E 0 90 42 7f
        E 122 80 42 00
        <X 90 0
          /wV0YS0=
        >
        E 0 90 40 7f
        E 175 80 40 00
        <X 48 0
          /wVtYWFu
        >
        E 0 90 3f 7f
        E 592 80 3f 00
        E 119 80 69 00
        E 127 90 69 60
        <X 113 0
          /wVLYW5zLQ==
        >
        E 0 90 40 60
        E 245 80 40 00
        <X 154 0
          /wVzYW0t
        >
        E 0 90 3f 60
        E 242 80 3f 00
        <X 75 0
          /wVtZQ==
        >
        E 0 90 3d 60
        E 200 80 3d 00
        <X 60 0
          /wVvbg==
        >
        E 0 90 3b 60
        E 293 80 3b 00
        <X 201 0
          /wVwZS0=
        >
        E 0 90 40 60
        E 144 80 40 00
        <X 118 0
          /wVsby0=
        >
        E 0 90 42 60
        E 130 80 42 00
        <X 112 0
          /wV0b24=
        >
        E 0 90 42 60
        E 283 80 42 00
        <X 58 0
          /wUr
        >
        E 0 90 40 60
        E 428 80 40 00
        E 148 80 69 00
        E 163 90 69 60
        <X 115 0
          /wVEaS0=
        >
        E 0 90 40 60
        E 1872 80 40 00
        <X 117 0
          /wVnaS0=
        >
        E 0 90 42 60
        E 1765 80 42 00
        <X 119 0
          /wVtb24=
        >
        E 0 90 44 60
        E 5744 80 44 00
        E 243 80 69 00
        <X 237 0
          /wFbaWRsZV9yZWFsdGltZV0=
        >
        E 14257 b0 7b 00
        GUID {C9A1A4CA-4224-4672-91C0-075BEB2A8650}
        IGNTEMPO 0 120.00000000 4 4
        SRCCOLOR 1286
        VELLANE 132 128 128
        COLORMAP "C:\Users\me\AppData\Roaming\REAPER\Data\color_maps\rockband_vox-other.png"
        TEXTSTRINGFILE "Text Events List.txt"
        CFGEDITVIEW -41140.788263 11.499245 20 12 0 0 0
        CFGEDIT 1 1 0 0 1 1 1 1 1 0 1 0.06250000 75 0 1611 691 1 2 1 2 0.00000000 0 0 0 0 0.500000 1 0 1.000000 64
        KEYSNAP 0 8 "102034050607" 0 "Major"
        EVTFILTER 0 -1 -1 -1 -1 0 1 0 0 -1.00000000 -1.00000000
      >
    >
  >
  <TRACK '{E60BCF67-80FD-4554-840A-5B0B5C2E06A0}'
    NAME "HARM1"
    PEAKCOL 24624127
    BEAT -1
    AUTOMODE 0
    VOLPAN 1.00000000000000 0.00000000000000 -1.00000000000000 -1.00000000000000 1.00000000000000
    MUTESOLO 1 0 0
    IPHASE 0
    ISBUS 0 0
    BUSCOMP 0 0
    SHOWINMIX 1 0.666700 0.500000 1 0.500000 -1 -1 -1
    FREEMODE 0
    SEL 0
    REC 0 0 0 0 0 0 0
    TRACKHEIGHT 0 0
    INQ 0 0 0 0.5000000000 100 0 0 100
    NCHAN 2
    FX 1
    TRACKID {E60BCF67-80FD-4554-840A-5B0B5C2E06A0}
    PERF 0
    MIDIOUT -1
    <MIDINOTENAMES
      0 0 "Range Shift"
      0 1 "Lyric Shift"
      0 36 "C1"
      0 37 "C#"
      0 38 "D"
      0 39 "Eb"
      0 40 "E"
      0 41 "F"
      0 42 "F#"
      0 43 "G"
      0 44 "G#"
      0 45 "A"
      0 46 "Bb"
      0 47 "B"
      0 48 "C2"
      0 49 "C#"
      0 50 "D"
      0 51 "Eb"
      0 52 "E"
      0 53 "F"
      0 54 "F#"
      0 55 "G"
      0 56 "G#"
      0 57 "A"
      0 58 "Bb"
      0 59 "B"
      0 60 "C3"
      0 61 "C#"
      0 62 "D"
      0 63 "Eb"
      0 64 "E"
      0 65 "F"
      0 66 "F#"
      0 67 "G"
      0 68 "G#"
      0 69 "A"
      0 70 "Bb"
      0 71 "B"
      0 72 "C4"
      0 73 "C#"
      0 74 "D"
      0 75 "Eb"
      0 76 "E"
      0 77 "F"
      0 78 "F#"
      0 79 "G"
      0 80 "G#"
      0 81 "A"
      0 82 "Bb"
      0 83 "B"
      0 84 "C5"
      0 95 "----"
      0 96 "Displayed Percussion"
      0 97 "Not Displayed Percussion"
      0 104 "----"
      0 105 "Phrase Marker"
      0 115 "----"
      0 116 "OVERDRIVE"
    >
    MAINSEND 1 0
    <FXCHAIN
      WNDRECT 786 197 716 493
      SHOW 0
      LASTSEL 1
      DOCKED 0
      BYPASS 0 0
      <JS "IX/MIDI_Tool II" ""
        0.000000 85.000000 127.000000 0.000000 0.000000 0.000000 100.000000 0.000000 0.000000 127.000000 0.000000 0.000000 1.000000 0.000000 0.000000 - - - - - - - - - - - - - - - - - - - - - - - - - - - - - - - - - - - - - - - - - - - - - - - - - 
      >
      FLOATPOS 0 0 0 0
      FXID {2E79298C-F056-441C-A64B-722C2599E1AA}
      WAK 0
      BYPASS 0 0
      <VST "VSTi: ReaSynth (Cockos)" "reasynth.dll" 0 ""
        eXNlcu9e7f4AAAAAAgAAAAEAAAAAAAAAAgAAAAAAAAA4AAAAAAAAAA==
        AAAAAO++rd4N8K3eppvEOxe30ToAAAAAAAAAAAAAAACa9Q8/6WeIPQ==
        AAAAAAAAAD8AAIA/AAAAAAAAAD8AUHJvZ3JhbSAxAAAAAAA=
      >
      FLOATPOS 0 0 0 0
      FXID {A391E59B-3475-47CA-9BDB-E03F3B8FF2C4}
      WAK 0
    >
    <ITEM
      POSITION 0.00000000000000
      SNAPOFFS 0.00000000000000
      LENGTH 96.84220114785212
      LOOP 0
      ALLTAKES 0
      SEL 0
      FADEIN 1 0.000000 0.000000 1 0
      FADEOUT 1 0.000000 0.000000 1 0
      MUTE 0
      IGUID {FE84F6DE-5A5E-43D1-BFBE-4632BD10F85F}
      IID 11
      NAME "HARM1 untitled MIDI item"
      VOLPAN 1.000000 0.000000 1.000000 -1.000000
      SOFFS 0.00000000000000 0.00000000000000
      PLAYRATE 1.00000000000000 1 0.00000000000000 -1
      CHANMODE 0
      GUID {188D8841-6EF7-4ADC-A9DC-A83C2882A63B}
      <SOURCE MIDI
        HASDATA 1 480 QN
        POOLEDEVTS {3F28419E-7826-45B9-B303-B7DCEC7E8B1A}
        <X 0 0
          /wNIQVJNMQ==
        >
        E 127848 b0 7b 00
        GUID {D78D8959-2AD8-48C0-8F6C-4A6670952331}
        IGNTEMPO 0 120.00000000 4 4
        SRCCOLOR 1153
        VELLANE 132 128 60
        COLORMAP "C:\Program Files\REAPER (x64)\REAPER\Data\color_maps\rockband_guitarbass.png"
        TEXTSTRINGFILE "C:\Program Files\REAPER\Data\Text_Strings\Text Events List.txt"
        CFGEDITVIEW -605.860027 82.395269 0 12 0 0 0
        CFGEDIT 1 1 0 1 1 1 1 1 1 1 1 0.06250000 -8 -8 1374 736 1 2 1 2 0.00000000 0 0 0 0 0.500000 1 0 1.000000 64
        KEYSNAP 0 0 "102034050607" 0 "Major"
        EVTFILTER 1 -1 -1 -1 -1 0 1 0 0 -1.00000000 -1.00000000
      >
    >
  >
  <TRACK '{4A30D2A4-111B-40E3-8633-0926E85E641C}'
    NAME "DRYVOX1"
    PEAKCOL 16576
    BEAT -1
    AUTOMODE 0
    VOLPAN 1.00000000000000 0.00000000000000 -1.00000000000000 -1.00000000000000 1.00000000000000
    MUTESOLO 1 2 0
    IPHASE 0
    ISBUS 0 0
    BUSCOMP 0 0
    SHOWINMIX 1 0.666700 0.500000 1 0.500000 -1 -1 -1
    FREEMODE 0
    SEL 0
    REC 0 0 0 0 0 0 0
    TRACKHEIGHT 0 0
    INQ 0 0 0 0.5000000000 100 0 0 100
    NCHAN 2
    FX 1
    TRACKID {4A30D2A4-111B-40E3-8633-0926E85E641C}
    PERF 0
    MIDIOUT -1
    MAINSEND 1 0
    <FXCHAIN
      SHOW 0
      LASTSEL 0
      DOCKED 0
      BYPASS 0 0
      <VST "VST: ReaGate (Cockos)" "reagate.dll" 0 ""
        dGdlcu9e7f4EAAAAAQAAAAAAAAACAAAAAAAAAAQAAAAAAAAACAAAAA==
        AAAAAAIAAAABAAAAAAAAAAIAAAAAAAAAVAAAAAAAAAAAABAA776t3g==
        DfCt3pzRBzOmm8Q7CtejPAAAAAAAAAAAAACAPwAAAAAAAAAAAAAAAA==
        nNEHMx5Ucz+c0QczAACAPwAAAAAAAAAAAAAAACwWCz8AAAAAAAAAAA==
        AFByb2dyYW0gMQAQAAAA
      >
      FLOATPOS 859 184 511 385
      FXID {BF545B5B-7DD0-4B4C-AC52-F095A552DA08}
      WAK 0
    >
    <ITEM
      POSITION 2.43325234856369
      SNAPOFFS 0.00000000000000
      LENGTH 93.92814575075352
      LOOP 0
      ALLTAKES 0
      SEL 0
      FADEIN 1 0.000000 0.000000 1 0
      FADEOUT 1 0.000000 0.000000 1 0
      MUTE 0
      IGUID {96F9868B-2B02-4B27-ADEA-E7AF3DEBDDB2}
      IID 157
      NAME "vocals.wav"
      VOLPAN 1.000000 0.000000 1.000000 -1.000000
      SOFFS 0.40568644879298
      PLAYRATE 1.00000000000000 1 0.00000000000000 -1
      CHANMODE 0
      GUID {A8650A3E-3570-46E6-B8F2-F30A9BC13097}
      <SOURCE WAVE
        FILE "vocals.wav"
      >
    >
  >
  <TRACK '{983C7D04-DAF6-462A-B5E6-64213F29FBA0}'
    NAME "HARM2"
    PEAKCOL 24624127
    BEAT -1
    AUTOMODE 0
    VOLPAN 1.00497380427334 0.00000000000000 -1.00000000000000 -1.00000000000000 1.00000000000000
    MUTESOLO 1 0 0
    IPHASE 0
    ISBUS 0 0
    BUSCOMP 0 0
    SHOWINMIX 1 0.666700 0.500000 1 0.500000 -1 -1 -1
    FREEMODE 0
    SEL 0
    REC 0 0 0 0 0 0 0
    TRACKHEIGHT 0 0
    INQ 0 0 0 0.5000000000 100 0 0 100
    NCHAN 2
    FX 1
    TRACKID {983C7D04-DAF6-462A-B5E6-64213F29FBA0}
    PERF 0
    MIDIOUT -1
    <MIDINOTENAMES
      0 0 "Range Shift"
      0 1 "Lyric Shift"
      0 35 "----"
      0 36 "C1"
      0 37 "C#"
      0 38 "D"
      0 39 "Eb"
      0 40 "E"
      0 41 "F"
      0 42 "F#"
      0 43 "G"
      0 44 "G#"
      0 45 "A"
      0 46 "Bb"
      0 47 "B"
      0 48 "C2"
      0 49 "C#"
      0 50 "D"
      0 51 "Eb"
      0 52 "E"
      0 53 "F"
      0 54 "F#"
      0 55 "G"
      0 56 "G#"
      0 57 "A"
      0 58 "Bb"
      0 59 "B"
      0 60 "C3"
      0 61 "C#"
      0 62 "D"
      0 63 "Eb"
      0 64 "E"
      0 65 "F"
      0 66 "F#"
      0 67 "G"
      0 68 "G#"
      0 69 "A"
      0 70 "Bb"
      0 71 "B"
      0 72 "C4"
      0 73 "C#"
      0 74 "D"
      0 75 "Eb"
      0 76 "E"
      0 77 "F"
      0 78 "F#"
      0 79 "G"
      0 80 "G#"
      0 81 "A"
      0 82 "Bb"
      0 83 "B"
      0 84 "C5"
      0 95 "----"
      0 96 "Displayed Percussion"
      0 97 "Not Displayed Percussion"
      0 104 "----"
      0 105 "Phrase Marker"
      0 115 "----"
      0 116 "OVERDRIVE"
    >
    MAINSEND 1 0
    <FXCHAIN
      WNDRECT 0 42 716 493
      SHOW 0
      LASTSEL 1
      DOCKED 0
      BYPASS 0 0
      <JS "IX/MIDI_Tool II" ""
        0.000000 85.000000 127.000000 0.000000 0.000000 0.000000 100.000000 0.000000 0.000000 127.000000 0.000000 0.000000 1.000000 0.000000 0.000000 - - - - - - - - - - - - - - - - - - - - - - - - - - - - - - - - - - - - - - - - - - - - - - - - - 
      >
      FLOATPOS 0 0 0 0
      FXID {0D2127EF-90E6-4278-AB57-59BADA75D3A0}
      WAK 0
      BYPASS 0 0
      <VST "VSTi: ReaSynth (Cockos)" "reasynth.dll" 0 ""
        eXNlcu9e7f4AAAAAAgAAAAEAAAAAAAAAAgAAAAAAAAA4AAAAAAAAAA==
        AAAAAO++rd4N8K3eppvEOxe30ToAAAAAAAAAAAAAAACa9Q8/6WeIPQ==
        AAAAAAAAAD8AAIA/AAAAAAAAAD8AUHJvZ3JhbSAxAAAAAAA=
      >
      FLOATPOS 0 0 0 0
      FXID {9CF76FE8-51DE-4F46-8774-EF282D9874DF}
      WAK 0
    >
    <ITEM
      POSITION 0.00000000000000
      SNAPOFFS 0.00000000000000
      LENGTH 96.84220114785212
      LOOP 0
      ALLTAKES 0
      SEL 0
      FADEIN 1 0.000000 0.000000 1 0
      FADEOUT 1 0.000000 0.000000 1 0
      MUTE 0
      IGUID {85B4D2FA-0EE6-4979-8286-EAC89A15680D}
      IID 12
      NAME "HARM2 untitled MIDI item"
      VOLPAN 1.000000 0.000000 1.000000 -1.000000
      SOFFS 0.00000000000000 0.00000000000000
      PLAYRATE 1.00000000000000 1 0.00000000000000 -1
      CHANMODE 0
      GUID {67C8C31A-733D-46F5-9A6D-0FDF2143554E}
      <SOURCE MIDI
        HASDATA 1 480 QN
        POOLEDEVTS {D9B4B5F1-B1DC-4CE6-A183-A15B498F8C25}
        <X 0 0
          /wNIQVJNMg==
        >
        E 127848 b0 7b 00
        GUID {E53B89F8-ECC8-4A25-86E2-BC4D240C9444}
        IGNTEMPO 0 120.00000000 4 4
        SRCCOLOR 1154
        VELLANE 132 128 60
        COLORMAP "C:\Program Files\REAPER (x64)\REAPER\Data\color_maps\rockband_guitarbass.png"
        TEXTSTRINGFILE "C:\Program Files\REAPER\Data\Text_Strings\Text Events List.txt"
        CFGEDITVIEW -605.860027 82.395269 0 12 0 0 0
        CFGEDIT 1 1 0 1 1 1 1 1 1 1 1 0.06250000 -8 -8 1374 736 1 2 1 2 0.00000000 0 0 0 0 0.500000 1 0 1.000000 64
        KEYSNAP 0 0 "102034050607" 0 "Major"
        EVTFILTER 1 -1 -1 -1 -1 0 1 0 0 -1.00000000 -1.00000000
      >
    >
  >
  <TRACK '{58A7B9C6-1373-47A1-A41A-295306551BF7}'
    NAME "DRYVOX2"
    PEAKCOL 16576
    BEAT -1
    AUTOMODE 0
    VOLPAN 1.00000000000000 0.00000000000000 -1.00000000000000 -1.00000000000000 1.00000000000000
    MUTESOLO 1 0 0
    IPHASE 0
    ISBUS 0 0
    BUSCOMP 0 0
    SHOWINMIX 1 0.666700 0.500000 1 0.500000 -1 -1 -1
    FREEMODE 0
    SEL 0
    REC 0 0 0 0 0 0 0
    TRACKHEIGHT 0 0
    INQ 0 0 0 0.5000000000 100 0 0 100
    NCHAN 2
    FX 1
    TRACKID {58A7B9C6-1373-47A1-A41A-295306551BF7}
    PERF 0
    MIDIOUT -1
    MAINSEND 1 0
    <FXCHAIN
      SHOW 0
      LASTSEL 0
      DOCKED 0
      BYPASS 0 0
      <VST "VST: ReaGate (Cockos)" "reagate.dll" 0 ""
        dGdlcu9e7f4EAAAAAQAAAAAAAAACAAAAAAAAAAQAAAAAAAAACAAAAA==
        AAAAAAIAAAABAAAAAAAAAAIAAAAAAAAAVAAAAAAAAAAAABAA776t3g==
        DfCt3pzRBzOmm8Q7CtejPAAAAAAAAAAAAACAPwAAAAAAAAAAAAAAAA==
        nNEHMx5Ucz+c0QczAACAPwAAAAAAAAAAAAAAACwWCz8AAAAAAAAAAA==
        AFByb2dyYW0gMQAQAAAA
      >
      FLOATPOS 859 184 511 385
      FXID {BF545B5B-7DD0-4B4C-AC52-F095A552DA08}
      WAK 0
    >
  >
  <TRACK '{4299BF31-E988-4C64-900A-97AC9ECE5EBC}'
    NAME "HARM3"
    PEAKCOL 24624127
    BEAT -1
    AUTOMODE 0
    VOLPAN 1.00000000000000 0.00000000000000 -1.00000000000000 -1.00000000000000 1.00000000000000
    MUTESOLO 1 0 0
    IPHASE 0
    ISBUS 0 0
    BUSCOMP 0 0
    SHOWINMIX 1 0.666700 0.500000 1 0.500000 -1 -1 -1
    FREEMODE 0
    SEL 0
    REC 0 0 0 0 0 0 0
    TRACKHEIGHT 0 0
    INQ 0 0 0 0.5000000000 100 0 0 100
    NCHAN 2
    FX 1
    TRACKID {4299BF31-E988-4C64-900A-97AC9ECE5EBC}
    PERF 0
    MIDIOUT -1
    <MIDINOTENAMES
      0 0 "Range Shift"
      0 1 "Lyric Shift"
      0 35 "----"
      0 36 "C1"
      0 37 "C#"
      0 38 "D"
      0 39 "Eb"
      0 40 "E"
      0 41 "F"
      0 42 "F#"
      0 43 "G"
      0 44 "G#"
      0 45 "A"
      0 46 "Bb"
      0 47 "B"
      0 48 "C2"
      0 49 "C#"
      0 50 "D"
      0 51 "Eb"
      0 52 "E"
      0 53 "F"
      0 54 "F#"
      0 55 "G"
      0 56 "G#"
      0 57 "A"
      0 58 "Bb"
      0 59 "B"
      0 60 "C3"
      0 61 "C#"
      0 62 "D"
      0 63 "Eb"
      0 64 "E"
      0 65 "F"
      0 66 "F#"
      0 67 "G"
      0 68 "G#"
      0 69 "A"
      0 70 "Bb"
      0 71 "B"
      0 72 "C4"
      0 73 "C#"
      0 74 "D"
      0 75 "Eb"
      0 76 "E"
      0 77 "F"
      0 78 "F#"
      0 79 "G"
      0 80 "G#"
      0 81 "A"
      0 82 "Bb"
      0 83 "B"
      0 84 "C5"
      0 95 "----"
      0 96 "Displayed Percussion"
      0 97 "Not Displayed Percussion"
      0 104 "----"
      0 105 "Phrase Marker"
      0 115 "----"
      0 116 "OVERDRIVE"
    >
    MAINSEND 1 0
    <FXCHAIN
      WNDRECT 0 42 716 493
      SHOW 0
      LASTSEL 1
      DOCKED 0
      BYPASS 0 0
      <JS "IX/MIDI_Tool II" ""
        0.000000 85.000000 127.000000 0.000000 0.000000 0.000000 100.000000 0.000000 0.000000 127.000000 0.000000 0.000000 1.000000 0.000000 0.000000 - - - - - - - - - - - - - - - - - - - - - - - - - - - - - - - - - - - - - - - - - - - - - - - - - 
      >
      FLOATPOS 0 0 0 0
      FXID {3D33E2FB-5DDE-4F81-B16F-BCB1EAD8D4FA}
      WAK 0
      BYPASS 0 0
      <VST "VSTi: ReaSynth (Cockos)" "reasynth.dll" 0 ""
        eXNlcu9e7f4AAAAAAgAAAAEAAAAAAAAAAgAAAAAAAAA4AAAAAAAAAA==
        AAAAAO++rd4N8K3eppvEOxe30ToAAAAAAAAAAAAAAACa9Q8/6WeIPQ==
        AAAAAAAAAD8AAIA/AAAAAAAAAD8AUHJvZ3JhbSAxAAAAAAA=
      >
      FLOATPOS 0 0 0 0
      FXID {98E235B6-3365-4F58-AC74-F5BD513BFA85}
      WAK 0
    >
    <ITEM
      POSITION 0.00000000000000
      SNAPOFFS 0.00000000000000
      LENGTH 96.84220114785212
      LOOP 0
      ALLTAKES 0
      SEL 0
      FADEIN 1 0.000000 0.000000 1 0
      FADEOUT 1 0.000000 0.000000 1 0
      MUTE 0
      IGUID {14DAFADF-64E7-40FA-8E65-65BBB77CBDB7}
      IID 13
      NAME "HARM3 untitled MIDI item"
      VOLPAN 1.000000 0.000000 1.000000 -1.000000
      SOFFS 0.00000000000000 0.00000000000000
      PLAYRATE 1.00000000000000 1 0.00000000000000 -1
      CHANMODE 0
      GUID {BA30FF02-694D-4D9D-9D54-87AECA42C3BA}
      <SOURCE MIDI
        HASDATA 1 480 QN
        POOLEDEVTS {233A5F49-46D5-4080-A5E9-A44DC2A92D89}
        <X 0 0
          /wNIQVJNMw==
        >
        E 127848 b0 7b 00
        GUID {F1082209-E2A8-4526-8AA6-2FE8F2DEB335}
        IGNTEMPO 0 120.00000000 4 4
        SRCCOLOR 1155
        VELLANE 132 128 60
        COLORMAP "C:\Program Files\REAPER (x64)\REAPER\Data\color_maps\rockband_guitarbass.png"
        TEXTSTRINGFILE "C:\Program Files\REAPER\Data\Text_Strings\Text Events List.txt"
        CFGEDITVIEW -605.860027 82.395269 0 12 0 0 0
        CFGEDIT 1 1 0 1 1 1 1 1 1 1 1 0.06250000 -8 -8 1374 736 1 2 1 2 0.00000000 0 0 0 0 0.500000 1 0 1.000000 64
        KEYSNAP 0 0 "102034050607" 0 "Major"
        EVTFILTER 1 -1 -1 -1 -1 0 1 0 0 -1.00000000 -1.00000000
      >
    >
  >
  <TRACK '{AB3E8FDC-23A9-4945-BA6C-055C630028D0}'
    NAME "DRYVOX3"
    PEAKCOL 16576
    BEAT -1
    AUTOMODE 0
    VOLPAN 1.00000000000000 0.00000000000000 -1.00000000000000 -1.00000000000000 1.00000000000000
    MUTESOLO 1 0 0
    IPHASE 0
    ISBUS 0 0
    BUSCOMP 0 0
    SHOWINMIX 1 0.666700 0.500000 1 0.500000 -1 -1 -1
    FREEMODE 0
    SEL 0
    REC 0 0 0 0 0 0 0
    TRACKHEIGHT 0 0
    INQ 0 0 0 0.5000000000 100 0 0 100
    NCHAN 2
    FX 1
    TRACKID {AB3E8FDC-23A9-4945-BA6C-055C630028D0}
    PERF 0
    MIDIOUT -1
    MAINSEND 1 0
    <FXCHAIN
      SHOW 0
      LASTSEL 0
      DOCKED 0
      BYPASS 0 0
      <VST "VST: ReaGate (Cockos)" "reagate.dll" 0 ""
        dGdlcu9e7f4EAAAAAQAAAAAAAAACAAAAAAAAAAQAAAAAAAAACAAAAA==
        AAAAAAIAAAABAAAAAAAAAAIAAAAAAAAAVAAAAAAAAAAAABAA776t3g==
        DfCt3pzRBzOmm8Q7CtejPAAAAAAAAAAAAACAPwAAAAAAAAAAAAAAAA==
        nNEHMx5Ucz+c0QczAACAPwAAAAAAAAAAAAAAACwWCz8AAAAAAAAAAA==
        AFByb2dyYW0gMQAQAAAA
      >
      FLOATPOS 859 184 511 385
      FXID {BF545B5B-7DD0-4B4C-AC52-F095A552DA08}
      WAK 0
    >
  >
  <TRACK '{14F64FB7-FE44-4E53-9F58-44F4178BCEF9}'
    NAME "PART KEYS"
    PEAKCOL 16842496
    BEAT -1
    AUTOMODE 0
    VOLPAN 1.00000000000000 0.00000000000000 -1.00000000000000 -1.00000000000000 1.00000000000000
    MUTESOLO 1 0 0
    IPHASE 0
    ISBUS 1 1
    BUSCOMP 0 0
    SHOWINMIX 1 0.666700 0.500000 1 0.500000 -1 -1 -1
    FREEMODE 0
    SEL 0
    REC 0 0 0 0 0 0 0
    TRACKHEIGHT 0 0
    INQ 0 0 0 0.5000000000 100 0 0 100
    NCHAN 2
    FX 1
    TRACKID {14F64FB7-FE44-4E53-9F58-44F4178BCEF9}
    PERF 0
    MIDIOUT -1
    <MIDINOTENAMES
      0 60 "EASY Green"
      0 61 "EASY Red"
      0 62 "EASY Yellow"
      0 63 "EASY Blue"
      0 64 "EASY Orange"
      0 71 "----"
      0 72 "MEDIUM Green"
      0 73 "MEDIUM Red"
      0 74 "MEDIUM Yellow"
      0 75 "MEDIUM Blue"
      0 76 "MEDIUM Orange"
      0 83 "----"
      0 84 "HARD Green"
      0 85 "HARD Red"
      0 86 "HARD Yellow"
      0 87 "HARD Blue"
      0 88 "HARD Orange"
      0 95 "----"
      0 96 "EXPERT Green"
      0 97 "EXPERT Red"
      0 98 "EXPERT Yellow"
      0 99 "EXPERT Blue"
      0 100 "EXPERT Orange"
      0 101 "Force HoPo on"
      0 102 "Force HoPo off"
      0 103 "Solo Marker"
      0 115 "----"
      0 116 "OVERDRIVE"
      0 119 "----"
      0 120 "BRE (use all 5)"
      0 121 "BRE"
      0 122 "BRE"
      0 123 "BRE"
      0 124 "BRE"
      0 126 "----"
      0 127 "Trill Marker"
    >
    MAINSEND 1 0
    <FXCHAIN
      WNDRECT 0 40 878 585
      SHOW 0
      LASTSEL 0
      DOCKED 0
      BYPASS 0 0
      <VST "VSTi: RBN Preview (RBN)" "rbprev_vst64_beta.dll" 0 ""
        dnBicu5e7f4AAAAAAgAAAAEAAAAAAAAAAgAAAAAAAAAEAAAAAQAAAA==
        AAAAAAMAqgAAUHJvZ3JhbSAxAAAAAAA=
      >
      FLOATPOS 0 0 0 0
      FXID {EE0C80EE-5E5F-4EA2-B367-78AAAB3793F5}
      WAK 0
    >
    <ITEM
      POSITION 0.00000000000000
      SNAPOFFS 0.00000000000000
      LENGTH 96.84220114785178
      LOOP 0
      ALLTAKES 0
      SEL 0
      FADEIN 1 0.000000 0.000000 1 0
      FADEOUT 1 0.000000 0.000000 1 0
      MUTE 0
      IGUID {52D9F6AC-16AD-4CE9-95E4-6AD6396BB4E2}
      IID 14
      NAME "PART KEYS"
      VOLPAN 1.000000 0.000000 1.000000 -1.000000
      SOFFS 0.00000000000000 0.00000000000000
      PLAYRATE 1.00000000000000 1 0.00000000000000 -65536
      CHANMODE 0
      GUID {78E1CCBD-C30B-4DD8-81CD-2AEB0D2D38C8}
      <SOURCE MIDI
        HASDATA 1 480 QN
        POOLEDEVTS {287579CB-13A3-4490-AF72-24B23EF08DAF}
        <X 0 0
          /wNQQVJUIEtFWVM=
        >
        <X 3840 0
          /wFbcGxheV0=
        >
        E 0 90 40 7f
        E 0 90 4c 7f
        E 0 90 58 7f
        E 60 80 40 00
        E 0 80 4c 00
        E 0 80 58 00
        E 30 90 3f 7f
        E 0 90 4b 7f
        E 0 90 57 7f
        E 60 80 3f 00
        E 0 80 4b 00
        E 0 80 57 00
        E 30 90 3e 7f
        E 0 90 4a 7f
        E 0 90 56 7f
        E 60 80 3e 00
        E 0 80 4a 00
        E 0 80 56 00
        E 30 90 3d 7f
        E 0 90 49 7f
        E 0 90 55 7f
        E 60 80 3d 00
        E 0 80 49 00
        E 0 80 55 00
        E 30 90 3c 7f
        E 0 90 48 7f
        E 0 90 54 7f
        E 60 80 3c 00
        E 0 80 48 00
        E 0 80 54 00
        E 123588 b0 7b 00
        GUID {F537F270-CEBA-461E-8612-DC28913708FC}
        IGNTEMPO 0 120.00000000 4 4
        SRCCOLOR 1156
        VELLANE 132 128 60
        COLORMAP "C:\Program Files\REAPER (x64)\REAPER\Data\color_maps\rockband_guitarbass.png"
        TEXTSTRINGFILE "C:\Program Files\REAPER\Data\Text_Strings\Text Events List.txt"
        CFGEDITVIEW -4299.275963 82.395269 19 12 0 0 0
        CFGEDIT 1 1 0 0 0 1 1 1 1 1 1 0.12500000 -8 -8 1370 736 1 0 1 2 0.00000000 0 0 0 0 0.500000 1 0 1.000000 64
        KEYSNAP 0 0 "102034050607" 0 "Major"
        EVTFILTER 1 -1 -1 -1 -1 0 1 0 0 -1.00000000 -1.00000000
      >
    >
  >
  <TRACK '{D39F8BD7-8730-4182-94EC-51AF9F9ACC90}'
    NAME "PART REAL_KEYS_X"
    PEAKCOL 25231232
    BEAT -1
    AUTOMODE 0
    VOLPAN 1.00000000000000 0.00000000000000 -1.00000000000000 -1.00000000000000 1.00000000000000
    MUTESOLO 1 0 0
    IPHASE 0
    ISBUS 0 0
    BUSCOMP 1 0
    SHOWINMIX 1 0.666700 0.500000 1 0.500000 -1 -1 -1
    FREEMODE 0
    SEL 0
    REC 0 0 0 0 0 0 0
    TRACKHEIGHT 0 0
    INQ 0 0 0 0.5000000000 100 0 0 100
    NCHAN 2
    FX 1
    TRACKID {D39F8BD7-8730-4182-94EC-51AF9F9ACC90}
    PERF 0
    MIDIOUT -1
    <MIDINOTENAMES
      0 0 "C2-E3 Range"
      0 2 "D2-F3 Range"
      0 4 "E2-G3 Range"
      0 5 "F2-A3 Range"
      0 7 "G2-B3 Range"
      0 9 "A2-C4 Range"
      0 47 "----"
      0 48 "C2 (Lowest Note)"
      0 49 "C#2"
      0 50 "D2"
      0 51 "Eb2"
      0 52 "E2"
      0 53 "F2"
      0 54 "F#2"
      0 55 "G2"
      0 56 "G#2"
      0 57 "A2"
      0 58 "Bb2"
      0 59 "B2"
      0 60 "C3"
      0 61 "C#3"
      0 62 "D3"
      0 63 "Eb3"
      0 64 "E3"
      0 65 "F3"
      0 66 "F#3"
      0 67 "G3"
      0 68 "G#3"
      0 69 "A3"
      0 70 "Bb3"
      0 71 "B3"
      0 72 "C4 (Highest Note)"
      0 114 "----"
      0 115 "Solo Marker"
      0 116 "Overdrive Marker"
      0 125 "----"
      0 126 "Glissando Marker"
      0 127 "Trill Marker"
    >
    MAINSEND 1 0
    <FXCHAIN
      WNDRECT 0 40 655 493
      SHOW 0
      LASTSEL 1
      DOCKED 0
      BYPASS 0 0
      <JS "IX/MIDI_Tool II" ""
        0.000000 85.000000 127.000000 0.000000 0.000000 0.000000 100.000000 0.000000 0.000000 127.000000 0.000000 0.000000 1.000000 0.000000 0.000000 - - - - - - - - - - - - - - - - - - - - - - - - - - - - - - - - - - - - - - - - - - - - - - - - - 
      >
      FLOATPOS 0 0 0 0
      FXID {A891DAA7-5D8A-4720-AA8F-E43D2ABA2AE5}
      WAK 0
      BYPASS 0 0
      <VST "VSTi: ReaSynth (Cockos)" "reasynth.dll" 0 ""
        eXNlcu9e7f4AAAAAAgAAAAEAAAAAAAAAAgAAAAAAAAA4AAAAAAAAAA==
        AAAAAO++rd4N8K3eppvEOxe30TqcxKA+c2jRPgAAAADMm4A+6WeIPQ==
        AAAAAAAAAD8AAIA/6SaxPgAAAD8AUHJvZ3JhbSAxAAAAAAA=
      >
      FLOATPOS 0 0 0 0
      FXID {A0CE5851-0C70-49E2-AD61-BC7B1C50A030}
      WAK 0
    >
    <ITEM
      POSITION 0.00000000000000
      SNAPOFFS 0.00000000000000
      LENGTH 96.84220114785178
      LOOP 0
      ALLTAKES 0
      SEL 0
      FADEIN 1 0.000000 0.000000 1 0
      FADEOUT 1 0.000000 0.000000 1 0
      MUTE 0
      IGUID {974100C2-06C4-4CB5-BD67-2F1BC71A1259}
      IID 15
      NAME "PART REAL_KEYS_X"
      VOLPAN 1.000000 0.000000 1.000000 -1.000000
      SOFFS 0.00000000000000 0.00000000000000
      PLAYRATE 1.00000000000000 1 0.00000000000000 -65536
      CHANMODE 0
      GUID {08703F3F-9741-46EB-9ED4-B09B2390F876}
      <SOURCE MIDI
        HASDATA 1 480 QN
        POOLEDEVTS {7D21762B-4087-4DAF-8150-42B02E14BD16}
        <X 0 0
          /wNQQVJUIFJFQUxfS0VZU19Y
        >
        <X 3840 0
          /wFbcGxheV0=
        >
        E 124008 b0 7b 00
        GUID {0E0CBFB7-4AC8-4E67-A764-85891754BB41}
        IGNTEMPO 0 120.00000000 4 4
        SRCCOLOR 1157
        VELLANE 132 128 60
        COLORMAP "C:\Program Files\REAPER (x64)\REAPER\Data\color_maps\rockband_guitarbass.png"
        TEXTSTRINGFILE "C:\Program Files\REAPER\Data\Text_Strings\Text Events List.txt"
        CFGEDITVIEW -4299.275963 82.395269 48 12 0 0 0
        CFGEDIT 1 1 0 1 1 1 1 1 1 1 1 0.12500000 -8 -8 1370 736 1 0 1 2 0.00000000 0 0 0 0 0.500000 1 0 1.000000 64
        KEYSNAP 0 0 "102034050607" 0 "Major"
        EVTFILTER 1 -1 -1 -1 -1 0 1 0 0 -1.00000000 -1.00000000
      >
    >
  >
  <TRACK '{117931B6-9EA5-432A-AEED-ACF4C8876354}'
    NAME "PART REAL _KEYS_H"
    PEAKCOL 25231232
    BEAT -1
    AUTOMODE 0
    VOLPAN 1.00000843600341 0.00000000000000 -1.00000000000000 -1.00000000000000 1.00000000000000
    MUTESOLO 1 0 0
    IPHASE 0
    ISBUS 0 0
    BUSCOMP 0 0
    SHOWINMIX 1 0.666700 0.500000 1 0.500000 -1 -1 -1
    FREEMODE 0
    SEL 0
    REC 0 0 0 0 0 0 0
    TRACKHEIGHT 0 0
    INQ 0 0 0 0.5000000000 100 0 0 100
    NCHAN 2
    FX 1
    TRACKID {117931B6-9EA5-432A-AEED-ACF4C8876354}
    PERF 0
    MIDIOUT -1
    <MIDINOTENAMES
      0 0 "C2-E3 Range"
      0 2 "D2-F3 Range"
      0 4 "E2-G3 Range"
      0 5 "F2-A3 Range"
      0 7 "G2-B3 Range"
      0 9 "A2-C4 Range"
      0 47 "----"
      0 48 "C2 (Lowest Note)"
      0 49 "C#2"
      0 50 "D2"
      0 51 "Eb2"
      0 52 "E2"
      0 53 "F2"
      0 54 "F#2"
      0 55 "G2"
      0 56 "G#2"
      0 57 "A2"
      0 58 "Bb2"
      0 59 "B2"
      0 60 "C3"
      0 61 "C#3"
      0 62 "D3"
      0 63 "Eb3"
      0 64 "E3"
      0 65 "F3"
      0 66 "F#3"
      0 67 "G3"
      0 68 "G#3"
      0 69 "A3"
      0 70 "Bb3"
      0 71 "B3"
      0 72 "C4 (Highest Note)"
      0 114 "----"
      0 115 "Solo Marker"
      0 116 "Overdrive Marker"
      0 125 "----"
      0 126 "Glissando Marker"
      0 127 "Trill Marker"
    >
    MAINSEND 1 0
    <FXCHAIN
      SHOW 0
      LASTSEL 0
      DOCKED 0
      BYPASS 0 0
      <JS "IX/MIDI_Tool II" ""
        0.000000 85.000000 127.000000 0.000000 0.000000 0.000000 100.000000 0.000000 0.000000 127.000000 0.000000 0.000000 1.000000 0.000000 0.000000 - - - - - - - - - - - - - - - - - - - - - - - - - - - - - - - - - - - - - - - - - - - - - - - - - 
      >
      FLOATPOS 0 0 0 0
      FXID {5BF1E178-D070-4445-A488-4CE4E31F6508}
      WAK 0
      BYPASS 0 0
      <VST "VSTi: ReaSynth (Cockos)" "reasynth.dll" 0 ""
        eXNlcu9e7f4AAAAAAgAAAAEAAAAAAAAAAgAAAAAAAAA4AAAAAAAAAA==
        AAAAAO++rd4N8K3eppvEOxe30TqcxKA+c2jRPgAAAADMm4A+6WeIPQ==
        AAAAAAAAAD8AAIA/6SaxPgAAAD8AUHJvZ3JhbSAxAAAAAAA=
      >
      FLOATPOS 0 0 0 0
      FXID {C48567E0-8372-4900-9933-4B040EA2A253}
      WAK 0
    >
    <ITEM
      POSITION 0.00000000000000
      SNAPOFFS 0.00000000000000
      LENGTH 96.84220114785178
      LOOP 0
      ALLTAKES 0
      SEL 0
      FADEIN 1 0.000000 0.000000 1 0
      FADEOUT 1 0.000000 0.000000 1 0
      MUTE 0
      IGUID {DA514BF3-AF34-46C0-BD23-58406C871A44}
      IID 16
      NAME "PART REAL _KEYS_H"
      VOLPAN 1.000000 0.000000 1.000000 -1.000000
      SOFFS 0.00000000000000 0.00000000000000
      PLAYRATE 1.00000000000000 1 0.00000000000000 -65536
      CHANMODE 0
      GUID {8E0AC36B-D538-4BB8-A507-FFF40527D1BA}
      <SOURCE MIDI
        HASDATA 1 480 QN
        POOLEDEVTS {8F33F524-F00B-4A54-8F8E-4C3C9574C856}
        <X 0 0
          /wNQQVJUIFJFQUxfS0VZU19I
        >
        E 0 90 09 60
        E 480 80 09 00
        E 3360 90 39 60
        E 360 80 39 00
        E 123648 b0 7b 00
        GUID {53F487B1-1F2F-4D54-9DAE-BC2E7B032E3B}
        IGNTEMPO 0 120.00000000 4 4
        SRCCOLOR 1158
        VELLANE 132 128 60
        COLORMAP "C:\Program Files\REAPER (x64)\REAPER\Data\color_maps\rockband_guitarbass.png"
        TEXTSTRINGFILE "C:\Program Files\REAPER\Data\Text_Strings\Text Events List.txt"
        CFGEDITVIEW -4299.275963 82.395269 5 14 0 0 0
        CFGEDIT 1 1 0 1 1 1 1 1 1 1 1 0.12500000 -8 -8 1374 736 1 2 1 2 0.00000000 0 0 0 0 0.500000 1 0 1.000000 64
        KEYSNAP 0 0 "102034050607" 0 "Major"
        EVTFILTER 1 -1 -1 -1 -1 0 1 0 0 -1.00000000 -1.00000000
      >
    >
  >
  <TRACK '{3B6F726E-1CAB-4A00-9B01-2E1CC375B13E}'
    NAME "PART REAL_KEYS_M"
    PEAKCOL 25231232
    BEAT -1
    AUTOMODE 0
    VOLPAN 1.00000000000000 0.00000000000000 -1.00000000000000 -1.00000000000000 1.00000000000000
    MUTESOLO 1 0 0
    IPHASE 0
    ISBUS 0 0
    BUSCOMP 0 0
    SHOWINMIX 1 0.666700 0.500000 1 0.500000 -1 -1 -1
    FREEMODE 0
    SEL 0
    REC 0 0 0 0 0 0 0
    TRACKHEIGHT 0 0
    INQ 0 0 0 0.5000000000 100 0 0 100
    NCHAN 2
    FX 1
    TRACKID {3B6F726E-1CAB-4A00-9B01-2E1CC375B13E}
    PERF 0
    MIDIOUT -1
    <MIDINOTENAMES
      0 0 "C2-E3 Range"
      0 2 "D2-F3 Range"
      0 4 "E2-G3 Range"
      0 5 "F2-A3 Range"
      0 7 "G2-B3 Range"
      0 9 "A2-C4 Range"
      0 47 "----"
      0 48 "C2 (Lowest Note)"
      0 49 "C#2"
      0 50 "D2"
      0 51 "Eb2"
      0 52 "E2"
      0 53 "F2"
      0 54 "F#2"
      0 55 "G2"
      0 56 "G#2"
      0 57 "A2"
      0 58 "Bb2"
      0 59 "B2"
      0 60 "C3"
      0 61 "C#3"
      0 62 "D3"
      0 63 "Eb3"
      0 64 "E3"
      0 65 "F3"
      0 66 "F#3"
      0 67 "G3"
      0 68 "G#3"
      0 69 "A3"
      0 70 "Bb3"
      0 71 "B3"
      0 72 "C4 (Highest Note)"
      0 114 "----"
      0 115 "Solo Marker"
      0 116 "Overdrive Marker"
      0 125 "----"
      0 126 "Glissando Marker"
      0 127 "Trill Marker"
    >
    MAINSEND 1 0
    <FXCHAIN
      SHOW 0
      LASTSEL 0
      DOCKED 0
      BYPASS 0 0
      <JS "IX/MIDI_Tool II" ""
        0.000000 85.000000 127.000000 0.000000 0.000000 0.000000 100.000000 0.000000 0.000000 127.000000 0.000000 0.000000 1.000000 0.000000 0.000000 - - - - - - - - - - - - - - - - - - - - - - - - - - - - - - - - - - - - - - - - - - - - - - - - - 
      >
      FLOATPOS 0 0 0 0
      FXID {096BA8B0-BFAB-4802-A0D3-DEA88A16B5B2}
      WAK 0
      BYPASS 0 0
      <VST "VSTi: ReaSynth (Cockos)" "reasynth.dll" 0 ""
        eXNlcu9e7f4AAAAAAgAAAAEAAAAAAAAAAgAAAAAAAAA4AAAAAAAAAA==
        AAAAAO++rd4N8K3eppvEOxe30TqcxKA+c2jRPgAAAADMm4A+6WeIPQ==
        AAAAAAAAAD8AAIA/6SaxPgAAAD8AUHJvZ3JhbSAxAAAAAAA=
      >
      FLOATPOS 0 0 0 0
      FXID {A5115AF9-13EF-41D8-80FF-CB81A74D6CD4}
      WAK 0
    >
    <ITEM
      POSITION 0.00000000000000
      SNAPOFFS 0.00000000000000
      LENGTH 96.84220114785178
      LOOP 0
      ALLTAKES 0
      SEL 0
      FADEIN 1 0.000000 0.000000 1 0
      FADEOUT 1 0.000000 0.000000 1 0
      MUTE 0
      IGUID {6F5DF5D5-958D-4566-AA6E-AFD27D997F3F}
      IID 17
      NAME "PART REAL_KEYS_M"
      VOLPAN 1.000000 0.000000 1.000000 -1.000000
      SOFFS 0.00000000000000 0.00000000000000
      PLAYRATE 1.00000000000000 1 0.00000000000000 -65536
      CHANMODE 0
      GUID {14BC6779-E32B-455D-A61C-C2E68D8FE08C}
      <SOURCE MIDI
        HASDATA 1 480 QN
        POOLEDEVTS {DF652D51-2835-4B94-9CF4-FF04233D7FF3}
        <X 0 0
          /wNQQVJUIFJFQUxfS0VZU19N
        >
        e 0 90 09 60
        e 480 80 09 00
        e 3360 90 39 60
        e 360 80 39 00
        E 123648 b0 7b 00
        GUID {806139BE-556B-4882-A297-06705078FD7A}
        IGNTEMPO 0 120.00000000 4 4
        SRCCOLOR 1159
        VELLANE 132 128 60
        COLORMAP "C:\Program Files\REAPER (x64)\REAPER\Data\color_maps\rockband_guitarbass.png"
        TEXTSTRINGFILE "C:\Program Files\REAPER\Data\Text_Strings\Text Events List.txt"
        CFGEDITVIEW -4299.275963 82.395269 0 17 0 0 0
        CFGEDIT 1 1 0 1 1 1 1 1 1 1 1 0.12500000 -8 -8 1374 736 1 2 1 2 0.00000000 0 0 0 0 0.500000 1 0 1.000000 64
        KEYSNAP 0 0 "102034050607" 0 "Major"
        EVTFILTER 1 -1 -1 -1 -1 0 1 0 0 -1.00000000 -1.00000000
      >
    >
  >
  <TRACK '{49B8D0E0-0069-415C-8FC3-AC29B0E2C3CF}'
    NAME "PART REAL_KEYS_E"
    PEAKCOL 25231232
    BEAT -1
    AUTOMODE 0
    VOLPAN 1.00000000000000 0.00000000000000 -1.00000000000000 -1.00000000000000 1.00000000000000
    MUTESOLO 1 0 0
    IPHASE 0
    ISBUS 0 0
    BUSCOMP 0 0
    SHOWINMIX 1 0.666700 0.500000 1 0.500000 -1 -1 -1
    FREEMODE 0
    SEL 0
    REC 0 0 0 0 0 0 0
    TRACKHEIGHT 0 0
    INQ 0 0 0 0.5000000000 100 0 0 100
    NCHAN 2
    FX 1
    TRACKID {49B8D0E0-0069-415C-8FC3-AC29B0E2C3CF}
    PERF 0
    MIDIOUT -1
    <MIDINOTENAMES
      0 0 "C2-E3 Range"
      0 2 "D2-F3 Range"
      0 4 "E2-G3 Range"
      0 5 "F2-A3 Range"
      0 7 "G2-B3 Range"
      0 9 "A2-C4 Range"
      0 47 "----"
      0 48 "C2 (Lowest Note)"
      0 49 "C#2"
      0 50 "D2"
      0 51 "Eb2"
      0 52 "E2"
      0 53 "F2"
      0 54 "F#2"
      0 55 "G2"
      0 56 "G#2"
      0 57 "A2"
      0 58 "Bb2"
      0 59 "B2"
      0 60 "C3"
      0 61 "C#3"
      0 62 "D3"
      0 63 "Eb3"
      0 64 "E3"
      0 65 "F3"
      0 66 "F#3"
      0 67 "G3"
      0 68 "G#3"
      0 69 "A3"
      0 70 "Bb3"
      0 71 "B3"
      0 72 "C4 (Highest Note)"
      0 114 "----"
      0 115 "Solo Marker"
      0 116 "Overdrive Marker"
      0 125 "----"
      0 126 "Glissando Marker"
      0 127 "Trill Marker"
    >
    MAINSEND 1 0
    <FXCHAIN
      SHOW 0
      LASTSEL 0
      DOCKED 0
      BYPASS 0 0
      <JS "IX/MIDI_Tool II" ""
        0.000000 85.000000 127.000000 0.000000 0.000000 0.000000 100.000000 0.000000 0.000000 127.000000 0.000000 0.000000 1.000000 0.000000 0.000000 - - - - - - - - - - - - - - - - - - - - - - - - - - - - - - - - - - - - - - - - - - - - - - - - - 
      >
      FLOATPOS 0 0 0 0
      FXID {71EF04AA-9A38-4C4E-8E04-9FB37BDA6361}
      WAK 0
      BYPASS 0 0
      <VST "VSTi: ReaSynth (Cockos)" "reasynth.dll" 0 ""
        eXNlcu9e7f4AAAAAAgAAAAEAAAAAAAAAAgAAAAAAAAA4AAAAAAAAAA==
        AAAAAO++rd4N8K3eppvEOxe30TqcxKA+c2jRPgAAAADMm4A+6WeIPQ==
        AAAAAAAAAD8AAIA/6SaxPgAAAD8AUHJvZ3JhbSAxAAAAAAA=
      >
      FLOATPOS 0 0 0 0
      FXID {6C388847-2A2F-4264-AA7A-4C4ACA9A9672}
      WAK 0
    >
    <ITEM
      POSITION 0.00000000000000
      SNAPOFFS 0.00000000000000
      LENGTH 96.84220114785178
      LOOP 0
      ALLTAKES 0
      SEL 0
      FADEIN 1 0.000000 0.000000 1 0
      FADEOUT 1 0.000000 0.000000 1 0
      MUTE 0
      IGUID {656317AD-B690-4307-9096-C4F4536C131B}
      IID 18
      NAME "PART REAL_KEYS_E"
      VOLPAN 1.000000 0.000000 1.000000 -1.000000
      SOFFS 0.00000000000000 0.00000000000000
      PLAYRATE 1.00000000000000 1 0.00000000000000 -65536
      CHANMODE 0
      GUID {43BDFFBF-75D6-4727-BD3F-08B25C56980C}
      <SOURCE MIDI
        HASDATA 1 480 QN
        POOLEDEVTS {484181B5-F1DA-4112-BBE9-D22204EF6386}
        <X 0 0
          /wNQQVJUIFJFQUxfS0VZU19F
        >
        E 0 90 09 60
        E 480 80 09 00
        E 127368 b0 7b 00
        GUID {F9363449-15E8-4EF0-8BC0-ABEB4CDC1D98}
        IGNTEMPO 0 120.00000000 4 4
        SRCCOLOR 1160
        VELLANE 132 128 60
        COLORMAP "C:\Program Files\REAPER (x64)\REAPER\Data\color_maps\rockband_guitarbass.png"
        TEXTSTRINGFILE "C:\Program Files\REAPER\Data\Text_Strings\Text Events List.txt"
        CFGEDITVIEW 1257.930012 0.103438 51 12 0 0 0
        CFGEDIT 1 1 0 0 1 1 1 1 1 1 1 0.25000000 0 0 683 728 1 0 0 2 0.12500000 0 0 0 0 0.500000 0 0 1.000000 64
        KEYSNAP 0 0 "102034050607" 0 "Major"
        EVTFILTER 1 -1 -1 -1 -1 0 1 0 0 -1.00000000 -1.00000000
      >
    >
  >
  <TRACK '{80604035-2BD9-43BB-A255-4E5F9E756779}'
    NAME "PART KEYS_ANIM_RH"
    PEAKCOL 16842624
    BEAT -1
    AUTOMODE 0
    VOLPAN 1.00000000000000 0.00000000000000 -1.00000000000000 -1.00000000000000 1.00000000000000
    MUTESOLO 1 0 0
    IPHASE 0
    ISBUS 0 0
    BUSCOMP 0 0
    SHOWINMIX 1 0.666700 0.500000 1 0.500000 -1 -1 -1
    FREEMODE 0
    SEL 0
    REC 0 0 0 0 0 0 0
    TRACKHEIGHT 0 0
    INQ 0 0 0 0.5000000000 100 0 0 100
    NCHAN 2
    FX 1
    TRACKID {80604035-2BD9-43BB-A255-4E5F9E756779}
    PERF 0
    MIDIOUT -1
    <MIDINOTENAMES
      0 0 "C2-E3 Range"
      0 2 "D2-F3 Range"
      0 4 "E2-G3 Range"
      0 5 "F2-A3 Range"
      0 7 "G2-B3 Range"
      0 9 "A2-C4 Range"
      0 47 "----"
      0 48 "C2 (Lowest Note)"
      0 49 "C#2"
      0 50 "D2"
      0 51 "Eb2"
      0 52 "E2"
      0 53 "F2"
      0 54 "F#2"
      0 55 "G2"
      0 56 "G#2"
      0 57 "A2"
      0 58 "Bb2"
      0 59 "B2"
      0 60 "C3"
      0 61 "C#3"
      0 62 "D3"
      0 63 "Eb3"
      0 64 "E3"
      0 65 "F3"
      0 66 "F#3"
      0 67 "G3"
      0 68 "G#3"
      0 69 "A3"
      0 70 "Bb3"
      0 71 "B3"
      0 72 "C4 (Highest Note)"
      0 114 "----"
      0 115 "Solo Marker"
      0 116 "Overdrive Marker"
      0 125 "----"
      0 126 "Glissando Marker"
      0 127 "Trill Marker"
    >
    MAINSEND 1 0
    <FXCHAIN
      SHOW 0
      LASTSEL 0
      DOCKED 0
    >
    <ITEM
      POSITION 0.00000000000000
      SNAPOFFS 0.00000000000000
      LENGTH 96.84220114785178
      LOOP 0
      ALLTAKES 0
      SEL 0
      FADEIN 1 0.000000 0.000000 1 0
      FADEOUT 1 0.000000 0.000000 1 0
      MUTE 0
      IGUID {6A43A4E9-6390-4FBA-9F07-B2C821A1720C}
      IID 19
      NAME "PART KEYS_ANIM_RH"
      VOLPAN 1.000000 0.000000 1.000000 -1.000000
      SOFFS 0.00000000000000 0.00000000000000
      PLAYRATE 1.00000000000000 1 0.00000000000000 -65536
      CHANMODE 0
      GUID {FA5AE238-E1D7-41F5-A663-4C49E4376041}
      <SOURCE MIDI
        HASDATA 1 480 QN
        POOLEDEVTS {2494800E-8885-4F22-ABA3-E436420B9F1C}
        <X 0 0
          /wNQQVJUIEtFWVNfQU5JTV9SSA==
        >
        E 127848 b0 7b 00
        GUID {268DE88D-9169-44F5-97A1-ABDA1E2CF031}
        IGNTEMPO 0 120.00000000 4 4
        SRCCOLOR 1161
        VELLANE 132 128 60
        COLORMAP "C:\Program Files\REAPER (x64)\REAPER\Data\color_maps\rockband_guitarbass.png"
        TEXTSTRINGFILE "C:\Program Files\REAPER\Data\Text_Strings\Text Events List.txt"
        CFGEDITVIEW 2612.554938 0.179136 51 12 0 0 0
        CFGEDIT 1 1 0 0 1 1 1 1 1 1 1 0.25000000 0 0 683 728 1 0 0 2 0.00000000 0 0 0 0 0.500000 0 0 1.000000 64
        KEYSNAP 0 0 "102034050607" 0 "Major"
        EVTFILTER 1 -1 -1 -1 -1 0 1 0 0 -1.00000000 -1.00000000
      >
    >
  >
  <TRACK '{F014911F-41F0-491C-9A25-C3D2A462D8D7}'
    NAME "PART KEYS_ANIM_LH"
    PEAKCOL 16842624
    BEAT -1
    AUTOMODE 0
    VOLPAN 1.00000000000000 0.00000000000000 -1.00000000000000 -1.00000000000000 1.00000000000000
    MUTESOLO 1 0 0
    IPHASE 0
    ISBUS 2 -1
    BUSCOMP 0 0
    SHOWINMIX 1 0.666700 0.500000 1 0.500000 -1 -1 -1
    FREEMODE 0
    SEL 0
    REC 0 0 0 0 0 0 0
    TRACKHEIGHT 0 0
    INQ 0 0 0 0.5000000000 100 0 0 100
    NCHAN 2
    FX 1
    TRACKID {F014911F-41F0-491C-9A25-C3D2A462D8D7}
    PERF 0
    MIDIOUT -1
    <MIDINOTENAMES
      0 0 "C2-E3 Range"
      0 2 "D2-F3 Range"
      0 4 "E2-G3 Range"
      0 5 "F2-A3 Range"
      0 7 "G2-B3 Range"
      0 9 "A2-C4 Range"
      0 47 "----"
      0 48 "C2 (Lowest Note)"
      0 49 "C#2"
      0 50 "D2"
      0 51 "Eb2"
      0 52 "E2"
      0 53 "F2"
      0 54 "F#2"
      0 55 "G2"
      0 56 "G#2"
      0 57 "A2"
      0 58 "Bb2"
      0 59 "B2"
      0 60 "C3"
      0 61 "C#3"
      0 62 "D3"
      0 63 "Eb3"
      0 64 "E3"
      0 65 "F3"
      0 66 "F#3"
      0 67 "G3"
      0 68 "G#3"
      0 69 "A3"
      0 70 "Bb3"
      0 71 "B3"
      0 72 "C4 (Highest Note)"
      0 114 "----"
      0 115 "Solo Marker"
      0 116 "Overdrive Marker"
      0 125 "----"
      0 126 "Glissando Marker"
      0 127 "Trill Marker"
    >
    MAINSEND 1 0
    <FXCHAIN
      SHOW 0
      LASTSEL 0
      DOCKED 0
    >
    <ITEM
      POSITION 0.00000000000000
      SNAPOFFS 0.00000000000000
      LENGTH 96.84220114785178
      LOOP 0
      ALLTAKES 0
      SEL 0
      FADEIN 1 0.000000 0.000000 1 0
      FADEOUT 1 0.000000 0.000000 1 0
      MUTE 0
      IGUID {F0F97A68-91AD-4B41-8D32-822B6159FDBC}
      IID 20
      NAME "PART KEYS_ANIM_LH"
      VOLPAN 1.000000 0.000000 1.000000 -1.000000
      SOFFS 0.00000000000000 0.00000000000000
      PLAYRATE 1.00000000000000 1 0.00000000000000 -65536
      CHANMODE 0
      GUID {214023C3-6BA4-450F-A73F-59780553B94C}
      <SOURCE MIDI
        HASDATA 1 480 QN
        POOLEDEVTS {AB7A3861-A19D-4247-B3BA-EF669A0A66ED}
        <X 0 0
          /wNQQVJUIEtFWVNfQU5JTV9MSA==
        >
        E 127848 b0 7b 00
        GUID {9527D45A-14D5-4C89-A39E-3528B0F29941}
        IGNTEMPO 0 120.00000000 4 4
        SRCCOLOR 1162
        VELLANE 132 128 60
        COLORMAP "C:\Program Files\REAPER (x64)\REAPER\Data\color_maps\rockband_guitarbass.png"
        TEXTSTRINGFILE "C:\Program Files\REAPER\Data\Text_Strings\Text Events List.txt"
        CFGEDITVIEW -4299.275963 82.395269 11 17 0 0 0
        CFGEDIT 1 1 0 1 1 1 1 1 1 1 1 0.12500000 -8 -8 1374 736 1 2 1 2 0.00000000 0 0 0 0 0.500000 1 0 1.000000 64
        KEYSNAP 0 0 "102034050607" 0 "Major"
        EVTFILTER 1 -1 -1 -1 -1 0 1 0 0 -1.00000000 -1.00000000
      >
    >
  >
  <TRACK '{4BCC1CF3-63A3-43C4-A155-D3593AD88A10}'
    NAME "EVENTS"
    PEAKCOL 29393024
    BEAT -1
    AUTOMODE 0
    VOLPAN 1.00000000000000 0.00000000000000 -1.00000000000000 -1.00000000000000 1.00000000000000
    MUTESOLO 0 0 0
    IPHASE 0
    ISBUS 0 0
    BUSCOMP 0 0
    SHOWINMIX 1 0.666700 0.500000 1 0.500000 -1 -1 -1
    FREEMODE 0
    SEL 0
    REC 0 0 0 0 0 0 0
    TRACKHEIGHT 0 0
    INQ 0 0 0 0.5000000000 100 0 0 100
    NCHAN 2
    FX 1
    TRACKID {4BCC1CF3-63A3-43C4-A155-D3593AD88A10}
    PERF 0
    MIDIOUT -1
    MAINSEND 1 0
    <FXCHAIN
      SHOW 0
      LASTSEL 0
      DOCKED 0
    >
    <ITEM
      POSITION 0.00000000000000
      SNAPOFFS 0.00000000000000
      LENGTH 96.84220114785178
      LOOP 0
      ALLTAKES 0
      SEL 0
      FADEIN 1 0.000000 0.000000 1 0
      FADEOUT 1 0.000000 0.000000 1 0
      MUTE 0
      IGUID {86A06D27-867C-4398-9CE6-8F0526B3B594}
      IID 21
      NAME "EVENTS"
      VOLPAN 1.000000 0.000000 1.000000 -1.000000
      SOFFS 0.00000000000000 0.00000000000000
      PLAYRATE 1.00000000000000 1 0.00000000000000 -65536
      CHANMODE 0
      GUID {584C8192-4FF3-4E29-8138-2E6BD568B61A}
      <SOURCE MIDI
        HASDATA 1 480 QN
        POOLEDEVTS {1302C0F1-9DD2-4ABB-8942-701A22DBEF25}
        <X 0 0
          /wNFVkVOVFM=
        >
        <X 0 0
          /wFbY3Jvd2Rfbm9ybWFsXQ==
        >
        <X 0 0
          /wFbcHJjX2ludHJvXQ==
        >
        <X 3840 0
          /wFbbXVzaWNfc3RhcnRd
        >
        <X 22560 0
          /wFbcHJjX3ZlcnNlXQ==
        >
        <X 30240 0
          /wFbcHJjX3ByZWNob3J1c10=
        >
        <X 19680 0
          /wFbcHJjX2Nob3J1c10=
        >
        <X 35040 0
          /wFbcHJjX291dHJvXQ==
        >
        <X 14880 0
          /wFbbXVzaWNfZW5kXQ==
        >
        <X 1440 0
          /wFbZW5kXQ==
        >
        <X 9120 0
          /wFbcHJjX3ZlcnNlXzNiXQ==
        >
        <X 9600 0
          /wFbcHJjX3ZlcnNlXzNjXQ==
        >
        <X 15360 0
          /wFbcHJjX2Nob3J1c18yYV0=
        >
        <X 6720 0
          /wFbcHJjX291dHJvXQ==
        >
        <X 4320 0
          /wFbbXVzaWNfZW5kXQ==
        >
        <X 3360 0
          /wFbZW5kXQ==
        >
        E 0 b0 7b 00
        GUID {40AD7956-A22A-434A-8513-4D3792B9DF69}
        IGNTEMPO 0 120.00000000 4 4
        SRCCOLOR 1163
        VELLANE 132 100 100
        COLORMAP "C:\Program Files\REAPER (x64)\REAPER\Data\color_maps\rockband_guitarbass.png"
        TEXTSTRINGFILE "Text Events List.txt"
        CFGEDITVIEW -41140.788263 11.499245 5 48 0 0 0
        CFGEDIT 1 1 0 0 0 1 1 1 1 1 1 1.00000000 44 63 1223 847 1 2 1 2 0.00000000 0 0 0 0 0.500000 1 0 1.000000 64
        KEYSNAP 0 0 "102034050607" 0 "Major"
        EVTFILTER 1 -1 -1 -1 -1 0 1 0 0 -1.00000000 -1.00000000
      >
    >
  >
  <TRACK '{1529008F-97D2-43EB-8634-7C5A7418AD90}'
    NAME "VENUE"
    PEAKCOL 16842496
    BEAT -1
    AUTOMODE 0
    VOLPAN 1.00000000000000 0.00000000000000 -1.00000000000000 -1.00000000000000 1.00000000000000
    MUTESOLO 0 0 0
    IPHASE 0
    ISBUS 0 0
    BUSCOMP 0 0
    SHOWINMIX 1 0.666700 0.500000 1 0.500000 -1 -1 -1
    FREEMODE 0
    SEL 0
    REC 0 0 0 0 0 0 0
    TRACKHEIGHT 0 0
    INQ 0 0 0 0.5000000000 100 0 0 100
    NCHAN 2
    FX 1
    TRACKID {1529008F-97D2-43EB-8634-7C5A7418AD90}
    PERF 0
    MIDIOUT -1
    <MIDINOTENAMES
      0 37 "Spotlight on Bass"
      0 38 "Spotlight on Drums"
      0 39 "Spotlight on Guitar"
      0 40 "Spotlight on Vocals"
      0 41 "Spotlight on Keys"
      0 85 "Bassist Sing Along"
      0 86 "Drummer Sing Along"
      0 87 "Guitarist Sing Along"
    >
    MAINSEND 1 0
    <FXCHAIN
      SHOW 0
      LASTSEL 0
      DOCKED 0
    >
    <ITEM
      POSITION 0.00000000000000
      SNAPOFFS 0.00000000000000
      LENGTH 96.84220114785178
      LOOP 0
      ALLTAKES 0
      SEL 0
      FADEIN 1 0.000000 0.000000 1 0
      FADEOUT 1 0.000000 0.000000 1 0
      MUTE 0
      IGUID {71027329-E0AB-447D-A192-4839733334E7}
      IID 22
      NAME "VENUE"
      VOLPAN 1.000000 0.000000 1.000000 -1.000000
      SOFFS 0.00000000000000 0.00000000000000
      PLAYRATE 1.00000000000000 1 0.00000000000000 -65536
      CHANMODE 0
      GUID {44F0FFD1-5109-4A47-8BED-262AA04D3B23}
      <SOURCE MIDI
        HASDATA 1 480 QN
        POOLEDEVTS {FBF4355F-17EF-4C21-AB30-452108B88782}
        <X 0 0
          /wNWRU5VRQ==
        >
        <X 0 0
          /wFbbGlnaHRpbmcgKCld
        >
        E 127848 b0 7b 00
        GUID {30097062-47C5-4B33-B665-170EF09D70D9}
        IGNTEMPO 0 120.00000000 4 4
        SRCCOLOR 1164
        VELLANE 132 230 230
        COLORMAP "C:\Program Files\REAPER (x64)\REAPER\Data\color_maps\rockband_guitarbass.png"
        TEXTSTRINGFILE "C:\Program Files\REAPER (x64)\REAPER\Data\Text_Strings\Text Events List - Venue.txt"
        CFGEDITVIEW 70911.559052 121.434413 79 12 0 0 0
        CFGEDIT 1 1 0 0 1 1 1 1 1 1 1 0.25000000 133 19 1300 803 1 0 1 2 0.00000000 0 0 0 0 0.500000 1 0 1.000000 64
        KEYSNAP 0 0 "102034050607" 0 "Major"
        EVTFILTER 1 -1 -1 -1 -1 0 1 0 0 -1.00000000 -1.00000000
      >
    >
  >
  <TRACK '{B76C4B94-1B20-44BE-B1C9-7042531A2459}'
    NAME "BEAT"
    PEAKCOL 23514346
    BEAT -1
    AUTOMODE 0
    VOLPAN 1.00000000000000 0.00000000000000 -1.00000000000000 -1.00000000000000 1.00000000000000
    MUTESOLO 0 0 0
    IPHASE 0
    ISBUS 0 0
    BUSCOMP 1 0
    SHOWINMIX 1 0.666700 0.500000 1 0.500000 -1 -1 -1
    FREEMODE 0
    SEL 0
    REC 0 0 0 0 0 0 0
    TRACKHEIGHT 0 0
    INQ 0 0 0 0.5000000000 100 0 0 100
    NCHAN 2
    FX 1
    TRACKID {B76C4B94-1B20-44BE-B1C9-7042531A2459}
    PERF 0
    MIDIOUT -1
    <MIDINOTENAMES
      0 12 "Downbeat"
      0 13 "Up Beats"
    >
    MAINSEND 1 0
    <FXCHAIN
      SHOW 0
      LASTSEL 0
      DOCKED 0
    >
    <ITEM
      POSITION 0.00000000000000
      SNAPOFFS 0.00000000000000
      LENGTH 96.68274746228111
      LOOP 0
      ALLTAKES 0
      SEL 0
      FADEIN 1 0.000000 0.000000 1 0
      FADEOUT 1 0.000000 0.000000 1 0
      MUTE 0
      IGUID {9960CDFD-BF2E-4E67-97CD-4F13D0A3F2ED}
      IID 23
      NAME "BEAT"
      VOLPAN 1.000000 0.000000 1.000000 -1.000000
      SOFFS 0.00000000000000 0.00000000000000
      PLAYRATE 1.00000000000000 1 0.00000000000000 -65536
      CHANMODE 0
      GUID {CEBFDCF1-B2BD-47E1-A085-C26E1C9E9ED2}
      <SOURCE MIDI
        HASDATA 1 480 QN
        POOLEDEVTS {14CF349A-A2BA-4164-9905-91DB0C754392}
        <X 0 0
          /wNCRUFU
        >
        e 0 96 0c 64
        e 120 86 0c 00
        e 360 96 0d 64
        e 120 86 0d 00
        e 360 96 0d 64
        e 120 86 0d 00
        e 360 96 0d 64
        e 120 86 0d 00
        e 360 96 0c 64
        e 120 86 0c 00
        e 360 96 0d 64
        e 120 86 0d 00
        e 360 96 0d 64
        e 120 86 0d 00
        e 360 96 0d 64
        e 120 86 0d 00
        e 360 96 0c 64
        e 120 86 0c 00
        e 360 96 0d 64
        e 120 86 0d 00
        e 360 96 0d 64
        e 120 86 0d 00
        e 360 96 0d 64
        e 120 86 0d 00
        e 360 96 0c 64
        e 120 86 0c 00
        e 360 96 0d 64
        e 120 86 0d 00
        e 360 96 0d 64
        e 120 86 0d 00
        e 360 96 0d 64
        e 120 86 0d 00
        e 360 96 0c 64
        e 120 86 0c 00
        e 360 96 0d 64
        e 120 86 0d 00
        e 360 96 0d 64
        e 120 86 0d 00
        e 360 96 0d 64
        e 120 86 0d 00
        e 360 96 0c 64
        e 120 86 0c 00
        e 360 96 0d 64
        e 120 86 0d 00
        e 360 96 0d 64
        e 120 86 0d 00
        e 360 96 0d 64
        e 120 86 0d 00
        e 360 96 0c 64
        e 120 86 0c 00
        e 360 96 0d 64
        e 120 86 0d 00
        e 360 96 0d 64
        e 120 86 0d 00
        e 360 96 0d 64
        e 120 86 0d 00
        e 360 96 0c 64
        e 120 86 0c 00
        e 360 96 0d 64
        e 120 86 0d 00
        e 360 96 0d 64
        e 120 86 0d 00
        e 360 96 0d 64
        e 120 86 0d 00
        e 360 96 0c 64
        e 120 86 0c 00
        e 360 96 0d 64
        e 120 86 0d 00
        e 360 96 0d 64
        e 120 86 0d 00
        e 360 96 0d 64
        e 120 86 0d 00
        e 360 96 0c 64
        e 120 86 0c 00
        e 360 96 0d 64
        e 120 86 0d 00
        e 360 96 0d 64
        e 120 86 0d 00
        e 360 96 0d 64
        e 120 86 0d 00
        e 360 96 0c 64
        e 120 86 0c 00
        e 360 96 0d 64
        e 120 86 0d 00
        e 360 96 0d 64
        e 120 86 0d 00
        e 360 96 0d 64
        e 120 86 0d 00
        e 360 96 0c 64
        e 120 86 0c 00
        e 360 96 0d 64
        e 120 86 0d 00
        e 360 96 0d 64
        e 120 86 0d 00
        e 360 96 0d 64
        e 120 86 0d 00
        e 360 96 0c 64
        e 120 86 0c 00
        e 360 96 0d 64
        e 120 86 0d 00
        e 360 96 0d 64
        e 120 86 0d 00
        e 360 96 0d 64
        e 120 86 0d 00
        e 360 96 0c 64
        e 120 86 0c 00
        e 360 96 0d 64
        e 120 86 0d 00
        e 360 96 0d 64
        e 120 86 0d 00
        e 360 96 0d 64
        e 120 86 0d 00
        e 360 96 0c 64
        e 120 86 0c 00
        e 360 96 0d 64
        e 120 86 0d 00
        e 360 96 0d 64
        e 120 86 0d 00
        e 360 96 0d 64
        e 120 86 0d 00
        e 360 96 0c 64
        e 120 86 0c 00
        e 360 96 0d 64
        e 120 86 0d 00
        e 360 96 0d 64
        e 120 86 0d 00
        e 360 96 0d 64
        e 120 86 0d 00
        e 360 96 0c 64
        e 120 86 0c 00
        e 360 96 0d 64
        e 120 86 0d 00
        e 360 96 0d 64
        e 120 86 0d 00
        e 360 96 0d 64
        e 120 86 0d 00
        e 360 96 0c 64
        e 120 86 0c 00
        e 360 96 0d 64
        e 120 86 0d 00
        e 360 96 0d 64
        e 120 86 0d 00
        e 360 96 0d 64
        e 120 86 0d 00
        e 360 96 0c 64
        e 120 86 0c 00
        e 360 96 0d 64
        e 120 86 0d 00
        e 360 96 0d 64
        e 120 86 0d 00
        e 360 96 0d 64
        e 120 86 0d 00
        e 360 96 0c 64
        e 120 86 0c 00
        e 360 96 0d 64
        e 120 86 0d 00
        e 360 96 0d 64
        e 120 86 0d 00
        e 360 96 0d 64
        e 120 86 0d 00
        e 360 96 0c 64
        e 120 86 0c 00
        e 360 96 0d 64
        e 120 86 0d 00
        e 360 96 0d 64
        e 120 86 0d 00
        e 360 96 0d 64
        e 120 86 0d 00
        e 360 96 0c 64
        e 120 86 0c 00
        e 360 96 0d 64
        e 120 86 0d 00
        e 360 96 0d 64
        e 120 86 0d 00
        e 360 96 0d 64
        e 120 86 0d 00
        e 360 96 0c 64
        e 120 86 0c 00
        e 360 96 0d 64
        e 120 86 0d 00
        e 360 96 0d 64
        e 120 86 0d 00
        e 360 96 0d 64
        e 120 86 0d 00
        e 360 96 0c 64
        e 120 86 0c 00
        e 360 96 0d 64
        e 120 86 0d 00
        e 360 96 0d 64
        e 120 86 0d 00
        e 360 96 0d 64
        e 120 86 0d 00
        e 360 96 0c 64
        e 120 86 0c 00
        e 360 96 0d 64
        e 120 86 0d 00
        e 360 96 0d 64
        e 120 86 0d 00
        e 360 96 0d 64
        e 120 86 0d 00
        e 360 96 0c 64
        e 120 86 0c 00
        e 360 96 0d 64
        e 120 86 0d 00
        e 360 96 0d 64
        e 120 86 0d 00
        e 360 96 0d 64
        e 120 86 0d 00
        e 360 96 0c 64
        e 120 86 0c 00
        e 360 96 0d 64
        e 120 86 0d 00
        e 360 96 0d 64
        e 120 86 0d 00
        e 360 96 0d 64
        e 120 86 0d 00
        e 360 96 0c 64
        e 120 86 0c 00
        e 360 96 0d 64
        e 120 86 0d 00
        e 360 96 0d 64
        e 120 86 0d 00
        e 360 96 0d 64
        e 120 86 0d 00
        e 360 96 0c 64
        e 120 86 0c 00
        e 360 96 0d 64
        e 120 86 0d 00
        e 360 96 0d 64
        e 120 86 0d 00
        e 360 96 0d 64
        e 120 86 0d 00
        e 360 96 0c 64
        e 120 86 0c 00
        e 360 96 0d 64
        e 120 86 0d 00
        e 360 96 0d 64
        e 120 86 0d 00
        e 360 96 0d 64
        e 120 86 0d 00
        e 360 96 0c 64
        e 120 86 0c 00
        e 360 96 0d 64
        e 120 86 0d 00
        e 360 96 0d 64
        e 120 86 0d 00
        e 360 96 0d 64
        e 120 86 0d 00
        e 360 96 0c 64
        e 120 86 0c 00
        e 360 96 0d 64
        e 120 86 0d 00
        e 360 96 0d 64
        e 120 86 0d 00
        e 360 96 0d 64
        e 120 86 0d 00
        e 360 96 0c 64
        e 120 86 0c 00
        e 360 96 0d 64
        e 120 86 0d 00
        e 360 96 0d 64
        e 120 86 0d 00
        e 360 96 0d 64
        e 120 86 0d 00
        e 360 96 0c 64
        e 120 86 0c 00
        e 360 96 0d 64
        e 120 86 0d 00
        e 360 96 0d 64
        e 120 86 0d 00
        e 360 96 0d 64
        e 120 86 0d 00
        e 360 96 0c 64
        e 120 86 0c 00
        e 360 96 0d 64
        e 120 86 0d 00
        e 360 96 0d 64
        e 120 86 0d 00
        e 360 96 0d 64
        e 120 86 0d 00
        e 360 96 0c 64
        e 120 86 0c 00
        e 360 96 0d 64
        e 120 86 0d 00
        e 360 96 0d 64
        e 120 86 0d 00
        e 360 96 0d 64
        e 120 86 0d 00
        e 360 96 0c 64
        e 120 86 0c 00
        e 360 96 0d 64
        e 120 86 0d 00
        e 360 96 0d 64
        e 120 86 0d 00
        e 360 96 0d 64
        e 120 86 0d 00
        e 360 96 0c 64
        e 120 86 0c 00
        e 360 96 0d 64
        e 120 86 0d 00
        e 360 96 0d 64
        e 120 86 0d 00
        e 360 96 0d 64
        e 120 86 0d 00
        e 360 96 0c 64
        e 120 86 0c 00
        e 360 96 0d 64
        e 120 86 0d 00
        e 360 96 0d 64
        e 120 86 0d 00
        e 360 96 0d 64
        e 120 86 0d 00
        e 360 96 0c 64
        e 120 86 0c 00
        e 360 96 0d 64
        e 120 86 0d 00
        e 360 96 0d 64
        e 120 86 0d 00
        e 360 96 0d 64
        e 120 86 0d 00
        e 360 96 0c 64
        e 120 86 0c 00
        e 360 96 0d 64
        e 120 86 0d 00
        e 360 96 0d 64
        e 120 86 0d 00
        e 360 96 0d 64
        e 120 86 0d 00
        e 360 96 0c 64
        e 120 86 0c 00
        e 360 96 0d 64
        e 120 86 0d 00
        e 360 96 0d 64
        e 120 86 0d 00
        e 360 96 0d 64
        e 120 86 0d 00
        e 360 96 0c 64
        e 120 86 0c 00
        e 360 96 0d 64
        e 120 86 0d 00
        e 360 96 0d 64
        e 120 86 0d 00
        e 360 96 0d 64
        e 120 86 0d 00
        e 360 96 0c 64
        e 120 86 0c 00
        e 360 96 0d 64
        e 120 86 0d 00
        e 360 96 0d 64
        e 120 86 0d 00
        e 360 96 0d 64
        e 120 86 0d 00
        e 360 96 0c 64
        e 120 86 0c 00
        e 360 96 0d 64
        e 120 86 0d 00
        e 360 96 0d 64
        e 120 86 0d 00
        e 360 96 0d 64
        e 120 86 0d 00
        e 360 96 0c 64
        e 120 86 0c 00
        e 360 96 0d 64
        e 120 86 0d 00
        e 360 96 0d 64
        e 120 86 0d 00
        e 360 96 0d 64
        e 120 86 0d 00
        e 360 96 0c 64
        e 120 86 0c 00
        e 360 96 0d 64
        e 120 86 0d 00
        e 360 96 0d 64
        e 120 86 0d 00
        e 360 96 0d 64
        e 120 86 0d 00
        e 360 96 0c 64
        e 120 86 0c 00
        e 360 96 0d 64
        e 120 86 0d 00
        e 360 96 0d 64
        e 120 86 0d 00
        e 360 96 0d 64
        e 120 86 0d 00
        e 360 96 0c 64
        e 120 86 0c 00
        e 360 96 0d 64
        e 120 86 0d 00
        e 360 96 0d 64
        e 120 86 0d 00
        e 360 96 0d 64
        e 120 86 0d 00
        e 360 96 0c 64
        e 120 86 0c 00
        e 360 96 0d 64
        e 120 86 0d 00
        e 360 96 0d 64
        e 120 86 0d 00
        e 360 96 0d 64
        e 120 86 0d 00
        e 360 96 0c 64
        e 120 86 0c 00
        e 360 96 0d 64
        e 120 86 0d 00
        e 360 96 0d 64
        e 120 86 0d 00
        e 360 96 0d 64
        e 120 86 0d 00
        e 360 96 0c 64
        e 120 86 0c 00
        e 360 96 0d 64
        e 120 86 0d 00
        e 360 96 0d 64
        e 120 86 0d 00
        e 360 96 0d 64
        e 120 86 0d 00
        e 360 96 0c 64
        e 120 86 0c 00
        e 360 96 0d 64
        e 120 86 0d 00
        e 360 96 0d 64
        e 120 86 0d 00
        e 360 96 0d 64
        e 120 86 0d 00
        e 360 96 0c 64
        e 120 86 0c 00
        e 360 96 0d 64
        e 120 86 0d 00
        e 360 96 0d 64
        e 120 86 0d 00
        e 360 96 0d 64
        e 120 86 0d 00
        e 360 96 0c 64
        e 120 86 0c 00
        e 360 96 0d 64
        e 120 86 0d 00
        e 360 96 0d 64
        e 120 86 0d 00
        e 360 96 0d 64
        e 120 86 0d 00
        e 360 96 0c 64
        e 120 86 0c 00
        e 360 96 0d 64
        e 120 86 0d 00
        e 360 96 0d 64
        e 120 86 0d 00
        e 360 96 0d 64
        e 120 86 0d 00
        e 360 96 0c 64
        e 120 86 0c 00
        e 360 96 0d 64
        e 120 86 0d 00
        e 360 96 0d 64
        e 120 86 0d 00
        e 360 96 0d 64
        e 120 86 0d 00
        e 360 96 0c 64
        e 120 86 0c 00
        e 360 96 0d 64
        e 120 86 0d 00
        e 360 96 0d 64
        e 120 86 0d 00
        e 360 96 0d 64
        e 120 86 0d 00
        e 360 96 0c 64
        e 120 86 0c 00
        e 360 96 0d 64
        e 120 86 0d 00
        e 360 96 0d 64
        e 120 86 0d 00
        e 360 96 0d 64
        e 120 86 0d 00
        e 360 96 0c 64
        e 120 86 0c 00
        e 360 96 0d 64
        e 120 86 0d 00
        e 360 96 0d 64
        e 120 86 0d 00
        e 360 96 0d 64
        e 120 86 0d 00
        e 360 96 0c 64
        e 120 86 0c 00
        e 360 96 0d 64
        e 120 86 0d 00
        e 360 96 0d 64
        e 120 86 0d 00
        e 360 96 0d 64
        e 120 86 0d 00
        e 360 96 0c 64
        e 120 86 0c 00
        e 360 96 0d 64
        e 120 86 0d 00
        e 360 96 0d 64
        e 120 86 0d 00
        e 360 96 0d 64
        e 120 86 0d 00
        e 360 96 0c 64
        e 120 86 0c 00
        e 360 96 0d 64
        e 120 86 0d 00
        e 360 96 0d 64
        e 120 86 0d 00
        e 360 96 0d 64
        e 120 86 0d 00
        e 360 96 0c 64
        e 120 86 0c 00
        e 360 96 0d 64
        e 120 86 0d 00
        e 360 96 0d 64
        e 120 86 0d 00
        e 360 96 0d 64
        e 120 86 0d 00
        e 360 96 0c 64
        e 120 86 0c 00
        e 360 96 0d 64
        e 120 86 0d 00
        e 360 96 0d 64
        e 120 86 0d 00
        e 360 96 0d 64
        e 120 86 0d 00
        e 360 96 0c 64
        e 120 86 0c 00
        e 360 96 0d 64
        e 120 86 0d 00
        e 360 96 0d 64
        e 120 86 0d 00
        e 360 96 0d 64
        e 120 86 0d 00
        e 360 96 0c 64
        e 120 86 0c 00
        e 360 96 0d 64
        e 120 86 0d 00
        e 360 96 0d 64
        e 120 86 0d 00
        e 360 96 0d 64
        e 120 86 0d 00
        e 360 96 0c 64
        e 120 86 0c 00
        e 360 96 0d 64
        e 120 86 0d 00
        e 360 96 0d 64
        e 120 86 0d 00
        e 360 96 0d 64
        e 120 86 0d 00
        e 360 96 0c 64
        e 120 86 0c 00
        e 360 96 0d 64
        e 120 86 0d 00
        e 360 96 0d 64
        e 120 86 0d 00
        e 360 96 0d 64
        e 120 86 0d 00
        e 360 96 0c 64
        e 120 86 0c 00
        e 360 96 0d 64
        e 120 86 0d 00
        e 360 96 0d 64
        e 120 86 0d 00
        e 360 96 0d 64
        e 120 86 0d 00
        e 360 96 0c 64
        e 120 86 0c 00
        e 360 96 0d 64
        e 120 86 0d 00
        e 360 96 0d 64
        e 120 86 0d 00
        e 360 96 0d 64
        e 120 86 0d 00
        e 360 96 0c 64
        e 120 86 0c 00
        e 360 96 0d 64
        e 120 86 0d 00
        e 360 96 0d 64
        e 120 86 0d 00
        e 360 96 0d 64
        e 120 86 0d 00
        e 360 96 0c 64
        e 120 86 0c 00
        e 360 96 0d 64
        e 120 86 0d 00
        e 360 96 0d 64
        e 120 86 0d 00
        e 360 96 0d 64
        e 120 86 0d 00
        e 360 96 0c 64
        e 120 86 0c 00
        e 360 96 0d 64
        e 120 86 0d 00
        e 360 96 0d 64
        e 120 86 0d 00
        e 360 96 0d 64
        e 120 86 0d 00
        e 360 96 0c 64
        e 120 86 0c 00
        e 360 96 0d 64
        e 120 86 0d 00
        e 360 96 0d 64
        e 120 86 0d 00
        e 360 96 0d 64
        e 120 86 0d 00
        e 360 96 0c 64
        e 120 86 0c 00
        e 360 96 0d 64
        e 120 86 0d 00
        e 360 96 0d 64
        e 120 86 0d 00
        e 360 96 0d 64
        e 120 86 0d 00
        e 360 96 0c 64
        e 120 86 0c 00
        e 360 96 0d 64
        e 120 86 0d 00
        e 360 96 0d 64
        e 120 86 0d 00
        e 360 96 0d 64
        e 120 86 0d 00
        e 360 96 0c 64
        e 120 86 0c 00
        e 360 96 0d 64
        e 120 86 0d 00
        e 360 96 0d 64
        e 120 86 0d 00
        e 360 96 0d 64
        e 120 86 0d 00
        e 360 96 0c 64
        e 120 86 0c 00
        e 360 96 0d 64
        e 120 86 0d 00
        e 360 96 0d 64
        e 120 86 0d 00
        e 360 96 0d 64
        e 120 86 0d 00
        e 360 96 0c 64
        e 120 86 0c 00
        e 360 96 0d 64
        e 120 86 0d 00
        e 360 96 0d 64
        e 120 86 0d 00
        e 360 96 0d 64
        e 120 86 0d 00
        e 360 96 0c 64
        e 120 86 0c 00
        e 360 96 0d 64
        e 120 86 0d 00
        e 360 96 0d 64
        e 120 86 0d 00
        e 360 96 0d 64
        e 120 86 0d 00
        e 360 96 0c 64
        e 120 86 0c 00
        e 360 96 0d 64
        e 120 86 0d 00
        e 360 96 0d 64
        e 120 86 0d 00
        e 360 96 0d 64
        e 120 86 0d 00
        e 360 96 0c 64
        e 120 86 0c 00
        e 360 96 0d 64
        e 120 86 0d 00
        e 360 96 0d 64
        e 120 86 0d 00
        e 360 96 0d 64
        e 120 86 0d 00
        e 360 96 0c 64
        e 120 86 0c 00
        e 360 96 0d 64
        e 120 86 0d 00
        e 360 96 0d 64
        e 120 86 0d 00
        e 360 96 0d 64
        e 120 86 0d 00
        e 360 96 0c 64
        e 120 86 0c 00
        e 360 96 0d 64
        e 120 86 0d 00
        e 360 96 0d 64
        e 120 86 0d 00
        e 360 96 0d 64
        e 120 86 0d 00
        e 360 96 0c 64
        e 120 86 0c 00
        e 360 96 0d 64
        e 120 86 0d 00
        e 360 96 0d 64
        e 120 86 0d 00
        e 360 96 0d 64
        e 120 86 0d 00
        e 360 96 0c 64
        e 120 86 0c 00
        e 360 96 0d 64
        e 120 86 0d 00
        e 360 96 0d 64
        e 120 86 0d 00
        e 360 96 0d 64
        e 120 86 0d 00
        e 360 96 0c 64
        e 120 86 0c 00
        e 360 96 0d 64
        e 120 86 0d 00
        e 360 96 0d 64
        e 120 86 0d 00
        e 360 96 0d 64
        e 120 86 0d 00
        e 360 96 0c 64
        e 120 86 0c 00
        e 360 96 0d 64
        e 120 86 0d 00
        e 360 96 0d 64
        e 120 86 0d 00
        e 360 96 0d 64
        e 120 86 0d 00
        e 360 96 0c 64
        e 120 86 0c 00
        e 360 96 0d 64
        e 120 86 0d 00
        e 360 96 0d 64
        e 120 86 0d 00
        e 360 96 0d 64
        e 120 86 0d 00
        e 360 96 0c 64
        e 120 86 0c 00
        e 360 96 0d 64
        e 120 86 0d 00
        e 360 96 0d 64
        e 120 86 0d 00
        e 360 96 0d 64
        e 120 86 0d 00
        e 360 96 0c 64
        e 120 86 0c 00
        e 360 96 0d 64
        e 120 86 0d 00
        e 360 96 0d 64
        e 120 86 0d 00
        E 0 b0 7b 00
        GUID {8CB930E8-B6A0-4CAD-825A-9F47FB66C1D0}
        IGNTEMPO 0 120.00000000 4 4
        SRCCOLOR 1071
        VELLANE 132 100 100
        COLORMAP "M:\RGS Documents\ColorMaps\rockband_vox-other.png"
        TEXTSTRINGFILE "Text Events List.txt"
        CFGEDITVIEW -41140.788263 11.499245 0 48 0 0 0
        CFGEDIT 1 1 0 0 0 1 1 1 1 1 1 1.00000000 44 63 1223 847 1 2 1 2 0.00000000 0 0 0 0 0.500000 1 0 1.000000 64
        KEYSNAP 0 0 "102034050607" 0 "Major"
        EVTFILTER 0 -1 -1 -1 -1 0 1 0 0 -1.00000000 -1.00000000
      >
    >
  >
  <TRACK '{0E2FE3F2-76C0-4A51-94D0-F118951ACC28}'
    NAME "PART REAL_GUITAR"
    PEAKCOL 16576
    BEAT -1
    AUTOMODE 0
    VOLPAN 1.00000000000000 0.00000000000000 -1.00000000000000 -1.00000000000000 1.00000000000000
    MUTESOLO 1 0 0
    IPHASE 0
    ISBUS 0 0
    BUSCOMP 0 0
    SHOWINMIX 1 0.666700 0.500000 1 0.500000 -1 -1 -1
    FREEMODE 0
    SEL 0
    REC 0 0 0 0 0 0 0
    TRACKHEIGHT 0 0
    INQ 0 0 0 0.5000000000 100 0 0 100
    NCHAN 2
    FX 1
    TRACKID {0E2FE3F2-76C0-4A51-94D0-F118951ACC28}
    PERF 0
    MIDIOUT -1
    <MIDINOTENAMES
      0 4 "E"
      0 5 "F"
      0 6 "Gb"
      0 7 "G"
      0 8 "Ab"
      0 9 "A"
      0 10 "Bb"
      0 11 "B"
      0 12 "C"
      0 13 "Db"
      0 14 "D"
      0 15 "Eb"
      0 16 "Slash Chord"
      0 17 "Hide Chord Names"
      0 18 "Flat/Sharp Swap"
      0 21 "CHORD NAMES"
      0 24 "EASY E String (LOW)"
      0 25 "EASY A String"
      0 26 "EASY D String"
      0 27 "EASY G String"
      0 28 "EASY B String"
      0 29 "EASY E String (HIGH)"
      0 31 "EASY Slide Marker"
      0 32 "EASY Arpeggio Marker"
      0 48 "MEDIUM E String (LOW)"
      0 49 "MEDIUM A String"
      0 50 "MEDIUM D String"
      0 51 "MEDIUM G String"
      0 52 "MEDIUM B String"
      0 53 "MEDIUM E String (HIGH)"
      0 55 "MEDIUM Slide Marker"
      0 56 "MEDIUM Arpeggio Marker"
      0 72 "HARD E String (LOW)"
      0 73 "HARD A String"
      0 74 "HARD D String"
      0 75 "HARD G String"
      0 76 "HARD B String"
      0 77 "HARD E String (HIGH)"
      0 78 "Force Ho/Po"
      0 79 "HARD Slide Marker"
      0 80 "HARD Arpeggio Marker"
      0 81 "HARD Strum Direction"
      0 96 "EXPERT E String (LOW)"
      0 97 "EXPERT A String"
      0 98 "EXPERT D String"
      0 99 "EXPERT G String"
      0 100 "EXPERT B String"
      0 101 "EXPERT E String (HIGH)"
      0 102 "EXPERT Force Ho/Po"
      0 103 "EXPERT Slide Marker"
      0 104 "EXPERT Arpeggio Marker"
      0 105 "EXPERT Strum Direction"
      0 107 "Force Chord Numbering"
      0 108 "Left hand position"
      0 115 "Solo Marker"
      0 116 "OVERDRIVE"
      0 120 "BRE (use all 6)"
      0 121 "BRE"
      0 122 "BRE"
      0 123 "BRE"
      0 124 "BRE"
      0 125 "BRE"
      0 126 "Tremelo"
      0 127 "Trill"
    >
    MAINSEND 1 0
    <FXCHAIN
      SHOW 0
      LASTSEL 0
      DOCKED 0
    >
    <ITEM
      POSITION 0.00000000000000
      SNAPOFFS 0.00000000000000
      LENGTH 97.21793733337573
      LOOP 0
      ALLTAKES 0
      SEL 0
      FADEIN 1 0.000000 0.000000 1 0
      FADEOUT 1 0.000000 0.000000 1 0
      MUTE 0
      IGUID {20F1321F-9ED7-4853-AD09-40B222B05CF8}
      IID 24
      NAME "PART REAL_GUITAR"
      VOLPAN 1.000000 0.000000 1.000000 -1.000000
      SOFFS 0.00000000000000 0.00000000000000
      PLAYRATE 1.00000000000000 1 0.00000000000000 -1
      CHANMODE 0
      GUID {3CDDC74F-292B-448F-83EC-680F8CEF1C9B}
      <SOURCE MIDI
        HASDATA 1 480 QN
        POOLEDEVTS {0052AB10-6C18-4BA0-B1C7-4BB97EF83A13}
        <X 0 0
          /wNQQVJUIFJFQUxfR1VJVEFS
        >
        E 3840 90 18 64
        E 0 90 19 64
        E 0 90 1a 64
        E 0 90 1b 64
        E 0 90 1c 64
        E 0 90 1d 64
        E 0 90 30 64
        E 0 90 31 64
        E 0 90 32 64
        E 0 90 33 64
        E 0 90 34 64
        E 0 90 35 64
        E 0 90 48 64
        E 0 90 49 64
        E 0 90 4a 64
        E 0 90 4b 64
        E 0 90 4c 64
        E 0 90 4d 64
        E 0 90 60 64
        E 0 90 61 64
        E 0 90 62 64
        E 0 90 63 64
        E 0 90 64 64
        E 0 90 65 64
        E 120 80 18 00
        E 0 80 19 00
        E 0 80 1a 00
        E 0 80 1b 00
        E 0 80 1c 00
        E 0 80 1d 00
        E 0 80 30 00
        E 0 80 31 00
        E 0 80 32 00
        E 0 80 33 00
        E 0 80 34 00
        E 0 80 35 00
        E 0 80 48 00
        E 0 80 49 00
        E 0 80 4a 00
        E 0 80 4b 00
        E 0 80 4c 00
        E 0 80 4d 00
        E 0 80 60 00
        E 0 80 61 00
        E 0 80 62 00
        E 0 80 63 00
        E 0 80 64 00
        E 0 80 65 00
        E 124368 b0 7b 00
        GUID {95EB2031-BC44-4B36-809B-F7595C07BF30}
        IGNTEMPO 0 120.00000000 4 4
        SRCCOLOR 1166
        VELLANE 132 123 128
        COLORMAP "C:\Program Files\REAPER (x64)\REAPER\Data\color_maps\rockband_guitarbass.png"
        TEXTSTRINGFILE "C:\Program Files\REAPER\Data\Text_Strings\Text Events List.txt"
        CFGEDITVIEW 92386.937216 0.103438 87 12 0 0 0
        CFGEDIT 1 1 0 0 0 1 1 1 1 1 1 0.25000000 0 0 683 728 1 0 0 2 0.12500000 0 1 0 0 0.500000 0 0 1.000000 64
        KEYSNAP 0 0 "102034050607" 0 "Major"
        EVTFILTER 1 -1 -1 -1 -1 0 1 0 0 -1.00000000 -1.00000000
      >
    >
  >
  <TRACK '{4048E3A2-B3FC-493C-BF0E-D7B7B9F9DFF3}'
    NAME "PART REAL_BASS"
    PEAKCOL 16576
    BEAT -1
    AUTOMODE 0
    VOLPAN 1.00000000000000 0.00000000000000 -1.00000000000000 -1.00000000000000 1.00000000000000
    MUTESOLO 1 0 0
    IPHASE 0
    ISBUS 0 0
    BUSCOMP 0 0
    SHOWINMIX 1 0.666700 0.500000 1 0.500000 -1 -1 -1
    FREEMODE 0
    SEL 0
    REC 0 0 0 0 0 0 0
    TRACKHEIGHT 0 0
    INQ 0 0 0 0.5000000000 100 0 0 100
    NCHAN 2
    FX 1
    TRACKID {4048E3A2-B3FC-493C-BF0E-D7B7B9F9DFF3}
    PERF 0
    MIDIOUT -1
    <MIDINOTENAMES
      0 4 "E"
      0 5 "F"
      0 6 "Gb"
      0 7 "G"
      0 8 "Ab"
      0 9 "A"
      0 10 "Bb"
      0 11 "B"
      0 12 "C"
      0 13 "Db"
      0 14 "D"
      0 15 "Eb"
      0 16 "Slash Chord"
      0 17 "Hide Chord Names"
      0 18 "Flat/Sharp Swap"
      0 21 "CHORD NAMES"
      0 24 "EASY E String (LOW)"
      0 25 "EASY A String"
      0 26 "EASY D String"
      0 27 "EASY G String"
      0 28 "EASY B String"
      0 29 "EASY E String (HIGH)"
      0 31 "EASY Slide Marker"
      0 32 "EASY Arpeggio Marker"
      0 48 "MEDIUM E String (LOW)"
      0 49 "MEDIUM A String"
      0 50 "MEDIUM D String"
      0 51 "MEDIUM G String"
      0 52 "MEDIUM B String"
      0 53 "MEDIUM E String (HIGH)"
      0 55 "MEDIUM Slide Marker"
      0 56 "MEDIUM Arpeggio Marker"
      0 72 "HARD E String (LOW)"
      0 73 "HARD A String"
      0 74 "HARD D String"
      0 75 "HARD G String"
      0 76 "HARD B String"
      0 77 "HARD E String (HIGH)"
      0 78 "Force Ho/Po"
      0 79 "HARD Slide Marker"
      0 80 "HARD Arpeggio Marker"
      0 81 "HARD Strum Direction"
      0 96 "EXPERT E String (LOW)"
      0 97 "EXPERT A String"
      0 98 "EXPERT D String"
      0 99 "EXPERT G String"
      0 100 "EXPERT B String"
      0 101 "EXPERT E String (HIGH)"
      0 102 "EXPERT Force Ho/Po"
      0 103 "EXPERT Slide Marker"
      0 104 "EXPERT Arpeggio Marker"
      0 105 "EXPERT Strum Direction"
      0 107 "Force Chord Numbering"
      0 108 "Left hand position"
      0 115 "Solo Marker"
      0 116 "OVERDRIVE"
      0 120 "BRE (use all 6)"
      0 121 "BRE"
      0 122 "BRE"
      0 123 "BRE"
      0 124 "BRE"
      0 125 "BRE"
      0 126 "Tremelo"
      0 127 "Trill"
    >
    MAINSEND 1 0
    <FXCHAIN
      SHOW 0
      LASTSEL 0
      DOCKED 0
    >
    <ITEM
      POSITION 0.00000000000000
      SNAPOFFS 0.00000000000000
      LENGTH 97.21793733337573
      LOOP 0
      ALLTAKES 0
      SEL 0
      FADEIN 1 0.000000 0.000000 1 0
      FADEOUT 1 0.000000 0.000000 1 0
      MUTE 0
      IGUID {20F1321F-9ED7-4853-AD09-40B222B05CF8}
      IID 25
      NAME "PART REAL_BASS"
      VOLPAN 1.000000 0.000000 1.000000 -1.000000
      SOFFS 0.00000000000000 0.00000000000000
      PLAYRATE 1.00000000000000 1 0.00000000000000 -1
      CHANMODE 0
      GUID {3CDDC74F-292B-448F-83EC-680F8CEF1C9B}
      <SOURCE MIDI
        HASDATA 1 480 QN
        POOLEDEVTS {3A3A10B3-0C98-422D-95EF-7DF0FAF0E93D}
        <X 0 0
          /wNQQVJUIFJFQUxfQkFTUw==
        >
        E 3840 90 18 64
        E 0 90 19 64
        E 0 90 1a 64
        E 0 90 1b 64
        E 0 90 30 64
        E 0 90 31 64
        E 0 90 32 64
        E 0 90 33 64
        E 0 90 48 64
        E 0 90 49 64
        E 0 90 4a 64
        E 0 90 4b 64
        E 0 90 60 64
        E 0 90 61 64
        E 0 90 62 64
        E 0 90 63 64
        E 120 80 18 00
        E 0 80 19 00
        E 0 80 1a 00
        E 0 80 1b 00
        E 0 80 30 00
        E 0 80 31 00
        E 0 80 32 00
        E 0 80 33 00
        E 0 80 48 00
        E 0 80 49 00
        E 0 80 4a 00
        E 0 80 4b 00
        E 0 80 60 00
        E 0 80 61 00
        E 0 80 62 00
        E 0 80 63 00
        E 124368 b0 7b 00
        GUID {95EB2031-BC44-4B36-809B-F7595C07BF30}
        IGNTEMPO 0 120.00000000 4 4
        SRCCOLOR 1167
        VELLANE 132 123 128
        COLORMAP "C:\Program Files\REAPER (x64)\REAPER\Data\color_maps\rockband_guitarbass.png"
        TEXTSTRINGFILE "C:\Program Files\REAPER\Data\Text_Strings\Text Events List.txt"
        CFGEDITVIEW 18611.518615 0.179136 0 12 0 0 0
        CFGEDIT 1 1 0 0 0 1 1 1 1 1 1 0.25000000 0 0 683 728 1 0 0 2 0.00000000 0 1 0 0 0.500000 0 0 1.000000 64
        KEYSNAP 0 0 "102034050607" 0 "Major"
        EVTFILTER 1 -1 -1 -1 -1 0 1 0 0 -1.00000000 -1.00000000
      >
    >
  >
>
