<REAPER_PROJECT 0.1 "4.22/x64"
  RIPPLE 0
  GROUPOVERRIDE 0 1 0
  AUTOXFADE 1
  ENVATTACH 1
  MIXERUIFLAGS 11 48
  PEAKGAIN 1.00000000000000
  FEEDBACK 0
  PANLAW 1.00000000000000
  PROJOFFS 0.00000000000000 0
  MAXPROJLEN 0 600.00000000000000
  GRID 1407 8 1.00000000000000 8 1.00000000000000 0
  TIMEMODE 1 0 -1
  CURSOR 0.00000000000000
  ZOOM 22.25117030417199 476 0
  VZOOMEX 0
  USE_REC_CFG 0
  RECMODE 1
  SMPTESYNC 0 30.000000 100 40 1000 300 0 0.000000 0
  LOOP 0
  LOOPGRAN 0 4.00000000000000
  RECORD_PATH "" ""
  <RECORD_CFG
    ZXZhdxgA
  >
  <APPLYFX_CFG
  >
  RENDER_FILE ""
  RENDER_PATTERN ""
  RENDER_FMT 0 2 0
  RENDER_1X 0
  RENDER_RANGE 1 0.00000000000000 0.00000000000000
  RENDER_RESAMPLE 3 0 1
  RENDER_ADDTOPROJ 0
  RENDER_STEMS 0
  RENDER_DITHER 0
  TIMELOCKMODE 0
  ITEMMIX 0
  DEFPITCHMODE 0
  TAKELANE 1
  SAMPLERATE 44100 0 0
  <RENDER_CFG
  >
  LOCK 1
  <METRONOME 6 2.000000
    VOL 0.752735 0.723913
    FREQ 800 1600 0
    BEATLEN 4
    SAMPLES "" ""
  >
  GLOBAL_AUTO -1
  TEMPO 120.00000000000000 4 4
  PLAYRATE 1.00000000000000 0 0.25000 4.00000
  SELECTION 0.00000000000000 0.00000000000000
  SELECTION2 0.00000000000000 0.00000000000000
  MASTERAUTOMODE 0
  MASTERTRACKHEIGHT 35
  MASTERPEAKCOL 16576
  MASTERMUTESOLO 0
  MASTERTRACKVIEW 1 0.666700 0.500000 0.500000 -1 -1 -1
  MASTERHWOUT 0 0 1.00000000000000 0.00000000000000 0 0 0 -1.00000000000000
  MASTER_NCH 2 2
  MASTER_VOLUME 1.05925372517729 0.00000000000000 -1.00000000000000 -1.00000000000000 1.00000000000000
  MASTER_FX 1
  MASTER_SEL 0
  <MASTERFXLIST
    SHOW 0
    LASTSEL 0
    DOCKED 0
    BYPASS 0 0
    <VST "VST: W1 Limiter (George Yohng)" "George Yohng_s W1 Limiter.dll" 0 ""
      THdGNO5e7f4CAAAAAQAAAAAAAAACAAAAAAAAAAIAAAABAAAAAAAAAA==
      AgAAAAAAAABMAAAAAQAAAAAAEAAMAACBdGhyZXNoAAD+1Hg/DAAAgQ==
      Y2VpbGluZwD+1Hg/DAAAgXJlbGVhc2UAMEAfPxQAAIFhZGFwdFJlbA==
      ZWFzZQAAAAAAAAAAAAAAgAAAEAAAAA==
    >
    FLOATPOS 24 24 481 152
    FXID {69D45D23-FE06-4141-B0BB-1A6D9443AFA8}
    WAK 0
  >
  <MASTERPLAYSPEEDENV
    ACT 0
    VIS 0 1 1.000000
    LANEHEIGHT 0 0
    ARM 0
    DEFSHAPE 0 -1 -1
  >
  <TEMPOENVEX
    ACT 1
    VIS 1 0 1.000000
    LANEHEIGHT 0 0
    ARM 0
    DEFSHAPE 1 -1 -1
    PT 0.000000000000 117.0000000000 1
    PT 2.051282051282 117.0000000000 1
    PT 4.102564102564 113.5919400650 1
    PT 6.215390064183 110.0017370822 1
    PT 8.397173792022 108.9530922907 1
    PT 10.599956613088 108.9530922907 1
    PT 12.802739434155 112.4677081710 1
    PT 14.936685292063 112.4677081710 1
    PT 17.070631149972 111.6186276027 1
    PT 19.220809889442 111.1216744124 1
    PT 21.380604558386 116.6732172582 1
    PT 23.437631917706 117.1305688021 1
    PT 25.486627346094 116.0111628448 1
    PT 27.555393783002 118.9566578480 1
    PT 29.572935334200 115.3596962716 1
    PT 31.653384639779 118.4291338664 1
    PT 33.679913013031 116.8742655881 1
    PT 35.733401852447 115.3596962716 1
    PT 37.813851158026 116.1120421168 1
    PT 39.880820230523 114.1272208841 1
    PT 41.983736591237 115.3596962716 1
    PT 44.064185896816 115.8601721773 1
    PT 46.135648380340 114.8635255349 1
    PT 48.225084507973 115.6093925839 1
    PT 50.301040402524 117.6465624972 1
    PT 52.341049008858 115.3596962716 1
    PT 54.421498314437 115.6093925839 1
    PT 56.497454208988 117.1305688021 1
    PT 58.546449637376 116.8742655881 1
    PT 60.599938476792 117.6465624972 1
    PT 62.639947083126 116.3650095289 1
    PT 64.702422744596 116.8742655881 1
    PT 66.755911584011 117.6465624972 1
    PT 68.795920190346 117.9062679332 1
    PT 70.831435385652 117.6465624972 1
    PT 72.871443991986 118.9566578480 1
    PT 74.888985543185 117.3879986236 1
    PT 76.933487560546 118.9566578480 1
    PT 78.951029111744 116.1120421168 1
    PT 81.017998184241 117.9062679332 1
    PT 83.053513379548 116.6190816021 1
    PT 85.111495629991 117.6465624973 1
    PT 87.151504236325 110.3544201937 1
    PT 89.326315173474 115.3596962716 1
    PT 91.406764479052 116.8742655881 1
    PT 93.460253318468 116.6190816021 1
    PT 95.518235568911 114.7155055278 1
    PT 97.610367743160 115.5093844588 1
    PT 99.688121002122 116.6190816021 1
    PT 101.746103252565 116.3650095289 1
    PT 103.808578914035 117.1305688021 1
    PT 105.857574342423 117.1305688021 1
    PT 107.906569770812 117.1305688021 1
    PT 109.955565199200 118.1671225083 1
    PT 111.986586983480 116.8742655881 1
    PT 114.040075822895 117.1305688021 1
    PT 116.089071251284 118.1671225083 1
    PT 118.120093035563 118.1671225083 1
    PT 120.151114819843 118.1671225083 1
    PT 122.182136604123 118.1671225083 1
    PT 124.213158388403 118.9566578480 1
    PT 126.230699939601 117.6465624972 1
    PT 128.270708545935 116.6190816021 1
    PT 130.328690796378 118.4291338664 1
    PT 132.355219169630 118.4291338664 1
    PT 134.381747542883 116.6190816021 1
    PT 136.439729793325 114.5562014341 1
    PT 138.534771327484 111.9515685877 1
    PT 140.678555492617 111.9515685877 1
    PT 142.822339657748 113.7100260353 1
    PT 144.932971484756 113.7100260353 1
    PT 147.043603311764 111.5459464440 1
    PT 149.195183065678 111.5459464440 1
    PT 151.346762819589 117.8072436974 1
    PT 153.383988990643 117.9644050621 1
    PT 155.418501010379 118.4366718269 1
    PT 157.444900404232 118.0677102325 1
    PT 159.477632296190 118.8079466602 1
    PT 161.497699191937 116.9744906933 1
    PT 163.549428578212 118.4366718269 1
    PT 165.575827972065 118.0677102325 1
    PT 167.608559864023 116.9744906933 1
    PT 169.660289250299 116.9744906933 1
    PT 171.712018636575 118.4366718269 1
    PT 173.738418030427 118.0677102325 1
    PT 175.771149922385 117.7010403249 1
    PT 177.810214312449 117.3366408193 1
    PT 179.855611200619 118.0677102325 1
    PT 181.888343092577 118.4366718269 1
    PT 183.914742486430 118.4366718269 1
    PT 185.941141880281 107.9764529475 1
    PT 188.163848715414 107.9764529475 1
  >
  <PROJBAY
  >
  <TRACK '{4D889F49-FE1F-4D1D-9FB8-BFD5BA06901A}'
    NAME "SONG AUDIO"
    PEAKCOL 16576
    BEAT -1
    AUTOMODE 0
    VOLPAN 1.00000000000000 0.00000000000000 -1.00000000000000 -1.00000000000000 1.00000000000000
    MUTESOLO 0 0 0
    IPHASE 0
    ISBUS 0 0
    BUSCOMP 0 0
    SHOWINMIX 1 0.666700 0.500000 1 0.500000 -1 -1 -1
    FREEMODE 0
    SEL 0
    REC 0 0 0 0 0 0 0
    TRACKHEIGHT 400 0
    INQ 0 0 0 0.5000000000 100 0 0 100
    NCHAN 2
    FX 1
    TRACKID {4D889F49-FE1F-4D1D-9FB8-BFD5BA06901A}
    PERF 0
    MIDIOUT -1
    MAINSEND 1 0
    <FXCHAIN
      SHOW 0
      LASTSEL 0
      DOCKED 0
      BYPASS 0 0
      <VST "VST: W1 Limiter (George Yohng)" "George Yohng_s W1 Limiter.dll" 0 ""
        THdGNO5e7f4CAAAAAQAAAAAAAAACAAAAAAAAAAIAAAABAAAAAAAAAA==
        AgAAAAAAAABMAAAAAQAAAAAAEAAMAACBdGhyZXNoAAD+1Hg/DAAAgQ==
        Y2VpbGluZwD+1Hg/DAAAgXJlbGVhc2UAMEAfPxQAAIFhZGFwdFJlbA==
        ZWFzZQAAAAAAAAAAAAAAgAAAEAAAAA==
      >
      FLOATPOS 24 24 481 152
      FXID {D32BE511-3942-4A83-B6D7-DF2FE763A2B4}
      WAK 0
    >
    <ITEM
      POSITION 0.00000000000000
      SNAPOFFS 0.00000000000000
      LENGTH 0.28216019417451
      LOOP 0
      ALLTAKES 0
      SEL 0
      FADEIN 1 0.000000 0.000000 1 0
      FADEOUT 1 0.000000 0.000000 1 0
      MUTE 0
      IGUID {D829F3DA-0BE5-4277-954B-C2D10DB114A6}
      IID 1
      NAME "stick.wav"
      VOLPAN 0.271028 0.000000 1.000000 -1.000000
      SOFFS 0.00000000000000
      PLAYRATE 1.00000000000052 1 0.00000000000000 -1
      CHANMODE 0
      GUID {3A242298-C3E5-4DC8-9A3C-2EE82D8D2134}
      <SOURCE WAVE
        FILE "C:\Users\wejaa\AppData\Roaming\REAPER\ProjectTemplates\hihat.wav"
      >
    >
    <ITEM
      POSITION 1.02564102564103
      SNAPOFFS 0.00000000000000
      LENGTH 0.28216019417451
      LOOP 0
      ALLTAKES 0
      SEL 0
      FADEIN 1 0.000000 0.000000 1 0
      FADEOUT 1 0.000000 0.000000 1 0
      MUTE 0
      IGUID {5AEC5162-2B2C-4FF2-BB3B-E29ADC0916FE}
      IID 2
      NAME "stick.wav"
      VOLPAN 0.271028 0.000000 1.000000 -1.000000
      SOFFS 0.00000000000000
      PLAYRATE 1.00000000000052 1 0.00000000000000 -1
      CHANMODE 0
      GUID {16E29BEE-96F5-48F0-9FB0-3F04A1AF90D5}
      <SOURCE WAVE
        FILE "C:\Users\wejaa\AppData\Roaming\REAPER\ProjectTemplates\hihat.wav"
      >
    >
    <ITEM
      POSITION 2.05128205128205
      SNAPOFFS 0.00000000000000
      LENGTH 0.28216019417451
      LOOP 0
      ALLTAKES 0
      SEL 0
      FADEIN 1 0.000000 0.000000 1 0
      FADEOUT 1 0.000000 0.000000 1 0
      MUTE 0
      IGUID {1FA8F8C4-F448-4E02-B340-4A6644F6D8AB}
      IID 3
      NAME "stick.wav"
      VOLPAN 0.271028 0.000000 1.000000 -1.000000
      SOFFS 0.00000000000000
      PLAYRATE 1.00000000000052 1 0.00000000000000 -1
      CHANMODE 0
      GUID {8D594F7C-8B39-4D29-A27D-55F46BC65189}
      <SOURCE WAVE
        FILE "C:\Users\wejaa\AppData\Roaming\REAPER\ProjectTemplates\hihat.wav"
      >
    >
    <ITEM
      POSITION 2.56410256410256
      SNAPOFFS 0.00000000000000
      LENGTH 0.28216019417451
      LOOP 0
      ALLTAKES 0
      SEL 0
      FADEIN 1 0.000000 0.000000 1 0
      FADEOUT 1 0.000000 0.000000 1 0
      MUTE 0
      IGUID {1D23FF37-8166-4C8E-915E-19EFDB52B4D8}
      IID 4
      NAME "stick.wav"
      VOLPAN 0.271028 0.000000 1.000000 -1.000000
      SOFFS 0.00000000000000
      PLAYRATE 1.00000000000052 1 0.00000000000000 -1
      CHANMODE 0
      GUID {1D91F480-CA0B-4E03-8204-02893D660CDF}
      <SOURCE WAVE
        FILE "C:\Users\wejaa\AppData\Roaming\REAPER\ProjectTemplates\hihat.wav"
      >
    >
    <ITEM
      POSITION 3.07692307692308
      SNAPOFFS 0.00000000000000
      LENGTH 0.28216019417451
      LOOP 0
      ALLTAKES 0
      SEL 0
      FADEIN 1 0.000000 0.000000 1 0
      FADEOUT 1 0.000000 0.000000 1 0
      MUTE 0
      IGUID {A6BA2F37-4089-4BF2-A73E-A602F32B7614}
      IID 5
      NAME "stick.wav"
      VOLPAN 0.271028 0.000000 1.000000 -1.000000
      SOFFS 0.00000000000000
      PLAYRATE 1.00000000000050 1 0.00000000000000 -1
      CHANMODE 0
      GUID {ABD24FE2-95CA-428E-ADD9-9A13921FCC29}
      <SOURCE WAVE
        FILE "C:\Users\wejaa\AppData\Roaming\REAPER\ProjectTemplates\hihat.wav"
      >
    >
    <ITEM
      POSITION 3.45036584752995
      SNAPOFFS 0.00000000000000
      LENGTH 195.26666666666668
      LOOP 0
      ALLTAKES 0
      SEL 0
      FADEIN 1 0.000000 0.000000 1 0
      FADEOUT 1 0.000000 0.000000 1 0
      MUTE 0
      IGUID {95E5A73A-81BB-4CAE-BF2C-D1282899EB3B}
      IID 26
      NAME "11 Anna mulle piiskaa.wav"
      VOLPAN 1.000000 0.000000 1.000000 -1.000000
      SOFFS 0.00000000000000
      PLAYRATE 1.00000000000000 1 0.00000000000000 -1
      CHANMODE 0
      GUID {A984E4C6-BAD5-4F45-98EB-CBE2615F7E96}
      <SOURCE WAVE
        FILE "11 Anna mulle piiskaa.wav"
      >
    >
    <ITEM
      POSITION 3.60495213102143
      SNAPOFFS 0.00000000000000
      LENGTH 0.28216019417451
      LOOP 0
      ALLTAKES 0
      SEL 0
      FADEIN 1 0.000000 0.000000 1 0
      FADEOUT 1 0.000000 0.000000 1 0
      MUTE 0
      IGUID {49CCEEAD-12F1-472E-8B9C-48A90BF6E20A}
      IID 6
      NAME "stick.wav"
      VOLPAN 0.271028 0.000000 1.000000 -1.000000
      SOFFS 0.00000000000000
      PLAYRATE 1.00000000000052 1 0.00000000000000 -1
      CHANMODE 0
      GUID {3DFEA1C1-AD72-4DF8-A1BD-3977672F4D80}
      <SOURCE WAVE
        FILE "C:\Users\wejaa\AppData\Roaming\REAPER\ProjectTemplates\hihat.wav"
      >
    >
  >
  <TRACK '{BDCFF37A-71AC-4D17-AF26-EA560B308842}'
    NAME "COUNTIN"
    PEAKCOL 16576
    BEAT -1
    AUTOMODE 0
    VOLPAN 1.00000000000000 0.00000000000000 -1.00000000000000 -1.00000000000000 1.00000000000000
    MUTESOLO 0 0 0
    IPHASE 0
    ISBUS 0 0
    BUSCOMP 0 0
    SHOWINMIX 1 0.666700 0.500000 1 0.500000 -1 -1 -1
    FREEMODE 0
    SEL 0
    REC 0 0 0 0 0 0 0
    TRACKHEIGHT 58 0
    INQ 0 0 0 0.5000000000 100 0 0 100
    NCHAN 2
    FX 1
    TRACKID {BDCFF37A-71AC-4D17-AF26-EA560B308842}
    PERF 0
    MIDIOUT -1
    MAINSEND 1 0
  >
  <TRACK '{A37D2815-6180-4024-BFCC-EA0BA2E664B0}'
    NAME "1_11 Anna mulle piiskaa_(Drums)"
    PEAKCOL 16576
    BEAT -1
    AUTOMODE 0
    VOLPAN 1.00000000000000 0.00000000000000 -1.00000000000000 -1.00000000000000 1.00000000000000
    MUTESOLO 0 2 0
    IPHASE 0
    ISBUS 0 0
    BUSCOMP 0 0
    SHOWINMIX 1 0.666700 0.500000 1 0.500000 -1 -1 -1
    FREEMODE 0
    SEL 0
    REC 0 0 0 0 0 0 0
    VU 2
    TRACKHEIGHT 311 0
    INQ 0 0 0 0.5000000000 100 0 0 100
    NCHAN 2
    FX 1
    TRACKID {A37D2815-6180-4024-BFCC-EA0BA2E664B0}
    PERF 0
    MIDIOUT -1
    MAINSEND 1 0
    <ITEM
      POSITION 3.45036584755871
      SNAPOFFS 0.00000000000000
      LENGTH 195.26666666666668
      LOOP 0
      ALLTAKES 0
      SEL 0
      FADEIN 1 0.000000 0.000000 1 0
      FADEOUT 1 0.000000 0.000000 1 0
      MUTE 0
      IGUID {E154FE02-31FB-46C7-8F6A-5E67181E4E78}
      IID 28
      NAME "1_11 Anna mulle piiskaa_(Drums).wav"
      VOLPAN 1.000000 0.000000 1.000000 -1.000000
      SOFFS 0.00000000000000
      PLAYRATE 1.00000000000000 1 0.00000000000000 -1
      CHANMODE 0
      GUID {D3F126BF-2098-4B95-AA42-9E0142670B1C}
      <SOURCE WAVE
        FILE "1_11 Anna mulle piiskaa_(Drums).wav"
      >
    >
  >
  <TRACK '{8F33A645-3DF2-48FA-99BC-10992A4F8042}'
    NAME "PART DRUMS"
    PEAKCOL 16842751
    BEAT -1
    AUTOMODE 0
    VOLPAN 1.00000000000000 0.00000000000000 -1.00000000000000 -1.00000000000000 1.00000000000000
    MUTESOLO 0 2 0
    IPHASE 0
    ISBUS 0 0
    BUSCOMP 1 0
    SHOWINMIX 1 0.666700 0.500000 1 0.500000 -1 -1 -1
    FREEMODE 0
    SEL 0
    REC 0 4096 1 7 0 0 0
    TRACKHEIGHT 123 0
    INQ 0 0 0 0.5000000000 100 0 0 100
    NCHAN 2
    FX 1
    TRACKID {8F33A645-3DF2-48FA-99BC-10992A4F8042}
    PERF 0
    MIDIOUT -1
    <MIDINOTENAMES
      0 84 "HARD Kick"
      0 96 "EXPERT Kick"
      0 72 "MEDIUM Kick"
      0 60 "EASY Kick"
      0 97 "EXPERT Red"
      0 98 "EXPERT Yellow"
      0 99 "EXPERT Blue"
      0 100 "EXPERT Green"
      0 85 "HARD Red"
      0 86 "HARD Yellow"
      0 87 "HARD Blue"
      0 88 "HARD Green"
      0 73 "MEDIUM Red"
      0 74 "MEDIUM Yellow"
      0 75 "MEDIUM Blue"
      0 76 "MEDIUM Green"
      0 61 "EASY Red"
      0 62 "EASY Yellow"
      0 63 "EASY Blue"
      0 64 "EASY Green"
      0 101 ""
      0 92 "----"
      0 80 "----"
      0 68 "----"
      0 120 "DRUM FILL (use all 5)"
      0 121 "DRUM FILL"
      0 122 "DRUM FILL"
      0 123 "DRUM FILL"
      0 124 "DRUM FILL"
      0 114 "----"
      0 116 "OVERDRIVE"
      0 118 "----"
      0 24 "KICK RF"
      0 25 "HI-HAT OPEN"
      0 26 "SNARE HARD LH"
      0 27 "SNARE HARD RH"
      0 30 "HI-HAT LH"
      0 31 "HI-HAT RH"
      0 32 "PERCUSSION RH"
      0 34 "CRASH1 HARD LH"
      0 35 "CRASH1 SOFT LH"
      0 36 "CRASH1 HARD RH"
      0 37 "CRASH1 SOFT RH"
      0 38 "CRASH2 HARD RH"
      0 39 "CRASH2 SOFT RH"
      0 40 "CRASH1 CHOKE"
      0 41 "CRASH2 CHOKE"
      0 42 "RIDE CYM RH"
      0 46 "TOM1 LH"
      0 47 "TOM1 RH"
      0 48 "TOM2 LH"
      0 49 "TOM2 RH"
      0 50 "FLOOR TOM LH"
      0 51 "FLOOR TOM RH"
      0 52 "--DRUM ANIMATION--"
      0 56 "----"
      0 103 "Solo Marker"
      0 102 "----"
      0 110 "PRO Yellow Tom"
      0 111 "PRO Blue Tom"
      0 112 "PRO Green Tom"
      0 108 "----"
      0 127 "Roll Marker 2-Lane / Cym"
      0 126 "Roll Marker 1-Lane"
      0 125 "----"
      0 28 "SNARE RIM LH"
      0 29 "SNARE RIM RH"
      0 43 "RIDE CYM LH"
      0 44 "CRASH2 HARD LH"
      0 45 "CRASH2 SOFT LH"
      0 33 "PERCUSSION LH"
    >
    MAINSEND 1 0
    <FXCHAIN
      WNDRECT -1498 506 1289 1232
      SHOW 0
      LASTSEL 1
      DOCKED 0
      BYPASS 1 0
      <VST "VSTi: ReaSynth (Cockos)" "reasynth.dll" 0 ""
        eXNlcu9e7f4AAAAAAgAAAAEAAAAAAAAAAgAAAAAAAAA4AAAAAAAAAA==
        AAAAAO++rd4N8K3eAAAAAAAAAAAAAAAAAAAAADm0SD59y9s+tbSxOQ==
        AAAAALbz/T5VpCs6AAAAAAAAAAAAAAAAAAA=
      >
      FLOATPOS 0 0 0 0
      FXID {58F55556-9407-4062-A048-6AFCC0B53535}
      WAK 0
      BYPASS 0 0
      <VST "VSTi: RBN Preview (RBN)" "rbprev_vst64_beta.dll" 0 ""
        dnBicu5e7f4AAAAAAgAAAAEAAAAAAAAAAgAAAAAAAAAEAAAAAQAAAA==
        AAAAAAMBqgAAAAAAAAA=
      >
      FLOATPOS 32 32 659 497
      FXID {D7126437-AB1E-4109-A0FA-F2D5D0AC68DC}
      WAK 0
    >
    <ITEM
      POSITION 0.00000000000000
      SNAPOFFS 0.00000000000000
      LENGTH 194.83196922085045
      LOOP 0
      ALLTAKES 0
      COLOR 19150555
      SEL 0
      FADEIN 1 0.000000 0.000000 1 0
      FADEOUT 1 0.000000 0.000000 1 0
      MUTE 0
      IGUID {9FF11F36-E94F-4396-9C0E-8449C916EC21}
      IID 7
      NAME "PART DRUMS"
      VOLPAN 1.000000 0.000000 1.000000 -1.000000
      SOFFS 0.00000000000000 0.00000000000000
      PLAYRATE 1.00000000000000 1 0.00000000000000 -65536
      CHANMODE 0
      GUID {70A79ADF-E70C-430A-913F-E16D0CC85517}
      <SOURCE MIDI
        HASDATA 1 480 QN
        POOLEDEVTS {A3EF58DD-B680-4F4C-BD3F-090F9AE8E192}
        <X 0 0
          /wNQQVJUIERSVU1T
        >
        <X 300 0
          /wFbbWl4IDEgZHJ1bXMwXQ==
        >
        <X 0 0
          /wFbbWl4IDAgZHJ1bXMwXQ==
        >
        <X 60 0
          /wFbbWl4IDIgZHJ1bXMwXQ==
        >
        <X 60 0
          /wFbbWl4IDMgZHJ1bXMwXQ==
        >
        <X 3420 0
          /wFbaWRsZV0=
        >
        <X 15360 0
          /wFbaW50ZW5zZV0=
        >
        E 0 99 60 50
        E 0 99 61 50
        E 0 99 54 50
        E 0 99 55 50
        E 0 99 49 50
        E 0 99 3d 50
        E 0 99 18 50
        E 0 99 1b 50
        E 60 89 60 00
        E 0 89 61 00
        E 0 89 54 00
        E 0 89 55 00
        E 0 89 49 00
        E 0 89 3d 00
        E 0 89 18 00
        E 0 89 1b 00
        E 60 99 61 50
        E 0 99 1a 50
        E 60 89 61 00
        E 0 89 1a 00
        E 60 99 60 50
        E 0 99 61 50
        E 0 99 54 50
        E 0 99 55 50
        E 0 99 18 50
        E 0 99 1b 50
        E 60 89 60 00
        E 0 89 61 00
        E 0 89 54 00
        E 0 89 55 00
        E 0 89 18 00
        E 0 89 1b 00
        E 60 99 61 50
        E 0 99 1a 50
        E 60 89 61 00
        E 0 89 1a 00
        E 60 99 60 50
        E 0 99 61 50
        E 0 99 54 50
        E 0 99 55 50
        E 0 99 49 50
        E 0 99 3d 50
        E 0 99 18 50
        E 0 99 1b 50
        E 60 89 60 00
        E 0 89 61 00
        E 0 89 54 00
        E 0 89 55 00
        E 0 89 49 00
        E 0 89 3d 00
        E 0 89 18 00
        E 0 89 1b 00
        E 60 99 61 50
        E 0 99 1a 50
        E 60 89 61 00
        E 0 89 1a 00
        E 60 99 60 50
        E 0 99 61 50
        E 0 99 54 50
        E 0 99 55 50
        E 0 99 18 50
        E 0 99 1b 50
        E 60 89 60 00
        E 0 89 61 00
        E 0 89 54 00
        E 0 89 55 00
        E 0 89 18 00
        E 0 89 1b 00
        E 60 99 61 50
        E 0 99 1a 50
        E 60 89 61 00
        E 0 89 1a 00
        E 60 99 60 50
        E 0 99 64 50
        E 0 99 54 50
        E 0 99 58 50
        E 0 99 48 50
        E 0 99 4c 50
        E 0 99 40 50
        E 0 99 18 50
        E 0 99 26 50
        E 58 89 60 00
        E 0 89 54 00
        E 0 89 48 00
        E 0 89 18 00
        E 2 89 64 00
        E 0 89 58 00
        E 0 89 4c 00
        E 0 89 40 00
        E 0 89 26 00
        E 180 90 62 50
        E 0 90 56 50
        E 0 90 26 50
        E 0 99 60 50
        E 0 99 64 50
        E 0 99 54 50
        E 0 99 58 50
        E 0 99 18 50
        E 0 99 22 50
        E 58 89 60 00
        E 0 89 54 00
        E 0 89 18 00
        E 2 80 62 00
        E 0 80 56 00
        E 0 80 26 00
        E 0 89 64 00
        E 0 89 58 00
        E 0 89 22 00
        E 180 99 61 50
        E 0 99 62 50
        E 0 99 55 50
        E 0 99 56 50
        E 0 99 49 50
        E 0 99 4a 50
        E 0 99 3d 50
        E 0 99 3e 50
        E 0 99 1a 50
        E 0 99 1f 50
        E 58 89 61 00
        E 0 89 55 00
        E 0 89 49 00
        E 0 89 3d 00
        E 0 89 1a 00
        E 2 89 62 00
        E 0 89 56 00
        E 0 89 4a 00
        E 0 89 3e 00
        E 0 89 1f 00
        E 180 99 60 50
        E 0 99 62 50
        E 0 99 54 50
        E 0 99 56 50
        E 0 99 18 50
        E 0 99 1f 50
        E 60 89 60 00
        E 0 89 62 00
        E 0 89 54 00
        E 0 89 56 00
        E 0 89 18 00
        E 0 89 1f 00
        E 60 99 61 50
        E 0 99 1a 50
        E 60 89 61 00
        E 0 89 1a 00
        E 60 99 60 50
        E 0 99 62 50
        E 0 99 54 50
        E 0 99 56 50
        E 0 99 48 50
        E 0 99 4a 50
        E 0 99 3e 50
        E 0 99 18 50
        E 0 99 1f 50
        E 60 89 60 00
        E 0 89 62 00
        E 0 89 54 00
        E 0 89 56 00
        E 0 89 48 00
        E 0 89 4a 00
        E 0 89 3e 00
        E 0 89 18 00
        E 0 89 1f 00
        E 60 99 61 50
        E 0 99 1a 50
        E 60 89 61 00
        E 0 89 1a 00
        E 60 99 60 50
        E 0 99 62 50
        E 0 99 54 50
        E 0 99 56 50
        E 0 99 18 50
        E 0 99 1f 50
        E 58 89 60 00
        E 0 89 62 00
        E 0 89 54 00
        E 0 89 56 00
        E 0 89 18 00
        E 0 89 1f 00
        E 182 99 61 50
        E 0 99 62 50
        E 0 99 55 50
        E 0 99 56 50
        E 0 99 49 50
        E 0 99 4a 50
        E 0 99 3d 50
        E 0 99 3e 50
        E 0 99 1a 50
        E 0 99 1f 50
        E 58 89 61 00
        E 0 89 62 00
        E 0 89 55 00
        E 0 89 56 00
        E 0 89 49 00
        E 0 89 4a 00
        E 0 89 3d 00
        E 0 89 3e 00
        E 0 89 1a 00
        E 0 89 1f 00
        E 182 99 60 50
        E 0 99 62 50
        E 0 99 54 50
        E 0 99 56 50
        E 0 99 18 50
        E 0 99 1f 50
        E 60 89 60 00
        E 0 89 62 00
        E 0 89 54 00
        E 0 89 56 00
        E 0 89 18 00
        E 0 89 1f 00
        E 60 99 61 50
        E 0 99 1a 50
        E 60 89 61 00
        E 0 89 1a 00
        E 60 99 60 50
        E 0 99 62 50
        E 0 99 54 50
        E 0 99 56 50
        E 0 99 48 50
        E 0 99 4a 50
        E 0 99 3e 50
        E 0 99 18 50
        E 0 99 1f 50
        E 58 89 60 00
        E 0 89 62 00
        E 0 89 54 00
        E 0 89 56 00
        E 0 89 48 00
        E 0 89 4a 00
        E 0 89 3e 00
        E 0 89 18 00
        E 0 89 1f 00
        E 182 99 60 50
        E 0 99 62 50
        E 0 99 54 50
        E 0 99 56 50
        E 0 99 18 50
        E 0 99 1f 50
        E 58 89 60 00
        E 0 89 62 00
        E 0 89 54 00
        E 0 89 56 00
        E 0 89 18 00
        E 0 89 1f 00
        E 182 99 61 50
        E 0 99 62 50
        E 0 99 55 50
        E 0 99 56 50
        E 0 99 49 50
        E 0 99 4a 50
        E 0 99 3d 50
        E 0 99 3e 50
        E 0 99 1a 50
        E 0 99 1f 50
        E 58 89 61 00
        E 0 89 62 00
        E 0 89 55 00
        E 0 89 56 00
        E 0 89 49 00
        E 0 89 4a 00
        E 0 89 3d 00
        E 0 89 3e 00
        E 0 89 1a 00
        E 0 89 1f 00
        E 182 99 60 50
        E 0 99 62 50
        E 0 99 54 50
        E 0 99 56 50
        E 0 99 18 50
        E 0 99 1f 50
        E 60 89 60 00
        E 0 89 62 00
        E 0 89 54 00
        E 0 89 56 00
        E 0 89 18 00
        E 0 89 1f 00
        E 60 99 61 50
        E 0 99 1a 50
        E 60 89 61 00
        E 0 89 1a 00
        E 60 99 60 50
        E 0 99 62 50
        E 0 99 54 50
        E 0 99 56 50
        E 0 99 48 50
        E 0 99 4a 50
        E 0 99 3e 50
        E 0 99 18 50
        E 0 99 1f 50
        E 60 89 60 00
        E 0 89 62 00
        E 0 89 54 00
        E 0 89 56 00
        E 0 89 48 00
        E 0 89 4a 00
        E 0 89 3e 00
        E 0 89 18 00
        E 0 89 1f 00
        E 60 99 61 50
        E 0 99 1a 50
        E 60 89 61 00
        E 0 89 1a 00
        E 60 99 60 50
        E 0 99 62 50
        E 0 99 54 50
        E 0 99 56 50
        E 0 99 18 50
        E 0 99 1f 50
        E 58 89 60 00
        E 0 89 62 00
        E 0 89 54 00
        E 0 89 56 00
        E 0 89 18 00
        E 0 89 1f 00
        E 182 99 61 50
        E 0 99 62 50
        E 0 99 55 50
        E 0 99 56 50
        E 0 99 49 50
        E 0 99 4a 50
        E 0 99 3d 50
        E 0 99 3e 50
        E 0 99 1a 50
        E 0 99 1f 50
        E 58 89 61 00
        E 0 89 62 00
        E 0 89 55 00
        E 0 89 56 00
        E 0 89 49 00
        E 0 89 4a 00
        E 0 89 3d 00
        E 0 89 3e 00
        E 0 89 1a 00
        E 0 89 1f 00
        E 182 99 60 50
        E 0 99 62 50
        E 0 99 54 50
        E 0 99 56 50
        E 0 99 18 50
        E 0 99 1f 50
        E 60 89 60 00
        E 0 89 62 00
        E 0 89 54 00
        E 0 89 56 00
        E 0 89 18 00
        E 0 89 1f 00
        E 60 99 61 50
        E 0 99 1a 50
        E 60 89 61 00
        E 0 89 1a 00
        E 60 99 60 50
        E 0 99 64 50
        E 0 99 54 50
        E 0 99 58 50
        E 0 99 48 50
        E 0 99 4c 50
        E 0 99 40 50
        E 0 99 18 50
        E 0 99 26 50
        E 58 89 60 00
        E 0 89 64 00
        E 0 89 54 00
        E 0 89 58 00
        E 0 89 48 00
        E 0 89 4c 00
        E 0 89 40 00
        E 0 89 18 00
        E 0 89 26 00
        E 182 99 60 50
        E 0 99 64 50
        E 0 99 54 50
        E 0 99 58 50
        E 0 99 18 50
        E 0 99 26 50
        E 58 89 60 00
        E 0 89 64 00
        E 0 89 54 00
        E 0 89 58 00
        E 0 89 18 00
        E 0 89 26 00
        E 182 99 61 50
        E 0 99 62 50
        E 0 99 55 50
        E 0 99 56 50
        E 0 99 49 50
        E 0 99 4a 50
        E 0 99 3d 50
        E 0 99 3e 50
        E 0 99 1a 50
        E 0 99 1f 50
        E 58 89 61 00
        E 0 89 62 00
        E 0 89 55 00
        E 0 89 56 00
        E 0 89 49 00
        E 0 89 4a 00
        E 0 89 3d 00
        E 0 89 3e 00
        E 0 89 1a 00
        E 0 89 1f 00
        E 182 99 60 50
        E 0 99 62 50
        E 0 99 54 50
        E 0 99 56 50
        E 0 99 18 50
        E 0 99 1f 50
        E 60 89 60 00
        E 0 89 62 00
        E 0 89 54 00
        E 0 89 56 00
        E 0 89 18 00
        E 0 89 1f 00
        E 60 99 61 50
        E 0 99 1a 50
        E 60 89 61 00
        E 0 89 1a 00
        E 60 99 60 50
        E 0 99 62 50
        E 0 99 54 50
        E 0 99 56 50
        E 0 99 48 50
        E 0 99 4a 50
        E 0 99 3e 50
        E 0 99 18 50
        E 0 99 1f 50
        E 60 89 60 00
        E 0 89 62 00
        E 0 89 54 00
        E 0 89 56 00
        E 0 89 48 00
        E 0 89 4a 00
        E 0 89 3e 00
        E 0 89 18 00
        E 0 89 1f 00
        E 60 99 61 50
        E 0 99 1a 50
        E 60 89 61 00
        E 0 89 1a 00
        E 60 99 60 50
        E 0 99 62 50
        E 0 99 54 50
        E 0 99 56 50
        E 0 99 18 50
        E 0 99 1f 50
        E 58 89 60 00
        E 0 89 62 00
        E 0 89 54 00
        E 0 89 56 00
        E 0 89 18 00
        E 0 89 1f 00
        E 182 99 61 50
        E 0 99 62 50
        E 0 99 55 50
        E 0 99 56 50
        E 0 99 49 50
        E 0 99 4a 50
        E 0 99 3d 50
        E 0 99 3e 50
        E 0 99 1a 50
        E 0 99 1f 50
        E 58 89 61 00
        E 0 89 62 00
        E 0 89 55 00
        E 0 89 56 00
        E 0 89 49 00
        E 0 89 4a 00
        E 0 89 3d 00
        E 0 89 3e 00
        E 0 89 1a 00
        E 0 89 1f 00
        E 182 99 60 50
        E 0 99 62 50
        E 0 99 54 50
        E 0 99 56 50
        E 0 99 18 50
        E 0 99 1f 50
        E 60 89 60 00
        E 0 89 62 00
        E 0 89 54 00
        E 0 89 56 00
        E 0 89 18 00
        E 0 89 1f 00
        E 60 99 61 50
        E 0 99 1a 50
        E 60 89 61 00
        E 0 89 1a 00
        E 60 99 60 50
        E 0 99 62 50
        E 0 99 54 50
        E 0 99 56 50
        E 0 99 48 50
        E 0 99 4a 50
        E 0 99 3e 50
        E 0 99 18 50
        E 0 99 1f 50
        E 58 89 60 00
        E 0 89 62 00
        E 0 89 54 00
        E 0 89 56 00
        E 0 89 48 00
        E 0 89 4a 00
        E 0 89 3e 00
        E 0 89 18 00
        E 0 89 1f 00
        E 182 99 60 50
        E 0 99 62 50
        E 0 99 54 50
        E 0 99 56 50
        E 0 99 18 50
        E 0 99 1f 50
        E 58 89 60 00
        E 0 89 62 00
        E 0 89 54 00
        E 0 89 56 00
        E 0 89 18 00
        E 0 89 1f 00
        E 182 99 61 50
        E 0 99 62 50
        E 0 99 55 50
        E 0 99 56 50
        E 0 99 49 50
        E 0 99 4a 50
        E 0 99 3d 50
        E 0 99 3e 50
        E 0 99 1a 50
        E 0 99 1f 50
        E 58 89 61 00
        E 0 89 62 00
        E 0 89 55 00
        E 0 89 56 00
        E 0 89 49 00
        E 0 89 4a 00
        E 0 89 3d 00
        E 0 89 3e 00
        E 0 89 1a 00
        E 0 89 1f 00
        E 182 99 60 50
        E 0 99 62 50
        E 0 99 54 50
        E 0 99 56 50
        E 0 99 18 50
        E 0 99 1f 50
        E 60 89 60 00
        E 0 89 62 00
        E 0 89 54 00
        E 0 89 56 00
        E 0 89 18 00
        E 0 89 1f 00
        E 60 99 61 50
        E 0 99 1a 50
        E 60 89 61 00
        E 0 89 1a 00
        E 60 99 60 50
        E 0 99 64 50
        E 0 99 54 50
        E 0 99 58 50
        E 0 99 48 50
        E 0 99 4c 50
        E 0 99 40 50
        E 0 99 18 50
        E 0 99 26 50
        E 60 89 60 00
        E 0 89 64 00
        E 0 89 54 00
        E 0 89 58 00
        E 0 89 48 00
        E 0 89 4c 00
        E 0 89 40 00
        E 0 89 18 00
        E 0 89 26 00
        E 180 90 74 50
        E 0 99 60 50
        E 0 99 61 50
        E 0 99 54 50
        E 0 99 55 50
        E 0 99 18 50
        E 0 99 1b 50
        E 60 89 60 00
        E 0 89 61 00
        E 0 89 54 00
        E 0 89 55 00
        E 0 89 18 00
        E 0 89 1b 00
        E 60 99 61 50
        E 0 99 1a 50
        E 60 89 61 00
        E 0 89 1a 00
        E 60 99 60 50
        E 0 99 61 50
        E 0 99 54 50
        E 0 99 55 50
        E 0 99 49 50
        E 0 99 3d 50
        E 0 99 18 50
        E 0 99 1b 50
        E 60 89 60 00
        E 0 89 61 00
        E 0 89 54 00
        E 0 89 55 00
        E 0 89 49 00
        E 0 89 3d 00
        E 0 89 18 00
        E 0 89 1b 00
        E 60 99 61 50
        E 0 99 1a 50
        E 60 89 61 00
        E 0 89 1a 00
        E 60 99 60 50
        E 0 99 61 50
        E 0 99 54 50
        E 0 99 55 50
        E 0 99 18 50
        E 0 99 1b 50
        E 60 89 60 00
        E 0 89 61 00
        E 0 89 54 00
        E 0 89 55 00
        E 0 89 18 00
        E 0 89 1b 00
        E 60 99 61 50
        E 0 99 1a 50
        E 60 89 61 00
        E 0 89 1a 00
        E 60 99 60 50
        E 0 99 64 50
        E 0 99 54 50
        E 0 99 58 50
        E 0 99 48 50
        E 0 99 4c 50
        E 0 99 40 50
        E 0 99 18 50
        E 0 99 26 50
        E 58 89 60 00
        E 0 89 54 00
        E 0 89 48 00
        E 0 89 18 00
        E 2 89 64 00
        E 0 89 58 00
        E 0 89 4c 00
        E 0 89 40 00
        E 0 89 26 00
        E 180 99 60 50
        E 0 99 64 50
        E 0 99 54 50
        E 0 99 58 50
        E 0 99 18 50
        E 0 99 26 50
        E 58 89 60 00
        E 0 89 64 00
        E 0 89 54 00
        E 0 89 58 00
        E 0 89 18 00
        E 0 89 26 00
        E 2 80 74 00
        E 180 99 61 50
        E 0 99 62 50
        E 0 99 55 50
        E 0 99 56 50
        E 0 99 49 50
        E 0 99 4a 50
        E 0 99 3d 50
        E 0 99 3e 50
        E 0 99 1a 50
        E 0 99 1f 50
        E 58 89 61 00
        E 0 89 62 00
        E 0 89 55 00
        E 0 89 56 00
        E 0 89 49 00
        E 0 89 4a 00
        E 0 89 3d 00
        E 0 89 3e 00
        E 0 89 1a 00
        E 0 89 1f 00
        E 182 99 60 50
        E 0 99 62 50
        E 0 99 54 50
        E 0 99 56 50
        E 0 99 18 50
        E 0 99 1f 50
        E 60 89 60 00
        E 0 89 62 00
        E 0 89 54 00
        E 0 89 56 00
        E 0 89 18 00
        E 0 89 1f 00
        E 60 99 61 50
        E 0 99 1a 50
        E 60 89 61 00
        E 0 89 1a 00
        E 60 99 60 50
        E 0 99 62 50
        E 0 99 54 50
        E 0 99 56 50
        E 0 99 48 50
        E 0 99 4a 50
        E 0 99 3e 50
        E 0 99 18 50
        E 0 99 1f 50
        E 60 89 60 00
        E 0 89 62 00
        E 0 89 54 00
        E 0 89 56 00
        E 0 89 48 00
        E 0 89 4a 00
        E 0 89 3e 00
        E 0 89 18 00
        E 0 89 1f 00
        E 60 99 61 50
        E 0 99 1a 50
        E 60 89 61 00
        E 0 89 1a 00
        E 60 99 60 50
        E 0 99 62 50
        E 0 99 54 50
        E 0 99 56 50
        E 0 99 18 50
        E 0 99 1f 50
        E 58 89 60 00
        E 0 89 62 00
        E 0 89 54 00
        E 0 89 56 00
        E 0 89 18 00
        E 0 89 1f 00
        E 182 99 61 50
        E 0 99 62 50
        E 0 99 55 50
        E 0 99 56 50
        E 0 99 49 50
        E 0 99 4a 50
        E 0 99 3d 50
        E 0 99 3e 50
        E 0 99 1a 50
        E 0 99 1f 50
        E 58 89 61 00
        E 0 89 62 00
        E 0 89 55 00
        E 0 89 56 00
        E 0 89 49 00
        E 0 89 4a 00
        E 0 89 3d 00
        E 0 89 3e 00
        E 0 89 1a 00
        E 0 89 1f 00
        E 182 99 60 50
        E 0 99 62 50
        E 0 99 54 50
        E 0 99 56 50
        E 0 99 18 50
        E 0 99 1f 50
        E 60 89 60 00
        E 0 89 62 00
        E 0 89 54 00
        E 0 89 56 00
        E 0 89 18 00
        E 0 89 1f 00
        E 60 99 61 50
        E 0 99 1a 50
        E 60 89 61 00
        E 0 89 1a 00
        E 60 99 60 50
        E 0 99 62 50
        E 0 99 54 50
        E 0 99 56 50
        E 0 99 48 50
        E 0 99 4a 50
        E 0 99 3e 50
        E 0 99 18 50
        E 0 99 1f 50
        E 58 89 60 00
        E 0 89 62 00
        E 0 89 54 00
        E 0 89 56 00
        E 0 89 48 00
        E 0 89 4a 00
        E 0 89 3e 00
        E 0 89 18 00
        E 0 89 1f 00
        E 182 99 60 50
        E 0 99 62 50
        E 0 99 54 50
        E 0 99 56 50
        E 0 99 18 50
        E 0 99 1f 50
        E 58 89 60 00
        E 0 89 62 00
        E 0 89 54 00
        E 0 89 56 00
        E 0 89 18 00
        E 0 89 1f 00
        E 182 99 61 50
        E 0 99 62 50
        E 0 99 55 50
        E 0 99 56 50
        E 0 99 49 50
        E 0 99 4a 50
        E 0 99 3d 50
        E 0 99 3e 50
        E 0 99 1a 50
        E 0 99 1f 50
        E 58 89 61 00
        E 0 89 62 00
        E 0 89 55 00
        E 0 89 56 00
        E 0 89 49 00
        E 0 89 4a 00
        E 0 89 3d 00
        E 0 89 3e 00
        E 0 89 1a 00
        E 0 89 1f 00
        E 182 99 60 50
        E 0 99 62 50
        E 0 99 54 50
        E 0 99 56 50
        E 0 99 18 50
        E 0 99 1f 50
        E 60 89 60 00
        E 0 89 62 00
        E 0 89 54 00
        E 0 89 56 00
        E 0 89 18 00
        E 0 89 1f 00
        E 60 99 61 50
        E 0 99 1a 50
        E 60 89 61 00
        E 0 89 1a 00
        E 60 99 60 50
        E 0 99 62 50
        E 0 99 54 50
        E 0 99 56 50
        E 0 99 48 50
        E 0 99 4a 50
        E 0 99 3e 50
        E 0 99 18 50
        E 0 99 1f 50
        E 60 89 60 00
        E 0 89 62 00
        E 0 89 54 00
        E 0 89 56 00
        E 0 89 48 00
        E 0 89 4a 00
        E 0 89 3e 00
        E 0 89 18 00
        E 0 89 1f 00
        E 60 99 61 50
        E 0 99 1a 50
        E 60 89 61 00
        E 0 89 1a 00
        E 60 99 60 50
        E 0 99 62 50
        E 0 99 54 50
        E 0 99 56 50
        E 0 99 18 50
        E 0 99 1f 50
        E 58 89 60 00
        E 0 89 62 00
        E 0 89 54 00
        E 0 89 56 00
        E 0 89 18 00
        E 0 89 1f 00
        E 182 99 61 50
        E 0 99 62 50
        E 0 99 55 50
        E 0 99 56 50
        E 0 99 49 50
        E 0 99 4a 50
        E 0 99 3d 50
        E 0 99 3e 50
        E 0 99 1a 50
        E 0 99 1f 50
        E 58 89 61 00
        E 0 89 62 00
        E 0 89 55 00
        E 0 89 56 00
        E 0 89 49 00
        E 0 89 4a 00
        E 0 89 3d 00
        E 0 89 3e 00
        E 0 89 1a 00
        E 0 89 1f 00
        E 182 99 60 50
        E 0 99 62 50
        E 0 99 54 50
        E 0 99 56 50
        E 0 99 18 50
        E 0 99 1f 50
        E 60 89 60 00
        E 0 89 62 00
        E 0 89 54 00
        E 0 89 56 00
        E 0 89 18 00
        E 0 89 1f 00
        E 60 99 61 50
        E 0 99 1a 50
        E 60 89 61 00
        E 0 89 1a 00
        E 60 99 60 50
        E 0 99 64 50
        E 0 99 54 50
        E 0 99 58 50
        E 0 99 48 50
        E 0 99 4c 50
        E 0 99 40 50
        E 0 99 18 50
        E 0 99 26 50
        E 58 89 60 00
        E 0 89 64 00
        E 0 89 54 00
        E 0 89 58 00
        E 0 89 48 00
        E 0 89 4c 00
        E 0 89 40 00
        E 0 89 18 00
        E 0 89 26 00
        E 182 99 60 50
        E 0 99 64 50
        E 0 99 54 50
        E 0 99 58 50
        E 0 99 18 50
        E 0 99 26 50
        E 58 89 60 00
        E 0 89 64 00
        E 0 89 54 00
        E 0 89 58 00
        E 0 89 18 00
        E 0 89 26 00
        E 182 99 61 50
        E 0 99 62 50
        E 0 99 55 50
        E 0 99 56 50
        E 0 99 49 50
        E 0 99 4a 50
        E 0 99 3d 50
        E 0 99 3e 50
        E 0 99 1a 50
        E 0 99 1f 50
        E 58 89 61 00
        E 0 89 62 00
        E 0 89 55 00
        E 0 89 56 00
        E 0 89 49 00
        E 0 89 4a 00
        E 0 89 3d 00
        E 0 89 3e 00
        E 0 89 1a 00
        E 0 89 1f 00
        E 182 99 60 50
        E 0 99 62 50
        E 0 99 54 50
        E 0 99 56 50
        E 0 99 18 50
        E 0 99 1f 50
        E 60 89 60 00
        E 0 89 62 00
        E 0 89 54 00
        E 0 89 56 00
        E 0 89 18 00
        E 0 89 1f 00
        E 60 99 61 50
        E 0 99 1a 50
        E 60 89 61 00
        E 0 89 1a 00
        E 60 99 60 50
        E 0 99 62 50
        E 0 99 54 50
        E 0 99 56 50
        E 0 99 48 50
        E 0 99 4a 50
        E 0 99 3e 50
        E 0 99 18 50
        E 0 99 1f 50
        E 60 89 60 00
        E 0 89 62 00
        E 0 89 54 00
        E 0 89 56 00
        E 0 89 48 00
        E 0 89 4a 00
        E 0 89 3e 00
        E 0 89 18 00
        E 0 89 1f 00
        E 60 99 61 50
        E 0 99 1a 50
        E 60 89 61 00
        E 0 89 1a 00
        E 60 99 60 50
        E 0 99 62 50
        E 0 99 54 50
        E 0 99 56 50
        E 0 99 18 50
        E 0 99 1f 50
        E 58 89 60 00
        E 0 89 62 00
        E 0 89 54 00
        E 0 89 56 00
        E 0 89 18 00
        E 0 89 1f 00
        E 182 99 61 50
        E 0 99 62 50
        E 0 99 55 50
        E 0 99 56 50
        E 0 99 49 50
        E 0 99 4a 50
        E 0 99 3d 50
        E 0 99 3e 50
        E 0 99 1a 50
        E 0 99 1f 50
        E 58 89 61 00
        E 0 89 62 00
        E 0 89 55 00
        E 0 89 56 00
        E 0 89 49 00
        E 0 89 4a 00
        E 0 89 3d 00
        E 0 89 3e 00
        E 0 89 1a 00
        E 0 89 1f 00
        E 182 99 60 50
        E 0 99 62 50
        E 0 99 54 50
        E 0 99 56 50
        E 0 99 18 50
        E 0 99 1f 50
        E 60 89 60 00
        E 0 89 62 00
        E 0 89 54 00
        E 0 89 56 00
        E 0 89 18 00
        E 0 89 1f 00
        E 60 99 61 50
        E 0 99 1a 50
        E 60 89 61 00
        E 0 89 1a 00
        E 60 99 60 50
        E 0 99 64 50
        E 0 99 54 50
        E 0 99 58 50
        E 0 99 48 50
        E 0 99 4c 50
        E 0 99 40 50
        E 0 99 18 50
        E 0 99 26 50
        E 58 89 60 00
        E 0 89 54 00
        E 0 89 48 00
        E 0 89 18 00
        E 2 89 64 00
        E 0 89 58 00
        E 0 89 4c 00
        E 0 89 40 00
        E 0 89 26 00
        E 180 99 60 50
        E 0 99 61 50
        E 0 99 54 50
        E 0 99 55 50
        E 0 99 18 50
        E 0 99 1b 50
        E 60 89 60 00
        E 0 89 61 00
        E 0 89 54 00
        E 0 89 55 00
        E 0 89 18 00
        E 0 89 1b 00
        E 60 99 61 50
        E 0 99 1a 50
        E 60 89 61 00
        E 0 89 1a 00
        E 60 99 60 50
        E 0 99 61 50
        E 0 99 54 50
        E 0 99 55 50
        E 0 99 49 50
        E 0 99 3d 50
        E 0 99 18 50
        E 0 99 1b 50
        E 60 89 60 00
        E 0 89 61 00
        E 0 89 54 00
        E 0 89 55 00
        E 0 89 49 00
        E 0 89 3d 00
        E 0 89 18 00
        E 0 89 1b 00
        E 60 99 61 50
        E 0 99 1a 50
        E 60 89 61 00
        E 0 89 1a 00
        E 60 99 60 50
        E 0 99 63 50
        E 0 99 54 50
        E 0 99 57 50
        E 0 99 6f 50
        E 0 99 18 50
        E 0 99 31 50
        E 60 89 60 00
        E 0 89 63 00
        E 0 89 54 00
        E 0 89 57 00
        E 0 89 6f 00
        E 0 89 18 00
        E 0 89 31 00
        E 60 99 63 50
        E 0 99 6f 50
        E 0 99 30 50
        E 60 89 63 00
        E 0 89 6f 00
        E 0 89 30 00
        E 60 99 60 50
        E 0 99 63 50
        E 0 99 54 50
        E 0 99 57 50
        E 0 99 4b 50
        E 0 99 6f 50
        E 0 99 3f 50
        E 0 99 18 50
        E 0 99 31 50
        E 60 89 60 00
        E 0 89 63 00
        E 0 89 54 00
        E 0 89 57 00
        E 0 89 4b 00
        E 0 89 6f 00
        E 0 89 3f 00
        E 0 89 18 00
        E 0 89 31 00
        E 60 99 63 50
        E 0 99 6f 50
        E 0 99 30 50
        E 60 89 63 00
        E 0 89 6f 00
        E 0 89 30 00
        E 60 99 60 50
        E 0 99 63 50
        E 0 99 54 50
        E 0 99 57 50
        E 0 99 6f 50
        E 0 99 18 50
        E 0 99 31 50
        E 60 89 60 00
        E 0 89 63 00
        E 0 89 54 00
        E 0 89 57 00
        E 0 89 6f 00
        E 0 89 18 00
        E 0 89 31 00
        E 60 99 63 50
        E 0 99 6f 50
        E 0 99 30 50
        E 60 89 63 00
        E 0 89 6f 00
        E 0 89 30 00
        E 60 99 60 50
        E 0 99 63 50
        E 0 99 54 50
        E 0 99 57 50
        E 0 99 4b 50
        E 0 99 6f 50
        E 0 99 3f 50
        E 0 99 18 50
        E 0 99 31 50
        E 60 89 60 00
        E 0 89 63 00
        E 0 89 54 00
        E 0 89 57 00
        E 0 89 4b 00
        E 0 89 6f 00
        E 0 89 3f 00
        E 0 89 18 00
        E 0 89 31 00
        E 60 99 64 50
        E 0 99 70 50
        E 0 99 32 50
        E 60 89 64 00
        E 0 89 70 00
        E 0 89 32 00
        E 60 90 60 50
        E 0 90 54 50
        E 0 90 18 50
        E 0 99 64 50
        E 0 99 58 50
        E 0 99 70 50
        E 0 99 33 50
        E 60 80 60 00
        E 0 80 54 00
        E 0 80 18 00
        E 0 89 64 00
        E 0 89 58 00
        E 0 89 70 00
        E 0 89 33 00
        E 60 99 64 50
        E 0 99 70 50
        E 0 99 32 50
        E 60 89 64 00
        E 0 89 70 00
        E 0 89 32 00
        E 60 99 60 50
        E 0 99 64 50
        E 0 99 54 50
        E 0 99 58 50
        E 0 99 48 50
        E 0 99 4c 50
        E 0 99 40 50
        E 0 99 18 50
        E 0 99 26 50
        E 58 89 60 00
        E 0 89 54 00
        E 0 89 48 00
        E 0 89 18 00
        E 2 89 64 00
        E 0 89 58 00
        E 0 89 4c 00
        E 0 89 40 00
        E 0 89 26 00
        <X 180 0
          /wFbcGxheV0=
        >
        E 240 99 61 50
        E 0 99 62 50
        E 0 99 55 50
        E 0 99 56 50
        E 0 99 49 50
        E 0 99 4a 50
        E 0 99 3d 50
        E 0 99 3e 50
        E 0 99 1a 50
        E 0 99 1f 50
        E 58 89 61 00
        E 0 89 62 00
        E 0 89 55 00
        E 0 89 56 00
        E 0 89 49 00
        E 0 89 4a 00
        E 0 89 3d 00
        E 0 89 3e 00
        E 0 89 1a 00
        E 0 89 1f 00
        E 182 99 62 50
        E 0 99 56 50
        E 0 99 1f 50
        E 58 89 62 00
        E 0 89 56 00
        E 0 89 1f 00
        E 182 99 60 50
        E 0 99 62 50
        E 0 99 54 50
        E 0 99 56 50
        E 0 99 48 50
        E 0 99 4a 50
        E 0 99 3e 50
        E 0 99 18 50
        E 0 99 1f 50
        E 58 89 60 00
        E 0 89 62 00
        E 0 89 54 00
        E 0 89 56 00
        E 0 89 48 00
        E 0 89 4a 00
        E 0 89 3e 00
        E 0 89 18 00
        E 0 89 1f 00
        E 182 99 60 50
        E 0 99 62 50
        E 0 99 54 50
        E 0 99 56 50
        E 0 99 18 50
        E 0 99 1f 50
        E 58 89 60 00
        E 0 89 62 00
        E 0 89 54 00
        E 0 89 56 00
        E 0 89 18 00
        E 0 89 1f 00
        E 182 99 61 50
        E 0 99 62 50
        E 0 99 55 50
        E 0 99 56 50
        E 0 99 49 50
        E 0 99 4a 50
        E 0 99 3d 50
        E 0 99 3e 50
        E 0 99 1a 50
        E 0 99 1f 50
        E 58 89 61 00
        E 0 89 62 00
        E 0 89 55 00
        E 0 89 56 00
        E 0 89 49 00
        E 0 89 4a 00
        E 0 89 3d 00
        E 0 89 3e 00
        E 0 89 1a 00
        E 0 89 1f 00
        E 182 99 60 50
        E 0 99 62 50
        E 0 99 54 50
        E 0 99 56 50
        E 0 99 18 50
        E 0 99 1f 50
        E 58 89 60 00
        E 0 89 62 00
        E 0 89 54 00
        E 0 89 56 00
        E 0 89 18 00
        E 0 89 1f 00
        E 182 99 60 50
        E 0 99 62 50
        E 0 99 54 50
        E 0 99 56 50
        E 0 99 48 50
        E 0 99 4a 50
        E 0 99 3e 50
        E 0 99 18 50
        E 0 99 1f 50
        E 58 89 60 00
        E 0 89 62 00
        E 0 89 54 00
        E 0 89 56 00
        E 0 89 48 00
        E 0 89 4a 00
        E 0 89 3e 00
        E 0 89 18 00
        E 0 89 1f 00
        E 182 90 62 50
        E 0 90 56 50
        E 0 90 1f 50
        E 60 80 62 00
        E 0 80 56 00
        E 0 80 1f 00
        E 180 99 61 50
        E 0 99 62 50
        E 0 99 55 50
        E 0 99 56 50
        E 0 99 49 50
        E 0 99 4a 50
        E 0 99 3d 50
        E 0 99 3e 50
        E 0 99 1a 50
        E 0 99 1f 50
        E 58 89 61 00
        E 0 89 62 00
        E 0 89 55 00
        E 0 89 56 00
        E 0 89 49 00
        E 0 89 4a 00
        E 0 89 3d 00
        E 0 89 3e 00
        E 0 89 1a 00
        E 0 89 1f 00
        E 182 99 62 50
        E 0 99 56 50
        E 0 99 1f 50
        E 58 89 62 00
        E 0 89 56 00
        E 0 89 1f 00
        E 182 99 60 50
        E 0 99 62 50
        E 0 99 54 50
        E 0 99 56 50
        E 0 99 48 50
        E 0 99 4a 50
        E 0 99 3e 50
        E 0 99 18 50
        E 0 99 1f 50
        E 58 89 60 00
        E 0 89 62 00
        E 0 89 54 00
        E 0 89 56 00
        E 0 89 48 00
        E 0 89 4a 00
        E 0 89 3e 00
        E 0 89 18 00
        E 0 89 1f 00
        E 182 99 60 50
        E 0 99 62 50
        E 0 99 54 50
        E 0 99 56 50
        E 0 99 18 50
        E 0 99 1f 50
        E 58 89 60 00
        E 0 89 62 00
        E 0 89 54 00
        E 0 89 56 00
        E 0 89 18 00
        E 0 89 1f 00
        E 182 99 61 50
        E 0 99 62 50
        E 0 99 55 50
        E 0 99 56 50
        E 0 99 49 50
        E 0 99 4a 50
        E 0 99 3d 50
        E 0 99 3e 50
        E 0 99 1a 50
        E 0 99 1f 50
        E 58 89 61 00
        E 0 89 62 00
        E 0 89 55 00
        E 0 89 56 00
        E 0 89 49 00
        E 0 89 4a 00
        E 0 89 3d 00
        E 0 89 3e 00
        E 0 89 1a 00
        E 0 89 1f 00
        E 182 99 60 50
        E 0 99 62 50
        E 0 99 54 50
        E 0 99 56 50
        E 0 99 18 50
        E 0 99 1f 50
        E 58 89 60 00
        E 0 89 62 00
        E 0 89 54 00
        E 0 89 56 00
        E 0 89 18 00
        E 0 89 1f 00
        E 182 99 60 50
        E 0 99 64 50
        E 0 99 54 50
        E 0 99 58 50
        E 0 99 48 50
        E 0 99 4c 50
        E 0 99 40 50
        E 0 99 18 50
        E 0 99 26 50
        E 58 89 60 00
        E 0 89 54 00
        E 0 89 48 00
        E 0 89 18 00
        E 2 89 64 00
        E 0 89 58 00
        E 0 89 4c 00
        E 0 89 40 00
        E 0 89 26 00
        E 180 90 63 50
        E 0 90 57 50
        E 0 90 2a 50
        E 60 80 63 00
        E 0 80 57 00
        E 0 80 2a 00
        E 180 99 61 50
        E 0 99 63 50
        E 0 99 55 50
        E 0 99 57 50
        E 0 99 49 50
        E 0 99 4b 50
        E 0 99 3d 50
        E 0 99 3f 50
        E 0 99 1a 50
        E 0 99 2a 50
        E 58 89 61 00
        E 0 89 63 00
        E 0 89 55 00
        E 0 89 57 00
        E 0 89 49 00
        E 0 89 4b 00
        E 0 89 3d 00
        E 0 89 3f 00
        E 0 89 1a 00
        E 0 89 2a 00
        E 182 99 60 50
        E 0 99 63 50
        E 0 99 54 50
        E 0 99 57 50
        E 0 99 18 50
        E 0 99 2a 50
        E 58 89 60 00
        E 0 89 63 00
        E 0 89 54 00
        E 0 89 57 00
        E 0 89 18 00
        E 0 89 2a 00
        E 182 99 60 50
        E 0 99 63 50
        E 0 99 54 50
        E 0 99 57 50
        E 0 99 48 50
        E 0 99 4b 50
        E 0 99 3f 50
        E 0 99 18 50
        E 0 99 2a 50
        E 58 89 60 00
        E 0 89 63 00
        E 0 89 54 00
        E 0 89 57 00
        E 0 89 48 00
        E 0 89 4b 00
        E 0 89 3f 00
        E 0 89 18 00
        E 0 89 2a 00
        E 182 99 60 50
        E 0 99 63 50
        E 0 99 54 50
        E 0 99 57 50
        E 0 99 18 50
        E 0 99 2a 50
        E 58 89 60 00
        E 0 89 63 00
        E 0 89 54 00
        E 0 89 57 00
        E 0 89 18 00
        E 0 89 2a 00
        E 182 99 61 50
        E 0 99 63 50
        E 0 99 55 50
        E 0 99 57 50
        E 0 99 49 50
        E 0 99 4b 50
        E 0 99 3d 50
        E 0 99 3f 50
        E 0 99 1a 50
        E 0 99 2a 50
        E 58 89 61 00
        E 0 89 63 00
        E 0 89 55 00
        E 0 89 57 00
        E 0 89 49 00
        E 0 89 4b 00
        E 0 89 3d 00
        E 0 89 3f 00
        E 0 89 1a 00
        E 0 89 2a 00
        E 182 99 60 50
        E 0 99 63 50
        E 0 99 54 50
        E 0 99 57 50
        E 0 99 18 50
        E 0 99 2a 50
        E 58 89 60 00
        E 0 89 63 00
        E 0 89 54 00
        E 0 89 57 00
        E 0 89 18 00
        E 0 89 2a 00
        E 182 99 60 50
        E 0 99 63 50
        E 0 99 54 50
        E 0 99 57 50
        E 0 99 48 50
        E 0 99 4b 50
        E 0 99 3f 50
        E 0 99 18 50
        E 0 99 2a 50
        E 58 89 60 00
        E 0 89 63 00
        E 0 89 54 00
        E 0 89 57 00
        E 0 89 48 00
        E 0 89 4b 00
        E 0 89 3f 00
        E 0 89 18 00
        E 0 89 2a 00
        E 182 90 63 50
        E 0 90 57 50
        E 0 90 2a 50
        E 60 80 63 00
        E 0 80 57 00
        E 0 80 2a 00
        E 180 99 61 50
        E 0 99 63 50
        E 0 99 55 50
        E 0 99 57 50
        E 0 99 49 50
        E 0 99 4b 50
        E 0 99 3d 50
        E 0 99 3f 50
        E 0 99 1a 50
        E 0 99 2a 50
        E 58 89 61 00
        E 0 89 63 00
        E 0 89 55 00
        E 0 89 57 00
        E 0 89 49 00
        E 0 89 4b 00
        E 0 89 3d 00
        E 0 89 3f 00
        E 0 89 1a 00
        E 0 89 2a 00
        E 182 99 60 50
        E 0 99 63 50
        E 0 99 54 50
        E 0 99 57 50
        E 0 99 18 50
        E 0 99 2a 50
        E 58 89 60 00
        E 0 89 63 00
        E 0 89 54 00
        E 0 89 57 00
        E 0 89 18 00
        E 0 89 2a 00
        E 182 90 74 50
        E 0 99 60 50
        E 0 99 63 50
        E 0 99 54 50
        E 0 99 57 50
        E 0 99 48 50
        E 0 99 4b 50
        E 0 99 3f 50
        E 0 99 18 50
        E 0 99 2a 50
        E 58 89 60 00
        E 0 89 63 00
        E 0 89 54 00
        E 0 89 57 00
        E 0 89 48 00
        E 0 89 4b 00
        E 0 89 3f 00
        E 0 89 18 00
        E 0 89 2a 00
        E 182 99 60 50
        E 0 99 63 50
        E 0 99 54 50
        E 0 99 57 50
        E 0 99 18 50
        E 0 99 2a 50
        E 58 89 60 00
        E 0 89 63 00
        E 0 89 54 00
        E 0 89 57 00
        E 0 89 18 00
        E 0 89 2a 00
        E 182 99 61 50
        E 0 99 63 50
        E 0 99 55 50
        E 0 99 57 50
        E 0 99 49 50
        E 0 99 4b 50
        E 0 99 3d 50
        E 0 99 3f 50
        E 0 99 1a 50
        E 0 99 2a 50
        E 58 89 61 00
        E 0 89 63 00
        E 0 89 55 00
        E 0 89 57 00
        E 0 89 49 00
        E 0 89 4b 00
        E 0 89 3d 00
        E 0 89 3f 00
        E 0 89 1a 00
        E 0 89 2a 00
        E 182 99 60 50
        E 0 99 63 50
        E 0 99 54 50
        E 0 99 57 50
        E 0 99 18 50
        E 0 99 2a 50
        E 58 89 60 00
        E 0 89 63 00
        E 0 89 54 00
        E 0 89 57 00
        E 0 89 18 00
        E 0 89 2a 00
        E 182 99 60 50
        E 0 99 64 50
        E 0 99 54 50
        E 0 99 58 50
        E 0 99 48 50
        E 0 99 4c 50
        E 0 99 40 50
        E 0 99 18 50
        E 0 99 26 50
        E 58 89 60 00
        E 0 89 64 00
        E 0 89 54 00
        E 0 89 58 00
        E 0 89 48 00
        E 0 89 4c 00
        E 0 89 40 00
        E 0 89 18 00
        E 0 89 26 00
        E 2 80 74 00
        E 180 90 62 50
        E 0 90 56 50
        E 0 90 1f 50
        E 60 80 62 00
        E 0 80 56 00
        E 0 80 1f 00
        E 180 99 61 50
        E 0 99 62 50
        E 0 99 55 50
        E 0 99 56 50
        E 0 99 49 50
        E 0 99 4a 50
        E 0 99 3d 50
        E 0 99 3e 50
        E 0 99 1a 50
        E 0 99 1f 50
        E 58 89 61 00
        E 0 89 62 00
        E 0 89 55 00
        E 0 89 56 00
        E 0 89 49 00
        E 0 89 4a 00
        E 0 89 3d 00
        E 0 89 3e 00
        E 0 89 1a 00
        E 0 89 1f 00
        E 182 99 62 50
        E 0 99 56 50
        E 0 99 1f 50
        E 58 89 62 00
        E 0 89 56 00
        E 0 89 1f 00
        E 182 99 60 50
        E 0 99 62 50
        E 0 99 54 50
        E 0 99 56 50
        E 0 99 48 50
        E 0 99 4a 50
        E 0 99 3e 50
        E 0 99 18 50
        E 0 99 1f 50
        E 58 89 60 00
        E 0 89 62 00
        E 0 89 54 00
        E 0 89 56 00
        E 0 89 48 00
        E 0 89 4a 00
        E 0 89 3e 00
        E 0 89 18 00
        E 0 89 1f 00
        E 182 99 60 50
        E 0 99 62 50
        E 0 99 54 50
        E 0 99 56 50
        E 0 99 18 50
        E 0 99 1f 50
        E 58 89 60 00
        E 0 89 62 00
        E 0 89 54 00
        E 0 89 56 00
        E 0 89 18 00
        E 0 89 1f 00
        E 182 99 61 50
        E 0 99 62 50
        E 0 99 55 50
        E 0 99 56 50
        E 0 99 49 50
        E 0 99 4a 50
        E 0 99 3d 50
        E 0 99 3e 50
        E 0 99 1a 50
        E 0 99 1f 50
        E 58 89 61 00
        E 0 89 62 00
        E 0 89 55 00
        E 0 89 56 00
        E 0 89 49 00
        E 0 89 4a 00
        E 0 89 3d 00
        E 0 89 3e 00
        E 0 89 1a 00
        E 0 89 1f 00
        E 182 99 60 50
        E 0 99 62 50
        E 0 99 54 50
        E 0 99 56 50
        E 0 99 18 50
        E 0 99 1f 50
        E 58 89 60 00
        E 0 89 62 00
        E 0 89 54 00
        E 0 89 56 00
        E 0 89 18 00
        E 0 89 1f 00
        E 182 99 60 50
        E 0 99 62 50
        E 0 99 54 50
        E 0 99 56 50
        E 0 99 48 50
        E 0 99 4a 50
        E 0 99 3e 50
        E 0 99 18 50
        E 0 99 1f 50
        E 58 89 60 00
        E 0 89 62 00
        E 0 89 54 00
        E 0 89 56 00
        E 0 89 48 00
        E 0 89 4a 00
        E 0 89 3e 00
        E 0 89 18 00
        E 0 89 1f 00
        E 182 90 62 50
        E 0 90 56 50
        E 0 90 1f 50
        E 60 80 62 00
        E 0 80 56 00
        E 0 80 1f 00
        E 180 99 61 50
        E 0 99 62 50
        E 0 99 55 50
        E 0 99 56 50
        E 0 99 49 50
        E 0 99 4a 50
        E 0 99 3d 50
        E 0 99 3e 50
        E 0 99 1a 50
        E 0 99 1f 50
        E 58 89 61 00
        E 0 89 62 00
        E 0 89 55 00
        E 0 89 56 00
        E 0 89 49 00
        E 0 89 4a 00
        E 0 89 3d 00
        E 0 89 3e 00
        E 0 89 1a 00
        E 0 89 1f 00
        E 182 99 62 50
        E 0 99 56 50
        E 0 99 1f 50
        E 58 89 62 00
        E 0 89 56 00
        E 0 89 1f 00
        E 182 90 78 59
        E 0 90 79 59
        E 0 90 7a 59
        E 0 90 7b 59
        E 0 90 7c 59
        E 0 99 60 50
        E 0 99 62 50
        E 0 99 54 50
        E 0 99 56 50
        E 0 99 48 50
        E 0 99 4a 50
        E 0 99 3e 50
        E 0 99 18 50
        E 0 99 1f 50
        E 58 89 60 00
        E 0 89 62 00
        E 0 89 54 00
        E 0 89 56 00
        E 0 89 48 00
        E 0 89 4a 00
        E 0 89 3e 00
        E 0 89 18 00
        E 0 89 1f 00
        E 182 99 60 50
        E 0 99 62 50
        E 0 99 54 50
        E 0 99 56 50
        E 0 99 18 50
        E 0 99 1f 50
        E 58 89 60 00
        E 0 89 62 00
        E 0 89 54 00
        E 0 89 56 00
        E 0 89 18 00
        E 0 89 1f 00
        E 182 99 61 50
        E 0 99 62 50
        E 0 99 55 50
        E 0 99 56 50
        E 0 99 49 50
        E 0 99 4a 50
        E 0 99 3d 50
        E 0 99 3e 50
        E 0 99 1a 50
        E 0 99 1f 50
        E 58 89 61 00
        E 0 89 62 00
        E 0 89 55 00
        E 0 89 56 00
        E 0 89 49 00
        E 0 89 4a 00
        E 0 89 3d 00
        E 0 89 3e 00
        E 0 89 1a 00
        E 0 89 1f 00
        E 182 99 60 50
        E 0 99 62 50
        E 0 99 54 50
        E 0 99 56 50
        E 0 99 18 50
        E 0 99 1f 50
        E 58 89 60 00
        E 0 89 62 00
        E 0 89 54 00
        E 0 89 56 00
        E 0 89 18 00
        E 0 89 1f 00
        E 182 80 78 00
        E 0 80 79 00
        E 0 80 7a 00
        E 0 80 7b 00
        E 0 80 7c 00
        E 0 99 60 50
        E 0 99 64 50
        E 0 99 54 50
        E 0 99 58 50
        E 0 99 48 50
        E 0 99 4c 50
        E 0 99 40 50
        E 0 99 18 50
        E 0 99 26 50
        E 58 89 60 00
        E 0 89 54 00
        E 0 89 48 00
        E 0 89 18 00
        E 2 89 64 00
        E 0 89 58 00
        E 0 89 4c 00
        E 0 89 40 00
        E 0 89 26 00
        E 180 90 63 50
        E 0 90 57 50
        E 0 90 2a 50
        E 60 80 63 00
        E 0 80 57 00
        E 0 80 2a 00
        E 180 99 61 50
        E 0 99 63 50
        E 0 99 55 50
        E 0 99 57 50
        E 0 99 49 50
        E 0 99 4b 50
        E 0 99 3d 50
        E 0 99 3f 50
        E 0 99 1a 50
        E 0 99 2a 50
        E 58 89 61 00
        E 0 89 63 00
        E 0 89 55 00
        E 0 89 57 00
        E 0 89 49 00
        E 0 89 4b 00
        E 0 89 3d 00
        E 0 89 3f 00
        E 0 89 1a 00
        E 0 89 2a 00
        E 182 99 60 50
        E 0 99 63 50
        E 0 99 54 50
        E 0 99 57 50
        E 0 99 18 50
        E 0 99 2a 50
        E 58 89 60 00
        E 0 89 63 00
        E 0 89 54 00
        E 0 89 57 00
        E 0 89 18 00
        E 0 89 2a 00
        E 182 99 60 50
        E 0 99 63 50
        E 0 99 54 50
        E 0 99 57 50
        E 0 99 48 50
        E 0 99 4b 50
        E 0 99 3f 50
        E 0 99 18 50
        E 0 99 2a 50
        E 58 89 60 00
        E 0 89 63 00
        E 0 89 54 00
        E 0 89 57 00
        E 0 89 48 00
        E 0 89 4b 00
        E 0 89 3f 00
        E 0 89 18 00
        E 0 89 2a 00
        E 182 99 60 50
        E 0 99 63 50
        E 0 99 54 50
        E 0 99 57 50
        E 0 99 18 50
        E 0 99 2a 50
        E 58 89 60 00
        E 0 89 63 00
        E 0 89 54 00
        E 0 89 57 00
        E 0 89 18 00
        E 0 89 2a 00
        E 182 99 61 50
        E 0 99 63 50
        E 0 99 55 50
        E 0 99 57 50
        E 0 99 49 50
        E 0 99 4b 50
        E 0 99 3d 50
        E 0 99 3f 50
        E 0 99 1a 50
        E 0 99 2a 50
        E 58 89 61 00
        E 0 89 63 00
        E 0 89 55 00
        E 0 89 57 00
        E 0 89 49 00
        E 0 89 4b 00
        E 0 89 3d 00
        E 0 89 3f 00
        E 0 89 1a 00
        E 0 89 2a 00
        E 182 99 60 50
        E 0 99 63 50
        E 0 99 54 50
        E 0 99 57 50
        E 0 99 18 50
        E 0 99 2a 50
        E 58 89 60 00
        E 0 89 63 00
        E 0 89 54 00
        E 0 89 57 00
        E 0 89 18 00
        E 0 89 2a 00
        E 182 99 60 50
        E 0 99 63 50
        E 0 99 54 50
        E 0 99 57 50
        E 0 99 48 50
        E 0 99 4b 50
        E 0 99 3f 50
        E 0 99 18 50
        E 0 99 2a 50
        E 58 89 60 00
        E 0 89 63 00
        E 0 89 54 00
        E 0 89 57 00
        E 0 89 48 00
        E 0 89 4b 00
        E 0 89 3f 00
        E 0 89 18 00
        E 0 89 2a 00
        E 182 90 63 50
        E 0 90 57 50
        E 0 90 2a 50
        E 60 80 63 00
        E 0 80 57 00
        E 0 80 2a 00
        E 180 99 61 50
        E 0 99 63 50
        E 0 99 55 50
        E 0 99 57 50
        E 0 99 49 50
        E 0 99 4b 50
        E 0 99 3d 50
        E 0 99 3f 50
        E 0 99 1a 50
        E 0 99 2a 50
        E 58 89 61 00
        E 0 89 63 00
        E 0 89 55 00
        E 0 89 57 00
        E 0 89 49 00
        E 0 89 4b 00
        E 0 89 3d 00
        E 0 89 3f 00
        E 0 89 1a 00
        E 0 89 2a 00
        E 182 99 60 50
        E 0 99 63 50
        E 0 99 54 50
        E 0 99 57 50
        E 0 99 18 50
        E 0 99 2a 50
        E 58 89 60 00
        E 0 89 63 00
        E 0 89 54 00
        E 0 89 57 00
        E 0 89 18 00
        E 0 89 2a 00
        E 182 99 60 50
        E 0 99 63 50
        E 0 99 54 50
        E 0 99 57 50
        E 0 99 48 50
        E 0 99 4b 50
        E 0 99 3f 50
        E 0 99 18 50
        E 0 99 2a 50
        E 58 89 60 00
        E 0 89 63 00
        E 0 89 54 00
        E 0 89 57 00
        E 0 89 48 00
        E 0 89 4b 00
        E 0 89 3f 00
        E 0 89 18 00
        E 0 89 2a 00
        E 182 99 61 50
        E 0 99 63 50
        E 0 99 55 50
        E 0 99 57 50
        E 0 99 1a 50
        E 0 99 2a 50
        E 58 89 61 00
        E 0 89 63 00
        E 0 89 55 00
        E 0 89 57 00
        E 0 89 1a 00
        E 0 89 2a 00
        E 182 99 61 50
        E 0 99 64 50
        E 0 99 55 50
        E 0 99 58 50
        E 0 99 49 50
        E 0 99 4c 50
        E 0 99 3d 50
        E 0 99 40 50
        E 0 99 1a 50
        E 0 99 26 50
        E 58 89 61 00
        E 0 89 64 00
        E 0 89 55 00
        E 0 89 58 00
        E 0 89 49 00
        E 0 89 4c 00
        E 0 89 3d 00
        E 0 89 40 00
        E 0 89 1a 00
        E 0 89 26 00
        E 182 90 62 50
        E 0 90 56 50
        E 0 90 1f 50
        E 0 99 60 50
        E 0 99 54 50
        E 0 99 18 50
        E 58 89 60 00
        E 0 89 54 00
        E 0 89 18 00
        E 2 80 62 00
        E 0 80 56 00
        E 0 80 1f 00
        E 180 99 60 50
        E 0 99 64 50
        E 0 99 54 50
        E 0 99 58 50
        E 0 99 48 50
        E 0 99 4c 50
        E 0 99 40 50
        E 0 99 18 50
        E 0 99 26 50
        E 58 89 60 00
        E 0 89 54 00
        E 0 89 48 00
        E 0 89 18 00
        E 2 89 64 00
        E 0 89 58 00
        E 0 89 4c 00
        E 0 89 40 00
        E 0 89 26 00
        E 180 90 62 50
        E 0 90 56 50
        E 0 90 1f 50
        E 60 80 62 00
        E 0 80 56 00
        E 0 80 1f 00
        E 180 99 61 50
        E 0 99 62 50
        E 0 99 55 50
        E 0 99 56 50
        E 0 99 49 50
        E 0 99 4a 50
        E 0 99 3d 50
        E 0 99 3e 50
        E 0 99 1a 50
        E 0 99 1f 50
        E 58 89 61 00
        E 0 89 62 00
        E 0 89 55 00
        E 0 89 56 00
        E 0 89 49 00
        E 0 89 4a 00
        E 0 89 3d 00
        E 0 89 3e 00
        E 0 89 1a 00
        E 0 89 1f 00
        E 182 99 62 50
        E 0 99 56 50
        E 0 99 1f 50
        E 58 89 62 00
        E 0 89 56 00
        E 0 89 1f 00
        E 182 99 60 50
        E 0 99 62 50
        E 0 99 54 50
        E 0 99 56 50
        E 0 99 48 50
        E 0 99 4a 50
        E 0 99 3e 50
        E 0 99 18 50
        E 0 99 1f 50
        E 58 89 60 00
        E 0 89 62 00
        E 0 89 54 00
        E 0 89 56 00
        E 0 89 48 00
        E 0 89 4a 00
        E 0 89 3e 00
        E 0 89 18 00
        E 0 89 1f 00
        E 182 99 60 50
        E 0 99 62 50
        E 0 99 54 50
        E 0 99 56 50
        E 0 99 18 50
        E 0 99 1f 50
        E 58 89 60 00
        E 0 89 62 00
        E 0 89 54 00
        E 0 89 56 00
        E 0 89 18 00
        E 0 89 1f 00
        E 182 99 61 50
        E 0 99 62 50
        E 0 99 55 50
        E 0 99 56 50
        E 0 99 49 50
        E 0 99 4a 50
        E 0 99 3d 50
        E 0 99 3e 50
        E 0 99 1a 50
        E 0 99 1f 50
        E 58 89 61 00
        E 0 89 62 00
        E 0 89 55 00
        E 0 89 56 00
        E 0 89 49 00
        E 0 89 4a 00
        E 0 89 3d 00
        E 0 89 3e 00
        E 0 89 1a 00
        E 0 89 1f 00
        E 182 99 60 50
        E 0 99 62 50
        E 0 99 54 50
        E 0 99 56 50
        E 0 99 18 50
        E 0 99 1f 50
        E 58 89 60 00
        E 0 89 62 00
        E 0 89 54 00
        E 0 89 56 00
        E 0 89 18 00
        E 0 89 1f 00
        E 182 99 60 50
        E 0 99 62 50
        E 0 99 54 50
        E 0 99 56 50
        E 0 99 48 50
        E 0 99 4a 50
        E 0 99 3e 50
        E 0 99 18 50
        E 0 99 1f 50
        E 58 89 60 00
        E 0 89 62 00
        E 0 89 54 00
        E 0 89 56 00
        E 0 89 48 00
        E 0 89 4a 00
        E 0 89 3e 00
        E 0 89 18 00
        E 0 89 1f 00
        E 182 90 62 50
        E 0 90 56 50
        E 0 90 1f 50
        E 60 80 62 00
        E 0 80 56 00
        E 0 80 1f 00
        E 180 99 61 50
        E 0 99 62 50
        E 0 99 55 50
        E 0 99 56 50
        E 0 99 49 50
        E 0 99 4a 50
        E 0 99 3d 50
        E 0 99 3e 50
        E 0 99 1a 50
        E 0 99 1f 50
        E 58 89 61 00
        E 0 89 62 00
        E 0 89 55 00
        E 0 89 56 00
        E 0 89 49 00
        E 0 89 4a 00
        E 0 89 3d 00
        E 0 89 3e 00
        E 0 89 1a 00
        E 0 89 1f 00
        E 182 99 62 50
        E 0 99 56 50
        E 0 99 1f 50
        E 58 89 62 00
        E 0 89 56 00
        E 0 89 1f 00
        E 182 99 60 50
        E 0 99 62 50
        E 0 99 54 50
        E 0 99 56 50
        E 0 99 48 50
        E 0 99 4a 50
        E 0 99 3e 50
        E 0 99 18 50
        E 0 99 1f 50
        E 58 89 60 00
        E 0 89 62 00
        E 0 89 54 00
        E 0 89 56 00
        E 0 89 48 00
        E 0 89 4a 00
        E 0 89 3e 00
        E 0 89 18 00
        E 0 89 1f 00
        E 182 99 60 50
        E 0 99 62 50
        E 0 99 54 50
        E 0 99 56 50
        E 0 99 18 50
        E 0 99 1f 50
        E 58 89 60 00
        E 0 89 62 00
        E 0 89 54 00
        E 0 89 56 00
        E 0 89 18 00
        E 0 89 1f 00
        E 182 99 61 50
        E 0 99 62 50
        E 0 99 55 50
        E 0 99 56 50
        E 0 99 49 50
        E 0 99 4a 50
        E 0 99 3d 50
        E 0 99 3e 50
        E 0 99 1a 50
        E 0 99 1f 50
        E 58 89 61 00
        E 0 89 62 00
        E 0 89 55 00
        E 0 89 56 00
        E 0 89 49 00
        E 0 89 4a 00
        E 0 89 3d 00
        E 0 89 3e 00
        E 0 89 1a 00
        E 0 89 1f 00
        E 182 99 60 50
        E 0 99 62 50
        E 0 99 54 50
        E 0 99 56 50
        E 0 99 18 50
        E 0 99 1f 50
        E 58 89 60 00
        E 0 89 62 00
        E 0 89 54 00
        E 0 89 56 00
        E 0 89 18 00
        E 0 89 1f 00
        E 182 99 60 50
        E 0 99 64 50
        E 0 99 54 50
        E 0 99 58 50
        E 0 99 48 50
        E 0 99 4c 50
        E 0 99 40 50
        E 0 99 18 50
        E 0 99 26 50
        E 58 89 60 00
        E 0 89 54 00
        E 0 89 48 00
        E 0 89 18 00
        E 2 89 64 00
        E 0 89 58 00
        E 0 89 4c 00
        E 0 89 40 00
        E 0 89 26 00
        E 180 99 60 50
        E 0 99 63 50
        E 0 99 54 50
        E 0 99 57 50
        E 0 99 18 50
        E 0 99 2a 50
        E 58 89 60 00
        E 0 89 63 00
        E 0 89 54 00
        E 0 89 57 00
        E 0 89 18 00
        E 0 89 2a 00
        E 182 99 61 50
        E 0 99 63 50
        E 0 99 55 50
        E 0 99 57 50
        E 0 99 49 50
        E 0 99 4b 50
        E 0 99 3d 50
        E 0 99 3f 50
        E 0 99 1a 50
        E 0 99 2a 50
        E 58 89 61 00
        E 0 89 63 00
        E 0 89 55 00
        E 0 89 57 00
        E 0 89 49 00
        E 0 89 4b 00
        E 0 89 3d 00
        E 0 89 3f 00
        E 0 89 1a 00
        E 0 89 2a 00
        E 182 99 60 50
        E 0 99 63 50
        E 0 99 54 50
        E 0 99 57 50
        E 0 99 18 50
        E 0 99 2a 50
        E 58 89 60 00
        E 0 89 63 00
        E 0 89 54 00
        E 0 89 57 00
        E 0 89 18 00
        E 0 89 2a 00
        E 182 99 60 50
        E 0 99 63 50
        E 0 99 54 50
        E 0 99 57 50
        E 0 99 48 50
        E 0 99 4b 50
        E 0 99 3f 50
        E 0 99 18 50
        E 0 99 2a 50
        E 58 89 60 00
        E 0 89 63 00
        E 0 89 54 00
        E 0 89 57 00
        E 0 89 48 00
        E 0 89 4b 00
        E 0 89 3f 00
        E 0 89 18 00
        E 0 89 2a 00
        E 182 99 60 50
        E 0 99 63 50
        E 0 99 54 50
        E 0 99 57 50
        E 0 99 18 50
        E 0 99 2a 50
        E 58 89 60 00
        E 0 89 63 00
        E 0 89 54 00
        E 0 89 57 00
        E 0 89 18 00
        E 0 89 2a 00
        E 182 99 61 50
        E 0 99 63 50
        E 0 99 55 50
        E 0 99 57 50
        E 0 99 49 50
        E 0 99 4b 50
        E 0 99 3d 50
        E 0 99 3f 50
        E 0 99 1a 50
        E 0 99 2a 50
        E 58 89 61 00
        E 0 89 63 00
        E 0 89 55 00
        E 0 89 57 00
        E 0 89 49 00
        E 0 89 4b 00
        E 0 89 3d 00
        E 0 89 3f 00
        E 0 89 1a 00
        E 0 89 2a 00
        E 182 99 60 50
        E 0 99 63 50
        E 0 99 54 50
        E 0 99 57 50
        E 0 99 18 50
        E 0 99 2a 50
        E 58 89 60 00
        E 0 89 63 00
        E 0 89 54 00
        E 0 89 57 00
        E 0 89 18 00
        E 0 89 2a 00
        E 182 99 60 50
        E 0 99 63 50
        E 0 99 54 50
        E 0 99 57 50
        E 0 99 48 50
        E 0 99 4b 50
        E 0 99 3f 50
        E 0 99 18 50
        E 0 99 2a 50
        E 58 89 60 00
        E 0 89 63 00
        E 0 89 54 00
        E 0 89 57 00
        E 0 89 48 00
        E 0 89 4b 00
        E 0 89 3f 00
        E 0 89 18 00
        E 0 89 2a 00
        E 182 99 60 50
        E 0 99 63 50
        E 0 99 54 50
        E 0 99 57 50
        E 0 99 18 50
        E 0 99 2a 50
        E 58 89 60 00
        E 0 89 63 00
        E 0 89 54 00
        E 0 89 57 00
        E 0 89 18 00
        E 0 89 2a 00
        E 182 99 61 50
        E 0 99 63 50
        E 0 99 55 50
        E 0 99 57 50
        E 0 99 49 50
        E 0 99 4b 50
        E 0 99 3d 50
        E 0 99 3f 50
        E 0 99 1a 50
        E 0 99 2a 50
        E 58 89 61 00
        E 0 89 63 00
        E 0 89 55 00
        E 0 89 57 00
        E 0 89 49 00
        E 0 89 4b 00
        E 0 89 3d 00
        E 0 89 3f 00
        E 0 89 1a 00
        E 0 89 2a 00
        E 182 99 60 50
        E 0 99 63 50
        E 0 99 54 50
        E 0 99 57 50
        E 0 99 18 50
        E 0 99 2a 50
        E 58 89 60 00
        E 0 89 63 00
        E 0 89 54 00
        E 0 89 57 00
        E 0 89 18 00
        E 0 89 2a 00
        E 182 90 74 50
        E 0 99 60 50
        E 0 99 63 50
        E 0 99 54 50
        E 0 99 57 50
        E 0 99 48 50
        E 0 99 4b 50
        E 0 99 3f 50
        E 0 99 18 50
        E 0 99 2a 50
        E 58 89 60 00
        E 0 89 63 00
        E 0 89 54 00
        E 0 89 57 00
        E 0 89 48 00
        E 0 89 4b 00
        E 0 89 3f 00
        E 0 89 18 00
        E 0 89 2a 00
        E 182 99 60 50
        E 0 99 63 50
        E 0 99 54 50
        E 0 99 57 50
        E 0 99 18 50
        E 0 99 2a 50
        E 58 89 60 00
        E 0 89 63 00
        E 0 89 54 00
        E 0 89 57 00
        E 0 89 18 00
        E 0 89 2a 00
        E 182 99 61 50
        E 0 99 63 50
        E 0 99 55 50
        E 0 99 57 50
        E 0 99 49 50
        E 0 99 4b 50
        E 0 99 3d 50
        E 0 99 3f 50
        E 0 99 1a 50
        E 0 99 2a 50
        E 58 89 61 00
        E 0 89 63 00
        E 0 89 55 00
        E 0 89 57 00
        E 0 89 49 00
        E 0 89 4b 00
        E 0 89 3d 00
        E 0 89 3f 00
        E 0 89 1a 00
        E 0 89 2a 00
        E 182 99 60 50
        E 0 99 63 50
        E 0 99 54 50
        E 0 99 57 50
        E 0 99 18 50
        E 0 99 2a 50
        E 58 89 60 00
        E 0 89 63 00
        E 0 89 54 00
        E 0 89 57 00
        E 0 89 18 00
        E 0 89 2a 00
        E 182 99 60 50
        E 0 99 64 50
        E 0 99 54 50
        E 0 99 58 50
        E 0 99 48 50
        E 0 99 4c 50
        E 0 99 40 50
        E 0 99 18 50
        E 0 99 26 50
        E 58 89 60 00
        E 0 89 64 00
        E 0 89 54 00
        E 0 89 58 00
        E 0 89 48 00
        E 0 89 4c 00
        E 0 89 40 00
        E 0 89 18 00
        E 0 89 26 00
        E 2 80 74 00
        E 180 90 62 50
        E 0 90 56 50
        E 0 90 1f 50
        E 60 80 62 00
        E 0 80 56 00
        E 0 80 1f 00
        E 180 99 61 50
        E 0 99 62 50
        E 0 99 55 50
        E 0 99 56 50
        E 0 99 49 50
        E 0 99 4a 50
        E 0 99 3d 50
        E 0 99 3e 50
        E 0 99 1a 50
        E 0 99 1f 50
        E 58 89 61 00
        E 0 89 62 00
        E 0 89 55 00
        E 0 89 56 00
        E 0 89 49 00
        E 0 89 4a 00
        E 0 89 3d 00
        E 0 89 3e 00
        E 0 89 1a 00
        E 0 89 1f 00
        E 182 99 62 50
        E 0 99 56 50
        E 0 99 1f 50
        E 58 89 62 00
        E 0 89 56 00
        E 0 89 1f 00
        E 182 99 60 50
        E 0 99 62 50
        E 0 99 54 50
        E 0 99 56 50
        E 0 99 48 50
        E 0 99 4a 50
        E 0 99 3e 50
        E 0 99 18 50
        E 0 99 1f 50
        E 58 89 60 00
        E 0 89 62 00
        E 0 89 54 00
        E 0 89 56 00
        E 0 89 48 00
        E 0 89 4a 00
        E 0 89 3e 00
        E 0 89 18 00
        E 0 89 1f 00
        E 182 99 60 50
        E 0 99 62 50
        E 0 99 54 50
        E 0 99 56 50
        E 0 99 18 50
        E 0 99 1f 50
        E 58 89 60 00
        E 0 89 62 00
        E 0 89 54 00
        E 0 89 56 00
        E 0 89 18 00
        E 0 89 1f 00
        E 182 99 61 50
        E 0 99 62 50
        E 0 99 55 50
        E 0 99 56 50
        E 0 99 49 50
        E 0 99 4a 50
        E 0 99 3d 50
        E 0 99 3e 50
        E 0 99 1a 50
        E 0 99 1f 50
        E 58 89 61 00
        E 0 89 62 00
        E 0 89 55 00
        E 0 89 56 00
        E 0 89 49 00
        E 0 89 4a 00
        E 0 89 3d 00
        E 0 89 3e 00
        E 0 89 1a 00
        E 0 89 1f 00
        E 182 99 60 50
        E 0 99 62 50
        E 0 99 54 50
        E 0 99 56 50
        E 0 99 18 50
        E 0 99 1f 50
        E 58 89 60 00
        E 0 89 62 00
        E 0 89 54 00
        E 0 89 56 00
        E 0 89 18 00
        E 0 89 1f 00
        E 182 99 60 50
        E 0 99 62 50
        E 0 99 54 50
        E 0 99 56 50
        E 0 99 48 50
        E 0 99 4a 50
        E 0 99 3e 50
        E 0 99 18 50
        E 0 99 1f 50
        E 58 89 60 00
        E 0 89 62 00
        E 0 89 54 00
        E 0 89 56 00
        E 0 89 48 00
        E 0 89 4a 00
        E 0 89 3e 00
        E 0 89 18 00
        E 0 89 1f 00
        E 182 99 62 50
        E 0 99 56 50
        E 0 99 1f 50
        E 58 89 62 00
        E 0 89 56 00
        E 0 89 1f 00
        E 182 99 61 50
        E 0 99 62 50
        E 0 99 55 50
        E 0 99 56 50
        E 0 99 49 50
        E 0 99 4a 50
        E 0 99 3d 50
        E 0 99 3e 50
        E 0 99 1a 50
        E 0 99 1f 50
        E 58 89 61 00
        E 0 89 62 00
        E 0 89 55 00
        E 0 89 56 00
        E 0 89 49 00
        E 0 89 4a 00
        E 0 89 3d 00
        E 0 89 3e 00
        E 0 89 1a 00
        E 0 89 1f 00
        E 182 99 62 50
        E 0 99 56 50
        E 0 99 1f 50
        E 58 89 62 00
        E 0 89 56 00
        E 0 89 1f 00
        E 182 99 60 50
        E 0 99 62 50
        E 0 99 54 50
        E 0 99 56 50
        E 0 99 48 50
        E 0 99 4a 50
        E 0 99 3e 50
        E 0 99 18 50
        E 0 99 1f 50
        E 58 89 60 00
        E 0 89 62 00
        E 0 89 54 00
        E 0 89 56 00
        E 0 89 48 00
        E 0 89 4a 00
        E 0 89 3e 00
        E 0 89 18 00
        E 0 89 1f 00
        E 182 99 60 50
        E 0 99 62 50
        E 0 99 54 50
        E 0 99 56 50
        E 0 99 18 50
        E 0 99 1f 50
        E 58 89 60 00
        E 0 89 62 00
        E 0 89 54 00
        E 0 89 56 00
        E 0 89 18 00
        E 0 89 1f 00
        E 182 99 61 50
        E 0 99 62 50
        E 0 99 55 50
        E 0 99 56 50
        E 0 99 49 50
        E 0 99 4a 50
        E 0 99 3d 50
        E 0 99 3e 50
        E 0 99 1a 50
        E 0 99 1f 50
        E 58 89 61 00
        E 0 89 62 00
        E 0 89 55 00
        E 0 89 56 00
        E 0 89 49 00
        E 0 89 4a 00
        E 0 89 3d 00
        E 0 89 3e 00
        E 0 89 1a 00
        E 0 89 1f 00
        E 182 99 60 50
        E 0 99 62 50
        E 0 99 54 50
        E 0 99 56 50
        E 0 99 18 50
        E 0 99 1f 50
        E 58 89 60 00
        E 0 89 62 00
        E 0 89 54 00
        E 0 89 56 00
        E 0 89 18 00
        E 0 89 1f 00
        E 182 99 60 50
        E 0 99 64 50
        E 0 99 54 50
        E 0 99 58 50
        E 0 99 48 50
        E 0 99 4c 50
        E 0 99 40 50
        E 0 99 18 50
        E 0 99 26 50
        E 58 89 60 00
        E 0 89 54 00
        E 0 89 48 00
        E 0 89 18 00
        E 2 89 64 00
        E 0 89 58 00
        E 0 89 4c 00
        E 0 89 40 00
        E 0 89 26 00
        E 180 99 60 50
        E 0 99 63 50
        E 0 99 54 50
        E 0 99 57 50
        E 0 99 18 50
        E 0 99 2a 50
        E 58 89 60 00
        E 0 89 63 00
        E 0 89 54 00
        E 0 89 57 00
        E 0 89 18 00
        E 0 89 2a 00
        E 182 99 61 50
        E 0 99 63 50
        E 0 99 55 50
        E 0 99 57 50
        E 0 99 49 50
        E 0 99 4b 50
        E 0 99 3d 50
        E 0 99 3f 50
        E 0 99 1a 50
        E 0 99 2a 50
        E 58 89 61 00
        E 0 89 63 00
        E 0 89 55 00
        E 0 89 57 00
        E 0 89 49 00
        E 0 89 4b 00
        E 0 89 3d 00
        E 0 89 3f 00
        E 0 89 1a 00
        E 0 89 2a 00
        E 182 99 60 50
        E 0 99 63 50
        E 0 99 54 50
        E 0 99 57 50
        E 0 99 18 50
        E 0 99 2a 50
        E 58 89 60 00
        E 0 89 63 00
        E 0 89 54 00
        E 0 89 57 00
        E 0 89 18 00
        E 0 89 2a 00
        E 182 99 60 50
        E 0 99 63 50
        E 0 99 54 50
        E 0 99 57 50
        E 0 99 48 50
        E 0 99 4b 50
        E 0 99 3f 50
        E 0 99 18 50
        E 0 99 2a 50
        E 58 89 60 00
        E 0 89 63 00
        E 0 89 54 00
        E 0 89 57 00
        E 0 89 48 00
        E 0 89 4b 00
        E 0 89 3f 00
        E 0 89 18 00
        E 0 89 2a 00
        E 182 99 60 50
        E 0 99 63 50
        E 0 99 54 50
        E 0 99 57 50
        E 0 99 18 50
        E 0 99 2a 50
        E 58 89 60 00
        E 0 89 63 00
        E 0 89 54 00
        E 0 89 57 00
        E 0 89 18 00
        E 0 89 2a 00
        E 182 99 61 50
        E 0 99 63 50
        E 0 99 55 50
        E 0 99 57 50
        E 0 99 49 50
        E 0 99 4b 50
        E 0 99 3d 50
        E 0 99 3f 50
        E 0 99 1a 50
        E 0 99 2a 50
        E 58 89 61 00
        E 0 89 63 00
        E 0 89 55 00
        E 0 89 57 00
        E 0 89 49 00
        E 0 89 4b 00
        E 0 89 3d 00
        E 0 89 3f 00
        E 0 89 1a 00
        E 0 89 2a 00
        E 182 99 60 50
        E 0 99 63 50
        E 0 99 54 50
        E 0 99 57 50
        E 0 99 18 50
        E 0 99 2a 50
        E 58 89 60 00
        E 0 89 63 00
        E 0 89 54 00
        E 0 89 57 00
        E 0 89 18 00
        E 0 89 2a 00
        E 182 99 60 50
        E 0 99 61 50
        E 0 99 54 50
        E 0 99 55 50
        E 0 99 49 50
        E 0 99 3d 50
        E 0 99 18 50
        E 0 99 1b 50
        E 60 89 60 00
        E 0 89 61 00
        E 0 89 54 00
        E 0 89 55 00
        E 0 89 49 00
        E 0 89 3d 00
        E 0 89 18 00
        E 0 89 1b 00
        E 60 99 61 50
        E 0 99 1a 50
        E 60 89 61 00
        E 0 89 1a 00
        E 60 99 60 50
        E 0 99 61 50
        E 0 99 54 50
        E 0 99 55 50
        E 0 99 18 50
        E 0 99 1b 50
        E 60 89 60 00
        E 0 89 61 00
        E 0 89 54 00
        E 0 89 55 00
        E 0 89 18 00
        E 0 89 1b 00
        E 60 99 61 50
        E 0 99 1a 50
        E 60 89 61 00
        E 0 89 1a 00
        E 60 99 60 50
        E 0 99 61 50
        E 0 99 54 50
        E 0 99 55 50
        E 0 99 49 50
        E 0 99 3d 50
        E 0 99 18 50
        E 0 99 1b 50
        E 60 89 60 00
        E 0 89 61 00
        E 0 89 54 00
        E 0 89 55 00
        E 0 89 49 00
        E 0 89 3d 00
        E 0 89 18 00
        E 0 89 1b 00
        E 60 99 61 50
        E 0 99 1a 50
        E 60 89 61 00
        E 0 89 1a 00
        E 60 99 60 50
        E 0 99 61 50
        E 0 99 54 50
        E 0 99 55 50
        E 0 99 18 50
        E 0 99 1b 50
        E 60 89 60 00
        E 0 89 61 00
        E 0 89 54 00
        E 0 89 55 00
        E 0 89 18 00
        E 0 89 1b 00
        E 60 99 61 50
        E 0 99 1a 50
        E 60 89 61 00
        E 0 89 1a 00
        E 60 90 78 59
        E 0 90 79 59
        E 0 90 7a 59
        E 0 90 7b 59
        E 0 90 7c 59
        E 0 99 60 50
        E 0 99 61 50
        E 0 99 54 50
        E 0 99 55 50
        E 0 99 49 50
        E 0 99 3d 50
        E 0 99 18 50
        E 0 99 1b 50
        E 60 89 60 00
        E 0 89 61 00
        E 0 89 54 00
        E 0 89 55 00
        E 0 89 49 00
        E 0 89 3d 00
        E 0 89 18 00
        E 0 89 1b 00
        E 60 99 61 50
        E 0 99 1a 50
        E 60 89 61 00
        E 0 89 1a 00
        E 60 99 61 50
        E 0 99 55 50
        E 0 99 1b 50
        E 60 89 61 00
        E 0 89 55 00
        E 0 89 1b 00
        E 60 99 60 50
        E 0 99 18 50
        E 60 89 60 00
        E 0 89 18 00
        E 60 90 64 50
        E 0 90 58 50
        E 0 90 4c 50
        E 0 90 70 50
        E 0 90 40 50
        E 0 90 33 50
        E 0 99 61 50
        E 0 99 55 50
        E 0 99 49 50
        E 0 99 3d 50
        E 0 99 1a 50
        E 58 89 61 00
        E 0 89 55 00
        E 0 89 49 00
        E 0 89 3d 00
        E 0 89 1a 00
        E 2 80 64 00
        E 0 80 58 00
        E 0 80 4c 00
        E 0 80 70 00
        E 0 80 40 00
        E 0 80 33 00
        <X 60 0
          /wFbaW50ZW5zZV0=
        >
        E 120 90 64 50
        E 0 90 58 50
        E 0 90 70 50
        E 0 90 33 50
        E 0 99 60 50
        E 0 99 54 50
        E 0 99 18 50
        E 58 89 60 00
        E 0 89 54 00
        E 0 89 18 00
        E 2 80 64 00
        E 0 80 58 00
        E 0 80 70 00
        E 0 80 33 00
        E 179 80 78 00
        E 0 80 79 00
        E 0 80 7a 00
        E 0 80 7b 00
        E 0 80 7c 00
        E 1 99 60 50
        E 0 99 64 50
        E 0 99 54 50
        E 0 99 58 50
        E 0 99 48 50
        E 0 99 4c 50
        E 0 99 40 50
        E 0 99 18 50
        E 0 99 26 50
        E 58 89 60 00
        E 0 89 54 00
        E 0 89 48 00
        E 0 89 18 00
        E 2 89 64 00
        E 0 89 58 00
        E 0 89 4c 00
        E 0 89 40 00
        E 0 89 26 00
        E 180 90 64 50
        E 0 90 58 50
        E 0 90 22 50
        E 0 99 60 50
        E 0 99 62 50
        E 0 99 54 50
        E 0 99 56 50
        E 0 99 18 50
        E 0 99 26 50
        E 58 89 60 00
        E 0 89 62 00
        E 0 89 54 00
        E 0 89 56 00
        E 0 89 18 00
        E 0 89 26 00
        E 2 80 64 00
        E 0 80 58 00
        E 0 80 22 00
        E 180 99 61 50
        E 0 99 62 50
        E 0 99 55 50
        E 0 99 56 50
        E 0 99 49 50
        E 0 99 4a 50
        E 0 99 3d 50
        E 0 99 3e 50
        E 0 99 1a 50
        E 0 99 1f 50
        E 58 89 61 00
        E 0 89 62 00
        E 0 89 55 00
        E 0 89 56 00
        E 0 89 49 00
        E 0 89 4a 00
        E 0 89 3d 00
        E 0 89 3e 00
        E 0 89 1a 00
        E 0 89 1f 00
        E 182 99 60 50
        E 0 99 62 50
        E 0 99 54 50
        E 0 99 56 50
        E 0 99 18 50
        E 0 99 1f 50
        E 60 89 60 00
        E 0 89 62 00
        E 0 89 54 00
        E 0 89 56 00
        E 0 89 18 00
        E 0 89 1f 00
        E 60 99 61 50
        E 0 99 1a 50
        E 60 89 61 00
        E 0 89 1a 00
        E 60 99 60 50
        E 0 99 62 50
        E 0 99 54 50
        E 0 99 56 50
        E 0 99 48 50
        E 0 99 4a 50
        E 0 99 3e 50
        E 0 99 18 50
        E 0 99 1f 50
        E 60 89 60 00
        E 0 89 62 00
        E 0 89 54 00
        E 0 89 56 00
        E 0 89 48 00
        E 0 89 4a 00
        E 0 89 3e 00
        E 0 89 18 00
        E 0 89 1f 00
        E 60 99 61 50
        E 0 99 1a 50
        E 60 89 61 00
        E 0 89 1a 00
        E 60 99 60 50
        E 0 99 62 50
        E 0 99 54 50
        E 0 99 56 50
        E 0 99 18 50
        E 0 99 1f 50
        E 58 89 60 00
        E 0 89 62 00
        E 0 89 54 00
        E 0 89 56 00
        E 0 89 18 00
        E 0 89 1f 00
        E 182 99 61 50
        E 0 99 62 50
        E 0 99 55 50
        E 0 99 56 50
        E 0 99 49 50
        E 0 99 4a 50
        E 0 99 3d 50
        E 0 99 3e 50
        E 0 99 1a 50
        E 0 99 1f 50
        E 58 89 61 00
        E 0 89 62 00
        E 0 89 55 00
        E 0 89 56 00
        E 0 89 49 00
        E 0 89 4a 00
        E 0 89 3d 00
        E 0 89 3e 00
        E 0 89 1a 00
        E 0 89 1f 00
        E 182 99 60 50
        E 0 99 62 50
        E 0 99 54 50
        E 0 99 56 50
        E 0 99 18 50
        E 0 99 1f 50
        E 60 89 60 00
        E 0 89 62 00
        E 0 89 54 00
        E 0 89 56 00
        E 0 89 18 00
        E 0 89 1f 00
        E 60 99 61 50
        E 0 99 1a 50
        E 60 89 61 00
        E 0 89 1a 00
        E 60 99 60 50
        E 0 99 62 50
        E 0 99 54 50
        E 0 99 56 50
        E 0 99 48 50
        E 0 99 4a 50
        E 0 99 3e 50
        E 0 99 18 50
        E 0 99 1f 50
        E 58 89 60 00
        E 0 89 62 00
        E 0 89 54 00
        E 0 89 56 00
        E 0 89 48 00
        E 0 89 4a 00
        E 0 89 3e 00
        E 0 89 18 00
        E 0 89 1f 00
        E 182 99 60 50
        E 0 99 62 50
        E 0 99 54 50
        E 0 99 56 50
        E 0 99 18 50
        E 0 99 1f 50
        E 58 89 60 00
        E 0 89 62 00
        E 0 89 54 00
        E 0 89 56 00
        E 0 89 18 00
        E 0 89 1f 00
        E 182 99 61 50
        E 0 99 62 50
        E 0 99 55 50
        E 0 99 56 50
        E 0 99 49 50
        E 0 99 4a 50
        E 0 99 3d 50
        E 0 99 3e 50
        E 0 99 1a 50
        E 0 99 1f 50
        E 58 89 61 00
        E 0 89 62 00
        E 0 89 55 00
        E 0 89 56 00
        E 0 89 49 00
        E 0 89 4a 00
        E 0 89 3d 00
        E 0 89 3e 00
        E 0 89 1a 00
        E 0 89 1f 00
        E 182 99 60 50
        E 0 99 62 50
        E 0 99 54 50
        E 0 99 56 50
        E 0 99 18 50
        E 0 99 1f 50
        E 60 89 60 00
        E 0 89 62 00
        E 0 89 54 00
        E 0 89 56 00
        E 0 89 18 00
        E 0 89 1f 00
        E 60 99 61 50
        E 0 99 1a 50
        E 60 89 61 00
        E 0 89 1a 00
        E 60 99 60 50
        E 0 99 62 50
        E 0 99 54 50
        E 0 99 56 50
        E 0 99 48 50
        E 0 99 4a 50
        E 0 99 3e 50
        E 0 99 18 50
        E 0 99 1f 50
        E 60 89 60 00
        E 0 89 62 00
        E 0 89 54 00
        E 0 89 56 00
        E 0 89 48 00
        E 0 89 4a 00
        E 0 89 3e 00
        E 0 89 18 00
        E 0 89 1f 00
        E 60 99 61 50
        E 0 99 1a 50
        E 60 89 61 00
        E 0 89 1a 00
        E 60 99 60 50
        E 0 99 62 50
        E 0 99 54 50
        E 0 99 56 50
        E 0 99 18 50
        E 0 99 1f 50
        E 58 89 60 00
        E 0 89 62 00
        E 0 89 54 00
        E 0 89 56 00
        E 0 89 18 00
        E 0 89 1f 00
        E 182 99 61 50
        E 0 99 62 50
        E 0 99 55 50
        E 0 99 56 50
        E 0 99 49 50
        E 0 99 4a 50
        E 0 99 3d 50
        E 0 99 3e 50
        E 0 99 1a 50
        E 0 99 1f 50
        E 58 89 61 00
        E 0 89 62 00
        E 0 89 55 00
        E 0 89 56 00
        E 0 89 49 00
        E 0 89 4a 00
        E 0 89 3d 00
        E 0 89 3e 00
        E 0 89 1a 00
        E 0 89 1f 00
        E 182 99 60 50
        E 0 99 62 50
        E 0 99 54 50
        E 0 99 56 50
        E 0 99 18 50
        E 0 99 1f 50
        E 60 89 60 00
        E 0 89 62 00
        E 0 89 54 00
        E 0 89 56 00
        E 0 89 18 00
        E 0 89 1f 00
        E 60 99 61 50
        E 0 99 1a 50
        E 60 89 61 00
        E 0 89 1a 00
        E 34 90 74 59
        E 26 99 60 50
        E 0 99 64 50
        E 0 99 54 50
        E 0 99 58 50
        E 0 99 48 50
        E 0 99 4c 50
        E 0 99 40 50
        E 0 99 18 50
        E 0 99 26 50
        E 58 89 60 00
        E 0 89 54 00
        E 0 89 48 00
        E 0 89 18 00
        E 2 89 64 00
        E 0 89 58 00
        E 0 89 4c 00
        E 0 89 40 00
        E 0 89 26 00
        E 180 99 60 50
        E 0 99 64 50
        E 0 99 54 50
        E 0 99 58 50
        E 0 99 18 50
        E 0 99 26 50
        E 60 89 60 00
        E 0 89 64 00
        E 0 89 54 00
        E 0 89 58 00
        E 0 89 18 00
        E 0 89 26 00
        E 180 99 61 50
        E 0 99 62 50
        E 0 99 55 50
        E 0 99 56 50
        E 0 99 49 50
        E 0 99 4a 50
        E 0 99 3d 50
        E 0 99 3e 50
        E 0 99 1a 50
        E 0 99 1f 50
        E 58 89 61 00
        E 0 89 62 00
        E 0 89 55 00
        E 0 89 56 00
        E 0 89 49 00
        E 0 89 4a 00
        E 0 89 3d 00
        E 0 89 3e 00
        E 0 89 1a 00
        E 0 89 1f 00
        E 182 99 60 50
        E 0 99 62 50
        E 0 99 54 50
        E 0 99 56 50
        E 0 99 18 50
        E 0 99 1f 50
        E 60 89 60 00
        E 0 89 62 00
        E 0 89 54 00
        E 0 89 56 00
        E 0 89 18 00
        E 0 89 1f 00
        E 60 99 61 50
        E 0 99 1a 50
        E 60 89 61 00
        E 0 89 1a 00
        E 60 99 60 50
        E 0 99 62 50
        E 0 99 54 50
        E 0 99 56 50
        E 0 99 48 50
        E 0 99 4a 50
        E 0 99 3e 50
        E 0 99 18 50
        E 0 99 1f 50
        E 60 89 60 00
        E 0 89 62 00
        E 0 89 54 00
        E 0 89 56 00
        E 0 89 48 00
        E 0 89 4a 00
        E 0 89 3e 00
        E 0 89 18 00
        E 0 89 1f 00
        E 60 99 61 50
        E 0 99 1a 50
        E 60 89 61 00
        E 0 89 1a 00
        E 60 99 60 50
        E 0 99 62 50
        E 0 99 54 50
        E 0 99 56 50
        E 0 99 18 50
        E 0 99 1f 50
        E 58 89 60 00
        E 0 89 62 00
        E 0 89 54 00
        E 0 89 56 00
        E 0 89 18 00
        E 0 89 1f 00
        E 182 99 61 50
        E 0 99 62 50
        E 0 99 55 50
        E 0 99 56 50
        E 0 99 49 50
        E 0 99 4a 50
        E 0 99 3d 50
        E 0 99 3e 50
        E 0 99 1a 50
        E 0 99 1f 50
        E 58 89 61 00
        E 0 89 62 00
        E 0 89 55 00
        E 0 89 56 00
        E 0 89 49 00
        E 0 89 4a 00
        E 0 89 3d 00
        E 0 89 3e 00
        E 0 89 1a 00
        E 0 89 1f 00
        E 182 99 60 50
        E 0 99 62 50
        E 0 99 54 50
        E 0 99 56 50
        E 0 99 18 50
        E 0 99 1f 50
        E 60 89 60 00
        E 0 89 62 00
        E 0 89 54 00
        E 0 89 56 00
        E 0 89 18 00
        E 0 89 1f 00
        E 60 99 61 50
        E 0 99 1a 50
        E 60 89 61 00
        E 0 89 1a 00
        E 60 99 60 50
        E 0 99 62 50
        E 0 99 54 50
        E 0 99 56 50
        E 0 99 48 50
        E 0 99 4a 50
        E 0 99 3e 50
        E 0 99 18 50
        E 0 99 1f 50
        E 58 89 60 00
        E 0 89 62 00
        E 0 89 54 00
        E 0 89 56 00
        E 0 89 48 00
        E 0 89 4a 00
        E 0 89 3e 00
        E 0 89 18 00
        E 0 89 1f 00
        E 182 99 60 50
        E 0 99 62 50
        E 0 99 54 50
        E 0 99 56 50
        E 0 99 18 50
        E 0 99 1f 50
        E 58 89 60 00
        E 0 89 62 00
        E 0 89 54 00
        E 0 89 56 00
        E 0 89 18 00
        E 0 89 1f 00
        E 182 99 61 50
        E 0 99 62 50
        E 0 99 55 50
        E 0 99 56 50
        E 0 99 49 50
        E 0 99 4a 50
        E 0 99 3d 50
        E 0 99 3e 50
        E 0 99 1a 50
        E 0 99 1f 50
        E 58 89 61 00
        E 0 89 62 00
        E 0 89 55 00
        E 0 89 56 00
        E 0 89 49 00
        E 0 89 4a 00
        E 0 89 3d 00
        E 0 89 3e 00
        E 0 89 1a 00
        E 0 89 1f 00
        E 182 99 60 50
        E 0 99 62 50
        E 0 99 54 50
        E 0 99 56 50
        E 0 99 18 50
        E 0 99 1f 50
        E 60 89 60 00
        E 0 89 62 00
        E 0 89 54 00
        E 0 89 56 00
        E 0 89 18 00
        E 0 89 1f 00
        E 60 99 61 50
        E 0 99 1a 50
        E 60 89 61 00
        E 0 89 1a 00
        E 60 99 60 50
        E 0 99 64 50
        E 0 99 54 50
        E 0 99 58 50
        E 0 99 48 50
        E 0 99 4c 50
        E 0 99 40 50
        E 0 99 18 50
        E 0 99 26 50
        E 58 89 60 00
        E 0 89 54 00
        E 0 89 48 00
        E 0 89 18 00
        E 2 89 64 00
        E 0 89 58 00
        E 0 89 4c 00
        E 0 89 40 00
        E 0 89 26 00
        E 180 99 60 50
        E 0 99 61 50
        E 0 99 54 50
        E 0 99 55 50
        E 0 99 18 50
        E 0 99 1b 50
        E 60 89 60 00
        E 0 89 61 00
        E 0 89 54 00
        E 0 89 55 00
        E 0 89 18 00
        E 0 89 1b 00
        E 60 99 61 50
        E 0 99 1a 50
        E 60 89 61 00
        E 0 89 1a 00
        E 60 99 60 50
        E 0 99 61 50
        E 0 99 54 50
        E 0 99 55 50
        E 0 99 49 50
        E 0 99 3d 50
        E 0 99 18 50
        E 0 99 1b 50
        E 60 89 60 00
        E 0 89 61 00
        E 0 89 54 00
        E 0 89 55 00
        E 0 89 49 00
        E 0 89 3d 00
        E 0 89 18 00
        E 0 89 1b 00
        E 60 99 61 50
        E 0 99 1a 50
        E 60 89 61 00
        E 0 89 1a 00
        E 60 99 60 50
        E 0 99 61 50
        E 0 99 54 50
        E 0 99 55 50
        E 0 99 18 50
        E 0 99 1b 50
        E 60 89 60 00
        E 0 89 61 00
        E 0 89 54 00
        E 0 89 55 00
        E 0 89 18 00
        E 0 89 1b 00
        E 42 80 74 00
        E 18 99 61 50
        E 0 99 1a 50
        E 60 89 61 00
        E 0 89 1a 00
        E 60 99 60 50
        E 0 99 64 50
        E 0 99 54 50
        E 0 99 58 50
        E 0 99 48 50
        E 0 99 4c 50
        E 0 99 40 50
        E 0 99 18 50
        E 0 99 26 50
        E 58 89 60 00
        E 0 89 54 00
        E 0 89 48 00
        E 0 89 18 00
        E 2 89 64 00
        E 0 89 58 00
        E 0 89 4c 00
        E 0 89 40 00
        E 0 89 26 00
        E 180 90 64 50
        E 0 90 58 50
        E 0 90 22 50
        E 0 99 60 50
        E 0 99 62 50
        E 0 99 54 50
        E 0 99 56 50
        E 0 99 18 50
        E 0 99 26 50
        E 58 89 60 00
        E 0 89 62 00
        E 0 89 54 00
        E 0 89 56 00
        E 0 89 18 00
        E 0 89 26 00
        E 2 80 64 00
        E 0 80 58 00
        E 0 80 22 00
        E 180 99 61 50
        E 0 99 62 50
        E 0 99 55 50
        E 0 99 56 50
        E 0 99 49 50
        E 0 99 4a 50
        E 0 99 3d 50
        E 0 99 3e 50
        E 0 99 1a 50
        E 0 99 1f 50
        E 58 89 61 00
        E 0 89 62 00
        E 0 89 55 00
        E 0 89 56 00
        E 0 89 49 00
        E 0 89 4a 00
        E 0 89 3d 00
        E 0 89 3e 00
        E 0 89 1a 00
        E 0 89 1f 00
        E 182 99 60 50
        E 0 99 62 50
        E 0 99 54 50
        E 0 99 56 50
        E 0 99 18 50
        E 0 99 1f 50
        E 60 89 60 00
        E 0 89 62 00
        E 0 89 54 00
        E 0 89 56 00
        E 0 89 18 00
        E 0 89 1f 00
        E 60 99 61 50
        E 0 99 1a 50
        E 60 89 61 00
        E 0 89 1a 00
        E 60 99 60 50
        E 0 99 62 50
        E 0 99 54 50
        E 0 99 56 50
        E 0 99 48 50
        E 0 99 4a 50
        E 0 99 3e 50
        E 0 99 18 50
        E 0 99 1f 50
        E 60 89 60 00
        E 0 89 62 00
        E 0 89 54 00
        E 0 89 56 00
        E 0 89 48 00
        E 0 89 4a 00
        E 0 89 3e 00
        E 0 89 18 00
        E 0 89 1f 00
        E 60 99 61 50
        E 0 99 1a 50
        E 60 89 61 00
        E 0 89 1a 00
        E 60 99 60 50
        E 0 99 62 50
        E 0 99 54 50
        E 0 99 56 50
        E 0 99 18 50
        E 0 99 1f 50
        E 58 89 60 00
        E 0 89 62 00
        E 0 89 54 00
        E 0 89 56 00
        E 0 89 18 00
        E 0 89 1f 00
        E 182 99 61 50
        E 0 99 62 50
        E 0 99 55 50
        E 0 99 56 50
        E 0 99 49 50
        E 0 99 4a 50
        E 0 99 3d 50
        E 0 99 3e 50
        E 0 99 1a 50
        E 0 99 1f 50
        E 58 89 61 00
        E 0 89 62 00
        E 0 89 55 00
        E 0 89 56 00
        E 0 89 49 00
        E 0 89 4a 00
        E 0 89 3d 00
        E 0 89 3e 00
        E 0 89 1a 00
        E 0 89 1f 00
        E 182 99 60 50
        E 0 99 62 50
        E 0 99 54 50
        E 0 99 56 50
        E 0 99 18 50
        E 0 99 1f 50
        E 60 89 60 00
        E 0 89 62 00
        E 0 89 54 00
        E 0 89 56 00
        E 0 89 18 00
        E 0 89 1f 00
        E 60 99 61 50
        E 0 99 1a 50
        E 60 89 61 00
        E 0 89 1a 00
        E 60 99 60 50
        E 0 99 62 50
        E 0 99 54 50
        E 0 99 56 50
        E 0 99 48 50
        E 0 99 4a 50
        E 0 99 3e 50
        E 0 99 18 50
        E 0 99 1f 50
        E 58 89 60 00
        E 0 89 62 00
        E 0 89 54 00
        E 0 89 56 00
        E 0 89 48 00
        E 0 89 4a 00
        E 0 89 3e 00
        E 0 89 18 00
        E 0 89 1f 00
        E 182 99 60 50
        E 0 99 62 50
        E 0 99 54 50
        E 0 99 56 50
        E 0 99 18 50
        E 0 99 1f 50
        E 58 89 60 00
        E 0 89 62 00
        E 0 89 54 00
        E 0 89 56 00
        E 0 89 18 00
        E 0 89 1f 00
        E 182 99 61 50
        E 0 99 62 50
        E 0 99 55 50
        E 0 99 56 50
        E 0 99 49 50
        E 0 99 4a 50
        E 0 99 3d 50
        E 0 99 3e 50
        E 0 99 1a 50
        E 0 99 1f 50
        E 58 89 61 00
        E 0 89 62 00
        E 0 89 55 00
        E 0 89 56 00
        E 0 89 49 00
        E 0 89 4a 00
        E 0 89 3d 00
        E 0 89 3e 00
        E 0 89 1a 00
        E 0 89 1f 00
        E 182 99 60 50
        E 0 99 62 50
        E 0 99 54 50
        E 0 99 56 50
        E 0 99 18 50
        E 0 99 1f 50
        E 60 89 60 00
        E 0 89 62 00
        E 0 89 54 00
        E 0 89 56 00
        E 0 89 18 00
        E 0 89 1f 00
        E 60 99 61 50
        E 0 99 1a 50
        E 60 89 61 00
        E 0 89 1a 00
        E 60 99 60 50
        E 0 99 62 50
        E 0 99 54 50
        E 0 99 56 50
        E 0 99 48 50
        E 0 99 4a 50
        E 0 99 3e 50
        E 0 99 18 50
        E 0 99 1f 50
        E 60 89 60 00
        E 0 89 62 00
        E 0 89 54 00
        E 0 89 56 00
        E 0 89 48 00
        E 0 89 4a 00
        E 0 89 3e 00
        E 0 89 18 00
        E 0 89 1f 00
        E 60 99 61 50
        E 0 99 1a 50
        E 60 89 61 00
        E 0 89 1a 00
        E 60 99 60 50
        E 0 99 62 50
        E 0 99 54 50
        E 0 99 56 50
        E 0 99 18 50
        E 0 99 1f 50
        E 58 89 60 00
        E 0 89 62 00
        E 0 89 54 00
        E 0 89 56 00
        E 0 89 18 00
        E 0 89 1f 00
        E 182 99 61 50
        E 0 99 62 50
        E 0 99 55 50
        E 0 99 56 50
        E 0 99 49 50
        E 0 99 4a 50
        E 0 99 3d 50
        E 0 99 3e 50
        E 0 99 1a 50
        E 0 99 1f 50
        E 58 89 61 00
        E 0 89 62 00
        E 0 89 55 00
        E 0 89 56 00
        E 0 89 49 00
        E 0 89 4a 00
        E 0 89 3d 00
        E 0 89 3e 00
        E 0 89 1a 00
        E 0 89 1f 00
        E 182 99 60 50
        E 0 99 62 50
        E 0 99 54 50
        E 0 99 56 50
        E 0 99 18 50
        E 0 99 1f 50
        E 60 89 60 00
        E 0 89 62 00
        E 0 89 54 00
        E 0 89 56 00
        E 0 89 18 00
        E 0 89 1f 00
        E 60 99 61 50
        E 0 99 1a 50
        E 60 89 61 00
        E 0 89 1a 00
        E 60 99 60 50
        E 0 99 64 50
        E 0 99 54 50
        E 0 99 58 50
        E 0 99 48 50
        E 0 99 4c 50
        E 0 99 40 50
        E 0 99 18 50
        E 0 99 26 50
        E 58 89 60 00
        E 0 89 54 00
        E 0 89 48 00
        E 0 89 18 00
        E 2 89 64 00
        E 0 89 58 00
        E 0 89 4c 00
        E 0 89 40 00
        E 0 89 26 00
        E 180 99 60 50
        E 0 99 64 50
        E 0 99 54 50
        E 0 99 58 50
        E 0 99 18 50
        E 0 99 26 50
        E 58 89 60 00
        E 0 89 64 00
        E 0 89 54 00
        E 0 89 58 00
        E 0 89 18 00
        E 0 89 26 00
        E 182 99 61 50
        E 0 99 62 50
        E 0 99 55 50
        E 0 99 56 50
        E 0 99 49 50
        E 0 99 4a 50
        E 0 99 3d 50
        E 0 99 3e 50
        E 0 99 1a 50
        E 0 99 1f 50
        E 58 89 61 00
        E 0 89 62 00
        E 0 89 55 00
        E 0 89 56 00
        E 0 89 49 00
        E 0 89 4a 00
        E 0 89 3d 00
        E 0 89 3e 00
        E 0 89 1a 00
        E 0 89 1f 00
        E 182 99 60 50
        E 0 99 62 50
        E 0 99 54 50
        E 0 99 56 50
        E 0 99 18 50
        E 0 99 1f 50
        E 60 89 60 00
        E 0 89 62 00
        E 0 89 54 00
        E 0 89 56 00
        E 0 89 18 00
        E 0 89 1f 00
        E 60 99 61 50
        E 0 99 1a 50
        E 60 89 61 00
        E 0 89 1a 00
        E 60 99 60 50
        E 0 99 62 50
        E 0 99 54 50
        E 0 99 56 50
        E 0 99 48 50
        E 0 99 4a 50
        E 0 99 3e 50
        E 0 99 18 50
        E 0 99 1f 50
        E 60 89 60 00
        E 0 89 62 00
        E 0 89 54 00
        E 0 89 56 00
        E 0 89 48 00
        E 0 89 4a 00
        E 0 89 3e 00
        E 0 89 18 00
        E 0 89 1f 00
        E 60 99 61 50
        E 0 99 1a 50
        E 60 89 61 00
        E 0 89 1a 00
        E 60 99 60 50
        E 0 99 62 50
        E 0 99 54 50
        E 0 99 56 50
        E 0 99 18 50
        E 0 99 1f 50
        E 58 89 60 00
        E 0 89 62 00
        E 0 89 54 00
        E 0 89 56 00
        E 0 89 18 00
        E 0 89 1f 00
        E 182 99 61 50
        E 0 99 62 50
        E 0 99 55 50
        E 0 99 56 50
        E 0 99 49 50
        E 0 99 4a 50
        E 0 99 3d 50
        E 0 99 3e 50
        E 0 99 1a 50
        E 0 99 1f 50
        E 58 89 61 00
        E 0 89 62 00
        E 0 89 55 00
        E 0 89 56 00
        E 0 89 49 00
        E 0 89 4a 00
        E 0 89 3d 00
        E 0 89 3e 00
        E 0 89 1a 00
        E 0 89 1f 00
        E 182 99 60 50
        E 0 99 62 50
        E 0 99 54 50
        E 0 99 56 50
        E 0 99 18 50
        E 0 99 1f 50
        E 58 89 60 00
        E 0 89 62 00
        E 0 89 54 00
        E 0 89 56 00
        E 0 89 18 00
        E 0 89 1f 00
        E 182 99 61 50
        E 0 99 55 50
        E 0 99 49 50
        E 0 99 3d 50
        E 0 99 1b 50
        E 58 89 61 00
        E 0 89 55 00
        E 0 89 49 00
        E 0 89 3d 00
        E 0 89 1b 00
        E 2 90 60 50
        E 0 90 18 50
        E 60 80 60 00
        E 0 80 18 00
        <X 840 0
          /wFbcGxheV0=
        >
        E 0 90 78 59
        E 0 90 79 59
        E 0 90 7a 59
        E 0 90 7b 59
        E 0 90 7c 59
        E 240 99 60 50
        E 0 99 54 50
        E 0 99 18 50
        E 58 89 60 00
        E 0 89 54 00
        E 0 89 18 00
        E 182 99 61 50
        E 0 99 63 50
        E 0 99 55 50
        E 0 99 57 50
        E 0 99 49 50
        E 0 99 4b 50
        E 0 99 3d 50
        E 0 99 3f 50
        E 0 99 1a 50
        E 0 99 2a 50
        E 58 89 61 00
        E 0 89 63 00
        E 0 89 55 00
        E 0 89 57 00
        E 0 89 49 00
        E 0 89 4b 00
        E 0 89 3d 00
        E 0 89 3f 00
        E 0 89 1a 00
        E 0 89 2a 00
        E 182 99 60 50
        E 0 99 54 50
        E 0 99 18 50
        E 58 89 60 00
        E 0 89 54 00
        E 0 89 18 00
        E 181 80 78 00
        E 0 80 79 00
        E 0 80 7a 00
        E 0 80 7b 00
        E 0 80 7c 00
        E 1 99 60 50
        E 0 99 64 50
        E 0 99 54 50
        E 0 99 58 50
        E 0 99 48 50
        E 0 99 4c 50
        E 0 99 40 50
        E 0 99 18 50
        E 0 99 26 50
        E 58 89 60 00
        E 0 89 54 00
        E 0 89 48 00
        E 0 89 18 00
        E 2 89 64 00
        E 0 89 58 00
        E 0 89 4c 00
        E 0 89 40 00
        E 0 89 26 00
        E 420 99 61 50
        E 0 99 62 50
        E 0 99 55 50
        E 0 99 56 50
        E 0 99 49 50
        E 0 99 4a 50
        E 0 99 3d 50
        E 0 99 3e 50
        E 0 99 1a 50
        E 0 99 1f 50
        E 58 89 61 00
        E 0 89 62 00
        E 0 89 55 00
        E 0 89 56 00
        E 0 89 49 00
        E 0 89 4a 00
        E 0 89 3d 00
        E 0 89 3e 00
        E 0 89 1a 00
        E 0 89 1f 00
        E 182 99 62 50
        E 0 99 56 50
        E 0 99 1f 50
        E 58 89 62 00
        E 0 89 56 00
        E 0 89 1f 00
        E 182 99 60 50
        E 0 99 62 50
        E 0 99 54 50
        E 0 99 56 50
        E 0 99 48 50
        E 0 99 4a 50
        E 0 99 3e 50
        E 0 99 18 50
        E 0 99 1f 50
        E 58 89 60 00
        E 0 89 62 00
        E 0 89 54 00
        E 0 89 56 00
        E 0 89 48 00
        E 0 89 4a 00
        E 0 89 3e 00
        E 0 89 18 00
        E 0 89 1f 00
        E 182 99 60 50
        E 0 99 62 50
        E 0 99 54 50
        E 0 99 56 50
        E 0 99 18 50
        E 0 99 1f 50
        E 58 89 60 00
        E 0 89 62 00
        E 0 89 54 00
        E 0 89 56 00
        E 0 89 18 00
        E 0 89 1f 00
        E 182 99 61 50
        E 0 99 62 50
        E 0 99 55 50
        E 0 99 56 50
        E 0 99 49 50
        E 0 99 4a 50
        E 0 99 3d 50
        E 0 99 3e 50
        E 0 99 1a 50
        E 0 99 1f 50
        E 58 89 61 00
        E 0 89 62 00
        E 0 89 55 00
        E 0 89 56 00
        E 0 89 49 00
        E 0 89 4a 00
        E 0 89 3d 00
        E 0 89 3e 00
        E 0 89 1a 00
        E 0 89 1f 00
        E 182 99 60 50
        E 0 99 62 50
        E 0 99 54 50
        E 0 99 56 50
        E 0 99 18 50
        E 0 99 1f 50
        E 58 89 60 00
        E 0 89 62 00
        E 0 89 54 00
        E 0 89 56 00
        E 0 89 18 00
        E 0 89 1f 00
        E 182 99 60 50
        E 0 99 62 50
        E 0 99 54 50
        E 0 99 56 50
        E 0 99 48 50
        E 0 99 4a 50
        E 0 99 3e 50
        E 0 99 18 50
        E 0 99 1f 50
        E 58 89 60 00
        E 0 89 62 00
        E 0 89 54 00
        E 0 89 56 00
        E 0 89 48 00
        E 0 89 4a 00
        E 0 89 3e 00
        E 0 89 18 00
        E 0 89 1f 00
        E 182 99 62 50
        E 0 99 56 50
        E 0 99 1f 50
        E 58 89 62 00
        E 0 89 56 00
        E 0 89 1f 00
        E 182 99 61 50
        E 0 99 62 50
        E 0 99 55 50
        E 0 99 56 50
        E 0 99 49 50
        E 0 99 4a 50
        E 0 99 3d 50
        E 0 99 3e 50
        E 0 99 1a 50
        E 0 99 1f 50
        E 58 89 61 00
        E 0 89 62 00
        E 0 89 55 00
        E 0 89 56 00
        E 0 89 49 00
        E 0 89 4a 00
        E 0 89 3d 00
        E 0 89 3e 00
        E 0 89 1a 00
        E 0 89 1f 00
        E 182 99 62 50
        E 0 99 56 50
        E 0 99 1f 50
        E 58 89 62 00
        E 0 89 56 00
        E 0 89 1f 00
        E 182 99 60 50
        E 0 99 62 50
        E 0 99 54 50
        E 0 99 56 50
        E 0 99 48 50
        E 0 99 4a 50
        E 0 99 3e 50
        E 0 99 18 50
        E 0 99 1f 50
        E 58 89 60 00
        E 0 89 62 00
        E 0 89 54 00
        E 0 89 56 00
        E 0 89 48 00
        E 0 89 4a 00
        E 0 89 3e 00
        E 0 89 18 00
        E 0 89 1f 00
        E 182 99 60 50
        E 0 99 62 50
        E 0 99 54 50
        E 0 99 56 50
        E 0 99 18 50
        E 0 99 1f 50
        E 58 89 60 00
        E 0 89 62 00
        E 0 89 54 00
        E 0 89 56 00
        E 0 89 18 00
        E 0 89 1f 00
        E 182 99 61 50
        E 0 99 62 50
        E 0 99 55 50
        E 0 99 56 50
        E 0 99 49 50
        E 0 99 4a 50
        E 0 99 3d 50
        E 0 99 3e 50
        E 0 99 1a 50
        E 0 99 1f 50
        E 58 89 61 00
        E 0 89 62 00
        E 0 89 55 00
        E 0 89 56 00
        E 0 89 49 00
        E 0 89 4a 00
        E 0 89 3d 00
        E 0 89 3e 00
        E 0 89 1a 00
        E 0 89 1f 00
        E 182 99 60 50
        E 0 99 62 50
        E 0 99 54 50
        E 0 99 56 50
        E 0 99 18 50
        E 0 99 1f 50
        E 58 89 60 00
        E 0 89 62 00
        E 0 89 54 00
        E 0 89 56 00
        E 0 89 18 00
        E 0 89 1f 00
        E 182 99 60 50
        E 0 99 64 50
        E 0 99 54 50
        E 0 99 58 50
        E 0 99 48 50
        E 0 99 4c 50
        E 0 99 40 50
        E 0 99 18 50
        E 0 99 26 50
        E 58 89 60 00
        E 0 89 54 00
        E 0 89 48 00
        E 0 89 18 00
        E 2 89 64 00
        E 0 89 58 00
        E 0 89 4c 00
        E 0 89 40 00
        E 0 89 26 00
        E 180 99 63 50
        E 0 99 57 50
        E 0 99 2a 50
        E 58 89 63 00
        E 0 89 57 00
        E 0 89 2a 00
        E 182 99 61 50
        E 0 99 63 50
        E 0 99 55 50
        E 0 99 57 50
        E 0 99 49 50
        E 0 99 4b 50
        E 0 99 3d 50
        E 0 99 3f 50
        E 0 99 1a 50
        E 0 99 2a 50
        E 58 89 61 00
        E 0 89 63 00
        E 0 89 55 00
        E 0 89 57 00
        E 0 89 49 00
        E 0 89 4b 00
        E 0 89 3d 00
        E 0 89 3f 00
        E 0 89 1a 00
        E 0 89 2a 00
        E 182 99 60 50
        E 0 99 63 50
        E 0 99 54 50
        E 0 99 57 50
        E 0 99 18 50
        E 0 99 2a 50
        E 58 89 60 00
        E 0 89 63 00
        E 0 89 54 00
        E 0 89 57 00
        E 0 89 18 00
        E 0 89 2a 00
        E 182 99 60 50
        E 0 99 63 50
        E 0 99 54 50
        E 0 99 57 50
        E 0 99 48 50
        E 0 99 4b 50
        E 0 99 3f 50
        E 0 99 18 50
        E 0 99 2a 50
        E 58 89 60 00
        E 0 89 63 00
        E 0 89 54 00
        E 0 89 57 00
        E 0 89 48 00
        E 0 89 4b 00
        E 0 89 3f 00
        E 0 89 18 00
        E 0 89 2a 00
        E 182 99 60 50
        E 0 99 63 50
        E 0 99 54 50
        E 0 99 57 50
        E 0 99 18 50
        E 0 99 2a 50
        E 58 89 60 00
        E 0 89 63 00
        E 0 89 54 00
        E 0 89 57 00
        E 0 89 18 00
        E 0 89 2a 00
        E 182 99 61 50
        E 0 99 63 50
        E 0 99 55 50
        E 0 99 57 50
        E 0 99 49 50
        E 0 99 4b 50
        E 0 99 3d 50
        E 0 99 3f 50
        E 0 99 1a 50
        E 0 99 2a 50
        E 58 89 61 00
        E 0 89 63 00
        E 0 89 55 00
        E 0 89 57 00
        E 0 89 49 00
        E 0 89 4b 00
        E 0 89 3d 00
        E 0 89 3f 00
        E 0 89 1a 00
        E 0 89 2a 00
        E 182 99 60 50
        E 0 99 63 50
        E 0 99 54 50
        E 0 99 57 50
        E 0 99 18 50
        E 0 99 2a 50
        E 58 89 60 00
        E 0 89 63 00
        E 0 89 54 00
        E 0 89 57 00
        E 0 89 18 00
        E 0 89 2a 00
        E 182 99 60 50
        E 0 99 63 50
        E 0 99 54 50
        E 0 99 57 50
        E 0 99 48 50
        E 0 99 4b 50
        E 0 99 3f 50
        E 0 99 18 50
        E 0 99 2a 50
        E 58 89 60 00
        E 0 89 63 00
        E 0 89 54 00
        E 0 89 57 00
        E 0 89 48 00
        E 0 89 4b 00
        E 0 89 3f 00
        E 0 89 18 00
        E 0 89 2a 00
        E 182 99 63 50
        E 0 99 57 50
        E 0 99 2a 50
        E 58 89 63 00
        E 0 89 57 00
        E 0 89 2a 00
        E 182 99 61 50
        E 0 99 63 50
        E 0 99 55 50
        E 0 99 57 50
        E 0 99 49 50
        E 0 99 4b 50
        E 0 99 3d 50
        E 0 99 3f 50
        E 0 99 1a 50
        E 0 99 2a 50
        E 58 89 61 00
        E 0 89 63 00
        E 0 89 55 00
        E 0 89 57 00
        E 0 89 49 00
        E 0 89 4b 00
        E 0 89 3d 00
        E 0 89 3f 00
        E 0 89 1a 00
        E 0 89 2a 00
        E 182 99 60 50
        E 0 99 63 50
        E 0 99 54 50
        E 0 99 57 50
        E 0 99 18 50
        E 0 99 2a 50
        E 58 89 60 00
        E 0 89 63 00
        E 0 89 54 00
        E 0 89 57 00
        E 0 89 18 00
        E 0 89 2a 00
        E 182 99 60 50
        E 0 99 63 50
        E 0 99 54 50
        E 0 99 57 50
        E 0 99 48 50
        E 0 99 4b 50
        E 0 99 3f 50
        E 0 99 18 50
        E 0 99 2a 50
        E 58 89 60 00
        E 0 89 63 00
        E 0 89 54 00
        E 0 89 57 00
        E 0 89 48 00
        E 0 89 4b 00
        E 0 89 3f 00
        E 0 89 18 00
        E 0 89 2a 00
        E 182 99 60 50
        E 0 99 63 50
        E 0 99 54 50
        E 0 99 57 50
        E 0 99 18 50
        E 0 99 2a 50
        E 58 89 60 00
        E 0 89 63 00
        E 0 89 54 00
        E 0 89 57 00
        E 0 89 18 00
        E 0 89 2a 00
        E 182 99 61 50
        E 0 99 63 50
        E 0 99 55 50
        E 0 99 57 50
        E 0 99 49 50
        E 0 99 4b 50
        E 0 99 3d 50
        E 0 99 3f 50
        E 0 99 1a 50
        E 0 99 2a 50
        E 58 89 61 00
        E 0 89 63 00
        E 0 89 55 00
        E 0 89 57 00
        E 0 89 49 00
        E 0 89 4b 00
        E 0 89 3d 00
        E 0 89 3f 00
        E 0 89 1a 00
        E 0 89 2a 00
        E 182 99 60 50
        E 0 99 63 50
        E 0 99 54 50
        E 0 99 57 50
        E 0 99 18 50
        E 0 99 2a 50
        E 58 89 60 00
        E 0 89 63 00
        E 0 89 54 00
        E 0 89 57 00
        E 0 89 18 00
        E 0 89 2a 00
        E 182 99 60 50
        E 0 99 64 50
        E 0 99 54 50
        E 0 99 58 50
        E 0 99 48 50
        E 0 99 4c 50
        E 0 99 40 50
        E 0 99 18 50
        E 0 99 26 50
        E 58 89 60 00
        E 0 89 64 00
        E 0 89 54 00
        E 0 89 58 00
        E 0 89 48 00
        E 0 89 4c 00
        E 0 89 40 00
        E 0 89 18 00
        E 0 89 26 00
        E 182 99 62 50
        E 0 99 56 50
        E 0 99 1f 50
        E 58 89 62 00
        E 0 89 56 00
        E 0 89 1f 00
        E 182 99 61 50
        E 0 99 62 50
        E 0 99 55 50
        E 0 99 56 50
        E 0 99 49 50
        E 0 99 4a 50
        E 0 99 3d 50
        E 0 99 3e 50
        E 0 99 1a 50
        E 0 99 1f 50
        E 58 89 61 00
        E 0 89 62 00
        E 0 89 55 00
        E 0 89 56 00
        E 0 89 49 00
        E 0 89 4a 00
        E 0 89 3d 00
        E 0 89 3e 00
        E 0 89 1a 00
        E 0 89 1f 00
        E 182 99 62 50
        E 0 99 56 50
        E 0 99 1f 50
        E 58 89 62 00
        E 0 89 56 00
        E 0 89 1f 00
        E 182 99 60 50
        E 0 99 62 50
        E 0 99 54 50
        E 0 99 56 50
        E 0 99 48 50
        E 0 99 4a 50
        E 0 99 3e 50
        E 0 99 18 50
        E 0 99 1f 50
        E 58 89 60 00
        E 0 89 62 00
        E 0 89 54 00
        E 0 89 56 00
        E 0 89 48 00
        E 0 89 4a 00
        E 0 89 3e 00
        E 0 89 18 00
        E 0 89 1f 00
        E 182 99 60 50
        E 0 99 62 50
        E 0 99 54 50
        E 0 99 56 50
        E 0 99 18 50
        E 0 99 1f 50
        E 58 89 60 00
        E 0 89 62 00
        E 0 89 54 00
        E 0 89 56 00
        E 0 89 18 00
        E 0 89 1f 00
        E 182 99 61 50
        E 0 99 62 50
        E 0 99 55 50
        E 0 99 56 50
        E 0 99 49 50
        E 0 99 4a 50
        E 0 99 3d 50
        E 0 99 3e 50
        E 0 99 1a 50
        E 0 99 1f 50
        E 58 89 61 00
        E 0 89 62 00
        E 0 89 55 00
        E 0 89 56 00
        E 0 89 49 00
        E 0 89 4a 00
        E 0 89 3d 00
        E 0 89 3e 00
        E 0 89 1a 00
        E 0 89 1f 00
        E 182 99 60 50
        E 0 99 62 50
        E 0 99 54 50
        E 0 99 56 50
        E 0 99 18 50
        E 0 99 1f 50
        E 58 89 60 00
        E 0 89 62 00
        E 0 89 54 00
        E 0 89 56 00
        E 0 89 18 00
        E 0 89 1f 00
        E 182 99 60 50
        E 0 99 62 50
        E 0 99 54 50
        E 0 99 56 50
        E 0 99 48 50
        E 0 99 4a 50
        E 0 99 3e 50
        E 0 99 18 50
        E 0 99 1f 50
        E 58 89 60 00
        E 0 89 62 00
        E 0 89 54 00
        E 0 89 56 00
        E 0 89 48 00
        E 0 89 4a 00
        E 0 89 3e 00
        E 0 89 18 00
        E 0 89 1f 00
        E 182 99 62 50
        E 0 99 56 50
        E 0 99 1f 50
        E 58 89 62 00
        E 0 89 56 00
        E 0 89 1f 00
        E 182 99 61 50
        E 0 99 62 50
        E 0 99 55 50
        E 0 99 56 50
        E 0 99 49 50
        E 0 99 4a 50
        E 0 99 3d 50
        E 0 99 3e 50
        E 0 99 1a 50
        E 0 99 1f 50
        E 58 89 61 00
        E 0 89 62 00
        E 0 89 55 00
        E 0 89 56 00
        E 0 89 49 00
        E 0 89 4a 00
        E 0 89 3d 00
        E 0 89 3e 00
        E 0 89 1a 00
        E 0 89 1f 00
        E 182 99 62 50
        E 0 99 56 50
        E 0 99 1f 50
        E 58 89 62 00
        E 0 89 56 00
        E 0 89 1f 00
        E 182 99 60 50
        E 0 99 62 50
        E 0 99 54 50
        E 0 99 56 50
        E 0 99 48 50
        E 0 99 4a 50
        E 0 99 3e 50
        E 0 99 18 50
        E 0 99 1f 50
        E 58 89 60 00
        E 0 89 62 00
        E 0 89 54 00
        E 0 89 56 00
        E 0 89 48 00
        E 0 89 4a 00
        E 0 89 3e 00
        E 0 89 18 00
        E 0 89 1f 00
        E 182 99 60 50
        E 0 99 62 50
        E 0 99 54 50
        E 0 99 56 50
        E 0 99 18 50
        E 0 99 1f 50
        E 58 89 60 00
        E 0 89 62 00
        E 0 89 54 00
        E 0 89 56 00
        E 0 89 18 00
        E 0 89 1f 00
        E 182 99 61 50
        E 0 99 62 50
        E 0 99 55 50
        E 0 99 56 50
        E 0 99 49 50
        E 0 99 4a 50
        E 0 99 3d 50
        E 0 99 3e 50
        E 0 99 1a 50
        E 0 99 1f 50
        E 58 89 61 00
        E 0 89 62 00
        E 0 89 55 00
        E 0 89 56 00
        E 0 89 49 00
        E 0 89 4a 00
        E 0 89 3d 00
        E 0 89 3e 00
        E 0 89 1a 00
        E 0 89 1f 00
        E 182 99 60 50
        E 0 99 62 50
        E 0 99 54 50
        E 0 99 56 50
        E 0 99 18 50
        E 0 99 1f 50
        E 58 89 60 00
        E 0 89 62 00
        E 0 89 54 00
        E 0 89 56 00
        E 0 89 18 00
        E 0 89 1f 00
        E 182 99 60 50
        E 0 99 64 50
        E 0 99 54 50
        E 0 99 58 50
        E 0 99 48 50
        E 0 99 4c 50
        E 0 99 40 50
        E 0 99 18 50
        E 0 99 26 50
        E 58 89 60 00
        E 0 89 54 00
        E 0 89 48 00
        E 0 89 18 00
        E 2 89 64 00
        E 0 89 58 00
        E 0 89 4c 00
        E 0 89 40 00
        E 0 89 26 00
        E 180 99 63 50
        E 0 99 57 50
        E 0 99 2a 50
        E 58 89 63 00
        E 0 89 57 00
        E 0 89 2a 00
        E 182 99 61 50
        E 0 99 63 50
        E 0 99 55 50
        E 0 99 57 50
        E 0 99 49 50
        E 0 99 4b 50
        E 0 99 3d 50
        E 0 99 3f 50
        E 0 99 1a 50
        E 0 99 2a 50
        E 58 89 61 00
        E 0 89 63 00
        E 0 89 55 00
        E 0 89 57 00
        E 0 89 49 00
        E 0 89 4b 00
        E 0 89 3d 00
        E 0 89 3f 00
        E 0 89 1a 00
        E 0 89 2a 00
        E 182 99 60 50
        E 0 99 63 50
        E 0 99 54 50
        E 0 99 57 50
        E 0 99 18 50
        E 0 99 2a 50
        E 58 89 60 00
        E 0 89 63 00
        E 0 89 54 00
        E 0 89 57 00
        E 0 89 18 00
        E 0 89 2a 00
        E 182 99 60 50
        E 0 99 63 50
        E 0 99 54 50
        E 0 99 57 50
        E 0 99 48 50
        E 0 99 4b 50
        E 0 99 3f 50
        E 0 99 18 50
        E 0 99 2a 50
        E 58 89 60 00
        E 0 89 63 00
        E 0 89 54 00
        E 0 89 57 00
        E 0 89 48 00
        E 0 89 4b 00
        E 0 89 3f 00
        E 0 89 18 00
        E 0 89 2a 00
        E 182 99 60 50
        E 0 99 63 50
        E 0 99 54 50
        E 0 99 57 50
        E 0 99 18 50
        E 0 99 2a 50
        E 58 89 60 00
        E 0 89 63 00
        E 0 89 54 00
        E 0 89 57 00
        E 0 89 18 00
        E 0 89 2a 00
        E 182 99 61 50
        E 0 99 63 50
        E 0 99 55 50
        E 0 99 57 50
        E 0 99 49 50
        E 0 99 4b 50
        E 0 99 3d 50
        E 0 99 3f 50
        E 0 99 1a 50
        E 0 99 2a 50
        E 58 89 61 00
        E 0 89 63 00
        E 0 89 55 00
        E 0 89 57 00
        E 0 89 49 00
        E 0 89 4b 00
        E 0 89 3d 00
        E 0 89 3f 00
        E 0 89 1a 00
        E 0 89 2a 00
        E 182 99 60 50
        E 0 99 63 50
        E 0 99 54 50
        E 0 99 57 50
        E 0 99 18 50
        E 0 99 2a 50
        E 58 89 60 00
        E 0 89 63 00
        E 0 89 54 00
        E 0 89 57 00
        E 0 89 18 00
        E 0 89 2a 00
        E 182 99 60 50
        E 0 99 63 50
        E 0 99 54 50
        E 0 99 57 50
        E 0 99 48 50
        E 0 99 4b 50
        E 0 99 3f 50
        E 0 99 18 50
        E 0 99 2a 50
        E 58 89 60 00
        E 0 89 63 00
        E 0 89 54 00
        E 0 89 57 00
        E 0 89 48 00
        E 0 89 4b 00
        E 0 89 3f 00
        E 0 89 18 00
        E 0 89 2a 00
        E 182 99 63 50
        E 0 99 57 50
        E 0 99 2a 50
        E 58 89 63 00
        E 0 89 57 00
        E 0 89 2a 00
        E 182 99 61 50
        E 0 99 63 50
        E 0 99 55 50
        E 0 99 57 50
        E 0 99 49 50
        E 0 99 4b 50
        E 0 99 3d 50
        E 0 99 3f 50
        E 0 99 1a 50
        E 0 99 2a 50
        E 58 89 61 00
        E 0 89 63 00
        E 0 89 55 00
        E 0 89 57 00
        E 0 89 49 00
        E 0 89 4b 00
        E 0 89 3d 00
        E 0 89 3f 00
        E 0 89 1a 00
        E 0 89 2a 00
        E 182 90 78 59
        E 0 90 79 59
        E 0 90 7a 59
        E 0 90 7b 59
        E 0 90 7c 59
        E 0 99 60 50
        E 0 99 63 50
        E 0 99 54 50
        E 0 99 57 50
        E 0 99 18 50
        E 0 99 2a 50
        E 58 89 60 00
        E 0 89 63 00
        E 0 89 54 00
        E 0 89 57 00
        E 0 89 18 00
        E 0 89 2a 00
        E 182 99 60 50
        E 0 99 63 50
        E 0 99 54 50
        E 0 99 57 50
        E 0 99 48 50
        E 0 99 4b 50
        E 0 99 3f 50
        E 0 99 18 50
        E 0 99 2a 50
        E 58 89 60 00
        E 0 89 63 00
        E 0 89 54 00
        E 0 89 57 00
        E 0 89 48 00
        E 0 89 4b 00
        E 0 89 3f 00
        E 0 89 18 00
        E 0 89 2a 00
        E 182 99 61 50
        E 0 99 63 50
        E 0 99 55 50
        E 0 99 57 50
        E 0 99 1a 50
        E 0 99 2a 50
        E 58 89 61 00
        E 0 89 63 00
        E 0 89 55 00
        E 0 89 57 00
        E 0 89 1a 00
        E 0 89 2a 00
        E 182 99 61 50
        E 0 99 64 50
        E 0 99 55 50
        E 0 99 58 50
        E 0 99 49 50
        E 0 99 4c 50
        E 0 99 3d 50
        E 0 99 40 50
        E 0 99 1a 50
        E 0 99 26 50
        E 58 89 61 00
        E 0 89 64 00
        E 0 89 55 00
        E 0 89 58 00
        E 0 89 49 00
        E 0 89 4c 00
        E 0 89 3d 00
        E 0 89 40 00
        E 0 89 1a 00
        E 0 89 26 00
        E 182 99 60 50
        E 0 99 62 50
        E 0 99 54 50
        E 0 99 56 50
        E 0 99 18 50
        E 0 99 1f 50
        E 58 89 60 00
        E 0 89 62 00
        E 0 89 54 00
        E 0 89 56 00
        E 0 89 18 00
        E 0 89 1f 00
        E 182 80 78 00
        E 0 80 79 00
        E 0 80 7a 00
        E 0 80 7b 00
        E 0 80 7c 00
        E 0 99 60 50
        E 0 99 64 50
        E 0 99 54 50
        E 0 99 58 50
        E 0 99 48 50
        E 0 99 4c 50
        E 0 99 40 50
        E 0 99 18 50
        E 0 99 26 50
        E 58 89 60 00
        E 0 89 64 00
        E 0 89 54 00
        E 0 89 58 00
        E 0 89 48 00
        E 0 89 4c 00
        E 0 89 40 00
        E 0 89 18 00
        E 0 89 26 00
        E 182 99 62 50
        E 0 99 56 50
        E 0 99 1f 50
        E 58 89 62 00
        E 0 89 56 00
        E 0 89 1f 00
        E 182 99 61 50
        E 0 99 62 50
        E 0 99 55 50
        E 0 99 56 50
        E 0 99 49 50
        E 0 99 4a 50
        E 0 99 3d 50
        E 0 99 3e 50
        E 0 99 1a 50
        E 0 99 1f 50
        E 58 89 61 00
        E 0 89 62 00
        E 0 89 55 00
        E 0 89 56 00
        E 0 89 49 00
        E 0 89 4a 00
        E 0 89 3d 00
        E 0 89 3e 00
        E 0 89 1a 00
        E 0 89 1f 00
        E 182 99 62 50
        E 0 99 56 50
        E 0 99 1f 50
        E 58 89 62 00
        E 0 89 56 00
        E 0 89 1f 00
        E 182 99 60 50
        E 0 99 62 50
        E 0 99 54 50
        E 0 99 56 50
        E 0 99 48 50
        E 0 99 4a 50
        E 0 99 3e 50
        E 0 99 18 50
        E 0 99 1f 50
        E 58 89 60 00
        E 0 89 62 00
        E 0 89 54 00
        E 0 89 56 00
        E 0 89 48 00
        E 0 89 4a 00
        E 0 89 3e 00
        E 0 89 18 00
        E 0 89 1f 00
        E 182 99 60 50
        E 0 99 62 50
        E 0 99 54 50
        E 0 99 56 50
        E 0 99 18 50
        E 0 99 1f 50
        E 58 89 60 00
        E 0 89 62 00
        E 0 89 54 00
        E 0 89 56 00
        E 0 89 18 00
        E 0 89 1f 00
        E 182 99 61 50
        E 0 99 62 50
        E 0 99 55 50
        E 0 99 56 50
        E 0 99 49 50
        E 0 99 4a 50
        E 0 99 3d 50
        E 0 99 3e 50
        E 0 99 1a 50
        E 0 99 1f 50
        E 58 89 61 00
        E 0 89 62 00
        E 0 89 55 00
        E 0 89 56 00
        E 0 89 49 00
        E 0 89 4a 00
        E 0 89 3d 00
        E 0 89 3e 00
        E 0 89 1a 00
        E 0 89 1f 00
        E 182 99 60 50
        E 0 99 62 50
        E 0 99 54 50
        E 0 99 56 50
        E 0 99 18 50
        E 0 99 1f 50
        E 58 89 60 00
        E 0 89 62 00
        E 0 89 54 00
        E 0 89 56 00
        E 0 89 18 00
        E 0 89 1f 00
        E 182 99 60 50
        E 0 99 62 50
        E 0 99 54 50
        E 0 99 56 50
        E 0 99 48 50
        E 0 99 4a 50
        E 0 99 3e 50
        E 0 99 18 50
        E 0 99 1f 50
        E 58 89 60 00
        E 0 89 62 00
        E 0 89 54 00
        E 0 89 56 00
        E 0 89 48 00
        E 0 89 4a 00
        E 0 89 3e 00
        E 0 89 18 00
        E 0 89 1f 00
        E 182 99 62 50
        E 0 99 56 50
        E 0 99 1f 50
        E 58 89 62 00
        E 0 89 56 00
        E 0 89 1f 00
        E 182 99 61 50
        E 0 99 62 50
        E 0 99 55 50
        E 0 99 56 50
        E 0 99 49 50
        E 0 99 4a 50
        E 0 99 3d 50
        E 0 99 3e 50
        E 0 99 1a 50
        E 0 99 1f 50
        E 58 89 61 00
        E 0 89 62 00
        E 0 89 55 00
        E 0 89 56 00
        E 0 89 49 00
        E 0 89 4a 00
        E 0 89 3d 00
        E 0 89 3e 00
        E 0 89 1a 00
        E 0 89 1f 00
        E 182 99 62 50
        E 0 99 56 50
        E 0 99 1f 50
        E 58 89 62 00
        E 0 89 56 00
        E 0 89 1f 00
        E 182 99 60 50
        E 0 99 62 50
        E 0 99 54 50
        E 0 99 56 50
        E 0 99 48 50
        E 0 99 4a 50
        E 0 99 3e 50
        E 0 99 18 50
        E 0 99 1f 50
        E 58 89 60 00
        E 0 89 62 00
        E 0 89 54 00
        E 0 89 56 00
        E 0 89 48 00
        E 0 89 4a 00
        E 0 89 3e 00
        E 0 89 18 00
        E 0 89 1f 00
        E 182 99 60 50
        E 0 99 62 50
        E 0 99 54 50
        E 0 99 56 50
        E 0 99 18 50
        E 0 99 1f 50
        E 58 89 60 00
        E 0 89 62 00
        E 0 89 54 00
        E 0 89 56 00
        E 0 89 18 00
        E 0 89 1f 00
        E 182 99 61 50
        E 0 99 62 50
        E 0 99 55 50
        E 0 99 56 50
        E 0 99 49 50
        E 0 99 4a 50
        E 0 99 3d 50
        E 0 99 3e 50
        E 0 99 1a 50
        E 0 99 1f 50
        E 58 89 61 00
        E 0 89 62 00
        E 0 89 55 00
        E 0 89 56 00
        E 0 89 49 00
        E 0 89 4a 00
        E 0 89 3d 00
        E 0 89 3e 00
        E 0 89 1a 00
        E 0 89 1f 00
        E 182 99 60 50
        E 0 99 62 50
        E 0 99 54 50
        E 0 99 56 50
        E 0 99 18 50
        E 0 99 1f 50
        E 58 89 60 00
        E 0 89 62 00
        E 0 89 54 00
        E 0 89 56 00
        E 0 89 18 00
        E 0 89 1f 00
        E 182 99 60 50
        E 0 99 64 50
        E 0 99 54 50
        E 0 99 58 50
        E 0 99 48 50
        E 0 99 4c 50
        E 0 99 40 50
        E 0 99 18 50
        E 0 99 26 50
        E 58 89 60 00
        E 0 89 54 00
        E 0 89 48 00
        E 0 89 18 00
        E 2 89 64 00
        E 0 89 58 00
        E 0 89 4c 00
        E 0 89 40 00
        E 0 89 26 00
        E 180 99 60 50
        E 0 99 63 50
        E 0 99 54 50
        E 0 99 57 50
        E 0 99 18 50
        E 0 99 2a 50
        E 58 89 60 00
        E 0 89 63 00
        E 0 89 54 00
        E 0 89 57 00
        E 0 89 18 00
        E 0 89 2a 00
        E 182 99 61 50
        E 0 99 63 50
        E 0 99 55 50
        E 0 99 57 50
        E 0 99 49 50
        E 0 99 4b 50
        E 0 99 3d 50
        E 0 99 3f 50
        E 0 99 1a 50
        E 0 99 2a 50
        E 58 89 61 00
        E 0 89 63 00
        E 0 89 55 00
        E 0 89 57 00
        E 0 89 49 00
        E 0 89 4b 00
        E 0 89 3d 00
        E 0 89 3f 00
        E 0 89 1a 00
        E 0 89 2a 00
        E 182 99 60 50
        E 0 99 63 50
        E 0 99 54 50
        E 0 99 57 50
        E 0 99 18 50
        E 0 99 2a 50
        E 58 89 60 00
        E 0 89 63 00
        E 0 89 54 00
        E 0 89 57 00
        E 0 89 18 00
        E 0 89 2a 00
        E 182 99 60 50
        E 0 99 63 50
        E 0 99 54 50
        E 0 99 57 50
        E 0 99 48 50
        E 0 99 4b 50
        E 0 99 3f 50
        E 0 99 18 50
        E 0 99 2a 50
        E 58 89 60 00
        E 0 89 63 00
        E 0 89 54 00
        E 0 89 57 00
        E 0 89 48 00
        E 0 89 4b 00
        E 0 89 3f 00
        E 0 89 18 00
        E 0 89 2a 00
        E 182 99 60 50
        E 0 99 63 50
        E 0 99 54 50
        E 0 99 57 50
        E 0 99 18 50
        E 0 99 2a 50
        E 58 89 60 00
        E 0 89 63 00
        E 0 89 54 00
        E 0 89 57 00
        E 0 89 18 00
        E 0 89 2a 00
        E 182 99 61 50
        E 0 99 63 50
        E 0 99 55 50
        E 0 99 57 50
        E 0 99 49 50
        E 0 99 4b 50
        E 0 99 3d 50
        E 0 99 3f 50
        E 0 99 1a 50
        E 0 99 2a 50
        E 58 89 61 00
        E 0 89 63 00
        E 0 89 55 00
        E 0 89 57 00
        E 0 89 49 00
        E 0 89 4b 00
        E 0 89 3d 00
        E 0 89 3f 00
        E 0 89 1a 00
        E 0 89 2a 00
        E 182 99 60 50
        E 0 99 63 50
        E 0 99 54 50
        E 0 99 57 50
        E 0 99 18 50
        E 0 99 2a 50
        E 58 89 60 00
        E 0 89 63 00
        E 0 89 54 00
        E 0 89 57 00
        E 0 89 18 00
        E 0 89 2a 00
        E 182 99 60 50
        E 0 99 63 50
        E 0 99 54 50
        E 0 99 57 50
        E 0 99 48 50
        E 0 99 4b 50
        E 0 99 3f 50
        E 0 99 18 50
        E 0 99 2a 50
        E 58 89 60 00
        E 0 89 63 00
        E 0 89 54 00
        E 0 89 57 00
        E 0 89 48 00
        E 0 89 4b 00
        E 0 89 3f 00
        E 0 89 18 00
        E 0 89 2a 00
        E 182 99 60 50
        E 0 99 63 50
        E 0 99 54 50
        E 0 99 57 50
        E 0 99 18 50
        E 0 99 2a 50
        E 58 89 60 00
        E 0 89 63 00
        E 0 89 54 00
        E 0 89 57 00
        E 0 89 18 00
        E 0 89 2a 00
        E 182 90 74 50
        E 0 99 61 50
        E 0 99 63 50
        E 0 99 55 50
        E 0 99 57 50
        E 0 99 49 50
        E 0 99 4b 50
        E 0 99 3d 50
        E 0 99 3f 50
        E 0 99 1a 50
        E 0 99 2a 50
        E 58 89 61 00
        E 0 89 63 00
        E 0 89 55 00
        E 0 89 57 00
        E 0 89 49 00
        E 0 89 4b 00
        E 0 89 3d 00
        E 0 89 3f 00
        E 0 89 1a 00
        E 0 89 2a 00
        E 182 99 60 50
        E 0 99 63 50
        E 0 99 54 50
        E 0 99 57 50
        E 0 99 18 50
        E 0 99 2a 50
        E 58 89 60 00
        E 0 89 63 00
        E 0 89 54 00
        E 0 89 57 00
        E 0 89 18 00
        E 0 89 2a 00
        E 182 99 60 50
        E 0 99 63 50
        E 0 99 54 50
        E 0 99 57 50
        E 0 99 48 50
        E 0 99 4b 50
        E 0 99 3f 50
        E 0 99 18 50
        E 0 99 2a 50
        E 58 89 60 00
        E 0 89 63 00
        E 0 89 54 00
        E 0 89 57 00
        E 0 89 48 00
        E 0 89 4b 00
        E 0 89 3f 00
        E 0 89 18 00
        E 0 89 2a 00
        E 182 99 60 50
        E 0 99 63 50
        E 0 99 54 50
        E 0 99 57 50
        E 0 99 18 50
        E 0 99 2a 50
        E 58 89 60 00
        E 0 89 63 00
        E 0 89 54 00
        E 0 89 57 00
        E 0 89 18 00
        E 0 89 2a 00
        E 182 99 61 50
        E 0 99 64 50
        E 0 99 55 50
        E 0 99 58 50
        E 0 99 49 50
        E 0 99 4c 50
        E 0 99 3d 50
        E 0 99 40 50
        E 0 99 1a 50
        E 0 99 26 50
        E 58 89 61 00
        E 0 89 64 00
        E 0 89 55 00
        E 0 89 58 00
        E 0 89 49 00
        E 0 89 4c 00
        E 0 89 3d 00
        E 0 89 40 00
        E 0 89 1a 00
        E 0 89 26 00
        E 182 99 60 50
        E 0 99 63 50
        E 0 99 54 50
        E 0 99 57 50
        E 0 99 18 50
        E 0 99 2a 50
        E 58 89 60 00
        E 0 89 63 00
        E 0 89 54 00
        E 0 89 57 00
        E 0 89 18 00
        E 0 89 2a 00
        E 182 99 60 50
        E 0 99 64 50
        E 0 99 54 50
        E 0 99 58 50
        E 0 99 48 50
        E 0 99 4c 50
        E 0 99 40 50
        E 0 99 18 50
        E 0 99 26 50
        E 58 89 60 00
        E 0 89 64 00
        E 0 89 54 00
        E 0 89 58 00
        E 0 89 48 00
        E 0 89 4c 00
        E 0 89 40 00
        E 0 89 18 00
        E 0 89 26 00
        E 62 80 74 00
        E 120 99 62 50
        E 0 99 56 50
        E 0 99 1f 50
        E 58 89 62 00
        E 0 89 56 00
        E 0 89 1f 00
        E 182 99 61 50
        E 0 99 62 50
        E 0 99 55 50
        E 0 99 56 50
        E 0 99 49 50
        E 0 99 4a 50
        E 0 99 3d 50
        E 0 99 3e 50
        E 0 99 1a 50
        E 0 99 1f 50
        E 58 89 61 00
        E 0 89 62 00
        E 0 89 55 00
        E 0 89 56 00
        E 0 89 49 00
        E 0 89 4a 00
        E 0 89 3d 00
        E 0 89 3e 00
        E 0 89 1a 00
        E 0 89 1f 00
        E 182 99 62 50
        E 0 99 56 50
        E 0 99 1f 50
        E 58 89 62 00
        E 0 89 56 00
        E 0 89 1f 00
        E 182 99 60 50
        E 0 99 62 50
        E 0 99 54 50
        E 0 99 56 50
        E 0 99 48 50
        E 0 99 4a 50
        E 0 99 3e 50
        E 0 99 18 50
        E 0 99 1f 50
        E 58 89 60 00
        E 0 89 62 00
        E 0 89 54 00
        E 0 89 56 00
        E 0 89 48 00
        E 0 89 4a 00
        E 0 89 3e 00
        E 0 89 18 00
        E 0 89 1f 00
        E 182 99 60 50
        E 0 99 62 50
        E 0 99 54 50
        E 0 99 56 50
        E 0 99 18 50
        E 0 99 1f 50
        E 58 89 60 00
        E 0 89 62 00
        E 0 89 54 00
        E 0 89 56 00
        E 0 89 18 00
        E 0 89 1f 00
        E 182 99 61 50
        E 0 99 62 50
        E 0 99 55 50
        E 0 99 56 50
        E 0 99 49 50
        E 0 99 4a 50
        E 0 99 3d 50
        E 0 99 3e 50
        E 0 99 1a 50
        E 0 99 1f 50
        E 58 89 61 00
        E 0 89 62 00
        E 0 89 55 00
        E 0 89 56 00
        E 0 89 49 00
        E 0 89 4a 00
        E 0 89 3d 00
        E 0 89 3e 00
        E 0 89 1a 00
        E 0 89 1f 00
        E 182 99 60 50
        E 0 99 62 50
        E 0 99 54 50
        E 0 99 56 50
        E 0 99 18 50
        E 0 99 1f 50
        E 58 89 60 00
        E 0 89 62 00
        E 0 89 54 00
        E 0 89 56 00
        E 0 89 18 00
        E 0 89 1f 00
        E 182 99 60 50
        E 0 99 62 50
        E 0 99 54 50
        E 0 99 56 50
        E 0 99 48 50
        E 0 99 4a 50
        E 0 99 3e 50
        E 0 99 18 50
        E 0 99 1f 50
        E 58 89 60 00
        E 0 89 62 00
        E 0 89 54 00
        E 0 89 56 00
        E 0 89 48 00
        E 0 89 4a 00
        E 0 89 3e 00
        E 0 89 18 00
        E 0 89 1f 00
        E 182 99 62 50
        E 0 99 56 50
        E 0 99 1f 50
        E 58 89 62 00
        E 0 89 56 00
        E 0 89 1f 00
        E 182 99 61 50
        E 0 99 62 50
        E 0 99 55 50
        E 0 99 56 50
        E 0 99 49 50
        E 0 99 4a 50
        E 0 99 3d 50
        E 0 99 3e 50
        E 0 99 1a 50
        E 0 99 1f 50
        E 58 89 61 00
        E 0 89 62 00
        E 0 89 55 00
        E 0 89 56 00
        E 0 89 49 00
        E 0 89 4a 00
        E 0 89 3d 00
        E 0 89 3e 00
        E 0 89 1a 00
        E 0 89 1f 00
        E 182 99 62 50
        E 0 99 56 50
        E 0 99 1f 50
        E 58 89 62 00
        E 0 89 56 00
        E 0 89 1f 00
        E 182 99 60 50
        E 0 99 62 50
        E 0 99 54 50
        E 0 99 56 50
        E 0 99 48 50
        E 0 99 4a 50
        E 0 99 3e 50
        E 0 99 18 50
        E 0 99 1f 50
        E 58 89 60 00
        E 0 89 62 00
        E 0 89 54 00
        E 0 89 56 00
        E 0 89 48 00
        E 0 89 4a 00
        E 0 89 3e 00
        E 0 89 18 00
        E 0 89 1f 00
        E 182 99 60 50
        E 0 99 62 50
        E 0 99 54 50
        E 0 99 56 50
        E 0 99 18 50
        E 0 99 1f 50
        E 58 89 60 00
        E 0 89 62 00
        E 0 89 54 00
        E 0 89 56 00
        E 0 89 18 00
        E 0 89 1f 00
        E 182 99 61 50
        E 0 99 62 50
        E 0 99 55 50
        E 0 99 56 50
        E 0 99 49 50
        E 0 99 4a 50
        E 0 99 3d 50
        E 0 99 3e 50
        E 0 99 1a 50
        E 0 99 1f 50
        E 58 89 61 00
        E 0 89 62 00
        E 0 89 55 00
        E 0 89 56 00
        E 0 89 49 00
        E 0 89 4a 00
        E 0 89 3d 00
        E 0 89 3e 00
        E 0 89 1a 00
        E 0 89 1f 00
        E 182 99 60 50
        E 0 99 62 50
        E 0 99 54 50
        E 0 99 56 50
        E 0 99 18 50
        E 0 99 1f 50
        E 58 89 60 00
        E 0 89 62 00
        E 0 89 54 00
        E 0 89 56 00
        E 0 89 18 00
        E 0 89 1f 00
        E 182 99 60 50
        E 0 99 64 50
        E 0 99 54 50
        E 0 99 58 50
        E 0 99 48 50
        E 0 99 4c 50
        E 0 99 40 50
        E 0 99 18 50
        E 0 99 26 50
        E 58 89 60 00
        E 0 89 54 00
        E 0 89 48 00
        E 0 89 18 00
        E 2 89 64 00
        E 0 89 58 00
        E 0 89 4c 00
        E 0 89 40 00
        E 0 89 26 00
        E 180 99 60 50
        E 0 99 63 50
        E 0 99 54 50
        E 0 99 57 50
        E 0 99 18 50
        E 0 99 2a 50
        E 58 89 60 00
        E 0 89 63 00
        E 0 89 54 00
        E 0 89 57 00
        E 0 89 18 00
        E 0 89 2a 00
        E 182 99 61 50
        E 0 99 63 50
        E 0 99 55 50
        E 0 99 57 50
        E 0 99 49 50
        E 0 99 4b 50
        E 0 99 3d 50
        E 0 99 3f 50
        E 0 99 1a 50
        E 0 99 2a 50
        E 58 89 61 00
        E 0 89 63 00
        E 0 89 55 00
        E 0 89 57 00
        E 0 89 49 00
        E 0 89 4b 00
        E 0 89 3d 00
        E 0 89 3f 00
        E 0 89 1a 00
        E 0 89 2a 00
        E 182 99 60 50
        E 0 99 63 50
        E 0 99 54 50
        E 0 99 57 50
        E 0 99 18 50
        E 0 99 2a 50
        E 58 89 60 00
        E 0 89 63 00
        E 0 89 54 00
        E 0 89 57 00
        E 0 89 18 00
        E 0 89 2a 00
        E 182 99 60 50
        E 0 99 63 50
        E 0 99 54 50
        E 0 99 57 50
        E 0 99 48 50
        E 0 99 4b 50
        E 0 99 3f 50
        E 0 99 18 50
        E 0 99 2a 50
        E 58 89 60 00
        E 0 89 63 00
        E 0 89 54 00
        E 0 89 57 00
        E 0 89 48 00
        E 0 89 4b 00
        E 0 89 3f 00
        E 0 89 18 00
        E 0 89 2a 00
        E 182 99 60 50
        E 0 99 63 50
        E 0 99 54 50
        E 0 99 57 50
        E 0 99 18 50
        E 0 99 2a 50
        E 58 89 60 00
        E 0 89 63 00
        E 0 89 54 00
        E 0 89 57 00
        E 0 89 18 00
        E 0 89 2a 00
        E 182 99 61 50
        E 0 99 63 50
        E 0 99 55 50
        E 0 99 57 50
        E 0 99 49 50
        E 0 99 4b 50
        E 0 99 3d 50
        E 0 99 3f 50
        E 0 99 1a 50
        E 0 99 2a 50
        E 58 89 61 00
        E 0 89 63 00
        E 0 89 55 00
        E 0 89 57 00
        E 0 89 49 00
        E 0 89 4b 00
        E 0 89 3d 00
        E 0 89 3f 00
        E 0 89 1a 00
        E 0 89 2a 00
        E 182 99 60 50
        E 0 99 63 50
        E 0 99 54 50
        E 0 99 57 50
        E 0 99 18 50
        E 0 99 2a 50
        E 58 89 60 00
        E 0 89 63 00
        E 0 89 54 00
        E 0 89 57 00
        E 0 89 18 00
        E 0 89 2a 00
        E 182 90 78 59
        E 0 90 79 59
        E 0 90 7a 59
        E 0 90 7b 59
        E 0 90 7c 59
        E 0 99 60 50
        E 0 99 61 50
        E 0 99 54 50
        E 0 99 55 50
        E 0 99 49 50
        E 0 99 3d 50
        E 0 99 18 50
        E 0 99 1b 50
        E 60 89 60 00
        E 0 89 61 00
        E 0 89 54 00
        E 0 89 55 00
        E 0 89 49 00
        E 0 89 3d 00
        E 0 89 18 00
        E 0 89 1b 00
        E 60 99 61 50
        E 0 99 1a 50
        E 60 89 61 00
        E 0 89 1a 00
        E 60 99 60 50
        E 0 99 61 50
        E 0 99 54 50
        E 0 99 55 50
        E 0 99 18 50
        E 0 99 1b 50
        E 60 89 60 00
        E 0 89 61 00
        E 0 89 54 00
        E 0 89 55 00
        E 0 89 18 00
        E 0 89 1b 00
        E 60 99 61 50
        E 0 99 1a 50
        E 60 89 61 00
        E 0 89 1a 00
        E 60 99 60 50
        E 0 99 61 50
        E 0 99 54 50
        E 0 99 55 50
        E 0 99 49 50
        E 0 99 3d 50
        E 0 99 18 50
        E 0 99 1b 50
        E 60 89 60 00
        E 0 89 61 00
        E 0 89 54 00
        E 0 89 55 00
        E 0 89 49 00
        E 0 89 3d 00
        E 0 89 18 00
        E 0 89 1b 00
        E 60 99 61 50
        E 0 99 1a 50
        E 60 89 61 00
        E 0 89 1a 00
        E 60 99 60 50
        E 0 99 61 50
        E 0 99 54 50
        E 0 99 55 50
        E 0 99 18 50
        E 0 99 1b 50
        E 60 89 60 00
        E 0 89 61 00
        E 0 89 54 00
        E 0 89 55 00
        E 0 89 18 00
        E 0 89 1b 00
        E 60 99 61 50
        E 0 99 1a 50
        E 60 89 61 00
        E 0 89 1a 00
        E 60 99 60 50
        E 0 99 61 50
        E 0 99 54 50
        E 0 99 55 50
        E 0 99 49 50
        E 0 99 3d 50
        E 0 99 18 50
        E 0 99 1b 50
        E 60 89 60 00
        E 0 89 61 00
        E 0 89 54 00
        E 0 89 55 00
        E 0 89 49 00
        E 0 89 3d 00
        E 0 89 18 00
        E 0 89 1b 00
        E 60 99 61 50
        E 0 99 1a 50
        E 60 89 61 00
        E 0 89 1a 00
        E 60 99 61 50
        E 0 99 55 50
        E 0 99 1b 50
        E 60 89 61 00
        E 0 89 55 00
        E 0 89 1b 00
        E 60 99 60 50
        E 0 99 18 50
        E 60 89 60 00
        E 0 89 18 00
        E 59 80 78 00
        E 0 80 79 00
        E 0 80 7a 00
        E 0 80 7b 00
        E 0 80 7c 00
        E 1 90 64 50
        E 0 90 58 50
        E 0 90 4c 50
        E 0 90 70 50
        E 0 90 40 50
        E 0 90 33 50
        E 0 99 61 50
        E 0 99 55 50
        E 0 99 49 50
        E 0 99 3d 50
        E 0 99 1a 50
        E 58 89 61 00
        E 0 89 55 00
        E 0 89 49 00
        E 0 89 3d 00
        E 0 89 1a 00
        E 2 80 64 00
        E 0 80 58 00
        E 0 80 4c 00
        E 0 80 70 00
        E 0 80 40 00
        E 0 80 33 00
        <X 180 0
          /wFbaW50ZW5zZV0=
        >
        E 0 99 60 50
        E 0 99 54 50
        E 0 99 18 50
        E 48 90 74 59
        E 10 89 60 00
        E 0 89 54 00
        E 0 89 18 00
        E 182 99 60 50
        E 0 99 64 50
        E 0 99 54 50
        E 0 99 58 50
        E 0 99 48 50
        E 0 99 4c 50
        E 0 99 40 50
        E 0 99 18 50
        E 0 99 26 50
        E 60 89 60 00
        E 0 89 64 00
        E 0 89 54 00
        E 0 89 58 00
        E 0 89 48 00
        E 0 89 4c 00
        E 0 89 40 00
        E 0 89 18 00
        E 0 89 26 00
        E 60 99 61 50
        E 0 99 1a 50
        E 60 89 61 00
        E 0 89 1a 00
        E 60 99 60 50
        E 0 99 54 50
        E 0 99 18 50
        E 58 89 60 00
        E 0 89 54 00
        E 0 89 18 00
        E 182 99 61 50
        E 0 99 64 50
        E 0 99 55 50
        E 0 99 58 50
        E 0 99 49 50
        E 0 99 4c 50
        E 0 99 3d 50
        E 0 99 40 50
        E 0 99 1a 50
        E 0 99 26 50
        E 58 89 61 00
        E 0 89 55 00
        E 0 89 49 00
        E 0 89 3d 00
        E 0 89 1a 00
        E 2 89 64 00
        E 0 89 58 00
        E 0 89 4c 00
        E 0 89 40 00
        E 0 89 26 00
        E 180 99 60 50
        E 0 99 62 50
        E 0 99 54 50
        E 0 99 56 50
        E 0 99 18 50
        E 0 99 1f 50
        E 60 89 60 00
        E 0 89 62 00
        E 0 89 54 00
        E 0 89 56 00
        E 0 89 18 00
        E 0 89 1f 00
        E 60 99 61 50
        E 0 99 1a 50
        E 60 89 61 00
        E 0 89 1a 00
        E 60 99 60 50
        E 0 99 62 50
        E 0 99 54 50
        E 0 99 56 50
        E 0 99 48 50
        E 0 99 4a 50
        E 0 99 3e 50
        E 0 99 18 50
        E 0 99 1f 50
        E 60 89 60 00
        E 0 89 62 00
        E 0 89 54 00
        E 0 89 56 00
        E 0 89 48 00
        E 0 89 4a 00
        E 0 89 3e 00
        E 0 89 18 00
        E 0 89 1f 00
        E 60 99 61 50
        E 0 99 1a 50
        E 60 89 61 00
        E 0 89 1a 00
        E 60 99 60 50
        E 0 99 62 50
        E 0 99 54 50
        E 0 99 56 50
        E 0 99 18 50
        E 0 99 1f 50
        E 58 89 60 00
        E 0 89 62 00
        E 0 89 54 00
        E 0 89 56 00
        E 0 89 18 00
        E 0 89 1f 00
        E 182 99 61 50
        E 0 99 62 50
        E 0 99 55 50
        E 0 99 56 50
        E 0 99 49 50
        E 0 99 4a 50
        E 0 99 3d 50
        E 0 99 3e 50
        E 0 99 1a 50
        E 0 99 1f 50
        E 58 89 61 00
        E 0 89 62 00
        E 0 89 55 00
        E 0 89 56 00
        E 0 89 49 00
        E 0 89 4a 00
        E 0 89 3d 00
        E 0 89 3e 00
        E 0 89 1a 00
        E 0 89 1f 00
        E 182 99 60 50
        E 0 99 62 50
        E 0 99 54 50
        E 0 99 56 50
        E 0 99 18 50
        E 0 99 1f 50
        E 60 89 60 00
        E 0 89 62 00
        E 0 89 54 00
        E 0 89 56 00
        E 0 89 18 00
        E 0 89 1f 00
        E 60 99 61 50
        E 0 99 1a 50
        E 60 89 61 00
        E 0 89 1a 00
        E 60 99 60 50
        E 0 99 62 50
        E 0 99 54 50
        E 0 99 56 50
        E 0 99 48 50
        E 0 99 4a 50
        E 0 99 3e 50
        E 0 99 18 50
        E 0 99 1f 50
        E 58 89 60 00
        E 0 89 62 00
        E 0 89 54 00
        E 0 89 56 00
        E 0 89 48 00
        E 0 89 4a 00
        E 0 89 3e 00
        E 0 89 18 00
        E 0 89 1f 00
        E 182 99 60 50
        E 0 99 62 50
        E 0 99 54 50
        E 0 99 56 50
        E 0 99 18 50
        E 0 99 1f 50
        E 58 89 60 00
        E 0 89 62 00
        E 0 89 54 00
        E 0 89 56 00
        E 0 89 18 00
        E 0 89 1f 00
        E 182 99 61 50
        E 0 99 62 50
        E 0 99 55 50
        E 0 99 56 50
        E 0 99 49 50
        E 0 99 4a 50
        E 0 99 3d 50
        E 0 99 3e 50
        E 0 99 1a 50
        E 0 99 1f 50
        E 58 89 61 00
        E 0 89 62 00
        E 0 89 55 00
        E 0 89 56 00
        E 0 89 49 00
        E 0 89 4a 00
        E 0 89 3d 00
        E 0 89 3e 00
        E 0 89 1a 00
        E 0 89 1f 00
        E 182 99 60 50
        E 0 99 62 50
        E 0 99 54 50
        E 0 99 56 50
        E 0 99 18 50
        E 0 99 1f 50
        E 60 89 60 00
        E 0 89 62 00
        E 0 89 54 00
        E 0 89 56 00
        E 0 89 18 00
        E 0 89 1f 00
        E 60 99 61 50
        E 0 99 1a 50
        E 60 89 61 00
        E 0 89 1a 00
        E 60 99 60 50
        E 0 99 62 50
        E 0 99 54 50
        E 0 99 56 50
        E 0 99 48 50
        E 0 99 4a 50
        E 0 99 3e 50
        E 0 99 18 50
        E 0 99 1f 50
        E 60 89 60 00
        E 0 89 62 00
        E 0 89 54 00
        E 0 89 56 00
        E 0 89 48 00
        E 0 89 4a 00
        E 0 89 3e 00
        E 0 89 18 00
        E 0 89 1f 00
        E 60 99 61 50
        E 0 99 1a 50
        E 60 89 61 00
        E 0 89 1a 00
        E 60 99 60 50
        E 0 99 62 50
        E 0 99 54 50
        E 0 99 56 50
        E 0 99 18 50
        E 0 99 1f 50
        E 58 89 60 00
        E 0 89 62 00
        E 0 89 54 00
        E 0 89 56 00
        E 0 89 18 00
        E 0 89 1f 00
        E 182 99 61 50
        E 0 99 62 50
        E 0 99 55 50
        E 0 99 56 50
        E 0 99 49 50
        E 0 99 4a 50
        E 0 99 3d 50
        E 0 99 3e 50
        E 0 99 1a 50
        E 0 99 1f 50
        E 58 89 61 00
        E 0 89 62 00
        E 0 89 55 00
        E 0 89 56 00
        E 0 89 49 00
        E 0 89 4a 00
        E 0 89 3d 00
        E 0 89 3e 00
        E 0 89 1a 00
        E 0 89 1f 00
        E 182 99 60 50
        E 0 99 62 50
        E 0 99 54 50
        E 0 99 56 50
        E 0 99 18 50
        E 0 99 1f 50
        E 60 89 60 00
        E 0 89 62 00
        E 0 89 54 00
        E 0 89 56 00
        E 0 89 18 00
        E 0 89 1f 00
        E 60 99 61 50
        E 0 99 1a 50
        E 60 89 61 00
        E 0 89 1a 00
        E 38 80 74 00
        E 22 99 60 50
        E 0 99 64 50
        E 0 99 54 50
        E 0 99 58 50
        E 0 99 48 50
        E 0 99 4c 50
        E 0 99 40 50
        E 0 99 18 50
        E 0 99 26 50
        E 58 89 60 00
        E 0 89 54 00
        E 0 89 48 00
        E 0 89 18 00
        E 2 89 64 00
        E 0 89 58 00
        E 0 89 4c 00
        E 0 89 40 00
        E 0 89 26 00
        E 180 99 60 50
        E 0 99 64 50
        E 0 99 54 50
        E 0 99 58 50
        E 0 99 18 50
        E 0 99 26 50
        E 58 89 60 00
        E 0 89 64 00
        E 0 89 54 00
        E 0 89 58 00
        E 0 89 18 00
        E 0 89 26 00
        E 182 99 61 50
        E 0 99 62 50
        E 0 99 55 50
        E 0 99 56 50
        E 0 99 49 50
        E 0 99 4a 50
        E 0 99 3d 50
        E 0 99 3e 50
        E 0 99 1a 50
        E 0 99 1f 50
        E 58 89 61 00
        E 0 89 62 00
        E 0 89 55 00
        E 0 89 56 00
        E 0 89 49 00
        E 0 89 4a 00
        E 0 89 3d 00
        E 0 89 3e 00
        E 0 89 1a 00
        E 0 89 1f 00
        E 182 99 60 50
        E 0 99 62 50
        E 0 99 54 50
        E 0 99 56 50
        E 0 99 18 50
        E 0 99 1f 50
        E 60 89 60 00
        E 0 89 62 00
        E 0 89 54 00
        E 0 89 56 00
        E 0 89 18 00
        E 0 89 1f 00
        E 60 99 61 50
        E 0 99 1a 50
        E 60 89 61 00
        E 0 89 1a 00
        E 60 99 60 50
        E 0 99 62 50
        E 0 99 54 50
        E 0 99 56 50
        E 0 99 48 50
        E 0 99 4a 50
        E 0 99 3e 50
        E 0 99 18 50
        E 0 99 1f 50
        E 60 89 60 00
        E 0 89 62 00
        E 0 89 54 00
        E 0 89 56 00
        E 0 89 48 00
        E 0 89 4a 00
        E 0 89 3e 00
        E 0 89 18 00
        E 0 89 1f 00
        E 60 99 61 50
        E 0 99 1a 50
        E 60 89 61 00
        E 0 89 1a 00
        E 60 99 60 50
        E 0 99 62 50
        E 0 99 54 50
        E 0 99 56 50
        E 0 99 18 50
        E 0 99 1f 50
        E 58 89 60 00
        E 0 89 62 00
        E 0 89 54 00
        E 0 89 56 00
        E 0 89 18 00
        E 0 89 1f 00
        E 182 99 61 50
        E 0 99 62 50
        E 0 99 55 50
        E 0 99 56 50
        E 0 99 49 50
        E 0 99 4a 50
        E 0 99 3d 50
        E 0 99 3e 50
        E 0 99 1a 50
        E 0 99 1f 50
        E 58 89 61 00
        E 0 89 62 00
        E 0 89 55 00
        E 0 89 56 00
        E 0 89 49 00
        E 0 89 4a 00
        E 0 89 3d 00
        E 0 89 3e 00
        E 0 89 1a 00
        E 0 89 1f 00
        E 182 99 60 50
        E 0 99 62 50
        E 0 99 54 50
        E 0 99 56 50
        E 0 99 18 50
        E 0 99 1f 50
        E 60 89 60 00
        E 0 89 62 00
        E 0 89 54 00
        E 0 89 56 00
        E 0 89 18 00
        E 0 89 1f 00
        E 60 99 61 50
        E 0 99 1a 50
        E 60 89 61 00
        E 0 89 1a 00
        E 60 99 60 50
        E 0 99 62 50
        E 0 99 54 50
        E 0 99 56 50
        E 0 99 48 50
        E 0 99 4a 50
        E 0 99 3e 50
        E 0 99 18 50
        E 0 99 1f 50
        E 58 89 60 00
        E 0 89 62 00
        E 0 89 54 00
        E 0 89 56 00
        E 0 89 48 00
        E 0 89 4a 00
        E 0 89 3e 00
        E 0 89 18 00
        E 0 89 1f 00
        E 182 99 60 50
        E 0 99 62 50
        E 0 99 54 50
        E 0 99 56 50
        E 0 99 18 50
        E 0 99 1f 50
        E 60 89 60 00
        E 0 89 62 00
        E 0 89 54 00
        E 0 89 56 00
        E 0 89 18 00
        E 0 89 1f 00
        E 180 99 61 50
        E 0 99 62 50
        E 0 99 55 50
        E 0 99 56 50
        E 0 99 49 50
        E 0 99 4a 50
        E 0 99 3d 50
        E 0 99 3e 50
        E 0 99 1a 50
        E 0 99 1f 50
        E 58 89 61 00
        E 0 89 62 00
        E 0 89 55 00
        E 0 89 56 00
        E 0 89 49 00
        E 0 89 4a 00
        E 0 89 3d 00
        E 0 89 3e 00
        E 0 89 1a 00
        E 0 89 1f 00
        E 182 99 60 50
        E 0 99 62 50
        E 0 99 54 50
        E 0 99 56 50
        E 0 99 18 50
        E 0 99 1f 50
        E 60 89 60 00
        E 0 89 62 00
        E 0 89 54 00
        E 0 89 56 00
        E 0 89 18 00
        E 0 89 1f 00
        E 60 99 61 50
        E 0 99 1a 50
        E 60 89 61 00
        E 0 89 1a 00
        E 60 99 60 50
        E 0 99 64 50
        E 0 99 54 50
        E 0 99 58 50
        E 0 99 48 50
        E 0 99 4c 50
        E 0 99 40 50
        E 0 99 18 50
        E 0 99 26 50
        E 58 89 60 00
        E 0 89 54 00
        E 0 89 48 00
        E 0 89 18 00
        E 2 89 64 00
        E 0 89 58 00
        E 0 89 4c 00
        E 0 89 40 00
        E 0 89 26 00
        E 180 99 60 50
        E 0 99 61 50
        E 0 99 54 50
        E 0 99 55 50
        E 0 99 18 50
        E 0 99 1b 50
        E 60 89 60 00
        E 0 89 61 00
        E 0 89 54 00
        E 0 89 55 00
        E 0 89 18 00
        E 0 89 1b 00
        E 60 99 61 50
        E 0 99 1a 50
        E 60 89 61 00
        E 0 89 1a 00
        E 60 99 60 50
        E 0 99 61 50
        E 0 99 54 50
        E 0 99 55 50
        E 0 99 49 50
        E 0 99 3d 50
        E 0 99 18 50
        E 0 99 1b 50
        E 60 89 60 00
        E 0 89 61 00
        E 0 89 54 00
        E 0 89 55 00
        E 0 89 49 00
        E 0 89 3d 00
        E 0 89 18 00
        E 0 89 1b 00
        E 60 99 61 50
        E 0 99 1a 50
        E 60 89 61 00
        E 0 89 1a 00
        E 60 99 60 50
        E 0 99 61 50
        E 0 99 54 50
        E 0 99 55 50
        E 0 99 18 50
        E 0 99 1b 50
        E 60 89 60 00
        E 0 89 61 00
        E 0 89 54 00
        E 0 89 55 00
        E 0 89 18 00
        E 0 89 1b 00
        E 60 99 61 50
        E 0 99 1a 50
        E 60 89 61 00
        E 0 89 1a 00
        E 60 99 60 50
        E 0 99 64 50
        E 0 99 54 50
        E 0 99 58 50
        E 0 99 48 50
        E 0 99 4c 50
        E 0 99 40 50
        E 0 99 18 50
        E 0 99 26 50
        E 58 89 60 00
        E 0 89 54 00
        E 0 89 48 00
        E 0 89 18 00
        E 2 89 64 00
        E 0 89 58 00
        E 0 89 4c 00
        E 0 89 40 00
        E 0 89 26 00
        E 180 90 64 50
        E 0 90 58 50
        E 0 90 22 50
        E 0 99 60 50
        E 0 99 62 50
        E 0 99 54 50
        E 0 99 56 50
        E 0 99 18 50
        E 0 99 26 50
        E 58 89 60 00
        E 0 89 62 00
        E 0 89 54 00
        E 0 89 56 00
        E 0 89 18 00
        E 0 89 26 00
        E 2 80 64 00
        E 0 80 58 00
        E 0 80 22 00
        E 180 99 61 50
        E 0 99 62 50
        E 0 99 55 50
        E 0 99 56 50
        E 0 99 49 50
        E 0 99 4a 50
        E 0 99 3d 50
        E 0 99 3e 50
        E 0 99 1a 50
        E 0 99 1f 50
        E 58 89 61 00
        E 0 89 62 00
        E 0 89 55 00
        E 0 89 56 00
        E 0 89 49 00
        E 0 89 4a 00
        E 0 89 3d 00
        E 0 89 3e 00
        E 0 89 1a 00
        E 0 89 1f 00
        E 182 99 60 50
        E 0 99 62 50
        E 0 99 54 50
        E 0 99 56 50
        E 0 99 18 50
        E 0 99 1f 50
        E 60 89 60 00
        E 0 89 62 00
        E 0 89 54 00
        E 0 89 56 00
        E 0 89 18 00
        E 0 89 1f 00
        E 60 99 61 50
        E 0 99 1a 50
        E 60 89 61 00
        E 0 89 1a 00
        E 60 99 60 50
        E 0 99 62 50
        E 0 99 54 50
        E 0 99 56 50
        E 0 99 48 50
        E 0 99 4a 50
        E 0 99 3e 50
        E 0 99 18 50
        E 0 99 1f 50
        E 60 89 60 00
        E 0 89 62 00
        E 0 89 54 00
        E 0 89 56 00
        E 0 89 48 00
        E 0 89 4a 00
        E 0 89 3e 00
        E 0 89 18 00
        E 0 89 1f 00
        E 60 99 61 50
        E 0 99 1a 50
        E 60 89 61 00
        E 0 89 1a 00
        E 60 99 60 50
        E 0 99 62 50
        E 0 99 54 50
        E 0 99 56 50
        E 0 99 18 50
        E 0 99 1f 50
        E 58 89 60 00
        E 0 89 62 00
        E 0 89 54 00
        E 0 89 56 00
        E 0 89 18 00
        E 0 89 1f 00
        E 182 99 61 50
        E 0 99 62 50
        E 0 99 55 50
        E 0 99 56 50
        E 0 99 49 50
        E 0 99 4a 50
        E 0 99 3d 50
        E 0 99 3e 50
        E 0 99 1a 50
        E 0 99 1f 50
        E 58 89 61 00
        E 0 89 62 00
        E 0 89 55 00
        E 0 89 56 00
        E 0 89 49 00
        E 0 89 4a 00
        E 0 89 3d 00
        E 0 89 3e 00
        E 0 89 1a 00
        E 0 89 1f 00
        E 182 99 60 50
        E 0 99 62 50
        E 0 99 54 50
        E 0 99 56 50
        E 0 99 18 50
        E 0 99 1f 50
        E 60 89 60 00
        E 0 89 62 00
        E 0 89 54 00
        E 0 89 56 00
        E 0 89 18 00
        E 0 89 1f 00
        E 60 99 61 50
        E 0 99 1a 50
        E 60 89 61 00
        E 0 89 1a 00
        E 60 99 60 50
        E 0 99 62 50
        E 0 99 54 50
        E 0 99 56 50
        E 0 99 48 50
        E 0 99 4a 50
        E 0 99 3e 50
        E 0 99 18 50
        E 0 99 1f 50
        E 58 89 60 00
        E 0 89 62 00
        E 0 89 54 00
        E 0 89 56 00
        E 0 89 48 00
        E 0 89 4a 00
        E 0 89 3e 00
        E 0 89 18 00
        E 0 89 1f 00
        E 182 99 60 50
        E 0 99 62 50
        E 0 99 54 50
        E 0 99 56 50
        E 0 99 18 50
        E 0 99 1f 50
        E 58 89 60 00
        E 0 89 62 00
        E 0 89 54 00
        E 0 89 56 00
        E 0 89 18 00
        E 0 89 1f 00
        E 182 99 61 50
        E 0 99 62 50
        E 0 99 55 50
        E 0 99 56 50
        E 0 99 49 50
        E 0 99 4a 50
        E 0 99 3d 50
        E 0 99 3e 50
        E 0 99 1a 50
        E 0 99 1f 50
        E 58 89 61 00
        E 0 89 62 00
        E 0 89 55 00
        E 0 89 56 00
        E 0 89 49 00
        E 0 89 4a 00
        E 0 89 3d 00
        E 0 89 3e 00
        E 0 89 1a 00
        E 0 89 1f 00
        E 182 99 60 50
        E 0 99 62 50
        E 0 99 54 50
        E 0 99 56 50
        E 0 99 18 50
        E 0 99 1f 50
        E 60 89 60 00
        E 0 89 62 00
        E 0 89 54 00
        E 0 89 56 00
        E 0 89 18 00
        E 0 89 1f 00
        E 60 99 61 50
        E 0 99 1a 50
        E 60 89 61 00
        E 0 89 1a 00
        E 60 99 60 50
        E 0 99 62 50
        E 0 99 54 50
        E 0 99 56 50
        E 0 99 48 50
        E 0 99 4a 50
        E 0 99 3e 50
        E 0 99 18 50
        E 0 99 1f 50
        E 60 89 60 00
        E 0 89 62 00
        E 0 89 54 00
        E 0 89 56 00
        E 0 89 48 00
        E 0 89 4a 00
        E 0 89 3e 00
        E 0 89 18 00
        E 0 89 1f 00
        E 60 99 61 50
        E 0 99 1a 50
        E 60 89 61 00
        E 0 89 1a 00
        E 60 99 60 50
        E 0 99 62 50
        E 0 99 54 50
        E 0 99 56 50
        E 0 99 18 50
        E 0 99 1f 50
        E 58 89 60 00
        E 0 89 62 00
        E 0 89 54 00
        E 0 89 56 00
        E 0 89 18 00
        E 0 89 1f 00
        E 182 99 61 50
        E 0 99 62 50
        E 0 99 55 50
        E 0 99 56 50
        E 0 99 49 50
        E 0 99 4a 50
        E 0 99 3d 50
        E 0 99 3e 50
        E 0 99 1a 50
        E 0 99 1f 50
        E 58 89 61 00
        E 0 89 62 00
        E 0 89 55 00
        E 0 89 56 00
        E 0 89 49 00
        E 0 89 4a 00
        E 0 89 3d 00
        E 0 89 3e 00
        E 0 89 1a 00
        E 0 89 1f 00
        E 182 99 60 50
        E 0 99 62 50
        E 0 99 54 50
        E 0 99 56 50
        E 0 99 18 50
        E 0 99 1f 50
        E 60 89 60 00
        E 0 89 62 00
        E 0 89 54 00
        E 0 89 56 00
        E 0 89 18 00
        E 0 89 1f 00
        E 60 99 61 50
        E 0 99 1a 50
        E 60 89 61 00
        E 0 89 1a 00
        E 60 99 60 50
        E 0 99 64 50
        E 0 99 54 50
        E 0 99 58 50
        E 0 99 48 50
        E 0 99 4c 50
        E 0 99 40 50
        E 0 99 18 50
        E 0 99 26 50
        E 58 89 60 00
        E 0 89 54 00
        E 0 89 48 00
        E 0 89 18 00
        E 2 89 64 00
        E 0 89 58 00
        E 0 89 4c 00
        E 0 89 40 00
        E 0 89 26 00
        E 180 99 60 50
        E 0 99 64 50
        E 0 99 54 50
        E 0 99 58 50
        E 0 99 18 50
        E 0 99 26 50
        E 58 89 60 00
        E 0 89 64 00
        E 0 89 54 00
        E 0 89 58 00
        E 0 89 18 00
        E 0 89 26 00
        E 182 99 61 50
        E 0 99 62 50
        E 0 99 55 50
        E 0 99 56 50
        E 0 99 49 50
        E 0 99 4a 50
        E 0 99 3d 50
        E 0 99 3e 50
        E 0 99 1a 50
        E 0 99 1f 50
        E 58 89 61 00
        E 0 89 62 00
        E 0 89 55 00
        E 0 89 56 00
        E 0 89 49 00
        E 0 89 4a 00
        E 0 89 3d 00
        E 0 89 3e 00
        E 0 89 1a 00
        E 0 89 1f 00
        E 182 99 60 50
        E 0 99 62 50
        E 0 99 54 50
        E 0 99 56 50
        E 0 99 18 50
        E 0 99 1f 50
        E 60 89 60 00
        E 0 89 62 00
        E 0 89 54 00
        E 0 89 56 00
        E 0 89 18 00
        E 0 89 1f 00
        E 60 99 61 50
        E 0 99 1a 50
        E 60 89 61 00
        E 0 89 1a 00
        E 60 99 60 50
        E 0 99 62 50
        E 0 99 54 50
        E 0 99 56 50
        E 0 99 48 50
        E 0 99 4a 50
        E 0 99 3e 50
        E 0 99 18 50
        E 0 99 1f 50
        E 60 89 60 00
        E 0 89 62 00
        E 0 89 54 00
        E 0 89 56 00
        E 0 89 48 00
        E 0 89 4a 00
        E 0 89 3e 00
        E 0 89 18 00
        E 0 89 1f 00
        E 60 99 61 50
        E 0 99 1a 50
        E 60 89 61 00
        E 0 89 1a 00
        E 60 99 60 50
        E 0 99 62 50
        E 0 99 54 50
        E 0 99 56 50
        E 0 99 18 50
        E 0 99 1f 50
        E 58 89 60 00
        E 0 89 62 00
        E 0 89 54 00
        E 0 89 56 00
        E 0 89 18 00
        E 0 89 1f 00
        E 182 99 61 50
        E 0 99 62 50
        E 0 99 55 50
        E 0 99 56 50
        E 0 99 49 50
        E 0 99 4a 50
        E 0 99 3d 50
        E 0 99 3e 50
        E 0 99 1a 50
        E 0 99 1f 50
        E 58 89 61 00
        E 0 89 62 00
        E 0 89 55 00
        E 0 89 56 00
        E 0 89 49 00
        E 0 89 4a 00
        E 0 89 3d 00
        E 0 89 3e 00
        E 0 89 1a 00
        E 0 89 1f 00
        E 182 99 60 50
        E 0 99 62 50
        E 0 99 54 50
        E 0 99 56 50
        E 0 99 18 50
        E 0 99 1f 50
        E 60 89 60 00
        E 0 89 62 00
        E 0 89 54 00
        E 0 89 56 00
        E 0 89 18 00
        E 0 89 1f 00
        E 60 99 61 50
        E 0 99 1a 50
        E 60 89 61 00
        E 0 89 1a 00
        E 60 99 60 50
        E 0 99 62 50
        E 0 99 54 50
        E 0 99 56 50
        E 0 99 48 50
        E 0 99 4a 50
        E 0 99 3e 50
        E 0 99 18 50
        E 0 99 1f 50
        E 58 89 60 00
        E 0 89 62 00
        E 0 89 54 00
        E 0 89 56 00
        E 0 89 48 00
        E 0 89 4a 00
        E 0 89 3e 00
        E 0 89 18 00
        E 0 89 1f 00
        E 182 99 60 50
        E 0 99 62 50
        E 0 99 54 50
        E 0 99 56 50
        E 0 99 18 50
        E 0 99 1f 50
        E 58 89 60 00
        E 0 89 62 00
        E 0 89 54 00
        E 0 89 56 00
        E 0 89 18 00
        E 0 89 1f 00
        E 182 99 61 50
        E 0 99 62 50
        E 0 99 55 50
        E 0 99 56 50
        E 0 99 49 50
        E 0 99 4a 50
        E 0 99 3d 50
        E 0 99 3e 50
        E 0 99 1a 50
        E 0 99 1f 50
        E 58 89 61 00
        E 0 89 62 00
        E 0 89 55 00
        E 0 89 56 00
        E 0 89 49 00
        E 0 89 4a 00
        E 0 89 3d 00
        E 0 89 3e 00
        E 0 89 1a 00
        E 0 89 1f 00
        E 182 99 60 50
        E 0 99 62 50
        E 0 99 54 50
        E 0 99 56 50
        E 0 99 18 50
        E 0 99 1f 50
        E 60 89 60 00
        E 0 89 62 00
        E 0 89 54 00
        E 0 89 56 00
        E 0 89 18 00
        E 0 89 1f 00
        E 60 99 61 50
        E 0 99 1a 50
        E 60 89 61 00
        E 0 89 1a 00
        E 60 99 60 50
        E 0 99 62 50
        E 0 99 54 50
        E 0 99 56 50
        E 0 99 48 50
        E 0 99 4a 50
        E 0 99 3e 50
        E 0 99 18 50
        E 0 99 1f 50
        E 58 89 60 00
        E 0 89 62 00
        E 0 89 54 00
        E 0 89 56 00
        E 0 89 48 00
        E 0 89 4a 00
        E 0 89 3e 00
        E 0 89 18 00
        E 0 89 1f 00
        E 182 99 60 50
        E 0 99 62 50
        E 0 99 54 50
        E 0 99 56 50
        E 0 99 18 50
        E 0 99 1f 50
        E 60 89 60 00
        E 0 89 62 00
        E 0 89 54 00
        E 0 89 56 00
        E 0 89 18 00
        E 0 89 1f 00
        E 60 99 60 50
        E 0 99 18 50
        E 60 89 60 00
        E 0 89 18 00
        E 60 90 70 50
        E 0 99 61 50
        E 0 99 64 50
        E 0 99 55 50
        E 0 99 58 50
        E 0 99 49 50
        E 0 99 4c 50
        E 0 99 3d 50
        E 0 99 40 50
        E 0 99 1a 50
        E 0 99 33 50
        E 58 89 61 00
        E 0 89 55 00
        E 0 89 49 00
        E 0 89 3d 00
        E 0 89 1a 00
        E 2 80 70 00
        E 0 89 64 00
        E 0 89 58 00
        E 0 89 4c 00
        E 0 89 40 00
        E 0 89 33 00
        E 180 99 60 50
        E 0 99 54 50
        E 0 99 18 50
        E 58 89 60 00
        E 0 89 54 00
        E 0 89 18 00
        E 182 99 60 50
        E 0 99 61 50
        E 0 99 64 50
        E 0 99 54 50
        E 0 99 55 50
        E 0 99 58 50
        E 0 99 49 50
        E 0 99 4c 50
        E 0 99 3d 50
        E 0 99 40 50
        E 0 99 18 50
        E 0 99 1a 50
        E 0 99 26 50
        E 58 89 60 00
        E 0 89 61 00
        E 0 89 54 00
        E 0 89 55 00
        E 0 89 49 00
        E 0 89 3d 00
        E 0 89 18 00
        E 0 89 1a 00
        E 2 89 64 00
        E 0 89 58 00
        E 0 89 4c 00
        E 0 89 40 00
        E 0 89 26 00
        <X 480 0
          /wFbaWRsZV0=
        >
        E 11100 90 74 59
        <X 1320 0
          /wFbaW50ZW5zZV0=
        >
        E 480 99 61 50
        E 0 99 64 50
        E 0 99 55 50
        E 0 99 58 50
        E 0 99 49 50
        E 0 99 4c 50
        E 0 99 70 50
        E 0 99 3d 50
        E 0 99 40 50
        E 0 99 1a 50
        E 0 99 33 50
        E 60 89 61 00
        E 0 89 64 00
        E 0 89 55 00
        E 0 89 58 00
        E 0 89 49 00
        E 0 89 4c 00
        E 0 89 70 00
        E 0 89 3d 00
        E 0 89 40 00
        E 0 89 1a 00
        E 0 89 33 00
        E 60 99 60 50
        E 0 99 18 50
        E 58 89 60 00
        E 0 89 18 00
        E 182 99 60 50
        E 0 99 18 50
        E 60 89 60 00
        E 0 89 18 00
        E 60 99 61 50
        E 0 99 64 50
        E 0 99 55 50
        E 0 99 58 50
        E 0 99 49 50
        E 0 99 4c 50
        E 0 99 70 50
        E 0 99 3d 50
        E 0 99 40 50
        E 0 99 1a 50
        E 0 99 33 50
        E 60 89 61 00
        E 0 89 64 00
        E 0 89 55 00
        E 0 89 58 00
        E 0 89 49 00
        E 0 89 4c 00
        E 0 89 70 00
        E 0 89 3d 00
        E 0 89 40 00
        E 0 89 1a 00
        E 0 89 33 00
        E 60 99 60 50
        E 0 99 18 50
        E 58 89 60 00
        E 0 89 18 00
        E 182 99 60 50
        E 0 99 18 50
        E 60 89 60 00
        E 0 89 18 00
        E 60 99 61 50
        E 0 99 62 50
        E 0 99 55 50
        E 0 99 56 50
        E 0 99 49 50
        E 0 99 4a 50
        E 0 99 3d 50
        E 0 99 3e 50
        E 0 99 1a 50
        E 0 99 1f 50
        E 58 89 61 00
        E 0 89 62 00
        E 0 89 55 00
        E 0 89 56 00
        E 0 89 49 00
        E 0 89 4a 00
        E 0 89 3d 00
        E 0 89 3e 00
        E 0 89 1a 00
        E 0 89 1f 00
        E 182 99 60 50
        E 0 99 61 50
        E 0 99 54 50
        E 0 99 55 50
        E 0 99 18 50
        E 0 99 1b 50
        E 60 89 60 00
        E 0 89 61 00
        E 0 89 54 00
        E 0 89 55 00
        E 0 89 18 00
        E 0 89 1b 00
        E 60 99 61 50
        E 0 99 1a 50
        E 60 89 61 00
        E 0 89 1a 00
        E 60 99 60 50
        E 0 99 61 50
        E 0 99 54 50
        E 0 99 55 50
        E 0 99 49 50
        E 0 99 3d 50
        E 0 99 18 50
        E 0 99 1b 50
        E 60 89 60 00
        E 0 89 61 00
        E 0 89 54 00
        E 0 89 55 00
        E 0 89 49 00
        E 0 89 3d 00
        E 0 89 18 00
        E 0 89 1b 00
        E 60 99 61 50
        E 0 99 1a 50
        E 60 89 61 00
        E 0 89 1a 00
        E 60 99 60 50
        E 0 99 61 50
        E 0 99 54 50
        E 0 99 55 50
        E 0 99 18 50
        E 0 99 1b 50
        E 60 89 60 00
        E 0 89 61 00
        E 0 89 54 00
        E 0 89 55 00
        E 0 89 18 00
        E 0 89 1b 00
        E 60 80 74 00
        E 0 99 61 50
        E 0 99 1a 50
        E 60 89 61 00
        E 0 89 1a 00
        E 60 99 60 50
        E 0 99 64 50
        E 0 99 54 50
        E 0 99 58 50
        E 0 99 48 50
        E 0 99 4c 50
        E 0 99 40 50
        E 0 99 18 50
        E 0 99 26 50
        E 58 89 60 00
        E 0 89 64 00
        E 0 89 54 00
        E 0 89 58 00
        E 0 89 48 00
        E 0 89 4c 00
        E 0 89 40 00
        E 0 89 18 00
        E 0 89 26 00
        E 182 90 64 50
        E 0 90 58 50
        E 0 90 22 50
        E 0 99 60 50
        E 0 99 62 50
        E 0 99 54 50
        E 0 99 56 50
        E 0 99 18 50
        E 0 99 26 50
        E 58 89 60 00
        E 0 89 62 00
        E 0 89 54 00
        E 0 89 56 00
        E 0 89 18 00
        E 0 89 26 00
        E 2 80 64 00
        E 0 80 58 00
        E 0 80 22 00
        E 180 99 61 50
        E 0 99 62 50
        E 0 99 55 50
        E 0 99 56 50
        E 0 99 49 50
        E 0 99 4a 50
        E 0 99 3d 50
        E 0 99 3e 50
        E 0 99 1a 50
        E 0 99 1f 50
        E 58 89 61 00
        E 0 89 62 00
        E 0 89 55 00
        E 0 89 56 00
        E 0 89 49 00
        E 0 89 4a 00
        E 0 89 3d 00
        E 0 89 3e 00
        E 0 89 1a 00
        E 0 89 1f 00
        E 182 90 78 59
        E 0 90 79 59
        E 0 90 7a 59
        E 0 90 7b 59
        E 0 90 7c 59
        E 0 99 60 50
        E 0 99 62 50
        E 0 99 54 50
        E 0 99 56 50
        E 0 99 18 50
        E 0 99 1f 50
        E 60 89 60 00
        E 0 89 62 00
        E 0 89 54 00
        E 0 89 56 00
        E 0 89 18 00
        E 0 89 1f 00
        E 60 99 61 50
        E 0 99 1a 50
        E 60 89 61 00
        E 0 89 1a 00
        E 60 99 60 50
        E 0 99 62 50
        E 0 99 54 50
        E 0 99 56 50
        E 0 99 48 50
        E 0 99 4a 50
        E 0 99 3e 50
        E 0 99 18 50
        E 0 99 1f 50
        E 60 89 60 00
        E 0 89 62 00
        E 0 89 54 00
        E 0 89 56 00
        E 0 89 48 00
        E 0 89 4a 00
        E 0 89 3e 00
        E 0 89 18 00
        E 0 89 1f 00
        E 60 99 61 50
        E 0 99 1a 50
        E 60 89 61 00
        E 0 89 1a 00
        E 60 99 60 50
        E 0 99 62 50
        E 0 99 54 50
        E 0 99 56 50
        E 0 99 18 50
        E 0 99 1f 50
        E 58 89 60 00
        E 0 89 62 00
        E 0 89 54 00
        E 0 89 56 00
        E 0 89 18 00
        E 0 89 1f 00
        E 182 80 78 00
        E 0 80 79 00
        E 0 80 7a 00
        E 0 80 7b 00
        E 0 80 7c 00
        E 0 99 61 50
        E 0 99 62 50
        E 0 99 55 50
        E 0 99 56 50
        E 0 99 49 50
        E 0 99 4a 50
        E 0 99 3d 50
        E 0 99 3e 50
        E 0 99 1a 50
        E 0 99 1f 50
        E 58 89 61 00
        E 0 89 62 00
        E 0 89 55 00
        E 0 89 56 00
        E 0 89 49 00
        E 0 89 4a 00
        E 0 89 3d 00
        E 0 89 3e 00
        E 0 89 1a 00
        E 0 89 1f 00
        E 182 99 60 50
        E 0 99 62 50
        E 0 99 54 50
        E 0 99 56 50
        E 0 99 18 50
        E 0 99 1f 50
        E 60 89 60 00
        E 0 89 62 00
        E 0 89 54 00
        E 0 89 56 00
        E 0 89 18 00
        E 0 89 1f 00
        E 60 99 61 50
        E 0 99 1a 50
        E 60 89 61 00
        E 0 89 1a 00
        E 60 99 60 50
        E 0 99 62 50
        E 0 99 54 50
        E 0 99 56 50
        E 0 99 48 50
        E 0 99 4a 50
        E 0 99 3e 50
        E 0 99 18 50
        E 0 99 1f 50
        E 58 89 60 00
        E 0 89 62 00
        E 0 89 54 00
        E 0 89 56 00
        E 0 89 48 00
        E 0 89 4a 00
        E 0 89 3e 00
        E 0 89 18 00
        E 0 89 1f 00
        E 182 99 60 50
        E 0 99 62 50
        E 0 99 54 50
        E 0 99 56 50
        E 0 99 18 50
        E 0 99 1f 50
        E 58 89 60 00
        E 0 89 62 00
        E 0 89 54 00
        E 0 89 56 00
        E 0 89 18 00
        E 0 89 1f 00
        E 182 99 61 50
        E 0 99 62 50
        E 0 99 55 50
        E 0 99 56 50
        E 0 99 49 50
        E 0 99 4a 50
        E 0 99 3d 50
        E 0 99 3e 50
        E 0 99 1a 50
        E 0 99 1f 50
        E 58 89 61 00
        E 0 89 62 00
        E 0 89 55 00
        E 0 89 56 00
        E 0 89 49 00
        E 0 89 4a 00
        E 0 89 3d 00
        E 0 89 3e 00
        E 0 89 1a 00
        E 0 89 1f 00
        E 182 99 60 50
        E 0 99 62 50
        E 0 99 54 50
        E 0 99 56 50
        E 0 99 18 50
        E 0 99 1f 50
        E 60 89 60 00
        E 0 89 62 00
        E 0 89 54 00
        E 0 89 56 00
        E 0 89 18 00
        E 0 89 1f 00
        E 60 99 61 50
        E 0 99 1a 50
        E 60 89 61 00
        E 0 89 1a 00
        E 60 99 60 50
        E 0 99 62 50
        E 0 99 54 50
        E 0 99 56 50
        E 0 99 48 50
        E 0 99 4a 50
        E 0 99 3e 50
        E 0 99 18 50
        E 0 99 1f 50
        E 60 89 60 00
        E 0 89 62 00
        E 0 89 54 00
        E 0 89 56 00
        E 0 89 48 00
        E 0 89 4a 00
        E 0 89 3e 00
        E 0 89 18 00
        E 0 89 1f 00
        E 60 99 61 50
        E 0 99 1a 50
        E 60 89 61 00
        E 0 89 1a 00
        E 60 99 60 50
        E 0 99 62 50
        E 0 99 54 50
        E 0 99 56 50
        E 0 99 18 50
        E 0 99 1f 50
        E 58 89 60 00
        E 0 89 62 00
        E 0 89 54 00
        E 0 89 56 00
        E 0 89 18 00
        E 0 89 1f 00
        E 182 99 61 50
        E 0 99 62 50
        E 0 99 55 50
        E 0 99 56 50
        E 0 99 49 50
        E 0 99 4a 50
        E 0 99 3d 50
        E 0 99 3e 50
        E 0 99 1a 50
        E 0 99 1f 50
        E 58 89 61 00
        E 0 89 62 00
        E 0 89 55 00
        E 0 89 56 00
        E 0 89 49 00
        E 0 89 4a 00
        E 0 89 3d 00
        E 0 89 3e 00
        E 0 89 1a 00
        E 0 89 1f 00
        E 182 99 60 50
        E 0 99 62 50
        E 0 99 54 50
        E 0 99 56 50
        E 0 99 18 50
        E 0 99 1f 50
        E 60 89 60 00
        E 0 89 62 00
        E 0 89 54 00
        E 0 89 56 00
        E 0 89 18 00
        E 0 89 1f 00
        E 60 99 61 50
        E 0 99 1a 50
        E 60 89 61 00
        E 0 89 1a 00
        E 55 90 74 59
        E 5 99 60 50
        E 0 99 64 50
        E 0 99 54 50
        E 0 99 58 50
        E 0 99 48 50
        E 0 99 4c 50
        E 0 99 40 50
        E 0 99 18 50
        E 0 99 26 50
        E 58 89 60 00
        E 0 89 64 00
        E 0 89 54 00
        E 0 89 58 00
        E 0 89 48 00
        E 0 89 4c 00
        E 0 89 40 00
        E 0 89 18 00
        E 0 89 26 00
        E 182 99 60 50
        E 0 99 64 50
        E 0 99 54 50
        E 0 99 58 50
        E 0 99 18 50
        E 0 99 26 50
        E 58 89 60 00
        E 0 89 64 00
        E 0 89 54 00
        E 0 89 58 00
        E 0 89 18 00
        E 0 89 26 00
        E 182 99 61 50
        E 0 99 62 50
        E 0 99 55 50
        E 0 99 56 50
        E 0 99 49 50
        E 0 99 4a 50
        E 0 99 3d 50
        E 0 99 3e 50
        E 0 99 1a 50
        E 0 99 1f 50
        E 58 89 61 00
        E 0 89 62 00
        E 0 89 55 00
        E 0 89 56 00
        E 0 89 49 00
        E 0 89 4a 00
        E 0 89 3d 00
        E 0 89 3e 00
        E 0 89 1a 00
        E 0 89 1f 00
        E 182 99 60 50
        E 0 99 62 50
        E 0 99 54 50
        E 0 99 56 50
        E 0 99 18 50
        E 0 99 1f 50
        E 60 89 60 00
        E 0 89 62 00
        E 0 89 54 00
        E 0 89 56 00
        E 0 89 18 00
        E 0 89 1f 00
        E 60 99 61 50
        E 0 99 1a 50
        E 60 89 61 00
        E 0 89 1a 00
        E 60 99 60 50
        E 0 99 62 50
        E 0 99 54 50
        E 0 99 56 50
        E 0 99 48 50
        E 0 99 4a 50
        E 0 99 3e 50
        E 0 99 18 50
        E 0 99 1f 50
        E 60 89 60 00
        E 0 89 62 00
        E 0 89 54 00
        E 0 89 56 00
        E 0 89 48 00
        E 0 89 4a 00
        E 0 89 3e 00
        E 0 89 18 00
        E 0 89 1f 00
        E 60 99 61 50
        E 0 99 1a 50
        E 60 89 61 00
        E 0 89 1a 00
        E 60 99 60 50
        E 0 99 62 50
        E 0 99 54 50
        E 0 99 56 50
        E 0 99 18 50
        E 0 99 1f 50
        E 58 89 60 00
        E 0 89 62 00
        E 0 89 54 00
        E 0 89 56 00
        E 0 89 18 00
        E 0 89 1f 00
        E 182 99 61 50
        E 0 99 62 50
        E 0 99 55 50
        E 0 99 56 50
        E 0 99 49 50
        E 0 99 4a 50
        E 0 99 3d 50
        E 0 99 3e 50
        E 0 99 1a 50
        E 0 99 1f 50
        E 58 89 61 00
        E 0 89 62 00
        E 0 89 55 00
        E 0 89 56 00
        E 0 89 49 00
        E 0 89 4a 00
        E 0 89 3d 00
        E 0 89 3e 00
        E 0 89 1a 00
        E 0 89 1f 00
        E 182 99 60 50
        E 0 99 62 50
        E 0 99 54 50
        E 0 99 56 50
        E 0 99 18 50
        E 0 99 1f 50
        E 60 89 60 00
        E 0 89 62 00
        E 0 89 54 00
        E 0 89 56 00
        E 0 89 18 00
        E 0 89 1f 00
        E 60 99 61 50
        E 0 99 1a 50
        E 60 89 61 00
        E 0 89 1a 00
        E 60 99 60 50
        E 0 99 62 50
        E 0 99 54 50
        E 0 99 56 50
        E 0 99 48 50
        E 0 99 4a 50
        E 0 99 3e 50
        E 0 99 18 50
        E 0 99 1f 50
        E 58 89 60 00
        E 0 89 62 00
        E 0 89 54 00
        E 0 89 56 00
        E 0 89 48 00
        E 0 89 4a 00
        E 0 89 3e 00
        E 0 89 18 00
        E 0 89 1f 00
        E 182 99 60 50
        E 0 99 62 50
        E 0 99 54 50
        E 0 99 56 50
        E 0 99 18 50
        E 0 99 1f 50
        E 58 89 60 00
        E 0 89 62 00
        E 0 89 54 00
        E 0 89 56 00
        E 0 89 18 00
        E 0 89 1f 00
        E 182 99 61 50
        E 0 99 62 50
        E 0 99 55 50
        E 0 99 56 50
        E 0 99 49 50
        E 0 99 4a 50
        E 0 99 3d 50
        E 0 99 3e 50
        E 0 99 1a 50
        E 0 99 1f 50
        E 58 89 61 00
        E 0 89 62 00
        E 0 89 55 00
        E 0 89 56 00
        E 0 89 49 00
        E 0 89 4a 00
        E 0 89 3d 00
        E 0 89 3e 00
        E 0 89 1a 00
        E 0 89 1f 00
        E 182 99 60 50
        E 0 99 62 50
        E 0 99 54 50
        E 0 99 56 50
        E 0 99 18 50
        E 0 99 1f 50
        E 60 89 60 00
        E 0 89 62 00
        E 0 89 54 00
        E 0 89 56 00
        E 0 89 18 00
        E 0 89 1f 00
        E 60 99 61 50
        E 0 99 1a 50
        E 60 89 61 00
        E 0 89 1a 00
        E 60 99 60 50
        E 0 99 64 50
        E 0 99 54 50
        E 0 99 58 50
        E 0 99 48 50
        E 0 99 4c 50
        E 0 99 40 50
        E 0 99 18 50
        E 0 99 26 50
        E 58 89 60 00
        E 0 89 64 00
        E 0 89 54 00
        E 0 89 58 00
        E 0 89 48 00
        E 0 89 4c 00
        E 0 89 40 00
        E 0 89 18 00
        E 0 89 26 00
        E 182 99 60 50
        E 0 99 61 50
        E 0 99 54 50
        E 0 99 55 50
        E 0 99 18 50
        E 0 99 1b 50
        E 60 89 60 00
        E 0 89 61 00
        E 0 89 54 00
        E 0 89 55 00
        E 0 89 18 00
        E 0 89 1b 00
        E 60 99 61 50
        E 0 99 1a 50
        E 60 89 61 00
        E 0 89 1a 00
        E 60 99 60 50
        E 0 99 61 50
        E 0 99 54 50
        E 0 99 55 50
        E 0 99 49 50
        E 0 99 3d 50
        E 0 99 18 50
        E 0 99 1b 50
        E 60 89 60 00
        E 0 89 61 00
        E 0 89 54 00
        E 0 89 55 00
        E 0 89 49 00
        E 0 89 3d 00
        E 0 89 18 00
        E 0 89 1b 00
        E 60 99 61 50
        E 0 99 1a 50
        E 60 89 61 00
        E 0 89 1a 00
        E 60 99 60 50
        E 0 99 61 50
        E 0 99 54 50
        E 0 99 55 50
        E 0 99 18 50
        E 0 99 1b 50
        E 60 89 60 00
        E 0 89 61 00
        E 0 89 54 00
        E 0 89 55 00
        E 0 89 18 00
        E 0 89 1b 00
        E 60 99 61 50
        E 0 99 1a 50
        E 3 80 74 00
        E 57 89 61 00
        E 0 89 1a 00
        E 60 99 60 50
        E 0 99 64 50
        E 0 99 54 50
        E 0 99 58 50
        E 0 99 48 50
        E 0 99 4c 50
        E 0 99 40 50
        E 0 99 18 50
        E 0 99 26 50
        E 58 89 60 00
        E 0 89 64 00
        E 0 89 54 00
        E 0 89 58 00
        E 0 89 48 00
        E 0 89 4c 00
        E 0 89 40 00
        E 0 89 18 00
        E 0 89 26 00
        E 182 99 60 50
        E 0 99 62 50
        E 0 99 64 50
        E 0 99 54 50
        E 0 99 56 50
        E 0 99 58 50
        E 0 99 18 50
        E 0 99 26 50
        E 0 99 22 50
        E 58 89 60 00
        E 0 89 62 00
        E 0 89 64 00
        E 0 89 54 00
        E 0 89 56 00
        E 0 89 58 00
        E 0 89 18 00
        E 0 89 26 00
        E 0 89 22 00
        E 182 99 61 50
        E 0 99 62 50
        E 0 99 55 50
        E 0 99 56 50
        E 0 99 49 50
        E 0 99 4a 50
        E 0 99 3d 50
        E 0 99 3e 50
        E 0 99 1a 50
        E 0 99 1f 50
        E 58 89 61 00
        E 0 89 62 00
        E 0 89 55 00
        E 0 89 56 00
        E 0 89 49 00
        E 0 89 4a 00
        E 0 89 3d 00
        E 0 89 3e 00
        E 0 89 1a 00
        E 0 89 1f 00
        E 182 99 60 50
        E 0 99 62 50
        E 0 99 54 50
        E 0 99 56 50
        E 0 99 18 50
        E 0 99 1f 50
        E 60 89 60 00
        E 0 89 62 00
        E 0 89 54 00
        E 0 89 56 00
        E 0 89 18 00
        E 0 89 1f 00
        E 60 99 61 50
        E 0 99 1a 50
        E 60 89 61 00
        E 0 89 1a 00
        E 60 99 60 50
        E 0 99 62 50
        E 0 99 54 50
        E 0 99 56 50
        E 0 99 48 50
        E 0 99 4a 50
        E 0 99 3e 50
        E 0 99 18 50
        E 0 99 1f 50
        E 60 89 60 00
        E 0 89 62 00
        E 0 89 54 00
        E 0 89 56 00
        E 0 89 48 00
        E 0 89 4a 00
        E 0 89 3e 00
        E 0 89 18 00
        E 0 89 1f 00
        E 60 99 61 50
        E 0 99 1a 50
        E 60 89 61 00
        E 0 89 1a 00
        E 60 99 60 50
        E 0 99 62 50
        E 0 99 54 50
        E 0 99 56 50
        E 0 99 18 50
        E 0 99 1f 50
        E 58 89 60 00
        E 0 89 62 00
        E 0 89 54 00
        E 0 89 56 00
        E 0 89 18 00
        E 0 89 1f 00
        E 182 99 61 50
        E 0 99 62 50
        E 0 99 55 50
        E 0 99 56 50
        E 0 99 49 50
        E 0 99 4a 50
        E 0 99 3d 50
        E 0 99 3e 50
        E 0 99 1a 50
        E 0 99 1f 50
        E 58 89 61 00
        E 0 89 62 00
        E 0 89 55 00
        E 0 89 56 00
        E 0 89 49 00
        E 0 89 4a 00
        E 0 89 3d 00
        E 0 89 3e 00
        E 0 89 1a 00
        E 0 89 1f 00
        E 182 99 60 50
        E 0 99 62 50
        E 0 99 54 50
        E 0 99 56 50
        E 0 99 18 50
        E 0 99 1f 50
        E 60 89 60 00
        E 0 89 62 00
        E 0 89 54 00
        E 0 89 56 00
        E 0 89 18 00
        E 0 89 1f 00
        E 60 99 61 50
        E 0 99 1a 50
        E 60 89 61 00
        E 0 89 1a 00
        E 60 99 60 50
        E 0 99 62 50
        E 0 99 54 50
        E 0 99 56 50
        E 0 99 48 50
        E 0 99 4a 50
        E 0 99 3e 50
        E 0 99 18 50
        E 0 99 1f 50
        E 58 89 60 00
        E 0 89 62 00
        E 0 89 54 00
        E 0 89 56 00
        E 0 89 48 00
        E 0 89 4a 00
        E 0 89 3e 00
        E 0 89 18 00
        E 0 89 1f 00
        E 182 99 60 50
        E 0 99 62 50
        E 0 99 54 50
        E 0 99 56 50
        E 0 99 18 50
        E 0 99 1f 50
        E 58 89 60 00
        E 0 89 62 00
        E 0 89 54 00
        E 0 89 56 00
        E 0 89 18 00
        E 0 89 1f 00
        E 182 99 61 50
        E 0 99 62 50
        E 0 99 55 50
        E 0 99 56 50
        E 0 99 49 50
        E 0 99 4a 50
        E 0 99 3d 50
        E 0 99 3e 50
        E 0 99 1a 50
        E 0 99 1f 50
        E 58 89 61 00
        E 0 89 62 00
        E 0 89 55 00
        E 0 89 56 00
        E 0 89 49 00
        E 0 89 4a 00
        E 0 89 3d 00
        E 0 89 3e 00
        E 0 89 1a 00
        E 0 89 1f 00
        E 182 99 60 50
        E 0 99 62 50
        E 0 99 54 50
        E 0 99 56 50
        E 0 99 18 50
        E 0 99 1f 50
        E 60 89 60 00
        E 0 89 62 00
        E 0 89 54 00
        E 0 89 56 00
        E 0 89 18 00
        E 0 89 1f 00
        E 60 99 61 50
        E 0 99 1a 50
        E 60 89 61 00
        E 0 89 1a 00
        E 60 99 60 50
        E 0 99 62 50
        E 0 99 54 50
        E 0 99 56 50
        E 0 99 48 50
        E 0 99 4a 50
        E 0 99 3e 50
        E 0 99 18 50
        E 0 99 1f 50
        E 60 89 60 00
        E 0 89 62 00
        E 0 89 54 00
        E 0 89 56 00
        E 0 89 48 00
        E 0 89 4a 00
        E 0 89 3e 00
        E 0 89 18 00
        E 0 89 1f 00
        E 60 99 61 50
        E 0 99 1a 50
        E 60 89 61 00
        E 0 89 1a 00
        E 60 99 60 50
        E 0 99 62 50
        E 0 99 54 50
        E 0 99 56 50
        E 0 99 18 50
        E 0 99 1f 50
        E 58 89 60 00
        E 0 89 62 00
        E 0 89 54 00
        E 0 89 56 00
        E 0 89 18 00
        E 0 89 1f 00
        E 182 99 61 50
        E 0 99 62 50
        E 0 99 55 50
        E 0 99 56 50
        E 0 99 49 50
        E 0 99 4a 50
        E 0 99 3d 50
        E 0 99 3e 50
        E 0 99 1a 50
        E 0 99 1f 50
        E 58 89 61 00
        E 0 89 62 00
        E 0 89 55 00
        E 0 89 56 00
        E 0 89 49 00
        E 0 89 4a 00
        E 0 89 3d 00
        E 0 89 3e 00
        E 0 89 1a 00
        E 0 89 1f 00
        E 182 99 60 50
        E 0 99 62 50
        E 0 99 54 50
        E 0 99 56 50
        E 0 99 18 50
        E 0 99 1f 50
        E 60 89 60 00
        E 0 89 62 00
        E 0 89 54 00
        E 0 89 56 00
        E 0 89 18 00
        E 0 89 1f 00
        E 60 99 61 50
        E 0 99 1a 50
        E 60 89 61 00
        E 0 89 1a 00
        E 60 99 60 50
        E 0 99 64 50
        E 0 99 54 50
        E 0 99 58 50
        E 0 99 48 50
        E 0 99 4c 50
        E 0 99 40 50
        E 0 99 18 50
        E 0 99 26 50
        E 58 89 60 00
        E 0 89 64 00
        E 0 89 54 00
        E 0 89 58 00
        E 0 89 48 00
        E 0 89 4c 00
        E 0 89 40 00
        E 0 89 18 00
        E 0 89 26 00
        E 182 99 60 50
        E 0 99 64 50
        E 0 99 54 50
        E 0 99 58 50
        E 0 99 18 50
        E 0 99 26 50
        E 58 89 60 00
        E 0 89 54 00
        E 0 89 18 00
        E 2 89 64 00
        E 0 89 58 00
        E 0 89 26 00
        E 180 99 61 50
        E 0 99 62 50
        E 0 99 55 50
        E 0 99 56 50
        E 0 99 49 50
        E 0 99 4a 50
        E 0 99 3d 50
        E 0 99 3e 50
        E 0 99 1a 50
        E 0 99 1f 50
        E 58 89 61 00
        E 0 89 62 00
        E 0 89 55 00
        E 0 89 56 00
        E 0 89 49 00
        E 0 89 4a 00
        E 0 89 3d 00
        E 0 89 3e 00
        E 0 89 1a 00
        E 0 89 1f 00
        E 182 99 60 50
        E 0 99 62 50
        E 0 99 54 50
        E 0 99 56 50
        E 0 99 18 50
        E 0 99 1f 50
        E 60 89 60 00
        E 0 89 62 00
        E 0 89 54 00
        E 0 89 56 00
        E 0 89 18 00
        E 0 89 1f 00
        E 60 99 61 50
        E 0 99 1a 50
        E 60 89 61 00
        E 0 89 1a 00
        E 60 99 60 50
        E 0 99 62 50
        E 0 99 54 50
        E 0 99 56 50
        E 0 99 48 50
        E 0 99 4a 50
        E 0 99 3e 50
        E 0 99 18 50
        E 0 99 1f 50
        E 60 89 60 00
        E 0 89 62 00
        E 0 89 54 00
        E 0 89 56 00
        E 0 89 48 00
        E 0 89 4a 00
        E 0 89 3e 00
        E 0 89 18 00
        E 0 89 1f 00
        E 60 99 61 50
        E 0 99 1a 50
        E 60 89 61 00
        E 0 89 1a 00
        E 60 99 60 50
        E 0 99 62 50
        E 0 99 54 50
        E 0 99 56 50
        E 0 99 18 50
        E 0 99 1f 50
        E 58 89 60 00
        E 0 89 62 00
        E 0 89 54 00
        E 0 89 56 00
        E 0 89 18 00
        E 0 89 1f 00
        E 182 99 61 50
        E 0 99 62 50
        E 0 99 55 50
        E 0 99 56 50
        E 0 99 49 50
        E 0 99 4a 50
        E 0 99 3d 50
        E 0 99 3e 50
        E 0 99 1a 50
        E 0 99 1f 50
        E 58 89 61 00
        E 0 89 62 00
        E 0 89 55 00
        E 0 89 56 00
        E 0 89 49 00
        E 0 89 4a 00
        E 0 89 3d 00
        E 0 89 3e 00
        E 0 89 1a 00
        E 0 89 1f 00
        E 182 99 60 50
        E 0 99 62 50
        E 0 99 54 50
        E 0 99 56 50
        E 0 99 18 50
        E 0 99 1f 50
        E 60 89 60 00
        E 0 89 62 00
        E 0 89 54 00
        E 0 89 56 00
        E 0 89 18 00
        E 0 89 1f 00
        E 60 99 61 50
        E 0 99 1a 50
        E 60 89 61 00
        E 0 89 1a 00
        E 60 99 60 50
        E 0 99 64 50
        E 0 99 54 50
        E 0 99 58 50
        E 0 99 48 50
        E 0 99 4c 50
        E 0 99 40 50
        E 0 99 18 50
        E 0 99 26 50
        E 58 89 60 00
        E 0 89 64 00
        E 0 89 54 00
        E 0 89 58 00
        E 0 89 48 00
        E 0 89 4c 00
        E 0 89 40 00
        E 0 89 18 00
        E 0 89 26 00
        E 182 99 60 50
        E 0 99 61 50
        E 0 99 54 50
        E 0 99 55 50
        E 0 99 18 50
        E 0 99 1b 50
        E 60 89 60 00
        E 0 89 61 00
        E 0 89 54 00
        E 0 89 55 00
        E 0 89 18 00
        E 0 89 1b 00
        E 60 99 61 50
        E 0 99 1a 50
        E 60 89 61 00
        E 0 89 1a 00
        E 60 99 60 50
        E 0 99 61 50
        E 0 99 54 50
        E 0 99 55 50
        E 0 99 49 50
        E 0 99 3d 50
        E 0 99 18 50
        E 0 99 1b 50
        E 60 89 60 00
        E 0 89 61 00
        E 0 89 54 00
        E 0 89 55 00
        E 0 89 49 00
        E 0 89 3d 00
        E 0 89 18 00
        E 0 89 1b 00
        E 60 99 61 50
        E 0 99 1a 50
        E 60 89 61 00
        E 0 89 1a 00
        E 60 90 78 59
        E 0 90 79 59
        E 0 90 7a 59
        E 0 90 7b 59
        E 0 90 7c 59
        E 0 99 60 50
        E 0 99 63 50
        E 0 99 54 50
        E 0 99 57 50
        E 0 99 6f 50
        E 0 99 18 50
        E 0 99 31 50
        E 60 89 60 00
        E 0 89 63 00
        E 0 89 54 00
        E 0 89 57 00
        E 0 89 6f 00
        E 0 89 18 00
        E 0 89 31 00
        E 60 99 63 50
        E 0 99 6f 50
        E 0 99 30 50
        E 60 89 63 00
        E 0 89 6f 00
        E 0 89 30 00
        E 60 99 60 50
        E 0 99 63 50
        E 0 99 54 50
        E 0 99 57 50
        E 0 99 4b 50
        E 0 99 6f 50
        E 0 99 3f 50
        E 0 99 18 50
        E 0 99 31 50
        E 60 89 60 00
        E 0 89 63 00
        E 0 89 54 00
        E 0 89 57 00
        E 0 89 4b 00
        E 0 89 6f 00
        E 0 89 3f 00
        E 0 89 18 00
        E 0 89 31 00
        E 60 99 63 50
        E 0 99 6f 50
        E 0 99 30 50
        E 60 89 63 00
        E 0 89 6f 00
        E 0 89 30 00
        E 60 99 60 50
        E 0 99 63 50
        E 0 99 54 50
        E 0 99 57 50
        E 0 99 6f 50
        E 0 99 18 50
        E 0 99 31 50
        E 60 89 60 00
        E 0 89 63 00
        E 0 89 54 00
        E 0 89 57 00
        E 0 89 6f 00
        E 0 89 18 00
        E 0 89 31 00
        E 60 99 63 50
        E 0 99 6f 50
        E 0 99 30 50
        E 60 89 63 00
        E 0 89 6f 00
        E 0 89 30 00
        E 60 99 60 50
        E 0 99 63 50
        E 0 99 54 50
        E 0 99 57 50
        E 0 99 4b 50
        E 0 99 6f 50
        E 0 99 3f 50
        E 0 99 18 50
        E 0 99 31 50
        E 60 89 60 00
        E 0 89 63 00
        E 0 89 54 00
        E 0 89 57 00
        E 0 89 4b 00
        E 0 89 6f 00
        E 0 89 3f 00
        E 0 89 18 00
        E 0 89 31 00
        E 60 99 64 50
        E 0 99 70 50
        E 0 99 32 50
        E 60 89 64 00
        E 0 89 70 00
        E 0 89 32 00
        E 60 99 60 50
        E 0 99 64 50
        E 0 99 54 50
        E 0 99 58 50
        E 0 99 70 50
        E 0 99 18 50
        E 0 99 33 50
        E 60 89 60 00
        E 0 89 64 00
        E 0 89 54 00
        E 0 89 58 00
        E 0 89 70 00
        E 0 89 18 00
        E 0 89 33 00
        E 60 99 64 50
        E 0 99 70 50
        E 0 99 32 50
        E 60 89 64 00
        E 0 89 70 00
        E 0 89 32 00
        E 60 99 60 50
        E 0 99 64 50
        E 0 99 54 50
        E 0 99 58 50
        E 0 99 48 50
        E 0 99 4c 50
        E 0 99 40 50
        E 0 99 18 50
        E 0 99 26 50
        E 58 89 60 00
        E 0 89 64 00
        E 0 89 54 00
        E 0 89 58 00
        E 0 89 48 00
        E 0 89 4c 00
        E 0 89 40 00
        E 0 89 18 00
        E 0 89 26 00
        E 181 80 78 00
        E 0 80 79 00
        E 0 80 7a 00
        E 0 80 7b 00
        E 0 80 7c 00
        E 1 90 62 50
        E 0 90 56 50
        E 0 90 26 50
        E 0 99 60 50
        E 0 99 64 50
        E 0 99 54 50
        E 0 99 58 50
        E 0 99 18 50
        E 0 99 22 50
        E 58 89 60 00
        E 0 89 64 00
        E 0 89 54 00
        E 0 89 58 00
        E 0 89 18 00
        E 0 89 22 00
        E 2 80 62 00
        E 0 80 56 00
        E 0 80 26 00
        E 180 99 61 50
        E 0 99 62 50
        E 0 99 55 50
        E 0 99 56 50
        E 0 99 49 50
        E 0 99 4a 50
        E 0 99 3d 50
        E 0 99 3e 50
        E 0 99 1a 50
        E 0 99 1f 50
        E 58 89 61 00
        E 0 89 62 00
        E 0 89 55 00
        E 0 89 56 00
        E 0 89 49 00
        E 0 89 4a 00
        E 0 89 3d 00
        E 0 89 3e 00
        E 0 89 1a 00
        E 0 89 1f 00
        E 182 99 60 50
        E 0 99 62 50
        E 0 99 54 50
        E 0 99 56 50
        E 0 99 18 50
        E 0 99 1f 50
        E 60 89 60 00
        E 0 89 62 00
        E 0 89 54 00
        E 0 89 56 00
        E 0 89 18 00
        E 0 89 1f 00
        E 60 99 61 50
        E 0 99 1a 50
        E 60 89 61 00
        E 0 89 1a 00
        E 60 99 60 50
        E 0 99 62 50
        E 0 99 54 50
        E 0 99 56 50
        E 0 99 48 50
        E 0 99 4a 50
        E 0 99 3e 50
        E 0 99 18 50
        E 0 99 1f 50
        E 60 89 60 00
        E 0 89 62 00
        E 0 89 54 00
        E 0 89 56 00
        E 0 89 48 00
        E 0 89 4a 00
        E 0 89 3e 00
        E 0 89 18 00
        E 0 89 1f 00
        E 60 99 61 50
        E 0 99 1a 50
        E 60 89 61 00
        E 0 89 1a 00
        E 60 99 60 50
        E 0 99 62 50
        E 0 99 54 50
        E 0 99 56 50
        E 0 99 18 50
        E 0 99 1f 50
        E 58 89 60 00
        E 0 89 62 00
        E 0 89 54 00
        E 0 89 56 00
        E 0 89 18 00
        E 0 89 1f 00
        E 182 99 61 50
        E 0 99 64 50
        E 0 99 55 50
        E 0 99 58 50
        E 0 99 49 50
        E 0 99 4c 50
        E 0 99 3d 50
        E 0 99 40 50
        E 0 99 1a 50
        E 0 99 26 50
        E 58 89 61 00
        E 0 89 64 00
        E 0 89 55 00
        E 0 89 58 00
        E 0 89 49 00
        E 0 89 4c 00
        E 0 89 3d 00
        E 0 89 40 00
        E 0 89 1a 00
        E 0 89 26 00
        E 182 99 60 50
        E 0 99 62 50
        E 0 99 54 50
        E 0 99 56 50
        E 0 99 18 50
        E 0 99 1f 50
        E 60 89 60 00
        E 0 89 62 00
        E 0 89 54 00
        E 0 89 56 00
        E 0 89 18 00
        E 0 89 1f 00
        E 60 99 61 50
        E 0 99 1a 50
        E 60 89 61 00
        E 0 89 1a 00
        E 60 99 60 50
        E 0 99 62 50
        E 0 99 54 50
        E 0 99 56 50
        E 0 99 48 50
        E 0 99 4a 50
        E 0 99 3e 50
        E 0 99 18 50
        E 0 99 1f 50
        E 58 89 60 00
        E 0 89 62 00
        E 0 89 54 00
        E 0 89 56 00
        E 0 89 48 00
        E 0 89 4a 00
        E 0 89 3e 00
        E 0 89 18 00
        E 0 89 1f 00
        E 182 99 60 50
        E 0 99 62 50
        E 0 99 54 50
        E 0 99 56 50
        E 0 99 18 50
        E 0 99 1f 50
        E 58 89 60 00
        E 0 89 62 00
        E 0 89 54 00
        E 0 89 56 00
        E 0 89 18 00
        E 0 89 1f 00
        E 182 99 61 50
        E 0 99 64 50
        E 0 99 55 50
        E 0 99 58 50
        E 0 99 49 50
        E 0 99 4c 50
        E 0 99 3d 50
        E 0 99 40 50
        E 0 99 1a 50
        E 0 99 26 50
        E 58 89 61 00
        E 0 89 64 00
        E 0 89 55 00
        E 0 89 58 00
        E 0 89 49 00
        E 0 89 4c 00
        E 0 89 3d 00
        E 0 89 40 00
        E 0 89 1a 00
        E 0 89 26 00
        E 182 99 60 50
        E 0 99 62 50
        E 0 99 54 50
        E 0 99 56 50
        E 0 99 18 50
        E 0 99 1f 50
        E 60 89 60 00
        E 0 89 62 00
        E 0 89 54 00
        E 0 89 56 00
        E 0 89 18 00
        E 0 89 1f 00
        E 60 99 61 50
        E 0 99 1a 50
        E 60 89 61 00
        E 0 89 1a 00
        E 60 99 60 50
        E 0 99 62 50
        E 0 99 54 50
        E 0 99 56 50
        E 0 99 48 50
        E 0 99 4a 50
        E 0 99 3e 50
        E 0 99 18 50
        E 0 99 1f 50
        E 60 89 60 00
        E 0 89 62 00
        E 0 89 54 00
        E 0 89 56 00
        E 0 89 48 00
        E 0 89 4a 00
        E 0 89 3e 00
        E 0 89 18 00
        E 0 89 1f 00
        E 60 99 61 50
        E 0 99 1a 50
        E 60 89 61 00
        E 0 89 1a 00
        E 60 99 60 50
        E 0 99 62 50
        E 0 99 54 50
        E 0 99 56 50
        E 0 99 18 50
        E 0 99 1f 50
        E 58 89 60 00
        E 0 89 62 00
        E 0 89 54 00
        E 0 89 56 00
        E 0 89 18 00
        E 0 89 1f 00
        E 182 99 61 50
        E 0 99 64 50
        E 0 99 55 50
        E 0 99 58 50
        E 0 99 49 50
        E 0 99 4c 50
        E 0 99 3d 50
        E 0 99 40 50
        E 0 99 1a 50
        E 0 99 26 50
        E 58 89 61 00
        E 0 89 64 00
        E 0 89 55 00
        E 0 89 58 00
        E 0 89 49 00
        E 0 89 4c 00
        E 0 89 3d 00
        E 0 89 40 00
        E 0 89 1a 00
        E 0 89 26 00
        E 182 99 60 50
        E 0 99 62 50
        E 0 99 54 50
        E 0 99 56 50
        E 0 99 18 50
        E 0 99 1f 50
        E 60 89 60 00
        E 0 89 62 00
        E 0 89 54 00
        E 0 89 56 00
        E 0 89 18 00
        E 0 89 1f 00
        E 60 99 61 50
        E 0 99 1a 50
        E 60 89 61 00
        E 0 89 1a 00
        E 60 99 60 50
        E 0 99 62 50
        E 0 99 54 50
        E 0 99 56 50
        E 0 99 48 50
        E 0 99 4a 50
        E 0 99 3e 50
        E 0 99 18 50
        E 0 99 1f 50
        E 58 89 60 00
        E 0 89 62 00
        E 0 89 54 00
        E 0 89 56 00
        E 0 89 48 00
        E 0 89 4a 00
        E 0 89 3e 00
        E 0 89 18 00
        E 0 89 1f 00
        E 182 99 60 50
        E 0 99 62 50
        E 0 99 54 50
        E 0 99 56 50
        E 0 99 18 50
        E 0 99 1f 50
        E 58 89 60 00
        E 0 89 62 00
        E 0 89 54 00
        E 0 89 56 00
        E 0 89 18 00
        E 0 89 1f 00
        E 182 99 61 50
        E 0 99 64 50
        E 0 99 55 50
        E 0 99 58 50
        E 0 99 49 50
        E 0 99 4c 50
        E 0 99 3d 50
        E 0 99 40 50
        E 0 99 1a 50
        E 0 99 26 50
        E 58 89 61 00
        E 0 89 64 00
        E 0 89 55 00
        E 0 89 58 00
        E 0 89 49 00
        E 0 89 4c 00
        E 0 89 3d 00
        E 0 89 40 00
        E 0 89 1a 00
        E 0 89 26 00
        E 182 99 60 50
        E 0 99 62 50
        E 0 99 54 50
        E 0 99 56 50
        E 0 99 18 50
        E 0 99 1f 50
        E 60 89 60 00
        E 0 89 62 00
        E 0 89 54 00
        E 0 89 56 00
        E 0 89 18 00
        E 0 89 1f 00
        E 60 99 61 50
        E 0 99 1a 50
        E 60 89 61 00
        E 0 89 1a 00
        E 60 99 60 50
        E 0 99 62 50
        E 0 99 54 50
        E 0 99 56 50
        E 0 99 48 50
        E 0 99 4a 50
        E 0 99 3e 50
        E 0 99 18 50
        E 0 99 1f 50
        E 60 89 60 00
        E 0 89 62 00
        E 0 89 54 00
        E 0 89 56 00
        E 0 89 48 00
        E 0 89 4a 00
        E 0 89 3e 00
        E 0 89 18 00
        E 0 89 1f 00
        E 60 99 61 50
        E 0 99 1a 50
        E 60 89 61 00
        E 0 89 1a 00
        E 60 99 60 50
        E 0 99 62 50
        E 0 99 54 50
        E 0 99 56 50
        E 0 99 18 50
        E 0 99 1f 50
        E 58 89 60 00
        E 0 89 62 00
        E 0 89 54 00
        E 0 89 56 00
        E 0 89 18 00
        E 0 89 1f 00
        E 182 99 61 50
        E 0 99 64 50
        E 0 99 55 50
        E 0 99 58 50
        E 0 99 49 50
        E 0 99 4c 50
        E 0 99 3d 50
        E 0 99 40 50
        E 0 99 1a 50
        E 0 99 26 50
        E 58 89 61 00
        E 0 89 64 00
        E 0 89 55 00
        E 0 89 58 00
        E 0 89 49 00
        E 0 89 4c 00
        E 0 89 3d 00
        E 0 89 40 00
        E 0 89 1a 00
        E 0 89 26 00
        E 182 99 60 50
        E 0 99 62 50
        E 0 99 54 50
        E 0 99 56 50
        E 0 99 18 50
        E 0 99 1f 50
        E 60 89 60 00
        E 0 89 62 00
        E 0 89 54 00
        E 0 89 56 00
        E 0 89 18 00
        E 0 89 1f 00
        E 60 99 61 50
        E 0 99 1a 50
        E 60 89 61 00
        E 0 89 1a 00
        E 60 99 60 50
        E 0 99 62 50
        E 0 99 54 50
        E 0 99 56 50
        E 0 99 48 50
        E 0 99 4a 50
        E 0 99 3e 50
        E 0 99 18 50
        E 0 99 1f 50
        E 58 89 60 00
        E 0 89 62 00
        E 0 89 54 00
        E 0 89 56 00
        E 0 89 48 00
        E 0 89 4a 00
        E 0 89 3e 00
        E 0 89 18 00
        E 0 89 1f 00
        E 182 99 60 50
        E 0 99 62 50
        E 0 99 54 50
        E 0 99 56 50
        E 0 99 18 50
        E 0 99 1f 50
        E 58 89 60 00
        E 0 89 62 00
        E 0 89 54 00
        E 0 89 56 00
        E 0 89 18 00
        E 0 89 1f 00
        E 182 99 61 50
        E 0 99 64 50
        E 0 99 55 50
        E 0 99 58 50
        E 0 99 49 50
        E 0 99 4c 50
        E 0 99 3d 50
        E 0 99 40 50
        E 0 99 1a 50
        E 0 99 26 50
        E 58 89 61 00
        E 0 89 64 00
        E 0 89 55 00
        E 0 89 58 00
        E 0 89 49 00
        E 0 89 4c 00
        E 0 89 3d 00
        E 0 89 40 00
        E 0 89 1a 00
        E 0 89 26 00
        E 182 99 60 50
        E 0 99 62 50
        E 0 99 54 50
        E 0 99 56 50
        E 0 99 18 50
        E 0 99 1f 50
        E 60 89 60 00
        E 0 89 62 00
        E 0 89 54 00
        E 0 89 56 00
        E 0 89 18 00
        E 0 89 1f 00
        E 60 99 61 50
        E 0 99 1a 50
        E 60 89 61 00
        E 0 89 1a 00
        E 60 99 60 50
        E 0 99 64 50
        E 0 99 54 50
        E 0 99 58 50
        E 0 99 48 50
        E 0 99 4c 50
        E 0 99 40 50
        E 0 99 18 50
        E 0 99 26 50
        E 58 89 60 00
        E 0 89 64 00
        E 0 89 54 00
        E 0 89 58 00
        E 0 89 48 00
        E 0 89 4c 00
        E 0 89 40 00
        E 0 89 18 00
        E 0 89 26 00
        E 182 99 60 50
        E 0 99 61 50
        E 0 99 54 50
        E 0 99 55 50
        E 0 99 18 50
        E 0 99 1b 50
        E 60 89 60 00
        E 0 89 61 00
        E 0 89 54 00
        E 0 89 55 00
        E 0 89 18 00
        E 0 89 1b 00
        E 60 99 61 50
        E 0 99 1a 50
        E 60 89 61 00
        E 0 89 1a 00
        E 60 99 60 50
        E 0 99 61 50
        E 0 99 54 50
        E 0 99 55 50
        E 0 99 49 50
        E 0 99 3d 50
        E 0 99 18 50
        E 0 99 1b 50
        E 60 89 60 00
        E 0 89 61 00
        E 0 89 54 00
        E 0 89 55 00
        E 0 89 49 00
        E 0 89 3d 00
        E 0 89 18 00
        E 0 89 1b 00
        E 60 99 61 50
        E 0 99 1a 50
        E 60 89 61 00
        E 0 89 1a 00
        E 60 99 60 50
        E 0 99 61 50
        E 0 99 54 50
        E 0 99 55 50
        E 0 99 18 50
        E 0 99 1b 50
        E 60 89 60 00
        E 0 89 61 00
        E 0 89 54 00
        E 0 89 55 00
        E 0 89 18 00
        E 0 89 1b 00
        E 60 99 61 50
        E 0 99 1a 50
        E 60 89 61 00
        E 0 89 1a 00
        E 60 99 60 50
        E 0 99 64 50
        E 0 99 54 50
        E 0 99 58 50
        E 0 99 48 50
        E 0 99 4c 50
        E 0 99 40 50
        E 0 99 18 50
        E 0 99 26 50
        E 58 89 60 00
        E 0 89 64 00
        E 0 89 54 00
        E 0 89 58 00
        E 0 89 48 00
        E 0 89 4c 00
        E 0 89 40 00
        E 0 89 18 00
        E 0 89 26 00
        E 182 99 60 50
        E 0 99 62 50
        E 0 99 64 50
        E 0 99 54 50
        E 0 99 56 50
        E 0 99 58 50
        E 0 99 18 50
        E 0 99 26 50
        E 0 99 22 50
        E 58 89 60 00
        E 0 89 62 00
        E 0 89 64 00
        E 0 89 54 00
        E 0 89 56 00
        E 0 89 58 00
        E 0 89 18 00
        E 0 89 26 00
        E 0 89 22 00
        E 182 90 64 50
        E 0 90 58 50
        E 0 90 4c 50
        E 0 90 40 50
        E 0 90 26 50
        E 0 99 61 50
        E 0 99 55 50
        E 0 99 49 50
        E 0 99 3d 50
        E 0 99 1a 50
        E 58 89 61 00
        E 0 89 55 00
        E 0 89 49 00
        E 0 89 3d 00
        E 0 89 1a 00
        E 2 80 64 00
        E 0 80 58 00
        E 0 80 4c 00
        E 0 80 40 00
        E 0 80 26 00
        E 180 99 60 50
        E 0 99 62 50
        E 0 99 54 50
        E 0 99 56 50
        E 0 99 18 50
        E 0 99 1f 50
        E 60 89 60 00
        E 0 89 62 00
        E 0 89 54 00
        E 0 89 56 00
        E 0 89 18 00
        E 0 89 1f 00
        E 60 99 61 50
        E 0 99 1a 50
        E 60 89 61 00
        E 0 89 1a 00
        E 60 99 60 50
        E 0 99 62 50
        E 0 99 54 50
        E 0 99 56 50
        E 0 99 48 50
        E 0 99 4a 50
        E 0 99 3e 50
        E 0 99 18 50
        E 0 99 1f 50
        E 60 89 60 00
        E 0 89 62 00
        E 0 89 54 00
        E 0 89 56 00
        E 0 89 48 00
        E 0 89 4a 00
        E 0 89 3e 00
        E 0 89 18 00
        E 0 89 1f 00
        E 60 99 61 50
        E 0 99 1a 50
        E 60 89 61 00
        E 0 89 1a 00
        E 60 99 60 50
        E 0 99 62 50
        E 0 99 54 50
        E 0 99 56 50
        E 0 99 18 50
        E 0 99 1f 50
        E 60 89 60 00
        E 0 89 62 00
        E 0 89 54 00
        E 0 89 56 00
        E 0 89 18 00
        E 0 89 1f 00
        E 60 99 60 50
        E 0 99 18 50
        E 60 89 60 00
        E 0 89 18 00
        E 60 99 61 50
        E 0 99 64 50
        E 0 99 55 50
        E 0 99 58 50
        E 0 99 49 50
        E 0 99 4c 50
        E 0 99 3d 50
        E 0 99 40 50
        E 0 99 1a 50
        E 0 99 26 50
        E 58 89 61 00
        E 0 89 64 00
        E 0 89 55 00
        E 0 89 58 00
        E 0 89 49 00
        E 0 89 4c 00
        E 0 89 3d 00
        E 0 89 40 00
        E 0 89 1a 00
        E 0 89 26 00
        E 182 99 60 50
        E 0 99 62 50
        E 0 99 54 50
        E 0 99 56 50
        E 0 99 18 50
        E 0 99 1f 50
        E 60 89 60 00
        E 0 89 62 00
        E 0 89 54 00
        E 0 89 56 00
        E 0 89 18 00
        E 0 89 1f 00
        E 60 99 61 50
        E 0 99 1a 50
        E 60 89 61 00
        E 0 89 1a 00
        E 60 99 60 50
        E 0 99 62 50
        E 0 99 54 50
        E 0 99 56 50
        E 0 99 48 50
        E 0 99 4a 50
        E 0 99 3e 50
        E 0 99 18 50
        E 0 99 1f 50
        E 58 89 60 00
        E 0 89 62 00
        E 0 89 54 00
        E 0 89 56 00
        E 0 89 48 00
        E 0 89 4a 00
        E 0 89 3e 00
        E 0 89 18 00
        E 0 89 1f 00
        E 182 99 60 50
        E 0 99 62 50
        E 0 99 54 50
        E 0 99 56 50
        E 0 99 18 50
        E 0 99 1f 50
        E 58 89 60 00
        E 0 89 62 00
        E 0 89 54 00
        E 0 89 56 00
        E 0 89 18 00
        E 0 89 1f 00
        E 182 99 61 50
        E 0 99 64 50
        E 0 99 55 50
        E 0 99 58 50
        E 0 99 49 50
        E 0 99 4c 50
        E 0 99 3d 50
        E 0 99 40 50
        E 0 99 1a 50
        E 0 99 26 50
        E 58 89 61 00
        E 0 89 64 00
        E 0 89 55 00
        E 0 89 58 00
        E 0 89 49 00
        E 0 89 4c 00
        E 0 89 3d 00
        E 0 89 40 00
        E 0 89 1a 00
        E 0 89 26 00
        E 182 99 60 50
        E 0 99 62 50
        E 0 99 54 50
        E 0 99 56 50
        E 0 99 18 50
        E 0 99 1f 50
        E 60 89 60 00
        E 0 89 62 00
        E 0 89 54 00
        E 0 89 56 00
        E 0 89 18 00
        E 0 89 1f 00
        E 60 99 61 50
        E 0 99 1a 50
        E 60 89 61 00
        E 0 89 1a 00
        E 60 99 60 50
        E 0 99 62 50
        E 0 99 54 50
        E 0 99 56 50
        E 0 99 48 50
        E 0 99 4a 50
        E 0 99 3e 50
        E 0 99 18 50
        E 0 99 1f 50
        E 60 89 60 00
        E 0 89 62 00
        E 0 89 54 00
        E 0 89 56 00
        E 0 89 48 00
        E 0 89 4a 00
        E 0 89 3e 00
        E 0 89 18 00
        E 0 89 1f 00
        E 60 99 61 50
        E 0 99 1a 50
        E 60 89 61 00
        E 0 89 1a 00
        E 60 99 60 50
        E 0 99 62 50
        E 0 99 54 50
        E 0 99 56 50
        E 0 99 18 50
        E 0 99 1f 50
        E 60 89 60 00
        E 0 89 62 00
        E 0 89 54 00
        E 0 89 56 00
        E 0 89 18 00
        E 0 89 1f 00
        E 60 99 60 50
        E 0 99 18 50
        E 60 89 60 00
        E 0 89 18 00
        E 60 99 61 50
        E 0 99 64 50
        E 0 99 55 50
        E 0 99 58 50
        E 0 99 49 50
        E 0 99 4c 50
        E 0 99 3d 50
        E 0 99 40 50
        E 0 99 1a 50
        E 0 99 26 50
        E 58 89 61 00
        E 0 89 64 00
        E 0 89 55 00
        E 0 89 58 00
        E 0 89 49 00
        E 0 89 4c 00
        E 0 89 3d 00
        E 0 89 40 00
        E 0 89 1a 00
        E 0 89 26 00
        E 182 99 60 50
        E 0 99 62 50
        E 0 99 54 50
        E 0 99 56 50
        E 0 99 18 50
        E 0 99 1f 50
        E 60 89 60 00
        E 0 89 62 00
        E 0 89 54 00
        E 0 89 56 00
        E 0 89 18 00
        E 0 89 1f 00
        E 60 99 61 50
        E 0 99 1a 50
        E 60 89 61 00
        E 0 89 1a 00
        E 60 99 60 50
        E 0 99 62 50
        E 0 99 54 50
        E 0 99 56 50
        E 0 99 48 50
        E 0 99 4a 50
        E 0 99 3e 50
        E 0 99 18 50
        E 0 99 1f 50
        E 58 89 60 00
        E 0 89 62 00
        E 0 89 54 00
        E 0 89 56 00
        E 0 89 48 00
        E 0 89 4a 00
        E 0 89 3e 00
        E 0 89 18 00
        E 0 89 1f 00
        E 182 99 60 50
        E 0 99 62 50
        E 0 99 54 50
        E 0 99 56 50
        E 0 99 18 50
        E 0 99 1f 50
        E 58 89 60 00
        E 0 89 62 00
        E 0 89 54 00
        E 0 89 56 00
        E 0 89 18 00
        E 0 89 1f 00
        E 182 99 61 50
        E 0 99 64 50
        E 0 99 55 50
        E 0 99 58 50
        E 0 99 49 50
        E 0 99 4c 50
        E 0 99 3d 50
        E 0 99 40 50
        E 0 99 1a 50
        E 0 99 26 50
        E 58 89 61 00
        E 0 89 64 00
        E 0 89 55 00
        E 0 89 58 00
        E 0 89 49 00
        E 0 89 4c 00
        E 0 89 3d 00
        E 0 89 40 00
        E 0 89 1a 00
        E 0 89 26 00
        E 182 99 60 50
        E 0 99 62 50
        E 0 99 54 50
        E 0 99 56 50
        E 0 99 18 50
        E 0 99 1f 50
        E 60 89 60 00
        E 0 89 62 00
        E 0 89 54 00
        E 0 89 56 00
        E 0 89 18 00
        E 0 89 1f 00
        E 60 99 61 50
        E 0 99 1a 50
        E 60 89 61 00
        E 0 89 1a 00
        E 60 99 60 50
        E 0 99 62 50
        E 0 99 54 50
        E 0 99 56 50
        E 0 99 48 50
        E 0 99 4a 50
        E 0 99 3e 50
        E 0 99 18 50
        E 0 99 1f 50
        E 60 89 60 00
        E 0 89 62 00
        E 0 89 54 00
        E 0 89 56 00
        E 0 89 48 00
        E 0 89 4a 00
        E 0 89 3e 00
        E 0 89 18 00
        E 0 89 1f 00
        E 60 99 61 50
        E 0 99 1a 50
        E 60 89 61 00
        E 0 89 1a 00
        E 60 99 60 50
        E 0 99 62 50
        E 0 99 54 50
        E 0 99 56 50
        E 0 99 18 50
        E 0 99 1f 50
        E 60 89 60 00
        E 0 89 62 00
        E 0 89 54 00
        E 0 89 56 00
        E 0 89 18 00
        E 0 89 1f 00
        E 60 99 60 50
        E 0 99 18 50
        E 60 89 60 00
        E 0 89 18 00
        E 60 99 61 50
        E 0 99 64 50
        E 0 99 55 50
        E 0 99 58 50
        E 0 99 49 50
        E 0 99 4c 50
        E 0 99 3d 50
        E 0 99 40 50
        E 0 99 1a 50
        E 0 99 26 50
        E 58 89 61 00
        E 0 89 64 00
        E 0 89 55 00
        E 0 89 58 00
        E 0 89 49 00
        E 0 89 4c 00
        E 0 89 3d 00
        E 0 89 40 00
        E 0 89 1a 00
        E 0 89 26 00
        E 182 99 60 50
        E 0 99 62 50
        E 0 99 54 50
        E 0 99 56 50
        E 0 99 18 50
        E 0 99 1f 50
        E 60 89 60 00
        E 0 89 62 00
        E 0 89 54 00
        E 0 89 56 00
        E 0 89 18 00
        E 0 89 1f 00
        E 60 99 61 50
        E 0 99 1a 50
        E 60 89 61 00
        E 0 89 1a 00
        E 60 99 60 50
        E 0 99 62 50
        E 0 99 54 50
        E 0 99 56 50
        E 0 99 48 50
        E 0 99 4a 50
        E 0 99 3e 50
        E 0 99 18 50
        E 0 99 1f 50
        E 58 89 60 00
        E 0 89 62 00
        E 0 89 54 00
        E 0 89 56 00
        E 0 89 48 00
        E 0 89 4a 00
        E 0 89 3e 00
        E 0 89 18 00
        E 0 89 1f 00
        E 182 99 60 50
        E 0 99 62 50
        E 0 99 54 50
        E 0 99 56 50
        E 0 99 18 50
        E 0 99 1f 50
        E 58 89 60 00
        E 0 89 62 00
        E 0 89 54 00
        E 0 89 56 00
        E 0 89 18 00
        E 0 89 1f 00
        E 182 99 61 50
        E 0 99 64 50
        E 0 99 55 50
        E 0 99 58 50
        E 0 99 49 50
        E 0 99 4c 50
        E 0 99 3d 50
        E 0 99 40 50
        E 0 99 1a 50
        E 0 99 26 50
        E 58 89 61 00
        E 0 89 64 00
        E 0 89 55 00
        E 0 89 58 00
        E 0 89 49 00
        E 0 89 4c 00
        E 0 89 3d 00
        E 0 89 40 00
        E 0 89 1a 00
        E 0 89 26 00
        E 182 99 60 50
        E 0 99 62 50
        E 0 99 54 50
        E 0 99 56 50
        E 0 99 18 50
        E 0 99 1f 50
        E 60 89 60 00
        E 0 89 62 00
        E 0 89 54 00
        E 0 89 56 00
        E 0 89 18 00
        E 0 89 1f 00
        E 60 99 61 50
        E 0 99 1a 50
        E 60 89 61 00
        E 0 89 1a 00
        E 60 99 60 50
        E 0 99 62 50
        E 0 99 54 50
        E 0 99 56 50
        E 0 99 48 50
        E 0 99 4a 50
        E 0 99 3e 50
        E 0 99 18 50
        E 0 99 1f 50
        E 58 89 60 00
        E 0 89 62 00
        E 0 89 54 00
        E 0 89 56 00
        E 0 89 48 00
        E 0 89 4a 00
        E 0 89 3e 00
        E 0 89 18 00
        E 0 89 1f 00
        E 182 99 60 50
        E 0 99 62 50
        E 0 99 54 50
        E 0 99 56 50
        E 0 99 18 50
        E 0 99 1f 50
        E 60 89 60 00
        E 0 89 62 00
        E 0 89 54 00
        E 0 89 56 00
        E 0 89 18 00
        E 0 89 1f 00
        E 60 99 60 50
        E 0 99 18 50
        E 60 89 60 00
        E 0 89 18 00
        E 60 90 70 50
        E 0 99 61 50
        E 0 99 64 50
        E 0 99 55 50
        E 0 99 58 50
        E 0 99 49 50
        E 0 99 4c 50
        E 0 99 3d 50
        E 0 99 40 50
        E 0 99 1a 50
        E 0 99 33 50
        E 58 89 61 00
        E 0 89 64 00
        E 0 89 55 00
        E 0 89 58 00
        E 0 89 49 00
        E 0 89 4c 00
        E 0 89 3d 00
        E 0 89 40 00
        E 0 89 1a 00
        E 0 89 33 00
        E 2 80 70 00
        E 180 99 60 50
        E 0 99 54 50
        E 0 99 18 50
        E 58 89 60 00
        E 0 89 54 00
        E 0 89 18 00
        E 182 99 60 50
        E 0 99 61 50
        E 0 99 64 50
        E 0 99 54 50
        E 0 99 55 50
        E 0 99 58 50
        E 0 99 49 50
        E 0 99 4c 50
        E 0 99 3d 50
        E 0 99 40 50
        E 0 99 18 50
        E 0 99 1a 50
        E 0 99 26 50
        E 58 89 60 00
        E 0 89 61 00
        E 0 89 54 00
        E 0 89 55 00
        E 0 89 49 00
        E 0 89 3d 00
        E 0 89 18 00
        E 0 89 1a 00
        E 2 89 64 00
        E 0 89 58 00
        E 0 89 4c 00
        E 0 89 40 00
        E 0 89 26 00
        <X 480 0
          /wFbaWRsZV9yZWFsdGltZV0=
        >
        E 6180 b0 7b 00
        GUID {99C52F88-C54B-4CCD-B038-A5C950AC8E6E}
        IGNTEMPO 0 120.00000000 4 4
        SRCCOLOR 1197
        VELLANE 132 38 60
        COLORMAP "C:\Users\wejaa\AppData\Roaming\REAPER\Data\color_maps\rockband_drums.png"
        TEXTSTRINGFILE "Text Events List.txt"
        CFGEDITVIEW 95503.715230 22.251170 23 12 0 0 0
        CFGEDIT 1 1 0 0 0 1 1 1 1 1 1 0.12500000 -8 -8 1370 736 1 0 1 2 0.00000000 0 0 0 0 0.500000 1 0 1.000000 64
        KEYSNAP 0 0 "102034050607" 0 "Major"
        EVTFILTER 0 -1 -1 -1 -1 0 1 0 0 -1.00000000 -1.00000000
      >
    >
  >
  <TRACK '{70C3FE4D-3BC3-4146-95C4-8AC455A2D0F5}'
    NAME "PART BASS"
    PEAKCOL 16777471
    BEAT -1
    AUTOMODE 0
    VOLPAN 1.00000000000000 0.00000000000000 -1.00000000000000 -1.00000000000000 1.00000000000000
    MUTESOLO 0 0 0
    IPHASE 0
    ISBUS 0 0
    BUSCOMP 1 0
    SHOWINMIX 1 0.666700 0.500000 1 0.500000 -1 -1 -1
    FREEMODE 0
    SEL 0
    REC 0 4096 1 0 0 0 0
    TRACKHEIGHT 145 0
    INQ 0 0 0 0.5000000000 100 0 0 100
    NCHAN 2
    FX 1
    TRACKID {70C3FE4D-3BC3-4146-95C4-8AC455A2D0F5}
    PERF 0
    MIDIOUT -1
    <MIDINOTENAMES
      0 96 "EXPERT Green"
      0 97 "EXPERT Red"
      0 98 "EXPERT Yellow"
      0 99 "EXPERT Blue"
      0 100 "EXPERT Orange"
      0 84 "HARD Green"
      0 85 "HARD Red"
      0 86 "HARD Yellow"
      0 87 "HARD Blue"
      0 88 "HARD Orange"
      0 91 "----"
      0 116 "OVERDRIVE"
      0 40 "Left Hand Lowest"
      0 59 "Left Hand Highest"
      0 58 "-"
      0 57 "-"
      0 56 "-"
      0 55 "-"
      0 54 "-"
      0 53 "-"
      0 52 "-"
      0 51 "-"
      0 50 "-"
      0 49 "-"
      0 47 "-"
      0 48 "-"
      0 46 "-"
      0 45 "-"
      0 44 "-"
      0 43 "-"
      0 42 "-"
      0 41 "-"
      0 111 "----"
      0 72 "MEDIUM Green"
      0 73 "MEDIUM Red"
      0 74 "MEDIUM Yellow"
      0 75 "MEDIUM Blue"
      0 76 "MEDIUM Orange"
      0 60 "EASY Green"
      0 61 "EASY Red"
      0 62 "EASY Yellow"
      0 63 "EASY Blue"
      0 64 "EASY Orange"
      0 68 "----"
      0 80 "----"
      0 102 "Force HOPO Off"
      0 101 "Force HOPO On"
      0 120 "BRE (use all 5)"
      0 121 "BRE"
      0 122 "BRE"
      0 123 "BRE"
      0 124 "BRE"
      0 119 "----"
      0 90 "Force HOPO Off"
      0 89 "Force HOPO On"
      0 127 "Trill Marker"
      0 125 "----"
      0 103 "Solo Marker"
      0 126 "Strum Marker"
    >
    MAINSEND 1 0
    <FXCHAIN
      WNDRECT -1002 533 878 585
      SHOW 0
      LASTSEL 1
      DOCKED 0
      BYPASS 1 0
      <VST "VSTi: ReaSynth (Cockos)" "reasynth.dll" 0 ""
        eXNlcu9e7f4AAAAAAgAAAAEAAAAAAAAAAgAAAAAAAAA4AAAAAAAAAA==
        AAAAAO++rd4N8K3eAAAAAAAAAAAAAAAAAAAAADm0SD59y9s+tbSxOQ==
        AAAAALbz/T5VpCs6AAAAAAAAAAAAAAAAAAA=
      >
      FLOATPOS 0 0 0 0
      FXID {D4EC3C58-478E-4D1F-A0FC-2252BD344989}
      WAK 0
      BYPASS 0 0
      <VST "VSTi: RBN Preview (RBN)" "rbprev_vst64_beta.dll" 0 ""
        dnBicu5e7f4AAAAAAgAAAAEAAAAAAAAAAgAAAAAAAAAEAAAAAQAAAA==
        AAAAAAMAqgAAAAAAAAA=
      >
      FLOATPOS 32 32 659 497
      FXID {72D22271-4F4F-4081-90C4-66415E7AEC47}
      WAK 0
    >
    <ITEM
      POSITION 0.00000000000000
      SNAPOFFS 0.00000000000000
      LENGTH 194.83196922085045
      LOOP 0
      ALLTAKES 0
      SEL 0
      FADEIN 1 0.000000 0.000000 1 0
      FADEOUT 1 0.000000 0.000000 1 0
      MUTE 0
      IGUID {A1B24BBF-93B7-476C-BC6D-33F5621C633F}
      IID 8
      NAME "PART BASS"
      VOLPAN 1.000000 0.000000 1.000000 -1.000000
      SOFFS 0.00000000000000 0.00000000000000
      PLAYRATE 1.00000000000000 1 0.00000000000000 -65536
      CHANMODE 0
      GUID {344A7487-35C3-41F9-8B1E-12A4F3D7F336}
      <SOURCE MIDI
        HASDATA 1 480 QN
        POOLEDEVTS {91D587E6-DC9B-423B-827B-AE31505627BB}
        <X 0 0
          /wNQQVJUIEJBU1M=
        >
        <X 3840 0
          /wFbaWRsZV0=
        >
        <X 15360 0
          /wFbcGxheV0=
        >
        E 960 94 3e 59
        E 0 94 4b 59
        E 0 94 57 59
        E 0 94 63 59
        E 60 84 3e 00
        E 0 84 4b 00
        E 0 84 57 00
        E 0 84 63 00
        E 180 94 4b 59
        E 0 94 57 59
        E 0 94 63 59
        E 60 84 4b 00
        E 0 84 57 00
        E 0 84 63 00
        E 180 94 4b 59
        E 0 94 57 59
        E 0 94 63 59
        E 60 84 4b 00
        E 0 84 57 00
        E 0 84 63 00
        E 180 94 57 59
        E 0 94 63 59
        E 60 84 57 00
        E 0 84 63 00
        E 180 94 3d 59
        E 0 94 4a 59
        E 0 94 56 59
        E 0 94 62 59
        E 60 84 3d 00
        E 0 84 4a 00
        E 0 84 56 00
        E 0 84 62 00
        E 180 94 4a 59
        E 0 94 56 59
        E 0 94 62 59
        E 60 84 4a 00
        E 0 84 56 00
        E 0 84 62 00
        E 180 94 4a 59
        E 0 94 56 59
        E 0 94 62 59
        E 60 84 4a 00
        E 0 84 56 00
        E 0 84 62 00
        E 180 94 56 59
        E 0 94 62 59
        E 60 84 56 00
        E 0 84 62 00
        E 180 94 3c 59
        E 0 94 48 59
        E 0 94 54 59
        E 0 94 60 59
        E 60 84 3c 00
        E 0 84 48 00
        E 0 84 54 00
        E 0 84 60 00
        E 180 94 48 59
        E 0 94 54 59
        E 0 94 60 59
        E 60 84 48 00
        E 0 84 54 00
        E 0 84 60 00
        E 180 94 48 59
        E 0 94 54 59
        E 0 94 60 59
        E 60 84 48 00
        E 0 84 54 00
        E 0 84 60 00
        E 180 94 54 59
        E 0 94 60 59
        E 60 84 54 00
        E 0 84 60 00
        E 180 94 3c 59
        E 0 94 49 59
        E 0 94 55 59
        E 0 94 61 59
        E 60 84 3c 00
        E 0 84 49 00
        E 0 84 55 00
        E 0 84 61 00
        E 180 94 49 59
        E 0 94 55 59
        E 0 94 61 59
        E 60 84 49 00
        E 0 84 55 00
        E 0 84 61 00
        E 180 94 49 59
        E 0 94 55 59
        E 0 94 61 59
        E 60 84 49 00
        E 0 84 55 00
        E 0 84 61 00
        E 180 94 55 59
        E 0 94 61 59
        E 60 84 55 00
        E 0 84 61 00
        E 180 94 3e 59
        E 0 94 4b 59
        E 0 94 57 59
        E 0 94 63 59
        E 60 84 3e 00
        E 0 84 4b 00
        E 0 84 57 00
        E 0 84 63 00
        E 180 94 4b 59
        E 0 94 57 59
        E 0 94 63 59
        E 60 84 4b 00
        E 0 84 57 00
        E 0 84 63 00
        E 180 94 4b 59
        E 0 94 57 59
        E 0 94 63 59
        E 60 84 4b 00
        E 0 84 57 00
        E 0 84 63 00
        E 180 94 57 59
        E 0 94 63 59
        E 60 84 57 00
        E 0 84 63 00
        E 180 94 3d 59
        E 0 94 4a 59
        E 0 94 56 59
        E 0 94 62 59
        E 60 84 3d 00
        E 0 84 4a 00
        E 0 84 56 00
        E 0 84 62 00
        E 180 94 4a 59
        E 0 94 56 59
        E 0 94 62 59
        E 60 84 4a 00
        E 0 84 56 00
        E 0 84 62 00
        E 180 94 4a 59
        E 0 94 56 59
        E 0 94 62 59
        E 60 84 4a 00
        E 0 84 56 00
        E 0 84 62 00
        E 180 94 56 59
        E 0 94 62 59
        E 60 84 56 00
        E 0 84 62 00
        E 180 94 3c 59
        E 0 94 48 59
        E 0 94 54 59
        E 0 94 60 59
        E 60 84 3c 00
        E 0 84 48 00
        E 0 84 54 00
        E 0 84 60 00
        E 180 94 48 59
        E 0 94 54 59
        E 0 94 60 59
        E 60 84 48 00
        E 0 84 54 00
        E 0 84 60 00
        E 180 94 48 59
        E 0 94 54 59
        E 0 94 60 59
        E 60 84 48 00
        E 0 84 54 00
        E 0 84 60 00
        E 180 94 54 59
        E 0 94 60 59
        E 60 84 54 00
        E 0 84 60 00
        E 180 94 3c 59
        E 0 94 49 59
        E 0 94 55 59
        E 0 94 61 59
        E 60 84 3c 00
        E 0 84 49 00
        E 0 84 55 00
        E 0 84 61 00
        E 180 94 49 59
        E 0 94 55 59
        E 0 94 61 59
        E 60 84 49 00
        E 0 84 55 00
        E 0 84 61 00
        E 180 94 49 59
        E 0 94 55 59
        E 0 94 61 59
        E 60 84 49 00
        E 0 84 55 00
        E 0 84 61 00
        E 180 94 55 59
        E 0 94 61 59
        E 60 84 55 00
        E 0 84 61 00
        E 180 94 3e 59
        E 0 94 4b 59
        E 0 94 57 59
        E 0 94 63 59
        E 60 84 3e 00
        E 0 84 4b 00
        E 0 84 57 00
        E 0 84 63 00
        E 180 94 4b 59
        E 0 94 57 59
        E 0 94 63 59
        E 60 84 4b 00
        E 0 84 57 00
        E 0 84 63 00
        E 180 94 4b 59
        E 0 94 57 59
        E 0 94 63 59
        E 60 84 4b 00
        E 0 84 57 00
        E 0 84 63 00
        E 180 94 57 59
        E 0 94 63 59
        E 60 84 57 00
        E 0 84 63 00
        E 180 94 3d 59
        E 0 94 4a 59
        E 0 94 56 59
        E 0 94 62 59
        E 60 84 3d 00
        E 0 84 4a 00
        E 0 84 56 00
        E 0 84 62 00
        E 180 94 4a 59
        E 0 94 56 59
        E 0 94 62 59
        E 60 84 4a 00
        E 0 84 56 00
        E 0 84 62 00
        E 180 94 4a 59
        E 0 94 56 59
        E 0 94 62 59
        E 60 84 4a 00
        E 0 84 56 00
        E 0 84 62 00
        E 180 94 56 59
        E 0 94 62 59
        E 60 84 56 00
        E 0 84 62 00
        E 180 94 3c 59
        E 0 94 48 59
        E 0 94 54 59
        E 0 94 60 59
        E 60 84 3c 00
        E 0 84 48 00
        E 0 84 54 00
        E 0 84 60 00
        E 180 94 48 59
        E 0 94 54 59
        E 0 94 60 59
        E 60 84 48 00
        E 0 84 54 00
        E 0 84 60 00
        E 180 94 48 59
        E 0 94 54 59
        E 0 94 60 59
        E 60 84 48 00
        E 0 84 54 00
        E 0 84 60 00
        E 180 94 54 59
        E 0 94 60 59
        E 60 84 54 00
        E 0 84 60 00
        E 180 94 3c 59
        E 0 94 49 59
        E 0 94 55 59
        E 0 94 61 59
        E 60 84 3c 00
        E 0 84 49 00
        E 0 84 55 00
        E 0 84 61 00
        E 180 94 49 59
        E 0 94 55 59
        E 0 94 61 59
        E 60 84 49 00
        E 0 84 55 00
        E 0 84 61 00
        E 180 94 49 59
        E 0 94 55 59
        E 0 94 61 59
        E 60 84 49 00
        E 0 84 55 00
        E 0 84 61 00
        E 180 94 55 59
        E 0 94 61 59
        E 60 84 55 00
        E 0 84 61 00
        E 180 94 3e 59
        E 0 94 4b 59
        E 0 94 57 59
        E 0 94 63 59
        E 60 84 3e 00
        E 0 84 4b 00
        E 0 84 57 00
        E 0 84 63 00
        E 180 94 4b 59
        E 0 94 57 59
        E 0 94 63 59
        E 60 84 4b 00
        E 0 84 57 00
        E 0 84 63 00
        E 180 94 4b 59
        E 0 94 57 59
        E 0 94 63 59
        E 60 84 4b 00
        E 0 84 57 00
        E 0 84 63 00
        E 180 94 57 59
        E 0 94 63 59
        E 60 84 57 00
        E 0 84 63 00
        E 180 94 3d 59
        E 0 94 4a 59
        E 0 94 56 59
        E 0 94 62 59
        E 60 84 3d 00
        E 0 84 4a 00
        E 0 84 56 00
        E 0 84 62 00
        E 180 94 4a 59
        E 0 94 56 59
        E 0 94 62 59
        E 60 84 4a 00
        E 0 84 56 00
        E 0 84 62 00
        E 180 94 4a 59
        E 0 94 56 59
        E 0 94 62 59
        E 60 84 4a 00
        E 0 84 56 00
        E 0 84 62 00
        E 180 94 56 59
        E 0 94 62 59
        E 60 84 56 00
        E 0 84 62 00
        E 180 94 3c 59
        E 0 94 48 59
        E 0 94 54 59
        E 0 94 60 59
        E 60 84 3c 00
        E 0 84 48 00
        E 0 84 54 00
        E 0 84 60 00
        E 180 94 48 59
        E 0 94 54 59
        E 0 94 60 59
        E 60 84 48 00
        E 0 84 54 00
        E 0 84 60 00
        E 180 94 48 59
        E 0 94 54 59
        E 0 94 60 59
        E 60 84 48 00
        E 0 84 54 00
        E 0 84 60 00
        E 180 94 54 59
        E 0 94 60 59
        E 60 84 54 00
        E 0 84 60 00
        E 180 94 3c 59
        E 0 94 49 59
        E 0 94 55 59
        E 0 94 61 59
        E 60 84 3c 00
        E 0 84 49 00
        E 0 84 55 00
        E 0 84 61 00
        E 180 94 49 59
        E 0 94 55 59
        E 0 94 61 59
        E 60 84 49 00
        E 0 84 55 00
        E 0 84 61 00
        E 180 94 49 59
        E 0 94 55 59
        E 0 94 61 59
        E 60 84 49 00
        E 0 84 55 00
        E 0 84 61 00
        E 180 94 55 59
        E 0 94 61 59
        E 60 84 55 00
        E 0 84 61 00
        E 180 94 3e 59
        E 0 94 4b 59
        E 0 94 57 59
        E 0 94 63 59
        E 60 84 3e 00
        E 0 84 4b 00
        E 0 84 57 00
        E 0 84 63 00
        E 180 94 4b 59
        E 0 94 57 59
        E 0 94 63 59
        E 60 84 4b 00
        E 0 84 57 00
        E 0 84 63 00
        E 180 94 4b 59
        E 0 94 57 59
        E 0 94 63 59
        E 60 84 4b 00
        E 0 84 57 00
        E 0 84 63 00
        E 180 94 57 59
        E 0 94 63 59
        E 60 84 57 00
        E 0 84 63 00
        E 180 94 3d 59
        E 0 94 4a 59
        E 0 94 56 59
        E 0 94 62 59
        E 60 84 3d 00
        E 0 84 4a 00
        E 0 84 56 00
        E 0 84 62 00
        E 180 94 4a 59
        E 0 94 56 59
        E 0 94 62 59
        E 60 84 4a 00
        E 0 84 56 00
        E 0 84 62 00
        E 180 94 4a 59
        E 0 94 56 59
        E 0 94 62 59
        E 60 84 4a 00
        E 0 84 56 00
        E 0 84 62 00
        E 180 94 56 59
        E 0 94 62 59
        E 60 84 56 00
        E 0 84 62 00
        E 180 94 3c 59
        E 0 94 48 59
        E 0 94 54 59
        E 0 94 60 59
        E 60 84 3c 00
        E 0 84 48 00
        E 0 84 54 00
        E 0 84 60 00
        E 180 94 48 59
        E 0 94 54 59
        E 0 94 60 59
        E 60 84 48 00
        E 0 84 54 00
        E 0 84 60 00
        E 180 94 48 59
        E 0 94 54 59
        E 0 94 60 59
        E 60 84 48 00
        E 0 84 54 00
        E 0 84 60 00
        E 180 94 54 59
        E 0 94 60 59
        E 60 84 54 00
        E 0 84 60 00
        E 180 94 3c 59
        E 0 94 49 59
        E 0 94 55 59
        E 0 94 61 59
        E 60 84 3c 00
        E 0 84 49 00
        E 0 84 55 00
        E 0 84 61 00
        E 180 94 49 59
        E 0 94 55 59
        E 0 94 61 59
        E 60 84 49 00
        E 0 84 55 00
        E 0 84 61 00
        E 180 94 49 59
        E 0 94 55 59
        E 0 94 61 59
        E 60 84 49 00
        E 0 84 55 00
        E 0 84 61 00
        E 180 94 55 59
        E 0 94 61 59
        E 60 84 55 00
        E 0 84 61 00
        E 180 94 3e 59
        E 0 94 4b 59
        E 0 94 57 59
        E 0 94 63 59
        E 60 84 3e 00
        E 0 84 4b 00
        E 0 84 57 00
        E 0 84 63 00
        E 180 94 4b 59
        E 0 94 57 59
        E 0 94 63 59
        E 60 84 4b 00
        E 0 84 57 00
        E 0 84 63 00
        E 180 94 4b 59
        E 0 94 57 59
        E 0 94 63 59
        E 60 84 4b 00
        E 0 84 57 00
        E 0 84 63 00
        E 180 94 57 59
        E 0 94 63 59
        E 60 84 57 00
        E 0 84 63 00
        E 180 94 3d 59
        E 0 94 4a 59
        E 0 94 56 59
        E 0 94 62 59
        E 60 84 3d 00
        E 0 84 4a 00
        E 0 84 56 00
        E 0 84 62 00
        E 180 94 4a 59
        E 0 94 56 59
        E 0 94 62 59
        E 60 84 4a 00
        E 0 84 56 00
        E 0 84 62 00
        E 180 94 4a 59
        E 0 94 56 59
        E 0 94 62 59
        E 60 84 4a 00
        E 0 84 56 00
        E 0 84 62 00
        E 180 94 56 59
        E 0 94 62 59
        E 60 84 56 00
        E 0 84 62 00
        E 180 94 3c 59
        E 0 94 48 59
        E 0 94 54 59
        E 0 94 60 59
        E 60 84 3c 00
        E 0 84 48 00
        E 0 84 54 00
        E 0 84 60 00
        E 180 94 48 59
        E 0 94 54 59
        E 0 94 60 59
        E 60 84 48 00
        E 0 84 54 00
        E 0 84 60 00
        E 180 94 48 59
        E 0 94 54 59
        E 0 94 60 59
        E 60 84 48 00
        E 0 84 54 00
        E 0 84 60 00
        E 180 94 54 59
        E 0 94 60 59
        E 60 84 54 00
        E 0 84 60 00
        E 180 94 3c 59
        E 0 94 49 59
        E 0 94 55 59
        E 0 94 61 59
        E 60 84 3c 00
        E 0 84 49 00
        E 0 84 55 00
        E 0 84 61 00
        E 180 94 49 59
        E 0 94 55 59
        E 0 94 61 59
        E 60 84 49 00
        E 0 84 55 00
        E 0 84 61 00
        E 180 94 49 59
        E 0 94 55 59
        E 0 94 61 59
        E 60 84 49 00
        E 0 84 55 00
        E 0 84 61 00
        E 180 94 55 59
        E 0 94 61 59
        E 60 84 55 00
        E 0 84 61 00
        E 180 94 3e 59
        E 0 94 4b 59
        E 0 94 57 59
        E 0 94 63 59
        E 60 84 3e 00
        E 0 84 4b 00
        E 0 84 57 00
        E 0 84 63 00
        E 180 94 4b 59
        E 0 94 57 59
        E 0 94 63 59
        E 60 84 4b 00
        E 0 84 57 00
        E 0 84 63 00
        E 180 94 4b 59
        E 0 94 57 59
        E 0 94 63 59
        E 60 84 4b 00
        E 0 84 57 00
        E 0 84 63 00
        E 180 94 57 59
        E 0 94 63 59
        E 60 84 57 00
        E 0 84 63 00
        E 180 90 74 60
        E 0 94 3d 59
        E 0 94 4a 59
        E 0 94 56 59
        E 0 94 62 59
        E 60 84 3d 00
        E 0 84 4a 00
        E 0 84 56 00
        E 0 84 62 00
        E 180 94 4a 59
        E 0 94 56 59
        E 0 94 62 59
        E 60 84 4a 00
        E 0 84 56 00
        E 0 84 62 00
        E 180 94 4a 59
        E 0 94 56 59
        E 0 94 62 59
        E 60 84 4a 00
        E 0 84 56 00
        E 0 84 62 00
        E 180 94 56 59
        E 0 94 62 59
        E 60 84 56 00
        E 0 84 62 00
        E 180 94 3c 59
        E 0 94 48 59
        E 0 94 54 59
        E 0 94 60 59
        E 60 84 3c 00
        E 0 84 48 00
        E 0 84 54 00
        E 0 84 60 00
        E 180 94 48 59
        E 0 94 54 59
        E 0 94 60 59
        E 60 84 48 00
        E 0 84 54 00
        E 0 84 60 00
        E 180 94 48 59
        E 0 94 54 59
        E 0 94 60 59
        E 60 84 48 00
        E 0 84 54 00
        E 0 84 60 00
        E 180 94 54 59
        E 0 94 60 59
        E 60 84 54 00
        E 0 84 60 00
        E 60 80 74 00
        E 120 94 3c 59
        E 0 94 49 59
        E 0 94 55 59
        E 0 94 61 59
        E 60 84 3c 00
        E 0 84 49 00
        E 0 84 55 00
        E 0 84 61 00
        E 180 94 49 59
        E 0 94 55 59
        E 0 94 61 59
        E 60 84 49 00
        E 0 84 55 00
        E 0 84 61 00
        E 180 94 49 59
        E 0 94 55 59
        E 0 94 61 59
        E 60 84 49 00
        E 0 84 55 00
        E 0 84 61 00
        E 180 94 55 59
        E 0 94 61 59
        E 60 84 55 00
        E 0 84 61 00
        E 180 94 3e 59
        E 0 94 4b 59
        E 0 94 57 59
        E 0 94 63 59
        E 60 84 3e 00
        E 0 84 4b 00
        E 0 84 57 00
        E 0 84 63 00
        E 180 94 4b 59
        E 0 94 57 59
        E 0 94 63 59
        E 60 84 4b 00
        E 0 84 57 00
        E 0 84 63 00
        E 180 94 4b 59
        E 0 94 57 59
        E 0 94 63 59
        E 60 84 4b 00
        E 0 84 57 00
        E 0 84 63 00
        E 180 94 57 59
        E 0 94 63 59
        E 60 84 57 00
        E 0 84 63 00
        E 180 94 3d 59
        E 0 94 4a 59
        E 0 94 56 59
        E 0 94 62 59
        E 60 84 3d 00
        E 0 84 4a 00
        E 0 84 56 00
        E 0 84 62 00
        E 180 94 4a 59
        E 0 94 56 59
        E 0 94 62 59
        E 60 84 4a 00
        E 0 84 56 00
        E 0 84 62 00
        E 180 94 4a 59
        E 0 94 56 59
        E 0 94 62 59
        E 60 84 4a 00
        E 0 84 56 00
        E 0 84 62 00
        E 180 94 56 59
        E 0 94 62 59
        E 60 84 56 00
        E 0 84 62 00
        E 180 94 3c 59
        E 0 94 48 59
        E 0 94 54 59
        E 0 94 60 59
        E 60 84 3c 00
        E 0 84 48 00
        E 0 84 54 00
        E 0 84 60 00
        E 180 94 48 59
        E 0 94 54 59
        E 0 94 60 59
        E 60 84 48 00
        E 0 84 54 00
        E 0 84 60 00
        E 180 94 48 59
        E 0 94 54 59
        E 0 94 60 59
        E 60 84 48 00
        E 0 84 54 00
        E 0 84 60 00
        E 180 94 54 59
        E 0 94 60 59
        E 60 84 54 00
        E 0 84 60 00
        E 180 94 3c 59
        E 0 94 49 59
        E 0 94 55 59
        E 0 94 61 59
        E 60 84 3c 00
        E 0 84 49 00
        E 0 84 55 00
        E 0 84 61 00
        E 180 94 49 59
        E 0 94 55 59
        E 0 94 61 59
        E 60 84 49 00
        E 0 84 55 00
        E 0 84 61 00
        E 180 94 49 59
        E 0 94 55 59
        E 0 94 61 59
        E 60 84 49 00
        E 0 84 55 00
        E 0 84 61 00
        E 180 94 55 59
        E 0 94 61 59
        E 60 84 55 00
        E 0 84 61 00
        E 180 94 3d 59
        E 0 94 4a 59
        E 0 94 56 59
        E 0 94 62 59
        E 60 84 3d 00
        E 0 84 4a 00
        E 0 84 56 00
        E 0 84 62 00
        E 180 94 4a 59
        E 0 94 56 59
        E 0 94 62 59
        E 60 84 4a 00
        E 0 84 56 00
        E 0 84 62 00
        E 180 94 4a 59
        E 0 94 56 59
        E 0 94 62 59
        E 60 84 4a 00
        E 0 84 56 00
        E 0 84 62 00
        E 180 94 56 59
        E 0 94 62 59
        E 60 84 56 00
        E 0 84 62 00
        E 180 94 3c 59
        E 0 94 49 59
        E 0 94 55 59
        E 0 94 61 59
        E 60 84 3c 00
        E 0 84 49 00
        E 0 84 55 00
        E 0 84 61 00
        E 180 94 49 59
        E 0 94 55 59
        E 0 94 61 59
        E 60 84 49 00
        E 0 84 55 00
        E 0 84 61 00
        E 180 94 49 59
        E 0 94 55 59
        E 0 94 61 59
        E 60 84 49 00
        E 0 84 55 00
        E 0 84 61 00
        E 180 94 55 59
        E 0 94 61 59
        E 60 84 55 00
        E 0 84 61 00
        E 180 94 3d 59
        E 0 94 4a 59
        E 0 94 56 59
        E 0 94 62 59
        E 60 84 3d 00
        E 0 84 4a 00
        E 0 84 56 00
        E 0 84 62 00
        E 180 94 4a 59
        E 0 94 56 59
        E 0 94 62 59
        E 60 84 4a 00
        E 0 84 56 00
        E 0 84 62 00
        E 180 94 4a 59
        E 0 94 56 59
        E 0 94 62 59
        E 60 84 4a 00
        E 0 84 56 00
        E 0 84 62 00
        E 180 94 56 59
        E 0 94 62 59
        E 60 84 56 00
        E 0 84 62 00
        E 180 94 3c 59
        E 0 94 49 59
        E 0 94 55 59
        E 0 94 61 59
        E 60 84 3c 00
        E 0 84 49 00
        E 0 84 55 00
        E 0 84 61 00
        E 180 94 49 59
        E 0 94 55 59
        E 0 94 61 59
        E 60 84 49 00
        E 0 84 55 00
        E 0 84 61 00
        E 180 94 49 59
        E 0 94 55 59
        E 0 94 61 59
        E 60 84 49 00
        E 0 84 55 00
        E 0 84 61 00
        E 180 94 55 59
        E 0 94 61 59
        E 60 84 55 00
        E 0 84 61 00
        E 180 94 3e 59
        E 0 94 4b 59
        E 0 94 57 59
        E 0 94 63 59
        E 60 84 3e 00
        E 0 84 4b 00
        E 0 84 57 00
        E 0 84 63 00
        E 180 94 4b 59
        E 0 94 57 59
        E 0 94 63 59
        E 60 84 4b 00
        E 0 84 57 00
        E 0 84 63 00
        E 180 94 4b 59
        E 0 94 57 59
        E 0 94 63 59
        E 60 84 4b 00
        E 0 84 57 00
        E 0 84 63 00
        E 180 94 57 59
        E 0 94 63 59
        E 60 84 57 00
        E 0 84 63 00
        E 180 94 3d 59
        E 0 94 4a 59
        E 0 94 56 59
        E 0 94 62 59
        E 60 84 3d 00
        E 0 84 4a 00
        E 0 84 56 00
        E 0 84 62 00
        E 180 94 4a 59
        E 0 94 56 59
        E 0 94 62 59
        E 60 84 4a 00
        E 0 84 56 00
        E 0 84 62 00
        E 180 94 4a 59
        E 0 94 56 59
        E 0 94 62 59
        E 60 84 4a 00
        E 0 84 56 00
        E 0 84 62 00
        E 180 94 56 59
        E 0 94 62 59
        E 60 84 56 00
        E 0 84 62 00
        E 180 94 3c 59
        E 0 94 48 59
        E 0 94 54 59
        E 0 94 60 59
        E 60 84 3c 00
        E 0 84 48 00
        E 0 84 54 00
        E 0 84 60 00
        E 180 94 48 59
        E 0 94 54 59
        E 0 94 60 59
        E 60 84 48 00
        E 0 84 54 00
        E 0 84 60 00
        E 180 94 48 59
        E 0 94 54 59
        E 0 94 60 59
        E 60 84 48 00
        E 0 84 54 00
        E 0 84 60 00
        E 180 94 54 59
        E 0 94 60 59
        E 60 84 54 00
        E 0 84 60 00
        E 180 94 3c 59
        E 0 94 49 59
        E 0 94 55 59
        E 0 94 61 59
        E 60 84 3c 00
        E 0 84 49 00
        E 0 84 55 00
        E 0 84 61 00
        E 180 94 49 59
        E 0 94 55 59
        E 0 94 61 59
        E 60 84 49 00
        E 0 84 55 00
        E 0 84 61 00
        E 180 94 49 59
        E 0 94 55 59
        E 0 94 61 59
        E 60 84 49 00
        E 0 84 55 00
        E 0 84 61 00
        E 180 94 55 59
        E 0 94 61 59
        E 60 84 55 00
        E 0 84 61 00
        E 180 94 3d 59
        E 0 94 4a 59
        E 0 94 56 59
        E 0 94 62 59
        E 60 84 3d 00
        E 0 84 4a 00
        E 0 84 56 00
        E 0 84 62 00
        E 180 94 4a 59
        E 0 94 56 59
        E 0 94 62 59
        E 60 84 4a 00
        E 0 84 56 00
        E 0 84 62 00
        E 180 94 4a 59
        E 0 94 56 59
        E 0 94 62 59
        E 60 84 4a 00
        E 0 84 56 00
        E 0 84 62 00
        E 180 94 56 59
        E 0 94 62 59
        E 60 84 56 00
        E 0 84 62 00
        E 180 94 3c 59
        E 0 94 49 59
        E 0 94 55 59
        E 0 94 61 59
        E 60 84 3c 00
        E 0 84 49 00
        E 0 84 55 00
        E 0 84 61 00
        E 180 94 49 59
        E 0 94 55 59
        E 0 94 61 59
        E 60 84 49 00
        E 0 84 55 00
        E 0 84 61 00
        E 180 94 49 59
        E 0 94 55 59
        E 0 94 61 59
        E 60 84 49 00
        E 0 84 55 00
        E 0 84 61 00
        E 180 94 55 59
        E 0 94 61 59
        E 60 84 55 00
        E 0 84 61 00
        E 180 94 3d 59
        E 0 94 4a 59
        E 0 94 56 59
        E 0 94 62 59
        E 60 84 3d 00
        E 0 84 4a 00
        E 0 84 56 00
        E 0 84 62 00
        E 180 94 4a 59
        E 0 94 56 59
        E 0 94 62 59
        E 60 84 4a 00
        E 0 84 56 00
        E 0 84 62 00
        E 180 94 4a 59
        E 0 94 56 59
        E 0 94 62 59
        E 60 84 4a 00
        E 0 84 56 00
        E 0 84 62 00
        E 180 94 56 59
        E 0 94 62 59
        E 60 84 56 00
        E 0 84 62 00
        E 180 94 3c 59
        E 0 94 49 59
        E 0 94 55 59
        E 0 94 61 59
        E 60 84 3c 00
        E 0 84 49 00
        E 0 84 55 00
        E 0 84 61 00
        E 180 94 49 59
        E 0 94 55 59
        E 0 94 61 59
        E 60 84 49 00
        E 0 84 55 00
        E 0 84 61 00
        E 180 94 49 59
        E 0 94 55 59
        E 0 94 61 59
        E 60 84 49 00
        E 0 84 55 00
        E 0 84 61 00
        E 180 94 55 59
        E 0 94 61 59
        E 60 84 55 00
        E 0 84 61 00
        E 180 94 3e 59
        E 0 94 4b 59
        E 0 94 57 59
        E 0 94 63 59
        E 60 84 3e 00
        E 0 84 4b 00
        E 0 84 57 00
        E 0 84 63 00
        E 180 94 4b 59
        E 0 94 57 59
        E 0 94 63 59
        E 60 84 4b 00
        E 0 84 57 00
        E 0 84 63 00
        E 180 94 4b 59
        E 0 94 57 59
        E 0 94 63 59
        E 60 84 4b 00
        E 0 84 57 00
        E 0 84 63 00
        E 180 94 57 59
        E 0 94 63 59
        E 60 84 57 00
        E 0 84 63 00
        E 180 94 3d 59
        E 0 94 4a 59
        E 0 94 56 59
        E 0 94 62 59
        E 60 84 3d 00
        E 0 84 4a 00
        E 0 84 56 00
        E 0 84 62 00
        E 180 94 4a 59
        E 0 94 56 59
        E 0 94 62 59
        E 60 84 4a 00
        E 0 84 56 00
        E 0 84 62 00
        E 180 94 4a 59
        E 0 94 56 59
        E 0 94 62 59
        E 60 84 4a 00
        E 0 84 56 00
        E 0 84 62 00
        E 180 94 56 59
        E 0 94 62 59
        E 60 84 56 00
        E 0 84 62 00
        E 180 94 3c 59
        E 0 94 48 59
        E 0 94 54 59
        E 0 94 60 59
        E 60 84 3c 00
        E 0 84 48 00
        E 0 84 54 00
        E 0 84 60 00
        E 180 94 48 59
        E 0 94 54 59
        E 0 94 60 59
        E 60 84 48 00
        E 0 84 54 00
        E 0 84 60 00
        E 180 94 48 59
        E 0 94 54 59
        E 0 94 60 59
        E 60 84 48 00
        E 0 84 54 00
        E 0 84 60 00
        E 180 94 54 59
        E 0 94 60 59
        E 60 84 54 00
        E 0 84 60 00
        E 180 94 3c 59
        E 0 94 49 59
        E 0 94 55 59
        E 0 94 61 59
        E 60 84 3c 00
        E 0 84 49 00
        E 0 84 55 00
        E 0 84 61 00
        E 180 94 49 59
        E 0 94 55 59
        E 0 94 61 59
        E 60 84 49 00
        E 0 84 55 00
        E 0 84 61 00
        E 180 94 49 59
        E 0 94 55 59
        E 0 94 61 59
        E 60 84 49 00
        E 0 84 55 00
        E 0 84 61 00
        <X 60 0
          /wFbaW50ZW5zZV0=
        >
        E 120 94 55 59
        E 0 94 61 59
        E 60 84 55 00
        E 0 84 61 00
        E 180 94 3e 59
        E 0 94 4b 59
        E 0 94 57 59
        E 0 94 63 59
        E 60 84 3e 00
        E 0 84 4b 00
        E 0 84 57 00
        E 0 84 63 00
        E 180 94 4b 59
        E 0 94 57 59
        E 0 94 63 59
        E 60 84 4b 00
        E 0 84 57 00
        E 0 84 63 00
        E 180 94 4b 59
        E 0 94 57 59
        E 0 94 63 59
        E 60 84 4b 00
        E 0 84 57 00
        E 0 84 63 00
        E 180 94 57 59
        E 0 94 63 59
        E 60 84 57 00
        E 0 84 63 00
        E 180 94 3d 59
        E 0 94 4a 59
        E 0 94 56 59
        E 0 94 62 59
        E 60 84 3d 00
        E 0 84 4a 00
        E 0 84 56 00
        E 0 84 62 00
        E 180 94 4a 59
        E 0 94 56 59
        E 0 94 62 59
        E 60 84 4a 00
        E 0 84 56 00
        E 0 84 62 00
        E 180 94 4a 59
        E 0 94 56 59
        E 0 94 62 59
        E 60 84 4a 00
        E 0 84 56 00
        E 0 84 62 00
        E 180 94 56 59
        E 0 94 62 59
        E 60 84 56 00
        E 0 84 62 00
        E 180 94 3c 59
        E 0 94 48 59
        E 0 94 54 59
        E 0 94 60 59
        E 60 84 3c 00
        E 0 84 48 00
        E 0 84 54 00
        E 0 84 60 00
        E 180 94 48 59
        E 0 94 54 59
        E 0 94 60 59
        E 60 84 48 00
        E 0 84 54 00
        E 0 84 60 00
        E 180 94 48 59
        E 0 94 54 59
        E 0 94 60 59
        E 60 84 48 00
        E 0 84 54 00
        E 0 84 60 00
        E 180 94 54 59
        E 0 94 60 59
        E 60 84 54 00
        E 0 84 60 00
        E 180 94 3c 59
        E 0 94 49 59
        E 0 94 55 59
        E 0 94 61 59
        E 60 84 3c 00
        E 0 84 49 00
        E 0 84 55 00
        E 0 84 61 00
        E 180 94 49 59
        E 0 94 55 59
        E 0 94 61 59
        E 60 84 49 00
        E 0 84 55 00
        E 0 84 61 00
        E 180 94 49 59
        E 0 94 55 59
        E 0 94 61 59
        E 60 84 49 00
        E 0 84 55 00
        E 0 84 61 00
        E 180 94 55 59
        E 0 94 61 59
        E 60 84 55 00
        E 0 84 61 00
        E 154 90 74 59
        E 26 94 3e 59
        E 0 94 4b 59
        E 0 94 57 59
        E 0 94 63 59
        E 60 84 3e 00
        E 0 84 4b 00
        E 0 84 57 00
        E 0 84 63 00
        E 180 94 4b 59
        E 0 94 57 59
        E 0 94 63 59
        E 60 84 4b 00
        E 0 84 57 00
        E 0 84 63 00
        E 180 94 4b 59
        E 0 94 57 59
        E 0 94 63 59
        E 60 84 4b 00
        E 0 84 57 00
        E 0 84 63 00
        E 180 94 57 59
        E 0 94 63 59
        E 60 84 57 00
        E 0 84 63 00
        E 180 94 3d 59
        E 0 94 4a 59
        E 0 94 56 59
        E 0 94 62 59
        E 60 84 3d 00
        E 0 84 4a 00
        E 0 84 56 00
        E 0 84 62 00
        E 180 94 4a 59
        E 0 94 56 59
        E 0 94 62 59
        E 60 84 4a 00
        E 0 84 56 00
        E 0 84 62 00
        E 180 94 4a 59
        E 0 94 56 59
        E 0 94 62 59
        E 60 84 4a 00
        E 0 84 56 00
        E 0 84 62 00
        E 180 94 56 59
        E 0 94 62 59
        E 60 84 56 00
        E 0 84 62 00
        E 180 94 3c 59
        E 0 94 48 59
        E 0 94 54 59
        E 0 94 60 59
        E 60 84 3c 00
        E 0 84 48 00
        E 0 84 54 00
        E 0 84 60 00
        E 180 94 48 59
        E 0 94 54 59
        E 0 94 60 59
        E 60 84 48 00
        E 0 84 54 00
        E 0 84 60 00
        E 180 94 48 59
        E 0 94 54 59
        E 0 94 60 59
        E 60 84 48 00
        E 0 84 54 00
        E 0 84 60 00
        E 180 94 54 59
        E 0 94 60 59
        E 60 84 54 00
        E 0 84 60 00
        E 180 94 3c 59
        E 0 94 49 59
        E 0 94 55 59
        E 0 94 61 59
        E 60 84 3c 00
        E 0 84 49 00
        E 0 84 55 00
        E 0 84 61 00
        E 180 94 49 59
        E 0 94 55 59
        E 0 94 61 59
        E 60 84 49 00
        E 0 84 55 00
        E 0 84 61 00
        E 180 94 49 59
        E 0 94 55 59
        E 0 94 61 59
        E 60 84 49 00
        E 0 84 55 00
        E 0 84 61 00
        E 180 94 55 59
        E 0 94 61 59
        E 60 84 55 00
        E 0 84 61 00
        E 42 80 74 00
        E 138 94 3e 59
        E 0 94 4b 59
        E 0 94 57 59
        E 0 94 63 59
        E 60 84 3e 00
        E 0 84 4b 00
        E 0 84 57 00
        E 0 84 63 00
        E 180 94 4b 59
        E 0 94 57 59
        E 0 94 63 59
        E 60 84 4b 00
        E 0 84 57 00
        E 0 84 63 00
        E 180 94 4b 59
        E 0 94 57 59
        E 0 94 63 59
        E 60 84 4b 00
        E 0 84 57 00
        E 0 84 63 00
        E 180 94 57 59
        E 0 94 63 59
        E 60 84 57 00
        E 0 84 63 00
        E 180 94 3d 59
        E 0 94 4a 59
        E 0 94 56 59
        E 0 94 62 59
        E 60 84 3d 00
        E 0 84 4a 00
        E 0 84 56 00
        E 0 84 62 00
        E 180 94 4a 59
        E 0 94 56 59
        E 0 94 62 59
        E 60 84 4a 00
        E 0 84 56 00
        E 0 84 62 00
        E 180 94 4a 59
        E 0 94 56 59
        E 0 94 62 59
        E 60 84 4a 00
        E 0 84 56 00
        E 0 84 62 00
        E 180 94 56 59
        E 0 94 62 59
        E 60 84 56 00
        E 0 84 62 00
        E 180 94 3c 59
        E 0 94 48 59
        E 0 94 54 59
        E 0 94 60 59
        E 60 84 3c 00
        E 0 84 48 00
        E 0 84 54 00
        E 0 84 60 00
        E 180 94 48 59
        E 0 94 54 59
        E 0 94 60 59
        E 60 84 48 00
        E 0 84 54 00
        E 0 84 60 00
        E 180 94 48 59
        E 0 94 54 59
        E 0 94 60 59
        E 60 84 48 00
        E 0 84 54 00
        E 0 84 60 00
        E 180 94 54 59
        E 0 94 60 59
        E 60 84 54 00
        E 0 84 60 00
        E 180 94 3c 59
        E 0 94 49 59
        E 0 94 55 59
        E 0 94 61 59
        E 60 84 3c 00
        E 0 84 49 00
        E 0 84 55 00
        E 0 84 61 00
        E 180 94 49 59
        E 0 94 55 59
        E 0 94 61 59
        E 60 84 49 00
        E 0 84 55 00
        E 0 84 61 00
        E 180 94 49 59
        E 0 94 55 59
        E 0 94 61 59
        E 60 84 49 00
        E 0 84 55 00
        E 0 84 61 00
        E 180 94 55 59
        E 0 94 61 59
        E 60 84 55 00
        E 0 84 61 00
        E 180 94 3e 59
        E 0 94 4b 59
        E 0 94 57 59
        E 0 94 63 59
        E 60 84 3e 00
        E 0 84 4b 00
        E 0 84 57 00
        E 0 84 63 00
        E 180 94 4b 59
        E 0 94 57 59
        E 0 94 63 59
        E 60 84 4b 00
        E 0 84 57 00
        E 0 84 63 00
        E 180 94 4b 59
        E 0 94 57 59
        E 0 94 63 59
        E 60 84 4b 00
        E 0 84 57 00
        E 0 84 63 00
        E 180 94 57 59
        E 0 94 63 59
        E 60 84 57 00
        E 0 84 63 00
        E 180 94 3d 59
        E 0 94 4a 59
        E 0 94 56 59
        E 0 94 62 59
        E 60 84 3d 00
        E 0 84 4a 00
        E 0 84 56 00
        E 0 84 62 00
        E 180 94 4a 59
        E 0 94 56 59
        E 0 94 62 59
        E 60 84 4a 00
        E 0 84 56 00
        E 0 84 62 00
        E 180 94 4a 59
        E 0 94 56 59
        E 0 94 62 59
        E 60 84 4a 00
        E 0 84 56 00
        E 0 84 62 00
        E 180 94 56 59
        E 0 94 62 59
        E 60 84 56 00
        E 0 84 62 00
        E 180 94 3c 59
        E 0 94 48 59
        E 0 94 54 59
        E 0 94 60 59
        E 480 84 3c 00
        E 0 84 48 00
        E 0 84 54 00
        E 0 84 60 00
        <X 960 0
          /wFbcGxheV0=
        >
        E 480 94 3e 59
        E 0 94 4b 59
        E 0 94 57 59
        E 0 94 63 59
        E 60 84 3e 00
        E 0 84 4b 00
        E 0 84 57 00
        E 0 84 63 00
        E 180 94 4b 59
        E 0 94 57 59
        E 0 94 63 59
        E 60 84 4b 00
        E 0 84 57 00
        E 0 84 63 00
        E 180 94 4b 59
        E 0 94 57 59
        E 0 94 63 59
        E 60 84 4b 00
        E 0 84 57 00
        E 0 84 63 00
        E 180 94 57 59
        E 0 94 63 59
        E 60 84 57 00
        E 0 84 63 00
        E 180 94 3d 59
        E 0 94 4a 59
        E 0 94 56 59
        E 0 94 62 59
        E 60 84 3d 00
        E 0 84 4a 00
        E 0 84 56 00
        E 0 84 62 00
        E 180 94 4a 59
        E 0 94 56 59
        E 0 94 62 59
        E 60 84 4a 00
        E 0 84 56 00
        E 0 84 62 00
        E 180 94 4a 59
        E 0 94 56 59
        E 0 94 62 59
        E 60 84 4a 00
        E 0 84 56 00
        E 0 84 62 00
        E 180 94 56 59
        E 0 94 62 59
        E 60 84 56 00
        E 0 84 62 00
        E 180 94 3c 59
        E 0 94 48 59
        E 0 94 54 59
        E 0 94 60 59
        E 60 84 3c 00
        E 0 84 48 00
        E 0 84 54 00
        E 0 84 60 00
        E 180 94 48 59
        E 0 94 54 59
        E 0 94 60 59
        E 60 84 48 00
        E 0 84 54 00
        E 0 84 60 00
        E 180 94 48 59
        E 0 94 54 59
        E 0 94 60 59
        E 60 84 48 00
        E 0 84 54 00
        E 0 84 60 00
        E 180 94 54 59
        E 0 94 60 59
        E 60 84 54 00
        E 0 84 60 00
        E 180 94 3c 59
        E 0 94 49 59
        E 0 94 55 59
        E 0 94 61 59
        E 60 84 3c 00
        E 0 84 49 00
        E 0 84 55 00
        E 0 84 61 00
        E 180 94 49 59
        E 0 94 55 59
        E 0 94 61 59
        E 60 84 49 00
        E 0 84 55 00
        E 0 84 61 00
        E 180 94 49 59
        E 0 94 55 59
        E 0 94 61 59
        E 60 84 49 00
        E 0 84 55 00
        E 0 84 61 00
        E 180 94 55 59
        E 0 94 61 59
        E 60 84 55 00
        E 0 84 61 00
        E 180 94 3e 59
        E 0 94 4b 59
        E 0 94 57 59
        E 0 94 63 59
        E 60 84 3e 00
        E 0 84 4b 00
        E 0 84 57 00
        E 0 84 63 00
        E 180 94 4b 59
        E 0 94 57 59
        E 0 94 63 59
        E 60 84 4b 00
        E 0 84 57 00
        E 0 84 63 00
        E 180 94 4b 59
        E 0 94 57 59
        E 0 94 63 59
        E 60 84 4b 00
        E 0 84 57 00
        E 0 84 63 00
        E 180 94 57 59
        E 0 94 63 59
        E 60 84 57 00
        E 0 84 63 00
        E 180 94 3d 59
        E 0 94 4a 59
        E 0 94 56 59
        E 0 94 62 59
        E 60 84 3d 00
        E 0 84 4a 00
        E 0 84 56 00
        E 0 84 62 00
        E 180 94 4a 59
        E 0 94 56 59
        E 0 94 62 59
        E 60 84 4a 00
        E 0 84 56 00
        E 0 84 62 00
        E 180 94 4a 59
        E 0 94 56 59
        E 0 94 62 59
        E 60 84 4a 00
        E 0 84 56 00
        E 0 84 62 00
        E 180 94 56 59
        E 0 94 62 59
        E 60 84 56 00
        E 0 84 62 00
        E 180 94 3c 59
        E 0 94 48 59
        E 0 94 54 59
        E 0 94 60 59
        E 60 84 3c 00
        E 0 84 48 00
        E 0 84 54 00
        E 0 84 60 00
        E 180 94 48 59
        E 0 94 54 59
        E 0 94 60 59
        E 60 84 48 00
        E 0 84 54 00
        E 0 84 60 00
        E 180 94 48 59
        E 0 94 54 59
        E 0 94 60 59
        E 60 84 48 00
        E 0 84 54 00
        E 0 84 60 00
        E 180 94 54 59
        E 0 94 60 59
        E 60 84 54 00
        E 0 84 60 00
        E 180 90 74 60
        E 0 94 3c 59
        E 0 94 49 59
        E 0 94 55 59
        E 0 94 61 59
        E 60 84 3c 00
        E 0 84 49 00
        E 0 84 55 00
        E 0 84 61 00
        E 180 94 49 59
        E 0 94 55 59
        E 0 94 61 59
        E 60 84 49 00
        E 0 84 55 00
        E 0 84 61 00
        E 180 94 49 59
        E 0 94 55 59
        E 0 94 61 59
        E 60 84 49 00
        E 0 84 55 00
        E 0 84 61 00
        E 180 94 55 59
        E 0 94 61 59
        E 60 84 55 00
        E 0 84 61 00
        E 180 94 3e 59
        E 0 94 4b 59
        E 0 94 57 59
        E 0 94 63 59
        E 60 84 3e 00
        E 0 84 4b 00
        E 0 84 57 00
        E 0 84 63 00
        E 180 94 4b 59
        E 0 94 57 59
        E 0 94 63 59
        E 60 84 4b 00
        E 0 84 57 00
        E 0 84 63 00
        E 180 94 4b 59
        E 0 94 57 59
        E 0 94 63 59
        E 60 84 4b 00
        E 0 84 57 00
        E 0 84 63 00
        E 180 94 57 59
        E 0 94 63 59
        E 60 84 57 00
        E 0 84 63 00
        E 60 80 74 00
        E 120 94 3d 59
        E 0 94 4a 59
        E 0 94 56 59
        E 0 94 62 59
        E 60 84 3d 00
        E 0 84 4a 00
        E 0 84 56 00
        E 0 84 62 00
        E 180 94 4a 59
        E 0 94 56 59
        E 0 94 62 59
        E 60 84 4a 00
        E 0 84 56 00
        E 0 84 62 00
        E 180 94 4a 59
        E 0 94 56 59
        E 0 94 62 59
        E 60 84 4a 00
        E 0 84 56 00
        E 0 84 62 00
        E 180 94 56 59
        E 0 94 62 59
        E 60 84 56 00
        E 0 84 62 00
        E 180 94 3c 59
        E 0 94 48 59
        E 0 94 54 59
        E 0 94 60 59
        E 60 84 3c 00
        E 0 84 48 00
        E 0 84 54 00
        E 0 84 60 00
        E 180 94 48 59
        E 0 94 54 59
        E 0 94 60 59
        E 60 84 48 00
        E 0 84 54 00
        E 0 84 60 00
        E 180 94 48 59
        E 0 94 54 59
        E 0 94 60 59
        E 60 84 48 00
        E 0 84 54 00
        E 0 84 60 00
        E 180 94 54 59
        E 0 94 60 59
        E 60 84 54 00
        E 0 84 60 00
        E 180 94 3c 59
        E 0 94 49 59
        E 0 94 55 59
        E 0 94 61 59
        E 60 84 3c 00
        E 0 84 49 00
        E 0 84 55 00
        E 0 84 61 00
        E 180 94 49 59
        E 0 94 55 59
        E 0 94 61 59
        E 60 84 49 00
        E 0 84 55 00
        E 0 84 61 00
        E 180 94 49 59
        E 0 94 55 59
        E 0 94 61 59
        E 60 84 49 00
        E 0 84 55 00
        E 0 84 61 00
        E 180 94 55 59
        E 0 94 61 59
        E 60 84 55 00
        E 0 84 61 00
        E 180 94 3e 59
        E 0 94 4b 59
        E 0 94 57 59
        E 0 94 63 59
        E 60 84 3e 00
        E 0 84 4b 00
        E 0 84 57 00
        E 0 84 63 00
        E 180 94 4b 59
        E 0 94 57 59
        E 0 94 63 59
        E 60 84 4b 00
        E 0 84 57 00
        E 0 84 63 00
        E 180 94 4b 59
        E 0 94 57 59
        E 0 94 63 59
        E 60 84 4b 00
        E 0 84 57 00
        E 0 84 63 00
        E 180 94 57 59
        E 0 94 63 59
        E 60 84 57 00
        E 0 84 63 00
        E 180 94 3d 59
        E 0 94 4a 59
        E 0 94 56 59
        E 0 94 62 59
        E 60 84 3d 00
        E 0 84 4a 00
        E 0 84 56 00
        E 0 84 62 00
        E 180 94 4a 59
        E 0 94 56 59
        E 0 94 62 59
        E 60 84 4a 00
        E 0 84 56 00
        E 0 84 62 00
        E 180 94 4a 59
        E 0 94 56 59
        E 0 94 62 59
        E 60 84 4a 00
        E 0 84 56 00
        E 0 84 62 00
        E 180 94 56 59
        E 0 94 62 59
        E 60 84 56 00
        E 0 84 62 00
        E 180 94 3c 59
        E 0 94 48 59
        E 0 94 54 59
        E 0 94 60 59
        E 60 84 3c 00
        E 0 84 48 00
        E 0 84 54 00
        E 0 84 60 00
        E 180 94 48 59
        E 0 94 54 59
        E 0 94 60 59
        E 60 84 48 00
        E 0 84 54 00
        E 0 84 60 00
        E 180 94 48 59
        E 0 94 54 59
        E 0 94 60 59
        E 60 84 48 00
        E 0 84 54 00
        E 0 84 60 00
        E 180 94 54 59
        E 0 94 60 59
        E 60 84 54 00
        E 0 84 60 00
        E 180 94 3c 59
        E 0 94 49 59
        E 0 94 55 59
        E 0 94 61 59
        E 60 84 3c 00
        E 0 84 49 00
        E 0 84 55 00
        E 0 84 61 00
        E 180 94 49 59
        E 0 94 55 59
        E 0 94 61 59
        E 60 84 49 00
        E 0 84 55 00
        E 0 84 61 00
        E 180 94 49 59
        E 0 94 55 59
        E 0 94 61 59
        E 60 84 49 00
        E 0 84 55 00
        E 0 84 61 00
        E 180 94 55 59
        E 0 94 61 59
        E 60 84 55 00
        E 0 84 61 00
        E 180 94 3d 59
        E 0 94 4a 59
        E 0 94 56 59
        E 0 94 62 59
        E 60 84 3d 00
        E 0 84 4a 00
        E 0 84 56 00
        E 0 84 62 00
        E 180 94 4a 59
        E 0 94 56 59
        E 0 94 62 59
        E 60 84 4a 00
        E 0 84 56 00
        E 0 84 62 00
        E 180 94 4a 59
        E 0 94 56 59
        E 0 94 62 59
        E 60 84 4a 00
        E 0 84 56 00
        E 0 84 62 00
        E 180 94 56 59
        E 0 94 62 59
        E 60 84 56 00
        E 0 84 62 00
        E 180 94 3c 59
        E 0 94 49 59
        E 0 94 55 59
        E 0 94 61 59
        E 60 84 3c 00
        E 0 84 49 00
        E 0 84 55 00
        E 0 84 61 00
        E 180 94 49 59
        E 0 94 55 59
        E 0 94 61 59
        E 60 84 49 00
        E 0 84 55 00
        E 0 84 61 00
        E 180 94 49 59
        E 0 94 55 59
        E 0 94 61 59
        E 60 84 49 00
        E 0 84 55 00
        E 0 84 61 00
        E 180 94 55 59
        E 0 94 61 59
        E 60 84 55 00
        E 0 84 61 00
        E 180 94 3d 59
        E 0 94 4a 59
        E 0 94 56 59
        E 0 94 62 59
        E 60 84 3d 00
        E 0 84 4a 00
        E 0 84 56 00
        E 0 84 62 00
        E 180 94 4a 59
        E 0 94 56 59
        E 0 94 62 59
        E 60 84 4a 00
        E 0 84 56 00
        E 0 84 62 00
        E 180 94 4a 59
        E 0 94 56 59
        E 0 94 62 59
        E 60 84 4a 00
        E 0 84 56 00
        E 0 84 62 00
        E 180 94 56 59
        E 0 94 62 59
        E 60 84 56 00
        E 0 84 62 00
        E 180 94 3c 59
        E 0 94 49 59
        E 0 94 55 59
        E 0 94 61 59
        E 60 84 3c 00
        E 0 84 49 00
        E 0 84 55 00
        E 0 84 61 00
        E 180 94 49 59
        E 0 94 55 59
        E 0 94 61 59
        E 60 84 49 00
        E 0 84 55 00
        E 0 84 61 00
        E 180 94 49 59
        E 0 94 55 59
        E 0 94 61 59
        E 60 84 49 00
        E 0 84 55 00
        E 0 84 61 00
        E 180 94 55 59
        E 0 94 61 59
        E 60 84 55 00
        E 0 84 61 00
        E 180 94 3e 59
        E 0 94 4b 59
        E 0 94 57 59
        E 0 94 63 59
        E 60 84 3e 00
        E 0 84 4b 00
        E 0 84 57 00
        E 0 84 63 00
        E 180 94 4b 59
        E 0 94 57 59
        E 0 94 63 59
        E 60 84 4b 00
        E 0 84 57 00
        E 0 84 63 00
        E 180 94 4b 59
        E 0 94 57 59
        E 0 94 63 59
        E 60 84 4b 00
        E 0 84 57 00
        E 0 84 63 00
        E 180 94 57 59
        E 0 94 63 59
        E 60 84 57 00
        E 0 84 63 00
        E 180 94 3d 59
        E 0 94 4a 59
        E 0 94 56 59
        E 0 94 62 59
        E 60 84 3d 00
        E 0 84 4a 00
        E 0 84 56 00
        E 0 84 62 00
        E 180 94 4a 59
        E 0 94 56 59
        E 0 94 62 59
        E 60 84 4a 00
        E 0 84 56 00
        E 0 84 62 00
        E 180 94 4a 59
        E 0 94 56 59
        E 0 94 62 59
        E 60 84 4a 00
        E 0 84 56 00
        E 0 84 62 00
        E 180 94 56 59
        E 0 94 62 59
        E 60 84 56 00
        E 0 84 62 00
        E 180 94 3c 59
        E 0 94 48 59
        E 0 94 54 59
        E 0 94 60 59
        E 60 84 3c 00
        E 0 84 48 00
        E 0 84 54 00
        E 0 84 60 00
        E 180 94 48 59
        E 0 94 54 59
        E 0 94 60 59
        E 60 84 48 00
        E 0 84 54 00
        E 0 84 60 00
        E 180 94 48 59
        E 0 94 54 59
        E 0 94 60 59
        E 60 84 48 00
        E 0 84 54 00
        E 0 84 60 00
        E 180 94 54 59
        E 0 94 60 59
        E 60 84 54 00
        E 0 84 60 00
        E 180 94 3c 59
        E 0 94 49 59
        E 0 94 55 59
        E 0 94 61 59
        E 60 84 3c 00
        E 0 84 49 00
        E 0 84 55 00
        E 0 84 61 00
        E 180 94 49 59
        E 0 94 55 59
        E 0 94 61 59
        E 60 84 49 00
        E 0 84 55 00
        E 0 84 61 00
        E 180 94 49 59
        E 0 94 55 59
        E 0 94 61 59
        E 60 84 49 00
        E 0 84 55 00
        E 0 84 61 00
        E 180 94 55 59
        E 0 94 61 59
        E 60 84 55 00
        E 0 84 61 00
        E 180 94 3d 59
        E 0 94 4a 59
        E 0 94 56 59
        E 0 94 62 59
        E 60 84 3d 00
        E 0 84 4a 00
        E 0 84 56 00
        E 0 84 62 00
        E 180 94 4a 59
        E 0 94 56 59
        E 0 94 62 59
        E 60 84 4a 00
        E 0 84 56 00
        E 0 84 62 00
        E 180 94 4a 59
        E 0 94 56 59
        E 0 94 62 59
        E 60 84 4a 00
        E 0 84 56 00
        E 0 84 62 00
        E 180 94 56 59
        E 0 94 62 59
        E 60 84 56 00
        E 0 84 62 00
        E 180 94 3c 59
        E 0 94 49 59
        E 0 94 55 59
        E 0 94 61 59
        E 60 84 3c 00
        E 0 84 49 00
        E 0 84 55 00
        E 0 84 61 00
        E 180 94 49 59
        E 0 94 55 59
        E 0 94 61 59
        E 60 84 49 00
        E 0 84 55 00
        E 0 84 61 00
        E 180 94 49 59
        E 0 94 55 59
        E 0 94 61 59
        E 60 84 49 00
        E 0 84 55 00
        E 0 84 61 00
        E 180 94 55 59
        E 0 94 61 59
        E 60 84 55 00
        E 0 84 61 00
        E 180 94 3d 59
        E 0 94 4a 59
        E 0 94 56 59
        E 0 94 62 59
        E 60 84 3d 00
        E 0 84 4a 00
        E 0 84 56 00
        E 0 84 62 00
        E 180 94 4a 59
        E 0 94 56 59
        E 0 94 62 59
        E 60 84 4a 00
        E 0 84 56 00
        E 0 84 62 00
        E 180 94 4a 59
        E 0 94 56 59
        E 0 94 62 59
        E 60 84 4a 00
        E 0 84 56 00
        E 0 84 62 00
        E 180 94 56 59
        E 0 94 62 59
        E 60 84 56 00
        E 0 84 62 00
        E 180 94 3c 59
        E 0 94 49 59
        E 0 94 55 59
        E 0 94 61 59
        E 60 84 3c 00
        E 0 84 49 00
        E 0 84 55 00
        E 0 84 61 00
        E 180 94 49 59
        E 0 94 55 59
        E 0 94 61 59
        E 60 84 49 00
        E 0 84 55 00
        E 0 84 61 00
        E 180 94 49 59
        E 0 94 55 59
        E 0 94 61 59
        E 60 84 49 00
        E 0 84 55 00
        E 0 84 61 00
        E 180 94 55 59
        E 0 94 61 59
        E 60 84 55 00
        E 0 84 61 00
        E 180 94 3e 59
        E 0 94 4b 59
        E 0 94 57 59
        E 0 94 63 59
        E 60 84 3e 00
        E 0 84 4b 00
        E 0 84 57 00
        E 0 84 63 00
        E 180 94 4b 59
        E 0 94 57 59
        E 0 94 63 59
        E 60 84 4b 00
        E 0 84 57 00
        E 0 84 63 00
        E 180 94 4b 59
        E 0 94 57 59
        E 0 94 63 59
        E 60 84 4b 00
        E 0 84 57 00
        E 0 84 63 00
        E 180 94 57 59
        E 0 94 63 59
        E 60 84 57 00
        E 0 84 63 00
        E 180 94 3d 59
        E 0 94 4a 59
        E 0 94 56 59
        E 0 94 62 59
        E 60 84 3d 00
        E 0 84 4a 00
        E 0 84 56 00
        E 0 84 62 00
        E 180 94 4a 59
        E 0 94 56 59
        E 0 94 62 59
        E 60 84 4a 00
        E 0 84 56 00
        E 0 84 62 00
        E 180 94 4a 59
        E 0 94 56 59
        E 0 94 62 59
        E 60 84 4a 00
        E 0 84 56 00
        E 0 84 62 00
        E 180 94 56 59
        E 0 94 62 59
        E 60 84 56 00
        E 0 84 62 00
        E 180 94 3c 59
        E 0 94 48 59
        E 0 94 54 59
        E 0 94 60 59
        E 60 84 3c 00
        E 0 84 48 00
        E 0 84 54 00
        E 0 84 60 00
        E 180 94 48 59
        E 0 94 54 59
        E 0 94 60 59
        E 60 84 48 00
        E 0 84 54 00
        E 0 84 60 00
        E 180 94 48 59
        E 0 94 54 59
        E 0 94 60 59
        E 60 84 48 00
        E 0 84 54 00
        E 0 84 60 00
        E 180 94 54 59
        E 0 94 60 59
        E 60 84 54 00
        E 0 84 60 00
        E 180 94 3c 59
        E 0 94 49 59
        E 0 94 55 59
        E 0 94 61 59
        E 60 84 3c 00
        E 0 84 49 00
        E 0 84 55 00
        E 0 84 61 00
        E 180 94 49 59
        E 0 94 55 59
        E 0 94 61 59
        E 60 84 49 00
        E 0 84 55 00
        E 0 84 61 00
        E 180 94 49 59
        E 0 94 55 59
        E 0 94 61 59
        E 60 84 49 00
        E 0 84 55 00
        E 0 84 61 00
        <X 173 0
          /wFbaW50ZW5zZV0=
        >
        E 7 94 55 59
        E 0 94 61 59
        E 48 90 74 59
        E 12 84 55 00
        E 0 84 61 00
        E 180 94 3e 59
        E 0 94 4b 59
        E 0 94 57 59
        E 0 94 63 59
        E 60 84 3e 00
        E 0 84 4b 00
        E 0 84 57 00
        E 0 84 63 00
        E 180 94 4b 59
        E 0 94 57 59
        E 0 94 63 59
        E 60 84 4b 00
        E 0 84 57 00
        E 0 84 63 00
        E 180 94 4b 59
        E 0 94 57 59
        E 0 94 63 59
        E 60 84 4b 00
        E 0 84 57 00
        E 0 84 63 00
        E 180 94 57 59
        E 0 94 63 59
        E 60 84 57 00
        E 0 84 63 00
        E 180 94 3d 59
        E 0 94 4a 59
        E 0 94 56 59
        E 0 94 62 59
        E 60 84 3d 00
        E 0 84 4a 00
        E 0 84 56 00
        E 0 84 62 00
        E 180 94 4a 59
        E 0 94 56 59
        E 0 94 62 59
        E 60 84 4a 00
        E 0 84 56 00
        E 0 84 62 00
        E 180 94 4a 59
        E 0 94 56 59
        E 0 94 62 59
        E 60 84 4a 00
        E 0 84 56 00
        E 0 84 62 00
        E 180 94 56 59
        E 0 94 62 59
        E 60 84 56 00
        E 0 84 62 00
        E 180 94 3c 59
        E 0 94 48 59
        E 0 94 54 59
        E 0 94 60 59
        E 60 84 3c 00
        E 0 84 48 00
        E 0 84 54 00
        E 0 84 60 00
        E 180 94 48 59
        E 0 94 54 59
        E 0 94 60 59
        E 60 84 48 00
        E 0 84 54 00
        E 0 84 60 00
        E 180 94 48 59
        E 0 94 54 59
        E 0 94 60 59
        E 60 84 48 00
        E 0 84 54 00
        E 0 84 60 00
        E 180 94 54 59
        E 0 94 60 59
        E 60 84 54 00
        E 0 84 60 00
        E 180 94 3c 59
        E 0 94 49 59
        E 0 94 55 59
        E 0 94 61 59
        E 60 84 3c 00
        E 0 84 49 00
        E 0 84 55 00
        E 0 84 61 00
        E 180 94 49 59
        E 0 94 55 59
        E 0 94 61 59
        E 60 84 49 00
        E 0 84 55 00
        E 0 84 61 00
        E 180 94 49 59
        E 0 94 55 59
        E 0 94 61 59
        E 60 84 49 00
        E 0 84 55 00
        E 0 84 61 00
        E 180 94 55 59
        E 0 94 61 59
        E 60 84 55 00
        E 0 84 61 00
        E 158 80 74 00
        E 22 94 3e 59
        E 0 94 4b 59
        E 0 94 57 59
        E 0 94 63 59
        E 60 84 3e 00
        E 0 84 4b 00
        E 0 84 57 00
        E 0 84 63 00
        E 180 94 4b 59
        E 0 94 57 59
        E 0 94 63 59
        E 60 84 4b 00
        E 0 84 57 00
        E 0 84 63 00
        E 180 94 4b 59
        E 0 94 57 59
        E 0 94 63 59
        E 60 84 4b 00
        E 0 84 57 00
        E 0 84 63 00
        E 180 94 57 59
        E 0 94 63 59
        E 60 84 57 00
        E 0 84 63 00
        E 180 94 3d 59
        E 0 94 4a 59
        E 0 94 56 59
        E 0 94 62 59
        E 60 84 3d 00
        E 0 84 4a 00
        E 0 84 56 00
        E 0 84 62 00
        E 180 94 4a 59
        E 0 94 56 59
        E 0 94 62 59
        E 60 84 4a 00
        E 0 84 56 00
        E 0 84 62 00
        E 180 94 4a 59
        E 0 94 56 59
        E 0 94 62 59
        E 60 84 4a 00
        E 0 84 56 00
        E 0 84 62 00
        E 180 94 56 59
        E 0 94 62 59
        E 60 84 56 00
        E 0 84 62 00
        E 180 94 3c 59
        E 0 94 48 59
        E 0 94 54 59
        E 0 94 60 59
        E 60 84 3c 00
        E 0 84 48 00
        E 0 84 54 00
        E 0 84 60 00
        E 180 94 48 59
        E 0 94 54 59
        E 0 94 60 59
        E 60 84 48 00
        E 0 84 54 00
        E 0 84 60 00
        E 180 94 48 59
        E 0 94 54 59
        E 0 94 60 59
        E 60 84 48 00
        E 0 84 54 00
        E 0 84 60 00
        E 180 94 54 59
        E 0 94 60 59
        E 60 84 54 00
        E 0 84 60 00
        E 180 94 3c 59
        E 0 94 49 59
        E 0 94 55 59
        E 0 94 61 59
        E 60 84 3c 00
        E 0 84 49 00
        E 0 84 55 00
        E 0 84 61 00
        E 180 94 49 59
        E 0 94 55 59
        E 0 94 61 59
        E 60 84 49 00
        E 0 84 55 00
        E 0 84 61 00
        E 180 94 49 59
        E 0 94 55 59
        E 0 94 61 59
        E 60 84 49 00
        E 0 84 55 00
        E 0 84 61 00
        E 180 94 55 59
        E 0 94 61 59
        E 60 84 55 00
        E 0 84 61 00
        E 180 94 3e 59
        E 0 94 4b 59
        E 0 94 57 59
        E 0 94 63 59
        E 60 84 3e 00
        E 0 84 4b 00
        E 0 84 57 00
        E 0 84 63 00
        E 180 94 4b 59
        E 0 94 57 59
        E 0 94 63 59
        E 60 84 4b 00
        E 0 84 57 00
        E 0 84 63 00
        E 180 94 4b 59
        E 0 94 57 59
        E 0 94 63 59
        E 60 84 4b 00
        E 0 84 57 00
        E 0 84 63 00
        E 180 94 57 59
        E 0 94 63 59
        E 60 84 57 00
        E 0 84 63 00
        E 180 94 3d 59
        E 0 94 4a 59
        E 0 94 56 59
        E 0 94 62 59
        E 60 84 3d 00
        E 0 84 4a 00
        E 0 84 56 00
        E 0 84 62 00
        E 180 94 4a 59
        E 0 94 56 59
        E 0 94 62 59
        E 60 84 4a 00
        E 0 84 56 00
        E 0 84 62 00
        E 180 94 4a 59
        E 0 94 56 59
        E 0 94 62 59
        E 60 84 4a 00
        E 0 84 56 00
        E 0 84 62 00
        E 180 94 56 59
        E 0 94 62 59
        E 60 84 56 00
        E 0 84 62 00
        E 180 94 3c 59
        E 0 94 48 59
        E 0 94 54 59
        E 0 94 60 59
        E 60 84 3c 00
        E 0 84 48 00
        E 0 84 54 00
        E 0 84 60 00
        E 180 94 48 59
        E 0 94 54 59
        E 0 94 60 59
        E 60 84 48 00
        E 0 84 54 00
        E 0 84 60 00
        E 180 94 48 59
        E 0 94 54 59
        E 0 94 60 59
        E 60 84 48 00
        E 0 84 54 00
        E 0 84 60 00
        E 180 94 54 59
        E 0 94 60 59
        E 60 84 54 00
        E 0 84 60 00
        E 180 94 3c 59
        E 0 94 49 59
        E 0 94 55 59
        E 0 94 61 59
        E 60 84 3c 00
        E 0 84 49 00
        E 0 84 55 00
        E 0 84 61 00
        E 180 94 49 59
        E 0 94 55 59
        E 0 94 61 59
        E 60 84 49 00
        E 0 84 55 00
        E 0 84 61 00
        E 180 94 49 59
        E 0 94 55 59
        E 0 94 61 59
        E 60 84 49 00
        E 0 84 55 00
        E 0 84 61 00
        E 180 94 55 59
        E 0 94 61 59
        E 60 84 55 00
        E 0 84 61 00
        E 180 94 3e 59
        E 0 94 4b 59
        E 0 94 57 59
        E 0 94 63 59
        E 60 84 3e 00
        E 0 84 4b 00
        E 0 84 57 00
        E 0 84 63 00
        E 180 94 4b 59
        E 0 94 57 59
        E 0 94 63 59
        E 60 84 4b 00
        E 0 84 57 00
        E 0 84 63 00
        E 180 94 4b 59
        E 0 94 57 59
        E 0 94 63 59
        E 60 84 4b 00
        E 0 84 57 00
        E 0 84 63 00
        E 180 94 57 59
        E 0 94 63 59
        E 60 84 57 00
        E 0 84 63 00
        E 180 94 3d 59
        E 0 94 4a 59
        E 0 94 56 59
        E 0 94 62 59
        E 60 84 3d 00
        E 0 84 4a 00
        E 0 84 56 00
        E 0 84 62 00
        E 180 94 4a 59
        E 0 94 56 59
        E 0 94 62 59
        E 60 84 4a 00
        E 0 84 56 00
        E 0 84 62 00
        E 180 94 4a 59
        E 0 94 56 59
        E 0 94 62 59
        E 60 84 4a 00
        E 0 84 56 00
        E 0 84 62 00
        E 180 94 56 59
        E 0 94 62 59
        E 60 84 56 00
        E 0 84 62 00
        E 180 94 3c 59
        E 0 94 48 59
        E 0 94 54 59
        E 0 94 60 59
        E 60 84 3c 00
        E 0 84 48 00
        E 0 84 54 00
        E 0 84 60 00
        E 180 94 48 59
        E 0 94 54 59
        E 0 94 60 59
        E 60 84 48 00
        E 0 84 54 00
        E 0 84 60 00
        E 180 94 48 59
        E 0 94 54 59
        E 0 94 60 59
        E 60 84 48 00
        E 0 84 54 00
        E 0 84 60 00
        E 180 94 54 59
        E 0 94 60 59
        E 60 84 54 00
        E 0 84 60 00
        e 180 90 74 60
        E 0 94 3c 59
        E 0 94 49 59
        E 0 94 55 59
        E 0 94 61 59
        E 60 84 3c 00
        E 0 84 49 00
        E 0 84 55 00
        E 0 84 61 00
        E 180 94 49 59
        E 0 94 55 59
        E 0 94 61 59
        E 60 84 49 00
        E 0 84 55 00
        E 0 84 61 00
        E 180 94 49 59
        E 0 94 55 59
        E 0 94 61 59
        E 60 84 49 00
        E 0 84 55 00
        E 0 84 61 00
        E 180 94 55 59
        E 0 94 61 59
        E 60 84 55 00
        E 0 84 61 00
        E 180 94 3e 59
        E 0 94 4b 59
        E 0 94 57 59
        E 0 94 63 59
        E 2880 84 3e 00
        E 0 84 4b 00
        E 0 84 57 00
        E 0 84 63 00
        e 60 80 74 00
        <X 420 0
          /wFbaWRsZV0=
        >
        <X 11520 0
          /wFbaW50ZW5zZV0=
        >
        E 480 94 3e 59
        E 0 94 4b 59
        E 0 94 57 59
        E 0 94 63 59
        E 60 84 3e 00
        E 0 84 4b 00
        E 0 84 57 00
        E 0 84 63 00
        E 180 94 4b 59
        E 0 94 57 59
        E 0 94 63 59
        E 60 84 4b 00
        E 0 84 57 00
        E 0 84 63 00
        E 180 94 4b 59
        E 0 94 57 59
        E 0 94 63 59
        E 60 84 4b 00
        E 0 84 57 00
        E 0 84 63 00
        E 180 94 57 59
        E 0 94 63 59
        E 60 84 57 00
        E 0 84 63 00
        E 180 94 3d 59
        E 0 94 4a 59
        E 0 94 56 59
        E 0 94 62 59
        E 60 84 3d 00
        E 0 84 4a 00
        E 0 84 56 00
        E 0 84 62 00
        E 180 94 4a 59
        E 0 94 56 59
        E 0 94 62 59
        E 60 84 4a 00
        E 0 84 56 00
        E 0 84 62 00
        E 180 94 4a 59
        E 0 94 56 59
        E 0 94 62 59
        E 60 84 4a 00
        E 0 84 56 00
        E 0 84 62 00
        E 180 94 56 59
        E 0 94 62 59
        E 60 84 56 00
        E 0 84 62 00
        E 180 94 3c 59
        E 0 94 48 59
        E 0 94 54 59
        E 0 94 60 59
        E 60 84 3c 00
        E 0 84 48 00
        E 0 84 54 00
        E 0 84 60 00
        E 180 94 48 59
        E 0 94 54 59
        E 0 94 60 59
        E 60 84 48 00
        E 0 84 54 00
        E 0 84 60 00
        E 180 94 48 59
        E 0 94 54 59
        E 0 94 60 59
        E 60 84 48 00
        E 0 84 54 00
        E 0 84 60 00
        E 180 94 54 59
        E 0 94 60 59
        E 60 84 54 00
        E 0 84 60 00
        E 180 94 3c 59
        E 0 94 49 59
        E 0 94 55 59
        E 0 94 61 59
        E 60 84 3c 00
        E 0 84 49 00
        E 0 84 55 00
        E 0 84 61 00
        E 180 94 49 59
        E 0 94 55 59
        E 0 94 61 59
        E 60 84 49 00
        E 0 84 55 00
        E 0 84 61 00
        E 180 94 49 59
        E 0 94 55 59
        E 0 94 61 59
        E 60 84 49 00
        E 0 84 55 00
        E 0 84 61 00
        E 180 94 55 59
        E 0 94 61 59
        E 60 84 55 00
        E 0 84 61 00
        E 175 90 74 59
        E 5 94 3e 59
        E 0 94 4b 59
        E 0 94 57 59
        E 0 94 63 59
        E 60 84 3e 00
        E 0 84 4b 00
        E 0 84 57 00
        E 0 84 63 00
        E 180 94 4b 59
        E 0 94 57 59
        E 0 94 63 59
        E 60 84 4b 00
        E 0 84 57 00
        E 0 84 63 00
        E 180 94 4b 59
        E 0 94 57 59
        E 0 94 63 59
        E 60 84 4b 00
        E 0 84 57 00
        E 0 84 63 00
        E 180 94 57 59
        E 0 94 63 59
        E 60 84 57 00
        E 0 84 63 00
        E 180 94 3d 59
        E 0 94 4a 59
        E 0 94 56 59
        E 0 94 62 59
        E 60 84 3d 00
        E 0 84 4a 00
        E 0 84 56 00
        E 0 84 62 00
        E 180 94 4a 59
        E 0 94 56 59
        E 0 94 62 59
        E 60 84 4a 00
        E 0 84 56 00
        E 0 84 62 00
        E 180 94 4a 59
        E 0 94 56 59
        E 0 94 62 59
        E 60 84 4a 00
        E 0 84 56 00
        E 0 84 62 00
        E 180 94 56 59
        E 0 94 62 59
        E 60 84 56 00
        E 0 84 62 00
        E 180 94 3c 59
        E 0 94 48 59
        E 0 94 54 59
        E 0 94 60 59
        E 60 84 3c 00
        E 0 84 48 00
        E 0 84 54 00
        E 0 84 60 00
        E 180 94 48 59
        E 0 94 54 59
        E 0 94 60 59
        E 60 84 48 00
        E 0 84 54 00
        E 0 84 60 00
        E 180 94 48 59
        E 0 94 54 59
        E 0 94 60 59
        E 60 84 48 00
        E 0 84 54 00
        E 0 84 60 00
        E 180 94 54 59
        E 0 94 60 59
        E 60 84 54 00
        E 0 84 60 00
        E 180 94 3c 59
        E 0 94 49 59
        E 0 94 55 59
        E 0 94 61 59
        E 60 84 3c 00
        E 0 84 49 00
        E 0 84 55 00
        E 0 84 61 00
        E 180 94 49 59
        E 0 94 55 59
        E 0 94 61 59
        E 60 84 49 00
        E 0 84 55 00
        E 0 84 61 00
        E 180 94 49 59
        E 0 94 55 59
        E 0 94 61 59
        E 60 84 49 00
        E 0 84 55 00
        E 0 84 61 00
        E 180 94 55 59
        E 0 94 61 59
        E 60 84 55 00
        E 0 84 61 00
        E 63 80 74 00
        E 117 94 3e 59
        E 0 94 4b 59
        E 0 94 57 59
        E 0 94 63 59
        E 60 84 3e 00
        E 0 84 4b 00
        E 0 84 57 00
        E 0 84 63 00
        E 180 94 4b 59
        E 0 94 57 59
        E 0 94 63 59
        E 60 84 4b 00
        E 0 84 57 00
        E 0 84 63 00
        E 180 94 4b 59
        E 0 94 57 59
        E 0 94 63 59
        E 60 84 4b 00
        E 0 84 57 00
        E 0 84 63 00
        E 180 94 57 59
        E 0 94 63 59
        E 60 84 57 00
        E 0 84 63 00
        E 180 94 3d 59
        E 0 94 4a 59
        E 0 94 56 59
        E 0 94 62 59
        E 60 84 3d 00
        E 0 84 4a 00
        E 0 84 56 00
        E 0 84 62 00
        E 180 94 4a 59
        E 0 94 56 59
        E 0 94 62 59
        E 60 84 4a 00
        E 0 84 56 00
        E 0 84 62 00
        E 180 94 4a 59
        E 0 94 56 59
        E 0 94 62 59
        E 60 84 4a 00
        E 0 84 56 00
        E 0 84 62 00
        E 180 94 56 59
        E 0 94 62 59
        E 60 84 56 00
        E 0 84 62 00
        E 180 94 3c 59
        E 0 94 48 59
        E 0 94 54 59
        E 0 94 60 59
        E 60 84 3c 00
        E 0 84 48 00
        E 0 84 54 00
        E 0 84 60 00
        E 180 94 48 59
        E 0 94 54 59
        E 0 94 60 59
        E 60 84 48 00
        E 0 84 54 00
        E 0 84 60 00
        E 180 94 48 59
        E 0 94 54 59
        E 0 94 60 59
        E 60 84 48 00
        E 0 84 54 00
        E 0 84 60 00
        E 180 94 54 59
        E 0 94 60 59
        E 60 84 54 00
        E 0 84 60 00
        E 180 94 3c 59
        E 0 94 49 59
        E 0 94 55 59
        E 0 94 61 59
        E 60 84 3c 00
        E 0 84 49 00
        E 0 84 55 00
        E 0 84 61 00
        E 180 94 49 59
        E 0 94 55 59
        E 0 94 61 59
        E 60 84 49 00
        E 0 84 55 00
        E 0 84 61 00
        E 180 94 49 59
        E 0 94 55 59
        E 0 94 61 59
        E 60 84 49 00
        E 0 84 55 00
        E 0 84 61 00
        E 180 94 55 59
        E 0 94 61 59
        E 60 84 55 00
        E 0 84 61 00
        E 180 94 3e 59
        E 0 94 4b 59
        E 0 94 57 59
        E 0 94 63 59
        E 60 84 3e 00
        E 0 84 4b 00
        E 0 84 57 00
        E 0 84 63 00
        E 180 94 4b 59
        E 0 94 57 59
        E 0 94 63 59
        E 60 84 4b 00
        E 0 84 57 00
        E 0 84 63 00
        E 180 94 4b 59
        E 0 94 57 59
        E 0 94 63 59
        E 60 84 4b 00
        E 0 84 57 00
        E 0 84 63 00
        E 180 94 57 59
        E 0 94 63 59
        E 60 84 57 00
        E 0 84 63 00
        E 180 94 3d 59
        E 0 94 4a 59
        E 0 94 56 59
        E 0 94 62 59
        E 60 84 3d 00
        E 0 84 4a 00
        E 0 84 56 00
        E 0 84 62 00
        E 180 94 4a 59
        E 0 94 56 59
        E 0 94 62 59
        E 60 84 4a 00
        E 0 84 56 00
        E 0 84 62 00
        E 180 94 4a 59
        E 0 94 56 59
        E 0 94 62 59
        E 60 84 4a 00
        E 0 84 56 00
        E 0 84 62 00
        E 180 94 56 59
        E 0 94 62 59
        E 60 84 56 00
        E 0 84 62 00
        E 180 90 74 60
        E 0 94 3c 59
        E 0 94 48 59
        E 0 94 54 59
        E 0 94 60 59
        E 60 84 3c 00
        E 0 84 48 00
        E 0 84 54 00
        E 0 84 60 00
        E 180 94 48 59
        E 0 94 54 59
        E 0 94 60 59
        E 60 84 48 00
        E 0 84 54 00
        E 0 84 60 00
        E 180 94 48 59
        E 0 94 54 59
        E 0 94 60 59
        E 60 84 48 00
        E 0 84 54 00
        E 0 84 60 00
        E 180 94 54 59
        E 0 94 60 59
        E 60 84 54 00
        E 0 84 60 00
        E 180 94 3c 59
        E 0 94 49 59
        E 0 94 55 59
        E 0 94 61 59
        E 60 84 3c 00
        E 0 84 49 00
        E 0 84 55 00
        E 0 84 61 00
        E 180 94 49 59
        E 0 94 55 59
        E 0 94 61 59
        E 60 84 49 00
        E 0 84 55 00
        E 0 84 61 00
        E 180 94 49 59
        E 0 94 55 59
        E 0 94 61 59
        E 60 84 49 00
        E 0 84 55 00
        E 0 84 61 00
        E 180 94 55 59
        E 0 94 61 59
        E 60 84 55 00
        E 0 84 61 00
        E 60 80 74 00
        E 120 94 3e 59
        E 0 94 4b 59
        E 0 94 57 59
        E 0 94 63 59
        E 60 84 3e 00
        E 0 84 4b 00
        E 0 84 57 00
        E 0 84 63 00
        E 180 94 4b 59
        E 0 94 57 59
        E 0 94 63 59
        E 60 84 4b 00
        E 0 84 57 00
        E 0 84 63 00
        E 180 94 4b 59
        E 0 94 57 59
        E 0 94 63 59
        E 60 84 4b 00
        E 0 84 57 00
        E 0 84 63 00
        E 180 94 57 59
        E 0 94 63 59
        E 60 84 57 00
        E 0 84 63 00
        E 180 94 3d 59
        E 0 94 4a 59
        E 0 94 56 59
        E 0 94 62 59
        E 60 84 3d 00
        E 0 84 4a 00
        E 0 84 56 00
        E 0 84 62 00
        E 180 94 4a 59
        E 0 94 56 59
        E 0 94 62 59
        E 60 84 4a 00
        E 0 84 56 00
        E 0 84 62 00
        E 180 94 4a 59
        E 0 94 56 59
        E 0 94 62 59
        E 60 84 4a 00
        E 0 84 56 00
        E 0 84 62 00
        E 180 94 56 59
        E 0 94 62 59
        E 60 84 56 00
        E 0 84 62 00
        E 180 94 3c 59
        E 0 94 48 59
        E 0 94 54 59
        E 0 94 60 59
        E 60 84 3c 00
        E 0 84 48 00
        E 0 84 54 00
        E 0 84 60 00
        E 180 94 48 59
        E 0 94 54 59
        E 0 94 60 59
        E 60 84 48 00
        E 0 84 54 00
        E 0 84 60 00
        E 180 94 48 59
        E 0 94 54 59
        E 0 94 60 59
        E 60 84 48 00
        E 0 84 54 00
        E 0 84 60 00
        E 180 94 54 59
        E 0 94 60 59
        E 60 84 54 00
        E 0 84 60 00
        E 180 94 3c 59
        E 0 94 49 59
        E 0 94 55 59
        E 0 94 61 59
        E 60 84 3c 00
        E 0 84 49 00
        E 0 84 55 00
        E 0 84 61 00
        E 180 94 49 59
        E 0 94 55 59
        E 0 94 61 59
        E 60 84 49 00
        E 0 84 55 00
        E 0 84 61 00
        E 180 94 49 59
        E 0 94 55 59
        E 0 94 61 59
        E 60 84 49 00
        E 0 84 55 00
        E 0 84 61 00
        E 180 94 55 59
        E 0 94 61 59
        E 60 84 55 00
        E 0 84 61 00
        E 180 94 3e 59
        E 0 94 4b 59
        E 0 94 57 59
        E 0 94 63 59
        E 60 84 3e 00
        E 0 84 4b 00
        E 0 84 57 00
        E 0 84 63 00
        E 180 94 4b 59
        E 0 94 57 59
        E 0 94 63 59
        E 60 84 4b 00
        E 0 84 57 00
        E 0 84 63 00
        E 180 94 4b 59
        E 0 94 57 59
        E 0 94 63 59
        E 60 84 4b 00
        E 0 84 57 00
        E 0 84 63 00
        E 180 94 57 59
        E 0 94 63 59
        E 60 84 57 00
        E 0 84 63 00
        E 180 94 3d 59
        E 0 94 4a 59
        E 0 94 56 59
        E 0 94 62 59
        E 60 84 3d 00
        E 0 84 4a 00
        E 0 84 56 00
        E 0 84 62 00
        E 180 94 4a 59
        E 0 94 56 59
        E 0 94 62 59
        E 60 84 4a 00
        E 0 84 56 00
        E 0 84 62 00
        E 180 94 4a 59
        E 0 94 56 59
        E 0 94 62 59
        E 60 84 4a 00
        E 0 84 56 00
        E 0 84 62 00
        E 180 94 56 59
        E 0 94 62 59
        E 60 84 56 00
        E 0 84 62 00
        E 180 94 3c 59
        E 0 94 48 59
        E 0 94 54 59
        E 0 94 60 59
        E 60 84 3c 00
        E 0 84 48 00
        E 0 84 54 00
        E 0 84 60 00
        E 180 94 48 59
        E 0 94 54 59
        E 0 94 60 59
        E 60 84 48 00
        E 0 84 54 00
        E 0 84 60 00
        E 180 94 48 59
        E 0 94 54 59
        E 0 94 60 59
        E 60 84 48 00
        E 0 84 54 00
        E 0 84 60 00
        E 180 94 54 59
        E 0 94 60 59
        E 60 84 54 00
        E 0 84 60 00
        E 180 94 3c 59
        E 0 94 49 59
        E 0 94 55 59
        E 0 94 61 59
        E 60 84 3c 00
        E 0 84 49 00
        E 0 84 55 00
        E 0 84 61 00
        E 180 94 49 59
        E 0 94 55 59
        E 0 94 61 59
        E 60 84 49 00
        E 0 84 55 00
        E 0 84 61 00
        E 180 94 49 59
        E 0 94 55 59
        E 0 94 61 59
        E 60 84 49 00
        E 0 84 55 00
        E 0 84 61 00
        E 180 94 55 59
        E 0 94 61 59
        E 60 84 55 00
        E 0 84 61 00
        E 180 94 3e 59
        E 0 94 4b 59
        E 0 94 57 59
        E 0 94 63 59
        E 60 84 3e 00
        E 0 84 4b 00
        E 0 84 57 00
        E 0 84 63 00
        E 180 94 4b 59
        E 0 94 57 59
        E 0 94 63 59
        E 60 84 4b 00
        E 0 84 57 00
        E 0 84 63 00
        E 180 94 4b 59
        E 0 94 57 59
        E 0 94 63 59
        E 60 84 4b 00
        E 0 84 57 00
        E 0 84 63 00
        E 180 94 57 59
        E 0 94 63 59
        E 60 84 57 00
        E 0 84 63 00
        E 180 94 3d 59
        E 0 94 4a 59
        E 0 94 56 59
        E 0 94 62 59
        E 60 84 3d 00
        E 0 84 4a 00
        E 0 84 56 00
        E 0 84 62 00
        E 180 94 4a 59
        E 0 94 56 59
        E 0 94 62 59
        E 60 84 4a 00
        E 0 84 56 00
        E 0 84 62 00
        E 180 94 4a 59
        E 0 94 56 59
        E 0 94 62 59
        E 60 84 4a 00
        E 0 84 56 00
        E 0 84 62 00
        E 180 94 56 59
        E 0 94 62 59
        E 60 84 56 00
        E 0 84 62 00
        E 180 94 3c 59
        E 0 94 48 59
        E 0 94 54 59
        E 0 94 60 59
        E 60 84 3c 00
        E 0 84 48 00
        E 0 84 54 00
        E 0 84 60 00
        E 180 94 48 59
        E 0 94 54 59
        E 0 94 60 59
        E 60 84 48 00
        E 0 84 54 00
        E 0 84 60 00
        E 180 94 48 59
        E 0 94 54 59
        E 0 94 60 59
        E 60 84 48 00
        E 0 84 54 00
        E 0 84 60 00
        E 180 94 54 59
        E 0 94 60 59
        E 60 84 54 00
        E 0 84 60 00
        E 180 94 3c 59
        E 0 94 49 59
        E 0 94 55 59
        E 0 94 61 59
        E 60 84 3c 00
        E 0 84 49 00
        E 0 84 55 00
        E 0 84 61 00
        E 180 94 49 59
        E 0 94 55 59
        E 0 94 61 59
        E 60 84 49 00
        E 0 84 55 00
        E 0 84 61 00
        E 180 94 49 59
        E 0 94 55 59
        E 0 94 61 59
        E 60 84 49 00
        E 0 84 55 00
        E 0 84 61 00
        E 180 94 55 59
        E 0 94 61 59
        E 60 84 55 00
        E 0 84 61 00
        E 180 94 3e 59
        E 0 94 4b 59
        E 0 94 57 59
        E 0 94 63 59
        E 60 84 3e 00
        E 0 84 4b 00
        E 0 84 57 00
        E 0 84 63 00
        E 180 94 4b 59
        E 0 94 57 59
        E 0 94 63 59
        E 60 84 4b 00
        E 0 84 57 00
        E 0 84 63 00
        E 180 94 4b 59
        E 0 94 57 59
        E 0 94 63 59
        E 60 84 4b 00
        E 0 84 57 00
        E 0 84 63 00
        E 180 94 57 59
        E 0 94 63 59
        E 60 84 57 00
        E 0 84 63 00
        E 180 94 3d 59
        E 0 94 4a 59
        E 0 94 56 59
        E 0 94 62 59
        E 60 84 3d 00
        E 0 84 4a 00
        E 0 84 56 00
        E 0 84 62 00
        E 180 94 4a 59
        E 0 94 56 59
        E 0 94 62 59
        E 60 84 4a 00
        E 0 84 56 00
        E 0 84 62 00
        E 180 94 4a 59
        E 0 94 56 59
        E 0 94 62 59
        E 60 84 4a 00
        E 0 84 56 00
        E 0 84 62 00
        E 180 94 56 59
        E 0 94 62 59
        E 60 84 56 00
        E 0 84 62 00
        E 180 94 3c 59
        E 0 94 48 59
        E 0 94 54 59
        E 0 94 60 59
        E 60 84 3c 00
        E 0 84 48 00
        E 0 84 54 00
        E 0 84 60 00
        E 180 94 48 59
        E 0 94 54 59
        E 0 94 60 59
        E 60 84 48 00
        E 0 84 54 00
        E 0 84 60 00
        E 180 94 48 59
        E 0 94 54 59
        E 0 94 60 59
        E 60 84 48 00
        E 0 84 54 00
        E 0 84 60 00
        E 180 94 54 59
        E 0 94 60 59
        E 60 84 54 00
        E 0 84 60 00
        E 180 94 3c 59
        E 0 94 49 59
        E 0 94 55 59
        E 0 94 61 59
        E 60 84 3c 00
        E 0 84 49 00
        E 0 84 55 00
        E 0 84 61 00
        E 180 94 49 59
        E 0 94 55 59
        E 0 94 61 59
        E 60 84 49 00
        E 0 84 55 00
        E 0 84 61 00
        E 180 94 49 59
        E 0 94 55 59
        E 0 94 61 59
        E 60 84 49 00
        E 0 84 55 00
        E 0 84 61 00
        E 180 94 55 59
        E 0 94 61 59
        E 60 84 55 00
        E 0 84 61 00
        E 180 94 3e 59
        E 0 94 4b 59
        E 0 94 57 59
        E 0 94 63 59
        E 3840 84 3e 00
        E 0 84 4b 00
        E 0 84 57 00
        E 0 84 63 00
        <X 480 0
          /wFbaWRsZV9yZWFsdGltZV0=
        >
        E 2400 b0 7b 00
        GUID {54A57D35-811F-42A6-AB75-F5706122F903}
        IGNTEMPO 0 120.00000000 4 4
        SRCCOLOR 1198
        VELLANE 132 128 60
        COLORMAP "C:\Users\wejaa\AppData\Roaming\REAPER\Data\color_maps\rockband_guitarbass.png"
        TEXTSTRINGFILE "Text Events List.txt"
        CFGEDITVIEW -60412.210793 7.979182 1 14 0 0 0
        CFGEDIT 1 1 0 0 0 1 1 1 1 1 1 0.12500000 -8 -8 1370 736 1 2 1 2 0.00000000 0 0 0 0 0.500000 1 0 1.000000 64
        KEYSNAP 0 0 "102034050607" 0 "Major"
        EVTFILTER 0 -1 -1 -1 -1 0 1 0 0 -1.00000000 -1.00000000
      >
    >
  >
  <TRACK '{6B7F9B4B-FF4E-4CE6-9E2D-4C9BD5DAED77}'
    NAME "PART GUITAR"
    PEAKCOL 33488896
    BEAT -1
    AUTOMODE 0
    VOLPAN 1.00000000000000 0.00000000000000 -1.00000000000000 -1.00000000000000 1.00000000000000
    MUTESOLO 0 0 0
    IPHASE 0
    ISBUS 0 0
    BUSCOMP 1 0
    SHOWINMIX 1 0.666700 0.500000 1 0.500000 -1 -1 -1
    FREEMODE 0
    SEL 0
    REC 0 4096 1 7 0 0 0
    TRACKHEIGHT 86 0
    INQ 0 0 0 0.5000000000 100 0 0 100
    NCHAN 2
    FX 1
    TRACKID {6B7F9B4B-FF4E-4CE6-9E2D-4C9BD5DAED77}
    PERF 0
    MIDIOUT -1
    <MIDINOTENAMES
      0 116 "OVERDRIVE"
      0 102 "Force HOPO Off"
      0 101 "Force HOPO On"
      0 100 "EXPERT Orange"
      0 99 "EXPERT Blue"
      0 98 "EXPERT Yellow"
      0 97 "EXPERT Red"
      0 96 "EXPERT Green"
      0 88 "HARD Orange"
      0 87 "HARD Blue"
      0 86 "HARD Yellow"
      0 85 "HARD Red"
      0 84 "HARD Green"
      0 76 "MEDIUM Orange"
      0 75 "MEDIUM Blue"
      0 74 "MEDIUM Yellow"
      0 73 "MEDIUM Red"
      0 72 "MEDIUM Green"
      0 64 "EASY Orange"
      0 63 "EASY Blue"
      0 62 "EASY Yellow"
      0 61 "EASY Red"
      0 60 "EASY Green"
      0 59 "Left Hand Highest"
      0 40 "Left Hand Lowest"
      0 58 "-"
      0 57 "-"
      0 56 "-"
      0 55 "-"
      0 54 "-"
      0 53 "-"
      0 52 "-"
      0 51 "-"
      0 50 "-"
      0 49 "-"
      0 48 "-"
      0 47 "-"
      0 46 "-"
      0 45 "-"
      0 44 "-"
      0 43 "-"
      0 42 "-"
      0 41 "-"
      0 115 "----"
      0 95 "----"
      0 89 "Force HOPO On"
      0 77 "----"
      0 65 "----"
      0 119 "----"
      0 120 "BRE (use all 5)"
      0 121 "BRE"
      0 122 "BRE"
      0 123 "BRE"
      0 124 "BRE"
      0 90 "Force HOPO Off"
      0 103 "Solo Marker"
      0 127 "Trill Marker"
      0 125 "----"
      0 126 "Strum Marker"
    >
    MAINSEND 1 0
    <FXCHAIN
      WNDRECT 1438 3 1127 1245
      SHOW 0
      LASTSEL 1
      DOCKED 0
      BYPASS 1 0
      <VST "VSTi: ReaSynth (Cockos)" "reasynth.dll" 0 ""
        eXNlcu9e7f4AAAAAAgAAAAEAAAAAAAAAAgAAAAAAAAA4AAAAAAAAAA==
        AAAAAO++rd4N8K3eAAAAAAAAAAAAAAAAAAAAADm0SD59y9s+tbSxOQ==
        AAAAALbz/T5VpCs6AAAAAAAAAAAAAAAAAAA=
      >
      FLOATPOS 0 0 0 0
      FXID {52B28C73-185B-48E4-B8F4-1FD7A8848B0F}
      WAK 0
      BYPASS 0 0
      <VST "VSTi: RBN Preview (RBN)" "rbprev_vst64_beta.dll" 0 ""
        dnBicu5e7f4AAAAAAgAAAAEAAAAAAAAAAgAAAAAAAAAEAAAAAQAAAA==
        AAAAAAMAqgAAAAAAAAA=
      >
      FLOATPOS 32 32 659 497
      FXID {190BBB08-7A86-476B-BD07-5F71F5CD6F7C}
      WAK 0
    >
    <ITEM
      POSITION 0.00000000000000
      SNAPOFFS 0.00000000000000
      LENGTH 194.83196922085045
      LOOP 0
      ALLTAKES 0
      SEL 0
      FADEIN 1 0.000000 0.000000 1 0
      FADEOUT 1 0.000000 0.000000 1 0
      MUTE 0
      IGUID {81210F06-DA35-41E7-BA75-C6E1C5689733}
      IID 9
      NAME "PART GUITAR"
      VOLPAN 1.000000 0.000000 1.000000 -1.000000
      SOFFS 0.00000000000000 0.00000000000000
      PLAYRATE 1.00000000000000 1 0.00000000000000 -65536
      CHANMODE 0
      GUID {61757875-B3D4-49E4-8483-EE351B7D2386}
      <SOURCE MIDI
        HASDATA 1 480 QN
        POOLEDEVTS {93695947-68BE-436B-A5BE-2AE225DF4DCD}
        <X 0 0
          /wNQQVJUIEdVSVRBUg==
        >
        <X 3840 0
          /wFbbWVsbG93XQ==
        >
        E 0 90 3c 60
        E 0 90 48 60
        E 0 90 54 60
        E 0 90 60 60
        E 60 80 3c 00
        E 0 80 48 00
        E 0 80 54 00
        E 0 80 60 00
        E 180 90 55 60
        E 0 90 61 60
        E 60 80 55 00
        E 0 80 61 00
        E 180 90 4b 60
        E 0 90 57 60
        E 0 90 63 60
        E 60 80 4b 00
        E 0 80 57 00
        E 0 80 63 00
        E 180 90 56 60
        E 0 90 62 60
        E 60 80 56 00
        E 0 80 62 00
        E 180 90 3e 60
        E 0 90 4b 60
        E 0 90 58 60
        E 0 90 64 60
        E 60 80 3e 00
        E 0 80 4b 00
        E 0 80 58 00
        E 0 80 64 00
        E 180 90 57 60
        E 0 90 63 60
        E 60 80 57 00
        E 0 80 63 00
        E 180 90 49 60
        E 0 90 55 60
        E 0 90 61 60
        E 60 80 49 00
        E 0 80 55 00
        E 0 80 61 00
        E 180 90 56 60
        E 0 90 62 60
        E 60 80 56 00
        E 0 80 62 00
        E 180 90 3c 60
        E 0 90 48 60
        E 0 90 54 60
        E 0 90 60 60
        E 61 80 3c 00
        E 0 80 48 00
        E 0 80 54 00
        E 0 80 60 00
        E 180 90 55 60
        E 0 90 61 60
        E 60 80 55 00
        E 0 80 61 00
        E 179 90 4a 60
        E 0 90 56 60
        E 0 90 62 60
        E 60 80 4a 00
        E 0 80 56 00
        E 0 80 62 00
        E 180 90 55 60
        E 0 90 61 60
        E 60 80 55 00
        E 0 80 61 00
        E 180 90 3c 60
        E 0 90 48 60
        E 0 90 54 60
        E 0 90 60 60
        E 60 80 3c 00
        E 0 80 48 00
        E 0 80 54 00
        E 0 80 60 00
        E 60 90 61 60
        E 60 80 61 00
        E 60 90 56 60
        E 0 90 62 60
        E 60 80 56 00
        E 0 80 62 00
        E 181 90 4b 60
        E 0 90 57 60
        E 0 90 63 60
        E 60 80 4b 00
        E 0 80 57 00
        E 0 80 63 00
        E 180 90 56 60
        E 0 90 62 60
        E 60 80 56 00
        E 0 80 62 00
        E 179 90 3c 60
        E 0 90 48 60
        E 0 90 54 60
        E 0 90 60 60
        E 60 80 3c 00
        E 0 80 48 00
        E 0 80 54 00
        E 0 80 60 00
        E 180 90 55 60
        E 0 90 61 60
        E 60 80 55 00
        E 0 80 61 00
        E 180 90 4b 60
        E 0 90 57 60
        E 0 90 63 60
        E 60 80 4b 00
        E 0 80 57 00
        E 0 80 63 00
        E 180 90 56 60
        E 0 90 62 60
        E 60 80 56 00
        E 0 80 62 00
        E 180 90 3e 60
        E 0 90 4b 60
        E 0 90 58 60
        E 0 90 64 60
        E 60 80 3e 00
        E 0 80 4b 00
        E 0 80 58 00
        E 0 80 64 00
        E 180 90 57 60
        E 0 90 63 60
        E 60 80 57 00
        E 0 80 63 00
        E 180 90 49 60
        E 0 90 55 60
        E 0 90 61 60
        E 60 80 49 00
        E 0 80 55 00
        E 0 80 61 00
        E 180 90 56 60
        E 0 90 62 60
        E 60 80 56 00
        E 0 80 62 00
        E 180 90 3c 60
        E 0 90 48 60
        E 0 90 54 60
        E 0 90 60 60
        E 61 80 3c 00
        E 0 80 48 00
        E 0 80 54 00
        E 0 80 60 00
        E 180 90 55 60
        E 0 90 61 60
        E 60 80 55 00
        E 0 80 61 00
        E 180 90 4a 60
        E 0 90 56 60
        E 0 90 62 60
        E 60 80 4a 00
        E 0 80 56 00
        E 0 80 62 00
        E 180 90 55 60
        E 0 90 61 60
        E 60 80 55 00
        E 0 80 61 00
        E 180 90 3c 60
        E 0 90 48 60
        E 0 90 54 60
        E 0 90 60 60
        E 60 80 3c 00
        E 0 80 48 00
        E 0 80 54 00
        E 0 80 60 00
        E 59 90 61 60
        E 60 80 61 00
        E 60 90 56 60
        E 0 90 62 60
        E 60 80 56 00
        E 0 80 62 00
        E 181 90 4b 60
        E 0 90 57 60
        E 0 90 63 60
        E 60 80 4b 00
        E 0 80 57 00
        E 0 80 63 00
        E 180 90 56 60
        E 0 90 62 60
        E 60 80 56 00
        E 0 80 62 00
        E 179 90 3c 60
        E 0 90 48 60
        E 0 90 54 60
        E 0 90 60 60
        E 60 80 3c 00
        E 0 80 48 00
        E 0 80 54 00
        E 0 80 60 00
        E 180 90 55 60
        E 0 90 61 60
        E 60 80 55 00
        E 0 80 61 00
        E 180 90 4b 60
        E 0 90 57 60
        E 0 90 63 60
        E 60 80 4b 00
        E 0 80 57 00
        E 0 80 63 00
        E 180 90 56 60
        E 0 90 62 60
        E 60 80 56 00
        E 0 80 62 00
        E 180 90 3e 60
        E 0 90 4b 60
        E 0 90 58 60
        E 0 90 64 60
        E 60 80 3e 00
        E 0 80 4b 00
        E 0 80 58 00
        E 0 80 64 00
        E 180 90 57 60
        E 0 90 63 60
        E 60 80 57 00
        E 0 80 63 00
        E 180 90 49 60
        E 0 90 55 60
        E 0 90 61 60
        E 60 80 49 00
        E 0 80 55 00
        E 0 80 61 00
        E 180 90 56 60
        E 0 90 62 60
        E 60 80 56 00
        E 0 80 62 00
        E 180 90 3c 60
        E 0 90 48 60
        E 0 90 54 60
        E 0 90 60 60
        E 61 80 3c 00
        E 0 80 48 00
        E 0 80 54 00
        E 0 80 60 00
        E 180 90 55 60
        E 0 90 61 60
        E 60 80 55 00
        E 0 80 61 00
        E 180 90 4a 60
        E 0 90 56 60
        E 0 90 62 60
        E 60 80 4a 00
        E 0 80 56 00
        E 0 80 62 00
        E 180 90 55 60
        E 0 90 61 60
        E 60 80 55 00
        E 0 80 61 00
        E 180 90 3c 60
        E 0 90 48 60
        E 0 90 54 60
        E 0 90 60 60
        E 60 80 3c 00
        E 0 80 48 00
        E 0 80 54 00
        E 0 80 60 00
        E 59 90 61 60
        E 60 80 61 00
        E 60 90 56 60
        E 0 90 62 60
        E 60 80 56 00
        E 0 80 62 00
        E 181 90 4b 60
        E 0 90 57 60
        E 0 90 63 60
        E 60 80 4b 00
        E 0 80 57 00
        E 0 80 63 00
        E 180 90 56 60
        E 0 90 62 60
        E 60 80 56 00
        E 0 80 62 00
        E 179 90 3c 60
        E 0 90 48 60
        E 0 90 54 60
        E 0 90 60 60
        E 60 80 3c 00
        E 0 80 48 00
        E 0 80 54 00
        E 0 80 60 00
        E 180 90 55 60
        E 0 90 61 60
        E 60 80 55 00
        E 0 80 61 00
        E 180 90 4b 60
        E 0 90 57 60
        E 0 90 63 60
        E 60 80 4b 00
        E 0 80 57 00
        E 0 80 63 00
        E 180 90 56 60
        E 0 90 62 60
        E 60 80 56 00
        E 0 80 62 00
        E 180 90 3e 60
        E 0 90 4b 60
        E 0 90 58 60
        E 0 90 64 60
        E 60 80 3e 00
        E 0 80 4b 00
        E 0 80 58 00
        E 0 80 64 00
        E 180 90 57 60
        E 0 90 63 60
        E 60 80 57 00
        E 0 80 63 00
        E 180 90 49 60
        E 0 90 55 60
        E 0 90 61 60
        E 60 80 49 00
        E 0 80 55 00
        E 0 80 61 00
        E 180 90 56 60
        E 0 90 62 60
        E 60 80 56 00
        E 0 80 62 00
        E 180 90 3c 60
        E 0 90 48 60
        E 0 90 54 60
        E 0 90 60 60
        E 60 80 3c 00
        E 0 80 48 00
        E 0 80 54 00
        E 0 80 60 00
        E 180 90 55 60
        E 0 90 61 60
        E 60 80 55 00
        E 0 80 61 00
        E 180 90 4b 60
        E 0 90 57 60
        E 0 90 63 60
        E 60 80 4b 00
        E 0 80 57 00
        E 0 80 63 00
        E 180 90 56 60
        E 0 90 62 60
        E 60 80 56 00
        E 0 80 62 00
        E 180 90 3d 60
        E 0 90 49 60
        E 0 90 55 60
        E 0 90 61 60
        E 0 90 74 60
        E 120 80 3d 00
        E 0 80 49 00
        E 240 80 55 00
        E 0 80 61 00
        E 120 90 4a 60
        E 0 90 56 60
        E 0 90 62 60
        E 960 80 4a 00
        E 300 80 56 00
        E 0 80 62 00
        <X 60 0
          /wFbcGxheV0=
        >
        E 120 90 3e 60
        E 0 90 49 60
        E 0 90 4a 60
        E 0 90 55 60
        E 0 90 56 60
        E 0 90 61 60
        E 0 90 62 60
        E 60 80 3e 00
        E 0 80 49 00
        E 0 80 4a 00
        E 0 80 55 00
        E 0 80 56 00
        E 0 80 61 00
        E 0 80 62 00
        E 180 90 49 60
        E 0 90 4a 60
        E 0 90 55 60
        E 0 90 56 60
        E 0 90 61 60
        E 0 90 62 60
        E 60 80 49 00
        E 0 80 4a 00
        E 0 80 55 00
        E 0 80 56 00
        E 0 80 61 00
        E 0 80 62 00
        E 180 90 49 60
        E 0 90 4a 60
        E 0 90 55 60
        E 0 90 56 60
        E 0 90 61 60
        E 0 90 62 60
        E 60 80 49 00
        E 0 80 4a 00
        E 0 80 55 00
        E 0 80 56 00
        E 0 80 61 00
        E 0 80 62 00
        E 180 90 55 60
        E 0 90 56 60
        E 0 90 61 60
        E 0 90 62 60
        E 60 80 74 00
        E 0 80 55 00
        E 0 80 56 00
        E 0 80 61 00
        E 0 80 62 00
        E 180 90 3e 60
        E 0 90 49 60
        E 0 90 4b 60
        E 0 90 55 60
        E 0 90 57 60
        E 0 90 61 60
        E 0 90 62 60
        E 0 90 63 60
        E 60 80 3e 00
        E 0 80 49 00
        E 0 80 4b 00
        E 0 80 55 00
        E 0 80 57 00
        E 0 80 61 00
        E 0 80 62 00
        E 0 80 63 00
        E 60 90 61 60
        E 0 90 62 60
        E 0 90 63 60
        E 60 80 61 00
        E 0 80 62 00
        E 0 80 63 00
        E 60 90 49 60
        E 0 90 4b 60
        E 0 90 55 60
        E 0 90 57 60
        E 0 90 61 60
        E 0 90 62 60
        E 0 90 63 60
        E 60 80 49 00
        E 0 80 4b 00
        E 0 80 55 00
        E 0 80 57 00
        E 0 80 61 00
        E 0 80 62 00
        E 0 80 63 00
        E 180 90 49 60
        E 0 90 4b 60
        E 0 90 55 60
        E 0 90 57 60
        E 0 90 61 60
        E 0 90 62 60
        E 0 90 63 60
        E 60 80 49 00
        E 0 80 4b 00
        E 0 80 55 00
        E 0 80 57 00
        E 0 80 61 00
        E 0 80 62 00
        E 0 80 63 00
        E 180 90 55 60
        E 0 90 57 60
        E 0 90 61 60
        E 0 90 62 60
        E 0 90 63 60
        E 60 80 55 00
        E 0 80 57 00
        E 0 80 61 00
        E 0 80 62 00
        E 0 80 63 00
        E 180 90 3c 60
        E 0 90 48 60
        E 0 90 49 60
        E 0 90 54 60
        E 0 90 55 60
        E 0 90 60 60
        E 0 90 61 60
        E 60 80 3c 00
        E 0 80 48 00
        E 0 80 49 00
        E 0 80 54 00
        E 0 80 55 00
        E 0 80 60 00
        E 0 80 61 00
        E 180 90 48 60
        E 0 90 49 60
        E 0 90 54 60
        E 0 90 55 60
        E 0 90 60 60
        E 0 90 61 60
        E 60 80 48 00
        E 0 80 49 00
        E 0 80 54 00
        E 0 80 55 00
        E 0 80 60 00
        E 0 80 61 00
        E 180 90 3c 60
        E 0 90 48 60
        E 0 90 49 60
        E 0 90 54 60
        E 0 90 55 60
        E 0 90 60 60
        E 0 90 61 60
        E 60 80 3c 00
        E 0 80 48 00
        E 0 80 49 00
        E 0 80 54 00
        E 0 80 55 00
        E 0 80 60 00
        E 0 80 61 00
        E 180 90 48 60
        E 0 90 49 60
        E 0 90 54 60
        E 0 90 55 60
        E 0 90 60 60
        E 0 90 61 60
        E 60 80 48 00
        E 0 80 49 00
        E 0 80 54 00
        E 0 80 55 00
        E 0 80 60 00
        E 0 80 61 00
        E 180 90 3c 60
        E 0 90 48 60
        E 0 90 49 60
        E 0 90 54 60
        E 0 90 55 60
        E 0 90 60 60
        E 0 90 61 60
        E 0 90 62 60
        E 60 80 3c 00
        E 0 80 48 00
        E 0 80 49 00
        E 0 80 54 00
        E 0 80 55 00
        E 0 80 60 00
        E 0 80 61 00
        E 0 80 62 00
        E 60 90 60 60
        E 0 90 61 60
        E 0 90 62 60
        E 60 80 60 00
        E 0 80 61 00
        E 0 80 62 00
        E 60 90 48 60
        E 0 90 49 60
        E 0 90 54 60
        E 0 90 55 60
        E 0 90 60 60
        E 0 90 61 60
        E 0 90 62 60
        E 60 80 48 00
        E 0 80 49 00
        E 0 80 54 00
        E 0 80 55 00
        E 0 80 60 00
        E 0 80 61 00
        E 0 80 62 00
        E 180 90 48 60
        E 0 90 49 60
        E 0 90 54 60
        E 0 90 55 60
        E 0 90 60 60
        E 0 90 61 60
        E 0 90 62 60
        E 60 80 48 00
        E 0 80 49 00
        E 0 80 54 00
        E 0 80 55 00
        E 0 80 60 00
        E 0 80 61 00
        E 0 80 62 00
        E 180 90 54 60
        E 0 90 55 60
        E 0 90 60 60
        E 0 90 61 60
        E 0 90 62 60
        E 60 80 54 00
        E 0 80 55 00
        E 0 80 60 00
        E 0 80 61 00
        E 0 80 62 00
        E 180 90 3e 60
        E 0 90 49 60
        E 0 90 4a 60
        E 0 90 55 60
        E 0 90 56 60
        E 0 90 61 60
        E 0 90 62 60
        E 60 80 3e 00
        E 0 80 49 00
        E 0 80 4a 00
        E 0 80 55 00
        E 0 80 56 00
        E 0 80 61 00
        E 0 80 62 00
        E 180 90 49 60
        E 0 90 4a 60
        E 0 90 55 60
        E 0 90 56 60
        E 0 90 61 60
        E 0 90 62 60
        E 60 80 49 00
        E 0 80 4a 00
        E 0 80 55 00
        E 0 80 56 00
        E 0 80 61 00
        E 0 80 62 00
        E 180 90 49 60
        E 0 90 4a 60
        E 0 90 55 60
        E 0 90 56 60
        E 0 90 61 60
        E 0 90 62 60
        E 60 80 49 00
        E 0 80 4a 00
        E 0 80 55 00
        E 0 80 56 00
        E 0 80 61 00
        E 0 80 62 00
        E 180 90 55 60
        E 0 90 56 60
        E 0 90 61 60
        E 0 90 62 60
        E 60 80 55 00
        E 0 80 56 00
        E 0 80 61 00
        E 0 80 62 00
        E 180 90 3e 60
        E 0 90 49 60
        E 0 90 4b 60
        E 0 90 55 60
        E 0 90 57 60
        E 0 90 61 60
        E 0 90 62 60
        E 0 90 63 60
        E 60 80 3e 00
        E 0 80 49 00
        E 0 80 4b 00
        E 0 80 55 00
        E 0 80 57 00
        E 0 80 61 00
        E 0 80 62 00
        E 0 80 63 00
        E 60 90 61 60
        E 0 90 62 60
        E 0 90 63 60
        E 60 80 61 00
        E 0 80 62 00
        E 0 80 63 00
        E 60 90 49 60
        E 0 90 4b 60
        E 0 90 55 60
        E 0 90 57 60
        E 0 90 61 60
        E 0 90 62 60
        E 0 90 63 60
        E 60 80 49 00
        E 0 80 4b 00
        E 0 80 55 00
        E 0 80 57 00
        E 0 80 61 00
        E 0 80 62 00
        E 0 80 63 00
        E 180 90 49 60
        E 0 90 4b 60
        E 0 90 55 60
        E 0 90 57 60
        E 0 90 61 60
        E 0 90 62 60
        E 0 90 63 60
        E 60 80 49 00
        E 0 80 4b 00
        E 0 80 55 00
        E 0 80 57 00
        E 0 80 61 00
        E 0 80 62 00
        E 0 80 63 00
        E 180 90 55 60
        E 0 90 57 60
        E 0 90 61 60
        E 0 90 62 60
        E 0 90 63 60
        E 60 80 55 00
        E 0 80 57 00
        E 0 80 61 00
        E 0 80 62 00
        E 0 80 63 00
        E 180 90 3c 60
        E 0 90 48 60
        E 0 90 49 60
        E 0 90 54 60
        E 0 90 55 60
        E 0 90 60 60
        E 0 90 61 60
        E 60 80 3c 00
        E 0 80 48 00
        E 0 80 49 00
        E 0 80 54 00
        E 0 80 55 00
        E 0 80 60 00
        E 0 80 61 00
        E 180 90 48 60
        E 0 90 49 60
        E 0 90 54 60
        E 0 90 55 60
        E 0 90 60 60
        E 0 90 61 60
        E 60 80 48 00
        E 0 80 49 00
        E 0 80 54 00
        E 0 80 55 00
        E 0 80 60 00
        E 0 80 61 00
        E 180 90 3c 60
        E 0 90 48 60
        E 0 90 49 60
        E 0 90 54 60
        E 0 90 55 60
        E 0 90 60 60
        E 0 90 61 60
        E 60 80 3c 00
        E 0 80 48 00
        E 0 80 49 00
        E 0 80 54 00
        E 0 80 55 00
        E 0 80 60 00
        E 0 80 61 00
        E 180 90 48 60
        E 0 90 49 60
        E 0 90 54 60
        E 0 90 55 60
        E 0 90 60 60
        E 0 90 61 60
        E 60 80 48 00
        E 0 80 49 00
        E 0 80 54 00
        E 0 80 55 00
        E 0 80 60 00
        E 0 80 61 00
        E 180 90 3c 60
        E 0 90 48 60
        E 0 90 49 60
        E 0 90 54 60
        E 0 90 55 60
        E 0 90 60 60
        E 0 90 61 60
        E 0 90 62 60
        E 60 80 3c 00
        E 0 80 48 00
        E 0 80 49 00
        E 0 80 54 00
        E 0 80 55 00
        E 0 80 60 00
        E 0 80 61 00
        E 0 80 62 00
        E 60 90 60 60
        E 0 90 61 60
        E 0 90 62 60
        E 60 80 60 00
        E 0 80 61 00
        E 0 80 62 00
        E 60 90 48 60
        E 0 90 49 60
        E 0 90 54 60
        E 0 90 55 60
        E 0 90 60 60
        E 0 90 61 60
        E 0 90 62 60
        E 60 80 48 00
        E 0 80 49 00
        E 0 80 54 00
        E 0 80 55 00
        E 0 80 60 00
        E 0 80 61 00
        E 0 80 62 00
        E 180 90 48 60
        E 0 90 49 60
        E 0 90 54 60
        E 0 90 55 60
        E 0 90 60 60
        E 0 90 61 60
        E 0 90 62 60
        E 60 80 48 00
        E 0 80 49 00
        E 0 80 54 00
        E 0 80 55 00
        E 0 80 60 00
        E 0 80 61 00
        E 0 80 62 00
        E 180 90 54 60
        E 0 90 55 60
        E 0 90 60 60
        E 0 90 61 60
        E 0 90 62 60
        E 60 80 54 00
        E 0 80 55 00
        E 0 80 60 00
        E 0 80 61 00
        E 0 80 62 00
        E 180 90 3e 60
        E 0 90 49 60
        E 0 90 4a 60
        E 0 90 55 60
        E 0 90 56 60
        E 0 90 61 60
        E 0 90 62 60
        E 60 80 3e 00
        E 0 80 49 00
        E 0 80 4a 00
        E 0 80 55 00
        E 0 80 56 00
        E 0 80 61 00
        E 0 80 62 00
        E 180 90 49 60
        E 0 90 4a 60
        E 0 90 55 60
        E 0 90 56 60
        E 0 90 61 60
        E 0 90 62 60
        E 60 80 49 00
        E 0 80 4a 00
        E 0 80 55 00
        E 0 80 56 00
        E 0 80 61 00
        E 0 80 62 00
        E 180 90 49 60
        E 0 90 4a 60
        E 0 90 55 60
        E 0 90 56 60
        E 0 90 61 60
        E 0 90 62 60
        E 60 80 49 00
        E 0 80 4a 00
        E 0 80 55 00
        E 0 80 56 00
        E 0 80 61 00
        E 0 80 62 00
        E 180 90 55 60
        E 0 90 56 60
        E 0 90 61 60
        E 0 90 62 60
        E 60 80 55 00
        E 0 80 56 00
        E 0 80 61 00
        E 0 80 62 00
        E 180 90 3e 60
        E 0 90 49 60
        E 0 90 4b 60
        E 0 90 55 60
        E 0 90 57 60
        E 0 90 61 60
        E 0 90 62 60
        E 0 90 63 60
        E 60 80 3e 00
        E 0 80 49 00
        E 0 80 4b 00
        E 0 80 55 00
        E 0 80 57 00
        E 0 80 61 00
        E 0 80 62 00
        E 0 80 63 00
        E 60 90 61 60
        E 0 90 62 60
        E 0 90 63 60
        E 60 80 61 00
        E 0 80 62 00
        E 0 80 63 00
        E 60 90 49 60
        E 0 90 4b 60
        E 0 90 55 60
        E 0 90 57 60
        E 0 90 61 60
        E 0 90 62 60
        E 0 90 63 60
        E 60 80 49 00
        E 0 80 4b 00
        E 0 80 55 00
        E 0 80 57 00
        E 0 80 61 00
        E 0 80 62 00
        E 0 80 63 00
        E 180 90 49 60
        E 0 90 4b 60
        E 0 90 55 60
        E 0 90 57 60
        E 0 90 61 60
        E 0 90 62 60
        E 0 90 63 60
        E 60 80 49 00
        E 0 80 4b 00
        E 0 80 55 00
        E 0 80 57 00
        E 0 80 61 00
        E 0 80 62 00
        E 0 80 63 00
        E 180 90 55 60
        E 0 90 57 60
        E 0 90 61 60
        E 0 90 62 60
        E 0 90 63 60
        E 60 80 55 00
        E 0 80 57 00
        E 0 80 61 00
        E 0 80 62 00
        E 0 80 63 00
        E 180 90 3c 60
        E 0 90 48 60
        E 0 90 49 60
        E 0 90 54 60
        E 0 90 55 60
        E 0 90 60 60
        E 0 90 61 60
        E 60 80 3c 00
        E 0 80 48 00
        E 0 80 49 00
        E 0 80 54 00
        E 0 80 55 00
        E 0 80 60 00
        E 0 80 61 00
        E 180 90 48 60
        E 0 90 49 60
        E 0 90 54 60
        E 0 90 55 60
        E 0 90 60 60
        E 0 90 61 60
        E 60 80 48 00
        E 0 80 49 00
        E 0 80 54 00
        E 0 80 55 00
        E 0 80 60 00
        E 0 80 61 00
        E 180 90 3c 60
        E 0 90 48 60
        E 0 90 49 60
        E 0 90 54 60
        E 0 90 55 60
        E 0 90 60 60
        E 0 90 61 60
        E 60 80 3c 00
        E 0 80 48 00
        E 0 80 49 00
        E 0 80 54 00
        E 0 80 55 00
        E 0 80 60 00
        E 0 80 61 00
        E 180 90 48 60
        E 0 90 49 60
        E 0 90 54 60
        E 0 90 55 60
        E 0 90 60 60
        E 0 90 61 60
        E 60 80 48 00
        E 0 80 49 00
        E 0 80 54 00
        E 0 80 55 00
        E 0 80 60 00
        E 0 80 61 00
        E 180 90 3c 60
        E 0 90 48 60
        E 0 90 49 60
        E 0 90 54 60
        E 0 90 55 60
        E 0 90 60 60
        E 0 90 61 60
        E 0 90 62 60
        E 60 80 3c 00
        E 0 80 48 00
        E 0 80 49 00
        E 0 80 54 00
        E 0 80 55 00
        E 0 80 60 00
        E 0 80 61 00
        E 0 80 62 00
        E 60 90 60 60
        E 0 90 61 60
        E 0 90 62 60
        E 60 80 60 00
        E 0 80 61 00
        E 0 80 62 00
        E 60 90 48 60
        E 0 90 49 60
        E 0 90 54 60
        E 0 90 55 60
        E 0 90 60 60
        E 0 90 61 60
        E 0 90 62 60
        E 60 80 48 00
        E 0 80 49 00
        E 0 80 54 00
        E 0 80 55 00
        E 0 80 60 00
        E 0 80 61 00
        E 0 80 62 00
        E 180 90 48 60
        E 0 90 49 60
        E 0 90 54 60
        E 0 90 55 60
        E 0 90 60 60
        E 0 90 61 60
        E 0 90 62 60
        E 60 80 48 00
        E 0 80 49 00
        E 0 80 54 00
        E 0 80 55 00
        E 0 80 60 00
        E 0 80 61 00
        E 0 80 62 00
        E 180 90 54 60
        E 0 90 55 60
        E 0 90 60 60
        E 0 90 61 60
        E 0 90 62 60
        E 60 80 54 00
        E 0 80 55 00
        E 0 80 60 00
        E 0 80 61 00
        E 0 80 62 00
        E 180 90 3e 60
        E 0 90 49 60
        E 0 90 4a 60
        E 0 90 55 60
        E 0 90 56 60
        E 0 90 61 60
        E 0 90 62 60
        E 60 80 3e 00
        E 0 80 49 00
        E 0 80 4a 00
        E 0 80 55 00
        E 0 80 56 00
        E 0 80 61 00
        E 0 80 62 00
        E 180 90 49 60
        E 0 90 4a 60
        E 0 90 55 60
        E 0 90 56 60
        E 0 90 61 60
        E 0 90 62 60
        E 60 80 49 00
        E 0 80 4a 00
        E 0 80 55 00
        E 0 80 56 00
        E 0 80 61 00
        E 0 80 62 00
        E 180 90 49 60
        E 0 90 4a 60
        E 0 90 55 60
        E 0 90 56 60
        E 0 90 61 60
        E 0 90 62 60
        E 60 80 49 00
        E 0 80 4a 00
        E 0 80 55 00
        E 0 80 56 00
        E 0 80 61 00
        E 0 80 62 00
        E 180 90 55 60
        E 0 90 56 60
        E 0 90 61 60
        E 0 90 62 60
        E 60 80 55 00
        E 0 80 56 00
        E 0 80 61 00
        E 0 80 62 00
        E 180 90 3e 60
        E 0 90 49 60
        E 0 90 4b 60
        E 0 90 55 60
        E 0 90 57 60
        E 0 90 61 60
        E 0 90 62 60
        E 0 90 63 60
        E 60 80 3e 00
        E 0 80 49 00
        E 0 80 4b 00
        E 0 80 55 00
        E 0 80 57 00
        E 0 80 61 00
        E 0 80 62 00
        E 0 80 63 00
        E 60 90 61 60
        E 0 90 62 60
        E 0 90 63 60
        E 60 80 61 00
        E 0 80 62 00
        E 0 80 63 00
        E 60 90 49 60
        E 0 90 4b 60
        E 0 90 55 60
        E 0 90 57 60
        E 0 90 61 60
        E 0 90 62 60
        E 0 90 63 60
        E 60 80 49 00
        E 0 80 4b 00
        E 0 80 55 00
        E 0 80 57 00
        E 0 80 61 00
        E 0 80 62 00
        E 0 80 63 00
        E 180 90 49 60
        E 0 90 4b 60
        E 0 90 55 60
        E 0 90 57 60
        E 0 90 61 60
        E 0 90 62 60
        E 0 90 63 60
        E 60 80 49 00
        E 0 80 4b 00
        E 0 80 55 00
        E 0 80 57 00
        E 0 80 61 00
        E 0 80 62 00
        E 0 80 63 00
        E 180 90 55 60
        E 0 90 57 60
        E 0 90 61 60
        E 0 90 62 60
        E 0 90 63 60
        E 60 80 55 00
        E 0 80 57 00
        E 0 80 61 00
        E 0 80 62 00
        E 0 80 63 00
        E 180 90 3c 60
        E 0 90 48 60
        E 0 90 49 60
        E 0 90 54 60
        E 0 90 55 60
        E 0 90 60 60
        E 0 90 61 60
        E 60 80 3c 00
        E 0 80 48 00
        E 0 80 49 00
        E 0 80 54 00
        E 0 80 55 00
        E 0 80 60 00
        E 0 80 61 00
        E 180 90 48 60
        E 0 90 49 60
        E 0 90 54 60
        E 0 90 55 60
        E 0 90 60 60
        E 0 90 61 60
        E 60 80 48 00
        E 0 80 49 00
        E 0 80 54 00
        E 0 80 55 00
        E 0 80 60 00
        E 0 80 61 00
        E 180 90 3c 60
        E 0 90 48 60
        E 0 90 49 60
        E 0 90 54 60
        E 0 90 55 60
        E 0 90 60 60
        E 0 90 61 60
        E 60 80 3c 00
        E 0 80 48 00
        E 0 80 49 00
        E 0 80 54 00
        E 0 80 55 00
        E 0 80 60 00
        E 0 80 61 00
        E 180 90 48 60
        E 0 90 49 60
        E 0 90 54 60
        E 0 90 55 60
        E 0 90 60 60
        E 0 90 61 60
        E 60 80 48 00
        E 0 80 49 00
        E 0 80 54 00
        E 0 80 55 00
        E 0 80 60 00
        E 0 80 61 00
        E 180 90 3c 60
        E 0 90 48 60
        E 0 90 49 60
        E 0 90 54 60
        E 0 90 55 60
        E 0 90 60 60
        E 0 90 61 60
        E 0 90 62 60
        E 60 80 3c 00
        E 0 80 48 00
        E 0 80 49 00
        E 0 80 54 00
        E 0 80 55 00
        E 0 80 60 00
        E 0 80 61 00
        E 0 80 62 00
        E 60 90 60 60
        E 0 90 61 60
        E 0 90 62 60
        E 60 80 60 00
        E 0 80 61 00
        E 0 80 62 00
        E 60 90 48 60
        E 0 90 49 60
        E 0 90 54 60
        E 0 90 55 60
        E 0 90 60 60
        E 0 90 61 60
        E 0 90 62 60
        E 60 80 48 00
        E 0 80 49 00
        E 0 80 54 00
        E 0 80 55 00
        E 0 80 60 00
        E 0 80 61 00
        E 0 80 62 00
        E 180 90 48 60
        E 0 90 49 60
        E 0 90 54 60
        E 0 90 55 60
        E 0 90 60 60
        E 0 90 61 60
        E 0 90 62 60
        E 60 80 48 00
        E 0 80 49 00
        E 0 80 54 00
        E 0 80 55 00
        E 0 80 60 00
        E 0 80 61 00
        E 0 80 62 00
        E 180 90 54 60
        E 0 90 55 60
        E 0 90 60 60
        E 0 90 61 60
        E 0 90 62 60
        E 60 80 54 00
        E 0 80 55 00
        E 0 80 60 00
        E 0 80 61 00
        E 0 80 62 00
        E 180 90 3d 60
        E 0 90 49 60
        E 0 90 55 60
        E 0 90 61 60
        E 60 80 3d 00
        E 0 80 49 00
        E 0 80 55 00
        E 0 80 61 00
        E 180 90 56 60
        E 0 90 62 60
        E 60 80 56 00
        E 0 80 62 00
        E 180 90 4b 60
        E 0 90 57 60
        E 0 90 63 60
        E 60 80 4b 00
        E 0 80 57 00
        E 0 80 63 00
        E 180 90 56 60
        E 0 90 62 60
        E 60 80 56 00
        E 0 80 62 00
        E 180 90 3c 60
        E 0 90 48 60
        E 0 90 54 60
        E 0 90 60 60
        E 60 80 3c 00
        E 0 80 48 00
        E 0 80 54 00
        E 0 80 60 00
        E 180 90 56 60
        E 0 90 62 60
        E 60 80 56 00
        E 0 80 62 00
        E 180 90 4b 60
        E 0 90 58 60
        E 0 90 64 60
        E 60 80 4b 00
        E 0 80 58 00
        E 0 80 64 00
        E 180 90 56 60
        E 0 90 62 60
        E 60 80 56 00
        E 0 80 62 00
        E 180 90 3c 60
        E 0 90 48 60
        E 0 90 54 60
        E 0 90 60 60
        E 60 80 3c 00
        E 0 80 48 00
        E 0 80 54 00
        E 0 80 60 00
        E 180 90 55 60
        E 0 90 61 60
        E 60 80 55 00
        E 0 80 61 00
        E 180 90 4a 60
        E 0 90 56 60
        E 0 90 62 60
        E 60 80 4a 00
        E 0 80 56 00
        E 0 80 62 00
        E 180 90 55 60
        E 0 90 61 60
        E 60 80 55 00
        E 0 80 61 00
        E 180 90 3c 60
        E 0 90 48 60
        E 0 90 54 60
        E 0 90 60 60
        E 60 80 3c 00
        E 0 80 48 00
        E 0 80 54 00
        E 0 80 60 00
        E 180 90 56 60
        E 0 90 62 60
        E 60 80 56 00
        E 0 80 62 00
        E 180 90 4b 60
        E 0 90 57 60
        E 0 90 63 60
        E 60 80 4b 00
        E 0 80 57 00
        E 0 80 63 00
        E 180 90 56 60
        E 0 90 62 60
        E 60 80 56 00
        E 0 80 62 00
        E 180 90 3e 60
        E 0 90 49 60
        E 0 90 4a 60
        E 0 90 55 60
        E 0 90 56 60
        E 0 90 61 60
        E 0 90 62 60
        E 60 80 3e 00
        E 0 80 49 00
        E 0 80 4a 00
        E 0 80 55 00
        E 0 80 56 00
        E 0 80 61 00
        E 0 80 62 00
        E 180 90 49 60
        E 0 90 4a 60
        E 0 90 55 60
        E 0 90 56 60
        E 0 90 61 60
        E 0 90 62 60
        E 60 80 49 00
        E 0 80 4a 00
        E 0 80 55 00
        E 0 80 56 00
        E 0 80 61 00
        E 0 80 62 00
        E 180 90 49 60
        E 0 90 4a 60
        E 0 90 55 60
        E 0 90 56 60
        E 0 90 61 60
        E 0 90 62 60
        E 60 80 49 00
        E 0 80 4a 00
        E 0 80 55 00
        E 0 80 56 00
        E 0 80 61 00
        E 0 80 62 00
        E 180 90 55 60
        E 0 90 56 60
        E 0 90 61 60
        E 0 90 62 60
        E 60 80 55 00
        E 0 80 56 00
        E 0 80 61 00
        E 0 80 62 00
        E 180 90 3e 60
        E 0 90 49 60
        E 0 90 4b 60
        E 0 90 55 60
        E 0 90 57 60
        E 0 90 61 60
        E 0 90 62 60
        E 0 90 63 60
        E 60 80 3e 00
        E 0 80 49 00
        E 0 80 4b 00
        E 0 80 55 00
        E 0 80 57 00
        E 0 80 61 00
        E 0 80 62 00
        E 0 80 63 00
        E 60 90 61 60
        E 0 90 62 60
        E 0 90 63 60
        E 60 80 61 00
        E 0 80 62 00
        E 0 80 63 00
        E 60 90 49 60
        E 0 90 4b 60
        E 0 90 55 60
        E 0 90 57 60
        E 0 90 61 60
        E 0 90 62 60
        E 0 90 63 60
        E 60 80 49 00
        E 0 80 4b 00
        E 0 80 55 00
        E 0 80 57 00
        E 0 80 61 00
        E 0 80 62 00
        E 0 80 63 00
        E 180 90 49 60
        E 0 90 4b 60
        E 0 90 55 60
        E 0 90 57 60
        E 0 90 61 60
        E 0 90 62 60
        E 0 90 63 60
        E 60 80 49 00
        E 0 80 4b 00
        E 0 80 55 00
        E 0 80 57 00
        E 0 80 61 00
        E 0 80 62 00
        E 0 80 63 00
        E 180 90 55 60
        E 0 90 57 60
        E 0 90 61 60
        E 0 90 62 60
        E 0 90 63 60
        E 60 80 55 00
        E 0 80 57 00
        E 0 80 61 00
        E 0 80 62 00
        E 0 80 63 00
        E 180 90 3c 60
        E 0 90 48 60
        E 0 90 49 60
        E 0 90 54 60
        E 0 90 55 60
        E 0 90 60 60
        E 0 90 61 60
        E 60 80 3c 00
        E 0 80 48 00
        E 0 80 49 00
        E 0 80 54 00
        E 0 80 55 00
        E 0 80 60 00
        E 0 80 61 00
        E 180 90 48 60
        E 0 90 49 60
        E 0 90 54 60
        E 0 90 55 60
        E 0 90 60 60
        E 0 90 61 60
        E 60 80 48 00
        E 0 80 49 00
        E 0 80 54 00
        E 0 80 55 00
        E 0 80 60 00
        E 0 80 61 00
        E 180 90 3c 60
        E 0 90 48 60
        E 0 90 49 60
        E 0 90 54 60
        E 0 90 55 60
        E 0 90 60 60
        E 0 90 61 60
        E 60 80 3c 00
        E 0 80 48 00
        E 0 80 49 00
        E 0 80 54 00
        E 0 80 55 00
        E 0 80 60 00
        E 0 80 61 00
        E 180 90 48 60
        E 0 90 49 60
        E 0 90 54 60
        E 0 90 55 60
        E 0 90 60 60
        E 0 90 61 60
        E 60 80 48 00
        E 0 80 49 00
        E 0 80 54 00
        E 0 80 55 00
        E 0 80 60 00
        E 0 80 61 00
        E 180 90 3c 60
        E 0 90 48 60
        E 0 90 49 60
        E 0 90 54 60
        E 0 90 55 60
        E 0 90 60 60
        E 0 90 61 60
        E 0 90 62 60
        E 60 80 3c 00
        E 0 80 48 00
        E 0 80 49 00
        E 0 80 54 00
        E 0 80 55 00
        E 0 80 60 00
        E 0 80 61 00
        E 0 80 62 00
        E 60 90 60 60
        E 0 90 61 60
        E 0 90 62 60
        E 60 80 60 00
        E 0 80 61 00
        E 0 80 62 00
        E 60 90 48 60
        E 0 90 49 60
        E 0 90 54 60
        E 0 90 55 60
        E 0 90 60 60
        E 0 90 61 60
        E 0 90 62 60
        E 60 80 48 00
        E 0 80 49 00
        E 0 80 54 00
        E 0 80 55 00
        E 0 80 60 00
        E 0 80 61 00
        E 0 80 62 00
        E 180 90 48 60
        E 0 90 49 60
        E 0 90 54 60
        E 0 90 55 60
        E 0 90 60 60
        E 0 90 61 60
        E 0 90 62 60
        E 60 80 48 00
        E 0 80 49 00
        E 0 80 54 00
        E 0 80 55 00
        E 0 80 60 00
        E 0 80 61 00
        E 0 80 62 00
        E 180 90 54 60
        E 0 90 55 60
        E 0 90 60 60
        E 0 90 61 60
        E 0 90 62 60
        E 60 80 54 00
        E 0 80 55 00
        E 0 80 60 00
        E 0 80 61 00
        E 0 80 62 00
        E 180 90 3d 60
        E 0 90 49 60
        E 0 90 55 60
        E 0 90 61 60
        E 60 80 3d 00
        E 0 80 49 00
        E 0 80 55 00
        E 0 80 61 00
        E 180 90 56 60
        E 0 90 62 60
        E 60 80 56 00
        E 0 80 62 00
        E 180 90 4b 60
        E 0 90 57 60
        E 0 90 63 60
        E 60 80 4b 00
        E 0 80 57 00
        E 0 80 63 00
        E 180 90 56 60
        E 0 90 62 60
        E 60 80 56 00
        E 0 80 62 00
        E 180 90 3c 60
        E 0 90 48 60
        E 0 90 54 60
        E 0 90 60 60
        e 0 90 74 60
        E 60 80 3c 00
        E 0 80 48 00
        E 0 80 54 00
        E 0 80 60 00
        E 180 90 56 60
        E 0 90 62 60
        E 60 80 56 00
        E 0 80 62 00
        E 180 90 4b 60
        E 0 90 58 60
        E 0 90 64 60
        E 60 80 4b 00
        E 0 80 58 00
        E 0 80 64 00
        E 180 90 56 60
        E 0 90 62 60
        E 60 80 56 00
        E 0 80 62 00
        E 180 90 3c 60
        E 0 90 48 60
        E 0 90 54 60
        E 0 90 60 60
        E 60 80 3c 00
        E 0 80 48 00
        E 0 80 54 00
        E 0 80 60 00
        E 180 90 55 60
        E 0 90 61 60
        E 60 80 55 00
        E 0 80 61 00
        E 180 90 4a 60
        E 0 90 56 60
        E 0 90 62 60
        E 60 80 4a 00
        E 0 80 56 00
        E 0 80 62 00
        E 180 90 55 60
        E 0 90 61 60
        E 60 80 55 00
        E 0 80 61 00
        e 60 80 74 00
        E 120 90 3c 60
        E 0 90 48 60
        E 0 90 54 60
        E 0 90 60 60
        E 60 80 3c 00
        E 0 80 48 00
        E 0 80 54 00
        E 0 80 60 00
        E 180 90 56 60
        E 0 90 62 60
        E 60 80 56 00
        E 0 80 62 00
        E 180 90 4b 60
        E 0 90 57 60
        E 0 90 63 60
        E 60 80 4b 00
        E 0 80 57 00
        E 0 80 63 00
        E 180 90 56 60
        E 0 90 62 60
        E 60 80 56 00
        E 0 80 62 00
        E 180 90 3e 60
        E 0 90 49 60
        E 0 90 4a 60
        E 0 90 55 60
        E 0 90 56 60
        E 0 90 61 60
        E 0 90 62 60
        E 60 80 3e 00
        E 0 80 49 00
        E 0 80 4a 00
        E 0 80 55 00
        E 0 80 56 00
        E 0 80 61 00
        E 0 80 62 00
        E 180 90 49 60
        E 0 90 4a 60
        E 0 90 55 60
        E 0 90 56 60
        E 0 90 61 60
        E 0 90 62 60
        E 60 80 49 00
        E 0 80 4a 00
        E 0 80 55 00
        E 0 80 56 00
        E 0 80 61 00
        E 0 80 62 00
        E 180 90 49 60
        E 0 90 4a 60
        E 0 90 55 60
        E 0 90 56 60
        E 0 90 61 60
        E 0 90 62 60
        E 60 80 49 00
        E 0 80 4a 00
        E 0 80 55 00
        E 0 80 56 00
        E 0 80 61 00
        E 0 80 62 00
        E 180 90 55 60
        E 0 90 56 60
        E 0 90 61 60
        E 0 90 62 60
        E 60 80 55 00
        E 0 80 56 00
        E 0 80 61 00
        E 0 80 62 00
        E 180 90 3e 60
        E 0 90 49 60
        E 0 90 4b 60
        E 0 90 55 60
        E 0 90 57 60
        E 0 90 61 60
        E 0 90 62 60
        E 0 90 63 60
        E 60 80 3e 00
        E 0 80 49 00
        E 0 80 4b 00
        E 0 80 55 00
        E 0 80 57 00
        E 0 80 61 00
        E 0 80 62 00
        E 0 80 63 00
        E 60 90 61 60
        E 0 90 62 60
        E 0 90 63 60
        E 60 80 61 00
        E 0 80 62 00
        E 0 80 63 00
        E 60 90 49 60
        E 0 90 4b 60
        E 0 90 55 60
        E 0 90 57 60
        E 0 90 61 60
        E 0 90 62 60
        E 0 90 63 60
        E 60 80 49 00
        E 0 80 4b 00
        E 0 80 55 00
        E 0 80 57 00
        E 0 80 61 00
        E 0 80 62 00
        E 0 80 63 00
        E 180 90 49 60
        E 0 90 4b 60
        E 0 90 55 60
        E 0 90 57 60
        E 0 90 61 60
        E 0 90 62 60
        E 0 90 63 60
        E 60 80 49 00
        E 0 80 4b 00
        E 0 80 55 00
        E 0 80 57 00
        E 0 80 61 00
        E 0 80 62 00
        E 0 80 63 00
        E 180 90 55 60
        E 0 90 57 60
        E 0 90 61 60
        E 0 90 62 60
        E 0 90 63 60
        E 60 80 55 00
        E 0 80 57 00
        E 0 80 61 00
        E 0 80 62 00
        E 0 80 63 00
        E 180 90 3c 60
        E 0 90 48 60
        E 0 90 49 60
        E 0 90 54 60
        E 0 90 55 60
        E 0 90 60 60
        E 0 90 61 60
        E 60 80 3c 00
        E 0 80 48 00
        E 0 80 49 00
        E 0 80 54 00
        E 0 80 55 00
        E 0 80 60 00
        E 0 80 61 00
        E 180 90 48 60
        E 0 90 49 60
        E 0 90 54 60
        E 0 90 55 60
        E 0 90 60 60
        E 0 90 61 60
        E 60 80 48 00
        E 0 80 49 00
        E 0 80 54 00
        E 0 80 55 00
        E 0 80 60 00
        E 0 80 61 00
        E 180 90 3c 60
        E 0 90 48 60
        E 0 90 49 60
        E 0 90 54 60
        E 0 90 55 60
        E 0 90 60 60
        E 0 90 61 60
        E 60 80 3c 00
        E 0 80 48 00
        E 0 80 49 00
        E 0 80 54 00
        E 0 80 55 00
        E 0 80 60 00
        E 0 80 61 00
        E 180 90 48 60
        E 0 90 49 60
        E 0 90 54 60
        E 0 90 55 60
        E 0 90 60 60
        E 0 90 61 60
        E 60 80 48 00
        E 0 80 49 00
        E 0 80 54 00
        E 0 80 55 00
        E 0 80 60 00
        E 0 80 61 00
        E 180 90 3c 60
        E 0 90 48 60
        E 0 90 49 60
        E 0 90 54 60
        E 0 90 55 60
        E 0 90 60 60
        E 0 90 61 60
        E 0 90 62 60
        E 60 80 3c 00
        E 0 80 48 00
        E 0 80 49 00
        E 0 80 54 00
        E 0 80 55 00
        E 0 80 60 00
        E 0 80 61 00
        E 0 80 62 00
        E 60 90 60 60
        E 0 90 61 60
        E 0 90 62 60
        E 60 80 60 00
        E 0 80 61 00
        E 0 80 62 00
        E 60 90 48 60
        E 0 90 49 60
        E 0 90 54 60
        E 0 90 55 60
        E 0 90 60 60
        E 0 90 61 60
        E 0 90 62 60
        E 60 80 48 00
        E 0 80 49 00
        E 0 80 54 00
        E 0 80 55 00
        E 0 80 60 00
        E 0 80 61 00
        E 0 80 62 00
        E 180 90 48 60
        E 0 90 49 60
        E 0 90 54 60
        E 0 90 55 60
        E 0 90 60 60
        E 0 90 61 60
        E 0 90 62 60
        E 60 80 48 00
        E 0 80 49 00
        E 0 80 54 00
        E 0 80 55 00
        E 0 80 60 00
        E 0 80 61 00
        E 0 80 62 00
        E 180 90 54 60
        E 0 90 55 60
        E 0 90 60 60
        E 0 90 61 60
        E 0 90 62 60
        E 60 80 54 00
        E 0 80 55 00
        E 0 80 60 00
        E 0 80 61 00
        E 0 80 62 00
        E 180 90 3d 60
        E 0 90 49 60
        E 0 90 55 60
        E 0 90 61 60
        E 60 80 3d 00
        E 0 80 49 00
        E 0 80 55 00
        E 0 80 61 00
        E 180 90 56 60
        E 0 90 62 60
        E 60 80 56 00
        E 0 80 62 00
        E 180 90 4b 60
        E 0 90 58 60
        E 0 90 64 60
        E 60 80 4b 00
        E 0 80 58 00
        E 0 80 64 00
        E 180 90 56 60
        E 0 90 62 60
        E 60 80 56 00
        E 0 80 62 00
        E 180 90 3c 60
        E 0 90 48 60
        E 0 90 54 60
        E 0 90 60 60
        E 60 80 3c 00
        E 0 80 48 00
        E 0 80 54 00
        E 0 80 60 00
        E 180 90 56 60
        E 0 90 62 60
        E 60 80 56 00
        E 0 80 62 00
        E 180 90 4b 60
        E 0 90 57 60
        E 0 90 63 60
        E 60 80 4b 00
        E 0 80 57 00
        E 0 80 63 00
        E 180 90 56 60
        E 0 90 62 60
        E 60 80 56 00
        E 0 80 62 00
        E 180 90 3c 60
        E 0 90 48 60
        E 0 90 54 60
        E 0 90 60 60
        E 60 80 3c 00
        E 0 80 48 00
        E 0 80 54 00
        E 0 80 60 00
        E 180 90 55 60
        E 0 90 61 60
        E 60 80 55 00
        E 0 80 61 00
        E 180 90 4b 60
        E 0 90 58 60
        E 0 90 64 60
        E 60 80 4b 00
        E 0 80 58 00
        E 0 80 64 00
        E 180 90 55 60
        E 0 90 61 60
        E 60 80 55 00
        E 0 80 61 00
        E 180 90 3c 60
        E 0 90 48 60
        E 0 90 54 60
        E 0 90 60 60
        E 60 80 3c 00
        E 0 80 48 00
        E 0 80 54 00
        E 0 80 60 00
        E 180 90 56 60
        E 0 90 62 60
        E 60 80 56 00
        E 0 80 62 00
        E 180 90 4b 60
        E 0 90 57 60
        E 0 90 63 60
        E 60 80 4b 00
        E 0 80 57 00
        E 0 80 63 00
        E 180 90 56 60
        E 0 90 62 60
        E 60 80 56 00
        E 0 80 62 00
        E 180 90 3e 60
        E 0 90 49 60
        E 0 90 4a 60
        E 0 90 55 60
        E 0 90 56 60
        E 0 90 61 60
        E 0 90 62 60
        E 60 80 3e 00
        E 0 80 49 00
        E 0 80 4a 00
        E 0 80 55 00
        E 0 80 56 00
        E 0 80 61 00
        E 0 80 62 00
        E 180 90 49 60
        E 0 90 4a 60
        E 0 90 55 60
        E 0 90 56 60
        E 0 90 61 60
        E 0 90 62 60
        E 60 80 49 00
        E 0 80 4a 00
        E 0 80 55 00
        E 0 80 56 00
        E 0 80 61 00
        E 0 80 62 00
        E 180 90 49 60
        E 0 90 4a 60
        E 0 90 55 60
        E 0 90 56 60
        E 0 90 61 60
        E 0 90 62 60
        E 60 80 49 00
        E 0 80 4a 00
        E 0 80 55 00
        E 0 80 56 00
        E 0 80 61 00
        E 0 80 62 00
        E 180 90 55 60
        E 0 90 56 60
        E 0 90 61 60
        E 0 90 62 60
        E 60 80 55 00
        E 0 80 56 00
        E 0 80 61 00
        E 0 80 62 00
        E 180 90 3e 60
        E 0 90 49 60
        E 0 90 4b 60
        E 0 90 55 60
        E 0 90 57 60
        E 0 90 61 60
        E 0 90 62 60
        E 0 90 63 60
        E 60 80 3e 00
        E 0 80 49 00
        E 0 80 4b 00
        E 0 80 55 00
        E 0 80 57 00
        E 0 80 61 00
        E 0 80 62 00
        E 0 80 63 00
        E 60 90 61 60
        E 0 90 62 60
        E 0 90 63 60
        E 60 80 61 00
        E 0 80 62 00
        E 0 80 63 00
        E 60 90 49 60
        E 0 90 4b 60
        E 0 90 55 60
        E 0 90 57 60
        E 0 90 61 60
        E 0 90 62 60
        E 0 90 63 60
        E 60 80 49 00
        E 0 80 4b 00
        E 0 80 55 00
        E 0 80 57 00
        E 0 80 61 00
        E 0 80 62 00
        E 0 80 63 00
        E 180 90 49 60
        E 0 90 4b 60
        E 0 90 55 60
        E 0 90 57 60
        E 0 90 61 60
        E 0 90 62 60
        E 0 90 63 60
        E 60 80 49 00
        E 0 80 4b 00
        E 0 80 55 00
        E 0 80 57 00
        E 0 80 61 00
        E 0 80 62 00
        E 0 80 63 00
        E 180 90 55 60
        E 0 90 57 60
        E 0 90 61 60
        E 0 90 62 60
        E 0 90 63 60
        E 60 80 55 00
        E 0 80 57 00
        E 0 80 61 00
        E 0 80 62 00
        E 0 80 63 00
        E 180 90 3c 60
        E 0 90 48 60
        E 0 90 49 60
        E 0 90 54 60
        E 0 90 55 60
        E 0 90 60 60
        E 0 90 61 60
        E 60 80 3c 00
        E 0 80 48 00
        E 0 80 49 00
        E 0 80 54 00
        E 0 80 55 00
        E 0 80 60 00
        E 0 80 61 00
        E 180 90 48 60
        E 0 90 49 60
        E 0 90 54 60
        E 0 90 55 60
        E 0 90 60 60
        E 0 90 61 60
        E 60 80 48 00
        E 0 80 49 00
        E 0 80 54 00
        E 0 80 55 00
        E 0 80 60 00
        E 0 80 61 00
        E 180 90 3c 60
        E 0 90 48 60
        E 0 90 49 60
        E 0 90 54 60
        E 0 90 55 60
        E 0 90 60 60
        E 0 90 61 60
        E 60 80 3c 00
        E 0 80 48 00
        E 0 80 49 00
        E 0 80 54 00
        E 0 80 55 00
        E 0 80 60 00
        E 0 80 61 00
        E 180 90 48 60
        E 0 90 49 60
        E 0 90 54 60
        E 0 90 55 60
        E 0 90 60 60
        E 0 90 61 60
        E 60 80 48 00
        E 0 80 49 00
        E 0 80 54 00
        E 0 80 55 00
        E 0 80 60 00
        E 0 80 61 00
        E 180 90 3c 60
        E 0 90 48 60
        E 0 90 49 60
        E 0 90 54 60
        E 0 90 55 60
        E 0 90 60 60
        E 0 90 61 60
        E 0 90 62 60
        E 60 80 3c 00
        E 0 80 48 00
        E 0 80 49 00
        E 0 80 54 00
        E 0 80 55 00
        E 0 80 60 00
        E 0 80 61 00
        E 0 80 62 00
        E 60 90 60 60
        E 0 90 61 60
        E 0 90 62 60
        E 60 80 60 00
        E 0 80 61 00
        E 0 80 62 00
        E 60 90 48 60
        E 0 90 49 60
        E 0 90 54 60
        E 0 90 55 60
        E 0 90 60 60
        E 0 90 61 60
        E 0 90 62 60
        E 60 80 48 00
        E 0 80 49 00
        E 0 80 54 00
        E 0 80 55 00
        E 0 80 60 00
        E 0 80 61 00
        E 0 80 62 00
        E 180 90 48 60
        E 0 90 49 60
        E 0 90 54 60
        E 0 90 55 60
        E 0 90 60 60
        E 0 90 61 60
        E 0 90 62 60
        E 60 80 48 00
        E 0 80 49 00
        E 0 80 54 00
        E 0 80 55 00
        E 0 80 60 00
        E 0 80 61 00
        E 0 80 62 00
        E 180 90 54 60
        E 0 90 55 60
        E 0 90 60 60
        E 0 90 61 60
        E 0 90 62 60
        E 60 80 54 00
        E 0 80 55 00
        E 0 80 60 00
        E 0 80 61 00
        E 0 80 62 00
        E 180 90 3d 60
        E 0 90 49 60
        E 0 90 55 60
        E 0 90 61 60
        E 60 80 3d 00
        E 0 80 49 00
        E 0 80 55 00
        E 0 80 61 00
        E 180 90 56 60
        E 0 90 62 60
        E 60 80 56 00
        E 0 80 62 00
        E 180 90 4b 60
        E 0 90 58 60
        E 0 90 64 60
        E 60 80 4b 00
        E 0 80 58 00
        E 0 80 64 00
        E 180 90 56 60
        E 0 90 62 60
        E 60 80 56 00
        E 0 80 62 00
        E 180 90 3c 60
        E 0 90 48 60
        E 0 90 54 60
        E 0 90 60 60
        E 60 80 3c 00
        E 0 80 48 00
        E 0 80 54 00
        E 0 80 60 00
        E 180 90 56 60
        E 0 90 62 60
        E 60 80 56 00
        E 0 80 62 00
        E 180 90 4b 60
        E 0 90 57 60
        E 0 90 63 60
        E 60 80 4b 00
        E 0 80 57 00
        E 0 80 63 00
        E 180 90 56 60
        E 0 90 62 60
        E 60 80 56 00
        E 0 80 62 00
        E 180 90 3c 60
        E 0 90 48 60
        E 0 90 54 60
        E 0 90 60 60
        E 60 80 3c 00
        E 0 80 48 00
        E 0 80 54 00
        E 0 80 60 00
        E 180 90 55 60
        E 0 90 61 60
        E 60 80 55 00
        E 0 80 61 00
        E 179 90 4b 60
        E 0 90 58 60
        E 0 90 64 60
        E 60 80 4b 00
        E 0 80 58 00
        E 0 80 64 00
        E 181 90 55 60
        E 0 90 61 60
        E 60 80 55 00
        E 0 80 61 00
        E 180 90 3c 60
        E 0 90 48 60
        E 0 90 54 60
        E 0 90 60 60
        E 60 80 3c 00
        E 0 80 48 00
        E 0 80 54 00
        E 0 80 60 00
        E 180 90 56 60
        E 0 90 62 60
        E 60 80 56 00
        E 0 80 62 00
        E 180 90 4b 60
        E 0 90 57 60
        E 0 90 63 60
        E 60 80 4b 00
        E 0 80 57 00
        E 0 80 63 00
        E 180 90 56 60
        E 0 90 62 60
        E 60 80 56 00
        E 0 80 62 00
        E 180 90 3e 60
        E 0 90 49 60
        E 0 90 4a 60
        E 0 90 55 60
        E 0 90 56 60
        E 0 90 61 60
        E 0 90 62 60
        E 60 80 3e 00
        E 0 80 49 00
        E 0 80 4a 00
        E 0 80 55 00
        E 0 80 56 00
        E 0 80 61 00
        E 0 80 62 00
        E 180 90 49 60
        E 0 90 4a 60
        E 0 90 55 60
        E 0 90 56 60
        E 0 90 61 60
        E 0 90 62 60
        E 60 80 49 00
        E 0 80 4a 00
        E 0 80 55 00
        E 0 80 56 00
        E 0 80 61 00
        E 0 80 62 00
        E 180 90 49 60
        E 0 90 4a 60
        E 0 90 55 60
        E 0 90 56 60
        E 0 90 61 60
        E 0 90 62 60
        E 60 80 49 00
        E 0 80 4a 00
        E 0 80 55 00
        E 0 80 56 00
        E 0 80 61 00
        E 0 80 62 00
        E 180 90 55 60
        E 0 90 56 60
        E 0 90 61 60
        E 0 90 62 60
        E 60 80 55 00
        E 0 80 56 00
        E 0 80 61 00
        E 0 80 62 00
        E 180 90 3e 60
        E 0 90 49 60
        E 0 90 4b 60
        E 0 90 55 60
        E 0 90 57 60
        E 0 90 61 60
        E 0 90 62 60
        E 0 90 63 60
        E 60 80 3e 00
        E 0 80 49 00
        E 0 80 4b 00
        E 0 80 55 00
        E 0 80 57 00
        E 0 80 61 00
        E 0 80 62 00
        E 0 80 63 00
        E 60 90 61 60
        E 0 90 62 60
        E 0 90 63 60
        E 60 80 61 00
        E 0 80 62 00
        E 0 80 63 00
        E 60 90 49 60
        E 0 90 4b 60
        E 0 90 55 60
        E 0 90 57 60
        E 0 90 61 60
        E 0 90 62 60
        E 0 90 63 60
        E 60 80 49 00
        E 0 80 4b 00
        E 0 80 55 00
        E 0 80 57 00
        E 0 80 61 00
        E 0 80 62 00
        E 0 80 63 00
        E 180 90 49 60
        E 0 90 4b 60
        E 0 90 55 60
        E 0 90 57 60
        E 0 90 61 60
        E 0 90 62 60
        E 0 90 63 60
        E 60 80 49 00
        E 0 80 4b 00
        E 0 80 55 00
        E 0 80 57 00
        E 0 80 61 00
        E 0 80 62 00
        E 0 80 63 00
        E 180 90 55 60
        E 0 90 57 60
        E 0 90 61 60
        E 0 90 62 60
        E 0 90 63 60
        E 60 80 55 00
        E 0 80 57 00
        E 0 80 61 00
        E 0 80 62 00
        E 0 80 63 00
        E 180 90 3c 60
        E 0 90 48 60
        E 0 90 49 60
        E 0 90 54 60
        E 0 90 55 60
        E 0 90 60 60
        E 0 90 61 60
        E 60 80 3c 00
        E 0 80 48 00
        E 0 80 49 00
        E 0 80 54 00
        E 0 80 55 00
        E 0 80 60 00
        E 0 80 61 00
        E 180 90 48 60
        E 0 90 49 60
        E 0 90 54 60
        E 0 90 55 60
        E 0 90 60 60
        E 0 90 61 60
        E 60 80 48 00
        E 0 80 49 00
        E 0 80 54 00
        E 0 80 55 00
        E 0 80 60 00
        E 0 80 61 00
        E 180 90 3c 60
        E 0 90 48 60
        E 0 90 49 60
        E 0 90 54 60
        E 0 90 55 60
        E 0 90 60 60
        E 0 90 61 60
        E 60 80 3c 00
        E 0 80 48 00
        E 0 80 49 00
        E 0 80 54 00
        E 0 80 55 00
        E 0 80 60 00
        E 0 80 61 00
        E 180 90 48 60
        E 0 90 49 60
        E 0 90 54 60
        E 0 90 55 60
        E 0 90 60 60
        E 0 90 61 60
        E 60 80 48 00
        E 0 80 49 00
        E 0 80 54 00
        E 0 80 55 00
        E 0 80 60 00
        E 0 80 61 00
        E 180 90 3c 60
        E 0 90 48 60
        E 0 90 49 60
        E 0 90 54 60
        E 0 90 55 60
        E 0 90 60 60
        E 0 90 61 60
        E 0 90 62 60
        E 60 80 3c 00
        E 0 80 48 00
        E 0 80 49 00
        E 0 80 54 00
        E 0 80 55 00
        E 0 80 60 00
        E 0 80 61 00
        E 0 80 62 00
        E 60 90 60 60
        E 0 90 61 60
        E 0 90 62 60
        E 60 80 60 00
        E 0 80 61 00
        E 0 80 62 00
        E 60 90 48 60
        E 0 90 49 60
        E 0 90 54 60
        E 0 90 55 60
        E 0 90 60 60
        E 0 90 61 60
        E 0 90 62 60
        E 60 80 48 00
        E 0 80 49 00
        E 0 80 54 00
        E 0 80 55 00
        E 0 80 60 00
        E 0 80 61 00
        E 0 80 62 00
        E 180 90 48 60
        E 0 90 49 60
        E 0 90 54 60
        E 0 90 55 60
        E 0 90 60 60
        E 0 90 61 60
        E 0 90 62 60
        E 60 80 48 00
        E 0 80 49 00
        E 0 80 54 00
        E 0 80 55 00
        E 0 80 60 00
        E 0 80 61 00
        E 0 80 62 00
        <X 60 0
          /wFbaW50ZW5zZV0=
        >
        E 120 90 54 60
        E 0 90 55 60
        E 0 90 60 60
        E 0 90 61 60
        E 0 90 62 60
        E 60 80 54 00
        E 0 80 55 00
        E 0 80 60 00
        E 0 80 61 00
        E 0 80 62 00
        E 180 90 3e 60
        E 0 90 49 60
        E 0 90 4a 60
        E 0 90 55 60
        E 0 90 56 60
        E 0 90 61 60
        E 0 90 62 60
        E 60 80 3e 00
        E 0 80 49 00
        E 0 80 4a 00
        E 0 80 55 00
        E 0 80 56 00
        E 0 80 61 00
        E 0 80 62 00
        E 180 90 49 60
        E 0 90 4a 60
        E 0 90 55 60
        E 0 90 56 60
        E 0 90 61 60
        E 0 90 62 60
        E 60 80 49 00
        E 0 80 4a 00
        E 0 80 55 00
        E 0 80 56 00
        E 0 80 61 00
        E 0 80 62 00
        E 180 90 49 60
        E 0 90 4a 60
        E 0 90 55 60
        E 0 90 56 60
        E 0 90 61 60
        E 0 90 62 60
        E 60 80 49 00
        E 0 80 4a 00
        E 0 80 55 00
        E 0 80 56 00
        E 0 80 61 00
        E 0 80 62 00
        E 180 90 55 60
        E 0 90 56 60
        E 0 90 61 60
        E 0 90 62 60
        E 60 80 55 00
        E 0 80 56 00
        E 0 80 61 00
        E 0 80 62 00
        E 180 90 3e 60
        E 0 90 49 60
        E 0 90 4b 60
        E 0 90 55 60
        E 0 90 57 60
        E 0 90 61 60
        E 0 90 62 60
        E 0 90 63 60
        E 60 80 3e 00
        E 0 80 49 00
        E 0 80 4b 00
        E 0 80 55 00
        E 0 80 57 00
        E 0 80 61 00
        E 0 80 62 00
        E 0 80 63 00
        E 60 90 61 60
        E 0 90 62 60
        E 0 90 63 60
        E 60 80 61 00
        E 0 80 62 00
        E 0 80 63 00
        E 60 90 49 60
        E 0 90 4b 60
        E 0 90 55 60
        E 0 90 57 60
        E 0 90 61 60
        E 0 90 62 60
        E 0 90 63 60
        E 60 80 49 00
        E 0 80 4b 00
        E 0 80 55 00
        E 0 80 57 00
        E 0 80 61 00
        E 0 80 62 00
        E 0 80 63 00
        E 180 90 49 60
        E 0 90 4b 60
        E 0 90 55 60
        E 0 90 57 60
        E 0 90 61 60
        E 0 90 62 60
        E 0 90 63 60
        E 60 80 49 00
        E 0 80 4b 00
        E 0 80 55 00
        E 0 80 57 00
        E 0 80 61 00
        E 0 80 62 00
        E 0 80 63 00
        E 180 90 55 60
        E 0 90 57 60
        E 0 90 61 60
        E 0 90 62 60
        E 0 90 63 60
        E 60 80 55 00
        E 0 80 57 00
        E 0 80 61 00
        E 0 80 62 00
        E 0 80 63 00
        E 180 90 3c 60
        E 0 90 48 60
        E 0 90 49 60
        E 0 90 54 60
        E 0 90 55 60
        E 0 90 60 60
        E 0 90 61 60
        E 60 80 3c 00
        E 0 80 48 00
        E 0 80 49 00
        E 0 80 54 00
        E 0 80 55 00
        E 0 80 60 00
        E 0 80 61 00
        E 180 90 48 60
        E 0 90 49 60
        E 0 90 54 60
        E 0 90 55 60
        E 0 90 60 60
        E 0 90 61 60
        E 60 80 48 00
        E 0 80 49 00
        E 0 80 54 00
        E 0 80 55 00
        E 0 80 60 00
        E 0 80 61 00
        E 180 90 3c 60
        E 0 90 48 60
        E 0 90 49 60
        E 0 90 54 60
        E 0 90 55 60
        E 0 90 60 60
        E 0 90 61 60
        E 60 80 3c 00
        E 0 80 48 00
        E 0 80 49 00
        E 0 80 54 00
        E 0 80 55 00
        E 0 80 60 00
        E 0 80 61 00
        E 180 90 48 60
        E 0 90 49 60
        E 0 90 54 60
        E 0 90 55 60
        E 0 90 60 60
        E 0 90 61 60
        E 60 80 48 00
        E 0 80 49 00
        E 0 80 54 00
        E 0 80 55 00
        E 0 80 60 00
        E 0 80 61 00
        E 180 90 3c 60
        E 0 90 48 60
        E 0 90 49 60
        E 0 90 54 60
        E 0 90 55 60
        E 0 90 60 60
        E 0 90 61 60
        E 0 90 62 60
        E 60 80 3c 00
        E 0 80 48 00
        E 0 80 49 00
        E 0 80 54 00
        E 0 80 55 00
        E 0 80 60 00
        E 0 80 61 00
        E 0 80 62 00
        E 60 90 60 60
        E 0 90 61 60
        E 0 90 62 60
        E 60 80 60 00
        E 0 80 61 00
        E 0 80 62 00
        E 60 90 48 60
        E 0 90 49 60
        E 0 90 54 60
        E 0 90 55 60
        E 0 90 60 60
        E 0 90 61 60
        E 0 90 62 60
        E 60 80 48 00
        E 0 80 49 00
        E 0 80 54 00
        E 0 80 55 00
        E 0 80 60 00
        E 0 80 61 00
        E 0 80 62 00
        E 180 90 48 60
        E 0 90 49 60
        E 0 90 54 60
        E 0 90 55 60
        E 0 90 60 60
        E 0 90 61 60
        E 0 90 62 60
        E 60 80 48 00
        E 0 80 49 00
        E 0 80 54 00
        E 0 80 55 00
        E 0 80 60 00
        E 0 80 61 00
        E 0 80 62 00
        E 180 90 54 60
        E 0 90 55 60
        E 0 90 60 60
        E 0 90 61 60
        E 0 90 62 60
        E 60 80 54 00
        E 0 80 55 00
        E 0 80 60 00
        E 0 80 61 00
        E 0 80 62 00
        E 154 90 74 59
        E 26 90 3e 60
        E 0 90 49 60
        E 0 90 4a 60
        E 0 90 55 60
        E 0 90 56 60
        E 0 90 61 60
        E 0 90 62 60
        E 60 80 3e 00
        E 0 80 49 00
        E 0 80 4a 00
        E 0 80 55 00
        E 0 80 56 00
        E 0 80 61 00
        E 0 80 62 00
        E 180 90 49 60
        E 0 90 4a 60
        E 0 90 55 60
        E 0 90 56 60
        E 0 90 61 60
        E 0 90 62 60
        E 60 80 49 00
        E 0 80 4a 00
        E 0 80 55 00
        E 0 80 56 00
        E 0 80 61 00
        E 0 80 62 00
        E 180 90 49 60
        E 0 90 4a 60
        E 0 90 55 60
        E 0 90 56 60
        E 0 90 61 60
        E 0 90 62 60
        E 60 80 49 00
        E 0 80 4a 00
        E 0 80 55 00
        E 0 80 56 00
        E 0 80 61 00
        E 0 80 62 00
        E 180 90 55 60
        E 0 90 56 60
        E 0 90 61 60
        E 0 90 62 60
        E 60 80 55 00
        E 0 80 56 00
        E 0 80 61 00
        E 0 80 62 00
        E 180 90 3e 60
        E 0 90 49 60
        E 0 90 4b 60
        E 0 90 55 60
        E 0 90 57 60
        E 0 90 61 60
        E 0 90 62 60
        E 0 90 63 60
        E 60 80 3e 00
        E 0 80 49 00
        E 0 80 4b 00
        E 0 80 55 00
        E 0 80 57 00
        E 0 80 61 00
        E 0 80 62 00
        E 0 80 63 00
        E 60 90 61 60
        E 0 90 62 60
        E 0 90 63 60
        E 60 80 61 00
        E 0 80 62 00
        E 0 80 63 00
        E 60 90 49 60
        E 0 90 4b 60
        E 0 90 55 60
        E 0 90 57 60
        E 0 90 61 60
        E 0 90 62 60
        E 0 90 63 60
        E 60 80 49 00
        E 0 80 4b 00
        E 0 80 55 00
        E 0 80 57 00
        E 0 80 61 00
        E 0 80 62 00
        E 0 80 63 00
        E 180 90 49 60
        E 0 90 4b 60
        E 0 90 55 60
        E 0 90 57 60
        E 0 90 61 60
        E 0 90 62 60
        E 0 90 63 60
        E 60 80 49 00
        E 0 80 4b 00
        E 0 80 55 00
        E 0 80 57 00
        E 0 80 61 00
        E 0 80 62 00
        E 0 80 63 00
        E 180 90 55 60
        E 0 90 57 60
        E 0 90 61 60
        E 0 90 62 60
        E 0 90 63 60
        E 60 80 55 00
        E 0 80 57 00
        E 0 80 61 00
        E 0 80 62 00
        E 0 80 63 00
        E 180 90 3c 60
        E 0 90 48 60
        E 0 90 49 60
        E 0 90 54 60
        E 0 90 55 60
        E 0 90 60 60
        E 0 90 61 60
        E 60 80 3c 00
        E 0 80 48 00
        E 0 80 49 00
        E 0 80 54 00
        E 0 80 55 00
        E 0 80 60 00
        E 0 80 61 00
        E 180 90 48 60
        E 0 90 49 60
        E 0 90 54 60
        E 0 90 55 60
        E 0 90 60 60
        E 0 90 61 60
        E 60 80 48 00
        E 0 80 49 00
        E 0 80 54 00
        E 0 80 55 00
        E 0 80 60 00
        E 0 80 61 00
        E 180 90 3c 60
        E 0 90 48 60
        E 0 90 49 60
        E 0 90 54 60
        E 0 90 55 60
        E 0 90 60 60
        E 0 90 61 60
        E 60 80 3c 00
        E 0 80 48 00
        E 0 80 49 00
        E 0 80 54 00
        E 0 80 55 00
        E 0 80 60 00
        E 0 80 61 00
        E 180 90 48 60
        E 0 90 49 60
        E 0 90 54 60
        E 0 90 55 60
        E 0 90 60 60
        E 0 90 61 60
        E 60 80 48 00
        E 0 80 49 00
        E 0 80 54 00
        E 0 80 55 00
        E 0 80 60 00
        E 0 80 61 00
        E 180 90 3c 60
        E 0 90 48 60
        E 0 90 49 60
        E 0 90 54 60
        E 0 90 55 60
        E 0 90 60 60
        E 0 90 61 60
        E 0 90 62 60
        E 60 80 3c 00
        E 0 80 48 00
        E 0 80 49 00
        E 0 80 54 00
        E 0 80 55 00
        E 0 80 60 00
        E 0 80 61 00
        E 0 80 62 00
        E 60 90 60 60
        E 0 90 61 60
        E 0 90 62 60
        E 60 80 60 00
        E 0 80 61 00
        E 0 80 62 00
        E 60 90 48 60
        E 0 90 49 60
        E 0 90 54 60
        E 0 90 55 60
        E 0 90 60 60
        E 0 90 61 60
        E 0 90 62 60
        E 60 80 48 00
        E 0 80 49 00
        E 0 80 54 00
        E 0 80 55 00
        E 0 80 60 00
        E 0 80 61 00
        E 0 80 62 00
        E 180 90 48 60
        E 0 90 49 60
        E 0 90 54 60
        E 0 90 55 60
        E 0 90 60 60
        E 0 90 61 60
        E 0 90 62 60
        E 60 80 48 00
        E 0 80 49 00
        E 0 80 54 00
        E 0 80 55 00
        E 0 80 60 00
        E 0 80 61 00
        E 0 80 62 00
        E 180 90 54 60
        E 0 90 55 60
        E 0 90 60 60
        E 0 90 61 60
        E 0 90 62 60
        E 60 80 54 00
        E 0 80 55 00
        E 0 80 60 00
        E 0 80 61 00
        E 0 80 62 00
        E 42 80 74 00
        E 138 90 3e 60
        E 0 90 49 60
        E 0 90 4a 60
        E 0 90 55 60
        E 0 90 56 60
        E 0 90 61 60
        E 0 90 62 60
        E 60 80 3e 00
        E 0 80 49 00
        E 0 80 4a 00
        E 0 80 55 00
        E 0 80 56 00
        E 0 80 61 00
        E 0 80 62 00
        E 180 90 49 60
        E 0 90 4a 60
        E 0 90 55 60
        E 0 90 56 60
        E 0 90 61 60
        E 0 90 62 60
        E 60 80 49 00
        E 0 80 4a 00
        E 0 80 55 00
        E 0 80 56 00
        E 0 80 61 00
        E 0 80 62 00
        E 180 90 49 60
        E 0 90 4a 60
        E 0 90 55 60
        E 0 90 56 60
        E 0 90 61 60
        E 0 90 62 60
        E 60 80 49 00
        E 0 80 4a 00
        E 0 80 55 00
        E 0 80 56 00
        E 0 80 61 00
        E 0 80 62 00
        E 180 90 55 60
        E 0 90 56 60
        E 0 90 61 60
        E 0 90 62 60
        E 60 80 55 00
        E 0 80 56 00
        E 0 80 61 00
        E 0 80 62 00
        E 180 90 3e 60
        E 0 90 49 60
        E 0 90 4b 60
        E 0 90 55 60
        E 0 90 57 60
        E 0 90 61 60
        E 0 90 62 60
        E 0 90 63 60
        E 60 80 3e 00
        E 0 80 49 00
        E 0 80 4b 00
        E 0 80 55 00
        E 0 80 57 00
        E 0 80 61 00
        E 0 80 62 00
        E 0 80 63 00
        E 60 90 61 60
        E 0 90 62 60
        E 0 90 63 60
        E 60 80 61 00
        E 0 80 62 00
        E 0 80 63 00
        E 60 90 49 60
        E 0 90 4b 60
        E 0 90 55 60
        E 0 90 57 60
        E 0 90 61 60
        E 0 90 62 60
        E 0 90 63 60
        E 60 80 49 00
        E 0 80 4b 00
        E 0 80 55 00
        E 0 80 57 00
        E 0 80 61 00
        E 0 80 62 00
        E 0 80 63 00
        E 180 90 49 60
        E 0 90 4b 60
        E 0 90 55 60
        E 0 90 57 60
        E 0 90 61 60
        E 0 90 62 60
        E 0 90 63 60
        E 60 80 49 00
        E 0 80 4b 00
        E 0 80 55 00
        E 0 80 57 00
        E 0 80 61 00
        E 0 80 62 00
        E 0 80 63 00
        E 180 90 55 60
        E 0 90 57 60
        E 0 90 61 60
        E 0 90 62 60
        E 0 90 63 60
        E 60 80 55 00
        E 0 80 57 00
        E 0 80 61 00
        E 0 80 62 00
        E 0 80 63 00
        E 180 90 3c 60
        E 0 90 48 60
        E 0 90 49 60
        E 0 90 54 60
        E 0 90 55 60
        E 0 90 60 60
        E 0 90 61 60
        E 60 80 3c 00
        E 0 80 48 00
        E 0 80 49 00
        E 0 80 54 00
        E 0 80 55 00
        E 0 80 60 00
        E 0 80 61 00
        E 180 90 48 60
        E 0 90 49 60
        E 0 90 54 60
        E 0 90 55 60
        E 0 90 60 60
        E 0 90 61 60
        E 60 80 48 00
        E 0 80 49 00
        E 0 80 54 00
        E 0 80 55 00
        E 0 80 60 00
        E 0 80 61 00
        E 180 90 3c 60
        E 0 90 48 60
        E 0 90 49 60
        E 0 90 54 60
        E 0 90 55 60
        E 0 90 60 60
        E 0 90 61 60
        E 60 80 3c 00
        E 0 80 48 00
        E 0 80 49 00
        E 0 80 54 00
        E 0 80 55 00
        E 0 80 60 00
        E 0 80 61 00
        E 180 90 48 60
        E 0 90 49 60
        E 0 90 54 60
        E 0 90 55 60
        E 0 90 60 60
        E 0 90 61 60
        E 60 80 48 00
        E 0 80 49 00
        E 0 80 54 00
        E 0 80 55 00
        E 0 80 60 00
        E 0 80 61 00
        E 180 90 3c 60
        E 0 90 48 60
        E 0 90 49 60
        E 0 90 54 60
        E 0 90 55 60
        E 0 90 60 60
        E 0 90 61 60
        E 0 90 62 60
        E 60 80 3c 00
        E 0 80 48 00
        E 0 80 49 00
        E 0 80 54 00
        E 0 80 55 00
        E 0 80 60 00
        E 0 80 61 00
        E 0 80 62 00
        E 60 90 60 60
        E 0 90 61 60
        E 0 90 62 60
        E 60 80 60 00
        E 0 80 61 00
        E 0 80 62 00
        E 60 90 48 60
        E 0 90 49 60
        E 0 90 54 60
        E 0 90 55 60
        E 0 90 60 60
        E 0 90 61 60
        E 0 90 62 60
        E 60 80 48 00
        E 0 80 49 00
        E 0 80 54 00
        E 0 80 55 00
        E 0 80 60 00
        E 0 80 61 00
        E 0 80 62 00
        E 180 90 48 60
        E 0 90 49 60
        E 0 90 54 60
        E 0 90 55 60
        E 0 90 60 60
        E 0 90 61 60
        E 0 90 62 60
        E 60 80 48 00
        E 0 80 49 00
        E 0 80 54 00
        E 0 80 55 00
        E 0 80 60 00
        E 0 80 61 00
        E 0 80 62 00
        E 180 90 54 60
        E 0 90 55 60
        E 0 90 60 60
        E 0 90 61 60
        E 0 90 62 60
        E 60 80 54 00
        E 0 80 55 00
        E 0 80 60 00
        E 0 80 61 00
        E 0 80 62 00
        E 180 90 3e 60
        E 0 90 49 60
        E 0 90 4a 60
        E 0 90 55 60
        E 0 90 56 60
        E 0 90 61 60
        E 0 90 62 60
        E 60 80 3e 00
        E 0 80 49 00
        E 0 80 4a 00
        E 0 80 55 00
        E 0 80 56 00
        E 0 80 61 00
        E 0 80 62 00
        E 180 90 49 60
        E 0 90 4a 60
        E 0 90 55 60
        E 0 90 56 60
        E 0 90 61 60
        E 0 90 62 60
        E 60 80 49 00
        E 0 80 4a 00
        E 0 80 55 00
        E 0 80 56 00
        E 0 80 61 00
        E 0 80 62 00
        E 180 90 49 60
        E 0 90 4a 60
        E 0 90 55 60
        E 0 90 56 60
        E 0 90 61 60
        E 0 90 62 60
        E 60 80 49 00
        E 0 80 4a 00
        E 0 80 55 00
        E 0 80 56 00
        E 0 80 61 00
        E 0 80 62 00
        E 180 90 55 60
        E 0 90 56 60
        E 0 90 61 60
        E 0 90 62 60
        E 60 80 55 00
        E 0 80 56 00
        E 0 80 61 00
        E 0 80 62 00
        E 180 90 3e 60
        E 0 90 49 60
        E 0 90 4b 60
        E 0 90 55 60
        E 0 90 57 60
        E 0 90 61 60
        E 0 90 62 60
        E 0 90 63 60
        E 60 80 3e 00
        E 0 80 49 00
        E 0 80 4b 00
        E 0 80 55 00
        E 0 80 57 00
        E 0 80 61 00
        E 0 80 62 00
        E 0 80 63 00
        E 60 90 61 60
        E 0 90 62 60
        E 0 90 63 60
        E 60 80 61 00
        E 0 80 62 00
        E 0 80 63 00
        E 60 90 49 60
        E 0 90 4b 60
        E 0 90 55 60
        E 0 90 57 60
        E 0 90 61 60
        E 0 90 62 60
        E 0 90 63 60
        E 60 80 49 00
        E 0 80 4b 00
        E 0 80 55 00
        E 0 80 57 00
        E 0 80 61 00
        E 0 80 62 00
        E 0 80 63 00
        E 180 90 49 60
        E 0 90 4b 60
        E 0 90 55 60
        E 0 90 57 60
        E 0 90 61 60
        E 0 90 62 60
        E 0 90 63 60
        E 60 80 49 00
        E 0 80 4b 00
        E 0 80 55 00
        E 0 80 57 00
        E 0 80 61 00
        E 0 80 62 00
        E 0 80 63 00
        E 180 90 55 60
        E 0 90 57 60
        E 0 90 61 60
        E 0 90 62 60
        E 0 90 63 60
        E 60 80 55 00
        E 0 80 57 00
        E 0 80 61 00
        E 0 80 62 00
        E 0 80 63 00
        E 180 90 3c 60
        E 0 90 48 60
        E 0 90 49 60
        E 0 90 54 60
        E 0 90 55 60
        E 0 90 60 60
        E 0 90 61 60
        E 0 90 74 60
        <X 1440 0
          /wFbcGxheV0=
        >
        E 0 80 3c 00
        E 0 80 48 00
        E 0 80 49 00
        E 0 80 54 00
        E 0 80 55 00
        E 0 80 60 00
        E 0 80 61 00
        E 480 90 3d 60
        E 0 90 49 60
        E 0 90 55 60
        E 0 90 61 60
        E 60 80 3d 00
        E 0 80 49 00
        E 0 80 55 00
        E 0 80 61 00
        E 180 90 56 60
        E 0 90 62 60
        E 60 80 56 00
        E 0 80 62 00
        E 180 90 4b 60
        E 0 90 57 60
        E 0 90 63 60
        E 60 80 74 00
        E 0 80 4b 00
        E 0 80 57 00
        E 0 80 63 00
        E 180 90 56 60
        E 0 90 62 60
        E 60 80 56 00
        E 0 80 62 00
        E 180 90 3c 60
        E 0 90 48 60
        E 0 90 54 60
        E 0 90 60 60
        E 60 80 3c 00
        E 0 80 48 00
        E 0 80 54 00
        E 0 80 60 00
        E 180 90 56 60
        E 0 90 62 60
        E 60 80 56 00
        E 0 80 62 00
        E 180 90 4b 60
        E 0 90 58 60
        E 0 90 64 60
        E 60 80 4b 00
        E 0 80 58 00
        E 0 80 64 00
        E 180 90 56 60
        E 0 90 62 60
        E 60 80 56 00
        E 0 80 62 00
        E 180 90 3c 60
        E 0 90 48 60
        E 0 90 54 60
        E 0 90 60 60
        E 60 80 3c 00
        E 0 80 48 00
        E 0 80 54 00
        E 0 80 60 00
        E 180 90 55 60
        E 0 90 61 60
        E 60 80 55 00
        E 0 80 61 00
        E 180 90 4a 60
        E 0 90 56 60
        E 0 90 62 60
        E 60 80 4a 00
        E 0 80 56 00
        E 0 80 62 00
        E 180 90 55 60
        E 0 90 61 60
        E 60 80 55 00
        E 0 80 61 00
        E 180 90 3c 60
        E 0 90 48 60
        E 0 90 54 60
        E 0 90 60 60
        E 60 80 3c 00
        E 0 80 48 00
        E 0 80 54 00
        E 0 80 60 00
        E 180 90 56 60
        E 0 90 62 60
        E 60 80 56 00
        E 0 80 62 00
        E 180 90 4b 60
        E 0 90 57 60
        E 0 90 63 60
        E 60 80 4b 00
        E 0 80 57 00
        E 0 80 63 00
        E 180 90 56 60
        E 0 90 62 60
        E 60 80 56 00
        E 0 80 62 00
        E 180 90 3e 60
        E 0 90 49 60
        E 0 90 4a 60
        E 0 90 55 60
        E 0 90 56 60
        E 0 90 61 60
        E 0 90 62 60
        E 60 80 3e 00
        E 0 80 49 00
        E 0 80 4a 00
        E 0 80 55 00
        E 0 80 56 00
        E 0 80 61 00
        E 0 80 62 00
        E 180 90 49 60
        E 0 90 4a 60
        E 0 90 55 60
        E 0 90 56 60
        E 0 90 61 60
        E 0 90 62 60
        E 60 80 49 00
        E 0 80 4a 00
        E 0 80 55 00
        E 0 80 56 00
        E 0 80 61 00
        E 0 80 62 00
        E 180 90 49 60
        E 0 90 4a 60
        E 0 90 55 60
        E 0 90 56 60
        E 0 90 61 60
        E 0 90 62 60
        E 60 80 49 00
        E 0 80 4a 00
        E 0 80 55 00
        E 0 80 56 00
        E 0 80 61 00
        E 0 80 62 00
        E 180 90 55 60
        E 0 90 56 60
        E 0 90 61 60
        E 0 90 62 60
        E 60 80 55 00
        E 0 80 56 00
        E 0 80 61 00
        E 0 80 62 00
        E 180 90 3e 60
        E 0 90 49 60
        E 0 90 4b 60
        E 0 90 55 60
        E 0 90 57 60
        E 0 90 61 60
        E 0 90 62 60
        E 0 90 63 60
        E 60 80 3e 00
        E 0 80 49 00
        E 0 80 4b 00
        E 0 80 55 00
        E 0 80 57 00
        E 0 80 61 00
        E 0 80 62 00
        E 0 80 63 00
        E 60 90 61 60
        E 0 90 62 60
        E 0 90 63 60
        E 60 80 61 00
        E 0 80 62 00
        E 0 80 63 00
        E 60 90 49 60
        E 0 90 4b 60
        E 0 90 55 60
        E 0 90 57 60
        E 0 90 61 60
        E 0 90 62 60
        E 0 90 63 60
        E 60 80 49 00
        E 0 80 4b 00
        E 0 80 55 00
        E 0 80 57 00
        E 0 80 61 00
        E 0 80 62 00
        E 0 80 63 00
        E 180 90 49 60
        E 0 90 4b 60
        E 0 90 55 60
        E 0 90 57 60
        E 0 90 61 60
        E 0 90 62 60
        E 0 90 63 60
        E 60 80 49 00
        E 0 80 4b 00
        E 0 80 55 00
        E 0 80 57 00
        E 0 80 61 00
        E 0 80 62 00
        E 0 80 63 00
        E 180 90 55 60
        E 0 90 57 60
        E 0 90 61 60
        E 0 90 62 60
        E 0 90 63 60
        E 60 80 55 00
        E 0 80 57 00
        E 0 80 61 00
        E 0 80 62 00
        E 0 80 63 00
        E 180 90 3c 60
        E 0 90 48 60
        E 0 90 49 60
        E 0 90 54 60
        E 0 90 55 60
        E 0 90 60 60
        E 0 90 61 60
        E 60 80 3c 00
        E 0 80 48 00
        E 0 80 49 00
        E 0 80 54 00
        E 0 80 55 00
        E 0 80 60 00
        E 0 80 61 00
        E 180 90 48 60
        E 0 90 49 60
        E 0 90 54 60
        E 0 90 55 60
        E 0 90 60 60
        E 0 90 61 60
        E 60 80 48 00
        E 0 80 49 00
        E 0 80 54 00
        E 0 80 55 00
        E 0 80 60 00
        E 0 80 61 00
        E 180 90 3c 60
        E 0 90 48 60
        E 0 90 49 60
        E 0 90 54 60
        E 0 90 55 60
        E 0 90 60 60
        E 0 90 61 60
        E 60 80 3c 00
        E 0 80 48 00
        E 0 80 49 00
        E 0 80 54 00
        E 0 80 55 00
        E 0 80 60 00
        E 0 80 61 00
        E 180 90 48 60
        E 0 90 49 60
        E 0 90 54 60
        E 0 90 55 60
        E 0 90 60 60
        E 0 90 61 60
        E 60 80 48 00
        E 0 80 49 00
        E 0 80 54 00
        E 0 80 55 00
        E 0 80 60 00
        E 0 80 61 00
        E 180 90 3c 60
        E 0 90 48 60
        E 0 90 49 60
        E 0 90 54 60
        E 0 90 55 60
        E 0 90 60 60
        E 0 90 61 60
        E 0 90 62 60
        E 60 80 3c 00
        E 0 80 48 00
        E 0 80 49 00
        E 0 80 54 00
        E 0 80 55 00
        E 0 80 60 00
        E 0 80 61 00
        E 0 80 62 00
        E 60 90 60 60
        E 0 90 61 60
        E 0 90 62 60
        E 60 80 60 00
        E 0 80 61 00
        E 0 80 62 00
        E 60 90 48 60
        E 0 90 49 60
        E 0 90 54 60
        E 0 90 55 60
        E 0 90 60 60
        E 0 90 61 60
        E 0 90 62 60
        E 60 80 48 00
        E 0 80 49 00
        E 0 80 54 00
        E 0 80 55 00
        E 0 80 60 00
        E 0 80 61 00
        E 0 80 62 00
        E 180 90 48 60
        E 0 90 49 60
        E 0 90 54 60
        E 0 90 55 60
        E 0 90 60 60
        E 0 90 61 60
        E 0 90 62 60
        E 60 80 48 00
        E 0 80 49 00
        E 0 80 54 00
        E 0 80 55 00
        E 0 80 60 00
        E 0 80 61 00
        E 0 80 62 00
        E 180 90 54 60
        E 0 90 55 60
        E 0 90 60 60
        E 0 90 61 60
        E 0 90 62 60
        E 60 80 54 00
        E 0 80 55 00
        E 0 80 60 00
        E 0 80 61 00
        E 0 80 62 00
        E 180 90 3d 60
        E 0 90 49 60
        E 0 90 55 60
        E 0 90 61 60
        E 60 80 3d 00
        E 0 80 49 00
        E 0 80 55 00
        E 0 80 61 00
        E 180 90 56 60
        E 0 90 62 60
        E 60 80 56 00
        E 0 80 62 00
        E 180 90 4b 60
        E 0 90 57 60
        E 0 90 63 60
        E 60 80 4b 00
        E 0 80 57 00
        E 0 80 63 00
        E 180 90 56 60
        E 0 90 62 60
        E 60 80 56 00
        E 0 80 62 00
        E 180 90 3c 60
        E 0 90 48 60
        E 0 90 54 60
        E 0 90 60 60
        E 60 80 3c 00
        E 0 80 48 00
        E 0 80 54 00
        E 0 80 60 00
        E 180 90 56 60
        E 0 90 62 60
        E 60 80 56 00
        E 0 80 62 00
        E 180 90 4b 60
        E 0 90 58 60
        E 0 90 64 60
        E 60 80 4b 00
        E 0 80 58 00
        E 0 80 64 00
        E 180 90 56 60
        E 0 90 62 60
        E 60 80 56 00
        E 0 80 62 00
        E 180 90 3c 60
        E 0 90 48 60
        E 0 90 54 60
        E 0 90 60 60
        E 60 80 3c 00
        E 0 80 48 00
        E 0 80 54 00
        E 0 80 60 00
        E 180 90 55 60
        E 0 90 61 60
        E 60 80 55 00
        E 0 80 61 00
        E 180 90 4a 60
        E 0 90 56 60
        E 0 90 62 60
        E 60 80 4a 00
        E 0 80 56 00
        E 0 80 62 00
        E 180 90 55 60
        E 0 90 61 60
        E 60 80 55 00
        E 0 80 61 00
        E 180 90 3c 60
        E 0 90 48 60
        E 0 90 54 60
        E 0 90 60 60
        E 60 80 3c 00
        E 0 80 48 00
        E 0 80 54 00
        E 0 80 60 00
        E 180 90 56 60
        E 0 90 62 60
        E 60 80 56 00
        E 0 80 62 00
        E 180 90 4b 60
        E 0 90 57 60
        E 0 90 63 60
        E 60 80 4b 00
        E 0 80 57 00
        E 0 80 63 00
        E 180 90 56 60
        E 0 90 62 60
        E 60 80 56 00
        E 0 80 62 00
        E 180 90 3e 60
        E 0 90 49 60
        E 0 90 4a 60
        E 0 90 55 60
        E 0 90 56 60
        E 0 90 61 60
        E 0 90 62 60
        E 60 80 3e 00
        E 0 80 49 00
        E 0 80 4a 00
        E 0 80 55 00
        E 0 80 56 00
        E 0 80 61 00
        E 0 80 62 00
        E 180 90 49 60
        E 0 90 4a 60
        E 0 90 55 60
        E 0 90 56 60
        E 0 90 61 60
        E 0 90 62 60
        E 60 80 49 00
        E 0 80 4a 00
        E 0 80 55 00
        E 0 80 56 00
        E 0 80 61 00
        E 0 80 62 00
        E 180 90 49 60
        E 0 90 4a 60
        E 0 90 55 60
        E 0 90 56 60
        E 0 90 61 60
        E 0 90 62 60
        E 60 80 49 00
        E 0 80 4a 00
        E 0 80 55 00
        E 0 80 56 00
        E 0 80 61 00
        E 0 80 62 00
        E 180 90 55 60
        E 0 90 56 60
        E 0 90 61 60
        E 0 90 62 60
        E 60 80 55 00
        E 0 80 56 00
        E 0 80 61 00
        E 0 80 62 00
        E 180 90 3e 60
        E 0 90 49 60
        E 0 90 4b 60
        E 0 90 55 60
        E 0 90 57 60
        E 0 90 61 60
        E 0 90 62 60
        E 0 90 63 60
        E 60 80 3e 00
        E 0 80 49 00
        E 0 80 4b 00
        E 0 80 55 00
        E 0 80 57 00
        E 0 80 61 00
        E 0 80 62 00
        E 0 80 63 00
        E 60 90 61 60
        E 0 90 62 60
        E 0 90 63 60
        E 60 80 61 00
        E 0 80 62 00
        E 0 80 63 00
        E 60 90 49 60
        E 0 90 4b 60
        E 0 90 55 60
        E 0 90 57 60
        E 0 90 61 60
        E 0 90 62 60
        E 0 90 63 60
        E 60 80 49 00
        E 0 80 4b 00
        E 0 80 55 00
        E 0 80 57 00
        E 0 80 61 00
        E 0 80 62 00
        E 0 80 63 00
        E 180 90 49 60
        E 0 90 4b 60
        E 0 90 55 60
        E 0 90 57 60
        E 0 90 61 60
        E 0 90 62 60
        E 0 90 63 60
        E 60 80 49 00
        E 0 80 4b 00
        E 0 80 55 00
        E 0 80 57 00
        E 0 80 61 00
        E 0 80 62 00
        E 0 80 63 00
        E 180 90 55 60
        E 0 90 57 60
        E 0 90 61 60
        E 0 90 62 60
        E 0 90 63 60
        E 60 80 55 00
        E 0 80 57 00
        E 0 80 61 00
        E 0 80 62 00
        E 0 80 63 00
        E 180 90 3c 60
        E 0 90 48 60
        E 0 90 49 60
        E 0 90 54 60
        E 0 90 55 60
        E 0 90 60 60
        E 0 90 61 60
        E 60 80 3c 00
        E 0 80 48 00
        E 0 80 49 00
        E 0 80 54 00
        E 0 80 55 00
        E 0 80 60 00
        E 0 80 61 00
        E 180 90 48 60
        E 0 90 49 60
        E 0 90 54 60
        E 0 90 55 60
        E 0 90 60 60
        E 0 90 61 60
        E 60 80 48 00
        E 0 80 49 00
        E 0 80 54 00
        E 0 80 55 00
        E 0 80 60 00
        E 0 80 61 00
        E 180 90 3c 60
        E 0 90 48 60
        E 0 90 49 60
        E 0 90 54 60
        E 0 90 55 60
        E 0 90 60 60
        E 0 90 61 60
        E 60 80 3c 00
        E 0 80 48 00
        E 0 80 49 00
        E 0 80 54 00
        E 0 80 55 00
        E 0 80 60 00
        E 0 80 61 00
        E 180 90 48 60
        E 0 90 49 60
        E 0 90 54 60
        E 0 90 55 60
        E 0 90 60 60
        E 0 90 61 60
        E 60 80 48 00
        E 0 80 49 00
        E 0 80 54 00
        E 0 80 55 00
        E 0 80 60 00
        E 0 80 61 00
        E 180 90 3c 60
        E 0 90 48 60
        E 0 90 49 60
        E 0 90 54 60
        E 0 90 55 60
        E 0 90 60 60
        E 0 90 61 60
        E 0 90 62 60
        E 60 80 3c 00
        E 0 80 48 00
        E 0 80 49 00
        E 0 80 54 00
        E 0 80 55 00
        E 0 80 60 00
        E 0 80 61 00
        E 0 80 62 00
        E 60 90 60 60
        E 0 90 61 60
        E 0 90 62 60
        E 60 80 60 00
        E 0 80 61 00
        E 0 80 62 00
        E 60 90 48 60
        E 0 90 49 60
        E 0 90 54 60
        E 0 90 55 60
        E 0 90 60 60
        E 0 90 61 60
        E 0 90 62 60
        E 60 80 48 00
        E 0 80 49 00
        E 0 80 54 00
        E 0 80 55 00
        E 0 80 60 00
        E 0 80 61 00
        E 0 80 62 00
        E 180 90 48 60
        E 0 90 49 60
        E 0 90 54 60
        E 0 90 55 60
        E 0 90 60 60
        E 0 90 61 60
        E 0 90 62 60
        E 60 80 48 00
        E 0 80 49 00
        E 0 80 54 00
        E 0 80 55 00
        E 0 80 60 00
        E 0 80 61 00
        E 0 80 62 00
        E 180 90 54 60
        E 0 90 55 60
        E 0 90 60 60
        E 0 90 61 60
        E 0 90 62 60
        E 60 80 54 00
        E 0 80 55 00
        E 0 80 60 00
        E 0 80 61 00
        E 0 80 62 00
        E 180 90 3d 60
        E 0 90 49 60
        E 0 90 55 60
        E 0 90 61 60
        E 60 80 3d 00
        E 0 80 49 00
        E 0 80 55 00
        E 0 80 61 00
        E 180 90 56 60
        E 0 90 62 60
        E 60 80 56 00
        E 0 80 62 00
        E 180 90 4b 60
        E 0 90 58 60
        E 0 90 64 60
        E 60 80 4b 00
        E 0 80 58 00
        E 0 80 64 00
        E 180 90 56 60
        E 0 90 62 60
        E 60 80 56 00
        E 0 80 62 00
        E 180 90 74 60
        E 0 90 3c 60
        E 0 90 48 60
        E 0 90 54 60
        E 0 90 60 60
        E 60 80 3c 00
        E 0 80 48 00
        E 0 80 54 00
        E 0 80 60 00
        E 180 90 56 60
        E 0 90 62 60
        E 60 80 56 00
        E 0 80 62 00
        E 180 90 4b 60
        E 0 90 57 60
        E 0 90 63 60
        E 60 80 4b 00
        E 0 80 57 00
        E 0 80 63 00
        E 180 90 56 60
        E 0 90 62 60
        E 60 80 56 00
        E 0 80 62 00
        E 180 90 3c 60
        E 0 90 48 60
        E 0 90 54 60
        E 0 90 60 60
        E 60 80 3c 00
        E 0 80 48 00
        E 0 80 54 00
        E 0 80 60 00
        E 180 90 55 60
        E 0 90 61 60
        E 60 80 55 00
        E 0 80 61 00
        E 179 90 4b 60
        E 0 90 58 60
        E 0 90 64 60
        E 60 80 4b 00
        E 0 80 58 00
        E 0 80 64 00
        E 61 80 74 00
        E 120 90 55 60
        E 0 90 61 60
        E 60 80 55 00
        E 0 80 61 00
        E 180 90 3c 60
        E 0 90 48 60
        E 0 90 54 60
        E 0 90 60 60
        E 60 80 3c 00
        E 0 80 48 00
        E 0 80 54 00
        E 0 80 60 00
        E 180 90 56 60
        E 0 90 62 60
        E 60 80 56 00
        E 0 80 62 00
        E 180 90 4b 60
        E 0 90 57 60
        E 0 90 63 60
        E 60 80 4b 00
        E 0 80 57 00
        E 0 80 63 00
        E 180 90 56 60
        E 0 90 62 60
        E 60 80 56 00
        E 0 80 62 00
        E 180 90 3e 60
        E 0 90 49 60
        E 0 90 4a 60
        E 0 90 55 60
        E 0 90 56 60
        E 0 90 61 60
        E 0 90 62 60
        E 60 80 3e 00
        E 0 80 49 00
        E 0 80 4a 00
        E 0 80 55 00
        E 0 80 56 00
        E 0 80 61 00
        E 0 80 62 00
        E 180 90 49 60
        E 0 90 4a 60
        E 0 90 55 60
        E 0 90 56 60
        E 0 90 61 60
        E 0 90 62 60
        E 60 80 49 00
        E 0 80 4a 00
        E 0 80 55 00
        E 0 80 56 00
        E 0 80 61 00
        E 0 80 62 00
        E 180 90 49 60
        E 0 90 4a 60
        E 0 90 55 60
        E 0 90 56 60
        E 0 90 61 60
        E 0 90 62 60
        E 60 80 49 00
        E 0 80 4a 00
        E 0 80 55 00
        E 0 80 56 00
        E 0 80 61 00
        E 0 80 62 00
        E 180 90 55 60
        E 0 90 56 60
        E 0 90 61 60
        E 0 90 62 60
        E 60 80 55 00
        E 0 80 56 00
        E 0 80 61 00
        E 0 80 62 00
        E 180 90 3e 60
        E 0 90 49 60
        E 0 90 4b 60
        E 0 90 55 60
        E 0 90 57 60
        E 0 90 61 60
        E 0 90 62 60
        E 0 90 63 60
        E 60 80 3e 00
        E 0 80 49 00
        E 0 80 4b 00
        E 0 80 55 00
        E 0 80 57 00
        E 0 80 61 00
        E 0 80 62 00
        E 0 80 63 00
        E 60 90 61 60
        E 0 90 62 60
        E 0 90 63 60
        E 60 80 61 00
        E 0 80 62 00
        E 0 80 63 00
        E 60 90 49 60
        E 0 90 4b 60
        E 0 90 55 60
        E 0 90 57 60
        E 0 90 61 60
        E 0 90 62 60
        E 0 90 63 60
        E 60 80 49 00
        E 0 80 4b 00
        E 0 80 55 00
        E 0 80 57 00
        E 0 80 61 00
        E 0 80 62 00
        E 0 80 63 00
        E 180 90 49 60
        E 0 90 4b 60
        E 0 90 55 60
        E 0 90 57 60
        E 0 90 61 60
        E 0 90 62 60
        E 0 90 63 60
        E 60 80 49 00
        E 0 80 4b 00
        E 0 80 55 00
        E 0 80 57 00
        E 0 80 61 00
        E 0 80 62 00
        E 0 80 63 00
        E 180 90 55 60
        E 0 90 57 60
        E 0 90 61 60
        E 0 90 62 60
        E 0 90 63 60
        E 60 80 55 00
        E 0 80 57 00
        E 0 80 61 00
        E 0 80 62 00
        E 0 80 63 00
        E 180 90 3c 60
        E 0 90 48 60
        E 0 90 49 60
        E 0 90 54 60
        E 0 90 55 60
        E 0 90 60 60
        E 0 90 61 60
        E 60 80 3c 00
        E 0 80 48 00
        E 0 80 49 00
        E 0 80 54 00
        E 0 80 55 00
        E 0 80 60 00
        E 0 80 61 00
        E 180 90 48 60
        E 0 90 49 60
        E 0 90 54 60
        E 0 90 55 60
        E 0 90 60 60
        E 0 90 61 60
        E 60 80 48 00
        E 0 80 49 00
        E 0 80 54 00
        E 0 80 55 00
        E 0 80 60 00
        E 0 80 61 00
        E 180 90 3c 60
        E 0 90 48 60
        E 0 90 49 60
        E 0 90 54 60
        E 0 90 55 60
        E 0 90 60 60
        E 0 90 61 60
        E 60 80 3c 00
        E 0 80 48 00
        E 0 80 49 00
        E 0 80 54 00
        E 0 80 55 00
        E 0 80 60 00
        E 0 80 61 00
        E 180 90 48 60
        E 0 90 49 60
        E 0 90 54 60
        E 0 90 55 60
        E 0 90 60 60
        E 0 90 61 60
        E 60 80 48 00
        E 0 80 49 00
        E 0 80 54 00
        E 0 80 55 00
        E 0 80 60 00
        E 0 80 61 00
        E 180 90 3c 60
        E 0 90 48 60
        E 0 90 49 60
        E 0 90 54 60
        E 0 90 55 60
        E 0 90 60 60
        E 0 90 61 60
        E 0 90 62 60
        E 60 80 3c 00
        E 0 80 48 00
        E 0 80 49 00
        E 0 80 54 00
        E 0 80 55 00
        E 0 80 60 00
        E 0 80 61 00
        E 0 80 62 00
        E 60 90 60 60
        E 0 90 61 60
        E 0 90 62 60
        E 60 80 60 00
        E 0 80 61 00
        E 0 80 62 00
        E 60 90 48 60
        E 0 90 49 60
        E 0 90 54 60
        E 0 90 55 60
        E 0 90 60 60
        E 0 90 61 60
        E 0 90 62 60
        E 60 80 48 00
        E 0 80 49 00
        E 0 80 54 00
        E 0 80 55 00
        E 0 80 60 00
        E 0 80 61 00
        E 0 80 62 00
        E 180 90 48 60
        E 0 90 49 60
        E 0 90 54 60
        E 0 90 55 60
        E 0 90 60 60
        E 0 90 61 60
        E 0 90 62 60
        E 60 80 48 00
        E 0 80 49 00
        E 0 80 54 00
        E 0 80 55 00
        E 0 80 60 00
        E 0 80 61 00
        E 0 80 62 00
        E 180 90 54 60
        E 0 90 55 60
        E 0 90 60 60
        E 0 90 61 60
        E 0 90 62 60
        E 60 80 54 00
        E 0 80 55 00
        E 0 80 60 00
        E 0 80 61 00
        E 0 80 62 00
        E 180 90 3d 60
        E 0 90 49 60
        E 0 90 55 60
        E 0 90 61 60
        E 60 80 3d 00
        E 0 80 49 00
        E 0 80 55 00
        E 0 80 61 00
        E 180 90 56 60
        E 0 90 62 60
        E 60 80 56 00
        E 0 80 62 00
        E 180 90 4b 60
        E 0 90 58 60
        E 0 90 64 60
        E 60 80 4b 00
        E 0 80 58 00
        E 0 80 64 00
        E 180 90 56 60
        E 0 90 62 60
        E 60 80 56 00
        E 0 80 62 00
        E 180 90 3c 60
        E 0 90 48 60
        E 0 90 54 60
        E 0 90 60 60
        E 60 80 3c 00
        E 0 80 48 00
        E 0 80 54 00
        E 0 80 60 00
        E 180 90 56 60
        E 0 90 62 60
        E 60 80 56 00
        E 0 80 62 00
        E 180 90 4b 60
        E 0 90 57 60
        E 0 90 63 60
        E 60 80 4b 00
        E 0 80 57 00
        E 0 80 63 00
        E 180 90 56 60
        E 0 90 62 60
        E 60 80 56 00
        E 0 80 62 00
        E 180 90 3c 60
        E 0 90 48 60
        E 0 90 54 60
        E 0 90 60 60
        E 60 80 3c 00
        E 0 80 48 00
        E 0 80 54 00
        E 0 80 60 00
        E 180 90 55 60
        E 0 90 61 60
        E 60 80 55 00
        E 0 80 61 00
        E 179 90 4b 60
        E 0 90 58 60
        E 0 90 64 60
        E 60 80 4b 00
        E 0 80 58 00
        E 0 80 64 00
        E 181 90 55 60
        E 0 90 61 60
        E 60 80 55 00
        E 0 80 61 00
        E 180 90 3c 60
        E 0 90 48 60
        E 0 90 54 60
        E 0 90 60 60
        E 60 80 3c 00
        E 0 80 48 00
        E 0 80 54 00
        E 0 80 60 00
        E 180 90 56 60
        E 0 90 62 60
        E 60 80 56 00
        E 0 80 62 00
        E 180 90 4b 60
        E 0 90 57 60
        E 0 90 63 60
        E 60 80 4b 00
        E 0 80 57 00
        E 0 80 63 00
        E 180 90 56 60
        E 0 90 62 60
        E 60 80 56 00
        E 0 80 62 00
        E 180 90 3e 60
        E 0 90 49 60
        E 0 90 4a 60
        E 0 90 55 60
        E 0 90 56 60
        E 0 90 61 60
        E 0 90 62 60
        E 60 80 3e 00
        E 0 80 49 00
        E 0 80 4a 00
        E 0 80 55 00
        E 0 80 56 00
        E 0 80 61 00
        E 0 80 62 00
        E 180 90 49 60
        E 0 90 4a 60
        E 0 90 55 60
        E 0 90 56 60
        E 0 90 61 60
        E 0 90 62 60
        E 60 80 49 00
        E 0 80 4a 00
        E 0 80 55 00
        E 0 80 56 00
        E 0 80 61 00
        E 0 80 62 00
        E 180 90 49 60
        E 0 90 4a 60
        E 0 90 55 60
        E 0 90 56 60
        E 0 90 61 60
        E 0 90 62 60
        E 60 80 49 00
        E 0 80 4a 00
        E 0 80 55 00
        E 0 80 56 00
        E 0 80 61 00
        E 0 80 62 00
        E 180 90 55 60
        E 0 90 56 60
        E 0 90 61 60
        E 0 90 62 60
        E 60 80 55 00
        E 0 80 56 00
        E 0 80 61 00
        E 0 80 62 00
        E 180 90 3e 60
        E 0 90 49 60
        E 0 90 4b 60
        E 0 90 55 60
        E 0 90 57 60
        E 0 90 61 60
        E 0 90 62 60
        E 0 90 63 60
        E 60 80 3e 00
        E 0 80 49 00
        E 0 80 4b 00
        E 0 80 55 00
        E 0 80 57 00
        E 0 80 61 00
        E 0 80 62 00
        E 0 80 63 00
        E 60 90 61 60
        E 0 90 62 60
        E 0 90 63 60
        E 60 80 61 00
        E 0 80 62 00
        E 0 80 63 00
        E 60 90 49 60
        E 0 90 4b 60
        E 0 90 55 60
        E 0 90 57 60
        E 0 90 61 60
        E 0 90 62 60
        E 0 90 63 60
        E 60 80 49 00
        E 0 80 4b 00
        E 0 80 55 00
        E 0 80 57 00
        E 0 80 61 00
        E 0 80 62 00
        E 0 80 63 00
        E 180 90 49 60
        E 0 90 4b 60
        E 0 90 55 60
        E 0 90 57 60
        E 0 90 61 60
        E 0 90 62 60
        E 0 90 63 60
        E 60 80 49 00
        E 0 80 4b 00
        E 0 80 55 00
        E 0 80 57 00
        E 0 80 61 00
        E 0 80 62 00
        E 0 80 63 00
        E 180 90 55 60
        E 0 90 57 60
        E 0 90 61 60
        E 0 90 62 60
        E 0 90 63 60
        E 60 80 55 00
        E 0 80 57 00
        E 0 80 61 00
        E 0 80 62 00
        E 0 80 63 00
        E 180 90 3c 60
        E 0 90 48 60
        E 0 90 49 60
        E 0 90 54 60
        E 0 90 55 60
        E 0 90 60 60
        E 0 90 61 60
        E 60 80 3c 00
        E 0 80 48 00
        E 0 80 49 00
        E 0 80 54 00
        E 0 80 55 00
        E 0 80 60 00
        E 0 80 61 00
        E 180 90 48 60
        E 0 90 49 60
        E 0 90 54 60
        E 0 90 55 60
        E 0 90 60 60
        E 0 90 61 60
        E 60 80 48 00
        E 0 80 49 00
        E 0 80 54 00
        E 0 80 55 00
        E 0 80 60 00
        E 0 80 61 00
        E 180 90 3c 60
        E 0 90 48 60
        E 0 90 49 60
        E 0 90 54 60
        E 0 90 55 60
        E 0 90 60 60
        E 0 90 61 60
        E 60 80 3c 00
        E 0 80 48 00
        E 0 80 49 00
        E 0 80 54 00
        E 0 80 55 00
        E 0 80 60 00
        E 0 80 61 00
        E 180 90 48 60
        E 0 90 49 60
        E 0 90 54 60
        E 0 90 55 60
        E 0 90 60 60
        E 0 90 61 60
        E 60 80 48 00
        E 0 80 49 00
        E 0 80 54 00
        E 0 80 55 00
        E 0 80 60 00
        E 0 80 61 00
        E 180 90 3c 60
        E 0 90 48 60
        E 0 90 49 60
        E 0 90 54 60
        E 0 90 55 60
        E 0 90 60 60
        E 0 90 61 60
        E 0 90 62 60
        E 60 80 3c 00
        E 0 80 48 00
        E 0 80 49 00
        E 0 80 54 00
        E 0 80 55 00
        E 0 80 60 00
        E 0 80 61 00
        E 0 80 62 00
        E 60 90 60 60
        E 0 90 61 60
        E 0 90 62 60
        E 60 80 60 00
        E 0 80 61 00
        E 0 80 62 00
        E 60 90 48 60
        E 0 90 49 60
        E 0 90 54 60
        E 0 90 55 60
        E 0 90 60 60
        E 0 90 61 60
        E 0 90 62 60
        E 60 80 48 00
        E 0 80 49 00
        E 0 80 54 00
        E 0 80 55 00
        E 0 80 60 00
        E 0 80 61 00
        E 0 80 62 00
        E 180 90 48 60
        E 0 90 49 60
        E 0 90 54 60
        E 0 90 55 60
        E 0 90 60 60
        E 0 90 61 60
        E 0 90 62 60
        E 60 80 48 00
        E 0 80 49 00
        E 0 80 54 00
        E 0 80 55 00
        E 0 80 60 00
        E 0 80 61 00
        E 0 80 62 00
        <X 173 0
          /wFbaW50ZW5zZV0=
        >
        E 7 90 54 60
        E 0 90 55 60
        E 0 90 60 60
        E 0 90 61 60
        E 0 90 62 60
        E 48 90 74 59
        E 12 80 54 00
        E 0 80 55 00
        E 0 80 60 00
        E 0 80 61 00
        E 0 80 62 00
        E 180 90 3e 60
        E 0 90 49 60
        E 0 90 4a 60
        E 0 90 55 60
        E 0 90 56 60
        E 0 90 61 60
        E 0 90 62 60
        E 60 80 3e 00
        E 0 80 49 00
        E 0 80 4a 00
        E 0 80 55 00
        E 0 80 56 00
        E 0 80 61 00
        E 0 80 62 00
        E 180 90 49 60
        E 0 90 4a 60
        E 0 90 55 60
        E 0 90 56 60
        E 0 90 61 60
        E 0 90 62 60
        E 60 80 49 00
        E 0 80 4a 00
        E 0 80 55 00
        E 0 80 56 00
        E 0 80 61 00
        E 0 80 62 00
        E 180 90 49 60
        E 0 90 4a 60
        E 0 90 55 60
        E 0 90 56 60
        E 0 90 61 60
        E 0 90 62 60
        E 60 80 49 00
        E 0 80 4a 00
        E 0 80 55 00
        E 0 80 56 00
        E 0 80 61 00
        E 0 80 62 00
        E 180 90 55 60
        E 0 90 56 60
        E 0 90 61 60
        E 0 90 62 60
        E 60 80 55 00
        E 0 80 56 00
        E 0 80 61 00
        E 0 80 62 00
        E 180 90 3e 60
        E 0 90 49 60
        E 0 90 4b 60
        E 0 90 55 60
        E 0 90 57 60
        E 0 90 61 60
        E 0 90 62 60
        E 0 90 63 60
        E 60 80 3e 00
        E 0 80 49 00
        E 0 80 4b 00
        E 0 80 55 00
        E 0 80 57 00
        E 0 80 61 00
        E 0 80 62 00
        E 0 80 63 00
        E 60 90 61 60
        E 0 90 62 60
        E 0 90 63 60
        E 60 80 61 00
        E 0 80 62 00
        E 0 80 63 00
        E 60 90 49 60
        E 0 90 4b 60
        E 0 90 55 60
        E 0 90 57 60
        E 0 90 61 60
        E 0 90 62 60
        E 0 90 63 60
        E 60 80 49 00
        E 0 80 4b 00
        E 0 80 55 00
        E 0 80 57 00
        E 0 80 61 00
        E 0 80 62 00
        E 0 80 63 00
        E 180 90 49 60
        E 0 90 4b 60
        E 0 90 55 60
        E 0 90 57 60
        E 0 90 61 60
        E 0 90 62 60
        E 0 90 63 60
        E 60 80 49 00
        E 0 80 4b 00
        E 0 80 55 00
        E 0 80 57 00
        E 0 80 61 00
        E 0 80 62 00
        E 0 80 63 00
        E 180 90 55 60
        E 0 90 57 60
        E 0 90 61 60
        E 0 90 62 60
        E 0 90 63 60
        E 60 80 55 00
        E 0 80 57 00
        E 0 80 61 00
        E 0 80 62 00
        E 0 80 63 00
        E 180 90 3c 60
        E 0 90 48 60
        E 0 90 49 60
        E 0 90 54 60
        E 0 90 55 60
        E 0 90 60 60
        E 0 90 61 60
        E 60 80 3c 00
        E 0 80 48 00
        E 0 80 49 00
        E 0 80 54 00
        E 0 80 55 00
        E 0 80 60 00
        E 0 80 61 00
        E 180 90 48 60
        E 0 90 49 60
        E 0 90 54 60
        E 0 90 55 60
        E 0 90 60 60
        E 0 90 61 60
        E 60 80 48 00
        E 0 80 49 00
        E 0 80 54 00
        E 0 80 55 00
        E 0 80 60 00
        E 0 80 61 00
        E 180 90 3c 60
        E 0 90 48 60
        E 0 90 49 60
        E 0 90 54 60
        E 0 90 55 60
        E 0 90 60 60
        E 0 90 61 60
        E 60 80 3c 00
        E 0 80 48 00
        E 0 80 49 00
        E 0 80 54 00
        E 0 80 55 00
        E 0 80 60 00
        E 0 80 61 00
        E 180 90 48 60
        E 0 90 49 60
        E 0 90 54 60
        E 0 90 55 60
        E 0 90 60 60
        E 0 90 61 60
        E 60 80 48 00
        E 0 80 49 00
        E 0 80 54 00
        E 0 80 55 00
        E 0 80 60 00
        E 0 80 61 00
        E 180 90 3c 60
        E 0 90 48 60
        E 0 90 49 60
        E 0 90 54 60
        E 0 90 55 60
        E 0 90 60 60
        E 0 90 61 60
        E 0 90 62 60
        E 60 80 3c 00
        E 0 80 48 00
        E 0 80 49 00
        E 0 80 54 00
        E 0 80 55 00
        E 0 80 60 00
        E 0 80 61 00
        E 0 80 62 00
        E 60 90 60 60
        E 0 90 61 60
        E 0 90 62 60
        E 60 80 60 00
        E 0 80 61 00
        E 0 80 62 00
        E 60 90 48 60
        E 0 90 49 60
        E 0 90 54 60
        E 0 90 55 60
        E 0 90 60 60
        E 0 90 61 60
        E 0 90 62 60
        E 60 80 48 00
        E 0 80 49 00
        E 0 80 54 00
        E 0 80 55 00
        E 0 80 60 00
        E 0 80 61 00
        E 0 80 62 00
        E 180 90 48 60
        E 0 90 49 60
        E 0 90 54 60
        E 0 90 55 60
        E 0 90 60 60
        E 0 90 61 60
        E 0 90 62 60
        E 60 80 48 00
        E 0 80 49 00
        E 0 80 54 00
        E 0 80 55 00
        E 0 80 60 00
        E 0 80 61 00
        E 0 80 62 00
        E 180 90 54 60
        E 0 90 55 60
        E 0 90 60 60
        E 0 90 61 60
        E 0 90 62 60
        E 60 80 54 00
        E 0 80 55 00
        E 0 80 60 00
        E 0 80 61 00
        E 0 80 62 00
        E 158 80 74 00
        E 22 90 3e 60
        E 0 90 49 60
        E 0 90 4a 60
        E 0 90 55 60
        E 0 90 56 60
        E 0 90 61 60
        E 0 90 62 60
        E 60 80 3e 00
        E 0 80 49 00
        E 0 80 4a 00
        E 0 80 55 00
        E 0 80 56 00
        E 0 80 61 00
        E 0 80 62 00
        E 180 90 49 60
        E 0 90 4a 60
        E 0 90 55 60
        E 0 90 56 60
        E 0 90 61 60
        E 0 90 62 60
        E 60 80 49 00
        E 0 80 4a 00
        E 0 80 55 00
        E 0 80 56 00
        E 0 80 61 00
        E 0 80 62 00
        E 180 90 49 60
        E 0 90 4a 60
        E 0 90 55 60
        E 0 90 56 60
        E 0 90 61 60
        E 0 90 62 60
        E 60 80 49 00
        E 0 80 4a 00
        E 0 80 55 00
        E 0 80 56 00
        E 0 80 61 00
        E 0 80 62 00
        E 180 90 55 60
        E 0 90 56 60
        E 0 90 61 60
        E 0 90 62 60
        E 60 80 55 00
        E 0 80 56 00
        E 0 80 61 00
        E 0 80 62 00
        E 180 90 3e 60
        E 0 90 49 60
        E 0 90 4b 60
        E 0 90 55 60
        E 0 90 57 60
        E 0 90 61 60
        E 0 90 62 60
        E 0 90 63 60
        E 60 80 3e 00
        E 0 80 49 00
        E 0 80 4b 00
        E 0 80 55 00
        E 0 80 57 00
        E 0 80 61 00
        E 0 80 62 00
        E 0 80 63 00
        E 60 90 61 60
        E 0 90 62 60
        E 0 90 63 60
        E 60 80 61 00
        E 0 80 62 00
        E 0 80 63 00
        E 60 90 49 60
        E 0 90 4b 60
        E 0 90 55 60
        E 0 90 57 60
        E 0 90 61 60
        E 0 90 62 60
        E 0 90 63 60
        E 60 80 49 00
        E 0 80 4b 00
        E 0 80 55 00
        E 0 80 57 00
        E 0 80 61 00
        E 0 80 62 00
        E 0 80 63 00
        E 180 90 49 60
        E 0 90 4b 60
        E 0 90 55 60
        E 0 90 57 60
        E 0 90 61 60
        E 0 90 62 60
        E 0 90 63 60
        E 60 80 49 00
        E 0 80 4b 00
        E 0 80 55 00
        E 0 80 57 00
        E 0 80 61 00
        E 0 80 62 00
        E 0 80 63 00
        E 180 90 55 60
        E 0 90 57 60
        E 0 90 61 60
        E 0 90 62 60
        E 0 90 63 60
        E 60 80 55 00
        E 0 80 57 00
        E 0 80 61 00
        E 0 80 62 00
        E 0 80 63 00
        E 180 90 3c 60
        E 0 90 48 60
        E 0 90 49 60
        E 0 90 54 60
        E 0 90 55 60
        E 0 90 60 60
        E 0 90 61 60
        E 60 80 3c 00
        E 0 80 48 00
        E 0 80 49 00
        E 0 80 54 00
        E 0 80 55 00
        E 0 80 60 00
        E 0 80 61 00
        E 180 90 48 60
        E 0 90 49 60
        E 0 90 54 60
        E 0 90 55 60
        E 0 90 60 60
        E 0 90 61 60
        E 60 80 48 00
        E 0 80 49 00
        E 0 80 54 00
        E 0 80 55 00
        E 0 80 60 00
        E 0 80 61 00
        E 180 90 3c 60
        E 0 90 48 60
        E 0 90 49 60
        E 0 90 54 60
        E 0 90 55 60
        E 0 90 60 60
        E 0 90 61 60
        E 60 80 3c 00
        E 0 80 48 00
        E 0 80 49 00
        E 0 80 54 00
        E 0 80 55 00
        E 0 80 60 00
        E 0 80 61 00
        E 180 90 48 60
        E 0 90 49 60
        E 0 90 54 60
        E 0 90 55 60
        E 0 90 60 60
        E 0 90 61 60
        E 60 80 48 00
        E 0 80 49 00
        E 0 80 54 00
        E 0 80 55 00
        E 0 80 60 00
        E 0 80 61 00
        E 180 90 3c 60
        E 0 90 48 60
        E 0 90 49 60
        E 0 90 54 60
        E 0 90 55 60
        E 0 90 60 60
        E 0 90 61 60
        E 0 90 62 60
        E 60 80 3c 00
        E 0 80 48 00
        E 0 80 49 00
        E 0 80 54 00
        E 0 80 55 00
        E 0 80 60 00
        E 0 80 61 00
        E 0 80 62 00
        E 60 90 60 60
        E 0 90 61 60
        E 0 90 62 60
        E 60 80 60 00
        E 0 80 61 00
        E 0 80 62 00
        E 60 90 48 60
        E 0 90 49 60
        E 0 90 54 60
        E 0 90 55 60
        E 0 90 60 60
        E 0 90 61 60
        E 0 90 62 60
        E 60 80 48 00
        E 0 80 49 00
        E 0 80 54 00
        E 0 80 55 00
        E 0 80 60 00
        E 0 80 61 00
        E 0 80 62 00
        E 180 90 48 60
        E 0 90 49 60
        E 0 90 54 60
        E 0 90 55 60
        E 0 90 60 60
        E 0 90 61 60
        E 0 90 62 60
        E 60 80 48 00
        E 0 80 49 00
        E 0 80 54 00
        E 0 80 55 00
        E 0 80 60 00
        E 0 80 61 00
        E 0 80 62 00
        E 180 90 54 60
        E 0 90 55 60
        E 0 90 60 60
        E 0 90 61 60
        E 0 90 62 60
        E 60 80 54 00
        E 0 80 55 00
        E 0 80 60 00
        E 0 80 61 00
        E 0 80 62 00
        E 180 90 3e 60
        E 0 90 49 60
        E 0 90 4a 60
        E 0 90 55 60
        E 0 90 56 60
        E 0 90 61 60
        E 0 90 62 60
        E 60 80 3e 00
        E 0 80 49 00
        E 0 80 4a 00
        E 0 80 55 00
        E 0 80 56 00
        E 0 80 61 00
        E 0 80 62 00
        E 180 90 49 60
        E 0 90 4a 60
        E 0 90 55 60
        E 0 90 56 60
        E 0 90 61 60
        E 0 90 62 60
        E 60 80 49 00
        E 0 80 4a 00
        E 0 80 55 00
        E 0 80 56 00
        E 0 80 61 00
        E 0 80 62 00
        E 180 90 49 60
        E 0 90 4a 60
        E 0 90 55 60
        E 0 90 56 60
        E 0 90 61 60
        E 0 90 62 60
        E 60 80 49 00
        E 0 80 4a 00
        E 0 80 55 00
        E 0 80 56 00
        E 0 80 61 00
        E 0 80 62 00
        E 180 90 55 60
        E 0 90 56 60
        E 0 90 61 60
        E 0 90 62 60
        E 60 80 55 00
        E 0 80 56 00
        E 0 80 61 00
        E 0 80 62 00
        E 180 90 3e 60
        E 0 90 49 60
        E 0 90 4b 60
        E 0 90 55 60
        E 0 90 57 60
        E 0 90 61 60
        E 0 90 62 60
        E 0 90 63 60
        E 60 80 3e 00
        E 0 80 49 00
        E 0 80 4b 00
        E 0 80 55 00
        E 0 80 57 00
        E 0 80 61 00
        E 0 80 62 00
        E 0 80 63 00
        E 60 90 61 60
        E 0 90 62 60
        E 0 90 63 60
        E 60 80 61 00
        E 0 80 62 00
        E 0 80 63 00
        E 60 90 49 60
        E 0 90 4b 60
        E 0 90 55 60
        E 0 90 57 60
        E 0 90 61 60
        E 0 90 62 60
        E 0 90 63 60
        E 60 80 49 00
        E 0 80 4b 00
        E 0 80 55 00
        E 0 80 57 00
        E 0 80 61 00
        E 0 80 62 00
        E 0 80 63 00
        E 180 90 49 60
        E 0 90 4b 60
        E 0 90 55 60
        E 0 90 57 60
        E 0 90 61 60
        E 0 90 62 60
        E 0 90 63 60
        E 60 80 49 00
        E 0 80 4b 00
        E 0 80 55 00
        E 0 80 57 00
        E 0 80 61 00
        E 0 80 62 00
        E 0 80 63 00
        E 180 90 55 60
        E 0 90 57 60
        E 0 90 61 60
        E 0 90 62 60
        E 0 90 63 60
        E 60 80 55 00
        E 0 80 57 00
        E 0 80 61 00
        E 0 80 62 00
        E 0 80 63 00
        E 180 90 3c 60
        E 0 90 48 60
        E 0 90 49 60
        E 0 90 54 60
        E 0 90 55 60
        E 0 90 60 60
        E 0 90 61 60
        E 60 80 3c 00
        E 0 80 48 00
        E 0 80 49 00
        E 0 80 54 00
        E 0 80 55 00
        E 0 80 60 00
        E 0 80 61 00
        E 180 90 48 60
        E 0 90 49 60
        E 0 90 54 60
        E 0 90 55 60
        E 0 90 60 60
        E 0 90 61 60
        E 60 80 48 00
        E 0 80 49 00
        E 0 80 54 00
        E 0 80 55 00
        E 0 80 60 00
        E 0 80 61 00
        E 180 90 3c 60
        E 0 90 48 60
        E 0 90 49 60
        E 0 90 54 60
        E 0 90 55 60
        E 0 90 60 60
        E 0 90 61 60
        E 60 80 3c 00
        E 0 80 48 00
        E 0 80 49 00
        E 0 80 54 00
        E 0 80 55 00
        E 0 80 60 00
        E 0 80 61 00
        E 180 90 48 60
        E 0 90 49 60
        E 0 90 54 60
        E 0 90 55 60
        E 0 90 60 60
        E 0 90 61 60
        E 60 80 48 00
        E 0 80 49 00
        E 0 80 54 00
        E 0 80 55 00
        E 0 80 60 00
        E 0 80 61 00
        E 180 90 3c 60
        E 0 90 48 60
        E 0 90 49 60
        E 0 90 54 60
        E 0 90 55 60
        E 0 90 60 60
        E 0 90 61 60
        E 0 90 62 60
        E 60 80 3c 00
        E 0 80 48 00
        E 0 80 49 00
        E 0 80 54 00
        E 0 80 55 00
        E 0 80 60 00
        E 0 80 61 00
        E 0 80 62 00
        E 60 90 60 60
        E 0 90 61 60
        E 0 90 62 60
        E 60 80 60 00
        E 0 80 61 00
        E 0 80 62 00
        E 60 90 48 60
        E 0 90 49 60
        E 0 90 54 60
        E 0 90 55 60
        E 0 90 60 60
        E 0 90 61 60
        E 0 90 62 60
        E 60 80 48 00
        E 0 80 49 00
        E 0 80 54 00
        E 0 80 55 00
        E 0 80 60 00
        E 0 80 61 00
        E 0 80 62 00
        E 180 90 48 60
        E 0 90 49 60
        E 0 90 54 60
        E 0 90 55 60
        E 0 90 60 60
        E 0 90 61 60
        E 0 90 62 60
        E 60 80 48 00
        E 0 80 49 00
        E 0 80 54 00
        E 0 80 55 00
        E 0 80 60 00
        E 0 80 61 00
        E 0 80 62 00
        E 180 90 54 60
        E 0 90 55 60
        E 0 90 60 60
        E 0 90 61 60
        E 0 90 62 60
        E 60 80 54 00
        E 0 80 55 00
        E 0 80 60 00
        E 0 80 61 00
        E 0 80 62 00
        E 180 90 3e 60
        E 0 90 49 60
        E 0 90 4a 60
        E 0 90 55 60
        E 0 90 56 60
        E 0 90 61 60
        E 0 90 62 60
        E 60 80 3e 00
        E 0 80 49 00
        E 0 80 4a 00
        E 0 80 55 00
        E 0 80 56 00
        E 0 80 61 00
        E 0 80 62 00
        E 180 90 49 60
        E 0 90 4a 60
        E 0 90 55 60
        E 0 90 56 60
        E 0 90 61 60
        E 0 90 62 60
        E 60 80 49 00
        E 0 80 4a 00
        E 0 80 55 00
        E 0 80 56 00
        E 0 80 61 00
        E 0 80 62 00
        E 180 90 49 60
        E 0 90 4a 60
        E 0 90 55 60
        E 0 90 56 60
        E 0 90 61 60
        E 0 90 62 60
        E 60 80 49 00
        E 0 80 4a 00
        E 0 80 55 00
        E 0 80 56 00
        E 0 80 61 00
        E 0 80 62 00
        E 180 90 55 60
        E 0 90 56 60
        E 0 90 61 60
        E 0 90 62 60
        E 60 80 55 00
        E 0 80 56 00
        E 0 80 61 00
        E 0 80 62 00
        E 180 90 3e 60
        E 0 90 49 60
        E 0 90 4b 60
        E 0 90 55 60
        E 0 90 57 60
        E 0 90 61 60
        E 0 90 62 60
        E 0 90 63 60
        E 60 80 3e 00
        E 0 80 49 00
        E 0 80 4b 00
        E 0 80 55 00
        E 0 80 57 00
        E 0 80 61 00
        E 0 80 62 00
        E 0 80 63 00
        E 60 90 61 60
        E 0 90 62 60
        E 0 90 63 60
        E 60 80 61 00
        E 0 80 62 00
        E 0 80 63 00
        E 60 90 49 60
        E 0 90 4b 60
        E 0 90 55 60
        E 0 90 57 60
        E 0 90 61 60
        E 0 90 62 60
        E 0 90 63 60
        E 60 80 49 00
        E 0 80 4b 00
        E 0 80 55 00
        E 0 80 57 00
        E 0 80 61 00
        E 0 80 62 00
        E 0 80 63 00
        E 180 90 49 60
        E 0 90 4b 60
        E 0 90 55 60
        E 0 90 57 60
        E 0 90 61 60
        E 0 90 62 60
        E 0 90 63 60
        E 60 80 49 00
        E 0 80 4b 00
        E 0 80 55 00
        E 0 80 57 00
        E 0 80 61 00
        E 0 80 62 00
        E 0 80 63 00
        E 180 90 55 60
        E 0 90 57 60
        E 0 90 61 60
        E 0 90 62 60
        E 0 90 63 60
        E 60 80 55 00
        E 0 80 57 00
        E 0 80 61 00
        E 0 80 62 00
        E 0 80 63 00
        E 180 90 3c 60
        E 0 90 48 60
        E 0 90 49 60
        E 0 90 54 60
        E 0 90 55 60
        E 0 90 60 60
        E 0 90 61 60
        E 60 80 3c 00
        E 0 80 48 00
        E 0 80 49 00
        E 0 80 54 00
        E 0 80 55 00
        E 0 80 60 00
        E 0 80 61 00
        E 180 90 48 60
        E 0 90 49 60
        E 0 90 54 60
        E 0 90 55 60
        E 0 90 60 60
        E 0 90 61 60
        E 60 80 48 00
        E 0 80 49 00
        E 0 80 54 00
        E 0 80 55 00
        E 0 80 60 00
        E 0 80 61 00
        E 180 90 3c 60
        E 0 90 48 60
        E 0 90 49 60
        E 0 90 54 60
        E 0 90 55 60
        E 0 90 60 60
        E 0 90 61 60
        E 60 80 3c 00
        E 0 80 48 00
        E 0 80 49 00
        E 0 80 54 00
        E 0 80 55 00
        E 0 80 60 00
        E 0 80 61 00
        E 180 90 48 60
        E 0 90 49 60
        E 0 90 54 60
        E 0 90 55 60
        E 0 90 60 60
        E 0 90 61 60
        E 60 80 48 00
        E 0 80 49 00
        E 0 80 54 00
        E 0 80 55 00
        E 0 80 60 00
        E 0 80 61 00
        E 180 90 3c 60
        E 0 90 48 60
        E 0 90 49 60
        E 0 90 54 60
        E 0 90 55 60
        E 0 90 60 60
        E 0 90 61 60
        E 0 90 62 60
        E 60 80 3c 00
        E 0 80 48 00
        E 0 80 49 00
        E 0 80 54 00
        E 0 80 55 00
        E 0 80 60 00
        E 0 80 61 00
        E 0 80 62 00
        E 60 90 60 60
        E 0 90 61 60
        E 0 90 62 60
        E 60 80 60 00
        E 0 80 61 00
        E 0 80 62 00
        E 60 90 48 60
        E 0 90 49 60
        E 0 90 54 60
        E 0 90 55 60
        E 0 90 60 60
        E 0 90 61 60
        E 0 90 62 60
        E 60 80 48 00
        E 0 80 49 00
        E 0 80 54 00
        E 0 80 55 00
        E 0 80 60 00
        E 0 80 61 00
        E 0 80 62 00
        E 180 90 48 60
        E 0 90 49 60
        E 0 90 54 60
        E 0 90 55 60
        E 0 90 60 60
        E 0 90 61 60
        E 0 90 62 60
        E 60 80 48 00
        E 0 80 49 00
        E 0 80 54 00
        E 0 80 55 00
        E 0 80 60 00
        E 0 80 61 00
        E 0 80 62 00
        E 180 90 54 60
        E 0 90 55 60
        E 0 90 60 60
        E 0 90 61 60
        E 0 90 62 60
        E 60 80 54 00
        E 0 80 55 00
        E 0 80 60 00
        E 0 80 61 00
        E 0 80 62 00
        <X 60 0
          /wFbbWVsbG93XQ==
        >
        E 120 90 3c 60
        E 0 90 48 60
        E 0 90 54 60
        E 0 90 60 60
        E 60 80 3c 00
        E 0 80 48 00
        E 0 80 54 00
        E 0 80 60 00
        E 180 90 55 60
        E 0 90 61 60
        E 60 80 55 00
        E 0 80 61 00
        E 180 90 4b 60
        E 0 90 57 60
        E 0 90 63 60
        E 60 80 4b 00
        E 0 80 57 00
        E 0 80 63 00
        E 180 90 56 60
        E 0 90 62 60
        E 60 80 56 00
        E 0 80 62 00
        E 180 90 3e 60
        E 0 90 4b 60
        E 0 90 58 60
        E 0 90 64 60
        E 60 80 3e 00
        E 0 80 4b 00
        E 0 80 58 00
        E 0 80 64 00
        E 180 90 57 60
        E 0 90 63 60
        E 60 80 57 00
        E 0 80 63 00
        E 180 90 49 60
        E 0 90 55 60
        E 0 90 61 60
        E 60 80 49 00
        E 0 80 55 00
        E 0 80 61 00
        E 180 90 56 60
        E 0 90 62 60
        E 60 80 56 00
        E 0 80 62 00
        E 180 90 3c 60
        E 0 90 48 60
        E 0 90 54 60
        E 0 90 60 60
        E 61 80 3c 00
        E 0 80 48 00
        E 0 80 54 00
        E 0 80 60 00
        E 180 90 55 60
        E 0 90 61 60
        E 60 80 55 00
        E 0 80 61 00
        E 179 90 4a 60
        E 0 90 56 60
        E 0 90 62 60
        E 60 80 4a 00
        E 0 80 56 00
        E 0 80 62 00
        E 180 90 55 60
        E 0 90 61 60
        E 60 80 55 00
        E 0 80 61 00
        E 180 90 3c 60
        E 0 90 48 60
        E 0 90 54 60
        E 0 90 60 60
        E 60 80 3c 00
        E 0 80 48 00
        E 0 80 54 00
        E 0 80 60 00
        E 60 90 61 60
        E 60 80 61 00
        E 60 90 56 60
        E 0 90 62 60
        E 60 80 56 00
        E 0 80 62 00
        E 181 90 4b 60
        E 0 90 57 60
        E 0 90 63 60
        E 60 80 4b 00
        E 0 80 57 00
        E 0 80 63 00
        E 180 90 56 60
        E 0 90 62 60
        E 60 80 56 00
        E 0 80 62 00
        E 179 90 3c 60
        E 0 90 48 60
        E 0 90 54 60
        E 0 90 60 60
        E 60 80 3c 00
        E 0 80 48 00
        E 0 80 54 00
        E 0 80 60 00
        E 180 90 55 60
        E 0 90 61 60
        E 60 80 55 00
        E 0 80 61 00
        E 180 90 4b 60
        E 0 90 57 60
        E 0 90 63 60
        E 60 80 4b 00
        E 0 80 57 00
        E 0 80 63 00
        E 180 90 56 60
        E 0 90 62 60
        E 60 80 56 00
        E 0 80 62 00
        E 180 90 3e 60
        E 0 90 4b 60
        E 0 90 58 60
        E 0 90 64 60
        E 60 80 3e 00
        E 0 80 4b 00
        E 0 80 58 00
        E 0 80 64 00
        E 180 90 57 60
        E 0 90 63 60
        E 60 80 57 00
        E 0 80 63 00
        E 180 90 49 60
        E 0 90 55 60
        E 0 90 61 60
        E 60 80 49 00
        E 0 80 55 00
        E 0 80 61 00
        E 180 90 56 60
        E 0 90 62 60
        E 60 80 56 00
        E 0 80 62 00
        E 180 90 3c 60
        E 0 90 48 60
        E 0 90 54 60
        E 0 90 60 60
        E 61 80 3c 00
        E 0 80 48 00
        E 0 80 54 00
        E 0 80 60 00
        E 180 90 55 60
        E 0 90 61 60
        E 60 80 55 00
        E 0 80 61 00
        E 180 90 4a 60
        E 0 90 56 60
        E 0 90 62 60
        E 60 80 4a 00
        E 0 80 56 00
        E 0 80 62 00
        E 180 90 55 60
        E 0 90 61 60
        E 60 80 55 00
        E 0 80 61 00
        E 180 90 3c 60
        E 0 90 48 60
        E 0 90 54 60
        E 0 90 60 60
        E 60 80 3c 00
        E 0 80 48 00
        E 0 80 54 00
        E 0 80 60 00
        E 59 90 61 60
        E 60 80 61 00
        E 60 90 56 60
        E 0 90 62 60
        E 60 80 56 00
        E 0 80 62 00
        E 181 90 4b 60
        E 0 90 57 60
        E 0 90 63 60
        E 60 80 4b 00
        E 0 80 57 00
        E 0 80 63 00
        E 180 90 56 60
        E 0 90 62 60
        E 60 80 56 00
        E 0 80 62 00
        E 179 90 3c 60
        E 0 90 48 60
        E 0 90 54 60
        E 0 90 60 60
        E 60 80 3c 00
        E 0 80 48 00
        E 0 80 54 00
        E 0 80 60 00
        E 180 90 55 60
        E 0 90 61 60
        E 60 80 55 00
        E 0 80 61 00
        E 180 90 4b 60
        E 0 90 57 60
        E 0 90 63 60
        E 60 80 4b 00
        E 0 80 57 00
        E 0 80 63 00
        E 180 90 56 60
        E 0 90 62 60
        E 60 80 56 00
        E 0 80 62 00
        E 180 90 3e 60
        E 0 90 4b 60
        E 0 90 58 60
        E 0 90 64 60
        E 60 80 3e 00
        E 0 80 4b 00
        E 0 80 58 00
        E 0 80 64 00
        E 180 90 57 60
        E 0 90 63 60
        E 60 80 57 00
        E 0 80 63 00
        E 180 90 49 60
        E 0 90 55 60
        E 0 90 61 60
        E 60 80 49 00
        E 0 80 55 00
        E 0 80 61 00
        E 180 90 56 60
        E 0 90 62 60
        E 60 80 56 00
        E 0 80 62 00
        E 180 90 3c 60
        E 0 90 48 60
        E 0 90 54 60
        E 0 90 60 60
        E 61 80 3c 00
        E 0 80 48 00
        E 0 80 54 00
        E 0 80 60 00
        E 180 90 55 60
        E 0 90 61 60
        E 60 80 55 00
        E 0 80 61 00
        E 180 90 4a 60
        E 0 90 56 60
        E 0 90 62 60
        E 60 80 4a 00
        E 0 80 56 00
        E 0 80 62 00
        E 180 90 55 60
        E 0 90 61 60
        E 60 80 55 00
        E 0 80 61 00
        E 180 90 3c 60
        E 0 90 48 60
        E 0 90 54 60
        E 0 90 60 60
        E 60 80 3c 00
        E 0 80 48 00
        E 0 80 54 00
        E 0 80 60 00
        E 59 90 61 60
        E 60 80 61 00
        E 60 90 56 60
        E 0 90 62 60
        E 60 80 56 00
        E 0 80 62 00
        E 181 90 4b 60
        E 0 90 57 60
        E 0 90 63 60
        E 60 80 4b 00
        E 0 80 57 00
        E 0 80 63 00
        E 180 90 56 60
        E 0 90 62 60
        E 60 80 56 00
        E 0 80 62 00
        E 179 90 3c 60
        E 0 90 48 60
        E 0 90 54 60
        E 0 90 60 60
        E 60 80 3c 00
        E 0 80 48 00
        E 0 80 54 00
        E 0 80 60 00
        E 60 90 74 59
        E 120 90 55 60
        E 0 90 61 60
        E 60 80 55 00
        E 0 80 61 00
        E 180 90 4b 60
        E 0 90 57 60
        E 0 90 63 60
        E 60 80 4b 00
        E 0 80 57 00
        E 0 80 63 00
        E 180 90 56 60
        E 0 90 62 60
        E 60 80 56 00
        E 0 80 62 00
        E 180 90 3e 60
        E 0 90 4b 60
        E 0 90 58 60
        E 0 90 64 60
        E 60 80 3e 00
        E 0 80 4b 00
        E 0 80 58 00
        E 0 80 64 00
        E 180 90 57 60
        E 0 90 63 60
        E 60 80 57 00
        E 0 80 63 00
        E 180 90 49 60
        E 0 90 55 60
        E 0 90 61 60
        E 60 80 49 00
        E 0 80 55 00
        E 0 80 61 00
        E 180 90 56 60
        E 0 90 62 60
        E 60 80 56 00
        E 0 80 62 00
        E 180 90 3c 60
        E 0 90 48 60
        E 0 90 54 60
        E 0 90 60 60
        E 61 80 3c 00
        E 0 80 48 00
        E 0 80 54 00
        E 0 80 60 00
        E 180 90 55 60
        E 0 90 61 60
        E 60 80 55 00
        E 0 80 61 00
        E 180 90 4a 60
        E 0 90 56 60
        E 0 90 62 60
        E 60 80 4a 00
        E 0 80 56 00
        E 0 80 62 00
        E 180 90 55 60
        E 0 90 61 60
        E 60 80 55 00
        E 0 80 61 00
        E 180 90 3c 60
        E 0 90 48 60
        E 0 90 54 60
        E 0 90 60 60
        E 60 80 3c 00
        E 0 80 48 00
        E 0 80 54 00
        E 0 80 60 00
        E 59 90 61 60
        E 60 80 61 00
        E 60 90 56 60
        E 0 90 62 60
        E 60 80 56 00
        E 0 80 62 00
        E 181 90 4b 60
        E 0 90 57 60
        E 0 90 63 60
        E 60 80 4b 00
        E 0 80 57 00
        E 0 80 63 00
        E 180 90 56 60
        E 0 90 62 60
        E 60 80 56 00
        E 0 80 62 00
        <X 59 0
          /wFbaW50ZW5zZV0=
        >
        E 0 80 74 00
        E 120 90 3e 60
        E 0 90 49 60
        E 0 90 4a 60
        E 0 90 55 60
        E 0 90 56 60
        E 0 90 61 60
        E 0 90 62 60
        E 60 80 3e 00
        E 0 80 49 00
        E 0 80 4a 00
        E 0 80 55 00
        E 0 80 56 00
        E 0 80 61 00
        E 0 80 62 00
        E 180 90 49 60
        E 0 90 4a 60
        E 0 90 55 60
        E 0 90 56 60
        E 0 90 61 60
        E 0 90 62 60
        E 60 80 49 00
        E 0 80 4a 00
        E 0 80 55 00
        E 0 80 56 00
        E 0 80 61 00
        E 0 80 62 00
        E 180 90 49 60
        E 0 90 4a 60
        E 0 90 55 60
        E 0 90 56 60
        E 0 90 61 60
        E 0 90 62 60
        E 60 80 49 00
        E 0 80 4a 00
        E 0 80 55 00
        E 0 80 56 00
        E 0 80 61 00
        E 0 80 62 00
        E 180 90 55 60
        E 0 90 56 60
        E 0 90 61 60
        E 0 90 62 60
        E 60 80 55 00
        E 0 80 56 00
        E 0 80 61 00
        E 0 80 62 00
        E 180 90 3e 60
        E 0 90 49 60
        E 0 90 4b 60
        E 0 90 55 60
        E 0 90 57 60
        E 0 90 61 60
        E 0 90 62 60
        E 0 90 63 60
        E 60 80 3e 00
        E 0 80 49 00
        E 0 80 4b 00
        E 0 80 55 00
        E 0 80 57 00
        E 0 80 61 00
        E 0 80 62 00
        E 0 80 63 00
        E 60 90 61 60
        E 0 90 62 60
        E 0 90 63 60
        E 60 80 61 00
        E 0 80 62 00
        E 0 80 63 00
        E 60 90 49 60
        E 0 90 4b 60
        E 0 90 55 60
        E 0 90 57 60
        E 0 90 61 60
        E 0 90 62 60
        E 0 90 63 60
        E 60 80 49 00
        E 0 80 4b 00
        E 0 80 55 00
        E 0 80 57 00
        E 0 80 61 00
        E 0 80 62 00
        E 0 80 63 00
        E 180 90 49 60
        E 0 90 4b 60
        E 0 90 55 60
        E 0 90 57 60
        E 0 90 61 60
        E 0 90 62 60
        E 0 90 63 60
        E 60 80 49 00
        E 0 80 4b 00
        E 0 80 55 00
        E 0 80 57 00
        E 0 80 61 00
        E 0 80 62 00
        E 0 80 63 00
        E 180 90 55 60
        E 0 90 57 60
        E 0 90 61 60
        E 0 90 62 60
        E 0 90 63 60
        E 60 80 55 00
        E 0 80 57 00
        E 0 80 61 00
        E 0 80 62 00
        E 0 80 63 00
        E 180 90 3c 60
        E 0 90 48 60
        E 0 90 49 60
        E 0 90 54 60
        E 0 90 55 60
        E 0 90 60 60
        E 0 90 61 60
        E 60 80 3c 00
        E 0 80 48 00
        E 0 80 49 00
        E 0 80 54 00
        E 0 80 55 00
        E 0 80 60 00
        E 0 80 61 00
        E 180 90 48 60
        E 0 90 49 60
        E 0 90 54 60
        E 0 90 55 60
        E 0 90 60 60
        E 0 90 61 60
        E 60 80 48 00
        E 0 80 49 00
        E 0 80 54 00
        E 0 80 55 00
        E 0 80 60 00
        E 0 80 61 00
        E 180 90 3c 60
        E 0 90 48 60
        E 0 90 49 60
        E 0 90 54 60
        E 0 90 55 60
        E 0 90 60 60
        E 0 90 61 60
        E 60 80 3c 00
        E 0 80 48 00
        E 0 80 49 00
        E 0 80 54 00
        E 0 80 55 00
        E 0 80 60 00
        E 0 80 61 00
        E 180 90 48 60
        E 0 90 49 60
        E 0 90 54 60
        E 0 90 55 60
        E 0 90 60 60
        E 0 90 61 60
        E 60 80 48 00
        E 0 80 49 00
        E 0 80 54 00
        E 0 80 55 00
        E 0 80 60 00
        E 0 80 61 00
        E 180 90 3c 60
        E 0 90 48 60
        E 0 90 49 60
        E 0 90 54 60
        E 0 90 55 60
        E 0 90 60 60
        E 0 90 61 60
        E 0 90 62 60
        E 60 80 3c 00
        E 0 80 48 00
        E 0 80 49 00
        E 0 80 54 00
        E 0 80 55 00
        E 0 80 60 00
        E 0 80 61 00
        E 0 80 62 00
        E 60 90 60 60
        E 0 90 61 60
        E 0 90 62 60
        E 60 80 60 00
        E 0 80 61 00
        E 0 80 62 00
        E 60 90 48 60
        E 0 90 49 60
        E 0 90 54 60
        E 0 90 55 60
        E 0 90 60 60
        E 0 90 61 60
        E 0 90 62 60
        E 60 80 48 00
        E 0 80 49 00
        E 0 80 54 00
        E 0 80 55 00
        E 0 80 60 00
        E 0 80 61 00
        E 0 80 62 00
        E 180 90 48 60
        E 0 90 49 60
        E 0 90 54 60
        E 0 90 55 60
        E 0 90 60 60
        E 0 90 61 60
        E 0 90 62 60
        E 60 80 48 00
        E 0 80 49 00
        E 0 80 54 00
        E 0 80 55 00
        E 0 80 60 00
        E 0 80 61 00
        E 0 80 62 00
        E 180 90 54 60
        E 0 90 55 60
        E 0 90 60 60
        E 0 90 61 60
        E 0 90 62 60
        E 60 80 54 00
        E 0 80 55 00
        E 0 80 60 00
        E 0 80 61 00
        E 0 80 62 00
        E 175 90 74 59
        E 5 90 3e 60
        E 0 90 49 60
        E 0 90 4a 60
        E 0 90 55 60
        E 0 90 56 60
        E 0 90 61 60
        E 0 90 62 60
        E 60 80 3e 00
        E 0 80 49 00
        E 0 80 4a 00
        E 0 80 55 00
        E 0 80 56 00
        E 0 80 61 00
        E 0 80 62 00
        E 180 90 49 60
        E 0 90 4a 60
        E 0 90 55 60
        E 0 90 56 60
        E 0 90 61 60
        E 0 90 62 60
        E 60 80 49 00
        E 0 80 4a 00
        E 0 80 55 00
        E 0 80 56 00
        E 0 80 61 00
        E 0 80 62 00
        E 180 90 49 60
        E 0 90 4a 60
        E 0 90 55 60
        E 0 90 56 60
        E 0 90 61 60
        E 0 90 62 60
        E 60 80 49 00
        E 0 80 4a 00
        E 0 80 55 00
        E 0 80 56 00
        E 0 80 61 00
        E 0 80 62 00
        E 180 90 55 60
        E 0 90 56 60
        E 0 90 61 60
        E 0 90 62 60
        E 60 80 55 00
        E 0 80 56 00
        E 0 80 61 00
        E 0 80 62 00
        E 180 90 3e 60
        E 0 90 49 60
        E 0 90 4b 60
        E 0 90 55 60
        E 0 90 57 60
        E 0 90 61 60
        E 0 90 62 60
        E 0 90 63 60
        E 60 80 3e 00
        E 0 80 49 00
        E 0 80 4b 00
        E 0 80 55 00
        E 0 80 57 00
        E 0 80 61 00
        E 0 80 62 00
        E 0 80 63 00
        E 60 90 61 60
        E 0 90 62 60
        E 0 90 63 60
        E 60 80 61 00
        E 0 80 62 00
        E 0 80 63 00
        E 60 90 49 60
        E 0 90 4b 60
        E 0 90 55 60
        E 0 90 57 60
        E 0 90 61 60
        E 0 90 62 60
        E 0 90 63 60
        E 60 80 49 00
        E 0 80 4b 00
        E 0 80 55 00
        E 0 80 57 00
        E 0 80 61 00
        E 0 80 62 00
        E 0 80 63 00
        E 180 90 49 60
        E 0 90 4b 60
        E 0 90 55 60
        E 0 90 57 60
        E 0 90 61 60
        E 0 90 62 60
        E 0 90 63 60
        E 60 80 49 00
        E 0 80 4b 00
        E 0 80 55 00
        E 0 80 57 00
        E 0 80 61 00
        E 0 80 62 00
        E 0 80 63 00
        E 180 90 55 60
        E 0 90 57 60
        E 0 90 61 60
        E 0 90 62 60
        E 0 90 63 60
        E 60 80 55 00
        E 0 80 57 00
        E 0 80 61 00
        E 0 80 62 00
        E 0 80 63 00
        E 180 90 3c 60
        E 0 90 48 60
        E 0 90 49 60
        E 0 90 54 60
        E 0 90 55 60
        E 0 90 60 60
        E 0 90 61 60
        E 60 80 3c 00
        E 0 80 48 00
        E 0 80 49 00
        E 0 80 54 00
        E 0 80 55 00
        E 0 80 60 00
        E 0 80 61 00
        E 180 90 48 60
        E 0 90 49 60
        E 0 90 54 60
        E 0 90 55 60
        E 0 90 60 60
        E 0 90 61 60
        E 60 80 48 00
        E 0 80 49 00
        E 0 80 54 00
        E 0 80 55 00
        E 0 80 60 00
        E 0 80 61 00
        E 180 90 3c 60
        E 0 90 48 60
        E 0 90 49 60
        E 0 90 54 60
        E 0 90 55 60
        E 0 90 60 60
        E 0 90 61 60
        E 60 80 3c 00
        E 0 80 48 00
        E 0 80 49 00
        E 0 80 54 00
        E 0 80 55 00
        E 0 80 60 00
        E 0 80 61 00
        E 180 90 48 60
        E 0 90 49 60
        E 0 90 54 60
        E 0 90 55 60
        E 0 90 60 60
        E 0 90 61 60
        E 60 80 48 00
        E 0 80 49 00
        E 0 80 54 00
        E 0 80 55 00
        E 0 80 60 00
        E 0 80 61 00
        E 180 90 3c 60
        E 0 90 48 60
        E 0 90 49 60
        E 0 90 54 60
        E 0 90 55 60
        E 0 90 60 60
        E 0 90 61 60
        E 0 90 62 60
        E 60 80 3c 00
        E 0 80 48 00
        E 0 80 49 00
        E 0 80 54 00
        E 0 80 55 00
        E 0 80 60 00
        E 0 80 61 00
        E 0 80 62 00
        E 60 90 60 60
        E 0 90 61 60
        E 0 90 62 60
        E 60 80 60 00
        E 0 80 61 00
        E 0 80 62 00
        E 60 90 48 60
        E 0 90 49 60
        E 0 90 54 60
        E 0 90 55 60
        E 0 90 60 60
        E 0 90 61 60
        E 0 90 62 60
        E 60 80 48 00
        E 0 80 49 00
        E 0 80 54 00
        E 0 80 55 00
        E 0 80 60 00
        E 0 80 61 00
        E 0 80 62 00
        E 180 90 48 60
        E 0 90 49 60
        E 0 90 54 60
        E 0 90 55 60
        E 0 90 60 60
        E 0 90 61 60
        E 0 90 62 60
        E 60 80 48 00
        E 0 80 49 00
        E 0 80 54 00
        E 0 80 55 00
        E 0 80 60 00
        E 0 80 61 00
        E 0 80 62 00
        E 180 90 54 60
        E 0 90 55 60
        E 0 90 60 60
        E 0 90 61 60
        E 0 90 62 60
        E 60 80 54 00
        E 0 80 55 00
        E 0 80 60 00
        E 0 80 61 00
        E 0 80 62 00
        E 63 80 74 00
        E 117 90 3e 60
        E 0 90 49 60
        E 0 90 4a 60
        E 0 90 55 60
        E 0 90 56 60
        E 0 90 61 60
        E 0 90 62 60
        E 60 80 3e 00
        E 0 80 49 00
        E 0 80 4a 00
        E 0 80 55 00
        E 0 80 56 00
        E 0 80 61 00
        E 0 80 62 00
        E 180 90 49 60
        E 0 90 4a 60
        E 0 90 55 60
        E 0 90 56 60
        E 0 90 61 60
        E 0 90 62 60
        E 60 80 49 00
        E 0 80 4a 00
        E 0 80 55 00
        E 0 80 56 00
        E 0 80 61 00
        E 0 80 62 00
        E 180 90 49 60
        E 0 90 4a 60
        E 0 90 55 60
        E 0 90 56 60
        E 0 90 61 60
        E 0 90 62 60
        E 60 80 49 00
        E 0 80 4a 00
        E 0 80 55 00
        E 0 80 56 00
        E 0 80 61 00
        E 0 80 62 00
        E 180 90 55 60
        E 0 90 56 60
        E 0 90 61 60
        E 0 90 62 60
        E 60 80 55 00
        E 0 80 56 00
        E 0 80 61 00
        E 0 80 62 00
        E 180 90 3e 60
        E 0 90 49 60
        E 0 90 4b 60
        E 0 90 55 60
        E 0 90 57 60
        E 0 90 61 60
        E 0 90 62 60
        E 0 90 63 60
        E 60 80 3e 00
        E 0 80 49 00
        E 0 80 4b 00
        E 0 80 55 00
        E 0 80 57 00
        E 0 80 61 00
        E 0 80 62 00
        E 0 80 63 00
        E 60 90 61 60
        E 0 90 62 60
        E 0 90 63 60
        E 60 80 61 00
        E 0 80 62 00
        E 0 80 63 00
        E 60 90 49 60
        E 0 90 4b 60
        E 0 90 55 60
        E 0 90 57 60
        E 0 90 61 60
        E 0 90 62 60
        E 0 90 63 60
        E 60 80 49 00
        E 0 80 4b 00
        E 0 80 55 00
        E 0 80 57 00
        E 0 80 61 00
        E 0 80 62 00
        E 0 80 63 00
        E 180 90 49 60
        E 0 90 4b 60
        E 0 90 55 60
        E 0 90 57 60
        E 0 90 61 60
        E 0 90 62 60
        E 0 90 63 60
        E 60 80 49 00
        E 0 80 4b 00
        E 0 80 55 00
        E 0 80 57 00
        E 0 80 61 00
        E 0 80 62 00
        E 0 80 63 00
        E 180 90 55 60
        E 0 90 57 60
        E 0 90 61 60
        E 0 90 62 60
        E 0 90 63 60
        E 60 80 55 00
        E 0 80 57 00
        E 0 80 61 00
        E 0 80 62 00
        E 0 80 63 00
        E 180 90 3c 60
        E 0 90 48 60
        E 0 90 49 60
        E 0 90 54 60
        E 0 90 55 60
        E 0 90 60 60
        E 0 90 61 60
        E 60 80 3c 00
        E 0 80 48 00
        E 0 80 49 00
        E 0 80 54 00
        E 0 80 55 00
        E 0 80 60 00
        E 0 80 61 00
        E 180 90 48 60
        E 0 90 49 60
        E 0 90 54 60
        E 0 90 55 60
        E 0 90 60 60
        E 0 90 61 60
        E 60 80 48 00
        E 0 80 49 00
        E 0 80 54 00
        E 0 80 55 00
        E 0 80 60 00
        E 0 80 61 00
        E 180 90 3c 60
        E 0 90 48 60
        E 0 90 49 60
        E 0 90 54 60
        E 0 90 55 60
        E 0 90 60 60
        E 0 90 61 60
        E 60 80 3c 00
        E 0 80 48 00
        E 0 80 49 00
        E 0 80 54 00
        E 0 80 55 00
        E 0 80 60 00
        E 0 80 61 00
        E 180 90 48 60
        E 0 90 49 60
        E 0 90 54 60
        E 0 90 55 60
        E 0 90 60 60
        E 0 90 61 60
        E 60 80 48 00
        E 0 80 49 00
        E 0 80 54 00
        E 0 80 55 00
        E 0 80 60 00
        E 0 80 61 00
        E 180 90 3c 60
        E 0 90 48 60
        E 0 90 49 60
        E 0 90 54 60
        E 0 90 55 60
        E 0 90 60 60
        E 0 90 61 60
        E 0 90 62 60
        E 60 80 3c 00
        E 0 80 48 00
        E 0 80 49 00
        E 0 80 54 00
        E 0 80 55 00
        E 0 80 60 00
        E 0 80 61 00
        E 0 80 62 00
        E 60 90 60 60
        E 0 90 61 60
        E 0 90 62 60
        E 60 80 60 00
        E 0 80 61 00
        E 0 80 62 00
        E 60 90 48 60
        E 0 90 49 60
        E 0 90 54 60
        E 0 90 55 60
        E 0 90 60 60
        E 0 90 61 60
        E 0 90 62 60
        E 60 80 48 00
        E 0 80 49 00
        E 0 80 54 00
        E 0 80 55 00
        E 0 80 60 00
        E 0 80 61 00
        E 0 80 62 00
        E 180 90 48 60
        E 0 90 49 60
        E 0 90 54 60
        E 0 90 55 60
        E 0 90 60 60
        E 0 90 61 60
        E 0 90 62 60
        E 60 80 48 00
        E 0 80 49 00
        E 0 80 54 00
        E 0 80 55 00
        E 0 80 60 00
        E 0 80 61 00
        E 0 80 62 00
        E 180 90 54 60
        E 0 90 55 60
        E 0 90 60 60
        E 0 90 61 60
        E 0 90 62 60
        E 60 80 54 00
        E 0 80 55 00
        E 0 80 60 00
        E 0 80 61 00
        E 0 80 62 00
        E 180 90 3e 60
        E 0 90 49 60
        E 0 90 4a 60
        E 0 90 55 60
        E 0 90 56 60
        E 0 90 61 60
        E 0 90 62 60
        E 60 80 3e 00
        E 0 80 49 00
        E 0 80 4a 00
        E 0 80 55 00
        E 0 80 56 00
        E 0 80 61 00
        E 0 80 62 00
        E 180 90 49 60
        E 0 90 4a 60
        E 0 90 55 60
        E 0 90 56 60
        E 0 90 61 60
        E 0 90 62 60
        E 60 80 49 00
        E 0 80 4a 00
        E 0 80 55 00
        E 0 80 56 00
        E 0 80 61 00
        E 0 80 62 00
        E 180 90 49 60
        E 0 90 4a 60
        E 0 90 55 60
        E 0 90 56 60
        E 0 90 61 60
        E 0 90 62 60
        E 60 80 49 00
        E 0 80 4a 00
        E 0 80 55 00
        E 0 80 56 00
        E 0 80 61 00
        E 0 80 62 00
        E 180 90 55 60
        E 0 90 56 60
        E 0 90 61 60
        E 0 90 62 60
        E 60 80 55 00
        E 0 80 56 00
        E 0 80 61 00
        E 0 80 62 00
        E 180 90 3e 60
        E 0 90 49 60
        E 0 90 4b 60
        E 0 90 55 60
        E 0 90 57 60
        E 0 90 61 60
        E 0 90 62 60
        E 0 90 63 60
        E 60 80 3e 00
        E 0 80 49 00
        E 0 80 4b 00
        E 0 80 55 00
        E 0 80 57 00
        E 0 80 61 00
        E 0 80 62 00
        E 0 80 63 00
        E 60 90 61 60
        E 0 90 62 60
        E 0 90 63 60
        E 60 80 61 00
        E 0 80 62 00
        E 0 80 63 00
        E 60 90 49 60
        E 0 90 4b 60
        E 0 90 55 60
        E 0 90 57 60
        E 0 90 61 60
        E 0 90 62 60
        E 0 90 63 60
        E 60 80 49 00
        E 0 80 4b 00
        E 0 80 55 00
        E 0 80 57 00
        E 0 80 61 00
        E 0 80 62 00
        E 0 80 63 00
        E 180 90 49 60
        E 0 90 4b 60
        E 0 90 55 60
        E 0 90 57 60
        E 0 90 61 60
        E 0 90 62 60
        E 0 90 63 60
        E 60 80 49 00
        E 0 80 4b 00
        E 0 80 55 00
        E 0 80 57 00
        E 0 80 61 00
        E 0 80 62 00
        E 0 80 63 00
        E 180 90 55 60
        E 0 90 57 60
        E 0 90 61 60
        E 0 90 62 60
        E 0 90 63 60
        E 60 80 55 00
        E 0 80 57 00
        E 0 80 61 00
        E 0 80 62 00
        E 0 80 63 00
        E 180 90 3c 60
        E 0 90 48 60
        E 0 90 49 60
        E 0 90 54 60
        E 0 90 55 60
        E 0 90 60 60
        E 0 90 61 60
        E 60 80 3c 00
        E 0 80 48 00
        E 0 80 49 00
        E 0 80 54 00
        E 0 80 55 00
        E 0 80 60 00
        E 0 80 61 00
        E 180 90 48 60
        E 0 90 49 60
        E 0 90 54 60
        E 0 90 55 60
        E 0 90 60 60
        E 0 90 61 60
        E 60 80 48 00
        E 0 80 49 00
        E 0 80 54 00
        E 0 80 55 00
        E 0 80 60 00
        E 0 80 61 00
        E 180 90 3c 60
        E 0 90 48 60
        E 0 90 49 60
        E 0 90 54 60
        E 0 90 55 60
        E 0 90 60 60
        E 0 90 61 60
        E 60 80 3c 00
        E 0 80 48 00
        E 0 80 49 00
        E 0 80 54 00
        E 0 80 55 00
        E 0 80 60 00
        E 0 80 61 00
        E 180 90 48 60
        E 0 90 49 60
        E 0 90 54 60
        E 0 90 55 60
        E 0 90 60 60
        E 0 90 61 60
        E 60 80 48 00
        E 0 80 49 00
        E 0 80 54 00
        E 0 80 55 00
        E 0 80 60 00
        E 0 80 61 00
        E 180 90 3c 60
        E 0 90 48 60
        E 0 90 49 60
        E 0 90 54 60
        E 0 90 55 60
        E 0 90 60 60
        E 0 90 61 60
        E 0 90 62 60
        E 60 80 3c 00
        E 0 80 48 00
        E 0 80 49 00
        E 0 80 54 00
        E 0 80 55 00
        E 0 80 60 00
        E 0 80 61 00
        E 0 80 62 00
        E 60 90 60 60
        E 0 90 61 60
        E 0 90 62 60
        E 60 80 60 00
        E 0 80 61 00
        E 0 80 62 00
        E 60 90 48 60
        E 0 90 49 60
        E 0 90 54 60
        E 0 90 55 60
        E 0 90 60 60
        E 0 90 61 60
        E 0 90 62 60
        E 60 80 48 00
        E 0 80 49 00
        E 0 80 54 00
        E 0 80 55 00
        E 0 80 60 00
        E 0 80 61 00
        E 0 80 62 00
        E 180 90 48 60
        E 0 90 49 60
        E 0 90 54 60
        E 0 90 55 60
        E 0 90 60 60
        E 0 90 61 60
        E 0 90 62 60
        E 60 80 48 00
        E 0 80 49 00
        E 0 80 54 00
        E 0 80 55 00
        E 0 80 60 00
        E 0 80 61 00
        E 0 80 62 00
        E 180 90 54 60
        E 0 90 55 60
        E 0 90 60 60
        E 0 90 61 60
        E 0 90 62 60
        E 60 80 54 00
        E 0 80 55 00
        E 0 80 60 00
        E 0 80 61 00
        E 0 80 62 00
        E 180 90 3e 60
        E 0 90 49 60
        E 0 90 4a 60
        E 0 90 55 60
        E 0 90 56 60
        E 0 90 61 60
        E 0 90 62 60
        E 60 80 3e 00
        E 0 80 49 00
        E 0 80 4a 00
        E 0 80 55 00
        E 0 80 56 00
        E 0 80 61 00
        E 0 80 62 00
        E 180 90 49 60
        E 0 90 4a 60
        E 0 90 55 60
        E 0 90 56 60
        E 0 90 61 60
        E 0 90 62 60
        E 60 80 49 00
        E 0 80 4a 00
        E 0 80 55 00
        E 0 80 56 00
        E 0 80 61 00
        E 0 80 62 00
        E 180 90 49 60
        E 0 90 4a 60
        E 0 90 55 60
        E 0 90 56 60
        E 0 90 61 60
        E 0 90 62 60
        E 60 80 49 00
        E 0 80 4a 00
        E 0 80 55 00
        E 0 80 56 00
        E 0 80 61 00
        E 0 80 62 00
        E 180 90 55 60
        E 0 90 56 60
        E 0 90 61 60
        E 0 90 62 60
        E 60 80 55 00
        E 0 80 56 00
        E 0 80 61 00
        E 0 80 62 00
        E 180 90 3e 60
        E 0 90 49 60
        E 0 90 4b 60
        E 0 90 55 60
        E 0 90 57 60
        E 0 90 61 60
        E 0 90 62 60
        E 0 90 63 60
        E 60 80 3e 00
        E 0 80 49 00
        E 0 80 4b 00
        E 0 80 55 00
        E 0 80 57 00
        E 0 80 61 00
        E 0 80 62 00
        E 0 80 63 00
        E 60 90 61 60
        E 0 90 62 60
        E 0 90 63 60
        E 60 80 61 00
        E 0 80 62 00
        E 0 80 63 00
        E 60 90 49 60
        E 0 90 4b 60
        E 0 90 55 60
        E 0 90 57 60
        E 0 90 61 60
        E 0 90 62 60
        E 0 90 63 60
        E 60 80 49 00
        E 0 80 4b 00
        E 0 80 55 00
        E 0 80 57 00
        E 0 80 61 00
        E 0 80 62 00
        E 0 80 63 00
        E 180 90 49 60
        E 0 90 4b 60
        E 0 90 55 60
        E 0 90 57 60
        E 0 90 61 60
        E 0 90 62 60
        E 0 90 63 60
        E 60 80 49 00
        E 0 80 4b 00
        E 0 80 55 00
        E 0 80 57 00
        E 0 80 61 00
        E 0 80 62 00
        E 0 80 63 00
        E 180 90 55 60
        E 0 90 57 60
        E 0 90 61 60
        E 0 90 62 60
        E 0 90 63 60
        E 60 80 55 00
        E 0 80 57 00
        E 0 80 61 00
        E 0 80 62 00
        E 0 80 63 00
        E 180 90 3c 60
        E 0 90 48 60
        E 0 90 49 60
        E 0 90 54 60
        E 0 90 55 60
        E 0 90 60 60
        E 0 90 61 60
        E 60 80 3c 00
        E 0 80 48 00
        E 0 80 49 00
        E 0 80 54 00
        E 0 80 55 00
        E 0 80 60 00
        E 0 80 61 00
        E 180 90 48 60
        E 0 90 49 60
        E 0 90 54 60
        E 0 90 55 60
        E 0 90 60 60
        E 0 90 61 60
        E 60 80 48 00
        E 0 80 49 00
        E 0 80 54 00
        E 0 80 55 00
        E 0 80 60 00
        E 0 80 61 00
        E 180 90 3c 60
        E 0 90 48 60
        E 0 90 49 60
        E 0 90 54 60
        E 0 90 55 60
        E 0 90 60 60
        E 0 90 61 60
        E 60 80 3c 00
        E 0 80 48 00
        E 0 80 49 00
        E 0 80 54 00
        E 0 80 55 00
        E 0 80 60 00
        E 0 80 61 00
        E 180 90 48 60
        E 0 90 49 60
        E 0 90 54 60
        E 0 90 55 60
        E 0 90 60 60
        E 0 90 61 60
        E 60 80 48 00
        E 0 80 49 00
        E 0 80 54 00
        E 0 80 55 00
        E 0 80 60 00
        E 0 80 61 00
        E 180 90 3c 60
        E 0 90 48 60
        E 0 90 49 60
        E 0 90 54 60
        E 0 90 55 60
        E 0 90 60 60
        E 0 90 61 60
        E 0 90 62 60
        E 60 80 3c 00
        E 0 80 48 00
        E 0 80 49 00
        E 0 80 54 00
        E 0 80 55 00
        E 0 80 60 00
        E 0 80 61 00
        E 0 80 62 00
        E 60 90 60 60
        E 0 90 61 60
        E 0 90 62 60
        E 60 80 60 00
        E 0 80 61 00
        E 0 80 62 00
        E 60 90 48 60
        E 0 90 49 60
        E 0 90 54 60
        E 0 90 55 60
        E 0 90 60 60
        E 0 90 61 60
        E 0 90 62 60
        E 60 80 48 00
        E 0 80 49 00
        E 0 80 54 00
        E 0 80 55 00
        E 0 80 60 00
        E 0 80 61 00
        E 0 80 62 00
        E 180 90 48 60
        E 0 90 49 60
        E 0 90 54 60
        E 0 90 55 60
        E 0 90 60 60
        E 0 90 61 60
        E 0 90 62 60
        E 60 80 48 00
        E 0 80 49 00
        E 0 80 54 00
        E 0 80 55 00
        E 0 80 60 00
        E 0 80 61 00
        E 0 80 62 00
        E 180 90 54 60
        E 0 90 55 60
        E 0 90 60 60
        E 0 90 61 60
        E 0 90 62 60
        E 60 80 54 00
        E 0 80 55 00
        E 0 80 60 00
        E 0 80 61 00
        E 0 80 62 00
        E 180 90 3e 60
        E 0 90 49 60
        E 0 90 4a 60
        E 0 90 55 60
        E 0 90 56 60
        E 0 90 61 60
        E 0 90 62 60
        E 60 80 3e 00
        E 0 80 49 00
        E 0 80 4a 00
        E 0 80 55 00
        E 0 80 56 00
        E 0 80 61 00
        E 0 80 62 00
        E 180 90 49 60
        E 0 90 4a 60
        E 0 90 55 60
        E 0 90 56 60
        E 0 90 61 60
        E 0 90 62 60
        E 60 80 49 00
        E 0 80 4a 00
        E 0 80 55 00
        E 0 80 56 00
        E 0 80 61 00
        E 0 80 62 00
        E 180 90 49 60
        E 0 90 4a 60
        E 0 90 55 60
        E 0 90 56 60
        E 0 90 61 60
        E 0 90 62 60
        E 60 80 49 00
        E 0 80 4a 00
        E 0 80 55 00
        E 0 80 56 00
        E 0 80 61 00
        E 0 80 62 00
        E 180 90 55 60
        E 0 90 56 60
        E 0 90 61 60
        E 0 90 62 60
        E 60 80 55 00
        E 0 80 56 00
        E 0 80 61 00
        E 0 80 62 00
        E 180 90 3e 60
        E 0 90 49 60
        E 0 90 4b 60
        E 0 90 55 60
        E 0 90 57 60
        E 0 90 61 60
        E 0 90 62 60
        E 0 90 63 60
        E 60 80 3e 00
        E 0 80 49 00
        E 0 80 4b 00
        E 0 80 55 00
        E 0 80 57 00
        E 0 80 61 00
        E 0 80 62 00
        E 0 80 63 00
        E 60 90 61 60
        E 0 90 62 60
        E 0 90 63 60
        E 60 80 61 00
        E 0 80 62 00
        E 0 80 63 00
        E 60 90 49 60
        E 0 90 4b 60
        E 0 90 55 60
        E 0 90 57 60
        E 0 90 61 60
        E 0 90 62 60
        E 0 90 63 60
        E 60 80 49 00
        E 0 80 4b 00
        E 0 80 55 00
        E 0 80 57 00
        E 0 80 61 00
        E 0 80 62 00
        E 0 80 63 00
        E 180 90 49 60
        E 0 90 4b 60
        E 0 90 55 60
        E 0 90 57 60
        E 0 90 61 60
        E 0 90 62 60
        E 0 90 63 60
        E 60 80 49 00
        E 0 80 4b 00
        E 0 80 55 00
        E 0 80 57 00
        E 0 80 61 00
        E 0 80 62 00
        E 0 80 63 00
        E 180 90 55 60
        E 0 90 57 60
        E 0 90 61 60
        E 0 90 62 60
        E 0 90 63 60
        E 60 80 55 00
        E 0 80 57 00
        E 0 80 61 00
        E 0 80 62 00
        E 0 80 63 00
        E 180 90 3c 60
        E 0 90 48 60
        E 0 90 49 60
        E 0 90 54 60
        E 0 90 55 60
        E 0 90 60 60
        E 0 90 61 60
        E 60 80 3c 00
        E 0 80 48 00
        E 0 80 49 00
        E 0 80 54 00
        E 0 80 55 00
        E 0 80 60 00
        E 0 80 61 00
        E 180 90 48 60
        E 0 90 49 60
        E 0 90 54 60
        E 0 90 55 60
        E 0 90 60 60
        E 0 90 61 60
        E 60 80 48 00
        E 0 80 49 00
        E 0 80 54 00
        E 0 80 55 00
        E 0 80 60 00
        E 0 80 61 00
        E 180 90 3c 60
        E 0 90 48 60
        E 0 90 49 60
        E 0 90 54 60
        E 0 90 55 60
        E 0 90 60 60
        E 0 90 61 60
        E 60 80 3c 00
        E 0 80 48 00
        E 0 80 49 00
        E 0 80 54 00
        E 0 80 55 00
        E 0 80 60 00
        E 0 80 61 00
        E 180 90 48 60
        E 0 90 49 60
        E 0 90 54 60
        E 0 90 55 60
        E 0 90 60 60
        E 0 90 61 60
        E 60 80 48 00
        E 0 80 49 00
        E 0 80 54 00
        E 0 80 55 00
        E 0 80 60 00
        E 0 80 61 00
        E 180 90 3c 60
        E 0 90 48 60
        E 0 90 49 60
        E 0 90 54 60
        E 0 90 55 60
        E 0 90 60 60
        E 0 90 61 60
        E 0 90 62 60
        E 60 80 3c 00
        E 0 80 48 00
        E 0 80 49 00
        E 0 80 54 00
        E 0 80 55 00
        E 0 80 60 00
        E 0 80 61 00
        E 0 80 62 00
        E 60 90 60 60
        E 0 90 61 60
        E 0 90 62 60
        E 60 80 60 00
        E 0 80 61 00
        E 0 80 62 00
        E 60 90 48 60
        E 0 90 49 60
        E 0 90 54 60
        E 0 90 55 60
        E 0 90 60 60
        E 0 90 61 60
        E 0 90 62 60
        E 60 80 48 00
        E 0 80 49 00
        E 0 80 54 00
        E 0 80 55 00
        E 0 80 60 00
        E 0 80 61 00
        E 0 80 62 00
        E 180 90 48 60
        E 0 90 49 60
        E 0 90 54 60
        E 0 90 55 60
        E 0 90 60 60
        E 0 90 61 60
        E 0 90 62 60
        E 60 80 48 00
        E 0 80 49 00
        E 0 80 54 00
        E 0 80 55 00
        E 0 80 60 00
        E 0 80 61 00
        E 0 80 62 00
        E 180 90 54 60
        E 0 90 55 60
        E 0 90 60 60
        E 0 90 61 60
        E 0 90 62 60
        E 60 80 54 00
        E 0 80 55 00
        E 0 80 60 00
        E 0 80 61 00
        E 0 80 62 00
        E 180 90 3e 60
        E 0 90 49 60
        E 0 90 4a 60
        E 0 90 55 60
        E 0 90 56 60
        E 0 90 61 60
        E 0 90 62 60
        E 60 80 3e 00
        E 0 80 49 00
        E 0 80 4a 00
        E 0 80 55 00
        E 0 80 56 00
        E 0 80 61 00
        E 0 80 62 00
        E 180 90 49 60
        E 0 90 4a 60
        E 0 90 55 60
        E 0 90 56 60
        E 0 90 61 60
        E 0 90 62 60
        E 60 80 49 00
        E 0 80 4a 00
        E 0 80 55 00
        E 0 80 56 00
        E 0 80 61 00
        E 0 80 62 00
        E 180 90 49 60
        E 0 90 4a 60
        E 0 90 55 60
        E 0 90 56 60
        E 0 90 61 60
        E 0 90 62 60
        E 60 80 49 00
        E 0 80 4a 00
        E 0 80 55 00
        E 0 80 56 00
        E 0 80 61 00
        E 0 80 62 00
        E 180 90 55 60
        E 0 90 56 60
        E 0 90 61 60
        E 0 90 62 60
        E 60 80 55 00
        E 0 80 56 00
        E 0 80 61 00
        E 0 80 62 00
        E 180 90 3e 60
        E 0 90 49 60
        E 0 90 4b 60
        E 0 90 55 60
        E 0 90 57 60
        E 0 90 61 60
        E 0 90 62 60
        E 0 90 63 60
        E 60 80 3e 00
        E 0 80 49 00
        E 0 80 4b 00
        E 0 80 55 00
        E 0 80 57 00
        E 0 80 61 00
        E 0 80 62 00
        E 0 80 63 00
        E 60 90 61 60
        E 0 90 62 60
        E 0 90 63 60
        E 60 80 61 00
        E 0 80 62 00
        E 0 80 63 00
        E 60 90 49 60
        E 0 90 4b 60
        E 0 90 55 60
        E 0 90 57 60
        E 0 90 61 60
        E 0 90 62 60
        E 0 90 63 60
        E 60 80 49 00
        E 0 80 4b 00
        E 0 80 55 00
        E 0 80 57 00
        E 0 80 61 00
        E 0 80 62 00
        E 0 80 63 00
        E 180 90 49 60
        E 0 90 4b 60
        E 0 90 55 60
        E 0 90 57 60
        E 0 90 61 60
        E 0 90 62 60
        E 0 90 63 60
        E 60 80 49 00
        E 0 80 4b 00
        E 0 80 55 00
        E 0 80 57 00
        E 0 80 61 00
        E 0 80 62 00
        E 0 80 63 00
        E 180 90 55 60
        E 0 90 57 60
        E 0 90 61 60
        E 0 90 62 60
        E 0 90 63 60
        E 60 80 55 00
        E 0 80 57 00
        E 0 80 61 00
        E 0 80 62 00
        E 0 80 63 00
        E 180 90 3c 60
        E 0 90 48 60
        E 0 90 49 60
        E 0 90 54 60
        E 0 90 55 60
        E 0 90 60 60
        E 0 90 61 60
        E 60 80 3c 00
        E 0 80 48 00
        E 0 80 49 00
        E 0 80 54 00
        E 0 80 55 00
        E 0 80 60 00
        E 0 80 61 00
        E 180 90 48 60
        E 0 90 49 60
        E 0 90 54 60
        E 0 90 55 60
        E 0 90 60 60
        E 0 90 61 60
        E 60 80 48 00
        E 0 80 49 00
        E 0 80 54 00
        E 0 80 55 00
        E 0 80 60 00
        E 0 80 61 00
        E 180 90 3c 60
        E 0 90 48 60
        E 0 90 49 60
        E 0 90 54 60
        E 0 90 55 60
        E 0 90 60 60
        E 0 90 61 60
        E 60 80 3c 00
        E 0 80 48 00
        E 0 80 49 00
        E 0 80 54 00
        E 0 80 55 00
        E 0 80 60 00
        E 0 80 61 00
        E 180 90 48 60
        E 0 90 49 60
        E 0 90 54 60
        E 0 90 55 60
        E 0 90 60 60
        E 0 90 61 60
        E 60 80 48 00
        E 0 80 49 00
        E 0 80 54 00
        E 0 80 55 00
        E 0 80 60 00
        E 0 80 61 00
        E 180 90 3c 60
        E 0 90 48 60
        E 0 90 49 60
        E 0 90 54 60
        E 0 90 55 60
        E 0 90 60 60
        E 0 90 61 60
        E 0 90 62 60
        E 60 80 3c 00
        E 0 80 48 00
        E 0 80 49 00
        E 0 80 54 00
        E 0 80 55 00
        E 0 80 60 00
        E 0 80 61 00
        E 0 80 62 00
        E 60 90 60 60
        E 0 90 61 60
        E 0 90 62 60
        E 60 80 60 00
        E 0 80 61 00
        E 0 80 62 00
        E 60 90 48 60
        E 0 90 49 60
        E 0 90 54 60
        E 0 90 55 60
        E 0 90 60 60
        E 0 90 61 60
        E 0 90 62 60
        E 60 80 48 00
        E 0 80 49 00
        E 0 80 54 00
        E 0 80 55 00
        E 0 80 60 00
        E 0 80 61 00
        E 0 80 62 00
        E 180 90 48 60
        E 0 90 49 60
        E 0 90 54 60
        E 0 90 55 60
        E 0 90 60 60
        E 0 90 61 60
        E 0 90 62 60
        E 60 80 48 00
        E 0 80 49 00
        E 0 80 54 00
        E 0 80 55 00
        E 0 80 60 00
        E 0 80 61 00
        E 0 80 62 00
        E 180 90 54 60
        E 0 90 55 60
        E 0 90 60 60
        E 0 90 61 60
        E 0 90 62 60
        E 60 80 54 00
        E 0 80 55 00
        E 0 80 60 00
        E 0 80 61 00
        E 0 80 62 00
        E 180 90 3e 60
        E 0 90 49 60
        E 0 90 4a 60
        E 0 90 55 60
        E 0 90 56 60
        E 0 90 61 60
        E 0 90 62 60
        E 60 80 3e 00
        E 0 80 49 00
        E 0 80 4a 00
        E 0 80 55 00
        E 0 80 56 00
        E 0 80 61 00
        E 0 80 62 00
        E 180 90 49 60
        E 0 90 4a 60
        E 0 90 55 60
        E 0 90 56 60
        E 0 90 61 60
        E 0 90 62 60
        E 60 80 49 00
        E 0 80 4a 00
        E 0 80 55 00
        E 0 80 56 00
        E 0 80 61 00
        E 0 80 62 00
        E 180 90 49 60
        E 0 90 4a 60
        E 0 90 55 60
        E 0 90 56 60
        E 0 90 61 60
        E 0 90 62 60
        E 60 80 49 00
        E 0 80 4a 00
        E 0 80 55 00
        E 0 80 56 00
        E 0 80 61 00
        E 0 80 62 00
        E 180 90 55 60
        E 0 90 56 60
        E 0 90 61 60
        E 0 90 62 60
        E 60 80 55 00
        E 0 80 56 00
        E 0 80 61 00
        E 0 80 62 00
        E 180 90 3e 60
        E 0 90 49 60
        E 0 90 4b 60
        E 0 90 55 60
        E 0 90 57 60
        E 0 90 61 60
        E 0 90 62 60
        E 0 90 63 60
        E 60 80 3e 00
        E 0 80 49 00
        E 0 80 4b 00
        E 0 80 55 00
        E 0 80 57 00
        E 0 80 61 00
        E 0 80 62 00
        E 0 80 63 00
        E 60 90 61 60
        E 0 90 62 60
        E 0 90 63 60
        E 60 80 61 00
        E 0 80 62 00
        E 0 80 63 00
        E 60 90 49 60
        E 0 90 4b 60
        E 0 90 55 60
        E 0 90 57 60
        E 0 90 61 60
        E 0 90 62 60
        E 0 90 63 60
        E 60 80 49 00
        E 0 80 4b 00
        E 0 80 55 00
        E 0 80 57 00
        E 0 80 61 00
        E 0 80 62 00
        E 0 80 63 00
        E 180 90 49 60
        E 0 90 4b 60
        E 0 90 55 60
        E 0 90 57 60
        E 0 90 61 60
        E 0 90 62 60
        E 0 90 63 60
        E 60 80 49 00
        E 0 80 4b 00
        E 0 80 55 00
        E 0 80 57 00
        E 0 80 61 00
        E 0 80 62 00
        E 0 80 63 00
        E 180 90 55 60
        E 0 90 57 60
        E 0 90 61 60
        E 0 90 62 60
        E 0 90 63 60
        E 60 80 55 00
        E 0 80 57 00
        E 0 80 61 00
        E 0 80 62 00
        E 0 80 63 00
        E 180 90 3c 60
        E 0 90 48 60
        E 0 90 49 60
        E 0 90 54 60
        E 0 90 55 60
        E 0 90 60 60
        E 0 90 61 60
        E 60 80 3c 00
        E 0 80 48 00
        E 0 80 49 00
        E 0 80 54 00
        E 0 80 55 00
        E 0 80 60 00
        E 0 80 61 00
        E 180 90 48 60
        E 0 90 49 60
        E 0 90 54 60
        E 0 90 55 60
        E 0 90 60 60
        E 0 90 61 60
        E 60 80 48 00
        E 0 80 49 00
        E 0 80 54 00
        E 0 80 55 00
        E 0 80 60 00
        E 0 80 61 00
        E 180 90 3c 60
        E 0 90 48 60
        E 0 90 49 60
        E 0 90 54 60
        E 0 90 55 60
        E 0 90 60 60
        E 0 90 61 60
        E 60 80 3c 00
        E 0 80 48 00
        E 0 80 49 00
        E 0 80 54 00
        E 0 80 55 00
        E 0 80 60 00
        E 0 80 61 00
        E 180 90 48 60
        E 0 90 49 60
        E 0 90 54 60
        E 0 90 55 60
        E 0 90 60 60
        E 0 90 61 60
        E 60 80 48 00
        E 0 80 49 00
        E 0 80 54 00
        E 0 80 55 00
        E 0 80 60 00
        E 0 80 61 00
        E 180 90 3c 60
        E 0 90 48 60
        E 0 90 49 60
        E 0 90 54 60
        E 0 90 55 60
        E 0 90 60 60
        E 0 90 61 60
        E 0 90 62 60
        E 60 80 3c 00
        E 0 80 48 00
        E 0 80 49 00
        E 0 80 54 00
        E 0 80 55 00
        E 0 80 60 00
        E 0 80 61 00
        E 0 80 62 00
        E 60 90 60 60
        E 0 90 61 60
        E 0 90 62 60
        E 60 80 60 00
        E 0 80 61 00
        E 0 80 62 00
        E 60 90 48 60
        E 0 90 49 60
        E 0 90 54 60
        E 0 90 55 60
        E 0 90 60 60
        E 0 90 61 60
        E 0 90 62 60
        E 60 80 48 00
        E 0 80 49 00
        E 0 80 54 00
        E 0 80 55 00
        E 0 80 60 00
        E 0 80 61 00
        E 0 80 62 00
        E 180 90 48 60
        E 0 90 49 60
        E 0 90 54 60
        E 0 90 55 60
        E 0 90 60 60
        E 0 90 61 60
        E 0 90 62 60
        E 60 80 48 00
        E 0 80 49 00
        E 0 80 54 00
        E 0 80 55 00
        E 0 80 60 00
        E 0 80 61 00
        E 0 80 62 00
        E 180 90 54 60
        E 0 90 55 60
        E 0 90 60 60
        E 0 90 61 60
        E 0 90 62 60
        E 60 80 54 00
        E 0 80 55 00
        E 0 80 60 00
        E 0 80 61 00
        E 0 80 62 00
        E 180 90 3e 60
        E 0 90 49 60
        E 0 90 4a 60
        E 0 90 55 60
        E 0 90 56 60
        E 0 90 61 60
        E 0 90 62 60
        E 3840 80 3e 00
        E 0 80 49 00
        E 0 80 4a 00
        E 0 80 55 00
        E 0 80 56 00
        E 0 80 61 00
        E 0 80 62 00
        <X 480 0
          /wFbaWRsZV9yZWFsdGltZV0=
        >
        E 2400 b0 7b 00
        GUID {14D9E950-FB92-4048-8603-8FD02AE3B865}
        IGNTEMPO 0 120.00000000 4 4
        SRCCOLOR 1199
        VELLANE 132 38 60
        COLORMAP "C:\Users\wejaa\AppData\Roaming\REAPER\Data\color_maps\rockband_guitarbass.png"
        TEXTSTRINGFILE "Text Events List.txt"
        CFGEDITVIEW -60412.210793 7.979182 0 12 0 0 0
        CFGEDIT 1 1 0 0 0 1 1 1 1 1 1 0.12500000 -8 -8 1370 736 1 2 1 2 0.00000000 0 0 0 0 0.500000 1 0 1.000000 64
        KEYSNAP 0 0 "102034050607" 0 "Major"
        EVTFILTER 0 -1 -1 -1 -1 0 1 0 0 -1.00000000 -1.00000000
      >
    >
  >
  <TRACK '{C298A11E-8E06-44B8-AA31-429ECCE3F0AF}'
    NAME "PART VOCALS"
    PEAKCOL 16810239
    BEAT -1
    AUTOMODE 0
    VOLPAN 0.99997469241676 0.00000000000000 -1.00000000000000 -1.00000000000000 1.00000000000000
    MUTESOLO 0 0 0
    IPHASE 0
    ISBUS 0 0
    BUSCOMP 1 0
    SHOWINMIX 1 0.666700 0.500000 1 0.500000 -1 -1 -1
    FREEMODE 0
    SEL 0
    REC 0 4096 1 7 0 0 0
    TRACKHEIGHT 0 0
    INQ 0 0 0 0.5000000000 100 0 0 100
    NCHAN 2
    FX 1
    TRACKID {C298A11E-8E06-44B8-AA31-429ECCE3F0AF}
    PERF 0
    MIDIOUT -1
    <MIDINOTENAMES
      0 105 "Phrase Marker"
      0 84 "C5"
      0 36 "C1"
      0 83 "B"
      0 82 "Bb"
      0 81 "A"
      0 80 "G#"
      0 79 "G"
      0 78 "F#"
      0 77 "F"
      0 76 "E"
      0 75 "Eb"
      0 74 "D"
      0 73 "C#"
      0 72 "C4"
      0 71 "B"
      0 70 "Bb"
      0 69 "A"
      0 68 "G#"
      0 67 "G"
      0 66 "F#"
      0 65 "F"
      0 64 "E"
      0 63 "Eb"
      0 62 "D"
      0 61 "C#"
      0 60 "C3"
      0 59 "B"
      0 58 "Bb"
      0 57 "A"
      0 56 "G#"
      0 55 "G"
      0 54 "F#"
      0 53 "F"
      0 52 "E"
      0 51 "Eb"
      0 50 "D"
      0 49 "C#"
      0 48 "C2"
      0 47 "B"
      0 46 "Bb"
      0 45 "A"
      0 44 "G#"
      0 43 "G"
      0 42 "F#"
      0 41 "F"
      0 40 "E"
      0 39 "Eb"
      0 38 "D"
      0 37 "C#"
      0 97 "Not Displayed Percussion"
      0 96 "Displayed Percussion"
      0 104 "----"
      0 95 "----"
      0 116 "OVERDRIVE"
      0 115 "----"
      0 0 "Range Shift"
      0 1 "Lyric Shift"
    >
    MAINSEND 1 0
    <FXCHAIN
      WNDRECT 581 377 716 493
      SHOW 0
      LASTSEL 1
      DOCKED 0
      BYPASS 0 0
      <JS "IX/MIDI_Tool II" ""
        0.000000 85.000000 127.000000 0.000000 0.000000 0.000000 100.000000 0.000000 0.000000 127.000000 0.000000 0.000000 1.000000 0.000000 0.000000 - - - - - - - - - - - - - - - - - - - - - - - - - - - - - - - - - - - - - - - - - - - - - - - - - 
      >
      FLOATPOS 0 0 0 0
      FXID {CA785021-0433-497E-9A6C-EE23A1BC21B0}
      WAK 0
      BYPASS 0 0
      <VST "VSTi: ReaSynth (Cockos)" "reasynth.dll" 0 ""
        eXNlcu9e7f4AAAAAAgAAAAEAAAAAAAAAAgAAAAAAAAA4AAAAAAAAAA==
        AAAAAO++rd4N8K3eppvEOxe30ToAAAAAAAAAAAAAAACa9Q8/6WeIPQ==
        AAAAAAAAAD8AAIA/AAAAAAAAAD8AAAAAAAA=
      >
      FLOATPOS 32 32 338 405
      FXID {F124DD19-73B4-4CD5-B659-E246F2A3D0B3}
      WAK 0
    >
    <ITEM
      POSITION 0.00000000000000
      SNAPOFFS 0.00000000000000
      LENGTH 194.83196922085079
      LOOP 0
      ALLTAKES 0
      SEL 0
      FADEIN 1 0.000000 0.000000 1 0
      FADEOUT 1 0.000000 0.000000 1 0
      MUTE 0
      IGUID {9C9617EC-369A-41B9-80F6-31F4222F13F6}
      IID 10
      NAME "PART VOCALS"
      VOLPAN 1.000000 0.000000 1.000000 -1.000000
      SOFFS 0.00000000000000 0.00000000000000
      PLAYRATE 1.00000000000000 1 0.00000000000000 -65536
      CHANMODE 0
      GUID {8E872349-00D8-4243-95D7-0B92852E4EE5}
      <SOURCE MIDI
        HASDATA 1 480 QN
        POOLEDEVTS {3264059F-24D0-45EA-BEA1-04D072CF47B1}
        <X 0 0
          /wNQQVJUIFZPQ0FMUw==
        >
        <X 3840 0
          /wFbaWRsZV0=
        >
        <X 30720 0
          /wFbbWVsbG93XQ==
        >
        E 960 90 69 59
        <X 456 0
          /wVNaS0=
        >
        E 0 90 31 69
        E 224 80 31 00
        <X 45 0
          /wVuw6Q=
        >
        E 0 90 31 6b
        E 196 80 31 00
        <X 109 0
          /wVoYS0=
        >
        E 0 90 2f 6b
        E 152 80 2f 00
        <X 49 0
          /wVsdS0=
        >
        E 0 90 2f 6b
        E 149 80 2f 00
        <X 61 0
          /wVhbg==
        >
        E 0 90 2f 6b
        E 180 80 2f 00
        <X 230 0
          /wVzaS0=
        >
        E 0 90 2c 48
        E 273 80 2c 00
        <X 75 0
          /wVudXQ=
        >
        E 0 90 2c 59
        E 225 80 2c 00
        <X 209 0
          /wV0w6RuLQ==
        >
        E 0 90 2d 71
        E 540 80 2d 00
        <X 179 0
          /wVuZQ==
        >
        E 0 90 2f 68
        E 361 80 2f 00
        E 607 80 69 00
        E 3360 90 69 59
        <X 432 0
          /wVNaXMt
        >
        E 0 90 31 69
        E 191 80 31 00
        <X 44 0
          /wVzw6Q=
        >
        E 0 90 31 6b
        E 198 80 31 00
        <X 92 0
          /wVwby0=
        >
        E 0 90 2f 6b
        E 197 80 2f 00
        <X 53 0
          /wVsaWkt
        >
        E 0 90 2f 6b
        E 174 80 2f 00
        <X 42 0
          /wVzaQ==
        >
        E 0 90 2f 6b
        E 219 80 2f 00
        <X 83 0
          /wVvbg==
        >
        E 0 90 2c 48
        E 181 80 2c 00
        <X 99 0
          /wV5cy0=
        >
        E 0 90 2c 59
        E 267 80 2c 00
        <X 160 0
          /wV0w6Qt
        >
        E 0 90 2c 59
        E 192 80 2c 00
        <X 78 0
          /wV2w6RtLQ==
        >
        E 0 90 2d 71
        E 558 80 2d 00
        <X 135 0
          /wVtZQ==
        >
        E 0 90 2f 68
        E 353 80 2f 00
        E 572 80 69 00
        E 3360 90 69 59
        E 0 90 74 59
        <X 374 0
          /wVKYQ==
        >
        E 0 90 32 59
        E 273 80 32 00
        <X 53 0
          /wVuZQ==
        >
        E 0 90 34 59
        E 96 80 34 00
        <X 96 0
          /wVzYS0=
        >
        E 0 90 32 59
        E 280 80 32 00
        <X 81 0
          /wVub28=
        >
        E 0 90 30 59
        E 525 80 30 00
        <X 533 0
          /wVzaS0=
        >
        E 0 90 32 59
        E 273 80 32 00
        <X 53 0
          /wVuw6Q=
        >
        E 0 90 34 59
        E 173 80 34 00
        <X 74 0
          /wVldA==
        >
        E 0 90 32 59
        E 115 80 32 00
        <X 154 0
          /wVvLQ==
        >
        E 0 90 30 59
        E 162 80 30 00
        <X 53 0
          /wVsZQ==
        >
        E 0 90 32 59
        E 153 80 32 00
        <X 81 0
          /wV5ay0=
        >
        E 0 90 32 59
        E 532 80 32 00
        <X 162 0
          /wVzaW4=
        >
        E 0 90 2d 59
        E 2242 80 2d 00
        E 422 80 69 00
        E 0 80 74 00
        E 720 90 69 59
        <X 419 0
          /wVKYQ==
        >
        E 0 90 32 59
        E 231 80 32 00
        <X 49 0
          /wVuZQ==
        >
        E 0 90 34 59
        E 117 80 34 00
        <X 96 0
          /wVzYS0=
        >
        E 0 90 32 59
        E 305 80 32 00
        <X 81 0
          /wVub28=
        >
        E 0 90 30 59
        E 496 80 30 00
        <X 562 0
          /wVqYQ==
        >
        E 0 90 32 59
        E 201 80 32 00
        <X 61 0
          /wVuZQ==
        >
        E 0 90 34 59
        E 117 80 34 00
        <X 87 0
          /wVzYS0=
        >
        E 0 90 32 59
        E 291 80 32 00
        <X 110 0
          /wVub28=
        >
        E 0 90 30 59
        E 385 80 30 00
        <X 105 0
          /wVuaWlu
        >
        E 0 90 32 59
        E 771 80 32 00
        <X 618 0
          /wUr
        >
        E 0 90 34 59
        E 1910 80 34 00
        E 188 80 69 00
        <X 117 0
          /wFbaW50ZW5zZV0=
        >
        E 123 90 69 59
        <X 246 0
          /wVQaWlzLQ==
        >
        E 0 90 41 59
        E 311 80 41 00
        <X 233 0
          /wVrYWE=
        >
        E 0 90 40 59
        E 1196 80 40 00
        <X 360 0
          /wVoZWk=
        >
        E 0 90 43 59
        E 157 80 43 00
        <X 132 0
          /wViZWkt
        >
        E 0 90 41 59
        E 216 80 41 00
        <X 55 0
          /wViaQ==
        >
        E 0 90 40 59
        E 179 80 40 00
        <X 40 0
          /wVhbi0=
        >
        E 0 90 3f 59
        E 161 80 3f 00
        <X 82 0
          /wVuYQ==
        >
        E 0 90 3d 59
        E 167 80 3d 00
        <X 94 0
          /wVtdWwt
        >
        E 0 90 3e 59
        E 167 80 3e 00
        <X 52 0
          /wVsZQ==
        >
        E 0 90 3d 59
        E 124 80 3d 00
        E 38 80 69 00
        E 44 90 69 59
        E 0 90 74 59
        <X 52 0
          /wVQaWlzLQ==
        >
        E 0 90 43 59
        E 343 80 43 00
        <X 204 0
          /wVrYWE=
        >
        E 0 90 41 59
        E 1127 80 41 00
        <X 437 0
          /wVoZWk=
        >
        E 0 90 43 59
        E 205 80 43 00
        <X 60 0
          /wViZWkt
        >
        E 0 90 41 59
        E 211 80 41 00
        <X 60 0
          /wViaQ==
        >
        E 0 90 40 59
        E 178 80 40 00
        <X 40 0
          /wVhbi0=
        >
        E 0 90 3f 59
        E 161 80 3f 00
        <X 82 0
          /wVuYQ==
        >
        E 0 90 3d 59
        E 167 80 3d 00
        <X 75 0
          /wVtdWwt
        >
        E 0 90 3e 59
        E 154 80 3e 00
        <X 41 0
          /wVsZQ==
        >
        E 0 90 3d 59
        E 104 80 3d 00
        E 27 80 69 00
        E 0 80 74 00
        E 93 90 69 59
        <X 51 0
          /wVQaWlzLQ==
        >
        E 0 90 43 59
        E 320 80 43 00
        <X 198 0
          /wVrYWE=
        >
        E 0 90 41 59
        E 1163 80 41 00
        <X 494 0
          /wVoZWk=
        >
        E 0 90 43 59
        E 179 80 43 00
        <X 77 0
          /wViZWkt
        >
        E 0 90 41 59
        E 171 80 41 00
        <X 79 0
          /wViaQ==
        >
        E 0 90 40 59
        E 119 80 40 00
        <X 99 0
          /wV0ZWV0LQ==
        >
        E 0 90 3f 59
        E 142 80 3f 00
        <X 77 0
          /wVow6Ru
        >
        E 0 90 3d 59
        E 171 80 3d 00
        <X 101 0
          /wVtdWwt
        >
        E 0 90 3e 59
        E 214 80 3e 00
        <X 41 0
          /wVsZQ==
        >
        E 0 90 3d 59
        E 134 80 3d 00
        <X 161 0
          /wVuaWlu
        >
        E 0 90 3f 59
        E 788 80 3f 00
        <X 97 0
          /wUr
        >
        E 0 90 40 59
        E 592 80 40 00
        <X 54 0
          /wUr
        >
        E 0 90 41 59
        E 194 80 41 00
        E 91 80 69 00
        <X 1433 0
          /wFbbWVsbG93XQ==
        >
        E 417 90 69 59
        <X 525 0
          /wVTaS0=
        >
        E 0 90 2f 69
        E 160 80 2f 00
        <X 71 0
          /wV0w6Q=
        >
        E 0 90 31 6b
        E 168 80 31 00
        <X 87 0
          /wVzYS0=
        >
        E 0 90 2f 6b
        E 187 80 2f 00
        <X 65 0
          /wVtYWE=
        >
        E 0 90 30 6b
        E 211 80 30 00
        <X 67 0
          /wVtaS0=
        >
        E 0 90 2f 6b
        E 155 80 2f 00
        <X 64 0
          /wVudW4=
        >
        E 0 90 2d 48
        E 166 80 2d 00
        <X 83 0
          /wVyYS0=
        >
        E 0 90 2c 59
        E 206 80 2c 00
        <X 44 0
          /wVkaS0=
        >
        E 0 90 2c 59
        E 188 80 2c 00
        <X 56 0
          /wVv
        >
        E 0 90 2c 59
        E 75 80 2c 00
        <X 85 0
          /wVzb2l0LQ==
        >
        E 0 90 2d 71
        E 589 80 2d 00
        <X 141 0
          /wV0YWE=
        >
        E 0 90 2f 68
        E 480 80 2f 00
        E 447 80 69 00
        E 3360 90 69 59
        E 0 90 74 59
        <X 575 0
          /wVLdWluLQ==
        >
        E 0 90 30 69
        E 122 80 30 00
        <X 113 0
          /wVrYQ==
        >
        E 0 90 30 6b
        E 166 80 30 00
        <X 81 0
          /wVsby0=
        >
        E 0 90 30 6b
        E 123 80 30 00
        <X 106 0
          /wVwdWwt
        >
        E 0 90 30 6b
        E 158 80 30 00
        <X 95 0
          /wV0YS0=
        >
        E 0 90 2f 6b
        E 150 80 2f 00
        <X 115 0
          /wVraW4=
        >
        E 0 90 2c 48
        E 128 80 2c 00
        <X 77 0
          /wVlLQ==
        >
        E 0 90 2c 59
        E 177 80 2c 00
        <X 85 0
          /wVsw6Qt
        >
        E 0 90 2c 59
        E 139 80 2c 00
        <X 79 0
          /wVtw6Q=
        >
        E 0 90 2c 59
        E 159 80 2c 00
        <X 95 0
          /wV2b2l0LQ==
        >
        E 0 90 2d 71
        E 478 80 2d 00
        <X 204 0
          /wV0YWE=
        >
        E 0 90 2f 68
        E 530 80 2f 00
        E 365 80 69 00
        E 0 80 74 00
        E 3527 90 69 59
        <X 320 0
          /wVKYQ==
        >
        E 0 90 32 59
        E 247 80 32 00
        <X 60 0
          /wVuZQ==
        >
        E 0 90 34 59
        E 96 80 34 00
        <X 115 0
          /wVzYS0=
        >
        E 0 90 32 59
        E 280 80 32 00
        <X 97 0
          /wVub28=
        >
        E 0 90 30 59
        E 509 80 30 00
        <X 533 0
          /wVzaS0=
        >
        E 0 90 34 59
        E 252 80 34 00
        <X 58 0
          /wVuw6Q=
        >
        E 0 90 32 59
        E 184 80 32 00
        <X 101 0
          /wVvLQ==
        >
        E 0 90 32 59
        E 164 80 32 00
        <X 51 0
          /wVsZXQ=
        >
        E 0 90 30 59
        E 162 80 30 00
        <X 259 0
          /wVrYXUt
        >
        E 0 90 32 59
        E 549 80 32 00
        <X 132 0
          /wVoZWlu
        >
        E 0 90 2d 59
        E 2299 80 2d 00
        E 492 80 69 00
        E 553 90 69 59
        <X 419 0
          /wVKYQ==
        >
        E 0 90 32 59
        E 269 80 32 00
        <X 72 0
          /wVuZQ==
        >
        E 0 90 34 59
        E 94 80 34 00
        <X 91 0
          /wVzYS0=
        >
        E 0 90 32 59
        E 294 80 32 00
        <X 81 0
          /wVub28=
        >
        E 0 90 30 59
        E 526 80 30 00
        <X 560 0
          /wVqYQ==
        >
        E 0 90 32 59
        E 201 80 32 00
        <X 61 0
          /wVuZQ==
        >
        E 0 90 34 59
        E 117 80 34 00
        <X 87 0
          /wVzYS0=
        >
        E 0 90 32 59
        E 291 80 32 00
        <X 110 0
          /wVub28=
        >
        E 0 90 30 59
        E 385 80 30 00
        <X 105 0
          /wVuaWlu
        >
        E 0 90 32 59
        E 771 80 32 00
        <X 568 0
          /wUr
        >
        E 0 90 34 59
        E 1995 80 34 00
        E 103 80 69 00
        <X 319 0
          /wFbaW50ZW5zZV0=
        >
        E 37 90 69 59
        E 0 90 74 59
        <X 246 0
          /wVQaWlzLQ==
        >
        E 0 90 41 59
        E 311 80 41 00
        <X 233 0
          /wVrYWE=
        >
        E 0 90 40 59
        E 1196 80 40 00
        <X 360 0
          /wVoZWk=
        >
        E 0 90 43 59
        E 157 80 43 00
        <X 97 0
          /wViZWkt
        >
        E 0 90 41 59
        E 216 80 41 00
        <X 55 0
          /wViaQ==
        >
        E 0 90 40 59
        E 121 80 40 00
        <X 86 0
          /wVhbi0=
        >
        E 0 90 3f 59
        E 173 80 3f 00
        <X 82 0
          /wVuYQ==
        >
        E 0 90 3d 59
        E 167 80 3d 00
        <X 94 0
          /wVtdWwt
        >
        E 0 90 3e 59
        E 167 80 3e 00
        <X 52 0
          /wVsZQ==
        >
        E 0 90 3d 59
        E 124 80 3d 00
        E 73 80 69 00
        E 0 80 74 00
        E 44 90 69 59
        <X 17 0
          /wVQaWlzLQ==
        >
        E 0 90 43 59
        E 343 80 43 00
        <X 204 0
          /wVrYWE=
        >
        E 0 90 41 59
        E 1100 80 41 00
        <X 499 0
          /wVoZWk=
        >
        E 0 90 43 59
        E 170 80 43 00
        <X 76 0
          /wViZWkt
        >
        E 0 90 41 59
        E 211 80 41 00
        <X 60 0
          /wViaQ==
        >
        E 0 90 40 59
        E 178 80 40 00
        <X 40 0
          /wVhbi0=
        >
        E 0 90 3f 59
        E 161 80 3f 00
        <X 59 0
          /wVuYQ==
        >
        E 0 90 3d 59
        E 167 80 3d 00
        <X 75 0
          /wVtdWwt
        >
        E 0 90 3e 59
        E 154 80 3e 00
        <X 41 0
          /wVsZQ==
        >
        E 0 90 3d 59
        E 104 80 3d 00
        E 69 80 69 00
        E 93 90 69 59
        <X 36 0
          /wVQaWlzLQ==
        >
        E 0 90 43 59
        E 320 80 43 00
        <X 198 0
          /wVrYWE=
        >
        E 0 90 41 59
        E 1232 80 41 00
        <X 428 0
          /wVoZWk=
        >
        E 0 90 43 59
        E 144 80 43 00
        <X 85 0
          /wViZWkt
        >
        E 0 90 41 59
        E 171 80 41 00
        <X 79 0
          /wViaQ==
        >
        E 0 90 40 59
        E 119 80 40 00
        <X 99 0
          /wV0ZWV0LQ==
        >
        E 0 90 3f 59
        E 142 80 3f 00
        <X 77 0
          /wVow6Ru
        >
        E 0 90 3d 59
        E 171 80 3d 00
        <X 101 0
          /wVtdWwt
        >
        E 0 90 3e 59
        E 214 80 3e 00
        <X 41 0
          /wVsZQ==
        >
        E 0 90 3d 59
        E 134 80 3d 00
        <X 150 0
          /wVuaWlu
        >
        E 0 90 3f 59
        E 718 80 3f 00
        <X 102 0
          /wUr
        >
        E 0 90 40 59
        E 527 80 40 00
        <X 73 0
          /wUr
        >
        E 0 90 41 59
        E 816 80 41 00
        E 156 80 69 00
        <X 863 0
          /wFbbWVsbG93XQ==
        >
        E 481 90 69 59
        E 0 90 74 59
        <X 232 0
          /wVFaQ==
        >
        E 0 90 30 59
        E 227 80 30 00
        <X 31 0
          /wVvLQ==
        >
        E 0 90 30 59
        E 193 80 30 00
        <X 29 0
          /wV2ZW4=
        >
        E 0 90 30 59
        E 192 80 30 00
        <X 59 0
          /wV0YS0=
        >
        E 0 90 2f 59
        E 178 80 2f 00
        <X 90 0
          /wVrYS0=
        >
        E 0 90 2f 59
        E 184 80 2f 00
        <X 26 0
          /wVuYQ==
        >
        E 0 90 2f 59
        E 221 80 2f 00
        <X 474 0
          /wVzaS0=
        >
        E 0 90 2d 59
        E 236 80 2d 00
        <X 32 0
          /wVudS0=
        >
        E 0 90 2d 59
        E 188 80 2d 00
        <X 33 0
          /wVh
        >
        E 0 90 2d 59
        E 207 80 2d 00
        <X 33 0
          /wVvLQ==
        >
        E 0 90 2e 59
        E 188 80 2e 00
        <X 31 0
          /wVkby0=
        >
        E 0 90 2e 59
        E 182 80 2e 00
        <X 88 0
          /wV0YQ==
        >
        E 0 90 2f 59
        E 233 80 2f 00
        E 133 80 69 00
        E 0 80 74 00
        E 240 90 69 59
        <X 149 0
          /wVJLQ==
        >
        E 0 90 30 59
        E 190 80 30 00
        <X 33 0
          /wVsb2kt
        >
        E 0 90 30 59
        E 193 80 30 00
        <X 51 0
          /wVuZW4=
        >
        E 0 90 30 59
        E 163 80 30 00
        <X 64 0
          /wV5cy0=
        >
        E 0 90 2f 59
        E 160 80 2f 00
        <X 80 0
          /wV0w6Qt
        >
        E 0 90 30 59
        E 177 80 30 00
        <X 59 0
          /wV2w6Q=
        >
        E 0 90 2f 59
        E 156 80 2f 00
        <X 47 0
          /wUr
        >
        E 0 90 2d 59
        E 133 80 2d 00
        <X 126 0
          /wVrw6Qt
        >
        E 0 90 2d 59
        E 189 80 2d 00
        <X 59 0
          /wVkZXMt
        >
        E 0 90 2d 59
        E 171 80 2d 00
        <X 63 0
          /wVzw6TDpG4=
        >
        E 0 90 2d 59
        E 399 80 2d 00
        <X 124 0
          /wVrdWst
        >
        E 0 90 2f 59
        E 246 80 2f 00
        <X 226 0
          /wVraS0=
        >
        E 0 90 2f 59
        E 211 80 2f 00
        <X 69 0
          /wVh
        >
        E 0 90 2d 59
        E 184 80 2d 00
        E 58 80 69 00
        E 180 90 69 59
        <X 73 0
          /wVFaQ==
        >
        E 0 90 30 59
        E 227 80 30 00
        <X 31 0
          /wVvLQ==
        >
        E 0 90 30 59
        E 155 80 30 00
        <X 43 0
          /wV2ZW4=
        >
        E 0 90 30 59
        E 165 80 30 00
        <X 86 0
          /wV0YS0=
        >
        E 0 90 2f 59
        E 173 80 2f 00
        <X 85 0
          /wVrYS0=
        >
        E 0 90 30 59
        E 171 80 30 00
        <X 39 0
          /wVuYQ==
        >
        E 0 90 2f 59
        E 221 80 2f 00
        <X 442 0
          /wVzaS0=
        >
        E 0 90 2d 59
        E 236 80 2d 00
        <X 32 0
          /wVudS0=
        >
        E 0 90 2d 59
        E 207 80 2d 00
        <X 38 0
          /wVh
        >
        E 0 90 2d 59
        E 207 80 2d 00
        <X 57 0
          /wVvLQ==
        >
        E 0 90 2e 59
        E 188 80 2e 00
        <X 31 0
          /wVkby0=
        >
        E 0 90 2e 59
        E 182 80 2e 00
        <X 72 0
          /wV0YQ==
        >
        E 0 90 2f 59
        E 201 80 2f 00
        E 118 80 69 00
        E 240 90 69 59
        E 0 90 74 59
        <X 115 0
          /wVMw6RtLQ==
        >
        E 0 90 30 59
        E 210 80 30 00
        <X 53 0
          /wVtaW4t
        >
        E 0 90 30 59
        E 163 80 30 00
        <X 55 0
          /wV0w6Q=
        >
        E 0 90 30 59
        E 123 80 30 00
        <X 66 0
          /wVzeS0=
        >
        E 0 90 30 59
        E 258 80 30 00
        <X 58 0
          /wVsaS0=
        >
        E 0 90 30 59
        E 192 80 30 00
        <X 80 0
          /wXDpA==
        >
        E 0 90 30 59
        E 164 80 30 00
        <X 314 0
          /wVpbC0=
        >
        E 0 90 2d 59
        E 396 80 2d 00
        <X 59 0
          /wVtYW4=
        >
        E 0 90 2d 59
        E 130 80 2d 00
        <X 58 0
          /wVuYXUt
        >
        E 0 90 2f 59
        E 379 80 2f 00
        <X 71 0
          /wVsby0=
        >
        E 0 90 2f 59
        E 278 80 2f 00
        <X 109 0
          /wVqYQ==
        >
        E 0 90 2d 59
        E 196 80 2d 00
        E 73 80 69 00
        E 0 80 74 00
        <X 22 0
          /wFbaW50ZW5zZV0=
        >
        E 58 90 69 59
        <X 67 0
          /wVQaWlzLQ==
        >
        E 0 90 41 59
        E 311 80 41 00
        <X 266 0
          /wVrYWE=
        >
        E 0 90 40 59
        E 1064 80 40 00
        <X 481 0
          /wVoZWk=
        >
        E 0 90 43 59
        E 157 80 43 00
        <X 97 0
          /wViZWkt
        >
        E 0 90 41 59
        E 216 80 41 00
        <X 55 0
          /wViaQ==
        >
        E 0 90 40 59
        E 121 80 40 00
        <X 87 0
          /wVhbi0=
        >
        E 0 90 3f 59
        E 172 80 3f 00
        <X 82 0
          /wVuYQ==
        >
        E 0 90 3d 59
        E 167 80 3d 00
        <X 94 0
          /wVtdWwt
        >
        E 0 90 3e 59
        E 167 80 3e 00
        <X 52 0
          /wVsZQ==
        >
        E 0 90 3d 59
        E 124 80 3d 00
        E 51 80 69 00
        E 44 90 69 59
        E 0 90 74 59
        <X 17 0
          /wVQaWlzLQ==
        >
        E 0 90 43 59
        E 343 80 43 00
        <X 204 0
          /wVrYWE=
        >
        E 0 90 41 59
        E 1100 80 41 00
        <X 534 0
          /wVoZWk=
        >
        E 0 90 43 59
        E 171 80 43 00
        <X 75 0
          /wViZWkt
        >
        E 0 90 41 59
        E 211 80 41 00
        <X 60 0
          /wViaQ==
        >
        E 0 90 40 59
        E 178 80 40 00
        <X 40 0
          /wVhbi0=
        >
        E 0 90 3f 59
        E 161 80 3f 00
        <X 59 0
          /wVuYQ==
        >
        E 0 90 3d 59
        E 167 80 3d 00
        <X 75 0
          /wVtdWwt
        >
        E 0 90 3e 59
        E 154 80 3e 00
        <X 41 0
          /wVsZQ==
        >
        E 0 90 3d 59
        E 104 80 3d 00
        E 34 80 69 00
        E 0 80 74 00
        E 93 90 69 59
        <X 36 0
          /wVQaWlzLQ==
        >
        E 0 90 43 59
        E 320 80 43 00
        <X 198 0
          /wVrYWE=
        >
        E 0 90 41 59
        E 1233 80 41 00
        <X 439 0
          /wVoZWk=
        >
        E 0 90 43 59
        E 144 80 43 00
        <X 85 0
          /wViZWkt
        >
        E 0 90 41 59
        E 171 80 41 00
        <X 79 0
          /wViaQ==
        >
        E 0 90 40 59
        E 119 80 40 00
        <X 83 0
          /wV0ZWV0LQ==
        >
        E 0 90 3f 59
        E 142 80 3f 00
        <X 93 0
          /wVow6Ru
        >
        E 0 90 3d 59
        E 155 80 3d 00
        <X 101 0
          /wVtdWwt
        >
        E 0 90 3e 59
        E 214 80 3e 00
        <X 41 0
          /wVsZQ==
        >
        E 0 90 3d 59
        E 134 80 3d 00
        <X 165 0
          /wVuaWlu
        >
        E 0 90 3f 59
        E 718 80 3f 00
        <X 102 0
          /wUr
        >
        E 0 90 40 59
        E 528 80 40 00
        <X 73 0
          /wUr
        >
        E 0 90 41 59
        E 723 80 41 00
        E 238 80 69 00
        E 295 90 69 59
        <X 173 0
          /wVNdWwt
        >
        E 0 90 41 59
        E 236 80 41 00
        <X 123 0
          /wVsZQ==
        >
        E 0 90 41 59
        E 415 80 41 00
        <X 247 0
          /wVuaWlu
        >
        E 0 90 40 59
        E 2274 80 40 00
        <X 562 0
          /wVtdWwt
        >
        E 0 90 41 59
        E 236 80 41 00
        <X 124 0
          /wVsZQ==
        >
        E 0 90 41 59
        E 415 80 41 00
        <X 162 0
          /wVuaWlu
        >
        E 0 90 40 59
        E 1742 80 40 00
        E 78 80 69 00
        E 334 90 69 59
        <X 162 0
          /wVUZWV0LQ==
        >
        E 0 90 43 59
        E 186 80 43 00
        <X 102 0
          /wVow6Ru
        >
        E 0 90 43 59
        E 124 80 43 00
        <X 182 0
          /wVtdWwt
        >
        E 0 90 43 59
        E 260 80 43 00
        <X 104 0
          /wVsZQ==
        >
        E 0 90 41 59
        E 352 80 41 00
        <X 148 0
          /wVuaWlu
        >
        E 0 90 40 59
        E 916 80 40 00
        <X 160 0
          /wVtdWwt
        >
        E 0 90 41 59
        E 194 80 41 00
        <X 92 0
          /wVsZQ==
        >
        E 0 90 41 59
        E 326 80 41 00
        <X 193 0
          /wVuaWlu
        >
        E 0 90 40 59
        E 431 80 40 00
        <X 141 0
          /wV0ZWV0LQ==
        >
        E 0 90 41 59
        E 186 80 41 00
        <X 102 0
          /wVow6Ru
        >
        E 0 90 41 59
        E 124 80 41 00
        <X 114 0
          /wVtdWwt
        >
        E 0 90 41 59
        E 260 80 41 00
        <X 104 0
          /wVsZQ==
        >
        E 0 90 41 59
        E 352 80 41 00
        <X 148 0
          /wVuaWlu
        >
        E 0 90 40 59
        E 503 80 40 00
        E 22 80 69 00
        E 57 90 69 59
        <X 25 0
          /wVUZWV0LQ==
        >
        E 0 90 41 59
        E 186 80 41 00
        <X 102 0
          /wVow6Ru
        >
        E 0 90 41 59
        E 124 80 41 00
        <X 114 0
          /wVtdWwt
        >
        E 0 90 41 59
        E 260 80 41 00
        <X 104 0
          /wVsZQ==
        >
        E 0 90 41 59
        E 352 80 41 00
        <X 148 0
          /wVuaWlu
        >
        E 0 90 40 59
        E 392 80 40 00
        <X 112 0
          /wV0ZWV0LQ==
        >
        E 0 90 41 59
        E 114 80 41 00
        <X 37 0
          /wVow6Ru
        >
        E 0 90 41 59
        E 234 80 41 00
        <X 52 0
          /wVtdWwt
        >
        E 0 90 41 59
        E 463 80 41 00
        <X 100 0
          /wVsZQ==
        >
        E 0 90 41 59
        E 260 80 41 00
        <X 222 0
          /wVuaWlu
        >
        E 0 90 40 59
        E 2205 80 40 00
        E 131 80 69 00
        <X 349 0
          /wFbaWRsZV9yZWFsdGltZV0=
        >
        E 3904 b0 7b 00
        GUID {C9A1A4CA-4224-4672-91C0-075BEB2A8650}
        IGNTEMPO 0 120.00000000 4 4
        SRCCOLOR 1200
        VELLANE 132 128 128
        COLORMAP "C:\Users\me\AppData\Roaming\REAPER\Data\color_maps\rockband_vox-other.png"
        TEXTSTRINGFILE "Text Events List.txt"
        CFGEDITVIEW 36292.872638 122.935423 16 12 0 0 0
        CFGEDIT 1 1 0 0 1 1 1 1 1 0 1 0.12500000 75 0 1611 691 1 2 1 2 0.00000000 0 0 0 0 0.500000 1 0 1.000000 64
        KEYSNAP 0 0 "102034050607" 0 "Major"
        EVTFILTER 0 -1 -1 -1 -1 0 1 0 0 -1.00000000 -1.00000000
      >
    >
  >
  <TRACK '{E60BCF67-80FD-4554-840A-5B0B5C2E06A0}'
    NAME "HARM1"
    PEAKCOL 24624127
    BEAT -1
    AUTOMODE 0
    VOLPAN 1.00000000000000 0.00000000000000 -1.00000000000000 -1.00000000000000 1.00000000000000
    MUTESOLO 0 0 0
    IPHASE 0
    ISBUS 0 0
    BUSCOMP 0 0
    SHOWINMIX 1 0.666700 0.500000 1 0.500000 -1 -1 -1
    FREEMODE 0
    SEL 0
    REC 0 0 0 0 0 0 0
    TRACKHEIGHT 0 0
    INQ 0 0 0 0.5000000000 100 0 0 100
    NCHAN 2
    FX 1
    TRACKID {E60BCF67-80FD-4554-840A-5B0B5C2E06A0}
    PERF 0
    MIDIOUT -1
    <MIDINOTENAMES
      0 0 "Range Shift"
      0 1 "Lyric Shift"
      0 36 "C1"
      0 37 "C#"
      0 38 "D"
      0 39 "Eb"
      0 40 "E"
      0 41 "F"
      0 42 "F#"
      0 43 "G"
      0 44 "G#"
      0 45 "A"
      0 46 "Bb"
      0 47 "B"
      0 48 "C2"
      0 49 "C#"
      0 50 "D"
      0 51 "Eb"
      0 52 "E"
      0 53 "F"
      0 54 "F#"
      0 55 "G"
      0 56 "G#"
      0 57 "A"
      0 58 "Bb"
      0 59 "B"
      0 60 "C3"
      0 61 "C#"
      0 62 "D"
      0 63 "Eb"
      0 64 "E"
      0 65 "F"
      0 66 "F#"
      0 67 "G"
      0 68 "G#"
      0 69 "A"
      0 70 "Bb"
      0 71 "B"
      0 72 "C4"
      0 73 "C#"
      0 74 "D"
      0 75 "Eb"
      0 76 "E"
      0 77 "F"
      0 78 "F#"
      0 79 "G"
      0 80 "G#"
      0 81 "A"
      0 82 "Bb"
      0 83 "B"
      0 105 "Phrase Marker"
      0 116 "OVERDRIVE"
      0 115 "----"
      0 104 "----"
      0 97 "Not Displayed Percussion"
      0 96 "Displayed Percussion"
      0 95 "----"
      0 84 "C5"
    >
    MAINSEND 1 0
    <FXCHAIN
      WNDRECT 786 197 716 493
      SHOW 0
      LASTSEL 1
      DOCKED 0
      BYPASS 0 0
      <JS "IX/MIDI_Tool II" ""
        0.000000 85.000000 127.000000 0.000000 0.000000 0.000000 100.000000 0.000000 0.000000 127.000000 0.000000 0.000000 1.000000 0.000000 0.000000 - - - - - - - - - - - - - - - - - - - - - - - - - - - - - - - - - - - - - - - - - - - - - - - - - 
      >
      FLOATPOS 0 0 0 0
      FXID {2E79298C-F056-441C-A64B-722C2599E1AA}
      WAK 0
      BYPASS 0 0
      <VST "VSTi: ReaSynth (Cockos)" "reasynth.dll" 0 ""
        eXNlcu9e7f4AAAAAAgAAAAEAAAAAAAAAAgAAAAAAAAA4AAAAAAAAAA==
        AAAAAO++rd4N8K3eppvEOxe30ToAAAAAAAAAAAAAAACa9Q8/6WeIPQ==
        AAAAAAAAAD8AAIA/AAAAAAAAAD8AAAAAAAA=
      >
      FLOATPOS 0 0 0 0
      FXID {A391E59B-3475-47CA-9BDB-E03F3B8FF2C4}
      WAK 0
    >
    <ITEM
      POSITION 0.00000000000000
      SNAPOFFS 0.00000000000000
      LENGTH 194.83196922085099
      LOOP 0
      ALLTAKES 0
      SEL 0
      FADEIN 1 0.000000 0.000000 1 0
      FADEOUT 1 0.000000 0.000000 1 0
      MUTE 0
      IGUID {FE84F6DE-5A5E-43D1-BFBE-4632BD10F85F}
      IID 11
      NAME "HARM1 untitled MIDI item"
      VOLPAN 1.000000 0.000000 1.000000 -1.000000
      SOFFS 0.00000000000000 0.00000000000000
      PLAYRATE 1.00000000000000 1 0.00000000000000 -1
      CHANMODE 0
      GUID {188D8841-6EF7-4ADC-A9DC-A83C2882A63B}
      <SOURCE MIDI
        HASDATA 1 480 QN
        POOLEDEVTS {643CF879-E141-4E26-8FD0-446167EB7AF7}
        <X 0 0
          /wNIQVJNMQ==
        >
        <X 3840 0
          /wFbaWRsZV0=
        >
        <X 30720 0
          /wFbbWVsbG93XQ==
        >
        E 960 90 69 59
        <X 456 0
          /wVNaS0=
        >
        E 0 90 31 69
        E 224 80 31 00
        <X 45 0
          /wVuw6Q=
        >
        E 0 90 31 6b
        E 196 80 31 00
        <X 109 0
          /wVoYS0=
        >
        E 0 90 2f 6b
        E 152 80 2f 00
        <X 49 0
          /wVsdS0=
        >
        E 0 90 2f 6b
        E 149 80 2f 00
        <X 61 0
          /wVhbg==
        >
        E 0 90 2f 6b
        E 180 80 2f 00
        <X 230 0
          /wVzaS0=
        >
        E 0 90 2c 48
        E 273 80 2c 00
        <X 75 0
          /wVudXQ=
        >
        E 0 90 2c 59
        E 225 80 2c 00
        <X 209 0
          /wV0w6RuLQ==
        >
        E 0 90 2d 71
        E 540 80 2d 00
        <X 179 0
          /wVuZQ==
        >
        E 0 90 2f 68
        E 361 80 2f 00
        E 607 80 69 00
        E 3360 90 69 59
        <X 432 0
          /wVNaXMt
        >
        E 0 90 31 69
        E 191 80 31 00
        <X 44 0
          /wVzw6Q=
        >
        E 0 90 31 6b
        E 198 80 31 00
        <X 92 0
          /wVwby0=
        >
        E 0 90 2f 6b
        E 197 80 2f 00
        <X 53 0
          /wVsaWkt
        >
        E 0 90 2f 6b
        E 174 80 2f 00
        <X 42 0
          /wVzaQ==
        >
        E 0 90 2f 6b
        E 219 80 2f 00
        <X 83 0
          /wVvbg==
        >
        E 0 90 2c 48
        E 181 80 2c 00
        <X 99 0
          /wV5cy0=
        >
        E 0 90 2c 59
        E 267 80 2c 00
        <X 160 0
          /wV0w6Qt
        >
        E 0 90 2c 59
        E 192 80 2c 00
        <X 78 0
          /wV2w6RtLQ==
        >
        E 0 90 2d 71
        E 558 80 2d 00
        <X 135 0
          /wVtZQ==
        >
        E 0 90 2f 68
        E 353 80 2f 00
        E 572 80 69 00
        E 3360 90 69 59
        E 0 90 74 59
        <X 374 0
          /wVKYQ==
        >
        E 0 90 32 59
        E 273 80 32 00
        <X 53 0
          /wVuZQ==
        >
        E 0 90 34 59
        E 96 80 34 00
        <X 96 0
          /wVzYS0=
        >
        E 0 90 32 59
        E 280 80 32 00
        <X 81 0
          /wVub28=
        >
        E 0 90 30 59
        E 525 80 30 00
        <X 533 0
          /wVzaS0=
        >
        E 0 90 32 59
        E 273 80 32 00
        <X 53 0
          /wVuw6Q=
        >
        E 0 90 34 59
        E 173 80 34 00
        <X 74 0
          /wVldA==
        >
        E 0 90 32 59
        E 115 80 32 00
        <X 154 0
          /wVvLQ==
        >
        E 0 90 30 59
        E 162 80 30 00
        <X 53 0
          /wVsZQ==
        >
        E 0 90 32 59
        E 153 80 32 00
        <X 81 0
          /wV5ay0=
        >
        E 0 90 32 59
        E 532 80 32 00
        <X 162 0
          /wVzaW4=
        >
        E 0 90 2d 59
        E 2242 80 2d 00
        E 422 80 69 00
        E 0 80 74 00
        E 720 90 69 59
        <X 419 0
          /wVKYQ==
        >
        E 0 90 32 59
        E 231 80 32 00
        <X 49 0
          /wVuZQ==
        >
        E 0 90 34 59
        E 117 80 34 00
        <X 96 0
          /wVzYS0=
        >
        E 0 90 32 59
        E 305 80 32 00
        <X 81 0
          /wVub28=
        >
        E 0 90 30 59
        E 496 80 30 00
        <X 562 0
          /wVqYQ==
        >
        E 0 90 32 59
        E 201 80 32 00
        <X 61 0
          /wVuZQ==
        >
        E 0 90 34 59
        E 117 80 34 00
        <X 87 0
          /wVzYS0=
        >
        E 0 90 32 59
        E 291 80 32 00
        <X 110 0
          /wVub28=
        >
        E 0 90 30 59
        E 385 80 30 00
        <X 105 0
          /wVuaWlu
        >
        E 0 90 32 59
        E 771 80 32 00
        <X 618 0
          /wUr
        >
        E 0 90 34 59
        E 1910 80 34 00
        E 188 80 69 00
        <X 117 0
          /wFbaW50ZW5zZV0=
        >
        E 123 90 69 59
        <X 246 0
          /wVQaWlzLQ==
        >
        E 0 90 41 59
        E 311 80 41 00
        <X 233 0
          /wVrYWE=
        >
        E 0 90 40 59
        E 1196 80 40 00
        <X 360 0
          /wVoZWk=
        >
        E 0 90 43 59
        E 157 80 43 00
        <X 132 0
          /wViZWkt
        >
        E 0 90 41 59
        E 216 80 41 00
        <X 55 0
          /wViaQ==
        >
        E 0 90 40 59
        E 179 80 40 00
        <X 40 0
          /wVhbi0=
        >
        E 0 90 3f 59
        E 161 80 3f 00
        <X 82 0
          /wVuYQ==
        >
        E 0 90 3d 59
        E 167 80 3d 00
        <X 94 0
          /wVtdWwt
        >
        E 0 90 3e 59
        E 167 80 3e 00
        <X 52 0
          /wVsZQ==
        >
        E 0 90 3d 59
        E 124 80 3d 00
        E 38 80 69 00
        E 44 90 69 59
        E 0 90 74 59
        <X 52 0
          /wVQaWlzLQ==
        >
        E 0 90 43 59
        E 343 80 43 00
        <X 204 0
          /wVrYWE=
        >
        E 0 90 41 59
        E 1127 80 41 00
        <X 437 0
          /wVoZWk=
        >
        E 0 90 43 59
        E 205 80 43 00
        <X 60 0
          /wViZWkt
        >
        E 0 90 41 59
        E 211 80 41 00
        <X 60 0
          /wViaQ==
        >
        E 0 90 40 59
        E 178 80 40 00
        <X 40 0
          /wVhbi0=
        >
        E 0 90 3f 59
        E 161 80 3f 00
        <X 82 0
          /wVuYQ==
        >
        E 0 90 3d 59
        E 167 80 3d 00
        <X 75 0
          /wVtdWwt
        >
        E 0 90 3e 59
        E 154 80 3e 00
        <X 41 0
          /wVsZQ==
        >
        E 0 90 3d 59
        E 104 80 3d 00
        E 27 80 69 00
        E 0 80 74 00
        E 93 90 69 59
        <X 51 0
          /wVQaWlzLQ==
        >
        E 0 90 43 59
        E 320 80 43 00
        <X 198 0
          /wVrYWE=
        >
        E 0 90 41 59
        E 1163 80 41 00
        <X 494 0
          /wVoZWk=
        >
        E 0 90 43 59
        E 179 80 43 00
        <X 77 0
          /wViZWkt
        >
        E 0 90 41 59
        E 171 80 41 00
        <X 79 0
          /wViaQ==
        >
        E 0 90 40 59
        E 119 80 40 00
        <X 99 0
          /wV0ZWV0LQ==
        >
        E 0 90 3f 59
        E 142 80 3f 00
        <X 77 0
          /wVow6Ru
        >
        E 0 90 3d 59
        E 171 80 3d 00
        <X 101 0
          /wVtdWwt
        >
        E 0 90 3e 59
        E 214 80 3e 00
        <X 41 0
          /wVsZQ==
        >
        E 0 90 3d 59
        E 134 80 3d 00
        <X 161 0
          /wVuaWlu
        >
        E 0 90 3f 59
        E 788 80 3f 00
        <X 97 0
          /wUr
        >
        E 0 90 40 59
        E 592 80 40 00
        <X 54 0
          /wUr
        >
        E 0 90 41 59
        E 194 80 41 00
        E 91 80 69 00
        <X 1433 0
          /wFbbWVsbG93XQ==
        >
        E 417 90 69 59
        <X 525 0
          /wVTaS0=
        >
        E 0 90 2f 69
        E 160 80 2f 00
        <X 71 0
          /wV0w6Q=
        >
        E 0 90 31 6b
        E 168 80 31 00
        <X 87 0
          /wVzYS0=
        >
        E 0 90 2f 6b
        E 187 80 2f 00
        <X 65 0
          /wVtYWE=
        >
        E 0 90 30 6b
        E 211 80 30 00
        <X 67 0
          /wVtaS0=
        >
        E 0 90 2f 6b
        E 155 80 2f 00
        <X 64 0
          /wVudW4=
        >
        E 0 90 2d 48
        E 166 80 2d 00
        <X 83 0
          /wVyYS0=
        >
        E 0 90 2c 59
        E 206 80 2c 00
        <X 44 0
          /wVkaS0=
        >
        E 0 90 2c 59
        E 188 80 2c 00
        <X 56 0
          /wVv
        >
        E 0 90 2c 59
        E 75 80 2c 00
        <X 85 0
          /wVzb2l0LQ==
        >
        E 0 90 2d 71
        E 589 80 2d 00
        <X 141 0
          /wV0YWE=
        >
        E 0 90 2f 68
        E 480 80 2f 00
        E 447 80 69 00
        E 3360 90 69 59
        E 0 90 74 59
        <X 575 0
          /wVLdWluLQ==
        >
        E 0 90 30 69
        E 122 80 30 00
        <X 113 0
          /wVrYQ==
        >
        E 0 90 30 6b
        E 166 80 30 00
        <X 81 0
          /wVsby0=
        >
        E 0 90 30 6b
        E 123 80 30 00
        <X 106 0
          /wVwdWwt
        >
        E 0 90 30 6b
        E 158 80 30 00
        <X 95 0
          /wV0YS0=
        >
        E 0 90 2f 6b
        E 150 80 2f 00
        <X 115 0
          /wVraW4=
        >
        E 0 90 2c 48
        E 128 80 2c 00
        <X 77 0
          /wVlLQ==
        >
        E 0 90 2c 59
        E 177 80 2c 00
        <X 85 0
          /wVsw6Qt
        >
        E 0 90 2c 59
        E 139 80 2c 00
        <X 79 0
          /wVtw6Q=
        >
        E 0 90 2c 59
        E 159 80 2c 00
        <X 95 0
          /wV2b2l0LQ==
        >
        E 0 90 2d 71
        E 478 80 2d 00
        <X 204 0
          /wV0YWE=
        >
        E 0 90 2f 68
        E 530 80 2f 00
        E 365 80 69 00
        E 0 80 74 00
        E 3527 90 69 59
        <X 320 0
          /wVKYQ==
        >
        E 0 90 32 59
        E 247 80 32 00
        <X 60 0
          /wVuZQ==
        >
        E 0 90 34 59
        E 96 80 34 00
        <X 115 0
          /wVzYS0=
        >
        E 0 90 32 59
        E 280 80 32 00
        <X 97 0
          /wVub28=
        >
        E 0 90 30 59
        E 509 80 30 00
        <X 533 0
          /wVzaS0=
        >
        E 0 90 34 59
        E 252 80 34 00
        <X 58 0
          /wVuw6Q=
        >
        E 0 90 32 59
        E 184 80 32 00
        <X 101 0
          /wVvLQ==
        >
        E 0 90 32 59
        E 164 80 32 00
        <X 51 0
          /wVsZXQ=
        >
        E 0 90 30 59
        E 162 80 30 00
        <X 259 0
          /wVrYXUt
        >
        E 0 90 32 59
        E 549 80 32 00
        <X 132 0
          /wVoZWlu
        >
        E 0 90 2d 59
        E 2299 80 2d 00
        E 492 80 69 00
        E 553 90 69 59
        <X 419 0
          /wVKYQ==
        >
        E 0 90 32 59
        E 269 80 32 00
        <X 72 0
          /wVuZQ==
        >
        E 0 90 34 59
        E 94 80 34 00
        <X 91 0
          /wVzYS0=
        >
        E 0 90 32 59
        E 294 80 32 00
        <X 81 0
          /wVub28=
        >
        E 0 90 30 59
        E 526 80 30 00
        <X 560 0
          /wVqYQ==
        >
        E 0 90 32 59
        E 201 80 32 00
        <X 61 0
          /wVuZQ==
        >
        E 0 90 34 59
        E 117 80 34 00
        <X 87 0
          /wVzYS0=
        >
        E 0 90 32 59
        E 291 80 32 00
        <X 110 0
          /wVub28=
        >
        E 0 90 30 59
        E 385 80 30 00
        <X 105 0
          /wVuaWlu
        >
        E 0 90 32 59
        E 771 80 32 00
        <X 568 0
          /wUr
        >
        E 0 90 34 59
        E 1995 80 34 00
        E 103 80 69 00
        <X 319 0
          /wFbaW50ZW5zZV0=
        >
        E 37 90 69 59
        E 0 90 74 59
        <X 246 0
          /wVQaWlzLQ==
        >
        E 0 90 41 59
        E 311 80 41 00
        <X 233 0
          /wVrYWE=
        >
        E 0 90 40 59
        E 1196 80 40 00
        <X 360 0
          /wVoZWk=
        >
        E 0 90 43 59
        E 157 80 43 00
        <X 97 0
          /wViZWkt
        >
        E 0 90 41 59
        E 216 80 41 00
        <X 55 0
          /wViaQ==
        >
        E 0 90 40 59
        E 121 80 40 00
        <X 86 0
          /wVhbi0=
        >
        E 0 90 3f 59
        E 173 80 3f 00
        <X 82 0
          /wVuYQ==
        >
        E 0 90 3d 59
        E 167 80 3d 00
        <X 94 0
          /wVtdWwt
        >
        E 0 90 3e 59
        E 167 80 3e 00
        <X 52 0
          /wVsZQ==
        >
        E 0 90 3d 59
        E 124 80 3d 00
        E 73 80 69 00
        E 0 80 74 00
        E 44 90 69 59
        <X 17 0
          /wVQaWlzLQ==
        >
        E 0 90 43 59
        E 343 80 43 00
        <X 204 0
          /wVrYWE=
        >
        E 0 90 41 59
        E 1100 80 41 00
        <X 499 0
          /wVoZWk=
        >
        E 0 90 43 59
        E 170 80 43 00
        <X 76 0
          /wViZWkt
        >
        E 0 90 41 59
        E 211 80 41 00
        <X 60 0
          /wViaQ==
        >
        E 0 90 40 59
        E 178 80 40 00
        <X 40 0
          /wVhbi0=
        >
        E 0 90 3f 59
        E 161 80 3f 00
        <X 59 0
          /wVuYQ==
        >
        E 0 90 3d 59
        E 167 80 3d 00
        <X 75 0
          /wVtdWwt
        >
        E 0 90 3e 59
        E 154 80 3e 00
        <X 41 0
          /wVsZQ==
        >
        E 0 90 3d 59
        E 104 80 3d 00
        E 69 80 69 00
        E 93 90 69 59
        <X 36 0
          /wVQaWlzLQ==
        >
        E 0 90 43 59
        E 320 80 43 00
        <X 198 0
          /wVrYWE=
        >
        E 0 90 41 59
        E 1232 80 41 00
        <X 428 0
          /wVoZWk=
        >
        E 0 90 43 59
        E 144 80 43 00
        <X 85 0
          /wViZWkt
        >
        E 0 90 41 59
        E 171 80 41 00
        <X 79 0
          /wViaQ==
        >
        E 0 90 40 59
        E 119 80 40 00
        <X 99 0
          /wV0ZWV0LQ==
        >
        E 0 90 3f 59
        E 142 80 3f 00
        <X 77 0
          /wVow6Ru
        >
        E 0 90 3d 59
        E 171 80 3d 00
        <X 101 0
          /wVtdWwt
        >
        E 0 90 3e 59
        E 214 80 3e 00
        <X 41 0
          /wVsZQ==
        >
        E 0 90 3d 59
        E 134 80 3d 00
        <X 150 0
          /wVuaWlu
        >
        E 0 90 3f 59
        E 718 80 3f 00
        <X 102 0
          /wUr
        >
        E 0 90 40 59
        E 527 80 40 00
        <X 73 0
          /wUr
        >
        E 0 90 41 59
        E 816 80 41 00
        E 156 80 69 00
        <X 863 0
          /wFbbWVsbG93XQ==
        >
        E 481 90 69 59
        E 0 90 74 59
        <X 232 0
          /wVFaQ==
        >
        E 0 90 30 59
        E 227 80 30 00
        <X 31 0
          /wVvLQ==
        >
        E 0 90 30 59
        E 193 80 30 00
        <X 29 0
          /wV2ZW4=
        >
        E 0 90 30 59
        E 192 80 30 00
        <X 59 0
          /wV0YS0=
        >
        E 0 90 2f 59
        E 178 80 2f 00
        <X 90 0
          /wVrYS0=
        >
        E 0 90 2f 59
        E 184 80 2f 00
        <X 26 0
          /wVuYQ==
        >
        E 0 90 2f 59
        E 221 80 2f 00
        <X 474 0
          /wVzaS0=
        >
        E 0 90 2d 59
        E 236 80 2d 00
        <X 32 0
          /wVudS0=
        >
        E 0 90 2d 59
        E 188 80 2d 00
        <X 33 0
          /wVh
        >
        E 0 90 2d 59
        E 207 80 2d 00
        <X 33 0
          /wVvLQ==
        >
        E 0 90 2e 59
        E 188 80 2e 00
        <X 31 0
          /wVkby0=
        >
        E 0 90 2e 59
        E 182 80 2e 00
        <X 88 0
          /wV0YQ==
        >
        E 0 90 2f 59
        E 233 80 2f 00
        E 133 80 69 00
        E 0 80 74 00
        E 240 90 69 59
        <X 149 0
          /wVJLQ==
        >
        E 0 90 30 59
        E 190 80 30 00
        <X 33 0
          /wVsb2kt
        >
        E 0 90 30 59
        E 193 80 30 00
        <X 51 0
          /wVuZW4=
        >
        E 0 90 30 59
        E 163 80 30 00
        <X 64 0
          /wV5cy0=
        >
        E 0 90 2f 59
        E 160 80 2f 00
        <X 80 0
          /wV0w6Qt
        >
        E 0 90 30 59
        E 177 80 30 00
        <X 59 0
          /wV2w6Q=
        >
        E 0 90 2f 59
        E 156 80 2f 00
        <X 47 0
          /wUr
        >
        E 0 90 2d 59
        E 133 80 2d 00
        <X 126 0
          /wVrw6Qt
        >
        E 0 90 2d 59
        E 189 80 2d 00
        <X 59 0
          /wVkZXMt
        >
        E 0 90 2d 59
        E 171 80 2d 00
        <X 63 0
          /wVzw6TDpG4=
        >
        E 0 90 2d 59
        E 399 80 2d 00
        <X 124 0
          /wVrdWst
        >
        E 0 90 2f 59
        E 246 80 2f 00
        <X 226 0
          /wVraS0=
        >
        E 0 90 2f 59
        E 211 80 2f 00
        <X 69 0
          /wVh
        >
        E 0 90 2d 59
        E 184 80 2d 00
        E 58 80 69 00
        E 180 90 69 59
        <X 73 0
          /wVFaQ==
        >
        E 0 90 30 59
        E 227 80 30 00
        <X 31 0
          /wVvLQ==
        >
        E 0 90 30 59
        E 155 80 30 00
        <X 43 0
          /wV2ZW4=
        >
        E 0 90 30 59
        E 165 80 30 00
        <X 86 0
          /wV0YS0=
        >
        E 0 90 2f 59
        E 173 80 2f 00
        <X 85 0
          /wVrYS0=
        >
        E 0 90 30 59
        E 171 80 30 00
        <X 39 0
          /wVuYQ==
        >
        E 0 90 2f 59
        E 221 80 2f 00
        <X 442 0
          /wVzaS0=
        >
        E 0 90 2d 59
        E 236 80 2d 00
        <X 32 0
          /wVudS0=
        >
        E 0 90 2d 59
        E 207 80 2d 00
        <X 38 0
          /wVh
        >
        E 0 90 2d 59
        E 207 80 2d 00
        <X 57 0
          /wVvLQ==
        >
        E 0 90 2e 59
        E 188 80 2e 00
        <X 31 0
          /wVkby0=
        >
        E 0 90 2e 59
        E 182 80 2e 00
        <X 72 0
          /wV0YQ==
        >
        E 0 90 2f 59
        E 201 80 2f 00
        E 118 80 69 00
        E 240 90 69 59
        E 0 90 74 59
        <X 115 0
          /wVMw6RtLQ==
        >
        E 0 90 30 59
        E 210 80 30 00
        <X 53 0
          /wVtaW4t
        >
        E 0 90 30 59
        E 163 80 30 00
        <X 55 0
          /wV0w6Q=
        >
        E 0 90 30 59
        E 123 80 30 00
        <X 66 0
          /wVzeS0=
        >
        E 0 90 30 59
        E 258 80 30 00
        <X 58 0
          /wVsaS0=
        >
        E 0 90 30 59
        E 192 80 30 00
        <X 80 0
          /wXDpA==
        >
        E 0 90 30 59
        E 164 80 30 00
        <X 314 0
          /wVpbC0=
        >
        E 0 90 2d 59
        E 396 80 2d 00
        <X 59 0
          /wVtYW4=
        >
        E 0 90 2d 59
        E 130 80 2d 00
        <X 58 0
          /wVuYXUt
        >
        E 0 90 2f 59
        E 379 80 2f 00
        <X 71 0
          /wVsby0=
        >
        E 0 90 2f 59
        E 278 80 2f 00
        <X 109 0
          /wVqYQ==
        >
        E 0 90 2d 59
        E 196 80 2d 00
        E 73 80 69 00
        E 0 80 74 00
        <X 22 0
          /wFbaW50ZW5zZV0=
        >
        E 58 90 69 59
        <X 67 0
          /wVQaWlzLQ==
        >
        E 0 90 41 59
        E 311 80 41 00
        <X 266 0
          /wVrYWE=
        >
        E 0 90 40 59
        E 1064 80 40 00
        <X 481 0
          /wVoZWk=
        >
        E 0 90 43 59
        E 157 80 43 00
        <X 97 0
          /wViZWkt
        >
        E 0 90 41 59
        E 216 80 41 00
        <X 55 0
          /wViaQ==
        >
        E 0 90 40 59
        E 121 80 40 00
        <X 87 0
          /wVhbi0=
        >
        E 0 90 3f 59
        E 172 80 3f 00
        <X 82 0
          /wVuYQ==
        >
        E 0 90 3d 59
        E 167 80 3d 00
        <X 94 0
          /wVtdWwt
        >
        E 0 90 3e 59
        E 167 80 3e 00
        <X 52 0
          /wVsZQ==
        >
        E 0 90 3d 59
        E 124 80 3d 00
        E 51 80 69 00
        E 44 90 69 59
        E 0 90 74 59
        <X 17 0
          /wVQaWlzLQ==
        >
        E 0 90 43 59
        E 343 80 43 00
        <X 204 0
          /wVrYWE=
        >
        E 0 90 41 59
        E 1100 80 41 00
        <X 534 0
          /wVoZWk=
        >
        E 0 90 43 59
        E 171 80 43 00
        <X 75 0
          /wViZWkt
        >
        E 0 90 41 59
        E 211 80 41 00
        <X 60 0
          /wViaQ==
        >
        E 0 90 40 59
        E 178 80 40 00
        <X 40 0
          /wVhbi0=
        >
        E 0 90 3f 59
        E 161 80 3f 00
        <X 59 0
          /wVuYQ==
        >
        E 0 90 3d 59
        E 167 80 3d 00
        <X 75 0
          /wVtdWwt
        >
        E 0 90 3e 59
        E 154 80 3e 00
        <X 41 0
          /wVsZQ==
        >
        E 0 90 3d 59
        E 104 80 3d 00
        E 34 80 69 00
        E 0 80 74 00
        E 93 90 69 59
        <X 36 0
          /wVQaWlzLQ==
        >
        E 0 90 43 59
        E 320 80 43 00
        <X 198 0
          /wVrYWE=
        >
        E 0 90 41 59
        E 1233 80 41 00
        <X 439 0
          /wVoZWk=
        >
        E 0 90 43 59
        E 144 80 43 00
        <X 85 0
          /wViZWkt
        >
        E 0 90 41 59
        E 171 80 41 00
        <X 79 0
          /wViaQ==
        >
        E 0 90 40 59
        E 119 80 40 00
        <X 83 0
          /wV0ZWV0LQ==
        >
        E 0 90 3f 59
        E 142 80 3f 00
        <X 93 0
          /wVow6Ru
        >
        E 0 90 3d 59
        E 155 80 3d 00
        <X 101 0
          /wVtdWwt
        >
        E 0 90 3e 59
        E 214 80 3e 00
        <X 41 0
          /wVsZQ==
        >
        E 0 90 3d 59
        E 134 80 3d 00
        <X 165 0
          /wVuaWlu
        >
        E 0 90 3f 59
        E 718 80 3f 00
        <X 102 0
          /wUr
        >
        E 0 90 40 59
        E 528 80 40 00
        <X 73 0
          /wUr
        >
        E 0 90 41 59
        E 723 80 41 00
        E 238 80 69 00
        E 295 90 69 59
        <X 173 0
          /wVNdWwt
        >
        E 0 90 41 59
        E 236 80 41 00
        <X 123 0
          /wVsZQ==
        >
        E 0 90 41 59
        E 415 80 41 00
        <X 247 0
          /wVuaWlu
        >
        E 0 90 40 59
        E 2274 80 40 00
        <X 562 0
          /wVtdWwt
        >
        E 0 90 41 59
        E 236 80 41 00
        <X 124 0
          /wVsZQ==
        >
        E 0 90 41 59
        E 415 80 41 00
        <X 162 0
          /wVuaWlu
        >
        E 0 90 40 59
        E 1742 80 40 00
        E 78 80 69 00
        E 334 90 69 59
        <X 162 0
          /wVUZWV0LQ==
        >
        E 0 90 43 59
        E 186 80 43 00
        <X 102 0
          /wVow6Ru
        >
        E 0 90 43 59
        E 124 80 43 00
        <X 182 0
          /wVtdWwt
        >
        E 0 90 43 59
        E 260 80 43 00
        <X 104 0
          /wVsZQ==
        >
        E 0 90 41 59
        E 352 80 41 00
        <X 148 0
          /wVuaWlu
        >
        E 0 90 40 59
        E 916 80 40 00
        <X 160 0
          /wVtdWwt
        >
        E 0 90 41 59
        E 194 80 41 00
        <X 92 0
          /wVsZQ==
        >
        E 0 90 41 59
        E 326 80 41 00
        <X 193 0
          /wVuaWlu
        >
        E 0 90 40 59
        E 431 80 40 00
        <X 141 0
          /wV0ZWV0LQ==
        >
        E 0 90 41 59
        E 186 80 41 00
        <X 102 0
          /wVow6Ru
        >
        E 0 90 41 59
        E 124 80 41 00
        <X 114 0
          /wVtdWwt
        >
        E 0 90 41 59
        E 260 80 41 00
        <X 104 0
          /wVsZQ==
        >
        E 0 90 41 59
        E 352 80 41 00
        <X 148 0
          /wVuaWlu
        >
        E 0 90 40 59
        E 503 80 40 00
        E 22 80 69 00
        E 57 90 69 59
        <X 25 0
          /wVUZWV0LQ==
        >
        E 0 90 41 59
        E 186 80 41 00
        <X 102 0
          /wVow6Ru
        >
        E 0 90 41 59
        E 124 80 41 00
        <X 114 0
          /wVtdWwt
        >
        E 0 90 41 59
        E 260 80 41 00
        <X 104 0
          /wVsZQ==
        >
        E 0 90 41 59
        E 352 80 41 00
        <X 148 0
          /wVuaWlu
        >
        E 0 90 40 59
        E 392 80 40 00
        <X 112 0
          /wV0ZWV0LQ==
        >
        E 0 90 41 59
        E 114 80 41 00
        <X 37 0
          /wVow6Ru
        >
        E 0 90 41 59
        E 234 80 41 00
        <X 52 0
          /wVtdWwt
        >
        E 0 90 41 59
        E 463 80 41 00
        <X 100 0
          /wVsZQ==
        >
        E 0 90 41 59
        E 260 80 41 00
        <X 222 0
          /wVuaWlu
        >
        E 0 90 40 59
        E 2205 80 40 00
        E 131 80 69 00
        <X 349 0
          /wFbaWRsZV9yZWFsdGltZV0=
        >
        E 3904 b0 7b 00
        GUID {D78D8959-2AD8-48C0-8F6C-4A6670952331}
        IGNTEMPO 0 120.00000000 4 4
        SRCCOLOR 1201
        VELLANE 132 128 60
        COLORMAP "C:\Users\me\AppData\Roaming\REAPER\Data\color_maps\rockband_vox-other.png"
        TEXTSTRINGFILE "C:\Program Files\REAPER\Data\Text_Strings\Text Events List.txt"
        CFGEDITVIEW -9084.042589 11.231123 0 12 0 0 0
        CFGEDIT 1 1 0 1 1 1 1 1 1 1 1 0.06250000 -8 -8 1374 736 1 2 1 2 0.00000000 0 0 0 0 0.500000 1 0 1.000000 64
        KEYSNAP 0 0 "102034050607" 0 "Major"
        EVTFILTER 0 -1 -1 -1 -1 0 1 0 0 -1.00000000 -1.00000000
      >
    >
  >
  <TRACK '{4A30D2A4-111B-40E3-8633-0926E85E641C}'
    NAME "DRYVOX1"
    PEAKCOL 16576
    BEAT -1
    AUTOMODE 0
    VOLPAN 1.00000000000000 0.00000000000000 -1.00000000000000 -1.00000000000000 1.00000000000000
    MUTESOLO 1 0 0
    IPHASE 0
    ISBUS 0 0
    BUSCOMP 0 0
    SHOWINMIX 1 0.666700 0.500000 1 0.500000 -1 -1 -1
    FREEMODE 0
    SEL 0
    REC 0 0 0 0 0 0 0
    TRACKHEIGHT 316 0
    INQ 0 0 0 0.5000000000 100 0 0 100
    NCHAN 2
    FX 1
    TRACKID {4A30D2A4-111B-40E3-8633-0926E85E641C}
    PERF 0
    MIDIOUT -1
    MAINSEND 1 0
    <FXCHAIN
      SHOW 0
      LASTSEL 0
      DOCKED 0
      BYPASS 0 0
      <VST "VST: ReaGate (Cockos)" "reagate.dll" 0 ""
        dGdlcu9e7f4EAAAAAQAAAAAAAAACAAAAAAAAAAQAAAAAAAAACAAAAA==
        AAAAAAIAAAABAAAAAAAAAAIAAAAAAAAAVAAAAAAAAAAAABAA776t3g==
        DfCt3pzRBzOmm8Q7CtejPAAAAAAAAAAAAACAPwAAAAAAAAAAAAAAAA==
        nNEHMx5Ucz+c0QczAACAPwAAAAAAAAAAAAAAACwWCz8AAAAAAAAAAA==
        AAAQAAAA
      >
      FLOATPOS 859 184 511 385
      FXID {BF545B5B-7DD0-4B4C-AC52-F095A552DA08}
      WAK 0
    >
    <ITEM
      POSITION 3.45036584755871
      SNAPOFFS 0.00000000000000
      LENGTH 195.26666666666668
      LOOP 0
      ALLTAKES 0
      SEL 0
      FADEIN 1 0.000000 0.000000 1 0
      FADEOUT 1 0.000000 0.000000 1 0
      MUTE 0
      IGUID {95059503-4788-42D8-A437-2E0F3F3C8D41}
      IID 89
      NAME "mvsep vocal.mp3"
      VOLPAN 1.000000 0.000000 1.000000 -1.000000
      SOFFS 0.00000000000000
      PLAYRATE 1.00000000000000 1 0.00000000000000 -1
      CHANMODE 0
      GUID {C6E0DA9B-D643-42F1-A6D7-36FF71B1B2CD}
      <SOURCE MP3
        FILE "mvsep vocal.mp3" 1
      >
    >
  >
  <TRACK '{983C7D04-DAF6-462A-B5E6-64213F29FBA0}'
    NAME "HARM2"
    PEAKCOL 24624127
    BEAT -1
    AUTOMODE 0
    VOLPAN 1.00497380427334 0.00000000000000 -1.00000000000000 -1.00000000000000 1.00000000000000
    MUTESOLO 0 0 0
    IPHASE 0
    ISBUS 0 0
    BUSCOMP 0 0
    SHOWINMIX 1 0.666700 0.500000 1 0.500000 -1 -1 -1
    FREEMODE 0
    SEL 0
    REC 0 0 0 0 0 0 0
    TRACKHEIGHT 0 0
    INQ 0 0 0 0.5000000000 100 0 0 100
    NCHAN 2
    FX 1
    TRACKID {983C7D04-DAF6-462A-B5E6-64213F29FBA0}
    PERF 0
    MIDIOUT -1
    <MIDINOTENAMES
      0 0 "Range Shift"
      0 1 "Lyric Shift"
      0 36 "C1"
      0 37 "C#"
      0 38 "D"
      0 39 "Eb"
      0 40 "E"
      0 41 "F"
      0 42 "F#"
      0 43 "G"
      0 44 "G#"
      0 45 "A"
      0 46 "Bb"
      0 47 "B"
      0 48 "C2"
      0 49 "C#"
      0 50 "D"
      0 51 "Eb"
      0 52 "E"
      0 53 "F"
      0 54 "F#"
      0 55 "G"
      0 56 "G#"
      0 57 "A"
      0 58 "Bb"
      0 59 "B"
      0 60 "C3"
      0 61 "C#"
      0 62 "D"
      0 63 "Eb"
      0 64 "E"
      0 65 "F"
      0 66 "F#"
      0 67 "G"
      0 68 "G#"
      0 69 "A"
      0 70 "Bb"
      0 71 "B"
      0 72 "C4"
      0 73 "C#"
      0 74 "D"
      0 75 "Eb"
      0 76 "E"
      0 77 "F"
      0 78 "F#"
      0 79 "G"
      0 80 "G#"
      0 81 "A"
      0 82 "Bb"
      0 83 "B"
      0 105 "Phrase Marker"
      0 35 "----"
      0 84 "C5"
      0 116 "OVERDRIVE"
      0 115 "----"
      0 104 "----"
      0 97 "Not Displayed Percussion"
      0 96 "Displayed Percussion"
      0 95 "----"
    >
    MAINSEND 1 0
    <FXCHAIN
      WNDRECT 0 42 716 493
      SHOW 0
      LASTSEL 1
      DOCKED 0
      BYPASS 0 0
      <JS "IX/MIDI_Tool II" ""
        0.000000 85.000000 127.000000 0.000000 0.000000 0.000000 100.000000 0.000000 0.000000 127.000000 0.000000 0.000000 1.000000 0.000000 0.000000 - - - - - - - - - - - - - - - - - - - - - - - - - - - - - - - - - - - - - - - - - - - - - - - - - 
      >
      FLOATPOS 0 0 0 0
      FXID {0D2127EF-90E6-4278-AB57-59BADA75D3A0}
      WAK 0
      BYPASS 0 0
      <VST "VSTi: ReaSynth (Cockos)" "reasynth.dll" 0 ""
        eXNlcu9e7f4AAAAAAgAAAAEAAAAAAAAAAgAAAAAAAAA4AAAAAAAAAA==
        AAAAAO++rd4N8K3eppvEOxe30ToAAAAAAAAAAAAAAACa9Q8/6WeIPQ==
        AAAAAAAAAD8AAIA/AAAAAAAAAD8AAAAAAAA=
      >
      FLOATPOS 0 0 0 0
      FXID {9CF76FE8-51DE-4F46-8774-EF282D9874DF}
      WAK 0
    >
    <ITEM
      POSITION 0.00000000000000
      SNAPOFFS 0.00000000000000
      LENGTH 194.83196922085099
      LOOP 0
      ALLTAKES 0
      SEL 0
      FADEIN 1 0.000000 0.000000 1 0
      FADEOUT 1 0.000000 0.000000 1 0
      MUTE 0
      IGUID {85B4D2FA-0EE6-4979-8286-EAC89A15680D}
      IID 12
      NAME "HARM2 untitled MIDI item"
      VOLPAN 1.000000 0.000000 1.000000 -1.000000
      SOFFS 0.00000000000000 0.00000000000000
      PLAYRATE 1.00000000000000 1 0.00000000000000 -1
      CHANMODE 0
      GUID {67C8C31A-733D-46F5-9A6D-0FDF2143554E}
      <SOURCE MIDI
        HASDATA 1 480 QN
        POOLEDEVTS {720955BF-5395-4BB1-A679-329683F6AA8A}
        <X 0 0
          /wNIQVJNMg==
        >
        <X 3840 0
          /wFbaWRsZV0=
        >
        <X 30720 0
          /wFbbWVsbG93XQ==
        >
        E 960 90 69 59
        <X 456 0
          /wVNaS0=
        >
        e 0 90 36 69
        e 224 80 36 00
        <X 45 0
          /wVuw6Q=
        >
        e 0 90 36 6b
        e 196 80 36 00
        <X 109 0
          /wVoYS0=
        >
        e 0 90 34 6b
        e 152 80 34 00
        <X 49 0
          /wVsdS0=
        >
        e 0 90 34 6b
        e 149 80 34 00
        <X 61 0
          /wVhbg==
        >
        e 0 90 34 6b
        e 180 80 34 00
        <X 230 0
          /wVzaS0=
        >
        e 0 90 31 48
        e 273 80 31 00
        <X 75 0
          /wVudXQ=
        >
        e 0 90 31 59
        e 225 80 31 00
        <X 209 0
          /wV0w6RuLQ==
        >
        e 0 90 32 71
        e 540 80 32 00
        <X 179 0
          /wVuZQ==
        >
        e 0 90 34 68
        e 361 80 34 00
        E 607 80 69 00
        E 3360 90 69 59
        <X 432 0
          /wVNaXMt
        >
        e 0 90 36 69
        e 191 80 36 00
        <X 44 0
          /wVzw6Q=
        >
        e 0 90 36 6b
        e 198 80 36 00
        <X 92 0
          /wVwby0=
        >
        e 0 90 34 6b
        e 197 80 34 00
        <X 53 0
          /wVsaWkt
        >
        e 0 90 34 6b
        e 174 80 34 00
        <X 42 0
          /wVzaQ==
        >
        e 0 90 34 6b
        e 219 80 34 00
        <X 83 0
          /wVvbg==
        >
        e 0 90 31 48
        e 181 80 31 00
        <X 99 0
          /wV5cy0=
        >
        e 0 90 31 59
        e 267 80 31 00
        <X 160 0
          /wV0w6Qt
        >
        e 0 90 31 59
        e 192 80 31 00
        <X 78 0
          /wV2w6RtLQ==
        >
        e 0 90 32 71
        e 558 80 32 00
        <X 135 0
          /wVtZQ==
        >
        e 0 90 34 68
        e 353 80 34 00
        E 572 80 69 00
        E 3360 90 69 59
        E 0 90 74 59
        <X 374 0
          /wVKYQ==
        >
        e 0 90 37 59
        e 273 80 37 00
        <X 53 0
          /wVuZQ==
        >
        e 0 90 39 59
        e 96 80 39 00
        <X 96 0
          /wVzYS0=
        >
        e 0 90 37 59
        e 280 80 37 00
        <X 81 0
          /wVub28=
        >
        e 0 90 35 59
        e 525 80 35 00
        <X 533 0
          /wVzaS0=
        >
        e 0 90 37 59
        e 273 80 37 00
        <X 53 0
          /wVuw6Q=
        >
        e 0 90 39 59
        e 173 80 39 00
        <X 74 0
          /wVldA==
        >
        e 0 90 37 59
        e 115 80 37 00
        <X 154 0
          /wVvLQ==
        >
        e 0 90 35 59
        e 162 80 35 00
        <X 53 0
          /wVsZQ==
        >
        e 0 90 37 59
        e 153 80 37 00
        <X 81 0
          /wV5ay0=
        >
        e 0 90 37 59
        e 532 80 37 00
        <X 162 0
          /wVzaW4=
        >
        e 0 90 32 59
        e 2242 80 32 00
        E 422 80 69 00
        E 0 80 74 00
        E 720 90 69 59
        <X 419 0
          /wVKYQ==
        >
        e 0 90 37 59
        e 231 80 37 00
        <X 49 0
          /wVuZQ==
        >
        e 0 90 39 59
        e 117 80 39 00
        <X 96 0
          /wVzYS0=
        >
        e 0 90 37 59
        e 305 80 37 00
        <X 81 0
          /wVub28=
        >
        e 0 90 35 59
        e 496 80 35 00
        <X 562 0
          /wVqYQ==
        >
        e 0 90 37 59
        e 201 80 37 00
        <X 61 0
          /wVuZQ==
        >
        e 0 90 39 59
        e 117 80 39 00
        <X 87 0
          /wVzYS0=
        >
        e 0 90 37 59
        e 291 80 37 00
        <X 110 0
          /wVub28=
        >
        e 0 90 35 59
        e 385 80 35 00
        <X 105 0
          /wVuaWlu
        >
        e 0 90 37 59
        e 771 80 37 00
        <X 618 0
          /wUr
        >
        e 0 90 39 59
        e 1910 80 39 00
        E 188 80 69 00
        <X 117 0
          /wFbaW50ZW5zZV0=
        >
        E 123 90 69 59
        <X 246 0
          /wVQaWlzLQ==
        >
        e 0 90 46 59
        e 311 80 46 00
        <X 233 0
          /wVrYWE=
        >
        e 0 90 45 59
        e 1196 80 45 00
        E 2024 80 69 00
        E 44 90 69 59
        E 0 90 74 59
        <X 52 0
          /wVQaWlzLQ==
        >
        e 0 90 48 59
        e 343 80 48 00
        <X 204 0
          /wVrYWE=
        >
        e 0 90 46 59
        e 1127 80 46 00
        E 2002 80 69 00
        E 0 80 74 00
        E 93 90 69 59
        <X 51 0
          /wVQaWlzLQ==
        >
        e 0 90 48 59
        e 320 80 48 00
        <X 198 0
          /wVrYWE=
        >
        e 0 90 46 59
        e 1163 80 46 00
        E 4075 80 69 00
        <X 1433 0
          /wFbbWVsbG93XQ==
        >
        E 417 90 69 59
        <X 525 0
          /wVTaS0=
        >
        e 0 90 34 69
        e 160 80 34 00
        <X 71 0
          /wV0w6Q=
        >
        e 0 90 36 6b
        e 168 80 36 00
        <X 87 0
          /wVzYS0=
        >
        e 0 90 34 6b
        e 187 80 34 00
        <X 65 0
          /wVtYWE=
        >
        e 0 90 35 6b
        e 211 80 35 00
        <X 67 0
          /wVtaS0=
        >
        e 0 90 34 6b
        e 155 80 34 00
        <X 64 0
          /wVudW4=
        >
        e 0 90 32 48
        e 166 80 32 00
        <X 83 0
          /wVyYS0=
        >
        e 0 90 31 59
        e 206 80 31 00
        <X 44 0
          /wVkaS0=
        >
        e 0 90 31 59
        e 188 80 31 00
        <X 56 0
          /wVv
        >
        e 0 90 31 59
        e 75 80 31 00
        <X 85 0
          /wVzb2l0LQ==
        >
        e 0 90 32 71
        e 589 80 32 00
        <X 141 0
          /wV0YWE=
        >
        e 0 90 34 68
        e 480 80 34 00
        E 447 80 69 00
        E 3360 90 69 59
        E 0 90 74 59
        <X 575 0
          /wVLdWluLQ==
        >
        e 0 90 35 69
        e 122 80 35 00
        <X 113 0
          /wVrYQ==
        >
        e 0 90 35 6b
        e 166 80 35 00
        <X 81 0
          /wVsby0=
        >
        e 0 90 35 6b
        e 123 80 35 00
        <X 106 0
          /wVwdWwt
        >
        e 0 90 35 6b
        e 158 80 35 00
        <X 95 0
          /wV0YS0=
        >
        e 0 90 34 6b
        e 150 80 34 00
        <X 115 0
          /wVraW4=
        >
        e 0 90 31 48
        e 128 80 31 00
        <X 77 0
          /wVlLQ==
        >
        e 0 90 31 59
        e 177 80 31 00
        <X 85 0
          /wVsw6Qt
        >
        e 0 90 31 59
        e 139 80 31 00
        <X 79 0
          /wVtw6Q=
        >
        e 0 90 31 59
        e 159 80 31 00
        <X 95 0
          /wV2b2l0LQ==
        >
        e 0 90 32 71
        e 478 80 32 00
        <X 204 0
          /wV0YWE=
        >
        e 0 90 34 68
        e 530 80 34 00
        E 365 80 69 00
        E 0 80 74 00
        E 3527 90 69 59
        <X 320 0
          /wVKYQ==
        >
        e 0 90 37 59
        e 247 80 37 00
        <X 60 0
          /wVuZQ==
        >
        e 0 90 39 59
        e 96 80 39 00
        <X 115 0
          /wVzYS0=
        >
        e 0 90 37 59
        e 280 80 37 00
        <X 97 0
          /wVub28=
        >
        e 0 90 35 59
        e 509 80 35 00
        <X 533 0
          /wVzaS0=
        >
        e 0 90 39 59
        e 252 80 39 00
        <X 58 0
          /wVuw6Q=
        >
        e 0 90 37 59
        e 184 80 37 00
        <X 101 0
          /wVvLQ==
        >
        e 0 90 37 59
        e 164 80 37 00
        <X 51 0
          /wVsZXQ=
        >
        e 0 90 35 59
        e 162 80 35 00
        <X 259 0
          /wVrYXUt
        >
        e 0 90 37 59
        e 549 80 37 00
        <X 132 0
          /wVoZWlu
        >
        e 0 90 32 59
        e 2299 80 32 00
        E 492 80 69 00
        E 553 90 69 59
        <X 419 0
          /wVKYQ==
        >
        e 0 90 37 59
        e 269 80 37 00
        <X 72 0
          /wVuZQ==
        >
        e 0 90 39 59
        e 94 80 39 00
        <X 91 0
          /wVzYS0=
        >
        e 0 90 37 59
        e 294 80 37 00
        <X 81 0
          /wVub28=
        >
        e 0 90 35 59
        e 526 80 35 00
        <X 560 0
          /wVqYQ==
        >
        e 0 90 37 59
        e 201 80 37 00
        <X 61 0
          /wVuZQ==
        >
        e 0 90 39 59
        e 117 80 39 00
        <X 87 0
          /wVzYS0=
        >
        e 0 90 37 59
        e 291 80 37 00
        <X 110 0
          /wVub28=
        >
        e 0 90 35 59
        e 385 80 35 00
        <X 105 0
          /wVuaWlu
        >
        e 0 90 37 59
        e 771 80 37 00
        <X 568 0
          /wUr
        >
        e 0 90 39 59
        e 1995 80 39 00
        E 103 80 69 00
        <X 319 0
          /wFbaW50ZW5zZV0=
        >
        E 37 90 69 59
        E 0 90 74 59
        <X 246 0
          /wVQaWlzLQ==
        >
        e 0 90 46 59
        e 311 80 46 00
        <X 233 0
          /wVrYWE=
        >
        e 0 90 45 59
        e 1196 80 45 00
        E 2024 80 69 00
        E 0 80 74 00
        E 44 90 69 59
        <X 17 0
          /wVQaWlzLQ==
        >
        e 0 90 48 59
        e 343 80 48 00
        <X 204 0
          /wVrYWE=
        >
        e 0 90 46 59
        e 1100 80 46 00
        E 2064 80 69 00
        E 93 90 69 59
        <X 36 0
          /wVQaWlzLQ==
        >
        e 0 90 48 59
        e 320 80 48 00
        <X 198 0
          /wVrYWE=
        >
        e 0 90 46 59
        e 1232 80 46 00
        E 4547 80 69 00
        <X 863 0
          /wFbbWVsbG93XQ==
        >
        E 481 90 69 59
        E 0 90 74 59
        E 3720 80 69 00
        E 0 80 74 00
        E 240 90 69 59
        E 3780 80 69 00
        E 180 90 69 59
        E 3480 80 69 00
        E 240 90 69 59
        E 0 90 74 59
        E 3600 80 69 00
        E 0 80 74 00
        <X 22 0
          /wFbaW50ZW5zZV0=
        >
        E 58 90 69 59
        <X 67 0
          /wVQaWlzLQ==
        >
        e 0 90 46 59
        e 311 80 46 00
        <X 266 0
          /wVrYWE=
        >
        e 0 90 45 59
        e 1064 80 45 00
        E 2123 80 69 00
        E 44 90 69 59
        E 0 90 74 59
        <X 17 0
          /wVQaWlzLQ==
        >
        e 0 90 48 59
        e 343 80 48 00
        <X 204 0
          /wVrYWE=
        >
        e 0 90 46 59
        e 1100 80 46 00
        E 2064 80 69 00
        E 0 80 74 00
        E 93 90 69 59
        <X 36 0
          /wVQaWlzLQ==
        >
        e 0 90 48 59
        e 320 80 48 00
        <X 198 0
          /wVrYWE=
        >
        e 0 90 46 59
        e 1233 80 46 00
        E 4547 80 69 00
        E 295 90 69 59
        E 6787 80 69 00
        E 334 90 69 59
        E 5988 80 69 00
        E 57 90 69 59
        E 5737 80 69 00
        <X 349 0
          /wFbaWRsZV9yZWFsdGltZV0=
        >
        E 3904 b0 7b 00
        GUID {E53B89F8-ECC8-4A25-86E2-BC4D240C9444}
        IGNTEMPO 0 120.00000000 4 4
        SRCCOLOR 1202
        VELLANE 132 128 60
        COLORMAP "C:\Users\me\AppData\Roaming\REAPER\Data\color_maps\rockband_vox-other.png"
        TEXTSTRINGFILE "C:\Program Files\REAPER\Data\Text_Strings\Text Events List.txt"
        CFGEDITVIEW -85033.404121 5.668831 10 12 0 0 0
        CFGEDIT 1 1 0 1 1 1 1 1 1 1 1 0.06250000 -8 -8 1374 736 1 2 1 2 0.00000000 0 0 0 0 0.500000 1 0 1.000000 64
        KEYSNAP 0 0 "102034050607" 0 "Major"
        EVTFILTER 0 -1 -1 -1 -1 0 1 0 0 -1.00000000 -1.00000000
      >
    >
  >
  <TRACK '{58A7B9C6-1373-47A1-A41A-295306551BF7}'
    NAME "DRYVOX2"
    PEAKCOL 16576
    BEAT -1
    AUTOMODE 0
    VOLPAN 1.00000000000000 0.00000000000000 -1.00000000000000 -1.00000000000000 1.00000000000000
    MUTESOLO 1 0 0
    IPHASE 0
    ISBUS 0 0
    BUSCOMP 0 0
    SHOWINMIX 1 0.666700 0.500000 1 0.500000 -1 -1 -1
    FREEMODE 0
    SEL 0
    REC 0 0 0 0 0 0 0
    TRACKHEIGHT 181 0
    INQ 0 0 0 0.5000000000 100 0 0 100
    NCHAN 2
    FX 1
    TRACKID {58A7B9C6-1373-47A1-A41A-295306551BF7}
    PERF 0
    MIDIOUT -1
    MAINSEND 1 0
    <FXCHAIN
      SHOW 0
      LASTSEL 0
      DOCKED 0
      BYPASS 0 0
      <VST "VST: ReaGate (Cockos)" "reagate.dll" 0 ""
        dGdlcu9e7f4EAAAAAQAAAAAAAAACAAAAAAAAAAQAAAAAAAAACAAAAA==
        AAAAAAIAAAABAAAAAAAAAAIAAAAAAAAAVAAAAAAAAAAAABAA776t3g==
        DfCt3pzRBzOmm8Q7CtejPAAAAAAAAAAAAACAPwAAAAAAAAAAAAAAAA==
        nNEHMx5Ucz+c0QczAACAPwAAAAAAAAAAAAAAACwWCz8AAAAAAAAAAA==
        AAAQAAAA
      >
      FLOATPOS 859 184 511 385
      FXID {BF545B5B-7DD0-4B4C-AC52-F095A552DA08}
      WAK 0
    >
    <ITEM
      POSITION 0.27656796721991
      SNAPOFFS 0.00000000000000
      LENGTH 192.75999999999999
      LOOP 0
      ALLTAKES 0
      SEL 0
      FADEIN 1 0.000000 0.000000 1 0
      FADEOUT 1 0.000000 0.000000 1 0
      MUTE 0
      IGUID {F8357C72-441B-4DBE-AA1B-3284EFB6BCB1}
      IID 104
      NAME "lipsync_vocal.wav"
      VOLPAN 1.000000 0.000000 1.000000 -1.000000
      SOFFS 0.00000000000000
      PLAYRATE 1.00000000000000 1 0.00000000000000 -1
      CHANMODE 0
      GUID {9332250C-5CC4-4171-A106-4DB721AE21CD}
      <SOURCE WAVE
        FILE "lipsync_vocal.wav"
      >
    >
  >
  <TRACK '{4299BF31-E988-4C64-900A-97AC9ECE5EBC}'
    NAME "HARM3"
    PEAKCOL 24624127
    BEAT -1
    AUTOMODE 0
    VOLPAN 1.00000000000000 0.00000000000000 -1.00000000000000 -1.00000000000000 1.00000000000000
    MUTESOLO 0 0 0
    IPHASE 0
    ISBUS 0 0
    BUSCOMP 0 0
    SHOWINMIX 1 0.666700 0.500000 1 0.500000 -1 -1 -1
    FREEMODE 0
    SEL 0
    REC 0 0 0 0 0 0 0
    TRACKHEIGHT 0 0
    INQ 0 0 0 0.5000000000 100 0 0 100
    NCHAN 2
    FX 1
    TRACKID {4299BF31-E988-4C64-900A-97AC9ECE5EBC}
    PERF 0
    MIDIOUT -1
    <MIDINOTENAMES
      0 0 "Range Shift"
      0 1 "Lyric Shift"
      0 35 "----"
      0 36 "C1"
      0 37 "C#"
      0 38 "D"
      0 39 "Eb"
      0 40 "E"
      0 41 "F"
      0 42 "F#"
      0 43 "G"
      0 44 "G#"
      0 45 "A"
      0 46 "Bb"
      0 47 "B"
      0 48 "C2"
      0 49 "C#"
      0 50 "D"
      0 51 "Eb"
      0 52 "E"
      0 53 "F"
      0 54 "F#"
      0 55 "G"
      0 56 "G#"
      0 57 "A"
      0 58 "Bb"
      0 59 "B"
      0 60 "C3"
      0 61 "C#"
      0 62 "D"
      0 63 "Eb"
      0 64 "E"
      0 65 "F"
      0 66 "F#"
      0 67 "G"
      0 68 "G#"
      0 69 "A"
      0 70 "Bb"
      0 71 "B"
      0 72 "C4"
      0 73 "C#"
      0 74 "D"
      0 75 "Eb"
      0 76 "E"
      0 77 "F"
      0 78 "F#"
      0 79 "G"
      0 80 "G#"
      0 81 "A"
      0 82 "Bb"
      0 83 "B"
      0 84 "C5"
      0 116 "OVERDRIVE"
      0 115 "----"
      0 105 "Phrase Marker"
      0 104 "----"
      0 97 "Not Displayed Percussion"
      0 96 "Displayed Percussion"
      0 95 "----"
    >
    MAINSEND 1 0
    <FXCHAIN
      WNDRECT 0 42 716 493
      SHOW 0
      LASTSEL 1
      DOCKED 0
      BYPASS 0 0
      <JS "IX/MIDI_Tool II" ""
        0.000000 85.000000 127.000000 0.000000 0.000000 0.000000 100.000000 0.000000 0.000000 127.000000 0.000000 0.000000 1.000000 0.000000 0.000000 - - - - - - - - - - - - - - - - - - - - - - - - - - - - - - - - - - - - - - - - - - - - - - - - - 
      >
      FLOATPOS 0 0 0 0
      FXID {3D33E2FB-5DDE-4F81-B16F-BCB1EAD8D4FA}
      WAK 0
      BYPASS 0 0
      <VST "VSTi: ReaSynth (Cockos)" "reasynth.dll" 0 ""
        eXNlcu9e7f4AAAAAAgAAAAEAAAAAAAAAAgAAAAAAAAA4AAAAAAAAAA==
        AAAAAO++rd4N8K3eppvEOxe30ToAAAAAAAAAAAAAAACa9Q8/6WeIPQ==
        AAAAAAAAAD8AAIA/AAAAAAAAAD8AAAAAAAA=
      >
      FLOATPOS 0 0 0 0
      FXID {98E235B6-3365-4F58-AC74-F5BD513BFA85}
      WAK 0
    >
    <ITEM
      POSITION 0.00000000000000
      SNAPOFFS 0.00000000000000
      LENGTH 194.83196922085099
      LOOP 0
      ALLTAKES 0
      SEL 0
      FADEIN 1 0.000000 0.000000 1 0
      FADEOUT 1 0.000000 0.000000 1 0
      MUTE 0
      IGUID {14DAFADF-64E7-40FA-8E65-65BBB77CBDB7}
      IID 13
      NAME "HARM3 untitled MIDI item"
      VOLPAN 1.000000 0.000000 1.000000 -1.000000
      SOFFS 0.00000000000000 0.00000000000000
      PLAYRATE 1.00000000000000 1 0.00000000000000 -1
      CHANMODE 0
      GUID {BA30FF02-694D-4D9D-9D54-87AECA42C3BA}
      <SOURCE MIDI
        HASDATA 1 480 QN
        POOLEDEVTS {28B3545F-E37D-4BA2-8B4E-19599A76E4B4}
        <X 0 0
          /wNIQVJNMw==
        >
        <X 3840 0
          /wFbaWRsZV0=
        >
        <X 30720 0
          /wFbbWVsbG93XQ==
        >
        E 960 90 69 59
        <X 456 0
          /wVNaS0=
        >
        E 0 90 2c 69
        E 224 80 2c 00
        <X 45 0
          /wVuw6Q=
        >
        E 0 90 2c 6b
        E 196 80 2c 00
        <X 109 0
          /wVoYS0=
        >
        E 0 90 2a 6b
        E 152 80 2a 00
        <X 49 0
          /wVsdS0=
        >
        E 0 90 2a 6b
        E 149 80 2a 00
        <X 61 0
          /wVhbg==
        >
        E 0 90 2a 6b
        E 180 80 2a 00
        <X 230 0
          /wVzaS0=
        >
        E 0 90 27 48
        E 273 80 27 00
        <X 75 0
          /wVudXQ=
        >
        E 0 90 27 59
        E 225 80 27 00
        <X 209 0
          /wV0w6RuLQ==
        >
        E 0 90 28 71
        E 540 80 28 00
        <X 179 0
          /wVuZQ==
        >
        E 0 90 2a 68
        E 361 80 2a 00
        E 607 80 69 00
        E 3360 90 69 59
        <X 432 0
          /wVNaXMt
        >
        E 0 90 2c 69
        E 191 80 2c 00
        <X 44 0
          /wVzw6Q=
        >
        E 0 90 2c 6b
        E 198 80 2c 00
        <X 92 0
          /wVwby0=
        >
        E 0 90 2a 6b
        E 197 80 2a 00
        <X 53 0
          /wVsaWkt
        >
        E 0 90 2a 6b
        E 174 80 2a 00
        <X 42 0
          /wVzaQ==
        >
        E 0 90 2a 6b
        E 219 80 2a 00
        <X 83 0
          /wVvbg==
        >
        E 0 90 27 48
        E 181 80 27 00
        <X 99 0
          /wV5cy0=
        >
        E 0 90 27 59
        E 267 80 27 00
        <X 160 0
          /wV0w6Qt
        >
        E 0 90 27 59
        E 192 80 27 00
        <X 78 0
          /wV2w6RtLQ==
        >
        E 0 90 28 71
        E 558 80 28 00
        <X 135 0
          /wVtZQ==
        >
        E 0 90 2a 68
        E 353 80 2a 00
        E 572 80 69 00
        E 3360 90 69 59
        E 0 90 74 59
        <X 374 0
          /wVKYQ==
        >
        E 0 90 2d 59
        E 273 80 2d 00
        <X 53 0
          /wVuZQ==
        >
        E 0 90 2f 59
        E 96 80 2f 00
        <X 96 0
          /wVzYS0=
        >
        E 0 90 2d 59
        E 280 80 2d 00
        <X 81 0
          /wVub28=
        >
        E 0 90 2b 59
        E 525 80 2b 00
        <X 533 0
          /wVzaS0=
        >
        E 0 90 2d 59
        E 273 80 2d 00
        <X 53 0
          /wVuw6Q=
        >
        E 0 90 2f 59
        E 173 80 2f 00
        <X 74 0
          /wVldA==
        >
        E 0 90 2d 59
        E 115 80 2d 00
        <X 154 0
          /wVvLQ==
        >
        E 0 90 2b 59
        E 162 80 2b 00
        <X 53 0
          /wVsZQ==
        >
        E 0 90 2d 59
        E 153 80 2d 00
        <X 81 0
          /wV5ay0=
        >
        E 0 90 2d 59
        E 532 80 2d 00
        <X 162 0
          /wVzaW4=
        >
        E 0 90 28 59
        E 2242 80 28 00
        E 422 80 69 00
        E 0 80 74 00
        E 720 90 69 59
        <X 419 0
          /wVKYQ==
        >
        E 0 90 2d 59
        E 231 80 2d 00
        <X 49 0
          /wVuZQ==
        >
        E 0 90 2f 59
        E 117 80 2f 00
        <X 96 0
          /wVzYS0=
        >
        E 0 90 2d 59
        E 305 80 2d 00
        <X 81 0
          /wVub28=
        >
        E 0 90 2b 59
        E 496 80 2b 00
        <X 562 0
          /wVqYQ==
        >
        E 0 90 2d 59
        E 201 80 2d 00
        <X 61 0
          /wVuZQ==
        >
        E 0 90 2f 59
        E 117 80 2f 00
        <X 87 0
          /wVzYS0=
        >
        E 0 90 2d 59
        E 291 80 2d 00
        <X 110 0
          /wVub28=
        >
        E 0 90 2b 59
        E 385 80 2b 00
        <X 105 0
          /wVuaWlu
        >
        E 0 90 2d 59
        E 771 80 2d 00
        <X 618 0
          /wUr
        >
        E 0 90 2f 59
        E 1910 80 2f 00
        E 188 80 69 00
        <X 117 0
          /wFbaW50ZW5zZV0=
        >
        E 123 90 69 59
        <X 246 0
          /wVQaWlzLQ==
        >
        E 0 90 3c 59
        E 311 80 3c 00
        <X 233 0
          /wVrYWE=
        >
        E 0 90 3b 59
        E 1196 80 3b 00
        E 2024 80 69 00
        E 44 90 69 59
        E 0 90 74 59
        <X 52 0
          /wVQaWlzLQ==
        >
        E 0 90 3e 59
        E 343 80 3e 00
        <X 204 0
          /wVrYWE=
        >
        E 0 90 3c 59
        E 1127 80 3c 00
        E 2002 80 69 00
        E 0 80 74 00
        E 93 90 69 59
        <X 51 0
          /wVQaWlzLQ==
        >
        E 0 90 3e 59
        E 320 80 3e 00
        <X 198 0
          /wVrYWE=
        >
        E 0 90 3c 59
        E 1163 80 3c 00
        E 4075 80 69 00
        <X 1433 0
          /wFbbWVsbG93XQ==
        >
        E 417 90 69 59
        <X 525 0
          /wVTaS0=
        >
        E 0 90 2a 69
        E 160 80 2a 00
        <X 71 0
          /wV0w6Q=
        >
        E 0 90 2c 6b
        E 168 80 2c 00
        <X 87 0
          /wVzYS0=
        >
        E 0 90 2a 6b
        E 187 80 2a 00
        <X 65 0
          /wVtYWE=
        >
        E 0 90 2b 6b
        E 211 80 2b 00
        <X 67 0
          /wVtaS0=
        >
        E 0 90 2a 6b
        E 155 80 2a 00
        <X 64 0
          /wVudW4=
        >
        E 0 90 28 48
        E 166 80 28 00
        <X 83 0
          /wVyYS0=
        >
        E 0 90 27 59
        E 206 80 27 00
        <X 44 0
          /wVkaS0=
        >
        E 0 90 27 59
        E 188 80 27 00
        <X 56 0
          /wVv
        >
        E 0 90 27 59
        E 75 80 27 00
        <X 85 0
          /wVzb2l0LQ==
        >
        E 0 90 28 71
        E 589 80 28 00
        <X 141 0
          /wV0YWE=
        >
        E 0 90 2a 68
        E 480 80 2a 00
        E 447 80 69 00
        E 3360 90 69 59
        E 0 90 74 59
        <X 575 0
          /wVLdWluLQ==
        >
        E 0 90 2b 69
        E 122 80 2b 00
        <X 113 0
          /wVrYQ==
        >
        E 0 90 2b 6b
        E 166 80 2b 00
        <X 81 0
          /wVsby0=
        >
        E 0 90 2b 6b
        E 123 80 2b 00
        <X 106 0
          /wVwdWwt
        >
        E 0 90 2b 6b
        E 158 80 2b 00
        <X 95 0
          /wV0YS0=
        >
        E 0 90 2a 6b
        E 150 80 2a 00
        <X 115 0
          /wVraW4=
        >
        E 0 90 27 48
        E 128 80 27 00
        <X 77 0
          /wVlLQ==
        >
        E 0 90 27 59
        E 177 80 27 00
        <X 85 0
          /wVsw6Qt
        >
        E 0 90 27 59
        E 139 80 27 00
        <X 79 0
          /wVtw6Q=
        >
        E 0 90 27 59
        E 159 80 27 00
        <X 95 0
          /wV2b2l0LQ==
        >
        E 0 90 28 71
        E 478 80 28 00
        <X 204 0
          /wV0YWE=
        >
        E 0 90 2a 68
        E 530 80 2a 00
        E 365 80 69 00
        E 0 80 74 00
        E 3527 90 69 59
        <X 320 0
          /wVKYQ==
        >
        E 0 90 2d 59
        E 247 80 2d 00
        <X 60 0
          /wVuZQ==
        >
        E 0 90 2f 59
        E 96 80 2f 00
        <X 115 0
          /wVzYS0=
        >
        E 0 90 2d 59
        E 280 80 2d 00
        <X 97 0
          /wVub28=
        >
        E 0 90 2b 59
        E 509 80 2b 00
        <X 533 0
          /wVzaS0=
        >
        E 0 90 2f 59
        E 252 80 2f 00
        <X 58 0
          /wVuw6Q=
        >
        E 0 90 2d 59
        E 184 80 2d 00
        <X 101 0
          /wVvLQ==
        >
        E 0 90 2d 59
        E 164 80 2d 00
        <X 51 0
          /wVsZXQ=
        >
        E 0 90 2b 59
        E 162 80 2b 00
        <X 259 0
          /wVrYXUt
        >
        E 0 90 2d 59
        E 549 80 2d 00
        <X 132 0
          /wVoZWlu
        >
        E 0 90 28 59
        E 2299 80 28 00
        E 492 80 69 00
        E 553 90 69 59
        <X 419 0
          /wVKYQ==
        >
        E 0 90 2d 59
        E 269 80 2d 00
        <X 72 0
          /wVuZQ==
        >
        E 0 90 2f 59
        E 94 80 2f 00
        <X 91 0
          /wVzYS0=
        >
        E 0 90 2d 59
        E 294 80 2d 00
        <X 81 0
          /wVub28=
        >
        E 0 90 2b 59
        E 526 80 2b 00
        <X 560 0
          /wVqYQ==
        >
        E 0 90 2d 59
        E 201 80 2d 00
        <X 61 0
          /wVuZQ==
        >
        E 0 90 2f 59
        E 117 80 2f 00
        <X 87 0
          /wVzYS0=
        >
        E 0 90 2d 59
        E 291 80 2d 00
        <X 110 0
          /wVub28=
        >
        E 0 90 2b 59
        E 385 80 2b 00
        <X 105 0
          /wVuaWlu
        >
        E 0 90 2d 59
        E 771 80 2d 00
        <X 568 0
          /wUr
        >
        E 0 90 2f 59
        E 1995 80 2f 00
        E 103 80 69 00
        <X 319 0
          /wFbaW50ZW5zZV0=
        >
        E 37 90 69 59
        E 0 90 74 59
        <X 246 0
          /wVQaWlzLQ==
        >
        E 0 90 3c 59
        E 311 80 3c 00
        <X 233 0
          /wVrYWE=
        >
        E 0 90 3b 59
        E 1196 80 3b 00
        E 2024 80 69 00
        E 0 80 74 00
        E 44 90 69 59
        <X 17 0
          /wVQaWlzLQ==
        >
        E 0 90 3e 59
        E 343 80 3e 00
        <X 204 0
          /wVrYWE=
        >
        E 0 90 3c 59
        E 1100 80 3c 00
        E 2064 80 69 00
        E 93 90 69 59
        <X 36 0
          /wVQaWlzLQ==
        >
        E 0 90 3e 59
        E 320 80 3e 00
        <X 198 0
          /wVrYWE=
        >
        E 0 90 3c 59
        E 1232 80 3c 00
        E 4547 80 69 00
        <X 863 0
          /wFbbWVsbG93XQ==
        >
        E 481 90 69 59
        E 0 90 74 59
        E 3720 80 69 00
        E 0 80 74 00
        E 240 90 69 59
        E 3780 80 69 00
        E 180 90 69 59
        E 3480 80 69 00
        E 240 90 69 59
        E 0 90 74 59
        E 3600 80 69 00
        E 0 80 74 00
        <X 22 0
          /wFbaW50ZW5zZV0=
        >
        E 58 90 69 59
        <X 67 0
          /wVQaWlzLQ==
        >
        E 0 90 3c 59
        E 311 80 3c 00
        <X 266 0
          /wVrYWE=
        >
        E 0 90 3b 59
        E 1064 80 3b 00
        E 2123 80 69 00
        E 44 90 69 59
        E 0 90 74 59
        <X 17 0
          /wVQaWlzLQ==
        >
        E 0 90 3e 59
        E 343 80 3e 00
        <X 204 0
          /wVrYWE=
        >
        E 0 90 3c 59
        E 1100 80 3c 00
        E 2064 80 69 00
        E 0 80 74 00
        E 93 90 69 59
        <X 36 0
          /wVQaWlzLQ==
        >
        E 0 90 3e 59
        E 320 80 3e 00
        <X 198 0
          /wVrYWE=
        >
        E 0 90 3c 59
        E 1233 80 3c 00
        E 4547 80 69 00
        E 295 90 69 59
        E 6787 80 69 00
        E 334 90 69 59
        E 5988 80 69 00
        E 57 90 69 59
        E 5737 80 69 00
        <X 349 0
          /wFbaWRsZV9yZWFsdGltZV0=
        >
        E 3904 b0 7b 00
        GUID {F1082209-E2A8-4526-8AA6-2FE8F2DEB335}
        IGNTEMPO 0 120.00000000 4 4
        SRCCOLOR 1203
        VELLANE 132 128 60
        COLORMAP "C:\Users\me\AppData\Roaming\REAPER\Data\color_maps\rockband_vox-other.png"
        TEXTSTRINGFILE "C:\Program Files\REAPER\Data\Text_Strings\Text Events List.txt"
        CFGEDITVIEW -85033.404121 5.668831 22 12 0 0 0
        CFGEDIT 1 1 0 1 1 1 1 1 1 1 1 0.06250000 -8 -8 1374 736 1 2 1 2 0.00000000 0 0 0 0 0.500000 1 0 1.000000 64
        KEYSNAP 0 0 "102034050607" 0 "Major"
        EVTFILTER 0 -1 -1 -1 -1 0 1 0 0 -1.00000000 -1.00000000
      >
    >
  >
  <TRACK '{AB3E8FDC-23A9-4945-BA6C-055C630028D0}'
    NAME "DRYVOX3"
    PEAKCOL 16576
    BEAT -1
    AUTOMODE 0
    VOLPAN 1.00000000000000 0.00000000000000 -1.00000000000000 -1.00000000000000 1.00000000000000
    MUTESOLO 1 0 0
    IPHASE 0
    ISBUS 0 0
    BUSCOMP 0 0
    SHOWINMIX 1 0.666700 0.500000 1 0.500000 -1 -1 -1
    FREEMODE 0
    SEL 0
    REC 0 0 0 0 0 0 0
    TRACKHEIGHT 24 0
    INQ 0 0 0 0.5000000000 100 0 0 100
    NCHAN 2
    FX 1
    TRACKID {AB3E8FDC-23A9-4945-BA6C-055C630028D0}
    PERF 0
    MIDIOUT -1
    MAINSEND 1 0
    <FXCHAIN
      SHOW 0
      LASTSEL 0
      DOCKED 0
      BYPASS 0 0
      <VST "VST: ReaGate (Cockos)" "reagate.dll" 0 ""
        dGdlcu9e7f4EAAAAAQAAAAAAAAACAAAAAAAAAAQAAAAAAAAACAAAAA==
        AAAAAAIAAAABAAAAAAAAAAIAAAAAAAAAVAAAAAAAAAAAABAA776t3g==
        DfCt3pzRBzOmm8Q7CtejPAAAAAAAAAAAAACAPwAAAAAAAAAAAAAAAA==
        nNEHMx5Ucz+c0QczAACAPwAAAAAAAAAAAAAAACwWCz8AAAAAAAAAAA==
        AAAQAAAA
      >
      FLOATPOS 859 184 511 385
      FXID {BF545B5B-7DD0-4B4C-AC52-F095A552DA08}
      WAK 0
    >
  >
  <TRACK '{14F64FB7-FE44-4E53-9F58-44F4178BCEF9}'
    NAME "PART KEYS"
    PEAKCOL 16842496
    BEAT -1
    AUTOMODE 0
    VOLPAN 1.00000000000000 0.00000000000000 -1.00000000000000 -1.00000000000000 1.00000000000000
    MUTESOLO 1 0 0
    IPHASE 0
    ISBUS 1 1
    BUSCOMP 0 0
    SHOWINMIX 1 0.666700 0.500000 1 0.500000 -1 -1 -1
    FREEMODE 0
    SEL 0
    REC 0 0 0 0 0 0 0
    TRACKHEIGHT 0 0
    INQ 0 0 0 0.5000000000 100 0 0 100
    NCHAN 2
    FX 1
    TRACKID {14F64FB7-FE44-4E53-9F58-44F4178BCEF9}
    PERF 0
    MIDIOUT -1
    <MIDINOTENAMES
      0 124 "BRE"
      0 123 "BRE"
      0 122 "BRE"
      0 121 "BRE"
      0 120 "BRE (use all 5)"
      0 116 "OVERDRIVE"
      0 119 "----"
      0 115 "----"
      0 103 "Solo Marker"
      0 95 "----"
      0 96 "EXPERT Green"
      0 97 "EXPERT Red"
      0 98 "EXPERT Yellow"
      0 99 "EXPERT Blue"
      0 100 "EXPERT Orange"
      0 102 "Force HoPo off"
      0 83 "----"
      0 84 "HARD Green"
      0 85 "HARD Red"
      0 86 "HARD Yellow"
      0 87 "HARD Blue"
      0 88 "HARD Orange"
      0 72 "MEDIUM Green"
      0 73 "MEDIUM Red"
      0 74 "MEDIUM Yellow"
      0 75 "MEDIUM Blue"
      0 76 "MEDIUM Orange"
      0 71 "----"
      0 64 "EASY Orange"
      0 63 "EASY Blue"
      0 62 "EASY Yellow"
      0 61 "EASY Red"
      0 60 "EASY Green"
      0 127 "Trill Marker"
      0 126 "----"
      0 101 "Force HoPo on"
    >
    MAINSEND 1 0
    <FXCHAIN
      WNDRECT 0 40 878 585
      SHOW 0
      LASTSEL 0
      DOCKED 0
      BYPASS 0 0
      <VST "VSTi: RBN Preview (RBN)" "rbprev_vst64_beta.dll" 0 ""
        dnBicu5e7f4AAAAAAgAAAAEAAAAAAAAAAgAAAAAAAAAEAAAAAQAAAA==
        AAAAAAMAqgAAAAAAAAA=
      >
      FLOATPOS 0 0 0 0
      FXID {EE0C80EE-5E5F-4EA2-B367-78AAAB3793F5}
      WAK 0
    >
    <ITEM
      POSITION 0.00000000000000
      SNAPOFFS 0.00000000000000
      LENGTH 194.83196922085079
      LOOP 0
      ALLTAKES 0
      SEL 0
      FADEIN 1 0.000000 0.000000 1 0
      FADEOUT 1 0.000000 0.000000 1 0
      MUTE 0
      IGUID {52D9F6AC-16AD-4CE9-95E4-6AD6396BB4E2}
      IID 14
      NAME "PART KEYS"
      VOLPAN 1.000000 0.000000 1.000000 -1.000000
      SOFFS 0.00000000000000 0.00000000000000
      PLAYRATE 1.00000000000000 1 0.00000000000000 -65536
      CHANMODE 0
      GUID {78E1CCBD-C30B-4DD8-81CD-2AEB0D2D38C8}
      <SOURCE MIDI
        HASDATA 1 480 QN
        POOLEDEVTS {3621E485-88DE-4017-B6C5-3661F4A917B5}
        <X 0 0
          /wNQQVJUIEtFWVM=
        >
        <X 3840 0
          /wFbcGxheV0=
        >
        E 0 90 40 7f
        E 0 90 4c 7f
        E 0 90 58 7f
        E 60 80 40 00
        E 0 80 4c 00
        E 0 80 58 00
        E 30 90 3f 7f
        E 0 90 4b 7f
        E 0 90 57 7f
        E 60 80 3f 00
        E 0 80 4b 00
        E 0 80 57 00
        E 30 90 3e 7f
        E 0 90 4a 7f
        E 0 90 56 7f
        E 60 80 3e 00
        E 0 80 4a 00
        E 0 80 56 00
        E 30 90 3d 7f
        E 0 90 49 7f
        E 0 90 55 7f
        E 60 80 3d 00
        E 0 80 49 00
        E 0 80 55 00
        E 30 90 3c 7f
        E 0 90 48 7f
        E 0 90 54 7f
        E 60 80 3c 00
        E 0 80 48 00
        E 0 80 54 00
        E 176221 b0 7b 00
        GUID {F537F270-CEBA-461E-8612-DC28913708FC}
        IGNTEMPO 0 120.00000000 4 4
        SRCCOLOR 1204
        VELLANE 132 128 60
        COLORMAP "C:\Users\me\AppData\Roaming\REAPER\Data\color_maps\rockband_guitarbass.png"
        TEXTSTRINGFILE "C:\Program Files\REAPER\Data\Text_Strings\Text Events List.txt"
        CFGEDITVIEW -4299.275963 82.395269 19 12 0 0 0
        CFGEDIT 1 1 0 0 0 1 1 1 1 1 1 0.12500000 -8 -8 1370 736 1 0 1 2 0.00000000 0 0 0 0 0.500000 1 0 1.000000 64
        KEYSNAP 0 0 "102034050607" 0 "Major"
        EVTFILTER 0 -1 -1 -1 -1 0 1 0 0 -1.00000000 -1.00000000
      >
    >
  >
  <TRACK '{D39F8BD7-8730-4182-94EC-51AF9F9ACC90}'
    NAME "PART REAL_KEYS_X"
    PEAKCOL 25231232
    BEAT -1
    AUTOMODE 0
    VOLPAN 1.00000000000000 0.00000000000000 -1.00000000000000 -1.00000000000000 1.00000000000000
    MUTESOLO 1 0 0
    IPHASE 0
    ISBUS 0 0
    BUSCOMP 1 0
    SHOWINMIX 1 0.666700 0.500000 1 0.500000 -1 -1 -1
    FREEMODE 0
    SEL 0
    REC 0 0 0 0 0 0 0
    TRACKHEIGHT 0 0
    INQ 0 0 0 0.5000000000 100 0 0 100
    NCHAN 2
    FX 1
    TRACKID {D39F8BD7-8730-4182-94EC-51AF9F9ACC90}
    PERF 0
    MIDIOUT -1
    <MIDINOTENAMES
      0 0 "C2-E3 Range"
      0 5 "F2-A3 Range"
      0 9 "A2-C4 Range"
      0 48 "C2 (Lowest Note)"
      0 72 "C4 (Highest Note)"
      0 115 "Solo Marker"
      0 126 "Glissando Marker"
      0 116 "Overdrive Marker"
      0 127 "Trill Marker"
      0 125 "----"
      0 114 "----"
      0 47 "----"
      0 49 "C#2"
      0 50 "D2"
      0 51 "Eb2"
      0 52 "E2"
      0 53 "F2"
      0 54 "F#2"
      0 55 "G2"
      0 56 "G#2"
      0 57 "A2"
      0 58 "Bb2"
      0 59 "B2"
      0 60 "C3"
      0 61 "C#3"
      0 62 "D3"
      0 63 "Eb3"
      0 64 "E3"
      0 65 "F3"
      0 66 "F#3"
      0 67 "G3"
      0 68 "G#3"
      0 69 "A3"
      0 70 "Bb3"
      0 71 "B3"
      0 2 "D2-F3 Range"
      0 4 "E2-G3 Range"
      0 7 "G2-B3 Range"
    >
    MAINSEND 1 0
    <FXCHAIN
      WNDRECT 0 40 655 493
      SHOW 0
      LASTSEL 1
      DOCKED 0
      BYPASS 0 0
      <JS "IX/MIDI_Tool II" ""
        0.000000 85.000000 127.000000 0.000000 0.000000 0.000000 100.000000 0.000000 0.000000 127.000000 0.000000 0.000000 1.000000 0.000000 0.000000 - - - - - - - - - - - - - - - - - - - - - - - - - - - - - - - - - - - - - - - - - - - - - - - - - 
      >
      FLOATPOS 0 0 0 0
      FXID {A891DAA7-5D8A-4720-AA8F-E43D2ABA2AE5}
      WAK 0
      BYPASS 0 0
      <VST "VSTi: ReaSynth (Cockos)" "reasynth.dll" 0 ""
        eXNlcu9e7f4AAAAAAgAAAAEAAAAAAAAAAgAAAAAAAAA4AAAAAAAAAA==
        AAAAAO++rd4N8K3eppvEOxe30TqcxKA+c2jRPgAAAADMm4A+6WeIPQ==
        AAAAAAAAAD8AAIA/6SaxPgAAAD8AAAAAAAA=
      >
      FLOATPOS 0 0 0 0
      FXID {A0CE5851-0C70-49E2-AD61-BC7B1C50A030}
      WAK 0
    >
    <ITEM
      POSITION 0.00000000000000
      SNAPOFFS 0.00000000000000
      LENGTH 194.83196922085079
      LOOP 0
      ALLTAKES 0
      SEL 0
      FADEIN 1 0.000000 0.000000 1 0
      FADEOUT 1 0.000000 0.000000 1 0
      MUTE 0
      IGUID {974100C2-06C4-4CB5-BD67-2F1BC71A1259}
      IID 15
      NAME "PART REAL_KEYS_X"
      VOLPAN 1.000000 0.000000 1.000000 -1.000000
      SOFFS 0.00000000000000 0.00000000000000
      PLAYRATE 1.00000000000000 1 0.00000000000000 -65536
      CHANMODE 0
      GUID {08703F3F-9741-46EB-9ED4-B09B2390F876}
      <SOURCE MIDI
        HASDATA 1 480 QN
        POOLEDEVTS {CFC2ACFC-1918-42B7-BACB-AEA0EDA51F16}
        <X 0 0
          /wNQQVJUIFJFQUxfS0VZU19Y
        >
        <X 3840 0
          /wFbcGxheV0=
        >
        E 176641 b0 7b 00
        GUID {0E0CBFB7-4AC8-4E67-A764-85891754BB41}
        IGNTEMPO 0 120.00000000 4 4
        SRCCOLOR 1205
        VELLANE 132 128 60
        COLORMAP "C:\Program Files\REAPER\Data\color_maps\rockband_guitarbass.png"
        TEXTSTRINGFILE "C:\Program Files\REAPER\Data\Text_Strings\Text Events List.txt"
        CFGEDITVIEW -4299.275963 82.395269 48 12 0 0 0
        CFGEDIT 1 1 0 1 1 1 1 1 1 1 1 0.12500000 -8 -8 1370 736 1 0 1 2 0.00000000 0 0 0 0 0.500000 1 0 1.000000 64
        KEYSNAP 0 0 "102034050607" 0 "Major"
        EVTFILTER 0 -1 -1 -1 -1 0 1 0 0 -1.00000000 -1.00000000
      >
    >
  >
  <TRACK '{117931B6-9EA5-432A-AEED-ACF4C8876354}'
    NAME "PART REAL _KEYS_H"
    PEAKCOL 25231232
    BEAT -1
    AUTOMODE 0
    VOLPAN 1.00000843600341 0.00000000000000 -1.00000000000000 -1.00000000000000 1.00000000000000
    MUTESOLO 1 0 0
    IPHASE 0
    ISBUS 0 0
    BUSCOMP 0 0
    SHOWINMIX 1 0.666700 0.500000 1 0.500000 -1 -1 -1
    FREEMODE 0
    SEL 0
    REC 0 0 0 0 0 0 0
    TRACKHEIGHT 0 0
    INQ 0 0 0 0.5000000000 100 0 0 100
    NCHAN 2
    FX 1
    TRACKID {117931B6-9EA5-432A-AEED-ACF4C8876354}
    PERF 0
    MIDIOUT -1
    <MIDINOTENAMES
      0 0 "C2-E3 Range"
      0 5 "F2-A3 Range"
      0 9 "A2-C4 Range"
      0 48 "C2 (Lowest Note)"
      0 72 "C4 (Highest Note)"
      0 115 "Solo Marker"
      0 126 "Glissando Marker"
      0 127 "Trill Marker"
      0 125 "----"
      0 116 "Overdrive Marker"
      0 114 "----"
      0 71 "B3"
      0 70 "Bb3"
      0 69 "A3"
      0 68 "G#3"
      0 67 "G3"
      0 66 "F#3"
      0 65 "F3"
      0 64 "E3"
      0 63 "Eb3"
      0 62 "D3"
      0 61 "C#3"
      0 60 "C3"
      0 59 "B2"
      0 58 "Bb2"
      0 57 "A2"
      0 56 "G#2"
      0 55 "G2"
      0 54 "F#2"
      0 53 "F2"
      0 52 "E2"
      0 51 "Eb2"
      0 50 "D2"
      0 49 "C#2"
      0 47 "----"
      0 7 "G2-B3 Range"
      0 4 "E2-G3 Range"
      0 2 "D2-F3 Range"
    >
    MAINSEND 1 0
    <FXCHAIN
      SHOW 0
      LASTSEL 0
      DOCKED 0
      BYPASS 0 0
      <JS "IX/MIDI_Tool II" ""
        0.000000 85.000000 127.000000 0.000000 0.000000 0.000000 100.000000 0.000000 0.000000 127.000000 0.000000 0.000000 1.000000 0.000000 0.000000 - - - - - - - - - - - - - - - - - - - - - - - - - - - - - - - - - - - - - - - - - - - - - - - - - 
      >
      FLOATPOS 0 0 0 0
      FXID {5BF1E178-D070-4445-A488-4CE4E31F6508}
      WAK 0
      BYPASS 0 0
      <VST "VSTi: ReaSynth (Cockos)" "reasynth.dll" 0 ""
        eXNlcu9e7f4AAAAAAgAAAAEAAAAAAAAAAgAAAAAAAAA4AAAAAAAAAA==
        AAAAAO++rd4N8K3eppvEOxe30TqcxKA+c2jRPgAAAADMm4A+6WeIPQ==
        AAAAAAAAAD8AAIA/6SaxPgAAAD8AAAAAAAA=
      >
      FLOATPOS 0 0 0 0
      FXID {C48567E0-8372-4900-9933-4B040EA2A253}
      WAK 0
    >
    <ITEM
      POSITION 0.00000000000000
      SNAPOFFS 0.00000000000000
      LENGTH 194.83196922085079
      LOOP 0
      ALLTAKES 0
      SEL 0
      FADEIN 1 0.000000 0.000000 1 0
      FADEOUT 1 0.000000 0.000000 1 0
      MUTE 0
      IGUID {DA514BF3-AF34-46C0-BD23-58406C871A44}
      IID 16
      NAME "PART REAL _KEYS_H"
      VOLPAN 1.000000 0.000000 1.000000 -1.000000
      SOFFS 0.00000000000000 0.00000000000000
      PLAYRATE 1.00000000000000 1 0.00000000000000 -65536
      CHANMODE 0
      GUID {8E0AC36B-D538-4BB8-A507-FFF40527D1BA}
      <SOURCE MIDI
        HASDATA 1 480 QN
        POOLEDEVTS {3FB77018-4A6F-4BD9-A783-F9972649D6A7}
        <X 0 0
          /wNQQVJUIFJFQUxfS0VZU19I
        >
        E 0 90 09 60
        E 480 80 09 00
        E 3360 90 39 60
        E 360 80 39 00
        E 176281 b0 7b 00
        GUID {53F487B1-1F2F-4D54-9DAE-BC2E7B032E3B}
        IGNTEMPO 0 120.00000000 4 4
        SRCCOLOR 1206
        VELLANE 132 128 60
        COLORMAP "C:\Program Files\REAPER\Data\color_maps\rockband_guitarbass.png"
        TEXTSTRINGFILE "C:\Program Files\REAPER\Data\Text_Strings\Text Events List.txt"
        CFGEDITVIEW -4299.275963 82.395269 5 14 0 0 0
        CFGEDIT 1 1 0 1 1 1 1 1 1 1 1 0.12500000 -8 -8 1374 736 1 2 1 2 0.00000000 0 0 0 0 0.500000 1 0 1.000000 64
        KEYSNAP 0 0 "102034050607" 0 "Major"
        EVTFILTER 0 -1 -1 -1 -1 0 1 0 0 -1.00000000 -1.00000000
      >
    >
  >
  <TRACK '{3B6F726E-1CAB-4A00-9B01-2E1CC375B13E}'
    NAME "PART REAL_KEYS_M"
    PEAKCOL 25231232
    BEAT -1
    AUTOMODE 0
    VOLPAN 1.00000000000000 0.00000000000000 -1.00000000000000 -1.00000000000000 1.00000000000000
    MUTESOLO 1 0 0
    IPHASE 0
    ISBUS 0 0
    BUSCOMP 0 0
    SHOWINMIX 1 0.666700 0.500000 1 0.500000 -1 -1 -1
    FREEMODE 0
    SEL 0
    REC 0 0 0 0 0 0 0
    TRACKHEIGHT 0 0
    INQ 0 0 0 0.5000000000 100 0 0 100
    NCHAN 2
    FX 1
    TRACKID {3B6F726E-1CAB-4A00-9B01-2E1CC375B13E}
    PERF 0
    MIDIOUT -1
    <MIDINOTENAMES
      0 0 "C2-E3 Range"
      0 5 "F2-A3 Range"
      0 9 "A2-C4 Range"
      0 48 "C2 (Lowest Note)"
      0 72 "C4 (Highest Note)"
      0 115 "Solo Marker"
      0 126 "Glissando Marker"
      0 127 "Trill Marker"
      0 125 "----"
      0 116 "Overdrive Marker"
      0 114 "----"
      0 71 "B3"
      0 70 "Bb3"
      0 69 "A3"
      0 68 "G#3"
      0 67 "G3"
      0 66 "F#3"
      0 65 "F3"
      0 64 "E3"
      0 63 "Eb3"
      0 62 "D3"
      0 61 "C#3"
      0 60 "C3"
      0 59 "B2"
      0 58 "Bb2"
      0 57 "A2"
      0 56 "G#2"
      0 55 "G2"
      0 54 "F#2"
      0 53 "F2"
      0 52 "E2"
      0 51 "Eb2"
      0 50 "D2"
      0 49 "C#2"
      0 47 "----"
      0 7 "G2-B3 Range"
      0 4 "E2-G3 Range"
      0 2 "D2-F3 Range"
    >
    MAINSEND 1 0
    <FXCHAIN
      SHOW 0
      LASTSEL 0
      DOCKED 0
      BYPASS 0 0
      <JS "IX/MIDI_Tool II" ""
        0.000000 85.000000 127.000000 0.000000 0.000000 0.000000 100.000000 0.000000 0.000000 127.000000 0.000000 0.000000 1.000000 0.000000 0.000000 - - - - - - - - - - - - - - - - - - - - - - - - - - - - - - - - - - - - - - - - - - - - - - - - - 
      >
      FLOATPOS 0 0 0 0
      FXID {096BA8B0-BFAB-4802-A0D3-DEA88A16B5B2}
      WAK 0
      BYPASS 0 0
      <VST "VSTi: ReaSynth (Cockos)" "reasynth.dll" 0 ""
        eXNlcu9e7f4AAAAAAgAAAAEAAAAAAAAAAgAAAAAAAAA4AAAAAAAAAA==
        AAAAAO++rd4N8K3eppvEOxe30TqcxKA+c2jRPgAAAADMm4A+6WeIPQ==
        AAAAAAAAAD8AAIA/6SaxPgAAAD8AAAAAAAA=
      >
      FLOATPOS 0 0 0 0
      FXID {A5115AF9-13EF-41D8-80FF-CB81A74D6CD4}
      WAK 0
    >
    <ITEM
      POSITION 0.00000000000000
      SNAPOFFS 0.00000000000000
      LENGTH 194.83196922085079
      LOOP 0
      ALLTAKES 0
      SEL 0
      FADEIN 1 0.000000 0.000000 1 0
      FADEOUT 1 0.000000 0.000000 1 0
      MUTE 0
      IGUID {6F5DF5D5-958D-4566-AA6E-AFD27D997F3F}
      IID 17
      NAME "PART REAL_KEYS_M"
      VOLPAN 1.000000 0.000000 1.000000 -1.000000
      SOFFS 0.00000000000000 0.00000000000000
      PLAYRATE 1.00000000000000 1 0.00000000000000 -65536
      CHANMODE 0
      GUID {14BC6779-E32B-455D-A61C-C2E68D8FE08C}
      <SOURCE MIDI
        HASDATA 1 480 QN
        POOLEDEVTS {93DE83AE-D9F0-4F9D-B7A6-40E3803721C0}
        <X 0 0
          /wNQQVJUIFJFQUxfS0VZU19N
        >
        e 0 90 09 60
        e 480 80 09 00
        e 3360 90 39 60
        e 360 80 39 00
        E 176281 b0 7b 00
        GUID {806139BE-556B-4882-A297-06705078FD7A}
        IGNTEMPO 0 120.00000000 4 4
        SRCCOLOR 1207
        VELLANE 132 128 60
        COLORMAP "C:\Program Files\REAPER\Data\color_maps\rockband_guitarbass.png"
        TEXTSTRINGFILE "C:\Program Files\REAPER\Data\Text_Strings\Text Events List.txt"
        CFGEDITVIEW -4299.275963 82.395269 0 17 0 0 0
        CFGEDIT 1 1 0 1 1 1 1 1 1 1 1 0.12500000 -8 -8 1374 736 1 2 1 2 0.00000000 0 0 0 0 0.500000 1 0 1.000000 64
        KEYSNAP 0 0 "102034050607" 0 "Major"
        EVTFILTER 0 -1 -1 -1 -1 0 1 0 0 -1.00000000 -1.00000000
      >
    >
  >
  <TRACK '{49B8D0E0-0069-415C-8FC3-AC29B0E2C3CF}'
    NAME "PART REAL_KEYS_E"
    PEAKCOL 25231232
    BEAT -1
    AUTOMODE 0
    VOLPAN 1.00000000000000 0.00000000000000 -1.00000000000000 -1.00000000000000 1.00000000000000
    MUTESOLO 1 0 0
    IPHASE 0
    ISBUS 0 0
    BUSCOMP 0 0
    SHOWINMIX 1 0.666700 0.500000 1 0.500000 -1 -1 -1
    FREEMODE 0
    SEL 0
    REC 0 0 0 0 0 0 0
    TRACKHEIGHT 0 0
    INQ 0 0 0 0.5000000000 100 0 0 100
    NCHAN 2
    FX 1
    TRACKID {49B8D0E0-0069-415C-8FC3-AC29B0E2C3CF}
    PERF 0
    MIDIOUT -1
    <MIDINOTENAMES
      0 0 "C2-E3 Range"
      0 5 "F2-A3 Range"
      0 9 "A2-C4 Range"
      0 48 "C2 (Lowest Note)"
      0 72 "C4 (Highest Note)"
      0 115 "Solo Marker"
      0 126 "Glissando Marker"
      0 127 "Trill Marker"
      0 125 "----"
      0 116 "Overdrive Marker"
      0 114 "----"
      0 71 "B3"
      0 70 "Bb3"
      0 69 "A3"
      0 68 "G#3"
      0 67 "G3"
      0 66 "F#3"
      0 65 "F3"
      0 64 "E3"
      0 63 "Eb3"
      0 62 "D3"
      0 61 "C#3"
      0 60 "C3"
      0 59 "B2"
      0 58 "Bb2"
      0 57 "A2"
      0 56 "G#2"
      0 55 "G2"
      0 54 "F#2"
      0 53 "F2"
      0 52 "E2"
      0 51 "Eb2"
      0 50 "D2"
      0 49 "C#2"
      0 47 "----"
      0 7 "G2-B3 Range"
      0 4 "E2-G3 Range"
      0 2 "D2-F3 Range"
    >
    MAINSEND 1 0
    <FXCHAIN
      SHOW 0
      LASTSEL 0
      DOCKED 0
      BYPASS 0 0
      <JS "IX/MIDI_Tool II" ""
        0.000000 85.000000 127.000000 0.000000 0.000000 0.000000 100.000000 0.000000 0.000000 127.000000 0.000000 0.000000 1.000000 0.000000 0.000000 - - - - - - - - - - - - - - - - - - - - - - - - - - - - - - - - - - - - - - - - - - - - - - - - - 
      >
      FLOATPOS 0 0 0 0
      FXID {71EF04AA-9A38-4C4E-8E04-9FB37BDA6361}
      WAK 0
      BYPASS 0 0
      <VST "VSTi: ReaSynth (Cockos)" "reasynth.dll" 0 ""
        eXNlcu9e7f4AAAAAAgAAAAEAAAAAAAAAAgAAAAAAAAA4AAAAAAAAAA==
        AAAAAO++rd4N8K3eppvEOxe30TqcxKA+c2jRPgAAAADMm4A+6WeIPQ==
        AAAAAAAAAD8AAIA/6SaxPgAAAD8AAAAAAAA=
      >
      FLOATPOS 0 0 0 0
      FXID {6C388847-2A2F-4264-AA7A-4C4ACA9A9672}
      WAK 0
    >
    <ITEM
      POSITION 0.00000000000000
      SNAPOFFS 0.00000000000000
      LENGTH 194.83196922085079
      LOOP 0
      ALLTAKES 0
      SEL 0
      FADEIN 1 0.000000 0.000000 1 0
      FADEOUT 1 0.000000 0.000000 1 0
      MUTE 0
      IGUID {656317AD-B690-4307-9096-C4F4536C131B}
      IID 18
      NAME "PART REAL_KEYS_E"
      VOLPAN 1.000000 0.000000 1.000000 -1.000000
      SOFFS 0.00000000000000 0.00000000000000
      PLAYRATE 1.00000000000000 1 0.00000000000000 -65536
      CHANMODE 0
      GUID {43BDFFBF-75D6-4727-BD3F-08B25C56980C}
      <SOURCE MIDI
        HASDATA 1 480 QN
        POOLEDEVTS {A4A1C7AE-EE12-41D1-9180-D339BCE61143}
        <X 0 0
          /wNQQVJUIFJFQUxfS0VZU19F
        >
        E 0 90 09 60
        E 480 80 09 00
        E 180001 b0 7b 00
        GUID {F9363449-15E8-4EF0-8BC0-ABEB4CDC1D98}
        IGNTEMPO 0 120.00000000 4 4
        SRCCOLOR 1208
        VELLANE 132 128 60
        COLORMAP "C:\Program Files\REAPER\Data\color_maps\rockband_guitarbass.png"
        TEXTSTRINGFILE "C:\Program Files\REAPER\Data\Text_Strings\Text Events List.txt"
        CFGEDITVIEW 1257.930012 0.103438 51 12 0 0 0
        CFGEDIT 1 1 0 0 1 1 1 1 1 1 1 0.25000000 0 0 683 728 1 0 0 2 0.12500000 0 0 0 0 0.500000 0 0 1.000000 64
        KEYSNAP 0 0 "102034050607" 0 "Major"
        EVTFILTER 0 -1 -1 -1 -1 0 1 0 0 -1.00000000 -1.00000000
      >
    >
  >
  <TRACK '{80604035-2BD9-43BB-A255-4E5F9E756779}'
    NAME "PART KEYS_ANIM_RH"
    PEAKCOL 16842624
    BEAT -1
    AUTOMODE 0
    VOLPAN 1.00000000000000 0.00000000000000 -1.00000000000000 -1.00000000000000 1.00000000000000
    MUTESOLO 1 0 0
    IPHASE 0
    ISBUS 0 0
    BUSCOMP 0 0
    SHOWINMIX 1 0.666700 0.500000 1 0.500000 -1 -1 -1
    FREEMODE 0
    SEL 0
    REC 0 0 0 0 0 0 0
    TRACKHEIGHT 0 0
    INQ 0 0 0 0.5000000000 100 0 0 100
    NCHAN 2
    FX 1
    TRACKID {80604035-2BD9-43BB-A255-4E5F9E756779}
    PERF 0
    MIDIOUT -1
    <MIDINOTENAMES
      0 48 "C2 (Lowest Note)"
      0 72 "C4 (Highest Note)"
      0 127 "Trill Marker"
      0 126 "Glissando Marker"
      0 125 "----"
      0 116 "Overdrive Marker"
      0 115 "Solo Marker"
      0 114 "----"
      0 71 "B3"
      0 70 "Bb3"
      0 69 "A3"
      0 68 "G#3"
      0 67 "G3"
      0 66 "F#3"
      0 65 "F3"
      0 64 "E3"
      0 63 "Eb3"
      0 62 "D3"
      0 61 "C#3"
      0 60 "C3"
      0 59 "B2"
      0 58 "Bb2"
      0 57 "A2"
      0 56 "G#2"
      0 55 "G2"
      0 54 "F#2"
      0 53 "F2"
      0 52 "E2"
      0 51 "Eb2"
      0 50 "D2"
      0 49 "C#2"
      0 47 "----"
      0 9 "A2-C4 Range"
      0 5 "F2-A3 Range"
      0 0 "C2-E3 Range"
      0 7 "G2-B3 Range"
      0 4 "E2-G3 Range"
      0 2 "D2-F3 Range"
    >
    MAINSEND 1 0
    <FXCHAIN
      SHOW 0
      LASTSEL 0
      DOCKED 0
    >
    <ITEM
      POSITION 0.00000000000000
      SNAPOFFS 0.00000000000000
      LENGTH 194.83196922085079
      LOOP 0
      ALLTAKES 0
      SEL 0
      FADEIN 1 0.000000 0.000000 1 0
      FADEOUT 1 0.000000 0.000000 1 0
      MUTE 0
      IGUID {6A43A4E9-6390-4FBA-9F07-B2C821A1720C}
      IID 19
      NAME "PART KEYS_ANIM_RH"
      VOLPAN 1.000000 0.000000 1.000000 -1.000000
      SOFFS 0.00000000000000 0.00000000000000
      PLAYRATE 1.00000000000000 1 0.00000000000000 -65536
      CHANMODE 0
      GUID {FA5AE238-E1D7-41F5-A663-4C49E4376041}
      <SOURCE MIDI
        HASDATA 1 480 QN
        POOLEDEVTS {01A31643-5272-4F53-9C5E-5F7AA978804A}
        <X 0 0
          /wNQQVJUIEtFWVNfQU5JTV9SSA==
        >
        E 180481 b0 7b 00
        GUID {268DE88D-9169-44F5-97A1-ABDA1E2CF031}
        IGNTEMPO 0 120.00000000 4 4
        SRCCOLOR 1209
        VELLANE 132 128 60
        COLORMAP "C:\Program Files\REAPER\Data\color_maps\rockband_guitarbass.png"
        TEXTSTRINGFILE "C:\Program Files\REAPER\Data\Text_Strings\Text Events List.txt"
        CFGEDITVIEW 2612.554938 0.179136 51 12 0 0 0
        CFGEDIT 1 1 0 0 1 1 1 1 1 1 1 0.25000000 0 0 683 728 1 0 0 2 0.00000000 0 0 0 0 0.500000 0 0 1.000000 64
        KEYSNAP 0 0 "102034050607" 0 "Major"
        EVTFILTER 0 -1 -1 -1 -1 0 1 0 0 -1.00000000 -1.00000000
      >
    >
  >
  <TRACK '{F014911F-41F0-491C-9A25-C3D2A462D8D7}'
    NAME "PART KEYS_ANIM_LH"
    PEAKCOL 16842624
    BEAT -1
    AUTOMODE 0
    VOLPAN 1.00000000000000 0.00000000000000 -1.00000000000000 -1.00000000000000 1.00000000000000
    MUTESOLO 1 0 0
    IPHASE 0
    ISBUS 2 -1
    BUSCOMP 0 0
    SHOWINMIX 1 0.666700 0.500000 1 0.500000 -1 -1 -1
    FREEMODE 0
    SEL 0
    REC 0 0 0 0 0 0 0
    TRACKHEIGHT 0 0
    INQ 0 0 0 0.5000000000 100 0 0 100
    NCHAN 2
    FX 1
    TRACKID {F014911F-41F0-491C-9A25-C3D2A462D8D7}
    PERF 0
    MIDIOUT -1
    <MIDINOTENAMES
      0 48 "C2 (Lowest Note)"
      0 72 "C4 (Highest Note)"
      0 127 "Trill Marker"
      0 126 "Glissando Marker"
      0 125 "----"
      0 116 "Overdrive Marker"
      0 115 "Solo Marker"
      0 114 "----"
      0 71 "B3"
      0 70 "Bb3"
      0 69 "A3"
      0 68 "G#3"
      0 67 "G3"
      0 66 "F#3"
      0 65 "F3"
      0 64 "E3"
      0 63 "Eb3"
      0 62 "D3"
      0 61 "C#3"
      0 60 "C3"
      0 59 "B2"
      0 58 "Bb2"
      0 57 "A2"
      0 56 "G#2"
      0 55 "G2"
      0 54 "F#2"
      0 53 "F2"
      0 52 "E2"
      0 51 "Eb2"
      0 50 "D2"
      0 49 "C#2"
      0 47 "----"
      0 9 "A2-C4 Range"
      0 5 "F2-A3 Range"
      0 0 "C2-E3 Range"
      0 7 "G2-B3 Range"
      0 4 "E2-G3 Range"
      0 2 "D2-F3 Range"
    >
    MAINSEND 1 0
    <FXCHAIN
      SHOW 0
      LASTSEL 0
      DOCKED 0
    >
    <ITEM
      POSITION 0.00000000000000
      SNAPOFFS 0.00000000000000
      LENGTH 194.83196922085079
      LOOP 0
      ALLTAKES 0
      SEL 0
      FADEIN 1 0.000000 0.000000 1 0
      FADEOUT 1 0.000000 0.000000 1 0
      MUTE 0
      IGUID {F0F97A68-91AD-4B41-8D32-822B6159FDBC}
      IID 20
      NAME "PART KEYS_ANIM_LH"
      VOLPAN 1.000000 0.000000 1.000000 -1.000000
      SOFFS 0.00000000000000 0.00000000000000
      PLAYRATE 1.00000000000000 1 0.00000000000000 -65536
      CHANMODE 0
      GUID {214023C3-6BA4-450F-A73F-59780553B94C}
      <SOURCE MIDI
        HASDATA 1 480 QN
        POOLEDEVTS {FCF89D65-F4A2-43D9-84C2-4625F5578023}
        <X 0 0
          /wNQQVJUIEtFWVNfQU5JTV9MSA==
        >
        E 180481 b0 7b 00
        GUID {9527D45A-14D5-4C89-A39E-3528B0F29941}
        IGNTEMPO 0 120.00000000 4 4
        SRCCOLOR 1210
        VELLANE 132 128 60
        COLORMAP "C:\Program Files\REAPER\Data\color_maps\rockband_guitarbass.png"
        TEXTSTRINGFILE "C:\Program Files\REAPER\Data\Text_Strings\Text Events List.txt"
        CFGEDITVIEW -4299.275963 82.395269 11 17 0 0 0
        CFGEDIT 1 1 0 1 1 1 1 1 1 1 1 0.12500000 -8 -8 1374 736 1 2 1 2 0.00000000 0 0 0 0 0.500000 1 0 1.000000 64
        KEYSNAP 0 0 "102034050607" 0 "Major"
        EVTFILTER 0 -1 -1 -1 -1 0 1 0 0 -1.00000000 -1.00000000
      >
    >
  >
  <TRACK '{4BCC1CF3-63A3-43C4-A155-D3593AD88A10}'
    NAME "EVENTS"
    PEAKCOL 29393024
    BEAT -1
    AUTOMODE 0
    VOLPAN 1.00000000000000 0.00000000000000 -1.00000000000000 -1.00000000000000 1.00000000000000
    MUTESOLO 0 0 0
    IPHASE 0
    ISBUS 0 0
    BUSCOMP 0 0
    SHOWINMIX 1 0.666700 0.500000 1 0.500000 -1 -1 -1
    FREEMODE 0
    SEL 0
    REC 0 0 0 0 0 0 0
    TRACKHEIGHT 0 0
    INQ 0 0 0 0.5000000000 100 0 0 100
    NCHAN 2
    FX 1
    TRACKID {4BCC1CF3-63A3-43C4-A155-D3593AD88A10}
    PERF 0
    MIDIOUT -1
    MAINSEND 1 0
    <FXCHAIN
      SHOW 0
      LASTSEL 0
      DOCKED 0
    >
    <ITEM
      POSITION 0.00000000000000
      SNAPOFFS 0.00000000000000
      LENGTH 196.33649149245196
      LOOP 0
      ALLTAKES 0
      SEL 0
      FADEIN 1 0.000000 0.000000 1 0
      FADEOUT 1 0.000000 0.000000 1 0
      MUTE 0
      IGUID {86A06D27-867C-4398-9CE6-8F0526B3B594}
      IID 21
      NAME "EVENTS"
      VOLPAN 1.000000 0.000000 1.000000 -1.000000
      SOFFS 0.00000000000000 0.00000000000000
      PLAYRATE 1.00000000000000 1 0.00000000000000 -65536
      CHANMODE 0
      GUID {584C8192-4FF3-4E29-8138-2E6BD568B61A}
      <SOURCE MIDI
        HASDATA 1 480 QN
        POOLEDEVTS {B112C799-AC23-4D19-8026-2D4106D47999}
        <X 0 0
          /wNFVkVOVFM=
        >
        <X 0 0
          /wFbY3Jvd2Rfbm9ybWFsXQ==
        >
        <X 0 0
          /wFbcHJjX2ludHJvXQ==
        >
        <X 3840 0
          /wFbbXVzaWNfc3RhcnRd
        >
        <X 14880 0
          /wFbcHJjX2JyaWRnZV0=
        >
        <X 16800 0
          /wFbcHJjX3ZlcnNlXzFhXQ==
        >
        <X 15360 0
          /wFbcHJjX3ZlcnNlXzFiXQ==
        >
        <X 15120 0
          /wFbcHJjX2Nob3J1c18xXQ==
        >
        <X 15600 0
          /wFbcHJjX3ZlcnNlXzJhXQ==
        >
        <X 15360 0
          /wFbcHJjX3ZlcnNlXzJiXQ==
        >
        <X 15120 0
          /wFbcHJjX2Nob3J1c18yXQ==
        >
        <X 15612 0
          /wFbcHJjX2FsdF92ZXJzZV0=
        >
        <X 15228 0
          /wFbcHJjX2Nob3J1c18zXQ==
        >
        <X 14040 0
          /wFbcHJjX291dHJvXQ==
        >
        <X 18240 0
          /wFbbXVzaWNfZW5kXQ==
        >
        <X 3360 0
          /wFbZW5kXQ==
        >
        E 3219 b0 7b 00
        GUID {40AD7956-A22A-434A-8513-4D3792B9DF69}
        IGNTEMPO 0 120.00000000 4 4
        SRCCOLOR 1211
        VELLANE 132 100 100
        COLORMAP "M:\RGS Documents\ColorMaps\rockband_vox-other.png"
        TEXTSTRINGFILE "C:\Program Files\REAPER (x64)\REAPER\Data\Text_Strings\Text Events List - Events.txt"
        CFGEDITVIEW -9084.042589 11.231123 2 48 0 0 0
        CFGEDIT 1 1 0 0 0 1 1 1 1 1 1 0.50000000 44 63 1223 847 1 2 1 2 0.00000000 0 0 0 0 0.500000 1 0 1.000000 64
        KEYSNAP 0 0 "102034050607" 0 "Major"
        EVTFILTER 0 -1 -1 -1 -1 0 1 0 0 -1.00000000 -1.00000000
      >
    >
  >
  <TRACK '{1529008F-97D2-43EB-8634-7C5A7418AD90}'
    NAME "VENUE"
    PEAKCOL 16842496
    BEAT -1
    AUTOMODE 0
    VOLPAN 1.00000000000000 0.00000000000000 -1.00000000000000 -1.00000000000000 1.00000000000000
    MUTESOLO 0 0 0
    IPHASE 0
    ISBUS 0 0
    BUSCOMP 0 0
    SHOWINMIX 1 0.666700 0.500000 1 0.500000 -1 -1 -1
    FREEMODE 0
    SEL 1
    REC 0 0 0 0 0 0 0
    TRACKHEIGHT 0 0
    INQ 0 0 0 0.5000000000 100 0 0 100
    NCHAN 2
    FX 1
    TRACKID {1529008F-97D2-43EB-8634-7C5A7418AD90}
    PERF 0
    MIDIOUT -1
    <MIDINOTENAMES
      0 87 "Guitarist Sing Along"
      0 86 "Drummer Sing Along"
      0 85 "Bassist Sing Along"
      0 40 "Spotlight on Vocals"
      0 39 "Spotlight on Guitar"
      0 38 "Spotlight on Drums"
      0 37 "Spotlight on Bass"
      0 41 "Spotlight on Keys"
    >
    MAINSEND 1 0
    <FXCHAIN
      SHOW 0
      LASTSEL 0
      DOCKED 0
    >
    <ITEM
      POSITION 0.00000000000000
      SNAPOFFS 0.00000000000000
      LENGTH 196.33649149245196
      LOOP 0
      ALLTAKES 0
      SEL 1
      FADEIN 1 0.000000 0.000000 1 0
      FADEOUT 1 0.000000 0.000000 1 0
      MUTE 0
      IGUID {71027329-E0AB-447D-A192-4839733334E7}
      IID 22
      NAME "VENUE"
      VOLPAN 1.000000 0.000000 1.000000 -1.000000
      SOFFS 0.00000000000000 0.00000000000000
      PLAYRATE 1.00000000000000 1 0.00000000000000 -65536
      CHANMODE 0
      GUID {44F0FFD1-5109-4A47-8BED-262AA04D3B23}
      <SOURCE MIDI
        HASDATA 1 480 QN
        POOLEDEVTS {990DD945-75B4-4F3B-A4AD-E5918A9F54C1}
        <X 0 0
          /wNWRU5VRQ==
        >
        <X 0 0
          /wFbbGlnaHRpbmcgKGludHJvKV0=
        >
        <X 0 0
          /wFbUHJvRmlsbV9hLnBwXQ==
        >
        <X 0 0
          /wFbY29vcF9hbGxfZmFyXQ==
        >
        <X 0 0
          /wFbY29vcF9mcm9udF9uZWFyXQ==
        >
        <X 945 0
          /wFbY29vcF9hbGxfZmFyXQ==
        >
        <X 2895 0
          /wFbY29vcF9nX2JlaGluZF0=
        >
        <X 1905 0
          /wFbY29vcF9mcm9udF9uZWFyXQ==
        >
        <X 1935 0
          /wFbY29vcF9mcm9udF9uZWFyXQ==
        >
        <X 1890 0
          /wFbY29vcF9mcm9udF9uZWFyXQ==
        >
        <X 1920 0
          /wFbY29vcF9nX25lYXJd
        >
        <X 3840 0
          /wFbY29vcF9nX25lYXJd
        >
        <X 1950 0
          /wFbY29vcF9nX25lYXJd
        >
        <X 945 0
          /wFbUHJvRmlsbV9hLnBwXQ==
        >
        <X 0 0
          /wFbbGlnaHRpbmcgKGludHJvKV0=
        >
        <X 480 0
          /wFbUHJvRmlsbV9hLnBwXQ==
        >
        <X 0 0
          /wFbbGlnaHRpbmcgKG1hbnVhbF9jb29sKV0=
        >
        <X 15 0
          /wFbbmV4dF0=
        >
        <X 960 0
          /wFbbmV4dF0=
        >
        <X 465 0
          /wFbY29vcF9kX25lYXJd
        >
        <X 495 0
          /wFbbmV4dF0=
        >
        <X 960 0
          /wFbbmV4dF0=
        >
        <X 960 0
          /wFbbmV4dF0=
        >
        <X 960 0
          /wFbbmV4dF0=
        >
        <X 480 0
          /wFbY29vcF9iX25lYXJd
        >
        <X 480 0
          /wFbbmV4dF0=
        >
        <X 960 0
          /wFbbmV4dF0=
        >
        <X 945 0
          /wFbY29vcF9iZ19uZWFyXQ==
        >
        <X 15 0
          /wFbbmV4dF0=
        >
        <X 960 0
          /wFbbmV4dF0=
        >
        <X 465 0
          /wFbY29vcF9iZ19iZWhpbmRd
        >
        <X 495 0
          /wFbbmV4dF0=
        >
        <X 960 0
          /wFbbmV4dF0=
        >
        <X 480 0
          /wFbY29vcF9nX25lYXJd
        >
        <X 480 0
          /wFbbmV4dF0=
        >
        <X 960 0
          /wFbbmV4dF0=
        >
        <X 465 0
          /wFbY29vcF9iZ19uZWFyXQ==
        >
        <X 495 0
          /wFbbmV4dF0=
        >
        <X 960 0
          /wFbbmV4dF0=
        >
        <X 0 0
          /wFbY29vcF9iX25lYXJd
        >
        <X 960 0
          /wFbbmV4dF0=
        >
        <X 480 0
          /wFbY29vcF9idl9uZWFyXQ==
        >
        <X 465 0
          /wFbUHJvRmlsbV9hLnBwXQ==
        >
        <X 0 0
          /wFbbGlnaHRpbmcgKG1hbnVhbF9jb29sKV0=
        >
        <X 15 0
          /wFbbmV4dF0=
        >
        <X 465 0
          /wFbUHJvRmlsbV9hLnBwXQ==
        >
        <X 0 0
          /wFbbGlnaHRpbmcgKHZlcnNlKV0=
        >
        <X 15 0
          /wFbbmV4dF0=
        >
        <X 0 0
          /wFbY29vcF9idl9iZWhpbmRd
        >
        <X 960 0
          /wFbbmV4dF0=
        >
        <X 0 0
          /wFbY29vcF92X25lYXJd
        >
        <X 960 0
          /wFbbmV4dF0=
        >
        <X 930 0
          /wFbY29vcF9hbGxfbmVhcl0=
        >
        <X 30 0
          /wFbbmV4dF0=
        >
        <X 960 0
          /wFbbmV4dF0=
        >
        <X 0 0
          /wFbY29vcF9kX2JlaGluZF0=
        >
        <X 960 0
          /wFbbmV4dF0=
        >
        <X 960 0
          /wFbbmV4dF0=
        >
        <X 960 0
          /wFbbmV4dF0=
        >
        <X 0 0
          /wFbY29vcF9mcm9udF9uZWFyXQ==
        >
        <X 945 0
          /wFbY29vcF9ndl9uZWFyXQ==
        >
        <X 15 0
          /wFbbmV4dF0=
        >
        <X 960 0
          /wFbbmV4dF0=
        >
        <X 960 0
          /wFbbmV4dF0=
        >
        <X 945 0
          /wFbY29vcF9hbGxfZmFyXQ==
        >
        <X 15 0
          /wFbbmV4dF0=
        >
        <X 960 0
          /wFbbmV4dF0=
        >
        <X 960 0
          /wFbbmV4dF0=
        >
        <X 0 0
          /wFbY29vcF9iZ19uZWFyXQ==
        >
        <X 960 0
          /wFbbmV4dF0=
        >
        <X 960 0
          /wFbbmV4dF0=
        >
        <X 960 0
          /wFbbmV4dF0=
        >
        <X 0 0
          /wFbY29vcF92X2Nsb3NldXBd
        >
        <X 960 0
          /wFbbmV4dF0=
        >
        <X 0 0
          /wFbY29vcF9hbGxfbmVhcl0=
        >
        <X 960 0
          /wFbbmV4dF0=
        >
        <X 960 0
          /wFbbmV4dF0=
        >
        <X 960 0
          /wFbbmV4dF0=
        >
        <X 930 0
          /wFbY29vcF9idl9uZWFyXQ==
        >
        <X 30 0
          /wFbbmV4dF0=
        >
        <X 960 0
          /wFbbmV4dF0=
        >
        <X 945 0
          /wFbY29vcF92X2JlaGluZF0=
        >
        <X 15 0
          /wFbbmV4dF0=
        >
        <X 945 0
          /wFbY29vcF9ndl9uZWFyXQ==
        >
        <X 15 0
          /wFbbmV4dF0=
        >
        <X 960 0
          /wFbbmV4dF0=
        >
        <X 450 0
          /wFbY29vcF9iX25lYXJd
        >
        <X 510 0
          /wFbbmV4dF0=
        >
        <X 960 0
          /wFbbmV4dF0=
        >
        <X 960 0
          /wFbbmV4dF0=
        >
        <X 960 0
          /wFbbmV4dF0=
        >
        <X 465 0
          /wFbY29vcF92X25lYXJd
        >
        <X 495 0
          /wFbbmV4dF0=
        >
        <X 465 0
          /wFbY29vcF9iX25lYXJd
        >
        <X 495 0
          /wFbbmV4dF0=
        >
        <X 225 0
          /wFbUHJvRmlsbV9hLnBwXQ==
        >
        <X 480 0
          /wFbUHJvRmlsbV9hLnBwXQ==
        >
        <X 0 0
          /wFbbGlnaHRpbmcgKG1hbnVhbF93YXJtKV0=
        >
        <X 15 0
          /wFbbmV4dF0=
        >
        <X 240 0
          /wFbY29vcF92X25lYXJd
        >
        <X 240 0
          /wFbbmV4dF0=
        >
        <X 480 0
          /wFbbmV4dF0=
        >
        <X 480 0
          /wFbbmV4dF0=
        >
        <X 480 0
          /wFbbmV4dF0=
        >
        <X 480 0
          /wFbbmV4dF0=
        >
        <X 210 0
          /wFbY29vcF9hbGxfZmFyXQ==
        >
        <X 270 0
          /wFbbmV4dF0=
        >
        <X 480 0
          /wFbbmV4dF0=
        >
        <X 480 0
          /wFbbmV4dF0=
        >
        <X 240 0
          /wFbY29vcF92X25lYXJd
        >
        <X 240 0
          /wFbbmV4dF0=
        >
        <X 480 0
          /wFbbmV4dF0=
        >
        <X 480 0
          /wFbbmV4dF0=
        >
        <X 210 0
          /wFbY29vcF92X25lYXJd
        >
        <X 270 0
          /wFbbmV4dF0=
        >
        <X 480 0
          /wFbbmV4dF0=
        >
        <X 225 0
          /wFbY29vcF92X2JlaGluZF0=
        >
        <X 255 0
          /wFbbmV4dF0=
        >
        <X 480 0
          /wFbbmV4dF0=
        >
        <X 480 0
          /wFbbmV4dF0=
        >
        <X 210 0
          /wFbY29vcF9mcm9udF9uZWFyXQ==
        >
        <X 270 0
          /wFbbmV4dF0=
        >
        <X 480 0
          /wFbbmV4dF0=
        >
        <X 480 0
          /wFbbmV4dF0=
        >
        <X 210 0
          /wFbY29vcF9ndl9uZWFyXQ==
        >
        <X 270 0
          /wFbbmV4dF0=
        >
        <X 480 0
          /wFbbmV4dF0=
        >
        <X 480 0
          /wFbbmV4dF0=
        >
        <X 480 0
          /wFbbmV4dF0=
        >
        <X 225 0
          /wFbY29vcF9kX2JlaGluZF0=
        >
        <X 255 0
          /wFbbmV4dF0=
        >
        <X 480 0
          /wFbbmV4dF0=
        >
        <X 480 0
          /wFbbmV4dF0=
        >
        <X 210 0
          /wFbY29vcF9kX25lYXJd
        >
        <X 270 0
          /wFbbmV4dF0=
        >
        <X 480 0
          /wFbbmV4dF0=
        >
        <X 480 0
          /wFbbmV4dF0=
        >
        <X 480 0
          /wFbbmV4dF0=
        >
        <X 225 0
          /wFbY29vcF9hbGxfZmFyXQ==
        >
        <X 255 0
          /wFbbmV4dF0=
        >
        <X 225 0
          /wFbUHJvRmlsbV9hLnBwXQ==
        >
        <X 0 0
          /wFbbGlnaHRpbmcgKG1hbnVhbF93YXJtKV0=
        >
        <X 255 0
          /wFbbmV4dF0=
        >
        <X 225 0
          /wFbUHJvRmlsbV9hLnBwXQ==
        >
        <X 0 0
          /wFbbGlnaHRpbmcgKHZlcnNlKV0=
        >
        <X 15 0
          /wFbbmV4dF0=
        >
        <X 0 0
          /wFbY29vcF9idl9uZWFyXQ==
        >
        <X 960 0
          /wFbbmV4dF0=
        >
        <X 960 0
          /wFbbmV4dF0=
        >
        <X 960 0
          /wFbbmV4dF0=
        >
        <X 0 0
          /wFbY29vcF9hbGxfZmFyXQ==
        >
        <X 960 0
          /wFbbmV4dF0=
        >
        <X 0 0
          /wFbY29vcF9hbGxfbmVhcl0=
        >
        <X 960 0
          /wFbbmV4dF0=
        >
        <X 960 0
          /wFbbmV4dF0=
        >
        <X 960 0
          /wFbbmV4dF0=
        >
        <X 960 0
          /wFbbmV4dF0=
        >
        <X 0 0
          /wFbY29vcF9hbGxfZmFyXQ==
        >
        <X 960 0
          /wFbbmV4dF0=
        >
        <X 465 0
          /wFbY29vcF9ndl9uZWFyXQ==
        >
        <X 495 0
          /wFbbmV4dF0=
        >
        <X 960 0
          /wFbbmV4dF0=
        >
        <X 960 0
          /wFbbmV4dF0=
        >
        <X 960 0
          /wFbbmV4dF0=
        >
        <X 450 0
          /wFbY29vcF92X25lYXJd
        >
        <X 510 0
          /wFbbmV4dF0=
        >
        <X 960 0
          /wFbbmV4dF0=
        >
        <X 0 0
          /wFbY29vcF9kX25lYXJd
        >
        <X 945 0
          /wFbY29vcF92X2Nsb3NldXBd
        >
        <X 15 0
          /wFbbmV4dF0=
        >
        <X 960 0
          /wFbbmV4dF0=
        >
        <X 945 0
          /wFbY29vcF92X2JlaGluZF0=
        >
        <X 15 0
          /wFbbmV4dF0=
        >
        <X 960 0
          /wFbbmV4dF0=
        >
        <X 960 0
          /wFbbmV4dF0=
        >
        <X 960 0
          /wFbbmV4dF0=
        >
        <X 960 0
          /wFbbmV4dF0=
        >
        <X 0 0
          /wFbY29vcF9mcm9udF9uZWFyXQ==
        >
        <X 960 0
          /wFbbmV4dF0=
        >
        <X 960 0
          /wFbbmV4dF0=
        >
        <X 0 0
          /wFbY29vcF92X2Nsb3NldXBd
        >
        <X 960 0
          /wFbbmV4dF0=
        >
        <X 945 0
          /wFbY29vcF9mcm9udF9uZWFyXQ==
        >
        <X 15 0
          /wFbbmV4dF0=
        >
        <X 960 0
          /wFbbmV4dF0=
        >
        <X 960 0
          /wFbbmV4dF0=
        >
        <X 960 0
          /wFbbmV4dF0=
        >
        <X 930 0
          /wFbY29vcF9nX25lYXJd
        >
        <X 30 0
          /wFbbmV4dF0=
        >
        <X 960 0
          /wFbbmV4dF0=
        >
        <X 0 0
          /wFbY29vcF92X25lYXJd
        >
        <X 225 0
          /wFbUHJvRmlsbV9hLnBwXQ==
        >
        <X 480 0
          /wFbUHJvRmlsbV9hLnBwXQ==
        >
        <X 0 0
          /wFbbGlnaHRpbmcgKG1hbnVhbF93YXJtKV0=
        >
        <X 15 0
          /wFbbmV4dF0=
        >
        <X 225 0
          /wFbY29vcF92X25lYXJd
        >
        <X 255 0
          /wFbbmV4dF0=
        >
        <X 480 0
          /wFbbmV4dF0=
        >
        <X 480 0
          /wFbbmV4dF0=
        >
        <X 480 0
          /wFbbmV4dF0=
        >
        <X 480 0
          /wFbbmV4dF0=
        >
        <X 480 0
          /wFbbmV4dF0=
        >
        <X 210 0
          /wFbY29vcF9idl9uZWFyXQ==
        >
        <X 270 0
          /wFbbmV4dF0=
        >
        <X 480 0
          /wFbbmV4dF0=
        >
        <X 210 0
          /wFbY29vcF92X25lYXJd
        >
        <X 270 0
          /wFbbmV4dF0=
        >
        <X 480 0
          /wFbbmV4dF0=
        >
        <X 240 0
          /wFbY29vcF92X25lYXJd
        >
        <X 240 0
          /wFbbmV4dF0=
        >
        <X 480 0
          /wFbbmV4dF0=
        >
        <X 480 0
          /wFbbmV4dF0=
        >
        <X 480 0
          /wFbbmV4dF0=
        >
        <X 210 0
          /wFbY29vcF9idl9uZWFyXQ==
        >
        <X 270 0
          /wFbbmV4dF0=
        >
        <X 480 0
          /wFbbmV4dF0=
        >
        <X 210 0
          /wFbY29vcF92X25lYXJd
        >
        <X 270 0
          /wFbbmV4dF0=
        >
        <X 480 0
          /wFbbmV4dF0=
        >
        <X 210 0
          /wFbY29vcF9mcm9udF9uZWFyXQ==
        >
        <X 270 0
          /wFbbmV4dF0=
        >
        <X 480 0
          /wFbbmV4dF0=
        >
        <X 480 0
          /wFbbmV4dF0=
        >
        <X 480 0
          /wFbbmV4dF0=
        >
        <X 480 0
          /wFbbmV4dF0=
        >
        <X 480 0
          /wFbbmV4dF0=
        >
        <X 480 0
          /wFbbmV4dF0=
        >
        <X 240 0
          /wFbY29vcF9hbGxfZmFyXQ==
        >
        <X 240 0
          /wFbbmV4dF0=
        >
        <X 480 0
          /wFbbmV4dF0=
        >
        <X 480 0
          /wFbbmV4dF0=
        >
        <X 480 0
          /wFbbmV4dF0=
        >
        <X 480 0
          /wFbbmV4dF0=
        >
        <X 480 0
          /wFbbmV4dF0=
        >
        <X 237 0
          /wFbUHJvRmlsbV9hLnBwXQ==
        >
        <X 0 0
          /wFbbGlnaHRpbmcgKG1hbnVhbF93YXJtKV0=
        >
        <X 243 0
          /wFbbmV4dF0=
        >
        <X 237 0
          /wFbUHJvRmlsbV9hLnBwXQ==
        >
        <X 0 0
          /wFbbGlnaHRpbmcgKG1hbnVhbF9jb29sKV0=
        >
        <X 3 0
          /wFbY29vcF92X2Nsb3NldXBd
        >
        <X 12 0
          /wFbbmV4dF0=
        >
        <X 960 0
          /wFbbmV4dF0=
        >
        <X 960 0
          /wFbbmV4dF0=
        >
        <X 960 0
          /wFbbmV4dF0=
        >
        <X 948 0
          /wFbY29vcF92X25lYXJd
        >
        <X 12 0
          /wFbbmV4dF0=
        >
        <X 948 0
          /wFbY29vcF9ndl9iZWhpbmRd
        >
        <X 12 0
          /wFbbmV4dF0=
        >
        <X 960 0
          /wFbbmV4dF0=
        >
        <X 948 0
          /wFbY29vcF9ndl9uZWFyXQ==
        >
        <X 12 0
          /wFbbmV4dF0=
        >
        <X 960 0
          /wFbbmV4dF0=
        >
        <X 468 0
          /wFbY29vcF92X2Nsb3NldXBd
        >
        <X 492 0
          /wFbbmV4dF0=
        >
        <X 960 0
          /wFbbmV4dF0=
        >
        <X 960 0
          /wFbbmV4dF0=
        >
        <X 948 0
          /wFbY29vcF9ndl9iZWhpbmRd
        >
        <X 12 0
          /wFbbmV4dF0=
        >
        <X 960 0
          /wFbbmV4dF0=
        >
        <X 453 0
          /wFbY29vcF9hbGxfZmFyXQ==
        >
        <X 507 0
          /wFbbmV4dF0=
        >
        <X 948 0
          /wFbY29vcF9hbGxfZmFyXQ==
        >
        <X 12 0
          /wFbbmV4dF0=
        >
        <X 333 0
          /wFbUHJvRmlsbV9hLnBwXQ==
        >
        <X 480 0
          /wFbUHJvRmlsbV9hLnBwXQ==
        >
        <X 0 0
          /wFbbGlnaHRpbmcgKG1hbnVhbF93YXJtKV0=
        >
        <X 15 0
          /wFbbmV4dF0=
        >
        <X 105 0
          /wFbY29vcF9idl9uZWFyXQ==
        >
        <X 375 0
          /wFbbmV4dF0=
        >
        <X 480 0
          /wFbbmV4dF0=
        >
        <X 480 0
          /wFbbmV4dF0=
        >
        <X 480 0
          /wFbbmV4dF0=
        >
        <X 480 0
          /wFbbmV4dF0=
        >
        <X 480 0
          /wFbbmV4dF0=
        >
        <X 480 0
          /wFbbmV4dF0=
        >
        <X 480 0
          /wFbbmV4dF0=
        >
        <X 105 0
          /wFbY29vcF9ndl9iZWhpbmRd
        >
        <X 375 0
          /wFbbmV4dF0=
        >
        <X 480 0
          /wFbbmV4dF0=
        >
        <X 120 0
          /wFbY29vcF9ndl9uZWFyXQ==
        >
        <X 360 0
          /wFbbmV4dF0=
        >
        <X 480 0
          /wFbbmV4dF0=
        >
        <X 480 0
          /wFbbmV4dF0=
        >
        <X 480 0
          /wFbbmV4dF0=
        >
        <X 105 0
          /wFbY29vcF92X25lYXJd
        >
        <X 375 0
          /wFbbmV4dF0=
        >
        <X 480 0
          /wFbbmV4dF0=
        >
        <X 120 0
          /wFbY29vcF92X2Nsb3NldXBd
        >
        <X 360 0
          /wFbbmV4dF0=
        >
        <X 480 0
          /wFbbmV4dF0=
        >
        <X 480 0
          /wFbbmV4dF0=
        >
        <X 480 0
          /wFbbmV4dF0=
        >
        <X 480 0
          /wFbbmV4dF0=
        >
        <X 480 0
          /wFbbmV4dF0=
        >
        <X 105 0
          /wFbY29vcF9idl9uZWFyXQ==
        >
        <X 375 0
          /wFbbmV4dF0=
        >
        <X 480 0
          /wFbbmV4dF0=
        >
        <X 480 0
          /wFbbmV4dF0=
        >
        <X 480 0
          /wFbbmV4dF0=
        >
        <X 480 0
          /wFbbmV4dF0=
        >
        <X 480 0
          /wFbbmV4dF0=
        >
        <X 90 0
          /wFbY29vcF9nX25lYXJd
        >
        <X 15 0
          /wFbUHJvRmlsbV9hLnBwXQ==
        >
        <X 0 0
          /wFbbGlnaHRpbmcgKG1hbnVhbF93YXJtKV0=
        >
        <X 0 0
          /wFbY29vcF92X25lYXJd
        >
        <X 375 0
          /wFbbmV4dF0=
        >
        <X 105 0
          /wFbUHJvRmlsbV9hLnBwXQ==
        >
        <X 0 0
          /wFbbGlnaHRpbmcgKGRpc2Nob3JkKV0=
        >
        <X 15 0
          /wFbbmV4dF0=
        >
        <X 450 0
          /wFbY29vcF9idl9uZWFyXQ==
        >
        <X 30 0
          /wFbbmV4dF0=
        >
        <X 480 0
          /wFbbmV4dF0=
        >
        <X 480 0
          /wFbbmV4dF0=
        >
        <X 480 0
          /wFbbmV4dF0=
        >
        <X 480 0
          /wFbbmV4dF0=
        >
        <X 465 0
          /wFbY29vcF9hbGxfZmFyXQ==
        >
        <X 15 0
          /wFbbmV4dF0=
        >
        <X 480 0
          /wFbbmV4dF0=
        >
        <X 480 0
          /wFbbmV4dF0=
        >
        <X 480 0
          /wFbbmV4dF0=
        >
        <X 480 0
          /wFbbmV4dF0=
        >
        <X 480 0
          /wFbbmV4dF0=
        >
        <X 480 0
          /wFbbmV4dF0=
        >
        <X 465 0
          /wFbY29vcF9idl9uZWFyXQ==
        >
        <X 15 0
          /wFbbmV4dF0=
        >
        <X 480 0
          /wFbbmV4dF0=
        >
        <X 480 0
          /wFbbmV4dF0=
        >
        <X 465 0
          /wFbY29vcF92X25lYXJd
        >
        <X 15 0
          /wFbbmV4dF0=
        >
        <X 480 0
          /wFbbmV4dF0=
        >
        <X 480 0
          /wFbbmV4dF0=
        >
        <X 480 0
          /wFbbmV4dF0=
        >
        <X 480 0
          /wFbbmV4dF0=
        >
        <X 450 0
          /wFbY29vcF9hbGxfZmFyXQ==
        >
        <X 30 0
          /wFbbmV4dF0=
        >
        <X 480 0
          /wFbbmV4dF0=
        >
        <X 480 0
          /wFbbmV4dF0=
        >
        <X 480 0
          /wFbbmV4dF0=
        >
        <X 480 0
          /wFbbmV4dF0=
        >
        <X 480 0
          /wFbbmV4dF0=
        >
        <X 480 0
          /wFbbmV4dF0=
        >
        <X 480 0
          /wFbbmV4dF0=
        >
        <X 0 0
          /wFbY29vcF92X25lYXJd
        >
        <X 480 0
          /wFbbmV4dF0=
        >
        <X 480 0
          /wFbbmV4dF0=
        >
        <X 0 0
          /wFbY29vcF9nX25lYXJd
        >
        <X 480 0
          /wFbbmV4dF0=
        >
        <X 480 0
          /wFbbmV4dF0=
        >
        <X 480 0
          /wFbbmV4dF0=
        >
        <X 480 0
          /wFbbmV4dF0=
        >
        <X 480 0
          /wFbbmV4dF0=
        >
        <X 480 0
          /wFbbmV4dF0=
        >
        <X 480 0
          /wFbbmV4dF0=
        >
        <X 465 0
          /wFbY29vcF9iX25lYXJd
        >
        <X 15 0
          /wFbbGlnaHRpbmcgKHNpbGhvdWV0dGVzKV0=
        >
        <X 0 0
          /wFbUHJvRmlsbV9hLnBwXQ==
        >
        <X 1920 0
          /wFbY29vcF9nX25lYXJd
        >
        <X 1439 0
          /wFbUHJvRmlsbV9hLnBwXQ==
        >
        E 3220 b0 7b 00
        GUID {30097062-47C5-4B33-B665-170EF09D70D9}
        IGNTEMPO 0 120.00000000 4 4
        SRCCOLOR 1212
        VELLANE 132 230 230
        COLORMAP "M:\RGS Documents\ColorMaps\rockband_vox-other.png"
        TEXTSTRINGFILE "Text Events List.txt"
        CFGEDITVIEW -1640.542924 22.251170 90 12 0 0 0
        CFGEDIT 1 1 0 0 1 1 1 1 1 1 1 0.25000000 133 19 1300 803 1 0 1 2 0.00000000 0 0 0 0 0.500000 1 0 1.000000 64
        KEYSNAP 0 0 "102034050607" 0 "Major"
        EVTFILTER 0 -1 -1 -1 -1 0 1 0 0 -1.00000000 -1.00000000
      >
    >
  >
  <TRACK '{7BC63EFC-0ABC-4D0D-8204-E9893AE9FFFA}'
    NAME "BEAT"
    PEAKCOL 23514346
    BEAT -1
    AUTOMODE 0
    VOLPAN 1.00000000000000 0.00000000000000 -1.00000000000000 -1.00000000000000 1.00000000000000
    MUTESOLO 0 0 0
    IPHASE 0
    ISBUS 0 0
    BUSCOMP 1 0
    SHOWINMIX 1 0.666700 0.500000 1 0.500000 -1 -1 -1
    FREEMODE 0
    SEL 0
    REC 0 0 0 0 0 0 0
    TRACKHEIGHT 0 0
    INQ 0 0 0 0.5000000000 100 0 0 100
    NCHAN 2
    FX 1
    TRACKID {7BC63EFC-0ABC-4D0D-8204-E9893AE9FFFA}
    PERF 0
    MIDIOUT -1
    <MIDINOTENAMES
      0 12 "Downbeat"
      0 13 "Up Beats"
    >
    MAINSEND 1 0
    <FXCHAIN
      SHOW 0
      LASTSEL 0
      DOCKED 0
    >
    <ITEM
      POSITION 0.00000000000000
      SNAPOFFS 0.00000000000000
      LENGTH 196.33649149245196
      LOOP 0
      ALLTAKES 0
      SEL 0
      FADEIN 1 0.000000 0.000000 1 0
      FADEOUT 1 0.000000 0.000000 1 0
      MUTE 0
      IGUID {9960CDFD-BF2E-4E67-97CD-4F13D0A3F2ED}
      IID 23
      NAME "BEAT"
      VOLPAN 1.000000 0.000000 1.000000 -1.000000
      SOFFS 0.00000000000000 0.00000000000000
      PLAYRATE 1.00000000000000 1 0.00000000000000 -65536
      CHANMODE 0
      GUID {CEBFDCF1-B2BD-47E1-A085-C26E1C9E9ED2}
      <SOURCE MIDI
        HASDATA 1 480 QN
        POOLEDEVTS {BE662C21-FEFA-4460-8DFE-379FC3E5A98E}
        <X 0 0
          /wNCRUFU
        >
        e 0 96 0c 64
        e 120 86 0c 00
        e 360 96 0d 64
        e 120 86 0d 00
        e 360 96 0d 64
        e 120 86 0d 00
        e 360 96 0d 64
        e 120 86 0d 00
        e 360 96 0c 64
        e 120 86 0c 00
        e 360 96 0d 64
        e 120 86 0d 00
        e 360 96 0d 64
        e 120 86 0d 00
        e 360 96 0d 64
        e 120 86 0d 00
        e 360 96 0c 64
        e 120 86 0c 00
        e 360 96 0d 64
        e 120 86 0d 00
        e 360 96 0d 64
        e 120 86 0d 00
        e 360 96 0d 64
        e 120 86 0d 00
        e 360 96 0c 64
        e 120 86 0c 00
        e 360 96 0d 64
        e 120 86 0d 00
        e 360 96 0d 64
        e 120 86 0d 00
        e 360 96 0d 64
        e 120 86 0d 00
        e 360 96 0c 64
        e 120 86 0c 00
        e 360 96 0d 64
        e 120 86 0d 00
        e 360 96 0d 64
        e 120 86 0d 00
        e 360 96 0d 64
        e 120 86 0d 00
        e 360 96 0c 64
        e 120 86 0c 00
        e 360 96 0d 64
        e 120 86 0d 00
        e 360 96 0d 64
        e 120 86 0d 00
        e 360 96 0d 64
        e 120 86 0d 00
        e 360 96 0c 64
        e 120 86 0c 00
        e 360 96 0d 64
        e 120 86 0d 00
        e 360 96 0d 64
        e 120 86 0d 00
        e 360 96 0d 64
        e 120 86 0d 00
        e 360 96 0c 64
        e 120 86 0c 00
        e 360 96 0d 64
        e 120 86 0d 00
        e 360 96 0d 64
        e 120 86 0d 00
        e 360 96 0d 64
        e 120 86 0d 00
        e 360 96 0c 64
        e 120 86 0c 00
        e 360 96 0d 64
        e 120 86 0d 00
        e 360 96 0d 64
        e 120 86 0d 00
        e 360 96 0d 64
        e 120 86 0d 00
        e 360 96 0c 64
        e 120 86 0c 00
        e 360 96 0d 64
        e 120 86 0d 00
        e 360 96 0d 64
        e 120 86 0d 00
        e 360 96 0d 64
        e 120 86 0d 00
        e 360 96 0c 64
        e 120 86 0c 00
        e 360 96 0d 64
        e 120 86 0d 00
        e 360 96 0d 64
        e 120 86 0d 00
        e 360 96 0d 64
        e 120 86 0d 00
        e 360 96 0c 64
        e 120 86 0c 00
        e 360 96 0d 64
        e 120 86 0d 00
        e 360 96 0d 64
        e 120 86 0d 00
        e 360 96 0d 64
        e 120 86 0d 00
        e 360 96 0c 64
        e 120 86 0c 00
        e 360 96 0d 64
        e 120 86 0d 00
        e 360 96 0d 64
        e 120 86 0d 00
        e 360 96 0d 64
        e 120 86 0d 00
        e 360 96 0c 64
        e 120 86 0c 00
        e 360 96 0d 64
        e 120 86 0d 00
        e 360 96 0d 64
        e 120 86 0d 00
        e 360 96 0d 64
        e 120 86 0d 00
        e 360 96 0c 64
        e 120 86 0c 00
        e 360 96 0d 64
        e 120 86 0d 00
        e 360 96 0d 64
        e 120 86 0d 00
        e 360 96 0d 64
        e 120 86 0d 00
        e 360 96 0c 64
        e 120 86 0c 00
        e 360 96 0d 64
        e 120 86 0d 00
        e 360 96 0d 64
        e 120 86 0d 00
        e 360 96 0d 64
        e 120 86 0d 00
        e 360 96 0c 64
        e 120 86 0c 00
        e 360 96 0d 64
        e 120 86 0d 00
        e 360 96 0d 64
        e 120 86 0d 00
        e 360 96 0d 64
        e 120 86 0d 00
        e 360 96 0c 64
        e 120 86 0c 00
        e 360 96 0d 64
        e 120 86 0d 00
        e 360 96 0d 64
        e 120 86 0d 00
        e 360 96 0d 64
        e 120 86 0d 00
        e 360 96 0c 64
        e 120 86 0c 00
        e 360 96 0d 64
        e 120 86 0d 00
        e 360 96 0d 64
        e 120 86 0d 00
        e 360 96 0d 64
        e 120 86 0d 00
        e 360 96 0c 64
        e 120 86 0c 00
        e 360 96 0d 64
        e 120 86 0d 00
        e 360 96 0d 64
        e 120 86 0d 00
        e 360 96 0d 64
        e 120 86 0d 00
        e 360 96 0c 64
        e 120 86 0c 00
        e 360 96 0d 64
        e 120 86 0d 00
        e 360 96 0d 64
        e 120 86 0d 00
        e 360 96 0d 64
        e 120 86 0d 00
        e 360 96 0c 64
        e 120 86 0c 00
        e 360 96 0d 64
        e 120 86 0d 00
        e 360 96 0d 64
        e 120 86 0d 00
        e 360 96 0d 64
        e 120 86 0d 00
        e 360 96 0c 64
        e 120 86 0c 00
        e 360 96 0d 64
        e 120 86 0d 00
        e 360 96 0d 64
        e 120 86 0d 00
        e 360 96 0d 64
        e 120 86 0d 00
        e 360 96 0c 64
        e 120 86 0c 00
        e 360 96 0d 64
        e 120 86 0d 00
        e 360 96 0d 64
        e 120 86 0d 00
        e 360 96 0d 64
        e 120 86 0d 00
        e 360 96 0c 64
        e 120 86 0c 00
        e 360 96 0d 64
        e 120 86 0d 00
        e 360 96 0d 64
        e 120 86 0d 00
        e 360 96 0d 64
        e 120 86 0d 00
        e 360 96 0c 64
        e 120 86 0c 00
        e 360 96 0d 64
        e 120 86 0d 00
        e 360 96 0d 64
        e 120 86 0d 00
        e 360 96 0d 64
        e 120 86 0d 00
        e 360 96 0c 64
        e 120 86 0c 00
        e 360 96 0d 64
        e 120 86 0d 00
        e 360 96 0d 64
        e 120 86 0d 00
        e 360 96 0d 64
        e 120 86 0d 00
        e 360 96 0c 64
        e 120 86 0c 00
        e 360 96 0d 64
        e 120 86 0d 00
        e 360 96 0d 64
        e 120 86 0d 00
        e 360 96 0d 64
        e 120 86 0d 00
        e 360 96 0c 64
        e 120 86 0c 00
        e 360 96 0d 64
        e 120 86 0d 00
        e 360 96 0d 64
        e 120 86 0d 00
        e 360 96 0d 64
        e 120 86 0d 00
        e 360 96 0c 64
        e 120 86 0c 00
        e 360 96 0d 64
        e 120 86 0d 00
        e 360 96 0d 64
        e 120 86 0d 00
        e 360 96 0d 64
        e 120 86 0d 00
        e 360 96 0c 64
        e 120 86 0c 00
        e 360 96 0d 64
        e 120 86 0d 00
        e 360 96 0d 64
        e 120 86 0d 00
        e 360 96 0d 64
        e 120 86 0d 00
        e 360 96 0c 64
        e 120 86 0c 00
        e 360 96 0d 64
        e 120 86 0d 00
        e 360 96 0d 64
        e 120 86 0d 00
        e 360 96 0d 64
        e 120 86 0d 00
        e 360 96 0c 64
        e 120 86 0c 00
        e 360 96 0d 64
        e 120 86 0d 00
        e 360 96 0d 64
        e 120 86 0d 00
        e 360 96 0d 64
        e 120 86 0d 00
        e 360 96 0c 64
        e 120 86 0c 00
        e 360 96 0d 64
        e 120 86 0d 00
        e 360 96 0d 64
        e 120 86 0d 00
        e 360 96 0d 64
        e 120 86 0d 00
        e 360 96 0c 64
        e 120 86 0c 00
        e 360 96 0d 64
        e 120 86 0d 00
        e 360 96 0d 64
        e 120 86 0d 00
        e 360 96 0d 64
        e 120 86 0d 00
        e 360 96 0c 64
        e 120 86 0c 00
        e 360 96 0d 64
        e 120 86 0d 00
        e 360 96 0d 64
        e 120 86 0d 00
        e 360 96 0d 64
        e 120 86 0d 00
        e 360 96 0c 64
        e 120 86 0c 00
        e 360 96 0d 64
        e 120 86 0d 00
        e 360 96 0d 64
        e 120 86 0d 00
        e 360 96 0d 64
        e 120 86 0d 00
        e 360 96 0c 64
        e 120 86 0c 00
        e 360 96 0d 64
        e 120 86 0d 00
        e 360 96 0d 64
        e 120 86 0d 00
        e 360 96 0d 64
        e 120 86 0d 00
        e 360 96 0c 64
        e 120 86 0c 00
        e 360 96 0d 64
        e 120 86 0d 00
        e 360 96 0d 64
        e 120 86 0d 00
        e 360 96 0d 64
        e 120 86 0d 00
        e 360 96 0c 64
        e 120 86 0c 00
        e 360 96 0d 64
        e 120 86 0d 00
        e 360 96 0d 64
        e 120 86 0d 00
        e 360 96 0d 64
        e 120 86 0d 00
        e 360 96 0c 64
        e 120 86 0c 00
        e 360 96 0d 64
        e 120 86 0d 00
        e 360 96 0d 64
        e 120 86 0d 00
        e 360 96 0d 64
        e 120 86 0d 00
        e 360 96 0c 64
        e 120 86 0c 00
        e 360 96 0d 64
        e 120 86 0d 00
        e 360 96 0d 64
        e 120 86 0d 00
        e 360 96 0d 64
        e 120 86 0d 00
        e 360 96 0c 64
        e 120 86 0c 00
        e 360 96 0d 64
        e 120 86 0d 00
        e 360 96 0d 64
        e 120 86 0d 00
        e 360 96 0d 64
        e 120 86 0d 00
        e 360 96 0c 64
        e 120 86 0c 00
        e 360 96 0d 64
        e 120 86 0d 00
        e 360 96 0d 64
        e 120 86 0d 00
        e 360 96 0d 64
        e 120 86 0d 00
        e 360 96 0c 64
        e 120 86 0c 00
        e 360 96 0d 64
        e 120 86 0d 00
        e 360 96 0d 64
        e 120 86 0d 00
        e 360 96 0d 64
        e 120 86 0d 00
        e 360 96 0c 64
        e 120 86 0c 00
        e 360 96 0d 64
        e 120 86 0d 00
        e 360 96 0d 64
        e 120 86 0d 00
        e 360 96 0d 64
        e 120 86 0d 00
        e 360 96 0c 64
        e 120 86 0c 00
        e 360 96 0d 64
        e 120 86 0d 00
        e 360 96 0d 64
        e 120 86 0d 00
        e 360 96 0d 64
        e 120 86 0d 00
        e 360 96 0c 64
        e 120 86 0c 00
        e 360 96 0d 64
        e 120 86 0d 00
        e 360 96 0d 64
        e 120 86 0d 00
        e 360 96 0d 64
        e 120 86 0d 00
        e 360 96 0c 64
        e 120 86 0c 00
        e 360 96 0d 64
        e 120 86 0d 00
        e 360 96 0d 64
        e 120 86 0d 00
        e 360 96 0d 64
        e 120 86 0d 00
        e 360 96 0c 64
        e 120 86 0c 00
        e 360 96 0d 64
        e 120 86 0d 00
        e 360 96 0d 64
        e 120 86 0d 00
        e 360 96 0d 64
        e 120 86 0d 00
        e 360 96 0c 64
        e 120 86 0c 00
        e 360 96 0d 64
        e 120 86 0d 00
        e 360 96 0d 64
        e 120 86 0d 00
        e 360 96 0d 64
        e 120 86 0d 00
        e 360 96 0c 64
        e 120 86 0c 00
        e 360 96 0d 64
        e 120 86 0d 00
        e 360 96 0d 64
        e 120 86 0d 00
        e 360 96 0d 64
        e 120 86 0d 00
        e 360 96 0c 64
        e 120 86 0c 00
        e 360 96 0d 64
        e 120 86 0d 00
        e 360 96 0d 64
        e 120 86 0d 00
        e 360 96 0d 64
        e 120 86 0d 00
        e 360 96 0c 64
        e 120 86 0c 00
        e 360 96 0d 64
        e 120 86 0d 00
        e 360 96 0d 64
        e 120 86 0d 00
        e 360 96 0d 64
        e 120 86 0d 00
        e 360 96 0c 64
        e 120 86 0c 00
        e 360 96 0d 64
        e 120 86 0d 00
        e 360 96 0d 64
        e 120 86 0d 00
        e 360 96 0d 64
        e 120 86 0d 00
        e 360 96 0c 64
        e 120 86 0c 00
        e 360 96 0d 64
        e 120 86 0d 00
        e 360 96 0d 64
        e 120 86 0d 00
        e 360 96 0d 64
        e 120 86 0d 00
        e 360 96 0c 64
        e 120 86 0c 00
        e 360 96 0d 64
        e 120 86 0d 00
        e 360 96 0d 64
        e 120 86 0d 00
        e 360 96 0d 64
        e 120 86 0d 00
        e 360 96 0c 64
        e 120 86 0c 00
        e 360 96 0d 64
        e 120 86 0d 00
        e 360 96 0d 64
        e 120 86 0d 00
        e 360 96 0d 64
        e 120 86 0d 00
        e 360 96 0c 64
        e 120 86 0c 00
        e 360 96 0d 64
        e 120 86 0d 00
        e 360 96 0d 64
        e 120 86 0d 00
        e 360 96 0d 64
        e 120 86 0d 00
        e 360 96 0c 64
        e 120 86 0c 00
        e 360 96 0d 64
        e 120 86 0d 00
        e 360 96 0d 64
        e 120 86 0d 00
        e 360 96 0d 64
        e 120 86 0d 00
        e 360 96 0c 64
        e 120 86 0c 00
        e 360 96 0d 64
        e 120 86 0d 00
        e 360 96 0d 64
        e 120 86 0d 00
        e 360 96 0d 64
        e 120 86 0d 00
        e 360 96 0c 64
        e 120 86 0c 00
        e 360 96 0d 64
        e 120 86 0d 00
        e 360 96 0d 64
        e 120 86 0d 00
        e 360 96 0d 64
        e 120 86 0d 00
        e 360 96 0c 64
        e 120 86 0c 00
        e 360 96 0d 64
        e 120 86 0d 00
        e 360 96 0d 64
        e 120 86 0d 00
        e 360 96 0d 64
        e 120 86 0d 00
        e 360 96 0c 64
        e 120 86 0c 00
        e 360 96 0d 64
        e 120 86 0d 00
        e 360 96 0d 64
        e 120 86 0d 00
        e 360 96 0d 64
        e 120 86 0d 00
        e 360 96 0c 64
        e 120 86 0c 00
        e 360 96 0d 64
        e 120 86 0d 00
        e 360 96 0d 64
        e 120 86 0d 00
        e 360 96 0d 64
        e 120 86 0d 00
        e 360 96 0c 64
        e 120 86 0c 00
        e 360 96 0d 64
        e 120 86 0d 00
        e 360 96 0d 64
        e 120 86 0d 00
        e 360 96 0d 64
        e 120 86 0d 00
        e 360 96 0c 64
        e 120 86 0c 00
        e 360 96 0d 64
        e 120 86 0d 00
        e 360 96 0d 64
        e 120 86 0d 00
        e 360 96 0d 64
        e 120 86 0d 00
        e 360 96 0c 64
        e 120 86 0c 00
        e 360 96 0d 64
        e 120 86 0d 00
        e 360 96 0d 64
        e 120 86 0d 00
        e 360 96 0d 64
        e 120 86 0d 00
        e 360 96 0c 64
        e 120 86 0c 00
        e 360 96 0d 64
        e 120 86 0d 00
        e 360 96 0d 64
        e 120 86 0d 00
        e 360 96 0d 64
        e 120 86 0d 00
        e 360 96 0c 64
        e 120 86 0c 00
        e 360 96 0d 64
        e 120 86 0d 00
        e 360 96 0d 64
        e 120 86 0d 00
        e 360 96 0d 64
        e 120 86 0d 00
        e 360 96 0c 64
        e 120 86 0c 00
        e 360 96 0d 64
        e 120 86 0d 00
        e 360 96 0d 64
        e 120 86 0d 00
        e 360 96 0d 64
        e 120 86 0d 00
        e 360 96 0c 64
        e 120 86 0c 00
        e 360 96 0d 64
        e 120 86 0d 00
        e 360 96 0d 64
        e 120 86 0d 00
        e 360 96 0d 64
        e 120 86 0d 00
        e 360 96 0c 64
        e 120 86 0c 00
        e 360 96 0d 64
        e 120 86 0d 00
        e 360 96 0d 64
        e 120 86 0d 00
        e 360 96 0d 64
        e 120 86 0d 00
        e 360 96 0c 64
        e 120 86 0c 00
        e 360 96 0d 64
        e 120 86 0d 00
        e 360 96 0d 64
        e 120 86 0d 00
        e 360 96 0d 64
        e 120 86 0d 00
        e 360 96 0c 64
        e 120 86 0c 00
        e 360 96 0d 64
        e 120 86 0d 00
        e 360 96 0d 64
        e 120 86 0d 00
        e 360 96 0d 64
        e 120 86 0d 00
        e 360 96 0c 64
        e 120 86 0c 00
        e 360 96 0d 64
        e 120 86 0d 00
        e 360 96 0d 64
        e 120 86 0d 00
        e 360 96 0d 64
        e 120 86 0d 00
        e 360 96 0c 64
        e 120 86 0c 00
        e 360 96 0d 64
        e 120 86 0d 00
        e 360 96 0d 64
        e 120 86 0d 00
        e 360 96 0d 64
        e 120 86 0d 00
        e 360 96 0c 64
        e 120 86 0c 00
        e 360 96 0d 64
        e 120 86 0d 00
        e 360 96 0d 64
        e 120 86 0d 00
        e 360 96 0d 64
        e 120 86 0d 00
        e 360 96 0c 64
        e 120 86 0c 00
        e 360 96 0d 64
        e 120 86 0d 00
        e 360 96 0d 64
        e 120 86 0d 00
        e 360 96 0d 64
        e 120 86 0d 00
        e 360 96 0c 64
        e 120 86 0c 00
        e 360 96 0d 64
        e 120 86 0d 00
        e 360 96 0d 64
        e 120 86 0d 00
        e 360 96 0d 64
        e 120 86 0d 00
        e 360 96 0c 64
        e 120 86 0c 00
        e 360 96 0d 64
        e 120 86 0d 00
        e 360 96 0d 64
        e 120 86 0d 00
        e 360 96 0d 64
        e 120 86 0d 00
        e 360 96 0c 64
        e 120 86 0c 00
        e 360 96 0d 64
        e 120 86 0d 00
        e 360 96 0d 64
        e 120 86 0d 00
        e 360 96 0d 64
        e 120 86 0d 00
        e 360 96 0c 64
        e 120 86 0c 00
        e 360 96 0d 64
        e 120 86 0d 00
        e 360 96 0d 64
        e 120 86 0d 00
        e 360 96 0d 64
        e 120 86 0d 00
        e 360 96 0c 64
        e 120 86 0c 00
        e 360 96 0d 64
        e 120 86 0d 00
        e 360 96 0d 64
        e 120 86 0d 00
        e 360 96 0d 64
        e 120 86 0d 00
        e 360 96 0c 64
        e 120 86 0c 00
        e 360 96 0d 64
        e 120 86 0d 00
        e 360 96 0d 64
        e 120 86 0d 00
        e 360 96 0d 64
        e 120 86 0d 00
        e 360 96 0c 64
        e 120 86 0c 00
        e 360 96 0d 64
        e 120 86 0d 00
        e 360 96 0d 64
        e 120 86 0d 00
        e 360 96 0d 64
        e 120 86 0d 00
        e 360 96 0c 64
        e 120 86 0c 00
        e 360 96 0d 64
        e 120 86 0d 00
        e 360 96 0d 64
        e 120 86 0d 00
        e 360 96 0d 64
        e 120 86 0d 00
        e 360 96 0c 64
        e 120 86 0c 00
        e 360 96 0d 64
        e 120 86 0d 00
        e 360 96 0d 64
        e 120 86 0d 00
        e 360 96 0d 64
        e 120 86 0d 00
        e 360 96 0c 64
        e 120 86 0c 00
        e 360 96 0d 64
        e 120 86 0d 00
        e 360 96 0d 64
        e 120 86 0d 00
        e 360 96 0d 64
        e 120 86 0d 00
        e 360 96 0c 64
        e 120 86 0c 00
        e 360 96 0d 64
        e 120 86 0d 00
        e 360 96 0d 64
        e 120 86 0d 00
        e 360 96 0d 64
        e 120 86 0d 00
        e 360 96 0c 64
        e 120 86 0c 00
        e 360 96 0d 64
        e 120 86 0d 00
        e 360 96 0d 64
        e 120 86 0d 00
        e 360 96 0d 64
        e 120 86 0d 00
        e 360 96 0c 64
        e 120 86 0c 00
        e 360 96 0d 64
        e 120 86 0d 00
        e 360 96 0d 64
        e 120 86 0d 00
        e 360 96 0d 64
        e 120 86 0d 00
        e 360 96 0c 64
        e 120 86 0c 00
        e 360 96 0d 64
        e 120 86 0d 00
        e 360 96 0d 64
        e 120 86 0d 00
        e 360 96 0d 64
        e 120 86 0d 00
        E 3579 b0 7b 00
        GUID {8CB930E8-B6A0-4CAD-825A-9F47FB66C1D0}
        IGNTEMPO 0 120.00000000 4 4
        SRCCOLOR 1213
        VELLANE 132 100 100
        COLORMAP "M:\RGS Documents\ColorMaps\rockband_vox-other.png"
        TEXTSTRINGFILE "Text Events List.txt"
        CFGEDITVIEW -9084.042589 11.231123 0 48 0 0 0
        CFGEDIT 1 1 0 0 0 1 1 1 1 1 1 1.00000000 44 63 1223 847 1 2 1 2 0.00000000 0 0 0 0 0.500000 1 0 1.000000 64
        KEYSNAP 0 0 "102034050607" 0 "Major"
        EVTFILTER 0 -1 -1 -1 -1 0 1 0 0 -1.00000000 -1.00000000
      >
    >
  >
  <TRACK '{0E2FE3F2-76C0-4A51-94D0-F118951ACC28}'
    NAME "PART REAL_GUITAR"
    PEAKCOL 16576
    BEAT -1
    AUTOMODE 0
    VOLPAN 1.00000000000000 0.00000000000000 -1.00000000000000 -1.00000000000000 1.00000000000000
    MUTESOLO 1 0 0
    IPHASE 0
    ISBUS 0 0
    BUSCOMP 0 0
    SHOWINMIX 1 0.666700 0.500000 1 0.500000 -1 -1 -1
    FREEMODE 0
    SEL 0
    REC 0 0 0 0 0 0 0
    TRACKHEIGHT 0 0
    INQ 0 0 0 0.5000000000 100 0 0 100
    NCHAN 2
    FX 1
    TRACKID {0E2FE3F2-76C0-4A51-94D0-F118951ACC28}
    PERF 0
    MIDIOUT -1
    <MIDINOTENAMES
      0 101 "EXPERT E String (HIGH)"
      0 100 "EXPERT B String"
      0 99 "EXPERT G String"
      0 98 "EXPERT D String"
      0 97 "EXPERT A String"
      0 96 "EXPERT E String (LOW)"
      0 77 "HARD E String (HIGH)"
      0 72 "HARD E String (LOW)"
      0 53 "MEDIUM E String (HIGH)"
      0 48 "MEDIUM E String (LOW)"
      0 29 "EASY E String (HIGH)"
      0 24 "EASY E String (LOW)"
      0 76 "HARD B String"
      0 75 "HARD G String"
      0 74 "HARD D String"
      0 73 "HARD A String"
      0 52 "MEDIUM B String"
      0 51 "MEDIUM G String"
      0 50 "MEDIUM D String"
      0 49 "MEDIUM A String"
      0 28 "EASY B String"
      0 27 "EASY G String"
      0 26 "EASY D String"
      0 25 "EASY A String"
      0 116 "OVERDRIVE"
      0 115 "Solo Marker"
      0 125 "BRE"
      0 120 "BRE (use all 6)"
      0 124 "BRE"
      0 123 "BRE"
      0 122 "BRE"
      0 121 "BRE"
      0 127 "Trill"
      0 126 "Tremelo"
      0 108 "Left hand position"
      0 107 "Force Chord Numbering"
      0 104 "EXPERT Arpeggio Marker"
      0 103 "EXPERT Slide Marker"
      0 102 "EXPERT Force Ho/Po"
      0 80 "HARD Arpeggio Marker"
      0 79 "HARD Slide Marker"
      0 78 "Force Ho/Po"
      0 55 "MEDIUM Slide Marker"
      0 31 "EASY Slide Marker"
      0 17 "Hide Chord Names"
      0 15 "Eb"
      0 14 "D"
      0 13 "Db"
      0 12 "C"
      0 11 "B"
      0 10 "Bb"
      0 9 "A"
      0 8 "Ab"
      0 7 "G"
      0 6 "Gb"
      0 5 "F"
      0 4 "E"
      0 105 "EXPERT Strum Direction"
      0 81 "HARD Strum Direction"
      0 56 "MEDIUM Arpeggio Marker"
      0 32 "EASY Arpeggio Marker"
      0 21 "CHORD NAMES"
      0 18 "Flat/Sharp Swap"
      0 16 "Slash Chord"
    >
    MAINSEND 1 0
    <FXCHAIN
      SHOW 0
      LASTSEL 0
      DOCKED 0
    >
    <ITEM
      POSITION 0.00000000000000
      SNAPOFFS 0.00000000000000
      LENGTH 195.38764592962190
      LOOP 0
      ALLTAKES 0
      SEL 0
      FADEIN 1 0.000000 0.000000 1 0
      FADEOUT 1 0.000000 0.000000 1 0
      MUTE 0
      IGUID {20F1321F-9ED7-4853-AD09-40B222B05CF8}
      IID 24
      NAME "PART REAL_GUITAR"
      VOLPAN 1.000000 0.000000 1.000000 -1.000000
      SOFFS 0.00000000000000 0.00000000000000
      PLAYRATE 1.00000000000000 1 0.00000000000000 -1
      CHANMODE 0
      GUID {3CDDC74F-292B-448F-83EC-680F8CEF1C9B}
      <SOURCE MIDI
        HASDATA 1 480 QN
        POOLEDEVTS {E1AB98E3-93C8-4C9F-A6C9-978644D1941F}
        <X 0 0
          /wNQQVJUIFJFQUxfR1VJVEFS
        >
        E 3840 90 18 64
        E 0 90 19 64
        E 0 90 1a 64
        E 0 90 1b 64
        E 0 90 1c 64
        E 0 90 1d 64
        E 0 90 30 64
        E 0 90 31 64
        E 0 90 32 64
        E 0 90 33 64
        E 0 90 34 64
        E 0 90 35 64
        E 0 90 48 64
        E 0 90 49 64
        E 0 90 4a 64
        E 0 90 4b 64
        E 0 90 4c 64
        E 0 90 4d 64
        E 0 90 60 64
        E 0 90 61 64
        E 0 90 62 64
        E 0 90 63 64
        E 0 90 64 64
        E 0 90 65 64
        E 120 80 18 00
        E 0 80 19 00
        E 0 80 1a 00
        E 0 80 1b 00
        E 0 80 1c 00
        E 0 80 1d 00
        E 0 80 30 00
        E 0 80 31 00
        E 0 80 32 00
        E 0 80 33 00
        E 0 80 34 00
        E 0 80 35 00
        E 0 80 48 00
        E 0 80 49 00
        E 0 80 4a 00
        E 0 80 4b 00
        E 0 80 4c 00
        E 0 80 4d 00
        E 0 80 60 00
        E 0 80 61 00
        E 0 80 62 00
        E 0 80 63 00
        E 0 80 64 00
        E 0 80 65 00
        E 177000 b0 7b 00
        GUID {95EB2031-BC44-4B36-809B-F7595C07BF30}
        IGNTEMPO 0 120.00000000 4 4
        SRCCOLOR 1214
        VELLANE 132 123 128
        COLORMAP "C:\Program Files\REAPER\Data\color_maps\rockband_guitarbass.png"
        TEXTSTRINGFILE "C:\Program Files\REAPER\Data\Text_Strings\Text Events List.txt"
        CFGEDITVIEW 0.000000 0.103438 87 12 0 0 0
        CFGEDIT 1 1 0 0 0 1 1 1 1 1 1 0.25000000 0 0 683 728 1 0 0 2 0.12500000 0 1 0 0 0.500000 0 0 1.000000 64
        KEYSNAP 0 0 "102034050607" 0 "Major"
        EVTFILTER 0 -1 -1 -1 -1 0 1 0 0 -1.00000000 -1.00000000
      >
    >
  >
  <TRACK '{4048E3A2-B3FC-493C-BF0E-D7B7B9F9DFF3}'
    NAME "PART REAL_BASS"
    PEAKCOL 16576
    BEAT -1
    AUTOMODE 0
    VOLPAN 1.00000000000000 0.00000000000000 -1.00000000000000 -1.00000000000000 1.00000000000000
    MUTESOLO 1 0 0
    IPHASE 0
    ISBUS 0 0
    BUSCOMP 0 0
    SHOWINMIX 1 0.666700 0.500000 1 0.500000 -1 -1 -1
    FREEMODE 0
    SEL 0
    REC 0 0 0 0 0 0 0
    TRACKHEIGHT 0 0
    INQ 0 0 0 0.5000000000 100 0 0 100
    NCHAN 2
    FX 1
    TRACKID {4048E3A2-B3FC-493C-BF0E-D7B7B9F9DFF3}
    PERF 0
    MIDIOUT -1
    <MIDINOTENAMES
      0 99 "EXPERT G String"
      0 98 "EXPERT D String"
      0 97 "EXPERT A String"
      0 96 "EXPERT E String (LOW)"
      0 72 "HARD E String (LOW)"
      0 48 "MEDIUM E String (LOW)"
      0 24 "EASY E String (LOW)"
      0 75 "HARD G String"
      0 74 "HARD D String"
      0 73 "HARD A String"
      0 51 "MEDIUM G String"
      0 50 "MEDIUM D String"
      0 49 "MEDIUM A String"
      0 27 "EASY G String"
      0 26 "EASY D String"
      0 25 "EASY A String"
      0 116 "OVERDRIVE"
      0 115 "Solo Marker"
      0 120 "BRE (use all 6)"
      0 123 "BRE"
      0 122 "BRE"
      0 121 "BRE"
      0 127 "Trill"
      0 126 "Tremelo"
      0 125 "BRE"
      0 124 "BRE"
      0 108 "Left hand position"
      0 107 "Force Chord Numbering"
      0 104 "EXPERT Arpeggio Marker"
      0 103 "EXPERT Slide Marker"
      0 102 "EXPERT Force Ho/Po"
      0 101 "EXPERT E String (HIGH)"
      0 100 "EXPERT B String"
      0 80 "HARD Arpeggio Marker"
      0 79 "HARD Slide Marker"
      0 78 "Force Ho/Po"
      0 77 "HARD E String (HIGH)"
      0 76 "HARD B String"
      0 55 "MEDIUM Slide Marker"
      0 53 "MEDIUM E String (HIGH)"
      0 52 "MEDIUM B String"
      0 31 "EASY Slide Marker"
      0 29 "EASY E String (HIGH)"
      0 28 "EASY B String"
      0 17 "Hide Chord Names"
      0 15 "Eb"
      0 14 "D"
      0 13 "Db"
      0 12 "C"
      0 11 "B"
      0 10 "Bb"
      0 9 "A"
      0 8 "Ab"
      0 7 "G"
      0 6 "Gb"
      0 5 "F"
      0 4 "E"
      0 105 "EXPERT Strum Direction"
      0 81 "HARD Strum Direction"
      0 56 "MEDIUM Arpeggio Marker"
      0 32 "EASY Arpeggio Marker"
      0 21 "CHORD NAMES"
      0 18 "Flat/Sharp Swap"
      0 16 "Slash Chord"
    >
    MAINSEND 1 0
    <FXCHAIN
      SHOW 0
      LASTSEL 0
      DOCKED 0
    >
    <ITEM
      POSITION 0.00000000000000
      SNAPOFFS 0.00000000000000
      LENGTH 195.38764592962190
      LOOP 0
      ALLTAKES 0
      SEL 0
      FADEIN 1 0.000000 0.000000 1 0
      FADEOUT 1 0.000000 0.000000 1 0
      MUTE 0
      IGUID {20F1321F-9ED7-4853-AD09-40B222B05CF8}
      IID 25
      NAME "PART REAL_BASS"
      VOLPAN 1.000000 0.000000 1.000000 -1.000000
      SOFFS 0.00000000000000 0.00000000000000
      PLAYRATE 1.00000000000000 1 0.00000000000000 -1
      CHANMODE 0
      GUID {3CDDC74F-292B-448F-83EC-680F8CEF1C9B}
      <SOURCE MIDI
        HASDATA 1 480 QN
        POOLEDEVTS {A246499D-5518-44D0-A950-9A3D0860F997}
        <X 0 0
          /wNQQVJUIFJFQUxfQkFTUw==
        >
        E 3840 90 18 64
        E 0 90 19 64
        E 0 90 1a 64
        E 0 90 1b 64
        E 0 90 30 64
        E 0 90 31 64
        E 0 90 32 64
        E 0 90 33 64
        E 0 90 48 64
        E 0 90 49 64
        E 0 90 4a 64
        E 0 90 4b 64
        E 0 90 60 64
        E 0 90 61 64
        E 0 90 62 64
        E 0 90 63 64
        E 120 80 18 00
        E 0 80 19 00
        E 0 80 1a 00
        E 0 80 1b 00
        E 0 80 30 00
        E 0 80 31 00
        E 0 80 32 00
        E 0 80 33 00
        E 0 80 48 00
        E 0 80 49 00
        E 0 80 4a 00
        E 0 80 4b 00
        E 0 80 60 00
        E 0 80 61 00
        E 0 80 62 00
        E 0 80 63 00
        E 177000 b0 7b 00
        GUID {95EB2031-BC44-4B36-809B-F7595C07BF30}
        IGNTEMPO 0 120.00000000 4 4
        SRCCOLOR 1215
        VELLANE 132 123 128
        COLORMAP "C:\Program Files\REAPER\Data\color_maps\rockband_guitarbass.png"
        TEXTSTRINGFILE "C:\Program Files\REAPER\Data\Text_Strings\Text Events List.txt"
        CFGEDITVIEW 0.000000 0.179136 0 12 0 0 0
        CFGEDIT 1 1 0 0 0 1 1 1 1 1 1 0.25000000 0 0 683 728 1 0 0 2 0.00000000 0 1 0 0 0.500000 0 0 1.000000 64
        KEYSNAP 0 0 "102034050607" 0 "Major"
        EVTFILTER 0 -1 -1 -1 -1 0 1 0 0 -1.00000000 -1.00000000
      >
    >
  >
>
