<REAPER_PROJECT 0.1 "4.22/x64"
  RIPPLE 0
  GROUPOVERRIDE 0 1 0
  AUTOXFADE 1
  ENVATTACH 1
  MIXERUIFLAGS 11 48
  PEAKGAIN 1.00000000000000
  FEEDBACK 0
  PANLAW 1.00000000000000
  PROJOFFS 0.00000000000000 0
  MAXPROJLEN 0 600.00000000000000
  GRID 1407 8 1.00000000000000 8 1.00000000000000 0
  TIMEMODE 1 0 -1
  CURSOR 59.57551982002951
  ZOOM 541.71841678578596 95042 0
  VZOOMEX 0
  USE_REC_CFG 0
  RECMODE 1
  SMPTESYNC 0 30.000000 100 40 1000 300 0 0.000000 0
  LOOP 1
  LOOPGRAN 0 4.00000000000000
  RECORD_PATH "" ""
  <RECORD_CFG
    ZXZhdxgA
  >
  <APPLYFX_CFG
  >
  RENDER_FILE ""
  RENDER_PATTERN ""
  RENDER_FMT 0 2 0
  RENDER_1X 0
  RENDER_RANGE 1 0.00000000000000 0.00000000000000
  RENDER_RESAMPLE 3 0 1
  RENDER_ADDTOPROJ 0
  RENDER_STEMS 0
  RENDER_DITHER 0
  TIMELOCKMODE 0
  ITEMMIX 0
  DEFPITCHMODE 0
  TAKELANE 1
  SAMPLERATE 44100 0 0
  <RENDER_CFG
  >
  LOCK 1
  <METRONOME 6 2.000000
    VOL 0.752735 0.723913
    FREQ 800 1600 0
    BEATLEN 4
    SAMPLES "" ""
  >
  GLOBAL_AUTO -1
  TEMPO 120.00000000000000 4 4
  PLAYRATE 1.00000000000000 0 0.25000 4.00000
  SELECTION 0.00000000000000 0.00000000000000
  SELECTION2 0.00000000000000 0.00000000000000
  MASTERAUTOMODE 0
  MASTERTRACKHEIGHT 35
  MASTERPEAKCOL 16576
  MASTERMUTESOLO 0
  MASTERTRACKVIEW 1 0.666700 0.500000 0.500000 -1 -1 -1
  MASTERHWOUT 0 0 1.00000000000000 0.00000000000000 0 0 0 -1.00000000000000
  MASTER_NCH 2 2
  MASTER_VOLUME 1.05925372517729 0.00000000000000 -1.00000000000000 -1.00000000000000 1.00000000000000
  MASTER_FX 1
  MASTER_SEL 0
  <MASTERFXLIST
    SHOW 0
    LASTSEL 0
    DOCKED 0
    BYPASS 0 0
    <VST "VST: W1 Limiter (George Yohng)" "George Yohng_s W1 Limiter.dll" 0 ""
      THdGNO5e7f4CAAAAAQAAAAAAAAACAAAAAAAAAAIAAAABAAAAAAAAAA==
      AgAAAAAAAABMAAAAAQAAAAAAEAAMAACBdGhyZXNoAAD+1Hg/DAAAgQ==
      Y2VpbGluZwD+1Hg/DAAAgXJlbGVhc2UAMEAfPxQAAIFhZGFwdFJlbA==
      ZWFzZQAAAAAAAAAAAAAAgAAAEAAAAA==
    >
    FLOATPOS 24 24 481 152
    FXID {69D45D23-FE06-4141-B0BB-1A6D9443AFA8}
    WAK 0
  >
  <MASTERPLAYSPEEDENV
    ACT 0
    VIS 0 1 1.000000
    LANEHEIGHT 0 0
    ARM 0
    DEFSHAPE 0 -1 -1
  >
  <TEMPOENVEX
    ACT 1
    VIS 1 0 1.000000
    LANEHEIGHT 0 0
    ARM 0
    DEFSHAPE 1 -1 -1
    PT 0.000000000000 132.0000000000 1
    PT 1.818181818182 131.7983358252 1
    PT 3.639145630033 132.0751127485 1
    PT 5.456293425750 134.1033665125 1
    PT 7.245957669396 130.9104292146 1
    PT 9.079272260448 132.3105407570 1
    PT 10.893186697097 131.4901919658 1
    PT 12.718417890481 132.7839237293 1
    PT 14.525865608996 131.8405210740 1
    PT 16.346246763780 131.9577126483 1
    PT 18.165011239030 131.9577126483 1
    PT 19.983775714280 131.7022431767 1
    PT 21.806068138548 131.8930646049 1
    PT 23.625724090276 132.4794411190 1
    PT 25.437325935610 131.7291761449 1
    PT 27.259245779214 132.4807148887 1
    PT 29.070830206439 132.1148714344 1
    PT 30.887431149196 131.5175684008 1
    PT 32.712282406091 131.5175684008 1
    PT 34.537133662986 133.6238015440 1
    PT 36.333220866215 130.8009401642 1
    PT 38.168070063007 132.0207156683 1
    PT 39.985966586179 131.4232560888 1
    PT 41.812127397761 133.0923190777 1
    PT 43.615386982260 132.0212246375 1
    PT 45.433276497063 131.6581624975 1
    PT 47.256179045962 132.3395476186 1
    PT 49.069695899530 132.3453088677 1
    PT 50.883133807177 131.3801909786 1
    PT 52.709893215976 131.8625030076 1
    PT 54.529970906949 132.0674787985 1
    PT 56.347223739997 132.5270368601 1
    PT 58.158174966903 132.2896115133 1
    PT 59.972376378901 131.7360099555 1
    PT 61.794201710343 131.2336026512 1
    PT 63.623001614875 133.6897095957 1
    PT 65.418203360214 130.3936729766 1
    PT 67.258783462924 132.2216216632 1
    PT 69.073917757763 132.4199936152 1
    PT 70.886332888196 132.3047826056 1
    PT 72.700326269791 132.0950240517 1
    PT 74.517200158289 131.4843263751 1
    PT 76.342512776276 131.9441689714 1
    PT 78.161463942295 131.1491403751 1
    PT 79.991441625059 131.7598465002 1
    PT 81.812937371865 133.2176414121 1
    PT 83.614500569172 130.8632941702 1
    PT 85.448475493324 132.6543748729 1
    PT 87.257688346123 131.7433694303 1
    PT 89.079411906389 132.2834363531 1
    PT 90.893698007632 132.8286089468 1
    PT 92.700537677963 131.1890159391 1
    PT 94.529959129766 131.7995614787 1
    PT 96.350906007793 132.2414182461 1
    PT 98.165768576442 132.2414182461 1
    PT 99.980631145091 132.4244186541 1
    PT 101.792985712620 130.0640176324 1
    PT 103.638230880106 133.0284185945 1
    PT 105.442356664173 132.2847492196 1
    PT 107.256624759443 132.4655640640 1
    PT 109.068416387674 132.3206331846 1
    PT 110.882192472506 131.7366800086 1
    PT 112.704008537587 131.8310247304 1
    PT 114.524520822087 132.7598541649 1
    PT 116.332296233635 131.2417822350 1
    PT 118.160982159054 132.1148714344 1
    PT 119.977583101811 131.4388105667 1
    PT 121.803527805398 132.2414182461 1
    PT 123.618390374047 132.3999430822 1
    PT 125.431079975062 131.8625030076 1
    PT 127.251157666035 131.5170665863 1
    PT 129.076015885805 132.1624099808 1
    PT 130.891963400948 131.8151799296 1
    PT 132.712694519535 131.8625030076 1
    PT 134.532772210508 131.8782477841 1
    PT 136.352632604717 132.3523457390 1
    PT 138.165974096022 131.2333823754 1
    PT 139.994777070204 132.0673373905 1
    PT 141.812031849031 133.2682921137 1
    PT 143.612910334030 133.2682921137 1
    PT 145.413788819028 131.6915006699 1
    PT 147.236229893654 130.0402290368 1
    PT 149.081812616613 132.8601998174 1
    PT 150.888222665144 131.4606421843 1
    PT 152.713864134806 132.0057244503 1
    PT 154.531967107230 132.3762668347 1
    PT 156.344980918079 132.0365237327 1
    PT 158.162659793705 131.6066373764 1
    PT 159.986276024500 132.4072392884 1
    PT 161.798865738552 131.8826708736 1
    PT 163.618665098167 131.9778178284 1
    PT 165.437152507256 132.5111367956 1
    PT 167.248321030926 131.8152912271 1
    PT 169.069050612190 131.7521408397 1
    PT 170.890652891063 131.9441689714 1
    PT 172.709604057082 131.6678782500 1
    PT 174.532372094282 133.2176414121 1
    PT 176.333935291589 131.0580223989 1
    PT 178.165185264746 132.3143653772 1
    PT 179.979047269191 131.3927422146 1
    PT 181.805632177571 132.2218765986 1
    PT 183.620762972671 132.2831811802 1
    PT 185.435052573653 131.7905311408 1
    PT 187.256124223661 131.8212300765 1
    PT 189.076771776872 131.8212300765 1
  >
  <PROJBAY
  >
  <TRACK '{4D889F49-FE1F-4D1D-9FB8-BFD5BA06901A}'
    NAME "SONG AUDIO"
    PEAKCOL 16576
    BEAT -1
    AUTOMODE 0
    VOLPAN 1.00000000000000 0.03200000000000 -1.00000000000000 -1.00000000000000 1.00000000000000
    MUTESOLO 0 2 0
    IPHASE 0
    ISBUS 0 0
    BUSCOMP 0 0
    SHOWINMIX 1 0.666700 0.500000 1 0.500000 -1 -1 -1
    FREEMODE 0
    SEL 0
    REC 0 0 0 0 0 0 0
    TRACKHEIGHT 52 0
    INQ 0 0 0 0.5000000000 100 0 0 100
    NCHAN 2
    FX 1
    TRACKID {4D889F49-FE1F-4D1D-9FB8-BFD5BA06901A}
    PERF 0
    MIDIOUT -1
    MAINSEND 1 0
    <FXCHAIN
      SHOW 0
      LASTSEL 0
      DOCKED 0
      BYPASS 0 0
      <VST "VST: W1 Limiter (George Yohng)" "George Yohng_s W1 Limiter.dll" 0 ""
        THdGNO5e7f4CAAAAAQAAAAAAAAACAAAAAAAAAAIAAAABAAAAAAAAAA==
        AgAAAAAAAABMAAAAAQAAAAAAEAAMAACBdGhyZXNoAAD+1Hg/DAAAgQ==
        Y2VpbGluZwD+1Hg/DAAAgXJlbGVhc2UAMEAfPxQAAIFhZGFwdFJlbA==
        ZWFzZQAAAAAAAAAAAAAAgAAAEAAAAA==
      >
      FLOATPOS 24 24 481 152
      FXID {D32BE511-3942-4A83-B6D7-DF2FE763A2B4}
      WAK 0
    >
    <ITEM
      POSITION 0.00000000000000
      SNAPOFFS 0.00000000000000
      LENGTH 0.28216019417451
      LOOP 0
      ALLTAKES 0
      SEL 0
      FADEIN 1 0.000000 0.000000 1 0
      FADEOUT 1 0.000000 0.000000 1 0
      MUTE 0
      IGUID {D829F3DA-0BE5-4277-954B-C2D10DB114A6}
      IID 1
      NAME "stick.wav"
      VOLPAN 0.271028 0.000000 1.000000 -1.000000
      SOFFS 0.00000000000000
      PLAYRATE 1.00000000000052 1 0.00000000000000 -1
      CHANMODE 0
      GUID {3A242298-C3E5-4DC8-9A3C-2EE82D8D2134}
      <SOURCE WAVE
        FILE "C:\Users\wejaa\AppData\Roaming\REAPER\ProjectTemplates\hihat.wav"
      >
    >
    <ITEM
      POSITION 0.90909090909091
      SNAPOFFS 0.00000000000000
      LENGTH 0.28216019417451
      LOOP 0
      ALLTAKES 0
      SEL 0
      FADEIN 1 0.000000 0.000000 1 0
      FADEOUT 1 0.000000 0.000000 1 0
      MUTE 0
      IGUID {5AEC5162-2B2C-4FF2-BB3B-E29ADC0916FE}
      IID 2
      NAME "stick.wav"
      VOLPAN 0.271028 0.000000 1.000000 -1.000000
      SOFFS 0.00000000000000
      PLAYRATE 1.00000000000052 1 0.00000000000000 -1
      CHANMODE 0
      GUID {16E29BEE-96F5-48F0-9FB0-3F04A1AF90D5}
      <SOURCE WAVE
        FILE "C:\Users\wejaa\AppData\Roaming\REAPER\ProjectTemplates\hihat.wav"
      >
    >
    <ITEM
      POSITION 1.81818181818182
      SNAPOFFS 0.00000000000000
      LENGTH 0.28216019417451
      LOOP 0
      ALLTAKES 0
      SEL 0
      FADEIN 1 0.000000 0.000000 1 0
      FADEOUT 1 0.000000 0.000000 1 0
      MUTE 0
      IGUID {1FA8F8C4-F448-4E02-B340-4A6644F6D8AB}
      IID 3
      NAME "stick.wav"
      VOLPAN 0.271028 0.000000 1.000000 -1.000000
      SOFFS 0.00000000000000
      PLAYRATE 1.00000000000052 1 0.00000000000000 -1
      CHANMODE 0
      GUID {8D594F7C-8B39-4D29-A27D-55F46BC65189}
      <SOURCE WAVE
        FILE "C:\Users\wejaa\AppData\Roaming\REAPER\ProjectTemplates\hihat.wav"
      >
    >
    <ITEM
      POSITION 2.19501352127962
      SNAPOFFS 0.00000000000000
      LENGTH 192.31704184703125
      LOOP 0
      ALLTAKES 0
      SEL 0
      FADEIN 1 0.000000 0.000000 1 0
      FADEOUT 1 0.000000 0.000000 1 0
      MUTE 0
      IGUID {AFA75F10-6517-4530-8E65-9844573882CA}
      IID 26
      NAME "01 Juhlat mulle.wav"
      VOLPAN 1.000000 0.000000 1.000000 -1.000000
      SOFFS 0.45454545455604
      PLAYRATE 1.00000000000000 1 0.00000000000000 -1
      CHANMODE 0
      GUID {410E2E58-DD20-4B54-83A9-255A27E30ECD}
      <SOURCE WAVE
        FILE "01 Juhlat mulle.wav"
      >
    >
    <ITEM
      POSITION 2.27272727272727
      SNAPOFFS 0.00000000000000
      LENGTH 0.28216019417451
      LOOP 0
      ALLTAKES 0
      SEL 0
      FADEIN 1 0.000000 0.000000 1 0
      FADEOUT 1 0.000000 0.000000 1 0
      MUTE 0
      IGUID {1D23FF37-8166-4C8E-915E-19EFDB52B4D8}
      IID 4
      NAME "stick.wav"
      VOLPAN 0.271028 0.000000 1.000000 -1.000000
      SOFFS 0.00000000000000
      PLAYRATE 1.00000000000052 1 0.00000000000000 -1
      CHANMODE 0
      GUID {1D91F480-CA0B-4E03-8204-02893D660CDF}
      <SOURCE WAVE
        FILE "C:\Users\wejaa\AppData\Roaming\REAPER\ProjectTemplates\hihat.wav"
      >
    >
    <ITEM
      POSITION 2.72727272727273
      SNAPOFFS 0.00000000000000
      LENGTH 0.28216019417451
      LOOP 0
      ALLTAKES 0
      SEL 0
      FADEIN 1 0.000000 0.000000 1 0
      FADEOUT 1 0.000000 0.000000 1 0
      MUTE 0
      IGUID {A6BA2F37-4089-4BF2-A73E-A602F32B7614}
      IID 5
      NAME "stick.wav"
      VOLPAN 0.271028 0.000000 1.000000 -1.000000
      SOFFS 0.00000000000000
      PLAYRATE 1.00000000000050 1 0.00000000000000 -1
      CHANMODE 0
      GUID {ABD24FE2-95CA-428E-ADD9-9A13921FCC29}
      <SOURCE WAVE
        FILE "C:\Users\wejaa\AppData\Roaming\REAPER\ProjectTemplates\hihat.wav"
      >
    >
  >
  <TRACK '{44AB8DC3-15EF-4107-836E-B261E048C6A1}'
    NAME "drums"
    PEAKCOL 16576
    BEAT -1
    AUTOMODE 0
    VOLPAN 1.00000000000000 0.00000000000000 -1.00000000000000 -1.00000000000000 1.00000000000000
    MUTESOLO 0 0 0
    IPHASE 0
    ISBUS 0 0
    BUSCOMP 0 0
    SHOWINMIX 1 0.666700 0.500000 1 0.500000 -1 -1 -1
    FREEMODE 0
    SEL 0
    REC 0 0 0 0 0 0 0
    VU 2
    TRACKHEIGHT 24 0
    INQ 0 0 0 0.5000000000 100 0 0 100
    NCHAN 2
    FX 1
    TRACKID {44AB8DC3-15EF-4107-836E-B261E048C6A1}
    PERF 0
    MIDIOUT -1
    MAINSEND 1 0
  >
  <TRACK '{BDCFF37A-71AC-4D17-AF26-EA560B308842}'
    NAME "COUNTIN"
    PEAKCOL 16576
    BEAT -1
    AUTOMODE 0
    VOLPAN 1.00000000000000 0.00000000000000 -1.00000000000000 -1.00000000000000 1.00000000000000
    MUTESOLO 0 0 0
    IPHASE 0
    ISBUS 0 0
    BUSCOMP 0 0
    SHOWINMIX 1 0.666700 0.500000 1 0.500000 -1 -1 -1
    FREEMODE 0
    SEL 0
    REC 0 0 0 0 0 0 0
    TRACKHEIGHT 0 0
    INQ 0 0 0 0.5000000000 100 0 0 100
    NCHAN 2
    FX 1
    TRACKID {BDCFF37A-71AC-4D17-AF26-EA560B308842}
    PERF 0
    MIDIOUT -1
    MAINSEND 1 0
  >
  <TRACK '{8F33A645-3DF2-48FA-99BC-10992A4F8042}'
    NAME "PART DRUMS"
    PEAKCOL 16842751
    BEAT -1
    AUTOMODE 0
    VOLPAN 1.63627405417562 0.00000000000000 -1.00000000000000 -1.00000000000000 1.00000000000000
    MUTESOLO 0 0 0
    IPHASE 0
    ISBUS 0 0
    BUSCOMP 1 0
    SHOWINMIX 1 0.666700 0.500000 1 0.500000 -1 -1 -1
    FREEMODE 0
    SEL 1
    REC 0 4096 1 7 0 0 0
    TRACKHEIGHT 92 0
    INQ 0 0 0 0.5000000000 100 0 0 100
    NCHAN 2
    FX 1
    TRACKID {8F33A645-3DF2-48FA-99BC-10992A4F8042}
    PERF 0
    MIDIOUT -1
    <MIDINOTENAMES
      0 84 "HARD Kick"
      0 96 "EXPERT Kick"
      0 72 "MEDIUM Kick"
      0 60 "EASY Kick"
      0 97 "EXPERT Red"
      0 98 "EXPERT Yellow"
      0 99 "EXPERT Blue"
      0 100 "EXPERT Green"
      0 85 "HARD Red"
      0 86 "HARD Yellow"
      0 87 "HARD Blue"
      0 88 "HARD Green"
      0 73 "MEDIUM Red"
      0 74 "MEDIUM Yellow"
      0 75 "MEDIUM Blue"
      0 76 "MEDIUM Green"
      0 61 "EASY Red"
      0 62 "EASY Yellow"
      0 63 "EASY Blue"
      0 64 "EASY Green"
      0 101 ""
      0 92 "----"
      0 80 "----"
      0 68 "----"
      0 120 "DRUM FILL (use all 5)"
      0 121 "DRUM FILL"
      0 122 "DRUM FILL"
      0 123 "DRUM FILL"
      0 124 "DRUM FILL"
      0 114 "----"
      0 116 "OVERDRIVE"
      0 118 "----"
      0 24 "KICK RF"
      0 25 "HI-HAT OPEN"
      0 26 "SNARE HARD LH"
      0 27 "SNARE HARD RH"
      0 30 "HI-HAT LH"
      0 31 "HI-HAT RH"
      0 32 "PERCUSSION RH"
      0 34 "CRASH1 HARD LH"
      0 35 "CRASH1 SOFT LH"
      0 36 "CRASH1 HARD RH"
      0 37 "CRASH1 SOFT RH"
      0 38 "CRASH2 HARD RH"
      0 39 "CRASH2 SOFT RH"
      0 40 "CRASH1 CHOKE"
      0 41 "CRASH2 CHOKE"
      0 42 "RIDE CYM RH"
      0 46 "TOM1 LH"
      0 47 "TOM1 RH"
      0 48 "TOM2 LH"
      0 49 "TOM2 RH"
      0 50 "FLOOR TOM LH"
      0 51 "FLOOR TOM RH"
      0 52 "--DRUM ANIMATION--"
      0 56 "----"
      0 103 "Solo Marker"
      0 102 "----"
      0 110 "PRO Yellow Tom"
      0 111 "PRO Blue Tom"
      0 112 "PRO Green Tom"
      0 108 "----"
      0 127 "Roll Marker 2-Lane / Cym"
      0 126 "Roll Marker 1-Lane"
      0 125 "----"
      0 28 "SNARE RIM LH"
      0 29 "SNARE RIM RH"
      0 43 "RIDE CYM LH"
      0 44 "CRASH2 HARD LH"
      0 45 "CRASH2 SOFT LH"
      0 33 "PERCUSSION LH"
    >
    MAINSEND 1 0
    <FXCHAIN
      WNDRECT 371 397 878 574
      SHOW 0
      LASTSEL 1
      DOCKED 0
      BYPASS 1 0
      <VST "VSTi: ReaSynth (Cockos)" "reasynth.dll" 0 ""
        eXNlcu9e7f4AAAAAAgAAAAEAAAAAAAAAAgAAAAAAAAA4AAAAAAAAAA==
        AAAAAO++rd4N8K3eAAAAAAAAAAAAAAAAAAAAADm0SD59y9s+tbSxOQ==
        AAAAALbz/T5VpCs6AAAAAAAAAAAAAAAAAAA=
      >
      FLOATPOS 0 0 0 0
      FXID {58F55556-9407-4062-A048-6AFCC0B53535}
      WAK 0
      BYPASS 0 0
      <VST "VSTi: RBN Preview (RBN)" "rbprev_vst64_beta.dll" 0 ""
        dnBicu5e7f4AAAAAAgAAAAEAAAAAAAAAAgAAAAAAAAAEAAAAAQAAAA==
        AAAAAAMBqgAAAAAAAAA=
      >
      FLOATPOS 32 32 659 497
      FXID {D7126437-AB1E-4109-A0FA-F2D5D0AC68DC}
      WAK 0
    >
    <ITEM
      POSITION 0.00000000000000
      SNAPOFFS 0.00000000000000
      LENGTH 194.51175836633851
      LOOP 0
      ALLTAKES 0
      COLOR 19150555
      SEL 1
      FADEIN 1 0.000000 0.000000 1 0
      FADEOUT 1 0.000000 0.000000 1 0
      MUTE 0
      IGUID {9FF11F36-E94F-4396-9C0E-8449C916EC21}
      IID 7
      NAME "PART DRUMS"
      VOLPAN 1.000000 0.000000 1.000000 -1.000000
      SOFFS 0.00000000000000 0.00000000000000
      PLAYRATE 1.00000000000000 1 0.00000000000000 -65536
      CHANMODE 0
      GUID {70A79ADF-E70C-430A-913F-E16D0CC85517}
      <SOURCE MIDI
        HASDATA 1 480 QN
        POOLEDEVTS {30BA57AE-3764-449D-B077-E2CC9E88B09B}
        <X 0 0
          /wNQQVJUIERSVU1T
        >
        <X 300 0
          /wFbbWl4IDEgZHJ1bXMwXQ==
        >
        <X 0 0
          /wFbbWl4IDAgZHJ1bXMwXQ==
        >
        <X 60 0
          /wFbbWl4IDIgZHJ1bXMwXQ==
        >
        <X 60 0
          /wFbbWl4IDMgZHJ1bXMwXQ==
        >
        <X 3420 0
          /wFbcGxheV0=
        >
        E 0 90 18 60
        E 0 90 3c 60
        E 0 90 48 60
        E 0 90 54 60
        E 0 90 60 60
        E 60 80 18 00
        E 0 80 3c 00
        E 0 80 48 00
        E 0 80 54 00
        E 0 80 60 00
        E 420 90 18 60
        E 0 90 3c 60
        E 0 90 48 60
        E 0 90 54 60
        E 0 90 60 60
        E 60 80 18 00
        E 0 80 3c 00
        E 0 80 48 00
        E 0 80 54 00
        E 0 80 60 00
        E 420 90 18 60
        E 0 90 3c 60
        E 0 90 48 60
        E 0 90 54 60
        E 0 90 60 60
        E 61 80 18 00
        E 0 80 3c 00
        E 0 80 48 00
        E 0 80 54 00
        E 0 80 60 00
        E 420 90 18 60
        E 0 90 3c 60
        E 0 90 48 60
        E 0 90 54 60
        E 0 90 60 60
        E 60 80 18 00
        E 0 80 3c 00
        E 0 80 48 00
        E 0 80 54 00
        E 0 80 60 00
        E 419 90 18 60
        E 0 90 3c 60
        E 0 90 48 60
        E 0 90 54 60
        E 0 90 60 60
        E 60 80 18 00
        E 0 80 3c 00
        E 0 80 48 00
        E 0 80 54 00
        E 0 80 60 00
        E 420 90 18 60
        E 0 90 3c 60
        E 0 90 48 60
        E 0 90 54 60
        E 0 90 60 60
        E 60 80 18 00
        E 0 80 3c 00
        E 0 80 48 00
        E 0 80 54 00
        E 0 80 60 00
        E 420 90 18 60
        E 0 90 3c 60
        E 0 90 48 60
        E 0 90 54 60
        E 0 90 60 60
        E 61 80 18 00
        E 0 80 3c 00
        E 0 80 48 00
        E 0 80 54 00
        E 0 80 60 00
        E 420 90 18 60
        E 0 90 3c 60
        E 0 90 48 60
        E 0 90 54 60
        E 0 90 60 60
        E 60 80 18 00
        E 0 80 3c 00
        E 0 80 48 00
        E 0 80 54 00
        E 0 80 60 00
        E 179 90 1f 60
        E 0 90 56 60
        E 0 90 62 60
        E 60 80 1f 00
        E 0 80 56 00
        E 0 80 62 00
        E 180 90 18 60
        E 0 90 1f 60
        E 0 90 3e 60
        E 0 90 48 60
        E 0 90 4a 60
        E 0 90 54 60
        E 0 90 56 60
        E 0 90 60 60
        E 0 90 62 60
        E 60 80 18 00
        E 0 80 1f 00
        E 0 80 3e 00
        E 0 80 48 00
        E 0 80 4a 00
        E 0 80 54 00
        E 0 80 56 00
        E 0 80 60 00
        E 0 80 62 00
        E 180 90 1f 60
        E 0 90 56 60
        E 0 90 62 60
        E 60 80 1f 00
        E 0 80 56 00
        E 0 80 62 00
        E 180 90 1a 60
        E 0 90 3d 60
        E 0 90 49 60
        E 0 90 55 60
        E 0 90 61 60
        E 60 80 1a 00
        E 0 80 3d 00
        E 0 80 49 00
        E 0 80 55 00
        E 0 80 61 00
        E 180 90 1f 60
        E 0 90 56 60
        E 0 90 62 60
        E 60 80 1f 00
        E 0 80 56 00
        E 0 80 62 00
        E 180 90 18 60
        E 0 90 1f 60
        E 0 90 3e 60
        E 0 90 48 60
        E 0 90 4a 60
        E 0 90 54 60
        E 0 90 56 60
        E 0 90 60 60
        E 0 90 62 60
        E 60 80 18 00
        E 0 80 1f 00
        E 0 80 3e 00
        E 0 80 48 00
        E 0 80 4a 00
        E 0 80 54 00
        E 0 80 56 00
        E 0 80 60 00
        E 0 80 62 00
        E 180 90 1f 60
        E 0 90 56 60
        E 0 90 62 60
        E 60 80 1f 00
        E 0 80 56 00
        E 0 80 62 00
        E 180 90 1a 60
        E 0 90 3d 60
        E 0 90 49 60
        E 0 90 55 60
        E 0 90 61 60
        E 60 80 1a 00
        E 0 80 3d 00
        E 0 80 49 00
        E 0 80 55 00
        E 0 80 61 00
        E 180 90 1f 60
        E 0 90 56 60
        E 0 90 62 60
        E 60 80 1f 00
        E 0 80 56 00
        E 0 80 62 00
        E 180 90 18 60
        E 0 90 1f 60
        E 0 90 3e 60
        E 0 90 48 60
        E 0 90 4a 60
        E 0 90 54 60
        E 0 90 56 60
        E 0 90 60 60
        E 0 90 62 60
        E 60 80 18 00
        E 0 80 1f 00
        E 0 80 3e 00
        E 0 80 48 00
        E 0 80 4a 00
        E 0 80 54 00
        E 0 80 56 00
        E 0 80 60 00
        E 0 80 62 00
        E 180 90 1f 60
        E 0 90 56 60
        E 0 90 62 60
        E 60 80 1f 00
        E 0 80 56 00
        E 0 80 62 00
        E 180 90 1a 60
        E 0 90 3d 60
        E 0 90 49 60
        E 0 90 55 60
        E 0 90 61 60
        E 60 80 1a 00
        E 0 80 3d 00
        E 0 80 49 00
        E 0 80 55 00
        E 0 80 61 00
        E 180 90 1f 60
        E 0 90 56 60
        E 0 90 62 60
        E 60 80 1f 00
        E 0 80 56 00
        E 0 80 62 00
        E 180 90 18 60
        E 0 90 1f 60
        E 0 90 3e 60
        E 0 90 48 60
        E 0 90 4a 60
        E 0 90 54 60
        E 0 90 56 60
        E 0 90 60 60
        E 0 90 62 60
        E 60 80 18 00
        E 0 80 1f 00
        E 0 80 3e 00
        E 0 80 48 00
        E 0 80 4a 00
        E 0 80 54 00
        E 0 80 56 00
        E 0 80 60 00
        E 0 80 62 00
        E 180 90 1f 60
        E 0 90 56 60
        E 0 90 62 60
        E 60 80 1f 00
        E 0 80 56 00
        E 0 80 62 00
        E 180 90 1a 60
        E 0 90 3d 60
        E 0 90 49 60
        E 0 90 55 60
        E 0 90 61 60
        E 60 80 1a 00
        E 0 80 3d 00
        E 0 80 49 00
        E 0 80 55 00
        E 0 80 61 00
        E 180 90 1f 60
        E 0 90 56 60
        E 0 90 62 60
        E 60 80 1f 00
        E 0 80 56 00
        E 0 80 62 00
        E 180 90 18 60
        E 0 90 1f 60
        E 0 90 3e 60
        E 0 90 48 60
        E 0 90 4a 60
        E 0 90 54 60
        E 0 90 56 60
        E 0 90 60 60
        E 0 90 62 60
        E 60 80 18 00
        E 0 80 1f 00
        E 0 80 3e 00
        E 0 80 48 00
        E 0 80 4a 00
        E 0 80 54 00
        E 0 80 56 00
        E 0 80 60 00
        E 0 80 62 00
        E 180 90 1f 60
        E 0 90 56 60
        E 0 90 62 60
        E 60 80 1f 00
        E 0 80 56 00
        E 0 80 62 00
        E 180 90 1a 60
        E 0 90 3d 60
        E 0 90 49 60
        E 0 90 55 60
        E 0 90 61 60
        E 60 80 1a 00
        E 0 80 3d 00
        E 0 80 49 00
        E 0 80 55 00
        E 0 80 61 00
        E 180 90 1f 60
        E 0 90 56 60
        E 0 90 62 60
        E 60 80 1f 00
        E 0 80 56 00
        E 0 80 62 00
        E 180 90 18 60
        E 0 90 1f 60
        E 0 90 3e 60
        E 0 90 48 60
        E 0 90 4a 60
        E 0 90 54 60
        E 0 90 56 60
        E 0 90 60 60
        E 0 90 62 60
        E 60 80 18 00
        E 0 80 1f 00
        E 0 80 3e 00
        E 0 80 48 00
        E 0 80 4a 00
        E 0 80 54 00
        E 0 80 56 00
        E 0 80 60 00
        E 0 80 62 00
        E 180 90 1f 60
        E 0 90 56 60
        E 0 90 62 60
        E 60 80 1f 00
        E 0 80 56 00
        E 0 80 62 00
        E 180 90 1a 60
        E 0 90 3d 60
        E 0 90 49 60
        E 0 90 55 60
        E 0 90 61 60
        E 60 80 1a 00
        E 0 80 3d 00
        E 0 80 49 00
        E 0 80 55 00
        E 0 80 61 00
        E 180 90 1f 60
        E 0 90 56 60
        E 0 90 62 60
        E 60 80 1f 00
        E 0 80 56 00
        E 0 80 62 00
        E 180 90 18 60
        E 0 90 1f 60
        E 0 90 3e 60
        E 0 90 48 60
        E 0 90 4a 60
        E 0 90 54 60
        E 0 90 56 60
        E 0 90 60 60
        E 0 90 62 60
        E 60 80 18 00
        E 0 80 1f 00
        E 0 80 3e 00
        E 0 80 48 00
        E 0 80 4a 00
        E 0 80 54 00
        E 0 80 56 00
        E 0 80 60 00
        E 0 80 62 00
        E 180 90 1f 60
        E 0 90 56 60
        E 0 90 62 60
        E 60 80 1f 00
        E 0 80 56 00
        E 0 80 62 00
        E 180 90 1a 60
        E 0 90 3d 60
        E 0 90 49 60
        E 0 90 55 60
        E 0 90 61 60
        E 60 80 1a 00
        E 0 80 3d 00
        E 0 80 49 00
        E 0 80 55 00
        E 0 80 61 00
        E 180 90 1f 60
        E 0 90 56 60
        E 0 90 62 60
        E 60 80 1f 00
        E 0 80 56 00
        E 0 80 62 00
        E 180 90 18 60
        E 0 90 1f 60
        E 0 90 3e 60
        E 0 90 48 60
        E 0 90 4a 60
        E 0 90 54 60
        E 0 90 56 60
        E 0 90 60 60
        E 0 90 62 60
        E 60 80 18 00
        E 0 80 1f 00
        E 0 80 3e 00
        E 0 80 48 00
        E 0 80 4a 00
        E 0 80 54 00
        E 0 80 56 00
        E 0 80 60 00
        E 0 80 62 00
        E 180 90 1f 60
        E 0 90 56 60
        E 0 90 62 60
        E 60 80 1f 00
        E 0 80 56 00
        E 0 80 62 00
        E 180 90 1a 60
        E 0 90 3d 60
        E 0 90 49 60
        E 0 90 55 60
        E 0 90 61 60
        E 60 80 1a 00
        E 0 80 3d 00
        E 0 80 49 00
        E 0 80 55 00
        E 0 80 61 00
        E 180 90 1f 60
        E 0 90 56 60
        E 0 90 62 60
        E 60 80 1f 00
        E 0 80 56 00
        E 0 80 62 00
        E 180 90 18 60
        E 0 90 1f 60
        E 0 90 3e 60
        E 0 90 48 60
        E 0 90 4a 60
        E 0 90 54 60
        E 0 90 56 60
        E 0 90 60 60
        E 0 90 62 60
        E 60 80 18 00
        E 0 80 1f 00
        E 0 80 3e 00
        E 0 80 48 00
        E 0 80 4a 00
        E 0 80 54 00
        E 0 80 56 00
        E 0 80 60 00
        E 0 80 62 00
        E 180 90 1f 60
        E 0 90 56 60
        E 0 90 62 60
        E 60 80 1f 00
        E 0 80 56 00
        E 0 80 62 00
        E 180 90 1a 60
        E 0 90 3d 60
        E 0 90 49 60
        E 0 90 55 60
        E 0 90 61 60
        E 60 80 1a 00
        E 0 80 3d 00
        E 0 80 49 00
        E 0 80 55 00
        E 0 80 61 00
        E 180 90 1f 60
        E 0 90 56 60
        E 0 90 62 60
        E 60 80 1f 00
        E 0 80 56 00
        E 0 80 62 00
        E 180 90 18 60
        E 0 90 1f 60
        E 0 90 3e 60
        E 0 90 48 60
        E 0 90 4a 60
        E 0 90 54 60
        E 0 90 56 60
        E 0 90 60 60
        E 0 90 62 60
        E 60 80 18 00
        E 0 80 1f 00
        E 0 80 3e 00
        E 0 80 48 00
        E 0 80 4a 00
        E 0 80 54 00
        E 0 80 56 00
        E 0 80 60 00
        E 0 80 62 00
        E 180 90 1f 60
        E 0 90 56 60
        E 0 90 62 60
        E 60 80 1f 00
        E 0 80 56 00
        E 0 80 62 00
        E 180 90 1a 60
        E 0 90 3d 60
        E 0 90 49 60
        E 0 90 55 60
        E 0 90 61 60
        E 60 80 1a 00
        E 0 80 3d 00
        E 0 80 49 00
        E 0 80 55 00
        E 0 80 61 00
        E 180 90 1f 60
        E 0 90 56 60
        E 0 90 62 60
        E 60 80 1f 00
        E 0 80 56 00
        E 0 80 62 00
        E 180 90 18 60
        E 0 90 1f 60
        E 0 90 3e 60
        E 0 90 48 60
        E 0 90 4a 60
        E 0 90 54 60
        E 0 90 56 60
        E 0 90 60 60
        E 0 90 62 60
        E 60 80 18 00
        E 0 80 1f 00
        E 0 80 3e 00
        E 0 80 48 00
        E 0 80 4a 00
        E 0 80 54 00
        E 0 80 56 00
        E 0 80 60 00
        E 0 80 62 00
        E 180 90 1f 60
        E 0 90 56 60
        E 0 90 62 60
        E 60 80 1f 00
        E 0 80 56 00
        E 0 80 62 00
        E 180 90 1a 60
        E 0 90 3d 60
        E 0 90 49 60
        E 0 90 55 60
        E 0 90 61 60
        E 60 80 1a 00
        E 0 80 3d 00
        E 0 80 49 00
        E 0 80 55 00
        E 0 80 61 00
        E 180 90 1f 60
        E 0 90 56 60
        E 0 90 62 60
        E 60 80 1f 00
        E 0 80 56 00
        E 0 80 62 00
        E 180 90 18 60
        E 0 90 1f 60
        E 0 90 3e 60
        E 0 90 48 60
        E 0 90 4a 60
        E 0 90 54 60
        E 0 90 56 60
        E 0 90 60 60
        E 0 90 62 60
        E 60 80 18 00
        E 0 80 1f 00
        E 0 80 3e 00
        E 0 80 48 00
        E 0 80 4a 00
        E 0 80 54 00
        E 0 80 56 00
        E 0 80 60 00
        E 0 80 62 00
        E 180 90 1f 60
        E 0 90 56 60
        E 0 90 62 60
        E 60 80 1f 00
        E 0 80 56 00
        E 0 80 62 00
        E 180 90 1a 60
        E 0 90 3d 60
        E 0 90 49 60
        E 0 90 55 60
        E 0 90 61 60
        E 60 80 1a 00
        E 0 80 3d 00
        E 0 80 49 00
        E 0 80 55 00
        E 0 80 61 00
        E 180 90 1f 60
        E 0 90 56 60
        E 0 90 62 60
        E 60 80 1f 00
        E 0 80 56 00
        E 0 80 62 00
        E 180 90 18 60
        E 0 90 1f 60
        E 0 90 3e 60
        E 0 90 48 60
        E 0 90 4a 60
        E 0 90 54 60
        E 0 90 56 60
        E 0 90 60 60
        E 0 90 62 60
        E 60 80 18 00
        E 0 80 1f 00
        E 0 80 3e 00
        E 0 80 48 00
        E 0 80 4a 00
        E 0 80 54 00
        E 0 80 56 00
        E 0 80 60 00
        E 0 80 62 00
        E 180 90 1f 60
        E 0 90 56 60
        E 0 90 62 60
        E 60 80 1f 00
        E 0 80 56 00
        E 0 80 62 00
        E 180 90 1a 60
        E 0 90 3d 60
        E 0 90 49 60
        E 0 90 55 60
        E 0 90 61 60
        E 60 80 1a 00
        E 0 80 3d 00
        E 0 80 49 00
        E 0 80 55 00
        E 0 80 61 00
        E 180 90 1f 60
        E 0 90 56 60
        E 0 90 62 60
        E 60 80 1f 00
        E 0 80 56 00
        E 0 80 62 00
        E 180 90 18 60
        E 0 90 1f 60
        E 0 90 3e 60
        E 0 90 48 60
        E 0 90 4a 60
        E 0 90 54 60
        E 0 90 56 60
        E 0 90 60 60
        E 0 90 62 60
        E 60 80 18 00
        E 0 80 1f 00
        E 0 80 3e 00
        E 0 80 48 00
        E 0 80 4a 00
        E 0 80 54 00
        E 0 80 56 00
        E 0 80 60 00
        E 0 80 62 00
        E 180 90 1f 60
        E 0 90 56 60
        E 0 90 62 60
        E 60 80 1f 00
        E 0 80 56 00
        E 0 80 62 00
        E 180 90 1a 60
        E 0 90 3d 60
        E 0 90 49 60
        E 0 90 55 60
        E 0 90 61 60
        E 60 80 1a 00
        E 0 80 3d 00
        E 0 80 49 00
        E 0 80 55 00
        E 0 80 61 00
        E 180 90 1f 60
        E 0 90 56 60
        E 0 90 62 60
        E 60 80 1f 00
        E 0 80 56 00
        E 0 80 62 00
        E 180 90 18 60
        E 0 90 1f 60
        E 0 90 3e 60
        E 0 90 48 60
        E 0 90 4a 60
        E 0 90 54 60
        E 0 90 56 60
        E 0 90 60 60
        E 0 90 62 60
        E 60 80 18 00
        E 0 80 1f 00
        E 0 80 3e 00
        E 0 80 48 00
        E 0 80 4a 00
        E 0 80 54 00
        E 0 80 56 00
        E 0 80 60 00
        E 0 80 62 00
        E 180 90 1f 60
        E 0 90 56 60
        E 0 90 62 60
        E 60 80 1f 00
        E 0 80 56 00
        E 0 80 62 00
        E 180 90 1a 60
        E 0 90 3d 60
        E 0 90 49 60
        E 0 90 55 60
        E 0 90 61 60
        E 60 80 1a 00
        E 0 80 3d 00
        E 0 80 49 00
        E 0 80 55 00
        E 0 80 61 00
        E 180 90 1f 60
        E 0 90 56 60
        E 0 90 62 60
        E 60 80 1f 00
        E 0 80 56 00
        E 0 80 62 00
        E 180 90 18 60
        E 0 90 1f 60
        E 0 90 3e 60
        E 0 90 48 60
        E 0 90 4a 60
        E 0 90 54 60
        E 0 90 56 60
        E 0 90 60 60
        E 0 90 62 60
        E 60 80 18 00
        E 0 80 1f 00
        E 0 80 3e 00
        E 0 80 48 00
        E 0 80 4a 00
        E 0 80 54 00
        E 0 80 56 00
        E 0 80 60 00
        E 0 80 62 00
        E 180 90 1f 60
        E 0 90 56 60
        E 0 90 62 60
        E 60 80 1f 00
        E 0 80 56 00
        E 0 80 62 00
        E 180 90 1a 60
        E 0 90 3d 60
        E 0 90 49 60
        E 0 90 55 60
        E 0 90 61 60
        E 60 80 1a 00
        E 0 80 3d 00
        E 0 80 49 00
        E 0 80 55 00
        E 0 80 61 00
        E 180 90 1f 60
        E 0 90 56 60
        E 0 90 62 60
        E 60 80 1f 00
        E 0 80 56 00
        E 0 80 62 00
        E 180 90 18 60
        E 0 90 1f 60
        E 0 90 3e 60
        E 0 90 48 60
        E 0 90 4a 60
        E 0 90 54 60
        E 0 90 56 60
        E 0 90 60 60
        E 0 90 62 60
        E 60 80 18 00
        E 0 80 1f 00
        E 0 80 3e 00
        E 0 80 48 00
        E 0 80 4a 00
        E 0 80 54 00
        E 0 80 56 00
        E 0 80 60 00
        E 0 80 62 00
        E 180 90 1f 60
        E 0 90 56 60
        E 0 90 62 60
        E 60 80 1f 00
        E 0 80 56 00
        E 0 80 62 00
        E 180 90 1a 60
        E 0 90 3d 60
        E 0 90 49 60
        E 0 90 55 60
        E 0 90 61 60
        E 60 80 1a 00
        E 0 80 3d 00
        E 0 80 49 00
        E 0 80 55 00
        E 0 80 61 00
        E 180 90 1f 60
        E 0 90 56 60
        E 0 90 62 60
        E 60 80 1f 00
        E 0 80 56 00
        E 0 80 62 00
        E 180 90 18 60
        E 0 90 1f 60
        E 0 90 3e 60
        E 0 90 48 60
        E 0 90 4a 60
        E 0 90 54 60
        E 0 90 56 60
        E 0 90 60 60
        E 0 90 62 60
        E 60 80 18 00
        E 0 80 1f 00
        E 0 80 3e 00
        E 0 80 48 00
        E 0 80 4a 00
        E 0 80 54 00
        E 0 80 56 00
        E 0 80 60 00
        E 0 80 62 00
        E 180 90 1f 60
        E 0 90 56 60
        E 0 90 62 60
        E 60 80 1f 00
        E 0 80 56 00
        E 0 80 62 00
        E 180 90 1a 60
        E 0 90 3d 60
        E 0 90 49 60
        E 0 90 55 60
        E 0 90 61 60
        E 60 80 1a 00
        E 0 80 3d 00
        E 0 80 49 00
        E 0 80 55 00
        E 0 80 61 00
        E 180 90 1f 60
        E 0 90 56 60
        E 0 90 62 60
        E 60 80 1f 00
        E 0 80 56 00
        E 0 80 62 00
        E 180 90 18 60
        E 0 90 1f 60
        E 0 90 3e 60
        E 0 90 48 60
        E 0 90 4a 60
        E 0 90 54 60
        E 0 90 56 60
        E 0 90 60 60
        E 0 90 62 60
        E 60 80 18 00
        E 0 80 1f 00
        E 0 80 3e 00
        E 0 80 48 00
        E 0 80 4a 00
        E 0 80 54 00
        E 0 80 56 00
        E 0 80 60 00
        E 0 80 62 00
        E 180 90 1f 60
        E 0 90 56 60
        E 0 90 62 60
        E 60 80 1f 00
        E 0 80 56 00
        E 0 80 62 00
        E 180 90 1a 60
        E 0 90 3d 60
        E 0 90 49 60
        E 0 90 55 60
        E 0 90 61 60
        E 60 80 1a 00
        E 0 80 3d 00
        E 0 80 49 00
        E 0 80 55 00
        E 0 80 61 00
        E 180 90 1f 60
        E 0 90 56 60
        E 0 90 62 60
        E 60 80 1f 00
        E 0 80 56 00
        E 0 80 62 00
        E 180 90 18 60
        E 0 90 1f 60
        E 0 90 3e 60
        E 0 90 48 60
        E 0 90 4a 60
        E 0 90 54 60
        E 0 90 56 60
        E 0 90 60 60
        E 0 90 62 60
        E 60 80 18 00
        E 0 80 1f 00
        E 0 80 3e 00
        E 0 80 48 00
        E 0 80 4a 00
        E 0 80 54 00
        E 0 80 56 00
        E 0 80 60 00
        E 0 80 62 00
        E 180 90 1f 60
        E 0 90 56 60
        E 0 90 62 60
        E 60 80 1f 00
        E 0 80 56 00
        E 0 80 62 00
        E 180 90 1a 60
        E 0 90 3d 60
        E 0 90 49 60
        E 0 90 55 60
        E 0 90 61 60
        E 60 80 1a 00
        E 0 80 3d 00
        E 0 80 49 00
        E 0 80 55 00
        E 0 80 61 00
        E 180 90 1f 60
        E 0 90 56 60
        E 0 90 62 60
        E 60 80 1f 00
        E 0 80 56 00
        E 0 80 62 00
        E 180 90 18 60
        E 0 90 1f 60
        E 0 90 3e 60
        E 0 90 48 60
        E 0 90 4a 60
        E 0 90 54 60
        E 0 90 56 60
        E 0 90 60 60
        E 0 90 62 60
        E 60 80 18 00
        E 0 80 1f 00
        E 0 80 3e 00
        E 0 80 48 00
        E 0 80 4a 00
        E 0 80 54 00
        E 0 80 56 00
        E 0 80 60 00
        E 0 80 62 00
        E 180 90 1f 60
        E 0 90 56 60
        E 0 90 62 60
        E 60 80 1f 00
        E 0 80 56 00
        E 0 80 62 00
        E 180 90 1a 60
        E 0 90 3d 60
        E 0 90 49 60
        E 0 90 55 60
        E 0 90 61 60
        E 60 80 1a 00
        E 0 80 3d 00
        E 0 80 49 00
        E 0 80 55 00
        E 0 80 61 00
        E 180 90 1f 60
        E 0 90 56 60
        E 0 90 62 60
        E 60 80 1f 00
        E 0 80 56 00
        E 0 80 62 00
        E 180 90 18 60
        E 0 90 1f 60
        E 0 90 3e 60
        E 0 90 48 60
        E 0 90 4a 60
        E 0 90 54 60
        E 0 90 56 60
        E 0 90 60 60
        E 0 90 62 60
        E 60 80 18 00
        E 0 80 1f 00
        E 0 80 3e 00
        E 0 80 48 00
        E 0 80 4a 00
        E 0 80 54 00
        E 0 80 56 00
        E 0 80 60 00
        E 0 80 62 00
        E 180 90 1f 60
        E 0 90 56 60
        E 0 90 62 60
        E 60 80 1f 00
        E 0 80 56 00
        E 0 80 62 00
        E 180 90 1a 60
        E 0 90 3d 60
        E 0 90 49 60
        E 0 90 55 60
        E 0 90 61 60
        E 60 80 1a 00
        E 0 80 3d 00
        E 0 80 49 00
        E 0 80 55 00
        E 0 80 61 00
        E 180 90 1f 60
        E 0 90 56 60
        E 0 90 62 60
        E 60 80 1f 00
        E 0 80 56 00
        E 0 80 62 00
        E 180 90 18 60
        E 0 90 1f 60
        E 0 90 3e 60
        E 0 90 48 60
        E 0 90 4a 60
        E 0 90 54 60
        E 0 90 56 60
        E 0 90 60 60
        E 0 90 62 60
        E 60 80 18 00
        E 0 80 1f 00
        E 0 80 3e 00
        E 0 80 48 00
        E 0 80 4a 00
        E 0 80 54 00
        E 0 80 56 00
        E 0 80 60 00
        E 0 80 62 00
        E 180 90 1f 60
        E 0 90 56 60
        E 0 90 62 60
        E 60 80 1f 00
        E 0 80 56 00
        E 0 80 62 00
        E 180 90 1a 60
        E 0 90 3d 60
        E 0 90 49 60
        E 0 90 55 60
        E 0 90 61 60
        E 60 80 1a 00
        E 0 80 3d 00
        E 0 80 49 00
        E 0 80 55 00
        E 0 80 61 00
        E 180 90 1f 60
        E 0 90 56 60
        E 0 90 62 60
        E 60 80 1f 00
        E 0 80 56 00
        E 0 80 62 00
        E 180 90 18 60
        E 0 90 1f 60
        E 0 90 3e 60
        E 0 90 48 60
        E 0 90 4a 60
        E 0 90 54 60
        E 0 90 56 60
        E 0 90 60 60
        E 0 90 62 60
        E 60 80 18 00
        E 0 80 1f 00
        E 0 80 3e 00
        E 0 80 48 00
        E 0 80 4a 00
        E 0 80 54 00
        E 0 80 56 00
        E 0 80 60 00
        E 0 80 62 00
        E 180 90 1f 60
        E 0 90 56 60
        E 0 90 62 60
        E 60 80 1f 00
        E 0 80 56 00
        E 0 80 62 00
        E 180 90 1a 60
        E 0 90 3d 60
        E 0 90 49 60
        E 0 90 55 60
        E 0 90 61 60
        E 60 80 1a 00
        E 0 80 3d 00
        E 0 80 49 00
        E 0 80 55 00
        E 0 80 61 00
        E 180 90 1f 60
        E 0 90 56 60
        E 0 90 62 60
        E 60 80 1f 00
        E 0 80 56 00
        E 0 80 62 00
        E 180 90 18 60
        E 0 90 1f 60
        E 0 90 3e 60
        E 0 90 48 60
        E 0 90 4a 60
        E 0 90 54 60
        E 0 90 56 60
        E 0 90 60 60
        E 0 90 62 60
        E 60 80 18 00
        E 0 80 1f 00
        E 0 80 3e 00
        E 0 80 48 00
        E 0 80 4a 00
        E 0 80 54 00
        E 0 80 56 00
        E 0 80 60 00
        E 0 80 62 00
        E 180 90 1f 60
        E 0 90 56 60
        E 0 90 62 60
        E 60 80 1f 00
        E 0 80 56 00
        E 0 80 62 00
        E 180 90 1a 60
        E 0 90 3d 60
        E 0 90 49 60
        E 0 90 55 60
        E 0 90 61 60
        E 60 80 1a 00
        E 0 80 3d 00
        E 0 80 49 00
        E 0 80 55 00
        E 0 80 61 00
        E 180 90 1f 60
        E 0 90 56 60
        E 0 90 62 60
        E 60 80 1f 00
        E 0 80 56 00
        E 0 80 62 00
        E 180 90 18 60
        E 0 90 1f 60
        E 0 90 3e 60
        E 0 90 48 60
        E 0 90 4a 60
        E 0 90 54 60
        E 0 90 56 60
        E 0 90 60 60
        E 0 90 62 60
        E 60 80 18 00
        E 0 80 1f 00
        E 0 80 3e 00
        E 0 80 48 00
        E 0 80 4a 00
        E 0 80 54 00
        E 0 80 56 00
        E 0 80 60 00
        E 0 80 62 00
        E 180 90 1f 60
        E 0 90 56 60
        E 0 90 62 60
        E 60 80 1f 00
        E 0 80 56 00
        E 0 80 62 00
        E 180 90 1a 60
        E 0 90 3d 60
        E 0 90 49 60
        E 0 90 55 60
        E 0 90 61 60
        E 60 80 1a 00
        E 0 80 3d 00
        E 0 80 49 00
        E 0 80 55 00
        E 0 80 61 00
        E 180 90 1f 60
        E 0 90 56 60
        E 0 90 62 60
        E 60 80 1f 00
        E 0 80 56 00
        E 0 80 62 00
        E 180 90 18 60
        E 0 90 1f 60
        E 0 90 3e 60
        E 0 90 48 60
        E 0 90 4a 60
        E 0 90 54 60
        E 0 90 56 60
        E 0 90 60 60
        E 0 90 62 60
        E 60 80 18 00
        E 0 80 1f 00
        E 0 80 3e 00
        E 0 80 48 00
        E 0 80 4a 00
        E 0 80 54 00
        E 0 80 56 00
        E 0 80 60 00
        E 0 80 62 00
        E 180 90 1f 60
        E 0 90 56 60
        E 0 90 62 60
        E 60 80 1f 00
        E 0 80 56 00
        E 0 80 62 00
        E 180 90 1a 60
        E 0 90 3d 60
        E 0 90 49 60
        E 0 90 55 60
        E 0 90 61 60
        E 60 80 1a 00
        E 0 80 3d 00
        E 0 80 49 00
        E 0 80 55 00
        E 0 80 61 00
        E 180 90 1f 60
        E 0 90 56 60
        E 0 90 62 60
        E 60 80 1f 00
        E 0 80 56 00
        E 0 80 62 00
        E 180 90 18 60
        E 0 90 1f 60
        E 0 90 3e 60
        E 0 90 48 60
        E 0 90 4a 60
        E 0 90 54 60
        E 0 90 56 60
        E 0 90 60 60
        E 0 90 62 60
        E 60 80 18 00
        E 0 80 1f 00
        E 0 80 3e 00
        E 0 80 48 00
        E 0 80 4a 00
        E 0 80 54 00
        E 0 80 56 00
        E 0 80 60 00
        E 0 80 62 00
        E 180 90 1f 60
        E 0 90 56 60
        E 0 90 62 60
        E 60 80 1f 00
        E 0 80 56 00
        E 0 80 62 00
        E 180 90 1a 60
        E 0 90 3d 60
        E 0 90 49 60
        E 0 90 55 60
        E 0 90 61 60
        E 60 80 1a 00
        E 0 80 3d 00
        E 0 80 49 00
        E 0 80 55 00
        E 0 80 61 00
        E 180 90 1f 60
        E 0 90 56 60
        E 0 90 62 60
        E 60 80 1f 00
        E 0 80 56 00
        E 0 80 62 00
        E 160 90 74 60
        E 20 90 18 60
        E 0 90 1f 60
        E 0 90 3e 60
        E 0 90 48 60
        E 0 90 4a 60
        E 0 90 54 60
        E 0 90 56 60
        E 0 90 60 60
        E 0 90 62 60
        E 60 80 18 00
        E 0 80 1f 00
        E 0 80 3e 00
        E 0 80 48 00
        E 0 80 4a 00
        E 0 80 54 00
        E 0 80 56 00
        E 0 80 60 00
        E 0 80 62 00
        E 180 90 1f 60
        E 0 90 56 60
        E 0 90 62 60
        E 60 80 1f 00
        E 0 80 56 00
        E 0 80 62 00
        E 180 90 1a 60
        E 0 90 3d 60
        E 0 90 49 60
        E 0 90 55 60
        E 0 90 61 60
        E 60 80 1a 00
        E 0 80 3d 00
        E 0 80 49 00
        E 0 80 55 00
        E 0 80 61 00
        E 180 90 1f 60
        E 0 90 56 60
        E 0 90 62 60
        E 60 80 1f 00
        E 0 80 56 00
        E 0 80 62 00
        E 180 90 18 60
        E 0 90 1f 60
        E 0 90 3e 60
        E 0 90 48 60
        E 0 90 4a 60
        E 0 90 54 60
        E 0 90 56 60
        E 0 90 60 60
        E 0 90 62 60
        E 60 80 18 00
        E 0 80 1f 00
        E 0 80 3e 00
        E 0 80 48 00
        E 0 80 4a 00
        E 0 80 54 00
        E 0 80 56 00
        E 0 80 60 00
        E 0 80 62 00
        E 180 90 1f 60
        E 0 90 56 60
        E 0 90 62 60
        E 60 80 1f 00
        E 0 80 56 00
        E 0 80 62 00
        E 180 90 1a 60
        E 0 90 3d 60
        E 0 90 49 60
        E 0 90 55 60
        E 0 90 61 60
        E 60 80 1a 00
        E 0 80 3d 00
        E 0 80 49 00
        E 0 80 55 00
        E 0 80 61 00
        E 180 90 1f 60
        E 0 90 56 60
        E 0 90 62 60
        E 60 80 1f 00
        E 0 80 56 00
        E 0 80 62 00
        E 1900 80 74 00
        E 200 90 18 60
        E 0 90 26 60
        E 0 90 40 60
        E 0 90 48 60
        E 0 90 4c 60
        E 0 90 54 60
        E 0 90 58 60
        E 0 90 60 60
        E 0 90 64 60
        E 60 80 18 00
        E 0 80 26 00
        E 0 80 40 00
        E 0 80 48 00
        E 0 80 4c 00
        E 0 80 54 00
        E 0 80 58 00
        E 0 80 60 00
        E 0 80 64 00
        E 180 90 1f 60
        E 0 90 56 60
        E 0 90 62 60
        E 60 80 1f 00
        E 0 80 56 00
        E 0 80 62 00
        E 180 90 18 60
        E 0 90 1a 60
        E 0 90 1f 60
        E 0 90 3d 60
        E 0 90 3e 60
        E 0 90 49 60
        E 0 90 4a 60
        E 0 90 54 60
        E 0 90 55 60
        E 0 90 56 60
        E 0 90 60 60
        E 0 90 61 60
        E 0 90 62 60
        E 60 80 18 00
        E 0 80 1a 00
        E 0 80 1f 00
        E 0 80 3d 00
        E 0 80 3e 00
        E 0 80 49 00
        E 0 80 4a 00
        E 0 80 54 00
        E 0 80 55 00
        E 0 80 56 00
        E 0 80 60 00
        E 0 80 61 00
        E 0 80 62 00
        E 180 90 1f 60
        E 0 90 56 60
        E 0 90 62 60
        E 60 80 1f 00
        E 0 80 56 00
        E 0 80 62 00
        E 60 90 1e 60
        E 0 90 62 60
        E 60 80 1e 00
        E 0 80 62 00
        E 60 90 18 60
        E 0 90 1f 60
        E 0 90 3e 60
        E 0 90 48 60
        E 0 90 4a 60
        E 0 90 54 60
        E 0 90 56 60
        E 0 90 60 60
        E 0 90 62 60
        E 60 80 18 00
        E 0 80 1f 00
        E 0 80 3e 00
        E 0 80 48 00
        E 0 80 4a 00
        E 0 80 54 00
        E 0 80 56 00
        E 0 80 60 00
        E 0 80 62 00
        E 60 90 1e 60
        E 0 90 62 60
        E 60 80 1e 00
        E 0 80 62 00
        E 60 90 1f 60
        E 0 90 56 60
        E 0 90 62 60
        E 60 80 1f 00
        E 0 80 56 00
        E 0 80 62 00
        E 60 90 1e 60
        E 0 90 62 60
        E 60 80 1e 00
        E 0 80 62 00
        E 60 90 18 60
        E 0 90 1b 60
        E 0 90 3d 60
        E 0 90 49 60
        E 0 90 54 60
        E 0 90 55 60
        E 0 90 60 60
        E 0 90 61 60
        E 60 80 18 00
        E 0 80 1b 00
        E 0 80 3d 00
        E 0 80 49 00
        E 0 80 54 00
        E 0 80 55 00
        E 0 80 60 00
        E 0 80 61 00
        E 180 90 1f 60
        E 0 90 56 60
        E 0 90 62 60
        E 60 80 1f 00
        E 0 80 56 00
        E 0 80 62 00
        E 180 90 18 60
        E 0 90 1f 60
        E 0 90 3e 60
        E 0 90 48 60
        E 0 90 4a 60
        E 0 90 54 60
        E 0 90 56 60
        E 0 90 60 60
        E 0 90 62 60
        E 60 80 18 00
        E 0 80 1f 00
        E 0 80 3e 00
        E 0 80 48 00
        E 0 80 4a 00
        E 0 80 54 00
        E 0 80 56 00
        E 0 80 60 00
        E 0 80 62 00
        E 180 90 1f 60
        E 0 90 56 60
        E 0 90 62 60
        E 60 80 1f 00
        E 0 80 56 00
        E 0 80 62 00
        E 180 90 18 60
        E 0 90 1a 60
        E 0 90 3d 60
        E 0 90 49 60
        E 0 90 54 60
        E 0 90 55 60
        E 0 90 60 60
        E 0 90 61 60
        E 60 80 18 00
        E 0 80 1a 00
        E 0 80 3d 00
        E 0 80 49 00
        E 0 80 54 00
        E 0 80 55 00
        E 0 80 60 00
        E 0 80 61 00
        E 180 90 1f 60
        E 0 90 56 60
        E 0 90 62 60
        E 60 80 1f 00
        E 0 80 56 00
        E 0 80 62 00
        E 180 90 18 60
        E 0 90 1f 60
        E 0 90 3e 60
        E 0 90 48 60
        E 0 90 4a 60
        E 0 90 54 60
        E 0 90 56 60
        E 0 90 60 60
        E 0 90 62 60
        E 60 80 18 00
        E 0 80 1f 00
        E 0 80 3e 00
        E 0 80 48 00
        E 0 80 4a 00
        E 0 80 54 00
        E 0 80 56 00
        E 0 80 60 00
        E 0 80 62 00
        E 180 90 1f 60
        E 0 90 56 60
        E 0 90 62 60
        E 60 80 1f 00
        E 0 80 56 00
        E 0 80 62 00
        E 60 90 1e 60
        E 0 90 62 60
        E 60 80 1e 00
        E 0 80 62 00
        E 60 90 18 60
        E 0 90 1b 60
        E 0 90 3d 60
        E 0 90 49 60
        E 0 90 54 60
        E 0 90 55 60
        E 0 90 60 60
        E 0 90 61 60
        E 60 80 18 00
        E 0 80 1b 00
        E 0 80 3d 00
        E 0 80 49 00
        E 0 80 54 00
        E 0 80 55 00
        E 0 80 60 00
        E 0 80 61 00
        E 180 90 1f 60
        E 0 90 56 60
        E 0 90 62 60
        E 60 80 1f 00
        E 0 80 56 00
        E 0 80 62 00
        E 60 90 1e 60
        E 0 90 62 60
        E 60 80 1e 00
        E 0 80 62 00
        E 60 90 18 60
        E 0 90 1f 60
        E 0 90 3e 60
        E 0 90 48 60
        E 0 90 4a 60
        E 0 90 54 60
        E 0 90 56 60
        E 0 90 60 60
        E 0 90 62 60
        E 60 80 18 00
        E 0 80 1f 00
        E 0 80 3e 00
        E 0 80 48 00
        E 0 80 4a 00
        E 0 80 54 00
        E 0 80 56 00
        E 0 80 60 00
        E 0 80 62 00
        E 180 90 1f 60
        E 0 90 56 60
        E 0 90 62 60
        E 60 80 1f 00
        E 0 80 56 00
        E 0 80 62 00
        E 60 90 78 60
        E 0 90 79 60
        E 0 90 7a 60
        E 0 90 7b 60
        E 0 90 7c 60
        E 120 90 18 60
        E 0 90 1a 60
        E 0 90 3d 60
        E 0 90 49 60
        E 0 90 54 60
        E 0 90 55 60
        E 0 90 60 60
        E 0 90 61 60
        E 60 80 18 00
        E 0 80 1a 00
        E 0 80 3d 00
        E 0 80 49 00
        E 0 80 54 00
        E 0 80 55 00
        E 0 80 60 00
        E 0 80 61 00
        E 180 90 1f 60
        E 0 90 56 60
        E 0 90 62 60
        E 60 80 1f 00
        E 0 80 56 00
        E 0 80 62 00
        E 180 90 18 60
        E 0 90 1f 60
        E 0 90 3e 60
        E 0 90 48 60
        E 0 90 4a 60
        E 0 90 54 60
        E 0 90 56 60
        E 0 90 60 60
        E 0 90 62 60
        E 60 80 18 00
        E 0 80 1f 00
        E 0 80 3e 00
        E 0 80 48 00
        E 0 80 4a 00
        E 0 80 54 00
        E 0 80 56 00
        E 0 80 60 00
        E 0 80 62 00
        E 180 90 1f 60
        E 0 90 56 60
        E 0 90 62 60
        E 60 80 1f 00
        E 0 80 56 00
        E 0 80 62 00
        E 180 80 78 00
        E 0 80 79 00
        E 0 80 7a 00
        E 0 80 7b 00
        E 0 80 7c 00
        E 0 90 18 60
        E 0 90 1a 60
        E 0 90 3d 60
        E 0 90 49 60
        E 0 90 54 60
        E 0 90 55 60
        E 0 90 60 60
        E 0 90 61 60
        E 60 80 1a 00
        E 0 80 3d 00
        E 0 80 49 00
        E 0 80 55 00
        E 0 80 60 00
        E 0 80 61 00
        E 1 80 18 00
        E 0 80 54 00
        E 179 90 1f 60
        E 0 90 56 60
        E 0 90 62 60
        E 60 80 1f 00
        E 0 80 56 00
        E 0 80 62 00
        E 180 90 18 60
        E 0 90 1f 60
        E 0 90 3e 60
        E 0 90 48 60
        E 0 90 4a 60
        E 0 90 54 60
        E 0 90 56 60
        E 0 90 60 60
        E 0 90 62 60
        E 60 80 18 00
        E 0 80 1f 00
        E 0 80 3e 00
        E 0 80 48 00
        E 0 80 4a 00
        E 0 80 54 00
        E 0 80 56 00
        E 0 80 60 00
        E 0 80 62 00
        E 180 90 1f 60
        E 0 90 56 60
        E 0 90 62 60
        E 60 80 1f 00
        E 0 80 56 00
        E 0 80 62 00
        E 180 90 18 60
        E 0 90 1a 60
        E 0 90 3d 60
        E 0 90 49 60
        E 0 90 54 60
        E 0 90 55 60
        E 0 90 60 60
        E 0 90 61 60
        E 60 80 18 00
        E 0 80 1a 00
        E 0 80 3d 00
        E 0 80 49 00
        E 0 80 54 00
        E 0 80 55 00
        E 0 80 60 00
        E 0 80 61 00
        E 180 90 1f 60
        E 0 90 56 60
        E 0 90 62 60
        E 60 80 1f 00
        E 0 80 56 00
        E 0 80 62 00
        E 180 90 18 60
        E 0 90 1f 60
        E 0 90 3e 60
        E 0 90 48 60
        E 0 90 4a 60
        E 0 90 54 60
        E 0 90 56 60
        E 0 90 60 60
        E 0 90 62 60
        E 60 80 18 00
        E 0 80 1f 00
        E 0 80 3e 00
        E 0 80 48 00
        E 0 80 4a 00
        E 0 80 54 00
        E 0 80 56 00
        E 0 80 60 00
        E 0 80 62 00
        E 60 90 1a 60
        E 0 90 61 60
        E 60 80 1a 00
        E 0 80 61 00
        E 60 90 1b 60
        E 0 90 55 60
        E 0 90 61 60
        E 60 80 1b 00
        E 0 80 55 00
        E 0 80 61 00
        E 60 90 1a 60
        E 0 90 61 60
        E 60 80 1a 00
        E 0 80 61 00
        E 60 90 18 60
        E 0 90 1b 60
        E 0 90 3d 60
        E 0 90 49 60
        E 0 90 54 60
        E 0 90 55 60
        E 0 90 60 60
        E 0 90 61 60
        E 60 80 18 00
        E 0 80 1b 00
        E 0 80 3d 00
        E 0 80 49 00
        E 0 80 54 00
        E 0 80 55 00
        E 0 80 60 00
        E 0 80 61 00
        E 180 90 1b 60
        E 0 90 55 60
        E 0 90 61 60
        E 60 80 1b 00
        E 0 80 55 00
        E 0 80 61 00
        E 60 90 1a 60
        E 0 90 61 60
        E 60 80 1a 00
        E 0 80 61 00
        E 60 90 18 60
        E 0 90 1f 60
        E 0 90 3e 60
        E 0 90 48 60
        E 0 90 4a 60
        E 0 90 54 60
        E 0 90 56 60
        E 0 90 60 60
        E 0 90 62 60
        E 60 80 18 00
        E 0 80 1f 00
        E 0 80 3e 00
        E 0 80 48 00
        E 0 80 4a 00
        E 0 80 54 00
        E 0 80 56 00
        E 0 80 60 00
        E 0 80 62 00
        E 180 90 1f 60
        E 0 90 56 60
        E 0 90 62 60
        E 60 80 1f 00
        E 0 80 56 00
        E 0 80 62 00
        E 180 90 18 60
        E 0 90 1a 60
        E 0 90 3d 60
        E 0 90 49 60
        E 0 90 54 60
        E 0 90 55 60
        E 0 90 60 60
        E 0 90 61 60
        E 60 80 18 00
        E 0 80 1a 00
        E 0 80 3d 00
        E 0 80 49 00
        E 0 80 54 00
        E 0 80 55 00
        E 0 80 60 00
        E 0 80 61 00
        E 180 90 1f 60
        E 0 90 56 60
        E 0 90 62 60
        E 60 80 1f 00
        E 0 80 56 00
        E 0 80 62 00
        E 180 90 18 60
        E 0 90 1f 60
        E 0 90 3e 60
        E 0 90 48 60
        E 0 90 4a 60
        E 0 90 54 60
        E 0 90 56 60
        E 0 90 60 60
        E 0 90 62 60
        E 60 80 18 00
        E 0 80 1f 00
        E 0 80 3e 00
        E 0 80 48 00
        E 0 80 4a 00
        E 0 80 54 00
        E 0 80 56 00
        E 0 80 60 00
        E 0 80 62 00
        E 180 90 1f 60
        E 0 90 56 60
        E 0 90 62 60
        E 60 80 1f 00
        E 0 80 56 00
        E 0 80 62 00
        E 180 90 18 60
        E 0 90 1a 60
        E 0 90 3d 60
        E 0 90 49 60
        E 0 90 54 60
        E 0 90 55 60
        E 0 90 60 60
        E 0 90 61 60
        E 60 80 1a 00
        E 0 80 3d 00
        E 0 80 49 00
        E 0 80 55 00
        E 0 80 61 00
        E 1 80 18 00
        E 0 80 54 00
        E 0 80 60 00
        E 179 90 1f 60
        E 0 90 56 60
        E 0 90 62 60
        E 60 80 1f 00
        E 0 80 56 00
        E 0 80 62 00
        E 180 90 18 60
        E 0 90 1f 60
        E 0 90 3e 60
        E 0 90 48 60
        E 0 90 4a 60
        E 0 90 54 60
        E 0 90 56 60
        E 0 90 60 60
        E 0 90 62 60
        E 60 80 18 00
        E 0 80 1f 00
        E 0 80 3e 00
        E 0 80 48 00
        E 0 80 4a 00
        E 0 80 54 00
        E 0 80 56 00
        E 0 80 60 00
        E 0 80 62 00
        E 180 90 1f 60
        E 0 90 56 60
        E 0 90 62 60
        E 60 80 1f 00
        E 0 80 56 00
        E 0 80 62 00
        E 180 90 18 60
        E 0 90 1a 60
        E 0 90 3d 60
        E 0 90 49 60
        E 0 90 54 60
        E 0 90 55 60
        E 0 90 60 60
        E 0 90 61 60
        E 60 80 18 00
        E 0 80 1a 00
        E 0 80 3d 00
        E 0 80 49 00
        E 0 80 54 00
        E 0 80 55 00
        E 0 80 60 00
        E 0 80 61 00
        E 180 90 1f 60
        E 0 90 56 60
        E 0 90 62 60
        E 60 80 1f 00
        E 0 80 56 00
        E 0 80 62 00
        E 180 90 18 60
        E 0 90 1f 60
        E 0 90 3e 60
        E 0 90 48 60
        E 0 90 4a 60
        E 0 90 54 60
        E 0 90 56 60
        E 0 90 60 60
        E 0 90 62 60
        E 60 80 18 00
        E 0 80 1f 00
        E 0 80 3e 00
        E 0 80 48 00
        E 0 80 4a 00
        E 0 80 54 00
        E 0 80 56 00
        E 0 80 60 00
        E 0 80 62 00
        E 180 90 1f 60
        E 0 90 56 60
        E 0 90 62 60
        E 60 80 1f 00
        E 0 80 56 00
        E 0 80 62 00
        E 120 90 74 60
        E 60 90 1a 60
        E 0 90 3d 60
        E 0 90 49 60
        E 0 90 55 60
        E 0 90 61 60
        E 60 80 1a 00
        E 0 80 3d 00
        E 0 80 49 00
        E 0 80 55 00
        E 0 80 61 00
        E 180 90 1f 60
        E 0 90 56 60
        E 0 90 62 60
        E 60 80 1f 00
        E 0 80 56 00
        E 0 80 62 00
        E 60 90 1f 60
        E 0 90 62 60
        E 60 80 1f 00
        E 0 80 62 00
        E 60 90 18 60
        E 0 90 1f 60
        E 0 90 3e 60
        E 0 90 48 60
        E 0 90 4a 60
        E 0 90 54 60
        E 0 90 56 60
        E 0 90 60 60
        E 0 90 62 60
        E 60 80 18 00
        E 0 80 1f 00
        E 0 80 3e 00
        E 0 80 48 00
        E 0 80 4a 00
        E 0 80 54 00
        E 0 80 56 00
        E 0 80 60 00
        E 0 80 62 00
        E 180 90 1f 60
        E 0 90 56 60
        E 0 90 62 60
        E 60 80 1f 00
        E 0 80 56 00
        E 0 80 62 00
        E 180 90 18 60
        E 0 90 1a 60
        E 0 90 3d 60
        E 0 90 49 60
        E 0 90 54 60
        E 0 90 55 60
        E 0 90 60 60
        E 0 90 61 60
        E 60 80 18 00
        E 0 80 1a 00
        E 0 80 3d 00
        E 0 80 49 00
        E 0 80 54 00
        E 0 80 55 00
        E 0 80 60 00
        E 0 80 61 00
        E 180 90 1f 60
        E 0 90 56 60
        E 0 90 62 60
        E 60 80 1f 00
        E 0 80 56 00
        E 0 80 62 00
        E 180 90 18 60
        E 0 90 1f 60
        E 0 90 3e 60
        E 0 90 48 60
        E 0 90 4a 60
        E 0 90 54 60
        E 0 90 56 60
        E 0 90 60 60
        E 0 90 62 60
        E 60 80 18 00
        E 0 80 1f 00
        E 0 80 3e 00
        E 0 80 48 00
        E 0 80 4a 00
        E 0 80 54 00
        E 0 80 56 00
        E 0 80 60 00
        E 0 80 62 00
        E 180 90 1f 60
        E 0 90 56 60
        E 0 90 62 60
        E 60 80 1f 00
        E 0 80 56 00
        E 0 80 62 00
        E 180 90 18 60
        E 0 90 1a 60
        E 0 90 3d 60
        E 0 90 49 60
        E 0 90 54 60
        E 0 90 55 60
        E 0 90 60 60
        E 0 90 61 60
        E 60 80 18 00
        E 0 80 1a 00
        E 0 80 3d 00
        E 0 80 49 00
        E 0 80 54 00
        E 0 80 55 00
        E 0 80 60 00
        E 0 80 61 00
        E 180 90 1f 60
        E 0 90 56 60
        E 0 90 62 60
        E 60 80 1f 00
        E 0 80 56 00
        E 0 80 62 00
        E 180 90 18 60
        E 0 90 1f 60
        E 0 90 3e 60
        E 0 90 48 60
        E 0 90 4a 60
        E 0 90 54 60
        E 0 90 56 60
        E 0 90 60 60
        E 0 90 62 60
        E 60 80 18 00
        E 0 80 1f 00
        E 0 80 3e 00
        E 0 80 48 00
        E 0 80 4a 00
        E 0 80 54 00
        E 0 80 56 00
        E 0 80 60 00
        E 0 80 62 00
        E 180 90 1f 60
        E 0 90 56 60
        E 0 90 62 60
        E 60 80 1f 00
        E 0 80 56 00
        E 0 80 62 00
        E 180 90 18 60
        E 0 90 1a 60
        E 0 90 3d 60
        E 0 90 49 60
        E 0 90 54 60
        E 0 90 55 60
        E 0 90 60 60
        E 0 90 61 60
        E 60 80 18 00
        E 0 80 1a 00
        E 0 80 3d 00
        E 0 80 49 00
        E 0 80 54 00
        E 0 80 55 00
        E 0 80 60 00
        E 0 80 61 00
        E 180 90 1f 60
        E 0 90 56 60
        E 0 90 62 60
        E 60 80 1f 00
        E 0 80 56 00
        E 0 80 62 00
        E 180 90 18 60
        E 0 90 1f 60
        E 0 90 3e 60
        E 0 90 48 60
        E 0 90 4a 60
        E 0 90 54 60
        E 0 90 56 60
        E 0 90 60 60
        E 0 90 62 60
        E 60 80 18 00
        E 0 80 1f 00
        E 0 80 3e 00
        E 0 80 48 00
        E 0 80 4a 00
        E 0 80 54 00
        E 0 80 56 00
        E 0 80 60 00
        E 0 80 62 00
        E 180 90 1a 60
        E 0 90 55 60
        E 0 90 61 60
        E 60 80 1a 00
        E 0 80 55 00
        E 0 80 61 00
        E 180 90 18 60
        E 0 90 1a 60
        E 0 90 3d 60
        E 0 90 49 60
        E 0 90 54 60
        E 0 90 55 60
        E 0 90 60 60
        E 0 90 61 60
        E 60 80 18 00
        E 0 80 1a 00
        E 0 80 3d 00
        E 0 80 49 00
        E 0 80 54 00
        E 0 80 55 00
        E 0 80 60 00
        E 0 80 61 00
        E 180 90 1b 60
        E 0 90 55 60
        E 0 90 61 60
        E 60 80 1b 00
        E 0 80 55 00
        E 0 80 61 00
        E 60 90 1a 60
        E 0 90 61 60
        E 60 80 1a 00
        E 0 80 61 00
        E 60 90 18 60
        E 0 90 26 60
        E 0 90 40 60
        E 0 90 48 60
        E 0 90 4c 60
        E 0 90 54 60
        E 0 90 58 60
        E 0 90 60 60
        E 0 90 64 60
        E 60 80 18 00
        E 0 80 26 00
        E 0 80 40 00
        E 0 80 48 00
        E 0 80 4c 00
        E 0 80 54 00
        E 0 80 58 00
        E 0 80 60 00
        E 0 80 64 00
        E 60 80 74 00
        E 120 90 1f 60
        E 0 90 56 60
        E 0 90 62 60
        E 60 80 1f 00
        E 0 80 56 00
        E 0 80 62 00
        E 180 90 18 60
        E 0 90 1a 60
        E 0 90 1f 60
        E 0 90 3d 60
        E 0 90 3e 60
        E 0 90 49 60
        E 0 90 4a 60
        E 0 90 54 60
        E 0 90 55 60
        E 0 90 56 60
        E 0 90 60 60
        E 0 90 61 60
        E 0 90 62 60
        E 60 80 18 00
        E 0 80 1a 00
        E 0 80 1f 00
        E 0 80 3d 00
        E 0 80 3e 00
        E 0 80 49 00
        E 0 80 4a 00
        E 0 80 54 00
        E 0 80 55 00
        E 0 80 56 00
        E 0 80 60 00
        E 0 80 61 00
        E 0 80 62 00
        E 180 90 1f 60
        E 0 90 56 60
        E 0 90 62 60
        E 60 80 1f 00
        E 0 80 56 00
        E 0 80 62 00
        E 180 90 18 60
        E 0 90 1f 60
        E 0 90 3e 60
        E 0 90 48 60
        E 0 90 4a 60
        E 0 90 54 60
        E 0 90 56 60
        E 0 90 60 60
        E 0 90 62 60
        E 60 80 18 00
        E 0 80 1f 00
        E 0 80 3e 00
        E 0 80 48 00
        E 0 80 4a 00
        E 0 80 54 00
        E 0 80 56 00
        E 0 80 60 00
        E 0 80 62 00
        E 180 90 1f 60
        E 0 90 56 60
        E 0 90 62 60
        E 60 80 1f 00
        E 0 80 56 00
        E 0 80 62 00
        E 60 90 1f 60
        E 0 90 62 60
        E 60 80 1f 00
        E 0 80 62 00
        E 60 90 18 60
        E 0 90 1a 60
        E 0 90 3d 60
        E 0 90 49 60
        E 0 90 54 60
        E 0 90 55 60
        E 0 90 60 60
        E 0 90 61 60
        E 60 80 18 00
        E 0 80 1a 00
        E 0 80 3d 00
        E 0 80 49 00
        E 0 80 54 00
        E 0 80 55 00
        E 0 80 60 00
        E 0 80 61 00
        E 120 90 78 60
        E 0 90 79 60
        E 0 90 7a 60
        E 0 90 7b 60
        E 0 90 7c 60
        E 60 90 1f 60
        E 0 90 56 60
        E 0 90 62 60
        E 60 80 1f 00
        E 0 80 56 00
        E 0 80 62 00
        E 180 90 18 60
        E 0 90 1f 60
        E 0 90 3e 60
        E 0 90 48 60
        E 0 90 4a 60
        E 0 90 54 60
        E 0 90 56 60
        E 0 90 60 60
        E 0 90 62 60
        E 60 80 18 00
        E 0 80 1f 00
        E 0 80 3e 00
        E 0 80 48 00
        E 0 80 4a 00
        E 0 80 54 00
        E 0 80 56 00
        E 0 80 60 00
        E 0 80 62 00
        E 180 90 1f 60
        E 0 90 56 60
        E 0 90 62 60
        E 60 80 1f 00
        E 0 80 56 00
        E 0 80 62 00
        E 180 90 18 60
        E 0 90 1a 60
        E 0 90 3d 60
        E 0 90 49 60
        E 0 90 54 60
        E 0 90 55 60
        E 0 90 60 60
        E 0 90 61 60
        E 60 80 18 00
        E 0 80 1a 00
        E 0 80 3d 00
        E 0 80 49 00
        E 0 80 54 00
        E 0 80 55 00
        E 0 80 60 00
        E 0 80 61 00
        E 180 80 78 00
        E 0 80 79 00
        E 0 80 7a 00
        E 0 80 7b 00
        E 0 80 7c 00
        E 0 90 1f 60
        E 0 90 56 60
        E 0 90 62 60
        E 60 80 1f 00
        E 0 80 56 00
        E 0 80 62 00
        E 180 90 18 60
        E 0 90 1f 60
        E 0 90 3e 60
        E 0 90 48 60
        E 0 90 4a 60
        E 0 90 54 60
        E 0 90 56 60
        E 0 90 60 60
        E 0 90 62 60
        E 60 80 18 00
        E 0 80 1f 00
        E 0 80 3e 00
        E 0 80 48 00
        E 0 80 4a 00
        E 0 80 54 00
        E 0 80 56 00
        E 0 80 60 00
        E 0 80 62 00
        E 180 90 1f 60
        E 0 90 56 60
        E 0 90 62 60
        E 60 80 1f 00
        E 0 80 56 00
        E 0 80 62 00
        E 180 90 18 60
        E 0 90 1a 60
        E 0 90 3d 60
        E 0 90 49 60
        E 0 90 54 60
        E 0 90 55 60
        E 0 90 60 60
        E 0 90 61 60
        E 60 80 18 00
        E 0 80 1a 00
        E 0 80 3d 00
        E 0 80 49 00
        E 0 80 54 00
        E 0 80 55 00
        E 0 80 60 00
        E 0 80 61 00
        E 180 90 1f 60
        E 0 90 56 60
        E 0 90 62 60
        E 60 80 1f 00
        E 0 80 56 00
        E 0 80 62 00
        E 60 90 1f 60
        E 0 90 62 60
        E 60 80 1f 00
        E 0 80 62 00
        E 60 90 18 60
        E 0 90 1f 60
        E 0 90 3e 60
        E 0 90 48 60
        E 0 90 4a 60
        E 0 90 54 60
        E 0 90 56 60
        E 0 90 60 60
        E 0 90 62 60
        E 60 80 18 00
        E 0 80 1f 00
        E 0 80 3e 00
        E 0 80 48 00
        E 0 80 4a 00
        E 0 80 54 00
        E 0 80 56 00
        E 0 80 60 00
        E 0 80 62 00
        E 180 90 1f 60
        E 0 90 56 60
        E 0 90 62 60
        E 60 80 1f 00
        E 0 80 56 00
        E 0 80 62 00
        E 180 90 18 60
        E 0 90 1a 60
        E 0 90 3d 60
        E 0 90 49 60
        E 0 90 54 60
        E 0 90 55 60
        E 0 90 60 60
        E 0 90 61 60
        E 60 80 18 00
        E 0 80 1a 00
        E 0 80 3d 00
        E 0 80 49 00
        E 0 80 54 00
        E 0 80 55 00
        E 0 80 60 00
        E 0 80 61 00
        E 180 90 1f 60
        E 0 90 56 60
        E 0 90 62 60
        E 60 80 1f 00
        E 0 80 56 00
        E 0 80 62 00
        E 180 90 18 60
        E 0 90 1f 60
        E 0 90 3e 60
        E 0 90 48 60
        E 0 90 4a 60
        E 0 90 54 60
        E 0 90 56 60
        E 0 90 60 60
        E 0 90 62 60
        E 60 80 18 00
        E 0 80 1f 00
        E 0 80 3e 00
        E 0 80 48 00
        E 0 80 4a 00
        E 0 80 54 00
        E 0 80 56 00
        E 0 80 60 00
        E 0 80 62 00
        E 180 90 1f 60
        E 0 90 56 60
        E 0 90 62 60
        E 60 80 1f 00
        E 0 80 56 00
        E 0 80 62 00
        E 180 90 18 60
        E 0 90 1a 60
        E 0 90 3d 60
        E 0 90 49 60
        E 0 90 54 60
        E 0 90 55 60
        E 0 90 60 60
        E 0 90 61 60
        E 60 80 18 00
        E 0 80 1a 00
        E 0 80 3d 00
        E 0 80 49 00
        E 0 80 54 00
        E 0 80 55 00
        E 0 80 60 00
        E 0 80 61 00
        E 180 90 1f 60
        E 0 90 56 60
        E 0 90 62 60
        E 60 80 1f 00
        E 0 80 56 00
        E 0 80 62 00
        E 180 90 18 60
        E 0 90 1f 60
        E 0 90 3e 60
        E 0 90 48 60
        E 0 90 4a 60
        E 0 90 54 60
        E 0 90 56 60
        E 0 90 60 60
        E 0 90 62 60
        E 60 80 18 00
        E 0 80 1f 00
        E 0 80 3e 00
        E 0 80 48 00
        E 0 80 4a 00
        E 0 80 54 00
        E 0 80 56 00
        E 0 80 60 00
        E 0 80 62 00
        E 180 90 1f 60
        E 0 90 56 60
        E 0 90 62 60
        E 60 80 1f 00
        E 0 80 56 00
        E 0 80 62 00
        E 180 90 18 60
        E 0 90 1a 60
        E 0 90 3d 60
        E 0 90 49 60
        E 0 90 54 60
        E 0 90 55 60
        E 0 90 60 60
        E 0 90 61 60
        E 60 80 18 00
        E 0 80 1a 00
        E 0 80 3d 00
        E 0 80 49 00
        E 0 80 54 00
        E 0 80 55 00
        E 0 80 60 00
        E 0 80 61 00
        E 180 90 1f 60
        E 0 90 56 60
        E 0 90 62 60
        E 60 80 1f 00
        E 0 80 56 00
        E 0 80 62 00
        E 180 90 18 60
        E 0 90 1f 60
        E 0 90 3e 60
        E 0 90 48 60
        E 0 90 4a 60
        E 0 90 54 60
        E 0 90 56 60
        E 0 90 60 60
        E 0 90 62 60
        E 60 80 18 00
        E 0 80 1f 00
        E 0 80 3e 00
        E 0 80 48 00
        E 0 80 4a 00
        E 0 80 54 00
        E 0 80 56 00
        E 0 80 60 00
        E 0 80 62 00
        E 60 90 1a 60
        E 0 90 61 60
        E 60 80 1a 00
        E 0 80 61 00
        E 60 90 1b 60
        E 0 90 55 60
        E 0 90 61 60
        E 60 80 1b 00
        E 0 80 55 00
        E 0 80 61 00
        E 60 90 1a 60
        E 0 90 61 60
        E 60 80 1a 00
        E 0 80 61 00
        E 60 90 18 60
        E 0 90 1b 60
        E 0 90 3d 60
        E 0 90 49 60
        E 0 90 54 60
        E 0 90 55 60
        E 0 90 60 60
        E 0 90 61 60
        E 60 80 18 00
        E 0 80 1b 00
        E 0 80 3d 00
        E 0 80 49 00
        E 0 80 54 00
        E 0 80 55 00
        E 0 80 60 00
        E 0 80 61 00
        E 180 90 1b 60
        E 0 90 55 60
        E 0 90 61 60
        E 60 80 1b 00
        E 0 80 55 00
        E 0 80 61 00
        E 60 90 1a 60
        E 0 90 61 60
        E 60 80 1a 00
        E 0 80 61 00
        E 60 90 18 60
        E 0 90 1f 60
        E 0 90 3e 60
        E 0 90 48 60
        E 0 90 4a 60
        E 0 90 54 60
        E 0 90 56 60
        E 0 90 60 60
        E 0 90 62 60
        E 60 80 18 00
        E 0 80 1f 00
        E 0 80 3e 00
        E 0 80 48 00
        E 0 80 4a 00
        E 0 80 54 00
        E 0 80 56 00
        E 0 80 60 00
        E 0 80 62 00
        E 180 90 1f 60
        E 0 90 56 60
        E 0 90 62 60
        E 60 80 1f 00
        E 0 80 56 00
        E 0 80 62 00
        E 120 90 78 60
        E 0 90 79 60
        E 0 90 7a 60
        E 0 90 7b 60
        E 0 90 7c 60
        E 60 90 18 60
        E 0 90 1a 60
        E 0 90 3d 60
        E 0 90 49 60
        E 0 90 54 60
        E 0 90 55 60
        E 0 90 60 60
        E 0 90 61 60
        E 60 80 18 00
        E 0 80 1a 00
        E 0 80 3d 00
        E 0 80 49 00
        E 0 80 54 00
        E 0 80 55 00
        E 0 80 60 00
        E 0 80 61 00
        E 180 90 1f 60
        E 0 90 56 60
        E 0 90 62 60
        E 60 80 1f 00
        E 0 80 56 00
        E 0 80 62 00
        E 180 90 18 60
        E 0 90 1f 60
        E 0 90 3e 60
        E 0 90 48 60
        E 0 90 4a 60
        E 0 90 54 60
        E 0 90 56 60
        E 0 90 60 60
        E 0 90 62 60
        E 60 80 18 00
        E 0 80 1f 00
        E 0 80 3e 00
        E 0 80 48 00
        E 0 80 4a 00
        E 0 80 54 00
        E 0 80 56 00
        E 0 80 60 00
        E 0 80 62 00
        E 180 90 1f 60
        E 0 90 56 60
        E 0 90 62 60
        E 60 80 1f 00
        E 0 80 56 00
        E 0 80 62 00
        E 180 80 78 00
        E 0 80 79 00
        E 0 80 7a 00
        E 0 80 7b 00
        E 0 80 7c 00
        E 0 90 18 60
        E 0 90 1a 60
        E 0 90 3d 60
        E 0 90 49 60
        E 0 90 54 60
        E 0 90 55 60
        E 0 90 60 60
        E 0 90 61 60
        E 60 80 18 00
        E 0 80 1a 00
        E 0 80 3d 00
        E 0 80 49 00
        E 0 80 54 00
        E 0 80 55 00
        E 0 80 60 00
        E 0 80 61 00
        E 180 90 1f 60
        E 0 90 56 60
        E 0 90 62 60
        E 60 80 1f 00
        E 0 80 56 00
        E 0 80 62 00
        E 180 90 18 60
        E 0 90 1f 60
        E 0 90 3e 60
        E 0 90 48 60
        E 0 90 4a 60
        E 0 90 54 60
        E 0 90 56 60
        E 0 90 60 60
        E 0 90 62 60
        E 60 80 18 00
        E 0 80 1f 00
        E 0 80 3e 00
        E 0 80 48 00
        E 0 80 4a 00
        E 0 80 54 00
        E 0 80 56 00
        E 0 80 60 00
        E 0 80 62 00
        E 180 90 1f 60
        E 0 90 56 60
        E 0 90 62 60
        E 60 80 1f 00
        E 0 80 56 00
        E 0 80 62 00
        E 180 90 18 60
        E 0 90 1a 60
        E 0 90 3d 60
        E 0 90 49 60
        E 0 90 54 60
        E 0 90 55 60
        E 0 90 60 60
        E 0 90 61 60
        E 60 80 18 00
        E 0 80 1a 00
        E 0 80 3d 00
        E 0 80 49 00
        E 0 80 54 00
        E 0 80 55 00
        E 0 80 60 00
        E 0 80 61 00
        E 180 90 1f 60
        E 0 90 56 60
        E 0 90 62 60
        E 60 80 1f 00
        E 0 80 56 00
        E 0 80 62 00
        E 180 90 18 60
        E 0 90 1f 60
        E 0 90 3e 60
        E 0 90 48 60
        E 0 90 4a 60
        E 0 90 54 60
        E 0 90 56 60
        E 0 90 60 60
        E 0 90 62 60
        E 60 80 18 00
        E 0 80 1f 00
        E 0 80 3e 00
        E 0 80 48 00
        E 0 80 4a 00
        E 0 80 54 00
        E 0 80 56 00
        E 0 80 60 00
        E 0 80 62 00
        E 180 90 1f 60
        E 0 90 56 60
        E 0 90 62 60
        E 60 80 1f 00
        E 0 80 56 00
        E 0 80 62 00
        E 180 90 18 60
        E 0 90 1a 60
        E 0 90 3d 60
        E 0 90 49 60
        E 0 90 54 60
        E 0 90 55 60
        E 0 90 60 60
        E 0 90 61 60
        E 60 80 18 00
        E 0 80 1a 00
        E 0 80 3d 00
        E 0 80 49 00
        E 0 80 54 00
        E 0 80 55 00
        E 0 80 60 00
        E 0 80 61 00
        E 180 90 1f 60
        E 0 90 56 60
        E 0 90 62 60
        E 60 80 1f 00
        E 0 80 56 00
        E 0 80 62 00
        E 60 90 1f 60
        E 0 90 62 60
        E 60 80 1f 00
        E 0 80 62 00
        E 60 90 18 60
        E 0 90 1f 60
        E 0 90 3e 60
        E 0 90 48 60
        E 0 90 4a 60
        E 0 90 54 60
        E 0 90 56 60
        E 0 90 60 60
        E 0 90 62 60
        E 60 80 18 00
        E 0 80 1f 00
        E 0 80 3e 00
        E 0 80 48 00
        E 0 80 4a 00
        E 0 80 54 00
        E 0 80 56 00
        E 0 80 60 00
        E 0 80 62 00
        E 180 90 1f 60
        E 0 90 56 60
        E 0 90 62 60
        E 60 80 1f 00
        E 0 80 56 00
        E 0 80 62 00
        E 180 90 18 60
        E 0 90 1a 60
        E 0 90 3d 60
        E 0 90 49 60
        E 0 90 54 60
        E 0 90 55 60
        E 0 90 60 60
        E 0 90 61 60
        E 60 80 18 00
        E 0 80 1a 00
        E 0 80 3d 00
        E 0 80 49 00
        E 0 80 54 00
        E 0 80 55 00
        E 0 80 60 00
        E 0 80 61 00
        E 180 90 1f 60
        E 0 90 56 60
        E 0 90 62 60
        E 60 80 1f 00
        E 0 80 56 00
        E 0 80 62 00
        E 180 90 18 60
        E 0 90 1f 60
        E 0 90 3e 60
        E 0 90 48 60
        E 0 90 4a 60
        E 0 90 54 60
        E 0 90 56 60
        E 0 90 60 60
        E 0 90 62 60
        E 60 80 18 00
        E 0 80 1f 00
        E 0 80 3e 00
        E 0 80 48 00
        E 0 80 4a 00
        E 0 80 54 00
        E 0 80 56 00
        E 0 80 60 00
        E 0 80 62 00
        E 180 90 1f 60
        E 0 90 56 60
        E 0 90 62 60
        E 60 80 1f 00
        E 0 80 56 00
        E 0 80 62 00
        E 180 90 18 60
        E 0 90 1a 60
        E 0 90 3d 60
        E 0 90 49 60
        E 0 90 54 60
        E 0 90 55 60
        E 0 90 60 60
        E 0 90 61 60
        E 60 80 18 00
        E 0 80 1a 00
        E 0 80 3d 00
        E 0 80 49 00
        E 0 80 54 00
        E 0 80 55 00
        E 0 80 60 00
        E 0 80 61 00
        E 180 90 1f 60
        E 0 90 56 60
        E 0 90 62 60
        E 60 80 1f 00
        E 0 80 56 00
        E 0 80 62 00
        E 180 90 18 60
        E 0 90 1f 60
        E 0 90 3e 60
        E 0 90 48 60
        E 0 90 4a 60
        E 0 90 54 60
        E 0 90 56 60
        E 0 90 60 60
        E 0 90 62 60
        E 60 80 18 00
        E 0 80 1f 00
        E 0 80 3e 00
        E 0 80 48 00
        E 0 80 4a 00
        E 0 80 54 00
        E 0 80 56 00
        E 0 80 60 00
        E 0 80 62 00
        E 180 90 1f 60
        E 0 90 56 60
        E 0 90 62 60
        E 60 80 1f 00
        E 0 80 56 00
        E 0 80 62 00
        E 180 90 18 60
        E 0 90 1a 60
        E 0 90 3d 60
        E 0 90 49 60
        E 0 90 54 60
        E 0 90 55 60
        E 0 90 60 60
        E 0 90 61 60
        E 60 80 18 00
        E 0 80 1a 00
        E 0 80 3d 00
        E 0 80 49 00
        E 0 80 54 00
        E 0 80 55 00
        E 0 80 60 00
        E 0 80 61 00
        E 180 90 1f 60
        E 0 90 56 60
        E 0 90 62 60
        E 60 80 1f 00
        E 0 80 56 00
        E 0 80 62 00
        E 180 90 18 60
        E 0 90 1f 60
        E 0 90 3e 60
        E 0 90 48 60
        E 0 90 4a 60
        E 0 90 54 60
        E 0 90 56 60
        E 0 90 60 60
        E 0 90 62 60
        E 60 80 18 00
        E 0 80 1f 00
        E 0 80 3e 00
        E 0 80 48 00
        E 0 80 4a 00
        E 0 80 54 00
        E 0 80 56 00
        E 0 80 60 00
        E 0 80 62 00
        E 180 90 1a 60
        E 0 90 55 60
        E 0 90 61 60
        E 60 80 1a 00
        E 0 80 55 00
        E 0 80 61 00
        E 180 90 18 60
        E 0 90 1a 60
        E 0 90 3d 60
        E 0 90 49 60
        E 0 90 54 60
        E 0 90 55 60
        E 0 90 60 60
        E 0 90 61 60
        E 60 80 18 00
        E 0 80 1a 00
        E 0 80 3d 00
        E 0 80 49 00
        E 0 80 54 00
        E 0 80 55 00
        E 0 80 60 00
        E 0 80 61 00
        E 180 90 1b 60
        E 0 90 55 60
        E 0 90 61 60
        E 60 80 1b 00
        E 0 80 55 00
        E 0 80 61 00
        E 60 90 1a 60
        E 0 90 61 60
        E 60 80 1a 00
        E 0 80 61 00
        E 60 90 18 60
        E 0 90 26 60
        E 0 90 40 60
        E 0 90 48 60
        E 0 90 4c 60
        E 0 90 54 60
        E 0 90 58 60
        E 0 90 60 60
        E 0 90 64 60
        E 60 80 18 00
        E 0 80 26 00
        E 0 80 40 00
        E 0 80 48 00
        E 0 80 4c 00
        E 0 80 54 00
        E 0 80 58 00
        E 0 80 60 00
        E 0 80 64 00
        E 180 90 1f 60
        E 0 90 56 60
        E 0 90 62 60
        E 60 80 1f 00
        E 0 80 56 00
        E 0 80 62 00
        E 180 90 18 60
        E 0 90 1a 60
        E 0 90 1f 60
        E 0 90 3d 60
        E 0 90 3e 60
        E 0 90 49 60
        E 0 90 4a 60
        E 0 90 54 60
        E 0 90 55 60
        E 0 90 56 60
        E 0 90 60 60
        E 0 90 61 60
        E 0 90 62 60
        E 60 80 18 00
        E 0 80 1a 00
        E 0 80 1f 00
        E 0 80 3d 00
        E 0 80 3e 00
        E 0 80 49 00
        E 0 80 4a 00
        E 0 80 54 00
        E 0 80 55 00
        E 0 80 56 00
        E 0 80 60 00
        E 0 80 61 00
        E 0 80 62 00
        E 180 90 1f 60
        E 0 90 56 60
        E 0 90 62 60
        E 60 80 1f 00
        E 0 80 56 00
        E 0 80 62 00
        E 180 90 18 60
        E 0 90 1f 60
        E 0 90 3e 60
        E 0 90 48 60
        E 0 90 4a 60
        E 0 90 54 60
        E 0 90 56 60
        E 0 90 60 60
        E 0 90 62 60
        E 60 80 18 00
        E 0 80 1f 00
        E 0 80 3e 00
        E 0 80 48 00
        E 0 80 4a 00
        E 0 80 54 00
        E 0 80 56 00
        E 0 80 60 00
        E 0 80 62 00
        E 180 90 1f 60
        E 0 90 56 60
        E 0 90 62 60
        E 60 80 1f 00
        E 0 80 56 00
        E 0 80 62 00
        E 120 90 78 60
        E 0 90 79 60
        E 0 90 7a 60
        E 0 90 7b 60
        E 0 90 7c 60
        E 60 90 18 60
        E 0 90 1a 60
        E 0 90 3d 60
        E 0 90 49 60
        E 0 90 54 60
        E 0 90 55 60
        E 0 90 60 60
        E 0 90 61 60
        E 60 80 18 00
        E 0 80 1a 00
        E 0 80 3d 00
        E 0 80 49 00
        E 0 80 54 00
        E 0 80 55 00
        E 0 80 60 00
        E 0 80 61 00
        E 180 90 1f 60
        E 0 90 56 60
        E 0 90 62 60
        E 60 80 1f 00
        E 0 80 56 00
        E 0 80 62 00
        E 180 90 18 60
        E 0 90 1f 60
        E 0 90 3e 60
        E 0 90 48 60
        E 0 90 4a 60
        E 0 90 54 60
        E 0 90 56 60
        E 0 90 60 60
        E 0 90 62 60
        E 60 80 18 00
        E 0 80 1f 00
        E 0 80 3e 00
        E 0 80 48 00
        E 0 80 4a 00
        E 0 80 54 00
        E 0 80 56 00
        E 0 80 60 00
        E 0 80 62 00
        E 180 90 1f 60
        E 0 90 56 60
        E 0 90 62 60
        E 60 80 1f 00
        E 0 80 56 00
        E 0 80 62 00
        E 180 80 78 00
        E 0 80 79 00
        E 0 80 7a 00
        E 0 80 7b 00
        E 0 80 7c 00
        E 0 90 18 60
        E 0 90 1a 60
        E 0 90 3d 60
        E 0 90 49 60
        E 0 90 54 60
        E 0 90 55 60
        E 0 90 60 60
        E 0 90 61 60
        E 60 80 18 00
        E 0 80 1a 00
        E 0 80 3d 00
        E 0 80 49 00
        E 0 80 54 00
        E 0 80 55 00
        E 0 80 60 00
        E 0 80 61 00
        E 180 90 1f 60
        E 0 90 56 60
        E 0 90 62 60
        E 60 80 1f 00
        E 0 80 56 00
        E 0 80 62 00
        E 180 90 18 60
        E 0 90 1f 60
        E 0 90 3e 60
        E 0 90 48 60
        E 0 90 4a 60
        E 0 90 54 60
        E 0 90 56 60
        E 0 90 60 60
        E 0 90 62 60
        E 60 80 18 00
        E 0 80 1f 00
        E 0 80 3e 00
        E 0 80 48 00
        E 0 80 4a 00
        E 0 80 54 00
        E 0 80 56 00
        E 0 80 60 00
        E 0 80 62 00
        E 180 90 1f 60
        E 0 90 56 60
        E 0 90 62 60
        E 60 80 1f 00
        E 0 80 56 00
        E 0 80 62 00
        E 180 90 18 60
        E 0 90 1a 60
        E 0 90 3d 60
        E 0 90 49 60
        E 0 90 54 60
        E 0 90 55 60
        E 0 90 60 60
        E 0 90 61 60
        E 60 80 18 00
        E 0 80 1a 00
        E 0 80 3d 00
        E 0 80 49 00
        E 0 80 54 00
        E 0 80 55 00
        E 0 80 60 00
        E 0 80 61 00
        E 120 90 74 60
        E 60 90 1f 60
        E 0 90 56 60
        E 0 90 62 60
        E 60 80 1f 00
        E 0 80 56 00
        E 0 80 62 00
        E 60 90 1f 60
        E 0 90 62 60
        E 60 80 1f 00
        E 0 80 62 00
        E 60 90 18 60
        E 0 90 1f 60
        E 0 90 3e 60
        E 0 90 48 60
        E 0 90 4a 60
        E 0 90 54 60
        E 0 90 56 60
        E 0 90 60 60
        E 0 90 62 60
        E 60 80 18 00
        E 0 80 1f 00
        E 0 80 3e 00
        E 0 80 48 00
        E 0 80 4a 00
        E 0 80 54 00
        E 0 80 56 00
        E 0 80 60 00
        E 0 80 62 00
        E 180 90 1f 60
        E 0 90 56 60
        E 0 90 62 60
        E 60 80 1f 00
        E 0 80 56 00
        E 0 80 62 00
        E 180 90 18 60
        E 0 90 1a 60
        E 0 90 3d 60
        E 0 90 49 60
        E 0 90 54 60
        E 0 90 55 60
        E 0 90 60 60
        E 0 90 61 60
        E 60 80 18 00
        E 0 80 1a 00
        E 0 80 3d 00
        E 0 80 49 00
        E 0 80 54 00
        E 0 80 55 00
        E 0 80 60 00
        E 0 80 61 00
        E 180 90 1f 60
        E 0 90 56 60
        E 0 90 62 60
        E 60 80 1f 00
        E 0 80 56 00
        E 0 80 62 00
        E 180 90 18 60
        E 0 90 1f 60
        E 0 90 3e 60
        E 0 90 48 60
        E 0 90 4a 60
        E 0 90 54 60
        E 0 90 56 60
        E 0 90 60 60
        E 0 90 62 60
        E 60 80 18 00
        E 0 80 1f 00
        E 0 80 3e 00
        E 0 80 48 00
        E 0 80 4a 00
        E 0 80 54 00
        E 0 80 56 00
        E 0 80 60 00
        E 0 80 62 00
        E 180 90 1f 60
        E 0 90 56 60
        E 0 90 62 60
        E 60 80 1f 00
        E 0 80 56 00
        E 0 80 62 00
        E 180 90 18 60
        E 0 90 1a 60
        E 0 90 3d 60
        E 0 90 49 60
        E 0 90 54 60
        E 0 90 55 60
        E 0 90 60 60
        E 0 90 61 60
        E 60 80 18 00
        E 0 80 1a 00
        E 0 80 3d 00
        E 0 80 49 00
        E 0 80 54 00
        E 0 80 55 00
        E 0 80 60 00
        E 0 80 61 00
        E 180 90 1f 60
        E 0 90 56 60
        E 0 90 62 60
        E 60 80 1f 00
        E 0 80 56 00
        E 0 80 62 00
        E 180 90 18 60
        E 0 90 1f 60
        E 0 90 3e 60
        E 0 90 48 60
        E 0 90 4a 60
        E 0 90 54 60
        E 0 90 56 60
        E 0 90 60 60
        E 0 90 62 60
        E 60 80 18 00
        E 0 80 1f 00
        E 0 80 3e 00
        E 0 80 48 00
        E 0 80 4a 00
        E 0 80 54 00
        E 0 80 56 00
        E 0 80 60 00
        E 0 80 62 00
        E 180 90 1f 60
        E 0 90 56 60
        E 0 90 62 60
        E 60 80 1f 00
        E 0 80 56 00
        E 0 80 62 00
        E 180 90 18 60
        E 0 90 1a 60
        E 0 90 3d 60
        E 0 90 49 60
        E 0 90 54 60
        E 0 90 55 60
        E 0 90 60 60
        E 0 90 61 60
        E 60 80 18 00
        E 0 80 1a 00
        E 0 80 3d 00
        E 0 80 49 00
        E 0 80 54 00
        E 0 80 55 00
        E 0 80 60 00
        E 0 80 61 00
        E 180 90 1f 60
        E 0 90 56 60
        E 0 90 62 60
        E 60 80 1f 00
        E 0 80 56 00
        E 0 80 62 00
        E 180 90 18 60
        E 0 90 1f 60
        E 0 90 3e 60
        E 0 90 48 60
        E 0 90 4a 60
        E 0 90 54 60
        E 0 90 56 60
        E 0 90 60 60
        E 0 90 62 60
        E 60 80 18 00
        E 0 80 1f 00
        E 0 80 3e 00
        E 0 80 48 00
        E 0 80 4a 00
        E 0 80 54 00
        E 0 80 56 00
        E 0 80 60 00
        E 0 80 62 00
        E 180 90 1f 60
        E 0 90 56 60
        E 0 90 62 60
        E 60 80 1f 00
        E 0 80 56 00
        E 0 80 62 00
        E 180 90 18 60
        E 0 90 1a 60
        E 0 90 3d 60
        E 0 90 49 60
        E 0 90 54 60
        E 0 90 55 60
        E 0 90 60 60
        E 0 90 61 60
        E 60 80 18 00
        E 0 80 1a 00
        E 0 80 3d 00
        E 0 80 49 00
        E 0 80 54 00
        E 0 80 55 00
        E 0 80 60 00
        E 0 80 61 00
        E 180 90 1f 60
        E 0 90 56 60
        E 0 90 62 60
        E 60 80 1f 00
        E 0 80 56 00
        E 0 80 62 00
        E 60 90 1f 60
        E 0 90 62 60
        E 60 80 1f 00
        E 0 80 62 00
        E 60 90 18 60
        E 0 90 1f 60
        E 0 90 3e 60
        E 0 90 48 60
        E 0 90 4a 60
        E 0 90 54 60
        E 0 90 56 60
        E 0 90 60 60
        E 0 90 62 60
        E 60 80 18 00
        E 0 80 1f 00
        E 0 80 3e 00
        E 0 80 48 00
        E 0 80 4a 00
        E 0 80 54 00
        E 0 80 56 00
        E 0 80 60 00
        E 0 80 62 00
        E 180 90 1f 60
        E 0 90 56 60
        E 0 90 62 60
        E 60 80 1f 00
        E 0 80 56 00
        E 0 80 62 00
        E 60 80 74 00
        E 120 90 18 60
        E 0 90 1a 60
        E 0 90 3d 60
        E 0 90 49 60
        E 0 90 54 60
        E 0 90 55 60
        E 0 90 60 60
        E 0 90 61 60
        E 60 80 18 00
        E 0 80 1a 00
        E 0 80 3d 00
        E 0 80 49 00
        E 0 80 54 00
        E 0 80 55 00
        E 0 80 60 00
        E 0 80 61 00
        E 180 90 1f 60
        E 0 90 56 60
        E 0 90 62 60
        E 60 80 1f 00
        E 0 80 56 00
        E 0 80 62 00
        E 180 90 18 60
        E 0 90 1f 60
        E 0 90 3e 60
        E 0 90 48 60
        E 0 90 4a 60
        E 0 90 54 60
        E 0 90 56 60
        E 0 90 60 60
        E 0 90 62 60
        E 60 80 18 00
        E 0 80 1f 00
        E 0 80 3e 00
        E 0 80 48 00
        E 0 80 4a 00
        E 0 80 54 00
        E 0 80 56 00
        E 0 80 60 00
        E 0 80 62 00
        E 180 90 1f 60
        E 0 90 56 60
        E 0 90 62 60
        E 60 80 1f 00
        E 0 80 56 00
        E 0 80 62 00
        E 180 90 18 60
        E 0 90 1a 60
        E 0 90 3d 60
        E 0 90 49 60
        E 0 90 54 60
        E 0 90 55 60
        E 0 90 60 60
        E 0 90 61 60
        E 60 80 18 00
        E 0 80 1a 00
        E 0 80 3d 00
        E 0 80 49 00
        E 0 80 54 00
        E 0 80 55 00
        E 0 80 60 00
        E 0 80 61 00
        E 180 90 1f 60
        E 0 90 56 60
        E 0 90 62 60
        E 60 80 1f 00
        E 0 80 56 00
        E 0 80 62 00
        E 180 90 18 60
        E 0 90 1f 60
        E 0 90 3e 60
        E 0 90 48 60
        E 0 90 4a 60
        E 0 90 54 60
        E 0 90 56 60
        E 0 90 60 60
        E 0 90 62 60
        E 60 80 18 00
        E 0 80 1f 00
        E 0 80 3e 00
        E 0 80 48 00
        E 0 80 4a 00
        E 0 80 54 00
        E 0 80 56 00
        E 0 80 60 00
        E 0 80 62 00
        E 180 90 1f 60
        E 0 90 56 60
        E 0 90 62 60
        E 60 80 1f 00
        E 0 80 56 00
        E 0 80 62 00
        E 180 90 18 60
        E 0 90 1a 60
        E 0 90 3d 60
        E 0 90 49 60
        E 0 90 54 60
        E 0 90 55 60
        E 0 90 60 60
        E 0 90 61 60
        E 60 80 18 00
        E 0 80 1a 00
        E 0 80 3d 00
        E 0 80 49 00
        E 0 80 54 00
        E 0 80 55 00
        E 0 80 60 00
        E 0 80 61 00
        E 180 90 1f 60
        E 0 90 56 60
        E 0 90 62 60
        E 60 80 1f 00
        E 0 80 56 00
        E 0 80 62 00
        E 180 90 18 60
        E 0 90 1f 60
        E 0 90 3e 60
        E 0 90 48 60
        E 0 90 4a 60
        E 0 90 54 60
        E 0 90 56 60
        E 0 90 60 60
        E 0 90 62 60
        E 60 80 18 00
        E 0 80 1f 00
        E 0 80 3e 00
        E 0 80 48 00
        E 0 80 4a 00
        E 0 80 54 00
        E 0 80 56 00
        E 0 80 60 00
        E 0 80 62 00
        E 180 90 1f 60
        E 0 90 56 60
        E 0 90 62 60
        E 60 80 1f 00
        E 0 80 56 00
        E 0 80 62 00
        E 180 90 18 60
        E 0 90 1a 60
        E 0 90 3d 60
        E 0 90 49 60
        E 0 90 54 60
        E 0 90 55 60
        E 0 90 60 60
        E 0 90 61 60
        E 60 80 18 00
        E 0 80 1a 00
        E 0 80 3d 00
        E 0 80 49 00
        E 0 80 54 00
        E 0 80 55 00
        E 0 80 60 00
        E 0 80 61 00
        E 180 90 1f 60
        E 0 90 56 60
        E 0 90 62 60
        E 60 80 1f 00
        E 0 80 56 00
        E 0 80 62 00
        E 60 90 1f 60
        E 0 90 62 60
        E 60 80 1f 00
        E 0 80 62 00
        E 60 90 18 60
        E 0 90 1f 60
        E 0 90 3e 60
        E 0 90 48 60
        E 0 90 4a 60
        E 0 90 54 60
        E 0 90 56 60
        E 0 90 60 60
        E 0 90 62 60
        E 60 80 18 00
        E 0 80 1f 00
        E 0 80 3e 00
        E 0 80 48 00
        E 0 80 4a 00
        E 0 80 54 00
        E 0 80 56 00
        E 0 80 60 00
        E 0 80 62 00
        E 180 90 1f 60
        E 0 90 56 60
        E 0 90 62 60
        E 60 80 1f 00
        E 0 80 56 00
        E 0 80 62 00
        E 180 90 18 60
        E 0 90 1a 60
        E 0 90 3d 60
        E 0 90 49 60
        E 0 90 54 60
        E 0 90 55 60
        E 0 90 60 60
        E 0 90 61 60
        E 60 80 18 00
        E 0 80 1a 00
        E 0 80 3d 00
        E 0 80 49 00
        E 0 80 54 00
        E 0 80 55 00
        E 0 80 60 00
        E 0 80 61 00
        E 180 90 1f 60
        E 0 90 56 60
        E 0 90 62 60
        E 60 80 1f 00
        E 0 80 56 00
        E 0 80 62 00
        E 180 90 18 60
        E 0 90 1f 60
        E 0 90 3e 60
        E 0 90 48 60
        E 0 90 4a 60
        E 0 90 54 60
        E 0 90 56 60
        E 0 90 60 60
        E 0 90 62 60
        E 60 80 18 00
        E 0 80 1f 00
        E 0 80 3e 00
        E 0 80 48 00
        E 0 80 4a 00
        E 0 80 54 00
        E 0 80 56 00
        E 0 80 60 00
        E 0 80 62 00
        E 180 90 1f 60
        E 0 90 56 60
        E 0 90 62 60
        E 60 80 1f 00
        E 0 80 56 00
        E 0 80 62 00
        E 120 90 78 60
        E 0 90 79 60
        E 0 90 7a 60
        E 0 90 7b 60
        E 0 90 7c 60
        E 60 90 18 60
        E 0 90 1a 60
        E 0 90 3d 60
        E 0 90 49 60
        E 0 90 54 60
        E 0 90 55 60
        E 0 90 60 60
        E 0 90 61 60
        E 60 80 18 00
        E 0 80 1a 00
        E 0 80 3d 00
        E 0 80 49 00
        E 0 80 54 00
        E 0 80 55 00
        E 0 80 60 00
        E 0 80 61 00
        E 180 90 1f 60
        E 0 90 56 60
        E 0 90 62 60
        E 60 80 1f 00
        E 0 80 56 00
        E 0 80 62 00
        E 180 90 18 60
        E 0 90 1f 60
        E 0 90 3e 60
        E 0 90 48 60
        E 0 90 4a 60
        E 0 90 54 60
        E 0 90 56 60
        E 0 90 60 60
        E 0 90 62 60
        E 60 80 18 00
        E 0 80 1f 00
        E 0 80 3e 00
        E 0 80 48 00
        E 0 80 4a 00
        E 0 80 54 00
        E 0 80 56 00
        E 0 80 60 00
        E 0 80 62 00
        E 180 90 1f 60
        E 0 90 56 60
        E 0 90 62 60
        E 60 80 1f 00
        E 0 80 56 00
        E 0 80 62 00
        E 180 80 78 00
        E 0 80 79 00
        E 0 80 7a 00
        E 0 80 7b 00
        E 0 80 7c 00
        E 0 90 18 60
        E 0 90 1a 60
        E 0 90 3d 60
        E 0 90 49 60
        E 0 90 54 60
        E 0 90 55 60
        E 0 90 60 60
        E 0 90 61 60
        E 60 80 18 00
        E 0 80 1a 00
        E 0 80 3d 00
        E 0 80 49 00
        E 0 80 54 00
        E 0 80 55 00
        E 0 80 60 00
        E 0 80 61 00
        E 180 90 1f 60
        E 0 90 56 60
        E 0 90 62 60
        E 60 80 1f 00
        E 0 80 56 00
        E 0 80 62 00
        E 180 90 18 60
        E 0 90 1f 60
        E 0 90 3e 60
        E 0 90 48 60
        E 0 90 4a 60
        E 0 90 54 60
        E 0 90 56 60
        E 0 90 60 60
        E 0 90 62 60
        E 60 80 18 00
        E 0 80 1f 00
        E 0 80 3e 00
        E 0 80 48 00
        E 0 80 4a 00
        E 0 80 54 00
        E 0 80 56 00
        E 0 80 60 00
        E 0 80 62 00
        E 180 90 1f 60
        E 0 90 56 60
        E 0 90 62 60
        E 60 80 1f 00
        E 0 80 56 00
        E 0 80 62 00
        E 180 90 18 60
        E 0 90 1a 60
        E 0 90 3d 60
        E 0 90 49 60
        E 0 90 54 60
        E 0 90 55 60
        E 0 90 60 60
        E 0 90 61 60
        E 60 80 18 00
        E 0 80 1a 00
        E 0 80 3d 00
        E 0 80 49 00
        E 0 80 54 00
        E 0 80 55 00
        E 0 80 60 00
        E 0 80 61 00
        E 180 90 1f 60
        E 0 90 56 60
        E 0 90 62 60
        E 60 80 1f 00
        E 0 80 56 00
        E 0 80 62 00
        E 180 90 18 60
        E 0 90 1f 60
        E 0 90 3e 60
        E 0 90 48 60
        E 0 90 4a 60
        E 0 90 54 60
        E 0 90 56 60
        E 0 90 60 60
        E 0 90 62 60
        E 60 80 18 00
        E 0 80 1f 00
        E 0 80 3e 00
        E 0 80 48 00
        E 0 80 4a 00
        E 0 80 54 00
        E 0 80 56 00
        E 0 80 60 00
        E 0 80 62 00
        E 420 90 1a 60
        E 0 90 3d 60
        E 0 90 49 60
        E 0 90 55 60
        E 0 90 61 60
        E 60 80 1a 00
        E 0 80 3d 00
        E 0 80 49 00
        E 0 80 55 00
        E 0 80 61 00
        E 420 90 18 60
        E 0 90 1f 60
        E 0 90 3e 60
        E 0 90 48 60
        E 0 90 4a 60
        E 0 90 54 60
        E 0 90 56 60
        E 0 90 60 60
        E 0 90 62 60
        E 60 80 18 00
        E 0 80 1f 00
        E 0 80 3e 00
        E 0 80 48 00
        E 0 80 4a 00
        E 0 80 54 00
        E 0 80 56 00
        E 0 80 60 00
        E 0 80 62 00
        E 420 90 1a 60
        E 0 90 3d 60
        E 0 90 49 60
        E 0 90 55 60
        E 0 90 61 60
        E 60 80 1a 00
        E 0 80 3d 00
        E 0 80 49 00
        E 0 80 55 00
        E 0 80 61 00
        E 420 90 18 60
        E 0 90 1f 60
        E 0 90 3e 60
        E 0 90 48 60
        E 0 90 4a 60
        E 0 90 54 60
        E 0 90 56 60
        E 0 90 60 60
        E 0 90 62 60
        E 60 80 18 00
        E 0 80 1f 00
        E 0 80 3e 00
        E 0 80 48 00
        E 0 80 4a 00
        E 0 80 54 00
        E 0 80 56 00
        E 0 80 60 00
        E 0 80 62 00
        E 420 90 1a 60
        E 0 90 3d 60
        E 0 90 49 60
        E 0 90 55 60
        E 0 90 61 60
        E 60 80 1a 00
        E 0 80 3d 00
        E 0 80 49 00
        E 0 80 55 00
        E 0 80 61 00
        E 420 90 18 60
        E 0 90 1f 60
        E 0 90 3e 60
        E 0 90 48 60
        E 0 90 4a 60
        E 0 90 54 60
        E 0 90 56 60
        E 0 90 60 60
        E 0 90 62 60
        E 60 80 18 00
        E 0 80 1f 00
        E 0 80 3e 00
        E 0 80 48 00
        E 0 80 4a 00
        E 0 80 54 00
        E 0 80 56 00
        E 0 80 60 00
        E 0 80 62 00
        E 420 90 1a 60
        E 0 90 3d 60
        E 0 90 49 60
        E 0 90 55 60
        E 0 90 61 60
        E 60 80 1a 00
        E 0 80 3d 00
        E 0 80 49 00
        E 0 80 55 00
        E 0 80 61 00
        E 420 90 18 60
        E 0 90 1f 60
        E 0 90 3e 60
        E 0 90 48 60
        E 0 90 4a 60
        E 0 90 54 60
        E 0 90 56 60
        E 0 90 60 60
        E 0 90 62 60
        E 60 80 18 00
        E 0 80 1f 00
        E 0 80 3e 00
        E 0 80 48 00
        E 0 80 4a 00
        E 0 80 54 00
        E 0 80 56 00
        E 0 80 60 00
        E 0 80 62 00
        E 420 90 1a 60
        E 0 90 3d 60
        E 0 90 49 60
        E 0 90 55 60
        E 0 90 61 60
        E 60 80 1a 00
        E 0 80 3d 00
        E 0 80 49 00
        E 0 80 55 00
        E 0 80 61 00
        E 420 90 18 60
        E 0 90 1f 60
        E 0 90 3e 60
        E 0 90 48 60
        E 0 90 4a 60
        E 0 90 54 60
        E 0 90 56 60
        E 0 90 60 60
        E 0 90 62 60
        E 60 80 18 00
        E 0 80 1f 00
        E 0 80 3e 00
        E 0 80 48 00
        E 0 80 4a 00
        E 0 80 54 00
        E 0 80 56 00
        E 0 80 60 00
        E 0 80 62 00
        E 420 90 1a 60
        E 0 90 3d 60
        E 0 90 49 60
        E 0 90 55 60
        E 0 90 61 60
        E 60 80 1a 00
        E 0 80 3d 00
        E 0 80 49 00
        E 0 80 55 00
        E 0 80 61 00
        E 420 90 18 60
        E 0 90 1f 60
        E 0 90 3e 60
        E 0 90 48 60
        E 0 90 4a 60
        E 0 90 54 60
        E 0 90 56 60
        E 0 90 60 60
        E 0 90 62 60
        E 60 80 18 00
        E 0 80 1f 00
        E 0 80 3e 00
        E 0 80 48 00
        E 0 80 4a 00
        E 0 80 54 00
        E 0 80 56 00
        E 0 80 60 00
        E 0 80 62 00
        E 420 90 1a 60
        E 0 90 3d 60
        E 0 90 49 60
        E 0 90 55 60
        E 0 90 61 60
        E 60 80 1a 00
        E 0 80 3d 00
        E 0 80 49 00
        E 0 80 55 00
        E 0 80 61 00
        E 420 90 18 60
        E 0 90 1f 60
        E 0 90 3e 60
        E 0 90 48 60
        E 0 90 4a 60
        E 0 90 54 60
        E 0 90 56 60
        E 0 90 60 60
        E 0 90 62 60
        E 60 80 18 00
        E 0 80 1f 00
        E 0 80 3e 00
        E 0 80 48 00
        E 0 80 4a 00
        E 0 80 54 00
        E 0 80 56 00
        E 0 80 60 00
        E 0 80 62 00
        E 420 90 1a 60
        E 0 90 3d 60
        E 0 90 49 60
        E 0 90 55 60
        E 0 90 61 60
        E 60 80 1a 00
        E 0 80 3d 00
        E 0 80 49 00
        E 0 80 55 00
        E 0 80 61 00
        E 420 90 18 60
        E 0 90 1f 60
        E 0 90 3e 60
        E 0 90 48 60
        E 0 90 4a 60
        E 0 90 54 60
        E 0 90 56 60
        E 0 90 60 60
        E 0 90 62 60
        E 60 80 18 00
        E 0 80 1f 00
        E 0 80 3e 00
        E 0 80 48 00
        E 0 80 4a 00
        E 0 80 54 00
        E 0 80 56 00
        E 0 80 60 00
        E 0 80 62 00
        E 420 90 1a 60
        E 0 90 3d 60
        E 0 90 49 60
        E 0 90 55 60
        E 0 90 61 60
        E 60 80 1a 00
        E 0 80 3d 00
        E 0 80 49 00
        E 0 80 55 00
        E 0 80 61 00
        E 420 90 18 60
        E 0 90 1f 60
        E 0 90 3e 60
        E 0 90 48 60
        E 0 90 4a 60
        E 0 90 54 60
        E 0 90 56 60
        E 0 90 60 60
        E 0 90 62 60
        E 60 80 18 00
        E 0 80 1f 00
        E 0 80 3e 00
        E 0 80 48 00
        E 0 80 4a 00
        E 0 80 54 00
        E 0 80 56 00
        E 0 80 60 00
        E 0 80 62 00
        E 420 90 1a 60
        E 0 90 3d 60
        E 0 90 49 60
        E 0 90 55 60
        E 0 90 61 60
        E 60 80 1a 00
        E 0 80 3d 00
        E 0 80 49 00
        E 0 80 55 00
        E 0 80 61 00
        E 420 90 18 60
        E 0 90 1f 60
        E 0 90 3e 60
        E 0 90 48 60
        E 0 90 4a 60
        E 0 90 54 60
        E 0 90 56 60
        E 0 90 60 60
        E 0 90 62 60
        E 60 80 18 00
        E 0 80 1f 00
        E 0 80 3e 00
        E 0 80 48 00
        E 0 80 4a 00
        E 0 80 54 00
        E 0 80 56 00
        E 0 80 60 00
        E 0 80 62 00
        E 420 90 1a 60
        E 0 90 3d 60
        E 0 90 49 60
        E 0 90 55 60
        E 0 90 61 60
        E 60 80 1a 00
        E 0 80 3d 00
        E 0 80 49 00
        E 0 80 55 00
        E 0 80 61 00
        E 420 90 18 60
        E 0 90 1f 60
        E 0 90 3e 60
        E 0 90 48 60
        E 0 90 4a 60
        E 0 90 54 60
        E 0 90 56 60
        E 0 90 60 60
        E 0 90 62 60
        E 60 80 18 00
        E 0 80 1f 00
        E 0 80 3e 00
        E 0 80 48 00
        E 0 80 4a 00
        E 0 80 54 00
        E 0 80 56 00
        E 0 80 60 00
        E 0 80 62 00
        E 420 90 1a 60
        E 0 90 3d 60
        E 0 90 49 60
        E 0 90 55 60
        E 0 90 61 60
        E 60 80 1a 00
        E 0 80 3d 00
        E 0 80 49 00
        E 0 80 55 00
        E 0 80 61 00
        E 420 90 18 60
        E 0 90 1f 60
        E 0 90 3e 60
        E 0 90 48 60
        E 0 90 4a 60
        E 0 90 54 60
        E 0 90 56 60
        E 0 90 60 60
        E 0 90 62 60
        E 60 80 18 00
        E 0 80 1f 00
        E 0 80 3e 00
        E 0 80 48 00
        E 0 80 4a 00
        E 0 80 54 00
        E 0 80 56 00
        E 0 80 60 00
        E 0 80 62 00
        E 420 90 1a 60
        E 0 90 3d 60
        E 0 90 49 60
        E 0 90 55 60
        E 0 90 61 60
        E 60 80 1a 00
        E 0 80 3d 00
        E 0 80 49 00
        E 0 80 55 00
        E 0 80 61 00
        E 420 90 18 60
        E 0 90 1f 60
        E 0 90 3e 60
        E 0 90 48 60
        E 0 90 4a 60
        E 0 90 54 60
        E 0 90 56 60
        E 0 90 60 60
        E 0 90 62 60
        E 60 80 18 00
        E 0 80 1f 00
        E 0 80 3e 00
        E 0 80 48 00
        E 0 80 4a 00
        E 0 80 54 00
        E 0 80 56 00
        E 0 80 60 00
        E 0 80 62 00
        E 420 90 1a 60
        E 0 90 3d 60
        E 0 90 49 60
        E 0 90 55 60
        E 0 90 61 60
        E 60 80 1a 00
        E 0 80 3d 00
        E 0 80 49 00
        E 0 80 55 00
        E 0 80 61 00
        E 420 90 18 60
        E 0 90 1f 60
        E 0 90 3e 60
        E 0 90 48 60
        E 0 90 4a 60
        E 0 90 54 60
        E 0 90 56 60
        E 0 90 60 60
        E 0 90 62 60
        E 60 80 18 00
        E 0 80 1f 00
        E 0 80 3e 00
        E 0 80 48 00
        E 0 80 4a 00
        E 0 80 54 00
        E 0 80 56 00
        E 0 80 60 00
        E 0 80 62 00
        E 420 90 1a 60
        E 0 90 3d 60
        E 0 90 49 60
        E 0 90 55 60
        E 0 90 61 60
        E 60 80 1a 00
        E 0 80 3d 00
        E 0 80 49 00
        E 0 80 55 00
        E 0 80 61 00
        E 120 90 74 60
        E 60 90 1f 60
        E 0 90 56 60
        E 0 90 62 60
        E 60 80 1f 00
        E 0 80 56 00
        E 0 80 62 00
        E 180 90 18 60
        E 0 90 1f 60
        E 0 90 3e 60
        E 0 90 48 60
        E 0 90 4a 60
        E 0 90 54 60
        E 0 90 56 60
        E 0 90 60 60
        E 0 90 62 60
        E 60 80 18 00
        E 0 80 1f 00
        E 0 80 3e 00
        E 0 80 48 00
        E 0 80 4a 00
        E 0 80 54 00
        E 0 80 56 00
        E 0 80 60 00
        E 0 80 62 00
        E 180 90 1f 60
        E 0 90 56 60
        E 0 90 62 60
        E 60 80 1f 00
        E 0 80 56 00
        E 0 80 62 00
        E 180 90 1a 60
        E 0 90 3d 60
        E 0 90 49 60
        E 0 90 55 60
        E 0 90 61 60
        E 60 80 1a 00
        E 0 80 3d 00
        E 0 80 49 00
        E 0 80 55 00
        E 0 80 61 00
        E 180 90 1f 60
        E 0 90 56 60
        E 0 90 62 60
        E 60 80 1f 00
        E 0 80 56 00
        E 0 80 62 00
        E 180 90 18 60
        E 0 90 1f 60
        E 0 90 3e 60
        E 0 90 48 60
        E 0 90 4a 60
        E 0 90 54 60
        E 0 90 56 60
        E 0 90 60 60
        E 0 90 62 60
        E 60 80 18 00
        E 0 80 1f 00
        E 0 80 3e 00
        E 0 80 48 00
        E 0 80 4a 00
        E 0 80 54 00
        E 0 80 56 00
        E 0 80 60 00
        E 0 80 62 00
        E 180 90 1f 60
        E 0 90 56 60
        E 0 90 62 60
        E 60 80 1f 00
        E 0 80 56 00
        E 0 80 62 00
        E 180 90 1a 60
        E 0 90 3d 60
        E 0 90 49 60
        E 0 90 55 60
        E 0 90 61 60
        E 60 80 1a 00
        E 0 80 3d 00
        E 0 80 49 00
        E 0 80 55 00
        E 0 80 61 00
        E 180 90 1f 60
        E 0 90 56 60
        E 0 90 62 60
        E 60 80 1f 00
        E 0 80 56 00
        E 0 80 62 00
        E 180 90 18 60
        E 0 90 1f 60
        E 0 90 3e 60
        E 0 90 48 60
        E 0 90 4a 60
        E 0 90 54 60
        E 0 90 56 60
        E 0 90 60 60
        E 0 90 62 60
        E 60 80 18 00
        E 0 80 1f 00
        E 0 80 3e 00
        E 0 80 48 00
        E 0 80 4a 00
        E 0 80 54 00
        E 0 80 56 00
        E 0 80 60 00
        E 0 80 62 00
        E 180 90 1f 60
        E 0 90 56 60
        E 0 90 62 60
        E 60 80 1f 00
        E 0 80 56 00
        E 0 80 62 00
        E 60 80 74 00
        E 120 90 1a 60
        E 0 90 3d 60
        E 0 90 49 60
        E 0 90 55 60
        E 0 90 61 60
        E 60 80 1a 00
        E 0 80 3d 00
        E 0 80 49 00
        E 0 80 55 00
        E 0 80 61 00
        E 180 90 1f 60
        E 0 90 56 60
        E 0 90 62 60
        E 60 80 1f 00
        E 0 80 56 00
        E 0 80 62 00
        E 180 90 18 60
        E 0 90 1f 60
        E 0 90 3e 60
        E 0 90 48 60
        E 0 90 4a 60
        E 0 90 54 60
        E 0 90 56 60
        E 0 90 60 60
        E 0 90 62 60
        E 60 80 18 00
        E 0 80 1f 00
        E 0 80 3e 00
        E 0 80 48 00
        E 0 80 4a 00
        E 0 80 54 00
        E 0 80 56 00
        E 0 80 60 00
        E 0 80 62 00
        E 180 90 1f 60
        E 0 90 56 60
        E 0 90 62 60
        E 60 80 1f 00
        E 0 80 56 00
        E 0 80 62 00
        E 180 90 1a 60
        E 0 90 3d 60
        E 0 90 49 60
        E 0 90 55 60
        E 0 90 61 60
        E 60 80 1a 00
        E 0 80 3d 00
        E 0 80 49 00
        E 0 80 55 00
        E 0 80 61 00
        E 180 90 1f 60
        E 0 90 56 60
        E 0 90 62 60
        E 60 80 1f 00
        E 0 80 56 00
        E 0 80 62 00
        E 120 90 78 60
        E 0 90 79 60
        E 0 90 7a 60
        E 0 90 7b 60
        E 0 90 7c 60
        E 60 90 18 60
        E 0 90 1f 60
        E 0 90 3e 60
        E 0 90 48 60
        E 0 90 4a 60
        E 0 90 54 60
        E 0 90 56 60
        E 0 90 60 60
        E 0 90 62 60
        E 60 80 18 00
        E 0 80 1f 00
        E 0 80 3e 00
        E 0 80 48 00
        E 0 80 4a 00
        E 0 80 54 00
        E 0 80 56 00
        E 0 80 60 00
        E 0 80 62 00
        E 180 90 1f 60
        E 0 90 56 60
        E 0 90 62 60
        E 60 80 1f 00
        E 0 80 56 00
        E 0 80 62 00
        E 180 90 1a 60
        E 0 90 3d 60
        E 0 90 49 60
        E 0 90 55 60
        E 0 90 61 60
        E 60 80 1a 00
        E 0 80 3d 00
        E 0 80 49 00
        E 0 80 55 00
        E 0 80 61 00
        E 180 90 1f 60
        E 0 90 56 60
        E 0 90 62 60
        E 60 80 1f 00
        E 0 80 56 00
        E 0 80 62 00
        E 180 80 78 00
        E 0 80 79 00
        E 0 80 7a 00
        E 0 80 7b 00
        E 0 80 7c 00
        E 0 90 18 60
        E 0 90 1f 60
        E 0 90 3e 60
        E 0 90 48 60
        E 0 90 4a 60
        E 0 90 54 60
        E 0 90 56 60
        E 0 90 60 60
        E 0 90 62 60
        E 60 80 18 00
        E 0 80 1f 00
        E 0 80 3e 00
        E 0 80 48 00
        E 0 80 4a 00
        E 0 80 54 00
        E 0 80 56 00
        E 0 80 60 00
        E 0 80 62 00
        E 180 90 1f 60
        E 0 90 56 60
        E 0 90 62 60
        E 60 80 1f 00
        E 0 80 56 00
        E 0 80 62 00
        E 180 90 1a 60
        E 0 90 3d 60
        E 0 90 49 60
        E 0 90 55 60
        E 0 90 61 60
        E 60 80 1a 00
        E 0 80 3d 00
        E 0 80 49 00
        E 0 80 55 00
        E 0 80 61 00
        E 180 90 1f 60
        E 0 90 56 60
        E 0 90 62 60
        E 60 80 1f 00
        E 0 80 56 00
        E 0 80 62 00
        E 180 90 18 60
        E 0 90 1f 60
        E 0 90 3e 60
        E 0 90 48 60
        E 0 90 4a 60
        E 0 90 54 60
        E 0 90 56 60
        E 0 90 60 60
        E 0 90 62 60
        E 60 80 18 00
        E 0 80 1f 00
        E 0 80 3e 00
        E 0 80 48 00
        E 0 80 4a 00
        E 0 80 54 00
        E 0 80 56 00
        E 0 80 60 00
        E 0 80 62 00
        E 180 90 1f 60
        E 0 90 56 60
        E 0 90 62 60
        E 60 80 1f 00
        E 0 80 56 00
        E 0 80 62 00
        E 180 90 1a 60
        E 0 90 3d 60
        E 0 90 49 60
        E 0 90 55 60
        E 0 90 61 60
        E 60 80 1a 00
        E 0 80 3d 00
        E 0 80 49 00
        E 0 80 55 00
        E 0 80 61 00
        E 180 90 1f 60
        E 0 90 56 60
        E 0 90 62 60
        E 60 80 1f 00
        E 0 80 56 00
        E 0 80 62 00
        E 2100 90 18 60
        E 0 90 26 60
        E 0 90 40 60
        E 0 90 48 60
        E 0 90 4c 60
        E 0 90 54 60
        E 0 90 58 60
        E 0 90 60 60
        E 0 90 64 60
        E 60 80 18 00
        E 0 80 26 00
        E 0 80 40 00
        E 0 80 48 00
        E 0 80 4c 00
        E 0 80 54 00
        E 0 80 58 00
        E 0 80 60 00
        E 0 80 64 00
        E 180 90 1f 60
        E 0 90 56 60
        E 0 90 62 60
        E 60 80 1f 00
        E 0 80 56 00
        E 0 80 62 00
        E 180 90 18 60
        E 0 90 1a 60
        E 0 90 1f 60
        E 0 90 3d 60
        E 0 90 3e 60
        E 0 90 49 60
        E 0 90 4a 60
        E 0 90 54 60
        E 0 90 55 60
        E 0 90 56 60
        E 0 90 60 60
        E 0 90 61 60
        E 0 90 62 60
        E 60 80 18 00
        E 0 80 1a 00
        E 0 80 1f 00
        E 0 80 3d 00
        E 0 80 3e 00
        E 0 80 49 00
        E 0 80 4a 00
        E 0 80 54 00
        E 0 80 55 00
        E 0 80 56 00
        E 0 80 60 00
        E 0 80 61 00
        E 0 80 62 00
        E 180 90 1f 60
        E 0 90 56 60
        E 0 90 62 60
        E 60 80 1f 00
        E 0 80 56 00
        E 0 80 62 00
        E 60 90 1e 60
        E 0 90 62 60
        E 60 80 1e 00
        E 0 80 62 00
        E 60 90 18 60
        E 0 90 1f 60
        E 0 90 3e 60
        E 0 90 48 60
        E 0 90 4a 60
        E 0 90 54 60
        E 0 90 56 60
        E 0 90 60 60
        E 0 90 62 60
        E 60 80 18 00
        E 0 80 1f 00
        E 0 80 3e 00
        E 0 80 48 00
        E 0 80 4a 00
        E 0 80 54 00
        E 0 80 56 00
        E 0 80 60 00
        E 0 80 62 00
        E 60 90 1e 60
        E 0 90 62 60
        E 60 80 1e 00
        E 0 80 62 00
        E 60 90 1f 60
        E 0 90 56 60
        E 0 90 62 60
        E 60 80 1f 00
        E 0 80 56 00
        E 0 80 62 00
        E 60 90 1e 60
        E 0 90 62 60
        E 60 80 1e 00
        E 0 80 62 00
        E 60 90 18 60
        E 0 90 1b 60
        E 0 90 3d 60
        E 0 90 49 60
        E 0 90 54 60
        E 0 90 55 60
        E 0 90 60 60
        E 0 90 61 60
        E 60 80 18 00
        E 0 80 1b 00
        E 0 80 3d 00
        E 0 80 49 00
        E 0 80 54 00
        E 0 80 55 00
        E 0 80 60 00
        E 0 80 61 00
        E 180 90 1f 60
        E 0 90 56 60
        E 0 90 62 60
        E 60 80 1f 00
        E 0 80 56 00
        E 0 80 62 00
        E 180 90 18 60
        E 0 90 1f 60
        E 0 90 3e 60
        E 0 90 48 60
        E 0 90 4a 60
        E 0 90 54 60
        E 0 90 56 60
        E 0 90 60 60
        E 0 90 62 60
        E 60 80 18 00
        E 0 80 1f 00
        E 0 80 3e 00
        E 0 80 48 00
        E 0 80 4a 00
        E 0 80 54 00
        E 0 80 56 00
        E 0 80 60 00
        E 0 80 62 00
        E 6 90 74 60
        E 174 90 1f 60
        E 0 90 56 60
        E 0 90 62 60
        E 60 80 1f 00
        E 0 80 56 00
        E 0 80 62 00
        E 180 90 18 60
        E 0 90 1a 60
        E 0 90 3d 60
        E 0 90 49 60
        E 0 90 54 60
        E 0 90 55 60
        E 0 90 60 60
        E 0 90 61 60
        E 60 80 18 00
        E 0 80 1a 00
        E 0 80 3d 00
        E 0 80 49 00
        E 0 80 54 00
        E 0 80 55 00
        E 0 80 60 00
        E 0 80 61 00
        E 180 90 1f 60
        E 0 90 56 60
        E 0 90 62 60
        E 60 80 1f 00
        E 0 80 56 00
        E 0 80 62 00
        E 180 90 18 60
        E 0 90 1f 60
        E 0 90 3e 60
        E 0 90 48 60
        E 0 90 4a 60
        E 0 90 54 60
        E 0 90 56 60
        E 0 90 60 60
        E 0 90 62 60
        E 60 80 18 00
        E 0 80 1f 00
        E 0 80 3e 00
        E 0 80 48 00
        E 0 80 4a 00
        E 0 80 54 00
        E 0 80 56 00
        E 0 80 60 00
        E 0 80 62 00
        E 180 90 1f 60
        E 0 90 56 60
        E 0 90 62 60
        E 60 80 1f 00
        E 0 80 56 00
        E 0 80 62 00
        E 60 90 1e 60
        E 0 90 62 60
        E 60 80 1e 00
        E 0 80 62 00
        E 60 90 18 60
        E 0 90 1b 60
        E 0 90 3d 60
        E 0 90 49 60
        E 0 90 54 60
        E 0 90 55 60
        E 0 90 60 60
        E 0 90 61 60
        E 60 80 18 00
        E 0 80 1b 00
        E 0 80 3d 00
        E 0 80 49 00
        E 0 80 54 00
        E 0 80 55 00
        E 0 80 60 00
        E 0 80 61 00
        E 180 90 1f 60
        E 0 90 56 60
        E 0 90 62 60
        E 60 80 1f 00
        E 0 80 56 00
        E 0 80 62 00
        E 60 90 1e 60
        E 0 90 62 60
        E 60 80 1e 00
        E 0 80 62 00
        E 60 90 18 60
        E 0 90 1f 60
        E 0 90 3e 60
        E 0 90 48 60
        E 0 90 4a 60
        E 0 90 54 60
        E 0 90 56 60
        E 0 90 60 60
        E 0 90 62 60
        E 60 80 18 00
        E 0 80 1f 00
        E 0 80 3e 00
        E 0 80 48 00
        E 0 80 4a 00
        E 0 80 54 00
        E 0 80 56 00
        E 0 80 60 00
        E 0 80 62 00
        E 180 90 1f 60
        E 0 90 56 60
        E 0 90 62 60
        E 60 80 1f 00
        E 0 80 56 00
        E 0 80 62 00
        E 180 90 18 60
        E 0 90 1a 60
        E 0 90 3d 60
        E 0 90 49 60
        E 0 90 54 60
        E 0 90 55 60
        E 0 90 60 60
        E 0 90 61 60
        E 60 80 18 00
        E 0 80 1a 00
        E 0 80 3d 00
        E 0 80 49 00
        E 0 80 54 00
        E 0 80 55 00
        E 0 80 60 00
        E 0 80 61 00
        E 180 90 1f 60
        E 0 90 56 60
        E 0 90 62 60
        E 60 80 1f 00
        E 0 80 56 00
        E 0 80 62 00
        E 180 90 18 60
        E 0 90 1f 60
        E 0 90 3e 60
        E 0 90 48 60
        E 0 90 4a 60
        E 0 90 54 60
        E 0 90 56 60
        E 0 90 60 60
        E 0 90 62 60
        E 60 80 18 00
        E 0 80 1f 00
        E 0 80 3e 00
        E 0 80 48 00
        E 0 80 4a 00
        E 0 80 54 00
        E 0 80 56 00
        E 0 80 60 00
        E 0 80 62 00
        E 180 90 1f 60
        E 0 90 56 60
        E 0 90 62 60
        E 60 80 1f 00
        E 0 80 56 00
        E 0 80 62 00
        E 180 90 18 60
        E 0 90 1a 60
        E 0 90 3d 60
        E 0 90 49 60
        E 0 90 54 60
        E 0 90 55 60
        E 0 90 60 60
        E 0 90 61 60
        E 60 80 18 00
        E 0 80 1a 00
        E 0 80 3d 00
        E 0 80 49 00
        E 0 80 54 00
        E 0 80 55 00
        E 0 80 60 00
        E 0 80 61 00
        E 180 90 1f 60
        E 0 90 56 60
        E 0 90 62 60
        E 60 80 1f 00
        E 0 80 56 00
        E 0 80 62 00
        E 180 90 18 60
        E 0 90 1f 60
        E 0 90 3e 60
        E 0 90 48 60
        E 0 90 4a 60
        E 0 90 54 60
        E 0 90 56 60
        E 0 90 60 60
        E 0 90 62 60
        E 60 80 18 00
        E 0 80 1f 00
        E 0 80 3e 00
        E 0 80 48 00
        E 0 80 4a 00
        E 0 80 54 00
        E 0 80 56 00
        E 0 80 60 00
        E 0 80 62 00
        E 180 90 1f 60
        E 0 90 56 60
        E 0 90 62 60
        E 60 80 1f 00
        E 0 80 56 00
        E 0 80 62 00
        E 180 90 18 60
        E 0 90 1a 60
        E 0 90 3d 60
        E 0 90 49 60
        E 0 90 54 60
        E 0 90 55 60
        E 0 90 60 60
        E 0 90 61 60
        E 60 80 18 00
        E 0 80 1a 00
        E 0 80 3d 00
        E 0 80 49 00
        E 0 80 54 00
        E 0 80 55 00
        E 0 80 60 00
        E 0 80 61 00
        E 56 80 74 00
        E 124 90 1f 60
        E 0 90 56 60
        E 0 90 62 60
        E 60 80 1f 00
        E 0 80 56 00
        E 0 80 62 00
        E 180 90 18 60
        E 0 90 1f 60
        E 0 90 3e 60
        E 0 90 48 60
        E 0 90 4a 60
        E 0 90 54 60
        E 0 90 56 60
        E 0 90 60 60
        E 0 90 62 60
        E 60 80 18 00
        E 0 80 1f 00
        E 0 80 3e 00
        E 0 80 48 00
        E 0 80 4a 00
        E 0 80 54 00
        E 0 80 56 00
        E 0 80 60 00
        E 0 80 62 00
        E 60 90 1a 60
        E 0 90 61 60
        E 60 80 1a 00
        E 0 80 61 00
        E 60 90 1b 60
        E 0 90 55 60
        E 0 90 61 60
        E 60 80 1b 00
        E 0 80 55 00
        E 0 80 61 00
        E 60 90 1a 60
        E 0 90 61 60
        E 60 80 1a 00
        E 0 80 61 00
        E 60 90 18 60
        E 0 90 1b 60
        E 0 90 3d 60
        E 0 90 49 60
        E 0 90 54 60
        E 0 90 55 60
        E 0 90 60 60
        E 0 90 61 60
        E 60 80 18 00
        E 0 80 1b 00
        E 0 80 3d 00
        E 0 80 49 00
        E 0 80 54 00
        E 0 80 55 00
        E 0 80 60 00
        E 0 80 61 00
        E 180 90 1b 60
        E 0 90 55 60
        E 0 90 61 60
        E 60 80 1b 00
        E 0 80 55 00
        E 0 80 61 00
        E 60 90 1a 60
        E 0 90 61 60
        E 60 80 1a 00
        E 0 80 61 00
        E 60 90 18 60
        E 0 90 1f 60
        E 0 90 3e 60
        E 0 90 48 60
        E 0 90 4a 60
        E 0 90 54 60
        E 0 90 56 60
        E 0 90 60 60
        E 0 90 62 60
        E 60 80 18 00
        E 0 80 1f 00
        E 0 80 3e 00
        E 0 80 48 00
        E 0 80 4a 00
        E 0 80 54 00
        E 0 80 56 00
        E 0 80 60 00
        E 0 80 62 00
        E 180 90 1f 60
        E 0 90 56 60
        E 0 90 62 60
        E 60 80 1f 00
        E 0 80 56 00
        E 0 80 62 00
        E 120 90 78 60
        E 0 90 79 60
        E 0 90 7a 60
        E 0 90 7b 60
        E 0 90 7c 60
        E 60 90 18 60
        E 0 90 1a 60
        E 0 90 3d 60
        E 0 90 49 60
        E 0 90 54 60
        E 0 90 55 60
        E 0 90 60 60
        E 0 90 61 60
        E 60 80 18 00
        E 0 80 1a 00
        E 0 80 3d 00
        E 0 80 49 00
        E 0 80 54 00
        E 0 80 55 00
        E 0 80 60 00
        E 0 80 61 00
        E 180 90 1f 60
        E 0 90 56 60
        E 0 90 62 60
        E 60 80 1f 00
        E 0 80 56 00
        E 0 80 62 00
        E 180 90 18 60
        E 0 90 1f 60
        E 0 90 3e 60
        E 0 90 48 60
        E 0 90 4a 60
        E 0 90 54 60
        E 0 90 56 60
        E 0 90 60 60
        E 0 90 62 60
        E 60 80 18 00
        E 0 80 1f 00
        E 0 80 3e 00
        E 0 80 48 00
        E 0 80 4a 00
        E 0 80 54 00
        E 0 80 56 00
        E 0 80 60 00
        E 0 80 62 00
        E 180 90 1f 60
        E 0 90 56 60
        E 0 90 62 60
        E 60 80 1f 00
        E 0 80 56 00
        E 0 80 62 00
        E 180 80 78 00
        E 0 80 79 00
        E 0 80 7a 00
        E 0 80 7b 00
        E 0 80 7c 00
        E 0 90 18 60
        E 0 90 1a 60
        E 0 90 3d 60
        E 0 90 49 60
        E 0 90 54 60
        E 0 90 55 60
        E 0 90 60 60
        E 0 90 61 60
        E 60 80 18 00
        E 0 80 1a 00
        E 0 80 3d 00
        E 0 80 49 00
        E 0 80 54 00
        E 0 80 55 00
        E 0 80 60 00
        E 0 80 61 00
        E 180 90 1f 60
        E 0 90 56 60
        E 0 90 62 60
        E 60 80 1f 00
        E 0 80 56 00
        E 0 80 62 00
        E 180 90 18 60
        E 0 90 1f 60
        E 0 90 3e 60
        E 0 90 48 60
        E 0 90 4a 60
        E 0 90 54 60
        E 0 90 56 60
        E 0 90 60 60
        E 0 90 62 60
        E 60 80 18 00
        E 0 80 1f 00
        E 0 80 3e 00
        E 0 80 48 00
        E 0 80 4a 00
        E 0 80 54 00
        E 0 80 56 00
        E 0 80 60 00
        E 0 80 62 00
        E 180 90 1f 60
        E 0 90 56 60
        E 0 90 62 60
        E 60 80 1f 00
        E 0 80 56 00
        E 0 80 62 00
        E 180 90 18 60
        E 0 90 1a 60
        E 0 90 3d 60
        E 0 90 49 60
        E 0 90 54 60
        E 0 90 55 60
        E 0 90 60 60
        E 0 90 61 60
        E 60 80 18 00
        E 0 80 1a 00
        E 0 80 3d 00
        E 0 80 49 00
        E 0 80 54 00
        E 0 80 55 00
        E 0 80 60 00
        E 0 80 61 00
        E 180 90 1f 60
        E 0 90 56 60
        E 0 90 62 60
        E 60 80 1f 00
        E 0 80 56 00
        E 0 80 62 00
        E 180 90 18 60
        E 0 90 1f 60
        E 0 90 3e 60
        E 0 90 48 60
        E 0 90 4a 60
        E 0 90 54 60
        E 0 90 56 60
        E 0 90 60 60
        E 0 90 62 60
        E 60 80 18 00
        E 0 80 1f 00
        E 0 80 3e 00
        E 0 80 48 00
        E 0 80 4a 00
        E 0 80 54 00
        E 0 80 56 00
        E 0 80 60 00
        E 0 80 62 00
        E 180 90 1f 60
        E 0 90 56 60
        E 0 90 62 60
        E 60 80 1f 00
        E 0 80 56 00
        E 0 80 62 00
        E 180 90 18 60
        E 0 90 1a 60
        E 0 90 3d 60
        E 0 90 49 60
        E 0 90 54 60
        E 0 90 55 60
        E 0 90 60 60
        E 0 90 61 60
        E 60 80 18 00
        E 0 80 1a 00
        E 0 80 3d 00
        E 0 80 49 00
        E 0 80 54 00
        E 0 80 55 00
        E 0 80 60 00
        E 0 80 61 00
        E 180 90 1f 60
        E 0 90 56 60
        E 0 90 62 60
        E 60 80 1f 00
        E 0 80 56 00
        E 0 80 62 00
        E 60 90 1f 60
        E 0 90 62 60
        E 60 80 1f 00
        E 0 80 62 00
        E 60 90 18 60
        E 0 90 1f 60
        E 0 90 3e 60
        E 0 90 48 60
        E 0 90 4a 60
        E 0 90 54 60
        E 0 90 56 60
        E 0 90 60 60
        E 0 90 62 60
        E 60 80 18 00
        E 0 80 1f 00
        E 0 80 3e 00
        E 0 80 48 00
        E 0 80 4a 00
        E 0 80 54 00
        E 0 80 56 00
        E 0 80 60 00
        E 0 80 62 00
        E 180 90 1f 60
        E 0 90 56 60
        E 0 90 62 60
        E 60 80 1f 00
        E 0 80 56 00
        E 0 80 62 00
        E 180 90 18 60
        E 0 90 1a 60
        E 0 90 3d 60
        E 0 90 49 60
        E 0 90 54 60
        E 0 90 55 60
        E 0 90 60 60
        E 0 90 61 60
        E 60 80 18 00
        E 0 80 1a 00
        E 0 80 3d 00
        E 0 80 49 00
        E 0 80 54 00
        E 0 80 55 00
        E 0 80 60 00
        E 0 80 61 00
        E 180 90 1f 60
        E 0 90 56 60
        E 0 90 62 60
        E 60 80 1f 00
        E 0 80 56 00
        E 0 80 62 00
        E 180 90 18 60
        E 0 90 1f 60
        E 0 90 3e 60
        E 0 90 48 60
        E 0 90 4a 60
        E 0 90 54 60
        E 0 90 56 60
        E 0 90 60 60
        E 0 90 62 60
        E 60 80 18 00
        E 0 80 1f 00
        E 0 80 3e 00
        E 0 80 48 00
        E 0 80 4a 00
        E 0 80 54 00
        E 0 80 56 00
        E 0 80 60 00
        E 0 80 62 00
        E 180 90 1f 60
        E 0 90 56 60
        E 0 90 62 60
        E 60 80 1f 00
        E 0 80 56 00
        E 0 80 62 00
        E 180 90 18 60
        E 0 90 1a 60
        E 0 90 3d 60
        E 0 90 49 60
        E 0 90 54 60
        E 0 90 55 60
        E 0 90 60 60
        E 0 90 61 60
        E 60 80 18 00
        E 0 80 1a 00
        E 0 80 3d 00
        E 0 80 49 00
        E 0 80 54 00
        E 0 80 55 00
        E 0 80 60 00
        E 0 80 61 00
        E 180 90 1f 60
        E 0 90 56 60
        E 0 90 62 60
        E 60 80 1f 00
        E 0 80 56 00
        E 0 80 62 00
        E 180 90 18 60
        E 0 90 1f 60
        E 0 90 3e 60
        E 0 90 48 60
        E 0 90 4a 60
        E 0 90 54 60
        E 0 90 56 60
        E 0 90 60 60
        E 0 90 62 60
        E 60 80 18 00
        E 0 80 1f 00
        E 0 80 3e 00
        E 0 80 48 00
        E 0 80 4a 00
        E 0 80 54 00
        E 0 80 56 00
        E 0 80 60 00
        E 0 80 62 00
        E 180 90 1f 60
        E 0 90 56 60
        E 0 90 62 60
        E 60 80 1f 00
        E 0 80 56 00
        E 0 80 62 00
        E 180 90 18 60
        E 0 90 1a 60
        E 0 90 3d 60
        E 0 90 49 60
        E 0 90 54 60
        E 0 90 55 60
        E 0 90 60 60
        E 0 90 61 60
        E 60 80 18 00
        E 0 80 1a 00
        E 0 80 3d 00
        E 0 80 49 00
        E 0 80 54 00
        E 0 80 55 00
        E 0 80 60 00
        E 0 80 61 00
        E 180 90 1f 60
        E 0 90 56 60
        E 0 90 62 60
        E 60 80 1f 00
        E 0 80 56 00
        E 0 80 62 00
        E 180 90 18 60
        E 0 90 1f 60
        E 0 90 3e 60
        E 0 90 48 60
        E 0 90 4a 60
        E 0 90 54 60
        E 0 90 56 60
        E 0 90 60 60
        E 0 90 62 60
        E 60 80 18 00
        E 0 80 1f 00
        E 0 80 3e 00
        E 0 80 48 00
        E 0 80 4a 00
        E 0 80 54 00
        E 0 80 56 00
        E 0 80 60 00
        E 0 80 62 00
        E 180 90 1a 60
        E 0 90 55 60
        E 0 90 61 60
        E 60 80 1a 00
        E 0 80 55 00
        E 0 80 61 00
        E 180 90 18 60
        E 0 90 1a 60
        E 0 90 3d 60
        E 0 90 49 60
        E 0 90 54 60
        E 0 90 55 60
        E 0 90 60 60
        E 0 90 61 60
        E 60 80 18 00
        E 0 80 1a 00
        E 0 80 3d 00
        E 0 80 49 00
        E 0 80 54 00
        E 0 80 55 00
        E 0 80 60 00
        E 0 80 61 00
        E 180 90 1b 60
        E 0 90 55 60
        E 0 90 61 60
        E 60 80 1b 00
        E 0 80 55 00
        E 0 80 61 00
        E 60 90 1a 60
        E 0 90 61 60
        E 60 80 1a 00
        E 0 80 61 00
        E 60 90 18 60
        E 0 90 26 60
        E 0 90 40 60
        E 0 90 48 60
        E 0 90 4c 60
        E 0 90 54 60
        E 0 90 58 60
        E 0 90 60 60
        E 0 90 64 60
        E 60 80 18 00
        E 0 80 26 00
        E 0 80 40 00
        E 0 80 48 00
        E 0 80 4c 00
        E 0 80 54 00
        E 0 80 58 00
        E 0 80 60 00
        E 0 80 64 00
        E 180 90 1f 60
        E 0 90 56 60
        E 0 90 62 60
        E 60 80 1f 00
        E 0 80 56 00
        E 0 80 62 00
        E 180 90 18 60
        E 0 90 1a 60
        E 0 90 1f 60
        E 0 90 3d 60
        E 0 90 3e 60
        E 0 90 49 60
        E 0 90 4a 60
        E 0 90 54 60
        E 0 90 55 60
        E 0 90 56 60
        E 0 90 60 60
        E 0 90 61 60
        E 0 90 62 60
        E 60 80 18 00
        E 0 80 1a 00
        E 0 80 1f 00
        E 0 80 3d 00
        E 0 80 3e 00
        E 0 80 49 00
        E 0 80 4a 00
        E 0 80 54 00
        E 0 80 55 00
        E 0 80 56 00
        E 0 80 60 00
        E 0 80 61 00
        E 0 80 62 00
        E 180 90 1f 60
        E 0 90 56 60
        E 0 90 62 60
        E 60 80 1f 00
        E 0 80 56 00
        E 0 80 62 00
        E 180 90 18 60
        E 0 90 1f 60
        E 0 90 3e 60
        E 0 90 48 60
        E 0 90 4a 60
        E 0 90 54 60
        E 0 90 56 60
        E 0 90 60 60
        E 0 90 62 60
        E 60 80 18 00
        E 0 80 1f 00
        E 0 80 3e 00
        E 0 80 48 00
        E 0 80 4a 00
        E 0 80 54 00
        E 0 80 56 00
        E 0 80 60 00
        E 0 80 62 00
        E 180 90 1f 60
        E 0 90 56 60
        E 0 90 62 60
        E 60 80 1f 00
        E 0 80 56 00
        E 0 80 62 00
        E 60 90 1f 60
        E 0 90 62 60
        E 60 80 1f 00
        E 0 80 62 00
        E 60 90 18 60
        E 0 90 1a 60
        E 0 90 3d 60
        E 0 90 49 60
        E 0 90 54 60
        E 0 90 55 60
        E 0 90 60 60
        E 0 90 61 60
        E 60 80 18 00
        E 0 80 1a 00
        E 0 80 3d 00
        E 0 80 49 00
        E 0 80 54 00
        E 0 80 55 00
        E 0 80 60 00
        E 0 80 61 00
        E 180 90 1f 60
        E 0 90 56 60
        E 0 90 62 60
        E 60 80 1f 00
        E 0 80 56 00
        E 0 80 62 00
        E 180 90 18 60
        E 0 90 1f 60
        E 0 90 3e 60
        E 0 90 48 60
        E 0 90 4a 60
        E 0 90 54 60
        E 0 90 56 60
        E 0 90 60 60
        E 0 90 62 60
        E 60 80 18 00
        E 0 80 1f 00
        E 0 80 3e 00
        E 0 80 48 00
        E 0 80 4a 00
        E 0 80 54 00
        E 0 80 56 00
        E 0 80 60 00
        E 0 80 62 00
        E 180 90 1f 60
        E 0 90 56 60
        E 0 90 62 60
        E 60 80 1f 00
        E 0 80 56 00
        E 0 80 62 00
        E 180 90 18 60
        E 0 90 1a 60
        E 0 90 3d 60
        E 0 90 49 60
        E 0 90 54 60
        E 0 90 55 60
        E 0 90 60 60
        E 0 90 61 60
        E 60 80 18 00
        E 0 80 1a 00
        E 0 80 3d 00
        E 0 80 49 00
        E 0 80 54 00
        E 0 80 55 00
        E 0 80 60 00
        E 0 80 61 00
        E 180 90 1f 60
        E 0 90 56 60
        E 0 90 62 60
        E 60 80 1f 00
        E 0 80 56 00
        E 0 80 62 00
        E 180 90 18 60
        E 0 90 1f 60
        E 0 90 3e 60
        E 0 90 48 60
        E 0 90 4a 60
        E 0 90 54 60
        E 0 90 56 60
        E 0 90 60 60
        E 0 90 62 60
        E 60 80 18 00
        E 0 80 1f 00
        E 0 80 3e 00
        E 0 80 48 00
        E 0 80 4a 00
        E 0 80 54 00
        E 0 80 56 00
        E 0 80 60 00
        E 0 80 62 00
        E 180 90 1f 60
        E 0 90 56 60
        E 0 90 62 60
        E 60 80 1f 00
        E 0 80 56 00
        E 0 80 62 00
        E 180 90 18 60
        E 0 90 1a 60
        E 0 90 3d 60
        E 0 90 49 60
        E 0 90 54 60
        E 0 90 55 60
        E 0 90 60 60
        E 0 90 61 60
        E 60 80 18 00
        E 0 80 1a 00
        E 0 80 3d 00
        E 0 80 49 00
        E 0 80 54 00
        E 0 80 55 00
        E 0 80 60 00
        E 0 80 61 00
        E 180 90 1f 60
        E 0 90 56 60
        E 0 90 62 60
        E 60 80 1f 00
        E 0 80 56 00
        E 0 80 62 00
        E 60 90 1f 60
        E 0 90 62 60
        E 60 80 1f 00
        E 0 80 62 00
        E 60 90 18 60
        E 0 90 1f 60
        E 0 90 3e 60
        E 0 90 48 60
        E 0 90 4a 60
        E 0 90 54 60
        E 0 90 56 60
        E 0 90 60 60
        E 0 90 62 60
        E 60 80 18 00
        E 0 80 1f 00
        E 0 80 3e 00
        E 0 80 48 00
        E 0 80 4a 00
        E 0 80 54 00
        E 0 80 56 00
        E 0 80 60 00
        E 0 80 62 00
        E 180 90 1f 60
        E 0 90 56 60
        E 0 90 62 60
        E 60 80 1f 00
        E 0 80 56 00
        E 0 80 62 00
        E 120 90 78 60
        E 0 90 79 60
        E 0 90 7a 60
        E 0 90 7b 60
        E 0 90 7c 60
        E 60 90 18 60
        E 0 90 1a 60
        E 0 90 3d 60
        E 0 90 49 60
        E 0 90 54 60
        E 0 90 55 60
        E 0 90 60 60
        E 0 90 61 60
        E 60 80 18 00
        E 0 80 1a 00
        E 0 80 3d 00
        E 0 80 49 00
        E 0 80 54 00
        E 0 80 55 00
        E 0 80 60 00
        E 0 80 61 00
        E 180 90 1f 60
        E 0 90 56 60
        E 0 90 62 60
        E 60 80 1f 00
        E 0 80 56 00
        E 0 80 62 00
        E 180 90 18 60
        E 0 90 1f 60
        E 0 90 3e 60
        E 0 90 48 60
        E 0 90 4a 60
        E 0 90 54 60
        E 0 90 56 60
        E 0 90 60 60
        E 0 90 62 60
        E 60 80 18 00
        E 0 80 1f 00
        E 0 80 3e 00
        E 0 80 48 00
        E 0 80 4a 00
        E 0 80 54 00
        E 0 80 56 00
        E 0 80 60 00
        E 0 80 62 00
        E 180 90 1f 60
        E 0 90 56 60
        E 0 90 62 60
        E 60 80 1f 00
        E 0 80 56 00
        E 0 80 62 00
        E 180 80 78 00
        E 0 80 79 00
        E 0 80 7a 00
        E 0 80 7b 00
        E 0 80 7c 00
        E 0 90 18 60
        E 0 90 1a 60
        E 0 90 3d 60
        E 0 90 49 60
        E 0 90 54 60
        E 0 90 55 60
        E 0 90 60 60
        E 0 90 61 60
        E 60 80 18 00
        E 0 80 1a 00
        E 0 80 3d 00
        E 0 80 49 00
        E 0 80 54 00
        E 0 80 55 00
        E 0 80 60 00
        E 0 80 61 00
        E 180 90 1f 60
        E 0 90 56 60
        E 0 90 62 60
        E 60 80 1f 00
        E 0 80 56 00
        E 0 80 62 00
        E 180 90 18 60
        E 0 90 1f 60
        E 0 90 3e 60
        E 0 90 48 60
        E 0 90 4a 60
        E 0 90 54 60
        E 0 90 56 60
        E 0 90 60 60
        E 0 90 62 60
        E 60 80 18 00
        E 0 80 1f 00
        E 0 80 3e 00
        E 0 80 48 00
        E 0 80 4a 00
        E 0 80 54 00
        E 0 80 56 00
        E 0 80 60 00
        E 0 80 62 00
        E 180 90 1f 60
        E 0 90 56 60
        E 0 90 62 60
        E 60 80 1f 00
        E 0 80 56 00
        E 0 80 62 00
        E 180 90 18 60
        E 0 90 1a 60
        E 0 90 3d 60
        E 0 90 49 60
        E 0 90 54 60
        E 0 90 55 60
        E 0 90 60 60
        E 0 90 61 60
        E 60 80 18 00
        E 0 80 1a 00
        E 0 80 3d 00
        E 0 80 49 00
        E 0 80 54 00
        E 0 80 55 00
        E 0 80 60 00
        E 0 80 61 00
        E 180 90 1f 60
        E 0 90 56 60
        E 0 90 62 60
        E 60 80 1f 00
        E 0 80 56 00
        E 0 80 62 00
        E 60 90 74 60
        E 120 90 18 60
        E 0 90 1f 60
        E 0 90 3e 60
        E 0 90 48 60
        E 0 90 4a 60
        E 0 90 54 60
        E 0 90 56 60
        E 0 90 60 60
        E 0 90 62 60
        E 60 80 18 00
        E 0 80 1f 00
        E 0 80 3e 00
        E 0 80 48 00
        E 0 80 4a 00
        E 0 80 54 00
        E 0 80 56 00
        E 0 80 60 00
        E 0 80 62 00
        E 60 90 1a 60
        E 0 90 61 60
        E 60 80 1a 00
        E 0 80 61 00
        E 60 90 1b 60
        E 0 90 55 60
        E 0 90 61 60
        E 60 80 1b 00
        E 0 80 55 00
        E 0 80 61 00
        E 60 90 1a 60
        E 0 90 61 60
        E 60 80 1a 00
        E 0 80 61 00
        E 60 90 18 60
        E 0 90 1b 60
        E 0 90 3d 60
        E 0 90 49 60
        E 0 90 54 60
        E 0 90 55 60
        E 0 90 60 60
        E 0 90 61 60
        E 60 80 18 00
        E 0 80 1b 00
        E 0 80 3d 00
        E 0 80 49 00
        E 0 80 54 00
        E 0 80 55 00
        E 0 80 60 00
        E 0 80 61 00
        E 180 90 1b 60
        E 0 90 55 60
        E 0 90 61 60
        E 60 80 1b 00
        E 0 80 55 00
        E 0 80 61 00
        E 60 90 1a 60
        E 0 90 61 60
        E 60 80 1a 00
        E 0 80 61 00
        E 60 90 18 60
        E 0 90 1f 60
        E 0 90 3e 60
        E 0 90 48 60
        E 0 90 4a 60
        E 0 90 54 60
        E 0 90 56 60
        E 0 90 60 60
        E 0 90 62 60
        E 60 80 18 00
        E 0 80 1f 00
        E 0 80 3e 00
        E 0 80 48 00
        E 0 80 4a 00
        E 0 80 54 00
        E 0 80 56 00
        E 0 80 60 00
        E 0 80 62 00
        E 180 90 1f 60
        E 0 90 56 60
        E 0 90 62 60
        E 60 80 1f 00
        E 0 80 56 00
        E 0 80 62 00
        E 180 90 18 60
        E 0 90 1a 60
        E 0 90 3d 60
        E 0 90 49 60
        E 0 90 54 60
        E 0 90 55 60
        E 0 90 60 60
        E 0 90 61 60
        E 60 80 18 00
        E 0 80 1a 00
        E 0 80 3d 00
        E 0 80 49 00
        E 0 80 54 00
        E 0 80 55 00
        E 0 80 60 00
        E 0 80 61 00
        E 180 90 1f 60
        E 0 90 56 60
        E 0 90 62 60
        E 60 80 1f 00
        E 0 80 56 00
        E 0 80 62 00
        E 180 90 18 60
        E 0 90 1f 60
        E 0 90 3e 60
        E 0 90 48 60
        E 0 90 4a 60
        E 0 90 54 60
        E 0 90 56 60
        E 0 90 60 60
        E 0 90 62 60
        E 60 80 18 00
        E 0 80 1f 00
        E 0 80 3e 00
        E 0 80 48 00
        E 0 80 4a 00
        E 0 80 54 00
        E 0 80 56 00
        E 0 80 60 00
        E 0 80 62 00
        E 180 90 1f 60
        E 0 90 56 60
        E 0 90 62 60
        E 60 80 1f 00
        E 0 80 56 00
        E 0 80 62 00
        E 180 90 18 60
        E 0 90 1a 60
        E 0 90 3d 60
        E 0 90 49 60
        E 0 90 54 60
        E 0 90 55 60
        E 0 90 60 60
        E 0 90 61 60
        E 60 80 18 00
        E 0 80 1a 00
        E 0 80 3d 00
        E 0 80 49 00
        E 0 80 54 00
        E 0 80 55 00
        E 0 80 60 00
        E 0 80 61 00
        E 180 90 1f 60
        E 0 90 56 60
        E 0 90 62 60
        E 60 80 1f 00
        E 0 80 56 00
        E 0 80 62 00
        E 180 90 18 60
        E 0 90 1f 60
        E 0 90 3e 60
        E 0 90 48 60
        E 0 90 4a 60
        E 0 90 54 60
        E 0 90 56 60
        E 0 90 60 60
        E 0 90 62 60
        E 60 80 18 00
        E 0 80 1f 00
        E 0 80 3e 00
        E 0 80 48 00
        E 0 80 4a 00
        E 0 80 54 00
        E 0 80 56 00
        E 0 80 60 00
        E 0 80 62 00
        E 180 90 1f 60
        E 0 90 56 60
        E 0 90 62 60
        E 60 80 1f 00
        E 0 80 56 00
        E 0 80 62 00
        E 180 90 18 60
        E 0 90 1a 60
        E 0 90 3d 60
        E 0 90 49 60
        E 0 90 54 60
        E 0 90 55 60
        E 0 90 60 60
        E 0 90 61 60
        E 60 80 18 00
        E 0 80 1a 00
        E 0 80 3d 00
        E 0 80 49 00
        E 0 80 54 00
        E 0 80 55 00
        E 0 80 60 00
        E 0 80 61 00
        E 180 90 1f 60
        E 0 90 56 60
        E 0 90 62 60
        E 60 80 1f 00
        E 0 80 56 00
        E 0 80 62 00
        E 180 90 18 60
        E 0 90 1f 60
        E 0 90 3e 60
        E 0 90 48 60
        E 0 90 4a 60
        E 0 90 54 60
        E 0 90 56 60
        E 0 90 60 60
        E 0 90 62 60
        E 60 80 18 00
        E 0 80 1f 00
        E 0 80 3e 00
        E 0 80 48 00
        E 0 80 4a 00
        E 0 80 54 00
        E 0 80 56 00
        E 0 80 60 00
        E 0 80 62 00
        E 180 90 1f 60
        E 0 90 56 60
        E 0 90 62 60
        E 60 80 1f 00
        E 0 80 56 00
        E 0 80 62 00
        E 180 90 18 60
        E 0 90 1a 60
        E 0 90 3d 60
        E 0 90 49 60
        E 0 90 54 60
        E 0 90 55 60
        E 0 90 60 60
        E 0 90 61 60
        E 60 80 18 00
        E 0 80 1a 00
        E 0 80 3d 00
        E 0 80 49 00
        E 0 80 54 00
        E 0 80 55 00
        E 0 80 60 00
        E 0 80 61 00
        E 180 90 1f 60
        E 0 90 56 60
        E 0 90 62 60
        E 60 80 1f 00
        E 0 80 56 00
        E 0 80 62 00
        E 60 90 1f 60
        E 0 90 62 60
        E 60 80 1f 00
        E 0 80 62 00
        E 60 90 18 60
        E 0 90 1f 60
        E 0 90 3e 60
        E 0 90 48 60
        E 0 90 4a 60
        E 0 90 54 60
        E 0 90 56 60
        E 0 90 60 60
        E 0 90 62 60
        E 60 80 18 00
        E 0 80 1f 00
        E 0 80 3e 00
        E 0 80 48 00
        E 0 80 4a 00
        E 0 80 54 00
        E 0 80 56 00
        E 0 80 60 00
        E 0 80 62 00
        E 60 80 74 00
        E 120 90 1f 60
        E 0 90 56 60
        E 0 90 62 60
        E 60 80 1f 00
        E 0 80 56 00
        E 0 80 62 00
        E 180 90 18 60
        E 0 90 1a 60
        E 0 90 3d 60
        E 0 90 49 60
        E 0 90 54 60
        E 0 90 55 60
        E 0 90 60 60
        E 0 90 61 60
        E 60 80 18 00
        E 0 80 1a 00
        E 0 80 3d 00
        E 0 80 49 00
        E 0 80 54 00
        E 0 80 55 00
        E 0 80 60 00
        E 0 80 61 00
        E 180 90 1f 60
        E 0 90 56 60
        E 0 90 62 60
        E 60 80 1f 00
        E 0 80 56 00
        E 0 80 62 00
        E 180 90 18 60
        E 0 90 1f 60
        E 0 90 3e 60
        E 0 90 48 60
        E 0 90 4a 60
        E 0 90 54 60
        E 0 90 56 60
        E 0 90 60 60
        E 0 90 62 60
        E 60 80 18 00
        E 0 80 1f 00
        E 0 80 3e 00
        E 0 80 48 00
        E 0 80 4a 00
        E 0 80 54 00
        E 0 80 56 00
        E 0 80 60 00
        E 0 80 62 00
        E 180 90 1f 60
        E 0 90 56 60
        E 0 90 62 60
        E 60 80 1f 00
        E 0 80 56 00
        E 0 80 62 00
        E 120 90 78 60
        E 0 90 79 60
        E 0 90 7a 60
        E 0 90 7b 60
        E 0 90 7c 60
        E 60 90 18 60
        E 0 90 1a 60
        E 0 90 3d 60
        E 0 90 49 60
        E 0 90 54 60
        E 0 90 55 60
        E 0 90 60 60
        E 0 90 61 60
        E 60 80 18 00
        E 0 80 1a 00
        E 0 80 3d 00
        E 0 80 49 00
        E 0 80 54 00
        E 0 80 55 00
        E 0 80 60 00
        E 0 80 61 00
        E 180 90 1f 60
        E 0 90 56 60
        E 0 90 62 60
        E 60 80 1f 00
        E 0 80 56 00
        E 0 80 62 00
        E 180 90 18 60
        E 0 90 1f 60
        E 0 90 3e 60
        E 0 90 48 60
        E 0 90 4a 60
        E 0 90 54 60
        E 0 90 56 60
        E 0 90 60 60
        E 0 90 62 60
        E 60 80 18 00
        E 0 80 1f 00
        E 0 80 3e 00
        E 0 80 48 00
        E 0 80 4a 00
        E 0 80 54 00
        E 0 80 56 00
        E 0 80 60 00
        E 0 80 62 00
        E 180 90 1f 60
        E 0 90 56 60
        E 0 90 62 60
        E 60 80 1f 00
        E 0 80 56 00
        E 0 80 62 00
        E 180 80 78 00
        E 0 80 79 00
        E 0 80 7a 00
        E 0 80 7b 00
        E 0 80 7c 00
        E 0 90 18 60
        E 0 90 1a 60
        E 0 90 3d 60
        E 0 90 49 60
        E 0 90 54 60
        E 0 90 55 60
        E 0 90 60 60
        E 0 90 61 60
        E 60 80 18 00
        E 0 80 1a 00
        E 0 80 3d 00
        E 0 80 49 00
        E 0 80 54 00
        E 0 80 55 00
        E 0 80 60 00
        E 0 80 61 00
        E 180 90 1f 60
        E 0 90 56 60
        E 0 90 62 60
        E 60 80 1f 00
        E 0 80 56 00
        E 0 80 62 00
        E 180 90 18 60
        E 0 90 1f 60
        E 0 90 3e 60
        E 0 90 48 60
        E 0 90 4a 60
        E 0 90 54 60
        E 0 90 56 60
        E 0 90 60 60
        E 0 90 62 60
        E 60 80 18 00
        E 0 80 1f 00
        E 0 80 3e 00
        E 0 80 48 00
        E 0 80 4a 00
        E 0 80 54 00
        E 0 80 56 00
        E 0 80 60 00
        E 0 80 62 00
        E 180 90 1a 60
        E 0 90 55 60
        E 0 90 61 60
        E 60 80 1a 00
        E 0 80 55 00
        E 0 80 61 00
        E 180 90 18 60
        E 0 90 1a 60
        E 0 90 3d 60
        E 0 90 49 60
        E 0 90 54 60
        E 0 90 55 60
        E 0 90 60 60
        E 0 90 61 60
        E 60 80 18 00
        E 0 80 1a 00
        E 0 80 3d 00
        E 0 80 49 00
        E 0 80 54 00
        E 0 80 55 00
        E 0 80 60 00
        E 0 80 61 00
        E 180 90 1b 60
        E 0 90 55 60
        E 0 90 61 60
        E 60 80 1b 00
        E 0 80 55 00
        E 0 80 61 00
        E 60 90 1a 60
        E 0 90 61 60
        E 60 80 1a 00
        E 0 80 61 00
        E 60 90 18 60
        E 0 90 26 60
        E 0 90 40 60
        E 0 90 48 60
        E 0 90 4c 60
        E 0 90 54 60
        E 0 90 58 60
        E 0 90 60 60
        E 0 90 64 60
        E 60 80 18 00
        E 0 80 26 00
        E 0 80 40 00
        E 0 80 48 00
        E 0 80 4c 00
        E 0 80 54 00
        E 0 80 58 00
        E 0 80 60 00
        E 0 80 64 00
        E 420 90 18 60
        E 0 90 3c 60
        E 0 90 48 60
        E 0 90 54 60
        E 0 90 60 60
        E 60 80 18 00
        E 0 80 3c 00
        E 0 80 48 00
        E 0 80 54 00
        E 0 80 60 00
        E 180 90 33 60
        E 0 90 58 60
        E 0 90 64 60
        E 0 90 70 60
        E 60 80 33 00
        E 0 80 58 00
        E 0 80 64 00
        E 0 80 70 00
        E 60 90 32 60
        E 0 90 64 60
        E 0 90 70 60
        E 60 80 32 00
        E 0 80 64 00
        E 0 80 70 00
        E 60 90 18 60
        E 0 90 1b 60
        E 0 90 3d 60
        E 0 90 49 60
        E 0 90 54 60
        E 0 90 55 60
        E 0 90 60 60
        E 0 90 61 60
        E 60 80 18 00
        E 0 80 1b 00
        E 0 80 3d 00
        E 0 80 49 00
        E 0 80 54 00
        E 0 80 55 00
        E 0 80 60 00
        E 0 80 61 00
        E 180 90 70 60
        E 1 90 26 60
        E 0 90 58 60
        E 0 90 64 60
        E 59 80 70 00
        E 1 80 26 00
        E 0 80 58 00
        E 0 80 64 00
        E 59 90 32 60
        E 0 90 64 60
        E 0 90 70 60
        E 60 80 32 00
        E 0 80 64 00
        E 0 80 70 00
        E 60 90 18 60
        E 0 90 33 60
        E 0 90 40 60
        E 0 90 4c 60
        E 0 90 54 60
        E 0 90 58 60
        E 0 90 60 60
        E 0 90 64 60
        E 0 90 70 60
        E 60 80 18 00
        E 0 80 33 00
        E 0 80 40 00
        E 0 80 4c 00
        E 0 80 54 00
        E 0 80 58 00
        E 0 80 60 00
        E 0 80 64 00
        E 0 80 70 00
        E 60 90 32 60
        E 0 90 64 60
        E 0 90 70 60
        E 60 80 32 00
        E 0 80 64 00
        E 0 80 70 00
        E 60 90 70 60
        E 1 90 26 60
        E 0 90 58 60
        E 0 90 64 60
        E 59 80 70 00
        E 1 80 26 00
        E 0 80 58 00
        E 0 80 64 00
        E 59 90 70 60
        E 1 90 2c 60
        E 0 90 64 60
        E 59 80 70 00
        E 1 80 2c 00
        E 0 80 64 00
        E 59 90 18 60
        E 0 90 33 60
        E 0 90 40 60
        E 0 90 4c 60
        E 0 90 54 60
        E 0 90 58 60
        E 0 90 60 60
        E 0 90 64 60
        E 0 90 70 60
        E 60 80 18 00
        E 0 80 33 00
        E 0 80 40 00
        E 0 80 4c 00
        E 0 80 54 00
        E 0 80 58 00
        E 0 80 60 00
        E 0 80 64 00
        E 0 80 70 00
        E 180 90 70 60
        E 1 90 26 60
        E 0 90 58 60
        E 0 90 64 60
        E 59 80 70 00
        E 1 80 26 00
        E 0 80 58 00
        E 0 80 64 00
        E 59 90 70 60
        E 1 90 2c 60
        E 0 90 64 60
        E 59 80 70 00
        E 1 80 2c 00
        E 0 80 64 00
        E 59 90 18 60
        E 0 90 33 60
        E 0 90 40 60
        E 0 90 4c 60
        E 0 90 54 60
        E 0 90 58 60
        E 0 90 60 60
        E 0 90 64 60
        E 0 90 70 60
        E 60 80 18 00
        E 0 80 33 00
        E 0 80 40 00
        E 0 80 4c 00
        E 0 80 54 00
        E 0 80 58 00
        E 0 80 60 00
        E 0 80 64 00
        E 0 80 70 00
        E 180 90 70 60
        E 1 90 26 60
        E 0 90 58 60
        E 0 90 64 60
        E 59 80 70 00
        E 1 80 26 00
        E 0 80 58 00
        E 0 80 64 00
        E 59 90 70 60
        E 1 90 2c 60
        E 0 90 64 60
        E 59 80 70 00
        E 1 80 2c 00
        E 0 80 64 00
        E 59 90 18 60
        E 0 90 1b 60
        E 0 90 3d 60
        E 0 90 49 60
        E 0 90 54 60
        E 0 90 55 60
        E 0 90 60 60
        E 0 90 61 60
        E 60 80 18 00
        E 0 80 1b 00
        E 0 80 3d 00
        E 0 80 49 00
        E 0 80 54 00
        E 0 80 55 00
        E 0 80 60 00
        E 0 80 61 00
        E 180 90 70 60
        E 1 90 26 60
        E 0 90 58 60
        E 0 90 64 60
        E 59 80 70 00
        E 1 80 26 00
        E 0 80 58 00
        E 0 80 64 00
        E 59 90 70 60
        E 1 90 2c 60
        E 0 90 64 60
        E 59 80 70 00
        E 1 80 2c 00
        E 0 80 64 00
        E 59 90 18 60
        E 0 90 33 60
        E 0 90 40 60
        E 0 90 4c 60
        E 0 90 54 60
        E 0 90 58 60
        E 0 90 60 60
        E 0 90 64 60
        E 0 90 70 60
        E 60 80 18 00
        E 0 80 33 00
        E 0 80 40 00
        E 0 80 4c 00
        E 0 80 54 00
        E 0 80 58 00
        E 0 80 60 00
        E 0 80 64 00
        E 0 80 70 00
        E 60 90 70 60
        E 1 90 2c 60
        E 0 90 64 60
        E 59 80 70 00
        E 1 80 2c 00
        E 0 80 64 00
        E 59 90 70 60
        E 1 90 26 60
        E 0 90 58 60
        E 0 90 64 60
        E 59 80 70 00
        E 1 80 26 00
        E 0 80 58 00
        E 0 80 64 00
        E 59 90 70 60
        E 1 90 2c 60
        E 0 90 64 60
        E 59 80 70 00
        E 1 80 2c 00
        E 0 80 64 00
        E 59 90 18 60
        E 0 90 33 60
        E 0 90 40 60
        E 0 90 4c 60
        E 0 90 54 60
        E 0 90 58 60
        E 0 90 60 60
        E 0 90 64 60
        E 0 90 70 60
        E 60 80 18 00
        E 0 80 33 00
        E 0 80 40 00
        E 0 80 4c 00
        E 0 80 54 00
        E 0 80 58 00
        E 0 80 60 00
        E 0 80 64 00
        E 0 80 70 00
        E 180 90 70 60
        E 1 90 26 60
        E 0 90 58 60
        E 0 90 64 60
        E 59 80 70 00
        E 1 80 26 00
        E 0 80 58 00
        E 0 80 64 00
        E 59 90 70 60
        E 1 90 2c 60
        E 0 90 64 60
        E 59 80 70 00
        E 1 80 2c 00
        E 0 80 64 00
        E 59 90 18 60
        E 0 90 33 60
        E 0 90 40 60
        E 0 90 4c 60
        E 0 90 54 60
        E 0 90 58 60
        E 0 90 60 60
        E 0 90 64 60
        E 0 90 70 60
        E 60 80 18 00
        E 0 80 33 00
        E 0 80 40 00
        E 0 80 4c 00
        E 0 80 54 00
        E 0 80 58 00
        E 0 80 60 00
        E 0 80 64 00
        E 0 80 70 00
        E 180 90 70 60
        E 1 90 26 60
        E 0 90 58 60
        E 0 90 64 60
        E 59 80 70 00
        E 1 80 26 00
        E 0 80 58 00
        E 0 80 64 00
        E 59 90 70 60
        E 1 90 2c 60
        E 0 90 64 60
        E 59 80 70 00
        E 1 80 2c 00
        E 0 80 64 00
        E 59 90 18 60
        E 0 90 1b 60
        E 0 90 3d 60
        E 0 90 49 60
        E 0 90 54 60
        E 0 90 55 60
        E 0 90 60 60
        E 0 90 61 60
        E 60 80 18 00
        E 0 80 1b 00
        E 0 80 3d 00
        E 0 80 49 00
        E 0 80 54 00
        E 0 80 55 00
        E 0 80 60 00
        E 0 80 61 00
        E 60 90 74 60
        E 120 90 70 60
        E 1 90 26 60
        E 0 90 58 60
        E 0 90 64 60
        E 59 80 70 00
        E 1 80 26 00
        E 0 80 58 00
        E 0 80 64 00
        E 59 90 70 60
        E 1 90 2c 60
        E 0 90 64 60
        E 59 80 70 00
        E 1 80 2c 00
        E 0 80 64 00
        E 59 90 18 60
        E 0 90 33 60
        E 0 90 40 60
        E 0 90 4c 60
        E 0 90 54 60
        E 0 90 58 60
        E 0 90 60 60
        E 0 90 64 60
        E 0 90 70 60
        E 60 80 18 00
        E 0 80 33 00
        E 0 80 40 00
        E 0 80 4c 00
        E 0 80 54 00
        E 0 80 58 00
        E 0 80 60 00
        E 0 80 64 00
        E 0 80 70 00
        E 60 90 70 60
        E 1 90 2c 60
        E 0 90 64 60
        E 59 80 70 00
        E 1 80 2c 00
        E 0 80 64 00
        E 59 90 70 60
        E 1 90 26 60
        E 0 90 58 60
        E 0 90 64 60
        E 59 80 70 00
        E 1 80 26 00
        E 0 80 58 00
        E 0 80 64 00
        E 59 90 70 60
        E 1 90 2c 60
        E 0 90 64 60
        E 59 80 70 00
        E 1 80 2c 00
        E 0 80 64 00
        E 59 90 18 60
        E 0 90 33 60
        E 0 90 40 60
        E 0 90 4c 60
        E 0 90 54 60
        E 0 90 58 60
        E 0 90 60 60
        E 0 90 64 60
        E 0 90 70 60
        E 60 80 18 00
        E 0 80 33 00
        E 0 80 40 00
        E 0 80 4c 00
        E 0 80 54 00
        E 0 80 58 00
        E 0 80 60 00
        E 0 80 64 00
        E 0 80 70 00
        E 180 90 70 60
        E 1 90 26 60
        E 0 90 58 60
        E 0 90 64 60
        E 59 80 70 00
        E 1 80 26 00
        E 0 80 58 00
        E 0 80 64 00
        E 59 90 70 60
        E 1 90 2c 60
        E 0 90 64 60
        E 59 80 70 00
        E 1 80 2c 00
        E 0 80 64 00
        E 59 90 18 60
        E 0 90 33 60
        E 0 90 40 60
        E 0 90 4c 60
        E 0 90 54 60
        E 0 90 58 60
        E 0 90 60 60
        E 0 90 64 60
        E 0 90 70 60
        E 60 80 18 00
        E 0 80 33 00
        E 0 80 40 00
        E 0 80 4c 00
        E 0 80 54 00
        E 0 80 58 00
        E 0 80 60 00
        E 0 80 64 00
        E 0 80 70 00
        E 180 90 70 60
        E 1 90 26 60
        E 0 90 58 60
        E 0 90 64 60
        E 59 80 70 00
        E 1 80 26 00
        E 0 80 58 00
        E 0 80 64 00
        E 59 90 70 60
        E 1 90 2c 60
        E 0 90 64 60
        E 59 80 70 00
        E 1 80 2c 00
        E 0 80 64 00
        E 59 90 18 60
        E 0 90 1b 60
        E 0 90 3d 60
        E 0 90 49 60
        E 0 90 54 60
        E 0 90 55 60
        E 0 90 60 60
        E 0 90 61 60
        E 60 80 18 00
        E 0 80 1b 00
        E 0 80 3d 00
        E 0 80 49 00
        E 0 80 54 00
        E 0 80 55 00
        E 0 80 60 00
        E 0 80 61 00
        E 180 90 70 60
        E 1 90 26 60
        E 0 90 58 60
        E 0 90 64 60
        E 59 80 70 00
        E 1 80 26 00
        E 0 80 58 00
        E 0 80 64 00
        E 59 90 70 60
        E 1 90 2c 60
        E 0 90 64 60
        E 59 80 70 00
        E 1 80 2c 00
        E 0 80 64 00
        E 59 90 18 60
        E 0 90 33 60
        E 0 90 40 60
        E 0 90 4c 60
        E 0 90 54 60
        E 0 90 58 60
        E 0 90 60 60
        E 0 90 64 60
        E 0 90 70 60
        E 60 80 18 00
        E 0 80 33 00
        E 0 80 40 00
        E 0 80 4c 00
        E 0 80 54 00
        E 0 80 58 00
        E 0 80 60 00
        E 0 80 64 00
        E 0 80 70 00
        E 60 90 70 60
        E 1 90 2c 60
        E 0 90 64 60
        E 59 80 70 00
        E 1 80 2c 00
        E 0 80 64 00
        E 59 90 70 60
        E 1 90 26 60
        E 0 90 58 60
        E 0 90 64 60
        E 59 80 70 00
        E 1 80 26 00
        E 0 80 58 00
        E 0 80 64 00
        E 59 90 70 60
        E 1 90 2c 60
        E 0 90 64 60
        E 59 80 70 00
        E 1 80 2c 00
        E 0 80 64 00
        E 59 90 18 60
        E 0 90 33 60
        E 0 90 40 60
        E 0 90 4c 60
        E 0 90 54 60
        E 0 90 58 60
        E 0 90 60 60
        E 0 90 64 60
        E 0 90 70 60
        E 60 80 18 00
        E 0 80 33 00
        E 0 80 40 00
        E 0 80 4c 00
        E 0 80 54 00
        E 0 80 58 00
        E 0 80 60 00
        E 0 80 64 00
        E 0 80 70 00
        E 180 90 70 60
        E 1 90 26 60
        E 0 90 58 60
        E 0 90 64 60
        E 59 80 70 00
        E 1 80 26 00
        E 0 80 58 00
        E 0 80 64 00
        E 59 90 70 60
        E 1 90 2c 60
        E 0 90 64 60
        E 59 80 70 00
        E 1 80 2c 00
        E 0 80 64 00
        E 59 90 18 60
        E 0 90 33 60
        E 0 90 40 60
        E 0 90 4c 60
        E 0 90 54 60
        E 0 90 58 60
        E 0 90 60 60
        E 0 90 64 60
        E 0 90 70 60
        E 60 80 18 00
        E 0 80 33 00
        E 0 80 40 00
        E 0 80 4c 00
        E 0 80 54 00
        E 0 80 58 00
        E 0 80 60 00
        E 0 80 64 00
        E 0 80 70 00
        E 180 90 70 60
        E 1 90 26 60
        E 0 90 58 60
        E 0 90 64 60
        E 59 80 70 00
        E 1 80 26 00
        E 0 80 58 00
        E 0 80 64 00
        E 59 90 70 60
        E 1 90 2c 60
        E 0 90 64 60
        E 59 80 70 00
        E 1 80 2c 00
        E 0 80 64 00
        E 59 90 18 60
        E 0 90 1b 60
        E 0 90 3d 60
        E 0 90 49 60
        E 0 90 54 60
        E 0 90 55 60
        E 0 90 60 60
        E 0 90 61 60
        E 60 80 18 00
        E 0 80 1b 00
        E 0 80 3d 00
        E 0 80 49 00
        E 0 80 54 00
        E 0 80 55 00
        E 0 80 60 00
        E 0 80 61 00
        E 180 90 70 60
        E 1 90 26 60
        E 0 90 58 60
        E 0 90 64 60
        E 59 80 70 00
        E 1 80 26 00
        E 0 80 58 00
        E 0 80 64 00
        E 59 90 70 60
        E 1 90 2c 60
        E 0 90 64 60
        E 59 80 70 00
        E 1 80 2c 00
        E 0 80 64 00
        E 59 90 18 60
        E 0 90 33 60
        E 0 90 40 60
        E 0 90 4c 60
        E 0 90 54 60
        E 0 90 58 60
        E 0 90 60 60
        E 0 90 64 60
        E 0 90 70 60
        E 60 80 18 00
        E 0 80 33 00
        E 0 80 40 00
        E 0 80 4c 00
        E 0 80 54 00
        E 0 80 58 00
        E 0 80 60 00
        E 0 80 64 00
        E 0 80 70 00
        E 60 90 70 60
        E 1 90 2c 60
        E 0 90 64 60
        E 59 80 70 00
        E 1 80 2c 00
        E 0 80 64 00
        E 59 90 70 60
        E 1 90 26 60
        E 0 90 58 60
        E 0 90 64 60
        E 59 80 70 00
        E 1 80 26 00
        E 0 80 58 00
        E 0 80 64 00
        E 59 90 70 60
        E 1 90 2c 60
        E 0 90 64 60
        E 59 80 70 00
        E 1 80 2c 00
        E 0 80 64 00
        E 59 90 18 60
        E 0 90 33 60
        E 0 90 40 60
        E 0 90 4c 60
        E 0 90 54 60
        E 0 90 58 60
        E 0 90 60 60
        E 0 90 64 60
        E 0 90 70 60
        E 60 80 18 00
        E 0 80 33 00
        E 0 80 40 00
        E 0 80 4c 00
        E 0 80 54 00
        E 0 80 58 00
        E 0 80 60 00
        E 0 80 64 00
        E 0 80 70 00
        E 180 90 70 60
        E 1 90 26 60
        E 0 90 58 60
        E 0 90 64 60
        E 59 80 70 00
        E 1 80 26 00
        E 0 80 58 00
        E 0 80 64 00
        E 59 90 70 60
        E 1 90 2c 60
        E 0 90 64 60
        E 59 80 70 00
        E 1 80 2c 00
        E 0 80 64 00
        E 59 90 18 60
        E 0 90 33 60
        E 0 90 40 60
        E 0 90 4c 60
        E 0 90 54 60
        E 0 90 58 60
        E 0 90 60 60
        E 0 90 64 60
        E 0 90 70 60
        E 60 80 18 00
        E 0 80 33 00
        E 0 80 40 00
        E 0 80 4c 00
        E 0 80 54 00
        E 0 80 58 00
        E 0 80 60 00
        E 0 80 64 00
        E 0 80 70 00
        E 180 90 70 60
        E 1 90 26 60
        E 0 90 58 60
        E 0 90 64 60
        E 59 80 70 00
        E 1 80 26 00
        E 0 80 58 00
        E 0 80 64 00
        E 59 90 70 60
        E 1 90 2c 60
        E 0 90 64 60
        E 59 80 70 00
        E 1 80 2c 00
        E 0 80 64 00
        E 59 90 18 60
        E 0 90 1b 60
        E 0 90 3d 60
        E 0 90 49 60
        E 0 90 54 60
        E 0 90 55 60
        E 0 90 60 60
        E 0 90 61 60
        E 60 80 18 00
        E 0 80 1b 00
        E 0 80 3d 00
        E 0 80 49 00
        E 0 80 54 00
        E 0 80 55 00
        E 0 80 60 00
        E 0 80 61 00
        E 60 80 74 00
        E 120 90 70 60
        E 1 90 26 60
        E 0 90 58 60
        E 0 90 64 60
        E 59 80 70 00
        E 1 80 26 00
        E 0 80 58 00
        E 0 80 64 00
        E 59 90 70 60
        E 1 90 2c 60
        E 0 90 64 60
        E 59 80 70 00
        E 1 80 2c 00
        E 0 80 64 00
        E 59 90 18 60
        E 0 90 33 60
        E 0 90 40 60
        E 0 90 4c 60
        E 0 90 54 60
        E 0 90 58 60
        E 0 90 60 60
        E 0 90 64 60
        E 0 90 70 60
        E 60 80 18 00
        E 0 80 33 00
        E 0 80 40 00
        E 0 80 4c 00
        E 0 80 54 00
        E 0 80 58 00
        E 0 80 60 00
        E 0 80 64 00
        E 0 80 70 00
        E 60 90 70 60
        E 1 90 2c 60
        E 0 90 64 60
        E 59 80 70 00
        E 1 80 2c 00
        E 0 80 64 00
        E 59 90 70 60
        E 1 90 26 60
        E 0 90 58 60
        E 0 90 64 60
        E 59 80 70 00
        E 1 80 26 00
        E 0 80 58 00
        E 0 80 64 00
        E 59 90 70 60
        E 1 90 2c 60
        E 0 90 64 60
        E 59 80 70 00
        E 1 80 2c 00
        E 0 80 64 00
        E 59 90 18 60
        E 0 90 33 60
        E 0 90 40 60
        E 0 90 4c 60
        E 0 90 54 60
        E 0 90 58 60
        E 0 90 60 60
        E 0 90 64 60
        E 0 90 70 60
        E 60 80 18 00
        E 0 80 33 00
        E 0 80 40 00
        E 0 80 4c 00
        E 0 80 54 00
        E 0 80 58 00
        E 0 80 60 00
        E 0 80 64 00
        E 0 80 70 00
        E 180 90 70 60
        E 1 90 26 60
        E 0 90 58 60
        E 0 90 64 60
        E 59 80 70 00
        E 1 80 26 00
        E 0 80 58 00
        E 0 80 64 00
        E 59 90 70 60
        E 1 90 2c 60
        E 0 90 64 60
        E 59 80 70 00
        E 1 80 2c 00
        E 0 80 64 00
        E 59 90 18 60
        E 0 90 33 60
        E 0 90 40 60
        E 0 90 4c 60
        E 0 90 54 60
        E 0 90 58 60
        E 0 90 60 60
        E 0 90 64 60
        E 0 90 70 60
        E 60 80 18 00
        E 0 80 33 00
        E 0 80 40 00
        E 0 80 4c 00
        E 0 80 54 00
        E 0 80 58 00
        E 0 80 60 00
        E 0 80 64 00
        E 0 80 70 00
        E 180 90 70 60
        E 1 90 26 60
        E 0 90 58 60
        E 0 90 64 60
        E 59 80 70 00
        E 1 80 26 00
        E 0 80 58 00
        E 0 80 64 00
        E 59 90 70 60
        E 1 90 2c 60
        E 0 90 64 60
        E 59 80 70 00
        E 1 80 2c 00
        E 0 80 64 00
        E 59 90 18 60
        E 0 90 1b 60
        E 0 90 3d 60
        E 0 90 49 60
        E 0 90 54 60
        E 0 90 55 60
        E 0 90 60 60
        E 0 90 61 60
        E 60 80 18 00
        E 0 80 1b 00
        E 0 80 3d 00
        E 0 80 49 00
        E 0 80 54 00
        E 0 80 55 00
        E 0 80 60 00
        E 0 80 61 00
        E 180 90 70 60
        E 1 90 26 60
        E 0 90 58 60
        E 0 90 64 60
        E 59 80 70 00
        E 1 80 26 00
        E 0 80 58 00
        E 0 80 64 00
        E 59 90 70 60
        E 1 90 2c 60
        E 0 90 64 60
        E 59 80 70 00
        E 1 80 2c 00
        E 0 80 64 00
        E 59 90 18 60
        E 0 90 33 60
        E 0 90 40 60
        E 0 90 4c 60
        E 0 90 54 60
        E 0 90 58 60
        E 0 90 60 60
        E 0 90 64 60
        E 0 90 70 60
        E 60 80 18 00
        E 0 80 33 00
        E 0 80 40 00
        E 0 80 4c 00
        E 0 80 54 00
        E 0 80 58 00
        E 0 80 60 00
        E 0 80 64 00
        E 0 80 70 00
        E 60 90 70 60
        E 1 90 2c 60
        E 0 90 64 60
        E 59 80 70 00
        E 1 80 2c 00
        E 0 80 64 00
        E 59 90 70 60
        E 1 90 26 60
        E 0 90 58 60
        E 0 90 64 60
        E 59 80 70 00
        E 1 80 26 00
        E 0 80 58 00
        E 0 80 64 00
        E 59 90 70 60
        E 1 90 2c 60
        E 0 90 64 60
        E 59 80 70 00
        E 1 80 2c 00
        E 0 80 64 00
        E 59 90 18 60
        E 0 90 26 60
        E 0 90 40 60
        E 0 90 48 60
        E 0 90 4c 60
        E 0 90 54 60
        E 0 90 58 60
        E 0 90 60 60
        E 0 90 64 60
        E 60 80 18 00
        E 0 80 26 00
        E 0 80 40 00
        E 0 80 48 00
        E 0 80 4c 00
        E 0 80 54 00
        E 0 80 58 00
        E 0 80 60 00
        E 0 80 64 00
        E 3780 90 18 60
        E 0 90 26 60
        E 0 90 40 60
        E 0 90 48 60
        E 0 90 4c 60
        E 0 90 54 60
        E 0 90 58 60
        E 0 90 60 60
        E 0 90 64 60
        E 60 80 18 00
        E 0 80 26 00
        E 0 80 40 00
        E 0 80 48 00
        E 0 80 4c 00
        E 0 80 54 00
        E 0 80 58 00
        E 0 80 60 00
        E 0 80 64 00
        E 180 90 1f 60
        E 0 90 56 60
        E 0 90 62 60
        E 60 80 1f 00
        E 0 80 56 00
        E 0 80 62 00
        E 180 90 18 60
        E 0 90 1a 60
        E 0 90 1f 60
        E 0 90 3d 60
        E 0 90 3e 60
        E 0 90 49 60
        E 0 90 4a 60
        E 0 90 54 60
        E 0 90 55 60
        E 0 90 56 60
        E 0 90 60 60
        E 0 90 61 60
        E 0 90 62 60
        E 60 80 18 00
        E 0 80 1a 00
        E 0 80 1f 00
        E 0 80 3d 00
        E 0 80 3e 00
        E 0 80 49 00
        E 0 80 4a 00
        E 0 80 54 00
        E 0 80 55 00
        E 0 80 56 00
        E 0 80 60 00
        E 0 80 61 00
        E 0 80 62 00
        E 180 90 1f 60
        E 0 90 56 60
        E 0 90 62 60
        E 60 80 1f 00
        E 0 80 56 00
        E 0 80 62 00
        E 60 90 1e 60
        E 0 90 62 60
        E 60 80 1e 00
        E 0 80 62 00
        E 60 90 18 60
        E 0 90 1f 60
        E 0 90 3e 60
        E 0 90 48 60
        E 0 90 4a 60
        E 0 90 54 60
        E 0 90 56 60
        E 0 90 60 60
        E 0 90 62 60
        E 60 80 18 00
        E 0 80 1f 00
        E 0 80 3e 00
        E 0 80 48 00
        E 0 80 4a 00
        E 0 80 54 00
        E 0 80 56 00
        E 0 80 60 00
        E 0 80 62 00
        E 60 90 1e 60
        E 0 90 62 60
        E 60 80 1e 00
        E 0 80 62 00
        E 60 90 1f 60
        E 0 90 56 60
        E 0 90 62 60
        E 60 80 1f 00
        E 0 80 56 00
        E 0 80 62 00
        E 60 90 1e 60
        E 0 90 62 60
        E 60 80 1e 00
        E 0 80 62 00
        E 60 90 18 60
        E 0 90 1b 60
        E 0 90 3d 60
        E 0 90 49 60
        E 0 90 54 60
        E 0 90 55 60
        E 0 90 60 60
        E 0 90 61 60
        E 60 80 18 00
        E 0 80 1b 00
        E 0 80 3d 00
        E 0 80 49 00
        E 0 80 54 00
        E 0 80 55 00
        E 0 80 60 00
        E 0 80 61 00
        E 180 90 1f 60
        E 0 90 56 60
        E 0 90 62 60
        E 60 80 1f 00
        E 0 80 56 00
        E 0 80 62 00
        E 180 90 18 60
        E 0 90 1f 60
        E 0 90 3e 60
        E 0 90 48 60
        E 0 90 4a 60
        E 0 90 54 60
        E 0 90 56 60
        E 0 90 60 60
        E 0 90 62 60
        E 60 80 18 00
        E 0 80 1f 00
        E 0 80 3e 00
        E 0 80 48 00
        E 0 80 4a 00
        E 0 80 54 00
        E 0 80 56 00
        E 0 80 60 00
        E 0 80 62 00
        E 180 90 1f 60
        E 0 90 56 60
        E 0 90 62 60
        E 60 80 1f 00
        E 0 80 56 00
        E 0 80 62 00
        E 120 90 78 60
        E 0 90 79 60
        E 0 90 7a 60
        E 0 90 7b 60
        E 0 90 7c 60
        E 60 90 18 60
        E 0 90 1a 60
        E 0 90 3d 60
        E 0 90 49 60
        E 0 90 54 60
        E 0 90 55 60
        E 0 90 60 60
        E 0 90 61 60
        E 60 80 18 00
        E 0 80 1a 00
        E 0 80 3d 00
        E 0 80 49 00
        E 0 80 54 00
        E 0 80 55 00
        E 0 80 60 00
        E 0 80 61 00
        E 180 90 1f 60
        E 0 90 56 60
        E 0 90 62 60
        E 60 80 1f 00
        E 0 80 56 00
        E 0 80 62 00
        E 180 90 18 60
        E 0 90 1f 60
        E 0 90 3e 60
        E 0 90 48 60
        E 0 90 4a 60
        E 0 90 54 60
        E 0 90 56 60
        E 0 90 60 60
        E 0 90 62 60
        E 60 80 18 00
        E 0 80 1f 00
        E 0 80 3e 00
        E 0 80 48 00
        E 0 80 4a 00
        E 0 80 54 00
        E 0 80 56 00
        E 0 80 60 00
        E 0 80 62 00
        E 180 90 1f 60
        E 0 90 56 60
        E 0 90 62 60
        E 60 80 1f 00
        E 0 80 56 00
        E 0 80 62 00
        E 60 90 1e 60
        E 0 90 62 60
        E 60 80 1e 00
        E 0 80 62 00
        E 60 80 78 00
        E 0 80 79 00
        E 0 80 7a 00
        E 0 80 7b 00
        E 0 80 7c 00
        E 0 90 18 60
        E 0 90 1b 60
        E 0 90 3d 60
        E 0 90 49 60
        E 0 90 54 60
        E 0 90 55 60
        E 0 90 60 60
        E 0 90 61 60
        E 60 80 18 00
        E 0 80 1b 00
        E 0 80 3d 00
        E 0 80 49 00
        E 0 80 54 00
        E 0 80 55 00
        E 0 80 60 00
        E 0 80 61 00
        E 180 90 1f 60
        E 0 90 56 60
        E 0 90 62 60
        E 60 80 1f 00
        E 0 80 56 00
        E 0 80 62 00
        E 60 90 1e 60
        E 0 90 62 60
        E 60 80 1e 00
        E 0 80 62 00
        E 60 90 18 60
        E 0 90 1f 60
        E 0 90 3e 60
        E 0 90 48 60
        E 0 90 4a 60
        E 0 90 54 60
        E 0 90 56 60
        E 0 90 60 60
        E 0 90 62 60
        E 60 80 18 00
        E 0 80 1f 00
        E 0 80 3e 00
        E 0 80 48 00
        E 0 80 4a 00
        E 0 80 54 00
        E 0 80 56 00
        E 0 80 60 00
        E 0 80 62 00
        E 180 90 1f 60
        E 0 90 56 60
        E 0 90 62 60
        E 60 80 1f 00
        E 0 80 56 00
        E 0 80 62 00
        E 180 90 18 60
        E 0 90 1a 60
        E 0 90 3d 60
        E 0 90 49 60
        E 0 90 54 60
        E 0 90 55 60
        E 0 90 60 60
        E 0 90 61 60
        E 60 80 18 00
        E 0 80 1a 00
        E 0 80 3d 00
        E 0 80 49 00
        E 0 80 54 00
        E 0 80 55 00
        E 0 80 60 00
        E 0 80 61 00
        E 180 90 1f 60
        E 0 90 56 60
        E 0 90 62 60
        E 60 80 1f 00
        E 0 80 56 00
        E 0 80 62 00
        E 180 90 18 60
        E 0 90 1f 60
        E 0 90 3e 60
        E 0 90 48 60
        E 0 90 4a 60
        E 0 90 54 60
        E 0 90 56 60
        E 0 90 60 60
        E 0 90 62 60
        E 60 80 18 00
        E 0 80 1f 00
        E 0 80 3e 00
        E 0 80 48 00
        E 0 80 4a 00
        E 0 80 54 00
        E 0 80 56 00
        E 0 80 60 00
        E 0 80 62 00
        E 180 90 1f 60
        E 0 90 56 60
        E 0 90 62 60
        E 60 80 1f 00
        E 0 80 56 00
        E 0 80 62 00
        E 180 90 18 60
        E 0 90 1a 60
        E 0 90 3d 60
        E 0 90 49 60
        E 0 90 54 60
        E 0 90 55 60
        E 0 90 60 60
        E 0 90 61 60
        E 60 80 18 00
        E 0 80 1a 00
        E 0 80 3d 00
        E 0 80 49 00
        E 0 80 54 00
        E 0 80 55 00
        E 0 80 60 00
        E 0 80 61 00
        E 180 90 1f 60
        E 0 90 56 60
        E 0 90 62 60
        E 60 80 1f 00
        E 0 80 56 00
        E 0 80 62 00
        E 180 90 18 60
        E 0 90 1f 60
        E 0 90 3e 60
        E 0 90 48 60
        E 0 90 4a 60
        E 0 90 54 60
        E 0 90 56 60
        E 0 90 60 60
        E 0 90 62 60
        E 60 80 18 00
        E 0 80 1f 00
        E 0 80 3e 00
        E 0 80 48 00
        E 0 80 4a 00
        E 0 80 54 00
        E 0 80 56 00
        E 0 80 60 00
        E 0 80 62 00
        E 180 90 1f 60
        E 0 90 56 60
        E 0 90 62 60
        E 60 80 1f 00
        E 0 80 56 00
        E 0 80 62 00
        E 180 90 18 60
        E 0 90 1a 60
        E 0 90 3d 60
        E 0 90 49 60
        E 0 90 54 60
        E 0 90 55 60
        E 0 90 60 60
        E 0 90 61 60
        E 60 80 18 00
        E 0 80 1a 00
        E 0 80 3d 00
        E 0 80 49 00
        E 0 80 54 00
        E 0 80 55 00
        E 0 80 60 00
        E 0 80 61 00
        E 180 90 1f 60
        E 0 90 56 60
        E 0 90 62 60
        E 60 80 1f 00
        E 0 80 56 00
        E 0 80 62 00
        E 180 90 18 60
        E 0 90 1f 60
        E 0 90 3e 60
        E 0 90 48 60
        E 0 90 4a 60
        E 0 90 54 60
        E 0 90 56 60
        E 0 90 60 60
        E 0 90 62 60
        E 60 80 18 00
        E 0 80 1f 00
        E 0 80 3e 00
        E 0 80 48 00
        E 0 80 4a 00
        E 0 80 54 00
        E 0 80 56 00
        E 0 80 60 00
        E 0 80 62 00
        E 60 90 1a 60
        E 0 90 61 60
        E 60 80 1a 00
        E 0 80 61 00
        E 60 90 1b 60
        E 0 90 55 60
        E 0 90 61 60
        E 60 80 1b 00
        E 0 80 55 00
        E 0 80 61 00
        E 60 90 1a 60
        E 0 90 61 60
        E 60 80 1a 00
        E 0 80 61 00
        E 59 90 18 60
        E 1 90 1a 60
        E 0 90 3d 60
        E 0 90 49 60
        E 0 90 55 60
        E 0 90 60 60
        E 0 90 61 60
        E 60 80 18 00
        E 0 80 1a 00
        E 0 80 3d 00
        E 0 80 49 00
        E 0 80 55 00
        E 0 80 60 00
        E 0 80 61 00
        E 180 90 1b 60
        E 0 90 55 60
        E 0 90 61 60
        E 60 80 1b 00
        E 0 80 55 00
        E 0 80 61 00
        E 60 90 1a 60
        E 0 90 61 60
        E 60 80 1a 00
        E 0 80 61 00
        E 60 90 18 60
        E 0 90 1f 60
        E 0 90 3e 60
        E 0 90 48 60
        E 0 90 4a 60
        E 0 90 54 60
        E 0 90 56 60
        E 0 90 60 60
        E 0 90 62 60
        E 60 80 18 00
        E 0 80 1f 00
        E 0 80 3e 00
        E 0 80 48 00
        E 0 80 4a 00
        E 0 80 54 00
        E 0 80 56 00
        E 0 80 60 00
        E 0 80 62 00
        E 180 90 1f 60
        E 0 90 56 60
        E 0 90 62 60
        E 60 80 1f 00
        E 0 80 56 00
        E 0 80 62 00
        E 180 90 18 60
        E 0 90 1a 60
        E 0 90 3d 60
        E 0 90 49 60
        E 0 90 54 60
        E 0 90 55 60
        E 0 90 60 60
        E 0 90 61 60
        E 60 80 18 00
        E 0 80 1a 00
        E 0 80 3d 00
        E 0 80 49 00
        E 0 80 54 00
        E 0 80 55 00
        E 0 80 60 00
        E 0 80 61 00
        E 180 90 1f 60
        E 0 90 56 60
        E 0 90 62 60
        E 60 80 1f 00
        E 0 80 56 00
        E 0 80 62 00
        E 180 90 18 60
        E 0 90 1f 60
        E 0 90 3e 60
        E 0 90 48 60
        E 0 90 4a 60
        E 0 90 54 60
        E 0 90 56 60
        E 0 90 60 60
        E 0 90 62 60
        E 60 80 18 00
        E 0 80 1f 00
        E 0 80 3e 00
        E 0 80 48 00
        E 0 80 4a 00
        E 0 80 54 00
        E 0 80 56 00
        E 0 80 60 00
        E 0 80 62 00
        E 180 90 1f 60
        E 0 90 56 60
        E 0 90 62 60
        E 60 80 1f 00
        E 0 80 56 00
        E 0 80 62 00
        E 180 90 18 60
        E 0 90 1a 60
        E 0 90 3d 60
        E 0 90 49 60
        E 0 90 54 60
        E 0 90 55 60
        E 0 90 60 60
        E 0 90 61 60
        E 60 80 18 00
        E 0 80 1a 00
        E 0 80 3d 00
        E 0 80 49 00
        E 0 80 54 00
        E 0 80 55 00
        E 0 80 60 00
        E 0 80 61 00
        E 180 90 1f 60
        E 0 90 56 60
        E 0 90 62 60
        E 60 80 1f 00
        E 0 80 56 00
        E 0 80 62 00
        E 180 90 18 60
        E 0 90 1f 60
        E 0 90 3e 60
        E 0 90 48 60
        E 0 90 4a 60
        E 0 90 54 60
        E 0 90 56 60
        E 0 90 60 60
        E 0 90 62 60
        E 60 80 18 00
        E 0 80 1f 00
        E 0 80 3e 00
        E 0 80 48 00
        E 0 80 4a 00
        E 0 80 54 00
        E 0 80 56 00
        E 0 80 60 00
        E 0 80 62 00
        E 180 90 1f 60
        E 0 90 56 60
        E 0 90 62 60
        E 60 80 1f 00
        E 0 80 56 00
        E 0 80 62 00
        E 180 90 18 60
        E 0 90 1a 60
        E 0 90 3d 60
        E 0 90 49 60
        E 0 90 54 60
        E 0 90 55 60
        E 0 90 60 60
        E 0 90 61 60
        E 60 80 18 00
        E 0 80 1a 00
        E 0 80 3d 00
        E 0 80 49 00
        E 0 80 54 00
        E 0 80 55 00
        E 0 80 60 00
        E 0 80 61 00
        E 180 90 1f 60
        E 0 90 56 60
        E 0 90 62 60
        E 60 80 1f 00
        E 0 80 56 00
        E 0 80 62 00
        E 180 90 18 60
        E 0 90 1f 60
        E 0 90 3e 60
        E 0 90 48 60
        E 0 90 4a 60
        E 0 90 54 60
        E 0 90 56 60
        E 0 90 60 60
        E 0 90 62 60
        E 60 80 18 00
        E 0 80 1f 00
        E 0 80 3e 00
        E 0 80 48 00
        E 0 80 4a 00
        E 0 80 54 00
        E 0 80 56 00
        E 0 80 60 00
        E 0 80 62 00
        E 180 90 1f 60
        E 0 90 56 60
        E 0 90 62 60
        E 60 80 1f 00
        E 0 80 56 00
        E 0 80 62 00
        E 180 90 18 60
        E 0 90 1a 60
        E 0 90 3d 60
        E 0 90 49 60
        E 0 90 54 60
        E 0 90 55 60
        E 0 90 60 60
        E 0 90 61 60
        E 60 80 18 00
        E 0 80 1a 00
        E 0 80 3d 00
        E 0 80 49 00
        E 0 80 54 00
        E 0 80 55 00
        E 0 80 60 00
        E 0 80 61 00
        E 180 90 1f 60
        E 0 90 56 60
        E 0 90 62 60
        E 60 80 1f 00
        E 0 80 56 00
        E 0 80 62 00
        E 60 90 1f 60
        E 0 90 62 60
        E 60 80 1f 00
        E 0 80 62 00
        E 60 90 18 60
        E 0 90 1f 60
        E 0 90 3e 60
        E 0 90 48 60
        E 0 90 4a 60
        E 0 90 54 60
        E 0 90 56 60
        E 0 90 60 60
        E 0 90 62 60
        E 60 80 18 00
        E 0 80 1f 00
        E 0 80 3e 00
        E 0 80 48 00
        E 0 80 4a 00
        E 0 80 54 00
        E 0 80 56 00
        E 0 80 60 00
        E 0 80 62 00
        E 180 90 1f 60
        E 0 90 56 60
        E 0 90 62 60
        E 60 80 1f 00
        E 0 80 56 00
        E 0 80 62 00
        E 180 90 18 60
        E 0 90 1a 60
        E 0 90 3d 60
        E 0 90 49 60
        E 0 90 54 60
        E 0 90 55 60
        E 0 90 60 60
        E 0 90 61 60
        E 60 80 18 00
        E 0 80 1a 00
        E 0 80 3d 00
        E 0 80 49 00
        E 0 80 54 00
        E 0 80 55 00
        E 0 80 60 00
        E 0 80 61 00
        E 180 90 1f 60
        E 0 90 56 60
        E 0 90 62 60
        E 60 80 1f 00
        E 0 80 56 00
        E 0 80 62 00
        E 180 90 18 60
        E 0 90 1f 60
        E 0 90 3e 60
        E 0 90 48 60
        E 0 90 4a 60
        E 0 90 54 60
        E 0 90 56 60
        E 0 90 60 60
        E 0 90 62 60
        E 60 80 18 00
        E 0 80 1f 00
        E 0 80 3e 00
        E 0 80 48 00
        E 0 80 4a 00
        E 0 80 54 00
        E 0 80 56 00
        E 0 80 60 00
        E 0 80 62 00
        E 180 90 1f 60
        E 0 90 56 60
        E 0 90 62 60
        E 60 80 1f 00
        E 0 80 56 00
        E 0 80 62 00
        E 180 90 18 60
        E 0 90 1a 60
        E 0 90 3d 60
        E 0 90 49 60
        E 0 90 54 60
        E 0 90 55 60
        E 0 90 60 60
        E 0 90 61 60
        E 60 80 18 00
        E 0 80 1a 00
        E 0 80 3d 00
        E 0 80 49 00
        E 0 80 54 00
        E 0 80 55 00
        E 0 80 60 00
        E 0 80 61 00
        E 180 90 1f 60
        E 0 90 56 60
        E 0 90 62 60
        E 60 80 1f 00
        E 0 80 56 00
        E 0 80 62 00
        E 180 90 18 60
        E 0 90 1f 60
        E 0 90 3e 60
        E 0 90 48 60
        E 0 90 4a 60
        E 0 90 54 60
        E 0 90 56 60
        E 0 90 60 60
        E 0 90 62 60
        E 60 80 18 00
        E 0 80 1f 00
        E 0 80 3e 00
        E 0 80 48 00
        E 0 80 4a 00
        E 0 80 54 00
        E 0 80 56 00
        E 0 80 60 00
        E 0 80 62 00
        E 180 90 1f 60
        E 0 90 56 60
        E 0 90 62 60
        E 60 80 1f 00
        E 0 80 56 00
        E 0 80 62 00
        E 180 90 18 60
        E 0 90 1a 60
        E 0 90 3d 60
        E 0 90 49 60
        E 0 90 54 60
        E 0 90 55 60
        E 0 90 60 60
        E 0 90 61 60
        E 60 80 18 00
        E 0 80 1a 00
        E 0 80 3d 00
        E 0 80 49 00
        E 0 80 54 00
        E 0 80 55 00
        E 0 80 60 00
        E 0 80 61 00
        E 180 90 1f 60
        E 0 90 56 60
        E 0 90 62 60
        E 60 80 1f 00
        E 0 80 56 00
        E 0 80 62 00
        E 180 90 18 60
        E 0 90 1f 60
        E 0 90 3e 60
        E 0 90 48 60
        E 0 90 4a 60
        E 0 90 54 60
        E 0 90 56 60
        E 0 90 60 60
        E 0 90 62 60
        E 60 80 18 00
        E 0 80 1f 00
        E 0 80 3e 00
        E 0 80 48 00
        E 0 80 4a 00
        E 0 80 54 00
        E 0 80 56 00
        E 0 80 60 00
        E 0 80 62 00
        E 180 90 1a 60
        E 0 90 55 60
        E 0 90 61 60
        E 60 80 1a 00
        E 0 80 55 00
        E 0 80 61 00
        E 180 90 18 60
        E 0 90 1a 60
        E 0 90 3d 60
        E 0 90 49 60
        E 0 90 54 60
        E 0 90 55 60
        E 0 90 60 60
        E 0 90 61 60
        E 60 80 18 00
        E 0 80 1a 00
        E 0 80 3d 00
        E 0 80 49 00
        E 0 80 54 00
        E 0 80 55 00
        E 0 80 60 00
        E 0 80 61 00
        E 180 90 1b 60
        E 0 90 55 60
        E 0 90 61 60
        E 60 80 1b 00
        E 0 80 55 00
        E 0 80 61 00
        E 44 90 74 60
        E 16 90 1a 60
        E 0 90 61 60
        E 60 80 1a 00
        E 0 80 61 00
        E 60 90 18 60
        E 0 90 26 60
        E 0 90 40 60
        E 0 90 48 60
        E 0 90 4c 60
        E 0 90 54 60
        E 0 90 58 60
        E 0 90 60 60
        E 0 90 64 60
        E 60 80 18 00
        E 0 80 26 00
        E 0 80 40 00
        E 0 80 48 00
        E 0 80 4c 00
        E 0 80 54 00
        E 0 80 58 00
        E 0 80 60 00
        E 0 80 64 00
        E 180 90 1f 60
        E 0 90 56 60
        E 0 90 62 60
        E 60 80 1f 00
        E 0 80 56 00
        E 0 80 62 00
        E 180 90 18 60
        E 0 90 1a 60
        E 0 90 1f 60
        E 0 90 3d 60
        E 0 90 3e 60
        E 0 90 49 60
        E 0 90 4a 60
        E 0 90 54 60
        E 0 90 55 60
        E 0 90 56 60
        E 0 90 60 60
        E 0 90 61 60
        E 0 90 62 60
        E 60 80 18 00
        E 0 80 1a 00
        E 0 80 1f 00
        E 0 80 3d 00
        E 0 80 3e 00
        E 0 80 49 00
        E 0 80 4a 00
        E 0 80 54 00
        E 0 80 55 00
        E 0 80 56 00
        E 0 80 60 00
        E 0 80 61 00
        E 0 80 62 00
        E 180 90 1f 60
        E 0 90 56 60
        E 0 90 62 60
        E 60 80 1f 00
        E 0 80 56 00
        E 0 80 62 00
        E 180 90 18 60
        E 0 90 1f 60
        E 0 90 3e 60
        E 0 90 48 60
        E 0 90 4a 60
        E 0 90 54 60
        E 0 90 56 60
        E 0 90 60 60
        E 0 90 62 60
        E 60 80 18 00
        E 0 80 1f 00
        E 0 80 3e 00
        E 0 80 48 00
        E 0 80 4a 00
        E 0 80 54 00
        E 0 80 56 00
        E 0 80 60 00
        E 0 80 62 00
        E 180 90 1f 60
        E 0 90 56 60
        E 0 90 62 60
        E 60 80 1f 00
        E 0 80 56 00
        E 0 80 62 00
        E 60 90 1f 60
        E 0 90 62 60
        E 60 80 1f 00
        E 0 80 62 00
        E 60 90 18 60
        E 0 90 1a 60
        E 0 90 3d 60
        E 0 90 49 60
        E 0 90 54 60
        E 0 90 55 60
        E 0 90 60 60
        E 0 90 61 60
        E 60 80 18 00
        E 0 80 1a 00
        E 0 80 3d 00
        E 0 80 49 00
        E 0 80 54 00
        E 0 80 55 00
        E 0 80 60 00
        E 0 80 61 00
        E 180 90 1f 60
        E 0 90 56 60
        E 0 90 62 60
        E 60 80 1f 00
        E 0 80 56 00
        E 0 80 62 00
        E 180 90 18 60
        E 0 90 1f 60
        E 0 90 3e 60
        E 0 90 48 60
        E 0 90 4a 60
        E 0 90 54 60
        E 0 90 56 60
        E 0 90 60 60
        E 0 90 62 60
        E 60 80 18 00
        E 0 80 1f 00
        E 0 80 3e 00
        E 0 80 48 00
        E 0 80 4a 00
        E 0 80 54 00
        E 0 80 56 00
        E 0 80 60 00
        E 0 80 62 00
        E 180 90 1f 60
        E 0 90 56 60
        E 0 90 62 60
        E 60 80 1f 00
        E 0 80 56 00
        E 0 80 62 00
        E 180 90 18 60
        E 0 90 1a 60
        E 0 90 3d 60
        E 0 90 49 60
        E 0 90 54 60
        E 0 90 55 60
        E 0 90 60 60
        E 0 90 61 60
        E 60 80 18 00
        E 0 80 1a 00
        E 0 80 3d 00
        E 0 80 49 00
        E 0 80 54 00
        E 0 80 55 00
        E 0 80 60 00
        E 0 80 61 00
        E 180 90 1f 60
        E 0 90 56 60
        E 0 90 62 60
        E 60 80 1f 00
        E 0 80 56 00
        E 0 80 62 00
        E 180 90 18 60
        E 0 90 1f 60
        E 0 90 3e 60
        E 0 90 48 60
        E 0 90 4a 60
        E 0 90 54 60
        E 0 90 56 60
        E 0 90 60 60
        E 0 90 62 60
        E 60 80 18 00
        E 0 80 1f 00
        E 0 80 3e 00
        E 0 80 48 00
        E 0 80 4a 00
        E 0 80 54 00
        E 0 80 56 00
        E 0 80 60 00
        E 0 80 62 00
        E 180 90 1f 60
        E 0 90 56 60
        E 0 90 62 60
        E 60 80 1f 00
        E 0 80 56 00
        E 0 80 62 00
        E 179 90 18 60
        E 1 90 1a 60
        E 0 90 3d 60
        E 0 90 49 60
        E 0 90 55 60
        E 0 90 60 60
        E 0 90 61 60
        E 60 80 18 00
        E 0 80 1a 00
        E 0 80 3d 00
        E 0 80 49 00
        E 0 80 55 00
        E 0 80 60 00
        E 0 80 61 00
        E 180 90 1f 60
        E 0 90 56 60
        E 0 90 62 60
        E 60 80 1f 00
        E 0 80 56 00
        E 0 80 62 00
        E 60 90 1f 60
        E 0 90 62 60
        E 60 80 1f 00
        E 0 80 62 00
        E 60 90 18 60
        E 0 90 1f 60
        E 0 90 3e 60
        E 0 90 48 60
        E 0 90 4a 60
        E 0 90 54 60
        E 0 90 56 60
        E 0 90 60 60
        E 0 90 62 60
        E 60 80 18 00
        E 0 80 1f 00
        E 0 80 3e 00
        E 0 80 48 00
        E 0 80 4a 00
        E 0 80 54 00
        E 0 80 56 00
        E 0 80 60 00
        E 0 80 62 00
        E 180 90 1f 60
        E 0 90 56 60
        E 0 90 62 60
        E 60 80 1f 00
        E 0 80 56 00
        E 0 80 62 00
        E 180 90 18 60
        E 0 90 1a 60
        E 0 90 3d 60
        E 0 90 49 60
        E 0 90 54 60
        E 0 90 55 60
        E 0 90 60 60
        E 0 90 61 60
        E 60 80 18 00
        E 0 80 1a 00
        E 0 80 3d 00
        E 0 80 49 00
        E 0 80 54 00
        E 0 80 55 00
        E 0 80 60 00
        E 0 80 61 00
        E 180 90 1f 60
        E 0 90 56 60
        E 0 90 62 60
        E 60 80 1f 00
        E 0 80 56 00
        E 0 80 62 00
        E 180 90 18 60
        E 0 90 1f 60
        E 0 90 3e 60
        E 0 90 48 60
        E 0 90 4a 60
        E 0 90 54 60
        E 0 90 56 60
        E 0 90 60 60
        E 0 90 62 60
        E 60 80 18 00
        E 0 80 1f 00
        E 0 80 3e 00
        E 0 80 48 00
        E 0 80 4a 00
        E 0 80 54 00
        E 0 80 56 00
        E 0 80 60 00
        E 0 80 62 00
        E 180 90 1f 60
        E 0 90 56 60
        E 0 90 62 60
        E 60 80 1f 00
        E 0 80 56 00
        E 0 80 62 00
        E 180 90 18 60
        E 0 90 1a 60
        E 0 90 3d 60
        E 0 90 49 60
        E 0 90 54 60
        E 0 90 55 60
        E 0 90 60 60
        E 0 90 61 60
        E 60 80 18 00
        E 0 80 1a 00
        E 0 80 3d 00
        E 0 80 49 00
        E 0 80 54 00
        E 0 80 55 00
        E 0 80 60 00
        E 0 80 61 00
        E 180 90 1f 60
        E 0 90 56 60
        E 0 90 62 60
        E 60 80 1f 00
        E 0 80 56 00
        E 0 80 62 00
        E 180 90 18 60
        E 0 90 1f 60
        E 0 90 3e 60
        E 0 90 48 60
        E 0 90 4a 60
        E 0 90 54 60
        E 0 90 56 60
        E 0 90 60 60
        E 0 90 62 60
        E 60 80 18 00
        E 0 80 1f 00
        E 0 80 3e 00
        E 0 80 48 00
        E 0 80 4a 00
        E 0 80 54 00
        E 0 80 56 00
        E 0 80 60 00
        E 0 80 62 00
        E 180 90 1f 60
        E 0 90 56 60
        E 0 90 62 60
        E 60 80 1f 00
        E 0 80 56 00
        E 0 80 62 00
        E 180 90 18 60
        E 0 90 1a 60
        E 0 90 3d 60
        E 0 90 49 60
        E 0 90 54 60
        E 0 90 55 60
        E 0 90 60 60
        E 0 90 61 60
        E 60 80 18 00
        E 0 80 1a 00
        E 0 80 3d 00
        E 0 80 49 00
        E 0 80 54 00
        E 0 80 55 00
        E 0 80 60 00
        E 0 80 61 00
        E 153 80 74 00
        E 27 90 1f 60
        E 0 90 56 60
        E 0 90 62 60
        E 60 80 1f 00
        E 0 80 56 00
        E 0 80 62 00
        E 180 90 18 60
        E 0 90 1f 60
        E 0 90 3e 60
        E 0 90 48 60
        E 0 90 4a 60
        E 0 90 54 60
        E 0 90 56 60
        E 0 90 60 60
        E 0 90 62 60
        E 60 80 18 00
        E 0 80 1f 00
        E 0 80 3e 00
        E 0 80 48 00
        E 0 80 4a 00
        E 0 80 54 00
        E 0 80 56 00
        E 0 80 60 00
        E 0 80 62 00
        E 60 90 1a 60
        E 0 90 61 60
        E 60 80 1a 00
        E 0 80 61 00
        E 60 90 1b 60
        E 0 90 55 60
        E 0 90 61 60
        E 60 80 1b 00
        E 0 80 55 00
        E 0 80 61 00
        E 60 90 1a 60
        E 0 90 61 60
        E 60 80 1a 00
        E 0 80 61 00
        E 60 90 18 60
        E 0 90 1b 60
        E 0 90 3d 60
        E 0 90 49 60
        E 0 90 54 60
        E 0 90 55 60
        E 0 90 60 60
        E 0 90 61 60
        E 60 80 18 00
        E 0 80 1b 00
        E 0 80 3d 00
        E 0 80 49 00
        E 0 80 54 00
        E 0 80 55 00
        E 0 80 60 00
        E 0 80 61 00
        E 180 90 1b 60
        E 0 90 55 60
        E 0 90 61 60
        E 60 80 1b 00
        E 0 80 55 00
        E 0 80 61 00
        E 60 90 1a 60
        E 0 90 61 60
        E 60 80 1a 00
        E 0 80 61 00
        E 60 90 18 60
        E 0 90 1f 60
        E 0 90 3e 60
        E 0 90 48 60
        E 0 90 4a 60
        E 0 90 54 60
        E 0 90 56 60
        E 0 90 60 60
        E 0 90 62 60
        E 60 80 18 00
        E 0 80 1f 00
        E 0 80 3e 00
        E 0 80 48 00
        E 0 80 4a 00
        E 0 80 54 00
        E 0 80 56 00
        E 0 80 60 00
        E 0 80 62 00
        E 180 90 1f 60
        E 0 90 56 60
        E 0 90 62 60
        E 60 80 1f 00
        E 0 80 56 00
        E 0 80 62 00
        E 120 90 78 60
        E 0 90 79 60
        E 0 90 7a 60
        E 0 90 7b 60
        E 0 90 7c 60
        E 60 90 18 60
        E 0 90 1a 60
        E 0 90 3d 60
        E 0 90 49 60
        E 0 90 54 60
        E 0 90 55 60
        E 0 90 60 60
        E 0 90 61 60
        E 60 80 18 00
        E 0 80 1a 00
        E 0 80 3d 00
        E 0 80 49 00
        E 0 80 54 00
        E 0 80 55 00
        E 0 80 60 00
        E 0 80 61 00
        E 180 90 1f 60
        E 0 90 56 60
        E 0 90 62 60
        E 60 80 1f 00
        E 0 80 56 00
        E 0 80 62 00
        E 180 90 18 60
        E 0 90 1f 60
        E 0 90 3e 60
        E 0 90 48 60
        E 0 90 4a 60
        E 0 90 54 60
        E 0 90 56 60
        E 0 90 60 60
        E 0 90 62 60
        E 60 80 18 00
        E 0 80 1f 00
        E 0 80 3e 00
        E 0 80 48 00
        E 0 80 4a 00
        E 0 80 54 00
        E 0 80 56 00
        E 0 80 60 00
        E 0 80 62 00
        E 180 90 1f 60
        E 0 90 56 60
        E 0 90 62 60
        E 60 80 1f 00
        E 0 80 56 00
        E 0 80 62 00
        E 180 80 78 00
        E 0 80 79 00
        E 0 80 7a 00
        E 0 80 7b 00
        E 0 80 7c 00
        E 0 90 18 60
        E 0 90 1a 60
        E 0 90 3d 60
        E 0 90 49 60
        E 0 90 54 60
        E 0 90 55 60
        E 0 90 60 60
        E 0 90 61 60
        E 60 80 18 00
        E 0 80 1a 00
        E 0 80 3d 00
        E 0 80 49 00
        E 0 80 54 00
        E 0 80 55 00
        E 0 80 60 00
        E 0 80 61 00
        E 180 90 1f 60
        E 0 90 56 60
        E 0 90 62 60
        E 60 80 1f 00
        E 0 80 56 00
        E 0 80 62 00
        E 180 90 18 60
        E 0 90 1f 60
        E 0 90 3e 60
        E 0 90 48 60
        E 0 90 4a 60
        E 0 90 54 60
        E 0 90 56 60
        E 0 90 60 60
        E 0 90 62 60
        E 60 80 18 00
        E 0 80 1f 00
        E 0 80 3e 00
        E 0 80 48 00
        E 0 80 4a 00
        E 0 80 54 00
        E 0 80 56 00
        E 0 80 60 00
        E 0 80 62 00
        E 180 90 1f 60
        E 0 90 56 60
        E 0 90 62 60
        E 60 80 1f 00
        E 0 80 56 00
        E 0 80 62 00
        E 180 90 18 60
        E 0 90 1a 60
        E 0 90 3d 60
        E 0 90 49 60
        E 0 90 54 60
        E 0 90 55 60
        E 0 90 60 60
        E 0 90 61 60
        E 60 80 18 00
        E 0 80 1a 00
        E 0 80 3d 00
        E 0 80 49 00
        E 0 80 54 00
        E 0 80 55 00
        E 0 80 60 00
        E 0 80 61 00
        E 180 90 1f 60
        E 0 90 56 60
        E 0 90 62 60
        E 60 80 1f 00
        E 0 80 56 00
        E 0 80 62 00
        E 180 90 18 60
        E 0 90 1f 60
        E 0 90 3e 60
        E 0 90 48 60
        E 0 90 4a 60
        E 0 90 54 60
        E 0 90 56 60
        E 0 90 60 60
        E 0 90 62 60
        E 60 80 18 00
        E 0 80 1f 00
        E 0 80 3e 00
        E 0 80 48 00
        E 0 80 4a 00
        E 0 80 54 00
        E 0 80 56 00
        E 0 80 60 00
        E 0 80 62 00
        E 180 90 1f 60
        E 0 90 56 60
        E 0 90 62 60
        E 60 80 1f 00
        E 0 80 56 00
        E 0 80 62 00
        E 180 90 18 60
        E 0 90 1a 60
        E 0 90 3d 60
        E 0 90 49 60
        E 0 90 54 60
        E 0 90 55 60
        E 0 90 60 60
        E 0 90 61 60
        E 60 80 18 00
        E 0 80 1a 00
        E 0 80 3d 00
        E 0 80 49 00
        E 0 80 54 00
        E 0 80 55 00
        E 0 80 60 00
        E 0 80 61 00
        E 180 90 1f 60
        E 0 90 56 60
        E 0 90 62 60
        E 60 80 1f 00
        E 0 80 56 00
        E 0 80 62 00
        E 60 90 1f 60
        E 0 90 62 60
        E 60 80 1f 00
        E 0 80 62 00
        E 60 90 18 60
        E 0 90 1f 60
        E 0 90 3e 60
        E 0 90 48 60
        E 0 90 4a 60
        E 0 90 54 60
        E 0 90 56 60
        E 0 90 60 60
        E 0 90 62 60
        E 60 80 18 00
        E 0 80 1f 00
        E 0 80 3e 00
        E 0 80 48 00
        E 0 80 4a 00
        E 0 80 54 00
        E 0 80 56 00
        E 0 80 60 00
        E 0 80 62 00
        E 180 90 1f 60
        E 0 90 56 60
        E 0 90 62 60
        E 60 80 1f 00
        E 0 80 56 00
        E 0 80 62 00
        E 180 90 18 60
        E 0 90 1a 60
        E 0 90 3d 60
        E 0 90 49 60
        E 0 90 54 60
        E 0 90 55 60
        E 0 90 60 60
        E 0 90 61 60
        E 60 80 18 00
        E 0 80 1a 00
        E 0 80 3d 00
        E 0 80 49 00
        E 0 80 54 00
        E 0 80 55 00
        E 0 80 60 00
        E 0 80 61 00
        E 180 90 1f 60
        E 0 90 56 60
        E 0 90 62 60
        E 60 80 1f 00
        E 0 80 56 00
        E 0 80 62 00
        E 180 90 18 60
        E 0 90 1f 60
        E 0 90 3e 60
        E 0 90 48 60
        E 0 90 4a 60
        E 0 90 54 60
        E 0 90 56 60
        E 0 90 60 60
        E 0 90 62 60
        E 60 80 18 00
        E 0 80 1f 00
        E 0 80 3e 00
        E 0 80 48 00
        E 0 80 4a 00
        E 0 80 54 00
        E 0 80 56 00
        E 0 80 60 00
        E 0 80 62 00
        E 180 90 1f 60
        E 0 90 56 60
        E 0 90 62 60
        E 60 80 1f 00
        E 0 80 56 00
        E 0 80 62 00
        E 179 90 18 60
        E 1 90 1a 60
        E 0 90 3d 60
        E 0 90 49 60
        E 0 90 55 60
        E 0 90 60 60
        E 0 90 61 60
        E 60 80 18 00
        E 0 80 1a 00
        E 0 80 3d 00
        E 0 80 49 00
        E 0 80 55 00
        E 0 80 60 00
        E 0 80 61 00
        E 180 90 1f 60
        E 0 90 56 60
        E 0 90 62 60
        E 60 80 1f 00
        E 0 80 56 00
        E 0 80 62 00
        E 180 90 18 60
        E 0 90 1f 60
        E 0 90 3e 60
        E 0 90 48 60
        E 0 90 4a 60
        E 0 90 54 60
        E 0 90 56 60
        E 0 90 60 60
        E 0 90 62 60
        E 60 80 18 00
        E 0 80 1f 00
        E 0 80 3e 00
        E 0 80 48 00
        E 0 80 4a 00
        E 0 80 54 00
        E 0 80 56 00
        E 0 80 60 00
        E 0 80 62 00
        E 180 90 1f 60
        E 0 90 56 60
        E 0 90 62 60
        E 60 80 1f 00
        E 0 80 56 00
        E 0 80 62 00
        E 180 90 18 60
        E 0 90 1a 60
        E 0 90 3d 60
        E 0 90 49 60
        E 0 90 54 60
        E 0 90 55 60
        E 0 90 60 60
        E 0 90 61 60
        E 60 80 18 00
        E 0 80 1a 00
        E 0 80 3d 00
        E 0 80 49 00
        E 0 80 54 00
        E 0 80 55 00
        E 0 80 60 00
        E 0 80 61 00
        E 180 90 1f 60
        E 0 90 56 60
        E 0 90 62 60
        E 60 80 1f 00
        E 0 80 56 00
        E 0 80 62 00
        E 180 90 18 60
        E 0 90 1f 60
        E 0 90 3e 60
        E 0 90 48 60
        E 0 90 4a 60
        E 0 90 54 60
        E 0 90 56 60
        E 0 90 60 60
        E 0 90 62 60
        E 60 80 18 00
        E 0 80 1f 00
        E 0 80 3e 00
        E 0 80 48 00
        E 0 80 4a 00
        E 0 80 54 00
        E 0 80 56 00
        E 0 80 60 00
        E 0 80 62 00
        E 180 90 1a 60
        E 0 90 55 60
        E 0 90 61 60
        E 60 80 1a 00
        E 0 80 55 00
        E 0 80 61 00
        E 179 90 18 60
        E 1 90 1a 60
        E 0 90 3d 60
        E 0 90 49 60
        E 0 90 55 60
        E 0 90 60 60
        E 0 90 61 60
        E 60 80 18 00
        E 0 80 1a 00
        E 0 80 3d 00
        E 0 80 49 00
        E 0 80 55 00
        E 0 80 60 00
        E 0 80 61 00
        E 180 90 1b 60
        E 0 90 55 60
        E 0 90 61 60
        E 60 80 1b 00
        E 0 80 55 00
        E 0 80 61 00
        E 60 90 1a 60
        E 0 90 61 60
        E 60 80 1a 00
        E 0 80 61 00
        E 60 90 18 60
        E 0 90 26 60
        E 0 90 40 60
        E 0 90 48 60
        E 0 90 4c 60
        E 0 90 54 60
        E 0 90 58 60
        E 0 90 60 60
        E 0 90 64 60
        E 60 80 18 00
        E 0 80 26 00
        E 0 80 40 00
        E 0 80 48 00
        E 0 80 4c 00
        E 0 80 54 00
        E 0 80 58 00
        E 0 80 60 00
        E 0 80 64 00
        E 180 90 1f 60
        E 0 90 56 60
        E 0 90 62 60
        E 60 80 1f 00
        E 0 80 56 00
        E 0 80 62 00
        E 180 90 18 60
        E 0 90 1a 60
        E 0 90 1f 60
        E 0 90 3d 60
        E 0 90 3e 60
        E 0 90 49 60
        E 0 90 4a 60
        E 0 90 54 60
        E 0 90 55 60
        E 0 90 56 60
        E 0 90 60 60
        E 0 90 61 60
        E 0 90 62 60
        E 60 80 18 00
        E 0 80 1a 00
        E 0 80 1f 00
        E 0 80 3d 00
        E 0 80 3e 00
        E 0 80 49 00
        E 0 80 4a 00
        E 0 80 54 00
        E 0 80 55 00
        E 0 80 56 00
        E 0 80 60 00
        E 0 80 61 00
        E 0 80 62 00
        E 180 90 1f 60
        E 0 90 56 60
        E 0 90 62 60
        E 60 80 1f 00
        E 0 80 56 00
        E 0 80 62 00
        E 180 90 18 60
        E 0 90 1f 60
        E 0 90 3e 60
        E 0 90 48 60
        E 0 90 4a 60
        E 0 90 54 60
        E 0 90 56 60
        E 0 90 60 60
        E 0 90 62 60
        E 60 80 18 00
        E 0 80 1f 00
        E 0 80 3e 00
        E 0 80 48 00
        E 0 80 4a 00
        E 0 80 54 00
        E 0 80 56 00
        E 0 80 60 00
        E 0 80 62 00
        E 180 90 1f 60
        E 0 90 56 60
        E 0 90 62 60
        E 60 80 1f 00
        E 0 80 56 00
        E 0 80 62 00
        e 120 90 78 60
        e 0 90 79 60
        e 0 90 7a 60
        e 0 90 7b 60
        e 0 90 7c 60
        E 59 90 18 60
        E 1 90 1a 60
        E 0 90 3d 60
        E 0 90 49 60
        E 0 90 55 60
        E 0 90 60 60
        E 0 90 61 60
        E 60 80 18 00
        E 0 80 1a 00
        E 0 80 3d 00
        E 0 80 49 00
        E 0 80 55 00
        E 0 80 60 00
        E 0 80 61 00
        E 180 90 1f 60
        E 0 90 56 60
        E 0 90 62 60
        E 60 80 1f 00
        E 0 80 56 00
        E 0 80 62 00
        E 180 90 18 60
        E 0 90 1f 60
        E 0 90 3e 60
        E 0 90 48 60
        E 0 90 4a 60
        E 0 90 54 60
        E 0 90 56 60
        E 0 90 60 60
        E 0 90 62 60
        E 60 80 18 00
        E 0 80 1f 00
        E 0 80 3e 00
        E 0 80 48 00
        E 0 80 4a 00
        E 0 80 54 00
        E 0 80 56 00
        E 0 80 60 00
        E 0 80 62 00
        E 180 90 1f 60
        E 0 90 56 60
        E 0 90 62 60
        E 60 80 1f 00
        E 0 80 56 00
        E 0 80 62 00
        e 180 80 78 00
        e 0 80 79 00
        e 0 80 7a 00
        e 0 80 7b 00
        e 0 80 7c 00
        E 0 90 18 60
        E 0 90 1a 60
        E 0 90 3d 60
        E 0 90 49 60
        E 0 90 54 60
        E 0 90 55 60
        E 0 90 60 60
        E 0 90 61 60
        E 60 80 18 00
        E 0 80 1a 00
        E 0 80 3d 00
        E 0 80 49 00
        E 0 80 54 00
        E 0 80 55 00
        E 0 80 60 00
        E 0 80 61 00
        E 180 90 1f 60
        E 0 90 56 60
        E 0 90 62 60
        E 60 80 1f 00
        E 0 80 56 00
        E 0 80 62 00
        E 180 90 18 60
        E 0 90 1f 60
        E 0 90 3e 60
        E 0 90 48 60
        E 0 90 4a 60
        E 0 90 54 60
        E 0 90 56 60
        E 0 90 60 60
        E 0 90 62 60
        E 60 80 18 00
        E 0 80 1f 00
        E 0 80 3e 00
        E 0 80 48 00
        E 0 80 4a 00
        E 0 80 54 00
        E 0 80 56 00
        E 0 80 60 00
        E 0 80 62 00
        E 180 90 1f 60
        E 0 90 56 60
        E 0 90 62 60
        E 60 80 1f 00
        E 0 80 56 00
        E 0 80 62 00
        E 179 90 18 60
        E 1 90 1a 60
        E 0 90 3d 60
        E 0 90 49 60
        E 0 90 55 60
        E 0 90 60 60
        E 0 90 61 60
        E 60 80 18 00
        E 0 80 1a 00
        E 0 80 3d 00
        E 0 80 49 00
        E 0 80 55 00
        E 0 80 60 00
        E 0 80 61 00
        E 180 90 1f 60
        E 0 90 56 60
        E 0 90 62 60
        E 60 80 1f 00
        E 0 80 56 00
        E 0 80 62 00
        E 60 90 1f 60
        E 0 90 62 60
        E 60 80 1f 00
        E 0 80 62 00
        E 60 90 18 60
        E 0 90 1f 60
        E 0 90 3e 60
        E 0 90 48 60
        E 0 90 4a 60
        E 0 90 54 60
        E 0 90 56 60
        E 0 90 60 60
        E 0 90 62 60
        E 60 80 18 00
        E 0 80 1f 00
        E 0 80 3e 00
        E 0 80 48 00
        E 0 80 4a 00
        E 0 80 54 00
        E 0 80 56 00
        E 0 80 60 00
        E 0 80 62 00
        E 180 90 1f 60
        E 0 90 56 60
        E 0 90 62 60
        E 60 80 1f 00
        E 0 80 56 00
        E 0 80 62 00
        E 180 90 18 60
        E 0 90 1a 60
        E 0 90 3d 60
        E 0 90 49 60
        E 0 90 54 60
        E 0 90 55 60
        E 0 90 60 60
        E 0 90 61 60
        E 60 80 18 00
        E 0 80 1a 00
        E 0 80 3d 00
        E 0 80 49 00
        E 0 80 54 00
        E 0 80 55 00
        E 0 80 60 00
        E 0 80 61 00
        E 180 90 1f 60
        E 0 90 56 60
        E 0 90 62 60
        E 60 80 1f 00
        E 0 80 56 00
        E 0 80 62 00
        E 180 90 18 60
        E 0 90 1f 60
        E 0 90 3e 60
        E 0 90 48 60
        E 0 90 4a 60
        E 0 90 54 60
        E 0 90 56 60
        E 0 90 60 60
        E 0 90 62 60
        E 60 80 18 00
        E 0 80 1f 00
        E 0 80 3e 00
        E 0 80 48 00
        E 0 80 4a 00
        E 0 80 54 00
        E 0 80 56 00
        E 0 80 60 00
        E 0 80 62 00
        E 180 90 1f 60
        E 0 90 56 60
        E 0 90 62 60
        E 60 80 1f 00
        E 0 80 56 00
        E 0 80 62 00
        E 179 90 18 60
        E 1 90 1a 60
        E 0 90 3d 60
        E 0 90 49 60
        E 0 90 55 60
        E 0 90 60 60
        E 0 90 61 60
        E 60 80 18 00
        E 0 80 1a 00
        E 0 80 3d 00
        E 0 80 49 00
        E 0 80 55 00
        E 0 80 60 00
        E 0 80 61 00
        E 180 90 1f 60
        E 0 90 56 60
        E 0 90 62 60
        E 60 80 1f 00
        E 0 80 56 00
        E 0 80 62 00
        E 180 90 18 60
        E 0 90 1f 60
        E 0 90 3e 60
        E 0 90 48 60
        E 0 90 4a 60
        E 0 90 54 60
        E 0 90 56 60
        E 0 90 60 60
        E 0 90 62 60
        E 60 80 18 00
        E 0 80 1f 00
        E 0 80 3e 00
        E 0 80 48 00
        E 0 80 4a 00
        E 0 80 54 00
        E 0 80 56 00
        E 0 80 60 00
        E 0 80 62 00
        E 180 90 1f 60
        E 0 90 56 60
        E 0 90 62 60
        E 60 80 1f 00
        E 0 80 56 00
        E 0 80 62 00
        E 180 90 18 60
        E 0 90 1a 60
        E 0 90 3d 60
        E 0 90 49 60
        E 0 90 54 60
        E 0 90 55 60
        E 0 90 60 60
        E 0 90 61 60
        E 60 80 18 00
        E 0 80 1a 00
        E 0 80 3d 00
        E 0 80 49 00
        E 0 80 54 00
        E 0 80 55 00
        E 0 80 60 00
        E 0 80 61 00
        E 180 90 1f 60
        E 0 90 56 60
        E 0 90 62 60
        E 60 80 1f 00
        E 0 80 56 00
        E 0 80 62 00
        E 180 90 18 60
        E 0 90 1f 60
        E 0 90 3e 60
        E 0 90 48 60
        E 0 90 4a 60
        E 0 90 54 60
        E 0 90 56 60
        E 0 90 60 60
        E 0 90 62 60
        E 60 80 18 00
        E 0 80 1f 00
        E 0 80 3e 00
        E 0 80 48 00
        E 0 80 4a 00
        E 0 80 54 00
        E 0 80 56 00
        E 0 80 60 00
        E 0 80 62 00
        E 180 90 1f 60
        E 0 90 56 60
        E 0 90 62 60
        E 60 80 1f 00
        E 0 80 56 00
        E 0 80 62 00
        E 179 90 18 60
        E 1 90 1a 60
        E 0 90 3d 60
        E 0 90 49 60
        E 0 90 55 60
        E 0 90 60 60
        E 0 90 61 60
        E 60 80 18 00
        E 0 80 1a 00
        E 0 80 3d 00
        E 0 80 49 00
        E 0 80 55 00
        E 0 80 60 00
        E 0 80 61 00
        E 180 90 1f 60
        E 0 90 56 60
        E 0 90 62 60
        E 60 80 1f 00
        E 0 80 56 00
        E 0 80 62 00
        E 60 90 1f 60
        E 0 90 62 60
        E 60 80 1f 00
        E 0 80 62 00
        E 60 90 18 60
        E 0 90 1f 60
        E 0 90 3e 60
        E 0 90 48 60
        E 0 90 4a 60
        E 0 90 54 60
        E 0 90 56 60
        E 0 90 60 60
        E 0 90 62 60
        E 60 80 18 00
        E 0 80 1f 00
        E 0 80 3e 00
        E 0 80 48 00
        E 0 80 4a 00
        E 0 80 54 00
        E 0 80 56 00
        E 0 80 60 00
        E 0 80 62 00
        E 180 90 1f 60
        E 0 90 56 60
        E 0 90 62 60
        E 60 80 1f 00
        E 0 80 56 00
        E 0 80 62 00
        E 180 90 18 60
        E 0 90 1a 60
        E 0 90 3d 60
        E 0 90 49 60
        E 0 90 54 60
        E 0 90 55 60
        E 0 90 60 60
        E 0 90 61 60
        E 60 80 18 00
        E 0 80 1a 00
        E 0 80 3d 00
        E 0 80 49 00
        E 0 80 54 00
        E 0 80 55 00
        E 0 80 60 00
        E 0 80 61 00
        E 180 90 1f 60
        E 0 90 56 60
        E 0 90 62 60
        E 60 80 1f 00
        E 0 80 56 00
        E 0 80 62 00
        E 180 90 18 60
        E 0 90 1f 60
        E 0 90 3e 60
        E 0 90 48 60
        E 0 90 4a 60
        E 0 90 54 60
        E 0 90 56 60
        E 0 90 60 60
        E 0 90 62 60
        E 60 80 18 00
        E 0 80 1f 00
        E 0 80 3e 00
        E 0 80 48 00
        E 0 80 4a 00
        E 0 80 54 00
        E 0 80 56 00
        E 0 80 60 00
        E 0 80 62 00
        E 180 90 1f 60
        E 0 90 56 60
        E 0 90 62 60
        E 60 80 1f 00
        E 0 80 56 00
        E 0 80 62 00
        E 179 90 18 60
        E 1 90 1a 60
        E 0 90 3d 60
        E 0 90 49 60
        E 0 90 55 60
        E 0 90 60 60
        E 0 90 61 60
        E 60 80 18 00
        E 0 80 1a 00
        E 0 80 3d 00
        E 0 80 49 00
        E 0 80 55 00
        E 0 80 60 00
        E 0 80 61 00
        E 180 90 1f 60
        E 0 90 56 60
        E 0 90 62 60
        E 60 80 1f 00
        E 0 80 56 00
        E 0 80 62 00
        E 180 90 18 60
        E 0 90 1f 60
        E 0 90 3e 60
        E 0 90 48 60
        E 0 90 4a 60
        E 0 90 54 60
        E 0 90 56 60
        E 0 90 60 60
        E 0 90 62 60
        E 60 80 18 00
        E 0 80 1f 00
        E 0 80 3e 00
        E 0 80 48 00
        E 0 80 4a 00
        E 0 80 54 00
        E 0 80 56 00
        E 0 80 60 00
        E 0 80 62 00
        E 180 90 1f 60
        E 0 90 56 60
        E 0 90 62 60
        E 60 80 1f 00
        E 0 80 56 00
        E 0 80 62 00
        E 180 90 18 60
        E 0 90 1a 60
        E 0 90 3d 60
        E 0 90 49 60
        E 0 90 54 60
        E 0 90 55 60
        E 0 90 60 60
        E 0 90 61 60
        E 60 80 18 00
        E 0 80 1a 00
        E 0 80 3d 00
        E 0 80 49 00
        E 0 80 54 00
        E 0 80 55 00
        E 0 80 60 00
        E 0 80 61 00
        E 180 90 1f 60
        E 0 90 56 60
        E 0 90 62 60
        E 60 80 1f 00
        E 0 80 56 00
        E 0 80 62 00
        E 180 90 18 60
        E 0 90 1f 60
        E 0 90 3e 60
        E 0 90 48 60
        E 0 90 4a 60
        E 0 90 54 60
        E 0 90 56 60
        E 0 90 60 60
        E 0 90 62 60
        E 60 80 18 00
        E 0 80 1f 00
        E 0 80 3e 00
        E 0 80 48 00
        E 0 80 4a 00
        E 0 80 54 00
        E 0 80 56 00
        E 0 80 60 00
        E 0 80 62 00
        E 180 90 1f 60
        E 0 90 56 60
        E 0 90 62 60
        E 60 80 1f 00
        E 0 80 56 00
        E 0 80 62 00
        E 179 90 18 60
        E 1 90 1a 60
        E 0 90 3d 60
        E 0 90 49 60
        E 0 90 55 60
        E 0 90 60 60
        E 0 90 61 60
        E 60 80 18 00
        E 0 80 1a 00
        E 0 80 3d 00
        E 0 80 49 00
        E 0 80 55 00
        E 0 80 60 00
        E 0 80 61 00
        E 180 90 1f 60
        E 0 90 56 60
        E 0 90 62 60
        E 60 80 1f 00
        E 0 80 56 00
        E 0 80 62 00
        E 60 90 1f 60
        E 0 90 62 60
        E 60 80 1f 00
        E 0 80 62 00
        E 60 90 18 60
        E 0 90 1f 60
        E 0 90 3e 60
        E 0 90 48 60
        E 0 90 4a 60
        E 0 90 54 60
        E 0 90 56 60
        E 0 90 60 60
        E 0 90 62 60
        E 60 80 18 00
        E 0 80 1f 00
        E 0 80 3e 00
        E 0 80 48 00
        E 0 80 4a 00
        E 0 80 54 00
        E 0 80 56 00
        E 0 80 60 00
        E 0 80 62 00
        E 180 90 1f 60
        E 0 90 56 60
        E 0 90 62 60
        E 60 80 1f 00
        E 0 80 56 00
        E 0 80 62 00
        E 180 90 18 60
        E 0 90 1a 60
        E 0 90 3d 60
        E 0 90 49 60
        E 0 90 54 60
        E 0 90 55 60
        E 0 90 60 60
        E 0 90 61 60
        E 60 80 18 00
        E 0 80 1a 00
        E 0 80 3d 00
        E 0 80 49 00
        E 0 80 54 00
        E 0 80 55 00
        E 0 80 60 00
        E 0 80 61 00
        E 180 90 1f 60
        E 0 90 56 60
        E 0 90 62 60
        E 60 80 1f 00
        E 0 80 56 00
        E 0 80 62 00
        E 180 90 18 60
        E 0 90 1f 60
        E 0 90 3e 60
        E 0 90 48 60
        E 0 90 4a 60
        E 0 90 54 60
        E 0 90 56 60
        E 0 90 60 60
        E 0 90 62 60
        E 60 80 18 00
        E 0 80 1f 00
        E 0 80 3e 00
        E 0 80 48 00
        E 0 80 4a 00
        E 0 80 54 00
        E 0 80 56 00
        E 0 80 60 00
        E 0 80 62 00
        E 180 90 1f 60
        E 0 90 56 60
        E 0 90 62 60
        E 60 80 1f 00
        E 0 80 56 00
        E 0 80 62 00
        E 179 90 18 60
        E 1 90 1a 60
        E 0 90 3d 60
        E 0 90 49 60
        E 0 90 55 60
        E 0 90 60 60
        E 0 90 61 60
        E 60 80 18 00
        E 0 80 1a 00
        E 0 80 3d 00
        E 0 80 49 00
        E 0 80 55 00
        E 0 80 60 00
        E 0 80 61 00
        E 180 90 1f 60
        E 0 90 56 60
        E 0 90 62 60
        E 60 80 1f 00
        E 0 80 56 00
        E 0 80 62 00
        E 180 90 18 60
        E 0 90 1f 60
        E 0 90 3e 60
        E 0 90 48 60
        E 0 90 4a 60
        E 0 90 54 60
        E 0 90 56 60
        E 0 90 60 60
        E 0 90 62 60
        E 60 80 18 00
        E 0 80 1f 00
        E 0 80 3e 00
        E 0 80 48 00
        E 0 80 4a 00
        E 0 80 54 00
        E 0 80 56 00
        E 0 80 60 00
        E 0 80 62 00
        E 180 90 1f 60
        E 0 90 56 60
        E 0 90 62 60
        E 60 80 1f 00
        E 0 80 56 00
        E 0 80 62 00
        E 180 90 18 60
        E 0 90 1a 60
        E 0 90 3d 60
        E 0 90 49 60
        E 0 90 54 60
        E 0 90 55 60
        E 0 90 60 60
        E 0 90 61 60
        E 60 80 18 00
        E 0 80 1a 00
        E 0 80 3d 00
        E 0 80 49 00
        E 0 80 54 00
        E 0 80 55 00
        E 0 80 60 00
        E 0 80 61 00
        E 180 90 1f 60
        E 0 90 56 60
        E 0 90 62 60
        E 60 80 1f 00
        E 0 80 56 00
        E 0 80 62 00
        E 180 90 18 60
        E 0 90 1f 60
        E 0 90 3e 60
        E 0 90 48 60
        E 0 90 4a 60
        E 0 90 54 60
        E 0 90 56 60
        E 0 90 60 60
        E 0 90 62 60
        E 60 80 18 00
        E 0 80 1f 00
        E 0 80 3e 00
        E 0 80 48 00
        E 0 80 4a 00
        E 0 80 54 00
        E 0 80 56 00
        E 0 80 60 00
        E 0 80 62 00
        E 180 90 1f 60
        E 0 90 56 60
        E 0 90 62 60
        E 60 80 1f 00
        E 0 80 56 00
        E 0 80 62 00
        E 179 90 18 60
        E 1 90 1a 60
        E 0 90 3d 60
        E 0 90 49 60
        E 0 90 55 60
        E 0 90 60 60
        E 0 90 61 60
        E 60 80 18 00
        E 0 80 1a 00
        E 0 80 3d 00
        E 0 80 49 00
        E 0 80 55 00
        E 0 80 60 00
        E 0 80 61 00
        E 180 90 1f 60
        E 0 90 56 60
        E 0 90 62 60
        E 60 80 1f 00
        E 0 80 56 00
        E 0 80 62 00
        <X 480 0
          /wFbaWRsZV9yZWFsdGltZV0=
        >
        E 3511 b0 7b 00
        GUID {99C52F88-C54B-4CCD-B038-A5C950AC8E6E}
        IGNTEMPO 0 120.00000000 4 4
        SRCCOLOR 67
        VELLANE 132 38 60
        COLORMAP "C:\Users\wejaa\AppData\Roaming\REAPER\Data\color_maps\rockband_drums.png"
        TEXTSTRINGFILE "Text Events List.txt"
        CFGEDITVIEW 185056.962798 541.718417 52 16 0 0 0
        CFGEDIT 1 1 0 0 0 1 1 1 1 1 1 0.12500000 -8 -8 1370 736 1 0 1 2 0.00000000 0 0 0 0 0.500000 1 0 1.000000 64
        KEYSNAP 0 0 "102034050607" 0 "Major"
        EVTFILTER 0 -1 -1 -1 -1 0 1 0 0 -1.00000000 -1.00000000
      >
    >
  >
  <TRACK '{70C3FE4D-3BC3-4146-95C4-8AC455A2D0F5}'
    NAME "PART BASS"
    PEAKCOL 16777471
    BEAT -1
    AUTOMODE 0
    VOLPAN 0.40093814726181 0.00000000000000 -1.00000000000000 -1.00000000000000 1.00000000000000
    MUTESOLO 0 0 0
    IPHASE 0
    ISBUS 0 0
    BUSCOMP 1 0
    SHOWINMIX 1 0.666700 0.500000 1 0.500000 -1 -1 -1
    FREEMODE 0
    SEL 0
    REC 0 4096 1 0 0 0 0
    TRACKHEIGHT 109 0
    INQ 0 0 0 0.5000000000 100 0 0 100
    NCHAN 2
    FX 1
    TRACKID {70C3FE4D-3BC3-4146-95C4-8AC455A2D0F5}
    PERF 0
    MIDIOUT -1
    <MIDINOTENAMES
      0 96 "EXPERT Green"
      0 97 "EXPERT Red"
      0 98 "EXPERT Yellow"
      0 99 "EXPERT Blue"
      0 100 "EXPERT Orange"
      0 84 "HARD Green"
      0 85 "HARD Red"
      0 86 "HARD Yellow"
      0 87 "HARD Blue"
      0 88 "HARD Orange"
      0 91 "----"
      0 116 "OVERDRIVE"
      0 40 "Left Hand Lowest"
      0 59 "Left Hand Highest"
      0 58 "-"
      0 57 "-"
      0 56 "-"
      0 55 "-"
      0 54 "-"
      0 53 "-"
      0 52 "-"
      0 51 "-"
      0 50 "-"
      0 49 "-"
      0 47 "-"
      0 48 "-"
      0 46 "-"
      0 45 "-"
      0 44 "-"
      0 43 "-"
      0 42 "-"
      0 41 "-"
      0 111 "----"
      0 72 "MEDIUM Green"
      0 73 "MEDIUM Red"
      0 74 "MEDIUM Yellow"
      0 75 "MEDIUM Blue"
      0 76 "MEDIUM Orange"
      0 60 "EASY Green"
      0 61 "EASY Red"
      0 62 "EASY Yellow"
      0 63 "EASY Blue"
      0 64 "EASY Orange"
      0 68 "----"
      0 80 "----"
      0 102 "Force HOPO Off"
      0 101 "Force HOPO On"
      0 120 "BRE (use all 5)"
      0 121 "BRE"
      0 122 "BRE"
      0 123 "BRE"
      0 124 "BRE"
      0 119 "----"
      0 90 "Force HOPO Off"
      0 89 "Force HOPO On"
      0 127 "Trill Marker"
      0 125 "----"
      0 103 "Solo Marker"
      0 126 "Strum Marker"
    >
    MAINSEND 1 0
    <FXCHAIN
      WNDRECT 317 468 878 585
      SHOW 0
      LASTSEL 1
      DOCKED 0
      BYPASS 1 0
      <VST "VSTi: ReaSynth (Cockos)" "reasynth.dll" 0 ""
        eXNlcu9e7f4AAAAAAgAAAAEAAAAAAAAAAgAAAAAAAAA4AAAAAAAAAA==
        AAAAAO++rd4N8K3eAAAAAAAAAAAAAAAAAAAAADm0SD59y9s+tbSxOQ==
        AAAAALbz/T5VpCs6AAAAAAAAAAAAAAAAAAA=
      >
      FLOATPOS 0 0 0 0
      FXID {D4EC3C58-478E-4D1F-A0FC-2252BD344989}
      WAK 0
      BYPASS 0 0
      <VST "VSTi: RBN Preview (RBN)" "rbprev_vst64_beta.dll" 0 ""
        dnBicu5e7f4AAAAAAgAAAAEAAAAAAAAAAgAAAAAAAAAEAAAAAQAAAA==
        AAAAAAMAqgAAAAAAAAA=
      >
      FLOATPOS 32 32 659 497
      FXID {72D22271-4F4F-4081-90C4-66415E7AEC47}
      WAK 0
    >
    <ITEM
      POSITION 0.00000000000000
      SNAPOFFS 0.00000000000000
      LENGTH 191.40947645442233
      LOOP 0
      ALLTAKES 0
      SEL 0
      FADEIN 1 0.000000 0.000000 1 0
      FADEOUT 1 0.000000 0.000000 1 0
      MUTE 0
      IGUID {A1B24BBF-93B7-476C-BC6D-33F5621C633F}
      IID 8
      NAME "PART BASS"
      VOLPAN 1.000000 0.000000 1.000000 -1.000000
      SOFFS 0.00000000000000 0.00000000000000
      PLAYRATE 1.00000000000000 1 0.00000000000000 -65536
      CHANMODE 0
      GUID {344A7487-35C3-41F9-8B1E-12A4F3D7F336}
      <SOURCE MIDI
        HASDATA 1 480 QN
        POOLEDEVTS {9B6142A8-365D-4B22-B8B2-BA27F6E22D10}
        <X 0 0
          /wNQQVJUIEJBU1M=
        >
        <X 3840 0
          /wFbaWRsZV0=
        >
        <X 3840 0
          /wFbcGxheV0=
        >
        E 0 90 3d 60
        E 0 90 49 60
        E 0 90 55 60
        E 0 90 61 60
        E 60 80 3d 00
        E 0 80 49 00
        E 0 80 55 00
        E 0 80 61 00
        E 420 90 3d 60
        E 0 90 49 60
        E 0 90 55 60
        E 0 90 61 60
        E 60 80 3d 00
        E 0 80 49 00
        E 0 80 55 00
        E 0 80 61 00
        E 660 90 49 60
        E 0 90 55 60
        E 0 90 61 60
        E 60 80 49 00
        E 0 80 55 00
        E 0 80 61 00
        E 420 90 3e 60
        E 0 90 4a 60
        E 0 90 56 60
        E 0 90 62 60
        E 60 80 3e 00
        E 0 80 4a 00
        E 0 80 56 00
        E 0 80 62 00
        E 420 90 4a 60
        E 0 90 56 60
        E 0 90 62 60
        E 60 80 4a 00
        E 0 80 56 00
        E 0 80 62 00
        E 900 90 56 60
        E 0 90 62 60
        E 60 80 56 00
        E 0 80 62 00
        E 180 90 48 60
        E 0 90 54 60
        E 0 90 60 60
        E 120 80 48 00
        E 240 80 54 00
        E 60 80 60 00
        E 60 90 3d 60
        E 0 90 49 60
        E 0 90 55 60
        E 0 90 61 60
        E 60 80 3d 00
        E 0 80 49 00
        E 0 80 55 00
        E 0 80 61 00
        E 420 90 3d 60
        E 0 90 49 60
        E 0 90 55 60
        E 0 90 61 60
        E 60 80 3d 00
        E 0 80 49 00
        E 0 80 55 00
        E 0 80 61 00
        E 660 90 49 60
        E 0 90 55 60
        E 0 90 61 60
        E 60 80 49 00
        E 0 80 55 00
        E 0 80 61 00
        E 420 90 3e 60
        E 0 90 4a 60
        E 0 90 56 60
        E 0 90 62 60
        E 120 80 3e 00
        E 0 80 4a 00
        E 420 80 56 00
        E 0 80 62 00
        E 180 90 48 60
        E 0 90 54 60
        E 0 90 60 60
        E 60 80 48 00
        E 0 80 54 00
        E 0 80 60 00
        E 180 90 55 60
        E 0 90 61 60
        E 360 80 55 00
        E 60 80 61 00
        E 60 90 4a 60
        E 0 90 56 60
        E 0 90 62 60
        E 60 80 4a 00
        E 0 80 56 00
        E 0 80 62 00
        E 180 90 4a 60
        E 0 90 56 60
        E 0 90 62 60
        E 60 80 4a 00
        E 0 80 56 00
        E 0 80 62 00
        E 180 90 55 60
        E 0 90 61 60
        E 60 80 55 00
        E 0 80 61 00
        E 180 90 3d 60
        E 0 90 49 60
        E 0 90 55 60
        E 0 90 61 60
        E 60 80 3d 00
        E 0 80 49 00
        E 0 80 55 00
        E 0 80 61 00
        E 420 90 3d 60
        E 0 90 49 60
        E 0 90 55 60
        E 0 90 61 60
        E 60 80 3d 00
        E 0 80 49 00
        E 0 80 55 00
        E 0 80 61 00
        E 660 90 49 60
        E 0 90 55 60
        E 0 90 61 60
        E 60 80 49 00
        E 0 80 55 00
        E 0 80 61 00
        E 420 90 3e 60
        E 0 90 4a 60
        E 0 90 56 60
        E 0 90 62 60
        E 60 80 3e 00
        E 0 80 4a 00
        E 0 80 56 00
        E 0 80 62 00
        E 420 90 4a 60
        E 0 90 56 60
        E 0 90 62 60
        E 60 80 4a 00
        E 0 80 56 00
        E 0 80 62 00
        E 900 90 56 60
        E 0 90 62 60
        E 60 80 56 00
        E 0 80 62 00
        E 180 90 49 60
        E 0 90 55 60
        E 0 90 61 60
        E 60 80 49 00
        E 0 80 55 00
        E 0 80 61 00
        E 180 90 55 60
        E 0 90 61 60
        E 60 80 55 00
        E 0 80 61 00
        E 180 90 3c 60
        E 0 90 48 60
        E 0 90 54 60
        E 0 90 60 60
        E 60 80 3c 00
        E 0 80 48 00
        E 0 80 54 00
        E 0 80 60 00
        E 420 90 3c 60
        E 0 90 48 60
        E 0 90 54 60
        E 0 90 60 60
        E 60 80 3c 00
        E 0 80 48 00
        E 0 80 54 00
        E 0 80 60 00
        E 660 90 49 60
        E 0 90 55 60
        E 0 90 61 60
        E 60 80 49 00
        E 0 80 55 00
        E 0 80 61 00
        E 420 90 3d 60
        E 0 90 49 60
        E 0 90 55 60
        E 0 90 61 60
        E 120 80 3d 00
        E 0 80 49 00
        E 420 80 55 00
        E 0 80 61 00
        E 180 90 48 60
        E 0 90 54 60
        E 0 90 60 60
        E 60 80 48 00
        E 0 80 54 00
        E 0 80 60 00
        E 180 90 55 60
        E 0 90 61 60
        E 360 80 55 00
        E 60 80 61 00
        E 60 90 56 60
        E 0 90 62 60
        E 60 80 56 00
        E 0 80 62 00
        E 180 90 3d 60
        E 0 90 49 60
        E 0 90 55 60
        E 0 90 61 60
        E 60 80 3d 00
        E 0 80 49 00
        E 0 80 55 00
        E 0 80 61 00
        E 180 90 56 60
        E 0 90 62 60
        E 60 80 56 00
        E 0 80 62 00
        E 180 90 3d 60
        E 0 90 49 60
        E 0 90 55 60
        E 0 90 61 60
        E 60 80 3d 00
        E 0 80 49 00
        E 0 80 55 00
        E 0 80 61 00
        E 420 90 3d 60
        E 0 90 49 60
        E 0 90 55 60
        E 0 90 61 60
        E 60 80 3d 00
        E 0 80 49 00
        E 0 80 55 00
        E 0 80 61 00
        E 660 90 4c 60
        E 0 90 58 60
        E 0 90 64 60
        E 60 80 4c 00
        E 0 80 58 00
        E 0 80 64 00
        E 420 90 3e 60
        E 0 90 4a 60
        E 0 90 56 60
        E 0 90 62 60
        E 60 80 3e 00
        E 0 80 4a 00
        E 0 80 56 00
        E 0 80 62 00
        E 420 90 4a 60
        E 0 90 56 60
        E 0 90 62 60
        E 60 80 4a 00
        E 0 80 56 00
        E 0 80 62 00
        E 1380 90 55 60
        E 0 90 61 60
        E 60 80 55 00
        E 0 80 61 00
        E 180 90 3e 60
        E 0 90 4a 60
        E 0 90 56 60
        E 0 90 62 60
        E 60 80 3e 00
        E 0 80 4a 00
        E 0 80 56 00
        E 0 80 62 00
        E 420 90 3e 60
        E 0 90 4a 60
        E 0 90 56 60
        E 0 90 62 60
        E 60 80 3e 00
        E 0 80 4a 00
        E 0 80 56 00
        E 0 80 62 00
        E 660 90 57 60
        E 0 90 63 60
        E 60 80 57 00
        E 0 80 63 00
        E 180 90 3c 60
        E 0 90 48 60
        E 0 90 54 60
        E 0 90 60 60
        E 60 80 3c 00
        E 0 80 48 00
        E 0 80 54 00
        E 0 80 60 00
        E 180 90 55 60
        E 0 90 61 60
        E 60 80 55 00
        E 0 80 61 00
        E 420 90 49 60
        E 0 90 55 60
        E 0 90 61 60
        E 60 80 49 00
        E 0 80 55 00
        E 0 80 61 00
        E 900 90 54 60
        E 0 90 60 60
        E 60 80 54 00
        E 0 80 60 00
        E 180 90 3d 60
        E 0 90 49 60
        E 0 90 55 60
        E 0 90 61 60
        E 120 80 3d 00
        E 0 80 49 00
        E 240 80 55 00
        E 60 80 61 00
        E 60 90 3d 60
        E 0 90 49 60
        E 0 90 55 60
        E 0 90 61 60
        E 60 80 3d 00
        E 0 80 49 00
        E 0 80 55 00
        E 0 80 61 00
        E 420 90 3d 60
        E 0 90 49 60
        E 0 90 55 60
        E 0 90 61 60
        E 60 80 3d 00
        E 0 80 49 00
        E 0 80 55 00
        E 0 80 61 00
        E 660 90 4c 60
        E 0 90 58 60
        E 0 90 64 60
        E 60 80 4c 00
        E 0 80 58 00
        E 0 80 64 00
        E 420 90 3e 60
        E 0 90 4a 60
        E 0 90 56 60
        E 0 90 62 60
        E 60 80 3e 00
        E 0 80 4a 00
        E 0 80 56 00
        E 0 80 62 00
        E 420 90 4a 60
        E 0 90 56 60
        E 0 90 62 60
        E 60 80 4a 00
        E 0 80 56 00
        E 0 80 62 00
        E 900 90 4a 60
        E 0 90 56 60
        E 0 90 62 60
        E 60 80 4a 00
        E 0 80 56 00
        E 0 80 62 00
        E 420 90 54 60
        E 0 90 60 60
        E 60 80 54 00
        E 0 80 60 00
        E 163 90 74 60
        E 17 90 3d 60
        E 0 90 49 60
        E 0 90 55 60
        E 0 90 61 60
        E 60 80 3d 00
        E 0 80 49 00
        E 0 80 55 00
        E 0 80 61 00
        E 420 90 3d 60
        E 0 90 49 60
        E 0 90 55 60
        E 0 90 61 60
        E 60 80 3d 00
        E 0 80 49 00
        E 0 80 55 00
        E 0 80 61 00
        E 660 90 49 60
        E 0 90 55 60
        E 0 90 61 60
        E 120 80 49 00
        E 240 80 55 00
        E 60 80 61 00
        E 60 90 56 60
        E 0 90 62 60
        E 60 80 56 00
        E 0 80 62 00
        E 180 90 40 60
        E 0 90 4c 60
        E 0 90 58 60
        E 0 90 64 60
        E 0 90 65 60
        E 60 80 65 00
        E 1380 80 40 00
        E 0 80 4c 00
        E 180 80 58 00
        E 0 80 64 00
        E 104 80 74 00
        E 196 90 3e 60
        E 0 90 4a 60
        E 0 90 56 60
        E 0 90 62 60
        E 120 80 3e 00
        E 0 80 4a 00
        E 240 80 56 00
        E 60 80 62 00
        E 60 90 49 60
        E 0 90 55 60
        E 0 90 61 60
        E 60 80 49 00
        E 0 80 55 00
        E 0 80 61 00
        E 180 90 56 60
        E 0 90 62 60
        E 60 80 56 00
        E 0 80 62 00
        E 180 90 3d 60
        E 0 90 49 60
        E 0 90 55 60
        E 0 90 61 60
        E 60 80 3d 00
        E 0 80 49 00
        E 0 80 55 00
        E 0 80 61 00
        E 180 90 56 60
        E 0 90 62 60
        E 60 80 56 00
        E 0 80 62 00
        E 180 90 4a 60
        E 0 90 56 60
        E 0 90 62 60
        E 60 80 4a 00
        E 0 80 56 00
        E 0 80 62 00
        E 180 90 55 60
        E 0 90 61 60
        E 60 80 55 00
        E 0 80 61 00
        E 420 90 3d 60
        E 0 90 49 60
        E 0 90 55 60
        E 0 90 61 60
        E 60 80 3d 00
        E 0 80 49 00
        E 0 80 55 00
        E 0 80 61 00
        E 420 90 49 60
        E 0 90 55 60
        E 0 90 61 60
        E 60 80 49 00
        E 0 80 55 00
        E 0 80 61 00
        E 180 90 3d 60
        E 0 90 49 60
        E 0 90 55 60
        E 0 90 61 60
        E 60 80 3d 00
        E 0 80 49 00
        E 0 80 55 00
        E 0 80 61 00
        E 180 90 56 60
        E 0 90 62 60
        E 60 80 56 00
        E 0 80 62 00
        E 180 90 4a 60
        E 0 90 56 60
        E 0 90 62 60
        E 60 80 4a 00
        E 0 80 56 00
        E 0 80 62 00
        E 180 90 55 60
        E 0 90 61 60
        E 60 80 55 00
        E 0 80 61 00
        E 180 90 3e 60
        E 0 90 4a 60
        E 0 90 56 60
        E 0 90 62 60
        E 120 80 3e 00
        E 0 80 4a 00
        E 240 80 56 00
        E 60 80 62 00
        E 60 90 49 60
        E 0 90 55 60
        E 0 90 61 60
        E 60 80 49 00
        E 0 80 55 00
        E 0 80 61 00
        E 180 90 56 60
        E 0 90 62 60
        E 60 80 56 00
        E 0 80 62 00
        E 180 90 3d 60
        E 0 90 49 60
        E 0 90 55 60
        E 0 90 61 60
        E 60 80 3d 00
        E 0 80 49 00
        E 0 80 55 00
        E 0 80 61 00
        E 180 90 56 60
        E 0 90 62 60
        E 60 80 56 00
        E 0 80 62 00
        E 180 90 4a 60
        E 0 90 56 60
        E 0 90 62 60
        E 60 80 4a 00
        E 0 80 56 00
        E 0 80 62 00
        E 180 90 55 60
        E 0 90 61 60
        E 60 80 55 00
        E 0 80 61 00
        E 180 90 3e 60
        E 0 90 4a 60
        E 0 90 56 60
        E 0 90 62 60
        E 60 80 3e 00
        E 0 80 4a 00
        E 0 80 56 00
        E 0 80 62 00
        E 180 90 55 60
        E 0 90 61 60
        E 60 80 55 00
        E 0 80 61 00
        E 420 90 49 60
        E 0 90 55 60
        E 0 90 61 60
        E 60 80 49 00
        E 0 80 55 00
        E 0 80 61 00
        E 180 90 3d 60
        E 0 90 49 60
        E 0 90 55 60
        E 0 90 61 60
        E 60 80 3d 00
        E 0 80 49 00
        E 0 80 55 00
        E 0 80 61 00
        E 180 90 56 60
        E 0 90 62 60
        E 60 80 56 00
        E 0 80 62 00
        E 180 90 4a 60
        E 0 90 56 60
        E 0 90 62 60
        E 60 80 4a 00
        E 0 80 56 00
        E 0 80 62 00
        E 180 90 55 60
        E 0 90 61 60
        E 60 80 55 00
        E 0 80 61 00
        E 180 90 3e 60
        E 0 90 4a 60
        E 0 90 56 60
        E 0 90 62 60
        E 120 80 3e 00
        E 0 80 4a 00
        E 240 80 56 00
        E 60 80 62 00
        E 60 90 49 60
        E 0 90 55 60
        E 0 90 61 60
        E 60 80 49 00
        E 0 80 55 00
        E 0 80 61 00
        E 180 90 56 60
        E 0 90 62 60
        E 60 80 56 00
        E 0 80 62 00
        E 180 90 3d 60
        E 0 90 49 60
        E 0 90 55 60
        E 0 90 61 60
        E 60 80 3d 00
        E 0 80 49 00
        E 0 80 55 00
        E 0 80 61 00
        E 180 90 56 60
        E 0 90 62 60
        E 60 80 56 00
        E 0 80 62 00
        E 180 90 4a 60
        E 0 90 56 60
        E 0 90 62 60
        E 60 80 4a 00
        E 0 80 56 00
        E 0 80 62 00
        E 180 90 55 60
        E 0 90 61 60
        E 60 80 55 00
        E 0 80 61 00
        E 420 90 3d 60
        E 0 90 49 60
        E 0 90 55 60
        E 0 90 61 60
        E 60 80 3d 00
        E 0 80 49 00
        E 0 80 55 00
        E 0 80 61 00
        E 300 90 74 60
        E 120 90 49 60
        E 0 90 55 60
        E 0 90 61 60
        E 120 80 49 00
        E 240 80 55 00
        E 60 80 61 00
        E 60 90 55 60
        E 0 90 61 60
        E 60 80 55 00
        E 0 80 61 00
        E 180 90 48 60
        E 0 90 54 60
        E 0 90 60 60
        E 60 80 48 00
        E 0 80 54 00
        E 0 80 60 00
        E 180 90 55 60
        E 0 90 61 60
        E 60 80 55 00
        E 0 80 61 00
        E 180 90 3e 60
        E 0 90 4a 60
        E 0 90 56 60
        E 0 90 62 60
        E 120 80 3e 00
        E 0 80 4a 00
        E 240 80 56 00
        E 60 80 62 00
        E 60 90 49 60
        E 0 90 55 60
        E 0 90 61 60
        E 60 80 49 00
        E 0 80 55 00
        E 0 80 61 00
        E 180 90 56 60
        E 0 90 62 60
        E 60 80 56 00
        E 0 80 62 00
        E 180 90 3d 60
        E 0 90 49 60
        E 0 90 55 60
        E 0 90 61 60
        E 60 80 3d 00
        E 0 80 49 00
        E 0 80 55 00
        E 0 80 61 00
        E 180 90 56 60
        E 0 90 62 60
        E 60 80 56 00
        E 0 80 62 00
        E 180 90 4a 60
        E 0 90 56 60
        E 0 90 62 60
        E 60 80 4a 00
        E 0 80 56 00
        E 0 80 62 00
        E 180 90 55 60
        E 0 90 61 60
        E 60 80 55 00
        E 0 80 61 00
        E 180 90 3c 60
        E 0 90 48 60
        E 0 90 54 60
        E 0 90 60 60
        E 60 80 3c 00
        E 0 80 48 00
        E 0 80 54 00
        E 0 80 60 00
        E 180 90 55 60
        E 0 90 61 60
        E 60 80 55 00
        E 0 80 61 00
        E 180 80 74 00
        E 240 90 49 60
        E 0 90 55 60
        E 0 90 61 60
        E 60 80 49 00
        E 0 80 55 00
        E 0 80 61 00
        E 180 90 3d 60
        E 0 90 49 60
        E 0 90 55 60
        E 0 90 61 60
        E 60 80 3d 00
        E 0 80 49 00
        E 0 80 55 00
        E 0 80 61 00
        E 180 90 56 60
        E 0 90 62 60
        E 60 80 56 00
        E 0 80 62 00
        E 180 90 4a 60
        E 0 90 56 60
        E 0 90 62 60
        E 60 80 4a 00
        E 0 80 56 00
        E 0 80 62 00
        E 180 90 55 60
        E 0 90 61 60
        E 60 80 55 00
        E 0 80 61 00
        E 180 90 3e 60
        E 0 90 4a 60
        E 0 90 56 60
        E 0 90 62 60
        E 120 80 3e 00
        E 0 80 4a 00
        E 240 80 56 00
        E 60 80 62 00
        E 60 90 49 60
        E 0 90 55 60
        E 0 90 61 60
        E 60 80 49 00
        E 0 80 55 00
        E 0 80 61 00
        E 180 90 56 60
        E 0 90 62 60
        E 60 80 56 00
        E 0 80 62 00
        E 180 90 3d 60
        E 0 90 49 60
        E 0 90 55 60
        E 0 90 61 60
        E 60 80 3d 00
        E 0 80 49 00
        E 0 80 55 00
        E 0 80 61 00
        E 180 90 56 60
        E 0 90 62 60
        E 60 80 56 00
        E 0 80 62 00
        E 180 90 4a 60
        E 0 90 56 60
        E 0 90 62 60
        E 60 80 4a 00
        E 0 80 56 00
        E 0 80 62 00
        E 180 90 55 60
        E 0 90 61 60
        E 60 80 55 00
        E 0 80 61 00
        E 420 90 3d 60
        E 0 90 49 60
        E 0 90 55 60
        E 0 90 61 60
        E 60 80 3d 00
        E 0 80 49 00
        E 0 80 55 00
        E 0 80 61 00
        E 420 90 49 60
        E 0 90 55 60
        E 0 90 61 60
        E 60 80 49 00
        E 0 80 55 00
        E 0 80 61 00
        E 180 90 3d 60
        E 0 90 49 60
        E 0 90 55 60
        E 0 90 61 60
        E 60 80 3d 00
        E 0 80 49 00
        E 0 80 55 00
        E 0 80 61 00
        E 180 90 56 60
        E 0 90 62 60
        E 60 80 56 00
        E 0 80 62 00
        E 180 90 4a 60
        E 0 90 56 60
        E 0 90 62 60
        E 60 80 4a 00
        E 0 80 56 00
        E 0 80 62 00
        E 180 90 55 60
        E 0 90 61 60
        E 60 80 55 00
        E 0 80 61 00
        E 180 90 3e 60
        E 0 90 4a 60
        E 0 90 56 60
        E 0 90 62 60
        E 120 80 3e 00
        E 0 80 4a 00
        E 240 80 56 00
        E 60 80 62 00
        E 60 90 49 60
        E 0 90 55 60
        E 0 90 61 60
        E 60 80 49 00
        E 0 80 55 00
        E 0 80 61 00
        E 180 90 56 60
        E 0 90 62 60
        E 60 80 56 00
        E 0 80 62 00
        E 180 90 3d 60
        E 0 90 49 60
        E 0 90 55 60
        E 0 90 61 60
        E 60 80 3d 00
        E 0 80 49 00
        E 0 80 55 00
        E 0 80 61 00
        E 180 90 56 60
        E 0 90 62 60
        E 60 80 56 00
        E 0 80 62 00
        E 180 90 4a 60
        E 0 90 56 60
        E 0 90 62 60
        E 60 80 4a 00
        E 0 80 56 00
        E 0 80 62 00
        E 180 90 55 60
        E 0 90 61 60
        E 60 80 55 00
        E 0 80 61 00
        E 180 90 3c 60
        E 0 90 48 60
        E 0 90 54 60
        E 0 90 60 60
        E 60 80 3c 00
        E 0 80 48 00
        E 0 80 54 00
        E 0 80 60 00
        E 180 90 55 60
        E 0 90 61 60
        E 60 80 55 00
        E 0 80 61 00
        E 420 90 49 60
        E 0 90 55 60
        E 0 90 61 60
        E 60 80 49 00
        E 0 80 55 00
        E 0 80 61 00
        E 180 90 3d 60
        E 0 90 49 60
        E 0 90 55 60
        E 0 90 61 60
        E 60 80 3d 00
        E 0 80 49 00
        E 0 80 55 00
        E 0 80 61 00
        E 180 90 56 60
        E 0 90 62 60
        E 60 80 56 00
        E 0 80 62 00
        E 180 90 4a 60
        E 0 90 56 60
        E 0 90 62 60
        E 60 80 4a 00
        E 0 80 56 00
        E 0 80 62 00
        E 180 90 55 60
        E 0 90 61 60
        E 60 80 55 00
        E 0 80 61 00
        E 180 90 3e 60
        E 0 90 4a 60
        E 0 90 56 60
        E 0 90 62 60
        E 120 80 3e 00
        E 0 80 4a 00
        E 240 80 56 00
        E 60 80 62 00
        E 60 90 49 60
        E 0 90 55 60
        E 0 90 61 60
        E 60 80 49 00
        E 0 80 55 00
        E 0 80 61 00
        E 180 90 56 60
        E 0 90 62 60
        E 60 80 56 00
        E 0 80 62 00
        E 180 90 3d 60
        E 0 90 49 60
        E 0 90 55 60
        E 0 90 61 60
        E 60 80 3d 00
        E 0 80 49 00
        E 0 80 55 00
        E 0 80 61 00
        E 180 90 56 60
        E 0 90 62 60
        E 60 80 56 00
        E 0 80 62 00
        E 180 90 4a 60
        E 0 90 56 60
        E 0 90 62 60
        E 60 80 4a 00
        E 0 80 56 00
        E 0 80 62 00
        E 180 90 55 60
        E 0 90 61 60
        E 60 80 55 00
        E 0 80 61 00
        E 420 90 3d 60
        E 0 90 49 60
        E 0 90 55 60
        E 0 90 61 60
        E 60 80 3d 00
        E 0 80 49 00
        E 0 80 55 00
        E 0 80 61 00
        E 420 90 49 60
        E 0 90 55 60
        E 0 90 61 60
        E 60 80 49 00
        E 0 80 55 00
        E 0 80 61 00
        E 180 90 3d 60
        E 0 90 49 60
        E 0 90 55 60
        E 0 90 61 60
        E 60 80 3d 00
        E 0 80 49 00
        E 0 80 55 00
        E 0 80 61 00
        E 180 90 56 60
        E 0 90 62 60
        E 60 80 56 00
        E 0 80 62 00
        E 180 90 4a 60
        E 0 90 56 60
        E 0 90 62 60
        E 60 80 4a 00
        E 0 80 56 00
        E 0 80 62 00
        E 60 90 74 60
        E 120 90 55 60
        E 0 90 61 60
        E 60 80 55 00
        E 0 80 61 00
        E 180 90 3e 60
        E 0 90 4a 60
        E 0 90 56 60
        E 0 90 62 60
        E 120 80 3e 00
        E 0 80 4a 00
        E 240 80 56 00
        E 60 80 62 00
        E 60 90 49 60
        E 0 90 55 60
        E 0 90 61 60
        E 60 80 49 00
        E 0 80 55 00
        E 0 80 61 00
        E 180 90 56 60
        E 0 90 62 60
        E 60 80 56 00
        E 0 80 62 00
        E 180 90 3d 60
        E 0 90 49 60
        E 0 90 55 60
        E 0 90 61 60
        E 60 80 3d 00
        E 0 80 49 00
        E 0 80 55 00
        E 0 80 61 00
        E 180 90 56 60
        E 0 90 62 60
        E 60 80 56 00
        E 0 80 62 00
        E 180 90 4a 60
        E 0 90 56 60
        E 0 90 62 60
        E 60 80 4a 00
        E 0 80 56 00
        E 0 80 62 00
        E 180 90 55 60
        E 0 90 61 60
        E 360 80 55 00
        E 60 80 61 00
        E 60 90 56 60
        E 0 90 62 60
        E 60 80 56 00
        E 0 80 62 00
        E 180 90 49 60
        E 0 90 55 60
        E 0 90 61 60
        E 60 80 49 00
        E 0 80 55 00
        E 0 80 61 00
        E 180 90 56 60
        E 0 90 62 60
        E 60 80 56 00
        E 0 80 62 00
        E 180 90 3e 60
        E 0 90 4a 60
        E 0 90 56 60
        E 0 90 62 60
        E 60 80 3e 00
        E 0 80 4a 00
        E 0 80 56 00
        E 0 80 62 00
        E 180 90 55 60
        E 0 90 61 60
        E 60 80 55 00
        E 0 80 61 00
        E 180 90 3e 60
        E 0 90 4a 60
        E 0 90 56 60
        E 0 90 62 60
        E 60 80 3e 00
        E 0 80 4a 00
        E 0 80 56 00
        E 0 80 62 00
        E 180 90 4a 60
        E 0 90 56 60
        E 0 90 62 60
        E 60 80 4a 00
        E 0 80 56 00
        E 0 80 62 00
        E 180 90 3e 60
        E 0 90 4a 60
        E 0 90 56 60
        E 0 90 62 60
        E 120 80 3e 00
        E 0 80 4a 00
        E 240 80 56 00
        E 60 80 62 00
        E 60 90 49 60
        E 0 90 55 60
        E 0 90 61 60
        E 60 80 49 00
        E 0 80 55 00
        E 0 80 61 00
        E 60 80 74 00
        E 120 90 56 60
        E 0 90 62 60
        E 60 80 56 00
        E 0 80 62 00
        E 180 90 3d 60
        E 0 90 49 60
        E 0 90 55 60
        E 0 90 61 60
        E 60 80 3d 00
        E 0 80 49 00
        E 0 80 55 00
        E 0 80 61 00
        E 180 90 56 60
        E 0 90 62 60
        E 60 80 56 00
        E 0 80 62 00
        E 180 90 4a 60
        E 0 90 56 60
        E 0 90 62 60
        E 60 80 4a 00
        E 0 80 56 00
        E 0 80 62 00
        E 180 90 55 60
        E 0 90 61 60
        E 60 80 55 00
        E 0 80 61 00
        E 420 90 3d 60
        E 0 90 49 60
        E 0 90 55 60
        E 0 90 61 60
        E 60 80 3d 00
        E 0 80 49 00
        E 0 80 55 00
        E 0 80 61 00
        E 420 90 49 60
        E 0 90 55 60
        E 0 90 61 60
        E 120 80 49 00
        E 240 80 55 00
        E 60 80 61 00
        E 60 90 49 60
        E 0 90 55 60
        E 0 90 61 60
        E 60 80 49 00
        E 0 80 55 00
        E 0 80 61 00
        E 180 90 49 60
        E 0 90 55 60
        E 0 90 61 60
        E 60 80 49 00
        E 0 80 55 00
        E 0 80 61 00
        E 180 90 56 60
        E 0 90 62 60
        E 60 80 56 00
        E 0 80 62 00
        E 180 90 3e 60
        E 0 90 4a 60
        E 0 90 56 60
        E 0 90 62 60
        E 120 80 3e 00
        E 0 80 4a 00
        E 240 80 56 00
        E 60 80 62 00
        E 60 90 49 60
        E 0 90 55 60
        E 0 90 61 60
        E 60 80 49 00
        E 0 80 55 00
        E 0 80 61 00
        E 180 90 56 60
        E 0 90 62 60
        E 60 80 56 00
        E 0 80 62 00
        E 180 90 3d 60
        E 0 90 49 60
        E 0 90 55 60
        E 0 90 61 60
        E 60 80 3d 00
        E 0 80 49 00
        E 0 80 55 00
        E 0 80 61 00
        E 180 90 56 60
        E 0 90 62 60
        E 60 80 56 00
        E 0 80 62 00
        E 180 90 4a 60
        E 0 90 56 60
        E 0 90 62 60
        E 60 80 4a 00
        E 0 80 56 00
        E 0 80 62 00
        E 180 90 55 60
        E 0 90 61 60
        E 60 80 55 00
        E 0 80 61 00
        E 180 90 3e 60
        E 0 90 4a 60
        E 0 90 56 60
        E 0 90 62 60
        E 60 80 3e 00
        E 0 80 4a 00
        E 0 80 56 00
        E 0 80 62 00
        E 180 90 55 60
        E 0 90 61 60
        E 60 80 55 00
        E 0 80 61 00
        E 420 90 49 60
        E 0 90 55 60
        E 0 90 61 60
        E 60 80 49 00
        E 0 80 55 00
        E 0 80 61 00
        E 180 90 3d 60
        E 0 90 49 60
        E 0 90 55 60
        E 0 90 61 60
        E 60 80 3d 00
        E 0 80 49 00
        E 0 80 55 00
        E 0 80 61 00
        E 180 90 56 60
        E 0 90 62 60
        E 60 80 56 00
        E 0 80 62 00
        E 180 90 4a 60
        E 0 90 56 60
        E 0 90 62 60
        E 60 80 4a 00
        E 0 80 56 00
        E 0 80 62 00
        E 180 90 55 60
        E 0 90 61 60
        E 60 80 55 00
        E 0 80 61 00
        E 180 90 3e 60
        E 0 90 4a 60
        E 0 90 56 60
        E 0 90 62 60
        E 120 80 3e 00
        E 0 80 4a 00
        E 240 80 56 00
        E 60 80 62 00
        E 60 90 49 60
        E 0 90 55 60
        E 0 90 61 60
        E 60 80 49 00
        E 0 80 55 00
        E 0 80 61 00
        E 180 90 56 60
        E 0 90 62 60
        E 60 80 56 00
        E 0 80 62 00
        E 180 90 3d 60
        E 0 90 49 60
        E 0 90 55 60
        E 0 90 61 60
        E 60 80 3d 00
        E 0 80 49 00
        E 0 80 55 00
        E 0 80 61 00
        E 180 90 56 60
        E 0 90 62 60
        E 60 80 56 00
        E 0 80 62 00
        E 180 90 4a 60
        E 0 90 56 60
        E 0 90 62 60
        E 60 80 4a 00
        E 0 80 56 00
        E 0 80 62 00
        E 180 90 55 60
        E 0 90 61 60
        E 60 80 55 00
        E 0 80 61 00
        E 420 90 3d 60
        E 0 90 49 60
        E 0 90 55 60
        E 0 90 61 60
        E 60 80 3d 00
        E 0 80 49 00
        E 0 80 55 00
        E 0 80 61 00
        E 420 90 49 60
        E 0 90 55 60
        E 0 90 61 60
        E 60 80 49 00
        E 0 80 55 00
        E 0 80 61 00
        E 180 90 3d 60
        E 0 90 49 60
        E 0 90 55 60
        E 0 90 61 60
        E 60 80 3d 00
        E 0 80 49 00
        E 0 80 55 00
        E 0 80 61 00
        E 180 90 56 60
        E 0 90 62 60
        E 60 80 56 00
        E 0 80 62 00
        E 180 90 4a 60
        E 0 90 56 60
        E 0 90 62 60
        E 60 80 4a 00
        E 0 80 56 00
        E 0 80 62 00
        E 180 90 55 60
        E 0 90 61 60
        E 60 80 55 00
        E 0 80 61 00
        E 180 90 3e 60
        E 0 90 4a 60
        E 0 90 56 60
        E 0 90 62 60
        E 120 80 3e 00
        E 0 80 4a 00
        E 240 80 56 00
        E 60 80 62 00
        E 60 90 49 60
        E 0 90 55 60
        E 0 90 61 60
        E 60 80 49 00
        E 0 80 55 00
        E 0 80 61 00
        E 180 90 56 60
        E 0 90 62 60
        E 60 80 56 00
        E 0 80 62 00
        E 180 90 3e 60
        E 0 90 4a 60
        E 0 90 56 60
        E 0 90 62 60
        E 60 80 3e 00
        E 0 80 4a 00
        E 0 80 56 00
        E 0 80 62 00
        E 180 90 55 60
        E 0 90 61 60
        E 60 80 55 00
        E 0 80 61 00
        E 180 90 3e 60
        E 0 90 4a 60
        E 0 90 56 60
        E 0 90 62 60
        E 60 80 3e 00
        E 0 80 4a 00
        E 0 80 56 00
        E 0 80 62 00
        E 180 90 55 60
        E 0 90 61 60
        E 360 80 55 00
        E 60 80 61 00
        E 60 90 56 60
        E 0 90 62 60
        E 60 80 56 00
        E 0 80 62 00
        E 180 90 49 60
        E 0 90 55 60
        E 0 90 61 60
        E 60 80 49 00
        E 0 80 55 00
        E 0 80 61 00
        E 180 90 56 60
        E 0 90 62 60
        E 60 80 56 00
        E 0 80 62 00
        E 180 90 3e 60
        E 0 90 4a 60
        E 0 90 56 60
        E 0 90 62 60
        E 60 80 3e 00
        E 0 80 4a 00
        E 0 80 56 00
        E 0 80 62 00
        E 180 90 55 60
        E 0 90 61 60
        E 60 80 55 00
        E 0 80 61 00
        E 180 90 4a 60
        E 0 90 56 60
        E 0 90 62 60
        E 60 80 4a 00
        E 0 80 56 00
        E 0 80 62 00
        E 180 90 55 60
        E 0 90 61 60
        E 60 80 55 00
        E 0 80 61 00
        E 180 90 3d 60
        E 0 90 49 60
        E 0 90 55 60
        E 0 90 61 60
        E 60 80 3d 00
        E 0 80 49 00
        E 0 80 55 00
        E 0 80 61 00
        E 420 90 3d 60
        E 0 90 49 60
        E 0 90 55 60
        E 0 90 61 60
        E 60 80 3d 00
        E 0 80 49 00
        E 0 80 55 00
        E 0 80 61 00
        E 660 90 49 60
        E 0 90 55 60
        E 0 90 61 60
        E 60 80 49 00
        E 0 80 55 00
        E 0 80 61 00
        E 420 90 3e 60
        E 0 90 4a 60
        E 0 90 56 60
        E 0 90 62 60
        E 60 80 3e 00
        E 0 80 4a 00
        E 0 80 56 00
        E 0 80 62 00
        E 420 90 4a 60
        E 0 90 56 60
        E 0 90 62 60
        E 60 80 4a 00
        E 0 80 56 00
        E 0 80 62 00
        E 780 90 74 60
        E 120 90 56 60
        E 0 90 62 60
        E 60 80 56 00
        E 0 80 62 00
        E 180 90 48 60
        E 0 90 54 60
        E 0 90 60 60
        E 120 80 48 00
        E 240 80 54 00
        E 60 80 60 00
        E 60 90 3d 60
        E 0 90 49 60
        E 0 90 55 60
        E 0 90 61 60
        E 60 80 3d 00
        E 0 80 49 00
        E 0 80 55 00
        E 0 80 61 00
        E 420 90 3d 60
        E 0 90 49 60
        E 0 90 55 60
        E 0 90 61 60
        E 60 80 3d 00
        E 0 80 49 00
        E 0 80 55 00
        E 0 80 61 00
        E 660 90 49 60
        E 0 90 55 60
        E 0 90 61 60
        E 60 80 49 00
        E 0 80 55 00
        E 0 80 61 00
        E 420 90 3e 60
        E 0 90 4a 60
        E 0 90 56 60
        E 0 90 62 60
        E 120 80 3e 00
        E 0 80 4a 00
        E 420 80 56 00
        E 0 80 62 00
        E 180 90 48 60
        E 0 90 54 60
        E 0 90 60 60
        E 60 80 48 00
        E 0 80 54 00
        E 0 80 60 00
        E 180 90 55 60
        E 0 90 61 60
        E 360 80 55 00
        E 60 80 61 00
        E 60 90 4a 60
        E 0 90 56 60
        E 0 90 62 60
        E 60 80 4a 00
        E 0 80 56 00
        E 0 80 62 00
        E 180 90 4a 60
        E 0 90 56 60
        E 0 90 62 60
        E 60 80 4a 00
        E 0 80 56 00
        E 0 80 62 00
        E 180 90 55 60
        E 0 90 61 60
        E 60 80 55 00
        E 0 80 61 00
        E 180 90 3d 60
        E 0 90 49 60
        E 0 90 55 60
        E 0 90 61 60
        E 60 80 3d 00
        E 0 80 49 00
        E 0 80 55 00
        E 0 80 61 00
        E 120 80 74 00
        E 300 90 3d 60
        E 0 90 49 60
        E 0 90 55 60
        E 0 90 61 60
        E 60 80 3d 00
        E 0 80 49 00
        E 0 80 55 00
        E 0 80 61 00
        E 660 90 49 60
        E 0 90 55 60
        E 0 90 61 60
        E 60 80 49 00
        E 0 80 55 00
        E 0 80 61 00
        E 420 90 3e 60
        E 0 90 4a 60
        E 0 90 56 60
        E 0 90 62 60
        E 60 80 3e 00
        E 0 80 4a 00
        E 0 80 56 00
        E 0 80 62 00
        E 420 90 4a 60
        E 0 90 56 60
        E 0 90 62 60
        E 60 80 4a 00
        E 0 80 56 00
        E 0 80 62 00
        E 900 90 56 60
        E 0 90 62 60
        E 60 80 56 00
        E 0 80 62 00
        E 180 90 49 60
        E 0 90 55 60
        E 0 90 61 60
        E 60 80 49 00
        E 0 80 55 00
        E 0 80 61 00
        E 180 90 55 60
        E 0 90 61 60
        E 60 80 55 00
        E 0 80 61 00
        E 180 90 3c 60
        E 0 90 48 60
        E 0 90 54 60
        E 0 90 60 60
        E 60 80 3c 00
        E 0 80 48 00
        E 0 80 54 00
        E 0 80 60 00
        E 420 90 3c 60
        E 0 90 48 60
        E 0 90 54 60
        E 0 90 60 60
        E 60 80 3c 00
        E 0 80 48 00
        E 0 80 54 00
        E 0 80 60 00
        E 660 90 49 60
        E 0 90 55 60
        E 0 90 61 60
        E 60 80 49 00
        E 0 80 55 00
        E 0 80 61 00
        E 420 90 3d 60
        E 0 90 49 60
        E 0 90 55 60
        E 0 90 61 60
        E 120 80 3d 00
        E 0 80 49 00
        E 420 80 55 00
        E 0 80 61 00
        E 180 90 48 60
        E 0 90 54 60
        E 0 90 60 60
        E 60 80 48 00
        E 0 80 54 00
        E 0 80 60 00
        E 180 90 55 60
        E 0 90 61 60
        E 360 80 55 00
        E 60 80 61 00
        E 60 90 56 60
        E 0 90 62 60
        E 60 80 56 00
        E 0 80 62 00
        E 180 90 3d 60
        E 0 90 49 60
        E 0 90 55 60
        E 0 90 61 60
        E 60 80 3d 00
        E 0 80 49 00
        E 0 80 55 00
        E 0 80 61 00
        E 180 90 56 60
        E 0 90 62 60
        E 60 80 56 00
        E 0 80 62 00
        E 180 90 3d 60
        E 0 90 49 60
        E 0 90 55 60
        E 0 90 61 60
        E 60 80 3d 00
        E 0 80 49 00
        E 0 80 55 00
        E 0 80 61 00
        E 420 90 3d 60
        E 0 90 49 60
        E 0 90 55 60
        E 0 90 61 60
        E 60 80 3d 00
        E 0 80 49 00
        E 0 80 55 00
        E 0 80 61 00
        E 660 90 4c 60
        E 0 90 58 60
        E 0 90 64 60
        E 60 80 4c 00
        E 0 80 58 00
        E 0 80 64 00
        E 420 90 3e 60
        E 0 90 4a 60
        E 0 90 56 60
        E 0 90 62 60
        E 60 80 3e 00
        E 0 80 4a 00
        E 0 80 56 00
        E 0 80 62 00
        E 420 90 4a 60
        E 0 90 56 60
        E 0 90 62 60
        E 60 80 4a 00
        E 0 80 56 00
        E 0 80 62 00
        E 900 90 58 60
        E 0 90 64 60
        E 60 80 58 00
        E 0 80 64 00
        E 180 90 48 60
        E 0 90 54 60
        E 0 90 60 60
        E 60 80 48 00
        E 0 80 54 00
        E 0 80 60 00
        E 180 90 55 60
        E 0 90 61 60
        E 60 80 55 00
        E 0 80 61 00
        E 180 90 3d 60
        E 0 90 49 60
        E 0 90 55 60
        E 0 90 61 60
        E 60 80 3d 00
        E 0 80 49 00
        E 0 80 55 00
        E 0 80 61 00
        E 420 90 3d 60
        E 0 90 49 60
        E 0 90 55 60
        E 0 90 61 60
        E 60 80 3d 00
        E 0 80 49 00
        E 0 80 55 00
        E 0 80 61 00
        E 660 90 49 60
        E 0 90 55 60
        E 0 90 61 60
        E 120 80 49 00
        E 240 80 55 00
        E 60 80 61 00
        E 60 90 56 60
        E 0 90 62 60
        E 60 80 56 00
        E 0 80 62 00
        E 180 90 40 60
        E 0 90 4c 60
        E 0 90 58 60
        E 0 90 64 60
        E 0 90 65 60
        E 60 80 65 00
        E 1380 80 40 00
        E 0 80 4c 00
        E 180 80 58 00
        E 0 80 64 00
        E 300 90 3e 60
        E 0 90 4a 60
        E 0 90 56 60
        E 0 90 62 60
        E 120 80 3e 00
        E 0 80 4a 00
        E 240 80 56 00
        E 60 80 62 00
        E 60 90 49 60
        E 0 90 55 60
        E 0 90 61 60
        E 60 80 49 00
        E 0 80 55 00
        E 0 80 61 00
        E 180 90 56 60
        E 0 90 62 60
        E 60 80 56 00
        E 0 80 62 00
        E 180 90 3d 60
        E 0 90 49 60
        E 0 90 55 60
        E 0 90 61 60
        E 60 80 3d 00
        E 0 80 49 00
        E 0 80 55 00
        E 0 80 61 00
        E 180 90 56 60
        E 0 90 62 60
        E 60 80 56 00
        E 0 80 62 00
        E 180 90 4a 60
        E 0 90 56 60
        E 0 90 62 60
        E 60 80 4a 00
        E 0 80 56 00
        E 0 80 62 00
        E 180 90 55 60
        E 0 90 61 60
        E 60 80 55 00
        E 0 80 61 00
        E 246 90 74 60
        E 174 90 3d 60
        E 0 90 49 60
        E 0 90 55 60
        E 0 90 61 60
        E 60 80 3d 00
        E 0 80 49 00
        E 0 80 55 00
        E 0 80 61 00
        E 420 90 49 60
        E 0 90 55 60
        E 0 90 61 60
        E 60 80 49 00
        E 0 80 55 00
        E 0 80 61 00
        E 180 90 3d 60
        E 0 90 49 60
        E 0 90 55 60
        E 0 90 61 60
        E 60 80 3d 00
        E 0 80 49 00
        E 0 80 55 00
        E 0 80 61 00
        E 180 90 56 60
        E 0 90 62 60
        E 60 80 56 00
        E 0 80 62 00
        E 180 90 4a 60
        E 0 90 56 60
        E 0 90 62 60
        E 60 80 4a 00
        E 0 80 56 00
        E 0 80 62 00
        E 180 90 55 60
        E 0 90 61 60
        E 60 80 55 00
        E 0 80 61 00
        E 180 90 3e 60
        E 0 90 4a 60
        E 0 90 56 60
        E 0 90 62 60
        E 120 80 3e 00
        E 0 80 4a 00
        E 240 80 56 00
        E 60 80 62 00
        E 60 90 49 60
        E 0 90 55 60
        E 0 90 61 60
        E 60 80 49 00
        E 0 80 55 00
        E 0 80 61 00
        E 180 90 56 60
        E 0 90 62 60
        E 60 80 56 00
        E 0 80 62 00
        E 180 90 3d 60
        E 0 90 49 60
        E 0 90 55 60
        E 0 90 61 60
        E 60 80 3d 00
        E 0 80 49 00
        E 0 80 55 00
        E 0 80 61 00
        E 180 90 56 60
        E 0 90 62 60
        E 60 80 56 00
        E 0 80 62 00
        E 180 90 4a 60
        E 0 90 56 60
        E 0 90 62 60
        E 60 80 4a 00
        E 0 80 56 00
        E 0 80 62 00
        E 180 90 55 60
        E 0 90 61 60
        E 60 80 55 00
        E 0 80 61 00
        E 180 90 3e 60
        E 0 90 4a 60
        E 0 90 56 60
        E 0 90 62 60
        E 60 80 3e 00
        E 0 80 4a 00
        E 0 80 56 00
        E 0 80 62 00
        E 180 90 55 60
        E 0 90 61 60
        E 60 80 55 00
        E 0 80 61 00
        E 296 80 74 00
        E 124 90 49 60
        E 0 90 55 60
        E 0 90 61 60
        E 60 80 49 00
        E 0 80 55 00
        E 0 80 61 00
        E 180 90 3d 60
        E 0 90 49 60
        E 0 90 55 60
        E 0 90 61 60
        E 60 80 3d 00
        E 0 80 49 00
        E 0 80 55 00
        E 0 80 61 00
        E 180 90 56 60
        E 0 90 62 60
        E 60 80 56 00
        E 0 80 62 00
        E 180 90 4a 60
        E 0 90 56 60
        E 0 90 62 60
        E 60 80 4a 00
        E 0 80 56 00
        E 0 80 62 00
        E 180 90 55 60
        E 0 90 61 60
        E 60 80 55 00
        E 0 80 61 00
        E 180 90 3e 60
        E 0 90 4a 60
        E 0 90 56 60
        E 0 90 62 60
        E 120 80 3e 00
        E 0 80 4a 00
        E 240 80 56 00
        E 60 80 62 00
        E 60 90 49 60
        E 0 90 55 60
        E 0 90 61 60
        E 60 80 49 00
        E 0 80 55 00
        E 0 80 61 00
        E 180 90 56 60
        E 0 90 62 60
        E 60 80 56 00
        E 0 80 62 00
        E 180 90 3d 60
        E 0 90 49 60
        E 0 90 55 60
        E 0 90 61 60
        E 60 80 3d 00
        E 0 80 49 00
        E 0 80 55 00
        E 0 80 61 00
        E 180 90 56 60
        E 0 90 62 60
        E 60 80 56 00
        E 0 80 62 00
        E 180 90 4a 60
        E 0 90 56 60
        E 0 90 62 60
        E 60 80 4a 00
        E 0 80 56 00
        E 0 80 62 00
        E 180 90 55 60
        E 0 90 61 60
        E 60 80 55 00
        E 0 80 61 00
        E 420 90 3d 60
        E 0 90 49 60
        E 0 90 55 60
        E 0 90 61 60
        E 60 80 3d 00
        E 0 80 49 00
        E 0 80 55 00
        E 0 80 61 00
        E 420 90 49 60
        E 0 90 55 60
        E 0 90 61 60
        E 120 80 49 00
        E 240 80 55 00
        E 60 80 61 00
        E 60 90 55 60
        E 0 90 61 60
        E 60 80 55 00
        E 0 80 61 00
        E 180 90 48 60
        E 0 90 54 60
        E 0 90 60 60
        E 60 80 48 00
        E 0 80 54 00
        E 0 80 60 00
        E 180 90 55 60
        E 0 90 61 60
        E 60 80 55 00
        E 0 80 61 00
        E 180 90 3e 60
        E 0 90 4a 60
        E 0 90 56 60
        E 0 90 62 60
        E 120 80 3e 00
        E 0 80 4a 00
        E 240 80 56 00
        E 60 80 62 00
        E 60 90 49 60
        E 0 90 55 60
        E 0 90 61 60
        E 60 80 49 00
        E 0 80 55 00
        E 0 80 61 00
        E 180 90 56 60
        E 0 90 62 60
        E 60 80 56 00
        E 0 80 62 00
        E 180 90 3d 60
        E 0 90 49 60
        E 0 90 55 60
        E 0 90 61 60
        E 60 80 3d 00
        E 0 80 49 00
        E 0 80 55 00
        E 0 80 61 00
        E 180 90 56 60
        E 0 90 62 60
        E 60 80 56 00
        E 0 80 62 00
        E 180 90 4a 60
        E 0 90 56 60
        E 0 90 62 60
        E 60 80 4a 00
        E 0 80 56 00
        E 0 80 62 00
        E 180 90 55 60
        E 0 90 61 60
        E 60 80 55 00
        E 0 80 61 00
        E 180 90 3c 60
        E 0 90 48 60
        E 0 90 54 60
        E 0 90 60 60
        E 60 80 3c 00
        E 0 80 48 00
        E 0 80 54 00
        E 0 80 60 00
        E 180 90 55 60
        E 0 90 61 60
        E 60 80 55 00
        E 0 80 61 00
        E 420 90 49 60
        E 0 90 55 60
        E 0 90 61 60
        E 60 80 49 00
        E 0 80 55 00
        E 0 80 61 00
        E 180 90 3d 60
        E 0 90 49 60
        E 0 90 55 60
        E 0 90 61 60
        E 60 80 3d 00
        E 0 80 49 00
        E 0 80 55 00
        E 0 80 61 00
        E 180 90 56 60
        E 0 90 62 60
        E 60 80 56 00
        E 0 80 62 00
        E 180 90 4a 60
        E 0 90 56 60
        E 0 90 62 60
        E 60 80 4a 00
        E 0 80 56 00
        E 0 80 62 00
        E 180 90 55 60
        E 0 90 61 60
        E 60 80 55 00
        E 0 80 61 00
        E 180 90 3e 60
        E 0 90 4a 60
        E 0 90 56 60
        E 0 90 62 60
        E 120 80 3e 00
        E 0 80 4a 00
        E 240 80 56 00
        E 60 80 62 00
        E 60 90 49 60
        E 0 90 55 60
        E 0 90 61 60
        E 60 80 49 00
        E 0 80 55 00
        E 0 80 61 00
        E 180 90 56 60
        E 0 90 62 60
        E 60 80 56 00
        E 0 80 62 00
        E 180 90 3d 60
        E 0 90 49 60
        E 0 90 55 60
        E 0 90 61 60
        E 60 80 3d 00
        E 0 80 49 00
        E 0 80 55 00
        E 0 80 61 00
        E 180 90 56 60
        E 0 90 62 60
        E 60 80 56 00
        E 0 80 62 00
        E 180 90 4a 60
        E 0 90 56 60
        E 0 90 62 60
        E 60 80 4a 00
        E 0 80 56 00
        E 0 80 62 00
        E 180 90 55 60
        E 0 90 61 60
        E 60 80 55 00
        E 0 80 61 00
        E 420 90 3d 60
        E 0 90 49 60
        E 0 90 55 60
        E 0 90 61 60
        E 60 80 3d 00
        E 0 80 49 00
        E 0 80 55 00
        E 0 80 61 00
        E 420 90 49 60
        E 0 90 55 60
        E 0 90 61 60
        E 60 80 49 00
        E 0 80 55 00
        E 0 80 61 00
        E 180 90 3d 60
        E 0 90 49 60
        E 0 90 55 60
        E 0 90 61 60
        E 60 80 3d 00
        E 0 80 49 00
        E 0 80 55 00
        E 0 80 61 00
        E 180 90 56 60
        E 0 90 62 60
        E 60 80 56 00
        E 0 80 62 00
        E 180 90 4a 60
        E 0 90 56 60
        E 0 90 62 60
        E 60 80 4a 00
        E 0 80 56 00
        E 0 80 62 00
        E 180 90 55 60
        E 0 90 61 60
        E 60 80 55 00
        E 0 80 61 00
        E 180 90 3e 60
        E 0 90 4a 60
        E 0 90 56 60
        E 0 90 62 60
        E 120 80 3e 00
        E 0 80 4a 00
        E 240 80 56 00
        E 60 80 62 00
        E 60 90 49 60
        E 0 90 55 60
        E 0 90 61 60
        E 60 80 49 00
        E 0 80 55 00
        E 0 80 61 00
        E 180 90 56 60
        E 0 90 62 60
        E 60 80 56 00
        E 0 80 62 00
        E 180 90 3d 60
        E 0 90 49 60
        E 0 90 55 60
        E 0 90 61 60
        E 60 80 3d 00
        E 0 80 49 00
        E 0 80 55 00
        E 0 80 61 00
        E 180 90 56 60
        E 0 90 62 60
        E 60 80 56 00
        E 0 80 62 00
        E 180 90 4a 60
        E 0 90 56 60
        E 0 90 62 60
        E 60 80 4a 00
        E 0 80 56 00
        E 0 80 62 00
        E 180 90 55 60
        E 0 90 61 60
        E 60 80 55 00
        E 0 80 61 00
        E 180 90 3c 60
        E 0 90 48 60
        E 0 90 54 60
        E 0 90 60 60
        E 60 80 3c 00
        E 0 80 48 00
        E 0 80 54 00
        E 0 80 60 00
        E 180 90 55 60
        E 0 90 61 60
        E 60 80 55 00
        E 0 80 61 00
        E 420 90 49 60
        E 0 90 55 60
        E 0 90 61 60
        E 60 80 49 00
        E 0 80 55 00
        E 0 80 61 00
        E 180 90 3d 60
        E 0 90 49 60
        E 0 90 55 60
        E 0 90 61 60
        E 60 80 3d 00
        E 0 80 49 00
        E 0 80 55 00
        E 0 80 61 00
        E 180 90 56 60
        E 0 90 62 60
        E 60 80 56 00
        E 0 80 62 00
        E 180 90 4a 60
        E 0 90 56 60
        E 0 90 62 60
        E 60 80 4a 00
        E 0 80 56 00
        E 0 80 62 00
        E 180 90 55 60
        E 0 90 61 60
        E 60 80 55 00
        E 0 80 61 00
        E 180 90 3e 60
        E 0 90 4a 60
        E 0 90 56 60
        E 0 90 62 60
        E 120 80 3e 00
        E 0 80 4a 00
        E 240 80 56 00
        E 60 80 62 00
        E 60 90 49 60
        E 0 90 55 60
        E 0 90 61 60
        E 60 80 49 00
        E 0 80 55 00
        E 0 80 61 00
        E 180 90 56 60
        E 0 90 62 60
        E 60 80 56 00
        E 0 80 62 00
        E 180 90 3d 60
        E 0 90 49 60
        E 0 90 55 60
        E 0 90 61 60
        E 60 80 3d 00
        E 0 80 49 00
        E 0 80 55 00
        E 0 80 61 00
        E 180 90 56 60
        E 0 90 62 60
        E 60 80 56 00
        E 0 80 62 00
        E 180 90 4a 60
        E 0 90 56 60
        E 0 90 62 60
        E 60 80 4a 00
        E 0 80 56 00
        E 0 80 62 00
        E 180 90 55 60
        E 0 90 61 60
        E 60 80 55 00
        E 0 80 61 00
        E 420 90 3d 60
        E 0 90 49 60
        E 0 90 55 60
        E 0 90 61 60
        E 60 80 3d 00
        E 0 80 49 00
        E 0 80 55 00
        E 0 80 61 00
        E 420 90 49 60
        E 0 90 55 60
        E 0 90 61 60
        E 60 80 49 00
        E 0 80 55 00
        E 0 80 61 00
        E 180 90 3d 60
        E 0 90 49 60
        E 0 90 55 60
        E 0 90 61 60
        E 60 80 3d 00
        E 0 80 49 00
        E 0 80 55 00
        E 0 80 61 00
        E 180 90 56 60
        E 0 90 62 60
        E 60 80 56 00
        E 0 80 62 00
        E 180 90 4a 60
        E 0 90 56 60
        E 0 90 62 60
        E 60 80 4a 00
        E 0 80 56 00
        E 0 80 62 00
        E 180 90 55 60
        E 0 90 61 60
        E 60 80 55 00
        E 0 80 61 00
        E 180 90 3e 60
        E 0 90 4a 60
        E 0 90 56 60
        E 0 90 62 60
        E 120 80 3e 00
        E 0 80 4a 00
        E 240 80 56 00
        E 60 80 62 00
        E 60 90 49 60
        E 0 90 55 60
        E 0 90 61 60
        E 60 80 49 00
        E 0 80 55 00
        E 0 80 61 00
        E 180 90 56 60
        E 0 90 62 60
        E 60 80 56 00
        E 0 80 62 00
        E 180 90 3d 60
        E 0 90 49 60
        E 0 90 55 60
        E 0 90 61 60
        E 60 80 3d 00
        E 0 80 49 00
        E 0 80 55 00
        E 0 80 61 00
        E 180 90 56 60
        E 0 90 62 60
        E 60 80 56 00
        E 0 80 62 00
        E 180 90 4a 60
        E 0 90 56 60
        E 0 90 62 60
        E 60 80 4a 00
        E 0 80 56 00
        E 0 80 62 00
        E 180 90 55 60
        E 0 90 61 60
        E 360 80 55 00
        E 60 80 61 00
        E 60 90 56 60
        E 0 90 62 60
        E 60 80 56 00
        E 0 80 62 00
        E 180 90 49 60
        E 0 90 55 60
        E 0 90 61 60
        E 60 80 49 00
        E 0 80 55 00
        E 0 80 61 00
        E 180 90 56 60
        E 0 90 62 60
        E 60 80 56 00
        E 0 80 62 00
        E 180 90 3e 60
        E 0 90 4a 60
        E 0 90 56 60
        E 0 90 62 60
        E 60 80 3e 00
        E 0 80 4a 00
        E 0 80 56 00
        E 0 80 62 00
        E 180 90 55 60
        E 0 90 61 60
        E 60 80 55 00
        E 0 80 61 00
        E 180 90 4a 60
        E 0 90 56 60
        E 0 90 62 60
        E 60 80 4a 00
        E 0 80 56 00
        E 0 80 62 00
        E 180 90 56 60
        E 0 90 62 60
        E 60 80 56 00
        E 0 80 62 00
        E 120 90 74 60
        E 60 90 3d 60
        E 0 90 49 60
        E 0 90 55 60
        E 0 90 61 60
        E 1440 80 3d 00
        E 0 80 49 00
        E 360 80 55 00
        E 60 80 61 00
        E 60 90 3e 60
        E 0 90 4a 60
        E 0 90 56 60
        E 0 90 62 60
        E 1440 80 3e 00
        E 0 80 4a 00
        E 360 80 56 00
        E 60 80 62 00
        E 60 90 3d 60
        E 0 90 49 60
        E 0 90 55 60
        E 0 90 61 60
        E 1440 80 3d 00
        E 0 80 49 00
        E 360 80 55 00
        E 60 80 61 00
        E 60 90 3e 60
        E 0 90 4a 60
        E 0 90 56 60
        E 0 90 62 60
        E 1440 80 3e 00
        E 0 80 4a 00
        E 360 80 56 00
        E 60 80 62 00
        E 60 90 3d 60
        E 0 90 49 60
        E 0 90 55 60
        E 0 90 61 60
        E 1440 80 3d 00
        E 0 80 49 00
        E 360 80 55 00
        E 60 80 61 00
        E 60 90 3e 60
        E 0 90 4a 60
        E 0 90 56 60
        E 0 90 62 60
        E 1440 80 3e 00
        E 0 80 4a 00
        E 360 80 56 00
        E 60 80 62 00
        E 60 90 3f 60
        E 0 90 4b 60
        E 0 90 57 60
        E 0 90 63 60
        E 1920 80 3f 00
        E 0 80 4b 00
        E 0 80 57 00
        E 0 80 63 00
        E 1440 80 74 00
        E 2400 90 3e 60
        E 0 90 4a 60
        E 0 90 56 60
        E 0 90 62 60
        E 120 80 3e 00
        E 0 80 4a 00
        E 240 80 56 00
        E 60 80 62 00
        E 60 90 49 60
        E 0 90 55 60
        E 0 90 61 60
        E 60 80 49 00
        E 0 80 55 00
        E 0 80 61 00
        E 180 90 56 60
        E 0 90 62 60
        E 60 80 56 00
        E 0 80 62 00
        E 180 90 3d 60
        E 0 90 49 60
        E 0 90 55 60
        E 0 90 61 60
        E 60 80 3d 00
        E 0 80 49 00
        E 0 80 55 00
        E 0 80 61 00
        E 180 90 56 60
        E 0 90 62 60
        E 60 80 56 00
        E 0 80 62 00
        E 180 90 4a 60
        E 0 90 56 60
        E 0 90 62 60
        E 60 80 4a 00
        E 0 80 56 00
        E 0 80 62 00
        E 180 90 55 60
        E 0 90 61 60
        E 60 80 55 00
        E 0 80 61 00
        E 420 90 3d 60
        E 0 90 49 60
        E 0 90 55 60
        E 0 90 61 60
        E 60 80 3d 00
        E 0 80 49 00
        E 0 80 55 00
        E 0 80 61 00
        E 420 90 49 60
        E 0 90 55 60
        E 0 90 61 60
        E 60 80 49 00
        E 0 80 55 00
        E 0 80 61 00
        E 180 90 3d 60
        E 0 90 49 60
        E 0 90 55 60
        E 0 90 61 60
        E 60 80 3d 00
        E 0 80 49 00
        E 0 80 55 00
        E 0 80 61 00
        E 180 90 56 60
        E 0 90 62 60
        E 60 80 56 00
        E 0 80 62 00
        E 180 90 4a 60
        E 0 90 56 60
        E 0 90 62 60
        E 60 80 4a 00
        E 0 80 56 00
        E 0 80 62 00
        E 180 90 55 60
        E 0 90 61 60
        E 60 80 55 00
        E 0 80 61 00
        E 180 90 3e 60
        E 0 90 4a 60
        E 0 90 56 60
        E 0 90 62 60
        E 120 80 3e 00
        E 0 80 4a 00
        E 240 80 56 00
        E 60 80 62 00
        E 60 90 49 60
        E 0 90 55 60
        E 0 90 61 60
        E 60 80 49 00
        E 0 80 55 00
        E 0 80 61 00
        E 180 90 56 60
        E 0 90 62 60
        E 60 80 56 00
        E 0 80 62 00
        E 180 90 3d 60
        E 0 90 49 60
        E 0 90 55 60
        E 0 90 61 60
        E 60 80 3d 00
        E 0 80 49 00
        E 0 80 55 00
        E 0 80 61 00
        E 180 90 56 60
        E 0 90 62 60
        E 60 80 56 00
        E 0 80 62 00
        E 180 90 4a 60
        E 0 90 56 60
        E 0 90 62 60
        E 60 80 4a 00
        E 0 80 56 00
        E 0 80 62 00
        E 180 90 55 60
        E 0 90 61 60
        E 60 80 55 00
        E 0 80 61 00
        E 180 90 3e 60
        E 0 90 4a 60
        E 0 90 56 60
        E 0 90 62 60
        E 60 80 3e 00
        E 0 80 4a 00
        E 0 80 56 00
        E 0 80 62 00
        E 180 90 55 60
        E 0 90 61 60
        E 60 80 55 00
        E 0 80 61 00
        E 420 90 49 60
        E 0 90 55 60
        E 0 90 61 60
        E 60 80 49 00
        E 0 80 55 00
        E 0 80 61 00
        E 180 90 3d 60
        E 0 90 49 60
        E 0 90 55 60
        E 0 90 61 60
        E 60 80 3d 00
        E 0 80 49 00
        E 0 80 55 00
        E 0 80 61 00
        E 180 90 56 60
        E 0 90 62 60
        E 60 80 56 00
        E 0 80 62 00
        E 180 90 4a 60
        E 0 90 56 60
        E 0 90 62 60
        E 60 80 4a 00
        E 0 80 56 00
        E 0 80 62 00
        E 180 90 55 60
        E 0 90 61 60
        E 60 80 55 00
        E 0 80 61 00
        E 180 90 3e 60
        E 0 90 4a 60
        E 0 90 56 60
        E 0 90 62 60
        E 120 80 3e 00
        E 0 80 4a 00
        E 240 80 56 00
        E 60 80 62 00
        E 60 90 49 60
        E 0 90 55 60
        E 0 90 61 60
        E 60 80 49 00
        E 0 80 55 00
        E 0 80 61 00
        E 180 90 56 60
        E 0 90 62 60
        E 60 80 56 00
        E 0 80 62 00
        E 180 90 3d 60
        E 0 90 49 60
        E 0 90 55 60
        E 0 90 61 60
        E 60 80 3d 00
        E 0 80 49 00
        E 0 80 55 00
        E 0 80 61 00
        E 180 90 56 60
        E 0 90 62 60
        E 60 80 56 00
        E 0 80 62 00
        E 180 90 4a 60
        E 0 90 56 60
        E 0 90 62 60
        E 60 80 4a 00
        E 0 80 56 00
        E 0 80 62 00
        E 180 90 55 60
        E 0 90 61 60
        E 60 80 55 00
        E 0 80 61 00
        E 420 90 3d 60
        E 0 90 49 60
        E 0 90 55 60
        E 0 90 61 60
        E 60 80 3d 00
        E 0 80 49 00
        E 0 80 55 00
        E 0 80 61 00
        E 420 90 49 60
        E 0 90 55 60
        E 0 90 61 60
        E 120 80 49 00
        E 240 80 55 00
        E 60 80 61 00
        E 60 90 55 60
        E 0 90 61 60
        E 60 80 55 00
        E 0 80 61 00
        E 180 90 48 60
        E 0 90 54 60
        E 0 90 60 60
        E 60 80 48 00
        E 0 80 54 00
        E 0 80 60 00
        E 180 90 55 60
        E 0 90 61 60
        E 60 80 55 00
        E 0 80 61 00
        E 180 90 3e 60
        E 0 90 4a 60
        E 0 90 56 60
        E 0 90 62 60
        E 120 80 3e 00
        E 0 80 4a 00
        E 240 80 56 00
        E 60 80 62 00
        E 60 90 49 60
        E 0 90 55 60
        E 0 90 61 60
        E 60 80 49 00
        E 0 80 55 00
        E 0 80 61 00
        E 180 90 56 60
        E 0 90 62 60
        E 60 80 56 00
        E 0 80 62 00
        E 180 90 3d 60
        E 0 90 49 60
        E 0 90 55 60
        E 0 90 61 60
        E 60 80 3d 00
        E 0 80 49 00
        E 0 80 55 00
        E 0 80 61 00
        E 180 90 56 60
        E 0 90 62 60
        E 60 80 56 00
        E 0 80 62 00
        E 180 90 4a 60
        E 0 90 56 60
        E 0 90 62 60
        E 60 80 4a 00
        E 0 80 56 00
        E 0 80 62 00
        E 180 90 55 60
        E 0 90 61 60
        E 60 80 55 00
        E 0 80 61 00
        E 180 90 3c 60
        E 0 90 48 60
        E 0 90 54 60
        E 0 90 60 60
        E 60 80 3c 00
        E 0 80 48 00
        E 0 80 54 00
        E 0 80 60 00
        E 180 90 55 60
        E 0 90 61 60
        E 60 80 55 00
        E 0 80 61 00
        E 420 90 49 60
        E 0 90 55 60
        E 0 90 61 60
        E 60 80 49 00
        E 0 80 55 00
        E 0 80 61 00
        E 180 90 3d 60
        E 0 90 49 60
        E 0 90 55 60
        E 0 90 61 60
        E 60 80 3d 00
        E 0 80 49 00
        E 0 80 55 00
        E 0 80 61 00
        E 180 90 56 60
        E 0 90 62 60
        E 60 80 56 00
        E 0 80 62 00
        E 180 90 4a 60
        E 0 90 56 60
        E 0 90 62 60
        E 60 80 4a 00
        E 0 80 56 00
        E 0 80 62 00
        E 180 90 55 60
        E 0 90 61 60
        E 60 80 55 00
        E 0 80 61 00
        E 44 90 74 60
        E 136 90 3e 60
        E 0 90 4a 60
        E 0 90 56 60
        E 0 90 62 60
        E 120 80 3e 00
        E 0 80 4a 00
        E 240 80 56 00
        E 60 80 62 00
        E 60 90 49 60
        E 0 90 55 60
        E 0 90 61 60
        E 60 80 49 00
        E 0 80 55 00
        E 0 80 61 00
        E 180 90 56 60
        E 0 90 62 60
        E 60 80 56 00
        E 0 80 62 00
        E 180 90 3d 60
        E 0 90 49 60
        E 0 90 55 60
        E 0 90 61 60
        E 60 80 3d 00
        E 0 80 49 00
        E 0 80 55 00
        E 0 80 61 00
        E 180 90 56 60
        E 0 90 62 60
        E 60 80 56 00
        E 0 80 62 00
        E 180 90 4a 60
        E 0 90 56 60
        E 0 90 62 60
        E 60 80 4a 00
        E 0 80 56 00
        E 0 80 62 00
        E 180 90 55 60
        E 0 90 61 60
        E 60 80 55 00
        E 0 80 61 00
        E 420 90 3d 60
        E 0 90 49 60
        E 0 90 55 60
        E 0 90 61 60
        E 60 80 3d 00
        E 0 80 49 00
        E 0 80 55 00
        E 0 80 61 00
        E 420 90 49 60
        E 0 90 55 60
        E 0 90 61 60
        E 60 80 49 00
        E 0 80 55 00
        E 0 80 61 00
        E 180 90 3d 60
        E 0 90 49 60
        E 0 90 55 60
        E 0 90 61 60
        E 60 80 3d 00
        E 0 80 49 00
        E 0 80 55 00
        E 0 80 61 00
        E 180 90 56 60
        E 0 90 62 60
        E 60 80 56 00
        E 0 80 62 00
        E 180 90 4a 60
        E 0 90 56 60
        E 0 90 62 60
        E 60 80 4a 00
        E 0 80 56 00
        E 0 80 62 00
        E 180 90 55 60
        E 0 90 61 60
        E 60 80 55 00
        E 0 80 61 00
        E 180 90 3e 60
        E 0 90 4a 60
        E 0 90 56 60
        E 0 90 62 60
        E 120 80 3e 00
        E 0 80 4a 00
        E 240 80 56 00
        E 60 80 62 00
        E 60 90 49 60
        E 0 90 55 60
        E 0 90 61 60
        E 60 80 49 00
        E 0 80 55 00
        E 0 80 61 00
        E 180 90 56 60
        E 0 90 62 60
        E 60 80 56 00
        E 0 80 62 00
        E 180 90 3d 60
        E 0 90 49 60
        E 0 90 55 60
        E 0 90 61 60
        E 60 80 3d 00
        E 0 80 49 00
        E 0 80 55 00
        E 0 80 61 00
        E 180 90 56 60
        E 0 90 62 60
        E 60 80 56 00
        E 0 80 62 00
        E 180 90 4a 60
        E 0 90 56 60
        E 0 90 62 60
        E 60 80 4a 00
        E 0 80 56 00
        E 0 80 62 00
        E 180 90 55 60
        E 0 90 61 60
        E 60 80 55 00
        E 0 80 61 00
        E 180 90 3c 60
        E 0 90 48 60
        E 0 90 54 60
        E 0 90 60 60
        E 60 80 3c 00
        E 0 80 48 00
        E 0 80 54 00
        E 0 80 60 00
        E 180 90 55 60
        E 0 90 61 60
        E 60 80 55 00
        E 0 80 61 00
        E 393 80 74 00
        E 27 90 49 60
        E 0 90 55 60
        E 0 90 61 60
        E 60 80 49 00
        E 0 80 55 00
        E 0 80 61 00
        E 180 90 3d 60
        E 0 90 49 60
        E 0 90 55 60
        E 0 90 61 60
        E 60 80 3d 00
        E 0 80 49 00
        E 0 80 55 00
        E 0 80 61 00
        E 180 90 56 60
        E 0 90 62 60
        E 60 80 56 00
        E 0 80 62 00
        E 180 90 4a 60
        E 0 90 56 60
        E 0 90 62 60
        E 60 80 4a 00
        E 0 80 56 00
        E 0 80 62 00
        E 180 90 55 60
        E 0 90 61 60
        E 60 80 55 00
        E 0 80 61 00
        E 180 90 3e 60
        E 0 90 4a 60
        E 0 90 56 60
        E 0 90 62 60
        E 120 80 3e 00
        E 0 80 4a 00
        E 240 80 56 00
        E 60 80 62 00
        E 60 90 49 60
        E 0 90 55 60
        E 0 90 61 60
        E 60 80 49 00
        E 0 80 55 00
        E 0 80 61 00
        E 180 90 56 60
        E 0 90 62 60
        E 60 80 56 00
        E 0 80 62 00
        E 180 90 3d 60
        E 0 90 49 60
        E 0 90 55 60
        E 0 90 61 60
        E 60 80 3d 00
        E 0 80 49 00
        E 0 80 55 00
        E 0 80 61 00
        E 180 90 56 60
        E 0 90 62 60
        E 60 80 56 00
        E 0 80 62 00
        E 180 90 4a 60
        E 0 90 56 60
        E 0 90 62 60
        E 60 80 4a 00
        E 0 80 56 00
        E 0 80 62 00
        E 180 90 55 60
        E 0 90 61 60
        E 60 80 55 00
        E 0 80 61 00
        E 420 90 3d 60
        E 0 90 49 60
        E 0 90 55 60
        E 0 90 61 60
        E 60 80 3d 00
        E 0 80 49 00
        E 0 80 55 00
        E 0 80 61 00
        E 420 90 49 60
        E 0 90 55 60
        E 0 90 61 60
        E 60 80 49 00
        E 0 80 55 00
        E 0 80 61 00
        E 180 90 3d 60
        E 0 90 49 60
        E 0 90 55 60
        E 0 90 61 60
        E 60 80 3d 00
        E 0 80 49 00
        E 0 80 55 00
        E 0 80 61 00
        E 180 90 56 60
        E 0 90 62 60
        E 60 80 56 00
        E 0 80 62 00
        E 180 90 4a 60
        E 0 90 56 60
        E 0 90 62 60
        E 60 80 4a 00
        E 0 80 56 00
        E 0 80 62 00
        E 180 90 55 60
        E 0 90 61 60
        E 60 80 55 00
        E 0 80 61 00
        E 180 90 3e 60
        E 0 90 4a 60
        E 0 90 56 60
        E 0 90 62 60
        E 120 80 3e 00
        E 0 80 4a 00
        E 240 80 56 00
        E 60 80 62 00
        E 60 90 49 60
        E 0 90 55 60
        E 0 90 61 60
        E 60 80 49 00
        E 0 80 55 00
        E 0 80 61 00
        E 180 90 56 60
        E 0 90 62 60
        E 60 80 56 00
        E 0 80 62 00
        E 180 90 3d 60
        E 0 90 49 60
        E 0 90 55 60
        E 0 90 61 60
        E 60 80 3d 00
        E 0 80 49 00
        E 0 80 55 00
        E 0 80 61 00
        E 180 90 56 60
        E 0 90 62 60
        E 60 80 56 00
        E 0 80 62 00
        E 180 90 4a 60
        E 0 90 56 60
        E 0 90 62 60
        E 60 80 4a 00
        E 0 80 56 00
        E 0 80 62 00
        E 180 90 55 60
        E 0 90 61 60
        E 360 80 55 00
        E 60 80 61 00
        E 60 90 56 60
        E 0 90 62 60
        E 60 80 56 00
        E 0 80 62 00
        E 180 90 49 60
        E 0 90 55 60
        E 0 90 61 60
        E 60 80 49 00
        E 0 80 55 00
        E 0 80 61 00
        E 180 90 56 60
        E 0 90 62 60
        E 60 80 56 00
        E 0 80 62 00
        E 180 90 3e 60
        E 0 90 4a 60
        E 0 90 56 60
        E 0 90 62 60
        E 60 80 3e 00
        E 0 80 4a 00
        E 0 80 56 00
        E 0 80 62 00
        E 180 90 55 60
        E 0 90 61 60
        E 60 80 55 00
        E 0 80 61 00
        E 180 90 3e 60
        E 0 90 4a 60
        E 0 90 56 60
        E 0 90 62 60
        E 60 80 3e 00
        E 0 80 4a 00
        E 0 80 56 00
        E 0 80 62 00
        E 180 90 4a 60
        E 0 90 56 60
        E 0 90 62 60
        E 60 80 4a 00
        E 0 80 56 00
        E 0 80 62 00
        E 180 90 3e 60
        E 0 90 4a 60
        E 0 90 56 60
        E 0 90 62 60
        E 120 80 3e 00
        E 0 80 4a 00
        E 240 80 56 00
        E 60 80 62 00
        E 60 90 49 60
        E 0 90 55 60
        E 0 90 61 60
        E 60 80 49 00
        E 0 80 55 00
        E 0 80 61 00
        E 180 90 56 60
        E 0 90 62 60
        E 60 80 56 00
        E 0 80 62 00
        E 180 90 3d 60
        E 0 90 49 60
        E 0 90 55 60
        E 0 90 61 60
        E 60 80 3d 00
        E 0 80 49 00
        E 0 80 55 00
        E 0 80 61 00
        E 180 90 56 60
        E 0 90 62 60
        E 60 80 56 00
        E 0 80 62 00
        E 180 90 4a 60
        E 0 90 56 60
        E 0 90 62 60
        E 60 80 4a 00
        E 0 80 56 00
        E 0 80 62 00
        E 180 90 55 60
        E 0 90 61 60
        E 60 80 55 00
        E 0 80 61 00
        E 420 90 3d 60
        E 0 90 49 60
        E 0 90 55 60
        E 0 90 61 60
        E 60 80 3d 00
        E 0 80 49 00
        E 0 80 55 00
        E 0 80 61 00
        E 420 90 49 60
        E 0 90 55 60
        E 0 90 61 60
        E 120 80 49 00
        E 240 80 55 00
        E 60 80 61 00
        E 60 90 49 60
        E 0 90 55 60
        E 0 90 61 60
        E 60 80 49 00
        E 0 80 55 00
        E 0 80 61 00
        E 180 90 49 60
        E 0 90 55 60
        E 0 90 61 60
        E 60 80 49 00
        E 0 80 55 00
        E 0 80 61 00
        E 180 90 56 60
        E 0 90 62 60
        E 60 80 56 00
        E 0 80 62 00
        E 180 90 3e 60
        E 0 90 4a 60
        E 0 90 56 60
        E 0 90 62 60
        E 120 80 3e 00
        E 0 80 4a 00
        E 240 80 56 00
        E 60 80 62 00
        E 60 90 49 60
        E 0 90 55 60
        E 0 90 61 60
        E 60 80 49 00
        E 0 80 55 00
        E 0 80 61 00
        E 180 90 56 60
        E 0 90 62 60
        E 60 80 56 00
        E 0 80 62 00
        E 180 90 3d 60
        E 0 90 49 60
        E 0 90 55 60
        E 0 90 61 60
        E 60 80 3d 00
        E 0 80 49 00
        E 0 80 55 00
        E 0 80 61 00
        E 180 90 56 60
        E 0 90 62 60
        E 60 80 56 00
        E 0 80 62 00
        E 180 90 4a 60
        E 0 90 56 60
        E 0 90 62 60
        E 60 80 4a 00
        E 0 80 56 00
        E 0 80 62 00
        E 180 90 55 60
        E 0 90 61 60
        E 60 80 55 00
        E 0 80 61 00
        E 180 90 3e 60
        E 0 90 4a 60
        E 0 90 56 60
        E 0 90 62 60
        E 60 80 3e 00
        E 0 80 4a 00
        E 0 80 56 00
        E 0 80 62 00
        E 180 90 55 60
        E 0 90 61 60
        E 60 80 55 00
        E 0 80 61 00
        E 420 90 49 60
        E 0 90 55 60
        E 0 90 61 60
        E 60 80 49 00
        E 0 80 55 00
        E 0 80 61 00
        E 180 90 3d 60
        E 0 90 49 60
        E 0 90 55 60
        E 0 90 61 60
        E 60 80 3d 00
        E 0 80 49 00
        E 0 80 55 00
        E 0 80 61 00
        E 180 90 56 60
        E 0 90 62 60
        E 60 80 56 00
        E 0 80 62 00
        E 180 90 4a 60
        E 0 90 56 60
        E 0 90 62 60
        E 60 80 4a 00
        E 0 80 56 00
        E 0 80 62 00
        E 180 90 55 60
        E 0 90 61 60
        E 60 80 55 00
        E 0 80 61 00
        E 180 90 3e 60
        E 0 90 4a 60
        E 0 90 56 60
        E 0 90 62 60
        E 120 80 3e 00
        E 0 80 4a 00
        E 240 80 56 00
        E 60 80 62 00
        E 60 90 49 60
        E 0 90 55 60
        E 0 90 61 60
        E 60 80 49 00
        E 0 80 55 00
        E 0 80 61 00
        E 180 90 56 60
        E 0 90 62 60
        E 60 80 56 00
        E 0 80 62 00
        E 180 90 3d 60
        E 0 90 49 60
        E 0 90 55 60
        E 0 90 61 60
        E 60 80 3d 00
        E 0 80 49 00
        E 0 80 55 00
        E 0 80 61 00
        E 180 90 56 60
        E 0 90 62 60
        E 60 80 56 00
        E 0 80 62 00
        E 180 90 4a 60
        E 0 90 56 60
        E 0 90 62 60
        E 60 80 4a 00
        E 0 80 56 00
        E 0 80 62 00
        E 180 90 55 60
        E 0 90 61 60
        E 60 80 55 00
        E 0 80 61 00
        E 420 90 3d 60
        E 0 90 49 60
        E 0 90 55 60
        E 0 90 61 60
        E 60 80 3d 00
        E 0 80 49 00
        E 0 80 55 00
        E 0 80 61 00
        E 420 90 49 60
        E 0 90 55 60
        E 0 90 61 60
        E 60 80 49 00
        E 0 80 55 00
        E 0 80 61 00
        E 180 90 3d 60
        E 0 90 49 60
        E 0 90 55 60
        E 0 90 61 60
        E 60 80 3d 00
        E 0 80 49 00
        E 0 80 55 00
        E 0 80 61 00
        E 180 90 56 60
        E 0 90 62 60
        E 60 80 56 00
        E 0 80 62 00
        E 180 90 4a 60
        E 0 90 56 60
        E 0 90 62 60
        E 60 80 4a 00
        E 0 80 56 00
        E 0 80 62 00
        E 180 90 55 60
        E 0 90 61 60
        E 60 80 55 00
        E 0 80 61 00
        E 180 90 3e 60
        E 0 90 4a 60
        E 0 90 56 60
        E 0 90 62 60
        E 120 80 3e 00
        E 0 80 4a 00
        E 240 80 56 00
        E 60 80 62 00
        E 60 90 49 60
        E 0 90 55 60
        E 0 90 61 60
        E 60 80 49 00
        E 0 80 55 00
        E 0 80 61 00
        E 180 90 56 60
        E 0 90 62 60
        E 60 80 56 00
        E 0 80 62 00
        E 180 90 3e 60
        E 0 90 4a 60
        E 0 90 56 60
        E 0 90 62 60
        E 60 80 3e 00
        E 0 80 4a 00
        E 0 80 56 00
        E 0 80 62 00
        E 180 90 55 60
        E 0 90 61 60
        E 60 80 55 00
        E 0 80 61 00
        E 180 90 3e 60
        E 0 90 4a 60
        E 0 90 56 60
        E 0 90 62 60
        E 60 80 3e 00
        E 0 80 4a 00
        E 0 80 56 00
        E 0 80 62 00
        E 180 90 55 60
        E 0 90 61 60
        E 360 80 55 00
        E 60 80 61 00
        E 60 90 56 60
        E 0 90 62 60
        E 60 80 56 00
        E 0 80 62 00
        E 180 90 49 60
        E 0 90 55 60
        E 0 90 61 60
        E 60 80 49 00
        E 0 80 55 00
        E 0 80 61 00
        E 180 90 56 60
        E 0 90 62 60
        E 60 80 56 00
        E 0 80 62 00
        E 180 90 3e 60
        E 0 90 4a 60
        E 0 90 56 60
        E 0 90 62 60
        E 60 80 3e 00
        E 0 80 4a 00
        E 0 80 56 00
        E 0 80 62 00
        E 180 90 55 60
        E 0 90 61 60
        E 60 80 55 00
        E 0 80 61 00
        E 180 90 3e 60
        E 0 90 4a 60
        E 0 90 56 60
        E 0 90 62 60
        E 60 80 3e 00
        E 0 80 4a 00
        E 0 80 56 00
        E 0 80 62 00
        E 180 90 55 60
        E 0 90 61 60
        E 60 80 55 00
        E 0 80 61 00
        <X 480 0
          /wFbaWRsZV9yZWFsdGltZV0=
        >
        E 240 b0 7b 00
        GUID {54A57D35-811F-42A6-AB75-F5706122F903}
        IGNTEMPO 0 120.00000000 4 4
        SRCCOLOR 68
        VELLANE 132 128 60
        COLORMAP "C:\Users\wejaa\AppData\Roaming\REAPER\Data\color_maps\rockband_guitarbass.png"
        TEXTSTRINGFILE "Text Events List.txt"
        CFGEDITVIEW 175502.129543 138.011176 1 12 0 0 0
        CFGEDIT 1 1 0 0 0 1 1 1 1 1 1 0.12500000 -8 -8 1370 736 1 2 1 2 0.00000000 0 0 0 0 0.500000 1 0 1.000000 64
        KEYSNAP 0 0 "102034050607" 0 "Major"
        EVTFILTER 0 -1 -1 -1 -1 0 1 0 0 -1.00000000 -1.00000000
      >
    >
  >
  <TRACK '{45A7A7CD-8AB4-4627-B479-CA44A615E72C}'
    NAME "bass"
    PEAKCOL 16576
    BEAT -1
    AUTOMODE 0
    VOLPAN 1.00000000000000 0.00000000000000 -1.00000000000000 -1.00000000000000 1.00000000000000
    MUTESOLO 0 0 0
    IPHASE 0
    ISBUS 0 0
    BUSCOMP 0 0
    SHOWINMIX 1 0.666700 0.500000 1 0.500000 -1 -1 -1
    FREEMODE 0
    SEL 0
    REC 0 0 0 0 0 0 0
    VU 2
    TRACKHEIGHT 24 0
    INQ 0 0 0 0.5000000000 100 0 0 100
    NCHAN 2
    FX 1
    TRACKID {45A7A7CD-8AB4-4627-B479-CA44A615E72C}
    PERF 0
    MIDIOUT -1
    MAINSEND 1 0
    <FXCHAIN
      SHOW 0
      LASTSEL 0
      DOCKED 0
    >
    <ITEM
      POSITION 0.00000000000000
      SNAPOFFS 0.00000000000000
      LENGTH 194.51206349206350
      LOOP 0
      ALLTAKES 0
      SEL 0
      FADEIN 1 0.000000 0.000000 1 0
      FADEOUT 1 0.000000 0.000000 1 0
      MUTE 0
      IGUID {220C3FC8-38AD-4392-8FAC-CCCE1EA41330}
      IID 49
      NAME "bass.wav"
      VOLPAN 1.000000 0.000000 1.000000 -1.000000
      SOFFS 0.00000000000000
      PLAYRATE 1.00000000000000 1 0.00000000000000 -1
      CHANMODE 0
      GUID {BC3042D5-500F-4825-A135-5B6C9F99066F}
      <SOURCE WAVE
        FILE "bass.wav"
      >
    >
  >
  <TRACK '{5D0E99FB-2A60-44A1-9BAB-ABB5F812AB9C}'
    NAME "Juhlat_Mulle_guitar_only"
    PEAKCOL 16576
    BEAT -1
    AUTOMODE 0
    VOLPAN 1.00000000000000 0.00000000000000 -1.00000000000000 -1.00000000000000 1.00000000000000
    MUTESOLO 0 0 0
    IPHASE 0
    ISBUS 0 0
    BUSCOMP 0 0
    SHOWINMIX 1 0.666700 0.500000 1 0.500000 -1 -1 -1
    FREEMODE 0
    SEL 0
    REC 0 0 0 0 0 0 0
    VU 2
    TRACKHEIGHT 24 0
    INQ 0 0 0 0.5000000000 100 0 0 100
    NCHAN 2
    FX 1
    TRACKID {5D0E99FB-2A60-44A1-9BAB-ABB5F812AB9C}
    PERF 0
    MIDIOUT -1
    MAINSEND 1 0
    <FXCHAIN
      SHOW 0
      LASTSEL 0
      DOCKED 0
    >
    <ITEM
      POSITION 1.74046799994539
      SNAPOFFS 0.00000000000000
      LENGTH 192.72725623582767
      LOOP 0
      ALLTAKES 0
      SEL 0
      FADEIN 1 0.000000 0.000000 1 0
      FADEOUT 1 0.000000 0.000000 1 0
      MUTE 0
      IGUID {97CC4027-21C8-4D40-A3C2-F7D526B5E9A8}
      IID 69
      NAME "Juhlat_Mulle_guitar_only.wav"
      VOLPAN 1.000000 0.000000 1.000000 -1.000000
      SOFFS 0.00000000000000
      PLAYRATE 1.00000000000000 1 0.00000000000000 -1
      CHANMODE 0
      GUID {63061C9E-2CDE-401D-8490-44FC604233E1}
      <SOURCE WAVE
        FILE "C:\Users\wejaa\Agapio - Digimon parsed\Juhlat_Mulle_guitar_only.wav"
      >
    >
  >
  <TRACK '{6B7F9B4B-FF4E-4CE6-9E2D-4C9BD5DAED77}'
    NAME "PART GUITAR"
    PEAKCOL 33488896
    BEAT -1
    AUTOMODE 0
    VOLPAN 1.51029054812145 0.00000000000000 -1.00000000000000 -1.00000000000000 1.00000000000000
    MUTESOLO 0 0 0
    IPHASE 0
    ISBUS 0 0
    BUSCOMP 1 0
    SHOWINMIX 1 0.666700 0.500000 1 0.500000 -1 -1 -1
    FREEMODE 0
    SEL 0
    REC 0 4096 1 7 0 0 0
    TRACKHEIGHT 122 0
    INQ 0 0 0 0.5000000000 100 0 0 100
    NCHAN 2
    FX 1
    TRACKID {6B7F9B4B-FF4E-4CE6-9E2D-4C9BD5DAED77}
    PERF 0
    MIDIOUT -1
    <MIDINOTENAMES
      0 116 "OVERDRIVE"
      0 102 "Force HOPO Off"
      0 101 "Force HOPO On"
      0 100 "EXPERT Orange"
      0 99 "EXPERT Blue"
      0 98 "EXPERT Yellow"
      0 97 "EXPERT Red"
      0 96 "EXPERT Green"
      0 88 "HARD Orange"
      0 87 "HARD Blue"
      0 86 "HARD Yellow"
      0 85 "HARD Red"
      0 84 "HARD Green"
      0 76 "MEDIUM Orange"
      0 75 "MEDIUM Blue"
      0 74 "MEDIUM Yellow"
      0 73 "MEDIUM Red"
      0 72 "MEDIUM Green"
      0 64 "EASY Orange"
      0 63 "EASY Blue"
      0 62 "EASY Yellow"
      0 61 "EASY Red"
      0 60 "EASY Green"
      0 59 "Left Hand Highest"
      0 40 "Left Hand Lowest"
      0 58 "-"
      0 57 "-"
      0 56 "-"
      0 55 "-"
      0 54 "-"
      0 53 "-"
      0 52 "-"
      0 51 "-"
      0 50 "-"
      0 49 "-"
      0 48 "-"
      0 47 "-"
      0 46 "-"
      0 45 "-"
      0 44 "-"
      0 43 "-"
      0 42 "-"
      0 41 "-"
      0 115 "----"
      0 95 "----"
      0 89 "Force HOPO On"
      0 77 "----"
      0 65 "----"
      0 119 "----"
      0 120 "BRE (use all 5)"
      0 121 "BRE"
      0 122 "BRE"
      0 123 "BRE"
      0 124 "BRE"
      0 90 "Force HOPO Off"
      0 103 "Solo Marker"
      0 127 "Trill Marker"
      0 125 "----"
      0 126 "Strum Marker"
    >
    MAINSEND 1 0
    <FXCHAIN
      WNDRECT -1058 574 878 585
      SHOW 0
      LASTSEL 1
      DOCKED 0
      BYPASS 1 0
      <VST "VSTi: ReaSynth (Cockos)" "reasynth.dll" 0 ""
        eXNlcu9e7f4AAAAAAgAAAAEAAAAAAAAAAgAAAAAAAAA4AAAAAAAAAA==
        AAAAAO++rd4N8K3eAAAAAAAAAAAAAAAAAAAAADm0SD59y9s+tbSxOQ==
        AAAAALbz/T5VpCs6AAAAAAAAAAAAAAAAAAA=
      >
      FLOATPOS 0 0 0 0
      FXID {52B28C73-185B-48E4-B8F4-1FD7A8848B0F}
      WAK 0
      BYPASS 0 0
      <VST "VSTi: RBN Preview (RBN)" "rbprev_vst64_beta.dll" 0 ""
        dnBicu5e7f4AAAAAAgAAAAEAAAAAAAAAAgAAAAAAAAAEAAAAAQAAAA==
        AAAAAAMAqgAAAAAAAAA=
      >
      FLOATPOS 32 32 659 497
      FXID {190BBB08-7A86-476B-BD07-5F71F5CD6F7C}
      WAK 0
    >
    <ITEM
      POSITION 0.00000000000000
      SNAPOFFS 0.00000000000000
      LENGTH 191.39231457733686
      LOOP 0
      ALLTAKES 0
      SEL 0
      FADEIN 1 0.000000 0.000000 1 0
      FADEOUT 1 0.000000 0.000000 1 0
      MUTE 0
      IGUID {81210F06-DA35-41E7-BA75-C6E1C5689733}
      IID 9
      NAME "PART GUITAR"
      VOLPAN 1.000000 0.000000 1.000000 -1.000000
      SOFFS 0.00000000000000 0.00000000000000
      PLAYRATE 1.00000000000000 1 0.00000000000000 -65536
      CHANMODE 0
      GUID {61757875-B3D4-49E4-8483-EE351B7D2386}
      <SOURCE MIDI
        HASDATA 1 480 QN
        POOLEDEVTS {19DB0FB5-D1C6-4AA6-93BD-39B288BF2641}
        <X 0 0
          /wNQQVJUIEdVSVRBUg==
        >
        <X 1920 0
          /wFbcGxheV0=
        >
        E 1680 90 3e 60
        E 0 90 49 60
        E 0 90 4b 60
        E 0 90 55 60
        E 0 90 57 60
        E 0 90 61 60
        E 0 90 62 60
        E 0 90 63 60
        E 3600 80 3e 00
        E 0 80 49 00
        E 0 80 4b 00
        E 0 80 55 00
        E 0 80 57 00
        E 0 80 61 00
        E 0 80 62 00
        E 0 80 63 00
        E 480 90 3e 60
        E 0 90 4a 60
        E 0 90 56 60
        E 0 90 62 60
        E 60 80 3e 00
        E 0 80 4a 00
        E 0 80 56 00
        E 0 80 62 00
        E 300 90 57 60
        E 0 90 63 60
        E 60 80 57 00
        E 0 80 63 00
        E 300 90 48 60
        E 0 90 54 60
        E 0 90 60 60
        E 60 80 48 00
        E 0 80 54 00
        E 0 80 60 00
        E 420 90 3c 60
        E 0 90 48 60
        E 0 90 54 60
        E 0 90 60 60
        E 60 80 3c 00
        E 0 80 48 00
        E 0 80 54 00
        E 0 80 60 00
        E 420 90 48 60
        E 0 90 54 60
        E 0 90 60 60
        E 60 80 48 00
        E 0 80 54 00
        E 0 80 60 00
        E 420 90 57 60
        E 0 90 63 60
        E 60 80 57 00
        E 0 80 63 00
        E 180 90 3e 60
        E 0 90 4a 60
        E 0 90 56 60
        E 0 90 62 60
        E 60 80 3e 00
        E 0 80 4a 00
        E 0 80 56 00
        E 0 80 62 00
        E 60 90 62 60
        E 60 80 62 00
        E 60 90 4a 60
        E 0 90 56 60
        E 0 90 62 60
        E 60 80 4a 00
        E 0 80 56 00
        E 0 80 62 00
        E 180 90 3e 60
        E 0 90 4a 60
        E 0 90 56 60
        E 0 90 62 60
        E 60 80 3e 00
        E 0 80 4a 00
        E 0 80 56 00
        E 0 80 62 00
        E 300 90 57 60
        E 0 90 63 60
        E 60 80 57 00
        E 0 80 63 00
        E 540 90 3e 60
        E 0 90 4a 60
        E 0 90 56 60
        E 0 90 62 60
        E 60 80 3e 00
        E 0 80 4a 00
        E 0 80 56 00
        E 0 80 62 00
        E 300 90 57 60
        E 0 90 63 60
        E 60 80 57 00
        E 0 80 63 00
        E 300 90 48 60
        E 0 90 54 60
        E 0 90 60 60
        E 60 80 48 00
        E 0 80 54 00
        E 0 80 60 00
        E 420 90 48 60
        E 0 90 54 60
        E 0 90 60 60
        E 60 80 48 00
        E 0 80 54 00
        E 0 80 60 00
        E 420 90 54 60
        E 0 90 60 60
        E 60 80 54 00
        E 0 80 60 00
        E 180 90 3e 60
        E 0 90 4a 60
        E 0 90 56 60
        E 0 90 62 60
        E 60 80 3e 00
        E 0 80 4a 00
        E 0 80 56 00
        E 0 80 62 00
        E 300 90 57 60
        E 0 90 63 60
        E 60 80 57 00
        E 0 80 63 00
        E 300 90 54 60
        E 0 90 60 60
        E 60 80 54 00
        E 0 80 60 00
        E 180 90 3d 60
        E 0 90 49 60
        E 0 90 55 60
        E 0 90 61 60
        E 60 80 3d 00
        E 0 80 49 00
        E 0 80 55 00
        E 0 80 61 00
        E 300 90 57 60
        E 0 90 63 60
        E 60 80 57 00
        E 0 80 63 00
        E 300 90 54 60
        E 0 90 60 60
        E 60 80 54 00
        E 0 80 60 00
        E 180 90 3e 60
        E 0 90 4a 60
        E 0 90 56 60
        E 0 90 62 60
        E 60 80 3e 00
        E 0 80 4a 00
        E 0 80 56 00
        E 0 80 62 00
        E 300 90 57 60
        E 0 90 63 60
        E 60 80 57 00
        E 0 80 63 00
        E 300 90 48 60
        E 0 90 54 60
        E 0 90 60 60
        E 60 80 48 00
        E 0 80 54 00
        E 0 80 60 00
        E 420 90 3c 60
        E 0 90 48 60
        E 0 90 54 60
        E 0 90 60 60
        E 60 80 3c 00
        E 0 80 48 00
        E 0 80 54 00
        E 0 80 60 00
        E 420 90 48 60
        E 0 90 54 60
        E 0 90 60 60
        E 60 80 48 00
        E 0 80 54 00
        E 0 80 60 00
        E 420 90 57 60
        E 0 90 63 60
        E 60 80 57 00
        E 0 80 63 00
        E 180 90 3e 60
        E 0 90 4a 60
        E 0 90 56 60
        E 0 90 62 60
        E 60 80 3e 00
        E 0 80 4a 00
        E 0 80 56 00
        E 0 80 62 00
        E 60 90 62 60
        E 60 80 62 00
        E 60 90 4a 60
        E 0 90 56 60
        E 0 90 62 60
        E 60 80 4a 00
        E 0 80 56 00
        E 0 80 62 00
        E 180 90 3e 60
        E 0 90 4a 60
        E 0 90 56 60
        E 0 90 62 60
        E 60 80 3e 00
        E 0 80 4a 00
        E 0 80 56 00
        E 0 80 62 00
        E 300 90 57 60
        E 0 90 63 60
        E 60 80 57 00
        E 0 80 63 00
        E 300 90 54 60
        E 0 90 60 60
        E 60 80 54 00
        E 0 80 60 00
        E 180 90 3f 60
        E 0 90 4b 60
        E 0 90 57 60
        E 0 90 63 60
        E 60 80 3f 00
        E 0 80 4b 00
        E 0 80 57 00
        E 0 80 63 00
        E 300 90 57 60
        E 0 90 63 60
        E 60 80 57 00
        E 0 80 63 00
        E 300 90 48 60
        E 0 90 54 60
        E 0 90 60 60
        E 60 80 48 00
        E 0 80 54 00
        E 0 80 60 00
        E 420 90 48 60
        E 0 90 54 60
        E 0 90 60 60
        E 60 80 48 00
        E 0 80 54 00
        E 0 80 60 00
        E 420 90 54 60
        E 0 90 60 60
        E 60 80 54 00
        E 0 80 60 00
        E 180 90 3e 60
        E 0 90 4a 60
        E 0 90 56 60
        E 0 90 62 60
        E 60 80 3e 00
        E 0 80 4a 00
        E 0 80 56 00
        E 0 80 62 00
        E 300 90 57 60
        E 0 90 63 60
        E 60 80 57 00
        E 0 80 63 00
        E 300 90 54 60
        E 0 90 60 60
        E 60 80 54 00
        E 0 80 60 00
        E 180 90 3e 60
        E 0 90 4a 60
        E 0 90 56 60
        E 0 90 62 60
        E 60 80 3e 00
        E 0 80 4a 00
        E 0 80 56 00
        E 0 80 62 00
        E 300 90 57 60
        E 0 90 63 60
        E 60 80 57 00
        E 0 80 63 00
        E 540 90 3e 60
        E 0 90 4a 60
        E 0 90 56 60
        E 0 90 62 60
        E 60 80 3e 00
        E 0 80 4a 00
        E 0 80 56 00
        E 0 80 62 00
        E 300 90 57 60
        E 0 90 63 60
        E 60 80 57 00
        E 0 80 63 00
        E 300 90 48 60
        E 0 90 54 60
        E 0 90 60 60
        E 60 80 48 00
        E 0 80 54 00
        E 0 80 60 00
        E 420 90 3e 60
        E 0 90 49 60
        E 0 90 4b 60
        E 0 90 55 60
        E 0 90 57 60
        E 0 90 61 60
        E 0 90 63 60
        E 60 80 3e 00
        E 0 80 49 00
        E 0 80 4b 00
        E 0 80 55 00
        E 0 80 57 00
        E 0 80 61 00
        E 0 80 63 00
        E 420 90 48 60
        E 0 90 54 60
        E 0 90 60 60
        E 60 80 48 00
        E 0 80 54 00
        E 0 80 60 00
        E 420 90 3e 60
        E 0 90 4a 60
        E 0 90 56 60
        E 0 90 62 60
        E 60 80 3e 00
        E 0 80 4a 00
        E 0 80 56 00
        E 0 80 62 00
        E 300 90 61 60
        E 60 80 61 00
        E 60 90 49 60
        E 0 90 55 60
        E 0 90 61 60
        E 60 80 49 00
        E 0 80 55 00
        E 0 80 61 00
        E 240 90 55 60
        E 0 90 61 60
        E 60 80 55 00
        E 0 80 61 00
        E 240 90 4b 60
        E 0 90 57 60
        E 0 90 63 60
        E 120 80 4b 00
        E 360 80 57 00
        E 60 80 63 00
        E 60 90 3d 60
        E 0 90 49 60
        E 0 90 55 60
        E 0 90 61 60
        E 60 80 3d 00
        E 0 80 49 00
        E 0 80 55 00
        E 0 80 61 00
        E 300 90 57 60
        E 0 90 63 60
        E 60 80 57 00
        E 0 80 63 00
        E 300 90 48 60
        E 0 90 54 60
        E 0 90 60 60
        E 60 80 48 00
        E 0 80 54 00
        E 0 80 60 00
        E 420 90 49 60
        E 0 90 4a 60
        E 0 90 55 60
        E 0 90 56 60
        E 0 90 61 60
        E 0 90 62 60
        E 60 80 49 00
        E 0 80 4a 00
        E 0 80 55 00
        E 0 80 56 00
        E 0 80 61 00
        E 0 80 62 00
        E 420 90 54 60
        E 0 90 60 60
        E 60 80 54 00
        E 0 80 60 00
        E 180 90 3d 60
        E 0 90 49 60
        E 0 90 55 60
        E 0 90 61 60
        E 60 80 3d 00
        E 0 80 49 00
        E 0 80 55 00
        E 0 80 61 00
        E 300 90 56 60
        E 0 90 62 60
        E 60 80 56 00
        E 0 80 62 00
        E 300 90 54 60
        E 0 90 60 60
        E 60 80 54 00
        E 0 80 60 00
        E 180 90 3d 60
        E 0 90 49 60
        E 0 90 55 60
        E 0 90 61 60
        E 60 80 3d 00
        E 0 80 49 00
        E 0 80 55 00
        E 0 80 61 00
        E 300 90 57 60
        E 0 90 63 60
        E 60 80 57 00
        E 0 80 63 00
        E 300 90 54 60
        E 0 90 60 60
        E 60 80 54 00
        E 0 80 60 00
        E 180 90 3d 60
        E 0 90 49 60
        E 0 90 55 60
        E 0 90 61 60
        E 60 80 3d 00
        E 0 80 49 00
        E 0 80 55 00
        E 0 80 61 00
        E 300 90 57 60
        E 0 90 63 60
        E 60 80 57 00
        E 0 80 63 00
        E 300 90 48 60
        E 0 90 54 60
        E 0 90 60 60
        E 60 80 48 00
        E 0 80 54 00
        E 0 80 60 00
        E 420 90 3e 60
        E 0 90 49 60
        E 0 90 4b 60
        E 0 90 55 60
        E 0 90 57 60
        E 0 90 61 60
        E 0 90 63 60
        E 60 80 3e 00
        E 0 80 49 00
        E 0 80 4b 00
        E 0 80 55 00
        E 0 80 57 00
        E 0 80 61 00
        E 0 80 63 00
        E 420 90 48 60
        E 0 90 54 60
        E 0 90 60 60
        E 60 80 48 00
        E 0 80 54 00
        E 0 80 60 00
        E 420 90 57 60
        E 0 90 63 60
        E 60 80 57 00
        E 0 80 63 00
        E 180 90 3e 60
        E 0 90 4a 60
        E 0 90 56 60
        E 0 90 62 60
        E 60 80 3e 00
        E 0 80 4a 00
        E 0 80 56 00
        E 0 80 62 00
        E 60 90 62 60
        E 60 80 62 00
        E 60 90 4a 60
        E 0 90 56 60
        E 0 90 62 60
        E 60 80 4a 00
        E 0 80 56 00
        E 0 80 62 00
        E 180 90 3e 60
        E 0 90 4a 60
        E 0 90 56 60
        E 0 90 62 60
        E 60 80 3e 00
        E 0 80 4a 00
        E 0 80 56 00
        E 0 80 62 00
        E 300 90 57 60
        E 0 90 63 60
        E 60 80 57 00
        E 0 80 63 00
        E 300 90 48 60
        E 0 90 54 60
        E 0 90 60 60
        E 60 80 48 00
        E 0 80 54 00
        E 0 80 60 00
        E 163 90 74 60
        E 257 90 58 60
        E 0 90 64 60
        E 60 80 58 00
        E 0 80 64 00
        E 180 90 3f 60
        E 0 90 4b 60
        E 0 90 57 60
        E 0 90 63 60
        E 60 80 3f 00
        E 0 80 4b 00
        E 0 80 57 00
        E 0 80 63 00
        E 60 90 63 60
        E 60 80 63 00
        E 60 90 4b 60
        E 0 90 57 60
        E 0 90 63 60
        E 60 80 4b 00
        E 0 80 57 00
        E 0 80 63 00
        E 180 90 3f 60
        E 0 90 4b 60
        E 0 90 57 60
        E 0 90 63 60
        E 60 80 3f 00
        E 0 80 4b 00
        E 0 80 57 00
        E 0 80 63 00
        E 300 90 58 60
        E 0 90 64 60
        E 60 80 58 00
        E 0 80 64 00
        E 2263 80 74 00
        E 197 90 3d 60
        E 0 90 49 60
        E 0 90 55 60
        E 0 90 61 60
        E 60 80 3d 00
        E 0 80 49 00
        E 0 80 55 00
        E 0 80 61 00
        E 60 90 61 60
        E 0 90 62 60
        E 300 80 61 00
        E 0 80 62 00
        E 60 90 3d 60
        E 0 90 49 60
        E 0 90 55 60
        E 0 90 61 60
        E 60 80 3d 00
        E 0 80 49 00
        E 0 80 55 00
        E 0 80 61 00
        E 180 90 54 60
        E 0 90 60 60
        E 60 80 54 00
        E 0 80 60 00
        E 120 90 62 60
        E 60 80 62 00
        E 360 90 49 60
        E 0 90 55 60
        E 0 90 61 60
        E 60 80 49 00
        E 0 80 55 00
        E 0 80 61 00
        E 300 90 57 60
        E 0 90 63 60
        E 60 80 57 00
        E 0 80 63 00
        E 180 90 3e 60
        E 0 90 4a 60
        E 0 90 56 60
        E 0 90 62 60
        E 60 80 3e 00
        E 0 80 4a 00
        E 0 80 56 00
        E 0 80 62 00
        E 60 90 62 60
        E 0 90 63 60
        E 300 80 62 00
        E 0 80 63 00
        E 60 90 3e 60
        E 0 90 4a 60
        E 0 90 56 60
        E 0 90 62 60
        E 60 80 3e 00
        E 0 80 4a 00
        E 0 80 56 00
        E 0 80 62 00
        E 180 90 54 60
        E 0 90 60 60
        E 60 80 54 00
        E 0 80 60 00
        E 180 90 3e 60
        E 0 90 4a 60
        E 0 90 56 60
        E 0 90 62 60
        E 60 80 3e 00
        E 0 80 4a 00
        E 0 80 56 00
        E 0 80 62 00
        E 60 90 62 60
        E 0 90 63 60
        E 300 80 62 00
        E 0 80 63 00
        E 60 90 4a 60
        E 0 90 56 60
        E 0 90 62 60
        E 60 80 4a 00
        E 0 80 56 00
        E 0 80 62 00
        E 180 90 56 60
        E 0 90 62 60
        E 60 80 56 00
        E 0 80 62 00
        E 180 90 3d 60
        E 0 90 49 60
        E 0 90 55 60
        E 0 90 61 60
        E 60 80 3d 00
        E 0 80 49 00
        E 0 80 55 00
        E 0 80 61 00
        E 60 90 61 60
        E 0 90 62 60
        E 300 80 61 00
        E 0 80 62 00
        E 60 90 49 60
        E 0 90 55 60
        E 0 90 61 60
        E 60 80 49 00
        E 0 80 55 00
        E 0 80 61 00
        E 180 90 54 60
        E 0 90 60 60
        E 60 80 54 00
        E 0 80 60 00
        E 180 90 3e 60
        E 0 90 4a 60
        E 0 90 56 60
        E 0 90 62 60
        E 60 80 3e 00
        E 0 80 4a 00
        E 0 80 56 00
        E 0 80 62 00
        E 300 90 55 60
        E 0 90 61 60
        E 60 80 55 00
        E 0 80 61 00
        E 300 90 57 60
        E 0 90 63 60
        E 60 80 57 00
        E 0 80 63 00
        E 180 90 3d 60
        E 0 90 49 60
        E 0 90 55 60
        E 0 90 61 60
        E 61 80 3d 00
        E 0 80 49 00
        E 0 80 55 00
        E 0 80 61 00
        E 419 90 49 60
        E 0 90 55 60
        E 0 90 61 60
        E 60 80 49 00
        E 0 80 55 00
        E 0 80 61 00
        E 300 90 61 60
        E 60 80 61 00
        E 59 90 3d 60
        E 0 90 49 60
        E 0 90 55 60
        E 0 90 61 60
        E 60 80 3d 00
        E 0 80 49 00
        E 0 80 55 00
        E 0 80 61 00
        E 300 90 55 60
        E 0 90 61 60
        E 60 80 55 00
        E 0 80 61 00
        E 300 90 49 60
        E 0 90 55 60
        E 0 90 61 60
        E 60 80 49 00
        E 0 80 55 00
        E 0 80 61 00
        E 61 90 74 60
        E 119 90 3d 60
        E 0 90 49 60
        E 0 90 55 60
        E 0 90 61 60
        E 60 80 3d 00
        E 0 80 49 00
        E 0 80 55 00
        E 0 80 61 00
        E 60 90 61 60
        E 0 90 62 60
        E 300 80 61 00
        E 0 80 62 00
        E 60 90 49 60
        E 0 90 55 60
        E 0 90 61 60
        E 60 80 49 00
        E 0 80 55 00
        E 0 80 61 00
        E 181 90 54 60
        E 0 90 60 60
        E 60 80 54 00
        E 0 80 60 00
        E 119 90 62 60
        E 60 80 62 00
        E 361 90 49 60
        E 0 90 55 60
        E 0 90 61 60
        E 60 80 49 00
        E 0 80 55 00
        E 0 80 61 00
        E 300 90 57 60
        E 0 90 63 60
        E 60 80 57 00
        E 0 80 63 00
        E 179 90 3e 60
        E 0 90 4a 60
        E 0 90 56 60
        E 0 90 62 60
        E 60 80 3e 00
        E 0 80 4a 00
        E 0 80 56 00
        E 0 80 62 00
        E 60 90 62 60
        E 0 90 63 60
        E 300 80 62 00
        E 0 80 63 00
        E 60 90 4a 60
        E 0 90 56 60
        E 0 90 62 60
        E 60 80 4a 00
        E 0 80 56 00
        E 0 80 62 00
        E 300 90 62 60
        E 60 80 62 00
        E 60 90 3e 60
        E 0 90 4a 60
        E 0 90 56 60
        E 0 90 62 60
        E 60 80 3e 00
        E 0 80 4a 00
        E 0 80 56 00
        E 0 80 62 00
        E 60 90 62 60
        E 0 90 63 60
        E 300 80 62 00
        E 0 80 63 00
        E 60 90 4a 60
        E 0 90 56 60
        E 0 90 62 60
        E 60 80 4a 00
        E 0 80 56 00
        E 0 80 62 00
        E 181 90 56 60
        E 0 90 62 60
        E 60 80 56 00
        E 0 80 62 00
        E 180 90 3d 60
        E 0 90 49 60
        E 0 90 55 60
        E 0 90 61 60
        E 60 80 3d 00
        E 0 80 49 00
        E 0 80 55 00
        E 0 80 61 00
        E 60 90 61 60
        E 0 90 62 60
        E 300 80 61 00
        E 0 80 62 00
        E 60 90 49 60
        E 0 90 55 60
        E 0 90 61 60
        E 60 80 49 00
        E 0 80 55 00
        E 0 80 61 00
        E 60 80 74 00
        E 120 90 54 60
        E 0 90 60 60
        E 60 80 54 00
        E 0 80 60 00
        E 180 90 3e 60
        E 0 90 4a 60
        E 0 90 56 60
        E 0 90 62 60
        E 60 80 3e 00
        E 0 80 4a 00
        E 0 80 56 00
        E 0 80 62 00
        E 300 90 55 60
        E 0 90 61 60
        E 60 80 55 00
        E 0 80 61 00
        E 300 90 57 60
        E 0 90 63 60
        E 60 80 57 00
        E 0 80 63 00
        E 180 90 3d 60
        E 0 90 49 60
        E 0 90 55 60
        E 0 90 61 60
        E 60 80 3d 00
        E 0 80 49 00
        E 0 80 55 00
        E 0 80 61 00
        E 420 90 49 60
        E 0 90 55 60
        E 0 90 61 60
        E 60 80 49 00
        E 0 80 55 00
        E 0 80 61 00
        E 419 90 3d 60
        E 0 90 49 60
        E 0 90 55 60
        E 0 90 61 60
        E 60 80 3d 00
        E 0 80 49 00
        E 0 80 55 00
        E 0 80 61 00
        E 300 90 55 60
        E 0 90 61 60
        E 60 80 55 00
        E 0 80 61 00
        E 300 90 49 60
        E 0 90 55 60
        E 0 90 61 60
        E 60 80 49 00
        E 0 80 55 00
        E 0 80 61 00
        E 180 90 3d 60
        E 0 90 49 60
        E 0 90 55 60
        E 0 90 61 60
        E 60 80 3d 00
        E 0 80 49 00
        E 0 80 55 00
        E 0 80 61 00
        E 60 90 61 60
        E 0 90 62 60
        E 300 80 61 00
        E 0 80 62 00
        E 60 90 49 60
        E 0 90 55 60
        E 0 90 61 60
        E 60 80 49 00
        E 0 80 55 00
        E 0 80 61 00
        E 181 90 54 60
        E 0 90 60 60
        E 60 80 54 00
        E 0 80 60 00
        E 120 90 62 60
        E 60 80 62 00
        E 360 90 49 60
        E 0 90 55 60
        E 0 90 61 60
        E 60 80 49 00
        E 0 80 55 00
        E 0 80 61 00
        E 300 90 57 60
        E 0 90 63 60
        E 60 80 57 00
        E 0 80 63 00
        E 180 90 3e 60
        E 0 90 4a 60
        E 0 90 56 60
        E 0 90 62 60
        E 60 80 3e 00
        E 0 80 4a 00
        E 0 80 56 00
        E 0 80 62 00
        E 60 90 62 60
        E 0 90 63 60
        E 300 80 62 00
        E 0 80 63 00
        E 60 90 3e 60
        E 0 90 4a 60
        E 0 90 56 60
        E 0 90 62 60
        E 60 80 3e 00
        E 0 80 4a 00
        E 0 80 56 00
        E 0 80 62 00
        E 299 90 62 60
        E 60 80 62 00
        E 61 90 3e 60
        E 0 90 4a 60
        E 0 90 56 60
        E 0 90 62 60
        E 60 80 3e 00
        E 0 80 4a 00
        E 0 80 56 00
        E 0 80 62 00
        E 60 90 62 60
        E 0 90 63 60
        E 300 80 62 00
        E 0 80 63 00
        E 59 90 4a 60
        E 0 90 56 60
        E 0 90 62 60
        E 60 80 4a 00
        E 0 80 56 00
        E 0 80 62 00
        E 181 90 56 60
        E 0 90 62 60
        E 60 80 56 00
        E 0 80 62 00
        E 180 90 3d 60
        E 0 90 49 60
        E 0 90 55 60
        E 0 90 61 60
        E 60 80 3d 00
        E 0 80 49 00
        E 0 80 55 00
        E 0 80 61 00
        E 60 90 61 60
        E 0 90 62 60
        E 300 80 61 00
        E 0 80 62 00
        E 60 90 49 60
        E 0 90 55 60
        E 0 90 61 60
        E 60 80 49 00
        E 0 80 55 00
        E 0 80 61 00
        E 180 90 54 60
        E 0 90 60 60
        E 61 80 54 00
        E 0 80 60 00
        E 179 90 3e 60
        E 0 90 4a 60
        E 0 90 56 60
        E 0 90 62 60
        E 60 80 3e 00
        E 0 80 4a 00
        E 0 80 56 00
        E 0 80 62 00
        E 300 90 55 60
        E 0 90 61 60
        E 60 80 55 00
        E 0 80 61 00
        E 300 90 57 60
        E 0 90 63 60
        E 60 80 57 00
        E 0 80 63 00
        E 180 90 3d 60
        E 0 90 49 60
        E 0 90 55 60
        E 0 90 61 60
        E 60 80 3d 00
        E 0 80 49 00
        E 0 80 55 00
        E 0 80 61 00
        E 420 90 3d 60
        E 0 90 49 60
        E 0 90 55 60
        E 0 90 61 60
        E 60 80 3d 00
        E 0 80 49 00
        E 0 80 55 00
        E 0 80 61 00
        E 420 90 3d 60
        E 0 90 49 60
        E 0 90 55 60
        E 0 90 61 60
        E 60 80 3d 00
        E 0 80 49 00
        E 0 80 55 00
        E 0 80 61 00
        E 299 90 55 60
        E 0 90 61 60
        E 60 80 55 00
        E 0 80 61 00
        E 300 90 49 60
        E 0 90 55 60
        E 0 90 61 60
        E 60 80 49 00
        E 0 80 55 00
        E 0 80 61 00
        E 121 90 74 60
        E 59 90 3d 60
        E 0 90 49 60
        E 0 90 55 60
        E 0 90 61 60
        E 60 80 3d 00
        E 0 80 49 00
        E 0 80 55 00
        E 0 80 61 00
        E 60 90 61 60
        E 0 90 62 60
        E 300 80 61 00
        E 0 80 62 00
        E 60 90 49 60
        E 0 90 55 60
        E 0 90 61 60
        E 60 80 49 00
        E 0 80 55 00
        E 0 80 61 00
        E 181 90 54 60
        E 0 90 60 60
        E 60 80 54 00
        E 0 80 60 00
        E 120 90 62 60
        E 60 80 62 00
        E 359 90 49 60
        E 0 90 55 60
        E 0 90 61 60
        E 60 80 49 00
        E 0 80 55 00
        E 0 80 61 00
        E 300 90 57 60
        E 0 90 63 60
        E 60 80 57 00
        E 0 80 63 00
        E 181 90 3e 60
        E 0 90 4a 60
        E 0 90 56 60
        E 0 90 62 60
        E 60 80 3e 00
        E 0 80 4a 00
        E 0 80 56 00
        E 0 80 62 00
        E 60 90 62 60
        E 0 90 63 60
        E 300 80 62 00
        E 0 80 63 00
        E 59 90 4a 60
        E 0 90 56 60
        E 0 90 62 60
        E 60 80 4a 00
        E 0 80 56 00
        E 0 80 62 00
        E 301 90 62 60
        E 60 80 62 00
        E 60 90 3e 60
        E 0 90 4a 60
        E 0 90 56 60
        E 0 90 62 60
        E 60 80 3e 00
        E 0 80 4a 00
        E 0 80 56 00
        E 0 80 62 00
        E 60 90 62 60
        E 0 90 63 60
        E 299 80 62 00
        E 0 80 63 00
        E 61 90 4a 60
        E 0 90 56 60
        E 0 90 62 60
        E 60 80 4a 00
        E 0 80 56 00
        E 0 80 62 00
        E 180 90 56 60
        E 0 90 62 60
        E 60 80 56 00
        E 0 80 62 00
        E 180 90 3d 60
        E 0 90 49 60
        E 0 90 55 60
        E 0 90 61 60
        E 60 80 3d 00
        E 0 80 49 00
        E 0 80 55 00
        E 0 80 61 00
        E 60 90 61 60
        E 0 90 62 60
        E 300 80 61 00
        E 0 80 62 00
        E 60 90 3d 60
        E 0 90 49 60
        E 0 90 55 60
        E 0 90 61 60
        E 60 80 3d 00
        E 0 80 49 00
        E 0 80 55 00
        E 0 80 61 00
        E 120 80 74 00
        E 241 90 57 60
        E 0 90 63 60
        E 60 80 57 00
        E 0 80 63 00
        E 359 90 4c 60
        E 0 90 58 60
        E 0 90 64 60
        E 60 80 4c 00
        E 0 80 58 00
        E 0 80 64 00
        E 300 90 56 60
        E 0 90 62 60
        E 60 80 56 00
        E 0 80 62 00
        E 180 90 3e 60
        E 0 90 4a 60
        E 0 90 56 60
        E 0 90 62 60
        E 60 80 3e 00
        E 0 80 4a 00
        E 0 80 56 00
        E 0 80 62 00
        E 420 90 49 60
        E 0 90 55 60
        E 0 90 61 60
        E 60 80 49 00
        E 0 80 55 00
        E 0 80 61 00
        E 300 90 56 60
        E 0 90 61 60
        E 60 80 61 00
        E 60 80 56 00
        E 0 90 62 60
        E 60 80 62 00
        E 300 90 3e 60
        E 0 90 4a 60
        E 0 90 56 60
        E 0 90 62 60
        E 60 80 3e 00
        E 0 80 4a 00
        E 0 80 56 00
        E 0 80 62 00
        E 300 90 4a 60
        E 0 90 56 60
        E 0 90 62 60
        E 60 80 4a 00
        E 0 80 56 00
        E 0 80 62 00
        E 700 90 3d 60
        E 0 90 49 60
        E 0 90 55 60
        E 0 90 61 60
        E 40 80 3d 00
        E 0 80 49 00
        E 0 80 55 00
        E 0 80 61 00
        E 200 90 57 60
        E 0 90 63 60
        E 40 80 57 00
        E 0 80 63 00
        E 80 90 64 60
        E 40 80 64 00
        E 80 90 4a 60
        E 0 90 56 60
        E 0 90 62 60
        E 40 80 4a 00
        E 0 80 56 00
        E 0 80 62 00
        E 200 90 58 60
        E 0 90 63 60
        E 40 80 63 00
        E 80 80 58 00
        E 0 90 64 60
        E 40 80 64 00
        E 320 90 3e 60
        E 0 90 4a 60
        E 0 90 56 60
        E 0 90 62 60
        E 120 80 3e 00
        E 0 80 4a 00
        E 280 80 56 00
        E 0 80 62 00
        E 80 90 63 60
        E 40 80 63 00
        E 160 90 49 60
        E 0 90 55 60
        E 0 90 61 60
        E 40 80 49 00
        E 0 80 55 00
        E 0 80 61 00
        E 240 90 62 60
        E 40 80 62 00
        E 160 90 3e 60
        E 0 90 4a 60
        E 0 90 56 60
        E 0 90 62 60
        E 120 80 3e 00
        E 0 80 4a 00
        E 0 80 56 00
        E 240 80 62 00
        E 40 90 55 60
        E 0 90 61 60
        E 40 80 55 00
        E 0 80 61 00
        E 80 90 61 60
        E 40 80 61 00
        E 80 90 49 60
        E 0 90 55 60
        E 0 90 61 60
        E 40 80 49 00
        E 0 80 55 00
        E 0 80 61 00
        E 200 90 56 60
        E 0 90 62 60
        E 40 80 56 00
        E 0 80 62 00
        E 760 90 57 60
        E 0 90 63 60
        E 40 80 57 00
        E 0 80 63 00
        E 80 90 64 60
        E 40 80 64 00
        E 80 90 3e 60
        E 0 90 4a 60
        E 0 90 56 60
        E 0 90 62 60
        E 40 80 3e 00
        E 0 80 4a 00
        E 0 80 56 00
        E 0 80 62 00
        E 200 90 58 60
        E 0 90 62 60
        E 40 80 62 00
        E 80 80 58 00
        E 0 90 64 60
        E 40 80 64 00
        E 320 90 4a 60
        E 0 90 56 60
        E 0 90 61 60
        E 40 80 61 00
        E 80 80 4a 00
        E 0 90 62 60
        E 280 80 56 00
        E 80 80 62 00
        E 40 90 3c 60
        E 0 90 48 60
        E 0 90 54 60
        E 0 90 60 60
        E 40 80 3c 00
        E 0 80 48 00
        E 0 80 54 00
        E 0 80 60 00
        E 120 90 61 60
        E 40 80 61 00
        E 400 90 49 60
        E 0 90 55 60
        E 0 90 61 60
        E 40 80 49 00
        E 0 80 55 00
        E 0 80 61 00
        E 160 90 61 60
        E 40 80 61 00
        E 320 90 3e 60
        E 0 90 4a 60
        E 0 90 56 60
        E 0 90 62 60
        E 40 80 3e 00
        E 0 80 4a 00
        E 0 80 56 00
        E 0 80 62 00
        E 120 90 63 60
        E 40 80 63 00
        E 160 90 56 60
        E 0 90 62 60
        E 40 80 56 00
        E 0 80 62 00
        E 560 90 49 60
        E 0 90 55 60
        E 0 90 61 60
        E 40 80 49 00
        E 0 80 55 00
        E 0 80 61 00
        E 200 90 57 60
        E 0 90 63 60
        E 40 80 57 00
        E 0 80 63 00
        E 80 90 64 60
        E 40 80 64 00
        E 80 90 3e 60
        E 0 90 4a 60
        E 0 90 56 60
        E 0 90 62 60
        E 40 80 3e 00
        E 0 80 4a 00
        E 0 80 56 00
        E 0 80 62 00
        E 200 90 58 60
        E 0 90 63 60
        E 40 80 63 00
        E 80 80 58 00
        E 0 90 64 60
        E 40 80 64 00
        E 320 90 4a 60
        E 0 90 56 60
        E 0 90 62 60
        E 120 80 4a 00
        E 240 80 56 00
        E 40 80 62 00
        E 80 90 3f 60
        E 0 90 4b 60
        E 0 90 57 60
        E 0 90 63 60
        E 40 80 3f 00
        E 0 80 4b 00
        E 0 80 57 00
        E 0 80 63 00
        E 160 90 61 60
        E 40 80 61 00
        E 240 90 4a 60
        E 0 90 56 60
        E 0 90 62 60
        E 40 80 4a 00
        E 0 80 56 00
        E 0 80 62 00
        E 160 90 62 60
        E 359 80 62 00
        E 41 90 61 60
        E 40 80 61 00
        E 80 90 3d 60
        E 0 90 49 60
        E 0 90 55 60
        E 0 90 61 60
        E 40 80 3d 00
        E 0 80 49 00
        E 0 80 55 00
        E 0 80 61 00
        E 80 90 61 60
        E 40 80 61 00
        E 200 90 56 60
        E 0 90 62 60
        E 40 80 56 00
        E 0 80 62 00
        E 759 90 3f 60
        E 0 90 4b 60
        E 0 90 57 60
        E 0 90 63 60
        E 40 80 3f 00
        E 0 80 4b 00
        E 0 80 57 00
        E 0 80 63 00
        E 80 90 64 60
        E 40 80 64 00
        E 80 90 56 60
        E 0 90 62 60
        E 40 80 56 00
        E 0 80 62 00
        E 200 90 4c 60
        E 0 90 58 60
        E 0 90 62 60
        E 40 80 62 00
        E 80 80 4c 00
        E 0 80 58 00
        E 0 90 64 60
        E 40 80 64 00
        E 321 90 3e 60
        E 0 90 4a 60
        E 0 90 56 60
        E 0 90 61 60
        E 40 80 61 00
        E 79 90 62 60
        E 1 80 3e 00
        E 0 80 4a 00
        E 279 80 56 00
        E 80 80 62 00
        E 40 90 48 60
        E 0 90 54 60
        E 0 90 60 60
        E 41 80 48 00
        E 0 80 54 00
        E 0 80 60 00
        E 119 90 61 60
        E 40 80 61 00
        E 400 90 3d 60
        E 0 90 49 60
        E 0 90 55 60
        E 0 90 61 60
        E 40 80 3d 00
        E 0 80 49 00
        E 0 80 55 00
        E 0 80 61 00
        E 160 90 61 60
        E 40 80 61 00
        E 320 90 4a 60
        E 0 90 56 60
        E 0 90 62 60
        E 40 80 4a 00
        E 0 80 56 00
        E 0 80 62 00
        E 120 90 63 60
        E 40 80 63 00
        E 160 90 56 60
        E 0 90 62 60
        E 40 80 56 00
        E 0 80 62 00
        E 481 90 40 60
        E 0 90 4c 60
        E 0 90 58 60
        E 0 90 64 60
        E 40 80 40 00
        E 0 80 4c 00
        E 0 80 58 00
        E 0 80 64 00
        E 320 90 54 60
        E 0 90 60 60
        E 60 80 54 00
        E 0 80 60 00
        E 420 90 48 60
        E 0 90 54 60
        E 0 90 60 60
        E 60 80 48 00
        E 0 80 54 00
        E 0 80 60 00
        E 420 90 3c 60
        E 0 90 48 60
        E 0 90 54 60
        E 0 90 60 60
        E 60 80 3c 00
        E 0 80 48 00
        E 0 80 54 00
        E 0 80 60 00
        E 420 90 57 60
        E 0 90 63 60
        E 60 80 57 00
        E 0 80 63 00
        E 180 90 4a 60
        E 0 90 56 60
        E 0 90 62 60
        E 60 80 4a 00
        E 0 80 56 00
        E 0 80 62 00
        E 60 90 62 60
        E 60 80 62 00
        E 60 90 4a 60
        E 0 90 56 60
        E 0 90 62 60
        E 60 80 4a 00
        E 0 80 56 00
        E 0 80 62 00
        E 180 90 3e 60
        E 0 90 4a 60
        E 0 90 56 60
        E 0 90 62 60
        E 60 80 3e 00
        E 0 80 4a 00
        E 0 80 56 00
        E 0 80 62 00
        E 300 90 57 60
        E 0 90 63 60
        E 60 80 57 00
        E 0 80 63 00
        E 300 90 54 60
        E 0 90 60 60
        E 60 80 54 00
        E 0 80 60 00
        E 180 90 3e 60
        E 0 90 4a 60
        E 0 90 56 60
        E 0 90 62 60
        E 60 80 3e 00
        E 0 80 4a 00
        E 0 80 56 00
        E 0 80 62 00
        E 300 90 57 60
        E 0 90 63 60
        E 60 80 57 00
        E 0 80 63 00
        E 300 90 48 60
        E 0 90 54 60
        E 0 90 60 60
        E 60 80 48 00
        E 0 80 54 00
        E 0 80 60 00
        E 420 90 48 60
        E 0 90 54 60
        E 0 90 60 60
        E 60 80 48 00
        E 0 80 54 00
        E 0 80 60 00
        E 420 90 54 60
        E 0 90 60 60
        E 60 80 54 00
        E 0 80 60 00
        E 180 90 3e 60
        E 0 90 4a 60
        E 0 90 56 60
        E 0 90 62 60
        E 60 80 3e 00
        E 0 80 4a 00
        E 0 80 56 00
        E 0 80 62 00
        E 300 90 57 60
        E 0 90 63 60
        E 60 80 57 00
        E 0 80 63 00
        E 300 90 54 60
        E 0 90 60 60
        E 60 80 54 00
        E 0 80 60 00
        E 180 90 3d 60
        E 0 90 49 60
        E 0 90 55 60
        E 0 90 61 60
        E 60 80 3d 00
        E 0 80 49 00
        E 0 80 55 00
        E 0 80 61 00
        E 300 90 57 60
        E 0 90 63 60
        E 60 80 57 00
        E 0 80 63 00
        E 300 90 54 60
        E 0 90 60 60
        E 60 80 54 00
        E 0 80 60 00
        E 180 90 3e 60
        E 0 90 4a 60
        E 0 90 56 60
        E 0 90 62 60
        E 60 80 3e 00
        E 0 80 4a 00
        E 0 80 56 00
        E 0 80 62 00
        E 300 90 57 60
        E 0 90 63 60
        E 60 80 57 00
        E 0 80 63 00
        E 300 90 48 60
        E 0 90 54 60
        E 0 90 60 60
        E 60 80 48 00
        E 0 80 54 00
        E 0 80 60 00
        E 420 90 3c 60
        E 0 90 48 60
        E 0 90 54 60
        E 0 90 60 60
        E 60 80 3c 00
        E 0 80 48 00
        E 0 80 54 00
        E 0 80 60 00
        E 420 90 48 60
        E 0 90 54 60
        E 0 90 60 60
        E 60 80 48 00
        E 0 80 54 00
        E 0 80 60 00
        E 420 90 57 60
        E 0 90 63 60
        E 60 80 57 00
        E 0 80 63 00
        E 180 90 3e 60
        E 0 90 4a 60
        E 0 90 56 60
        E 0 90 62 60
        E 60 80 3e 00
        E 0 80 4a 00
        E 0 80 56 00
        E 0 80 62 00
        E 60 90 62 60
        E 60 80 62 00
        E 60 90 4a 60
        E 0 90 56 60
        E 0 90 62 60
        E 60 80 4a 00
        E 0 80 56 00
        E 0 80 62 00
        E 180 90 3e 60
        E 0 90 4a 60
        E 0 90 56 60
        E 0 90 62 60
        E 60 80 3e 00
        E 0 80 4a 00
        E 0 80 56 00
        E 0 80 62 00
        E 300 90 57 60
        E 0 90 63 60
        E 60 80 57 00
        E 0 80 63 00
        E 300 90 54 60
        E 0 90 60 60
        E 60 80 54 00
        E 0 80 60 00
        E 180 90 3f 60
        E 0 90 4b 60
        E 0 90 57 60
        E 0 90 63 60
        E 60 80 3f 00
        E 0 80 4b 00
        E 0 80 57 00
        E 0 80 63 00
        E 300 90 58 60
        E 0 90 64 60
        E 60 80 58 00
        E 0 80 64 00
        E 300 90 48 60
        E 0 90 54 60
        E 0 90 60 60
        E 60 80 48 00
        E 0 80 54 00
        E 0 80 60 00
        E 420 90 48 60
        E 0 90 54 60
        E 0 90 60 60
        E 60 80 48 00
        E 0 80 54 00
        E 0 80 60 00
        E 420 90 54 60
        E 0 90 60 60
        E 60 80 54 00
        E 0 80 60 00
        E 180 90 3e 60
        E 0 90 4a 60
        E 0 90 56 60
        E 0 90 62 60
        E 60 80 3e 00
        E 0 80 4a 00
        E 0 80 56 00
        E 0 80 62 00
        E 300 90 57 60
        E 0 90 63 60
        E 60 80 57 00
        E 0 80 63 00
        E 300 90 54 60
        E 0 90 60 60
        E 60 80 54 00
        E 0 80 60 00
        E 180 90 3e 60
        E 0 90 4a 60
        E 0 90 56 60
        E 0 90 62 60
        E 60 80 3e 00
        E 0 80 4a 00
        E 0 80 56 00
        E 0 80 62 00
        E 300 90 57 60
        E 0 90 63 60
        E 60 80 57 00
        E 0 80 63 00
        E 300 90 54 60
        E 0 90 60 60
        E 60 80 54 00
        E 0 80 60 00
        E 180 90 3e 60
        E 0 90 4a 60
        E 0 90 56 60
        E 0 90 62 60
        E 60 80 3e 00
        E 0 80 4a 00
        E 0 80 56 00
        E 0 80 62 00
        E 300 90 57 60
        E 0 90 63 60
        E 60 80 57 00
        E 0 80 63 00
        E 300 90 48 60
        E 0 90 54 60
        E 0 90 60 60
        E 60 80 48 00
        E 0 80 54 00
        E 0 80 60 00
        E 420 90 3e 60
        E 0 90 49 60
        E 0 90 4b 60
        E 0 90 55 60
        E 0 90 57 60
        E 0 90 61 60
        E 0 90 63 60
        E 60 80 3e 00
        E 0 80 49 00
        E 0 80 4b 00
        E 0 80 55 00
        E 0 80 57 00
        E 0 80 61 00
        E 0 80 63 00
        E 420 90 48 60
        E 0 90 54 60
        E 0 90 60 60
        E 60 80 48 00
        E 0 80 54 00
        E 0 80 60 00
        E 420 90 3e 60
        E 0 90 4a 60
        E 0 90 56 60
        E 0 90 62 60
        E 60 80 3e 00
        E 0 80 4a 00
        E 0 80 56 00
        E 0 80 62 00
        e 240 90 74 60
        E 60 90 61 60
        E 60 80 61 00
        E 60 90 49 60
        E 0 90 55 60
        E 0 90 61 60
        E 60 80 49 00
        E 0 80 55 00
        E 0 80 61 00
        E 240 90 55 60
        E 0 90 61 60
        E 60 80 55 00
        E 0 80 61 00
        E 240 90 4b 60
        E 0 90 57 60
        E 0 90 63 60
        E 120 80 4b 00
        E 360 80 57 00
        E 60 80 63 00
        E 60 90 3d 60
        E 0 90 49 60
        E 0 90 55 60
        E 0 90 61 60
        E 60 80 3d 00
        E 0 80 49 00
        E 0 80 55 00
        E 0 80 61 00
        E 180 90 57 60
        E 0 90 63 60
        E 60 80 57 00
        E 0 80 63 00
        E 180 90 4a 60
        E 0 90 56 60
        E 0 90 62 60
        E 60 80 4a 00
        E 0 80 56 00
        E 0 80 62 00
        E 60 90 62 60
        E 60 80 62 00
        E 60 90 4a 60
        E 0 90 56 60
        E 0 90 62 60
        E 60 80 4a 00
        E 0 80 56 00
        E 0 80 62 00
        E 180 90 3e 60
        E 0 90 4a 60
        E 0 90 56 60
        E 0 90 62 60
        E 60 80 3e 00
        E 0 80 4a 00
        E 0 80 56 00
        E 0 80 62 00
        E 300 90 57 60
        E 0 90 63 60
        E 60 80 57 00
        E 0 80 63 00
        e 180 80 74 00
        E 2280 90 3d 60
        E 0 90 49 60
        E 0 90 55 60
        E 0 90 61 60
        E 60 80 3d 00
        E 0 80 49 00
        E 0 80 55 00
        E 0 80 61 00
        E 60 90 61 60
        E 0 90 62 60
        E 300 80 61 00
        E 0 80 62 00
        E 60 90 3d 60
        E 0 90 49 60
        E 0 90 55 60
        E 0 90 61 60
        E 60 80 3d 00
        E 0 80 49 00
        E 0 80 55 00
        E 0 80 61 00
        E 180 90 54 60
        E 0 90 60 60
        E 60 80 54 00
        E 0 80 60 00
        E 120 90 62 60
        E 60 80 62 00
        E 360 90 49 60
        E 0 90 55 60
        E 0 90 61 60
        E 60 80 49 00
        E 0 80 55 00
        E 0 80 61 00
        E 300 90 57 60
        E 0 90 63 60
        E 60 80 57 00
        E 0 80 63 00
        E 180 90 3e 60
        E 0 90 4a 60
        E 0 90 56 60
        E 0 90 62 60
        E 60 80 3e 00
        E 0 80 4a 00
        E 0 80 56 00
        E 0 80 62 00
        E 6 90 74 60
        E 54 90 62 60
        E 0 90 63 60
        E 300 80 62 00
        E 0 80 63 00
        E 60 90 3e 60
        E 0 90 4a 60
        E 0 90 56 60
        E 0 90 62 60
        E 60 80 3e 00
        E 0 80 4a 00
        E 0 80 56 00
        E 0 80 62 00
        E 180 90 54 60
        E 0 90 60 60
        E 60 80 54 00
        E 0 80 60 00
        E 180 90 3e 60
        E 0 90 4a 60
        E 0 90 56 60
        E 0 90 62 60
        E 60 80 3e 00
        E 0 80 4a 00
        E 0 80 56 00
        E 0 80 62 00
        E 60 90 62 60
        E 0 90 63 60
        E 300 80 62 00
        E 0 80 63 00
        E 60 90 4a 60
        E 0 90 56 60
        E 0 90 62 60
        E 60 80 4a 00
        E 0 80 56 00
        E 0 80 62 00
        E 180 90 56 60
        E 0 90 62 60
        E 60 80 56 00
        E 0 80 62 00
        E 180 90 3d 60
        E 0 90 49 60
        E 0 90 55 60
        E 0 90 61 60
        E 60 80 3d 00
        E 0 80 49 00
        E 0 80 55 00
        E 0 80 61 00
        E 60 90 61 60
        E 0 90 62 60
        E 300 80 61 00
        E 0 80 62 00
        E 60 90 49 60
        E 0 90 55 60
        E 0 90 61 60
        E 60 80 49 00
        E 0 80 55 00
        E 0 80 61 00
        E 180 90 54 60
        E 0 90 60 60
        E 60 80 54 00
        E 0 80 60 00
        E 180 90 3e 60
        E 0 90 4a 60
        E 0 90 56 60
        E 0 90 62 60
        E 60 80 3e 00
        E 0 80 4a 00
        E 0 80 56 00
        E 0 80 62 00
        E 300 90 55 60
        E 0 90 61 60
        E 60 80 55 00
        E 0 80 61 00
        E 300 90 57 60
        E 0 90 63 60
        E 60 80 57 00
        E 0 80 63 00
        E 180 90 3d 60
        E 0 90 49 60
        E 0 90 55 60
        E 0 90 61 60
        E 61 80 3d 00
        E 0 80 49 00
        E 0 80 55 00
        E 0 80 61 00
        E 419 90 49 60
        E 0 90 55 60
        E 0 90 61 60
        E 60 80 49 00
        E 0 80 55 00
        E 0 80 61 00
        E 57 80 74 00
        E 243 90 61 60
        E 60 80 61 00
        E 59 90 3d 60
        E 0 90 49 60
        E 0 90 55 60
        E 0 90 61 60
        E 60 80 3d 00
        E 0 80 49 00
        E 0 80 55 00
        E 0 80 61 00
        E 300 90 55 60
        E 0 90 61 60
        E 60 80 55 00
        E 0 80 61 00
        E 300 90 49 60
        E 0 90 55 60
        E 0 90 61 60
        E 60 80 49 00
        E 0 80 55 00
        E 0 80 61 00
        E 181 90 3d 60
        E 0 90 49 60
        E 0 90 55 60
        E 0 90 61 60
        E 60 80 3d 00
        E 0 80 49 00
        E 0 80 55 00
        E 0 80 61 00
        E 60 90 61 60
        E 0 90 62 60
        E 300 80 61 00
        E 0 80 62 00
        E 60 90 3d 60
        E 0 90 49 60
        E 0 90 55 60
        E 0 90 61 60
        E 60 80 3d 00
        E 0 80 49 00
        E 0 80 55 00
        E 0 80 61 00
        E 180 90 54 60
        E 0 90 60 60
        E 60 80 54 00
        E 0 80 60 00
        E 120 90 62 60
        E 60 80 62 00
        E 360 90 49 60
        E 0 90 55 60
        E 0 90 61 60
        E 60 80 49 00
        E 0 80 55 00
        E 0 80 61 00
        E 300 90 57 60
        E 0 90 63 60
        E 60 80 57 00
        E 0 80 63 00
        E 180 90 3e 60
        E 0 90 4a 60
        E 0 90 56 60
        E 0 90 62 60
        E 60 80 3e 00
        E 0 80 4a 00
        E 0 80 56 00
        E 0 80 62 00
        E 60 90 62 60
        E 0 90 63 60
        E 300 80 62 00
        E 0 80 63 00
        E 60 90 3e 60
        E 0 90 4a 60
        E 0 90 56 60
        E 0 90 62 60
        E 60 80 3e 00
        E 0 80 4a 00
        E 0 80 56 00
        E 0 80 62 00
        E 180 90 54 60
        E 0 90 60 60
        E 60 80 54 00
        E 0 80 60 00
        E 180 90 3e 60
        E 0 90 4a 60
        E 0 90 56 60
        E 0 90 62 60
        E 60 80 3e 00
        E 0 80 4a 00
        E 0 80 56 00
        E 0 80 62 00
        E 60 90 62 60
        E 0 90 63 60
        E 300 80 62 00
        E 0 80 63 00
        E 60 90 4a 60
        E 0 90 56 60
        E 0 90 62 60
        E 60 80 4a 00
        E 0 80 56 00
        E 0 80 62 00
        E 180 90 56 60
        E 0 90 62 60
        E 60 80 56 00
        E 0 80 62 00
        E 180 90 3d 60
        E 0 90 49 60
        E 0 90 55 60
        E 0 90 61 60
        E 60 80 3d 00
        E 0 80 49 00
        E 0 80 55 00
        E 0 80 61 00
        E 60 90 61 60
        E 0 90 62 60
        E 300 80 61 00
        E 0 80 62 00
        E 60 90 49 60
        E 0 90 55 60
        E 0 90 61 60
        E 60 80 49 00
        E 0 80 55 00
        E 0 80 61 00
        E 180 90 54 60
        E 0 90 60 60
        E 60 80 54 00
        E 0 80 60 00
        E 180 90 3e 60
        E 0 90 4a 60
        E 0 90 56 60
        E 0 90 62 60
        E 60 80 3e 00
        E 0 80 4a 00
        E 0 80 56 00
        E 0 80 62 00
        E 300 90 55 60
        E 0 90 61 60
        E 60 80 55 00
        E 0 80 61 00
        E 300 90 57 60
        E 0 90 63 60
        E 60 80 57 00
        E 0 80 63 00
        E 180 90 3d 60
        E 0 90 49 60
        E 0 90 55 60
        E 0 90 61 60
        E 61 80 3d 00
        E 0 80 49 00
        E 0 80 55 00
        E 0 80 61 00
        E 419 90 49 60
        E 0 90 55 60
        E 0 90 61 60
        E 60 80 49 00
        E 0 80 55 00
        E 0 80 61 00
        E 300 90 61 60
        E 60 80 61 00
        E 59 90 3d 60
        E 0 90 49 60
        E 0 90 55 60
        E 0 90 61 60
        E 60 80 3d 00
        E 0 80 49 00
        E 0 80 55 00
        E 0 80 61 00
        E 300 90 55 60
        E 0 90 61 60
        E 60 80 55 00
        E 0 80 61 00
        E 300 90 49 60
        E 0 90 55 60
        E 0 90 61 60
        E 60 80 49 00
        E 0 80 55 00
        E 0 80 61 00
        E 121 90 74 60
        E 60 90 3d 60
        E 0 90 49 60
        E 0 90 55 60
        E 0 90 61 60
        E 60 80 3d 00
        E 0 80 49 00
        E 0 80 55 00
        E 0 80 61 00
        E 60 90 61 60
        E 0 90 62 60
        E 300 80 61 00
        E 0 80 62 00
        E 60 90 3d 60
        E 0 90 49 60
        E 0 90 55 60
        E 0 90 61 60
        E 60 80 3d 00
        E 0 80 49 00
        E 0 80 55 00
        E 0 80 61 00
        E 180 90 54 60
        E 0 90 60 60
        E 60 80 54 00
        E 0 80 60 00
        E 120 90 62 60
        E 60 80 62 00
        E 360 90 49 60
        E 0 90 55 60
        E 0 90 61 60
        E 60 80 49 00
        E 0 80 55 00
        E 0 80 61 00
        E 300 90 57 60
        E 0 90 63 60
        E 60 80 57 00
        E 0 80 63 00
        E 180 90 3e 60
        E 0 90 4a 60
        E 0 90 56 60
        E 0 90 62 60
        E 60 80 3e 00
        E 0 80 4a 00
        E 0 80 56 00
        E 0 80 62 00
        E 60 90 62 60
        E 0 90 63 60
        E 300 80 62 00
        E 0 80 63 00
        E 60 90 3e 60
        E 0 90 4a 60
        E 0 90 56 60
        E 0 90 62 60
        E 60 80 3e 00
        E 0 80 4a 00
        E 0 80 56 00
        E 0 80 62 00
        E 180 90 54 60
        E 0 90 60 60
        E 60 80 54 00
        E 0 80 60 00
        E 180 90 3e 60
        E 0 90 4a 60
        E 0 90 56 60
        E 0 90 62 60
        E 60 80 3e 00
        E 0 80 4a 00
        E 0 80 56 00
        E 0 80 62 00
        E 60 90 62 60
        E 0 90 63 60
        E 300 80 62 00
        E 0 80 63 00
        E 60 90 4a 60
        E 0 90 56 60
        E 0 90 62 60
        E 60 80 4a 00
        E 0 80 56 00
        E 0 80 62 00
        E 180 90 56 60
        E 0 90 62 60
        E 60 80 56 00
        E 0 80 62 00
        E 180 90 3d 60
        E 0 90 49 60
        E 0 90 55 60
        E 0 90 61 60
        E 60 80 3d 00
        E 0 80 49 00
        E 0 80 55 00
        E 0 80 61 00
        E 60 90 61 60
        E 0 90 62 60
        E 300 80 61 00
        E 0 80 62 00
        E 60 90 49 60
        E 0 90 55 60
        E 0 90 61 60
        E 60 80 49 00
        E 0 80 55 00
        E 0 80 61 00
        E 120 80 74 00
        E 60 90 54 60
        E 0 90 60 60
        E 60 80 54 00
        E 0 80 60 00
        E 180 90 3e 60
        E 0 90 4a 60
        E 0 90 56 60
        E 0 90 62 60
        E 60 80 3e 00
        E 0 80 4a 00
        E 0 80 56 00
        E 0 80 62 00
        E 300 90 55 60
        E 0 90 61 60
        E 60 80 55 00
        E 0 80 61 00
        E 300 90 57 60
        E 0 90 63 60
        E 60 80 57 00
        E 0 80 63 00
        E 180 90 3d 60
        E 0 90 49 60
        E 0 90 55 60
        E 0 90 61 60
        E 61 80 3d 00
        E 0 80 49 00
        E 0 80 55 00
        E 0 80 61 00
        E 419 90 49 60
        E 0 90 55 60
        E 0 90 61 60
        E 60 80 49 00
        E 0 80 55 00
        E 0 80 61 00
        E 300 90 61 60
        E 60 80 61 00
        E 59 90 3d 60
        E 0 90 49 60
        E 0 90 55 60
        E 0 90 61 60
        E 60 80 3d 00
        E 0 80 49 00
        E 0 80 55 00
        E 0 80 61 00
        E 300 90 55 60
        E 0 90 61 60
        E 60 80 55 00
        E 0 80 61 00
        E 300 90 49 60
        E 0 90 55 60
        E 0 90 61 60
        E 60 80 49 00
        E 0 80 55 00
        E 0 80 61 00
        E 181 90 3d 60
        E 0 90 49 60
        E 0 90 55 60
        E 0 90 61 60
        E 60 80 3d 00
        E 0 80 49 00
        E 0 80 55 00
        E 0 80 61 00
        E 60 90 61 60
        E 0 90 62 60
        E 300 80 61 00
        E 0 80 62 00
        E 60 90 3d 60
        E 0 90 49 60
        E 0 90 55 60
        E 0 90 61 60
        E 60 80 3d 00
        E 0 80 49 00
        E 0 80 55 00
        E 0 80 61 00
        E 180 90 54 60
        E 0 90 60 60
        E 60 80 54 00
        E 0 80 60 00
        E 120 90 62 60
        E 60 80 62 00
        E 360 90 49 60
        E 0 90 55 60
        E 0 90 61 60
        E 60 80 49 00
        E 0 80 55 00
        E 0 80 61 00
        E 300 90 57 60
        E 0 90 63 60
        E 60 80 57 00
        E 0 80 63 00
        E 180 90 3e 60
        E 0 90 4a 60
        E 0 90 56 60
        E 0 90 62 60
        E 60 80 3e 00
        E 0 80 4a 00
        E 0 80 56 00
        E 0 80 62 00
        E 60 90 62 60
        E 0 90 63 60
        E 300 80 62 00
        E 0 80 63 00
        E 60 90 3e 60
        E 0 90 4a 60
        E 0 90 56 60
        E 0 90 62 60
        E 60 80 3e 00
        E 0 80 4a 00
        E 0 80 56 00
        E 0 80 62 00
        E 180 90 54 60
        E 0 90 60 60
        E 60 80 54 00
        E 0 80 60 00
        E 180 90 3e 60
        E 0 90 4a 60
        E 0 90 56 60
        E 0 90 62 60
        E 60 80 3e 00
        E 0 80 4a 00
        E 0 80 56 00
        E 0 80 62 00
        E 60 90 62 60
        E 0 90 63 60
        E 300 80 62 00
        E 0 80 63 00
        E 60 90 4a 60
        E 0 90 56 60
        E 0 90 62 60
        E 60 80 4a 00
        E 0 80 56 00
        E 0 80 62 00
        E 180 90 56 60
        E 0 90 62 60
        E 60 80 56 00
        E 0 80 62 00
        E 180 90 3d 60
        E 0 90 49 60
        E 0 90 55 60
        E 0 90 61 60
        E 60 80 3d 00
        E 0 80 49 00
        E 0 80 55 00
        E 0 80 61 00
        E 60 90 61 60
        E 0 90 62 60
        E 300 80 61 00
        E 0 80 62 00
        E 60 90 3d 60
        E 0 90 49 60
        E 0 90 55 60
        E 0 90 61 60
        E 60 80 3d 00
        E 0 80 49 00
        E 0 80 55 00
        E 0 80 61 00
        E 361 90 57 60
        E 0 90 63 60
        E 60 80 57 00
        E 0 80 63 00
        E 359 90 4c 60
        E 0 90 58 60
        E 0 90 64 60
        E 60 80 4c 00
        E 0 80 58 00
        E 0 80 64 00
        E 300 90 56 60
        E 0 90 62 60
        E 60 80 56 00
        E 0 80 62 00
        E 180 90 3e 60
        E 0 90 4a 60
        E 0 90 56 60
        E 0 90 62 60
        E 60 80 3e 00
        E 0 80 4a 00
        E 0 80 56 00
        E 0 80 62 00
        E 420 90 49 60
        E 0 90 55 60
        E 0 90 61 60
        E 60 80 49 00
        E 0 80 55 00
        E 0 80 61 00
        E 300 90 56 60
        E 0 90 61 60
        E 60 80 61 00
        E 60 80 56 00
        E 0 90 62 60
        E 60 80 62 00
        E 300 90 4a 60
        E 0 90 56 60
        E 0 90 62 60
        E 60 80 4a 00
        E 0 80 56 00
        E 0 80 62 00
        E 300 90 56 60
        E 0 90 62 60
        E 60 80 56 00
        E 0 80 62 00
        E 120 90 74 60
        E 60 90 3c 60
        E 0 90 48 60
        E 0 90 54 60
        E 0 90 60 60
        E 60 80 3c 00
        E 0 80 48 00
        E 0 80 54 00
        E 0 80 60 00
        E 240 90 55 60
        E 0 90 61 60
        E 60 80 55 00
        E 0 80 61 00
        E 180 90 4a 60
        E 0 90 56 60
        E 0 90 62 60
        E 60 80 4a 00
        E 0 80 56 00
        E 0 80 62 00
        E 180 90 55 60
        E 0 90 61 60
        E 60 80 55 00
        E 0 80 61 00
        E 240 90 48 60
        E 0 90 49 60
        E 0 90 54 60
        E 0 90 55 60
        E 0 90 60 60
        E 0 90 61 60
        E 0 90 62 60
        E 360 80 48 00
        E 0 80 49 00
        E 360 80 54 00
        E 0 80 55 00
        E 60 80 60 00
        E 0 80 61 00
        E 0 80 62 00
        E 60 90 3c 60
        E 0 90 48 60
        E 0 90 54 60
        E 0 90 60 60
        E 60 80 3c 00
        E 0 80 48 00
        E 0 80 54 00
        E 0 80 60 00
        E 240 90 55 60
        E 0 90 61 60
        E 60 80 55 00
        E 0 80 61 00
        E 181 90 4a 60
        E 0 90 56 60
        E 0 90 62 60
        E 60 80 4a 00
        E 0 80 56 00
        E 0 80 62 00
        E 179 90 61 60
        E 60 80 61 00
        E 240 90 48 60
        E 0 90 49 60
        E 0 90 54 60
        E 0 90 55 60
        E 0 90 60 60
        E 0 90 61 60
        E 0 90 62 60
        E 360 80 48 00
        E 0 80 49 00
        E 360 80 54 00
        E 0 80 55 00
        E 60 80 60 00
        E 0 80 61 00
        E 0 80 62 00
        E 60 90 3d 60
        E 0 90 49 60
        E 0 90 55 60
        E 0 90 61 60
        E 60 80 3d 00
        E 0 80 49 00
        E 0 80 55 00
        E 0 80 61 00
        E 240 90 56 60
        E 0 90 62 60
        E 60 80 56 00
        E 0 80 62 00
        E 181 90 4b 60
        E 0 90 57 60
        E 0 90 63 60
        E 60 80 4b 00
        E 0 80 57 00
        E 0 80 63 00
        E 179 90 62 60
        E 60 80 62 00
        E 240 90 49 60
        E 0 90 4b 60
        E 0 90 55 60
        E 0 90 57 60
        E 0 90 61 60
        E 0 90 62 60
        E 0 90 63 60
        E 360 80 49 00
        E 0 80 4b 00
        E 360 80 55 00
        E 0 80 57 00
        E 60 80 61 00
        E 0 80 62 00
        E 0 80 63 00
        E 60 90 3c 60
        E 0 90 48 60
        E 0 90 54 60
        E 0 90 60 60
        E 60 80 3c 00
        E 0 80 48 00
        E 0 80 54 00
        E 0 80 60 00
        E 240 90 55 60
        E 0 90 61 60
        E 60 80 55 00
        E 0 80 61 00
        E 181 90 4a 60
        E 0 90 56 60
        E 0 90 62 60
        E 60 80 4a 00
        E 0 80 56 00
        E 0 80 62 00
        E 179 90 61 60
        E 60 80 61 00
        E 240 90 48 60
        E 0 90 49 60
        E 0 90 54 60
        E 0 90 55 60
        E 0 90 60 60
        E 0 90 61 60
        E 0 90 62 60
        E 360 80 48 00
        E 0 80 49 00
        E 360 80 54 00
        E 0 80 55 00
        E 60 80 60 00
        E 0 80 61 00
        E 0 80 62 00
        E 60 90 3c 60
        E 0 90 48 60
        E 0 90 54 60
        E 0 90 60 60
        E 60 80 3c 00
        E 0 80 48 00
        E 0 80 54 00
        E 0 80 60 00
        E 240 90 55 60
        E 0 90 61 60
        E 60 80 55 00
        E 0 80 61 00
        E 181 90 4a 60
        E 0 90 56 60
        E 0 90 62 60
        E 60 80 4a 00
        E 0 80 56 00
        E 0 80 62 00
        E 179 90 61 60
        E 60 80 61 00
        E 240 90 48 60
        E 0 90 49 60
        E 0 90 54 60
        E 0 90 55 60
        E 0 90 60 60
        E 0 90 61 60
        E 0 90 62 60
        E 360 80 48 00
        E 0 80 49 00
        E 360 80 54 00
        E 0 80 55 00
        E 60 80 60 00
        E 0 80 61 00
        E 0 80 62 00
        E 60 90 3d 60
        E 0 90 49 60
        E 0 90 55 60
        E 0 90 61 60
        E 60 80 3d 00
        E 0 80 49 00
        E 0 80 55 00
        E 0 80 61 00
        E 240 90 56 60
        E 0 90 62 60
        E 60 80 56 00
        E 0 80 62 00
        E 181 90 4b 60
        E 0 90 57 60
        E 0 90 63 60
        E 60 80 4b 00
        E 0 80 57 00
        E 0 80 63 00
        E 179 90 62 60
        E 60 80 62 00
        E 240 90 49 60
        E 0 90 4b 60
        E 0 90 55 60
        E 0 90 57 60
        E 0 90 61 60
        E 0 90 62 60
        E 0 90 63 60
        E 360 80 49 00
        E 0 80 4b 00
        E 360 80 55 00
        E 0 80 57 00
        E 60 80 61 00
        E 0 80 62 00
        E 0 80 63 00
        E 60 90 3c 60
        E 0 90 48 60
        E 0 90 54 60
        E 0 90 60 60
        E 60 80 3c 00
        E 0 80 48 00
        E 0 80 54 00
        E 0 80 60 00
        E 240 90 55 60
        E 0 90 61 60
        E 60 80 55 00
        E 0 80 61 00
        E 181 90 4a 60
        E 0 90 56 60
        E 0 90 62 60
        E 60 80 4a 00
        E 0 80 56 00
        E 0 80 62 00
        E 179 90 61 60
        E 60 80 61 00
        E 240 90 3c 60
        E 0 90 48 60
        E 0 90 49 60
        E 0 90 54 60
        E 0 90 55 60
        E 0 90 60 60
        E 0 90 61 60
        E 0 90 62 60
        E 2100 80 60 00
        E 1 80 3c 00
        E 0 80 48 00
        E 0 80 49 00
        E 0 80 54 00
        E 0 80 55 00
        E 0 80 61 00
        E 0 80 62 00
        E 179 80 74 00
        E 2400 90 3d 60
        E 0 90 49 60
        E 0 90 55 60
        E 0 90 61 60
        E 60 80 3d 00
        E 0 80 49 00
        E 0 80 55 00
        E 0 80 61 00
        E 60 90 61 60
        E 0 90 62 60
        E 300 80 61 00
        E 0 80 62 00
        E 60 90 3d 60
        E 0 90 49 60
        E 0 90 55 60
        E 0 90 61 60
        E 60 80 3d 00
        E 0 80 49 00
        E 0 80 55 00
        E 0 80 61 00
        E 180 90 54 60
        E 0 90 60 60
        E 60 80 54 00
        E 0 80 60 00
        E 120 90 62 60
        E 60 80 62 00
        E 360 90 49 60
        E 0 90 55 60
        E 0 90 61 60
        E 60 80 49 00
        E 0 80 55 00
        E 0 80 61 00
        E 300 90 57 60
        E 0 90 63 60
        E 60 80 57 00
        E 0 80 63 00
        E 180 90 3e 60
        E 0 90 4a 60
        E 0 90 56 60
        E 0 90 62 60
        E 60 80 3e 00
        E 0 80 4a 00
        E 0 80 56 00
        E 0 80 62 00
        E 60 90 62 60
        E 0 90 63 60
        E 300 80 62 00
        E 0 80 63 00
        E 60 90 3e 60
        E 0 90 4a 60
        E 0 90 56 60
        E 0 90 62 60
        E 60 80 3e 00
        E 0 80 4a 00
        E 0 80 56 00
        E 0 80 62 00
        E 180 90 54 60
        E 0 90 60 60
        E 60 80 54 00
        E 0 80 60 00
        E 180 90 3e 60
        E 0 90 4a 60
        E 0 90 56 60
        E 0 90 62 60
        E 60 80 3e 00
        E 0 80 4a 00
        E 0 80 56 00
        E 0 80 62 00
        E 60 90 62 60
        E 0 90 63 60
        E 300 80 62 00
        E 0 80 63 00
        E 60 90 4a 60
        E 0 90 56 60
        E 0 90 62 60
        E 60 80 4a 00
        E 0 80 56 00
        E 0 80 62 00
        E 180 90 56 60
        E 0 90 62 60
        E 60 80 56 00
        E 0 80 62 00
        E 180 90 3d 60
        E 0 90 49 60
        E 0 90 55 60
        E 0 90 61 60
        E 60 80 3d 00
        E 0 80 49 00
        E 0 80 55 00
        E 0 80 61 00
        E 60 90 61 60
        E 0 90 62 60
        E 300 80 61 00
        E 0 80 62 00
        E 60 90 49 60
        E 0 90 55 60
        E 0 90 61 60
        E 60 80 49 00
        E 0 80 55 00
        E 0 80 61 00
        E 180 90 54 60
        E 0 90 60 60
        E 60 80 54 00
        E 0 80 60 00
        E 180 90 3e 60
        E 0 90 4a 60
        E 0 90 56 60
        E 0 90 62 60
        E 60 80 3e 00
        E 0 80 4a 00
        E 0 80 56 00
        E 0 80 62 00
        E 300 90 55 60
        E 0 90 61 60
        E 60 80 55 00
        E 0 80 61 00
        E 300 90 57 60
        E 0 90 63 60
        E 60 80 57 00
        E 0 80 63 00
        E 180 90 3d 60
        E 0 90 49 60
        E 0 90 55 60
        E 0 90 61 60
        E 61 80 3d 00
        E 0 80 49 00
        E 0 80 55 00
        E 0 80 61 00
        E 419 90 49 60
        E 0 90 55 60
        E 0 90 61 60
        E 60 80 49 00
        E 0 80 55 00
        E 0 80 61 00
        E 300 90 61 60
        E 60 80 61 00
        E 59 90 3d 60
        E 0 90 49 60
        E 0 90 55 60
        E 0 90 61 60
        E 60 80 3d 00
        E 0 80 49 00
        E 0 80 55 00
        E 0 80 61 00
        E 300 90 55 60
        E 0 90 61 60
        E 60 80 55 00
        E 0 80 61 00
        E 300 90 49 60
        E 0 90 55 60
        E 0 90 61 60
        E 60 80 49 00
        E 0 80 55 00
        E 0 80 61 00
        E 181 90 3d 60
        E 0 90 49 60
        E 0 90 55 60
        E 0 90 61 60
        E 60 80 3d 00
        E 0 80 49 00
        E 0 80 55 00
        E 0 80 61 00
        E 60 90 61 60
        E 0 90 62 60
        E 300 80 61 00
        E 0 80 62 00
        E 60 90 3d 60
        E 0 90 49 60
        E 0 90 55 60
        E 0 90 61 60
        E 60 80 3d 00
        E 0 80 49 00
        E 0 80 55 00
        E 0 80 61 00
        E 180 90 54 60
        E 0 90 60 60
        E 60 80 54 00
        E 0 80 60 00
        E 120 90 62 60
        E 60 80 62 00
        E 360 90 49 60
        E 0 90 55 60
        E 0 90 61 60
        E 60 80 49 00
        E 0 80 55 00
        E 0 80 61 00
        E 300 90 57 60
        E 0 90 63 60
        E 60 80 57 00
        E 0 80 63 00
        E 180 90 3e 60
        E 0 90 4a 60
        E 0 90 56 60
        E 0 90 62 60
        E 60 80 3e 00
        E 0 80 4a 00
        E 0 80 56 00
        E 0 80 62 00
        E 60 90 62 60
        E 0 90 63 60
        E 300 80 62 00
        E 0 80 63 00
        E 60 90 3e 60
        E 0 90 4a 60
        E 0 90 56 60
        E 0 90 62 60
        E 60 80 3e 00
        E 0 80 4a 00
        E 0 80 56 00
        E 0 80 62 00
        E 180 90 54 60
        E 0 90 60 60
        E 60 80 54 00
        E 0 80 60 00
        E 180 90 3e 60
        E 0 90 4a 60
        E 0 90 56 60
        E 0 90 62 60
        E 60 80 3e 00
        E 0 80 4a 00
        E 0 80 56 00
        E 0 80 62 00
        E 60 90 62 60
        E 0 90 63 60
        E 300 80 62 00
        E 0 80 63 00
        E 60 90 4a 60
        E 0 90 56 60
        E 0 90 62 60
        E 60 80 4a 00
        E 0 80 56 00
        E 0 80 62 00
        E 180 90 56 60
        E 0 90 62 60
        E 60 80 56 00
        E 0 80 62 00
        E 180 90 3d 60
        E 0 90 49 60
        E 0 90 55 60
        E 0 90 61 60
        E 60 80 3d 00
        E 0 80 49 00
        E 0 80 55 00
        E 0 80 61 00
        E 60 90 61 60
        E 0 90 62 60
        E 300 80 61 00
        E 0 80 62 00
        E 60 90 49 60
        E 0 90 55 60
        E 0 90 61 60
        E 60 80 49 00
        E 0 80 55 00
        E 0 80 61 00
        E 180 90 54 60
        E 0 90 60 60
        E 60 80 54 00
        E 0 80 60 00
        E 180 90 3e 60
        E 0 90 4a 60
        E 0 90 56 60
        E 0 90 62 60
        E 60 80 3e 00
        E 0 80 4a 00
        E 0 80 56 00
        E 0 80 62 00
        E 300 90 55 60
        E 0 90 61 60
        E 60 80 55 00
        E 0 80 61 00
        E 300 90 57 60
        E 0 90 63 60
        E 60 80 57 00
        E 0 80 63 00
        E 180 90 3d 60
        E 0 90 49 60
        E 0 90 55 60
        E 0 90 61 60
        E 61 80 3d 00
        E 0 80 49 00
        E 0 80 55 00
        E 0 80 61 00
        E 419 90 49 60
        E 0 90 55 60
        E 0 90 61 60
        E 60 80 49 00
        E 0 80 55 00
        E 0 80 61 00
        E 300 90 61 60
        E 60 80 61 00
        E 59 90 3d 60
        E 0 90 49 60
        E 0 90 55 60
        E 0 90 61 60
        E 60 80 3d 00
        E 0 80 49 00
        E 0 80 55 00
        E 0 80 61 00
        E 300 90 55 60
        E 0 90 61 60
        E 60 80 55 00
        E 0 80 61 00
        E 300 90 49 60
        E 0 90 55 60
        E 0 90 61 60
        E 60 80 49 00
        E 0 80 55 00
        E 0 80 61 00
        E 45 90 74 60
        E 136 90 3d 60
        E 0 90 49 60
        E 0 90 55 60
        E 0 90 61 60
        E 60 80 3d 00
        E 0 80 49 00
        E 0 80 55 00
        E 0 80 61 00
        E 60 90 61 60
        E 0 90 62 60
        E 300 80 61 00
        E 0 80 62 00
        E 60 90 3d 60
        E 0 90 49 60
        E 0 90 55 60
        E 0 90 61 60
        E 60 80 3d 00
        E 0 80 49 00
        E 0 80 55 00
        E 0 80 61 00
        E 180 90 54 60
        E 0 90 60 60
        E 60 80 54 00
        E 0 80 60 00
        E 120 90 62 60
        E 60 80 62 00
        E 360 90 49 60
        E 0 90 55 60
        E 0 90 61 60
        E 60 80 49 00
        E 0 80 55 00
        E 0 80 61 00
        E 300 90 57 60
        E 0 90 63 60
        E 60 80 57 00
        E 0 80 63 00
        E 180 90 3e 60
        E 0 90 4a 60
        E 0 90 56 60
        E 0 90 62 60
        E 60 80 3e 00
        E 0 80 4a 00
        E 0 80 56 00
        E 0 80 62 00
        E 60 90 62 60
        E 0 90 63 60
        E 300 80 62 00
        E 0 80 63 00
        E 60 90 3e 60
        E 0 90 4a 60
        E 0 90 56 60
        E 0 90 62 60
        E 60 80 3e 00
        E 0 80 4a 00
        E 0 80 56 00
        E 0 80 62 00
        E 180 90 54 60
        E 0 90 60 60
        E 60 80 54 00
        E 0 80 60 00
        E 180 90 3e 60
        E 0 90 4a 60
        E 0 90 56 60
        E 0 90 62 60
        E 60 80 3e 00
        E 0 80 4a 00
        E 0 80 56 00
        E 0 80 62 00
        E 60 90 62 60
        E 0 90 63 60
        E 300 80 62 00
        E 0 80 63 00
        E 60 90 4a 60
        E 0 90 56 60
        E 0 90 62 60
        E 60 80 4a 00
        E 0 80 56 00
        E 0 80 62 00
        E 180 90 56 60
        E 0 90 62 60
        E 60 80 56 00
        E 0 80 62 00
        E 180 90 3d 60
        E 0 90 49 60
        E 0 90 55 60
        E 0 90 61 60
        E 60 80 3d 00
        E 0 80 49 00
        E 0 80 55 00
        E 0 80 61 00
        E 60 90 61 60
        E 0 90 62 60
        E 300 80 61 00
        E 0 80 62 00
        E 60 90 49 60
        E 0 90 55 60
        E 0 90 61 60
        E 60 80 49 00
        E 0 80 55 00
        E 0 80 61 00
        E 180 90 54 60
        E 0 90 60 60
        E 60 80 54 00
        E 0 80 60 00
        E 180 90 3e 60
        E 0 90 4a 60
        E 0 90 56 60
        E 0 90 62 60
        E 60 80 3e 00
        E 0 80 4a 00
        E 0 80 56 00
        E 0 80 62 00
        E 300 90 55 60
        E 0 90 61 60
        E 60 80 55 00
        E 0 80 61 00
        E 300 90 57 60
        E 0 90 63 60
        E 60 80 57 00
        E 0 80 63 00
        E 180 90 3d 60
        E 0 90 49 60
        E 0 90 55 60
        E 0 90 61 60
        E 61 80 3d 00
        E 0 80 49 00
        E 0 80 55 00
        E 0 80 61 00
        E 419 90 49 60
        E 0 90 55 60
        E 0 90 61 60
        E 60 80 49 00
        E 0 80 55 00
        E 0 80 61 00
        E 153 80 74 00
        E 147 90 61 60
        E 60 80 61 00
        E 59 90 3d 60
        E 0 90 49 60
        E 0 90 55 60
        E 0 90 61 60
        E 60 80 3d 00
        E 0 80 49 00
        E 0 80 55 00
        E 0 80 61 00
        E 300 90 55 60
        E 0 90 61 60
        E 60 80 55 00
        E 0 80 61 00
        E 300 90 49 60
        E 0 90 55 60
        E 0 90 61 60
        E 60 80 49 00
        E 0 80 55 00
        E 0 80 61 00
        E 181 90 3d 60
        E 0 90 49 60
        E 0 90 55 60
        E 0 90 61 60
        E 60 80 3d 00
        E 0 80 49 00
        E 0 80 55 00
        E 0 80 61 00
        E 60 90 61 60
        E 0 90 62 60
        E 300 80 61 00
        E 0 80 62 00
        E 60 90 3d 60
        E 0 90 49 60
        E 0 90 55 60
        E 0 90 61 60
        E 60 80 3d 00
        E 0 80 49 00
        E 0 80 55 00
        E 0 80 61 00
        E 180 90 54 60
        E 0 90 60 60
        E 60 80 54 00
        E 0 80 60 00
        E 120 90 62 60
        E 60 80 62 00
        E 360 90 49 60
        E 0 90 55 60
        E 0 90 61 60
        E 60 80 49 00
        E 0 80 55 00
        E 0 80 61 00
        E 300 90 57 60
        E 0 90 63 60
        E 60 80 57 00
        E 0 80 63 00
        E 180 90 3e 60
        E 0 90 4a 60
        E 0 90 56 60
        E 0 90 62 60
        E 60 80 3e 00
        E 0 80 4a 00
        E 0 80 56 00
        E 0 80 62 00
        E 60 90 62 60
        E 0 90 63 60
        E 300 80 62 00
        E 0 80 63 00
        E 60 90 3e 60
        E 0 90 4a 60
        E 0 90 56 60
        E 0 90 62 60
        E 60 80 3e 00
        E 0 80 4a 00
        E 0 80 56 00
        E 0 80 62 00
        E 180 90 54 60
        E 0 90 60 60
        E 60 80 54 00
        E 0 80 60 00
        E 180 90 3e 60
        E 0 90 4a 60
        E 0 90 56 60
        E 0 90 62 60
        E 60 80 3e 00
        E 0 80 4a 00
        E 0 80 56 00
        E 0 80 62 00
        E 60 90 62 60
        E 0 90 63 60
        E 300 80 62 00
        E 0 80 63 00
        E 60 90 4a 60
        E 0 90 56 60
        E 0 90 62 60
        E 60 80 4a 00
        E 0 80 56 00
        E 0 80 62 00
        E 180 90 56 60
        E 0 90 62 60
        E 60 80 56 00
        E 0 80 62 00
        E 180 90 3d 60
        E 0 90 49 60
        E 0 90 55 60
        E 0 90 61 60
        E 60 80 3d 00
        E 0 80 49 00
        E 0 80 55 00
        E 0 80 61 00
        E 60 90 61 60
        E 0 90 62 60
        E 300 80 61 00
        E 0 80 62 00
        E 60 90 3d 60
        E 0 90 49 60
        E 0 90 55 60
        E 0 90 61 60
        E 60 80 3d 00
        E 0 80 49 00
        E 0 80 55 00
        E 0 80 61 00
        E 361 90 57 60
        E 0 90 63 60
        E 60 80 57 00
        E 0 80 63 00
        E 359 90 4c 60
        E 0 90 58 60
        E 0 90 64 60
        E 60 80 4c 00
        E 0 80 58 00
        E 0 80 64 00
        E 300 90 56 60
        E 0 90 62 60
        E 60 80 56 00
        E 0 80 62 00
        E 180 90 3e 60
        E 0 90 4a 60
        E 0 90 56 60
        E 0 90 62 60
        E 60 80 3e 00
        E 0 80 4a 00
        E 0 80 56 00
        E 0 80 62 00
        E 420 90 49 60
        E 0 90 55 60
        E 0 90 61 60
        E 60 80 49 00
        E 0 80 55 00
        E 0 80 61 00
        E 300 90 56 60
        E 0 90 61 60
        E 60 80 61 00
        E 60 80 56 00
        E 0 90 62 60
        E 60 80 62 00
        E 300 90 3e 60
        E 0 90 4a 60
        E 0 90 56 60
        E 0 90 62 60
        E 60 80 3e 00
        E 0 80 4a 00
        E 0 80 56 00
        E 0 80 62 00
        E 300 90 4a 60
        E 0 90 56 60
        E 0 90 62 60
        E 60 80 4a 00
        E 0 80 56 00
        E 0 80 62 00
        E 700 90 3d 60
        E 0 90 49 60
        E 0 90 55 60
        E 0 90 61 60
        E 40 80 3d 00
        E 0 80 49 00
        E 0 80 55 00
        E 0 80 61 00
        E 200 90 57 60
        E 0 90 63 60
        E 40 80 57 00
        E 0 80 63 00
        E 80 90 64 60
        E 40 80 64 00
        E 80 90 4a 60
        E 0 90 56 60
        E 0 90 62 60
        E 40 80 4a 00
        E 0 80 56 00
        E 0 80 62 00
        E 200 90 58 60
        E 0 90 63 60
        E 40 80 63 00
        E 80 80 58 00
        E 0 90 64 60
        E 40 80 64 00
        E 320 90 3e 60
        E 0 90 4a 60
        E 0 90 56 60
        E 0 90 62 60
        E 120 80 3e 00
        E 0 80 4a 00
        E 280 80 56 00
        E 0 80 62 00
        E 80 90 63 60
        E 40 80 63 00
        E 160 90 49 60
        E 0 90 55 60
        E 0 90 61 60
        E 40 80 49 00
        E 0 80 55 00
        E 0 80 61 00
        E 240 90 62 60
        E 40 80 62 00
        E 160 90 3e 60
        E 0 90 4a 60
        E 0 90 56 60
        E 0 90 62 60
        E 120 80 3e 00
        E 0 80 4a 00
        E 0 80 56 00
        E 239 80 62 00
        E 41 90 55 60
        E 0 90 61 60
        E 40 80 55 00
        E 0 80 61 00
        E 80 90 61 60
        E 40 80 61 00
        E 80 90 49 60
        E 0 90 55 60
        E 0 90 61 60
        E 40 80 49 00
        E 0 80 55 00
        E 0 80 61 00
        E 200 90 56 60
        E 0 90 62 60
        E 40 80 56 00
        E 0 80 62 00
        E 760 90 57 60
        E 0 90 63 60
        E 40 80 57 00
        E 0 80 63 00
        E 80 90 64 60
        E 40 80 64 00
        E 80 90 3e 60
        E 0 90 4a 60
        E 0 90 56 60
        E 0 90 62 60
        E 40 80 3e 00
        E 0 80 4a 00
        E 0 80 56 00
        E 0 80 62 00
        E 200 90 58 60
        E 0 90 62 60
        E 40 80 62 00
        E 80 80 58 00
        E 0 90 64 60
        E 40 80 64 00
        E 320 90 4a 60
        E 0 90 56 60
        E 0 90 61 60
        E 40 80 61 00
        E 80 80 4a 00
        E 0 90 62 60
        E 280 80 56 00
        E 80 80 62 00
        E 40 90 3c 60
        E 0 90 48 60
        E 0 90 54 60
        E 0 90 60 60
        E 40 80 3c 00
        E 0 80 48 00
        E 0 80 54 00
        E 0 80 60 00
        E 120 90 61 60
        E 40 80 61 00
        E 400 90 49 60
        E 0 90 55 60
        E 0 90 61 60
        E 40 80 49 00
        E 0 80 55 00
        E 0 80 61 00
        E 160 90 61 60
        E 40 80 61 00
        E 320 90 3e 60
        E 0 90 4a 60
        E 0 90 56 60
        E 0 90 62 60
        E 40 80 3e 00
        E 0 80 4a 00
        E 0 80 56 00
        E 0 80 62 00
        E 120 90 63 60
        E 40 80 63 00
        E 160 90 56 60
        E 0 90 62 60
        E 40 80 56 00
        E 0 80 62 00
        E 560 90 49 60
        E 0 90 55 60
        E 0 90 61 60
        E 40 80 49 00
        E 0 80 55 00
        E 0 80 61 00
        E 200 90 57 60
        E 0 90 63 60
        E 40 80 57 00
        E 0 80 63 00
        E 80 90 64 60
        E 40 80 64 00
        E 80 90 3e 60
        E 0 90 4a 60
        E 0 90 56 60
        E 0 90 62 60
        E 40 80 3e 00
        E 0 80 4a 00
        E 0 80 56 00
        E 0 80 62 00
        E 200 90 58 60
        E 0 90 63 60
        E 40 80 63 00
        E 80 80 58 00
        E 0 90 64 60
        E 40 80 64 00
        E 320 90 4a 60
        E 0 90 56 60
        E 0 90 62 60
        E 120 80 4a 00
        E 240 80 56 00
        E 40 80 62 00
        E 80 90 3f 60
        E 0 90 4b 60
        E 0 90 57 60
        E 0 90 63 60
        E 40 80 3f 00
        E 0 80 4b 00
        E 0 80 57 00
        E 0 80 63 00
        E 160 90 61 60
        E 40 80 61 00
        E 240 90 4a 60
        E 0 90 56 60
        E 0 90 62 60
        E 40 80 4a 00
        E 0 80 56 00
        E 0 80 62 00
        E 160 90 62 60
        E 359 80 62 00
        E 41 90 61 60
        E 40 80 61 00
        E 80 90 3d 60
        E 0 90 49 60
        E 0 90 55 60
        E 0 90 61 60
        E 40 80 3d 00
        E 0 80 49 00
        E 0 80 55 00
        E 0 80 61 00
        E 80 90 61 60
        E 40 80 61 00
        E 200 90 56 60
        E 0 90 62 60
        E 40 80 56 00
        E 0 80 62 00
        E 799 90 57 60
        E 0 90 63 60
        E 40 80 57 00
        E 0 80 63 00
        E 80 90 64 60
        E 40 80 64 00
        E 80 90 3e 60
        E 0 90 4a 60
        E 0 90 56 60
        E 0 90 62 60
        E 40 80 3e 00
        E 0 80 4a 00
        E 0 80 56 00
        E 0 80 62 00
        E 200 90 58 60
        E 0 90 62 60
        E 40 80 62 00
        E 80 80 58 00
        E 0 90 64 60
        E 40 80 64 00
        E 321 90 4a 60
        E 0 90 56 60
        E 0 90 61 60
        E 40 80 61 00
        E 79 90 62 60
        E 1 80 4a 00
        E 279 80 56 00
        E 80 80 62 00
        E 40 90 3c 60
        E 0 90 48 60
        E 0 90 54 60
        E 0 90 60 60
        E 41 80 3c 00
        E 0 80 48 00
        E 0 80 54 00
        E 0 80 60 00
        E 119 90 61 60
        E 40 80 61 00
        E 400 90 49 60
        E 0 90 55 60
        E 0 90 61 60
        E 40 80 49 00
        E 0 80 55 00
        E 0 80 61 00
        E 160 90 61 60
        E 40 80 61 00
        E 320 90 3e 60
        E 0 90 4a 60
        E 0 90 56 60
        E 0 90 62 60
        E 40 80 3e 00
        E 0 80 4a 00
        E 0 80 56 00
        E 0 80 62 00
        E 120 90 63 60
        E 40 80 63 00
        E 160 90 56 60
        E 0 90 62 60
        E 40 80 56 00
        E 0 80 62 00
        <X 480 0
          /wFbaWRsZV9yZWFsdGltZV0=
        >
        E 122 b0 7b 00
        GUID {14D9E950-FB92-4048-8603-8FD02AE3B865}
        IGNTEMPO 0 120.00000000 4 4
        SRCCOLOR 69
        VELLANE 132 38 60
        COLORMAP "C:\Users\wejaa\AppData\Roaming\REAPER\Data\color_maps\rockband_guitarbass.png"
        TEXTSTRINGFILE "Text Events List.txt"
        CFGEDITVIEW 175502.129543 138.011176 0 12 0 0 0
        CFGEDIT 1 1 0 0 0 1 1 1 1 1 1 0.12500000 -8 -8 1370 736 1 2 1 2 0.00000000 0 0 0 0 0.500000 1 0 1.000000 64
        KEYSNAP 0 0 "102034050607" 0 "Major"
        EVTFILTER 0 -1 -1 -1 -1 0 1 0 0 -1.00000000 -1.00000000
      >
    >
  >
  <TRACK '{B40B62EE-082A-4DC1-A318-F3B67121DE45}'
    NAME "01 Juhlat mulle-rhythm-E minor-132bpm-440hz"
    PEAKCOL 16576
    BEAT -1
    AUTOMODE 0
    VOLPAN 1.00000000000000 -1.00000000000000 -1.00000000000000 -1.00000000000000 1.00000000000000
    MUTESOLO 1 0 0
    IPHASE 0
    ISBUS 0 0
    BUSCOMP 0 0
    SHOWINMIX 1 0.666700 0.500000 1 0.500000 -1 -1 -1
    FREEMODE 0
    SEL 0
    REC 0 1024 0 0 0 0 0
    VU 2
    TRACKHEIGHT 27 0
    INQ 0 0 0 0.5000000000 100 0 0 100
    NCHAN 2
    FX 1
    TRACKID {B40B62EE-082A-4DC1-A318-F3B67121DE45}
    PERF 0
    MIDIOUT -1
    MAINSEND 1 0
    <ITEM
      POSITION 1.74046901687886
      SNAPOFFS 0.00000000000000
      LENGTH 192.77158730158729
      LOOP 0
      ALLTAKES 0
      SEL 0
      FADEIN 1 0.000000 0.000000 1 0
      FADEOUT 1 0.000000 0.000000 1 0
      MUTE 0
      IGUID {977EF580-6381-4CB3-9630-B264A13C9887}
      IID 51
      NAME "01 Juhlat mulle-rhythm-E minor-132bpm-440hz.wav"
      VOLPAN 1.000000 0.000000 1.000000 -1.000000
      SOFFS 0.00000000000000
      PLAYRATE 1.00000000000000 1 0.00000000000000 -1
      CHANMODE 0
      GUID {2EDC08FC-220C-4F17-93B3-E543C2FB017F}
      <SOURCE WAVE
        FILE "F:\01 Juhlat mulle-rhythm-E minor-132bpm-440hz.wav"
      >
    >
  >
  <TRACK '{C298A11E-8E06-44B8-AA31-429ECCE3F0AF}'
    NAME "PART VOCALS"
    PEAKCOL 16810239
    BEAT -1
    AUTOMODE 0
    VOLPAN 0.99997469241676 0.00000000000000 -1.00000000000000 -1.00000000000000 1.00000000000000
    MUTESOLO 0 0 0
    IPHASE 0
    ISBUS 0 0
    BUSCOMP 1 0
    SHOWINMIX 1 0.666700 0.500000 1 0.500000 -1 -1 -1
    FREEMODE 0
    SEL 0
    REC 0 4096 1 7 0 0 0
    TRACKHEIGHT 42 0
    INQ 0 0 0 0.5000000000 100 0 0 100
    NCHAN 2
    FX 1
    TRACKID {C298A11E-8E06-44B8-AA31-429ECCE3F0AF}
    PERF 0
    MIDIOUT -1
    <MIDINOTENAMES
      0 105 "Phrase Marker"
      0 84 "C5"
      0 36 "C1"
      0 83 "B"
      0 82 "Bb"
      0 81 "A"
      0 80 "G#"
      0 79 "G"
      0 78 "F#"
      0 77 "F"
      0 76 "E"
      0 75 "Eb"
      0 74 "D"
      0 73 "C#"
      0 72 "C4"
      0 71 "B"
      0 70 "Bb"
      0 69 "A"
      0 68 "G#"
      0 67 "G"
      0 66 "F#"
      0 65 "F"
      0 64 "E"
      0 63 "Eb"
      0 62 "D"
      0 61 "C#"
      0 60 "C3"
      0 59 "B"
      0 58 "Bb"
      0 57 "A"
      0 56 "G#"
      0 55 "G"
      0 54 "F#"
      0 53 "F"
      0 52 "E"
      0 51 "Eb"
      0 50 "D"
      0 49 "C#"
      0 48 "C2"
      0 47 "B"
      0 46 "Bb"
      0 45 "A"
      0 44 "G#"
      0 43 "G"
      0 42 "F#"
      0 41 "F"
      0 40 "E"
      0 39 "Eb"
      0 38 "D"
      0 37 "C#"
      0 97 "Not Displayed Percussion"
      0 96 "Displayed Percussion"
      0 104 "----"
      0 95 "----"
      0 116 "OVERDRIVE"
      0 115 "----"
      0 0 "Range Shift"
      0 1 "Lyric Shift"
    >
    MAINSEND 1 0
    <FXCHAIN
      WNDRECT 581 377 716 493
      SHOW 0
      LASTSEL 1
      DOCKED 0
      BYPASS 0 0
      <JS "IX/MIDI_Tool II" ""
        0.000000 85.000000 127.000000 0.000000 0.000000 0.000000 100.000000 0.000000 0.000000 127.000000 0.000000 0.000000 1.000000 0.000000 0.000000 - - - - - - - - - - - - - - - - - - - - - - - - - - - - - - - - - - - - - - - - - - - - - - - - - 
      >
      FLOATPOS 0 0 0 0
      FXID {CA785021-0433-497E-9A6C-EE23A1BC21B0}
      WAK 0
      BYPASS 0 0
      <VST "VSTi: ReaSynth (Cockos)" "reasynth.dll" 0 ""
        eXNlcu9e7f4AAAAAAgAAAAEAAAAAAAAAAgAAAAAAAAA4AAAAAAAAAA==
        AAAAAO++rd4N8K3eppvEOxe30ToAAAAAAAAAAAAAAACa9Q8/6WeIPQ==
        AAAAAAAAAD8AAIA/AAAAAAAAAD8AAAAAAAA=
      >
      FLOATPOS 32 32 338 405
      FXID {F124DD19-73B4-4CD5-B659-E246F2A3D0B3}
      WAK 0
    >
    <ITEM
      POSITION 0.00000000000000
      SNAPOFFS 0.00000000000000
      LENGTH 194.57834544559037
      LOOP 0
      ALLTAKES 0
      SEL 0
      FADEIN 1 0.000000 0.000000 1 0
      FADEOUT 1 0.000000 0.000000 1 0
      MUTE 0
      IGUID {9C9617EC-369A-41B9-80F6-31F4222F13F6}
      IID 10
      NAME "PART VOCALS"
      VOLPAN 1.000000 0.000000 1.000000 -1.000000
      SOFFS 0.00000000000000 0.00000000000000
      PLAYRATE 1.00000000000000 1 0.00000000000000 -65536
      CHANMODE 0
      GUID {8E872349-00D8-4243-95D7-0B92852E4EE5}
      <SOURCE MIDI
        HASDATA 1 480 QN
        POOLEDEVTS {F9F32104-9CBA-4F25-A9B5-1A34214FC12C}
        <X 0 0
          /wNQQVJUIFZPQ0FMUw==
        >
        <X 3840 0
          /wFbaWRsZV0=
        >
        <X 3840 0
          /wFbcGxheV0=
        >
        E 48 90 69 60
        <X 181 0
          /wVWw6Qt
        >
        E 0 90 2b 6c
        E 221 80 2b 00
        <X 30 0
          /wVsaWwt
        >
        E 0 90 2b 60
        E 180 80 2b 00
        <X 30 0
          /wVsw6Q=
        >
        E 0 90 2d 60
        E 180 80 2d 00
        <X 60 0
          /wV2w6Qt
        >
        E 0 90 2d 60
        E 210 80 2d 00
        <X 30 0
          /wVzeXQt
        >
        E 0 90 2d 60
        E 90 80 2d 00
        <X 172 0
          /wV0w6TDpA==
        >
        E 0 90 2b 60
        E 248 80 2b 00
        <X 465 0
          /wV0w6TDpA==
        >
        E 0 90 2b 60
        E 179 80 2b 00
        <X 93 0
          /wVrby0=
        >
        E 0 90 2b 60
        E 148 80 2b 00
        <X 75 0
          /wVrbw==
        >
        E 0 90 2b 60
        E 180 80 2b 00
        <X 71 0
          /wVlLQ==
        >
        E 0 90 2d 60
        E 186 80 2d 00
        <X 29 0
          /wVsw6Qt
        >
        E 0 90 2d 60
        E 235 80 2d 00
        <X 37 0
          /wVtw6Q=
        >
        E 0 90 2b 60
        E 176 80 2b 00
        E 225 80 69 00
        E 238 90 69 60
        <X 57 0
          /wVIb3Ut
        >
        E 0 90 2b 60
        E 215 80 2b 00
        <X 26 0
          /wVzdXQt
        >
        E 0 90 2a 60
        E 67 80 2a 00
        <X 159 0
          /wVraW4=
        >
        E 0 90 2b 60
        E 193 80 2b 00
        <X 49 0
          /wVraS0=
        >
        E 0 90 2b 60
        E 206 80 2b 00
        <X 23 0
          /wVyaXMt
        >
        E 0 90 2d 60
        E 171 80 2d 00
        <X 85 0
          /wV0w6TDpA==
        >
        E 0 90 2b 60
        E 397 80 2b 00
        <X 85 0
          /wVww6TDpA==
        >
        E 0 90 2a 60
        E 341 80 2a 00
        <X 35 0
          /wVvbg==
        >
        E 0 90 2a 60
        E 73 80 2a 00
        <X 42 0
          /wV0by0=
        >
        E 0 90 2a 60
        E 220 80 2a 00
        <X 35 0
          /wVzaQ==
        >
        E 0 90 28 60
        E 123 80 28 00
        <X 115 0
          /wVraS0=
        >
        E 0 90 2a 60
        E 104 80 2a 00
        <X 126 0
          /wVwZS0=
        >
        E 0 90 2b 60
        E 236 80 2b 00
        <X 31 0
          /wXDpA==
        >
        E 0 90 2b 60
        E 149 80 2b 00
        E 221 80 69 00
        E 151 90 69 60
        <X 150 0
          /wVKb24t
        >
        E 0 90 2b 60
        E 232 80 2b 00
        <X 25 0
          /wVuZS0=
        >
        E 0 90 2b 60
        E 60 80 2b 00
        <X 152 0
          /wVraW4=
        >
        E 0 90 2b 60
        E 183 80 2b 00
        <X 57 0
          /wVsw6RtLQ==
        >
        E 0 90 2b 60
        E 114 80 2b 00
        <X 13 0
          /wUr
        >
        E 0 90 2d 60
        E 71 80 2d 00
        <X 60 0
          /wVwaS0=
        >
        E 0 90 2d 60
        E 220 80 2d 00
        <X 32 0
          /wVtw6TDpG4=
        >
        E 0 90 2b 60
        E 350 80 2b 00
        <X 340 0
          /wVsby0=
        >
        E 0 90 2b 60
        E 181 80 2b 00
        <X 108 0
          /wVwdS0=
        >
        E 0 90 2b 60
        E 124 80 2b 00
        <X 88 0
          /wV0b24=
        >
        E 0 90 2b 60
        E 244 80 2b 00
        <X 45 0
          /wVpLQ==
        >
        E 0 90 2d 60
        E 112 80 2d 00
        <X 87 0
          /wVrw6Qt
        >
        E 0 90 2d 60
        E 155 80 2d 00
        <X 103 0
          /wV2w6Q=
        >
        E 0 90 2a 60
        E 134 80 2a 00
        E 176 80 69 00
        E 300 90 69 60
        E 0 90 74 60
        <X 64 0
          /wVObw==
        >
        E 0 90 2b 60
        E 87 80 2b 00
        <X 182 0
          /wV0w6Qt
        >
        E 0 90 2b 60
        E 200 80 2b 00
        <X 36 0
          /wVtw6Ru
        >
        E 0 90 2b 60
        E 186 80 2b 00
        <X 58 0
          /wVlLQ==
        >
        E 0 90 2b 60
        E 178 80 2b 00
        <X 32 0
          /wVuZW0t
        >
        E 0 90 2d 60
        E 203 80 2d 00
        <X 107 0
          /wVww6TDpA==
        >
        E 0 90 2c 60
        E 440 80 2c 00
        <X 91 0
          /wVlaQ==
        >
        E 0 90 2a 60
        E 91 80 2a 00
        <X 53 0
          /wVueXQ=
        >
        E 0 90 2a 60
        E 98 80 2a 00
        <X 150 0
          /wVhdS0=
        >
        E 0 90 2a 60
        E 176 80 2a 00
        <X 76 0
          /wV0YQ==
        >
        E 0 90 28 60
        E 90 80 28 00
        <X 64 0
          /wVyeS0=
        >
        E 0 90 2a 60
        E 171 80 2a 00
        <X 140 0
          /wVwZS0=
        >
        E 0 90 2b 60
        E 283 80 2b 00
        <X 33 0
          /wXDpA==
        >
        E 0 90 2b 60
        E 98 80 2b 00
        E 27 80 69 00
        E 0 80 74 00
        E 14 90 69 60
        <X 8 0
          /wVNw6Q=
        >
        E 0 90 2b 60
        E 168 80 2b 00
        <X 74 0
          /wVvLQ==
        >
        E 0 90 32 60
        E 135 80 32 00
        <X 105 0
          /wV0YW4=
        >
        E 0 90 32 60
        E 170 80 32 00
        <X 67 0
          /wVrdS0=
        >
        E 0 90 2f 60
        E 147 80 2f 00
        <X 96 0
          /wVwaW4=
        >
        E 0 90 2f 60
        E 182 80 2f 00
        <X 75 0
          /wVrYWgt
        >
        E 0 90 2d 60
        E 369 80 2d 00
        <X 124 0
          /wV2aWk=
        >
        E 0 90 2e 60
        E 405 80 2e 00
        <X 59 0
          /wVoZW4t
        >
        E 0 90 32 60
        E 213 80 32 00
        <X 27 0
          /wVnaXQt
        >
        E 0 90 32 60
        E 112 80 32 00
        <X 143 0
          /wV0ZS0=
        >
        E 0 90 2f 60
        E 165 80 2f 00
        <X 39 0
          /wVsZW4=
        >
        E 0 90 2f 60
        E 163 80 2f 00
        <X 79 0
          /wVzeS0=
        >
        E 0 90 2d 60
        E 193 80 2d 00
        <X 75 0
          /wV2w6TDpG4=
        >
        E 0 90 2f 60
        E 349 80 2f 00
        E 78 80 69 00
        E 200 90 69 60
        <X 69 0
          /wVNaS0=
        >
        E 0 90 2f 60
        E 166 80 2f 00
        <X 90 0
          /wV0w6Q=
        >
        E 0 90 32 60
        E 184 80 32 00
        <X 68 0
          /wVtdXUt
        >
        E 0 90 2f 60
        E 160 80 2f 00
        <X 61 0
          /wV0YQ==
        >
        E 0 90 2f 60
        E 151 80 2f 00
        <X 108 0
          /wV2b2lu
        >
        E 0 90 2d 60
        E 616 80 2d 00
        <X 111 0
          /wVrdW4=
        >
        E 0 90 2b 60
        E 189 80 2b 00
        <X 51 0
          /wVyw6Qt
        >
        E 0 90 2d 60
        E 148 80 2d 00
        <X 83 0
          /wVwZWwt
        >
        E 0 90 2d 60
        E 219 80 2d 00
        <X 28 0
          /wVsZWwt
        >
        E 0 90 2d 60
        E 238 80 2d 00
        <X 33 0
          /wVsw6Q=
        >
        E 0 90 2f 60
        E 141 80 2f 00
        <X 63 0
          /wVtZS0=
        >
        E 0 90 2f 60
        E 190 80 2f 00
        <X 39 0
          /wVuZS0=
        >
        E 0 90 2a 60
        E 207 80 2a 00
        <X 47 0
          /wVtw6TDpG4=
        >
        E 0 90 2a 60
        E 260 80 2a 00
        E 81 80 69 00
        E 142 90 69 60
        <X 233 0
          /wVWw6Qt
        >
        E 0 90 2b 60
        E 240 80 2b 00
        <X 36 0
          /wVsaWwt
        >
        E 0 90 2b 60
        E 152 80 2b 00
        <X 41 0
          /wVsw6Q=
        >
        E 0 90 2b 60
        E 164 80 2b 00
        <X 58 0
          /wV2w6Qt
        >
        E 0 90 2d 60
        E 189 80 2d 00
        <X 40 0
          /wVzeXQt
        >
        E 0 90 2d 60
        E 113 80 2d 00
        <X 174 0
          /wV0w6TDpA==
        >
        E 0 90 2a 60
        E 266 80 2a 00
        <X 30 0
          /wUr
        >
        E 0 90 2d 60
        E 108 80 2d 00
        <X 297 0
          /wV0w6TDpA==
        >
        E 0 90 2b 60
        E 155 80 2b 00
        <X 86 0
          /wVrby0=
        >
        E 0 90 2b 60
        E 154 80 2b 00
        <X 78 0
          /wVrbw==
        >
        E 0 90 2b 60
        E 172 80 2b 00
        <X 96 0
          /wVlLQ==
        >
        E 0 90 2d 60
        E 193 80 2d 00
        <X 30 0
          /wVsw6Qt
        >
        E 0 90 2d 60
        E 198 80 2d 00
        <X 41 0
          /wVtw6Q=
        >
        E 0 90 2b 60
        E 222 80 2b 00
        <X 46 0
          /wVNdXQ=
        >
        E 0 90 2b 60
        E 87 80 2b 00
        E 31 80 69 00
        E 73 90 69 60
        E 0 90 74 60
        <X 19 0
          /wV0w6Qt
        >
        E 0 90 2d 60
        E 187 80 2d 00
        <X 34 0
          /wVuw6TDpG4=
        >
        E 0 90 2d 60
        E 185 80 2d 00
        <X 75 0
          /wV0YWgt
        >
        E 0 90 2d 60
        E 183 80 2d 00
        <X 52 0
          /wVkb24=
        >
        E 0 90 2f 60
        E 170 80 2f 00
        <X 54 0
          /wVzaWwt
        >
        E 0 90 2d 60
        E 212 80 2d 00
        <X 51 0
          /wV0aQ==
        >
        E 0 90 2b 60
        E 236 80 2b 00
        <X 54 0
          /wVoeS0=
        >
        E 0 90 2a 60
        E 129 80 2a 00
        <X 34 0
          /wVteWlsLQ==
        >
        E 0 90 2a 60
        E 316 80 2a 00
        <X 40 0
          /wVsw6Q=
        >
        E 0 90 2d 60
        E 387 80 2d 00
        E 45 80 69 00
        E 0 80 74 00
        E 641 90 69 60
        <X 44 0
          /wVNw6Q=
        >
        E 0 90 32 60
        E 66 80 32 00
        <X 170 0
          /wVwaS0=
        >
        E 0 90 37 60
        E 191 80 37 00
        <X 32 0
          /wVkw6Ru
        >
        E 0 90 36 60
        E 226 80 36 00
        <X 94 0
          /wVqdWgt
        >
        E 0 90 34 60
        E 378 80 34 00
        <X 55 0
          /wVsYXQ=
        >
        E 0 90 34 60
        E 169 80 34 00
        <X 152 0
          /wVtdWwt
        >
        E 0 90 34 60
        E 603 80 34 00
        <X 41 0
          /wVsZQ==
        >
        E 0 90 34 60
        E 291 80 34 00
        E 117 80 69 00
        E 88 90 69 60
        <X 170 0
          /wVTZW4=
        >
        E 0 90 37 60
        E 193 80 37 00
        <X 74 0
          /wVrdW4t
        >
        E 0 90 37 60
        E 214 80 37 00
        <X 47 0
          /wVuaS0=
        >
        E 0 90 39 60
        E 265 80 39 00
        <X 52 0
          /wVhay0=
        >
        E 0 90 37 60
        E 91 80 37 00
        <X 33 0
          /wVzaQ==
        >
        E 0 90 36 60
        E 244 80 36 00
        <X 58 0
          /wVldC0=
        >
        E 0 90 36 60
        E 99 80 36 00
        <X 71 0
          /wV0w6Q=
        >
        E 0 90 32 60
        E 158 80 32 00
        <X 106 0
          /wV0w6TDpGwt
        >
        E 0 90 32 60
        E 427 80 32 00
        <X 50 0
          /wVsw6Q=
        >
        E 0 90 32 60
        E 175 80 32 00
        <X 78 0
          /wV2aWUt
        >
        E 0 90 32 60
        E 152 80 32 00
        <X 37 0
          /wUr
        >
        E 0 90 34 60
        E 225 80 34 00
        <X 52 0
          /wVsw6Q=
        >
        E 0 90 36 60
        E 171 80 36 00
        <X 94 0
          /wVvb24=
        >
        E 0 90 36 60
        E 910 80 36 00
        E 92 80 69 00
        E 327 90 69 60
        <X 80 0
          /wVNaWUt
        >
        E 0 90 2f 60
        E 276 80 2f 00
        <X 35 0
          /wVsZXQt
        >
        E 0 90 2f 60
        E 101 80 2f 00
        <X 73 0
          /wV0w7Yt
        >
        E 0 90 37 60
        E 214 80 37 00
        <X 36 0
          /wVtw6R0
        >
        E 0 90 36 60
        E 79 80 36 00
        <X 154 0
          /wVqdWgt
        >
        E 0 90 34 60
        E 325 80 34 00
        <X 72 0
          /wVsYXQ=
        >
        E 0 90 34 60
        E 251 80 34 00
        <X 294 0
          /wVtdWwt
        >
        E 0 90 34 60
        E 446 80 34 00
        <X 46 0
          /wVsZQ==
        >
        E 0 90 34 60
        E 296 80 34 00
        E 72 80 69 00
        E 266 90 69 60
        E 0 90 74 60
        <X 87 0
          /wVNdW4=
        >
        E 0 90 37 60
        E 162 80 37 00
        <X 71 0
          /wVsZW0t
        >
        E 0 90 37 60
        E 187 80 37 00
        <X 67 0
          /wVwaS0=
        >
        E 0 90 39 60
        E 162 80 39 00
        <X 82 0
          /wVtdS0=
        >
        E 0 90 39 60
        E 160 80 39 00
        <X 41 0
          /wVzYWE=
        >
        E 0 90 36 60
        E 300 80 36 00
        <X 70 0
          /wVsw6Qt
        >
        E 0 90 34 60
        E 103 80 34 00
        <X 53 0
          /wVwaQ==
        >
        E 0 90 32 60
        E 172 80 32 00
        <X 94 0
          /wVpbC0=
        >
        E 0 90 32 60
        E 231 80 32 00
        <X 35 0
          /wVsYW4=
        >
        E 0 90 32 60
        E 256 80 32 00
        <X 169 0
          /wVyYWkt
        >
        E 0 90 34 60
        E 383 80 34 00
        <X 105 0
          /wVrdS0=
        >
        E 0 90 36 60
        E 147 80 36 00
        <X 97 0
          /wVrb29u
        >
        E 0 90 36 60
        E 1470 80 36 00
        E 96 80 69 00
        E 0 80 74 00
        E 646 90 69 60
        <X 155 0
          /wVSYXAt
        >
        E 0 90 3b 60
        E 152 80 3b 00
        <X 336 0
          /wVwdS0=
        >
        E 0 90 3b 60
        E 119 80 3b 00
        <X 132 0
          /wVrw6R5LQ==
        >
        E 0 90 39 60
        E 406 80 39 00
        <X 71 0
          /wV0w6Qt
        >
        E 0 90 3b 60
        E 167 80 3b 00
        <X 83 0
          /wV2w6TDpG4=
        >
        E 0 90 34 60
        E 744 80 34 00
        <X 192 0
          /wVsYWkt
        >
        E 0 90 34 60
        E 164 80 34 00
        <X 97 0
          /wV0YW4=
        >
        E 0 90 36 60
        E 149 80 36 00
        <X 67 0
          /wVsYS0=
        >
        E 0 90 37 60
        E 166 80 37 00
        <X 95 0
          /wVwdW4=
        >
        E 0 90 34 60
        E 184 80 34 00
        <X 63 0
          /wVldC0=
        >
        E 0 90 36 60
        E 81 80 36 00
        <X 139 0
          /wV0w6Q=
        >
        E 0 90 37 60
        E 154 80 37 00
        <X 59 0
          /wVqby0=
        >
        E 0 90 37 60
        E 201 80 37 00
        <X 60 0
          /wV0ZW4t
        >
        E 0 90 39 60
        E 197 80 39 00
        <X 50 0
          /wVraW4=
        >
        E 0 90 39 60
        E 158 80 39 00
        <X 93 0
          /wVww6RyLQ==
        >
        E 0 90 37 60
        E 415 80 37 00
        <X 37 0
          /wVqw6Qt
        >
        E 0 90 37 60
        E 200 80 37 00
        <X 77 0
          /wV0w6TDpG4=
        >
        E 0 90 32 60
        E 1071 80 32 00
        E 296 80 69 00
        E 30 90 69 60
        <X 276 0
          /wVNw6Q=
        >
        E 0 90 32 60
        E 66 80 32 00
        <X 170 0
          /wVwaS0=
        >
        E 0 90 37 60
        E 191 80 37 00
        <X 32 0
          /wVkw6Ru
        >
        E 0 90 36 60
        E 225 80 36 00
        <X 95 0
          /wVqdWgt
        >
        E 0 90 34 60
        E 377 80 34 00
        <X 55 0
          /wVsYXQ=
        >
        E 0 90 34 60
        E 170 80 34 00
        <X 151 0
          /wVtdWwt
        >
        E 0 90 34 60
        E 604 80 34 00
        <X 41 0
          /wVsZQ==
        >
        E 0 90 34 60
        E 291 80 34 00
        <X 384 0
          /wVTZW4=
        >
        E 0 90 37 60
        E 196 80 37 00
        <X 67 0
          /wVrdW4t
        >
        E 0 90 37 60
        E 238 80 37 00
        <X 32 0
          /wVuaS0=
        >
        E 0 90 39 60
        E 205 80 39 00
        <X 38 0
          /wVhay0=
        >
        E 0 90 37 60
        E 104 80 37 00
        <X 79 0
          /wVzaQ==
        >
        E 0 90 36 60
        E 237 80 36 00
        <X 59 0
          /wVldC0=
        >
        E 0 90 34 60
        E 97 80 34 00
        <X 104 0
          /wV0w6Q=
        >
        E 0 90 32 60
        E 172 80 32 00
        <X 79 0
          /wVvb24=
        >
        E 0 90 34 60
        E 107 80 34 00
        <X 41 0
          /wUr
        >
        E 0 90 36 60
        E 881 80 36 00
        E 26 80 69 00
        E 245 90 69 60
        <X 128 0
          /wVqb3Mt
        >
        E 0 90 32 60
        E 198 80 32 00
        <X 49 0
          /wVrdXM=
        >
        E 0 90 32 60
        E 157 80 32 00
        <X 78 0
          /wVvbi0=
        >
        E 0 90 36 60
        E 215 80 36 00
        <X 35 0
          /wVuZWwt
        >
        E 0 90 36 60
        E 201 80 36 00
        <X 38 0
          /wVsaS0=
        >
        E 0 90 36 60
        E 195 80 36 00
        <X 40 0
          /wVuZW4=
        >
        E 0 90 36 60
        E 136 80 36 00
        <X 55 0
          /wVsw6Qt
        >
        E 0 90 36 60
        E 253 80 36 00
        <X 34 0
          /wVoZXMt
        >
        E 0 90 36 60
        E 183 80 36 00
        <X 72 0
          /wV0dWwt
        >
        E 0 90 36 60
        E 201 80 36 00
        <X 29 0
          /wUr
        >
        E 0 90 34 60
        E 178 80 34 00
        <X 91 0
          /wVrb29u
        >
        E 0 90 34 60
        E 1426 80 34 00
        <X 708 0
          /wVh
        >
        E 0 90 34 60
        E 110 80 34 00
        <X 360 0
          /wVoYQ==
        >
        E 0 90 34 60
        E 131 80 34 00
        <X 367 0
          /wVoYQ==
        >
        E 0 90 34 60
        E 123 80 34 00
        <X 344 0
          /wVoYWE=
        >
        E 0 90 34 60
        E 401 80 34 00
        E 160 80 69 00
        E 1775 90 69 60
        E 0 90 74 60
        <X 98 0
          /wVhYQ==
        >
        E 0 90 2f 60
        E 242 80 2f 00
        <X 39 0
          /wUr
        >
        E 0 90 32 60
        E 235 80 32 00
        <X 63 0
          /wUr
        >
        E 0 90 39 60
        E 444 80 39 00
        <X 48 0
          /wUr
        >
        E 0 90 3b 60
        E 665 80 3b 00
        <X 60 0
          /wUr
        >
        E 0 90 34 60
        E 2002 80 34 00
        <X 43 0
          /wVh
        >
        E 0 90 34 60
        E 110 80 34 00
        <X 360 0
          /wVoYQ==
        >
        E 0 90 34 60
        E 131 80 34 00
        <X 367 0
          /wVoYQ==
        >
        E 0 90 34 60
        E 123 80 34 00
        <X 344 0
          /wVoYWE=
        >
        E 0 90 34 60
        E 401 80 34 00
        E 186 80 69 00
        E 0 80 74 00
        E 3456 90 69 60
        <X 216 0
          /wVSYWst
        >
        E 0 90 2b 60
        E 79 80 2b 00
        <X 166 0
          /wVrYXVz
        >
        E 0 90 2b 60
        E 269 80 2b 00
        <X 83 0
          /wVvbg==
        >
        E 0 90 2b 60
        E 109 80 2b 00
        <X 43 0
          /wV2w6Qt
        >
        E 0 90 2d 60
        E 192 80 2d 00
        <X 27 0
          /wVoaXMt
        >
        E 0 90 2d 60
        E 193 80 2d 00
        <X 31 0
          /wVzw6Q=
        >
        E 0 90 2b 60
        E 242 80 2b 00
        <X 512 0
          /wVyYS0=
        >
        E 0 90 2b 60
        E 208 80 2b 00
        <X 37 0
          /wVoYXQ=
        >
        E 0 90 2b 60
        E 240 80 2b 00
        <X 66 0
          /wVvbg==
        >
        E 0 90 2b 60
        E 122 80 2b 00
        <X 26 0
          /wVsby0=
        >
        E 0 90 2d 60
        E 207 80 2d 00
        <X 52 0
          /wVwdXMt
        >
        E 0 90 2e 60
        E 192 80 2e 00
        <X 28 0
          /wVzYQ==
        >
        E 0 90 2a 60
        E 243 80 2a 00
        E 147 80 69 00
        E 222 90 69 60
        <X 101 0
          /wVNaS0=
        >
        E 0 90 2b 60
        E 173 80 2b 00
        <X 76 0
          /wVrw6TDpG4=
        >
        E 0 90 2b 60
        E 183 80 2b 00
        <X 50 0
          /wVlaQ==
        >
        E 0 90 2b 60
        E 167 80 2b 00
        <X 63 0
          /wVpLQ==
        >
        E 0 90 2b 60
        E 162 80 2b 00
        <X 100 0
          /wVraW4t
        >
        E 0 90 2d 60
        E 219 80 2d 00
        <X 38 0
          /wXDpA==
        >
        E 0 90 2b 60
        E 155 80 2b 00
        <X 86 0
          /wVtZS0=
        >
        E 0 90 2a 60
        E 419 80 2a 00
        <X 34 0
          /wVuZQ==
        >
        E 0 90 2a 60
        E 243 80 2a 00
        <X 54 0
          /wVuaWlu
        >
        E 0 90 2a 60
        E 168 80 2a 00
        <X 42 0
          /wVrdWlu
        >
        E 0 90 28 60
        E 133 80 28 00
        <X 48 0
          /wVzYS0=
        >
        E 0 90 2a 60
        E 231 80 2a 00
        <X 47 0
          /wVkdXMt
        >
        E 0 90 2b 60
        E 174 80 2b 00
        <X 45 0
          /wVzYQ==
        >
        E 0 90 2b 60
        E 233 80 2b 00
        E 286 80 69 00
        E 187 90 69 60
        <X 62 0
          /wVNdXQ=
        >
        E 0 90 2b 60
        E 66 80 2b 00
        <X 149 0
          /wVlaQ==
        >
        E 0 90 2b 60
        E 167 80 2b 00
        <X 64 0
          /wV0w6TDpA==
        >
        E 0 90 2b 60
        E 180 80 2b 00
        <X 36 0
          /wVow6Qt
        >
        E 0 90 2d 60
        E 145 80 2d 00
        <X 156 0
          /wV0aS0=
        >
        E 0 90 2d 60
        E 220 80 2d 00
        <X 20 0
          /wXDpA==
        >
        E 0 90 2b 60
        E 161 80 2b 00
        <X 479 0
          /wVtw6Q=
        >
        E 0 90 2b 60
        E 171 80 2b 00
        <X 70 0
          /wVzZWwt
        >
        E 0 90 2b 60
        E 249 80 2b 00
        <X 34 0
          /wV2aWlu
        >
        E 0 90 2b 60
        E 200 80 2b 00
        <X 50 0
          /wVrYWkt
        >
        E 0 90 2b 60
        E 178 80 2b 00
        <X 65 0
          /wVrZXMt
        >
        E 0 90 2d 60
        E 175 80 2d 00
        <X 93 0
          /wV0YQ==
        >
        E 0 90 2b 60
        E 215 80 2b 00
        E 141 80 69 00
        E 211 90 69 60
        E 0 90 74 60
        <X 119 0
          /wVQb2wt
        >
        E 0 90 2b 60
        E 220 80 2b 00
        <X 34 0
          /wV2ZXQ=
        >
        E 0 90 2b 60
        E 82 80 2b 00
        <X 148 0
          /wVvbg==
        >
        E 0 90 2b 60
        E 148 80 2b 00
        <X 45 0
          /wVzw7Yt
        >
        E 0 90 2b 60
        E 211 80 2b 00
        <X 97 0
          /wVrw7Yt
        >
        E 0 90 2d 60
        E 237 80 2d 00
        <X 28 0
          /wVuw6Q=
        >
        E 0 90 2b 60
        E 181 80 2b 00
        <X 53 0
          /wVtdXQ=
        >
        E 0 90 2b 60
        E 101 80 2b 00
        <X 116 0
          /wVrdWkt
        >
        E 0 90 2a 60
        E 152 80 2a 00
        <X 65 0
          /wV0ZW4t
        >
        E 0 90 2a 60
        E 196 80 2a 00
        <X 60 0
          /wVraW4=
        >
        E 0 90 28 60
        E 209 80 28 00
        <X 36 0
          /wVvb24=
        >
        E 0 90 28 60
        E 191 80 28 00
        <X 85 0
          /wVlLQ==
        >
        E 0 90 2a 60
        E 156 80 2a 00
        <X 29 0
          /wVsb3Mt
        >
        E 0 90 2a 60
        E 140 80 2a 00
        <X 36 0
          /wVzYQ==
        >
        E 0 90 2a 60
        E 233 80 2a 00
        E 20 80 69 00
        E 0 80 74 00
        E 52 90 69 60
        <X 20 0
          /wVNw6Q=
        >
        E 0 90 2b 60
        E 196 80 2b 00
        <X 46 0
          /wVvLQ==
        >
        E 0 90 32 60
        E 135 80 32 00
        <X 105 0
          /wV0YW4=
        >
        E 0 90 32 60
        E 159 80 32 00
        <X 78 0
          /wVrdS0=
        >
        E 0 90 2f 60
        E 147 80 2f 00
        <X 96 0
          /wVwaW4=
        >
        E 0 90 2f 60
        E 182 80 2f 00
        <X 75 0
          /wVrYWgt
        >
        E 0 90 2d 60
        E 369 80 2d 00
        <X 124 0
          /wV2aWk=
        >
        E 0 90 2e 60
        E 405 80 2e 00
        <X 59 0
          /wVoZW4t
        >
        E 0 90 32 60
        E 213 80 32 00
        <X 27 0
          /wVnaXQt
        >
        E 0 90 32 60
        E 130 80 32 00
        <X 113 0
          /wV0ZS0=
        >
        E 0 90 2f 60
        E 165 80 2f 00
        <X 39 0
          /wVsZW4=
        >
        E 0 90 2f 60
        E 163 80 2f 00
        <X 57 0
          /wVzeS0=
        >
        E 0 90 2d 60
        E 215 80 2d 00
        <X 75 0
          /wV2w6TDpG4=
        >
        E 0 90 2f 60
        E 349 80 2f 00
        E 30 80 69 00
        E 168 90 69 60
        <X 159 0
          /wVUw6Qt
        >
        E 0 90 2d 60
        E 187 80 2d 00
        <X 42 0
          /wVuw6TDpG4=
        >
        E 0 90 2d 60
        E 175 80 2d 00
        <X 107 0
          /wVtw6Q=
        >
        E 0 90 2d 60
        E 198 80 2d 00
        <X 40 0
          /wVlbg==
        >
        E 0 90 2f 60
        E 121 80 2f 00
        <X 75 0
          /wVtaWUt
        >
        E 0 90 2d 60
        E 175 80 2d 00
        <X 98 0
          /wV0aQ==
        >
        E 0 90 2c 60
        E 84 80 2c 00
        <X 162 0
          /wVlLQ==
        >
        E 0 90 2a 60
        E 185 80 2a 00
        <X 23 0
          /wVuZW0t
        >
        E 0 90 2b 60
        E 183 80 2b 00
        <X 66 0
          /wVww6TDpA==
        >
        E 0 90 2d 60
        E 568 80 2d 00
        E 187 80 69 00
        E 250 90 69 60
        <X 202 0
          /wVNw6Q=
        >
        E 0 90 32 60
        E 66 80 32 00
        <X 170 0
          /wVwaS0=
        >
        E 0 90 37 60
        E 191 80 37 00
        <X 32 0
          /wVkw6Ru
        >
        E 0 90 36 60
        E 226 80 36 00
        <X 94 0
          /wVqdWgt
        >
        E 0 90 34 60
        E 378 80 34 00
        <X 55 0
          /wVsYXQ=
        >
        E 0 90 34 60
        E 169 80 34 00
        <X 152 0
          /wVtdWwt
        >
        E 0 90 34 60
        E 603 80 34 00
        <X 41 0
          /wVsZQ==
        >
        E 0 90 34 60
        E 291 80 34 00
        E 91 80 69 00
        E 141 90 69 60
        E 0 90 74 60
        <X 143 0
          /wVTZW4=
        >
        E 0 90 37 60
        E 193 80 37 00
        <X 74 0
          /wVrdW4t
        >
        E 0 90 37 60
        E 214 80 37 00
        <X 47 0
          /wVuaS0=
        >
        E 0 90 39 60
        E 265 80 39 00
        <X 52 0
          /wVhay0=
        >
        E 0 90 37 60
        E 91 80 37 00
        <X 33 0
          /wVzaQ==
        >
        E 0 90 36 60
        E 244 80 36 00
        <X 58 0
          /wVldC0=
        >
        E 0 90 36 60
        E 99 80 36 00
        <X 71 0
          /wV0w6Q=
        >
        E 0 90 32 60
        E 158 80 32 00
        <X 106 0
          /wV0w6TDpGwt
        >
        E 0 90 32 60
        E 427 80 32 00
        <X 50 0
          /wVsw6Q=
        >
        E 0 90 32 60
        E 175 80 32 00
        <X 78 0
          /wV2aWUt
        >
        E 0 90 32 60
        E 152 80 32 00
        <X 37 0
          /wUr
        >
        E 0 90 34 60
        E 225 80 34 00
        <X 52 0
          /wVsw6Q=
        >
        E 0 90 36 60
        E 171 80 36 00
        <X 94 0
          /wVvb24=
        >
        E 0 90 36 60
        E 910 80 36 00
        E 151 80 69 00
        E 0 80 74 00
        E 253 90 69 60
        <X 95 0
          /wVNaWUt
        >
        E 0 90 2f 60
        E 276 80 2f 00
        <X 35 0
          /wVsZXQt
        >
        E 0 90 2f 60
        E 101 80 2f 00
        <X 73 0
          /wV0w7Yt
        >
        E 0 90 37 60
        E 214 80 37 00
        <X 36 0
          /wVtw6R0
        >
        E 0 90 36 60
        E 79 80 36 00
        <X 154 0
          /wVqdWgt
        >
        E 0 90 34 60
        E 325 80 34 00
        <X 72 0
          /wVsYXQ=
        >
        E 0 90 34 60
        E 251 80 34 00
        <X 294 0
          /wVtdWwt
        >
        E 0 90 34 60
        E 446 80 34 00
        <X 46 0
          /wVsZQ==
        >
        E 0 90 34 60
        E 324 80 34 00
        <X 397 0
          /wVNdW4=
        >
        E 0 90 37 60
        E 162 80 37 00
        <X 71 0
          /wVsZW0t
        >
        E 0 90 37 60
        E 187 80 37 00
        <X 67 0
          /wVwaS0=
        >
        E 0 90 39 60
        E 162 80 39 00
        <X 82 0
          /wVtdS0=
        >
        E 0 90 39 60
        E 160 80 39 00
        <X 41 0
          /wVzYWE=
        >
        E 0 90 36 60
        E 300 80 36 00
        <X 70 0
          /wVsw6Qt
        >
        E 0 90 34 60
        E 103 80 34 00
        <X 53 0
          /wVwaQ==
        >
        E 0 90 32 60
        E 172 80 32 00
        <X 94 0
          /wVpbC0=
        >
        E 0 90 32 60
        E 231 80 32 00
        <X 35 0
          /wVsYW4=
        >
        E 0 90 32 60
        E 256 80 32 00
        <X 169 0
          /wVyYWkt
        >
        E 0 90 34 60
        E 383 80 34 00
        <X 105 0
          /wVrdS0=
        >
        E 0 90 36 60
        E 147 80 36 00
        <X 97 0
          /wVrb29u
        >
        E 0 90 36 60
        E 1470 80 36 00
        E 32 80 69 00
        E 592 90 69 60
        <X 273 0
          /wVSYXAt
        >
        E 0 90 3b 60
        E 152 80 3b 00
        <X 336 0
          /wVwdS0=
        >
        E 0 90 3b 60
        E 119 80 3b 00
        <X 132 0
          /wVrw6R5LQ==
        >
        E 0 90 39 60
        E 406 80 39 00
        <X 71 0
          /wV0w6Qt
        >
        E 0 90 3b 60
        E 167 80 3b 00
        <X 83 0
          /wV2w6TDpG4=
        >
        E 0 90 34 60
        E 744 80 34 00
        <X 192 0
          /wVsYWkt
        >
        E 0 90 34 60
        E 164 80 34 00
        <X 97 0
          /wV0YW4=
        >
        E 0 90 36 60
        E 149 80 36 00
        <X 67 0
          /wVsYS0=
        >
        E 0 90 37 60
        E 166 80 37 00
        <X 95 0
          /wVwdW4=
        >
        E 0 90 34 60
        E 184 80 34 00
        <X 63 0
          /wVldC0=
        >
        E 0 90 36 60
        E 81 80 36 00
        <X 139 0
          /wV0w6Q=
        >
        E 0 90 37 60
        E 154 80 37 00
        <X 59 0
          /wVqby0=
        >
        E 0 90 37 60
        E 201 80 37 00
        <X 60 0
          /wV0ZW4t
        >
        E 0 90 39 60
        E 197 80 39 00
        <X 50 0
          /wVraW4=
        >
        E 0 90 39 60
        E 158 80 39 00
        <X 93 0
          /wVww6RyLQ==
        >
        E 0 90 37 60
        E 415 80 37 00
        <X 37 0
          /wVqw6Qt
        >
        E 0 90 37 60
        E 200 80 37 00
        <X 77 0
          /wV0w6TDpG4=
        >
        E 0 90 32 60
        E 1071 80 32 00
        E 480 80 69 00
        E 60 90 69 60
        <X 62 0
          /wVNw6Q=
        >
        E 0 90 32 60
        E 66 80 32 00
        <X 170 0
          /wVwaS0=
        >
        E 0 90 37 60
        E 191 80 37 00
        <X 32 0
          /wVkw6Ru
        >
        E 0 90 36 60
        E 225 80 36 00
        <X 95 0
          /wVqdWgt
        >
        E 0 90 34 60
        E 377 80 34 00
        <X 55 0
          /wVsYXQ=
        >
        E 0 90 34 60
        E 170 80 34 00
        <X 151 0
          /wVtdWwt
        >
        E 0 90 34 60
        E 604 80 34 00
        <X 41 0
          /wVsZQ==
        >
        E 0 90 34 60
        E 291 80 34 00
        <X 384 0
          /wVTZW4=
        >
        E 0 90 37 60
        E 196 80 37 00
        <X 67 0
          /wVrdW4t
        >
        E 0 90 37 60
        E 238 80 37 00
        <X 32 0
          /wVuaS0=
        >
        E 0 90 39 60
        E 205 80 39 00
        <X 38 0
          /wVhay0=
        >
        E 0 90 37 60
        E 104 80 37 00
        <X 79 0
          /wVzaQ==
        >
        E 0 90 36 60
        E 236 80 36 00
        <X 60 0
          /wVldC0=
        >
        E 0 90 34 60
        E 96 80 34 00
        <X 104 0
          /wV0w6Q=
        >
        E 0 90 32 60
        E 172 80 32 00
        <X 80 0
          /wVvb24=
        >
        E 0 90 34 60
        E 106 80 34 00
        <X 42 0
          /wUr
        >
        E 0 90 36 60
        E 881 80 36 00
        E 72 80 69 00
        E 235 90 69 60
        E 0 90 74 60
        <X 91 0
          /wVqb3Mt
        >
        E 0 90 32 60
        E 199 80 32 00
        <X 49 0
          /wVrdXM=
        >
        E 0 90 32 60
        E 157 80 32 00
        <X 77 0
          /wVvbi0=
        >
        E 0 90 36 60
        E 216 80 36 00
        <X 35 0
          /wVuZWwt
        >
        E 0 90 36 60
        E 201 80 36 00
        <X 38 0
          /wVsaS0=
        >
        E 0 90 36 60
        E 195 80 36 00
        <X 39 0
          /wVuZW4=
        >
        E 0 90 36 60
        E 254 80 36 00
        E 112 90 00 60
        E 120 80 00 00
        <X 210 0
          /wVNdWw=
        >
        E 0 90 40 60
        E 210 80 40 00
        <X 34 0
          /wVvbg==
        >
        E 0 90 40 60
        E 161 80 40 00
        <X 96 0
          /wVrdWloLQ==
        >
        E 0 90 45 60
        E 94 80 45 00
        <X 44 0
          /wUr
        >
        E 0 90 47 60
        E 224 80 47 00
        <X 130 0
          /wV0dS0=
        >
        E 0 90 4a 60
        E 161 80 4a 00
        <X 80 0
          /wVuZWkt
        >
        E 0 90 43 60
        E 616 80 43 00
        <X 110 0
          /wV0YQ==
        >
        E 0 90 43 60
        E 242 80 43 00
        <X 212 0
          /wVrdWst
        >
        E 0 90 42 60
        E 119 80 42 00
        <X 356 0
          /wVrYS0=
        >
        E 0 90 42 60
        E 156 80 42 00
        <X 51 0
          /wVzaWk=
        >
        E 0 90 3e 60
        E 712 80 3e 00
        E 93 80 69 00
        E 0 80 74 00
        E 341 90 69 60
        <X 114 0
          /wVQb3At
        >
        E 0 90 40 60
        E 107 80 40 00
        <X 356 0
          /wVwYS0=
        >
        E 0 90 4a 60
        E 191 80 4a 00
        <X 66 0
          /wVyZWkt
        >
        E 0 90 43 60
        E 597 80 43 00
        <X 116 0
          /wV0YQ==
        >
        E 0 90 43 60
        E 315 80 43 00
        <X 78 0
          /wVzdS0=
        >
        E 0 90 42 60
        E 287 80 42 00
        <X 83 0
          /wVsYWE=
        >
        E 0 90 3e 60
        E 394 80 3e 00
        <X 62 0
          /wVqw6R0cy0=
        >
        E 0 90 45 60
        E 199 80 45 00
        <X 33 0
          /wUr
        >
        E 0 90 43 60
        E 138 80 43 00
        <X 107 0
          /wVraWk=
        >
        E 0 90 43 60
        E 330 80 43 00
        E 199 80 69 00
        E 64 90 74 60
        E 1 90 69 60
        <X 107 0
          /wVOYWEt
        >
        E 0 90 47 60
        E 365 80 47 00
        <X 107 0
          /wVwdS0=
        >
        E 0 90 4a 60
        E 191 80 4a 00
        <X 29 0
          /wVyZWkt
        >
        E 0 90 43 60
        E 605 80 43 00
        <X 149 0
          /wV0YQ==
        >
        E 0 90 43 60
        E 423 80 43 00
        <X 86 0
          /wV5cy0=
        >
        E 0 90 43 60
        E 335 80 43 00
        <X 91 0
          /wV0w6Qt
        >
        E 0 90 43 60
        E 145 80 43 00
        <X 149 0
          /wV2aWk=
        >
        E 0 90 3e 60
        E 526 80 3e 00
        E 159 80 74 00
        E 4 80 69 00
        E 271 90 69 60
        <X 208 0
          /wVUw6Qt
        >
        E 0 90 47 60
        E 202 80 47 00
        <X 51 0
          /wVuw6TDpG4=
        >
        E 0 90 4a 60
        E 414 80 4a 00
        <X 83 0
          /wVlaQ==
        >
        E 0 90 43 60
        E 649 80 43 00
        <X 427 0
          /wVtaS0=
        >
        E 0 90 42 60
        E 189 80 42 00
        <X 159 0
          /wV0w6TDpG4=
        >
        E 0 90 3e 60
        E 416 80 3e 00
        <X 63 0
          /wVodW8t
        >
        E 0 90 44 60
        E 131 80 44 00
        <X 39 0
          /wUr
        >
        E 0 90 45 60
        E 281 80 45 00
        <X 47 0
          /wVsaWk=
        >
        E 0 90 43 60
        E 799 80 43 00
        E 217 80 69 00
        E 154 90 00 60
        E 180 80 00 00
        E 466 90 69 60
        E 0 90 74 60
        <X 73 0
          /wVNw6Q=
        >
        E 0 90 32 60
        E 66 80 32 00
        <X 170 0
          /wVwaS0=
        >
        E 0 90 37 60
        E 191 80 37 00
        <X 32 0
          /wVkw6Ru
        >
        E 0 90 36 60
        E 226 80 36 00
        <X 94 0
          /wVqdWgt
        >
        E 0 90 34 60
        E 378 80 34 00
        <X 55 0
          /wVsYXQ=
        >
        E 0 90 34 60
        E 169 80 34 00
        <X 152 0
          /wVtdWwt
        >
        E 0 90 34 60
        E 603 80 34 00
        <X 41 0
          /wVsZQ==
        >
        E 0 90 34 60
        E 291 80 34 00
        E 88 80 69 00
        E 0 80 74 00
        E 88 90 69 60
        <X 199 0
          /wVTZW4=
        >
        E 0 90 37 60
        E 193 80 37 00
        <X 74 0
          /wVrdW4t
        >
        E 0 90 37 60
        E 214 80 37 00
        <X 47 0
          /wVuaS0=
        >
        E 0 90 39 60
        E 265 80 39 00
        <X 52 0
          /wVhay0=
        >
        E 0 90 37 60
        E 91 80 37 00
        <X 33 0
          /wVzaQ==
        >
        E 0 90 36 60
        E 244 80 36 00
        <X 58 0
          /wVldC0=
        >
        E 0 90 36 60
        E 99 80 36 00
        <X 71 0
          /wV0w6Q=
        >
        E 0 90 32 60
        E 158 80 32 00
        <X 106 0
          /wV0w6TDpGwt
        >
        E 0 90 32 60
        E 427 80 32 00
        <X 50 0
          /wVsw6Q=
        >
        E 0 90 32 60
        E 175 80 32 00
        <X 78 0
          /wV2aWUt
        >
        E 0 90 32 60
        E 152 80 32 00
        <X 37 0
          /wUr
        >
        E 0 90 34 60
        E 225 80 34 00
        <X 52 0
          /wVsw6Q=
        >
        E 0 90 36 60
        E 171 80 36 00
        <X 94 0
          /wVvb24=
        >
        E 0 90 36 60
        E 910 80 36 00
        E 63 80 69 00
        E 327 90 69 60
        <X 109 0
          /wVNaWUt
        >
        E 0 90 2f 60
        E 276 80 2f 00
        <X 35 0
          /wVsZXQt
        >
        E 0 90 2f 60
        E 101 80 2f 00
        <X 73 0
          /wV0w7Yt
        >
        E 0 90 37 60
        E 214 80 37 00
        <X 36 0
          /wVtw6R0
        >
        E 0 90 36 60
        E 79 80 36 00
        <X 154 0
          /wVqdWgt
        >
        E 0 90 34 60
        E 325 80 34 00
        <X 72 0
          /wVsYXQ=
        >
        E 0 90 34 60
        E 251 80 34 00
        <X 294 0
          /wVtdWwt
        >
        E 0 90 34 60
        E 446 80 34 00
        <X 46 0
          /wVsZQ==
        >
        E 0 90 34 60
        E 296 80 34 00
        E 43 80 69 00
        E 266 90 69 60
        <X 116 0
          /wVNdW4=
        >
        E 0 90 37 60
        E 162 80 37 00
        <X 71 0
          /wVsZW0t
        >
        E 0 90 37 60
        E 187 80 37 00
        <X 67 0
          /wVwaS0=
        >
        E 0 90 39 60
        E 162 80 39 00
        <X 82 0
          /wVtdS0=
        >
        E 0 90 39 60
        E 160 80 39 00
        <X 41 0
          /wVzYWE=
        >
        E 0 90 36 60
        E 300 80 36 00
        <X 70 0
          /wVsw6Qt
        >
        E 0 90 34 60
        E 103 80 34 00
        <X 53 0
          /wVwaQ==
        >
        E 0 90 32 60
        E 172 80 32 00
        <X 94 0
          /wVpbC0=
        >
        E 0 90 32 60
        E 231 80 32 00
        <X 35 0
          /wVsYW4=
        >
        E 0 90 32 60
        E 256 80 32 00
        <X 169 0
          /wVyYWkt
        >
        E 0 90 34 60
        E 383 80 34 00
        <X 105 0
          /wVrdS0=
        >
        E 0 90 36 60
        E 147 80 36 00
        <X 97 0
          /wVrb29u
        >
        E 0 90 36 60
        E 1470 80 36 00
        E 67 80 69 00
        e 720 90 69 60
        e 0 90 74 60
        <X 110 0
          /wVSYXAt
        >
        E 0 90 3b 60
        E 152 80 3b 00
        <X 336 0
          /wVwdS0=
        >
        E 0 90 3b 60
        E 119 80 3b 00
        <X 132 0
          /wVrw6R5LQ==
        >
        E 0 90 39 60
        E 406 80 39 00
        <X 71 0
          /wV0w6Qt
        >
        E 0 90 3b 60
        E 167 80 3b 00
        <X 83 0
          /wV2w6TDpG4=
        >
        E 0 90 34 60
        E 744 80 34 00
        <X 192 0
          /wVsYWkt
        >
        E 0 90 34 60
        E 164 80 34 00
        <X 97 0
          /wV0YW4=
        >
        E 0 90 36 60
        E 149 80 36 00
        <X 67 0
          /wVsYS0=
        >
        E 0 90 37 60
        E 166 80 37 00
        <X 95 0
          /wVwdW4=
        >
        E 0 90 34 60
        E 184 80 34 00
        <X 63 0
          /wVldC0=
        >
        E 0 90 36 60
        E 81 80 36 00
        <X 139 0
          /wV0w6Q=
        >
        E 0 90 37 60
        E 154 80 37 00
        <X 59 0
          /wVqby0=
        >
        E 0 90 37 60
        E 201 80 37 00
        <X 60 0
          /wV0ZW4t
        >
        E 0 90 39 60
        E 197 80 39 00
        <X 50 0
          /wVraW4=
        >
        E 0 90 39 60
        E 158 80 39 00
        <X 93 0
          /wVww6RyLQ==
        >
        E 0 90 37 60
        E 415 80 37 00
        <X 37 0
          /wVqw6Qt
        >
        E 0 90 37 60
        E 200 80 37 00
        <X 77 0
          /wV0w6TDpG4=
        >
        E 0 90 32 60
        E 1071 80 32 00
        e 100 80 74 00
        e 387 80 69 00
        E 60 90 69 60
        <X 55 0
          /wVNw6Q=
        >
        E 0 90 32 60
        E 66 80 32 00
        <X 170 0
          /wVwaS0=
        >
        E 0 90 37 60
        E 191 80 37 00
        <X 32 0
          /wVkw6Ru
        >
        E 0 90 36 60
        E 225 80 36 00
        <X 95 0
          /wVqdWgt
        >
        E 0 90 34 60
        E 377 80 34 00
        <X 55 0
          /wVsYXQ=
        >
        E 0 90 34 60
        E 170 80 34 00
        <X 151 0
          /wVtdWwt
        >
        E 0 90 34 60
        E 604 80 34 00
        <X 41 0
          /wVsZQ==
        >
        E 0 90 34 60
        E 291 80 34 00
        <X 384 0
          /wVTZW4=
        >
        E 0 90 37 60
        E 196 80 37 00
        <X 67 0
          /wVrdW4t
        >
        E 0 90 37 60
        E 238 80 37 00
        <X 32 0
          /wVuaS0=
        >
        E 0 90 39 60
        E 205 80 39 00
        <X 38 0
          /wVhay0=
        >
        E 0 90 37 60
        E 104 80 37 00
        <X 79 0
          /wVzaQ==
        >
        E 0 90 36 60
        E 237 80 36 00
        <X 59 0
          /wVldC0=
        >
        E 0 90 34 60
        E 97 80 34 00
        <X 104 0
          /wV0w6Q=
        >
        E 0 90 32 60
        E 172 80 32 00
        <X 79 0
          /wVvb24=
        >
        E 0 90 34 60
        E 107 80 34 00
        <X 41 0
          /wUr
        >
        E 0 90 36 60
        E 881 80 36 00
        E 97 80 69 00
        E 245 90 69 60
        <X 57 0
          /wVqb3Mt
        >
        E 0 90 32 60
        E 198 80 32 00
        <X 49 0
          /wVrdXM=
        >
        E 0 90 32 60
        E 157 80 32 00
        <X 78 0
          /wVvbi0=
        >
        E 0 90 36 60
        E 215 80 36 00
        <X 35 0
          /wVuZWwt
        >
        E 0 90 36 60
        E 201 80 36 00
        <X 38 0
          /wVsaS0=
        >
        E 0 90 36 60
        E 195 80 36 00
        <X 40 0
          /wVuZW4=
        >
        E 0 90 36 60
        E 136 80 36 00
        <X 55 0
          /wVsw6Qt
        >
        E 0 90 36 60
        E 253 80 36 00
        <X 34 0
          /wVoZXMt
        >
        E 0 90 36 60
        E 183 80 36 00
        <X 72 0
          /wV0dWwt
        >
        E 0 90 32 60
        E 201 80 32 00
        <X 29 0
          /wUr
        >
        E 0 90 34 60
        E 178 80 34 00
        <X 91 0
          /wVrb29u
        >
        E 0 90 34 60
        E 1426 80 34 00
        <X 748 0
          /wVhbC0=
        >
        E 0 90 34 60
        E 394 80 34 00
        <X 60 0
          /wVsYQ==
        >
        E 0 90 30 60
        E 181 80 30 00
        <X 321 0
          /wVoYQ==
        >
        E 0 90 34 60
        E 133 80 34 00
        <X 345 0
          /wVoYWE=
        >
        E 0 90 34 60
        E 415 80 34 00
        E 178 80 69 00
        E 806 90 69 60
        <X 255 0
          /wVKb3Mt
        >
        E 0 90 32 60
        E 198 80 32 00
        <X 49 0
          /wVrdXM=
        >
        E 0 90 33 60
        E 157 80 33 00
        <X 78 0
          /wVvbi0=
        >
        E 0 90 36 60
        E 215 80 36 00
        <X 35 0
          /wVuZWwt
        >
        E 0 90 36 60
        E 201 80 36 00
        <X 38 0
          /wVsaS0=
        >
        E 0 90 36 60
        E 195 80 36 00
        <X 40 0
          /wVuZW4=
        >
        E 0 90 36 60
        E 136 80 36 00
        <X 55 0
          /wVsw6Qt
        >
        E 0 90 36 60
        E 253 80 36 00
        <X 34 0
          /wVoZXMt
        >
        E 0 90 36 60
        E 183 80 36 00
        <X 72 0
          /wV0dWwt
        >
        E 0 90 36 60
        E 201 80 36 00
        <X 29 0
          /wUr
        >
        E 0 90 37 60
        E 178 80 37 00
        <X 91 0
          /wVrb29u
        >
        E 0 90 34 60
        E 1571 80 34 00
        E 310 80 69 00
        E 169 90 69 60
        <X 78 0
          /wVh
        >
        E 0 90 34 60
        E 110 80 34 00
        <X 360 0
          /wVoYQ==
        >
        E 0 90 34 60
        E 131 80 34 00
        <X 367 0
          /wVoYQ==
        >
        E 0 90 34 60
        E 123 80 34 00
        <X 344 0
          /wVoYWE=
        >
        E 0 90 34 60
        E 401 80 34 00
        <X 1994 0
          /wVh
        >
        E 0 90 2f 60
        E 213 80 2f 00
        <X 53 0
          /wUr
        >
        E 0 90 32 60
        E 175 80 32 00
        <X 41 0
          /wUr
        >
        E 0 90 2f 60
        E 116 80 2f 00
        <X 345 0
          /wVhaA==
        >
        E 0 90 2f 60
        E 261 80 2f 00
        <X 65 0
          /wUr
        >
        E 0 90 32 60
        E 161 80 32 00
        <X 40 0
          /wUr
        >
        E 0 90 34 60
        E 169 80 34 00
        <X 480 0
          /wFbaWRsZV9yZWFsdGltZV0=
        >
        E 1338 80 69 00
        E 2106 b0 7b 00
        GUID {C9A1A4CA-4224-4672-91C0-075BEB2A8650}
        IGNTEMPO 0 120.00000000 4 4
        SRCCOLOR 70
        VELLANE 132 128 128
        COLORMAP "C:\Users\me\AppData\Roaming\REAPER\Data\color_maps\rockband_vox-other.png"
        TEXTSTRINGFILE "Text Events List.txt"
        CFGEDITVIEW 175502.129543 138.011176 0 12 0 0 0
        CFGEDIT 1 1 0 0 1 1 1 1 1 0 1 0.06250000 75 0 1611 691 1 2 1 2 0.00000000 0 0 0 0 0.500000 1 0 1.000000 64
        KEYSNAP 0 0 "102034050607" 0 "Major"
        EVTFILTER 0 -1 -1 -1 -1 0 1 0 0 -1.00000000 -1.00000000
      >
    >
  >
  <TRACK '{4CF2C10D-06A3-401A-A77E-8708083EA692}'
    NAME "vocals"
    PEAKCOL 16576
    BEAT -1
    AUTOMODE 0
    VOLPAN 1.00000000000000 0.00000000000000 -1.00000000000000 -1.00000000000000 1.00000000000000
    MUTESOLO 0 0 0
    IPHASE 0
    ISBUS 0 0
    BUSCOMP 0 0
    SHOWINMIX 1 0.666700 0.500000 1 0.500000 -1 -1 -1
    FREEMODE 0
    SEL 0
    REC 0 0 0 0 0 0 0
    VU 2
    TRACKHEIGHT 42 0
    INQ 0 0 0 0.5000000000 100 0 0 100
    NCHAN 2
    FX 1
    TRACKID {4CF2C10D-06A3-401A-A77E-8708083EA692}
    PERF 0
    MIDIOUT -1
    MAINSEND 1 0
    <ITEM
      POSITION 0.00000000000000
      SNAPOFFS 0.00000000000000
      LENGTH 194.51206349206350
      LOOP 0
      ALLTAKES 0
      SEL 0
      FADEIN 1 0.000000 0.000000 1 0
      FADEOUT 1 0.000000 0.000000 1 0
      MUTE 0
      IGUID {D20B5A95-B37E-455E-B422-1EE5BCDC389C}
      IID 90
      NAME "vocals.wav"
      VOLPAN 1.000000 0.000000 1.000000 -1.000000
      SOFFS 0.00000000000000
      PLAYRATE 1.00000000000000 1 0.00000000000000 -1
      CHANMODE 0
      GUID {033B2D29-BCF3-4C8A-8F5D-901933DD30D9}
      <SOURCE WAVE
        FILE "vocals.wav"
      >
    >
  >
  <TRACK '{B2B25349-B4EC-4C06-9030-10533BA579C1}'
    NAME "01 Juhlat mulle-vocals-E minor-132bpm-440hz"
    PEAKCOL 16576
    BEAT -1
    AUTOMODE 0
    VOLPAN 1.00000000000000 0.00000000000000 -1.00000000000000 -1.00000000000000 1.00000000000000
    MUTESOLO 0 0 0
    IPHASE 0
    ISBUS 0 0
    BUSCOMP 0 0
    SHOWINMIX 1 0.666700 0.500000 1 0.500000 -1 -1 -1
    FREEMODE 0
    SEL 0
    REC 0 0 0 0 0 0 0
    VU 2
    TRACKHEIGHT 30 0
    INQ 0 0 0 0.5000000000 100 0 0 100
    NCHAN 2
    FX 1
    TRACKID {B2B25349-B4EC-4C06-9030-10533BA579C1}
    PERF 0
    MIDIOUT -1
    MAINSEND 1 0
    <ITEM
      POSITION 1.74049734330088
      SNAPOFFS 0.00000000000000
      LENGTH 192.78471655328798
      LOOP 0
      ALLTAKES 0
      SEL 0
      FADEIN 1 0.000000 0.000000 1 0
      FADEOUT 1 0.000000 0.000000 1 0
      MUTE 0
      IGUID {271C6B4A-EA27-414C-8BD5-0616CA67FE21}
      IID 107
      NAME "01 Juhlat mulle-vocals-E minor-132bpm-440hz.mp3"
      VOLPAN 1.000000 0.000000 1.000000 -1.000000
      SOFFS 0.00000000000000
      PLAYRATE 1.00000000000000 1 0.00000000000000 -1
      CHANMODE 0
      GUID {EB2D8863-9CDF-4151-A0C6-E60013C93A77}
      <SOURCE MP3
        FILE "F:\01 Juhlat mulle-vocals-E minor-132bpm-440hz.mp3" 1
      >
    >
  >
  <TRACK '{7B6BDA93-139B-488E-8882-F99DA4001EBA}'
    NAME "vocals - vocals"
    PEAKCOL 16576
    BEAT -1
    AUTOMODE 0
    VOLPAN 1.00000000000000 0.00000000000000 -1.00000000000000 -1.00000000000000 1.00000000000000
    MUTESOLO 0 0 0
    IPHASE 0
    ISBUS 0 0
    BUSCOMP 0 0
    SHOWINMIX 1 0.666700 0.500000 1 0.500000 -1 -1 -1
    FREEMODE 0
    SEL 0
    REC 0 0 0 0 0 0 0
    VU 2
    TRACKHEIGHT 33 0
    INQ 0 0 0 0.5000000000 100 0 0 100
    NCHAN 2
    FX 1
    TRACKID {7B6BDA93-139B-488E-8882-F99DA4001EBA}
    PERF 0
    MIDIOUT -1
    MAINSEND 1 0
    <ITEM
      POSITION 0.00000000000000
      SNAPOFFS 0.00000000000000
      LENGTH 96.35090600779419
      LOOP 0
      ALLTAKES 0
      SEL 0
      FADEIN 1 0.000000 0.000000 1 0
      FADEOUT 1 0.000000 0.000000 1 0
      MUTE 0
      IGUID {C30C9474-3FA0-495B-807D-8A5946297E06}
      IID 91
      NAME "vocals - vocals.mid"
      VOLPAN 1.000000 0.000000 1.000000 -1.000000
      SOFFS 0.00000000000000 0.00000000000000
      PLAYRATE 1.00000000000000 1 0.00000000000000 -1
      CHANMODE 0
      GUID {BC72819B-54B8-490E-8F20-EAF7D0A2835F}
      <SOURCE MIDI
        HASDATA 1 1920 QN
        POOLEDEVTS {0775DFDF-72B0-4C30-9B3A-D0A2E4FF22E1}
        <X 0 0
          /wN2b2NhbHM=
        >
        e 17271 90 37 6c
        e 1405 80 37 00
        E 0 90 39 66
        E 508 80 39 00
        E 0 90 39 4b
        E 494 80 39 00
        E 17 90 37 4a
        E 1431 80 37 00
        E 0 90 37 6c
        E 528 80 37 00
        E 0 90 37 53
        E 434 80 37 00
        E 0 90 37 61
        E 457 80 37 00
        E 0 90 39 62
        E 939 80 39 00
        E 0 90 37 51
        E 784 80 37 00
        E 710 90 37 65
        E 511 90 36 51
        E 240 80 36 00
        E 129 80 37 00
        E 0 90 37 57
        E 538 80 37 00
        E 0 90 37 55
        E 241 80 37 00
        E 0 90 39 5c
        E 684 80 39 00
        E 19 90 37 5e
        E 941 80 37 00
        E 37 90 36 69
        E 992 80 36 00
        E 0 90 36 5e
        E 481 80 36 00
        E 0 90 34 4e
        E 462 80 34 00
        E 5 90 36 4d
        E 349 80 36 00
        E 6 90 37 5d
        E 1312 80 37 00
        E 700 90 37 5e
        E 878 80 37 00
        E 0 90 37 66
        E 737 80 37 00
        E 0 90 39 50
        E 278 80 39 00
        E 0 90 39 5f
        E 566 80 39 00
        E 0 90 37 51
        E 1152 80 37 00
        E 0 90 37 64
        E 732 80 37 00
        E 0 90 37 50
        E 472 80 37 00
        E 0 90 37 68
        E 452 80 37 00
        E 0 90 39 53
        E 506 80 39 00
        E 0 90 39 68
        E 441 80 39 00
        E 68 90 36 4e
        E 671 80 36 00
        E 651 90 37 59
        E 555 80 37 00
        E 0 90 37 67
        E 959 80 37 00
        E 0 90 37 61
        E 492 80 37 00
        E 6 90 39 57
        E 456 80 39 00
        E 0 90 38 63
        E 777 80 38 00
        E 0 90 36 59
        E 1214 80 36 00
        E 0 90 36 62
        E 429 80 36 00
        E 0 90 34 5f
        E 492 80 34 00
        E 0 90 36 4b
        E 481 80 36 00
        E 5 90 37 65
        E 921 80 37 00
        E 0 90 37 6b
        E 383 80 37 00
        E 0 90 3e 58
        E 587 80 3e 00
        E 0 90 3e 5b
        E 442 80 3e 00
        E 36 90 3b 51
        E 462 80 3b 00
        E 0 90 3b 5a
        E 467 80 3b 00
        E 67 90 39 67
        E 892 80 39 00
        E 82 90 3a 59
        E 1049 80 3a 00
        E 0 90 3e 5a
        E 362 80 3e 00
        E 0 90 3e 52
        E 470 80 3e 00
        E 6 90 3b 5c
        E 979 80 3b 00
        E 0 90 39 52
        E 442 80 39 00
        E 0 90 3b 5b
        E 1390 80 3b 00
        E 0 90 3b 53
        E 528 80 3b 00
        E 6 90 3e 6b
        E 418 80 3e 00
        E 0 90 3b 58
        E 556 80 3b 00
        E 0 90 3b 61
        E 487 80 3b 00
        E 0 90 39 5f
        E 1453 80 39 00
        E 6 90 37 5c
        E 432 80 37 00
        E 5 90 39 65
        E 511 80 39 00
        E 0 90 39 60
        E 997 80 39 00
        E 0 90 3b 5c
        E 680 80 3b 00
        E 0 90 36 5c
        E 2141 80 36 00
        E 5 90 2b 72
        E 561 80 2b 00
        E 0 90 37 6b
        E 834 80 37 00
        E 0 90 39 68
        E 523 80 39 00
        E 0 90 39 52
        E 513 80 39 00
        E 5 90 36 6a
        E 618 80 36 00
        E 0 90 39 33
        E 746 80 39 00
        E 44 90 37 6e
        E 494 80 37 00
        E 0 90 37 5e
        E 422 80 37 00
        E 0 90 37 67
        E 472 80 37 00
        E 0 90 39 68
        E 1024 80 39 00
        E 0 90 37 62
        E 934 80 37 00
        E 13 90 39 6b
        E 458 80 39 00
        E 0 90 39 6d
        E 506 80 39 00
        E 0 90 39 5c
        E 461 90 3b 60
        E 363 80 3b 00
        E 143 80 39 00
        E 0 90 39 56
        E 452 80 39 00
        E 36 90 37 5e
        E 446 80 37 00
        E 0 90 36 5d
        E 1102 80 36 00
        E 0 90 39 69
        E 1068 80 39 00
        E 0 90 3e 52
        E 1643 80 3e 00
        E 5 90 43 70
        E 399 80 43 00
        E 0 90 42 6c
        E 627 80 42 00
        E 0 90 40 6c
        E 782 80 40 00
        E 0 90 40 67
        E 663 80 40 00
        E 0 90 3f 5e
        E 424 80 3f 00
        E 0 90 40 6a
        E 1701 80 40 00
        E 0 90 40 49
        E 275 80 40 00
        E 0 90 40 3a
        E 315 80 40 00
        E 137 90 43 67
        E 388 80 43 00
        E 0 90 43 5b
        E 585 80 43 00
        E 5 90 45 6d
        E 434 80 45 00
        E 0 90 43 62
        E 335 80 43 00
        E 174 90 42 6a
        E 457 80 42 00
        E 0 90 40 57
        E 457 80 40 00
        E 18 90 3e 6d
        E 510 80 3e 00
        E 0 90 3e 6c
        E 1449 80 3e 00
        E 0 90 3e 68
        E 304 80 3e 00
        E 0 90 40 6d
        E 617 80 40 00
        E 0 90 42 72
        E 510 80 42 00
        E 0 90 42 6f
        E 2174 80 42 00
        E 0 90 42 3d
        E 733 80 42 00
        E 5 90 3b 65
        E 955 80 3b 00
        E 16 90 43 69
        E 482 80 43 00
        E 5 90 42 63
        E 299 80 42 00
        E 153 90 40 66
        E 840 80 40 00
        E 0 90 40 62
        E 1135 80 40 00
        E 0 90 40 60
        E 2314 80 40 00
        E 5 90 43 68
        E 959 80 43 00
        E 5 90 45 6d
        E 444 80 45 00
        E 0 90 45 66
        E 377 80 45 00
        E 144 90 42 6f
        E 512 80 42 00
        E 0 90 40 61
        E 458 80 40 00
        E 5 90 3e 5f
        E 434 80 3e 00
        E 0 90 3e 63
        E 1447 80 3e 00
        E 70 90 40 6b
        E 869 80 40 00
        E 0 90 42 63
        E 425 80 42 00
        E 0 90 42 6f
        E 3363 80 42 00
        E 0 90 42 31
        E 1434 80 42 00
        E 53 90 47 58
        E 995 80 47 00
        E 0 90 47 5f
        E 489 80 47 00
        E 12 90 45 6f
        E 929 80 45 00
        E 21 90 47 70
        E 389 80 47 00
        E 0 90 40 69
        E 1814 80 40 00
        E 0 90 40 66
        E 669 80 40 00
        E 6 90 42 6a
        E 964 80 42 00
        E 5 90 40 67
        E 467 80 40 00
        E 5 90 42 57
        E 446 80 42 00
        E 16 90 43 69
        E 943 80 43 00
        E 16 90 45 65
        E 490 80 45 00
        E 0 90 45 59
        E 476 80 45 00
        E 5 90 43 73
        E 762 80 43 00
        E 0 90 43 6b
        E 572 80 43 00
        E 0 90 3e 6a
        E 2294 80 3e 00
        E 216 90 36 34
        E 276 80 36 00
        E 0 90 3e 27
        E 489 80 3e 00
        E 657 90 43 68
        E 440 80 43 00
        E 0 90 42 6e
        E 496 80 42 00
        E 0 90 40 6b
        E 697 80 40 00
        E 0 90 40 67
        E 3194 80 40 00
        E 0 90 40 39
        E 324 80 40 00
        E 144 90 43 67
        E 456 80 43 00
        E 0 90 43 60
        E 516 80 43 00
        E 5 90 45 6c
        E 440 80 45 00
        E 0 90 43 62
        E 314 80 43 00
        E 197 90 42 6b
        E 501 80 42 00
        E 0 90 40 55
        E 420 80 40 00
        E 5 90 3e 7a
        E 419 80 3e 00
        E 0 90 40 69
        E 350 80 40 00
        E 0 90 42 6f
        E 1964 80 42 00
        E 0 90 42 3c
        E 527 80 42 00
        E 0 90 3e 63
        E 610 80 3e 00
        E 0 90 3e 57
        E 463 80 3e 00
        E 48 90 42 64
        E 467 80 42 00
        E 0 90 42 6b
        E 931 80 42 00
        E 0 90 42 70
        E 934 80 42 00
        E 0 90 43 64
        E 506 80 43 00
        E 18 90 42 69
        E 443 80 42 00
        E 0 90 40 5f
        E 505 80 40 00
        E 0 90 40 67
        E 4078 80 40 00
        E 0 90 40 2a
        E 885 80 40 00
        E 0 90 40 21
        E 424 80 40 00
        E 2052 90 31 32
        E 617 80 31 00
        E 6 90 34 1a
        E 395 80 34 00
        E 3023 90 3b 6d
        E 525 80 3b 00
        E 0 90 3e 5e
        E 651 80 3e 00
        E 0 90 45 5c
        E 945 80 45 00
        E 0 90 47 61
        E 1662 80 47 00
        E 0 90 40 5b
        E 4371 80 40 00
        E 0 90 40 55
        E 972 80 40 00
        E 0 90 40 62
        E 283 80 40 00
        E 0 90 40 24
        E 649 80 40 00
        E 0 90 40 63
        E 299 80 40 00
        E 0 90 40 1c
        E 317 80 40 00
        E 824 90 3e 33
        E 699 80 3e 00
        E 7000 90 37 61
        E 533 80 37 00
        E 0 90 37 6b
        E 450 80 37 00
        E 0 90 37 66
        E 468 80 37 00
        E 5 90 39 66
        E 995 80 39 00
        E 44 90 37 5a
        E 598 80 37 00
        E 814 90 37 68
        E 940 80 37 00
        E 0 90 37 68
        E 433 80 37 00
        E 0 90 3a 64
        E 481 80 3a 00
        E 38 90 39 55
        E 510 80 39 00
        E 0 90 36 4b
        E 1328 80 36 00
        E 6 90 37 64
        E 539 80 37 00
        E 0 90 37 6c
        E 460 80 37 00
        E 0 90 37 67
        E 467 80 37 00
        E 0 90 37 56
        E 472 80 37 00
        E 59 90 39 61
        E 498 80 39 00
        E 0 90 37 64
        E 400 80 37 00
        E 0 90 36 5c
        E 590 80 36 00
        E 0 90 36 6a
        E 444 80 36 00
        E 0 90 36 60
        E 919 80 36 00
        E 49 90 34 61
        E 463 80 34 00
        E 44 90 36 6a
        E 389 80 36 00
        E 5 90 37 59
        E 549 80 37 00
        E 0 90 37 4b
        E 1452 80 37 00
        E 0 90 37 53
        E 442 80 37 00
        E 0 90 37 5c
        E 429 80 37 00
        E 0 90 37 70
        E 413 80 37 00
        E 77 90 39 65
        E 557 80 39 00
        E 0 90 39 60
        E 416 80 39 00
        E 0 90 37 50
        E 756 80 37 00
        E 0 90 39 1d
        E 262 80 39 00
        E 333 90 37 63
        E 599 80 37 00
        E 0 90 37 5e
        E 453 80 37 00
        E 0 90 37 5f
        E 509 80 37 00
        E 0 90 37 6b
        E 451 80 37 00
        E 44 90 3a 58
        E 472 80 3a 00
        E 5 90 37 4b
        E 1410 80 37 00
        E 0 90 37 6f
        E 452 80 37 00
        E 0 90 37 4e
        E 536 80 37 00
        E 0 90 37 5f
        E 472 80 37 00
        E 0 90 37 61
        E 474 80 37 00
        E 36 90 39 64
        E 394 80 39 00
        E 0 90 37 5a
        E 984 80 37 00
        E 0 90 36 5b
        E 480 80 36 00
        E 0 90 36 5f
        E 458 80 36 00
        E 61 90 34 67
        E 941 80 34 00
        E 0 90 36 69
        E 959 80 36 00
        E 0 90 36 69
        E 330 80 36 00
        E 0 90 37 6b
        E 832 80 37 00
        E 0 90 3e 55
        E 307 80 3e 00
        E 0 90 3e 57
        E 425 80 3e 00
        E 5 90 3b 53
        E 512 80 3b 00
        E 0 90 3b 63
        E 447 80 3b 00
        E 48 90 39 6b
        E 854 80 39 00
        E 81 90 3b 55
        E 462 80 3b 00
        E 0 90 3a 62
        E 376 80 3a 00
        E 110 90 3c 6d
        E 181 80 3c 00
        E 0 90 3e 51
        E 798 80 3e 00
        E 6 90 3b 63
        E 797 80 3b 00
        E 167 90 39 60
        E 394 80 39 00
        E 76 90 3b 5e
        E 1376 80 3b 00
        E 6 90 39 69
        E 493 80 39 00
        E 0 90 39 6e
        E 1057 80 39 00
        E 0 90 3b 5a
        E 566 80 3b 00
        E 0 90 39 5a
        E 303 80 39 00
        E 62 90 38 49
        E 442 80 38 00
        E 5 90 36 64
        E 458 80 36 00
        E 6 90 37 5a
        E 457 80 37 00
        E 0 90 39 60
        E 2348 80 39 00
        E 6 90 3b 6b
        E 552 80 3b 00
        E 5 90 43 6f
        E 388 80 43 00
        E 0 90 42 70
        E 330 80 42 00
        E 0 90 36 69
        E 272 80 36 00
        E 0 90 40 6a
        E 721 80 40 00
        E 0 90 40 6b
        E 739 80 40 00
        E 0 90 40 6a
        E 2122 90 39 4d
        E 297 80 39 00
        E 139 80 40 00
        E 0 90 40 39
        E 164 80 40 00
        E 139 90 43 67
        E 464 80 43 00
        E 0 90 43 5f
        E 515 80 43 00
        E 0 90 45 6b
        E 437 80 45 00
        E 0 90 43 5d
        E 341 80 43 00
        E 140 90 42 6b
        E 472 80 42 00
        E 0 90 40 5c
        E 370 80 40 00
        E 116 90 3e 69
        E 502 80 3e 00
        E 0 90 3e 6e
        E 1456 80 3e 00
        E 0 90 3e 68
        E 303 80 3e 00
        E 0 90 40 6d
        E 631 80 40 00
        E 0 90 42 6d
        E 466 80 42 00
        E 0 90 42 72
        E 1952 80 42 00
        E 0 90 42 39
        E 744 80 42 00
        E 0 90 3b 63
        E 1178 80 3b 00
        E 9 90 43 6d
        E 388 80 43 00
        E 0 90 42 60
        E 399 80 42 00
        E 158 90 40 69
        E 1181 80 40 00
        E 0 90 40 66
        E 317 80 40 00
        E 0 90 40 67
        E 2638 80 40 00
        E 0 90 43 67
        E 1113 80 43 00
        E 5 90 45 70
        E 374 80 45 00
        E 0 90 44 68
        E 492 80 44 00
        E 135 90 42 6e
        E 491 80 42 00
        E 0 90 40 62
        E 454 80 40 00
        E 6 90 3e 62
        E 436 80 3e 00
        E 0 90 3e 62
        E 1422 80 3e 00
        E 5 90 40 6b
        E 972 80 40 00
        E 43 90 42 64
        E 467 80 42 00
        E 0 90 42 6e
        E 2672 80 42 00
        E 0 90 42 3e
        E 2004 80 42 00
        E 48 90 47 5d
        E 882 80 47 00
        E 0 90 47 57
        E 616 80 47 00
        E 17 90 45 6d
        E 938 80 45 00
        E 20 90 47 6c
        E 477 80 47 00
        E 6 90 40 6b
        E 1416 90 2d 45
        E 279 80 40 00
        E 0 80 2d 00
        E 0 90 40 67
        E 701 80 40 00
        E 5 90 42 69
        E 926 80 42 00
        E 0 90 40 68
        E 520 80 40 00
        E 0 90 42 55
        E 464 80 42 00
        E 11 90 43 68
        E 469 80 43 00
        E 5 90 45 61
        E 478 80 45 00
        E 0 90 45 68
        E 454 80 45 00
        E 0 90 45 58
        E 512 80 45 00
        E 5 90 43 6f
        E 692 80 43 00
        E 5 90 42 69
        E 630 80 42 00
        E 0 90 3e 6a
        E 2162 80 3e 00
        E 1166 90 3e 5a
        E 629 80 3e 00
        E 5 90 43 68
        E 441 80 43 00
        E 6 90 42 6c
        E 483 80 42 00
        E 0 90 40 67
        E 1561 90 3e 62
        E 339 80 40 00
        E 0 80 3e 00
        E 0 90 40 66
        E 2324 80 40 00
        E 115 90 43 68
        E 458 80 43 00
        E 0 90 43 5e
        E 529 80 43 00
        E 5 90 45 6d
        E 415 80 45 00
        E 0 90 43 62
        E 363 80 43 00
        E 153 90 42 6d
        E 477 80 42 00
        E 0 90 40 53
        E 446 80 40 00
        E 19 90 3e 6d
        E 384 80 3e 00
        E 0 90 42 6d
        E 2089 80 42 00
        E 0 90 42 38
        E 797 80 42 00
        E 0 90 3e 60
        E 587 80 3e 00
        E 0 90 3e 60
        E 433 80 3e 00
        E 5 90 42 68
        E 1470 80 42 00
        E 0 90 42 6a
        E 581 80 42 00
        E 87 90 36 3d
        E 294 80 36 00
        E 0 90 36 2c
        E 348 80 36 00
        E 0 90 40 67
        E 537 80 40 00
        E 0 90 40 69
        E 377 80 40 00
        E 0 90 45 66
        E 413 80 45 00
        E 0 90 47 65
        E 670 80 47 00
        E 33 90 4a 62
        E 371 80 4a 00
        E 0 90 43 65
        E 1589 80 43 00
        E 0 90 43 66
        E 871 80 43 00
        E 53 90 42 4a
        E 952 80 42 00
        E 0 90 42 6a
        E 566 80 42 00
        E 0 90 3e 64
        E 2109 80 3e 00
        E 0 90 3e 2c
        E 248 80 3e 00
        E 8 90 47 50
        E 927 80 47 00
        E 5 90 4a 68
        E 425 80 4a 00
        E 6 90 43 63
        E 1478 80 43 00
        E 0 90 43 65
        E 973 80 43 00
        E 6 90 42 65
        E 482 80 42 00
        E 0 90 3e 6f
        E 1025 80 3e 00
        E 0 90 45 6a
        E 531 80 45 00
        E 398 90 43 52
        E 1346 80 43 00
        E 6 90 47 6b
        E 980 80 47 00
        E 21 90 4a 62
        E 420 80 4a 00
        E 65 90 43 60
        E 1431 80 43 00
        E 0 90 43 69
        E 534 80 43 00
        E 0 90 43 5f
        E 1375 80 43 00
        E 0 90 43 65
        E 497 80 43 00
        E 0 90 3e 4d
        E 2404 80 3e 00
        E 8 90 47 6e
        E 491 80 47 00
        E 0 90 4a 65
        E 955 80 4a 00
        E 6 90 43 58
        E 2027 80 43 00
        E 90 90 42 54
        E 725 80 42 00
        E 11 90 3e 69
        E 1001 80 3e 00
        E 0 90 44 68
        E 307 80 44 00
        E 0 90 45 70
        E 587 80 45 00
        E 0 90 43 62
        E 2058 80 43 00
        E 0 90 43 3e
        E 164 80 43 00
        E 0 90 3a 29
        E 1568 80 3a 00
        E 5 90 3b 68
        E 517 80 3b 00
        E 6 90 43 6a
        E 1011 80 43 00
        E 0 90 40 6c
        E 769 80 40 00
        E 0 90 40 68
        E 650 80 40 00
        E 0 90 3e 64
        E 469 80 3e 00
        E 0 90 40 69
        E 1934 80 40 00
        E 0 90 40 37
        E 285 80 40 00
        E 0 90 43 69
        E 684 80 43 00
        E 0 90 43 60
        E 526 80 43 00
        E 0 90 45 69
        E 462 80 45 00
        E 0 90 43 54
        E 318 80 43 00
        E 149 90 42 67
        E 473 80 42 00
        E 0 90 40 52
        E 469 80 40 00
        E 5 90 3e 6c
        E 506 80 3e 00
        E 0 90 3e 6e
        E 1352 80 3e 00
        E 0 90 3e 62
        E 395 80 3e 00
        E 0 90 40 6d
        E 616 80 40 00
        E 0 90 42 74
        E 356 80 42 00
        E 0 90 42 70
        E 1959 80 42 00
        E 0 90 42 3d
        E 989 80 42 00
        E 6 90 3b 67
        E 1054 80 3b 00
        E 6 90 43 6c
        E 369 80 43 00
        E 0 90 42 62
        E 407 80 42 00
        E 191 90 40 68
        E 802 80 40 00
        E 0 90 40 69
        E 577 80 40 00
        E 0 90 3e 5e
        E 458 80 3e 00
        E 0 90 40 69
        E 2265 80 40 00
        E 0 90 43 68
        E 1110 80 43 00
        E 6 90 45 72
        E 349 80 45 00
        E 0 90 45 67
        E 509 80 45 00
        E 123 90 42 71
        E 462 80 42 00
        E 0 90 40 5f
        E 478 80 40 00
        E 6 90 3e 5d
        E 515 80 3e 00
        E 0 90 3e 61
        E 1359 80 3e 00
        E 0 90 3e 70
        E 359 80 3e 00
        E 0 90 40 67
        E 591 80 40 00
        E 43 90 42 5f
        E 422 80 42 00
        E 0 90 42 68
        E 4666 80 42 00
        E 0 90 47 63
        E 697 80 47 00
        E 0 90 43 36
        E 415 80 43 00
        E 13 90 47 61
        E 505 80 47 00
        E 9 90 45 6b
        E 958 80 45 00
        E 6 90 47 6e
        E 366 80 47 00
        E 124 90 40 6c
        E 2336 80 40 00
        E 5 90 42 6b
        E 828 80 42 00
        E 0 90 40 61
        E 609 80 40 00
        E 0 90 42 52
        E 462 80 42 00
        E 18 90 43 6b
        E 806 80 43 00
        E 0 90 45 62
        E 637 80 45 00
        E 0 90 45 5c
        E 476 80 45 00
        E 5 90 43 72
        E 669 80 43 00
        E 5 90 42 68
        E 711 80 42 00
        E 0 90 3e 6c
        E 2155 80 3e 00
        E 1789 90 43 69
        E 421 80 43 00
        E 0 90 42 6a
        E 460 80 42 00
        E 0 90 40 69
        E 803 80 40 00
        E 0 90 40 64
        E 3481 80 40 00
        E 129 90 43 65
        E 431 80 43 00
        E 0 90 43 62
        E 530 80 43 00
        E 5 90 45 68
        E 776 80 45 00
        E 142 90 42 6c
        E 486 80 42 00
        E 0 90 40 5b
        E 445 80 40 00
        E 28 90 3e 7d
        E 397 80 3e 00
        E 133 90 41 69
        E 258 80 41 00
        E 0 90 42 6a
        E 2441 80 42 00
        E 0 90 3e 58
        E 649 80 3e 00
        E 0 90 3e 5e
        E 428 80 3e 00
        E 43 90 42 66
        E 466 80 42 00
        E 0 90 42 6c
        E 2350 80 42 00
        E 0 90 3e 65
        E 536 80 3e 00
        E 0 90 40 5e
        E 452 80 40 00
        E 0 90 40 67
        E 3487 80 40 00
        E 0 90 40 24
        E 702 80 40 00
        E 0 90 40 69
        E 645 80 40 00
        E 0 90 24 6b
        E 832 80 24 00
        E 0 90 40 29
        E 486 80 40 00
        E 669 90 40 26
        E 341 80 40 00
        E 0 90 40 60
        E 1471 80 40 00
        E 0 90 40 1f
        E 182 80 40 00
        E 0 90 40 1e
        E 1648 80 40 00
        E 6 90 3d 4d
        E 444 80 3d 00
        E 5 90 3f 53
        E 504 80 3f 00
        E 5 90 42 6a
        E 2993 80 42 00
        E 0 90 42 62
        E 516 80 42 00
        E 0 90 43 5f
        E 460 80 43 00
        E 0 90 40 68
        E 3496 80 40 00
        E 0 90 40 42
        E 1003 80 40 00
        E 875 90 40 28
        E 265 80 40 00
        E 4747 90 40 1d
        E 553 80 40 00
        E 1525 90 3b 70
        E 525 80 3b 00
        E 0 90 3e 67
        E 456 80 3e 00
        E 0 90 3b 4c
        E 912 80 3b 00
        E 0 90 3b 6c
        E 534 80 3b 00
        E 0 90 3e 63
        E 489 80 3e 00
        E 0 90 40 45
        E 1026 80 40 00
        E 1825 b0 7b 00
        GUID {B89A1AFD-863E-485E-9EF9-7EB5D8519872}
        IGNTEMPO 0 120.00000000 4 4
        SRCCOLOR 87
        VELLANE 132 38 60
        COLORMAP "C:\Program Files\REAPER (x64)\REAPER\Data\color_maps\rockband_guitarbass.png"
        CFGEDITVIEW 59313.859006 410.395659 53 12 0 0 0
        CFGEDIT 1 1 0 1 0 0 1 1 1 1 1 0.12500000 -8 -8 1370 736 1 0 1 0 0.00000000 0 0 0 0 0.500000 0 0 1.000000 64
        KEYSNAP 0 11 "102304056070" 0 "Natural minor"
        EVTFILTER 0 -1 -1 -1 -1 0 1 0 0 -1.00000000 -1.00000000
      >
    >
  >
  <TRACK '{E60BCF67-80FD-4554-840A-5B0B5C2E06A0}'
    NAME "HARM1"
    PEAKCOL 24624127
    BEAT -1
    AUTOMODE 0
    VOLPAN 1.00000000000000 0.00000000000000 -1.00000000000000 -1.00000000000000 1.00000000000000
    MUTESOLO 0 0 0
    IPHASE 0
    ISBUS 0 0
    BUSCOMP 0 0
    SHOWINMIX 1 0.666700 0.500000 1 0.500000 -1 -1 -1
    FREEMODE 0
    SEL 0
    REC 0 0 0 0 0 0 0
    TRACKHEIGHT 0 0
    INQ 0 0 0 0.5000000000 100 0 0 100
    NCHAN 2
    FX 1
    TRACKID {E60BCF67-80FD-4554-840A-5B0B5C2E06A0}
    PERF 0
    MIDIOUT -1
    <MIDINOTENAMES
      0 0 "Range Shift"
      0 1 "Lyric Shift"
      0 36 "C1"
      0 37 "C#"
      0 38 "D"
      0 39 "Eb"
      0 40 "E"
      0 41 "F"
      0 42 "F#"
      0 43 "G"
      0 44 "G#"
      0 45 "A"
      0 46 "Bb"
      0 47 "B"
      0 48 "C2"
      0 49 "C#"
      0 50 "D"
      0 51 "Eb"
      0 52 "E"
      0 53 "F"
      0 54 "F#"
      0 55 "G"
      0 56 "G#"
      0 57 "A"
      0 58 "Bb"
      0 59 "B"
      0 60 "C3"
      0 61 "C#"
      0 62 "D"
      0 63 "Eb"
      0 64 "E"
      0 65 "F"
      0 66 "F#"
      0 67 "G"
      0 68 "G#"
      0 69 "A"
      0 70 "Bb"
      0 71 "B"
      0 72 "C4"
      0 73 "C#"
      0 74 "D"
      0 75 "Eb"
      0 76 "E"
      0 77 "F"
      0 78 "F#"
      0 79 "G"
      0 80 "G#"
      0 81 "A"
      0 82 "Bb"
      0 83 "B"
      0 105 "Phrase Marker"
      0 116 "OVERDRIVE"
      0 115 "----"
      0 104 "----"
      0 97 "Not Displayed Percussion"
      0 96 "Displayed Percussion"
      0 95 "----"
      0 84 "C5"
    >
    MAINSEND 1 0
    <FXCHAIN
      WNDRECT 786 197 716 493
      SHOW 0
      LASTSEL 1
      DOCKED 0
      BYPASS 0 0
      <JS "IX/MIDI_Tool II" ""
        0.000000 85.000000 127.000000 0.000000 0.000000 0.000000 100.000000 0.000000 0.000000 127.000000 0.000000 0.000000 1.000000 0.000000 0.000000 - - - - - - - - - - - - - - - - - - - - - - - - - - - - - - - - - - - - - - - - - - - - - - - - - 
      >
      FLOATPOS 0 0 0 0
      FXID {2E79298C-F056-441C-A64B-722C2599E1AA}
      WAK 0
      BYPASS 0 0
      <VST "VSTi: ReaSynth (Cockos)" "reasynth.dll" 0 ""
        eXNlcu9e7f4AAAAAAgAAAAEAAAAAAAAAAgAAAAAAAAA4AAAAAAAAAA==
        AAAAAO++rd4N8K3eppvEOxe30ToAAAAAAAAAAAAAAACa9Q8/6WeIPQ==
        AAAAAAAAAD8AAIA/AAAAAAAAAD8AAAAAAAA=
      >
      FLOATPOS 0 0 0 0
      FXID {A391E59B-3475-47CA-9BDB-E03F3B8FF2C4}
      WAK 0
    >
    <ITEM
      POSITION 0.00000000000000
      SNAPOFFS 0.00000000000000
      LENGTH 194.50329003055458
      LOOP 0
      ALLTAKES 0
      SEL 0
      FADEIN 1 0.000000 0.000000 1 0
      FADEOUT 1 0.000000 0.000000 1 0
      MUTE 0
      IGUID {FE84F6DE-5A5E-43D1-BFBE-4632BD10F85F}
      IID 11
      NAME "HARM1 untitled MIDI item"
      VOLPAN 1.000000 0.000000 1.000000 -1.000000
      SOFFS 0.00000000000000 0.00000000000000
      PLAYRATE 1.00000000000000 1 0.00000000000000 -1
      CHANMODE 0
      GUID {188D8841-6EF7-4ADC-A9DC-A83C2882A63B}
      <SOURCE MIDI
        HASDATA 1 480 QN
        POOLEDEVTS {AC7EA400-011C-471B-9007-11D8A1655743}
        <X 0 0
          /wNIQVJNMQ==
        >
        <X 3840 0
          /wFbaWRsZV0=
        >
        <X 3840 0
          /wFbcGxheV0=
        >
        E 48 90 69 60
        <X 181 0
          /wVWw6Qt
        >
        E 0 90 2b 6c
        E 221 80 2b 00
        <X 30 0
          /wVsaWwt
        >
        E 0 90 2b 60
        E 180 80 2b 00
        <X 30 0
          /wVsw6Q=
        >
        E 0 90 2d 60
        E 180 80 2d 00
        <X 60 0
          /wV2w6Qt
        >
        E 0 90 2d 60
        E 210 80 2d 00
        <X 30 0
          /wVzeXQt
        >
        E 0 90 2d 60
        E 90 80 2d 00
        <X 172 0
          /wV0w6TDpA==
        >
        E 0 90 2b 60
        E 248 80 2b 00
        <X 465 0
          /wV0w6TDpA==
        >
        E 0 90 2b 60
        E 179 80 2b 00
        <X 93 0
          /wVrby0=
        >
        E 0 90 2b 60
        E 148 80 2b 00
        <X 75 0
          /wVrbw==
        >
        E 0 90 2b 60
        E 180 80 2b 00
        <X 71 0
          /wVlLQ==
        >
        E 0 90 2d 60
        E 186 80 2d 00
        <X 29 0
          /wVsw6Qt
        >
        E 0 90 2d 60
        E 235 80 2d 00
        <X 37 0
          /wVtw6Q=
        >
        E 0 90 2b 60
        E 176 80 2b 00
        E 225 80 69 00
        E 238 90 69 60
        <X 57 0
          /wVIb3Ut
        >
        E 0 90 2b 60
        E 215 80 2b 00
        <X 26 0
          /wVzdXQt
        >
        E 0 90 2a 60
        E 67 80 2a 00
        <X 159 0
          /wVraW4=
        >
        E 0 90 2b 60
        E 193 80 2b 00
        <X 49 0
          /wVraS0=
        >
        E 0 90 2b 60
        E 206 80 2b 00
        <X 23 0
          /wVyaXMt
        >
        E 0 90 2d 60
        E 171 80 2d 00
        <X 85 0
          /wV0w6TDpA==
        >
        E 0 90 2b 60
        E 397 80 2b 00
        <X 85 0
          /wVww6TDpA==
        >
        E 0 90 2a 60
        E 341 80 2a 00
        <X 35 0
          /wVvbg==
        >
        E 0 90 2a 60
        E 73 80 2a 00
        <X 42 0
          /wV0by0=
        >
        E 0 90 2a 60
        E 220 80 2a 00
        <X 35 0
          /wVzaQ==
        >
        E 0 90 28 60
        E 123 80 28 00
        <X 115 0
          /wVraS0=
        >
        E 0 90 2a 60
        E 104 80 2a 00
        <X 126 0
          /wVwZS0=
        >
        E 0 90 2b 60
        E 236 80 2b 00
        <X 31 0
          /wXDpA==
        >
        E 0 90 2b 60
        E 149 80 2b 00
        E 221 80 69 00
        E 151 90 69 60
        <X 150 0
          /wVKb24t
        >
        E 0 90 2b 60
        E 232 80 2b 00
        <X 25 0
          /wVuZS0=
        >
        E 0 90 2b 60
        E 60 80 2b 00
        <X 152 0
          /wVraW4=
        >
        E 0 90 2b 60
        E 183 80 2b 00
        <X 57 0
          /wVsw6RtLQ==
        >
        E 0 90 2b 60
        E 114 80 2b 00
        <X 13 0
          /wUr
        >
        E 0 90 2d 60
        E 71 80 2d 00
        <X 60 0
          /wVwaS0=
        >
        E 0 90 2d 60
        E 220 80 2d 00
        <X 32 0
          /wVtw6TDpG4=
        >
        E 0 90 2b 60
        E 350 80 2b 00
        <X 340 0
          /wVsby0=
        >
        E 0 90 2b 60
        E 181 80 2b 00
        <X 108 0
          /wVwdS0=
        >
        E 0 90 2b 60
        E 124 80 2b 00
        <X 88 0
          /wV0b24=
        >
        E 0 90 2b 60
        E 244 80 2b 00
        <X 45 0
          /wVpLQ==
        >
        E 0 90 2d 60
        E 112 80 2d 00
        <X 87 0
          /wVrw6Qt
        >
        E 0 90 2d 60
        E 155 80 2d 00
        <X 103 0
          /wV2w6Q=
        >
        E 0 90 2a 60
        E 134 80 2a 00
        E 176 80 69 00
        E 300 90 69 60
        E 0 90 74 60
        <X 64 0
          /wVObw==
        >
        E 0 90 2b 60
        E 87 80 2b 00
        <X 182 0
          /wV0w6Qt
        >
        E 0 90 2b 60
        E 200 80 2b 00
        <X 36 0
          /wVtw6Ru
        >
        E 0 90 2b 60
        E 186 80 2b 00
        <X 58 0
          /wVlLQ==
        >
        E 0 90 2b 60
        E 178 80 2b 00
        <X 32 0
          /wVuZW0t
        >
        E 0 90 2d 60
        E 203 80 2d 00
        <X 107 0
          /wVww6TDpA==
        >
        E 0 90 2c 60
        E 440 80 2c 00
        <X 91 0
          /wVlaQ==
        >
        E 0 90 2a 60
        E 91 80 2a 00
        <X 53 0
          /wVueXQ=
        >
        E 0 90 2a 60
        E 98 80 2a 00
        <X 150 0
          /wVhdS0=
        >
        E 0 90 2a 60
        E 176 80 2a 00
        <X 76 0
          /wV0YQ==
        >
        E 0 90 28 60
        E 90 80 28 00
        <X 64 0
          /wVyeS0=
        >
        E 0 90 2a 60
        E 171 80 2a 00
        <X 140 0
          /wVwZS0=
        >
        E 0 90 2b 60
        E 283 80 2b 00
        <X 33 0
          /wXDpA==
        >
        E 0 90 2b 60
        E 98 80 2b 00
        E 27 80 69 00
        E 0 80 74 00
        E 14 90 69 60
        <X 8 0
          /wVNw6Q=
        >
        E 0 90 2b 60
        E 168 80 2b 00
        <X 74 0
          /wVvLQ==
        >
        E 0 90 32 60
        E 135 80 32 00
        <X 105 0
          /wV0YW4=
        >
        E 0 90 32 60
        E 170 80 32 00
        <X 67 0
          /wVrdS0=
        >
        E 0 90 2f 60
        E 147 80 2f 00
        <X 96 0
          /wVwaW4=
        >
        E 0 90 2f 60
        E 182 80 2f 00
        <X 75 0
          /wVrYWgt
        >
        E 0 90 2d 60
        E 369 80 2d 00
        <X 124 0
          /wV2aWk=
        >
        E 0 90 2e 60
        E 405 80 2e 00
        <X 59 0
          /wVoZW4t
        >
        E 0 90 32 60
        E 213 80 32 00
        <X 27 0
          /wVnaXQt
        >
        E 0 90 32 60
        E 112 80 32 00
        <X 143 0
          /wV0ZS0=
        >
        E 0 90 2f 60
        E 165 80 2f 00
        <X 39 0
          /wVsZW4=
        >
        E 0 90 2f 60
        E 163 80 2f 00
        <X 79 0
          /wVzeS0=
        >
        E 0 90 2d 60
        E 193 80 2d 00
        <X 75 0
          /wV2w6TDpG4=
        >
        E 0 90 2f 60
        E 349 80 2f 00
        E 78 80 69 00
        E 200 90 69 60
        <X 69 0
          /wVNaS0=
        >
        E 0 90 2f 60
        E 166 80 2f 00
        <X 90 0
          /wV0w6Q=
        >
        E 0 90 32 60
        E 184 80 32 00
        <X 68 0
          /wVtdXUt
        >
        E 0 90 2f 60
        E 160 80 2f 00
        <X 61 0
          /wV0YQ==
        >
        E 0 90 2f 60
        E 151 80 2f 00
        <X 108 0
          /wV2b2lu
        >
        E 0 90 2d 60
        E 616 80 2d 00
        <X 111 0
          /wVrdW4=
        >
        E 0 90 2b 60
        E 189 80 2b 00
        <X 51 0
          /wVyw6Qt
        >
        E 0 90 2d 60
        E 148 80 2d 00
        <X 83 0
          /wVwZWwt
        >
        E 0 90 2d 60
        E 219 80 2d 00
        <X 28 0
          /wVsZWwt
        >
        E 0 90 2d 60
        E 238 80 2d 00
        <X 33 0
          /wVsw6Q=
        >
        E 0 90 2f 60
        E 141 80 2f 00
        <X 63 0
          /wVtZS0=
        >
        E 0 90 2f 60
        E 190 80 2f 00
        <X 39 0
          /wVuZS0=
        >
        E 0 90 2a 60
        E 207 80 2a 00
        <X 47 0
          /wVtw6TDpG4=
        >
        E 0 90 2a 60
        E 260 80 2a 00
        E 81 80 69 00
        E 142 90 69 60
        <X 233 0
          /wVWw6Qt
        >
        E 0 90 2b 60
        E 240 80 2b 00
        <X 36 0
          /wVsaWwt
        >
        E 0 90 2b 60
        E 152 80 2b 00
        <X 41 0
          /wVsw6Q=
        >
        E 0 90 2b 60
        E 164 80 2b 00
        <X 58 0
          /wV2w6Qt
        >
        E 0 90 2d 60
        E 189 80 2d 00
        <X 40 0
          /wVzeXQt
        >
        E 0 90 2d 60
        E 113 80 2d 00
        <X 174 0
          /wV0w6TDpA==
        >
        E 0 90 2a 60
        E 266 80 2a 00
        <X 30 0
          /wUr
        >
        E 0 90 2d 60
        E 108 80 2d 00
        <X 297 0
          /wV0w6TDpA==
        >
        E 0 90 2b 60
        E 155 80 2b 00
        <X 86 0
          /wVrby0=
        >
        E 0 90 2b 60
        E 154 80 2b 00
        <X 78 0
          /wVrbw==
        >
        E 0 90 2b 60
        E 172 80 2b 00
        <X 96 0
          /wVlLQ==
        >
        E 0 90 2d 60
        E 193 80 2d 00
        <X 30 0
          /wVsw6Qt
        >
        E 0 90 2d 60
        E 198 80 2d 00
        <X 41 0
          /wVtw6Q=
        >
        E 0 90 2b 60
        E 222 80 2b 00
        <X 46 0
          /wVNdXQ=
        >
        E 0 90 2b 60
        E 87 80 2b 00
        E 31 80 69 00
        E 73 90 69 60
        E 0 90 74 60
        <X 19 0
          /wV0w6Qt
        >
        E 0 90 2d 60
        E 187 80 2d 00
        <X 34 0
          /wVuw6TDpG4=
        >
        E 0 90 2d 60
        E 185 80 2d 00
        <X 75 0
          /wV0YWgt
        >
        E 0 90 2d 60
        E 183 80 2d 00
        <X 52 0
          /wVkb24=
        >
        E 0 90 2f 60
        E 170 80 2f 00
        <X 54 0
          /wVzaWwt
        >
        E 0 90 2d 60
        E 212 80 2d 00
        <X 51 0
          /wV0aQ==
        >
        E 0 90 2b 60
        E 236 80 2b 00
        <X 54 0
          /wVoeS0=
        >
        E 0 90 2a 60
        E 129 80 2a 00
        <X 34 0
          /wVteWlsLQ==
        >
        E 0 90 2a 60
        E 316 80 2a 00
        <X 40 0
          /wVsw6Q=
        >
        E 0 90 2d 60
        E 387 80 2d 00
        E 45 80 69 00
        E 0 80 74 00
        E 641 90 69 60
        <X 44 0
          /wVNw6Q=
        >
        E 0 90 32 60
        E 66 80 32 00
        <X 170 0
          /wVwaS0=
        >
        E 0 90 37 60
        E 191 80 37 00
        <X 32 0
          /wVkw6Ru
        >
        E 0 90 36 60
        E 226 80 36 00
        <X 94 0
          /wVqdWgt
        >
        E 0 90 34 60
        E 378 80 34 00
        <X 55 0
          /wVsYXQ=
        >
        E 0 90 34 60
        E 169 80 34 00
        <X 152 0
          /wVtdWwt
        >
        E 0 90 34 60
        E 603 80 34 00
        <X 41 0
          /wVsZQ==
        >
        E 0 90 34 60
        E 291 80 34 00
        E 117 80 69 00
        E 88 90 69 60
        <X 170 0
          /wVTZW4=
        >
        E 0 90 37 60
        E 193 80 37 00
        <X 74 0
          /wVrdW4t
        >
        E 0 90 37 60
        E 214 80 37 00
        <X 47 0
          /wVuaS0=
        >
        E 0 90 39 60
        E 265 80 39 00
        <X 52 0
          /wVhay0=
        >
        E 0 90 37 60
        E 91 80 37 00
        <X 33 0
          /wVzaQ==
        >
        E 0 90 36 60
        E 244 80 36 00
        <X 58 0
          /wVldC0=
        >
        E 0 90 36 60
        E 99 80 36 00
        <X 71 0
          /wV0w6Q=
        >
        E 0 90 32 60
        E 158 80 32 00
        <X 106 0
          /wV0w6TDpGwt
        >
        E 0 90 32 60
        E 427 80 32 00
        <X 50 0
          /wVsw6Q=
        >
        E 0 90 32 60
        E 175 80 32 00
        <X 78 0
          /wV2aWUt
        >
        E 0 90 32 60
        E 152 80 32 00
        <X 37 0
          /wUr
        >
        E 0 90 34 60
        E 225 80 34 00
        <X 52 0
          /wVsw6Q=
        >
        E 0 90 36 60
        E 171 80 36 00
        <X 94 0
          /wVvb24=
        >
        E 0 90 36 60
        E 910 80 36 00
        E 92 80 69 00
        E 327 90 69 60
        <X 80 0
          /wVNaWUt
        >
        E 0 90 2f 60
        E 276 80 2f 00
        <X 35 0
          /wVsZXQt
        >
        E 0 90 2f 60
        E 101 80 2f 00
        <X 73 0
          /wV0w7Yt
        >
        E 0 90 37 60
        E 214 80 37 00
        <X 36 0
          /wVtw6R0
        >
        E 0 90 36 60
        E 79 80 36 00
        <X 154 0
          /wVqdWgt
        >
        E 0 90 34 60
        E 325 80 34 00
        <X 72 0
          /wVsYXQ=
        >
        E 0 90 34 60
        E 251 80 34 00
        <X 294 0
          /wVtdWwt
        >
        E 0 90 34 60
        E 446 80 34 00
        <X 46 0
          /wVsZQ==
        >
        E 0 90 34 60
        E 296 80 34 00
        E 72 80 69 00
        E 266 90 69 60
        E 0 90 74 60
        <X 87 0
          /wVNdW4=
        >
        E 0 90 37 60
        E 162 80 37 00
        <X 71 0
          /wVsZW0t
        >
        E 0 90 37 60
        E 187 80 37 00
        <X 67 0
          /wVwaS0=
        >
        E 0 90 39 60
        E 162 80 39 00
        <X 82 0
          /wVtdS0=
        >
        E 0 90 39 60
        E 160 80 39 00
        <X 41 0
          /wVzYWE=
        >
        E 0 90 36 60
        E 300 80 36 00
        <X 70 0
          /wVsw6Qt
        >
        E 0 90 34 60
        E 103 80 34 00
        <X 53 0
          /wVwaQ==
        >
        E 0 90 32 60
        E 172 80 32 00
        <X 94 0
          /wVpbC0=
        >
        E 0 90 32 60
        E 231 80 32 00
        <X 35 0
          /wVsYW4=
        >
        E 0 90 32 60
        E 256 80 32 00
        <X 169 0
          /wVyYWkt
        >
        E 0 90 34 60
        E 383 80 34 00
        <X 105 0
          /wVrdS0=
        >
        E 0 90 36 60
        E 147 80 36 00
        <X 97 0
          /wVrb29u
        >
        E 0 90 36 60
        E 1470 80 36 00
        E 96 80 69 00
        E 0 80 74 00
        E 646 90 69 60
        <X 155 0
          /wVSYXAt
        >
        E 0 90 3b 60
        E 152 80 3b 00
        <X 336 0
          /wVwdS0=
        >
        E 0 90 3b 60
        E 119 80 3b 00
        <X 132 0
          /wVrw6R5LQ==
        >
        E 0 90 39 60
        E 406 80 39 00
        <X 71 0
          /wV0w6Qt
        >
        E 0 90 3b 60
        E 167 80 3b 00
        <X 83 0
          /wV2w6TDpG4=
        >
        E 0 90 34 60
        E 744 80 34 00
        <X 192 0
          /wVsYWkt
        >
        E 0 90 34 60
        E 164 80 34 00
        <X 97 0
          /wV0YW4=
        >
        E 0 90 36 60
        E 149 80 36 00
        <X 67 0
          /wVsYS0=
        >
        E 0 90 37 60
        E 166 80 37 00
        <X 95 0
          /wVwdW4=
        >
        E 0 90 34 60
        E 184 80 34 00
        <X 63 0
          /wVldC0=
        >
        E 0 90 36 60
        E 81 80 36 00
        <X 139 0
          /wV0w6Q=
        >
        E 0 90 37 60
        E 154 80 37 00
        <X 59 0
          /wVqby0=
        >
        E 0 90 37 60
        E 201 80 37 00
        <X 60 0
          /wV0ZW4t
        >
        E 0 90 39 60
        E 197 80 39 00
        <X 50 0
          /wVraW4=
        >
        E 0 90 39 60
        E 158 80 39 00
        <X 93 0
          /wVww6RyLQ==
        >
        E 0 90 37 60
        E 415 80 37 00
        <X 37 0
          /wVqw6Qt
        >
        E 0 90 37 60
        E 200 80 37 00
        <X 77 0
          /wV0w6TDpG4=
        >
        E 0 90 32 60
        E 1071 80 32 00
        E 296 80 69 00
        E 30 90 69 60
        <X 276 0
          /wVNw6Q=
        >
        E 0 90 32 60
        E 66 80 32 00
        <X 170 0
          /wVwaS0=
        >
        E 0 90 37 60
        E 191 80 37 00
        <X 32 0
          /wVkw6Ru
        >
        E 0 90 36 60
        E 225 80 36 00
        <X 95 0
          /wVqdWgt
        >
        E 0 90 34 60
        E 377 80 34 00
        <X 55 0
          /wVsYXQ=
        >
        E 0 90 34 60
        E 170 80 34 00
        <X 151 0
          /wVtdWwt
        >
        E 0 90 34 60
        E 604 80 34 00
        <X 41 0
          /wVsZQ==
        >
        E 0 90 34 60
        E 291 80 34 00
        <X 384 0
          /wVTZW4=
        >
        E 0 90 37 60
        E 196 80 37 00
        <X 67 0
          /wVrdW4t
        >
        E 0 90 37 60
        E 238 80 37 00
        <X 32 0
          /wVuaS0=
        >
        E 0 90 39 60
        E 205 80 39 00
        <X 38 0
          /wVhay0=
        >
        E 0 90 37 60
        E 104 80 37 00
        <X 79 0
          /wVzaQ==
        >
        E 0 90 36 60
        E 237 80 36 00
        <X 59 0
          /wVldC0=
        >
        E 0 90 34 60
        E 97 80 34 00
        <X 104 0
          /wV0w6Q=
        >
        E 0 90 32 60
        E 172 80 32 00
        <X 79 0
          /wVvb24=
        >
        E 0 90 34 60
        E 107 80 34 00
        <X 41 0
          /wUr
        >
        E 0 90 36 60
        E 881 80 36 00
        E 26 80 69 00
        E 245 90 69 60
        <X 128 0
          /wVqb3Mt
        >
        E 0 90 32 60
        E 198 80 32 00
        <X 49 0
          /wVrdXM=
        >
        E 0 90 32 60
        E 157 80 32 00
        <X 78 0
          /wVvbi0=
        >
        E 0 90 36 60
        E 215 80 36 00
        <X 35 0
          /wVuZWwt
        >
        E 0 90 36 60
        E 201 80 36 00
        <X 38 0
          /wVsaS0=
        >
        E 0 90 36 60
        E 195 80 36 00
        <X 40 0
          /wVuZW4=
        >
        E 0 90 36 60
        E 136 80 36 00
        <X 55 0
          /wVsw6Qt
        >
        E 0 90 36 60
        E 253 80 36 00
        <X 34 0
          /wVoZXMt
        >
        E 0 90 36 60
        E 183 80 36 00
        <X 72 0
          /wV0dWwt
        >
        E 0 90 36 60
        E 201 80 36 00
        <X 29 0
          /wUr
        >
        E 0 90 34 60
        E 178 80 34 00
        <X 91 0
          /wVrb29u
        >
        E 0 90 34 60
        E 1426 80 34 00
        <X 708 0
          /wVh
        >
        E 0 90 34 60
        E 110 80 34 00
        <X 360 0
          /wVoYQ==
        >
        E 0 90 34 60
        E 131 80 34 00
        <X 367 0
          /wVoYQ==
        >
        E 0 90 34 60
        E 123 80 34 00
        <X 344 0
          /wVoYWE=
        >
        E 0 90 34 60
        E 401 80 34 00
        E 160 80 69 00
        E 1775 90 69 60
        E 0 90 74 60
        <X 98 0
          /wVhYQ==
        >
        E 0 90 2f 60
        E 242 80 2f 00
        <X 39 0
          /wUr
        >
        E 0 90 32 60
        E 235 80 32 00
        <X 63 0
          /wUr
        >
        E 0 90 39 60
        E 444 80 39 00
        <X 48 0
          /wUr
        >
        E 0 90 3b 60
        E 665 80 3b 00
        <X 60 0
          /wUr
        >
        E 0 90 34 60
        E 2002 80 34 00
        <X 43 0
          /wVh
        >
        E 0 90 34 60
        E 110 80 34 00
        <X 360 0
          /wVoYQ==
        >
        E 0 90 34 60
        E 131 80 34 00
        <X 367 0
          /wVoYQ==
        >
        E 0 90 34 60
        E 123 80 34 00
        <X 344 0
          /wVoYWE=
        >
        E 0 90 34 60
        E 401 80 34 00
        E 186 80 69 00
        E 0 80 74 00
        E 3456 90 69 60
        <X 216 0
          /wVSYWst
        >
        E 0 90 2b 60
        E 79 80 2b 00
        <X 166 0
          /wVrYXVz
        >
        E 0 90 2b 60
        E 269 80 2b 00
        <X 83 0
          /wVvbg==
        >
        E 0 90 2b 60
        E 109 80 2b 00
        <X 43 0
          /wV2w6Qt
        >
        E 0 90 2d 60
        E 192 80 2d 00
        <X 27 0
          /wVoaXMt
        >
        E 0 90 2d 60
        E 193 80 2d 00
        <X 31 0
          /wVzw6Q=
        >
        E 0 90 2b 60
        E 242 80 2b 00
        <X 512 0
          /wVyYS0=
        >
        E 0 90 2b 60
        E 208 80 2b 00
        <X 37 0
          /wVoYXQ=
        >
        E 0 90 2b 60
        E 240 80 2b 00
        <X 66 0
          /wVvbg==
        >
        E 0 90 2b 60
        E 122 80 2b 00
        <X 26 0
          /wVsby0=
        >
        E 0 90 2d 60
        E 207 80 2d 00
        <X 52 0
          /wVwdXMt
        >
        E 0 90 2e 60
        E 192 80 2e 00
        <X 28 0
          /wVzYQ==
        >
        E 0 90 2a 60
        E 243 80 2a 00
        E 147 80 69 00
        E 222 90 69 60
        <X 101 0
          /wVNaS0=
        >
        E 0 90 2b 60
        E 173 80 2b 00
        <X 76 0
          /wVrw6TDpG4=
        >
        E 0 90 2b 60
        E 183 80 2b 00
        <X 50 0
          /wVlaQ==
        >
        E 0 90 2b 60
        E 167 80 2b 00
        <X 63 0
          /wVpLQ==
        >
        E 0 90 2b 60
        E 162 80 2b 00
        <X 100 0
          /wVraW4t
        >
        E 0 90 2d 60
        E 219 80 2d 00
        <X 38 0
          /wXDpA==
        >
        E 0 90 2b 60
        E 155 80 2b 00
        <X 86 0
          /wVtZS0=
        >
        E 0 90 2a 60
        E 419 80 2a 00
        <X 34 0
          /wVuZQ==
        >
        E 0 90 2a 60
        E 243 80 2a 00
        <X 54 0
          /wVuaWlu
        >
        E 0 90 2a 60
        E 168 80 2a 00
        <X 42 0
          /wVrdWlu
        >
        E 0 90 28 60
        E 133 80 28 00
        <X 48 0
          /wVzYS0=
        >
        E 0 90 2a 60
        E 231 80 2a 00
        <X 47 0
          /wVkdXMt
        >
        E 0 90 2b 60
        E 174 80 2b 00
        <X 45 0
          /wVzYQ==
        >
        E 0 90 2b 60
        E 233 80 2b 00
        E 286 80 69 00
        E 187 90 69 60
        <X 62 0
          /wVNdXQ=
        >
        E 0 90 2b 60
        E 66 80 2b 00
        <X 149 0
          /wVlaQ==
        >
        E 0 90 2b 60
        E 167 80 2b 00
        <X 64 0
          /wV0w6TDpA==
        >
        E 0 90 2b 60
        E 180 80 2b 00
        <X 36 0
          /wVow6Qt
        >
        E 0 90 2d 60
        E 145 80 2d 00
        <X 156 0
          /wV0aS0=
        >
        E 0 90 2d 60
        E 220 80 2d 00
        <X 20 0
          /wXDpA==
        >
        E 0 90 2b 60
        E 161 80 2b 00
        <X 479 0
          /wVtw6Q=
        >
        E 0 90 2b 60
        E 171 80 2b 00
        <X 70 0
          /wVzZWwt
        >
        E 0 90 2b 60
        E 249 80 2b 00
        <X 34 0
          /wV2aWlu
        >
        E 0 90 2b 60
        E 200 80 2b 00
        <X 50 0
          /wVrYWkt
        >
        E 0 90 2b 60
        E 178 80 2b 00
        <X 65 0
          /wVrZXMt
        >
        E 0 90 2d 60
        E 175 80 2d 00
        <X 93 0
          /wV0YQ==
        >
        E 0 90 2b 60
        E 215 80 2b 00
        E 141 80 69 00
        E 211 90 69 60
        E 0 90 74 60
        <X 119 0
          /wVQb2wt
        >
        E 0 90 2b 60
        E 220 80 2b 00
        <X 34 0
          /wV2ZXQ=
        >
        E 0 90 2b 60
        E 82 80 2b 00
        <X 148 0
          /wVvbg==
        >
        E 0 90 2b 60
        E 148 80 2b 00
        <X 45 0
          /wVzw7Yt
        >
        E 0 90 2b 60
        E 211 80 2b 00
        <X 97 0
          /wVrw7Yt
        >
        E 0 90 2d 60
        E 237 80 2d 00
        <X 28 0
          /wVuw6Q=
        >
        E 0 90 2b 60
        E 181 80 2b 00
        <X 53 0
          /wVtdXQ=
        >
        E 0 90 2b 60
        E 101 80 2b 00
        <X 116 0
          /wVrdWkt
        >
        E 0 90 2a 60
        E 152 80 2a 00
        <X 65 0
          /wV0ZW4t
        >
        E 0 90 2a 60
        E 196 80 2a 00
        <X 60 0
          /wVraW4=
        >
        E 0 90 28 60
        E 209 80 28 00
        <X 36 0
          /wVvb24=
        >
        E 0 90 28 60
        E 191 80 28 00
        <X 85 0
          /wVlLQ==
        >
        E 0 90 2a 60
        E 156 80 2a 00
        <X 29 0
          /wVsb3Mt
        >
        E 0 90 2a 60
        E 140 80 2a 00
        <X 36 0
          /wVzYQ==
        >
        E 0 90 2a 60
        E 233 80 2a 00
        E 20 80 69 00
        E 0 80 74 00
        E 52 90 69 60
        <X 20 0
          /wVNw6Q=
        >
        E 0 90 2b 60
        E 196 80 2b 00
        <X 46 0
          /wVvLQ==
        >
        E 0 90 32 60
        E 135 80 32 00
        <X 105 0
          /wV0YW4=
        >
        E 0 90 32 60
        E 159 80 32 00
        <X 78 0
          /wVrdS0=
        >
        E 0 90 2f 60
        E 147 80 2f 00
        <X 96 0
          /wVwaW4=
        >
        E 0 90 2f 60
        E 182 80 2f 00
        <X 75 0
          /wVrYWgt
        >
        E 0 90 2d 60
        E 369 80 2d 00
        <X 124 0
          /wV2aWk=
        >
        E 0 90 2e 60
        E 405 80 2e 00
        <X 59 0
          /wVoZW4t
        >
        E 0 90 32 60
        E 213 80 32 00
        <X 27 0
          /wVnaXQt
        >
        E 0 90 32 60
        E 130 80 32 00
        <X 113 0
          /wV0ZS0=
        >
        E 0 90 2f 60
        E 165 80 2f 00
        <X 39 0
          /wVsZW4=
        >
        E 0 90 2f 60
        E 163 80 2f 00
        <X 57 0
          /wVzeS0=
        >
        E 0 90 2d 60
        E 215 80 2d 00
        <X 75 0
          /wV2w6TDpG4=
        >
        E 0 90 2f 60
        E 349 80 2f 00
        E 30 80 69 00
        E 168 90 69 60
        <X 159 0
          /wVUw6Qt
        >
        E 0 90 2d 60
        E 187 80 2d 00
        <X 42 0
          /wVuw6TDpG4=
        >
        E 0 90 2d 60
        E 175 80 2d 00
        <X 107 0
          /wVtw6Q=
        >
        E 0 90 2d 60
        E 198 80 2d 00
        <X 40 0
          /wVlbg==
        >
        E 0 90 2f 60
        E 121 80 2f 00
        <X 75 0
          /wVtaWUt
        >
        E 0 90 2d 60
        E 175 80 2d 00
        <X 98 0
          /wV0aQ==
        >
        E 0 90 2c 60
        E 84 80 2c 00
        <X 162 0
          /wVlLQ==
        >
        E 0 90 2a 60
        E 185 80 2a 00
        <X 23 0
          /wVuZW0t
        >
        E 0 90 2b 60
        E 183 80 2b 00
        <X 66 0
          /wVww6TDpA==
        >
        E 0 90 2d 60
        E 568 80 2d 00
        E 187 80 69 00
        E 250 90 69 60
        <X 202 0
          /wVNw6Q=
        >
        E 0 90 32 60
        E 66 80 32 00
        <X 170 0
          /wVwaS0=
        >
        E 0 90 37 60
        E 191 80 37 00
        <X 32 0
          /wVkw6Ru
        >
        E 0 90 36 60
        E 226 80 36 00
        <X 94 0
          /wVqdWgt
        >
        E 0 90 34 60
        E 378 80 34 00
        <X 55 0
          /wVsYXQ=
        >
        E 0 90 34 60
        E 169 80 34 00
        <X 152 0
          /wVtdWwt
        >
        E 0 90 34 60
        E 603 80 34 00
        <X 41 0
          /wVsZQ==
        >
        E 0 90 34 60
        E 291 80 34 00
        E 91 80 69 00
        E 141 90 69 60
        E 0 90 74 60
        <X 143 0
          /wVTZW4=
        >
        E 0 90 37 60
        E 193 80 37 00
        <X 74 0
          /wVrdW4t
        >
        E 0 90 37 60
        E 214 80 37 00
        <X 47 0
          /wVuaS0=
        >
        E 0 90 39 60
        E 265 80 39 00
        <X 52 0
          /wVhay0=
        >
        E 0 90 37 60
        E 91 80 37 00
        <X 33 0
          /wVzaQ==
        >
        E 0 90 36 60
        E 244 80 36 00
        <X 58 0
          /wVldC0=
        >
        E 0 90 36 60
        E 99 80 36 00
        <X 71 0
          /wV0w6Q=
        >
        E 0 90 32 60
        E 158 80 32 00
        <X 106 0
          /wV0w6TDpGwt
        >
        E 0 90 32 60
        E 427 80 32 00
        <X 50 0
          /wVsw6Q=
        >
        E 0 90 32 60
        E 175 80 32 00
        <X 78 0
          /wV2aWUt
        >
        E 0 90 32 60
        E 152 80 32 00
        <X 37 0
          /wUr
        >
        E 0 90 34 60
        E 225 80 34 00
        <X 52 0
          /wVsw6Q=
        >
        E 0 90 36 60
        E 171 80 36 00
        <X 94 0
          /wVvb24=
        >
        E 0 90 36 60
        E 910 80 36 00
        E 151 80 69 00
        E 0 80 74 00
        E 253 90 69 60
        <X 95 0
          /wVNaWUt
        >
        E 0 90 2f 60
        E 276 80 2f 00
        <X 35 0
          /wVsZXQt
        >
        E 0 90 2f 60
        E 101 80 2f 00
        <X 73 0
          /wV0w7Yt
        >
        E 0 90 37 60
        E 214 80 37 00
        <X 36 0
          /wVtw6R0
        >
        E 0 90 36 60
        E 79 80 36 00
        <X 154 0
          /wVqdWgt
        >
        E 0 90 34 60
        E 325 80 34 00
        <X 72 0
          /wVsYXQ=
        >
        E 0 90 34 60
        E 251 80 34 00
        <X 294 0
          /wVtdWwt
        >
        E 0 90 34 60
        E 446 80 34 00
        <X 46 0
          /wVsZQ==
        >
        E 0 90 34 60
        E 324 80 34 00
        <X 397 0
          /wVNdW4=
        >
        E 0 90 37 60
        E 162 80 37 00
        <X 71 0
          /wVsZW0t
        >
        E 0 90 37 60
        E 187 80 37 00
        <X 67 0
          /wVwaS0=
        >
        E 0 90 39 60
        E 162 80 39 00
        <X 82 0
          /wVtdS0=
        >
        E 0 90 39 60
        E 160 80 39 00
        <X 41 0
          /wVzYWE=
        >
        E 0 90 36 60
        E 300 80 36 00
        <X 70 0
          /wVsw6Qt
        >
        E 0 90 34 60
        E 103 80 34 00
        <X 53 0
          /wVwaQ==
        >
        E 0 90 32 60
        E 172 80 32 00
        <X 94 0
          /wVpbC0=
        >
        E 0 90 32 60
        E 231 80 32 00
        <X 35 0
          /wVsYW4=
        >
        E 0 90 32 60
        E 256 80 32 00
        <X 169 0
          /wVyYWkt
        >
        E 0 90 34 60
        E 383 80 34 00
        <X 105 0
          /wVrdS0=
        >
        E 0 90 36 60
        E 147 80 36 00
        <X 97 0
          /wVrb29u
        >
        E 0 90 36 60
        E 1470 80 36 00
        E 32 80 69 00
        E 592 90 69 60
        <X 273 0
          /wVSYXAt
        >
        E 0 90 3b 60
        E 152 80 3b 00
        <X 336 0
          /wVwdS0=
        >
        E 0 90 3b 60
        E 119 80 3b 00
        <X 132 0
          /wVrw6R5LQ==
        >
        E 0 90 39 60
        E 406 80 39 00
        <X 71 0
          /wV0w6Qt
        >
        E 0 90 3b 60
        E 167 80 3b 00
        <X 83 0
          /wV2w6TDpG4=
        >
        E 0 90 34 60
        E 744 80 34 00
        <X 192 0
          /wVsYWkt
        >
        E 0 90 34 60
        E 164 80 34 00
        <X 97 0
          /wV0YW4=
        >
        E 0 90 36 60
        E 149 80 36 00
        <X 67 0
          /wVsYS0=
        >
        E 0 90 37 60
        E 166 80 37 00
        <X 95 0
          /wVwdW4=
        >
        E 0 90 34 60
        E 184 80 34 00
        <X 63 0
          /wVldC0=
        >
        E 0 90 36 60
        E 81 80 36 00
        <X 139 0
          /wV0w6Q=
        >
        E 0 90 37 60
        E 154 80 37 00
        <X 59 0
          /wVqby0=
        >
        E 0 90 37 60
        E 201 80 37 00
        <X 60 0
          /wV0ZW4t
        >
        E 0 90 39 60
        E 197 80 39 00
        <X 50 0
          /wVraW4=
        >
        E 0 90 39 60
        E 158 80 39 00
        <X 93 0
          /wVww6RyLQ==
        >
        E 0 90 37 60
        E 415 80 37 00
        <X 37 0
          /wVqw6Qt
        >
        E 0 90 37 60
        E 200 80 37 00
        <X 77 0
          /wV0w6TDpG4=
        >
        E 0 90 32 60
        E 1071 80 32 00
        E 480 80 69 00
        E 60 90 69 60
        <X 62 0
          /wVNw6Q=
        >
        E 0 90 32 60
        E 66 80 32 00
        <X 170 0
          /wVwaS0=
        >
        E 0 90 37 60
        E 191 80 37 00
        <X 32 0
          /wVkw6Ru
        >
        E 0 90 36 60
        E 225 80 36 00
        <X 95 0
          /wVqdWgt
        >
        E 0 90 34 60
        E 377 80 34 00
        <X 55 0
          /wVsYXQ=
        >
        E 0 90 34 60
        E 170 80 34 00
        <X 151 0
          /wVtdWwt
        >
        E 0 90 34 60
        E 604 80 34 00
        <X 41 0
          /wVsZQ==
        >
        E 0 90 34 60
        E 291 80 34 00
        <X 384 0
          /wVTZW4=
        >
        E 0 90 37 60
        E 196 80 37 00
        <X 67 0
          /wVrdW4t
        >
        E 0 90 37 60
        E 238 80 37 00
        <X 32 0
          /wVuaS0=
        >
        E 0 90 39 60
        E 205 80 39 00
        <X 38 0
          /wVhay0=
        >
        E 0 90 37 60
        E 104 80 37 00
        <X 79 0
          /wVzaQ==
        >
        E 0 90 36 60
        E 236 80 36 00
        <X 60 0
          /wVldC0=
        >
        E 0 90 34 60
        E 96 80 34 00
        <X 104 0
          /wV0w6Q=
        >
        E 0 90 32 60
        E 172 80 32 00
        <X 80 0
          /wVvb24=
        >
        E 0 90 34 60
        E 106 80 34 00
        <X 42 0
          /wUr
        >
        E 0 90 36 60
        E 881 80 36 00
        E 72 80 69 00
        E 235 90 69 60
        E 0 90 74 60
        <X 91 0
          /wVqb3Mt
        >
        E 0 90 32 60
        E 199 80 32 00
        <X 49 0
          /wVrdXM=
        >
        E 0 90 32 60
        E 157 80 32 00
        <X 77 0
          /wVvbi0=
        >
        E 0 90 36 60
        E 216 80 36 00
        <X 35 0
          /wVuZWwt
        >
        E 0 90 36 60
        E 201 80 36 00
        <X 38 0
          /wVsaS0=
        >
        E 0 90 36 60
        E 195 80 36 00
        <X 39 0
          /wVuZW4=
        >
        E 0 90 36 60
        E 254 80 36 00
        E 112 90 00 60
        E 181 80 00 00
        <X 149 0
          /wVNdWw=
        >
        E 0 90 40 60
        E 210 80 40 00
        <X 34 0
          /wVvbg==
        >
        E 0 90 40 60
        E 161 80 40 00
        <X 96 0
          /wVrdWloLQ==
        >
        E 0 90 45 60
        E 94 80 45 00
        <X 44 0
          /wUr
        >
        E 0 90 47 60
        E 224 80 47 00
        <X 130 0
          /wV0dS0=
        >
        E 0 90 4a 60
        E 161 80 4a 00
        <X 80 0
          /wVuZWkt
        >
        E 0 90 43 60
        E 616 80 43 00
        <X 110 0
          /wV0YQ==
        >
        E 0 90 43 60
        E 242 80 43 00
        <X 212 0
          /wVrdWst
        >
        E 0 90 42 60
        E 119 80 42 00
        <X 356 0
          /wVrYS0=
        >
        E 0 90 42 60
        E 156 80 42 00
        <X 51 0
          /wVzaWk=
        >
        E 0 90 3e 60
        E 712 80 3e 00
        E 93 80 69 00
        E 0 80 74 00
        E 341 90 69 60
        <X 114 0
          /wVQb3At
        >
        E 0 90 40 60
        E 107 80 40 00
        <X 356 0
          /wVwYS0=
        >
        E 0 90 4a 60
        E 191 80 4a 00
        <X 66 0
          /wVyZWkt
        >
        E 0 90 43 60
        E 597 80 43 00
        <X 116 0
          /wV0YQ==
        >
        E 0 90 43 60
        E 315 80 43 00
        <X 78 0
          /wVzdS0=
        >
        E 0 90 42 60
        E 287 80 42 00
        <X 83 0
          /wVsYWE=
        >
        E 0 90 3e 60
        E 394 80 3e 00
        <X 62 0
          /wVqw6R0cy0=
        >
        E 0 90 45 60
        E 199 80 45 00
        <X 33 0
          /wUr
        >
        E 0 90 43 60
        E 138 80 43 00
        <X 107 0
          /wVraWk=
        >
        E 0 90 43 60
        E 330 80 43 00
        E 199 80 69 00
        E 65 90 69 60
        E 1 90 74 60
        <X 106 0
          /wVOYWEt
        >
        E 0 90 47 60
        E 365 80 47 00
        <X 107 0
          /wVwdS0=
        >
        E 0 90 4a 60
        E 191 80 4a 00
        <X 29 0
          /wVyZWkt
        >
        E 0 90 43 60
        E 605 80 43 00
        <X 149 0
          /wV0YQ==
        >
        E 0 90 43 60
        E 423 80 43 00
        <X 86 0
          /wV5cy0=
        >
        E 0 90 43 60
        E 335 80 43 00
        <X 91 0
          /wV0w6Qt
        >
        E 0 90 43 60
        E 145 80 43 00
        <X 149 0
          /wV2aWk=
        >
        E 0 90 3e 60
        E 526 80 3e 00
        E 160 80 74 00
        E 3 80 69 00
        E 271 90 69 60
        <X 208 0
          /wVUw6Qt
        >
        E 0 90 47 60
        E 202 80 47 00
        <X 51 0
          /wVuw6TDpG4=
        >
        E 0 90 4a 60
        E 414 80 4a 00
        <X 83 0
          /wVlaQ==
        >
        E 0 90 43 60
        E 649 80 43 00
        <X 427 0
          /wVtaS0=
        >
        E 0 90 42 60
        E 189 80 42 00
        <X 159 0
          /wV0w6TDpG4=
        >
        E 0 90 3e 60
        E 416 80 3e 00
        <X 63 0
          /wVodW8t
        >
        E 0 90 44 60
        E 131 80 44 00
        <X 39 0
          /wUr
        >
        E 0 90 45 60
        E 281 80 45 00
        <X 47 0
          /wVsaWk=
        >
        E 0 90 43 60
        E 799 80 43 00
        E 217 80 69 00
        E 154 90 00 60
        E 240 80 00 00
        E 406 90 69 60
        E 0 90 74 60
        <X 73 0
          /wVNw6Q=
        >
        E 0 90 32 60
        E 66 80 32 00
        <X 170 0
          /wVwaS0=
        >
        E 0 90 37 60
        E 191 80 37 00
        <X 32 0
          /wVkw6Ru
        >
        E 0 90 36 60
        E 226 80 36 00
        <X 94 0
          /wVqdWgt
        >
        E 0 90 34 60
        E 378 80 34 00
        <X 55 0
          /wVsYXQ=
        >
        E 0 90 34 60
        E 169 80 34 00
        <X 152 0
          /wVtdWwt
        >
        E 0 90 34 60
        E 603 80 34 00
        <X 41 0
          /wVsZQ==
        >
        E 0 90 34 60
        E 291 80 34 00
        E 88 80 69 00
        E 0 80 74 00
        E 88 90 69 60
        <X 199 0
          /wVTZW4=
        >
        E 0 90 37 60
        E 193 80 37 00
        <X 74 0
          /wVrdW4t
        >
        E 0 90 37 60
        E 214 80 37 00
        <X 47 0
          /wVuaS0=
        >
        E 0 90 39 60
        E 265 80 39 00
        <X 52 0
          /wVhay0=
        >
        E 0 90 37 60
        E 91 80 37 00
        <X 33 0
          /wVzaQ==
        >
        E 0 90 36 60
        E 244 80 36 00
        <X 58 0
          /wVldC0=
        >
        E 0 90 36 60
        E 99 80 36 00
        <X 71 0
          /wV0w6Q=
        >
        E 0 90 32 60
        E 158 80 32 00
        <X 106 0
          /wV0w6TDpGwt
        >
        E 0 90 32 60
        E 427 80 32 00
        <X 50 0
          /wVsw6Q=
        >
        E 0 90 32 60
        E 175 80 32 00
        <X 78 0
          /wV2aWUt
        >
        E 0 90 32 60
        E 152 80 32 00
        <X 37 0
          /wUr
        >
        E 0 90 34 60
        E 225 80 34 00
        <X 52 0
          /wVsw6Q=
        >
        E 0 90 36 60
        E 171 80 36 00
        <X 94 0
          /wVvb24=
        >
        E 0 90 36 60
        E 910 80 36 00
        E 63 80 69 00
        E 327 90 69 60
        <X 109 0
          /wVNaWUt
        >
        E 0 90 2f 60
        E 276 80 2f 00
        <X 35 0
          /wVsZXQt
        >
        E 0 90 2f 60
        E 101 80 2f 00
        <X 73 0
          /wV0w7Yt
        >
        E 0 90 37 60
        E 214 80 37 00
        <X 36 0
          /wVtw6R0
        >
        E 0 90 36 60
        E 79 80 36 00
        <X 154 0
          /wVqdWgt
        >
        E 0 90 34 60
        E 325 80 34 00
        <X 72 0
          /wVsYXQ=
        >
        E 0 90 34 60
        E 251 80 34 00
        <X 294 0
          /wVtdWwt
        >
        E 0 90 34 60
        E 446 80 34 00
        <X 46 0
          /wVsZQ==
        >
        E 0 90 34 60
        E 296 80 34 00
        E 43 80 69 00
        E 266 90 69 60
        <X 116 0
          /wVNdW4=
        >
        E 0 90 37 60
        E 162 80 37 00
        <X 71 0
          /wVsZW0t
        >
        E 0 90 37 60
        E 187 80 37 00
        <X 67 0
          /wVwaS0=
        >
        E 0 90 39 60
        E 162 80 39 00
        <X 82 0
          /wVtdS0=
        >
        E 0 90 39 60
        E 160 80 39 00
        <X 41 0
          /wVzYWE=
        >
        E 0 90 36 60
        E 300 80 36 00
        <X 70 0
          /wVsw6Qt
        >
        E 0 90 34 60
        E 103 80 34 00
        <X 53 0
          /wVwaQ==
        >
        E 0 90 32 60
        E 172 80 32 00
        <X 94 0
          /wVpbC0=
        >
        E 0 90 32 60
        E 231 80 32 00
        <X 35 0
          /wVsYW4=
        >
        E 0 90 32 60
        E 256 80 32 00
        <X 169 0
          /wVyYWkt
        >
        E 0 90 34 60
        E 383 80 34 00
        <X 105 0
          /wVrdS0=
        >
        E 0 90 36 60
        E 147 80 36 00
        <X 97 0
          /wVrb29u
        >
        E 0 90 36 60
        E 1470 80 36 00
        E 67 80 69 00
        e 720 90 69 60
        e 0 90 74 60
        <X 110 0
          /wVSYXAt
        >
        E 0 90 3b 60
        E 152 80 3b 00
        <X 336 0
          /wVwdS0=
        >
        E 0 90 3b 60
        E 119 80 3b 00
        <X 132 0
          /wVrw6R5LQ==
        >
        E 0 90 39 60
        E 406 80 39 00
        <X 71 0
          /wV0w6Qt
        >
        E 0 90 3b 60
        E 167 80 3b 00
        <X 83 0
          /wV2w6TDpG4=
        >
        E 0 90 34 60
        E 744 80 34 00
        <X 192 0
          /wVsYWkt
        >
        E 0 90 34 60
        E 164 80 34 00
        <X 97 0
          /wV0YW4=
        >
        E 0 90 36 60
        E 149 80 36 00
        <X 67 0
          /wVsYS0=
        >
        E 0 90 37 60
        E 166 80 37 00
        <X 95 0
          /wVwdW4=
        >
        E 0 90 34 60
        E 184 80 34 00
        <X 63 0
          /wVldC0=
        >
        E 0 90 36 60
        E 81 80 36 00
        <X 139 0
          /wV0w6Q=
        >
        E 0 90 37 60
        E 154 80 37 00
        <X 59 0
          /wVqby0=
        >
        E 0 90 37 60
        E 201 80 37 00
        <X 60 0
          /wV0ZW4t
        >
        E 0 90 39 60
        E 197 80 39 00
        <X 50 0
          /wVraW4=
        >
        E 0 90 39 60
        E 158 80 39 00
        <X 93 0
          /wVww6RyLQ==
        >
        E 0 90 37 60
        E 415 80 37 00
        <X 37 0
          /wVqw6Qt
        >
        E 0 90 37 60
        E 200 80 37 00
        <X 77 0
          /wV0w6TDpG4=
        >
        E 0 90 32 60
        E 1071 80 32 00
        e 100 80 74 00
        e 387 80 69 00
        E 60 90 69 60
        <X 55 0
          /wVNw6Q=
        >
        E 0 90 32 60
        E 66 80 32 00
        <X 170 0
          /wVwaS0=
        >
        E 0 90 37 60
        E 191 80 37 00
        <X 32 0
          /wVkw6Ru
        >
        E 0 90 36 60
        E 225 80 36 00
        <X 95 0
          /wVqdWgt
        >
        E 0 90 34 60
        E 377 80 34 00
        <X 55 0
          /wVsYXQ=
        >
        E 0 90 34 60
        E 170 80 34 00
        <X 151 0
          /wVtdWwt
        >
        E 0 90 34 60
        E 604 80 34 00
        <X 41 0
          /wVsZQ==
        >
        E 0 90 34 60
        E 291 80 34 00
        <X 384 0
          /wVTZW4=
        >
        E 0 90 37 60
        E 196 80 37 00
        <X 67 0
          /wVrdW4t
        >
        E 0 90 37 60
        E 238 80 37 00
        <X 32 0
          /wVuaS0=
        >
        E 0 90 39 60
        E 205 80 39 00
        <X 38 0
          /wVhay0=
        >
        E 0 90 37 60
        E 104 80 37 00
        <X 79 0
          /wVzaQ==
        >
        E 0 90 36 60
        E 237 80 36 00
        <X 59 0
          /wVldC0=
        >
        E 0 90 34 60
        E 97 80 34 00
        <X 104 0
          /wV0w6Q=
        >
        E 0 90 32 60
        E 172 80 32 00
        <X 79 0
          /wVvb24=
        >
        E 0 90 34 60
        E 107 80 34 00
        <X 41 0
          /wUr
        >
        E 0 90 36 60
        E 881 80 36 00
        E 97 80 69 00
        E 245 90 69 60
        <X 57 0
          /wVqb3Mt
        >
        E 0 90 32 60
        E 198 80 32 00
        <X 49 0
          /wVrdXM=
        >
        E 0 90 32 60
        E 157 80 32 00
        <X 78 0
          /wVvbi0=
        >
        E 0 90 36 60
        E 215 80 36 00
        <X 35 0
          /wVuZWwt
        >
        E 0 90 36 60
        E 201 80 36 00
        <X 38 0
          /wVsaS0=
        >
        E 0 90 36 60
        E 195 80 36 00
        <X 40 0
          /wVuZW4=
        >
        E 0 90 36 60
        E 136 80 36 00
        <X 55 0
          /wVsw6Qt
        >
        E 0 90 36 60
        E 253 80 36 00
        <X 34 0
          /wVoZXMt
        >
        E 0 90 36 60
        E 183 80 36 00
        <X 72 0
          /wV0dWwt
        >
        E 0 90 32 60
        E 201 80 32 00
        <X 29 0
          /wUr
        >
        E 0 90 34 60
        E 178 80 34 00
        <X 91 0
          /wVrb29u
        >
        E 0 90 34 60
        E 1426 80 34 00
        <X 748 0
          /wVhbC0=
        >
        E 0 90 34 60
        E 394 80 34 00
        <X 60 0
          /wVsYQ==
        >
        E 0 90 30 60
        E 181 80 30 00
        <X 321 0
          /wVoYQ==
        >
        E 0 90 34 60
        E 133 80 34 00
        <X 345 0
          /wVoYWE=
        >
        E 0 90 34 60
        E 415 80 34 00
        E 178 80 69 00
        E 806 90 69 60
        <X 255 0
          /wVKb3Mt
        >
        E 0 90 32 60
        E 198 80 32 00
        <X 49 0
          /wVrdXM=
        >
        E 0 90 33 60
        E 157 80 33 00
        <X 78 0
          /wVvbi0=
        >
        E 0 90 36 60
        E 215 80 36 00
        <X 35 0
          /wVuZWwt
        >
        E 0 90 36 60
        E 201 80 36 00
        <X 38 0
          /wVsaS0=
        >
        E 0 90 36 60
        E 195 80 36 00
        <X 40 0
          /wVuZW4=
        >
        E 0 90 36 60
        E 136 80 36 00
        <X 55 0
          /wVsw6Qt
        >
        E 0 90 36 60
        E 253 80 36 00
        <X 34 0
          /wVoZXMt
        >
        E 0 90 36 60
        E 183 80 36 00
        <X 72 0
          /wV0dWwt
        >
        E 0 90 36 60
        E 201 80 36 00
        <X 29 0
          /wUr
        >
        E 0 90 37 60
        E 178 80 37 00
        <X 91 0
          /wVrb29u
        >
        E 0 90 34 60
        E 1571 80 34 00
        E 310 80 69 00
        E 169 90 69 60
        <X 78 0
          /wVh
        >
        E 0 90 34 60
        E 110 80 34 00
        <X 360 0
          /wVoYQ==
        >
        E 0 90 34 60
        E 131 80 34 00
        <X 367 0
          /wVoYQ==
        >
        E 0 90 34 60
        E 123 80 34 00
        <X 344 0
          /wVoYWE=
        >
        E 0 90 34 60
        E 401 80 34 00
        <X 1994 0
          /wVh
        >
        E 0 90 2f 60
        E 213 80 2f 00
        <X 53 0
          /wUr
        >
        E 0 90 32 60
        E 175 80 32 00
        <X 41 0
          /wUr
        >
        E 0 90 2f 60
        E 116 80 2f 00
        <X 345 0
          /wVhaA==
        >
        E 0 90 2f 60
        E 261 80 2f 00
        <X 65 0
          /wUr
        >
        E 0 90 32 60
        E 161 80 32 00
        <X 40 0
          /wUr
        >
        E 0 90 34 60
        E 169 80 34 00
        <X 480 0
          /wFbaWRsZV9yZWFsdGltZV0=
        >
        E 1338 80 69 00
        E 2027 b0 7b 00
        GUID {D78D8959-2AD8-48C0-8F6C-4A6670952331}
        IGNTEMPO 0 120.00000000 4 4
        SRCCOLOR 71
        VELLANE 132 128 60
        COLORMAP "C:\Users\me\AppData\Roaming\REAPER\Data\color_maps\rockband_vox-other.png"
        TEXTSTRINGFILE "C:\Program Files\REAPER\Data\Text_Strings\Text Events List.txt"
        CFGEDITVIEW 175502.129543 138.011176 0 12 0 0 0
        CFGEDIT 1 1 0 1 1 1 1 1 1 0 1 0.06250000 -8 -8 1374 736 1 2 1 2 0.00000000 0 0 0 0 0.500000 1 0 1.000000 64
        KEYSNAP 0 0 "102034050607" 0 "Major"
        EVTFILTER 0 -1 -1 -1 -1 0 1 0 0 -1.00000000 -1.00000000
      >
    >
  >
  <TRACK '{4A30D2A4-111B-40E3-8633-0926E85E641C}'
    NAME "DRYVOX1"
    PEAKCOL 16576
    BEAT -1
    AUTOMODE 0
    VOLPAN 1.00000000000000 0.00000000000000 -1.00000000000000 -1.00000000000000 1.00000000000000
    MUTESOLO 0 0 0
    IPHASE 0
    ISBUS 0 0
    BUSCOMP 0 0
    SHOWINMIX 1 0.666700 0.500000 1 0.500000 -1 -1 -1
    FREEMODE 0
    SEL 0
    REC 0 0 0 0 0 0 0
    TRACKHEIGHT 34 0
    INQ 0 0 0 0.5000000000 100 0 0 100
    NCHAN 2
    FX 1
    TRACKID {4A30D2A4-111B-40E3-8633-0926E85E641C}
    PERF 0
    MIDIOUT -1
    MAINSEND 1 0
    <FXCHAIN
      SHOW 0
      LASTSEL 0
      DOCKED 0
      BYPASS 0 0
      <VST "VST: ReaGate (Cockos)" "reagate.dll" 0 ""
        dGdlcu9e7f4EAAAAAQAAAAAAAAACAAAAAAAAAAQAAAAAAAAACAAAAA==
        AAAAAAIAAAABAAAAAAAAAAIAAAAAAAAAVAAAAAAAAAAAABAA776t3g==
        DfCt3pzRBzOmm8Q7CtejPAAAAAAAAAAAAACAPwAAAAAAAAAAAAAAAA==
        nNEHMx5Ucz+c0QczAACAPwAAAAAAAAAAAAAAACwWCz8AAAAAAAAAAA==
        AAAQAAAA
      >
      FLOATPOS 859 184 511 385
      FXID {BF545B5B-7DD0-4B4C-AC52-F095A552DA08}
      WAK 0
    >
    <ITEM
      POSITION 1.74057475067467
      SNAPOFFS 0.00000000000000
      LENGTH 192.78471655328798
      LOOP 0
      ALLTAKES 0
      SEL 0
      FADEIN 1 0.000000 0.000000 1 0
      FADEOUT 1 0.000000 0.000000 1 0
      MUTE 0
      IGUID {BEC882B1-5104-4306-9CD4-EE96BA827590}
      IID 141
      NAME "01 Juhlat mulle-vocals-E minor-132bpm-440hz.mp3"
      VOLPAN 1.000000 0.000000 1.000000 -1.000000
      SOFFS 0.00000000000000
      PLAYRATE 1.00000000000000 1 0.00000000000000 -1
      CHANMODE 0
      GUID {7456DA90-E9D9-4981-AE9D-3ADF8FD128D0}
      <SOURCE MP3
        FILE "F:\01 Juhlat mulle-vocals-E minor-132bpm-440hz.mp3" 1
      >
    >
  >
  <TRACK '{983C7D04-DAF6-462A-B5E6-64213F29FBA0}'
    NAME "HARM2"
    PEAKCOL 24624127
    BEAT -1
    AUTOMODE 0
    VOLPAN 1.00497380427334 0.00000000000000 -1.00000000000000 -1.00000000000000 1.00000000000000
    MUTESOLO 0 0 0
    IPHASE 0
    ISBUS 0 0
    BUSCOMP 0 0
    SHOWINMIX 1 0.666700 0.500000 1 0.500000 -1 -1 -1
    FREEMODE 0
    SEL 0
    REC 0 0 0 0 0 0 0
    TRACKHEIGHT 0 0
    INQ 0 0 0 0.5000000000 100 0 0 100
    NCHAN 2
    FX 1
    TRACKID {983C7D04-DAF6-462A-B5E6-64213F29FBA0}
    PERF 0
    MIDIOUT -1
    <MIDINOTENAMES
      0 0 "Range Shift"
      0 1 "Lyric Shift"
      0 36 "C1"
      0 37 "C#"
      0 38 "D"
      0 39 "Eb"
      0 40 "E"
      0 41 "F"
      0 42 "F#"
      0 43 "G"
      0 44 "G#"
      0 45 "A"
      0 46 "Bb"
      0 47 "B"
      0 48 "C2"
      0 49 "C#"
      0 50 "D"
      0 51 "Eb"
      0 52 "E"
      0 53 "F"
      0 54 "F#"
      0 55 "G"
      0 56 "G#"
      0 57 "A"
      0 58 "Bb"
      0 59 "B"
      0 60 "C3"
      0 61 "C#"
      0 62 "D"
      0 63 "Eb"
      0 64 "E"
      0 65 "F"
      0 66 "F#"
      0 67 "G"
      0 68 "G#"
      0 69 "A"
      0 70 "Bb"
      0 71 "B"
      0 72 "C4"
      0 73 "C#"
      0 74 "D"
      0 75 "Eb"
      0 76 "E"
      0 77 "F"
      0 78 "F#"
      0 79 "G"
      0 80 "G#"
      0 81 "A"
      0 82 "Bb"
      0 83 "B"
      0 105 "Phrase Marker"
      0 35 "----"
      0 84 "C5"
      0 116 "OVERDRIVE"
      0 115 "----"
      0 104 "----"
      0 97 "Not Displayed Percussion"
      0 96 "Displayed Percussion"
      0 95 "----"
    >
    MAINSEND 1 0
    <FXCHAIN
      WNDRECT 0 42 716 493
      SHOW 0
      LASTSEL 1
      DOCKED 0
      BYPASS 0 0
      <JS "IX/MIDI_Tool II" ""
        0.000000 85.000000 127.000000 0.000000 0.000000 0.000000 100.000000 0.000000 0.000000 127.000000 0.000000 0.000000 1.000000 0.000000 0.000000 - - - - - - - - - - - - - - - - - - - - - - - - - - - - - - - - - - - - - - - - - - - - - - - - - 
      >
      FLOATPOS 0 0 0 0
      FXID {0D2127EF-90E6-4278-AB57-59BADA75D3A0}
      WAK 0
      BYPASS 0 0
      <VST "VSTi: ReaSynth (Cockos)" "reasynth.dll" 0 ""
        eXNlcu9e7f4AAAAAAgAAAAEAAAAAAAAAAgAAAAAAAAA4AAAAAAAAAA==
        AAAAAO++rd4N8K3eppvEOxe30ToAAAAAAAAAAAAAAACa9Q8/6WeIPQ==
        AAAAAAAAAD8AAIA/AAAAAAAAAD8AAAAAAAA=
      >
      FLOATPOS 0 0 0 0
      FXID {9CF76FE8-51DE-4F46-8774-EF282D9874DF}
      WAK 0
    >
    <ITEM
      POSITION 0.00000000000000
      SNAPOFFS 0.00000000000000
      LENGTH 194.50329003055458
      LOOP 0
      ALLTAKES 0
      SEL 0
      FADEIN 1 0.000000 0.000000 1 0
      FADEOUT 1 0.000000 0.000000 1 0
      MUTE 0
      IGUID {85B4D2FA-0EE6-4979-8286-EAC89A15680D}
      IID 12
      NAME "HARM2 untitled MIDI item"
      VOLPAN 1.000000 0.000000 1.000000 -1.000000
      SOFFS 0.00000000000000 0.00000000000000
      PLAYRATE 1.00000000000000 1 0.00000000000000 -1
      CHANMODE 0
      GUID {67C8C31A-733D-46F5-9A6D-0FDF2143554E}
      <SOURCE MIDI
        HASDATA 1 480 QN
        POOLEDEVTS {39BD4886-8F92-4117-A7D0-C29DE29195BC}
        <X 0 0
          /wNIQVJNMg==
        >
        <X 3840 0
          /wFbaWRsZV0=
        >
        E 3888 90 69 60
        E 3731 80 69 00
        E 238 90 69 60
        E 3584 80 69 00
        E 151 90 69 60
        E 3616 80 69 00
        E 300 90 69 60
        E 0 90 74 60
        E 3414 80 69 00
        E 0 80 74 00
        E 14 90 69 60
        E 3820 80 69 00
        E 200 90 69 60
        E 3801 80 69 00
        E 142 90 69 60
        E 3730 80 69 00
        E 73 90 69 60
        E 0 90 74 60
        E 2463 80 69 00
        E 0 80 74 00
        E 641 90 69 60
        <X 244 0
          /wFbcGxheV0=
        >
        <X 579 0
          /wVqdWgt
        >
        E 0 90 36 60
        E 378 80 36 00
        <X 55 0
          /wVsYXQ=
        >
        E 0 90 36 60
        E 169 80 36 00
        <X 152 0
          /wVtdWwt
        >
        E 0 90 36 60
        E 603 80 36 00
        <X 41 0
          /wVsZQ==
        >
        E 0 90 36 60
        E 291 80 36 00
        E 117 80 69 00
        E 88 90 69 60
        E 4338 80 69 00
        E 327 90 69 60
        <X 1048 0
          /wVqdWgt
        >
        E 0 90 36 60
        E 325 80 36 00
        <X 72 0
          /wVsYXQ=
        >
        E 0 90 36 60
        E 251 80 36 00
        <X 294 0
          /wVtdWwt
        >
        E 0 90 36 60
        E 446 80 36 00
        <X 46 0
          /wVsZQ==
        >
        E 0 90 36 60
        E 296 80 36 00
        E 72 80 69 00
        E 266 90 69 60
        E 0 90 74 60
        E 4800 80 69 00
        E 0 80 74 00
        E 646 90 69 60
        <X 228 0
          /wVh
        >
        E 0 90 37 60
        E 2252 80 37 00
        <X 575 0
          /wVh
        >
        E 0 90 38 60
        E 889 80 38 00
        <X 75 0
          /wUr
        >
        E 0 90 36 60
        E 2594 80 36 00
        E 217 80 69 00
        E 30 90 69 60
        <X 1055 0
          /wVqdWgt
        >
        E 0 90 36 60
        E 377 80 36 00
        <X 55 0
          /wVsYXQ=
        >
        E 0 90 36 60
        E 170 80 36 00
        <X 151 0
          /wVtdWwt
        >
        E 0 90 36 60
        E 604 80 36 00
        <X 41 0
          /wVsZQ==
        >
        E 0 90 36 60
        E 291 80 36 00
        E 3146 80 69 00
        E 245 90 69 60
        <X 4700 0
          /wVh
        >
        E 0 90 36 60
        E 110 80 36 00
        <X 360 0
          /wVoYQ==
        >
        E 0 90 36 60
        E 131 80 36 00
        <X 367 0
          /wVoYQ==
        >
        E 0 90 36 60
        E 123 80 36 00
        <X 344 0
          /wVoYWE=
        >
        E 0 90 36 60
        E 401 80 36 00
        E 160 80 69 00
        E 1775 90 69 60
        E 0 90 74 60
        <X 3939 0
          /wVh
        >
        E 0 90 36 60
        E 110 80 36 00
        <X 360 0
          /wVoYQ==
        >
        E 0 90 36 60
        E 131 80 36 00
        <X 367 0
          /wVoYQ==
        >
        E 0 90 36 60
        E 123 80 36 00
        <X 344 0
          /wVoYWE=
        >
        E 0 90 36 60
        E 401 80 36 00
        E 186 80 69 00
        E 0 80 74 00
        E 3456 90 69 60
        E 3730 80 69 00
        E 222 90 69 60
        E 3730 80 69 00
        E 187 90 69 60
        E 3546 80 69 00
        E 211 90 69 60
        E 0 90 74 60
        E 3428 80 69 00
        E 0 80 74 00
        E 52 90 69 60
        E 3772 80 69 00
        E 168 90 69 60
        E 2835 80 69 00
        E 250 90 69 60
        <X 981 0
          /wVqdWgt
        >
        E 0 90 36 60
        E 378 80 36 00
        <X 55 0
          /wVsYXQ=
        >
        E 0 90 36 60
        E 169 80 36 00
        <X 152 0
          /wVtdWwt
        >
        E 0 90 36 60
        E 603 80 36 00
        <X 41 0
          /wVsZQ==
        >
        E 0 90 36 60
        E 291 80 36 00
        E 91 80 69 00
        E 141 90 69 60
        E 0 90 74 60
        E 4370 80 69 00
        E 0 80 74 00
        E 253 90 69 60
        <X 1063 0
          /wVqdWgt
        >
        E 0 90 36 60
        E 325 80 36 00
        <X 72 0
          /wVsYXQ=
        >
        E 0 90 36 60
        E 251 80 36 00
        <X 294 0
          /wVtdWwt
        >
        E 0 90 36 60
        E 446 80 36 00
        <X 46 0
          /wVsZQ==
        >
        E 0 90 36 60
        E 324 80 36 00
        E 5046 80 69 00
        E 592 90 69 60
        <X 327 0
          /wVh
        >
        E 0 90 37 60
        E 2252 80 37 00
        <X 602 0
          /wVh
        >
        E 0 90 38 60
        E 989 80 38 00
        <X 45 0
          /wUr
        >
        E 0 90 36 60
        E 2524 80 36 00
        E 393 80 69 00
        E 60 90 69 60
        <X 841 0
          /wVqdWgt
        >
        E 0 90 36 60
        E 377 80 36 00
        <X 55 0
          /wVsYXQ=
        >
        E 0 90 36 60
        E 170 80 36 00
        <X 151 0
          /wVtdWwt
        >
        E 0 90 36 60
        E 604 80 36 00
        <X 41 0
          /wVsZQ==
        >
        E 0 90 36 60
        E 291 80 36 00
        E 3192 80 69 00
        E 235 90 69 60
        E 0 90 74 60
        E 5894 80 69 00
        E 0 80 74 00
        E 341 90 69 60
        E 3772 80 69 00
        E 64 90 74 60
        E 1 90 69 60
        E 3467 80 74 00
        E 4 80 69 00
        E 271 90 69 60
        E 4375 80 69 00
        E 800 90 69 60
        E 0 90 74 60
        <X 852 0
          /wVqdWgt
        >
        E 0 90 36 60
        E 378 80 36 00
        <X 55 0
          /wVsYXQ=
        >
        E 0 90 36 60
        E 169 80 36 00
        <X 152 0
          /wVtdWwt
        >
        E 0 90 36 60
        E 603 80 36 00
        <X 41 0
          /wVsZQ==
        >
        E 0 90 36 60
        E 291 80 36 00
        E 88 80 69 00
        E 0 80 74 00
        E 88 90 69 60
        E 4338 80 69 00
        E 327 90 69 60
        <X 1077 0
          /wVqdWgt
        >
        E 0 90 36 60
        E 325 80 36 00
        <X 72 0
          /wVsYXQ=
        >
        E 0 90 36 60
        E 251 80 36 00
        <X 294 0
          /wVtdWwt
        >
        E 0 90 36 60
        E 446 80 36 00
        <X 46 0
          /wVsZQ==
        >
        E 0 90 36 60
        E 296 80 36 00
        E 43 80 69 00
        E 266 90 69 60
        E 4800 80 69 00
        e 720 90 69 60
        e 0 90 74 60
        <X 168 0
          /wVh
        >
        E 0 90 37 60
        E 2252 80 37 00
        <X 575 0
          /wVh
        >
        E 0 90 38 60
        E 833 80 38 00
        <X 102 0
          /wUr
        >
        E 0 90 36 60
        e 2659 80 74 00
        E 83 80 36 00
        e 304 80 69 00
        E 60 90 69 60
        <X 834 0
          /wVqdWgt
        >
        E 0 90 36 60
        E 377 80 36 00
        <X 55 0
          /wVsYXQ=
        >
        E 0 90 36 60
        E 170 80 36 00
        <X 151 0
          /wVtdWwt
        >
        E 0 90 36 60
        E 604 80 36 00
        <X 41 0
          /wVsZQ==
        >
        E 0 90 36 60
        E 291 80 36 00
        E 3217 80 69 00
        E 245 90 69 60
        <X 4669 0
          /wVhbC0=
        >
        E 0 90 36 60
        E 394 80 36 00
        <X 60 0
          /wVsYQ==
        >
        E 0 90 32 60
        E 181 80 32 00
        <X 321 0
          /wVoYQ==
        >
        E 0 90 36 60
        E 133 80 36 00
        <X 345 0
          /wVoYWE=
        >
        E 0 90 36 60
        E 415 80 36 00
        E 178 80 69 00
        E 806 90 69 60
        E 4574 80 69 00
        E 169 90 69 60
        <X 78 0
          /wVh
        >
        E 0 90 36 60
        E 110 80 36 00
        <X 360 0
          /wVoYQ==
        >
        E 0 90 36 60
        E 131 80 36 00
        <X 367 0
          /wVoYQ==
        >
        E 0 90 36 60
        E 123 80 36 00
        <X 344 0
          /wVoYWE=
        >
        E 0 90 36 60
        E 401 80 36 00
        <X 4113 0
          /wFbaWRsZV9yZWFsdGltZV0=
        >
        E 1338 80 69 00
        E 2027 b0 7b 00
        GUID {E53B89F8-ECC8-4A25-86E2-BC4D240C9444}
        IGNTEMPO 0 120.00000000 4 4
        SRCCOLOR 72
        VELLANE 132 128 60
        COLORMAP "C:\Users\me\AppData\Roaming\REAPER\Data\color_maps\rockband_vox-other.png"
        TEXTSTRINGFILE "C:\Program Files\REAPER\Data\Text_Strings\Text Events List.txt"
        CFGEDITVIEW 175502.129543 138.011176 0 12 0 0 0
        CFGEDIT 1 1 0 1 1 1 1 1 1 0 1 0.06250000 -8 -8 1374 736 1 2 1 2 0.00000000 0 0 0 0 0.500000 1 0 1.000000 64
        KEYSNAP 0 0 "102034050607" 0 "Major"
        EVTFILTER 0 -1 -1 -1 -1 0 1 0 0 -1.00000000 -1.00000000
      >
    >
  >
  <TRACK '{58A7B9C6-1373-47A1-A41A-295306551BF7}'
    NAME "DRYVOX2"
    PEAKCOL 16576
    BEAT -1
    AUTOMODE 0
    VOLPAN 1.00000000000000 0.00000000000000 -1.00000000000000 -1.00000000000000 1.00000000000000
    MUTESOLO 0 0 0
    IPHASE 0
    ISBUS 0 0
    BUSCOMP 0 0
    SHOWINMIX 1 0.666700 0.500000 1 0.500000 -1 -1 -1
    FREEMODE 0
    SEL 0
    REC 0 0 0 0 0 0 0
    TRACKHEIGHT 24 0
    INQ 0 0 0 0.5000000000 100 0 0 100
    NCHAN 2
    FX 1
    TRACKID {58A7B9C6-1373-47A1-A41A-295306551BF7}
    PERF 0
    MIDIOUT -1
    MAINSEND 1 0
    <FXCHAIN
      SHOW 0
      LASTSEL 0
      DOCKED 0
      BYPASS 0 0
      <VST "VST: ReaGate (Cockos)" "reagate.dll" 0 ""
        dGdlcu9e7f4EAAAAAQAAAAAAAAACAAAAAAAAAAQAAAAAAAAACAAAAA==
        AAAAAAIAAAABAAAAAAAAAAIAAAAAAAAAVAAAAAAAAAAAABAA776t3g==
        DfCt3pzRBzOmm8Q7CtejPAAAAAAAAAAAAACAPwAAAAAAAAAAAAAAAA==
        nNEHMx5Ucz+c0QczAACAPwAAAAAAAAAAAAAAACwWCz8AAAAAAAAAAA==
        AAAQAAAA
      >
      FLOATPOS 859 184 511 385
      FXID {BF545B5B-7DD0-4B4C-AC52-F095A552DA08}
      WAK 0
    >
    <ITEM
      POSITION 1.74003130771698
      SNAPOFFS 0.00000000000000
      LENGTH 192.78471655328798
      LOOP 0
      ALLTAKES 0
      SEL 0
      FADEIN 1 0.000000 0.000000 1 0
      FADEOUT 1 0.000000 0.000000 1 0
      MUTE 0
      IGUID {CC0F4F20-AFE2-4EAB-B85B-C29641A1EC97}
      IID 140
      NAME "01 Juhlat mulle-backing_vocals-E minor-132bpm-440hz.mp3"
      VOLPAN 1.000000 0.000000 1.000000 -1.000000
      SOFFS 0.00000000000000
      PLAYRATE 1.00000000000000 1 0.00000000000000 -1
      CHANMODE 0
      GUID {004C7FC9-973F-481B-9F22-CEA5697DB260}
      <SOURCE MP3
        FILE "F:\01 Juhlat mulle-backing_vocals-E minor-132bpm-440hz.mp3" 1
      >
    >
  >
  <TRACK '{4299BF31-E988-4C64-900A-97AC9ECE5EBC}'
    NAME "HARM3"
    PEAKCOL 24624127
    BEAT -1
    AUTOMODE 0
    VOLPAN 1.00000000000000 0.00000000000000 -1.00000000000000 -1.00000000000000 1.00000000000000
    MUTESOLO 0 0 0
    IPHASE 0
    ISBUS 0 0
    BUSCOMP 0 0
    SHOWINMIX 1 0.666700 0.500000 1 0.500000 -1 -1 -1
    FREEMODE 0
    SEL 0
    REC 0 0 0 0 0 0 0
    TRACKHEIGHT 42 0
    INQ 0 0 0 0.5000000000 100 0 0 100
    NCHAN 2
    FX 1
    TRACKID {4299BF31-E988-4C64-900A-97AC9ECE5EBC}
    PERF 0
    MIDIOUT -1
    <MIDINOTENAMES
      0 0 "Range Shift"
      0 1 "Lyric Shift"
      0 35 "----"
      0 36 "C1"
      0 37 "C#"
      0 38 "D"
      0 39 "Eb"
      0 40 "E"
      0 41 "F"
      0 42 "F#"
      0 43 "G"
      0 44 "G#"
      0 45 "A"
      0 46 "Bb"
      0 47 "B"
      0 48 "C2"
      0 49 "C#"
      0 50 "D"
      0 51 "Eb"
      0 52 "E"
      0 53 "F"
      0 54 "F#"
      0 55 "G"
      0 56 "G#"
      0 57 "A"
      0 58 "Bb"
      0 59 "B"
      0 60 "C3"
      0 61 "C#"
      0 62 "D"
      0 63 "Eb"
      0 64 "E"
      0 65 "F"
      0 66 "F#"
      0 67 "G"
      0 68 "G#"
      0 69 "A"
      0 70 "Bb"
      0 71 "B"
      0 72 "C4"
      0 73 "C#"
      0 74 "D"
      0 75 "Eb"
      0 76 "E"
      0 77 "F"
      0 78 "F#"
      0 79 "G"
      0 80 "G#"
      0 81 "A"
      0 82 "Bb"
      0 83 "B"
      0 84 "C5"
      0 116 "OVERDRIVE"
      0 115 "----"
      0 105 "Phrase Marker"
      0 104 "----"
      0 97 "Not Displayed Percussion"
      0 96 "Displayed Percussion"
      0 95 "----"
    >
    MAINSEND 1 0
    <FXCHAIN
      WNDRECT 0 42 716 493
      SHOW 0
      LASTSEL 1
      DOCKED 0
      BYPASS 0 0
      <JS "IX/MIDI_Tool II" ""
        0.000000 85.000000 127.000000 0.000000 0.000000 0.000000 100.000000 0.000000 0.000000 127.000000 0.000000 0.000000 1.000000 0.000000 0.000000 - - - - - - - - - - - - - - - - - - - - - - - - - - - - - - - - - - - - - - - - - - - - - - - - - 
      >
      FLOATPOS 0 0 0 0
      FXID {3D33E2FB-5DDE-4F81-B16F-BCB1EAD8D4FA}
      WAK 0
      BYPASS 0 0
      <VST "VSTi: ReaSynth (Cockos)" "reasynth.dll" 0 ""
        eXNlcu9e7f4AAAAAAgAAAAEAAAAAAAAAAgAAAAAAAAA4AAAAAAAAAA==
        AAAAAO++rd4N8K3eppvEOxe30ToAAAAAAAAAAAAAAACa9Q8/6WeIPQ==
        AAAAAAAAAD8AAIA/AAAAAAAAAD8AAAAAAAA=
      >
      FLOATPOS 0 0 0 0
      FXID {98E235B6-3365-4F58-AC74-F5BD513BFA85}
      WAK 0
    >
    <ITEM
      POSITION 0.00000000000000
      SNAPOFFS 0.00000000000000
      LENGTH 194.50329003055458
      LOOP 0
      ALLTAKES 0
      SEL 0
      FADEIN 1 0.000000 0.000000 1 0
      FADEOUT 1 0.000000 0.000000 1 0
      MUTE 0
      IGUID {14DAFADF-64E7-40FA-8E65-65BBB77CBDB7}
      IID 13
      NAME "HARM3 untitled MIDI item"
      VOLPAN 1.000000 0.000000 1.000000 -1.000000
      SOFFS 0.00000000000000 0.00000000000000
      PLAYRATE 1.00000000000000 1 0.00000000000000 -1
      CHANMODE 0
      GUID {BA30FF02-694D-4D9D-9D54-87AECA42C3BA}
      <SOURCE MIDI
        HASDATA 1 480 QN
        POOLEDEVTS {836776D5-F3C7-4FEF-BA50-582602DDA887}
        <X 0 0
          /wNIQVJNMw==
        >
        <X 3840 0
          /wFbaWRsZV0=
        >
        E 3888 90 69 60
        E 3731 80 69 00
        E 238 90 69 60
        E 3584 80 69 00
        E 151 90 69 60
        E 3616 80 69 00
        E 300 90 69 60
        E 0 90 74 60
        E 3414 80 69 00
        E 0 80 74 00
        E 14 90 69 60
        E 3820 80 69 00
        E 200 90 69 60
        E 3801 80 69 00
        E 142 90 69 60
        E 3730 80 69 00
        E 73 90 69 60
        E 0 90 74 60
        E 2463 80 69 00
        E 0 80 74 00
        E 641 90 69 60
        <X 244 0
          /wFbcGxheV0=
        >
        <X 579 0
          /wVqdWgt
        >
        E 0 90 32 60
        E 378 80 32 00
        <X 55 0
          /wVsYXQ=
        >
        E 0 90 32 60
        E 169 80 32 00
        <X 152 0
          /wVtdWwt
        >
        E 0 90 32 60
        E 603 80 32 00
        <X 41 0
          /wVsZQ==
        >
        E 0 90 32 60
        E 291 80 32 00
        E 117 80 69 00
        E 88 90 69 60
        E 4338 80 69 00
        E 327 90 69 60
        <X 1048 0
          /wVqdWgt
        >
        E 0 90 32 60
        E 325 80 32 00
        <X 72 0
          /wVsYXQ=
        >
        E 0 90 32 60
        E 251 80 32 00
        <X 294 0
          /wVtdWwt
        >
        E 0 90 32 60
        E 446 80 32 00
        <X 46 0
          /wVsZQ==
        >
        E 0 90 32 60
        E 296 80 32 00
        E 72 80 69 00
        E 266 90 69 60
        E 0 90 74 60
        E 4800 80 69 00
        E 0 80 74 00
        E 646 90 69 60
        <X 1170 0
          /wVh
        >
        E 0 90 36 60
        E 750 80 36 00
        <X 60 0
          /wUr
        >
        E 0 90 35 60
        E 1050 80 35 00
        <X 60 0
          /wUr
        >
        E 0 90 33 60
        E 750 80 33 00
        <X 1110 0
          /wVh
        >
        E 0 90 35 60
        E 750 80 35 00
        <X 60 0
          /wUr
        >
        E 0 90 34 60
        E 1050 80 34 00
        E 20 80 69 00
        E 30 90 69 60
        <X 10 0
          /wUr
        >
        E 0 90 33 60
        E 750 80 33 00
        <X 295 0
          /wVqdWgt
        >
        E 0 90 32 60
        E 377 80 32 00
        <X 55 0
          /wVsYXQ=
        >
        E 0 90 32 60
        E 170 80 32 00
        <X 151 0
          /wVtdWwt
        >
        E 0 90 32 60
        E 604 80 32 00
        <X 41 0
          /wVsZQ==
        >
        E 0 90 32 60
        E 291 80 32 00
        E 3146 80 69 00
        E 245 90 69 60
        <X 4700 0
          /wVh
        >
        E 0 90 32 60
        E 110 80 32 00
        <X 360 0
          /wVoYQ==
        >
        E 0 90 32 60
        E 131 80 32 00
        <X 367 0
          /wVoYQ==
        >
        E 0 90 32 60
        E 123 80 32 00
        <X 344 0
          /wVoYWE=
        >
        E 0 90 32 60
        E 401 80 32 00
        E 160 80 69 00
        E 1775 90 69 60
        E 0 90 74 60
        <X 3939 0
          /wVh
        >
        E 0 90 32 60
        E 110 80 32 00
        <X 360 0
          /wVoYQ==
        >
        E 0 90 32 60
        E 131 80 32 00
        <X 367 0
          /wVoYQ==
        >
        E 0 90 32 60
        E 123 80 32 00
        <X 344 0
          /wVoYWE=
        >
        E 0 90 32 60
        E 401 80 32 00
        E 186 80 69 00
        E 0 80 74 00
        E 3456 90 69 60
        E 3730 80 69 00
        E 222 90 69 60
        E 3730 80 69 00
        E 187 90 69 60
        E 3546 80 69 00
        E 211 90 69 60
        E 0 90 74 60
        E 3428 80 69 00
        E 0 80 74 00
        E 52 90 69 60
        E 3772 80 69 00
        E 168 90 69 60
        E 2835 80 69 00
        E 250 90 69 60
        <X 981 0
          /wVqdWgt
        >
        E 0 90 32 60
        E 378 80 32 00
        <X 55 0
          /wVsYXQ=
        >
        E 0 90 32 60
        E 169 80 32 00
        <X 152 0
          /wVtdWwt
        >
        E 0 90 32 60
        E 603 80 32 00
        <X 41 0
          /wVsZQ==
        >
        E 0 90 32 60
        E 291 80 32 00
        E 91 80 69 00
        E 141 90 69 60
        E 0 90 74 60
        E 4370 80 69 00
        E 0 80 74 00
        E 253 90 69 60
        <X 1063 0
          /wVqdWgt
        >
        E 0 90 32 60
        E 325 80 32 00
        <X 72 0
          /wVsYXQ=
        >
        E 0 90 32 60
        E 251 80 32 00
        <X 294 0
          /wVtdWwt
        >
        E 0 90 32 60
        E 446 80 32 00
        <X 46 0
          /wVsZQ==
        >
        E 0 90 32 60
        E 324 80 32 00
        E 5046 80 69 00
        E 592 90 69 60
        <X 1252 0
          /wVh
        >
        E 0 90 36 60
        E 750 80 36 00
        <X 60 0
          /wUr
        >
        E 0 90 35 60
        E 1050 80 35 00
        <X 60 0
          /wUr
        >
        E 0 90 33 60
        E 750 80 33 00
        <X 1110 0
          /wVh
        >
        E 0 90 35 60
        E 750 80 35 00
        <X 60 0
          /wUr
        >
        E 0 90 34 60
        E 1050 80 34 00
        <X 60 0
          /wUr
        >
        E 0 90 33 60
        E 180 80 69 00
        E 60 90 69 60
        E 510 80 33 00
        <X 331 0
          /wVqdWgt
        >
        E 0 90 32 60
        E 377 80 32 00
        <X 55 0
          /wVsYXQ=
        >
        E 0 90 32 60
        E 170 80 32 00
        <X 151 0
          /wVtdWwt
        >
        E 0 90 32 60
        E 604 80 32 00
        <X 41 0
          /wVsZQ==
        >
        E 0 90 32 60
        E 291 80 32 00
        E 3192 80 69 00
        E 235 90 69 60
        E 0 90 74 60
        E 5894 80 69 00
        E 0 80 74 00
        E 341 90 69 60
        E 3772 80 69 00
        E 64 90 74 60
        E 1 90 69 60
        E 3467 80 74 00
        E 4 80 69 00
        E 271 90 69 60
        E 4375 80 69 00
        E 800 90 69 60
        E 0 90 74 60
        <X 852 0
          /wVqdWgt
        >
        E 0 90 32 60
        E 378 80 32 00
        <X 55 0
          /wVsYXQ=
        >
        E 0 90 32 60
        E 169 80 32 00
        <X 152 0
          /wVtdWwt
        >
        E 0 90 32 60
        E 603 80 32 00
        <X 41 0
          /wVsZQ==
        >
        E 0 90 32 60
        E 291 80 32 00
        E 88 80 69 00
        E 0 80 74 00
        E 88 90 69 60
        E 4338 80 69 00
        E 327 90 69 60
        <X 1077 0
          /wVqdWgt
        >
        E 0 90 32 60
        E 325 80 32 00
        <X 72 0
          /wVsYXQ=
        >
        E 0 90 32 60
        E 251 80 32 00
        <X 294 0
          /wVtdWwt
        >
        E 0 90 32 60
        E 446 80 32 00
        <X 46 0
          /wVsZQ==
        >
        E 0 90 32 60
        E 296 80 32 00
        E 43 80 69 00
        E 266 90 69 60
        E 4800 80 69 00
        e 720 90 69 60
        e 0 90 74 60
        <X 2090 0
          /wVh
        >
        E 0 90 36 60 1
        E 750 80 36 00 1
        <X 60 0
          /wUr
        >
        E 0 90 35 60 1
        E 1050 80 35 00 1
        <X 938 0
          /wVh
        >
        E 0 90 35 60
        E 750 80 35 00
        <X 60 0
          /wUr
        >
        E 0 90 34 60
        e 891 80 74 00
        E 159 80 34 00
        <X 60 0
          /wUr
        >
        E 0 90 33 60
        e 168 80 69 00
        E 60 90 69 60
        E 522 80 33 00
        <X 312 0
          /wVqdWgt
        >
        E 0 90 32 60
        E 377 80 32 00
        <X 55 0
          /wVsYXQ=
        >
        E 0 90 32 60
        E 170 80 32 00
        <X 151 0
          /wVtdWwt
        >
        E 0 90 32 60
        E 604 80 32 00
        <X 41 0
          /wVsZQ==
        >
        E 0 90 32 60
        E 291 80 32 00
        E 3217 80 69 00
        E 245 90 69 60
        <X 4669 0
          /wVhbC0=
        >
        E 0 90 32 60
        E 394 80 32 00
        <X 60 0
          /wVsYQ==
        >
        E 0 90 2e 60
        E 181 80 2e 00
        <X 321 0
          /wVoYQ==
        >
        E 0 90 32 60
        E 133 80 32 00
        <X 345 0
          /wVoYWE=
        >
        E 0 90 32 60
        E 415 80 32 00
        E 178 80 69 00
        E 806 90 69 60
        E 4574 80 69 00
        E 169 90 69 60
        <X 78 0
          /wVh
        >
        E 0 90 32 60
        E 110 80 32 00
        <X 360 0
          /wVoYQ==
        >
        E 0 90 32 60
        E 131 80 32 00
        <X 367 0
          /wVoYQ==
        >
        E 0 90 32 60
        E 123 80 32 00
        <X 344 0
          /wVoYWE=
        >
        E 0 90 32 60
        E 401 80 32 00
        <X 4113 0
          /wFbaWRsZV9yZWFsdGltZV0=
        >
        E 1338 80 69 00
        E 2027 b0 7b 00
        GUID {F1082209-E2A8-4526-8AA6-2FE8F2DEB335}
        IGNTEMPO 0 120.00000000 4 4
        SRCCOLOR 73
        VELLANE 132 128 60
        COLORMAP "C:\Users\me\AppData\Roaming\REAPER\Data\color_maps\rockband_vox-other.png"
        TEXTSTRINGFILE "C:\Program Files\REAPER\Data\Text_Strings\Text Events List.txt"
        CFGEDITVIEW 175502.129543 138.011176 0 12 0 0 0
        CFGEDIT 1 1 0 1 1 1 1 1 1 0 1 0.06250000 -8 -8 1374 736 1 2 1 2 0.00000000 0 0 0 0 0.500000 1 0 1.000000 64
        KEYSNAP 0 0 "102034050607" 0 "Major"
        EVTFILTER 0 -1 -1 -1 -1 0 1 0 0 -1.00000000 -1.00000000
      >
    >
  >
  <TRACK '{AB3E8FDC-23A9-4945-BA6C-055C630028D0}'
    NAME "DRYVOX3"
    PEAKCOL 16576
    BEAT -1
    AUTOMODE 0
    VOLPAN 1.00000000000000 0.00000000000000 -1.00000000000000 -1.00000000000000 1.00000000000000
    MUTESOLO 1 0 0
    IPHASE 0
    ISBUS 0 0
    BUSCOMP 0 0
    SHOWINMIX 1 0.666700 0.500000 1 0.500000 -1 -1 -1
    FREEMODE 0
    SEL 0
    REC 0 0 0 0 0 0 0
    TRACKHEIGHT 24 0
    INQ 0 0 0 0.5000000000 100 0 0 100
    NCHAN 2
    FX 1
    TRACKID {AB3E8FDC-23A9-4945-BA6C-055C630028D0}
    PERF 0
    MIDIOUT -1
    MAINSEND 1 0
    <FXCHAIN
      SHOW 0
      LASTSEL 0
      DOCKED 0
      BYPASS 0 0
      <VST "VST: ReaGate (Cockos)" "reagate.dll" 0 ""
        dGdlcu9e7f4EAAAAAQAAAAAAAAACAAAAAAAAAAQAAAAAAAAACAAAAA==
        AAAAAAIAAAABAAAAAAAAAAIAAAAAAAAAVAAAAAAAAAAAABAA776t3g==
        DfCt3pzRBzOmm8Q7CtejPAAAAAAAAAAAAACAPwAAAAAAAAAAAAAAAA==
        nNEHMx5Ucz+c0QczAACAPwAAAAAAAAAAAAAAACwWCz8AAAAAAAAAAA==
        AAAQAAAA
      >
      FLOATPOS 859 184 511 385
      FXID {BF545B5B-7DD0-4B4C-AC52-F095A552DA08}
      WAK 0
    >
  >
  <TRACK '{14F64FB7-FE44-4E53-9F58-44F4178BCEF9}'
    NAME "PART KEYS"
    PEAKCOL 16842496
    BEAT -1
    AUTOMODE 0
    VOLPAN 1.00000000000000 0.00000000000000 -1.00000000000000 -1.00000000000000 1.00000000000000
    MUTESOLO 1 0 0
    IPHASE 0
    ISBUS 1 1
    BUSCOMP 0 0
    SHOWINMIX 1 0.666700 0.500000 1 0.500000 -1 -1 -1
    FREEMODE 0
    SEL 0
    REC 0 0 0 0 0 0 0
    TRACKHEIGHT 0 0
    INQ 0 0 0 0.5000000000 100 0 0 100
    NCHAN 2
    FX 1
    TRACKID {14F64FB7-FE44-4E53-9F58-44F4178BCEF9}
    PERF 0
    MIDIOUT -1
    <MIDINOTENAMES
      0 124 "BRE"
      0 123 "BRE"
      0 122 "BRE"
      0 121 "BRE"
      0 120 "BRE (use all 5)"
      0 116 "OVERDRIVE"
      0 119 "----"
      0 115 "----"
      0 103 "Solo Marker"
      0 95 "----"
      0 96 "EXPERT Green"
      0 97 "EXPERT Red"
      0 98 "EXPERT Yellow"
      0 99 "EXPERT Blue"
      0 100 "EXPERT Orange"
      0 102 "Force HoPo off"
      0 83 "----"
      0 84 "HARD Green"
      0 85 "HARD Red"
      0 86 "HARD Yellow"
      0 87 "HARD Blue"
      0 88 "HARD Orange"
      0 72 "MEDIUM Green"
      0 73 "MEDIUM Red"
      0 74 "MEDIUM Yellow"
      0 75 "MEDIUM Blue"
      0 76 "MEDIUM Orange"
      0 71 "----"
      0 64 "EASY Orange"
      0 63 "EASY Blue"
      0 62 "EASY Yellow"
      0 61 "EASY Red"
      0 60 "EASY Green"
      0 127 "Trill Marker"
      0 126 "----"
      0 101 "Force HoPo on"
    >
    MAINSEND 1 0
    <FXCHAIN
      WNDRECT 0 40 878 585
      SHOW 0
      LASTSEL 0
      DOCKED 0
      BYPASS 0 0
      <VST "VSTi: RBN Preview (RBN)" "rbprev_vst64_beta.dll" 0 ""
        dnBicu5e7f4AAAAAAgAAAAEAAAAAAAAAAgAAAAAAAAAEAAAAAQAAAA==
        AAAAAAMAqgAAAAAAAAA=
      >
      FLOATPOS 0 0 0 0
      FXID {EE0C80EE-5E5F-4EA2-B367-78AAAB3793F5}
      WAK 0
    >
    <ITEM
      POSITION 0.00000000000000
      SNAPOFFS 0.00000000000000
      LENGTH 170.89065289107387
      LOOP 0
      ALLTAKES 0
      SEL 0
      FADEIN 1 0.000000 0.000000 1 0
      FADEOUT 1 0.000000 0.000000 1 0
      MUTE 0
      IGUID {52D9F6AC-16AD-4CE9-95E4-6AD6396BB4E2}
      IID 14
      NAME "PART KEYS"
      VOLPAN 1.000000 0.000000 1.000000 -1.000000
      SOFFS 0.00000000000000 0.00000000000000
      PLAYRATE 1.00000000000000 1 0.00000000000000 -65536
      CHANMODE 0
      GUID {78E1CCBD-C30B-4DD8-81CD-2AEB0D2D38C8}
      <SOURCE MIDI
        HASDATA 1 480 QN
        POOLEDEVTS {9FF76520-78DA-4837-9D48-6CB6864D488F}
        <X 0 0
          /wNQQVJUIEtFWVM=
        >
        <X 3840 0
          /wFbcGxheV0=
        >
        E 0 90 40 7f
        E 0 90 4c 7f
        E 0 90 58 7f
        E 60 80 40 00
        E 0 80 4c 00
        E 0 80 58 00
        E 30 90 3f 7f
        E 0 90 4b 7f
        E 0 90 57 7f
        E 60 80 3f 00
        E 0 80 4b 00
        E 0 80 57 00
        E 30 90 3e 7f
        E 0 90 4a 7f
        E 0 90 56 7f
        E 60 80 3e 00
        E 0 80 4a 00
        E 0 80 56 00
        E 30 90 3d 7f
        E 0 90 49 7f
        E 0 90 55 7f
        E 60 80 3d 00
        E 0 80 49 00
        E 0 80 55 00
        E 30 90 3c 7f
        E 0 90 48 7f
        E 0 90 54 7f
        E 60 80 3c 00
        E 0 80 48 00
        E 0 80 54 00
        E 176221 b0 7b 00
        GUID {F537F270-CEBA-461E-8612-DC28913708FC}
        IGNTEMPO 0 120.00000000 4 4
        SRCCOLOR 74
        VELLANE 132 128 60
        COLORMAP "C:\Users\me\AppData\Roaming\REAPER\Data\color_maps\rockband_guitarbass.png"
        TEXTSTRINGFILE "C:\Program Files\REAPER\Data\Text_Strings\Text Events List.txt"
        CFGEDITVIEW -4299.275963 82.395269 19 12 0 0 0
        CFGEDIT 1 1 0 0 0 1 1 1 1 1 1 0.12500000 -8 -8 1370 736 1 0 1 2 0.00000000 0 0 0 0 0.500000 1 0 1.000000 64
        KEYSNAP 0 0 "102034050607" 0 "Major"
        EVTFILTER 0 -1 -1 -1 -1 0 1 0 0 -1.00000000 -1.00000000
      >
    >
  >
  <TRACK '{D39F8BD7-8730-4182-94EC-51AF9F9ACC90}'
    NAME "PART REAL_KEYS_X"
    PEAKCOL 25231232
    BEAT -1
    AUTOMODE 0
    VOLPAN 1.00000000000000 0.00000000000000 -1.00000000000000 -1.00000000000000 1.00000000000000
    MUTESOLO 1 0 0
    IPHASE 0
    ISBUS 0 0
    BUSCOMP 1 0
    SHOWINMIX 1 0.666700 0.500000 1 0.500000 -1 -1 -1
    FREEMODE 0
    SEL 0
    REC 0 0 0 0 0 0 0
    TRACKHEIGHT 0 0
    INQ 0 0 0 0.5000000000 100 0 0 100
    NCHAN 2
    FX 1
    TRACKID {D39F8BD7-8730-4182-94EC-51AF9F9ACC90}
    PERF 0
    MIDIOUT -1
    <MIDINOTENAMES
      0 0 "C2-E3 Range"
      0 5 "F2-A3 Range"
      0 9 "A2-C4 Range"
      0 48 "C2 (Lowest Note)"
      0 72 "C4 (Highest Note)"
      0 115 "Solo Marker"
      0 126 "Glissando Marker"
      0 116 "Overdrive Marker"
      0 127 "Trill Marker"
      0 125 "----"
      0 114 "----"
      0 47 "----"
      0 49 "C#2"
      0 50 "D2"
      0 51 "Eb2"
      0 52 "E2"
      0 53 "F2"
      0 54 "F#2"
      0 55 "G2"
      0 56 "G#2"
      0 57 "A2"
      0 58 "Bb2"
      0 59 "B2"
      0 60 "C3"
      0 61 "C#3"
      0 62 "D3"
      0 63 "Eb3"
      0 64 "E3"
      0 65 "F3"
      0 66 "F#3"
      0 67 "G3"
      0 68 "G#3"
      0 69 "A3"
      0 70 "Bb3"
      0 71 "B3"
      0 2 "D2-F3 Range"
      0 4 "E2-G3 Range"
      0 7 "G2-B3 Range"
    >
    MAINSEND 1 0
    <FXCHAIN
      WNDRECT 0 40 655 493
      SHOW 0
      LASTSEL 1
      DOCKED 0
      BYPASS 0 0
      <JS "IX/MIDI_Tool II" ""
        0.000000 85.000000 127.000000 0.000000 0.000000 0.000000 100.000000 0.000000 0.000000 127.000000 0.000000 0.000000 1.000000 0.000000 0.000000 - - - - - - - - - - - - - - - - - - - - - - - - - - - - - - - - - - - - - - - - - - - - - - - - - 
      >
      FLOATPOS 0 0 0 0
      FXID {A891DAA7-5D8A-4720-AA8F-E43D2ABA2AE5}
      WAK 0
      BYPASS 0 0
      <VST "VSTi: ReaSynth (Cockos)" "reasynth.dll" 0 ""
        eXNlcu9e7f4AAAAAAgAAAAEAAAAAAAAAAgAAAAAAAAA4AAAAAAAAAA==
        AAAAAO++rd4N8K3eppvEOxe30TqcxKA+c2jRPgAAAADMm4A+6WeIPQ==
        AAAAAAAAAD8AAIA/6SaxPgAAAD8AAAAAAAA=
      >
      FLOATPOS 0 0 0 0
      FXID {A0CE5851-0C70-49E2-AD61-BC7B1C50A030}
      WAK 0
    >
    <ITEM
      POSITION 0.00000000000000
      SNAPOFFS 0.00000000000000
      LENGTH 170.89065289107387
      LOOP 0
      ALLTAKES 0
      SEL 0
      FADEIN 1 0.000000 0.000000 1 0
      FADEOUT 1 0.000000 0.000000 1 0
      MUTE 0
      IGUID {974100C2-06C4-4CB5-BD67-2F1BC71A1259}
      IID 15
      NAME "PART REAL_KEYS_X"
      VOLPAN 1.000000 0.000000 1.000000 -1.000000
      SOFFS 0.00000000000000 0.00000000000000
      PLAYRATE 1.00000000000000 1 0.00000000000000 -65536
      CHANMODE 0
      GUID {08703F3F-9741-46EB-9ED4-B09B2390F876}
      <SOURCE MIDI
        HASDATA 1 480 QN
        POOLEDEVTS {698C09E7-2BD5-4764-B2D4-67A519366A29}
        <X 0 0
          /wNQQVJUIFJFQUxfS0VZU19Y
        >
        <X 3840 0
          /wFbcGxheV0=
        >
        E 176641 b0 7b 00
        GUID {0E0CBFB7-4AC8-4E67-A764-85891754BB41}
        IGNTEMPO 0 120.00000000 4 4
        SRCCOLOR 75
        VELLANE 132 128 60
        COLORMAP "C:\Program Files\REAPER\Data\color_maps\rockband_guitarbass.png"
        TEXTSTRINGFILE "C:\Program Files\REAPER\Data\Text_Strings\Text Events List.txt"
        CFGEDITVIEW -4299.275963 82.395269 48 12 0 0 0
        CFGEDIT 1 1 0 1 1 1 1 1 1 1 1 0.12500000 -8 -8 1370 736 1 0 1 2 0.00000000 0 0 0 0 0.500000 1 0 1.000000 64
        KEYSNAP 0 0 "102034050607" 0 "Major"
        EVTFILTER 0 -1 -1 -1 -1 0 1 0 0 -1.00000000 -1.00000000
      >
    >
  >
  <TRACK '{117931B6-9EA5-432A-AEED-ACF4C8876354}'
    NAME "PART REAL _KEYS_H"
    PEAKCOL 25231232
    BEAT -1
    AUTOMODE 0
    VOLPAN 1.00000843600341 0.00000000000000 -1.00000000000000 -1.00000000000000 1.00000000000000
    MUTESOLO 1 0 0
    IPHASE 0
    ISBUS 0 0
    BUSCOMP 0 0
    SHOWINMIX 1 0.666700 0.500000 1 0.500000 -1 -1 -1
    FREEMODE 0
    SEL 0
    REC 0 0 0 0 0 0 0
    TRACKHEIGHT 0 0
    INQ 0 0 0 0.5000000000 100 0 0 100
    NCHAN 2
    FX 1
    TRACKID {117931B6-9EA5-432A-AEED-ACF4C8876354}
    PERF 0
    MIDIOUT -1
    <MIDINOTENAMES
      0 0 "C2-E3 Range"
      0 5 "F2-A3 Range"
      0 9 "A2-C4 Range"
      0 48 "C2 (Lowest Note)"
      0 72 "C4 (Highest Note)"
      0 115 "Solo Marker"
      0 126 "Glissando Marker"
      0 127 "Trill Marker"
      0 125 "----"
      0 116 "Overdrive Marker"
      0 114 "----"
      0 71 "B3"
      0 70 "Bb3"
      0 69 "A3"
      0 68 "G#3"
      0 67 "G3"
      0 66 "F#3"
      0 65 "F3"
      0 64 "E3"
      0 63 "Eb3"
      0 62 "D3"
      0 61 "C#3"
      0 60 "C3"
      0 59 "B2"
      0 58 "Bb2"
      0 57 "A2"
      0 56 "G#2"
      0 55 "G2"
      0 54 "F#2"
      0 53 "F2"
      0 52 "E2"
      0 51 "Eb2"
      0 50 "D2"
      0 49 "C#2"
      0 47 "----"
      0 7 "G2-B3 Range"
      0 4 "E2-G3 Range"
      0 2 "D2-F3 Range"
    >
    MAINSEND 1 0
    <FXCHAIN
      SHOW 0
      LASTSEL 0
      DOCKED 0
      BYPASS 0 0
      <JS "IX/MIDI_Tool II" ""
        0.000000 85.000000 127.000000 0.000000 0.000000 0.000000 100.000000 0.000000 0.000000 127.000000 0.000000 0.000000 1.000000 0.000000 0.000000 - - - - - - - - - - - - - - - - - - - - - - - - - - - - - - - - - - - - - - - - - - - - - - - - - 
      >
      FLOATPOS 0 0 0 0
      FXID {5BF1E178-D070-4445-A488-4CE4E31F6508}
      WAK 0
      BYPASS 0 0
      <VST "VSTi: ReaSynth (Cockos)" "reasynth.dll" 0 ""
        eXNlcu9e7f4AAAAAAgAAAAEAAAAAAAAAAgAAAAAAAAA4AAAAAAAAAA==
        AAAAAO++rd4N8K3eppvEOxe30TqcxKA+c2jRPgAAAADMm4A+6WeIPQ==
        AAAAAAAAAD8AAIA/6SaxPgAAAD8AAAAAAAA=
      >
      FLOATPOS 0 0 0 0
      FXID {C48567E0-8372-4900-9933-4B040EA2A253}
      WAK 0
    >
    <ITEM
      POSITION 0.00000000000000
      SNAPOFFS 0.00000000000000
      LENGTH 170.89065289107387
      LOOP 0
      ALLTAKES 0
      SEL 0
      FADEIN 1 0.000000 0.000000 1 0
      FADEOUT 1 0.000000 0.000000 1 0
      MUTE 0
      IGUID {DA514BF3-AF34-46C0-BD23-58406C871A44}
      IID 16
      NAME "PART REAL _KEYS_H"
      VOLPAN 1.000000 0.000000 1.000000 -1.000000
      SOFFS 0.00000000000000 0.00000000000000
      PLAYRATE 1.00000000000000 1 0.00000000000000 -65536
      CHANMODE 0
      GUID {8E0AC36B-D538-4BB8-A507-FFF40527D1BA}
      <SOURCE MIDI
        HASDATA 1 480 QN
        POOLEDEVTS {9405C07C-B3E4-4FCC-9054-EEFC392ABCF5}
        <X 0 0
          /wNQQVJUIFJFQUxfS0VZU19I
        >
        E 0 90 09 60
        E 480 80 09 00
        E 3360 90 39 60
        E 360 80 39 00
        E 176281 b0 7b 00
        GUID {53F487B1-1F2F-4D54-9DAE-BC2E7B032E3B}
        IGNTEMPO 0 120.00000000 4 4
        SRCCOLOR 76
        VELLANE 132 128 60
        COLORMAP "C:\Program Files\REAPER\Data\color_maps\rockband_guitarbass.png"
        TEXTSTRINGFILE "C:\Program Files\REAPER\Data\Text_Strings\Text Events List.txt"
        CFGEDITVIEW -4299.275963 82.395269 5 14 0 0 0
        CFGEDIT 1 1 0 1 1 1 1 1 1 1 1 0.12500000 -8 -8 1374 736 1 2 1 2 0.00000000 0 0 0 0 0.500000 1 0 1.000000 64
        KEYSNAP 0 0 "102034050607" 0 "Major"
        EVTFILTER 0 -1 -1 -1 -1 0 1 0 0 -1.00000000 -1.00000000
      >
    >
  >
  <TRACK '{3B6F726E-1CAB-4A00-9B01-2E1CC375B13E}'
    NAME "PART REAL_KEYS_M"
    PEAKCOL 25231232
    BEAT -1
    AUTOMODE 0
    VOLPAN 1.00000000000000 0.00000000000000 -1.00000000000000 -1.00000000000000 1.00000000000000
    MUTESOLO 1 0 0
    IPHASE 0
    ISBUS 0 0
    BUSCOMP 0 0
    SHOWINMIX 1 0.666700 0.500000 1 0.500000 -1 -1 -1
    FREEMODE 0
    SEL 0
    REC 0 0 0 0 0 0 0
    TRACKHEIGHT 0 0
    INQ 0 0 0 0.5000000000 100 0 0 100
    NCHAN 2
    FX 1
    TRACKID {3B6F726E-1CAB-4A00-9B01-2E1CC375B13E}
    PERF 0
    MIDIOUT -1
    <MIDINOTENAMES
      0 0 "C2-E3 Range"
      0 5 "F2-A3 Range"
      0 9 "A2-C4 Range"
      0 48 "C2 (Lowest Note)"
      0 72 "C4 (Highest Note)"
      0 115 "Solo Marker"
      0 126 "Glissando Marker"
      0 127 "Trill Marker"
      0 125 "----"
      0 116 "Overdrive Marker"
      0 114 "----"
      0 71 "B3"
      0 70 "Bb3"
      0 69 "A3"
      0 68 "G#3"
      0 67 "G3"
      0 66 "F#3"
      0 65 "F3"
      0 64 "E3"
      0 63 "Eb3"
      0 62 "D3"
      0 61 "C#3"
      0 60 "C3"
      0 59 "B2"
      0 58 "Bb2"
      0 57 "A2"
      0 56 "G#2"
      0 55 "G2"
      0 54 "F#2"
      0 53 "F2"
      0 52 "E2"
      0 51 "Eb2"
      0 50 "D2"
      0 49 "C#2"
      0 47 "----"
      0 7 "G2-B3 Range"
      0 4 "E2-G3 Range"
      0 2 "D2-F3 Range"
    >
    MAINSEND 1 0
    <FXCHAIN
      SHOW 0
      LASTSEL 0
      DOCKED 0
      BYPASS 0 0
      <JS "IX/MIDI_Tool II" ""
        0.000000 85.000000 127.000000 0.000000 0.000000 0.000000 100.000000 0.000000 0.000000 127.000000 0.000000 0.000000 1.000000 0.000000 0.000000 - - - - - - - - - - - - - - - - - - - - - - - - - - - - - - - - - - - - - - - - - - - - - - - - - 
      >
      FLOATPOS 0 0 0 0
      FXID {096BA8B0-BFAB-4802-A0D3-DEA88A16B5B2}
      WAK 0
      BYPASS 0 0
      <VST "VSTi: ReaSynth (Cockos)" "reasynth.dll" 0 ""
        eXNlcu9e7f4AAAAAAgAAAAEAAAAAAAAAAgAAAAAAAAA4AAAAAAAAAA==
        AAAAAO++rd4N8K3eppvEOxe30TqcxKA+c2jRPgAAAADMm4A+6WeIPQ==
        AAAAAAAAAD8AAIA/6SaxPgAAAD8AAAAAAAA=
      >
      FLOATPOS 0 0 0 0
      FXID {A5115AF9-13EF-41D8-80FF-CB81A74D6CD4}
      WAK 0
    >
    <ITEM
      POSITION 0.00000000000000
      SNAPOFFS 0.00000000000000
      LENGTH 170.89065289107387
      LOOP 0
      ALLTAKES 0
      SEL 0
      FADEIN 1 0.000000 0.000000 1 0
      FADEOUT 1 0.000000 0.000000 1 0
      MUTE 0
      IGUID {6F5DF5D5-958D-4566-AA6E-AFD27D997F3F}
      IID 17
      NAME "PART REAL_KEYS_M"
      VOLPAN 1.000000 0.000000 1.000000 -1.000000
      SOFFS 0.00000000000000 0.00000000000000
      PLAYRATE 1.00000000000000 1 0.00000000000000 -65536
      CHANMODE 0
      GUID {14BC6779-E32B-455D-A61C-C2E68D8FE08C}
      <SOURCE MIDI
        HASDATA 1 480 QN
        POOLEDEVTS {F4CAD179-EBE6-42BB-805B-0366B860E164}
        <X 0 0
          /wNQQVJUIFJFQUxfS0VZU19N
        >
        e 0 90 09 60
        e 480 80 09 00
        e 3360 90 39 60
        e 360 80 39 00
        E 176281 b0 7b 00
        GUID {806139BE-556B-4882-A297-06705078FD7A}
        IGNTEMPO 0 120.00000000 4 4
        SRCCOLOR 77
        VELLANE 132 128 60
        COLORMAP "C:\Program Files\REAPER\Data\color_maps\rockband_guitarbass.png"
        TEXTSTRINGFILE "C:\Program Files\REAPER\Data\Text_Strings\Text Events List.txt"
        CFGEDITVIEW -4299.275963 82.395269 0 17 0 0 0
        CFGEDIT 1 1 0 1 1 1 1 1 1 1 1 0.12500000 -8 -8 1374 736 1 2 1 2 0.00000000 0 0 0 0 0.500000 1 0 1.000000 64
        KEYSNAP 0 0 "102034050607" 0 "Major"
        EVTFILTER 0 -1 -1 -1 -1 0 1 0 0 -1.00000000 -1.00000000
      >
    >
  >
  <TRACK '{49B8D0E0-0069-415C-8FC3-AC29B0E2C3CF}'
    NAME "PART REAL_KEYS_E"
    PEAKCOL 25231232
    BEAT -1
    AUTOMODE 0
    VOLPAN 1.00000000000000 0.00000000000000 -1.00000000000000 -1.00000000000000 1.00000000000000
    MUTESOLO 1 0 0
    IPHASE 0
    ISBUS 0 0
    BUSCOMP 0 0
    SHOWINMIX 1 0.666700 0.500000 1 0.500000 -1 -1 -1
    FREEMODE 0
    SEL 0
    REC 0 0 0 0 0 0 0
    TRACKHEIGHT 0 0
    INQ 0 0 0 0.5000000000 100 0 0 100
    NCHAN 2
    FX 1
    TRACKID {49B8D0E0-0069-415C-8FC3-AC29B0E2C3CF}
    PERF 0
    MIDIOUT -1
    <MIDINOTENAMES
      0 0 "C2-E3 Range"
      0 5 "F2-A3 Range"
      0 9 "A2-C4 Range"
      0 48 "C2 (Lowest Note)"
      0 72 "C4 (Highest Note)"
      0 115 "Solo Marker"
      0 126 "Glissando Marker"
      0 127 "Trill Marker"
      0 125 "----"
      0 116 "Overdrive Marker"
      0 114 "----"
      0 71 "B3"
      0 70 "Bb3"
      0 69 "A3"
      0 68 "G#3"
      0 67 "G3"
      0 66 "F#3"
      0 65 "F3"
      0 64 "E3"
      0 63 "Eb3"
      0 62 "D3"
      0 61 "C#3"
      0 60 "C3"
      0 59 "B2"
      0 58 "Bb2"
      0 57 "A2"
      0 56 "G#2"
      0 55 "G2"
      0 54 "F#2"
      0 53 "F2"
      0 52 "E2"
      0 51 "Eb2"
      0 50 "D2"
      0 49 "C#2"
      0 47 "----"
      0 7 "G2-B3 Range"
      0 4 "E2-G3 Range"
      0 2 "D2-F3 Range"
    >
    MAINSEND 1 0
    <FXCHAIN
      SHOW 0
      LASTSEL 0
      DOCKED 0
      BYPASS 0 0
      <JS "IX/MIDI_Tool II" ""
        0.000000 85.000000 127.000000 0.000000 0.000000 0.000000 100.000000 0.000000 0.000000 127.000000 0.000000 0.000000 1.000000 0.000000 0.000000 - - - - - - - - - - - - - - - - - - - - - - - - - - - - - - - - - - - - - - - - - - - - - - - - - 
      >
      FLOATPOS 0 0 0 0
      FXID {71EF04AA-9A38-4C4E-8E04-9FB37BDA6361}
      WAK 0
      BYPASS 0 0
      <VST "VSTi: ReaSynth (Cockos)" "reasynth.dll" 0 ""
        eXNlcu9e7f4AAAAAAgAAAAEAAAAAAAAAAgAAAAAAAAA4AAAAAAAAAA==
        AAAAAO++rd4N8K3eppvEOxe30TqcxKA+c2jRPgAAAADMm4A+6WeIPQ==
        AAAAAAAAAD8AAIA/6SaxPgAAAD8AAAAAAAA=
      >
      FLOATPOS 0 0 0 0
      FXID {6C388847-2A2F-4264-AA7A-4C4ACA9A9672}
      WAK 0
    >
    <ITEM
      POSITION 0.00000000000000
      SNAPOFFS 0.00000000000000
      LENGTH 170.89065289107387
      LOOP 0
      ALLTAKES 0
      SEL 0
      FADEIN 1 0.000000 0.000000 1 0
      FADEOUT 1 0.000000 0.000000 1 0
      MUTE 0
      IGUID {656317AD-B690-4307-9096-C4F4536C131B}
      IID 18
      NAME "PART REAL_KEYS_E"
      VOLPAN 1.000000 0.000000 1.000000 -1.000000
      SOFFS 0.00000000000000 0.00000000000000
      PLAYRATE 1.00000000000000 1 0.00000000000000 -65536
      CHANMODE 0
      GUID {43BDFFBF-75D6-4727-BD3F-08B25C56980C}
      <SOURCE MIDI
        HASDATA 1 480 QN
        POOLEDEVTS {7C4CDF67-9257-48D0-9462-CB72B59D3E08}
        <X 0 0
          /wNQQVJUIFJFQUxfS0VZU19F
        >
        E 0 90 09 60
        E 480 80 09 00
        E 180001 b0 7b 00
        GUID {F9363449-15E8-4EF0-8BC0-ABEB4CDC1D98}
        IGNTEMPO 0 120.00000000 4 4
        SRCCOLOR 78
        VELLANE 132 128 60
        COLORMAP "C:\Program Files\REAPER\Data\color_maps\rockband_guitarbass.png"
        TEXTSTRINGFILE "C:\Program Files\REAPER\Data\Text_Strings\Text Events List.txt"
        CFGEDITVIEW 1257.930012 0.103438 51 12 0 0 0
        CFGEDIT 1 1 0 0 1 1 1 1 1 1 1 0.25000000 0 0 683 728 1 0 0 2 0.12500000 0 0 0 0 0.500000 0 0 1.000000 64
        KEYSNAP 0 0 "102034050607" 0 "Major"
        EVTFILTER 0 -1 -1 -1 -1 0 1 0 0 -1.00000000 -1.00000000
      >
    >
  >
  <TRACK '{80604035-2BD9-43BB-A255-4E5F9E756779}'
    NAME "PART KEYS_ANIM_RH"
    PEAKCOL 16842624
    BEAT -1
    AUTOMODE 0
    VOLPAN 1.00000000000000 0.00000000000000 -1.00000000000000 -1.00000000000000 1.00000000000000
    MUTESOLO 1 0 0
    IPHASE 0
    ISBUS 0 0
    BUSCOMP 0 0
    SHOWINMIX 1 0.666700 0.500000 1 0.500000 -1 -1 -1
    FREEMODE 0
    SEL 0
    REC 0 0 0 0 0 0 0
    TRACKHEIGHT 0 0
    INQ 0 0 0 0.5000000000 100 0 0 100
    NCHAN 2
    FX 1
    TRACKID {80604035-2BD9-43BB-A255-4E5F9E756779}
    PERF 0
    MIDIOUT -1
    <MIDINOTENAMES
      0 48 "C2 (Lowest Note)"
      0 72 "C4 (Highest Note)"
      0 127 "Trill Marker"
      0 126 "Glissando Marker"
      0 125 "----"
      0 116 "Overdrive Marker"
      0 115 "Solo Marker"
      0 114 "----"
      0 71 "B3"
      0 70 "Bb3"
      0 69 "A3"
      0 68 "G#3"
      0 67 "G3"
      0 66 "F#3"
      0 65 "F3"
      0 64 "E3"
      0 63 "Eb3"
      0 62 "D3"
      0 61 "C#3"
      0 60 "C3"
      0 59 "B2"
      0 58 "Bb2"
      0 57 "A2"
      0 56 "G#2"
      0 55 "G2"
      0 54 "F#2"
      0 53 "F2"
      0 52 "E2"
      0 51 "Eb2"
      0 50 "D2"
      0 49 "C#2"
      0 47 "----"
      0 9 "A2-C4 Range"
      0 5 "F2-A3 Range"
      0 0 "C2-E3 Range"
      0 7 "G2-B3 Range"
      0 4 "E2-G3 Range"
      0 2 "D2-F3 Range"
    >
    MAINSEND 1 0
    <FXCHAIN
      SHOW 0
      LASTSEL 0
      DOCKED 0
    >
    <ITEM
      POSITION 0.00000000000000
      SNAPOFFS 0.00000000000000
      LENGTH 170.89065289107387
      LOOP 0
      ALLTAKES 0
      SEL 0
      FADEIN 1 0.000000 0.000000 1 0
      FADEOUT 1 0.000000 0.000000 1 0
      MUTE 0
      IGUID {6A43A4E9-6390-4FBA-9F07-B2C821A1720C}
      IID 19
      NAME "PART KEYS_ANIM_RH"
      VOLPAN 1.000000 0.000000 1.000000 -1.000000
      SOFFS 0.00000000000000 0.00000000000000
      PLAYRATE 1.00000000000000 1 0.00000000000000 -65536
      CHANMODE 0
      GUID {FA5AE238-E1D7-41F5-A663-4C49E4376041}
      <SOURCE MIDI
        HASDATA 1 480 QN
        POOLEDEVTS {B00A3E5C-1880-4AB2-B8BF-5877A124BAC6}
        <X 0 0
          /wNQQVJUIEtFWVNfQU5JTV9SSA==
        >
        E 180481 b0 7b 00
        GUID {268DE88D-9169-44F5-97A1-ABDA1E2CF031}
        IGNTEMPO 0 120.00000000 4 4
        SRCCOLOR 79
        VELLANE 132 128 60
        COLORMAP "C:\Program Files\REAPER\Data\color_maps\rockband_guitarbass.png"
        TEXTSTRINGFILE "C:\Program Files\REAPER\Data\Text_Strings\Text Events List.txt"
        CFGEDITVIEW 2612.554938 0.179136 51 12 0 0 0
        CFGEDIT 1 1 0 0 1 1 1 1 1 1 1 0.25000000 0 0 683 728 1 0 0 2 0.00000000 0 0 0 0 0.500000 0 0 1.000000 64
        KEYSNAP 0 0 "102034050607" 0 "Major"
        EVTFILTER 0 -1 -1 -1 -1 0 1 0 0 -1.00000000 -1.00000000
      >
    >
  >
  <TRACK '{F014911F-41F0-491C-9A25-C3D2A462D8D7}'
    NAME "PART KEYS_ANIM_LH"
    PEAKCOL 16842624
    BEAT -1
    AUTOMODE 0
    VOLPAN 1.00000000000000 0.00000000000000 -1.00000000000000 -1.00000000000000 1.00000000000000
    MUTESOLO 1 0 0
    IPHASE 0
    ISBUS 2 -1
    BUSCOMP 0 0
    SHOWINMIX 1 0.666700 0.500000 1 0.500000 -1 -1 -1
    FREEMODE 0
    SEL 0
    REC 0 0 0 0 0 0 0
    TRACKHEIGHT 0 0
    INQ 0 0 0 0.5000000000 100 0 0 100
    NCHAN 2
    FX 1
    TRACKID {F014911F-41F0-491C-9A25-C3D2A462D8D7}
    PERF 0
    MIDIOUT -1
    <MIDINOTENAMES
      0 48 "C2 (Lowest Note)"
      0 72 "C4 (Highest Note)"
      0 127 "Trill Marker"
      0 126 "Glissando Marker"
      0 125 "----"
      0 116 "Overdrive Marker"
      0 115 "Solo Marker"
      0 114 "----"
      0 71 "B3"
      0 70 "Bb3"
      0 69 "A3"
      0 68 "G#3"
      0 67 "G3"
      0 66 "F#3"
      0 65 "F3"
      0 64 "E3"
      0 63 "Eb3"
      0 62 "D3"
      0 61 "C#3"
      0 60 "C3"
      0 59 "B2"
      0 58 "Bb2"
      0 57 "A2"
      0 56 "G#2"
      0 55 "G2"
      0 54 "F#2"
      0 53 "F2"
      0 52 "E2"
      0 51 "Eb2"
      0 50 "D2"
      0 49 "C#2"
      0 47 "----"
      0 9 "A2-C4 Range"
      0 5 "F2-A3 Range"
      0 0 "C2-E3 Range"
      0 7 "G2-B3 Range"
      0 4 "E2-G3 Range"
      0 2 "D2-F3 Range"
    >
    MAINSEND 1 0
    <FXCHAIN
      SHOW 0
      LASTSEL 0
      DOCKED 0
    >
    <ITEM
      POSITION 0.00000000000000
      SNAPOFFS 0.00000000000000
      LENGTH 170.89065289107387
      LOOP 0
      ALLTAKES 0
      SEL 0
      FADEIN 1 0.000000 0.000000 1 0
      FADEOUT 1 0.000000 0.000000 1 0
      MUTE 0
      IGUID {F0F97A68-91AD-4B41-8D32-822B6159FDBC}
      IID 20
      NAME "PART KEYS_ANIM_LH"
      VOLPAN 1.000000 0.000000 1.000000 -1.000000
      SOFFS 0.00000000000000 0.00000000000000
      PLAYRATE 1.00000000000000 1 0.00000000000000 -65536
      CHANMODE 0
      GUID {214023C3-6BA4-450F-A73F-59780553B94C}
      <SOURCE MIDI
        HASDATA 1 480 QN
        POOLEDEVTS {A8D14DBD-9863-4AD1-BAAD-3D2AD4112251}
        <X 0 0
          /wNQQVJUIEtFWVNfQU5JTV9MSA==
        >
        E 180481 b0 7b 00
        GUID {9527D45A-14D5-4C89-A39E-3528B0F29941}
        IGNTEMPO 0 120.00000000 4 4
        SRCCOLOR 80
        VELLANE 132 128 60
        COLORMAP "C:\Program Files\REAPER\Data\color_maps\rockband_guitarbass.png"
        TEXTSTRINGFILE "C:\Program Files\REAPER\Data\Text_Strings\Text Events List.txt"
        CFGEDITVIEW -4299.275963 82.395269 11 17 0 0 0
        CFGEDIT 1 1 0 1 1 1 1 1 1 1 1 0.12500000 -8 -8 1374 736 1 2 1 2 0.00000000 0 0 0 0 0.500000 1 0 1.000000 64
        KEYSNAP 0 0 "102034050607" 0 "Major"
        EVTFILTER 0 -1 -1 -1 -1 0 1 0 0 -1.00000000 -1.00000000
      >
    >
  >
  <TRACK '{4BCC1CF3-63A3-43C4-A155-D3593AD88A10}'
    NAME "EVENTS"
    PEAKCOL 29393024
    BEAT -1
    AUTOMODE 0
    VOLPAN 1.00000000000000 0.00000000000000 -1.00000000000000 -1.00000000000000 1.00000000000000
    MUTESOLO 0 0 0
    IPHASE 0
    ISBUS 0 0
    BUSCOMP 0 0
    SHOWINMIX 1 0.666700 0.500000 1 0.500000 -1 -1 -1
    FREEMODE 0
    SEL 0
    REC 0 0 0 0 0 0 0
    TRACKHEIGHT 0 0
    INQ 0 0 0 0.5000000000 100 0 0 100
    NCHAN 2
    FX 1
    TRACKID {4BCC1CF3-63A3-43C4-A155-D3593AD88A10}
    PERF 0
    MIDIOUT -1
    MAINSEND 1 0
    <FXCHAIN
      SHOW 0
      LASTSEL 0
      DOCKED 0
    >
    <ITEM
      POSITION 0.00000000000000
      SNAPOFFS 0.00000000000000
      LENGTH 194.42992161488314
      LOOP 0
      ALLTAKES 0
      SEL 0
      FADEIN 1 0.000000 0.000000 1 0
      FADEOUT 1 0.000000 0.000000 1 0
      MUTE 0
      IGUID {86A06D27-867C-4398-9CE6-8F0526B3B594}
      IID 21
      NAME "EVENTS"
      VOLPAN 1.000000 0.000000 1.000000 -1.000000
      SOFFS 0.00000000000000 0.00000000000000
      PLAYRATE 1.00000000000000 1 0.00000000000000 -65536
      CHANMODE 0
      GUID {584C8192-4FF3-4E29-8138-2E6BD568B61A}
      <SOURCE MIDI
        HASDATA 1 480 QN
        POOLEDEVTS {B42068DC-DC69-4A53-9B24-A608843F1316}
        <X 0 0
          /wNFVkVOVFM=
        >
        <X 0 0
          /wFbY3Jvd2RfbWVsbG93XQ==
        >
        <X 0 0
          /wFbY3Jvd2Rfbm9jbGFwXQ==
        >
        <X 1920 0
          /wFbcHJjX2ludHJvXQ==
        >
        <X 1920 0
          /wFbbXVzaWNfc3RhcnRd
        >
        <X 3840 0
          /wFbcHJjX3ZlcnNlXzFhXQ==
        >
        <X 14880 0
          /wFbcHJjX3ZlcnNlXzFiXQ==
        >
        <X 8160 0
          /wFbcHJjX3ZlcnNlXzFjXQ==
        >
        <X 6720 0
          /wFbcHJjX2Nob3J1c18xYV0=
        >
        <X 3 0
          /wFbY3Jvd2RfaW50ZW5zZV0=
        >
        <X 15837 0
          /wFbcHJjX2Nob3J1c18xYl0=
        >
        <X 16800 0
          /wFbY3Jvd2Rfbm9ybWFsXQ==
        >
        <X 0 0
          /wFbcHJjX2JyaWRnZV9hXQ==
        >
        <X 13919 0
          /wFbY3Jvd2RfbWVsbG93XQ==
        >
        <X 1 0
          /wFbcHJjX3ZlcnNlXzJhXQ==
        >
        <X 15360 0
          /wFbcHJjX3ZlcnNlXzJiXQ==
        >
        <X 7200 0
          /wFbcHJjX2Nob3J1c18yYV0=
        >
        <X 0 0
          /wFbY3Jvd2RfaW50ZW5zZV0=
        >
        <X 15840 0
          /wFbcHJjX2Nob3J1c18yYl0=
        >
        <X 19211 0
          /wFbY3Jvd2Rfbm9ybWFsXQ==
        >
        <X 12952 0
          /wFbY3Jvd2RfaW50ZW5zZV0=
        >
        <X 13917 0
          /wFbcHJjX291dHJvXQ==
        >
        <X 34080 0
          /wFbbXVzaWNfZW5kXQ==
        >
        <X 1920 0
          /wFbZW5kXQ==
        >
        E 845 b0 7b 00
        GUID {40AD7956-A22A-434A-8513-4D3792B9DF69}
        IGNTEMPO 0 120.00000000 4 4
        SRCCOLOR 81
        VELLANE 132 100 100
        COLORMAP "M:\RGS Documents\ColorMaps\rockband_vox-other.png"
        TEXTSTRINGFILE "Text Events List.txt"
        CFGEDITVIEW 139218.792396 44.158651 42 48 0 0 0
        CFGEDIT 1 1 0 0 0 1 1 1 1 1 1 1.00000000 44 63 1223 847 1 2 1 2 0.00000000 0 0 0 0 0.500000 1 0 1.000000 64
        KEYSNAP 0 0 "102034050607" 0 "Major"
        EVTFILTER 0 -1 -1 -1 -1 0 1 0 0 -1.00000000 -1.00000000
      >
    >
  >
  <TRACK '{1529008F-97D2-43EB-8634-7C5A7418AD90}'
    NAME "VENUE"
    PEAKCOL 16842496
    BEAT -1
    AUTOMODE 0
    VOLPAN 1.00000000000000 0.00000000000000 -1.00000000000000 -1.00000000000000 1.00000000000000
    MUTESOLO 0 0 0
    IPHASE 0
    ISBUS 0 0
    BUSCOMP 0 0
    SHOWINMIX 1 0.666700 0.500000 1 0.500000 -1 -1 -1
    FREEMODE 0
    SEL 0
    REC 0 0 0 0 0 0 0
    TRACKHEIGHT 0 0
    INQ 0 0 0 0.5000000000 100 0 0 100
    NCHAN 2
    FX 1
    TRACKID {1529008F-97D2-43EB-8634-7C5A7418AD90}
    PERF 0
    MIDIOUT -1
    <MIDINOTENAMES
      0 87 "Guitarist Sing Along"
      0 86 "Drummer Sing Along"
      0 85 "Bassist Sing Along"
      0 40 "Spotlight on Vocals"
      0 39 "Spotlight on Guitar"
      0 38 "Spotlight on Drums"
      0 37 "Spotlight on Bass"
      0 41 "Spotlight on Keys"
    >
    MAINSEND 1 0
    <FXCHAIN
      SHOW 0
      LASTSEL 0
      DOCKED 0
    >
    <ITEM
      POSITION 0.00000000000000
      SNAPOFFS 0.00000000000000
      LENGTH 194.42992161488314
      LOOP 0
      ALLTAKES 0
      SEL 0
      FADEIN 1 0.000000 0.000000 1 0
      FADEOUT 1 0.000000 0.000000 1 0
      MUTE 0
      IGUID {71027329-E0AB-447D-A192-4839733334E7}
      IID 22
      NAME "VENUE"
      VOLPAN 1.000000 0.000000 1.000000 -1.000000
      SOFFS 0.00000000000000 0.00000000000000
      PLAYRATE 1.00000000000000 1 0.00000000000000 -65536
      CHANMODE 0
      GUID {44F0FFD1-5109-4A47-8BED-262AA04D3B23}
      <SOURCE MIDI
        HASDATA 1 480 QN
        POOLEDEVTS {B43C2E5F-61EE-4856-99C4-9A9FB59CCDFB}
        <X 0 0
          /wNWRU5VRQ==
        >
        <X 0 0
          /wFbbGlnaHRpbmcgKCld
        >
        E 38400 90 55 60
        E 0 90 56 60
        E 0 90 57 60
        E 1800 80 55 00
        E 0 80 56 00
        E 0 80 57 00
        E 5760 90 55 60
        E 0 90 56 60
        E 0 90 57 60
        E 1920 80 55 00
        E 0 80 56 00
        E 0 80 57 00
        E 13560 90 55 60
        E 0 90 56 60
        E 0 90 57 60
        E 1920 80 55 00
        E 0 80 56 00
        E 0 80 57 00
        E 7800 90 55 60
        E 0 90 56 60
        E 0 90 57 60
        E 2040 80 55 00
        E 0 80 56 00
        E 0 80 57 00
        E 5760 90 55 60
        E 0 90 56 60
        E 0 90 57 60
        E 1920 80 55 00
        E 0 80 56 00
        E 0 80 57 00
        E 26640 90 55 60
        E 0 90 56 60
        E 0 90 57 60
        E 1920 80 55 00
        E 0 80 56 00
        E 0 80 57 00
        E 5640 90 55 60
        E 0 90 56 60
        E 0 90 57 60
        E 1920 80 55 00
        E 0 80 56 00
        E 0 80 57 00
        E 13560 90 55 60
        E 0 90 56 60
        E 0 90 57 60
        E 1920 80 55 00
        E 0 80 56 00
        E 0 80 57 00
        E 23040 90 55 60
        E 0 90 56 60
        E 0 90 57 60
        E 1920 80 55 00
        E 0 80 56 00
        E 0 80 57 00
        E 5640 90 55 60
        E 0 90 56 60
        E 0 90 57 60
        E 1920 80 55 00
        E 0 80 56 00
        E 0 80 57 00
        E 13560 90 55 60
        E 0 90 56 60
        E 0 90 57 60
        E 1920 80 55 00
        E 0 80 56 00
        E 0 80 57 00
        E 7920 90 55 60
        E 0 90 56 60
        E 0 90 57 60
        E 1920 80 55 00
        E 0 80 56 00
        E 0 80 57 00
        E 5640 90 55 60
        E 0 90 56 60
        E 0 90 57 60
        E 2040 80 55 00
        E 0 80 56 00
        E 0 80 57 00
        E 7325 b0 7b 00
        GUID {30097062-47C5-4B33-B665-170EF09D70D9}
        IGNTEMPO 0 120.00000000 4 4
        SRCCOLOR 82
        VELLANE 132 230 230
        COLORMAP "M:\RGS Documents\ColorMaps\rockband_vox-other.png"
        TEXTSTRINGFILE "Text Events List.txt"
        CFGEDITVIEW 139218.792396 44.158651 42 12 0 0 0
        CFGEDIT 1 1 0 0 1 1 1 1 1 1 1 0.25000000 133 19 1300 803 1 0 1 2 0.00000000 0 0 0 0 0.500000 1 0 1.000000 64
        KEYSNAP 0 0 "102034050607" 0 "Major"
        EVTFILTER 0 -1 -1 -1 -1 0 1 0 0 -1.00000000 -1.00000000
      >
    >
  >
  <TRACK '{7BC63EFC-0ABC-4D0D-8204-E9893AE9FFFA}'
    NAME "BEAT"
    PEAKCOL 23514346
    BEAT -1
    AUTOMODE 0
    VOLPAN 1.00000000000000 0.00000000000000 -1.00000000000000 -1.00000000000000 1.00000000000000
    MUTESOLO 0 0 0
    IPHASE 0
    ISBUS 0 0
    BUSCOMP 1 0
    SHOWINMIX 1 0.666700 0.500000 1 0.500000 -1 -1 -1
    FREEMODE 0
    SEL 0
    REC 0 0 0 0 0 0 0
    TRACKHEIGHT 0 0
    INQ 0 0 0 0.5000000000 100 0 0 100
    NCHAN 2
    FX 1
    TRACKID {7BC63EFC-0ABC-4D0D-8204-E9893AE9FFFA}
    PERF 0
    MIDIOUT -1
    <MIDINOTENAMES
      0 12 "Downbeat"
      0 13 "Up Beats"
    >
    MAINSEND 1 0
    <FXCHAIN
      SHOW 0
      LASTSEL 0
      DOCKED 0
    >
    <ITEM
      POSITION 0.00000000000000
      SNAPOFFS 0.00000000000000
      LENGTH 194.42992161488314
      LOOP 0
      ALLTAKES 0
      SEL 0
      FADEIN 1 0.000000 0.000000 1 0
      FADEOUT 1 0.000000 0.000000 1 0
      MUTE 0
      IGUID {9960CDFD-BF2E-4E67-97CD-4F13D0A3F2ED}
      IID 23
      NAME "BEAT"
      VOLPAN 1.000000 0.000000 1.000000 -1.000000
      SOFFS 0.00000000000000 0.00000000000000
      PLAYRATE 1.00000000000000 1 0.00000000000000 -65536
      CHANMODE 0
      GUID {CEBFDCF1-B2BD-47E1-A085-C26E1C9E9ED2}
      <SOURCE MIDI
        HASDATA 1 480 QN
        POOLEDEVTS {6E385DF3-125E-4B04-9783-795990BA24D9}
        <X 0 0
          /wNCRUFU
        >
        e 0 96 0c 64
        e 120 86 0c 00
        e 360 96 0d 64
        e 120 86 0d 00
        e 360 96 0d 64
        e 120 86 0d 00
        e 360 96 0d 64
        e 120 86 0d 00
        e 360 96 0c 64
        e 120 86 0c 00
        e 360 96 0d 64
        e 120 86 0d 00
        e 360 96 0d 64
        e 120 86 0d 00
        e 360 96 0d 64
        e 120 86 0d 00
        e 360 96 0c 64
        e 120 86 0c 00
        e 360 96 0d 64
        e 120 86 0d 00
        e 360 96 0d 64
        e 120 86 0d 00
        e 360 96 0d 64
        e 120 86 0d 00
        e 360 96 0c 64
        e 120 86 0c 00
        e 360 96 0d 64
        e 120 86 0d 00
        e 360 96 0d 64
        e 120 86 0d 00
        e 360 96 0d 64
        e 120 86 0d 00
        e 360 96 0c 64
        e 120 86 0c 00
        e 360 96 0d 64
        e 120 86 0d 00
        e 360 96 0d 64
        e 120 86 0d 00
        e 360 96 0d 64
        e 120 86 0d 00
        e 360 96 0c 64
        e 120 86 0c 00
        e 360 96 0d 64
        e 120 86 0d 00
        e 360 96 0d 64
        e 120 86 0d 00
        e 360 96 0d 64
        e 120 86 0d 00
        e 360 96 0c 64
        e 120 86 0c 00
        e 360 96 0d 64
        e 120 86 0d 00
        e 360 96 0d 64
        e 120 86 0d 00
        e 360 96 0d 64
        e 120 86 0d 00
        e 360 96 0c 64
        e 120 86 0c 00
        e 360 96 0d 64
        e 120 86 0d 00
        e 360 96 0d 64
        e 120 86 0d 00
        e 360 96 0d 64
        e 120 86 0d 00
        e 360 96 0c 64
        e 120 86 0c 00
        e 360 96 0d 64
        e 120 86 0d 00
        e 360 96 0d 64
        e 120 86 0d 00
        e 360 96 0d 64
        e 120 86 0d 00
        e 360 96 0c 64
        e 120 86 0c 00
        e 360 96 0d 64
        e 120 86 0d 00
        e 360 96 0d 64
        e 120 86 0d 00
        e 360 96 0d 64
        e 120 86 0d 00
        e 360 96 0c 64
        e 120 86 0c 00
        e 360 96 0d 64
        e 120 86 0d 00
        e 360 96 0d 64
        e 120 86 0d 00
        e 360 96 0d 64
        e 120 86 0d 00
        e 360 96 0c 64
        e 120 86 0c 00
        e 360 96 0d 64
        e 120 86 0d 00
        e 360 96 0d 64
        e 120 86 0d 00
        e 360 96 0d 64
        e 120 86 0d 00
        e 360 96 0c 64
        e 120 86 0c 00
        e 360 96 0d 64
        e 120 86 0d 00
        e 360 96 0d 64
        e 120 86 0d 00
        e 360 96 0d 64
        e 120 86 0d 00
        e 360 96 0c 64
        e 120 86 0c 00
        e 360 96 0d 64
        e 120 86 0d 00
        e 360 96 0d 64
        e 120 86 0d 00
        e 360 96 0d 64
        e 120 86 0d 00
        e 360 96 0c 64
        e 120 86 0c 00
        e 360 96 0d 64
        e 120 86 0d 00
        e 360 96 0d 64
        e 120 86 0d 00
        e 360 96 0d 64
        e 120 86 0d 00
        e 360 96 0c 64
        e 120 86 0c 00
        e 360 96 0d 64
        e 120 86 0d 00
        e 360 96 0d 64
        e 120 86 0d 00
        e 360 96 0d 64
        e 120 86 0d 00
        e 360 96 0c 64
        e 120 86 0c 00
        e 360 96 0d 64
        e 120 86 0d 00
        e 360 96 0d 64
        e 120 86 0d 00
        e 360 96 0d 64
        e 120 86 0d 00
        e 360 96 0c 64
        e 120 86 0c 00
        e 360 96 0d 64
        e 120 86 0d 00
        e 360 96 0d 64
        e 120 86 0d 00
        e 360 96 0d 64
        e 120 86 0d 00
        e 360 96 0c 64
        e 120 86 0c 00
        e 360 96 0d 64
        e 120 86 0d 00
        e 360 96 0d 64
        e 120 86 0d 00
        e 360 96 0d 64
        e 120 86 0d 00
        e 360 96 0c 64
        e 120 86 0c 00
        e 360 96 0d 64
        e 120 86 0d 00
        e 360 96 0d 64
        e 120 86 0d 00
        e 360 96 0d 64
        e 120 86 0d 00
        e 360 96 0c 64
        e 120 86 0c 00
        e 360 96 0d 64
        e 120 86 0d 00
        e 360 96 0d 64
        e 120 86 0d 00
        e 360 96 0d 64
        e 120 86 0d 00
        e 360 96 0c 64
        e 120 86 0c 00
        e 360 96 0d 64
        e 120 86 0d 00
        e 360 96 0d 64
        e 120 86 0d 00
        e 360 96 0d 64
        e 120 86 0d 00
        e 360 96 0c 64
        e 120 86 0c 00
        e 360 96 0d 64
        e 120 86 0d 00
        e 360 96 0d 64
        e 120 86 0d 00
        e 360 96 0d 64
        e 120 86 0d 00
        e 360 96 0c 64
        e 120 86 0c 00
        e 360 96 0d 64
        e 120 86 0d 00
        e 360 96 0d 64
        e 120 86 0d 00
        e 360 96 0d 64
        e 120 86 0d 00
        e 360 96 0c 64
        e 120 86 0c 00
        e 360 96 0d 64
        e 120 86 0d 00
        e 360 96 0d 64
        e 120 86 0d 00
        e 360 96 0d 64
        e 120 86 0d 00
        e 360 96 0c 64
        e 120 86 0c 00
        e 360 96 0d 64
        e 120 86 0d 00
        e 360 96 0d 64
        e 120 86 0d 00
        e 360 96 0d 64
        e 120 86 0d 00
        e 360 96 0c 64
        e 120 86 0c 00
        e 360 96 0d 64
        e 120 86 0d 00
        e 360 96 0d 64
        e 120 86 0d 00
        e 360 96 0d 64
        e 120 86 0d 00
        e 360 96 0c 64
        e 120 86 0c 00
        e 360 96 0d 64
        e 120 86 0d 00
        e 360 96 0d 64
        e 120 86 0d 00
        e 360 96 0d 64
        e 120 86 0d 00
        e 360 96 0c 64
        e 120 86 0c 00
        e 360 96 0d 64
        e 120 86 0d 00
        e 360 96 0d 64
        e 120 86 0d 00
        e 360 96 0d 64
        e 120 86 0d 00
        e 360 96 0c 64
        e 120 86 0c 00
        e 360 96 0d 64
        e 120 86 0d 00
        e 360 96 0d 64
        e 120 86 0d 00
        e 360 96 0d 64
        e 120 86 0d 00
        e 360 96 0c 64
        e 120 86 0c 00
        e 360 96 0d 64
        e 120 86 0d 00
        e 360 96 0d 64
        e 120 86 0d 00
        e 360 96 0d 64
        e 120 86 0d 00
        e 360 96 0c 64
        e 120 86 0c 00
        e 360 96 0d 64
        e 120 86 0d 00
        e 360 96 0d 64
        e 120 86 0d 00
        e 360 96 0d 64
        e 120 86 0d 00
        e 360 96 0c 64
        e 120 86 0c 00
        e 360 96 0d 64
        e 120 86 0d 00
        e 360 96 0d 64
        e 120 86 0d 00
        e 360 96 0d 64
        e 120 86 0d 00
        e 360 96 0c 64
        e 120 86 0c 00
        e 360 96 0d 64
        e 120 86 0d 00
        e 360 96 0d 64
        e 120 86 0d 00
        e 360 96 0d 64
        e 120 86 0d 00
        e 360 96 0c 64
        e 120 86 0c 00
        e 360 96 0d 64
        e 120 86 0d 00
        e 360 96 0d 64
        e 120 86 0d 00
        e 360 96 0d 64
        e 120 86 0d 00
        e 360 96 0c 64
        e 120 86 0c 00
        e 360 96 0d 64
        e 120 86 0d 00
        e 360 96 0d 64
        e 120 86 0d 00
        e 360 96 0d 64
        e 120 86 0d 00
        e 360 96 0c 64
        e 120 86 0c 00
        e 360 96 0d 64
        e 120 86 0d 00
        e 360 96 0d 64
        e 120 86 0d 00
        e 360 96 0d 64
        e 120 86 0d 00
        e 360 96 0c 64
        e 120 86 0c 00
        e 360 96 0d 64
        e 120 86 0d 00
        e 360 96 0d 64
        e 120 86 0d 00
        e 360 96 0d 64
        e 120 86 0d 00
        e 360 96 0c 64
        e 120 86 0c 00
        e 360 96 0d 64
        e 120 86 0d 00
        e 360 96 0d 64
        e 120 86 0d 00
        e 360 96 0d 64
        e 120 86 0d 00
        e 360 96 0c 64
        e 120 86 0c 00
        e 360 96 0d 64
        e 120 86 0d 00
        e 360 96 0d 64
        e 120 86 0d 00
        e 360 96 0d 64
        e 120 86 0d 00
        e 360 96 0c 64
        e 120 86 0c 00
        e 360 96 0d 64
        e 120 86 0d 00
        e 360 96 0d 64
        e 120 86 0d 00
        e 360 96 0d 64
        e 120 86 0d 00
        e 360 96 0c 64
        e 120 86 0c 00
        e 360 96 0d 64
        e 120 86 0d 00
        e 360 96 0d 64
        e 120 86 0d 00
        e 360 96 0d 64
        e 120 86 0d 00
        e 360 96 0c 64
        e 120 86 0c 00
        e 360 96 0d 64
        e 120 86 0d 00
        e 360 96 0d 64
        e 120 86 0d 00
        e 360 96 0d 64
        e 120 86 0d 00
        e 360 96 0c 64
        e 120 86 0c 00
        e 360 96 0d 64
        e 120 86 0d 00
        e 360 96 0d 64
        e 120 86 0d 00
        e 360 96 0d 64
        e 120 86 0d 00
        e 360 96 0c 64
        e 120 86 0c 00
        e 360 96 0d 64
        e 120 86 0d 00
        e 360 96 0d 64
        e 120 86 0d 00
        e 360 96 0d 64
        e 120 86 0d 00
        e 360 96 0c 64
        e 120 86 0c 00
        e 360 96 0d 64
        e 120 86 0d 00
        e 360 96 0d 64
        e 120 86 0d 00
        e 360 96 0d 64
        e 120 86 0d 00
        e 360 96 0c 64
        e 120 86 0c 00
        e 360 96 0d 64
        e 120 86 0d 00
        e 360 96 0d 64
        e 120 86 0d 00
        e 360 96 0d 64
        e 120 86 0d 00
        e 360 96 0c 64
        e 120 86 0c 00
        e 360 96 0d 64
        e 120 86 0d 00
        e 360 96 0d 64
        e 120 86 0d 00
        e 360 96 0d 64
        e 120 86 0d 00
        e 360 96 0c 64
        e 120 86 0c 00
        e 360 96 0d 64
        e 120 86 0d 00
        e 360 96 0d 64
        e 120 86 0d 00
        e 360 96 0d 64
        e 120 86 0d 00
        e 360 96 0c 64
        e 120 86 0c 00
        e 360 96 0d 64
        e 120 86 0d 00
        e 360 96 0d 64
        e 120 86 0d 00
        e 360 96 0d 64
        e 120 86 0d 00
        e 360 96 0c 64
        e 120 86 0c 00
        e 360 96 0d 64
        e 120 86 0d 00
        e 360 96 0d 64
        e 120 86 0d 00
        e 360 96 0d 64
        e 120 86 0d 00
        e 360 96 0c 64
        e 120 86 0c 00
        e 360 96 0d 64
        e 120 86 0d 00
        e 360 96 0d 64
        e 120 86 0d 00
        e 360 96 0d 64
        e 120 86 0d 00
        e 360 96 0c 64
        e 120 86 0c 00
        e 360 96 0d 64
        e 120 86 0d 00
        e 360 96 0d 64
        e 120 86 0d 00
        e 360 96 0d 64
        e 120 86 0d 00
        e 360 96 0c 64
        e 120 86 0c 00
        e 360 96 0d 64
        e 120 86 0d 00
        e 360 96 0d 64
        e 120 86 0d 00
        e 360 96 0d 64
        e 120 86 0d 00
        e 360 96 0c 64
        e 120 86 0c 00
        e 360 96 0d 64
        e 120 86 0d 00
        e 360 96 0d 64
        e 120 86 0d 00
        e 360 96 0d 64
        e 120 86 0d 00
        e 360 96 0c 64
        e 120 86 0c 00
        e 360 96 0d 64
        e 120 86 0d 00
        e 360 96 0d 64
        e 120 86 0d 00
        e 360 96 0d 64
        e 120 86 0d 00
        e 360 96 0c 64
        e 120 86 0c 00
        e 360 96 0d 64
        e 120 86 0d 00
        e 360 96 0d 64
        e 120 86 0d 00
        e 360 96 0d 64
        e 120 86 0d 00
        e 360 96 0c 64
        e 120 86 0c 00
        e 360 96 0d 64
        e 120 86 0d 00
        e 360 96 0d 64
        e 120 86 0d 00
        e 360 96 0d 64
        e 120 86 0d 00
        e 360 96 0c 64
        e 120 86 0c 00
        e 360 96 0d 64
        e 120 86 0d 00
        e 360 96 0d 64
        e 120 86 0d 00
        e 360 96 0d 64
        e 120 86 0d 00
        e 360 96 0c 64
        e 120 86 0c 00
        e 360 96 0d 64
        e 120 86 0d 00
        e 360 96 0d 64
        e 120 86 0d 00
        e 360 96 0d 64
        e 120 86 0d 00
        e 360 96 0c 64
        e 120 86 0c 00
        e 360 96 0d 64
        e 120 86 0d 00
        e 360 96 0d 64
        e 120 86 0d 00
        e 360 96 0d 64
        e 120 86 0d 00
        e 360 96 0c 64
        e 120 86 0c 00
        e 360 96 0d 64
        e 120 86 0d 00
        e 360 96 0d 64
        e 120 86 0d 00
        e 360 96 0d 64
        e 120 86 0d 00
        e 360 96 0c 64
        e 120 86 0c 00
        e 360 96 0d 64
        e 120 86 0d 00
        e 360 96 0d 64
        e 120 86 0d 00
        e 360 96 0d 64
        e 120 86 0d 00
        e 360 96 0c 64
        e 120 86 0c 00
        e 360 96 0d 64
        e 120 86 0d 00
        e 360 96 0d 64
        e 120 86 0d 00
        e 360 96 0d 64
        e 120 86 0d 00
        e 360 96 0c 64
        e 120 86 0c 00
        e 360 96 0d 64
        e 120 86 0d 00
        e 360 96 0d 64
        e 120 86 0d 00
        e 360 96 0d 64
        e 120 86 0d 00
        e 360 96 0c 64
        e 120 86 0c 00
        e 360 96 0d 64
        e 120 86 0d 00
        e 360 96 0d 64
        e 120 86 0d 00
        e 360 96 0d 64
        e 120 86 0d 00
        e 360 96 0c 64
        e 120 86 0c 00
        e 360 96 0d 64
        e 120 86 0d 00
        e 360 96 0d 64
        e 120 86 0d 00
        e 360 96 0d 64
        e 120 86 0d 00
        e 360 96 0c 64
        e 120 86 0c 00
        e 360 96 0d 64
        e 120 86 0d 00
        e 360 96 0d 64
        e 120 86 0d 00
        e 360 96 0d 64
        e 120 86 0d 00
        e 360 96 0c 64
        e 120 86 0c 00
        e 360 96 0d 64
        e 120 86 0d 00
        e 360 96 0d 64
        e 120 86 0d 00
        e 360 96 0d 64
        e 120 86 0d 00
        e 360 96 0c 64
        e 120 86 0c 00
        e 360 96 0d 64
        e 120 86 0d 00
        e 360 96 0d 64
        e 120 86 0d 00
        e 360 96 0d 64
        e 120 86 0d 00
        e 360 96 0c 64
        e 120 86 0c 00
        e 360 96 0d 64
        e 120 86 0d 00
        e 360 96 0d 64
        e 120 86 0d 00
        e 360 96 0d 64
        e 120 86 0d 00
        e 360 96 0c 64
        e 120 86 0c 00
        e 360 96 0d 64
        e 120 86 0d 00
        e 360 96 0d 64
        e 120 86 0d 00
        e 360 96 0d 64
        e 120 86 0d 00
        e 360 96 0c 64
        e 120 86 0c 00
        e 360 96 0d 64
        e 120 86 0d 00
        e 360 96 0d 64
        e 120 86 0d 00
        e 360 96 0d 64
        e 120 86 0d 00
        e 360 96 0c 64
        e 120 86 0c 00
        e 360 96 0d 64
        e 120 86 0d 00
        e 360 96 0d 64
        e 120 86 0d 00
        e 360 96 0d 64
        e 120 86 0d 00
        e 360 96 0c 64
        e 120 86 0c 00
        e 360 96 0d 64
        e 120 86 0d 00
        e 360 96 0d 64
        e 120 86 0d 00
        e 360 96 0d 64
        e 120 86 0d 00
        e 360 96 0c 64
        e 120 86 0c 00
        e 360 96 0d 64
        e 120 86 0d 00
        e 360 96 0d 64
        e 120 86 0d 00
        e 360 96 0d 64
        e 120 86 0d 00
        e 360 96 0c 64
        e 120 86 0c 00
        e 360 96 0d 64
        e 120 86 0d 00
        e 360 96 0d 64
        e 120 86 0d 00
        e 360 96 0d 64
        e 120 86 0d 00
        e 360 96 0c 64
        e 120 86 0c 00
        e 360 96 0d 64
        e 120 86 0d 00
        e 360 96 0d 64
        e 120 86 0d 00
        e 360 96 0d 64
        e 120 86 0d 00
        e 360 96 0c 64
        e 120 86 0c 00
        e 360 96 0d 64
        e 120 86 0d 00
        e 360 96 0d 64
        e 120 86 0d 00
        e 360 96 0d 64
        e 120 86 0d 00
        e 360 96 0c 64
        e 120 86 0c 00
        e 360 96 0d 64
        e 120 86 0d 00
        e 360 96 0d 64
        e 120 86 0d 00
        e 360 96 0d 64
        e 120 86 0d 00
        e 360 96 0c 64
        e 120 86 0c 00
        e 360 96 0d 64
        e 120 86 0d 00
        e 360 96 0d 64
        e 120 86 0d 00
        e 360 96 0d 64
        e 120 86 0d 00
        e 360 96 0c 64
        e 120 86 0c 00
        e 360 96 0d 64
        e 120 86 0d 00
        e 360 96 0d 64
        e 120 86 0d 00
        e 360 96 0d 64
        e 120 86 0d 00
        e 360 96 0c 64
        e 120 86 0c 00
        e 360 96 0d 64
        e 120 86 0d 00
        e 360 96 0d 64
        e 120 86 0d 00
        e 360 96 0d 64
        e 120 86 0d 00
        e 360 96 0c 64
        e 120 86 0c 00
        e 360 96 0d 64
        e 120 86 0d 00
        e 360 96 0d 64
        e 120 86 0d 00
        e 360 96 0d 64
        e 120 86 0d 00
        e 360 96 0c 64
        e 120 86 0c 00
        e 360 96 0d 64
        e 120 86 0d 00
        e 360 96 0d 64
        e 120 86 0d 00
        e 360 96 0d 64
        e 120 86 0d 00
        e 360 96 0c 64
        e 120 86 0c 00
        e 360 96 0d 64
        e 120 86 0d 00
        e 360 96 0d 64
        e 120 86 0d 00
        e 360 96 0d 64
        e 120 86 0d 00
        e 360 96 0c 64
        e 120 86 0c 00
        e 360 96 0d 64
        e 120 86 0d 00
        e 360 96 0d 64
        e 120 86 0d 00
        e 360 96 0d 64
        e 120 86 0d 00
        e 360 96 0c 64
        e 120 86 0c 00
        e 360 96 0d 64
        e 120 86 0d 00
        e 360 96 0d 64
        e 120 86 0d 00
        e 360 96 0d 64
        e 120 86 0d 00
        e 360 96 0c 64
        e 120 86 0c 00
        e 360 96 0d 64
        e 120 86 0d 00
        e 360 96 0d 64
        e 120 86 0d 00
        e 360 96 0d 64
        e 120 86 0d 00
        e 360 96 0c 64
        e 120 86 0c 00
        e 360 96 0d 64
        e 120 86 0d 00
        e 360 96 0d 64
        e 120 86 0d 00
        e 360 96 0d 64
        e 120 86 0d 00
        e 360 96 0c 64
        e 120 86 0c 00
        e 360 96 0d 64
        e 120 86 0d 00
        e 360 96 0d 64
        e 120 86 0d 00
        e 360 96 0d 64
        e 120 86 0d 00
        e 360 96 0c 64
        e 120 86 0c 00
        e 360 96 0d 64
        e 120 86 0d 00
        e 360 96 0d 64
        e 120 86 0d 00
        e 360 96 0d 64
        e 120 86 0d 00
        e 360 96 0c 64
        e 120 86 0c 00
        e 360 96 0d 64
        e 120 86 0d 00
        e 360 96 0d 64
        e 120 86 0d 00
        e 360 96 0d 64
        e 120 86 0d 00
        e 360 96 0c 64
        e 120 86 0c 00
        e 360 96 0d 64
        e 120 86 0d 00
        e 360 96 0d 64
        e 120 86 0d 00
        e 360 96 0d 64
        e 120 86 0d 00
        e 360 96 0c 64
        e 120 86 0c 00
        e 360 96 0d 64
        e 120 86 0d 00
        e 360 96 0d 64
        e 120 86 0d 00
        e 360 96 0d 64
        e 120 86 0d 00
        e 360 96 0c 64
        e 120 86 0c 00
        e 360 96 0d 64
        e 120 86 0d 00
        e 360 96 0d 64
        e 120 86 0d 00
        e 360 96 0d 64
        e 120 86 0d 00
        e 360 96 0c 64
        e 120 86 0c 00
        e 360 96 0d 64
        e 120 86 0d 00
        e 360 96 0d 64
        e 120 86 0d 00
        e 360 96 0d 64
        e 120 86 0d 00
        e 360 96 0c 64
        e 120 86 0c 00
        e 360 96 0d 64
        e 120 86 0d 00
        e 360 96 0d 64
        e 120 86 0d 00
        e 360 96 0d 64
        e 120 86 0d 00
        e 360 96 0c 64
        e 120 86 0c 00
        e 360 96 0d 64
        e 120 86 0d 00
        e 360 96 0d 64
        e 120 86 0d 00
        e 360 96 0d 64
        e 120 86 0d 00
        e 360 96 0c 64
        e 120 86 0c 00
        e 360 96 0d 64
        e 120 86 0d 00
        e 360 96 0d 64
        e 120 86 0d 00
        e 360 96 0d 64
        e 120 86 0d 00
        e 360 96 0c 64
        e 120 86 0c 00
        e 360 96 0d 64
        e 120 86 0d 00
        e 360 96 0d 64
        e 120 86 0d 00
        e 360 96 0d 64
        e 120 86 0d 00
        e 360 96 0c 64
        e 120 86 0c 00
        e 360 96 0d 64
        e 120 86 0d 00
        e 360 96 0d 64
        e 120 86 0d 00
        e 360 96 0d 64
        e 120 86 0d 00
        e 360 96 0c 64
        e 120 86 0c 00
        e 360 96 0d 64
        e 120 86 0d 00
        e 360 96 0d 64
        e 120 86 0d 00
        e 360 96 0d 64
        e 120 86 0d 00
        e 360 96 0c 64
        e 120 86 0c 00
        e 360 96 0d 64
        e 120 86 0d 00
        e 360 96 0d 64
        e 120 86 0d 00
        e 360 96 0d 64
        e 120 86 0d 00
        e 360 96 0c 64
        e 120 86 0c 00
        e 360 96 0d 64
        e 120 86 0d 00
        e 360 96 0d 64
        e 120 86 0d 00
        e 360 96 0d 64
        e 120 86 0d 00
        e 360 96 0c 64
        e 120 86 0c 00
        e 360 96 0d 64
        e 120 86 0d 00
        e 360 96 0d 64
        e 120 86 0d 00
        e 360 96 0d 64
        e 120 86 0d 00
        e 360 96 0c 64
        e 120 86 0c 00
        e 360 96 0d 64
        e 120 86 0d 00
        E 1205 b0 7b 00
        GUID {8CB930E8-B6A0-4CAD-825A-9F47FB66C1D0}
        IGNTEMPO 0 120.00000000 4 4
        SRCCOLOR 83
        VELLANE 132 100 100
        COLORMAP "M:\RGS Documents\ColorMaps\rockband_vox-other.png"
        TEXTSTRINGFILE "Text Events List.txt"
        CFGEDITVIEW 192330.879672 343.271116 0 48 0 0 0
        CFGEDIT 1 1 0 0 0 1 1 1 1 1 1 1.00000000 44 63 1223 847 1 2 1 2 0.00000000 0 0 0 0 0.500000 1 0 1.000000 64
        KEYSNAP 0 0 "102034050607" 0 "Major"
        EVTFILTER 0 -1 -1 -1 -1 0 1 0 0 -1.00000000 -1.00000000
      >
    >
  >
  <TRACK '{0E2FE3F2-76C0-4A51-94D0-F118951ACC28}'
    NAME "PART REAL_GUITAR"
    PEAKCOL 16576
    BEAT -1
    AUTOMODE 0
    VOLPAN 1.00000000000000 0.00000000000000 -1.00000000000000 -1.00000000000000 1.00000000000000
    MUTESOLO 1 0 0
    IPHASE 0
    ISBUS 0 0
    BUSCOMP 0 0
    SHOWINMIX 1 0.666700 0.500000 1 0.500000 -1 -1 -1
    FREEMODE 0
    SEL 0
    REC 0 0 0 0 0 0 0
    TRACKHEIGHT 0 0
    INQ 0 0 0 0.5000000000 100 0 0 100
    NCHAN 2
    FX 1
    TRACKID {0E2FE3F2-76C0-4A51-94D0-F118951ACC28}
    PERF 0
    MIDIOUT -1
    <MIDINOTENAMES
      0 101 "EXPERT E String (HIGH)"
      0 100 "EXPERT B String"
      0 99 "EXPERT G String"
      0 98 "EXPERT D String"
      0 97 "EXPERT A String"
      0 96 "EXPERT E String (LOW)"
      0 77 "HARD E String (HIGH)"
      0 72 "HARD E String (LOW)"
      0 53 "MEDIUM E String (HIGH)"
      0 48 "MEDIUM E String (LOW)"
      0 29 "EASY E String (HIGH)"
      0 24 "EASY E String (LOW)"
      0 76 "HARD B String"
      0 75 "HARD G String"
      0 74 "HARD D String"
      0 73 "HARD A String"
      0 52 "MEDIUM B String"
      0 51 "MEDIUM G String"
      0 50 "MEDIUM D String"
      0 49 "MEDIUM A String"
      0 28 "EASY B String"
      0 27 "EASY G String"
      0 26 "EASY D String"
      0 25 "EASY A String"
      0 116 "OVERDRIVE"
      0 115 "Solo Marker"
      0 125 "BRE"
      0 120 "BRE (use all 6)"
      0 124 "BRE"
      0 123 "BRE"
      0 122 "BRE"
      0 121 "BRE"
      0 127 "Trill"
      0 126 "Tremelo"
      0 108 "Left hand position"
      0 107 "Force Chord Numbering"
      0 104 "EXPERT Arpeggio Marker"
      0 103 "EXPERT Slide Marker"
      0 102 "EXPERT Force Ho/Po"
      0 80 "HARD Arpeggio Marker"
      0 79 "HARD Slide Marker"
      0 78 "Force Ho/Po"
      0 55 "MEDIUM Slide Marker"
      0 31 "EASY Slide Marker"
      0 17 "Hide Chord Names"
      0 15 "Eb"
      0 14 "D"
      0 13 "Db"
      0 12 "C"
      0 11 "B"
      0 10 "Bb"
      0 9 "A"
      0 8 "Ab"
      0 7 "G"
      0 6 "Gb"
      0 5 "F"
      0 4 "E"
      0 105 "EXPERT Strum Direction"
      0 81 "HARD Strum Direction"
      0 56 "MEDIUM Arpeggio Marker"
      0 32 "EASY Arpeggio Marker"
      0 21 "CHORD NAMES"
      0 18 "Flat/Sharp Swap"
      0 16 "Slash Chord"
    >
    MAINSEND 1 0
    <FXCHAIN
      SHOW 0
      LASTSEL 0
      DOCKED 0
    >
    <ITEM
      POSITION 0.00000000000000
      SNAPOFFS 0.00000000000000
      LENGTH 171.34539068256836
      LOOP 0
      ALLTAKES 0
      SEL 0
      FADEIN 1 0.000000 0.000000 1 0
      FADEOUT 1 0.000000 0.000000 1 0
      MUTE 0
      IGUID {20F1321F-9ED7-4853-AD09-40B222B05CF8}
      IID 24
      NAME "PART REAL_GUITAR"
      VOLPAN 1.000000 0.000000 1.000000 -1.000000
      SOFFS 0.00000000000000 0.00000000000000
      PLAYRATE 1.00000000000000 1 0.00000000000000 -1
      CHANMODE 0
      GUID {3CDDC74F-292B-448F-83EC-680F8CEF1C9B}
      <SOURCE MIDI
        HASDATA 1 480 QN
        POOLEDEVTS {A5E132AE-C8EA-4FFF-BE20-E14CFB1B85DC}
        <X 0 0
          /wNQQVJUIFJFQUxfR1VJVEFS
        >
        E 3840 90 18 64
        E 0 90 19 64
        E 0 90 1a 64
        E 0 90 1b 64
        E 0 90 1c 64
        E 0 90 1d 64
        E 0 90 30 64
        E 0 90 31 64
        E 0 90 32 64
        E 0 90 33 64
        E 0 90 34 64
        E 0 90 35 64
        E 0 90 48 64
        E 0 90 49 64
        E 0 90 4a 64
        E 0 90 4b 64
        E 0 90 4c 64
        E 0 90 4d 64
        E 0 90 60 64
        E 0 90 61 64
        E 0 90 62 64
        E 0 90 63 64
        E 0 90 64 64
        E 0 90 65 64
        E 120 80 18 00
        E 0 80 19 00
        E 0 80 1a 00
        E 0 80 1b 00
        E 0 80 1c 00
        E 0 80 1d 00
        E 0 80 30 00
        E 0 80 31 00
        E 0 80 32 00
        E 0 80 33 00
        E 0 80 34 00
        E 0 80 35 00
        E 0 80 48 00
        E 0 80 49 00
        E 0 80 4a 00
        E 0 80 4b 00
        E 0 80 4c 00
        E 0 80 4d 00
        E 0 80 60 00
        E 0 80 61 00
        E 0 80 62 00
        E 0 80 63 00
        E 0 80 64 00
        E 0 80 65 00
        E 177000 b0 7b 00
        GUID {95EB2031-BC44-4B36-809B-F7595C07BF30}
        IGNTEMPO 0 120.00000000 4 4
        SRCCOLOR 84
        VELLANE 132 123 128
        COLORMAP "C:\Program Files\REAPER\Data\color_maps\rockband_guitarbass.png"
        TEXTSTRINGFILE "C:\Program Files\REAPER\Data\Text_Strings\Text Events List.txt"
        CFGEDITVIEW 0.000000 0.103438 87 12 0 0 0
        CFGEDIT 1 1 0 0 0 1 1 1 1 1 1 0.25000000 0 0 683 728 1 0 0 2 0.12500000 0 1 0 0 0.500000 0 0 1.000000 64
        KEYSNAP 0 0 "102034050607" 0 "Major"
        EVTFILTER 0 -1 -1 -1 -1 0 1 0 0 -1.00000000 -1.00000000
      >
    >
  >
  <TRACK '{4048E3A2-B3FC-493C-BF0E-D7B7B9F9DFF3}'
    NAME "PART REAL_BASS"
    PEAKCOL 16576
    BEAT -1
    AUTOMODE 0
    VOLPAN 1.00000000000000 0.00000000000000 -1.00000000000000 -1.00000000000000 1.00000000000000
    MUTESOLO 1 0 0
    IPHASE 0
    ISBUS 0 0
    BUSCOMP 0 0
    SHOWINMIX 1 0.666700 0.500000 1 0.500000 -1 -1 -1
    FREEMODE 0
    SEL 0
    REC 0 0 0 0 0 0 0
    TRACKHEIGHT 0 0
    INQ 0 0 0 0.5000000000 100 0 0 100
    NCHAN 2
    FX 1
    TRACKID {4048E3A2-B3FC-493C-BF0E-D7B7B9F9DFF3}
    PERF 0
    MIDIOUT -1
    <MIDINOTENAMES
      0 99 "EXPERT G String"
      0 98 "EXPERT D String"
      0 97 "EXPERT A String"
      0 96 "EXPERT E String (LOW)"
      0 72 "HARD E String (LOW)"
      0 48 "MEDIUM E String (LOW)"
      0 24 "EASY E String (LOW)"
      0 75 "HARD G String"
      0 74 "HARD D String"
      0 73 "HARD A String"
      0 51 "MEDIUM G String"
      0 50 "MEDIUM D String"
      0 49 "MEDIUM A String"
      0 27 "EASY G String"
      0 26 "EASY D String"
      0 25 "EASY A String"
      0 116 "OVERDRIVE"
      0 115 "Solo Marker"
      0 120 "BRE (use all 6)"
      0 123 "BRE"
      0 122 "BRE"
      0 121 "BRE"
      0 127 "Trill"
      0 126 "Tremelo"
      0 125 "BRE"
      0 124 "BRE"
      0 108 "Left hand position"
      0 107 "Force Chord Numbering"
      0 104 "EXPERT Arpeggio Marker"
      0 103 "EXPERT Slide Marker"
      0 102 "EXPERT Force Ho/Po"
      0 101 "EXPERT E String (HIGH)"
      0 100 "EXPERT B String"
      0 80 "HARD Arpeggio Marker"
      0 79 "HARD Slide Marker"
      0 78 "Force Ho/Po"
      0 77 "HARD E String (HIGH)"
      0 76 "HARD B String"
      0 55 "MEDIUM Slide Marker"
      0 53 "MEDIUM E String (HIGH)"
      0 52 "MEDIUM B String"
      0 31 "EASY Slide Marker"
      0 29 "EASY E String (HIGH)"
      0 28 "EASY B String"
      0 17 "Hide Chord Names"
      0 15 "Eb"
      0 14 "D"
      0 13 "Db"
      0 12 "C"
      0 11 "B"
      0 10 "Bb"
      0 9 "A"
      0 8 "Ab"
      0 7 "G"
      0 6 "Gb"
      0 5 "F"
      0 4 "E"
      0 105 "EXPERT Strum Direction"
      0 81 "HARD Strum Direction"
      0 56 "MEDIUM Arpeggio Marker"
      0 32 "EASY Arpeggio Marker"
      0 21 "CHORD NAMES"
      0 18 "Flat/Sharp Swap"
      0 16 "Slash Chord"
    >
    MAINSEND 1 0
    <FXCHAIN
      SHOW 0
      LASTSEL 0
      DOCKED 0
    >
    <ITEM
      POSITION 0.00000000000000
      SNAPOFFS 0.00000000000000
      LENGTH 171.34539068256836
      LOOP 0
      ALLTAKES 0
      SEL 0
      FADEIN 1 0.000000 0.000000 1 0
      FADEOUT 1 0.000000 0.000000 1 0
      MUTE 0
      IGUID {20F1321F-9ED7-4853-AD09-40B222B05CF8}
      IID 25
      NAME "PART REAL_BASS"
      VOLPAN 1.000000 0.000000 1.000000 -1.000000
      SOFFS 0.00000000000000 0.00000000000000
      PLAYRATE 1.00000000000000 1 0.00000000000000 -1
      CHANMODE 0
      GUID {3CDDC74F-292B-448F-83EC-680F8CEF1C9B}
      <SOURCE MIDI
        HASDATA 1 480 QN
        POOLEDEVTS {5FE2294F-8DC3-471B-95E8-27DA2CAB2E37}
        <X 0 0
          /wNQQVJUIFJFQUxfQkFTUw==
        >
        E 3840 90 18 64
        E 0 90 19 64
        E 0 90 1a 64
        E 0 90 1b 64
        E 0 90 30 64
        E 0 90 31 64
        E 0 90 32 64
        E 0 90 33 64
        E 0 90 48 64
        E 0 90 49 64
        E 0 90 4a 64
        E 0 90 4b 64
        E 0 90 60 64
        E 0 90 61 64
        E 0 90 62 64
        E 0 90 63 64
        E 120 80 18 00
        E 0 80 19 00
        E 0 80 1a 00
        E 0 80 1b 00
        E 0 80 30 00
        E 0 80 31 00
        E 0 80 32 00
        E 0 80 33 00
        E 0 80 48 00
        E 0 80 49 00
        E 0 80 4a 00
        E 0 80 4b 00
        E 0 80 60 00
        E 0 80 61 00
        E 0 80 62 00
        E 0 80 63 00
        E 177000 b0 7b 00
        GUID {95EB2031-BC44-4B36-809B-F7595C07BF30}
        IGNTEMPO 0 120.00000000 4 4
        SRCCOLOR 85
        VELLANE 132 123 128
        COLORMAP "C:\Program Files\REAPER\Data\color_maps\rockband_guitarbass.png"
        TEXTSTRINGFILE "C:\Program Files\REAPER\Data\Text_Strings\Text Events List.txt"
        CFGEDITVIEW 0.000000 0.179136 0 12 0 0 0
        CFGEDIT 1 1 0 0 0 1 1 1 1 1 1 0.25000000 0 0 683 728 1 0 0 2 0.00000000 0 1 0 0 0.500000 0 0 1.000000 64
        KEYSNAP 0 0 "102034050607" 0 "Major"
        EVTFILTER 0 -1 -1 -1 -1 0 1 0 0 -1.00000000 -1.00000000
      >
    >
  >
>
