<REAPER_PROJECT 0.1 "4.22/x64"
  RIPPLE 0
  GROUPOVERRIDE 0 1 0
  AUTOXFADE 1
  ENVATTACH 1
  MIXERUIFLAGS 11 48
  PEAKGAIN 1.00000000000000
  FEEDBACK 0
  PANLAW 1.00000000000000
  PROJOFFS 0.00000000000000 0
  MAXPROJLEN 0 600.00000000000000
  GRID 1535 8 1.00000000000000 8 1.00000000000000 0
  TIMEMODE 1 0 -1
  CURSOR 201.14182954942936
  ZOOM 8.32495291241221 728 0
  VZOOMEX 0
  USE_REC_CFG 0
  RECMODE 1
  SMPTESYNC 0 30.000000 100 40 1000 300 0 0.000000 0
  LOOP 0
  LOOPGRAN 0 4.00000000000000
  RECORD_PATH "" ""
  <RECORD_CFG
    ZXZhdxgA
  >
  <APPLYFX_CFG
  >
  RENDER_FILE ""
  RENDER_PATTERN ""
  RENDER_FMT 0 2 0
  RENDER_1X 0
  RENDER_RANGE 1 0.00000000000000 0.00000000000000
  RENDER_RESAMPLE 3 0 1
  RENDER_ADDTOPROJ 0
  RENDER_STEMS 0
  RENDER_DITHER 0
  TIMELOCKMODE 0
  ITEMMIX 0
  DEFPITCHMODE 0
  TAKELANE 1
  SAMPLERATE 44100 0 0
  <RENDER_CFG
  >
  LOCK 1
  <METRONOME 6 2.000000
    VOL 0.752735 0.723913
    FREQ 800 1600 0
    BEATLEN 4
    SAMPLES "" ""
  >
  GLOBAL_AUTO -1
  TEMPO 120.00000000000000 4 4
  PLAYRATE 1.00000000000000 0 0.25000 4.00000
  SELECTION 0.00000000000000 0.00000000000000
  SELECTION2 0.00000000000000 0.00000000000000
  MASTERAUTOMODE 0
  MASTERTRACKHEIGHT 35
  MASTERPEAKCOL 16576
  MASTERMUTESOLO 0
  MASTERTRACKVIEW 1 0.666700 0.500000 0.500000 -1 -1 -1
  MASTERHWOUT 0 0 1.00000000000000 0.00000000000000 0 0 0 -1.00000000000000
  MASTER_NCH 2 2
  MASTER_VOLUME 1.05925372517729 0.00000000000000 -1.00000000000000 -1.00000000000000 1.00000000000000
  MASTER_FX 1
  MASTER_SEL 0
  <MASTERFXLIST
    SHOW 0
    LASTSEL 0
    DOCKED 0
    BYPASS 0 0
    <VST "VST: W1 Limiter (George Yohng)" "George Yohng_s W1 Limiter.dll" 0 ""
      THdGNO5e7f4CAAAAAQAAAAAAAAACAAAAAAAAAAIAAAABAAAAAAAAAA==
      AgAAAAAAAABMAAAAAQAAAAAAEAAMAACBdGhyZXNoAAD+1Hg/DAAAgQ==
      Y2VpbGluZwD+1Hg/DAAAgXJlbGVhc2UAMEAfPxQAAIFhZGFwdFJlbA==
      ZWFzZQAAAAAAAAAAAAAAgAAAEAAAAA==
    >
    FLOATPOS 24 24 481 152
    FXID {69D45D23-FE06-4141-B0BB-1A6D9443AFA8}
    WAK 0
  >
  <MASTERPLAYSPEEDENV
    ACT 0
    VIS 0 1 1.000000
    LANEHEIGHT 0 0
    ARM 0
    DEFSHAPE 0 -1 -1
  >
  <TEMPOENVEX
    ACT 1
    VIS 1 0 1.000000
    LANEHEIGHT 0 0
    ARM 0
    DEFSHAPE 1 -1 -1
    PT 0.000000000000 85.5000000000 1
    PT 2.807017543860 85.4835938095 1
    PT 5.614573816411 86.2517231942 1
    PT 8.397126919257 87.4172870212 1
    PT 11.142579314066 86.8305938197 1
    PT 13.906582062894 84.7451428764 1
    PT 16.738602776458 83.4694095428 1
    PT 19.613907649400 86.0604776883 1
    PT 22.402644203586 86.4438205733 1
    PT 25.179013855093 84.1936560464 1
    PT 28.029584922676 85.6805197294 1
    PT 30.830688379542 85.4917961176 1
    PT 33.637975287747 86.6367755299 1
    PT 36.408161487915 85.6805197294 1
    PT 39.209264944780 85.3039020602 1
    PT 42.022735304325 84.5605129355 1
    PT 44.860939469229 84.9305808258 1
    PT 47.686776731453 85.1168320996 1
    PT 50.506430542338 85.1168320996 1
    PT 53.326084353223 84.7451428764 1
    PT 56.158105066787 85.4917961176 1
    PT 58.965391974992 84.7451428764 1
    PT 61.797412688556 84.9305808258 1
    PT 64.623249950780 85.1168320996 1
    PT 67.442903761665 85.1168320996 1
    PT 70.262557572550 84.3766857335 1
    PT 73.106945188793 85.1168320996 1
    PT 75.926598999678 86.0604776883 1
    PT 78.715335553864 85.3039020602 1
    PT 81.528805913409 86.0604776883 1
    PT 84.317542467596 86.2517231942 1
    PT 87.100095570442 86.4438205733 1
    PT 89.876465221949 86.4438205733 1
    PT 92.652834873457 86.6367755299 1
    PT 95.423021073624 86.4438205733 1
    PT 98.199390725131 86.8305938197 1
    PT 100.963393473959 86.8305938197 1
    PT 103.727396222787 86.4438205733 1
    PT 106.503765874294 85.8700784013 1
    PT 109.298685879820 84.7451428764 1
    PT 112.130706593384 86.0604776883 1
    PT 114.919443147570 84.7451428764 1
    PT 117.751463861134 85.3039020602 1
    PT 120.564934220679 84.5605129355 1
    PT 123.403138385583 85.3039020602 1
    PT 126.216608745128 85.4917961176 1
    PT 129.023895653333 85.4917961176 1
    PT 131.831182561539 85.4917961176 1
    PT 134.638469469744 86.2517231942 1
    PT 137.421022572591 84.5605129355 1
    PT 140.259226737494 86.4438205733 1
    PT 143.035596389001 85.1168320996 1
    PT 145.855250199886 86.6367755299 1
    PT 148.625436400054 86.6367755299 1
    PT 151.395622600221 86.2517231942 1
    PT 154.178175703068 85.8700784013 1
    PT 156.973095708594 86.2517231942 1
    PT 159.755648811440 85.1168320996 1
    PT 162.575302622325 86.6367755299 1
    PT 165.345488822493 85.4917961176 1
    PT 168.152775730698 86.2517231942 1
    PT 170.935328833545 85.1168320996 1
    PT 173.754982644429 87.0252812498 1
    PT 176.512801941917 86.2517231942 1
    PT 179.295355044764 85.8700784013 1
    PT 182.090275050290 85.3039020602 1
    PT 184.903745409835 87.4172870212 1
    PT 187.649197804644 86.4438205733 1
    PT 190.425567456151 84.5605129355 1
    PT 193.263771621055 86.2517231942 1
    PT 196.046324723901 85.4917961176 1
    PT 198.853611632107 86.4438205733 1
    PT 201.629981283614 86.2517231942 1
    PT 204.412534386461 86.2517231942 1
  >
  <PROJBAY
  >
  <TRACK '{4D889F49-FE1F-4D1D-9FB8-BFD5BA06901A}'
    NAME "SONG AUDIO"
    PEAKCOL 16576
    BEAT -1
    AUTOMODE 0
    VOLPAN 1.00000000000000 0.00000000000000 -1.00000000000000 -1.00000000000000 1.00000000000000
    MUTESOLO 0 2 0
    IPHASE 0
    ISBUS 0 0
    BUSCOMP 0 0
    SHOWINMIX 1 0.666700 0.500000 1 0.500000 -1 -1 -1
    FREEMODE 0
    SEL 0
    REC 0 0 0 0 0 0 0
    TRACKHEIGHT 24 0
    INQ 0 0 0 0.5000000000 100 0 0 100
    NCHAN 2
    FX 1
    TRACKID {4D889F49-FE1F-4D1D-9FB8-BFD5BA06901A}
    PERF 0
    MIDIOUT -1
    MAINSEND 1 0
    <FXCHAIN
      SHOW 0
      LASTSEL 0
      DOCKED 0
      BYPASS 0 0
      <VST "VST: W1 Limiter (George Yohng)" "George Yohng_s W1 Limiter.dll" 0 ""
        THdGNO5e7f4CAAAAAQAAAAAAAAACAAAAAAAAAAIAAAABAAAAAAAAAA==
        AgAAAAAAAABMAAAAAQAAAAAAEAAMAACBdGhyZXNoAAD+1Hg/DAAAgQ==
        Y2VpbGluZwD+1Hg/DAAAgXJlbGVhc2UAMEAfPxQAAIFhZGFwdFJlbA==
        ZWFzZQAAAAAAAAAAAAAAgAAAEAAAAA==
      >
      FLOATPOS 24 24 481 152
      FXID {D32BE511-3942-4A83-B6D7-DF2FE763A2B4}
      WAK 0
    >
    <ITEM
      POSITION 0.00000000000000
      SNAPOFFS 0.00000000000000
      LENGTH 0.28216019417451
      LOOP 0
      ALLTAKES 0
      SEL 0
      FADEIN 1 0.000000 0.000000 1 0
      FADEOUT 1 0.000000 0.000000 1 0
      MUTE 0
      IGUID {F7D99412-D584-4961-B211-CED9474D07B7}
      IID 1
      NAME "stick.wav"
      VOLPAN 0.271028 0.000000 1.000000 -1.000000
      SOFFS 0.00000000000000
      PLAYRATE 1.00000000000052 1 0.00000000000000 -1
      CHANMODE 0
      GUID {5814EE43-F1B8-4543-9AB2-5B30CE8E2857}
      <SOURCE WAVE
        FILE "C:\Users\wejaa\AppData\Roaming\REAPER\ProjectTemplates\hihat.wav"
      >
    >
    <ITEM
      POSITION 0.70175438595470
      SNAPOFFS 0.00000000000000
      LENGTH 0.28216019417451
      LOOP 0
      ALLTAKES 0
      SEL 0
      FADEIN 1 0.000000 0.000000 1 0
      FADEOUT 1 0.000000 0.000000 1 0
      MUTE 0
      IGUID {01533356-DC05-490B-BB32-B99981B86D71}
      IID 2
      NAME "stick.wav"
      VOLPAN 0.271028 0.000000 1.000000 -1.000000
      SOFFS 0.00000000000000
      PLAYRATE 1.00000000000052 1 0.00000000000000 -1
      CHANMODE 0
      GUID {0631E061-D6DB-4939-9359-28EC24CBF153}
      <SOURCE WAVE
        FILE "C:\Users\wejaa\AppData\Roaming\REAPER\ProjectTemplates\hihat.wav"
      >
    >
    <ITEM
      POSITION 1.40350877192982
      SNAPOFFS 0.00000000000000
      LENGTH 0.28216019417451
      LOOP 0
      ALLTAKES 0
      SEL 0
      FADEIN 1 0.000000 0.000000 1 0
      FADEOUT 1 0.000000 0.000000 1 0
      MUTE 0
      IGUID {DED30519-E009-41D8-919E-CBD14AEA1018}
      IID 2
      NAME "stick.wav"
      VOLPAN 0.271028 0.000000 1.000000 -1.000000
      SOFFS 0.00000000000000
      PLAYRATE 1.00000000000052 1 0.00000000000000 -1
      CHANMODE 0
      GUID {69A1D575-210D-400B-883D-59DA633700B0}
      <SOURCE WAVE
        FILE "C:\Users\wejaa\AppData\Roaming\REAPER\ProjectTemplates\hihat.wav"
      >
    >
    <ITEM
      POSITION 2.10526315789474
      SNAPOFFS 0.00000000000000
      LENGTH 0.29778743144855
      LOOP 0
      ALLTAKES 0
      SEL 0
      FADEIN 1 0.000000 0.000000 1 0
      FADEOUT 1 0.000000 0.059523 1 1
      MUTE 0
      IGUID {511A7D55-BCA2-4769-AC8E-7EC880448888}
      IID 3
      NAME "stick.wav"
      VOLPAN 0.271028 0.000000 1.000000 -1.000000
      SOFFS 0.00000000000000
      PLAYRATE 1.00000000000052 1 0.00000000000000 -1
      CHANMODE 0
      GUID {FC55923F-DBEF-405F-83B0-EC138765BAA2}
      <SOURCE WAVE
        FILE "C:\Users\wejaa\AppData\Roaming\REAPER\ProjectTemplates\hihat.wav"
      >
    >
    <ITEM
      POSITION 2.34352805773092
      SNAPOFFS 0.00000000000000
      LENGTH 207.59999999999999
      LOOP 0
      ALLTAKES 0
      SEL 0
      FADEIN 1 0.000000 0.059523 1 1
      FADEOUT 1 0.000000 0.000000 1 0
      MUTE 0
      IGUID {ED40823C-F527-40D4-9EDB-B6104B27D009}
      IID 26
      NAME "07 Lumi Teki Enkelin Eteiseen.wav"
      VOLPAN 1.000000 0.000000 1.000000 -1.000000
      SOFFS 0.00000000000000
      PLAYRATE 1.00000000000000 1 0.00000000000000 -1
      CHANMODE 0
      GUID {D6C21E05-1ACB-409C-90D7-EA0FD33712B3}
      <SOURCE WAVE
        FILE "07 Lumi Teki Enkelin Eteiseen.wav"
      >
    >
  >
  <TRACK '{8F33A645-3DF2-48FA-99BC-10992A4F8042}'
    NAME "PART DRUMS"
    PEAKCOL 16842751
    BEAT -1
    AUTOMODE 0
    VOLPAN 1.00000000000000 0.00000000000000 -1.00000000000000 -1.00000000000000 1.00000000000000
    MUTESOLO 0 0 0
    IPHASE 0
    ISBUS 0 0
    BUSCOMP 1 0
    SHOWINMIX 1 0.666700 0.500000 1 0.500000 -1 -1 -1
    FREEMODE 0
    SEL 0
    REC 0 4096 1 7 0 0 0
    TRACKHEIGHT 78 0
    INQ 0 0 0 0.5000000000 100 0 0 100
    NCHAN 2
    FX 1
    TRACKID {8F33A645-3DF2-48FA-99BC-10992A4F8042}
    PERF 0
    MIDIOUT -1
    <MIDINOTENAMES
      0 84 "HARD Kick"
      0 96 "EXPERT Kick"
      0 72 "MEDIUM Kick"
      0 60 "EASY Kick"
      0 97 "EXPERT Red"
      0 98 "EXPERT Yellow"
      0 99 "EXPERT Blue"
      0 100 "EXPERT Green"
      0 85 "HARD Red"
      0 86 "HARD Yellow"
      0 87 "HARD Blue"
      0 88 "HARD Green"
      0 73 "MEDIUM Red"
      0 74 "MEDIUM Yellow"
      0 75 "MEDIUM Blue"
      0 76 "MEDIUM Green"
      0 61 "EASY Red"
      0 62 "EASY Yellow"
      0 63 "EASY Blue"
      0 64 "EASY Green"
      0 101 ""
      0 92 "----"
      0 80 "----"
      0 68 "----"
      0 120 "DRUM FILL (use all 5)"
      0 121 "DRUM FILL"
      0 122 "DRUM FILL"
      0 123 "DRUM FILL"
      0 124 "DRUM FILL"
      0 114 "----"
      0 116 "OVERDRIVE"
      0 118 "----"
      0 24 "KICK RF"
      0 25 "HI-HAT OPEN"
      0 26 "SNARE HARD LH"
      0 27 "SNARE HARD RH"
      0 30 "HI-HAT LH"
      0 31 "HI-HAT RH"
      0 32 "PERCUSSION RH"
      0 34 "CRASH1 HARD LH"
      0 35 "CRASH1 SOFT LH"
      0 36 "CRASH1 HARD RH"
      0 37 "CRASH1 SOFT RH"
      0 38 "CRASH2 HARD RH"
      0 39 "CRASH2 SOFT RH"
      0 40 "CRASH1 CHOKE"
      0 41 "CRASH2 CHOKE"
      0 42 "RIDE CYM RH"
      0 46 "TOM1 LH"
      0 47 "TOM1 RH"
      0 48 "TOM2 LH"
      0 49 "TOM2 RH"
      0 50 "FLOOR TOM LH"
      0 51 "FLOOR TOM RH"
      0 52 "--DRUM ANIMATION--"
      0 56 "----"
      0 103 "Solo Marker"
      0 102 "----"
      0 110 "PRO Yellow Tom"
      0 111 "PRO Blue Tom"
      0 112 "PRO Green Tom"
      0 108 "----"
      0 127 "Roll Marker 2-Lane / Cym"
      0 126 "Roll Marker 1-Lane"
      0 125 "----"
      0 28 "SNARE RIM LH"
      0 29 "SNARE RIM RH"
      0 43 "RIDE CYM LH"
      0 44 "CRASH2 HARD LH"
      0 45 "CRASH2 SOFT LH"
      0 33 "PERCUSSION LH"
    >
    MAINSEND 1 0
    <FXCHAIN
      WNDRECT -976 901 878 574
      SHOW 0
      LASTSEL 1
      DOCKED 0
      BYPASS 1 0
      <VST "VSTi: ReaSynth (Cockos)" "reasynth.dll" 0 ""
        eXNlcu9e7f4AAAAAAgAAAAEAAAAAAAAAAgAAAAAAAAA4AAAAAAAAAA==
        AAAAAO++rd4N8K3eAAAAAAAAAAAAAAAAAAAAADm0SD59y9s+tbSxOQ==
        AAAAALbz/T5VpCs6AAAAAAAAAAAAAAAAAAA=
      >
      FLOATPOS 0 0 0 0
      FXID {58F55556-9407-4062-A048-6AFCC0B53535}
      WAK 0
      BYPASS 0 0
      <VST "VSTi: RBN Preview (RBN)" "rbprev_vst64_beta.dll" 0 ""
        dnBicu5e7f4AAAAAAgAAAAEAAAAAAAAAAgAAAAAAAAAEAAAAAQAAAA==
        AAAAAAMBqgAAAAAAAAA=
      >
      FLOATPOS 32 32 659 497
      FXID {D7126437-AB1E-4109-A0FA-F2D5D0AC68DC}
      WAK 0
    >
    <ITEM
      POSITION 0.00000000000000
      SNAPOFFS 0.00000000000000
      LENGTH 262.84614954630132
      LOOP 0
      ALLTAKES 0
      COLOR 19150555
      SEL 0
      FADEIN 1 0.000000 0.000000 1 0
      FADEOUT 1 0.000000 0.000000 1 0
      MUTE 0
      IGUID {9FF11F36-E94F-4396-9C0E-8449C916EC21}
      IID 7
      NAME "PART DRUMS"
      VOLPAN 1.000000 0.000000 1.000000 -1.000000
      SOFFS 0.00000000000000 0.00000000000000
      PLAYRATE 1.00000000000000 1 0.00000000000000 -65536
      CHANMODE 0
      GUID {70A79ADF-E70C-430A-913F-E16D0CC85517}
      <SOURCE MIDI
        HASDATA 1 480 QN
        POOLEDEVTS {9040EF40-6A94-4258-972F-AB10903E39D6}
        <X 0 0
          /wNQQVJUIERSVU1T
        >
        <X 300 0
          /wFbbWl4IDEgZHJ1bXMwXQ==
        >
        <X 0 0
          /wFbbWl4IDAgZHJ1bXMwXQ==
        >
        <X 60 0
          /wFbbWl4IDIgZHJ1bXMwXQ==
        >
        <X 60 0
          /wFbbWl4IDMgZHJ1bXMwXQ==
        >
        <X 3420 0
          /wFbaWRsZV0=
        >
        <X 15360 0
          /wFbbWVsbG93XQ==
        >
        E 960 90 2f 60
        E 0 90 3e 60
        E 0 90 4a 60
        E 0 90 56 60
        E 0 90 62 60
        E 0 90 6e 60
        E 30 80 2f 00
        E 0 80 3e 00
        E 0 80 4a 00
        E 0 80 56 00
        E 0 80 62 00
        E 0 80 6e 00
        E 119 90 6e 60
        E 1 90 1e 60
        E 0 90 62 60
        E 30 80 6e 00
        E 0 80 1e 00
        E 0 80 62 00
        E 180 90 31 60
        E 0 90 63 60
        E 0 90 6f 60
        E 30 80 31 00
        E 0 80 63 00
        E 0 80 6f 00
        E 90 90 30 60
        E 0 90 3f 60
        E 0 90 4b 60
        E 0 90 57 60
        E 0 90 63 60
        E 0 90 6f 60
        E 30 80 30 00
        E 0 80 3f 00
        E 0 80 4b 00
        E 0 80 57 00
        E 0 80 63 00
        E 1 80 6f 00
        E 89 90 31 60
        E 0 90 63 60
        E 0 90 6f 60
        E 30 80 31 00
        E 0 80 63 00
        E 1 80 6f 00
        E 89 90 30 60
        E 0 90 57 60
        E 0 90 63 60
        E 0 90 6f 60
        E 30 80 30 00
        E 0 80 57 00
        E 0 80 63 00
        E 1 80 6f 00
        E 209 90 18 60
        E 0 90 26 60
        E 0 90 40 60
        E 0 90 48 60
        E 0 90 4c 60
        E 0 90 54 60
        E 0 90 58 60
        E 0 90 60 60
        E 0 90 64 60
        E 60 80 18 00
        E 0 80 26 00
        E 0 80 40 00
        E 0 80 48 00
        E 0 80 4c 00
        E 0 80 54 00
        E 0 80 58 00
        E 0 80 60 00
        E 0 80 64 00
        E 180 90 1f 60
        E 0 90 56 60
        E 0 90 62 60
        E 60 80 1f 00
        E 0 80 56 00
        E 0 80 62 00
        E 180 90 1a 60
        E 0 90 1f 60
        E 0 90 3d 60
        E 0 90 3e 60
        E 0 90 49 60
        E 0 90 4a 60
        E 0 90 55 60
        E 0 90 56 60
        E 0 90 61 60
        E 0 90 62 60
        E 60 80 1a 00
        E 0 80 1f 00
        E 0 80 3d 00
        E 0 80 3e 00
        E 0 80 49 00
        E 0 80 4a 00
        E 0 80 55 00
        E 0 80 56 00
        E 0 80 61 00
        E 0 80 62 00
        E 180 90 1f 60
        E 0 90 56 60
        E 0 90 62 60
        E 60 80 1f 00
        E 0 80 56 00
        E 0 80 62 00
        E 90 90 18 60
        E 0 90 60 60
        E 30 80 18 00
        E 0 80 60 00
        E 60 90 18 60
        E 0 90 1f 60
        E 0 90 3e 60
        E 0 90 48 60
        E 0 90 4a 60
        E 0 90 54 60
        E 0 90 56 60
        E 0 90 60 60
        E 0 90 62 60
        E 60 80 18 00
        E 0 80 1f 00
        E 0 80 3e 00
        E 0 80 48 00
        E 0 80 4a 00
        E 0 80 54 00
        E 0 80 56 00
        E 0 80 60 00
        E 0 80 62 00
        E 180 90 18 60
        E 0 90 1f 60
        E 0 90 54 60
        E 0 90 56 60
        E 0 90 60 60
        E 0 90 62 60
        E 30 80 18 00
        E 0 80 1f 00
        E 0 80 54 00
        E 0 80 56 00
        E 0 80 60 00
        E 0 80 62 00
        E 210 90 1a 60
        E 0 90 1f 60
        E 0 90 3d 60
        E 0 90 3e 60
        E 0 90 49 60
        E 0 90 4a 60
        E 0 90 55 60
        E 0 90 56 60
        E 0 90 61 60
        E 0 90 62 60
        E 60 80 1a 00
        E 0 80 1f 00
        E 0 80 3d 00
        E 0 80 3e 00
        E 0 80 49 00
        E 0 80 4a 00
        E 0 80 55 00
        E 0 80 56 00
        E 0 80 61 00
        E 0 80 62 00
        E 180 90 1f 60
        E 0 90 56 60
        E 0 90 62 60
        E 60 80 1f 00
        E 0 80 56 00
        E 0 80 62 00
        E 180 90 18 60
        E 0 90 1f 60
        E 0 90 3e 60
        E 0 90 48 60
        E 0 90 4a 60
        E 0 90 54 60
        E 0 90 56 60
        E 0 90 60 60
        E 0 90 62 60
        E 61 80 18 00
        E 0 80 1f 00
        E 0 80 3e 00
        E 0 80 48 00
        E 0 80 4a 00
        E 0 80 54 00
        E 0 80 56 00
        E 0 80 60 00
        E 0 80 62 00
        E 179 90 1f 60
        E 0 90 56 60
        E 0 90 62 60
        E 60 80 1f 00
        E 0 80 56 00
        E 0 80 62 00
        E 180 90 1a 60
        E 0 90 1f 60
        E 0 90 3d 60
        E 0 90 3e 60
        E 0 90 49 60
        E 0 90 4a 60
        E 0 90 55 60
        E 0 90 56 60
        E 0 90 61 60
        E 0 90 62 60
        E 60 80 1a 00
        E 0 80 1f 00
        E 0 80 3d 00
        E 0 80 3e 00
        E 0 80 49 00
        E 0 80 4a 00
        E 0 80 55 00
        E 0 80 56 00
        E 0 80 61 00
        E 0 80 62 00
        E 180 90 1f 60
        E 0 90 56 60
        E 0 90 62 60
        E 60 80 1f 00
        E 0 80 56 00
        E 0 80 62 00
        E 90 90 18 60
        E 0 90 60 60
        E 30 80 18 00
        E 0 80 60 00
        E 60 90 18 60
        E 0 90 1f 60
        E 0 90 3e 60
        E 0 90 48 60
        E 0 90 4a 60
        E 0 90 54 60
        E 0 90 56 60
        E 0 90 60 60
        E 0 90 62 60
        E 60 80 18 00
        E 0 80 1f 00
        E 0 80 3e 00
        E 0 80 48 00
        E 0 80 4a 00
        E 0 80 54 00
        E 0 80 56 00
        E 0 80 60 00
        E 0 80 62 00
        E 180 90 18 60
        E 0 90 1f 60
        E 0 90 54 60
        E 0 90 56 60
        E 0 90 60 60
        E 0 90 62 60
        E 60 80 18 00
        E 0 80 54 00
        E 0 80 60 00
        E 1 80 1f 00
        E 0 80 56 00
        E 0 80 62 00
        E 179 90 1a 60
        E 0 90 1f 60
        E 0 90 3d 60
        E 0 90 3e 60
        E 0 90 49 60
        E 0 90 4a 60
        E 0 90 55 60
        E 0 90 56 60
        E 0 90 61 60
        E 0 90 62 60
        E 60 80 1a 00
        E 0 80 1f 00
        E 0 80 3d 00
        E 0 80 3e 00
        E 0 80 49 00
        E 0 80 4a 00
        E 0 80 55 00
        E 0 80 56 00
        E 0 80 61 00
        E 0 80 62 00
        E 180 90 1f 60
        E 0 90 56 60
        E 0 90 62 60
        E 60 80 1f 00
        E 0 80 56 00
        E 0 80 62 00
        E 180 90 18 60
        E 0 90 1f 60
        E 0 90 3e 60
        E 0 90 48 60
        E 0 90 4a 60
        E 0 90 54 60
        E 0 90 56 60
        E 0 90 60 60
        E 0 90 62 60
        E 61 80 18 00
        E 0 80 1f 00
        E 0 80 3e 00
        E 0 80 48 00
        E 0 80 4a 00
        E 0 80 54 00
        E 0 80 56 00
        E 0 80 60 00
        E 0 80 62 00
        E 179 90 1f 60
        E 0 90 56 60
        E 0 90 62 60
        E 60 80 1f 00
        E 0 80 56 00
        E 0 80 62 00
        E 180 90 1a 60
        E 0 90 1f 60
        E 0 90 3d 60
        E 0 90 3e 60
        E 0 90 49 60
        E 0 90 4a 60
        E 0 90 55 60
        E 0 90 56 60
        E 0 90 61 60
        E 0 90 62 60
        E 60 80 1a 00
        E 0 80 1f 00
        E 0 80 3d 00
        E 0 80 3e 00
        E 0 80 49 00
        E 0 80 4a 00
        E 0 80 55 00
        E 0 80 56 00
        E 0 80 61 00
        E 0 80 62 00
        E 180 90 1f 60
        E 0 90 56 60
        E 0 90 62 60
        E 60 80 1f 00
        E 0 80 56 00
        E 0 80 62 00
        E 90 90 18 60
        E 0 90 60 60
        E 30 80 18 00
        E 0 80 60 00
        E 60 90 18 60
        E 0 90 1f 60
        E 0 90 3e 60
        E 0 90 48 60
        E 0 90 4a 60
        E 0 90 54 60
        E 0 90 56 60
        E 0 90 60 60
        E 0 90 62 60
        E 60 80 18 00
        E 0 80 1f 00
        E 0 80 3e 00
        E 0 80 48 00
        E 0 80 4a 00
        E 0 80 54 00
        E 0 80 56 00
        E 0 80 60 00
        E 0 80 62 00
        E 180 90 18 60
        E 0 90 1f 60
        E 0 90 54 60
        E 0 90 56 60
        E 0 90 60 60
        E 0 90 62 60
        E 60 80 18 00
        E 0 80 1f 00
        E 0 80 54 00
        E 0 80 56 00
        E 0 80 60 00
        E 0 80 62 00
        E 180 90 1a 60
        E 0 90 1f 60
        E 0 90 3d 60
        E 0 90 3e 60
        E 0 90 49 60
        E 0 90 4a 60
        E 0 90 55 60
        E 0 90 56 60
        E 0 90 61 60
        E 0 90 62 60
        E 60 80 1a 00
        E 0 80 1f 00
        E 0 80 3d 00
        E 0 80 3e 00
        E 0 80 49 00
        E 0 80 4a 00
        E 0 80 55 00
        E 0 80 56 00
        E 0 80 61 00
        E 0 80 62 00
        E 180 90 1f 60
        E 0 90 56 60
        E 0 90 62 60
        E 60 80 1f 00
        E 0 80 56 00
        E 0 80 62 00
        E 180 90 18 60
        E 0 90 1f 60
        E 0 90 3e 60
        E 0 90 48 60
        E 0 90 4a 60
        E 0 90 54 60
        E 0 90 56 60
        E 0 90 60 60
        E 0 90 62 60
        E 61 80 18 00
        E 0 80 1f 00
        E 0 80 3e 00
        E 0 80 48 00
        E 0 80 4a 00
        E 0 80 54 00
        E 0 80 56 00
        E 0 80 60 00
        E 0 80 62 00
        E 179 90 1f 60
        E 0 90 56 60
        E 0 90 62 60
        E 60 80 1f 00
        E 0 80 56 00
        E 0 80 62 00
        E 180 90 1a 60
        E 0 90 1f 60
        E 0 90 3d 60
        E 0 90 3e 60
        E 0 90 49 60
        E 0 90 4a 60
        E 0 90 55 60
        E 0 90 56 60
        E 0 90 61 60
        E 0 90 62 60
        E 60 80 1a 00
        E 0 80 1f 00
        E 0 80 3d 00
        E 0 80 3e 00
        E 0 80 49 00
        E 0 80 4a 00
        E 0 80 55 00
        E 0 80 56 00
        E 0 80 61 00
        E 0 80 62 00
        E 180 90 1f 60
        E 0 90 56 60
        E 0 90 62 60
        E 60 80 1f 00
        E 0 80 56 00
        E 0 80 62 00
        E 90 90 18 60
        E 0 90 60 60
        E 30 80 18 00
        E 0 80 60 00
        E 60 90 18 60
        E 0 90 1f 60
        E 0 90 3e 60
        E 0 90 48 60
        E 0 90 4a 60
        E 0 90 54 60
        E 0 90 56 60
        E 0 90 60 60
        E 0 90 62 60
        E 60 80 18 00
        E 0 80 1f 00
        E 0 80 3e 00
        E 0 80 48 00
        E 0 80 4a 00
        E 0 80 54 00
        E 0 80 56 00
        E 0 80 60 00
        E 0 80 62 00
        E 180 90 18 60
        E 0 90 1f 60
        E 0 90 54 60
        E 0 90 56 60
        E 0 90 60 60
        E 0 90 62 60
        E 60 80 18 00
        E 0 80 1f 00
        E 0 80 54 00
        E 0 80 56 00
        E 0 80 60 00
        E 0 80 62 00
        E 180 90 1a 60
        E 0 90 1f 60
        E 0 90 3d 60
        E 0 90 3e 60
        E 0 90 49 60
        E 0 90 4a 60
        E 0 90 55 60
        E 0 90 56 60
        E 0 90 61 60
        E 0 90 62 60
        E 60 80 1a 00
        E 0 80 1f 00
        E 0 80 3d 00
        E 0 80 3e 00
        E 0 80 49 00
        E 0 80 4a 00
        E 0 80 55 00
        E 0 80 56 00
        E 0 80 61 00
        E 0 80 62 00
        E 180 90 1f 60
        E 0 90 56 60
        E 0 90 62 60
        E 60 80 1f 00
        E 0 80 56 00
        E 0 80 62 00
        E 180 90 18 60
        E 0 90 1f 60
        E 0 90 3e 60
        E 0 90 48 60
        E 0 90 4a 60
        E 0 90 54 60
        E 0 90 56 60
        E 0 90 60 60
        E 0 90 62 60
        E 61 80 18 00
        E 0 80 1f 00
        E 0 80 3e 00
        E 0 80 48 00
        E 0 80 4a 00
        E 0 80 54 00
        E 0 80 56 00
        E 0 80 60 00
        E 0 80 62 00
        e 159 90 74 58
        E 20 90 1f 60
        E 0 90 56 60
        E 0 90 62 60
        E 60 80 1f 00
        E 0 80 56 00
        E 0 80 62 00
        E 180 90 1a 60
        E 0 90 1f 60
        E 0 90 3d 60
        E 0 90 3e 60
        E 0 90 49 60
        E 0 90 4a 60
        E 0 90 55 60
        E 0 90 56 60
        E 0 90 61 60
        E 0 90 62 60
        E 60 80 1a 00
        E 0 80 1f 00
        E 0 80 3d 00
        E 0 80 3e 00
        E 0 80 49 00
        E 0 80 4a 00
        E 0 80 55 00
        E 0 80 56 00
        E 0 80 61 00
        E 0 80 62 00
        E 180 90 1f 60
        E 0 90 56 60
        E 0 90 62 60
        E 60 80 1f 00
        E 0 80 56 00
        E 0 80 62 00
        E 90 90 18 60
        E 0 90 60 60
        E 30 80 18 00
        E 0 80 60 00
        E 60 90 18 60
        E 0 90 1f 60
        E 0 90 3e 60
        E 0 90 48 60
        E 0 90 4a 60
        E 0 90 54 60
        E 0 90 56 60
        E 0 90 60 60
        E 0 90 62 60
        E 60 80 18 00
        E 0 80 1f 00
        E 0 80 3e 00
        E 0 80 48 00
        E 0 80 4a 00
        E 0 80 54 00
        E 0 80 56 00
        E 0 80 60 00
        E 0 80 62 00
        E 180 90 18 60
        E 0 90 1f 60
        E 0 90 54 60
        E 0 90 56 60
        E 0 90 60 60
        E 0 90 62 60
        E 60 80 18 00
        E 0 80 1f 00
        E 0 80 54 00
        E 0 80 56 00
        E 0 80 60 00
        E 0 80 62 00
        E 180 90 1a 60
        E 0 90 1f 60
        E 0 90 3d 60
        E 0 90 3e 60
        E 0 90 49 60
        E 0 90 4a 60
        E 0 90 55 60
        E 0 90 56 60
        E 0 90 61 60
        E 0 90 62 60
        E 60 80 1a 00
        E 0 80 1f 00
        E 0 80 3d 00
        E 0 80 3e 00
        E 0 80 49 00
        E 0 80 4a 00
        E 0 80 55 00
        E 0 80 56 00
        E 0 80 61 00
        E 0 80 62 00
        e 20 80 74 00
        E 160 90 1f 60
        E 0 90 56 60
        E 0 90 62 60
        E 60 80 1f 00
        E 0 80 56 00
        E 0 80 62 00
        E 180 90 18 60
        E 0 90 1f 60
        E 0 90 3e 60
        E 0 90 48 60
        E 0 90 4a 60
        E 0 90 54 60
        E 0 90 56 60
        E 0 90 60 60
        E 0 90 62 60
        E 61 80 18 00
        E 0 80 1f 00
        E 0 80 3e 00
        E 0 80 48 00
        E 0 80 4a 00
        E 0 80 54 00
        E 0 80 56 00
        E 0 80 60 00
        E 0 80 62 00
        E 179 90 1f 60
        E 0 90 56 60
        E 0 90 62 60
        E 60 80 1f 00
        E 0 80 56 00
        E 0 80 62 00
        E 180 90 1a 60
        E 0 90 1f 60
        E 0 90 3d 60
        E 0 90 3e 60
        E 0 90 49 60
        E 0 90 4a 60
        E 0 90 55 60
        E 0 90 56 60
        E 0 90 61 60
        E 0 90 62 60
        E 60 80 1a 00
        E 0 80 1f 00
        E 0 80 3d 00
        E 0 80 3e 00
        E 0 80 49 00
        E 0 80 4a 00
        E 0 80 55 00
        E 0 80 56 00
        E 0 80 61 00
        E 0 80 62 00
        E 180 90 1f 60
        E 0 90 56 60
        E 0 90 62 60
        E 60 80 1f 00
        E 0 80 56 00
        E 0 80 62 00
        E 90 90 18 60
        E 0 90 60 60
        E 30 80 18 00
        E 0 80 60 00
        E 60 90 18 60
        E 0 90 1f 60
        E 0 90 3e 60
        E 0 90 48 60
        E 0 90 4a 60
        E 0 90 54 60
        E 0 90 56 60
        E 0 90 60 60
        E 0 90 62 60
        E 60 80 18 00
        E 0 80 1f 00
        E 0 80 3e 00
        E 0 80 48 00
        E 0 80 4a 00
        E 0 80 54 00
        E 0 80 56 00
        E 0 80 60 00
        E 0 80 62 00
        E 180 90 18 60
        E 0 90 1f 60
        E 0 90 54 60
        E 0 90 56 60
        E 0 90 60 60
        E 0 90 62 60
        E 60 80 18 00
        E 0 80 1f 00
        E 0 80 54 00
        E 0 80 56 00
        E 0 80 60 00
        E 0 80 62 00
        E 180 90 1a 60
        E 0 90 1f 60
        E 0 90 3d 60
        E 0 90 3e 60
        E 0 90 49 60
        E 0 90 4a 60
        E 0 90 55 60
        E 0 90 56 60
        E 0 90 61 60
        E 0 90 62 60
        E 60 80 1f 00
        E 0 80 3e 00
        E 0 80 4a 00
        E 0 80 56 00
        E 0 80 62 00
        E 1 80 1a 00
        E 0 80 3d 00
        E 0 80 49 00
        E 0 80 55 00
        E 0 80 61 00
        E 179 90 1f 60
        E 0 90 56 60
        E 0 90 62 60
        E 60 80 1f 00
        E 0 80 56 00
        E 0 80 62 00
        E 180 90 18 60
        E 0 90 1f 60
        E 0 90 3e 60
        E 0 90 48 60
        E 0 90 4a 60
        E 0 90 54 60
        E 0 90 56 60
        E 0 90 60 60
        E 0 90 62 60
        E 61 80 18 00
        E 0 80 1f 00
        E 0 80 3e 00
        E 0 80 48 00
        E 0 80 4a 00
        E 0 80 54 00
        E 0 80 56 00
        E 0 80 60 00
        E 0 80 62 00
        E 179 90 1f 60
        E 0 90 56 60
        E 0 90 62 60
        E 60 80 1f 00
        E 0 80 56 00
        E 0 80 62 00
        E 180 90 1a 60
        E 0 90 1f 60
        E 0 90 3d 60
        E 0 90 3e 60
        E 0 90 49 60
        E 0 90 4a 60
        E 0 90 55 60
        E 0 90 56 60
        E 0 90 61 60
        E 0 90 62 60
        E 60 80 1a 00
        E 0 80 1f 00
        E 0 80 3d 00
        E 0 80 3e 00
        E 0 80 49 00
        E 0 80 4a 00
        E 0 80 55 00
        E 0 80 56 00
        E 0 80 61 00
        E 0 80 62 00
        E 180 90 1f 60
        E 0 90 56 60
        E 0 90 62 60
        E 60 80 1f 00
        E 0 80 56 00
        E 0 80 62 00
        E 90 90 18 60
        E 0 90 60 60
        E 30 80 18 00
        E 0 80 60 00
        E 60 90 18 60
        E 0 90 1f 60
        E 0 90 3e 60
        E 0 90 48 60
        E 0 90 4a 60
        E 0 90 54 60
        E 0 90 56 60
        E 0 90 60 60
        E 0 90 62 60
        E 60 80 18 00
        E 0 80 1f 00
        E 0 80 3e 00
        E 0 80 48 00
        E 0 80 4a 00
        E 0 80 54 00
        E 0 80 56 00
        E 0 80 60 00
        E 0 80 62 00
        E 180 90 18 60
        E 0 90 1f 60
        E 0 90 54 60
        E 0 90 56 60
        E 0 90 60 60
        E 0 90 62 60
        E 60 80 18 00
        E 0 80 1f 00
        E 0 80 54 00
        E 0 80 56 00
        E 0 80 60 00
        E 0 80 62 00
        E 180 90 1a 60
        E 0 90 1f 60
        E 0 90 3d 60
        E 0 90 3e 60
        E 0 90 49 60
        E 0 90 4a 60
        E 0 90 55 60
        E 0 90 56 60
        E 0 90 61 60
        E 0 90 62 60
        E 60 80 1f 00
        E 0 80 3e 00
        E 0 80 4a 00
        E 0 80 56 00
        E 0 80 62 00
        E 1 80 1a 00
        E 0 80 3d 00
        E 0 80 49 00
        E 0 80 55 00
        E 0 80 61 00
        E 179 90 1f 60
        E 0 90 56 60
        E 0 90 62 60
        E 60 80 1f 00
        E 0 80 56 00
        E 0 80 62 00
        E 180 90 18 60
        E 0 90 1f 60
        E 0 90 3e 60
        E 0 90 48 60
        E 0 90 4a 60
        E 0 90 54 60
        E 0 90 56 60
        E 0 90 60 60
        E 0 90 62 60
        E 61 80 18 00
        E 0 80 1f 00
        E 0 80 3e 00
        E 0 80 48 00
        E 0 80 4a 00
        E 0 80 54 00
        E 0 80 56 00
        E 0 80 60 00
        E 0 80 62 00
        E 179 90 1f 60
        E 0 90 56 60
        E 0 90 62 60
        E 60 80 1f 00
        E 0 80 56 00
        E 0 80 62 00
        E 180 90 1a 60
        E 0 90 1f 60
        E 0 90 3d 60
        E 0 90 3e 60
        E 0 90 49 60
        E 0 90 4a 60
        E 0 90 55 60
        E 0 90 56 60
        E 0 90 61 60
        E 0 90 62 60
        E 60 80 1a 00
        E 0 80 1f 00
        E 0 80 3d 00
        E 0 80 3e 00
        E 0 80 49 00
        E 0 80 4a 00
        E 0 80 55 00
        E 0 80 56 00
        E 0 80 61 00
        E 0 80 62 00
        E 180 90 18 60
        E 0 90 1f 60
        E 0 90 54 60
        E 0 90 56 60
        E 0 90 60 60
        E 0 90 62 60
        E 60 80 18 00
        E 0 80 1f 00
        E 0 80 54 00
        E 0 80 56 00
        E 0 80 60 00
        E 0 80 62 00
        E 180 90 78 58
        E 0 90 79 58
        E 0 90 7a 58
        E 0 90 7b 58
        E 0 90 7c 58
        E 40 90 2e 60
        E 0 90 62 60
        E 0 90 6e 60
        E 30 80 2e 00
        E 0 80 62 00
        E 0 80 6e 00
        E 40 90 2f 60
        E 0 90 62 60
        E 0 90 6e 60
        E 30 80 2f 00
        E 0 80 62 00
        E 0 80 6e 00
        E 40 90 2e 60
        E 0 90 62 60
        E 0 90 6e 60
        E 30 80 2e 00
        E 0 80 62 00
        E 0 80 6e 00
        E 40 90 2f 60
        E 0 90 56 60
        E 0 90 62 60
        E 0 90 6e 60
        E 30 80 2f 00
        E 0 80 56 00
        E 0 80 62 00
        E 0 80 6e 00
        E 40 90 2e 60
        E 0 90 62 60
        E 0 90 6e 60
        E 30 80 2e 00
        E 0 80 62 00
        E 0 80 6e 00
        E 40 90 2f 60
        E 0 90 62 60
        E 0 90 6e 60
        E 30 80 2f 00
        E 0 80 62 00
        E 0 80 6e 00
        E 60 90 30 60
        E 0 90 3f 60
        E 0 90 4b 60
        E 0 90 57 60
        E 0 90 63 60
        E 0 90 6f 60
        E 30 80 30 00
        E 0 80 3f 00
        E 0 80 4b 00
        E 0 80 57 00
        E 0 80 63 00
        E 0 80 6f 00
        E 50 90 31 60
        E 0 90 63 60
        E 0 90 6f 60
        E 30 80 31 00
        E 0 80 63 00
        E 0 80 6f 00
        E 50 90 30 60
        E 0 90 63 60
        E 0 90 6f 60
        E 30 80 30 00
        E 0 80 63 00
        E 0 80 6f 00
        E 50 90 31 60
        E 0 90 57 60
        E 0 90 63 60
        E 0 90 6f 60
        E 30 80 31 00
        E 0 80 57 00
        E 0 80 63 00
        E 0 80 6f 00
        E 50 90 30 60
        E 0 90 63 60
        E 0 90 6f 60
        E 30 80 30 00
        E 0 80 63 00
        E 0 80 6f 00
        E 50 90 31 60
        E 0 90 63 60
        E 0 90 6f 60
        E 30 80 31 00
        E 0 80 63 00
        E 0 80 6f 00
        E 50 80 78 00
        E 0 80 79 00
        E 0 80 7a 00
        E 0 80 7b 00
        E 0 80 7c 00
        E 0 90 18 60
        E 0 90 2c 60
        E 0 90 40 60
        E 0 90 48 60
        E 0 90 4c 60
        E 0 90 54 60
        E 0 90 58 60
        E 0 90 60 60
        E 0 90 64 60
        E 60 80 18 00
        E 0 80 2c 00
        E 0 80 40 00
        E 0 80 48 00
        E 0 80 4c 00
        E 0 80 54 00
        E 0 80 58 00
        E 0 80 60 00
        E 0 80 64 00
        E 180 90 1f 60
        E 0 90 56 60
        E 0 90 62 60
        E 60 80 1f 00
        E 0 80 56 00
        E 0 80 62 00
        E 180 90 1a 60
        E 0 90 1f 60
        E 0 90 3d 60
        E 0 90 3e 60
        E 0 90 49 60
        E 0 90 4a 60
        E 0 90 55 60
        E 0 90 56 60
        E 0 90 61 60
        E 0 90 62 60
        E 60 80 1a 00
        E 0 80 1f 00
        E 0 80 3d 00
        E 0 80 3e 00
        E 0 80 49 00
        E 0 80 4a 00
        E 0 80 55 00
        E 0 80 56 00
        E 0 80 61 00
        E 0 80 62 00
        E 180 90 1f 60
        E 0 90 56 60
        E 0 90 62 60
        E 60 80 1f 00
        E 0 80 56 00
        E 0 80 62 00
        E 90 90 18 60
        E 0 90 60 60
        E 30 80 18 00
        E 0 80 60 00
        E 60 90 18 60
        E 0 90 1f 60
        E 0 90 3e 60
        E 0 90 48 60
        E 0 90 4a 60
        E 0 90 54 60
        E 0 90 56 60
        E 0 90 60 60
        E 0 90 62 60
        E 60 80 18 00
        E 0 80 1f 00
        E 0 80 3e 00
        E 0 80 48 00
        E 0 80 4a 00
        E 0 80 54 00
        E 0 80 56 00
        E 0 80 60 00
        E 0 80 62 00
        E 180 90 18 60
        E 0 90 1f 60
        E 0 90 54 60
        E 0 90 56 60
        E 0 90 60 60
        E 0 90 62 60
        E 60 80 18 00
        E 0 80 1f 00
        E 0 80 54 00
        E 0 80 56 00
        E 0 80 60 00
        E 0 80 62 00
        E 180 90 1a 60
        E 0 90 1f 60
        E 0 90 3d 60
        E 0 90 3e 60
        E 0 90 49 60
        E 0 90 4a 60
        E 0 90 55 60
        E 0 90 56 60
        E 0 90 61 60
        E 0 90 62 60
        E 60 80 1f 00
        E 0 80 3e 00
        E 0 80 4a 00
        E 0 80 56 00
        E 0 80 62 00
        E 1 80 1a 00
        E 0 80 3d 00
        E 0 80 49 00
        E 0 80 55 00
        E 0 80 61 00
        E 179 90 1f 60
        E 0 90 56 60
        E 0 90 62 60
        E 60 80 1f 00
        E 0 80 56 00
        E 0 80 62 00
        E 180 90 18 60
        E 0 90 1f 60
        E 0 90 3e 60
        E 0 90 48 60
        E 0 90 4a 60
        E 0 90 54 60
        E 0 90 56 60
        E 0 90 60 60
        E 0 90 62 60
        E 61 80 18 00
        E 0 80 1f 00
        E 0 80 3e 00
        E 0 80 48 00
        E 0 80 4a 00
        E 0 80 54 00
        E 0 80 56 00
        E 0 80 60 00
        E 0 80 62 00
        E 179 90 1f 60
        E 0 90 56 60
        E 0 90 62 60
        E 60 80 1f 00
        E 0 80 56 00
        E 0 80 62 00
        E 180 90 1a 60
        E 0 90 1f 60
        E 0 90 3d 60
        E 0 90 3e 60
        E 0 90 49 60
        E 0 90 4a 60
        E 0 90 55 60
        E 0 90 56 60
        E 0 90 61 60
        E 0 90 62 60
        E 60 80 1a 00
        E 0 80 1f 00
        E 0 80 3d 00
        E 0 80 3e 00
        E 0 80 49 00
        E 0 80 4a 00
        E 0 80 55 00
        E 0 80 56 00
        E 0 80 61 00
        E 0 80 62 00
        E 180 90 1f 60
        E 0 90 56 60
        E 0 90 62 60
        E 60 80 1f 00
        E 0 80 56 00
        E 0 80 62 00
        E 90 90 18 60
        E 0 90 60 60
        E 30 80 18 00
        E 0 80 60 00
        E 60 90 18 60
        E 0 90 1f 60
        E 0 90 3e 60
        E 0 90 48 60
        E 0 90 4a 60
        E 0 90 54 60
        E 0 90 56 60
        E 0 90 60 60
        E 0 90 62 60
        E 60 80 18 00
        E 0 80 1f 00
        E 0 80 3e 00
        E 0 80 48 00
        E 0 80 4a 00
        E 0 80 54 00
        E 0 80 56 00
        E 0 80 60 00
        E 0 80 62 00
        E 180 90 18 60
        E 0 90 1f 60
        E 0 90 54 60
        E 0 90 56 60
        E 0 90 60 60
        E 0 90 62 60
        E 60 80 18 00
        E 0 80 1f 00
        E 0 80 54 00
        E 0 80 56 00
        E 0 80 60 00
        E 0 80 62 00
        E 180 90 1a 60
        E 0 90 1f 60
        E 0 90 3d 60
        E 0 90 3e 60
        E 0 90 49 60
        E 0 90 4a 60
        E 0 90 55 60
        E 0 90 56 60
        E 0 90 61 60
        E 0 90 62 60
        E 60 80 1f 00
        E 0 80 3e 00
        E 0 80 4a 00
        E 0 80 56 00
        E 0 80 62 00
        E 1 80 1a 00
        E 0 80 3d 00
        E 0 80 49 00
        E 0 80 55 00
        E 0 80 61 00
        E 179 90 1f 60
        E 0 90 56 60
        E 0 90 62 60
        E 60 80 1f 00
        E 0 80 56 00
        E 0 80 62 00
        E 180 90 18 60
        E 0 90 1f 60
        E 0 90 3e 60
        E 0 90 48 60
        E 0 90 4a 60
        E 0 90 54 60
        E 0 90 56 60
        E 0 90 60 60
        E 0 90 62 60
        E 61 80 18 00
        E 0 80 1f 00
        E 0 80 3e 00
        E 0 80 48 00
        E 0 80 4a 00
        E 0 80 54 00
        E 0 80 56 00
        E 0 80 60 00
        E 0 80 62 00
        E 159 90 74 58
        E 20 90 1f 60
        E 0 90 56 60
        E 0 90 62 60
        E 60 80 1f 00
        E 0 80 56 00
        E 0 80 62 00
        E 180 90 1a 60
        E 0 90 1f 60
        E 0 90 3d 60
        E 0 90 3e 60
        E 0 90 49 60
        E 0 90 4a 60
        E 0 90 55 60
        E 0 90 56 60
        E 0 90 61 60
        E 0 90 62 60
        E 60 80 1a 00
        E 0 80 1f 00
        E 0 80 3d 00
        E 0 80 3e 00
        E 0 80 49 00
        E 0 80 4a 00
        E 0 80 55 00
        E 0 80 56 00
        E 0 80 61 00
        E 0 80 62 00
        E 180 90 1f 60
        E 0 90 56 60
        E 0 90 62 60
        E 60 80 1f 00
        E 0 80 56 00
        E 0 80 62 00
        E 90 90 18 60
        E 0 90 60 60
        E 30 80 18 00
        E 0 80 60 00
        E 60 90 18 60
        E 0 90 1f 60
        E 0 90 3e 60
        E 0 90 48 60
        E 0 90 4a 60
        E 0 90 54 60
        E 0 90 56 60
        E 0 90 60 60
        E 0 90 62 60
        E 60 80 18 00
        E 0 80 1f 00
        E 0 80 3e 00
        E 0 80 48 00
        E 0 80 4a 00
        E 0 80 54 00
        E 0 80 56 00
        E 0 80 60 00
        E 0 80 62 00
        E 180 90 18 60
        E 0 90 1f 60
        E 0 90 54 60
        E 0 90 56 60
        E 0 90 60 60
        E 0 90 62 60
        E 60 80 18 00
        E 0 80 1f 00
        E 0 80 54 00
        E 0 80 56 00
        E 0 80 60 00
        E 0 80 62 00
        E 180 90 1a 60
        E 0 90 1f 60
        E 0 90 3d 60
        E 0 90 3e 60
        E 0 90 49 60
        E 0 90 4a 60
        E 0 90 55 60
        E 0 90 56 60
        E 0 90 61 60
        E 0 90 62 60
        E 60 80 1f 00
        E 0 80 3e 00
        E 0 80 4a 00
        E 0 80 56 00
        E 0 80 62 00
        E 1 80 1a 00
        E 0 80 3d 00
        E 0 80 49 00
        E 0 80 55 00
        E 0 80 61 00
        E 19 80 74 00
        E 160 90 1f 60
        E 0 90 56 60
        E 0 90 62 60
        E 60 80 1f 00
        E 0 80 56 00
        E 0 80 62 00
        E 180 90 18 60
        E 0 90 1f 60
        E 0 90 3e 60
        E 0 90 48 60
        E 0 90 4a 60
        E 0 90 54 60
        E 0 90 56 60
        E 0 90 60 60
        E 0 90 62 60
        E 61 80 18 00
        E 0 80 1f 00
        E 0 80 3e 00
        E 0 80 48 00
        E 0 80 4a 00
        E 0 80 54 00
        E 0 80 56 00
        E 0 80 60 00
        E 0 80 62 00
        E 179 90 1f 60
        E 0 90 56 60
        E 0 90 62 60
        E 60 80 1f 00
        E 0 80 56 00
        E 0 80 62 00
        E 180 90 1a 60
        E 0 90 1f 60
        E 0 90 3d 60
        E 0 90 3e 60
        E 0 90 49 60
        E 0 90 4a 60
        E 0 90 55 60
        E 0 90 56 60
        E 0 90 61 60
        E 0 90 62 60
        E 60 80 1a 00
        E 0 80 1f 00
        E 0 80 3d 00
        E 0 80 3e 00
        E 0 80 49 00
        E 0 80 4a 00
        E 0 80 55 00
        E 0 80 56 00
        E 0 80 61 00
        E 0 80 62 00
        E 180 90 1f 60
        E 0 90 56 60
        E 0 90 62 60
        E 60 80 1f 00
        E 0 80 56 00
        E 0 80 62 00
        E 90 90 18 60
        E 0 90 60 60
        E 30 80 18 00
        E 0 80 60 00
        E 60 90 18 60
        E 0 90 1f 60
        E 0 90 3e 60
        E 0 90 48 60
        E 0 90 4a 60
        E 0 90 54 60
        E 0 90 56 60
        E 0 90 60 60
        E 0 90 62 60
        E 60 80 18 00
        E 0 80 1f 00
        E 0 80 3e 00
        E 0 80 48 00
        E 0 80 4a 00
        E 0 80 54 00
        E 0 80 56 00
        E 0 80 60 00
        E 0 80 62 00
        E 180 90 18 60
        E 0 90 1f 60
        E 0 90 54 60
        E 0 90 56 60
        E 0 90 60 60
        E 0 90 62 60
        E 60 80 18 00
        E 0 80 1f 00
        E 0 80 54 00
        E 0 80 56 00
        E 0 80 60 00
        E 0 80 62 00
        E 180 90 1a 60
        E 0 90 1f 60
        E 0 90 3d 60
        E 0 90 3e 60
        E 0 90 49 60
        E 0 90 4a 60
        E 0 90 55 60
        E 0 90 56 60
        E 0 90 61 60
        E 0 90 62 60
        E 60 80 1f 00
        E 0 80 3e 00
        E 0 80 4a 00
        E 0 80 56 00
        E 0 80 62 00
        E 1 80 1a 00
        E 0 80 3d 00
        E 0 80 49 00
        E 0 80 55 00
        E 0 80 61 00
        E 179 90 1f 60
        E 0 90 56 60
        E 0 90 62 60
        E 60 80 1f 00
        E 0 80 56 00
        E 0 80 62 00
        E 180 90 18 60
        E 0 90 1f 60
        E 0 90 3e 60
        E 0 90 48 60
        E 0 90 4a 60
        E 0 90 54 60
        E 0 90 56 60
        E 0 90 60 60
        E 0 90 62 60
        E 61 80 18 00
        E 0 80 1f 00
        E 0 80 3e 00
        E 0 80 48 00
        E 0 80 4a 00
        E 0 80 54 00
        E 0 80 56 00
        E 0 80 60 00
        E 0 80 62 00
        E 179 90 1f 60
        E 0 90 56 60
        E 0 90 62 60
        E 60 80 1f 00
        E 0 80 56 00
        E 0 80 62 00
        E 180 90 1a 60
        E 0 90 1f 60
        E 0 90 3d 60
        E 0 90 3e 60
        E 0 90 49 60
        E 0 90 4a 60
        E 0 90 55 60
        E 0 90 56 60
        E 0 90 61 60
        E 0 90 62 60
        E 60 80 1a 00
        E 0 80 1f 00
        E 0 80 3d 00
        E 0 80 3e 00
        E 0 80 49 00
        E 0 80 4a 00
        E 0 80 55 00
        E 0 80 56 00
        E 0 80 61 00
        E 0 80 62 00
        E 180 90 1f 60
        E 0 90 56 60
        E 0 90 62 60
        E 60 80 1f 00
        E 0 80 56 00
        E 0 80 62 00
        E 90 90 18 60
        E 0 90 60 60
        E 30 80 18 00
        E 0 80 60 00
        E 60 90 18 60
        E 0 90 1f 60
        E 0 90 3e 60
        E 0 90 48 60
        E 0 90 4a 60
        E 0 90 54 60
        E 0 90 56 60
        E 0 90 60 60
        E 0 90 62 60
        E 60 80 18 00
        E 0 80 1f 00
        E 0 80 3e 00
        E 0 80 48 00
        E 0 80 4a 00
        E 0 80 54 00
        E 0 80 56 00
        E 0 80 60 00
        E 0 80 62 00
        E 180 90 18 60
        E 0 90 1f 60
        E 0 90 54 60
        E 0 90 56 60
        E 0 90 60 60
        E 0 90 62 60
        E 60 80 18 00
        E 0 80 1f 00
        E 0 80 54 00
        E 0 80 56 00
        E 0 80 60 00
        E 0 80 62 00
        E 180 90 1a 60
        E 0 90 1f 60
        E 0 90 3d 60
        E 0 90 3e 60
        E 0 90 49 60
        E 0 90 4a 60
        E 0 90 55 60
        E 0 90 56 60
        E 0 90 61 60
        E 0 90 62 60
        E 60 80 1f 00
        E 0 80 3e 00
        E 0 80 4a 00
        E 0 80 56 00
        E 0 80 62 00
        E 1 80 1a 00
        E 0 80 3d 00
        E 0 80 49 00
        E 0 80 55 00
        E 0 80 61 00
        E 179 90 1f 60
        E 0 90 56 60
        E 0 90 62 60
        E 60 80 1f 00
        E 0 80 56 00
        E 0 80 62 00
        E 180 90 18 60
        E 0 90 1f 60
        E 0 90 3e 60
        E 0 90 48 60
        E 0 90 4a 60
        E 0 90 54 60
        E 0 90 56 60
        E 0 90 60 60
        E 0 90 62 60
        E 61 80 18 00
        E 0 80 1f 00
        E 0 80 3e 00
        E 0 80 48 00
        E 0 80 4a 00
        E 0 80 54 00
        E 0 80 56 00
        E 0 80 60 00
        E 0 80 62 00
        E 179 90 1f 60
        E 0 90 56 60
        E 0 90 62 60
        E 60 80 1f 00
        E 0 80 56 00
        E 0 80 62 00
        E 180 90 1a 60
        E 0 90 1f 60
        E 0 90 3d 60
        E 0 90 3e 60
        E 0 90 49 60
        E 0 90 4a 60
        E 0 90 55 60
        E 0 90 56 60
        E 0 90 61 60
        E 0 90 62 60
        E 60 80 1a 00
        E 0 80 1f 00
        E 0 80 3d 00
        E 0 80 3e 00
        E 0 80 49 00
        E 0 80 4a 00
        E 0 80 55 00
        E 0 80 56 00
        E 0 80 61 00
        E 0 80 62 00
        E 180 90 1f 60
        E 0 90 56 60
        E 0 90 62 60
        E 60 80 1f 00
        E 0 80 56 00
        E 0 80 62 00
        E 90 90 18 60
        E 0 90 60 60
        E 30 80 18 00
        E 0 80 60 00
        E 60 90 18 60
        E 0 90 1f 60
        E 0 90 3e 60
        E 0 90 48 60
        E 0 90 4a 60
        E 0 90 54 60
        E 0 90 56 60
        E 0 90 60 60
        E 0 90 62 60
        E 60 80 18 00
        E 0 80 1f 00
        E 0 80 3e 00
        E 0 80 48 00
        E 0 80 4a 00
        E 0 80 54 00
        E 0 80 56 00
        E 0 80 60 00
        E 0 80 62 00
        E 180 90 18 60
        E 0 90 1f 60
        E 0 90 54 60
        E 0 90 56 60
        E 0 90 60 60
        E 0 90 62 60
        E 60 80 18 00
        E 0 80 1f 00
        E 0 80 54 00
        E 0 80 56 00
        E 0 80 60 00
        E 0 80 62 00
        E 180 90 1a 60
        E 0 90 1f 60
        E 0 90 3d 60
        E 0 90 3e 60
        E 0 90 49 60
        E 0 90 4a 60
        E 0 90 55 60
        E 0 90 56 60
        E 0 90 61 60
        E 0 90 62 60
        E 60 80 1f 00
        E 0 80 3e 00
        E 0 80 4a 00
        E 0 80 56 00
        E 0 80 62 00
        E 1 80 1a 00
        E 0 80 3d 00
        E 0 80 49 00
        E 0 80 55 00
        E 0 80 61 00
        E 179 90 1f 60
        E 0 90 56 60
        E 0 90 62 60
        E 60 80 1f 00
        E 0 80 56 00
        E 0 80 62 00
        E 180 90 18 60
        E 0 90 1f 60
        E 0 90 3e 60
        E 0 90 48 60
        E 0 90 4a 60
        E 0 90 54 60
        E 0 90 56 60
        E 0 90 60 60
        E 0 90 62 60
        E 61 80 18 00
        E 0 80 1f 00
        E 0 80 3e 00
        E 0 80 48 00
        E 0 80 4a 00
        E 0 80 54 00
        E 0 80 56 00
        E 0 80 60 00
        E 0 80 62 00
        E 179 90 1f 60
        E 0 90 56 60
        E 0 90 62 60
        E 60 80 1f 00
        E 0 80 56 00
        E 0 80 62 00
        E 180 90 1a 60
        E 0 90 1f 60
        E 0 90 3d 60
        E 0 90 3e 60
        E 0 90 49 60
        E 0 90 4a 60
        E 0 90 55 60
        E 0 90 56 60
        E 0 90 61 60
        E 0 90 62 60
        E 60 80 1a 00
        E 0 80 1f 00
        E 0 80 3d 00
        E 0 80 3e 00
        E 0 80 49 00
        E 0 80 4a 00
        E 0 80 55 00
        E 0 80 56 00
        E 0 80 61 00
        E 0 80 62 00
        E 180 90 1f 60
        E 0 90 56 60
        E 0 90 62 60
        E 60 80 1f 00
        E 0 80 56 00
        E 0 80 62 00
        E 90 90 18 60
        E 0 90 60 60
        E 30 80 18 00
        E 0 80 60 00
        E 60 90 18 60
        E 0 90 1f 60
        E 0 90 3e 60
        E 0 90 48 60
        E 0 90 4a 60
        E 0 90 54 60
        E 0 90 56 60
        E 0 90 60 60
        E 0 90 62 60
        E 60 80 18 00
        E 0 80 1f 00
        E 0 80 3e 00
        E 0 80 48 00
        E 0 80 4a 00
        E 0 80 54 00
        E 0 80 56 00
        E 0 80 60 00
        E 0 80 62 00
        E 180 90 18 60
        E 0 90 1f 60
        E 0 90 54 60
        E 0 90 56 60
        E 0 90 60 60
        E 0 90 62 60
        E 60 80 18 00
        E 0 80 1f 00
        E 0 80 54 00
        E 0 80 56 00
        E 0 80 60 00
        E 0 80 62 00
        E 180 90 1a 60
        E 0 90 1f 60
        E 0 90 3d 60
        E 0 90 3e 60
        E 0 90 49 60
        E 0 90 4a 60
        E 0 90 55 60
        E 0 90 56 60
        E 0 90 61 60
        E 0 90 62 60
        E 60 80 1f 00
        E 0 80 3e 00
        E 0 80 4a 00
        E 0 80 56 00
        E 0 80 62 00
        E 1 80 1a 00
        E 0 80 3d 00
        E 0 80 49 00
        E 0 80 55 00
        E 0 80 61 00
        E 179 90 1f 60
        E 0 90 56 60
        E 0 90 62 60
        E 60 80 1f 00
        E 0 80 56 00
        E 0 80 62 00
        E 180 90 18 60
        E 0 90 1f 60
        E 0 90 3e 60
        E 0 90 48 60
        E 0 90 4a 60
        E 0 90 54 60
        E 0 90 56 60
        E 0 90 60 60
        E 0 90 62 60
        E 61 80 18 00
        E 0 80 1f 00
        E 0 80 3e 00
        E 0 80 48 00
        E 0 80 4a 00
        E 0 80 54 00
        E 0 80 56 00
        E 0 80 60 00
        E 0 80 62 00
        E 179 90 1f 60
        E 0 90 56 60
        E 0 90 62 60
        E 60 80 1f 00
        E 0 80 56 00
        E 0 80 62 00
        E 180 90 1a 60
        E 0 90 1f 60
        E 0 90 3d 60
        E 0 90 3e 60
        E 0 90 49 60
        E 0 90 4a 60
        E 0 90 55 60
        E 0 90 56 60
        E 0 90 61 60
        E 0 90 62 60
        E 60 80 1a 00
        E 0 80 1f 00
        E 0 80 3d 00
        E 0 80 3e 00
        E 0 80 49 00
        E 0 80 4a 00
        E 0 80 55 00
        E 0 80 56 00
        E 0 80 61 00
        E 0 80 62 00
        E 180 90 1f 60
        E 0 90 56 60
        E 0 90 62 60
        E 60 80 1f 00
        E 0 80 56 00
        E 0 80 62 00
        E 90 90 18 60
        E 0 90 60 60
        E 30 80 18 00
        E 0 80 60 00
        E 60 90 18 60
        E 0 90 1f 60
        E 0 90 3e 60
        E 0 90 48 60
        E 0 90 4a 60
        E 0 90 54 60
        E 0 90 56 60
        E 0 90 60 60
        E 0 90 62 60
        E 60 80 18 00
        E 0 80 1f 00
        E 0 80 3e 00
        E 0 80 48 00
        E 0 80 4a 00
        E 0 80 54 00
        E 0 80 56 00
        E 0 80 60 00
        E 0 80 62 00
        E 180 90 18 60
        E 0 90 1f 60
        E 0 90 54 60
        E 0 90 56 60
        E 0 90 60 60
        E 0 90 62 60
        E 60 80 18 00
        E 0 80 1f 00
        E 0 80 54 00
        E 0 80 56 00
        E 0 80 60 00
        E 0 80 62 00
        E 180 90 1a 60
        E 0 90 1f 60
        E 0 90 3d 60
        E 0 90 3e 60
        E 0 90 49 60
        E 0 90 4a 60
        E 0 90 55 60
        E 0 90 56 60
        E 0 90 61 60
        E 0 90 62 60
        E 60 80 1a 00
        E 0 80 1f 00
        E 0 80 3d 00
        E 0 80 3e 00
        E 0 80 49 00
        E 0 80 4a 00
        E 0 80 55 00
        E 0 80 56 00
        E 0 80 61 00
        E 0 80 62 00
        E 180 90 1f 60
        E 0 90 56 60
        E 0 90 62 60
        E 60 80 1f 00
        E 0 80 56 00
        E 0 80 62 00
        E 5460 90 2f 60
        E 0 90 3e 60
        E 0 90 4a 60
        E 0 90 56 60
        E 0 90 62 60
        E 0 90 6e 60
        E 0 90 74 58
        E 120 80 2f 00
        E 0 80 3e 00
        E 0 80 4a 00
        E 0 80 56 00
        E 0 80 62 00
        E 0 80 6e 00
        E 0 80 74 00
        <X 480 0
          /wFbaWRsZV0=
        >
        <X 8060 0
          /wFbbWVsbG93XQ==
        >
        E 460 90 78 58
        E 0 90 79 58
        E 0 90 7a 58
        E 0 90 7b 58
        E 0 90 7c 58
        E 20 90 2f 60
        E 0 90 3e 60
        E 0 90 4a 60
        E 0 90 56 60
        E 0 90 62 60
        E 0 90 6e 60
        E 40 80 2f 00
        E 0 80 3e 00
        E 0 80 4a 00
        E 0 80 56 00
        E 0 80 62 00
        E 0 80 6e 00
        E 340 90 6f 60
        E 1 90 2a 60
        E 0 90 57 60
        E 0 90 63 60
        E 39 80 6f 00
        E 0 80 2a 00
        E 0 80 57 00
        E 0 80 63 00
        E 200 90 2e 60
        E 0 90 62 60
        E 0 90 6e 60
        E 39 80 2e 00
        E 0 80 62 00
        E 1 80 6e 00
        E 60 90 6f 60
        E 1 90 2a 60
        E 0 90 63 60
        E 39 80 6f 00
        E 0 80 2a 00
        E 0 80 63 00
        E 180 80 78 00
        E 0 80 79 00
        E 0 80 7a 00
        E 0 80 7b 00
        E 0 80 7c 00
        E 0 90 18 60
        E 0 90 26 60
        E 0 90 40 60
        E 0 90 48 60
        E 0 90 4c 60
        E 0 90 54 60
        E 0 90 58 60
        E 0 90 60 60
        E 0 90 64 60
        E 60 80 18 00
        E 0 80 26 00
        E 0 80 40 00
        E 0 80 48 00
        E 0 80 4c 00
        E 0 80 54 00
        E 0 80 58 00
        E 0 80 60 00
        E 0 80 64 00
        E 180 90 1f 60
        E 0 90 56 60
        E 0 90 62 60
        E 60 80 1f 00
        E 0 80 56 00
        E 0 80 62 00
        E 180 90 1a 60
        E 0 90 1f 60
        E 0 90 3d 60
        E 0 90 3e 60
        E 0 90 49 60
        E 0 90 4a 60
        E 0 90 55 60
        E 0 90 56 60
        E 0 90 61 60
        E 0 90 62 60
        E 60 80 1a 00
        E 0 80 1f 00
        E 0 80 3d 00
        E 0 80 3e 00
        E 0 80 49 00
        E 0 80 4a 00
        E 0 80 55 00
        E 0 80 56 00
        E 0 80 61 00
        E 0 80 62 00
        E 180 90 1f 60
        E 0 90 56 60
        E 0 90 62 60
        E 60 80 1f 00
        E 0 80 56 00
        E 0 80 62 00
        E 90 90 18 60
        E 0 90 60 60
        E 30 80 18 00
        E 0 80 60 00
        E 60 90 18 60
        E 0 90 1f 60
        E 0 90 3e 60
        E 0 90 48 60
        E 0 90 4a 60
        E 0 90 54 60
        E 0 90 56 60
        E 0 90 60 60
        E 0 90 62 60
        E 60 80 18 00
        E 0 80 1f 00
        E 0 80 3e 00
        E 0 80 48 00
        E 0 80 4a 00
        E 0 80 54 00
        E 0 80 56 00
        E 0 80 60 00
        E 0 80 62 00
        E 180 90 18 60
        E 0 90 1f 60
        E 0 90 54 60
        E 0 90 56 60
        E 0 90 60 60
        E 0 90 62 60
        E 60 80 18 00
        E 0 80 1f 00
        E 0 80 54 00
        E 0 80 56 00
        E 0 80 60 00
        E 0 80 62 00
        E 180 90 1a 60
        E 0 90 1f 60
        E 0 90 3d 60
        E 0 90 3e 60
        E 0 90 49 60
        E 0 90 4a 60
        E 0 90 55 60
        E 0 90 56 60
        E 0 90 61 60
        E 0 90 62 60
        E 60 80 1f 00
        E 0 80 3e 00
        E 0 80 4a 00
        E 0 80 56 00
        E 0 80 62 00
        E 1 80 1a 00
        E 0 80 3d 00
        E 0 80 49 00
        E 0 80 55 00
        E 0 80 61 00
        E 179 90 1f 60
        E 0 90 56 60
        E 0 90 62 60
        E 60 80 1f 00
        E 0 80 56 00
        E 0 80 62 00
        E 180 90 18 60
        E 0 90 1f 60
        E 0 90 3e 60
        E 0 90 48 60
        E 0 90 4a 60
        E 0 90 54 60
        E 0 90 56 60
        E 0 90 60 60
        E 0 90 62 60
        E 61 80 18 00
        E 0 80 1f 00
        E 0 80 3e 00
        E 0 80 48 00
        E 0 80 4a 00
        E 0 80 54 00
        E 0 80 56 00
        E 0 80 60 00
        E 0 80 62 00
        E 179 90 1f 60
        E 0 90 56 60
        E 0 90 62 60
        E 60 80 1f 00
        E 0 80 56 00
        E 0 80 62 00
        E 180 90 1a 60
        E 0 90 1f 60
        E 0 90 3d 60
        E 0 90 3e 60
        E 0 90 49 60
        E 0 90 4a 60
        E 0 90 55 60
        E 0 90 56 60
        E 0 90 61 60
        E 0 90 62 60
        E 60 80 1a 00
        E 0 80 1f 00
        E 0 80 3d 00
        E 0 80 3e 00
        E 0 80 49 00
        E 0 80 4a 00
        E 0 80 55 00
        E 0 80 56 00
        E 0 80 61 00
        E 0 80 62 00
        E 180 90 1f 60
        E 0 90 56 60
        E 0 90 62 60
        E 60 80 1f 00
        E 0 80 56 00
        E 0 80 62 00
        E 90 90 18 60
        E 0 90 60 60
        E 30 80 18 00
        E 0 80 60 00
        E 60 90 18 60
        E 0 90 1f 60
        E 0 90 3e 60
        E 0 90 48 60
        E 0 90 4a 60
        E 0 90 54 60
        E 0 90 56 60
        E 0 90 60 60
        E 0 90 62 60
        E 60 80 18 00
        E 0 80 1f 00
        E 0 80 3e 00
        E 0 80 48 00
        E 0 80 4a 00
        E 0 80 54 00
        E 0 80 56 00
        E 0 80 60 00
        E 0 80 62 00
        E 180 90 18 60
        E 0 90 1f 60
        E 0 90 54 60
        E 0 90 56 60
        E 0 90 60 60
        E 0 90 62 60
        E 60 80 18 00
        E 0 80 1f 00
        E 0 80 54 00
        E 0 80 56 00
        E 0 80 60 00
        E 0 80 62 00
        E 180 90 1a 60
        E 0 90 1f 60
        E 0 90 3d 60
        E 0 90 3e 60
        E 0 90 49 60
        E 0 90 4a 60
        E 0 90 55 60
        E 0 90 56 60
        E 0 90 61 60
        E 0 90 62 60
        E 60 80 1f 00
        E 0 80 3e 00
        E 0 80 4a 00
        E 0 80 56 00
        E 0 80 62 00
        E 1 80 1a 00
        E 0 80 3d 00
        E 0 80 49 00
        E 0 80 55 00
        E 0 80 61 00
        E 179 90 1f 60
        E 0 90 56 60
        E 0 90 62 60
        E 60 80 1f 00
        E 0 80 56 00
        E 0 80 62 00
        E 180 90 18 60
        E 0 90 1f 60
        E 0 90 3e 60
        E 0 90 48 60
        E 0 90 4a 60
        E 0 90 54 60
        E 0 90 56 60
        E 0 90 60 60
        E 0 90 62 60
        E 61 80 18 00
        E 0 80 1f 00
        E 0 80 3e 00
        E 0 80 48 00
        E 0 80 4a 00
        E 0 80 54 00
        E 0 80 56 00
        E 0 80 60 00
        E 0 80 62 00
        E 179 90 1f 60
        E 0 90 56 60
        E 0 90 62 60
        E 60 80 1f 00
        E 0 80 56 00
        E 0 80 62 00
        E 180 90 1a 60
        E 0 90 1f 60
        E 0 90 3d 60
        E 0 90 3e 60
        E 0 90 49 60
        E 0 90 4a 60
        E 0 90 55 60
        E 0 90 56 60
        E 0 90 61 60
        E 0 90 62 60
        E 60 80 1a 00
        E 0 80 1f 00
        E 0 80 3d 00
        E 0 80 3e 00
        E 0 80 49 00
        E 0 80 4a 00
        E 0 80 55 00
        E 0 80 56 00
        E 0 80 61 00
        E 0 80 62 00
        E 180 90 1f 60
        E 0 90 56 60
        E 0 90 62 60
        E 60 80 1f 00
        E 0 80 56 00
        E 0 80 62 00
        E 90 90 18 60
        E 0 90 60 60
        E 30 80 18 00
        E 0 80 60 00
        E 60 90 18 60
        E 0 90 1f 60
        E 0 90 3e 60
        E 0 90 48 60
        E 0 90 4a 60
        E 0 90 54 60
        E 0 90 56 60
        E 0 90 60 60
        E 0 90 62 60
        E 60 80 18 00
        E 0 80 1f 00
        E 0 80 3e 00
        E 0 80 48 00
        E 0 80 4a 00
        E 0 80 54 00
        E 0 80 56 00
        E 0 80 60 00
        E 0 80 62 00
        E 180 90 18 60
        E 0 90 1f 60
        E 0 90 54 60
        E 0 90 56 60
        E 0 90 60 60
        E 0 90 62 60
        E 60 80 18 00
        E 0 80 1f 00
        E 0 80 54 00
        E 0 80 56 00
        E 0 80 60 00
        E 0 80 62 00
        E 180 90 1a 60
        E 0 90 1f 60
        E 0 90 3d 60
        E 0 90 3e 60
        E 0 90 49 60
        E 0 90 4a 60
        E 0 90 55 60
        E 0 90 56 60
        E 0 90 61 60
        E 0 90 62 60
        E 60 80 1f 00
        E 0 80 3e 00
        E 0 80 4a 00
        E 0 80 56 00
        E 0 80 62 00
        E 1 80 1a 00
        E 0 80 3d 00
        E 0 80 49 00
        E 0 80 55 00
        E 0 80 61 00
        E 179 90 1f 60
        E 0 90 56 60
        E 0 90 62 60
        E 60 80 1f 00
        E 0 80 56 00
        E 0 80 62 00
        E 180 90 18 60
        E 0 90 1f 60
        E 0 90 3e 60
        E 0 90 48 60
        E 0 90 4a 60
        E 0 90 54 60
        E 0 90 56 60
        E 0 90 60 60
        E 0 90 62 60
        E 61 80 18 00
        E 0 80 1f 00
        E 0 80 3e 00
        E 0 80 48 00
        E 0 80 4a 00
        E 0 80 54 00
        E 0 80 56 00
        E 0 80 60 00
        E 0 80 62 00
        E 179 90 1f 60
        E 0 90 56 60
        E 0 90 62 60
        E 60 80 1f 00
        E 0 80 56 00
        E 0 80 62 00
        E 180 90 1a 60
        E 0 90 1f 60
        E 0 90 3d 60
        E 0 90 3e 60
        E 0 90 49 60
        E 0 90 4a 60
        E 0 90 55 60
        E 0 90 56 60
        E 0 90 61 60
        E 0 90 62 60
        E 60 80 1a 00
        E 0 80 1f 00
        E 0 80 3d 00
        E 0 80 3e 00
        E 0 80 49 00
        E 0 80 4a 00
        E 0 80 55 00
        E 0 80 56 00
        E 0 80 61 00
        E 0 80 62 00
        E 180 90 1f 60
        E 0 90 56 60
        E 0 90 62 60
        E 60 80 1f 00
        E 0 80 56 00
        E 0 80 62 00
        E 90 90 18 60
        E 0 90 60 60
        E 30 80 18 00
        E 0 80 60 00
        E 60 90 18 60
        E 0 90 1f 60
        E 0 90 3e 60
        E 0 90 48 60
        E 0 90 4a 60
        E 0 90 54 60
        E 0 90 56 60
        E 0 90 60 60
        E 0 90 62 60
        E 60 80 18 00
        E 0 80 1f 00
        E 0 80 3e 00
        E 0 80 48 00
        E 0 80 4a 00
        E 0 80 54 00
        E 0 80 56 00
        E 0 80 60 00
        E 0 80 62 00
        E 180 90 18 60
        E 0 90 1f 60
        E 0 90 54 60
        E 0 90 56 60
        E 0 90 60 60
        E 0 90 62 60
        E 60 80 18 00
        E 0 80 1f 00
        E 0 80 54 00
        E 0 80 56 00
        E 0 80 60 00
        E 0 80 62 00
        E 180 90 1a 60
        E 0 90 1f 60
        E 0 90 3d 60
        E 0 90 3e 60
        E 0 90 49 60
        E 0 90 4a 60
        E 0 90 55 60
        E 0 90 56 60
        E 0 90 61 60
        E 0 90 62 60
        E 60 80 1f 00
        E 0 80 3e 00
        E 0 80 4a 00
        E 0 80 56 00
        E 0 80 62 00
        E 1 80 1a 00
        E 0 80 3d 00
        E 0 80 49 00
        E 0 80 55 00
        E 0 80 61 00
        E 179 90 1f 60
        E 0 90 56 60
        E 0 90 62 60
        E 60 80 1f 00
        E 0 80 56 00
        E 0 80 62 00
        E 180 90 18 60
        E 0 90 1f 60
        E 0 90 3e 60
        E 0 90 48 60
        E 0 90 4a 60
        E 0 90 54 60
        E 0 90 56 60
        E 0 90 60 60
        E 0 90 62 60
        E 61 80 18 00
        E 0 80 1f 00
        E 0 80 3e 00
        E 0 80 48 00
        E 0 80 4a 00
        E 0 80 54 00
        E 0 80 56 00
        E 0 80 60 00
        E 0 80 62 00
        E 119 90 74 66
        E 60 90 1f 60
        E 0 90 56 60
        E 0 90 62 60
        E 60 80 1f 00
        E 0 80 56 00
        E 0 80 62 00
        E 180 90 1a 60
        E 0 90 1f 60
        E 0 90 3d 60
        E 0 90 3e 60
        E 0 90 49 60
        E 0 90 4a 60
        E 0 90 55 60
        E 0 90 56 60
        E 0 90 61 60
        E 0 90 62 60
        E 60 80 1a 00
        E 0 80 1f 00
        E 0 80 3d 00
        E 0 80 3e 00
        E 0 80 49 00
        E 0 80 4a 00
        E 0 80 55 00
        E 0 80 56 00
        E 0 80 61 00
        E 0 80 62 00
        E 180 90 1f 60
        E 0 90 56 60
        E 0 90 62 60
        E 60 80 1f 00
        E 0 80 56 00
        E 0 80 62 00
        E 90 90 18 60
        E 0 90 60 60
        E 30 80 18 00
        E 0 80 60 00
        E 60 90 18 60
        E 0 90 1f 60
        E 0 90 3e 60
        E 0 90 48 60
        E 0 90 4a 60
        E 0 90 54 60
        E 0 90 56 60
        E 0 90 60 60
        E 0 90 62 60
        E 60 80 18 00
        E 0 80 1f 00
        E 0 80 3e 00
        E 0 80 48 00
        E 0 80 4a 00
        E 0 80 54 00
        E 0 80 56 00
        E 0 80 60 00
        E 0 80 62 00
        E 180 90 18 60
        E 0 90 1f 60
        E 0 90 54 60
        E 0 90 56 60
        E 0 90 60 60
        E 0 90 62 60
        E 60 80 18 00
        E 0 80 1f 00
        E 0 80 54 00
        E 0 80 56 00
        E 0 80 60 00
        E 0 80 62 00
        E 180 90 1a 60
        E 0 90 1f 60
        E 0 90 3d 60
        E 0 90 3e 60
        E 0 90 49 60
        E 0 90 4a 60
        E 0 90 55 60
        E 0 90 56 60
        E 0 90 61 60
        E 0 90 62 60
        E 60 80 1f 00
        E 0 80 3e 00
        E 0 80 4a 00
        E 0 80 56 00
        E 0 80 62 00
        E 1 80 1a 00
        E 0 80 3d 00
        E 0 80 49 00
        E 0 80 55 00
        E 0 80 61 00
        E 179 90 1f 60
        E 0 90 56 60
        E 0 90 62 60
        E 60 80 1f 00
        E 0 80 56 00
        E 0 80 62 00
        E 180 90 18 60
        E 0 90 1f 60
        E 0 90 3e 60
        E 0 90 48 60
        E 0 90 4a 60
        E 0 90 54 60
        E 0 90 56 60
        E 0 90 60 60
        E 0 90 62 60
        E 61 80 18 00
        E 0 80 1f 00
        E 0 80 3e 00
        E 0 80 48 00
        E 0 80 4a 00
        E 0 80 54 00
        E 0 80 56 00
        E 0 80 60 00
        E 0 80 62 00
        E 179 90 1f 60
        E 0 90 56 60
        E 0 90 62 60
        E 60 80 1f 00
        E 0 80 56 00
        E 0 80 62 00
        E 180 90 1a 60
        E 0 90 1f 60
        E 0 90 3d 60
        E 0 90 3e 60
        E 0 90 49 60
        E 0 90 4a 60
        E 0 90 55 60
        E 0 90 56 60
        E 0 90 61 60
        E 0 90 62 60
        E 60 80 1a 00
        E 0 80 1f 00
        E 0 80 3d 00
        E 0 80 3e 00
        E 0 80 49 00
        E 0 80 4a 00
        E 0 80 55 00
        E 0 80 56 00
        E 0 80 61 00
        E 0 80 62 00
        E 180 90 1f 60
        E 0 90 56 60
        E 0 90 62 60
        E 60 80 1f 00
        E 0 80 56 00
        E 0 80 62 00
        E 90 90 18 60
        E 0 90 60 60
        E 30 80 18 00
        E 0 80 60 00
        E 60 90 18 60
        E 0 90 1f 60
        E 0 90 3e 60
        E 0 90 48 60
        E 0 90 4a 60
        E 0 90 54 60
        E 0 90 56 60
        E 0 90 60 60
        E 0 90 62 60
        E 60 80 74 00
        E 0 80 18 00
        E 0 80 1f 00
        E 0 80 3e 00
        E 0 80 48 00
        E 0 80 4a 00
        E 0 80 54 00
        E 0 80 56 00
        E 0 80 60 00
        E 0 80 62 00
        E 180 90 18 60
        E 0 90 1f 60
        E 0 90 54 60
        E 0 90 56 60
        E 0 90 60 60
        E 0 90 62 60
        E 60 80 18 00
        E 0 80 1f 00
        E 0 80 54 00
        E 0 80 56 00
        E 0 80 60 00
        E 0 80 62 00
        E 180 90 1a 60
        E 0 90 1f 60
        E 0 90 3d 60
        E 0 90 3e 60
        E 0 90 49 60
        E 0 90 4a 60
        E 0 90 55 60
        E 0 90 56 60
        E 0 90 61 60
        E 0 90 62 60
        E 60 80 1f 00
        E 0 80 3e 00
        E 0 80 4a 00
        E 0 80 56 00
        E 0 80 62 00
        E 1 80 1a 00
        E 0 80 3d 00
        E 0 80 49 00
        E 0 80 55 00
        E 0 80 61 00
        E 179 90 1f 60
        E 0 90 56 60
        E 0 90 62 60
        E 60 80 1f 00
        E 0 80 56 00
        E 0 80 62 00
        E 180 90 18 60
        E 0 90 1f 60
        E 0 90 3e 60
        E 0 90 48 60
        E 0 90 4a 60
        E 0 90 54 60
        E 0 90 56 60
        E 0 90 60 60
        E 0 90 62 60
        E 61 80 18 00
        E 0 80 1f 00
        E 0 80 3e 00
        E 0 80 48 00
        E 0 80 4a 00
        E 0 80 54 00
        E 0 80 56 00
        E 0 80 60 00
        E 0 80 62 00
        E 179 90 1f 60
        E 0 90 56 60
        E 0 90 62 60
        E 60 80 1f 00
        E 0 80 56 00
        E 0 80 62 00
        E 180 90 1a 60
        E 0 90 1f 60
        E 0 90 3d 60
        E 0 90 3e 60
        E 0 90 49 60
        E 0 90 4a 60
        E 0 90 55 60
        E 0 90 56 60
        E 0 90 61 60
        E 0 90 62 60
        E 60 80 1a 00
        E 0 80 1f 00
        E 0 80 3d 00
        E 0 80 3e 00
        E 0 80 49 00
        E 0 80 4a 00
        E 0 80 55 00
        E 0 80 56 00
        E 0 80 61 00
        E 0 80 62 00
        E 180 90 1f 60
        E 0 90 56 60
        E 0 90 62 60
        E 60 80 1f 00
        E 0 80 56 00
        E 0 80 62 00
        E 90 90 18 60
        E 0 90 60 60
        E 30 80 18 00
        E 0 80 60 00
        E 60 90 18 60
        E 0 90 1f 60
        E 0 90 3e 60
        E 0 90 48 60
        E 0 90 4a 60
        E 0 90 54 60
        E 0 90 56 60
        E 0 90 60 60
        E 0 90 62 60
        E 60 80 18 00
        E 0 80 1f 00
        E 0 80 3e 00
        E 0 80 48 00
        E 0 80 4a 00
        E 0 80 54 00
        E 0 80 56 00
        E 0 80 60 00
        E 0 80 62 00
        E 180 90 18 60
        E 0 90 1f 60
        E 0 90 54 60
        E 0 90 56 60
        E 0 90 60 60
        E 0 90 62 60
        E 60 80 18 00
        E 0 80 1f 00
        E 0 80 54 00
        E 0 80 56 00
        E 0 80 60 00
        E 0 80 62 00
        E 180 90 1a 60
        E 0 90 1f 60
        E 0 90 3d 60
        E 0 90 3e 60
        E 0 90 49 60
        E 0 90 4a 60
        E 0 90 55 60
        E 0 90 56 60
        E 0 90 61 60
        E 0 90 62 60
        E 60 80 1f 00
        E 0 80 3e 00
        E 0 80 4a 00
        E 0 80 56 00
        E 0 80 62 00
        E 1 80 1a 00
        E 0 80 3d 00
        E 0 80 49 00
        E 0 80 55 00
        E 0 80 61 00
        E 179 90 1f 60
        E 0 90 56 60
        E 0 90 62 60
        E 60 80 1f 00
        E 0 80 56 00
        E 0 80 62 00
        E 180 90 18 60
        E 0 90 1f 60
        E 0 90 3e 60
        E 0 90 48 60
        E 0 90 4a 60
        E 0 90 54 60
        E 0 90 56 60
        E 0 90 60 60
        E 0 90 62 60
        E 61 80 18 00
        E 0 80 1f 00
        E 0 80 3e 00
        E 0 80 48 00
        E 0 80 4a 00
        E 0 80 54 00
        E 0 80 56 00
        E 0 80 60 00
        E 0 80 62 00
        E 179 90 1f 60
        E 0 90 56 60
        E 0 90 62 60
        E 60 80 1f 00
        E 0 80 56 00
        E 0 80 62 00
        E 180 90 1a 60
        E 0 90 1f 60
        E 0 90 3d 60
        E 0 90 3e 60
        E 0 90 49 60
        E 0 90 4a 60
        E 0 90 55 60
        E 0 90 56 60
        E 0 90 61 60
        E 0 90 62 60
        E 60 80 1a 00
        E 0 80 1f 00
        E 0 80 3d 00
        E 0 80 3e 00
        E 0 80 49 00
        E 0 80 4a 00
        E 0 80 55 00
        E 0 80 56 00
        E 0 80 61 00
        E 0 80 62 00
        E 180 90 18 60
        E 0 90 1f 60
        E 0 90 54 60
        E 0 90 56 60
        E 0 90 60 60
        E 0 90 62 60
        E 60 80 18 00
        E 0 80 1f 00
        E 0 80 54 00
        E 0 80 56 00
        E 0 80 60 00
        E 0 80 62 00
        E 180 90 78 58
        E 0 90 79 58
        E 0 90 7a 58
        E 0 90 7b 58
        E 0 90 7c 58
        E 40 90 2e 60
        E 0 90 62 60
        E 0 90 6e 60
        E 30 80 2e 00
        E 0 80 62 00
        E 0 80 6e 00
        E 40 90 2f 60
        E 0 90 62 60
        E 0 90 6e 60
        E 30 80 2f 00
        E 0 80 62 00
        E 0 80 6e 00
        E 40 90 2e 60
        E 0 90 62 60
        E 0 90 6e 60
        E 30 80 2e 00
        E 0 80 62 00
        E 0 80 6e 00
        E 40 90 2f 60
        E 0 90 56 60
        E 0 90 62 60
        E 0 90 6e 60
        E 30 80 2f 00
        E 0 80 56 00
        E 0 80 62 00
        E 0 80 6e 00
        E 40 90 2e 60
        E 0 90 62 60
        E 0 90 6e 60
        E 30 80 2e 00
        E 0 80 62 00
        E 0 80 6e 00
        E 40 90 2f 60
        E 0 90 62 60
        E 0 90 6e 60
        E 30 80 2f 00
        E 0 80 62 00
        E 0 80 6e 00
        E 60 90 30 60
        E 0 90 3f 60
        E 0 90 4b 60
        E 0 90 57 60
        E 0 90 63 60
        E 0 90 6f 60
        E 30 80 30 00
        E 0 80 3f 00
        E 0 80 4b 00
        E 0 80 57 00
        E 0 80 63 00
        E 0 80 6f 00
        E 50 90 31 60
        E 0 90 63 60
        E 0 90 6f 60
        E 30 80 31 00
        E 0 80 63 00
        E 0 80 6f 00
        E 50 90 30 60
        E 0 90 63 60
        E 0 90 6f 60
        E 30 80 30 00
        E 0 80 63 00
        E 0 80 6f 00
        E 50 90 31 60
        E 0 90 57 60
        E 0 90 63 60
        E 0 90 6f 60
        E 30 80 31 00
        E 0 80 57 00
        E 0 80 63 00
        E 0 80 6f 00
        E 50 90 30 60
        E 0 90 63 60
        E 0 90 6f 60
        E 30 80 30 00
        E 0 80 63 00
        E 0 80 6f 00
        E 50 90 31 60
        E 0 90 63 60
        E 0 90 6f 60
        E 30 80 31 00
        E 0 80 63 00
        E 0 80 6f 00
        E 50 80 78 00
        E 0 80 79 00
        E 0 80 7a 00
        E 0 80 7b 00
        E 0 80 7c 00
        E 0 90 18 60
        E 0 90 2c 60
        E 0 90 40 60
        E 0 90 48 60
        E 0 90 4c 60
        E 0 90 54 60
        E 0 90 58 60
        E 0 90 60 60
        E 0 90 64 60
        E 60 80 18 00
        E 0 80 2c 00
        E 0 80 40 00
        E 0 80 48 00
        E 0 80 4c 00
        E 0 80 54 00
        E 0 80 58 00
        E 0 80 60 00
        E 0 80 64 00
        E 180 90 1f 60
        E 0 90 56 60
        E 0 90 62 60
        E 60 80 1f 00
        E 0 80 56 00
        E 0 80 62 00
        E 180 90 1a 60
        E 0 90 1f 60
        E 0 90 3d 60
        E 0 90 3e 60
        E 0 90 49 60
        E 0 90 4a 60
        E 0 90 55 60
        E 0 90 56 60
        E 0 90 61 60
        E 0 90 62 60
        E 60 80 1a 00
        E 0 80 1f 00
        E 0 80 3d 00
        E 0 80 3e 00
        E 0 80 49 00
        E 0 80 4a 00
        E 0 80 55 00
        E 0 80 56 00
        E 0 80 61 00
        E 0 80 62 00
        E 180 90 1f 60
        E 0 90 56 60
        E 0 90 62 60
        E 60 80 1f 00
        E 0 80 56 00
        E 0 80 62 00
        E 90 90 18 60
        E 0 90 60 60
        E 30 80 18 00
        E 0 80 60 00
        E 60 90 18 60
        E 0 90 1f 60
        E 0 90 3e 60
        E 0 90 48 60
        E 0 90 4a 60
        E 0 90 54 60
        E 0 90 56 60
        E 0 90 60 60
        E 0 90 62 60
        E 60 80 18 00
        E 0 80 1f 00
        E 0 80 3e 00
        E 0 80 48 00
        E 0 80 4a 00
        E 0 80 54 00
        E 0 80 56 00
        E 0 80 60 00
        E 0 80 62 00
        E 180 90 18 60
        E 0 90 1f 60
        E 0 90 54 60
        E 0 90 56 60
        E 0 90 60 60
        E 0 90 62 60
        E 60 80 18 00
        E 0 80 1f 00
        E 0 80 54 00
        E 0 80 56 00
        E 0 80 60 00
        E 0 80 62 00
        E 180 90 1a 60
        E 0 90 1f 60
        E 0 90 3d 60
        E 0 90 3e 60
        E 0 90 49 60
        E 0 90 4a 60
        E 0 90 55 60
        E 0 90 56 60
        E 0 90 61 60
        E 0 90 62 60
        E 60 80 1f 00
        E 0 80 3e 00
        E 0 80 4a 00
        E 0 80 56 00
        E 0 80 62 00
        E 1 80 1a 00
        E 0 80 3d 00
        E 0 80 49 00
        E 0 80 55 00
        E 0 80 61 00
        E 179 90 1f 60
        E 0 90 56 60
        E 0 90 62 60
        E 60 80 1f 00
        E 0 80 56 00
        E 0 80 62 00
        E 180 90 18 60
        E 0 90 1f 60
        E 0 90 3e 60
        E 0 90 48 60
        E 0 90 4a 60
        E 0 90 54 60
        E 0 90 56 60
        E 0 90 60 60
        E 0 90 62 60
        E 61 80 18 00
        E 0 80 1f 00
        E 0 80 3e 00
        E 0 80 48 00
        E 0 80 4a 00
        E 0 80 54 00
        E 0 80 56 00
        E 0 80 60 00
        E 0 80 62 00
        E 179 90 1f 60
        E 0 90 56 60
        E 0 90 62 60
        E 60 80 1f 00
        E 0 80 56 00
        E 0 80 62 00
        E 180 90 1a 60
        E 0 90 1f 60
        E 0 90 3d 60
        E 0 90 3e 60
        E 0 90 49 60
        E 0 90 4a 60
        E 0 90 55 60
        E 0 90 56 60
        E 0 90 61 60
        E 0 90 62 60
        E 60 80 1a 00
        E 0 80 1f 00
        E 0 80 3d 00
        E 0 80 3e 00
        E 0 80 49 00
        E 0 80 4a 00
        E 0 80 55 00
        E 0 80 56 00
        E 0 80 61 00
        E 0 80 62 00
        E 180 90 1f 60
        E 0 90 56 60
        E 0 90 62 60
        E 60 80 1f 00
        E 0 80 56 00
        E 0 80 62 00
        E 90 90 18 60
        E 0 90 60 60
        E 30 80 18 00
        E 0 80 60 00
        E 60 90 18 60
        E 0 90 1f 60
        E 0 90 3e 60
        E 0 90 48 60
        E 0 90 4a 60
        E 0 90 54 60
        E 0 90 56 60
        E 0 90 60 60
        E 0 90 62 60
        E 60 80 18 00
        E 0 80 1f 00
        E 0 80 3e 00
        E 0 80 48 00
        E 0 80 4a 00
        E 0 80 54 00
        E 0 80 56 00
        E 0 80 60 00
        E 0 80 62 00
        E 180 90 18 60
        E 0 90 1f 60
        E 0 90 54 60
        E 0 90 56 60
        E 0 90 60 60
        E 0 90 62 60
        E 60 80 18 00
        E 0 80 1f 00
        E 0 80 54 00
        E 0 80 56 00
        E 0 80 60 00
        E 0 80 62 00
        E 180 90 1a 60
        E 0 90 1f 60
        E 0 90 3d 60
        E 0 90 3e 60
        E 0 90 49 60
        E 0 90 4a 60
        E 0 90 55 60
        E 0 90 56 60
        E 0 90 61 60
        E 0 90 62 60
        E 60 80 1f 00
        E 0 80 3e 00
        E 0 80 4a 00
        E 0 80 56 00
        E 0 80 62 00
        E 1 80 1a 00
        E 0 80 3d 00
        E 0 80 49 00
        E 0 80 55 00
        E 0 80 61 00
        E 179 90 1f 60
        E 0 90 56 60
        E 0 90 62 60
        E 60 80 1f 00
        E 0 80 56 00
        E 0 80 62 00
        E 180 90 18 60
        E 0 90 1f 60
        E 0 90 3e 60
        E 0 90 48 60
        E 0 90 4a 60
        E 0 90 54 60
        E 0 90 56 60
        E 0 90 60 60
        E 0 90 62 60
        E 61 80 18 00
        E 0 80 1f 00
        E 0 80 3e 00
        E 0 80 48 00
        E 0 80 4a 00
        E 0 80 54 00
        E 0 80 56 00
        E 0 80 60 00
        E 0 80 62 00
        E 179 90 1f 60
        E 0 90 56 60
        E 0 90 62 60
        E 60 80 1f 00
        E 0 80 56 00
        E 0 80 62 00
        E 180 90 1a 60
        E 0 90 1f 60
        E 0 90 3d 60
        E 0 90 3e 60
        E 0 90 49 60
        E 0 90 4a 60
        E 0 90 55 60
        E 0 90 56 60
        E 0 90 61 60
        E 0 90 62 60
        E 60 80 1a 00
        E 0 80 1f 00
        E 0 80 3d 00
        E 0 80 3e 00
        E 0 80 49 00
        E 0 80 4a 00
        E 0 80 55 00
        E 0 80 56 00
        E 0 80 61 00
        E 0 80 62 00
        E 180 90 1f 60
        E 0 90 56 60
        E 0 90 62 60
        E 60 80 1f 00
        E 0 80 56 00
        E 0 80 62 00
        E 90 90 18 60
        E 0 90 60 60
        E 30 80 18 00
        E 0 80 60 00
        E 60 90 18 60
        E 0 90 1f 60
        E 0 90 3e 60
        E 0 90 48 60
        E 0 90 4a 60
        E 0 90 54 60
        E 0 90 56 60
        E 0 90 60 60
        E 0 90 62 60
        E 60 80 18 00
        E 0 80 1f 00
        E 0 80 3e 00
        E 0 80 48 00
        E 0 80 4a 00
        E 0 80 54 00
        E 0 80 56 00
        E 0 80 60 00
        E 0 80 62 00
        E 180 90 18 60
        E 0 90 1f 60
        E 0 90 54 60
        E 0 90 56 60
        E 0 90 60 60
        E 0 90 62 60
        E 60 80 18 00
        E 0 80 1f 00
        E 0 80 54 00
        E 0 80 56 00
        E 0 80 60 00
        E 0 80 62 00
        E 180 90 1a 60
        E 0 90 1f 60
        E 0 90 3d 60
        E 0 90 3e 60
        E 0 90 49 60
        E 0 90 4a 60
        E 0 90 55 60
        E 0 90 56 60
        E 0 90 61 60
        E 0 90 62 60
        E 60 80 1f 00
        E 0 80 3e 00
        E 0 80 4a 00
        E 0 80 56 00
        E 0 80 62 00
        E 1 80 1a 00
        E 0 80 3d 00
        E 0 80 49 00
        E 0 80 55 00
        E 0 80 61 00
        E 179 90 1f 60
        E 0 90 56 60
        E 0 90 62 60
        E 60 80 1f 00
        E 0 80 56 00
        E 0 80 62 00
        E 180 90 18 60
        E 0 90 1f 60
        E 0 90 3e 60
        E 0 90 48 60
        E 0 90 4a 60
        E 0 90 54 60
        E 0 90 56 60
        E 0 90 60 60
        E 0 90 62 60
        E 61 80 18 00
        E 0 80 1f 00
        E 0 80 3e 00
        E 0 80 48 00
        E 0 80 4a 00
        E 0 80 54 00
        E 0 80 56 00
        E 0 80 60 00
        E 0 80 62 00
        E 179 90 1f 60
        E 0 90 56 60
        E 0 90 62 60
        E 60 80 1f 00
        E 0 80 56 00
        E 0 80 62 00
        E 180 90 1a 60
        E 0 90 1f 60
        E 0 90 3d 60
        E 0 90 3e 60
        E 0 90 49 60
        E 0 90 4a 60
        E 0 90 55 60
        E 0 90 56 60
        E 0 90 61 60
        E 0 90 62 60
        E 60 80 1a 00
        E 0 80 1f 00
        E 0 80 3d 00
        E 0 80 3e 00
        E 0 80 49 00
        E 0 80 4a 00
        E 0 80 55 00
        E 0 80 56 00
        E 0 80 61 00
        E 0 80 62 00
        E 180 90 1f 60
        E 0 90 56 60
        E 0 90 62 60
        E 60 80 1f 00
        E 0 80 56 00
        E 0 80 62 00
        E 90 90 18 60
        E 0 90 60 60
        E 30 80 18 00
        E 0 80 60 00
        E 60 90 18 60
        E 0 90 1f 60
        E 0 90 3e 60
        E 0 90 48 60
        E 0 90 4a 60
        E 0 90 54 60
        E 0 90 56 60
        E 0 90 60 60
        E 0 90 62 60
        E 60 80 18 00
        E 0 80 1f 00
        E 0 80 3e 00
        E 0 80 48 00
        E 0 80 4a 00
        E 0 80 54 00
        E 0 80 56 00
        E 0 80 60 00
        E 0 80 62 00
        E 180 90 18 60
        E 0 90 1f 60
        E 0 90 54 60
        E 0 90 56 60
        E 0 90 60 60
        E 0 90 62 60
        E 60 80 18 00
        E 0 80 1f 00
        E 0 80 54 00
        E 0 80 56 00
        E 0 80 60 00
        E 0 80 62 00
        E 180 90 1a 60
        E 0 90 1f 60
        E 0 90 3d 60
        E 0 90 3e 60
        E 0 90 49 60
        E 0 90 4a 60
        E 0 90 55 60
        E 0 90 56 60
        E 0 90 61 60
        E 0 90 62 60
        E 60 80 1f 00
        E 0 80 3e 00
        E 0 80 4a 00
        E 0 80 56 00
        E 0 80 62 00
        E 1 80 1a 00
        E 0 80 3d 00
        E 0 80 49 00
        E 0 80 55 00
        E 0 80 61 00
        E 179 90 1f 60
        E 0 90 56 60
        E 0 90 62 60
        E 60 80 1f 00
        E 0 80 56 00
        E 0 80 62 00
        E 180 90 18 60
        E 0 90 1f 60
        E 0 90 3e 60
        E 0 90 48 60
        E 0 90 4a 60
        E 0 90 54 60
        E 0 90 56 60
        E 0 90 60 60
        E 0 90 62 60
        E 61 80 18 00
        E 0 80 1f 00
        E 0 80 3e 00
        E 0 80 48 00
        E 0 80 4a 00
        E 0 80 54 00
        E 0 80 56 00
        E 0 80 60 00
        E 0 80 62 00
        E 159 90 74 58
        E 20 90 1f 60
        E 0 90 56 60
        E 0 90 62 60
        E 60 80 1f 00
        E 0 80 56 00
        E 0 80 62 00
        E 180 90 1a 60
        E 0 90 1f 60
        E 0 90 3d 60
        E 0 90 3e 60
        E 0 90 49 60
        E 0 90 4a 60
        E 0 90 55 60
        E 0 90 56 60
        E 0 90 61 60
        E 0 90 62 60
        E 60 80 1a 00
        E 0 80 1f 00
        E 0 80 3d 00
        E 0 80 3e 00
        E 0 80 49 00
        E 0 80 4a 00
        E 0 80 55 00
        E 0 80 56 00
        E 0 80 61 00
        E 0 80 62 00
        E 180 90 1f 60
        E 0 90 56 60
        E 0 90 62 60
        E 60 80 1f 00
        E 0 80 56 00
        E 0 80 62 00
        E 90 90 18 60
        E 0 90 60 60
        E 30 80 18 00
        E 0 80 60 00
        E 60 90 18 60
        E 0 90 1f 60
        E 0 90 3e 60
        E 0 90 48 60
        E 0 90 4a 60
        E 0 90 54 60
        E 0 90 56 60
        E 0 90 60 60
        E 0 90 62 60
        E 60 80 18 00
        E 0 80 1f 00
        E 0 80 3e 00
        E 0 80 48 00
        E 0 80 4a 00
        E 0 80 54 00
        E 0 80 56 00
        E 0 80 60 00
        E 0 80 62 00
        E 180 90 18 60
        E 0 90 1f 60
        E 0 90 54 60
        E 0 90 56 60
        E 0 90 60 60
        E 0 90 62 60
        E 60 80 18 00
        E 0 80 1f 00
        E 0 80 54 00
        E 0 80 56 00
        E 0 80 60 00
        E 0 80 62 00
        E 180 90 1a 60
        E 0 90 1f 60
        E 0 90 3d 60
        E 0 90 3e 60
        E 0 90 49 60
        E 0 90 4a 60
        E 0 90 55 60
        E 0 90 56 60
        E 0 90 61 60
        E 0 90 62 60
        E 60 80 1f 00
        E 0 80 3e 00
        E 0 80 4a 00
        E 0 80 56 00
        E 0 80 62 00
        E 1 80 1a 00
        E 0 80 3d 00
        E 0 80 49 00
        E 0 80 55 00
        E 0 80 61 00
        E 19 80 74 00
        E 160 90 1f 60
        E 0 90 56 60
        E 0 90 62 60
        E 60 80 1f 00
        E 0 80 56 00
        E 0 80 62 00
        E 180 90 18 60
        E 0 90 1f 60
        E 0 90 3e 60
        E 0 90 48 60
        E 0 90 4a 60
        E 0 90 54 60
        E 0 90 56 60
        E 0 90 60 60
        E 0 90 62 60
        E 61 80 18 00
        E 0 80 1f 00
        E 0 80 3e 00
        E 0 80 48 00
        E 0 80 4a 00
        E 0 80 54 00
        E 0 80 56 00
        E 0 80 60 00
        E 0 80 62 00
        E 179 90 1f 60
        E 0 90 56 60
        E 0 90 62 60
        E 60 80 1f 00
        E 0 80 56 00
        E 0 80 62 00
        E 180 90 1a 60
        E 0 90 1f 60
        E 0 90 3d 60
        E 0 90 3e 60
        E 0 90 49 60
        E 0 90 4a 60
        E 0 90 55 60
        E 0 90 56 60
        E 0 90 61 60
        E 0 90 62 60
        E 60 80 1a 00
        E 0 80 1f 00
        E 0 80 3d 00
        E 0 80 3e 00
        E 0 80 49 00
        E 0 80 4a 00
        E 0 80 55 00
        E 0 80 56 00
        E 0 80 61 00
        E 0 80 62 00
        E 180 90 1f 60
        E 0 90 56 60
        E 0 90 62 60
        E 60 80 1f 00
        E 0 80 56 00
        E 0 80 62 00
        E 90 90 18 60
        E 0 90 60 60
        E 30 80 18 00
        E 0 80 60 00
        E 60 90 18 60
        E 0 90 1f 60
        E 0 90 3e 60
        E 0 90 48 60
        E 0 90 4a 60
        E 0 90 54 60
        E 0 90 56 60
        E 0 90 60 60
        E 0 90 62 60
        E 60 80 18 00
        E 0 80 1f 00
        E 0 80 3e 00
        E 0 80 48 00
        E 0 80 4a 00
        E 0 80 54 00
        E 0 80 56 00
        E 0 80 60 00
        E 0 80 62 00
        E 180 90 18 60
        E 0 90 1f 60
        E 0 90 54 60
        E 0 90 56 60
        E 0 90 60 60
        E 0 90 62 60
        E 60 80 18 00
        E 0 80 1f 00
        E 0 80 54 00
        E 0 80 56 00
        E 0 80 60 00
        E 0 80 62 00
        E 180 90 1a 60
        E 0 90 1f 60
        E 0 90 3d 60
        E 0 90 3e 60
        E 0 90 49 60
        E 0 90 4a 60
        E 0 90 55 60
        E 0 90 56 60
        E 0 90 61 60
        E 0 90 62 60
        E 60 80 1f 00
        E 0 80 3e 00
        E 0 80 4a 00
        E 0 80 56 00
        E 0 80 62 00
        E 1 80 1a 00
        E 0 80 3d 00
        E 0 80 49 00
        E 0 80 55 00
        E 0 80 61 00
        E 179 90 1f 60
        E 0 90 56 60
        E 0 90 62 60
        E 60 80 1f 00
        E 0 80 56 00
        E 0 80 62 00
        E 180 90 18 60
        E 0 90 1f 60
        E 0 90 3e 60
        E 0 90 48 60
        E 0 90 4a 60
        E 0 90 54 60
        E 0 90 56 60
        E 0 90 60 60
        E 0 90 62 60
        E 61 80 18 00
        E 0 80 1f 00
        E 0 80 3e 00
        E 0 80 48 00
        E 0 80 4a 00
        E 0 80 54 00
        E 0 80 56 00
        E 0 80 60 00
        E 0 80 62 00
        E 179 90 1f 60
        E 0 90 56 60
        E 0 90 62 60
        E 60 80 1f 00
        E 0 80 56 00
        E 0 80 62 00
        E 180 90 1a 60
        E 0 90 1f 60
        E 0 90 3d 60
        E 0 90 3e 60
        E 0 90 49 60
        E 0 90 4a 60
        E 0 90 55 60
        E 0 90 56 60
        E 0 90 61 60
        E 0 90 62 60
        E 60 80 1a 00
        E 0 80 1f 00
        E 0 80 3d 00
        E 0 80 3e 00
        E 0 80 49 00
        E 0 80 4a 00
        E 0 80 55 00
        E 0 80 56 00
        E 0 80 61 00
        E 0 80 62 00
        E 180 90 1f 60
        E 0 90 56 60
        E 0 90 62 60
        E 60 80 1f 00
        E 0 80 56 00
        E 0 80 62 00
        E 90 90 18 60
        E 0 90 60 60
        E 30 80 18 00
        E 0 80 60 00
        E 60 90 18 60
        E 0 90 1f 60
        E 0 90 3e 60
        E 0 90 48 60
        E 0 90 4a 60
        E 0 90 54 60
        E 0 90 56 60
        E 0 90 60 60
        E 0 90 62 60
        E 60 80 18 00
        E 0 80 1f 00
        E 0 80 3e 00
        E 0 80 48 00
        E 0 80 4a 00
        E 0 80 54 00
        E 0 80 56 00
        E 0 80 60 00
        E 0 80 62 00
        E 180 90 18 60
        E 0 90 1f 60
        E 0 90 54 60
        E 0 90 56 60
        E 0 90 60 60
        E 0 90 62 60
        E 60 80 18 00
        E 0 80 1f 00
        E 0 80 54 00
        E 0 80 56 00
        E 0 80 60 00
        E 0 80 62 00
        E 180 90 1a 60
        E 0 90 1f 60
        E 0 90 3d 60
        E 0 90 3e 60
        E 0 90 49 60
        E 0 90 4a 60
        E 0 90 55 60
        E 0 90 56 60
        E 0 90 61 60
        E 0 90 62 60
        E 60 80 1a 00
        E 0 80 1f 00
        E 0 80 3d 00
        E 0 80 3e 00
        E 0 80 49 00
        E 0 80 4a 00
        E 0 80 55 00
        E 0 80 56 00
        E 0 80 61 00
        E 0 80 62 00
        E 180 90 1f 60
        E 0 90 56 60
        E 0 90 62 60
        E 60 80 1f 00
        E 0 80 56 00
        E 0 80 62 00
        E 180 90 18 60
        E 0 90 1f 60
        E 0 90 3e 60
        E 0 90 48 60
        E 0 90 4a 60
        E 0 90 54 60
        E 0 90 56 60
        E 0 90 60 60
        E 0 90 62 60
        E 61 80 18 00
        E 0 80 1f 00
        E 0 80 3e 00
        E 0 80 48 00
        E 0 80 4a 00
        E 0 80 54 00
        E 0 80 56 00
        E 0 80 60 00
        E 0 80 62 00
        E 179 90 1f 60
        E 0 90 56 60
        E 0 90 62 60
        E 60 80 1f 00
        E 0 80 56 00
        E 0 80 62 00
        E 180 90 1a 60
        E 0 90 1f 60
        E 0 90 3d 60
        E 0 90 3e 60
        E 0 90 49 60
        E 0 90 4a 60
        E 0 90 55 60
        E 0 90 56 60
        E 0 90 61 60
        E 0 90 62 60
        E 60 80 1a 00
        E 0 80 1f 00
        E 0 80 3d 00
        E 0 80 3e 00
        E 0 80 49 00
        E 0 80 4a 00
        E 0 80 55 00
        E 0 80 56 00
        E 0 80 61 00
        E 0 80 62 00
        E 180 90 18 60
        E 0 90 1f 60
        E 0 90 54 60
        E 0 90 56 60
        E 0 90 60 60
        E 0 90 62 60
        E 60 80 18 00
        E 0 80 1f 00
        E 0 80 54 00
        E 0 80 56 00
        E 0 80 60 00
        E 0 80 62 00
        E 180 90 2f 60
        E 0 90 3e 60
        E 0 90 4a 60
        E 0 90 56 60
        E 0 90 62 60
        E 0 90 6e 60
        E 0 90 78 58
        E 0 90 79 58
        E 0 90 7a 58
        E 0 90 7b 58
        E 0 90 7c 58
        E 60 80 2f 00
        E 0 80 3e 00
        E 0 80 4a 00
        E 0 80 56 00
        E 0 80 62 00
        E 0 80 6e 00
        E 90 90 30 60
        E 0 90 63 60
        E 0 90 6f 60
        E 30 80 30 00
        E 0 80 63 00
        E 0 80 6f 00
        E 210 90 2e 60
        E 0 90 62 60
        E 0 90 6e 60
        E 30 80 2e 00
        E 0 80 62 00
        E 0 80 6e 00
        E 75 90 6e 60
        E 5 90 1f 60
        E 0 90 3e 60
        E 0 90 4a 60
        E 0 90 56 60
        E 0 90 62 60
        E 25 80 6e 00
        E 5 80 1f 00
        E 0 80 3e 00
        E 0 80 4a 00
        E 0 80 56 00
        E 0 80 62 00
        E 85 90 6e 60
        E 5 90 1f 60
        E 0 90 62 60
        E 25 80 6e 00
        E 5 80 1f 00
        E 0 80 62 00
        E 70 90 33 60
        E 0 90 58 60
        E 0 90 64 60
        E 0 90 70 60
        E 30 80 33 00
        E 0 80 58 00
        E 0 80 64 00
        E 0 80 70 00
        E 210 80 78 00
        E 0 80 79 00
        E 0 80 7a 00
        E 0 80 7b 00
        E 0 80 7c 00
        E 0 90 18 60
        E 0 90 26 60
        E 0 90 40 60
        E 0 90 48 60
        E 0 90 4c 60
        E 0 90 54 60
        E 0 90 58 60
        E 0 90 60 60
        E 0 90 64 60
        E 60 80 18 00
        E 0 80 26 00
        E 0 80 40 00
        E 0 80 48 00
        E 0 80 4c 00
        E 0 80 54 00
        E 0 80 58 00
        E 0 80 60 00
        E 0 80 64 00
        E 180 90 1f 60
        E 0 90 56 60
        E 0 90 62 60
        E 60 80 1f 00
        E 0 80 56 00
        E 0 80 62 00
        E 180 90 1a 60
        E 0 90 1f 60
        E 0 90 3d 60
        E 0 90 3e 60
        E 0 90 49 60
        E 0 90 4a 60
        E 0 90 55 60
        E 0 90 56 60
        E 0 90 61 60
        E 0 90 62 60
        E 60 80 1a 00
        E 0 80 1f 00
        E 0 80 3d 00
        E 0 80 3e 00
        E 0 80 49 00
        E 0 80 4a 00
        E 0 80 55 00
        E 0 80 56 00
        E 0 80 61 00
        E 0 80 62 00
        E 180 90 1f 60
        E 0 90 56 60
        E 0 90 62 60
        E 60 80 1f 00
        E 0 80 56 00
        E 0 80 62 00
        E 90 90 18 60
        E 0 90 60 60
        E 30 80 18 00
        E 0 80 60 00
        E 60 90 18 60
        E 0 90 1f 60
        E 0 90 3e 60
        E 0 90 48 60
        E 0 90 4a 60
        E 0 90 54 60
        E 0 90 56 60
        E 0 90 60 60
        E 0 90 62 60
        E 60 80 18 00
        E 0 80 1f 00
        E 0 80 3e 00
        E 0 80 48 00
        E 0 80 4a 00
        E 0 80 54 00
        E 0 80 56 00
        E 0 80 60 00
        E 0 80 62 00
        E 180 90 18 60
        E 0 90 1f 60
        E 0 90 54 60
        E 0 90 56 60
        E 0 90 60 60
        E 0 90 62 60
        E 60 80 18 00
        E 0 80 1f 00
        E 0 80 54 00
        E 0 80 56 00
        E 0 80 60 00
        E 0 80 62 00
        E 180 90 1a 60
        E 0 90 1f 60
        E 0 90 3d 60
        E 0 90 3e 60
        E 0 90 49 60
        E 0 90 4a 60
        E 0 90 55 60
        E 0 90 56 60
        E 0 90 61 60
        E 0 90 62 60
        E 60 80 1f 00
        E 0 80 3e 00
        E 0 80 4a 00
        E 0 80 56 00
        E 0 80 62 00
        E 1 80 1a 00
        E 0 80 3d 00
        E 0 80 49 00
        E 0 80 55 00
        E 0 80 61 00
        E 179 90 1f 60
        E 0 90 56 60
        E 0 90 62 60
        E 60 80 1f 00
        E 0 80 56 00
        E 0 80 62 00
        E 180 90 18 60
        E 0 90 1f 60
        E 0 90 3e 60
        E 0 90 48 60
        E 0 90 4a 60
        E 0 90 54 60
        E 0 90 56 60
        E 0 90 60 60
        E 0 90 62 60
        E 61 80 18 00
        E 0 80 1f 00
        E 0 80 3e 00
        E 0 80 48 00
        E 0 80 4a 00
        E 0 80 54 00
        E 0 80 56 00
        E 0 80 60 00
        E 0 80 62 00
        E 179 90 1f 60
        E 0 90 56 60
        E 0 90 62 60
        E 60 80 1f 00
        E 0 80 56 00
        E 0 80 62 00
        E 180 90 1a 60
        E 0 90 1f 60
        E 0 90 3d 60
        E 0 90 3e 60
        E 0 90 49 60
        E 0 90 4a 60
        E 0 90 55 60
        E 0 90 56 60
        E 0 90 61 60
        E 0 90 62 60
        E 60 80 1a 00
        E 0 80 1f 00
        E 0 80 3d 00
        E 0 80 3e 00
        E 0 80 49 00
        E 0 80 4a 00
        E 0 80 55 00
        E 0 80 56 00
        E 0 80 61 00
        E 0 80 62 00
        E 180 90 1f 60
        E 0 90 56 60
        E 0 90 62 60
        E 60 80 1f 00
        E 0 80 56 00
        E 0 80 62 00
        E 90 90 18 60
        E 0 90 60 60
        E 30 80 18 00
        E 0 80 60 00
        E 60 90 18 60
        E 0 90 1f 60
        E 0 90 3e 60
        E 0 90 48 60
        E 0 90 4a 60
        E 0 90 54 60
        E 0 90 56 60
        E 0 90 60 60
        E 0 90 62 60
        E 60 80 18 00
        E 0 80 1f 00
        E 0 80 3e 00
        E 0 80 48 00
        E 0 80 4a 00
        E 0 80 54 00
        E 0 80 56 00
        E 0 80 60 00
        E 0 80 62 00
        E 180 90 18 60
        E 0 90 1f 60
        E 0 90 54 60
        E 0 90 56 60
        E 0 90 60 60
        E 0 90 62 60
        E 60 80 18 00
        E 0 80 1f 00
        E 0 80 54 00
        E 0 80 56 00
        E 0 80 60 00
        E 0 80 62 00
        E 180 90 1a 60
        E 0 90 1f 60
        E 0 90 3d 60
        E 0 90 3e 60
        E 0 90 49 60
        E 0 90 4a 60
        E 0 90 55 60
        E 0 90 56 60
        E 0 90 61 60
        E 0 90 62 60
        E 60 80 1f 00
        E 0 80 3e 00
        E 0 80 4a 00
        E 0 80 56 00
        E 0 80 62 00
        E 1 80 1a 00
        E 0 80 3d 00
        E 0 80 49 00
        E 0 80 55 00
        E 0 80 61 00
        E 179 90 1f 60
        E 0 90 56 60
        E 0 90 62 60
        E 60 80 1f 00
        E 0 80 56 00
        E 0 80 62 00
        E 180 90 18 60
        E 0 90 1f 60
        E 0 90 3e 60
        E 0 90 48 60
        E 0 90 4a 60
        E 0 90 54 60
        E 0 90 56 60
        E 0 90 60 60
        E 0 90 62 60
        E 61 80 18 00
        E 0 80 1f 00
        E 0 80 3e 00
        E 0 80 48 00
        E 0 80 4a 00
        E 0 80 54 00
        E 0 80 56 00
        E 0 80 60 00
        E 0 80 62 00
        E 179 90 1f 60
        E 0 90 56 60
        E 0 90 62 60
        E 60 80 1f 00
        E 0 80 56 00
        E 0 80 62 00
        E 180 90 1a 60
        E 0 90 1f 60
        E 0 90 3d 60
        E 0 90 3e 60
        E 0 90 49 60
        E 0 90 4a 60
        E 0 90 55 60
        E 0 90 56 60
        E 0 90 61 60
        E 0 90 62 60
        E 60 80 1a 00
        E 0 80 1f 00
        E 0 80 3d 00
        E 0 80 3e 00
        E 0 80 49 00
        E 0 80 4a 00
        E 0 80 55 00
        E 0 80 56 00
        E 0 80 61 00
        E 0 80 62 00
        E 180 90 1f 60
        E 0 90 56 60
        E 0 90 62 60
        E 60 80 1f 00
        E 0 80 56 00
        E 0 80 62 00
        E 90 90 18 60
        E 0 90 60 60
        E 30 80 18 00
        E 0 80 60 00
        E 60 90 18 60
        E 0 90 1f 60
        E 0 90 3e 60
        E 0 90 48 60
        E 0 90 4a 60
        E 0 90 54 60
        E 0 90 56 60
        E 0 90 60 60
        E 0 90 62 60
        E 60 80 18 00
        E 0 80 1f 00
        E 0 80 3e 00
        E 0 80 48 00
        E 0 80 4a 00
        E 0 80 54 00
        E 0 80 56 00
        E 0 80 60 00
        E 0 80 62 00
        E 180 90 18 60
        E 0 90 1f 60
        E 0 90 54 60
        E 0 90 56 60
        E 0 90 60 60
        E 0 90 62 60
        E 60 80 18 00
        E 0 80 1f 00
        E 0 80 54 00
        E 0 80 56 00
        E 0 80 60 00
        E 0 80 62 00
        E 180 90 1a 60
        E 0 90 1f 60
        E 0 90 3d 60
        E 0 90 3e 60
        E 0 90 49 60
        E 0 90 4a 60
        E 0 90 55 60
        E 0 90 56 60
        E 0 90 61 60
        E 0 90 62 60
        E 60 80 1f 00
        E 0 80 3e 00
        E 0 80 4a 00
        E 0 80 56 00
        E 0 80 62 00
        E 1 80 1a 00
        E 0 80 3d 00
        E 0 80 49 00
        E 0 80 55 00
        E 0 80 61 00
        E 179 90 1f 60
        E 0 90 56 60
        E 0 90 62 60
        E 60 80 1f 00
        E 0 80 56 00
        E 0 80 62 00
        E 180 90 18 60
        E 0 90 1f 60
        E 0 90 3e 60
        E 0 90 48 60
        E 0 90 4a 60
        E 0 90 54 60
        E 0 90 56 60
        E 0 90 60 60
        E 0 90 62 60
        E 61 80 18 00
        E 0 80 1f 00
        E 0 80 3e 00
        E 0 80 48 00
        E 0 80 4a 00
        E 0 80 54 00
        E 0 80 56 00
        E 0 80 60 00
        E 0 80 62 00
        E 179 90 1f 60
        E 0 90 56 60
        E 0 90 62 60
        E 60 80 1f 00
        E 0 80 56 00
        E 0 80 62 00
        E 180 90 1a 60
        E 0 90 1f 60
        E 0 90 3d 60
        E 0 90 3e 60
        E 0 90 49 60
        E 0 90 4a 60
        E 0 90 55 60
        E 0 90 56 60
        E 0 90 61 60
        E 0 90 62 60
        E 60 80 1a 00
        E 0 80 1f 00
        E 0 80 3d 00
        E 0 80 3e 00
        E 0 80 49 00
        E 0 80 4a 00
        E 0 80 55 00
        E 0 80 56 00
        E 0 80 61 00
        E 0 80 62 00
        E 180 90 1f 60
        E 0 90 56 60
        E 0 90 62 60
        E 60 80 1f 00
        E 0 80 56 00
        E 0 80 62 00
        E 90 90 18 60
        E 0 90 60 60
        E 30 80 18 00
        E 0 80 60 00
        E 60 90 18 60
        E 0 90 1f 60
        E 0 90 3e 60
        E 0 90 48 60
        E 0 90 4a 60
        E 0 90 54 60
        E 0 90 56 60
        E 0 90 60 60
        E 0 90 62 60
        E 60 80 18 00
        E 0 80 1f 00
        E 0 80 3e 00
        E 0 80 48 00
        E 0 80 4a 00
        E 0 80 54 00
        E 0 80 56 00
        E 0 80 60 00
        E 0 80 62 00
        E 60 90 78 58
        E 0 90 79 58
        E 0 90 7a 58
        E 0 90 7b 58
        E 0 90 7c 58
        E 120 90 2f 60
        E 0 90 56 60
        E 0 90 62 60
        E 0 90 6e 60
        E 60 80 2f 00
        E 0 80 56 00
        E 0 80 62 00
        E 0 80 6e 00
        E 60 90 2e 60
        E 0 90 62 60
        E 0 90 6e 60
        E 60 80 2e 00
        E 0 80 62 00
        E 0 80 6e 00
        E 60 90 2f 60
        E 0 90 3e 60
        E 0 90 4a 60
        E 0 90 56 60
        E 0 90 62 60
        E 0 90 6e 60
        E 60 80 2f 00
        E 0 80 3e 00
        E 0 80 4a 00
        E 0 80 56 00
        E 0 80 62 00
        E 0 80 6e 00
        E 60 90 30 60
        E 0 90 63 60
        E 0 90 6f 60
        E 60 80 30 00
        E 0 80 63 00
        E 0 80 6f 00
        E 60 90 33 60
        E 0 90 58 60
        E 0 90 64 60
        E 0 90 70 60
        E 60 80 33 00
        E 0 80 58 00
        E 0 80 64 00
        E 0 80 70 00
        E 180 80 78 00
        E 0 80 79 00
        E 0 80 7a 00
        E 0 80 7b 00
        E 0 80 7c 00
        E 0 90 18 60
        E 0 90 26 60
        E 0 90 40 60
        E 0 90 48 60
        E 0 90 4c 60
        E 0 90 54 60
        E 0 90 58 60
        E 0 90 60 60
        E 0 90 64 60
        E 60 80 18 00
        E 0 80 26 00
        E 0 80 40 00
        E 0 80 48 00
        E 0 80 4c 00
        E 0 80 54 00
        E 0 80 58 00
        E 0 80 60 00
        E 0 80 64 00
        E 180 90 1f 60
        E 0 90 56 60
        E 0 90 62 60
        E 60 80 1f 00
        E 0 80 56 00
        E 0 80 62 00
        E 180 90 1a 60
        E 0 90 1f 60
        E 0 90 3d 60
        E 0 90 3e 60
        E 0 90 49 60
        E 0 90 4a 60
        E 0 90 55 60
        E 0 90 56 60
        E 0 90 61 60
        E 0 90 62 60
        E 60 80 1a 00
        E 0 80 1f 00
        E 0 80 3d 00
        E 0 80 3e 00
        E 0 80 49 00
        E 0 80 4a 00
        E 0 80 55 00
        E 0 80 56 00
        E 0 80 61 00
        E 0 80 62 00
        E 180 90 1f 60
        E 0 90 56 60
        E 0 90 62 60
        E 60 80 1f 00
        E 0 80 56 00
        E 0 80 62 00
        E 90 90 18 60
        E 0 90 60 60
        E 30 80 18 00
        E 0 80 60 00
        E 60 90 18 60
        E 0 90 1f 60
        E 0 90 3e 60
        E 0 90 48 60
        E 0 90 4a 60
        E 0 90 54 60
        E 0 90 56 60
        E 0 90 60 60
        E 0 90 62 60
        E 60 80 18 00
        E 0 80 1f 00
        E 0 80 3e 00
        E 0 80 48 00
        E 0 80 4a 00
        E 0 80 54 00
        E 0 80 56 00
        E 0 80 60 00
        E 0 80 62 00
        E 180 90 18 60
        E 0 90 1f 60
        E 0 90 54 60
        E 0 90 56 60
        E 0 90 60 60
        E 0 90 62 60
        E 60 80 18 00
        E 0 80 1f 00
        E 0 80 54 00
        E 0 80 56 00
        E 0 80 60 00
        E 0 80 62 00
        E 180 90 1a 60
        E 0 90 1f 60
        E 0 90 3d 60
        E 0 90 3e 60
        E 0 90 49 60
        E 0 90 4a 60
        E 0 90 55 60
        E 0 90 56 60
        E 0 90 61 60
        E 0 90 62 60
        E 60 80 1f 00
        E 0 80 3e 00
        E 0 80 4a 00
        E 0 80 56 00
        E 0 80 62 00
        E 1 80 1a 00
        E 0 80 3d 00
        E 0 80 49 00
        E 0 80 55 00
        E 0 80 61 00
        E 179 90 1f 60
        E 0 90 56 60
        E 0 90 62 60
        E 60 80 1f 00
        E 0 80 56 00
        E 0 80 62 00
        E 180 90 18 60
        E 0 90 1f 60
        E 0 90 3e 60
        E 0 90 48 60
        E 0 90 4a 60
        E 0 90 54 60
        E 0 90 56 60
        E 0 90 60 60
        E 0 90 62 60
        E 61 80 18 00
        E 0 80 1f 00
        E 0 80 3e 00
        E 0 80 48 00
        E 0 80 4a 00
        E 0 80 54 00
        E 0 80 56 00
        E 0 80 60 00
        E 0 80 62 00
        E 139 90 74 58
        E 40 90 1f 60
        E 0 90 56 60
        E 0 90 62 60
        E 60 80 1f 00
        E 0 80 56 00
        E 0 80 62 00
        E 180 90 1a 60
        E 0 90 1f 60
        E 0 90 3d 60
        E 0 90 3e 60
        E 0 90 49 60
        E 0 90 4a 60
        E 0 90 55 60
        E 0 90 56 60
        E 0 90 61 60
        E 0 90 62 60
        E 60 80 1a 00
        E 0 80 1f 00
        E 0 80 3d 00
        E 0 80 3e 00
        E 0 80 49 00
        E 0 80 4a 00
        E 0 80 55 00
        E 0 80 56 00
        E 0 80 61 00
        E 0 80 62 00
        E 180 90 1f 60
        E 0 90 56 60
        E 0 90 62 60
        E 60 80 1f 00
        E 0 80 56 00
        E 0 80 62 00
        E 90 90 18 60
        E 0 90 60 60
        E 30 80 18 00
        E 0 80 60 00
        E 60 90 18 60
        E 0 90 1f 60
        E 0 90 3e 60
        E 0 90 48 60
        E 0 90 4a 60
        E 0 90 54 60
        E 0 90 56 60
        E 0 90 60 60
        E 0 90 62 60
        E 60 80 18 00
        E 0 80 1f 00
        E 0 80 3e 00
        E 0 80 48 00
        E 0 80 4a 00
        E 0 80 54 00
        E 0 80 56 00
        E 0 80 60 00
        E 0 80 62 00
        E 180 90 18 60
        E 0 90 1f 60
        E 0 90 54 60
        E 0 90 56 60
        E 0 90 60 60
        E 0 90 62 60
        E 60 80 18 00
        E 0 80 1f 00
        E 0 80 54 00
        E 0 80 56 00
        E 0 80 60 00
        E 0 80 62 00
        E 180 90 1a 60
        E 0 90 1f 60
        E 0 90 3d 60
        E 0 90 3e 60
        E 0 90 49 60
        E 0 90 4a 60
        E 0 90 55 60
        E 0 90 56 60
        E 0 90 61 60
        E 0 90 62 60
        E 60 80 74 00
        E 0 80 1f 00
        E 0 80 3e 00
        E 0 80 4a 00
        E 0 80 56 00
        E 0 80 62 00
        E 1 80 1a 00
        E 0 80 3d 00
        E 0 80 49 00
        E 0 80 55 00
        E 0 80 61 00
        E 179 90 1f 60
        E 0 90 56 60
        E 0 90 62 60
        E 60 80 1f 00
        E 0 80 56 00
        E 0 80 62 00
        E 180 90 18 60
        E 0 90 1f 60
        E 0 90 3e 60
        E 0 90 48 60
        E 0 90 4a 60
        E 0 90 54 60
        E 0 90 56 60
        E 0 90 60 60
        E 0 90 62 60
        E 61 80 18 00
        E 0 80 1f 00
        E 0 80 3e 00
        E 0 80 48 00
        E 0 80 4a 00
        E 0 80 54 00
        E 0 80 56 00
        E 0 80 60 00
        E 0 80 62 00
        E 179 90 1f 60
        E 0 90 56 60
        E 0 90 62 60
        E 60 80 1f 00
        E 0 80 56 00
        E 0 80 62 00
        E 180 90 1a 60
        E 0 90 1f 60
        E 0 90 3d 60
        E 0 90 3e 60
        E 0 90 49 60
        E 0 90 4a 60
        E 0 90 55 60
        E 0 90 56 60
        E 0 90 61 60
        E 0 90 62 60
        E 60 80 1a 00
        E 0 80 1f 00
        E 0 80 3d 00
        E 0 80 3e 00
        E 0 80 49 00
        E 0 80 4a 00
        E 0 80 55 00
        E 0 80 56 00
        E 0 80 61 00
        E 0 80 62 00
        E 180 90 1f 60
        E 0 90 56 60
        E 0 90 62 60
        E 60 80 1f 00
        E 0 80 56 00
        E 0 80 62 00
        E 90 90 18 60
        E 0 90 60 60
        E 30 80 18 00
        E 0 80 60 00
        E 60 90 18 60
        E 0 90 1f 60
        E 0 90 3e 60
        E 0 90 48 60
        E 0 90 4a 60
        E 0 90 54 60
        E 0 90 56 60
        E 0 90 60 60
        E 0 90 62 60
        E 60 80 18 00
        E 0 80 1f 00
        E 0 80 3e 00
        E 0 80 48 00
        E 0 80 4a 00
        E 0 80 54 00
        E 0 80 56 00
        E 0 80 60 00
        E 0 80 62 00
        E 180 90 18 60
        E 0 90 1f 60
        E 0 90 54 60
        E 0 90 56 60
        E 0 90 60 60
        E 0 90 62 60
        E 60 80 18 00
        E 0 80 1f 00
        E 0 80 54 00
        E 0 80 56 00
        E 0 80 60 00
        E 0 80 62 00
        E 180 90 1a 60
        E 0 90 1f 60
        E 0 90 3d 60
        E 0 90 3e 60
        E 0 90 49 60
        E 0 90 4a 60
        E 0 90 55 60
        E 0 90 56 60
        E 0 90 61 60
        E 0 90 62 60
        E 60 80 1f 00
        E 0 80 3e 00
        E 0 80 4a 00
        E 0 80 56 00
        E 0 80 62 00
        E 1 80 1a 00
        E 0 80 3d 00
        E 0 80 49 00
        E 0 80 55 00
        E 0 80 61 00
        E 179 90 1f 60
        E 0 90 56 60
        E 0 90 62 60
        E 60 80 1f 00
        E 0 80 56 00
        E 0 80 62 00
        E 180 90 18 60
        E 0 90 1f 60
        E 0 90 3e 60
        E 0 90 48 60
        E 0 90 4a 60
        E 0 90 54 60
        E 0 90 56 60
        E 0 90 60 60
        E 0 90 62 60
        E 61 80 18 00
        E 0 80 1f 00
        E 0 80 3e 00
        E 0 80 48 00
        E 0 80 4a 00
        E 0 80 54 00
        E 0 80 56 00
        E 0 80 60 00
        E 0 80 62 00
        E 179 90 1f 60
        E 0 90 56 60
        E 0 90 62 60
        E 60 80 1f 00
        E 0 80 56 00
        E 0 80 62 00
        E 180 90 1a 60
        E 0 90 1f 60
        E 0 90 3d 60
        E 0 90 3e 60
        E 0 90 49 60
        E 0 90 4a 60
        E 0 90 55 60
        E 0 90 56 60
        E 0 90 61 60
        E 0 90 62 60
        E 60 80 1a 00
        E 0 80 1f 00
        E 0 80 3d 00
        E 0 80 3e 00
        E 0 80 49 00
        E 0 80 4a 00
        E 0 80 55 00
        E 0 80 56 00
        E 0 80 61 00
        E 0 80 62 00
        E 180 90 1f 60
        E 0 90 56 60
        E 0 90 62 60
        E 60 80 1f 00
        E 0 80 56 00
        E 0 80 62 00
        E 90 90 18 60
        E 0 90 60 60
        E 30 80 18 00
        E 0 80 60 00
        E 60 90 18 60
        E 0 90 1f 60
        E 0 90 3e 60
        E 0 90 48 60
        E 0 90 4a 60
        E 0 90 54 60
        E 0 90 56 60
        E 0 90 60 60
        E 0 90 62 60
        E 60 80 18 00
        E 0 80 1f 00
        E 0 80 3e 00
        E 0 80 48 00
        E 0 80 4a 00
        E 0 80 54 00
        E 0 80 56 00
        E 0 80 60 00
        E 0 80 62 00
        E 180 90 18 60
        E 0 90 1f 60
        E 0 90 54 60
        E 0 90 56 60
        E 0 90 60 60
        E 0 90 62 60
        E 60 80 18 00
        E 0 80 1f 00
        E 0 80 54 00
        E 0 80 56 00
        E 0 80 60 00
        E 0 80 62 00
        E 20 90 78 58
        E 0 90 79 58
        E 0 90 7a 58
        E 0 90 7b 58
        E 0 90 7c 58
        E 160 90 2f 60
        E 0 90 3e 60
        E 0 90 4a 60
        E 0 90 56 60
        E 0 90 62 60
        E 0 90 6e 60
        E 60 80 2f 00
        E 0 80 3e 00
        E 0 80 4a 00
        E 0 80 56 00
        E 0 80 62 00
        E 0 80 6e 00
        E 60 90 30 60
        E 0 90 63 60
        E 0 90 6f 60
        E 60 80 30 00
        E 0 80 63 00
        E 0 80 6f 00
        E 60 90 33 60
        E 0 90 58 60
        E 0 90 64 60
        E 0 90 70 60
        E 60 80 33 00
        E 0 80 58 00
        E 0 80 64 00
        E 0 80 70 00
        E 180 90 18 60
        E 0 90 26 60
        E 0 90 40 60
        E 0 90 48 60
        E 0 90 4c 60
        E 0 90 54 60
        E 0 90 58 60
        E 0 90 60 60
        E 0 90 64 60
        E 1 80 78 00
        E 0 80 79 00
        E 0 80 7a 00
        E 0 80 7b 00
        E 0 80 7c 00
        E 59 80 18 00
        E 0 80 26 00
        E 0 80 40 00
        E 0 80 48 00
        E 0 80 4c 00
        E 0 80 54 00
        E 0 80 58 00
        E 0 80 60 00
        E 0 80 64 00
        E 180 90 1f 60
        E 0 90 56 60
        E 0 90 62 60
        E 60 80 1f 00
        E 0 80 56 00
        E 0 80 62 00
        E 180 90 1a 60
        E 0 90 1f 60
        E 0 90 3d 60
        E 0 90 3e 60
        E 0 90 49 60
        E 0 90 4a 60
        E 0 90 55 60
        E 0 90 56 60
        E 0 90 61 60
        E 0 90 62 60
        E 60 80 1a 00
        E 0 80 1f 00
        E 0 80 3d 00
        E 0 80 3e 00
        E 0 80 49 00
        E 0 80 4a 00
        E 0 80 55 00
        E 0 80 56 00
        E 0 80 61 00
        E 0 80 62 00
        E 180 90 1f 60
        E 0 90 56 60
        E 0 90 62 60
        E 60 80 1f 00
        E 0 80 56 00
        E 0 80 62 00
        E 90 90 18 60
        E 0 90 60 60
        E 30 80 18 00
        E 0 80 60 00
        E 60 90 18 60
        E 0 90 1f 60
        E 0 90 3e 60
        E 0 90 48 60
        E 0 90 4a 60
        E 0 90 54 60
        E 0 90 56 60
        E 0 90 60 60
        E 0 90 62 60
        E 60 80 18 00
        E 0 80 1f 00
        E 0 80 3e 00
        E 0 80 48 00
        E 0 80 4a 00
        E 0 80 54 00
        E 0 80 56 00
        E 0 80 60 00
        E 0 80 62 00
        E 180 90 18 60
        E 0 90 1f 60
        E 0 90 54 60
        E 0 90 56 60
        E 0 90 60 60
        E 0 90 62 60
        E 60 80 18 00
        E 0 80 1f 00
        E 0 80 54 00
        E 0 80 56 00
        E 0 80 60 00
        E 0 80 62 00
        E 180 90 1a 60
        E 0 90 1f 60
        E 0 90 3d 60
        E 0 90 3e 60
        E 0 90 49 60
        E 0 90 4a 60
        E 0 90 55 60
        E 0 90 56 60
        E 0 90 61 60
        E 0 90 62 60
        E 60 80 1f 00
        E 0 80 3e 00
        E 0 80 4a 00
        E 0 80 56 00
        E 0 80 62 00
        E 1 80 1a 00
        E 0 80 3d 00
        E 0 80 49 00
        E 0 80 55 00
        E 0 80 61 00
        E 179 90 1f 60
        E 0 90 56 60
        E 0 90 62 60
        E 60 80 1f 00
        E 0 80 56 00
        E 0 80 62 00
        E 180 90 18 60
        E 0 90 1f 60
        E 0 90 3e 60
        E 0 90 48 60
        E 0 90 4a 60
        E 0 90 54 60
        E 0 90 56 60
        E 0 90 60 60
        E 0 90 62 60
        E 61 80 18 00
        E 0 80 1f 00
        E 0 80 3e 00
        E 0 80 48 00
        E 0 80 4a 00
        E 0 80 54 00
        E 0 80 56 00
        E 0 80 60 00
        E 0 80 62 00
        E 179 90 1f 60
        E 0 90 56 60
        E 0 90 62 60
        E 60 80 1f 00
        E 0 80 56 00
        E 0 80 62 00
        E 180 90 1a 60
        E 0 90 1f 60
        E 0 90 3d 60
        E 0 90 3e 60
        E 0 90 49 60
        E 0 90 4a 60
        E 0 90 55 60
        E 0 90 56 60
        E 0 90 61 60
        E 0 90 62 60
        E 60 80 1a 00
        E 0 80 1f 00
        E 0 80 3d 00
        E 0 80 3e 00
        E 0 80 49 00
        E 0 80 4a 00
        E 0 80 55 00
        E 0 80 56 00
        E 0 80 61 00
        E 0 80 62 00
        E 180 90 1f 60
        E 0 90 56 60
        E 0 90 62 60
        E 60 80 1f 00
        E 0 80 56 00
        E 0 80 62 00
        E 90 90 18 60
        E 0 90 60 60
        E 30 80 18 00
        E 0 80 60 00
        E 60 90 18 60
        E 0 90 1f 60
        E 0 90 3e 60
        E 0 90 48 60
        E 0 90 4a 60
        E 0 90 54 60
        E 0 90 56 60
        E 0 90 60 60
        E 0 90 62 60
        E 60 80 18 00
        E 0 80 1f 00
        E 0 80 3e 00
        E 0 80 48 00
        E 0 80 4a 00
        E 0 80 54 00
        E 0 80 56 00
        E 0 80 60 00
        E 0 80 62 00
        E 180 90 18 60
        E 0 90 1f 60
        E 0 90 54 60
        E 0 90 56 60
        E 0 90 60 60
        E 0 90 62 60
        E 60 80 18 00
        E 0 80 1f 00
        E 0 80 54 00
        E 0 80 56 00
        E 0 80 60 00
        E 0 80 62 00
        E 180 90 1a 60
        E 0 90 1f 60
        E 0 90 3d 60
        E 0 90 3e 60
        E 0 90 49 60
        E 0 90 4a 60
        E 0 90 55 60
        E 0 90 56 60
        E 0 90 61 60
        E 0 90 62 60
        E 60 80 1f 00
        E 0 80 3e 00
        E 0 80 4a 00
        E 0 80 56 00
        E 0 80 62 00
        E 1 80 1a 00
        E 0 80 3d 00
        E 0 80 49 00
        E 0 80 55 00
        E 0 80 61 00
        E 179 90 1f 60
        E 0 90 56 60
        E 0 90 62 60
        E 60 80 1f 00
        E 0 80 56 00
        E 0 80 62 00
        E 180 90 18 60
        E 0 90 1f 60
        E 0 90 3e 60
        E 0 90 48 60
        E 0 90 4a 60
        E 0 90 54 60
        E 0 90 56 60
        E 0 90 60 60
        E 0 90 62 60
        E 61 80 18 00
        E 0 80 1f 00
        E 0 80 3e 00
        E 0 80 48 00
        E 0 80 4a 00
        E 0 80 54 00
        E 0 80 56 00
        E 0 80 60 00
        E 0 80 62 00
        E 179 90 1f 60
        E 0 90 56 60
        E 0 90 62 60
        E 60 80 1f 00
        E 0 80 56 00
        E 0 80 62 00
        E 0 90 74 66
        E 180 90 1a 60
        E 0 90 1f 60
        E 0 90 3d 60
        E 0 90 3e 60
        E 0 90 49 60
        E 0 90 4a 60
        E 0 90 55 60
        E 0 90 56 60
        E 0 90 61 60
        E 0 90 62 60
        E 60 80 1a 00
        E 0 80 1f 00
        E 0 80 3d 00
        E 0 80 3e 00
        E 0 80 49 00
        E 0 80 4a 00
        E 0 80 55 00
        E 0 80 56 00
        E 0 80 61 00
        E 0 80 62 00
        E 180 90 1f 60
        E 0 90 56 60
        E 0 90 62 60
        E 60 80 1f 00
        E 0 80 56 00
        E 0 80 62 00
        E 90 90 18 60
        E 0 90 60 60
        E 30 80 18 00
        E 0 80 60 00
        E 60 90 18 60
        E 0 90 1f 60
        E 0 90 3e 60
        E 0 90 48 60
        E 0 90 4a 60
        E 0 90 54 60
        E 0 90 56 60
        E 0 90 60 60
        E 0 90 62 60
        E 60 80 18 00
        E 0 80 1f 00
        E 0 80 3e 00
        E 0 80 48 00
        E 0 80 4a 00
        E 0 80 54 00
        E 0 80 56 00
        E 0 80 60 00
        E 0 80 62 00
        E 180 90 18 60
        E 0 90 1f 60
        E 0 90 54 60
        E 0 90 56 60
        E 0 90 60 60
        E 0 90 62 60
        E 60 80 18 00
        E 0 80 1f 00
        E 0 80 54 00
        E 0 80 56 00
        E 0 80 60 00
        E 0 80 62 00
        E 180 90 1a 60
        E 0 90 1f 60
        E 0 90 3d 60
        E 0 90 3e 60
        E 0 90 49 60
        E 0 90 4a 60
        E 0 90 55 60
        E 0 90 56 60
        E 0 90 61 60
        E 0 90 62 60
        E 60 80 1f 00
        E 0 80 3e 00
        E 0 80 4a 00
        E 0 80 56 00
        E 0 80 62 00
        E 1 80 1a 00
        E 0 80 3d 00
        E 0 80 49 00
        E 0 80 55 00
        E 0 80 61 00
        E 179 90 1f 60
        E 0 90 56 60
        E 0 90 62 60
        E 60 80 1f 00
        E 0 80 56 00
        E 0 80 62 00
        E 180 90 18 60
        E 0 90 1f 60
        E 0 90 3e 60
        E 0 90 48 60
        E 0 90 4a 60
        E 0 90 54 60
        E 0 90 56 60
        E 0 90 60 60
        E 0 90 62 60
        E 61 80 18 00
        E 0 80 1f 00
        E 0 80 3e 00
        E 0 80 48 00
        E 0 80 4a 00
        E 0 80 54 00
        E 0 80 56 00
        E 0 80 60 00
        E 0 80 62 00
        E 179 90 1f 60
        E 0 90 56 60
        E 0 90 62 60
        E 60 80 1f 00
        E 0 80 56 00
        E 0 80 62 00
        E 180 90 1a 60
        E 0 90 1f 60
        E 0 90 3d 60
        E 0 90 3e 60
        E 0 90 49 60
        E 0 90 4a 60
        E 0 90 55 60
        E 0 90 56 60
        E 0 90 61 60
        E 0 90 62 60
        E 60 80 1a 00
        E 0 80 1f 00
        E 0 80 3d 00
        E 0 80 3e 00
        E 0 80 49 00
        E 0 80 4a 00
        E 0 80 55 00
        E 0 80 56 00
        E 0 80 61 00
        E 0 80 62 00
        E 180 90 1f 60
        E 0 90 56 60
        E 0 90 62 60
        E 60 80 1f 00
        E 0 80 56 00
        E 0 80 62 00
        E 90 90 18 60
        E 0 90 60 60
        E 30 80 18 00
        E 0 80 60 00
        E 60 90 18 60
        E 0 90 1f 60
        E 0 90 3e 60
        E 0 90 48 60
        E 0 90 4a 60
        E 0 90 54 60
        E 0 90 56 60
        E 0 90 60 60
        E 0 90 62 60
        E 60 80 18 00
        E 0 80 1f 00
        E 0 80 3e 00
        E 0 80 48 00
        E 0 80 4a 00
        E 0 80 54 00
        E 0 80 56 00
        E 0 80 60 00
        E 0 80 62 00
        E 180 90 18 60
        E 0 90 1f 60
        E 0 90 54 60
        E 0 90 56 60
        E 0 90 60 60
        E 0 90 62 60
        E 60 80 18 00
        E 0 80 1f 00
        E 0 80 54 00
        E 0 80 56 00
        E 0 80 60 00
        E 0 80 62 00
        E 180 90 1a 60
        E 0 90 1f 60
        E 0 90 3d 60
        E 0 90 3e 60
        E 0 90 49 60
        E 0 90 4a 60
        E 0 90 55 60
        E 0 90 56 60
        E 0 90 61 60
        E 0 90 62 60
        E 60 80 1f 00
        E 0 80 3e 00
        E 0 80 4a 00
        E 0 80 56 00
        E 0 80 62 00
        E 1 80 1a 00
        E 0 80 3d 00
        E 0 80 49 00
        E 0 80 55 00
        E 0 80 61 00
        E 179 90 1f 60
        E 0 90 56 60
        E 0 90 62 60
        E 60 80 1f 00
        E 0 80 56 00
        E 0 80 62 00
        E 120 80 74 00
        E 60 90 18 60
        E 0 90 1f 60
        E 0 90 3e 60
        E 0 90 48 60
        E 0 90 4a 60
        E 0 90 54 60
        E 0 90 56 60
        E 0 90 60 60
        E 0 90 62 60
        E 61 80 18 00
        E 0 80 1f 00
        E 0 80 3e 00
        E 0 80 48 00
        E 0 80 4a 00
        E 0 80 54 00
        E 0 80 56 00
        E 0 80 60 00
        E 0 80 62 00
        E 179 90 1f 60
        E 0 90 56 60
        E 0 90 62 60
        E 60 80 1f 00
        E 0 80 56 00
        E 0 80 62 00
        E 180 90 1a 60
        E 0 90 1f 60
        E 0 90 3d 60
        E 0 90 3e 60
        E 0 90 49 60
        E 0 90 4a 60
        E 0 90 55 60
        E 0 90 56 60
        E 0 90 61 60
        E 0 90 62 60
        E 60 80 1a 00
        E 0 80 1f 00
        E 0 80 3d 00
        E 0 80 3e 00
        E 0 80 49 00
        E 0 80 4a 00
        E 0 80 55 00
        E 0 80 56 00
        E 0 80 61 00
        E 0 80 62 00
        E 180 90 1f 60
        E 0 90 56 60
        E 0 90 62 60
        E 60 80 1f 00
        E 0 80 56 00
        E 0 80 62 00
        E 90 90 18 60
        E 0 90 60 60
        E 30 80 18 00
        E 0 80 60 00
        E 60 90 18 60
        E 0 90 1f 60
        E 0 90 3e 60
        E 0 90 48 60
        E 0 90 4a 60
        E 0 90 54 60
        E 0 90 56 60
        E 0 90 60 60
        E 0 90 62 60
        E 60 80 18 00
        E 0 80 1f 00
        E 0 80 3e 00
        E 0 80 48 00
        E 0 80 4a 00
        E 0 80 54 00
        E 0 80 56 00
        E 0 80 60 00
        E 0 80 62 00
        E 180 90 18 60
        E 0 90 1f 60
        E 0 90 54 60
        E 0 90 56 60
        E 0 90 60 60
        E 0 90 62 60
        E 60 80 18 00
        E 0 80 1f 00
        E 0 80 54 00
        E 0 80 56 00
        E 0 80 60 00
        E 0 80 62 00
        E 180 90 1a 60
        E 0 90 1f 60
        E 0 90 3d 60
        E 0 90 3e 60
        E 0 90 49 60
        E 0 90 4a 60
        E 0 90 55 60
        E 0 90 56 60
        E 0 90 61 60
        E 0 90 62 60
        E 60 80 1f 00
        E 0 80 3e 00
        E 0 80 4a 00
        E 0 80 56 00
        E 0 80 62 00
        E 1 80 1a 00
        E 0 80 3d 00
        E 0 80 49 00
        E 0 80 55 00
        E 0 80 61 00
        E 179 90 1f 60
        E 0 90 56 60
        E 0 90 62 60
        E 60 80 1f 00
        E 0 80 56 00
        E 0 80 62 00
        E 180 90 18 60
        E 0 90 1f 60
        E 0 90 3e 60
        E 0 90 48 60
        E 0 90 4a 60
        E 0 90 54 60
        E 0 90 56 60
        E 0 90 60 60
        E 0 90 62 60
        E 61 80 18 00
        E 0 80 1f 00
        E 0 80 3e 00
        E 0 80 48 00
        E 0 80 4a 00
        E 0 80 54 00
        E 0 80 56 00
        E 0 80 60 00
        E 0 80 62 00
        E 179 90 1f 60
        E 0 90 56 60
        E 0 90 62 60
        E 60 80 1f 00
        E 0 80 56 00
        E 0 80 62 00
        E 180 90 1a 60
        E 0 90 1f 60
        E 0 90 3d 60
        E 0 90 3e 60
        E 0 90 49 60
        E 0 90 4a 60
        E 0 90 55 60
        E 0 90 56 60
        E 0 90 61 60
        E 0 90 62 60
        E 60 80 1a 00
        E 0 80 1f 00
        E 0 80 3d 00
        E 0 80 3e 00
        E 0 80 49 00
        E 0 80 4a 00
        E 0 80 55 00
        E 0 80 56 00
        E 0 80 61 00
        E 0 80 62 00
        E 180 90 1f 60
        E 0 90 56 60
        E 0 90 62 60
        E 60 80 1f 00
        E 0 80 56 00
        E 0 80 62 00
        E 90 90 18 60
        E 0 90 60 60
        E 30 80 18 00
        E 0 80 60 00
        E 60 90 18 60
        E 0 90 1f 60
        E 0 90 3e 60
        E 0 90 48 60
        E 0 90 4a 60
        E 0 90 54 60
        E 0 90 56 60
        E 0 90 60 60
        E 0 90 62 60
        E 60 80 18 00
        E 0 80 1f 00
        E 0 80 3e 00
        E 0 80 48 00
        E 0 80 4a 00
        E 0 80 54 00
        E 0 80 56 00
        E 0 80 60 00
        E 0 80 62 00
        E 180 90 18 60
        E 0 90 1f 60
        E 0 90 54 60
        E 0 90 56 60
        E 0 90 60 60
        E 0 90 62 60
        E 60 80 18 00
        E 0 80 1f 00
        E 0 80 54 00
        E 0 80 56 00
        E 0 80 60 00
        E 0 80 62 00
        E 180 90 1a 60
        E 0 90 1f 60
        E 0 90 3d 60
        E 0 90 3e 60
        E 0 90 49 60
        E 0 90 4a 60
        E 0 90 55 60
        E 0 90 56 60
        E 0 90 61 60
        E 0 90 62 60
        E 60 80 1f 00
        E 0 80 3e 00
        E 0 80 4a 00
        E 0 80 56 00
        E 0 80 62 00
        E 1 80 1a 00
        E 0 80 3d 00
        E 0 80 49 00
        E 0 80 55 00
        E 0 80 61 00
        E 179 90 1f 60
        E 0 90 56 60
        E 0 90 62 60
        E 60 80 1f 00
        E 0 80 56 00
        E 0 80 62 00
        E 180 90 18 60
        E 0 90 1f 60
        E 0 90 3e 60
        E 0 90 48 60
        E 0 90 4a 60
        E 0 90 54 60
        E 0 90 56 60
        E 0 90 60 60
        E 0 90 62 60
        E 61 80 18 00
        E 0 80 1f 00
        E 0 80 3e 00
        E 0 80 48 00
        E 0 80 4a 00
        E 0 80 54 00
        E 0 80 56 00
        E 0 80 60 00
        E 0 80 62 00
        E 179 90 1f 60
        E 0 90 56 60
        E 0 90 62 60
        E 60 80 1f 00
        E 0 80 56 00
        E 0 80 62 00
        E 180 90 1a 60
        E 0 90 1f 60
        E 0 90 3d 60
        E 0 90 3e 60
        E 0 90 49 60
        E 0 90 4a 60
        E 0 90 55 60
        E 0 90 56 60
        E 0 90 61 60
        E 0 90 62 60
        E 60 80 1a 00
        E 0 80 1f 00
        E 0 80 3d 00
        E 0 80 3e 00
        E 0 80 49 00
        E 0 80 4a 00
        E 0 80 55 00
        E 0 80 56 00
        E 0 80 61 00
        E 0 80 62 00
        E 180 90 1f 60
        E 0 90 56 60
        E 0 90 62 60
        E 60 80 1f 00
        E 0 80 56 00
        E 0 80 62 00
        E 90 90 18 60
        E 0 90 60 60
        E 30 80 18 00
        E 0 80 60 00
        E 60 90 18 60
        E 0 90 1f 60
        E 0 90 3e 60
        E 0 90 48 60
        E 0 90 4a 60
        E 0 90 54 60
        E 0 90 56 60
        E 0 90 60 60
        E 0 90 62 60
        E 60 80 18 00
        E 0 80 1f 00
        E 0 80 3e 00
        E 0 80 48 00
        E 0 80 4a 00
        E 0 80 54 00
        E 0 80 56 00
        E 0 80 60 00
        E 0 80 62 00
        E 180 90 18 60
        E 0 90 1f 60
        E 0 90 54 60
        E 0 90 56 60
        E 0 90 60 60
        E 0 90 62 60
        E 60 80 18 00
        E 0 80 1f 00
        E 0 80 54 00
        E 0 80 56 00
        E 0 80 60 00
        E 0 80 62 00
        E 180 90 1a 60
        E 0 90 1f 60
        E 0 90 3d 60
        E 0 90 3e 60
        E 0 90 49 60
        E 0 90 4a 60
        E 0 90 55 60
        E 0 90 56 60
        E 0 90 61 60
        E 0 90 62 60
        E 60 80 1f 00
        E 0 80 3e 00
        E 0 80 4a 00
        E 0 80 56 00
        E 0 80 62 00
        E 1 80 1a 00
        E 0 80 3d 00
        E 0 80 49 00
        E 0 80 55 00
        E 0 80 61 00
        E 179 90 1f 60
        E 0 90 56 60
        E 0 90 62 60
        E 60 80 1f 00
        E 0 80 56 00
        E 0 80 62 00
        E 180 90 18 60
        E 0 90 1f 60
        E 0 90 3e 60
        E 0 90 48 60
        E 0 90 4a 60
        E 0 90 54 60
        E 0 90 56 60
        E 0 90 60 60
        E 0 90 62 60
        E 61 80 18 00
        E 0 80 1f 00
        E 0 80 3e 00
        E 0 80 48 00
        E 0 80 4a 00
        E 0 80 54 00
        E 0 80 56 00
        E 0 80 60 00
        E 0 80 62 00
        E 179 90 1f 60
        E 0 90 56 60
        E 0 90 62 60
        E 60 80 1f 00
        E 0 80 56 00
        E 0 80 62 00
        E 180 90 1a 60
        E 0 90 1f 60
        E 0 90 3d 60
        E 0 90 3e 60
        E 0 90 49 60
        E 0 90 4a 60
        E 0 90 55 60
        E 0 90 56 60
        E 0 90 61 60
        E 0 90 62 60
        E 60 80 1a 00
        E 0 80 1f 00
        E 0 80 3d 00
        E 0 80 3e 00
        E 0 80 49 00
        E 0 80 4a 00
        E 0 80 55 00
        E 0 80 56 00
        E 0 80 61 00
        E 0 80 62 00
        E 180 90 1f 60
        E 0 90 56 60
        E 0 90 62 60
        E 60 80 1f 00
        E 0 80 56 00
        E 0 80 62 00
        E 90 90 18 60
        E 0 90 60 60
        E 30 80 18 00
        E 0 80 60 00
        E 60 90 18 60
        E 0 90 1f 60
        E 0 90 3e 60
        E 0 90 48 60
        E 0 90 4a 60
        E 0 90 54 60
        E 0 90 56 60
        E 0 90 60 60
        E 0 90 62 60
        E 60 80 18 00
        E 0 80 1f 00
        E 0 80 3e 00
        E 0 80 48 00
        E 0 80 4a 00
        E 0 80 54 00
        E 0 80 56 00
        E 0 80 60 00
        E 0 80 62 00
        E 100 90 78 58
        E 0 90 79 58
        E 0 90 7a 58
        E 0 90 7b 58
        E 0 90 7c 58
        E 80 90 31 60
        E 0 90 57 60
        E 0 90 63 60
        E 0 90 6f 60
        E 60 80 31 00
        E 0 80 57 00
        E 0 80 63 00
        E 0 80 6f 00
        E 60 90 30 60
        E 0 90 63 60
        E 0 90 6f 60
        E 60 80 30 00
        E 0 80 63 00
        E 0 80 6f 00
        E 60 90 2f 60
        E 0 90 3e 60
        E 0 90 4a 60
        E 0 90 56 60
        E 0 90 62 60
        E 0 90 6e 60
        E 60 80 2f 00
        E 0 80 3e 00
        E 0 80 4a 00
        E 0 80 56 00
        E 0 80 62 00
        E 0 80 6e 00
        E 60 90 2e 60
        E 0 90 62 60
        E 0 90 6e 60
        E 60 80 2e 00
        E 0 80 62 00
        E 0 80 6e 00
        E 60 90 2e 60
        E 0 90 31 60
        E 0 90 56 60
        E 0 90 57 60
        E 0 90 62 60
        E 0 90 63 60
        E 0 90 6e 60
        E 0 90 6f 60
        E 60 80 2e 00
        E 0 80 31 00
        E 0 80 56 00
        E 0 80 57 00
        E 0 80 62 00
        E 0 80 63 00
        E 0 80 6e 00
        E 0 80 6f 00
        E 180 80 78 00
        E 0 80 79 00
        E 0 80 7a 00
        E 0 80 7b 00
        E 0 80 7c 00
        E 0 90 18 60
        E 0 90 26 60
        E 0 90 40 60
        E 0 90 48 60
        E 0 90 4c 60
        E 0 90 54 60
        E 0 90 58 60
        E 0 90 60 60
        E 0 90 64 60
        E 60 80 18 00
        E 0 80 26 00
        E 0 80 40 00
        E 0 80 48 00
        E 0 80 4c 00
        E 0 80 54 00
        E 0 80 58 00
        E 0 80 60 00
        E 0 80 64 00
        E 180 90 1f 60
        E 0 90 56 60
        E 0 90 62 60
        E 60 80 1f 00
        E 0 80 56 00
        E 0 80 62 00
        E 180 90 1a 60
        E 0 90 1f 60
        E 0 90 3d 60
        E 0 90 3e 60
        E 0 90 49 60
        E 0 90 4a 60
        E 0 90 55 60
        E 0 90 56 60
        E 0 90 61 60
        E 0 90 62 60
        E 60 80 1a 00
        E 0 80 1f 00
        E 0 80 3d 00
        E 0 80 3e 00
        E 0 80 49 00
        E 0 80 4a 00
        E 0 80 55 00
        E 0 80 56 00
        E 0 80 61 00
        E 0 80 62 00
        E 180 90 1f 60
        E 0 90 56 60
        E 0 90 62 60
        E 60 80 1f 00
        E 0 80 56 00
        E 0 80 62 00
        E 90 90 18 60
        E 0 90 60 60
        E 30 80 18 00
        E 0 80 60 00
        E 60 90 18 60
        E 0 90 1f 60
        E 0 90 3e 60
        E 0 90 48 60
        E 0 90 4a 60
        E 0 90 54 60
        E 0 90 56 60
        E 0 90 60 60
        E 0 90 62 60
        E 60 80 18 00
        E 0 80 1f 00
        E 0 80 3e 00
        E 0 80 48 00
        E 0 80 4a 00
        E 0 80 54 00
        E 0 80 56 00
        E 0 80 60 00
        E 0 80 62 00
        E 180 90 18 60
        E 0 90 1f 60
        E 0 90 54 60
        E 0 90 56 60
        E 0 90 60 60
        E 0 90 62 60
        E 60 80 18 00
        E 0 80 1f 00
        E 0 80 54 00
        E 0 80 56 00
        E 0 80 60 00
        E 0 80 62 00
        E 180 90 1a 60
        E 0 90 1f 60
        E 0 90 3d 60
        E 0 90 3e 60
        E 0 90 49 60
        E 0 90 4a 60
        E 0 90 55 60
        E 0 90 56 60
        E 0 90 61 60
        E 0 90 62 60
        E 60 80 1f 00
        E 0 80 3e 00
        E 0 80 4a 00
        E 0 80 56 00
        E 0 80 62 00
        E 1 80 1a 00
        E 0 80 3d 00
        E 0 80 49 00
        E 0 80 55 00
        E 0 80 61 00
        E 179 90 1f 60
        E 0 90 56 60
        E 0 90 62 60
        E 60 80 1f 00
        E 0 80 56 00
        E 0 80 62 00
        E 180 90 18 60
        E 0 90 1f 60
        E 0 90 3e 60
        E 0 90 48 60
        E 0 90 4a 60
        E 0 90 54 60
        E 0 90 56 60
        E 0 90 60 60
        E 0 90 62 60
        E 61 80 18 00
        E 0 80 1f 00
        E 0 80 3e 00
        E 0 80 48 00
        E 0 80 4a 00
        E 0 80 54 00
        E 0 80 56 00
        E 0 80 60 00
        E 0 80 62 00
        E 179 90 1f 60
        E 0 90 56 60
        E 0 90 62 60
        E 60 80 1f 00
        E 0 80 56 00
        E 0 80 62 00
        E 180 90 1a 60
        E 0 90 1f 60
        E 0 90 3d 60
        E 0 90 3e 60
        E 0 90 49 60
        E 0 90 4a 60
        E 0 90 55 60
        E 0 90 56 60
        E 0 90 61 60
        E 0 90 62 60
        E 60 80 1a 00
        E 0 80 1f 00
        E 0 80 3d 00
        E 0 80 3e 00
        E 0 80 49 00
        E 0 80 4a 00
        E 0 80 55 00
        E 0 80 56 00
        E 0 80 61 00
        E 0 80 62 00
        E 180 90 1f 60
        E 0 90 56 60
        E 0 90 62 60
        E 60 80 1f 00
        E 0 80 56 00
        E 0 80 62 00
        E 90 90 18 60
        E 0 90 60 60
        E 30 80 18 00
        E 0 80 60 00
        E 60 90 18 60
        E 0 90 1f 60
        E 0 90 3e 60
        E 0 90 48 60
        E 0 90 4a 60
        E 0 90 54 60
        E 0 90 56 60
        E 0 90 60 60
        E 0 90 62 60
        E 60 80 18 00
        E 0 80 1f 00
        E 0 80 3e 00
        E 0 80 48 00
        E 0 80 4a 00
        E 0 80 54 00
        E 0 80 56 00
        E 0 80 60 00
        E 0 80 62 00
        E 180 90 18 60
        E 0 90 1f 60
        E 0 90 54 60
        E 0 90 56 60
        E 0 90 60 60
        E 0 90 62 60
        E 60 80 18 00
        E 0 80 1f 00
        E 0 80 54 00
        E 0 80 56 00
        E 0 80 60 00
        E 0 80 62 00
        E 180 90 1a 60
        E 0 90 1f 60
        E 0 90 3d 60
        E 0 90 3e 60
        E 0 90 49 60
        E 0 90 4a 60
        E 0 90 55 60
        E 0 90 56 60
        E 0 90 61 60
        E 0 90 62 60
        E 60 80 1f 00
        E 0 80 3e 00
        E 0 80 4a 00
        E 0 80 56 00
        E 0 80 62 00
        E 1 80 1a 00
        E 0 80 3d 00
        E 0 80 49 00
        E 0 80 55 00
        E 0 80 61 00
        E 179 90 1f 60
        E 0 90 56 60
        E 0 90 62 60
        E 60 80 1f 00
        E 0 80 56 00
        E 0 80 62 00
        E 180 90 18 60
        E 0 90 1f 60
        E 0 90 3e 60
        E 0 90 48 60
        E 0 90 4a 60
        E 0 90 54 60
        E 0 90 56 60
        E 0 90 60 60
        E 0 90 62 60
        E 61 80 18 00
        E 0 80 1f 00
        E 0 80 3e 00
        E 0 80 48 00
        E 0 80 4a 00
        E 0 80 54 00
        E 0 80 56 00
        E 0 80 60 00
        E 0 80 62 00
        E 179 90 1f 60
        E 0 90 56 60
        E 0 90 62 60
        E 60 80 1f 00
        E 0 80 56 00
        E 0 80 62 00
        E 180 90 1a 60
        E 0 90 1f 60
        E 0 90 3d 60
        E 0 90 3e 60
        E 0 90 49 60
        E 0 90 4a 60
        E 0 90 55 60
        E 0 90 56 60
        E 0 90 61 60
        E 0 90 62 60
        E 60 80 1a 00
        E 0 80 1f 00
        E 0 80 3d 00
        E 0 80 3e 00
        E 0 80 49 00
        E 0 80 4a 00
        E 0 80 55 00
        E 0 80 56 00
        E 0 80 61 00
        E 0 80 62 00
        E 180 90 1f 60
        E 0 90 56 60
        E 0 90 62 60
        E 60 80 1f 00
        E 0 80 56 00
        E 0 80 62 00
        E 90 90 18 60
        E 0 90 60 60
        E 30 80 18 00
        E 0 80 60 00
        E 60 90 18 60
        E 0 90 1f 60
        E 0 90 3e 60
        E 0 90 48 60
        E 0 90 4a 60
        E 0 90 54 60
        E 0 90 56 60
        E 0 90 60 60
        E 0 90 62 60
        E 60 80 18 00
        E 0 80 1f 00
        E 0 80 3e 00
        E 0 80 48 00
        E 0 80 4a 00
        E 0 80 54 00
        E 0 80 56 00
        E 0 80 60 00
        E 0 80 62 00
        E 180 90 18 60
        E 0 90 1f 60
        E 0 90 54 60
        E 0 90 56 60
        E 0 90 60 60
        E 0 90 62 60
        E 60 80 18 00
        E 0 80 1f 00
        E 0 80 54 00
        E 0 80 56 00
        E 0 80 60 00
        E 0 80 62 00
        E 180 90 1a 60
        E 0 90 1f 60
        E 0 90 3d 60
        E 0 90 3e 60
        E 0 90 49 60
        E 0 90 4a 60
        E 0 90 55 60
        E 0 90 56 60
        E 0 90 61 60
        E 0 90 62 60
        E 60 80 1f 00
        E 0 80 3e 00
        E 0 80 4a 00
        E 0 80 56 00
        E 0 80 62 00
        E 1 80 1a 00
        E 0 80 3d 00
        E 0 80 49 00
        E 0 80 55 00
        E 0 80 61 00
        E 179 90 1f 60
        E 0 90 56 60
        E 0 90 62 60
        E 60 80 1f 00
        E 0 80 56 00
        E 0 80 62 00
        E 180 90 18 60
        E 0 90 1f 60
        E 0 90 3e 60
        E 0 90 48 60
        E 0 90 4a 60
        E 0 90 54 60
        E 0 90 56 60
        E 0 90 60 60
        E 0 90 62 60
        E 61 80 18 00
        E 0 80 1f 00
        E 0 80 3e 00
        E 0 80 48 00
        E 0 80 4a 00
        E 0 80 54 00
        E 0 80 56 00
        E 0 80 60 00
        E 0 80 62 00
        E 179 90 1f 60
        E 0 90 56 60
        E 0 90 62 60
        E 60 80 1f 00
        E 0 80 56 00
        E 0 80 62 00
        E 180 90 1a 60
        E 0 90 1f 60
        E 0 90 3d 60
        E 0 90 3e 60
        E 0 90 49 60
        E 0 90 4a 60
        E 0 90 55 60
        E 0 90 56 60
        E 0 90 61 60
        E 0 90 62 60
        E 60 80 1a 00
        E 0 80 1f 00
        E 0 80 3d 00
        E 0 80 3e 00
        E 0 80 49 00
        E 0 80 4a 00
        E 0 80 55 00
        E 0 80 56 00
        E 0 80 61 00
        E 0 80 62 00
        E 180 90 1f 60
        E 0 90 56 60
        E 0 90 62 60
        E 60 80 1f 00
        E 0 80 56 00
        E 0 80 62 00
        E 90 90 18 60
        E 0 90 60 60
        E 30 80 18 00
        E 0 80 60 00
        E 60 90 18 60
        E 0 90 1f 60
        E 0 90 3e 60
        E 0 90 48 60
        E 0 90 4a 60
        E 0 90 54 60
        E 0 90 56 60
        E 0 90 60 60
        E 0 90 62 60
        E 60 80 18 00
        E 0 80 1f 00
        E 0 80 3e 00
        E 0 80 48 00
        E 0 80 4a 00
        E 0 80 54 00
        E 0 80 56 00
        E 0 80 60 00
        E 0 80 62 00
        E 180 90 18 60
        E 0 90 1f 60
        E 0 90 54 60
        E 0 90 56 60
        E 0 90 60 60
        E 0 90 62 60
        E 60 80 18 00
        E 0 80 1f 00
        E 0 80 54 00
        E 0 80 56 00
        E 0 80 60 00
        E 0 80 62 00
        E 180 90 1a 60
        E 0 90 1f 60
        E 0 90 3d 60
        E 0 90 3e 60
        E 0 90 49 60
        E 0 90 4a 60
        E 0 90 55 60
        E 0 90 56 60
        E 0 90 61 60
        E 0 90 62 60
        E 60 80 1f 00
        E 0 80 3e 00
        E 0 80 4a 00
        E 0 80 56 00
        E 0 80 62 00
        E 1 80 1a 00
        E 0 80 3d 00
        E 0 80 49 00
        E 0 80 55 00
        E 0 80 61 00
        E 179 90 1f 60
        E 0 90 56 60
        E 0 90 62 60
        E 60 80 1f 00
        E 0 80 56 00
        E 0 80 62 00
        E 180 90 18 60
        E 0 90 1f 60
        E 0 90 3e 60
        E 0 90 48 60
        E 0 90 4a 60
        E 0 90 54 60
        E 0 90 56 60
        E 0 90 60 60
        E 0 90 62 60
        E 61 80 18 00
        E 0 80 1f 00
        E 0 80 3e 00
        E 0 80 48 00
        E 0 80 4a 00
        E 0 80 54 00
        E 0 80 56 00
        E 0 80 60 00
        E 0 80 62 00
        E 179 90 1f 60
        E 0 90 56 60
        E 0 90 62 60
        E 60 80 1f 00
        E 0 80 56 00
        E 0 80 62 00
        E 180 90 1a 60
        E 0 90 1f 60
        E 0 90 3d 60
        E 0 90 3e 60
        E 0 90 49 60
        E 0 90 4a 60
        E 0 90 55 60
        E 0 90 56 60
        E 0 90 61 60
        E 0 90 62 60
        E 60 80 1a 00
        E 0 80 1f 00
        E 0 80 3d 00
        E 0 80 3e 00
        E 0 80 49 00
        E 0 80 4a 00
        E 0 80 55 00
        E 0 80 56 00
        E 0 80 61 00
        E 0 80 62 00
        E 180 90 1f 60
        E 0 90 56 60
        E 0 90 62 60
        E 60 80 1f 00
        E 0 80 56 00
        E 0 80 62 00
        E 90 90 18 60
        E 0 90 60 60
        E 30 80 18 00
        E 0 80 60 00
        E 60 90 18 60
        E 0 90 1f 60
        E 0 90 3e 60
        E 0 90 48 60
        E 0 90 4a 60
        E 0 90 54 60
        E 0 90 56 60
        E 0 90 60 60
        E 0 90 62 60
        E 60 80 18 00
        E 0 80 1f 00
        E 0 80 3e 00
        E 0 80 48 00
        E 0 80 4a 00
        E 0 80 54 00
        E 0 80 56 00
        E 0 80 60 00
        E 0 80 62 00
        E 180 90 18 60
        E 0 90 1f 60
        E 0 90 54 60
        E 0 90 56 60
        E 0 90 60 60
        E 0 90 62 60
        E 60 80 18 00
        E 0 80 1f 00
        E 0 80 54 00
        E 0 80 56 00
        E 0 80 60 00
        E 0 80 62 00
        E 180 90 1a 60
        E 0 90 1f 60
        E 0 90 3d 60
        E 0 90 3e 60
        E 0 90 49 60
        E 0 90 4a 60
        E 0 90 55 60
        E 0 90 56 60
        E 0 90 61 60
        E 0 90 62 60
        E 60 80 1f 00
        E 0 80 3e 00
        E 0 80 4a 00
        E 0 80 56 00
        E 0 80 62 00
        E 1 80 1a 00
        E 0 80 3d 00
        E 0 80 49 00
        E 0 80 55 00
        E 0 80 61 00
        E 179 90 1f 60
        E 0 90 56 60
        E 0 90 62 60
        E 60 80 1f 00
        E 0 80 56 00
        E 0 80 62 00
        E 180 90 18 60
        E 0 90 1f 60
        E 0 90 3e 60
        E 0 90 48 60
        E 0 90 4a 60
        E 0 90 54 60
        E 0 90 56 60
        E 0 90 60 60
        E 0 90 62 60
        E 61 80 18 00
        E 0 80 1f 00
        E 0 80 3e 00
        E 0 80 48 00
        E 0 80 4a 00
        E 0 80 54 00
        E 0 80 56 00
        E 0 80 60 00
        E 0 80 62 00
        E 179 90 1f 60
        E 0 90 56 60
        E 0 90 62 60
        E 60 80 1f 00
        E 0 80 56 00
        E 0 80 62 00
        E 180 90 1a 60
        E 0 90 1f 60
        E 0 90 3d 60
        E 0 90 3e 60
        E 0 90 49 60
        E 0 90 4a 60
        E 0 90 55 60
        E 0 90 56 60
        E 0 90 61 60
        E 0 90 62 60
        E 60 80 1a 00
        E 0 80 1f 00
        E 0 80 3d 00
        E 0 80 3e 00
        E 0 80 49 00
        E 0 80 4a 00
        E 0 80 55 00
        E 0 80 56 00
        E 0 80 61 00
        E 0 80 62 00
        E 180 90 1f 60
        E 0 90 56 60
        E 0 90 62 60
        E 60 80 1f 00
        E 0 80 56 00
        E 0 80 62 00
        E 90 90 18 60
        E 0 90 60 60
        E 30 80 18 00
        E 0 80 60 00
        E 60 90 18 60
        E 0 90 1f 60
        E 0 90 3e 60
        E 0 90 48 60
        E 0 90 4a 60
        E 0 90 54 60
        E 0 90 56 60
        E 0 90 60 60
        E 0 90 62 60
        E 60 80 18 00
        E 0 80 1f 00
        E 0 80 3e 00
        E 0 80 48 00
        E 0 80 4a 00
        E 0 80 54 00
        E 0 80 56 00
        E 0 80 60 00
        E 0 80 62 00
        E 180 90 18 60
        E 0 90 1f 60
        E 0 90 54 60
        E 0 90 56 60
        E 0 90 60 60
        E 0 90 62 60
        E 60 80 18 00
        E 0 80 1f 00
        E 0 80 54 00
        E 0 80 56 00
        E 0 80 60 00
        E 0 80 62 00
        E 180 90 1a 60
        E 0 90 1f 60
        E 0 90 3d 60
        E 0 90 3e 60
        E 0 90 49 60
        E 0 90 4a 60
        E 0 90 55 60
        E 0 90 56 60
        E 0 90 61 60
        E 0 90 62 60
        E 60 80 1f 00
        E 0 80 3e 00
        E 0 80 4a 00
        E 0 80 56 00
        E 0 80 62 00
        E 1 80 1a 00
        E 0 80 3d 00
        E 0 80 49 00
        E 0 80 55 00
        E 0 80 61 00
        E 179 90 1f 60
        E 0 90 56 60
        E 0 90 62 60
        E 60 80 1f 00
        E 0 80 56 00
        E 0 80 62 00
        E 180 90 18 60
        E 0 90 1f 60
        E 0 90 3e 60
        E 0 90 48 60
        E 0 90 4a 60
        E 0 90 54 60
        E 0 90 56 60
        E 0 90 60 60
        E 0 90 62 60
        E 61 80 18 00
        E 0 80 1f 00
        E 0 80 3e 00
        E 0 80 48 00
        E 0 80 4a 00
        E 0 80 54 00
        E 0 80 56 00
        E 0 80 60 00
        E 0 80 62 00
        E 179 90 1f 60
        E 0 90 56 60
        E 0 90 62 60
        E 60 80 1f 00
        E 0 80 56 00
        E 0 80 62 00
        E 180 90 1a 60
        E 0 90 1f 60
        E 0 90 3d 60
        E 0 90 3e 60
        E 0 90 49 60
        E 0 90 4a 60
        E 0 90 55 60
        E 0 90 56 60
        E 0 90 61 60
        E 0 90 62 60
        E 60 80 1a 00
        E 0 80 1f 00
        E 0 80 3d 00
        E 0 80 3e 00
        E 0 80 49 00
        E 0 80 4a 00
        E 0 80 55 00
        E 0 80 56 00
        E 0 80 61 00
        E 0 80 62 00
        E 180 90 1f 60
        E 0 90 56 60
        E 0 90 62 60
        E 60 80 1f 00
        E 0 80 56 00
        E 0 80 62 00
        E 90 90 18 60
        E 0 90 60 60
        E 30 80 18 00
        E 0 80 60 00
        E 60 90 18 60
        E 0 90 1f 60
        E 0 90 3e 60
        E 0 90 48 60
        E 0 90 4a 60
        E 0 90 54 60
        E 0 90 56 60
        E 0 90 60 60
        E 0 90 62 60
        E 60 80 18 00
        E 0 80 1f 00
        E 0 80 3e 00
        E 0 80 48 00
        E 0 80 4a 00
        E 0 80 54 00
        E 0 80 56 00
        E 0 80 60 00
        E 0 80 62 00
        E 180 90 18 60
        E 0 90 1f 60
        E 0 90 54 60
        E 0 90 56 60
        E 0 90 60 60
        E 0 90 62 60
        E 60 80 18 00
        E 0 80 1f 00
        E 0 80 54 00
        E 0 80 56 00
        E 0 80 60 00
        E 0 80 62 00
        E 180 90 1a 60
        E 0 90 1f 60
        E 0 90 3d 60
        E 0 90 3e 60
        E 0 90 49 60
        E 0 90 4a 60
        E 0 90 55 60
        E 0 90 56 60
        E 0 90 61 60
        E 0 90 62 60
        E 60 80 1a 00
        E 0 80 1f 00
        E 0 80 3d 00
        E 0 80 3e 00
        E 0 80 49 00
        E 0 80 4a 00
        E 0 80 55 00
        E 0 80 56 00
        E 0 80 61 00
        E 0 80 62 00
        <X 480 0
          /wFbaWRsZV9yZWFsdGltZV0=
        >
        E 38340 b0 7b 00
        GUID {99C52F88-C54B-4CCD-B038-A5C950AC8E6E}
        IGNTEMPO 0 120.00000000 4 4
        SRCCOLOR 1178
        VELLANE 132 38 60
        COLORMAP "C:\Users\wejaa\AppData\Roaming\REAPER\Data\color_maps\rockband_drums.png"
        TEXTSTRINGFILE "Text Events List.txt"
        CFGEDITVIEW 134557.640453 128.262729 0 12 0 0 0
        CFGEDIT 1 1 0 0 0 1 1 1 1 1 1 0.08333333 -8 -8 1370 736 1 0 1 2 0.00000000 0 0 0 0 0.500000 1 0 1.000000 64
        KEYSNAP 0 0 "102034050607" 0 "Major"
        EVTFILTER 0 -1 -1 -1 -1 0 1 0 0 -1.00000000 -1.00000000
      >
    >
  >
  <TRACK '{0A445B2B-4303-47E2-8825-B4EF5B1FBF89}'
    NAME "drums_[mvsep.com]"
    PEAKCOL 16576
    BEAT -1
    AUTOMODE 0
    VOLPAN 1.00000000000000 0.00000000000000 -1.00000000000000 -1.00000000000000 1.00000000000000
    MUTESOLO 0 0 0
    IPHASE 0
    ISBUS 0 0
    BUSCOMP 0 0
    SHOWINMIX 1 0.666700 0.500000 1 0.500000 -1 -1 -1
    FREEMODE 0
    SEL 0
    REC 0 0 0 0 0 0 0
    VU 2
    TRACKHEIGHT 303 0
    INQ 0 0 0 0.5000000000 100 0 0 100
    NCHAN 2
    FX 1
    TRACKID {0A445B2B-4303-47E2-8825-B4EF5B1FBF89}
    PERF 0
    MIDIOUT -1
    MAINSEND 1 0
    <ITEM
      POSITION 2.34352805773092
      SNAPOFFS 0.00000000000000
      LENGTH 207.59999999999999
      LOOP 0
      ALLTAKES 0
      SEL 0
      FADEIN 1 0.000000 0.000000 1 0
      FADEOUT 1 0.000000 0.000000 1 0
      MUTE 0
      IGUID {535F1A07-C36C-4D17-ABBC-B2A2EE0EDF6C}
      IID 31
      NAME "drums_[mvsep.com].mp3"
      VOLPAN 1.000000 0.000000 1.000000 -1.000000
      SOFFS 0.00000000000000
      PLAYRATE 1.00000000000000 1 0.00000000000000 -1
      CHANMODE 0
      GUID {E0AA976F-612D-44D9-86ED-FF2918498DA3}
      <SOURCE MP3
        FILE "drums_[mvsep.com].mp3" 1
      >
    >
  >
  <TRACK '{70C3FE4D-3BC3-4146-95C4-8AC455A2D0F5}'
    NAME "PART BASS"
    PEAKCOL 16777471
    BEAT -1
    AUTOMODE 0
    VOLPAN 1.00000000000000 0.00000000000000 -1.00000000000000 -1.00000000000000 1.00000000000000
    MUTESOLO 0 0 0
    IPHASE 0
    ISBUS 0 0
    BUSCOMP 1 0
    SHOWINMIX 1 0.666700 0.500000 1 0.500000 -1 -1 -1
    FREEMODE 0
    SEL 0
    REC 0 4096 1 0 0 0 0
    TRACKHEIGHT 98 0
    INQ 0 0 0 0.5000000000 100 0 0 100
    NCHAN 2
    FX 1
    TRACKID {70C3FE4D-3BC3-4146-95C4-8AC455A2D0F5}
    PERF 0
    MIDIOUT -1
    <MIDINOTENAMES
      0 96 "EXPERT Green"
      0 97 "EXPERT Red"
      0 98 "EXPERT Yellow"
      0 99 "EXPERT Blue"
      0 100 "EXPERT Orange"
      0 84 "HARD Green"
      0 85 "HARD Red"
      0 86 "HARD Yellow"
      0 87 "HARD Blue"
      0 88 "HARD Orange"
      0 91 "----"
      0 116 "OVERDRIVE"
      0 40 "Left Hand Lowest"
      0 59 "Left Hand Highest"
      0 58 "-"
      0 57 "-"
      0 56 "-"
      0 55 "-"
      0 54 "-"
      0 53 "-"
      0 52 "-"
      0 51 "-"
      0 50 "-"
      0 49 "-"
      0 47 "-"
      0 48 "-"
      0 46 "-"
      0 45 "-"
      0 44 "-"
      0 43 "-"
      0 42 "-"
      0 41 "-"
      0 111 "----"
      0 72 "MEDIUM Green"
      0 73 "MEDIUM Red"
      0 74 "MEDIUM Yellow"
      0 75 "MEDIUM Blue"
      0 76 "MEDIUM Orange"
      0 60 "EASY Green"
      0 61 "EASY Red"
      0 62 "EASY Yellow"
      0 63 "EASY Blue"
      0 64 "EASY Orange"
      0 68 "----"
      0 80 "----"
      0 102 "Force HOPO Off"
      0 101 "Force HOPO On"
      0 120 "BRE (use all 5)"
      0 121 "BRE"
      0 122 "BRE"
      0 123 "BRE"
      0 124 "BRE"
      0 119 "----"
      0 90 "Force HOPO Off"
      0 89 "Force HOPO On"
      0 127 "Trill Marker"
      0 125 "----"
      0 103 "Solo Marker"
      0 126 "Strum Marker"
    >
    MAINSEND 1 0
    <FXCHAIN
      WNDRECT -977 556 878 585
      SHOW 0
      LASTSEL 1
      DOCKED 0
      BYPASS 1 0
      <VST "VSTi: ReaSynth (Cockos)" "reasynth.dll" 0 ""
        eXNlcu9e7f4AAAAAAgAAAAEAAAAAAAAAAgAAAAAAAAA4AAAAAAAAAA==
        AAAAAO++rd4N8K3eAAAAAAAAAAAAAAAAAAAAADm0SD59y9s+tbSxOQ==
        AAAAALbz/T5VpCs6AAAAAAAAAAAAAAAAAAA=
      >
      FLOATPOS 0 0 0 0
      FXID {D4EC3C58-478E-4D1F-A0FC-2252BD344989}
      WAK 0
      BYPASS 0 0
      <VST "VSTi: RBN Preview (RBN)" "rbprev_vst64_beta.dll" 0 ""
        dnBicu5e7f4AAAAAAgAAAAEAAAAAAAAAAgAAAAAAAAAEAAAAAQAAAA==
        AAAAAAMAqgAAAAAAAAA=
      >
      FLOATPOS 32 32 659 497
      FXID {72D22271-4F4F-4081-90C4-66415E7AEC47}
      WAK 0
    >
    <ITEM
      POSITION 0.00000000000000
      SNAPOFFS 0.00000000000000
      LENGTH 262.84614954630132
      LOOP 0
      ALLTAKES 0
      SEL 0
      FADEIN 1 0.000000 0.000000 1 0
      FADEOUT 1 0.000000 0.000000 1 0
      MUTE 0
      IGUID {A1B24BBF-93B7-476C-BC6D-33F5621C633F}
      IID 8
      NAME "PART BASS"
      VOLPAN 1.000000 0.000000 1.000000 -1.000000
      SOFFS 0.00000000000000 0.00000000000000
      PLAYRATE 1.00000000000000 1 0.00000000000000 -65536
      CHANMODE 0
      GUID {344A7487-35C3-41F9-8B1E-12A4F3D7F336}
      <SOURCE MIDI
        HASDATA 1 480 QN
        POOLEDEVTS {FD003246-D477-424C-A862-E399B835E027}
        <X 0 0
          /wNQQVJUIEJBU1M=
        >
        <X 3840 0
          /wFbaWRsZV0=
        >
        <X 1920 0
          /wFbbWVsbG93XQ==
        >
        E 0 90 3c 60
        E 0 90 49 60
        E 0 90 55 60
        E 0 90 61 60
        E 1440 80 3c 00
        E 0 80 49 00
        E 300 80 55 00
        E 0 80 61 00
        E 180 90 3e 60
        E 0 90 4b 60
        E 0 90 57 60
        E 0 90 63 60
        E 960 80 3e 00
        E 0 80 4b 00
        E 300 80 57 00
        E 0 80 63 00
        E 180 90 4a 60
        E 0 90 56 60
        E 0 90 62 60
        E 120 80 4a 00
        E 0 80 56 00
        E 180 80 62 00
        E 180 90 3c 60
        E 0 90 49 60
        E 0 90 55 60
        E 0 90 61 60
        E 1440 80 3c 00
        E 0 80 49 00
        E 300 80 55 00
        E 0 80 61 00
        E 180 90 3d 60
        E 0 90 4a 60
        E 0 90 56 60
        E 0 90 62 60
        E 480 80 3d 00
        E 0 80 4a 00
        E 300 80 56 00
        E 0 80 62 00
        E 180 90 3c 60
        E 0 90 48 60
        E 0 90 54 60
        E 0 90 60 60
        E 480 80 3c 00
        E 0 80 48 00
        E 300 80 54 00
        E 0 80 60 00
        E 180 90 3c 60
        E 0 90 49 60
        E 0 90 55 60
        E 0 90 61 60
        E 1440 80 3c 00
        E 0 80 49 00
        E 300 80 55 00
        E 0 80 61 00
        E 180 90 3e 60
        E 0 90 4b 60
        E 0 90 57 60
        E 0 90 63 60
        E 960 80 3e 00
        E 0 80 4b 00
        E 300 80 57 00
        E 0 80 63 00
        E 180 90 4a 60
        E 0 90 56 60
        E 0 90 62 60
        E 120 80 4a 00
        E 0 80 56 00
        E 180 80 62 00
        E 180 90 3c 60
        E 0 90 49 60
        E 0 90 55 60
        E 0 90 61 60
        E 1440 80 3c 00
        E 0 80 49 00
        E 300 80 55 00
        E 0 80 61 00
        E 180 90 3c 60
        E 0 90 49 60
        E 0 90 55 60
        E 0 90 61 60
        E 1440 80 3c 00
        E 0 80 49 00
        E 360 80 55 00
        E 60 80 61 00
        E 60 90 3c 60
        E 0 90 49 60
        E 0 90 55 60
        E 0 90 61 60
        E 0 90 74 58
        E 480 80 3c 00
        E 0 80 49 00
        E 360 80 55 00
        E 60 80 61 00
        E 60 90 3c 60
        E 0 90 49 60
        E 0 90 55 60
        E 0 90 61 60
        E 480 80 3c 00
        E 0 80 49 00
        E 300 80 55 00
        E 0 80 61 00
        E 120 80 74 00
        E 60 90 3d 60
        E 0 90 4a 60
        E 0 90 56 60
        E 0 90 62 60
        E 480 80 3d 00
        E 0 80 4a 00
        E 300 80 56 00
        E 0 80 62 00
        E 180 90 3e 60
        E 0 90 4b 60
        E 0 90 57 60
        E 0 90 63 60
        E 120 80 3e 00
        E 0 80 4b 00
        E 0 80 57 00
        E 180 80 63 00
        E 180 90 4a 60
        E 0 90 56 60
        E 0 90 62 60
        E 120 80 4a 00
        E 0 80 56 00
        E 180 80 62 00
        E 180 90 3c 60
        E 0 90 49 60
        E 0 90 55 60
        E 0 90 61 60
        E 120 80 3c 00
        E 0 80 49 00
        E 540 80 55 00
        E 60 80 61 00
        E 60 90 49 60
        E 0 90 55 60
        E 0 90 61 60
        E 120 80 49 00
        E 0 80 55 00
        E 120 80 61 00
        E 180 90 54 60
        E 0 90 60 60
        E 360 80 54 00
        E 60 80 60 00
        E 60 90 54 60
        E 0 90 60 60
        E 60 80 54 00
        E 0 80 60 00
        E 180 90 3c 60
        E 0 90 49 60
        E 0 90 55 60
        E 0 90 61 60
        E 480 80 3c 00
        E 0 80 49 00
        E 120 80 55 00
        E 60 80 61 00
        E 60 90 55 60
        E 0 90 61 60
        E 60 80 55 00
        E 0 80 61 00
        E 180 90 3c 60
        E 0 90 48 60
        E 0 90 54 60
        E 0 90 60 60
        E 60 80 3c 00
        E 0 80 48 00
        E 0 80 54 00
        E 0 80 60 00
        E 180 90 57 60
        E 0 90 63 60
        E 60 80 57 00
        E 0 80 63 00
        E 180 90 4b 60
        E 0 90 57 60
        E 0 90 63 60
        E 60 80 4b 00
        E 0 80 57 00
        E 0 80 63 00
        E 60 90 62 60
        E 60 80 62 00
        E 60 90 54 60
        E 0 90 60 60
        E 60 80 54 00
        E 0 80 60 00
        E 180 90 3c 60
        E 0 90 49 60
        E 0 90 55 60
        E 0 90 61 60
        E 480 80 3c 00
        E 0 80 49 00
        E 60 80 55 00
        E 0 80 61 00
        E 180 90 54 60
        E 0 90 60 60
        E 60 80 54 00
        E 0 80 60 00
        E 180 90 3c 60
        E 0 90 49 60
        E 0 90 55 60
        E 0 90 61 60
        E 480 80 3c 00
        E 0 80 49 00
        E 60 80 55 00
        E 0 80 61 00
        E 180 90 57 60
        E 0 90 63 60
        E 60 80 57 00
        E 0 80 63 00
        E 180 90 3d 60
        E 0 90 4a 60
        E 0 90 56 60
        E 0 90 62 60
        E 480 80 3d 00
        E 0 80 4a 00
        E 300 80 56 00
        E 0 80 62 00
        E 180 90 3e 60
        E 0 90 4b 60
        E 0 90 57 60
        E 0 90 63 60
        E 120 80 3e 00
        E 0 80 4b 00
        E 0 80 57 00
        E 180 80 63 00
        E 180 90 4a 60
        E 0 90 56 60
        E 0 90 62 60
        E 120 80 4a 00
        E 0 80 56 00
        E 180 80 62 00
        E 180 90 3c 60
        E 0 90 49 60
        E 0 90 55 60
        E 0 90 61 60
        E 180 90 74 58
        E 300 80 3c 00
        E 0 80 49 00
        E 240 80 55 00
        E 0 80 61 00
        E 60 90 61 60
        E 60 80 61 00
        E 120 90 3c 60
        E 0 90 48 60
        E 0 90 54 60
        E 0 90 60 60
        E 60 80 3c 00
        E 0 80 48 00
        E 0 80 54 00
        E 0 80 60 00
        E 180 90 48 60
        E 0 90 54 60
        E 0 90 60 60
        E 120 80 48 00
        E 0 80 54 00
        E 180 80 60 00
        E 180 90 56 60
        E 0 90 62 60
        E 60 80 56 00
        E 0 80 62 00
        E 180 90 3c 60
        E 0 90 49 60
        E 0 90 55 60
        E 0 90 61 60
        E 480 80 3c 00
        E 0 80 49 00
        E 60 80 55 00
        E 0 80 61 00
        E 180 90 54 60
        E 0 90 60 60
        E 60 80 54 00
        E 0 80 60 00
        E 180 90 3c 60
        E 0 90 49 60
        E 0 90 55 60
        E 0 90 61 60
        E 60 80 3c 00
        E 0 80 49 00
        E 0 80 55 00
        E 0 80 61 00
        E 180 90 55 60
        E 0 90 61 60
        E 60 80 55 00
        E 0 80 61 00
        E 180 90 4a 60
        E 0 90 56 60
        E 0 90 62 60
        E 60 80 4a 00
        E 0 80 56 00
        E 0 80 62 00
        E 180 90 57 60
        E 0 90 63 60
        E 60 80 57 00
        E 0 80 63 00
        E 180 90 3e 60
        E 0 90 4b 60
        E 0 90 57 60
        E 0 90 63 60
        E 59 80 74 00
        E 61 80 3e 00
        E 0 80 4b 00
        E 240 80 57 00
        E 60 80 63 00
        E 60 90 4c 60
        E 0 90 58 60
        E 0 90 64 60
        E 120 80 4c 00
        E 240 80 58 00
        E 0 80 64 00
        E 120 90 3e 60
        E 0 90 4b 60
        E 0 90 57 60
        E 0 90 63 60
        E 60 80 3e 00
        E 0 80 4b 00
        E 0 80 57 00
        E 0 80 63 00
        E 180 90 4b 60
        E 0 90 57 60
        E 0 90 63 60
        E 120 80 4b 00
        E 240 80 57 00
        E 60 80 63 00
        E 60 90 57 60
        E 0 90 63 60
        E 60 80 57 00
        E 0 80 63 00
        E 180 90 3c 60
        E 0 90 49 60
        E 0 90 55 60
        E 0 90 61 60
        E 120 80 3c 00
        E 0 80 49 00
        E 0 80 55 00
        E 180 80 61 00
        E 180 90 48 60
        E 0 90 54 60
        E 0 90 60 60
        E 120 80 48 00
        E 240 80 54 00
        E 60 80 60 00
        E 60 90 3c 58
        E 0 90 48 58
        E 0 90 54 58
        E 0 90 60 58
        E 60 80 3c 00
        E 0 80 48 00
        E 0 80 54 00
        E 0 80 60 00
        E 180 90 55 58
        E 0 90 61 58
        E 60 80 55 00
        E 0 80 61 00
        E 180 90 4b 58
        E 0 90 57 58
        E 0 90 63 58
        E 120 80 4b 00
        E 0 80 57 00
        E 180 80 63 00
        E 180 90 3d 58
        E 0 90 4a 58
        E 0 90 56 58
        E 0 90 62 58
        E 480 80 3d 00
        E 0 80 4a 00
        E 120 80 56 00
        E 60 80 62 00
        E 60 90 56 58
        E 0 90 62 58
        E 60 80 56 00
        E 0 80 62 00
        E 180 90 3e 58
        E 0 90 4b 58
        E 0 90 57 58
        E 0 90 63 58
        E 480 80 3e 00
        E 0 80 4b 00
        E 120 80 57 00
        E 60 80 63 00
        E 60 90 57 58
        E 0 90 63 58
        E 60 80 57 00
        E 0 80 63 00
        E 180 90 3c 58
        E 0 90 48 58
        E 0 90 54 58
        E 0 90 60 58
        E 120 80 3c 00
        E 0 80 48 00
        E 240 80 54 00
        E 60 80 60 00
        E 60 90 48 58
        E 0 90 54 58
        E 0 90 60 58
        E 60 80 48 00
        E 0 80 54 00
        E 0 80 60 00
        E 180 90 55 58
        E 0 90 61 58
        E 60 80 55 00
        E 0 80 61 00
        E 180 90 3d 58
        E 0 90 4a 58
        E 0 90 56 58
        E 0 90 62 58
        E 120 80 3d 00
        E 0 80 4a 00
        E 480 80 56 00
        E 0 80 62 00
        E 120 90 4a 58
        E 0 90 56 58
        E 0 90 62 58
        E 60 80 4a 00
        E 0 80 56 00
        E 0 80 62 00
        E 180 90 3d 58
        E 0 90 4a 58
        E 0 90 56 58
        E 0 90 62 58
        E 60 80 3d 00
        E 0 80 4a 00
        E 0 80 56 00
        E 0 80 62 00
        E 180 90 57 58
        E 0 90 63 58
        E 120 80 57 00
        E 180 80 63 00
        E 180 90 4a 58
        E 0 90 56 58
        E 0 90 62 58
        E 60 80 4a 00
        E 0 80 56 00
        E 0 80 62 00
        E 180 90 3d 58
        E 0 90 4a 58
        E 0 90 56 58
        E 0 90 62 58
        E 60 80 3d 00
        E 0 80 4a 00
        E 0 80 56 00
        E 0 80 62 00
        E 180 90 58 58
        E 0 90 64 58
        E 540 80 58 00
        E 0 80 64 00
        E 180 90 3d 58
        E 0 90 4a 58
        E 0 90 56 58
        E 0 90 62 58
        E 120 80 3d 00
        E 0 80 4a 00
        E 0 80 56 00
        E 180 80 62 00
        E 180 90 49 58
        E 0 90 55 58
        E 0 90 61 58
        E 120 80 49 00
        E 240 80 55 00
        E 60 80 61 00
        E 60 90 3c 58
        E 0 90 49 58
        E 0 90 55 58
        E 0 90 61 58
        E 60 80 3c 00
        E 0 80 49 00
        E 0 80 55 00
        E 0 80 61 00
        E 180 90 49 58
        E 0 90 55 58
        E 0 90 61 58
        E 120 80 49 00
        E 240 80 55 00
        E 60 80 61 00
        E 60 90 55 58
        E 0 90 61 58
        E 60 80 55 00
        E 0 80 61 00
        E 180 90 3c 58
        E 0 90 48 58
        E 0 90 54 58
        E 0 90 60 58
        E 480 80 3c 00
        E 0 80 48 00
        E 120 80 54 00
        E 60 80 60 00
        E 60 90 54 58
        E 0 90 60 58
        E 60 80 54 00
        E 0 80 60 00
        E 180 90 3d 58
        E 0 90 4a 58
        E 0 90 56 58
        E 0 90 62 58
        E 120 80 3d 00
        E 0 80 4a 00
        E 0 80 56 00
        E 180 80 62 00
        E 180 90 49 58
        E 0 90 55 58
        E 0 90 61 58
        E 120 80 49 00
        E 0 80 55 00
        E 180 80 61 00
        E 180 90 3c 58
        E 0 90 48 58
        E 0 90 54 58
        E 0 90 60 58
        E 480 80 3c 00
        E 0 80 48 00
        E 60 80 54 00
        E 0 80 60 00
        E 180 90 55 58
        E 0 90 61 58
        E 60 80 55 00
        E 0 80 61 00
        E 180 90 3d 58
        E 0 90 4a 58
        E 0 90 56 58
        E 0 90 62 58
        E 480 80 3d 00
        E 0 80 4a 00
        E 60 80 56 00
        E 0 80 62 00
        E 180 90 54 58
        E 0 90 60 58
        E 60 80 54 00
        E 0 80 60 00
        E 180 90 3c 60
        E 0 90 49 60
        E 0 90 55 60
        E 0 90 61 60
        E 1440 80 3c 00
        E 0 80 49 00
        E 300 80 55 00
        E 0 80 61 00
        E 180 90 3e 60
        E 0 90 4b 60
        E 0 90 57 60
        E 0 90 63 60
        E 960 80 3e 00
        E 0 80 4b 00
        E 300 80 57 00
        E 0 80 63 00
        E 180 90 4a 60
        E 0 90 56 60
        E 0 90 62 60
        E 120 80 4a 00
        E 0 80 56 00
        E 180 80 62 00
        E 180 90 3c 60
        E 0 90 49 60
        E 0 90 55 60
        E 0 90 61 60
        E 1440 80 3c 00
        E 0 80 49 00
        E 300 80 55 00
        E 0 80 61 00
        E 180 90 3d 60
        E 0 90 4a 60
        E 0 90 56 60
        E 0 90 62 60
        E 480 80 3d 00
        E 0 80 4a 00
        E 300 80 56 00
        E 0 80 62 00
        E 180 90 3c 60
        E 0 90 48 60
        E 0 90 54 60
        E 0 90 60 60
        E 480 80 3c 00
        E 0 80 48 00
        E 300 80 54 00
        E 0 80 60 00
        E 180 90 3c 60
        E 0 90 49 60
        E 0 90 55 60
        E 0 90 61 60
        E 300 90 74 66
        E 1140 80 3c 00
        E 0 80 49 00
        E 300 80 55 00
        E 0 80 61 00
        E 180 90 3e 60
        E 0 90 4b 60
        E 0 90 57 60
        E 0 90 63 60
        E 960 80 3e 00
        E 0 80 4b 00
        E 180 80 74 00
        E 120 80 57 00
        E 0 80 63 00
        E 180 90 4a 60
        E 0 90 56 60
        E 0 90 62 60
        E 120 80 4a 00
        E 0 80 56 00
        E 180 80 62 00
        E 180 90 3c 60
        E 0 90 49 60
        E 0 90 55 60
        E 0 90 61 60
        E 1440 80 3c 00
        E 0 80 49 00
        E 300 80 55 00
        E 0 80 61 00
        E 180 90 3c 60
        E 0 90 49 60
        E 0 90 55 60
        E 0 90 61 60
        E 1440 80 3c 00
        E 0 80 49 00
        E 360 80 55 00
        E 60 80 61 00
        E 60 90 3c 60
        E 0 90 49 60
        E 0 90 55 60
        E 0 90 61 60
        E 120 80 3c 00
        E 0 80 49 00
        E 480 80 55 00
        E 60 80 61 00
        E 60 90 49 58
        E 0 90 55 58
        E 0 90 61 58
        E 60 80 49 00
        E 0 80 55 00
        E 0 80 61 00
        E 180 90 3c 60
        E 0 90 49 60
        E 0 90 55 60
        E 0 90 61 60
        E 480 80 3c 00
        E 0 80 49 00
        E 60 80 55 00
        E 0 80 61 00
        E 180 90 57 60
        E 0 90 63 60
        E 60 80 57 00
        E 0 80 63 00
        E 180 90 3d 60
        E 0 90 4a 60
        E 0 90 56 60
        E 0 90 62 60
        E 120 80 3d 00
        E 0 80 4a 00
        E 420 80 56 00
        E 0 80 62 00
        E 180 90 49 60
        E 0 90 55 60
        E 0 90 61 60
        E 60 80 49 00
        E 0 80 55 00
        E 0 80 61 00
        E 180 90 3c 60
        E 0 90 49 60
        E 0 90 55 60
        E 0 90 61 60
        E 60 80 3c 00
        E 0 80 49 00
        E 0 80 55 00
        E 0 80 61 00
        E 180 90 56 60
        E 0 90 62 60
        E 60 80 56 00
        E 0 80 62 00
        E 180 90 4b 60
        E 0 90 57 60
        E 0 90 63 60
        E 60 80 4b 00
        E 0 80 57 00
        E 0 80 63 00
        E 180 90 56 60
        E 0 90 62 60
        E 60 80 56 00
        E 0 80 62 00
        E 180 90 3c 60
        E 0 90 49 60
        E 0 90 55 60
        E 0 90 61 60
        E 480 80 3c 00
        E 0 80 49 00
        E 240 80 55 00
        E 0 80 61 00
        E 60 90 61 60
        E 60 80 61 00
        E 120 90 3c 60
        E 0 90 48 60
        E 0 90 54 60
        E 0 90 60 60
        E 60 80 3c 00
        E 0 80 48 00
        E 0 80 54 00
        E 0 80 60 00
        E 180 90 48 60
        E 0 90 54 60
        E 0 90 60 60
        E 120 80 48 00
        E 0 80 54 00
        E 180 80 60 00
        E 180 90 56 60
        E 0 90 62 60
        E 60 80 56 00
        E 0 80 62 00
        E 120 90 61 60
        E 60 80 61 00
        E 0 90 3c 60
        E 0 90 49 60
        E 0 90 55 60
        E 0 90 61 60
        E 60 80 3c 00
        E 0 80 49 00
        E 0 80 55 00
        E 0 80 61 00
        E 180 90 49 60
        E 0 90 55 60
        E 0 90 61 60
        E 120 80 49 00
        E 240 80 55 00
        E 60 80 61 00
        E 60 90 55 60
        E 0 90 61 60
        E 60 80 55 00
        E 0 80 61 00
        E 180 90 3c 60
        E 0 90 48 60
        E 0 90 54 60
        E 0 90 60 60
        E 60 80 3c 00
        E 0 80 48 00
        E 0 80 54 00
        E 0 80 60 00
        E 180 90 48 60
        E 0 90 54 60
        E 0 90 60 60
        E 120 80 48 00
        E 0 80 54 00
        E 180 80 60 00
        E 120 90 57 60
        E 0 90 63 60
        E 60 80 57 00
        E 0 80 63 00
        E 60 90 62 60
        E 60 80 62 00
        E 120 90 3d 60
        E 0 90 4a 60
        E 0 90 56 60
        E 0 90 62 60
        E 180 90 74 66
        E 300 80 3d 00
        E 0 80 4a 00
        E 60 80 56 00
        E 0 80 62 00
        E 180 90 54 60
        E 0 90 60 60
        E 60 80 54 00
        E 0 80 60 00
        E 180 90 3c 60
        E 0 90 49 60
        E 0 90 55 60
        E 0 90 61 60
        E 60 80 3c 00
        E 0 80 49 00
        E 0 80 55 00
        E 0 80 61 00
        E 180 90 55 60
        E 0 90 61 60
        E 60 80 55 00
        E 0 80 61 00
        E 180 90 4a 60
        E 0 90 56 60
        E 0 90 62 60
        E 60 80 4a 00
        E 0 80 56 00
        E 0 80 62 00
        E 180 90 56 60
        E 0 90 62 60
        E 60 80 56 00
        E 0 80 62 00
        E 180 90 3e 60
        E 0 90 4b 60
        E 0 90 57 60
        E 0 90 63 60
        E 480 80 3e 00
        E 0 80 4b 00
        E 60 80 57 00
        E 0 80 63 00
        E 180 90 56 60
        E 0 90 62 60
        E 60 80 56 00
        E 0 80 62 00
        E 180 90 3e 60
        E 0 90 4b 60
        E 0 90 57 60
        E 0 90 63 60
        E 60 80 74 00
        E 60 80 3e 00
        E 0 80 4b 00
        E 0 80 57 00
        E 180 80 63 00
        E 180 90 4a 60
        E 0 90 56 60
        E 0 90 62 60
        E 120 80 4a 00
        E 0 80 56 00
        E 180 80 62 00
        E 180 90 3c 60
        E 0 90 49 60
        E 0 90 55 60
        E 0 90 61 60
        E 480 80 3c 00
        E 0 80 49 00
        E 120 80 55 00
        E 60 80 61 00
        E 60 90 55 60
        E 0 90 61 60
        E 60 80 55 00
        E 0 80 61 00
        E 180 90 3c 60
        E 0 90 48 60
        E 0 90 54 60
        E 0 90 60 60
        E 60 80 3c 00
        E 0 80 48 00
        E 0 80 54 00
        E 0 80 60 00
        E 180 90 48 60
        E 0 90 54 60
        E 0 90 60 60
        E 60 80 48 00
        E 0 80 54 00
        E 0 80 60 00
        E 300 90 60 60
        E 60 80 60 00
        E 60 90 49 60
        E 0 90 55 60
        E 0 90 61 60
        E 60 80 49 00
        E 0 80 55 00
        E 0 80 61 00
        E 120 90 60 60
        E 60 80 60 00
        E 0 90 3c 60
        E 0 90 49 60
        E 0 90 55 60
        E 0 90 61 60
        E 420 80 3c 00
        E 0 80 49 00
        E 300 80 55 00
        E 0 80 61 00
        E 180 90 48 60
        E 0 90 54 60
        E 0 90 60 60
        E 60 80 48 00
        E 0 80 54 00
        E 0 80 60 00
        E 60 90 61 60
        E 60 80 61 00
        E 120 90 55 60
        E 0 90 61 60
        E 60 80 55 00
        E 0 80 61 00
        E 180 90 4a 60
        E 0 90 56 60
        E 0 90 62 60
        E 60 80 4a 00
        E 0 80 56 00
        E 0 80 62 00
        E 180 90 56 60
        E 0 90 62 60
        E 60 80 56 00
        E 0 80 62 00
        E 180 90 3e 60
        E 0 90 4b 60
        E 0 90 57 60
        E 0 90 63 60
        E 120 80 3e 00
        E 0 80 4b 00
        E 240 80 57 00
        E 60 80 63 00
        E 60 90 3e 60
        E 0 90 4b 60
        E 0 90 57 60
        E 0 90 63 60
        E 120 80 3e 00
        E 0 80 4b 00
        E 0 80 57 00
        E 240 80 63 00
        E 60 90 57 60
        E 0 90 63 60
        E 60 80 57 00
        E 0 80 63 00
        E 60 90 64 60
        E 60 80 64 00
        E 120 90 4c 60
        E 0 90 58 60
        E 0 90 64 60
        E 120 80 4c 00
        E 0 80 58 00
        E 180 80 64 00
        E 180 90 57 60
        E 0 90 63 60
        E 60 80 57 00
        E 0 80 63 00
        E 180 90 3d 60
        E 0 90 4a 60
        E 0 90 56 60
        E 0 90 62 60
        E 120 80 3d 00
        E 0 80 4a 00
        E 0 80 56 00
        E 180 80 62 00
        E 180 90 49 60
        E 0 90 55 60
        E 0 90 61 60
        E 120 80 49 00
        E 240 80 55 00
        E 60 80 61 00
        E 60 90 3c 60
        E 0 90 49 60
        E 0 90 55 60
        E 0 90 61 60
        E 60 80 3c 00
        E 0 80 49 00
        E 0 80 55 00
        E 0 80 61 00
        E 180 90 56 60
        E 0 90 62 60
        E 60 80 56 00
        E 0 80 62 00
        E 180 90 4b 60
        E 0 90 57 60
        E 0 90 63 60
        E 120 80 4b 00
        E 240 80 57 00
        E 60 80 63 00
        E 60 90 3e 60
        E 0 90 4b 60
        E 0 90 57 60
        E 0 90 63 60
        E 60 80 3e 00
        E 0 80 4b 00
        E 0 80 57 00
        E 0 80 63 00
        E 180 90 58 60
        E 0 90 64 60
        E 360 80 58 00
        E 60 80 64 00
        E 60 90 4b 60
        E 0 90 57 60
        E 0 90 63 60
        E 60 80 4b 00
        E 0 80 57 00
        E 0 80 63 00
        E 180 90 3e 60
        E 0 90 4b 60
        E 0 90 57 60
        E 0 90 63 60
        E 60 80 3e 00
        E 0 80 4b 00
        E 0 80 57 00
        E 0 80 63 00
        E 180 90 58 60
        E 0 90 64 60
        E 540 80 58 00
        E 0 80 64 00
        E 180 90 3c 60
        E 0 90 49 60
        E 0 90 55 60
        E 0 90 61 60
        E 120 80 3c 00
        E 0 80 49 00
        E 240 80 55 00
        E 60 80 61 00
        E 60 90 49 60
        E 0 90 55 60
        E 0 90 61 60
        E 60 80 49 00
        E 0 80 55 00
        E 0 80 61 00
        E 180 90 55 60
        E 0 90 61 60
        E 60 80 55 00
        E 0 80 61 00
        E 180 90 3d 60
        E 0 90 4a 60
        E 0 90 56 60
        E 0 90 62 60
        E 480 80 3d 00
        E 0 80 4a 00
        E 120 80 56 00
        E 60 80 62 00
        E 60 90 56 60
        E 0 90 62 60
        E 60 80 56 00
        E 0 80 62 00
        E 180 90 3e 60
        E 0 90 4b 60
        E 0 90 57 60
        E 0 90 63 60
        E 60 80 3e 00
        E 0 80 4b 00
        E 0 80 57 00
        E 0 80 63 00
        E 180 90 58 60
        E 0 90 64 60
        E 360 80 58 00
        E 60 80 64 00
        E 60 90 4b 60
        E 0 90 57 60
        E 0 90 63 60
        E 60 80 4b 00
        E 0 80 57 00
        E 0 80 63 00
        E 180 90 3e 60
        E 0 90 4b 60
        E 0 90 57 60
        E 0 90 63 60
        E 60 80 3e 00
        E 0 80 4b 00
        E 0 80 57 00
        E 0 80 63 00
        E 180 90 58 60
        E 0 90 64 60
        E 540 80 58 00
        E 0 80 64 00
        E 180 90 3c 60
        E 0 90 49 60
        E 0 90 55 60
        E 0 90 61 60
        E 0 90 74 58
        E 120 80 3c 00
        E 0 80 49 00
        E 240 80 55 00
        E 60 80 61 00
        E 60 90 3c 60
        E 0 90 49 60
        E 0 90 55 60
        E 0 90 61 60
        E 120 80 3c 00
        E 0 80 49 00
        E 240 80 55 00
        E 60 80 61 00
        E 60 90 3c 60
        E 0 90 49 60
        E 0 90 55 60
        E 0 90 61 60
        E 480 80 3c 00
        E 0 80 49 00
        E 120 80 55 00
        E 60 80 61 00
        E 60 90 55 60
        E 0 90 61 60
        E 60 80 74 00
        E 0 80 55 00
        E 0 80 61 00
        E 180 90 3c 60
        E 0 90 48 60
        E 0 90 54 60
        E 0 90 60 60
        E 480 80 3c 00
        E 0 80 48 00
        E 120 80 54 00
        E 60 80 60 00
        E 60 90 54 60
        E 0 90 60 60
        E 60 80 54 00
        E 0 80 60 00
        E 180 90 3e 60
        E 0 90 4b 60
        E 0 90 57 60
        E 0 90 63 60
        E 120 80 3e 00
        E 0 80 4b 00
        E 0 80 57 00
        E 180 80 63 00
        E 180 90 4a 60
        E 0 90 56 60
        E 0 90 62 60
        E 120 80 4a 00
        E 0 80 56 00
        E 180 80 62 00
        E 180 90 3c 60
        E 0 90 49 60
        E 0 90 55 60
        E 0 90 61 60
        E 480 80 3c 00
        E 0 80 49 00
        E 60 80 55 00
        E 0 80 61 00
        E 180 90 56 60
        E 0 90 62 60
        E 60 80 56 00
        E 0 80 62 00
        E 180 90 3e 60
        E 0 90 4b 60
        E 0 90 57 60
        E 0 90 63 60
        E 480 80 3e 00
        E 0 80 4b 00
        E 120 80 57 00
        E 60 80 63 00
        E 60 90 57 60
        E 0 90 63 60
        E 60 80 57 00
        E 0 80 63 00
        E 180 90 3d 60
        E 0 90 4a 60
        E 0 90 56 60
        E 0 90 62 60
        E 480 80 3d 00
        E 0 80 4a 00
        E 60 80 56 00
        E 0 80 62 00
        E 180 90 54 60
        E 0 90 60 60
        E 60 80 54 00
        E 0 80 60 00
        E 180 90 3c 60
        E 0 90 49 60
        E 0 90 55 60
        E 0 90 61 60
        E 60 80 3c 00
        E 0 80 49 00
        E 0 80 55 00
        E 0 80 61 00
        E 180 90 55 60
        E 0 90 61 60
        E 60 80 55 00
        E 0 80 61 00
        E 180 90 4a 60
        E 0 90 56 60
        E 0 90 62 60
        E 60 80 4a 00
        E 0 80 56 00
        E 0 80 62 00
        E 180 90 56 60
        E 0 90 62 60
        E 60 80 56 00
        E 0 80 62 00
        E 180 90 3e 60
        E 0 90 4b 60
        E 0 90 57 60
        E 0 90 63 60
        E 480 80 3e 00
        E 0 80 4b 00
        E 60 80 57 00
        E 0 80 63 00
        E 180 90 56 60
        E 0 90 62 60
        E 60 80 56 00
        E 0 80 62 00
        E 180 90 3e 60
        E 0 90 4b 60
        E 0 90 57 60
        E 0 90 63 60
        E 60 80 3e 00
        E 0 80 4b 00
        E 0 80 57 00
        E 0 80 63 00
        E 180 90 57 60
        E 0 90 63 60
        E 60 80 57 00
        E 0 80 63 00
        E 180 90 4a 60
        E 0 90 56 60
        E 0 90 62 60
        E 60 80 4a 00
        E 0 80 56 00
        E 0 80 62 00
        E 180 90 56 60
        E 0 90 62 60
        E 60 80 56 00
        E 0 80 62 00
        E 180 90 3c 60
        E 0 90 49 60
        E 0 90 55 60
        E 0 90 61 60
        E 480 80 3c 00
        E 0 80 49 00
        E 120 80 55 00
        E 60 80 61 00
        E 60 90 55 60
        E 0 90 61 60
        E 60 80 55 00
        E 0 80 61 00
        E 180 90 3c 60
        E 0 90 48 60
        E 0 90 54 60
        E 0 90 60 60
        E 60 80 3c 00
        E 0 80 48 00
        E 0 80 54 00
        E 0 80 60 00
        E 180 90 48 60
        E 0 90 54 60
        E 0 90 60 60
        E 120 80 48 00
        E 0 80 54 00
        E 180 80 60 00
        E 180 90 4a 60
        E 0 90 56 60
        E 0 90 62 60
        E 60 80 4a 00
        E 0 80 56 00
        E 0 80 62 00
        E 180 90 3d 60
        E 0 90 4a 60
        E 0 90 56 60
        E 0 90 62 60
        E 0 90 74 58
        E 480 80 3d 00
        E 0 80 4a 00
        E 120 80 56 00
        E 60 80 62 00
        E 60 90 56 60
        E 0 90 62 60
        E 60 80 56 00
        E 0 80 62 00
        E 180 90 3c 60
        E 0 90 49 60
        E 0 90 55 60
        E 0 90 61 60
        E 60 80 3c 00
        E 0 80 49 00
        E 0 80 55 00
        E 0 80 61 00
        E 180 90 56 60
        E 0 90 62 60
        E 60 80 56 00
        E 0 80 62 00
        E 180 90 4b 60
        E 0 90 57 60
        E 0 90 63 60
        E 120 80 4b 00
        E 0 80 57 00
        E 180 80 63 00
        E 60 80 74 00
        E 120 90 3d 60
        E 0 90 4a 60
        E 0 90 56 60
        E 0 90 62 60
        E 480 80 3d 00
        E 0 80 4a 00
        E 60 80 56 00
        E 0 80 62 00
        E 180 90 54 60
        E 0 90 60 60
        E 60 80 54 00
        E 0 80 60 00
        E 180 90 3c 60
        E 0 90 49 60
        E 0 90 55 60
        E 0 90 61 60
        E 120 80 3c 00
        E 0 80 49 00
        E 0 80 55 00
        E 180 80 61 00
        E 180 90 4a 60
        E 0 90 56 60
        E 0 90 62 60
        E 60 80 4a 00
        E 0 80 56 00
        E 0 80 62 00
        E 180 90 56 60
        E 0 90 62 60
        E 60 80 56 00
        E 0 80 62 00
        E 180 90 3e 60
        E 0 90 4b 60
        E 0 90 57 60
        E 0 90 63 60
        E 480 80 3e 00
        E 0 80 4b 00
        E 360 80 57 00
        E 60 80 63 00
        E 60 90 3e 60
        E 0 90 4b 60
        E 0 90 57 60
        E 0 90 63 60
        E 120 80 3e 00
        E 0 80 4b 00
        E 0 80 57 00
        E 180 80 63 00
        E 180 90 4a 60
        E 0 90 56 60
        E 0 90 62 60
        E 120 80 4a 00
        E 0 80 56 00
        E 180 80 62 00
        E 180 90 3c 60
        E 0 90 49 60
        E 0 90 55 60
        E 0 90 61 60
        E 480 80 3c 00
        E 0 80 49 00
        E 120 80 55 00
        E 60 80 61 00
        E 60 90 55 60
        E 0 90 61 60
        E 60 80 55 00
        E 0 80 61 00
        E 180 90 3c 60
        E 0 90 48 60
        E 0 90 54 60
        E 0 90 60 60
        E 60 80 3c 00
        E 0 80 48 00
        E 0 80 54 00
        E 0 80 60 00
        E 180 90 48 60
        E 0 90 54 60
        E 0 90 60 60
        E 120 80 48 00
        E 0 80 54 00
        E 180 80 60 00
        E 180 90 49 60
        E 0 90 55 60
        E 0 90 61 60
        E 60 80 49 00
        E 0 80 55 00
        E 0 80 61 00
        E 180 90 3c 60
        E 0 90 49 60
        E 0 90 55 60
        E 0 90 61 60
        E 480 80 3c 00
        E 0 80 49 00
        E 60 80 55 00
        E 0 80 61 00
        E 180 90 54 60
        E 0 90 60 60
        E 60 80 54 00
        E 0 80 60 00
        E 180 90 3c 60
        E 0 90 49 60
        E 0 90 55 60
        E 0 90 61 60
        E 60 80 3c 00
        E 0 80 49 00
        E 0 80 55 00
        E 0 80 61 00
        E 180 90 55 60
        E 0 90 61 60
        E 60 80 55 00
        E 0 80 61 00
        E 180 90 4a 60
        E 0 90 56 60
        E 0 90 62 60
        E 60 80 4a 00
        E 0 80 56 00
        E 0 80 62 00
        E 180 90 56 60
        E 0 90 62 60
        E 60 80 56 00
        E 0 80 62 00
        E 180 90 3e 60
        E 0 90 4b 60
        E 0 90 57 60
        E 0 90 63 60
        E 480 80 3e 00
        E 0 80 4b 00
        E 120 80 57 00
        E 60 80 63 00
        E 60 90 57 60
        E 0 90 63 60
        E 60 80 57 00
        E 0 80 63 00
        E 180 90 40 60
        E 0 90 4c 60
        E 0 90 58 60
        E 0 90 64 60
        E 60 80 40 00
        E 0 80 4c 00
        E 0 80 58 00
        E 0 80 64 00
        E 180 90 4c 60
        E 0 90 58 60
        E 0 90 64 60
        E 120 80 4c 00
        E 0 80 58 00
        E 180 80 64 00
        E 180 90 57 60
        E 0 90 63 60
        E 60 80 57 00
        E 0 80 63 00
        E 180 90 3d 60
        E 0 90 4a 60
        E 0 90 56 60
        E 0 90 62 60
        E 120 80 3d 00
        E 0 80 4a 00
        E 0 80 56 00
        E 180 80 62 00
        E 180 90 49 60
        E 0 90 55 60
        E 0 90 61 60
        E 120 80 49 00
        E 240 80 55 00
        E 60 80 61 00
        E 60 90 3c 60
        E 0 90 49 60
        E 0 90 55 60
        E 0 90 61 60
        E 480 80 3c 00
        E 0 80 49 00
        E 120 80 55 00
        E 60 80 61 00
        E 60 90 55 60
        E 0 90 61 60
        E 60 80 55 00
        E 0 80 61 00
        E 180 90 3c 60
        E 0 90 48 60
        E 0 90 54 60
        E 0 90 60 60
        E 120 80 3c 00
        E 0 80 48 00
        E 180 90 74 66
        E 240 80 54 00
        E 0 80 60 00
        E 180 90 49 60
        E 0 90 55 60
        E 0 90 61 60
        E 60 80 49 00
        E 0 80 55 00
        E 0 80 61 00
        E 180 90 3c 60
        E 0 90 49 60
        E 0 90 55 60
        E 0 90 61 60
        E 60 80 3c 00
        E 0 80 49 00
        E 0 80 55 00
        E 0 80 61 00
        E 180 90 56 60
        E 0 90 62 60
        E 60 80 56 00
        E 0 80 62 00
        E 180 90 4b 60
        E 0 90 57 60
        E 0 90 63 60
        E 120 80 4b 00
        E 0 80 57 00
        E 180 80 63 00
        E 180 90 3c 60
        E 0 90 49 60
        E 0 90 55 60
        E 0 90 61 60
        E 60 80 3c 00
        E 0 80 49 00
        E 0 80 55 00
        E 0 80 61 00
        E 180 90 57 60
        E 0 90 63 60
        E 120 80 57 00
        E 180 80 63 00
        E 180 90 55 60
        E 0 90 61 60
        E 60 80 55 00
        E 0 80 61 00
        E 179 90 3d 60
        E 0 90 4a 60
        E 0 90 56 60
        E 0 90 62 60
        E 481 80 3d 00
        E 0 80 4a 00
        E 119 80 56 00
        E 60 80 62 00
        E 60 90 56 60
        E 0 90 62 60
        E 60 80 56 00
        E 0 80 62 00
        E 121 80 74 00
        E 60 90 3e 60
        E 0 90 4b 60
        E 0 90 57 60
        E 0 90 63 60
        E 60 80 3e 00
        E 0 80 4b 00
        E 0 80 57 00
        E 0 80 63 00
        E 180 90 58 60
        E 0 90 64 60
        E 120 80 58 00
        E 180 80 64 00
        E 180 90 4b 60
        E 0 90 57 60
        E 0 90 63 60
        E 60 80 4b 00
        E 0 80 57 00
        E 0 80 63 00
        E 180 90 3e 60
        E 0 90 4b 60
        E 0 90 57 60
        E 0 90 63 60
        E 60 80 3e 00
        E 0 80 4b 00
        E 0 80 57 00
        E 0 80 63 00
        E 180 90 58 60
        E 0 90 64 60
        E 120 80 58 00
        E 180 80 64 00
        E 180 90 56 60
        E 0 90 62 60
        E 60 80 56 00
        E 0 80 62 00
        E 180 90 3c 60
        E 0 90 49 60
        E 0 90 55 60
        E 0 90 61 60
        E 120 80 3c 00
        E 0 80 49 00
        E 239 80 55 00
        E 60 80 61 00
        E 60 90 49 60
        E 0 90 55 60
        E 0 90 61 60
        E 120 80 49 00
        E 240 80 55 00
        E 60 80 61 00
        E 60 90 3c 60
        E 0 90 49 60
        E 0 90 55 60
        E 0 90 61 60
        E 61 80 3c 00
        E 0 80 49 00
        E 0 80 55 00
        E 0 80 61 00
        E 180 90 57 60
        E 0 90 63 60
        E 540 80 57 00
        E 0 80 63 00
        E 179 90 3c 60
        E 0 90 48 60
        E 0 90 54 60
        E 0 90 60 60
        E 120 80 3c 00
        E 0 80 48 00
        E 240 80 54 00
        E 61 80 60 00
        E 59 90 48 60
        E 0 90 54 60
        E 0 90 60 60
        E 120 80 48 00
        E 0 80 54 00
        E 181 80 60 00
        E 179 90 3e 60
        E 0 90 4b 60
        E 0 90 57 60
        E 0 90 63 60
        E 120 80 3e 00
        E 0 80 4b 00
        E 0 80 57 00
        E 180 80 63 00
        E 180 90 4a 60
        E 0 90 56 60
        E 0 90 62 60
        E 120 80 4a 00
        E 0 80 56 00
        E 180 80 62 00
        E 180 90 3c 60
        E 0 90 49 60
        E 0 90 55 60
        E 0 90 61 60
        E 61 80 3c 00
        E 0 80 49 00
        E 0 80 55 00
        E 0 80 61 00
        E 180 90 56 60
        E 0 90 62 60
        E 60 80 56 00
        E 0 80 62 00
        E 180 90 4b 60
        E 0 90 57 60
        E 0 90 63 60
        E 60 80 4b 00
        E 0 80 57 00
        E 0 80 63 00
        E 179 90 56 60
        E 0 90 62 60
        E 60 80 56 00
        E 0 80 62 00
        E 61 90 61 60
        E 61 80 61 00
        E 59 90 3d 60
        E 0 90 4a 60
        E 0 90 56 60
        E 0 90 62 60
        E 60 80 3d 00
        E 0 80 4a 00
        E 0 80 56 00
        E 0 80 62 00
        E 180 90 4a 60
        E 0 90 56 60
        E 0 90 62 60
        E 60 80 4a 00
        E 0 80 56 00
        E 0 80 62 00
        E 180 90 4a 60
        E 0 90 56 60
        E 0 90 62 60
        E 60 80 4a 00
        E 0 80 56 00
        E 0 80 62 00
        E 179 90 55 60
        E 0 90 61 60
        E 60 80 55 00
        E 0 80 61 00
        E 180 90 3d 60
        E 0 90 4a 60
        E 0 90 56 60
        E 0 90 62 60
        E 60 80 3d 00
        E 0 80 4a 00
        E 0 80 56 00
        E 0 80 62 00
        E 301 90 56 60
        E 0 90 61 60
        E 60 80 61 00
        E 60 90 62 60
        E 240 80 56 00
        E 60 80 62 00
        E 60 90 49 60
        E 0 90 55 60
        E 0 90 62 60
        E 60 80 62 00
        E 60 80 49 00
        E 0 80 55 00
        E 0 90 61 60
        E 60 80 61 00
        E 180 90 54 60
        E 0 90 60 60
        E 60 80 54 00
        E 0 80 60 00
        E 180 90 3c 60
        E 0 90 48 60
        E 0 90 54 60
        E 0 90 60 60
        E 60 80 3c 00
        E 0 80 48 00
        E 0 80 54 00
        E 0 80 60 00
        E 180 90 48 60
        E 0 90 54 60
        E 0 90 60 60
        E 60 80 48 00
        E 0 80 54 00
        E 0 80 60 00
        E 180 90 3c 60
        E 0 90 48 60
        E 0 90 54 60
        E 0 90 60 60
        E 60 80 3c 00
        E 0 80 48 00
        E 0 80 54 00
        E 0 80 60 00
        E 180 90 54 60
        E 0 90 60 60
        E 60 80 54 00
        E 0 80 60 00
        E 60 90 61 60
        E 60 80 61 00
        E 60 90 49 60
        E 0 90 55 60
        E 0 90 61 60
        E 60 80 49 00
        E 0 80 55 00
        E 0 80 61 00
        E 180 90 55 60
        E 0 90 61 60
        E 60 80 55 00
        E 0 80 61 00
        E 180 90 3e 60
        E 0 90 4b 60
        E 0 90 57 60
        E 0 90 63 60
        E 60 80 3e 00
        E 0 80 4b 00
        E 0 80 57 00
        E 0 80 63 00
        E 180 90 56 60
        E 0 90 62 60
        E 60 80 56 00
        E 0 80 62 00
        E 60 90 61 60
        E 60 80 61 00
        E 60 90 48 60
        E 0 90 54 60
        E 0 90 60 60
        E 60 80 48 00
        E 0 80 54 00
        E 0 80 60 00
        E 180 90 48 60
        E 0 90 54 60
        E 0 90 60 60
        E 60 80 48 00
        E 0 80 54 00
        E 0 80 60 00
        E 180 90 3c 60
        E 0 90 48 60
        E 0 90 54 60
        E 0 90 60 60
        E 60 80 3c 00
        E 0 80 48 00
        E 0 80 54 00
        E 0 80 60 00
        E 180 90 54 60
        E 0 90 60 60
        E 60 80 54 00
        E 0 80 60 00
        E 180 90 4a 60
        E 0 90 56 60
        E 0 90 62 60
        E 60 80 4a 00
        E 0 80 56 00
        E 0 80 62 00
        E 90 90 61 60
        E 30 80 61 00
        E 60 90 56 60
        E 0 90 62 60
        E 60 80 56 00
        E 0 80 62 00
        E 180 90 3c 60
        E 0 90 48 60
        E 0 90 54 60
        E 0 90 60 60
        E 60 80 3c 00
        E 0 80 48 00
        E 0 80 54 00
        E 0 80 60 00
        E 180 90 48 60
        E 0 90 54 60
        E 0 90 60 60
        E 60 80 48 00
        E 0 80 54 00
        E 0 80 60 00
        E 180 90 48 60
        E 0 90 54 60
        E 0 90 60 60
        E 60 80 48 00
        E 0 80 54 00
        E 0 80 60 00
        E 60 90 61 60
        E 60 80 61 00
        E 60 90 54 60
        E 0 90 60 60
        E 60 80 54 00
        E 0 80 60 00
        E 60 90 61 60
        E 60 80 61 00
        E 60 90 3d 60
        E 0 90 4a 60
        E 0 90 56 60
        E 0 90 62 60
        E 60 80 3d 00
        E 0 80 4a 00
        E 0 80 56 00
        E 0 80 62 00
        E 180 90 4a 60
        E 0 90 56 60
        E 0 90 62 60
        E 120 80 4a 00
        E 0 80 56 00
        E 180 80 62 00
        E 120 90 54 60
        E 0 90 60 60
        E 60 80 54 00
        E 0 80 60 00
        E 60 90 61 60
        E 60 80 61 00
        E 60 90 48 60
        E 0 90 54 60
        E 0 90 60 60
        E 60 80 48 00
        E 0 80 54 00
        E 0 80 60 00
        E 60 90 61 60
        E 60 80 61 00
        E 60 90 56 60
        E 0 90 62 60
        E 60 80 56 00
        E 0 80 62 00
        E 180 90 4a 60
        E 0 90 56 60
        E 0 90 62 60
        E 60 80 4a 00
        E 0 80 56 00
        E 0 80 62 00
        E 180 90 60 60
        E 60 80 60 00
        E 0 90 55 60
        E 0 90 61 60
        E 60 80 55 00
        E 0 80 61 00
        E 120 90 60 60
        E 60 80 60 00
        E 0 90 3c 60
        E 0 90 49 60
        E 0 90 55 60
        E 0 90 61 60
        E 60 80 3c 00
        E 0 80 49 00
        E 0 80 55 00
        E 0 80 61 00
        E 180 90 49 60
        E 0 90 55 60
        E 0 90 61 60
        E 60 80 49 00
        E 0 80 55 00
        E 0 80 61 00
        E 360 90 54 60
        E 0 90 60 60
        E 60 80 54 00
        E 0 80 60 00
        E 60 90 61 60
        E 60 80 61 00
        E 60 90 4a 60
        E 0 90 56 60
        E 0 90 62 60
        E 60 80 4a 00
        E 0 80 56 00
        E 0 80 62 00
        E 120 90 60 60
        E 300 80 60 00
        E 60 90 3c 60
        E 0 90 48 60
        E 0 90 54 60
        E 0 90 60 60
        E 60 80 3c 00
        E 0 80 48 00
        E 0 80 54 00
        E 0 80 60 00
        E 180 90 55 60
        E 0 90 61 60
        E 60 80 55 00
        E 0 80 61 00
        E 180 90 3c 60
        E 0 90 48 60
        E 0 90 54 60
        E 0 90 60 60
        E 60 80 3c 00
        E 0 80 48 00
        E 0 80 54 00
        E 0 80 60 00
        E 360 90 56 60
        E 0 90 61 60
        E 60 80 61 00
        E 0 90 62 60
        E 60 80 56 00
        E 0 80 62 00
        E 180 90 4b 60
        E 0 90 57 60
        E 0 90 63 60
        E 120 80 4b 00
        E 0 80 57 00
        E 180 80 63 00
        E 180 90 56 60
        E 0 90 62 60
        E 60 80 56 00
        E 0 80 62 00
        E 180 90 3c 60
        E 0 90 49 60
        E 0 90 55 60
        E 0 90 61 60
        E 60 80 3c 00
        E 0 80 49 00
        E 0 80 55 00
        E 0 80 61 00
        E 180 90 49 60
        E 0 90 55 60
        E 0 90 61 60
        E 60 80 49 00
        E 0 80 55 00
        E 0 80 61 00
        E 180 90 3c 60
        E 0 90 49 60
        E 0 90 55 60
        E 0 90 61 60
        E 60 80 3c 00
        E 0 80 49 00
        E 0 80 55 00
        E 0 80 61 00
        E 180 90 56 60
        E 0 90 62 60
        E 60 80 56 00
        E 0 80 62 00
        E 120 90 61 60
        E 60 80 61 00
        E 0 90 48 60
        E 0 90 54 60
        E 0 90 60 60
        E 60 80 48 00
        E 0 80 54 00
        E 0 80 60 00
        E 180 90 54 60
        E 0 90 60 60
        E 60 80 54 00
        E 0 80 60 00
        E 180 90 3d 60
        E 0 90 4a 60
        E 0 90 56 60
        E 0 90 62 60
        E 60 80 3d 00
        E 0 80 4a 00
        E 0 80 56 00
        E 0 80 62 00
        E 180 90 55 60
        E 0 90 61 60
        E 60 80 55 00
        E 0 80 61 00
        E 60 90 62 60
        E 60 80 62 00
        E 60 90 49 60
        E 0 90 55 60
        E 0 90 61 60
        E 60 80 49 00
        E 0 80 55 00
        E 0 80 61 00
        <X 480 0
          /wFbaWRsZV9yZWFsdGltZV0=
        >
        E 38340 b0 7b 00
        GUID {54A57D35-811F-42A6-AB75-F5706122F903}
        IGNTEMPO 0 120.00000000 4 4
        SRCCOLOR 1179
        VELLANE 132 128 60
        COLORMAP "C:\Users\wejaa\AppData\Roaming\REAPER\Data\color_maps\rockband_guitarbass.png"
        TEXTSTRINGFILE "Text Events List.txt"
        CFGEDITVIEW 134557.640453 128.262729 0 10 0 0 0
        CFGEDIT 1 1 0 0 0 1 1 1 1 1 1 0.12500000 -8 -8 1370 736 1 2 1 2 0.00000000 0 0 0 0 0.500000 1 0 1.000000 64
        KEYSNAP 0 0 "102034050607" 0 "Major"
        EVTFILTER 0 -1 -1 -1 -1 0 1 0 0 -1.00000000 -1.00000000
      >
    >
  >
  <TRACK '{4CC33DD1-5E18-43CD-B889-3FFD5546779A}'
    NAME "bass_[mvsep.com]"
    PEAKCOL 16576
    BEAT -1
    AUTOMODE 0
    VOLPAN 1.00000000000000 0.00000000000000 -1.00000000000000 -1.00000000000000 1.00000000000000
    MUTESOLO 0 2 0
    IPHASE 0
    ISBUS 0 0
    BUSCOMP 0 0
    SHOWINMIX 1 0.666700 0.500000 1 0.500000 -1 -1 -1
    FREEMODE 0
    SEL 0
    REC 0 0 0 0 0 0 0
    VU 2
    TRACKHEIGHT 357 0
    INQ 0 0 0 0.5000000000 100 0 0 100
    NCHAN 2
    FX 1
    TRACKID {4CC33DD1-5E18-43CD-B889-3FFD5546779A}
    PERF 0
    MIDIOUT -1
    MAINSEND 1 0
    <FXCHAIN
      SHOW 0
      LASTSEL 0
      DOCKED 0
    >
    <ITEM
      POSITION 2.34352805773092
      SNAPOFFS 0.00000000000000
      LENGTH 207.59999999999999
      LOOP 0
      ALLTAKES 0
      SEL 0
      FADEIN 1 0.000000 0.000000 1 0
      FADEOUT 1 0.000000 0.000000 1 0
      MUTE 0
      IGUID {BCB27B12-FD76-4A7A-94CE-3BAB6C65737C}
      IID 33
      NAME "bass_[mvsep.com].mp3"
      VOLPAN 1.000000 0.000000 1.000000 -1.000000
      SOFFS 0.00000000000000
      PLAYRATE 1.00000000000000 1 0.00000000000000 -1
      CHANMODE 0
      GUID {9F93D568-AE93-48A4-BFEE-73B7891E50AC}
      <SOURCE MP3
        FILE "bass_[mvsep.com].mp3" 1
      >
    >
  >
  <TRACK '{04FBE796-136F-41B8-B013-30E005B4BA50}'
    NAME "bass"
    PEAKCOL 16576
    BEAT -1
    AUTOMODE 0
    VOLPAN 1.00000000000000 0.00000000000000 -1.00000000000000 -1.00000000000000 1.00000000000000
    MUTESOLO 0 0 0
    IPHASE 0
    ISBUS 0 0
    BUSCOMP 0 0
    SHOWINMIX 1 0.666700 0.500000 1 0.500000 -1 -1 -1
    FREEMODE 0
    SEL 0
    REC 0 0 0 0 0 0 0
    VU 2
    TRACKHEIGHT 24 0
    INQ 0 0 0 0.5000000000 100 0 0 100
    NCHAN 2
    FX 1
    TRACKID {04FBE796-136F-41B8-B013-30E005B4BA50}
    PERF 0
    MIDIOUT -1
    MAINSEND 1 0
    <ITEM
      POSITION 2.34352805768140
      SNAPOFFS 0.00000000000000
      LENGTH 207.59999999999999
      LOOP 0
      ALLTAKES 0
      SEL 0
      FADEIN 1 0.000000 0.000000 1 0
      FADEOUT 1 0.000000 0.000000 1 0
      MUTE 0
      IGUID {69CD0F5A-9F20-4A1A-AC3B-D6ABBEFDC3F1}
      IID 87
      NAME "bass_2.mp3"
      VOLPAN 1.000000 0.000000 1.000000 -1.000000
      SOFFS 0.00000000000000
      PLAYRATE 1.00000000000000 1 0.00000000000000 -1
      CHANMODE 0
      GUID {C2B83998-0031-4DF6-A614-0E0528A70866}
      <SOURCE MP3
        FILE "New folder\bass_2.mp3" 1
      >
    >
  >
  <TRACK '{6B7F9B4B-FF4E-4CE6-9E2D-4C9BD5DAED77}'
    NAME "PART GUITAR"
    PEAKCOL 33488896
    BEAT -1
    AUTOMODE 0
    VOLPAN 0.64382266579432 0.00000000000000 -1.00000000000000 -1.00000000000000 1.00000000000000
    MUTESOLO 0 0 0
    IPHASE 0
    ISBUS 0 0
    BUSCOMP 1 0
    SHOWINMIX 1 0.666700 0.500000 1 0.500000 -1 -1 -1
    FREEMODE 0
    SEL 0
    REC 0 4096 1 7 0 0 0
    TRACKHEIGHT 89 0
    INQ 0 0 0 0.5000000000 100 0 0 100
    NCHAN 2
    FX 1
    TRACKID {6B7F9B4B-FF4E-4CE6-9E2D-4C9BD5DAED77}
    PERF 0
    MIDIOUT -1
    <MIDINOTENAMES
      0 116 "OVERDRIVE"
      0 102 "Force HOPO Off"
      0 101 "Force HOPO On"
      0 100 "EXPERT Orange"
      0 99 "EXPERT Blue"
      0 98 "EXPERT Yellow"
      0 97 "EXPERT Red"
      0 96 "EXPERT Green"
      0 88 "HARD Orange"
      0 87 "HARD Blue"
      0 86 "HARD Yellow"
      0 85 "HARD Red"
      0 84 "HARD Green"
      0 76 "MEDIUM Orange"
      0 75 "MEDIUM Blue"
      0 74 "MEDIUM Yellow"
      0 73 "MEDIUM Red"
      0 72 "MEDIUM Green"
      0 64 "EASY Orange"
      0 63 "EASY Blue"
      0 62 "EASY Yellow"
      0 61 "EASY Red"
      0 60 "EASY Green"
      0 59 "Left Hand Highest"
      0 40 "Left Hand Lowest"
      0 58 "-"
      0 57 "-"
      0 56 "-"
      0 55 "-"
      0 54 "-"
      0 53 "-"
      0 52 "-"
      0 51 "-"
      0 50 "-"
      0 49 "-"
      0 48 "-"
      0 47 "-"
      0 46 "-"
      0 45 "-"
      0 44 "-"
      0 43 "-"
      0 42 "-"
      0 41 "-"
      0 115 "----"
      0 95 "----"
      0 89 "Force HOPO On"
      0 77 "----"
      0 65 "----"
      0 119 "----"
      0 120 "BRE (use all 5)"
      0 121 "BRE"
      0 122 "BRE"
      0 123 "BRE"
      0 124 "BRE"
      0 90 "Force HOPO Off"
      0 103 "Solo Marker"
      0 127 "Trill Marker"
      0 125 "----"
      0 126 "Strum Marker"
    >
    MAINSEND 1 0
    <FXCHAIN
      WNDRECT -970 315 771 559
      SHOW 0
      LASTSEL 1
      DOCKED 0
      BYPASS 1 0
      <VST "VSTi: ReaSynth (Cockos)" "reasynth.dll" 0 ""
        eXNlcu9e7f4AAAAAAgAAAAEAAAAAAAAAAgAAAAAAAAA4AAAAAAAAAA==
        AAAAAO++rd4N8K3eAAAAAAAAAAAAAAAAAAAAADm0SD59y9s+tbSxOQ==
        AAAAALbz/T5VpCs6AAAAAAAAAAAAAAAAAAA=
      >
      FLOATPOS 0 0 0 0
      FXID {52B28C73-185B-48E4-B8F4-1FD7A8848B0F}
      WAK 0
      BYPASS 0 0
      <VST "VSTi: RBN Preview (RBN)" "rbprev_vst64_beta.dll" 0 ""
        dnBicu5e7f4AAAAAAgAAAAEAAAAAAAAAAgAAAAAAAAAEAAAAAQAAAA==
        AAAAAAMAqgAAAAAAAAA=
      >
      FLOATPOS 32 32 659 497
      FXID {190BBB08-7A86-476B-BD07-5F71F5CD6F7C}
      WAK 0
    >
    <ITEM
      POSITION 0.00000000000000
      SNAPOFFS 0.00000000000000
      LENGTH 262.84614954630132
      LOOP 0
      ALLTAKES 0
      SEL 0
      FADEIN 1 0.000000 0.000000 1 0
      FADEOUT 1 0.000000 0.000000 1 0
      MUTE 0
      IGUID {81210F06-DA35-41E7-BA75-C6E1C5689733}
      IID 9
      NAME "PART GUITAR"
      VOLPAN 1.000000 0.000000 1.000000 -1.000000
      SOFFS 0.00000000000000 0.00000000000000
      PLAYRATE 1.00000000000000 1 0.00000000000000 -65536
      CHANMODE 0
      GUID {61757875-B3D4-49E4-8483-EE351B7D2386}
      <SOURCE MIDI
        HASDATA 1 480 QN
        POOLEDEVTS {87F98353-03CB-47EC-8BED-4745E4A7D43C}
        <X 0 0
          /wNQQVJUIEdVSVRBUg==
        >
        <X 1920 0
          /wFbbWVsbG93XQ==
        >
        E 0 90 3c 60
        E 0 90 48 60
        E 0 90 49 60
        E 0 90 54 60
        E 0 90 55 60
        E 0 90 63 60
        E 60 80 3c 00
        E 0 80 48 00
        E 0 80 49 00
        E 0 80 54 00
        E 0 80 55 00
        E 0 80 63 00
        E 60 90 62 60
        E 60 80 62 00
        E 60 90 48 60
        E 0 90 49 60
        E 0 90 54 60
        E 0 90 55 60
        E 0 90 61 60
        E 60 80 48 00
        E 0 80 49 00
        E 0 80 54 00
        E 0 80 55 00
        E 0 80 61 00
        E 60 90 60 60
        E 60 80 60 00
        E 60 90 3c 60
        E 0 90 48 60
        E 0 90 49 60
        E 0 90 54 60
        E 0 90 55 60
        E 0 90 63 60
        E 60 80 3c 00
        E 0 80 48 00
        E 0 80 49 00
        E 0 80 54 00
        E 0 80 55 00
        E 0 80 63 00
        E 60 90 60 60
        E 60 80 60 00
        E 60 90 48 60
        E 0 90 49 60
        E 0 90 54 60
        E 0 90 55 60
        E 0 90 61 60
        E 60 80 48 00
        E 0 80 49 00
        E 0 80 54 00
        E 0 80 55 00
        E 0 80 61 00
        E 60 90 62 60
        E 60 80 62 00
        E 60 90 3c 60
        E 0 90 48 60
        E 0 90 49 60
        E 0 90 54 60
        E 0 90 55 60
        E 0 90 61 60
        E 60 80 3c 00
        E 0 80 48 00
        E 0 80 49 00
        E 0 80 54 00
        E 0 80 55 00
        E 0 80 61 00
        E 60 90 60 60
        E 60 80 60 00
        E 60 90 48 60
        E 0 90 49 60
        E 0 90 54 60
        E 0 90 55 60
        E 0 90 63 60
        E 60 80 48 00
        E 0 80 49 00
        E 0 80 54 00
        E 0 80 55 00
        E 180 90 3c 60
        E 0 90 48 60
        E 0 90 49 60
        E 0 90 54 60
        E 0 90 55 60
        E 60 80 3c 00
        E 0 80 48 00
        E 0 80 49 00
        E 0 80 54 00
        E 0 80 55 00
        E 180 90 48 60
        E 0 90 49 60
        E 0 90 54 60
        E 0 90 55 60
        E 60 80 48 00
        E 0 80 49 00
        E 0 80 54 00
        E 0 80 55 00
        E 120 80 63 00
        E 60 90 3c 60
        E 0 90 48 60
        E 0 90 49 60
        E 0 90 54 60
        E 0 90 55 60
        E 0 90 63 60
        E 60 80 3c 00
        E 0 80 48 00
        E 0 80 49 00
        E 0 80 54 00
        E 0 80 55 00
        E 0 80 63 00
        E 60 90 62 60
        E 60 80 62 00
        E 60 90 48 60
        E 0 90 49 60
        E 0 90 54 60
        E 0 90 55 60
        E 0 90 61 60
        E 60 80 48 00
        E 0 80 49 00
        E 0 80 54 00
        E 0 80 55 00
        E 0 80 61 00
        E 60 90 60 60
        E 60 80 60 00
        E 60 90 3c 60
        E 0 90 48 60
        E 0 90 49 60
        E 0 90 54 60
        E 0 90 55 60
        E 0 90 63 60
        E 60 80 3c 00
        E 0 80 48 00
        E 0 80 49 00
        E 0 80 54 00
        E 0 80 55 00
        E 0 80 63 00
        E 60 90 60 60
        E 60 80 60 00
        E 60 90 48 60
        E 0 90 49 60
        E 0 90 54 60
        E 0 90 55 60
        E 0 90 61 60
        E 60 80 48 00
        E 0 80 49 00
        E 0 80 54 00
        E 0 80 55 00
        E 0 80 61 00
        E 60 90 62 60
        E 60 80 62 00
        E 60 90 3c 60
        E 0 90 48 60
        E 0 90 49 60
        E 0 90 54 60
        E 0 90 55 60
        E 0 90 61 60
        E 60 80 3c 00
        E 0 80 48 00
        E 0 80 49 00
        E 0 80 54 00
        E 0 80 55 00
        E 0 80 61 00
        E 60 90 60 60
        E 60 80 60 00
        E 60 90 48 60
        E 0 90 49 60
        E 0 90 54 60
        E 0 90 55 60
        E 0 90 63 60
        E 60 80 48 00
        E 0 80 49 00
        E 0 80 54 00
        E 0 80 55 00
        E 180 90 3c 60
        E 0 90 48 60
        E 0 90 49 60
        E 0 90 54 60
        E 0 90 55 60
        E 60 80 3c 00
        E 0 80 48 00
        E 0 80 49 00
        E 0 80 54 00
        E 0 80 55 00
        E 180 90 48 60
        E 0 90 49 60
        E 0 90 54 60
        E 0 90 55 60
        E 60 80 48 00
        E 0 80 49 00
        E 0 80 54 00
        E 0 80 55 00
        E 120 80 63 00
        E 60 90 3c 60
        E 0 90 48 60
        E 0 90 49 60
        E 0 90 54 60
        E 0 90 55 60
        E 0 90 60 60
        E 0 90 61 60
        E 0 90 62 60
        E 120 80 3c 00
        E 0 80 48 00
        E 0 80 49 00
        E 240 80 54 00
        E 0 80 55 00
        E 60 80 60 00
        E 0 80 61 00
        E 0 80 62 00
        E 60 90 3c 60
        E 0 90 48 60
        E 0 90 49 60
        E 0 90 54 60
        E 0 90 55 60
        E 0 90 60 60
        E 0 90 61 60
        E 0 90 62 60
        E 60 80 3c 00
        E 0 80 48 00
        E 0 80 49 00
        E 0 80 54 00
        E 0 80 55 00
        E 0 80 60 00
        E 0 80 61 00
        E 0 80 62 00
        E 180 90 48 60
        E 0 90 49 60
        E 0 90 54 60
        E 0 90 55 60
        E 0 90 60 60
        E 0 90 61 60
        E 0 90 62 60
        E 60 80 48 00
        E 0 80 49 00
        E 0 80 54 00
        E 0 80 55 00
        E 0 80 60 00
        E 0 80 61 00
        E 0 80 62 00
        E 60 90 60 60
        E 0 90 61 60
        E 0 90 62 60
        E 60 80 60 00
        E 0 80 61 00
        E 0 80 62 00
        E 60 90 3c 60
        E 0 90 48 60
        E 0 90 49 60
        E 0 90 54 60
        E 0 90 55 60
        E 0 90 60 60
        E 0 90 61 60
        E 0 90 62 60
        E 120 80 3c 00
        E 0 80 48 00
        E 0 80 49 00
        E 0 80 54 00
        E 0 80 55 00
        E 180 80 60 00
        E 0 80 61 00
        E 0 80 62 00
        E 60 90 60 60
        E 0 90 61 60
        E 0 90 62 60
        E 60 80 60 00
        E 0 80 61 00
        E 0 80 62 00
        E 60 90 3c 60
        E 0 90 48 60
        E 0 90 49 60
        E 0 90 54 60
        E 0 90 55 60
        E 0 90 60 60
        E 0 90 61 60
        E 0 90 62 60
        E 60 80 3c 00
        E 0 80 48 00
        E 0 80 49 00
        E 0 80 54 00
        E 0 80 55 00
        E 0 80 60 00
        E 0 80 61 00
        E 0 80 62 00
        E 60 90 60 60
        E 0 90 61 60
        E 0 90 62 60
        E 60 80 60 00
        E 0 80 61 00
        E 0 80 62 00
        E 60 90 48 60
        E 0 90 49 60
        E 0 90 54 60
        E 0 90 55 60
        E 0 90 60 60
        E 0 90 61 60
        E 0 90 62 60
        E 60 80 48 00
        E 0 80 49 00
        E 0 80 54 00
        E 0 80 55 00
        E 0 80 60 00
        E 0 80 61 00
        E 0 80 62 00
        E 60 90 60 60
        E 0 90 61 60
        E 0 90 62 60
        E 60 80 60 00
        E 0 80 61 00
        E 0 80 62 00
        E 60 90 3c 60
        E 0 90 48 60
        E 0 90 49 60
        E 0 90 54 60
        E 0 90 55 60
        E 0 90 60 60
        E 0 90 61 60
        E 0 90 62 60
        E 60 80 3c 00
        E 0 80 48 00
        E 0 80 49 00
        E 0 80 54 00
        E 0 80 55 00
        E 0 80 60 00
        E 0 80 61 00
        E 0 80 62 00
        E 180 90 55 60
        E 0 90 57 60
        E 0 90 61 60
        E 0 90 62 60
        E 0 90 63 60
        E 60 80 55 00
        E 0 80 57 00
        E 0 80 61 00
        E 0 80 62 00
        E 0 80 63 00
        E 180 90 49 60
        E 0 90 4b 60
        E 0 90 55 60
        E 0 90 57 60
        E 0 90 61 60
        E 0 90 62 60
        E 0 90 63 60
        E 60 80 49 00
        E 0 80 4b 00
        E 0 80 55 00
        E 0 80 57 00
        E 0 80 61 00
        E 0 80 62 00
        E 0 80 63 00
        E 180 90 55 60
        E 0 90 57 60
        E 0 90 61 60
        E 0 90 62 60
        E 0 90 63 60
        E 60 80 55 00
        E 0 80 57 00
        E 0 80 61 00
        E 0 80 62 00
        E 0 80 63 00
        E 60 90 61 60
        E 0 90 62 60
        E 0 90 63 60
        E 60 80 61 00
        E 0 80 62 00
        E 0 80 63 00
        E 60 90 3e 60
        E 0 90 4a 60
        E 0 90 56 60
        E 0 90 63 60
        E 120 80 3e 00
        E 0 80 4a 00
        E 240 80 56 00
        E 0 80 63 00
        E 120 90 49 60
        E 0 90 55 60
        E 0 90 62 60
        E 120 80 49 00
        E 240 80 55 00
        E 0 80 62 00
        E 120 90 3c 60
        E 0 90 48 60
        E 0 90 54 60
        E 0 90 61 60
        E 120 80 3c 00
        E 0 80 48 00
        E 240 80 54 00
        E 0 80 61 00
        E 120 90 48 60
        E 0 90 4a 60
        E 0 90 54 60
        E 0 90 56 60
        E 0 90 60 60
        E 0 90 61 60
        E 0 90 63 60
        E 60 80 48 00
        E 0 80 4a 00
        E 0 80 54 00
        E 0 80 56 00
        E 0 80 60 00
        E 0 80 61 00
        E 0 80 63 00
        E 60 90 60 60
        E 0 90 61 60
        E 0 90 63 60
        E 60 80 60 00
        E 0 80 61 00
        E 0 80 63 00
        E 60 90 48 60
        E 0 90 4a 60
        E 0 90 54 60
        E 0 90 56 60
        E 0 90 60 60
        E 0 90 61 60
        E 0 90 63 60
        E 60 80 48 00
        E 0 80 4a 00
        E 0 80 54 00
        E 0 80 56 00
        E 0 80 60 00
        E 0 80 61 00
        E 0 80 63 00
        E 60 90 60 60
        E 0 90 61 60
        E 0 90 63 60
        E 60 80 60 00
        E 0 80 61 00
        E 0 80 63 00
        E 60 90 3d 60
        E 0 90 48 60
        E 0 90 4a 60
        E 0 90 54 60
        E 0 90 56 60
        E 0 90 60 60
        E 0 90 61 60
        E 0 90 63 60
        E 60 80 3d 00
        E 0 80 48 00
        E 0 80 4a 00
        E 0 80 54 00
        E 0 80 56 00
        E 0 80 60 00
        E 0 80 61 00
        E 0 80 63 00
        E 60 90 60 60
        E 0 90 61 60
        E 0 90 63 60
        E 60 80 60 00
        E 0 80 61 00
        E 0 80 63 00
        E 60 90 48 60
        E 0 90 4a 60
        E 0 90 54 60
        E 0 90 56 60
        E 0 90 60 60
        E 0 90 61 60
        E 0 90 63 60
        E 60 80 48 00
        E 0 80 4a 00
        E 0 80 54 00
        E 0 80 56 00
        E 0 80 60 00
        E 0 80 61 00
        E 0 80 63 00
        E 60 90 60 60
        E 0 90 61 60
        E 0 90 63 60
        E 60 80 60 00
        E 0 80 61 00
        E 0 80 63 00
        E 60 90 3d 60
        E 0 90 48 60
        E 0 90 4a 60
        E 0 90 54 60
        E 0 90 56 60
        E 0 90 60 60
        E 0 90 61 60
        E 0 90 63 60
        E 60 80 3d 00
        E 0 80 48 00
        E 0 80 4a 00
        E 0 80 54 00
        E 0 80 56 00
        E 0 80 60 00
        E 0 80 61 00
        E 0 80 63 00
        E 180 90 48 60
        E 0 90 4a 60
        E 0 90 54 60
        E 0 90 56 60
        E 0 90 60 60
        E 0 90 61 60
        E 0 90 63 60
        E 60 80 48 00
        E 0 80 4a 00
        E 0 80 54 00
        E 0 80 56 00
        E 0 80 60 00
        E 0 80 61 00
        E 0 80 63 00
        E 60 90 60 60
        E 0 90 61 60
        E 0 90 63 60
        E 60 80 60 00
        E 0 80 61 00
        E 0 80 63 00
        E 60 90 3d 60
        E 0 90 48 60
        E 0 90 4a 60
        E 0 90 54 60
        E 0 90 56 60
        E 0 90 60 60
        E 0 90 61 60
        E 0 90 63 60
        E 60 80 3d 00
        E 0 80 48 00
        E 0 80 4a 00
        E 0 80 54 00
        E 0 80 56 00
        E 0 80 60 00
        E 0 80 61 00
        E 0 80 63 00
        E 180 90 54 60
        E 0 90 57 60
        E 0 90 60 60
        E 0 90 62 60
        E 0 90 63 60
        E 60 80 54 00
        E 0 80 57 00
        E 0 80 60 00
        E 0 80 62 00
        E 0 80 63 00
        E 180 90 49 60
        E 0 90 4a 60
        E 0 90 54 60
        E 0 90 57 60
        E 0 90 60 60
        E 0 90 62 60
        E 0 90 63 60
        E 60 80 49 00
        E 0 80 4a 00
        E 0 80 54 00
        E 0 80 57 00
        E 0 80 60 00
        E 0 80 62 00
        E 0 80 63 00
        E 60 90 60 60
        E 0 90 62 60
        E 0 90 63 60
        E 60 80 60 00
        E 0 80 62 00
        E 0 80 63 00
        E 60 90 49 60
        E 0 90 4a 60
        E 0 90 54 60
        E 0 90 57 60
        E 0 90 60 60
        E 0 90 62 60
        E 0 90 63 60
        E 60 80 49 00
        E 0 80 4a 00
        E 0 80 54 00
        E 0 80 57 00
        E 0 80 60 00
        E 0 80 62 00
        E 0 80 63 00
        E 60 90 60 60
        E 0 90 62 60
        E 0 90 63 60
        E 60 80 60 00
        E 0 80 62 00
        E 0 80 63 00
        E 60 90 3e 60
        E 0 90 49 60
        E 0 90 4a 60
        E 0 90 54 60
        E 0 90 57 60
        E 0 90 60 60
        E 0 90 62 60
        E 0 90 63 60
        E 60 80 3e 00
        E 0 80 49 00
        E 0 80 4a 00
        E 0 80 54 00
        E 0 80 57 00
        E 0 80 60 00
        E 0 80 62 00
        E 0 80 63 00
        E 180 90 54 60
        E 0 90 56 60
        E 0 90 60 60
        E 0 90 61 60
        E 0 90 63 60
        E 60 80 54 00
        E 0 80 56 00
        E 0 80 60 00
        E 0 80 61 00
        E 0 80 63 00
        E 60 90 60 60
        E 0 90 61 60
        E 0 90 63 60
        E 60 80 60 00
        E 0 80 61 00
        E 0 80 63 00
        E 60 90 48 60
        E 0 90 4a 60
        E 0 90 54 60
        E 0 90 56 60
        E 0 90 60 60
        E 0 90 61 60
        E 0 90 63 60
        E 60 80 48 00
        E 0 80 4a 00
        E 0 80 54 00
        E 0 80 56 00
        E 0 80 60 00
        E 0 80 61 00
        E 0 80 63 00
        E 60 90 60 60
        E 0 90 61 60
        E 0 90 63 60
        E 60 80 60 00
        E 0 80 61 00
        E 0 80 63 00
        E 60 90 48 60
        E 0 90 4a 60
        E 0 90 54 60
        E 0 90 56 60
        E 0 90 60 60
        E 0 90 61 60
        E 0 90 63 60
        E 60 80 48 00
        E 0 80 4a 00
        E 0 80 54 00
        E 0 80 56 00
        E 0 80 60 00
        E 0 80 61 00
        E 0 80 63 00
        E 60 90 60 60
        E 0 90 61 60
        E 0 90 63 60
        E 60 80 60 00
        E 0 80 61 00
        E 0 80 63 00
        E 60 90 3d 60
        E 0 90 48 60
        E 0 90 4a 60
        E 0 90 54 60
        E 0 90 56 60
        E 0 90 60 60
        E 0 90 61 60
        E 0 90 63 60
        E 60 80 3d 00
        E 0 80 48 00
        E 0 80 4a 00
        E 0 80 54 00
        E 0 80 56 00
        E 0 80 60 00
        E 0 80 61 00
        E 0 80 63 00
        E 180 90 54 60
        E 0 90 55 60
        E 0 90 60 60
        E 0 90 61 60
        E 0 90 62 60
        E 59 80 54 00
        E 0 80 55 00
        E 0 80 60 00
        E 1 80 61 00
        E 0 80 62 00
        E 180 90 48 60
        E 0 90 49 60
        E 0 90 54 60
        E 0 90 55 60
        E 0 90 60 60
        E 0 90 61 60
        E 0 90 62 60
        E 60 80 48 00
        E 0 80 49 00
        E 0 80 54 00
        E 0 80 55 00
        E 0 80 60 00
        E 0 80 61 00
        E 0 80 62 00
        E 60 90 60 60
        E 0 90 61 60
        E 0 90 62 60
        E 60 80 60 00
        E 0 80 61 00
        E 0 80 62 00
        E 60 90 48 60
        E 0 90 49 60
        E 0 90 54 60
        E 0 90 55 60
        E 0 90 60 60
        E 0 90 61 60
        E 0 90 62 60
        E 60 80 48 00
        E 0 80 49 00
        E 0 80 54 00
        E 0 80 55 00
        E 0 80 60 00
        E 0 80 61 00
        E 0 80 62 00
        E 60 90 60 60
        E 0 90 61 60
        E 0 90 62 60
        E 60 80 60 00
        E 0 80 61 00
        E 0 80 62 00
        E 60 90 3c 60
        E 0 90 48 60
        E 0 90 49 60
        E 0 90 54 60
        E 0 90 55 60
        E 0 90 60 60
        E 0 90 61 60
        E 0 90 62 60
        E 60 80 3c 00
        E 0 80 48 00
        E 0 80 49 00
        E 0 80 54 00
        E 0 80 55 00
        E 0 80 60 00
        E 0 80 61 00
        E 0 80 62 00
        E 60 90 60 60
        E 0 90 61 60
        E 0 90 62 60
        E 60 80 60 00
        E 0 80 61 00
        E 0 80 62 00
        E 59 90 60 60
        E 1 90 55 60
        E 0 90 56 60
        E 0 90 61 60
        E 0 90 62 60
        E 60 80 60 00
        E 0 80 55 00
        E 0 80 56 00
        E 0 80 61 00
        E 0 80 62 00
        E 60 90 60 60
        E 0 90 61 60
        E 0 90 62 60
        E 60 80 60 00
        E 0 80 61 00
        E 0 80 62 00
        E 60 90 3c 60
        E 0 90 48 60
        E 0 90 49 60
        E 0 90 54 60
        E 0 90 55 60
        E 0 90 60 60
        E 0 90 61 60
        E 0 90 62 60
        E 60 80 3c 00
        E 0 80 48 00
        E 0 80 49 00
        E 0 80 54 00
        E 0 80 55 00
        E 0 80 60 00
        E 0 80 61 00
        E 0 80 62 00
        E 60 90 60 60
        E 0 90 61 60
        E 0 90 62 60
        E 60 80 60 00
        E 0 80 61 00
        E 0 80 62 00
        E 60 90 48 60
        E 0 90 49 60
        E 0 90 54 60
        E 0 90 55 60
        E 0 90 60 60
        E 0 90 61 60
        E 0 90 62 60
        E 60 80 48 00
        E 0 80 49 00
        E 0 80 54 00
        E 0 80 55 00
        E 0 80 60 00
        E 0 80 61 00
        E 0 80 62 00
        E 60 90 60 60
        E 0 90 61 60
        E 0 90 62 60
        E 60 80 60 00
        E 0 80 61 00
        E 0 80 62 00
        E 60 90 3c 60
        E 0 90 48 60
        E 0 90 49 60
        E 0 90 54 60
        E 0 90 55 60
        E 0 90 60 60
        E 0 90 61 60
        E 0 90 62 60
        E 60 80 3c 00
        E 0 80 48 00
        E 0 80 49 00
        E 0 80 54 00
        E 0 80 55 00
        E 0 80 60 00
        E 0 80 61 00
        E 0 80 62 00
        E 180 90 55 60
        E 0 90 57 60
        E 0 90 61 60
        E 0 90 62 60
        E 0 90 63 60
        E 60 80 55 00
        E 0 80 57 00
        E 0 80 61 00
        E 0 80 62 00
        E 0 80 63 00
        E 60 90 61 60
        E 0 90 62 60
        E 0 90 63 60
        E 60 80 61 00
        E 0 80 62 00
        E 0 80 63 00
        E 60 90 49 60
        E 0 90 4b 60
        E 0 90 55 60
        E 0 90 57 60
        E 0 90 61 60
        E 0 90 62 60
        E 0 90 63 60
        E 60 80 49 00
        E 0 80 4b 00
        E 0 80 55 00
        E 0 80 57 00
        E 0 80 61 00
        E 0 80 62 00
        E 0 80 63 00
        E 60 90 61 60
        E 0 90 62 60
        E 0 90 63 60
        E 60 80 61 00
        E 0 80 62 00
        E 0 80 63 00
        E 60 90 55 60
        E 0 90 57 60
        E 0 90 61 60
        E 0 90 62 60
        E 0 90 63 60
        E 60 80 55 00
        E 0 80 57 00
        E 0 80 61 00
        E 0 80 62 00
        E 0 80 63 00
        E 60 90 61 60
        E 0 90 62 60
        E 0 90 63 60
        E 60 80 61 00
        E 0 80 62 00
        E 0 80 63 00
        E 60 90 3e 60
        E 0 90 4a 60
        E 0 90 56 60
        E 0 90 63 60
        E 0 90 74 66
        E 120 80 3e 00
        E 0 80 4a 00
        E 240 80 56 00
        E 0 80 63 00
        E 120 90 49 60
        E 0 90 55 60
        E 0 90 62 60
        E 120 80 49 00
        E 240 80 55 00
        E 0 80 62 00
        E 120 90 3c 60
        E 0 90 48 60
        E 0 90 54 60
        E 0 90 61 60
        E 120 80 3c 00
        E 0 80 48 00
        E 240 80 54 00
        E 0 80 61 00
        E 120 80 74 00
        E 0 90 48 60
        E 0 90 4a 60
        E 0 90 54 60
        E 0 90 56 60
        E 0 90 60 60
        E 0 90 61 60
        E 0 90 63 60
        E 60 80 48 00
        E 0 80 4a 00
        E 0 80 54 00
        E 0 80 56 00
        E 0 80 60 00
        E 0 80 61 00
        E 0 80 63 00
        E 60 90 60 60
        E 0 90 61 60
        E 0 90 63 60
        E 60 80 60 00
        E 0 80 61 00
        E 0 80 63 00
        E 60 90 48 60
        E 0 90 4a 60
        E 0 90 54 60
        E 0 90 56 60
        E 0 90 60 60
        E 0 90 61 60
        E 0 90 63 60
        E 60 80 48 00
        E 0 80 4a 00
        E 0 80 54 00
        E 0 80 56 00
        E 0 80 60 00
        E 0 80 61 00
        E 0 80 63 00
        E 60 90 60 60
        E 0 90 61 60
        E 0 90 63 60
        E 60 80 60 00
        E 0 80 61 00
        E 0 80 63 00
        E 60 90 3d 60
        E 0 90 48 60
        E 0 90 4a 60
        E 0 90 54 60
        E 0 90 56 60
        E 0 90 60 60
        E 0 90 61 60
        E 0 90 63 60
        E 60 80 3d 00
        E 0 80 48 00
        E 0 80 4a 00
        E 0 80 54 00
        E 0 80 56 00
        E 0 80 60 00
        E 0 80 61 00
        E 0 80 63 00
        E 60 90 60 60
        E 0 90 61 60
        E 0 90 63 60
        E 60 80 60 00
        E 0 80 61 00
        E 0 80 63 00
        E 60 90 48 60
        E 0 90 4a 60
        E 0 90 54 60
        E 0 90 56 60
        E 0 90 60 60
        E 0 90 61 60
        E 0 90 63 60
        E 60 80 48 00
        E 0 80 4a 00
        E 0 80 54 00
        E 0 80 56 00
        E 0 80 60 00
        E 0 80 61 00
        E 0 80 63 00
        E 60 90 60 60
        E 0 90 61 60
        E 0 90 63 60
        E 60 80 60 00
        E 0 80 61 00
        E 0 80 63 00
        E 60 90 3d 60
        E 0 90 48 60
        E 0 90 4a 60
        E 0 90 54 60
        E 0 90 56 60
        E 0 90 60 60
        E 0 90 61 60
        E 0 90 63 60
        E 60 80 3d 00
        E 0 80 48 00
        E 0 80 4a 00
        E 0 80 54 00
        E 0 80 56 00
        E 0 80 60 00
        E 0 80 61 00
        E 0 80 63 00
        E 60 90 60 60
        E 0 90 61 60
        E 0 90 63 60
        E 60 80 60 00
        E 0 80 61 00
        E 0 80 63 00
        E 60 90 48 60
        E 0 90 4a 60
        E 0 90 54 60
        E 0 90 56 60
        E 0 90 60 60
        E 0 90 61 60
        E 0 90 63 60
        E 60 80 48 00
        E 0 80 4a 00
        E 0 80 54 00
        E 0 80 56 00
        E 0 80 60 00
        E 0 80 61 00
        E 0 80 63 00
        E 60 90 60 60
        E 0 90 61 60
        E 0 90 63 60
        E 60 80 60 00
        E 0 80 61 00
        E 0 80 63 00
        E 60 90 3d 60
        E 0 90 48 60
        E 0 90 4a 60
        E 0 90 54 60
        E 0 90 56 60
        E 0 90 60 60
        E 0 90 61 60
        E 0 90 63 60
        E 60 80 3d 00
        E 0 80 48 00
        E 0 80 4a 00
        E 0 80 54 00
        E 0 80 56 00
        E 0 80 60 00
        E 0 80 61 00
        E 0 80 63 00
        E 180 90 54 60
        E 0 90 55 60
        E 0 90 60 60
        E 0 90 61 60
        E 0 90 62 60
        E 61 80 54 00
        E 0 80 55 00
        E 0 80 60 00
        E 0 80 61 00
        E 0 80 62 00
        E 179 90 48 60
        E 0 90 49 60
        E 0 90 54 60
        E 0 90 55 60
        E 0 90 60 60
        E 0 90 61 60
        E 0 90 62 60
        E 120 80 48 00
        E 0 80 49 00
        E 0 80 54 00
        E 0 80 55 00
        E 180 80 60 00
        E 0 80 61 00
        E 0 80 62 00
        E 60 90 60 60
        E 0 90 61 60
        E 0 90 62 60
        E 61 80 60 00
        E 0 80 61 00
        E 0 80 62 00
        E 59 90 3c 60
        E 0 90 48 60
        E 0 90 49 60
        E 0 90 54 60
        E 0 90 55 60
        E 0 90 60 60
        E 0 90 61 60
        E 0 90 62 60
        E 61 80 3c 00
        E 0 80 48 00
        E 0 80 49 00
        E 0 80 54 00
        E 0 80 55 00
        E 0 80 60 00
        E 0 80 61 00
        E 0 80 62 00
        E 59 90 60 60
        E 0 90 61 60
        E 0 90 62 60
        E 61 80 60 00
        E 0 80 61 00
        E 0 80 62 00
        E 59 90 48 60
        E 0 90 49 60
        E 0 90 54 60
        E 0 90 55 60
        E 0 90 60 60
        E 0 90 61 60
        E 0 90 62 60
        E 61 80 48 00
        E 0 80 49 00
        E 0 80 54 00
        E 0 80 55 00
        E 0 80 60 00
        E 0 80 61 00
        E 0 80 62 00
        E 59 90 60 60
        E 0 90 61 60
        E 0 90 62 60
        E 61 80 60 00
        E 0 80 61 00
        E 0 80 62 00
        E 59 90 3c 60
        E 0 90 48 60
        E 0 90 49 60
        E 0 90 54 60
        E 0 90 55 60
        E 0 90 60 60
        E 0 90 61 60
        E 0 90 62 60
        E 61 80 3c 00
        E 0 80 48 00
        E 0 80 49 00
        E 0 80 54 00
        E 0 80 55 00
        E 0 80 60 00
        E 0 80 61 00
        E 0 80 62 00
        E 59 90 60 60
        E 0 90 61 60
        E 0 90 62 60
        E 61 80 60 00
        E 0 80 61 00
        E 0 80 62 00
        E 59 90 48 60
        E 0 90 49 60
        E 0 90 54 60
        E 0 90 55 60
        E 0 90 60 60
        E 0 90 61 60
        E 0 90 62 60
        E 61 80 48 00
        E 0 80 49 00
        E 0 80 54 00
        E 0 80 55 00
        E 0 80 60 00
        E 0 80 61 00
        E 0 80 62 00
        E 59 90 60 60
        E 0 90 61 60
        E 0 90 62 60
        E 61 80 60 00
        E 0 80 61 00
        E 0 80 62 00
        E 59 90 3c 60
        E 0 90 48 60
        E 0 90 49 60
        E 0 90 54 60
        E 0 90 55 60
        E 0 90 60 60
        E 0 90 61 60
        E 0 90 62 60
        E 60 80 3c 00
        E 0 80 48 00
        E 0 80 49 00
        E 0 80 54 00
        E 0 80 55 00
        E 0 80 60 00
        E 0 80 61 00
        E 0 80 62 00
        E 180 90 48 60
        E 0 90 49 60
        E 0 90 54 60
        E 0 90 55 60
        E 0 90 60 60
        E 0 90 61 60
        E 0 90 62 60
        E 60 80 48 00
        E 0 80 49 00
        E 0 80 54 00
        E 0 80 55 00
        E 0 80 60 00
        E 0 80 61 00
        E 0 80 62 00
        E 180 90 3c 60
        E 0 90 48 60
        E 0 90 49 60
        E 0 90 54 60
        E 0 90 55 60
        E 0 90 60 60
        E 0 90 61 60
        E 0 90 62 60
        E 60 80 3c 00
        E 0 80 48 00
        E 0 80 49 00
        E 0 80 54 00
        E 0 80 55 00
        E 0 80 60 00
        E 0 80 61 00
        E 0 80 62 00
        E 180 90 48 60
        E 0 90 49 60
        E 0 90 54 60
        E 0 90 55 60
        E 0 90 60 60
        E 0 90 61 60
        E 0 90 62 60
        E 60 80 48 00
        E 0 80 49 00
        E 0 80 54 00
        E 0 80 55 00
        E 0 80 60 00
        E 0 80 61 00
        E 0 80 62 00
        E 60 90 60 60
        E 0 90 61 60
        E 0 90 62 60
        E 60 80 60 00
        E 0 80 61 00
        E 0 80 62 00
        E 60 90 3c 60
        E 0 90 48 60
        E 0 90 49 60
        E 0 90 54 60
        E 0 90 55 60
        E 0 90 60 60
        E 0 90 61 60
        E 0 90 62 60
        E 60 80 3c 00
        E 0 80 48 00
        E 0 80 49 00
        E 0 80 54 00
        E 0 80 55 00
        E 0 80 60 00
        E 0 80 61 00
        E 0 80 62 00
        E 180 90 48 60
        E 0 90 49 60
        E 0 90 54 60
        E 0 90 55 60
        E 0 90 60 60
        E 0 90 61 60
        E 0 90 62 60
        E 60 80 48 00
        E 0 80 49 00
        E 0 80 54 00
        E 0 80 55 00
        E 0 80 60 00
        E 0 80 61 00
        E 0 80 62 00
        E 60 90 60 60
        E 0 90 61 60
        E 0 90 62 60
        E 60 80 60 00
        E 0 80 61 00
        E 0 80 62 00
        E 60 90 3c 60
        E 0 90 48 60
        E 0 90 49 60
        E 0 90 54 60
        E 0 90 55 60
        E 0 90 60 60
        E 0 90 61 60
        E 0 90 62 60
        E 60 80 3c 00
        E 0 80 48 00
        E 0 80 49 00
        E 0 80 54 00
        E 0 80 55 00
        E 0 80 60 00
        E 0 80 61 00
        E 0 80 62 00
        E 60 90 60 60
        E 0 90 61 60
        E 0 90 62 60
        E 60 80 60 00
        E 0 80 61 00
        E 0 80 62 00
        E 60 90 48 60
        E 0 90 49 60
        E 0 90 54 60
        E 0 90 55 60
        E 0 90 60 60
        E 0 90 61 60
        E 0 90 62 60
        E 60 80 48 00
        E 0 80 49 00
        E 0 80 54 00
        E 0 80 55 00
        E 0 80 60 00
        E 0 80 61 00
        E 0 80 62 00
        E 60 90 60 60
        E 0 90 61 60
        E 0 90 62 60
        E 60 80 60 00
        E 0 80 61 00
        E 0 80 62 00
        E 60 90 3c 60
        E 0 90 48 60
        E 0 90 49 60
        E 0 90 54 60
        E 0 90 55 60
        E 0 90 60 60
        E 0 90 61 60
        E 0 90 62 60
        E 60 80 3c 00
        E 0 80 48 00
        E 0 80 49 00
        E 0 80 54 00
        E 0 80 55 00
        E 0 80 60 00
        E 0 80 61 00
        E 0 80 62 00
        E 180 90 55 60
        E 0 90 57 60
        E 0 90 61 60
        E 0 90 62 60
        E 0 90 63 60
        E 60 80 55 00
        E 0 80 57 00
        E 0 80 61 00
        E 0 80 62 00
        E 0 80 63 00
        E 180 90 49 60
        E 0 90 4b 60
        E 0 90 55 60
        E 0 90 57 60
        E 0 90 61 60
        E 0 90 62 60
        E 0 90 63 60
        E 60 80 49 00
        E 0 80 4b 00
        E 0 80 55 00
        E 0 80 57 00
        E 0 80 61 00
        E 0 80 62 00
        E 0 80 63 00
        E 180 90 55 60
        E 0 90 57 60
        E 0 90 61 60
        E 0 90 62 60
        E 0 90 63 60
        E 60 80 55 00
        E 0 80 57 00
        E 0 80 61 00
        E 0 80 62 00
        E 0 80 63 00
        E 60 90 61 60
        E 0 90 62 60
        E 0 90 63 60
        E 60 80 61 00
        E 0 80 62 00
        E 0 80 63 00
        E 60 90 3e 60
        E 0 90 4a 60
        E 0 90 56 60
        E 0 90 63 60
        E 120 80 3e 00
        E 0 80 4a 00
        E 240 80 56 00
        E 0 80 63 00
        E 120 90 49 60
        E 0 90 55 60
        E 0 90 62 60
        E 120 80 49 00
        E 240 80 55 00
        E 0 80 62 00
        E 120 90 3c 60
        E 0 90 48 60
        E 0 90 54 60
        E 0 90 61 60
        E 120 80 3c 00
        E 0 80 48 00
        E 240 80 54 00
        E 0 80 61 00
        E 120 90 48 60
        E 0 90 4a 60
        E 0 90 54 60
        E 0 90 56 60
        E 0 90 60 60
        E 0 90 61 60
        E 0 90 63 60
        E 60 80 48 00
        E 0 80 4a 00
        E 0 80 54 00
        E 0 80 56 00
        E 0 80 60 00
        E 0 80 61 00
        E 0 80 63 00
        E 60 90 60 60
        E 0 90 61 60
        E 0 90 63 60
        E 60 80 60 00
        E 0 80 61 00
        E 0 80 63 00
        E 60 90 48 60
        E 0 90 4a 60
        E 0 90 54 60
        E 0 90 56 60
        E 0 90 60 60
        E 0 90 61 60
        E 0 90 63 60
        E 60 80 48 00
        E 0 80 4a 00
        E 0 80 54 00
        E 0 80 56 00
        E 0 80 60 00
        E 0 80 61 00
        E 0 80 63 00
        E 60 90 60 60
        E 0 90 61 60
        E 0 90 63 60
        E 60 80 60 00
        E 0 80 61 00
        E 0 80 63 00
        E 60 90 3d 60
        E 0 90 48 60
        E 0 90 4a 60
        E 0 90 54 60
        E 0 90 56 60
        E 0 90 60 60
        E 0 90 61 60
        E 0 90 63 60
        E 60 80 3d 00
        E 0 80 48 00
        E 0 80 4a 00
        E 0 80 54 00
        E 0 80 56 00
        E 0 80 60 00
        E 0 80 61 00
        E 0 80 63 00
        E 60 90 60 60
        E 0 90 61 60
        E 0 90 63 60
        E 60 80 60 00
        E 0 80 61 00
        E 0 80 63 00
        E 60 90 48 60
        E 0 90 4a 60
        E 0 90 54 60
        E 0 90 56 60
        E 0 90 60 60
        E 0 90 61 60
        E 0 90 63 60
        E 60 80 48 00
        E 0 80 4a 00
        E 0 80 54 00
        E 0 80 56 00
        E 0 80 60 00
        E 0 80 61 00
        E 0 80 63 00
        E 60 90 60 60
        E 0 90 61 60
        E 0 90 63 60
        E 60 80 60 00
        E 0 80 61 00
        E 0 80 63 00
        E 60 90 3d 60
        E 0 90 48 60
        E 0 90 4a 60
        E 0 90 54 60
        E 0 90 56 60
        E 0 90 60 60
        E 0 90 61 60
        E 0 90 63 60
        E 60 80 3d 00
        E 0 80 48 00
        E 0 80 4a 00
        E 0 80 54 00
        E 0 80 56 00
        E 0 80 60 00
        E 0 80 61 00
        E 0 80 63 00
        E 60 90 60 60
        E 0 90 61 60
        E 0 90 63 60
        E 60 80 60 00
        E 0 80 61 00
        E 0 80 63 00
        E 60 90 48 60
        E 0 90 4a 60
        E 0 90 54 60
        E 0 90 56 60
        E 0 90 60 60
        E 0 90 61 60
        E 0 90 63 60
        E 60 80 48 00
        E 0 80 4a 00
        E 0 80 54 00
        E 0 80 56 00
        E 0 80 60 00
        E 0 80 61 00
        E 0 80 63 00
        E 60 90 60 60
        E 0 90 61 60
        E 0 90 63 60
        E 60 80 60 00
        E 0 80 61 00
        E 0 80 63 00
        E 60 90 3d 60
        E 0 90 48 60
        E 0 90 4a 60
        E 0 90 54 60
        E 0 90 56 60
        E 0 90 60 60
        E 0 90 61 60
        E 0 90 63 60
        E 60 80 3d 00
        E 0 80 48 00
        E 0 80 4a 00
        E 0 80 54 00
        E 0 80 56 00
        E 0 80 60 00
        E 0 80 61 00
        E 0 80 63 00
        E 180 90 54 60
        E 0 90 57 60
        E 0 90 60 60
        E 0 90 62 60
        E 0 90 63 60
        E 60 80 54 00
        E 0 80 57 00
        E 0 80 60 00
        E 0 80 62 00
        E 0 80 63 00
        E 180 90 49 60
        E 0 90 4a 60
        E 0 90 54 60
        E 0 90 57 60
        E 0 90 60 60
        E 0 90 62 60
        E 0 90 63 60
        E 60 80 49 00
        E 0 80 4a 00
        E 0 80 54 00
        E 0 80 57 00
        E 0 80 60 00
        E 0 80 62 00
        E 0 80 63 00
        E 60 90 60 60
        E 0 90 62 60
        E 0 90 63 60
        E 60 80 60 00
        E 0 80 62 00
        E 0 80 63 00
        E 60 90 49 60
        E 0 90 4a 60
        E 0 90 54 60
        E 0 90 57 60
        E 0 90 60 60
        E 0 90 62 60
        E 0 90 63 60
        E 60 80 49 00
        E 0 80 4a 00
        E 0 80 54 00
        E 0 80 57 00
        E 0 80 60 00
        E 0 80 62 00
        E 0 80 63 00
        E 60 90 60 60
        E 0 90 62 60
        E 0 90 63 60
        E 60 80 60 00
        E 0 80 62 00
        E 0 80 63 00
        E 60 90 3e 60
        E 0 90 49 60
        E 0 90 4a 60
        E 0 90 54 60
        E 0 90 57 60
        E 0 90 60 60
        E 0 90 62 60
        E 0 90 63 60
        E 60 80 3e 00
        E 0 80 49 00
        E 0 80 4a 00
        E 0 80 54 00
        E 0 80 57 00
        E 0 80 60 00
        E 0 80 62 00
        E 0 80 63 00
        E 180 90 54 60
        E 0 90 56 60
        E 0 90 60 60
        E 0 90 61 60
        E 0 90 63 60
        E 60 80 54 00
        E 0 80 56 00
        E 0 80 60 00
        E 0 80 61 00
        E 0 80 63 00
        E 60 90 60 60
        E 0 90 61 60
        E 0 90 63 60
        E 60 80 60 00
        E 0 80 61 00
        E 0 80 63 00
        E 60 90 48 60
        E 0 90 4a 60
        E 0 90 54 60
        E 0 90 56 60
        E 0 90 60 60
        E 0 90 61 60
        E 0 90 63 60
        E 60 80 48 00
        E 0 80 4a 00
        E 0 80 54 00
        E 0 80 56 00
        E 0 80 60 00
        E 0 80 61 00
        E 0 80 63 00
        E 60 90 60 60
        E 0 90 61 60
        E 0 90 63 60
        E 60 80 60 00
        E 0 80 61 00
        E 0 80 63 00
        E 60 90 48 60
        E 0 90 4a 60
        E 0 90 54 60
        E 0 90 56 60
        E 0 90 60 60
        E 0 90 61 60
        E 0 90 63 60
        E 60 80 48 00
        E 0 80 4a 00
        E 0 80 54 00
        E 0 80 56 00
        E 0 80 60 00
        E 0 80 61 00
        E 0 80 63 00
        E 60 90 60 60
        E 0 90 61 60
        E 0 90 63 60
        E 60 80 60 00
        E 0 80 61 00
        E 0 80 63 00
        E 60 90 3d 60
        E 0 90 48 60
        E 0 90 4a 60
        E 0 90 54 60
        E 0 90 56 60
        E 0 90 60 60
        E 0 90 61 60
        E 0 90 63 60
        E 60 80 3d 00
        E 0 80 48 00
        E 0 80 4a 00
        E 0 80 54 00
        E 0 80 56 00
        E 0 80 60 00
        E 0 80 61 00
        E 0 80 63 00
        E 180 90 54 60
        E 0 90 55 60
        E 0 90 60 60
        E 0 90 61 60
        E 0 90 62 60
        E 59 80 54 00
        E 0 80 55 00
        E 0 80 60 00
        E 1 80 61 00
        E 0 80 62 00
        E 180 90 48 60
        E 0 90 49 60
        E 0 90 54 60
        E 0 90 55 60
        E 0 90 60 60
        E 0 90 61 60
        E 0 90 62 60
        E 60 80 48 00
        E 0 80 49 00
        E 0 80 54 00
        E 0 80 55 00
        E 0 80 60 00
        E 0 80 61 00
        E 0 80 62 00
        E 60 90 60 60
        E 0 90 61 60
        E 0 90 62 60
        E 60 80 60 00
        E 0 80 61 00
        E 0 80 62 00
        E 60 90 48 60
        E 0 90 49 60
        E 0 90 54 60
        E 0 90 55 60
        E 0 90 60 60
        E 0 90 61 60
        E 0 90 62 60
        E 60 80 48 00
        E 0 80 49 00
        E 0 80 54 00
        E 0 80 55 00
        E 0 80 60 00
        E 0 80 61 00
        E 0 80 62 00
        E 60 90 60 60
        E 0 90 61 60
        E 0 90 62 60
        E 60 80 60 00
        E 0 80 61 00
        E 0 80 62 00
        E 60 90 3c 60
        E 0 90 48 60
        E 0 90 49 60
        E 0 90 54 60
        E 0 90 55 60
        E 0 90 60 60
        E 0 90 61 60
        E 0 90 62 60
        E 60 80 3c 00
        E 0 80 48 00
        E 0 80 49 00
        E 0 80 54 00
        E 0 80 55 00
        E 0 80 60 00
        E 0 80 61 00
        E 0 80 62 00
        E 60 90 60 60
        E 0 90 61 60
        E 0 90 62 60
        E 60 80 60 00
        E 0 80 61 00
        E 0 80 62 00
        E 59 90 60 60
        E 1 90 55 60
        E 0 90 56 60
        E 0 90 61 60
        E 0 90 62 60
        E 60 80 60 00
        E 0 80 55 00
        E 0 80 56 00
        E 0 80 61 00
        E 0 80 62 00
        E 60 90 60 60
        E 0 90 61 60
        E 0 90 62 60
        E 60 80 60 00
        E 0 80 61 00
        E 0 80 62 00
        E 60 90 3c 60
        E 0 90 48 60
        E 0 90 49 60
        E 0 90 54 60
        E 0 90 55 60
        E 0 90 60 60
        E 0 90 61 60
        E 0 90 62 60
        E 60 80 3c 00
        E 0 80 48 00
        E 0 80 49 00
        E 0 80 54 00
        E 0 80 55 00
        E 0 80 60 00
        E 0 80 61 00
        E 0 80 62 00
        E 60 90 60 60
        E 0 90 61 60
        E 0 90 62 60
        E 60 80 60 00
        E 0 80 61 00
        E 0 80 62 00
        E 60 90 48 60
        E 0 90 49 60
        E 0 90 54 60
        E 0 90 55 60
        E 0 90 60 60
        E 0 90 61 60
        E 0 90 62 60
        E 60 80 48 00
        E 0 80 49 00
        E 0 80 54 00
        E 0 80 55 00
        E 0 80 60 00
        E 0 80 61 00
        E 0 80 62 00
        E 60 90 60 60
        E 0 90 61 60
        E 0 90 62 60
        E 60 80 60 00
        E 0 80 61 00
        E 0 80 62 00
        E 60 90 3c 60
        E 0 90 48 60
        E 0 90 49 60
        E 0 90 54 60
        E 0 90 55 60
        E 0 90 60 60
        E 0 90 61 60
        E 0 90 62 60
        E 60 80 3c 00
        E 0 80 48 00
        E 0 80 49 00
        E 0 80 54 00
        E 0 80 55 00
        E 0 80 60 00
        E 0 80 61 00
        E 0 80 62 00
        E 180 90 55 60
        E 0 90 57 60
        E 0 90 61 60
        E 0 90 62 60
        E 0 90 63 60
        E 60 80 55 00
        E 0 80 57 00
        E 0 80 61 00
        E 0 80 62 00
        E 0 80 63 00
        E 60 90 61 60
        E 0 90 62 60
        E 0 90 63 60
        E 60 80 61 00
        E 0 80 62 00
        E 0 80 63 00
        E 60 90 49 60
        E 0 90 4b 60
        E 0 90 55 60
        E 0 90 57 60
        E 0 90 61 60
        E 0 90 62 60
        E 0 90 63 60
        E 60 80 49 00
        E 0 80 4b 00
        E 0 80 55 00
        E 0 80 57 00
        E 0 80 61 00
        E 0 80 62 00
        E 0 80 63 00
        E 60 90 61 60
        E 0 90 62 60
        E 0 90 63 60
        E 60 80 61 00
        E 0 80 62 00
        E 0 80 63 00
        E 60 90 55 60
        E 0 90 57 60
        E 0 90 61 60
        E 0 90 62 60
        E 0 90 63 60
        E 60 80 55 00
        E 0 80 57 00
        E 0 80 61 00
        E 0 80 62 00
        E 0 80 63 00
        E 60 90 61 60
        E 0 90 62 60
        E 0 90 63 60
        E 60 80 61 00
        E 0 80 62 00
        E 0 80 63 00
        E 60 90 3e 60
        E 0 90 4a 60
        E 0 90 56 60
        E 0 90 63 60
        E 120 80 3e 00
        E 0 80 4a 00
        E 240 80 56 00
        E 0 80 63 00
        E 120 90 49 60
        E 0 90 55 60
        E 0 90 62 60
        E 120 80 49 00
        E 240 80 55 00
        E 0 80 62 00
        E 120 90 3c 60
        E 0 90 48 60
        E 0 90 54 60
        E 0 90 61 60
        E 120 80 3c 00
        E 0 80 48 00
        E 60 90 74 58
        E 180 80 54 00
        E 0 80 61 00
        E 120 90 48 60
        E 0 90 4a 60
        E 0 90 54 60
        E 0 90 56 60
        E 0 90 60 60
        E 0 90 61 60
        E 0 90 63 60
        E 60 80 48 00
        E 0 80 4a 00
        E 0 80 54 00
        E 0 80 56 00
        E 0 80 60 00
        E 0 80 61 00
        E 0 80 63 00
        E 60 90 60 60
        E 0 90 61 60
        E 0 90 63 60
        E 60 80 60 00
        E 0 80 61 00
        E 0 80 63 00
        E 60 90 48 60
        E 0 90 4a 60
        E 0 90 54 60
        E 0 90 56 60
        E 0 90 60 60
        E 0 90 61 60
        E 0 90 63 60
        E 60 80 48 00
        E 0 80 4a 00
        E 0 80 54 00
        E 0 80 56 00
        E 0 80 60 00
        E 0 80 61 00
        E 0 80 63 00
        E 60 90 60 60
        E 0 90 61 60
        E 0 90 63 60
        E 60 80 60 00
        E 0 80 61 00
        E 0 80 63 00
        E 60 90 3d 60
        E 0 90 48 60
        E 0 90 4a 60
        E 0 90 54 60
        E 0 90 56 60
        E 0 90 60 60
        E 0 90 61 60
        E 0 90 63 60
        E 60 80 3d 00
        E 0 80 48 00
        E 0 80 4a 00
        E 0 80 54 00
        E 0 80 56 00
        E 0 80 60 00
        E 0 80 61 00
        E 0 80 63 00
        E 180 90 48 60
        E 0 90 4a 60
        E 0 90 54 60
        E 0 90 56 60
        E 0 90 60 60
        E 0 90 61 60
        E 0 90 63 60
        E 60 80 48 00
        E 0 80 4a 00
        E 0 80 54 00
        E 0 80 56 00
        E 0 80 60 00
        E 0 80 61 00
        E 0 80 63 00
        E 60 90 60 60
        E 0 90 61 60
        E 0 90 63 60
        E 60 80 60 00
        E 0 80 61 00
        E 0 80 63 00
        E 60 90 3d 60
        E 0 90 48 60
        E 0 90 4a 60
        E 0 90 54 60
        E 0 90 56 60
        E 0 90 60 60
        E 0 90 61 60
        E 0 90 63 60
        E 60 80 3d 00
        E 0 80 48 00
        E 0 80 4a 00
        E 0 80 54 00
        E 0 80 56 00
        E 0 80 60 00
        E 0 80 61 00
        E 0 80 63 00
        E 60 90 60 60
        E 0 90 61 60
        E 0 90 63 60
        E 60 80 60 00
        E 0 80 61 00
        E 0 80 63 00
        E 60 90 48 60
        E 0 90 4a 60
        E 0 90 54 60
        E 0 90 56 60
        E 0 90 60 60
        E 0 90 61 60
        E 0 90 63 60
        E 60 80 48 00
        E 0 80 4a 00
        E 0 80 54 00
        E 0 80 56 00
        E 0 80 60 00
        E 0 80 61 00
        E 0 80 63 00
        E 60 90 60 60
        E 0 90 61 60
        E 0 90 63 60
        E 60 80 60 00
        E 0 80 61 00
        E 0 80 63 00
        E 60 90 3d 60
        E 0 90 48 60
        E 0 90 4a 60
        E 0 90 54 60
        E 0 90 56 60
        E 0 90 60 60
        E 0 90 61 60
        E 0 90 63 60
        E 60 80 3d 00
        E 0 80 48 00
        E 0 80 4a 00
        E 0 80 54 00
        E 0 80 56 00
        E 0 80 60 00
        E 0 80 61 00
        E 0 80 63 00
        E 180 90 54 60
        E 0 90 55 60
        E 0 90 60 60
        E 0 90 61 60
        E 0 90 62 60
        E 61 80 54 00
        E 0 80 55 00
        E 0 80 60 00
        E 0 80 61 00
        E 0 80 62 00
        E 179 90 48 60
        E 0 90 49 60
        E 0 90 54 60
        E 0 90 55 60
        E 0 90 60 60
        E 0 90 61 60
        E 0 90 62 60
        E 120 80 48 00
        E 0 80 49 00
        E 0 80 54 00
        E 0 80 55 00
        E 180 80 60 00
        E 0 80 61 00
        E 0 80 62 00
        E 60 90 60 60
        E 0 90 61 60
        E 0 90 62 60
        E 61 80 60 00
        E 0 80 61 00
        E 0 80 62 00
        E 59 90 3c 60
        E 0 90 48 60
        E 0 90 49 60
        E 0 90 54 60
        E 0 90 55 60
        E 0 90 60 60
        E 0 90 61 60
        E 0 90 62 60
        E 61 80 3c 00
        E 0 80 48 00
        E 0 80 49 00
        E 0 80 54 00
        E 0 80 55 00
        E 0 80 60 00
        E 0 80 61 00
        E 0 80 62 00
        E 59 90 60 60
        E 0 90 61 60
        E 0 90 62 60
        E 61 80 60 00
        E 0 80 61 00
        E 0 80 62 00
        E 59 90 48 60
        E 0 90 49 60
        E 0 90 54 60
        E 0 90 55 60
        E 0 90 60 60
        E 0 90 61 60
        E 0 90 62 60
        E 61 80 48 00
        E 0 80 49 00
        E 0 80 54 00
        E 0 80 55 00
        E 0 80 60 00
        E 0 80 61 00
        E 0 80 62 00
        E 59 90 60 60
        E 0 90 61 60
        E 0 90 62 60
        E 61 80 60 00
        E 0 80 61 00
        E 0 80 62 00
        E 59 90 3c 60
        E 0 90 48 60
        E 0 90 49 60
        E 0 90 54 60
        E 0 90 55 60
        E 0 90 60 60
        E 0 90 61 60
        E 0 90 62 60
        E 61 80 3c 00
        E 0 80 48 00
        E 0 80 49 00
        E 0 80 54 00
        E 0 80 55 00
        E 0 80 60 00
        E 0 80 61 00
        E 0 80 62 00
        E 59 90 60 60
        E 0 90 61 60
        E 0 90 62 60
        E 61 80 60 00
        E 0 80 61 00
        E 0 80 62 00
        E 59 90 48 60
        E 0 90 49 60
        E 0 90 54 60
        E 0 90 55 60
        E 0 90 60 60
        E 0 90 61 60
        E 0 90 62 60
        E 61 80 48 00
        E 0 80 49 00
        E 0 80 54 00
        E 0 80 55 00
        E 0 80 60 00
        E 0 80 61 00
        E 0 80 62 00
        E 59 90 60 60
        E 0 90 61 60
        E 0 90 62 60
        E 61 80 60 00
        E 0 80 61 00
        E 0 80 62 00
        E 59 90 3c 60
        E 0 90 48 60
        E 0 90 49 60
        E 0 90 54 60
        E 0 90 55 60
        E 0 90 60 60
        E 0 90 61 60
        E 0 90 62 60
        E 59 80 74 00
        E 1 80 3c 00
        E 0 80 48 00
        E 0 80 49 00
        E 0 80 54 00
        E 0 80 55 00
        E 0 80 60 00
        E 0 80 61 00
        E 0 80 62 00
        E 300 90 61 60
        E 0 90 62 60
        E 0 90 63 60
        E 60 80 61 00
        E 0 80 62 00
        E 0 80 63 00
        E 60 90 49 60
        E 0 90 4b 60
        E 0 90 55 60
        E 0 90 57 60
        E 0 90 61 60
        E 0 90 62 60
        E 0 90 63 60
        E 60 80 49 00
        E 0 80 4b 00
        E 0 80 55 00
        E 0 80 57 00
        E 0 80 61 00
        E 0 80 62 00
        E 0 80 63 00
        E 180 90 55 60
        E 0 90 57 60
        E 0 90 61 60
        E 0 90 62 60
        E 0 90 63 60
        E 60 80 55 00
        E 0 80 57 00
        E 0 80 61 00
        E 0 80 62 00
        E 0 80 63 00
        E 180 90 3d 60
        E 0 90 48 60
        E 0 90 4a 60
        E 0 90 54 60
        E 0 90 56 60
        E 0 90 60 60
        E 0 90 61 60
        E 0 90 63 60
        E 60 80 3d 00
        E 0 80 48 00
        E 0 80 4a 00
        E 0 80 54 00
        E 0 80 56 00
        E 0 80 60 00
        E 0 80 61 00
        E 0 80 63 00
        E 180 90 48 60
        E 0 90 4a 60
        E 0 90 54 60
        E 0 90 56 60
        E 0 90 60 60
        E 0 90 61 60
        E 0 90 63 60
        E 60 80 48 00
        E 0 80 4a 00
        E 0 80 54 00
        E 0 80 56 00
        E 0 80 60 00
        E 0 80 61 00
        E 0 80 63 00
        E 180 90 3d 60
        E 0 90 48 60
        E 0 90 4a 60
        E 0 90 54 60
        E 0 90 56 60
        E 0 90 60 60
        E 0 90 61 60
        E 0 90 63 60
        E 60 80 3d 00
        E 0 80 48 00
        E 0 80 4a 00
        E 0 80 54 00
        E 0 80 56 00
        E 0 80 60 00
        E 0 80 61 00
        E 0 80 63 00
        E 180 90 48 60
        E 0 90 4a 60
        E 0 90 54 60
        E 0 90 56 60
        E 0 90 60 60
        E 0 90 61 60
        E 0 90 63 60
        E 60 80 48 00
        E 0 80 4a 00
        E 0 80 54 00
        E 0 80 56 00
        E 0 80 60 00
        E 0 80 61 00
        E 0 80 63 00
        E 60 90 60 60
        E 0 90 61 60
        E 0 90 63 60
        E 60 80 60 00
        E 0 80 61 00
        E 0 80 63 00
        E 60 90 3d 60
        E 0 90 48 60
        E 0 90 4a 60
        E 0 90 54 60
        E 0 90 56 60
        E 0 90 60 60
        E 0 90 61 60
        E 0 90 63 60
        E 60 80 3d 00
        E 0 80 48 00
        E 0 80 4a 00
        E 0 80 54 00
        E 0 80 56 00
        E 0 80 60 00
        E 0 80 61 00
        E 0 80 63 00
        E 180 90 54 60
        E 0 90 55 60
        E 0 90 60 60
        E 0 90 61 60
        E 0 90 62 60
        E 60 80 54 00
        E 0 80 55 00
        E 0 80 60 00
        E 0 80 61 00
        E 0 80 62 00
        E 60 90 60 60
        E 0 90 61 60
        E 0 90 62 60
        E 60 80 60 00
        E 0 80 61 00
        E 0 80 62 00
        E 60 90 48 60
        E 0 90 49 60
        E 0 90 54 60
        E 0 90 55 60
        E 0 90 60 60
        E 0 90 61 60
        E 0 90 62 60
        E 120 80 48 00
        E 0 80 49 00
        E 240 80 54 00
        E 0 80 55 00
        E 60 80 60 00
        E 0 80 61 00
        E 0 80 62 00
        E 60 90 40 60
        E 0 90 4a 60
        E 0 90 4b 60
        E 0 90 55 60
        E 0 90 58 60
        E 0 90 61 60
        E 0 90 62 60
        E 0 90 64 60
        E 60 80 40 00
        E 0 80 4a 00
        E 0 80 4b 00
        E 0 80 55 00
        E 0 80 58 00
        E 0 80 61 00
        E 0 80 62 00
        E 0 80 64 00
        E 60 90 61 60
        E 0 90 62 60
        E 0 90 64 60
        E 60 80 61 00
        E 0 80 62 00
        E 0 80 64 00
        E 60 90 4a 60
        E 0 90 4b 60
        E 0 90 55 60
        E 0 90 58 60
        E 0 90 61 60
        E 0 90 62 60
        E 0 90 64 60
        E 60 80 4a 00
        E 0 80 4b 00
        E 0 80 55 00
        E 0 80 58 00
        E 0 80 61 00
        E 0 80 62 00
        E 0 80 64 00
        E 60 90 61 60
        E 0 90 62 60
        E 0 90 64 60
        E 60 80 61 00
        E 0 80 62 00
        E 0 80 64 00
        E 60 90 40 60
        E 0 90 4a 60
        E 0 90 4b 60
        E 0 90 55 60
        E 0 90 58 60
        E 0 90 61 60
        E 0 90 62 60
        E 0 90 64 60
        E 60 80 40 00
        E 0 80 4a 00
        E 0 80 4b 00
        E 0 80 55 00
        E 0 80 58 00
        E 0 80 61 00
        E 0 80 62 00
        E 0 80 64 00
        E 60 90 61 60
        E 0 90 62 60
        E 0 90 64 60
        E 60 80 61 00
        E 0 80 62 00
        E 0 80 64 00
        E 60 90 4a 60
        E 0 90 4b 60
        E 0 90 55 60
        E 0 90 58 60
        E 0 90 61 60
        E 0 90 62 60
        E 0 90 64 60
        E 60 80 4a 00
        E 0 80 4b 00
        E 0 80 55 00
        E 0 80 58 00
        E 0 80 61 00
        E 0 80 62 00
        E 0 80 64 00
        E 60 90 61 60
        E 0 90 62 60
        E 0 90 64 60
        E 60 80 61 00
        E 0 80 62 00
        E 0 80 64 00
        E 60 90 40 60
        E 0 90 4a 60
        E 0 90 4b 60
        E 0 90 55 60
        E 0 90 58 60
        E 0 90 61 60
        E 0 90 62 60
        E 0 90 64 60
        E 60 80 40 00
        E 0 80 4a 00
        E 0 80 4b 00
        E 0 80 55 00
        E 0 80 58 00
        E 0 80 61 00
        E 0 80 62 00
        E 0 80 64 00
        E 180 90 55 60
        E 0 90 57 60
        E 0 90 61 60
        E 0 90 62 60
        E 0 90 63 60
        E 60 80 55 00
        E 0 80 57 00
        E 0 80 61 00
        E 0 80 62 00
        E 0 80 63 00
        E 60 90 61 60
        E 0 90 62 60
        E 0 90 63 60
        E 60 80 61 00
        E 0 80 62 00
        E 0 80 63 00
        E 60 90 49 60
        E 0 90 4b 60
        E 0 90 55 60
        E 0 90 57 60
        E 0 90 61 60
        E 0 90 62 60
        E 0 90 63 60
        E 60 80 49 00
        E 0 80 4b 00
        E 0 80 55 00
        E 0 80 57 00
        E 0 80 61 00
        E 0 80 62 00
        E 0 80 63 00
        E 60 90 61 60
        E 0 90 62 60
        E 0 90 63 60
        E 60 80 61 00
        E 0 80 62 00
        E 0 80 63 00
        E 60 90 49 60
        E 0 90 4b 60
        E 0 90 55 60
        E 0 90 57 60
        E 0 90 61 60
        E 0 90 62 60
        E 0 90 63 60
        E 60 80 49 00
        E 0 80 4b 00
        E 0 80 55 00
        E 0 80 57 00
        E 0 80 61 00
        E 0 80 62 00
        E 0 80 63 00
        E 60 90 61 60
        E 0 90 62 60
        E 0 90 63 60
        E 60 80 61 00
        E 0 80 62 00
        E 0 80 63 00
        E 60 90 3f 60
        E 0 90 49 60
        E 0 90 4b 60
        E 0 90 55 60
        E 0 90 57 60
        E 0 90 61 60
        E 0 90 62 60
        E 0 90 63 60
        E 120 80 3f 00
        E 0 80 49 00
        E 0 80 4b 00
        E 0 80 55 00
        E 0 80 57 00
        E 180 80 61 00
        E 0 80 62 00
        E 0 80 63 00
        E 60 90 60 60
        E 0 90 61 60
        E 0 90 62 60
        E 60 80 60 00
        E 0 80 61 00
        E 0 80 62 00
        E 60 90 48 60
        E 0 90 49 60
        E 0 90 54 60
        E 0 90 55 60
        E 0 90 60 60
        E 0 90 61 60
        E 0 90 62 60
        E 60 80 48 00
        E 0 80 49 00
        E 0 80 54 00
        E 0 80 55 00
        E 0 80 60 00
        E 0 80 61 00
        E 0 80 62 00
        E 60 90 60 60
        E 0 90 61 60
        E 0 90 62 60
        E 60 80 60 00
        E 0 80 61 00
        E 0 80 62 00
        E 60 90 48 60
        E 0 90 49 60
        E 0 90 54 60
        E 0 90 55 60
        E 0 90 60 60
        E 0 90 61 60
        E 0 90 62 60
        E 60 80 48 00
        E 0 80 49 00
        E 0 80 54 00
        E 0 80 55 00
        E 0 80 60 00
        E 0 80 61 00
        E 0 80 62 00
        E 60 90 60 60
        E 0 90 61 60
        E 0 90 62 60
        E 60 80 60 00
        E 0 80 61 00
        E 0 80 62 00
        E 60 90 3c 60
        E 0 90 48 60
        E 0 90 49 60
        E 0 90 54 60
        E 0 90 55 60
        E 0 90 60 60
        E 0 90 61 60
        E 0 90 62 60
        E 120 80 3c 00
        E 0 80 48 00
        E 0 80 49 00
        E 240 80 54 00
        E 0 80 55 00
        E 60 80 60 00
        E 0 80 61 00
        E 0 80 62 00
        E 60 90 4a 60
        E 0 90 4b 60
        E 0 90 55 60
        E 0 90 58 60
        E 0 90 61 60
        E 0 90 62 60
        E 0 90 64 60
        E 60 80 4a 00
        E 0 80 4b 00
        E 0 80 55 00
        E 0 80 58 00
        E 0 80 61 00
        E 0 80 62 00
        E 0 80 64 00
        E 60 90 61 60
        E 0 90 62 60
        E 0 90 64 60
        E 60 80 61 00
        E 0 80 62 00
        E 0 80 64 00
        E 60 90 55 60
        E 0 90 58 60
        E 0 90 61 60
        E 0 90 62 60
        E 0 90 64 60
        E 60 80 55 00
        E 0 80 58 00
        E 0 80 61 00
        E 0 80 62 00
        E 0 80 64 00
        E 60 90 61 60
        E 0 90 62 60
        E 0 90 64 60
        E 60 80 61 00
        E 0 80 62 00
        E 0 80 64 00
        E 60 90 40 60
        E 0 90 4a 60
        E 0 90 4b 60
        E 0 90 56 60
        E 0 90 58 60
        E 0 90 61 60
        E 0 90 63 60
        E 0 90 64 60
        E 60 80 40 00
        E 0 80 4a 00
        E 0 80 4b 00
        E 0 80 56 00
        E 0 80 58 00
        E 0 80 61 00
        E 0 80 63 00
        E 0 80 64 00
        E 60 90 61 60
        E 0 90 63 60
        E 0 90 64 60
        E 60 80 61 00
        E 0 80 63 00
        E 0 80 64 00
        E 60 90 4a 60
        E 0 90 4b 60
        E 0 90 56 60
        E 0 90 58 60
        E 0 90 61 60
        E 0 90 63 60
        E 0 90 64 60
        E 60 80 4a 00
        E 0 80 4b 00
        E 0 80 56 00
        E 0 80 58 00
        E 0 80 61 00
        E 0 80 63 00
        E 0 80 64 00
        E 60 90 61 60
        E 0 90 63 60
        E 0 90 64 60
        E 60 80 61 00
        E 0 80 63 00
        E 0 80 64 00
        E 60 90 40 60
        E 0 90 4a 60
        E 0 90 4b 60
        E 0 90 56 60
        E 0 90 58 60
        E 0 90 61 60
        E 0 90 63 60
        E 0 90 64 60
        E 60 80 40 00
        E 0 80 4a 00
        E 0 80 4b 00
        E 0 80 56 00
        E 0 80 58 00
        E 0 80 61 00
        E 0 80 63 00
        E 0 80 64 00
        E 60 90 61 60
        E 0 90 63 60
        E 0 90 64 60
        E 60 80 61 00
        E 0 80 63 00
        E 0 80 64 00
        E 60 90 4a 60
        E 0 90 4b 60
        E 0 90 56 60
        E 0 90 58 60
        E 0 90 61 60
        E 0 90 63 60
        E 0 90 64 60
        E 60 80 4a 00
        E 0 80 4b 00
        E 0 80 56 00
        E 0 80 58 00
        E 0 80 61 00
        E 0 80 63 00
        E 0 80 64 00
        E 60 90 61 60
        E 0 90 63 60
        E 0 90 64 60
        E 60 80 61 00
        E 0 80 63 00
        E 0 80 64 00
        E 60 90 40 60
        E 0 90 4a 60
        E 0 90 4b 60
        E 0 90 56 60
        E 0 90 58 60
        E 0 90 61 60
        E 0 90 63 60
        E 0 90 64 60
        E 60 80 40 00
        E 0 80 4a 00
        E 0 80 4b 00
        E 0 80 56 00
        E 0 80 58 00
        E 0 80 61 00
        E 0 80 63 00
        E 0 80 64 00
        E 180 90 55 60
        E 0 90 57 60
        E 0 90 61 60
        E 0 90 62 60
        E 0 90 63 60
        E 60 80 55 00
        E 0 80 57 00
        E 0 80 61 00
        E 0 80 62 00
        E 0 80 63 00
        E 60 90 61 60
        E 0 90 62 60
        E 0 90 63 60
        E 60 80 61 00
        E 0 80 62 00
        E 0 80 63 00
        E 60 90 49 60
        E 0 90 4b 60
        E 0 90 55 60
        E 0 90 57 60
        E 0 90 61 60
        E 0 90 62 60
        E 0 90 63 60
        E 60 80 49 00
        E 0 80 4b 00
        E 0 80 55 00
        E 0 80 57 00
        E 0 80 61 00
        E 0 80 62 00
        E 0 80 63 00
        E 60 90 61 60
        E 0 90 62 60
        E 0 90 63 60
        E 60 80 61 00
        E 0 80 62 00
        E 0 80 63 00
        E 60 90 49 60
        E 0 90 4b 60
        E 0 90 55 60
        E 0 90 57 60
        E 0 90 61 60
        E 0 90 62 60
        E 0 90 63 60
        E 60 80 49 00
        E 0 80 4b 00
        E 0 80 55 00
        E 0 80 57 00
        E 0 80 61 00
        E 0 80 62 00
        E 0 80 63 00
        E 60 90 61 60
        E 0 90 62 60
        E 0 90 63 60
        E 60 80 61 00
        E 0 80 62 00
        E 0 80 63 00
        E 60 90 3f 60
        E 0 90 49 60
        E 0 90 4b 60
        E 0 90 55 60
        E 0 90 57 60
        E 0 90 61 60
        E 0 90 62 60
        E 0 90 63 60
        E 60 80 3f 00
        E 0 80 49 00
        E 0 80 4b 00
        E 0 80 55 00
        E 0 80 57 00
        E 0 80 61 00
        E 0 80 62 00
        E 0 80 63 00
        E 180 90 54 60
        E 0 90 56 60
        E 0 90 60 60
        E 0 90 61 60
        E 0 90 63 60
        E 60 80 54 00
        E 0 80 56 00
        E 0 80 60 00
        E 0 80 61 00
        E 0 80 63 00
        E 180 90 48 60
        E 0 90 4a 60
        E 0 90 54 60
        E 0 90 56 60
        E 0 90 60 60
        E 0 90 61 60
        E 0 90 63 60
        E 60 80 48 00
        E 0 80 4a 00
        E 0 80 54 00
        E 0 80 56 00
        E 0 80 60 00
        E 0 80 61 00
        E 0 80 63 00
        E 60 90 60 60
        E 0 90 61 60
        E 0 90 63 60
        E 60 80 60 00
        E 0 80 61 00
        E 0 80 63 00
        E 60 90 54 60
        E 0 90 56 60
        E 0 90 60 60
        E 0 90 61 60
        E 0 90 63 60
        E 60 80 54 00
        E 0 80 56 00
        E 0 80 60 00
        E 0 80 61 00
        E 0 80 63 00
        E 180 90 3c 60
        E 0 90 48 60
        E 0 90 49 60
        E 0 90 54 60
        E 0 90 55 60
        E 0 90 60 60
        E 0 90 61 60
        E 0 90 62 60
        E 60 80 3c 00
        E 0 80 48 00
        E 0 80 49 00
        E 0 80 54 00
        E 0 80 55 00
        E 0 80 60 00
        E 0 80 61 00
        E 0 80 62 00
        E 180 90 48 60
        E 0 90 49 60
        E 0 90 54 60
        E 0 90 55 60
        E 0 90 60 60
        E 0 90 61 60
        E 0 90 62 60
        E 60 80 48 00
        E 0 80 49 00
        E 0 80 54 00
        E 0 80 55 00
        E 0 80 60 00
        E 0 80 61 00
        E 0 80 62 00
        E 60 90 60 60
        E 0 90 61 60
        E 0 90 62 60
        E 60 80 60 00
        E 0 80 61 00
        E 0 80 62 00
        E 60 90 48 60
        E 0 90 49 60
        E 0 90 54 60
        E 0 90 55 60
        E 0 90 60 60
        E 0 90 61 60
        E 0 90 62 60
        E 60 80 48 00
        E 0 80 49 00
        E 0 80 54 00
        E 0 80 55 00
        E 0 80 60 00
        E 0 80 61 00
        E 0 80 62 00
        E 180 90 55 60
        E 0 90 58 60
        E 0 90 61 60
        E 0 90 62 60
        E 0 90 64 60
        E 60 80 55 00
        E 0 80 58 00
        E 0 80 61 00
        E 0 80 62 00
        E 0 80 64 00
        E 60 90 61 60
        E 0 90 62 60
        E 0 90 64 60
        E 60 80 61 00
        E 0 80 62 00
        E 0 80 64 00
        E 60 90 40 60
        E 0 90 4a 60
        E 0 90 4b 60
        E 0 90 55 60
        E 0 90 58 60
        E 0 90 61 60
        E 0 90 62 60
        E 0 90 64 60
        E 60 80 40 00
        E 0 80 4a 00
        E 0 80 4b 00
        E 0 80 55 00
        E 0 80 58 00
        E 0 80 61 00
        E 0 80 62 00
        E 0 80 64 00
        E 60 90 61 60
        E 0 90 62 60
        E 0 90 64 60
        E 60 80 61 00
        E 0 80 62 00
        E 0 80 64 00
        E 60 90 4a 60
        E 0 90 4b 60
        E 0 90 55 60
        E 0 90 58 60
        E 0 90 61 60
        E 0 90 62 60
        E 0 90 64 60
        E 60 80 4a 00
        E 0 80 4b 00
        E 0 80 55 00
        E 0 80 58 00
        E 0 80 61 00
        E 0 80 62 00
        E 0 80 64 00
        E 60 90 61 60
        E 0 90 62 60
        E 0 90 64 60
        E 60 80 61 00
        E 0 80 62 00
        E 0 80 64 00
        E 60 90 40 60
        E 0 90 4a 60
        E 0 90 4b 60
        E 0 90 55 60
        E 0 90 58 60
        E 0 90 61 60
        E 0 90 62 60
        E 0 90 64 60
        E 60 80 40 00
        E 0 80 4a 00
        E 0 80 4b 00
        E 0 80 55 00
        E 0 80 58 00
        E 0 80 61 00
        E 0 80 62 00
        E 0 80 64 00
        E 60 90 61 60
        E 0 90 62 60
        E 0 90 64 60
        E 60 80 61 00
        E 0 80 62 00
        E 0 80 64 00
        E 60 90 4a 60
        E 0 90 4b 60
        E 0 90 55 60
        E 0 90 58 60
        E 0 90 61 60
        E 0 90 62 60
        E 0 90 64 60
        E 60 80 4a 00
        E 0 80 4b 00
        E 0 80 55 00
        E 0 80 58 00
        E 0 80 61 00
        E 0 80 62 00
        E 0 80 64 00
        E 60 90 61 60
        E 0 90 62 60
        E 0 90 64 60
        E 60 80 61 00
        E 0 80 62 00
        E 0 80 64 00
        E 60 90 40 60
        E 0 90 4a 60
        E 0 90 4b 60
        E 0 90 55 60
        E 0 90 58 60
        E 0 90 61 60
        E 0 90 62 60
        E 0 90 64 60
        E 60 80 40 00
        E 0 80 4a 00
        E 0 80 4b 00
        E 0 80 55 00
        E 0 80 58 00
        E 0 80 61 00
        E 0 80 62 00
        E 0 80 64 00
        E 180 90 55 60
        E 0 90 57 60
        E 0 90 61 60
        E 0 90 62 60
        E 0 90 63 60
        E 60 80 55 00
        E 0 80 57 00
        E 0 80 61 00
        E 0 80 62 00
        E 0 80 63 00
        E 60 90 61 60
        E 0 90 62 60
        E 0 90 63 60
        E 60 80 61 00
        E 0 80 62 00
        E 0 80 63 00
        E 60 90 49 60
        E 0 90 4b 60
        E 0 90 55 60
        E 0 90 57 60
        E 0 90 61 60
        E 0 90 62 60
        E 0 90 63 60
        E 60 80 49 00
        E 0 80 4b 00
        E 0 80 55 00
        E 0 80 57 00
        E 0 80 61 00
        E 0 80 62 00
        E 0 80 63 00
        E 60 90 61 60
        E 0 90 62 60
        E 0 90 63 60
        E 60 80 61 00
        E 0 80 62 00
        E 0 80 63 00
        E 60 90 49 60
        E 0 90 4b 60
        E 0 90 55 60
        E 0 90 57 60
        E 0 90 61 60
        E 0 90 62 60
        E 0 90 63 60
        E 60 80 49 00
        E 0 80 4b 00
        E 0 80 55 00
        E 0 80 57 00
        E 0 80 61 00
        E 0 80 62 00
        E 0 80 63 00
        E 60 90 61 60
        E 0 90 62 60
        E 0 90 63 60
        E 60 80 61 00
        E 0 80 62 00
        E 0 80 63 00
        E 60 90 3f 60
        E 0 90 49 60
        E 0 90 4b 60
        E 0 90 55 60
        E 0 90 57 60
        E 0 90 61 60
        E 0 90 62 60
        E 0 90 63 60
        E 60 80 3f 00
        E 0 80 49 00
        E 0 80 4b 00
        E 0 80 55 00
        E 0 80 57 00
        E 0 80 61 00
        E 0 80 62 00
        E 0 80 63 00
        E 180 90 74 66
        E 0 90 54 60
        E 0 90 55 60
        E 0 90 60 60
        E 0 90 61 60
        E 0 90 62 60
        E 60 80 54 00
        E 0 80 55 00
        E 0 80 60 00
        E 0 80 61 00
        E 0 80 62 00
        E 60 90 60 60
        E 0 90 61 60
        E 0 90 62 60
        E 60 80 60 00
        E 0 80 61 00
        E 0 80 62 00
        E 60 90 48 60
        E 0 90 49 60
        E 0 90 54 60
        E 0 90 55 60
        E 0 90 60 60
        E 0 90 61 60
        E 0 90 62 60
        E 60 80 48 00
        E 0 80 49 00
        E 0 80 54 00
        E 0 80 55 00
        E 0 80 60 00
        E 0 80 61 00
        E 0 80 62 00
        E 60 90 60 60
        E 0 90 61 60
        E 0 90 62 60
        E 60 80 60 00
        E 0 80 61 00
        E 0 80 62 00
        E 60 90 48 60
        E 0 90 49 60
        E 0 90 54 60
        E 0 90 55 60
        E 0 90 60 60
        E 0 90 61 60
        E 0 90 62 60
        E 60 80 48 00
        E 0 80 49 00
        E 0 80 54 00
        E 0 80 55 00
        E 0 80 60 00
        E 0 80 61 00
        E 0 80 62 00
        E 60 90 60 60
        E 0 90 61 60
        E 0 90 62 60
        E 60 80 60 00
        E 0 80 61 00
        E 0 80 62 00
        E 60 90 3c 60
        E 0 90 48 60
        E 0 90 49 60
        E 0 90 54 60
        E 0 90 55 60
        E 0 90 60 60
        E 0 90 61 60
        E 0 90 62 60
        E 120 80 3c 00
        E 0 80 48 00
        E 0 80 49 00
        E 240 80 54 00
        E 0 80 55 00
        E 60 80 60 00
        E 0 80 61 00
        E 0 80 62 00
        E 60 80 74 00
        E 0 90 4a 60
        E 0 90 4b 60
        E 0 90 55 60
        E 0 90 58 60
        E 0 90 61 60
        E 0 90 62 60
        E 0 90 64 60
        E 60 80 4a 00
        E 0 80 4b 00
        E 0 80 55 00
        E 0 80 58 00
        E 0 80 61 00
        E 0 80 62 00
        E 0 80 64 00
        E 60 90 61 60
        E 0 90 62 60
        E 0 90 64 60
        E 60 80 61 00
        E 0 80 62 00
        E 0 80 64 00
        E 60 90 55 60
        E 0 90 58 60
        E 0 90 61 60
        E 0 90 62 60
        E 0 90 64 60
        E 60 80 55 00
        E 0 80 58 00
        E 0 80 61 00
        E 0 80 62 00
        E 0 80 64 00
        E 60 90 61 60
        E 0 90 62 60
        E 0 90 64 60
        E 60 80 61 00
        E 0 80 62 00
        E 0 80 64 00
        E 60 90 40 60
        E 0 90 4a 60
        E 0 90 4b 60
        E 0 90 56 60
        E 0 90 58 60
        E 0 90 61 60
        E 0 90 63 60
        E 0 90 64 60
        E 60 80 40 00
        E 0 80 4a 00
        E 0 80 4b 00
        E 0 80 56 00
        E 0 80 58 00
        E 0 80 61 00
        E 0 80 63 00
        E 0 80 64 00
        E 60 90 61 60
        E 0 90 63 60
        E 0 90 64 60
        E 60 80 61 00
        E 0 80 63 00
        E 0 80 64 00
        E 60 90 4a 60
        E 0 90 4b 60
        E 0 90 56 60
        E 0 90 58 60
        E 0 90 61 60
        E 0 90 63 60
        E 0 90 64 60
        E 60 80 4a 00
        E 0 80 4b 00
        E 0 80 56 00
        E 0 80 58 00
        E 0 80 61 00
        E 0 80 63 00
        E 0 80 64 00
        E 60 90 61 60
        E 0 90 63 60
        E 0 90 64 60
        E 60 80 61 00
        E 0 80 63 00
        E 0 80 64 00
        E 60 90 40 60
        E 0 90 4a 60
        E 0 90 4b 60
        E 0 90 56 60
        E 0 90 58 60
        E 0 90 61 60
        E 0 90 63 60
        E 0 90 64 60
        E 60 80 40 00
        E 0 80 4a 00
        E 0 80 4b 00
        E 0 80 56 00
        E 0 80 58 00
        E 0 80 61 00
        E 0 80 63 00
        E 0 80 64 00
        E 60 90 61 60
        E 0 90 63 60
        E 0 90 64 60
        E 60 80 61 00
        E 0 80 63 00
        E 0 80 64 00
        E 60 90 4a 60
        E 0 90 4b 60
        E 0 90 56 60
        E 0 90 58 60
        E 0 90 61 60
        E 0 90 63 60
        E 0 90 64 60
        E 60 80 4a 00
        E 0 80 4b 00
        E 0 80 56 00
        E 0 80 58 00
        E 0 80 61 00
        E 0 80 63 00
        E 0 80 64 00
        E 60 90 61 60
        E 0 90 63 60
        E 0 90 64 60
        E 60 80 61 00
        E 0 80 63 00
        E 0 80 64 00
        E 60 90 40 60
        E 0 90 4a 60
        E 0 90 4b 60
        E 0 90 56 60
        E 0 90 58 60
        E 0 90 61 60
        E 0 90 63 60
        E 0 90 64 60
        E 120 80 40 00
        E 0 80 4a 00
        E 0 80 4b 00
        E 240 80 56 00
        E 0 80 58 00
        E 60 80 61 00
        E 0 80 63 00
        E 0 80 64 00
        E 60 90 48 60
        E 0 90 49 60
        E 0 90 54 60
        E 0 90 55 60
        E 0 90 60 60
        E 0 90 61 60
        E 0 90 62 60
        E 60 80 48 00
        E 0 80 49 00
        E 0 80 54 00
        E 0 80 55 00
        E 0 80 60 00
        E 0 80 61 00
        E 0 80 62 00
        E 180 90 48 60
        E 0 90 49 60
        E 0 90 54 60
        E 0 90 55 60
        E 0 90 60 60
        E 0 90 61 60
        E 0 90 62 60
        E 60 80 48 00
        E 0 80 49 00
        E 0 80 54 00
        E 0 80 55 00
        E 0 80 60 00
        E 0 80 61 00
        E 0 80 62 00
        E 60 90 60 60
        E 0 90 61 60
        E 0 90 62 60
        E 60 80 60 00
        E 0 80 61 00
        E 0 80 62 00
        E 60 90 3c 60
        E 0 90 48 60
        E 0 90 49 60
        E 0 90 54 60
        E 0 90 55 60
        E 0 90 60 60
        E 0 90 61 60
        E 0 90 62 60
        E 120 80 3c 00
        E 0 80 48 00
        E 0 80 49 00
        E 0 80 54 00
        E 0 80 55 00
        E 180 80 60 00
        E 0 80 61 00
        E 0 80 62 00
        E 60 90 60 60
        E 0 90 61 60
        E 0 90 62 60
        E 60 80 60 00
        E 0 80 61 00
        E 0 80 62 00
        E 60 90 3c 60
        E 0 90 48 60
        E 0 90 49 60
        E 0 90 54 60
        E 0 90 55 60
        E 0 90 60 60
        E 0 90 61 60
        E 0 90 62 60
        E 60 80 3c 00
        E 0 80 48 00
        E 0 80 49 00
        E 0 80 54 00
        E 0 80 55 00
        E 0 80 60 00
        E 0 80 61 00
        E 0 80 62 00
        E 60 90 60 60
        E 0 90 61 60
        E 0 90 62 60
        E 60 80 60 00
        E 0 80 61 00
        E 0 80 62 00
        E 60 90 48 60
        E 0 90 49 60
        E 0 90 54 60
        E 0 90 55 60
        E 0 90 60 60
        E 0 90 61 60
        E 0 90 62 60
        E 60 80 48 00
        E 0 80 49 00
        E 0 80 54 00
        E 0 80 55 00
        E 0 80 60 00
        E 0 80 61 00
        E 0 80 62 00
        E 60 90 60 60
        E 0 90 61 60
        E 0 90 62 60
        E 60 80 60 00
        E 0 80 61 00
        E 0 80 62 00
        E 60 90 3c 60
        E 0 90 48 60
        E 0 90 49 60
        E 0 90 54 60
        E 0 90 55 60
        E 0 90 60 60
        E 0 90 61 60
        E 0 90 62 60
        E 60 80 3c 00
        E 0 80 48 00
        E 0 80 49 00
        E 0 80 54 00
        E 0 80 55 00
        E 0 80 60 00
        E 0 80 61 00
        E 0 80 62 00
        E 180 90 55 60
        E 0 90 57 60
        E 0 90 61 60
        E 0 90 62 60
        E 0 90 63 60
        E 60 80 55 00
        E 0 80 57 00
        E 0 80 61 00
        E 0 80 62 00
        E 0 80 63 00
        E 180 90 49 60
        E 0 90 4b 60
        E 0 90 55 60
        E 0 90 57 60
        E 0 90 61 60
        E 0 90 62 60
        E 0 90 63 60
        E 60 80 49 00
        E 0 80 4b 00
        E 0 80 55 00
        E 0 80 57 00
        E 0 80 61 00
        E 0 80 62 00
        E 0 80 63 00
        E 180 90 55 60
        E 0 90 57 60
        E 0 90 61 60
        E 0 90 62 60
        E 0 90 63 60
        E 60 80 55 00
        E 0 80 57 00
        E 0 80 61 00
        E 0 80 62 00
        E 0 80 63 00
        E 60 90 61 60
        E 0 90 62 60
        E 0 90 63 60
        E 60 80 61 00
        E 0 80 62 00
        E 0 80 63 00
        E 60 90 3e 60
        E 0 90 4a 60
        E 0 90 56 60
        E 0 90 63 60
        E 120 80 3e 00
        E 0 80 4a 00
        E 240 80 56 00
        E 0 80 63 00
        E 120 90 49 60
        E 0 90 55 60
        E 0 90 62 60
        E 120 80 49 00
        E 240 80 55 00
        E 0 80 62 00
        E 120 90 3c 60
        E 0 90 48 60
        E 0 90 54 60
        E 0 90 61 60
        E 120 80 3c 00
        E 0 80 48 00
        E 240 80 54 00
        E 0 80 61 00
        E 120 90 48 60
        E 0 90 4a 60
        E 0 90 54 60
        E 0 90 56 60
        E 0 90 60 60
        E 0 90 61 60
        E 0 90 63 60
        E 60 80 48 00
        E 0 80 4a 00
        E 0 80 54 00
        E 0 80 56 00
        E 0 80 60 00
        E 0 80 61 00
        E 0 80 63 00
        E 60 90 60 60
        E 0 90 61 60
        E 0 90 63 60
        E 60 80 60 00
        E 0 80 61 00
        E 0 80 63 00
        E 60 90 48 60
        E 0 90 4a 60
        E 0 90 54 60
        E 0 90 56 60
        E 0 90 60 60
        E 0 90 61 60
        E 0 90 63 60
        E 60 80 48 00
        E 0 80 4a 00
        E 0 80 54 00
        E 0 80 56 00
        E 0 80 60 00
        E 0 80 61 00
        E 0 80 63 00
        E 60 90 60 60
        E 0 90 61 60
        E 0 90 63 60
        E 60 80 60 00
        E 0 80 61 00
        E 0 80 63 00
        E 60 90 3d 60
        E 0 90 48 60
        E 0 90 4a 60
        E 0 90 54 60
        E 0 90 56 60
        E 0 90 60 60
        E 0 90 61 60
        E 0 90 63 60
        E 60 80 3d 00
        E 0 80 48 00
        E 0 80 4a 00
        E 0 80 54 00
        E 0 80 56 00
        E 0 80 60 00
        E 0 80 61 00
        E 0 80 63 00
        E 60 90 60 60
        E 0 90 61 60
        E 0 90 63 60
        E 60 80 60 00
        E 0 80 61 00
        E 0 80 63 00
        E 60 90 48 60
        E 0 90 4a 60
        E 0 90 54 60
        E 0 90 56 60
        E 0 90 60 60
        E 0 90 61 60
        E 0 90 63 60
        E 60 80 48 00
        E 0 80 4a 00
        E 0 80 54 00
        E 0 80 56 00
        E 0 80 60 00
        E 0 80 61 00
        E 0 80 63 00
        E 60 90 60 60
        E 0 90 61 60
        E 0 90 63 60
        E 60 80 60 00
        E 0 80 61 00
        E 0 80 63 00
        E 60 90 3d 60
        E 0 90 48 60
        E 0 90 4a 60
        E 0 90 54 60
        E 0 90 56 60
        E 0 90 60 60
        E 0 90 61 60
        E 0 90 63 60
        E 60 80 3d 00
        E 0 80 48 00
        E 0 80 4a 00
        E 0 80 54 00
        E 0 80 56 00
        E 0 80 60 00
        E 0 80 61 00
        E 0 80 63 00
        E 180 90 48 60
        E 0 90 4a 60
        E 0 90 54 60
        E 0 90 56 60
        E 0 90 60 60
        E 0 90 61 60
        E 0 90 63 60
        E 60 80 48 00
        E 0 80 4a 00
        E 0 80 54 00
        E 0 80 56 00
        E 0 80 60 00
        E 0 80 61 00
        E 0 80 63 00
        E 60 90 60 60
        E 0 90 61 60
        E 0 90 63 60
        E 60 80 60 00
        E 0 80 61 00
        E 0 80 63 00
        E 60 90 3d 60
        E 0 90 48 60
        E 0 90 4a 60
        E 0 90 54 60
        E 0 90 56 60
        E 0 90 60 60
        E 0 90 61 60
        E 0 90 63 60
        E 60 80 3d 00
        E 0 80 48 00
        E 0 80 4a 00
        E 0 80 54 00
        E 0 80 56 00
        E 0 80 60 00
        E 0 80 61 00
        E 0 80 63 00
        E 180 90 54 60
        E 0 90 57 60
        E 0 90 60 60
        E 0 90 62 60
        E 0 90 63 60
        E 60 80 54 00
        E 0 80 57 00
        E 0 80 60 00
        E 0 80 62 00
        E 0 80 63 00
        E 180 90 49 60
        E 0 90 4a 60
        E 0 90 54 60
        E 0 90 57 60
        E 0 90 60 60
        E 0 90 62 60
        E 0 90 63 60
        E 60 80 49 00
        E 0 80 4a 00
        E 0 80 54 00
        E 0 80 57 00
        E 0 80 60 00
        E 0 80 62 00
        E 0 80 63 00
        E 60 90 60 60
        E 0 90 62 60
        E 0 90 63 60
        E 60 80 60 00
        E 0 80 62 00
        E 0 80 63 00
        E 60 90 49 60
        E 0 90 4a 60
        E 0 90 54 60
        E 0 90 57 60
        E 0 90 60 60
        E 0 90 62 60
        E 0 90 63 60
        E 60 80 49 00
        E 0 80 4a 00
        E 0 80 54 00
        E 0 80 57 00
        E 0 80 60 00
        E 0 80 62 00
        E 0 80 63 00
        E 60 90 60 60
        E 0 90 62 60
        E 0 90 63 60
        E 60 80 60 00
        E 0 80 62 00
        E 0 80 63 00
        E 60 90 3e 60
        E 0 90 49 60
        E 0 90 4a 60
        E 0 90 54 60
        E 0 90 57 60
        E 0 90 60 60
        E 0 90 62 60
        E 0 90 63 60
        E 60 80 3e 00
        E 0 80 49 00
        E 0 80 4a 00
        E 0 80 54 00
        E 0 80 57 00
        E 0 80 60 00
        E 0 80 62 00
        E 0 80 63 00
        E 180 90 54 60
        E 0 90 56 60
        E 0 90 60 60
        E 0 90 61 60
        E 0 90 63 60
        E 60 80 54 00
        E 0 80 56 00
        E 0 80 60 00
        E 0 80 61 00
        E 0 80 63 00
        E 60 90 60 60
        E 0 90 61 60
        E 0 90 63 60
        E 60 80 60 00
        E 0 80 61 00
        E 0 80 63 00
        E 60 90 48 60
        E 0 90 4a 60
        E 0 90 54 60
        E 0 90 56 60
        E 0 90 60 60
        E 0 90 61 60
        E 0 90 63 60
        E 60 80 48 00
        E 0 80 4a 00
        E 0 80 54 00
        E 0 80 56 00
        E 0 80 60 00
        E 0 80 61 00
        E 0 80 63 00
        E 60 90 60 60
        E 0 90 61 60
        E 0 90 63 60
        E 60 80 60 00
        E 0 80 61 00
        E 0 80 63 00
        E 60 90 48 60
        E 0 90 4a 60
        E 0 90 54 60
        E 0 90 56 60
        E 0 90 60 60
        E 0 90 61 60
        E 0 90 63 60
        E 60 80 48 00
        E 0 80 4a 00
        E 0 80 54 00
        E 0 80 56 00
        E 0 80 60 00
        E 0 80 61 00
        E 0 80 63 00
        E 60 90 60 60
        E 0 90 61 60
        E 0 90 63 60
        E 60 80 60 00
        E 0 80 61 00
        E 0 80 63 00
        E 60 90 3d 60
        E 0 90 48 60
        E 0 90 4a 60
        E 0 90 54 60
        E 0 90 56 60
        E 0 90 60 60
        E 0 90 61 60
        E 0 90 63 60
        E 60 80 3d 00
        E 0 80 48 00
        E 0 80 4a 00
        E 0 80 54 00
        E 0 80 56 00
        E 0 80 60 00
        E 0 80 61 00
        E 0 80 63 00
        E 180 90 54 60
        E 0 90 55 60
        E 0 90 60 60
        E 0 90 61 60
        E 0 90 62 60
        E 59 80 54 00
        E 0 80 55 00
        E 0 80 60 00
        E 1 80 61 00
        E 0 80 62 00
        E 0 90 74 66
        E 180 90 48 60
        E 0 90 49 60
        E 0 90 54 60
        E 0 90 55 60
        E 0 90 60 60
        E 0 90 61 60
        E 0 90 62 60
        E 60 80 48 00
        E 0 80 49 00
        E 0 80 54 00
        E 0 80 55 00
        E 0 80 60 00
        E 0 80 61 00
        E 0 80 62 00
        E 60 90 60 60
        E 0 90 61 60
        E 0 90 62 60
        E 60 80 60 00
        E 0 80 61 00
        E 0 80 62 00
        E 60 90 48 60
        E 0 90 49 60
        E 0 90 54 60
        E 0 90 55 60
        E 0 90 60 60
        E 0 90 61 60
        E 0 90 62 60
        E 60 80 48 00
        E 0 80 49 00
        E 0 80 54 00
        E 0 80 55 00
        E 0 80 60 00
        E 0 80 61 00
        E 0 80 62 00
        E 60 90 60 60
        E 0 90 61 60
        E 0 90 62 60
        E 60 80 60 00
        E 0 80 61 00
        E 0 80 62 00
        E 60 90 3c 60
        E 0 90 48 60
        E 0 90 49 60
        E 0 90 54 60
        E 0 90 55 60
        E 0 90 60 60
        E 0 90 61 60
        E 0 90 62 60
        E 60 80 3c 00
        E 0 80 48 00
        E 0 80 49 00
        E 0 80 54 00
        E 0 80 55 00
        E 0 80 60 00
        E 0 80 61 00
        E 0 80 62 00
        E 60 90 60 60
        E 0 90 61 60
        E 0 90 62 60
        E 60 80 60 00
        E 0 80 61 00
        E 0 80 62 00
        E 59 90 60 60
        E 1 90 55 60
        E 0 90 56 60
        E 0 90 61 60
        E 0 90 62 60
        E 60 80 60 00
        E 0 80 55 00
        E 0 80 56 00
        E 0 80 61 00
        E 0 80 62 00
        E 60 90 60 60
        E 0 90 61 60
        E 0 90 62 60
        E 60 80 60 00
        E 0 80 61 00
        E 0 80 62 00
        E 60 90 3c 60
        E 0 90 48 60
        E 0 90 49 60
        E 0 90 54 60
        E 0 90 55 60
        E 0 90 60 60
        E 0 90 61 60
        E 0 90 62 60
        E 60 80 3c 00
        E 0 80 48 00
        E 0 80 49 00
        E 0 80 54 00
        E 0 80 55 00
        E 0 80 60 00
        E 0 80 61 00
        E 0 80 62 00
        E 60 90 60 60
        E 0 90 61 60
        E 0 90 62 60
        E 60 80 60 00
        E 0 80 61 00
        E 0 80 62 00
        E 60 90 48 60
        E 0 90 49 60
        E 0 90 54 60
        E 0 90 55 60
        E 0 90 60 60
        E 0 90 61 60
        E 0 90 62 60
        E 60 80 48 00
        E 0 80 49 00
        E 0 80 54 00
        E 0 80 55 00
        E 0 80 60 00
        E 0 80 61 00
        E 0 80 62 00
        E 60 90 60 60
        E 0 90 61 60
        E 0 90 62 60
        E 60 80 60 00
        E 0 80 61 00
        E 0 80 62 00
        E 60 90 3c 60
        E 0 90 48 60
        E 0 90 49 60
        E 0 90 54 60
        E 0 90 55 60
        E 0 90 60 60
        E 0 90 61 60
        E 0 90 62 60
        E 60 80 3c 00
        E 0 80 48 00
        E 0 80 49 00
        E 0 80 54 00
        E 0 80 55 00
        E 0 80 60 00
        E 0 80 61 00
        E 0 80 62 00
        E 180 90 55 60
        E 0 90 57 60
        E 0 90 61 60
        E 0 90 62 60
        E 0 90 63 60
        E 60 80 55 00
        E 0 80 57 00
        E 0 80 61 00
        E 0 80 62 00
        E 0 80 63 00
        E 60 90 61 60
        E 0 90 62 60
        E 0 90 63 60
        E 60 80 61 00
        E 0 80 62 00
        E 0 80 63 00
        E 60 90 49 60
        E 0 90 4b 60
        E 0 90 55 60
        E 0 90 57 60
        E 0 90 61 60
        E 0 90 62 60
        E 0 90 63 60
        E 60 80 49 00
        E 0 80 4b 00
        E 0 80 55 00
        E 0 80 57 00
        E 0 80 61 00
        E 0 80 62 00
        E 0 80 63 00
        E 60 90 61 60
        E 0 90 62 60
        E 0 90 63 60
        E 60 80 61 00
        E 0 80 62 00
        E 0 80 63 00
        E 60 90 55 60
        E 0 90 57 60
        E 0 90 61 60
        E 0 90 62 60
        E 0 90 63 60
        E 60 80 55 00
        E 0 80 57 00
        E 0 80 61 00
        E 0 80 62 00
        E 0 80 63 00
        E 60 90 61 60
        E 0 90 62 60
        E 0 90 63 60
        E 60 80 61 00
        E 0 80 62 00
        E 0 80 63 00
        E 60 90 3e 60
        E 0 90 4a 60
        E 0 90 56 60
        E 0 90 63 60
        E 120 80 3e 00
        E 0 80 4a 00
        E 60 80 74 00
        E 180 80 56 00
        E 0 80 63 00
        E 120 90 49 60
        E 0 90 55 60
        E 0 90 62 60
        E 120 80 49 00
        E 240 80 55 00
        E 0 80 62 00
        E 120 90 3c 60
        E 0 90 48 60
        E 0 90 54 60
        E 0 90 61 60
        E 120 80 3c 00
        E 0 80 48 00
        E 240 80 54 00
        E 0 80 61 00
        E 120 90 48 60
        E 0 90 4a 60
        E 0 90 54 60
        E 0 90 56 60
        E 0 90 60 60
        E 0 90 61 60
        E 0 90 63 60
        E 60 80 48 00
        E 0 80 4a 00
        E 0 80 54 00
        E 0 80 56 00
        E 0 80 60 00
        E 0 80 61 00
        E 0 80 63 00
        E 60 90 60 60
        E 0 90 61 60
        E 0 90 63 60
        E 60 80 60 00
        E 0 80 61 00
        E 0 80 63 00
        E 60 90 48 60
        E 0 90 4a 60
        E 0 90 54 60
        E 0 90 56 60
        E 0 90 60 60
        E 0 90 61 60
        E 0 90 63 60
        E 60 80 48 00
        E 0 80 4a 00
        E 0 80 54 00
        E 0 80 56 00
        E 0 80 60 00
        E 0 80 61 00
        E 0 80 63 00
        E 60 90 60 60
        E 0 90 61 60
        E 0 90 63 60
        E 60 80 60 00
        E 0 80 61 00
        E 0 80 63 00
        E 60 90 3d 60
        E 0 90 48 60
        E 0 90 4a 60
        E 0 90 54 60
        E 0 90 56 60
        E 0 90 60 60
        E 0 90 61 60
        E 0 90 63 60
        E 60 80 3d 00
        E 0 80 48 00
        E 0 80 4a 00
        E 0 80 54 00
        E 0 80 56 00
        E 0 80 60 00
        E 0 80 61 00
        E 0 80 63 00
        E 60 90 60 60
        E 0 90 61 60
        E 0 90 63 60
        E 60 80 60 00
        E 0 80 61 00
        E 0 80 63 00
        E 60 90 48 60
        E 0 90 4a 60
        E 0 90 54 60
        E 0 90 56 60
        E 0 90 60 60
        E 0 90 61 60
        E 0 90 63 60
        E 60 80 48 00
        E 0 80 4a 00
        E 0 80 54 00
        E 0 80 56 00
        E 0 80 60 00
        E 0 80 61 00
        E 0 80 63 00
        E 60 90 60 60
        E 0 90 61 60
        E 0 90 63 60
        E 60 80 60 00
        E 0 80 61 00
        E 0 80 63 00
        E 60 90 3d 60
        E 0 90 48 60
        E 0 90 4a 60
        E 0 90 54 60
        E 0 90 56 60
        E 0 90 60 60
        E 0 90 61 60
        E 0 90 63 60
        E 60 80 3d 00
        E 0 80 48 00
        E 0 80 4a 00
        E 0 80 54 00
        E 0 80 56 00
        E 0 80 60 00
        E 0 80 61 00
        E 0 80 63 00
        E 60 90 60 60
        E 0 90 61 60
        E 0 90 63 60
        E 60 80 60 00
        E 0 80 61 00
        E 0 80 63 00
        E 60 90 48 60
        E 0 90 4a 60
        E 0 90 54 60
        E 0 90 56 60
        E 0 90 60 60
        E 0 90 61 60
        E 0 90 63 60
        E 60 80 48 00
        E 0 80 4a 00
        E 0 80 54 00
        E 0 80 56 00
        E 0 80 60 00
        E 0 80 61 00
        E 0 80 63 00
        E 60 90 60 60
        E 0 90 61 60
        E 0 90 63 60
        E 60 80 60 00
        E 0 80 61 00
        E 0 80 63 00
        E 60 90 3d 60
        E 0 90 48 60
        E 0 90 4a 60
        E 0 90 54 60
        E 0 90 56 60
        E 0 90 60 60
        E 0 90 61 60
        E 0 90 63 60
        E 60 80 3d 00
        E 0 80 48 00
        E 0 80 4a 00
        E 0 80 54 00
        E 0 80 56 00
        E 0 80 60 00
        E 0 80 61 00
        E 0 80 63 00
        E 180 90 54 60
        E 0 90 55 60
        E 0 90 60 60
        E 0 90 61 60
        E 0 90 62 60
        E 61 80 54 00
        E 0 80 55 00
        E 0 80 60 00
        E 0 80 61 00
        E 0 80 62 00
        E 179 90 48 60
        E 0 90 49 60
        E 0 90 54 60
        E 0 90 55 60
        E 0 90 60 60
        E 0 90 61 60
        E 0 90 62 60
        E 120 80 48 00
        E 0 80 49 00
        E 0 80 54 00
        E 0 80 55 00
        E 180 80 60 00
        E 0 80 61 00
        E 0 80 62 00
        E 60 90 60 60
        E 0 90 61 60
        E 0 90 62 60
        E 61 80 60 00
        E 0 80 61 00
        E 0 80 62 00
        E 59 90 3c 60
        E 0 90 48 60
        E 0 90 49 60
        E 0 90 54 60
        E 0 90 55 60
        E 0 90 60 60
        E 0 90 61 60
        E 0 90 62 60
        E 61 80 3c 00
        E 0 80 48 00
        E 0 80 49 00
        E 0 80 54 00
        E 0 80 55 00
        E 0 80 60 00
        E 0 80 61 00
        E 0 80 62 00
        E 59 90 60 60
        E 0 90 61 60
        E 0 90 62 60
        E 61 80 60 00
        E 0 80 61 00
        E 0 80 62 00
        E 59 90 48 60
        E 0 90 49 60
        E 0 90 54 60
        E 0 90 55 60
        E 0 90 60 60
        E 0 90 61 60
        E 0 90 62 60
        E 61 80 48 00
        E 0 80 49 00
        E 0 80 54 00
        E 0 80 55 00
        E 0 80 60 00
        E 0 80 61 00
        E 0 80 62 00
        E 59 90 60 60
        E 0 90 61 60
        E 0 90 62 60
        E 61 80 60 00
        E 0 80 61 00
        E 0 80 62 00
        E 59 90 3c 60
        E 0 90 48 60
        E 0 90 49 60
        E 0 90 54 60
        E 0 90 55 60
        E 0 90 60 60
        E 0 90 61 60
        E 0 90 62 60
        E 61 80 3c 00
        E 0 80 48 00
        E 0 80 49 00
        E 0 80 54 00
        E 0 80 55 00
        E 0 80 60 00
        E 0 80 61 00
        E 0 80 62 00
        E 59 90 60 60
        E 0 90 61 60
        E 0 90 62 60
        E 61 80 60 00
        E 0 80 61 00
        E 0 80 62 00
        E 59 90 48 60
        E 0 90 49 60
        E 0 90 54 60
        E 0 90 55 60
        E 0 90 60 60
        E 0 90 61 60
        E 0 90 62 60
        E 61 80 48 00
        E 0 80 49 00
        E 0 80 54 00
        E 0 80 55 00
        E 0 80 60 00
        E 0 80 61 00
        E 0 80 62 00
        E 59 90 60 60
        E 0 90 61 60
        E 0 90 62 60
        E 61 80 60 00
        E 0 80 61 00
        E 0 80 62 00
        E 59 90 3c 60
        E 0 90 48 60
        E 0 90 49 60
        E 0 90 54 60
        E 0 90 55 60
        E 0 90 60 60
        E 0 90 61 60
        E 0 90 62 60
        E 60 80 3c 00
        E 0 80 48 00
        E 0 80 49 00
        E 0 80 54 00
        E 0 80 55 00
        E 0 80 60 00
        E 0 80 61 00
        E 0 80 62 00
        E 180 90 48 60
        E 0 90 49 60
        E 0 90 54 60
        E 0 90 55 60
        E 0 90 60 60
        E 0 90 61 60
        E 0 90 62 60
        E 60 80 48 00
        E 0 80 49 00
        E 0 80 54 00
        E 0 80 55 00
        E 0 80 60 00
        E 0 80 61 00
        E 0 80 62 00
        E 180 90 3c 60
        E 0 90 48 60
        E 0 90 49 60
        E 0 90 54 60
        E 0 90 55 60
        E 0 90 60 60
        E 0 90 61 60
        E 0 90 62 60
        E 60 80 3c 00
        E 0 80 48 00
        E 0 80 49 00
        E 0 80 54 00
        E 0 80 55 00
        E 0 80 60 00
        E 0 80 61 00
        E 0 80 62 00
        E 180 90 48 60
        E 0 90 49 60
        E 0 90 54 60
        E 0 90 55 60
        E 0 90 60 60
        E 0 90 61 60
        E 0 90 62 60
        E 60 80 48 00
        E 0 80 49 00
        E 0 80 54 00
        E 0 80 55 00
        E 0 80 60 00
        E 0 80 61 00
        E 0 80 62 00
        E 60 90 60 60
        E 0 90 61 60
        E 0 90 62 60
        E 60 80 60 00
        E 0 80 61 00
        E 0 80 62 00
        E 60 90 3c 60
        E 0 90 48 60
        E 0 90 49 60
        E 0 90 54 60
        E 0 90 55 60
        E 0 90 60 60
        E 0 90 61 60
        E 0 90 62 60
        E 60 80 3c 00
        E 0 80 48 00
        E 0 80 49 00
        E 0 80 54 00
        E 0 80 55 00
        E 0 80 60 00
        E 0 80 61 00
        E 0 80 62 00
        E 180 90 48 60
        E 0 90 49 60
        E 0 90 54 60
        E 0 90 55 60
        E 0 90 60 60
        E 0 90 61 60
        E 0 90 62 60
        E 60 80 48 00
        E 0 80 49 00
        E 0 80 54 00
        E 0 80 55 00
        E 0 80 60 00
        E 0 80 61 00
        E 0 80 62 00
        E 60 90 60 60
        E 0 90 61 60
        E 0 90 62 60
        E 60 80 60 00
        E 0 80 61 00
        E 0 80 62 00
        E 60 90 3c 60
        E 0 90 48 60
        E 0 90 49 60
        E 0 90 54 60
        E 0 90 55 60
        E 0 90 60 60
        E 0 90 61 60
        E 0 90 62 60
        E 60 80 3c 00
        E 0 80 48 00
        E 0 80 49 00
        E 0 80 54 00
        E 0 80 55 00
        E 0 80 60 00
        E 0 80 61 00
        E 0 80 62 00
        E 60 90 60 60
        E 0 90 61 60
        E 0 90 62 60
        E 60 80 60 00
        E 0 80 61 00
        E 0 80 62 00
        E 60 90 48 60
        E 0 90 49 60
        E 0 90 54 60
        E 0 90 55 60
        E 0 90 60 60
        E 0 90 61 60
        E 0 90 62 60
        E 60 80 48 00
        E 0 80 49 00
        E 0 80 54 00
        E 0 80 55 00
        E 0 80 60 00
        E 0 80 61 00
        E 0 80 62 00
        E 60 90 60 60
        E 0 90 61 60
        E 0 90 62 60
        E 60 80 60 00
        E 0 80 61 00
        E 0 80 62 00
        E 60 90 3c 60
        E 0 90 48 60
        E 0 90 49 60
        E 0 90 54 60
        E 0 90 55 60
        E 0 90 60 60
        E 0 90 61 60
        E 0 90 62 60
        E 60 80 3c 00
        E 0 80 48 00
        E 0 80 49 00
        E 0 80 54 00
        E 0 80 55 00
        E 0 80 60 00
        E 0 80 61 00
        E 0 80 62 00
        E 180 90 55 60
        E 0 90 57 60
        E 0 90 61 60
        E 0 90 62 60
        E 0 90 63 60
        E 60 80 55 00
        E 0 80 57 00
        E 0 80 61 00
        E 0 80 62 00
        E 0 80 63 00
        E 180 90 49 60
        E 0 90 4b 60
        E 0 90 55 60
        E 0 90 57 60
        E 0 90 61 60
        E 0 90 62 60
        E 0 90 63 60
        E 60 80 49 00
        E 0 80 4b 00
        E 0 80 55 00
        E 0 80 57 00
        E 0 80 61 00
        E 0 80 62 00
        E 0 80 63 00
        E 180 90 55 60
        E 0 90 57 60
        E 0 90 61 60
        E 0 90 62 60
        E 0 90 63 60
        E 60 80 55 00
        E 0 80 57 00
        E 0 80 61 00
        E 0 80 62 00
        E 0 80 63 00
        E 60 90 61 60
        E 0 90 62 60
        E 0 90 63 60
        E 60 80 61 00
        E 0 80 62 00
        E 0 80 63 00
        E 60 90 3e 60
        E 0 90 4a 60
        E 0 90 56 60
        E 0 90 63 60
        E 120 80 3e 00
        E 0 80 4a 00
        E 240 80 56 00
        E 0 80 63 00
        E 120 90 49 60
        E 0 90 55 60
        E 0 90 62 60
        E 120 80 49 00
        E 240 80 55 00
        E 0 80 62 00
        E 120 90 3c 60
        E 0 90 48 60
        E 0 90 54 60
        E 0 90 61 60
        E 120 80 3c 00
        E 0 80 48 00
        E 240 80 54 00
        E 0 80 61 00
        E 120 90 48 60
        E 0 90 4a 60
        E 0 90 54 60
        E 0 90 56 60
        E 0 90 60 60
        E 0 90 61 60
        E 0 90 63 60
        E 60 80 48 00
        E 0 80 4a 00
        E 0 80 54 00
        E 0 80 56 00
        E 0 80 60 00
        E 0 80 61 00
        E 0 80 63 00
        E 60 90 60 60
        E 0 90 61 60
        E 0 90 63 60
        E 60 80 60 00
        E 0 80 61 00
        E 0 80 63 00
        E 60 90 48 60
        E 0 90 4a 60
        E 0 90 54 60
        E 0 90 56 60
        E 0 90 60 60
        E 0 90 61 60
        E 0 90 63 60
        E 60 80 48 00
        E 0 80 4a 00
        E 0 80 54 00
        E 0 80 56 00
        E 0 80 60 00
        E 0 80 61 00
        E 0 80 63 00
        E 60 90 60 60
        E 0 90 61 60
        E 0 90 63 60
        E 60 80 60 00
        E 0 80 61 00
        E 0 80 63 00
        E 60 90 3d 60
        E 0 90 48 60
        E 0 90 4a 60
        E 0 90 54 60
        E 0 90 56 60
        E 0 90 60 60
        E 0 90 61 60
        E 0 90 63 60
        E 60 80 3d 00
        E 0 80 48 00
        E 0 80 4a 00
        E 0 80 54 00
        E 0 80 56 00
        E 0 80 60 00
        E 0 80 61 00
        E 0 80 63 00
        E 60 90 60 60
        E 0 90 61 60
        E 0 90 63 60
        E 60 80 60 00
        E 0 80 61 00
        E 0 80 63 00
        E 60 90 48 60
        E 0 90 4a 60
        E 0 90 54 60
        E 0 90 56 60
        E 0 90 60 60
        E 0 90 61 60
        E 0 90 63 60
        E 60 80 48 00
        E 0 80 4a 00
        E 0 80 54 00
        E 0 80 56 00
        E 0 80 60 00
        E 0 80 61 00
        E 0 80 63 00
        E 60 90 60 60
        E 0 90 61 60
        E 0 90 63 60
        E 60 80 60 00
        E 0 80 61 00
        E 0 80 63 00
        E 60 90 3d 60
        E 0 90 48 60
        E 0 90 4a 60
        E 0 90 54 60
        E 0 90 56 60
        E 0 90 60 60
        E 0 90 61 60
        E 0 90 63 60
        E 60 80 3d 00
        E 0 80 48 00
        E 0 80 4a 00
        E 0 80 54 00
        E 0 80 56 00
        E 0 80 60 00
        E 0 80 61 00
        E 0 80 63 00
        E 60 90 60 60
        E 0 90 61 60
        E 0 90 63 60
        E 60 80 60 00
        E 0 80 61 00
        E 0 80 63 00
        E 60 90 48 60
        E 0 90 4a 60
        E 0 90 54 60
        E 0 90 56 60
        E 0 90 60 60
        E 0 90 61 60
        E 0 90 63 60
        E 60 80 48 00
        E 0 80 4a 00
        E 0 80 54 00
        E 0 80 56 00
        E 0 80 60 00
        E 0 80 61 00
        E 0 80 63 00
        E 60 90 60 60
        E 0 90 61 60
        E 0 90 63 60
        E 60 80 60 00
        E 0 80 61 00
        E 0 80 63 00
        E 60 90 3d 60
        E 0 90 48 60
        E 0 90 4a 60
        E 0 90 54 60
        E 0 90 56 60
        E 0 90 60 60
        E 0 90 61 60
        E 0 90 63 60
        E 60 80 3d 00
        E 0 80 48 00
        E 0 80 4a 00
        E 0 80 54 00
        E 0 80 56 00
        E 0 80 60 00
        E 0 80 61 00
        E 0 80 63 00
        E 180 90 54 60
        E 0 90 57 60
        E 0 90 60 60
        E 0 90 62 60
        E 0 90 63 60
        E 60 80 54 00
        E 0 80 57 00
        E 0 80 60 00
        E 0 80 62 00
        E 0 80 63 00
        E 180 90 49 60
        E 0 90 4a 60
        E 0 90 54 60
        E 0 90 57 60
        E 0 90 60 60
        E 0 90 62 60
        E 0 90 63 60
        E 60 80 49 00
        E 0 80 4a 00
        E 0 80 54 00
        E 0 80 57 00
        E 0 80 60 00
        E 0 80 62 00
        E 0 80 63 00
        E 60 90 60 60
        E 0 90 62 60
        E 0 90 63 60
        E 60 80 60 00
        E 0 80 62 00
        E 0 80 63 00
        E 60 90 49 60
        E 0 90 4a 60
        E 0 90 54 60
        E 0 90 57 60
        E 0 90 60 60
        E 0 90 62 60
        E 0 90 63 60
        E 60 80 49 00
        E 0 80 4a 00
        E 0 80 54 00
        E 0 80 57 00
        E 0 80 60 00
        E 0 80 62 00
        E 0 80 63 00
        E 60 90 60 60
        E 0 90 62 60
        E 0 90 63 60
        E 60 80 60 00
        E 0 80 62 00
        E 0 80 63 00
        E 60 90 3e 60
        E 0 90 49 60
        E 0 90 4a 60
        E 0 90 54 60
        E 0 90 57 60
        E 0 90 60 60
        E 0 90 62 60
        E 0 90 63 60
        E 60 80 3e 00
        E 0 80 49 00
        E 0 80 4a 00
        E 0 80 54 00
        E 0 80 57 00
        E 0 80 60 00
        E 0 80 62 00
        E 0 80 63 00
        E 180 90 54 60
        E 0 90 56 60
        E 0 90 60 60
        E 0 90 61 60
        E 0 90 63 60
        E 60 80 54 00
        E 0 80 56 00
        E 0 80 60 00
        E 0 80 61 00
        E 0 80 63 00
        E 60 90 60 60
        E 0 90 61 60
        E 0 90 63 60
        E 60 80 60 00
        E 0 80 61 00
        E 0 80 63 00
        E 60 90 48 60
        E 0 90 4a 60
        E 0 90 54 60
        E 0 90 56 60
        E 0 90 60 60
        E 0 90 61 60
        E 0 90 63 60
        E 60 80 48 00
        E 0 80 4a 00
        E 0 80 54 00
        E 0 80 56 00
        E 0 80 60 00
        E 0 80 61 00
        E 0 80 63 00
        E 60 90 60 60
        E 0 90 61 60
        E 0 90 63 60
        E 60 80 60 00
        E 0 80 61 00
        E 0 80 63 00
        E 60 90 48 60
        E 0 90 4a 60
        E 0 90 54 60
        E 0 90 56 60
        E 0 90 60 60
        E 0 90 61 60
        E 0 90 63 60
        E 60 80 48 00
        E 0 80 4a 00
        E 0 80 54 00
        E 0 80 56 00
        E 0 80 60 00
        E 0 80 61 00
        E 0 80 63 00
        E 60 90 60 60
        E 0 90 61 60
        E 0 90 63 60
        E 60 80 60 00
        E 0 80 61 00
        E 0 80 63 00
        E 60 90 3d 60
        E 0 90 48 60
        E 0 90 4a 60
        E 0 90 54 60
        E 0 90 56 60
        E 0 90 60 60
        E 0 90 61 60
        E 0 90 63 60
        E 60 80 3d 00
        E 0 80 48 00
        E 0 80 4a 00
        E 0 80 54 00
        E 0 80 56 00
        E 0 80 60 00
        E 0 80 61 00
        E 0 80 63 00
        E 120 90 74 66
        E 60 90 54 60
        E 0 90 55 60
        E 0 90 60 60
        E 0 90 61 60
        E 0 90 62 60
        E 59 80 54 00
        E 0 80 55 00
        E 0 80 60 00
        E 1 80 61 00
        E 0 80 62 00
        E 180 90 48 60
        E 0 90 49 60
        E 0 90 54 60
        E 0 90 55 60
        E 0 90 60 60
        E 0 90 61 60
        E 0 90 62 60
        E 60 80 48 00
        E 0 80 49 00
        E 0 80 54 00
        E 0 80 55 00
        E 0 80 60 00
        E 0 80 61 00
        E 0 80 62 00
        E 60 90 60 60
        E 0 90 61 60
        E 0 90 62 60
        E 60 80 60 00
        E 0 80 61 00
        E 0 80 62 00
        E 60 90 48 60
        E 0 90 49 60
        E 0 90 54 60
        E 0 90 55 60
        E 0 90 60 60
        E 0 90 61 60
        E 0 90 62 60
        E 60 80 48 00
        E 0 80 49 00
        E 0 80 54 00
        E 0 80 55 00
        E 0 80 60 00
        E 0 80 61 00
        E 0 80 62 00
        E 60 90 60 60
        E 0 90 61 60
        E 0 90 62 60
        E 60 80 60 00
        E 0 80 61 00
        E 0 80 62 00
        E 60 90 3c 60
        E 0 90 48 60
        E 0 90 49 60
        E 0 90 54 60
        E 0 90 55 60
        E 0 90 60 60
        E 0 90 61 60
        E 0 90 62 60
        E 60 80 3c 00
        E 0 80 48 00
        E 0 80 49 00
        E 0 80 54 00
        E 0 80 55 00
        E 0 80 60 00
        E 0 80 61 00
        E 0 80 62 00
        E 60 90 60 60
        E 0 90 61 60
        E 0 90 62 60
        E 60 80 60 00
        E 0 80 61 00
        E 0 80 62 00
        E 59 90 60 60
        E 1 90 55 60
        E 0 90 56 60
        E 0 90 61 60
        E 0 90 62 60
        E 60 80 60 00
        E 0 80 55 00
        E 0 80 56 00
        E 0 80 61 00
        E 0 80 62 00
        E 60 90 60 60
        E 0 90 61 60
        E 0 90 62 60
        E 60 80 60 00
        E 0 80 61 00
        E 0 80 62 00
        E 60 90 3c 60
        E 0 90 48 60
        E 0 90 49 60
        E 0 90 54 60
        E 0 90 55 60
        E 0 90 60 60
        E 0 90 61 60
        E 0 90 62 60
        E 60 80 3c 00
        E 0 80 48 00
        E 0 80 49 00
        E 0 80 54 00
        E 0 80 55 00
        E 0 80 60 00
        E 0 80 61 00
        E 0 80 62 00
        E 60 90 60 60
        E 0 90 61 60
        E 0 90 62 60
        E 60 80 60 00
        E 0 80 61 00
        E 0 80 62 00
        E 60 90 48 60
        E 0 90 49 60
        E 0 90 54 60
        E 0 90 55 60
        E 0 90 60 60
        E 0 90 61 60
        E 0 90 62 60
        E 60 80 48 00
        E 0 80 49 00
        E 0 80 54 00
        E 0 80 55 00
        E 0 80 60 00
        E 0 80 61 00
        E 0 80 62 00
        E 60 90 60 60
        E 0 90 61 60
        E 0 90 62 60
        E 60 80 60 00
        E 0 80 61 00
        E 0 80 62 00
        E 60 90 3c 60
        E 0 90 48 60
        E 0 90 49 60
        E 0 90 54 60
        E 0 90 55 60
        E 0 90 60 60
        E 0 90 61 60
        E 0 90 62 60
        E 60 80 3c 00
        E 0 80 48 00
        E 0 80 49 00
        E 0 80 54 00
        E 0 80 55 00
        E 0 80 60 00
        E 0 80 61 00
        E 0 80 62 00
        E 180 90 55 60
        E 0 90 57 60
        E 0 90 61 60
        E 0 90 62 60
        E 0 90 63 60
        E 60 80 55 00
        E 0 80 57 00
        E 0 80 61 00
        E 0 80 62 00
        E 0 80 63 00
        E 60 90 61 60
        E 0 90 62 60
        E 0 90 63 60
        E 60 80 61 00
        E 0 80 62 00
        E 0 80 63 00
        E 60 90 49 60
        E 0 90 4b 60
        E 0 90 55 60
        E 0 90 57 60
        E 0 90 61 60
        E 0 90 62 60
        E 0 90 63 60
        E 60 80 49 00
        E 0 80 4b 00
        E 0 80 55 00
        E 0 80 57 00
        E 0 80 61 00
        E 0 80 62 00
        E 0 80 63 00
        E 60 90 61 60
        E 0 90 62 60
        E 0 90 63 60
        E 60 80 61 00
        E 0 80 62 00
        E 0 80 63 00
        E 60 90 55 60
        E 0 90 57 60
        E 0 90 61 60
        E 0 90 62 60
        E 0 90 63 60
        E 60 80 55 00
        E 0 80 57 00
        E 0 80 61 00
        E 0 80 62 00
        E 0 80 63 00
        E 60 90 61 60
        E 0 90 62 60
        E 0 90 63 60
        E 60 80 61 00
        E 0 80 62 00
        E 0 80 63 00
        E 60 90 3e 60
        E 0 90 4a 60
        E 0 90 56 60
        E 0 90 63 60
        E 60 80 74 00
        E 60 80 3e 00
        E 0 80 4a 00
        E 240 80 56 00
        E 0 80 63 00
        E 120 90 49 60
        E 0 90 55 60
        E 0 90 62 60
        E 120 80 49 00
        E 240 80 55 00
        E 0 80 62 00
        E 120 90 3c 60
        E 0 90 48 60
        E 0 90 54 60
        E 0 90 61 60
        E 120 80 3c 00
        E 0 80 48 00
        E 240 80 54 00
        E 0 80 61 00
        E 120 90 48 60
        E 0 90 4a 60
        E 0 90 54 60
        E 0 90 56 60
        E 0 90 60 60
        E 0 90 61 60
        E 0 90 63 60
        E 60 80 48 00
        E 0 80 4a 00
        E 0 80 54 00
        E 0 80 56 00
        E 0 80 60 00
        E 0 80 61 00
        E 0 80 63 00
        E 60 90 60 60
        E 0 90 61 60
        E 0 90 63 60
        E 60 80 60 00
        E 0 80 61 00
        E 0 80 63 00
        E 60 90 48 60
        E 0 90 4a 60
        E 0 90 54 60
        E 0 90 56 60
        E 0 90 60 60
        E 0 90 61 60
        E 0 90 63 60
        E 60 80 48 00
        E 0 80 4a 00
        E 0 80 54 00
        E 0 80 56 00
        E 0 80 60 00
        E 0 80 61 00
        E 0 80 63 00
        E 60 90 60 60
        E 0 90 61 60
        E 0 90 63 60
        E 60 80 60 00
        E 0 80 61 00
        E 0 80 63 00
        E 60 90 3d 60
        E 0 90 48 60
        E 0 90 4a 60
        E 0 90 54 60
        E 0 90 56 60
        E 0 90 60 60
        E 0 90 61 60
        E 0 90 63 60
        E 60 80 3d 00
        E 0 80 48 00
        E 0 80 4a 00
        E 0 80 54 00
        E 0 80 56 00
        E 0 80 60 00
        E 0 80 61 00
        E 0 80 63 00
        E 180 90 48 60
        E 0 90 4a 60
        E 0 90 54 60
        E 0 90 56 60
        E 0 90 60 60
        E 0 90 61 60
        E 0 90 63 60
        E 60 80 48 00
        E 0 80 4a 00
        E 0 80 54 00
        E 0 80 56 00
        E 0 80 60 00
        E 0 80 61 00
        E 0 80 63 00
        E 60 90 60 60
        E 0 90 61 60
        E 0 90 63 60
        E 60 80 60 00
        E 0 80 61 00
        E 0 80 63 00
        E 60 90 3d 60
        E 0 90 48 60
        E 0 90 4a 60
        E 0 90 54 60
        E 0 90 56 60
        E 0 90 60 60
        E 0 90 61 60
        E 0 90 63 60
        E 60 80 3d 00
        E 0 80 48 00
        E 0 80 4a 00
        E 0 80 54 00
        E 0 80 56 00
        E 0 80 60 00
        E 0 80 61 00
        E 0 80 63 00
        E 60 90 60 60
        E 0 90 61 60
        E 0 90 63 60
        E 60 80 60 00
        E 0 80 61 00
        E 0 80 63 00
        E 60 90 48 60
        E 0 90 4a 60
        E 0 90 54 60
        E 0 90 56 60
        E 0 90 60 60
        E 0 90 61 60
        E 0 90 63 60
        E 60 80 48 00
        E 0 80 4a 00
        E 0 80 54 00
        E 0 80 56 00
        E 0 80 60 00
        E 0 80 61 00
        E 0 80 63 00
        E 60 90 60 60
        E 0 90 61 60
        E 0 90 63 60
        E 60 80 60 00
        E 0 80 61 00
        E 0 80 63 00
        E 60 90 3d 60
        E 0 90 48 60
        E 0 90 4a 60
        E 0 90 54 60
        E 0 90 56 60
        E 0 90 60 60
        E 0 90 61 60
        E 0 90 63 60
        E 60 80 3d 00
        E 0 80 48 00
        E 0 80 4a 00
        E 0 80 54 00
        E 0 80 56 00
        E 0 80 60 00
        E 0 80 61 00
        E 0 80 63 00
        E 180 90 54 60
        E 0 90 55 60
        E 0 90 60 60
        E 0 90 61 60
        E 0 90 62 60
        E 61 80 54 00
        E 0 80 55 00
        E 0 80 60 00
        E 0 80 61 00
        E 0 80 62 00
        E 179 90 48 60
        E 0 90 49 60
        E 0 90 54 60
        E 0 90 55 60
        E 0 90 60 60
        E 0 90 61 60
        E 0 90 62 60
        E 120 80 48 00
        E 0 80 49 00
        E 0 80 54 00
        E 0 80 55 00
        E 180 80 60 00
        E 0 80 61 00
        E 0 80 62 00
        E 60 90 60 60
        E 0 90 61 60
        E 0 90 62 60
        E 61 80 60 00
        E 0 80 61 00
        E 0 80 62 00
        E 59 90 3c 60
        E 0 90 48 60
        E 0 90 49 60
        E 0 90 54 60
        E 0 90 55 60
        E 0 90 60 60
        E 0 90 61 60
        E 0 90 62 60
        E 61 80 3c 00
        E 0 80 48 00
        E 0 80 49 00
        E 0 80 54 00
        E 0 80 55 00
        E 0 80 60 00
        E 0 80 61 00
        E 0 80 62 00
        E 59 90 60 60
        E 0 90 61 60
        E 0 90 62 60
        E 61 80 60 00
        E 0 80 61 00
        E 0 80 62 00
        E 59 90 48 60
        E 0 90 49 60
        E 0 90 54 60
        E 0 90 55 60
        E 0 90 60 60
        E 0 90 61 60
        E 0 90 62 60
        E 61 80 48 00
        E 0 80 49 00
        E 0 80 54 00
        E 0 80 55 00
        E 0 80 60 00
        E 0 80 61 00
        E 0 80 62 00
        E 59 90 60 60
        E 0 90 61 60
        E 0 90 62 60
        E 61 80 60 00
        E 0 80 61 00
        E 0 80 62 00
        E 59 90 3c 60
        E 0 90 48 60
        E 0 90 49 60
        E 0 90 54 60
        E 0 90 55 60
        E 0 90 60 60
        E 0 90 61 60
        E 0 90 62 60
        E 61 80 3c 00
        E 0 80 48 00
        E 0 80 49 00
        E 0 80 54 00
        E 0 80 55 00
        E 0 80 60 00
        E 0 80 61 00
        E 0 80 62 00
        E 59 90 60 60
        E 0 90 61 60
        E 0 90 62 60
        E 61 80 60 00
        E 0 80 61 00
        E 0 80 62 00
        E 59 90 48 60
        E 0 90 49 60
        E 0 90 54 60
        E 0 90 55 60
        E 0 90 60 60
        E 0 90 61 60
        E 0 90 62 60
        E 61 80 48 00
        E 0 80 49 00
        E 0 80 54 00
        E 0 80 55 00
        E 0 80 60 00
        E 0 80 61 00
        E 0 80 62 00
        E 59 90 60 60
        E 0 90 61 60
        E 0 90 62 60
        E 61 80 60 00
        E 0 80 61 00
        E 0 80 62 00
        E 59 90 3c 60
        E 0 90 48 60
        E 0 90 49 60
        E 0 90 54 60
        E 0 90 55 60
        E 0 90 60 60
        E 0 90 61 60
        E 0 90 62 60
        E 60 80 3c 00
        E 0 80 48 00
        E 0 80 49 00
        E 0 80 54 00
        E 0 80 55 00
        E 0 80 60 00
        E 0 80 61 00
        E 0 80 62 00
        E 300 90 61 60
        E 0 90 62 60
        E 0 90 63 60
        E 60 80 61 00
        E 0 80 62 00
        E 0 80 63 00
        E 60 90 49 60
        E 0 90 4b 60
        E 0 90 55 60
        E 0 90 57 60
        E 0 90 61 60
        E 0 90 62 60
        E 0 90 63 60
        E 60 80 49 00
        E 0 80 4b 00
        E 0 80 55 00
        E 0 80 57 00
        E 0 80 61 00
        E 0 80 62 00
        E 0 80 63 00
        E 180 90 55 60
        E 0 90 57 60
        E 0 90 61 60
        E 0 90 62 60
        E 0 90 63 60
        E 60 80 55 00
        E 0 80 57 00
        E 0 80 61 00
        E 0 80 62 00
        E 0 80 63 00
        E 180 90 3d 60
        E 0 90 48 60
        E 0 90 4a 60
        E 0 90 54 60
        E 0 90 56 60
        E 0 90 60 60
        E 0 90 61 60
        E 0 90 63 60
        E 60 80 3d 00
        E 0 80 48 00
        E 0 80 4a 00
        E 0 80 54 00
        E 0 80 56 00
        E 0 80 60 00
        E 0 80 61 00
        E 0 80 63 00
        E 180 90 48 60
        E 0 90 4a 60
        E 0 90 54 60
        E 0 90 56 60
        E 0 90 60 60
        E 0 90 61 60
        E 0 90 63 60
        E 60 80 48 00
        E 0 80 4a 00
        E 0 80 54 00
        E 0 80 56 00
        E 0 80 60 00
        E 0 80 61 00
        E 0 80 63 00
        E 180 90 3d 60
        E 0 90 48 60
        E 0 90 4a 60
        E 0 90 54 60
        E 0 90 56 60
        E 0 90 60 60
        E 0 90 61 60
        E 0 90 63 60
        E 60 80 3d 00
        E 0 80 48 00
        E 0 80 4a 00
        E 0 80 54 00
        E 0 80 56 00
        E 0 80 60 00
        E 0 80 61 00
        E 0 80 63 00
        E 180 90 48 60
        E 0 90 4a 60
        E 0 90 54 60
        E 0 90 56 60
        E 0 90 60 60
        E 0 90 61 60
        E 0 90 63 60
        E 60 80 48 00
        E 0 80 4a 00
        E 0 80 54 00
        E 0 80 56 00
        E 0 80 60 00
        E 0 80 61 00
        E 0 80 63 00
        E 60 90 60 60
        E 0 90 61 60
        E 0 90 63 60
        E 60 80 60 00
        E 0 80 61 00
        E 0 80 63 00
        E 60 90 3d 60
        E 0 90 48 60
        E 0 90 4a 60
        E 0 90 54 60
        E 0 90 56 60
        E 0 90 60 60
        E 0 90 61 60
        E 0 90 63 60
        E 60 80 3d 00
        E 0 80 48 00
        E 0 80 4a 00
        E 0 80 54 00
        E 0 80 56 00
        E 0 80 60 00
        E 0 80 61 00
        E 0 80 63 00
        E 180 90 54 60
        E 0 90 55 60
        E 0 90 60 60
        E 0 90 61 60
        E 0 90 62 60
        E 60 80 54 00
        E 0 80 55 00
        E 0 80 60 00
        E 0 80 61 00
        E 0 80 62 00
        E 60 90 60 60
        E 0 90 61 60
        E 0 90 62 60
        E 60 80 60 00
        E 0 80 61 00
        E 0 80 62 00
        E 60 90 48 60
        E 0 90 49 60
        E 0 90 54 60
        E 0 90 55 60
        E 0 90 60 60
        E 0 90 61 60
        E 0 90 62 60
        E 120 80 48 00
        E 0 80 49 00
        E 240 80 54 00
        E 0 80 55 00
        E 60 80 60 00
        E 0 80 61 00
        E 0 80 62 00
        E 60 90 40 60
        E 0 90 4a 60
        E 0 90 4b 60
        E 0 90 55 60
        E 0 90 58 60
        E 0 90 61 60
        E 0 90 62 60
        E 0 90 64 60
        E 60 80 40 00
        E 0 80 4a 00
        E 0 80 4b 00
        E 0 80 55 00
        E 0 80 58 00
        E 0 80 61 00
        E 0 80 62 00
        E 0 80 64 00
        E 60 90 61 60
        E 0 90 62 60
        E 0 90 64 60
        E 60 80 61 00
        E 0 80 62 00
        E 0 80 64 00
        E 60 90 4a 60
        E 0 90 4b 60
        E 0 90 55 60
        E 0 90 58 60
        E 0 90 61 60
        E 0 90 62 60
        E 0 90 64 60
        E 60 80 4a 00
        E 0 80 4b 00
        E 0 80 55 00
        E 0 80 58 00
        E 0 80 61 00
        E 0 80 62 00
        E 0 80 64 00
        E 60 90 61 60
        E 0 90 62 60
        E 0 90 64 60
        E 60 80 61 00
        E 0 80 62 00
        E 0 80 64 00
        E 60 90 40 60
        E 0 90 4a 60
        E 0 90 4b 60
        E 0 90 55 60
        E 0 90 58 60
        E 0 90 61 60
        E 0 90 62 60
        E 0 90 64 60
        E 60 80 40 00
        E 0 80 4a 00
        E 0 80 4b 00
        E 0 80 55 00
        E 0 80 58 00
        E 0 80 61 00
        E 0 80 62 00
        E 0 80 64 00
        E 60 90 61 60
        E 0 90 62 60
        E 0 90 64 60
        E 60 80 61 00
        E 0 80 62 00
        E 0 80 64 00
        E 60 90 4a 60
        E 0 90 4b 60
        E 0 90 55 60
        E 0 90 58 60
        E 0 90 61 60
        E 0 90 62 60
        E 0 90 64 60
        E 60 80 4a 00
        E 0 80 4b 00
        E 0 80 55 00
        E 0 80 58 00
        E 0 80 61 00
        E 0 80 62 00
        E 0 80 64 00
        E 60 90 61 60
        E 0 90 62 60
        E 0 90 64 60
        E 60 80 61 00
        E 0 80 62 00
        E 0 80 64 00
        E 60 90 40 60
        E 0 90 4a 60
        E 0 90 4b 60
        E 0 90 55 60
        E 0 90 58 60
        E 0 90 61 60
        E 0 90 62 60
        E 0 90 64 60
        E 60 80 40 00
        E 0 80 4a 00
        E 0 80 4b 00
        E 0 80 55 00
        E 0 80 58 00
        E 0 80 61 00
        E 0 80 62 00
        E 0 80 64 00
        E 180 90 55 60
        E 0 90 57 60
        E 0 90 61 60
        E 0 90 62 60
        E 0 90 63 60
        E 60 80 55 00
        E 0 80 57 00
        E 0 80 61 00
        E 0 80 62 00
        E 0 80 63 00
        E 60 90 61 60
        E 0 90 62 60
        E 0 90 63 60
        E 60 80 61 00
        E 0 80 62 00
        E 0 80 63 00
        E 60 90 49 60
        E 0 90 4b 60
        E 0 90 55 60
        E 0 90 57 60
        E 0 90 61 60
        E 0 90 62 60
        E 0 90 63 60
        E 60 80 49 00
        E 0 80 4b 00
        E 0 80 55 00
        E 0 80 57 00
        E 0 80 61 00
        E 0 80 62 00
        E 0 80 63 00
        E 60 90 61 60
        E 0 90 62 60
        E 0 90 63 60
        E 60 80 61 00
        E 0 80 62 00
        E 0 80 63 00
        E 60 90 49 60
        E 0 90 4b 60
        E 0 90 55 60
        E 0 90 57 60
        E 0 90 61 60
        E 0 90 62 60
        E 0 90 63 60
        E 60 80 49 00
        E 0 80 4b 00
        E 0 80 55 00
        E 0 80 57 00
        E 0 80 61 00
        E 0 80 62 00
        E 0 80 63 00
        E 60 90 61 60
        E 0 90 62 60
        E 0 90 63 60
        E 60 80 61 00
        E 0 80 62 00
        E 0 80 63 00
        E 60 90 3f 60
        E 0 90 49 60
        E 0 90 4b 60
        E 0 90 55 60
        E 0 90 57 60
        E 0 90 61 60
        E 0 90 62 60
        E 0 90 63 60
        E 120 80 3f 00
        E 0 80 49 00
        E 0 80 4b 00
        E 0 80 55 00
        E 0 80 57 00
        E 180 80 61 00
        E 0 80 62 00
        E 0 80 63 00
        E 60 90 60 60
        E 0 90 61 60
        E 0 90 62 60
        E 60 80 60 00
        E 0 80 61 00
        E 0 80 62 00
        E 60 90 48 60
        E 0 90 49 60
        E 0 90 54 60
        E 0 90 55 60
        E 0 90 60 60
        E 0 90 61 60
        E 0 90 62 60
        E 60 80 48 00
        E 0 80 49 00
        E 0 80 54 00
        E 0 80 55 00
        E 0 80 60 00
        E 0 80 61 00
        E 0 80 62 00
        E 60 90 60 60
        E 0 90 61 60
        E 0 90 62 60
        E 60 80 60 00
        E 0 80 61 00
        E 0 80 62 00
        E 60 90 48 60
        E 0 90 49 60
        E 0 90 54 60
        E 0 90 55 60
        E 0 90 60 60
        E 0 90 61 60
        E 0 90 62 60
        E 60 80 48 00
        E 0 80 49 00
        E 0 80 54 00
        E 0 80 55 00
        E 0 80 60 00
        E 0 80 61 00
        E 0 80 62 00
        E 60 90 60 60
        E 0 90 61 60
        E 0 90 62 60
        E 60 80 60 00
        E 0 80 61 00
        E 0 80 62 00
        E 60 90 3c 60
        E 0 90 48 60
        E 0 90 49 60
        E 0 90 54 60
        E 0 90 55 60
        E 0 90 60 60
        E 0 90 61 60
        E 0 90 62 60
        E 120 80 3c 00
        E 0 80 48 00
        E 0 80 49 00
        E 240 80 54 00
        E 0 80 55 00
        E 60 80 60 00
        E 0 80 61 00
        E 0 80 62 00
        E 60 90 4a 60
        E 0 90 4b 60
        E 0 90 55 60
        E 0 90 58 60
        E 0 90 61 60
        E 0 90 62 60
        E 0 90 64 60
        E 60 80 4a 00
        E 0 80 4b 00
        E 0 80 55 00
        E 0 80 58 00
        E 0 80 61 00
        E 0 80 62 00
        E 0 80 64 00
        E 60 90 61 60
        E 0 90 62 60
        E 0 90 64 60
        E 60 80 61 00
        E 0 80 62 00
        E 0 80 64 00
        E 60 90 55 60
        E 0 90 58 60
        E 0 90 61 60
        E 0 90 62 60
        E 0 90 64 60
        E 60 80 55 00
        E 0 80 58 00
        E 0 80 61 00
        E 0 80 62 00
        E 0 80 64 00
        E 60 90 61 60
        E 0 90 62 60
        E 0 90 64 60
        E 60 80 61 00
        E 0 80 62 00
        E 0 80 64 00
        E 60 90 40 60
        E 0 90 4a 60
        E 0 90 4b 60
        E 0 90 56 60
        E 0 90 58 60
        E 0 90 61 60
        E 0 90 63 60
        E 0 90 64 60
        E 60 80 40 00
        E 0 80 4a 00
        E 0 80 4b 00
        E 0 80 56 00
        E 0 80 58 00
        E 0 80 61 00
        E 0 80 63 00
        E 0 80 64 00
        E 60 90 61 60
        E 0 90 63 60
        E 0 90 64 60
        E 60 80 61 00
        E 0 80 63 00
        E 0 80 64 00
        E 60 90 4a 60
        E 0 90 4b 60
        E 0 90 56 60
        E 0 90 58 60
        E 0 90 61 60
        E 0 90 63 60
        E 0 90 64 60
        E 60 80 4a 00
        E 0 80 4b 00
        E 0 80 56 00
        E 0 80 58 00
        E 0 80 61 00
        E 0 80 63 00
        E 0 80 64 00
        E 60 90 61 60
        E 0 90 63 60
        E 0 90 64 60
        E 60 80 61 00
        E 0 80 63 00
        E 0 80 64 00
        E 60 90 40 60
        E 0 90 4a 60
        E 0 90 4b 60
        E 0 90 56 60
        E 0 90 58 60
        E 0 90 61 60
        E 0 90 63 60
        E 0 90 64 60
        E 60 80 40 00
        E 0 80 4a 00
        E 0 80 4b 00
        E 0 80 56 00
        E 0 80 58 00
        E 0 80 61 00
        E 0 80 63 00
        E 0 80 64 00
        E 60 90 61 60
        E 0 90 63 60
        E 0 90 64 60
        E 60 80 61 00
        E 0 80 63 00
        E 0 80 64 00
        E 60 90 4a 60
        E 0 90 4b 60
        E 0 90 56 60
        E 0 90 58 60
        E 0 90 61 60
        E 0 90 63 60
        E 0 90 64 60
        E 60 80 4a 00
        E 0 80 4b 00
        E 0 80 56 00
        E 0 80 58 00
        E 0 80 61 00
        E 0 80 63 00
        E 0 80 64 00
        E 60 90 61 60
        E 0 90 63 60
        E 0 90 64 60
        E 60 80 61 00
        E 0 80 63 00
        E 0 80 64 00
        E 60 90 40 60
        E 0 90 4a 60
        E 0 90 4b 60
        E 0 90 56 60
        E 0 90 58 60
        E 0 90 61 60
        E 0 90 63 60
        E 0 90 64 60
        E 60 80 40 00
        E 0 80 4a 00
        E 0 80 4b 00
        E 0 80 56 00
        E 0 80 58 00
        E 0 80 61 00
        E 0 80 63 00
        E 0 80 64 00
        E 180 90 55 60
        E 0 90 57 60
        E 0 90 61 60
        E 0 90 62 60
        E 0 90 63 60
        E 60 80 55 00
        E 0 80 57 00
        E 0 80 61 00
        E 0 80 62 00
        E 0 80 63 00
        E 60 90 61 60
        E 0 90 62 60
        E 0 90 63 60
        E 60 80 61 00
        E 0 80 62 00
        E 0 80 63 00
        E 60 90 49 60
        E 0 90 4b 60
        E 0 90 55 60
        E 0 90 57 60
        E 0 90 61 60
        E 0 90 62 60
        E 0 90 63 60
        E 60 80 49 00
        E 0 80 4b 00
        E 0 80 55 00
        E 0 80 57 00
        E 0 80 61 00
        E 0 80 62 00
        E 0 80 63 00
        E 60 90 61 60
        E 0 90 62 60
        E 0 90 63 60
        E 60 80 61 00
        E 0 80 62 00
        E 0 80 63 00
        E 60 90 49 60
        E 0 90 4b 60
        E 0 90 55 60
        E 0 90 57 60
        E 0 90 61 60
        E 0 90 62 60
        E 0 90 63 60
        E 60 80 49 00
        E 0 80 4b 00
        E 0 80 55 00
        E 0 80 57 00
        E 0 80 61 00
        E 0 80 62 00
        E 0 80 63 00
        E 60 90 61 60
        E 0 90 62 60
        E 0 90 63 60
        E 60 80 61 00
        E 0 80 62 00
        E 0 80 63 00
        E 60 90 3f 60
        E 0 90 49 60
        E 0 90 4b 60
        E 0 90 55 60
        E 0 90 57 60
        E 0 90 61 60
        E 0 90 62 60
        E 0 90 63 60
        E 60 80 3f 00
        E 0 80 49 00
        E 0 80 4b 00
        E 0 80 55 00
        E 0 80 57 00
        E 0 80 61 00
        E 0 80 62 00
        E 0 80 63 00
        E 180 90 54 60
        E 0 90 56 60
        E 0 90 60 60
        E 0 90 61 60
        E 0 90 63 60
        E 60 80 54 00
        E 0 80 56 00
        E 0 80 60 00
        E 0 80 61 00
        E 0 80 63 00
        E 180 90 48 60
        E 0 90 4a 60
        E 0 90 54 60
        E 0 90 56 60
        E 0 90 60 60
        E 0 90 61 60
        E 0 90 63 60
        E 60 80 48 00
        E 0 80 4a 00
        E 0 80 54 00
        E 0 80 56 00
        E 0 80 60 00
        E 0 80 61 00
        E 0 80 63 00
        E 60 90 60 60
        E 0 90 61 60
        E 0 90 63 60
        E 60 80 60 00
        E 0 80 61 00
        E 0 80 63 00
        E 60 90 54 60
        E 0 90 56 60
        E 0 90 60 60
        E 0 90 61 60
        E 0 90 63 60
        E 60 80 54 00
        E 0 80 56 00
        E 0 80 60 00
        E 0 80 61 00
        E 0 80 63 00
        E 180 90 3c 60
        E 0 90 48 60
        E 0 90 49 60
        E 0 90 54 60
        E 0 90 55 60
        E 0 90 60 60
        E 0 90 61 60
        E 0 90 62 60
        E 60 80 3c 00
        E 0 80 48 00
        E 0 80 49 00
        E 0 80 54 00
        E 0 80 55 00
        E 0 80 60 00
        E 0 80 61 00
        E 0 80 62 00
        E 180 90 48 60
        E 0 90 49 60
        E 0 90 54 60
        E 0 90 55 60
        E 0 90 60 60
        E 0 90 61 60
        E 0 90 62 60
        E 60 80 48 00
        E 0 80 49 00
        E 0 80 54 00
        E 0 80 55 00
        E 0 80 60 00
        E 0 80 61 00
        E 0 80 62 00
        E 60 90 60 60
        E 0 90 61 60
        E 0 90 62 60
        E 60 80 60 00
        E 0 80 61 00
        E 0 80 62 00
        E 60 90 48 60
        E 0 90 49 60
        E 0 90 54 60
        E 0 90 55 60
        E 0 90 60 60
        E 0 90 61 60
        E 0 90 62 60
        E 60 80 48 00
        E 0 80 49 00
        E 0 80 54 00
        E 0 80 55 00
        E 0 80 60 00
        E 0 80 61 00
        E 0 80 62 00
        E 180 90 55 60
        E 0 90 58 60
        E 0 90 61 60
        E 0 90 62 60
        E 0 90 64 60
        E 60 80 55 00
        E 0 80 58 00
        E 0 80 61 00
        E 0 80 62 00
        E 0 80 64 00
        E 60 90 61 60
        E 0 90 62 60
        E 0 90 64 60
        E 60 80 61 00
        E 0 80 62 00
        E 0 80 64 00
        E 60 90 40 60
        E 0 90 4a 60
        E 0 90 4b 60
        E 0 90 55 60
        E 0 90 58 60
        E 0 90 61 60
        E 0 90 62 60
        E 0 90 64 60
        E 60 80 40 00
        E 0 80 4a 00
        E 0 80 4b 00
        E 0 80 55 00
        E 0 80 58 00
        E 0 80 61 00
        E 0 80 62 00
        E 0 80 64 00
        E 60 90 61 60
        E 0 90 62 60
        E 0 90 64 60
        E 60 80 61 00
        E 0 80 62 00
        E 0 80 64 00
        E 60 90 4a 60
        E 0 90 4b 60
        E 0 90 55 60
        E 0 90 58 60
        E 0 90 61 60
        E 0 90 62 60
        E 0 90 64 60
        E 60 80 4a 00
        E 0 80 4b 00
        E 0 80 55 00
        E 0 80 58 00
        E 0 80 61 00
        E 0 80 62 00
        E 0 80 64 00
        E 60 90 61 60
        E 0 90 62 60
        E 0 90 64 60
        E 60 80 61 00
        E 0 80 62 00
        E 0 80 64 00
        E 60 90 40 60
        E 0 90 4a 60
        E 0 90 4b 60
        E 0 90 55 60
        E 0 90 58 60
        E 0 90 61 60
        E 0 90 62 60
        E 0 90 64 60
        E 60 80 40 00
        E 0 80 4a 00
        E 0 80 4b 00
        E 0 80 55 00
        E 0 80 58 00
        E 0 80 61 00
        E 0 80 62 00
        E 0 80 64 00
        E 60 90 61 60
        E 0 90 62 60
        E 0 90 64 60
        E 60 80 61 00
        E 0 80 62 00
        E 0 80 64 00
        E 60 90 4a 60
        E 0 90 4b 60
        E 0 90 55 60
        E 0 90 58 60
        E 0 90 61 60
        E 0 90 62 60
        E 0 90 64 60
        E 60 80 4a 00
        E 0 80 4b 00
        E 0 80 55 00
        E 0 80 58 00
        E 0 80 61 00
        E 0 80 62 00
        E 0 80 64 00
        E 60 90 61 60
        E 0 90 62 60
        E 0 90 64 60
        E 60 80 61 00
        E 0 80 62 00
        E 0 80 64 00
        E 60 90 40 60
        E 0 90 4a 60
        E 0 90 4b 60
        E 0 90 55 60
        E 0 90 58 60
        E 0 90 61 60
        E 0 90 62 60
        E 0 90 64 60
        E 60 80 40 00
        E 0 80 4a 00
        E 0 80 4b 00
        E 0 80 55 00
        E 0 80 58 00
        E 0 80 61 00
        E 0 80 62 00
        E 0 80 64 00
        E 180 90 55 60
        E 0 90 57 60
        E 0 90 61 60
        E 0 90 62 60
        E 0 90 63 60
        E 60 80 55 00
        E 0 80 57 00
        E 0 80 61 00
        E 0 80 62 00
        E 0 80 63 00
        E 60 90 61 60
        E 0 90 62 60
        E 0 90 63 60
        E 60 80 61 00
        E 0 80 62 00
        E 0 80 63 00
        E 60 90 49 60
        E 0 90 4b 60
        E 0 90 55 60
        E 0 90 57 60
        E 0 90 61 60
        E 0 90 62 60
        E 0 90 63 60
        E 60 80 49 00
        E 0 80 4b 00
        E 0 80 55 00
        E 0 80 57 00
        E 0 80 61 00
        E 0 80 62 00
        E 0 80 63 00
        E 60 90 61 60
        E 0 90 62 60
        E 0 90 63 60
        E 60 80 61 00
        E 0 80 62 00
        E 0 80 63 00
        E 60 90 49 60
        E 0 90 4b 60
        E 0 90 55 60
        E 0 90 57 60
        E 0 90 61 60
        E 0 90 62 60
        E 0 90 63 60
        E 60 80 49 00
        E 0 80 4b 00
        E 0 80 55 00
        E 0 80 57 00
        E 0 80 61 00
        E 0 80 62 00
        E 0 80 63 00
        E 60 90 61 60
        E 0 90 62 60
        E 0 90 63 60
        E 60 80 61 00
        E 0 80 62 00
        E 0 80 63 00
        E 60 90 3f 60
        E 0 90 49 60
        E 0 90 4b 60
        E 0 90 55 60
        E 0 90 57 60
        E 0 90 61 60
        E 0 90 62 60
        E 0 90 63 60
        E 60 80 3f 00
        E 0 80 49 00
        E 0 80 4b 00
        E 0 80 55 00
        E 0 80 57 00
        E 0 80 61 00
        E 0 80 62 00
        E 0 80 63 00
        E 180 90 74 66
        E 0 90 54 60
        E 0 90 55 60
        E 0 90 60 60
        E 0 90 61 60
        E 0 90 62 60
        E 60 80 54 00
        E 0 80 55 00
        E 0 80 60 00
        E 0 80 61 00
        E 0 80 62 00
        E 60 90 60 60
        E 0 90 61 60
        E 0 90 62 60
        E 60 80 60 00
        E 0 80 61 00
        E 0 80 62 00
        E 60 90 48 60
        E 0 90 49 60
        E 0 90 54 60
        E 0 90 55 60
        E 0 90 60 60
        E 0 90 61 60
        E 0 90 62 60
        E 60 80 48 00
        E 0 80 49 00
        E 0 80 54 00
        E 0 80 55 00
        E 0 80 60 00
        E 0 80 61 00
        E 0 80 62 00
        E 60 90 60 60
        E 0 90 61 60
        E 0 90 62 60
        E 60 80 60 00
        E 0 80 61 00
        E 0 80 62 00
        E 60 90 48 60
        E 0 90 49 60
        E 0 90 54 60
        E 0 90 55 60
        E 0 90 60 60
        E 0 90 61 60
        E 0 90 62 60
        E 60 80 48 00
        E 0 80 49 00
        E 0 80 54 00
        E 0 80 55 00
        E 0 80 60 00
        E 0 80 61 00
        E 0 80 62 00
        E 60 90 60 60
        E 0 90 61 60
        E 0 90 62 60
        E 60 80 60 00
        E 0 80 61 00
        E 0 80 62 00
        E 60 90 3c 60
        E 0 90 48 60
        E 0 90 49 60
        E 0 90 54 60
        E 0 90 55 60
        E 0 90 60 60
        E 0 90 61 60
        E 0 90 62 60
        E 120 80 3c 00
        E 0 80 48 00
        E 0 80 49 00
        E 240 80 54 00
        E 0 80 55 00
        E 60 80 60 00
        E 0 80 61 00
        E 0 80 62 00
        E 60 80 74 00
        E 0 90 4a 60
        E 0 90 4b 60
        E 0 90 55 60
        E 0 90 58 60
        E 0 90 61 60
        E 0 90 62 60
        E 0 90 64 60
        E 60 80 4a 00
        E 0 80 4b 00
        E 0 80 55 00
        E 0 80 58 00
        E 0 80 61 00
        E 0 80 62 00
        E 0 80 64 00
        E 60 90 61 60
        E 0 90 62 60
        E 0 90 64 60
        E 60 80 61 00
        E 0 80 62 00
        E 0 80 64 00
        E 60 90 55 60
        E 0 90 58 60
        E 0 90 61 60
        E 0 90 62 60
        E 0 90 64 60
        E 60 80 55 00
        E 0 80 58 00
        E 0 80 61 00
        E 0 80 62 00
        E 0 80 64 00
        E 60 90 61 60
        E 0 90 62 60
        E 0 90 64 60
        E 60 80 61 00
        E 0 80 62 00
        E 0 80 64 00
        E 60 90 40 60
        E 0 90 4a 60
        E 0 90 4b 60
        E 0 90 56 60
        E 0 90 58 60
        E 0 90 61 60
        E 0 90 63 60
        E 0 90 64 60
        E 60 80 40 00
        E 0 80 4a 00
        E 0 80 4b 00
        E 0 80 56 00
        E 0 80 58 00
        E 0 80 61 00
        E 0 80 63 00
        E 0 80 64 00
        E 60 90 61 60
        E 0 90 63 60
        E 0 90 64 60
        E 60 80 61 00
        E 0 80 63 00
        E 0 80 64 00
        E 60 90 4a 60
        E 0 90 4b 60
        E 0 90 56 60
        E 0 90 58 60
        E 0 90 61 60
        E 0 90 63 60
        E 0 90 64 60
        E 60 80 4a 00
        E 0 80 4b 00
        E 0 80 56 00
        E 0 80 58 00
        E 0 80 61 00
        E 0 80 63 00
        E 0 80 64 00
        E 60 90 61 60
        E 0 90 63 60
        E 0 90 64 60
        E 60 80 61 00
        E 0 80 63 00
        E 0 80 64 00
        E 60 90 40 60
        E 0 90 4a 60
        E 0 90 4b 60
        E 0 90 56 60
        E 0 90 58 60
        E 0 90 61 60
        E 0 90 63 60
        E 0 90 64 60
        E 60 80 40 00
        E 0 80 4a 00
        E 0 80 4b 00
        E 0 80 56 00
        E 0 80 58 00
        E 0 80 61 00
        E 0 80 63 00
        E 0 80 64 00
        E 60 90 61 60
        E 0 90 63 60
        E 0 90 64 60
        E 60 80 61 00
        E 0 80 63 00
        E 0 80 64 00
        E 60 90 4a 60
        E 0 90 4b 60
        E 0 90 56 60
        E 0 90 58 60
        E 0 90 61 60
        E 0 90 63 60
        E 0 90 64 60
        E 60 80 4a 00
        E 0 80 4b 00
        E 0 80 56 00
        E 0 80 58 00
        E 0 80 61 00
        E 0 80 63 00
        E 0 80 64 00
        E 60 90 61 60
        E 0 90 63 60
        E 0 90 64 60
        E 60 80 61 00
        E 0 80 63 00
        E 0 80 64 00
        E 60 90 67 60
        E 320 90 4c 60
        E 0 90 58 60
        E 0 90 64 60
        E 120 80 4c 00
        E 400 80 58 00
        E 60 80 64 00
        E 60 90 3f 60
        E 0 90 4b 60
        E 0 90 57 60
        E 0 90 63 60
        E 60 80 3f 00
        E 0 80 4b 00
        E 0 80 57 00
        E 0 80 63 00
        E 60 90 62 60
        E 60 80 62 00
        E 60 90 55 60
        E 0 90 61 60
        E 60 80 55 00
        E 0 80 61 00
        E 60 90 60 60
        E 60 80 60 00
        E 60 90 49 60
        E 0 90 55 60
        E 0 90 61 60
        E 120 80 49 00
        E 240 80 55 00
        E 0 80 61 00
        E 120 90 3e 60
        E 0 90 4a 60
        E 0 90 56 60
        E 0 90 62 60
        E 1440 80 3e 00
        E 0 80 4a 00
        E 300 80 56 00
        E 0 80 62 00
        E 180 90 3e 60
        E 0 90 4a 60
        E 0 90 56 60
        E 0 90 62 60
        E 60 80 3e 00
        E 0 80 4a 00
        E 0 80 56 00
        E 0 80 62 00
        E 60 90 63 60
        E 60 80 63 00
        E 60 90 56 60
        E 0 90 62 60
        E 60 80 56 00
        E 0 80 62 00
        E 60 90 63 60
        E 60 80 63 00
        E 60 90 4b 60
        E 0 90 57 60
        E 0 90 63 60
        E 60 80 4b 00
        E 0 80 57 00
        E 0 80 63 00
        E 60 90 62 60
        E 300 80 62 00
        E 60 90 3e 60
        E 0 90 4a 60
        E 0 90 56 60
        E 0 90 62 60
        E 60 80 3e 00
        E 0 80 4a 00
        E 0 80 56 00
        E 0 80 62 00
        E 180 90 57 60
        E 0 90 63 60
        E 40 80 57 00
        E 0 80 63 00
        E 40 90 62 60
        E 40 80 62 00
        E 40 90 61 60
        E 40 80 61 00
        E 160 90 49 60
        E 0 90 55 60
        E 0 90 61 60
        E 60 80 49 00
        E 0 80 55 00
        E 0 80 61 00
        E 120 90 62 60
        E 60 80 62 00
        E 120 90 3d 60
        E 0 90 49 60
        E 0 90 55 60
        E 0 90 61 60
        E 480 80 3d 00
        E 0 80 49 00
        E 120 80 55 00
        E 0 80 61 00
        E 120 90 54 60
        E 0 90 60 60
        E 60 80 54 00
        E 0 80 60 00
        E 180 90 3d 60
        E 0 90 49 60
        E 0 90 55 60
        E 0 90 61 60
        E 720 80 3d 00
        E 0 80 49 00
        E 300 80 55 00
        E 0 80 61 00
        E 180 90 4c 60
        E 0 90 58 60
        E 0 90 64 60
        E 60 80 4c 00
        E 0 80 58 00
        E 0 80 64 00
        E 180 90 40 60
        E 0 90 4c 60
        E 0 90 58 60
        E 0 90 64 60
        E 40 80 40 00
        E 0 80 4c 00
        E 0 80 58 00
        E 0 80 64 00
        E 40 90 63 60
        E 40 80 63 00
        E 40 90 62 60
        E 40 80 62 00
        E 40 90 55 60
        E 0 90 61 60
        E 60 80 55 00
        E 0 80 61 00
        E 120 90 61 60
        E 360 80 61 00
        E 180 90 4b 60
        E 0 90 57 60
        E 0 90 63 60
        E 40 80 4b 00
        E 0 80 57 00
        E 0 80 63 00
        E 40 90 62 60
        E 40 80 62 00
        E 40 90 61 60
        E 40 80 61 00
        E 40 90 56 60
        E 0 90 62 60
        E 60 80 56 00
        E 0 80 62 00
        E 180 90 3d 60
        E 0 90 49 60
        E 0 90 55 60
        E 0 90 61 60
        E 60 80 3d 00
        E 0 80 49 00
        E 0 80 55 00
        E 0 80 61 00
        E 120 90 62 60
        E 60 80 62 00
        E 240 90 4b 60
        E 0 90 57 60
        E 0 90 63 60
        E 660 80 4b 00
        E 300 80 57 00
        E 0 80 63 00
        E 180 90 3e 60
        E 0 90 4a 60
        E 0 90 56 60
        E 0 90 62 60
        E 60 80 3e 00
        E 0 80 4a 00
        E 0 80 56 00
        E 0 80 62 00
        E 120 90 63 60
        E 420 80 63 00
        E 180 90 3e 60
        E 0 90 4a 60
        E 0 90 56 60
        E 0 90 62 60
        E 540 80 3e 00
        E 0 80 4a 00
        E 0 80 56 00
        E 0 80 62 00
        E 900 90 3f 60
        E 0 90 4b 60
        E 0 90 57 60
        E 0 90 64 60
        E 40 80 64 00
        E 40 90 63 60
        E 680 80 3f 00
        E 0 80 4b 00
        E 360 80 57 00
        E 0 80 63 00
        E 120 90 4b 60
        E 0 90 57 60
        E 0 90 63 60
        E 40 80 4b 00
        E 0 80 57 00
        E 0 80 63 00
        E 40 90 62 60
        E 40 80 62 00
        E 40 90 61 60
        E 40 80 61 00
        E 40 90 56 60
        E 0 90 62 60
        E 120 80 56 00
        E 200 80 62 00
        E 120 80 67 00
        E 0 90 3f 60
        E 0 90 49 60
        E 0 90 4b 60
        E 0 90 55 60
        E 0 90 57 60
        E 0 90 61 60
        E 0 90 62 60
        E 0 90 63 60
        E 60 80 3f 00
        E 0 80 49 00
        E 0 80 4b 00
        E 0 80 55 00
        E 0 80 57 00
        E 0 80 61 00
        E 0 80 62 00
        E 0 80 63 00
        E 300 90 61 60
        E 0 90 62 60
        E 0 90 63 60
        E 60 80 61 00
        E 0 80 62 00
        E 0 80 63 00
        E 60 90 49 60
        E 0 90 4b 60
        E 0 90 55 60
        E 0 90 57 60
        E 0 90 61 60
        E 0 90 62 60
        E 0 90 63 60
        E 60 80 49 00
        E 0 80 4b 00
        E 0 80 55 00
        E 0 80 57 00
        E 0 80 61 00
        E 0 80 62 00
        E 0 80 63 00
        E 180 90 55 60
        E 0 90 57 60
        E 0 90 61 60
        E 0 90 62 60
        E 0 90 63 60
        E 60 80 55 00
        E 0 80 57 00
        E 0 80 61 00
        E 0 80 62 00
        E 0 80 63 00
        E 180 90 3d 60
        E 0 90 48 60
        E 0 90 4a 60
        E 0 90 54 60
        E 0 90 56 60
        E 0 90 60 60
        E 0 90 61 60
        E 0 90 63 60
        E 60 80 3d 00
        E 0 80 48 00
        E 0 80 4a 00
        E 0 80 54 00
        E 0 80 56 00
        E 0 80 60 00
        E 0 80 61 00
        E 0 80 63 00
        E 180 90 48 60
        E 0 90 4a 60
        E 0 90 54 60
        E 0 90 56 60
        E 0 90 60 60
        E 0 90 61 60
        E 0 90 63 60
        E 60 80 48 00
        E 0 80 4a 00
        E 0 80 54 00
        E 0 80 56 00
        E 0 80 60 00
        E 0 80 61 00
        E 0 80 63 00
        E 180 90 3d 60
        E 0 90 48 60
        E 0 90 4a 60
        E 0 90 54 60
        E 0 90 56 60
        E 0 90 60 60
        E 0 90 61 60
        E 0 90 63 60
        E 60 80 3d 00
        E 0 80 48 00
        E 0 80 4a 00
        E 0 80 54 00
        E 0 80 56 00
        E 0 80 60 00
        E 0 80 61 00
        E 0 80 63 00
        E 180 90 48 60
        E 0 90 4a 60
        E 0 90 54 60
        E 0 90 56 60
        E 0 90 60 60
        E 0 90 61 60
        E 0 90 63 60
        E 60 80 48 00
        E 0 80 4a 00
        E 0 80 54 00
        E 0 80 56 00
        E 0 80 60 00
        E 0 80 61 00
        E 0 80 63 00
        E 60 90 60 60
        E 0 90 61 60
        E 0 90 63 60
        E 60 80 60 00
        E 0 80 61 00
        E 0 80 63 00
        E 60 90 3d 60
        E 0 90 48 60
        E 0 90 4a 60
        E 0 90 54 60
        E 0 90 56 60
        E 0 90 60 60
        E 0 90 61 60
        E 0 90 63 60
        E 60 80 3d 00
        E 0 80 48 00
        E 0 80 4a 00
        E 0 80 54 00
        E 0 80 56 00
        E 0 80 60 00
        E 0 80 61 00
        E 0 80 63 00
        E 180 90 54 60
        E 0 90 55 60
        E 0 90 60 60
        E 0 90 61 60
        E 0 90 62 60
        E 60 80 54 00
        E 0 80 55 00
        E 0 80 60 00
        E 0 80 61 00
        E 0 80 62 00
        E 60 90 60 60
        E 0 90 61 60
        E 0 90 62 60
        E 60 80 60 00
        E 0 80 61 00
        E 0 80 62 00
        E 60 90 48 60
        E 0 90 49 60
        E 0 90 54 60
        E 0 90 55 60
        E 0 90 60 60
        E 0 90 61 60
        E 0 90 62 60
        E 120 80 48 00
        E 0 80 49 00
        E 240 80 54 00
        E 0 80 55 00
        E 60 80 60 00
        E 0 80 61 00
        E 0 80 62 00
        E 60 90 40 60
        E 0 90 4a 60
        E 0 90 4b 60
        E 0 90 55 60
        E 0 90 58 60
        E 0 90 61 60
        E 0 90 62 60
        E 0 90 64 60
        E 60 80 40 00
        E 0 80 4a 00
        E 0 80 4b 00
        E 0 80 55 00
        E 0 80 58 00
        E 0 80 61 00
        E 0 80 62 00
        E 0 80 64 00
        E 60 90 61 60
        E 0 90 62 60
        E 0 90 64 60
        E 60 80 61 00
        E 0 80 62 00
        E 0 80 64 00
        E 60 90 4a 60
        E 0 90 4b 60
        E 0 90 55 60
        E 0 90 58 60
        E 0 90 61 60
        E 0 90 62 60
        E 0 90 64 60
        E 60 80 4a 00
        E 0 80 4b 00
        E 0 80 55 00
        E 0 80 58 00
        E 0 80 61 00
        E 0 80 62 00
        E 0 80 64 00
        E 60 90 61 60
        E 0 90 62 60
        E 0 90 64 60
        E 60 80 61 00
        E 0 80 62 00
        E 0 80 64 00
        E 60 90 40 60
        E 0 90 4a 60
        E 0 90 4b 60
        E 0 90 55 60
        E 0 90 58 60
        E 0 90 61 60
        E 0 90 62 60
        E 0 90 64 60
        E 60 80 40 00
        E 0 80 4a 00
        E 0 80 4b 00
        E 0 80 55 00
        E 0 80 58 00
        E 0 80 61 00
        E 0 80 62 00
        E 0 80 64 00
        E 60 90 61 60
        E 0 90 62 60
        E 0 90 64 60
        E 60 80 61 00
        E 0 80 62 00
        E 0 80 64 00
        E 60 90 4a 60
        E 0 90 4b 60
        E 0 90 55 60
        E 0 90 58 60
        E 0 90 61 60
        E 0 90 62 60
        E 0 90 64 60
        E 60 80 4a 00
        E 0 80 4b 00
        E 0 80 55 00
        E 0 80 58 00
        E 0 80 61 00
        E 0 80 62 00
        E 0 80 64 00
        E 60 90 61 60
        E 0 90 62 60
        E 0 90 64 60
        E 60 80 61 00
        E 0 80 62 00
        E 0 80 64 00
        E 60 90 40 60
        E 0 90 4a 60
        E 0 90 4b 60
        E 0 90 55 60
        E 0 90 58 60
        E 0 90 61 60
        E 0 90 62 60
        E 0 90 64 60
        E 60 80 40 00
        E 0 80 4a 00
        E 0 80 4b 00
        E 0 80 55 00
        E 0 80 58 00
        E 0 80 61 00
        E 0 80 62 00
        E 0 80 64 00
        E 180 90 55 60
        E 0 90 57 60
        E 0 90 61 60
        E 0 90 62 60
        E 0 90 63 60
        E 60 80 55 00
        E 0 80 57 00
        E 0 80 61 00
        E 0 80 62 00
        E 0 80 63 00
        E 0 90 74 66
        E 60 90 61 60
        E 0 90 62 60
        E 0 90 63 60
        E 60 80 61 00
        E 0 80 62 00
        E 0 80 63 00
        E 60 90 49 60
        E 0 90 4b 60
        E 0 90 55 60
        E 0 90 57 60
        E 0 90 61 60
        E 0 90 62 60
        E 0 90 63 60
        E 60 80 49 00
        E 0 80 4b 00
        E 0 80 55 00
        E 0 80 57 00
        E 0 80 61 00
        E 0 80 62 00
        E 0 80 63 00
        E 60 90 61 60
        E 0 90 62 60
        E 0 90 63 60
        E 60 80 61 00
        E 0 80 62 00
        E 0 80 63 00
        E 60 90 49 60
        E 0 90 4b 60
        E 0 90 55 60
        E 0 90 57 60
        E 0 90 61 60
        E 0 90 62 60
        E 0 90 63 60
        E 60 80 49 00
        E 0 80 4b 00
        E 0 80 55 00
        E 0 80 57 00
        E 0 80 61 00
        E 0 80 62 00
        E 0 80 63 00
        E 60 90 61 60
        E 0 90 62 60
        E 0 90 63 60
        E 60 80 61 00
        E 0 80 62 00
        E 0 80 63 00
        E 60 90 3f 60
        E 0 90 49 60
        E 0 90 4b 60
        E 0 90 55 60
        E 0 90 57 60
        E 0 90 61 60
        E 0 90 62 60
        E 0 90 63 60
        E 120 80 3f 00
        E 0 80 49 00
        E 0 80 4b 00
        E 0 80 55 00
        E 0 80 57 00
        E 180 80 61 00
        E 0 80 62 00
        E 0 80 63 00
        E 60 90 60 60
        E 0 90 61 60
        E 0 90 62 60
        E 60 80 60 00
        E 0 80 61 00
        E 0 80 62 00
        E 60 90 48 60
        E 0 90 49 60
        E 0 90 54 60
        E 0 90 55 60
        E 0 90 60 60
        E 0 90 61 60
        E 0 90 62 60
        E 60 80 48 00
        E 0 80 49 00
        E 0 80 54 00
        E 0 80 55 00
        E 0 80 60 00
        E 0 80 61 00
        E 0 80 62 00
        E 60 90 60 60
        E 0 90 61 60
        E 0 90 62 60
        E 60 80 60 00
        E 0 80 61 00
        E 0 80 62 00
        E 60 90 48 60
        E 0 90 49 60
        E 0 90 54 60
        E 0 90 55 60
        E 0 90 60 60
        E 0 90 61 60
        E 0 90 62 60
        E 60 80 48 00
        E 0 80 49 00
        E 0 80 54 00
        E 0 80 55 00
        E 0 80 60 00
        E 0 80 61 00
        E 0 80 62 00
        E 60 90 60 60
        E 0 90 61 60
        E 0 90 62 60
        E 60 80 60 00
        E 0 80 61 00
        E 0 80 62 00
        E 60 90 3c 60
        E 0 90 48 60
        E 0 90 49 60
        E 0 90 54 60
        E 0 90 55 60
        E 0 90 60 60
        E 0 90 61 60
        E 0 90 62 60
        E 120 80 3c 00
        E 0 80 48 00
        E 0 80 49 00
        E 240 80 54 00
        E 0 80 55 00
        E 60 80 60 00
        E 0 80 61 00
        E 0 80 62 00
        E 60 90 4a 60
        E 0 90 4b 60
        E 0 90 55 60
        E 0 90 58 60
        E 0 90 61 60
        E 0 90 62 60
        E 0 90 64 60
        E 60 80 4a 00
        E 0 80 4b 00
        E 0 80 55 00
        E 0 80 58 00
        E 0 80 61 00
        E 0 80 62 00
        E 0 80 64 00
        E 60 90 61 60
        E 0 90 62 60
        E 0 90 64 60
        E 60 80 61 00
        E 0 80 62 00
        E 0 80 64 00
        E 60 90 55 60
        E 0 90 58 60
        E 0 90 61 60
        E 0 90 62 60
        E 0 90 64 60
        E 60 80 55 00
        E 0 80 58 00
        E 0 80 61 00
        E 0 80 62 00
        E 0 80 64 00
        E 60 90 61 60
        E 0 90 62 60
        E 0 90 64 60
        E 60 80 61 00
        E 0 80 62 00
        E 0 80 64 00
        E 60 90 40 60
        E 0 90 4a 60
        E 0 90 4b 60
        E 0 90 56 60
        E 0 90 58 60
        E 0 90 61 60
        E 0 90 63 60
        E 0 90 64 60
        E 60 80 40 00
        E 0 80 4a 00
        E 0 80 4b 00
        E 0 80 56 00
        E 0 80 58 00
        E 0 80 61 00
        E 0 80 63 00
        E 0 80 64 00
        E 60 90 61 60
        E 0 90 63 60
        E 0 90 64 60
        E 60 80 61 00
        E 0 80 63 00
        E 0 80 64 00
        E 60 90 4a 60
        E 0 90 4b 60
        E 0 90 56 60
        E 0 90 58 60
        E 0 90 61 60
        E 0 90 63 60
        E 0 90 64 60
        E 60 80 4a 00
        E 0 80 4b 00
        E 0 80 56 00
        E 0 80 58 00
        E 0 80 61 00
        E 0 80 63 00
        E 0 80 64 00
        E 60 90 61 60
        E 0 90 63 60
        E 0 90 64 60
        E 60 80 61 00
        E 0 80 63 00
        E 0 80 64 00
        E 60 90 40 60
        E 0 90 4a 60
        E 0 90 4b 60
        E 0 90 56 60
        E 0 90 58 60
        E 0 90 61 60
        E 0 90 63 60
        E 0 90 64 60
        E 60 80 40 00
        E 0 80 4a 00
        E 0 80 4b 00
        E 0 80 56 00
        E 0 80 58 00
        E 0 80 61 00
        E 0 80 63 00
        E 0 80 64 00
        E 60 90 61 60
        E 0 90 63 60
        E 0 90 64 60
        E 60 80 61 00
        E 0 80 63 00
        E 0 80 64 00
        E 60 90 4a 60
        E 0 90 4b 60
        E 0 90 56 60
        E 0 90 58 60
        E 0 90 61 60
        E 0 90 63 60
        E 0 90 64 60
        E 60 80 4a 00
        E 0 80 4b 00
        E 0 80 56 00
        E 0 80 58 00
        E 0 80 61 00
        E 0 80 63 00
        E 0 80 64 00
        E 60 90 61 60
        E 0 90 63 60
        E 0 90 64 60
        E 60 80 74 00
        E 0 80 61 00
        E 0 80 63 00
        E 0 80 64 00
        E 60 90 40 60
        E 0 90 4a 60
        E 0 90 4b 60
        E 0 90 56 60
        E 0 90 58 60
        E 0 90 61 60
        E 0 90 63 60
        E 0 90 64 60
        E 60 80 40 00
        E 0 80 4a 00
        E 0 80 4b 00
        E 0 80 56 00
        E 0 80 58 00
        E 0 80 61 00
        E 0 80 63 00
        E 0 80 64 00
        E 180 90 55 60
        E 0 90 57 60
        E 0 90 61 60
        E 0 90 62 60
        E 0 90 63 60
        E 60 80 55 00
        E 0 80 57 00
        E 0 80 61 00
        E 0 80 62 00
        E 0 80 63 00
        E 60 90 61 60
        E 0 90 62 60
        E 0 90 63 60
        E 60 80 61 00
        E 0 80 62 00
        E 0 80 63 00
        E 60 90 49 60
        E 0 90 4b 60
        E 0 90 55 60
        E 0 90 57 60
        E 0 90 61 60
        E 0 90 62 60
        E 0 90 63 60
        E 60 80 49 00
        E 0 80 4b 00
        E 0 80 55 00
        E 0 80 57 00
        E 0 80 61 00
        E 0 80 62 00
        E 0 80 63 00
        E 60 90 61 60
        E 0 90 62 60
        E 0 90 63 60
        E 60 80 61 00
        E 0 80 62 00
        E 0 80 63 00
        E 60 90 49 60
        E 0 90 4b 60
        E 0 90 55 60
        E 0 90 57 60
        E 0 90 61 60
        E 0 90 62 60
        E 0 90 63 60
        E 60 80 49 00
        E 0 80 4b 00
        E 0 80 55 00
        E 0 80 57 00
        E 0 80 61 00
        E 0 80 62 00
        E 0 80 63 00
        E 60 90 61 60
        E 0 90 62 60
        E 0 90 63 60
        E 60 80 61 00
        E 0 80 62 00
        E 0 80 63 00
        E 60 90 3f 60
        E 0 90 49 60
        E 0 90 4b 60
        E 0 90 55 60
        E 0 90 57 60
        E 0 90 61 60
        E 0 90 62 60
        E 0 90 63 60
        E 60 80 3f 00
        E 0 80 49 00
        E 0 80 4b 00
        E 0 80 55 00
        E 0 80 57 00
        E 0 80 61 00
        E 0 80 62 00
        E 0 80 63 00
        E 180 90 54 60
        E 0 90 56 60
        E 0 90 60 60
        E 0 90 61 60
        E 0 90 63 60
        E 60 80 54 00
        E 0 80 56 00
        E 0 80 60 00
        E 0 80 61 00
        E 0 80 63 00
        E 180 90 48 60
        E 0 90 4a 60
        E 0 90 54 60
        E 0 90 56 60
        E 0 90 60 60
        E 0 90 61 60
        E 0 90 63 60
        E 60 80 48 00
        E 0 80 4a 00
        E 0 80 54 00
        E 0 80 56 00
        E 0 80 60 00
        E 0 80 61 00
        E 0 80 63 00
        E 60 90 60 60
        E 0 90 61 60
        E 0 90 63 60
        E 60 80 60 00
        E 0 80 61 00
        E 0 80 63 00
        E 60 90 54 60
        E 0 90 56 60
        E 0 90 60 60
        E 0 90 61 60
        E 0 90 63 60
        E 60 80 54 00
        E 0 80 56 00
        E 0 80 60 00
        E 0 80 61 00
        E 0 80 63 00
        E 180 90 3c 60
        E 0 90 48 60
        E 0 90 49 60
        E 0 90 54 60
        E 0 90 55 60
        E 0 90 60 60
        E 0 90 61 60
        E 0 90 62 60
        E 60 80 3c 00
        E 0 80 48 00
        E 0 80 49 00
        E 0 80 54 00
        E 0 80 55 00
        E 0 80 60 00
        E 0 80 61 00
        E 0 80 62 00
        E 180 90 48 60
        E 0 90 49 60
        E 0 90 54 60
        E 0 90 55 60
        E 0 90 60 60
        E 0 90 61 60
        E 0 90 62 60
        E 60 80 48 00
        E 0 80 49 00
        E 0 80 54 00
        E 0 80 55 00
        E 0 80 60 00
        E 0 80 61 00
        E 0 80 62 00
        E 60 90 60 60
        E 0 90 61 60
        E 0 90 62 60
        E 60 80 60 00
        E 0 80 61 00
        E 0 80 62 00
        E 60 90 48 60
        E 0 90 49 60
        E 0 90 54 60
        E 0 90 55 60
        E 0 90 60 60
        E 0 90 61 60
        E 0 90 62 60
        E 60 80 48 00
        E 0 80 49 00
        E 0 80 54 00
        E 0 80 55 00
        E 0 80 60 00
        E 0 80 61 00
        E 0 80 62 00
        E 180 90 55 60
        E 0 90 58 60
        E 0 90 61 60
        E 0 90 62 60
        E 0 90 64 60
        E 60 80 55 00
        E 0 80 58 00
        E 0 80 61 00
        E 0 80 62 00
        E 0 80 64 00
        E 60 90 61 60
        E 0 90 62 60
        E 0 90 64 60
        E 60 80 61 00
        E 0 80 62 00
        E 0 80 64 00
        E 60 90 40 60
        E 0 90 4a 60
        E 0 90 4b 60
        E 0 90 55 60
        E 0 90 58 60
        E 0 90 61 60
        E 0 90 62 60
        E 0 90 64 60
        E 60 80 40 00
        E 0 80 4a 00
        E 0 80 4b 00
        E 0 80 55 00
        E 0 80 58 00
        E 0 80 61 00
        E 0 80 62 00
        E 0 80 64 00
        E 60 90 61 60
        E 0 90 62 60
        E 0 90 64 60
        E 60 80 61 00
        E 0 80 62 00
        E 0 80 64 00
        E 60 90 4a 60
        E 0 90 4b 60
        E 0 90 55 60
        E 0 90 58 60
        E 0 90 61 60
        E 0 90 62 60
        E 0 90 64 60
        E 60 80 4a 00
        E 0 80 4b 00
        E 0 80 55 00
        E 0 80 58 00
        E 0 80 61 00
        E 0 80 62 00
        E 0 80 64 00
        E 60 90 61 60
        E 0 90 62 60
        E 0 90 64 60
        E 60 80 61 00
        E 0 80 62 00
        E 0 80 64 00
        E 60 90 40 60
        E 0 90 4a 60
        E 0 90 4b 60
        E 0 90 55 60
        E 0 90 58 60
        E 0 90 61 60
        E 0 90 62 60
        E 0 90 64 60
        E 60 80 40 00
        E 0 80 4a 00
        E 0 80 4b 00
        E 0 80 55 00
        E 0 80 58 00
        E 0 80 61 00
        E 0 80 62 00
        E 0 80 64 00
        E 60 90 61 60
        E 0 90 62 60
        E 0 90 64 60
        E 60 80 61 00
        E 0 80 62 00
        E 0 80 64 00
        E 60 90 4a 60
        E 0 90 4b 60
        E 0 90 55 60
        E 0 90 58 60
        E 0 90 61 60
        E 0 90 62 60
        E 0 90 64 60
        E 60 80 4a 00
        E 0 80 4b 00
        E 0 80 55 00
        E 0 80 58 00
        E 0 80 61 00
        E 0 80 62 00
        E 0 80 64 00
        E 60 90 61 60
        E 0 90 62 60
        E 0 90 64 60
        E 60 80 61 00
        E 0 80 62 00
        E 0 80 64 00
        E 60 90 40 60
        E 0 90 4a 60
        E 0 90 4b 60
        E 0 90 55 60
        E 0 90 58 60
        E 0 90 61 60
        E 0 90 62 60
        E 0 90 64 60
        E 60 80 40 00
        E 0 80 4a 00
        E 0 80 4b 00
        E 0 80 55 00
        E 0 80 58 00
        E 0 80 61 00
        E 0 80 62 00
        E 0 80 64 00
        E 180 90 55 60
        E 0 90 57 60
        E 0 90 61 60
        E 0 90 62 60
        E 0 90 63 60
        E 60 80 55 00
        E 0 80 57 00
        E 0 80 61 00
        E 0 80 62 00
        E 0 80 63 00
        E 60 90 61 60
        E 0 90 62 60
        E 0 90 63 60
        E 60 80 61 00
        E 0 80 62 00
        E 0 80 63 00
        E 60 90 49 60
        E 0 90 4b 60
        E 0 90 55 60
        E 0 90 57 60
        E 0 90 61 60
        E 0 90 62 60
        E 0 90 63 60
        E 60 80 49 00
        E 0 80 4b 00
        E 0 80 55 00
        E 0 80 57 00
        E 0 80 61 00
        E 0 80 62 00
        E 0 80 63 00
        E 60 90 61 60
        E 0 90 62 60
        E 0 90 63 60
        E 60 80 61 00
        E 0 80 62 00
        E 0 80 63 00
        E 60 90 49 60
        E 0 90 4b 60
        E 0 90 55 60
        E 0 90 57 60
        E 0 90 61 60
        E 0 90 62 60
        E 0 90 63 60
        E 60 80 49 00
        E 0 80 4b 00
        E 0 80 55 00
        E 0 80 57 00
        E 0 80 61 00
        E 0 80 62 00
        E 0 80 63 00
        E 60 90 61 60
        E 0 90 62 60
        E 0 90 63 60
        E 60 80 61 00
        E 0 80 62 00
        E 0 80 63 00
        E 60 90 3f 60
        E 0 90 49 60
        E 0 90 4b 60
        E 0 90 55 60
        E 0 90 57 60
        E 0 90 61 60
        E 0 90 62 60
        E 0 90 63 60
        E 60 80 3f 00
        E 0 80 49 00
        E 0 80 4b 00
        E 0 80 55 00
        E 0 80 57 00
        E 0 80 61 00
        E 0 80 62 00
        E 0 80 63 00
        E 180 90 54 60
        E 0 90 55 60
        E 0 90 60 60
        E 0 90 61 60
        E 0 90 62 60
        E 60 80 54 00
        E 0 80 55 00
        E 0 80 60 00
        E 0 80 61 00
        E 0 80 62 00
        E 60 90 60 60
        E 0 90 61 60
        E 0 90 62 60
        E 60 80 60 00
        E 0 80 61 00
        E 0 80 62 00
        E 60 90 48 60
        E 0 90 49 60
        E 0 90 54 60
        E 0 90 55 60
        E 0 90 60 60
        E 0 90 61 60
        E 0 90 62 60
        E 60 80 48 00
        E 0 80 49 00
        E 0 80 54 00
        E 0 80 55 00
        E 0 80 60 00
        E 0 80 61 00
        E 0 80 62 00
        E 60 90 60 60
        E 0 90 61 60
        E 0 90 62 60
        E 60 80 60 00
        E 0 80 61 00
        E 0 80 62 00
        E 60 90 48 60
        E 0 90 49 60
        E 0 90 54 60
        E 0 90 55 60
        E 0 90 60 60
        E 0 90 61 60
        E 0 90 62 60
        E 60 80 48 00
        E 0 80 49 00
        E 0 80 54 00
        E 0 80 55 00
        E 0 80 60 00
        E 0 80 61 00
        E 0 80 62 00
        E 60 90 60 60
        E 0 90 61 60
        E 0 90 62 60
        E 60 80 60 00
        E 0 80 61 00
        E 0 80 62 00
        E 60 90 3c 60
        E 0 90 48 60
        E 0 90 49 60
        E 0 90 54 60
        E 0 90 55 60
        E 0 90 60 60
        E 0 90 61 60
        E 0 90 62 60
        E 120 80 3c 00
        E 0 80 48 00
        E 0 80 49 00
        E 240 80 54 00
        E 0 80 55 00
        E 60 80 60 00
        E 0 80 61 00
        E 0 80 62 00
        E 60 90 4a 60
        E 0 90 4b 60
        E 0 90 55 60
        E 0 90 58 60
        E 0 90 61 60
        E 0 90 62 60
        E 0 90 64 60
        E 60 80 4a 00
        E 0 80 4b 00
        E 0 80 55 00
        E 0 80 58 00
        E 0 80 61 00
        E 0 80 62 00
        E 0 80 64 00
        E 60 90 61 60
        E 0 90 62 60
        E 0 90 64 60
        E 60 80 61 00
        E 0 80 62 00
        E 0 80 64 00
        E 60 90 55 60
        E 0 90 58 60
        E 0 90 61 60
        E 0 90 62 60
        E 0 90 64 60
        E 60 80 55 00
        E 0 80 58 00
        E 0 80 61 00
        E 0 80 62 00
        E 0 80 64 00
        E 60 90 61 60
        E 0 90 62 60
        E 0 90 64 60
        E 60 80 61 00
        E 0 80 62 00
        E 0 80 64 00
        E 60 90 40 60
        E 0 90 4a 60
        E 0 90 4b 60
        E 0 90 56 60
        E 0 90 58 60
        E 0 90 61 60
        E 0 90 63 60
        E 0 90 64 60
        E 60 80 40 00
        E 0 80 4a 00
        E 0 80 4b 00
        E 0 80 56 00
        E 0 80 58 00
        E 0 80 61 00
        E 0 80 63 00
        E 0 80 64 00
        E 60 90 61 60
        E 0 90 63 60
        E 0 90 64 60
        E 60 80 61 00
        E 0 80 63 00
        E 0 80 64 00
        E 60 90 4a 60
        E 0 90 4b 60
        E 0 90 56 60
        E 0 90 58 60
        E 0 90 61 60
        E 0 90 63 60
        E 0 90 64 60
        E 60 80 4a 00
        E 0 80 4b 00
        E 0 80 56 00
        E 0 80 58 00
        E 0 80 61 00
        E 0 80 63 00
        E 0 80 64 00
        E 60 90 61 60
        E 0 90 63 60
        E 0 90 64 60
        E 60 80 61 00
        E 0 80 63 00
        E 0 80 64 00
        E 60 90 40 60
        E 0 90 4a 60
        E 0 90 4b 60
        E 0 90 56 60
        E 0 90 58 60
        E 0 90 61 60
        E 0 90 63 60
        E 0 90 64 60
        E 60 80 40 00
        E 0 80 4a 00
        E 0 80 4b 00
        E 0 80 56 00
        E 0 80 58 00
        E 0 80 61 00
        E 0 80 63 00
        E 0 80 64 00
        E 60 90 61 60
        E 0 90 63 60
        E 0 90 64 60
        E 60 80 61 00
        E 0 80 63 00
        E 0 80 64 00
        E 60 90 4a 60
        E 0 90 4b 60
        E 0 90 56 60
        E 0 90 58 60
        E 0 90 61 60
        E 0 90 63 60
        E 0 90 64 60
        E 60 80 4a 00
        E 0 80 4b 00
        E 0 80 56 00
        E 0 80 58 00
        E 0 80 61 00
        E 0 80 63 00
        E 0 80 64 00
        E 60 90 61 60
        E 0 90 63 60
        E 0 90 64 60
        E 60 80 61 00
        E 0 80 63 00
        E 0 80 64 00
        E 60 90 40 60
        E 0 90 4a 60
        E 0 90 4b 60
        E 0 90 56 60
        E 0 90 58 60
        E 0 90 61 60
        E 0 90 63 60
        E 0 90 64 60
        E 120 80 40 00
        E 0 80 4a 00
        E 0 80 4b 00
        E 240 80 56 00
        E 0 80 58 00
        E 60 80 61 00
        E 0 80 63 00
        E 0 80 64 00
        E 60 90 48 60
        E 0 90 49 60
        E 0 90 54 60
        E 0 90 55 60
        E 0 90 60 60
        E 0 90 61 60
        E 0 90 62 60
        E 60 80 48 00
        E 0 80 49 00
        E 0 80 54 00
        E 0 80 55 00
        E 0 80 60 00
        E 0 80 61 00
        E 0 80 62 00
        E 180 90 48 60
        E 0 90 49 60
        E 0 90 54 60
        E 0 90 55 60
        E 0 90 60 60
        E 0 90 61 60
        E 0 90 62 60
        E 60 80 48 00
        E 0 80 49 00
        E 0 80 54 00
        E 0 80 55 00
        E 0 80 60 00
        E 0 80 61 00
        E 0 80 62 00
        E 60 90 60 60
        E 0 90 61 60
        E 0 90 62 60
        E 60 80 60 00
        E 0 80 61 00
        E 0 80 62 00
        E 60 90 3c 60
        E 0 90 48 60
        E 0 90 49 60
        E 0 90 54 60
        E 0 90 55 60
        E 0 90 60 60
        E 0 90 61 60
        E 0 90 62 60
        E 120 80 3c 00
        E 0 80 48 00
        E 0 80 49 00
        E 0 80 54 00
        E 0 80 55 00
        E 180 80 60 00
        E 0 80 61 00
        E 0 80 62 00
        E 60 90 60 60
        E 0 90 61 60
        E 0 90 62 60
        E 60 80 60 00
        E 0 80 61 00
        E 0 80 62 00
        E 60 90 3c 60
        E 0 90 48 60
        E 0 90 49 60
        E 0 90 54 60
        E 0 90 55 60
        E 0 90 60 60
        E 0 90 61 60
        E 0 90 62 60
        E 60 80 3c 00
        E 0 80 48 00
        E 0 80 49 00
        E 0 80 54 00
        E 0 80 55 00
        E 0 80 60 00
        E 0 80 61 00
        E 0 80 62 00
        E 60 90 60 60
        E 0 90 61 60
        E 0 90 62 60
        E 60 80 60 00
        E 0 80 61 00
        E 0 80 62 00
        E 60 90 48 60
        E 0 90 49 60
        E 0 90 54 60
        E 0 90 55 60
        E 0 90 60 60
        E 0 90 61 60
        E 0 90 62 60
        E 60 80 48 00
        E 0 80 49 00
        E 0 80 54 00
        E 0 80 55 00
        E 0 80 60 00
        E 0 80 61 00
        E 0 80 62 00
        E 60 90 60 60
        E 0 90 61 60
        E 0 90 62 60
        E 60 80 60 00
        E 0 80 61 00
        E 0 80 62 00
        E 60 90 3c 60
        E 0 90 48 60
        E 0 90 49 60
        E 0 90 54 60
        E 0 90 55 60
        E 0 90 60 60
        E 0 90 61 60
        E 0 90 62 60
        E 60 80 3c 00
        E 0 80 48 00
        E 0 80 49 00
        E 0 80 54 00
        E 0 80 55 00
        E 0 80 60 00
        E 0 80 61 00
        E 0 80 62 00
        E 180 90 55 60
        E 0 90 57 60
        E 0 90 61 60
        E 0 90 62 60
        E 0 90 63 60
        E 60 80 55 00
        E 0 80 57 00
        E 0 80 61 00
        E 0 80 62 00
        E 0 80 63 00
        E 180 90 49 60
        E 0 90 4b 60
        E 0 90 55 60
        E 0 90 57 60
        E 0 90 61 60
        E 0 90 62 60
        E 0 90 63 60
        E 60 80 49 00
        E 0 80 4b 00
        E 0 80 55 00
        E 0 80 57 00
        E 0 80 61 00
        E 0 80 62 00
        E 0 80 63 00
        E 180 90 55 60
        E 0 90 57 60
        E 0 90 61 60
        E 0 90 62 60
        E 0 90 63 60
        E 60 80 55 00
        E 0 80 57 00
        E 0 80 61 00
        E 0 80 62 00
        E 0 80 63 00
        E 60 90 61 60
        E 0 90 62 60
        E 0 90 63 60
        E 60 80 61 00
        E 0 80 62 00
        E 0 80 63 00
        E 60 90 3e 60
        E 0 90 4a 60
        E 0 90 56 60
        E 0 90 63 60
        E 120 80 3e 00
        E 0 80 4a 00
        E 240 80 56 00
        E 0 80 63 00
        E 120 90 49 60
        E 0 90 55 60
        E 0 90 62 60
        E 120 80 49 00
        E 240 80 55 00
        E 0 80 62 00
        E 120 90 3c 60
        E 0 90 48 60
        E 0 90 54 60
        E 0 90 61 60
        E 120 80 3c 00
        E 0 80 48 00
        E 240 80 54 00
        E 0 80 61 00
        E 120 90 48 60
        E 0 90 4a 60
        E 0 90 54 60
        E 0 90 56 60
        E 0 90 60 60
        E 0 90 61 60
        E 0 90 63 60
        E 60 80 48 00
        E 0 80 4a 00
        E 0 80 54 00
        E 0 80 56 00
        E 0 80 60 00
        E 0 80 61 00
        E 0 80 63 00
        E 60 90 60 60
        E 0 90 61 60
        E 0 90 63 60
        E 60 80 60 00
        E 0 80 61 00
        E 0 80 63 00
        E 60 90 48 60
        E 0 90 4a 60
        E 0 90 54 60
        E 0 90 56 60
        E 0 90 60 60
        E 0 90 61 60
        E 0 90 63 60
        E 60 80 48 00
        E 0 80 4a 00
        E 0 80 54 00
        E 0 80 56 00
        E 0 80 60 00
        E 0 80 61 00
        E 0 80 63 00
        E 60 90 60 60
        E 0 90 61 60
        E 0 90 63 60
        E 60 80 60 00
        E 0 80 61 00
        E 0 80 63 00
        E 60 90 3d 60
        E 0 90 48 60
        E 0 90 4a 60
        E 0 90 54 60
        E 0 90 56 60
        E 0 90 60 60
        E 0 90 61 60
        E 0 90 63 60
        E 60 80 3d 00
        E 0 80 48 00
        E 0 80 4a 00
        E 0 80 54 00
        E 0 80 56 00
        E 0 80 60 00
        E 0 80 61 00
        E 0 80 63 00
        E 60 90 60 60
        E 0 90 61 60
        E 0 90 63 60
        E 60 80 60 00
        E 0 80 61 00
        E 0 80 63 00
        E 60 90 48 60
        E 0 90 4a 60
        E 0 90 54 60
        E 0 90 56 60
        E 0 90 60 60
        E 0 90 61 60
        E 0 90 63 60
        E 60 80 48 00
        E 0 80 4a 00
        E 0 80 54 00
        E 0 80 56 00
        E 0 80 60 00
        E 0 80 61 00
        E 0 80 63 00
        E 60 90 60 60
        E 0 90 61 60
        E 0 90 63 60
        E 60 80 60 00
        E 0 80 61 00
        E 0 80 63 00
        E 60 90 3d 60
        E 0 90 48 60
        E 0 90 4a 60
        E 0 90 54 60
        E 0 90 56 60
        E 0 90 60 60
        E 0 90 61 60
        E 0 90 63 60
        E 60 80 3d 00
        E 0 80 48 00
        E 0 80 4a 00
        E 0 80 54 00
        E 0 80 56 00
        E 0 80 60 00
        E 0 80 61 00
        E 0 80 63 00
        E 180 90 48 60
        E 0 90 4a 60
        E 0 90 54 60
        E 0 90 56 60
        E 0 90 60 60
        E 0 90 61 60
        E 0 90 63 60
        E 60 80 48 00
        E 0 80 4a 00
        E 0 80 54 00
        E 0 80 56 00
        E 0 80 60 00
        E 0 80 61 00
        E 0 80 63 00
        E 60 90 60 60
        E 0 90 61 60
        E 0 90 63 60
        E 60 80 60 00
        E 0 80 61 00
        E 0 80 63 00
        E 60 90 3d 60
        E 0 90 48 60
        E 0 90 4a 60
        E 0 90 54 60
        E 0 90 56 60
        E 0 90 60 60
        E 0 90 61 60
        E 0 90 63 60
        E 60 80 3d 00
        E 0 80 48 00
        E 0 80 4a 00
        E 0 80 54 00
        E 0 80 56 00
        E 0 80 60 00
        E 0 80 61 00
        E 0 80 63 00
        E 180 90 54 60
        E 0 90 57 60
        E 0 90 60 60
        E 0 90 62 60
        E 0 90 63 60
        E 60 80 54 00
        E 0 80 57 00
        E 0 80 60 00
        E 0 80 62 00
        E 0 80 63 00
        E 180 90 49 60
        E 0 90 4a 60
        E 0 90 54 60
        E 0 90 57 60
        E 0 90 60 60
        E 0 90 62 60
        E 0 90 63 60
        E 60 80 49 00
        E 0 80 4a 00
        E 0 80 54 00
        E 0 80 57 00
        E 0 80 60 00
        E 0 80 62 00
        E 0 80 63 00
        E 60 90 60 60
        E 0 90 62 60
        E 0 90 63 60
        E 60 80 60 00
        E 0 80 62 00
        E 0 80 63 00
        E 60 90 49 60
        E 0 90 4a 60
        E 0 90 54 60
        E 0 90 57 60
        E 0 90 60 60
        E 0 90 62 60
        E 0 90 63 60
        E 60 80 49 00
        E 0 80 4a 00
        E 0 80 54 00
        E 0 80 57 00
        E 0 80 60 00
        E 0 80 62 00
        E 0 80 63 00
        E 60 90 60 60
        E 0 90 62 60
        E 0 90 63 60
        E 60 80 60 00
        E 0 80 62 00
        E 0 80 63 00
        E 60 90 3e 60
        E 0 90 49 60
        E 0 90 4a 60
        E 0 90 54 60
        E 0 90 57 60
        E 0 90 60 60
        E 0 90 62 60
        E 0 90 63 60
        E 60 80 3e 00
        E 0 80 49 00
        E 0 80 4a 00
        E 0 80 54 00
        E 0 80 57 00
        E 0 80 60 00
        E 0 80 62 00
        E 0 80 63 00
        E 180 90 54 60
        E 0 90 56 60
        E 0 90 60 60
        E 0 90 61 60
        E 0 90 63 60
        E 60 80 54 00
        E 0 80 56 00
        E 0 80 60 00
        E 0 80 61 00
        E 0 80 63 00
        E 60 90 60 60
        E 0 90 61 60
        E 0 90 63 60
        E 60 80 60 00
        E 0 80 61 00
        E 0 80 63 00
        E 60 90 48 60
        E 0 90 4a 60
        E 0 90 54 60
        E 0 90 56 60
        E 0 90 60 60
        E 0 90 61 60
        E 0 90 63 60
        E 60 80 48 00
        E 0 80 4a 00
        E 0 80 54 00
        E 0 80 56 00
        E 0 80 60 00
        E 0 80 61 00
        E 0 80 63 00
        E 60 90 60 60
        E 0 90 61 60
        E 0 90 63 60
        E 60 80 60 00
        E 0 80 61 00
        E 0 80 63 00
        E 60 90 48 60
        E 0 90 4a 60
        E 0 90 54 60
        E 0 90 56 60
        E 0 90 60 60
        E 0 90 61 60
        E 0 90 63 60
        E 60 80 48 00
        E 0 80 4a 00
        E 0 80 54 00
        E 0 80 56 00
        E 0 80 60 00
        E 0 80 61 00
        E 0 80 63 00
        E 60 90 60 60
        E 0 90 61 60
        E 0 90 63 60
        E 60 80 60 00
        E 0 80 61 00
        E 0 80 63 00
        E 60 90 3d 60
        E 0 90 48 60
        E 0 90 4a 60
        E 0 90 54 60
        E 0 90 56 60
        E 0 90 60 60
        E 0 90 61 60
        E 0 90 63 60
        E 60 80 3d 00
        E 0 80 48 00
        E 0 80 4a 00
        E 0 80 54 00
        E 0 80 56 00
        E 0 80 60 00
        E 0 80 61 00
        E 0 80 63 00
        E 180 90 54 60
        E 0 90 55 60
        E 0 90 60 60
        E 0 90 61 60
        E 0 90 62 60
        E 59 80 54 00
        E 0 80 55 00
        E 0 80 60 00
        E 1 80 61 00
        E 0 80 62 00
        E 180 90 48 60
        E 0 90 49 60
        E 0 90 54 60
        E 0 90 55 60
        E 0 90 60 60
        E 0 90 61 60
        E 0 90 62 60
        E 60 80 48 00
        E 0 80 49 00
        E 0 80 54 00
        E 0 80 55 00
        E 0 80 60 00
        E 0 80 61 00
        E 0 80 62 00
        E 60 90 60 60
        E 0 90 61 60
        E 0 90 62 60
        E 60 80 60 00
        E 0 80 61 00
        E 0 80 62 00
        E 60 90 48 60
        E 0 90 49 60
        E 0 90 54 60
        E 0 90 55 60
        E 0 90 60 60
        E 0 90 61 60
        E 0 90 62 60
        E 60 80 48 00
        E 0 80 49 00
        E 0 80 54 00
        E 0 80 55 00
        E 0 80 60 00
        E 0 80 61 00
        E 0 80 62 00
        E 60 90 60 60
        E 0 90 61 60
        E 0 90 62 60
        E 60 80 60 00
        E 0 80 61 00
        E 0 80 62 00
        E 60 90 3c 60
        E 0 90 48 60
        E 0 90 49 60
        E 0 90 54 60
        E 0 90 55 60
        E 0 90 60 60
        E 0 90 61 60
        E 0 90 62 60
        E 60 80 3c 00
        E 0 80 48 00
        E 0 80 49 00
        E 0 80 54 00
        E 0 80 55 00
        E 0 80 60 00
        E 0 80 61 00
        E 0 80 62 00
        E 60 90 60 60
        E 0 90 61 60
        E 0 90 62 60
        E 60 80 60 00
        E 0 80 61 00
        E 0 80 62 00
        E 59 90 60 60
        E 1 90 55 60
        E 0 90 56 60
        E 0 90 61 60
        E 0 90 62 60
        E 60 80 60 00
        E 0 80 55 00
        E 0 80 56 00
        E 0 80 61 00
        E 0 80 62 00
        E 60 90 60 60
        E 0 90 61 60
        E 0 90 62 60
        E 60 80 60 00
        E 0 80 61 00
        E 0 80 62 00
        E 60 90 3c 60
        E 0 90 48 60
        E 0 90 49 60
        E 0 90 54 60
        E 0 90 55 60
        E 0 90 60 60
        E 0 90 61 60
        E 0 90 62 60
        E 60 80 3c 00
        E 0 80 48 00
        E 0 80 49 00
        E 0 80 54 00
        E 0 80 55 00
        E 0 80 60 00
        E 0 80 61 00
        E 0 80 62 00
        E 60 90 60 60
        E 0 90 61 60
        E 0 90 62 60
        E 60 80 60 00
        E 0 80 61 00
        E 0 80 62 00
        E 60 90 48 60
        E 0 90 49 60
        E 0 90 54 60
        E 0 90 55 60
        E 0 90 60 60
        E 0 90 61 60
        E 0 90 62 60
        E 60 80 48 00
        E 0 80 49 00
        E 0 80 54 00
        E 0 80 55 00
        E 0 80 60 00
        E 0 80 61 00
        E 0 80 62 00
        E 60 90 60 60
        E 0 90 61 60
        E 0 90 62 60
        E 60 80 60 00
        E 0 80 61 00
        E 0 80 62 00
        E 60 90 3c 60
        E 0 90 48 60
        E 0 90 49 60
        E 0 90 54 60
        E 0 90 55 60
        E 0 90 60 60
        E 0 90 61 60
        E 0 90 62 60
        E 60 80 3c 00
        E 0 80 48 00
        E 0 80 49 00
        E 0 80 54 00
        E 0 80 55 00
        E 0 80 60 00
        E 0 80 61 00
        E 0 80 62 00
        E 180 90 55 60
        E 0 90 57 60
        E 0 90 61 60
        E 0 90 62 60
        E 0 90 63 60
        E 60 80 55 00
        E 0 80 57 00
        E 0 80 61 00
        E 0 80 62 00
        E 0 80 63 00
        E 60 90 61 60
        E 0 90 62 60
        E 0 90 63 60
        E 60 80 61 00
        E 0 80 62 00
        E 0 80 63 00
        E 60 90 49 60
        E 0 90 4b 60
        E 0 90 55 60
        E 0 90 57 60
        E 0 90 61 60
        E 0 90 62 60
        E 0 90 63 60
        E 60 80 49 00
        E 0 80 4b 00
        E 0 80 55 00
        E 0 80 57 00
        E 0 80 61 00
        E 0 80 62 00
        E 0 80 63 00
        E 60 90 61 60
        E 0 90 62 60
        E 0 90 63 60
        E 60 80 61 00
        E 0 80 62 00
        E 0 80 63 00
        E 60 90 55 60
        E 0 90 57 60
        E 0 90 61 60
        E 0 90 62 60
        E 0 90 63 60
        E 60 80 55 00
        E 0 80 57 00
        E 0 80 61 00
        E 0 80 62 00
        E 0 80 63 00
        E 60 90 61 60
        E 0 90 62 60
        E 0 90 63 60
        E 60 80 61 00
        E 0 80 62 00
        E 0 80 63 00
        E 60 90 3e 60
        E 0 90 4a 60
        E 0 90 56 60
        E 0 90 63 60
        E 120 80 3e 00
        E 0 80 4a 00
        E 240 80 56 00
        E 60 80 63 00
        E 60 90 49 60
        E 0 90 55 60
        E 0 90 62 60
        E 120 80 49 00
        E 240 80 55 00
        E 60 80 62 00
        E 60 90 3c 60
        E 0 90 48 60
        E 0 90 54 60
        E 0 90 61 60
        E 120 80 3c 00
        E 0 80 48 00
        E 240 80 54 00
        E 0 80 61 00
        E 120 90 48 60
        E 0 90 4a 60
        E 0 90 54 60
        E 0 90 56 60
        E 0 90 60 60
        E 0 90 61 60
        E 0 90 63 60
        E 60 80 48 00
        E 0 80 4a 00
        E 0 80 54 00
        E 0 80 56 00
        E 0 80 60 00
        E 0 80 61 00
        E 0 80 63 00
        E 60 90 60 60
        E 0 90 61 60
        E 0 90 63 60
        E 60 80 60 00
        E 0 80 61 00
        E 0 80 63 00
        E 60 90 48 60
        E 0 90 4a 60
        E 0 90 54 60
        E 0 90 56 60
        E 0 90 60 60
        E 0 90 61 60
        E 0 90 63 60
        E 60 80 48 00
        E 0 80 4a 00
        E 0 80 54 00
        E 0 80 56 00
        E 0 80 60 00
        E 0 80 61 00
        E 0 80 63 00
        E 60 90 60 60
        E 0 90 61 60
        E 0 90 63 60
        E 60 80 60 00
        E 0 80 61 00
        E 0 80 63 00
        E 60 90 3d 60
        E 0 90 48 60
        E 0 90 4a 60
        E 0 90 54 60
        E 0 90 56 60
        E 0 90 60 60
        E 0 90 61 60
        E 0 90 63 60
        E 60 80 3d 00
        E 0 80 48 00
        E 0 80 4a 00
        E 0 80 54 00
        E 0 80 56 00
        E 0 80 60 00
        E 0 80 61 00
        E 0 80 63 00
        E 60 90 60 60
        E 0 90 61 60
        E 0 90 63 60
        E 60 80 60 00
        E 0 80 61 00
        E 0 80 63 00
        E 60 90 48 60
        E 0 90 4a 60
        E 0 90 54 60
        E 0 90 56 60
        E 0 90 60 60
        E 0 90 61 60
        E 0 90 63 60
        E 60 80 48 00
        E 0 80 4a 00
        E 0 80 54 00
        E 0 80 56 00
        E 0 80 60 00
        E 0 80 61 00
        E 0 80 63 00
        E 60 90 60 60
        E 0 90 61 60
        E 0 90 63 60
        E 60 80 60 00
        E 0 80 61 00
        E 0 80 63 00
        E 60 90 3d 60
        E 0 90 48 60
        E 0 90 4a 60
        E 0 90 54 60
        E 0 90 56 60
        E 0 90 60 60
        E 0 90 61 60
        E 0 90 63 60
        E 60 80 3d 00
        E 0 80 48 00
        E 0 80 4a 00
        E 0 80 54 00
        E 0 80 56 00
        E 0 80 60 00
        E 0 80 61 00
        E 0 80 63 00
        <X 480 0
          /wFbaWRsZV9yZWFsdGltZV0=
        >
        E 38340 b0 7b 00
        GUID {14D9E950-FB92-4048-8603-8FD02AE3B865}
        IGNTEMPO 0 120.00000000 4 4
        SRCCOLOR 1180
        VELLANE 132 38 60
        COLORMAP "C:\Users\wejaa\AppData\Roaming\REAPER\Data\color_maps\rockband_guitarbass.png"
        TEXTSTRINGFILE "Text Events List.txt"
        CFGEDITVIEW 134557.640453 128.262729 0 12 0 0 0
        CFGEDIT 1 1 0 0 0 1 1 1 1 1 1 0.12500000 -8 -8 1370 736 1 2 1 2 0.00000000 0 0 0 0 0.500000 1 0 1.000000 64
        KEYSNAP 0 0 "102034050607" 0 "Major"
        EVTFILTER 0 -1 -1 -1 -1 0 1 0 0 -1.00000000 -1.00000000
      >
    >
  >
  <TRACK '{D0646325-76DD-4351-9B0C-77BB8E09B492}'
    NAME "guitar"
    PEAKCOL 16576
    BEAT -1
    AUTOMODE 0
    VOLPAN 1.00000000000000 0.00000000000000 -1.00000000000000 -1.00000000000000 1.00000000000000
    MUTESOLO 0 0 0
    IPHASE 0
    ISBUS 0 0
    BUSCOMP 0 0
    SHOWINMIX 1 0.666700 0.500000 1 0.500000 -1 -1 -1
    FREEMODE 0
    SEL 0
    REC 0 0 0 0 0 0 0
    VU 2
    TRACKHEIGHT 243 0
    INQ 0 0 0 0.5000000000 100 0 0 100
    NCHAN 2
    FX 1
    TRACKID {D0646325-76DD-4351-9B0C-77BB8E09B492}
    PERF 0
    MIDIOUT -1
    MAINSEND 1 0
    <ITEM
      POSITION 2.34352805768140
      SNAPOFFS 0.00000000000000
      LENGTH 207.59999999999999
      LOOP 0
      ALLTAKES 0
      SEL 0
      FADEIN 1 0.000000 0.000000 1 0
      FADEOUT 1 0.000000 0.000000 1 0
      MUTE 0
      IGUID {7D63FA1F-2A55-4E57-AB05-80DF8FA818BE}
      IID 86
      NAME "guitar_5.mp3"
      VOLPAN 1.000000 0.000000 1.000000 -1.000000
      SOFFS 0.00000000000000
      PLAYRATE 1.00000000000000 1 0.00000000000000 -1
      CHANMODE 0
      GUID {12139978-6C15-41CF-B80C-F9A977483474}
      <SOURCE MP3
        FILE "New folder\guitar_5.mp3" 1
      >
    >
  >
  <TRACK '{D426D6A4-A5BE-48FD-8411-EFD6F651999E}'
    NAME "guitar_[mvsep.com]"
    PEAKCOL 16576
    BEAT -1
    AUTOMODE 0
    VOLPAN 1.00000000000000 0.00000000000000 -1.00000000000000 -1.00000000000000 1.00000000000000
    MUTESOLO 0 0 0
    IPHASE 0
    ISBUS 0 0
    BUSCOMP 0 0
    SHOWINMIX 1 0.666700 0.500000 1 0.500000 -1 -1 -1
    FREEMODE 0
    SEL 0
    REC 0 0 0 0 0 0 0
    VU 2
    TRACKHEIGHT 286 0
    INQ 0 0 0 0.5000000000 100 0 0 100
    NCHAN 2
    FX 1
    TRACKID {D426D6A4-A5BE-48FD-8411-EFD6F651999E}
    PERF 0
    MIDIOUT -1
    MAINSEND 1 0
    <ITEM
      POSITION 2.34352805773092
      SNAPOFFS 0.00000000000000
      LENGTH 207.59999999999999
      LOOP 0
      ALLTAKES 0
      SEL 0
      FADEIN 1 0.000000 0.000000 1 0
      FADEOUT 1 0.000000 0.000000 1 0
      MUTE 0
      IGUID {35811BAD-7D30-44FF-87E0-535B4CF6BA50}
      IID 32
      NAME "guitar_[mvsep.com].mp3"
      VOLPAN 1.000000 0.000000 1.000000 -1.000000
      SOFFS 0.00000000000000
      PLAYRATE 1.00000000000000 1 0.00000000000000 -1
      CHANMODE 0
      GUID {9CF9017E-569C-4126-8DD1-3A3E555C6A8D}
      <SOURCE MP3
        FILE "guitar_[mvsep.com].mp3" 1
      >
    >
  >
  <TRACK '{C298A11E-8E06-44B8-AA31-429ECCE3F0AF}'
    NAME "PART VOCALS"
    PEAKCOL 16810239
    BEAT -1
    AUTOMODE 0
    VOLPAN 0.99997469241676 0.00000000000000 -1.00000000000000 -1.00000000000000 1.00000000000000
    MUTESOLO 0 0 0
    IPHASE 0
    ISBUS 0 0
    BUSCOMP 1 0
    SHOWINMIX 1 0.666700 0.500000 1 0.500000 -1 -1 -1
    FREEMODE 0
    SEL 0
    REC 0 4096 1 7 0 0 0
    TRACKHEIGHT 168 0
    INQ 0 0 0 0.5000000000 100 0 0 100
    NCHAN 2
    FX 1
    TRACKID {C298A11E-8E06-44B8-AA31-429ECCE3F0AF}
    PERF 0
    MIDIOUT -1
    <MIDINOTENAMES
      0 105 "Phrase Marker"
      0 84 "C5"
      0 36 "C1"
      0 83 "B"
      0 82 "Bb"
      0 81 "A"
      0 80 "G#"
      0 79 "G"
      0 78 "F#"
      0 77 "F"
      0 76 "E"
      0 75 "Eb"
      0 74 "D"
      0 73 "C#"
      0 72 "C4"
      0 71 "B"
      0 70 "Bb"
      0 69 "A"
      0 68 "G#"
      0 67 "G"
      0 66 "F#"
      0 65 "F"
      0 64 "E"
      0 63 "Eb"
      0 62 "D"
      0 61 "C#"
      0 60 "C3"
      0 59 "B"
      0 58 "Bb"
      0 57 "A"
      0 56 "G#"
      0 55 "G"
      0 54 "F#"
      0 53 "F"
      0 52 "E"
      0 51 "Eb"
      0 50 "D"
      0 49 "C#"
      0 48 "C2"
      0 47 "B"
      0 46 "Bb"
      0 45 "A"
      0 44 "G#"
      0 43 "G"
      0 42 "F#"
      0 41 "F"
      0 40 "E"
      0 39 "Eb"
      0 38 "D"
      0 37 "C#"
      0 97 "Not Displayed Percussion"
      0 96 "Displayed Percussion"
      0 104 "----"
      0 95 "----"
      0 116 "OVERDRIVE"
      0 115 "----"
      0 0 "Range Shift"
      0 1 "Lyric Shift"
    >
    MAINSEND 1 0
    <FXCHAIN
      WNDRECT 581 377 716 493
      SHOW 0
      LASTSEL 1
      DOCKED 0
      BYPASS 0 0
      <JS "IX/MIDI_Tool II" ""
        0.000000 85.000000 127.000000 0.000000 0.000000 0.000000 100.000000 0.000000 0.000000 127.000000 0.000000 0.000000 1.000000 0.000000 0.000000 - - - - - - - - - - - - - - - - - - - - - - - - - - - - - - - - - - - - - - - - - - - - - - - - - 
      >
      FLOATPOS 0 0 0 0
      FXID {CA785021-0433-497E-9A6C-EE23A1BC21B0}
      WAK 0
      BYPASS 0 0
      <VST "VSTi: ReaSynth (Cockos)" "reasynth.dll" 0 ""
        eXNlcu9e7f4AAAAAAgAAAAEAAAAAAAAAAgAAAAAAAAA4AAAAAAAAAA==
        AAAAAO++rd4N8K3eppvEOxe30ToAAAAAAAAAAAAAAACa9Q8/6WeIPQ==
        AAAAAAAAAD8AAIA/AAAAAAAAAD8AAAAAAAA=
      >
      FLOATPOS 32 32 338 405
      FXID {F124DD19-73B4-4CD5-B659-E246F2A3D0B3}
      WAK 0
    >
    <ITEM
      POSITION 0.00000000000000
      SNAPOFFS 0.00000000000000
      LENGTH 265.16925268570935
      LOOP 0
      ALLTAKES 0
      SEL 0
      FADEIN 1 0.000000 0.000000 1 0
      FADEOUT 1 0.000000 0.000000 1 0
      MUTE 0
      IGUID {9C9617EC-369A-41B9-80F6-31F4222F13F6}
      IID 10
      NAME "PART VOCALS"
      VOLPAN 1.000000 0.000000 1.000000 -1.000000
      SOFFS 0.00000000000000 0.00000000000000
      PLAYRATE 1.00000000000000 1 0.00000000000000 -65536
      CHANMODE 0
      GUID {8E872349-00D8-4243-95D7-0B92852E4EE5}
      <SOURCE MIDI
        HASDATA 1 480 QN
        POOLEDEVTS {74C2AC8E-C038-4D28-B68E-E839439C5C36}
        <X 0 0
          /wNQQVJUIFZPQ0FMUw==
        >
        <X 3840 0
          /wFbaWRsZV0=
        >
        <X 1920 0
          /wFbbWVsbG93XQ==
        >
        E 300 90 69 58
        <X 132 0
          /wVUeXQt
        >
        E 0 90 38 66
        E 100 80 38 00
        <X 80 0
          /wV0w7Y=
        >
        E 0 90 38 65
        E 50 80 38 00
        <X 31 0
          /wVuw6Qt
        >
        E 0 90 38 65
        E 77 80 38 00
        <X 47 0
          /wVraQ==
        >
        E 0 90 38 64
        E 60 80 38 00
        <X 83 0
          /wVzaWwt
        >
        E 0 90 38 60
        E 120 80 38 00
        <X 56 0
          /wVsYWwt
        >
        E 0 90 36 58
        E 104 80 36 00
        <X 58 0
          /wV0YQ==
        >
        E 0 90 34 58
        E 68 80 34 00
        <X 61 0
          /wVrdWluLQ==
        >
        E 0 90 36 58
        E 202 80 36 00
        <X 58 0
          /wVrYQ==
        >
        E 0 90 2c 58
        E 73 80 2c 00
        <X 62 0
          /wVtdXMt
        >
        E 0 90 2f 58
        E 189 80 2f 00
        <X 141 0
          /wV0YWE=
        >
        E 0 90 31 58
        E 689 80 31 00
        E 159 80 69 00
        E 1140 90 69 58
        <X 193 0
          /wVWZS0=
        >
        E 0 90 36 58
        E 57 80 36 00
        <X 47 0
          /wVzaQ==
        >
        E 0 90 36 58
        E 114 80 36 00
        <X 64 0
          /wVvLQ==
        >
        E 0 90 36 58
        E 65 80 36 00
        <X 26 0
          /wVsaQ==
        >
        E 0 90 36 58
        E 84 80 36 00
        <X 40 0
          /wVhbC0=
        >
        E 0 90 36 58
        E 180 80 36 00
        <X 50 0
          /wVoYWFsLQ==
        >
        E 0 90 36 58
        E 106 80 36 00
        <X 28 0
          /wVsYQ==
        >
        E 0 90 36 58
        E 64 80 36 00
        <X 50 0
          /wVqb3Mt
        >
        E 0 90 34 58
        E 129 80 34 00
        <X 56 0
          /wVzYS0=
        >
        E 0 90 2f 58
        E 128 80 2f 00
        <X 81 0
          /wVraW4=
        >
        E 0 90 2f 58
        E 80 80 2f 00
        <X 64 0
          /wUr
        >
        E 0 90 31 58
        E 532 80 31 00
        <X 129 0
          /wUr
        >
        E 0 90 2d 58
        E 63 80 2d 00
        <X 111 0
          /wUr
        >
        E 0 90 2f 58
        E 492 80 2f 00
        E 147 80 69 00
        E 660 90 69 58
        <X 189 0
          /wXDhGkt
        >
        E 0 90 38 58
        E 131 80 38 00
        <X 58 0
          /wV0aQ==
        >
        E 0 90 38 58
        E 44 80 38 00
        <X 47 0
          /wVreS0=
        >
        E 0 90 38 58
        E 36 80 38 00
        <X 40 0
          /wVzeWk=
        >
        E 0 90 38 58
        E 109 80 38 00
        <X 52 0
          /wUiTWlrLQ==
        >
        E 0 90 38 58
        E 95 80 38 00
        <X 86 0
          /wVzaQ==
        >
        E 0 90 36 58
        E 91 80 36 00
        <X 66 0
          /wV0dW8=
        >
        E 0 90 34 58
        E 135 80 34 00
        <X 62 0
          /wVydS0=
        >
        E 0 90 36 58
        E 89 80 36 00
        <X 38 0
          /wVuby0=
        >
        E 0 90 2c 58
        E 67 80 2c 00
        <X 42 0
          /wVqYQ==
        >
        E 0 90 2c 58
        E 86 80 2c 00
        <X 41 0
          /wVydXMt
        >
        E 0 90 2f 58
        E 176 80 2f 00
        <X 116 0
          /wV0YWEi
        >
        E 0 90 31 58
        E 567 80 31 00
        E 237 80 69 00
        E 1080 90 69 58
        E 0 90 74 58
        <X 162 0
          /wVMYXAt
        >
        E 0 90 36 58
        E 134 80 36 00
        <X 85 0
          /wVzaQ==
        >
        E 0 90 36 58
        E 84 80 36 00
        <X 47 0
          /wVvbg==
        >
        E 0 90 36 58
        E 49 80 36 00
        <X 33 0
          /wVrYWk=
        >
        E 0 90 36 58
        E 88 80 36 00
        <X 57 0
          /wVww6TDpHMt
        >
        E 0 90 36 58
        E 162 80 36 00
        <X 74 0
          /wV0w6RuLQ==
        >
        E 0 90 36 58
        E 95 80 36 00
        <X 50 0
          /wVzw6Q=
        >
        E 0 90 36 58
        E 68 80 36 00
        <X 52 0
          /wVzZS0=
        >
        E 0 90 38 58
        E 55 80 38 00
        <X 49 0
          /wVrYWkt
        >
        E 0 90 31 58
        E 246 80 31 00
        <X 47 0
          /wVzaW4=
        >
        E 0 90 34 58
        E 581 80 34 00
        E 242 80 69 00
        E 0 80 74 00
        E 1440 90 69 58
        <X 179 0
          /wVUeXQt
        >
        E 0 90 38 58
        E 83 80 38 00
        <X 89 0
          /wV0w7Y=
        >
        E 0 90 38 58
        E 65 80 38 00
        <X 36 0
          /wVpdC0=
        >
        E 0 90 38 58
        E 65 80 38 00
        <X 71 0
          /wVraQ==
        >
        E 0 90 38 58
        E 65 80 38 00
        <X 44 0
          /wVoZXQt
        >
        E 0 90 38 58
        E 93 80 38 00
        <X 128 0
          /wVrZW4=
        >
        E 0 90 36 58
        E 73 80 36 00
        <X 61 0
          /wVqYQ==
        >
        E 0 90 34 58
        E 67 80 34 00
        <X 59 0
          /wVrYXQt
        >
        E 0 90 36 58
        E 74 80 36 00
        <X 114 0
          /wVzb2k=
        >
        E 0 90 2c 58
        E 162 80 2c 00
        <X 59 0
          /wV0YWFrLQ==
        >
        E 0 90 2f 58
        E 232 80 2f 00
        <X 78 0
          /wVzZWVu
        >
        E 0 90 31 58
        E 645 80 31 00
        E 278 80 69 00
        E 1020 90 69 58
        <X 185 0
          /wVWaWwt
        >
        E 0 90 36 58
        E 122 80 36 00
        <X 28 0
          /wVsaS0=
        >
        E 0 90 36 58
        E 47 80 36 00
        <X 24 0
          /wVuw6Q=
        >
        E 0 90 36 58
        E 54 80 36 00
        <X 45 0
          /wVzb2k=
        >
        E 0 90 36 58
        E 149 80 36 00
        <X 51 0
          /wVodW8t
        >
        E 0 90 36 58
        E 180 80 36 00
        <X 50 0
          /wVrYXVz
        >
        E 0 90 36 58
        E 178 80 36 00
        <X 77 0
          /wVrYXUt
        >
        E 0 90 34 58
        E 196 80 34 00
        <X 49 0
          /wVwdW4t
        >
        E 0 90 2f 58
        E 158 80 2f 00
        <X 60 0
          /wVnaW4=
        >
        E 0 90 31 58
        E 455 80 31 00
        <X 236 0
          /wUr
        >
        E 0 90 2d 58
        E 77 80 2d 00
        <X 81 0
          /wUr
        >
        E 0 90 2f 58
        E 697 80 2f 00
        E 221 80 69 00
        E 360 90 69 58
        <X 235 0
          /wVLdWluLQ==
        >
        E 0 90 38 58
        E 126 80 38 00
        <X 30 0
          /wVrYQ==
        >
        E 0 90 38 58
        E 62 80 38 00
        <X 34 0
          /wV0w6Qt
        >
        E 0 90 38 58
        E 73 80 38 00
        <X 27 0
          /wVtw6Ru
        >
        E 0 90 38 58
        E 101 80 38 00
        <X 35 0
          /wV0dW4t
        >
        E 0 90 38 58
        E 206 80 38 00
        <X 31 0
          /wV0aS0=
        >
        E 0 90 36 58
        E 51 80 36 00
        <X 28 0
          /wVzaQ==
        >
        E 0 90 34 58
        E 118 80 34 00
        <X 44 0
          /wVvLQ==
        >
        E 0 90 36 58
        E 74 80 36 00
        <X 34 0
          /wVtYWst
        >
        E 0 90 34 58
        E 111 80 34 00
        <X 106 0
          /wVzaQ==
        >
        E 0 90 2c 58
        E 115 80 2c 00
        <X 65 0
          /wVtYWFrLQ==
        >
        E 0 90 2f 58
        E 169 80 2f 00
        <X 74 0
          /wVzZWVu
        >
        E 0 90 31 58
        E 732 80 31 00
        E 259 80 69 00
        E 840 90 69 58
        E 0 90 74 58
        <X 315 0
          /wVWZS0=
        >
        E 0 90 36 58
        E 55 80 36 00
        <X 53 0
          /wVzaQ==
        >
        E 0 90 36 58
        E 86 80 36 00
        <X 52 0
          /wVvLQ==
        >
        E 0 90 36 58
        E 58 80 36 00
        <X 36 0
          /wVsaQ==
        >
        E 0 90 36 58
        E 67 80 36 00
        <X 55 0
          /wVtdXMt
        >
        E 0 90 36 58
        E 130 80 36 00
        <X 105 0
          /wV0YWE=
        >
        E 0 90 36 58
        E 114 80 36 00
        <X 58 0
          /wVrdWlu
        >
        E 0 90 36 58
        E 91 80 36 00
        <X 53 0
          /wVhaS0=
        >
        E 0 90 38 58
        E 204 80 38 00
        <X 50 0
          /wVrYS0=
        >
        E 0 90 31 58
        E 89 80 31 00
        <X 52 0
          /wVraW4=
        >
        E 0 90 34 58
        E 800 80 34 00
        E 237 80 69 00
        E 0 80 74 00
        E 1080 90 69 66
        <X 183 0
          /wVKYQ==
        >
        E 0 90 34 66
        E 81 80 34 00
        <X 53 0
          /wV2ZS0=
        >
        E 0 90 3d 66
        E 61 80 3d 00
        <X 57 0
          /wVzaQ==
        >
        E 0 90 3d 66
        E 87 80 3d 00
        <X 43 0
          /wVvLQ==
        >
        E 0 90 3d 66
        E 67 80 3d 00
        <X 59 0
          /wVsaQ==
        >
        E 0 90 3b 66
        E 70 80 3b 00
        <X 58 0
          /wVtdXMt
        >
        E 0 90 3b 66
        E 112 80 3b 00
        <X 122 0
          /wV0YWE=
        >
        E 0 90 3b 66
        E 330 80 3b 00
        E 27 80 69 00
        E 30 90 69 66
        <X 13 0
          /wXDhGkt
        >
        E 0 90 38 66
        E 182 80 38 00
        <X 45 0
          /wV0aQ==
        >
        E 0 90 36 66
        E 57 80 36 00
        <X 57 0
          /wVrdWwt
        >
        E 0 90 38 66
        E 174 80 38 00
        <X 61 0
          /wVraQ==
        >
        E 0 90 3b 66
        E 73 80 3b 00
        <X 54 0
          /wVtdXMt
        >
        E 0 90 38 66
        E 137 80 38 00
        <X 105 0
          /wV0aXMt
        >
        E 0 90 36 66
        E 129 80 36 00
        <X 70 0
          /wVzYWFu
        >
        E 0 90 36 66
        E 184 80 36 00
        <X 54 0
          /wUr
        >
        E 0 90 38 66
        E 264 80 38 00
        <X 55 0
          /wUr
        >
        E 0 90 37 66
        E 331 80 37 00
        E 175 80 69 00
        E 180 90 69 66
        <X 171 0
          /wVKYQ==
        >
        E 0 90 39 66
        E 55 80 39 00
        <X 54 0
          /wVwYXAt
        >
        E 0 90 39 66
        E 51 80 39 00
        <X 108 0
          /wVwaS0=
        >
        E 0 90 39 66
        E 42 80 39 00
        <X 50 0
          /wVraW4=
        >
        E 0 90 39 66
        E 39 80 39 00
        <X 52 0
          /wVzYWk=
        >
        E 0 90 38 66
        E 111 80 38 00
        <X 40 0
          /wVrYWgt
        >
        E 0 90 36 66
        E 174 80 36 00
        <X 75 0
          /wV2aWE=
        >
        E 0 90 36 66
        E 199 80 36 00
        <X 52 0
          /wVqdW8t
        >
        E 0 90 36 66
        E 192 80 36 00
        <X 27 0
          /wVkYWst
        >
        E 0 90 36 66
        E 89 80 36 00
        <X 90 0
          /wVzZWVu
        >
        E 0 90 34 66
        E 338 80 34 00
        <X 248 0
          /wUr
        >
        E 0 90 38 66
        E 318 80 38 00
        <X 340 0
          /wUr
        >
        E 0 90 34 66
        E 492 80 34 00
        E 193 80 69 00
        E 240 90 69 66
        E 0 90 74 66
        <X 177 0
          /wVKYQ==
        >
        E 0 90 3d 66
        E 98 80 3d 00
        <X 42 0
          /wVpLQ==
        >
        E 0 90 3d 66
        E 40 80 3d 00
        <X 36 0
          /wVzw6Q=
        >
        E 0 90 3d 66
        E 149 80 3d 00
        <X 25 0
          /wVvLQ==
        >
        E 0 90 3d 66
        E 59 80 3d 00
        <X 40 0
          /wVsaQ==
        >
        E 0 90 3d 66
        E 84 80 3d 00
        <X 45 0
          /wVrw6RuLQ==
        >
        E 0 90 3b 66
        E 188 80 3b 00
        <X 68 0
          /wVuaXMt
        >
        E 0 90 3b 66
        E 127 80 3b 00
        <X 65 0
          /wVzw6Q=
        >
        E 0 90 3b 66
        E 114 80 3b 00
        <X 72 0
          /wVrdWluLQ==
        >
        E 0 90 3b 66
        E 171 80 3b 00
        <X 32 0
          /wVrYXM=
        >
        E 0 90 38 66
        E 89 80 38 00
        <X 67 0
          /wVtdXUt
        >
        E 0 90 36 66
        E 32 80 36 00
        <X 32 0
          /wUr
        >
        E 0 90 38 66
        E 104 80 38 00
        <X 39 0
          /wV0ZW4t
        >
        E 0 90 3b 66
        E 105 80 3b 00
        <X 48 0
          /wVrYWFu
        >
        E 0 90 36 66
        E 146 80 36 00
        <X 36 0
          /wUr
        >
        E 0 90 38 66
        E 607 80 38 00
        E 183 80 69 00
        E 0 80 74 00
        E 540 90 69 66
        <X 239 0
          /wVKby0=
        >
        E 0 90 39 66
        E 70 80 39 00
        <X 62 0
          /wVrdQ==
        >
        E 0 90 39 66
        E 62 80 39 00
        <X 37 0
          /wVrYW4t
        >
        E 0 90 39 66
        E 218 80 39 00
        <X 39 0
          /wV0b2k=
        >
        E 0 90 38 66
        E 187 80 38 00
        <X 62 0
          /wVrdWst
        >
        E 0 90 38 66
        E 77 80 38 00
        <X 167 0
          /wVraS0=
        >
        E 0 90 36 66
        E 84 80 36 00
        <X 19 0
          /wVh
        >
        E 0 90 36 66
        E 89 80 36 00
        <X 51 0
          /wVlLQ==
        >
        E 0 90 36 66
        E 67 80 36 00
        <X 57 0
          /wV0ZWkt
        >
        E 0 90 34 66
        E 194 80 34 00
        <X 54 0
          /wVzZWVu
        >
        E 0 90 36 66
        E 616 80 36 00
        <X 340 0
          /wUr
        >
        E 0 90 2f 66
        E 814 80 2f 00
        E 235 80 69 00
        E 300 90 69 66
        <X 180 0
          /wVUb2kt
        >
        E 0 90 38 66
        E 94 80 38 00
        <X 40 0
          /wVzZXQ=
        >
        E 0 90 38 65
        E 56 80 38 00
        <X 71 0
          /wVsw6RoLQ==
        >
        E 0 90 38 65
        E 77 80 38 00
        <X 73 0
          /wV0ZWU=
        >
        E 0 90 38 64
        E 87 80 38 00
        <X 71 0
          /wVrdXUt
        >
        E 0 90 38 60
        E 194 80 38 00
        <X 35 0
          /wVodW4=
        >
        E 0 90 36 58
        E 78 80 36 00
        <X 38 0
          /wVqYQ==
        >
        E 0 90 34 58
        E 66 80 34 00
        <X 49 0
          /wV0b2kt
        >
        E 0 90 36 58
        E 174 80 36 00
        <X 46 0
          /wVzZXQ=
        >
        E 0 90 2c 58
        E 73 80 2c 00
        <X 74 0
          /wVSdW90LQ==
        >
        E 0 90 2f 58
        E 230 80 2f 00
        <X 108 0
          /wVzaWlu
        >
        E 0 90 31 58
        E 662 80 31 00
        E 184 80 69 00
        E 1020 90 69 66
        <X 257 0
          /wVUb2kt
        >
        E 0 90 36 58
        E 68 80 36 00
        <X 43 0
          /wVzaWwt
        >
        E 0 90 36 58
        E 128 80 36 00
        <X 31 0
          /wVsYQ==
        >
        E 0 90 36 58
        E 38 80 36 00
        <X 35 0
          /wV2YWFu
        >
        E 0 90 36 58
        E 115 80 36 00
        <X 63 0
          /wVwaWUt
        >
        E 0 90 36 58
        E 164 80 36 00
        <X 32 0
          /wVuZW0t
        >
        E 0 90 36 58
        E 100 80 36 00
        <X 35 0
          /wVwaQ==
        >
        E 0 90 36 58
        E 54 80 36 00
        <X 56 0
          /wVwYWxrLQ==
        >
        E 0 90 34 58
        E 152 80 34 00
        <X 127 0
          /wVrYQ==
        >
        E 0 90 2f 58
        E 91 80 2f 00
        <X 94 0
          /wVvbg==
        >
        E 0 90 31 58
        E 663 80 31 00
        <X 129 0
          /wUr
        >
        E 0 90 2d 58
        E 63 80 2d 00
        <X 111 0
          /wUr
        >
        E 0 90 2f 58
        E 481 80 2f 00
        E 230 80 69 00
        E 540 90 69 66
        E 0 90 74 66
        <X 179 0
          /wVJLQ==
        >
        E 0 90 38 58
        E 72 80 38 00
        <X 42 0
          /wVzw6Q=
        >
        E 0 90 38 58
        E 113 80 38 00
        <X 34 0
          /wVsw6RoLQ==
        >
        E 0 90 38 58
        E 79 80 38 00
        <X 77 0
          /wV0aQ==
        >
        E 0 90 38 58
        E 62 80 38 00
        <X 26 0
          /wV2aWlz
        >
        E 0 90 38 58
        E 176 80 38 00
        <X 75 0
          /wV2dW90LQ==
        >
        E 0 90 36 58
        E 84 80 36 00
        <X 73 0
          /wV0YQ==
        >
        E 0 90 34 58
        E 47 80 34 00
        <X 27 0
          /wVzaXQt
        >
        E 0 90 36 58
        E 89 80 36 00
        <X 161 0
          /wV0ZW4=
        >
        E 0 90 2c 58
        E 106 80 2c 00
        <X 57 0
          /wVSdW90LQ==
        >
        E 0 90 2f 58
        E 195 80 2f 00
        <X 104 0
          /wVzaWlu
        >
        E 0 90 31 58
        E 639 80 31 00
        E 243 80 69 00
        E 0 80 74 00
        E 1080 90 69 66
        <X 216 0
          /wXDhGkt
        >
        E 0 90 36 58
        E 140 80 36 00
        <X 51 0
          /wV0aQ==
        >
        E 0 90 36 58
        E 46 80 36 00
        <X 62 0
          /wVvLQ==
        >
        E 0 90 36 58
        E 49 80 36 00
        <X 33 0
          /wVsaQ==
        >
        E 0 90 36 58
        E 62 80 36 00
        <X 38 0
          /wVzaWwt
        >
        E 0 90 36 58
        E 220 80 36 00
        <X 35 0
          /wVsb2lu
        >
        E 0 90 36 58
        E 74 80 36 00
        <X 40 0
          /wVqbw==
        >
        E 0 90 36 58
        E 68 80 36 00
        <X 66 0
          /wVvbi0=
        >
        E 0 90 38 58
        E 231 80 38 00
        <X 36 0
          /wVuZS0=
        >
        E 0 90 31 58
        E 83 80 31 00
        <X 75 0
          /wV0b24=
        >
        E 0 90 34 58
        E 820 80 34 00
        E 195 80 69 00
        E 1140 90 69 66
        <X 193 0
          /wVNaS0=
        >
        E 0 90 38 58
        E 140 80 38 00
        <X 43 0
          /wVuw6Q=
        >
        E 0 90 38 58
        E 80 80 38 00
        <X 54 0
          /wVwYS0=
        >
        E 0 90 38 58
        E 58 80 38 00
        <X 32 0
          /wVuaW4=
        >
        E 0 90 38 58
        E 93 80 38 00
        <X 46 0
          /wVpay0=
        >
        E 0 90 38 58
        E 75 80 38 00
        <X 156 0
          /wVrdS0=
        >
        E 0 90 36 58
        E 57 80 36 00
        <X 31 0
          /wVuYWFu
        >
        E 0 90 34 58
        E 150 80 34 00
        <X 78 0
          /wVwYWgt
        >
        E 0 90 36 58
        E 125 80 36 00
        <X 75 0
          /wV2aS0=
        >
        E 0 90 2c 58
        E 62 80 2c 00
        <X 45 0
          /wVzdW8t
        >
        E 0 90 2f 58
        E 320 80 2f 00
        <X 52 0
          /wVqYW4=
        >
        E 0 90 31 58
        E 531 80 31 00
        E 264 80 69 00
        E 1140 90 69 66
        <X 205 0
          /wVFdC0=
        >
        E 0 90 36 58
        E 67 80 36 00
        <X 96 0
          /wV0w6Q=
        >
        E 0 90 36 58
        E 41 80 36 00
        <X 37 0
          /wVlLQ==
        >
        E 0 90 36 58
        E 43 80 36 00
        <X 24 0
          /wVkZXM=
        >
        E 0 90 36 58
        E 102 80 36 00
        <X 48 0
          /wVqb3Mt
        >
        E 0 90 36 58
        E 161 80 36 00
        <X 44 0
          /wVzYS0=
        >
        E 0 90 36 58
        E 101 80 36 00
        <X 52 0
          /wVraW4=
        >
        E 0 90 34 58
        E 106 80 34 00
        <X 47 0
          /wVsw6RtLQ==
        >
        E 0 90 2f 58
        E 179 80 2f 00
        <X 59 0
          /wVtaW4=
        >
        E 0 90 31 58
        E 193 80 31 00
        <X 84 0
          /wVvaXM=
        >
        E 0 90 2f 58
        E 481 80 2f 00
        <X 78 0
          /wUr
        >
        E 0 90 2d 58
        E 182 80 2d 00
        <X 54 0
          /wUr
        >
        E 0 90 2f 58
        E 559 80 2f 00
        E 197 80 69 00
        E 480 90 69 66
        E 0 90 74 66
        <X 234 0
          /wVSYS0=
        >
        E 0 90 38 58
        E 159 80 38 00
        <X 31 0
          /wVkaS0=
        >
        E 0 90 38 58
        E 92 80 38 00
        <X 28 0
          /wVvcy0=
        >
        E 0 90 38 58
        E 76 80 38 00
        <X 35 0
          /wVzYQ==
        >
        E 0 90 38 58
        E 84 80 38 00
        <X 42 0
          /wVsYXUt
        >
        E 0 90 38 58
        E 196 80 38 00
        <X 27 0
          /wVsZXQt
        >
        E 0 90 36 58
        E 59 80 36 00
        <X 79 0
          /wV0aWlu
        >
        E 0 90 34 58
        E 118 80 34 00
        <X 49 0
          /wUiS2lpLQ==
        >
        E 0 90 36 58
        E 162 80 36 00
        <X 51 0
          /wV0b3M=
        >
        E 0 90 2c 58
        E 70 80 2c 00
        <X 60 0
          /wVMdW8t
        >
        E 0 90 2f 58
        E 278 80 2f 00
        <X 70 0
          /wVqYW4i
        >
        E 0 90 31 58
        E 539 80 31 00
        E 221 80 69 00
        E 0 80 74 00
        E 1140 90 69 66
        <X 206 0
          /wVTdW4t
        >
        E 0 90 36 58
        E 149 80 36 00
        <X 33 0
          /wVudW4t
        >
        E 0 90 36 58
        E 77 80 36 00
        <X 34 0
          /wV0YWkt
        >
        E 0 90 36 58
        E 102 80 36 00
        <X 20 0
          /wVuYQ==
        >
        E 0 90 36 58
        E 71 80 36 00
        <X 60 0
          /wXDpGkt
        >
        E 0 90 36 58
        E 153 80 36 00
        <X 63 0
          /wV0aS0=
        >
        E 0 90 36 58
        E 53 80 36 00
        <X 51 0
          /wVraW4=
        >
        E 0 90 36 58
        E 115 80 36 00
        <X 36 0
          /wVudWst
        >
        E 0 90 38 58
        E 74 80 38 00
        <X 158 0
          /wVrdWk=
        >
        E 0 90 31 58
        E 164 80 31 00
        <X 80 0
          /wVwb2lz
        >
        E 0 90 34 58
        E 591 80 34 00
        E 230 80 69 00
        E 1260 90 69 66
        <X 188 0
          /wVKYQ==
        >
        E 0 90 34 66
        E 81 80 34 00
        <X 53 0
          /wVpLQ==
        >
        E 0 90 3d 66
        E 61 80 3d 00
        <X 44 0
          /wVzw6Q=
        >
        E 0 90 3d 66
        E 110 80 3d 00
        <X 33 0
          /wVtZS0=
        >
        E 0 90 3d 66
        E 58 80 3d 00
        <X 50 0
          /wVuaQ==
        >
        E 0 90 3b 66
        E 88 80 3b 00
        <X 50 0
          /wVSdW90LQ==
        >
        E 0 90 3b 66
        E 150 80 3b 00
        <X 78 0
          /wVzaWlu
        >
        E 0 90 3b 66
        E 332 80 3b 00
        E 19 80 69 00
        E 30 90 69 66
        <X 16 0
          /wXDhGkt
        >
        E 0 90 38 66
        E 199 80 38 00
        <X 45 0
          /wV0aQ==
        >
        E 0 90 36 66
        E 70 80 36 00
        <X 33 0
          /wVsZW4t
        >
        E 0 90 38 66
        E 198 80 38 00
        <X 48 0
          /wVzaQ==
        >
        E 0 90 3b 66
        E 73 80 3b 00
        <X 54 0
          /wV0YWkt
        >
        E 0 90 38 66
        E 298 80 38 00
        <X 49 0
          /wV2YWEt
        >
        E 0 90 36 66
        E 159 80 36 00
        <X 41 0
          /wVzZWVu
        >
        E 0 90 38 66
        E 916 80 38 00
        E 156 80 69 00
        E 120 90 69 66
        E 0 90 74 66
        <X 141 0
          /wVKYQ==
        >
        E 0 90 39 66
        E 67 80 39 00
        <X 56 0
          /wVwYXAt
        >
        E 0 90 39 66
        E 61 80 39 00
        <X 85 0
          /wVwaQ==
        >
        E 0 90 39 66
        E 42 80 39 00
        <X 43 0
          /wVzYWk=
        >
        E 0 90 39 66
        E 89 80 39 00
        <X 41 0
          /wV0YWFz
        >
        E 0 90 38 66
        E 93 80 38 00
        <X 54 0
          /wVrYWgt
        >
        E 0 90 36 66
        E 157 80 36 00
        <X 59 0
          /wV2aS0=
        >
        E 0 90 36 66
        E 93 80 36 00
        <X 23 0
          /wVh
        >
        E 0 90 36 66
        E 100 80 36 00
        <X 37 0
          /wVqdW8t
        >
        E 0 90 36 66
        E 199 80 36 00
        <X 25 0
          /wVkYWst
        >
        E 0 90 34 66
        E 57 80 34 00
        <X 116 0
          /wVzZWVu
        >
        E 0 90 38 66
        E 587 80 38 00
        <X 59 0
          /wUr
        >
        E 0 90 36 66
        E 225 80 36 00
        <X 116 0
          /wUr
        >
        E 0 90 34 66
        E 718 80 34 00
        E 137 80 69 00
        E 0 80 74 00
        E 300 90 69 66
        <X 182 0
          /wVKYQ==
        >
        E 0 90 3d 66
        E 98 80 3d 00
        <X 42 0
          /wV2ZS0=
        >
        E 0 90 3d 66
        E 80 80 3d 00
        <X 69 0
          /wVsaQ==
        >
        E 0 90 3d 66
        E 76 80 3d 00
        <X 25 0
          /wVvLQ==
        >
        E 0 90 3d 66
        E 77 80 3d 00
        <X 44 0
          /wVsaQ==
        >
        E 0 90 3b 66
        E 62 80 3b 00
        <X 45 0
          /wVrw6RuLQ==
        >
        E 0 90 3b 66
        E 221 80 3b 00
        <X 35 0
          /wVuaXMt
        >
        E 0 90 3b 66
        E 112 80 3b 00
        <X 27 0
          /wVzw6Q=
        >
        E 0 90 3b 66
        E 114 80 3b 00
        E 41 80 69 00
        E 30 90 69 66
        <X 43 0
          /wVOw6Rpbg==
        >
        E 0 90 38 66
        E 171 80 38 00
        <X 38 0
          /wVzZW4=
        >
        E 0 90 36 66
        E 94 80 36 00
        <X 37 0
          /wVpdC0=
        >
        E 0 90 38 66
        E 82 80 38 00
        <X 127 0
          /wVrZS0=
        >
        E 0 90 3b 66
        E 98 80 3b 00
        <X 29 0
          /wVuZWVu
        >
        E 0 90 36 66
        E 146 80 36 00
        <X 39 0
          /wUr
        >
        E 0 90 38 66
        E 630 80 38 00
        E 86 80 69 00
        E 900 90 69 66
        <X 217 0
          /wVMdS0=
        >
        E 0 90 39 66
        E 133 80 39 00
        <X 25 0
          /wVtaQ==
        >
        E 0 90 39 66
        E 87 80 39 00
        <X 35 0
          /wV0ZS0=
        >
        E 0 90 39 66
        E 75 80 39 00
        <X 43 0
          /wVraQ==
        >
        E 0 90 38 66
        E 93 80 38 00
        <X 45 0
          /wVlbi0=
        >
        E 0 90 38 66
        E 209 80 38 00
        <X 36 0
          /wVrZS0=
        >
        E 0 90 36 66
        E 84 80 36 00
        <X 34 0
          /wVsaW4=
        >
        E 0 90 36 66
        E 73 80 36 00
        <X 44 0
          /wVlLQ==
        >
        E 0 90 36 66
        E 74 80 36 00
        <X 62 0
          /wV0ZWkt
        >
        E 0 90 34 66
        E 197 80 34 00
        <X 59 0
          /wVzZWVu
        >
        E 0 90 36 66
        E 668 80 36 00
        <X 454 0
          /wUr
        >
        E 0 90 2f 66
        E 818 80 2f 00
        E 215 80 69 00
        E 180 90 69 66
        E 0 90 74 66
        <X 194 0
          /wVNbWg=
        >
        E 0 90 38 66
        E 393 80 38 00
        <X 76 0
          /wUr
        >
        E 0 90 36 66
        E 46 80 36 00
        <X 156 0
          /wUr
        >
        E 0 90 33 66
        E 37 80 33 00
        <X 159 0
          /wUr
        >
        E 0 90 36 66
        E 206 80 36 00
        <X 95 0
          /wVtbWg=
        >
        E 0 90 2c 66
        E 338 80 2c 00
        <X 170 0
          /wUr
        >
        E 0 90 31 66
        E 832 80 31 00
        <X 1234 0
          /wVtbWg=
        >
        E 0 90 32 66
        E 121 80 32 00
        <X 147 0
          /wUr
        >
        E 0 90 36 66
        E 564 80 36 00
        <X 126 0
          /wUr
        >
        E 0 90 32 66
        E 174 80 32 00
        <X 368 0
          /wUr
        >
        E 0 90 2f 66
        E 131 80 2f 00
        <X 424 0
          /wVtbWg=
        >
        E 0 90 2d 66
        E 157 80 2d 00
        <X 131 0
          /wUr
        >
        E 0 90 31 66
        E 210 80 31 00
        <X 120 0
          /wUr
        >
        E 0 90 2f 66
        E 703 80 2f 00
        E 128 80 69 00
        E 0 80 74 00
        E 240 90 69 66
        <X 117 0
          /wVNbWg=
        >
        E 0 90 38 66
        E 393 80 38 00
        <X 76 0
          /wUr
        >
        E 0 90 36 66
        E 47 80 36 00
        <X 155 0
          /wUr
        >
        E 0 90 33 66
        E 37 80 33 00
        <X 160 0
          /wUr
        >
        E 0 90 36 66
        E 206 80 36 00
        <X 94 0
          /wVtbWg=
        >
        E 0 90 2c 66
        E 338 80 2c 00
        <X 171 0
          /wUr
        >
        E 0 90 31 66
        E 831 80 31 00
        <X 1211 0
          /wVtbWg=
        >
        E 0 90 35 66
        E 93 80 35 00
        <X 409 0
          /wUr
        >
        E 0 90 37 66
        E 465 80 37 00
        <X 139 0
          /wUr
        >
        E 0 90 38 66
        E 161 80 38 00
        <X 114 0
          /wVtbWg=
        >
        E 0 90 32 66
        E 82 80 32 00
        <X 88 0
          /wUr
        >
        E 0 90 34 66
        E 1505 80 34 00
        E 128 80 69 00
        E 540 90 69 66
        <X 138 0
          /wVKYQ==
        >
        E 0 90 34 66
        E 81 80 34 00
        <X 48 0
          /wVpLQ==
        >
        E 0 90 3d 66
        E 66 80 3d 00
        <X 36 0
          /wVzw6Q=
        >
        E 0 90 3d 66
        E 118 80 3d 00
        <X 33 0
          /wVtZS0=
        >
        E 0 90 3d 66
        E 61 80 3d 00
        <X 46 0
          /wVuaQ==
        >
        E 0 90 3b 66
        E 89 80 3b 00
        <X 38 0
          /wVSdW90LQ==
        >
        E 0 90 3b 66
        E 162 80 3b 00
        <X 77 0
          /wVzaWlu
        >
        E 0 90 3b 66
        E 313 80 3b 00
        E 14 80 69 00
        E 30 90 69 66
        <X 20 0
          /wXDhGkt
        >
        E 0 90 38 66
        E 200 80 38 00
        <X 38 0
          /wV0aQ==
        >
        E 0 90 36 66
        E 77 80 36 00
        <X 29 0
          /wVsZW4t
        >
        E 0 90 38 66
        E 189 80 38 00
        <X 23 0
          /wVzaQ==
        >
        E 0 90 3b 66
        E 78 80 3b 00
        <X 57 0
          /wV0YWkt
        >
        E 0 90 38 66
        E 319 80 38 00
        <X 37 0
          /wV2YWEt
        >
        E 0 90 36 66
        E 165 80 36 00
        <X 46 0
          /wVzZWVu
        >
        E 0 90 38 66
        E 1000 80 38 00
        E 92 80 69 00
        E 180 90 69 66
        e 0 90 74 66
        <X 54 0
          /wVKYQ==
        >
        E 0 90 39 66
        E 66 80 39 00
        <X 56 0
          /wVwYXAt
        >
        E 0 90 39 66
        E 61 80 39 00
        <X 104 0
          /wVwaQ==
        >
        E 0 90 39 66
        E 42 80 39 00
        <X 31 0
          /wVzYWk=
        >
        E 0 90 39 66
        E 100 80 39 00
        <X 36 0
          /wV0YWFz
        >
        E 0 90 38 66
        E 99 80 38 00
        <X 53 0
          /wVrYWgt
        >
        E 0 90 36 66
        E 151 80 36 00
        <X 59 0
          /wV2aS0=
        >
        E 0 90 36 66
        E 78 80 36 00
        <X 21 0
          /wVh
        >
        E 0 90 36 66
        E 107 80 36 00
        <X 37 0
          /wVqdW8t
        >
        E 0 90 36 66
        E 200 80 36 00
        <X 33 0
          /wVkYWst
        >
        E 0 90 34 66
        E 72 80 34 00
        <X 102 0
          /wVzZWVu
        >
        E 0 90 38 66
        E 594 80 38 00
        <X 58 0
          /wUr
        >
        E 0 90 36 66
        E 225 80 36 00
        <X 117 0
          /wUr
        >
        E 0 90 34 66
        E 774 80 34 00
        E 150 80 69 00
        e 0 80 74 00
        E 300 90 69 66
        <X 141 0
          /wVKYQ==
        >
        E 0 90 3d 66
        E 89 80 3d 00
        <X 42 0
          /wV2ZS0=
        >
        E 0 90 3d 66
        E 79 80 3d 00
        <X 59 0
          /wVsaQ==
        >
        E 0 90 3d 66
        E 87 80 3d 00
        <X 19 0
          /wVvLQ==
        >
        E 0 90 3d 66
        E 82 80 3d 00
        <X 44 0
          /wVsaQ==
        >
        E 0 90 3b 66
        E 68 80 3b 00
        <X 49 0
          /wVrw6RuLQ==
        >
        E 0 90 3b 66
        E 211 80 3b 00
        <X 36 0
          /wVuaXMt
        >
        E 0 90 3b 66
        E 111 80 3b 00
        <X 28 0
          /wVzw6Q=
        >
        E 0 90 3b 66
        E 114 80 3b 00
        E 46 80 69 00
        E 30 90 69 66
        <X 37 0
          /wVOw6Rpbg==
        >
        E 0 90 38 66
        E 171 80 38 00
        <X 39 0
          /wVzZW4=
        >
        E 0 90 36 66
        E 94 80 36 00
        <X 50 0
          /wVpdC0=
        >
        E 0 90 38 66
        E 76 80 38 00
        <X 144 0
          /wVrZS0=
        >
        E 0 90 3b 66
        E 98 80 3b 00
        <X 57 0
          /wVuZWVu
        >
        E 0 90 36 66
        E 145 80 36 00
        <X 40 0
          /wUr
        >
        E 0 90 38 66
        E 944 80 38 00
        E 70 80 69 00
        E 600 90 69 66
        <X 130 0
          /wVMdS0=
        >
        E 0 90 39 66
        E 163 80 39 00
        <X 24 0
          /wVtaQ==
        >
        E 0 90 39 66
        E 83 80 39 00
        <X 20 0
          /wV0ZS0=
        >
        E 0 90 39 66
        E 84 80 39 00
        <X 46 0
          /wVraQ==
        >
        E 0 90 38 66
        E 92 80 38 00
        <X 51 0
          /wVlbi0=
        >
        E 0 90 38 66
        E 209 80 38 00
        <X 32 0
          /wVrZS0=
        >
        E 0 90 36 66
        E 73 80 36 00
        <X 23 0
          /wVsaW4=
        >
        E 0 90 36 66
        E 79 80 36 00
        <X 48 0
          /wVlLQ==
        >
        E 0 90 36 66
        E 80 80 36 00
        <X 56 0
          /wV0ZWkt
        >
        E 0 90 34 66
        E 204 80 34 00
        <X 58 0
          /wVzZWVu
        >
        E 0 90 36 66
        E 687 80 36 00
        <X 454 0
          /wUr
        >
        E 0 90 2f 66
        E 849 80 2f 00
        E 175 80 69 00
        E 180 90 69 66
        <X 131 0
          /wVNbWg=
        >
        E 0 90 38 66
        E 393 80 38 00
        <X 76 0
          /wUr
        >
        E 0 90 36 66
        E 46 80 36 00
        <X 156 0
          /wUr
        >
        E 0 90 33 66
        E 37 80 33 00
        <X 159 0
          /wUr
        >
        E 0 90 36 66
        E 206 80 36 00
        <X 95 0
          /wVtbWg=
        >
        E 0 90 2c 66
        E 338 80 2c 00
        <X 170 0
          /wUr
        >
        E 0 90 31 66
        E 832 80 31 00
        <X 1234 0
          /wVtbWg=
        >
        E 0 90 32 66
        E 121 80 32 00
        <X 147 0
          /wUr
        >
        E 0 90 36 66
        E 564 80 36 00
        <X 126 0
          /wUr
        >
        E 0 90 32 66
        E 174 80 32 00
        <X 368 0
          /wUr
        >
        E 0 90 2f 66
        E 131 80 2f 00
        <X 424 0
          /wVtbWg=
        >
        E 0 90 2d 66
        E 157 80 2d 00
        <X 131 0
          /wUr
        >
        E 0 90 31 66
        E 210 80 31 00
        <X 120 0
          /wUr
        >
        E 0 90 2f 66
        E 703 80 2f 00
        <X 485 0
          /wVtbWg=
        >
        E 0 90 38 66
        E 393 80 38 00
        <X 76 0
          /wUr
        >
        E 0 90 36 66
        E 47 80 36 00
        <X 155 0
          /wUr
        >
        E 0 90 33 66
        E 37 80 33 00
        <X 160 0
          /wUr
        >
        E 0 90 36 66
        E 206 80 36 00
        <X 94 0
          /wVtbWg=
        >
        E 0 90 2c 66
        E 338 80 2c 00
        <X 171 0
          /wUr
        >
        E 0 90 31 66
        E 831 80 31 00
        E 438 80 69 00
        <X 42 0
          /wFbaWRsZV9yZWFsdGltZV0=
        >
        E 42362 b0 7b 00
        GUID {C9A1A4CA-4224-4672-91C0-075BEB2A8650}
        IGNTEMPO 0 120.00000000 4 4
        SRCCOLOR 1181
        VELLANE 132 128 128
        COLORMAP "C:\Users\me\AppData\Roaming\REAPER\Data\color_maps\rockband_vox-other.png"
        TEXTSTRINGFILE "Text Events List.txt"
        CFGEDITVIEW 134557.640453 128.262729 15 12 0 0 0
        CFGEDIT 1 1 0 0 1 1 1 1 1 1 1 0.03125000 75 0 1611 691 1 2 1 2 0.00000000 0 0 0 0 0.500000 1 0 1.000000 64
        KEYSNAP 0 0 "102034050607" 0 "Major"
        EVTFILTER 0 -1 -1 -1 -1 0 1 0 0 -1.00000000 -1.00000000
      >
    >
  >
  <TRACK '{04D5293F-3266-4F3B-8DC7-AD52EBFC399E}'
    NAME "vocals_[mvsep.com]"
    PEAKCOL 16576
    BEAT -1
    AUTOMODE 0
    VOLPAN 1.00000000000000 0.00000000000000 -1.00000000000000 -1.00000000000000 1.00000000000000
    MUTESOLO 0 0 0
    IPHASE 0
    ISBUS 0 0
    BUSCOMP 0 0
    SHOWINMIX 1 0.666700 0.500000 1 0.500000 -1 -1 -1
    FREEMODE 0
    SEL 0
    REC 0 0 0 0 0 0 0
    VU 2
    TRACKHEIGHT 241 0
    INQ 0 0 0 0.5000000000 100 0 0 100
    NCHAN 2
    FX 1
    TRACKID {04D5293F-3266-4F3B-8DC7-AD52EBFC399E}
    PERF 0
    MIDIOUT -1
    MAINSEND 1 0
    <ITEM
      POSITION 2.34352805768140
      SNAPOFFS 0.00000000000000
      LENGTH 207.59999999999999
      LOOP 0
      ALLTAKES 0
      SEL 0
      FADEIN 1 0.000000 0.000000 1 0
      FADEOUT 1 0.000000 0.000000 1 0
      MUTE 0
      IGUID {09A0D25C-DC66-4669-8509-C895C43B8E28}
      IID 52
      NAME "vocals_[mvsep.com].mp3"
      VOLPAN 1.000000 0.000000 1.000000 -1.000000
      SOFFS 0.00000000000000
      PLAYRATE 1.00000000000000 1 0.00000000000000 -1
      CHANMODE 0
      GUID {9D6BB260-7BB4-434C-9F95-BB632A72023A}
      <SOURCE MP3
        FILE "vocals_[mvsep.com].mp3" 1
      >
    >
  >
  <TRACK '{E60BCF67-80FD-4554-840A-5B0B5C2E06A0}'
    NAME "HARM1"
    PEAKCOL 24624127
    BEAT -1
    AUTOMODE 0
    VOLPAN 1.00000000000000 0.00000000000000 -1.00000000000000 -1.00000000000000 1.00000000000000
    MUTESOLO 0 0 0
    IPHASE 0
    ISBUS 0 0
    BUSCOMP 0 0
    SHOWINMIX 1 0.666700 0.500000 1 0.500000 -1 -1 -1
    FREEMODE 0
    SEL 0
    REC 0 0 0 0 0 0 0
    TRACKHEIGHT 0 0
    INQ 0 0 0 0.5000000000 100 0 0 100
    NCHAN 2
    FX 1
    TRACKID {E60BCF67-80FD-4554-840A-5B0B5C2E06A0}
    PERF 0
    MIDIOUT -1
    <MIDINOTENAMES
      0 0 "Range Shift"
      0 1 "Lyric Shift"
      0 36 "C1"
      0 37 "C#"
      0 38 "D"
      0 39 "Eb"
      0 40 "E"
      0 41 "F"
      0 42 "F#"
      0 43 "G"
      0 44 "G#"
      0 45 "A"
      0 46 "Bb"
      0 47 "B"
      0 48 "C2"
      0 49 "C#"
      0 50 "D"
      0 51 "Eb"
      0 52 "E"
      0 53 "F"
      0 54 "F#"
      0 55 "G"
      0 56 "G#"
      0 57 "A"
      0 58 "Bb"
      0 59 "B"
      0 60 "C3"
      0 61 "C#"
      0 62 "D"
      0 63 "Eb"
      0 64 "E"
      0 65 "F"
      0 66 "F#"
      0 67 "G"
      0 68 "G#"
      0 69 "A"
      0 70 "Bb"
      0 71 "B"
      0 72 "C4"
      0 73 "C#"
      0 74 "D"
      0 75 "Eb"
      0 76 "E"
      0 77 "F"
      0 78 "F#"
      0 79 "G"
      0 80 "G#"
      0 81 "A"
      0 82 "Bb"
      0 83 "B"
      0 105 "Phrase Marker"
      0 116 "OVERDRIVE"
      0 115 "----"
      0 104 "----"
      0 97 "Not Displayed Percussion"
      0 96 "Displayed Percussion"
      0 95 "----"
      0 84 "C5"
    >
    MAINSEND 1 0
    <FXCHAIN
      WNDRECT 786 197 716 493
      SHOW 0
      LASTSEL 1
      DOCKED 0
      BYPASS 0 0
      <JS "IX/MIDI_Tool II" ""
        0.000000 85.000000 127.000000 0.000000 0.000000 0.000000 100.000000 0.000000 0.000000 127.000000 0.000000 0.000000 1.000000 0.000000 0.000000 - - - - - - - - - - - - - - - - - - - - - - - - - - - - - - - - - - - - - - - - - - - - - - - - - 
      >
      FLOATPOS 0 0 0 0
      FXID {2E79298C-F056-441C-A64B-722C2599E1AA}
      WAK 0
      BYPASS 0 0
      <VST "VSTi: ReaSynth (Cockos)" "reasynth.dll" 0 ""
        eXNlcu9e7f4AAAAAAgAAAAEAAAAAAAAAAgAAAAAAAAA4AAAAAAAAAA==
        AAAAAO++rd4N8K3eppvEOxe30ToAAAAAAAAAAAAAAACa9Q8/6WeIPQ==
        AAAAAAAAAD8AAIA/AAAAAAAAAD8AAAAAAAA=
      >
      FLOATPOS 0 0 0 0
      FXID {A391E59B-3475-47CA-9BDB-E03F3B8FF2C4}
      WAK 0
    >
    <ITEM
      POSITION 0.00000000000000
      SNAPOFFS 0.00000000000000
      LENGTH 262.84614954630223
      LOOP 0
      ALLTAKES 0
      SEL 0
      FADEIN 1 0.000000 0.000000 1 0
      FADEOUT 1 0.000000 0.000000 1 0
      MUTE 0
      IGUID {FE84F6DE-5A5E-43D1-BFBE-4632BD10F85F}
      IID 11
      NAME "HARM1 untitled MIDI item"
      VOLPAN 1.000000 0.000000 1.000000 -1.000000
      SOFFS 0.00000000000000 0.00000000000000
      PLAYRATE 1.00000000000000 1 0.00000000000000 -1
      CHANMODE 0
      GUID {188D8841-6EF7-4ADC-A9DC-A83C2882A63B}
      <SOURCE MIDI
        HASDATA 1 480 QN
        POOLEDEVTS {22F87B6E-D8F0-4F3A-A209-365FC4D660FF}
        <X 0 0
          /wNIQVJNMQ==
        >
        <X 5760 0
          /wFbaWRsZV0=
        >
        E 300 90 69 58
        <X 132 0
          /wVUeXQt
        >
        E 0 90 38 66
        E 100 80 38 00
        <X 80 0
          /wV0w7Y=
        >
        E 0 90 38 65
        E 50 80 38 00
        <X 31 0
          /wVuw6Qt
        >
        E 0 90 38 65
        E 77 80 38 00
        <X 47 0
          /wVraQ==
        >
        E 0 90 38 64
        E 60 80 38 00
        <X 83 0
          /wVzaWwt
        >
        E 0 90 38 60
        E 120 80 38 00
        <X 56 0
          /wVsYWwt
        >
        E 0 90 36 58
        E 104 80 36 00
        <X 58 0
          /wV0YQ==
        >
        E 0 90 34 58
        E 68 80 34 00
        <X 61 0
          /wVrdWluLQ==
        >
        E 0 90 36 58
        E 202 80 36 00
        <X 58 0
          /wVrYQ==
        >
        E 0 90 2c 58
        E 73 80 2c 00
        <X 62 0
          /wVtdXMt
        >
        E 0 90 2f 58
        E 189 80 2f 00
        <X 141 0
          /wV0YWE=
        >
        E 0 90 31 58
        E 689 80 31 00
        E 159 80 69 00
        E 1140 90 69 58
        <X 193 0
          /wVWZS0=
        >
        E 0 90 36 58
        E 57 80 36 00
        <X 47 0
          /wVzaQ==
        >
        E 0 90 36 58
        E 114 80 36 00
        <X 64 0
          /wVvLQ==
        >
        E 0 90 36 58
        E 65 80 36 00
        <X 26 0
          /wVsaQ==
        >
        E 0 90 36 58
        E 84 80 36 00
        <X 40 0
          /wVhbC0=
        >
        E 0 90 36 58
        E 180 80 36 00
        <X 50 0
          /wVoYWFsLQ==
        >
        E 0 90 36 58
        E 106 80 36 00
        <X 28 0
          /wVsYQ==
        >
        E 0 90 36 58
        E 64 80 36 00
        <X 50 0
          /wVqb3Mt
        >
        E 0 90 34 58
        E 129 80 34 00
        <X 56 0
          /wVzYS0=
        >
        E 0 90 2f 58
        E 128 80 2f 00
        <X 81 0
          /wVraW4=
        >
        E 0 90 2f 58
        E 80 80 2f 00
        <X 64 0
          /wUr
        >
        E 0 90 31 58
        E 532 80 31 00
        <X 129 0
          /wUr
        >
        E 0 90 2d 58
        E 63 80 2d 00
        <X 111 0
          /wUr
        >
        E 0 90 2f 58
        E 492 80 2f 00
        E 147 80 69 00
        E 660 90 69 58
        <X 189 0
          /wXDhGkt
        >
        E 0 90 38 58
        E 131 80 38 00
        <X 58 0
          /wV0aQ==
        >
        E 0 90 38 58
        E 44 80 38 00
        <X 47 0
          /wVreS0=
        >
        E 0 90 38 58
        E 36 80 38 00
        <X 40 0
          /wVzeWk=
        >
        E 0 90 38 58
        E 109 80 38 00
        <X 52 0
          /wUiTWlrLQ==
        >
        E 0 90 38 58
        E 95 80 38 00
        <X 86 0
          /wVzaQ==
        >
        E 0 90 36 58
        E 91 80 36 00
        <X 66 0
          /wV0dW8=
        >
        E 0 90 34 58
        E 135 80 34 00
        <X 62 0
          /wVydS0=
        >
        E 0 90 36 58
        E 89 80 36 00
        <X 38 0
          /wVuby0=
        >
        E 0 90 2c 58
        E 67 80 2c 00
        <X 42 0
          /wVqYQ==
        >
        E 0 90 2c 58
        E 86 80 2c 00
        <X 41 0
          /wVydXMt
        >
        E 0 90 2f 58
        E 176 80 2f 00
        <X 116 0
          /wV0YWEi
        >
        E 0 90 31 58
        E 567 80 31 00
        E 237 80 69 00
        E 1080 90 69 58
        E 0 90 74 58
        <X 162 0
          /wVMYXAt
        >
        E 0 90 36 58
        E 134 80 36 00
        <X 85 0
          /wVzaQ==
        >
        E 0 90 36 58
        E 84 80 36 00
        <X 47 0
          /wVvbg==
        >
        E 0 90 36 58
        E 49 80 36 00
        <X 33 0
          /wVrYWk=
        >
        E 0 90 36 58
        E 88 80 36 00
        <X 57 0
          /wVww6TDpHMt
        >
        E 0 90 36 58
        E 162 80 36 00
        <X 74 0
          /wV0w6RuLQ==
        >
        E 0 90 36 58
        E 95 80 36 00
        <X 50 0
          /wVzw6Q=
        >
        E 0 90 36 58
        E 68 80 36 00
        <X 52 0
          /wVzZS0=
        >
        E 0 90 38 58
        E 55 80 38 00
        <X 49 0
          /wVrYWkt
        >
        E 0 90 31 58
        E 246 80 31 00
        <X 47 0
          /wVzaW4=
        >
        E 0 90 34 58
        E 581 80 34 00
        E 242 80 69 00
        E 0 80 74 00
        E 1440 90 69 58
        <X 179 0
          /wVUeXQt
        >
        E 0 90 38 58
        E 83 80 38 00
        <X 89 0
          /wV0w7Y=
        >
        E 0 90 38 58
        E 65 80 38 00
        <X 36 0
          /wVpdC0=
        >
        E 0 90 38 58
        E 65 80 38 00
        <X 71 0
          /wVraQ==
        >
        E 0 90 38 58
        E 65 80 38 00
        <X 44 0
          /wVoZXQt
        >
        E 0 90 38 58
        E 93 80 38 00
        <X 128 0
          /wVrZW4=
        >
        E 0 90 36 58
        E 73 80 36 00
        <X 61 0
          /wVqYQ==
        >
        E 0 90 34 58
        E 67 80 34 00
        <X 59 0
          /wVrYXQt
        >
        E 0 90 36 58
        E 74 80 36 00
        <X 114 0
          /wVzb2k=
        >
        E 0 90 2c 58
        E 162 80 2c 00
        <X 59 0
          /wV0YWFrLQ==
        >
        E 0 90 2f 58
        E 232 80 2f 00
        <X 78 0
          /wVzZWVu
        >
        E 0 90 31 58
        E 645 80 31 00
        E 278 80 69 00
        E 1020 90 69 58
        <X 185 0
          /wVWaWwt
        >
        E 0 90 36 58
        E 122 80 36 00
        <X 28 0
          /wVsaS0=
        >
        E 0 90 36 58
        E 47 80 36 00
        <X 24 0
          /wVuw6Q=
        >
        E 0 90 36 58
        E 54 80 36 00
        <X 45 0
          /wVzb2k=
        >
        E 0 90 36 58
        E 149 80 36 00
        <X 51 0
          /wVodW8t
        >
        E 0 90 36 58
        E 180 80 36 00
        <X 50 0
          /wVrYXVz
        >
        E 0 90 36 58
        E 178 80 36 00
        <X 77 0
          /wVrYXUt
        >
        E 0 90 34 58
        E 196 80 34 00
        <X 49 0
          /wVwdW4t
        >
        E 0 90 2f 58
        E 158 80 2f 00
        <X 60 0
          /wVnaW4=
        >
        E 0 90 31 58
        E 455 80 31 00
        <X 236 0
          /wUr
        >
        E 0 90 2d 58
        E 77 80 2d 00
        <X 81 0
          /wUr
        >
        E 0 90 2f 58
        E 697 80 2f 00
        E 221 80 69 00
        E 360 90 69 58
        <X 235 0
          /wVLdWluLQ==
        >
        E 0 90 38 58
        E 126 80 38 00
        <X 30 0
          /wVrYQ==
        >
        E 0 90 38 58
        E 62 80 38 00
        <X 34 0
          /wV0w6Qt
        >
        E 0 90 38 58
        E 73 80 38 00
        <X 27 0
          /wVtw6Ru
        >
        E 0 90 38 58
        E 101 80 38 00
        <X 35 0
          /wV0dW4t
        >
        E 0 90 38 58
        E 206 80 38 00
        <X 31 0
          /wV0aS0=
        >
        E 0 90 36 58
        E 51 80 36 00
        <X 28 0
          /wVzaQ==
        >
        E 0 90 34 58
        E 118 80 34 00
        <X 44 0
          /wVvLQ==
        >
        E 0 90 36 58
        E 74 80 36 00
        <X 34 0
          /wVtYWst
        >
        E 0 90 34 58
        E 111 80 34 00
        <X 106 0
          /wVzaQ==
        >
        E 0 90 2c 58
        E 115 80 2c 00
        <X 65 0
          /wVtYWFrLQ==
        >
        E 0 90 2f 58
        E 169 80 2f 00
        <X 74 0
          /wVzZWVu
        >
        E 0 90 31 58
        E 732 80 31 00
        E 259 80 69 00
        E 840 90 69 58
        E 0 90 74 58
        <X 315 0
          /wVWZS0=
        >
        E 0 90 36 58
        E 55 80 36 00
        <X 53 0
          /wVzaQ==
        >
        E 0 90 36 58
        E 86 80 36 00
        <X 52 0
          /wVvLQ==
        >
        E 0 90 36 58
        E 58 80 36 00
        <X 36 0
          /wVsaQ==
        >
        E 0 90 36 58
        E 67 80 36 00
        <X 55 0
          /wVtdXMt
        >
        E 0 90 36 58
        E 130 80 36 00
        <X 105 0
          /wV0YWE=
        >
        E 0 90 36 58
        E 114 80 36 00
        <X 58 0
          /wVrdWlu
        >
        E 0 90 36 58
        E 91 80 36 00
        <X 53 0
          /wVhaS0=
        >
        E 0 90 38 58
        E 204 80 38 00
        <X 50 0
          /wVrYS0=
        >
        E 0 90 31 58
        E 89 80 31 00
        <X 52 0
          /wVraW4=
        >
        E 0 90 34 58
        E 800 80 34 00
        E 237 80 69 00
        E 0 80 74 00
        E 1080 90 69 66
        <X 183 0
          /wVKYQ==
        >
        E 0 90 34 66
        E 81 80 34 00
        <X 53 0
          /wV2ZS0=
        >
        E 0 90 3d 66
        E 61 80 3d 00
        <X 57 0
          /wVzaQ==
        >
        E 0 90 3d 66
        E 87 80 3d 00
        <X 43 0
          /wVvLQ==
        >
        E 0 90 3d 66
        E 67 80 3d 00
        <X 59 0
          /wVsaQ==
        >
        E 0 90 3b 66
        E 70 80 3b 00
        <X 58 0
          /wVtdXMt
        >
        E 0 90 3b 66
        E 112 80 3b 00
        <X 122 0
          /wV0YWE=
        >
        E 0 90 3b 66
        E 330 80 3b 00
        E 27 80 69 00
        E 30 90 69 66
        <X 13 0
          /wXDhGkt
        >
        E 0 90 38 66
        E 182 80 38 00
        <X 45 0
          /wV0aQ==
        >
        E 0 90 36 66
        E 57 80 36 00
        <X 57 0
          /wVrdWwt
        >
        E 0 90 38 66
        E 174 80 38 00
        <X 61 0
          /wVraQ==
        >
        E 0 90 3b 66
        E 73 80 3b 00
        <X 54 0
          /wVtdXMt
        >
        E 0 90 38 66
        E 137 80 38 00
        <X 105 0
          /wV0aXMt
        >
        E 0 90 36 66
        E 129 80 36 00
        <X 70 0
          /wVzYWFu
        >
        E 0 90 36 66
        E 184 80 36 00
        <X 54 0
          /wUr
        >
        E 0 90 38 66
        E 264 80 38 00
        <X 55 0
          /wUr
        >
        E 0 90 37 66
        E 331 80 37 00
        E 175 80 69 00
        E 180 90 69 66
        <X 171 0
          /wVKYQ==
        >
        E 0 90 39 66
        E 55 80 39 00
        <X 54 0
          /wVwYXAt
        >
        E 0 90 39 66
        E 51 80 39 00
        <X 108 0
          /wVwaS0=
        >
        E 0 90 39 66
        E 42 80 39 00
        <X 50 0
          /wVraW4=
        >
        E 0 90 39 66
        E 39 80 39 00
        <X 52 0
          /wVzYWk=
        >
        E 0 90 38 66
        E 111 80 38 00
        <X 40 0
          /wVrYWgt
        >
        E 0 90 36 66
        E 174 80 36 00
        <X 75 0
          /wV2aWE=
        >
        E 0 90 36 66
        E 199 80 36 00
        <X 52 0
          /wVqdW8t
        >
        E 0 90 36 66
        E 192 80 36 00
        <X 27 0
          /wVkYWst
        >
        E 0 90 36 66
        E 89 80 36 00
        <X 90 0
          /wVzZWVu
        >
        E 0 90 34 66
        E 338 80 34 00
        <X 248 0
          /wUr
        >
        E 0 90 38 66
        E 318 80 38 00
        <X 340 0
          /wUr
        >
        E 0 90 34 66
        E 492 80 34 00
        E 193 80 69 00
        E 240 90 69 66
        E 0 90 74 66
        <X 177 0
          /wVKYQ==
        >
        E 0 90 3d 66
        E 98 80 3d 00
        <X 42 0
          /wVpLQ==
        >
        E 0 90 3d 66
        E 40 80 3d 00
        <X 36 0
          /wVzw6Q=
        >
        E 0 90 3d 66
        E 149 80 3d 00
        <X 25 0
          /wVvLQ==
        >
        E 0 90 3d 66
        E 59 80 3d 00
        <X 40 0
          /wVsaQ==
        >
        E 0 90 3d 66
        E 84 80 3d 00
        <X 45 0
          /wVrw6RuLQ==
        >
        E 0 90 3b 66
        E 188 80 3b 00
        <X 68 0
          /wVuaXMt
        >
        E 0 90 3b 66
        E 127 80 3b 00
        <X 65 0
          /wVzw6Q=
        >
        E 0 90 3b 66
        E 114 80 3b 00
        <X 72 0
          /wVrdWluLQ==
        >
        E 0 90 3b 66
        E 171 80 3b 00
        <X 32 0
          /wVrYXM=
        >
        E 0 90 38 66
        E 89 80 38 00
        <X 67 0
          /wVtdXUt
        >
        E 0 90 36 66
        E 32 80 36 00
        <X 32 0
          /wUr
        >
        E 0 90 38 66
        E 104 80 38 00
        <X 39 0
          /wV0ZW4t
        >
        E 0 90 3b 66
        E 105 80 3b 00
        <X 48 0
          /wVrYWFu
        >
        E 0 90 36 66
        E 146 80 36 00
        <X 36 0
          /wUr
        >
        E 0 90 38 66
        E 607 80 38 00
        E 183 80 69 00
        E 0 80 74 00
        E 540 90 69 66
        <X 239 0
          /wVKby0=
        >
        E 0 90 39 66
        E 70 80 39 00
        <X 62 0
          /wVrdQ==
        >
        E 0 90 39 66
        E 62 80 39 00
        <X 37 0
          /wVrYW4t
        >
        E 0 90 39 66
        E 218 80 39 00
        <X 39 0
          /wV0b2k=
        >
        E 0 90 38 66
        E 187 80 38 00
        <X 62 0
          /wVrdWst
        >
        E 0 90 38 66
        E 77 80 38 00
        <X 167 0
          /wVraS0=
        >
        E 0 90 36 66
        E 84 80 36 00
        <X 19 0
          /wVh
        >
        E 0 90 36 66
        E 89 80 36 00
        <X 51 0
          /wVlLQ==
        >
        E 0 90 36 66
        E 67 80 36 00
        <X 57 0
          /wV0ZWkt
        >
        E 0 90 34 66
        E 194 80 34 00
        <X 54 0
          /wVzZWVu
        >
        E 0 90 36 66
        E 616 80 36 00
        <X 340 0
          /wUr
        >
        E 0 90 2f 66
        E 814 80 2f 00
        E 235 80 69 00
        E 300 90 69 66
        <X 180 0
          /wVUb2kt
        >
        E 0 90 38 66
        E 94 80 38 00
        <X 40 0
          /wVzZXQ=
        >
        E 0 90 38 65
        E 56 80 38 00
        <X 71 0
          /wVsw6RoLQ==
        >
        E 0 90 38 65
        E 77 80 38 00
        <X 73 0
          /wV0ZWU=
        >
        E 0 90 38 64
        E 87 80 38 00
        <X 71 0
          /wVrdXUt
        >
        E 0 90 38 60
        E 194 80 38 00
        <X 35 0
          /wVodW4=
        >
        E 0 90 36 58
        E 78 80 36 00
        <X 38 0
          /wVqYQ==
        >
        E 0 90 34 58
        E 66 80 34 00
        <X 49 0
          /wV0b2kt
        >
        E 0 90 36 58
        E 174 80 36 00
        <X 46 0
          /wVzZXQ=
        >
        E 0 90 2c 58
        E 73 80 2c 00
        <X 74 0
          /wVSdW90LQ==
        >
        E 0 90 2f 58
        E 230 80 2f 00
        <X 108 0
          /wVzaWlu
        >
        E 0 90 31 58
        E 662 80 31 00
        E 184 80 69 00
        E 1020 90 69 66
        <X 257 0
          /wVUb2kt
        >
        E 0 90 36 58
        E 68 80 36 00
        <X 43 0
          /wVzaWwt
        >
        E 0 90 36 58
        E 128 80 36 00
        <X 31 0
          /wVsYQ==
        >
        E 0 90 36 58
        E 38 80 36 00
        <X 35 0
          /wV2YWFu
        >
        E 0 90 36 58
        E 115 80 36 00
        <X 63 0
          /wVwaWUt
        >
        E 0 90 36 58
        E 164 80 36 00
        <X 32 0
          /wVuZW0t
        >
        E 0 90 36 58
        E 100 80 36 00
        <X 35 0
          /wVwaQ==
        >
        E 0 90 36 58
        E 54 80 36 00
        <X 56 0
          /wVwYWxrLQ==
        >
        E 0 90 34 58
        E 152 80 34 00
        <X 127 0
          /wVrYQ==
        >
        E 0 90 2f 58
        E 91 80 2f 00
        <X 94 0
          /wVvbg==
        >
        E 0 90 31 58
        E 663 80 31 00
        <X 129 0
          /wUr
        >
        E 0 90 2d 58
        E 63 80 2d 00
        <X 111 0
          /wUr
        >
        E 0 90 2f 58
        E 481 80 2f 00
        E 230 80 69 00
        E 540 90 69 66
        E 0 90 74 66
        <X 179 0
          /wVJLQ==
        >
        E 0 90 38 58
        E 72 80 38 00
        <X 42 0
          /wVzw6Q=
        >
        E 0 90 38 58
        E 113 80 38 00
        <X 34 0
          /wVsw6RoLQ==
        >
        E 0 90 38 58
        E 79 80 38 00
        <X 77 0
          /wV0aQ==
        >
        E 0 90 38 58
        E 62 80 38 00
        <X 26 0
          /wV2aWlz
        >
        E 0 90 38 58
        E 176 80 38 00
        <X 75 0
          /wV2dW90LQ==
        >
        E 0 90 36 58
        E 84 80 36 00
        <X 73 0
          /wV0YQ==
        >
        E 0 90 34 58
        E 47 80 34 00
        <X 27 0
          /wVzaXQt
        >
        E 0 90 36 58
        E 89 80 36 00
        <X 161 0
          /wV0ZW4=
        >
        E 0 90 2c 58
        E 106 80 2c 00
        <X 57 0
          /wVSdW90LQ==
        >
        E 0 90 2f 58
        E 195 80 2f 00
        <X 104 0
          /wVzaWlu
        >
        E 0 90 31 58
        E 639 80 31 00
        E 243 80 69 00
        E 0 80 74 00
        E 1080 90 69 66
        <X 216 0
          /wXDhGkt
        >
        E 0 90 36 58
        E 140 80 36 00
        <X 51 0
          /wV0aQ==
        >
        E 0 90 36 58
        E 46 80 36 00
        <X 62 0
          /wVvLQ==
        >
        E 0 90 36 58
        E 49 80 36 00
        <X 33 0
          /wVsaQ==
        >
        E 0 90 36 58
        E 62 80 36 00
        <X 38 0
          /wVzaWwt
        >
        E 0 90 36 58
        E 220 80 36 00
        <X 35 0
          /wVsb2lu
        >
        E 0 90 36 58
        E 74 80 36 00
        <X 40 0
          /wVqbw==
        >
        E 0 90 36 58
        E 68 80 36 00
        <X 66 0
          /wVvbi0=
        >
        E 0 90 38 58
        E 231 80 38 00
        <X 36 0
          /wVuZS0=
        >
        E 0 90 31 58
        E 83 80 31 00
        <X 75 0
          /wV0b24=
        >
        E 0 90 34 58
        E 820 80 34 00
        E 195 80 69 00
        E 1140 90 69 66
        <X 193 0
          /wVNaS0=
        >
        E 0 90 38 58
        E 140 80 38 00
        <X 43 0
          /wVuw6Q=
        >
        E 0 90 38 58
        E 80 80 38 00
        <X 54 0
          /wVwYS0=
        >
        E 0 90 38 58
        E 58 80 38 00
        <X 32 0
          /wVuaW4=
        >
        E 0 90 38 58
        E 93 80 38 00
        <X 46 0
          /wVpay0=
        >
        E 0 90 38 58
        E 75 80 38 00
        <X 156 0
          /wVrdS0=
        >
        E 0 90 36 58
        E 57 80 36 00
        <X 31 0
          /wVuYWFu
        >
        E 0 90 34 58
        E 150 80 34 00
        <X 78 0
          /wVwYWgt
        >
        E 0 90 36 58
        E 125 80 36 00
        <X 75 0
          /wV2aS0=
        >
        E 0 90 2c 58
        E 62 80 2c 00
        <X 45 0
          /wVzdW8t
        >
        E 0 90 2f 58
        E 320 80 2f 00
        <X 52 0
          /wVqYW4=
        >
        E 0 90 31 58
        E 531 80 31 00
        E 264 80 69 00
        E 1140 90 69 66
        <X 205 0
          /wVFdC0=
        >
        E 0 90 36 58
        E 67 80 36 00
        <X 96 0
          /wV0w6Q=
        >
        E 0 90 36 58
        E 41 80 36 00
        <X 37 0
          /wVlLQ==
        >
        E 0 90 36 58
        E 43 80 36 00
        <X 24 0
          /wVkZXM=
        >
        E 0 90 36 58
        E 102 80 36 00
        <X 48 0
          /wVqb3Mt
        >
        E 0 90 36 58
        E 161 80 36 00
        <X 44 0
          /wVzYS0=
        >
        E 0 90 36 58
        E 101 80 36 00
        <X 52 0
          /wVraW4=
        >
        E 0 90 34 58
        E 106 80 34 00
        <X 47 0
          /wVsw6RtLQ==
        >
        E 0 90 2f 58
        E 179 80 2f 00
        <X 59 0
          /wVtaW4=
        >
        E 0 90 31 58
        E 193 80 31 00
        <X 84 0
          /wVvaXM=
        >
        E 0 90 2f 58
        E 481 80 2f 00
        <X 78 0
          /wUr
        >
        E 0 90 2d 58
        E 182 80 2d 00
        <X 54 0
          /wUr
        >
        E 0 90 2f 58
        E 559 80 2f 00
        E 197 80 69 00
        E 480 90 69 66
        E 0 90 74 66
        <X 234 0
          /wVSYS0=
        >
        E 0 90 38 58
        E 159 80 38 00
        <X 31 0
          /wVkaS0=
        >
        E 0 90 38 58
        E 92 80 38 00
        <X 28 0
          /wVvcy0=
        >
        E 0 90 38 58
        E 76 80 38 00
        <X 35 0
          /wVzYQ==
        >
        E 0 90 38 58
        E 84 80 38 00
        <X 42 0
          /wVsYXUt
        >
        E 0 90 38 58
        E 196 80 38 00
        <X 27 0
          /wVsZXQt
        >
        E 0 90 36 58
        E 59 80 36 00
        <X 79 0
          /wV0aWlu
        >
        E 0 90 34 58
        E 118 80 34 00
        <X 49 0
          /wUiS2lpLQ==
        >
        E 0 90 36 58
        E 162 80 36 00
        <X 51 0
          /wV0b3M=
        >
        E 0 90 2c 58
        E 70 80 2c 00
        <X 60 0
          /wVMdW8t
        >
        E 0 90 2f 58
        E 278 80 2f 00
        <X 70 0
          /wVqYW4i
        >
        E 0 90 31 58
        E 539 80 31 00
        E 221 80 69 00
        E 0 80 74 00
        E 1140 90 69 66
        <X 206 0
          /wVTdW4t
        >
        E 0 90 36 58
        E 149 80 36 00
        <X 33 0
          /wVudW4t
        >
        E 0 90 36 58
        E 77 80 36 00
        <X 34 0
          /wV0YWkt
        >
        E 0 90 36 58
        E 102 80 36 00
        <X 20 0
          /wVuYQ==
        >
        E 0 90 36 58
        E 71 80 36 00
        <X 60 0
          /wXDpGkt
        >
        E 0 90 36 58
        E 153 80 36 00
        <X 63 0
          /wV0aS0=
        >
        E 0 90 36 58
        E 53 80 36 00
        <X 51 0
          /wVraW4=
        >
        E 0 90 36 58
        E 115 80 36 00
        <X 36 0
          /wVudWst
        >
        E 0 90 38 58
        E 74 80 38 00
        <X 158 0
          /wVrdWk=
        >
        E 0 90 31 58
        E 164 80 31 00
        <X 80 0
          /wVwb2lz
        >
        E 0 90 34 58
        E 591 80 34 00
        E 230 80 69 00
        E 1260 90 69 66
        <X 188 0
          /wVKYQ==
        >
        E 0 90 34 66
        E 81 80 34 00
        <X 53 0
          /wVpLQ==
        >
        E 0 90 3d 66
        E 61 80 3d 00
        <X 44 0
          /wVzw6Q=
        >
        E 0 90 3d 66
        E 110 80 3d 00
        <X 33 0
          /wVtZS0=
        >
        E 0 90 3d 66
        E 58 80 3d 00
        <X 50 0
          /wVuaQ==
        >
        E 0 90 3b 66
        E 88 80 3b 00
        <X 50 0
          /wVSdW90LQ==
        >
        E 0 90 3b 66
        E 150 80 3b 00
        <X 78 0
          /wVzaWlu
        >
        E 0 90 3b 66
        E 332 80 3b 00
        E 19 80 69 00
        E 30 90 69 66
        <X 16 0
          /wXDhGkt
        >
        E 0 90 38 66
        E 199 80 38 00
        <X 45 0
          /wV0aQ==
        >
        E 0 90 36 66
        E 70 80 36 00
        <X 33 0
          /wVsZW4t
        >
        E 0 90 38 66
        E 198 80 38 00
        <X 48 0
          /wVzaQ==
        >
        E 0 90 3b 66
        E 73 80 3b 00
        <X 54 0
          /wV0YWkt
        >
        E 0 90 38 66
        E 298 80 38 00
        <X 49 0
          /wV2YWEt
        >
        E 0 90 36 66
        E 159 80 36 00
        <X 41 0
          /wVzZWVu
        >
        E 0 90 38 66
        E 916 80 38 00
        E 156 80 69 00
        E 120 90 69 66
        E 0 90 74 66
        <X 141 0
          /wVKYQ==
        >
        E 0 90 39 66
        E 67 80 39 00
        <X 56 0
          /wVwYXAt
        >
        E 0 90 39 66
        E 61 80 39 00
        <X 85 0
          /wVwaQ==
        >
        E 0 90 39 66
        E 42 80 39 00
        <X 43 0
          /wVzYWk=
        >
        E 0 90 39 66
        E 89 80 39 00
        <X 41 0
          /wV0YWFz
        >
        E 0 90 38 66
        E 93 80 38 00
        <X 54 0
          /wVrYWgt
        >
        E 0 90 36 66
        E 157 80 36 00
        <X 59 0
          /wV2aS0=
        >
        E 0 90 36 66
        E 93 80 36 00
        <X 23 0
          /wVh
        >
        E 0 90 36 66
        E 100 80 36 00
        <X 37 0
          /wVqdW8t
        >
        E 0 90 36 66
        E 199 80 36 00
        <X 25 0
          /wVkYWst
        >
        E 0 90 34 66
        E 57 80 34 00
        <X 116 0
          /wVzZWVu
        >
        E 0 90 38 66
        E 587 80 38 00
        <X 59 0
          /wUr
        >
        E 0 90 36 66
        E 225 80 36 00
        <X 116 0
          /wUr
        >
        E 0 90 34 66
        E 718 80 34 00
        E 137 80 69 00
        E 0 80 74 00
        E 300 90 69 66
        <X 182 0
          /wVKYQ==
        >
        E 0 90 3d 66
        E 98 80 3d 00
        <X 42 0
          /wV2ZS0=
        >
        E 0 90 3d 66
        E 80 80 3d 00
        <X 69 0
          /wVsaQ==
        >
        E 0 90 3d 66
        E 76 80 3d 00
        <X 25 0
          /wVvLQ==
        >
        E 0 90 3d 66
        E 77 80 3d 00
        <X 44 0
          /wVsaQ==
        >
        E 0 90 3b 66
        E 62 80 3b 00
        <X 45 0
          /wVrw6RuLQ==
        >
        E 0 90 3b 66
        E 221 80 3b 00
        <X 35 0
          /wVuaXMt
        >
        E 0 90 3b 66
        E 112 80 3b 00
        <X 27 0
          /wVzw6Q=
        >
        E 0 90 3b 66
        E 114 80 3b 00
        E 41 80 69 00
        E 30 90 69 66
        <X 43 0
          /wVOw6Rpbg==
        >
        E 0 90 38 66
        E 171 80 38 00
        <X 38 0
          /wVzZW4=
        >
        E 0 90 36 66
        E 94 80 36 00
        <X 37 0
          /wVpdC0=
        >
        E 0 90 38 66
        E 82 80 38 00
        <X 127 0
          /wVrZS0=
        >
        E 0 90 3b 66
        E 98 80 3b 00
        <X 29 0
          /wVuZWVu
        >
        E 0 90 36 66
        E 146 80 36 00
        <X 39 0
          /wUr
        >
        E 0 90 38 66
        E 630 80 38 00
        E 86 80 69 00
        E 900 90 69 66
        <X 217 0
          /wVMdS0=
        >
        E 0 90 39 66
        E 133 80 39 00
        <X 25 0
          /wVtaQ==
        >
        E 0 90 39 66
        E 87 80 39 00
        <X 35 0
          /wV0ZS0=
        >
        E 0 90 39 66
        E 75 80 39 00
        <X 43 0
          /wVraQ==
        >
        E 0 90 38 66
        E 93 80 38 00
        <X 45 0
          /wVlbi0=
        >
        E 0 90 38 66
        E 209 80 38 00
        <X 36 0
          /wVrZS0=
        >
        E 0 90 36 66
        E 84 80 36 00
        <X 34 0
          /wVsaW4=
        >
        E 0 90 36 66
        E 73 80 36 00
        <X 44 0
          /wVlLQ==
        >
        E 0 90 36 66
        E 74 80 36 00
        <X 62 0
          /wV0ZWkt
        >
        E 0 90 34 66
        E 197 80 34 00
        <X 59 0
          /wVzZWVu
        >
        E 0 90 36 66
        E 668 80 36 00
        <X 454 0
          /wUr
        >
        E 0 90 2f 66
        E 818 80 2f 00
        E 215 80 69 00
        E 180 90 69 66
        E 0 90 74 66
        <X 194 0
          /wVNbWg=
        >
        E 0 90 38 66
        E 393 80 38 00
        <X 76 0
          /wUr
        >
        E 0 90 36 66
        E 46 80 36 00
        <X 156 0
          /wUr
        >
        E 0 90 33 66
        E 37 80 33 00
        <X 159 0
          /wUr
        >
        E 0 90 36 66
        E 206 80 36 00
        <X 95 0
          /wVtbWg=
        >
        E 0 90 2c 66
        E 338 80 2c 00
        <X 170 0
          /wUr
        >
        E 0 90 31 66
        E 832 80 31 00
        <X 1234 0
          /wVtbWg=
        >
        E 0 90 32 66
        E 121 80 32 00
        <X 147 0
          /wUr
        >
        E 0 90 36 66
        E 564 80 36 00
        <X 126 0
          /wUr
        >
        E 0 90 32 66
        E 174 80 32 00
        <X 368 0
          /wUr
        >
        E 0 90 2f 66
        E 131 80 2f 00
        <X 424 0
          /wVtbWg=
        >
        E 0 90 2d 66
        E 157 80 2d 00
        <X 131 0
          /wUr
        >
        E 0 90 31 66
        E 210 80 31 00
        <X 120 0
          /wUr
        >
        E 0 90 2f 66
        E 703 80 2f 00
        E 128 80 69 00
        E 0 80 74 00
        E 240 90 69 66
        <X 117 0
          /wVNbWg=
        >
        E 0 90 38 66
        E 393 80 38 00
        <X 76 0
          /wUr
        >
        E 0 90 36 66
        E 47 80 36 00
        <X 155 0
          /wUr
        >
        E 0 90 33 66
        E 37 80 33 00
        <X 160 0
          /wUr
        >
        E 0 90 36 66
        E 206 80 36 00
        <X 94 0
          /wVtbWg=
        >
        E 0 90 2c 66
        E 338 80 2c 00
        <X 171 0
          /wUr
        >
        E 0 90 31 66
        E 831 80 31 00
        <X 1211 0
          /wVtbWg=
        >
        E 0 90 35 66
        E 93 80 35 00
        <X 409 0
          /wUr
        >
        E 0 90 37 66
        E 465 80 37 00
        <X 139 0
          /wUr
        >
        E 0 90 38 66
        E 161 80 38 00
        <X 114 0
          /wVtbWg=
        >
        E 0 90 32 66
        E 82 80 32 00
        <X 88 0
          /wUr
        >
        E 0 90 34 66
        E 1505 80 34 00
        E 128 80 69 00
        E 540 90 69 66
        <X 138 0
          /wVKYQ==
        >
        E 0 90 34 66
        E 81 80 34 00
        <X 48 0
          /wVpLQ==
        >
        E 0 90 3d 66
        E 66 80 3d 00
        <X 36 0
          /wVzw6Q=
        >
        E 0 90 3d 66
        E 118 80 3d 00
        <X 33 0
          /wVtZS0=
        >
        E 0 90 3d 66
        E 61 80 3d 00
        <X 46 0
          /wVuaQ==
        >
        E 0 90 3b 66
        E 89 80 3b 00
        <X 38 0
          /wVSdW90LQ==
        >
        E 0 90 3b 66
        E 162 80 3b 00
        <X 77 0
          /wVzaWlu
        >
        E 0 90 3b 66
        E 313 80 3b 00
        E 14 80 69 00
        E 30 90 69 66
        <X 20 0
          /wXDhGkt
        >
        E 0 90 38 66
        E 200 80 38 00
        <X 38 0
          /wV0aQ==
        >
        E 0 90 36 66
        E 77 80 36 00
        <X 29 0
          /wVsZW4t
        >
        E 0 90 38 66
        E 189 80 38 00
        <X 23 0
          /wVzaQ==
        >
        E 0 90 3b 66
        E 78 80 3b 00
        <X 57 0
          /wV0YWkt
        >
        E 0 90 38 66
        E 319 80 38 00
        <X 37 0
          /wV2YWEt
        >
        E 0 90 36 66
        E 165 80 36 00
        <X 46 0
          /wVzZWVu
        >
        E 0 90 38 66
        E 1000 80 38 00
        E 92 80 69 00
        E 180 90 69 66
        E 0 90 74 66
        <X 54 0
          /wVKYQ==
        >
        E 0 90 39 66
        E 66 80 39 00
        <X 56 0
          /wVwYXAt
        >
        E 0 90 39 66
        E 61 80 39 00
        <X 104 0
          /wVwaQ==
        >
        E 0 90 39 66
        E 42 80 39 00
        <X 31 0
          /wVzYWk=
        >
        E 0 90 39 66
        E 100 80 39 00
        <X 36 0
          /wV0YWFz
        >
        E 0 90 38 66
        E 99 80 38 00
        <X 53 0
          /wVrYWgt
        >
        E 0 90 36 66
        E 151 80 36 00
        <X 59 0
          /wV2aS0=
        >
        E 0 90 36 66
        E 78 80 36 00
        <X 21 0
          /wVh
        >
        E 0 90 36 66
        E 107 80 36 00
        <X 37 0
          /wVqdW8t
        >
        E 0 90 36 66
        E 200 80 36 00
        <X 33 0
          /wVkYWst
        >
        E 0 90 34 66
        E 72 80 34 00
        <X 102 0
          /wVzZWVu
        >
        E 0 90 38 66
        E 594 80 38 00
        <X 58 0
          /wUr
        >
        E 0 90 36 66
        E 225 80 36 00
        <X 117 0
          /wUr
        >
        E 0 90 34 66
        E 774 80 34 00
        E 150 80 69 00
        E 0 80 74 00
        E 300 90 69 66
        <X 141 0
          /wVKYQ==
        >
        E 0 90 3d 66
        E 89 80 3d 00
        <X 42 0
          /wV2ZS0=
        >
        E 0 90 3d 66
        E 79 80 3d 00
        <X 59 0
          /wVsaQ==
        >
        E 0 90 3d 66
        E 87 80 3d 00
        <X 19 0
          /wVvLQ==
        >
        E 0 90 3d 66
        E 82 80 3d 00
        <X 44 0
          /wVsaQ==
        >
        E 0 90 3b 66
        E 68 80 3b 00
        <X 49 0
          /wVrw6RuLQ==
        >
        E 0 90 3b 66
        E 211 80 3b 00
        <X 36 0
          /wVuaXMt
        >
        E 0 90 3b 66
        E 111 80 3b 00
        <X 28 0
          /wVzw6Q=
        >
        E 0 90 3b 66
        E 114 80 3b 00
        E 46 80 69 00
        E 30 90 69 66
        <X 37 0
          /wVOw6Rpbg==
        >
        E 0 90 38 66
        E 171 80 38 00
        <X 39 0
          /wVzZW4=
        >
        E 0 90 36 66
        E 94 80 36 00
        <X 50 0
          /wVpdC0=
        >
        E 0 90 38 66
        E 76 80 38 00
        <X 144 0
          /wVrZS0=
        >
        E 0 90 3b 66
        E 98 80 3b 00
        <X 57 0
          /wVuZWVu
        >
        E 0 90 36 66
        E 145 80 36 00
        <X 40 0
          /wUr
        >
        E 0 90 38 66
        E 944 80 38 00
        E 70 80 69 00
        E 600 90 69 66
        <X 130 0
          /wVMdS0=
        >
        E 0 90 39 66
        E 163 80 39 00
        <X 24 0
          /wVtaQ==
        >
        E 0 90 39 66
        E 83 80 39 00
        <X 20 0
          /wV0ZS0=
        >
        E 0 90 39 66
        E 84 80 39 00
        <X 46 0
          /wVraQ==
        >
        E 0 90 38 66
        E 92 80 38 00
        <X 51 0
          /wVlbi0=
        >
        E 0 90 38 66
        E 209 80 38 00
        <X 32 0
          /wVrZS0=
        >
        E 0 90 36 66
        E 73 80 36 00
        <X 23 0
          /wVsaW4=
        >
        E 0 90 36 66
        E 79 80 36 00
        <X 48 0
          /wVlLQ==
        >
        E 0 90 36 66
        E 80 80 36 00
        <X 56 0
          /wV0ZWkt
        >
        E 0 90 34 66
        E 204 80 34 00
        <X 58 0
          /wVzZWVu
        >
        E 0 90 36 66
        E 687 80 36 00
        <X 454 0
          /wUr
        >
        E 0 90 2f 66
        E 849 80 2f 00
        E 175 80 69 00
        E 180 90 69 66
        <X 131 0
          /wVNbWg=
        >
        E 0 90 38 66
        E 393 80 38 00
        <X 76 0
          /wUr
        >
        E 0 90 36 66
        E 46 80 36 00
        <X 156 0
          /wUr
        >
        E 0 90 33 66
        E 37 80 33 00
        <X 159 0
          /wUr
        >
        E 0 90 36 66
        E 206 80 36 00
        <X 95 0
          /wVtbWg=
        >
        E 0 90 2c 66
        E 338 80 2c 00
        <X 170 0
          /wUr
        >
        E 0 90 31 66
        E 832 80 31 00
        <X 1234 0
          /wVtbWg=
        >
        E 0 90 32 66
        E 121 80 32 00
        <X 147 0
          /wUr
        >
        E 0 90 36 66
        E 564 80 36 00
        <X 126 0
          /wUr
        >
        E 0 90 32 66
        E 174 80 32 00
        <X 368 0
          /wUr
        >
        E 0 90 2f 66
        E 131 80 2f 00
        <X 424 0
          /wVtbWg=
        >
        E 0 90 2d 66
        E 157 80 2d 00
        <X 131 0
          /wUr
        >
        E 0 90 31 66
        E 210 80 31 00
        <X 120 0
          /wUr
        >
        E 0 90 2f 66
        E 703 80 2f 00
        <X 485 0
          /wVtbWg=
        >
        E 0 90 38 66
        E 393 80 38 00
        <X 76 0
          /wUr
        >
        E 0 90 36 66
        E 47 80 36 00
        <X 155 0
          /wUr
        >
        E 0 90 33 66
        E 37 80 33 00
        <X 160 0
          /wUr
        >
        E 0 90 36 66
        E 206 80 36 00
        <X 94 0
          /wVtbWg=
        >
        E 0 90 2c 66
        E 338 80 2c 00
        <X 171 0
          /wUr
        >
        E 0 90 31 66
        E 831 80 31 00
        E 438 80 69 00
        E 40801 b0 7b 00
        GUID {D78D8959-2AD8-48C0-8F6C-4A6670952331}
        IGNTEMPO 0 120.00000000 4 4
        SRCCOLOR 1182
        VELLANE 132 128 60
        COLORMAP "C:\Users\me\AppData\Roaming\REAPER\Data\color_maps\rockband_vox-other.png"
        TEXTSTRINGFILE "C:\Program Files\REAPER\Data\Text_Strings\Text Events List.txt"
        CFGEDITVIEW -8173.988946 23.012020 10 12 0 0 0
        CFGEDIT 1 1 0 1 1 1 1 1 1 1 1 0.06250000 -8 -8 1374 736 1 2 1 2 0.00000000 0 0 0 0 0.500000 1 0 1.000000 64
        KEYSNAP 0 0 "102034050607" 0 "Major"
        EVTFILTER 0 -1 -1 -1 -1 0 1 0 0 -1.00000000 -1.00000000
      >
    >
  >
  <TRACK '{4A30D2A4-111B-40E3-8633-0926E85E641C}'
    NAME "DRYVOX1"
    PEAKCOL 16576
    BEAT -1
    AUTOMODE 0
    VOLPAN 1.00000000000000 0.00000000000000 -1.00000000000000 -1.00000000000000 1.00000000000000
    MUTESOLO 1 0 0
    IPHASE 0
    ISBUS 0 0
    BUSCOMP 0 0
    SHOWINMIX 1 0.666700 0.500000 1 0.500000 -1 -1 -1
    FREEMODE 0
    SEL 0
    REC 0 0 0 0 0 0 0
    TRACKHEIGHT 145 0
    INQ 0 0 0 0.5000000000 100 0 0 100
    NCHAN 2
    FX 1
    TRACKID {4A30D2A4-111B-40E3-8633-0926E85E641C}
    PERF 0
    MIDIOUT -1
    MAINSEND 1 0
    <FXCHAIN
      SHOW 0
      LASTSEL 0
      DOCKED 0
      BYPASS 0 0
      <VST "VST: ReaGate (Cockos)" "reagate.dll" 0 ""
        dGdlcu9e7f4EAAAAAQAAAAAAAAACAAAAAAAAAAQAAAAAAAAACAAAAA==
        AAAAAAIAAAABAAAAAAAAAAIAAAAAAAAAVAAAAAAAAAAAABAA776t3g==
        DfCt3pzRBzOmm8Q7CtejPAAAAAAAAAAAAACAPwAAAAAAAAAAAAAAAA==
        nNEHMx5Ucz+c0QczAACAPwAAAAAAAAAAAAAAACwWCz8AAAAAAAAAAA==
        AAAQAAAA
      >
      FLOATPOS 859 184 511 385
      FXID {BF545B5B-7DD0-4B4C-AC52-F095A552DA08}
      WAK 0
    >
    <ITEM
      POSITION 2.34352805768140
      SNAPOFFS 0.00000000000000
      LENGTH 207.59999999999999
      LOOP 0
      ALLTAKES 0
      SEL 0
      FADEIN 1 0.000000 0.000000 1 0
      FADEOUT 1 0.000000 0.000000 1 0
      MUTE 0
      IGUID {5B01984E-0250-43FC-B5E0-785703657F53}
      IID 52
      NAME "vocals_[mvsep.com].mp3"
      VOLPAN 1.000000 0.000000 1.000000 -1.000000
      SOFFS 0.00000000000000
      PLAYRATE 1.00000000000000 1 0.00000000000000 -1
      CHANMODE 0
      GUID {2D68022A-1475-400D-B10B-C41919C4FD65}
      <SOURCE MP3
        FILE "vocals_[mvsep.com].mp3" 1
      >
    >
  >
  <TRACK '{983C7D04-DAF6-462A-B5E6-64213F29FBA0}'
    NAME "HARM2"
    PEAKCOL 24624127
    BEAT -1
    AUTOMODE 0
    VOLPAN 1.00497380427334 0.00000000000000 -1.00000000000000 -1.00000000000000 1.00000000000000
    MUTESOLO 0 0 0
    IPHASE 0
    ISBUS 0 0
    BUSCOMP 0 0
    SHOWINMIX 1 0.666700 0.500000 1 0.500000 -1 -1 -1
    FREEMODE 0
    SEL 0
    REC 0 0 0 0 0 0 0
    TRACKHEIGHT 0 0
    INQ 0 0 0 0.5000000000 100 0 0 100
    NCHAN 2
    FX 1
    TRACKID {983C7D04-DAF6-462A-B5E6-64213F29FBA0}
    PERF 0
    MIDIOUT -1
    <MIDINOTENAMES
      0 0 "Range Shift"
      0 1 "Lyric Shift"
      0 36 "C1"
      0 37 "C#"
      0 38 "D"
      0 39 "Eb"
      0 40 "E"
      0 41 "F"
      0 42 "F#"
      0 43 "G"
      0 44 "G#"
      0 45 "A"
      0 46 "Bb"
      0 47 "B"
      0 48 "C2"
      0 49 "C#"
      0 50 "D"
      0 51 "Eb"
      0 52 "E"
      0 53 "F"
      0 54 "F#"
      0 55 "G"
      0 56 "G#"
      0 57 "A"
      0 58 "Bb"
      0 59 "B"
      0 60 "C3"
      0 61 "C#"
      0 62 "D"
      0 63 "Eb"
      0 64 "E"
      0 65 "F"
      0 66 "F#"
      0 67 "G"
      0 68 "G#"
      0 69 "A"
      0 70 "Bb"
      0 71 "B"
      0 72 "C4"
      0 73 "C#"
      0 74 "D"
      0 75 "Eb"
      0 76 "E"
      0 77 "F"
      0 78 "F#"
      0 79 "G"
      0 80 "G#"
      0 81 "A"
      0 82 "Bb"
      0 83 "B"
      0 105 "Phrase Marker"
      0 35 "----"
      0 84 "C5"
      0 116 "OVERDRIVE"
      0 115 "----"
      0 104 "----"
      0 97 "Not Displayed Percussion"
      0 96 "Displayed Percussion"
      0 95 "----"
    >
    MAINSEND 1 0
    <FXCHAIN
      WNDRECT 0 42 716 493
      SHOW 0
      LASTSEL 1
      DOCKED 0
      BYPASS 0 0
      <JS "IX/MIDI_Tool II" ""
        0.000000 85.000000 127.000000 0.000000 0.000000 0.000000 100.000000 0.000000 0.000000 127.000000 0.000000 0.000000 1.000000 0.000000 0.000000 - - - - - - - - - - - - - - - - - - - - - - - - - - - - - - - - - - - - - - - - - - - - - - - - - 
      >
      FLOATPOS 0 0 0 0
      FXID {0D2127EF-90E6-4278-AB57-59BADA75D3A0}
      WAK 0
      BYPASS 0 0
      <VST "VSTi: ReaSynth (Cockos)" "reasynth.dll" 0 ""
        eXNlcu9e7f4AAAAAAgAAAAEAAAAAAAAAAgAAAAAAAAA4AAAAAAAAAA==
        AAAAAO++rd4N8K3eppvEOxe30ToAAAAAAAAAAAAAAACa9Q8/6WeIPQ==
        AAAAAAAAAD8AAIA/AAAAAAAAAD8AAAAAAAA=
      >
      FLOATPOS 0 0 0 0
      FXID {9CF76FE8-51DE-4F46-8774-EF282D9874DF}
      WAK 0
    >
    <ITEM
      POSITION 0.00000000000000
      SNAPOFFS 0.00000000000000
      LENGTH 262.84614954630223
      LOOP 0
      ALLTAKES 0
      SEL 0
      FADEIN 1 0.000000 0.000000 1 0
      FADEOUT 1 0.000000 0.000000 1 0
      MUTE 0
      IGUID {85B4D2FA-0EE6-4979-8286-EAC89A15680D}
      IID 12
      NAME "HARM2 untitled MIDI item"
      VOLPAN 1.000000 0.000000 1.000000 -1.000000
      SOFFS 0.00000000000000 0.00000000000000
      PLAYRATE 1.00000000000000 1 0.00000000000000 -1
      CHANMODE 0
      GUID {67C8C31A-733D-46F5-9A6D-0FDF2143554E}
      <SOURCE MIDI
        HASDATA 1 480 QN
        POOLEDEVTS {341BE499-23B6-42C8-BC80-6790ED5830BA}
        <X 0 0
          /wNIQVJNMg==
        >
        <X 5760 0
          /wFbaWRsZV0=
        >
        E 300 90 69 58
        E 2700 80 69 00
        E 1140 90 69 58
        E 3180 80 69 00
        E 660 90 69 58
        E 2700 80 69 00
        E 1080 90 69 58
        E 0 90 74 58
        E 2460 80 69 00
        E 0 80 74 00
        E 1440 90 69 58
        E 2820 80 69 00
        E 1020 90 69 58
        E 3420 80 69 00
        E 360 90 69 58
        E 2940 80 69 00
        E 840 90 69 58
        E 0 90 74 58
        E 2760 80 69 00
        E 0 80 74 00
        E 1080 90 69 66
        <X 183 0
          /wVKYQ==
        >
        e 0 90 39 66
        e 81 80 39 00
        <X 53 0
          /wV2ZS0=
        >
        e 0 90 42 66
        e 61 80 42 00
        <X 57 0
          /wVzaQ==
        >
        e 0 90 42 66
        e 87 80 42 00
        <X 43 0
          /wVvLQ==
        >
        e 0 90 42 66
        e 67 80 42 00
        <X 59 0
          /wVsaQ==
        >
        e 0 90 40 66
        e 70 80 40 00
        <X 58 0
          /wVtdXMt
        >
        e 0 90 40 66
        e 112 80 40 00
        <X 122 0
          /wV0YWE=
        >
        e 0 90 40 66
        e 330 80 40 00
        E 27 80 69 00
        E 30 90 69 66
        <X 13 0
          /wXDhGkt
        >
        e 0 90 3d 66
        e 182 80 3d 00
        <X 45 0
          /wV0aQ==
        >
        e 0 90 3b 66
        e 57 80 3b 00
        <X 57 0
          /wVrdWwt
        >
        e 0 90 3d 66
        e 174 80 3d 00
        <X 61 0
          /wVraQ==
        >
        e 0 90 40 66
        e 73 80 40 00
        <X 54 0
          /wVtdXMt
        >
        e 0 90 3d 66
        e 137 80 3d 00
        <X 105 0
          /wV0aXMt
        >
        e 0 90 3b 66
        e 129 80 3b 00
        <X 70 0
          /wVzYWFu
        >
        e 0 90 3b 66
        e 184 80 3b 00
        <X 54 0
          /wUr
        >
        e 0 90 3d 66
        e 264 80 3d 00
        <X 55 0
          /wUr
        >
        e 0 90 3c 66
        e 331 80 3c 00
        E 175 80 69 00
        E 180 90 69 66
        <X 171 0
          /wVKYQ==
        >
        e 0 90 3e 66
        e 55 80 3e 00
        <X 54 0
          /wVwYXAt
        >
        e 0 90 3e 66
        e 51 80 3e 00
        <X 108 0
          /wVwaS0=
        >
        e 0 90 3e 66
        e 42 80 3e 00
        <X 50 0
          /wVraW4=
        >
        e 0 90 3e 66
        e 39 80 3e 00
        <X 52 0
          /wVzYWk=
        >
        e 0 90 3d 66
        e 111 80 3d 00
        <X 40 0
          /wVrYWgt
        >
        e 0 90 3b 66
        e 174 80 3b 00
        <X 75 0
          /wV2aWE=
        >
        e 0 90 3b 66
        e 199 80 3b 00
        <X 52 0
          /wVqdW8t
        >
        e 0 90 3b 66
        e 192 80 3b 00
        <X 27 0
          /wVkYWst
        >
        e 0 90 3b 66
        e 89 80 3b 00
        <X 90 0
          /wVzZWVu
        >
        e 0 90 39 66
        e 338 80 39 00
        <X 248 0
          /wUr
        >
        e 0 90 3d 66
        e 318 80 3d 00
        <X 340 0
          /wUr
        >
        e 0 90 39 66
        e 492 80 39 00
        E 193 80 69 00
        E 240 90 69 66
        E 0 90 74 66
        <X 177 0
          /wVKYQ==
        >
        e 0 90 42 66
        e 98 80 42 00
        <X 42 0
          /wVpLQ==
        >
        e 0 90 42 66
        e 40 80 42 00
        <X 36 0
          /wVzw6Q=
        >
        e 0 90 42 66
        e 149 80 42 00
        <X 25 0
          /wVvLQ==
        >
        e 0 90 42 66
        e 59 80 42 00
        <X 40 0
          /wVsaQ==
        >
        e 0 90 42 66
        e 84 80 42 00
        <X 45 0
          /wVrw6RuLQ==
        >
        e 0 90 40 66
        e 188 80 40 00
        <X 68 0
          /wVuaXMt
        >
        e 0 90 40 66
        e 127 80 40 00
        <X 65 0
          /wVzw6Q=
        >
        e 0 90 40 66
        e 114 80 40 00
        <X 72 0
          /wVrdWluLQ==
        >
        e 0 90 40 66
        e 171 80 40 00
        <X 32 0
          /wVrYXM=
        >
        e 0 90 3d 66
        e 89 80 3d 00
        <X 67 0
          /wVtdXUt
        >
        e 0 90 3b 66
        e 32 80 3b 00
        <X 32 0
          /wUr
        >
        e 0 90 3d 66
        e 104 80 3d 00
        <X 39 0
          /wV0ZW4t
        >
        e 0 90 40 66
        e 105 80 40 00
        <X 48 0
          /wVrYWFu
        >
        e 0 90 3b 66
        e 146 80 3b 00
        <X 36 0
          /wUr
        >
        e 0 90 3d 66
        e 607 80 3d 00
        E 183 80 69 00
        E 0 80 74 00
        E 540 90 69 66
        <X 239 0
          /wVKby0=
        >
        e 0 90 3e 66
        e 70 80 3e 00
        <X 62 0
          /wVrdQ==
        >
        e 0 90 3e 66
        e 62 80 3e 00
        <X 37 0
          /wVrYW4t
        >
        e 0 90 3e 66
        e 218 80 3e 00
        <X 39 0
          /wV0b2k=
        >
        e 0 90 3d 66
        e 187 80 3d 00
        <X 62 0
          /wVrdWst
        >
        e 0 90 3d 66
        e 77 80 3d 00
        <X 167 0
          /wVraS0=
        >
        e 0 90 3b 66
        e 84 80 3b 00
        <X 19 0
          /wVh
        >
        e 0 90 3b 66
        e 89 80 3b 00
        <X 51 0
          /wVlLQ==
        >
        e 0 90 3b 66
        e 67 80 3b 00
        <X 57 0
          /wV0ZWkt
        >
        e 0 90 39 66
        e 194 80 39 00
        <X 54 0
          /wVzZWVu
        >
        e 0 90 3b 66
        e 616 80 3b 00
        <X 340 0
          /wUr
        >
        e 0 90 34 66
        e 814 80 34 00
        E 235 80 69 00
        E 300 90 69 66
        E 2760 80 69 00
        E 1020 90 69 66
        E 3360 80 69 00
        E 540 90 69 66
        E 0 90 74 66
        E 2760 80 69 00
        E 0 80 74 00
        E 1080 90 69 66
        E 2640 80 69 00
        E 1140 90 69 66
        E 2760 80 69 00
        E 1140 90 69 66
        E 3240 80 69 00
        E 480 90 69 66
        E 0 90 74 66
        E 2760 80 69 00
        E 0 80 74 00
        E 1140 90 69 66
        E 2520 80 69 00
        E 1260 90 69 66
        <X 188 0
          /wVKYQ==
        >
        e 0 90 39 66
        e 81 80 39 00
        <X 53 0
          /wVpLQ==
        >
        e 0 90 42 66
        e 61 80 42 00
        <X 44 0
          /wVzw6Q=
        >
        e 0 90 42 66
        e 110 80 42 00
        <X 33 0
          /wVtZS0=
        >
        e 0 90 42 66
        e 58 80 42 00
        <X 50 0
          /wVuaQ==
        >
        e 0 90 40 66
        e 88 80 40 00
        <X 50 0
          /wVSdW90LQ==
        >
        e 0 90 40 66
        e 150 80 40 00
        <X 78 0
          /wVzaWlu
        >
        e 0 90 40 66
        e 332 80 40 00
        E 19 80 69 00
        E 30 90 69 66
        <X 16 0
          /wXDhGkt
        >
        e 0 90 3d 66
        e 199 80 3d 00
        <X 45 0
          /wV0aQ==
        >
        e 0 90 3b 66
        e 70 80 3b 00
        <X 33 0
          /wVsZW4t
        >
        e 0 90 3d 66
        e 198 80 3d 00
        <X 48 0
          /wVzaQ==
        >
        e 0 90 40 66
        e 73 80 40 00
        <X 54 0
          /wV0YWkt
        >
        e 0 90 3d 66
        e 298 80 3d 00
        <X 49 0
          /wV2YWEt
        >
        e 0 90 3b 66
        e 159 80 3b 00
        <X 41 0
          /wVzZWVu
        >
        e 0 90 3d 66
        e 916 80 3d 00
        E 156 80 69 00
        E 120 90 69 66
        E 0 90 74 66
        <X 141 0
          /wVKYQ==
        >
        e 0 90 3e 66
        e 67 80 3e 00
        <X 56 0
          /wVwYXAt
        >
        e 0 90 3e 66
        e 61 80 3e 00
        <X 85 0
          /wVwaQ==
        >
        e 0 90 3e 66
        e 42 80 3e 00
        <X 43 0
          /wVzYWk=
        >
        e 0 90 3e 66
        e 89 80 3e 00
        <X 41 0
          /wV0YWFz
        >
        e 0 90 3d 66
        e 93 80 3d 00
        <X 54 0
          /wVrYWgt
        >
        e 0 90 3b 66
        e 157 80 3b 00
        <X 59 0
          /wV2aS0=
        >
        e 0 90 3b 66
        e 93 80 3b 00
        <X 23 0
          /wVh
        >
        e 0 90 3b 66
        e 100 80 3b 00
        <X 37 0
          /wVqdW8t
        >
        e 0 90 3b 66
        e 199 80 3b 00
        <X 25 0
          /wVkYWst
        >
        e 0 90 39 66
        e 57 80 39 00
        <X 116 0
          /wVzZWVu
        >
        e 0 90 3d 66
        e 587 80 3d 00
        <X 59 0
          /wUr
        >
        e 0 90 3b 66
        e 225 80 3b 00
        <X 116 0
          /wUr
        >
        e 0 90 39 66
        e 718 80 39 00
        E 137 80 69 00
        E 0 80 74 00
        E 300 90 69 66
        <X 182 0
          /wVKYQ==
        >
        e 0 90 42 66
        e 98 80 42 00
        <X 42 0
          /wV2ZS0=
        >
        e 0 90 42 66
        e 80 80 42 00
        <X 69 0
          /wVsaQ==
        >
        e 0 90 42 66
        e 76 80 42 00
        <X 25 0
          /wVvLQ==
        >
        e 0 90 42 66
        e 77 80 42 00
        <X 44 0
          /wVsaQ==
        >
        e 0 90 40 66
        e 62 80 40 00
        <X 45 0
          /wVrw6RuLQ==
        >
        e 0 90 40 66
        e 221 80 40 00
        <X 35 0
          /wVuaXMt
        >
        e 0 90 40 66
        e 112 80 40 00
        <X 27 0
          /wVzw6Q=
        >
        e 0 90 40 66
        e 114 80 40 00
        E 41 80 69 00
        E 30 90 69 66
        <X 43 0
          /wVOw6Rpbg==
        >
        e 0 90 3d 66
        e 171 80 3d 00
        <X 38 0
          /wVzZW4=
        >
        e 0 90 3b 66
        e 94 80 3b 00
        <X 37 0
          /wVpdC0=
        >
        e 0 90 3d 66
        e 82 80 3d 00
        <X 127 0
          /wVrZS0=
        >
        e 0 90 40 66
        e 98 80 40 00
        <X 29 0
          /wVuZWVu
        >
        e 0 90 3b 66
        e 146 80 3b 00
        <X 39 0
          /wUr
        >
        e 0 90 3d 66
        e 630 80 3d 00
        E 86 80 69 00
        E 900 90 69 66
        <X 217 0
          /wVMdS0=
        >
        e 0 90 3e 66
        e 133 80 3e 00
        <X 25 0
          /wVtaQ==
        >
        e 0 90 3e 66
        e 87 80 3e 00
        <X 35 0
          /wV0ZS0=
        >
        e 0 90 3e 66
        e 75 80 3e 00
        <X 43 0
          /wVraQ==
        >
        e 0 90 3d 66
        e 93 80 3d 00
        <X 45 0
          /wVlbi0=
        >
        e 0 90 3d 66
        e 209 80 3d 00
        <X 36 0
          /wVrZS0=
        >
        e 0 90 3b 66
        e 84 80 3b 00
        <X 34 0
          /wVsaW4=
        >
        e 0 90 3b 66
        e 73 80 3b 00
        <X 44 0
          /wVlLQ==
        >
        e 0 90 3b 66
        e 74 80 3b 00
        <X 62 0
          /wV0ZWkt
        >
        e 0 90 39 66
        e 197 80 39 00
        <X 59 0
          /wVzZWVu
        >
        e 0 90 3b 66
        e 668 80 3b 00
        <X 454 0
          /wUr
        >
        e 0 90 34 66
        e 818 80 34 00
        E 215 80 69 00
        E 180 90 69 66
        E 0 90 74 66
        E 7440 80 69 00
        E 0 80 74 00
        E 240 90 69 66
        E 7020 80 69 00
        E 540 90 69 66
        <X 138 0
          /wVKYQ==
        >
        e 0 90 39 66
        e 81 80 39 00
        <X 48 0
          /wVpLQ==
        >
        e 0 90 42 66
        e 66 80 42 00
        <X 36 0
          /wVzw6Q=
        >
        e 0 90 42 66
        e 118 80 42 00
        <X 33 0
          /wVtZS0=
        >
        e 0 90 42 66
        e 61 80 42 00
        <X 46 0
          /wVuaQ==
        >
        e 0 90 40 66
        e 89 80 40 00
        <X 38 0
          /wVSdW90LQ==
        >
        e 0 90 40 66
        e 162 80 40 00
        <X 77 0
          /wVzaWlu
        >
        e 0 90 40 66
        e 313 80 40 00
        E 14 80 69 00
        E 30 90 69 66
        <X 20 0
          /wXDhGkt
        >
        e 0 90 3d 66
        e 200 80 3d 00
        <X 38 0
          /wV0aQ==
        >
        e 0 90 3b 66
        e 77 80 3b 00
        <X 29 0
          /wVsZW4t
        >
        e 0 90 3d 66
        e 189 80 3d 00
        <X 23 0
          /wVzaQ==
        >
        e 0 90 40 66
        e 78 80 40 00
        <X 57 0
          /wV0YWkt
        >
        e 0 90 3d 66
        e 319 80 3d 00
        <X 37 0
          /wV2YWEt
        >
        e 0 90 3b 66
        e 165 80 3b 00
        <X 46 0
          /wVzZWVu
        >
        e 0 90 3d 66
        e 1000 80 3d 00
        E 92 80 69 00
        E 180 90 69 66
        E 0 90 74 66
        <X 54 0
          /wVKYQ==
        >
        e 0 90 3e 66
        e 66 80 3e 00
        <X 56 0
          /wVwYXAt
        >
        e 0 90 3e 66
        e 61 80 3e 00
        <X 104 0
          /wVwaQ==
        >
        e 0 90 3e 66
        e 42 80 3e 00
        <X 31 0
          /wVzYWk=
        >
        e 0 90 3e 66
        e 100 80 3e 00
        <X 36 0
          /wV0YWFz
        >
        e 0 90 3d 66
        e 99 80 3d 00
        <X 53 0
          /wVrYWgt
        >
        e 0 90 3b 66
        e 151 80 3b 00
        <X 59 0
          /wV2aS0=
        >
        e 0 90 3b 66
        e 78 80 3b 00
        <X 21 0
          /wVh
        >
        e 0 90 3b 66
        e 107 80 3b 00
        <X 37 0
          /wVqdW8t
        >
        e 0 90 3b 66
        e 200 80 3b 00
        <X 33 0
          /wVkYWst
        >
        e 0 90 39 66
        e 72 80 39 00
        <X 102 0
          /wVzZWVu
        >
        e 0 90 3d 66
        e 594 80 3d 00
        <X 58 0
          /wUr
        >
        e 0 90 3b 66
        e 225 80 3b 00
        <X 117 0
          /wUr
        >
        e 0 90 39 66
        e 774 80 39 00
        E 150 80 69 00
        E 0 80 74 00
        E 300 90 69 66
        <X 141 0
          /wVKYQ==
        >
        e 0 90 42 66
        e 89 80 42 00
        <X 42 0
          /wV2ZS0=
        >
        e 0 90 42 66
        e 79 80 42 00
        <X 59 0
          /wVsaQ==
        >
        e 0 90 42 66
        e 87 80 42 00
        <X 19 0
          /wVvLQ==
        >
        e 0 90 42 66
        e 82 80 42 00
        <X 44 0
          /wVsaQ==
        >
        e 0 90 40 66
        e 68 80 40 00
        <X 49 0
          /wVrw6RuLQ==
        >
        e 0 90 40 66
        e 211 80 40 00
        <X 36 0
          /wVuaXMt
        >
        e 0 90 40 66
        e 111 80 40 00
        <X 28 0
          /wVzw6Q=
        >
        e 0 90 40 66
        e 114 80 40 00
        E 46 80 69 00
        E 30 90 69 66
        <X 37 0
          /wVOw6Rpbg==
        >
        e 0 90 3d 66
        e 171 80 3d 00
        <X 39 0
          /wVzZW4=
        >
        e 0 90 3b 66
        e 94 80 3b 00
        <X 50 0
          /wVpdC0=
        >
        e 0 90 3d 66
        e 76 80 3d 00
        <X 144 0
          /wVrZS0=
        >
        e 0 90 40 66
        e 98 80 40 00
        <X 57 0
          /wVuZWVu
        >
        e 0 90 3b 66
        e 145 80 3b 00
        <X 40 0
          /wUr
        >
        e 0 90 3d 66
        e 944 80 3d 00
        E 70 80 69 00
        E 600 90 69 66
        <X 130 0
          /wVMdS0=
        >
        e 0 90 3e 66
        e 163 80 3e 00
        <X 24 0
          /wVtaQ==
        >
        e 0 90 3e 66
        e 83 80 3e 00
        <X 20 0
          /wV0ZS0=
        >
        e 0 90 3e 66
        e 84 80 3e 00
        <X 46 0
          /wVraQ==
        >
        e 0 90 3d 66
        e 92 80 3d 00
        <X 51 0
          /wVlbi0=
        >
        e 0 90 3d 66
        e 209 80 3d 00
        <X 32 0
          /wVrZS0=
        >
        e 0 90 3b 66
        e 73 80 3b 00
        <X 23 0
          /wVsaW4=
        >
        e 0 90 3b 66
        e 79 80 3b 00
        <X 48 0
          /wVlLQ==
        >
        e 0 90 3b 66
        e 80 80 3b 00
        <X 56 0
          /wV0ZWkt
        >
        e 0 90 39 66
        e 204 80 39 00
        <X 58 0
          /wVzZWVu
        >
        e 0 90 3b 66
        e 687 80 3b 00
        <X 454 0
          /wUr
        >
        e 0 90 34 66
        e 849 80 34 00
        E 175 80 69 00
        E 180 90 69 66
        E 10680 80 69 00
        E 40801 b0 7b 00
        GUID {E53B89F8-ECC8-4A25-86E2-BC4D240C9444}
        IGNTEMPO 0 120.00000000 4 4
        SRCCOLOR 1183
        VELLANE 132 128 60
        COLORMAP "C:\Users\me\AppData\Roaming\REAPER\Data\color_maps\rockband_vox-other.png"
        TEXTSTRINGFILE "C:\Program Files\REAPER\Data\Text_Strings\Text Events List.txt"
        CFGEDITVIEW -8173.988946 23.012020 23 12 0 0 0
        CFGEDIT 1 1 0 1 1 1 1 1 1 1 1 0.06250000 -8 -8 1374 736 1 2 1 2 0.00000000 0 0 0 0 0.500000 1 0 1.000000 64
        KEYSNAP 0 0 "102034050607" 0 "Major"
        EVTFILTER 0 -1 -1 -1 -1 0 1 0 0 -1.00000000 -1.00000000
      >
    >
  >
  <TRACK '{58A7B9C6-1373-47A1-A41A-295306551BF7}'
    NAME "DRYVOX2"
    PEAKCOL 16576
    BEAT -1
    AUTOMODE 0
    VOLPAN 1.00000000000000 0.00000000000000 -1.00000000000000 -1.00000000000000 1.00000000000000
    MUTESOLO 1 0 0
    IPHASE 0
    ISBUS 0 0
    BUSCOMP 0 0
    SHOWINMIX 1 0.666700 0.500000 1 0.500000 -1 -1 -1
    FREEMODE 0
    SEL 0
    REC 0 0 0 0 0 0 0
    TRACKHEIGHT 24 0
    INQ 0 0 0 0.5000000000 100 0 0 100
    NCHAN 2
    FX 1
    TRACKID {58A7B9C6-1373-47A1-A41A-295306551BF7}
    PERF 0
    MIDIOUT -1
    MAINSEND 1 0
    <FXCHAIN
      SHOW 0
      LASTSEL 0
      DOCKED 0
      BYPASS 0 0
      <VST "VST: ReaGate (Cockos)" "reagate.dll" 0 ""
        dGdlcu9e7f4EAAAAAQAAAAAAAAACAAAAAAAAAAQAAAAAAAAACAAAAA==
        AAAAAAIAAAABAAAAAAAAAAIAAAAAAAAAVAAAAAAAAAAAABAA776t3g==
        DfCt3pzRBzOmm8Q7CtejPAAAAAAAAAAAAACAPwAAAAAAAAAAAAAAAA==
        nNEHMx5Ucz+c0QczAACAPwAAAAAAAAAAAAAAACwWCz8AAAAAAAAAAA==
        AAAQAAAA
      >
      FLOATPOS 859 184 511 385
      FXID {BF545B5B-7DD0-4B4C-AC52-F095A552DA08}
      WAK 0
    >
  >
  <TRACK '{4299BF31-E988-4C64-900A-97AC9ECE5EBC}'
    NAME "HARM3"
    PEAKCOL 24624127
    BEAT -1
    AUTOMODE 0
    VOLPAN 1.00000000000000 0.00000000000000 -1.00000000000000 -1.00000000000000 1.00000000000000
    MUTESOLO 0 0 0
    IPHASE 0
    ISBUS 0 0
    BUSCOMP 0 0
    SHOWINMIX 1 0.666700 0.500000 1 0.500000 -1 -1 -1
    FREEMODE 0
    SEL 0
    REC 0 0 0 0 0 0 0
    TRACKHEIGHT 0 0
    INQ 0 0 0 0.5000000000 100 0 0 100
    NCHAN 2
    FX 1
    TRACKID {4299BF31-E988-4C64-900A-97AC9ECE5EBC}
    PERF 0
    MIDIOUT -1
    <MIDINOTENAMES
      0 0 "Range Shift"
      0 1 "Lyric Shift"
      0 35 "----"
      0 36 "C1"
      0 37 "C#"
      0 38 "D"
      0 39 "Eb"
      0 40 "E"
      0 41 "F"
      0 42 "F#"
      0 43 "G"
      0 44 "G#"
      0 45 "A"
      0 46 "Bb"
      0 47 "B"
      0 48 "C2"
      0 49 "C#"
      0 50 "D"
      0 51 "Eb"
      0 52 "E"
      0 53 "F"
      0 54 "F#"
      0 55 "G"
      0 56 "G#"
      0 57 "A"
      0 58 "Bb"
      0 59 "B"
      0 60 "C3"
      0 61 "C#"
      0 62 "D"
      0 63 "Eb"
      0 64 "E"
      0 65 "F"
      0 66 "F#"
      0 67 "G"
      0 68 "G#"
      0 69 "A"
      0 70 "Bb"
      0 71 "B"
      0 72 "C4"
      0 73 "C#"
      0 74 "D"
      0 75 "Eb"
      0 76 "E"
      0 77 "F"
      0 78 "F#"
      0 79 "G"
      0 80 "G#"
      0 81 "A"
      0 82 "Bb"
      0 83 "B"
      0 84 "C5"
      0 116 "OVERDRIVE"
      0 115 "----"
      0 105 "Phrase Marker"
      0 104 "----"
      0 97 "Not Displayed Percussion"
      0 96 "Displayed Percussion"
      0 95 "----"
    >
    MAINSEND 1 0
    <FXCHAIN
      WNDRECT 0 42 716 493
      SHOW 0
      LASTSEL 1
      DOCKED 0
      BYPASS 0 0
      <JS "IX/MIDI_Tool II" ""
        0.000000 85.000000 127.000000 0.000000 0.000000 0.000000 100.000000 0.000000 0.000000 127.000000 0.000000 0.000000 1.000000 0.000000 0.000000 - - - - - - - - - - - - - - - - - - - - - - - - - - - - - - - - - - - - - - - - - - - - - - - - - 
      >
      FLOATPOS 0 0 0 0
      FXID {3D33E2FB-5DDE-4F81-B16F-BCB1EAD8D4FA}
      WAK 0
      BYPASS 0 0
      <VST "VSTi: ReaSynth (Cockos)" "reasynth.dll" 0 ""
        eXNlcu9e7f4AAAAAAgAAAAEAAAAAAAAAAgAAAAAAAAA4AAAAAAAAAA==
        AAAAAO++rd4N8K3eppvEOxe30ToAAAAAAAAAAAAAAACa9Q8/6WeIPQ==
        AAAAAAAAAD8AAIA/AAAAAAAAAD8AAAAAAAA=
      >
      FLOATPOS 0 0 0 0
      FXID {98E235B6-3365-4F58-AC74-F5BD513BFA85}
      WAK 0
    >
    <ITEM
      POSITION 0.00000000000000
      SNAPOFFS 0.00000000000000
      LENGTH 262.84614954630223
      LOOP 0
      ALLTAKES 0
      SEL 0
      FADEIN 1 0.000000 0.000000 1 0
      FADEOUT 1 0.000000 0.000000 1 0
      MUTE 0
      IGUID {14DAFADF-64E7-40FA-8E65-65BBB77CBDB7}
      IID 13
      NAME "HARM3 untitled MIDI item"
      VOLPAN 1.000000 0.000000 1.000000 -1.000000
      SOFFS 0.00000000000000 0.00000000000000
      PLAYRATE 1.00000000000000 1 0.00000000000000 -1
      CHANMODE 0
      GUID {BA30FF02-694D-4D9D-9D54-87AECA42C3BA}
      <SOURCE MIDI
        HASDATA 1 480 QN
        POOLEDEVTS {0E729018-0E3B-4EED-92DD-5398FD227406}
        <X 0 0
          /wNIQVJNMw==
        >
        <X 5760 0
          /wFbaWRsZV0=
        >
        E 300 90 69 58
        E 2700 80 69 00
        E 1140 90 69 58
        E 3180 80 69 00
        E 660 90 69 58
        E 2700 80 69 00
        E 1080 90 69 58
        E 0 90 74 58
        E 2460 80 69 00
        E 0 80 74 00
        E 1440 90 69 58
        E 2820 80 69 00
        E 1020 90 69 58
        E 3420 80 69 00
        E 360 90 69 58
        E 2940 80 69 00
        E 840 90 69 58
        E 0 90 74 58
        E 2760 80 69 00
        E 0 80 74 00
        E 1080 90 69 66
        <X 183 0
          /wVKYQ==
        >
        e 0 90 2f 66
        e 81 80 2f 00
        <X 53 0
          /wV2ZS0=
        >
        E 0 90 38 66
        E 61 80 38 00
        <X 57 0
          /wVzaQ==
        >
        E 0 90 38 66
        E 87 80 38 00
        <X 43 0
          /wVvLQ==
        >
        E 0 90 38 66
        E 67 80 38 00
        <X 59 0
          /wVsaQ==
        >
        E 0 90 36 66
        E 70 80 36 00
        <X 58 0
          /wVtdXMt
        >
        E 0 90 36 66
        E 112 80 36 00
        <X 122 0
          /wV0YWE=
        >
        E 0 90 36 66
        E 330 80 36 00
        E 27 80 69 00
        E 30 90 69 66
        <X 13 0
          /wXDhGkt
        >
        E 0 90 33 66
        E 182 80 33 00
        <X 45 0
          /wV0aQ==
        >
        E 0 90 31 66
        E 57 80 31 00
        <X 57 0
          /wVrdWwt
        >
        E 0 90 33 66
        E 174 80 33 00
        <X 61 0
          /wVraQ==
        >
        E 0 90 36 66
        E 73 80 36 00
        <X 54 0
          /wVtdXMt
        >
        E 0 90 33 66
        E 137 80 33 00
        <X 105 0
          /wV0aXMt
        >
        E 0 90 31 66
        E 129 80 31 00
        <X 70 0
          /wVzYWFu
        >
        E 0 90 31 66
        E 184 80 31 00
        <X 54 0
          /wUr
        >
        E 0 90 33 66
        E 264 80 33 00
        <X 55 0
          /wUr
        >
        E 0 90 32 66
        E 331 80 32 00
        E 175 80 69 00
        E 180 90 69 66
        <X 171 0
          /wVKYQ==
        >
        E 0 90 34 66
        E 55 80 34 00
        <X 54 0
          /wVwYXAt
        >
        E 0 90 34 66
        E 51 80 34 00
        <X 108 0
          /wVwaS0=
        >
        E 0 90 34 66
        E 42 80 34 00
        <X 50 0
          /wVraW4=
        >
        E 0 90 34 66
        E 39 80 34 00
        <X 52 0
          /wVzYWk=
        >
        E 0 90 33 66
        E 111 80 33 00
        <X 40 0
          /wVrYWgt
        >
        E 0 90 31 66
        E 174 80 31 00
        <X 75 0
          /wV2aWE=
        >
        E 0 90 31 66
        E 199 80 31 00
        <X 52 0
          /wVqdW8t
        >
        E 0 90 31 66
        E 192 80 31 00
        <X 27 0
          /wVkYWst
        >
        E 0 90 31 66
        E 89 80 31 00
        <X 90 0
          /wVzZWVu
        >
        E 0 90 2f 66
        E 338 80 2f 00
        <X 248 0
          /wUr
        >
        E 0 90 33 66
        E 318 80 33 00
        <X 340 0
          /wUr
        >
        E 0 90 2f 66
        E 492 80 2f 00
        E 193 80 69 00
        E 240 90 69 66
        E 0 90 74 66
        <X 177 0
          /wVKYQ==
        >
        E 0 90 38 66
        E 98 80 38 00
        <X 42 0
          /wVpLQ==
        >
        E 0 90 38 66
        E 40 80 38 00
        <X 36 0
          /wVzw6Q=
        >
        E 0 90 38 66
        E 149 80 38 00
        <X 25 0
          /wVvLQ==
        >
        E 0 90 38 66
        E 59 80 38 00
        <X 40 0
          /wVsaQ==
        >
        E 0 90 38 66
        E 84 80 38 00
        <X 45 0
          /wVrw6RuLQ==
        >
        E 0 90 36 66
        E 188 80 36 00
        <X 68 0
          /wVuaXMt
        >
        E 0 90 36 66
        E 127 80 36 00
        <X 65 0
          /wVzw6Q=
        >
        E 0 90 36 66
        E 114 80 36 00
        <X 72 0
          /wVrdWluLQ==
        >
        E 0 90 36 66
        E 171 80 36 00
        <X 32 0
          /wVrYXM=
        >
        E 0 90 33 66
        E 89 80 33 00
        <X 67 0
          /wVtdXUt
        >
        E 0 90 31 66
        E 32 80 31 00
        <X 32 0
          /wUr
        >
        E 0 90 33 66
        E 104 80 33 00
        <X 39 0
          /wV0ZW4t
        >
        E 0 90 36 66
        E 105 80 36 00
        <X 48 0
          /wVrYWFu
        >
        E 0 90 31 66
        E 146 80 31 00
        <X 36 0
          /wUr
        >
        E 0 90 33 66
        E 607 80 33 00
        E 183 80 69 00
        E 0 80 74 00
        E 540 90 69 66
        <X 239 0
          /wVKby0=
        >
        E 0 90 34 66
        E 70 80 34 00
        <X 62 0
          /wVrdQ==
        >
        E 0 90 34 66
        E 62 80 34 00
        <X 37 0
          /wVrYW4t
        >
        E 0 90 34 66
        E 218 80 34 00
        <X 39 0
          /wV0b2k=
        >
        E 0 90 33 66
        E 187 80 33 00
        <X 62 0
          /wVrdWst
        >
        E 0 90 33 66
        E 77 80 33 00
        <X 167 0
          /wVraS0=
        >
        E 0 90 31 66
        E 84 80 31 00
        <X 19 0
          /wVh
        >
        E 0 90 31 66
        E 89 80 31 00
        <X 51 0
          /wVlLQ==
        >
        E 0 90 31 66
        E 67 80 31 00
        <X 57 0
          /wV0ZWkt
        >
        E 0 90 2f 66
        E 194 80 2f 00
        <X 54 0
          /wVzZWVu
        >
        E 0 90 31 66
        E 616 80 31 00
        <X 340 0
          /wUr
        >
        E 0 90 2a 66
        E 814 80 2a 00
        E 235 80 69 00
        E 300 90 69 66
        E 2760 80 69 00
        E 1020 90 69 66
        E 3360 80 69 00
        E 540 90 69 66
        E 0 90 74 66
        E 2760 80 69 00
        E 0 80 74 00
        E 1080 90 69 66
        E 2640 80 69 00
        E 1140 90 69 66
        E 2760 80 69 00
        E 1140 90 69 66
        E 3240 80 69 00
        E 480 90 69 66
        E 0 90 74 66
        E 2760 80 69 00
        E 0 80 74 00
        E 1140 90 69 66
        E 2520 80 69 00
        E 1260 90 69 66
        <X 188 0
          /wVKYQ==
        >
        E 0 90 2f 66
        E 81 80 2f 00
        <X 53 0
          /wVpLQ==
        >
        E 0 90 38 66
        E 61 80 38 00
        <X 44 0
          /wVzw6Q=
        >
        E 0 90 38 66
        E 110 80 38 00
        <X 33 0
          /wVtZS0=
        >
        E 0 90 38 66
        E 58 80 38 00
        <X 50 0
          /wVuaQ==
        >
        E 0 90 36 66
        E 88 80 36 00
        <X 50 0
          /wVSdW90LQ==
        >
        E 0 90 36 66
        E 150 80 36 00
        <X 78 0
          /wVzaWlu
        >
        E 0 90 36 66
        E 332 80 36 00
        E 19 80 69 00
        E 30 90 69 66
        <X 16 0
          /wXDhGkt
        >
        E 0 90 33 66
        E 199 80 33 00
        <X 45 0
          /wV0aQ==
        >
        E 0 90 31 66
        E 70 80 31 00
        <X 33 0
          /wVsZW4t
        >
        E 0 90 33 66
        E 198 80 33 00
        <X 48 0
          /wVzaQ==
        >
        E 0 90 36 66
        E 73 80 36 00
        <X 54 0
          /wV0YWkt
        >
        E 0 90 33 66
        E 298 80 33 00
        <X 49 0
          /wV2YWEt
        >
        E 0 90 31 66
        E 159 80 31 00
        <X 41 0
          /wVzZWVu
        >
        E 0 90 33 66
        E 916 80 33 00
        E 156 80 69 00
        E 120 90 69 66
        E 0 90 74 66
        <X 141 0
          /wVKYQ==
        >
        E 0 90 34 66
        E 67 80 34 00
        <X 56 0
          /wVwYXAt
        >
        E 0 90 34 66
        E 61 80 34 00
        <X 85 0
          /wVwaQ==
        >
        E 0 90 34 66
        E 42 80 34 00
        <X 43 0
          /wVzYWk=
        >
        E 0 90 34 66
        E 89 80 34 00
        <X 41 0
          /wV0YWFz
        >
        E 0 90 33 66
        E 93 80 33 00
        <X 54 0
          /wVrYWgt
        >
        E 0 90 31 66
        E 157 80 31 00
        <X 59 0
          /wV2aS0=
        >
        E 0 90 31 66
        E 93 80 31 00
        <X 23 0
          /wVh
        >
        E 0 90 31 66
        E 100 80 31 00
        <X 37 0
          /wVqdW8t
        >
        E 0 90 31 66
        E 199 80 31 00
        <X 25 0
          /wVkYWst
        >
        E 0 90 2f 66
        E 57 80 2f 00
        <X 116 0
          /wVzZWVu
        >
        E 0 90 33 66
        E 587 80 33 00
        <X 59 0
          /wUr
        >
        E 0 90 31 66
        E 225 80 31 00
        <X 116 0
          /wUr
        >
        E 0 90 2f 66
        E 718 80 2f 00
        E 137 80 69 00
        E 0 80 74 00
        E 300 90 69 66
        <X 182 0
          /wVKYQ==
        >
        E 0 90 38 66
        E 98 80 38 00
        <X 42 0
          /wV2ZS0=
        >
        E 0 90 38 66
        E 80 80 38 00
        <X 69 0
          /wVsaQ==
        >
        E 0 90 38 66
        E 76 80 38 00
        <X 25 0
          /wVvLQ==
        >
        E 0 90 38 66
        E 77 80 38 00
        <X 44 0
          /wVsaQ==
        >
        E 0 90 36 66
        E 62 80 36 00
        <X 45 0
          /wVrw6RuLQ==
        >
        E 0 90 36 66
        E 221 80 36 00
        <X 35 0
          /wVuaXMt
        >
        E 0 90 36 66
        E 112 80 36 00
        <X 27 0
          /wVzw6Q=
        >
        E 0 90 36 66
        E 114 80 36 00
        E 41 80 69 00
        E 30 90 69 66
        <X 43 0
          /wVOw6Rpbg==
        >
        E 0 90 33 66
        E 171 80 33 00
        <X 38 0
          /wVzZW4=
        >
        E 0 90 31 66
        E 94 80 31 00
        <X 37 0
          /wVpdC0=
        >
        E 0 90 33 66
        E 82 80 33 00
        <X 127 0
          /wVrZS0=
        >
        E 0 90 36 66
        E 98 80 36 00
        <X 29 0
          /wVuZWVu
        >
        E 0 90 31 66
        E 146 80 31 00
        <X 39 0
          /wUr
        >
        E 0 90 33 66
        E 630 80 33 00
        E 86 80 69 00
        E 900 90 69 66
        <X 217 0
          /wVMdS0=
        >
        E 0 90 34 66
        E 133 80 34 00
        <X 25 0
          /wVtaQ==
        >
        E 0 90 34 66
        E 87 80 34 00
        <X 35 0
          /wV0ZS0=
        >
        E 0 90 34 66
        E 75 80 34 00
        <X 43 0
          /wVraQ==
        >
        E 0 90 33 66
        E 93 80 33 00
        <X 45 0
          /wVlbi0=
        >
        E 0 90 33 66
        E 209 80 33 00
        <X 36 0
          /wVrZS0=
        >
        E 0 90 31 66
        E 84 80 31 00
        <X 34 0
          /wVsaW4=
        >
        E 0 90 31 66
        E 73 80 31 00
        <X 44 0
          /wVlLQ==
        >
        E 0 90 31 66
        E 74 80 31 00
        <X 62 0
          /wV0ZWkt
        >
        E 0 90 2f 66
        E 197 80 2f 00
        <X 59 0
          /wVzZWVu
        >
        E 0 90 31 66
        E 668 80 31 00
        <X 454 0
          /wUr
        >
        E 0 90 2a 66
        E 818 80 2a 00
        E 215 80 69 00
        E 180 90 69 66
        E 0 90 74 66
        E 7440 80 69 00
        E 0 80 74 00
        E 240 90 69 66
        E 7020 80 69 00
        E 540 90 69 66
        <X 138 0
          /wVKYQ==
        >
        E 0 90 2f 66
        E 81 80 2f 00
        <X 48 0
          /wVpLQ==
        >
        E 0 90 38 66
        E 66 80 38 00
        <X 36 0
          /wVzw6Q=
        >
        E 0 90 38 66
        E 118 80 38 00
        <X 33 0
          /wVtZS0=
        >
        E 0 90 38 66
        E 61 80 38 00
        <X 46 0
          /wVuaQ==
        >
        E 0 90 36 66
        E 89 80 36 00
        <X 38 0
          /wVSdW90LQ==
        >
        E 0 90 36 66
        E 162 80 36 00
        <X 77 0
          /wVzaWlu
        >
        E 0 90 36 66
        E 313 80 36 00
        E 14 80 69 00
        E 30 90 69 66
        <X 20 0
          /wXDhGkt
        >
        E 0 90 33 66
        E 200 80 33 00
        <X 38 0
          /wV0aQ==
        >
        E 0 90 31 66
        E 77 80 31 00
        <X 29 0
          /wVsZW4t
        >
        E 0 90 33 66
        E 189 80 33 00
        <X 23 0
          /wVzaQ==
        >
        E 0 90 36 66
        E 78 80 36 00
        <X 57 0
          /wV0YWkt
        >
        E 0 90 33 66
        E 319 80 33 00
        <X 37 0
          /wV2YWEt
        >
        E 0 90 31 66
        E 165 80 31 00
        <X 46 0
          /wVzZWVu
        >
        E 0 90 33 66
        E 1000 80 33 00
        E 92 80 69 00
        E 180 90 69 66
        E 0 90 74 66
        <X 54 0
          /wVKYQ==
        >
        E 0 90 34 66
        E 66 80 34 00
        <X 56 0
          /wVwYXAt
        >
        E 0 90 34 66
        E 61 80 34 00
        <X 104 0
          /wVwaQ==
        >
        E 0 90 34 66
        E 42 80 34 00
        <X 31 0
          /wVzYWk=
        >
        E 0 90 34 66
        E 100 80 34 00
        <X 36 0
          /wV0YWFz
        >
        E 0 90 33 66
        E 99 80 33 00
        <X 53 0
          /wVrYWgt
        >
        E 0 90 31 66
        E 151 80 31 00
        <X 59 0
          /wV2aS0=
        >
        E 0 90 31 66
        E 78 80 31 00
        <X 21 0
          /wVh
        >
        E 0 90 31 66
        E 107 80 31 00
        <X 37 0
          /wVqdW8t
        >
        E 0 90 31 66
        E 200 80 31 00
        <X 33 0
          /wVkYWst
        >
        E 0 90 2f 66
        E 72 80 2f 00
        <X 102 0
          /wVzZWVu
        >
        E 0 90 33 66
        E 594 80 33 00
        <X 58 0
          /wUr
        >
        E 0 90 31 66
        E 225 80 31 00
        <X 117 0
          /wUr
        >
        E 0 90 2f 66
        E 774 80 2f 00
        E 150 80 69 00
        E 0 80 74 00
        E 300 90 69 66
        <X 141 0
          /wVKYQ==
        >
        E 0 90 38 66
        E 89 80 38 00
        <X 42 0
          /wV2ZS0=
        >
        E 0 90 38 66
        E 79 80 38 00
        <X 59 0
          /wVsaQ==
        >
        E 0 90 38 66
        E 87 80 38 00
        <X 19 0
          /wVvLQ==
        >
        E 0 90 38 66
        E 82 80 38 00
        <X 44 0
          /wVsaQ==
        >
        E 0 90 36 66
        E 68 80 36 00
        <X 49 0
          /wVrw6RuLQ==
        >
        E 0 90 36 66
        E 211 80 36 00
        <X 36 0
          /wVuaXMt
        >
        E 0 90 36 66
        E 111 80 36 00
        <X 28 0
          /wVzw6Q=
        >
        E 0 90 36 66
        E 114 80 36 00
        E 46 80 69 00
        E 30 90 69 66
        <X 37 0
          /wVOw6Rpbg==
        >
        E 0 90 33 66
        E 171 80 33 00
        <X 39 0
          /wVzZW4=
        >
        E 0 90 31 66
        E 94 80 31 00
        <X 50 0
          /wVpdC0=
        >
        E 0 90 33 66
        E 76 80 33 00
        <X 144 0
          /wVrZS0=
        >
        E 0 90 36 66
        E 98 80 36 00
        <X 57 0
          /wVuZWVu
        >
        E 0 90 31 66
        E 145 80 31 00
        <X 40 0
          /wUr
        >
        E 0 90 33 66
        E 944 80 33 00
        E 70 80 69 00
        E 600 90 69 66
        <X 130 0
          /wVMdS0=
        >
        E 0 90 34 66
        E 163 80 34 00
        <X 24 0
          /wVtaQ==
        >
        E 0 90 34 66
        E 83 80 34 00
        <X 20 0
          /wV0ZS0=
        >
        E 0 90 34 66
        E 84 80 34 00
        <X 46 0
          /wVraQ==
        >
        E 0 90 33 66
        E 92 80 33 00
        <X 51 0
          /wVlbi0=
        >
        E 0 90 33 66
        E 209 80 33 00
        <X 32 0
          /wVrZS0=
        >
        E 0 90 31 66
        E 73 80 31 00
        <X 23 0
          /wVsaW4=
        >
        E 0 90 31 66
        E 79 80 31 00
        <X 48 0
          /wVlLQ==
        >
        E 0 90 31 66
        E 80 80 31 00
        <X 56 0
          /wV0ZWkt
        >
        E 0 90 2f 66
        E 204 80 2f 00
        <X 58 0
          /wVzZWVu
        >
        E 0 90 31 66
        E 687 80 31 00
        <X 454 0
          /wUr
        >
        E 0 90 2a 66
        E 849 80 2a 00
        E 175 80 69 00
        E 180 90 69 66
        E 10680 80 69 00
        E 40801 b0 7b 00
        GUID {F1082209-E2A8-4526-8AA6-2FE8F2DEB335}
        IGNTEMPO 0 120.00000000 4 4
        SRCCOLOR 1184
        VELLANE 132 128 60
        COLORMAP "C:\Users\me\AppData\Roaming\REAPER\Data\color_maps\rockband_vox-other.png"
        TEXTSTRINGFILE "C:\Program Files\REAPER\Data\Text_Strings\Text Events List.txt"
        CFGEDITVIEW -8173.988946 23.012020 22 12 0 0 0
        CFGEDIT 1 1 0 1 1 1 1 1 1 1 1 0.06250000 -8 -8 1374 736 1 2 1 2 0.00000000 0 0 0 0 0.500000 1 0 1.000000 64
        KEYSNAP 0 0 "102034050607" 0 "Major"
        EVTFILTER 0 -1 -1 -1 -1 0 1 0 0 -1.00000000 -1.00000000
      >
    >
  >
  <TRACK '{AB3E8FDC-23A9-4945-BA6C-055C630028D0}'
    NAME "DRYVOX3"
    PEAKCOL 16576
    BEAT -1
    AUTOMODE 0
    VOLPAN 1.00000000000000 0.00000000000000 -1.00000000000000 -1.00000000000000 1.00000000000000
    MUTESOLO 1 0 0
    IPHASE 0
    ISBUS 0 0
    BUSCOMP 0 0
    SHOWINMIX 1 0.666700 0.500000 1 0.500000 -1 -1 -1
    FREEMODE 0
    SEL 0
    REC 0 0 0 0 0 0 0
    TRACKHEIGHT 24 0
    INQ 0 0 0 0.5000000000 100 0 0 100
    NCHAN 2
    FX 1
    TRACKID {AB3E8FDC-23A9-4945-BA6C-055C630028D0}
    PERF 0
    MIDIOUT -1
    MAINSEND 1 0
    <FXCHAIN
      SHOW 0
      LASTSEL 0
      DOCKED 0
      BYPASS 0 0
      <VST "VST: ReaGate (Cockos)" "reagate.dll" 0 ""
        dGdlcu9e7f4EAAAAAQAAAAAAAAACAAAAAAAAAAQAAAAAAAAACAAAAA==
        AAAAAAIAAAABAAAAAAAAAAIAAAAAAAAAVAAAAAAAAAAAABAA776t3g==
        DfCt3pzRBzOmm8Q7CtejPAAAAAAAAAAAAACAPwAAAAAAAAAAAAAAAA==
        nNEHMx5Ucz+c0QczAACAPwAAAAAAAAAAAAAAACwWCz8AAAAAAAAAAA==
        AAAQAAAA
      >
      FLOATPOS 859 184 511 385
      FXID {BF545B5B-7DD0-4B4C-AC52-F095A552DA08}
      WAK 0
    >
  >
  <TRACK '{14F64FB7-FE44-4E53-9F58-44F4178BCEF9}'
    NAME "PART KEYS"
    PEAKCOL 16842496
    BEAT -1
    AUTOMODE 0
    VOLPAN 1.00000000000000 0.00000000000000 -1.00000000000000 -1.00000000000000 1.00000000000000
    MUTESOLO 1 0 0
    IPHASE 0
    ISBUS 1 1
    BUSCOMP 0 0
    SHOWINMIX 1 0.666700 0.500000 1 0.500000 -1 -1 -1
    FREEMODE 0
    SEL 0
    REC 0 0 0 0 0 0 0
    TRACKHEIGHT 89 0
    INQ 0 0 0 0.5000000000 100 0 0 100
    NCHAN 2
    FX 1
    TRACKID {14F64FB7-FE44-4E53-9F58-44F4178BCEF9}
    PERF 0
    MIDIOUT -1
    <MIDINOTENAMES
      0 124 "BRE"
      0 123 "BRE"
      0 122 "BRE"
      0 121 "BRE"
      0 120 "BRE (use all 5)"
      0 116 "OVERDRIVE"
      0 119 "----"
      0 115 "----"
      0 103 "Solo Marker"
      0 95 "----"
      0 96 "EXPERT Green"
      0 97 "EXPERT Red"
      0 98 "EXPERT Yellow"
      0 99 "EXPERT Blue"
      0 100 "EXPERT Orange"
      0 102 "Force HoPo off"
      0 83 "----"
      0 84 "HARD Green"
      0 85 "HARD Red"
      0 86 "HARD Yellow"
      0 87 "HARD Blue"
      0 88 "HARD Orange"
      0 72 "MEDIUM Green"
      0 73 "MEDIUM Red"
      0 74 "MEDIUM Yellow"
      0 75 "MEDIUM Blue"
      0 76 "MEDIUM Orange"
      0 71 "----"
      0 64 "EASY Orange"
      0 63 "EASY Blue"
      0 62 "EASY Yellow"
      0 61 "EASY Red"
      0 60 "EASY Green"
      0 127 "Trill Marker"
      0 126 "----"
      0 101 "Force HoPo on"
    >
    MAINSEND 1 0
    <FXCHAIN
      WNDRECT -1060 1118 878 585
      SHOW 0
      LASTSEL 0
      DOCKED 0
      BYPASS 0 0
      <VST "VSTi: RBN Preview (RBN)" "rbprev_vst64_beta.dll" 0 ""
        dnBicu5e7f4AAAAAAgAAAAEAAAAAAAAAAgAAAAAAAAAEAAAAAQAAAA==
        AAAAAAMAqgAAAAAAAAA=
      >
      FLOATPOS 0 0 0 0
      FXID {EE0C80EE-5E5F-4EA2-B367-78AAAB3793F5}
      WAK 0
    >
    <ITEM
      POSITION 0.00000000000000
      SNAPOFFS 0.00000000000000
      LENGTH 262.84614954630189
      LOOP 0
      ALLTAKES 0
      SEL 0
      FADEIN 1 0.000000 0.000000 1 0
      FADEOUT 1 0.000000 0.000000 1 0
      MUTE 0
      IGUID {52D9F6AC-16AD-4CE9-95E4-6AD6396BB4E2}
      IID 14
      NAME "PART KEYS"
      VOLPAN 1.000000 0.000000 1.000000 -1.000000
      SOFFS 0.00000000000000 0.00000000000000
      PLAYRATE 1.00000000000000 1 0.00000000000000 -65536
      CHANMODE 0
      GUID {78E1CCBD-C30B-4DD8-81CD-2AEB0D2D38C8}
      <SOURCE MIDI
        HASDATA 1 480 QN
        POOLEDEVTS {6870FE44-AFC7-431C-A5A1-E9102E40051C}
        <X 0 0
          /wNQQVJUIEtFWVM=
        >
        <X 1920 0
          /wFbbWVsbG93XQ==
        >
        e 0 90 63 60
        e 60 80 63 00
        e 60 90 62 60
        e 60 80 62 00
        e 60 90 61 60
        e 60 80 61 00
        e 60 90 60 60
        e 60 80 60 00
        e 60 90 63 60
        e 60 80 63 00
        e 60 90 60 60
        e 60 80 60 00
        e 60 90 61 60
        e 60 80 61 00
        e 60 90 62 60
        e 60 80 62 00
        e 60 90 61 60
        e 60 80 61 00
        e 60 90 60 60
        e 60 80 60 00
        e 60 90 63 60
        e 660 80 63 00
        E 60 90 40 7f
        E 0 90 4c 7f
        E 0 90 58 7f
        e 0 90 63 60
        E 60 80 40 00
        E 0 80 4c 00
        E 0 80 58 00
        e 0 80 63 00
        E 30 90 3f 7f
        E 0 90 4b 7f
        E 0 90 57 7f
        e 30 90 62 60
        E 30 80 3f 00
        E 0 80 4b 00
        E 0 80 57 00
        E 30 90 3e 7f
        E 0 90 4a 7f
        E 0 90 56 7f
        e 0 80 62 00
        E 60 80 3e 00
        E 0 80 4a 00
        E 0 80 56 00
        e 0 90 61 60
        E 30 90 3d 7f
        E 0 90 49 7f
        E 0 90 55 7f
        e 30 80 61 00
        E 30 80 3d 00
        E 0 80 49 00
        E 0 80 55 00
        E 30 90 3c 7f
        E 0 90 48 7f
        E 0 90 54 7f
        e 0 90 60 60
        E 60 80 3c 00
        E 0 80 48 00
        E 0 80 54 00
        e 0 80 60 00
        e 60 90 63 60
        e 60 80 63 00
        e 60 90 60 60
        e 60 80 60 00
        e 60 90 61 60
        e 60 80 61 00
        e 60 90 62 60
        e 60 80 62 00
        e 60 90 61 60
        e 60 80 61 00
        e 60 90 60 60
        e 60 80 60 00
        e 60 90 63 60
        e 660 80 63 00
        E 60 90 63 60
        E 60 80 63 00
        E 60 90 62 60
        E 60 80 62 00
        E 60 90 61 60
        E 60 80 61 00
        E 60 90 60 60
        E 60 80 60 00
        E 60 90 63 60
        E 60 80 63 00
        E 60 90 60 60
        E 60 80 60 00
        E 60 90 61 60
        E 60 80 61 00
        E 60 90 62 60
        E 60 80 62 00
        E 60 90 61 60
        E 60 80 61 00
        E 60 90 60 60
        E 60 80 60 00
        E 60 90 63 60
        E 60 80 63 00
        E 180 90 63 60
        E 60 80 63 00
        E 60 90 62 60
        E 60 80 62 00
        E 60 90 61 60
        E 60 80 61 00
        E 180 90 60 60
        E 60 80 60 00
        E 420 90 61 60
        E 60 80 61 00
        E 420 90 61 60
        E 840 80 61 00
        E 4200 90 60 60
        E 60 80 60 00
        E 180 90 60 60
        E 60 80 60 00
        E 60 90 61 60
        E 60 80 61 00
        E 60 90 62 60
        E 60 80 62 00
        E 60 90 62 60
        E 0 90 63 60
        E 60 80 62 00
        E 0 80 63 00
        E 180 90 62 60
        E 60 80 62 00
        E 120 90 63 60
        E 60 80 63 00
        E 120 90 64 60
        E 60 80 64 00
        E 180 90 60 60
        E 60 80 60 00
        E 180 90 63 60
        E 60 80 63 00
        E 60 90 62 60
        E 60 80 62 00
        E 60 90 61 60
        E 60 80 61 00
        E 60 90 60 60
        E 60 80 60 00
        E 3900 90 62 60
        E 540 80 62 00
        E 180 90 62 60
        E 60 80 62 00
        E 60 90 63 60
        E 60 80 63 00
        E 240 90 63 60
        E 60 80 63 00
        E 180 90 62 60
        E 60 80 62 00
        E 240 90 62 60
        E 59 80 62 00
        E 60 90 63 60
        E 61 80 63 00
        E 60 90 61 60
        E 60 80 61 00
        E 60 90 62 60
        E 60 80 62 00
        E 60 90 63 60
        E 60 80 63 00
        E 60 90 62 60
        E 60 80 62 00
        E 240 90 61 60
        E 60 80 61 00
        E 120 90 62 60
        E 60 80 62 00
        E 180 90 63 60
        E 60 80 63 00
        E 180 90 61 60
        E 0 90 62 60
        E 0 90 64 60
        E 60 80 61 00
        E 0 80 62 00
        E 0 80 64 00
        E 300 90 61 60
        E 0 90 62 60
        E 0 90 64 60
        E 61 80 61 00
        E 0 80 62 00
        E 0 80 64 00
        E 179 90 61 60
        E 0 90 62 60
        E 0 90 64 60
        E 61 80 61 00
        E 0 80 62 00
        E 0 80 64 00
        E 59 90 63 60
        E 60 80 63 00
        E 60 90 63 60
        E 60 80 63 00
        E 60 90 62 60
        E 60 80 62 00
        E 60 90 62 60
        E 60 80 62 00
        E 60 90 61 60
        E 60 80 61 00
        E 60 90 61 60
        E 60 80 61 00
        E 60 90 60 60
        E 60 80 60 00
        E 60 90 60 60
        E 60 80 60 00
        E 120 90 60 60
        E 60 80 60 00
        E 120 90 60 60
        E 300 80 60 00
        E 60 90 60 60
        E 60 80 60 00
        E 180 90 60 60
        E 60 80 60 00
        E 59 90 61 60
        E 61 80 61 00
        E 60 90 62 60
        E 60 80 62 00
        E 60 90 62 60
        E 0 90 63 60
        E 59 80 62 00
        E 0 80 63 00
        E 181 90 62 60
        E 60 80 62 00
        E 120 90 63 60
        E 60 80 63 00
        E 120 90 64 60
        E 60 80 64 00
        E 179 90 60 60
        E 61 80 60 00
        E 180 90 63 60
        E 60 80 63 00
        E 60 90 62 60
        E 60 80 62 00
        E 60 90 61 60
        E 60 80 61 00
        E 60 90 60 60
        E 60 80 60 00
        <X 480 0
          /wFbaWRsZV9yZWFsdGltZV0=
        >
        E 152701 b0 7b 00
        GUID {F537F270-CEBA-461E-8612-DC28913708FC}
        IGNTEMPO 0 120.00000000 4 4
        SRCCOLOR 1185
        VELLANE 132 128 60
        COLORMAP "C:\Users\wejaa\AppData\Roaming\REAPER\Data\color_maps\rockband_vox-other.png"
        TEXTSTRINGFILE "C:\Program Files\REAPER\Data\Text_Strings\Text Events List.txt"
        CFGEDITVIEW -213.312162 128.262729 4 12 0 0 0
        CFGEDIT 1 1 0 0 0 1 1 1 1 1 1 0.12500000 -8 -8 1370 736 1 0 1 2 0.00000000 0 0 0 0 0.500000 1 0 1.000000 64
        KEYSNAP 0 0 "102034050607" 0 "Major"
        EVTFILTER 0 -1 -1 -1 -1 0 1 0 0 -1.00000000 -1.00000000
      >
    >
  >
  <TRACK '{D39F8BD7-8730-4182-94EC-51AF9F9ACC90}'
    NAME "PART REAL_KEYS_X"
    PEAKCOL 25231232
    BEAT -1
    AUTOMODE 0
    VOLPAN 0.91201629958245 0.00000000000000 -1.00000000000000 -1.00000000000000 1.00000000000000
    MUTESOLO 1 0 0
    IPHASE 0
    ISBUS 0 0
    BUSCOMP 1 0
    SHOWINMIX 1 0.666700 0.500000 1 0.500000 -1 -1 -1
    FREEMODE 0
    SEL 0
    REC 0 0 0 0 0 0 0
    TRACKHEIGHT 0 0
    INQ 0 0 0 0.5000000000 100 0 0 100
    NCHAN 2
    FX 1
    TRACKID {D39F8BD7-8730-4182-94EC-51AF9F9ACC90}
    PERF 0
    MIDIOUT -1
    <MIDINOTENAMES
      0 0 "C2-E3 Range"
      0 5 "F2-A3 Range"
      0 9 "A2-C4 Range"
      0 48 "C2 (Lowest Note)"
      0 72 "C4 (Highest Note)"
      0 115 "Solo Marker"
      0 126 "Glissando Marker"
      0 116 "Overdrive Marker"
      0 127 "Trill Marker"
      0 125 "----"
      0 114 "----"
      0 47 "----"
      0 49 "C#2"
      0 50 "D2"
      0 51 "Eb2"
      0 52 "E2"
      0 53 "F2"
      0 54 "F#2"
      0 55 "G2"
      0 56 "G#2"
      0 57 "A2"
      0 58 "Bb2"
      0 59 "B2"
      0 60 "C3"
      0 61 "C#3"
      0 62 "D3"
      0 63 "Eb3"
      0 64 "E3"
      0 65 "F3"
      0 66 "F#3"
      0 67 "G3"
      0 68 "G#3"
      0 69 "A3"
      0 70 "Bb3"
      0 71 "B3"
      0 2 "D2-F3 Range"
      0 4 "E2-G3 Range"
      0 7 "G2-B3 Range"
    >
    MAINSEND 1 0
    <FXCHAIN
      WNDRECT 0 40 655 493
      SHOW 0
      LASTSEL 1
      DOCKED 0
      BYPASS 0 0
      <JS "IX/MIDI_Tool II" ""
        0.000000 85.000000 127.000000 0.000000 0.000000 0.000000 100.000000 0.000000 0.000000 127.000000 0.000000 0.000000 1.000000 0.000000 0.000000 - - - - - - - - - - - - - - - - - - - - - - - - - - - - - - - - - - - - - - - - - - - - - - - - - 
      >
      FLOATPOS 0 0 0 0
      FXID {A891DAA7-5D8A-4720-AA8F-E43D2ABA2AE5}
      WAK 0
      BYPASS 0 0
      <VST "VSTi: ReaSynth (Cockos)" "reasynth.dll" 0 ""
        eXNlcu9e7f4AAAAAAgAAAAEAAAAAAAAAAgAAAAAAAAA4AAAAAAAAAA==
        AAAAAO++rd4N8K3eppvEOxe30TqcxKA+c2jRPgAAAADMm4A+6WeIPQ==
        AAAAAAAAAD8AAIA/6SaxPgAAAD8AAAAAAAA=
      >
      FLOATPOS 0 0 0 0
      FXID {A0CE5851-0C70-49E2-AD61-BC7B1C50A030}
      WAK 0
    >
    <ITEM
      POSITION 0.00000000000000
      SNAPOFFS 0.00000000000000
      LENGTH 262.84614954630189
      LOOP 0
      ALLTAKES 0
      SEL 0
      FADEIN 1 0.000000 0.000000 1 0
      FADEOUT 1 0.000000 0.000000 1 0
      MUTE 0
      IGUID {974100C2-06C4-4CB5-BD67-2F1BC71A1259}
      IID 15
      NAME "PART REAL_KEYS_X"
      VOLPAN 1.000000 0.000000 1.000000 -1.000000
      SOFFS 0.00000000000000 0.00000000000000
      PLAYRATE 1.00000000000000 1 0.00000000000000 -65536
      CHANMODE 0
      GUID {08703F3F-9741-46EB-9ED4-B09B2390F876}
      <SOURCE MIDI
        HASDATA 1 480 QN
        POOLEDEVTS {6548262D-2575-4BDD-A82B-D34CAE24AAC0}
        <X 0 0
          /wNQQVJUIFJFQUxfS0VZU19Y
        >
        <X 3840 0
          /wFbcGxheV0=
        >
        E 176641 b0 7b 00
        GUID {0E0CBFB7-4AC8-4E67-A764-85891754BB41}
        IGNTEMPO 0 120.00000000 4 4
        SRCCOLOR 1186
        VELLANE 132 128 60
        COLORMAP "C:\Program Files\REAPER\Data\color_maps\rockband_guitarbass.png"
        TEXTSTRINGFILE "C:\Program Files\REAPER\Data\Text_Strings\Text Events List.txt"
        CFGEDITVIEW -4299.275963 82.395269 48 12 0 0 0
        CFGEDIT 1 1 0 1 1 1 1 1 1 1 1 0.12500000 -8 -8 1370 736 1 0 1 2 0.00000000 0 0 0 0 0.500000 1 0 1.000000 64
        KEYSNAP 0 0 "102034050607" 0 "Major"
        EVTFILTER 0 -1 -1 -1 -1 0 1 0 0 -1.00000000 -1.00000000
      >
    >
  >
  <TRACK '{117931B6-9EA5-432A-AEED-ACF4C8876354}'
    NAME "PART REAL _KEYS_H"
    PEAKCOL 25231232
    BEAT -1
    AUTOMODE 0
    VOLPAN 1.00000843600341 0.00000000000000 -1.00000000000000 -1.00000000000000 1.00000000000000
    MUTESOLO 1 0 0
    IPHASE 0
    ISBUS 0 0
    BUSCOMP 0 0
    SHOWINMIX 1 0.666700 0.500000 1 0.500000 -1 -1 -1
    FREEMODE 0
    SEL 0
    REC 0 0 0 0 0 0 0
    TRACKHEIGHT 0 0
    INQ 0 0 0 0.5000000000 100 0 0 100
    NCHAN 2
    FX 1
    TRACKID {117931B6-9EA5-432A-AEED-ACF4C8876354}
    PERF 0
    MIDIOUT -1
    <MIDINOTENAMES
      0 0 "C2-E3 Range"
      0 5 "F2-A3 Range"
      0 9 "A2-C4 Range"
      0 48 "C2 (Lowest Note)"
      0 72 "C4 (Highest Note)"
      0 115 "Solo Marker"
      0 126 "Glissando Marker"
      0 127 "Trill Marker"
      0 125 "----"
      0 116 "Overdrive Marker"
      0 114 "----"
      0 71 "B3"
      0 70 "Bb3"
      0 69 "A3"
      0 68 "G#3"
      0 67 "G3"
      0 66 "F#3"
      0 65 "F3"
      0 64 "E3"
      0 63 "Eb3"
      0 62 "D3"
      0 61 "C#3"
      0 60 "C3"
      0 59 "B2"
      0 58 "Bb2"
      0 57 "A2"
      0 56 "G#2"
      0 55 "G2"
      0 54 "F#2"
      0 53 "F2"
      0 52 "E2"
      0 51 "Eb2"
      0 50 "D2"
      0 49 "C#2"
      0 47 "----"
      0 7 "G2-B3 Range"
      0 4 "E2-G3 Range"
      0 2 "D2-F3 Range"
    >
    MAINSEND 1 0
    <FXCHAIN
      SHOW 0
      LASTSEL 0
      DOCKED 0
      BYPASS 0 0
      <JS "IX/MIDI_Tool II" ""
        0.000000 85.000000 127.000000 0.000000 0.000000 0.000000 100.000000 0.000000 0.000000 127.000000 0.000000 0.000000 1.000000 0.000000 0.000000 - - - - - - - - - - - - - - - - - - - - - - - - - - - - - - - - - - - - - - - - - - - - - - - - - 
      >
      FLOATPOS 0 0 0 0
      FXID {5BF1E178-D070-4445-A488-4CE4E31F6508}
      WAK 0
      BYPASS 0 0
      <VST "VSTi: ReaSynth (Cockos)" "reasynth.dll" 0 ""
        eXNlcu9e7f4AAAAAAgAAAAEAAAAAAAAAAgAAAAAAAAA4AAAAAAAAAA==
        AAAAAO++rd4N8K3eppvEOxe30TqcxKA+c2jRPgAAAADMm4A+6WeIPQ==
        AAAAAAAAAD8AAIA/6SaxPgAAAD8AAAAAAAA=
      >
      FLOATPOS 0 0 0 0
      FXID {C48567E0-8372-4900-9933-4B040EA2A253}
      WAK 0
    >
    <ITEM
      POSITION 0.00000000000000
      SNAPOFFS 0.00000000000000
      LENGTH 262.84614954630189
      LOOP 0
      ALLTAKES 0
      SEL 0
      FADEIN 1 0.000000 0.000000 1 0
      FADEOUT 1 0.000000 0.000000 1 0
      MUTE 0
      IGUID {DA514BF3-AF34-46C0-BD23-58406C871A44}
      IID 16
      NAME "PART REAL _KEYS_H"
      VOLPAN 1.000000 0.000000 1.000000 -1.000000
      SOFFS 0.00000000000000 0.00000000000000
      PLAYRATE 1.00000000000000 1 0.00000000000000 -65536
      CHANMODE 0
      GUID {8E0AC36B-D538-4BB8-A507-FFF40527D1BA}
      <SOURCE MIDI
        HASDATA 1 480 QN
        POOLEDEVTS {6E0AC596-BFC6-4E81-ACEA-3E6A003CB3F0}
        <X 0 0
          /wNQQVJUIFJFQUxfS0VZU19I
        >
        E 0 90 09 60
        E 480 80 09 00
        E 3360 90 39 60
        E 360 80 39 00
        E 176281 b0 7b 00
        GUID {53F487B1-1F2F-4D54-9DAE-BC2E7B032E3B}
        IGNTEMPO 0 120.00000000 4 4
        SRCCOLOR 1187
        VELLANE 132 128 60
        COLORMAP "C:\Program Files\REAPER\Data\color_maps\rockband_guitarbass.png"
        TEXTSTRINGFILE "C:\Program Files\REAPER\Data\Text_Strings\Text Events List.txt"
        CFGEDITVIEW -4299.275963 82.395269 5 14 0 0 0
        CFGEDIT 1 1 0 1 1 1 1 1 1 1 1 0.12500000 -8 -8 1374 736 1 2 1 2 0.00000000 0 0 0 0 0.500000 1 0 1.000000 64
        KEYSNAP 0 0 "102034050607" 0 "Major"
        EVTFILTER 0 -1 -1 -1 -1 0 1 0 0 -1.00000000 -1.00000000
      >
    >
  >
  <TRACK '{3B6F726E-1CAB-4A00-9B01-2E1CC375B13E}'
    NAME "PART REAL_KEYS_M"
    PEAKCOL 25231232
    BEAT -1
    AUTOMODE 0
    VOLPAN 1.00000000000000 0.00000000000000 -1.00000000000000 -1.00000000000000 1.00000000000000
    MUTESOLO 1 0 0
    IPHASE 0
    ISBUS 0 0
    BUSCOMP 0 0
    SHOWINMIX 1 0.666700 0.500000 1 0.500000 -1 -1 -1
    FREEMODE 0
    SEL 0
    REC 0 0 0 0 0 0 0
    TRACKHEIGHT 0 0
    INQ 0 0 0 0.5000000000 100 0 0 100
    NCHAN 2
    FX 1
    TRACKID {3B6F726E-1CAB-4A00-9B01-2E1CC375B13E}
    PERF 0
    MIDIOUT -1
    <MIDINOTENAMES
      0 0 "C2-E3 Range"
      0 5 "F2-A3 Range"
      0 9 "A2-C4 Range"
      0 48 "C2 (Lowest Note)"
      0 72 "C4 (Highest Note)"
      0 115 "Solo Marker"
      0 126 "Glissando Marker"
      0 127 "Trill Marker"
      0 125 "----"
      0 116 "Overdrive Marker"
      0 114 "----"
      0 71 "B3"
      0 70 "Bb3"
      0 69 "A3"
      0 68 "G#3"
      0 67 "G3"
      0 66 "F#3"
      0 65 "F3"
      0 64 "E3"
      0 63 "Eb3"
      0 62 "D3"
      0 61 "C#3"
      0 60 "C3"
      0 59 "B2"
      0 58 "Bb2"
      0 57 "A2"
      0 56 "G#2"
      0 55 "G2"
      0 54 "F#2"
      0 53 "F2"
      0 52 "E2"
      0 51 "Eb2"
      0 50 "D2"
      0 49 "C#2"
      0 47 "----"
      0 7 "G2-B3 Range"
      0 4 "E2-G3 Range"
      0 2 "D2-F3 Range"
    >
    MAINSEND 1 0
    <FXCHAIN
      SHOW 0
      LASTSEL 0
      DOCKED 0
      BYPASS 0 0
      <JS "IX/MIDI_Tool II" ""
        0.000000 85.000000 127.000000 0.000000 0.000000 0.000000 100.000000 0.000000 0.000000 127.000000 0.000000 0.000000 1.000000 0.000000 0.000000 - - - - - - - - - - - - - - - - - - - - - - - - - - - - - - - - - - - - - - - - - - - - - - - - - 
      >
      FLOATPOS 0 0 0 0
      FXID {096BA8B0-BFAB-4802-A0D3-DEA88A16B5B2}
      WAK 0
      BYPASS 0 0
      <VST "VSTi: ReaSynth (Cockos)" "reasynth.dll" 0 ""
        eXNlcu9e7f4AAAAAAgAAAAEAAAAAAAAAAgAAAAAAAAA4AAAAAAAAAA==
        AAAAAO++rd4N8K3eppvEOxe30TqcxKA+c2jRPgAAAADMm4A+6WeIPQ==
        AAAAAAAAAD8AAIA/6SaxPgAAAD8AAAAAAAA=
      >
      FLOATPOS 0 0 0 0
      FXID {A5115AF9-13EF-41D8-80FF-CB81A74D6CD4}
      WAK 0
    >
    <ITEM
      POSITION 0.00000000000000
      SNAPOFFS 0.00000000000000
      LENGTH 262.84614954630189
      LOOP 0
      ALLTAKES 0
      SEL 0
      FADEIN 1 0.000000 0.000000 1 0
      FADEOUT 1 0.000000 0.000000 1 0
      MUTE 0
      IGUID {6F5DF5D5-958D-4566-AA6E-AFD27D997F3F}
      IID 17
      NAME "PART REAL_KEYS_M"
      VOLPAN 1.000000 0.000000 1.000000 -1.000000
      SOFFS 0.00000000000000 0.00000000000000
      PLAYRATE 1.00000000000000 1 0.00000000000000 -65536
      CHANMODE 0
      GUID {14BC6779-E32B-455D-A61C-C2E68D8FE08C}
      <SOURCE MIDI
        HASDATA 1 480 QN
        POOLEDEVTS {23C7E582-753C-4AD0-85D7-C5FC2DCE1A73}
        <X 0 0
          /wNQQVJUIFJFQUxfS0VZU19N
        >
        e 0 90 09 60
        e 480 80 09 00
        e 3360 90 39 60
        e 360 80 39 00
        E 176281 b0 7b 00
        GUID {806139BE-556B-4882-A297-06705078FD7A}
        IGNTEMPO 0 120.00000000 4 4
        SRCCOLOR 1188
        VELLANE 132 128 60
        COLORMAP "C:\Program Files\REAPER\Data\color_maps\rockband_guitarbass.png"
        TEXTSTRINGFILE "C:\Program Files\REAPER\Data\Text_Strings\Text Events List.txt"
        CFGEDITVIEW -4299.275963 82.395269 0 17 0 0 0
        CFGEDIT 1 1 0 1 1 1 1 1 1 1 1 0.12500000 -8 -8 1374 736 1 2 1 2 0.00000000 0 0 0 0 0.500000 1 0 1.000000 64
        KEYSNAP 0 0 "102034050607" 0 "Major"
        EVTFILTER 0 -1 -1 -1 -1 0 1 0 0 -1.00000000 -1.00000000
      >
    >
  >
  <TRACK '{49B8D0E0-0069-415C-8FC3-AC29B0E2C3CF}'
    NAME "PART REAL_KEYS_E"
    PEAKCOL 25231232
    BEAT -1
    AUTOMODE 0
    VOLPAN 1.00000000000000 0.00000000000000 -1.00000000000000 -1.00000000000000 1.00000000000000
    MUTESOLO 1 0 0
    IPHASE 0
    ISBUS 0 0
    BUSCOMP 0 0
    SHOWINMIX 1 0.666700 0.500000 1 0.500000 -1 -1 -1
    FREEMODE 0
    SEL 0
    REC 0 0 0 0 0 0 0
    TRACKHEIGHT 0 0
    INQ 0 0 0 0.5000000000 100 0 0 100
    NCHAN 2
    FX 1
    TRACKID {49B8D0E0-0069-415C-8FC3-AC29B0E2C3CF}
    PERF 0
    MIDIOUT -1
    <MIDINOTENAMES
      0 0 "C2-E3 Range"
      0 5 "F2-A3 Range"
      0 9 "A2-C4 Range"
      0 48 "C2 (Lowest Note)"
      0 72 "C4 (Highest Note)"
      0 115 "Solo Marker"
      0 126 "Glissando Marker"
      0 127 "Trill Marker"
      0 125 "----"
      0 116 "Overdrive Marker"
      0 114 "----"
      0 71 "B3"
      0 70 "Bb3"
      0 69 "A3"
      0 68 "G#3"
      0 67 "G3"
      0 66 "F#3"
      0 65 "F3"
      0 64 "E3"
      0 63 "Eb3"
      0 62 "D3"
      0 61 "C#3"
      0 60 "C3"
      0 59 "B2"
      0 58 "Bb2"
      0 57 "A2"
      0 56 "G#2"
      0 55 "G2"
      0 54 "F#2"
      0 53 "F2"
      0 52 "E2"
      0 51 "Eb2"
      0 50 "D2"
      0 49 "C#2"
      0 47 "----"
      0 7 "G2-B3 Range"
      0 4 "E2-G3 Range"
      0 2 "D2-F3 Range"
    >
    MAINSEND 1 0
    <FXCHAIN
      SHOW 0
      LASTSEL 0
      DOCKED 0
      BYPASS 0 0
      <JS "IX/MIDI_Tool II" ""
        0.000000 85.000000 127.000000 0.000000 0.000000 0.000000 100.000000 0.000000 0.000000 127.000000 0.000000 0.000000 1.000000 0.000000 0.000000 - - - - - - - - - - - - - - - - - - - - - - - - - - - - - - - - - - - - - - - - - - - - - - - - - 
      >
      FLOATPOS 0 0 0 0
      FXID {71EF04AA-9A38-4C4E-8E04-9FB37BDA6361}
      WAK 0
      BYPASS 0 0
      <VST "VSTi: ReaSynth (Cockos)" "reasynth.dll" 0 ""
        eXNlcu9e7f4AAAAAAgAAAAEAAAAAAAAAAgAAAAAAAAA4AAAAAAAAAA==
        AAAAAO++rd4N8K3eppvEOxe30TqcxKA+c2jRPgAAAADMm4A+6WeIPQ==
        AAAAAAAAAD8AAIA/6SaxPgAAAD8AAAAAAAA=
      >
      FLOATPOS 0 0 0 0
      FXID {6C388847-2A2F-4264-AA7A-4C4ACA9A9672}
      WAK 0
    >
    <ITEM
      POSITION 0.00000000000000
      SNAPOFFS 0.00000000000000
      LENGTH 262.84614954630189
      LOOP 0
      ALLTAKES 0
      SEL 0
      FADEIN 1 0.000000 0.000000 1 0
      FADEOUT 1 0.000000 0.000000 1 0
      MUTE 0
      IGUID {656317AD-B690-4307-9096-C4F4536C131B}
      IID 18
      NAME "PART REAL_KEYS_E"
      VOLPAN 1.000000 0.000000 1.000000 -1.000000
      SOFFS 0.00000000000000 0.00000000000000
      PLAYRATE 1.00000000000000 1 0.00000000000000 -65536
      CHANMODE 0
      GUID {43BDFFBF-75D6-4727-BD3F-08B25C56980C}
      <SOURCE MIDI
        HASDATA 1 480 QN
        POOLEDEVTS {11D09AA4-38AF-4330-9BC4-B1D36682ABCE}
        <X 0 0
          /wNQQVJUIFJFQUxfS0VZU19F
        >
        E 0 90 09 60
        E 480 80 09 00
        E 180001 b0 7b 00
        GUID {F9363449-15E8-4EF0-8BC0-ABEB4CDC1D98}
        IGNTEMPO 0 120.00000000 4 4
        SRCCOLOR 1189
        VELLANE 132 128 60
        COLORMAP "C:\Program Files\REAPER\Data\color_maps\rockband_guitarbass.png"
        TEXTSTRINGFILE "C:\Program Files\REAPER\Data\Text_Strings\Text Events List.txt"
        CFGEDITVIEW 1257.930012 0.103438 51 12 0 0 0
        CFGEDIT 1 1 0 0 1 1 1 1 1 1 1 0.25000000 0 0 683 728 1 0 0 2 0.12500000 0 0 0 0 0.500000 0 0 1.000000 64
        KEYSNAP 0 0 "102034050607" 0 "Major"
        EVTFILTER 0 -1 -1 -1 -1 0 1 0 0 -1.00000000 -1.00000000
      >
    >
  >
  <TRACK '{80604035-2BD9-43BB-A255-4E5F9E756779}'
    NAME "PART KEYS_ANIM_RH"
    PEAKCOL 16842624
    BEAT -1
    AUTOMODE 0
    VOLPAN 1.00000000000000 0.00000000000000 -1.00000000000000 -1.00000000000000 1.00000000000000
    MUTESOLO 1 0 0
    IPHASE 0
    ISBUS 0 0
    BUSCOMP 0 0
    SHOWINMIX 1 0.666700 0.500000 1 0.500000 -1 -1 -1
    FREEMODE 0
    SEL 0
    REC 0 0 0 0 0 0 0
    TRACKHEIGHT 0 0
    INQ 0 0 0 0.5000000000 100 0 0 100
    NCHAN 2
    FX 1
    TRACKID {80604035-2BD9-43BB-A255-4E5F9E756779}
    PERF 0
    MIDIOUT -1
    <MIDINOTENAMES
      0 48 "C2 (Lowest Note)"
      0 72 "C4 (Highest Note)"
      0 127 "Trill Marker"
      0 126 "Glissando Marker"
      0 125 "----"
      0 116 "Overdrive Marker"
      0 115 "Solo Marker"
      0 114 "----"
      0 71 "B3"
      0 70 "Bb3"
      0 69 "A3"
      0 68 "G#3"
      0 67 "G3"
      0 66 "F#3"
      0 65 "F3"
      0 64 "E3"
      0 63 "Eb3"
      0 62 "D3"
      0 61 "C#3"
      0 60 "C3"
      0 59 "B2"
      0 58 "Bb2"
      0 57 "A2"
      0 56 "G#2"
      0 55 "G2"
      0 54 "F#2"
      0 53 "F2"
      0 52 "E2"
      0 51 "Eb2"
      0 50 "D2"
      0 49 "C#2"
      0 47 "----"
      0 9 "A2-C4 Range"
      0 5 "F2-A3 Range"
      0 0 "C2-E3 Range"
      0 7 "G2-B3 Range"
      0 4 "E2-G3 Range"
      0 2 "D2-F3 Range"
    >
    MAINSEND 1 0
    <FXCHAIN
      SHOW 0
      LASTSEL 0
      DOCKED 0
    >
    <ITEM
      POSITION 0.00000000000000
      SNAPOFFS 0.00000000000000
      LENGTH 262.84614954630189
      LOOP 0
      ALLTAKES 0
      SEL 0
      FADEIN 1 0.000000 0.000000 1 0
      FADEOUT 1 0.000000 0.000000 1 0
      MUTE 0
      IGUID {6A43A4E9-6390-4FBA-9F07-B2C821A1720C}
      IID 19
      NAME "PART KEYS_ANIM_RH"
      VOLPAN 1.000000 0.000000 1.000000 -1.000000
      SOFFS 0.00000000000000 0.00000000000000
      PLAYRATE 1.00000000000000 1 0.00000000000000 -65536
      CHANMODE 0
      GUID {FA5AE238-E1D7-41F5-A663-4C49E4376041}
      <SOURCE MIDI
        HASDATA 1 480 QN
        POOLEDEVTS {9BF2BC81-A036-4C01-8683-0DB4088D73E8}
        <X 0 0
          /wNQQVJUIEtFWVNfQU5JTV9SSA==
        >
        E 180481 b0 7b 00
        GUID {268DE88D-9169-44F5-97A1-ABDA1E2CF031}
        IGNTEMPO 0 120.00000000 4 4
        SRCCOLOR 1190
        VELLANE 132 128 60
        COLORMAP "C:\Program Files\REAPER\Data\color_maps\rockband_guitarbass.png"
        TEXTSTRINGFILE "C:\Program Files\REAPER\Data\Text_Strings\Text Events List.txt"
        CFGEDITVIEW 2612.554938 0.179136 51 12 0 0 0
        CFGEDIT 1 1 0 0 1 1 1 1 1 1 1 0.25000000 0 0 683 728 1 0 0 2 0.00000000 0 0 0 0 0.500000 0 0 1.000000 64
        KEYSNAP 0 0 "102034050607" 0 "Major"
        EVTFILTER 0 -1 -1 -1 -1 0 1 0 0 -1.00000000 -1.00000000
      >
    >
  >
  <TRACK '{F014911F-41F0-491C-9A25-C3D2A462D8D7}'
    NAME "PART KEYS_ANIM_LH"
    PEAKCOL 16842624
    BEAT -1
    AUTOMODE 0
    VOLPAN 1.00000000000000 0.00000000000000 -1.00000000000000 -1.00000000000000 1.00000000000000
    MUTESOLO 1 0 0
    IPHASE 0
    ISBUS 2 -1
    BUSCOMP 0 0
    SHOWINMIX 1 0.666700 0.500000 1 0.500000 -1 -1 -1
    FREEMODE 0
    SEL 0
    REC 0 0 0 0 0 0 0
    TRACKHEIGHT 0 0
    INQ 0 0 0 0.5000000000 100 0 0 100
    NCHAN 2
    FX 1
    TRACKID {F014911F-41F0-491C-9A25-C3D2A462D8D7}
    PERF 0
    MIDIOUT -1
    <MIDINOTENAMES
      0 48 "C2 (Lowest Note)"
      0 72 "C4 (Highest Note)"
      0 127 "Trill Marker"
      0 126 "Glissando Marker"
      0 125 "----"
      0 116 "Overdrive Marker"
      0 115 "Solo Marker"
      0 114 "----"
      0 71 "B3"
      0 70 "Bb3"
      0 69 "A3"
      0 68 "G#3"
      0 67 "G3"
      0 66 "F#3"
      0 65 "F3"
      0 64 "E3"
      0 63 "Eb3"
      0 62 "D3"
      0 61 "C#3"
      0 60 "C3"
      0 59 "B2"
      0 58 "Bb2"
      0 57 "A2"
      0 56 "G#2"
      0 55 "G2"
      0 54 "F#2"
      0 53 "F2"
      0 52 "E2"
      0 51 "Eb2"
      0 50 "D2"
      0 49 "C#2"
      0 47 "----"
      0 9 "A2-C4 Range"
      0 5 "F2-A3 Range"
      0 0 "C2-E3 Range"
      0 7 "G2-B3 Range"
      0 4 "E2-G3 Range"
      0 2 "D2-F3 Range"
    >
    MAINSEND 1 0
    <FXCHAIN
      SHOW 0
      LASTSEL 0
      DOCKED 0
    >
    <ITEM
      POSITION 0.00000000000000
      SNAPOFFS 0.00000000000000
      LENGTH 262.84614954630189
      LOOP 0
      ALLTAKES 0
      SEL 0
      FADEIN 1 0.000000 0.000000 1 0
      FADEOUT 1 0.000000 0.000000 1 0
      MUTE 0
      IGUID {F0F97A68-91AD-4B41-8D32-822B6159FDBC}
      IID 20
      NAME "PART KEYS_ANIM_LH"
      VOLPAN 1.000000 0.000000 1.000000 -1.000000
      SOFFS 0.00000000000000 0.00000000000000
      PLAYRATE 1.00000000000000 1 0.00000000000000 -65536
      CHANMODE 0
      GUID {214023C3-6BA4-450F-A73F-59780553B94C}
      <SOURCE MIDI
        HASDATA 1 480 QN
        POOLEDEVTS {8494729F-911A-41F8-9422-40DE698A801C}
        <X 0 0
          /wNQQVJUIEtFWVNfQU5JTV9MSA==
        >
        E 180481 b0 7b 00
        GUID {9527D45A-14D5-4C89-A39E-3528B0F29941}
        IGNTEMPO 0 120.00000000 4 4
        SRCCOLOR 1191
        VELLANE 132 128 60
        COLORMAP "C:\Program Files\REAPER\Data\color_maps\rockband_guitarbass.png"
        TEXTSTRINGFILE "C:\Program Files\REAPER\Data\Text_Strings\Text Events List.txt"
        CFGEDITVIEW -4299.275963 82.395269 11 17 0 0 0
        CFGEDIT 1 1 0 1 1 1 1 1 1 1 1 0.12500000 -8 -8 1374 736 1 2 1 2 0.00000000 0 0 0 0 0.500000 1 0 1.000000 64
        KEYSNAP 0 0 "102034050607" 0 "Major"
        EVTFILTER 0 -1 -1 -1 -1 0 1 0 0 -1.00000000 -1.00000000
      >
    >
  >
  <TRACK '{4BCC1CF3-63A3-43C4-A155-D3593AD88A10}'
    NAME "EVENTS"
    PEAKCOL 29393024
    BEAT -1
    AUTOMODE 0
    VOLPAN 1.00000000000000 0.00000000000000 -1.00000000000000 -1.00000000000000 1.00000000000000
    MUTESOLO 0 0 0
    IPHASE 0
    ISBUS 0 0
    BUSCOMP 0 0
    SHOWINMIX 1 0.666700 0.500000 1 0.500000 -1 -1 -1
    FREEMODE 0
    SEL 1
    REC 0 0 0 0 0 0 0
    TRACKHEIGHT 0 0
    INQ 0 0 0 0.5000000000 100 0 0 100
    NCHAN 2
    FX 1
    TRACKID {4BCC1CF3-63A3-43C4-A155-D3593AD88A10}
    PERF 0
    MIDIOUT -1
    MAINSEND 1 0
    <FXCHAIN
      SHOW 0
      LASTSEL 0
      DOCKED 0
    >
    <ITEM
      POSITION 0.00000000000000
      SNAPOFFS 0.00000000000000
      LENGTH 214.91693432689925
      LOOP 0
      ALLTAKES 0
      SEL 1
      FADEIN 1 0.000000 0.000000 1 0
      FADEOUT 1 0.000000 0.000000 1 0
      MUTE 0
      IGUID {86A06D27-867C-4398-9CE6-8F0526B3B594}
      IID 21
      NAME "EVENTS"
      VOLPAN 1.000000 0.000000 1.000000 -1.000000
      SOFFS 0.00000000000000 0.00000000000000
      PLAYRATE 1.00000000000000 1 0.00000000000000 -65536
      CHANMODE 0
      GUID {584C8192-4FF3-4E29-8138-2E6BD568B61A}
      <SOURCE MIDI
        HASDATA 1 480 QN
        POOLEDEVTS {1825F940-532E-49DC-94A0-585EBD7294BC}
        <X 0 0
          /wNFVkVOVFM=
        >
        <X 0 0
          /wFbY3Jvd2Rfbm9ybWFsXQ==
        >
        <X 0 0
          /wFbcHJjX2ludHJvXQ==
        >
        <X 3840 0
          /wFbbXVzaWNfc3RhcnRd
        >
        <X 1920 0
          /wFbcHJjX3ZlcnNlXzFhXQ==
        >
        <X 14880 0
          /wFbcHJjX3ZlcnNlXzFiXQ==
        >
        <X 15360 0
          /wFbcHJjX2Nob3J1c18xYV0=
        >
        <X 8160 0
          /wFbcHJjX2Nob3J1c18xYl0=
        >
        <X 7680 0
          /wFbcHJjX3ZlcnNlXzJhXQ==
        >
        <X 14880 0
          /wFbcHJjX3ZlcnNlXzJiXQ==
        >
        <X 15360 0
          /wFbcHJjX2Nob3J1c18yYV0=
        >
        <X 8160 0
          /wFbcHJjX2Nob3J1c18yYl0=
        >
        <X 7680 0
          /wFbcHJjX2d0cl9zb2xvXQ==
        >
        <X 15360 0
          /wFbcHJjX2Nob3J1c18zYV0=
        >
        <X 7680 0
          /wFbcHJjX2Nob3J1c18zYl0=
        >
        <X 7920 0
          /wFbcHJjX291dHJvXQ==
        >
        <X 10320 0
          /wFbbXVzaWNfZW5kXQ==
        >
        <X 3360 0
          /wFbZW5kXQ==
        >
        E 4848 b0 7b 00
        GUID {40AD7956-A22A-434A-8513-4D3792B9DF69}
        IGNTEMPO 0 120.00000000 4 4
        SRCCOLOR 1192
        VELLANE 132 100 100
        COLORMAP "M:\RGS Documents\ColorMaps\rockband_vox-other.png"
        TEXTSTRINGFILE "C:\Program Files\REAPER (x64)\REAPER\Data\Text_Strings\Text Events List - Events.txt"
        CFGEDITVIEW 17553.943558 8.324953 11 49 0 0 0
        CFGEDIT 1 1 0 0 0 1 1 1 1 1 1 0.25000000 44 63 1223 847 1 2 1 2 0.00000000 0 0 0 0 0.500000 1 0 1.000000 64
        KEYSNAP 0 0 "102034050607" 0 "Major"
        EVTFILTER 0 -1 -1 -1 -1 0 1 0 0 -1.00000000 -1.00000000
      >
    >
  >
  <TRACK '{1529008F-97D2-43EB-8634-7C5A7418AD90}'
    NAME "VENUE"
    PEAKCOL 16842496
    BEAT -1
    AUTOMODE 0
    VOLPAN 1.00000000000000 0.00000000000000 -1.00000000000000 -1.00000000000000 1.00000000000000
    MUTESOLO 0 0 0
    IPHASE 0
    ISBUS 0 0
    BUSCOMP 0 0
    SHOWINMIX 1 0.666700 0.500000 1 0.500000 -1 -1 -1
    FREEMODE 0
    SEL 0
    REC 0 0 0 0 0 0 0
    TRACKHEIGHT 0 0
    INQ 0 0 0 0.5000000000 100 0 0 100
    NCHAN 2
    FX 1
    TRACKID {1529008F-97D2-43EB-8634-7C5A7418AD90}
    PERF 0
    MIDIOUT -1
    <MIDINOTENAMES
      0 87 "Guitarist Sing Along"
      0 86 "Drummer Sing Along"
      0 85 "Bassist Sing Along"
      0 40 "Spotlight on Vocals"
      0 39 "Spotlight on Guitar"
      0 38 "Spotlight on Drums"
      0 37 "Spotlight on Bass"
      0 41 "Spotlight on Keys"
    >
    MAINSEND 1 0
    <FXCHAIN
      SHOW 0
      LASTSEL 0
      DOCKED 0
    >
    <ITEM
      POSITION 0.00000000000000
      SNAPOFFS 0.00000000000000
      LENGTH 209.93986213691934
      LOOP 0
      ALLTAKES 0
      SEL 0
      FADEIN 1 0.000000 0.000000 1 0
      FADEOUT 1 0.000000 0.000000 1 0
      MUTE 0
      IGUID {71027329-E0AB-447D-A192-4839733334E7}
      IID 22
      NAME "VENUE"
      VOLPAN 1.000000 0.000000 1.000000 -1.000000
      SOFFS 0.00000000000000 0.00000000000000
      PLAYRATE 1.00000000000000 1 0.00000000000000 -65536
      CHANMODE 0
      GUID {44F0FFD1-5109-4A47-8BED-262AA04D3B23}
      <SOURCE MIDI
        HASDATA 1 480 QN
        POOLEDEVTS {EF722DFB-991A-4587-AC6E-A4159D5F3CDA}
        <X 0 0
          /wNWRU5VRQ==
        >
        E 143973 b0 7b 00
        GUID {30097062-47C5-4B33-B665-170EF09D70D9}
        IGNTEMPO 0 120.00000000 4 4
        SRCCOLOR 1193
        VELLANE 132 100 100
        COLORMAP "M:\RGS Documents\ColorMaps\rockband_vox-other.png"
        TEXTSTRINGFILE "Text Events List.txt"
        CFGEDITVIEW 139209.853199 447.818156 0 49 0 0 0
        CFGEDIT 1 1 0 0 0 1 1 1 1 1 1 0.25000000 44 63 1223 847 1 2 1 2 0.00000000 0 0 0 0 0.500000 1 0 1.000000 64
        KEYSNAP 0 0 "102034050607" 0 "Major"
        EVTFILTER 0 -1 -1 -1 -1 0 1 0 0 -1.00000000 -1.00000000
      >
    >
  >
  <TRACK '{7BC63EFC-0ABC-4D0D-8204-E9893AE9FFFA}'
    NAME "BEAT"
    PEAKCOL 23514346
    BEAT -1
    AUTOMODE 0
    VOLPAN 1.00000000000000 0.00000000000000 -1.00000000000000 -1.00000000000000 1.00000000000000
    MUTESOLO 0 0 0
    IPHASE 0
    ISBUS 0 0
    BUSCOMP 1 0
    SHOWINMIX 1 0.666700 0.500000 1 0.500000 -1 -1 -1
    FREEMODE 0
    SEL 0
    REC 0 0 0 0 0 0 0
    TRACKHEIGHT 0 0
    INQ 0 0 0 0.5000000000 100 0 0 100
    NCHAN 2
    FX 1
    TRACKID {7BC63EFC-0ABC-4D0D-8204-E9893AE9FFFA}
    PERF 0
    MIDIOUT -1
    <MIDINOTENAMES
      0 12 "Downbeat"
      0 13 "Up Beats"
    >
    MAINSEND 1 0
    <FXCHAIN
      SHOW 0
      LASTSEL 0
      DOCKED 0
    >
    <ITEM
      POSITION 0.00000000000000
      SNAPOFFS 0.00000000000000
      LENGTH 214.71954823791779
      LOOP 0
      ALLTAKES 0
      SEL 0
      FADEIN 1 0.000000 0.000000 1 0
      FADEOUT 1 0.000000 0.000000 1 0
      MUTE 0
      IGUID {9960CDFD-BF2E-4E67-97CD-4F13D0A3F2ED}
      IID 23
      NAME "BEAT"
      VOLPAN 1.000000 0.000000 1.000000 -1.000000
      SOFFS 0.00000000000000 0.00000000000000
      PLAYRATE 1.00000000000000 1 0.00000000000000 -65536
      CHANMODE 0
      GUID {CEBFDCF1-B2BD-47E1-A085-C26E1C9E9ED2}
      <SOURCE MIDI
        HASDATA 1 480 QN
        POOLEDEVTS {DA714C14-72BB-4D8E-B7ED-DBE8F2D29A23}
        <X 0 0
          /wNCRUFU
        >
        E 0 96 0c 64
        E 120 86 0c 00
        E 360 96 0d 64
        E 120 86 0d 00
        E 360 96 0d 64
        E 120 86 0d 00
        E 360 96 0d 64
        E 120 86 0d 00
        E 360 96 0c 64
        E 120 86 0c 00
        E 360 96 0d 64
        E 120 86 0d 00
        E 360 96 0d 64
        E 120 86 0d 00
        E 360 96 0d 64
        E 120 86 0d 00
        E 360 96 0c 64
        E 120 86 0c 00
        E 360 96 0d 64
        E 120 86 0d 00
        E 360 96 0d 64
        E 120 86 0d 00
        E 360 96 0d 64
        E 120 86 0d 00
        E 360 96 0c 64
        E 120 86 0c 00
        E 360 96 0d 64
        E 120 86 0d 00
        E 360 96 0d 64
        E 120 86 0d 00
        E 360 96 0d 64
        E 120 86 0d 00
        E 360 96 0c 64
        E 120 86 0c 00
        E 360 96 0d 64
        E 120 86 0d 00
        E 360 96 0d 64
        E 120 86 0d 00
        E 360 96 0d 64
        E 120 86 0d 00
        E 360 96 0c 64
        E 120 86 0c 00
        E 360 96 0d 64
        E 120 86 0d 00
        E 360 96 0d 64
        E 120 86 0d 00
        E 360 96 0d 64
        E 120 86 0d 00
        E 360 96 0c 64
        E 120 86 0c 00
        E 360 96 0d 64
        E 120 86 0d 00
        E 360 96 0d 64
        E 120 86 0d 00
        E 360 96 0d 64
        E 120 86 0d 00
        E 360 96 0c 64
        E 120 86 0c 00
        E 360 96 0d 64
        E 120 86 0d 00
        E 360 96 0d 64
        E 120 86 0d 00
        E 360 96 0d 64
        E 120 86 0d 00
        E 360 96 0c 64
        E 120 86 0c 00
        E 360 96 0d 64
        E 120 86 0d 00
        E 360 96 0d 64
        E 120 86 0d 00
        E 360 96 0d 64
        E 120 86 0d 00
        E 360 96 0c 64
        E 120 86 0c 00
        E 360 96 0d 64
        E 120 86 0d 00
        E 360 96 0d 64
        E 120 86 0d 00
        E 360 96 0d 64
        E 120 86 0d 00
        E 360 96 0c 64
        E 120 86 0c 00
        E 360 96 0d 64
        E 120 86 0d 00
        E 360 96 0d 64
        E 120 86 0d 00
        E 360 96 0d 64
        E 120 86 0d 00
        E 360 96 0c 64
        E 120 86 0c 00
        E 360 96 0d 64
        E 120 86 0d 00
        E 360 96 0d 64
        E 120 86 0d 00
        E 360 96 0d 64
        E 120 86 0d 00
        E 360 96 0c 64
        E 120 86 0c 00
        E 360 96 0d 64
        E 120 86 0d 00
        E 360 96 0d 64
        E 120 86 0d 00
        E 360 96 0d 64
        E 120 86 0d 00
        E 360 96 0c 64
        E 120 86 0c 00
        E 360 96 0d 64
        E 120 86 0d 00
        E 360 96 0d 64
        E 120 86 0d 00
        E 360 96 0d 64
        E 120 86 0d 00
        E 360 96 0c 64
        E 120 86 0c 00
        E 360 96 0d 64
        E 120 86 0d 00
        E 360 96 0d 64
        E 120 86 0d 00
        E 360 96 0d 64
        E 120 86 0d 00
        E 360 96 0c 64
        E 120 86 0c 00
        E 360 96 0d 64
        E 120 86 0d 00
        E 360 96 0d 64
        E 120 86 0d 00
        E 360 96 0d 64
        E 120 86 0d 00
        E 360 96 0c 64
        E 120 86 0c 00
        E 360 96 0d 64
        E 120 86 0d 00
        E 360 96 0d 64
        E 120 86 0d 00
        E 360 96 0d 64
        E 120 86 0d 00
        E 360 96 0c 64
        E 120 86 0c 00
        E 360 96 0d 64
        E 120 86 0d 00
        E 360 96 0d 64
        E 120 86 0d 00
        E 360 96 0d 64
        E 120 86 0d 00
        E 360 96 0c 64
        E 120 86 0c 00
        E 360 96 0d 64
        E 120 86 0d 00
        E 360 96 0d 64
        E 120 86 0d 00
        E 360 96 0d 64
        E 120 86 0d 00
        E 360 96 0c 64
        E 120 86 0c 00
        E 360 96 0d 64
        E 120 86 0d 00
        E 360 96 0d 64
        E 120 86 0d 00
        E 360 96 0d 64
        E 120 86 0d 00
        E 360 96 0c 64
        E 120 86 0c 00
        E 360 96 0d 64
        E 120 86 0d 00
        E 360 96 0d 64
        E 120 86 0d 00
        E 360 96 0d 64
        E 120 86 0d 00
        E 360 96 0c 64
        E 120 86 0c 00
        E 360 96 0d 64
        E 120 86 0d 00
        E 360 96 0d 64
        E 120 86 0d 00
        E 360 96 0d 64
        E 120 86 0d 00
        E 360 96 0c 64
        E 120 86 0c 00
        E 360 96 0d 64
        E 120 86 0d 00
        E 360 96 0d 64
        E 120 86 0d 00
        E 360 96 0d 64
        E 120 86 0d 00
        E 360 96 0c 64
        E 120 86 0c 00
        E 360 96 0d 64
        E 120 86 0d 00
        E 360 96 0d 64
        E 120 86 0d 00
        E 360 96 0d 64
        E 120 86 0d 00
        E 360 96 0c 64
        E 120 86 0c 00
        E 360 96 0d 64
        E 120 86 0d 00
        E 360 96 0d 64
        E 120 86 0d 00
        E 360 96 0d 64
        E 120 86 0d 00
        E 360 96 0c 64
        E 120 86 0c 00
        E 360 96 0d 64
        E 120 86 0d 00
        E 360 96 0d 64
        E 120 86 0d 00
        E 360 96 0d 64
        E 120 86 0d 00
        E 360 96 0c 64
        E 120 86 0c 00
        E 360 96 0d 64
        E 120 86 0d 00
        E 360 96 0d 64
        E 120 86 0d 00
        E 360 96 0d 64
        E 120 86 0d 00
        E 360 96 0c 64
        E 120 86 0c 00
        E 360 96 0d 64
        E 120 86 0d 00
        E 360 96 0d 64
        E 120 86 0d 00
        E 360 96 0d 64
        E 120 86 0d 00
        E 360 96 0c 64
        E 120 86 0c 00
        E 360 96 0d 64
        E 120 86 0d 00
        E 360 96 0d 64
        E 120 86 0d 00
        E 360 96 0d 64
        E 120 86 0d 00
        E 360 96 0c 64
        E 120 86 0c 00
        E 360 96 0d 64
        E 120 86 0d 00
        E 360 96 0d 64
        E 120 86 0d 00
        E 360 96 0d 64
        E 120 86 0d 00
        E 360 96 0c 64
        E 120 86 0c 00
        E 360 96 0d 64
        E 120 86 0d 00
        E 360 96 0d 64
        E 120 86 0d 00
        E 360 96 0d 64
        E 120 86 0d 00
        E 360 96 0c 64
        E 120 86 0c 00
        E 360 96 0d 64
        E 120 86 0d 00
        E 360 96 0d 64
        E 120 86 0d 00
        E 360 96 0d 64
        E 120 86 0d 00
        E 360 96 0c 64
        E 120 86 0c 00
        E 360 96 0d 64
        E 120 86 0d 00
        E 360 96 0d 64
        E 120 86 0d 00
        E 360 96 0d 64
        E 120 86 0d 00
        E 360 96 0c 64
        E 120 86 0c 00
        E 360 96 0d 64
        E 120 86 0d 00
        E 360 96 0d 64
        E 120 86 0d 00
        E 360 96 0d 64
        E 120 86 0d 00
        E 360 96 0c 64
        E 120 86 0c 00
        E 360 96 0d 64
        E 120 86 0d 00
        E 360 96 0d 64
        E 120 86 0d 00
        E 360 96 0d 64
        E 120 86 0d 00
        E 360 96 0c 64
        E 120 86 0c 00
        E 360 96 0d 64
        E 120 86 0d 00
        E 360 96 0d 64
        E 120 86 0d 00
        E 360 96 0d 64
        E 120 86 0d 00
        E 360 96 0c 64
        E 120 86 0c 00
        E 360 96 0d 64
        E 120 86 0d 00
        E 360 96 0d 64
        E 120 86 0d 00
        E 360 96 0d 64
        E 120 86 0d 00
        E 360 96 0c 64
        E 120 86 0c 00
        E 360 96 0d 64
        E 120 86 0d 00
        E 360 96 0d 64
        E 120 86 0d 00
        E 360 96 0d 64
        E 120 86 0d 00
        E 360 96 0c 64
        E 120 86 0c 00
        E 360 96 0d 64
        E 120 86 0d 00
        E 360 96 0d 64
        E 120 86 0d 00
        E 360 96 0d 64
        E 120 86 0d 00
        E 360 96 0c 64
        E 120 86 0c 00
        E 360 96 0d 64
        E 120 86 0d 00
        E 360 96 0d 64
        E 120 86 0d 00
        E 360 96 0d 64
        E 120 86 0d 00
        E 360 96 0c 64
        E 120 86 0c 00
        E 360 96 0d 64
        E 120 86 0d 00
        E 360 96 0d 64
        E 120 86 0d 00
        E 360 96 0d 64
        E 120 86 0d 00
        E 360 96 0c 64
        E 120 86 0c 00
        E 360 96 0d 64
        E 120 86 0d 00
        E 360 96 0d 64
        E 120 86 0d 00
        E 360 96 0d 64
        E 120 86 0d 00
        E 360 96 0c 64
        E 120 86 0c 00
        E 360 96 0d 64
        E 120 86 0d 00
        E 360 96 0d 64
        E 120 86 0d 00
        E 360 96 0d 64
        E 120 86 0d 00
        E 360 96 0c 64
        E 120 86 0c 00
        E 360 96 0d 64
        E 120 86 0d 00
        E 360 96 0d 64
        E 120 86 0d 00
        E 360 96 0d 64
        E 120 86 0d 00
        E 360 96 0c 64
        E 120 86 0c 00
        E 360 96 0d 64
        E 120 86 0d 00
        E 360 96 0d 64
        E 120 86 0d 00
        E 360 96 0d 64
        E 120 86 0d 00
        E 360 96 0c 64
        E 120 86 0c 00
        E 360 96 0d 64
        E 120 86 0d 00
        E 360 96 0d 64
        E 120 86 0d 00
        E 360 96 0d 64
        E 120 86 0d 00
        E 360 96 0c 64
        E 120 86 0c 00
        E 360 96 0d 64
        E 120 86 0d 00
        E 360 96 0d 64
        E 120 86 0d 00
        E 360 96 0d 64
        E 120 86 0d 00
        E 360 96 0c 64
        E 120 86 0c 00
        E 360 96 0d 64
        E 120 86 0d 00
        E 360 96 0d 64
        E 120 86 0d 00
        E 360 96 0d 64
        E 120 86 0d 00
        E 360 96 0c 64
        E 120 86 0c 00
        E 360 96 0d 64
        E 120 86 0d 00
        E 360 96 0d 64
        E 120 86 0d 00
        E 360 96 0d 64
        E 120 86 0d 00
        E 360 96 0c 64
        E 120 86 0c 00
        E 360 96 0d 64
        E 120 86 0d 00
        E 360 96 0d 64
        E 120 86 0d 00
        E 360 96 0d 64
        E 120 86 0d 00
        E 360 96 0c 64
        E 120 86 0c 00
        E 360 96 0d 64
        E 120 86 0d 00
        E 360 96 0d 64
        E 120 86 0d 00
        E 360 96 0d 64
        E 120 86 0d 00
        E 360 96 0c 64
        E 120 86 0c 00
        E 360 96 0d 64
        E 120 86 0d 00
        E 360 96 0d 64
        E 120 86 0d 00
        E 360 96 0d 64
        E 120 86 0d 00
        E 360 96 0c 64
        E 120 86 0c 00
        E 360 96 0d 64
        E 120 86 0d 00
        E 360 96 0d 64
        E 120 86 0d 00
        E 360 96 0d 64
        E 120 86 0d 00
        E 360 96 0c 64
        E 120 86 0c 00
        E 360 96 0d 64
        E 120 86 0d 00
        E 360 96 0d 64
        E 120 86 0d 00
        E 360 96 0d 64
        E 120 86 0d 00
        E 360 96 0c 64
        E 120 86 0c 00
        E 360 96 0d 64
        E 120 86 0d 00
        E 360 96 0d 64
        E 120 86 0d 00
        E 360 96 0d 64
        E 120 86 0d 00
        E 360 96 0c 64
        E 120 86 0c 00
        E 360 96 0d 64
        E 120 86 0d 00
        E 360 96 0d 64
        E 120 86 0d 00
        E 360 96 0d 64
        E 120 86 0d 00
        E 360 96 0c 64
        E 120 86 0c 00
        E 360 96 0d 64
        E 120 86 0d 00
        E 360 96 0d 64
        E 120 86 0d 00
        E 360 96 0d 64
        E 120 86 0d 00
        E 360 96 0c 64
        E 120 86 0c 00
        E 360 96 0d 64
        E 120 86 0d 00
        E 360 96 0d 64
        E 120 86 0d 00
        E 360 96 0d 64
        E 120 86 0d 00
        E 360 96 0c 64
        E 120 86 0c 00
        E 360 96 0d 64
        E 120 86 0d 00
        E 360 96 0d 64
        E 120 86 0d 00
        E 360 96 0d 64
        E 120 86 0d 00
        E 360 96 0c 64
        E 120 86 0c 00
        E 360 96 0d 64
        E 120 86 0d 00
        E 360 96 0d 64
        E 120 86 0d 00
        E 360 96 0d 64
        E 120 86 0d 00
        E 360 96 0c 64
        E 120 86 0c 00
        E 360 96 0d 64
        E 120 86 0d 00
        E 360 96 0d 64
        E 120 86 0d 00
        E 360 96 0d 64
        E 120 86 0d 00
        E 360 96 0c 64
        E 120 86 0c 00
        E 360 96 0d 64
        E 120 86 0d 00
        E 360 96 0d 64
        E 120 86 0d 00
        E 360 96 0d 64
        E 120 86 0d 00
        E 360 96 0c 64
        E 120 86 0c 00
        E 360 96 0d 64
        E 120 86 0d 00
        E 360 96 0d 64
        E 120 86 0d 00
        E 360 96 0d 64
        E 120 86 0d 00
        E 360 96 0c 64
        E 120 86 0c 00
        E 360 96 0d 64
        E 120 86 0d 00
        E 360 96 0d 64
        E 120 86 0d 00
        E 360 96 0d 64
        E 120 86 0d 00
        E 360 96 0c 64
        E 120 86 0c 00
        E 360 96 0d 64
        E 120 86 0d 00
        E 360 96 0d 64
        E 120 86 0d 00
        E 360 96 0d 64
        E 120 86 0d 00
        E 360 96 0c 64
        E 120 86 0c 00
        E 360 96 0d 64
        E 120 86 0d 00
        E 360 96 0d 64
        E 120 86 0d 00
        E 360 96 0d 64
        E 120 86 0d 00
        E 360 96 0c 64
        E 120 86 0c 00
        E 360 96 0d 64
        E 120 86 0d 00
        E 360 96 0d 64
        E 120 86 0d 00
        E 360 96 0d 64
        E 120 86 0d 00
        E 360 96 0c 64
        E 120 86 0c 00
        E 360 96 0d 64
        E 120 86 0d 00
        E 360 96 0d 64
        E 120 86 0d 00
        E 360 96 0d 64
        E 120 86 0d 00
        E 360 96 0c 64
        E 120 86 0c 00
        E 360 96 0d 64
        E 120 86 0d 00
        E 360 96 0d 64
        E 120 86 0d 00
        E 360 96 0d 64
        E 120 86 0d 00
        E 360 96 0c 64
        E 120 86 0c 00
        E 360 96 0d 64
        E 120 86 0d 00
        E 360 96 0d 64
        E 120 86 0d 00
        E 360 96 0d 64
        E 120 86 0d 00
        E 360 96 0c 64
        E 120 86 0c 00
        E 360 96 0d 64
        E 120 86 0d 00
        E 360 96 0d 64
        E 120 86 0d 00
        E 360 96 0d 64
        E 120 86 0d 00
        E 360 96 0c 64
        E 120 86 0c 00
        E 360 96 0d 64
        E 120 86 0d 00
        E 360 96 0d 64
        E 120 86 0d 00
        E 360 96 0d 64
        E 120 86 0d 00
        E 360 96 0c 64
        E 120 86 0c 00
        E 360 96 0d 64
        E 120 86 0d 00
        E 360 96 0d 64
        E 120 86 0d 00
        E 360 96 0d 64
        E 120 86 0d 00
        E 360 96 0c 64
        E 120 86 0c 00
        E 360 96 0d 64
        E 120 86 0d 00
        E 360 96 0d 64
        E 120 86 0d 00
        E 360 96 0d 64
        E 120 86 0d 00
        E 360 96 0c 64
        E 120 86 0c 00
        E 5071 b0 7b 00
        GUID {8CB930E8-B6A0-4CAD-825A-9F47FB66C1D0}
        IGNTEMPO 0 120.00000000 4 4
        SRCCOLOR 1194
        VELLANE 132 100 100
        COLORMAP "M:\RGS Documents\ColorMaps\rockband_vox-other.png"
        TEXTSTRINGFILE "Text Events List.txt"
        CFGEDITVIEW 134557.640453 128.262729 0 49 0 0 0
        CFGEDIT 1 1 0 0 0 1 1 1 1 1 1 0.25000000 44 63 1223 847 1 2 1 2 0.00000000 0 0 0 0 0.500000 1 0 1.000000 64
        KEYSNAP 0 0 "102034050607" 0 "Major"
        EVTFILTER 0 -1 -1 -1 -1 0 1 0 0 -1.00000000 -1.00000000
      >
    >
  >
  <TRACK '{0E2FE3F2-76C0-4A51-94D0-F118951ACC28}'
    NAME "PART REAL_GUITAR"
    PEAKCOL 16576
    BEAT -1
    AUTOMODE 0
    VOLPAN 1.00000000000000 0.00000000000000 -1.00000000000000 -1.00000000000000 1.00000000000000
    MUTESOLO 1 0 0
    IPHASE 0
    ISBUS 0 0
    BUSCOMP 0 0
    SHOWINMIX 1 0.666700 0.500000 1 0.500000 -1 -1 -1
    FREEMODE 0
    SEL 0
    REC 0 0 0 0 0 0 0
    TRACKHEIGHT 0 0
    INQ 0 0 0 0.5000000000 100 0 0 100
    NCHAN 2
    FX 1
    TRACKID {0E2FE3F2-76C0-4A51-94D0-F118951ACC28}
    PERF 0
    MIDIOUT -1
    <MIDINOTENAMES
      0 101 "EXPERT E String (HIGH)"
      0 100 "EXPERT B String"
      0 99 "EXPERT G String"
      0 98 "EXPERT D String"
      0 97 "EXPERT A String"
      0 96 "EXPERT E String (LOW)"
      0 77 "HARD E String (HIGH)"
      0 72 "HARD E String (LOW)"
      0 53 "MEDIUM E String (HIGH)"
      0 48 "MEDIUM E String (LOW)"
      0 29 "EASY E String (HIGH)"
      0 24 "EASY E String (LOW)"
      0 76 "HARD B String"
      0 75 "HARD G String"
      0 74 "HARD D String"
      0 73 "HARD A String"
      0 52 "MEDIUM B String"
      0 51 "MEDIUM G String"
      0 50 "MEDIUM D String"
      0 49 "MEDIUM A String"
      0 28 "EASY B String"
      0 27 "EASY G String"
      0 26 "EASY D String"
      0 25 "EASY A String"
      0 116 "OVERDRIVE"
      0 115 "Solo Marker"
      0 125 "BRE"
      0 120 "BRE (use all 6)"
      0 124 "BRE"
      0 123 "BRE"
      0 122 "BRE"
      0 121 "BRE"
      0 127 "Trill"
      0 126 "Tremelo"
      0 108 "Left hand position"
      0 107 "Force Chord Numbering"
      0 104 "EXPERT Arpeggio Marker"
      0 103 "EXPERT Slide Marker"
      0 102 "EXPERT Force Ho/Po"
      0 80 "HARD Arpeggio Marker"
      0 79 "HARD Slide Marker"
      0 78 "Force Ho/Po"
      0 55 "MEDIUM Slide Marker"
      0 31 "EASY Slide Marker"
      0 17 "Hide Chord Names"
      0 15 "Eb"
      0 14 "D"
      0 13 "Db"
      0 12 "C"
      0 11 "B"
      0 10 "Bb"
      0 9 "A"
      0 8 "Ab"
      0 7 "G"
      0 6 "Gb"
      0 5 "F"
      0 4 "E"
      0 105 "EXPERT Strum Direction"
      0 81 "HARD Strum Direction"
      0 56 "MEDIUM Arpeggio Marker"
      0 32 "EASY Arpeggio Marker"
      0 21 "CHORD NAMES"
      0 18 "Flat/Sharp Swap"
      0 16 "Slash Chord"
    >
    MAINSEND 1 0
    <FXCHAIN
      SHOW 0
      LASTSEL 0
      DOCKED 0
    >
    <ITEM
      POSITION 0.00000000000000
      SNAPOFFS 0.00000000000000
      LENGTH 263.54178782199779
      LOOP 0
      ALLTAKES 0
      SEL 0
      FADEIN 1 0.000000 0.000000 1 0
      FADEOUT 1 0.000000 0.000000 1 0
      MUTE 0
      IGUID {20F1321F-9ED7-4853-AD09-40B222B05CF8}
      IID 24
      NAME "PART REAL_GUITAR"
      VOLPAN 1.000000 0.000000 1.000000 -1.000000
      SOFFS 0.00000000000000 0.00000000000000
      PLAYRATE 1.00000000000000 1 0.00000000000000 -1
      CHANMODE 0
      GUID {3CDDC74F-292B-448F-83EC-680F8CEF1C9B}
      <SOURCE MIDI
        HASDATA 1 480 QN
        POOLEDEVTS {5B59291F-4C82-4C8C-854A-94F1F0BE4DC7}
        <X 0 0
          /wNQQVJUIFJFQUxfR1VJVEFS
        >
        E 3840 90 18 64
        E 0 90 19 64
        E 0 90 1a 64
        E 0 90 1b 64
        E 0 90 1c 64
        E 0 90 1d 64
        E 0 90 30 64
        E 0 90 31 64
        E 0 90 32 64
        E 0 90 33 64
        E 0 90 34 64
        E 0 90 35 64
        E 0 90 48 64
        E 0 90 49 64
        E 0 90 4a 64
        E 0 90 4b 64
        E 0 90 4c 64
        E 0 90 4d 64
        E 0 90 60 64
        E 0 90 61 64
        E 0 90 62 64
        E 0 90 63 64
        E 0 90 64 64
        E 0 90 65 64
        E 120 80 18 00
        E 0 80 19 00
        E 0 80 1a 00
        E 0 80 1b 00
        E 0 80 1c 00
        E 0 80 1d 00
        E 0 80 30 00
        E 0 80 31 00
        E 0 80 32 00
        E 0 80 33 00
        E 0 80 34 00
        E 0 80 35 00
        E 0 80 48 00
        E 0 80 49 00
        E 0 80 4a 00
        E 0 80 4b 00
        E 0 80 4c 00
        E 0 80 4d 00
        E 0 80 60 00
        E 0 80 61 00
        E 0 80 62 00
        E 0 80 63 00
        E 0 80 64 00
        E 0 80 65 00
        E 177000 b0 7b 00
        GUID {95EB2031-BC44-4B36-809B-F7595C07BF30}
        IGNTEMPO 0 120.00000000 4 4
        SRCCOLOR 1195
        VELLANE 132 123 128
        COLORMAP "C:\Program Files\REAPER\Data\color_maps\rockband_guitarbass.png"
        TEXTSTRINGFILE "C:\Program Files\REAPER\Data\Text_Strings\Text Events List.txt"
        CFGEDITVIEW 0.000000 0.103438 87 12 0 0 0
        CFGEDIT 1 1 0 0 0 1 1 1 1 1 1 0.25000000 0 0 683 728 1 0 0 2 0.12500000 0 1 0 0 0.500000 0 0 1.000000 64
        KEYSNAP 0 0 "102034050607" 0 "Major"
        EVTFILTER 0 -1 -1 -1 -1 0 1 0 0 -1.00000000 -1.00000000
      >
    >
  >
  <TRACK '{4048E3A2-B3FC-493C-BF0E-D7B7B9F9DFF3}'
    NAME "PART REAL_BASS"
    PEAKCOL 16576
    BEAT -1
    AUTOMODE 0
    VOLPAN 1.00000000000000 0.00000000000000 -1.00000000000000 -1.00000000000000 1.00000000000000
    MUTESOLO 1 0 0
    IPHASE 0
    ISBUS 0 0
    BUSCOMP 0 0
    SHOWINMIX 1 0.666700 0.500000 1 0.500000 -1 -1 -1
    FREEMODE 0
    SEL 0
    REC 0 0 0 0 0 0 0
    TRACKHEIGHT 0 0
    INQ 0 0 0 0.5000000000 100 0 0 100
    NCHAN 2
    FX 1
    TRACKID {4048E3A2-B3FC-493C-BF0E-D7B7B9F9DFF3}
    PERF 0
    MIDIOUT -1
    <MIDINOTENAMES
      0 99 "EXPERT G String"
      0 98 "EXPERT D String"
      0 97 "EXPERT A String"
      0 96 "EXPERT E String (LOW)"
      0 72 "HARD E String (LOW)"
      0 48 "MEDIUM E String (LOW)"
      0 24 "EASY E String (LOW)"
      0 75 "HARD G String"
      0 74 "HARD D String"
      0 73 "HARD A String"
      0 51 "MEDIUM G String"
      0 50 "MEDIUM D String"
      0 49 "MEDIUM A String"
      0 27 "EASY G String"
      0 26 "EASY D String"
      0 25 "EASY A String"
      0 116 "OVERDRIVE"
      0 115 "Solo Marker"
      0 120 "BRE (use all 6)"
      0 123 "BRE"
      0 122 "BRE"
      0 121 "BRE"
      0 127 "Trill"
      0 126 "Tremelo"
      0 125 "BRE"
      0 124 "BRE"
      0 108 "Left hand position"
      0 107 "Force Chord Numbering"
      0 104 "EXPERT Arpeggio Marker"
      0 103 "EXPERT Slide Marker"
      0 102 "EXPERT Force Ho/Po"
      0 101 "EXPERT E String (HIGH)"
      0 100 "EXPERT B String"
      0 80 "HARD Arpeggio Marker"
      0 79 "HARD Slide Marker"
      0 78 "Force Ho/Po"
      0 77 "HARD E String (HIGH)"
      0 76 "HARD B String"
      0 55 "MEDIUM Slide Marker"
      0 53 "MEDIUM E String (HIGH)"
      0 52 "MEDIUM B String"
      0 31 "EASY Slide Marker"
      0 29 "EASY E String (HIGH)"
      0 28 "EASY B String"
      0 17 "Hide Chord Names"
      0 15 "Eb"
      0 14 "D"
      0 13 "Db"
      0 12 "C"
      0 11 "B"
      0 10 "Bb"
      0 9 "A"
      0 8 "Ab"
      0 7 "G"
      0 6 "Gb"
      0 5 "F"
      0 4 "E"
      0 105 "EXPERT Strum Direction"
      0 81 "HARD Strum Direction"
      0 56 "MEDIUM Arpeggio Marker"
      0 32 "EASY Arpeggio Marker"
      0 21 "CHORD NAMES"
      0 18 "Flat/Sharp Swap"
      0 16 "Slash Chord"
    >
    MAINSEND 1 0
    <FXCHAIN
      SHOW 0
      LASTSEL 0
      DOCKED 0
    >
    <ITEM
      POSITION 0.00000000000000
      SNAPOFFS 0.00000000000000
      LENGTH 263.54178782199779
      LOOP 0
      ALLTAKES 0
      SEL 0
      FADEIN 1 0.000000 0.000000 1 0
      FADEOUT 1 0.000000 0.000000 1 0
      MUTE 0
      IGUID {20F1321F-9ED7-4853-AD09-40B222B05CF8}
      IID 25
      NAME "PART REAL_BASS"
      VOLPAN 1.000000 0.000000 1.000000 -1.000000
      SOFFS 0.00000000000000 0.00000000000000
      PLAYRATE 1.00000000000000 1 0.00000000000000 -1
      CHANMODE 0
      GUID {3CDDC74F-292B-448F-83EC-680F8CEF1C9B}
      <SOURCE MIDI
        HASDATA 1 480 QN
        POOLEDEVTS {14D00060-6239-46AB-BA60-0B30092CE0F5}
        <X 0 0
          /wNQQVJUIFJFQUxfQkFTUw==
        >
        E 3840 90 18 64
        E 0 90 19 64
        E 0 90 1a 64
        E 0 90 1b 64
        E 0 90 30 64
        E 0 90 31 64
        E 0 90 32 64
        E 0 90 33 64
        E 0 90 48 64
        E 0 90 49 64
        E 0 90 4a 64
        E 0 90 4b 64
        E 0 90 60 64
        E 0 90 61 64
        E 0 90 62 64
        E 0 90 63 64
        E 120 80 18 00
        E 0 80 19 00
        E 0 80 1a 00
        E 0 80 1b 00
        E 0 80 30 00
        E 0 80 31 00
        E 0 80 32 00
        E 0 80 33 00
        E 0 80 48 00
        E 0 80 49 00
        E 0 80 4a 00
        E 0 80 4b 00
        E 0 80 60 00
        E 0 80 61 00
        E 0 80 62 00
        E 0 80 63 00
        E 177000 b0 7b 00
        GUID {95EB2031-BC44-4B36-809B-F7595C07BF30}
        IGNTEMPO 0 120.00000000 4 4
        SRCCOLOR 1196
        VELLANE 132 123 128
        COLORMAP "C:\Program Files\REAPER\Data\color_maps\rockband_guitarbass.png"
        TEXTSTRINGFILE "C:\Program Files\REAPER\Data\Text_Strings\Text Events List.txt"
        CFGEDITVIEW 0.000000 0.179136 0 12 0 0 0
        CFGEDIT 1 1 0 0 0 1 1 1 1 1 1 0.25000000 0 0 683 728 1 0 0 2 0.00000000 0 1 0 0 0.500000 0 0 1.000000 64
        KEYSNAP 0 0 "102034050607" 0 "Major"
        EVTFILTER 0 -1 -1 -1 -1 0 1 0 0 -1.00000000 -1.00000000
      >
    >
  >
>
