<REAPER_PROJECT 0.1 "4.22/x64"
  RIPPLE 0
  GROUPOVERRIDE 0 1 0
  AUTOXFADE 1
  ENVATTACH 1
  MIXERUIFLAGS 11 48
  PEAKGAIN 1.00000000000000
  FEEDBACK 0
  PANLAW 1.00000000000000
  PROJOFFS 0.00000000000000 0
  MAXPROJLEN 0 600.00000000000000
  GRID 1407 8 1.00000000000000 8 1.00000000000000 0
  TIMEMODE 1 0 -1
  CURSOR 12.61482043146716
  ZOOM 155.72318667653590 1507 0
  VZOOMEX 0
  USE_REC_CFG 0
  RECMODE 1
  SMPTESYNC 0 30.000000 100 40 1000 300 0 0.000000 0
  LOOP 1
  LOOPGRAN 0 4.00000000000000
  RECORD_PATH "" ""
  <RECORD_CFG
    ZXZhdxgA
  >
  <APPLYFX_CFG
  >
  RENDER_FILE ""
  RENDER_PATTERN ""
  RENDER_FMT 0 2 0
  RENDER_1X 0
  RENDER_RANGE 1 0.00000000000000 0.00000000000000
  RENDER_RESAMPLE 3 0 1
  RENDER_ADDTOPROJ 0
  RENDER_STEMS 0
  RENDER_DITHER 0
  TIMELOCKMODE 0
  ITEMMIX 0
  DEFPITCHMODE 0
  TAKELANE 1
  SAMPLERATE 44100 0 0
  <RENDER_CFG
  >
  LOCK 1
  <METRONOME 6 2.000000
    VOL 0.752735 0.723913
    FREQ 800 1600 0
    BEATLEN 4
    SAMPLES "" ""
  >
  GLOBAL_AUTO -1
  TEMPO 120.00000000000000 4 4
  PLAYRATE 1.00000000000000 0 0.25000 4.00000
  SELECTION 0.00000000000000 0.00000000000000
  SELECTION2 0.00000000000000 0.00000000000000
  MASTERAUTOMODE 0
  MASTERTRACKHEIGHT 0
  MASTERPEAKCOL 16576
  MASTERMUTESOLO 0
  MASTERTRACKVIEW 1 0.666700 0.500000 0.500000 -1 -1 -1
  MASTERHWOUT 0 0 1.00000000000000 0.00000000000000 0 0 0 -1.00000000000000
  MASTER_NCH 2 2
  MASTER_VOLUME 1.05925372517729 0.00000000000000 -1.00000000000000 -1.00000000000000 1.00000000000000
  MASTER_FX 1
  MASTER_SEL 0
  <MASTERFXLIST
    SHOW 0
    LASTSEL 0
    DOCKED 0
    BYPASS 0 0
    <VST "VST: W1 Limiter (George Yohng)" "George Yohng_s W1 Limiter.dll" 0 ""
      THdGNO5e7f4CAAAAAQAAAAAAAAACAAAAAAAAAAIAAAABAAAAAAAAAA==
      AgAAAAAAAABMAAAAAQAAAAAAEAAMAACBdGhyZXNoAAD+1Hg/DAAAgQ==
      Y2VpbGluZwD+1Hg/DAAAgXJlbGVhc2UAMEAfPxQAAIFhZGFwdFJlbA==
      ZWFzZQAAAAAAAAAAAAAAgAAAEAAAAA==
    >
    FLOATPOS 24 24 481 152
    FXID {69D45D23-FE06-4141-B0BB-1A6D9443AFA8}
    WAK 0
  >
  <MASTERPLAYSPEEDENV
    ACT 0
    VIS 0 1 1.000000
    LANEHEIGHT 0 0
    ARM 0
    DEFSHAPE 0 -1 -1
  >
  <TEMPOENVEX
    ACT 1
    VIS 1 0 1.000000
    LANEHEIGHT 0 0
    ARM 0
    DEFSHAPE 1 -1 -1
    PT 0.000000000000 125.0000000000 1
    PT 3.840000000000 115.8648148418 1
    PT 5.911379480714 126.8407694033 1
    PT 7.803515590650 126.4276072880 1
    PT 9.701835151926 126.0171280435 1
    PT 11.606338164541 126.4276072880 1
    PT 13.504657725816 125.6093056227 1
    PT 15.415344189771 126.0171280435 1
    PT 17.319847202386 126.0171280435 1
    PT 19.224350215001 125.6093056227 1
    PT 21.135036678956 126.0171280435 1
    PT 23.039539691571 126.0171280435 1
    PT 24.944042704186 126.4276072880 1
    PT 26.842362265462 125.6093056227 1
    PT 28.753048729416 126.0171280435 1
    PT 30.657551742031 126.0171280435 1
    PT 32.562054754646 126.8407694033 1
    PT 34.454190864582 124.8015287376 1
    PT 36.377244231216 126.8407694033 1
    PT 38.269380341152 125.2041143142 1
    PT 40.186250256447 125.6093056227 1
    PT 42.096936720401 126.8407694033 1
    PT 43.989072830337 126.0171280435 1
    PT 45.893575842952 126.0171280435 1
    PT 47.798078855567 125.6093056227 1
    PT 49.708765319522 126.4276072880 1
    PT 51.607084880797 126.0171280435 1
    PT 53.511587893413 126.8407694033 1
    PT 55.403724003348 124.8015287376 1
    PT 57.326777369982 126.4276072880 1
    PT 59.225096931258 125.6093056227 1
    PT 61.135783395213 126.0171280435 1
    PT 63.040286407828 125.6093056227 1
    PT 64.950972871783 126.8407694033 1
    PT 66.843108981718 125.6093056227 1
    PT 68.753795445673 126.0171280435 1
    PT 70.658298458288 126.0171280435 1
    PT 72.562801470903 126.0171280435 1
    PT 74.467304483518 126.0171280435 1
    PT 78.276310508749 126.0171280435 1
    PT 80.180813521364 126.4276072880 1
    PT 82.079133082639 125.6093056227 1
    PT 83.989819546594 125.6093056227 1
    PT 85.900506010549 126.8407694033 1
    PT 87.792642120484 125.6093056227 1
    PT 89.703328584439 126.0171280435 1
    PT 91.607831597054 126.0171280435 1
    PT 93.512334609669 125.2041143142 1
    PT 95.429204524964 126.8407694033 1
    PT 97.321340634900 125.6093056227 1
    PT 99.232027098854 126.8407694033 1
    PT 101.124163208790 125.2041143142 1
    PT 103.041033124085 126.0171280435 1
    PT 104.945536136700 126.0171280435 1
    PT 106.850039149315 126.0171280435 1
    PT 108.754542161930 126.8407694033 1
    PT 110.646678271866 125.2041143142 1
    PT 112.563548187160 125.6093056227 1
    PT 114.474234651115 126.4276072880 1
    PT 116.372554212390 125.6093056227 1
    PT 118.283240676345 126.0171280435 1
    PT 120.187743688960 126.8407694033 1
    PT 122.079879798896 125.2041143142 1
    PT 123.996749714190 126.4276072880 1
    PT 125.895069275466 126.4276072880 1
    PT 127.793388836741 125.6093056227 1
    PT 129.704075300696 125.6093056227 1
    PT 131.614761764651 126.4276072880 1
    PT 133.513081325926 125.6093056227 1
    PT 135.423767789881 126.0171280435 1
    PT 137.328270802496 126.0171280435 1
    PT 139.232773815111 126.4276072880 1
    PT 141.131093376387 125.6093056227 1
    PT 143.041779840341 126.0171280435 1
    PT 144.946282852956 126.4276072880 1
    PT 146.844602414232 125.6093056227 1
    PT 148.755288878187 126.0171280435 1
    PT 150.659791890802 126.0171280435 1
    PT 152.564294903417 126.0171280435 1
    PT 154.468797916032 126.2296471696 1
    PT 156.370094524090 126.2144216342 1
    PT 158.271620489922 125.6093056227 1
    PT 160.182306953877 126.0171280435 1
    PT 162.086809966492 126.0171280435 1
    PT 163.991312979107 126.0171280435 1
    PT 165.895815991723 126.4276072880 1
    PT 167.794135552998 125.6093056227 1
    PT 169.704822016953 126.0171280435 1
    PT 171.609325029568 125.6093056227 1
    PT 173.520011493523 126.0171280435 1
    PT 175.424514506138 126.8407694033 1
    PT 177.316650616073 125.2041143142 1
    PT 179.233520531368 126.0171280435 1
    PT 181.138023543983 126.0171280435 1
    PT 183.042526556598 126.4276072880 1
    PT 184.940846117874 126.4276072880 1
    PT 186.839165679149 125.6093056227 1
    PT 188.749852143104 126.0171280435 1
    PT 190.654355155719 126.0171280435 1
    PT 192.558858168334 126.0171280435 1
    PT 194.463361180949 125.6093056227 1
    PT 196.374047644904 126.4276072880 1
    PT 198.272367206179 125.6093056227 1
    PT 200.183053670134 126.4276072880 1
    PT 202.081373231409 126.4276072880 1
    PT 203.979692792685 125.6093056227 1
    PT 205.890379256640 125.6093056227 1
    PT 207.801065720594 126.8407694033 1
    PT 209.693201830530 125.2041143142 1
    PT 211.610071745825 125.2041143142 1
  >
  <PROJBAY
  >
  <TRACK '{4D889F49-FE1F-4D1D-9FB8-BFD5BA06901A}'
    NAME "SONG AUDIO"
    PEAKCOL 16576
    BEAT -1
    AUTOMODE 0
    VOLPAN 1.00000000000000 0.00000000000000 -1.00000000000000 -1.00000000000000 1.00000000000000
    MUTESOLO 0 0 0
    IPHASE 0
    ISBUS 0 0
    BUSCOMP 0 0
    SHOWINMIX 1 0.666700 0.500000 1 0.500000 -1 -1 -1
    FREEMODE 0
    SEL 0
    REC 0 0 0 0 0 0 0
    TRACKHEIGHT 0 0
    INQ 0 0 0 0.5000000000 100 0 0 100
    NCHAN 2
    FX 1
    TRACKID {4D889F49-FE1F-4D1D-9FB8-BFD5BA06901A}
    PERF 0
    MIDIOUT -1
    MAINSEND 1 0
    <FXCHAIN
      SHOW 0
      LASTSEL 0
      DOCKED 0
      BYPASS 0 0
      <VST "VST: W1 Limiter (George Yohng)" "George Yohng_s W1 Limiter.dll" 0 ""
        THdGNO5e7f4CAAAAAQAAAAAAAAACAAAAAAAAAAIAAAABAAAAAAAAAA==
        AgAAAAAAAABMAAAAAQAAAAAAEAAMAACBdGhyZXNoAAD+1Hg/DAAAgQ==
        Y2VpbGluZwD+1Hg/DAAAgXJlbGVhc2UAMEAfPxQAAIFhZGFwdFJlbA==
        ZWFzZQAAAAAAAAAAAAAAgAAAEAAAAA==
      >
      FLOATPOS 24 24 481 152
      FXID {D32BE511-3942-4A83-B6D7-DF2FE763A2B4}
      WAK 0
    >
    <ITEM
      POSITION 0.00000000000000
      SNAPOFFS 0.00000000000000
      LENGTH 0.28216019417451
      LOOP 0
      ALLTAKES 0
      SEL 0
      FADEIN 1 0.000000 0.000000 1 0
      FADEOUT 1 0.000000 0.000000 1 0
      MUTE 0
      IGUID {D829F3DA-0BE5-4277-954B-C2D10DB114A6}
      IID 1
      NAME "stick.wav"
      VOLPAN 0.271028 0.000000 1.000000 -1.000000
      SOFFS 0.00000000000000
      PLAYRATE 1.00000000000052 1 0.00000000000000 -1
      CHANMODE 0
      GUID {3A242298-C3E5-4DC8-9A3C-2EE82D8D2134}
      <SOURCE WAVE
        FILE "C:\Users\wejaa\AppData\Roaming\REAPER\ProjectTemplates\hihat.wav"
      >
    >
    <ITEM
      POSITION 0.96000000000000
      SNAPOFFS 0.00000000000000
      LENGTH 0.28216019417451
      LOOP 0
      ALLTAKES 0
      SEL 0
      FADEIN 1 0.000000 0.000000 1 0
      FADEOUT 1 0.000000 0.000000 1 0
      MUTE 0
      IGUID {5AEC5162-2B2C-4FF2-BB3B-E29ADC0916FE}
      IID 2
      NAME "stick.wav"
      VOLPAN 0.271028 0.000000 1.000000 -1.000000
      SOFFS 0.00000000000000
      PLAYRATE 1.00000000000052 1 0.00000000000000 -1
      CHANMODE 0
      GUID {16E29BEE-96F5-48F0-9FB0-3F04A1AF90D5}
      <SOURCE WAVE
        FILE "C:\Users\wejaa\AppData\Roaming\REAPER\ProjectTemplates\hihat.wav"
      >
    >
    <ITEM
      POSITION 1.92000000000000
      SNAPOFFS 0.00000000000000
      LENGTH 0.28216019417451
      LOOP 0
      ALLTAKES 0
      SEL 0
      FADEIN 1 0.000000 0.000000 1 0
      FADEOUT 1 0.000000 0.000000 1 0
      MUTE 0
      IGUID {1FA8F8C4-F448-4E02-B340-4A6644F6D8AB}
      IID 3
      NAME "stick.wav"
      VOLPAN 0.271028 0.000000 1.000000 -1.000000
      SOFFS 0.00000000000000
      PLAYRATE 1.00000000000052 1 0.00000000000000 -1
      CHANMODE 0
      GUID {8D594F7C-8B39-4D29-A27D-55F46BC65189}
      <SOURCE WAVE
        FILE "C:\Users\wejaa\AppData\Roaming\REAPER\ProjectTemplates\hihat.wav"
      >
    >
    <ITEM
      POSITION 2.40000000000000
      SNAPOFFS 0.00000000000000
      LENGTH 0.28216019417451
      LOOP 0
      ALLTAKES 0
      SEL 0
      FADEIN 1 0.000000 0.000000 1 0
      FADEOUT 1 0.000000 0.000000 1 0
      MUTE 0
      IGUID {1D23FF37-8166-4C8E-915E-19EFDB52B4D8}
      IID 4
      NAME "stick.wav"
      VOLPAN 0.271028 0.000000 1.000000 -1.000000
      SOFFS 0.00000000000000
      PLAYRATE 1.00000000000052 1 0.00000000000000 -1
      CHANMODE 0
      GUID {1D91F480-CA0B-4E03-8204-02893D660CDF}
      <SOURCE WAVE
        FILE "C:\Users\wejaa\AppData\Roaming\REAPER\ProjectTemplates\hihat.wav"
      >
    >
    <ITEM
      POSITION 2.88000000000000
      SNAPOFFS 0.00000000000000
      LENGTH 0.28216019417451
      LOOP 0
      ALLTAKES 0
      SEL 0
      FADEIN 1 0.000000 0.000000 1 0
      FADEOUT 1 0.000000 0.000000 1 0
      MUTE 0
      IGUID {A6BA2F37-4089-4BF2-A73E-A602F32B7614}
      IID 5
      NAME "stick.wav"
      VOLPAN 0.271028 0.000000 1.000000 -1.000000
      SOFFS 0.00000000000000
      PLAYRATE 1.00000000000050 1 0.00000000000000 -1
      CHANMODE 0
      GUID {ABD24FE2-95CA-428E-ADD9-9A13921FCC29}
      <SOURCE WAVE
        FILE "C:\Users\wejaa\AppData\Roaming\REAPER\ProjectTemplates\hihat.wav"
      >
    >
    <ITEM
      POSITION 3.36000000000000
      SNAPOFFS 0.00000000000000
      LENGTH 0.28216019417451
      LOOP 0
      ALLTAKES 0
      SEL 0
      FADEIN 1 0.000000 0.000000 1 0
      FADEOUT 1 0.000000 0.000000 1 0
      MUTE 0
      IGUID {49CCEEAD-12F1-472E-8B9C-48A90BF6E20A}
      IID 6
      NAME "stick.wav"
      VOLPAN 0.271028 0.000000 1.000000 -1.000000
      SOFFS 0.00000000000000
      PLAYRATE 1.00000000000052 1 0.00000000000000 -1
      CHANMODE 0
      GUID {3DFEA1C1-AD72-4DF8-A1BD-3977672F4D80}
      <SOURCE WAVE
        FILE "C:\Users\wejaa\AppData\Roaming\REAPER\ProjectTemplates\hihat.wav"
      >
    >
    <ITEM
      POSITION 3.73480460915429
      SNAPOFFS 0.00000000000000
      LENGTH 212.85333333333332
      LOOP 0
      ALLTAKES 0
      SEL 0
      FADEIN 1 0.000000 0.000000 1 0
      FADEOUT 1 0.000000 0.000000 1 0
      MUTE 0
      IGUID {A3F53E02-53D0-42E3-906B-7669B9A02B89}
      IID 26
      NAME "09 Gimme More (sid).wav"
      VOLPAN 1.000000 0.000000 1.000000 -1.000000
      SOFFS 0.00000000000000
      PLAYRATE 1.00000000000000 1 0.00000000000000 -1
      CHANMODE 0
      GUID {63522508-8280-4762-B947-E1FD932DC458}
      <SOURCE WAVE
        FILE "09 Gimme More (sid).wav"
      >
    >
  >
  <TRACK '{BDCFF37A-71AC-4D17-AF26-EA560B308842}'
    NAME "COUNTIN"
    PEAKCOL 16576
    BEAT -1
    AUTOMODE 0
    VOLPAN 1.00000000000000 0.00000000000000 -1.00000000000000 -1.00000000000000 1.00000000000000
    MUTESOLO 0 0 0
    IPHASE 0
    ISBUS 0 0
    BUSCOMP 0 0
    SHOWINMIX 1 0.666700 0.500000 1 0.500000 -1 -1 -1
    FREEMODE 0
    SEL 0
    REC 0 0 0 0 0 0 0
    TRACKHEIGHT 0 0
    INQ 0 0 0 0.5000000000 100 0 0 100
    NCHAN 2
    FX 1
    TRACKID {BDCFF37A-71AC-4D17-AF26-EA560B308842}
    PERF 0
    MIDIOUT -1
    MAINSEND 1 0
  >
  <TRACK '{9BD694DB-1C3D-4E5F-8FBD-965A2A047487}'
    NAME "1_mvsep_inst_(Drums)"
    PEAKCOL 16576
    BEAT -1
    AUTOMODE 0
    VOLPAN 1.00000000000000 0.00000000000000 -1.00000000000000 -1.00000000000000 1.00000000000000
    MUTESOLO 0 0 0
    IPHASE 0
    ISBUS 0 0
    BUSCOMP 0 0
    SHOWINMIX 1 0.666700 0.500000 1 0.500000 -1 -1 -1
    FREEMODE 0
    SEL 0
    REC 0 0 0 0 0 0 0
    VU 2
    TRACKHEIGHT 0 0
    INQ 0 0 0 0.5000000000 100 0 0 100
    NCHAN 2
    FX 1
    TRACKID {9BD694DB-1C3D-4E5F-8FBD-965A2A047487}
    PERF 0
    MIDIOUT -1
    MAINSEND 1 0
    <ITEM
      POSITION 3.73480460914843
      SNAPOFFS 0.00000000000000
      LENGTH 212.85333333333332
      LOOP 0
      ALLTAKES 0
      SEL 0
      FADEIN 1 0.000000 0.000000 1 0
      FADEOUT 1 0.000000 0.000000 1 0
      MUTE 0
      IGUID {9854F5C8-65B9-4CC1-A037-A80EF24E64E2}
      IID 27
      NAME "1_mvsep_inst_(Drums).wav"
      VOLPAN 1.000000 0.000000 1.000000 -1.000000
      SOFFS 0.00000000000000
      PLAYRATE 1.00000000000000 1 0.00000000000000 -1
      CHANMODE 0
      GUID {E693B9D9-E59C-4EA3-BF0F-E83ADFB53C2B}
      <SOURCE WAVE
        FILE "1_mvsep_inst_(Drums).wav"
      >
    >
  >
  <TRACK '{8F33A645-3DF2-48FA-99BC-10992A4F8042}'
    NAME "PART DRUMS"
    PEAKCOL 16842751
    BEAT -1
    AUTOMODE 0
    VOLPAN 1.00000000000000 0.00000000000000 -1.00000000000000 -1.00000000000000 1.00000000000000
    MUTESOLO 0 0 0
    IPHASE 0
    ISBUS 0 0
    BUSCOMP 1 0
    SHOWINMIX 1 0.666700 0.500000 1 0.500000 -1 -1 -1
    FREEMODE 0
    SEL 0
    REC 0 4096 1 7 0 0 0
    TRACKHEIGHT 0 0
    INQ 0 0 0 0.5000000000 100 0 0 100
    NCHAN 2
    FX 1
    TRACKID {8F33A645-3DF2-48FA-99BC-10992A4F8042}
    PERF 0
    MIDIOUT -1
    <MIDINOTENAMES
      0 84 "HARD Kick"
      0 96 "EXPERT Kick"
      0 72 "MEDIUM Kick"
      0 60 "EASY Kick"
      0 97 "EXPERT Red"
      0 98 "EXPERT Yellow"
      0 99 "EXPERT Blue"
      0 100 "EXPERT Green"
      0 85 "HARD Red"
      0 86 "HARD Yellow"
      0 87 "HARD Blue"
      0 88 "HARD Green"
      0 73 "MEDIUM Red"
      0 74 "MEDIUM Yellow"
      0 75 "MEDIUM Blue"
      0 76 "MEDIUM Green"
      0 61 "EASY Red"
      0 62 "EASY Yellow"
      0 63 "EASY Blue"
      0 64 "EASY Green"
      0 101 ""
      0 92 "----"
      0 80 "----"
      0 68 "----"
      0 120 "DRUM FILL (use all 5)"
      0 121 "DRUM FILL"
      0 122 "DRUM FILL"
      0 123 "DRUM FILL"
      0 124 "DRUM FILL"
      0 114 "----"
      0 116 "OVERDRIVE"
      0 118 "----"
      0 24 "KICK RF"
      0 25 "HI-HAT OPEN"
      0 26 "SNARE HARD LH"
      0 27 "SNARE HARD RH"
      0 30 "HI-HAT LH"
      0 31 "HI-HAT RH"
      0 32 "PERCUSSION RH"
      0 34 "CRASH1 HARD LH"
      0 35 "CRASH1 SOFT LH"
      0 36 "CRASH1 HARD RH"
      0 37 "CRASH1 SOFT RH"
      0 38 "CRASH2 HARD RH"
      0 39 "CRASH2 SOFT RH"
      0 40 "CRASH1 CHOKE"
      0 41 "CRASH2 CHOKE"
      0 42 "RIDE CYM RH"
      0 46 "TOM1 LH"
      0 47 "TOM1 RH"
      0 48 "TOM2 LH"
      0 49 "TOM2 RH"
      0 50 "FLOOR TOM LH"
      0 51 "FLOOR TOM RH"
      0 52 "--DRUM ANIMATION--"
      0 56 "----"
      0 103 "Solo Marker"
      0 102 "----"
      0 110 "PRO Yellow Tom"
      0 111 "PRO Blue Tom"
      0 112 "PRO Green Tom"
      0 108 "----"
      0 127 "Roll Marker 2-Lane / Cym"
      0 126 "Roll Marker 1-Lane"
      0 125 "----"
      0 28 "SNARE RIM LH"
      0 29 "SNARE RIM RH"
      0 43 "RIDE CYM LH"
      0 44 "CRASH2 HARD LH"
      0 45 "CRASH2 SOFT LH"
      0 33 "PERCUSSION LH"
    >
    MAINSEND 1 0
    <FXCHAIN
      WNDRECT -938 600 870 1005
      SHOW 0
      LASTSEL 1
      DOCKED 0
      BYPASS 1 0
      <VST "VSTi: ReaSynth (Cockos)" "reasynth.dll" 0 ""
        eXNlcu9e7f4AAAAAAgAAAAEAAAAAAAAAAgAAAAAAAAA4AAAAAAAAAA==
        AAAAAO++rd4N8K3eAAAAAAAAAAAAAAAAAAAAADm0SD59y9s+tbSxOQ==
        AAAAALbz/T5VpCs6AAAAAAAAAAAAAAAAAAA=
      >
      FLOATPOS 0 0 0 0
      FXID {58F55556-9407-4062-A048-6AFCC0B53535}
      WAK 0
      BYPASS 0 0
      <VST "VSTi: RBN Preview (RBN)" "rbprev_vst64_beta.dll" 0 ""
        dnBicu5e7f4AAAAAAgAAAAEAAAAAAAAAAgAAAAAAAAAEAAAAAQAAAA==
        AAAAAAMBqgAAAAAAAAA=
      >
      FLOATPOS 32 32 659 497
      FXID {D7126437-AB1E-4109-A0FA-F2D5D0AC68DC}
      WAK 0
    >
    <ITEM
      POSITION 0.00000000000000
      SNAPOFFS 0.00000000000000
      LENGTH 216.50020226584050
      LOOP 0
      ALLTAKES 0
      COLOR 19150555
      SEL 0
      FADEIN 1 0.000000 0.000000 1 0
      FADEOUT 1 0.000000 0.000000 1 0
      MUTE 0
      IGUID {9FF11F36-E94F-4396-9C0E-8449C916EC21}
      IID 7
      NAME "PART DRUMS"
      VOLPAN 1.000000 0.000000 1.000000 -1.000000
      SOFFS 0.00000000000000 0.00000000000000
      PLAYRATE 1.00000000000000 1 0.00000000000000 -65536
      CHANMODE 0
      GUID {70A79ADF-E70C-430A-913F-E16D0CC85517}
      <SOURCE MIDI
        HASDATA 1 480 QN
        POOLEDEVTS {4122E117-8AA0-427A-97F2-0BC9D6FD156C}
        <X 0 0
          /wNQQVJUIERSVU1T
        >
        <X 300 0
          /wFbbWl4IDEgZHJ1bXMwXQ==
        >
        <X 0 0
          /wFbbWl4IDAgZHJ1bXMwXQ==
        >
        <X 60 0
          /wFbbWl4IDIgZHJ1bXMwXQ==
        >
        <X 60 0
          /wFbbWl4IDMgZHJ1bXMwXQ==
        >
        <X 3420 0
          /wFbcGxheV0=
        >
        E 1440 90 3e 60
        E 0 90 48 60
        E 0 90 4a 60
        E 0 90 54 60
        E 0 90 56 60
        E 0 90 60 60
        E 0 90 62 60
        E 0 90 18 60
        E 0 90 1f 60
        E 60 80 3e 00
        E 0 80 48 00
        E 0 80 4a 00
        E 0 80 54 00
        E 0 80 56 00
        E 0 80 60 00
        E 0 80 62 00
        E 0 80 18 00
        E 0 80 1f 00
        E 420 90 3e 60
        E 0 90 48 60
        E 0 90 4a 60
        E 0 90 54 60
        E 0 90 56 60
        E 0 90 60 60
        E 0 90 62 60
        E 0 90 18 60
        E 0 90 1f 60
        E 60 80 3e 00
        E 0 80 48 00
        E 0 80 4a 00
        E 0 80 54 00
        E 0 80 56 00
        E 0 80 60 00
        E 0 80 62 00
        E 0 80 18 00
        E 0 80 1f 00
        E 420 90 3e 60
        E 0 90 48 60
        E 0 90 4a 60
        E 0 90 54 60
        E 0 90 56 60
        E 0 90 60 60
        E 0 90 62 60
        E 0 90 18 60
        E 0 90 1f 60
        E 60 80 3e 00
        E 0 80 48 00
        E 0 80 4a 00
        E 0 80 54 00
        E 0 80 56 00
        E 0 80 60 00
        E 0 80 62 00
        E 0 80 18 00
        E 0 80 1f 00
        E 300 90 62 60
        E 0 90 63 60
        E 0 90 6f 60
        E 0 90 31 60
        E 0 90 1e 60
        E 60 80 62 00
        E 0 80 63 00
        E 0 80 6f 00
        E 0 80 31 00
        E 0 80 1e 00
        E 60 90 3e 60
        E 0 90 48 60
        E 0 90 4a 60
        E 0 90 54 60
        E 0 90 56 60
        E 0 90 60 60
        E 0 90 62 60
        E 0 90 18 60
        E 0 90 1f 60
        E 60 80 3e 00
        E 0 80 48 00
        E 0 80 4a 00
        E 0 80 54 00
        E 0 80 56 00
        E 0 80 60 00
        E 0 80 62 00
        E 0 80 18 00
        E 0 80 1f 00
        E 300 90 62 60
        E 0 90 63 60
        E 0 90 6f 60
        E 0 90 31 60
        E 0 90 1e 60
        E 60 80 62 00
        E 0 80 63 00
        E 0 80 6f 00
        E 0 80 31 00
        E 0 80 1e 00
        E 60 90 3e 60
        E 0 90 48 60
        E 0 90 4a 60
        E 0 90 54 60
        E 0 90 56 60
        E 0 90 60 60
        E 0 90 62 60
        E 0 90 18 60
        E 0 90 1f 60
        E 60 80 3e 00
        E 0 80 48 00
        E 0 80 4a 00
        E 0 80 54 00
        E 0 80 56 00
        E 0 80 60 00
        E 0 80 62 00
        E 0 80 18 00
        E 0 80 1f 00
        E 420 90 40 60
        E 0 90 4c 60
        E 0 90 54 60
        E 0 90 58 60
        E 0 90 60 60
        E 0 90 64 60
        E 0 90 70 60
        E 0 90 18 60
        E 0 90 33 60
        E 60 80 40 00
        E 0 80 4c 00
        E 0 80 54 00
        E 0 80 58 00
        E 0 80 60 00
        E 0 80 64 00
        E 0 80 70 00
        E 0 80 18 00
        E 0 80 33 00
        E 420 90 3e 60
        E 0 90 48 60
        E 0 90 4a 60
        E 0 90 54 60
        E 0 90 56 60
        E 0 90 60 60
        E 0 90 62 60
        E 0 90 18 60
        E 0 90 1f 60
        E 60 80 3e 00
        E 0 80 48 00
        E 0 80 4a 00
        E 0 80 54 00
        E 0 80 56 00
        E 0 80 60 00
        E 0 80 62 00
        E 0 80 18 00
        E 0 80 1f 00
        E 420 90 40 60
        E 0 90 4c 60
        E 0 90 54 60
        E 0 90 58 60
        E 0 90 60 60
        E 0 90 64 60
        E 0 90 70 60
        E 0 90 18 60
        E 0 90 33 60
        E 60 80 40 00
        E 0 80 4c 00
        E 0 80 54 00
        E 0 80 58 00
        E 0 80 60 00
        E 0 80 64 00
        E 0 80 70 00
        E 0 80 18 00
        E 0 80 33 00
        E 420 90 3e 60
        E 0 90 48 60
        E 0 90 4a 60
        E 0 90 54 60
        E 0 90 56 60
        E 0 90 60 60
        E 0 90 62 60
        E 0 90 18 60
        E 0 90 1f 60
        E 60 80 3e 00
        E 0 80 48 00
        E 0 80 4a 00
        E 0 80 54 00
        E 0 80 56 00
        E 0 80 60 00
        E 0 80 62 00
        E 0 80 18 00
        E 0 80 1f 00
        E 420 90 40 60
        E 0 90 4c 60
        E 0 90 54 60
        E 0 90 58 60
        E 0 90 60 60
        E 0 90 64 60
        E 0 90 70 60
        E 0 90 18 60
        E 0 90 33 60
        E 60 80 40 00
        E 0 80 4c 00
        E 0 80 54 00
        E 0 80 58 00
        E 0 80 60 00
        E 0 80 64 00
        E 0 80 70 00
        E 0 80 18 00
        E 0 80 33 00
        E 420 90 3e 60
        E 0 90 48 60
        E 0 90 4a 60
        E 0 90 54 60
        E 0 90 56 60
        E 0 90 60 60
        E 0 90 62 60
        E 0 90 18 60
        E 0 90 1f 60
        E 60 80 3e 00
        E 0 80 48 00
        E 0 80 4a 00
        E 0 80 54 00
        E 0 80 56 00
        E 0 80 60 00
        E 0 80 62 00
        E 0 80 18 00
        E 0 80 1f 00
        E 420 90 40 60
        E 0 90 4c 60
        E 0 90 54 60
        E 0 90 58 60
        E 0 90 60 60
        E 0 90 64 60
        E 0 90 70 60
        E 0 90 18 60
        E 0 90 33 60
        E 60 80 40 00
        E 0 80 4c 00
        E 0 80 54 00
        E 0 80 58 00
        E 0 80 60 00
        E 0 80 64 00
        E 0 80 70 00
        E 0 80 18 00
        E 0 80 33 00
        E 420 90 3e 60
        E 0 90 48 60
        E 0 90 4a 60
        E 0 90 54 60
        E 0 90 56 60
        E 0 90 60 60
        E 0 90 62 60
        E 0 90 18 60
        E 0 90 1f 60
        E 60 80 3e 00
        E 0 80 48 00
        E 0 80 4a 00
        E 0 80 54 00
        E 0 80 56 00
        E 0 80 60 00
        E 0 80 62 00
        E 0 80 18 00
        E 0 80 1f 00
        E 420 90 40 60
        E 0 90 4c 60
        E 0 90 54 60
        E 0 90 58 60
        E 0 90 60 60
        E 0 90 64 60
        E 0 90 70 60
        E 0 90 18 60
        E 0 90 33 60
        E 60 80 40 00
        E 0 80 4c 00
        E 0 80 54 00
        E 0 80 58 00
        E 0 80 60 00
        E 0 80 64 00
        E 0 80 70 00
        E 0 80 18 00
        E 0 80 33 00
        E 420 90 3e 60
        E 0 90 48 60
        E 0 90 4a 60
        E 0 90 54 60
        E 0 90 56 60
        E 0 90 60 60
        E 0 90 62 60
        E 0 90 18 60
        E 0 90 1f 60
        E 60 80 3e 00
        E 0 80 48 00
        E 0 80 4a 00
        E 0 80 54 00
        E 0 80 56 00
        E 0 80 60 00
        E 0 80 62 00
        E 0 80 18 00
        E 0 80 1f 00
        E 420 90 40 60
        E 0 90 4c 60
        E 0 90 54 60
        E 0 90 58 60
        E 0 90 60 60
        E 0 90 64 60
        E 0 90 70 60
        E 0 90 18 60
        E 0 90 33 60
        E 60 80 40 00
        E 0 80 4c 00
        E 0 80 54 00
        E 0 80 58 00
        E 0 80 60 00
        E 0 80 64 00
        E 0 80 70 00
        E 0 80 18 00
        E 0 80 33 00
        E 420 90 3e 60
        E 0 90 48 60
        E 0 90 4a 60
        E 0 90 54 60
        E 0 90 56 60
        E 0 90 60 60
        E 0 90 62 60
        E 0 90 18 60
        E 0 90 1f 60
        E 60 80 3e 00
        E 0 80 48 00
        E 0 80 4a 00
        E 0 80 54 00
        E 0 80 56 00
        E 0 80 60 00
        E 0 80 62 00
        E 0 80 18 00
        E 0 80 1f 00
        E 420 90 40 60
        E 0 90 4c 60
        E 0 90 54 60
        E 0 90 58 60
        E 0 90 60 60
        E 0 90 64 60
        E 0 90 70 60
        E 0 90 18 60
        E 0 90 33 60
        E 60 80 40 00
        E 0 80 4c 00
        E 0 80 54 00
        E 0 80 58 00
        E 0 80 60 00
        E 0 80 64 00
        E 0 80 70 00
        E 0 80 18 00
        E 0 80 33 00
        E 420 90 3e 60
        E 0 90 48 60
        E 0 90 4a 60
        E 0 90 54 60
        E 0 90 56 60
        E 0 90 60 60
        E 0 90 62 60
        E 0 90 18 60
        E 0 90 1f 60
        E 60 80 3e 00
        E 0 80 48 00
        E 0 80 4a 00
        E 0 80 54 00
        E 0 80 56 00
        E 0 80 60 00
        E 0 80 62 00
        E 0 80 18 00
        E 0 80 1f 00
        E 900 90 40 60
        E 0 90 48 60
        E 0 90 4c 60
        E 0 90 54 60
        E 0 90 58 60
        E 0 90 60 60
        E 0 90 64 60
        E 0 90 18 60
        E 0 90 26 60
        E 60 80 40 00
        E 0 80 48 00
        E 0 80 4c 00
        E 0 80 54 00
        E 0 80 58 00
        E 0 80 60 00
        E 0 80 64 00
        E 0 80 18 00
        E 0 80 26 00
        E 180 90 56 60
        E 0 90 62 60
        E 0 90 1f 60
        E 60 80 56 00
        E 0 80 62 00
        E 0 80 1f 00
        E 180 90 3d 60
        E 0 90 3e 60
        E 0 90 49 60
        E 0 90 4a 60
        E 0 90 55 60
        E 0 90 56 60
        E 0 90 61 60
        E 0 90 62 60
        E 0 90 1a 60
        E 0 90 1f 60
        E 60 80 3d 00
        E 0 80 3e 00
        E 0 80 49 00
        E 0 80 4a 00
        E 0 80 55 00
        E 0 80 56 00
        E 0 80 61 00
        E 0 80 62 00
        E 0 80 1a 00
        E 0 80 1f 00
        E 180 90 56 60
        E 0 90 62 60
        E 0 90 1f 60
        E 60 80 56 00
        E 0 80 62 00
        E 0 80 1f 00
        E 180 90 3e 60
        E 0 90 48 60
        E 0 90 4a 60
        E 0 90 54 60
        E 0 90 56 60
        E 0 90 60 60
        E 0 90 62 60
        E 0 90 18 60
        E 0 90 1f 60
        E 60 80 3e 00
        E 0 80 48 00
        E 0 80 4a 00
        E 0 80 54 00
        E 0 80 56 00
        E 0 80 60 00
        E 0 80 62 00
        E 0 80 18 00
        E 0 80 1f 00
        E 180 90 56 60
        E 0 90 62 60
        E 0 90 1f 60
        E 60 80 56 00
        E 0 80 62 00
        E 0 80 1f 00
        E 180 90 3d 60
        E 0 90 3e 60
        E 0 90 49 60
        E 0 90 4a 60
        E 0 90 55 60
        E 0 90 56 60
        E 0 90 61 60
        E 0 90 62 60
        E 0 90 1a 60
        E 0 90 1f 60
        E 60 80 3d 00
        E 0 80 3e 00
        E 0 80 49 00
        E 0 80 4a 00
        E 0 80 55 00
        E 0 80 56 00
        E 0 80 61 00
        E 0 80 62 00
        E 0 80 1a 00
        E 0 80 1f 00
        E 180 90 56 60
        E 0 90 62 60
        E 0 90 1f 60
        E 60 80 56 00
        E 0 80 62 00
        E 0 80 1f 00
        E 180 90 3e 60
        E 0 90 48 60
        E 0 90 4a 60
        E 0 90 54 60
        E 0 90 56 60
        E 0 90 60 60
        E 0 90 62 60
        E 0 90 18 60
        E 0 90 1f 60
        E 60 80 3e 00
        E 0 80 48 00
        E 0 80 4a 00
        E 0 80 54 00
        E 0 80 56 00
        E 0 80 60 00
        E 0 80 62 00
        E 0 80 18 00
        E 0 80 1f 00
        E 180 90 56 60
        E 0 90 62 60
        E 0 90 1f 60
        E 60 80 56 00
        E 0 80 62 00
        E 0 80 1f 00
        E 180 90 3d 60
        E 0 90 3e 60
        E 0 90 49 60
        E 0 90 4a 60
        E 0 90 55 60
        E 0 90 56 60
        E 0 90 61 60
        E 0 90 62 60
        E 0 90 1a 60
        E 0 90 1f 60
        E 60 80 3d 00
        E 0 80 3e 00
        E 0 80 49 00
        E 0 80 4a 00
        E 0 80 55 00
        E 0 80 56 00
        E 0 80 61 00
        E 0 80 62 00
        E 0 80 1a 00
        E 0 80 1f 00
        E 180 90 56 60
        E 0 90 62 60
        E 0 90 1f 60
        E 60 80 56 00
        E 0 80 62 00
        E 0 80 1f 00
        E 180 90 3e 60
        E 0 90 48 60
        E 0 90 4a 60
        E 0 90 54 60
        E 0 90 56 60
        E 0 90 60 60
        E 0 90 62 60
        E 0 90 18 60
        E 0 90 1f 60
        E 60 80 3e 00
        E 0 80 48 00
        E 0 80 4a 00
        E 0 80 54 00
        E 0 80 56 00
        E 0 80 60 00
        E 0 80 62 00
        E 0 80 18 00
        E 0 80 1f 00
        E 180 90 56 60
        E 0 90 62 60
        E 0 90 1f 60
        E 60 80 56 00
        E 0 80 62 00
        E 0 80 1f 00
        E 180 90 3d 60
        E 0 90 3e 60
        E 0 90 49 60
        E 0 90 4a 60
        E 0 90 55 60
        E 0 90 56 60
        E 0 90 61 60
        E 0 90 62 60
        E 0 90 1a 60
        E 0 90 1f 60
        E 60 80 3d 00
        E 0 80 3e 00
        E 0 80 49 00
        E 0 80 4a 00
        E 0 80 55 00
        E 0 80 56 00
        E 0 80 61 00
        E 0 80 62 00
        E 0 80 1a 00
        E 0 80 1f 00
        E 180 90 56 60
        E 0 90 62 60
        E 0 90 1f 60
        E 60 80 56 00
        E 0 80 62 00
        E 0 80 1f 00
        E 180 90 40 60
        E 0 90 48 60
        E 0 90 4c 60
        E 0 90 54 60
        E 0 90 58 60
        E 0 90 60 60
        E 0 90 64 60
        E 0 90 18 60
        E 0 90 26 60
        E 60 80 40 00
        E 0 80 48 00
        E 0 80 4c 00
        E 0 80 54 00
        E 0 80 58 00
        E 0 80 60 00
        E 0 80 64 00
        E 0 80 18 00
        E 0 80 26 00
        E 180 90 56 60
        E 0 90 62 60
        E 0 90 1f 60
        E 60 80 56 00
        E 0 80 62 00
        E 0 80 1f 00
        E 180 90 3d 60
        E 0 90 3e 60
        E 0 90 49 60
        E 0 90 4a 60
        E 0 90 55 60
        E 0 90 56 60
        E 0 90 61 60
        E 0 90 62 60
        E 0 90 1a 60
        E 0 90 1f 60
        E 60 80 3d 00
        E 0 80 3e 00
        E 0 80 49 00
        E 0 80 4a 00
        E 0 80 55 00
        E 0 80 56 00
        E 0 80 61 00
        E 0 80 62 00
        E 0 80 1a 00
        E 0 80 1f 00
        E 180 90 56 60
        E 0 90 62 60
        E 0 90 1f 60
        E 60 80 56 00
        E 0 80 62 00
        E 0 80 1f 00
        E 180 90 3f 60
        E 0 90 48 60
        E 0 90 4b 60
        E 0 90 54 60
        E 0 90 57 60
        E 0 90 60 60
        E 0 90 63 60
        E 0 90 74 60
        E 0 90 18 60
        E 0 90 2a 60
        E 60 80 3f 00
        E 0 80 48 00
        E 0 80 4b 00
        E 0 80 54 00
        E 0 80 57 00
        E 0 80 60 00
        E 0 80 63 00
        E 0 80 18 00
        E 0 80 2a 00
        E 180 90 56 60
        E 0 90 62 60
        E 0 90 1f 60
        E 60 80 56 00
        E 0 80 62 00
        E 0 80 1f 00
        E 180 90 3d 60
        E 0 90 3e 60
        E 0 90 49 60
        E 0 90 4a 60
        E 0 90 55 60
        E 0 90 56 60
        E 0 90 61 60
        E 0 90 62 60
        E 0 90 1a 60
        E 0 90 1f 60
        E 60 80 3d 00
        E 0 80 3e 00
        E 0 80 49 00
        E 0 80 4a 00
        E 0 80 55 00
        E 0 80 56 00
        E 0 80 61 00
        E 0 80 62 00
        E 0 80 1a 00
        E 0 80 1f 00
        E 180 90 56 60
        E 0 90 62 60
        E 0 90 1f 60
        E 60 80 56 00
        E 0 80 62 00
        E 0 80 1f 00
        E 180 90 40 60
        E 0 90 48 60
        E 0 90 4c 60
        E 0 90 54 60
        E 0 90 58 60
        E 0 90 60 60
        E 0 90 64 60
        E 0 90 18 60
        E 0 90 26 60
        E 60 80 74 00
        E 0 80 40 00
        E 0 80 48 00
        E 0 80 4c 00
        E 0 80 54 00
        E 0 80 58 00
        E 0 80 60 00
        E 0 80 64 00
        E 0 80 18 00
        E 0 80 26 00
        E 180 90 56 60
        E 0 90 62 60
        E 0 90 1f 60
        E 60 80 56 00
        E 0 80 62 00
        E 0 80 1f 00
        E 180 90 3d 60
        E 0 90 3e 60
        E 0 90 49 60
        E 0 90 4a 60
        E 0 90 55 60
        E 0 90 56 60
        E 0 90 61 60
        E 0 90 62 60
        E 0 90 1a 60
        E 0 90 1f 60
        E 60 80 3d 00
        E 0 80 3e 00
        E 0 80 49 00
        E 0 80 4a 00
        E 0 80 55 00
        E 0 80 56 00
        E 0 80 61 00
        E 0 80 62 00
        E 0 80 1a 00
        E 0 80 1f 00
        E 180 90 56 60
        E 0 90 62 60
        E 0 90 1f 60
        E 60 80 56 00
        E 0 80 62 00
        E 0 80 1f 00
        E 180 90 3f 60
        E 0 90 48 60
        E 0 90 4b 60
        E 0 90 54 60
        E 0 90 57 60
        E 0 90 60 60
        E 0 90 63 60
        E 0 90 18 60
        E 0 90 2a 60
        E 60 80 3f 00
        E 0 80 48 00
        E 0 80 4b 00
        E 0 80 54 00
        E 0 80 57 00
        E 0 80 60 00
        E 0 80 63 00
        E 0 80 18 00
        E 0 80 2a 00
        E 180 90 56 60
        E 0 90 62 60
        E 0 90 1f 60
        E 60 80 56 00
        E 0 80 62 00
        E 0 80 1f 00
        E 180 90 3d 60
        E 0 90 3e 60
        E 0 90 49 60
        E 0 90 4a 60
        E 0 90 55 60
        E 0 90 56 60
        E 0 90 61 60
        E 0 90 62 60
        E 0 90 1a 60
        E 0 90 1f 60
        E 60 80 3d 00
        E 0 80 3e 00
        E 0 80 49 00
        E 0 80 4a 00
        E 0 80 55 00
        E 0 80 56 00
        E 0 80 61 00
        E 0 80 62 00
        E 0 80 1a 00
        E 0 80 1f 00
        E 180 90 56 60
        E 0 90 62 60
        E 0 90 1f 60
        E 60 80 56 00
        E 0 80 62 00
        E 0 80 1f 00
        E 180 90 40 60
        E 0 90 48 60
        E 0 90 4c 60
        E 0 90 54 60
        E 0 90 58 60
        E 0 90 60 60
        E 0 90 64 60
        E 0 90 18 60
        E 0 90 26 60
        E 60 80 40 00
        E 0 80 48 00
        E 0 80 4c 00
        E 0 80 54 00
        E 0 80 58 00
        E 0 80 60 00
        E 0 80 64 00
        E 0 80 18 00
        E 0 80 26 00
        E 180 90 56 60
        E 0 90 62 60
        E 0 90 1f 60
        E 60 80 56 00
        E 0 80 62 00
        E 0 80 1f 00
        E 180 90 3d 60
        E 0 90 3e 60
        E 0 90 49 60
        E 0 90 4a 60
        E 0 90 55 60
        E 0 90 56 60
        E 0 90 61 60
        E 0 90 62 60
        E 0 90 1a 60
        E 0 90 1f 60
        E 60 80 3d 00
        E 0 80 3e 00
        E 0 80 49 00
        E 0 80 4a 00
        E 0 80 55 00
        E 0 80 56 00
        E 0 80 61 00
        E 0 80 62 00
        E 0 80 1a 00
        E 0 80 1f 00
        E 180 90 56 60
        E 0 90 62 60
        E 0 90 1f 60
        E 60 80 56 00
        E 0 80 62 00
        E 0 80 1f 00
        E 180 90 3e 60
        E 0 90 48 60
        E 0 90 4a 60
        E 0 90 54 60
        E 0 90 56 60
        E 0 90 60 60
        E 0 90 62 60
        E 0 90 18 60
        E 0 90 1f 60
        E 60 80 3e 00
        E 0 80 48 00
        E 0 80 4a 00
        E 0 80 54 00
        E 0 80 56 00
        E 0 80 60 00
        E 0 80 62 00
        E 0 80 18 00
        E 0 80 1f 00
        E 180 90 56 60
        E 0 90 62 60
        E 0 90 1f 60
        E 60 80 56 00
        E 0 80 62 00
        E 0 80 1f 00
        E 180 90 3d 60
        E 0 90 3e 60
        E 0 90 49 60
        E 0 90 4a 60
        E 0 90 55 60
        E 0 90 56 60
        E 0 90 61 60
        E 0 90 62 60
        E 0 90 1a 60
        E 0 90 1f 60
        E 60 80 3d 00
        E 0 80 3e 00
        E 0 80 49 00
        E 0 80 4a 00
        E 0 80 55 00
        E 0 80 56 00
        E 0 80 61 00
        E 0 80 62 00
        E 0 80 1a 00
        E 0 80 1f 00
        E 180 90 56 60
        E 0 90 62 60
        E 0 90 1f 60
        E 60 80 56 00
        E 0 80 62 00
        E 0 80 1f 00
        E 180 90 3e 60
        E 0 90 48 60
        E 0 90 4a 60
        E 0 90 54 60
        E 0 90 56 60
        E 0 90 60 60
        E 0 90 62 60
        E 0 90 18 60
        E 0 90 1f 60
        E 60 80 3e 00
        E 0 80 48 00
        E 0 80 4a 00
        E 0 80 54 00
        E 0 80 56 00
        E 0 80 60 00
        E 0 80 62 00
        E 0 80 18 00
        E 0 80 1f 00
        E 180 90 56 60
        E 0 90 62 60
        E 0 90 1f 60
        E 60 80 56 00
        E 0 80 62 00
        E 0 80 1f 00
        E 180 90 3d 60
        E 0 90 3e 60
        E 0 90 49 60
        E 0 90 4a 60
        E 0 90 55 60
        E 0 90 56 60
        E 0 90 61 60
        E 0 90 62 60
        E 0 90 1a 60
        E 0 90 1f 60
        E 60 80 3d 00
        E 0 80 3e 00
        E 0 80 49 00
        E 0 80 4a 00
        E 0 80 55 00
        E 0 80 56 00
        E 0 80 61 00
        E 0 80 62 00
        E 0 80 1a 00
        E 0 80 1f 00
        E 180 90 56 60
        E 0 90 62 60
        E 0 90 1f 60
        E 60 80 56 00
        E 0 80 62 00
        E 0 80 1f 00
        E 180 90 3e 60
        E 0 90 48 60
        E 0 90 4a 60
        E 0 90 54 60
        E 0 90 56 60
        E 0 90 60 60
        E 0 90 62 60
        E 0 90 18 60
        E 0 90 1f 60
        E 60 80 3e 00
        E 0 80 48 00
        E 0 80 4a 00
        E 0 80 54 00
        E 0 80 56 00
        E 0 80 60 00
        E 0 80 62 00
        E 0 80 18 00
        E 0 80 1f 00
        E 180 90 56 60
        E 0 90 62 60
        E 0 90 1f 60
        E 60 80 56 00
        E 0 80 62 00
        E 0 80 1f 00
        E 180 90 3d 60
        E 0 90 3e 60
        E 0 90 49 60
        E 0 90 4a 60
        E 0 90 55 60
        E 0 90 56 60
        E 0 90 61 60
        E 0 90 62 60
        E 0 90 1a 60
        E 0 90 1f 60
        E 60 80 3d 00
        E 0 80 3e 00
        E 0 80 49 00
        E 0 80 4a 00
        E 0 80 55 00
        E 0 80 56 00
        E 0 80 61 00
        E 0 80 62 00
        E 0 80 1a 00
        E 0 80 1f 00
        E 180 90 56 60
        E 0 90 62 60
        E 0 90 1f 60
        E 60 80 56 00
        E 0 80 62 00
        E 0 80 1f 00
        E 180 90 40 60
        E 0 90 48 60
        E 0 90 4c 60
        E 0 90 54 60
        E 0 90 58 60
        E 0 90 60 60
        E 0 90 64 60
        E 0 90 18 60
        E 0 90 26 60
        E 60 80 40 00
        E 0 80 48 00
        E 0 80 4c 00
        E 0 80 54 00
        E 0 80 58 00
        E 0 80 60 00
        E 0 80 64 00
        E 0 80 18 00
        E 0 80 26 00
        E 180 90 56 60
        E 0 90 62 60
        E 0 90 1f 60
        E 60 80 56 00
        E 0 80 62 00
        E 0 80 1f 00
        E 180 90 3d 60
        E 0 90 3e 60
        E 0 90 49 60
        E 0 90 4a 60
        E 0 90 55 60
        E 0 90 56 60
        E 0 90 61 60
        E 0 90 62 60
        E 0 90 1a 60
        E 0 90 1f 60
        E 60 80 3d 00
        E 0 80 3e 00
        E 0 80 49 00
        E 0 80 4a 00
        E 0 80 55 00
        E 0 80 56 00
        E 0 80 61 00
        E 0 80 62 00
        E 0 80 1a 00
        E 0 80 1f 00
        E 180 90 56 60
        E 0 90 62 60
        E 0 90 1f 60
        E 60 80 56 00
        E 0 80 62 00
        E 0 80 1f 00
        E 180 90 3f 60
        E 0 90 48 60
        E 0 90 4b 60
        E 0 90 54 60
        E 0 90 57 60
        E 0 90 60 60
        E 0 90 63 60
        E 0 90 18 60
        E 0 90 2a 60
        E 60 80 3f 00
        E 0 80 48 00
        E 0 80 4b 00
        E 0 80 54 00
        E 0 80 57 00
        E 0 80 60 00
        E 0 80 63 00
        E 0 80 18 00
        E 0 80 2a 00
        E 180 90 56 60
        E 0 90 62 60
        E 0 90 1f 60
        E 60 80 56 00
        E 0 80 62 00
        E 0 80 1f 00
        E 180 90 3d 60
        E 0 90 3e 60
        E 0 90 49 60
        E 0 90 4a 60
        E 0 90 55 60
        E 0 90 56 60
        E 0 90 61 60
        E 0 90 62 60
        E 0 90 1a 60
        E 0 90 1f 60
        E 60 80 3d 00
        E 0 80 3e 00
        E 0 80 49 00
        E 0 80 4a 00
        E 0 80 55 00
        E 0 80 56 00
        E 0 80 61 00
        E 0 80 62 00
        E 0 80 1a 00
        E 0 80 1f 00
        E 180 90 56 60
        E 0 90 62 60
        E 0 90 1f 60
        E 60 80 56 00
        E 0 80 62 00
        E 0 80 1f 00
        E 180 90 40 60
        E 0 90 48 60
        E 0 90 4c 60
        E 0 90 54 60
        E 0 90 58 60
        E 0 90 60 60
        E 0 90 64 60
        E 0 90 18 60
        E 0 90 26 60
        E 60 80 40 00
        E 0 80 48 00
        E 0 80 4c 00
        E 0 80 54 00
        E 0 80 58 00
        E 0 80 60 00
        E 0 80 64 00
        E 0 80 18 00
        E 0 80 26 00
        E 180 90 56 60
        E 0 90 62 60
        E 0 90 1f 60
        E 60 80 56 00
        E 0 80 62 00
        E 0 80 1f 00
        E 180 90 3d 60
        E 0 90 3e 60
        E 0 90 49 60
        E 0 90 4a 60
        E 0 90 55 60
        E 0 90 56 60
        E 0 90 61 60
        E 0 90 62 60
        E 0 90 1a 60
        E 0 90 1f 60
        E 60 80 3d 00
        E 0 80 3e 00
        E 0 80 49 00
        E 0 80 4a 00
        E 0 80 55 00
        E 0 80 56 00
        E 0 80 61 00
        E 0 80 62 00
        E 0 80 1a 00
        E 0 80 1f 00
        E 180 90 56 60
        E 0 90 62 60
        E 0 90 1f 60
        E 60 80 56 00
        E 0 80 62 00
        E 0 80 1f 00
        E 180 90 3e 60
        E 0 90 48 60
        E 0 90 4a 60
        E 0 90 54 60
        E 0 90 56 60
        E 0 90 60 60
        E 0 90 62 60
        E 0 90 18 60
        E 0 90 1f 60
        E 60 80 3e 00
        E 0 80 48 00
        E 0 80 4a 00
        E 0 80 54 00
        E 0 80 56 00
        E 0 80 60 00
        E 0 80 62 00
        E 0 80 18 00
        E 0 80 1f 00
        E 180 90 55 60
        E 0 90 56 60
        E 0 90 61 60
        E 0 90 62 60
        E 0 90 1a 60
        E 0 90 1f 60
        E 60 80 55 00
        E 0 80 56 00
        E 0 80 61 00
        E 0 80 62 00
        E 0 80 1a 00
        E 0 80 1f 00
        E 180 90 3d 60
        E 0 90 3e 60
        E 0 90 49 60
        E 0 90 4a 60
        E 0 90 55 60
        E 0 90 56 60
        E 0 90 61 60
        E 0 90 62 60
        E 0 90 1a 60
        E 0 90 1f 60
        E 60 80 3d 00
        E 0 80 3e 00
        E 0 80 49 00
        E 0 80 4a 00
        E 0 80 55 00
        E 0 80 56 00
        E 0 80 61 00
        E 0 80 62 00
        E 0 80 1a 00
        E 0 80 1f 00
        E 420 90 3e 60
        E 0 90 48 60
        E 0 90 4a 60
        E 0 90 54 60
        E 0 90 56 60
        E 0 90 60 60
        E 0 90 62 60
        E 0 90 18 60
        E 0 90 1f 60
        E 60 80 3e 00
        E 0 80 48 00
        E 0 80 4a 00
        E 0 80 54 00
        E 0 80 56 00
        E 0 80 60 00
        E 0 80 62 00
        E 0 80 18 00
        E 0 80 1f 00
        E 420 90 40 60
        E 0 90 4c 60
        E 0 90 54 60
        E 0 90 58 60
        E 0 90 60 60
        E 0 90 64 60
        E 0 90 70 60
        E 0 90 18 60
        E 0 90 33 60
        E 60 80 40 00
        E 0 80 4c 00
        E 0 80 54 00
        E 0 80 58 00
        E 0 80 60 00
        E 0 80 64 00
        E 0 80 70 00
        E 0 80 18 00
        E 0 80 33 00
        E 420 90 3e 60
        E 0 90 48 60
        E 0 90 4a 60
        E 0 90 54 60
        E 0 90 56 60
        E 0 90 60 60
        E 0 90 62 60
        E 0 90 18 60
        E 0 90 1f 60
        E 60 80 3e 00
        E 0 80 48 00
        E 0 80 4a 00
        E 0 80 54 00
        E 0 80 56 00
        E 0 80 60 00
        E 0 80 62 00
        E 0 80 18 00
        E 0 80 1f 00
        E 420 90 40 60
        E 0 90 4c 60
        E 0 90 54 60
        E 0 90 58 60
        E 0 90 60 60
        E 0 90 64 60
        E 0 90 70 60
        E 0 90 18 60
        E 0 90 33 60
        E 60 80 40 00
        E 0 80 4c 00
        E 0 80 54 00
        E 0 80 58 00
        E 0 80 60 00
        E 0 80 64 00
        E 0 80 70 00
        E 0 80 18 00
        E 0 80 33 00
        E 420 90 3e 60
        E 0 90 48 60
        E 0 90 4a 60
        E 0 90 54 60
        E 0 90 56 60
        E 0 90 60 60
        E 0 90 62 60
        E 0 90 18 60
        E 0 90 1f 60
        E 60 80 3e 00
        E 0 80 48 00
        E 0 80 4a 00
        E 0 80 54 00
        E 0 80 56 00
        E 0 80 60 00
        E 0 80 62 00
        E 0 80 18 00
        E 0 80 1f 00
        E 420 90 40 60
        E 0 90 4c 60
        E 0 90 54 60
        E 0 90 58 60
        E 0 90 60 60
        E 0 90 64 60
        E 0 90 70 60
        E 0 90 18 60
        E 0 90 33 60
        E 60 80 40 00
        E 0 80 4c 00
        E 0 80 54 00
        E 0 80 58 00
        E 0 80 60 00
        E 0 80 64 00
        E 0 80 70 00
        E 0 80 18 00
        E 0 80 33 00
        E 420 90 3e 60
        E 0 90 48 60
        E 0 90 4a 60
        E 0 90 54 60
        E 0 90 56 60
        E 0 90 60 60
        E 0 90 62 60
        E 0 90 18 60
        E 0 90 1f 60
        E 60 80 3e 00
        E 0 80 48 00
        E 0 80 4a 00
        E 0 80 54 00
        E 0 80 56 00
        E 0 80 60 00
        E 0 80 62 00
        E 0 80 18 00
        E 0 80 1f 00
        E 420 90 40 60
        E 0 90 4c 60
        E 0 90 54 60
        E 0 90 58 60
        E 0 90 60 60
        E 0 90 64 60
        E 0 90 70 60
        E 0 90 18 60
        E 0 90 33 60
        E 60 80 40 00
        E 0 80 4c 00
        E 0 80 54 00
        E 0 80 58 00
        E 0 80 60 00
        E 0 80 64 00
        E 0 80 70 00
        E 0 80 18 00
        E 0 80 33 00
        E 420 90 3e 60
        E 0 90 48 60
        E 0 90 4a 60
        E 0 90 54 60
        E 0 90 56 60
        E 0 90 60 60
        E 0 90 62 60
        E 0 90 18 60
        E 0 90 1f 60
        E 60 80 3e 00
        E 0 80 48 00
        E 0 80 4a 00
        E 0 80 54 00
        E 0 80 56 00
        E 0 80 60 00
        E 0 80 62 00
        E 0 80 18 00
        E 0 80 1f 00
        E 420 90 40 60
        E 0 90 4c 60
        E 0 90 54 60
        E 0 90 58 60
        E 0 90 60 60
        E 0 90 64 60
        E 0 90 70 60
        E 0 90 18 60
        E 0 90 33 60
        E 60 80 40 00
        E 0 80 4c 00
        E 0 80 54 00
        E 0 80 58 00
        E 0 80 60 00
        E 0 80 64 00
        E 0 80 70 00
        E 0 80 18 00
        E 0 80 33 00
        E 420 90 3e 60
        E 0 90 48 60
        E 0 90 4a 60
        E 0 90 54 60
        E 0 90 56 60
        E 0 90 60 60
        E 0 90 62 60
        E 0 90 18 60
        E 0 90 1f 60
        E 60 80 3e 00
        E 0 80 48 00
        E 0 80 4a 00
        E 0 80 54 00
        E 0 80 56 00
        E 0 80 60 00
        E 0 80 62 00
        E 0 80 18 00
        E 0 80 1f 00
        E 420 90 40 60
        E 0 90 4c 60
        E 0 90 54 60
        E 0 90 58 60
        E 0 90 60 60
        E 0 90 64 60
        E 0 90 70 60
        E 0 90 18 60
        E 0 90 33 60
        E 60 80 40 00
        E 0 80 4c 00
        E 0 80 54 00
        E 0 80 58 00
        E 0 80 60 00
        E 0 80 64 00
        E 0 80 70 00
        E 0 80 18 00
        E 0 80 33 00
        E 420 90 3e 60
        E 0 90 48 60
        E 0 90 4a 60
        E 0 90 54 60
        E 0 90 56 60
        E 0 90 60 60
        E 0 90 62 60
        E 0 90 18 60
        E 0 90 1f 60
        E 60 80 3e 00
        E 0 80 48 00
        E 0 80 4a 00
        E 0 80 54 00
        E 0 80 56 00
        E 0 80 60 00
        E 0 80 62 00
        E 0 80 18 00
        E 0 80 1f 00
        E 420 90 40 60
        E 0 90 4c 60
        E 0 90 54 60
        E 0 90 58 60
        E 0 90 60 60
        E 0 90 64 60
        E 0 90 70 60
        E 0 90 18 60
        E 0 90 33 60
        E 60 80 40 00
        E 0 80 4c 00
        E 0 80 54 00
        E 0 80 58 00
        E 0 80 60 00
        E 0 80 64 00
        E 0 80 70 00
        E 0 80 18 00
        E 0 80 33 00
        E 420 90 3e 60
        E 0 90 48 60
        E 0 90 4a 60
        E 0 90 54 60
        E 0 90 56 60
        E 0 90 60 60
        E 0 90 62 60
        E 0 90 18 60
        E 0 90 1f 60
        E 60 80 3e 00
        E 0 80 48 00
        E 0 80 4a 00
        E 0 80 54 00
        E 0 80 56 00
        E 0 80 60 00
        E 0 80 62 00
        E 0 80 18 00
        E 0 80 1f 00
        E 420 90 40 60
        E 0 90 4c 60
        E 0 90 54 60
        E 0 90 58 60
        E 0 90 60 60
        E 0 90 64 60
        E 0 90 70 60
        E 0 90 18 60
        E 0 90 33 60
        E 60 80 40 00
        E 0 80 4c 00
        E 0 80 54 00
        E 0 80 58 00
        E 0 80 60 00
        E 0 80 64 00
        E 0 80 70 00
        E 0 80 18 00
        E 0 80 33 00
        E 420 90 3e 60
        E 0 90 48 60
        E 0 90 4a 60
        E 0 90 54 60
        E 0 90 56 60
        E 0 90 60 60
        E 0 90 62 60
        E 0 90 74 60
        E 0 90 18 60
        E 0 90 1f 60
        E 60 80 3e 00
        E 0 80 48 00
        E 0 80 4a 00
        E 0 80 54 00
        E 0 80 56 00
        E 0 80 60 00
        E 0 80 62 00
        E 0 80 18 00
        E 0 80 1f 00
        E 420 90 40 60
        E 0 90 4c 60
        E 0 90 54 60
        E 0 90 58 60
        E 0 90 60 60
        E 0 90 64 60
        E 0 90 70 60
        E 0 90 18 60
        E 0 90 33 60
        E 60 80 40 00
        E 0 80 4c 00
        E 0 80 54 00
        E 0 80 58 00
        E 0 80 60 00
        E 0 80 64 00
        E 0 80 70 00
        E 0 80 18 00
        E 0 80 33 00
        E 60 80 74 00
        E 360 90 3e 60
        E 0 90 48 60
        E 0 90 4a 60
        E 0 90 54 60
        E 0 90 56 60
        E 0 90 60 60
        E 0 90 62 60
        E 0 90 18 60
        E 0 90 1f 60
        E 60 80 3e 00
        E 0 80 48 00
        E 0 80 4a 00
        E 0 80 54 00
        E 0 80 56 00
        E 0 80 60 00
        E 0 80 62 00
        E 0 80 18 00
        E 0 80 1f 00
        E 420 90 40 60
        E 0 90 4c 60
        E 0 90 54 60
        E 0 90 58 60
        E 0 90 60 60
        E 0 90 64 60
        E 0 90 70 60
        E 0 90 18 60
        E 0 90 33 60
        E 60 80 40 00
        E 0 80 4c 00
        E 0 80 54 00
        E 0 80 58 00
        E 0 80 60 00
        E 0 80 64 00
        E 0 80 70 00
        E 0 80 18 00
        E 0 80 33 00
        E 420 90 3e 60
        E 0 90 48 60
        E 0 90 4a 60
        E 0 90 54 60
        E 0 90 56 60
        E 0 90 60 60
        E 0 90 62 60
        E 0 90 18 60
        E 0 90 1f 60
        E 60 80 3e 00
        E 0 80 48 00
        E 0 80 4a 00
        E 0 80 54 00
        E 0 80 56 00
        E 0 80 60 00
        E 0 80 62 00
        E 0 80 18 00
        E 0 80 1f 00
        E 420 90 40 60
        E 0 90 4c 60
        E 0 90 54 60
        E 0 90 58 60
        E 0 90 60 60
        E 0 90 64 60
        E 0 90 70 60
        E 0 90 18 60
        E 0 90 33 60
        E 60 80 40 00
        E 0 80 4c 00
        E 0 80 54 00
        E 0 80 58 00
        E 0 80 60 00
        E 0 80 64 00
        E 0 80 70 00
        E 0 80 18 00
        E 0 80 33 00
        E 420 90 3e 60
        E 0 90 48 60
        E 0 90 4a 60
        E 0 90 54 60
        E 0 90 56 60
        E 0 90 60 60
        E 0 90 62 60
        E 0 90 18 60
        E 0 90 1f 60
        E 60 80 3e 00
        E 0 80 48 00
        E 0 80 4a 00
        E 0 80 54 00
        E 0 80 56 00
        E 0 80 60 00
        E 0 80 62 00
        E 0 80 18 00
        E 0 80 1f 00
        E 420 90 40 60
        E 0 90 4c 60
        E 0 90 54 60
        E 0 90 58 60
        E 0 90 60 60
        E 0 90 64 60
        E 0 90 70 60
        E 0 90 18 60
        E 0 90 33 60
        E 60 80 40 00
        E 0 80 4c 00
        E 0 80 54 00
        E 0 80 58 00
        E 0 80 60 00
        E 0 80 64 00
        E 0 80 70 00
        E 0 80 18 00
        E 0 80 33 00
        E 420 90 3e 60
        E 0 90 48 60
        E 0 90 4a 60
        E 0 90 54 60
        E 0 90 56 60
        E 0 90 60 60
        E 0 90 62 60
        E 0 90 18 60
        E 0 90 1f 60
        E 60 80 3e 00
        E 0 80 48 00
        E 0 80 4a 00
        E 0 80 54 00
        E 0 80 56 00
        E 0 80 60 00
        E 0 80 62 00
        E 0 80 18 00
        E 0 80 1f 00
        E 420 90 40 60
        E 0 90 4c 60
        E 0 90 54 60
        E 0 90 58 60
        E 0 90 60 60
        E 0 90 64 60
        E 0 90 70 60
        E 0 90 18 60
        E 0 90 33 60
        E 60 80 40 00
        E 0 80 4c 00
        E 0 80 54 00
        E 0 80 58 00
        E 0 80 60 00
        E 0 80 64 00
        E 0 80 70 00
        E 0 80 18 00
        E 0 80 33 00
        E 420 90 3e 60
        E 0 90 48 60
        E 0 90 4a 60
        E 0 90 54 60
        E 0 90 56 60
        E 0 90 60 60
        E 0 90 62 60
        E 0 90 18 60
        E 0 90 1f 60
        E 60 80 3e 00
        E 0 80 48 00
        E 0 80 4a 00
        E 0 80 54 00
        E 0 80 56 00
        E 0 80 60 00
        E 0 80 62 00
        E 0 80 18 00
        E 0 80 1f 00
        E 420 90 40 60
        E 0 90 4c 60
        E 0 90 54 60
        E 0 90 58 60
        E 0 90 60 60
        E 0 90 64 60
        E 0 90 70 60
        E 0 90 18 60
        E 0 90 33 60
        E 60 80 40 00
        E 0 80 4c 00
        E 0 80 54 00
        E 0 80 58 00
        E 0 80 60 00
        E 0 80 64 00
        E 0 80 70 00
        E 0 80 18 00
        E 0 80 33 00
        E 420 90 3e 60
        E 0 90 48 60
        E 0 90 4a 60
        E 0 90 54 60
        E 0 90 56 60
        E 0 90 60 60
        E 0 90 62 60
        E 0 90 18 60
        E 0 90 1f 60
        E 60 80 3e 00
        E 0 80 48 00
        E 0 80 4a 00
        E 0 80 54 00
        E 0 80 56 00
        E 0 80 60 00
        E 0 80 62 00
        E 0 80 18 00
        E 0 80 1f 00
        E 420 90 40 60
        E 0 90 4c 60
        E 0 90 54 60
        E 0 90 58 60
        E 0 90 60 60
        E 0 90 64 60
        E 0 90 70 60
        E 0 90 18 60
        E 0 90 33 60
        E 60 80 40 00
        E 0 80 4c 00
        E 0 80 54 00
        E 0 80 58 00
        E 0 80 60 00
        E 0 80 64 00
        E 0 80 70 00
        E 0 80 18 00
        E 0 80 33 00
        E 420 90 3e 60
        E 0 90 48 60
        E 0 90 4a 60
        E 0 90 54 60
        E 0 90 56 60
        E 0 90 60 60
        E 0 90 62 60
        E 0 90 18 60
        E 0 90 1f 60
        E 60 80 3e 00
        E 0 80 48 00
        E 0 80 4a 00
        E 0 80 54 00
        E 0 80 56 00
        E 0 80 60 00
        E 0 80 62 00
        E 0 80 18 00
        E 0 80 1f 00
        E 420 90 40 60
        E 0 90 4c 60
        E 0 90 54 60
        E 0 90 58 60
        E 0 90 60 60
        E 0 90 64 60
        E 0 90 70 60
        E 0 90 78 60
        E 0 90 79 60
        E 0 90 7a 60
        E 0 90 7b 60
        E 0 90 7c 60
        E 0 90 18 60
        E 0 90 33 60
        E 60 80 40 00
        E 0 80 4c 00
        E 0 80 54 00
        E 0 80 58 00
        E 0 80 60 00
        E 0 80 64 00
        E 0 80 70 00
        E 0 80 18 00
        E 0 80 33 00
        E 420 80 78 00
        E 0 80 79 00
        E 0 80 7a 00
        E 0 80 7b 00
        E 0 80 7c 00
        E 0 90 40 60
        E 0 90 48 60
        E 0 90 4c 60
        E 0 90 54 60
        E 0 90 58 60
        E 0 90 60 60
        E 0 90 64 60
        E 0 90 18 60
        E 0 90 26 60
        E 60 80 40 00
        E 0 80 48 00
        E 0 80 4c 00
        E 0 80 54 00
        E 0 80 58 00
        E 0 80 60 00
        E 0 80 64 00
        E 0 80 18 00
        E 0 80 26 00
        E 180 90 56 60
        E 0 90 62 60
        E 0 90 1f 60
        E 60 80 56 00
        E 0 80 62 00
        E 0 80 1f 00
        E 180 90 3d 60
        E 0 90 3e 60
        E 0 90 49 60
        E 0 90 4a 60
        E 0 90 55 60
        E 0 90 56 60
        E 0 90 61 60
        E 0 90 62 60
        E 0 90 1a 60
        E 0 90 1f 60
        E 60 80 3d 00
        E 0 80 3e 00
        E 0 80 49 00
        E 0 80 4a 00
        E 0 80 55 00
        E 0 80 56 00
        E 0 80 61 00
        E 0 80 62 00
        E 0 80 1a 00
        E 0 80 1f 00
        E 180 90 56 60
        E 0 90 62 60
        E 0 90 1f 60
        E 60 80 56 00
        E 0 80 62 00
        E 0 80 1f 00
        E 180 90 3e 60
        E 0 90 48 60
        E 0 90 4a 60
        E 0 90 54 60
        E 0 90 56 60
        E 0 90 60 60
        E 0 90 62 60
        E 0 90 18 60
        E 0 90 1f 60
        E 60 80 3e 00
        E 0 80 48 00
        E 0 80 4a 00
        E 0 80 54 00
        E 0 80 56 00
        E 0 80 60 00
        E 0 80 62 00
        E 0 80 18 00
        E 0 80 1f 00
        E 180 90 56 60
        E 0 90 62 60
        E 0 90 1f 60
        E 60 80 56 00
        E 0 80 62 00
        E 0 80 1f 00
        E 180 90 3d 60
        E 0 90 3e 60
        E 0 90 49 60
        E 0 90 4a 60
        E 0 90 55 60
        E 0 90 56 60
        E 0 90 61 60
        E 0 90 62 60
        E 0 90 1a 60
        E 0 90 1f 60
        E 60 80 3d 00
        E 0 80 3e 00
        E 0 80 49 00
        E 0 80 4a 00
        E 0 80 55 00
        E 0 80 56 00
        E 0 80 61 00
        E 0 80 62 00
        E 0 80 1a 00
        E 0 80 1f 00
        E 180 90 56 60
        E 0 90 62 60
        E 0 90 1f 60
        E 60 80 56 00
        E 0 80 62 00
        E 0 80 1f 00
        E 180 90 3e 60
        E 0 90 48 60
        E 0 90 4a 60
        E 0 90 54 60
        E 0 90 56 60
        E 0 90 60 60
        E 0 90 62 60
        E 0 90 18 60
        E 0 90 1f 60
        E 60 80 3e 00
        E 0 80 48 00
        E 0 80 4a 00
        E 0 80 54 00
        E 0 80 56 00
        E 0 80 60 00
        E 0 80 62 00
        E 0 80 18 00
        E 0 80 1f 00
        E 180 90 56 60
        E 0 90 62 60
        E 0 90 1f 60
        E 60 80 56 00
        E 0 80 62 00
        E 0 80 1f 00
        E 180 90 3d 60
        E 0 90 3e 60
        E 0 90 49 60
        E 0 90 4a 60
        E 0 90 55 60
        E 0 90 56 60
        E 0 90 61 60
        E 0 90 62 60
        E 0 90 1a 60
        E 0 90 1f 60
        E 60 80 3d 00
        E 0 80 3e 00
        E 0 80 49 00
        E 0 80 4a 00
        E 0 80 55 00
        E 0 80 56 00
        E 0 80 61 00
        E 0 80 62 00
        E 0 80 1a 00
        E 0 80 1f 00
        E 180 90 56 60
        E 0 90 62 60
        E 0 90 1f 60
        E 60 80 56 00
        E 0 80 62 00
        E 0 80 1f 00
        E 180 90 3e 60
        E 0 90 48 60
        E 0 90 4a 60
        E 0 90 54 60
        E 0 90 56 60
        E 0 90 60 60
        E 0 90 62 60
        E 0 90 18 60
        E 0 90 1f 60
        E 60 80 3e 00
        E 0 80 48 00
        E 0 80 4a 00
        E 0 80 54 00
        E 0 80 56 00
        E 0 80 60 00
        E 0 80 62 00
        E 0 80 18 00
        E 0 80 1f 00
        E 180 90 56 60
        E 0 90 62 60
        E 0 90 1f 60
        E 60 80 56 00
        E 0 80 62 00
        E 0 80 1f 00
        E 180 90 3d 60
        E 0 90 3e 60
        E 0 90 49 60
        E 0 90 4a 60
        E 0 90 55 60
        E 0 90 56 60
        E 0 90 61 60
        E 0 90 62 60
        E 0 90 1a 60
        E 0 90 1f 60
        E 60 80 3d 00
        E 0 80 3e 00
        E 0 80 49 00
        E 0 80 4a 00
        E 0 80 55 00
        E 0 80 56 00
        E 0 80 61 00
        E 0 80 62 00
        E 0 80 1a 00
        E 0 80 1f 00
        E 180 90 56 60
        E 0 90 62 60
        E 0 90 1f 60
        E 60 80 56 00
        E 0 80 62 00
        E 0 80 1f 00
        E 180 90 40 60
        E 0 90 48 60
        E 0 90 4c 60
        E 0 90 54 60
        E 0 90 58 60
        E 0 90 60 60
        E 0 90 64 60
        E 0 90 18 60
        E 0 90 26 60
        E 60 80 40 00
        E 0 80 48 00
        E 0 80 4c 00
        E 0 80 54 00
        E 0 80 58 00
        E 0 80 60 00
        E 0 80 64 00
        E 0 80 18 00
        E 0 80 26 00
        E 180 90 56 60
        E 0 90 62 60
        E 0 90 1f 60
        E 60 80 56 00
        E 0 80 62 00
        E 0 80 1f 00
        E 180 90 3d 60
        E 0 90 3e 60
        E 0 90 49 60
        E 0 90 4a 60
        E 0 90 55 60
        E 0 90 56 60
        E 0 90 61 60
        E 0 90 62 60
        E 0 90 1a 60
        E 0 90 1f 60
        E 60 80 3d 00
        E 0 80 3e 00
        E 0 80 49 00
        E 0 80 4a 00
        E 0 80 55 00
        E 0 80 56 00
        E 0 80 61 00
        E 0 80 62 00
        E 0 80 1a 00
        E 0 80 1f 00
        E 180 90 56 60
        E 0 90 62 60
        E 0 90 1f 60
        E 60 80 56 00
        E 0 80 62 00
        E 0 80 1f 00
        E 180 90 3f 60
        E 0 90 48 60
        E 0 90 4b 60
        E 0 90 54 60
        E 0 90 57 60
        E 0 90 60 60
        E 0 90 63 60
        E 0 90 18 60
        E 0 90 2a 60
        E 60 80 3f 00
        E 0 80 48 00
        E 0 80 4b 00
        E 0 80 54 00
        E 0 80 57 00
        E 0 80 60 00
        E 0 80 63 00
        E 0 80 18 00
        E 0 80 2a 00
        E 60 90 74 5b
        E 120 90 56 60
        E 0 90 62 60
        E 0 90 1f 60
        E 60 80 56 00
        E 0 80 62 00
        E 0 80 1f 00
        E 180 90 3d 60
        E 0 90 3e 60
        E 0 90 49 60
        E 0 90 4a 60
        E 0 90 55 60
        E 0 90 56 60
        E 0 90 61 60
        E 0 90 62 60
        E 0 90 1a 60
        E 0 90 1f 60
        E 60 80 3d 00
        E 0 80 3e 00
        E 0 80 49 00
        E 0 80 4a 00
        E 0 80 55 00
        E 0 80 56 00
        E 0 80 61 00
        E 0 80 62 00
        E 0 80 1a 00
        E 0 80 1f 00
        E 180 90 56 60
        E 0 90 62 60
        E 0 90 1f 60
        E 60 80 56 00
        E 0 80 62 00
        E 0 80 1f 00
        E 180 90 40 60
        E 0 90 48 60
        E 0 90 4c 60
        E 0 90 54 60
        E 0 90 58 60
        E 0 90 60 60
        E 0 90 64 60
        E 0 90 18 60
        E 0 90 26 60
        E 60 80 40 00
        E 0 80 48 00
        E 0 80 4c 00
        E 0 80 54 00
        E 0 80 58 00
        E 0 80 60 00
        E 0 80 64 00
        E 0 80 18 00
        E 0 80 26 00
        E 180 90 56 60
        E 0 90 62 60
        E 0 90 1f 60
        E 60 80 56 00
        E 0 80 62 00
        E 0 80 1f 00
        E 180 90 3d 60
        E 0 90 3e 60
        E 0 90 49 60
        E 0 90 4a 60
        E 0 90 55 60
        E 0 90 56 60
        E 0 90 61 60
        E 0 90 62 60
        E 0 90 1a 60
        E 0 90 1f 60
        E 60 80 3d 00
        E 0 80 3e 00
        E 0 80 49 00
        E 0 80 4a 00
        E 0 80 55 00
        E 0 80 56 00
        E 0 80 61 00
        E 0 80 62 00
        E 0 80 1a 00
        E 0 80 1f 00
        E 180 90 56 60
        E 0 90 62 60
        E 0 90 1f 60
        E 60 80 74 00
        E 0 80 56 00
        E 0 80 62 00
        E 0 80 1f 00
        E 180 90 3f 60
        E 0 90 48 60
        E 0 90 4b 60
        E 0 90 54 60
        E 0 90 57 60
        E 0 90 60 60
        E 0 90 63 60
        E 0 90 18 60
        E 0 90 2a 60
        E 60 80 3f 00
        E 0 80 48 00
        E 0 80 4b 00
        E 0 80 54 00
        E 0 80 57 00
        E 0 80 60 00
        E 0 80 63 00
        E 0 80 18 00
        E 0 80 2a 00
        E 180 90 56 60
        E 0 90 62 60
        E 0 90 1f 60
        E 60 80 56 00
        E 0 80 62 00
        E 0 80 1f 00
        E 180 90 3d 60
        E 0 90 3e 60
        E 0 90 49 60
        E 0 90 4a 60
        E 0 90 55 60
        E 0 90 56 60
        E 0 90 61 60
        E 0 90 62 60
        E 0 90 1a 60
        E 0 90 1f 60
        E 60 80 3d 00
        E 0 80 3e 00
        E 0 80 49 00
        E 0 80 4a 00
        E 0 80 55 00
        E 0 80 56 00
        E 0 80 61 00
        E 0 80 62 00
        E 0 80 1a 00
        E 0 80 1f 00
        E 180 90 56 60
        E 0 90 62 60
        E 0 90 1f 60
        E 60 80 56 00
        E 0 80 62 00
        E 0 80 1f 00
        E 180 90 40 60
        E 0 90 48 60
        E 0 90 4c 60
        E 0 90 54 60
        E 0 90 58 60
        E 0 90 60 60
        E 0 90 64 60
        E 0 90 18 60
        E 0 90 26 60
        E 60 80 40 00
        E 0 80 48 00
        E 0 80 4c 00
        E 0 80 54 00
        E 0 80 58 00
        E 0 80 60 00
        E 0 80 64 00
        E 0 80 18 00
        E 0 80 26 00
        E 180 90 56 60
        E 0 90 62 60
        E 0 90 1f 60
        E 60 80 56 00
        E 0 80 62 00
        E 0 80 1f 00
        E 180 90 3d 60
        E 0 90 3e 60
        E 0 90 49 60
        E 0 90 4a 60
        E 0 90 55 60
        E 0 90 56 60
        E 0 90 61 60
        E 0 90 62 60
        E 0 90 1a 60
        E 0 90 1f 60
        E 60 80 3d 00
        E 0 80 3e 00
        E 0 80 49 00
        E 0 80 4a 00
        E 0 80 55 00
        E 0 80 56 00
        E 0 80 61 00
        E 0 80 62 00
        E 0 80 1a 00
        E 0 80 1f 00
        E 180 90 56 60
        E 0 90 62 60
        E 0 90 1f 60
        E 60 80 56 00
        E 0 80 62 00
        E 0 80 1f 00
        E 180 90 3e 60
        E 0 90 48 60
        E 0 90 4a 60
        E 0 90 54 60
        E 0 90 56 60
        E 0 90 60 60
        E 0 90 62 60
        E 0 90 18 60
        E 0 90 1f 60
        E 60 80 3e 00
        E 0 80 48 00
        E 0 80 4a 00
        E 0 80 54 00
        E 0 80 56 00
        E 0 80 60 00
        E 0 80 62 00
        E 0 80 18 00
        E 0 80 1f 00
        E 180 90 56 60
        E 0 90 62 60
        E 0 90 1f 60
        E 60 80 56 00
        E 0 80 62 00
        E 0 80 1f 00
        E 180 90 3d 60
        E 0 90 3e 60
        E 0 90 49 60
        E 0 90 4a 60
        E 0 90 55 60
        E 0 90 56 60
        E 0 90 61 60
        E 0 90 62 60
        E 0 90 1a 60
        E 0 90 1f 60
        E 60 80 3d 00
        E 0 80 3e 00
        E 0 80 49 00
        E 0 80 4a 00
        E 0 80 55 00
        E 0 80 56 00
        E 0 80 61 00
        E 0 80 62 00
        E 0 80 1a 00
        E 0 80 1f 00
        E 180 90 56 60
        E 0 90 62 60
        E 0 90 1f 60
        E 60 80 56 00
        E 0 80 62 00
        E 0 80 1f 00
        E 180 90 3e 60
        E 0 90 48 60
        E 0 90 4a 60
        E 0 90 54 60
        E 0 90 56 60
        E 0 90 60 60
        E 0 90 62 60
        E 0 90 18 60
        E 0 90 1f 60
        E 60 80 3e 00
        E 0 80 48 00
        E 0 80 4a 00
        E 0 80 54 00
        E 0 80 56 00
        E 0 80 60 00
        E 0 80 62 00
        E 0 80 18 00
        E 0 80 1f 00
        E 180 90 56 60
        E 0 90 62 60
        E 0 90 1f 60
        E 60 80 56 00
        E 0 80 62 00
        E 0 80 1f 00
        E 180 90 3d 60
        E 0 90 3e 60
        E 0 90 49 60
        E 0 90 4a 60
        E 0 90 55 60
        E 0 90 56 60
        E 0 90 61 60
        E 0 90 62 60
        E 0 90 1a 60
        E 0 90 1f 60
        E 60 80 3d 00
        E 0 80 3e 00
        E 0 80 49 00
        E 0 80 4a 00
        E 0 80 55 00
        E 0 80 56 00
        E 0 80 61 00
        E 0 80 62 00
        E 0 80 1a 00
        E 0 80 1f 00
        E 180 90 56 60
        E 0 90 62 60
        E 0 90 1f 60
        E 60 80 56 00
        E 0 80 62 00
        E 0 80 1f 00
        E 180 90 3e 60
        E 0 90 48 60
        E 0 90 4a 60
        E 0 90 54 60
        E 0 90 56 60
        E 0 90 60 60
        E 0 90 62 60
        E 0 90 18 60
        E 0 90 1f 60
        E 60 80 3e 00
        E 0 80 48 00
        E 0 80 4a 00
        E 0 80 54 00
        E 0 80 56 00
        E 0 80 60 00
        E 0 80 62 00
        E 0 80 18 00
        E 0 80 1f 00
        E 180 90 56 60
        E 0 90 62 60
        E 0 90 1f 60
        E 60 80 56 00
        E 0 80 62 00
        E 0 80 1f 00
        E 180 90 3d 60
        E 0 90 3e 60
        E 0 90 49 60
        E 0 90 4a 60
        E 0 90 55 60
        E 0 90 56 60
        E 0 90 61 60
        E 0 90 62 60
        E 0 90 78 60
        E 0 90 79 60
        E 0 90 7a 60
        E 0 90 7b 60
        E 0 90 7c 60
        E 0 90 1a 60
        E 0 90 1f 60
        E 60 80 3d 00
        E 0 80 3e 00
        E 0 80 49 00
        E 0 80 4a 00
        E 0 80 55 00
        E 0 80 56 00
        E 0 80 61 00
        E 0 80 62 00
        E 0 80 1a 00
        E 0 80 1f 00
        E 180 90 56 60
        E 0 90 62 60
        E 0 90 1f 60
        E 60 80 56 00
        E 0 80 62 00
        E 0 80 1f 00
        E 180 80 78 00
        E 0 80 79 00
        E 0 80 7a 00
        E 0 80 7b 00
        E 0 80 7c 00
        E 0 90 40 60
        E 0 90 48 60
        E 0 90 4c 60
        E 0 90 54 60
        E 0 90 58 60
        E 0 90 60 60
        E 0 90 64 60
        E 0 90 18 60
        E 0 90 26 60
        E 60 80 40 00
        E 0 80 48 00
        E 0 80 4c 00
        E 0 80 54 00
        E 0 80 58 00
        E 0 80 60 00
        E 0 80 64 00
        E 0 80 18 00
        E 0 80 26 00
        E 180 90 56 60
        E 0 90 62 60
        E 0 90 1f 60
        E 60 80 56 00
        E 0 80 62 00
        E 0 80 1f 00
        E 180 90 3d 60
        E 0 90 3e 60
        E 0 90 49 60
        E 0 90 4a 60
        E 0 90 55 60
        E 0 90 56 60
        E 0 90 61 60
        E 0 90 62 60
        E 0 90 1a 60
        E 0 90 1f 60
        E 60 80 3d 00
        E 0 80 3e 00
        E 0 80 49 00
        E 0 80 4a 00
        E 0 80 55 00
        E 0 80 56 00
        E 0 80 61 00
        E 0 80 62 00
        E 0 80 1a 00
        E 0 80 1f 00
        E 180 90 56 60
        E 0 90 62 60
        E 0 90 1f 60
        E 60 80 56 00
        E 0 80 62 00
        E 0 80 1f 00
        E 180 90 3f 60
        E 0 90 48 60
        E 0 90 4b 60
        E 0 90 54 60
        E 0 90 57 60
        E 0 90 60 60
        E 0 90 63 60
        E 0 90 18 60
        E 0 90 2a 60
        E 60 80 3f 00
        E 0 80 48 00
        E 0 80 4b 00
        E 0 80 54 00
        E 0 80 57 00
        E 0 80 60 00
        E 0 80 63 00
        E 0 80 18 00
        E 0 80 2a 00
        E 180 90 56 60
        E 0 90 62 60
        E 0 90 1f 60
        E 60 80 56 00
        E 0 80 62 00
        E 0 80 1f 00
        E 180 90 3d 60
        E 0 90 3e 60
        E 0 90 49 60
        E 0 90 4a 60
        E 0 90 55 60
        E 0 90 56 60
        E 0 90 61 60
        E 0 90 62 60
        E 0 90 1a 60
        E 0 90 1f 60
        E 60 80 3d 00
        E 0 80 3e 00
        E 0 80 49 00
        E 0 80 4a 00
        E 0 80 55 00
        E 0 80 56 00
        E 0 80 61 00
        E 0 80 62 00
        E 0 80 1a 00
        E 0 80 1f 00
        E 180 90 56 60
        E 0 90 62 60
        E 0 90 1f 60
        E 60 80 56 00
        E 0 80 62 00
        E 0 80 1f 00
        E 180 90 3e 60
        E 0 90 48 60
        E 0 90 4a 60
        E 0 90 54 60
        E 0 90 56 60
        E 0 90 60 60
        E 0 90 62 60
        E 0 90 18 60
        E 0 90 1f 60
        E 60 80 3e 00
        E 0 80 48 00
        E 0 80 4a 00
        E 0 80 54 00
        E 0 80 56 00
        E 0 80 60 00
        E 0 80 62 00
        E 0 80 18 00
        E 0 80 1f 00
        E 180 90 56 60
        E 0 90 62 60
        E 0 90 1f 60
        E 60 80 56 00
        E 0 80 62 00
        E 0 80 1f 00
        E 180 90 3d 60
        E 0 90 3e 60
        E 0 90 49 60
        E 0 90 4a 60
        E 0 90 55 60
        E 0 90 56 60
        E 0 90 61 60
        E 0 90 62 60
        E 0 90 1a 60
        E 0 90 1f 60
        E 60 80 3d 00
        E 0 80 3e 00
        E 0 80 49 00
        E 0 80 4a 00
        E 0 80 55 00
        E 0 80 56 00
        E 0 80 61 00
        E 0 80 62 00
        E 0 80 1a 00
        E 0 80 1f 00
        E 180 90 54 60
        E 0 90 56 60
        E 0 90 60 60
        E 0 90 62 60
        E 0 90 18 60
        E 0 90 1f 60
        E 60 80 54 00
        E 0 80 56 00
        E 0 80 60 00
        E 0 80 62 00
        E 0 80 18 00
        E 0 80 1f 00
        E 180 90 3d 60
        E 0 90 3e 60
        E 0 90 49 60
        E 0 90 4a 60
        E 0 90 55 60
        E 0 90 56 60
        E 0 90 61 60
        E 0 90 62 60
        E 0 90 1a 60
        E 0 90 1f 60
        E 60 80 3d 00
        E 0 80 3e 00
        E 0 80 49 00
        E 0 80 4a 00
        E 0 80 55 00
        E 0 80 56 00
        E 0 80 61 00
        E 0 80 62 00
        E 0 80 1a 00
        E 0 80 1f 00
        E 900 90 40 60
        E 0 90 48 60
        E 0 90 4c 60
        E 0 90 54 60
        E 0 90 58 60
        E 0 90 60 60
        E 0 90 64 60
        E 0 90 18 60
        E 0 90 26 60
        E 60 80 40 00
        E 0 80 48 00
        E 0 80 4c 00
        E 0 80 54 00
        E 0 80 58 00
        E 0 80 60 00
        E 0 80 64 00
        E 0 80 18 00
        E 0 80 26 00
        E 420 90 3d 60
        E 0 90 40 60
        E 0 90 49 60
        E 0 90 4c 60
        E 0 90 55 60
        E 0 90 58 60
        E 0 90 61 60
        E 0 90 64 60
        E 0 90 1a 60
        E 0 90 26 60
        E 60 80 3d 00
        E 0 80 40 00
        E 0 80 49 00
        E 0 80 4c 00
        E 0 80 55 00
        E 0 80 58 00
        E 0 80 61 00
        E 0 80 64 00
        E 0 80 1a 00
        E 0 80 26 00
        E 420 90 40 60
        E 0 90 48 60
        E 0 90 4c 60
        E 0 90 54 60
        E 0 90 58 60
        E 0 90 60 60
        E 0 90 64 60
        E 0 90 18 60
        E 0 90 26 60
        E 60 80 40 00
        E 0 80 48 00
        E 0 80 4c 00
        E 0 80 54 00
        E 0 80 58 00
        E 0 80 60 00
        E 0 80 64 00
        E 0 80 18 00
        E 0 80 26 00
        E 420 90 3d 60
        E 0 90 40 60
        E 0 90 49 60
        E 0 90 4c 60
        E 0 90 55 60
        E 0 90 58 60
        E 0 90 61 60
        E 0 90 64 60
        E 0 90 1a 60
        E 0 90 26 60
        E 60 80 3d 00
        E 0 80 40 00
        E 0 80 49 00
        E 0 80 4c 00
        E 0 80 55 00
        E 0 80 58 00
        E 0 80 61 00
        E 0 80 64 00
        E 0 80 1a 00
        E 0 80 26 00
        E 420 90 40 60
        E 0 90 48 60
        E 0 90 4c 60
        E 0 90 54 60
        E 0 90 58 60
        E 0 90 60 60
        E 0 90 64 60
        E 0 90 18 60
        E 0 90 26 60
        E 60 80 40 00
        E 0 80 48 00
        E 0 80 4c 00
        E 0 80 54 00
        E 0 80 58 00
        E 0 80 60 00
        E 0 80 64 00
        E 0 80 18 00
        E 0 80 26 00
        E 420 90 3d 60
        E 0 90 40 60
        E 0 90 49 60
        E 0 90 4c 60
        E 0 90 55 60
        E 0 90 58 60
        E 0 90 61 60
        E 0 90 64 60
        E 0 90 1a 60
        E 0 90 26 60
        E 60 80 3d 00
        E 0 80 40 00
        E 0 80 49 00
        E 0 80 4c 00
        E 0 80 55 00
        E 0 80 58 00
        E 0 80 61 00
        E 0 80 64 00
        E 0 80 1a 00
        E 0 80 26 00
        E 420 90 40 60
        E 0 90 48 60
        E 0 90 4c 60
        E 0 90 54 60
        E 0 90 58 60
        E 0 90 60 60
        E 0 90 64 60
        E 0 90 18 60
        E 0 90 26 60
        E 60 80 40 00
        E 0 80 48 00
        E 0 80 4c 00
        E 0 80 54 00
        E 0 80 58 00
        E 0 80 60 00
        E 0 80 64 00
        E 0 80 18 00
        E 0 80 26 00
        E 420 90 3d 60
        E 0 90 40 60
        E 0 90 49 60
        E 0 90 4c 60
        E 0 90 55 60
        E 0 90 58 60
        E 0 90 61 60
        E 0 90 64 60
        E 0 90 1a 60
        E 0 90 26 60
        E 60 80 3d 00
        E 0 80 40 00
        E 0 80 49 00
        E 0 80 4c 00
        E 0 80 55 00
        E 0 80 58 00
        E 0 80 61 00
        E 0 80 64 00
        E 0 80 1a 00
        E 0 80 26 00
        E 420 90 40 60
        E 0 90 48 60
        E 0 90 4c 60
        E 0 90 54 60
        E 0 90 58 60
        E 0 90 60 60
        E 0 90 64 60
        E 0 90 18 60
        E 0 90 26 60
        E 60 80 40 00
        E 0 80 48 00
        E 0 80 4c 00
        E 0 80 54 00
        E 0 80 58 00
        E 0 80 60 00
        E 0 80 64 00
        E 0 80 18 00
        E 0 80 26 00
        E 420 90 3d 60
        E 0 90 40 60
        E 0 90 49 60
        E 0 90 4c 60
        E 0 90 55 60
        E 0 90 58 60
        E 0 90 61 60
        E 0 90 64 60
        E 0 90 1a 60
        E 0 90 26 60
        E 60 80 3d 00
        E 0 80 40 00
        E 0 80 49 00
        E 0 80 4c 00
        E 0 80 55 00
        E 0 80 58 00
        E 0 80 61 00
        E 0 80 64 00
        E 0 80 1a 00
        E 0 80 26 00
        E 420 90 40 60
        E 0 90 48 60
        E 0 90 4c 60
        E 0 90 54 60
        E 0 90 58 60
        E 0 90 60 60
        E 0 90 64 60
        E 0 90 18 60
        E 0 90 26 60
        E 60 80 40 00
        E 0 80 48 00
        E 0 80 4c 00
        E 0 80 54 00
        E 0 80 58 00
        E 0 80 60 00
        E 0 80 64 00
        E 0 80 18 00
        E 0 80 26 00
        E 420 90 3d 60
        E 0 90 40 60
        E 0 90 49 60
        E 0 90 4c 60
        E 0 90 55 60
        E 0 90 58 60
        E 0 90 61 60
        E 0 90 64 60
        E 0 90 1a 60
        E 0 90 26 60
        E 60 80 3d 00
        E 0 80 40 00
        E 0 80 49 00
        E 0 80 4c 00
        E 0 80 55 00
        E 0 80 58 00
        E 0 80 61 00
        E 0 80 64 00
        E 0 80 1a 00
        E 0 80 26 00
        E 420 90 40 60
        E 0 90 48 60
        E 0 90 4c 60
        E 0 90 54 60
        E 0 90 58 60
        E 0 90 60 60
        E 0 90 64 60
        E 0 90 18 60
        E 0 90 26 60
        E 60 80 40 00
        E 0 80 48 00
        E 0 80 4c 00
        E 0 80 54 00
        E 0 80 58 00
        E 0 80 60 00
        E 0 80 64 00
        E 0 80 18 00
        E 0 80 26 00
        E 420 90 3d 60
        E 0 90 40 60
        E 0 90 49 60
        E 0 90 4c 60
        E 0 90 55 60
        E 0 90 58 60
        E 0 90 61 60
        E 0 90 64 60
        E 0 90 1a 60
        E 0 90 26 60
        E 60 80 3d 00
        E 0 80 40 00
        E 0 80 49 00
        E 0 80 4c 00
        E 0 80 55 00
        E 0 80 58 00
        E 0 80 61 00
        E 0 80 64 00
        E 0 80 1a 00
        E 0 80 26 00
        E 420 90 40 60
        E 0 90 48 60
        E 0 90 4c 60
        E 0 90 54 60
        E 0 90 58 60
        E 0 90 60 60
        E 0 90 64 60
        E 0 90 18 60
        E 0 90 26 60
        E 60 80 40 00
        E 0 80 48 00
        E 0 80 4c 00
        E 0 80 54 00
        E 0 80 58 00
        E 0 80 60 00
        E 0 80 64 00
        E 0 80 18 00
        E 0 80 26 00
        E 420 90 3d 60
        E 0 90 40 60
        E 0 90 49 60
        E 0 90 4c 60
        E 0 90 55 60
        E 0 90 58 60
        E 0 90 61 60
        E 0 90 64 60
        E 0 90 1a 60
        E 0 90 26 60
        E 60 80 3d 00
        E 0 80 40 00
        E 0 80 49 00
        E 0 80 4c 00
        E 0 80 55 00
        E 0 80 58 00
        E 0 80 61 00
        E 0 80 64 00
        E 0 80 1a 00
        E 0 80 26 00
        E 420 90 40 60
        E 0 90 48 60
        E 0 90 4c 60
        E 0 90 54 60
        E 0 90 58 60
        E 0 90 60 60
        E 0 90 64 60
        E 0 90 18 60
        E 0 90 26 60
        E 60 80 40 00
        E 0 80 48 00
        E 0 80 4c 00
        E 0 80 54 00
        E 0 80 58 00
        E 0 80 60 00
        E 0 80 64 00
        E 0 80 18 00
        E 0 80 26 00
        E 420 90 3d 60
        E 0 90 40 60
        E 0 90 49 60
        E 0 90 4c 60
        E 0 90 55 60
        E 0 90 58 60
        E 0 90 61 60
        E 0 90 64 60
        E 0 90 1a 60
        E 0 90 26 60
        E 60 80 3d 00
        E 0 80 40 00
        E 0 80 49 00
        E 0 80 4c 00
        E 0 80 55 00
        E 0 80 58 00
        E 0 80 61 00
        E 0 80 64 00
        E 0 80 1a 00
        E 0 80 26 00
        E 420 90 40 60
        E 0 90 48 60
        E 0 90 4c 60
        E 0 90 54 60
        E 0 90 58 60
        E 0 90 60 60
        E 0 90 64 60
        E 0 90 18 60
        E 0 90 26 60
        E 60 80 40 00
        E 0 80 48 00
        E 0 80 4c 00
        E 0 80 54 00
        E 0 80 58 00
        E 0 80 60 00
        E 0 80 64 00
        E 0 80 18 00
        E 0 80 26 00
        E 420 90 3d 60
        E 0 90 40 60
        E 0 90 49 60
        E 0 90 4c 60
        E 0 90 55 60
        E 0 90 58 60
        E 0 90 61 60
        E 0 90 64 60
        E 0 90 1a 60
        E 0 90 26 60
        E 60 80 3d 00
        E 0 80 40 00
        E 0 80 49 00
        E 0 80 4c 00
        E 0 80 55 00
        E 0 80 58 00
        E 0 80 61 00
        E 0 80 64 00
        E 0 80 1a 00
        E 0 80 26 00
        E 420 90 40 60
        E 0 90 48 60
        E 0 90 4c 60
        E 0 90 54 60
        E 0 90 58 60
        E 0 90 60 60
        E 0 90 64 60
        E 0 90 18 60
        E 0 90 26 60
        E 60 80 40 00
        E 0 80 48 00
        E 0 80 4c 00
        E 0 80 54 00
        E 0 80 58 00
        E 0 80 60 00
        E 0 80 64 00
        E 0 80 18 00
        E 0 80 26 00
        E 360 90 74 60
        E 60 90 3d 60
        E 0 90 40 60
        E 0 90 49 60
        E 0 90 4c 60
        E 0 90 55 60
        E 0 90 58 60
        E 0 90 61 60
        E 0 90 64 60
        E 0 90 1a 60
        E 0 90 26 60
        E 60 80 3d 00
        E 0 80 40 00
        E 0 80 49 00
        E 0 80 4c 00
        E 0 80 55 00
        E 0 80 58 00
        E 0 80 61 00
        E 0 80 64 00
        E 0 80 1a 00
        E 0 80 26 00
        E 420 90 40 60
        E 0 90 48 60
        E 0 90 4c 60
        E 0 90 54 60
        E 0 90 58 60
        E 0 90 60 60
        E 0 90 64 60
        E 0 90 18 60
        E 0 90 26 60
        E 60 80 40 00
        E 0 80 48 00
        E 0 80 4c 00
        E 0 80 54 00
        E 0 80 58 00
        E 0 80 60 00
        E 0 80 64 00
        E 0 80 18 00
        E 0 80 26 00
        E 420 90 3d 60
        E 0 90 40 60
        E 0 90 49 60
        E 0 90 4c 60
        E 0 90 55 60
        E 0 90 58 60
        E 0 90 61 60
        E 0 90 64 60
        E 0 90 1a 60
        E 0 90 26 60
        E 60 80 3d 00
        E 0 80 40 00
        E 0 80 49 00
        E 0 80 4c 00
        E 0 80 55 00
        E 0 80 58 00
        E 0 80 61 00
        E 0 80 64 00
        E 0 80 1a 00
        E 0 80 26 00
        E 120 80 74 00
        E 300 90 40 60
        E 0 90 48 60
        E 0 90 4c 60
        E 0 90 54 60
        E 0 90 58 60
        E 0 90 60 60
        E 0 90 64 60
        E 0 90 18 60
        E 0 90 26 60
        E 60 80 40 00
        E 0 80 48 00
        E 0 80 4c 00
        E 0 80 54 00
        E 0 80 58 00
        E 0 80 60 00
        E 0 80 64 00
        E 0 80 18 00
        E 0 80 26 00
        E 420 90 3d 60
        E 0 90 40 60
        E 0 90 49 60
        E 0 90 4c 60
        E 0 90 55 60
        E 0 90 58 60
        E 0 90 61 60
        E 0 90 64 60
        E 0 90 1a 60
        E 0 90 26 60
        E 60 80 3d 00
        E 0 80 40 00
        E 0 80 49 00
        E 0 80 4c 00
        E 0 80 55 00
        E 0 80 58 00
        E 0 80 61 00
        E 0 80 64 00
        E 0 80 1a 00
        E 0 80 26 00
        E 420 90 40 60
        E 0 90 48 60
        E 0 90 4c 60
        E 0 90 54 60
        E 0 90 58 60
        E 0 90 60 60
        E 0 90 64 60
        E 0 90 18 60
        E 0 90 26 60
        E 60 80 40 00
        E 0 80 48 00
        E 0 80 4c 00
        E 0 80 54 00
        E 0 80 58 00
        E 0 80 60 00
        E 0 80 64 00
        E 0 80 18 00
        E 0 80 26 00
        E 420 90 3d 60
        E 0 90 40 60
        E 0 90 49 60
        E 0 90 4c 60
        E 0 90 55 60
        E 0 90 58 60
        E 0 90 61 60
        E 0 90 64 60
        E 0 90 1a 60
        E 0 90 26 60
        E 60 80 3d 00
        E 0 80 40 00
        E 0 80 49 00
        E 0 80 4c 00
        E 0 80 55 00
        E 0 80 58 00
        E 0 80 61 00
        E 0 80 64 00
        E 0 80 1a 00
        E 0 80 26 00
        E 420 90 40 60
        E 0 90 48 60
        E 0 90 4c 60
        E 0 90 54 60
        E 0 90 58 60
        E 0 90 60 60
        E 0 90 64 60
        E 0 90 18 60
        E 0 90 26 60
        E 60 80 40 00
        E 0 80 48 00
        E 0 80 4c 00
        E 0 80 54 00
        E 0 80 58 00
        E 0 80 60 00
        E 0 80 64 00
        E 0 80 18 00
        E 0 80 26 00
        E 180 90 54 60
        E 0 90 60 60
        E 0 90 18 60
        E 60 80 54 00
        E 0 80 60 00
        E 0 80 18 00
        E 180 90 3d 60
        E 0 90 40 60
        E 0 90 49 60
        E 0 90 4c 60
        E 0 90 55 60
        E 0 90 58 60
        E 0 90 61 60
        E 0 90 64 60
        E 0 90 1a 60
        E 0 90 26 60
        E 60 80 3d 00
        E 0 80 40 00
        E 0 80 49 00
        E 0 80 4c 00
        E 0 80 55 00
        E 0 80 58 00
        E 0 80 61 00
        E 0 80 64 00
        E 0 80 1a 00
        E 0 80 26 00
        E 180 90 54 60
        E 0 90 60 60
        E 0 90 18 60
        E 60 80 54 00
        E 0 80 60 00
        E 0 80 18 00
        E 180 90 3d 60
        E 0 90 40 60
        E 0 90 49 60
        E 0 90 4c 60
        E 0 90 55 60
        E 0 90 58 60
        E 0 90 61 60
        E 0 90 64 60
        E 0 90 1a 60
        E 0 90 26 60
        E 60 80 3d 00
        E 0 80 40 00
        E 0 80 49 00
        E 0 80 4c 00
        E 0 80 55 00
        E 0 80 58 00
        E 0 80 61 00
        E 0 80 64 00
        E 0 80 1a 00
        E 0 80 26 00
        E 180 90 54 60
        E 0 90 60 60
        E 0 90 18 60
        E 60 80 54 00
        E 0 80 60 00
        E 0 80 18 00
        E 180 90 3d 60
        E 0 90 40 60
        E 0 90 49 60
        E 0 90 4c 60
        E 0 90 55 60
        E 0 90 58 60
        E 0 90 61 60
        E 0 90 64 60
        E 0 90 1a 60
        E 0 90 26 60
        E 60 80 3d 00
        E 0 80 40 00
        E 0 80 49 00
        E 0 80 4c 00
        E 0 80 55 00
        E 0 80 58 00
        E 0 80 61 00
        E 0 80 64 00
        E 0 80 1a 00
        E 0 80 26 00
        E 3780 90 40 60
        E 0 90 4c 60
        E 0 90 54 60
        E 0 90 58 60
        E 0 90 60 60
        E 0 90 64 60
        E 0 90 70 60
        E 0 90 78 60
        E 0 90 79 60
        E 0 90 7a 60
        E 0 90 7b 60
        E 0 90 7c 60
        E 0 90 18 60
        E 0 90 33 60
        E 60 80 40 00
        E 0 80 4c 00
        E 0 80 54 00
        E 0 80 58 00
        E 0 80 60 00
        E 0 80 64 00
        E 0 80 70 00
        E 0 80 18 00
        E 0 80 33 00
        E 420 90 3e 60
        E 0 90 48 60
        E 0 90 4a 60
        E 0 90 54 60
        E 0 90 56 60
        E 0 90 60 60
        E 0 90 62 60
        E 0 90 18 60
        E 0 90 1f 60
        E 60 80 3e 00
        E 0 80 48 00
        E 0 80 4a 00
        E 0 80 54 00
        E 0 80 56 00
        E 0 80 60 00
        E 0 80 62 00
        E 0 80 18 00
        E 0 80 1f 00
        E 420 80 78 00
        E 0 80 79 00
        E 0 80 7a 00
        E 0 80 7b 00
        E 0 80 7c 00
        E 0 90 40 60
        E 0 90 4c 60
        E 0 90 54 60
        E 0 90 58 60
        E 0 90 60 60
        E 0 90 64 60
        E 0 90 70 60
        E 0 90 18 60
        E 0 90 33 60
        E 60 80 40 00
        E 0 80 4c 00
        E 0 80 54 00
        E 0 80 58 00
        E 0 80 60 00
        E 0 80 64 00
        E 0 80 70 00
        E 0 80 18 00
        E 0 80 33 00
        E 420 90 3e 60
        E 0 90 48 60
        E 0 90 4a 60
        E 0 90 54 60
        E 0 90 56 60
        E 0 90 60 60
        E 0 90 62 60
        E 0 90 18 60
        E 0 90 1f 60
        E 60 80 3e 00
        E 0 80 48 00
        E 0 80 4a 00
        E 0 80 54 00
        E 0 80 56 00
        E 0 80 60 00
        E 0 80 62 00
        E 0 80 18 00
        E 0 80 1f 00
        E 420 90 40 60
        E 0 90 4c 60
        E 0 90 54 60
        E 0 90 58 60
        E 0 90 60 60
        E 0 90 64 60
        E 0 90 70 60
        E 0 90 18 60
        E 0 90 33 60
        E 60 80 40 00
        E 0 80 4c 00
        E 0 80 54 00
        E 0 80 58 00
        E 0 80 60 00
        E 0 80 64 00
        E 0 80 70 00
        E 0 80 18 00
        E 0 80 33 00
        E 420 90 3e 60
        E 0 90 48 60
        E 0 90 4a 60
        E 0 90 54 60
        E 0 90 56 60
        E 0 90 60 60
        E 0 90 62 60
        E 0 90 18 60
        E 0 90 1f 60
        E 60 80 3e 00
        E 0 80 48 00
        E 0 80 4a 00
        E 0 80 54 00
        E 0 80 56 00
        E 0 80 60 00
        E 0 80 62 00
        E 0 80 18 00
        E 0 80 1f 00
        E 420 90 40 60
        E 0 90 4c 60
        E 0 90 54 60
        E 0 90 58 60
        E 0 90 60 60
        E 0 90 64 60
        E 0 90 70 60
        E 0 90 18 60
        E 0 90 33 60
        E 60 80 40 00
        E 0 80 4c 00
        E 0 80 54 00
        E 0 80 58 00
        E 0 80 60 00
        E 0 80 64 00
        E 0 80 70 00
        E 0 80 18 00
        E 0 80 33 00
        E 420 90 3e 60
        E 0 90 48 60
        E 0 90 4a 60
        E 0 90 54 60
        E 0 90 56 60
        E 0 90 60 60
        E 0 90 62 60
        E 0 90 18 60
        E 0 90 1f 60
        E 60 80 3e 00
        E 0 80 48 00
        E 0 80 4a 00
        E 0 80 54 00
        E 0 80 56 00
        E 0 80 60 00
        E 0 80 62 00
        E 0 80 18 00
        E 0 80 1f 00
        E 420 90 40 60
        E 0 90 4c 60
        E 0 90 54 60
        E 0 90 58 60
        E 0 90 60 60
        E 0 90 64 60
        E 0 90 70 60
        E 0 90 18 60
        E 0 90 33 60
        E 60 80 40 00
        E 0 80 4c 00
        E 0 80 54 00
        E 0 80 58 00
        E 0 80 60 00
        E 0 80 64 00
        E 0 80 70 00
        E 0 80 18 00
        E 0 80 33 00
        E 420 90 3e 60
        E 0 90 48 60
        E 0 90 4a 60
        E 0 90 54 60
        E 0 90 56 60
        E 0 90 60 60
        E 0 90 62 60
        E 0 90 18 60
        E 0 90 1f 60
        E 60 80 3e 00
        E 0 80 48 00
        E 0 80 4a 00
        E 0 80 54 00
        E 0 80 56 00
        E 0 80 60 00
        E 0 80 62 00
        E 0 80 18 00
        E 0 80 1f 00
        E 420 90 40 60
        E 0 90 4c 60
        E 0 90 54 60
        E 0 90 58 60
        E 0 90 60 60
        E 0 90 64 60
        E 0 90 70 60
        E 0 90 18 60
        E 0 90 33 60
        E 60 80 40 00
        E 0 80 4c 00
        E 0 80 54 00
        E 0 80 58 00
        E 0 80 60 00
        E 0 80 64 00
        E 0 80 70 00
        E 0 80 18 00
        E 0 80 33 00
        E 420 90 3e 60
        E 0 90 48 60
        E 0 90 4a 60
        E 0 90 54 60
        E 0 90 56 60
        E 0 90 60 60
        E 0 90 62 60
        E 0 90 18 60
        E 0 90 1f 60
        E 60 80 3e 00
        E 0 80 48 00
        E 0 80 4a 00
        E 0 80 54 00
        E 0 80 56 00
        E 0 80 60 00
        E 0 80 62 00
        E 0 80 18 00
        E 0 80 1f 00
        E 420 90 40 60
        E 0 90 4c 60
        E 0 90 54 60
        E 0 90 58 60
        E 0 90 60 60
        E 0 90 64 60
        E 0 90 70 60
        E 0 90 18 60
        E 0 90 33 60
        E 60 80 40 00
        E 0 80 4c 00
        E 0 80 54 00
        E 0 80 58 00
        E 0 80 60 00
        E 0 80 64 00
        E 0 80 70 00
        E 0 80 18 00
        E 0 80 33 00
        E 420 90 3e 60
        E 0 90 48 60
        E 0 90 4a 60
        E 0 90 54 60
        E 0 90 56 60
        E 0 90 60 60
        E 0 90 62 60
        E 0 90 18 60
        E 0 90 1f 60
        E 60 80 3e 00
        E 0 80 48 00
        E 0 80 4a 00
        E 0 80 54 00
        E 0 80 56 00
        E 0 80 60 00
        E 0 80 62 00
        E 0 80 18 00
        E 0 80 1f 00
        E 420 90 40 60
        E 0 90 4c 60
        E 0 90 54 60
        E 0 90 58 60
        E 0 90 60 60
        E 0 90 64 60
        E 0 90 70 60
        E 0 90 18 60
        E 0 90 33 60
        E 60 80 40 00
        E 0 80 4c 00
        E 0 80 54 00
        E 0 80 58 00
        E 0 80 60 00
        E 0 80 64 00
        E 0 80 70 00
        E 0 80 18 00
        E 0 80 33 00
        E 420 90 3e 60
        E 0 90 48 60
        E 0 90 4a 60
        E 0 90 54 60
        E 0 90 56 60
        E 0 90 60 60
        E 0 90 62 60
        E 0 90 74 60
        E 0 90 18 60
        E 0 90 1f 60
        E 60 80 3e 00
        E 0 80 48 00
        E 0 80 4a 00
        E 0 80 54 00
        E 0 80 56 00
        E 0 80 60 00
        E 0 80 62 00
        E 0 80 18 00
        E 0 80 1f 00
        E 420 90 40 60
        E 0 90 4c 60
        E 0 90 54 60
        E 0 90 58 60
        E 0 90 60 60
        E 0 90 64 60
        E 0 90 70 60
        E 0 90 18 60
        E 0 90 33 60
        E 60 80 40 00
        E 0 80 4c 00
        E 0 80 54 00
        E 0 80 58 00
        E 0 80 60 00
        E 0 80 64 00
        E 0 80 70 00
        E 0 80 18 00
        E 0 80 33 00
        E 60 80 74 00
        E 360 90 3e 60
        E 0 90 48 60
        E 0 90 4a 60
        E 0 90 54 60
        E 0 90 56 60
        E 0 90 60 60
        E 0 90 62 60
        E 0 90 18 60
        E 0 90 1f 60
        E 60 80 3e 00
        E 0 80 48 00
        E 0 80 4a 00
        E 0 80 54 00
        E 0 80 56 00
        E 0 80 60 00
        E 0 80 62 00
        E 0 80 18 00
        E 0 80 1f 00
        E 420 90 40 60
        E 0 90 4c 60
        E 0 90 54 60
        E 0 90 58 60
        E 0 90 60 60
        E 0 90 64 60
        E 0 90 70 60
        E 0 90 18 60
        E 0 90 33 60
        E 60 80 40 00
        E 0 80 4c 00
        E 0 80 54 00
        E 0 80 58 00
        E 0 80 60 00
        E 0 80 64 00
        E 0 80 70 00
        E 0 80 18 00
        E 0 80 33 00
        E 420 90 3e 60
        E 0 90 48 60
        E 0 90 4a 60
        E 0 90 54 60
        E 0 90 56 60
        E 0 90 60 60
        E 0 90 62 60
        E 0 90 18 60
        E 0 90 1f 60
        E 60 80 3e 00
        E 0 80 48 00
        E 0 80 4a 00
        E 0 80 54 00
        E 0 80 56 00
        E 0 80 60 00
        E 0 80 62 00
        E 0 80 18 00
        E 0 80 1f 00
        E 420 90 40 60
        E 0 90 4c 60
        E 0 90 54 60
        E 0 90 58 60
        E 0 90 60 60
        E 0 90 64 60
        E 0 90 70 60
        E 0 90 18 60
        E 0 90 33 60
        E 60 80 40 00
        E 0 80 4c 00
        E 0 80 54 00
        E 0 80 58 00
        E 0 80 60 00
        E 0 80 64 00
        E 0 80 70 00
        E 0 80 18 00
        E 0 80 33 00
        E 420 90 3e 60
        E 0 90 48 60
        E 0 90 4a 60
        E 0 90 54 60
        E 0 90 56 60
        E 0 90 60 60
        E 0 90 62 60
        E 0 90 18 60
        E 0 90 1f 60
        E 60 80 3e 00
        E 0 80 48 00
        E 0 80 4a 00
        E 0 80 54 00
        E 0 80 56 00
        E 0 80 60 00
        E 0 80 62 00
        E 0 80 18 00
        E 0 80 1f 00
        E 420 90 40 60
        E 0 90 4c 60
        E 0 90 54 60
        E 0 90 58 60
        E 0 90 60 60
        E 0 90 64 60
        E 0 90 70 60
        E 0 90 18 60
        E 0 90 33 60
        E 60 80 40 00
        E 0 80 4c 00
        E 0 80 54 00
        E 0 80 58 00
        E 0 80 60 00
        E 0 80 64 00
        E 0 80 70 00
        E 0 80 18 00
        E 0 80 33 00
        E 420 90 3e 60
        E 0 90 48 60
        E 0 90 4a 60
        E 0 90 54 60
        E 0 90 56 60
        E 0 90 60 60
        E 0 90 62 60
        E 0 90 18 60
        E 0 90 1f 60
        E 60 80 3e 00
        E 0 80 48 00
        E 0 80 4a 00
        E 0 80 54 00
        E 0 80 56 00
        E 0 80 60 00
        E 0 80 62 00
        E 0 80 18 00
        E 0 80 1f 00
        E 420 90 78 60
        E 0 90 79 60
        E 0 90 7a 60
        E 0 90 7b 60
        E 0 90 7c 60
        E 480 80 78 00
        E 0 80 79 00
        E 0 80 7a 00
        E 0 80 7b 00
        E 0 80 7c 00
        E 0 90 40 60
        E 0 90 48 60
        E 0 90 4c 60
        E 0 90 54 60
        E 0 90 58 60
        E 0 90 60 60
        E 0 90 64 60
        E 0 90 18 60
        E 0 90 26 60
        E 60 80 40 00
        E 0 80 48 00
        E 0 80 4c 00
        E 0 80 54 00
        E 0 80 58 00
        E 0 80 60 00
        E 0 80 64 00
        E 0 80 18 00
        E 0 80 26 00
        E 180 90 56 60
        E 0 90 62 60
        E 0 90 1f 60
        E 60 80 56 00
        E 0 80 62 00
        E 0 80 1f 00
        E 180 90 3d 60
        E 0 90 3e 60
        E 0 90 49 60
        E 0 90 4a 60
        E 0 90 55 60
        E 0 90 56 60
        E 0 90 61 60
        E 0 90 62 60
        E 0 90 1a 60
        E 0 90 1f 60
        E 60 80 3d 00
        E 0 80 3e 00
        E 0 80 49 00
        E 0 80 4a 00
        E 0 80 55 00
        E 0 80 56 00
        E 0 80 61 00
        E 0 80 62 00
        E 0 80 1a 00
        E 0 80 1f 00
        E 180 90 56 60
        E 0 90 62 60
        E 0 90 1f 60
        E 60 80 56 00
        E 0 80 62 00
        E 0 80 1f 00
        E 180 90 3e 60
        E 0 90 48 60
        E 0 90 4a 60
        E 0 90 54 60
        E 0 90 56 60
        E 0 90 60 60
        E 0 90 62 60
        E 0 90 18 60
        E 0 90 1f 60
        E 60 80 3e 00
        E 0 80 48 00
        E 0 80 4a 00
        E 0 80 54 00
        E 0 80 56 00
        E 0 80 60 00
        E 0 80 62 00
        E 0 80 18 00
        E 0 80 1f 00
        E 180 90 56 60
        E 0 90 62 60
        E 0 90 1f 60
        E 60 80 56 00
        E 0 80 62 00
        E 0 80 1f 00
        E 180 90 3d 60
        E 0 90 3e 60
        E 0 90 49 60
        E 0 90 4a 60
        E 0 90 55 60
        E 0 90 56 60
        E 0 90 61 60
        E 0 90 62 60
        E 0 90 1a 60
        E 0 90 1f 60
        E 60 80 3d 00
        E 0 80 3e 00
        E 0 80 49 00
        E 0 80 4a 00
        E 0 80 55 00
        E 0 80 56 00
        E 0 80 61 00
        E 0 80 62 00
        E 0 80 1a 00
        E 0 80 1f 00
        E 180 90 56 60
        E 0 90 62 60
        E 0 90 1f 60
        E 60 80 56 00
        E 0 80 62 00
        E 0 80 1f 00
        E 180 90 3e 60
        E 0 90 48 60
        E 0 90 4a 60
        E 0 90 54 60
        E 0 90 56 60
        E 0 90 60 60
        E 0 90 62 60
        E 0 90 18 60
        E 0 90 1f 60
        E 60 80 3e 00
        E 0 80 48 00
        E 0 80 4a 00
        E 0 80 54 00
        E 0 80 56 00
        E 0 80 60 00
        E 0 80 62 00
        E 0 80 18 00
        E 0 80 1f 00
        E 180 90 56 60
        E 0 90 62 60
        E 0 90 1f 60
        E 60 80 56 00
        E 0 80 62 00
        E 0 80 1f 00
        E 180 90 3d 60
        E 0 90 3e 60
        E 0 90 49 60
        E 0 90 4a 60
        E 0 90 55 60
        E 0 90 56 60
        E 0 90 61 60
        E 0 90 62 60
        E 0 90 1a 60
        E 0 90 1f 60
        E 60 80 3d 00
        E 0 80 3e 00
        E 0 80 49 00
        E 0 80 4a 00
        E 0 80 55 00
        E 0 80 56 00
        E 0 80 61 00
        E 0 80 62 00
        E 0 80 1a 00
        E 0 80 1f 00
        E 180 90 56 60
        E 0 90 62 60
        E 0 90 1f 60
        E 60 80 56 00
        E 0 80 62 00
        E 0 80 1f 00
        E 180 90 3e 60
        E 0 90 48 60
        E 0 90 4a 60
        E 0 90 54 60
        E 0 90 56 60
        E 0 90 60 60
        E 0 90 62 60
        E 0 90 18 60
        E 0 90 1f 60
        E 60 80 3e 00
        E 0 80 48 00
        E 0 80 4a 00
        E 0 80 54 00
        E 0 80 56 00
        E 0 80 60 00
        E 0 80 62 00
        E 0 80 18 00
        E 0 80 1f 00
        E 180 90 56 60
        E 0 90 62 60
        E 0 90 1f 60
        E 60 80 56 00
        E 0 80 62 00
        E 0 80 1f 00
        E 180 90 3d 60
        E 0 90 3e 60
        E 0 90 49 60
        E 0 90 4a 60
        E 0 90 55 60
        E 0 90 56 60
        E 0 90 61 60
        E 0 90 62 60
        E 0 90 1a 60
        E 0 90 1f 60
        E 60 80 3d 00
        E 0 80 3e 00
        E 0 80 49 00
        E 0 80 4a 00
        E 0 80 55 00
        E 0 80 56 00
        E 0 80 61 00
        E 0 80 62 00
        E 0 80 1a 00
        E 0 80 1f 00
        E 180 90 56 60
        E 0 90 62 60
        E 0 90 1f 60
        E 60 80 56 00
        E 0 80 62 00
        E 0 80 1f 00
        E 180 90 40 60
        E 0 90 48 60
        E 0 90 4c 60
        E 0 90 54 60
        E 0 90 58 60
        E 0 90 60 60
        E 0 90 64 60
        E 0 90 18 60
        E 0 90 26 60
        E 60 80 40 00
        E 0 80 48 00
        E 0 80 4c 00
        E 0 80 54 00
        E 0 80 58 00
        E 0 80 60 00
        E 0 80 64 00
        E 0 80 18 00
        E 0 80 26 00
        E 180 90 56 60
        E 0 90 62 60
        E 0 90 1f 60
        E 60 80 56 00
        E 0 80 62 00
        E 0 80 1f 00
        E 180 90 3d 60
        E 0 90 3e 60
        E 0 90 49 60
        E 0 90 4a 60
        E 0 90 55 60
        E 0 90 56 60
        E 0 90 61 60
        E 0 90 62 60
        E 0 90 1a 60
        E 0 90 1f 60
        E 60 80 3d 00
        E 0 80 3e 00
        E 0 80 49 00
        E 0 80 4a 00
        E 0 80 55 00
        E 0 80 56 00
        E 0 80 61 00
        E 0 80 62 00
        E 0 80 1a 00
        E 0 80 1f 00
        E 180 90 56 60
        E 0 90 62 60
        E 0 90 1f 60
        E 60 80 56 00
        E 0 80 62 00
        E 0 80 1f 00
        E 180 90 3f 60
        E 0 90 48 60
        E 0 90 4b 60
        E 0 90 54 60
        E 0 90 57 60
        E 0 90 60 60
        E 0 90 63 60
        E 0 90 74 60
        E 0 90 18 60
        E 0 90 2a 60
        E 60 80 3f 00
        E 0 80 48 00
        E 0 80 4b 00
        E 0 80 54 00
        E 0 80 57 00
        E 0 80 60 00
        E 0 80 63 00
        E 0 80 18 00
        E 0 80 2a 00
        E 180 90 56 60
        E 0 90 62 60
        E 0 90 1f 60
        E 60 80 56 00
        E 0 80 62 00
        E 0 80 1f 00
        E 180 90 3d 60
        E 0 90 3e 60
        E 0 90 49 60
        E 0 90 4a 60
        E 0 90 55 60
        E 0 90 56 60
        E 0 90 61 60
        E 0 90 62 60
        E 0 90 1a 60
        E 0 90 1f 60
        E 60 80 3d 00
        E 0 80 3e 00
        E 0 80 49 00
        E 0 80 4a 00
        E 0 80 55 00
        E 0 80 56 00
        E 0 80 61 00
        E 0 80 62 00
        E 0 80 1a 00
        E 0 80 1f 00
        E 180 90 56 60
        E 0 90 62 60
        E 0 90 1f 60
        E 60 80 56 00
        E 0 80 62 00
        E 0 80 1f 00
        E 180 90 40 60
        E 0 90 48 60
        E 0 90 4c 60
        E 0 90 54 60
        E 0 90 58 60
        E 0 90 60 60
        E 0 90 64 60
        E 0 90 18 60
        E 0 90 26 60
        E 60 80 74 00
        E 0 80 40 00
        E 0 80 48 00
        E 0 80 4c 00
        E 0 80 54 00
        E 0 80 58 00
        E 0 80 60 00
        E 0 80 64 00
        E 0 80 18 00
        E 0 80 26 00
        E 180 90 56 60
        E 0 90 62 60
        E 0 90 1f 60
        E 60 80 56 00
        E 0 80 62 00
        E 0 80 1f 00
        E 180 90 3d 60
        E 0 90 3e 60
        E 0 90 49 60
        E 0 90 4a 60
        E 0 90 55 60
        E 0 90 56 60
        E 0 90 61 60
        E 0 90 62 60
        E 0 90 1a 60
        E 0 90 1f 60
        E 60 80 3d 00
        E 0 80 3e 00
        E 0 80 49 00
        E 0 80 4a 00
        E 0 80 55 00
        E 0 80 56 00
        E 0 80 61 00
        E 0 80 62 00
        E 0 80 1a 00
        E 0 80 1f 00
        E 180 90 56 60
        E 0 90 62 60
        E 0 90 1f 60
        E 60 80 56 00
        E 0 80 62 00
        E 0 80 1f 00
        E 180 90 3f 60
        E 0 90 48 60
        E 0 90 4b 60
        E 0 90 54 60
        E 0 90 57 60
        E 0 90 60 60
        E 0 90 63 60
        E 0 90 18 60
        E 0 90 2a 60
        E 60 80 3f 00
        E 0 80 48 00
        E 0 80 4b 00
        E 0 80 54 00
        E 0 80 57 00
        E 0 80 60 00
        E 0 80 63 00
        E 0 80 18 00
        E 0 80 2a 00
        E 180 90 56 60
        E 0 90 62 60
        E 0 90 1f 60
        E 60 80 56 00
        E 0 80 62 00
        E 0 80 1f 00
        E 180 90 3d 60
        E 0 90 3e 60
        E 0 90 49 60
        E 0 90 4a 60
        E 0 90 55 60
        E 0 90 56 60
        E 0 90 61 60
        E 0 90 62 60
        E 0 90 1a 60
        E 0 90 1f 60
        E 60 80 3d 00
        E 0 80 3e 00
        E 0 80 49 00
        E 0 80 4a 00
        E 0 80 55 00
        E 0 80 56 00
        E 0 80 61 00
        E 0 80 62 00
        E 0 80 1a 00
        E 0 80 1f 00
        E 180 90 56 60
        E 0 90 62 60
        E 0 90 1f 60
        E 60 80 56 00
        E 0 80 62 00
        E 0 80 1f 00
        E 180 90 40 60
        E 0 90 48 60
        E 0 90 4c 60
        E 0 90 54 60
        E 0 90 58 60
        E 0 90 60 60
        E 0 90 64 60
        E 0 90 18 60
        E 0 90 26 60
        E 60 80 40 00
        E 0 80 48 00
        E 0 80 4c 00
        E 0 80 54 00
        E 0 80 58 00
        E 0 80 60 00
        E 0 80 64 00
        E 0 80 18 00
        E 0 80 26 00
        E 180 90 56 60
        E 0 90 62 60
        E 0 90 1f 60
        E 60 80 56 00
        E 0 80 62 00
        E 0 80 1f 00
        E 180 90 3d 60
        E 0 90 3e 60
        E 0 90 49 60
        E 0 90 4a 60
        E 0 90 55 60
        E 0 90 56 60
        E 0 90 61 60
        E 0 90 62 60
        E 0 90 1a 60
        E 0 90 1f 60
        E 60 80 3d 00
        E 0 80 3e 00
        E 0 80 49 00
        E 0 80 4a 00
        E 0 80 55 00
        E 0 80 56 00
        E 0 80 61 00
        E 0 80 62 00
        E 0 80 1a 00
        E 0 80 1f 00
        E 180 90 56 60
        E 0 90 62 60
        E 0 90 1f 60
        E 60 80 56 00
        E 0 80 62 00
        E 0 80 1f 00
        E 180 90 3e 60
        E 0 90 48 60
        E 0 90 4a 60
        E 0 90 54 60
        E 0 90 56 60
        E 0 90 60 60
        E 0 90 62 60
        E 0 90 18 60
        E 0 90 1f 60
        E 60 80 3e 00
        E 0 80 48 00
        E 0 80 4a 00
        E 0 80 54 00
        E 0 80 56 00
        E 0 80 60 00
        E 0 80 62 00
        E 0 80 18 00
        E 0 80 1f 00
        E 180 90 56 60
        E 0 90 62 60
        E 0 90 1f 60
        E 60 80 56 00
        E 0 80 62 00
        E 0 80 1f 00
        E 180 90 3d 60
        E 0 90 3e 60
        E 0 90 49 60
        E 0 90 4a 60
        E 0 90 55 60
        E 0 90 56 60
        E 0 90 61 60
        E 0 90 62 60
        E 0 90 1a 60
        E 0 90 1f 60
        E 60 80 3d 00
        E 0 80 3e 00
        E 0 80 49 00
        E 0 80 4a 00
        E 0 80 55 00
        E 0 80 56 00
        E 0 80 61 00
        E 0 80 62 00
        E 0 80 1a 00
        E 0 80 1f 00
        E 180 90 56 60
        E 0 90 62 60
        E 0 90 1f 60
        E 60 80 56 00
        E 0 80 62 00
        E 0 80 1f 00
        E 180 90 3e 60
        E 0 90 48 60
        E 0 90 4a 60
        E 0 90 54 60
        E 0 90 56 60
        E 0 90 60 60
        E 0 90 62 60
        E 0 90 18 60
        E 0 90 1f 60
        E 60 80 3e 00
        E 0 80 48 00
        E 0 80 4a 00
        E 0 80 54 00
        E 0 80 56 00
        E 0 80 60 00
        E 0 80 62 00
        E 0 80 18 00
        E 0 80 1f 00
        E 180 90 56 60
        E 0 90 62 60
        E 0 90 1f 60
        E 60 80 56 00
        E 0 80 62 00
        E 0 80 1f 00
        E 180 90 3d 60
        E 0 90 3e 60
        E 0 90 49 60
        E 0 90 4a 60
        E 0 90 55 60
        E 0 90 56 60
        E 0 90 61 60
        E 0 90 62 60
        E 0 90 1a 60
        E 0 90 1f 60
        E 60 80 3d 00
        E 0 80 3e 00
        E 0 80 49 00
        E 0 80 4a 00
        E 0 80 55 00
        E 0 80 56 00
        E 0 80 61 00
        E 0 80 62 00
        E 0 80 1a 00
        E 0 80 1f 00
        E 180 90 56 60
        E 0 90 62 60
        E 0 90 1f 60
        E 60 80 56 00
        E 0 80 62 00
        E 0 80 1f 00
        E 180 90 3e 60
        E 0 90 48 60
        E 0 90 4a 60
        E 0 90 54 60
        E 0 90 56 60
        E 0 90 60 60
        E 0 90 62 60
        E 0 90 18 60
        E 0 90 1f 60
        E 60 80 3e 00
        E 0 80 48 00
        E 0 80 4a 00
        E 0 80 54 00
        E 0 80 56 00
        E 0 80 60 00
        E 0 80 62 00
        E 0 80 18 00
        E 0 80 1f 00
        E 180 90 56 60
        E 0 90 62 60
        E 0 90 1f 60
        E 60 80 56 00
        E 0 80 62 00
        E 0 80 1f 00
        E 180 90 3d 60
        E 0 90 3e 60
        E 0 90 49 60
        E 0 90 4a 60
        E 0 90 55 60
        E 0 90 56 60
        E 0 90 61 60
        E 0 90 62 60
        E 0 90 78 60
        E 0 90 79 60
        E 0 90 7a 60
        E 0 90 7b 60
        E 0 90 7c 60
        E 0 90 1a 60
        E 0 90 1f 60
        E 60 80 3d 00
        E 0 80 3e 00
        E 0 80 49 00
        E 0 80 4a 00
        E 0 80 55 00
        E 0 80 56 00
        E 0 80 61 00
        E 0 80 62 00
        E 0 80 1a 00
        E 0 80 1f 00
        E 180 90 56 60
        E 0 90 62 60
        E 0 90 1f 60
        E 60 80 56 00
        E 0 80 62 00
        E 0 80 1f 00
        E 179 80 78 00
        E 0 80 79 00
        E 0 80 7a 00
        E 0 80 7b 00
        E 0 80 7c 00
        E 1 90 40 60
        E 0 90 48 60
        E 0 90 4c 60
        E 0 90 54 60
        E 0 90 58 60
        E 0 90 60 60
        E 0 90 64 60
        E 0 90 18 60
        E 0 90 26 60
        E 60 80 40 00
        E 0 80 48 00
        E 0 80 4c 00
        E 0 80 54 00
        E 0 80 58 00
        E 0 80 60 00
        E 0 80 64 00
        E 0 80 18 00
        E 0 80 26 00
        E 180 90 56 60
        E 0 90 62 60
        E 0 90 1f 60
        E 60 80 56 00
        E 0 80 62 00
        E 0 80 1f 00
        E 180 90 3d 60
        E 0 90 3e 60
        E 0 90 49 60
        E 0 90 4a 60
        E 0 90 55 60
        E 0 90 56 60
        E 0 90 61 60
        E 0 90 62 60
        E 0 90 1a 60
        E 0 90 1f 60
        E 60 80 3d 00
        E 0 80 3e 00
        E 0 80 49 00
        E 0 80 4a 00
        E 0 80 55 00
        E 0 80 56 00
        E 0 80 61 00
        E 0 80 62 00
        E 0 80 1a 00
        E 0 80 1f 00
        E 180 90 56 60
        E 0 90 62 60
        E 0 90 1f 60
        E 60 80 56 00
        E 0 80 62 00
        E 0 80 1f 00
        E 180 90 3f 60
        E 0 90 48 60
        E 0 90 4b 60
        E 0 90 54 60
        E 0 90 57 60
        E 0 90 60 60
        E 0 90 63 60
        E 0 90 18 60
        E 0 90 2a 60
        E 60 80 3f 00
        E 0 80 48 00
        E 0 80 4b 00
        E 0 80 54 00
        E 0 80 57 00
        E 0 80 60 00
        E 0 80 63 00
        E 0 80 18 00
        E 0 80 2a 00
        E 180 90 56 60
        E 0 90 62 60
        E 0 90 1f 60
        E 60 80 56 00
        E 0 80 62 00
        E 0 80 1f 00
        E 180 90 3d 60
        E 0 90 3e 60
        E 0 90 49 60
        E 0 90 4a 60
        E 0 90 55 60
        E 0 90 56 60
        E 0 90 61 60
        E 0 90 62 60
        E 0 90 1a 60
        E 0 90 1f 60
        E 60 80 3d 00
        E 0 80 3e 00
        E 0 80 49 00
        E 0 80 4a 00
        E 0 80 55 00
        E 0 80 56 00
        E 0 80 61 00
        E 0 80 62 00
        E 0 80 1a 00
        E 0 80 1f 00
        E 180 90 56 60
        E 0 90 62 60
        E 0 90 1f 60
        E 60 80 56 00
        E 0 80 62 00
        E 0 80 1f 00
        E 180 90 3e 60
        E 0 90 48 60
        E 0 90 4a 60
        E 0 90 54 60
        E 0 90 56 60
        E 0 90 60 60
        E 0 90 62 60
        E 0 90 18 60
        E 0 90 1f 60
        E 60 80 3e 00
        E 0 80 48 00
        E 0 80 4a 00
        E 0 80 54 00
        E 0 80 56 00
        E 0 80 60 00
        E 0 80 62 00
        E 0 80 18 00
        E 0 80 1f 00
        E 180 90 54 60
        E 0 90 56 60
        E 0 90 60 60
        E 0 90 62 60
        E 0 90 18 60
        E 0 90 1f 60
        E 60 80 54 00
        E 0 80 56 00
        E 0 80 60 00
        E 0 80 62 00
        E 0 80 18 00
        E 0 80 1f 00
        E 180 90 3d 60
        E 0 90 3e 60
        E 0 90 49 60
        E 0 90 4a 60
        E 0 90 55 60
        E 0 90 56 60
        E 0 90 61 60
        E 0 90 62 60
        E 0 90 1a 60
        E 0 90 1f 60
        E 60 80 3d 00
        E 0 80 3e 00
        E 0 80 49 00
        E 0 80 4a 00
        E 0 80 55 00
        E 0 80 56 00
        E 0 80 61 00
        E 0 80 62 00
        E 0 80 1a 00
        E 0 80 1f 00
        E 180 90 54 60
        E 0 90 56 60
        E 0 90 60 60
        E 0 90 62 60
        E 0 90 18 60
        E 0 90 1f 60
        E 60 80 54 00
        E 0 80 56 00
        E 0 80 60 00
        E 0 80 62 00
        E 0 80 18 00
        E 0 80 1f 00
        E 180 90 3d 60
        E 0 90 49 60
        E 0 90 55 60
        E 0 90 61 60
        E 0 90 1a 60
        E 60 80 3d 00
        E 0 80 49 00
        E 0 80 55 00
        E 0 80 61 00
        E 0 80 1a 00
        E 180 90 54 60
        E 0 90 60 60
        E 0 90 18 60
        E 60 80 54 00
        E 0 80 60 00
        E 0 80 18 00
        E 180 90 3d 60
        E 0 90 49 60
        E 0 90 55 60
        E 0 90 61 60
        E 0 90 1a 60
        E 60 80 3d 00
        E 0 80 49 00
        E 0 80 55 00
        E 0 80 61 00
        E 0 80 1a 00
        E 180 90 54 60
        E 0 90 60 60
        E 0 90 18 60
        E 60 80 54 00
        E 0 80 60 00
        E 0 80 18 00
        E 180 90 40 60
        E 0 90 48 60
        E 0 90 4c 60
        E 0 90 54 60
        E 0 90 58 60
        E 0 90 60 60
        E 0 90 64 60
        E 0 90 18 60
        E 0 90 26 60
        E 60 80 40 00
        E 0 80 48 00
        E 0 80 4c 00
        E 0 80 54 00
        E 0 80 58 00
        E 0 80 60 00
        E 0 80 64 00
        E 0 80 18 00
        E 0 80 26 00
        E 420 90 3d 60
        E 0 90 40 60
        E 0 90 49 60
        E 0 90 4c 60
        E 0 90 55 60
        E 0 90 58 60
        E 0 90 61 60
        E 0 90 64 60
        E 0 90 1a 60
        E 0 90 26 60
        E 60 80 3d 00
        E 0 80 40 00
        E 0 80 49 00
        E 0 80 4c 00
        E 0 80 55 00
        E 0 80 58 00
        E 0 80 61 00
        E 0 80 64 00
        E 0 80 1a 00
        E 0 80 26 00
        E 420 90 40 60
        E 0 90 48 60
        E 0 90 4c 60
        E 0 90 54 60
        E 0 90 58 60
        E 0 90 60 60
        E 0 90 64 60
        E 0 90 18 60
        E 0 90 26 60
        E 60 80 40 00
        E 0 80 48 00
        E 0 80 4c 00
        E 0 80 54 00
        E 0 80 58 00
        E 0 80 60 00
        E 0 80 64 00
        E 0 80 18 00
        E 0 80 26 00
        E 420 90 3d 60
        E 0 90 40 60
        E 0 90 49 60
        E 0 90 4c 60
        E 0 90 55 60
        E 0 90 58 60
        E 0 90 61 60
        E 0 90 64 60
        E 0 90 74 60
        E 0 90 1a 60
        E 0 90 26 60
        E 60 80 3d 00
        E 0 80 40 00
        E 0 80 49 00
        E 0 80 4c 00
        E 0 80 55 00
        E 0 80 58 00
        E 0 80 61 00
        E 0 80 64 00
        E 0 80 1a 00
        E 0 80 26 00
        E 420 90 40 60
        E 0 90 48 60
        E 0 90 4c 60
        E 0 90 54 60
        E 0 90 58 60
        E 0 90 60 60
        E 0 90 64 60
        E 0 90 18 60
        E 0 90 26 60
        E 60 80 40 00
        E 0 80 48 00
        E 0 80 4c 00
        E 0 80 54 00
        E 0 80 58 00
        E 0 80 60 00
        E 0 80 64 00
        E 0 80 18 00
        E 0 80 26 00
        E 60 80 74 00
        E 360 90 3d 60
        E 0 90 40 60
        E 0 90 49 60
        E 0 90 4c 60
        E 0 90 55 60
        E 0 90 58 60
        E 0 90 61 60
        E 0 90 64 60
        E 0 90 1a 60
        E 0 90 26 60
        E 60 80 3d 00
        E 0 80 40 00
        E 0 80 49 00
        E 0 80 4c 00
        E 0 80 55 00
        E 0 80 58 00
        E 0 80 61 00
        E 0 80 64 00
        E 0 80 1a 00
        E 0 80 26 00
        E 420 90 40 60
        E 0 90 48 60
        E 0 90 4c 60
        E 0 90 54 60
        E 0 90 58 60
        E 0 90 60 60
        E 0 90 64 60
        E 0 90 18 60
        E 0 90 26 60
        E 60 80 40 00
        E 0 80 48 00
        E 0 80 4c 00
        E 0 80 54 00
        E 0 80 58 00
        E 0 80 60 00
        E 0 80 64 00
        E 0 80 18 00
        E 0 80 26 00
        E 420 90 3d 60
        E 0 90 40 60
        E 0 90 49 60
        E 0 90 4c 60
        E 0 90 55 60
        E 0 90 58 60
        E 0 90 61 60
        E 0 90 64 60
        E 0 90 1a 60
        E 0 90 26 60
        E 60 80 3d 00
        E 0 80 40 00
        E 0 80 49 00
        E 0 80 4c 00
        E 0 80 55 00
        E 0 80 58 00
        E 0 80 61 00
        E 0 80 64 00
        E 0 80 1a 00
        E 0 80 26 00
        E 420 90 40 60
        E 0 90 48 60
        E 0 90 4c 60
        E 0 90 54 60
        E 0 90 58 60
        E 0 90 60 60
        E 0 90 64 60
        E 0 90 18 60
        E 0 90 26 60
        E 60 80 40 00
        E 0 80 48 00
        E 0 80 4c 00
        E 0 80 54 00
        E 0 80 58 00
        E 0 80 60 00
        E 0 80 64 00
        E 0 80 18 00
        E 0 80 26 00
        E 420 90 3d 60
        E 0 90 40 60
        E 0 90 49 60
        E 0 90 4c 60
        E 0 90 55 60
        E 0 90 58 60
        E 0 90 61 60
        E 0 90 64 60
        E 0 90 1a 60
        E 0 90 26 60
        E 60 80 3d 00
        E 0 80 40 00
        E 0 80 49 00
        E 0 80 4c 00
        E 0 80 55 00
        E 0 80 58 00
        E 0 80 61 00
        E 0 80 64 00
        E 0 80 1a 00
        E 0 80 26 00
        E 420 90 40 60
        E 0 90 48 60
        E 0 90 4c 60
        E 0 90 54 60
        E 0 90 58 60
        E 0 90 60 60
        E 0 90 64 60
        E 0 90 18 60
        E 0 90 26 60
        E 60 80 40 00
        E 0 80 48 00
        E 0 80 4c 00
        E 0 80 54 00
        E 0 80 58 00
        E 0 80 60 00
        E 0 80 64 00
        E 0 80 18 00
        E 0 80 26 00
        E 420 90 3d 60
        E 0 90 40 60
        E 0 90 49 60
        E 0 90 4c 60
        E 0 90 55 60
        E 0 90 58 60
        E 0 90 61 60
        E 0 90 64 60
        E 0 90 1a 60
        E 0 90 26 60
        E 60 80 3d 00
        E 0 80 40 00
        E 0 80 49 00
        E 0 80 4c 00
        E 0 80 55 00
        E 0 80 58 00
        E 0 80 61 00
        E 0 80 64 00
        E 0 80 1a 00
        E 0 80 26 00
        E 420 90 40 60
        E 0 90 48 60
        E 0 90 4c 60
        E 0 90 54 60
        E 0 90 58 60
        E 0 90 60 60
        E 0 90 64 60
        E 0 90 18 60
        E 0 90 26 60
        E 60 80 40 00
        E 0 80 48 00
        E 0 80 4c 00
        E 0 80 54 00
        E 0 80 58 00
        E 0 80 60 00
        E 0 80 64 00
        E 0 80 18 00
        E 0 80 26 00
        E 420 90 3d 60
        E 0 90 40 60
        E 0 90 49 60
        E 0 90 4c 60
        E 0 90 55 60
        E 0 90 58 60
        E 0 90 61 60
        E 0 90 64 60
        E 0 90 1a 60
        E 0 90 26 60
        E 60 80 3d 00
        E 0 80 40 00
        E 0 80 49 00
        E 0 80 4c 00
        E 0 80 55 00
        E 0 80 58 00
        E 0 80 61 00
        E 0 80 64 00
        E 0 80 1a 00
        E 0 80 26 00
        E 420 90 40 60
        E 0 90 48 60
        E 0 90 4c 60
        E 0 90 54 60
        E 0 90 58 60
        E 0 90 60 60
        E 0 90 64 60
        E 0 90 18 60
        E 0 90 26 60
        E 60 80 40 00
        E 0 80 48 00
        E 0 80 4c 00
        E 0 80 54 00
        E 0 80 58 00
        E 0 80 60 00
        E 0 80 64 00
        E 0 80 18 00
        E 0 80 26 00
        E 420 90 3d 60
        E 0 90 40 60
        E 0 90 49 60
        E 0 90 4c 60
        E 0 90 55 60
        E 0 90 58 60
        E 0 90 61 60
        E 0 90 64 60
        E 0 90 1a 60
        E 0 90 26 60
        E 60 80 3d 00
        E 0 80 40 00
        E 0 80 49 00
        E 0 80 4c 00
        E 0 80 55 00
        E 0 80 58 00
        E 0 80 61 00
        E 0 80 64 00
        E 0 80 1a 00
        E 0 80 26 00
        E 420 90 40 60
        E 0 90 48 60
        E 0 90 4c 60
        E 0 90 54 60
        E 0 90 58 60
        E 0 90 60 60
        E 0 90 64 60
        E 0 90 18 60
        E 0 90 26 60
        E 60 80 40 00
        E 0 80 48 00
        E 0 80 4c 00
        E 0 80 54 00
        E 0 80 58 00
        E 0 80 60 00
        E 0 80 64 00
        E 0 80 18 00
        E 0 80 26 00
        E 420 90 3d 60
        E 0 90 40 60
        E 0 90 49 60
        E 0 90 4c 60
        E 0 90 55 60
        E 0 90 58 60
        E 0 90 61 60
        E 0 90 64 60
        E 0 90 1a 60
        E 0 90 26 60
        E 60 80 3d 00
        E 0 80 40 00
        E 0 80 49 00
        E 0 80 4c 00
        E 0 80 55 00
        E 0 80 58 00
        E 0 80 61 00
        E 0 80 64 00
        E 0 80 1a 00
        E 0 80 26 00
        E 420 90 40 60
        E 0 90 48 60
        E 0 90 4c 60
        E 0 90 54 60
        E 0 90 58 60
        E 0 90 60 60
        E 0 90 64 60
        E 0 90 18 60
        E 0 90 26 60
        E 60 80 40 00
        E 0 80 48 00
        E 0 80 4c 00
        E 0 80 54 00
        E 0 80 58 00
        E 0 80 60 00
        E 0 80 64 00
        E 0 80 18 00
        E 0 80 26 00
        E 420 90 3d 60
        E 0 90 40 60
        E 0 90 49 60
        E 0 90 4c 60
        E 0 90 55 60
        E 0 90 58 60
        E 0 90 61 60
        E 0 90 64 60
        E 0 90 1a 60
        E 0 90 26 60
        E 60 80 3d 00
        E 0 80 40 00
        E 0 80 49 00
        E 0 80 4c 00
        E 0 80 55 00
        E 0 80 58 00
        E 0 80 61 00
        E 0 80 64 00
        E 0 80 1a 00
        E 0 80 26 00
        E 420 90 40 60
        E 0 90 48 60
        E 0 90 4c 60
        E 0 90 54 60
        E 0 90 58 60
        E 0 90 60 60
        E 0 90 64 60
        E 0 90 18 60
        E 0 90 26 60
        E 60 80 40 00
        E 0 80 48 00
        E 0 80 4c 00
        E 0 80 54 00
        E 0 80 58 00
        E 0 80 60 00
        E 0 80 64 00
        E 0 80 18 00
        E 0 80 26 00
        E 420 90 3d 60
        E 0 90 40 60
        E 0 90 49 60
        E 0 90 4c 60
        E 0 90 55 60
        E 0 90 58 60
        E 0 90 61 60
        E 0 90 64 60
        E 0 90 1a 60
        E 0 90 26 60
        E 60 80 3d 00
        E 0 80 40 00
        E 0 80 49 00
        E 0 80 4c 00
        E 0 80 55 00
        E 0 80 58 00
        E 0 80 61 00
        E 0 80 64 00
        E 0 80 1a 00
        E 0 80 26 00
        E 420 90 40 60
        E 0 90 48 60
        E 0 90 4c 60
        E 0 90 54 60
        E 0 90 58 60
        E 0 90 60 60
        E 0 90 64 60
        E 0 90 18 60
        E 0 90 26 60
        E 60 80 40 00
        E 0 80 48 00
        E 0 80 4c 00
        E 0 80 54 00
        E 0 80 58 00
        E 0 80 60 00
        E 0 80 64 00
        E 0 80 18 00
        E 0 80 26 00
        E 420 90 3d 60
        E 0 90 40 60
        E 0 90 49 60
        E 0 90 4c 60
        E 0 90 55 60
        E 0 90 58 60
        E 0 90 61 60
        E 0 90 64 60
        E 0 90 1a 60
        E 0 90 26 60
        E 60 80 3d 00
        E 0 80 40 00
        E 0 80 49 00
        E 0 80 4c 00
        E 0 80 55 00
        E 0 80 58 00
        E 0 80 61 00
        E 0 80 64 00
        E 0 80 1a 00
        E 0 80 26 00
        E 420 90 40 60
        E 0 90 48 60
        E 0 90 4c 60
        E 0 90 54 60
        E 0 90 58 60
        E 0 90 60 60
        E 0 90 64 60
        E 0 90 18 60
        E 0 90 26 60
        E 60 80 40 00
        E 0 80 48 00
        E 0 80 4c 00
        E 0 80 54 00
        E 0 80 58 00
        E 0 80 60 00
        E 0 80 64 00
        E 0 80 18 00
        E 0 80 26 00
        E 420 90 3d 60
        E 0 90 40 60
        E 0 90 49 60
        E 0 90 4c 60
        E 0 90 55 60
        E 0 90 58 60
        E 0 90 61 60
        E 0 90 64 60
        E 0 90 1a 60
        E 0 90 26 60
        E 60 80 3d 00
        E 0 80 40 00
        E 0 80 49 00
        E 0 80 4c 00
        E 0 80 55 00
        E 0 80 58 00
        E 0 80 61 00
        E 0 80 64 00
        E 0 80 1a 00
        E 0 80 26 00
        E 420 90 40 60
        E 0 90 48 60
        E 0 90 4c 60
        E 0 90 54 60
        E 0 90 58 60
        E 0 90 60 60
        E 0 90 64 60
        E 0 90 18 60
        E 0 90 26 60
        E 60 80 40 00
        E 0 80 48 00
        E 0 80 4c 00
        E 0 80 54 00
        E 0 80 58 00
        E 0 80 60 00
        E 0 80 64 00
        E 0 80 18 00
        E 0 80 26 00
        E 420 90 3d 60
        E 0 90 40 60
        E 0 90 49 60
        E 0 90 4c 60
        E 0 90 55 60
        E 0 90 58 60
        E 0 90 61 60
        E 0 90 64 60
        E 0 90 1a 60
        E 0 90 26 60
        E 60 80 3d 00
        E 0 80 40 00
        E 0 80 49 00
        E 0 80 4c 00
        E 0 80 55 00
        E 0 80 58 00
        E 0 80 61 00
        E 0 80 64 00
        E 0 80 1a 00
        E 0 80 26 00
        E 420 90 40 60
        E 0 90 48 60
        E 0 90 4c 60
        E 0 90 54 60
        E 0 90 58 60
        E 0 90 60 60
        E 0 90 64 60
        E 0 90 78 60
        E 0 90 79 60
        E 0 90 7a 60
        E 0 90 7b 60
        E 0 90 7c 60
        E 0 90 18 60
        E 0 90 26 60
        E 60 80 40 00
        E 0 80 48 00
        E 0 80 4c 00
        E 0 80 54 00
        E 0 80 58 00
        E 0 80 60 00
        E 0 80 64 00
        E 0 80 18 00
        E 0 80 26 00
        E 180 90 54 60
        E 0 90 60 60
        E 0 90 18 60
        E 60 80 54 00
        E 0 80 60 00
        E 0 80 18 00
        E 180 90 3d 60
        E 0 90 40 60
        E 0 90 49 60
        E 0 90 4c 60
        E 0 90 55 60
        E 0 90 58 60
        E 0 90 61 60
        E 0 90 64 60
        E 0 90 1a 60
        E 0 90 26 60
        E 60 80 3d 00
        E 0 80 40 00
        E 0 80 49 00
        E 0 80 4c 00
        E 0 80 55 00
        E 0 80 58 00
        E 0 80 61 00
        E 0 80 64 00
        E 0 80 1a 00
        E 0 80 26 00
        E 180 90 54 60
        E 0 90 60 60
        E 0 90 18 60
        E 60 80 54 00
        E 0 80 60 00
        E 0 80 18 00
        E 180 90 3d 60
        E 0 90 40 60
        E 0 90 49 60
        E 0 90 4c 60
        E 0 90 55 60
        E 0 90 58 60
        E 0 90 61 60
        E 0 90 64 60
        E 0 90 1a 60
        E 0 90 26 60
        E 60 80 3d 00
        E 0 80 40 00
        E 0 80 49 00
        E 0 80 4c 00
        E 0 80 55 00
        E 0 80 58 00
        E 0 80 61 00
        E 0 80 64 00
        E 0 80 1a 00
        E 0 80 26 00
        E 180 90 54 60
        E 0 90 60 60
        E 0 90 18 60
        E 60 80 54 00
        E 0 80 60 00
        E 0 80 18 00
        E 180 80 78 00
        E 0 80 79 00
        E 0 80 7a 00
        E 0 80 7b 00
        E 0 80 7c 00
        E 0 90 3d 60
        E 0 90 40 60
        E 0 90 49 60
        E 0 90 4c 60
        E 0 90 55 60
        E 0 90 58 60
        E 0 90 61 60
        E 0 90 64 60
        E 0 90 1a 60
        E 0 90 26 60
        E 60 80 3d 00
        E 0 80 40 00
        E 0 80 49 00
        E 0 80 4c 00
        E 0 80 55 00
        E 0 80 58 00
        E 0 80 61 00
        E 0 80 64 00
        E 0 80 1a 00
        E 0 80 26 00
        E 420 90 3e 60
        E 0 90 48 60
        E 0 90 4a 60
        E 0 90 54 60
        E 0 90 56 60
        E 0 90 60 60
        E 0 90 62 60
        E 0 90 18 60
        E 0 90 1f 60
        E 60 80 3e 00
        E 0 80 48 00
        E 0 80 4a 00
        E 0 80 54 00
        E 0 80 56 00
        E 0 80 60 00
        E 0 80 62 00
        E 0 80 18 00
        E 0 80 1f 00
        E 420 90 40 60
        E 0 90 4c 60
        E 0 90 54 60
        E 0 90 58 60
        E 0 90 60 60
        E 0 90 64 60
        E 0 90 70 60
        E 0 90 18 60
        E 0 90 33 60
        E 60 80 40 00
        E 0 80 4c 00
        E 0 80 54 00
        E 0 80 58 00
        E 0 80 60 00
        E 0 80 64 00
        E 0 80 70 00
        E 0 80 18 00
        E 0 80 33 00
        E 420 90 3e 60
        E 0 90 48 60
        E 0 90 4a 60
        E 0 90 54 60
        E 0 90 56 60
        E 0 90 60 60
        E 0 90 62 60
        E 0 90 18 60
        E 0 90 1f 60
        E 60 80 3e 00
        E 0 80 48 00
        E 0 80 4a 00
        E 0 80 54 00
        E 0 80 56 00
        E 0 80 60 00
        E 0 80 62 00
        E 0 80 18 00
        E 0 80 1f 00
        E 420 90 40 60
        E 0 90 4c 60
        E 0 90 54 60
        E 0 90 58 60
        E 0 90 60 60
        E 0 90 64 60
        E 0 90 70 60
        E 0 90 18 60
        E 0 90 33 60
        E 60 80 40 00
        E 0 80 4c 00
        E 0 80 54 00
        E 0 80 58 00
        E 0 80 60 00
        E 0 80 64 00
        E 0 80 70 00
        E 0 80 18 00
        E 0 80 33 00
        E 420 90 3e 60
        E 0 90 48 60
        E 0 90 4a 60
        E 0 90 54 60
        E 0 90 56 60
        E 0 90 60 60
        E 0 90 62 60
        E 0 90 18 60
        E 0 90 1f 60
        E 60 80 3e 00
        E 0 80 48 00
        E 0 80 4a 00
        E 0 80 54 00
        E 0 80 56 00
        E 0 80 60 00
        E 0 80 62 00
        E 0 80 18 00
        E 0 80 1f 00
        E 420 90 40 60
        E 0 90 4c 60
        E 0 90 54 60
        E 0 90 58 60
        E 0 90 60 60
        E 0 90 64 60
        E 0 90 70 60
        E 0 90 18 60
        E 0 90 33 60
        E 60 80 40 00
        E 0 80 4c 00
        E 0 80 54 00
        E 0 80 58 00
        E 0 80 60 00
        E 0 80 64 00
        E 0 80 70 00
        E 0 80 18 00
        E 0 80 33 00
        E 420 90 3e 60
        E 0 90 48 60
        E 0 90 4a 60
        E 0 90 54 60
        E 0 90 56 60
        E 0 90 60 60
        E 0 90 62 60
        E 0 90 18 60
        E 0 90 1f 60
        E 60 80 3e 00
        E 0 80 48 00
        E 0 80 4a 00
        E 0 80 54 00
        E 0 80 56 00
        E 0 80 60 00
        E 0 80 62 00
        E 0 80 18 00
        E 0 80 1f 00
        E 420 90 40 60
        E 0 90 4c 60
        E 0 90 54 60
        E 0 90 58 60
        E 0 90 60 60
        E 0 90 64 60
        E 0 90 70 60
        E 0 90 18 60
        E 0 90 33 60
        E 60 80 40 00
        E 0 80 4c 00
        E 0 80 54 00
        E 0 80 58 00
        E 0 80 60 00
        E 0 80 64 00
        E 0 80 70 00
        E 0 80 18 00
        E 0 80 33 00
        E 420 90 3e 60
        E 0 90 48 60
        E 0 90 4a 60
        E 0 90 54 60
        E 0 90 56 60
        E 0 90 60 60
        E 0 90 62 60
        E 0 90 18 60
        E 0 90 1f 60
        E 60 80 3e 00
        E 0 80 48 00
        E 0 80 4a 00
        E 0 80 54 00
        E 0 80 56 00
        E 0 80 60 00
        E 0 80 62 00
        E 0 80 18 00
        E 0 80 1f 00
        E 420 90 40 60
        E 0 90 4c 60
        E 0 90 54 60
        E 0 90 58 60
        E 0 90 60 60
        E 0 90 64 60
        E 0 90 70 60
        E 0 90 18 60
        E 0 90 33 60
        E 60 80 40 00
        E 0 80 4c 00
        E 0 80 54 00
        E 0 80 58 00
        E 0 80 60 00
        E 0 80 64 00
        E 0 80 70 00
        E 0 80 18 00
        E 0 80 33 00
        E 420 90 3e 60
        E 0 90 48 60
        E 0 90 4a 60
        E 0 90 54 60
        E 0 90 56 60
        E 0 90 60 60
        E 0 90 62 60
        E 0 90 18 60
        E 0 90 1f 60
        E 60 80 3e 00
        E 0 80 48 00
        E 0 80 4a 00
        E 0 80 54 00
        E 0 80 56 00
        E 0 80 60 00
        E 0 80 62 00
        E 0 80 18 00
        E 0 80 1f 00
        E 420 90 40 60
        E 0 90 4c 60
        E 0 90 54 60
        E 0 90 58 60
        E 0 90 60 60
        E 0 90 64 60
        E 0 90 70 60
        E 0 90 18 60
        E 0 90 33 60
        E 60 80 40 00
        E 0 80 4c 00
        E 0 80 54 00
        E 0 80 58 00
        E 0 80 60 00
        E 0 80 64 00
        E 0 80 70 00
        E 0 80 18 00
        E 0 80 33 00
        E 420 90 3e 60
        E 0 90 48 60
        E 0 90 4a 60
        E 0 90 54 60
        E 0 90 56 60
        E 0 90 60 60
        E 0 90 62 60
        E 0 90 18 60
        E 0 90 1f 60
        E 60 80 3e 00
        E 0 80 48 00
        E 0 80 4a 00
        E 0 80 54 00
        E 0 80 56 00
        E 0 80 60 00
        E 0 80 62 00
        E 0 80 18 00
        E 0 80 1f 00
        E 420 90 40 60
        E 0 90 4c 60
        E 0 90 54 60
        E 0 90 58 60
        E 0 90 60 60
        E 0 90 64 60
        E 0 90 70 60
        E 0 90 18 60
        E 0 90 33 60
        E 60 80 40 00
        E 0 80 4c 00
        E 0 80 54 00
        E 0 80 58 00
        E 0 80 60 00
        E 0 80 64 00
        E 0 80 70 00
        E 0 80 18 00
        E 0 80 33 00
        E 420 90 3e 60
        E 0 90 48 60
        E 0 90 4a 60
        E 0 90 54 60
        E 0 90 56 60
        E 0 90 60 60
        E 0 90 62 60
        E 0 90 18 60
        E 0 90 1f 60
        E 60 80 3e 00
        E 0 80 48 00
        E 0 80 4a 00
        E 0 80 54 00
        E 0 80 56 00
        E 0 80 60 00
        E 0 80 62 00
        E 0 80 18 00
        E 0 80 1f 00
        E 420 90 40 60
        E 0 90 4c 60
        E 0 90 54 60
        E 0 90 58 60
        E 0 90 60 60
        E 0 90 64 60
        E 0 90 70 60
        E 0 90 18 60
        E 0 90 33 60
        E 60 80 40 00
        E 0 80 4c 00
        E 0 80 54 00
        E 0 80 58 00
        E 0 80 60 00
        E 0 80 64 00
        E 0 80 70 00
        E 0 80 18 00
        E 0 80 33 00
        E 420 90 3e 60
        E 0 90 48 60
        E 0 90 4a 60
        E 0 90 54 60
        E 0 90 56 60
        E 0 90 60 60
        E 0 90 62 60
        E 0 90 74 60
        E 0 90 18 60
        E 0 90 1f 60
        E 60 80 3e 00
        E 0 80 48 00
        E 0 80 4a 00
        E 0 80 54 00
        E 0 80 56 00
        E 0 80 60 00
        E 0 80 62 00
        E 0 80 18 00
        E 0 80 1f 00
        E 420 90 40 60
        E 0 90 4c 60
        E 0 90 54 60
        E 0 90 58 60
        E 0 90 60 60
        E 0 90 64 60
        E 0 90 70 60
        E 0 90 18 60
        E 0 90 33 60
        E 60 80 40 00
        E 0 80 4c 00
        E 0 80 54 00
        E 0 80 58 00
        E 0 80 60 00
        E 0 80 64 00
        E 0 80 70 00
        E 0 80 18 00
        E 0 80 33 00
        E 60 80 74 00
        E 360 90 3e 60
        E 0 90 48 60
        E 0 90 4a 60
        E 0 90 54 60
        E 0 90 56 60
        E 0 90 60 60
        E 0 90 62 60
        E 0 90 18 60
        E 0 90 1f 60
        E 60 80 3e 00
        E 0 80 48 00
        E 0 80 4a 00
        E 0 80 54 00
        E 0 80 56 00
        E 0 80 60 00
        E 0 80 62 00
        E 0 80 18 00
        E 0 80 1f 00
        E 420 90 40 60
        E 0 90 4c 60
        E 0 90 54 60
        E 0 90 58 60
        E 0 90 60 60
        E 0 90 64 60
        E 0 90 70 60
        E 0 90 18 60
        E 0 90 33 60
        E 60 80 40 00
        E 0 80 4c 00
        E 0 80 54 00
        E 0 80 58 00
        E 0 80 60 00
        E 0 80 64 00
        E 0 80 70 00
        E 0 80 18 00
        E 0 80 33 00
        E 420 90 3e 60
        E 0 90 48 60
        E 0 90 4a 60
        E 0 90 54 60
        E 0 90 56 60
        E 0 90 60 60
        E 0 90 62 60
        E 0 90 18 60
        E 0 90 1f 60
        E 60 80 3e 00
        E 0 80 48 00
        E 0 80 4a 00
        E 0 80 54 00
        E 0 80 56 00
        E 0 80 60 00
        E 0 80 62 00
        E 0 80 18 00
        E 0 80 1f 00
        E 420 90 40 60
        E 0 90 4c 60
        E 0 90 54 60
        E 0 90 58 60
        E 0 90 60 60
        E 0 90 64 60
        E 0 90 70 60
        E 0 90 18 60
        E 0 90 33 60
        E 60 80 40 00
        E 0 80 4c 00
        E 0 80 54 00
        E 0 80 58 00
        E 0 80 60 00
        E 0 80 64 00
        E 0 80 70 00
        E 0 80 18 00
        E 0 80 33 00
        E 420 90 3e 60
        E 0 90 48 60
        E 0 90 4a 60
        E 0 90 54 60
        E 0 90 56 60
        E 0 90 60 60
        E 0 90 62 60
        E 0 90 18 60
        E 0 90 1f 60
        E 60 80 3e 00
        E 0 80 48 00
        E 0 80 4a 00
        E 0 80 54 00
        E 0 80 56 00
        E 0 80 60 00
        E 0 80 62 00
        E 0 80 18 00
        E 0 80 1f 00
        E 420 90 40 60
        E 0 90 4c 60
        E 0 90 54 60
        E 0 90 58 60
        E 0 90 60 60
        E 0 90 64 60
        E 0 90 70 60
        E 0 90 18 60
        E 0 90 33 60
        E 60 80 40 00
        E 0 80 4c 00
        E 0 80 54 00
        E 0 80 58 00
        E 0 80 60 00
        E 0 80 64 00
        E 0 80 70 00
        E 0 80 18 00
        E 0 80 33 00
        E 420 90 3e 60
        E 0 90 48 60
        E 0 90 4a 60
        E 0 90 54 60
        E 0 90 56 60
        E 0 90 60 60
        E 0 90 62 60
        E 0 90 18 60
        E 0 90 1f 60
        E 60 80 3e 00
        E 0 80 48 00
        E 0 80 4a 00
        E 0 80 54 00
        E 0 80 56 00
        E 0 80 60 00
        E 0 80 62 00
        E 0 80 18 00
        E 0 80 1f 00
        E 420 90 40 60
        E 0 90 4c 60
        E 0 90 54 60
        E 0 90 58 60
        E 0 90 60 60
        E 0 90 64 60
        E 0 90 70 60
        E 0 90 18 60
        E 0 90 33 60
        E 60 80 40 00
        E 0 80 4c 00
        E 0 80 54 00
        E 0 80 58 00
        E 0 80 60 00
        E 0 80 64 00
        E 0 80 70 00
        E 0 80 18 00
        E 0 80 33 00
        E 420 90 3e 60
        E 0 90 48 60
        E 0 90 4a 60
        E 0 90 54 60
        E 0 90 56 60
        E 0 90 60 60
        E 0 90 62 60
        E 0 90 18 60
        E 0 90 1f 60
        E 60 80 3e 00
        E 0 80 48 00
        E 0 80 4a 00
        E 0 80 54 00
        E 0 80 56 00
        E 0 80 60 00
        E 0 80 62 00
        E 0 80 18 00
        E 0 80 1f 00
        E 420 90 40 60
        E 0 90 4c 60
        E 0 90 54 60
        E 0 90 58 60
        E 0 90 60 60
        E 0 90 64 60
        E 0 90 70 60
        E 0 90 18 60
        E 0 90 33 60
        E 60 80 40 00
        E 0 80 4c 00
        E 0 80 54 00
        E 0 80 58 00
        E 0 80 60 00
        E 0 80 64 00
        E 0 80 70 00
        E 0 80 18 00
        E 0 80 33 00
        E 420 90 3e 60
        E 0 90 48 60
        E 0 90 4a 60
        E 0 90 54 60
        E 0 90 56 60
        E 0 90 60 60
        E 0 90 62 60
        E 0 90 18 60
        E 0 90 1f 60
        E 60 80 3e 00
        E 0 80 48 00
        E 0 80 4a 00
        E 0 80 54 00
        E 0 80 56 00
        E 0 80 60 00
        E 0 80 62 00
        E 0 80 18 00
        E 0 80 1f 00
        E 420 90 40 60
        E 0 90 4c 60
        E 0 90 54 60
        E 0 90 58 60
        E 0 90 60 60
        E 0 90 64 60
        E 0 90 70 60
        E 0 90 18 60
        E 0 90 33 60
        E 60 80 40 00
        E 0 80 4c 00
        E 0 80 54 00
        E 0 80 58 00
        E 0 80 60 00
        E 0 80 64 00
        E 0 80 70 00
        E 0 80 18 00
        E 0 80 33 00
        E 420 90 3e 60
        E 0 90 48 60
        E 0 90 4a 60
        E 0 90 54 60
        E 0 90 56 60
        E 0 90 60 60
        E 0 90 62 60
        E 0 90 18 60
        E 0 90 1f 60
        E 60 80 3e 00
        E 0 80 48 00
        E 0 80 4a 00
        E 0 80 54 00
        E 0 80 56 00
        E 0 80 60 00
        E 0 80 62 00
        E 0 80 18 00
        E 0 80 1f 00
        E 420 90 3d 60
        E 0 90 40 60
        E 0 90 49 60
        E 0 90 4c 60
        E 0 90 55 60
        E 0 90 58 60
        E 0 90 61 60
        E 0 90 64 60
        E 0 90 70 60
        E 0 90 1a 60
        E 0 90 33 60
        E 60 80 3d 00
        E 0 80 40 00
        E 0 80 49 00
        E 0 80 4c 00
        E 0 80 55 00
        E 0 80 58 00
        E 0 80 61 00
        E 0 80 64 00
        E 0 80 70 00
        E 0 80 1a 00
        E 0 80 33 00
        E 420 90 40 60
        E 0 90 48 60
        E 0 90 4c 60
        E 0 90 54 60
        E 0 90 58 60
        E 0 90 60 60
        E 0 90 64 60
        E 0 90 18 60
        E 0 90 26 60
        E 60 80 40 00
        E 0 80 48 00
        E 0 80 4c 00
        E 0 80 54 00
        E 0 80 58 00
        E 0 80 60 00
        E 0 80 64 00
        E 0 80 18 00
        E 0 80 26 00
        E 420 90 3d 60
        E 0 90 40 60
        E 0 90 49 60
        E 0 90 4c 60
        E 0 90 55 60
        E 0 90 58 60
        E 0 90 61 60
        E 0 90 64 60
        E 0 90 1a 60
        E 0 90 26 60
        E 60 80 3d 00
        E 0 80 40 00
        E 0 80 49 00
        E 0 80 4c 00
        E 0 80 55 00
        E 0 80 58 00
        E 0 80 61 00
        E 0 80 64 00
        E 0 80 1a 00
        E 0 80 26 00
        E 420 90 40 60
        E 0 90 48 60
        E 0 90 4c 60
        E 0 90 54 60
        E 0 90 58 60
        E 0 90 60 60
        E 0 90 64 60
        E 0 90 18 60
        E 0 90 26 60
        E 60 80 40 00
        E 0 80 48 00
        E 0 80 4c 00
        E 0 80 54 00
        E 0 80 58 00
        E 0 80 60 00
        E 0 80 64 00
        E 0 80 18 00
        E 0 80 26 00
        E 420 90 3d 60
        E 0 90 40 60
        E 0 90 49 60
        E 0 90 4c 60
        E 0 90 55 60
        E 0 90 58 60
        E 0 90 61 60
        E 0 90 64 60
        E 0 90 1a 60
        E 0 90 26 60
        E 60 80 3d 00
        E 0 80 40 00
        E 0 80 49 00
        E 0 80 4c 00
        E 0 80 55 00
        E 0 80 58 00
        E 0 80 61 00
        E 0 80 64 00
        E 0 80 1a 00
        E 0 80 26 00
        E 420 90 40 60
        E 0 90 48 60
        E 0 90 4c 60
        E 0 90 54 60
        E 0 90 58 60
        E 0 90 60 60
        E 0 90 64 60
        E 0 90 18 60
        E 0 90 26 60
        E 60 80 40 00
        E 0 80 48 00
        E 0 80 4c 00
        E 0 80 54 00
        E 0 80 58 00
        E 0 80 60 00
        E 0 80 64 00
        E 0 80 18 00
        E 0 80 26 00
        E 420 90 3d 60
        E 0 90 40 60
        E 0 90 49 60
        E 0 90 4c 60
        E 0 90 55 60
        E 0 90 58 60
        E 0 90 61 60
        E 0 90 64 60
        E 0 90 78 60
        E 0 90 79 60
        E 0 90 7a 60
        E 0 90 7b 60
        E 0 90 7c 60
        E 0 90 1a 60
        E 0 90 26 60
        E 60 80 3d 00
        E 0 80 40 00
        E 0 80 49 00
        E 0 80 4c 00
        E 0 80 55 00
        E 0 80 58 00
        E 0 80 61 00
        E 0 80 64 00
        E 0 80 1a 00
        E 0 80 26 00
        E 420 90 40 60
        E 0 90 48 60
        E 0 90 4c 60
        E 0 90 54 60
        E 0 90 58 60
        E 0 90 60 60
        E 0 90 64 60
        E 0 90 18 60
        E 0 90 26 60
        E 60 80 40 00
        E 0 80 48 00
        E 0 80 4c 00
        E 0 80 54 00
        E 0 80 58 00
        E 0 80 60 00
        E 0 80 64 00
        E 0 80 18 00
        E 0 80 26 00
        E 420 90 3d 60
        E 0 90 40 60
        E 0 90 49 60
        E 0 90 4c 60
        E 0 90 55 60
        E 0 90 58 60
        E 0 90 61 60
        E 0 90 64 60
        E 0 90 1a 60
        E 0 90 26 60
        E 60 80 3d 00
        E 0 80 40 00
        E 0 80 49 00
        E 0 80 4c 00
        E 0 80 55 00
        E 0 80 58 00
        E 0 80 61 00
        E 0 80 64 00
        E 0 80 1a 00
        E 0 80 26 00
        E 420 80 78 00
        E 0 80 79 00
        E 0 80 7a 00
        E 0 80 7b 00
        E 0 80 7c 00
        E 0 90 40 60
        E 0 90 48 60
        E 0 90 4c 60
        E 0 90 54 60
        E 0 90 58 60
        E 0 90 60 60
        E 0 90 64 60
        E 0 90 18 60
        E 0 90 26 60
        E 60 80 40 00
        E 0 80 48 00
        E 0 80 4c 00
        E 0 80 54 00
        E 0 80 58 00
        E 0 80 60 00
        E 0 80 64 00
        E 0 80 18 00
        E 0 80 26 00
        E 420 90 3d 60
        E 0 90 40 60
        E 0 90 49 60
        E 0 90 4c 60
        E 0 90 55 60
        E 0 90 58 60
        E 0 90 61 60
        E 0 90 64 60
        E 0 90 1a 60
        E 0 90 26 60
        E 60 80 3d 00
        E 0 80 40 00
        E 0 80 49 00
        E 0 80 4c 00
        E 0 80 55 00
        E 0 80 58 00
        E 0 80 61 00
        E 0 80 64 00
        E 0 80 1a 00
        E 0 80 26 00
        E 420 90 40 60
        E 0 90 48 60
        E 0 90 4c 60
        E 0 90 54 60
        E 0 90 58 60
        E 0 90 60 60
        E 0 90 64 60
        E 0 90 18 60
        E 0 90 26 60
        E 60 80 40 00
        E 0 80 48 00
        E 0 80 4c 00
        E 0 80 54 00
        E 0 80 58 00
        E 0 80 60 00
        E 0 80 64 00
        E 0 80 18 00
        E 0 80 26 00
        E 420 90 3d 60
        E 0 90 40 60
        E 0 90 49 60
        E 0 90 4c 60
        E 0 90 55 60
        E 0 90 58 60
        E 0 90 61 60
        E 0 90 64 60
        E 0 90 1a 60
        E 0 90 26 60
        E 60 80 3d 00
        E 0 80 40 00
        E 0 80 49 00
        E 0 80 4c 00
        E 0 80 55 00
        E 0 80 58 00
        E 0 80 61 00
        E 0 80 64 00
        E 0 80 1a 00
        E 0 80 26 00
        E 420 90 40 60
        E 0 90 48 60
        E 0 90 4c 60
        E 0 90 54 60
        E 0 90 58 60
        E 0 90 60 60
        E 0 90 64 60
        E 0 90 18 60
        E 0 90 26 60
        E 60 80 40 00
        E 0 80 48 00
        E 0 80 4c 00
        E 0 80 54 00
        E 0 80 58 00
        E 0 80 60 00
        E 0 80 64 00
        E 0 80 18 00
        E 0 80 26 00
        E 420 90 3d 60
        E 0 90 40 60
        E 0 90 49 60
        E 0 90 4c 60
        E 0 90 55 60
        E 0 90 58 60
        E 0 90 61 60
        E 0 90 64 60
        E 0 90 1a 60
        E 0 90 26 60
        E 60 80 3d 00
        E 0 80 40 00
        E 0 80 49 00
        E 0 80 4c 00
        E 0 80 55 00
        E 0 80 58 00
        E 0 80 61 00
        E 0 80 64 00
        E 0 80 1a 00
        E 0 80 26 00
        E 420 90 40 60
        E 0 90 48 60
        E 0 90 4c 60
        E 0 90 54 60
        E 0 90 58 60
        E 0 90 60 60
        E 0 90 64 60
        E 0 90 18 60
        E 0 90 26 60
        E 60 80 40 00
        E 0 80 48 00
        E 0 80 4c 00
        E 0 80 54 00
        E 0 80 58 00
        E 0 80 60 00
        E 0 80 64 00
        E 0 80 18 00
        E 0 80 26 00
        E 180 90 54 60
        E 0 90 60 60
        E 0 90 18 60
        E 60 80 54 00
        E 0 80 60 00
        E 0 80 18 00
        E 180 90 3d 60
        E 0 90 40 60
        E 0 90 49 60
        E 0 90 4c 60
        E 0 90 55 60
        E 0 90 58 60
        E 0 90 61 60
        E 0 90 64 60
        E 0 90 1a 60
        E 0 90 26 60
        E 60 80 3d 00
        E 0 80 40 00
        E 0 80 49 00
        E 0 80 4c 00
        E 0 80 55 00
        E 0 80 58 00
        E 0 80 61 00
        E 0 80 64 00
        E 0 80 1a 00
        E 0 80 26 00
        E 420 90 40 60
        E 0 90 48 60
        E 0 90 4c 60
        E 0 90 54 60
        E 0 90 58 60
        E 0 90 60 60
        E 0 90 64 60
        E 0 90 18 60
        E 0 90 26 60
        E 60 80 40 00
        E 0 80 48 00
        E 0 80 4c 00
        E 0 80 54 00
        E 0 80 58 00
        E 0 80 60 00
        E 0 80 64 00
        E 0 80 18 00
        E 0 80 26 00
        E 420 90 3d 60
        E 0 90 40 60
        E 0 90 49 60
        E 0 90 4c 60
        E 0 90 55 60
        E 0 90 58 60
        E 0 90 61 60
        E 0 90 64 60
        E 0 90 1a 60
        E 0 90 26 60
        E 60 80 3d 00
        E 0 80 40 00
        E 0 80 49 00
        E 0 80 4c 00
        E 0 80 55 00
        E 0 80 58 00
        E 0 80 61 00
        E 0 80 64 00
        E 0 80 1a 00
        E 0 80 26 00
        E 420 90 40 60
        E 0 90 48 60
        E 0 90 4c 60
        E 0 90 54 60
        E 0 90 58 60
        E 0 90 60 60
        E 0 90 64 60
        E 0 90 18 60
        E 0 90 26 60
        E 60 80 40 00
        E 0 80 48 00
        E 0 80 4c 00
        E 0 80 54 00
        E 0 80 58 00
        E 0 80 60 00
        E 0 80 64 00
        E 0 80 18 00
        E 0 80 26 00
        E 420 90 3d 60
        E 0 90 40 60
        E 0 90 49 60
        E 0 90 4c 60
        E 0 90 55 60
        E 0 90 58 60
        E 0 90 61 60
        E 0 90 64 60
        E 0 90 1a 60
        E 0 90 26 60
        E 60 80 3d 00
        E 0 80 40 00
        E 0 80 49 00
        E 0 80 4c 00
        E 0 80 55 00
        E 0 80 58 00
        E 0 80 61 00
        E 0 80 64 00
        E 0 80 1a 00
        E 0 80 26 00
        E 420 90 40 60
        E 0 90 48 60
        E 0 90 4c 60
        E 0 90 54 60
        E 0 90 58 60
        E 0 90 60 60
        E 0 90 64 60
        E 0 90 18 60
        E 0 90 26 60
        E 60 80 40 00
        E 0 80 48 00
        E 0 80 4c 00
        E 0 80 54 00
        E 0 80 58 00
        E 0 80 60 00
        E 0 80 64 00
        E 0 80 18 00
        E 0 80 26 00
        E 420 90 3d 60
        E 0 90 40 60
        E 0 90 49 60
        E 0 90 4c 60
        E 0 90 55 60
        E 0 90 58 60
        E 0 90 61 60
        E 0 90 64 60
        E 0 90 1a 60
        E 0 90 26 60
        E 60 80 3d 00
        E 0 80 40 00
        E 0 80 49 00
        E 0 80 4c 00
        E 0 80 55 00
        E 0 80 58 00
        E 0 80 61 00
        E 0 80 64 00
        E 0 80 1a 00
        E 0 80 26 00
        E 420 90 40 60
        E 0 90 48 60
        E 0 90 4c 60
        E 0 90 54 60
        E 0 90 58 60
        E 0 90 60 60
        E 0 90 64 60
        E 0 90 18 60
        E 0 90 26 60
        E 60 80 40 00
        E 0 80 48 00
        E 0 80 4c 00
        E 0 80 54 00
        E 0 80 58 00
        E 0 80 60 00
        E 0 80 64 00
        E 0 80 18 00
        E 0 80 26 00
        E 420 90 3d 60
        E 0 90 40 60
        E 0 90 49 60
        E 0 90 4c 60
        E 0 90 55 60
        E 0 90 58 60
        E 0 90 61 60
        E 0 90 64 60
        E 0 90 1a 60
        E 0 90 26 60
        E 60 80 3d 00
        E 0 80 40 00
        E 0 80 49 00
        E 0 80 4c 00
        E 0 80 55 00
        E 0 80 58 00
        E 0 80 61 00
        E 0 80 64 00
        E 0 80 1a 00
        E 0 80 26 00
        E 420 90 40 60
        E 0 90 48 60
        E 0 90 4c 60
        E 0 90 54 60
        E 0 90 58 60
        E 0 90 60 60
        E 0 90 64 60
        E 0 90 18 60
        E 0 90 26 60
        E 60 80 40 00
        E 0 80 48 00
        E 0 80 4c 00
        E 0 80 54 00
        E 0 80 58 00
        E 0 80 60 00
        E 0 80 64 00
        E 0 80 18 00
        E 0 80 26 00
        E 420 90 3d 60
        E 0 90 40 60
        E 0 90 49 60
        E 0 90 4c 60
        E 0 90 55 60
        E 0 90 58 60
        E 0 90 61 60
        E 0 90 64 60
        E 0 90 1a 60
        E 0 90 26 60
        E 60 80 3d 00
        E 0 80 40 00
        E 0 80 49 00
        E 0 80 4c 00
        E 0 80 55 00
        E 0 80 58 00
        E 0 80 61 00
        E 0 80 64 00
        E 0 80 1a 00
        E 0 80 26 00
        E 420 90 40 60
        E 0 90 48 60
        E 0 90 4c 60
        E 0 90 54 60
        E 0 90 58 60
        E 0 90 60 60
        E 0 90 64 60
        E 0 90 18 60
        E 0 90 26 60
        E 60 80 40 00
        E 0 80 48 00
        E 0 80 4c 00
        E 0 80 54 00
        E 0 80 58 00
        E 0 80 60 00
        E 0 80 64 00
        E 0 80 18 00
        E 0 80 26 00
        E 420 90 3d 60
        E 0 90 40 60
        E 0 90 49 60
        E 0 90 4c 60
        E 0 90 55 60
        E 0 90 58 60
        E 0 90 61 60
        E 0 90 64 60
        E 0 90 1a 60
        E 0 90 26 60
        E 60 80 3d 00
        E 0 80 40 00
        E 0 80 49 00
        E 0 80 4c 00
        E 0 80 55 00
        E 0 80 58 00
        E 0 80 61 00
        E 0 80 64 00
        E 0 80 1a 00
        E 0 80 26 00
        E 420 90 40 60
        E 0 90 48 60
        E 0 90 4c 60
        E 0 90 54 60
        E 0 90 58 60
        E 0 90 60 60
        E 0 90 64 60
        E 0 90 18 60
        E 0 90 26 60
        E 60 80 40 00
        E 0 80 48 00
        E 0 80 4c 00
        E 0 80 54 00
        E 0 80 58 00
        E 0 80 60 00
        E 0 80 64 00
        E 0 80 18 00
        E 0 80 26 00
        E 180 90 54 60
        E 0 90 60 60
        E 0 90 18 60
        E 60 80 54 00
        E 0 80 60 00
        E 0 80 18 00
        E 180 90 3d 60
        E 0 90 40 60
        E 0 90 49 60
        E 0 90 4c 60
        E 0 90 55 60
        E 0 90 58 60
        E 0 90 61 60
        E 0 90 64 60
        E 0 90 1a 60
        E 0 90 26 60
        E 60 80 3d 00
        E 0 80 40 00
        E 0 80 49 00
        E 0 80 4c 00
        E 0 80 55 00
        E 0 80 58 00
        E 0 80 61 00
        E 0 80 64 00
        E 0 80 1a 00
        E 0 80 26 00
        E 180 90 54 60
        E 0 90 60 60
        E 0 90 74 60
        E 0 90 18 60
        E 60 80 54 00
        E 0 80 60 00
        E 0 80 18 00
        E 60 90 61 60
        E 0 90 1a 60
        E 60 80 61 00
        E 0 80 1a 00
        E 60 90 3c 60
        E 0 90 48 60
        E 0 90 54 60
        E 0 90 60 60
        E 0 90 18 60
        E 60 80 3c 00
        E 0 80 48 00
        E 0 80 54 00
        E 0 80 60 00
        E 0 80 18 00
        E 60 90 61 60
        E 0 90 1a 60
        E 60 80 61 00
        E 0 80 1a 00
        E 60 90 55 60
        E 0 90 61 60
        E 0 90 1b 60
        E 60 80 55 00
        E 0 80 61 00
        E 0 80 1b 00
        E 180 90 3e 60
        E 0 90 4a 60
        E 0 90 56 60
        E 0 90 62 60
        E 0 90 6e 60
        E 0 90 2f 60
        E 60 80 3e 00
        E 0 80 4a 00
        E 0 80 56 00
        E 0 80 62 00
        E 0 80 6e 00
        E 0 80 2f 00
        E 60 90 63 60
        E 0 90 6f 60
        E 0 90 30 60
        E 60 80 63 00
        E 0 80 6f 00
        E 0 80 30 00
        E 60 90 58 60
        E 0 90 64 60
        E 0 90 70 60
        E 0 90 33 60
        E 60 80 58 00
        E 0 80 64 00
        E 0 80 70 00
        E 0 80 33 00
        E 60 90 63 60
        E 0 90 6f 60
        E 0 90 30 60
        E 60 80 63 00
        E 0 80 6f 00
        E 0 80 30 00
        E 60 90 40 60
        E 0 90 48 60
        E 0 90 4c 60
        E 0 90 54 60
        E 0 90 58 60
        E 0 90 60 60
        E 0 90 64 60
        E 0 90 18 60
        E 0 90 26 60
        E 60 80 74 00
        E 0 80 40 00
        E 0 80 48 00
        E 0 80 4c 00
        E 0 80 54 00
        E 0 80 58 00
        E 0 80 60 00
        E 0 80 64 00
        E 0 80 18 00
        E 0 80 26 00
        E 420 90 3d 60
        E 0 90 40 60
        E 0 90 49 60
        E 0 90 4c 60
        E 0 90 55 60
        E 0 90 58 60
        E 0 90 61 60
        E 0 90 64 60
        E 0 90 1a 60
        E 0 90 26 60
        E 60 80 3d 00
        E 0 80 40 00
        E 0 80 49 00
        E 0 80 4c 00
        E 0 80 55 00
        E 0 80 58 00
        E 0 80 61 00
        E 0 80 64 00
        E 0 80 1a 00
        E 0 80 26 00
        E 420 90 40 60
        E 0 90 48 60
        E 0 90 4c 60
        E 0 90 54 60
        E 0 90 58 60
        E 0 90 60 60
        E 0 90 64 60
        E 0 90 18 60
        E 0 90 26 60
        E 60 80 40 00
        E 0 80 48 00
        E 0 80 4c 00
        E 0 80 54 00
        E 0 80 58 00
        E 0 80 60 00
        E 0 80 64 00
        E 0 80 18 00
        E 0 80 26 00
        E 420 90 3d 60
        E 0 90 40 60
        E 0 90 49 60
        E 0 90 4c 60
        E 0 90 55 60
        E 0 90 58 60
        E 0 90 61 60
        E 0 90 64 60
        E 0 90 1a 60
        E 0 90 26 60
        E 60 80 3d 00
        E 0 80 40 00
        E 0 80 49 00
        E 0 80 4c 00
        E 0 80 55 00
        E 0 80 58 00
        E 0 80 61 00
        E 0 80 64 00
        E 0 80 1a 00
        E 0 80 26 00
        E 420 90 40 60
        E 0 90 48 60
        E 0 90 4c 60
        E 0 90 54 60
        E 0 90 58 60
        E 0 90 60 60
        E 0 90 64 60
        E 0 90 18 60
        E 0 90 26 60
        E 60 80 40 00
        E 0 80 48 00
        E 0 80 4c 00
        E 0 80 54 00
        E 0 80 58 00
        E 0 80 60 00
        E 0 80 64 00
        E 0 80 18 00
        E 0 80 26 00
        E 420 90 3d 60
        E 0 90 40 60
        E 0 90 49 60
        E 0 90 4c 60
        E 0 90 55 60
        E 0 90 58 60
        E 0 90 61 60
        E 0 90 64 60
        E 0 90 1a 60
        E 0 90 26 60
        E 60 80 3d 00
        E 0 80 40 00
        E 0 80 49 00
        E 0 80 4c 00
        E 0 80 55 00
        E 0 80 58 00
        E 0 80 61 00
        E 0 80 64 00
        E 0 80 1a 00
        E 0 80 26 00
        E 420 90 40 60
        E 0 90 48 60
        E 0 90 4c 60
        E 0 90 54 60
        E 0 90 58 60
        E 0 90 60 60
        E 0 90 64 60
        E 0 90 18 60
        E 0 90 26 60
        E 60 80 40 00
        E 0 80 48 00
        E 0 80 4c 00
        E 0 80 54 00
        E 0 80 58 00
        E 0 80 60 00
        E 0 80 64 00
        E 0 80 18 00
        E 0 80 26 00
        E 420 90 3d 60
        E 0 90 40 60
        E 0 90 49 60
        E 0 90 4c 60
        E 0 90 55 60
        E 0 90 58 60
        E 0 90 61 60
        E 0 90 64 60
        E 0 90 1a 60
        E 0 90 26 60
        E 60 80 3d 00
        E 0 80 40 00
        E 0 80 49 00
        E 0 80 4c 00
        E 0 80 55 00
        E 0 80 58 00
        E 0 80 61 00
        E 0 80 64 00
        E 0 80 1a 00
        E 0 80 26 00
        E 420 90 40 60
        E 0 90 48 60
        E 0 90 4c 60
        E 0 90 54 60
        E 0 90 58 60
        E 0 90 60 60
        E 0 90 64 60
        E 0 90 18 60
        E 0 90 26 60
        E 60 80 40 00
        E 0 80 48 00
        E 0 80 4c 00
        E 0 80 54 00
        E 0 80 58 00
        E 0 80 60 00
        E 0 80 64 00
        E 0 80 18 00
        E 0 80 26 00
        E 300 90 60 60
        E 0 90 18 60
        E 60 80 60 00
        E 0 90 60 60
        E 0 80 18 00
        E 0 90 18 60
        E 60 80 60 00
        E 0 90 3d 60
        E 0 90 40 60
        E 0 90 49 60
        E 0 90 4c 60
        E 0 90 55 60
        E 0 90 58 60
        E 0 90 61 60
        E 0 90 64 60
        E 0 80 18 00
        E 0 90 1a 60
        E 0 90 26 60
        E 60 80 3d 00
        E 0 80 40 00
        E 0 80 49 00
        E 0 80 4c 00
        E 0 80 55 00
        E 0 80 58 00
        E 0 80 61 00
        E 0 80 64 00
        E 0 80 1a 00
        E 0 80 26 00
        E 180 90 54 60
        E 0 90 60 60
        E 0 90 18 60
        E 60 80 54 00
        E 0 80 60 00
        E 0 80 18 00
        E 180 90 40 60
        E 0 90 4c 60
        E 0 90 58 60
        E 0 90 64 60
        E 0 90 26 60
        E 60 80 40 00
        E 0 80 4c 00
        E 0 80 58 00
        E 0 80 64 00
        E 0 80 26 00
        E 180 90 54 60
        E 0 90 60 60
        E 0 90 18 60
        E 60 80 54 00
        E 0 80 60 00
        E 0 80 18 00
        E 180 90 3d 60
        E 0 90 40 60
        E 0 90 49 60
        E 0 90 4c 60
        E 0 90 55 60
        E 0 90 58 60
        E 0 90 61 60
        E 0 90 64 60
        E 0 90 78 60
        E 0 90 79 60
        E 0 90 7a 60
        E 0 90 7b 60
        E 0 90 7c 60
        E 0 90 1a 60
        E 0 90 26 60
        E 60 80 3d 00
        E 0 80 40 00
        E 0 80 49 00
        E 0 80 4c 00
        E 0 80 55 00
        E 0 80 58 00
        E 0 80 61 00
        E 0 80 64 00
        E 0 80 1a 00
        E 0 80 26 00
        E 180 90 54 60
        E 0 90 60 60
        E 0 90 18 60
        E 60 80 54 00
        E 0 80 60 00
        E 0 80 18 00
        E 60 90 60 60
        E 0 90 18 60
        E 60 80 60 00
        E 0 80 18 00
        E 60 90 40 60
        E 0 90 48 60
        E 0 90 4c 60
        E 0 90 54 60
        E 0 90 58 60
        E 0 90 60 60
        E 0 90 64 60
        E 0 90 18 60
        E 0 90 26 60
        E 60 80 40 00
        E 0 80 48 00
        E 0 80 4c 00
        E 0 80 54 00
        E 0 80 58 00
        E 0 80 60 00
        E 0 80 64 00
        E 0 80 18 00
        E 0 80 26 00
        E 300 90 60 60
        E 0 90 18 60
        E 60 80 60 00
        E 0 80 18 00
        E 60 90 3d 60
        E 0 90 40 60
        E 0 90 49 60
        E 0 90 4c 60
        E 0 90 55 60
        E 0 90 58 60
        E 0 90 61 60
        E 0 90 64 60
        E 0 90 1a 60
        E 0 90 26 60
        E 60 80 3d 00
        E 0 80 40 00
        E 0 80 49 00
        E 0 80 4c 00
        E 0 80 55 00
        E 0 80 58 00
        E 0 80 61 00
        E 0 80 64 00
        E 0 80 1a 00
        E 0 80 26 00
        E 180 90 54 60
        E 0 90 60 60
        E 0 90 18 60
        E 60 80 54 00
        E 0 80 60 00
        E 0 80 18 00
        E 180 80 78 00
        E 0 80 79 00
        E 0 80 7a 00
        E 0 80 7b 00
        E 0 80 7c 00
        E 0 90 40 60
        E 0 90 4c 60
        E 0 90 58 60
        E 0 90 64 60
        E 0 90 26 60
        E 60 80 40 00
        E 0 80 4c 00
        E 0 80 58 00
        E 0 80 64 00
        E 0 80 26 00
        E 180 90 54 60
        E 0 90 60 60
        E 0 90 18 60
        E 60 80 54 00
        E 0 80 60 00
        E 0 80 18 00
        E 180 90 3d 60
        E 0 90 40 60
        E 0 90 49 60
        E 0 90 4c 60
        E 0 90 55 60
        E 0 90 58 60
        E 0 90 61 60
        E 0 90 64 60
        E 0 90 1a 60
        E 0 90 26 60
        E 60 80 3d 00
        E 0 80 40 00
        E 0 80 49 00
        E 0 80 4c 00
        E 0 80 55 00
        E 0 80 58 00
        E 0 80 61 00
        E 0 80 64 00
        E 0 80 1a 00
        E 0 80 26 00
        E 420 90 40 60
        E 0 90 48 60
        E 0 90 4c 60
        E 0 90 54 60
        E 0 90 58 60
        E 0 90 60 60
        E 0 90 64 60
        E 0 90 18 60
        E 0 90 26 60
        E 60 80 40 00
        E 0 80 48 00
        E 0 80 4c 00
        E 0 80 54 00
        E 0 80 58 00
        E 0 80 60 00
        E 0 80 64 00
        E 0 80 18 00
        E 0 80 26 00
        E 420 90 3d 60
        E 0 90 40 60
        E 0 90 49 60
        E 0 90 4c 60
        E 0 90 55 60
        E 0 90 58 60
        E 0 90 61 60
        E 0 90 64 60
        E 0 90 1a 60
        E 0 90 26 60
        E 60 80 3d 00
        E 0 80 40 00
        E 0 80 49 00
        E 0 80 4c 00
        E 0 80 55 00
        E 0 80 58 00
        E 0 80 61 00
        E 0 80 64 00
        E 0 80 1a 00
        E 0 80 26 00
        E 420 90 40 60
        E 0 90 48 60
        E 0 90 4c 60
        E 0 90 54 60
        E 0 90 58 60
        E 0 90 60 60
        E 0 90 64 60
        E 0 90 18 60
        E 0 90 26 60
        E 60 80 40 00
        E 0 80 48 00
        E 0 80 4c 00
        E 0 80 54 00
        E 0 80 58 00
        E 0 80 60 00
        E 0 80 64 00
        E 0 80 18 00
        E 0 80 26 00
        E 420 90 3d 60
        E 0 90 40 60
        E 0 90 49 60
        E 0 90 4c 60
        E 0 90 55 60
        E 0 90 58 60
        E 0 90 61 60
        E 0 90 64 60
        E 0 90 1a 60
        E 0 90 26 60
        E 60 80 3d 00
        E 0 80 40 00
        E 0 80 49 00
        E 0 80 4c 00
        E 0 80 55 00
        E 0 80 58 00
        E 0 80 61 00
        E 0 80 64 00
        E 0 80 1a 00
        E 0 80 26 00
        E 420 90 40 60
        E 0 90 48 60
        E 0 90 4c 60
        E 0 90 54 60
        E 0 90 58 60
        E 0 90 60 60
        E 0 90 64 60
        E 0 90 18 60
        E 0 90 26 60
        E 60 80 40 00
        E 0 80 48 00
        E 0 80 4c 00
        E 0 80 54 00
        E 0 80 58 00
        E 0 80 60 00
        E 0 80 64 00
        E 0 80 18 00
        E 0 80 26 00
        E 420 90 3d 60
        E 0 90 40 60
        E 0 90 49 60
        E 0 90 4c 60
        E 0 90 55 60
        E 0 90 58 60
        E 0 90 61 60
        E 0 90 64 60
        E 0 90 1a 60
        E 0 90 26 60
        E 60 80 3d 00
        E 0 80 40 00
        E 0 80 49 00
        E 0 80 4c 00
        E 0 80 55 00
        E 0 80 58 00
        E 0 80 61 00
        E 0 80 64 00
        E 0 80 1a 00
        E 0 80 26 00
        E 420 90 40 60
        E 0 90 48 60
        E 0 90 4c 60
        E 0 90 54 60
        E 0 90 58 60
        E 0 90 60 60
        E 0 90 64 60
        E 0 90 18 60
        E 0 90 26 60
        E 60 80 40 00
        E 0 80 48 00
        E 0 80 4c 00
        E 0 80 54 00
        E 0 80 58 00
        E 0 80 60 00
        E 0 80 64 00
        E 0 80 18 00
        E 0 80 26 00
        E 420 90 3d 60
        E 0 90 40 60
        E 0 90 49 60
        E 0 90 4c 60
        E 0 90 55 60
        E 0 90 58 60
        E 0 90 61 60
        E 0 90 64 60
        E 0 90 1a 60
        E 0 90 26 60
        E 60 80 3d 00
        E 0 80 40 00
        E 0 80 49 00
        E 0 80 4c 00
        E 0 80 55 00
        E 0 80 58 00
        E 0 80 61 00
        E 0 80 64 00
        E 0 80 1a 00
        E 0 80 26 00
        E 420 90 40 60
        E 0 90 48 60
        E 0 90 4c 60
        E 0 90 54 60
        E 0 90 58 60
        E 0 90 60 60
        E 0 90 64 60
        E 0 90 18 60
        E 0 90 26 60
        E 60 80 40 00
        E 0 80 48 00
        E 0 80 4c 00
        E 0 80 54 00
        E 0 80 58 00
        E 0 80 60 00
        E 0 80 64 00
        E 0 80 18 00
        E 0 80 26 00
        E 180 90 54 60
        E 0 90 60 60
        E 0 90 18 60
        E 60 80 54 00
        E 0 80 60 00
        E 0 80 18 00
        E 60 90 60 60
        E 0 90 18 60
        E 60 80 60 00
        E 0 80 18 00
        E 60 90 3d 60
        E 0 90 40 60
        E 0 90 49 60
        E 0 90 4c 60
        E 0 90 55 60
        E 0 90 58 60
        E 0 90 61 60
        E 0 90 64 60
        E 0 90 1a 60
        E 0 90 26 60
        E 60 80 3d 00
        E 0 80 40 00
        E 0 80 49 00
        E 0 80 4c 00
        E 0 80 55 00
        E 0 80 58 00
        E 0 80 61 00
        E 0 80 64 00
        E 0 80 1a 00
        E 0 80 26 00
        E 180 90 54 60
        E 0 90 60 60
        E 0 90 18 60
        E 60 80 54 00
        E 0 80 60 00
        E 0 80 18 00
        E 180 90 40 60
        E 0 90 4c 60
        E 0 90 58 60
        E 0 90 64 60
        E 0 90 26 60
        E 60 80 40 00
        E 0 80 4c 00
        E 0 80 58 00
        E 0 80 64 00
        E 0 80 26 00
        E 180 90 54 60
        E 0 90 60 60
        E 0 90 18 60
        E 60 80 54 00
        E 0 80 60 00
        E 0 80 18 00
        E 180 90 3d 60
        E 0 90 40 60
        E 0 90 49 60
        E 0 90 4c 60
        E 0 90 55 60
        E 0 90 58 60
        E 0 90 61 60
        E 0 90 64 60
        E 0 90 1a 60
        E 0 90 26 60
        E 60 80 3d 00
        E 0 80 40 00
        E 0 80 49 00
        E 0 80 4c 00
        E 0 80 55 00
        E 0 80 58 00
        E 0 80 61 00
        E 0 80 64 00
        E 0 80 1a 00
        E 0 80 26 00
        E 180 90 54 60
        E 0 90 60 60
        E 0 90 18 60
        E 60 80 54 00
        E 0 80 60 00
        E 0 80 18 00
        E 180 90 40 60
        E 0 90 48 60
        E 0 90 4c 60
        E 0 90 54 60
        E 0 90 58 60
        E 0 90 60 60
        E 0 90 64 60
        E 0 90 18 60
        E 0 90 26 60
        E 60 80 40 00
        E 0 80 48 00
        E 0 80 4c 00
        E 0 80 54 00
        E 0 80 58 00
        E 0 80 60 00
        E 0 80 64 00
        E 0 80 18 00
        E 0 80 26 00
        E 180 90 54 60
        E 0 90 60 60
        E 0 90 18 60
        E 60 80 54 00
        E 0 80 60 00
        E 0 80 18 00
        E 180 90 3d 60
        E 0 90 40 60
        E 0 90 49 60
        E 0 90 4c 60
        E 0 90 55 60
        E 0 90 58 60
        E 0 90 61 60
        E 0 90 64 60
        E 0 90 1a 60
        E 0 90 26 60
        E 60 80 3d 00
        E 0 80 40 00
        E 0 80 49 00
        E 0 80 4c 00
        E 0 80 55 00
        E 0 80 58 00
        E 0 80 61 00
        E 0 80 64 00
        E 0 80 1a 00
        E 0 80 26 00
        E 180 90 55 60
        E 0 90 61 60
        E 0 90 1a 60
        E 60 80 55 00
        E 0 80 61 00
        E 0 80 1a 00
        E 1140 90 40 60
        E 0 90 48 60
        E 0 90 4c 60
        E 0 90 54 60
        E 0 90 58 60
        E 0 90 60 60
        E 0 90 64 60
        E 0 90 18 60
        E 0 90 26 60
        E 60 80 40 00
        E 0 80 48 00
        E 0 80 4c 00
        E 0 80 54 00
        E 0 80 58 00
        E 0 80 60 00
        E 0 80 64 00
        E 0 80 18 00
        E 0 80 26 00
        E 420 90 3d 60
        E 0 90 40 60
        E 0 90 49 60
        E 0 90 4c 60
        E 0 90 55 60
        E 0 90 58 60
        E 0 90 61 60
        E 0 90 64 60
        E 0 90 1a 60
        E 0 90 26 60
        E 60 80 3d 00
        E 0 80 40 00
        E 0 80 49 00
        E 0 80 4c 00
        E 0 80 55 00
        E 0 80 58 00
        E 0 80 61 00
        E 0 80 64 00
        E 0 80 1a 00
        E 0 80 26 00
        E 420 90 40 60
        E 0 90 48 60
        E 0 90 4c 60
        E 0 90 54 60
        E 0 90 58 60
        E 0 90 60 60
        E 0 90 64 60
        E 0 90 18 60
        E 0 90 26 60
        E 60 80 40 00
        E 0 80 48 00
        E 0 80 4c 00
        E 0 80 54 00
        E 0 80 58 00
        E 0 80 60 00
        E 0 80 64 00
        E 0 80 18 00
        E 0 80 26 00
        E 411 90 74 60
        E 9 90 3d 60
        E 0 90 40 60
        E 0 90 49 60
        E 0 90 4c 60
        E 0 90 55 60
        E 0 90 58 60
        E 0 90 61 60
        E 0 90 64 60
        E 0 90 1a 60
        E 0 90 26 60
        E 60 80 3d 00
        E 0 80 40 00
        E 0 80 49 00
        E 0 80 4c 00
        E 0 80 55 00
        E 0 80 58 00
        E 0 80 61 00
        E 0 80 64 00
        E 0 80 1a 00
        E 0 80 26 00
        E 420 90 40 60
        E 0 90 48 60
        E 0 90 4c 60
        E 0 90 54 60
        E 0 90 58 60
        E 0 90 60 60
        E 0 90 64 60
        E 0 90 18 60
        E 0 90 26 60
        E 60 80 40 00
        E 0 80 48 00
        E 0 80 4c 00
        E 0 80 54 00
        E 0 80 58 00
        E 0 80 60 00
        E 0 80 64 00
        E 0 80 18 00
        E 0 80 26 00
        E 51 80 74 00
        E 369 90 3d 60
        E 0 90 40 60
        E 0 90 49 60
        E 0 90 4c 60
        E 0 90 55 60
        E 0 90 58 60
        E 0 90 61 60
        E 0 90 64 60
        E 0 90 1a 60
        E 0 90 26 60
        E 60 80 3d 00
        E 0 80 40 00
        E 0 80 49 00
        E 0 80 4c 00
        E 0 80 55 00
        E 0 80 58 00
        E 0 80 61 00
        E 0 80 64 00
        E 0 80 1a 00
        E 0 80 26 00
        E 420 90 40 60
        E 0 90 48 60
        E 0 90 4c 60
        E 0 90 54 60
        E 0 90 58 60
        E 0 90 60 60
        E 0 90 64 60
        E 0 90 18 60
        E 0 90 26 60
        E 60 80 40 00
        E 0 80 48 00
        E 0 80 4c 00
        E 0 80 54 00
        E 0 80 58 00
        E 0 80 60 00
        E 0 80 64 00
        E 0 80 18 00
        E 0 80 26 00
        E 420 90 3d 60
        E 0 90 40 60
        E 0 90 49 60
        E 0 90 4c 60
        E 0 90 55 60
        E 0 90 58 60
        E 0 90 61 60
        E 0 90 64 60
        E 0 90 1a 60
        E 0 90 26 60
        E 60 80 3d 00
        E 0 80 40 00
        E 0 80 49 00
        E 0 80 4c 00
        E 0 80 55 00
        E 0 80 58 00
        E 0 80 61 00
        E 0 80 64 00
        E 0 80 1a 00
        E 0 80 26 00
        E 420 90 40 60
        E 0 90 48 60
        E 0 90 4c 60
        E 0 90 54 60
        E 0 90 58 60
        E 0 90 60 60
        E 0 90 64 60
        E 0 90 18 60
        E 0 90 26 60
        E 60 80 40 00
        E 0 80 48 00
        E 0 80 4c 00
        E 0 80 54 00
        E 0 80 58 00
        E 0 80 60 00
        E 0 80 64 00
        E 0 80 18 00
        E 0 80 26 00
        E 420 90 3d 60
        E 0 90 40 60
        E 0 90 49 60
        E 0 90 4c 60
        E 0 90 55 60
        E 0 90 58 60
        E 0 90 61 60
        E 0 90 64 60
        E 0 90 1a 60
        E 0 90 26 60
        E 60 80 3d 00
        E 0 80 40 00
        E 0 80 49 00
        E 0 80 4c 00
        E 0 80 55 00
        E 0 80 58 00
        E 0 80 61 00
        E 0 80 64 00
        E 0 80 1a 00
        E 0 80 26 00
        E 420 90 40 60
        E 0 90 48 60
        E 0 90 4c 60
        E 0 90 54 60
        E 0 90 58 60
        E 0 90 60 60
        E 0 90 64 60
        E 0 90 18 60
        E 0 90 26 60
        E 60 80 40 00
        E 0 80 48 00
        E 0 80 4c 00
        E 0 80 54 00
        E 0 80 58 00
        E 0 80 60 00
        E 0 80 64 00
        E 0 80 18 00
        E 0 80 26 00
        E 420 90 3d 60
        E 0 90 40 60
        E 0 90 49 60
        E 0 90 4c 60
        E 0 90 55 60
        E 0 90 58 60
        E 0 90 61 60
        E 0 90 64 60
        E 0 90 1a 60
        E 0 90 26 60
        E 60 80 3d 00
        E 0 80 40 00
        E 0 80 49 00
        E 0 80 4c 00
        E 0 80 55 00
        E 0 80 58 00
        E 0 80 61 00
        E 0 80 64 00
        E 0 80 1a 00
        E 0 80 26 00
        E 420 90 40 60
        E 0 90 48 60
        E 0 90 4c 60
        E 0 90 54 60
        E 0 90 58 60
        E 0 90 60 60
        E 0 90 64 60
        E 0 90 18 60
        E 0 90 26 60
        E 60 80 40 00
        E 0 80 48 00
        E 0 80 4c 00
        E 0 80 54 00
        E 0 80 58 00
        E 0 80 60 00
        E 0 80 64 00
        E 0 80 18 00
        E 0 80 26 00
        E 420 90 3d 60
        E 0 90 40 60
        E 0 90 49 60
        E 0 90 4c 60
        E 0 90 55 60
        E 0 90 58 60
        E 0 90 61 60
        E 0 90 64 60
        E 0 90 1a 60
        E 0 90 26 60
        E 60 80 3d 00
        E 0 80 40 00
        E 0 80 49 00
        E 0 80 4c 00
        E 0 80 55 00
        E 0 80 58 00
        E 0 80 61 00
        E 0 80 64 00
        E 0 80 1a 00
        E 0 80 26 00
        E 420 90 40 60
        E 0 90 48 60
        E 0 90 4c 60
        E 0 90 54 60
        E 0 90 58 60
        E 0 90 60 60
        E 0 90 64 60
        E 0 90 18 60
        E 0 90 26 60
        E 60 80 40 00
        E 0 80 48 00
        E 0 80 4c 00
        E 0 80 54 00
        E 0 80 58 00
        E 0 80 60 00
        E 0 80 64 00
        E 0 80 18 00
        E 0 80 26 00
        E 420 90 3d 60
        E 0 90 40 60
        E 0 90 49 60
        E 0 90 4c 60
        E 0 90 55 60
        E 0 90 58 60
        E 0 90 61 60
        E 0 90 64 60
        E 0 90 78 60
        E 0 90 79 60
        E 0 90 7a 60
        E 0 90 7b 60
        E 0 90 7c 60
        E 0 90 1a 60
        E 0 90 26 60
        E 60 80 3d 00
        E 0 80 40 00
        E 0 80 49 00
        E 0 80 4c 00
        E 0 80 55 00
        E 0 80 58 00
        E 0 80 61 00
        E 0 80 64 00
        E 0 80 1a 00
        E 0 80 26 00
        E 420 90 40 60
        E 0 90 48 60
        E 0 90 4c 60
        E 0 90 54 60
        E 0 90 58 60
        E 0 90 60 60
        E 0 90 64 60
        E 0 90 18 60
        E 0 90 26 60
        E 60 80 40 00
        E 0 80 48 00
        E 0 80 4c 00
        E 0 80 54 00
        E 0 80 58 00
        E 0 80 60 00
        E 0 80 64 00
        E 0 80 18 00
        E 0 80 26 00
        E 420 90 3d 60
        E 0 90 40 60
        E 0 90 49 60
        E 0 90 4c 60
        E 0 90 55 60
        E 0 90 58 60
        E 0 90 61 60
        E 0 90 64 60
        E 0 90 1a 60
        E 0 90 26 60
        E 60 80 3d 00
        E 0 80 40 00
        E 0 80 49 00
        E 0 80 4c 00
        E 0 80 55 00
        E 0 80 58 00
        E 0 80 61 00
        E 0 80 64 00
        E 0 80 1a 00
        E 0 80 26 00
        E 420 80 78 00
        E 0 80 79 00
        E 0 80 7a 00
        E 0 80 7b 00
        E 0 80 7c 00
        E 0 90 40 60
        E 0 90 48 60
        E 0 90 4c 60
        E 0 90 54 60
        E 0 90 58 60
        E 0 90 60 60
        E 0 90 64 60
        E 0 90 18 60
        E 0 90 26 60
        E 60 80 40 00
        E 0 80 48 00
        E 0 80 4c 00
        E 0 80 54 00
        E 0 80 58 00
        E 0 80 60 00
        E 0 80 64 00
        E 0 80 18 00
        E 0 80 26 00
        E 420 90 3d 60
        E 0 90 40 60
        E 0 90 49 60
        E 0 90 4c 60
        E 0 90 55 60
        E 0 90 58 60
        E 0 90 61 60
        E 0 90 64 60
        E 0 90 1a 60
        E 0 90 26 60
        E 60 80 3d 00
        E 0 80 40 00
        E 0 80 49 00
        E 0 80 4c 00
        E 0 80 55 00
        E 0 80 58 00
        E 0 80 61 00
        E 0 80 64 00
        E 0 80 1a 00
        E 0 80 26 00
        E 420 90 40 60
        E 0 90 48 60
        E 0 90 4c 60
        E 0 90 54 60
        E 0 90 58 60
        E 0 90 60 60
        E 0 90 64 60
        E 0 90 18 60
        E 0 90 26 60
        E 60 80 40 00
        E 0 80 48 00
        E 0 80 4c 00
        E 0 80 54 00
        E 0 80 58 00
        E 0 80 60 00
        E 0 80 64 00
        E 0 80 18 00
        E 0 80 26 00
        E 420 90 3d 60
        E 0 90 40 60
        E 0 90 49 60
        E 0 90 4c 60
        E 0 90 55 60
        E 0 90 58 60
        E 0 90 61 60
        E 0 90 64 60
        E 0 90 1a 60
        E 0 90 26 60
        E 60 80 3d 00
        E 0 80 40 00
        E 0 80 49 00
        E 0 80 4c 00
        E 0 80 55 00
        E 0 80 58 00
        E 0 80 61 00
        E 0 80 64 00
        E 0 80 1a 00
        E 0 80 26 00
        E 420 90 40 60
        E 0 90 48 60
        E 0 90 4c 60
        E 0 90 54 60
        E 0 90 58 60
        E 0 90 60 60
        E 0 90 64 60
        E 0 90 18 60
        E 0 90 26 60
        E 60 80 40 00
        E 0 80 48 00
        E 0 80 4c 00
        E 0 80 54 00
        E 0 80 58 00
        E 0 80 60 00
        E 0 80 64 00
        E 0 80 18 00
        E 0 80 26 00
        E 420 90 3d 60
        E 0 90 40 60
        E 0 90 49 60
        E 0 90 4c 60
        E 0 90 55 60
        E 0 90 58 60
        E 0 90 61 60
        E 0 90 64 60
        E 0 90 1a 60
        E 0 90 26 60
        E 60 80 3d 00
        E 0 80 40 00
        E 0 80 49 00
        E 0 80 4c 00
        E 0 80 55 00
        E 0 80 58 00
        E 0 80 61 00
        E 0 80 64 00
        E 0 80 1a 00
        E 0 80 26 00
        E 420 90 40 60
        E 0 90 48 60
        E 0 90 4c 60
        E 0 90 54 60
        E 0 90 58 60
        E 0 90 60 60
        E 0 90 64 60
        E 0 90 18 60
        E 0 90 26 60
        E 60 80 40 00
        E 0 80 48 00
        E 0 80 4c 00
        E 0 80 54 00
        E 0 80 58 00
        E 0 80 60 00
        E 0 80 64 00
        E 0 80 18 00
        E 0 80 26 00
        E 420 90 3d 60
        E 0 90 40 60
        E 0 90 49 60
        E 0 90 4c 60
        E 0 90 55 60
        E 0 90 58 60
        E 0 90 61 60
        E 0 90 64 60
        E 0 90 1a 60
        E 0 90 26 60
        E 60 80 3d 00
        E 0 80 40 00
        E 0 80 49 00
        E 0 80 4c 00
        E 0 80 55 00
        E 0 80 58 00
        E 0 80 61 00
        E 0 80 64 00
        E 0 80 1a 00
        E 0 80 26 00
        E 420 90 40 60
        E 0 90 48 60
        E 0 90 4c 60
        E 0 90 54 60
        E 0 90 58 60
        E 0 90 60 60
        E 0 90 64 60
        E 0 90 18 60
        E 0 90 26 60
        E 60 80 40 00
        E 0 80 48 00
        E 0 80 4c 00
        E 0 80 54 00
        E 0 80 58 00
        E 0 80 60 00
        E 0 80 64 00
        E 0 80 18 00
        E 0 80 26 00
        E 420 90 3d 60
        E 0 90 40 60
        E 0 90 49 60
        E 0 90 4c 60
        E 0 90 55 60
        E 0 90 58 60
        E 0 90 61 60
        E 0 90 64 60
        E 0 90 1a 60
        E 0 90 26 60
        E 60 80 3d 00
        E 0 80 40 00
        E 0 80 49 00
        E 0 80 4c 00
        E 0 80 55 00
        E 0 80 58 00
        E 0 80 61 00
        E 0 80 64 00
        E 0 80 1a 00
        E 0 80 26 00
        E 420 90 40 60
        E 0 90 48 60
        E 0 90 4c 60
        E 0 90 54 60
        E 0 90 58 60
        E 0 90 60 60
        E 0 90 64 60
        E 0 90 18 60
        E 0 90 26 60
        E 60 80 40 00
        E 0 80 48 00
        E 0 80 4c 00
        E 0 80 54 00
        E 0 80 58 00
        E 0 80 60 00
        E 0 80 64 00
        E 0 80 18 00
        E 0 80 26 00
        E 420 90 3d 60
        E 0 90 40 60
        E 0 90 49 60
        E 0 90 4c 60
        E 0 90 55 60
        E 0 90 58 60
        E 0 90 61 60
        E 0 90 64 60
        E 0 90 1a 60
        E 0 90 26 60
        E 60 80 3d 00
        E 0 80 40 00
        E 0 80 49 00
        E 0 80 4c 00
        E 0 80 55 00
        E 0 80 58 00
        E 0 80 61 00
        E 0 80 64 00
        E 0 80 1a 00
        E 0 80 26 00
        E 420 90 40 60
        E 0 90 48 60
        E 0 90 4c 60
        E 0 90 54 60
        E 0 90 58 60
        E 0 90 60 60
        E 0 90 64 60
        E 0 90 18 60
        E 0 90 26 60
        E 60 80 40 00
        E 0 80 48 00
        E 0 80 4c 00
        E 0 80 54 00
        E 0 80 58 00
        E 0 80 60 00
        E 0 80 64 00
        E 0 80 18 00
        E 0 80 26 00
        E 420 90 3d 60
        E 0 90 40 60
        E 0 90 49 60
        E 0 90 4c 60
        E 0 90 55 60
        E 0 90 58 60
        E 0 90 61 60
        E 0 90 64 60
        E 0 90 1a 60
        E 0 90 26 60
        E 60 80 3d 00
        E 0 80 40 00
        E 0 80 49 00
        E 0 80 4c 00
        E 0 80 55 00
        E 0 80 58 00
        E 0 80 61 00
        E 0 80 64 00
        E 0 80 1a 00
        E 0 80 26 00
        E 420 90 40 60
        E 0 90 48 60
        E 0 90 4c 60
        E 0 90 54 60
        E 0 90 58 60
        E 0 90 60 60
        E 0 90 64 60
        E 0 90 18 60
        E 0 90 26 60
        E 60 80 40 00
        E 0 80 48 00
        E 0 80 4c 00
        E 0 80 54 00
        E 0 80 58 00
        E 0 80 60 00
        E 0 80 64 00
        E 0 80 18 00
        E 0 80 26 00
        E 420 90 3d 60
        E 0 90 40 60
        E 0 90 49 60
        E 0 90 4c 60
        E 0 90 55 60
        E 0 90 58 60
        E 0 90 61 60
        E 0 90 64 60
        E 0 90 1a 60
        E 0 90 26 60
        E 60 80 3d 00
        E 0 80 40 00
        E 0 80 49 00
        E 0 80 4c 00
        E 0 80 55 00
        E 0 80 58 00
        E 0 80 61 00
        E 0 80 64 00
        E 0 80 1a 00
        E 0 80 26 00
        E 420 90 40 60
        E 0 90 48 60
        E 0 90 4c 60
        E 0 90 54 60
        E 0 90 58 60
        E 0 90 60 60
        E 0 90 64 60
        E 0 90 18 60
        E 0 90 26 60
        E 60 80 40 00
        E 0 80 48 00
        E 0 80 4c 00
        E 0 80 54 00
        E 0 80 58 00
        E 0 80 60 00
        E 0 80 64 00
        E 0 80 18 00
        E 0 80 26 00
        E 420 90 3d 60
        E 0 90 40 60
        E 0 90 49 60
        E 0 90 4c 60
        E 0 90 55 60
        E 0 90 58 60
        E 0 90 61 60
        E 0 90 64 60
        E 0 90 1a 60
        E 0 90 26 60
        E 60 80 3d 00
        E 0 80 40 00
        E 0 80 49 00
        E 0 80 4c 00
        E 0 80 55 00
        E 0 80 58 00
        E 0 80 61 00
        E 0 80 64 00
        E 0 80 1a 00
        E 0 80 26 00
        E 420 90 40 60
        E 0 90 48 60
        E 0 90 4c 60
        E 0 90 54 60
        E 0 90 58 60
        E 0 90 60 60
        E 0 90 64 60
        E 0 90 18 60
        E 0 90 26 60
        E 60 80 40 00
        E 0 80 48 00
        E 0 80 4c 00
        E 0 80 54 00
        E 0 80 58 00
        E 0 80 60 00
        E 0 80 64 00
        E 0 80 18 00
        E 0 80 26 00
        E 420 90 3d 60
        E 0 90 40 60
        E 0 90 49 60
        E 0 90 4c 60
        E 0 90 55 60
        E 0 90 58 60
        E 0 90 61 60
        E 0 90 64 60
        E 0 90 1a 60
        E 0 90 26 60
        E 60 80 3d 00
        E 0 80 40 00
        E 0 80 49 00
        E 0 80 4c 00
        E 0 80 55 00
        E 0 80 58 00
        E 0 80 61 00
        E 0 80 64 00
        E 0 80 1a 00
        E 0 80 26 00
        E 420 90 40 60
        E 0 90 48 60
        E 0 90 4c 60
        E 0 90 54 60
        E 0 90 58 60
        E 0 90 60 60
        E 0 90 64 60
        E 0 90 18 60
        E 0 90 26 60
        E 60 80 40 00
        E 0 80 48 00
        E 0 80 4c 00
        E 0 80 54 00
        E 0 80 58 00
        E 0 80 60 00
        E 0 80 64 00
        E 0 80 18 00
        E 0 80 26 00
        E 420 90 3d 60
        E 0 90 40 60
        E 0 90 49 60
        E 0 90 4c 60
        E 0 90 55 60
        E 0 90 58 60
        E 0 90 61 60
        E 0 90 64 60
        E 0 90 1a 60
        E 0 90 26 60
        E 60 80 3d 00
        E 0 80 40 00
        E 0 80 49 00
        E 0 80 4c 00
        E 0 80 55 00
        E 0 80 58 00
        E 0 80 61 00
        E 0 80 64 00
        E 0 80 1a 00
        E 0 80 26 00
        E 420 90 40 60
        E 0 90 48 60
        E 0 90 4c 60
        E 0 90 54 60
        E 0 90 58 60
        E 0 90 60 60
        E 0 90 64 60
        E 0 90 18 60
        E 0 90 26 60
        E 60 80 40 00
        E 0 80 48 00
        E 0 80 4c 00
        E 0 80 54 00
        E 0 80 58 00
        E 0 80 60 00
        E 0 80 64 00
        E 0 80 18 00
        E 0 80 26 00
        E 420 90 3d 60
        E 0 90 40 60
        E 0 90 49 60
        E 0 90 4c 60
        E 0 90 55 60
        E 0 90 58 60
        E 0 90 61 60
        E 0 90 64 60
        E 0 90 1a 60
        E 0 90 26 60
        E 60 80 3d 00
        E 0 80 40 00
        E 0 80 49 00
        E 0 80 4c 00
        E 0 80 55 00
        E 0 80 58 00
        E 0 80 61 00
        E 0 80 64 00
        E 0 80 1a 00
        E 0 80 26 00
        E 420 90 40 60
        E 0 90 48 60
        E 0 90 4c 60
        E 0 90 54 60
        E 0 90 58 60
        E 0 90 60 60
        E 0 90 64 60
        E 0 90 18 60
        E 0 90 26 60
        E 60 80 40 00
        E 0 80 48 00
        E 0 80 4c 00
        E 0 80 54 00
        E 0 80 58 00
        E 0 80 60 00
        E 0 80 64 00
        E 0 80 18 00
        E 0 80 26 00
        E 420 90 3d 60
        E 0 90 40 60
        E 0 90 49 60
        E 0 90 4c 60
        E 0 90 55 60
        E 0 90 58 60
        E 0 90 61 60
        E 0 90 64 60
        E 0 90 1a 60
        E 0 90 26 60
        E 60 80 3d 00
        E 0 80 40 00
        E 0 80 49 00
        E 0 80 4c 00
        E 0 80 55 00
        E 0 80 58 00
        E 0 80 61 00
        E 0 80 64 00
        E 0 80 1a 00
        E 0 80 26 00
        E 420 90 40 60
        E 0 90 48 60
        E 0 90 4c 60
        E 0 90 54 60
        E 0 90 58 60
        E 0 90 60 60
        E 0 90 64 60
        E 0 90 18 60
        E 0 90 26 60
        E 60 80 40 00
        E 0 80 48 00
        E 0 80 4c 00
        E 0 80 54 00
        E 0 80 58 00
        E 0 80 60 00
        E 0 80 64 00
        E 0 80 18 00
        E 0 80 26 00
        E 402 90 74 60
        E 18 90 3d 60
        E 0 90 40 60
        E 0 90 49 60
        E 0 90 4c 60
        E 0 90 55 60
        E 0 90 58 60
        E 0 90 61 60
        E 0 90 64 60
        E 0 90 1a 60
        E 0 90 26 60
        E 60 80 3d 00
        E 0 80 40 00
        E 0 80 49 00
        E 0 80 4c 00
        E 0 80 55 00
        E 0 80 58 00
        E 0 80 61 00
        E 0 80 64 00
        E 0 80 1a 00
        E 0 80 26 00
        E 420 90 40 60
        E 0 90 48 60
        E 0 90 4c 60
        E 0 90 54 60
        E 0 90 58 60
        E 0 90 60 60
        E 0 90 64 60
        E 0 90 18 60
        E 0 90 26 60
        E 60 80 40 00
        E 0 80 48 00
        E 0 80 4c 00
        E 0 80 54 00
        E 0 80 58 00
        E 0 80 60 00
        E 0 80 64 00
        E 0 80 18 00
        E 0 80 26 00
        E 420 90 3d 60
        E 0 90 40 60
        E 0 90 49 60
        E 0 90 4c 60
        E 0 90 55 60
        E 0 90 58 60
        E 0 90 61 60
        E 0 90 64 60
        E 0 90 1a 60
        E 0 90 26 60
        E 60 80 3d 00
        E 0 80 40 00
        E 0 80 49 00
        E 0 80 4c 00
        E 0 80 55 00
        E 0 80 58 00
        E 0 80 61 00
        E 0 80 64 00
        E 0 80 1a 00
        E 0 80 26 00
        E 42 80 74 00
        E 378 90 40 60
        E 0 90 48 60
        E 0 90 4c 60
        E 0 90 54 60
        E 0 90 58 60
        E 0 90 60 60
        E 0 90 64 60
        E 0 90 18 60
        E 0 90 26 60
        E 60 80 40 00
        E 0 80 48 00
        E 0 80 4c 00
        E 0 80 54 00
        E 0 80 58 00
        E 0 80 60 00
        E 0 80 64 00
        E 0 80 18 00
        E 0 80 26 00
        E 420 90 3d 60
        E 0 90 40 60
        E 0 90 49 60
        E 0 90 4c 60
        E 0 90 55 60
        E 0 90 58 60
        E 0 90 61 60
        E 0 90 64 60
        E 0 90 1a 60
        E 0 90 26 60
        E 60 80 3d 00
        E 0 80 40 00
        E 0 80 49 00
        E 0 80 4c 00
        E 0 80 55 00
        E 0 80 58 00
        E 0 80 61 00
        E 0 80 64 00
        E 0 80 1a 00
        E 0 80 26 00
        E 420 90 40 60
        E 0 90 48 60
        E 0 90 4c 60
        E 0 90 54 60
        E 0 90 58 60
        E 0 90 60 60
        E 0 90 64 60
        E 0 90 18 60
        E 0 90 26 60
        E 60 80 40 00
        E 0 80 48 00
        E 0 80 4c 00
        E 0 80 54 00
        E 0 80 58 00
        E 0 80 60 00
        E 0 80 64 00
        E 0 80 18 00
        E 0 80 26 00
        E 420 90 3d 60
        E 0 90 40 60
        E 0 90 49 60
        E 0 90 4c 60
        E 0 90 55 60
        E 0 90 58 60
        E 0 90 61 60
        E 0 90 64 60
        E 0 90 1a 60
        E 0 90 26 60
        E 60 80 3d 00
        E 0 80 40 00
        E 0 80 49 00
        E 0 80 4c 00
        E 0 80 55 00
        E 0 80 58 00
        E 0 80 61 00
        E 0 80 64 00
        E 0 80 1a 00
        E 0 80 26 00
        E 420 90 40 60
        E 0 90 48 60
        E 0 90 4c 60
        E 0 90 54 60
        E 0 90 58 60
        E 0 90 60 60
        E 0 90 64 60
        E 0 90 18 60
        E 0 90 26 60
        E 60 80 40 00
        E 0 80 48 00
        E 0 80 4c 00
        E 0 80 54 00
        E 0 80 58 00
        E 0 80 60 00
        E 0 80 64 00
        E 0 80 18 00
        E 0 80 26 00
        E 420 90 3d 60
        E 0 90 40 60
        E 0 90 49 60
        E 0 90 4c 60
        E 0 90 55 60
        E 0 90 58 60
        E 0 90 61 60
        E 0 90 64 60
        E 0 90 1a 60
        E 0 90 26 60
        E 60 80 3d 00
        E 0 80 40 00
        E 0 80 49 00
        E 0 80 4c 00
        E 0 80 55 00
        E 0 80 58 00
        E 0 80 61 00
        E 0 80 64 00
        E 0 80 1a 00
        E 0 80 26 00
        E 420 90 40 60
        E 0 90 48 60
        E 0 90 4c 60
        E 0 90 54 60
        E 0 90 58 60
        E 0 90 60 60
        E 0 90 64 60
        E 0 90 18 60
        E 0 90 26 60
        E 60 80 40 00
        E 0 80 48 00
        E 0 80 4c 00
        E 0 80 54 00
        E 0 80 58 00
        E 0 80 60 00
        E 0 80 64 00
        E 0 80 18 00
        E 0 80 26 00
        E 420 90 3d 60
        E 0 90 40 60
        E 0 90 49 60
        E 0 90 4c 60
        E 0 90 55 60
        E 0 90 58 60
        E 0 90 61 60
        E 0 90 64 60
        E 0 90 1a 60
        E 0 90 26 60
        E 60 80 3d 00
        E 0 80 40 00
        E 0 80 49 00
        E 0 80 4c 00
        E 0 80 55 00
        E 0 80 58 00
        E 0 80 61 00
        E 0 80 64 00
        E 0 80 1a 00
        E 0 80 26 00
        E 420 90 40 60
        E 0 90 48 60
        E 0 90 4c 60
        E 0 90 54 60
        E 0 90 58 60
        E 0 90 60 60
        E 0 90 64 60
        E 0 90 18 60
        E 0 90 26 60
        E 60 80 40 00
        E 0 80 48 00
        E 0 80 4c 00
        E 0 80 54 00
        E 0 80 58 00
        E 0 80 60 00
        E 0 80 64 00
        E 0 80 18 00
        E 0 80 26 00
        E 420 90 3d 60
        E 0 90 40 60
        E 0 90 49 60
        E 0 90 4c 60
        E 0 90 55 60
        E 0 90 58 60
        E 0 90 61 60
        E 0 90 64 60
        E 0 90 1a 60
        E 0 90 26 60
        E 60 80 3d 00
        E 0 80 40 00
        E 0 80 49 00
        E 0 80 4c 00
        E 0 80 55 00
        E 0 80 58 00
        E 0 80 61 00
        E 0 80 64 00
        E 0 80 1a 00
        E 0 80 26 00
        E 420 90 40 60
        E 0 90 48 60
        E 0 90 4c 60
        E 0 90 54 60
        E 0 90 58 60
        E 0 90 60 60
        E 0 90 64 60
        E 0 90 18 60
        E 0 90 26 60
        E 60 80 40 00
        E 0 80 48 00
        E 0 80 4c 00
        E 0 80 54 00
        E 0 80 58 00
        E 0 80 60 00
        E 0 80 64 00
        E 0 80 18 00
        E 0 80 26 00
        E 420 90 3d 60
        E 0 90 40 60
        E 0 90 49 60
        E 0 90 4c 60
        E 0 90 55 60
        E 0 90 58 60
        E 0 90 61 60
        E 0 90 64 60
        E 0 90 78 60
        E 0 90 79 60
        E 0 90 7a 60
        E 0 90 7b 60
        E 0 90 7c 60
        E 0 90 1a 60
        E 0 90 26 60
        E 60 80 3d 00
        E 0 80 40 00
        E 0 80 49 00
        E 0 80 4c 00
        E 0 80 55 00
        E 0 80 58 00
        E 0 80 61 00
        E 0 80 64 00
        E 0 80 1a 00
        E 0 80 26 00
        E 420 90 40 60
        E 0 90 48 60
        E 0 90 4c 60
        E 0 90 54 60
        E 0 90 58 60
        E 0 90 60 60
        E 0 90 64 60
        E 0 90 18 60
        E 0 90 26 60
        E 60 80 40 00
        E 0 80 48 00
        E 0 80 4c 00
        E 0 80 54 00
        E 0 80 58 00
        E 0 80 60 00
        E 0 80 64 00
        E 0 80 18 00
        E 0 80 26 00
        E 180 90 54 60
        E 0 90 60 60
        E 0 90 18 60
        E 60 80 54 00
        E 0 80 60 00
        E 0 80 18 00
        E 180 90 3d 60
        E 0 90 40 60
        E 0 90 49 60
        E 0 90 4c 60
        E 0 90 55 60
        E 0 90 58 60
        E 0 90 61 60
        E 0 90 64 60
        E 0 90 1a 60
        E 0 90 26 60
        E 60 80 3d 00
        E 0 80 40 00
        E 0 80 49 00
        E 0 80 4c 00
        E 0 80 55 00
        E 0 80 58 00
        E 0 80 61 00
        E 0 80 64 00
        E 0 80 1a 00
        E 0 80 26 00
        E 180 90 55 60
        E 0 90 61 60
        E 0 90 1a 60
        E 60 80 55 00
        E 0 80 61 00
        E 0 80 1a 00
        E 180 80 78 00
        E 0 80 79 00
        E 0 80 7a 00
        E 0 80 7b 00
        E 0 80 7c 00
        E 0 90 40 60
        E 0 90 48 60
        E 0 90 4c 60
        E 0 90 54 60
        E 0 90 58 60
        E 0 90 60 60
        E 0 90 64 60
        E 0 90 18 60
        E 0 90 26 60
        E 60 80 40 00
        E 0 80 48 00
        E 0 80 4c 00
        E 0 80 54 00
        E 0 80 58 00
        E 0 80 60 00
        E 0 80 64 00
        E 0 80 18 00
        E 0 80 26 00
        E 180 90 54 60
        E 0 90 60 60
        E 0 90 18 60
        E 60 80 54 00
        E 0 80 60 00
        E 0 80 18 00
        E 180 90 3d 60
        E 0 90 49 60
        E 0 90 55 60
        E 0 90 61 60
        E 0 90 1a 60
        E 60 80 3d 00
        E 0 80 49 00
        E 0 80 55 00
        E 0 80 61 00
        E 0 80 1a 00
        E 420 90 3e 60
        E 0 90 48 60
        E 0 90 4a 60
        E 0 90 54 60
        E 0 90 56 60
        E 0 90 60 60
        E 0 90 62 60
        E 0 90 18 60
        E 0 90 1f 60
        E 60 80 3e 00
        E 0 80 48 00
        E 0 80 4a 00
        E 0 80 54 00
        E 0 80 56 00
        E 0 80 60 00
        E 0 80 62 00
        E 0 80 18 00
        E 0 80 1f 00
        E 420 90 40 60
        E 0 90 4c 60
        E 0 90 54 60
        E 0 90 58 60
        E 0 90 60 60
        E 0 90 64 60
        E 0 90 70 60
        E 0 90 18 60
        E 0 90 33 60
        E 60 80 40 00
        E 0 80 4c 00
        E 0 80 54 00
        E 0 80 58 00
        E 0 80 60 00
        E 0 80 64 00
        E 0 80 70 00
        E 0 80 18 00
        E 0 80 33 00
        E 420 90 3e 60
        E 0 90 48 60
        E 0 90 4a 60
        E 0 90 54 60
        E 0 90 56 60
        E 0 90 60 60
        E 0 90 62 60
        E 0 90 18 60
        E 0 90 1f 60
        E 60 80 3e 00
        E 0 80 48 00
        E 0 80 4a 00
        E 0 80 54 00
        E 0 80 56 00
        E 0 80 60 00
        E 0 80 62 00
        E 0 80 18 00
        E 0 80 1f 00
        E 420 90 40 60
        E 0 90 4c 60
        E 0 90 54 60
        E 0 90 58 60
        E 0 90 60 60
        E 0 90 64 60
        E 0 90 70 60
        E 0 90 18 60
        E 0 90 33 60
        E 60 80 40 00
        E 0 80 4c 00
        E 0 80 54 00
        E 0 80 58 00
        E 0 80 60 00
        E 0 80 64 00
        E 0 80 70 00
        E 0 80 18 00
        E 0 80 33 00
        E 420 90 3e 60
        E 0 90 48 60
        E 0 90 4a 60
        E 0 90 54 60
        E 0 90 56 60
        E 0 90 60 60
        E 0 90 62 60
        E 0 90 18 60
        E 0 90 1f 60
        E 60 80 3e 00
        E 0 80 48 00
        E 0 80 4a 00
        E 0 80 54 00
        E 0 80 56 00
        E 0 80 60 00
        E 0 80 62 00
        E 0 80 18 00
        E 0 80 1f 00
        E 420 90 40 60
        E 0 90 4c 60
        E 0 90 54 60
        E 0 90 58 60
        E 0 90 60 60
        E 0 90 64 60
        E 0 90 70 60
        E 0 90 18 60
        E 0 90 33 60
        E 60 80 40 00
        E 0 80 4c 00
        E 0 80 54 00
        E 0 80 58 00
        E 0 80 60 00
        E 0 80 64 00
        E 0 80 70 00
        E 0 80 18 00
        E 0 80 33 00
        E 420 90 3e 60
        E 0 90 48 60
        E 0 90 4a 60
        E 0 90 54 60
        E 0 90 56 60
        E 0 90 60 60
        E 0 90 62 60
        E 0 90 18 60
        E 0 90 1f 60
        E 60 80 3e 00
        E 0 80 48 00
        E 0 80 4a 00
        E 0 80 54 00
        E 0 80 56 00
        E 0 80 60 00
        E 0 80 62 00
        E 0 80 18 00
        E 0 80 1f 00
        E 420 90 40 60
        E 0 90 4c 60
        E 0 90 54 60
        E 0 90 58 60
        E 0 90 60 60
        E 0 90 64 60
        E 0 90 70 60
        E 0 90 18 60
        E 0 90 33 60
        E 60 80 40 00
        E 0 80 4c 00
        E 0 80 54 00
        E 0 80 58 00
        E 0 80 60 00
        E 0 80 64 00
        E 0 80 70 00
        E 0 80 18 00
        E 0 80 33 00
        E 420 90 3e 60
        E 0 90 48 60
        E 0 90 4a 60
        E 0 90 54 60
        E 0 90 56 60
        E 0 90 60 60
        E 0 90 62 60
        E 0 90 18 60
        E 0 90 1f 60
        E 60 80 3e 00
        E 0 80 48 00
        E 0 80 4a 00
        E 0 80 54 00
        E 0 80 56 00
        E 0 80 60 00
        E 0 80 62 00
        E 0 80 18 00
        E 0 80 1f 00
        E 420 90 40 60
        E 0 90 4c 60
        E 0 90 54 60
        E 0 90 58 60
        E 0 90 60 60
        E 0 90 64 60
        E 0 90 70 60
        E 0 90 18 60
        E 0 90 33 60
        E 60 80 40 00
        E 0 80 4c 00
        E 0 80 54 00
        E 0 80 58 00
        E 0 80 60 00
        E 0 80 64 00
        E 0 80 70 00
        E 0 80 18 00
        E 0 80 33 00
        E 420 90 3e 60
        E 0 90 48 60
        E 0 90 4a 60
        E 0 90 54 60
        E 0 90 56 60
        E 0 90 60 60
        E 0 90 62 60
        E 0 90 18 60
        E 0 90 1f 60
        E 60 80 3e 00
        E 0 80 48 00
        E 0 80 4a 00
        E 0 80 54 00
        E 0 80 56 00
        E 0 80 60 00
        E 0 80 62 00
        E 0 80 18 00
        E 0 80 1f 00
        E 420 90 40 60
        E 0 90 4c 60
        E 0 90 54 60
        E 0 90 58 60
        E 0 90 60 60
        E 0 90 64 60
        E 0 90 70 60
        E 0 90 18 60
        E 0 90 33 60
        E 60 80 40 00
        E 0 80 4c 00
        E 0 80 54 00
        E 0 80 58 00
        E 0 80 60 00
        E 0 80 64 00
        E 0 80 70 00
        E 0 80 18 00
        E 0 80 33 00
        E 420 90 3e 60
        E 0 90 48 60
        E 0 90 4a 60
        E 0 90 54 60
        E 0 90 56 60
        E 0 90 60 60
        E 0 90 62 60
        E 0 90 18 60
        E 0 90 1f 60
        E 60 80 3e 00
        E 0 80 48 00
        E 0 80 4a 00
        E 0 80 54 00
        E 0 80 56 00
        E 0 80 60 00
        E 0 80 62 00
        E 0 80 18 00
        E 0 80 1f 00
        E 420 90 40 60
        E 0 90 4c 60
        E 0 90 54 60
        E 0 90 58 60
        E 0 90 60 60
        E 0 90 64 60
        E 0 90 70 60
        E 0 90 18 60
        E 0 90 33 60
        E 60 80 40 00
        E 0 80 4c 00
        E 0 80 54 00
        E 0 80 58 00
        E 0 80 60 00
        E 0 80 64 00
        E 0 80 70 00
        E 0 80 18 00
        E 0 80 33 00
        E 420 90 3e 60
        E 0 90 48 60
        E 0 90 4a 60
        E 0 90 54 60
        E 0 90 56 60
        E 0 90 60 60
        E 0 90 62 60
        E 0 90 18 60
        E 0 90 1f 60
        E 60 80 3e 00
        E 0 80 48 00
        E 0 80 4a 00
        E 0 80 54 00
        E 0 80 56 00
        E 0 80 60 00
        E 0 80 62 00
        E 0 80 18 00
        E 0 80 1f 00
        E 420 90 40 60
        E 0 90 4c 60
        E 0 90 54 60
        E 0 90 58 60
        E 0 90 60 60
        E 0 90 64 60
        E 0 90 70 60
        E 0 90 18 60
        E 0 90 33 60
        E 60 80 40 00
        E 0 80 4c 00
        E 0 80 54 00
        E 0 80 58 00
        E 0 80 60 00
        E 0 80 64 00
        E 0 80 70 00
        E 0 80 18 00
        E 0 80 33 00
        E 420 90 3e 60
        E 0 90 48 60
        E 0 90 4a 60
        E 0 90 54 60
        E 0 90 56 60
        E 0 90 60 60
        E 0 90 62 60
        E 0 90 18 60
        E 0 90 1f 60
        E 60 80 3e 00
        E 0 80 48 00
        E 0 80 4a 00
        E 0 80 54 00
        E 0 80 56 00
        E 0 80 60 00
        E 0 80 62 00
        E 0 80 18 00
        E 0 80 1f 00
        E 420 90 40 60
        E 0 90 4c 60
        E 0 90 54 60
        E 0 90 58 60
        E 0 90 60 60
        E 0 90 64 60
        E 0 90 70 60
        E 0 90 18 60
        E 0 90 33 60
        E 60 80 40 00
        E 0 80 4c 00
        E 0 80 54 00
        E 0 80 58 00
        E 0 80 60 00
        E 0 80 64 00
        E 0 80 70 00
        E 0 80 18 00
        E 0 80 33 00
        E 420 90 3e 60
        E 0 90 48 60
        E 0 90 4a 60
        E 0 90 54 60
        E 0 90 56 60
        E 0 90 60 60
        E 0 90 62 60
        E 0 90 18 60
        E 0 90 1f 60
        E 60 80 3e 00
        E 0 80 48 00
        E 0 80 4a 00
        E 0 80 54 00
        E 0 80 56 00
        E 0 80 60 00
        E 0 80 62 00
        E 0 80 18 00
        E 0 80 1f 00
        E 420 90 40 60
        E 0 90 4c 60
        E 0 90 54 60
        E 0 90 58 60
        E 0 90 60 60
        E 0 90 64 60
        E 0 90 70 60
        E 0 90 18 60
        E 0 90 33 60
        E 60 80 40 00
        E 0 80 4c 00
        E 0 80 54 00
        E 0 80 58 00
        E 0 80 60 00
        E 0 80 64 00
        E 0 80 70 00
        E 0 80 18 00
        E 0 80 33 00
        E 420 90 3e 60
        E 0 90 48 60
        E 0 90 4a 60
        E 0 90 54 60
        E 0 90 56 60
        E 0 90 60 60
        E 0 90 62 60
        E 0 90 18 60
        E 0 90 1f 60
        E 60 80 3e 00
        E 0 80 48 00
        E 0 80 4a 00
        E 0 80 54 00
        E 0 80 56 00
        E 0 80 60 00
        E 0 80 62 00
        E 0 80 18 00
        E 0 80 1f 00
        E 420 90 40 60
        E 0 90 4c 60
        E 0 90 54 60
        E 0 90 58 60
        E 0 90 60 60
        E 0 90 64 60
        E 0 90 70 60
        E 0 90 18 60
        E 0 90 33 60
        E 60 80 40 00
        E 0 80 4c 00
        E 0 80 54 00
        E 0 80 58 00
        E 0 80 60 00
        E 0 80 64 00
        E 0 80 70 00
        E 0 80 18 00
        E 0 80 33 00
        E 420 90 3e 60
        E 0 90 48 60
        E 0 90 4a 60
        E 0 90 54 60
        E 0 90 56 60
        E 0 90 60 60
        E 0 90 62 60
        E 0 90 18 60
        E 0 90 1f 60
        E 60 80 3e 00
        E 0 80 48 00
        E 0 80 4a 00
        E 0 80 54 00
        E 0 80 56 00
        E 0 80 60 00
        E 0 80 62 00
        E 0 80 18 00
        E 0 80 1f 00
        E 420 90 40 60
        E 0 90 4c 60
        E 0 90 54 60
        E 0 90 58 60
        E 0 90 60 60
        E 0 90 64 60
        E 0 90 70 60
        E 0 90 18 60
        E 0 90 33 60
        E 60 80 40 00
        E 0 80 4c 00
        E 0 80 54 00
        E 0 80 58 00
        E 0 80 60 00
        E 0 80 64 00
        E 0 80 70 00
        E 0 80 18 00
        E 0 80 33 00
        E 420 90 3e 60
        E 0 90 48 60
        E 0 90 4a 60
        E 0 90 54 60
        E 0 90 56 60
        E 0 90 60 60
        E 0 90 62 60
        E 0 90 18 60
        E 0 90 1f 60
        E 60 80 3e 00
        E 0 80 48 00
        E 0 80 4a 00
        E 0 80 54 00
        E 0 80 56 00
        E 0 80 60 00
        E 0 80 62 00
        E 0 80 18 00
        E 0 80 1f 00
        E 420 90 40 60
        E 0 90 4c 60
        E 0 90 54 60
        E 0 90 58 60
        E 0 90 60 60
        E 0 90 64 60
        E 0 90 70 60
        E 0 90 18 60
        E 0 90 33 60
        E 60 80 40 00
        E 0 80 4c 00
        E 0 80 54 00
        E 0 80 58 00
        E 0 80 60 00
        E 0 80 64 00
        E 0 80 70 00
        E 0 80 18 00
        E 0 80 33 00
        E 420 90 3e 60
        E 0 90 48 60
        E 0 90 4a 60
        E 0 90 54 60
        E 0 90 56 60
        E 0 90 60 60
        E 0 90 62 60
        E 0 90 18 60
        E 0 90 1f 60
        E 60 80 3e 00
        E 0 80 48 00
        E 0 80 4a 00
        E 0 80 54 00
        E 0 80 56 00
        E 0 80 60 00
        E 0 80 62 00
        E 0 80 18 00
        E 0 80 1f 00
        E 420 90 40 60
        E 0 90 4c 60
        E 0 90 54 60
        E 0 90 58 60
        E 0 90 60 60
        E 0 90 64 60
        E 0 90 70 60
        E 0 90 18 60
        E 0 90 33 60
        E 60 80 40 00
        E 0 80 4c 00
        E 0 80 54 00
        E 0 80 58 00
        E 0 80 60 00
        E 0 80 64 00
        E 0 80 70 00
        E 0 80 18 00
        E 0 80 33 00
        E 420 90 3e 60
        E 0 90 48 60
        E 0 90 4a 60
        E 0 90 54 60
        E 0 90 56 60
        E 0 90 60 60
        E 0 90 62 60
        E 0 90 18 60
        E 0 90 1f 60
        E 60 80 3e 00
        E 0 80 48 00
        E 0 80 4a 00
        E 0 80 54 00
        E 0 80 56 00
        E 0 80 60 00
        E 0 80 62 00
        E 0 80 18 00
        E 0 80 1f 00
        E 420 90 40 60
        E 0 90 4c 60
        E 0 90 54 60
        E 0 90 58 60
        E 0 90 60 60
        E 0 90 64 60
        E 0 90 70 60
        E 0 90 18 60
        E 0 90 33 60
        E 60 80 40 00
        E 0 80 4c 00
        E 0 80 54 00
        E 0 80 58 00
        E 0 80 60 00
        E 0 80 64 00
        E 0 80 70 00
        E 0 80 18 00
        E 0 80 33 00
        E 420 90 3e 60
        E 0 90 48 60
        E 0 90 4a 60
        E 0 90 54 60
        E 0 90 56 60
        E 0 90 60 60
        E 0 90 62 60
        E 0 90 18 60
        E 0 90 1f 60
        E 60 80 3e 00
        E 0 80 48 00
        E 0 80 4a 00
        E 0 80 54 00
        E 0 80 56 00
        E 0 80 60 00
        E 0 80 62 00
        E 0 80 18 00
        E 0 80 1f 00
        <X 480 0
          /wFbaWRsZV9yZWFsdGltZV0=
        >
        E 3878 b0 7b 00
        GUID {99C52F88-C54B-4CCD-B038-A5C950AC8E6E}
        IGNTEMPO 0 120.00000000 4 4
        SRCCOLOR 1254
        VELLANE 132 38 60
        COLORMAP "C:\Users\wejaa\AppData\Roaming\REAPER\Data\color_maps\rockband_drums.png"
        TEXTSTRINGFILE "Text Events List.txt"
        CFGEDITVIEW -32333.572944 7.020567 0 12 0 0 0
        CFGEDIT 1 1 0 0 0 1 1 1 1 1 1 0.12500000 -8 -8 1370 736 1 0 1 2 0.00000000 0 0 0 0 0.500000 1 0 1.000000 64
        KEYSNAP 0 0 "102034050607" 0 "Major"
        EVTFILTER 0 -1 -1 -1 -1 0 1 0 0 -1.00000000 -1.00000000
      >
    >
  >
  <TRACK '{70C3FE4D-3BC3-4146-95C4-8AC455A2D0F5}'
    NAME "PART BASS"
    PEAKCOL 16777471
    BEAT -1
    AUTOMODE 0
    VOLPAN 1.00000000000000 0.00000000000000 -1.00000000000000 -1.00000000000000 1.00000000000000
    MUTESOLO 0 0 0
    IPHASE 0
    ISBUS 0 0
    BUSCOMP 1 0
    SHOWINMIX 1 0.666700 0.500000 1 0.500000 -1 -1 -1
    FREEMODE 0
    SEL 0
    REC 0 4096 1 0 0 0 0
    TRACKHEIGHT 0 0
    INQ 0 0 0 0.5000000000 100 0 0 100
    NCHAN 2
    FX 1
    TRACKID {70C3FE4D-3BC3-4146-95C4-8AC455A2D0F5}
    PERF 0
    MIDIOUT -1
    <MIDINOTENAMES
      0 96 "EXPERT Green"
      0 97 "EXPERT Red"
      0 98 "EXPERT Yellow"
      0 99 "EXPERT Blue"
      0 100 "EXPERT Orange"
      0 84 "HARD Green"
      0 85 "HARD Red"
      0 86 "HARD Yellow"
      0 87 "HARD Blue"
      0 88 "HARD Orange"
      0 91 "----"
      0 116 "OVERDRIVE"
      0 40 "Left Hand Lowest"
      0 59 "Left Hand Highest"
      0 58 "-"
      0 57 "-"
      0 56 "-"
      0 55 "-"
      0 54 "-"
      0 53 "-"
      0 52 "-"
      0 51 "-"
      0 50 "-"
      0 49 "-"
      0 47 "-"
      0 48 "-"
      0 46 "-"
      0 45 "-"
      0 44 "-"
      0 43 "-"
      0 42 "-"
      0 41 "-"
      0 111 "----"
      0 72 "MEDIUM Green"
      0 73 "MEDIUM Red"
      0 74 "MEDIUM Yellow"
      0 75 "MEDIUM Blue"
      0 76 "MEDIUM Orange"
      0 60 "EASY Green"
      0 61 "EASY Red"
      0 62 "EASY Yellow"
      0 63 "EASY Blue"
      0 64 "EASY Orange"
      0 68 "----"
      0 80 "----"
      0 102 "Force HOPO Off"
      0 101 "Force HOPO On"
      0 120 "BRE (use all 5)"
      0 121 "BRE"
      0 122 "BRE"
      0 123 "BRE"
      0 124 "BRE"
      0 119 "----"
      0 90 "Force HOPO Off"
      0 89 "Force HOPO On"
      0 127 "Trill Marker"
      0 125 "----"
      0 103 "Solo Marker"
      0 126 "Strum Marker"
    >
    MAINSEND 1 0
    <FXCHAIN
      WNDRECT 932 211 878 955
      SHOW 0
      LASTSEL 1
      DOCKED 0
      BYPASS 1 0
      <VST "VSTi: ReaSynth (Cockos)" "reasynth.dll" 0 ""
        eXNlcu9e7f4AAAAAAgAAAAEAAAAAAAAAAgAAAAAAAAA4AAAAAAAAAA==
        AAAAAO++rd4N8K3eAAAAAAAAAAAAAAAAAAAAADm0SD59y9s+tbSxOQ==
        AAAAALbz/T5VpCs6AAAAAAAAAAAAAAAAAAA=
      >
      FLOATPOS 0 0 0 0
      FXID {D4EC3C58-478E-4D1F-A0FC-2252BD344989}
      WAK 0
      BYPASS 0 0
      <VST "VSTi: RBN Preview (RBN)" "rbprev_vst64_beta.dll" 0 ""
        dnBicu5e7f4AAAAAAgAAAAEAAAAAAAAAAgAAAAAAAAAEAAAAAQAAAA==
        AAAAAAMAqgAAAAAAAAA=
      >
      FLOATPOS 32 32 659 497
      FXID {72D22271-4F4F-4081-90C4-66415E7AEC47}
      WAK 0
    >
    <ITEM
      POSITION 0.00000000000000
      SNAPOFFS 0.00000000000000
      LENGTH 216.46283162995007
      LOOP 0
      ALLTAKES 0
      SEL 0
      FADEIN 1 0.000000 0.000000 1 0
      FADEOUT 1 0.000000 0.000000 1 0
      MUTE 0
      IGUID {A1B24BBF-93B7-476C-BC6D-33F5621C633F}
      IID 8
      NAME "PART BASS"
      VOLPAN 1.000000 0.000000 1.000000 -1.000000
      SOFFS 0.00000000000000 0.00000000000000
      PLAYRATE 1.00000000000000 1 0.00000000000000 -65536
      CHANMODE 0
      GUID {344A7487-35C3-41F9-8B1E-12A4F3D7F336}
      <SOURCE MIDI
        HASDATA 1 480 QN
        POOLEDEVTS {1A43B992-64A8-48BA-8DC1-E124B1C83AB0}
        <X 0 0
          /wNQQVJUIEJBU1M=
        >
        <X 3840 0
          /wFbcGxheV0=
        >
        E 1440 90 3d 60
        E 0 90 49 60
        E 0 90 55 60
        E 0 90 61 60
        E 60 80 3d 00
        E 0 80 49 00
        E 0 80 55 00
        E 0 80 61 00
        E 300 90 55 60
        E 0 90 62 60
        E 60 80 62 00
        E 60 80 55 00
        E 0 90 61 60
        E 60 80 61 00
        E 300 90 49 60
        E 0 90 55 60
        E 0 90 62 60
        E 60 80 62 00
        E 60 80 49 00
        E 0 80 55 00
        E 0 90 61 60
        E 60 80 61 00
        E 300 90 3d 60
        E 0 90 49 60
        E 0 90 55 60
        E 0 90 62 60
        E 60 80 62 00
        E 60 80 3d 00
        E 0 80 49 00
        E 0 80 55 00
        E 0 90 61 60
        E 60 80 61 00
        E 300 90 49 60
        E 0 90 55 60
        E 0 90 62 60
        E 60 80 62 00
        E 60 80 49 00
        E 0 80 55 00
        E 0 90 61 60
        E 60 80 61 00
        E 300 90 3d 60
        E 0 90 49 60
        E 0 90 55 60
        E 0 90 62 60
        E 60 80 62 00
        E 60 80 3d 00
        E 0 80 49 00
        E 0 80 55 00
        E 0 90 61 60
        E 60 80 61 00
        E 180 90 49 60
        E 0 90 55 60
        E 0 90 61 60
        E 120 80 49 00
        E 0 80 55 00
        E 200 80 61 00
        E 160 90 4a 60
        E 0 90 56 60
        E 0 90 62 60
        E 120 80 4a 00
        E 0 80 56 00
        E 200 80 62 00
        E 160 90 56 60
        E 0 90 62 60
        E 60 80 56 00
        E 0 80 62 00
        E 180 90 3d 60
        E 0 90 49 60
        E 0 90 55 60
        E 0 90 61 60
        E 60 80 3d 00
        E 0 80 49 00
        E 0 80 55 00
        E 0 80 61 00
        E 300 90 55 60
        E 0 90 61 60
        E 120 80 55 00
        E 160 80 61 00
        E 80 90 49 60
        E 0 90 55 60
        E 0 90 61 60
        E 120 80 49 00
        E 0 80 55 00
        E 160 80 61 00
        E 200 90 3c 60
        E 0 90 48 60
        E 0 90 54 60
        E 0 90 60 60
        E 120 80 3c 00
        E 0 80 48 00
        E 0 80 54 00
        E 200 80 60 00
        E 160 90 48 60
        E 0 90 54 60
        E 0 90 60 60
        E 40 80 48 00
        E 0 80 54 00
        E 0 80 60 00
        E 200 90 3c 60
        E 0 90 48 60
        E 0 90 54 60
        E 0 90 60 60
        E 40 80 3c 00
        E 0 80 48 00
        E 0 80 54 00
        E 0 80 60 00
        E 320 90 55 60
        E 0 90 61 60
        E 120 80 55 00
        E 160 80 61 00
        E 80 90 49 60
        E 0 90 55 60
        E 0 90 61 60
        E 120 80 49 00
        E 0 80 55 00
        E 200 80 61 00
        E 160 90 3e 60
        E 0 90 4a 60
        E 0 90 56 60
        E 0 90 62 60
        E 120 80 3e 00
        E 0 80 4a 00
        E 0 80 56 00
        E 200 80 62 00
        E 160 90 56 60
        E 0 90 62 60
        E 60 80 56 00
        E 0 80 62 00
        E 180 90 49 60
        E 0 90 55 60
        E 0 90 61 60
        E 60 80 49 00
        E 0 80 55 00
        E 0 80 61 00
        E 300 90 55 60
        E 0 90 61 60
        E 120 80 55 00
        E 160 80 61 00
        E 80 90 3d 60
        E 0 90 49 60
        E 0 90 55 60
        E 0 90 61 60
        E 120 80 3d 00
        E 0 80 49 00
        E 0 80 55 00
        E 200 80 61 00
        E 160 90 48 60
        E 0 90 54 60
        E 0 90 60 60
        E 120 80 48 00
        E 0 80 54 00
        E 200 80 60 00
        E 160 90 54 60
        E 0 90 60 60
        E 40 80 54 00
        E 0 80 60 00
        E 200 90 3d 60
        E 0 90 49 60
        E 0 90 55 60
        E 0 90 61 60
        E 60 80 3d 00
        E 0 80 49 00
        E 0 80 55 00
        E 0 80 61 00
        E 180 90 49 60
        E 0 90 55 60
        E 0 90 61 60
        E 60 80 49 00
        E 0 80 55 00
        E 0 80 61 00
        E 180 90 3d 60
        E 0 90 49 60
        E 0 90 55 60
        E 0 90 61 60
        E 60 80 3d 00
        E 0 80 49 00
        E 0 80 55 00
        E 0 80 61 00
        E 180 90 55 60
        E 0 90 61 60
        E 60 80 55 00
        E 0 80 61 00
        E 180 90 4a 60
        E 0 90 56 60
        E 0 90 62 60
        E 60 80 4a 00
        E 0 80 56 00
        E 0 80 62 00
        E 180 90 56 60
        E 0 90 62 60
        E 60 80 56 00
        E 0 80 62 00
        E 179 90 3e 60
        E 0 90 4a 60
        E 0 90 56 60
        E 0 90 62 60
        E 61 80 3e 00
        E 0 80 4a 00
        E 0 80 56 00
        E 0 80 62 00
        E 180 90 56 60
        E 0 90 62 60
        E 60 80 56 00
        E 0 80 62 00
        E 180 90 49 60
        E 0 90 55 60
        E 0 90 61 60
        E 60 80 49 00
        E 0 80 55 00
        E 0 80 61 00
        E 180 90 55 60
        E 0 90 61 60
        E 60 80 55 00
        E 0 80 61 00
        E 179 90 3d 60
        E 0 90 49 60
        E 0 90 55 60
        E 0 90 61 60
        E 61 80 3d 00
        E 0 80 49 00
        E 0 80 55 00
        E 0 80 61 00
        E 180 90 55 60
        E 0 90 61 60
        E 60 80 55 00
        E 0 80 61 00
        E 180 90 48 60
        E 0 90 54 60
        E 0 90 60 60
        E 60 80 48 00
        E 0 80 54 00
        E 0 80 60 00
        E 180 90 54 60
        E 0 90 60 60
        E 60 80 54 00
        E 0 80 60 00
        E 179 90 3c 60
        E 0 90 48 60
        E 0 90 54 60
        E 0 90 60 60
        E 61 80 3c 00
        E 0 80 48 00
        E 0 80 54 00
        E 0 80 60 00
        E 180 90 54 60
        E 0 90 60 60
        E 60 80 54 00
        E 0 80 60 00
        E 180 90 49 60
        E 0 90 55 60
        E 0 90 61 60
        E 0 90 74 60
        E 120 80 49 00
        E 239 80 55 00
        E 61 80 61 00
        E 59 90 3d 60
        E 0 90 49 60
        E 0 90 55 60
        E 0 90 61 60
        E 61 80 3d 00
        E 0 80 49 00
        E 0 80 55 00
        E 0 80 61 00
        E 180 90 49 60
        E 0 90 55 60
        E 0 90 61 60
        E 60 80 49 00
        E 0 80 55 00
        E 0 80 61 00
        E 20 80 74 00
        E 400 90 56 60
        E 0 90 62 60
        E 60 80 56 00
        E 0 80 62 00
        E 179 90 3e 60
        E 0 90 4a 60
        E 0 90 56 60
        E 0 90 62 60
        E 61 80 3e 00
        E 0 80 4a 00
        E 0 80 56 00
        E 0 80 62 00
        E 180 90 56 60
        E 0 90 62 60
        E 60 80 56 00
        E 0 80 62 00
        E 180 90 49 60
        E 0 90 55 60
        E 0 90 61 60
        E 120 80 49 00
        E 239 80 55 00
        E 61 80 61 00
        E 59 90 3d 60
        E 0 90 49 60
        E 0 90 55 60
        E 0 90 61 60
        E 61 80 3d 00
        E 0 80 49 00
        E 0 80 55 00
        E 0 80 61 00
        E 180 90 49 60
        E 0 90 55 60
        E 0 90 61 60
        E 60 80 49 00
        E 0 80 55 00
        E 0 80 61 00
        E 420 90 54 60
        E 0 90 60 60
        E 60 80 54 00
        E 0 80 60 00
        E 179 90 3c 60
        E 0 90 48 60
        E 0 90 54 60
        E 0 90 60 60
        E 61 80 3c 00
        E 0 80 48 00
        E 0 80 54 00
        E 0 80 60 00
        E 180 90 54 60
        E 0 90 60 60
        E 60 80 54 00
        E 0 80 60 00
        E 180 90 49 60
        E 0 90 55 60
        E 0 90 61 60
        E 60 80 49 00
        E 0 80 55 00
        E 0 80 61 00
        E 180 90 49 60
        E 0 90 55 60
        E 0 90 61 60
        E 60 80 49 00
        E 0 80 55 00
        E 0 80 61 00
        E 180 90 3d 60
        E 0 90 49 60
        E 0 90 55 60
        E 0 90 61 60
        E 60 80 3d 00
        E 0 80 49 00
        E 0 80 55 00
        E 0 80 61 00
        E 180 90 55 60
        E 0 90 61 60
        E 60 80 55 00
        E 0 80 61 00
        E 180 90 4a 60
        E 0 90 56 60
        E 0 90 62 60
        E 60 80 4a 00
        E 0 80 56 00
        E 0 80 62 00
        E 180 90 56 60
        E 0 90 62 60
        E 60 80 56 00
        E 0 80 62 00
        E 179 90 3e 60
        E 0 90 4a 60
        E 0 90 56 60
        E 0 90 62 60
        E 61 80 3e 00
        E 0 80 4a 00
        E 0 80 56 00
        E 0 80 62 00
        E 180 90 56 60
        E 0 90 62 60
        E 60 80 56 00
        E 0 80 62 00
        E 180 90 49 60
        E 0 90 55 60
        E 0 90 61 60
        E 60 80 49 00
        E 0 80 55 00
        E 0 80 61 00
        E 180 90 55 60
        E 0 90 61 60
        E 60 80 55 00
        E 0 80 61 00
        E 179 90 3d 60
        E 0 90 49 60
        E 0 90 55 60
        E 0 90 61 60
        E 61 80 3d 00
        E 0 80 49 00
        E 0 80 55 00
        E 0 80 61 00
        E 180 90 55 60
        E 0 90 61 60
        E 60 80 55 00
        E 0 80 61 00
        E 180 90 48 60
        E 0 90 54 60
        E 0 90 60 60
        E 60 80 48 00
        E 0 80 54 00
        E 0 80 60 00
        E 180 90 54 60
        E 0 90 60 60
        E 60 80 54 00
        E 0 80 60 00
        E 179 90 3c 60
        E 0 90 48 60
        E 0 90 54 60
        E 0 90 60 60
        E 61 80 3c 00
        E 0 80 48 00
        E 0 80 54 00
        E 0 80 60 00
        E 180 90 54 60
        E 0 90 60 60
        E 60 80 54 00
        E 0 80 60 00
        E 180 90 49 60
        E 0 90 55 60
        E 0 90 61 60
        E 120 80 49 00
        E 239 80 55 00
        E 61 80 61 00
        E 59 90 3d 60
        E 0 90 49 60
        E 0 90 55 60
        E 0 90 61 60
        E 61 80 3d 00
        E 0 80 49 00
        E 0 80 55 00
        E 0 80 61 00
        E 180 90 49 60
        E 0 90 55 60
        E 0 90 61 60
        E 60 80 49 00
        E 0 80 55 00
        E 0 80 61 00
        E 420 90 56 60
        E 0 90 62 60
        E 60 80 56 00
        E 0 80 62 00
        E 179 90 3e 60
        E 0 90 4a 60
        E 0 90 56 60
        E 0 90 62 60
        E 61 80 3e 00
        E 0 80 4a 00
        E 0 80 56 00
        E 0 80 62 00
        E 180 90 56 60
        E 0 90 62 60
        E 60 80 56 00
        E 0 80 62 00
        E 180 90 49 60
        E 0 90 55 60
        E 0 90 61 60
        E 120 80 49 00
        E 239 80 55 00
        E 61 80 61 00
        E 59 90 3d 60
        E 0 90 49 60
        E 0 90 55 60
        E 0 90 61 60
        E 61 80 3d 00
        E 0 80 49 00
        E 0 80 55 00
        E 0 80 61 00
        E 180 90 49 60
        E 0 90 55 60
        E 0 90 61 60
        E 60 80 49 00
        E 0 80 55 00
        E 0 80 61 00
        E 420 90 54 60
        E 0 90 60 60
        E 60 80 54 00
        E 0 80 60 00
        E 179 90 3c 60
        E 0 90 48 60
        E 0 90 54 60
        E 0 90 60 60
        E 61 80 3c 00
        E 0 80 48 00
        E 0 80 54 00
        E 0 80 60 00
        E 180 90 48 60
        E 0 90 54 60
        E 0 90 60 60
        E 60 80 48 00
        E 0 80 54 00
        E 0 80 60 00
        E 220 90 55 60
        E 0 90 61 60
        E 60 80 55 00
        E 0 80 61 00
        E 260 90 49 60
        E 0 90 55 60
        E 0 90 61 60
        E 0 90 74 60
        E 120 80 49 00
        E 0 80 55 00
        E 160 80 61 00
        E 80 90 3d 60
        E 0 90 49 60
        E 0 90 55 60
        E 0 90 61 60
        E 120 80 3d 00
        E 0 80 49 00
        E 0 80 55 00
        E 200 80 61 00
        E 160 90 4a 60
        E 0 90 56 60
        E 0 90 62 60
        E 120 80 4a 00
        E 0 80 56 00
        E 200 80 62 00
        E 40 80 74 00
        E 120 90 56 60
        E 0 90 62 60
        E 60 80 56 00
        E 0 80 62 00
        E 180 90 3d 60
        E 0 90 49 60
        E 0 90 55 60
        E 0 90 61 60
        E 60 80 3d 00
        E 0 80 49 00
        E 0 80 55 00
        E 0 80 61 00
        E 300 90 55 60
        E 0 90 61 60
        E 120 80 55 00
        E 160 80 61 00
        E 80 90 49 60
        E 0 90 55 60
        E 0 90 61 60
        E 120 80 49 00
        E 0 80 55 00
        E 200 80 61 00
        E 160 90 3c 60
        E 0 90 48 60
        E 0 90 54 60
        E 0 90 60 60
        E 120 80 3c 00
        E 0 80 48 00
        E 0 80 54 00
        E 200 80 60 00
        E 160 90 48 60
        E 0 90 54 60
        E 0 90 60 60
        E 40 80 48 00
        E 0 80 54 00
        E 0 80 60 00
        E 200 90 3c 60
        E 0 90 48 60
        E 0 90 54 60
        E 0 90 60 60
        E 40 80 3c 00
        E 0 80 48 00
        E 0 80 54 00
        E 0 80 60 00
        E 320 90 55 60
        E 0 90 61 60
        E 120 80 55 00
        E 160 80 61 00
        E 80 90 49 60
        E 0 90 55 60
        E 0 90 61 60
        E 120 80 49 00
        E 0 80 55 00
        E 200 80 61 00
        E 160 90 3e 60
        E 0 90 4a 60
        E 0 90 56 60
        E 0 90 62 60
        E 120 80 3e 00
        E 0 80 4a 00
        E 0 80 56 00
        E 200 80 62 00
        E 160 90 56 60
        E 0 90 62 60
        E 60 80 56 00
        E 0 80 62 00
        E 180 90 49 60
        E 0 90 55 60
        E 0 90 61 60
        E 60 80 49 00
        E 0 80 55 00
        E 0 80 61 00
        E 300 90 55 60
        E 0 90 61 60
        E 120 80 55 00
        E 160 80 61 00
        E 80 90 3d 60
        E 0 90 49 60
        E 0 90 55 60
        E 0 90 61 60
        E 120 80 3d 00
        E 0 80 49 00
        E 0 80 55 00
        E 200 80 61 00
        E 160 90 48 60
        E 0 90 54 60
        E 0 90 60 60
        E 120 80 48 00
        E 0 80 54 00
        E 200 80 60 00
        E 160 90 48 60
        E 0 90 54 60
        E 0 90 60 60
        E 40 80 48 00
        E 0 80 54 00
        E 0 80 60 00
        E 200 90 3c 60
        E 0 90 48 60
        E 0 90 54 60
        E 0 90 60 60
        E 40 80 3c 00
        E 0 80 48 00
        E 0 80 54 00
        E 0 80 60 00
        E 320 90 55 60
        E 0 90 61 60
        E 120 80 55 00
        E 160 80 61 00
        E 80 90 49 60
        E 0 90 55 60
        E 0 90 61 60
        E 120 80 49 00
        E 0 80 55 00
        E 200 80 61 00
        E 160 90 3e 60
        E 0 90 4a 60
        E 0 90 56 60
        E 0 90 62 60
        E 120 80 3e 00
        E 0 80 4a 00
        E 0 80 56 00
        E 200 80 62 00
        E 160 90 56 60
        E 0 90 62 60
        E 60 80 56 00
        E 0 80 62 00
        E 180 90 49 60
        E 0 90 55 60
        E 0 90 61 60
        E 60 80 49 00
        E 0 80 55 00
        E 0 80 61 00
        E 300 90 55 60
        E 0 90 61 60
        E 120 80 55 00
        E 160 80 61 00
        E 80 90 3d 60
        E 0 90 49 60
        E 0 90 55 60
        E 0 90 61 60
        E 120 80 3d 00
        E 0 80 49 00
        E 0 80 55 00
        E 200 80 61 00
        E 160 90 48 60
        E 0 90 54 60
        E 0 90 60 60
        E 120 80 48 00
        E 0 80 54 00
        E 200 80 60 00
        E 160 90 48 60
        E 0 90 54 60
        E 0 90 60 60
        E 40 80 48 00
        E 0 80 54 00
        E 0 80 60 00
        E 200 90 3c 60
        E 0 90 48 60
        E 0 90 54 60
        E 0 90 60 60
        E 40 80 3c 00
        E 0 80 48 00
        E 0 80 54 00
        E 0 80 60 00
        E 320 90 55 60
        E 0 90 61 60
        E 120 80 55 00
        E 160 80 61 00
        E 81 90 49 60
        E 0 90 55 60
        E 0 90 61 60
        E 120 80 49 00
        E 0 80 55 00
        E 199 80 61 00
        E 161 90 3e 60
        E 0 90 4a 60
        E 0 90 56 60
        E 0 90 62 60
        E 120 80 3e 00
        E 0 80 4a 00
        E 0 80 56 00
        E 199 80 62 00
        E 161 90 56 60
        E 0 90 62 60
        E 60 80 56 00
        E 0 80 62 00
        E 180 90 49 60
        E 0 90 55 60
        E 0 90 61 60
        E 60 80 49 00
        E 0 80 55 00
        E 0 80 61 00
        E 300 90 55 60
        E 0 90 61 60
        E 120 80 55 00
        E 159 80 61 00
        E 81 90 3d 60
        E 0 90 49 60
        E 0 90 55 60
        E 0 90 61 60
        E 120 80 3d 00
        E 0 80 49 00
        E 0 80 55 00
        E 199 80 61 00
        E 160 90 54 60
        E 0 90 60 60
        E 120 80 54 00
        E 200 80 60 00
        E 160 90 54 60
        E 0 90 60 60
        E 40 80 54 00
        E 0 80 60 00
        E 200 90 3d 60
        E 0 90 49 60
        E 0 90 55 60
        E 0 90 61 60
        E 60 80 3d 00
        E 0 80 49 00
        E 0 80 55 00
        E 0 80 61 00
        E 180 90 49 60
        E 0 90 55 60
        E 0 90 61 60
        E 60 80 49 00
        E 0 80 55 00
        E 0 80 61 00
        E 180 90 3d 60
        E 0 90 49 60
        E 0 90 55 60
        E 0 90 61 60
        E 60 80 3d 00
        E 0 80 49 00
        E 0 80 55 00
        E 0 80 61 00
        E 180 90 55 60
        E 0 90 61 60
        E 60 80 55 00
        E 0 80 61 00
        E 180 90 4a 60
        E 0 90 56 60
        E 0 90 62 60
        E 60 80 4a 00
        E 0 80 56 00
        E 0 80 62 00
        E 180 90 56 60
        E 0 90 62 60
        E 60 80 56 00
        E 0 80 62 00
        E 179 90 3e 60
        E 0 90 4a 60
        E 0 90 56 60
        E 0 90 62 60
        E 61 80 3e 00
        E 0 80 4a 00
        E 0 80 56 00
        E 0 80 62 00
        E 180 90 56 60
        E 0 90 62 60
        E 60 80 56 00
        E 0 80 62 00
        E 180 90 49 60
        E 0 90 55 60
        E 0 90 61 60
        E 60 80 49 00
        E 0 80 55 00
        E 0 80 61 00
        E 180 90 55 60
        E 0 90 61 60
        E 60 80 55 00
        E 0 80 61 00
        E 179 90 3d 60
        E 0 90 49 60
        E 0 90 55 60
        E 0 90 61 60
        E 61 80 3d 00
        E 0 80 49 00
        E 0 80 55 00
        E 0 80 61 00
        E 180 90 55 60
        E 0 90 61 60
        E 60 80 55 00
        E 0 80 61 00
        E 180 90 48 60
        E 0 90 54 60
        E 0 90 60 60
        E 60 80 48 00
        E 0 80 54 00
        E 0 80 60 00
        E 180 90 54 60
        E 0 90 60 60
        E 60 80 54 00
        E 0 80 60 00
        E 179 90 3c 60
        E 0 90 48 60
        E 0 90 54 60
        E 0 90 60 60
        E 61 80 3c 00
        E 0 80 48 00
        E 0 80 54 00
        E 0 80 60 00
        E 180 90 54 60
        E 0 90 60 60
        E 60 80 54 00
        E 0 80 60 00
        E 180 90 49 60
        E 0 90 55 60
        E 0 90 61 60
        E 120 80 49 00
        E 239 80 55 00
        E 61 80 61 00
        E 59 90 3d 60
        E 0 90 49 60
        E 0 90 55 60
        E 0 90 61 60
        E 61 80 3d 00
        E 0 80 49 00
        E 0 80 55 00
        E 0 80 61 00
        E 180 90 49 60
        E 0 90 55 60
        E 0 90 61 60
        E 60 80 49 00
        E 0 80 55 00
        E 0 80 61 00
        E 300 90 74 5b
        E 120 90 56 60
        E 0 90 62 60
        E 60 80 56 00
        E 0 80 62 00
        E 179 90 3e 60
        E 0 90 4a 60
        E 0 90 56 60
        E 0 90 62 60
        E 61 80 3e 00
        E 0 80 4a 00
        E 0 80 56 00
        E 0 80 62 00
        E 180 90 56 60
        E 0 90 62 60
        E 60 80 56 00
        E 0 80 62 00
        E 180 90 49 60
        E 0 90 55 60
        E 0 90 61 60
        E 120 80 49 00
        E 239 80 55 00
        E 61 80 61 00
        E 59 90 3d 60
        E 0 90 49 60
        E 0 90 55 60
        E 0 90 61 60
        E 61 80 3d 00
        E 0 80 49 00
        E 0 80 55 00
        E 0 80 61 00
        E 180 90 49 60
        E 0 90 55 60
        E 0 90 61 60
        E 60 80 74 00
        E 0 80 49 00
        E 0 80 55 00
        E 0 80 61 00
        E 420 90 54 60
        E 0 90 60 60
        E 60 80 54 00
        E 0 80 60 00
        E 179 90 3c 60
        E 0 90 48 60
        E 0 90 54 60
        E 0 90 60 60
        E 61 80 3c 00
        E 0 80 48 00
        E 0 80 54 00
        E 0 80 60 00
        E 180 90 54 60
        E 0 90 60 60
        E 60 80 54 00
        E 0 80 60 00
        E 180 90 49 60
        E 0 90 55 60
        E 0 90 61 60
        E 60 80 49 00
        E 0 80 55 00
        E 0 80 61 00
        E 180 90 49 60
        E 0 90 55 60
        E 0 90 61 60
        E 60 80 49 00
        E 0 80 55 00
        E 0 80 61 00
        E 180 90 3d 60
        E 0 90 49 60
        E 0 90 55 60
        E 0 90 61 60
        E 60 80 3d 00
        E 0 80 49 00
        E 0 80 55 00
        E 0 80 61 00
        E 180 90 55 60
        E 0 90 61 60
        E 60 80 55 00
        E 0 80 61 00
        E 180 90 4a 60
        E 0 90 56 60
        E 0 90 62 60
        E 60 80 4a 00
        E 0 80 56 00
        E 0 80 62 00
        E 180 90 56 60
        E 0 90 62 60
        E 60 80 56 00
        E 0 80 62 00
        E 179 90 3e 60
        E 0 90 4a 60
        E 0 90 56 60
        E 0 90 62 60
        E 61 80 3e 00
        E 0 80 4a 00
        E 0 80 56 00
        E 0 80 62 00
        E 180 90 56 60
        E 0 90 62 60
        E 60 80 56 00
        E 0 80 62 00
        E 180 90 49 60
        E 0 90 55 60
        E 0 90 61 60
        E 60 80 49 00
        E 0 80 55 00
        E 0 80 61 00
        E 180 90 55 60
        E 0 90 61 60
        E 60 80 55 00
        E 0 80 61 00
        E 179 90 3d 60
        E 0 90 49 60
        E 0 90 55 60
        E 0 90 61 60
        E 61 80 3d 00
        E 0 80 49 00
        E 0 80 55 00
        E 0 80 61 00
        E 180 90 55 60
        E 0 90 61 60
        E 60 80 55 00
        E 0 80 61 00
        E 180 90 48 60
        E 0 90 54 60
        E 0 90 60 60
        E 60 80 48 00
        E 0 80 54 00
        E 0 80 60 00
        E 180 90 54 60
        E 0 90 60 60
        E 60 80 54 00
        E 0 80 60 00
        E 179 90 3c 60
        E 0 90 48 60
        E 0 90 54 60
        E 0 90 60 60
        E 61 80 3c 00
        E 0 80 48 00
        E 0 80 54 00
        E 0 80 60 00
        E 180 90 54 60
        E 0 90 60 60
        E 60 80 54 00
        E 0 80 60 00
        E 180 90 49 60
        E 0 90 55 60
        E 0 90 61 60
        E 120 80 49 00
        E 239 80 55 00
        E 60 80 61 00
        E 60 90 3d 60
        E 0 90 49 60
        E 0 90 55 60
        E 0 90 61 60
        E 61 80 3d 00
        E 0 80 49 00
        E 0 80 55 00
        E 0 80 61 00
        E 180 90 49 60
        E 0 90 55 60
        E 0 90 61 60
        E 60 80 49 00
        E 0 80 55 00
        E 0 80 61 00
        E 420 90 56 60
        E 0 90 62 60
        E 60 80 56 00
        E 0 80 62 00
        E 179 90 3e 60
        E 0 90 4a 60
        E 0 90 56 60
        E 0 90 62 60
        E 61 80 3e 00
        E 0 80 4a 00
        E 0 80 56 00
        E 0 80 62 00
        E 180 90 56 60
        E 0 90 62 60
        E 60 80 56 00
        E 0 80 62 00
        E 180 90 49 60
        E 0 90 55 60
        E 0 90 61 60
        E 120 80 49 00
        E 239 80 55 00
        E 60 80 61 00
        E 60 90 3d 60
        E 0 90 49 60
        E 0 90 55 60
        E 0 90 61 60
        E 61 80 3d 00
        E 0 80 49 00
        E 0 80 55 00
        E 0 80 61 00
        E 180 90 49 60
        E 0 90 55 60
        E 0 90 61 60
        E 60 80 49 00
        E 0 80 55 00
        E 0 80 61 00
        E 1140 90 3d 60
        E 0 90 49 60
        E 0 90 55 60
        E 0 90 61 60
        E 60 80 3d 00
        E 0 80 49 00
        E 0 80 55 00
        E 0 80 61 00
        E 180 90 49 60
        E 0 90 55 60
        E 0 90 61 60
        E 60 80 49 00
        E 0 80 55 00
        E 0 80 61 00
        E 180 90 3d 60
        E 0 90 49 60
        E 0 90 55 60
        E 0 90 61 60
        E 60 80 3d 00
        E 0 80 49 00
        E 0 80 55 00
        E 0 80 61 00
        E 180 90 55 60
        E 0 90 61 60
        E 60 80 55 00
        E 0 80 61 00
        E 180 90 4a 60
        E 0 90 56 60
        E 0 90 62 60
        E 60 80 4a 00
        E 0 80 56 00
        E 0 80 62 00
        E 180 90 56 60
        E 0 90 62 60
        E 60 80 56 00
        E 0 80 62 00
        E 179 90 3e 60
        E 0 90 4a 60
        E 0 90 56 60
        E 0 90 62 60
        E 61 80 3e 00
        E 0 80 4a 00
        E 0 80 56 00
        E 0 80 62 00
        E 180 90 56 60
        E 0 90 62 60
        E 60 80 56 00
        E 0 80 62 00
        E 180 90 49 60
        E 0 90 55 60
        E 0 90 61 60
        E 60 80 49 00
        E 0 80 55 00
        E 0 80 61 00
        E 180 90 49 60
        E 0 90 55 60
        E 0 90 61 60
        E 60 80 49 00
        E 0 80 55 00
        E 0 80 61 00
        E 180 90 3d 60
        E 0 90 49 60
        E 0 90 55 60
        E 0 90 61 60
        E 60 80 3d 00
        E 0 80 49 00
        E 0 80 55 00
        E 0 80 61 00
        E 180 90 49 60
        E 0 90 55 60
        E 0 90 61 60
        E 60 80 49 00
        E 0 80 55 00
        E 0 80 61 00
        E 180 90 3d 60
        E 0 90 49 60
        E 0 90 55 60
        E 0 90 61 60
        E 60 80 3d 00
        E 0 80 49 00
        E 0 80 55 00
        E 0 80 61 00
        E 180 90 49 60
        E 0 90 55 60
        E 0 90 61 60
        E 60 80 49 00
        E 0 80 55 00
        E 0 80 61 00
        E 180 90 3d 60
        E 0 90 49 60
        E 0 90 55 60
        E 0 90 61 60
        E 60 80 3d 00
        E 0 80 49 00
        E 0 80 55 00
        E 0 80 61 00
        E 180 90 55 60
        E 0 90 61 60
        E 60 80 55 00
        E 0 80 61 00
        E 180 90 48 60
        E 0 90 54 60
        E 0 90 60 60
        E 60 80 48 00
        E 0 80 54 00
        E 0 80 60 00
        E 180 90 48 60
        E 0 90 54 60
        E 0 90 60 60
        E 60 80 48 00
        E 0 80 54 00
        E 0 80 60 00
        E 180 90 3c 60
        E 0 90 48 60
        E 0 90 54 60
        E 0 90 60 60
        E 60 80 3c 00
        E 0 80 48 00
        E 0 80 54 00
        E 0 80 60 00
        E 180 90 48 60
        E 0 90 54 60
        E 0 90 60 60
        E 60 80 48 00
        E 0 80 54 00
        E 0 80 60 00
        E 180 90 3c 60
        E 0 90 48 60
        E 0 90 54 60
        E 0 90 60 60
        E 60 80 3c 00
        E 0 80 48 00
        E 0 80 54 00
        E 0 80 60 00
        E 180 90 48 60
        E 0 90 54 60
        E 0 90 60 60
        E 60 80 48 00
        E 0 80 54 00
        E 0 80 60 00
        E 180 90 3c 60
        E 0 90 48 60
        E 0 90 54 60
        E 0 90 60 60
        E 60 80 3c 00
        E 0 80 48 00
        E 0 80 54 00
        E 0 80 60 00
        E 180 90 48 60
        E 0 90 54 60
        E 0 90 60 60
        E 60 80 48 00
        E 0 80 54 00
        E 0 80 60 00
        E 180 90 3c 60
        E 0 90 48 60
        E 0 90 54 60
        E 0 90 60 60
        E 60 80 3c 00
        E 0 80 48 00
        E 0 80 54 00
        E 0 80 60 00
        E 180 90 48 60
        E 0 90 54 60
        E 0 90 60 60
        E 60 80 48 00
        E 0 80 54 00
        E 0 80 60 00
        E 180 90 3c 60
        E 0 90 48 60
        E 0 90 54 60
        E 0 90 60 60
        E 60 80 3c 00
        E 0 80 48 00
        E 0 80 54 00
        E 0 80 60 00
        E 180 90 48 60
        E 0 90 54 60
        E 0 90 60 60
        E 60 80 48 00
        E 0 80 54 00
        E 0 80 60 00
        E 180 90 3c 60
        E 0 90 48 60
        E 0 90 54 60
        E 0 90 60 60
        E 60 80 3c 00
        E 0 80 48 00
        E 0 80 54 00
        E 0 80 60 00
        E 180 90 48 60
        E 0 90 54 60
        E 0 90 60 60
        E 60 80 48 00
        E 0 80 54 00
        E 0 80 60 00
        E 180 90 3c 60
        E 0 90 48 60
        E 0 90 54 60
        E 0 90 60 60
        E 60 80 3c 00
        E 0 80 48 00
        E 0 80 54 00
        E 0 80 60 00
        E 180 90 54 60
        E 0 90 60 60
        E 60 80 54 00
        E 0 80 60 00
        E 180 90 49 60
        E 0 90 55 60
        E 0 90 61 60
        E 60 80 49 00
        E 0 80 55 00
        E 0 80 61 00
        E 180 90 49 60
        E 0 90 55 60
        E 0 90 61 60
        E 60 80 49 00
        E 0 80 55 00
        E 0 80 61 00
        E 180 90 3d 60
        E 0 90 49 60
        E 0 90 55 60
        E 0 90 61 60
        E 60 80 3d 00
        E 0 80 49 00
        E 0 80 55 00
        E 0 80 61 00
        E 180 90 55 60
        E 0 90 61 60
        E 60 80 55 00
        E 0 80 61 00
        E 180 90 4a 60
        E 0 90 56 60
        E 0 90 62 60
        E 60 80 4a 00
        E 0 80 56 00
        E 0 80 62 00
        E 180 90 56 60
        E 0 90 62 60
        E 60 80 56 00
        E 0 80 62 00
        E 179 90 3e 60
        E 0 90 4a 60
        E 0 90 56 60
        E 0 90 62 60
        E 61 80 3e 00
        E 0 80 4a 00
        E 0 80 56 00
        E 0 80 62 00
        E 180 90 56 60
        E 0 90 62 60
        E 60 80 56 00
        E 0 80 62 00
        E 180 90 49 60
        E 0 90 55 60
        E 0 90 61 60
        E 60 80 49 00
        E 0 80 55 00
        E 0 80 61 00
        E 180 90 49 60
        E 0 90 55 60
        E 0 90 61 60
        E 60 80 49 00
        E 0 80 55 00
        E 0 80 61 00
        E 120 90 74 60
        E 60 90 3d 60
        E 0 90 49 60
        E 0 90 55 60
        E 0 90 61 60
        E 60 80 3d 00
        E 0 80 49 00
        E 0 80 55 00
        E 0 80 61 00
        E 180 90 49 60
        E 0 90 55 60
        E 0 90 61 60
        E 60 80 49 00
        E 0 80 55 00
        E 0 80 61 00
        E 180 90 3d 60
        E 0 90 49 60
        E 0 90 55 60
        E 0 90 61 60
        E 60 80 3d 00
        E 0 80 49 00
        E 0 80 55 00
        E 0 80 61 00
        E 180 90 49 60
        E 0 90 55 60
        E 0 90 61 60
        E 60 80 49 00
        E 0 80 55 00
        E 0 80 61 00
        E 180 90 3d 60
        E 0 90 49 60
        E 0 90 55 60
        E 0 90 61 60
        E 60 80 3d 00
        E 0 80 49 00
        E 0 80 55 00
        E 0 80 61 00
        E 120 80 74 00
        E 60 90 55 60
        E 0 90 61 60
        E 60 80 55 00
        E 0 80 61 00
        E 180 90 48 60
        E 0 90 54 60
        E 0 90 60 60
        E 60 80 48 00
        E 0 80 54 00
        E 0 80 60 00
        E 180 90 48 60
        E 0 90 54 60
        E 0 90 60 60
        E 60 80 48 00
        E 0 80 54 00
        E 0 80 60 00
        E 180 90 3c 60
        E 0 90 48 60
        E 0 90 54 60
        E 0 90 60 60
        E 60 80 3c 00
        E 0 80 48 00
        E 0 80 54 00
        E 0 80 60 00
        E 180 90 48 60
        E 0 90 54 60
        E 0 90 60 60
        E 60 80 48 00
        E 0 80 54 00
        E 0 80 60 00
        E 180 90 3c 60
        E 0 90 48 60
        E 0 90 54 60
        E 0 90 60 60
        E 60 80 3c 00
        E 0 80 48 00
        E 0 80 54 00
        E 0 80 60 00
        E 180 90 48 60
        E 0 90 54 60
        E 0 90 60 60
        E 60 80 48 00
        E 0 80 54 00
        E 0 80 60 00
        E 180 90 3c 60
        E 0 90 48 60
        E 0 90 54 60
        E 0 90 60 60
        E 60 80 3c 00
        E 0 80 48 00
        E 0 80 54 00
        E 0 80 60 00
        E 180 90 48 60
        E 0 90 54 60
        E 0 90 60 60
        E 60 80 48 00
        E 0 80 54 00
        E 0 80 60 00
        E 180 90 3c 60
        E 0 90 48 60
        E 0 90 54 60
        E 0 90 60 60
        E 60 80 3c 00
        E 0 80 48 00
        E 0 80 54 00
        E 0 80 60 00
        E 180 90 48 60
        E 0 90 54 60
        E 0 90 60 60
        E 60 80 48 00
        E 0 80 54 00
        E 0 80 60 00
        E 180 90 3c 60
        E 0 90 48 60
        E 0 90 54 60
        E 0 90 60 60
        E 60 80 3c 00
        E 0 80 48 00
        E 0 80 54 00
        E 0 80 60 00
        E 180 90 48 60
        E 0 90 54 60
        E 0 90 60 60
        E 60 80 48 00
        E 0 80 54 00
        E 0 80 60 00
        E 180 90 3c 60
        E 0 90 48 60
        E 0 90 54 60
        E 0 90 60 60
        E 60 80 3c 00
        E 0 80 48 00
        E 0 80 54 00
        E 0 80 60 00
        E 180 90 48 60
        E 0 90 54 60
        E 0 90 60 60
        E 60 80 48 00
        E 0 80 54 00
        E 0 80 60 00
        E 180 90 3c 60
        E 0 90 48 60
        E 0 90 54 60
        E 0 90 60 60
        E 60 80 3c 00
        E 0 80 48 00
        E 0 80 54 00
        E 0 80 60 00
        E 180 90 48 60
        E 0 90 54 60
        E 0 90 60 60
        E 60 80 48 00
        E 0 80 54 00
        E 0 80 60 00
        E 220 90 55 60
        E 0 90 61 60
        E 60 80 55 00
        E 0 80 61 00
        E 260 90 49 60
        E 0 90 55 60
        E 0 90 61 60
        E 120 80 49 00
        E 0 80 55 00
        E 160 80 61 00
        E 80 90 3d 60
        E 0 90 49 60
        E 0 90 55 60
        E 0 90 61 60
        E 120 80 3d 00
        E 0 80 49 00
        E 0 80 55 00
        E 200 80 61 00
        E 160 90 4a 60
        E 0 90 56 60
        E 0 90 62 60
        E 120 80 4a 00
        E 0 80 56 00
        E 200 80 62 00
        E 160 90 56 60
        E 0 90 62 60
        E 60 80 56 00
        E 0 80 62 00
        E 180 90 3d 60
        E 0 90 49 60
        E 0 90 55 60
        E 0 90 61 60
        E 60 80 3d 00
        E 0 80 49 00
        E 0 80 55 00
        E 0 80 61 00
        E 300 90 55 60
        E 0 90 61 60
        E 120 80 55 00
        E 160 80 61 00
        E 80 90 49 60
        E 0 90 55 60
        E 0 90 61 60
        E 120 80 49 00
        E 0 80 55 00
        E 200 80 61 00
        E 160 90 3c 60
        E 0 90 48 60
        E 0 90 54 60
        E 0 90 60 60
        E 120 80 3c 00
        E 0 80 48 00
        E 0 80 54 00
        E 200 80 60 00
        E 160 90 48 60
        E 0 90 54 60
        E 0 90 60 60
        E 40 80 48 00
        E 0 80 54 00
        E 0 80 60 00
        E 200 90 3c 60
        E 0 90 48 60
        E 0 90 54 60
        E 0 90 60 60
        E 40 80 3c 00
        E 0 80 48 00
        E 0 80 54 00
        E 0 80 60 00
        E 320 90 55 60
        E 0 90 61 60
        E 120 80 55 00
        E 160 80 61 00
        E 80 90 49 60
        E 0 90 55 60
        E 0 90 61 60
        E 120 80 49 00
        E 0 80 55 00
        E 200 80 61 00
        E 160 90 3e 60
        E 0 90 4a 60
        E 0 90 56 60
        E 0 90 62 60
        E 120 80 3e 00
        E 0 80 4a 00
        E 0 80 56 00
        E 200 80 62 00
        E 160 90 56 60
        E 0 90 62 60
        E 60 80 56 00
        E 0 80 62 00
        E 180 90 49 60
        E 0 90 55 60
        E 0 90 61 60
        E 60 80 49 00
        E 0 80 55 00
        E 0 80 61 00
        E 300 90 55 60
        E 0 90 61 60
        E 120 80 55 00
        E 160 80 61 00
        E 80 90 3d 60
        E 0 90 49 60
        E 0 90 55 60
        E 0 90 61 60
        E 120 80 3d 00
        E 0 80 49 00
        E 0 80 55 00
        E 200 80 61 00
        E 160 90 48 60
        E 0 90 54 60
        E 0 90 60 60
        E 120 80 48 00
        E 0 80 54 00
        E 200 80 60 00
        E 160 90 48 60
        E 0 90 54 60
        E 0 90 60 60
        E 40 80 48 00
        E 0 80 54 00
        E 0 80 60 00
        E 200 90 3c 60
        E 0 90 48 60
        E 0 90 54 60
        E 0 90 60 60
        E 40 80 3c 00
        E 0 80 48 00
        E 0 80 54 00
        E 0 80 60 00
        E 320 90 55 60
        E 0 90 61 60
        E 120 80 55 00
        E 160 80 61 00
        E 80 90 49 60
        E 0 90 55 60
        E 0 90 61 60
        E 120 80 49 00
        E 0 80 55 00
        E 200 80 61 00
        E 160 90 3e 60
        E 0 90 4a 60
        E 0 90 56 60
        E 0 90 62 60
        E 120 80 3e 00
        E 0 80 4a 00
        E 0 80 56 00
        E 200 80 62 00
        E 160 90 56 60
        E 0 90 62 60
        E 60 80 56 00
        E 0 80 62 00
        E 180 90 49 60
        E 0 90 55 60
        E 0 90 61 60
        E 60 80 49 00
        E 0 80 55 00
        E 0 80 61 00
        E 300 90 55 60
        E 0 90 61 60
        E 120 80 55 00
        E 160 80 61 00
        E 80 90 3d 60
        E 0 90 49 60
        E 0 90 55 60
        E 0 90 61 60
        E 120 80 3d 00
        E 0 80 49 00
        E 0 80 55 00
        E 200 80 61 00
        E 160 90 48 60
        E 0 90 54 60
        E 0 90 60 60
        E 120 80 48 00
        E 0 80 54 00
        E 200 80 60 00
        E 160 90 48 60
        E 0 90 54 60
        E 0 90 60 60
        E 40 80 48 00
        E 0 80 54 00
        E 0 80 60 00
        E 200 90 3c 60
        E 0 90 48 60
        E 0 90 54 60
        E 0 90 60 60
        E 40 80 3c 00
        E 0 80 48 00
        E 0 80 54 00
        E 0 80 60 00
        E 320 90 55 60
        E 0 90 61 60
        E 0 90 74 60
        E 120 80 55 00
        E 159 80 61 00
        E 82 90 49 60
        E 0 90 55 60
        E 0 90 61 60
        E 120 80 49 00
        E 0 80 55 00
        E 199 80 61 00
        E 161 90 3e 60
        E 0 90 4a 60
        E 0 90 56 60
        E 0 90 62 60
        E 120 80 3e 00
        E 0 80 4a 00
        E 0 80 56 00
        E 199 80 74 00
        E 0 80 62 00
        E 161 90 56 60
        E 0 90 62 60
        E 60 80 56 00
        E 0 80 62 00
        E 180 90 49 60
        E 0 90 55 60
        E 0 90 61 60
        E 60 80 49 00
        E 0 80 55 00
        E 0 80 61 00
        E 300 90 55 60
        E 0 90 61 60
        E 120 80 55 00
        E 159 80 61 00
        E 81 90 3d 60
        E 0 90 49 60
        E 0 90 55 60
        E 0 90 61 60
        E 120 80 3d 00
        E 0 80 49 00
        E 0 80 55 00
        E 199 80 61 00
        E 160 90 54 60
        E 0 90 60 60
        E 120 80 54 00
        E 200 80 60 00
        E 160 90 54 60
        E 0 90 60 60
        E 40 80 54 00
        E 0 80 60 00
        E 200 90 3d 60
        E 0 90 49 60
        E 0 90 55 60
        E 0 90 61 60
        E 60 80 3d 00
        E 0 80 49 00
        E 0 80 55 00
        E 0 80 61 00
        E 180 90 49 60
        E 0 90 55 60
        E 0 90 61 60
        E 60 80 49 00
        E 0 80 55 00
        E 0 80 61 00
        E 180 90 3d 60
        E 0 90 49 60
        E 0 90 55 60
        E 0 90 61 60
        E 60 80 3d 00
        E 0 80 49 00
        E 0 80 55 00
        E 0 80 61 00
        E 180 90 55 60
        E 0 90 61 60
        E 60 80 55 00
        E 0 80 61 00
        E 180 90 4a 60
        E 0 90 56 60
        E 0 90 62 60
        E 60 80 4a 00
        E 0 80 56 00
        E 0 80 62 00
        E 180 90 56 60
        E 0 90 62 60
        E 60 80 56 00
        E 0 80 62 00
        E 179 90 3e 60
        E 0 90 4a 60
        E 0 90 56 60
        E 0 90 62 60
        E 61 80 3e 00
        E 0 80 4a 00
        E 0 80 56 00
        E 0 80 62 00
        E 180 90 56 60
        E 0 90 62 60
        E 60 80 56 00
        E 0 80 62 00
        E 180 90 49 60
        E 0 90 55 60
        E 0 90 61 60
        E 60 80 49 00
        E 0 80 55 00
        E 0 80 61 00
        E 180 90 55 60
        E 0 90 61 60
        E 60 80 55 00
        E 0 80 61 00
        E 179 90 3d 60
        E 0 90 49 60
        E 0 90 55 60
        E 0 90 61 60
        E 61 80 3d 00
        E 0 80 49 00
        E 0 80 55 00
        E 0 80 61 00
        E 180 90 55 60
        E 0 90 61 60
        E 60 80 55 00
        E 0 80 61 00
        E 180 90 48 60
        E 0 90 54 60
        E 0 90 60 60
        E 60 80 48 00
        E 0 80 54 00
        E 0 80 60 00
        E 180 90 54 60
        E 0 90 60 60
        E 60 80 54 00
        E 0 80 60 00
        E 179 90 3c 60
        E 0 90 48 60
        E 0 90 54 60
        E 0 90 60 60
        E 61 80 3c 00
        E 0 80 48 00
        E 0 80 54 00
        E 0 80 60 00
        E 180 90 54 60
        E 0 90 60 60
        E 60 80 54 00
        E 0 80 60 00
        E 180 90 49 60
        E 0 90 55 60
        E 0 90 61 60
        E 120 80 49 00
        E 239 80 55 00
        E 61 80 61 00
        E 59 90 3d 60
        E 0 90 49 60
        E 0 90 55 60
        E 0 90 61 60
        E 61 80 3d 00
        E 0 80 49 00
        E 0 80 55 00
        E 0 80 61 00
        E 180 90 49 60
        E 0 90 55 60
        E 0 90 61 60
        E 60 80 49 00
        E 0 80 55 00
        E 0 80 61 00
        E 420 90 56 60
        E 0 90 62 60
        E 60 80 56 00
        E 0 80 62 00
        E 179 90 3e 60
        E 0 90 4a 60
        E 0 90 56 60
        E 0 90 62 60
        E 61 80 3e 00
        E 0 80 4a 00
        E 0 80 56 00
        E 0 80 62 00
        E 180 90 56 60
        E 0 90 62 60
        E 60 80 56 00
        E 0 80 62 00
        E 180 90 49 60
        E 0 90 55 60
        E 0 90 61 60
        E 120 80 49 00
        E 239 80 55 00
        E 61 80 61 00
        E 59 90 3d 60
        E 0 90 49 60
        E 0 90 55 60
        E 0 90 61 60
        E 61 80 3d 00
        E 0 80 49 00
        E 0 80 55 00
        E 0 80 61 00
        E 180 90 49 60
        E 0 90 55 60
        E 0 90 61 60
        E 60 80 49 00
        E 0 80 55 00
        E 0 80 61 00
        E 420 90 54 60
        E 0 90 60 60
        E 60 80 54 00
        E 0 80 60 00
        E 179 90 3c 60
        E 0 90 48 60
        E 0 90 54 60
        E 0 90 60 60
        E 61 80 3c 00
        E 0 80 48 00
        E 0 80 54 00
        E 0 80 60 00
        E 180 90 54 60
        E 0 90 60 60
        E 60 80 54 00
        E 0 80 60 00
        E 180 90 49 60
        E 0 90 55 60
        E 0 90 61 60
        E 60 80 49 00
        E 0 80 55 00
        E 0 80 61 00
        E 180 90 49 60
        E 0 90 55 60
        E 0 90 61 60
        E 60 80 49 00
        E 0 80 55 00
        E 0 80 61 00
        E 180 90 3d 60
        E 0 90 49 60
        E 0 90 55 60
        E 0 90 61 60
        E 60 80 3d 00
        E 0 80 49 00
        E 0 80 55 00
        E 0 80 61 00
        E 180 90 55 60
        E 0 90 61 60
        E 60 80 55 00
        E 0 80 61 00
        E 180 90 4a 60
        E 0 90 56 60
        E 0 90 62 60
        E 60 80 4a 00
        E 0 80 56 00
        E 0 80 62 00
        E 180 90 56 60
        E 0 90 62 60
        E 60 80 56 00
        E 0 80 62 00
        E 179 90 3e 60
        E 0 90 4a 60
        E 0 90 56 60
        E 0 90 62 60
        E 61 80 3e 00
        E 0 80 4a 00
        E 0 80 56 00
        E 0 80 62 00
        E 180 90 56 60
        E 0 90 62 60
        E 60 80 56 00
        E 0 80 62 00
        E 180 90 49 60
        E 0 90 55 60
        E 0 90 61 60
        E 60 80 49 00
        E 0 80 55 00
        E 0 80 61 00
        E 180 90 55 60
        E 0 90 61 60
        E 60 80 55 00
        E 0 80 61 00
        E 179 90 3d 60
        E 0 90 49 60
        E 0 90 55 60
        E 0 90 61 60
        E 61 80 3d 00
        E 0 80 49 00
        E 0 80 55 00
        E 0 80 61 00
        E 180 90 55 60
        E 0 90 61 60
        E 60 80 55 00
        E 0 80 61 00
        E 180 90 48 60
        E 0 90 54 60
        E 0 90 60 60
        E 60 80 48 00
        E 0 80 54 00
        E 0 80 60 00
        E 180 90 54 60
        E 0 90 60 60
        E 60 80 54 00
        E 0 80 60 00
        E 179 90 3c 60
        E 0 90 48 60
        E 0 90 54 60
        E 0 90 60 60
        E 61 80 3c 00
        E 0 80 48 00
        E 0 80 54 00
        E 0 80 60 00
        E 180 90 54 60
        E 0 90 60 60
        E 60 80 54 00
        E 0 80 60 00
        E 180 90 49 60
        E 0 90 55 60
        E 0 90 61 60
        E 120 80 49 00
        E 239 80 55 00
        E 60 80 61 00
        E 60 90 3d 60
        E 0 90 49 60
        E 0 90 55 60
        E 0 90 61 60
        E 61 80 3d 00
        E 0 80 49 00
        E 0 80 55 00
        E 0 80 61 00
        E 180 90 49 60
        E 0 90 55 60
        E 0 90 61 60
        E 60 80 49 00
        E 0 80 55 00
        E 0 80 61 00
        E 420 90 56 60
        E 0 90 62 60
        E 60 80 56 00
        E 0 80 62 00
        E 179 90 3e 60
        E 0 90 4a 60
        E 0 90 56 60
        E 0 90 62 60
        E 61 80 3e 00
        E 0 80 4a 00
        E 0 80 56 00
        E 0 80 62 00
        E 180 90 56 60
        E 0 90 62 60
        E 60 80 56 00
        E 0 80 62 00
        E 180 90 49 60
        E 0 90 55 60
        E 0 90 61 60
        E 120 80 49 00
        E 239 80 55 00
        E 60 80 61 00
        E 60 90 3d 60
        E 0 90 49 60
        E 0 90 55 60
        E 0 90 61 60
        E 61 80 3d 00
        E 0 80 49 00
        E 0 80 55 00
        E 0 80 61 00
        E 180 90 49 60
        E 0 90 55 60
        E 0 90 61 60
        E 60 80 49 00
        E 0 80 55 00
        E 0 80 61 00
        E 1140 90 3d 60
        E 0 90 49 60
        E 0 90 55 60
        E 0 90 61 60
        E 60 80 3d 00
        E 0 80 49 00
        E 0 80 55 00
        E 0 80 61 00
        E 180 90 49 60
        E 0 90 55 60
        E 0 90 61 60
        E 60 80 49 00
        E 0 80 55 00
        E 0 80 61 00
        E 180 90 3d 60
        E 0 90 49 60
        E 0 90 55 60
        E 0 90 61 60
        E 60 80 3d 00
        E 0 80 49 00
        E 0 80 55 00
        E 0 80 61 00
        E 180 90 55 60
        E 0 90 61 60
        E 60 80 55 00
        E 0 80 61 00
        E 180 90 4a 60
        E 0 90 56 60
        E 0 90 62 60
        E 60 80 4a 00
        E 0 80 56 00
        E 0 80 62 00
        E 180 90 56 60
        E 0 90 62 60
        E 60 80 56 00
        E 0 80 62 00
        E 179 90 3e 60
        E 0 90 4a 60
        E 0 90 56 60
        E 0 90 62 60
        E 1 90 74 60
        E 60 80 3e 00
        E 0 80 4a 00
        E 0 80 56 00
        E 0 80 62 00
        E 180 90 56 60
        E 0 90 62 60
        E 60 80 56 00
        E 0 80 62 00
        E 180 90 3d 60
        E 0 90 49 60
        E 0 90 55 60
        E 0 90 61 60
        E 60 80 3d 00
        E 0 80 49 00
        E 0 80 55 00
        E 0 80 61 00
        E 60 80 74 00
        E 120 90 49 60
        E 0 90 55 60
        E 0 90 61 60
        E 60 80 49 00
        E 0 80 55 00
        E 0 80 61 00
        E 180 90 3d 60
        E 0 90 49 60
        E 0 90 55 60
        E 0 90 61 60
        E 60 80 3d 00
        E 0 80 49 00
        E 0 80 55 00
        E 0 80 61 00
        E 180 90 49 60
        E 0 90 55 60
        E 0 90 61 60
        E 60 80 49 00
        E 0 80 55 00
        E 0 80 61 00
        E 180 90 3d 60
        E 0 90 49 60
        E 0 90 55 60
        E 0 90 61 60
        E 60 80 3d 00
        E 0 80 49 00
        E 0 80 55 00
        E 0 80 61 00
        E 180 90 49 60
        E 0 90 55 60
        E 0 90 61 60
        E 60 80 49 00
        E 0 80 55 00
        E 0 80 61 00
        E 180 90 3d 60
        E 0 90 49 60
        E 0 90 55 60
        E 0 90 61 60
        E 60 80 3d 00
        E 0 80 49 00
        E 0 80 55 00
        E 0 80 61 00
        E 180 90 55 60
        E 0 90 61 60
        E 60 80 55 00
        E 0 80 61 00
        E 180 90 48 60
        E 0 90 54 60
        E 0 90 60 60
        E 60 80 48 00
        E 0 80 54 00
        E 0 80 60 00
        E 180 90 48 60
        E 0 90 54 60
        E 0 90 60 60
        E 60 80 48 00
        E 0 80 54 00
        E 0 80 60 00
        E 180 90 3c 60
        E 0 90 48 60
        E 0 90 54 60
        E 0 90 60 60
        E 60 80 3c 00
        E 0 80 48 00
        E 0 80 54 00
        E 0 80 60 00
        E 180 90 48 60
        E 0 90 54 60
        E 0 90 60 60
        E 60 80 48 00
        E 0 80 54 00
        E 0 80 60 00
        E 180 90 3c 60
        E 0 90 48 60
        E 0 90 54 60
        E 0 90 60 60
        E 60 80 3c 00
        E 0 80 48 00
        E 0 80 54 00
        E 0 80 60 00
        E 180 90 48 60
        E 0 90 54 60
        E 0 90 60 60
        E 60 80 48 00
        E 0 80 54 00
        E 0 80 60 00
        E 180 90 3c 60
        E 0 90 48 60
        E 0 90 54 60
        E 0 90 60 60
        E 60 80 3c 00
        E 0 80 48 00
        E 0 80 54 00
        E 0 80 60 00
        E 180 90 48 60
        E 0 90 54 60
        E 0 90 60 60
        E 60 80 48 00
        E 0 80 54 00
        E 0 80 60 00
        E 180 90 3c 60
        E 0 90 48 60
        E 0 90 54 60
        E 0 90 60 60
        E 60 80 3c 00
        E 0 80 48 00
        E 0 80 54 00
        E 0 80 60 00
        E 180 90 48 60
        E 0 90 54 60
        E 0 90 60 60
        E 60 80 48 00
        E 0 80 54 00
        E 0 80 60 00
        E 180 90 3c 60
        E 0 90 48 60
        E 0 90 54 60
        E 0 90 60 60
        E 60 80 3c 00
        E 0 80 48 00
        E 0 80 54 00
        E 0 80 60 00
        E 180 90 48 60
        E 0 90 54 60
        E 0 90 60 60
        E 60 80 48 00
        E 0 80 54 00
        E 0 80 60 00
        E 180 90 3c 60
        E 0 90 48 60
        E 0 90 54 60
        E 0 90 60 60
        E 60 80 3c 00
        E 0 80 48 00
        E 0 80 54 00
        E 0 80 60 00
        E 180 90 48 60
        E 0 90 54 60
        E 0 90 60 60
        E 60 80 48 00
        E 0 80 54 00
        E 0 80 60 00
        E 180 90 3c 60
        E 0 90 48 60
        E 0 90 54 60
        E 0 90 60 60
        E 60 80 3c 00
        E 0 80 48 00
        E 0 80 54 00
        E 0 80 60 00
        E 180 90 54 60
        E 0 90 60 60
        E 60 80 54 00
        E 0 80 60 00
        E 180 90 49 60
        E 0 90 55 60
        E 0 90 61 60
        E 60 80 49 00
        E 0 80 55 00
        E 0 80 61 00
        E 180 90 49 60
        E 0 90 55 60
        E 0 90 61 60
        E 60 80 49 00
        E 0 80 55 00
        E 0 80 61 00
        E 180 90 3d 60
        E 0 90 49 60
        E 0 90 55 60
        E 0 90 61 60
        E 60 80 3d 00
        E 0 80 49 00
        E 0 80 55 00
        E 0 80 61 00
        E 180 90 55 60
        E 0 90 61 60
        E 60 80 55 00
        E 0 80 61 00
        E 180 90 4a 60
        E 0 90 56 60
        E 0 90 62 60
        E 60 80 4a 00
        E 0 80 56 00
        E 0 80 62 00
        E 180 90 56 60
        E 0 90 62 60
        E 60 80 56 00
        E 0 80 62 00
        E 179 90 3e 60
        E 0 90 4a 60
        E 0 90 56 60
        E 0 90 62 60
        E 61 80 3e 00
        E 0 80 4a 00
        E 0 80 56 00
        E 0 80 62 00
        E 180 90 56 60
        E 0 90 62 60
        E 60 80 56 00
        E 0 80 62 00
        E 180 90 49 60
        E 0 90 55 60
        E 0 90 61 60
        E 60 80 49 00
        E 0 80 55 00
        E 0 80 61 00
        E 180 90 49 60
        E 0 90 55 60
        E 0 90 61 60
        E 60 80 49 00
        E 0 80 55 00
        E 0 80 61 00
        E 180 90 3d 60
        E 0 90 49 60
        E 0 90 55 60
        E 0 90 61 60
        E 60 80 3d 00
        E 0 80 49 00
        E 0 80 55 00
        E 0 80 61 00
        E 180 90 49 60
        E 0 90 55 60
        E 0 90 61 60
        E 60 80 49 00
        E 0 80 55 00
        E 0 80 61 00
        E 180 90 3d 60
        E 0 90 49 60
        E 0 90 55 60
        E 0 90 61 60
        E 60 80 3d 00
        E 0 80 49 00
        E 0 80 55 00
        E 0 80 61 00
        E 180 90 49 60
        E 0 90 55 60
        E 0 90 61 60
        E 60 80 49 00
        E 0 80 55 00
        E 0 80 61 00
        E 180 90 3d 60
        E 0 90 49 60
        E 0 90 55 60
        E 0 90 61 60
        E 60 80 3d 00
        E 0 80 49 00
        E 0 80 55 00
        E 0 80 61 00
        E 180 90 55 60
        E 0 90 61 60
        E 60 80 55 00
        E 0 80 61 00
        E 180 90 48 60
        E 0 90 54 60
        E 0 90 60 60
        E 60 80 48 00
        E 0 80 54 00
        E 0 80 60 00
        E 180 90 48 60
        E 0 90 54 60
        E 0 90 60 60
        E 60 80 48 00
        E 0 80 54 00
        E 0 80 60 00
        E 180 90 3c 60
        E 0 90 48 60
        E 0 90 54 60
        E 0 90 60 60
        E 60 80 3c 00
        E 0 80 48 00
        E 0 80 54 00
        E 0 80 60 00
        E 180 90 48 60
        E 0 90 54 60
        E 0 90 60 60
        E 60 80 48 00
        E 0 80 54 00
        E 0 80 60 00
        E 180 90 3c 60
        E 0 90 48 60
        E 0 90 54 60
        E 0 90 60 60
        E 60 80 3c 00
        E 0 80 48 00
        E 0 80 54 00
        E 0 80 60 00
        E 180 90 48 60
        E 0 90 54 60
        E 0 90 60 60
        E 60 80 48 00
        E 0 80 54 00
        E 0 80 60 00
        E 180 90 3c 60
        E 0 90 48 60
        E 0 90 54 60
        E 0 90 60 60
        E 60 80 3c 00
        E 0 80 48 00
        E 0 80 54 00
        E 0 80 60 00
        E 180 90 48 60
        E 0 90 54 60
        E 0 90 60 60
        E 60 80 48 00
        E 0 80 54 00
        E 0 80 60 00
        E 180 90 3c 60
        E 0 90 48 60
        E 0 90 54 60
        E 0 90 60 60
        E 60 80 3c 00
        E 0 80 48 00
        E 0 80 54 00
        E 0 80 60 00
        E 180 90 48 60
        E 0 90 54 60
        E 0 90 60 60
        E 60 80 48 00
        E 0 80 54 00
        E 0 80 60 00
        E 180 90 3c 60
        E 0 90 48 60
        E 0 90 54 60
        E 0 90 60 60
        E 60 80 3c 00
        E 0 80 48 00
        E 0 80 54 00
        E 0 80 60 00
        E 180 90 74 60
        E 0 90 48 60
        E 0 90 54 60
        E 0 90 60 60
        E 60 80 48 00
        E 0 80 54 00
        E 0 80 60 00
        E 180 90 3c 60
        E 0 90 48 60
        E 0 90 54 60
        E 0 90 60 60
        E 60 80 3c 00
        E 0 80 48 00
        E 0 80 54 00
        E 0 80 60 00
        E 180 90 48 60
        E 0 90 54 60
        E 0 90 60 60
        E 60 80 48 00
        E 0 80 54 00
        E 0 80 60 00
        E 180 90 3c 60
        E 0 90 48 60
        E 0 90 54 60
        E 0 90 60 60
        E 60 80 3c 00
        E 0 80 48 00
        E 0 80 54 00
        E 0 80 60 00
        E 180 90 48 60
        E 0 90 54 60
        E 0 90 60 60
        E 60 80 48 00
        E 0 80 54 00
        E 0 80 60 00
        E 180 80 74 00
        <X 300 0
          /wFbaWRsZV0=
        >
        <X 14580 0
          /wFbcGxheV0=
        >
        E 480 90 3d 60
        E 0 90 49 60
        E 0 90 55 60
        E 0 90 61 60
        E 60 80 3d 00
        E 0 80 49 00
        E 0 80 55 00
        E 0 80 61 00
        E 180 90 49 60
        E 0 90 55 60
        E 0 90 61 60
        E 60 80 49 00
        E 0 80 55 00
        E 0 80 61 00
        E 180 90 3d 60
        E 0 90 49 60
        E 0 90 55 60
        E 0 90 61 60
        E 60 80 3d 00
        E 0 80 49 00
        E 0 80 55 00
        E 0 80 61 00
        E 180 90 55 60
        E 0 90 61 60
        E 60 80 55 00
        E 0 80 61 00
        E 180 90 74 60
        E 0 90 4a 60
        E 0 90 56 60
        E 0 90 62 60
        E 60 80 4a 00
        E 0 80 56 00
        E 0 80 62 00
        E 180 90 56 60
        E 0 90 62 60
        E 60 80 56 00
        E 0 80 62 00
        E 179 90 3e 60
        E 0 90 4a 60
        E 0 90 56 60
        E 0 90 62 60
        E 61 80 3e 00
        E 0 80 4a 00
        E 0 80 56 00
        E 0 80 62 00
        E 180 90 56 60
        E 0 90 62 60
        E 60 80 56 00
        E 0 80 62 00
        E 20 80 74 00
        E 160 90 49 60
        E 0 90 55 60
        E 0 90 61 60
        E 60 80 49 00
        E 0 80 55 00
        E 0 80 61 00
        E 180 90 49 60
        E 0 90 55 60
        E 0 90 61 60
        E 60 80 49 00
        E 0 80 55 00
        E 0 80 61 00
        E 180 90 3d 60
        E 0 90 49 60
        E 0 90 55 60
        E 0 90 61 60
        E 60 80 3d 00
        E 0 80 49 00
        E 0 80 55 00
        E 0 80 61 00
        E 180 90 49 60
        E 0 90 55 60
        E 0 90 61 60
        E 60 80 49 00
        E 0 80 55 00
        E 0 80 61 00
        E 180 90 3d 60
        E 0 90 49 60
        E 0 90 55 60
        E 0 90 61 60
        E 60 80 3d 00
        E 0 80 49 00
        E 0 80 55 00
        E 0 80 61 00
        E 180 90 49 60
        E 0 90 55 60
        E 0 90 61 60
        E 60 80 49 00
        E 0 80 55 00
        E 0 80 61 00
        E 180 90 3d 60
        E 0 90 49 60
        E 0 90 55 60
        E 0 90 61 60
        E 60 80 3d 00
        E 0 80 49 00
        E 0 80 55 00
        E 0 80 61 00
        E 180 90 55 60
        E 0 90 61 60
        E 60 80 55 00
        E 0 80 61 00
        E 180 90 48 60
        E 0 90 54 60
        E 0 90 60 60
        E 60 80 48 00
        E 0 80 54 00
        E 0 80 60 00
        E 180 90 48 60
        E 0 90 54 60
        E 0 90 60 60
        E 60 80 48 00
        E 0 80 54 00
        E 0 80 60 00
        E 180 90 3c 60
        E 0 90 48 60
        E 0 90 54 60
        E 0 90 60 60
        E 60 80 3c 00
        E 0 80 48 00
        E 0 80 54 00
        E 0 80 60 00
        E 180 90 48 60
        E 0 90 54 60
        E 0 90 60 60
        E 60 80 48 00
        E 0 80 54 00
        E 0 80 60 00
        E 180 90 3c 60
        E 0 90 48 60
        E 0 90 54 60
        E 0 90 60 60
        E 60 80 3c 00
        E 0 80 48 00
        E 0 80 54 00
        E 0 80 60 00
        E 180 90 48 60
        E 0 90 54 60
        E 0 90 60 60
        E 60 80 48 00
        E 0 80 54 00
        E 0 80 60 00
        E 180 90 3c 60
        E 0 90 48 60
        E 0 90 54 60
        E 0 90 60 60
        E 60 80 3c 00
        E 0 80 48 00
        E 0 80 54 00
        E 0 80 60 00
        E 180 90 48 60
        E 0 90 54 60
        E 0 90 60 60
        E 60 80 48 00
        E 0 80 54 00
        E 0 80 60 00
        E 180 90 3c 60
        E 0 90 48 60
        E 0 90 54 60
        E 0 90 60 60
        E 60 80 3c 00
        E 0 80 48 00
        E 0 80 54 00
        E 0 80 60 00
        E 180 90 48 60
        E 0 90 54 60
        E 0 90 60 60
        E 60 80 48 00
        E 0 80 54 00
        E 0 80 60 00
        E 180 90 3c 60
        E 0 90 48 60
        E 0 90 54 60
        E 0 90 60 60
        E 60 80 3c 00
        E 0 80 48 00
        E 0 80 54 00
        E 0 80 60 00
        E 180 90 48 60
        E 0 90 54 60
        E 0 90 60 60
        E 60 80 48 00
        E 0 80 54 00
        E 0 80 60 00
        E 180 90 3c 60
        E 0 90 48 60
        E 0 90 54 60
        E 0 90 60 60
        E 60 80 3c 00
        E 0 80 48 00
        E 0 80 54 00
        E 0 80 60 00
        E 180 90 48 60
        E 0 90 54 60
        E 0 90 60 60
        E 60 80 48 00
        E 0 80 54 00
        E 0 80 60 00
        E 180 90 3c 60
        E 0 90 48 60
        E 0 90 54 60
        E 0 90 60 60
        E 60 80 3c 00
        E 0 80 48 00
        E 0 80 54 00
        E 0 80 60 00
        E 180 90 54 60
        E 0 90 60 60
        E 60 80 54 00
        E 0 80 60 00
        E 180 90 49 60
        E 0 90 55 60
        E 0 90 61 60
        E 60 80 49 00
        E 0 80 55 00
        E 0 80 61 00
        E 180 90 49 60
        E 0 90 55 60
        E 0 90 61 60
        E 60 80 49 00
        E 0 80 55 00
        E 0 80 61 00
        E 180 90 3d 60
        E 0 90 49 60
        E 0 90 55 60
        E 0 90 61 60
        E 60 80 3d 00
        E 0 80 49 00
        E 0 80 55 00
        E 0 80 61 00
        E 180 90 55 60
        E 0 90 61 60
        E 60 80 55 00
        E 0 80 61 00
        E 180 90 4a 60
        E 0 90 56 60
        E 0 90 62 60
        E 60 80 4a 00
        E 0 80 56 00
        E 0 80 62 00
        E 180 90 56 60
        E 0 90 62 60
        E 60 80 56 00
        E 0 80 62 00
        E 179 90 3e 60
        E 0 90 4a 60
        E 0 90 56 60
        E 0 90 62 60
        E 61 80 3e 00
        E 0 80 4a 00
        E 0 80 56 00
        E 0 80 62 00
        E 180 90 56 60
        E 0 90 62 60
        E 60 80 56 00
        E 0 80 62 00
        E 180 90 49 60
        E 0 90 55 60
        E 0 90 61 60
        E 60 80 49 00
        E 0 80 55 00
        E 0 80 61 00
        E 180 90 49 60
        E 0 90 55 60
        E 0 90 61 60
        E 60 80 49 00
        E 0 80 55 00
        E 0 80 61 00
        E 180 90 3d 60
        E 0 90 49 60
        E 0 90 55 60
        E 0 90 61 60
        E 60 80 3d 00
        E 0 80 49 00
        E 0 80 55 00
        E 0 80 61 00
        E 180 90 49 60
        E 0 90 55 60
        E 0 90 61 60
        E 60 80 49 00
        E 0 80 55 00
        E 0 80 61 00
        E 180 90 3d 60
        E 0 90 49 60
        E 0 90 55 60
        E 0 90 61 60
        E 60 80 3d 00
        E 0 80 49 00
        E 0 80 55 00
        E 0 80 61 00
        E 180 90 49 60
        E 0 90 55 60
        E 0 90 61 60
        E 60 80 49 00
        E 0 80 55 00
        E 0 80 61 00
        E 180 90 3d 60
        E 0 90 49 60
        E 0 90 55 60
        E 0 90 61 60
        E 60 80 3d 00
        E 0 80 49 00
        E 0 80 55 00
        E 0 80 61 00
        E 180 90 55 60
        E 0 90 61 60
        E 60 80 55 00
        E 0 80 61 00
        E 180 90 48 60
        E 0 90 54 60
        E 0 90 60 60
        E 60 80 48 00
        E 0 80 54 00
        E 0 80 60 00
        E 180 90 48 60
        E 0 90 54 60
        E 0 90 60 60
        E 60 80 48 00
        E 0 80 54 00
        E 0 80 60 00
        E 180 90 3c 60
        E 0 90 48 60
        E 0 90 54 60
        E 0 90 60 60
        E 60 80 3c 00
        E 0 80 48 00
        E 0 80 54 00
        E 0 80 60 00
        E 180 90 48 60
        E 0 90 54 60
        E 0 90 60 60
        E 60 80 48 00
        E 0 80 54 00
        E 0 80 60 00
        E 180 90 3c 60
        E 0 90 48 60
        E 0 90 54 60
        E 0 90 60 60
        E 60 80 3c 00
        E 0 80 48 00
        E 0 80 54 00
        E 0 80 60 00
        E 180 90 48 60
        E 0 90 54 60
        E 0 90 60 60
        E 60 80 48 00
        E 0 80 54 00
        E 0 80 60 00
        E 180 90 3c 60
        E 0 90 48 60
        E 0 90 54 60
        E 0 90 60 60
        E 60 80 3c 00
        E 0 80 48 00
        E 0 80 54 00
        E 0 80 60 00
        E 180 90 48 60
        E 0 90 54 60
        E 0 90 60 60
        E 60 80 48 00
        E 0 80 54 00
        E 0 80 60 00
        E 180 90 3c 60
        E 0 90 48 60
        E 0 90 54 60
        E 0 90 60 60
        E 60 80 3c 00
        E 0 80 48 00
        E 0 80 54 00
        E 0 80 60 00
        E 180 90 48 60
        E 0 90 54 60
        E 0 90 60 60
        E 60 80 48 00
        E 0 80 54 00
        E 0 80 60 00
        E 180 90 3c 60
        E 0 90 48 60
        E 0 90 54 60
        E 0 90 60 60
        E 60 80 3c 00
        E 0 80 48 00
        E 0 80 54 00
        E 0 80 60 00
        E 180 90 48 60
        E 0 90 54 60
        E 0 90 60 60
        E 60 80 48 00
        E 0 80 54 00
        E 0 80 60 00
        E 180 90 3c 60
        E 0 90 48 60
        E 0 90 54 60
        E 0 90 60 60
        E 60 80 3c 00
        E 0 80 48 00
        E 0 80 54 00
        E 0 80 60 00
        E 180 90 48 60
        E 0 90 54 60
        E 0 90 60 60
        E 60 80 48 00
        E 0 80 54 00
        E 0 80 60 00
        E 180 90 3c 60
        E 0 90 48 60
        E 0 90 54 60
        E 0 90 60 60
        E 60 80 3c 00
        E 0 80 48 00
        E 0 80 54 00
        E 0 80 60 00
        E 180 90 54 60
        E 0 90 60 60
        E 60 80 54 00
        E 0 80 60 00
        E 180 90 49 60
        E 0 90 55 60
        E 0 90 61 60
        E 60 80 49 00
        E 0 80 55 00
        E 0 80 61 00
        E 180 90 49 60
        E 0 90 55 60
        E 0 90 61 60
        E 60 80 49 00
        E 0 80 55 00
        E 0 80 61 00
        E 180 90 3d 60
        E 0 90 49 60
        E 0 90 55 60
        E 0 90 61 60
        E 60 80 3d 00
        E 0 80 49 00
        E 0 80 55 00
        E 0 80 61 00
        E 180 90 55 60
        E 0 90 61 60
        E 60 80 55 00
        E 0 80 61 00
        E 180 90 4a 60
        E 0 90 56 60
        E 0 90 62 60
        E 60 80 4a 00
        E 0 80 56 00
        E 0 80 62 00
        E 180 90 56 60
        E 0 90 62 60
        E 60 80 56 00
        E 0 80 62 00
        E 179 90 3e 60
        E 0 90 4a 60
        E 0 90 56 60
        E 0 90 62 60
        E 61 80 3e 00
        E 0 80 4a 00
        E 0 80 56 00
        E 0 80 62 00
        E 180 90 56 60
        E 0 90 62 60
        E 60 80 56 00
        E 0 80 62 00
        E 180 90 49 60
        E 0 90 55 60
        E 0 90 61 60
        E 60 80 49 00
        E 0 80 55 00
        E 0 80 61 00
        E 180 90 55 60
        E 0 90 61 60
        E 60 80 55 00
        E 0 80 61 00
        E 179 90 3d 60
        E 0 90 49 60
        E 0 90 55 60
        E 0 90 61 60
        E 61 80 3d 00
        E 0 80 49 00
        E 0 80 55 00
        E 0 80 61 00
        E 180 90 55 60
        E 0 90 61 60
        E 60 80 55 00
        E 0 80 61 00
        E 180 90 48 60
        E 0 90 54 60
        E 0 90 60 60
        E 60 80 48 00
        E 0 80 54 00
        E 0 80 60 00
        E 180 90 54 60
        E 0 90 60 60
        E 60 80 54 00
        E 0 80 60 00
        E 179 90 3c 60
        E 0 90 48 60
        E 0 90 54 60
        E 0 90 60 60
        E 1 90 74 60
        E 60 80 3c 00
        E 0 80 48 00
        E 0 80 54 00
        E 0 80 60 00
        E 180 90 54 60
        E 0 90 60 60
        E 60 80 54 00
        E 0 80 60 00
        E 180 90 49 60
        E 0 90 55 60
        E 0 90 61 60
        E 120 80 49 00
        E 239 80 55 00
        E 61 80 61 00
        E 59 90 3d 60
        E 0 90 49 60
        E 0 90 55 60
        E 0 90 61 60
        E 61 80 3d 00
        E 0 80 49 00
        E 0 80 55 00
        E 0 80 61 00
        E 180 90 49 60
        E 0 90 55 60
        E 0 90 61 60
        E 60 80 49 00
        E 0 80 55 00
        E 0 80 61 00
        E 20 80 74 00
        E 400 90 56 60
        E 0 90 62 60
        E 60 80 56 00
        E 0 80 62 00
        E 179 90 3e 60
        E 0 90 4a 60
        E 0 90 56 60
        E 0 90 62 60
        E 61 80 3e 00
        E 0 80 4a 00
        E 0 80 56 00
        E 0 80 62 00
        E 180 90 56 60
        E 0 90 62 60
        E 60 80 56 00
        E 0 80 62 00
        E 180 90 49 60
        E 0 90 55 60
        E 0 90 61 60
        E 120 80 49 00
        E 239 80 55 00
        E 61 80 61 00
        E 59 90 3d 60
        E 0 90 49 60
        E 0 90 55 60
        E 0 90 61 60
        E 61 80 3d 00
        E 0 80 49 00
        E 0 80 55 00
        E 0 80 61 00
        E 180 90 49 60
        E 0 90 55 60
        E 0 90 61 60
        E 60 80 49 00
        E 0 80 55 00
        E 0 80 61 00
        E 420 90 54 60
        E 0 90 60 60
        E 60 80 54 00
        E 0 80 60 00
        E 179 90 3c 60
        E 0 90 48 60
        E 0 90 54 60
        E 0 90 60 60
        E 61 80 3c 00
        E 0 80 48 00
        E 0 80 54 00
        E 0 80 60 00
        E 180 90 54 60
        E 0 90 60 60
        E 60 80 54 00
        E 0 80 60 00
        E 180 90 49 60
        E 0 90 55 60
        E 0 90 61 60
        E 60 80 49 00
        E 0 80 55 00
        E 0 80 61 00
        E 180 90 49 60
        E 0 90 55 60
        E 0 90 61 60
        E 60 80 49 00
        E 0 80 55 00
        E 0 80 61 00
        E 180 90 3d 60
        E 0 90 49 60
        E 0 90 55 60
        E 0 90 61 60
        E 60 80 3d 00
        E 0 80 49 00
        E 0 80 55 00
        E 0 80 61 00
        E 180 90 55 60
        E 0 90 61 60
        E 60 80 55 00
        E 0 80 61 00
        E 180 90 4a 60
        E 0 90 56 60
        E 0 90 62 60
        E 60 80 4a 00
        E 0 80 56 00
        E 0 80 62 00
        E 180 90 56 60
        E 0 90 62 60
        E 60 80 56 00
        E 0 80 62 00
        E 179 90 3e 60
        E 0 90 4a 60
        E 0 90 56 60
        E 0 90 62 60
        E 61 80 3e 00
        E 0 80 4a 00
        E 0 80 56 00
        E 0 80 62 00
        E 180 90 56 60
        E 0 90 62 60
        E 60 80 56 00
        E 0 80 62 00
        E 180 90 49 60
        E 0 90 55 60
        E 0 90 61 60
        E 60 80 49 00
        E 0 80 55 00
        E 0 80 61 00
        E 180 90 55 60
        E 0 90 61 60
        E 60 80 55 00
        E 0 80 61 00
        E 179 90 3d 60
        E 0 90 49 60
        E 0 90 55 60
        E 0 90 61 60
        E 61 80 3d 00
        E 0 80 49 00
        E 0 80 55 00
        E 0 80 61 00
        E 180 90 55 60
        E 0 90 61 60
        E 60 80 55 00
        E 0 80 61 00
        E 180 90 48 60
        E 0 90 54 60
        E 0 90 60 60
        E 60 80 48 00
        E 0 80 54 00
        E 0 80 60 00
        E 180 90 54 60
        E 0 90 60 60
        E 60 80 54 00
        E 0 80 60 00
        E 179 90 3c 60
        E 0 90 48 60
        E 0 90 54 60
        E 0 90 60 60
        E 61 80 3c 00
        E 0 80 48 00
        E 0 80 54 00
        E 0 80 60 00
        E 180 90 54 60
        E 0 90 60 60
        E 60 80 54 00
        E 0 80 60 00
        E 180 90 49 60
        E 0 90 55 60
        E 0 90 61 60
        E 120 80 49 00
        E 239 80 55 00
        E 60 80 61 00
        E 60 90 3d 60
        E 0 90 49 60
        E 0 90 55 60
        E 0 90 61 60
        E 61 80 3d 00
        E 0 80 49 00
        E 0 80 55 00
        E 0 80 61 00
        E 180 90 49 60
        E 0 90 55 60
        E 0 90 61 60
        E 60 80 49 00
        E 0 80 55 00
        E 0 80 61 00
        E 420 90 56 60
        E 0 90 62 60
        E 60 80 56 00
        E 0 80 62 00
        E 179 90 3e 60
        E 0 90 4a 60
        E 0 90 56 60
        E 0 90 62 60
        E 61 80 3e 00
        E 0 80 4a 00
        E 0 80 56 00
        E 0 80 62 00
        E 180 90 56 60
        E 0 90 62 60
        E 60 80 56 00
        E 0 80 62 00
        E 180 90 49 60
        E 0 90 55 60
        E 0 90 61 60
        E 120 80 49 00
        E 239 80 55 00
        E 60 80 61 00
        E 60 90 3d 60
        E 0 90 49 60
        E 0 90 55 60
        E 0 90 61 60
        E 61 80 3d 00
        E 0 80 49 00
        E 0 80 55 00
        E 0 80 61 00
        E 180 90 49 60
        E 0 90 55 60
        E 0 90 61 60
        E 60 80 49 00
        E 0 80 55 00
        E 0 80 61 00
        E 420 90 54 60
        E 0 90 60 60
        E 60 80 54 00
        E 0 80 60 00
        E 179 90 3c 60
        E 0 90 48 60
        E 0 90 54 60
        E 0 90 60 60
        E 61 80 3c 00
        E 0 80 48 00
        E 0 80 54 00
        E 0 80 60 00
        E 180 90 54 60
        E 0 90 60 60
        E 60 80 54 00
        E 0 80 60 00
        E 180 90 49 60
        E 0 90 55 60
        E 0 90 61 60
        E 60 80 49 00
        E 0 80 55 00
        E 0 80 61 00
        E 180 90 49 60
        E 0 90 55 60
        E 0 90 61 60
        E 60 80 49 00
        E 0 80 55 00
        E 0 80 61 00
        E 180 90 3d 60
        E 0 90 49 60
        E 0 90 55 60
        E 0 90 61 60
        E 60 80 3d 00
        E 0 80 49 00
        E 0 80 55 00
        E 0 80 61 00
        E 180 90 55 60
        E 0 90 61 60
        E 60 80 55 00
        E 0 80 61 00
        E 180 90 4a 60
        E 0 90 56 60
        E 0 90 62 60
        E 60 80 4a 00
        E 0 80 56 00
        E 0 80 62 00
        E 180 90 56 60
        E 0 90 62 60
        E 60 80 56 00
        E 0 80 62 00
        E 171 90 74 60
        E 8 90 3e 60
        E 0 90 4a 60
        E 0 90 56 60
        E 0 90 62 60
        E 61 80 3e 00
        E 0 80 4a 00
        E 0 80 56 00
        E 0 80 62 00
        E 180 90 56 60
        E 0 90 62 60
        E 60 80 56 00
        E 0 80 62 00
        E 180 90 49 60
        E 0 90 55 60
        E 0 90 61 60
        E 60 80 49 00
        E 0 80 55 00
        E 0 80 61 00
        E 51 80 74 00
        E 129 90 49 60
        E 0 90 55 60
        E 0 90 61 60
        E 60 80 49 00
        E 0 80 55 00
        E 0 80 61 00
        E 180 90 3d 60
        E 0 90 49 60
        E 0 90 55 60
        E 0 90 61 60
        E 60 80 3d 00
        E 0 80 49 00
        E 0 80 55 00
        E 0 80 61 00
        E 180 90 49 60
        E 0 90 55 60
        E 0 90 61 60
        E 60 80 49 00
        E 0 80 55 00
        E 0 80 61 00
        E 180 90 3d 60
        E 0 90 49 60
        E 0 90 55 60
        E 0 90 61 60
        E 60 80 3d 00
        E 0 80 49 00
        E 0 80 55 00
        E 0 80 61 00
        E 180 90 49 60
        E 0 90 55 60
        E 0 90 61 60
        E 60 80 49 00
        E 0 80 55 00
        E 0 80 61 00
        E 180 90 3d 60
        E 0 90 49 60
        E 0 90 55 60
        E 0 90 61 60
        E 60 80 3d 00
        E 0 80 49 00
        E 0 80 55 00
        E 0 80 61 00
        E 180 90 55 60
        E 0 90 61 60
        E 60 80 55 00
        E 0 80 61 00
        E 180 90 48 60
        E 0 90 54 60
        E 0 90 60 60
        E 60 80 48 00
        E 0 80 54 00
        E 0 80 60 00
        E 180 90 48 60
        E 0 90 54 60
        E 0 90 60 60
        E 60 80 48 00
        E 0 80 54 00
        E 0 80 60 00
        E 180 90 3c 60
        E 0 90 48 60
        E 0 90 54 60
        E 0 90 60 60
        E 60 80 3c 00
        E 0 80 48 00
        E 0 80 54 00
        E 0 80 60 00
        E 180 90 48 60
        E 0 90 54 60
        E 0 90 60 60
        E 60 80 48 00
        E 0 80 54 00
        E 0 80 60 00
        E 180 90 3c 60
        E 0 90 48 60
        E 0 90 54 60
        E 0 90 60 60
        E 60 80 3c 00
        E 0 80 48 00
        E 0 80 54 00
        E 0 80 60 00
        E 180 90 48 60
        E 0 90 54 60
        E 0 90 60 60
        E 60 80 48 00
        E 0 80 54 00
        E 0 80 60 00
        E 180 90 3c 60
        E 0 90 48 60
        E 0 90 54 60
        E 0 90 60 60
        E 60 80 3c 00
        E 0 80 48 00
        E 0 80 54 00
        E 0 80 60 00
        E 180 90 48 60
        E 0 90 54 60
        E 0 90 60 60
        E 60 80 48 00
        E 0 80 54 00
        E 0 80 60 00
        E 180 90 3c 60
        E 0 90 48 60
        E 0 90 54 60
        E 0 90 60 60
        E 60 80 3c 00
        E 0 80 48 00
        E 0 80 54 00
        E 0 80 60 00
        E 180 90 48 60
        E 0 90 54 60
        E 0 90 60 60
        E 60 80 48 00
        E 0 80 54 00
        E 0 80 60 00
        E 180 90 3c 60
        E 0 90 48 60
        E 0 90 54 60
        E 0 90 60 60
        E 60 80 3c 00
        E 0 80 48 00
        E 0 80 54 00
        E 0 80 60 00
        E 180 90 48 60
        E 0 90 54 60
        E 0 90 60 60
        E 60 80 48 00
        E 0 80 54 00
        E 0 80 60 00
        E 180 90 3c 60
        E 0 90 48 60
        E 0 90 54 60
        E 0 90 60 60
        E 60 80 3c 00
        E 0 80 48 00
        E 0 80 54 00
        E 0 80 60 00
        E 180 90 48 60
        E 0 90 54 60
        E 0 90 60 60
        E 60 80 48 00
        E 0 80 54 00
        E 0 80 60 00
        E 180 90 3c 60
        E 0 90 48 60
        E 0 90 54 60
        E 0 90 60 60
        E 60 80 3c 00
        E 0 80 48 00
        E 0 80 54 00
        E 0 80 60 00
        E 180 90 54 60
        E 0 90 60 60
        E 60 80 54 00
        E 0 80 60 00
        E 180 90 49 60
        E 0 90 55 60
        E 0 90 61 60
        E 60 80 49 00
        E 0 80 55 00
        E 0 80 61 00
        E 180 90 49 60
        E 0 90 55 60
        E 0 90 61 60
        E 60 80 49 00
        E 0 80 55 00
        E 0 80 61 00
        E 180 90 3d 60
        E 0 90 49 60
        E 0 90 55 60
        E 0 90 61 60
        E 60 80 3d 00
        E 0 80 49 00
        E 0 80 55 00
        E 0 80 61 00
        E 180 90 55 60
        E 0 90 61 60
        E 60 80 55 00
        E 0 80 61 00
        E 180 90 4a 60
        E 0 90 56 60
        E 0 90 62 60
        E 60 80 4a 00
        E 0 80 56 00
        E 0 80 62 00
        E 180 90 56 60
        E 0 90 62 60
        E 60 80 56 00
        E 0 80 62 00
        E 179 90 3e 60
        E 0 90 4a 60
        E 0 90 56 60
        E 0 90 62 60
        E 61 80 3e 00
        E 0 80 4a 00
        E 0 80 56 00
        E 0 80 62 00
        E 180 90 56 60
        E 0 90 62 60
        E 60 80 56 00
        E 0 80 62 00
        E 180 90 49 60
        E 0 90 55 60
        E 0 90 61 60
        E 60 80 49 00
        E 0 80 55 00
        E 0 80 61 00
        E 180 90 49 60
        E 0 90 55 60
        E 0 90 61 60
        E 60 80 49 00
        E 0 80 55 00
        E 0 80 61 00
        E 180 90 3d 60
        E 0 90 49 60
        E 0 90 55 60
        E 0 90 61 60
        E 60 80 3d 00
        E 0 80 49 00
        E 0 80 55 00
        E 0 80 61 00
        E 180 90 49 60
        E 0 90 55 60
        E 0 90 61 60
        E 60 80 49 00
        E 0 80 55 00
        E 0 80 61 00
        E 180 90 3d 60
        E 0 90 49 60
        E 0 90 55 60
        E 0 90 61 60
        E 60 80 3d 00
        E 0 80 49 00
        E 0 80 55 00
        E 0 80 61 00
        E 180 90 49 60
        E 0 90 55 60
        E 0 90 61 60
        E 60 80 49 00
        E 0 80 55 00
        E 0 80 61 00
        E 180 90 3d 60
        E 0 90 49 60
        E 0 90 55 60
        E 0 90 61 60
        E 60 80 3d 00
        E 0 80 49 00
        E 0 80 55 00
        E 0 80 61 00
        E 180 90 55 60
        E 0 90 61 60
        E 60 80 55 00
        E 0 80 61 00
        E 180 90 48 60
        E 0 90 54 60
        E 0 90 60 60
        E 60 80 48 00
        E 0 80 54 00
        E 0 80 60 00
        E 180 90 48 60
        E 0 90 54 60
        E 0 90 60 60
        E 60 80 48 00
        E 0 80 54 00
        E 0 80 60 00
        E 180 90 3c 60
        E 0 90 48 60
        E 0 90 54 60
        E 0 90 60 60
        E 60 80 3c 00
        E 0 80 48 00
        E 0 80 54 00
        E 0 80 60 00
        E 180 90 48 60
        E 0 90 54 60
        E 0 90 60 60
        E 60 80 48 00
        E 0 80 54 00
        E 0 80 60 00
        E 180 90 3c 60
        E 0 90 48 60
        E 0 90 54 60
        E 0 90 60 60
        E 60 80 3c 00
        E 0 80 48 00
        E 0 80 54 00
        E 0 80 60 00
        E 180 90 48 60
        E 0 90 54 60
        E 0 90 60 60
        E 60 80 48 00
        E 0 80 54 00
        E 0 80 60 00
        E 180 90 3c 60
        E 0 90 48 60
        E 0 90 54 60
        E 0 90 60 60
        E 60 80 3c 00
        E 0 80 48 00
        E 0 80 54 00
        E 0 80 60 00
        E 180 90 48 60
        E 0 90 54 60
        E 0 90 60 60
        E 60 80 48 00
        E 0 80 54 00
        E 0 80 60 00
        E 180 90 3c 60
        E 0 90 48 60
        E 0 90 54 60
        E 0 90 60 60
        E 60 80 3c 00
        E 0 80 48 00
        E 0 80 54 00
        E 0 80 60 00
        E 180 90 48 60
        E 0 90 54 60
        E 0 90 60 60
        E 60 80 48 00
        E 0 80 54 00
        E 0 80 60 00
        E 180 90 3c 60
        E 0 90 48 60
        E 0 90 54 60
        E 0 90 60 60
        E 60 80 3c 00
        E 0 80 48 00
        E 0 80 54 00
        E 0 80 60 00
        E 180 90 48 60
        E 0 90 54 60
        E 0 90 60 60
        E 60 80 48 00
        E 0 80 54 00
        E 0 80 60 00
        E 180 90 3c 60
        E 0 90 48 60
        E 0 90 54 60
        E 0 90 60 60
        E 0 90 74 60
        E 60 80 3c 00
        E 0 80 48 00
        E 0 80 54 00
        E 0 80 60 00
        E 180 90 48 60
        E 0 90 54 60
        E 0 90 60 60
        E 60 80 48 00
        E 0 80 54 00
        E 0 80 60 00
        E 180 90 3c 60
        E 0 90 48 60
        E 0 90 54 60
        E 0 90 60 60
        E 60 80 3c 00
        E 0 80 48 00
        E 0 80 54 00
        E 0 80 60 00
        E 180 90 54 60
        E 0 90 60 60
        E 60 80 54 00
        E 0 80 60 00
        E 180 80 74 00
        E 0 90 49 60
        E 0 90 55 60
        E 0 90 61 60
        E 60 80 49 00
        E 0 80 55 00
        E 0 80 61 00
        E 180 90 49 60
        E 0 90 55 60
        E 0 90 61 60
        E 60 80 49 00
        E 0 80 55 00
        E 0 80 61 00
        E 180 90 3d 60
        E 0 90 49 60
        E 0 90 55 60
        E 0 90 61 60
        E 60 80 3d 00
        E 0 80 49 00
        E 0 80 55 00
        E 0 80 61 00
        E 180 90 55 60
        E 0 90 61 60
        E 60 80 55 00
        E 0 80 61 00
        E 180 90 4a 60
        E 0 90 56 60
        E 0 90 62 60
        E 60 80 4a 00
        E 0 80 56 00
        E 0 80 62 00
        E 180 90 56 60
        E 0 90 62 60
        E 60 80 56 00
        E 0 80 62 00
        E 179 90 3e 60
        E 0 90 4a 60
        E 0 90 56 60
        E 0 90 62 60
        E 61 80 3e 00
        E 0 80 4a 00
        E 0 80 56 00
        E 0 80 62 00
        E 180 90 56 60
        E 0 90 62 60
        E 60 80 56 00
        E 0 80 62 00
        E 180 90 49 60
        E 0 90 55 60
        E 0 90 61 60
        E 60 80 49 00
        E 0 80 55 00
        E 0 80 61 00
        E 180 90 49 60
        E 0 90 55 60
        E 0 90 61 60
        E 60 80 49 00
        E 0 80 55 00
        E 0 80 61 00
        E 180 90 3d 60
        E 0 90 49 60
        E 0 90 55 60
        E 0 90 61 60
        E 60 80 3d 00
        E 0 80 49 00
        E 0 80 55 00
        E 0 80 61 00
        E 180 90 49 60
        E 0 90 55 60
        E 0 90 61 60
        E 60 80 49 00
        E 0 80 55 00
        E 0 80 61 00
        E 180 90 3d 60
        E 0 90 49 60
        E 0 90 55 60
        E 0 90 61 60
        E 60 80 3d 00
        E 0 80 49 00
        E 0 80 55 00
        E 0 80 61 00
        E 180 90 49 60
        E 0 90 55 60
        E 0 90 61 60
        E 60 80 49 00
        E 0 80 55 00
        E 0 80 61 00
        E 180 90 3d 60
        E 0 90 49 60
        E 0 90 55 60
        E 0 90 61 60
        E 60 80 3d 00
        E 0 80 49 00
        E 0 80 55 00
        E 0 80 61 00
        E 180 90 55 60
        E 0 90 61 60
        E 60 80 55 00
        E 0 80 61 00
        E 180 90 48 60
        E 0 90 54 60
        E 0 90 60 60
        E 60 80 48 00
        E 0 80 54 00
        E 0 80 60 00
        E 180 90 48 60
        E 0 90 54 60
        E 0 90 60 60
        E 60 80 48 00
        E 0 80 54 00
        E 0 80 60 00
        E 180 90 3c 60
        E 0 90 48 60
        E 0 90 54 60
        E 0 90 60 60
        E 60 80 3c 00
        E 0 80 48 00
        E 0 80 54 00
        E 0 80 60 00
        E 180 90 48 60
        E 0 90 54 60
        E 0 90 60 60
        E 60 80 48 00
        E 0 80 54 00
        E 0 80 60 00
        E 180 90 3c 60
        E 0 90 48 60
        E 0 90 54 60
        E 0 90 60 60
        E 60 80 3c 00
        E 0 80 48 00
        E 0 80 54 00
        E 0 80 60 00
        E 180 90 48 60
        E 0 90 54 60
        E 0 90 60 60
        E 60 80 48 00
        E 0 80 54 00
        E 0 80 60 00
        E 180 90 3c 60
        E 0 90 48 60
        E 0 90 54 60
        E 0 90 60 60
        E 60 80 3c 00
        E 0 80 48 00
        E 0 80 54 00
        E 0 80 60 00
        E 180 90 48 60
        E 0 90 54 60
        E 0 90 60 60
        E 60 80 48 00
        E 0 80 54 00
        E 0 80 60 00
        E 180 90 3c 60
        E 0 90 48 60
        E 0 90 54 60
        E 0 90 60 60
        E 60 80 3c 00
        E 0 80 48 00
        E 0 80 54 00
        E 0 80 60 00
        E 180 90 48 60
        E 0 90 54 60
        E 0 90 60 60
        E 60 80 48 00
        E 0 80 54 00
        E 0 80 60 00
        E 162 90 74 60
        E 18 90 3c 60
        E 0 90 48 60
        E 0 90 54 60
        E 0 90 60 60
        E 60 80 3c 00
        E 0 80 48 00
        E 0 80 54 00
        E 0 80 60 00
        E 180 90 48 60
        E 0 90 54 60
        E 0 90 60 60
        E 60 80 48 00
        E 0 80 54 00
        E 0 80 60 00
        E 180 90 3c 60
        E 0 90 48 60
        E 0 90 54 60
        E 0 90 60 60
        E 60 80 3c 00
        E 0 80 48 00
        E 0 80 54 00
        E 0 80 60 00
        E 180 90 48 60
        E 0 90 54 60
        E 0 90 60 60
        E 60 80 48 00
        E 0 80 54 00
        E 0 80 60 00
        E 180 90 3c 60
        E 0 90 48 60
        E 0 90 54 60
        E 0 90 60 60
        E 60 80 3c 00
        E 0 80 48 00
        E 0 80 54 00
        E 0 80 60 00
        E 42 80 74 00
        E 138 90 54 60
        E 0 90 60 60
        E 60 80 54 00
        E 0 80 60 00
        E 180 90 49 60
        E 0 90 55 60
        E 0 90 61 60
        E 60 80 49 00
        E 0 80 55 00
        E 0 80 61 00
        E 180 90 49 60
        E 0 90 55 60
        E 0 90 61 60
        E 60 80 49 00
        E 0 80 55 00
        E 0 80 61 00
        E 180 90 3d 60
        E 0 90 49 60
        E 0 90 55 60
        E 0 90 61 60
        E 60 80 3d 00
        E 0 80 49 00
        E 0 80 55 00
        E 0 80 61 00
        E 180 90 55 60
        E 0 90 61 60
        E 60 80 55 00
        E 0 80 61 00
        E 180 90 4a 60
        E 0 90 56 60
        E 0 90 62 60
        E 60 80 4a 00
        E 0 80 56 00
        E 0 80 62 00
        E 180 90 56 60
        E 0 90 62 60
        E 60 80 56 00
        E 0 80 62 00
        E 179 90 3e 60
        E 0 90 4a 60
        E 0 90 56 60
        E 0 90 62 60
        E 61 80 3e 00
        E 0 80 4a 00
        E 0 80 56 00
        E 0 80 62 00
        E 180 90 56 60
        E 0 90 62 60
        E 60 80 56 00
        E 0 80 62 00
        E 180 90 49 60
        E 0 90 55 60
        E 0 90 61 60
        E 60 80 49 00
        E 0 80 55 00
        E 0 80 61 00
        E 180 90 49 60
        E 0 90 55 60
        E 0 90 61 60
        E 60 80 49 00
        E 0 80 55 00
        E 0 80 61 00
        E 180 90 3d 60
        E 0 90 49 60
        E 0 90 55 60
        E 0 90 61 60
        E 60 80 3d 00
        E 0 80 49 00
        E 0 80 55 00
        E 0 80 61 00
        E 180 90 49 60
        E 0 90 55 60
        E 0 90 61 60
        E 60 80 49 00
        E 0 80 55 00
        E 0 80 61 00
        E 180 90 3d 60
        E 0 90 49 60
        E 0 90 55 60
        E 0 90 61 60
        E 60 80 3d 00
        E 0 80 49 00
        E 0 80 55 00
        E 0 80 61 00
        E 180 90 49 60
        E 0 90 55 60
        E 0 90 61 60
        E 60 80 49 00
        E 0 80 55 00
        E 0 80 61 00
        E 180 90 3d 60
        E 0 90 49 60
        E 0 90 55 60
        E 0 90 61 60
        E 60 80 3d 00
        E 0 80 49 00
        E 0 80 55 00
        E 0 80 61 00
        E 180 90 55 60
        E 0 90 61 60
        E 60 80 55 00
        E 0 80 61 00
        E 180 90 48 60
        E 0 90 54 60
        E 0 90 60 60
        E 60 80 48 00
        E 0 80 54 00
        E 0 80 60 00
        E 180 90 48 60
        E 0 90 54 60
        E 0 90 60 60
        E 60 80 48 00
        E 0 80 54 00
        E 0 80 60 00
        E 180 90 3c 60
        E 0 90 48 60
        E 0 90 54 60
        E 0 90 60 60
        E 60 80 3c 00
        E 0 80 48 00
        E 0 80 54 00
        E 0 80 60 00
        E 180 90 48 60
        E 0 90 54 60
        E 0 90 60 60
        E 60 80 48 00
        E 0 80 54 00
        E 0 80 60 00
        E 180 90 3c 60
        E 0 90 48 60
        E 0 90 54 60
        E 0 90 60 60
        E 60 80 3c 00
        E 0 80 48 00
        E 0 80 54 00
        E 0 80 60 00
        E 180 90 48 60
        E 0 90 54 60
        E 0 90 60 60
        E 60 80 48 00
        E 0 80 54 00
        E 0 80 60 00
        E 180 90 3c 60
        E 0 90 48 60
        E 0 90 54 60
        E 0 90 60 60
        E 60 80 3c 00
        E 0 80 48 00
        E 0 80 54 00
        E 0 80 60 00
        E 180 90 48 60
        E 0 90 54 60
        E 0 90 60 60
        E 60 80 48 00
        E 0 80 54 00
        E 0 80 60 00
        E 180 90 3c 60
        E 0 90 48 60
        E 0 90 54 60
        E 0 90 60 60
        E 60 80 3c 00
        E 0 80 48 00
        E 0 80 54 00
        E 0 80 60 00
        E 180 90 48 60
        E 0 90 54 60
        E 0 90 60 60
        E 60 80 48 00
        E 0 80 54 00
        E 0 80 60 00
        E 180 90 3c 60
        E 0 90 48 60
        E 0 90 54 60
        E 0 90 60 60
        E 60 80 3c 00
        E 0 80 48 00
        E 0 80 54 00
        E 0 80 60 00
        E 180 90 48 60
        E 0 90 54 60
        E 0 90 60 60
        E 60 80 48 00
        E 0 80 54 00
        E 0 80 60 00
        E 180 90 3c 60
        E 0 90 48 60
        E 0 90 54 60
        E 0 90 60 60
        E 60 80 3c 00
        E 0 80 48 00
        E 0 80 54 00
        E 0 80 60 00
        E 180 90 48 60
        E 0 90 54 60
        E 0 90 60 60
        E 60 80 48 00
        E 0 80 54 00
        E 0 80 60 00
        E 180 90 3c 60
        E 0 90 48 60
        E 0 90 54 60
        E 0 90 60 60
        E 60 80 3c 00
        E 0 80 48 00
        E 0 80 54 00
        E 0 80 60 00
        E 180 90 48 60
        E 0 90 54 60
        E 0 90 60 60
        E 60 80 48 00
        E 0 80 54 00
        E 0 80 60 00
        E 220 90 55 60
        E 0 90 61 60
        E 60 80 55 00
        E 0 80 61 00
        E 260 90 49 60
        E 0 90 55 60
        E 0 90 61 60
        E 120 80 49 00
        E 0 80 55 00
        E 160 80 61 00
        E 80 90 3d 60
        E 0 90 49 60
        E 0 90 55 60
        E 0 90 61 60
        E 120 80 3d 00
        E 0 80 49 00
        E 0 80 55 00
        E 200 80 61 00
        E 160 90 4a 60
        E 0 90 56 60
        E 0 90 62 60
        E 120 80 4a 00
        E 0 80 56 00
        E 200 80 62 00
        E 160 90 56 60
        E 0 90 62 60
        E 60 80 56 00
        E 0 80 62 00
        E 180 90 3d 60
        E 0 90 49 60
        E 0 90 55 60
        E 0 90 61 60
        E 60 80 3d 00
        E 0 80 49 00
        E 0 80 55 00
        E 0 80 61 00
        E 300 90 55 60
        E 0 90 61 60
        E 120 80 55 00
        E 160 80 61 00
        E 80 90 49 60
        E 0 90 55 60
        E 0 90 61 60
        E 120 80 49 00
        E 0 80 55 00
        E 200 80 61 00
        E 160 90 3c 60
        E 0 90 48 60
        E 0 90 54 60
        E 0 90 60 60
        E 120 80 3c 00
        E 0 80 48 00
        E 0 80 54 00
        E 200 80 60 00
        E 160 90 48 60
        E 0 90 54 60
        E 0 90 60 60
        E 40 80 48 00
        E 0 80 54 00
        E 0 80 60 00
        E 200 90 3c 60
        E 0 90 48 60
        E 0 90 54 60
        E 0 90 60 60
        E 40 80 3c 00
        E 0 80 48 00
        E 0 80 54 00
        E 0 80 60 00
        E 320 90 55 60
        E 0 90 61 60
        E 120 80 55 00
        E 160 80 61 00
        E 80 90 49 60
        E 0 90 55 60
        E 0 90 61 60
        E 120 80 49 00
        E 0 80 55 00
        E 200 80 61 00
        E 160 90 3e 60
        E 0 90 4a 60
        E 0 90 56 60
        E 0 90 62 60
        E 120 80 3e 00
        E 0 80 4a 00
        E 0 80 56 00
        E 200 80 62 00
        E 160 90 56 60
        E 0 90 62 60
        E 60 80 56 00
        E 0 80 62 00
        E 180 90 49 60
        E 0 90 55 60
        E 0 90 61 60
        E 60 80 49 00
        E 0 80 55 00
        E 0 80 61 00
        E 300 90 55 60
        E 0 90 61 60
        E 120 80 55 00
        E 160 80 61 00
        E 80 90 3d 60
        E 0 90 49 60
        E 0 90 55 60
        E 0 90 61 60
        E 120 80 3d 00
        E 0 80 49 00
        E 0 80 55 00
        E 200 80 61 00
        E 160 90 48 60
        E 0 90 54 60
        E 0 90 60 60
        E 120 80 48 00
        E 0 80 54 00
        E 200 80 60 00
        E 160 90 48 60
        E 0 90 54 60
        E 0 90 60 60
        E 40 80 48 00
        E 0 80 54 00
        E 0 80 60 00
        E 200 90 3c 60
        E 0 90 48 60
        E 0 90 54 60
        E 0 90 60 60
        E 40 80 3c 00
        E 0 80 48 00
        E 0 80 54 00
        E 0 80 60 00
        E 320 90 55 60
        E 0 90 61 60
        E 120 80 55 00
        E 160 80 61 00
        E 80 90 49 60
        E 0 90 55 60
        E 0 90 61 60
        E 120 80 49 00
        E 0 80 55 00
        E 200 80 61 00
        E 160 90 3e 60
        E 0 90 4a 60
        E 0 90 56 60
        E 0 90 62 60
        E 120 80 3e 00
        E 0 80 4a 00
        E 0 80 56 00
        E 200 80 62 00
        E 160 90 56 60
        E 0 90 62 60
        E 60 80 56 00
        E 0 80 62 00
        E 180 90 49 60
        E 0 90 55 60
        E 0 90 61 60
        E 60 80 49 00
        E 0 80 55 00
        E 0 80 61 00
        E 300 90 55 60
        E 0 90 61 60
        E 120 80 55 00
        E 160 80 61 00
        E 80 90 3d 60
        E 0 90 49 60
        E 0 90 55 60
        E 0 90 61 60
        E 120 80 3d 00
        E 0 80 49 00
        E 0 80 55 00
        E 200 80 61 00
        E 160 90 48 60
        E 0 90 54 60
        E 0 90 60 60
        E 120 80 48 00
        E 0 80 54 00
        E 200 80 60 00
        E 160 90 48 60
        E 0 90 54 60
        E 0 90 60 60
        E 40 80 48 00
        E 0 80 54 00
        E 0 80 60 00
        E 200 90 3c 60
        E 0 90 48 60
        E 0 90 54 60
        E 0 90 60 60
        E 40 80 3c 00
        E 0 80 48 00
        E 0 80 54 00
        E 0 80 60 00
        E 320 90 55 60
        E 0 90 61 60
        E 120 80 55 00
        E 159 80 61 00
        E 82 90 49 60
        E 0 90 55 60
        E 0 90 61 60
        E 120 80 49 00
        E 0 80 55 00
        E 199 80 61 00
        E 161 90 3e 60
        E 0 90 4a 60
        E 0 90 56 60
        E 0 90 62 60
        E 120 80 3e 00
        E 0 80 4a 00
        E 0 80 56 00
        E 199 80 62 00
        E 161 90 56 60
        E 0 90 62 60
        E 60 80 56 00
        E 0 80 62 00
        E 180 90 49 60
        E 0 90 55 60
        E 0 90 61 60
        E 60 80 49 00
        E 0 80 55 00
        E 0 80 61 00
        E 300 90 55 60
        E 0 90 61 60
        E 120 80 55 00
        E 159 80 61 00
        E 81 90 3d 60
        E 0 90 49 60
        E 0 90 55 60
        E 0 90 61 60
        E 120 80 3d 00
        E 0 80 49 00
        E 0 80 55 00
        E 199 80 61 00
        E 160 90 54 60
        E 0 90 60 60
        E 120 80 54 00
        E 200 80 60 00
        <X 480 0
          /wFbaWRsZV9yZWFsdGltZV0=
        >
        E 3340 b0 7b 00
        GUID {54A57D35-811F-42A6-AB75-F5706122F903}
        IGNTEMPO 0 120.00000000 4 4
        SRCCOLOR 1255
        VELLANE 132 128 60
        COLORMAP "C:\Users\wejaa\AppData\Roaming\REAPER\Data\color_maps\rockband_guitarbass.png"
        TEXTSTRINGFILE "Text Events List.txt"
        CFGEDITVIEW -32333.572944 7.020567 5 12 0 0 0
        CFGEDIT 1 1 0 0 0 1 1 1 1 1 1 0.12500000 -8 -8 1370 736 1 2 1 2 0.00000000 0 0 0 0 0.500000 1 0 1.000000 64
        KEYSNAP 0 0 "102034050607" 0 "Major"
        EVTFILTER 0 -1 -1 -1 -1 0 1 0 0 -1.00000000 -1.00000000
      >
    >
  >
  <TRACK '{3AEDB371-F2B3-4AAA-86E7-F0ACCA34B26D}'
    NAME "1_mvsep_inst_(Bass)"
    PEAKCOL 16576
    BEAT -1
    AUTOMODE 0
    VOLPAN 1.00000000000000 0.00000000000000 -1.00000000000000 -1.00000000000000 1.00000000000000
    MUTESOLO 0 0 0
    IPHASE 0
    ISBUS 0 0
    BUSCOMP 0 0
    SHOWINMIX 1 0.666700 0.500000 1 0.500000 -1 -1 -1
    FREEMODE 0
    SEL 0
    REC 0 0 0 0 0 0 0
    VU 2
    TRACKHEIGHT 0 0
    INQ 0 0 0 0.5000000000 100 0 0 100
    NCHAN 2
    FX 1
    TRACKID {3AEDB371-F2B3-4AAA-86E7-F0ACCA34B26D}
    PERF 0
    MIDIOUT -1
    MAINSEND 1 0
    <ITEM
      POSITION 3.73480460909195
      SNAPOFFS 0.00000000000000
      LENGTH 212.85333333333332
      LOOP 0
      ALLTAKES 0
      SEL 0
      FADEIN 1 0.000000 0.000000 1 0
      FADEOUT 1 0.000000 0.000000 1 0
      MUTE 0
      IGUID {127A1880-4266-488B-8FAA-C89BDA806ADF}
      IID 65
      NAME "1_mvsep_inst_(Bass).wav"
      VOLPAN 1.000000 0.000000 1.000000 -1.000000
      SOFFS 0.00000000000000
      PLAYRATE 1.00000000000000 1 0.00000000000000 -1
      CHANMODE 0
      GUID {1BEB28EE-9677-4A81-B27F-DE9DC531F285}
      <SOURCE WAVE
        FILE "1_mvsep_inst_(Bass).wav"
      >
    >
  >
  <TRACK '{6B7F9B4B-FF4E-4CE6-9E2D-4C9BD5DAED77}'
    NAME "PART GUITAR"
    PEAKCOL 33488896
    BEAT -1
    AUTOMODE 0
    VOLPAN 1.00000000000000 0.00000000000000 -1.00000000000000 -1.00000000000000 1.00000000000000
    MUTESOLO 0 0 0
    IPHASE 0
    ISBUS 0 0
    BUSCOMP 1 0
    SHOWINMIX 1 0.666700 0.500000 1 0.500000 -1 -1 -1
    FREEMODE 0
    SEL 1
    REC 0 4096 1 7 0 0 0
    TRACKHEIGHT 120 0
    INQ 0 0 0 0.5000000000 100 0 0 100
    NCHAN 2
    FX 1
    TRACKID {6B7F9B4B-FF4E-4CE6-9E2D-4C9BD5DAED77}
    PERF 0
    MIDIOUT -1
    <MIDINOTENAMES
      0 116 "OVERDRIVE"
      0 102 "Force HOPO Off"
      0 101 "Force HOPO On"
      0 100 "EXPERT Orange"
      0 99 "EXPERT Blue"
      0 98 "EXPERT Yellow"
      0 97 "EXPERT Red"
      0 96 "EXPERT Green"
      0 88 "HARD Orange"
      0 87 "HARD Blue"
      0 86 "HARD Yellow"
      0 85 "HARD Red"
      0 84 "HARD Green"
      0 76 "MEDIUM Orange"
      0 75 "MEDIUM Blue"
      0 74 "MEDIUM Yellow"
      0 73 "MEDIUM Red"
      0 72 "MEDIUM Green"
      0 64 "EASY Orange"
      0 63 "EASY Blue"
      0 62 "EASY Yellow"
      0 61 "EASY Red"
      0 60 "EASY Green"
      0 59 "Left Hand Highest"
      0 40 "Left Hand Lowest"
      0 58 "-"
      0 57 "-"
      0 56 "-"
      0 55 "-"
      0 54 "-"
      0 53 "-"
      0 52 "-"
      0 51 "-"
      0 50 "-"
      0 49 "-"
      0 48 "-"
      0 47 "-"
      0 46 "-"
      0 45 "-"
      0 44 "-"
      0 43 "-"
      0 42 "-"
      0 41 "-"
      0 115 "----"
      0 95 "----"
      0 89 "Force HOPO On"
      0 77 "----"
      0 65 "----"
      0 119 "----"
      0 120 "BRE (use all 5)"
      0 121 "BRE"
      0 122 "BRE"
      0 123 "BRE"
      0 124 "BRE"
      0 90 "Force HOPO Off"
      0 103 "Solo Marker"
      0 127 "Trill Marker"
      0 125 "----"
      0 126 "Strum Marker"
    >
    MAINSEND 1 0
    <FXCHAIN
      WNDRECT -945 1125 878 585
      SHOW 2
      LASTSEL 1
      DOCKED 0
      BYPASS 1 0
      <VST "VSTi: ReaSynth (Cockos)" "reasynth.dll" 0 ""
        eXNlcu9e7f4AAAAAAgAAAAEAAAAAAAAAAgAAAAAAAAA4AAAAAAAAAA==
        AAAAAO++rd4N8K3eAAAAAAAAAAAAAAAAAAAAADm0SD59y9s+tbSxOQ==
        AAAAALbz/T5VpCs6AAAAAAAAAAAAAAAAAAA=
      >
      FLOATPOS 0 0 0 0
      FXID {52B28C73-185B-48E4-B8F4-1FD7A8848B0F}
      WAK 0
      BYPASS 0 0
      <VST "VSTi: RBN Preview (RBN)" "rbprev_vst64_beta.dll" 0 ""
        dnBicu5e7f4AAAAAAgAAAAEAAAAAAAAAAgAAAAAAAAAEAAAAAQAAAA==
        AAAAAAMAqgAAAAAAAAA=
      >
      FLOATPOS 32 32 659 497
      FXID {190BBB08-7A86-476B-BD07-5F71F5CD6F7C}
      WAK 0
    >
    <ITEM
      POSITION 0.00000000000000
      SNAPOFFS 0.00000000000000
      LENGTH 216.71571782727469
      LOOP 0
      ALLTAKES 0
      SEL 1
      FADEIN 1 0.000000 0.000000 1 0
      FADEOUT 1 0.000000 0.000000 1 0
      MUTE 0
      IGUID {81210F06-DA35-41E7-BA75-C6E1C5689733}
      IID 9
      NAME "PART GUITAR"
      VOLPAN 1.000000 0.000000 1.000000 -1.000000
      SOFFS 0.00000000000000 0.00000000000000
      PLAYRATE 1.00000000000000 1 0.00000000000000 -65536
      CHANMODE 0
      GUID {61757875-B3D4-49E4-8483-EE351B7D2386}
      <SOURCE MIDI
        HASDATA 1 480 QN
        POOLEDEVTS {AB8DBA2D-FB1F-4229-9E50-188D2439B655}
        <X 0 0
          /wNQQVJUIEdVSVRBUg==
        >
        <X 3840 0
          /wFbaWRsZV0=
        >
        <X 9600 0
          /wFbcGxheV0=
        >
        E 1440 90 60 60
        E 0 90 62 60
        E 0 90 63 60
        E 0 90 54 60
        E 0 90 57 60
        E 0 90 49 60
        E 0 90 4a 60
        E 0 90 3e 60
        E 60 80 60 00
        E 0 80 62 00
        E 0 80 63 00
        E 0 80 54 00
        E 0 80 57 00
        E 0 80 49 00
        E 0 80 4a 00
        E 0 80 3e 00
        E 180 90 60 60
        E 0 90 62 60
        E 0 90 63 60
        E 0 90 54 60
        E 0 90 57 60
        E 0 90 49 60
        E 0 90 4a 60
        E 60 80 60 00
        E 0 80 62 00
        E 0 80 63 00
        E 0 80 54 00
        E 0 80 57 00
        E 0 80 49 00
        E 0 80 4a 00
        E 180 90 60 60
        E 0 90 62 60
        E 0 90 63 60
        E 0 90 54 60
        E 0 90 57 60
        E 0 90 49 60
        E 0 90 4a 60
        E 0 90 3e 60
        E 60 80 60 00
        E 0 80 62 00
        E 0 80 63 00
        E 0 80 54 00
        E 0 80 57 00
        E 0 80 49 00
        E 0 80 4a 00
        E 0 80 3e 00
        E 180 90 60 60
        E 0 90 62 60
        E 0 90 63 60
        E 0 90 54 60
        E 0 90 57 60
        E 60 80 60 00
        E 0 80 62 00
        E 0 80 63 00
        E 0 80 54 00
        E 0 80 57 00
        E 180 90 61 60
        E 0 90 62 60
        E 0 90 64 60
        E 0 90 55 60
        E 0 90 58 60
        E 0 90 4a 60
        E 0 90 4c 60
        E 60 80 61 00
        E 0 80 62 00
        E 0 80 64 00
        E 0 80 55 00
        E 0 80 58 00
        E 0 80 4a 00
        E 0 80 4c 00
        E 180 90 61 60
        E 0 90 62 60
        E 0 90 64 60
        E 0 90 55 60
        E 0 90 58 60
        E 0 90 4a 60
        E 0 90 4c 60
        E 60 80 61 00
        E 0 80 62 00
        E 0 80 64 00
        E 0 80 55 00
        E 0 80 58 00
        E 0 80 4a 00
        E 0 80 4c 00
        E 180 90 61 60
        E 0 90 62 60
        E 0 90 64 60
        E 0 90 55 60
        E 0 90 58 60
        E 0 90 4a 60
        E 0 90 4c 60
        E 0 90 40 60
        E 60 80 61 00
        E 0 80 62 00
        E 0 80 64 00
        E 0 80 55 00
        E 0 80 58 00
        E 0 80 4a 00
        E 0 80 4c 00
        E 0 80 40 00
        E 180 90 61 60
        E 0 90 62 60
        E 0 90 64 60
        E 0 90 55 60
        E 0 90 58 60
        E 60 80 61 00
        E 0 80 62 00
        E 0 80 64 00
        E 0 80 55 00
        E 0 80 58 00
        E 180 90 61 60
        E 0 90 62 60
        E 0 90 63 60
        E 0 90 55 60
        E 0 90 57 60
        E 0 90 49 60
        E 0 90 4b 60
        E 60 80 61 00
        E 0 80 62 00
        E 0 80 63 00
        E 0 80 55 00
        E 0 80 57 00
        E 0 80 49 00
        E 0 80 4b 00
        E 180 90 61 60
        E 0 90 62 60
        E 0 90 63 60
        E 0 90 55 60
        E 0 90 57 60
        E 0 90 49 60
        E 0 90 4b 60
        E 60 80 61 00
        E 0 80 62 00
        E 0 80 63 00
        E 0 80 55 00
        E 0 80 57 00
        E 0 80 49 00
        E 0 80 4b 00
        E 180 90 61 60
        E 0 90 62 60
        E 0 90 63 60
        E 0 90 55 60
        E 0 90 57 60
        E 0 90 49 60
        E 0 90 4b 60
        E 0 90 3f 60
        E 60 80 61 00
        E 0 80 62 00
        E 0 80 63 00
        E 0 80 55 00
        E 0 80 57 00
        E 0 80 49 00
        E 0 80 4b 00
        E 0 80 3f 00
        E 180 90 61 60
        E 0 90 62 60
        E 0 90 63 60
        E 0 90 55 60
        E 0 90 57 60
        E 60 80 61 00
        E 0 80 62 00
        E 0 80 63 00
        E 0 80 55 00
        E 0 80 57 00
        E 180 90 60 60
        E 0 90 61 60
        E 0 90 62 60
        E 0 90 54 60
        E 0 90 55 60
        E 0 90 48 60
        E 0 90 49 60
        E 60 80 60 00
        E 0 80 61 00
        E 0 80 62 00
        E 0 80 54 00
        E 0 80 55 00
        E 0 80 48 00
        E 0 80 49 00
        E 180 90 60 60
        E 0 90 61 60
        E 0 90 62 60
        E 0 90 54 60
        E 0 90 55 60
        E 0 90 48 60
        E 0 90 49 60
        E 60 80 60 00
        E 0 80 61 00
        E 0 80 62 00
        E 0 80 54 00
        E 0 80 55 00
        E 0 80 48 00
        E 0 80 49 00
        E 180 90 60 60
        E 0 90 61 60
        E 0 90 62 60
        E 0 90 54 60
        E 0 90 55 60
        E 0 90 48 60
        E 0 90 49 60
        E 0 90 3c 60
        E 60 80 60 00
        E 0 80 61 00
        E 0 80 62 00
        E 0 80 54 00
        E 0 80 55 00
        E 0 80 48 00
        E 0 80 49 00
        E 0 80 3c 00
        E 180 90 60 60
        E 0 90 61 60
        E 0 90 62 60
        E 0 90 54 60
        E 0 90 55 60
        E 60 80 60 00
        E 0 80 61 00
        E 0 80 62 00
        E 0 80 54 00
        E 0 80 55 00
        E 180 90 60 60
        E 0 90 62 60
        E 0 90 54 60
        E 0 90 56 60
        E 0 90 48 60
        E 0 90 4a 60
        E 120 80 54 00
        E 0 80 56 00
        E 0 80 48 00
        E 0 80 4a 00
        E 240 80 60 00
        E 0 80 62 00
        E 60 90 60 60
        E 0 90 62 60
        E 0 90 54 60
        E 0 90 56 60
        E 60 80 60 00
        E 0 80 62 00
        E 0 80 54 00
        E 0 80 56 00
        E 240 90 60 60
        E 0 90 62 60
        E 0 90 54 60
        E 0 90 56 60
        E 60 80 60 00
        E 0 80 62 00
        E 0 80 54 00
        E 0 80 56 00
        E 180 90 61 60
        E 0 90 55 60
        E 0 90 49 60
        E 60 80 61 00
        E 0 80 55 00
        E 0 80 49 00
        E 180 90 61 60
        E 0 90 62 60
        E 0 90 64 60
        E 0 90 55 60
        E 0 90 58 60
        E 60 80 61 00
        E 0 80 62 00
        E 0 80 64 00
        E 0 80 55 00
        E 0 80 58 00
        E 180 90 61 60
        E 0 90 62 60
        E 0 90 64 60
        E 0 90 55 60
        E 0 90 58 60
        E 0 90 4a 60
        E 0 90 4c 60
        E 0 90 40 60
        E 60 80 61 00
        E 0 80 62 00
        E 0 80 64 00
        E 0 80 55 00
        E 0 80 58 00
        E 0 80 4a 00
        E 0 80 4c 00
        E 0 80 40 00
        E 180 90 61 60
        E 0 90 62 60
        E 0 90 64 60
        E 0 90 55 60
        E 0 90 58 60
        E 60 80 61 00
        E 0 80 62 00
        E 0 80 64 00
        E 0 80 55 00
        E 0 80 58 00
        E 180 90 61 60
        E 0 90 63 60
        E 0 90 55 60
        E 0 90 57 60
        E 0 90 49 60
        E 0 90 4b 60
        E 120 80 55 00
        E 0 80 57 00
        E 0 80 49 00
        E 0 80 4b 00
        E 240 80 61 00
        E 0 80 63 00
        E 60 90 61 60
        E 0 90 63 60
        E 0 90 55 60
        E 0 90 57 60
        E 60 80 61 00
        E 0 80 63 00
        E 0 80 55 00
        E 0 80 57 00
        E 240 90 61 60
        E 0 90 63 60
        E 0 90 55 60
        E 0 90 57 60
        E 60 80 61 00
        E 0 80 63 00
        E 0 80 55 00
        E 0 80 57 00
        E 180 90 60 60
        E 0 90 54 60
        E 0 90 48 60
        E 60 80 60 00
        E 0 80 54 00
        E 0 80 48 00
        E 180 90 60 60
        E 0 90 61 60
        E 0 90 62 60
        E 0 90 54 60
        E 0 90 55 60
        E 60 80 60 00
        E 0 80 61 00
        E 0 80 62 00
        E 0 80 54 00
        E 0 80 55 00
        E 180 90 60 60
        E 0 90 61 60
        E 0 90 62 60
        E 0 90 54 60
        E 0 90 55 60
        E 0 90 48 60
        E 0 90 49 60
        E 0 90 3c 60
        E 60 80 60 00
        E 0 80 61 00
        E 0 80 62 00
        E 0 80 54 00
        E 0 80 55 00
        E 0 80 48 00
        E 0 80 49 00
        E 0 80 3c 00
        E 180 90 60 60
        E 0 90 61 60
        E 0 90 62 60
        E 0 90 54 60
        E 0 90 55 60
        E 60 80 60 00
        E 0 80 61 00
        E 0 80 62 00
        E 0 80 54 00
        E 0 80 55 00
        E 180 90 60 60
        E 0 90 62 60
        E 0 90 63 60
        E 0 90 54 60
        E 0 90 57 60
        E 0 90 49 60
        E 0 90 4a 60
        E 60 80 60 00
        E 0 80 62 00
        E 0 80 63 00
        E 0 80 54 00
        E 0 80 57 00
        E 0 80 49 00
        E 0 80 4a 00
        E 180 90 60 60
        E 0 90 62 60
        E 0 90 63 60
        E 0 90 54 60
        E 0 90 57 60
        E 0 90 49 60
        E 0 90 4a 60
        E 60 80 60 00
        E 0 80 62 00
        E 0 80 63 00
        E 0 80 54 00
        E 0 80 57 00
        E 0 80 49 00
        E 0 80 4a 00
        E 180 90 60 60
        E 0 90 62 60
        E 0 90 63 60
        E 0 90 54 60
        E 0 90 57 60
        E 0 90 49 60
        E 0 90 4a 60
        E 0 90 3e 60
        E 60 80 60 00
        E 0 80 62 00
        E 0 80 63 00
        E 0 80 54 00
        E 0 80 57 00
        E 0 80 49 00
        E 0 80 4a 00
        E 0 80 3e 00
        E 180 90 60 60
        E 0 90 62 60
        E 0 90 63 60
        E 0 90 54 60
        E 0 90 57 60
        E 60 80 60 00
        E 0 80 62 00
        E 0 80 63 00
        E 0 80 54 00
        E 0 80 57 00
        E 180 90 61 60
        E 0 90 62 60
        E 0 90 64 60
        E 0 90 55 60
        E 0 90 58 60
        E 0 90 4a 60
        E 0 90 4c 60
        E 60 80 61 00
        E 0 80 62 00
        E 0 80 64 00
        E 0 80 55 00
        E 0 80 58 00
        E 0 80 4a 00
        E 0 80 4c 00
        E 180 90 61 60
        E 0 90 62 60
        E 0 90 64 60
        E 0 90 55 60
        E 0 90 58 60
        E 0 90 4a 60
        E 0 90 4c 60
        E 60 80 61 00
        E 0 80 62 00
        E 0 80 64 00
        E 0 80 55 00
        E 0 80 58 00
        E 0 80 4a 00
        E 0 80 4c 00
        E 180 90 61 60
        E 0 90 62 60
        E 0 90 64 60
        E 0 90 55 60
        E 0 90 58 60
        E 0 90 4a 60
        E 0 90 4c 60
        E 0 90 40 60
        E 60 80 61 00
        E 0 80 62 00
        E 0 80 64 00
        E 0 80 55 00
        E 0 80 58 00
        E 0 80 4a 00
        E 0 80 4c 00
        E 0 80 40 00
        E 180 90 61 60
        E 0 90 62 60
        E 0 90 64 60
        E 0 90 55 60
        E 0 90 58 60
        E 60 80 61 00
        E 0 80 62 00
        E 0 80 64 00
        E 0 80 55 00
        E 0 80 58 00
        E 180 90 61 60
        E 0 90 62 60
        E 0 90 63 60
        E 0 90 55 60
        E 0 90 57 60
        E 0 90 49 60
        E 0 90 4b 60
        E 60 80 61 00
        E 0 80 62 00
        E 0 80 63 00
        E 0 80 55 00
        E 0 80 57 00
        E 0 80 49 00
        E 0 80 4b 00
        E 180 90 61 60
        E 0 90 62 60
        E 0 90 63 60
        E 0 90 55 60
        E 0 90 57 60
        E 0 90 49 60
        E 0 90 4b 60
        E 60 80 61 00
        E 0 80 62 00
        E 0 80 63 00
        E 0 80 55 00
        E 0 80 57 00
        E 0 80 49 00
        E 0 80 4b 00
        E 180 90 61 60
        E 0 90 62 60
        E 0 90 63 60
        E 0 90 55 60
        E 0 90 57 60
        E 0 90 49 60
        E 0 90 4b 60
        E 0 90 3f 60
        E 60 80 61 00
        E 0 80 62 00
        E 0 80 63 00
        E 0 80 55 00
        E 0 80 57 00
        E 0 80 49 00
        E 0 80 4b 00
        E 0 80 3f 00
        E 180 90 61 60
        E 0 90 62 60
        E 0 90 63 60
        E 0 90 55 60
        E 0 90 57 60
        E 60 80 61 00
        E 0 80 62 00
        E 0 80 63 00
        E 0 80 55 00
        E 0 80 57 00
        E 180 90 60 60
        E 0 90 61 60
        E 0 90 62 60
        E 0 90 54 60
        E 0 90 55 60
        E 0 90 48 60
        E 0 90 49 60
        E 60 80 60 00
        E 0 80 61 00
        E 0 80 62 00
        E 0 80 54 00
        E 0 80 55 00
        E 0 80 48 00
        E 0 80 49 00
        E 180 90 60 60
        E 0 90 61 60
        E 0 90 62 60
        E 0 90 54 60
        E 0 90 55 60
        E 0 90 48 60
        E 0 90 49 60
        E 60 80 60 00
        E 0 80 61 00
        E 0 80 62 00
        E 0 80 54 00
        E 0 80 55 00
        E 0 80 48 00
        E 0 80 49 00
        E 180 90 60 60
        E 0 90 61 60
        E 0 90 62 60
        E 0 90 54 60
        E 0 90 55 60
        E 0 90 48 60
        E 0 90 49 60
        E 0 90 3c 60
        E 60 80 60 00
        E 0 80 61 00
        E 0 80 62 00
        E 0 80 54 00
        E 0 80 55 00
        E 0 80 48 00
        E 0 80 49 00
        E 0 80 3c 00
        E 180 90 60 60
        E 0 90 61 60
        E 0 90 62 60
        E 0 90 54 60
        E 0 90 55 60
        E 60 80 60 00
        E 0 80 61 00
        E 0 80 62 00
        E 0 80 54 00
        E 0 80 55 00
        E 180 90 60 60
        E 0 90 62 60
        E 0 90 74 60
        E 0 90 54 60
        E 0 90 56 60
        E 0 90 48 60
        E 0 90 4a 60
        E 120 80 54 00
        E 0 80 56 00
        E 0 80 48 00
        E 0 80 4a 00
        E 240 80 60 00
        E 0 80 62 00
        E 60 90 60 60
        E 0 90 62 60
        E 0 90 54 60
        E 0 90 56 60
        E 60 80 60 00
        E 0 80 62 00
        E 0 80 54 00
        E 0 80 56 00
        E 240 90 60 60
        E 0 90 62 60
        E 0 90 54 60
        E 0 90 56 60
        E 60 80 60 00
        E 0 80 62 00
        E 0 80 54 00
        E 0 80 56 00
        E 180 90 61 60
        E 0 90 55 60
        E 0 90 49 60
        E 60 80 61 00
        E 0 80 55 00
        E 0 80 49 00
        E 180 90 61 60
        E 0 90 62 60
        E 0 90 64 60
        E 0 90 55 60
        E 0 90 58 60
        E 60 80 61 00
        E 0 80 62 00
        E 0 80 64 00
        E 0 80 55 00
        E 0 80 58 00
        E 180 90 61 60
        E 0 90 62 60
        E 0 90 64 60
        E 0 90 55 60
        E 0 90 58 60
        E 0 90 4a 60
        E 0 90 4c 60
        E 0 90 40 60
        E 60 80 61 00
        E 0 80 62 00
        E 0 80 64 00
        E 0 80 55 00
        E 0 80 58 00
        E 0 80 4a 00
        E 0 80 4c 00
        E 0 80 40 00
        E 180 90 61 60
        E 0 90 62 60
        E 0 90 64 60
        E 0 90 55 60
        E 0 90 58 60
        E 60 80 61 00
        E 0 80 62 00
        E 0 80 64 00
        E 0 80 55 00
        E 0 80 58 00
        E 180 90 61 60
        E 0 90 63 60
        E 0 90 55 60
        E 0 90 57 60
        E 0 90 49 60
        E 0 90 4b 60
        E 120 80 55 00
        E 0 80 57 00
        E 0 80 49 00
        E 0 80 4b 00
        E 240 80 61 00
        E 0 80 63 00
        E 60 90 61 60
        E 0 90 63 60
        E 0 90 55 60
        E 0 90 57 60
        E 60 80 74 00
        E 0 80 61 00
        E 0 80 63 00
        E 0 80 55 00
        E 0 80 57 00
        E 240 90 61 60
        E 0 90 63 60
        E 0 90 55 60
        E 0 90 57 60
        E 60 80 61 00
        E 0 80 63 00
        E 0 80 55 00
        E 0 80 57 00
        E 180 90 60 60
        E 0 90 54 60
        E 0 90 48 60
        E 60 80 60 00
        E 0 80 54 00
        E 0 80 48 00
        E 180 90 60 60
        E 0 90 61 60
        E 0 90 62 60
        E 0 90 54 60
        E 0 90 55 60
        E 60 80 60 00
        E 0 80 61 00
        E 0 80 62 00
        E 0 80 54 00
        E 0 80 55 00
        E 180 90 60 60
        E 0 90 61 60
        E 0 90 62 60
        E 0 90 54 60
        E 0 90 55 60
        E 0 90 48 60
        E 0 90 49 60
        E 0 90 3c 60
        E 60 80 60 00
        E 0 80 61 00
        E 0 80 62 00
        E 0 80 54 00
        E 0 80 55 00
        E 0 80 48 00
        E 0 80 49 00
        E 0 80 3c 00
        E 180 90 60 60
        E 0 90 61 60
        E 0 90 62 60
        E 0 90 54 60
        E 0 90 55 60
        E 0 90 48 60
        E 0 90 49 60
        E 60 80 60 00
        E 0 80 61 00
        E 0 80 62 00
        E 0 80 54 00
        E 0 80 55 00
        E 0 80 48 00
        E 0 80 49 00
        <X 480 0
          /wFbaWRsZV0=
        >
        <X 14580 0
          /wFbcGxheV0=
        >
        E 480 90 60 60
        E 0 90 62 60
        E 0 90 63 60
        E 0 90 54 60
        E 0 90 57 60
        E 0 90 49 60
        E 0 90 4a 60
        E 0 90 3e 60
        E 60 80 60 00
        E 0 80 62 00
        E 0 80 63 00
        E 0 80 54 00
        E 0 80 57 00
        E 0 80 49 00
        E 0 80 4a 00
        E 0 80 3e 00
        E 180 90 60 60
        E 0 90 62 60
        E 0 90 63 60
        E 0 90 54 60
        E 0 90 57 60
        E 0 90 49 60
        E 0 90 4a 60
        E 60 80 60 00
        E 0 80 62 00
        E 0 80 63 00
        E 0 80 54 00
        E 0 80 57 00
        E 0 80 49 00
        E 0 80 4a 00
        E 180 90 60 60
        E 0 90 62 60
        E 0 90 63 60
        E 0 90 54 60
        E 0 90 57 60
        E 0 90 49 60
        E 0 90 4a 60
        E 0 90 3e 60
        E 60 80 60 00
        E 0 80 62 00
        E 0 80 63 00
        E 0 80 54 00
        E 0 80 57 00
        E 0 80 49 00
        E 0 80 4a 00
        E 0 80 3e 00
        E 180 90 60 60
        E 0 90 62 60
        E 0 90 63 60
        E 0 90 54 60
        E 0 90 57 60
        E 60 80 60 00
        E 0 80 62 00
        E 0 80 63 00
        E 0 80 54 00
        E 0 80 57 00
        E 180 90 61 60
        E 0 90 62 60
        E 0 90 64 60
        E 0 90 55 60
        E 0 90 58 60
        E 0 90 4a 60
        E 0 90 4c 60
        E 60 80 61 00
        E 0 80 62 00
        E 0 80 64 00
        E 0 80 55 00
        E 0 80 58 00
        E 0 80 4a 00
        E 0 80 4c 00
        E 180 90 61 60
        E 0 90 62 60
        E 0 90 64 60
        E 0 90 55 60
        E 0 90 58 60
        E 0 90 4a 60
        E 0 90 4c 60
        E 60 80 61 00
        E 0 80 62 00
        E 0 80 64 00
        E 0 80 55 00
        E 0 80 58 00
        E 0 80 4a 00
        E 0 80 4c 00
        E 180 90 61 60
        E 0 90 62 60
        E 0 90 64 60
        E 0 90 55 60
        E 0 90 58 60
        E 0 90 4a 60
        E 0 90 4c 60
        E 0 90 40 60
        E 60 80 61 00
        E 0 80 62 00
        E 0 80 64 00
        E 0 80 55 00
        E 0 80 58 00
        E 0 80 4a 00
        E 0 80 4c 00
        E 0 80 40 00
        E 180 90 61 60
        E 0 90 62 60
        E 0 90 64 60
        E 0 90 55 60
        E 0 90 58 60
        E 60 80 61 00
        E 0 80 62 00
        E 0 80 64 00
        E 0 80 55 00
        E 0 80 58 00
        E 180 90 61 60
        E 0 90 62 60
        E 0 90 63 60
        E 0 90 55 60
        E 0 90 57 60
        E 0 90 49 60
        E 0 90 4b 60
        E 60 80 61 00
        E 0 80 62 00
        E 0 80 63 00
        E 0 80 55 00
        E 0 80 57 00
        E 0 80 49 00
        E 0 80 4b 00
        E 180 90 61 60
        E 0 90 62 60
        E 0 90 63 60
        E 0 90 55 60
        E 0 90 57 60
        E 0 90 49 60
        E 0 90 4b 60
        E 60 80 61 00
        E 0 80 62 00
        E 0 80 63 00
        E 0 80 55 00
        E 0 80 57 00
        E 0 80 49 00
        E 0 80 4b 00
        E 180 90 61 60
        E 0 90 62 60
        E 0 90 63 60
        E 0 90 55 60
        E 0 90 57 60
        E 0 90 49 60
        E 0 90 4b 60
        E 0 90 3f 60
        E 60 80 61 00
        E 0 80 62 00
        E 0 80 63 00
        E 0 80 55 00
        E 0 80 57 00
        E 0 80 49 00
        E 0 80 4b 00
        E 0 80 3f 00
        E 180 90 61 60
        E 0 90 62 60
        E 0 90 63 60
        E 0 90 55 60
        E 0 90 57 60
        E 60 80 61 00
        E 0 80 62 00
        E 0 80 63 00
        E 0 80 55 00
        E 0 80 57 00
        E 180 90 60 60
        E 0 90 61 60
        E 0 90 62 60
        E 0 90 54 60
        E 0 90 55 60
        E 0 90 48 60
        E 0 90 49 60
        E 60 80 60 00
        E 0 80 61 00
        E 0 80 62 00
        E 0 80 54 00
        E 0 80 55 00
        E 0 80 48 00
        E 0 80 49 00
        E 180 90 60 60
        E 0 90 61 60
        E 0 90 62 60
        E 0 90 54 60
        E 0 90 55 60
        E 0 90 48 60
        E 0 90 49 60
        E 60 80 60 00
        E 0 80 61 00
        E 0 80 62 00
        E 0 80 54 00
        E 0 80 55 00
        E 0 80 48 00
        E 0 80 49 00
        E 180 90 60 60
        E 0 90 61 60
        E 0 90 62 60
        E 0 90 54 60
        E 0 90 55 60
        E 0 90 48 60
        E 0 90 49 60
        E 0 90 3c 60
        E 60 80 60 00
        E 0 80 61 00
        E 0 80 62 00
        E 0 80 54 00
        E 0 80 55 00
        E 0 80 48 00
        E 0 80 49 00
        E 0 80 3c 00
        E 180 90 60 60
        E 0 90 61 60
        E 0 90 62 60
        E 0 90 54 60
        E 0 90 55 60
        E 60 80 60 00
        E 0 80 61 00
        E 0 80 62 00
        E 0 80 54 00
        E 0 80 55 00
        E 180 90 60 60
        E 0 90 62 60
        E 0 90 54 60
        E 0 90 56 60
        E 0 90 48 60
        E 0 90 4a 60
        E 120 80 54 00
        E 0 80 56 00
        E 0 80 48 00
        E 0 80 4a 00
        E 240 80 60 00
        E 0 80 62 00
        E 60 90 60 60
        E 0 90 62 60
        E 0 90 54 60
        E 0 90 56 60
        E 60 80 60 00
        E 0 80 62 00
        E 0 80 54 00
        E 0 80 56 00
        E 240 90 60 60
        E 0 90 62 60
        E 0 90 54 60
        E 0 90 56 60
        E 60 80 60 00
        E 0 80 62 00
        E 0 80 54 00
        E 0 80 56 00
        E 180 90 61 60
        E 0 90 55 60
        E 0 90 49 60
        E 60 80 61 00
        E 0 80 55 00
        E 0 80 49 00
        E 60 90 74 5b
        E 120 90 61 60
        E 0 90 62 60
        E 0 90 64 60
        E 0 90 55 60
        E 0 90 58 60
        E 60 80 61 00
        E 0 80 62 00
        E 0 80 64 00
        E 0 80 55 00
        E 0 80 58 00
        E 180 90 61 60
        E 0 90 62 60
        E 0 90 64 60
        E 0 90 55 60
        E 0 90 58 60
        E 0 90 4a 60
        E 0 90 4c 60
        E 0 90 40 60
        E 60 80 61 00
        E 0 80 62 00
        E 0 80 64 00
        E 0 80 55 00
        E 0 80 58 00
        E 0 80 4a 00
        E 0 80 4c 00
        E 0 80 40 00
        E 180 90 61 60
        E 0 90 62 60
        E 0 90 64 60
        E 0 90 55 60
        E 0 90 58 60
        E 60 80 61 00
        E 0 80 62 00
        E 0 80 64 00
        E 0 80 55 00
        E 0 80 58 00
        E 180 90 61 60
        E 0 90 63 60
        E 0 90 55 60
        E 0 90 57 60
        E 0 90 49 60
        E 0 90 4b 60
        E 120 80 55 00
        E 0 80 57 00
        E 0 80 49 00
        E 0 80 4b 00
        E 240 80 61 00
        E 0 80 63 00
        E 60 90 61 60
        E 0 90 63 60
        E 0 90 55 60
        E 0 90 57 60
        E 60 80 61 00
        E 0 80 63 00
        E 0 80 55 00
        E 0 80 57 00
        E 240 90 61 60
        E 0 90 63 60
        E 0 90 55 60
        E 0 90 57 60
        E 60 80 74 00
        E 0 80 61 00
        E 0 80 63 00
        E 0 80 55 00
        E 0 80 57 00
        E 180 90 60 60
        E 0 90 54 60
        E 0 90 48 60
        E 60 80 60 00
        E 0 80 54 00
        E 0 80 48 00
        E 180 90 60 60
        E 0 90 61 60
        E 0 90 62 60
        E 0 90 54 60
        E 0 90 55 60
        E 60 80 60 00
        E 0 80 61 00
        E 0 80 62 00
        E 0 80 54 00
        E 0 80 55 00
        E 180 90 60 60
        E 0 90 61 60
        E 0 90 62 60
        E 0 90 54 60
        E 0 90 55 60
        E 0 90 48 60
        E 0 90 49 60
        E 0 90 3c 60
        E 60 80 60 00
        E 0 80 61 00
        E 0 80 62 00
        E 0 80 54 00
        E 0 80 55 00
        E 0 80 48 00
        E 0 80 49 00
        E 0 80 3c 00
        E 180 90 60 60
        E 0 90 61 60
        E 0 90 62 60
        E 0 90 54 60
        E 0 90 55 60
        E 60 80 60 00
        E 0 80 61 00
        E 0 80 62 00
        E 0 80 54 00
        E 0 80 55 00
        E 180 90 60 60
        E 0 90 62 60
        E 0 90 63 60
        E 0 90 54 60
        E 0 90 57 60
        E 0 90 49 60
        E 0 90 4a 60
        E 60 80 60 00
        E 0 80 62 00
        E 0 80 63 00
        E 0 80 54 00
        E 0 80 57 00
        E 0 80 49 00
        E 0 80 4a 00
        E 180 90 60 60
        E 0 90 62 60
        E 0 90 63 60
        E 0 90 54 60
        E 0 90 57 60
        E 0 90 49 60
        E 0 90 4a 60
        E 60 80 60 00
        E 0 80 62 00
        E 0 80 63 00
        E 0 80 54 00
        E 0 80 57 00
        E 0 80 49 00
        E 0 80 4a 00
        E 180 90 60 60
        E 0 90 62 60
        E 0 90 63 60
        E 0 90 54 60
        E 0 90 57 60
        E 0 90 49 60
        E 0 90 4a 60
        E 0 90 3e 60
        E 60 80 60 00
        E 0 80 62 00
        E 0 80 63 00
        E 0 80 54 00
        E 0 80 57 00
        E 0 80 49 00
        E 0 80 4a 00
        E 0 80 3e 00
        E 180 90 60 60
        E 0 90 62 60
        E 0 90 63 60
        E 0 90 54 60
        E 0 90 57 60
        E 60 80 60 00
        E 0 80 62 00
        E 0 80 63 00
        E 0 80 54 00
        E 0 80 57 00
        E 180 90 61 60
        E 0 90 62 60
        E 0 90 64 60
        E 0 90 55 60
        E 0 90 58 60
        E 0 90 4a 60
        E 0 90 4c 60
        E 60 80 61 00
        E 0 80 62 00
        E 0 80 64 00
        E 0 80 55 00
        E 0 80 58 00
        E 0 80 4a 00
        E 0 80 4c 00
        E 180 90 61 60
        E 0 90 62 60
        E 0 90 64 60
        E 0 90 55 60
        E 0 90 58 60
        E 0 90 4a 60
        E 0 90 4c 60
        E 60 80 61 00
        E 0 80 62 00
        E 0 80 64 00
        E 0 80 55 00
        E 0 80 58 00
        E 0 80 4a 00
        E 0 80 4c 00
        E 180 90 61 60
        E 0 90 62 60
        E 0 90 64 60
        E 0 90 55 60
        E 0 90 58 60
        E 0 90 4a 60
        E 0 90 4c 60
        E 0 90 40 60
        E 60 80 61 00
        E 0 80 62 00
        E 0 80 64 00
        E 0 80 55 00
        E 0 80 58 00
        E 0 80 4a 00
        E 0 80 4c 00
        E 0 80 40 00
        E 180 90 61 60
        E 0 90 62 60
        E 0 90 64 60
        E 0 90 55 60
        E 0 90 58 60
        E 60 80 61 00
        E 0 80 62 00
        E 0 80 64 00
        E 0 80 55 00
        E 0 80 58 00
        E 180 90 61 60
        E 0 90 62 60
        E 0 90 63 60
        E 0 90 55 60
        E 0 90 57 60
        E 0 90 49 60
        E 0 90 4b 60
        E 60 80 61 00
        E 0 80 62 00
        E 0 80 63 00
        E 0 80 55 00
        E 0 80 57 00
        E 0 80 49 00
        E 0 80 4b 00
        E 180 90 61 60
        E 0 90 62 60
        E 0 90 63 60
        E 0 90 55 60
        E 0 90 57 60
        E 0 90 49 60
        E 0 90 4b 60
        E 60 80 61 00
        E 0 80 62 00
        E 0 80 63 00
        E 0 80 55 00
        E 0 80 57 00
        E 0 80 49 00
        E 0 80 4b 00
        E 180 90 61 60
        E 0 90 62 60
        E 0 90 63 60
        E 0 90 55 60
        E 0 90 57 60
        E 0 90 49 60
        E 0 90 4b 60
        E 0 90 3f 60
        E 60 80 61 00
        E 0 80 62 00
        E 0 80 63 00
        E 0 80 55 00
        E 0 80 57 00
        E 0 80 49 00
        E 0 80 4b 00
        E 0 80 3f 00
        E 180 90 61 60
        E 0 90 62 60
        E 0 90 63 60
        E 0 90 55 60
        E 0 90 57 60
        E 60 80 61 00
        E 0 80 62 00
        E 0 80 63 00
        E 0 80 55 00
        E 0 80 57 00
        E 180 90 60 60
        E 0 90 61 60
        E 0 90 62 60
        E 0 90 54 60
        E 0 90 55 60
        E 0 90 48 60
        E 0 90 49 60
        E 60 80 60 00
        E 0 80 61 00
        E 0 80 62 00
        E 0 80 54 00
        E 0 80 55 00
        E 0 80 48 00
        E 0 80 49 00
        E 180 90 60 60
        E 0 90 61 60
        E 0 90 62 60
        E 0 90 54 60
        E 0 90 55 60
        E 0 90 48 60
        E 0 90 49 60
        E 60 80 60 00
        E 0 80 61 00
        E 0 80 62 00
        E 0 80 54 00
        E 0 80 55 00
        E 0 80 48 00
        E 0 80 49 00
        E 180 90 60 60
        E 0 90 61 60
        E 0 90 62 60
        E 0 90 54 60
        E 0 90 55 60
        E 0 90 48 60
        E 0 90 49 60
        E 0 90 3c 60
        E 60 80 60 00
        E 0 80 61 00
        E 0 80 62 00
        E 0 80 54 00
        E 0 80 55 00
        E 0 80 48 00
        E 0 80 49 00
        E 0 80 3c 00
        E 180 90 60 60
        E 0 90 61 60
        E 0 90 62 60
        E 0 90 54 60
        E 0 90 55 60
        E 60 80 60 00
        E 0 80 61 00
        E 0 80 62 00
        E 0 80 54 00
        E 0 80 55 00
        E 180 90 60 60
        E 0 90 62 60
        E 0 90 54 60
        E 0 90 56 60
        E 0 90 48 60
        E 0 90 4a 60
        E 120 80 54 00
        E 0 80 56 00
        E 0 80 48 00
        E 0 80 4a 00
        E 240 80 60 00
        E 0 80 62 00
        E 60 90 60 60
        E 0 90 62 60
        E 0 90 54 60
        E 0 90 56 60
        E 60 80 60 00
        E 0 80 62 00
        E 0 80 54 00
        E 0 80 56 00
        E 240 90 60 60
        E 0 90 62 60
        E 0 90 54 60
        E 0 90 56 60
        E 60 80 60 00
        E 0 80 62 00
        E 0 80 54 00
        E 0 80 56 00
        E 180 90 61 60
        E 0 90 55 60
        E 0 90 49 60
        E 60 80 61 00
        E 0 80 55 00
        E 0 80 49 00
        E 180 90 61 60
        E 0 90 62 60
        E 0 90 64 60
        E 0 90 55 60
        E 0 90 58 60
        E 60 80 61 00
        E 0 80 62 00
        E 0 80 64 00
        E 0 80 55 00
        E 0 80 58 00
        E 180 90 61 60
        E 0 90 62 60
        E 0 90 64 60
        E 0 90 55 60
        E 0 90 58 60
        E 0 90 4a 60
        E 0 90 4c 60
        E 0 90 40 60
        E 60 80 61 00
        E 0 80 62 00
        E 0 80 64 00
        E 0 80 55 00
        E 0 80 58 00
        E 0 80 4a 00
        E 0 80 4c 00
        E 0 80 40 00
        E 180 90 61 60
        E 0 90 62 60
        E 0 90 64 60
        E 0 90 55 60
        E 0 90 58 60
        E 60 80 61 00
        E 0 80 62 00
        E 0 80 64 00
        E 0 80 55 00
        E 0 80 58 00
        E 180 90 61 60
        E 0 90 63 60
        E 0 90 55 60
        E 0 90 57 60
        E 0 90 49 60
        E 0 90 4b 60
        E 120 80 55 00
        E 0 80 57 00
        E 0 80 49 00
        E 0 80 4b 00
        E 240 80 61 00
        E 0 80 63 00
        E 60 90 61 60
        E 0 90 63 60
        E 0 90 55 60
        E 0 90 57 60
        E 60 80 61 00
        E 0 80 63 00
        E 0 80 55 00
        E 0 80 57 00
        E 240 90 61 60
        E 0 90 63 60
        E 0 90 55 60
        E 0 90 57 60
        E 60 80 61 00
        E 0 80 63 00
        E 0 80 55 00
        E 0 80 57 00
        E 180 90 61 60
        E 0 90 55 60
        E 0 90 49 60
        E 0 90 3c 60
        E 60 80 61 00
        E 0 80 55 00
        E 0 80 49 00
        E 0 80 3c 00
        E 900 90 60 60
        E 0 90 62 60
        E 0 90 63 60
        E 0 90 54 60
        E 0 90 57 60
        E 0 90 49 60
        E 0 90 4a 60
        E 0 90 3e 60
        E 60 80 60 00
        E 0 80 62 00
        E 0 80 63 00
        E 0 80 54 00
        E 0 80 57 00
        E 0 80 49 00
        E 0 80 4a 00
        E 0 80 3e 00
        E 180 90 60 60
        E 0 90 62 60
        E 0 90 63 60
        E 0 90 54 60
        E 0 90 57 60
        E 0 90 49 60
        E 0 90 4a 60
        E 60 80 60 00
        E 0 80 62 00
        E 0 80 63 00
        E 0 80 54 00
        E 0 80 57 00
        E 0 80 49 00
        E 0 80 4a 00
        E 180 90 60 60
        E 0 90 62 60
        E 0 90 63 60
        E 0 90 54 60
        E 0 90 57 60
        E 0 90 49 60
        E 0 90 4a 60
        E 0 90 3e 60
        E 60 80 60 00
        E 0 80 62 00
        E 0 80 63 00
        E 0 80 54 00
        E 0 80 57 00
        E 0 80 49 00
        E 0 80 4a 00
        E 0 80 3e 00
        E 180 90 60 60
        E 0 90 62 60
        E 0 90 63 60
        E 0 90 54 60
        E 0 90 57 60
        E 60 80 60 00
        E 0 80 62 00
        E 0 80 63 00
        E 0 80 54 00
        E 0 80 57 00
        E 180 90 61 60
        E 0 90 62 60
        E 0 90 64 60
        E 0 90 55 60
        E 0 90 58 60
        E 0 90 4a 60
        E 0 90 4c 60
        E 60 80 61 00
        E 0 80 62 00
        E 0 80 64 00
        E 0 80 55 00
        E 0 80 58 00
        E 0 80 4a 00
        E 0 80 4c 00
        E 180 90 61 60
        E 0 90 62 60
        E 0 90 64 60
        E 0 90 55 60
        E 0 90 58 60
        E 0 90 4a 60
        E 0 90 4c 60
        E 60 80 61 00
        E 0 80 62 00
        E 0 80 64 00
        E 0 80 55 00
        E 0 80 58 00
        E 0 80 4a 00
        E 0 80 4c 00
        E 180 90 61 60
        E 0 90 62 60
        E 0 90 64 60
        E 0 90 55 60
        E 0 90 58 60
        E 0 90 4a 60
        E 0 90 4c 60
        E 0 90 40 60
        E 60 80 61 00
        E 0 80 62 00
        E 0 80 64 00
        E 0 80 55 00
        E 0 80 58 00
        E 0 80 4a 00
        E 0 80 4c 00
        E 0 80 40 00
        E 180 90 61 60
        E 0 90 62 60
        E 0 90 64 60
        E 0 90 55 60
        E 0 90 58 60
        E 60 80 61 00
        E 0 80 62 00
        E 0 80 64 00
        E 0 80 55 00
        E 0 80 58 00
        E 180 90 60 60
        E 0 90 61 60
        E 0 90 63 60
        E 0 90 54 60
        E 0 90 56 60
        E 0 90 48 60
        E 0 90 4a 60
        E 60 80 60 00
        E 0 80 61 00
        E 0 80 63 00
        E 0 80 54 00
        E 0 80 56 00
        E 0 80 48 00
        E 0 80 4a 00
        E 180 90 60 60
        E 0 90 61 60
        E 0 90 63 60
        E 0 90 54 60
        E 0 90 56 60
        E 0 90 48 60
        E 0 90 4a 60
        E 60 80 60 00
        E 0 80 61 00
        E 0 80 63 00
        E 0 80 54 00
        E 0 80 56 00
        E 0 80 48 00
        E 0 80 4a 00
        E 180 90 60 60
        E 0 90 61 60
        E 0 90 63 60
        E 0 90 54 60
        E 0 90 56 60
        E 0 90 48 60
        E 0 90 4a 60
        E 0 90 3d 60
        E 60 80 60 00
        E 0 80 61 00
        E 0 80 63 00
        E 0 80 54 00
        E 0 80 56 00
        E 0 80 48 00
        E 0 80 4a 00
        E 0 80 3d 00
        E 180 90 60 60
        E 0 90 61 60
        E 0 90 63 60
        E 0 90 54 60
        E 0 90 56 60
        E 0 90 48 60
        E 0 90 4a 60
        E 60 80 60 00
        E 0 80 61 00
        E 0 80 63 00
        E 0 80 54 00
        E 0 80 56 00
        E 0 80 48 00
        E 0 80 4a 00
        E 180 90 60 60
        E 0 90 61 60
        E 0 90 63 60
        E 0 90 54 60
        E 0 90 56 60
        E 0 90 48 60
        E 0 90 4a 60
        E 0 90 3d 60
        E 60 80 60 00
        E 0 80 61 00
        E 0 80 63 00
        E 0 80 54 00
        E 0 80 56 00
        E 0 80 48 00
        E 0 80 4a 00
        E 0 80 3d 00
        E 180 90 60 60
        E 0 90 61 60
        E 0 90 63 60
        E 0 90 54 60
        E 0 90 56 60
        E 0 90 48 60
        E 0 90 4a 60
        E 60 80 60 00
        E 0 80 61 00
        E 0 80 63 00
        E 0 80 54 00
        E 0 80 56 00
        E 0 80 48 00
        E 0 80 4a 00
        E 180 90 60 60
        E 0 90 61 60
        E 0 90 63 60
        E 0 90 54 60
        E 0 90 56 60
        E 0 90 48 60
        E 0 90 4a 60
        E 0 90 3d 60
        E 60 80 60 00
        E 0 80 61 00
        E 0 80 63 00
        E 0 80 54 00
        E 0 80 56 00
        E 0 80 48 00
        E 0 80 4a 00
        E 0 80 3d 00
        E 180 90 60 60
        E 0 90 61 60
        E 0 90 63 60
        E 0 90 54 60
        E 0 90 56 60
        E 60 80 60 00
        E 0 80 61 00
        E 0 80 63 00
        E 0 80 54 00
        E 0 80 56 00
        E 180 90 60 60
        E 0 90 61 60
        E 0 90 62 60
        E 0 90 54 60
        E 0 90 55 60
        E 0 90 48 60
        E 0 90 49 60
        E 60 80 60 00
        E 0 80 61 00
        E 0 80 62 00
        E 0 80 54 00
        E 0 80 55 00
        E 0 80 48 00
        E 0 80 49 00
        E 180 90 60 60
        E 0 90 61 60
        E 0 90 62 60
        E 0 90 54 60
        E 0 90 55 60
        E 0 90 48 60
        E 0 90 49 60
        E 60 80 60 00
        E 0 80 61 00
        E 0 80 62 00
        E 0 80 54 00
        E 0 80 55 00
        E 0 80 48 00
        E 0 80 49 00
        E 180 90 60 60
        E 0 90 61 60
        E 0 90 62 60
        E 0 90 54 60
        E 0 90 55 60
        E 0 90 48 60
        E 0 90 49 60
        E 0 90 3c 60
        E 60 80 60 00
        E 0 80 61 00
        E 0 80 62 00
        E 0 80 54 00
        E 0 80 55 00
        E 0 80 48 00
        E 0 80 49 00
        E 0 80 3c 00
        E 180 90 60 60
        E 0 90 61 60
        E 0 90 62 60
        E 0 90 54 60
        E 0 90 55 60
        E 0 90 48 60
        E 0 90 49 60
        E 60 80 60 00
        E 0 80 61 00
        E 0 80 62 00
        E 0 80 54 00
        E 0 80 55 00
        E 0 80 48 00
        E 0 80 49 00
        E 180 90 60 60
        E 0 90 61 60
        E 0 90 62 60
        E 0 90 54 60
        E 0 90 55 60
        E 0 90 48 60
        E 0 90 49 60
        E 0 90 3c 60
        E 60 80 60 00
        E 0 80 61 00
        E 0 80 62 00
        E 0 80 54 00
        E 0 80 55 00
        E 0 80 48 00
        E 0 80 49 00
        E 0 80 3c 00
        E 180 90 60 60
        E 0 90 61 60
        E 0 90 62 60
        E 0 90 54 60
        E 0 90 55 60
        E 0 90 48 60
        E 0 90 49 60
        E 60 80 60 00
        E 0 80 61 00
        E 0 80 62 00
        E 0 80 54 00
        E 0 80 55 00
        E 0 80 48 00
        E 0 80 49 00
        E 180 90 60 60
        E 0 90 61 60
        E 0 90 62 60
        E 0 90 54 60
        E 0 90 55 60
        E 0 90 48 60
        E 0 90 49 60
        E 0 90 3c 60
        E 60 80 60 00
        E 0 80 61 00
        E 0 80 62 00
        E 0 80 54 00
        E 0 80 55 00
        E 0 80 48 00
        E 0 80 49 00
        E 0 80 3c 00
        E 180 90 60 60
        E 0 90 61 60
        E 0 90 62 60
        E 0 90 54 60
        E 0 90 55 60
        E 0 90 48 60
        E 0 90 49 60
        E 60 80 60 00
        E 0 80 61 00
        E 0 80 62 00
        E 0 80 54 00
        E 0 80 55 00
        E 0 80 48 00
        E 0 80 49 00
        E 180 90 60 60
        E 0 90 61 60
        E 0 90 62 60
        E 0 90 54 60
        E 0 90 55 60
        E 0 90 48 60
        E 0 90 49 60
        E 0 90 3c 60
        E 60 80 60 00
        E 0 80 61 00
        E 0 80 62 00
        E 0 80 54 00
        E 0 80 55 00
        E 0 80 48 00
        E 0 80 49 00
        E 0 80 3c 00
        E 180 90 60 60
        E 0 90 61 60
        E 0 90 62 60
        E 0 90 54 60
        E 0 90 55 60
        E 0 90 48 60
        E 0 90 49 60
        E 60 80 60 00
        E 0 80 61 00
        E 0 80 62 00
        E 0 80 54 00
        E 0 80 55 00
        E 0 80 48 00
        E 0 80 49 00
        E 180 90 60 60
        E 0 90 61 60
        E 0 90 62 60
        E 0 90 54 60
        E 0 90 55 60
        E 0 90 48 60
        E 0 90 49 60
        E 0 90 3c 60
        E 60 80 60 00
        E 0 80 61 00
        E 0 80 62 00
        E 0 80 54 00
        E 0 80 55 00
        E 0 80 48 00
        E 0 80 49 00
        E 0 80 3c 00
        E 180 90 60 60
        E 0 90 61 60
        E 0 90 62 60
        E 0 90 54 60
        E 0 90 55 60
        E 0 90 48 60
        E 0 90 49 60
        E 60 80 60 00
        E 0 80 61 00
        E 0 80 62 00
        E 0 80 54 00
        E 0 80 55 00
        E 0 80 48 00
        E 0 80 49 00
        E 180 90 60 60
        E 0 90 61 60
        E 0 90 62 60
        E 0 90 54 60
        E 0 90 55 60
        E 0 90 48 60
        E 0 90 49 60
        E 60 80 60 00
        E 0 80 61 00
        E 0 80 62 00
        E 0 80 54 00
        E 0 80 55 00
        E 0 80 48 00
        E 0 80 49 00
        E 180 90 60 60
        E 0 90 61 60
        E 0 90 62 60
        E 0 90 54 60
        E 0 90 55 60
        E 60 80 60 00
        E 0 80 61 00
        E 0 80 62 00
        E 0 80 54 00
        E 0 80 55 00
        E 180 90 60 60
        E 0 90 61 60
        E 0 90 63 60
        E 0 90 54 60
        E 0 90 56 60
        E 0 90 48 60
        E 0 90 4a 60
        E 0 90 3d 60
        E 60 80 60 00
        E 0 80 61 00
        E 0 80 63 00
        E 0 80 54 00
        E 0 80 56 00
        E 0 80 48 00
        E 0 80 4a 00
        E 0 80 3d 00
        E 180 90 60 60
        E 0 90 61 60
        E 0 90 63 60
        E 0 90 54 60
        E 0 90 56 60
        E 60 80 60 00
        E 0 80 61 00
        E 0 80 63 00
        E 0 80 54 00
        E 0 80 56 00
        E 180 90 60 60
        E 0 90 62 60
        E 0 90 63 60
        E 0 90 54 60
        E 0 90 57 60
        E 0 90 49 60
        E 0 90 4a 60
        E 60 80 60 00
        E 0 80 62 00
        E 0 80 63 00
        E 0 80 54 00
        E 0 80 57 00
        E 0 80 49 00
        E 0 80 4a 00
        E 180 90 60 60
        E 0 90 62 60
        E 0 90 63 60
        E 0 90 54 60
        E 0 90 57 60
        E 0 90 49 60
        E 0 90 4a 60
        E 60 80 60 00
        E 0 80 62 00
        E 0 80 63 00
        E 0 80 54 00
        E 0 80 57 00
        E 0 80 49 00
        E 0 80 4a 00
        E 180 90 60 60
        E 0 90 62 60
        E 0 90 63 60
        E 0 90 54 60
        E 0 90 57 60
        E 0 90 49 60
        E 0 90 4a 60
        E 0 90 3e 60
        E 60 80 60 00
        E 0 80 62 00
        E 0 80 63 00
        E 0 80 54 00
        E 0 80 57 00
        E 0 80 49 00
        E 0 80 4a 00
        E 0 80 3e 00
        E 180 90 60 60
        E 0 90 62 60
        E 0 90 63 60
        E 0 90 54 60
        E 0 90 57 60
        E 60 80 60 00
        E 0 80 62 00
        E 0 80 63 00
        E 0 80 54 00
        E 0 80 57 00
        E 180 90 61 60
        E 0 90 62 60
        E 0 90 64 60
        E 0 90 55 60
        E 0 90 58 60
        E 0 90 4a 60
        E 0 90 4c 60
        E 60 80 61 00
        E 0 80 62 00
        E 0 80 64 00
        E 0 80 55 00
        E 0 80 58 00
        E 0 80 4a 00
        E 0 80 4c 00
        E 180 90 61 60
        E 0 90 62 60
        E 0 90 64 60
        E 0 90 55 60
        E 0 90 58 60
        E 0 90 4a 60
        E 0 90 4c 60
        E 60 80 61 00
        E 0 80 62 00
        E 0 80 64 00
        E 0 80 55 00
        E 0 80 58 00
        E 0 80 4a 00
        E 0 80 4c 00
        E 180 90 61 60
        E 0 90 62 60
        E 0 90 64 60
        E 0 90 55 60
        E 0 90 58 60
        E 0 90 4a 60
        E 0 90 4c 60
        E 0 90 40 60
        E 60 80 61 00
        E 0 80 62 00
        E 0 80 64 00
        E 0 80 55 00
        E 0 80 58 00
        E 0 80 4a 00
        E 0 80 4c 00
        E 0 80 40 00
        E 180 90 61 60
        E 0 90 62 60
        E 0 90 64 60
        E 0 90 55 60
        E 0 90 58 60
        E 60 80 61 00
        E 0 80 62 00
        E 0 80 64 00
        E 0 80 55 00
        E 0 80 58 00
        E 180 90 60 60
        E 0 90 61 60
        E 0 90 63 60
        E 0 90 54 60
        E 0 90 56 60
        E 0 90 48 60
        E 0 90 4a 60
        E 60 80 60 00
        E 0 80 61 00
        E 0 80 63 00
        E 0 80 54 00
        E 0 80 56 00
        E 0 80 48 00
        E 0 80 4a 00
        E 179 90 63 60
        E 1 90 60 60
        E 0 90 61 60
        E 0 90 54 60
        E 0 90 55 60
        E 59 80 63 00
        E 1 80 60 00
        E 0 80 61 00
        E 0 80 54 00
        E 0 80 55 00
        E 120 90 74 60
        E 59 90 63 60
        E 1 90 60 60
        E 0 90 61 60
        E 0 90 54 60
        E 0 90 55 60
        E 0 90 48 60
        E 0 90 49 60
        E 0 90 3c 60
        E 59 80 63 00
        E 1 80 60 00
        E 0 80 61 00
        E 0 80 54 00
        E 0 80 55 00
        E 0 80 48 00
        E 0 80 49 00
        E 0 80 3c 00
        E 179 90 63 60
        E 1 90 60 60
        E 0 90 61 60
        E 0 90 54 60
        E 0 90 55 60
        E 0 90 48 60
        E 0 90 49 60
        E 59 80 63 00
        E 1 80 60 00
        E 0 80 61 00
        E 0 80 54 00
        E 0 80 55 00
        E 0 80 48 00
        E 0 80 49 00
        E 179 90 63 60
        E 1 90 60 60
        E 0 90 61 60
        E 0 90 54 60
        E 0 90 55 60
        E 0 90 48 60
        E 0 90 49 60
        E 0 90 3c 60
        E 59 80 63 00
        E 1 80 60 00
        E 0 80 61 00
        E 0 80 54 00
        E 0 80 55 00
        E 0 80 48 00
        E 0 80 49 00
        E 0 80 3c 00
        E 179 90 63 60
        E 1 90 60 60
        E 0 90 61 60
        E 0 90 54 60
        E 0 90 55 60
        E 0 90 48 60
        E 0 90 49 60
        E 59 80 63 00
        E 1 80 60 00
        E 0 80 61 00
        E 0 80 54 00
        E 0 80 55 00
        E 0 80 48 00
        E 0 80 49 00
        E 179 90 63 60
        E 1 90 60 60
        E 0 90 61 60
        E 0 90 54 60
        E 0 90 55 60
        E 0 90 48 60
        E 0 90 49 60
        E 0 90 3c 60
        E 59 80 63 00
        E 1 80 60 00
        E 0 80 61 00
        E 0 80 54 00
        E 0 80 55 00
        E 0 80 48 00
        E 0 80 49 00
        E 0 80 3c 00
        E 120 80 74 00
        E 59 90 63 60
        E 1 90 60 60
        E 0 90 61 60
        E 0 90 54 60
        E 0 90 55 60
        E 0 90 48 60
        E 0 90 49 60
        E 59 80 63 00
        E 1 80 60 00
        E 0 80 61 00
        E 0 80 54 00
        E 0 80 55 00
        E 0 80 48 00
        E 0 80 49 00
        E 180 90 60 60
        E 0 90 61 60
        E 0 90 62 60
        E 0 90 54 60
        E 0 90 55 60
        E 0 90 48 60
        E 0 90 49 60
        E 0 90 3c 60
        E 60 80 60 00
        E 0 80 61 00
        E 0 80 62 00
        E 0 80 54 00
        E 0 80 55 00
        E 0 80 48 00
        E 0 80 49 00
        E 0 80 3c 00
        E 180 90 60 60
        E 0 90 61 60
        E 0 90 62 60
        E 0 90 54 60
        E 0 90 55 60
        E 0 90 48 60
        E 0 90 49 60
        E 60 80 60 00
        E 0 80 61 00
        E 0 80 62 00
        E 0 80 54 00
        E 0 80 55 00
        E 0 80 48 00
        E 0 80 49 00
        E 180 90 60 60
        E 0 90 61 60
        E 0 90 62 60
        E 0 90 54 60
        E 0 90 55 60
        E 0 90 48 60
        E 0 90 49 60
        E 0 90 3c 60
        E 60 80 60 00
        E 0 80 61 00
        E 0 80 62 00
        E 0 80 54 00
        E 0 80 55 00
        E 0 80 48 00
        E 0 80 49 00
        E 0 80 3c 00
        E 180 90 60 60
        E 0 90 61 60
        E 0 90 62 60
        E 0 90 54 60
        E 0 90 55 60
        E 0 90 48 60
        E 0 90 49 60
        E 60 80 60 00
        E 0 80 61 00
        E 0 80 62 00
        E 0 80 54 00
        E 0 80 55 00
        E 0 80 48 00
        E 0 80 49 00
        E 180 90 60 60
        E 0 90 61 60
        E 0 90 62 60
        E 0 90 54 60
        E 0 90 55 60
        E 0 90 48 60
        E 0 90 49 60
        E 0 90 3c 60
        E 60 80 60 00
        E 0 80 61 00
        E 0 80 62 00
        E 0 80 54 00
        E 0 80 55 00
        E 0 80 48 00
        E 0 80 49 00
        E 0 80 3c 00
        E 180 90 60 60
        E 0 90 61 60
        E 0 90 62 60
        E 0 90 54 60
        E 0 90 55 60
        E 0 90 48 60
        E 0 90 49 60
        E 60 80 60 00
        E 0 80 61 00
        E 0 80 62 00
        E 0 80 54 00
        E 0 80 55 00
        E 0 80 48 00
        E 0 80 49 00
        E 180 90 60 60
        E 0 90 61 60
        E 0 90 62 60
        E 0 90 54 60
        E 0 90 55 60
        E 0 90 48 60
        E 0 90 49 60
        E 0 90 3c 60
        E 60 80 60 00
        E 0 80 61 00
        E 0 80 62 00
        E 0 80 54 00
        E 0 80 55 00
        E 0 80 48 00
        E 0 80 49 00
        E 0 80 3c 00
        E 180 90 60 60
        E 0 90 61 60
        E 0 90 62 60
        E 0 90 54 60
        E 0 90 55 60
        E 0 90 48 60
        E 0 90 49 60
        E 60 80 60 00
        E 0 80 61 00
        E 0 80 62 00
        E 0 80 54 00
        E 0 80 55 00
        E 0 80 48 00
        E 0 80 49 00
        E 180 90 60 60
        E 0 90 61 60
        E 0 90 62 60
        E 0 90 54 60
        E 0 90 55 60
        E 0 90 48 60
        E 0 90 49 60
        E 0 90 3c 60
        E 60 80 60 00
        E 0 80 61 00
        E 0 80 62 00
        E 0 80 54 00
        E 0 80 55 00
        E 0 80 48 00
        E 0 80 49 00
        E 0 80 3c 00
        E 180 90 60 60
        E 0 90 61 60
        E 0 90 62 60
        E 0 90 54 60
        E 0 90 55 60
        E 0 90 48 60
        E 0 90 49 60
        E 60 80 60 00
        E 0 80 61 00
        E 0 80 62 00
        E 0 80 54 00
        E 0 80 55 00
        E 0 80 48 00
        E 0 80 49 00
        E 180 90 60 60
        E 0 90 61 60
        E 0 90 62 60
        E 0 90 54 60
        E 0 90 55 60
        E 0 90 48 60
        E 0 90 49 60
        E 0 90 3c 60
        E 60 80 60 00
        E 0 80 61 00
        E 0 80 62 00
        E 0 80 54 00
        E 0 80 55 00
        E 0 80 48 00
        E 0 80 49 00
        E 0 80 3c 00
        E 180 90 60 60
        E 0 90 61 60
        E 0 90 62 60
        E 0 90 54 60
        E 0 90 55 60
        E 60 80 60 00
        E 0 80 61 00
        E 0 80 62 00
        E 0 80 54 00
        E 0 80 55 00
        E 180 90 60 60
        E 0 90 54 60
        E 0 90 48 60
        E 60 80 60 00
        E 0 80 54 00
        E 0 80 48 00
        E 180 90 60 60
        E 0 90 54 60
        E 60 80 60 00
        E 0 80 54 00
        E 180 90 60 60
        E 0 90 61 60
        E 0 90 63 60
        E 0 90 54 60
        E 0 90 56 60
        E 0 90 48 60
        E 0 90 4a 60
        E 0 90 3d 60
        E 120 80 54 00
        E 0 80 56 00
        E 0 80 48 00
        E 0 80 4a 00
        E 0 80 3d 00
        E 180 80 60 00
        E 0 80 61 00
        E 0 80 63 00
        E 180 90 60 60
        E 0 90 54 60
        E 0 90 48 60
        E 60 80 60 00
        E 0 80 54 00
        E 0 80 48 00
        <X 480 0
          /wFbaWRsZV0=
        >
        <X 14340 0
          /wFbcGxheV0=
        >
        E 480 90 60 60
        E 0 90 62 60
        E 0 90 63 60
        E 0 90 54 60
        E 0 90 57 60
        E 0 90 49 60
        E 0 90 4a 60
        E 0 90 3e 60
        E 60 80 60 00
        E 0 80 62 00
        E 0 80 63 00
        E 0 80 54 00
        E 0 80 57 00
        E 0 80 49 00
        E 0 80 4a 00
        E 0 80 3e 00
        E 180 90 60 60
        E 0 90 62 60
        E 0 90 63 60
        E 0 90 54 60
        E 0 90 57 60
        E 0 90 49 60
        E 0 90 4a 60
        E 60 80 60 00
        E 0 80 62 00
        E 0 80 63 00
        E 0 80 54 00
        E 0 80 57 00
        E 0 80 49 00
        E 0 80 4a 00
        E 180 90 60 60
        E 0 90 62 60
        E 0 90 63 60
        E 0 90 54 60
        E 0 90 57 60
        E 0 90 49 60
        E 0 90 4a 60
        E 0 90 3e 60
        E 60 80 60 00
        E 0 80 62 00
        E 0 80 63 00
        E 0 80 54 00
        E 0 80 57 00
        E 0 80 49 00
        E 0 80 4a 00
        E 0 80 3e 00
        E 180 90 60 60
        E 0 90 62 60
        E 0 90 63 60
        E 0 90 54 60
        E 0 90 57 60
        E 60 80 60 00
        E 0 80 62 00
        E 0 80 63 00
        E 0 80 54 00
        E 0 80 57 00
        E 180 90 61 60
        E 0 90 62 60
        E 0 90 64 60
        E 0 90 55 60
        E 0 90 58 60
        E 0 90 4a 60
        E 0 90 4c 60
        E 60 80 61 00
        E 0 80 62 00
        E 0 80 64 00
        E 0 80 55 00
        E 0 80 58 00
        E 0 80 4a 00
        E 0 80 4c 00
        E 180 90 61 60
        E 0 90 62 60
        E 0 90 64 60
        E 0 90 55 60
        E 0 90 58 60
        E 0 90 4a 60
        E 0 90 4c 60
        E 60 80 61 00
        E 0 80 62 00
        E 0 80 64 00
        E 0 80 55 00
        E 0 80 58 00
        E 0 80 4a 00
        E 0 80 4c 00
        E 180 90 61 60
        E 0 90 62 60
        E 0 90 64 60
        E 0 90 55 60
        E 0 90 58 60
        E 0 90 4a 60
        E 0 90 4c 60
        E 0 90 40 60
        E 60 80 61 00
        E 0 80 62 00
        E 0 80 64 00
        E 0 80 55 00
        E 0 80 58 00
        E 0 80 4a 00
        E 0 80 4c 00
        E 0 80 40 00
        E 180 90 61 60
        E 0 90 62 60
        E 0 90 64 60
        E 0 90 55 60
        E 0 90 58 60
        E 60 80 61 00
        E 0 80 62 00
        E 0 80 64 00
        E 0 80 55 00
        E 0 80 58 00
        E 180 90 61 60
        E 0 90 62 60
        E 0 90 63 60
        E 0 90 55 60
        E 0 90 57 60
        E 0 90 49 60
        E 0 90 4b 60
        E 60 80 61 00
        E 0 80 62 00
        E 0 80 63 00
        E 0 80 55 00
        E 0 80 57 00
        E 0 80 49 00
        E 0 80 4b 00
        E 180 90 61 60
        E 0 90 62 60
        E 0 90 63 60
        E 0 90 55 60
        E 0 90 57 60
        E 0 90 49 60
        E 0 90 4b 60
        E 60 80 61 00
        E 0 80 62 00
        E 0 80 63 00
        E 0 80 55 00
        E 0 80 57 00
        E 0 80 49 00
        E 0 80 4b 00
        E 180 90 61 60
        E 0 90 62 60
        E 0 90 63 60
        E 0 90 55 60
        E 0 90 57 60
        E 0 90 49 60
        E 0 90 4b 60
        E 0 90 3f 60
        E 60 80 61 00
        E 0 80 62 00
        E 0 80 63 00
        E 0 80 55 00
        E 0 80 57 00
        E 0 80 49 00
        E 0 80 4b 00
        E 0 80 3f 00
        E 180 90 61 60
        E 0 90 62 60
        E 0 90 63 60
        E 0 90 55 60
        E 0 90 57 60
        E 60 80 61 00
        E 0 80 62 00
        E 0 80 63 00
        E 0 80 55 00
        E 0 80 57 00
        E 180 90 60 60
        E 0 90 61 60
        E 0 90 62 60
        E 0 90 54 60
        E 0 90 55 60
        E 0 90 48 60
        E 0 90 49 60
        E 60 80 60 00
        E 0 80 61 00
        E 0 80 62 00
        E 0 80 54 00
        E 0 80 55 00
        E 0 80 48 00
        E 0 80 49 00
        E 180 90 60 60
        E 0 90 61 60
        E 0 90 62 60
        E 0 90 54 60
        E 0 90 55 60
        E 0 90 48 60
        E 0 90 49 60
        E 60 80 60 00
        E 0 80 61 00
        E 0 80 62 00
        E 0 80 54 00
        E 0 80 55 00
        E 0 80 48 00
        E 0 80 49 00
        E 180 90 60 60
        E 0 90 61 60
        E 0 90 62 60
        E 0 90 54 60
        E 0 90 55 60
        E 0 90 48 60
        E 0 90 49 60
        E 0 90 3c 60
        E 60 80 60 00
        E 0 80 61 00
        E 0 80 62 00
        E 0 80 54 00
        E 0 80 55 00
        E 0 80 48 00
        E 0 80 49 00
        E 0 80 3c 00
        E 180 90 60 60
        E 0 90 61 60
        E 0 90 62 60
        E 0 90 54 60
        E 0 90 55 60
        E 60 80 60 00
        E 0 80 61 00
        E 0 80 62 00
        E 0 80 54 00
        E 0 80 55 00
        E 180 90 60 60
        E 0 90 62 60
        E 0 90 74 60
        E 0 90 54 60
        E 0 90 56 60
        E 0 90 48 60
        E 0 90 4a 60
        E 120 80 54 00
        E 0 80 56 00
        E 0 80 48 00
        E 0 80 4a 00
        E 240 80 60 00
        E 0 80 62 00
        E 60 90 60 60
        E 0 90 62 60
        E 0 90 54 60
        E 0 90 56 60
        E 60 80 60 00
        E 0 80 62 00
        E 0 80 54 00
        E 0 80 56 00
        E 240 90 60 60
        E 0 90 62 60
        E 0 90 54 60
        E 0 90 56 60
        E 60 80 60 00
        E 0 80 62 00
        E 0 80 54 00
        E 0 80 56 00
        E 180 90 61 60
        E 0 90 55 60
        E 0 90 49 60
        E 60 80 61 00
        E 0 80 55 00
        E 0 80 49 00
        E 180 90 61 60
        E 0 90 62 60
        E 0 90 64 60
        E 0 90 55 60
        E 0 90 58 60
        E 60 80 61 00
        E 0 80 62 00
        E 0 80 64 00
        E 0 80 55 00
        E 0 80 58 00
        E 180 90 61 60
        E 0 90 62 60
        E 0 90 64 60
        E 0 90 55 60
        E 0 90 58 60
        E 0 90 4a 60
        E 0 90 4c 60
        E 0 90 40 60
        E 60 80 61 00
        E 0 80 62 00
        E 0 80 64 00
        E 0 80 55 00
        E 0 80 58 00
        E 0 80 4a 00
        E 0 80 4c 00
        E 0 80 40 00
        E 180 90 61 60
        E 0 90 62 60
        E 0 90 64 60
        E 0 90 55 60
        E 0 90 58 60
        E 60 80 61 00
        E 0 80 62 00
        E 0 80 64 00
        E 0 80 55 00
        E 0 80 58 00
        E 180 90 61 60
        E 0 90 63 60
        E 0 90 55 60
        E 0 90 57 60
        E 0 90 49 60
        E 0 90 4b 60
        E 120 80 55 00
        E 0 80 57 00
        E 0 80 49 00
        E 0 80 4b 00
        E 240 80 61 00
        E 0 80 63 00
        E 60 90 61 60
        E 0 90 63 60
        E 0 90 55 60
        E 0 90 57 60
        E 60 80 74 00
        E 0 80 61 00
        E 0 80 63 00
        E 0 80 55 00
        E 0 80 57 00
        E 240 90 61 60
        E 0 90 63 60
        E 0 90 55 60
        E 0 90 57 60
        E 60 80 61 00
        E 0 80 63 00
        E 0 80 55 00
        E 0 80 57 00
        E 180 90 60 60
        E 0 90 54 60
        E 0 90 48 60
        E 60 80 60 00
        E 0 80 54 00
        E 0 80 48 00
        E 180 90 60 60
        E 0 90 61 60
        E 0 90 62 60
        E 0 90 54 60
        E 0 90 55 60
        E 60 80 60 00
        E 0 80 61 00
        E 0 80 62 00
        E 0 80 54 00
        E 0 80 55 00
        E 180 90 60 60
        E 0 90 61 60
        E 0 90 62 60
        E 0 90 54 60
        E 0 90 55 60
        E 0 90 48 60
        E 0 90 49 60
        E 0 90 3c 60
        E 60 80 60 00
        E 0 80 61 00
        E 0 80 62 00
        E 0 80 54 00
        E 0 80 55 00
        E 0 80 48 00
        E 0 80 49 00
        E 0 80 3c 00
        E 180 90 60 60
        E 0 90 61 60
        E 0 90 62 60
        E 0 90 54 60
        E 0 90 55 60
        E 60 80 60 00
        E 0 80 61 00
        E 0 80 62 00
        E 0 80 54 00
        E 0 80 55 00
        E 180 90 60 60
        E 0 90 62 60
        E 0 90 63 60
        E 0 90 54 60
        E 0 90 57 60
        E 0 90 49 60
        E 0 90 4a 60
        E 60 80 60 00
        E 0 80 62 00
        E 0 80 63 00
        E 0 80 54 00
        E 0 80 57 00
        E 0 80 49 00
        E 0 80 4a 00
        E 180 90 60 60
        E 0 90 62 60
        E 0 90 63 60
        E 0 90 54 60
        E 0 90 57 60
        E 0 90 49 60
        E 0 90 4a 60
        E 60 80 60 00
        E 0 80 62 00
        E 0 80 63 00
        E 0 80 54 00
        E 0 80 57 00
        E 0 80 49 00
        E 0 80 4a 00
        E 180 90 60 60
        E 0 90 62 60
        E 0 90 63 60
        E 0 90 54 60
        E 0 90 57 60
        E 0 90 49 60
        E 0 90 4a 60
        E 0 90 3e 60
        E 60 80 60 00
        E 0 80 62 00
        E 0 80 63 00
        E 0 80 54 00
        E 0 80 57 00
        E 0 80 49 00
        E 0 80 4a 00
        E 0 80 3e 00
        E 180 90 60 60
        E 0 90 62 60
        E 0 90 63 60
        E 0 90 54 60
        E 0 90 57 60
        E 60 80 60 00
        E 0 80 62 00
        E 0 80 63 00
        E 0 80 54 00
        E 0 80 57 00
        E 180 90 61 60
        E 0 90 62 60
        E 0 90 64 60
        E 0 90 55 60
        E 0 90 58 60
        E 0 90 4a 60
        E 0 90 4c 60
        E 60 80 61 00
        E 0 80 62 00
        E 0 80 64 00
        E 0 80 55 00
        E 0 80 58 00
        E 0 80 4a 00
        E 0 80 4c 00
        E 180 90 61 60
        E 0 90 62 60
        E 0 90 64 60
        E 0 90 55 60
        E 0 90 58 60
        E 0 90 4a 60
        E 0 90 4c 60
        E 60 80 61 00
        E 0 80 62 00
        E 0 80 64 00
        E 0 80 55 00
        E 0 80 58 00
        E 0 80 4a 00
        E 0 80 4c 00
        E 180 90 61 60
        E 0 90 62 60
        E 0 90 64 60
        E 0 90 55 60
        E 0 90 58 60
        E 0 90 4a 60
        E 0 90 4c 60
        E 0 90 40 60
        E 60 80 61 00
        E 0 80 62 00
        E 0 80 64 00
        E 0 80 55 00
        E 0 80 58 00
        E 0 80 4a 00
        E 0 80 4c 00
        E 0 80 40 00
        E 180 90 61 60
        E 0 90 62 60
        E 0 90 64 60
        E 0 90 55 60
        E 0 90 58 60
        E 60 80 61 00
        E 0 80 62 00
        E 0 80 64 00
        E 0 80 55 00
        E 0 80 58 00
        E 180 90 61 60
        E 0 90 62 60
        E 0 90 63 60
        E 0 90 55 60
        E 0 90 57 60
        E 0 90 49 60
        E 0 90 4b 60
        E 60 80 61 00
        E 0 80 62 00
        E 0 80 63 00
        E 0 80 55 00
        E 0 80 57 00
        E 0 80 49 00
        E 0 80 4b 00
        E 180 90 61 60
        E 0 90 62 60
        E 0 90 63 60
        E 0 90 55 60
        E 0 90 57 60
        E 0 90 49 60
        E 0 90 4b 60
        E 60 80 61 00
        E 0 80 62 00
        E 0 80 63 00
        E 0 80 55 00
        E 0 80 57 00
        E 0 80 49 00
        E 0 80 4b 00
        E 180 90 61 60
        E 0 90 62 60
        E 0 90 63 60
        E 0 90 55 60
        E 0 90 57 60
        E 0 90 49 60
        E 0 90 4b 60
        E 0 90 3f 60
        E 60 80 61 00
        E 0 80 62 00
        E 0 80 63 00
        E 0 80 55 00
        E 0 80 57 00
        E 0 80 49 00
        E 0 80 4b 00
        E 0 80 3f 00
        E 180 90 61 60
        E 0 90 62 60
        E 0 90 63 60
        E 0 90 55 60
        E 0 90 57 60
        E 60 80 61 00
        E 0 80 62 00
        E 0 80 63 00
        E 0 80 55 00
        E 0 80 57 00
        E 180 90 60 60
        E 0 90 61 60
        E 0 90 62 60
        E 0 90 54 60
        E 0 90 55 60
        E 0 90 48 60
        E 0 90 49 60
        E 60 80 60 00
        E 0 80 61 00
        E 0 80 62 00
        E 0 80 54 00
        E 0 80 55 00
        E 0 80 48 00
        E 0 80 49 00
        E 180 90 60 60
        E 0 90 61 60
        E 0 90 62 60
        E 0 90 54 60
        E 0 90 55 60
        E 0 90 48 60
        E 0 90 49 60
        E 60 80 60 00
        E 0 80 61 00
        E 0 80 62 00
        E 0 80 54 00
        E 0 80 55 00
        E 0 80 48 00
        E 0 80 49 00
        E 180 90 60 60
        E 0 90 61 60
        E 0 90 62 60
        E 0 90 54 60
        E 0 90 55 60
        E 0 90 48 60
        E 0 90 49 60
        E 0 90 3c 60
        E 60 80 60 00
        E 0 80 61 00
        E 0 80 62 00
        E 0 80 54 00
        E 0 80 55 00
        E 0 80 48 00
        E 0 80 49 00
        E 0 80 3c 00
        E 180 90 60 60
        E 0 90 61 60
        E 0 90 62 60
        E 0 90 54 60
        E 0 90 55 60
        E 60 80 60 00
        E 0 80 61 00
        E 0 80 62 00
        E 0 80 54 00
        E 0 80 55 00
        E 180 90 60 60
        E 0 90 62 60
        E 0 90 54 60
        E 0 90 56 60
        E 0 90 48 60
        E 0 90 4a 60
        E 120 80 54 00
        E 0 80 56 00
        E 0 80 48 00
        E 0 80 4a 00
        E 240 80 60 00
        E 0 80 62 00
        E 60 90 60 60
        E 0 90 62 60
        E 0 90 54 60
        E 0 90 56 60
        E 60 80 60 00
        E 0 80 62 00
        E 0 80 54 00
        E 0 80 56 00
        E 240 90 60 60
        E 0 90 62 60
        E 0 90 54 60
        E 0 90 56 60
        E 60 80 60 00
        E 0 80 62 00
        E 0 80 54 00
        E 0 80 56 00
        E 180 90 61 60
        E 0 90 55 60
        E 0 90 49 60
        E 60 80 61 00
        E 0 80 55 00
        E 0 80 49 00
        E 180 90 61 60
        E 0 90 62 60
        E 0 90 64 60
        E 0 90 55 60
        E 0 90 58 60
        E 60 80 61 00
        E 0 80 62 00
        E 0 80 64 00
        E 0 80 55 00
        E 0 80 58 00
        E 180 90 61 60
        E 0 90 62 60
        E 0 90 64 60
        E 0 90 55 60
        E 0 90 58 60
        E 0 90 4a 60
        E 0 90 4c 60
        E 0 90 40 60
        E 60 80 61 00
        E 0 80 62 00
        E 0 80 64 00
        E 0 80 55 00
        E 0 80 58 00
        E 0 80 4a 00
        E 0 80 4c 00
        E 0 80 40 00
        E 180 90 61 60
        E 0 90 62 60
        E 0 90 64 60
        E 0 90 55 60
        E 0 90 58 60
        E 60 80 61 00
        E 0 80 62 00
        E 0 80 64 00
        E 0 80 55 00
        E 0 80 58 00
        E 180 90 61 60
        E 0 90 63 60
        E 0 90 55 60
        E 0 90 57 60
        E 0 90 49 60
        E 0 90 4b 60
        E 120 80 55 00
        E 0 80 57 00
        E 0 80 49 00
        E 0 80 4b 00
        E 240 80 61 00
        E 0 80 63 00
        E 60 90 61 60
        E 0 90 63 60
        E 0 90 55 60
        E 0 90 57 60
        E 60 80 61 00
        E 0 80 63 00
        E 0 80 55 00
        E 0 80 57 00
        E 240 90 61 60
        E 0 90 63 60
        E 0 90 55 60
        E 0 90 57 60
        E 60 80 61 00
        E 0 80 63 00
        E 0 80 55 00
        E 0 80 57 00
        E 180 90 61 60
        E 0 90 55 60
        E 0 90 49 60
        E 0 90 3c 60
        E 60 80 61 00
        E 0 80 55 00
        E 0 80 49 00
        E 0 80 3c 00
        E 900 90 60 60
        E 0 90 62 60
        E 0 90 63 60
        E 0 90 54 60
        E 0 90 57 60
        E 0 90 49 60
        E 0 90 4a 60
        E 0 90 3e 60
        E 60 80 60 00
        E 0 80 62 00
        E 0 80 63 00
        E 0 80 54 00
        E 0 80 57 00
        E 0 80 49 00
        E 0 80 4a 00
        E 0 80 3e 00
        E 180 90 60 60
        E 0 90 62 60
        E 0 90 63 60
        E 0 90 54 60
        E 0 90 57 60
        E 0 90 49 60
        E 0 90 4a 60
        E 60 80 60 00
        E 0 80 62 00
        E 0 80 63 00
        E 0 80 54 00
        E 0 80 57 00
        E 0 80 49 00
        E 0 80 4a 00
        E 180 90 60 60
        E 0 90 62 60
        E 0 90 63 60
        E 0 90 54 60
        E 0 90 57 60
        E 0 90 49 60
        E 0 90 4a 60
        E 0 90 3e 60
        E 60 80 60 00
        E 0 80 62 00
        E 0 80 63 00
        E 0 80 54 00
        E 0 80 57 00
        E 0 80 49 00
        E 0 80 4a 00
        E 0 80 3e 00
        E 180 90 60 60
        E 0 90 62 60
        E 0 90 63 60
        E 0 90 54 60
        E 0 90 57 60
        E 60 80 60 00
        E 0 80 62 00
        E 0 80 63 00
        E 0 80 54 00
        E 0 80 57 00
        E 180 90 61 60
        E 0 90 62 60
        E 0 90 64 60
        E 0 90 55 60
        E 0 90 58 60
        E 0 90 4a 60
        E 0 90 4c 60
        E 60 80 61 00
        E 0 80 62 00
        E 0 80 64 00
        E 0 80 55 00
        E 0 80 58 00
        E 0 80 4a 00
        E 0 80 4c 00
        E 180 90 61 60
        E 0 90 62 60
        E 0 90 64 60
        E 0 90 55 60
        E 0 90 58 60
        E 0 90 4a 60
        E 0 90 4c 60
        E 60 80 61 00
        E 0 80 62 00
        E 0 80 64 00
        E 0 80 55 00
        E 0 80 58 00
        E 0 80 4a 00
        E 0 80 4c 00
        E 180 90 61 60
        E 0 90 62 60
        E 0 90 64 60
        E 0 90 74 60
        E 0 90 55 60
        E 0 90 58 60
        E 0 90 4a 60
        E 0 90 4c 60
        E 0 90 40 60
        E 60 80 61 00
        E 0 80 62 00
        E 0 80 64 00
        E 0 80 55 00
        E 0 80 58 00
        E 0 80 4a 00
        E 0 80 4c 00
        E 0 80 40 00
        E 180 90 61 60
        E 0 90 62 60
        E 0 90 64 60
        E 0 90 55 60
        E 0 90 58 60
        E 60 80 61 00
        E 0 80 62 00
        E 0 80 64 00
        E 0 80 55 00
        E 0 80 58 00
        E 180 90 60 60
        E 0 90 61 60
        E 0 90 63 60
        E 0 90 54 60
        E 0 90 56 60
        E 0 90 48 60
        E 0 90 4a 60
        E 60 80 60 00
        E 0 80 61 00
        E 0 80 63 00
        E 0 80 54 00
        E 0 80 56 00
        E 0 80 48 00
        E 0 80 4a 00
        E 60 80 74 00
        E 119 90 63 60
        E 1 90 60 60
        E 0 90 61 60
        E 0 90 54 60
        E 0 90 55 60
        E 59 80 63 00
        E 1 80 60 00
        E 0 80 61 00
        E 0 80 54 00
        E 0 80 55 00
        E 179 90 63 60
        E 1 90 60 60
        E 0 90 61 60
        E 0 90 54 60
        E 0 90 55 60
        E 0 90 48 60
        E 0 90 49 60
        E 0 90 3c 60
        E 59 80 63 00
        E 1 80 60 00
        E 0 80 61 00
        E 0 80 54 00
        E 0 80 55 00
        E 0 80 48 00
        E 0 80 49 00
        E 0 80 3c 00
        E 179 90 63 60
        E 1 90 60 60
        E 0 90 61 60
        E 0 90 54 60
        E 0 90 55 60
        E 0 90 48 60
        E 0 90 49 60
        E 59 80 63 00
        E 1 80 60 00
        E 0 80 61 00
        E 0 80 54 00
        E 0 80 55 00
        E 0 80 48 00
        E 0 80 49 00
        E 179 90 63 60
        E 1 90 60 60
        E 0 90 61 60
        E 0 90 54 60
        E 0 90 55 60
        E 0 90 48 60
        E 0 90 49 60
        E 0 90 3c 60
        E 59 80 63 00
        E 1 80 60 00
        E 0 80 61 00
        E 0 80 54 00
        E 0 80 55 00
        E 0 80 48 00
        E 0 80 49 00
        E 0 80 3c 00
        E 179 90 63 60
        E 1 90 60 60
        E 0 90 61 60
        E 0 90 54 60
        E 0 90 55 60
        E 0 90 48 60
        E 0 90 49 60
        E 59 80 63 00
        E 1 80 60 00
        E 0 80 61 00
        E 0 80 54 00
        E 0 80 55 00
        E 0 80 48 00
        E 0 80 49 00
        E 179 90 63 60
        E 1 90 60 60
        E 0 90 61 60
        E 0 90 54 60
        E 0 90 55 60
        E 0 90 48 60
        E 0 90 49 60
        E 0 90 3c 60
        E 59 80 63 00
        E 1 80 60 00
        E 0 80 61 00
        E 0 80 54 00
        E 0 80 55 00
        E 0 80 48 00
        E 0 80 49 00
        E 0 80 3c 00
        E 179 90 63 60
        E 1 90 60 60
        E 0 90 61 60
        E 0 90 54 60
        E 0 90 55 60
        E 0 90 48 60
        E 0 90 49 60
        E 59 80 63 00
        E 1 80 60 00
        E 0 80 61 00
        E 0 80 54 00
        E 0 80 55 00
        E 0 80 48 00
        E 0 80 49 00
        E 180 90 60 60
        E 0 90 61 60
        E 0 90 62 60
        E 0 90 54 60
        E 0 90 55 60
        E 0 90 48 60
        E 0 90 49 60
        E 0 90 3c 60
        E 60 80 60 00
        E 0 80 61 00
        E 0 80 62 00
        E 0 80 54 00
        E 0 80 55 00
        E 0 80 48 00
        E 0 80 49 00
        E 0 80 3c 00
        E 180 90 60 60
        E 0 90 61 60
        E 0 90 62 60
        E 0 90 54 60
        E 0 90 55 60
        E 0 90 48 60
        E 0 90 49 60
        E 60 80 60 00
        E 0 80 61 00
        E 0 80 62 00
        E 0 80 54 00
        E 0 80 55 00
        E 0 80 48 00
        E 0 80 49 00
        E 180 90 60 60
        E 0 90 61 60
        E 0 90 62 60
        E 0 90 54 60
        E 0 90 55 60
        E 0 90 48 60
        E 0 90 49 60
        E 0 90 3c 60
        E 60 80 60 00
        E 0 80 61 00
        E 0 80 62 00
        E 0 80 54 00
        E 0 80 55 00
        E 0 80 48 00
        E 0 80 49 00
        E 0 80 3c 00
        E 180 90 60 60
        E 0 90 61 60
        E 0 90 62 60
        E 0 90 54 60
        E 0 90 55 60
        E 0 90 48 60
        E 0 90 49 60
        E 60 80 60 00
        E 0 80 61 00
        E 0 80 62 00
        E 0 80 54 00
        E 0 80 55 00
        E 0 80 48 00
        E 0 80 49 00
        E 180 90 60 60
        E 0 90 61 60
        E 0 90 62 60
        E 0 90 54 60
        E 0 90 55 60
        E 0 90 48 60
        E 0 90 49 60
        E 0 90 3c 60
        E 60 80 60 00
        E 0 80 61 00
        E 0 80 62 00
        E 0 80 54 00
        E 0 80 55 00
        E 0 80 48 00
        E 0 80 49 00
        E 0 80 3c 00
        E 180 90 60 60
        E 0 90 61 60
        E 0 90 62 60
        E 0 90 54 60
        E 0 90 55 60
        E 0 90 48 60
        E 0 90 49 60
        E 60 80 60 00
        E 0 80 61 00
        E 0 80 62 00
        E 0 80 54 00
        E 0 80 55 00
        E 0 80 48 00
        E 0 80 49 00
        E 180 90 60 60
        E 0 90 61 60
        E 0 90 62 60
        E 0 90 54 60
        E 0 90 55 60
        E 0 90 48 60
        E 0 90 49 60
        E 0 90 3c 60
        E 60 80 60 00
        E 0 80 61 00
        E 0 80 62 00
        E 0 80 54 00
        E 0 80 55 00
        E 0 80 48 00
        E 0 80 49 00
        E 0 80 3c 00
        E 180 90 60 60
        E 0 90 61 60
        E 0 90 62 60
        E 0 90 54 60
        E 0 90 55 60
        E 0 90 48 60
        E 0 90 49 60
        E 60 80 60 00
        E 0 80 61 00
        E 0 80 62 00
        E 0 80 54 00
        E 0 80 55 00
        E 0 80 48 00
        E 0 80 49 00
        E 180 90 60 60
        E 0 90 61 60
        E 0 90 62 60
        E 0 90 54 60
        E 0 90 55 60
        E 0 90 48 60
        E 0 90 49 60
        E 0 90 3c 60
        E 60 80 60 00
        E 0 80 61 00
        E 0 80 62 00
        E 0 80 54 00
        E 0 80 55 00
        E 0 80 48 00
        E 0 80 49 00
        E 0 80 3c 00
        E 180 90 60 60
        E 0 90 61 60
        E 0 90 62 60
        E 0 90 54 60
        E 0 90 55 60
        E 0 90 48 60
        E 0 90 49 60
        E 60 80 60 00
        E 0 80 61 00
        E 0 80 62 00
        E 0 80 54 00
        E 0 80 55 00
        E 0 80 48 00
        E 0 80 49 00
        E 180 90 60 60
        E 0 90 61 60
        E 0 90 62 60
        E 0 90 54 60
        E 0 90 55 60
        E 0 90 48 60
        E 0 90 49 60
        E 0 90 3c 60
        E 60 80 60 00
        E 0 80 61 00
        E 0 80 62 00
        E 0 80 54 00
        E 0 80 55 00
        E 0 80 48 00
        E 0 80 49 00
        E 0 80 3c 00
        E 180 90 60 60
        E 0 90 61 60
        E 0 90 62 60
        E 0 90 54 60
        E 0 90 55 60
        E 0 90 48 60
        E 0 90 49 60
        E 60 80 60 00
        E 0 80 61 00
        E 0 80 62 00
        E 0 80 54 00
        E 0 80 55 00
        E 0 80 48 00
        E 0 80 49 00
        E 180 90 60 60
        E 0 90 61 60
        E 0 90 62 60
        E 0 90 54 60
        E 0 90 55 60
        E 0 90 48 60
        E 0 90 49 60
        E 60 80 60 00
        E 0 80 61 00
        E 0 80 62 00
        E 0 80 54 00
        E 0 80 55 00
        E 0 80 48 00
        E 0 80 49 00
        E 180 90 60 60
        E 0 90 61 60
        E 0 90 62 60
        E 0 90 54 60
        E 0 90 55 60
        E 60 80 60 00
        E 0 80 61 00
        E 0 80 62 00
        E 0 80 54 00
        E 0 80 55 00
        E 180 90 60 60
        E 0 90 61 60
        E 0 90 63 60
        E 0 90 54 60
        E 0 90 56 60
        E 0 90 48 60
        E 0 90 4a 60
        E 0 90 3d 60
        E 60 80 60 00
        E 0 80 61 00
        E 0 80 63 00
        E 0 80 54 00
        E 0 80 56 00
        E 0 80 48 00
        E 0 80 4a 00
        E 0 80 3d 00
        E 180 90 60 60
        E 0 90 61 60
        E 0 90 63 60
        E 0 90 54 60
        E 0 90 56 60
        E 60 80 60 00
        E 0 80 61 00
        E 0 80 63 00
        E 0 80 54 00
        E 0 80 56 00
        E 180 90 60 60
        E 0 90 62 60
        E 0 90 63 60
        E 0 90 54 60
        E 0 90 57 60
        E 0 90 49 60
        E 0 90 4a 60
        E 60 80 60 00
        E 0 80 62 00
        E 0 80 63 00
        E 0 80 54 00
        E 0 80 57 00
        E 0 80 49 00
        E 0 80 4a 00
        E 180 90 60 60
        E 0 90 62 60
        E 0 90 63 60
        E 0 90 54 60
        E 0 90 57 60
        E 0 90 49 60
        E 0 90 4a 60
        E 60 80 60 00
        E 0 80 62 00
        E 0 80 63 00
        E 0 80 54 00
        E 0 80 57 00
        E 0 80 49 00
        E 0 80 4a 00
        E 180 90 60 60
        E 0 90 62 60
        E 0 90 63 60
        E 0 90 54 60
        E 0 90 57 60
        E 0 90 49 60
        E 0 90 4a 60
        E 0 90 3e 60
        E 60 80 60 00
        E 0 80 62 00
        E 0 80 63 00
        E 0 80 54 00
        E 0 80 57 00
        E 0 80 49 00
        E 0 80 4a 00
        E 0 80 3e 00
        E 180 90 60 60
        E 0 90 62 60
        E 0 90 63 60
        E 0 90 54 60
        E 0 90 57 60
        E 60 80 60 00
        E 0 80 62 00
        E 0 80 63 00
        E 0 80 54 00
        E 0 80 57 00
        E 180 90 61 60
        E 0 90 62 60
        E 0 90 64 60
        E 0 90 55 60
        E 0 90 58 60
        E 0 90 4a 60
        E 0 90 4c 60
        E 60 80 61 00
        E 0 80 62 00
        E 0 80 64 00
        E 0 80 55 00
        E 0 80 58 00
        E 0 80 4a 00
        E 0 80 4c 00
        E 180 90 61 60
        E 0 90 62 60
        E 0 90 64 60
        E 0 90 55 60
        E 0 90 58 60
        E 0 90 4a 60
        E 0 90 4c 60
        E 60 80 61 00
        E 0 80 62 00
        E 0 80 64 00
        E 0 80 55 00
        E 0 80 58 00
        E 0 80 4a 00
        E 0 80 4c 00
        E 180 90 61 60
        E 0 90 62 60
        E 0 90 64 60
        E 0 90 55 60
        E 0 90 58 60
        E 0 90 4a 60
        E 0 90 4c 60
        E 0 90 40 60
        E 60 80 61 00
        E 0 80 62 00
        E 0 80 64 00
        E 0 80 55 00
        E 0 80 58 00
        E 0 80 4a 00
        E 0 80 4c 00
        E 0 80 40 00
        E 180 90 61 60
        E 0 90 62 60
        E 0 90 64 60
        E 0 90 55 60
        E 0 90 58 60
        E 60 80 61 00
        E 0 80 62 00
        E 0 80 64 00
        E 0 80 55 00
        E 0 80 58 00
        E 180 90 60 60
        E 0 90 61 60
        E 0 90 63 60
        E 0 90 54 60
        E 0 90 56 60
        E 0 90 48 60
        E 0 90 4a 60
        E 60 80 60 00
        E 0 80 61 00
        E 0 80 63 00
        E 0 80 54 00
        E 0 80 56 00
        E 0 80 48 00
        E 0 80 4a 00
        E 179 90 63 60
        E 1 90 60 60
        E 0 90 61 60
        E 0 90 54 60
        E 0 90 55 60
        E 59 80 63 00
        E 1 80 60 00
        E 0 80 61 00
        E 0 80 54 00
        E 0 80 55 00
        E 179 90 63 60
        E 1 90 60 60
        E 0 90 61 60
        E 0 90 54 60
        E 0 90 55 60
        E 0 90 48 60
        E 0 90 49 60
        E 0 90 3c 60
        E 59 80 63 00
        E 1 80 60 00
        E 0 80 61 00
        E 0 80 54 00
        E 0 80 55 00
        E 0 80 48 00
        E 0 80 49 00
        E 0 80 3c 00
        E 179 90 63 60
        E 1 90 60 60
        E 0 90 61 60
        E 0 90 54 60
        E 0 90 55 60
        E 0 90 48 60
        E 0 90 49 60
        E 59 80 63 00
        E 1 80 60 00
        E 0 80 61 00
        E 0 80 54 00
        E 0 80 55 00
        E 0 80 48 00
        E 0 80 49 00
        E 179 90 63 60
        E 1 90 60 60
        E 0 90 61 60
        E 0 90 54 60
        E 0 90 55 60
        E 0 90 48 60
        E 0 90 49 60
        E 0 90 3c 60
        E 59 80 63 00
        E 1 80 60 00
        E 0 80 61 00
        E 0 80 54 00
        E 0 80 55 00
        E 0 80 48 00
        E 0 80 49 00
        E 0 80 3c 00
        E 179 90 63 60
        E 1 90 60 60
        E 0 90 61 60
        E 0 90 54 60
        E 0 90 55 60
        E 0 90 48 60
        E 0 90 49 60
        E 59 80 63 00
        E 1 80 60 00
        E 0 80 61 00
        E 0 80 54 00
        E 0 80 55 00
        E 0 80 48 00
        E 0 80 49 00
        E 179 90 63 60
        E 1 90 60 60
        E 0 90 61 60
        E 0 90 54 60
        E 0 90 55 60
        E 0 90 48 60
        E 0 90 49 60
        E 0 90 3c 60
        E 59 80 63 00
        E 1 80 60 00
        E 0 80 61 00
        E 0 80 54 00
        E 0 80 55 00
        E 0 80 48 00
        E 0 80 49 00
        E 0 80 3c 00
        E 179 90 63 60
        E 1 90 60 60
        E 0 90 61 60
        E 0 90 54 60
        E 0 90 55 60
        E 0 90 48 60
        E 0 90 49 60
        E 59 80 63 00
        E 1 80 60 00
        E 0 80 61 00
        E 0 80 54 00
        E 0 80 55 00
        E 0 80 48 00
        E 0 80 49 00
        E 180 90 60 60
        E 0 90 61 60
        E 0 90 62 60
        E 0 90 54 60
        E 0 90 55 60
        E 0 90 48 60
        E 0 90 49 60
        E 0 90 3c 60
        E 60 80 60 00
        E 0 80 61 00
        E 0 80 62 00
        E 0 80 54 00
        E 0 80 55 00
        E 0 80 48 00
        E 0 80 49 00
        E 0 80 3c 00
        E 180 90 60 60
        E 0 90 61 60
        E 0 90 62 60
        E 0 90 54 60
        E 0 90 55 60
        E 0 90 48 60
        E 0 90 49 60
        E 60 80 60 00
        E 0 80 61 00
        E 0 80 62 00
        E 0 80 54 00
        E 0 80 55 00
        E 0 80 48 00
        E 0 80 49 00
        E 180 90 60 60
        E 0 90 61 60
        E 0 90 62 60
        E 0 90 54 60
        E 0 90 55 60
        E 0 90 48 60
        E 0 90 49 60
        E 0 90 3c 60
        E 60 80 60 00
        E 0 80 61 00
        E 0 80 62 00
        E 0 80 54 00
        E 0 80 55 00
        E 0 80 48 00
        E 0 80 49 00
        E 0 80 3c 00
        E 180 90 60 60
        E 0 90 61 60
        E 0 90 62 60
        E 0 90 54 60
        E 0 90 55 60
        E 0 90 48 60
        E 0 90 49 60
        E 60 80 60 00
        E 0 80 61 00
        E 0 80 62 00
        E 0 80 54 00
        E 0 80 55 00
        E 0 80 48 00
        E 0 80 49 00
        E 180 90 60 60
        E 0 90 61 60
        E 0 90 62 60
        E 0 90 54 60
        E 0 90 55 60
        E 0 90 48 60
        E 0 90 49 60
        E 0 90 3c 60
        E 60 80 60 00
        E 0 80 61 00
        E 0 80 62 00
        E 0 80 54 00
        E 0 80 55 00
        E 0 80 48 00
        E 0 80 49 00
        E 0 80 3c 00
        E 180 90 60 60
        E 0 90 61 60
        E 0 90 62 60
        E 0 90 54 60
        E 0 90 55 60
        E 0 90 48 60
        E 0 90 49 60
        E 60 80 60 00
        E 0 80 61 00
        E 0 80 62 00
        E 0 80 54 00
        E 0 80 55 00
        E 0 80 48 00
        E 0 80 49 00
        E 180 90 60 60
        E 0 90 61 60
        E 0 90 62 60
        E 0 90 54 60
        E 0 90 55 60
        E 0 90 48 60
        E 0 90 49 60
        E 0 90 3c 60
        E 60 80 60 00
        E 0 80 61 00
        E 0 80 62 00
        E 0 80 54 00
        E 0 80 55 00
        E 0 80 48 00
        E 0 80 49 00
        E 0 80 3c 00
        E 180 90 60 60
        E 0 90 61 60
        E 0 90 62 60
        E 0 90 54 60
        E 0 90 55 60
        E 0 90 48 60
        E 0 90 49 60
        E 60 80 60 00
        E 0 80 61 00
        E 0 80 62 00
        E 0 80 54 00
        E 0 80 55 00
        E 0 80 48 00
        E 0 80 49 00
        E 180 90 60 60
        E 0 90 61 60
        E 0 90 62 60
        E 0 90 54 60
        E 0 90 55 60
        E 0 90 48 60
        E 0 90 49 60
        E 0 90 3c 60
        E 60 80 60 00
        E 0 80 61 00
        E 0 80 62 00
        E 0 80 54 00
        E 0 80 55 00
        E 0 80 48 00
        E 0 80 49 00
        E 0 80 3c 00
        E 180 90 60 60
        E 0 90 61 60
        E 0 90 62 60
        E 0 90 54 60
        E 0 90 55 60
        E 0 90 48 60
        E 0 90 49 60
        E 60 80 60 00
        E 0 80 61 00
        E 0 80 62 00
        E 0 80 54 00
        E 0 80 55 00
        E 0 80 48 00
        E 0 80 49 00
        E 180 90 60 60
        E 0 90 61 60
        E 0 90 62 60
        E 0 90 54 60
        E 0 90 55 60
        E 0 90 48 60
        E 0 90 49 60
        E 0 90 3c 60
        E 60 80 60 00
        E 0 80 61 00
        E 0 80 62 00
        E 0 80 54 00
        E 0 80 55 00
        E 0 80 48 00
        E 0 80 49 00
        E 0 80 3c 00
        E 180 90 60 60
        E 0 90 61 60
        E 0 90 62 60
        E 0 90 54 60
        E 0 90 55 60
        E 60 80 60 00
        E 0 80 61 00
        E 0 80 62 00
        E 0 80 54 00
        E 0 80 55 00
        E 180 90 60 60
        E 0 90 54 60
        E 0 90 48 60
        E 60 80 60 00
        E 0 80 54 00
        E 0 80 48 00
        E 180 90 60 60
        E 0 90 54 60
        E 60 80 60 00
        E 0 80 54 00
        E 180 90 60 60
        E 0 90 61 60
        E 0 90 63 60
        E 0 90 54 60
        E 0 90 56 60
        E 0 90 48 60
        E 0 90 4a 60
        E 0 90 3d 60
        E 120 80 54 00
        E 0 80 56 00
        E 0 80 48 00
        E 0 80 4a 00
        E 0 80 3d 00
        E 180 80 60 00
        E 0 80 61 00
        E 0 80 63 00
        E 180 90 60 60
        E 0 90 54 60
        E 0 90 48 60
        E 60 80 60 00
        E 0 80 54 00
        E 0 80 48 00
        <X 480 0
          /wFbaWRsZV0=
        >
        <X 14100 0
          /wFbcGxheV0=
        >
        E 240 90 67 60
        E 240 90 61 60
        E 0 90 55 60
        E 60 80 61 00
        E 0 80 55 00
        E 180 90 63 60
        E 0 90 65 60
        E 0 90 56 60
        E 0 90 4a 60
        E 0 90 3d 60
        E 60 80 63 00
        E 0 80 65 00
        E 60 80 56 00
        E 0 80 4a 00
        E 0 90 62 60
        E 0 80 3d 00
        E 60 80 62 00
        E 180 90 63 60
        E 0 90 56 60
        E 60 80 63 00
        E 60 80 56 00
        E 0 90 62 60
        E 60 80 62 00
        E 180 90 63 60
        E 0 90 56 60
        E 0 90 4a 60
        E 60 80 63 00
        E 60 80 56 00
        E 0 80 4a 00
        E 0 90 62 60
        E 60 80 62 00
        E 180 90 63 60
        E 0 90 56 60
        E 60 80 63 00
        E 60 80 56 00
        E 0 90 62 60
        E 60 80 62 00
        E 180 90 63 60
        E 0 90 57 60
        E 0 90 4b 60
        E 0 90 3e 60
        E 60 80 63 00
        E 0 80 57 00
        E 0 80 4b 00
        E 0 80 3e 00
        E 60 90 62 60
        E 60 80 62 00
        E 60 90 61 60
        E 0 90 55 60
        E 60 80 61 00
        E 0 80 55 00
        E 60 90 62 60
        E 60 80 62 00
        E 60 90 64 60
        E 0 90 58 60
        E 0 90 4b 60
        E 0 90 3e 60
        E 60 80 64 00
        E 0 80 58 00
        E 0 80 4b 00
        E 0 80 3e 00
        E 60 90 63 60
        E 60 80 63 00
        E 60 90 62 60
        E 0 90 56 60
        E 60 80 62 00
        E 0 80 56 00
        E 60 90 64 60
        E 60 80 64 00
        E 60 90 63 60
        E 0 90 57 60
        E 0 90 4b 60
        E 0 90 3e 60
        E 60 80 63 00
        E 0 80 57 00
        E 0 80 4b 00
        E 0 80 3e 00
        E 60 90 62 60
        E 61 80 62 00
        E 59 90 64 60
        E 0 90 58 60
        E 60 80 64 00
        E 0 80 58 00
        E 60 90 63 60
        E 60 80 63 00
        E 60 90 62 60
        E 0 90 56 60
        E 0 90 4a 60
        E 61 80 62 00
        E 0 80 56 00
        E 0 80 4a 00
        E 59 90 64 60
        E 60 80 64 00
        E 60 90 63 60
        E 0 90 57 60
        E 60 80 63 00
        E 0 80 57 00
        E 60 90 62 60
        E 61 80 62 00
        E 59 90 61 60
        E 0 90 55 60
        E 0 90 49 60
        E 0 90 3c 60
        E 60 80 61 00
        E 0 80 55 00
        E 0 80 49 00
        E 0 80 3c 00
        E 60 90 60 60
        E 60 80 60 00
        E 60 90 61 60
        E 0 90 55 60
        E 60 80 61 00
        E 0 80 55 00
        E 60 90 62 60
        E 60 80 62 00
        E 60 90 63 60
        E 0 90 57 60
        E 0 90 4b 60
        E 60 80 63 00
        E 0 80 57 00
        E 0 80 4b 00
        E 60 90 62 60
        E 60 80 62 00
        E 180 90 63 60
        E 0 90 56 60
        E 60 80 63 00
        E 60 80 56 00
        E 0 90 62 60
        E 60 80 62 00
        E 179 90 63 60
        E 0 90 56 60
        E 0 90 4a 60
        E 60 80 63 00
        E 60 80 56 00
        E 0 80 4a 00
        E 1 90 62 60
        E 60 80 62 00
        E 180 90 63 60
        E 0 90 56 60
        E 60 80 63 00
        E 60 80 56 00
        E 0 90 62 60
        E 60 80 62 00
        E 180 90 63 60
        E 0 90 74 60
        E 0 90 57 60
        E 0 90 4b 60
        E 0 90 3e 60
        E 120 80 4b 00
        E 0 80 3e 00
        E 240 80 57 00
        E 60 80 63 00
        E 60 90 64 60
        E 0 90 65 60
        E 0 90 58 60
        E 0 90 4b 60
        E 0 90 3e 60
        E 60 80 65 00
        E 60 80 4b 00
        E 0 80 3e 00
        E 240 80 58 00
        E 60 80 64 00
        E 60 80 74 00
        E 0 90 64 60
        E 0 90 58 60
        E 0 90 4b 60
        E 0 90 3e 60
        E 60 80 64 00
        E 0 80 58 00
        E 0 80 4b 00
        E 0 80 3e 00
        E 60 90 63 60
        E 60 80 63 00
        E 120 90 63 60
        E 60 80 63 00
        E 120 90 63 60
        E 0 90 57 60
        E 0 90 4b 60
        E 0 90 3e 60
        E 60 80 63 00
        E 0 80 57 00
        E 0 80 4b 00
        E 0 80 3e 00
        E 120 90 62 60
        E 60 80 62 00
        E 120 90 63 60
        E 0 90 57 60
        E 480 80 57 00
        E 60 80 63 00
        E 60 90 63 60
        E 0 90 56 60
        E 0 90 4a 60
        E 0 90 3d 60
        E 60 80 63 00
        E 60 80 56 00
        E 0 80 4a 00
        E 0 90 62 60
        E 0 80 3d 00
        E 60 80 62 00
        E 180 90 63 60
        E 0 90 56 60
        E 60 80 63 00
        E 60 80 56 00
        E 0 90 62 60
        E 60 80 62 00
        E 179 90 63 60
        E 0 90 56 60
        E 0 90 4a 60
        E 60 80 63 00
        E 60 80 56 00
        E 0 80 4a 00
        E 1 90 62 60
        E 60 80 62 00
        E 180 90 63 60
        E 0 90 56 60
        E 60 80 63 00
        E 60 80 56 00
        E 0 90 62 60
        E 60 80 62 00
        E 180 90 63 60
        E 0 90 56 60
        E 0 90 4a 60
        E 0 90 3d 60
        E 60 80 63 00
        E 60 80 56 00
        E 0 80 4a 00
        E 0 90 62 60
        E 0 80 3d 00
        E 60 80 62 00
        E 180 90 63 60
        E 60 80 63 00
        E 60 90 64 60
        E 0 90 58 60
        E 0 90 4b 60
        E 60 80 64 00
        E 0 80 58 00
        E 0 80 4b 00
        E 60 90 63 60
        E 60 80 63 00
        E 60 90 62 60
        E 0 90 56 60
        E 60 80 62 00
        E 0 80 56 00
        E 60 90 64 60
        E 60 80 64 00
        E 60 90 63 60
        E 0 90 57 60
        E 0 90 4b 60
        E 0 90 3e 60
        E 60 80 63 00
        E 0 80 57 00
        E 0 80 4b 00
        E 0 80 3e 00
        E 60 90 62 60
        E 61 80 62 00
        E 59 90 64 60
        E 0 90 58 60
        E 60 80 64 00
        E 0 80 58 00
        E 60 90 63 60
        E 60 80 63 00
        E 60 90 62 60
        E 0 90 56 60
        E 0 90 4a 60
        E 61 80 62 00
        E 0 80 56 00
        E 0 80 4a 00
        E 59 90 64 60
        E 60 80 64 00
        E 60 90 63 60
        E 0 90 57 60
        E 60 80 63 00
        E 0 80 57 00
        E 60 90 62 60
        E 61 80 62 00
        E 59 90 61 60
        E 0 90 55 60
        E 0 90 49 60
        E 0 90 3c 60
        E 60 80 61 00
        E 0 80 55 00
        E 0 80 49 00
        E 0 80 3c 00
        E 60 90 60 60
        E 60 80 60 00
        E 60 90 61 60
        E 0 90 55 60
        E 60 80 61 00
        E 0 80 55 00
        E 60 90 62 60
        E 60 80 62 00
        E 60 90 63 60
        E 0 90 57 60
        E 0 90 4b 60
        E 60 80 63 00
        E 0 80 57 00
        E 0 80 4b 00
        E 60 90 62 60
        E 60 80 62 00
        E 180 90 63 60
        E 0 90 56 60
        E 60 80 63 00
        E 60 80 56 00
        E 0 90 62 60
        E 60 80 62 00
        E 179 90 63 60
        E 0 90 56 60
        E 0 90 4a 60
        E 60 80 63 00
        E 60 80 56 00
        E 0 80 4a 00
        E 1 90 62 60
        E 60 80 62 00
        E 180 90 63 60
        E 0 90 56 60
        E 60 80 63 00
        E 60 80 56 00
        E 0 90 62 60
        E 60 80 62 00
        E 180 90 63 60
        E 0 90 57 60
        E 0 90 4b 60
        E 0 90 3e 60
        E 60 80 63 00
        E 0 80 57 00
        E 0 80 4b 00
        E 0 80 3e 00
        E 180 90 64 60
        E 0 90 65 60
        E 0 90 58 60
        E 60 80 64 00
        E 0 80 65 00
        E 0 80 58 00
        E 180 90 62 60
        E 0 90 56 60
        E 0 90 4a 60
        E 40 80 62 00
        E 0 80 56 00
        E 0 80 4a 00
        E 40 90 63 60
        E 40 80 63 00
        E 40 90 62 60
        E 40 80 62 00
        E 40 90 62 60
        E 0 90 56 60
        E 0 90 4a 60
        E 40 80 62 00
        E 0 80 56 00
        E 0 80 4a 00
        E 40 90 62 60
        E 40 80 62 00
        E 40 90 62 60
        E 40 80 62 00
        E 80 90 63 60
        E 40 80 63 00
        E 40 90 62 60
        E 40 80 62 00
        E 80 90 61 60
        E 0 90 55 60
        E 0 90 49 60
        E 0 90 3c 60
        E 40 80 61 00
        E 0 80 55 00
        E 0 80 49 00
        E 0 80 3c 00
        E 40 90 62 60
        E 40 80 62 00
        E 40 90 64 60
        E 40 80 64 00
        E 80 90 62 60
        E 0 90 56 60
        E 40 80 62 00
        E 0 80 56 00
        E 80 90 61 60
        E 40 80 61 00
        E 40 90 74 60
        E 40 90 62 60
        E 0 90 56 60
        E 0 90 4a 60
        E 120 80 4a 00
        E 400 80 62 00
        E 0 80 56 00
        E 160 90 61 60
        E 0 90 63 60
        E 0 90 55 60
        E 0 90 57 60
        E 0 90 49 60
        E 0 90 4b 60
        E 0 90 3f 60
        E 60 80 61 00
        E 0 80 63 00
        E 0 80 55 00
        E 0 80 57 00
        E 0 80 49 00
        E 0 80 4b 00
        E 0 80 3f 00
        E 60 90 61 60
        E 0 90 63 60
        E 60 80 61 00
        E 0 80 63 00
        E 60 90 61 60
        E 0 90 63 60
        E 0 90 55 60
        E 0 90 57 60
        E 0 90 49 60
        E 0 90 4b 60
        E 60 80 61 00
        E 0 80 63 00
        E 0 80 55 00
        E 0 80 57 00
        E 0 80 49 00
        E 0 80 4b 00
        E 120 80 74 00
        E 60 90 61 60
        E 0 90 63 60
        E 0 90 55 60
        E 0 90 57 60
        E 0 90 49 60
        E 0 90 4b 60
        E 0 90 3f 60
        E 60 80 61 00
        E 0 80 63 00
        E 0 80 55 00
        E 0 80 57 00
        E 0 80 49 00
        E 0 80 4b 00
        E 0 80 3f 00
        E 180 90 61 60
        E 0 90 63 60
        E 0 90 55 60
        E 0 90 57 60
        E 60 80 61 00
        E 0 80 63 00
        E 0 80 55 00
        E 0 80 57 00
        E 180 90 61 60
        E 0 90 62 60
        E 0 90 55 60
        E 0 90 56 60
        E 0 90 49 60
        E 0 90 4a 60
        E 60 80 61 00
        E 0 80 62 00
        E 0 80 55 00
        E 0 80 56 00
        E 0 80 49 00
        E 0 80 4a 00
        E 60 90 61 60
        E 0 90 62 60
        E 60 80 61 00
        E 0 80 62 00
        E 60 90 61 60
        E 0 90 62 60
        E 0 90 55 60
        E 0 90 56 60
        E 0 90 49 60
        E 0 90 4a 60
        E 60 80 61 00
        E 0 80 62 00
        E 0 80 55 00
        E 0 80 56 00
        E 0 80 49 00
        E 0 80 4a 00
        E 180 90 61 60
        E 0 90 62 60
        E 0 90 55 60
        E 0 90 56 60
        E 0 90 49 60
        E 0 90 4a 60
        E 0 90 3e 60
        E 60 80 61 00
        E 0 80 62 00
        E 0 80 55 00
        E 0 80 56 00
        E 0 80 49 00
        E 0 80 4a 00
        E 0 80 3e 00
        E 180 90 61 60
        E 0 90 62 60
        E 0 90 55 60
        E 0 90 56 60
        E 60 80 61 00
        E 0 80 62 00
        E 0 80 55 00
        E 0 80 56 00
        E 180 90 63 60
        E 0 90 64 60
        E 0 90 57 60
        E 0 90 58 60
        E 0 90 4b 60
        E 0 90 4c 60
        E 60 80 63 00
        E 0 80 64 00
        E 0 80 57 00
        E 0 80 58 00
        E 0 80 4b 00
        E 0 80 4c 00
        E 60 90 63 60
        E 0 90 64 60
        E 60 80 63 00
        E 0 80 64 00
        E 60 90 63 60
        E 0 90 64 60
        E 0 90 57 60
        E 0 90 58 60
        E 0 90 4b 60
        E 0 90 4c 60
        E 60 80 63 00
        E 0 80 64 00
        E 0 80 57 00
        E 0 80 58 00
        E 0 80 4b 00
        E 0 80 4c 00
        E 180 90 63 60
        E 0 90 64 60
        E 0 90 57 60
        E 0 90 58 60
        E 0 90 4b 60
        E 0 90 4c 60
        E 0 90 40 60
        E 60 80 63 00
        E 0 80 64 00
        E 0 80 57 00
        E 0 80 58 00
        E 0 80 4b 00
        E 0 80 4c 00
        E 0 80 40 00
        E 180 90 63 60
        E 0 90 64 60
        E 0 90 57 60
        E 0 90 58 60
        E 60 80 63 00
        E 0 80 64 00
        E 0 80 57 00
        E 0 80 58 00
        E 180 90 64 60
        E 0 90 58 60
        E 0 90 4b 60
        E 60 80 64 00
        E 0 80 58 00
        E 0 80 4b 00
        E 180 90 63 60
        E 0 90 57 60
        E 60 80 63 00
        E 0 80 57 00
        E 180 90 61 60
        E 0 90 63 60
        E 0 90 74 60
        E 0 90 55 60
        E 0 90 57 60
        E 0 90 49 60
        E 0 90 4b 60
        E 0 90 3f 60
        E 120 80 55 00
        E 0 80 57 00
        E 0 80 49 00
        E 0 80 4b 00
        E 0 80 3f 00
        E 180 80 61 00
        E 0 80 63 00
        E 180 90 64 60
        E 0 90 58 60
        E 0 90 4b 60
        E 120 80 4b 00
        E 240 80 58 00
        E 60 80 64 00
        E 60 80 74 00
        E 0 90 63 60
        E 0 90 65 60
        E 0 90 57 60
        E 0 90 4b 60
        E 0 90 3e 60
        E 60 80 63 00
        E 0 80 65 00
        E 0 80 57 00
        E 0 80 4b 00
        E 0 80 3e 00
        E 180 90 63 60
        E 0 90 57 60
        E 60 80 63 00
        E 0 80 57 00
        E 180 90 62 60
        E 0 90 56 60
        E 0 90 4a 60
        E 60 80 62 00
        E 0 80 56 00
        E 0 80 4a 00
        E 60 90 63 60
        E 60 80 63 00
        E 60 90 62 60
        E 0 90 56 60
        E 0 90 4a 60
        E 60 80 62 00
        E 0 80 56 00
        E 0 80 4a 00
        E 60 90 61 60
        E 420 80 61 00
        E 180 90 60 60
        E 0 90 54 60
        E 0 90 48 60
        E 60 80 60 00
        E 0 80 54 00
        E 0 80 48 00
        E 60 90 61 60
        E 60 80 61 00
        E 60 90 61 60
        E 0 90 55 60
        E 60 80 61 00
        E 0 80 55 00
        E 60 90 61 60
        E 60 80 61 00
        E 60 90 62 60
        E 0 90 56 60
        E 0 90 4a 60
        E 0 90 3d 60
        E 60 80 62 00
        E 0 80 56 00
        E 0 80 4a 00
        E 0 80 3d 00
        E 60 90 62 60
        E 60 80 62 00
        E 60 90 61 60
        E 0 90 55 60
        E 60 80 61 00
        E 0 80 55 00
        E 60 90 61 60
        E 60 80 61 00
        E 60 90 61 60
        E 0 90 55 60
        E 0 90 49 60
        E 60 80 61 00
        E 0 80 55 00
        E 0 80 49 00
        E 60 90 62 60
        E 60 80 62 00
        E 60 90 61 60
        E 0 90 55 60
        E 0 90 49 60
        E 60 80 61 00
        E 0 80 55 00
        E 0 80 49 00
        E 60 90 60 60
        E 420 80 60 00
        E 180 90 61 60
        E 0 90 63 60
        E 0 90 55 60
        E 0 90 57 60
        E 0 90 49 60
        E 0 90 4b 60
        E 0 90 3f 60
        E 60 80 61 00
        E 0 80 63 00
        E 0 80 55 00
        E 0 80 57 00
        E 0 80 49 00
        E 0 80 4b 00
        E 0 80 3f 00
        E 60 90 61 60
        E 0 90 63 60
        E 60 80 61 00
        E 0 80 63 00
        E 60 90 61 60
        E 0 90 63 60
        E 0 90 55 60
        E 0 90 57 60
        E 0 90 49 60
        E 0 90 4b 60
        E 60 80 61 00
        E 0 80 63 00
        E 0 80 55 00
        E 0 80 57 00
        E 0 80 49 00
        E 0 80 4b 00
        E 180 90 61 60
        E 0 90 63 60
        E 0 90 55 60
        E 0 90 57 60
        E 0 90 49 60
        E 0 90 4b 60
        E 0 90 3f 60
        E 60 80 61 00
        E 0 80 63 00
        E 0 80 55 00
        E 0 80 57 00
        E 0 80 49 00
        E 0 80 4b 00
        E 0 80 3f 00
        E 180 90 61 60
        E 0 90 63 60
        E 0 90 55 60
        E 0 90 57 60
        E 60 80 61 00
        E 0 80 63 00
        E 0 80 55 00
        E 0 80 57 00
        E 180 90 61 60
        E 0 90 62 60
        E 0 90 55 60
        E 0 90 56 60
        E 0 90 49 60
        E 0 90 4a 60
        E 60 80 61 00
        E 0 80 62 00
        E 0 80 55 00
        E 0 80 56 00
        E 0 80 49 00
        E 0 80 4a 00
        E 60 90 61 60
        E 0 90 62 60
        E 60 80 61 00
        E 0 80 62 00
        E 60 90 61 60
        E 0 90 62 60
        E 0 90 55 60
        E 0 90 56 60
        E 0 90 49 60
        E 0 90 4a 60
        E 60 80 61 00
        E 0 80 62 00
        E 0 80 55 00
        E 0 80 56 00
        E 0 80 49 00
        E 0 80 4a 00
        E 180 90 61 60
        E 0 90 62 60
        E 0 90 55 60
        E 0 90 56 60
        E 0 90 49 60
        E 0 90 4a 60
        E 0 90 3e 60
        E 60 80 61 00
        E 0 80 62 00
        E 0 80 55 00
        E 0 80 56 00
        E 0 80 49 00
        E 0 80 4a 00
        E 0 80 3e 00
        E 180 90 61 60
        E 0 90 62 60
        E 0 90 55 60
        E 0 90 56 60
        E 60 80 61 00
        E 0 80 62 00
        E 0 80 55 00
        E 0 80 56 00
        E 180 90 63 60
        E 0 90 64 60
        E 0 90 57 60
        E 0 90 58 60
        E 0 90 4b 60
        E 0 90 4c 60
        E 60 80 63 00
        E 0 80 64 00
        E 0 80 57 00
        E 0 80 58 00
        E 0 80 4b 00
        E 0 80 4c 00
        E 60 90 63 60
        E 0 90 64 60
        E 60 80 63 00
        E 0 80 64 00
        E 60 90 63 60
        E 0 90 64 60
        E 0 90 57 60
        E 0 90 58 60
        E 0 90 4b 60
        E 0 90 4c 60
        E 60 80 63 00
        E 0 80 64 00
        E 0 80 57 00
        E 0 80 58 00
        E 0 80 4b 00
        E 0 80 4c 00
        E 180 90 63 60
        E 0 90 64 60
        E 0 90 57 60
        E 0 90 58 60
        E 0 90 4b 60
        E 0 90 4c 60
        E 0 90 40 60
        E 60 80 63 00
        E 0 80 64 00
        E 0 80 57 00
        E 0 80 58 00
        E 0 80 4b 00
        E 0 80 4c 00
        E 0 80 40 00
        E 180 90 63 60
        E 0 90 64 60
        E 0 90 57 60
        E 0 90 58 60
        E 60 80 63 00
        E 0 80 64 00
        E 0 80 57 00
        E 0 80 58 00
        E 60 90 63 60
        E 60 80 63 00
        E 60 90 64 60
        E 0 90 58 60
        E 0 90 4b 60
        E 60 80 64 00
        E 0 80 58 00
        E 0 80 4b 00
        E 180 90 61 60
        E 0 90 55 60
        E 60 80 61 00
        E 0 80 55 00
        E 180 90 61 60
        E 0 90 55 60
        E 0 90 49 60
        E 0 90 3c 60
        E 120 80 55 00
        E 0 80 49 00
        E 0 80 3c 00
        E 180 80 61 00
        E 180 90 64 60
        E 0 90 58 60
        E 0 90 4b 60
        E 120 80 4b 00
        E 240 80 58 00
        E 60 80 64 00
        E 60 90 63 60
        E 0 90 65 60
        E 0 90 57 60
        E 0 90 4b 60
        E 0 90 3e 60
        E 60 80 63 00
        E 0 80 65 00
        E 0 80 57 00
        E 0 80 4b 00
        E 0 80 3e 00
        E 180 90 63 60
        E 0 90 57 60
        E 60 80 63 00
        E 0 80 57 00
        E 180 90 62 60
        E 0 90 56 60
        E 0 90 4a 60
        E 60 80 62 00
        E 0 80 56 00
        E 0 80 4a 00
        E 60 90 63 60
        E 60 80 63 00
        E 60 90 62 60
        E 0 90 56 60
        E 60 80 62 00
        E 0 80 56 00
        E 180 90 61 60
        E 0 90 55 60
        E 0 90 49 60
        E 0 90 3c 60
        E 60 80 61 00
        E 0 80 55 00
        E 0 80 49 00
        E 0 80 3c 00
        E 180 90 60 60
        E 0 90 54 60
        E 60 80 60 00
        E 0 80 54 00
        E 180 90 60 60
        E 0 90 54 60
        E 0 90 48 60
        E 40 80 60 00
        E 0 80 54 00
        E 0 80 48 00
        E 80 90 61 60
        E 40 80 61 00
        E 80 90 60 60
        E 0 90 54 60
        E 40 80 60 00
        E 0 80 54 00
        E 40 90 61 60
        E 40 80 61 00
        E 40 90 62 60
        E 40 80 62 00
        E 40 90 63 60
        E 0 90 57 60
        E 0 90 4b 60
        E 0 90 3e 60
        E 40 80 63 00
        E 0 80 57 00
        E 0 80 4b 00
        E 0 80 3e 00
        E 40 90 62 60
        E 0 90 65 60
        E 40 80 62 00
        E 0 80 65 00
        E 40 90 61 60
        E 40 80 61 00
        E 40 90 62 60
        E 0 90 65 60
        E 0 90 56 60
        E 40 80 62 00
        E 0 80 65 00
        E 0 80 56 00
        E 40 90 62 60
        E 40 80 62 00
        E 40 90 61 60
        E 40 80 61 00
        E 40 90 62 60
        E 0 90 65 60
        E 0 90 56 60
        E 0 90 4a 60
        E 40 80 62 00
        E 0 80 65 00
        E 0 80 56 00
        E 0 80 4a 00
        E 40 90 62 60
        E 40 80 62 00
        E 60 90 61 60
        E 40 80 61 00
        E 60 90 61 60
        E 40 80 61 00
        E 60 90 62 60
        E 40 80 62 00
        E 60 90 63 60
        E 0 90 57 60
        E 0 90 4b 60
        E 0 90 3e 60
        E 40 80 63 00
        E 0 80 57 00
        E 0 80 4b 00
        E 0 80 3e 00
        E 40 90 64 60
        E 40 80 64 00
        E 40 90 63 60
        E 0 90 65 60
        E 40 80 63 00
        E 0 80 65 00
        E 40 90 62 60
        E 0 90 56 60
        E 40 80 62 00
        E 0 80 56 00
        E 40 90 61 60
        E 40 80 61 00
        E 40 90 62 60
        E 0 90 65 60
        E 40 80 62 00
        E 0 80 65 00
        E 40 90 61 60
        E 0 90 65 60
        E 0 90 55 60
        E 0 90 49 60
        E 40 80 65 00
        E 80 80 55 00
        E 0 80 49 00
        E 180 80 61 00
        E 60 80 67 00
        E 120 90 60 60
        E 0 90 62 60
        E 0 90 63 60
        E 0 90 54 60
        E 0 90 57 60
        E 0 90 49 60
        E 0 90 4a 60
        E 0 90 3e 60
        E 60 80 60 00
        E 0 80 62 00
        E 0 80 63 00
        E 0 80 54 00
        E 0 80 57 00
        E 0 80 49 00
        E 0 80 4a 00
        E 0 80 3e 00
        E 180 90 60 60
        E 0 90 62 60
        E 0 90 63 60
        E 0 90 54 60
        E 0 90 57 60
        E 60 80 60 00
        E 0 80 62 00
        E 0 80 63 00
        E 0 80 54 00
        E 0 80 57 00
        E 180 90 61 60
        E 0 90 62 60
        E 0 90 64 60
        E 0 90 55 60
        E 0 90 58 60
        E 0 90 4a 60
        E 0 90 4c 60
        E 60 80 61 00
        E 0 80 62 00
        E 0 80 64 00
        E 0 80 55 00
        E 0 80 58 00
        E 0 80 4a 00
        E 0 80 4c 00
        E 180 90 61 60
        E 0 90 62 60
        E 0 90 64 60
        E 0 90 55 60
        E 0 90 58 60
        E 0 90 4a 60
        E 0 90 4c 60
        E 60 80 61 00
        E 0 80 62 00
        E 0 80 64 00
        E 0 80 55 00
        E 0 80 58 00
        E 0 80 4a 00
        E 0 80 4c 00
        E 171 90 74 60
        E 9 90 61 60
        E 0 90 62 60
        E 0 90 64 60
        E 0 90 55 60
        E 0 90 58 60
        E 0 90 4a 60
        E 0 90 4c 60
        E 0 90 40 60
        E 60 80 61 00
        E 0 80 62 00
        E 0 80 64 00
        E 0 80 55 00
        E 0 80 58 00
        E 0 80 4a 00
        E 0 80 4c 00
        E 0 80 40 00
        E 180 90 61 60
        E 0 90 62 60
        E 0 90 64 60
        E 0 90 55 60
        E 0 90 58 60
        E 60 80 61 00
        E 0 80 62 00
        E 0 80 64 00
        E 0 80 55 00
        E 0 80 58 00
        E 180 90 60 60
        E 0 90 61 60
        E 0 90 63 60
        E 0 90 54 60
        E 0 90 56 60
        E 0 90 48 60
        E 0 90 4a 60
        E 60 80 60 00
        E 0 80 61 00
        E 0 80 63 00
        E 0 80 54 00
        E 0 80 56 00
        E 0 80 48 00
        E 0 80 4a 00
        E 51 80 74 00
        E 128 90 63 60
        E 1 90 60 60
        E 0 90 61 60
        E 0 90 54 60
        E 0 90 55 60
        E 59 80 63 00
        E 1 80 60 00
        E 0 80 61 00
        E 0 80 54 00
        E 0 80 55 00
        E 179 90 63 60
        E 1 90 60 60
        E 0 90 61 60
        E 0 90 54 60
        E 0 90 55 60
        E 0 90 48 60
        E 0 90 49 60
        E 0 90 3c 60
        E 59 80 63 00
        E 1 80 60 00
        E 0 80 61 00
        E 0 80 54 00
        E 0 80 55 00
        E 0 80 48 00
        E 0 80 49 00
        E 0 80 3c 00
        E 179 90 63 60
        E 1 90 60 60
        E 0 90 61 60
        E 0 90 54 60
        E 0 90 55 60
        E 0 90 48 60
        E 0 90 49 60
        E 59 80 63 00
        E 1 80 60 00
        E 0 80 61 00
        E 0 80 54 00
        E 0 80 55 00
        E 0 80 48 00
        E 0 80 49 00
        E 179 90 63 60
        E 1 90 60 60
        E 0 90 61 60
        E 0 90 54 60
        E 0 90 55 60
        E 0 90 48 60
        E 0 90 49 60
        E 0 90 3c 60
        E 59 80 63 00
        E 1 80 60 00
        E 0 80 61 00
        E 0 80 54 00
        E 0 80 55 00
        E 0 80 48 00
        E 0 80 49 00
        E 0 80 3c 00
        E 179 90 63 60
        E 1 90 60 60
        E 0 90 61 60
        E 0 90 54 60
        E 0 90 55 60
        E 0 90 48 60
        E 0 90 49 60
        E 59 80 63 00
        E 1 80 60 00
        E 0 80 61 00
        E 0 80 54 00
        E 0 80 55 00
        E 0 80 48 00
        E 0 80 49 00
        E 179 90 63 60
        E 1 90 60 60
        E 0 90 61 60
        E 0 90 54 60
        E 0 90 55 60
        E 0 90 48 60
        E 0 90 49 60
        E 0 90 3c 60
        E 59 80 63 00
        E 1 80 60 00
        E 0 80 61 00
        E 0 80 54 00
        E 0 80 55 00
        E 0 80 48 00
        E 0 80 49 00
        E 0 80 3c 00
        E 179 90 63 60
        E 1 90 60 60
        E 0 90 61 60
        E 0 90 54 60
        E 0 90 55 60
        E 0 90 48 60
        E 0 90 49 60
        E 59 80 63 00
        E 1 80 60 00
        E 0 80 61 00
        E 0 80 54 00
        E 0 80 55 00
        E 0 80 48 00
        E 0 80 49 00
        E 180 90 60 60
        E 0 90 61 60
        E 0 90 62 60
        E 0 90 54 60
        E 0 90 55 60
        E 0 90 48 60
        E 0 90 49 60
        E 0 90 3c 60
        E 60 80 60 00
        E 0 80 61 00
        E 0 80 62 00
        E 0 80 54 00
        E 0 80 55 00
        E 0 80 48 00
        E 0 80 49 00
        E 0 80 3c 00
        E 180 90 60 60
        E 0 90 61 60
        E 0 90 62 60
        E 0 90 54 60
        E 0 90 55 60
        E 0 90 48 60
        E 0 90 49 60
        E 60 80 60 00
        E 0 80 61 00
        E 0 80 62 00
        E 0 80 54 00
        E 0 80 55 00
        E 0 80 48 00
        E 0 80 49 00
        E 180 90 60 60
        E 0 90 61 60
        E 0 90 62 60
        E 0 90 54 60
        E 0 90 55 60
        E 0 90 48 60
        E 0 90 49 60
        E 0 90 3c 60
        E 60 80 60 00
        E 0 80 61 00
        E 0 80 62 00
        E 0 80 54 00
        E 0 80 55 00
        E 0 80 48 00
        E 0 80 49 00
        E 0 80 3c 00
        E 180 90 60 60
        E 0 90 61 60
        E 0 90 62 60
        E 0 90 54 60
        E 0 90 55 60
        E 0 90 48 60
        E 0 90 49 60
        E 60 80 60 00
        E 0 80 61 00
        E 0 80 62 00
        E 0 80 54 00
        E 0 80 55 00
        E 0 80 48 00
        E 0 80 49 00
        E 180 90 60 60
        E 0 90 61 60
        E 0 90 62 60
        E 0 90 54 60
        E 0 90 55 60
        E 0 90 48 60
        E 0 90 49 60
        E 0 90 3c 60
        E 60 80 60 00
        E 0 80 61 00
        E 0 80 62 00
        E 0 80 54 00
        E 0 80 55 00
        E 0 80 48 00
        E 0 80 49 00
        E 0 80 3c 00
        E 180 90 60 60
        E 0 90 61 60
        E 0 90 62 60
        E 0 90 54 60
        E 0 90 55 60
        E 0 90 48 60
        E 0 90 49 60
        E 60 80 60 00
        E 0 80 61 00
        E 0 80 62 00
        E 0 80 54 00
        E 0 80 55 00
        E 0 80 48 00
        E 0 80 49 00
        E 180 90 60 60
        E 0 90 61 60
        E 0 90 62 60
        E 0 90 54 60
        E 0 90 55 60
        E 0 90 48 60
        E 0 90 49 60
        E 0 90 3c 60
        E 60 80 60 00
        E 0 80 61 00
        E 0 80 62 00
        E 0 80 54 00
        E 0 80 55 00
        E 0 80 48 00
        E 0 80 49 00
        E 0 80 3c 00
        E 180 90 60 60
        E 0 90 61 60
        E 0 90 62 60
        E 0 90 54 60
        E 0 90 55 60
        E 0 90 48 60
        E 0 90 49 60
        E 60 80 60 00
        E 0 80 61 00
        E 0 80 62 00
        E 0 80 54 00
        E 0 80 55 00
        E 0 80 48 00
        E 0 80 49 00
        E 180 90 60 60
        E 0 90 61 60
        E 0 90 62 60
        E 0 90 54 60
        E 0 90 55 60
        E 0 90 48 60
        E 0 90 49 60
        E 0 90 3c 60
        E 60 80 60 00
        E 0 80 61 00
        E 0 80 62 00
        E 0 80 54 00
        E 0 80 55 00
        E 0 80 48 00
        E 0 80 49 00
        E 0 80 3c 00
        E 180 90 60 60
        E 0 90 61 60
        E 0 90 62 60
        E 0 90 54 60
        E 0 90 55 60
        E 0 90 48 60
        E 0 90 49 60
        E 60 80 60 00
        E 0 80 61 00
        E 0 80 62 00
        E 0 80 54 00
        E 0 80 55 00
        E 0 80 48 00
        E 0 80 49 00
        E 180 90 60 60
        E 0 90 61 60
        E 0 90 62 60
        E 0 90 54 60
        E 0 90 55 60
        E 0 90 48 60
        E 0 90 49 60
        E 0 90 3c 60
        E 60 80 60 00
        E 0 80 61 00
        E 0 80 62 00
        E 0 80 54 00
        E 0 80 55 00
        E 0 80 48 00
        E 0 80 49 00
        E 0 80 3c 00
        E 180 90 60 60
        E 0 90 61 60
        E 0 90 62 60
        E 0 90 54 60
        E 0 90 55 60
        E 0 90 48 60
        E 0 90 49 60
        E 60 80 60 00
        E 0 80 61 00
        E 0 80 62 00
        E 0 80 54 00
        E 0 80 55 00
        E 0 80 48 00
        E 0 80 49 00
        E 180 90 60 60
        E 0 90 61 60
        E 0 90 62 60
        E 0 90 54 60
        E 0 90 55 60
        E 0 90 48 60
        E 0 90 49 60
        E 60 80 60 00
        E 0 80 61 00
        E 0 80 62 00
        E 0 80 54 00
        E 0 80 55 00
        E 0 80 48 00
        E 0 80 49 00
        E 180 90 60 60
        E 0 90 61 60
        E 0 90 62 60
        E 0 90 54 60
        E 0 90 55 60
        E 60 80 60 00
        E 0 80 61 00
        E 0 80 62 00
        E 0 80 54 00
        E 0 80 55 00
        E 180 90 60 60
        E 0 90 61 60
        E 0 90 63 60
        E 0 90 54 60
        E 0 90 56 60
        E 0 90 48 60
        E 0 90 4a 60
        E 0 90 3d 60
        E 60 80 60 00
        E 0 80 61 00
        E 0 80 63 00
        E 0 80 54 00
        E 0 80 56 00
        E 0 80 48 00
        E 0 80 4a 00
        E 0 80 3d 00
        E 180 90 60 60
        E 0 90 61 60
        E 0 90 63 60
        E 0 90 54 60
        E 0 90 56 60
        E 60 80 60 00
        E 0 80 61 00
        E 0 80 63 00
        E 0 80 54 00
        E 0 80 56 00
        E 180 90 60 60
        E 0 90 62 60
        E 0 90 63 60
        E 0 90 54 60
        E 0 90 57 60
        E 0 90 49 60
        E 0 90 4a 60
        E 60 80 60 00
        E 0 80 62 00
        E 0 80 63 00
        E 0 80 54 00
        E 0 80 57 00
        E 0 80 49 00
        E 0 80 4a 00
        E 180 90 60 60
        E 0 90 62 60
        E 0 90 63 60
        E 0 90 54 60
        E 0 90 57 60
        E 0 90 49 60
        E 0 90 4a 60
        E 60 80 60 00
        E 0 80 62 00
        E 0 80 63 00
        E 0 80 54 00
        E 0 80 57 00
        E 0 80 49 00
        E 0 80 4a 00
        E 180 90 60 60
        E 0 90 62 60
        E 0 90 63 60
        E 0 90 54 60
        E 0 90 57 60
        E 0 90 49 60
        E 0 90 4a 60
        E 0 90 3e 60
        E 60 80 60 00
        E 0 80 62 00
        E 0 80 63 00
        E 0 80 54 00
        E 0 80 57 00
        E 0 80 49 00
        E 0 80 4a 00
        E 0 80 3e 00
        E 180 90 60 60
        E 0 90 62 60
        E 0 90 63 60
        E 0 90 54 60
        E 0 90 57 60
        E 60 80 60 00
        E 0 80 62 00
        E 0 80 63 00
        E 0 80 54 00
        E 0 80 57 00
        E 180 90 61 60
        E 0 90 62 60
        E 0 90 64 60
        E 0 90 55 60
        E 0 90 58 60
        E 0 90 4a 60
        E 0 90 4c 60
        E 60 80 61 00
        E 0 80 62 00
        E 0 80 64 00
        E 0 80 55 00
        E 0 80 58 00
        E 0 80 4a 00
        E 0 80 4c 00
        E 180 90 61 60
        E 0 90 62 60
        E 0 90 64 60
        E 0 90 55 60
        E 0 90 58 60
        E 0 90 4a 60
        E 0 90 4c 60
        E 60 80 61 00
        E 0 80 62 00
        E 0 80 64 00
        E 0 80 55 00
        E 0 80 58 00
        E 0 80 4a 00
        E 0 80 4c 00
        E 180 90 61 60
        E 0 90 62 60
        E 0 90 64 60
        E 0 90 55 60
        E 0 90 58 60
        E 0 90 4a 60
        E 0 90 4c 60
        E 0 90 40 60
        E 60 80 61 00
        E 0 80 62 00
        E 0 80 64 00
        E 0 80 55 00
        E 0 80 58 00
        E 0 80 4a 00
        E 0 80 4c 00
        E 0 80 40 00
        E 180 90 61 60
        E 0 90 62 60
        E 0 90 64 60
        E 0 90 55 60
        E 0 90 58 60
        E 60 80 61 00
        E 0 80 62 00
        E 0 80 64 00
        E 0 80 55 00
        E 0 80 58 00
        E 180 90 60 60
        E 0 90 61 60
        E 0 90 63 60
        E 0 90 54 60
        E 0 90 56 60
        E 0 90 48 60
        E 0 90 4a 60
        E 60 80 60 00
        E 0 80 61 00
        E 0 80 63 00
        E 0 80 54 00
        E 0 80 56 00
        E 0 80 48 00
        E 0 80 4a 00
        E 179 90 63 60
        E 1 90 60 60
        E 0 90 61 60
        E 0 90 54 60
        E 0 90 55 60
        E 59 80 63 00
        E 1 80 60 00
        E 0 80 61 00
        E 0 80 54 00
        E 0 80 55 00
        E 179 90 63 60
        E 1 90 60 60
        E 0 90 61 60
        E 0 90 54 60
        E 0 90 55 60
        E 0 90 48 60
        E 0 90 49 60
        E 0 90 3c 60
        E 59 80 63 00
        E 1 80 60 00
        E 0 80 61 00
        E 0 80 54 00
        E 0 80 55 00
        E 0 80 48 00
        E 0 80 49 00
        E 0 80 3c 00
        E 179 90 63 60
        E 1 90 60 60
        E 0 90 61 60
        E 0 90 54 60
        E 0 90 55 60
        E 0 90 48 60
        E 0 90 49 60
        E 59 80 63 00
        E 1 80 60 00
        E 0 80 61 00
        E 0 80 54 00
        E 0 80 55 00
        E 0 80 48 00
        E 0 80 49 00
        E 179 90 63 60
        E 1 90 60 60
        E 0 90 61 60
        E 0 90 54 60
        E 0 90 55 60
        E 0 90 48 60
        E 0 90 49 60
        E 0 90 3c 60
        E 59 80 63 00
        E 1 80 60 00
        E 0 80 61 00
        E 0 80 54 00
        E 0 80 55 00
        E 0 80 48 00
        E 0 80 49 00
        E 0 80 3c 00
        E 179 90 63 60
        E 1 90 60 60
        E 0 90 61 60
        E 0 90 54 60
        E 0 90 55 60
        E 0 90 48 60
        E 0 90 49 60
        E 59 80 63 00
        E 1 80 60 00
        E 0 80 61 00
        E 0 80 54 00
        E 0 80 55 00
        E 0 80 48 00
        E 0 80 49 00
        E 179 90 63 60
        E 1 90 60 60
        E 0 90 61 60
        E 0 90 54 60
        E 0 90 55 60
        E 0 90 48 60
        E 0 90 49 60
        E 0 90 3c 60
        E 59 80 63 00
        E 1 80 60 00
        E 0 80 61 00
        E 0 80 54 00
        E 0 80 55 00
        E 0 80 48 00
        E 0 80 49 00
        E 0 80 3c 00
        E 179 90 63 60
        E 1 90 60 60
        E 0 90 61 60
        E 0 90 54 60
        E 0 90 55 60
        E 0 90 48 60
        E 0 90 49 60
        E 59 80 63 00
        E 1 80 60 00
        E 0 80 61 00
        E 0 80 54 00
        E 0 80 55 00
        E 0 80 48 00
        E 0 80 49 00
        E 180 90 60 60
        E 0 90 61 60
        E 0 90 62 60
        E 0 90 74 60
        E 0 90 54 60
        E 0 90 55 60
        E 0 90 48 60
        E 0 90 49 60
        E 0 90 3c 60
        E 60 80 60 00
        E 0 80 61 00
        E 0 80 62 00
        E 0 80 54 00
        E 0 80 55 00
        E 0 80 48 00
        E 0 80 49 00
        E 0 80 3c 00
        E 180 90 60 60
        E 0 90 61 60
        E 0 90 62 60
        E 0 90 54 60
        E 0 90 55 60
        E 0 90 48 60
        E 0 90 49 60
        E 60 80 60 00
        E 0 80 61 00
        E 0 80 62 00
        E 0 80 54 00
        E 0 80 55 00
        E 0 80 48 00
        E 0 80 49 00
        E 180 90 60 60
        E 0 90 61 60
        E 0 90 62 60
        E 0 90 54 60
        E 0 90 55 60
        E 0 90 48 60
        E 0 90 49 60
        E 0 90 3c 60
        E 60 80 60 00
        E 0 80 61 00
        E 0 80 62 00
        E 0 80 54 00
        E 0 80 55 00
        E 0 80 48 00
        E 0 80 49 00
        E 0 80 3c 00
        E 180 90 60 60
        E 0 90 61 60
        E 0 90 62 60
        E 0 90 54 60
        E 0 90 55 60
        E 0 90 48 60
        E 0 90 49 60
        E 60 80 60 00
        E 0 80 61 00
        E 0 80 62 00
        E 0 80 54 00
        E 0 80 55 00
        E 0 80 48 00
        E 0 80 49 00
        E 180 90 60 60
        E 0 90 61 60
        E 0 90 62 60
        E 0 90 54 60
        E 0 90 55 60
        E 0 90 48 60
        E 0 90 49 60
        E 0 90 3c 60
        E 60 80 60 00
        E 0 80 61 00
        E 0 80 62 00
        E 0 80 54 00
        E 0 80 55 00
        E 0 80 48 00
        E 0 80 49 00
        E 0 80 3c 00
        E 180 90 60 60
        E 0 90 61 60
        E 0 90 62 60
        E 0 90 54 60
        E 0 90 55 60
        E 0 90 48 60
        E 0 90 49 60
        E 60 80 60 00
        E 0 80 61 00
        E 0 80 62 00
        E 0 80 54 00
        E 0 80 55 00
        E 0 80 48 00
        E 0 80 49 00
        E 180 90 60 60
        E 0 90 61 60
        E 0 90 62 60
        E 0 90 54 60
        E 0 90 55 60
        E 0 90 48 60
        E 0 90 49 60
        E 0 90 3c 60
        E 60 80 60 00
        E 0 80 61 00
        E 0 80 62 00
        E 0 80 54 00
        E 0 80 55 00
        E 0 80 48 00
        E 0 80 49 00
        E 0 80 3c 00
        E 180 90 60 60
        E 0 90 61 60
        E 0 90 62 60
        E 0 90 54 60
        E 0 90 55 60
        E 0 90 48 60
        E 0 90 49 60
        E 60 80 60 00
        E 0 80 61 00
        E 0 80 62 00
        E 0 80 54 00
        E 0 80 55 00
        E 0 80 48 00
        E 0 80 49 00
        E 180 90 60 60
        E 0 90 61 60
        E 0 90 62 60
        E 0 90 54 60
        E 0 90 55 60
        E 0 90 48 60
        E 0 90 49 60
        E 0 90 3c 60
        E 60 80 60 00
        E 0 80 61 00
        E 0 80 62 00
        E 0 80 54 00
        E 0 80 55 00
        E 0 80 48 00
        E 0 80 49 00
        E 0 80 3c 00
        E 180 90 60 60
        E 0 90 61 60
        E 0 90 62 60
        E 0 90 54 60
        E 0 90 55 60
        E 0 90 48 60
        E 0 90 49 60
        E 60 80 60 00
        E 0 80 61 00
        E 0 80 62 00
        E 0 80 54 00
        E 0 80 55 00
        E 0 80 48 00
        E 0 80 49 00
        E 180 90 60 60
        E 0 90 61 60
        E 0 90 62 60
        E 0 90 54 60
        E 0 90 55 60
        E 0 90 48 60
        E 0 90 49 60
        E 0 90 3c 60
        E 60 80 60 00
        E 0 80 61 00
        E 0 80 62 00
        E 0 80 54 00
        E 0 80 55 00
        E 0 80 48 00
        E 0 80 49 00
        E 0 80 3c 00
        E 180 90 60 60
        E 0 90 61 60
        E 0 90 62 60
        E 0 90 54 60
        E 0 90 55 60
        E 60 80 60 00
        E 0 80 61 00
        E 0 80 62 00
        E 0 80 54 00
        E 0 80 55 00
        E 180 90 60 60
        E 0 90 54 60
        E 0 90 48 60
        E 60 80 60 00
        E 0 80 54 00
        E 0 80 48 00
        E 180 90 60 60
        E 0 90 54 60
        E 60 80 60 00
        E 0 80 54 00
        E 180 90 60 60
        E 0 90 61 60
        E 0 90 63 60
        E 0 90 54 60
        E 0 90 56 60
        E 0 90 48 60
        E 0 90 4a 60
        E 0 90 3d 60
        E 120 80 54 00
        E 0 80 56 00
        E 0 80 48 00
        E 0 80 4a 00
        E 0 80 3d 00
        E 180 80 74 00
        E 0 80 60 00
        E 0 80 61 00
        E 0 80 63 00
        E 180 90 60 60
        E 0 90 62 60
        E 0 90 63 60
        E 0 90 54 60
        E 0 90 57 60
        E 0 90 49 60
        E 0 90 4a 60
        E 60 80 60 00
        E 0 80 62 00
        E 0 80 63 00
        E 0 80 54 00
        E 0 80 57 00
        E 0 80 49 00
        E 0 80 4a 00
        E 180 90 60 60
        E 0 90 62 60
        E 0 90 63 60
        E 0 90 54 60
        E 0 90 57 60
        E 0 90 49 60
        E 0 90 4a 60
        E 60 80 60 00
        E 0 80 62 00
        E 0 80 63 00
        E 0 80 54 00
        E 0 80 57 00
        E 0 80 49 00
        E 0 80 4a 00
        E 180 90 60 60
        E 0 90 62 60
        E 0 90 63 60
        E 0 90 54 60
        E 0 90 57 60
        E 0 90 49 60
        E 0 90 4a 60
        E 0 90 3e 60
        E 60 80 60 00
        E 0 80 62 00
        E 0 80 63 00
        E 0 80 54 00
        E 0 80 57 00
        E 0 80 49 00
        E 0 80 4a 00
        E 0 80 3e 00
        E 180 90 60 60
        E 0 90 62 60
        E 0 90 63 60
        E 0 90 54 60
        E 0 90 57 60
        E 60 80 60 00
        E 0 80 62 00
        E 0 80 63 00
        E 0 80 54 00
        E 0 80 57 00
        E 180 90 61 60
        E 0 90 62 60
        E 0 90 64 60
        E 0 90 55 60
        E 0 90 58 60
        E 0 90 4a 60
        E 0 90 4c 60
        E 60 80 61 00
        E 0 80 62 00
        E 0 80 64 00
        E 0 80 55 00
        E 0 80 58 00
        E 0 80 4a 00
        E 0 80 4c 00
        E 180 90 61 60
        E 0 90 62 60
        E 0 90 64 60
        E 0 90 55 60
        E 0 90 58 60
        E 0 90 4a 60
        E 0 90 4c 60
        E 60 80 61 00
        E 0 80 62 00
        E 0 80 64 00
        E 0 80 55 00
        E 0 80 58 00
        E 0 80 4a 00
        E 0 80 4c 00
        E 180 90 61 60
        E 0 90 62 60
        E 0 90 64 60
        E 0 90 55 60
        E 0 90 58 60
        E 0 90 4a 60
        E 0 90 4c 60
        E 0 90 40 60
        E 60 80 61 00
        E 0 80 62 00
        E 0 80 64 00
        E 0 80 55 00
        E 0 80 58 00
        E 0 80 4a 00
        E 0 80 4c 00
        E 0 80 40 00
        E 180 90 61 60
        E 0 90 62 60
        E 0 90 64 60
        E 0 90 55 60
        E 0 90 58 60
        E 60 80 61 00
        E 0 80 62 00
        E 0 80 64 00
        E 0 80 55 00
        E 0 80 58 00
        E 180 90 60 60
        E 0 90 61 60
        E 0 90 63 60
        E 0 90 54 60
        E 0 90 56 60
        E 0 90 48 60
        E 0 90 4a 60
        E 60 80 60 00
        E 0 80 61 00
        E 0 80 63 00
        E 0 80 54 00
        E 0 80 56 00
        E 0 80 48 00
        E 0 80 4a 00
        E 179 90 63 60
        E 1 90 60 60
        E 0 90 61 60
        E 0 90 54 60
        E 0 90 55 60
        E 59 80 63 00
        E 1 80 60 00
        E 0 80 61 00
        E 0 80 54 00
        E 0 80 55 00
        E 179 90 63 60
        E 1 90 60 60
        E 0 90 61 60
        E 0 90 54 60
        E 0 90 55 60
        E 0 90 48 60
        E 0 90 49 60
        E 0 90 3c 60
        E 59 80 63 00
        E 1 80 60 00
        E 0 80 61 00
        E 0 80 54 00
        E 0 80 55 00
        E 0 80 48 00
        E 0 80 49 00
        E 0 80 3c 00
        E 179 90 63 60
        E 1 90 60 60
        E 0 90 61 60
        E 0 90 54 60
        E 0 90 55 60
        E 0 90 48 60
        E 0 90 49 60
        E 59 80 63 00
        E 1 80 60 00
        E 0 80 61 00
        E 0 80 54 00
        E 0 80 55 00
        E 0 80 48 00
        E 0 80 49 00
        E 179 90 63 60
        E 1 90 60 60
        E 0 90 61 60
        E 0 90 54 60
        E 0 90 55 60
        E 0 90 48 60
        E 0 90 49 60
        E 0 90 3c 60
        E 59 80 63 00
        E 1 80 60 00
        E 0 80 61 00
        E 0 80 54 00
        E 0 80 55 00
        E 0 80 48 00
        E 0 80 49 00
        E 0 80 3c 00
        E 179 90 63 60
        E 1 90 60 60
        E 0 90 61 60
        E 0 90 54 60
        E 0 90 55 60
        E 0 90 48 60
        E 0 90 49 60
        E 59 80 63 00
        E 1 80 60 00
        E 0 80 61 00
        E 0 80 54 00
        E 0 80 55 00
        E 0 80 48 00
        E 0 80 49 00
        E 179 90 63 60
        E 1 90 60 60
        E 0 90 61 60
        E 0 90 54 60
        E 0 90 55 60
        E 0 90 48 60
        E 0 90 49 60
        E 0 90 3c 60
        E 59 80 63 00
        E 1 80 60 00
        E 0 80 61 00
        E 0 80 54 00
        E 0 80 55 00
        E 0 80 48 00
        E 0 80 49 00
        E 0 80 3c 00
        E 179 90 63 60
        E 1 90 60 60
        E 0 90 61 60
        E 0 90 54 60
        E 0 90 55 60
        E 0 90 48 60
        E 0 90 49 60
        E 59 80 63 00
        E 1 80 60 00
        E 0 80 61 00
        E 0 80 54 00
        E 0 80 55 00
        E 0 80 48 00
        E 0 80 49 00
        E 180 90 60 60
        E 0 90 61 60
        E 0 90 62 60
        E 0 90 54 60
        E 0 90 55 60
        E 0 90 48 60
        E 0 90 49 60
        E 0 90 3c 60
        E 60 80 60 00
        E 0 80 61 00
        E 0 80 62 00
        E 0 80 54 00
        E 0 80 55 00
        E 0 80 48 00
        E 0 80 49 00
        E 0 80 3c 00
        E 180 90 60 60
        E 0 90 61 60
        E 0 90 62 60
        E 0 90 54 60
        E 0 90 55 60
        E 0 90 48 60
        E 0 90 49 60
        E 60 80 60 00
        E 0 80 61 00
        E 0 80 62 00
        E 0 80 54 00
        E 0 80 55 00
        E 0 80 48 00
        E 0 80 49 00
        E 180 90 60 60
        E 0 90 61 60
        E 0 90 62 60
        E 0 90 54 60
        E 0 90 55 60
        E 0 90 48 60
        E 0 90 49 60
        E 0 90 3c 60
        E 60 80 60 00
        E 0 80 61 00
        E 0 80 62 00
        E 0 80 54 00
        E 0 80 55 00
        E 0 80 48 00
        E 0 80 49 00
        E 0 80 3c 00
        E 180 90 60 60
        E 0 90 61 60
        E 0 90 62 60
        E 0 90 54 60
        E 0 90 55 60
        E 0 90 48 60
        E 0 90 49 60
        E 60 80 60 00
        E 0 80 61 00
        E 0 80 62 00
        E 0 80 54 00
        E 0 80 55 00
        E 0 80 48 00
        E 0 80 49 00
        E 180 90 60 60
        E 0 90 61 60
        E 0 90 62 60
        E 0 90 54 60
        E 0 90 55 60
        E 0 90 48 60
        E 0 90 49 60
        E 0 90 3c 60
        E 60 80 60 00
        E 0 80 61 00
        E 0 80 62 00
        E 0 80 54 00
        E 0 80 55 00
        E 0 80 48 00
        E 0 80 49 00
        E 0 80 3c 00
        E 180 90 60 60
        E 0 90 61 60
        E 0 90 62 60
        E 0 90 54 60
        E 0 90 55 60
        E 0 90 48 60
        E 0 90 49 60
        E 60 80 60 00
        E 0 80 61 00
        E 0 80 62 00
        E 0 80 54 00
        E 0 80 55 00
        E 0 80 48 00
        E 0 80 49 00
        E 180 90 60 60
        E 0 90 61 60
        E 0 90 62 60
        E 0 90 54 60
        E 0 90 55 60
        E 0 90 48 60
        E 0 90 49 60
        E 0 90 3c 60
        E 60 80 60 00
        E 0 80 61 00
        E 0 80 62 00
        E 0 80 54 00
        E 0 80 55 00
        E 0 80 48 00
        E 0 80 49 00
        E 0 80 3c 00
        E 180 90 60 60
        E 0 90 61 60
        E 0 90 62 60
        E 0 90 54 60
        E 0 90 55 60
        E 0 90 48 60
        E 0 90 49 60
        E 60 80 60 00
        E 0 80 61 00
        E 0 80 62 00
        E 0 80 54 00
        E 0 80 55 00
        E 0 80 48 00
        E 0 80 49 00
        E 180 90 60 60
        E 0 90 61 60
        E 0 90 62 60
        E 0 90 54 60
        E 0 90 55 60
        E 0 90 48 60
        E 0 90 49 60
        E 0 90 3c 60
        E 60 80 60 00
        E 0 80 61 00
        E 0 80 62 00
        E 0 80 54 00
        E 0 80 55 00
        E 0 80 48 00
        E 0 80 49 00
        E 0 80 3c 00
        E 180 90 60 60
        E 0 90 61 60
        E 0 90 62 60
        E 0 90 54 60
        E 0 90 55 60
        E 0 90 48 60
        E 0 90 49 60
        E 60 80 60 00
        E 0 80 61 00
        E 0 80 62 00
        E 0 80 54 00
        E 0 80 55 00
        E 0 80 48 00
        E 0 80 49 00
        E 162 90 74 60
        E 18 90 60 60
        E 0 90 61 60
        E 0 90 62 60
        E 0 90 54 60
        E 0 90 55 60
        E 0 90 48 60
        E 0 90 49 60
        E 0 90 3c 60
        E 60 80 60 00
        E 0 80 61 00
        E 0 80 62 00
        E 0 80 54 00
        E 0 80 55 00
        E 0 80 48 00
        E 0 80 49 00
        E 0 80 3c 00
        E 180 90 60 60
        E 0 90 61 60
        E 0 90 62 60
        E 0 90 54 60
        E 0 90 55 60
        E 0 90 48 60
        E 0 90 49 60
        E 60 80 60 00
        E 0 80 61 00
        E 0 80 62 00
        E 0 80 54 00
        E 0 80 55 00
        E 0 80 48 00
        E 0 80 49 00
        E 180 90 60 60
        E 0 90 61 60
        E 0 90 62 60
        E 0 90 54 60
        E 0 90 55 60
        E 0 90 48 60
        E 0 90 49 60
        E 60 80 60 00
        E 0 80 61 00
        E 0 80 62 00
        E 0 80 54 00
        E 0 80 55 00
        E 0 80 48 00
        E 0 80 49 00
        E 180 90 60 60
        E 0 90 61 60
        E 0 90 62 60
        E 0 90 54 60
        E 0 90 55 60
        E 60 80 60 00
        E 0 80 61 00
        E 0 80 62 00
        E 0 80 54 00
        E 0 80 55 00
        E 180 90 60 60
        E 0 90 61 60
        E 0 90 63 60
        E 0 90 54 60
        E 0 90 56 60
        E 0 90 48 60
        E 0 90 4a 60
        E 0 90 3d 60
        E 60 80 60 00
        E 0 80 61 00
        E 0 80 63 00
        E 0 80 54 00
        E 0 80 56 00
        E 0 80 48 00
        E 0 80 4a 00
        E 0 80 3d 00
        E 42 80 74 00
        E 138 90 60 60
        E 0 90 61 60
        E 0 90 63 60
        E 0 90 54 60
        E 0 90 56 60
        E 60 80 60 00
        E 0 80 61 00
        E 0 80 63 00
        E 0 80 54 00
        E 0 80 56 00
        E 180 90 60 60
        E 0 90 62 60
        E 0 90 63 60
        E 0 90 54 60
        E 0 90 57 60
        E 0 90 49 60
        E 0 90 4a 60
        E 60 80 60 00
        E 0 80 62 00
        E 0 80 63 00
        E 0 80 54 00
        E 0 80 57 00
        E 0 80 49 00
        E 0 80 4a 00
        E 180 90 60 60
        E 0 90 62 60
        E 0 90 63 60
        E 0 90 54 60
        E 0 90 57 60
        E 0 90 49 60
        E 0 90 4a 60
        E 60 80 60 00
        E 0 80 62 00
        E 0 80 63 00
        E 0 80 54 00
        E 0 80 57 00
        E 0 80 49 00
        E 0 80 4a 00
        E 180 90 60 60
        E 0 90 62 60
        E 0 90 63 60
        E 0 90 54 60
        E 0 90 57 60
        E 0 90 49 60
        E 0 90 4a 60
        E 0 90 3e 60
        E 60 80 60 00
        E 0 80 62 00
        E 0 80 63 00
        E 0 80 54 00
        E 0 80 57 00
        E 0 80 49 00
        E 0 80 4a 00
        E 0 80 3e 00
        E 180 90 60 60
        E 0 90 62 60
        E 0 90 63 60
        E 0 90 54 60
        E 0 90 57 60
        E 60 80 60 00
        E 0 80 62 00
        E 0 80 63 00
        E 0 80 54 00
        E 0 80 57 00
        E 180 90 61 60
        E 0 90 62 60
        E 0 90 64 60
        E 0 90 55 60
        E 0 90 58 60
        E 0 90 4a 60
        E 0 90 4c 60
        E 60 80 61 00
        E 0 80 62 00
        E 0 80 64 00
        E 0 80 55 00
        E 0 80 58 00
        E 0 80 4a 00
        E 0 80 4c 00
        E 180 90 61 60
        E 0 90 62 60
        E 0 90 64 60
        E 0 90 55 60
        E 0 90 58 60
        E 0 90 4a 60
        E 0 90 4c 60
        E 60 80 61 00
        E 0 80 62 00
        E 0 80 64 00
        E 0 80 55 00
        E 0 80 58 00
        E 0 80 4a 00
        E 0 80 4c 00
        E 180 90 61 60
        E 0 90 62 60
        E 0 90 64 60
        E 0 90 55 60
        E 0 90 58 60
        E 0 90 4a 60
        E 0 90 4c 60
        E 0 90 40 60
        E 60 80 61 00
        E 0 80 62 00
        E 0 80 64 00
        E 0 80 55 00
        E 0 80 58 00
        E 0 80 4a 00
        E 0 80 4c 00
        E 0 80 40 00
        E 180 90 61 60
        E 0 90 62 60
        E 0 90 64 60
        E 0 90 55 60
        E 0 90 58 60
        E 60 80 61 00
        E 0 80 62 00
        E 0 80 64 00
        E 0 80 55 00
        E 0 80 58 00
        E 180 90 60 60
        E 0 90 61 60
        E 0 90 63 60
        E 0 90 54 60
        E 0 90 56 60
        E 0 90 48 60
        E 0 90 4a 60
        E 60 80 60 00
        E 0 80 61 00
        E 0 80 63 00
        E 0 80 54 00
        E 0 80 56 00
        E 0 80 48 00
        E 0 80 4a 00
        E 179 90 63 60
        E 1 90 60 60
        E 0 90 61 60
        E 0 90 54 60
        E 0 90 55 60
        E 59 80 63 00
        E 1 80 60 00
        E 0 80 61 00
        E 0 80 54 00
        E 0 80 55 00
        E 179 90 63 60
        E 1 90 60 60
        E 0 90 61 60
        E 0 90 54 60
        E 0 90 55 60
        E 0 90 48 60
        E 0 90 49 60
        E 0 90 3c 60
        E 59 80 63 00
        E 1 80 60 00
        E 0 80 61 00
        E 0 80 54 00
        E 0 80 55 00
        E 0 80 48 00
        E 0 80 49 00
        E 0 80 3c 00
        E 179 90 63 60
        E 1 90 60 60
        E 0 90 61 60
        E 0 90 54 60
        E 0 90 55 60
        E 0 90 48 60
        E 0 90 49 60
        E 59 80 63 00
        E 1 80 60 00
        E 0 80 61 00
        E 0 80 54 00
        E 0 80 55 00
        E 0 80 48 00
        E 0 80 49 00
        E 179 90 63 60
        E 1 90 60 60
        E 0 90 61 60
        E 0 90 54 60
        E 0 90 55 60
        E 0 90 48 60
        E 0 90 49 60
        E 0 90 3c 60
        E 59 80 63 00
        E 1 80 60 00
        E 0 80 61 00
        E 0 80 54 00
        E 0 80 55 00
        E 0 80 48 00
        E 0 80 49 00
        E 0 80 3c 00
        E 179 90 63 60
        E 1 90 60 60
        E 0 90 61 60
        E 0 90 54 60
        E 0 90 55 60
        E 0 90 48 60
        E 0 90 49 60
        E 59 80 63 00
        E 1 80 60 00
        E 0 80 61 00
        E 0 80 54 00
        E 0 80 55 00
        E 0 80 48 00
        E 0 80 49 00
        E 179 90 63 60
        E 1 90 60 60
        E 0 90 61 60
        E 0 90 54 60
        E 0 90 55 60
        E 0 90 48 60
        E 0 90 49 60
        E 0 90 3c 60
        E 59 80 63 00
        E 1 80 60 00
        E 0 80 61 00
        E 0 80 54 00
        E 0 80 55 00
        E 0 80 48 00
        E 0 80 49 00
        E 0 80 3c 00
        E 179 90 63 60
        E 1 90 60 60
        E 0 90 61 60
        E 0 90 54 60
        E 0 90 55 60
        E 0 90 48 60
        E 0 90 49 60
        E 59 80 63 00
        E 1 80 60 00
        E 0 80 61 00
        E 0 80 54 00
        E 0 80 55 00
        E 0 80 48 00
        E 0 80 49 00
        E 180 90 60 60
        E 0 90 61 60
        E 0 90 62 60
        E 0 90 54 60
        E 0 90 55 60
        E 0 90 48 60
        E 0 90 49 60
        E 0 90 3c 60
        E 60 80 60 00
        E 0 80 61 00
        E 0 80 62 00
        E 0 80 54 00
        E 0 80 55 00
        E 0 80 48 00
        E 0 80 49 00
        E 0 80 3c 00
        E 180 90 60 60
        E 0 90 61 60
        E 0 90 62 60
        E 0 90 54 60
        E 0 90 55 60
        E 0 90 48 60
        E 0 90 49 60
        E 60 80 60 00
        E 0 80 61 00
        E 0 80 62 00
        E 0 80 54 00
        E 0 80 55 00
        E 0 80 48 00
        E 0 80 49 00
        E 180 90 60 60
        E 0 90 61 60
        E 0 90 62 60
        E 0 90 54 60
        E 0 90 55 60
        E 0 90 48 60
        E 0 90 49 60
        E 0 90 3c 60
        E 60 80 60 00
        E 0 80 61 00
        E 0 80 62 00
        E 0 80 54 00
        E 0 80 55 00
        E 0 80 48 00
        E 0 80 49 00
        E 0 80 3c 00
        E 180 90 60 60
        E 0 90 61 60
        E 0 90 62 60
        E 0 90 54 60
        E 0 90 55 60
        E 0 90 48 60
        E 0 90 49 60
        E 60 80 60 00
        E 0 80 61 00
        E 0 80 62 00
        E 0 80 54 00
        E 0 80 55 00
        E 0 80 48 00
        E 0 80 49 00
        E 180 90 60 60
        E 0 90 61 60
        E 0 90 62 60
        E 0 90 54 60
        E 0 90 55 60
        E 0 90 48 60
        E 0 90 49 60
        E 0 90 3c 60
        E 60 80 60 00
        E 0 80 61 00
        E 0 80 62 00
        E 0 80 54 00
        E 0 80 55 00
        E 0 80 48 00
        E 0 80 49 00
        E 0 80 3c 00
        E 180 90 60 60
        E 0 90 61 60
        E 0 90 62 60
        E 0 90 54 60
        E 0 90 55 60
        E 0 90 48 60
        E 0 90 49 60
        E 60 80 60 00
        E 0 80 61 00
        E 0 80 62 00
        E 0 80 54 00
        E 0 80 55 00
        E 0 80 48 00
        E 0 80 49 00
        E 180 90 60 60
        E 0 90 61 60
        E 0 90 62 60
        E 0 90 54 60
        E 0 90 55 60
        E 0 90 48 60
        E 0 90 49 60
        E 0 90 3c 60
        E 60 80 60 00
        E 0 80 61 00
        E 0 80 62 00
        E 0 80 54 00
        E 0 80 55 00
        E 0 80 48 00
        E 0 80 49 00
        E 0 80 3c 00
        E 180 90 60 60
        E 0 90 61 60
        E 0 90 62 60
        E 0 90 54 60
        E 0 90 55 60
        E 0 90 48 60
        E 0 90 49 60
        E 60 80 60 00
        E 0 80 61 00
        E 0 80 62 00
        E 0 80 54 00
        E 0 80 55 00
        E 0 80 48 00
        E 0 80 49 00
        E 180 90 60 60
        E 0 90 61 60
        E 0 90 62 60
        E 0 90 54 60
        E 0 90 55 60
        E 0 90 48 60
        E 0 90 49 60
        E 0 90 3c 60
        E 60 80 60 00
        E 0 80 61 00
        E 0 80 62 00
        E 0 80 54 00
        E 0 80 55 00
        E 0 80 48 00
        E 0 80 49 00
        E 0 80 3c 00
        E 180 90 60 60
        E 0 90 61 60
        E 0 90 62 60
        E 0 90 54 60
        E 0 90 55 60
        E 0 90 48 60
        E 0 90 49 60
        E 60 80 60 00
        E 0 80 61 00
        E 0 80 62 00
        E 0 80 54 00
        E 0 80 55 00
        E 0 80 48 00
        E 0 80 49 00
        E 180 90 60 60
        E 0 90 61 60
        E 0 90 62 60
        E 0 90 54 60
        E 0 90 55 60
        E 0 90 48 60
        E 0 90 49 60
        E 0 90 3c 60
        E 60 80 60 00
        E 0 80 61 00
        E 0 80 62 00
        E 0 80 54 00
        E 0 80 55 00
        E 0 80 48 00
        E 0 80 49 00
        E 0 80 3c 00
        E 180 90 60 60
        E 0 90 61 60
        E 0 90 62 60
        E 0 90 54 60
        E 0 90 55 60
        E 60 80 60 00
        E 0 80 61 00
        E 0 80 62 00
        E 0 80 54 00
        E 0 80 55 00
        E 180 90 60 60
        E 0 90 54 60
        E 0 90 48 60
        E 60 80 60 00
        E 0 80 54 00
        E 0 80 48 00
        E 180 90 60 60
        E 0 90 54 60
        E 60 80 60 00
        E 0 80 54 00
        E 180 90 60 60
        E 0 90 61 60
        E 0 90 63 60
        E 0 90 54 60
        E 0 90 56 60
        E 0 90 48 60
        E 0 90 4a 60
        E 0 90 3d 60
        E 120 80 54 00
        E 0 80 56 00
        E 0 80 48 00
        E 0 80 4a 00
        E 0 80 3d 00
        E 180 80 60 00
        E 0 80 61 00
        E 0 80 63 00
        E 180 90 60 60
        E 0 90 54 60
        E 0 90 48 60
        E 60 80 60 00
        E 0 80 54 00
        E 0 80 48 00
        <X 480 0
          /wFbaWRsZV9yZWFsdGltZV0=
        >
        E 18493 b0 7b 00
        GUID {14D9E950-FB92-4048-8603-8FD02AE3B865}
        IGNTEMPO 0 120.00000000 4 4
        SRCCOLOR 1256
        VELLANE 132 38 60
        COLORMAP "C:\Users\wejaa\AppData\Roaming\REAPER\Data\color_maps\rockband_guitarbass.png"
        TEXTSTRINGFILE "Text Events List.txt"
        CFGEDITVIEW 8100.951378 155.723187 10 12 0 0 0
        CFGEDIT 1 1 0 0 0 1 1 1 1 1 1 0.12500000 -8 -8 1370 736 1 2 1 2 0.00000000 0 0 0 0 0.500000 1 0 1.000000 64
        KEYSNAP 0 0 "102034050607" 0 "Major"
        EVTFILTER 0 -1 -1 -1 -1 0 1 0 0 -1.00000000 -1.00000000
      >
    >
  >
  <TRACK '{63347CDD-F887-4004-8FFF-A40CB9D2D1AD}'
    NAME "1_mvsep_inst_(Guitar)"
    PEAKCOL 16576
    BEAT -1
    AUTOMODE 0
    VOLPAN 1.00000000000000 -0.06400000000000 -1.00000000000000 -1.00000000000000 1.00000000000000
    MUTESOLO 0 2 0
    IPHASE 0
    ISBUS 0 0
    BUSCOMP 0 0
    SHOWINMIX 1 0.666700 0.500000 1 0.500000 -1 -1 -1
    FREEMODE 0
    SEL 0
    REC 0 0 0 0 0 0 0
    VU 2
    TRACKHEIGHT 0 0
    INQ 0 0 0 0.5000000000 100 0 0 100
    NCHAN 2
    FX 1
    TRACKID {63347CDD-F887-4004-8FFF-A40CB9D2D1AD}
    PERF 0
    MIDIOUT -1
    MAINSEND 1 0
    <ITEM
      POSITION 3.73480460909195
      SNAPOFFS 0.00000000000000
      LENGTH 212.85333333333332
      LOOP 0
      ALLTAKES 0
      SEL 0
      FADEIN 1 0.000000 0.000000 1 0
      FADEOUT 1 0.000000 0.000000 1 0
      MUTE 0
      IGUID {5F20C44B-D23D-404D-90F1-DAE83533CDAB}
      IID 47
      NAME "1_mvsep_inst_(Guitar).wav"
      VOLPAN 1.000000 0.000000 1.000000 -1.000000
      SOFFS 0.00000000000000
      PLAYRATE 1.00000000000000 1 0.00000000000000 -1
      CHANMODE 0
      GUID {F4FF6562-4969-4667-9248-B6CD72BEC610}
      <SOURCE WAVE
        FILE "1_mvsep_inst_(Guitar).wav"
      >
    >
  >
  <TRACK '{57FF2A18-F3D4-4E2A-B0E4-96F65076B1E2}'
    NAME "mvsep_audio"
    PEAKCOL 16576
    BEAT -1
    AUTOMODE 0
    VOLPAN 1.00000000000000 0.00000000000000 -1.00000000000000 -1.00000000000000 1.00000000000000
    MUTESOLO 0 0 0
    IPHASE 0
    ISBUS 0 0
    BUSCOMP 0 0
    SHOWINMIX 1 0.666700 0.500000 1 0.500000 -1 -1 -1
    FREEMODE 0
    SEL 0
    REC 0 0 0 0 0 0 0
    VU 2
    TRACKHEIGHT 0 0
    INQ 0 0 0 0.5000000000 100 0 0 100
    NCHAN 2
    FX 1
    TRACKID {57FF2A18-F3D4-4E2A-B0E4-96F65076B1E2}
    PERF 0
    MIDIOUT -1
    MAINSEND 1 0
    <ITEM
      POSITION 3.73480460909195
      SNAPOFFS 0.00000000000000
      LENGTH 212.85333333333332
      LOOP 0
      ALLTAKES 0
      SEL 0
      FADEIN 1 0.000000 0.000000 1 0
      FADEOUT 1 0.000000 0.000000 1 0
      MUTE 0
      IGUID {A2D5D4F9-5A89-4348-A5A3-4A2B3EC52426}
      IID 85
      NAME "mvsep_audio.mp3"
      VOLPAN 1.000000 0.000000 1.000000 -1.000000
      SOFFS 0.00000000000000
      PLAYRATE 1.00000000000000 1 0.00000000000000 -1
      CHANMODE 0
      GUID {87C5EE59-B930-4F30-8E21-FB1ECEE5EF91}
      <SOURCE MP3
        FILE "mvsep_audio.mp3" 1
      >
    >
  >
  <TRACK '{C298A11E-8E06-44B8-AA31-429ECCE3F0AF}'
    NAME "PART VOCALS"
    PEAKCOL 16810239
    BEAT -1
    AUTOMODE 0
    VOLPAN 0.99997469241676 0.00000000000000 -1.00000000000000 -1.00000000000000 1.00000000000000
    MUTESOLO 0 0 0
    IPHASE 0
    ISBUS 0 0
    BUSCOMP 1 0
    SHOWINMIX 1 0.666700 0.500000 1 0.500000 -1 -1 -1
    FREEMODE 0
    SEL 0
    REC 0 4096 1 7 0 0 0
    TRACKHEIGHT 0 0
    INQ 0 0 0 0.5000000000 100 0 0 100
    NCHAN 2
    FX 1
    TRACKID {C298A11E-8E06-44B8-AA31-429ECCE3F0AF}
    PERF 0
    MIDIOUT -1
    <MIDINOTENAMES
      0 105 "Phrase Marker"
      0 84 "C5"
      0 36 "C1"
      0 83 "B"
      0 82 "Bb"
      0 81 "A"
      0 80 "G#"
      0 79 "G"
      0 78 "F#"
      0 77 "F"
      0 76 "E"
      0 75 "Eb"
      0 74 "D"
      0 73 "C#"
      0 72 "C4"
      0 71 "B"
      0 70 "Bb"
      0 69 "A"
      0 68 "G#"
      0 67 "G"
      0 66 "F#"
      0 65 "F"
      0 64 "E"
      0 63 "Eb"
      0 62 "D"
      0 61 "C#"
      0 60 "C3"
      0 59 "B"
      0 58 "Bb"
      0 57 "A"
      0 56 "G#"
      0 55 "G"
      0 54 "F#"
      0 53 "F"
      0 52 "E"
      0 51 "Eb"
      0 50 "D"
      0 49 "C#"
      0 48 "C2"
      0 47 "B"
      0 46 "Bb"
      0 45 "A"
      0 44 "G#"
      0 43 "G"
      0 42 "F#"
      0 41 "F"
      0 40 "E"
      0 39 "Eb"
      0 38 "D"
      0 37 "C#"
      0 97 "Not Displayed Percussion"
      0 96 "Displayed Percussion"
      0 104 "----"
      0 95 "----"
      0 116 "OVERDRIVE"
      0 115 "----"
      0 0 "Range Shift"
      0 1 "Lyric Shift"
    >
    MAINSEND 1 0
    <FXCHAIN
      WNDRECT 581 377 716 493
      SHOW 0
      LASTSEL 1
      DOCKED 0
      BYPASS 0 0
      <JS "IX/MIDI_Tool II" ""
        0.000000 85.000000 127.000000 0.000000 0.000000 0.000000 100.000000 0.000000 0.000000 127.000000 0.000000 0.000000 1.000000 0.000000 0.000000 - - - - - - - - - - - - - - - - - - - - - - - - - - - - - - - - - - - - - - - - - - - - - - - - - 
      >
      FLOATPOS 0 0 0 0
      FXID {CA785021-0433-497E-9A6C-EE23A1BC21B0}
      WAK 0
      BYPASS 0 0
      <VST "VSTi: ReaSynth (Cockos)" "reasynth.dll" 0 ""
        eXNlcu9e7f4AAAAAAgAAAAEAAAAAAAAAAgAAAAAAAAA4AAAAAAAAAA==
        AAAAAO++rd4N8K3eppvEOxe30ToAAAAAAAAAAAAAAACa9Q8/6WeIPQ==
        AAAAAAAAAD8AAIA/AAAAAAAAAD8AAAAAAAA=
      >
      FLOATPOS 32 32 338 405
      FXID {F124DD19-73B4-4CD5-B659-E246F2A3D0B3}
      WAK 0
    >
    <ITEM
      POSITION 0.00000000000000
      SNAPOFFS 0.00000000000000
      LENGTH 216.46910672846175
      LOOP 0
      ALLTAKES 0
      SEL 0
      FADEIN 1 0.000000 0.000000 1 0
      FADEOUT 1 0.000000 0.000000 1 0
      MUTE 0
      IGUID {9C9617EC-369A-41B9-80F6-31F4222F13F6}
      IID 10
      NAME "PART VOCALS"
      VOLPAN 1.000000 0.000000 1.000000 -1.000000
      SOFFS 0.00000000000000 0.00000000000000
      PLAYRATE 1.00000000000000 1 0.00000000000000 -65536
      CHANMODE 0
      GUID {8E872349-00D8-4243-95D7-0B92852E4EE5}
      <SOURCE MIDI
        HASDATA 1 480 QN
        POOLEDEVTS {68EDFC0C-9D2F-42D2-92DE-AE0A677C1917}
        <X 0 0
          /wNQQVJUIFZPQ0FMUw==
        >
        <X 1920 0
          /wFbcGxheV0=
        >
        E 1800 90 69 5b
        <X 116 0
          /wVNYWNoaW5hZSM=
        >
        E 0 90 3b 3c
        E 271 80 3b 00
        <X 187 0
          /wVTdXByZW1hY3kj
        >
        E 0 90 3b 6e
        E 419 80 3b 00
        <X 129 0
          /wViaXRjaCM=
        >
        E 0 90 3b 50
        E 409 80 3b 00
        E 149 80 69 00
        E 660 90 69 5b
        <X 226 0
          /wVCaWtrdS0j
        >
        E 0 90 3b 51
        E 388 80 3b 00
        <X 48 0
          /wVyaXNoaXRhIw==
        >
        E 0 90 3b 6c
        E 243 80 3b 00
        <X 63 0
          /wVkZXNob3Uj
        >
        E 0 90 3b 6c
        E 440 80 3b 00
        E 272 80 69 00
        E 300 90 69 5b
        <X 178 0
          /wVEZW5zdHN1Iw==
        >
        E 0 90 3b 6c
        E 396 80 3b 00
        <X 64 0
          /wVubyM=
        >
        E 0 90 3b 6c
        E 92 80 3b 00
        <X 57 0
          /wVNYWNoaW5hZSM=
        >
        E 0 90 3b 6c
        E 398 80 3b 00
        <X 51 0
          /wVTdXByZW1hY3kj
        >
        E 0 90 3b 6c
        E 501 80 3b 00
        E 183 80 69 00
        E 900 90 69 5b
        E 0 90 74 5b
        <X 172 0
          /wVZYXRzdXJhIw==
        >
        E 0 90 3b 6c
        E 384 80 3b 00
        <X 48 0
          /wV3YSM=
        >
        E 0 90 3b 6c
        E 63 80 3b 00
        <X 46 0
          /wVkb2tvIw==
        >
        E 0 90 3b 6c
        E 184 80 3b 00
        <X 86 0
          /wVuaSM=
        >
        E 0 90 3b 6c
        E 60 80 3b 00
        <X 43 0
          /wVtbyM=
        >
        E 0 90 3b 6c
        E 37 80 3b 00
        <X 40 0
          /wVpa2FuYWluIw==
        >
        E 0 90 3b 6c
        E 448 80 3b 00
        <X 58 0
          /wVkYWthcmEj
        >
        E 0 90 3b 6c
        E 419 80 3b 00
        E 252 80 69 00
        E 0 80 74 00
        E 360 90 69 5b
        <X 225 0
          /wVLb2tvIw==
        >
        E 0 90 3b 6c
        E 65 80 3b 00
        <X 37 0
          /wVrYXJhIw==
        >
        E 0 90 3b 6c
        E 145 80 3b 00
        <X 40 0
          /wVvaWRhc2FuYS0j
        >
        E 0 90 3b 6c
        E 440 80 3b 00
        <X 102 0
          /wVreWEj
        >
        E 0 90 3b 6c
        E 268 80 3b 00
        E 358 80 69 00
        <X 122 0
          /wFbaWRsZV0=
        >
        <X 14814 0
          /wFbcGxheV0=
        >
        E 304 90 69 5b
        <X 176 0
          /wVFdmUt
        >
        E 0 90 33 68
        E 221 80 33 00
        <X 82 0
          /wVyeQ==
        >
        E 0 90 33 68
        E 128 80 33 00
        <X 140 0
          /wV0aW1l
        >
        E 0 90 35 66
        E 192 80 35 00
        <X 52 0
          /wV0aGV5
        >
        E 0 90 38 6a
        E 138 80 38 00
        <X 121 0
          /wV0dXJu
        >
        E 0 90 39 6a
        E 203 80 39 00
        <X 59 0
          /wV0aGU=
        >
        E 0 90 36 70
        E 105 80 36 00
        <X 92 0
          /wVsaWdodHM=
        >
        E 0 90 39 70
        E 336 80 39 00
        <X 157 0
          /wVkb3du
        >
        E 0 90 36 70
        E 391 80 36 00
        <X 57 0
          /wUr
        >
        E 0 90 37 52
        E 206 80 37 00
        <X 57 0
          /wUr
        >
        E 0 90 35 52
        E 380 80 35 00
        E 247 80 69 00
        E 480 90 69 5b
        <X 181 0
          /wVKdXN0
        >
        E 0 90 3e 70
        E 116 80 3e 00
        <X 107 0
          /wUr
        >
        E 0 90 3b 70
        E 122 80 3b 00
        <X 117 0
          /wV3YW4t
        >
        E 0 90 39 70
        E 144 80 39 00
        <X 54 0
          /wVuYQ==
        >
        E 0 90 36 70
        E 111 80 36 00
        <X 71 0
          /wVnbw==
        >
        E 0 90 36 70
        E 244 80 36 00
        <X 62 0
          /wV0aGF0
        >
        E 0 90 39 70
        E 156 80 39 00
        <X 42 0
          /wVleC0=
        >
        E 0 90 36 70
        E 102 80 36 00
        <X 58 0
          /wUr
        >
        E 0 90 38 70
        E 109 80 38 00
        <X 69 0
          /wUr
        >
        E 0 90 34 70
        E 76 80 34 00
        <X 69 0
          /wV0cmE=
        >
        E 0 90 31 70
        E 119 80 31 00
        <X 132 0
          /wVtaWxl
        >
        E 0 90 31 70
        E 551 80 31 00
        <X 157 0
          /wVmb3I=
        >
        E 0 90 2f 70
        E 163 80 2f 00
        <X 61 0
          /wV5b3U=
        >
        E 0 90 33 70
        E 553 80 33 00
        E 94 80 69 00
        E 60 90 69 5b
        E 0 90 74 5b
        <X 48 0
          /wVQdWIt
        >
        E 0 90 35 64
        E 149 80 35 00
        <X 95 0
          /wVsaWM=
        >
        E 0 90 35 54
        E 129 80 35 00
        <X 86 0
          /wVkaXMt
        >
        E 0 90 36 48
        E 177 80 36 00
        <X 66 0
          /wVwbGF5
        >
        E 0 90 38 48
        E 240 80 38 00
        <X 99 0
          /wVvZg==
        >
        E 0 90 39 48
        E 85 80 39 00
        <X 83 0
          /wVhZi0=
        >
        E 0 90 35 48
        E 180 80 35 00
        <X 69 0
          /wVmZWMt
        >
        E 0 90 39 48
        E 187 80 39 00
        <X 150 0
          /wV0aW9u
        >
        E 0 90 35 48
        E 874 80 35 00
        E 1143 80 69 00
        E 0 80 74 00
        E 98 90 69 5b
        <X 112 0
          /wVGZWVsJ3M=
        >
        E 0 90 36 6b
        E 182 80 36 00
        <X 78 0
          /wVsaWtl
        >
        E 0 90 39 68
        E 150 80 39 00
        <X 124 0
          /wVubw==
        >
        E 0 90 38 6d
        E 213 80 38 00
        <X 70 0
          /wVvbmU=
        >
        E 0 90 39 68
        E 123 80 39 00
        <X 90 0
          /wVlbHNl
        >
        E 0 90 38 68
        E 390 80 38 00
        <X 102 0
          /wVpbg==
        >
        E 0 90 36 68
        E 175 80 36 00
        <X 68 0
          /wV0aGU=
        >
        E 0 90 34 68
        E 138 80 34 00
        <X 73 0
          /wVyb29t
        >
        E 0 90 34 68
        E 172 80 34 00
        <X 92 0
          /wUr
        >
        E 0 90 38 5b
        E 522 80 38 00
        E 128 80 69 00
        E 120 90 69 5b
        <X 205 0
          /wVXZQ==
        >
        E 0 90 3d 5b
        E 119 80 3d 00
        <X 107 0
          /wVjYW4=
        >
        E 0 90 3b 5b
        E 146 80 3b 00
        <X 93 0
          /wVnZXQ=
        >
        E 0 90 3a 5b
        E 109 80 3a 00
        <X 74 0
          /wVkb3du
        >
        E 0 90 3d 5b
        E 390 80 3d 00
        <X 105 0
          /wVsaWtl
        >
        E 0 90 3b 5b
        E 160 80 3b 00
        <X 139 0
          /wV0aGVyZSdz
        >
        E 0 90 3b 5b
        E 151 80 3b 00
        <X 95 0
          /wVubw==
        >
        E 0 90 3d 5b
        E 334 80 3d 00
        <X 107 0
          /wVvbmU=
        >
        E 0 90 3b 5b
        E 183 80 3b 00
        <X 118 0
          /wVhLQ==
        >
        E 0 90 38 5b
        E 132 80 38 00
        <X 88 0
          /wVyb3VuZA==
        >
        E 0 90 3d 5b
        E 188 80 3d 00
        <X 92 0
          /wUr
        >
        E 0 90 3b 5b
        E 134 80 3b 00
        E 31 80 69 00
        E 60 90 69 5b
        <X 20 0
          /wVXZSdsbA==
        >
        E 0 90 3b 5b
        E 98 80 3b 00
        <X 76 0
          /wVrZWVw
        >
        E 0 90 38 5b
        E 125 80 38 00
        <X 86 0
          /wVvbg==
        >
        E 0 90 3b 5b
        E 226 80 3b 00
        <X 100 0
          /wVyb2NraW4n
        >
        E 0 90 3c 5b
        E 275 80 3c 00
        <X 135 0
          /wUr
        >
        E 0 90 3a 5b
        E 272 80 3a 00
        E 87 80 69 00
        E 180 90 69 5b
        E 0 90 74 5b
        <X 117 0
          /wVXZSdsbA==
        >
        E 0 90 3a 5b
        E 161 80 3a 00
        <X 114 0
          /wVrZWVw
        >
        E 0 90 39 5b
        E 147 80 39 00
        <X 95 0
          /wVvbg==
        >
        E 0 90 3d 5b
        E 201 80 3d 00
        <X 79 0
          /wVyb2NraW4n
        >
        E 0 90 3d 5b
        E 130 80 3d 00
        <X 105 0
          /wUr
        >
        E 0 90 40 5b
        E 316 80 40 00
        E 155 80 69 00
        E 0 80 74 00
        E 1080 90 69 5b
        <X 78 0
          /wVDYW0t
        >
        E 0 90 3d 5b
        E 201 80 3d 00
        <X 66 0
          /wVlci0=
        >
        E 0 90 3d 5b
        E 104 80 3d 00
        <X 41 0
          /wVhcw==
        >
        E 0 90 3d 5b
        E 98 80 3d 00
        <X 66 0
          /wVhcmU=
        >
        E 0 90 39 5b
        E 66 80 39 00
        <X 64 0
          /wVmbGFzaC0=
        >
        E 0 90 3c 5b
        E 102 80 3c 00
        <X 75 0
          /wUr
        >
        E 0 90 3e 5b
        E 249 80 3e 00
        <X 105 0
          /wVpbmc=
        >
        E 0 90 3b 5b
        E 177 80 3b 00
        <X 78 0
          /wV3aGlsZQ==
        >
        E 0 90 39 5b
        E 223 80 39 00
        <X 74 0
          /wV3ZSdyZQ==
        >
        E 0 90 3d 5b
        E 133 80 3d 00
        <X 68 0
          /wUr
        >
        E 0 90 3b 5b
        E 135 80 3b 00
        <X 64 0
          /wVkaXJ0LQ==
        >
        E 0 90 3b 5b
        E 201 80 3b 00
        <X 64 0
          /wV5
        >
        E 0 90 39 5b
        E 75 80 39 00
        <X 105 0
          /wVkYW5jLQ==
        >
        E 0 90 3b 5b
        E 102 80 3b 00
        <X 82 0
          /wUr
        >
        E 0 90 3d 5b
        E 258 80 3d 00
        <X 95 0
          /wVpbmc=
        >
        E 0 90 3b 5b
        E 147 80 3b 00
        E 21 80 69 00
        E 22 90 69 5b
        <X 21 0
          /wVUaGV5
        >
        E 0 90 39 5b
        E 148 80 39 00
        <X 115 0
          /wVrZWVw
        >
        E 0 90 3b 5b
        E 153 80 3b 00
        <X 82 0
          /wV3YXRjaC0=
        >
        E 0 90 3e 5b
        E 189 80 3e 00
        <X 70 0
          /wVpbic=
        >
        E 0 90 3b 5b
        E 170 80 3b 00
        <X 83 0
          /wUr
        >
        E 0 90 3c 5b
        E 184 80 3c 00
        E 97 80 69 00
        E 229 90 69 5b
        <X 145 0
          /wVLZWVw
        >
        E 0 90 39 5b
        E 143 80 39 00
        <X 117 0
          /wV3YXRjaC0=
        >
        E 0 90 3d 5b
        E 144 80 3d 00
        <X 122 0
          /wVpbmc=
        >
        E 0 90 40 5b
        E 336 80 40 00
        E 43 80 69 00
        E 60 90 69 5b
        <X 25 0
          /wVGZWVscw==
        >
        E 0 90 3d 60
        E 154 80 3d 00
        <X 63 0
          /wVsaWtl
        >
        E 0 90 3d 60
        E 135 80 3d 00
        <X 72 0
          /wV0aGU=
        >
        E 0 90 3e 60
        E 130 80 3e 00
        <X 155 0
          /wVjcm93ZA==
        >
        E 0 90 3d 60
        E 152 80 3d 00
        <X 56 0
          /wVpcw==
        >
        E 0 90 3d 60
        E 82 80 3d 00
        <X 148 0
          /wVzYXkt
        >
        E 0 90 3b 60
        E 209 80 3b 00
        <X 47 0
          /wVpbmc=
        >
        E 0 90 3b 60
        E 148 80 3b 00
        E 14 80 69 00
        <X 30 0
          /wFbaW50ZW5zZV0=
        >
        E 26 90 69 60
        E 0 90 74 60
        <X 40 0
          /wVHaW0tIw==
        >
        E 0 90 3b 60
        E 175 80 3b 00
        <X 60 0
          /wVtZSM=
        >
        E 0 90 3b 60
        E 163 80 3b 00
        <X 114 0
          /wVnaW0tIw==
        >
        E 0 90 3b 60
        E 112 80 3b 00
        <X 77 0
          /wVtZSM=
        >
        E 0 90 3b 60
        E 267 80 3b 00
        E 136 80 69 00
        E 0 80 74 00
        E 240 90 69 60
        <X 101 0
          /wVHaW0tIw==
        >
        E 0 90 3b 60
        E 127 80 3b 00
        <X 89 0
          /wVtZSM=
        >
        E 0 90 3b 60
        E 247 80 3b 00
        E 96 80 69 00
        E 300 90 69 60
        <X 119 0
          /wVHaW0tIw==
        >
        E 0 90 3b 60
        E 105 80 3b 00
        <X 62 0
          /wVtZSM=
        >
        E 0 90 3b 60
        E 175 80 3b 00
        <X 123 0
          /wVnaW0tIw==
        >
        E 0 90 3b 60
        E 140 80 3b 00
        <X 100 0
          /wVtZSM=
        >
        E 0 90 3b 60
        E 251 80 3b 00
        E 125 80 69 00
        E 240 90 69 60
        <X 106 0
          /wVHaW0tIw==
        >
        E 0 90 3b 60
        E 126 80 3b 00
        <X 67 0
          /wVtZSM=
        >
        E 0 90 3b 60
        E 148 80 3b 00
        <X 124 0
          /wVnaW0tIw==
        >
        E 0 90 3b 60
        E 138 80 3b 00
        <X 88 0
          /wVtZSM=
        >
        E 0 90 3b 60
        E 317 80 3b 00
        E 86 80 69 00
        E 240 90 69 60
        <X 109 0
          /wVHaW0tIw==
        >
        E 0 90 3b 60
        E 149 80 3b 00
        <X 86 0
          /wVtZSM=
        >
        E 0 90 3b 60
        E 303 80 3b 00
        E 133 80 69 00
        E 180 90 69 60
        <X 141 0
          /wVHaW0tIw==
        >
        E 0 90 3b 60
        E 120 80 3b 00
        <X 82 0
          /wVtZSM=
        >
        E 0 90 3b 60
        E 115 80 3b 00
        <X 153 0
          /wVnaW0tIw==
        >
        E 0 90 3b 60
        E 123 80 3b 00
        <X 82 0
          /wVtZSM=
        >
        E 0 90 3b 60
        E 204 80 3b 00
        E 120 80 69 00
        E 240 90 69 60
        <X 138 0
          /wVHaW0tIw==
        >
        E 0 90 3b 60
        E 156 80 3b 00
        <X 79 0
          /wVtZSM=
        >
        E 0 90 3b 60
        E 137 80 3b 00
        <X 93 0
          /wVnaW0tIw==
        >
        E 0 90 3b 60
        E 170 80 3b 00
        <X 94 0
          /wVtZSM=
        >
        E 0 90 3b 60
        E 389 80 3b 00
        E 64 80 69 00
        E 180 90 69 60
        <X 135 0
          /wVHaW0tIw==
        >
        E 0 90 3b 60
        E 104 80 3b 00
        <X 91 0
          /wVtZSM=
        >
        E 0 90 3b 60
        E 290 80 3b 00
        E 100 80 69 00
        E 240 90 69 60
        E 0 90 74 60
        <X 104 0
          /wVHaW0tIw==
        >
        E 0 90 3b 60
        E 167 80 3b 00
        <X 85 0
          /wVtZSM=
        >
        E 0 90 3b 60
        E 141 80 3b 00
        <X 102 0
          /wVnaW0tIw==
        >
        E 0 90 3b 60
        E 137 80 3b 00
        <X 77 0
          /wVtZSM=
        >
        E 0 90 3b 60
        E 239 80 3b 00
        E 148 80 69 00
        E 0 80 74 00
        E 300 90 69 60
        <X 98 0
          /wVHaW0tIw==
        >
        E 0 90 3b 60
        E 111 80 3b 00
        <X 61 0
          /wVtZSM=
        >
        E 0 90 3b 60
        E 145 80 3b 00
        <X 81 0
          /wVnaW0tIw==
        >
        E 0 90 3b 60
        E 163 80 3b 00
        <X 91 0
          /wVtZSM=
        >
        E 0 90 3b 60
        E 242 80 3b 00
        E 148 80 69 00
        E 420 90 69 60
        <X 60 0
          /wVHaW0tIw==
        >
        E 0 90 3b 60
        E 104 80 3b 00
        <X 91 0
          /wVtZSM=
        >
        E 0 90 3b 60
        E 290 80 3b 00
        E 115 80 69 00
        E 180 90 69 60
        <X 140 0
          /wVHaW0tIw==
        >
        E 0 90 3b 60
        E 104 80 3b 00
        <X 91 0
          /wVtZSM=
        >
        E 0 90 3b 60
        E 290 80 3b 00
        E 65 80 69 00
        E 1350 90 69 60
        <X 180 0
          /wVDZW4t
        >
        E 0 90 36 60
        E 367 80 36 00
        <X 75 0
          /wV0ZXI=
        >
        E 0 90 38 60
        E 236 80 38 00
        <X 74 0
          /wVvZg==
        >
        E 0 90 39 60
        E 100 80 39 00
        <X 78 0
          /wVhdC0=
        >
        E 0 90 3b 60
        E 87 80 3b 00
        <X 48 0
          /wV0ZW4t
        >
        E 0 90 3b 60
        E 332 80 3b 00
        <X 110 0
          /wV0aW9u
        >
        E 0 90 36 60
        E 835 80 36 00
        <X 127 0
          /wUr
        >
        E 0 90 39 60
        E 437 80 39 00
        E 154 80 69 00
        E 840 90 69 60
        <X 117 0
          /wVFLQ==
        >
        E 0 90 37 60
        E 189 80 37 00
        <X 83 0
          /wV2ZW4=
        >
        E 0 90 38 60
        E 189 80 38 00
        <X 63 0
          /wV3aGVu
        >
        E 0 90 39 60
        E 191 80 39 00
        <X 81 0
          /wV3ZSdyZQ==
        >
        E 0 90 39 60
        E 175 80 39 00
        <X 133 0
          /wV1cA==
        >
        E 0 90 38 60
        E 200 80 38 00
        <X 205 0
          /wVhLQ==
        >
        E 0 90 31 60
        E 131 80 31 00
        <X 130 0
          /wVnYWluc3Q=
        >
        E 0 90 31 60
        E 280 80 31 00
        <X 74 0
          /wUr
        >
        E 0 90 2f 60
        E 224 80 2f 00
        <X 155 0
          /wV0aGU=
        >
        E 0 90 2f 60
        E 174 80 2f 00
        <X 83 0
          /wV3YWxs
        >
        E 0 90 32 60
        E 560 80 32 00
        E 103 80 69 00
        E 120 90 69 60
        <X 80 0
          /wVZb3U=
        >
        E 0 90 36 60
        E 139 80 36 00
        <X 116 0
          /wVnb3Q=
        >
        E 0 90 36 60
        E 166 80 36 00
        <X 125 0
          /wVtZQ==
        >
        E 0 90 39 60
        E 153 80 39 00
        <X 83 0
          /wVpbg==
        >
        E 0 90 39 60
        E 153 80 39 00
        <X 76 0
          /wVh
        >
        E 0 90 39 60
        E 65 80 39 00
        <X 104 0
          /wVjcmEt
        >
        E 0 90 39 60
        E 197 80 39 00
        <X 76 0
          /wV6eQ==
        >
        E 0 90 3b 60
        E 109 80 3b 00
        <X 118 0
          /wVwby0=
        >
        E 0 90 36 60
        E 143 80 36 00
        <X 103 0
          /wVzaS0=
        >
        E 0 90 3b 60
        E 317 80 3b 00
        <X 187 0
          /wV0aW9u
        >
        E 0 90 34 60
        E 262 80 34 00
        E 48 80 69 00
        E 120 90 69 60
        <X 77 0
          /wVJZg==
        >
        E 0 90 3c 60
        E 162 80 3c 00
        <X 79 0
          /wV5b3UncmU=
        >
        E 0 90 39 60
        E 222 80 39 00
        <X 77 0
          /wVvbg==
        >
        E 0 90 39 60
        E 96 80 39 00
        <X 67 0
          /wVh
        >
        E 0 90 36 60
        E 125 80 36 00
        <X 104 0
          /wVtaXMt
        >
        E 0 90 3b 60
        E 322 80 3b 00
        <X 115 0
          /wVzaW9u
        >
        E 0 90 36 60
        E 447 80 36 00
        E 27 80 69 00
        E 60 90 69 60
        E 0 90 74 60
        <X 15 0
          /wVZb3U=
        >
        E 0 90 36 60
        E 104 80 36 00
        <X 120 0
          /wVnb3Q=
        >
        E 0 90 3b 60
        E 151 80 3b 00
        <X 108 0
          /wVteQ==
        >
        E 0 90 38 60
        E 114 80 38 00
        <X 136 0
          /wVwZXIt
        >
        E 0 90 38 60
        E 121 80 38 00
        <X 93 0
          /wVtaXMt
        >
        E 0 90 3b 60
        E 344 80 3b 00
        <X 132 0
          /wVzaW9u
        >
        E 0 90 37 60
        E 206 80 37 00
        <X 98 0
          /wUr
        >
        E 0 90 35 60
        E 280 80 35 00
        E 63 80 69 00
        E 0 80 74 00
        E 92 90 69 5b
        <X 33 0
          /wVXZQ==
        >
        E 0 90 3d 5b
        E 81 80 3d 00
        <X 137 0
          /wVjYW4=
        >
        E 0 90 3b 5b
        E 154 80 3b 00
        <X 65 0
          /wVnZXQ=
        >
        E 0 90 3a 5b
        E 80 80 3a 00
        <X 166 0
          /wVkb3du
        >
        E 0 90 3d 5b
        E 396 80 3d 00
        <X 64 0
          /wVsaWtl
        >
        E 0 90 3b 5b
        E 131 80 3b 00
        <X 116 0
          /wV0aGVyZSdz
        >
        E 0 90 3b 5b
        E 151 80 3b 00
        <X 99 0
          /wVubw==
        >
        E 0 90 3d 5b
        E 348 80 3d 00
        <X 115 0
          /wVvbmU=
        >
        E 0 90 3b 5b
        E 190 80 3b 00
        <X 63 0
          /wVhLQ==
        >
        E 0 90 38 5b
        E 132 80 38 00
        <X 113 0
          /wVyb3VuZA==
        >
        E 0 90 3d 5b
        E 229 80 3d 00
        <X 89 0
          /wUr
        >
        E 0 90 3b 5b
        E 202 80 3b 00
        E 29 80 69 00
        E 68 90 69 5b
        <X 42 0
          /wVXZSdsbA==
        >
        E 0 90 3b 5b
        E 58 80 3b 00
        <X 49 0
          /wVrZWVw
        >
        E 0 90 38 5b
        E 75 80 38 00
        <X 109 0
          /wVvbg==
        >
        E 0 90 3b 5b
        E 191 80 3b 00
        <X 80 0
          /wVyb2NraW4n
        >
        E 0 90 3b 5b
        E 275 80 3b 00
        <X 129 0
          /wUr
        >
        E 0 90 3a 5b
        E 272 80 3a 00
        E 78 80 69 00
        E 294 90 69 5b
        <X 82 0
          /wVXZSdsbA==
        >
        E 0 90 3a 5b
        E 133 80 3a 00
        <X 84 0
          /wVrZWVw
        >
        E 0 90 39 5b
        E 180 80 39 00
        <X 87 0
          /wVvbg==
        >
        E 0 90 3d 5b
        E 211 80 3d 00
        <X 84 0
          /wVyb2NraW4n
        >
        E 0 90 3d 5b
        E 186 80 3d 00
        <X 135 0
          /wUr
        >
        E 0 90 40 5b
        E 216 80 40 00
        <X 91 0
          /wVyb2NraW4n
        >
        E 0 90 3d 5b
        E 186 80 3d 00
        <X 135 0
          /wUr
        >
        E 0 90 40 5b
        E 215 80 40 00
        E 82 80 69 00
        E 527 90 69 5b
        E 0 90 74 5b
        <X 78 0
          /wVDYW0t
        >
        E 0 90 3d 5b
        E 201 80 3d 00
        <X 66 0
          /wVlci0=
        >
        E 0 90 3d 5b
        E 104 80 3d 00
        <X 41 0
          /wVhcw==
        >
        E 0 90 3d 5b
        E 98 80 3d 00
        <X 66 0
          /wVhcmU=
        >
        E 0 90 39 5b
        E 66 80 39 00
        <X 64 0
          /wVmbGFzaC0=
        >
        E 0 90 3c 5b
        E 102 80 3c 00
        <X 75 0
          /wUr
        >
        E 0 90 3e 5b
        E 249 80 3e 00
        <X 132 0
          /wVpbmc=
        >
        E 0 90 3b 5b
        E 166 80 3b 00
        <X 78 0
          /wV3aGlsZQ==
        >
        E 0 90 39 5b
        E 207 80 39 00
        <X 74 0
          /wV3ZSdyZQ==
        >
        E 0 90 3d 5b
        E 133 80 3d 00
        <X 68 0
          /wUr
        >
        E 0 90 3b 5b
        E 135 80 3b 00
        <X 64 0
          /wVkaXJ0LQ==
        >
        E 0 90 3b 5b
        E 209 80 3b 00
        <X 50 0
          /wV5
        >
        E 0 90 39 5b
        E 86 80 39 00
        <X 136 0
          /wVkYW5jLQ==
        >
        E 0 90 3b 5b
        E 80 80 3b 00
        <X 109 0
          /wUr
        >
        E 0 90 3d 5b
        E 231 80 3d 00
        <X 95 0
          /wVpbmc=
        >
        E 0 90 3b 5b
        E 129 80 3b 00
        E 25 80 69 00
        E 0 80 74 00
        E 22 90 69 5b
        <X 21 0
          /wVUaGV5
        >
        E 0 90 39 5b
        E 148 80 39 00
        <X 115 0
          /wVrZWVw
        >
        E 0 90 3b 5b
        E 153 80 3b 00
        <X 82 0
          /wV3YXRjaC0=
        >
        E 0 90 3e 5b
        E 189 80 3e 00
        <X 70 0
          /wVpbic=
        >
        E 0 90 3b 5b
        E 170 80 3b 00
        <X 83 0
          /wUr
        >
        E 0 90 3c 5b
        E 184 80 3c 00
        E 97 80 69 00
        E 229 90 69 5b
        <X 185 0
          /wVLZWVw
        >
        E 0 90 39 5b
        E 116 80 39 00
        <X 104 0
          /wV3YXRjaC0=
        >
        E 0 90 3d 5b
        E 144 80 3d 00
        <X 122 0
          /wVpbmc=
        >
        E 0 90 40 5b
        E 336 80 40 00
        E 56 80 69 00
        E 52 90 69 60
        <X 39 0
          /wVGZWVscw==
        >
        E 0 90 3d 60
        E 154 80 3d 00
        <X 63 0
          /wVsaWtl
        >
        E 0 90 3d 60
        E 135 80 3d 00
        <X 72 0
          /wV0aGU=
        >
        E 0 90 3e 60
        E 130 80 3e 00
        <X 155 0
          /wVjcm93ZA==
        >
        E 0 90 3d 60
        E 152 80 3d 00
        <X 56 0
          /wVpcw==
        >
        E 0 90 3d 60
        E 82 80 3d 00
        <X 148 0
          /wVzYXkt
        >
        E 0 90 3b 60
        E 209 80 3b 00
        <X 47 0
          /wVpbmc=
        >
        E 0 90 3b 60
        E 148 80 3b 00
        E 60 80 69 00
        <X 61 0
          /wFbaW50ZW5zZV0=
        >
        E 60 90 69 60
        <X 78 0
          /wVHaW0tIw==
        >
        E 0 90 3b 60
        E 75 80 3b 00
        <X 34 0
          /wVtZSM=
        >
        E 0 90 3b 60
        E 102 80 3b 00
        <X 82 0
          /wVnaW0tIw==
        >
        E 0 90 3b 60
        E 157 80 3b 00
        <X 87 0
          /wVtZSM=
        >
        E 0 90 3b 60
        E 262 80 3b 00
        E 83 80 69 00
        E 360 90 69 60
        E 0 90 74 60
        <X 60 0
          /wVHaW0tIw==
        >
        E 0 90 3b 60
        E 91 80 3b 00
        <X 98 0
          /wVtZSM=
        >
        E 0 90 3b 60
        E 258 80 3b 00
        E 93 80 69 00
        E 0 80 74 00
        E 360 90 69 60
        <X 81 0
          /wVHaW0tIw==
        >
        E 0 90 3b 60
        E 82 80 3b 00
        <X 91 0
          /wVtZSM=
        >
        E 0 90 3b 60
        E 137 80 3b 00
        <X 137 0
          /wVnaW0tIw==
        >
        E 0 90 3b 60
        E 130 80 3b 00
        <X 107 0
          /wVtZSM=
        >
        E 0 90 3b 60
        E 251 80 3b 00
        E 64 80 69 00
        E 360 90 69 60
        <X 72 0
          /wVHaW0tIw==
        >
        E 0 90 3b 60
        E 104 80 3b 00
        <X 93 0
          /wVtZSM=
        >
        E 0 90 3b 60
        E 119 80 3b 00
        <X 144 0
          /wVnaW0tIw==
        >
        E 0 90 3b 60
        E 121 80 3b 00
        <X 89 0
          /wVtZSM=
        >
        E 0 90 3b 60
        E 298 80 3b 00
        E 100 80 69 00
        E 300 90 69 60
        <X 57 0
          /wVHaW0tIw==
        >
        E 0 90 3b 60
        E 133 80 3b 00
        <X 112 0
          /wVtZSM=
        >
        E 0 90 3b 60
        E 277 80 3b 00
        E 141 80 69 00
        E 240 90 69 60
        <X 93 0
          /wVHaW0tIw==
        >
        E 0 90 3b 60
        E 97 80 3b 00
        <X 82 0
          /wVtZSM=
        >
        E 0 90 3b 60
        E 107 80 3b 00
        <X 143 0
          /wVnaW0tIw==
        >
        E 0 90 3b 60
        E 130 80 3b 00
        <X 103 0
          /wVtZSM=
        >
        E 0 90 3b 60
        E 204 80 3b 00
        E 121 80 69 00
        E 300 90 69 60
        <X 134 0
          /wVHaW0tIw==
        >
        E 0 90 3b 60
        E 87 80 3b 00
        <X 98 0
          /wVtZSM=
        >
        E 0 90 3b 60
        E 110 80 3b 00
        <X 135 0
          /wVnaW0tIw==
        >
        E 0 90 3b 60
        E 134 80 3b 00
        <X 131 0
          /wVtZSM=
        >
        E 0 90 3b 60
        E 328 80 3b 00
        E 103 80 69 00
        E 240 90 69 60
        <X 67 0
          /wVHaW0tIw==
        >
        E 0 90 3b 60
        E 100 80 3b 00
        <X 102 0
          /wVtZSM=
        >
        E 0 90 3b 60
        E 263 80 3b 00
        E 128 80 69 00
        E 240 90 69 60
        <X 110 0
          /wVHaW0tIw==
        >
        E 0 90 3b 60
        E 137 80 3b 00
        <X 87 0
          /wVtZSM=
        >
        E 0 90 3b 60
        E 141 80 3b 00
        <X 130 0
          /wVnaW0tIw==
        >
        E 0 90 3b 60
        E 106 80 3b 00
        <X 96 0
          /wVtZSM=
        >
        E 0 90 3b 60
        E 229 80 3b 00
        E 104 80 69 00
        E 360 90 69 60
        E 0 90 74 60
        <X 70 0
          /wVHaW0tIw==
        >
        E 0 90 3b 60
        E 111 80 3b 00
        <X 101 0
          /wVtZSM=
        >
        E 0 90 3b 60
        E 116 80 3b 00
        <X 97 0
          /wVnaW0tIw==
        >
        E 0 90 3b 60
        E 146 80 3b 00
        <X 98 0
          /wVtZSM=
        >
        E 0 90 3b 60
        E 242 80 3b 00
        E 99 80 69 00
        E 0 80 74 00
        E 420 90 69 60
        <X 60 0
          /wVHaW0tIw==
        >
        E 0 90 3b 60
        E 104 80 3b 00
        <X 91 0
          /wVtZSM=
        >
        E 0 90 3b 60
        E 290 80 3b 00
        E 115 80 69 00
        E 240 90 69 60
        <X 80 0
          /wVHaW0tIw==
        >
        E 0 90 3b 60
        E 104 80 3b 00
        <X 91 0
          /wVtZSM=
        >
        E 0 90 3b 60
        E 290 80 3b 00
        E 95 80 69 00
        <X 385 0
          /wFbaWRsZV0=
        >
        <X 14891 0
          /wFbaW50ZW5zZV0=
        >
        E 281 90 69 5b
        <X 199 0
          /wVBdSM=
        >
        E 0 90 47 5b
        E 207 80 47 00
        E 281 80 69 00
        <X 199 0
          /wFbaWRsZV0=
        >
        <X 30161 0
          /wFbaW50ZW5zZV0=
        >
        E 382 90 69 60
        <X 98 0
          /wVHaW0tIw==
        >
        E 0 90 3b 60
        E 65 80 3b 00
        <X 74 0
          /wVtZSM=
        >
        E 0 90 3b 60
        E 67 80 3b 00
        <X 122 0
          /wVnaW0tIw==
        >
        E 0 90 3b 60
        E 119 80 3b 00
        <X 85 0
          /wVtZSM=
        >
        E 0 90 3b 60
        E 239 80 3b 00
        E 91 80 69 00
        E 345 90 69 60
        E 0 90 74 60
        <X 61 0
          /wVHaW0tIw==
        >
        E 0 90 3b 60
        E 110 80 3b 00
        <X 92 0
          /wVtZSM=
        >
        E 0 90 3b 60
        E 260 80 3b 00
        E 77 80 69 00
        E 0 80 74 00
        E 353 90 69 60
        <X 82 0
          /wVHaW0tIw==
        >
        E 0 90 3b 60
        E 106 80 3b 00
        <X 100 0
          /wVtZSM=
        >
        E 0 90 3b 60
        E 127 80 3b 00
        <X 108 0
          /wVnaW0tIw==
        >
        E 0 90 3b 60
        E 162 80 3b 00
        <X 91 0
          /wVtZSM=
        >
        E 0 90 3b 60
        E 270 80 3b 00
        E 34 80 69 00
        E 361 90 69 60
        <X 73 0
          /wVHaW0tIw==
        >
        E 0 90 3b 60
        E 121 80 3b 00
        <X 90 0
          /wVtZSM=
        >
        E 0 90 3b 60
        E 138 80 3b 00
        <X 122 0
          /wVnaW0tIw==
        >
        E 0 90 3b 60
        E 128 80 3b 00
        <X 123 0
          /wVtZSM=
        >
        E 0 90 3b 60
        E 280 80 3b 00
        E 65 80 69 00
        E 321 90 69 60
        <X 58 0
          /wVHaW0tIw==
        >
        E 0 90 3b 60
        E 133 80 3b 00
        <X 112 0
          /wVtZSM=
        >
        E 0 90 3b 60
        E 277 80 3b 00
        E 140 80 69 00
        E 240 90 69 60
        <X 83 0
          /wVHaW0tIw==
        >
        E 0 90 3b 60
        E 108 80 3b 00
        <X 82 0
          /wVtZSM=
        >
        E 0 90 3b 60
        E 120 80 3b 00
        <X 130 0
          /wVnaW0tIw==
        >
        E 0 90 3b 60
        E 130 80 3b 00
        <X 103 0
          /wVtZSM=
        >
        E 0 90 3b 60
        E 204 80 3b 00
        E 120 80 69 00
        E 300 90 69 60
        <X 135 0
          /wVHaW0tIw==
        >
        E 0 90 3b 60
        E 92 80 3b 00
        <X 93 0
          /wVtZSM=
        >
        E 0 90 3b 60
        E 117 80 3b 00
        <X 120 0
          /wVnaW0tIw==
        >
        E 0 90 3b 60
        E 146 80 3b 00
        <X 127 0
          /wVtZSM=
        >
        E 0 90 3b 60
        E 328 80 3b 00
        E 102 80 69 00
        E 240 90 69 60
        <X 68 0
          /wVHaW0tIw==
        >
        E 0 90 3b 60
        E 113 80 3b 00
        <X 99 0
          /wVtZSM=
        >
        E 0 90 3b 60
        E 269 80 3b 00
        E 111 80 69 00
        E 241 90 69 60
        <X 110 0
          /wVHaW0tIw==
        >
        E 0 90 3b 60
        E 145 80 3b 00
        <X 102 0
          /wVtZSM=
        >
        E 0 90 3b 60
        E 122 80 3b 00
        <X 126 0
          /wVnaW0tIw==
        >
        E 0 90 3b 60
        E 118 80 3b 00
        <X 95 0
          /wVtZSM=
        >
        E 0 90 3b 60
        E 224 80 3b 00
        E 97 80 69 00
        E 360 90 69 60
        E 0 90 74 60
        <X 54 0
          /wVHaW0tIw==
        >
        E 0 90 3b 60
        E 131 80 3b 00
        <X 97 0
          /wVtZSM=
        >
        E 0 90 3b 60
        E 121 80 3b 00
        <X 99 0
          /wVnaW0tIw==
        >
        E 0 90 3b 60
        E 147 80 3b 00
        <X 95 0
          /wVtZSM=
        >
        E 0 90 3b 60
        E 232 80 3b 00
        E 104 80 69 00
        E 0 80 74 00
        E 474 90 69 60
        <X 60 0
          /wVHaW0tIw==
        >
        E 0 90 3b 60
        E 104 80 3b 00
        <X 91 0
          /wVtZSM=
        >
        E 0 90 3b 60
        E 290 80 3b 00
        E 115 80 69 00
        E 240 90 69 60
        <X 80 0
          /wVHaW0tIw==
        >
        E 0 90 3b 60
        E 104 80 3b 00
        <X 91 0
          /wVtZSM=
        >
        E 0 90 3b 60
        E 290 80 3b 00
        E 95 80 69 00
        E 711 90 69 60
        <X 98 0
          /wVHaW0tIw==
        >
        E 0 90 3b 60
        E 96 80 3b 00
        <X 100 0
          /wVtZSM=
        >
        E 0 90 3b 60
        E 123 80 3b 00
        <X 111 0
          /wVnaW0tIw==
        >
        E 0 90 3b 60
        E 134 80 3b 00
        <X 83 0
          /wVtZSM=
        >
        E 0 90 3b 60
        E 239 80 3b 00
        E 83 80 69 00
        E 349 90 69 60
        <X 69 0
          /wVHaW0tIw==
        >
        E 0 90 3b 60
        E 116 80 3b 00
        <X 94 0
          /wVtZSM=
        >
        E 0 90 3b 60
        E 244 80 3b 00
        E 77 80 69 00
        E 353 90 69 60
        <X 96 0
          /wVHaW0tIw==
        >
        E 0 90 3b 60
        E 113 80 3b 00
        <X 104 0
          /wVtZSM=
        >
        E 0 90 3b 60
        E 121 80 3b 00
        <X 97 0
          /wVnaW0tIw==
        >
        E 0 90 3b 60
        E 170 80 3b 00
        <X 89 0
          /wVtZSM=
        >
        E 0 90 3b 60
        E 244 80 3b 00
        E 46 80 69 00
        E 361 90 69 60
        <X 81 0
          /wVHaW0tIw==
        >
        E 0 90 3b 60
        E 135 80 3b 00
        <X 96 0
          /wVtZSM=
        >
        E 0 90 3b 60
        E 122 80 3b 00
        <X 110 0
          /wVnaW0tIw==
        >
        E 0 90 3b 60
        E 152 80 3b 00
        <X 99 0
          /wVtZSM=
        >
        E 0 90 3b 60
        E 290 80 3b 00
        E 55 80 69 00
        E 321 90 69 60
        <X 71 0
          /wVHaW0tIw==
        >
        E 0 90 3b 60
        E 149 80 3b 00
        <X 90 0
          /wVtZSM=
        >
        E 0 90 3b 60
        E 302 80 3b 00
        E 108 80 69 00
        E 240 90 69 60
        E 0 90 74 60
        <X 87 0
          /wVHaW0tIw==
        >
        E 0 90 3b 60
        E 128 80 3b 00
        <X 104 0
          /wVtZSM=
        >
        E 0 90 3b 60
        E 107 80 3b 00
        <X 129 0
          /wVnaW0tIw==
        >
        E 0 90 3b 60
        E 130 80 3b 00
        <X 92 0
          /wVtZSM=
        >
        E 0 90 3b 60
        E 211 80 3b 00
        E 92 80 69 00
        E 0 80 74 00
        E 300 90 69 60
        <X 130 0
          /wVHaW0tIw==
        >
        E 0 90 3b 60
        E 123 80 3b 00
        <X 90 0
          /wVtZSM=
        >
        E 0 90 3b 60
        E 117 80 3b 00
        <X 119 0
          /wVnaW0tIw==
        >
        E 0 90 3b 60
        E 142 80 3b 00
        <X 114 0
          /wVtZSM=
        >
        E 0 90 3b 60
        E 357 80 3b 00
        E 68 80 69 00
        E 240 90 69 60
        <X 76 0
          /wVHaW0tIw==
        >
        E 0 90 3b 60
        E 119 80 3b 00
        <X 111 0
          /wVtZSM=
        >
        E 0 90 3b 60
        E 263 80 3b 00
        E 91 80 69 00
        E 241 90 69 60
        <X 132 0
          /wVHaW0tIw==
        >
        E 0 90 3b 60
        E 145 80 3b 00
        <X 89 0
          /wVtZSM=
        >
        E 0 90 3b 60
        E 127 80 3b 00
        <X 126 0
          /wVnaW0tIw==
        >
        E 0 90 3b 60
        E 120 80 3b 00
        <X 94 0
          /wVtZSM=
        >
        E 0 90 3b 60
        E 242 80 3b 00
        E 64 80 69 00
        E 360 90 69 60
        <X 92 0
          /wVHaW0tIw==
        >
        E 0 90 3b 60
        E 132 80 3b 00
        <X 101 0
          /wVtZSM=
        >
        E 0 90 3b 60
        E 115 80 3b 00
        <X 101 0
          /wVnaW0tIw==
        >
        E 0 90 3b 60
        E 137 80 3b 00
        <X 102 0
          /wVtZSM=
        >
        E 0 90 3b 60
        E 232 80 3b 00
        E 68 80 69 00
        E 468 90 69 60
        <X 60 0
          /wVHaW0tIw==
        >
        E 0 90 3b 60
        E 104 80 3b 00
        <X 91 0
          /wVtZSM=
        >
        E 0 90 3b 60
        E 290 80 3b 00
        E 115 80 69 00
        E 240 90 69 60
        <X 80 0
          /wVHaW0tIw==
        >
        E 0 90 3b 60
        E 104 80 3b 00
        <X 91 0
          /wVtZSM=
        >
        E 0 90 3b 60
        E 290 80 3b 00
        E 95 80 69 00
        <X 385 0
          /wFbaWRsZV9yZWFsdGltZV0=
        >
        E 19151 b0 7b 00
        GUID {C9A1A4CA-4224-4672-91C0-075BEB2A8650}
        IGNTEMPO 0 120.00000000 4 4
        SRCCOLOR 1257
        VELLANE 132 128 128
        COLORMAP "C:\Users\me\AppData\Roaming\REAPER\Data\color_maps\rockband_vox-other.png"
        TEXTSTRINGFILE "C:\Program Files\REAPER (x64)\REAPER\Data\Text_Strings\Text Events List - Instruments.txt"
        CFGEDITVIEW -250.444400 155.723187 0 12 0 0 0
        CFGEDIT 1 1 0 0 1 1 1 1 1 1 1 0.06250000 75 0 1611 691 1 2 1 2 0.00000000 0 0 0 0 0.500000 1 0 1.000000 64
        KEYSNAP 0 0 "102034050607" 0 "Major"
        EVTFILTER 0 -1 -1 -1 -1 0 1 0 0 -1.00000000 -1.00000000
      >
    >
  >
  <TRACK '{E60BCF67-80FD-4554-840A-5B0B5C2E06A0}'
    NAME "HARM1"
    PEAKCOL 24624127
    BEAT -1
    AUTOMODE 0
    VOLPAN 1.00000000000000 0.00000000000000 -1.00000000000000 -1.00000000000000 1.00000000000000
    MUTESOLO 0 0 0
    IPHASE 0
    ISBUS 0 0
    BUSCOMP 0 0
    SHOWINMIX 1 0.666700 0.500000 1 0.500000 -1 -1 -1
    FREEMODE 0
    SEL 0
    REC 0 0 0 0 0 0 0
    TRACKHEIGHT 0 0
    INQ 0 0 0 0.5000000000 100 0 0 100
    NCHAN 2
    FX 1
    TRACKID {E60BCF67-80FD-4554-840A-5B0B5C2E06A0}
    PERF 0
    MIDIOUT -1
    <MIDINOTENAMES
      0 0 "Range Shift"
      0 1 "Lyric Shift"
      0 36 "C1"
      0 37 "C#"
      0 38 "D"
      0 39 "Eb"
      0 40 "E"
      0 41 "F"
      0 42 "F#"
      0 43 "G"
      0 44 "G#"
      0 45 "A"
      0 46 "Bb"
      0 47 "B"
      0 48 "C2"
      0 49 "C#"
      0 50 "D"
      0 51 "Eb"
      0 52 "E"
      0 53 "F"
      0 54 "F#"
      0 55 "G"
      0 56 "G#"
      0 57 "A"
      0 58 "Bb"
      0 59 "B"
      0 60 "C3"
      0 61 "C#"
      0 62 "D"
      0 63 "Eb"
      0 64 "E"
      0 65 "F"
      0 66 "F#"
      0 67 "G"
      0 68 "G#"
      0 69 "A"
      0 70 "Bb"
      0 71 "B"
      0 72 "C4"
      0 73 "C#"
      0 74 "D"
      0 75 "Eb"
      0 76 "E"
      0 77 "F"
      0 78 "F#"
      0 79 "G"
      0 80 "G#"
      0 81 "A"
      0 82 "Bb"
      0 83 "B"
      0 105 "Phrase Marker"
      0 116 "OVERDRIVE"
      0 115 "----"
      0 104 "----"
      0 97 "Not Displayed Percussion"
      0 96 "Displayed Percussion"
      0 95 "----"
      0 84 "C5"
    >
    MAINSEND 1 0
    <FXCHAIN
      WNDRECT 786 197 716 493
      SHOW 0
      LASTSEL 1
      DOCKED 0
      BYPASS 0 0
      <JS "IX/MIDI_Tool II" ""
        0.000000 85.000000 127.000000 0.000000 0.000000 0.000000 100.000000 0.000000 0.000000 127.000000 0.000000 0.000000 1.000000 0.000000 0.000000 - - - - - - - - - - - - - - - - - - - - - - - - - - - - - - - - - - - - - - - - - - - - - - - - - 
      >
      FLOATPOS 0 0 0 0
      FXID {2E79298C-F056-441C-A64B-722C2599E1AA}
      WAK 0
      BYPASS 0 0
      <VST "VSTi: ReaSynth (Cockos)" "reasynth.dll" 0 ""
        eXNlcu9e7f4AAAAAAgAAAAEAAAAAAAAAAgAAAAAAAAA4AAAAAAAAAA==
        AAAAAO++rd4N8K3eppvEOxe30ToAAAAAAAAAAAAAAACa9Q8/6WeIPQ==
        AAAAAAAAAD8AAIA/AAAAAAAAAD8AAAAAAAA=
      >
      FLOATPOS 0 0 0 0
      FXID {A391E59B-3475-47CA-9BDB-E03F3B8FF2C4}
      WAK 0
    >
    <ITEM
      POSITION 0.00000000000000
      SNAPOFFS 0.00000000000000
      LENGTH 216.49546995126440
      LOOP 0
      ALLTAKES 0
      SEL 0
      FADEIN 1 0.000000 0.000000 1 0
      FADEOUT 1 0.000000 0.000000 1 0
      MUTE 0
      IGUID {FE84F6DE-5A5E-43D1-BFBE-4632BD10F85F}
      IID 11
      NAME "HARM1 untitled MIDI item"
      VOLPAN 1.000000 0.000000 1.000000 -1.000000
      SOFFS 0.00000000000000 0.00000000000000
      PLAYRATE 1.00000000000000 1 0.00000000000000 -1
      CHANMODE 0
      GUID {188D8841-6EF7-4ADC-A9DC-A83C2882A63B}
      <SOURCE MIDI
        HASDATA 1 480 QN
        POOLEDEVTS {44215723-C4A5-41E8-A373-FAD64E91413E}
        <X 0 0
          /wNIQVJNMQ==
        >
        E 3720 90 69 5b
        <X 116 0
          /wVNYWNoaW5hZSM=
        >
        E 0 90 3b 3c
        E 271 80 3b 00
        <X 187 0
          /wVTdXByZW1hY3kj
        >
        E 0 90 3b 6e
        E 419 80 3b 00
        <X 129 0
          /wViaXRjaCM=
        >
        E 0 90 3b 50
        E 409 80 3b 00
        E 149 80 69 00
        E 660 90 69 5b
        <X 226 0
          /wVCaWtrdS0j
        >
        E 0 90 3b 51
        E 387 80 3b 00
        <X 49 0
          /wVyaXNoaXRhIw==
        >
        E 0 90 3b 6c
        E 243 80 3b 00
        <X 62 0
          /wVkZXNob3Uj
        >
        E 0 90 3b 6c
        E 441 80 3b 00
        E 272 80 69 00
        E 300 90 69 5b
        <X 178 0
          /wVEZW5zdHN1Iw==
        >
        E 0 90 3b 6c
        E 396 80 3b 00
        <X 64 0
          /wVubyM=
        >
        E 0 90 3b 6c
        E 91 80 3b 00
        <X 58 0
          /wVNYWNoaW5hZSM=
        >
        E 0 90 3b 6c
        E 397 80 3b 00
        <X 52 0
          /wVTdXByZW1hY3kj
        >
        E 0 90 3b 6c
        E 501 80 3b 00
        E 183 80 69 00
        E 900 90 69 5b
        E 0 90 74 5b
        <X 172 0
          /wVZYXRzdXJhIw==
        >
        E 0 90 3b 6c
        E 383 80 3b 00
        <X 49 0
          /wV3YSM=
        >
        E 0 90 3b 6c
        E 63 80 3b 00
        <X 46 0
          /wVkb2tvIw==
        >
        E 0 90 3b 6c
        E 183 80 3b 00
        <X 87 0
          /wVuaSM=
        >
        E 0 90 3b 6c
        E 59 80 3b 00
        <X 44 0
          /wVtbyM=
        >
        E 0 90 3b 6c
        E 37 80 3b 00
        <X 40 0
          /wVpa2FuYWluIw==
        >
        E 0 90 3b 6c
        E 447 80 3b 00
        <X 59 0
          /wVkYWthcmEj
        >
        E 0 90 3b 6c
        E 418 80 3b 00
        E 253 80 69 00
        E 0 80 74 00
        E 360 90 69 5b
        <X 225 0
          /wVLb2tvIw==
        >
        E 0 90 3b 6c
        E 65 80 3b 00
        <X 37 0
          /wVrYXJhIw==
        >
        E 0 90 3b 6c
        E 144 80 3b 00
        <X 41 0
          /wVvaWRhc2FuYS0j
        >
        E 0 90 3b 6c
        E 440 80 3b 00
        <X 102 0
          /wVreWEj
        >
        E 0 90 3b 6c
        E 268 80 3b 00
        E 358 80 69 00
        E 15240 90 69 5b
        <X 176 0
          /wVFdmUt
        >
        E 0 90 33 68
        E 221 80 33 00
        <X 82 0
          /wVyeQ==
        >
        E 0 90 33 68
        E 128 80 33 00
        <X 140 0
          /wV0aW1l
        >
        E 0 90 35 66
        E 192 80 35 00
        <X 52 0
          /wV0aGV5
        >
        E 0 90 38 6a
        E 138 80 38 00
        <X 121 0
          /wV0dXJu
        >
        E 0 90 39 6a
        E 203 80 39 00
        <X 59 0
          /wV0aGU=
        >
        E 0 90 36 70
        E 105 80 36 00
        <X 92 0
          /wVsaWdodHM=
        >
        E 0 90 39 70
        E 336 80 39 00
        <X 157 0
          /wVkb3du
        >
        E 0 90 36 70
        E 391 80 36 00
        <X 57 0
          /wUr
        >
        E 0 90 37 52
        E 206 80 37 00
        <X 57 0
          /wUr
        >
        E 0 90 35 52
        E 380 80 35 00
        E 247 80 69 00
        E 480 90 69 5b
        <X 181 0
          /wVKdXN0
        >
        E 0 90 3e 70
        E 116 80 3e 00
        <X 107 0
          /wUr
        >
        E 0 90 3b 70
        E 122 80 3b 00
        <X 117 0
          /wV3YW4t
        >
        E 0 90 39 70
        E 144 80 39 00
        <X 54 0
          /wVuYQ==
        >
        E 0 90 36 70
        E 111 80 36 00
        <X 71 0
          /wVnbw==
        >
        E 0 90 36 70
        E 244 80 36 00
        <X 62 0
          /wV0aGF0
        >
        E 0 90 39 70
        E 156 80 39 00
        <X 42 0
          /wVleC0=
        >
        E 0 90 36 70
        E 102 80 36 00
        <X 58 0
          /wUr
        >
        E 0 90 38 70
        E 109 80 38 00
        <X 69 0
          /wUr
        >
        E 0 90 34 70
        E 76 80 34 00
        <X 69 0
          /wV0cmE=
        >
        E 0 90 31 70
        E 119 80 31 00
        <X 132 0
          /wVtaWxl
        >
        E 0 90 31 70
        E 551 80 31 00
        <X 157 0
          /wVmb3I=
        >
        E 0 90 2f 70
        E 163 80 2f 00
        <X 61 0
          /wV5b3U=
        >
        E 0 90 33 70
        E 553 80 33 00
        E 94 80 69 00
        E 60 90 69 5b
        E 0 90 74 5b
        <X 48 0
          /wVQdWIt
        >
        E 0 90 35 64
        E 149 80 35 00
        <X 95 0
          /wVsaWM=
        >
        E 0 90 35 54
        E 129 80 35 00
        <X 86 0
          /wVkaXMt
        >
        E 0 90 36 48
        E 177 80 36 00
        <X 66 0
          /wVwbGF5
        >
        E 0 90 38 48
        E 240 80 38 00
        <X 99 0
          /wVvZg==
        >
        E 0 90 39 48
        E 85 80 39 00
        <X 83 0
          /wVhZi0=
        >
        E 0 90 35 48
        E 180 80 35 00
        <X 69 0
          /wVmZWMt
        >
        E 0 90 39 48
        E 187 80 39 00
        <X 150 0
          /wV0aW9u
        >
        E 0 90 35 48
        E 874 80 35 00
        E 1143 80 69 00
        E 0 80 74 00
        E 98 90 69 5b
        <X 112 0
          /wVGZWVsJ3M=
        >
        E 0 90 36 6b
        E 182 80 36 00
        <X 78 0
          /wVsaWtl
        >
        E 0 90 39 68
        E 150 80 39 00
        <X 124 0
          /wVubw==
        >
        E 0 90 38 6d
        E 213 80 38 00
        <X 70 0
          /wVvbmU=
        >
        E 0 90 39 68
        E 123 80 39 00
        <X 90 0
          /wVlbHNl
        >
        E 0 90 38 68
        E 390 80 38 00
        <X 102 0
          /wVpbg==
        >
        E 0 90 36 68
        E 175 80 36 00
        <X 68 0
          /wV0aGU=
        >
        E 0 90 34 68
        E 138 80 34 00
        <X 73 0
          /wVyb29t
        >
        E 0 90 34 68
        E 172 80 34 00
        <X 92 0
          /wUr
        >
        E 0 90 38 5b
        E 522 80 38 00
        E 128 80 69 00
        E 120 90 69 5b
        <X 205 0
          /wVXZQ==
        >
        E 0 90 3d 5b
        E 119 80 3d 00
        <X 107 0
          /wVjYW4=
        >
        E 0 90 3b 5b
        E 146 80 3b 00
        <X 93 0
          /wVnZXQ=
        >
        E 0 90 3a 5b
        E 109 80 3a 00
        <X 74 0
          /wVkb3du
        >
        E 0 90 3d 5b
        E 390 80 3d 00
        <X 105 0
          /wVsaWtl
        >
        E 0 90 3b 5b
        E 160 80 3b 00
        <X 139 0
          /wV0aGVyZSdz
        >
        E 0 90 3b 5b
        E 151 80 3b 00
        <X 95 0
          /wVubw==
        >
        E 0 90 3d 5b
        E 334 80 3d 00
        <X 107 0
          /wVvbmU=
        >
        E 0 90 3b 5b
        E 183 80 3b 00
        <X 118 0
          /wVhLQ==
        >
        E 0 90 38 5b
        E 132 80 38 00
        <X 88 0
          /wVyb3VuZA==
        >
        E 0 90 3d 5b
        E 188 80 3d 00
        <X 92 0
          /wUr
        >
        E 0 90 3b 5b
        E 134 80 3b 00
        E 31 80 69 00
        E 60 90 69 5b
        <X 20 0
          /wVXZSdsbA==
        >
        E 0 90 3b 5b
        E 98 80 3b 00
        <X 76 0
          /wVrZWVw
        >
        E 0 90 38 5b
        E 125 80 38 00
        <X 86 0
          /wVvbg==
        >
        E 0 90 3b 5b
        E 226 80 3b 00
        <X 100 0
          /wVyb2NraW4n
        >
        E 0 90 3c 5b
        E 275 80 3c 00
        <X 135 0
          /wUr
        >
        E 0 90 3a 5b
        E 272 80 3a 00
        E 87 80 69 00
        E 180 90 69 5b
        E 0 90 74 5b
        <X 117 0
          /wVXZSdsbA==
        >
        E 0 90 3a 5b
        E 161 80 3a 00
        <X 114 0
          /wVrZWVw
        >
        E 0 90 39 5b
        E 147 80 39 00
        <X 95 0
          /wVvbg==
        >
        E 0 90 3d 5b
        E 201 80 3d 00
        <X 79 0
          /wVyb2NraW4n
        >
        E 0 90 3d 5b
        E 130 80 3d 00
        <X 105 0
          /wUr
        >
        E 0 90 40 5b
        E 316 80 40 00
        E 155 80 69 00
        E 0 80 74 00
        E 1080 90 69 5b
        <X 78 0
          /wVDYW0t
        >
        E 0 90 3d 5b
        E 201 80 3d 00
        <X 66 0
          /wVlci0=
        >
        E 0 90 3d 5b
        E 104 80 3d 00
        <X 41 0
          /wVhcw==
        >
        E 0 90 3d 5b
        E 98 80 3d 00
        <X 66 0
          /wVhcmU=
        >
        E 0 90 39 5b
        E 66 80 39 00
        <X 64 0
          /wVmbGFzaC0=
        >
        E 0 90 3c 5b
        E 102 80 3c 00
        <X 75 0
          /wUr
        >
        E 0 90 3e 5b
        E 249 80 3e 00
        <X 105 0
          /wVpbmc=
        >
        E 0 90 3b 5b
        E 177 80 3b 00
        <X 78 0
          /wV3aGlsZQ==
        >
        E 0 90 39 5b
        E 223 80 39 00
        <X 74 0
          /wV3ZSdyZQ==
        >
        E 0 90 3d 5b
        E 133 80 3d 00
        <X 68 0
          /wUr
        >
        E 0 90 3b 5b
        E 135 80 3b 00
        <X 64 0
          /wVkaXJ0LQ==
        >
        E 0 90 3b 5b
        E 201 80 3b 00
        <X 64 0
          /wV5
        >
        E 0 90 39 5b
        E 75 80 39 00
        <X 105 0
          /wVkYW5jLQ==
        >
        E 0 90 3b 5b
        E 102 80 3b 00
        <X 82 0
          /wUr
        >
        E 0 90 3d 5b
        E 258 80 3d 00
        <X 95 0
          /wVpbmc=
        >
        E 0 90 3b 5b
        E 147 80 3b 00
        E 21 80 69 00
        E 22 90 69 5b
        <X 21 0
          /wVUaGV5
        >
        E 0 90 39 5b
        E 148 80 39 00
        <X 115 0
          /wVrZWVw
        >
        E 0 90 3b 5b
        E 153 80 3b 00
        <X 82 0
          /wV3YXRjaC0=
        >
        E 0 90 3e 5b
        E 189 80 3e 00
        <X 70 0
          /wVpbic=
        >
        E 0 90 3b 5b
        E 170 80 3b 00
        <X 83 0
          /wUr
        >
        E 0 90 3c 5b
        E 184 80 3c 00
        E 97 80 69 00
        E 229 90 69 5b
        <X 145 0
          /wVLZWVw
        >
        E 0 90 39 5b
        E 143 80 39 00
        <X 117 0
          /wV3YXRjaC0=
        >
        E 0 90 3d 5b
        E 144 80 3d 00
        <X 122 0
          /wVpbmc=
        >
        E 0 90 40 5b
        E 336 80 40 00
        E 42 80 69 00
        E 60 90 69 5b
        <X 26 0
          /wVGZWVscw==
        >
        E 0 90 3d 60
        E 154 80 3d 00
        <X 63 0
          /wVsaWtl
        >
        E 0 90 3d 60
        E 135 80 3d 00
        <X 72 0
          /wV0aGU=
        >
        E 0 90 3e 60
        E 130 80 3e 00
        <X 155 0
          /wVjcm93ZA==
        >
        E 0 90 3d 60
        E 152 80 3d 00
        <X 56 0
          /wVpcw==
        >
        E 0 90 3d 60
        E 82 80 3d 00
        <X 148 0
          /wVzYXkt
        >
        E 0 90 3b 60
        E 209 80 3b 00
        <X 47 0
          /wVpbmc=
        >
        E 0 90 3b 60
        E 148 80 3b 00
        E 13 80 69 00
        E 57 90 69 60
        E 0 90 74 60
        <X 40 0
          /wVHaW0tIw==
        >
        E 0 90 3b 60
        E 175 80 3b 00
        <X 60 0
          /wVtZSM=
        >
        E 0 90 3b 60
        E 163 80 3b 00
        <X 114 0
          /wVnaW0tIw==
        >
        E 0 90 3b 60
        E 112 80 3b 00
        <X 77 0
          /wVtZSM=
        >
        E 0 90 3b 60
        E 267 80 3b 00
        E 136 80 69 00
        E 0 80 74 00
        E 240 90 69 60
        <X 101 0
          /wVHaW0tIw==
        >
        E 0 90 3b 60
        E 127 80 3b 00
        <X 89 0
          /wVtZSM=
        >
        E 0 90 3b 60
        E 247 80 3b 00
        E 96 80 69 00
        E 300 90 69 60
        <X 119 0
          /wVHaW0tIw==
        >
        E 0 90 3b 60
        E 105 80 3b 00
        <X 62 0
          /wVtZSM=
        >
        E 0 90 3b 60
        E 175 80 3b 00
        <X 123 0
          /wVnaW0tIw==
        >
        E 0 90 3b 60
        E 140 80 3b 00
        <X 100 0
          /wVtZSM=
        >
        E 0 90 3b 60
        E 251 80 3b 00
        E 125 80 69 00
        E 240 90 69 60
        <X 106 0
          /wVHaW0tIw==
        >
        E 0 90 3b 60
        E 126 80 3b 00
        <X 67 0
          /wVtZSM=
        >
        E 0 90 3b 60
        E 148 80 3b 00
        <X 124 0
          /wVnaW0tIw==
        >
        E 0 90 3b 60
        E 138 80 3b 00
        <X 88 0
          /wVtZSM=
        >
        E 0 90 3b 60
        E 317 80 3b 00
        E 86 80 69 00
        E 240 90 69 60
        E 0 90 74 60
        <X 109 0
          /wVHaW0tIw==
        >
        E 0 90 3b 60
        E 149 80 3b 00
        <X 86 0
          /wVtZSM=
        >
        E 0 90 3b 60
        E 303 80 3b 00
        E 133 80 69 00
        E 0 80 74 00
        E 180 90 69 60
        <X 141 0
          /wVHaW0tIw==
        >
        E 0 90 3b 60
        E 120 80 3b 00
        <X 82 0
          /wVtZSM=
        >
        E 0 90 3b 60
        E 115 80 3b 00
        <X 153 0
          /wVnaW0tIw==
        >
        E 0 90 3b 60
        E 123 80 3b 00
        <X 82 0
          /wVtZSM=
        >
        E 0 90 3b 60
        E 204 80 3b 00
        E 120 80 69 00
        E 240 90 69 60
        <X 138 0
          /wVHaW0tIw==
        >
        E 0 90 3b 60
        E 156 80 3b 00
        <X 79 0
          /wVtZSM=
        >
        E 0 90 3b 60
        E 137 80 3b 00
        <X 93 0
          /wVnaW0tIw==
        >
        E 0 90 3b 60
        E 170 80 3b 00
        <X 94 0
          /wVtZSM=
        >
        E 0 90 3b 60
        E 389 80 3b 00
        E 64 80 69 00
        E 180 90 69 60
        <X 135 0
          /wVHaW0tIw==
        >
        E 0 90 3b 60
        E 104 80 3b 00
        <X 91 0
          /wVtZSM=
        >
        E 0 90 3b 60
        E 290 80 3b 00
        E 100 80 69 00
        E 240 90 69 60
        E 0 90 74 60
        <X 104 0
          /wVHaW0tIw==
        >
        E 0 90 3b 60
        E 167 80 3b 00
        <X 85 0
          /wVtZSM=
        >
        E 0 90 3b 60
        E 141 80 3b 00
        <X 102 0
          /wVnaW0tIw==
        >
        E 0 90 3b 60
        E 137 80 3b 00
        <X 77 0
          /wVtZSM=
        >
        E 0 90 3b 60
        E 239 80 3b 00
        E 148 80 69 00
        E 0 80 74 00
        E 300 90 69 60
        <X 98 0
          /wVHaW0tIw==
        >
        E 0 90 3b 60
        E 111 80 3b 00
        <X 61 0
          /wVtZSM=
        >
        E 0 90 3b 60
        E 145 80 3b 00
        <X 81 0
          /wVnaW0tIw==
        >
        E 0 90 3b 60
        E 163 80 3b 00
        <X 91 0
          /wVtZSM=
        >
        E 0 90 3b 60
        E 242 80 3b 00
        E 148 80 69 00
        E 420 90 69 60
        <X 60 0
          /wVHaW0tIw==
        >
        E 0 90 3b 60
        E 104 80 3b 00
        <X 91 0
          /wVtZSM=
        >
        E 0 90 3b 60
        E 290 80 3b 00
        E 115 80 69 00
        E 180 90 69 60
        <X 140 0
          /wVHaW0tIw==
        >
        E 0 90 3b 60
        E 104 80 3b 00
        <X 91 0
          /wVtZSM=
        >
        E 0 90 3b 60
        E 290 80 3b 00
        E 65 80 69 00
        E 1350 90 69 60
        E 0 90 74 60
        <X 180 0
          /wVDZW4t
        >
        E 0 90 36 60
        E 367 80 36 00
        <X 75 0
          /wV0ZXI=
        >
        E 0 90 38 60
        E 236 80 38 00
        <X 74 0
          /wVvZg==
        >
        E 0 90 39 60
        E 100 80 39 00
        <X 78 0
          /wVhdC0=
        >
        E 0 90 3b 60
        E 87 80 3b 00
        <X 48 0
          /wV0ZW4t
        >
        E 0 90 3b 60
        E 332 80 3b 00
        <X 110 0
          /wV0aW9u
        >
        E 0 90 36 60
        E 835 80 36 00
        <X 127 0
          /wUr
        >
        E 0 90 39 60
        E 437 80 39 00
        E 154 80 69 00
        E 0 80 74 00
        E 840 90 69 60
        <X 117 0
          /wVFLQ==
        >
        E 0 90 37 60
        E 189 80 37 00
        <X 83 0
          /wV2ZW4=
        >
        E 0 90 38 60
        E 189 80 38 00
        <X 63 0
          /wV3aGVu
        >
        E 0 90 39 60
        E 191 80 39 00
        <X 81 0
          /wV3ZSdyZQ==
        >
        E 0 90 39 60
        E 175 80 39 00
        <X 133 0
          /wV1cA==
        >
        E 0 90 38 60
        E 200 80 38 00
        <X 205 0
          /wVhLQ==
        >
        E 0 90 31 60
        E 131 80 31 00
        <X 130 0
          /wVnYWluc3Q=
        >
        E 0 90 31 60
        E 280 80 31 00
        <X 74 0
          /wUr
        >
        E 0 90 2f 60
        E 224 80 2f 00
        <X 155 0
          /wV0aGU=
        >
        E 0 90 2f 60
        E 174 80 2f 00
        <X 83 0
          /wV3YWxs
        >
        E 0 90 32 60
        E 560 80 32 00
        E 103 80 69 00
        E 120 90 69 60
        <X 80 0
          /wVZb3U=
        >
        E 0 90 36 60
        E 139 80 36 00
        <X 116 0
          /wVnb3Q=
        >
        E 0 90 36 60
        E 166 80 36 00
        <X 125 0
          /wVtZQ==
        >
        E 0 90 39 60
        E 153 80 39 00
        <X 83 0
          /wVpbg==
        >
        E 0 90 39 60
        E 153 80 39 00
        <X 76 0
          /wVh
        >
        E 0 90 39 60
        E 65 80 39 00
        <X 104 0
          /wVjcmEt
        >
        E 0 90 39 60
        E 197 80 39 00
        <X 76 0
          /wV6eQ==
        >
        E 0 90 3b 60
        E 109 80 3b 00
        <X 118 0
          /wVwby0=
        >
        E 0 90 36 60
        E 143 80 36 00
        <X 103 0
          /wVzaS0=
        >
        E 0 90 3b 60
        E 317 80 3b 00
        <X 187 0
          /wV0aW9u
        >
        E 0 90 34 60
        E 262 80 34 00
        E 48 80 69 00
        E 120 90 69 60
        <X 77 0
          /wVJZg==
        >
        E 0 90 3c 60
        E 162 80 3c 00
        <X 79 0
          /wV5b3UncmU=
        >
        E 0 90 39 60
        E 222 80 39 00
        <X 77 0
          /wVvbg==
        >
        E 0 90 39 60
        E 96 80 39 00
        <X 67 0
          /wVh
        >
        E 0 90 36 60
        E 125 80 36 00
        <X 104 0
          /wVtaXMt
        >
        E 0 90 3b 60
        E 322 80 3b 00
        <X 115 0
          /wVzaW9u
        >
        E 0 90 36 60
        E 447 80 36 00
        E 27 80 69 00
        E 60 90 69 60
        E 0 90 74 60
        <X 15 0
          /wVZb3U=
        >
        E 0 90 36 60
        E 104 80 36 00
        <X 120 0
          /wVnb3Q=
        >
        E 0 90 3b 60
        E 151 80 3b 00
        <X 108 0
          /wVteQ==
        >
        E 0 90 38 60
        E 114 80 38 00
        <X 136 0
          /wVwZXIt
        >
        E 0 90 38 60
        E 121 80 38 00
        <X 93 0
          /wVtaXMt
        >
        E 0 90 3b 60
        E 344 80 3b 00
        <X 132 0
          /wVzaW9u
        >
        E 0 90 37 60
        E 206 80 37 00
        <X 98 0
          /wUr
        >
        E 0 90 35 60
        E 280 80 35 00
        E 63 80 69 00
        E 0 80 74 00
        E 92 90 69 5b
        <X 33 0
          /wVXZQ==
        >
        E 0 90 3d 5b
        E 81 80 3d 00
        <X 137 0
          /wVjYW4=
        >
        E 0 90 3b 5b
        E 154 80 3b 00
        <X 65 0
          /wVnZXQ=
        >
        E 0 90 3a 5b
        E 80 80 3a 00
        <X 166 0
          /wVkb3du
        >
        E 0 90 3d 5b
        E 396 80 3d 00
        <X 64 0
          /wVsaWtl
        >
        E 0 90 3b 5b
        E 131 80 3b 00
        <X 116 0
          /wV0aGVyZSdz
        >
        E 0 90 3b 5b
        E 151 80 3b 00
        <X 99 0
          /wVubw==
        >
        E 0 90 3d 5b
        E 348 80 3d 00
        <X 115 0
          /wVvbmU=
        >
        E 0 90 3b 5b
        E 190 80 3b 00
        <X 63 0
          /wVhLQ==
        >
        E 0 90 38 5b
        E 132 80 38 00
        <X 113 0
          /wVyb3VuZA==
        >
        E 0 90 3d 5b
        E 229 80 3d 00
        <X 89 0
          /wUr
        >
        E 0 90 3b 5b
        E 202 80 3b 00
        E 29 80 69 00
        E 68 90 69 5b
        <X 42 0
          /wVXZSdsbA==
        >
        E 0 90 3b 5b
        E 58 80 3b 00
        <X 49 0
          /wVrZWVw
        >
        E 0 90 38 5b
        E 75 80 38 00
        <X 109 0
          /wVvbg==
        >
        E 0 90 3b 5b
        E 191 80 3b 00
        <X 80 0
          /wVyb2NraW4n
        >
        E 0 90 3b 5b
        E 275 80 3b 00
        <X 129 0
          /wUr
        >
        E 0 90 3a 5b
        E 272 80 3a 00
        E 78 80 69 00
        E 294 90 69 5b
        <X 82 0
          /wVXZSdsbA==
        >
        E 0 90 3a 5b
        E 133 80 3a 00
        <X 84 0
          /wVrZWVw
        >
        E 0 90 39 5b
        E 180 80 39 00
        <X 87 0
          /wVvbg==
        >
        E 0 90 3d 5b
        E 211 80 3d 00
        <X 84 0
          /wVyb2NraW4n
        >
        E 0 90 3d 5b
        E 186 80 3d 00
        <X 135 0
          /wUr
        >
        E 0 90 40 5b
        E 216 80 40 00
        <X 91 0
          /wVyb2NraW4n
        >
        E 0 90 3d 5b
        E 186 80 3d 00
        <X 135 0
          /wUr
        >
        E 0 90 40 5b
        E 215 80 40 00
        E 82 80 69 00
        E 527 90 69 5b
        E 0 90 74 5b
        <X 78 0
          /wVDYW0t
        >
        E 0 90 3d 5b
        E 201 80 3d 00
        <X 66 0
          /wVlci0=
        >
        E 0 90 3d 5b
        E 104 80 3d 00
        <X 41 0
          /wVhcw==
        >
        E 0 90 3d 5b
        E 98 80 3d 00
        <X 66 0
          /wVhcmU=
        >
        E 0 90 39 5b
        E 66 80 39 00
        <X 64 0
          /wVmbGFzaC0=
        >
        E 0 90 3c 5b
        E 102 80 3c 00
        <X 75 0
          /wUr
        >
        E 0 90 3e 5b
        E 249 80 3e 00
        <X 132 0
          /wVpbmc=
        >
        E 0 90 3b 5b
        E 166 80 3b 00
        <X 78 0
          /wV3aGlsZQ==
        >
        E 0 90 39 5b
        E 207 80 39 00
        <X 74 0
          /wV3ZSdyZQ==
        >
        E 0 90 3d 5b
        E 133 80 3d 00
        <X 68 0
          /wUr
        >
        E 0 90 3b 5b
        E 135 80 3b 00
        <X 64 0
          /wVkaXJ0LQ==
        >
        E 0 90 3b 5b
        E 209 80 3b 00
        <X 50 0
          /wV5
        >
        E 0 90 39 5b
        E 86 80 39 00
        <X 136 0
          /wVkYW5jLQ==
        >
        E 0 90 3b 5b
        E 80 80 3b 00
        <X 109 0
          /wUr
        >
        E 0 90 3d 5b
        E 231 80 3d 00
        <X 95 0
          /wVpbmc=
        >
        E 0 90 3b 5b
        E 129 80 3b 00
        E 25 80 69 00
        E 0 80 74 00
        E 22 90 69 5b
        <X 21 0
          /wVUaGV5
        >
        E 0 90 39 5b
        E 148 80 39 00
        <X 115 0
          /wVrZWVw
        >
        E 0 90 3b 5b
        E 153 80 3b 00
        <X 82 0
          /wV3YXRjaC0=
        >
        E 0 90 3e 5b
        E 189 80 3e 00
        <X 70 0
          /wVpbic=
        >
        E 0 90 3b 5b
        E 170 80 3b 00
        <X 83 0
          /wUr
        >
        E 0 90 3c 5b
        E 184 80 3c 00
        E 97 80 69 00
        E 229 90 69 5b
        <X 185 0
          /wVLZWVw
        >
        E 0 90 39 5b
        E 116 80 39 00
        <X 104 0
          /wV3YXRjaC0=
        >
        E 0 90 3d 5b
        E 144 80 3d 00
        <X 122 0
          /wVpbmc=
        >
        E 0 90 40 5b
        E 336 80 40 00
        E 56 80 69 00
        E 53 90 69 60
        <X 38 0
          /wVGZWVscw==
        >
        E 0 90 3d 60
        E 154 80 3d 00
        <X 63 0
          /wVsaWtl
        >
        E 0 90 3d 60
        E 135 80 3d 00
        <X 72 0
          /wV0aGU=
        >
        E 0 90 3e 60
        E 130 80 3e 00
        <X 155 0
          /wVjcm93ZA==
        >
        E 0 90 3d 60
        E 152 80 3d 00
        <X 56 0
          /wVpcw==
        >
        E 0 90 3d 60
        E 82 80 3d 00
        <X 148 0
          /wVzYXkt
        >
        E 0 90 3b 60
        E 209 80 3b 00
        <X 47 0
          /wVpbmc=
        >
        E 0 90 3b 60
        E 148 80 3b 00
        E 61 80 69 00
        E 120 90 69 60
        <X 78 0
          /wVHaW0tIw==
        >
        E 0 90 3b 60
        E 75 80 3b 00
        <X 34 0
          /wVtZSM=
        >
        E 0 90 3b 60
        E 102 80 3b 00
        <X 82 0
          /wVnaW0tIw==
        >
        E 0 90 3b 60
        E 157 80 3b 00
        <X 87 0
          /wVtZSM=
        >
        E 0 90 3b 60
        E 262 80 3b 00
        E 83 80 69 00
        E 360 90 69 60
        E 0 90 74 60
        <X 60 0
          /wVHaW0tIw==
        >
        E 0 90 3b 60
        E 91 80 3b 00
        <X 98 0
          /wVtZSM=
        >
        E 0 90 3b 60
        E 258 80 3b 00
        E 93 80 69 00
        E 0 80 74 00
        E 360 90 69 60
        <X 81 0
          /wVHaW0tIw==
        >
        E 0 90 3b 60
        E 82 80 3b 00
        <X 91 0
          /wVtZSM=
        >
        E 0 90 3b 60
        E 137 80 3b 00
        <X 137 0
          /wVnaW0tIw==
        >
        E 0 90 3b 60
        E 130 80 3b 00
        <X 107 0
          /wVtZSM=
        >
        E 0 90 3b 60
        E 251 80 3b 00
        E 64 80 69 00
        E 360 90 69 60
        <X 72 0
          /wVHaW0tIw==
        >
        E 0 90 3b 60
        E 104 80 3b 00
        <X 93 0
          /wVtZSM=
        >
        E 0 90 3b 60
        E 119 80 3b 00
        <X 144 0
          /wVnaW0tIw==
        >
        E 0 90 3b 60
        E 121 80 3b 00
        <X 89 0
          /wVtZSM=
        >
        E 0 90 3b 60
        E 298 80 3b 00
        E 100 80 69 00
        E 300 90 69 60
        <X 57 0
          /wVHaW0tIw==
        >
        E 0 90 3b 60
        E 133 80 3b 00
        <X 112 0
          /wVtZSM=
        >
        E 0 90 3b 60
        E 277 80 3b 00
        E 141 80 69 00
        E 240 90 69 60
        E 0 90 74 60
        <X 93 0
          /wVHaW0tIw==
        >
        E 0 90 3b 60
        E 97 80 3b 00
        <X 82 0
          /wVtZSM=
        >
        E 0 90 3b 60
        E 107 80 3b 00
        <X 143 0
          /wVnaW0tIw==
        >
        E 0 90 3b 60
        E 130 80 3b 00
        <X 103 0
          /wVtZSM=
        >
        E 0 90 3b 60
        E 204 80 3b 00
        E 121 80 69 00
        E 0 80 74 00
        E 300 90 69 60
        <X 134 0
          /wVHaW0tIw==
        >
        E 0 90 3b 60
        E 87 80 3b 00
        <X 98 0
          /wVtZSM=
        >
        E 0 90 3b 60
        E 110 80 3b 00
        <X 135 0
          /wVnaW0tIw==
        >
        E 0 90 3b 60
        E 134 80 3b 00
        <X 131 0
          /wVtZSM=
        >
        E 0 90 3b 60
        E 328 80 3b 00
        E 103 80 69 00
        E 240 90 69 60
        <X 67 0
          /wVHaW0tIw==
        >
        E 0 90 3b 60
        E 100 80 3b 00
        <X 102 0
          /wVtZSM=
        >
        E 0 90 3b 60
        E 263 80 3b 00
        E 128 80 69 00
        E 240 90 69 60
        <X 110 0
          /wVHaW0tIw==
        >
        E 0 90 3b 60
        E 137 80 3b 00
        <X 87 0
          /wVtZSM=
        >
        E 0 90 3b 60
        E 141 80 3b 00
        <X 130 0
          /wVnaW0tIw==
        >
        E 0 90 3b 60
        E 106 80 3b 00
        <X 96 0
          /wVtZSM=
        >
        E 0 90 3b 60
        E 229 80 3b 00
        E 104 80 69 00
        E 360 90 69 60
        E 0 90 74 60
        <X 70 0
          /wVHaW0tIw==
        >
        E 0 90 3b 60
        E 111 80 3b 00
        <X 101 0
          /wVtZSM=
        >
        E 0 90 3b 60
        E 116 80 3b 00
        <X 97 0
          /wVnaW0tIw==
        >
        E 0 90 3b 60
        E 146 80 3b 00
        <X 98 0
          /wVtZSM=
        >
        E 0 90 3b 60
        E 242 80 3b 00
        E 99 80 69 00
        E 0 80 74 00
        E 420 90 69 60
        <X 60 0
          /wVHaW0tIw==
        >
        E 0 90 3b 60
        E 104 80 3b 00
        <X 91 0
          /wVtZSM=
        >
        E 0 90 3b 60
        E 290 80 3b 00
        E 115 80 69 00
        E 240 90 69 60
        <X 80 0
          /wVHaW0tIw==
        >
        E 0 90 3b 60
        E 104 80 3b 00
        <X 91 0
          /wVtZSM=
        >
        E 0 90 3b 60
        E 290 80 3b 00
        E 95 80 69 00
        E 15557 90 69 5b
        <X 199 0
          /wVBdSM=
        >
        E 0 90 47 5b
        E 207 80 47 00
        E 281 80 69 00
        E 30742 90 69 60
        <X 98 0
          /wVHaW0tIw==
        >
        E 0 90 3b 60
        E 65 80 3b 00
        <X 74 0
          /wVtZSM=
        >
        E 0 90 3b 60
        E 67 80 3b 00
        <X 122 0
          /wVnaW0tIw==
        >
        E 0 90 3b 60
        E 119 80 3b 00
        <X 85 0
          /wVtZSM=
        >
        E 0 90 3b 60
        E 239 80 3b 00
        E 91 80 69 00
        E 345 90 69 60
        E 0 90 74 60
        <X 61 0
          /wVHaW0tIw==
        >
        E 0 90 3b 60
        E 110 80 3b 00
        <X 92 0
          /wVtZSM=
        >
        E 0 90 3b 60
        E 260 80 3b 00
        E 77 80 69 00
        E 0 80 74 00
        E 353 90 69 60
        <X 82 0
          /wVHaW0tIw==
        >
        E 0 90 3b 60
        E 106 80 3b 00
        <X 100 0
          /wVtZSM=
        >
        E 0 90 3b 60
        E 127 80 3b 00
        <X 108 0
          /wVnaW0tIw==
        >
        E 0 90 3b 60
        E 162 80 3b 00
        <X 91 0
          /wVtZSM=
        >
        E 0 90 3b 60
        E 270 80 3b 00
        E 34 80 69 00
        E 361 90 69 60
        <X 73 0
          /wVHaW0tIw==
        >
        E 0 90 3b 60
        E 121 80 3b 00
        <X 90 0
          /wVtZSM=
        >
        E 0 90 3b 60
        E 138 80 3b 00
        <X 122 0
          /wVnaW0tIw==
        >
        E 0 90 3b 60
        E 128 80 3b 00
        <X 123 0
          /wVtZSM=
        >
        E 0 90 3b 60
        E 280 80 3b 00
        E 65 80 69 00
        E 321 90 69 60
        <X 58 0
          /wVHaW0tIw==
        >
        E 0 90 3b 60
        E 133 80 3b 00
        <X 112 0
          /wVtZSM=
        >
        E 0 90 3b 60
        E 277 80 3b 00
        E 140 80 69 00
        E 240 90 69 60
        E 0 90 74 60
        <X 83 0
          /wVHaW0tIw==
        >
        E 0 90 3b 60
        E 108 80 3b 00
        <X 82 0
          /wVtZSM=
        >
        E 0 90 3b 60
        E 120 80 3b 00
        <X 130 0
          /wVnaW0tIw==
        >
        E 0 90 3b 60
        E 130 80 3b 00
        <X 103 0
          /wVtZSM=
        >
        E 0 90 3b 60
        E 204 80 3b 00
        E 120 80 69 00
        E 0 80 74 00
        E 300 90 69 60
        <X 135 0
          /wVHaW0tIw==
        >
        E 0 90 3b 60
        E 92 80 3b 00
        <X 93 0
          /wVtZSM=
        >
        E 0 90 3b 60
        E 117 80 3b 00
        <X 120 0
          /wVnaW0tIw==
        >
        E 0 90 3b 60
        E 146 80 3b 00
        <X 127 0
          /wVtZSM=
        >
        E 0 90 3b 60
        E 328 80 3b 00
        E 102 80 69 00
        E 240 90 69 60
        <X 68 0
          /wVHaW0tIw==
        >
        E 0 90 3b 60
        E 113 80 3b 00
        <X 99 0
          /wVtZSM=
        >
        E 0 90 3b 60
        E 269 80 3b 00
        E 111 80 69 00
        E 241 90 69 60
        <X 110 0
          /wVHaW0tIw==
        >
        E 0 90 3b 60
        E 145 80 3b 00
        <X 102 0
          /wVtZSM=
        >
        E 0 90 3b 60
        E 122 80 3b 00
        <X 126 0
          /wVnaW0tIw==
        >
        E 0 90 3b 60
        E 118 80 3b 00
        <X 95 0
          /wVtZSM=
        >
        E 0 90 3b 60
        E 224 80 3b 00
        E 97 80 69 00
        E 360 90 69 60
        E 0 90 74 60
        <X 54 0
          /wVHaW0tIw==
        >
        E 0 90 3b 60
        E 131 80 3b 00
        <X 97 0
          /wVtZSM=
        >
        E 0 90 3b 60
        E 121 80 3b 00
        <X 99 0
          /wVnaW0tIw==
        >
        E 0 90 3b 60
        E 147 80 3b 00
        <X 95 0
          /wVtZSM=
        >
        E 0 90 3b 60
        E 232 80 3b 00
        E 104 80 69 00
        E 0 80 74 00
        E 474 90 69 60
        <X 60 0
          /wVHaW0tIw==
        >
        E 0 90 3b 60
        E 104 80 3b 00
        <X 91 0
          /wVtZSM=
        >
        E 0 90 3b 60
        E 290 80 3b 00
        E 115 80 69 00
        E 240 90 69 60
        <X 80 0
          /wVHaW0tIw==
        >
        E 0 90 3b 60
        E 104 80 3b 00
        <X 91 0
          /wVtZSM=
        >
        E 0 90 3b 60
        E 290 80 3b 00
        E 95 80 69 00
        E 711 90 69 60
        <X 98 0
          /wVHaW0tIw==
        >
        E 0 90 3b 60
        E 96 80 3b 00
        <X 100 0
          /wVtZSM=
        >
        E 0 90 3b 60
        E 123 80 3b 00
        <X 111 0
          /wVnaW0tIw==
        >
        E 0 90 3b 60
        E 134 80 3b 00
        <X 83 0
          /wVtZSM=
        >
        E 0 90 3b 60
        E 239 80 3b 00
        E 83 80 69 00
        E 349 90 69 60
        E 0 90 74 60
        <X 69 0
          /wVHaW0tIw==
        >
        E 0 90 3b 60
        E 116 80 3b 00
        <X 94 0
          /wVtZSM=
        >
        E 0 90 3b 60
        E 244 80 3b 00
        E 77 80 69 00
        E 0 80 74 00
        E 353 90 69 60
        <X 96 0
          /wVHaW0tIw==
        >
        E 0 90 3b 60
        E 113 80 3b 00
        <X 104 0
          /wVtZSM=
        >
        E 0 90 3b 60
        E 121 80 3b 00
        <X 97 0
          /wVnaW0tIw==
        >
        E 0 90 3b 60
        E 170 80 3b 00
        <X 89 0
          /wVtZSM=
        >
        E 0 90 3b 60
        E 244 80 3b 00
        E 46 80 69 00
        E 361 90 69 60
        <X 81 0
          /wVHaW0tIw==
        >
        E 0 90 3b 60
        E 135 80 3b 00
        <X 96 0
          /wVtZSM=
        >
        E 0 90 3b 60
        E 122 80 3b 00
        <X 110 0
          /wVnaW0tIw==
        >
        E 0 90 3b 60
        E 152 80 3b 00
        <X 99 0
          /wVtZSM=
        >
        E 0 90 3b 60
        E 290 80 3b 00
        E 55 80 69 00
        E 321 90 69 60
        <X 71 0
          /wVHaW0tIw==
        >
        E 0 90 3b 60
        E 149 80 3b 00
        <X 90 0
          /wVtZSM=
        >
        E 0 90 3b 60
        E 302 80 3b 00
        E 108 80 69 00
        E 240 90 69 60
        E 0 90 74 60
        <X 87 0
          /wVHaW0tIw==
        >
        E 0 90 3b 60
        E 128 80 3b 00
        <X 104 0
          /wVtZSM=
        >
        E 0 90 3b 60
        E 107 80 3b 00
        <X 129 0
          /wVnaW0tIw==
        >
        E 0 90 3b 60
        E 130 80 3b 00
        <X 92 0
          /wVtZSM=
        >
        E 0 90 3b 60
        E 211 80 3b 00
        E 92 80 69 00
        E 0 80 74 00
        E 300 90 69 60
        <X 130 0
          /wVHaW0tIw==
        >
        E 0 90 3b 60
        E 123 80 3b 00
        <X 90 0
          /wVtZSM=
        >
        E 0 90 3b 60
        E 117 80 3b 00
        <X 119 0
          /wVnaW0tIw==
        >
        E 0 90 3b 60
        E 142 80 3b 00
        <X 114 0
          /wVtZSM=
        >
        E 0 90 3b 60
        E 357 80 3b 00
        E 68 80 69 00
        E 240 90 69 60
        <X 76 0
          /wVHaW0tIw==
        >
        E 0 90 3b 60
        E 119 80 3b 00
        <X 111 0
          /wVtZSM=
        >
        E 0 90 3b 60
        E 263 80 3b 00
        E 91 80 69 00
        E 241 90 69 60
        <X 132 0
          /wVHaW0tIw==
        >
        E 0 90 3b 60
        E 145 80 3b 00
        <X 89 0
          /wVtZSM=
        >
        E 0 90 3b 60
        E 127 80 3b 00
        <X 126 0
          /wVnaW0tIw==
        >
        E 0 90 3b 60
        E 120 80 3b 00
        <X 94 0
          /wVtZSM=
        >
        E 0 90 3b 60
        E 242 80 3b 00
        E 64 80 69 00
        E 360 90 69 60
        <X 92 0
          /wVHaW0tIw==
        >
        E 0 90 3b 60
        E 132 80 3b 00
        <X 101 0
          /wVtZSM=
        >
        E 0 90 3b 60
        E 115 80 3b 00
        <X 101 0
          /wVnaW0tIw==
        >
        E 0 90 3b 60
        E 137 80 3b 00
        <X 102 0
          /wVtZSM=
        >
        E 0 90 3b 60
        E 232 80 3b 00
        E 68 80 69 00
        E 468 90 69 60
        <X 60 0
          /wVHaW0tIw==
        >
        E 0 90 3b 60
        E 104 80 3b 00
        <X 91 0
          /wVtZSM=
        >
        E 0 90 3b 60
        E 290 80 3b 00
        E 115 80 69 00
        E 240 90 69 60
        <X 80 0
          /wVHaW0tIw==
        >
        E 0 90 3b 60
        E 104 80 3b 00
        <X 91 0
          /wVtZSM=
        >
        E 0 90 3b 60
        E 290 80 3b 00
        E 95 80 69 00
        E 19563 b0 7b 00
        GUID {D78D8959-2AD8-48C0-8F6C-4A6670952331}
        IGNTEMPO 0 120.00000000 4 4
        SRCCOLOR 1258
        VELLANE 132 128 60
        COLORMAP "C:\Users\me\AppData\Roaming\REAPER\Data\color_maps\rockband_vox-other.png"
        TEXTSTRINGFILE "C:\Program Files\REAPER (x64)\REAPER\Data\Text_Strings\Text Events List - Instruments.txt"
        CFGEDITVIEW -250.444400 155.723187 16 12 0 0 0
        CFGEDIT 1 1 0 1 1 1 1 1 1 0 1 0.06250000 -8 -8 1374 736 1 2 1 2 0.00000000 0 0 0 0 0.500000 1 0 1.000000 64
        KEYSNAP 0 0 "102034050607" 0 "Major"
        EVTFILTER 0 -1 -1 -1 -1 0 1 0 0 -1.00000000 -1.00000000
      >
    >
  >
  <TRACK '{4A30D2A4-111B-40E3-8633-0926E85E641C}'
    NAME "DRYVOX1"
    PEAKCOL 16576
    BEAT -1
    AUTOMODE 0
    VOLPAN 1.00000000000000 0.00000000000000 -1.00000000000000 -1.00000000000000 1.00000000000000
    MUTESOLO 1 0 0
    IPHASE 0
    ISBUS 0 0
    BUSCOMP 0 0
    SHOWINMIX 1 0.666700 0.500000 1 0.500000 -1 -1 -1
    FREEMODE 0
    SEL 0
    REC 0 0 0 0 0 0 0
    TRACKHEIGHT 0 0
    INQ 0 0 0 0.5000000000 100 0 0 100
    NCHAN 2
    FX 1
    TRACKID {4A30D2A4-111B-40E3-8633-0926E85E641C}
    PERF 0
    MIDIOUT -1
    MAINSEND 1 0
    <FXCHAIN
      SHOW 0
      LASTSEL 0
      DOCKED 0
      BYPASS 0 0
      <VST "VST: ReaGate (Cockos)" "reagate.dll" 0 ""
        dGdlcu9e7f4EAAAAAQAAAAAAAAACAAAAAAAAAAQAAAAAAAAACAAAAA==
        AAAAAAIAAAABAAAAAAAAAAIAAAAAAAAAVAAAAAAAAAAAABAA776t3g==
        DfCt3pzRBzOmm8Q7CtejPAAAAAAAAAAAAACAPwAAAAAAAAAAAAAAAA==
        nNEHMx5Ucz+c0QczAACAPwAAAAAAAAAAAAAAACwWCz8AAAAAAAAAAA==
        AAAQAAAA
      >
      FLOATPOS 859 184 511 385
      FXID {BF545B5B-7DD0-4B4C-AC52-F095A552DA08}
      WAK 0
    >
    <ITEM
      POSITION 3.73480460909195
      SNAPOFFS 0.00000000000000
      LENGTH 212.85333333333332
      LOOP 0
      ALLTAKES 0
      SEL 0
      FADEIN 1 0.000000 0.000000 1 0
      FADEOUT 1 0.000000 0.000000 1 0
      MUTE 0
      IGUID {0B5A9BF5-6208-439F-B7E2-7172110C2297}
      IID 85
      NAME "mvsep_audio.mp3"
      VOLPAN 1.000000 0.000000 1.000000 -1.000000
      SOFFS 0.00000000000000
      PLAYRATE 1.00000000000000 1 0.00000000000000 -1
      CHANMODE 0
      GUID {C4AB4556-2FBA-4086-A877-F2F1632FE0B5}
      <SOURCE MP3
        FILE "mvsep_audio.mp3" 1
      >
    >
  >
  <TRACK '{983C7D04-DAF6-462A-B5E6-64213F29FBA0}'
    NAME "HARM2"
    PEAKCOL 24624127
    BEAT -1
    AUTOMODE 0
    VOLPAN 1.00497380427334 0.00000000000000 -1.00000000000000 -1.00000000000000 1.00000000000000
    MUTESOLO 0 0 0
    IPHASE 0
    ISBUS 0 0
    BUSCOMP 0 0
    SHOWINMIX 1 0.666700 0.500000 1 0.500000 -1 -1 -1
    FREEMODE 0
    SEL 0
    REC 0 0 0 0 0 0 0
    TRACKHEIGHT 0 0
    INQ 0 0 0 0.5000000000 100 0 0 100
    NCHAN 2
    FX 1
    TRACKID {983C7D04-DAF6-462A-B5E6-64213F29FBA0}
    PERF 0
    MIDIOUT -1
    <MIDINOTENAMES
      0 0 "Range Shift"
      0 1 "Lyric Shift"
      0 36 "C1"
      0 37 "C#"
      0 38 "D"
      0 39 "Eb"
      0 40 "E"
      0 41 "F"
      0 42 "F#"
      0 43 "G"
      0 44 "G#"
      0 45 "A"
      0 46 "Bb"
      0 47 "B"
      0 48 "C2"
      0 49 "C#"
      0 50 "D"
      0 51 "Eb"
      0 52 "E"
      0 53 "F"
      0 54 "F#"
      0 55 "G"
      0 56 "G#"
      0 57 "A"
      0 58 "Bb"
      0 59 "B"
      0 60 "C3"
      0 61 "C#"
      0 62 "D"
      0 63 "Eb"
      0 64 "E"
      0 65 "F"
      0 66 "F#"
      0 67 "G"
      0 68 "G#"
      0 69 "A"
      0 70 "Bb"
      0 71 "B"
      0 72 "C4"
      0 73 "C#"
      0 74 "D"
      0 75 "Eb"
      0 76 "E"
      0 77 "F"
      0 78 "F#"
      0 79 "G"
      0 80 "G#"
      0 81 "A"
      0 82 "Bb"
      0 83 "B"
      0 105 "Phrase Marker"
      0 35 "----"
      0 84 "C5"
      0 116 "OVERDRIVE"
      0 115 "----"
      0 104 "----"
      0 97 "Not Displayed Percussion"
      0 96 "Displayed Percussion"
      0 95 "----"
    >
    MAINSEND 1 0
    <FXCHAIN
      WNDRECT 0 42 716 493
      SHOW 0
      LASTSEL 1
      DOCKED 0
      BYPASS 0 0
      <JS "IX/MIDI_Tool II" ""
        0.000000 85.000000 127.000000 0.000000 0.000000 0.000000 100.000000 0.000000 0.000000 127.000000 0.000000 0.000000 1.000000 0.000000 0.000000 - - - - - - - - - - - - - - - - - - - - - - - - - - - - - - - - - - - - - - - - - - - - - - - - - 
      >
      FLOATPOS 0 0 0 0
      FXID {0D2127EF-90E6-4278-AB57-59BADA75D3A0}
      WAK 0
      BYPASS 0 0
      <VST "VSTi: ReaSynth (Cockos)" "reasynth.dll" 0 ""
        eXNlcu9e7f4AAAAAAgAAAAEAAAAAAAAAAgAAAAAAAAA4AAAAAAAAAA==
        AAAAAO++rd4N8K3eppvEOxe30ToAAAAAAAAAAAAAAACa9Q8/6WeIPQ==
        AAAAAAAAAD8AAIA/AAAAAAAAAD8AAAAAAAA=
      >
      FLOATPOS 0 0 0 0
      FXID {9CF76FE8-51DE-4F46-8774-EF282D9874DF}
      WAK 0
    >
    <ITEM
      POSITION 0.00000000000000
      SNAPOFFS 0.00000000000000
      LENGTH 216.49546995126440
      LOOP 0
      ALLTAKES 0
      SEL 0
      FADEIN 1 0.000000 0.000000 1 0
      FADEOUT 1 0.000000 0.000000 1 0
      MUTE 0
      IGUID {85B4D2FA-0EE6-4979-8286-EAC89A15680D}
      IID 12
      NAME "HARM2 untitled MIDI item"
      VOLPAN 1.000000 0.000000 1.000000 -1.000000
      SOFFS 0.00000000000000 0.00000000000000
      PLAYRATE 1.00000000000000 1 0.00000000000000 -1
      CHANMODE 0
      GUID {67C8C31A-733D-46F5-9A6D-0FDF2143554E}
      <SOURCE MIDI
        HASDATA 1 480 QN
        POOLEDEVTS {5480FD66-D601-440A-9CD5-47FC703C9AD8}
        <X 0 0
          /wNIQVJNMg==
        >
        E 3720 90 69 5b
        E 1680 80 69 00
        E 660 90 69 5b
        E 1680 80 69 00
        E 300 90 69 5b
        E 1920 80 69 00
        E 900 90 69 5b
        E 0 90 74 5b
        E 2340 80 69 00
        E 0 80 74 00
        E 360 90 69 5b
        E 1680 80 69 00
        E 15240 90 69 5b
        E 3540 80 69 00
        E 480 90 69 5b
        E 3840 80 69 00
        E 60 90 69 5b
        E 0 90 74 5b
        <X 2441 0
          /wVPb2g=
        >
        E 0 90 44 60
        E 373 80 44 00
        <X 152 0
          /wUr
        >
        E 0 90 43 60
        E 391 80 43 00
        <X 117 0
          /wUr
        >
        E 0 90 42 60
        E 362 80 42 00
        E 24 80 69 00
        E 0 80 74 00
        E 98 90 69 5b
        <X 2582 0
          /wVCdXQ=
        >
        E 0 90 3b 60
        E 100 80 3b 00
        <X 152 0
          /wV5b3U=
        >
        E 0 90 3b 60
        E 168 80 69 00
        E 120 90 69 5b
        E 27 80 3b 00
        E 3273 80 69 00
        E 60 90 69 5b
        E 1500 80 69 00
        E 180 90 69 5b
        E 0 90 74 5b
        E 1620 80 69 00
        E 0 80 74 00
        E 1080 90 69 5b
        E 3417 80 69 00
        E 22 90 69 5b
        E 1312 80 69 00
        e 229 90 69 5b
        e 1049 80 69 00
        e 60 90 69 5b
        <X 26 0
          /wVGZWVscw==
        >
        E 0 90 42 60
        E 154 80 42 00
        <X 63 0
          /wVsaWtl
        >
        E 0 90 42 60
        E 135 80 42 00
        <X 72 0
          /wV0aGU=
        >
        E 0 90 43 60
        E 130 80 43 00
        <X 155 0
          /wVjcm93ZA==
        >
        E 0 90 42 60
        E 152 80 42 00
        <X 56 0
          /wVpcw==
        >
        E 0 90 42 60
        E 82 80 42 00
        <X 148 0
          /wVzYXkt
        >
        E 0 90 40 60
        E 209 80 40 00
        <X 47 0
          /wVpbmc=
        >
        E 0 90 40 60
        E 148 80 40 00
        e 13 80 69 00
        E 57 90 69 60
        E 0 90 74 60
        <X 40 0
          /wVHaW0tIw==
        >
        E 0 90 40 60
        E 175 80 40 00
        <X 60 0
          /wVtZSM=
        >
        E 0 90 40 60
        E 163 80 40 00
        <X 114 0
          /wVnaW0tIw==
        >
        E 0 90 40 60
        E 112 80 40 00
        <X 77 0
          /wVtZSM=
        >
        E 0 90 40 60
        E 267 80 40 00
        E 136 80 69 00
        E 0 80 74 00
        E 240 90 69 60
        <X 101 0
          /wVHaW0tIw==
        >
        E 0 90 40 60
        E 127 80 40 00
        <X 89 0
          /wVtZSM=
        >
        E 0 90 40 60
        E 247 80 40 00
        E 96 80 69 00
        E 300 90 69 60
        <X 119 0
          /wVHaW0tIw==
        >
        E 0 90 40 60
        E 105 80 40 00
        <X 62 0
          /wVtZSM=
        >
        E 0 90 40 60
        E 175 80 40 00
        <X 123 0
          /wVnaW0tIw==
        >
        E 0 90 40 60
        E 140 80 40 00
        <X 100 0
          /wVtZSM=
        >
        E 0 90 40 60
        E 251 80 40 00
        E 125 80 69 00
        E 240 90 69 60
        <X 106 0
          /wVHaW0tIw==
        >
        E 0 90 40 60
        E 126 80 40 00
        <X 67 0
          /wVtZSM=
        >
        E 0 90 40 60
        E 148 80 40 00
        <X 124 0
          /wVnaW0tIw==
        >
        E 0 90 40 60
        E 138 80 40 00
        <X 88 0
          /wVtZSM=
        >
        E 0 90 40 60
        E 317 80 40 00
        E 86 80 69 00
        E 240 90 69 60
        E 0 90 74 60
        <X 109 0
          /wVHaW0tIw==
        >
        E 0 90 40 60
        E 149 80 40 00
        <X 86 0
          /wVtZSM=
        >
        E 0 90 40 60
        E 303 80 40 00
        E 133 80 69 00
        E 0 80 74 00
        E 180 90 69 60
        <X 141 0
          /wVHaW0tIw==
        >
        E 0 90 40 60
        E 120 80 40 00
        <X 82 0
          /wVtZSM=
        >
        E 0 90 40 60
        E 115 80 40 00
        <X 153 0
          /wVnaW0tIw==
        >
        E 0 90 40 60
        E 123 80 40 00
        <X 82 0
          /wVtZSM=
        >
        E 0 90 40 60
        E 204 80 40 00
        E 120 80 69 00
        E 240 90 69 60
        <X 138 0
          /wVHaW0tIw==
        >
        E 0 90 40 60
        E 156 80 40 00
        <X 79 0
          /wVtZSM=
        >
        E 0 90 40 60
        E 137 80 40 00
        <X 93 0
          /wVnaW0tIw==
        >
        E 0 90 40 60
        E 170 80 40 00
        <X 94 0
          /wVtZSM=
        >
        E 0 90 40 60
        E 389 80 40 00
        E 64 80 69 00
        E 180 90 69 60
        <X 135 0
          /wVHaW0tIw==
        >
        E 0 90 40 60
        E 104 80 40 00
        <X 91 0
          /wVtZSM=
        >
        E 0 90 40 60
        E 290 80 40 00
        E 100 80 69 00
        E 240 90 69 60
        E 0 90 74 60
        <X 104 0
          /wVHaW0tIw==
        >
        E 0 90 40 60
        E 167 80 40 00
        <X 85 0
          /wVtZSM=
        >
        E 0 90 40 60
        E 141 80 40 00
        <X 102 0
          /wVnaW0tIw==
        >
        E 0 90 40 60
        E 137 80 40 00
        <X 77 0
          /wVtZSM=
        >
        E 0 90 40 60
        E 239 80 40 00
        E 148 80 69 00
        E 0 80 74 00
        E 300 90 69 60
        <X 98 0
          /wVHaW0tIw==
        >
        E 0 90 40 60
        E 111 80 40 00
        <X 61 0
          /wVtZSM=
        >
        E 0 90 40 60
        E 145 80 40 00
        <X 81 0
          /wVnaW0tIw==
        >
        E 0 90 40 60
        E 163 80 40 00
        <X 91 0
          /wVtZSM=
        >
        E 0 90 40 60
        E 242 80 40 00
        E 148 80 69 00
        E 420 90 69 60
        <X 60 0
          /wVHaW0tIw==
        >
        E 0 90 40 60
        E 104 80 40 00
        <X 91 0
          /wVtZSM=
        >
        E 0 90 40 60
        E 290 80 40 00
        E 115 80 69 00
        E 180 90 69 60
        <X 140 0
          /wVHaW0tIw==
        >
        E 0 90 40 60
        E 104 80 40 00
        <X 91 0
          /wVtZSM=
        >
        E 0 90 40 60
        E 290 80 40 00
        E 65 80 69 00
        E 1350 90 69 60
        E 0 90 74 60
        E 3240 80 69 00
        E 0 80 74 00
        E 840 90 69 60
        E 3540 80 69 00
        E 120 90 69 60
        E 2820 80 69 00
        E 120 90 69 60
        E 1920 80 69 00
        E 60 90 69 60
        E 0 90 74 60
        E 2085 80 69 00
        E 0 80 74 00
        E 92 90 69 5b
        E 3183 80 69 00
        E 68 90 69 5b
        E 1358 80 69 00
        E 294 90 69 5b
        E 2107 80 69 00
        E 527 90 69 5b
        E 0 90 74 5b
        E 3417 80 69 00
        E 0 80 74 00
        E 22 90 69 5b
        E 1312 80 69 00
        E 229 90 69 5b
        E 1063 80 69 00
        E 52 90 69 60
        <X 39 0
          /wVGZWVscw==
        >
        E 0 90 42 60
        E 154 80 42 00
        <X 63 0
          /wVsaWtl
        >
        E 0 90 42 60
        E 135 80 42 00
        <X 72 0
          /wV0aGU=
        >
        E 0 90 43 60
        E 130 80 43 00
        <X 155 0
          /wVjcm93ZA==
        >
        E 0 90 42 60
        E 152 80 42 00
        <X 56 0
          /wVpcw==
        >
        E 0 90 42 60
        E 82 80 42 00
        <X 148 0
          /wVzYXkt
        >
        E 0 90 40 60
        E 209 80 40 00
        <X 47 0
          /wVpbmc=
        >
        E 0 90 40 60
        E 148 80 40 00
        E 60 80 69 00
        E 121 90 69 60
        <X 78 0
          /wVHaW0tIw==
        >
        E 0 90 40 60
        E 75 80 40 00
        <X 34 0
          /wVtZSM=
        >
        E 0 90 40 60
        E 102 80 40 00
        <X 82 0
          /wVnaW0tIw==
        >
        E 0 90 40 60
        E 157 80 40 00
        <X 87 0
          /wVtZSM=
        >
        E 0 90 40 60
        E 262 80 40 00
        E 83 80 69 00
        E 360 90 69 60
        E 0 90 74 60
        <X 60 0
          /wVHaW0tIw==
        >
        E 0 90 40 60
        E 91 80 40 00
        <X 98 0
          /wVtZSM=
        >
        E 0 90 40 60
        E 258 80 40 00
        E 93 80 69 00
        E 0 80 74 00
        E 360 90 69 60
        <X 81 0
          /wVHaW0tIw==
        >
        E 0 90 40 60
        E 82 80 40 00
        <X 91 0
          /wVtZSM=
        >
        E 0 90 40 60
        E 137 80 40 00
        <X 137 0
          /wVnaW0tIw==
        >
        E 0 90 40 60
        E 130 80 40 00
        <X 107 0
          /wVtZSM=
        >
        E 0 90 40 60
        E 251 80 40 00
        E 64 80 69 00
        E 360 90 69 60
        <X 72 0
          /wVHaW0tIw==
        >
        E 0 90 40 60
        E 104 80 40 00
        <X 93 0
          /wVtZSM=
        >
        E 0 90 40 60
        E 119 80 40 00
        <X 144 0
          /wVnaW0tIw==
        >
        E 0 90 40 60
        E 121 80 40 00
        <X 89 0
          /wVtZSM=
        >
        E 0 90 40 60
        E 298 80 40 00
        E 100 80 69 00
        E 300 90 69 60
        <X 57 0
          /wVHaW0tIw==
        >
        E 0 90 40 60
        E 133 80 40 00
        <X 112 0
          /wVtZSM=
        >
        E 0 90 40 60
        E 277 80 40 00
        E 141 80 69 00
        E 240 90 69 60
        E 0 90 74 60
        <X 93 0
          /wVHaW0tIw==
        >
        E 0 90 40 60
        E 97 80 40 00
        <X 82 0
          /wVtZSM=
        >
        E 0 90 40 60
        E 107 80 40 00
        <X 143 0
          /wVnaW0tIw==
        >
        E 0 90 40 60
        E 130 80 40 00
        <X 103 0
          /wVtZSM=
        >
        E 0 90 40 60
        E 204 80 40 00
        E 121 80 69 00
        E 0 80 74 00
        E 300 90 69 60
        <X 134 0
          /wVHaW0tIw==
        >
        E 0 90 40 60
        E 87 80 40 00
        <X 98 0
          /wVtZSM=
        >
        E 0 90 40 60
        E 110 80 40 00
        <X 135 0
          /wVnaW0tIw==
        >
        E 0 90 40 60
        E 134 80 40 00
        <X 131 0
          /wVtZSM=
        >
        E 0 90 40 60
        E 328 80 40 00
        E 103 80 69 00
        E 240 90 69 60
        <X 67 0
          /wVHaW0tIw==
        >
        E 0 90 40 60
        E 100 80 40 00
        <X 102 0
          /wVtZSM=
        >
        E 0 90 40 60
        E 263 80 40 00
        E 128 80 69 00
        E 240 90 69 60
        <X 110 0
          /wVHaW0tIw==
        >
        E 0 90 40 60
        E 137 80 40 00
        <X 87 0
          /wVtZSM=
        >
        E 0 90 40 60
        E 141 80 40 00
        <X 130 0
          /wVnaW0tIw==
        >
        E 0 90 40 60
        E 106 80 40 00
        <X 96 0
          /wVtZSM=
        >
        E 0 90 40 60
        E 229 80 40 00
        E 104 80 69 00
        E 360 90 69 60
        E 0 90 74 60
        <X 70 0
          /wVHaW0tIw==
        >
        E 0 90 40 60
        E 111 80 40 00
        <X 101 0
          /wVtZSM=
        >
        E 0 90 40 60
        E 116 80 40 00
        <X 97 0
          /wVnaW0tIw==
        >
        E 0 90 40 60
        E 146 80 40 00
        <X 98 0
          /wVtZSM=
        >
        E 0 90 40 60
        E 242 80 40 00
        E 99 80 69 00
        E 0 80 74 00
        E 420 90 69 60
        <X 60 0
          /wVHaW0tIw==
        >
        E 0 90 40 60
        E 104 80 40 00
        <X 91 0
          /wVtZSM=
        >
        E 0 90 40 60
        E 290 80 40 00
        E 115 80 69 00
        E 240 90 69 60
        <X 80 0
          /wVHaW0tIw==
        >
        E 0 90 40 60
        E 104 80 40 00
        <X 91 0
          /wVtZSM=
        >
        E 0 90 40 60
        E 290 80 40 00
        E 95 80 69 00
        E 46986 90 69 60
        <X 98 0
          /wVHaW0tIw==
        >
        E 0 90 40 60
        E 65 80 40 00
        <X 74 0
          /wVtZSM=
        >
        E 0 90 40 60
        E 67 80 40 00
        <X 122 0
          /wVnaW0tIw==
        >
        E 0 90 40 60
        E 119 80 40 00
        <X 85 0
          /wVtZSM=
        >
        E 0 90 40 60
        E 239 80 40 00
        E 91 80 69 00
        E 345 90 69 60
        E 0 90 74 60
        <X 61 0
          /wVHaW0tIw==
        >
        E 0 90 40 60
        E 110 80 40 00
        <X 92 0
          /wVtZSM=
        >
        E 0 90 40 60
        E 260 80 40 00
        E 77 80 69 00
        E 0 80 74 00
        E 353 90 69 60
        <X 82 0
          /wVHaW0tIw==
        >
        E 0 90 40 60
        E 106 80 40 00
        <X 100 0
          /wVtZSM=
        >
        E 0 90 40 60
        E 127 80 40 00
        <X 108 0
          /wVnaW0tIw==
        >
        E 0 90 40 60
        E 162 80 40 00
        <X 91 0
          /wVtZSM=
        >
        E 0 90 40 60
        E 270 80 40 00
        E 34 80 69 00
        E 361 90 69 60
        <X 73 0
          /wVHaW0tIw==
        >
        E 0 90 40 60
        E 121 80 40 00
        <X 90 0
          /wVtZSM=
        >
        E 0 90 40 60
        E 138 80 40 00
        <X 122 0
          /wVnaW0tIw==
        >
        E 0 90 40 60
        E 128 80 40 00
        <X 123 0
          /wVtZSM=
        >
        E 0 90 40 60
        E 280 80 40 00
        E 65 80 69 00
        E 321 90 69 60
        <X 58 0
          /wVHaW0tIw==
        >
        E 0 90 40 60
        E 133 80 40 00
        <X 112 0
          /wVtZSM=
        >
        E 0 90 40 60
        E 277 80 40 00
        E 140 80 69 00
        E 240 90 69 60
        E 0 90 74 60
        <X 83 0
          /wVHaW0tIw==
        >
        E 0 90 40 60
        E 108 80 40 00
        <X 82 0
          /wVtZSM=
        >
        E 0 90 40 60
        E 120 80 40 00
        <X 130 0
          /wVnaW0tIw==
        >
        E 0 90 40 60
        E 130 80 40 00
        <X 103 0
          /wVtZSM=
        >
        E 0 90 40 60
        E 204 80 40 00
        E 120 80 69 00
        E 0 80 74 00
        E 300 90 69 60
        <X 135 0
          /wVHaW0tIw==
        >
        E 0 90 40 60
        E 92 80 40 00
        <X 93 0
          /wVtZSM=
        >
        E 0 90 40 60
        E 117 80 40 00
        <X 120 0
          /wVnaW0tIw==
        >
        E 0 90 40 60
        E 146 80 40 00
        <X 127 0
          /wVtZSM=
        >
        E 0 90 40 60
        E 328 80 40 00
        E 102 80 69 00
        E 240 90 69 60
        <X 68 0
          /wVHaW0tIw==
        >
        E 0 90 40 60
        E 113 80 40 00
        <X 99 0
          /wVtZSM=
        >
        E 0 90 40 60
        E 269 80 40 00
        E 111 80 69 00
        E 241 90 69 60
        <X 110 0
          /wVHaW0tIw==
        >
        E 0 90 40 60
        E 145 80 40 00
        <X 102 0
          /wVtZSM=
        >
        E 0 90 40 60
        E 122 80 40 00
        <X 126 0
          /wVnaW0tIw==
        >
        E 0 90 40 60
        E 118 80 40 00
        <X 95 0
          /wVtZSM=
        >
        E 0 90 40 60
        E 224 80 40 00
        E 97 80 69 00
        E 360 90 69 60
        E 0 90 74 60
        <X 54 0
          /wVHaW0tIw==
        >
        E 0 90 40 60
        E 131 80 40 00
        <X 97 0
          /wVtZSM=
        >
        E 0 90 40 60
        E 121 80 40 00
        <X 99 0
          /wVnaW0tIw==
        >
        E 0 90 40 60
        E 147 80 40 00
        <X 95 0
          /wVtZSM=
        >
        E 0 90 40 60
        E 232 80 40 00
        E 104 80 69 00
        E 0 80 74 00
        E 474 90 69 60
        <X 60 0
          /wVHaW0tIw==
        >
        E 0 90 40 60
        E 104 80 40 00
        <X 91 0
          /wVtZSM=
        >
        E 0 90 40 60
        E 290 80 40 00
        E 115 80 69 00
        E 240 90 69 60
        <X 80 0
          /wVHaW0tIw==
        >
        E 0 90 40 60
        E 104 80 40 00
        <X 91 0
          /wVtZSM=
        >
        E 0 90 40 60
        E 290 80 40 00
        E 95 80 69 00
        E 711 90 69 60
        <X 98 0
          /wVHaW0tIw==
        >
        E 0 90 40 60
        E 96 80 40 00
        <X 100 0
          /wVtZSM=
        >
        E 0 90 40 60
        E 123 80 40 00
        <X 111 0
          /wVnaW0tIw==
        >
        E 0 90 40 60
        E 134 80 40 00
        <X 83 0
          /wVtZSM=
        >
        E 0 90 40 60
        E 239 80 40 00
        E 83 80 69 00
        E 349 90 69 60
        E 0 90 74 60
        <X 69 0
          /wVHaW0tIw==
        >
        E 0 90 40 60
        E 116 80 40 00
        <X 94 0
          /wVtZSM=
        >
        E 0 90 40 60
        E 244 80 40 00
        E 77 80 69 00
        E 0 80 74 00
        E 353 90 69 60
        <X 96 0
          /wVHaW0tIw==
        >
        E 0 90 40 60
        E 113 80 40 00
        <X 104 0
          /wVtZSM=
        >
        E 0 90 40 60
        E 121 80 40 00
        <X 97 0
          /wVnaW0tIw==
        >
        E 0 90 40 60
        E 170 80 40 00
        <X 89 0
          /wVtZSM=
        >
        E 0 90 40 60
        E 244 80 40 00
        E 46 80 69 00
        E 361 90 69 60
        <X 81 0
          /wVHaW0tIw==
        >
        E 0 90 40 60
        E 135 80 40 00
        <X 96 0
          /wVtZSM=
        >
        E 0 90 40 60
        E 122 80 40 00
        <X 110 0
          /wVnaW0tIw==
        >
        E 0 90 40 60
        E 152 80 40 00
        <X 99 0
          /wVtZSM=
        >
        E 0 90 40 60
        E 290 80 40 00
        E 55 80 69 00
        E 321 90 69 60
        <X 71 0
          /wVHaW0tIw==
        >
        E 0 90 40 60
        E 149 80 40 00
        <X 90 0
          /wVtZSM=
        >
        E 0 90 40 60
        E 302 80 40 00
        E 108 80 69 00
        E 240 90 69 60
        E 0 90 74 60
        <X 87 0
          /wVHaW0tIw==
        >
        E 0 90 40 60
        E 128 80 40 00
        <X 104 0
          /wVtZSM=
        >
        E 0 90 40 60
        E 107 80 40 00
        <X 129 0
          /wVnaW0tIw==
        >
        E 0 90 40 60
        E 130 80 40 00
        <X 92 0
          /wVtZSM=
        >
        E 0 90 40 60
        E 211 80 40 00
        E 92 80 69 00
        E 0 80 74 00
        E 300 90 69 60
        <X 130 0
          /wVHaW0tIw==
        >
        E 0 90 40 60
        E 123 80 40 00
        <X 90 0
          /wVtZSM=
        >
        E 0 90 40 60
        E 117 80 40 00
        <X 119 0
          /wVnaW0tIw==
        >
        E 0 90 40 60
        E 142 80 40 00
        <X 114 0
          /wVtZSM=
        >
        E 0 90 40 60
        E 357 80 40 00
        E 68 80 69 00
        E 240 90 69 60
        <X 76 0
          /wVHaW0tIw==
        >
        E 0 90 40 60
        E 119 80 40 00
        <X 111 0
          /wVtZSM=
        >
        E 0 90 40 60
        E 263 80 40 00
        E 91 80 69 00
        E 241 90 69 60
        <X 132 0
          /wVHaW0tIw==
        >
        E 0 90 40 60
        E 145 80 40 00
        <X 89 0
          /wVtZSM=
        >
        E 0 90 40 60
        E 127 80 40 00
        <X 126 0
          /wVnaW0tIw==
        >
        E 0 90 40 60
        E 120 80 40 00
        <X 94 0
          /wVtZSM=
        >
        E 0 90 40 60
        E 242 80 40 00
        E 64 80 69 00
        E 360 90 69 60
        <X 92 0
          /wVHaW0tIw==
        >
        E 0 90 40 60
        E 132 80 40 00
        <X 101 0
          /wVtZSM=
        >
        E 0 90 40 60
        E 115 80 40 00
        <X 101 0
          /wVnaW0tIw==
        >
        E 0 90 40 60
        E 137 80 40 00
        <X 102 0
          /wVtZSM=
        >
        E 0 90 40 60
        E 232 80 40 00
        E 68 80 69 00
        E 468 90 69 60
        <X 60 0
          /wVHaW0tIw==
        >
        E 0 90 40 60
        E 104 80 40 00
        <X 91 0
          /wVtZSM=
        >
        E 0 90 40 60
        E 290 80 40 00
        E 115 80 69 00
        E 240 90 69 60
        <X 80 0
          /wVHaW0tIw==
        >
        E 0 90 40 60
        E 104 80 40 00
        <X 91 0
          /wVtZSM=
        >
        E 0 90 40 60
        E 290 80 40 00
        E 95 80 69 00
        E 19563 b0 7b 00
        GUID {E53B89F8-ECC8-4A25-86E2-BC4D240C9444}
        IGNTEMPO 0 120.00000000 4 4
        SRCCOLOR 1259
        VELLANE 132 128 60
        COLORMAP "C:\Users\me\AppData\Roaming\REAPER\Data\color_maps\rockband_vox-other.png"
        TEXTSTRINGFILE "C:\Program Files\REAPER\Data\Text_Strings\Text Events List.txt"
        CFGEDITVIEW 97250.036694 110.633957 0 12 0 0 0
        CFGEDIT 1 1 0 1 1 1 1 1 1 1 1 0.06250000 -8 -8 1374 736 1 2 1 2 0.00000000 0 0 0 0 0.500000 1 0 1.000000 64
        KEYSNAP 0 0 "102034050607" 0 "Major"
        EVTFILTER 0 -1 -1 -1 -1 0 1 0 0 -1.00000000 -1.00000000
      >
    >
  >
  <TRACK '{58A7B9C6-1373-47A1-A41A-295306551BF7}'
    NAME "DRYVOX2"
    PEAKCOL 16576
    BEAT -1
    AUTOMODE 0
    VOLPAN 1.00000000000000 0.00000000000000 -1.00000000000000 -1.00000000000000 1.00000000000000
    MUTESOLO 1 0 0
    IPHASE 0
    ISBUS 0 0
    BUSCOMP 0 0
    SHOWINMIX 1 0.666700 0.500000 1 0.500000 -1 -1 -1
    FREEMODE 0
    SEL 0
    REC 0 0 0 0 0 0 0
    TRACKHEIGHT 0 0
    INQ 0 0 0 0.5000000000 100 0 0 100
    NCHAN 2
    FX 1
    TRACKID {58A7B9C6-1373-47A1-A41A-295306551BF7}
    PERF 0
    MIDIOUT -1
    MAINSEND 1 0
    <FXCHAIN
      SHOW 0
      LASTSEL 0
      DOCKED 0
      BYPASS 0 0
      <VST "VST: ReaGate (Cockos)" "reagate.dll" 0 ""
        dGdlcu9e7f4EAAAAAQAAAAAAAAACAAAAAAAAAAQAAAAAAAAACAAAAA==
        AAAAAAIAAAABAAAAAAAAAAIAAAAAAAAAVAAAAAAAAAAAABAA776t3g==
        DfCt3pzRBzOmm8Q7CtejPAAAAAAAAAAAAACAPwAAAAAAAAAAAAAAAA==
        nNEHMx5Ucz+c0QczAACAPwAAAAAAAAAAAAAAACwWCz8AAAAAAAAAAA==
        AAAQAAAA
      >
      FLOATPOS 859 184 511 385
      FXID {BF545B5B-7DD0-4B4C-AC52-F095A552DA08}
      WAK 0
    >
    <ITEM
      POSITION 0.00000000000000
      SNAPOFFS 0.00000000000000
      LENGTH 2.66440560702873
      LOOP 0
      ALLTAKES 0
      SEL 0
      FADEIN 1 0.000000 0.000000 1 0
      FADEOUT 1 0.000000 1.603159 1 1
      MUTE 0
      IGUID {4EF952E1-A613-4420-B4EE-8EC107EA3F19}
      IID 85
      NAME "mvsep_audio.mp3"
      VOLPAN 1.000000 0.000000 1.000000 -1.000000
      SOFFS 11.73229573679519
      PLAYRATE 1.00000000000000 1 0.00000000000000 -1
      CHANMODE 0
      GUID {78399EB7-5B0A-4B68-A509-4EFB8068C0BD}
      <SOURCE MP3
        FILE "mvsep_audio.mp3" 1
      >
    >
    <ITEM
      POSITION 1.06124630110467
      SNAPOFFS 0.00000000000000
      LENGTH 14.51875258751002
      LOOP 0
      ALLTAKES 0
      SEL 0
      FADEIN 1 0.000000 1.603159 1 1
      FADEOUT 1 0.000000 0.112899 1 1
      MUTE 0
      IGUID {313C2EBA-2817-4A3B-A80D-545560DE0471}
      IID 85
      NAME "mvsep_audio.mp3"
      VOLPAN 1.000000 0.000000 1.000000 -1.000000
      SOFFS 11.73229573679519
      PLAYRATE 1.00000000000000 1 0.00000000000000 -1
      CHANMODE 0
      GUID {AEEB421F-B5AF-4506-B01B-8E86A44B6E35}
      <SOURCE MP3
        FILE "mvsep_audio.mp3" 1
      >
    >
    <ITEM
      POSITION 15.46710034588714
      SNAPOFFS 0.00000000000000
      LENGTH 2.66440560702873
      LOOP 0
      ALLTAKES 0
      SEL 0
      FADEIN 1 0.000000 0.112899 1 1
      FADEOUT 1 0.000000 0.000000 1 0
      MUTE 0
      IGUID {8A9A7C4C-CF9A-4467-9F8C-5DC8E35FF07A}
      IID 85
      NAME "mvsep_audio.mp3"
      VOLPAN 1.000000 0.000000 1.000000 -1.000000
      SOFFS 11.73229573679519
      PLAYRATE 1.00000000000000 1 0.00000000000000 -1
      CHANMODE 0
      GUID {ADCFC699-EAF0-488C-B485-7AC57D74D7AA}
      <SOURCE MP3
        FILE "mvsep_audio.mp3" 1
      >
    >
    <ITEM
      POSITION 18.13150595291587
      SNAPOFFS 0.00000000000000
      LENGTH 198.45663198950942
      LOOP 0
      ALLTAKES 0
      SEL 0
      FADEIN 1 0.000000 0.000000 1 0
      FADEOUT 1 0.000000 0.000000 1 0
      MUTE 0
      IGUID {18DD2CD2-3633-4B15-9D5D-12A73B743438}
      IID 85
      NAME "mvsep_audio.mp3"
      VOLPAN 1.000000 0.000000 1.000000 -1.000000
      SOFFS 14.39670134382392
      PLAYRATE 1.00000000000000 1 0.00000000000000 -1
      CHANMODE 0
      GUID {68C2EC1F-FF3D-4A68-B036-6B19EFEF0284}
      <SOURCE MP3
        FILE "mvsep_audio.mp3" 1
      >
    >
  >
  <TRACK '{4299BF31-E988-4C64-900A-97AC9ECE5EBC}'
    NAME "HARM3"
    PEAKCOL 24624127
    BEAT -1
    AUTOMODE 0
    VOLPAN 1.00000000000000 0.00000000000000 -1.00000000000000 -1.00000000000000 1.00000000000000
    MUTESOLO 0 0 0
    IPHASE 0
    ISBUS 0 0
    BUSCOMP 0 0
    SHOWINMIX 1 0.666700 0.500000 1 0.500000 -1 -1 -1
    FREEMODE 0
    SEL 0
    REC 0 0 0 0 0 0 0
    TRACKHEIGHT 0 0
    INQ 0 0 0 0.5000000000 100 0 0 100
    NCHAN 2
    FX 1
    TRACKID {4299BF31-E988-4C64-900A-97AC9ECE5EBC}
    PERF 0
    MIDIOUT -1
    <MIDINOTENAMES
      0 0 "Range Shift"
      0 1 "Lyric Shift"
      0 35 "----"
      0 36 "C1"
      0 37 "C#"
      0 38 "D"
      0 39 "Eb"
      0 40 "E"
      0 41 "F"
      0 42 "F#"
      0 43 "G"
      0 44 "G#"
      0 45 "A"
      0 46 "Bb"
      0 47 "B"
      0 48 "C2"
      0 49 "C#"
      0 50 "D"
      0 51 "Eb"
      0 52 "E"
      0 53 "F"
      0 54 "F#"
      0 55 "G"
      0 56 "G#"
      0 57 "A"
      0 58 "Bb"
      0 59 "B"
      0 60 "C3"
      0 61 "C#"
      0 62 "D"
      0 63 "Eb"
      0 64 "E"
      0 65 "F"
      0 66 "F#"
      0 67 "G"
      0 68 "G#"
      0 69 "A"
      0 70 "Bb"
      0 71 "B"
      0 72 "C4"
      0 73 "C#"
      0 74 "D"
      0 75 "Eb"
      0 76 "E"
      0 77 "F"
      0 78 "F#"
      0 79 "G"
      0 80 "G#"
      0 81 "A"
      0 82 "Bb"
      0 83 "B"
      0 84 "C5"
      0 116 "OVERDRIVE"
      0 115 "----"
      0 105 "Phrase Marker"
      0 104 "----"
      0 97 "Not Displayed Percussion"
      0 96 "Displayed Percussion"
      0 95 "----"
    >
    MAINSEND 1 0
    <FXCHAIN
      WNDRECT 0 42 716 493
      SHOW 0
      LASTSEL 1
      DOCKED 0
      BYPASS 0 0
      <JS "IX/MIDI_Tool II" ""
        0.000000 85.000000 127.000000 0.000000 0.000000 0.000000 100.000000 0.000000 0.000000 127.000000 0.000000 0.000000 1.000000 0.000000 0.000000 - - - - - - - - - - - - - - - - - - - - - - - - - - - - - - - - - - - - - - - - - - - - - - - - - 
      >
      FLOATPOS 0 0 0 0
      FXID {3D33E2FB-5DDE-4F81-B16F-BCB1EAD8D4FA}
      WAK 0
      BYPASS 0 0
      <VST "VSTi: ReaSynth (Cockos)" "reasynth.dll" 0 ""
        eXNlcu9e7f4AAAAAAgAAAAEAAAAAAAAAAgAAAAAAAAA4AAAAAAAAAA==
        AAAAAO++rd4N8K3eppvEOxe30ToAAAAAAAAAAAAAAACa9Q8/6WeIPQ==
        AAAAAAAAAD8AAIA/AAAAAAAAAD8AAAAAAAA=
      >
      FLOATPOS 0 0 0 0
      FXID {98E235B6-3365-4F58-AC74-F5BD513BFA85}
      WAK 0
    >
    <ITEM
      POSITION 0.00000000000000
      SNAPOFFS 0.00000000000000
      LENGTH 216.49546995126440
      LOOP 0
      ALLTAKES 0
      SEL 0
      FADEIN 1 0.000000 0.000000 1 0
      FADEOUT 1 0.000000 0.000000 1 0
      MUTE 0
      IGUID {14DAFADF-64E7-40FA-8E65-65BBB77CBDB7}
      IID 13
      NAME "HARM3 untitled MIDI item"
      VOLPAN 1.000000 0.000000 1.000000 -1.000000
      SOFFS 0.00000000000000 0.00000000000000
      PLAYRATE 1.00000000000000 1 0.00000000000000 -1
      CHANMODE 0
      GUID {BA30FF02-694D-4D9D-9D54-87AECA42C3BA}
      <SOURCE MIDI
        HASDATA 1 480 QN
        POOLEDEVTS {3409DF02-0808-40B4-97C9-5D347C5C36CE}
        <X 0 0
          /wNIQVJNMw==
        >
        E 3720 90 69 5b
        E 1680 80 69 00
        E 660 90 69 5b
        E 1680 80 69 00
        E 300 90 69 5b
        E 1920 80 69 00
        E 900 90 69 5b
        E 0 90 74 5b
        E 2340 80 69 00
        E 0 80 74 00
        E 360 90 69 5b
        E 1680 80 69 00
        E 15240 90 69 5b
        E 3540 80 69 00
        E 480 90 69 5b
        E 3840 80 69 00
        E 60 90 69 5b
        E 0 90 74 5b
        <X 2441 0
          /wVPb2g=
        >
        E 0 90 3f 60
        E 373 80 3f 00
        <X 152 0
          /wUr
        >
        E 0 90 3e 60
        E 391 80 3e 00
        <X 117 0
          /wUr
        >
        E 0 90 3d 60
        E 362 80 3d 00
        E 24 80 69 00
        E 0 80 74 00
        E 98 90 69 5b
        <X 2582 0
          /wVCdXQ=
        >
        E 0 90 36 60
        E 100 80 36 00
        <X 152 0
          /wV5b3U=
        >
        E 0 90 36 60
        E 168 80 69 00
        E 120 90 69 5b
        E 27 80 36 00
        E 3273 80 69 00
        E 60 90 69 5b
        E 1500 80 69 00
        E 180 90 69 5b
        E 0 90 74 5b
        E 1620 80 69 00
        E 0 80 74 00
        E 1080 90 69 5b
        E 3417 80 69 00
        E 22 90 69 5b
        E 1312 80 69 00
        E 229 90 69 5b
        E 1049 80 69 00
        E 60 90 69 5b
        <X 26 0
          /wVGZWVscw==
        >
        E 0 90 38 60
        E 154 80 38 00
        <X 63 0
          /wVsaWtl
        >
        E 0 90 38 60
        E 135 80 38 00
        <X 72 0
          /wV0aGU=
        >
        E 0 90 39 60
        E 130 80 39 00
        <X 155 0
          /wVjcm93ZA==
        >
        E 0 90 38 60
        E 152 80 38 00
        <X 56 0
          /wVpcw==
        >
        E 0 90 38 60
        E 82 80 38 00
        <X 148 0
          /wVzYXkt
        >
        E 0 90 36 60
        E 209 80 36 00
        <X 47 0
          /wVpbmc=
        >
        E 0 90 36 60
        E 148 80 36 00
        E 13 80 69 00
        E 57 90 69 60
        E 0 90 74 60
        <X 39 0
          /wVHaW0tIw==
        >
        E 0 90 36 60
        E 175 80 36 00
        <X 60 0
          /wVtZSM=
        >
        E 0 90 36 60
        E 163 80 36 00
        <X 114 0
          /wVnaW0tIw==
        >
        E 0 90 36 60
        E 112 80 36 00
        <X 77 0
          /wVtZSM=
        >
        E 0 90 36 60
        E 267 80 36 00
        E 137 80 69 00
        E 0 80 74 00
        E 240 90 69 60
        <X 100 0
          /wVHaW0tIw==
        >
        E 0 90 36 60
        E 127 80 36 00
        <X 89 0
          /wVtZSM=
        >
        E 0 90 36 60
        E 247 80 36 00
        E 97 80 69 00
        E 300 90 69 60
        <X 118 0
          /wVHaW0tIw==
        >
        E 0 90 36 60
        E 105 80 36 00
        <X 62 0
          /wVtZSM=
        >
        E 0 90 36 60
        E 175 80 36 00
        <X 123 0
          /wVnaW0tIw==
        >
        E 0 90 36 60
        E 140 80 36 00
        <X 100 0
          /wVtZSM=
        >
        E 0 90 36 60
        E 251 80 36 00
        E 126 80 69 00
        E 240 90 69 60
        <X 105 0
          /wVHaW0tIw==
        >
        E 0 90 36 60
        E 126 80 36 00
        <X 67 0
          /wVtZSM=
        >
        E 0 90 36 60
        E 148 80 36 00
        <X 124 0
          /wVnaW0tIw==
        >
        E 0 90 36 60
        E 138 80 36 00
        <X 88 0
          /wVtZSM=
        >
        E 0 90 36 60
        E 317 80 36 00
        E 87 80 69 00
        E 240 90 69 60
        E 0 90 74 60
        <X 108 0
          /wVHaW0tIw==
        >
        E 0 90 36 60
        E 149 80 36 00
        <X 86 0
          /wVtZSM=
        >
        E 0 90 36 60
        E 303 80 36 00
        E 134 80 69 00
        E 0 80 74 00
        E 180 90 69 60
        <X 140 0
          /wVHaW0tIw==
        >
        E 0 90 36 60
        E 120 80 36 00
        <X 82 0
          /wVtZSM=
        >
        E 0 90 36 60
        E 115 80 36 00
        <X 153 0
          /wVnaW0tIw==
        >
        E 0 90 36 60
        E 123 80 36 00
        <X 82 0
          /wVtZSM=
        >
        E 0 90 36 60
        E 204 80 36 00
        E 121 80 69 00
        E 240 90 69 60
        <X 137 0
          /wVHaW0tIw==
        >
        E 0 90 36 60
        E 156 80 36 00
        <X 79 0
          /wVtZSM=
        >
        E 0 90 36 60
        E 137 80 36 00
        <X 93 0
          /wVnaW0tIw==
        >
        E 0 90 36 60
        E 170 80 36 00
        <X 94 0
          /wVtZSM=
        >
        E 0 90 36 60
        E 389 80 36 00
        E 65 80 69 00
        E 180 90 69 60
        <X 134 0
          /wVHaW0tIw==
        >
        E 0 90 36 60
        E 104 80 36 00
        <X 91 0
          /wVtZSM=
        >
        E 0 90 36 60
        E 290 80 36 00
        E 101 80 69 00
        E 240 90 69 60
        E 0 90 74 60
        <X 103 0
          /wVHaW0tIw==
        >
        E 0 90 36 60
        E 167 80 36 00
        <X 85 0
          /wVtZSM=
        >
        E 0 90 36 60
        E 141 80 36 00
        <X 102 0
          /wVnaW0tIw==
        >
        E 0 90 36 60
        E 137 80 36 00
        <X 77 0
          /wVtZSM=
        >
        E 0 90 36 60
        E 239 80 36 00
        E 149 80 69 00
        E 0 80 74 00
        E 300 90 69 60
        <X 97 0
          /wVHaW0tIw==
        >
        E 0 90 36 60
        E 111 80 36 00
        <X 61 0
          /wVtZSM=
        >
        E 0 90 36 60
        E 145 80 36 00
        <X 81 0
          /wVnaW0tIw==
        >
        E 0 90 36 60
        E 163 80 36 00
        <X 91 0
          /wVtZSM=
        >
        E 0 90 36 60
        E 242 80 36 00
        E 149 80 69 00
        E 420 90 69 60
        <X 59 0
          /wVHaW0tIw==
        >
        E 0 90 36 60
        E 104 80 36 00
        <X 91 0
          /wVtZSM=
        >
        E 0 90 36 60
        E 290 80 36 00
        E 116 80 69 00
        E 180 90 69 60
        <X 139 0
          /wVHaW0tIw==
        >
        E 0 90 36 60
        E 104 80 36 00
        <X 91 0
          /wVtZSM=
        >
        E 0 90 36 60
        E 290 80 36 00
        E 66 80 69 00
        E 1350 90 69 60
        E 0 90 74 60
        E 3240 80 69 00
        E 0 80 74 00
        E 840 90 69 60
        E 3540 80 69 00
        E 120 90 69 60
        E 2820 80 69 00
        E 120 90 69 60
        E 1920 80 69 00
        E 60 90 69 60
        E 0 90 74 60
        E 2085 80 69 00
        E 0 80 74 00
        E 92 90 69 5b
        E 3183 80 69 00
        E 68 90 69 5b
        E 1358 80 69 00
        E 294 90 69 5b
        E 2107 80 69 00
        E 527 90 69 5b
        E 0 90 74 5b
        E 3417 80 69 00
        E 0 80 74 00
        E 22 90 69 5b
        E 1312 80 69 00
        E 229 90 69 5b
        E 1063 80 69 00
        E 52 90 69 60
        <X 38 0
          /wVGZWVscw==
        >
        E 0 90 38 60
        E 154 80 38 00
        <X 63 0
          /wVsaWtl
        >
        E 0 90 38 60
        E 135 80 38 00
        <X 72 0
          /wV0aGU=
        >
        E 0 90 39 60
        E 130 80 39 00
        <X 155 0
          /wVjcm93ZA==
        >
        E 0 90 38 60
        E 152 80 38 00
        <X 56 0
          /wVpcw==
        >
        E 0 90 38 60
        E 82 80 38 00
        <X 148 0
          /wVzYXkt
        >
        E 0 90 36 60
        E 209 80 36 00
        <X 47 0
          /wVpbmc=
        >
        E 0 90 36 60
        E 148 80 36 00
        E 61 80 69 00
        E 121 90 69 60
        <X 78 0
          /wVHaW0tIw==
        >
        E 0 90 36 60
        E 75 80 36 00
        <X 34 0
          /wVtZSM=
        >
        E 0 90 36 60
        E 102 80 36 00
        <X 82 0
          /wVnaW0tIw==
        >
        E 0 90 36 60
        E 157 80 36 00
        <X 87 0
          /wVtZSM=
        >
        E 0 90 36 60
        E 262 80 36 00
        E 83 80 69 00
        E 360 90 69 60
        E 0 90 74 60
        <X 60 0
          /wVHaW0tIw==
        >
        E 0 90 36 60
        E 91 80 36 00
        <X 98 0
          /wVtZSM=
        >
        E 0 90 36 60
        E 258 80 36 00
        E 93 80 69 00
        E 0 80 74 00
        E 360 90 69 60
        <X 81 0
          /wVHaW0tIw==
        >
        E 0 90 36 60
        E 82 80 36 00
        <X 91 0
          /wVtZSM=
        >
        E 0 90 36 60
        E 137 80 36 00
        <X 137 0
          /wVnaW0tIw==
        >
        E 0 90 36 60
        E 130 80 36 00
        <X 107 0
          /wVtZSM=
        >
        E 0 90 36 60
        E 251 80 36 00
        E 64 80 69 00
        E 360 90 69 60
        <X 72 0
          /wVHaW0tIw==
        >
        E 0 90 36 60
        E 104 80 36 00
        <X 93 0
          /wVtZSM=
        >
        E 0 90 36 60
        E 119 80 36 00
        <X 144 0
          /wVnaW0tIw==
        >
        E 0 90 36 60
        E 121 80 36 00
        <X 89 0
          /wVtZSM=
        >
        E 0 90 36 60
        E 298 80 36 00
        E 100 80 69 00
        E 300 90 69 60
        <X 57 0
          /wVHaW0tIw==
        >
        E 0 90 36 60
        E 133 80 36 00
        <X 112 0
          /wVtZSM=
        >
        E 0 90 36 60
        E 277 80 36 00
        E 141 80 69 00
        E 240 90 69 60
        E 0 90 74 60
        <X 93 0
          /wVHaW0tIw==
        >
        E 0 90 36 60
        E 97 80 36 00
        <X 82 0
          /wVtZSM=
        >
        E 0 90 36 60
        E 107 80 36 00
        <X 143 0
          /wVnaW0tIw==
        >
        E 0 90 36 60
        E 130 80 36 00
        <X 103 0
          /wVtZSM=
        >
        E 0 90 36 60
        E 204 80 36 00
        E 121 80 69 00
        E 0 80 74 00
        E 300 90 69 60
        <X 134 0
          /wVHaW0tIw==
        >
        E 0 90 36 60
        E 87 80 36 00
        <X 98 0
          /wVtZSM=
        >
        E 0 90 36 60
        E 110 80 36 00
        <X 135 0
          /wVnaW0tIw==
        >
        E 0 90 36 60
        E 134 80 36 00
        <X 131 0
          /wVtZSM=
        >
        E 0 90 36 60
        E 328 80 36 00
        E 103 80 69 00
        E 240 90 69 60
        <X 67 0
          /wVHaW0tIw==
        >
        E 0 90 36 60
        E 100 80 36 00
        <X 102 0
          /wVtZSM=
        >
        E 0 90 36 60
        E 263 80 36 00
        E 128 80 69 00
        E 240 90 69 60
        <X 110 0
          /wVHaW0tIw==
        >
        E 0 90 36 60
        E 137 80 36 00
        <X 87 0
          /wVtZSM=
        >
        E 0 90 36 60
        E 141 80 36 00
        <X 130 0
          /wVnaW0tIw==
        >
        E 0 90 36 60
        E 106 80 36 00
        <X 96 0
          /wVtZSM=
        >
        E 0 90 36 60
        E 229 80 36 00
        E 104 80 69 00
        E 360 90 69 60
        E 0 90 74 60
        <X 70 0
          /wVHaW0tIw==
        >
        E 0 90 36 60
        E 111 80 36 00
        <X 101 0
          /wVtZSM=
        >
        E 0 90 36 60
        E 116 80 36 00
        <X 97 0
          /wVnaW0tIw==
        >
        E 0 90 36 60
        E 146 80 36 00
        <X 98 0
          /wVtZSM=
        >
        E 0 90 36 60
        E 242 80 36 00
        E 99 80 69 00
        E 0 80 74 00
        E 420 90 69 60
        <X 60 0
          /wVHaW0tIw==
        >
        E 0 90 36 60
        E 104 80 36 00
        <X 91 0
          /wVtZSM=
        >
        E 0 90 36 60
        E 290 80 36 00
        E 115 80 69 00
        E 240 90 69 60
        <X 80 0
          /wVHaW0tIw==
        >
        E 0 90 36 60
        E 104 80 36 00
        <X 91 0
          /wVtZSM=
        >
        E 0 90 36 60
        E 290 80 36 00
        E 95 80 69 00
        E 46986 90 69 60
        <X 98 0
          /wVHaW0tIw==
        >
        E 0 90 37 60
        E 65 80 37 00
        <X 74 0
          /wVtZSM=
        >
        E 0 90 37 60
        E 67 80 37 00
        <X 122 0
          /wVnaW0tIw==
        >
        E 0 90 37 60
        E 119 80 37 00
        <X 85 0
          /wVtZSM=
        >
        E 0 90 37 60
        E 239 80 37 00
        E 91 80 69 00
        E 345 90 69 60
        E 0 90 74 60
        <X 61 0
          /wVHaW0tIw==
        >
        E 0 90 37 60
        E 110 80 37 00
        <X 92 0
          /wVtZSM=
        >
        E 0 90 37 60
        E 260 80 37 00
        E 77 80 69 00
        E 0 80 74 00
        E 353 90 69 60
        <X 82 0
          /wVHaW0tIw==
        >
        E 0 90 37 60
        E 106 80 37 00
        <X 100 0
          /wVtZSM=
        >
        E 0 90 37 60
        E 127 80 37 00
        <X 108 0
          /wVnaW0tIw==
        >
        E 0 90 37 60
        E 162 80 37 00
        <X 91 0
          /wVtZSM=
        >
        E 0 90 37 60
        E 270 80 37 00
        E 34 80 69 00
        E 361 90 69 60
        <X 73 0
          /wVHaW0tIw==
        >
        E 0 90 37 60
        E 121 80 37 00
        <X 90 0
          /wVtZSM=
        >
        E 0 90 37 60
        E 138 80 37 00
        <X 122 0
          /wVnaW0tIw==
        >
        E 0 90 37 60
        E 128 80 37 00
        <X 123 0
          /wVtZSM=
        >
        E 0 90 37 60
        E 280 80 37 00
        E 65 80 69 00
        E 321 90 69 60
        <X 58 0
          /wVHaW0tIw==
        >
        E 0 90 37 60
        E 133 80 37 00
        <X 112 0
          /wVtZSM=
        >
        E 0 90 37 60
        E 277 80 37 00
        E 140 80 69 00
        E 240 90 69 60
        E 0 90 74 60
        <X 83 0
          /wVHaW0tIw==
        >
        E 0 90 37 60
        E 108 80 37 00
        <X 82 0
          /wVtZSM=
        >
        E 0 90 37 60
        E 120 80 37 00
        <X 130 0
          /wVnaW0tIw==
        >
        E 0 90 37 60
        E 130 80 37 00
        <X 103 0
          /wVtZSM=
        >
        E 0 90 37 60
        E 204 80 37 00
        E 120 80 69 00
        E 0 80 74 00
        E 300 90 69 60
        <X 135 0
          /wVHaW0tIw==
        >
        E 0 90 37 60
        E 92 80 37 00
        <X 93 0
          /wVtZSM=
        >
        E 0 90 37 60
        E 117 80 37 00
        <X 120 0
          /wVnaW0tIw==
        >
        E 0 90 37 60
        E 146 80 37 00
        <X 127 0
          /wVtZSM=
        >
        E 0 90 37 60
        E 328 80 37 00
        E 102 80 69 00
        E 240 90 69 60
        <X 68 0
          /wVHaW0tIw==
        >
        E 0 90 37 60
        E 113 80 37 00
        <X 99 0
          /wVtZSM=
        >
        E 0 90 37 60
        E 269 80 37 00
        E 111 80 69 00
        E 241 90 69 60
        <X 110 0
          /wVHaW0tIw==
        >
        E 0 90 37 60
        E 145 80 37 00
        <X 102 0
          /wVtZSM=
        >
        E 0 90 37 60
        E 122 80 37 00
        <X 126 0
          /wVnaW0tIw==
        >
        E 0 90 37 60
        E 118 80 37 00
        <X 95 0
          /wVtZSM=
        >
        E 0 90 37 60
        E 224 80 37 00
        E 97 80 69 00
        E 360 90 69 60
        E 0 90 74 60
        <X 54 0
          /wVHaW0tIw==
        >
        E 0 90 37 60
        E 131 80 37 00
        <X 97 0
          /wVtZSM=
        >
        E 0 90 37 60
        E 121 80 37 00
        <X 99 0
          /wVnaW0tIw==
        >
        E 0 90 37 60
        E 147 80 37 00
        <X 95 0
          /wVtZSM=
        >
        E 0 90 37 60
        E 232 80 37 00
        E 104 80 69 00
        E 0 80 74 00
        E 474 90 69 60
        <X 60 0
          /wVHaW0tIw==
        >
        E 0 90 37 60
        E 104 80 37 00
        <X 91 0
          /wVtZSM=
        >
        E 0 90 37 60
        E 290 80 37 00
        E 115 80 69 00
        E 240 90 69 60
        <X 80 0
          /wVHaW0tIw==
        >
        E 0 90 37 60
        E 104 80 37 00
        <X 91 0
          /wVtZSM=
        >
        E 0 90 37 60
        E 290 80 37 00
        E 95 80 69 00
        E 711 90 69 60
        <X 98 0
          /wVHaW0tIw==
        >
        E 0 90 37 60
        E 96 80 37 00
        <X 100 0
          /wVtZSM=
        >
        E 0 90 37 60
        E 123 80 37 00
        <X 111 0
          /wVnaW0tIw==
        >
        E 0 90 37 60
        E 134 80 37 00
        <X 83 0
          /wVtZSM=
        >
        E 0 90 37 60
        E 239 80 37 00
        E 83 80 69 00
        E 349 90 69 60
        E 0 90 74 60
        <X 69 0
          /wVHaW0tIw==
        >
        E 0 90 37 60
        E 116 80 37 00
        <X 94 0
          /wVtZSM=
        >
        E 0 90 37 60
        E 244 80 37 00
        E 77 80 69 00
        E 0 80 74 00
        E 353 90 69 60
        <X 96 0
          /wVHaW0tIw==
        >
        E 0 90 37 60
        E 113 80 37 00
        <X 104 0
          /wVtZSM=
        >
        E 0 90 37 60
        E 121 80 37 00
        <X 97 0
          /wVnaW0tIw==
        >
        E 0 90 37 60
        E 170 80 37 00
        <X 89 0
          /wVtZSM=
        >
        E 0 90 37 60
        E 244 80 37 00
        E 46 80 69 00
        E 361 90 69 60
        <X 81 0
          /wVHaW0tIw==
        >
        E 0 90 37 60
        E 135 80 37 00
        <X 96 0
          /wVtZSM=
        >
        E 0 90 37 60
        E 122 80 37 00
        <X 110 0
          /wVnaW0tIw==
        >
        E 0 90 37 60
        E 152 80 37 00
        <X 99 0
          /wVtZSM=
        >
        E 0 90 37 60
        E 290 80 37 00
        E 55 80 69 00
        E 321 90 69 60
        <X 71 0
          /wVHaW0tIw==
        >
        E 0 90 37 60
        E 149 80 37 00
        <X 90 0
          /wVtZSM=
        >
        E 0 90 37 60
        E 302 80 37 00
        E 108 80 69 00
        E 240 90 69 60
        E 0 90 74 60
        <X 87 0
          /wVHaW0tIw==
        >
        E 0 90 37 60
        E 128 80 37 00
        <X 104 0
          /wVtZSM=
        >
        E 0 90 37 60
        E 107 80 37 00
        <X 129 0
          /wVnaW0tIw==
        >
        E 0 90 37 60
        E 130 80 37 00
        <X 92 0
          /wVtZSM=
        >
        E 0 90 37 60
        E 211 80 37 00
        E 92 80 69 00
        E 0 80 74 00
        E 300 90 69 60
        <X 130 0
          /wVHaW0tIw==
        >
        E 0 90 37 60
        E 123 80 37 00
        <X 90 0
          /wVtZSM=
        >
        E 0 90 37 60
        E 117 80 37 00
        <X 119 0
          /wVnaW0tIw==
        >
        E 0 90 37 60
        E 142 80 37 00
        <X 114 0
          /wVtZSM=
        >
        E 0 90 37 60
        E 357 80 37 00
        E 68 80 69 00
        E 240 90 69 60
        <X 76 0
          /wVHaW0tIw==
        >
        E 0 90 37 60
        E 119 80 37 00
        <X 111 0
          /wVtZSM=
        >
        E 0 90 37 60
        E 263 80 37 00
        E 91 80 69 00
        E 241 90 69 60
        <X 132 0
          /wVHaW0tIw==
        >
        E 0 90 37 60
        E 145 80 37 00
        <X 89 0
          /wVtZSM=
        >
        E 0 90 37 60
        E 127 80 37 00
        <X 126 0
          /wVnaW0tIw==
        >
        E 0 90 37 60
        E 120 80 37 00
        <X 94 0
          /wVtZSM=
        >
        E 0 90 37 60
        E 242 80 37 00
        E 64 80 69 00
        E 360 90 69 60
        <X 92 0
          /wVHaW0tIw==
        >
        E 0 90 37 60
        E 132 80 37 00
        <X 101 0
          /wVtZSM=
        >
        E 0 90 37 60
        E 115 80 37 00
        <X 101 0
          /wVnaW0tIw==
        >
        E 0 90 37 60
        E 137 80 37 00
        <X 102 0
          /wVtZSM=
        >
        E 0 90 37 60
        E 232 80 37 00
        E 68 80 69 00
        E 468 90 69 60
        <X 60 0
          /wVHaW0tIw==
        >
        E 0 90 37 60
        E 104 80 37 00
        <X 91 0
          /wVtZSM=
        >
        E 0 90 37 60
        E 290 80 37 00
        E 115 80 69 00
        E 240 90 69 60
        <X 80 0
          /wVHaW0tIw==
        >
        E 0 90 37 60
        E 104 80 37 00
        <X 91 0
          /wVtZSM=
        >
        E 0 90 37 60
        E 290 80 37 00
        E 95 80 69 00
        E 19563 b0 7b 00
        GUID {F1082209-E2A8-4526-8AA6-2FE8F2DEB335}
        IGNTEMPO 0 120.00000000 4 4
        SRCCOLOR 1260
        VELLANE 132 128 60
        COLORMAP "C:\Users\me\AppData\Roaming\REAPER\Data\color_maps\rockband_vox-other.png"
        TEXTSTRINGFILE "C:\Program Files\REAPER\Data\Text_Strings\Text Events List.txt"
        CFGEDITVIEW 97250.036694 110.633957 0 12 0 0 0
        CFGEDIT 1 1 0 1 1 1 1 1 1 1 1 0.06250000 -8 -8 1374 736 1 2 1 2 0.00000000 0 0 0 0 0.500000 1 0 1.000000 64
        KEYSNAP 0 0 "102034050607" 0 "Major"
        EVTFILTER 0 -1 -1 -1 -1 0 1 0 0 -1.00000000 -1.00000000
      >
    >
  >
  <TRACK '{AB3E8FDC-23A9-4945-BA6C-055C630028D0}'
    NAME "DRYVOX3"
    PEAKCOL 16576
    BEAT -1
    AUTOMODE 0
    VOLPAN 1.00000000000000 0.00000000000000 -1.00000000000000 -1.00000000000000 1.00000000000000
    MUTESOLO 1 0 0
    IPHASE 0
    ISBUS 0 0
    BUSCOMP 0 0
    SHOWINMIX 1 0.666700 0.500000 1 0.500000 -1 -1 -1
    FREEMODE 0
    SEL 0
    REC 0 0 0 0 0 0 0
    TRACKHEIGHT 0 0
    INQ 0 0 0 0.5000000000 100 0 0 100
    NCHAN 2
    FX 1
    TRACKID {AB3E8FDC-23A9-4945-BA6C-055C630028D0}
    PERF 0
    MIDIOUT -1
    MAINSEND 1 0
    <FXCHAIN
      SHOW 0
      LASTSEL 0
      DOCKED 0
      BYPASS 0 0
      <VST "VST: ReaGate (Cockos)" "reagate.dll" 0 ""
        dGdlcu9e7f4EAAAAAQAAAAAAAAACAAAAAAAAAAQAAAAAAAAACAAAAA==
        AAAAAAIAAAABAAAAAAAAAAIAAAAAAAAAVAAAAAAAAAAAABAA776t3g==
        DfCt3pzRBzOmm8Q7CtejPAAAAAAAAAAAAACAPwAAAAAAAAAAAAAAAA==
        nNEHMx5Ucz+c0QczAACAPwAAAAAAAAAAAAAAACwWCz8AAAAAAAAAAA==
        AAAQAAAA
      >
      FLOATPOS 859 184 511 385
      FXID {BF545B5B-7DD0-4B4C-AC52-F095A552DA08}
      WAK 0
    >
    <ITEM
      POSITION 0.00000000000000
      SNAPOFFS 0.00000000000000
      LENGTH 9.75339875023564
      LOOP 0
      ALLTAKES 0
      SEL 0
      FADEIN 1 0.000000 0.000000 1 0
      FADEOUT 1 0.000000 0.243211 1 1
      MUTE 0
      IGUID {89BA0761-F4F4-426D-9D22-E9ECA2447248}
      IID 125
      NAME "mvsep_audio_auda.wav"
      VOLPAN 1.000000 0.000000 1.000000 -1.000000
      SOFFS 12.18659847345361
      PLAYRATE 1.00000000000000 1 0.00000000000000 -1
      CHANMODE 0
      GUID {45B572BF-068D-45EB-80BA-B8A6E9A1A071}
      <SOURCE WAVE
        FILE "mvsep_audio_auda.wav"
      >
    >
    <ITEM
      POSITION 3.28983688003980
      SNAPOFFS 0.00000000000000
      LENGTH 0.68965311739194
      LOOP 0
      ALLTAKES 0
      SEL 0
      FADEIN 1 0.000000 0.000000 1 0
      FADEOUT 1 0.000000 0.020994 1 1
      MUTE 0
      IGUID {E14EA8A6-CA03-4675-85C6-0DE91D4955F5}
      IID 155
      NAME "Recording (14).wav"
      VOLPAN 1.000000 0.000000 1.000000 -1.000000
      SOFFS 1.83464696621106
      PLAYRATE 1.00000000000000 1 0.00000000000000 -1
      CHANMODE 0
      GUID {E9981248-8DEE-4DFA-98EE-D94D97A7FEC6}
      <SOURCE WAVE
        FILE "dryv\Recording (14).wav"
      >
    >
    <ITEM
      POSITION 3.95849620494822
      SNAPOFFS 0.00000000000000
      LENGTH 0.49918573238593
      LOOP 0
      ALLTAKES 0
      SEL 0
      FADEIN 1 0.000000 0.020994 1 1
      FADEOUT 1 0.000000 0.000000 1 0
      MUTE 0
      IGUID {AF8E7EFD-95BD-4079-9663-2C0D2873397B}
      IID 155
      NAME "Recording (14).wav"
      VOLPAN 1.000000 0.000000 1.000000 -1.000000
      SOFFS 2.55928973774220
      PLAYRATE 1.00000000000000 1 0.00000000000000 -1
      CHANMODE 0
      GUID {949E3B79-79A4-479E-AB4D-EE86FFC81229}
      <SOURCE WAVE
        FILE "dryv\Recording (14).wav"
      >
    >
    <ITEM
      POSITION 4.46467986816199
      SNAPOFFS 0.00000000000000
      LENGTH 0.26358872784864
      LOOP 0
      ALLTAKES 0
      SEL 0
      FADEIN 1 0.000000 0.000000 1 0
      FADEOUT 1 0.000000 0.000000 1 0
      MUTE 0
      IGUID {C97CC9A0-D3BA-4153-A29D-AE5658029144}
      IID 155
      NAME "Recording (14).wav"
      VOLPAN 1.000000 0.000000 1.000000 -1.000000
      SOFFS 3.12378949118796
      PLAYRATE 1.00000000000000 1 0.00000000000000 -1
      CHANMODE 0
      GUID {28D2645E-F246-45E1-ABDA-C6E9DB6EBBAA}
      <SOURCE WAVE
        FILE "dryv\Recording (14).wav"
      >
    >
    <ITEM
      POSITION 4.73060123961991
      SNAPOFFS 0.00000000000000
      LENGTH 0.14229126016608
      LOOP 0
      ALLTAKES 0
      SEL 0
      FADEIN 1 0.000000 0.000000 1 0
      FADEOUT 1 0.000000 0.000000 1 0
      MUTE 0
      IGUID {094406AA-6233-4DDF-B9D6-D5CD6B26F36D}
      IID 155
      NAME "Recording (14).wav"
      VOLPAN 1.000000 0.000000 1.000000 -1.000000
      SOFFS 3.42470051678509
      PLAYRATE 1.00000000000000 1 0.00000000000000 -1
      CHANMODE 0
      GUID {10C428FF-A214-4541-B788-2EE1EFF05F09}
      <SOURCE WAVE
        FILE "dryv\Recording (14).wav"
      >
    >
    <ITEM
      POSITION 4.88922100505095
      SNAPOFFS 0.00000000000000
      LENGTH 0.99592553760147
      LOOP 0
      ALLTAKES 0
      SEL 0
      FADEIN 1 0.000000 0.000000 1 0
      FADEOUT 1 0.000000 0.000000 1 0
      MUTE 0
      IGUID {1B9B3CE9-84F7-4266-9E87-00610FDDCA90}
      IID 155
      NAME "Recording (14).wav"
      VOLPAN 1.000000 0.000000 1.000000 -1.000000
      SOFFS 3.61597729274605
      PLAYRATE 1.00000000000000 1 0.00000000000000 -1
      CHANMODE 0
      GUID {75EC3EFE-C1C2-41D5-A489-A62882339EA5}
      <SOURCE WAVE
        FILE "dryv\Recording (14).wav"
      >
    >
    <ITEM
      POSITION 5.91908503608089
      SNAPOFFS 0.00000000000000
      LENGTH 0.60846947537690
      LOOP 0
      ALLTAKES 0
      SEL 0
      FADEIN 1 0.000000 0.000000 1 0
      FADEOUT 1 0.000000 0.563626 1 1
      MUTE 0
      IGUID {5CC45450-E063-4B04-9A70-B8DE8B2D8E16}
      IID 155
      NAME "Recording (14).wav"
      VOLPAN 1.000000 0.000000 1.000000 -1.000000
      SOFFS 4.61190283034752
      PLAYRATE 1.00000000000000 1 0.00000000000000 -1
      CHANMODE 0
      GUID {CE4EA0E2-A492-47E0-816E-3A954061DE82}
      <SOURCE WAVE
        FILE "dryv\Recording (14).wav"
      >
    >
    <ITEM
      POSITION 5.96392888948392
      SNAPOFFS 0.00000000000000
      LENGTH 9.75339875023564
      LOOP 0
      ALLTAKES 0
      SEL 0
      FADEIN 1 0.000000 0.563626 1 1
      FADEOUT 1 0.000000 0.152726 1 1
      MUTE 0
      IGUID {09E3799E-7384-4494-9C28-CF44443092EF}
      IID 125
      NAME "mvsep_audio_auda.wav"
      VOLPAN 1.000000 0.000000 1.000000 -1.000000
      SOFFS 12.18659847345361
      PLAYRATE 1.00000000000000 1 0.00000000000000 -1
      CHANMODE 0
      GUID {ECBA2BFA-2655-47E8-9AF3-74275EA9F406}
      <SOURCE WAVE
        FILE "mvsep_audio_auda.wav"
      >
    >
    <ITEM
      POSITION 6.53165123005093
      SNAPOFFS 0.00000000000000
      LENGTH 0.12657313169751
      LOOP 0
      ALLTAKES 0
      SEL 0
      FADEIN 1 0.000000 0.000000 1 0
      FADEOUT 1 0.000000 0.000000 1 0
      MUTE 0
      IGUID {45553EDD-20B7-4561-9247-F439909FB647}
      IID 155
      NAME "Recording (14).wav"
      VOLPAN 1.000000 0.000000 1.000000 -1.000000
      SOFFS 5.30276424994261
      PLAYRATE 1.00000000000000 1 0.00000000000000 -1
      CHANMODE 0
      GUID {BC71574E-C688-4EA3-94E8-C1615D52C971}
      <SOURCE WAVE
        FILE "dryv\Recording (14).wav"
      >
    >
    <ITEM
      POSITION 6.86002492077562
      SNAPOFFS 0.00000000000000
      LENGTH 0.55883231730600
      LOOP 0
      ALLTAKES 0
      SEL 0
      FADEIN 1 0.000000 0.000000 1 0
      FADEOUT 1 0.000000 0.000000 1 0
      MUTE 0
      IGUID {261B1F29-D0E0-49BD-A7E7-99323FB8B9A7}
      IID 155
      NAME "Recording (14).wav"
      VOLPAN 1.000000 0.000000 1.000000 -1.000000
      SOFFS 5.42933738164013
      PLAYRATE 1.00000000000000 1 0.00000000000000 -1
      CHANMODE 0
      GUID {24558378-1D42-43E1-923B-F5CBBBD58E2B}
      <SOURCE WAVE
        FILE "dryv\Recording (14).wav"
      >
    >
    <ITEM
      POSITION 7.42005132422971
      SNAPOFFS 0.00000000000000
      LENGTH 0.37613713664827
      LOOP 0
      ALLTAKES 0
      SEL 0
      FADEIN 1 0.000000 0.000000 1 0
      FADEOUT 1 0.000000 0.000000 1 0
      MUTE 0
      IGUID {0C46895E-6844-457F-9B79-FF706F2940F7}
      IID 155
      NAME "Recording (14).wav"
      VOLPAN 1.000000 0.000000 1.000000 -1.000000
      SOFFS 6.03712723101781
      PLAYRATE 1.00000000000000 1 0.00000000000000 -1
      CHANMODE 0
      GUID {75C32BDB-0BC3-47CE-8FDC-8408D112D621}
      <SOURCE WAVE
        FILE "dryv\Recording (14).wav"
      >
    >
    <ITEM
      POSITION 8.26922159489772
      SNAPOFFS 0.00000000000000
      LENGTH 0.46604653956008
      LOOP 0
      ALLTAKES 0
      SEL 0
      FADEIN 1 0.000000 0.000000 1 0
      FADEOUT 1 0.000000 0.000000 1 0
      MUTE 0
      IGUID {9B8C7542-2B12-41BC-9C79-CF6878266FBB}
      IID 174
      NAME "Recording (15).wav"
      VOLPAN 1.000000 0.000000 1.000000 -1.000000
      SOFFS 4.60285979133888
      PLAYRATE 1.00000000000000 1 0.00000000000000 -1
      CHANMODE 0
      GUID {D9A5ADF2-2975-4D00-9176-47D85C5F15F1}
      <SOURCE WAVE
        FILE "dryv\Recording (15).wav"
      >
    >
    <ITEM
      POSITION 8.76140939645581
      SNAPOFFS 0.00000000000000
      LENGTH 0.15162183460319
      LOOP 0
      ALLTAKES 0
      SEL 0
      FADEIN 1 0.000000 0.000000 1 0
      FADEOUT 1 0.000000 0.000000 1 0
      MUTE 0
      IGUID {162622FC-DF95-411C-8633-D88263E2EAA5}
      IID 174
      NAME "Recording (15).wav"
      VOLPAN 1.000000 0.000000 1.000000 -1.000000
      SOFFS 5.06890633089896
      PLAYRATE 1.00000000000000 1 0.00000000000000 -1
      CHANMODE 0
      GUID {5202E17C-ED8B-4EE3-A2C4-87E9672E63C0}
      <SOURCE WAVE
        FILE "dryv\Recording (15).wav"
      >
    >
    <ITEM
      POSITION 8.94102295437037
      SNAPOFFS 0.00000000000000
      LENGTH 0.31490688725281
      LOOP 0
      ALLTAKES 0
      SEL 0
      FADEIN 1 0.000000 0.000000 1 0
      FADEOUT 1 0.000000 0.000000 1 0
      MUTE 0
      IGUID {AC1165FA-2DB9-4B1A-8D15-325EABFD7F0A}
      IID 174
      NAME "Recording (15).wav"
      VOLPAN 1.000000 0.000000 1.000000 -1.000000
      SOFFS 5.22052816550215
      PLAYRATE 1.00000000000000 1 0.00000000000000 -1
      CHANMODE 0
      GUID {5F4776A7-3503-40F3-BF7C-93FA2C672249}
      <SOURCE WAVE
        FILE "dryv\Recording (15).wav"
      >
    >
    <ITEM
      POSITION 9.38655788374286
      SNAPOFFS 0.00000000000000
      LENGTH 0.11896482407328
      LOOP 0
      ALLTAKES 0
      SEL 0
      FADEIN 1 0.000000 0.000000 1 0
      FADEOUT 1 0.000000 0.000000 1 0
      MUTE 0
      IGUID {8F29AA2F-DA52-42C5-8F7B-3790EB1A1FEE}
      IID 174
      NAME "Recording (15).wav"
      VOLPAN 1.000000 0.000000 1.000000 -1.000000
      SOFFS 5.53543505275496
      PLAYRATE 1.00000000000000 1 0.00000000000000 -1
      CHANMODE 0
      GUID {07F77103-1C11-4A43-B690-433E61AC270C}
      <SOURCE WAVE
        FILE "dryv\Recording (15).wav"
      >
    >
    <ITEM
      POSITION 9.51018799503470
      SNAPOFFS 0.00000000000000
      LENGTH 0.84095875352023
      LOOP 0
      ALLTAKES 0
      SEL 0
      FADEIN 1 0.000000 0.243211 1 1
      FADEOUT 1 0.000000 0.000000 1 0
      MUTE 0
      IGUID {AE52355B-404B-42E9-96F6-A9FAF3030736}
      IID 174
      NAME "Recording (15).wav"
      VOLPAN 1.000000 0.000000 1.000000 -1.000000
      SOFFS 5.71971389788808
      PLAYRATE 1.00000000000000 1 0.00000000000000 -1
      CHANMODE 0
      GUID {239D362F-B79D-4A46-8C46-269E86A89A64}
      <SOURCE WAVE
        FILE "dryv\Recording (15).wav"
      >
    >
    <ITEM
      POSITION 10.99831624526991
      SNAPOFFS 0.00000000000000
      LENGTH 0.46196180712290
      LOOP 0
      ALLTAKES 0
      SEL 0
      FADEIN 1 0.000000 0.000000 1 0
      FADEOUT 1 0.000000 0.000000 1 0
      MUTE 0
      IGUID {5AAFC89A-FF69-46AD-8111-E04DF7B6ABFB}
      IID 182
      NAME "Recording (16).wav"
      VOLPAN 1.000000 0.000000 1.000000 -1.000000
      SOFFS 2.95599706633550
      PLAYRATE 1.00000000000000 1 0.00000000000000 -1
      CHANMODE 0
      GUID {CABDFD1A-81B8-4139-A755-D596D16F7596}
      <SOURCE WAVE
        FILE "dryv\Recording (16).wav"
      >
    >
    <ITEM
      POSITION 11.55125115315473
      SNAPOFFS 0.00000000000000
      LENGTH 0.08397516993408
      LOOP 0
      ALLTAKES 0
      SEL 0
      FADEIN 1 0.000000 0.000000 1 0
      FADEOUT 1 0.000000 0.000000 1 0
      MUTE 0
      IGUID {6788956E-4B6B-49F7-BCC8-0039A416ED9B}
      IID 182
      NAME "Recording (16).wav"
      VOLPAN 1.000000 0.000000 1.000000 -1.000000
      SOFFS 3.41795887345840
      PLAYRATE 1.00000000000000 1 0.00000000000000 -1
      CHANMODE 0
      GUID {20478283-B5B5-4CD5-AA1B-D4DFDD619B08}
      <SOURCE WAVE
        FILE "dryv\Recording (16).wav"
      >
    >
    <ITEM
      POSITION 11.64222425391665
      SNAPOFFS 0.00000000000000
      LENGTH 0.08164252632480
      LOOP 0
      ALLTAKES 0
      SEL 0
      FADEIN 1 0.000000 0.000000 1 0
      FADEOUT 1 0.000000 0.000000 1 0
      MUTE 0
      IGUID {C3F18ABC-B9F8-4364-BBD6-F74797867C48}
      IID 182
      NAME "Recording (16).wav"
      VOLPAN 1.000000 0.000000 1.000000 -1.000000
      SOFFS 3.54158898475024
      PLAYRATE 1.00000000000000 1 0.00000000000000 -1
      CHANMODE 0
      GUID {A8E52CC4-19C9-4E15-80FF-EFBF6433E9C0}
      <SOURCE WAVE
        FILE "dryv\Recording (16).wav"
      >
    >
    <ITEM
      POSITION 11.74252792911569
      SNAPOFFS 0.00000000000000
      LENGTH 0.10496896241760
      LOOP 0
      ALLTAKES 0
      SEL 0
      FADEIN 1 0.000000 0.000000 1 0
      FADEOUT 1 0.000000 0.000000 1 0
      MUTE 0
      IGUID {D746E9FB-576F-4E31-9651-ED9DBE9211AE}
      IID 182
      NAME "Recording (16).wav"
      VOLPAN 1.000000 0.000000 1.000000 -1.000000
      SOFFS 3.69087817574416
      PLAYRATE 1.00000000000000 1 0.00000000000000 -1
      CHANMODE 0
      GUID {0E42FE94-981A-4FA6-A950-B83CD5CC8565}
      <SOURCE WAVE
        FILE "dryv\Recording (16).wav"
      >
    >
    <ITEM
      POSITION 11.93147206146738
      SNAPOFFS 0.00000000000000
      LENGTH 0.05365080301344
      LOOP 0
      ALLTAKES 0
      SEL 0
      FADEIN 1 0.000000 0.000000 1 0
      FADEOUT 1 0.000000 0.000000 1 0
      MUTE 0
      IGUID {7142F2FF-C3AB-4C90-8406-C64F567A2ABE}
      IID 182
      NAME "Recording (16).wav"
      VOLPAN 1.000000 0.000000 1.000000 -1.000000
      SOFFS 3.87982230809585
      PLAYRATE 1.00000000000000 1 0.00000000000000 -1
      CHANMODE 0
      GUID {1E37AF93-F4F6-4384-A2F4-FF269AE21762}
      <SOURCE WAVE
        FILE "dryv\Recording (16).wav"
      >
    >
    <ITEM
      POSITION 12.00378401335506
      SNAPOFFS 0.00000000000000
      LENGTH 0.04665287218560
      LOOP 0
      ALLTAKES 0
      SEL 0
      FADEIN 1 0.000000 0.000000 1 0
      FADEOUT 1 0.000000 0.000000 1 0
      MUTE 0
      IGUID {24E6E742-D5C7-499D-B567-1AFC974F092A}
      IID 182
      NAME "Recording (16).wav"
      VOLPAN 1.000000 0.000000 1.000000 -1.000000
      SOFFS 3.93347311110929
      PLAYRATE 1.00000000000000 1 0.00000000000000 -1
      CHANMODE 0
      GUID {0DAFE81D-DC36-4C9F-9A5D-BC0D990CF7E0}
      <SOURCE WAVE
        FILE "dryv\Recording (16).wav"
      >
    >
    <ITEM
      POSITION 12.10408768855410
      SNAPOFFS 0.00000000000000
      LENGTH 0.03032436692064
      LOOP 0
      ALLTAKES 0
      SEL 0
      FADEIN 1 0.000000 0.000000 1 0
      FADEOUT 1 0.000000 0.000000 1 0
      MUTE 0
      IGUID {E6CCD500-AE5A-41D7-B765-40EF8AD40674}
      IID 182
      NAME "Recording (16).wav"
      VOLPAN 1.000000 0.000000 1.000000 -1.000000
      SOFFS 4.07576437127537
      PLAYRATE 1.00000000000000 1 0.00000000000000 -1
      CHANMODE 0
      GUID {2E43717E-2B8F-4721-993E-ADEF8CDEEA50}
      <SOURCE WAVE
        FILE "dryv\Recording (16).wav"
      >
    >
    <ITEM
      POSITION 12.13441205547474
      SNAPOFFS 0.00000000000000
      LENGTH 0.31043915918394
      LOOP 0
      ALLTAKES 0
      SEL 0
      FADEIN 1 0.000000 0.000000 1 0
      FADEOUT 1 0.000000 0.000000 1 0
      MUTE 0
      IGUID {86DC6511-727F-47C9-8178-AB3D6152AF1B}
      IID 182
      NAME "Recording (16).wav"
      VOLPAN 1.000000 0.000000 1.000000 -1.000000
      SOFFS 4.17373540286513
      PLAYRATE 1.00000000000000 1 0.00000000000000 -1
      CHANMODE 0
      GUID {9F7F0DFC-8EA5-4FE6-B55B-5E1B017FBDF0}
      <SOURCE WAVE
        FILE "dryv\Recording (16).wav"
      >
    >
    <ITEM
      POSITION 12.62659985703283
      SNAPOFFS 0.00000000000000
      LENGTH 0.40354734440544
      LOOP 0
      ALLTAKES 0
      SEL 0
      FADEIN 1 0.000000 0.000000 1 0
      FADEOUT 1 0.000000 0.000000 1 0
      MUTE 0
      IGUID {D839FEF9-DA2B-42B7-AE6E-225C589E8F37}
      IID 182
      NAME "Recording (16).wav"
      VOLPAN 1.000000 0.000000 1.000000 -1.000000
      SOFFS 4.48417456204908
      PLAYRATE 1.00000000000000 1 0.00000000000000 -1
      CHANMODE 0
      GUID {C74717AF-25F0-4738-AB54-3E3D711E78AE}
      <SOURCE WAVE
        FILE "dryv\Recording (16).wav"
      >
    >
    <ITEM
      POSITION 13.84662297324875
      SNAPOFFS 0.00000000000000
      LENGTH 0.06764666466912
      LOOP 0
      ALLTAKES 0
      SEL 0
      FADEIN 1 0.000000 0.000000 1 0
      FADEOUT 1 0.000000 0.000000 1 0
      MUTE 0
      IGUID {1ED5FD54-C978-491F-AC0F-DA57D90FAEAD}
      IID 199
      NAME "Recording (18).wav"
      VOLPAN 1.000000 0.000000 1.000000 -1.000000
      SOFFS 3.64783506186993
      PLAYRATE 1.00000000000000 1 0.00000000000000 -1
      CHANMODE 0
      GUID {1F7F659B-312B-4323-A63B-90AED2F0C3E2}
      <SOURCE WAVE
        FILE "dryv\Recording (18).wav"
      >
    >
    <ITEM
      POSITION 13.95170255428064
      SNAPOFFS 0.00000000000000
      LENGTH 0.07164516888538
      LOOP 0
      ALLTAKES 0
      SEL 0
      FADEIN 1 0.000000 0.000000 1 0
      FADEOUT 1 0.000000 0.000000 1 0
      MUTE 0
      IGUID {32E2FB2A-5D70-4609-8EC5-50FB062BF7FF}
      IID 199
      NAME "Recording (18).wav"
      VOLPAN 1.000000 0.000000 1.000000 -1.000000
      SOFFS 3.91191765025723
      PLAYRATE 1.00000000000000 1 0.00000000000000 -1
      CHANMODE 0
      GUID {6EEF22EC-46E8-40E8-846C-DD450CE5C4B4}
      <SOURCE WAVE
        FILE "dryv\Recording (18).wav"
      >
    >
    <ITEM
      POSITION 14.02334772316603
      SNAPOFFS 0.00000000000000
      LENGTH 0.07283925503347
      LOOP 0
      ALLTAKES 0
      SEL 0
      FADEIN 1 0.000000 0.000000 1 0
      FADEOUT 1 0.000000 0.000000 1 0
      MUTE 0
      IGUID {BAC79738-93E4-4ED6-8AED-53D42233E9C7}
      IID 199
      NAME "Recording (18).wav"
      VOLPAN 1.000000 0.000000 1.000000 -1.000000
      SOFFS 4.00028002521587
      PLAYRATE 1.00000000000000 1 0.00000000000000 -1
      CHANMODE 0
      GUID {54A75D8C-5D7A-4254-AD42-50B86BD78647}
      <SOURCE WAVE
        FILE "dryv\Recording (18).wav"
      >
    >
    <ITEM
      POSITION 14.13559182108646
      SNAPOFFS 0.00000000000000
      LENGTH 0.21254733435998
      LOOP 0
      ALLTAKES 0
      SEL 0
      FADEIN 1 0.000000 0.000000 1 0
      FADEOUT 1 0.000000 0.008359 1 1
      MUTE 0
      IGUID {268E8C6A-E774-4435-83FA-06CD1A5F4CD7}
      IID 218
      NAME "Recording (20).wav"
      VOLPAN 1.000000 0.000000 1.000000 -1.000000
      SOFFS 0.34756389778273
      PLAYRATE 1.00000000000000 1 0.00000000000000 -1
      CHANMODE 0
      GUID {F47C8AE3-138A-495B-8B55-7073A8022FBA}
      <SOURCE WAVE
        FILE "dryv\Recording (20).wav"
      >
    >
    <ITEM
      POSITION 14.33978055240981
      SNAPOFFS 0.00000000000000
      LENGTH 0.07283925503348
      LOOP 0
      ALLTAKES 0
      SEL 0
      FADEIN 1 0.000000 0.008359 1 1
      FADEOUT 1 0.000000 0.001194 1 1
      MUTE 0
      IGUID {E0595B6F-B056-4077-ABE6-E1327AA70873}
      IID 218
      NAME "Recording (20).wav"
      VOLPAN 1.000000 0.000000 1.000000 -1.000000
      SOFFS 0.64369726250898
      PLAYRATE 1.00000000000000 1 0.00000000000000 -1
      CHANMODE 0
      GUID {2DE1D683-B035-4BBD-BE89-B5D84AE51A5B}
      <SOURCE WAVE
        FILE "dryv\Recording (20).wav"
      >
    >
    <ITEM
      POSITION 14.41142572129520
      SNAPOFFS 0.00000000000000
      LENGTH 0.06209247970067
      LOOP 0
      ALLTAKES 0
      SEL 0
      FADEIN 1 0.000000 0.001194 1 1
      FADEOUT 1 0.000000 0.000000 1 0
      MUTE 0
      IGUID {7EF7FA31-09C2-4988-8D76-25B111A77DA7}
      IID 218
      NAME "Recording (20).wav"
      VOLPAN 1.000000 0.000000 1.000000 -1.000000
      SOFFS 0.78937577257593
      PLAYRATE 1.00000000000000 1 0.00000000000000 -1
      CHANMODE 0
      GUID {21C102CB-30BD-46DC-840F-B8F22D9289AE}
      <SOURCE WAVE
        FILE "dryv\Recording (20).wav"
      >
    >
    <ITEM
      POSITION 14.47351820099586
      SNAPOFFS 0.00000000000000
      LENGTH 0.10388549488381
      LOOP 0
      ALLTAKES 0
      SEL 0
      FADEIN 1 0.000000 0.000000 1 0
      FADEOUT 1 0.000000 0.000000 1 0
      MUTE 0
      IGUID {941B84D0-30F6-437A-9008-C8A75960DAFB}
      IID 218
      NAME "Recording (20).wav"
      VOLPAN 1.000000 0.000000 1.000000 -1.000000
      SOFFS 0.87534997523839
      PLAYRATE 1.00000000000000 1 0.00000000000000 -1
      CHANMODE 0
      GUID {D97752B4-9629-41EB-AC7F-B7C6F8FA03FA}
      <SOURCE WAVE
        FILE "dryv\Recording (20).wav"
      >
    >
    <ITEM
      POSITION 14.67412467387494
      SNAPOFFS 0.00000000000000
      LENGTH 0.26269895257975
      LOOP 0
      ALLTAKES 0
      SEL 0
      FADEIN 1 0.000000 0.000000 1 0
      FADEOUT 1 0.000000 0.000000 1 0
      MUTE 0
      IGUID {57B97991-3E97-40EC-B9DD-E6C4BD1DDBD2}
      IID 199
      NAME "Recording (18).wav"
      VOLPAN 1.000000 0.000000 1.000000 -1.000000
      SOFFS 4.63433976985153
      PLAYRATE 1.00000000000000 1 0.00000000000000 -1
      CHANMODE 0
      GUID {70259B44-5F01-4D89-9882-58F19CAE4945}
      <SOURCE WAVE
        FILE "dryv\Recording (18).wav"
      >
    >
    <ITEM
      POSITION 15.56460183693942
      SNAPOFFS 0.00000000000000
      LENGTH 43.38378303258268
      LOOP 0
      ALLTAKES 0
      SEL 0
      FADEIN 1 0.000000 0.152726 1 1
      FADEOUT 1 0.000000 0.000000 1 0
      MUTE 0
      IGUID {56D1C9AC-B08C-4727-8CB1-EA936E6BC4BA}
      IID 125
      NAME "mvsep_audio_auda.wav"
      VOLPAN 1.000000 0.000000 1.000000 -1.000000
      SOFFS 11.82979722784747
      PLAYRATE 1.00000000000000 1 0.00000000000000 -1
      CHANMODE 0
      GUID {B16240D1-C40F-45E2-AC90-9F035CC3D44E}
      <SOURCE WAVE
        FILE "mvsep_audio_auda.wav"
      >
    >
    <ITEM
      POSITION 58.94970569678963
      SNAPOFFS 0.00000000000000
      LENGTH 9.75339875023564
      LOOP 0
      ALLTAKES 0
      SEL 0
      FADEIN 1 0.000000 0.000000 1 0
      FADEOUT 1 0.000000 8.107509 1 1
      MUTE 0
      IGUID {4041E793-D2E5-4434-8EFB-87F8E0722E2D}
      IID 125
      NAME "mvsep_audio_auda.wav"
      VOLPAN 1.000000 0.000000 1.000000 -1.000000
      SOFFS 12.18659847345361
      PLAYRATE 1.00000000000000 1 0.00000000000000 -1
      CHANMODE 0
      GUID {6F4AB04E-15AC-45DB-8912-4B4A0D53F752}
      <SOURCE WAVE
        FILE "mvsep_audio_auda.wav"
      >
    >
    <ITEM
      POSITION 59.02073681372953
      SNAPOFFS 0.00000000000000
      LENGTH 0.87473745408831
      LOOP 0
      ALLTAKES 0
      SEL 0
      FADEIN 1 0.000000 0.000000 1 0
      FADEOUT 1 0.000000 0.000000 1 0
      MUTE 0
      IGUID {CE656A64-2897-42E1-8791-A5058DDEB2C2}
      IID 280
      NAME "Recording (21).wav"
      VOLPAN 1.000000 0.000000 1.000000 -1.000000
      SOFFS 2.08525721662150
      PLAYRATE 1.00000000000000 1 0.00000000000000 -1
      CHANMODE 0
      GUID {C0D65A81-0B8A-47BB-A855-CCBCAFFB49C6}
      <SOURCE WAVE
        FILE "dryv\Recording (21).wav"
      >
    >
    <ITEM
      POSITION 59.94305531414370
      SNAPOFFS 0.00000000000000
      LENGTH 0.37385107827463
      LOOP 0
      ALLTAKES 0
      SEL 0
      FADEIN 1 0.000000 0.000000 1 0
      FADEOUT 1 0.000000 0.000000 1 0
      MUTE 0
      IGUID {BBF9EE47-8EE8-494E-9EA6-2F8891ABDE72}
      IID 280
      NAME "Recording (21).wav"
      VOLPAN 1.000000 0.000000 1.000000 -1.000000
      SOFFS 2.95999467070981
      PLAYRATE 1.00000000000000 1 0.00000000000000 -1
      CHANMODE 0
      GUID {B1A054C3-1609-4652-B5D2-AA2B8F86FD2D}
      <SOURCE WAVE
        FILE "dryv\Recording (21).wav"
      >
    >
    <ITEM
      POSITION 60.44378918262063
      SNAPOFFS 0.00000000000000
      LENGTH 0.15744906385075
      LOOP 0
      ALLTAKES 0
      SEL 0
      FADEIN 1 0.000000 0.000000 1 0
      FADEOUT 1 0.000000 0.005643 1 1
      MUTE 0
      IGUID {1B624663-BD7D-4362-94B6-DFE3621750E6}
      IID 280
      NAME "Recording (21).wav"
      VOLPAN 1.000000 0.000000 1.000000 -1.000000
      SOFFS 3.33384574898444
      PLAYRATE 1.00000000000000 1 0.00000000000000 -1
      CHANMODE 0
      GUID {53C8AD5D-886A-4CF1-8E2C-FC35FAB03FF7}
      <SOURCE WAVE
        FILE "dryv\Recording (21).wav"
      >
    >
    <ITEM
      POSITION 60.59559537804125
      SNAPOFFS 0.00000000000000
      LENGTH 44.06804692846554
      LOOP 0
      ALLTAKES 0
      SEL 0
      FADEIN 1 0.000000 0.005643 1 1
      FADEOUT 1 0.000000 0.007173 1 1
      MUTE 0
      IGUID {D86ECB74-1B25-44CA-97E5-58191B0208E9}
      IID 125
      NAME "mvsep_audio_auda.wav"
      VOLPAN 1.000000 0.000000 1.000000 -1.000000
      SOFFS 56.86079076894930
      PLAYRATE 1.00000000000000 1 0.00000000000000 -1
      CHANMODE 0
      GUID {23BBE0BC-E2E7-4DAD-94C7-8278A4F88943}
      <SOURCE WAVE
        FILE "mvsep_audio_auda.wav"
      >
    >
    <ITEM
      POSITION 73.46286605376498
      SNAPOFFS 0.00000000000000
      LENGTH 0.95725666339263
      LOOP 0
      ALLTAKES 0
      SEL 0
      FADEIN 1 0.000000 0.000000 1 0
      FADEOUT 1 0.000000 0.052092 1 1
      MUTE 0
      IGUID {C46FB4DF-B326-4F02-80E6-3C7256E2EBB6}
      IID 125
      NAME "mvsep_audio_auda.wav"
      VOLPAN 1.000000 0.000000 1.000000 -1.000000
      SOFFS 172.46762922847782
      PLAYRATE 1.00000000000000 1 0.00000000000000 -1
      CHANMODE 0
      GUID {8DFFD4C8-96ED-40BB-AD38-2BAFBB52242E}
      <SOURCE WAVE
        FILE "mvsep_audio_auda.wav"
      >
    >
    <ITEM
      POSITION 74.36803054857317
      SNAPOFFS 0.00000000000000
      LENGTH 0.95725666339263
      LOOP 0
      ALLTAKES 0
      SEL 0
      FADEIN 1 0.000000 0.052092 1 1
      FADEOUT 1 0.000000 0.000000 1 0
      MUTE 0
      IGUID {3A825FEC-8658-4270-B0B8-B5284F25A6C5}
      IID 125
      NAME "mvsep_audio_auda.wav"
      VOLPAN 1.000000 0.000000 1.000000 -1.000000
      SOFFS 172.46762922847782
      PLAYRATE 1.00000000000000 1 0.00000000000000 -1
      CHANMODE 0
      GUID {6C98A25C-4D8F-40E2-A215-6BF423FC5E6D}
      <SOURCE WAVE
        FILE "mvsep_audio_auda.wav"
      >
    >
    <ITEM
      POSITION 104.65646905465846
      SNAPOFFS 0.00000000000000
      LENGTH 9.75339875023564
      LOOP 0
      ALLTAKES 0
      SEL 0
      FADEIN 1 0.000000 0.007173 1 1
      FADEOUT 1 0.000000 7.977396 1 1
      MUTE 0
      IGUID {5C9FD6BE-3E72-4A0A-BCF4-A08C14CFF32F}
      IID 125
      NAME "mvsep_audio_auda.wav"
      VOLPAN 1.000000 0.000000 1.000000 -1.000000
      SOFFS 12.18659847345361
      PLAYRATE 1.00000000000000 1 0.00000000000000 -1
      CHANMODE 0
      GUID {47EB47F4-4D9C-4794-8690-FE3515C858A7}
      <SOURCE WAVE
        FILE "mvsep_audio_auda.wav"
      >
    >
    <ITEM
      POSITION 104.73555535476915
      SNAPOFFS 0.00000000000000
      LENGTH 0.20877981753593
      LOOP 0
      ALLTAKES 0
      SEL 0
      FADEIN 1 0.000000 0.000000 1 0
      FADEOUT 1 0.000000 0.000000 1 0
      MUTE 0
      IGUID {C4D4E03D-0BC5-4917-841F-F97A8E160ED5}
      IID 280
      NAME "Recording (21).wav"
      VOLPAN 1.000000 0.000000 1.000000 -1.000000
      SOFFS 2.08525721662150
      PLAYRATE 1.00000000000000 1 0.00000000000000 -1
      CHANMODE 0
      GUID {35A4AAB5-33DC-42E9-BD71-8F59039F1094}
      <SOURCE WAVE
        FILE "dryv\Recording (21).wav"
      >
    >
    <ITEM
      POSITION 104.95941371468267
      SNAPOFFS 0.00000000000000
      LENGTH 0.40596075631984
      LOOP 0
      ALLTAKES 0
      SEL 0
      FADEIN 1 0.000000 0.000000 1 0
      FADEOUT 1 0.000000 0.000000 1 0
      MUTE 0
      IGUID {B9D4A955-AC57-4189-AAD5-363BD5026442}
      IID 280
      NAME "Recording (21).wav"
      VOLPAN 1.000000 0.000000 1.000000 -1.000000
      SOFFS 2.34739187641661
      PLAYRATE 1.00000000000000 1 0.00000000000000 -1
      CHANMODE 0
      GUID {C6046735-F930-4E4A-87D2-8E7BF949B9FF}
      <SOURCE WAVE
        FILE "dryv\Recording (21).wav"
      >
    >
    <ITEM
      POSITION 105.45932538889367
      SNAPOFFS 0.00000000000000
      LENGTH 0.20664203797336
      LOOP 0
      ALLTAKES 0
      SEL 0
      FADEIN 1 0.000000 0.000000 1 0
      FADEOUT 1 0.000000 0.000000 1 0
      MUTE 0
      IGUID {AC99E6DF-2499-40EC-9344-D9279A636E96}
      IID 280
      NAME "Recording (21).wav"
      VOLPAN 1.000000 0.000000 1.000000 -1.000000
      SOFFS 2.75335263273645
      PLAYRATE 1.00000000000000 1 0.00000000000000 -1
      CHANMODE 0
      GUID {F4217F4D-31C6-4223-BEC6-3895063FC70D}
      <SOURCE WAVE
        FILE "dryv\Recording (21).wav"
      >
    >
    <ITEM
      POSITION 105.68086397305679
      SNAPOFFS 0.00000000000000
      LENGTH 0.13085969033096
      LOOP 0
      ALLTAKES 0
      SEL 0
      FADEIN 1 0.000000 0.000000 1 0
      FADEOUT 1 0.000000 0.000000 1 0
      MUTE 0
      IGUID {7AB6DB80-E8E5-44AA-AECD-D561225EA22F}
      IID 280
      NAME "Recording (21).wav"
      VOLPAN 1.000000 0.000000 1.000000 -1.000000
      SOFFS 2.95999467070981
      PLAYRATE 1.00000000000000 1 0.00000000000000 -1
      CHANMODE 0
      GUID {DA647194-3D49-4EBC-A50B-38C7B51E65FD}
      <SOURCE WAVE
        FILE "dryv\Recording (21).wav"
      >
    >
    <ITEM
      POSITION 105.84556805133512
      SNAPOFFS 0.00000000000000
      LENGTH 0.24299138794367
      LOOP 0
      ALLTAKES 0
      SEL 0
      FADEIN 1 0.000000 0.000000 1 0
      FADEOUT 1 0.000000 0.000000 1 0
      MUTE 0
      IGUID {95AF3EB1-9E09-4197-8968-EC734C4C241B}
      IID 280
      NAME "Recording (21).wav"
      VOLPAN 1.000000 0.000000 1.000000 -1.000000
      SOFFS 3.09085436104077
      PLAYRATE 1.00000000000000 1 0.00000000000000 -1
      CHANMODE 0
      GUID {8CF7CE93-F08D-4E67-9476-AFB38748B0E8}
      <SOURCE WAVE
        FILE "dryv\Recording (21).wav"
      >
    >
    <ITEM
      POSITION 106.15860772368758
      SNAPOFFS 0.00000000000000
      LENGTH 0.15744906385075
      LOOP 0
      ALLTAKES 0
      SEL 0
      FADEIN 1 0.000000 0.000000 1 0
      FADEOUT 1 0.000000 0.000000 1 0
      MUTE 0
      IGUID {F2F49932-0363-44F3-B898-2368B37B6480}
      IID 280
      NAME "Recording (21).wav"
      VOLPAN 1.000000 0.000000 1.000000 -1.000000
      SOFFS 3.33384574898444
      PLAYRATE 1.00000000000000 1 0.00000000000000 -1
      CHANMODE 0
      GUID {CBB9A121-BE09-4722-AA95-7300E88E4518}
      <SOURCE WAVE
        FILE "dryv\Recording (21).wav"
      >
    >
    <ITEM
      POSITION 106.43247131618610
      SNAPOFFS 0.00000000000000
      LENGTH 12.78859253663886
      LOOP 0
      ALLTAKES 0
      SEL 0
      FADEIN 1 0.000000 7.977396 1 1
      FADEOUT 1 0.000000 0.099521 1 1
      MUTE 0
      IGUID {6103C662-AFAC-4720-8DB2-E133E1930987}
      IID 125
      NAME "mvsep_audio_auda.wav"
      VOLPAN 1.000000 0.000000 1.000000 -1.000000
      SOFFS 102.69766670709414
      PLAYRATE 1.00000000000000 1 0.00000000000000 -1
      CHANMODE 0
      GUID {2E437FFF-7F64-469C-834E-43995895EED2}
      <SOURCE WAVE
        FILE "mvsep_audio_auda.wav"
      >
    >
    <ITEM
      POSITION 119.12154314920728
      SNAPOFFS 0.00000000000000
      LENGTH 0.95725666339263
      LOOP 0
      ALLTAKES 0
      SEL 0
      FADEIN 1 0.000000 0.099521 1 1
      FADEOUT 1 0.000000 0.049723 1 1
      MUTE 0
      IGUID {D758D6D2-E495-4EF5-8B08-B7B99135C822}
      IID 125
      NAME "mvsep_audio_auda.wav"
      VOLPAN 1.000000 0.000000 1.000000 -1.000000
      SOFFS 172.46762922847782
      PLAYRATE 1.00000000000000 1 0.00000000000000 -1
      CHANMODE 0
      GUID {191DB0FA-4BB4-4C2E-A4C0-2CC7B38D084E}
      <SOURCE WAVE
        FILE "mvsep_audio_auda.wav"
      >
    >
    <ITEM
      POSITION 120.02907718457780
      SNAPOFFS 0.00000000000000
      LENGTH 0.95725666339263
      LOOP 0
      ALLTAKES 0
      SEL 0
      FADEIN 1 0.000000 0.049723 1 1
      FADEOUT 1 0.000000 0.161091 1 1
      MUTE 0
      IGUID {F9C9D61B-CC25-4F93-8316-3ECE3B96725D}
      IID 125
      NAME "mvsep_audio_auda.wav"
      VOLPAN 1.000000 0.000000 1.000000 -1.000000
      SOFFS 172.46762922847782
      PLAYRATE 1.00000000000000 1 0.00000000000000 -1
      CHANMODE 0
      GUID {FE164C24-04F5-42A1-A270-4CEB5094EDAE}
      <SOURCE WAVE
        FILE "mvsep_audio_auda.wav"
      >
    >
    <ITEM
      POSITION 120.82524281351903
      SNAPOFFS 0.00000000000000
      LENGTH 46.65834475406120
      LOOP 0
      ALLTAKES 0
      SEL 0
      FADEIN 1 0.000000 0.161091 1 1
      FADEOUT 1 0.000000 0.000000 1 0
      MUTE 0
      IGUID {6D82F53D-29A5-436F-AFAD-253EBD42BFEA}
      IID 125
      NAME "mvsep_audio_auda.wav"
      VOLPAN 1.000000 0.000000 1.000000 -1.000000
      SOFFS 117.09043820442707
      PLAYRATE 1.00000000000000 1 0.00000000000000 -1
      CHANMODE 0
      GUID {1CCCC691-CEF6-4D88-BE43-FDB3F4275128}
      <SOURCE WAVE
        FILE "mvsep_audio_auda.wav"
      >
    >
    <ITEM
      POSITION 136.41436106638247
      SNAPOFFS 0.00000000000000
      LENGTH 0.61961752433723
      LOOP 0
      ALLTAKES 0
      SEL 0
      FADEIN 1 0.000000 0.000000 1 0
      FADEOUT 1 0.000000 0.000000 1 0
      MUTE 0
      IGUID {C7BEBCB3-2E03-48E9-A9C2-12DD125485CC}
      IID 106
      NAME "01. Pokmon teema (suom.)-vocals-G minor-145bpm-440hz_new.mp3"
      VOLPAN 1.000000 0.000000 1.000000 -1.000000
      SOFFS 147.84491355836138
      PLAYRATE 1.00000000000000 1 0.00000000000000 -1
      CHANMODE 0
      GUID {FFDE169E-2C9B-49A9-AD13-4429FAF2E9AC}
      <SOURCE MP3
        FILE "C:\Users\wejaa\__CustomOwnSongs\Pokemon - OP\01. Pokmon teema (suom.)-vocals-G minor-145bpm-440hz_new.mp3" 1
      >
    >
    <ITEM
      POSITION 167.48358756758023
      SNAPOFFS 0.00000000000000
      LENGTH 0.30357965065991
      LOOP 0
      ALLTAKES 0
      SEL 0
      FADEIN 1 0.000000 0.000000 1 0
      FADEOUT 1 0.000000 0.000000 1 0
      MUTE 0
      IGUID {34226D61-553B-4FA7-A5EF-7039F23A06F0}
      IID 125
      NAME "mvsep_audio_auda.wav"
      VOLPAN 1.000000 0.000000 1.000000 -1.000000
      SOFFS 163.74878295848828
      PLAYRATE 1.00000000000000 1 0.00000000000000 -1
      CHANMODE 0
      GUID {8C5FA7D6-BB82-43B9-8137-28CB0E2A508B}
      <SOURCE WAVE
        FILE "mvsep_audio_auda.wav"
      >
    >
    <ITEM
      POSITION 167.78716721824014
      SNAPOFFS 0.00000000000000
      LENGTH 12.47497941379351
      LOOP 0
      ALLTAKES 0
      SEL 0
      FADEIN 1 0.000000 0.000000 1 0
      FADEOUT 1 0.000000 0.132043 1 1
      MUTE 0
      IGUID {2B59DA43-B584-481F-8E91-1D0120872510}
      IID 125
      NAME "mvsep_audio_auda.wav"
      VOLPAN 1.000000 0.000000 1.000000 -1.000000
      SOFFS 164.05236260914819
      PLAYRATE 1.00000000000000 1 0.00000000000000 -1
      CHANMODE 0
      GUID {E8D163CA-0847-456E-9F8B-180784633F70}
      <SOURCE WAVE
        FILE "mvsep_audio_auda.wav"
      >
    >
    <ITEM
      POSITION 180.13010400739157
      SNAPOFFS 0.00000000000000
      LENGTH 0.95725666339263
      LOOP 0
      ALLTAKES 0
      SEL 0
      FADEIN 1 0.000000 0.132043 1 1
      FADEOUT 1 0.000000 0.040244 1 1
      MUTE 0
      IGUID {490D8CBE-E528-4A8F-8D87-04A7C04108C0}
      IID 125
      NAME "mvsep_audio_auda.wav"
      VOLPAN 1.000000 0.000000 1.000000 -1.000000
      SOFFS 172.46762922847782
      PLAYRATE 1.00000000000000 1 0.00000000000000 -1
      CHANMODE 0
      GUID {D4C2D3CD-1C00-471C-B654-231EAA94B761}
      <SOURCE WAVE
        FILE "mvsep_audio_auda.wav"
      >
    >
    <ITEM
      POSITION 181.04711620501138
      SNAPOFFS 0.00000000000000
      LENGTH 0.95725666339263
      LOOP 0
      ALLTAKES 0
      SEL 0
      FADEIN 1 0.000000 0.040244 1 1
      FADEOUT 1 0.000000 0.116525 1 1
      MUTE 0
      IGUID {0D52597F-8F3B-4440-A800-D59994BDF12D}
      IID 125
      NAME "mvsep_audio_auda.wav"
      VOLPAN 1.000000 0.000000 1.000000 -1.000000
      SOFFS 172.46762922847782
      PLAYRATE 1.00000000000000 1 0.00000000000000 -1
      CHANMODE 0
      GUID {86D354DF-60AD-472B-8C1F-7CDA02839495}
      <SOURCE WAVE
        FILE "mvsep_audio_auda.wav"
      >
    >
    <ITEM
      POSITION 181.88784817617852
      SNAPOFFS 0.00000000000000
      LENGTH 0.69387484898667
      LOOP 0
      ALLTAKES 0
      SEL 0
      FADEIN 1 0.000000 0.116525 1 1
      FADEOUT 1 0.000000 0.112618 1 1
      MUTE 0
      IGUID {D35112D1-CD65-41F0-8F10-5F0F745677EF}
      IID 125
      NAME "mvsep_audio_auda.wav"
      VOLPAN 1.000000 0.000000 1.000000 -1.000000
      SOFFS 194.01952735210821
      PLAYRATE 1.00000000000000 1 0.00000000000000 -1
      CHANMODE 0
      GUID {753DC282-01E7-46E4-9766-37361FE9E4DF}
      <SOURCE WAVE
        FILE "mvsep_audio_auda.wav"
      >
    >
    <ITEM
      POSITION 182.46910459412476
      SNAPOFFS 0.00000000000000
      LENGTH 12.92794925632740
      LOOP 0
      ALLTAKES 0
      SEL 0
      FADEIN 1 0.000000 0.112618 1 1
      FADEOUT 1 0.000000 0.054499 1 1
      MUTE 0
      IGUID {7255667B-E8A8-4B18-BB7D-3DD54F23C82E}
      IID 125
      NAME "mvsep_audio_auda.wav"
      VOLPAN 1.000000 0.000000 1.000000 -1.000000
      SOFFS 178.73429998503281
      PLAYRATE 1.00000000000000 1 0.00000000000000 -1
      CHANMODE 0
      GUID {A110CBDE-EEB5-4F2E-991F-C7725C3EEBB3}
      <SOURCE WAVE
        FILE "mvsep_audio_auda.wav"
      >
    >
    <ITEM
      POSITION 195.34255441751870
      SNAPOFFS 0.00000000000000
      LENGTH 0.95725666339263
      LOOP 0
      ALLTAKES 0
      SEL 0
      FADEIN 1 0.000000 0.054499 1 1
      FADEOUT 1 0.000000 0.066309 1 1
      MUTE 0
      IGUID {C2905385-04E7-47F7-8398-D70F7DE5ACDE}
      IID 125
      NAME "mvsep_audio_auda.wav"
      VOLPAN 1.000000 0.000000 1.000000 -1.000000
      SOFFS 172.46762922847782
      PLAYRATE 1.00000000000000 1 0.00000000000000 -1
      CHANMODE 0
      GUID {1D506780-23B8-4204-BFBF-6BC06FB50805}
      <SOURCE WAVE
        FILE "mvsep_audio_auda.wav"
      >
    >
    <ITEM
      POSITION 196.23350166895293
      SNAPOFFS 0.00000000000000
      LENGTH 0.95725666339263
      LOOP 0
      ALLTAKES 0
      SEL 0
      FADEIN 1 0.000000 0.066309 1 1
      FADEOUT 1 0.000000 0.120809 1 1
      MUTE 0
      IGUID {E804B624-EB96-4CA2-98D9-22859212BFCE}
      IID 125
      NAME "mvsep_audio_auda.wav"
      VOLPAN 1.000000 0.000000 1.000000 -1.000000
      SOFFS 172.46762922847782
      PLAYRATE 1.00000000000000 1 0.00000000000000 -1
      CHANMODE 0
      GUID {C71866F7-1573-4315-A020-E040FC3CACFC}
      <SOURCE WAVE
        FILE "mvsep_audio_auda.wav"
      >
    >
    <ITEM
      POSITION 197.06994948745370
      SNAPOFFS 0.00000000000000
      LENGTH 19.51816762163824
      LOOP 0
      ALLTAKES 0
      SEL 0
      FADEIN 1 0.000000 0.120809 1 1
      FADEOUT 1 0.000000 0.000000 1 0
      MUTE 0
      IGUID {34E63F80-7576-4F1E-80F7-98FC9C5A3001}
      IID 125
      NAME "mvsep_audio_auda.wav"
      VOLPAN 1.000000 0.000000 1.000000 -1.000000
      SOFFS 193.33514487836175
      PLAYRATE 1.00000000000000 1 0.00000000000000 -1
      CHANMODE 0
      GUID {E7F70AFB-F2EC-4EC2-BFC4-EFD820D4111B}
      <SOURCE WAVE
        FILE "mvsep_audio_auda.wav"
      >
    >
  >
  <TRACK '{88636A4A-5EE8-43C3-872D-843440FDD34E}'
    NAME "1_09 Gimme More (sid)_(Instrumental)"
    PEAKCOL 16576
    BEAT -1
    AUTOMODE 0
    VOLPAN 1.00000000000000 0.00000000000000 -1.00000000000000 -1.00000000000000 1.00000000000000
    MUTESOLO 0 0 0
    IPHASE 0
    ISBUS 0 0
    BUSCOMP 0 0
    SHOWINMIX 1 0.666700 0.500000 1 0.500000 -1 -1 -1
    FREEMODE 0
    SEL 0
    REC 0 0 0 0 0 0 0
    VU 2
    TRACKHEIGHT 0 0
    INQ 0 0 0 0.5000000000 100 0 0 100
    NCHAN 2
    FX 1
    TRACKID {88636A4A-5EE8-43C3-872D-843440FDD34E}
    PERF 0
    MIDIOUT -1
    MAINSEND 1 0
    <ITEM
      POSITION 3.73480460909195
      SNAPOFFS 0.00000000000000
      LENGTH 212.84571428571428
      LOOP 0
      ALLTAKES 0
      SEL 0
      FADEIN 1 0.000000 0.000000 1 0
      FADEOUT 1 0.000000 0.000000 1 0
      MUTE 0
      IGUID {C4438C37-488A-49CE-B8DF-99723EDB6660}
      IID 228
      NAME "1_09 Gimme More (sid)_(Instrumental).wav"
      VOLPAN 1.000000 0.000000 1.000000 -1.000000
      SOFFS 0.00000000000000
      PLAYRATE 1.00000000000000 1 0.00000000000000 -1
      CHANMODE 0
      GUID {01CD79E5-3778-46AE-8E19-D2FC0DF49B80}
      <SOURCE WAVE
        FILE "1_09 Gimme More (sid)_(Instrumental).wav"
      >
    >
  >
  <TRACK '{14F64FB7-FE44-4E53-9F58-44F4178BCEF9}'
    NAME "PART KEYS"
    PEAKCOL 16842496
    BEAT -1
    AUTOMODE 0
    VOLPAN 1.00000000000000 0.00000000000000 -1.00000000000000 -1.00000000000000 1.00000000000000
    MUTESOLO 0 0 0
    IPHASE 0
    ISBUS 1 1
    BUSCOMP 0 0
    SHOWINMIX 1 0.666700 0.500000 1 0.500000 -1 -1 -1
    FREEMODE 0
    SEL 0
    REC 0 0 0 0 0 0 0
    TRACKHEIGHT 0 0
    INQ 0 0 0 0.5000000000 100 0 0 100
    NCHAN 2
    FX 1
    TRACKID {14F64FB7-FE44-4E53-9F58-44F4178BCEF9}
    PERF 0
    MIDIOUT -1
    <MIDINOTENAMES
      0 124 "BRE"
      0 123 "BRE"
      0 122 "BRE"
      0 121 "BRE"
      0 120 "BRE (use all 5)"
      0 116 "OVERDRIVE"
      0 119 "----"
      0 115 "----"
      0 103 "Solo Marker"
      0 95 "----"
      0 96 "EXPERT Green"
      0 97 "EXPERT Red"
      0 98 "EXPERT Yellow"
      0 99 "EXPERT Blue"
      0 100 "EXPERT Orange"
      0 102 "Force HoPo off"
      0 83 "----"
      0 84 "HARD Green"
      0 85 "HARD Red"
      0 86 "HARD Yellow"
      0 87 "HARD Blue"
      0 88 "HARD Orange"
      0 72 "MEDIUM Green"
      0 73 "MEDIUM Red"
      0 74 "MEDIUM Yellow"
      0 75 "MEDIUM Blue"
      0 76 "MEDIUM Orange"
      0 71 "----"
      0 64 "EASY Orange"
      0 63 "EASY Blue"
      0 62 "EASY Yellow"
      0 61 "EASY Red"
      0 60 "EASY Green"
      0 127 "Trill Marker"
      0 126 "----"
      0 101 "Force HoPo on"
    >
    MAINSEND 1 0
    <VOLENV2
    ACT 1
    VIS 1 1 1.000000
    LANEHEIGHT 0 0
    ARM 1
    DEFSHAPE 0 -1 -1
    PT 0.000000 1.000000 0
  >
  <FXCHAIN
    WNDRECT -1012 479 878 1001
    SHOW 0
    LASTSEL 0
    DOCKED 0
    BYPASS 0 0
    <VST "VSTi: RBN Preview (RBN)" "rbprev_vst64_beta.dll" 0 ""
      dnBicu5e7f4AAAAAAgAAAAEAAAAAAAAAAgAAAAAAAAAEAAAAAQAAAA==
      AAAAAAMAqgAAAAAAAAA=
    >
    FLOATPOS 0 0 0 0
    FXID {EE0C80EE-5E5F-4EA2-B367-78AAAB3793F5}
    WAK 0
  >
  <ITEM
    POSITION 0.00000000000000
    SNAPOFFS 0.00000000000000
    LENGTH 216.64149308537290
    LOOP 0
    ALLTAKES 0
    SEL 0
    FADEIN 1 0.000000 0.000000 1 0
    FADEOUT 1 0.000000 0.000000 1 0
    MUTE 0
    IGUID {52D9F6AC-16AD-4CE9-95E4-6AD6396BB4E2}
    IID 14
    NAME "PART KEYS"
    VOLPAN 1.000000 0.000000 1.000000 -1.000000
    SOFFS 0.00000000000000 0.00000000000000
    PLAYRATE 1.00000000000000 1 0.00000000000000 -65536
    CHANMODE 0
    GUID {78E1CCBD-C30B-4DD8-81CD-2AEB0D2D38C8}
    <SOURCE MIDI
      HASDATA 1 480 QN
      POOLEDEVTS {E72FEA6F-2872-4463-943C-F385606D1913}
      <X 0 0
        /wNQQVJUIEtFWVM=
      >
      <X 3840 0
        /wFbcGxheV0=
      >
      E 1440 90 48 60
      E 0 90 4a 60
      E 0 90 54 60
      E 0 90 56 60
      E 0 90 60 60
      E 0 90 62 60
      E 40 80 48 00
      E 0 80 4a 00
      E 0 80 54 00
      E 0 80 56 00
      E 0 80 60 00
      E 0 80 62 00
      E 320 90 61 60
      E 0 90 63 60
      E 40 80 61 00
      E 0 80 63 00
      E 80 90 3e 60
      E 0 90 49 60
      E 0 90 4b 60
      E 0 90 55 60
      E 0 90 57 60
      E 0 90 61 60
      E 0 90 63 60
      E 40 80 3e 00
      E 0 80 49 00
      E 0 80 4b 00
      E 0 80 55 00
      E 0 80 57 00
      E 0 80 61 00
      E 0 80 63 00
      E 320 90 61 60
      E 0 90 63 60
      E 40 80 61 00
      E 0 80 63 00
      E 79 90 49 60
      E 0 90 4b 60
      E 0 90 55 60
      E 0 90 57 60
      E 0 90 61 60
      E 0 90 63 60
      E 41 80 49 00
      E 0 80 4b 00
      E 0 80 55 00
      E 0 80 57 00
      E 0 80 61 00
      E 0 80 63 00
      E 320 90 61 60
      E 0 90 63 60
      E 40 80 61 00
      E 0 80 63 00
      E 79 90 3e 60
      E 0 90 49 60
      E 0 90 4b 60
      E 0 90 55 60
      E 0 90 57 60
      E 0 90 61 60
      E 0 90 63 60
      E 41 80 3e 00
      E 0 80 49 00
      E 0 80 4b 00
      E 0 80 55 00
      E 0 80 57 00
      E 0 80 61 00
      E 0 80 63 00
      E 320 90 61 60
      E 0 90 63 60
      E 40 80 61 00
      E 0 80 63 00
      E 79 90 49 60
      E 0 90 4b 60
      E 0 90 55 60
      E 0 90 57 60
      E 0 90 61 60
      E 0 90 63 60
      E 41 80 49 00
      E 0 80 4b 00
      E 0 80 55 00
      E 0 80 57 00
      E 0 80 61 00
      E 0 80 63 00
      E 320 90 55 60
      E 0 90 57 60
      E 0 90 61 60
      E 0 90 63 60
      E 120 80 55 00
      E 0 80 57 00
      E 160 80 61 00
      E 0 80 63 00
      E 79 90 3e 60
      E 0 90 49 60
      E 0 90 4b 60
      E 0 90 55 60
      E 0 90 57 60
      E 0 90 61 60
      E 0 90 63 60
      E 120 80 3e 00
      E 0 80 49 00
      E 0 80 4b 00
      E 0 80 55 00
      E 0 80 57 00
      E 201 80 61 00
      E 0 80 63 00
      E 159 90 48 60
      E 0 90 4a 60
      E 0 90 54 60
      E 0 90 56 60
      E 0 90 60 60
      E 0 90 62 60
      E 120 80 48 00
      E 0 80 4a 00
      E 0 80 54 00
      E 0 80 56 00
      E 201 80 60 00
      E 0 80 62 00
      E 159 90 54 60
      E 0 90 56 60
      E 0 90 60 60
      E 0 90 62 60
      E 40 80 54 00
      E 0 80 56 00
      E 0 80 60 00
      E 0 80 62 00
      E 201 90 3e 60
      E 0 90 49 60
      E 0 90 4a 60
      E 0 90 55 60
      E 0 90 56 60
      E 0 90 61 60
      E 0 90 62 60
      E 40 80 3e 00
      E 0 80 49 00
      E 0 80 4a 00
      E 0 80 55 00
      E 0 80 56 00
      E 0 80 61 00
      E 0 80 62 00
      E 320 90 55 60
      E 0 90 57 60
      E 0 90 61 60
      E 0 90 63 60
      E 120 80 55 00
      E 0 80 57 00
      E 160 80 61 00
      E 0 80 63 00
      E 79 90 49 60
      E 0 90 4b 60
      E 0 90 55 60
      E 0 90 57 60
      E 0 90 61 60
      E 0 90 63 60
      E 120 80 49 00
      E 0 80 4b 00
      E 0 80 55 00
      E 0 80 57 00
      E 201 80 61 00
      E 0 80 63 00
      E 159 90 3d 60
      E 0 90 48 60
      E 0 90 4a 60
      E 0 90 54 60
      E 0 90 56 60
      E 0 90 60 60
      E 0 90 62 60
      E 120 80 3d 00
      E 0 80 48 00
      E 0 80 4a 00
      E 0 80 54 00
      E 0 80 56 00
      E 200 80 60 00
      E 0 80 62 00
      E 160 90 54 60
      E 0 90 56 60
      E 0 90 60 60
      E 0 90 62 60
      E 40 80 54 00
      E 0 80 56 00
      E 0 80 60 00
      E 0 80 62 00
      E 201 90 49 60
      E 0 90 4a 60
      E 0 90 55 60
      E 0 90 56 60
      E 0 90 61 60
      E 0 90 62 60
      E 40 80 49 00
      E 0 80 4a 00
      E 0 80 55 00
      E 0 80 56 00
      E 0 80 61 00
      E 0 80 62 00
      E 320 90 55 60
      E 0 90 57 60
      E 0 90 61 60
      E 0 90 63 60
      E 120 80 55 00
      E 0 80 57 00
      E 160 80 61 00
      E 0 80 63 00
      E 79 90 3e 60
      E 0 90 49 60
      E 0 90 4b 60
      E 0 90 55 60
      E 0 90 57 60
      E 0 90 61 60
      E 0 90 63 60
      E 120 80 3e 00
      E 0 80 49 00
      E 0 80 4b 00
      E 0 80 55 00
      E 0 80 57 00
      E 201 80 61 00
      E 0 80 63 00
      E 159 90 48 60
      E 0 90 4a 60
      E 0 90 54 60
      E 0 90 56 60
      E 0 90 60 60
      E 0 90 62 60
      E 120 80 48 00
      E 0 80 4a 00
      E 0 80 54 00
      E 0 80 56 00
      E 200 80 60 00
      E 0 80 62 00
      E 160 90 54 60
      E 0 90 56 60
      E 0 90 60 60
      E 0 90 62 60
      E 40 80 54 00
      E 0 80 56 00
      E 0 80 60 00
      E 0 80 62 00
      E 201 90 3e 60
      E 0 90 49 60
      E 0 90 4a 60
      E 0 90 55 60
      E 0 90 56 60
      E 0 90 61 60
      E 0 90 62 60
      E 40 80 3e 00
      E 0 80 49 00
      E 0 80 4a 00
      E 0 80 55 00
      E 0 80 56 00
      E 0 80 61 00
      E 0 80 62 00
      E 320 90 55 60
      E 0 90 57 60
      E 0 90 61 60
      E 0 90 63 60
      E 120 80 55 00
      E 0 80 57 00
      E 160 80 61 00
      E 0 80 63 00
      E 79 90 49 60
      E 0 90 4b 60
      E 0 90 55 60
      E 0 90 57 60
      E 0 90 61 60
      E 0 90 63 60
      E 120 80 49 00
      E 0 80 4b 00
      E 0 80 55 00
      E 0 80 57 00
      E 201 80 61 00
      E 0 80 63 00
      E 159 90 3d 60
      E 0 90 48 60
      E 0 90 4a 60
      E 0 90 54 60
      E 0 90 56 60
      E 0 90 60 60
      E 0 90 62 60
      E 120 80 3d 00
      E 0 80 48 00
      E 0 80 4a 00
      E 0 80 54 00
      E 0 80 56 00
      E 200 80 60 00
      E 0 80 62 00
      E 160 90 54 60
      E 0 90 56 60
      E 0 90 60 60
      E 0 90 62 60
      E 40 80 54 00
      E 0 80 56 00
      E 0 80 60 00
      E 0 80 62 00
      E 201 90 49 60
      E 0 90 4a 60
      E 0 90 55 60
      E 0 90 56 60
      E 0 90 61 60
      E 0 90 62 60
      E 40 80 49 00
      E 0 80 4a 00
      E 0 80 55 00
      E 0 80 56 00
      E 0 80 61 00
      E 0 80 62 00
      E 320 90 55 60
      E 0 90 57 60
      E 0 90 61 60
      E 0 90 63 60
      E 120 80 55 00
      E 0 80 57 00
      E 160 80 61 00
      E 0 80 63 00
      E 79 90 3e 60
      E 0 90 49 60
      E 0 90 4b 60
      E 0 90 55 60
      E 0 90 57 60
      E 0 90 61 60
      E 0 90 63 60
      E 120 80 3e 00
      E 0 80 49 00
      E 0 80 4b 00
      E 0 80 55 00
      E 0 80 57 00
      E 201 80 61 00
      E 0 80 63 00
      E 159 90 48 60
      E 0 90 4a 60
      E 0 90 54 60
      E 0 90 56 60
      E 0 90 60 60
      E 0 90 62 60
      E 120 80 48 00
      E 0 80 4a 00
      E 0 80 54 00
      E 0 80 56 00
      E 200 80 60 00
      E 0 80 62 00
      E 160 90 54 60
      E 0 90 56 60
      E 0 90 60 60
      E 0 90 62 60
      E 40 80 54 00
      E 0 80 56 00
      E 0 80 60 00
      E 0 80 62 00
      E 201 90 3e 60
      E 0 90 49 60
      E 0 90 4a 60
      E 0 90 55 60
      E 0 90 56 60
      E 0 90 61 60
      E 0 90 62 60
      E 40 80 3e 00
      E 0 80 49 00
      E 0 80 4a 00
      E 0 80 55 00
      E 0 80 56 00
      E 0 80 61 00
      E 0 80 62 00
      E 320 90 55 60
      E 0 90 57 60
      E 0 90 61 60
      E 0 90 63 60
      E 120 80 55 00
      E 0 80 57 00
      E 160 80 61 00
      E 0 80 63 00
      E 79 90 49 60
      E 0 90 4b 60
      E 0 90 55 60
      E 0 90 57 60
      E 0 90 61 60
      E 0 90 63 60
      E 120 80 49 00
      E 0 80 4b 00
      E 0 80 55 00
      E 0 80 57 00
      E 201 80 61 00
      E 0 80 63 00
      E 159 90 3d 60
      E 0 90 48 60
      E 0 90 4a 60
      E 0 90 54 60
      E 0 90 56 60
      E 0 90 60 60
      E 0 90 62 60
      E 120 80 3d 00
      E 0 80 48 00
      E 0 80 4a 00
      E 0 80 54 00
      E 0 80 56 00
      E 200 80 60 00
      E 0 80 62 00
      E 160 90 54 60
      E 0 90 56 60
      E 0 90 60 60
      E 0 90 62 60
      E 40 80 54 00
      E 0 80 56 00
      E 0 80 60 00
      E 0 80 62 00
      E 201 90 49 60
      E 0 90 4a 60
      E 0 90 55 60
      E 0 90 56 60
      E 0 90 61 60
      E 0 90 62 60
      E 0 90 74 60
      E 40 80 49 00
      E 0 80 4a 00
      E 0 80 55 00
      E 0 80 56 00
      E 0 80 61 00
      E 0 80 62 00
      E 320 90 55 60
      E 0 90 57 60
      E 0 90 61 60
      E 0 90 63 60
      E 120 80 55 00
      E 0 80 57 00
      E 160 80 61 00
      E 0 80 63 00
      E 79 90 3e 60
      E 0 90 49 60
      E 0 90 4b 60
      E 0 90 55 60
      E 0 90 57 60
      E 0 90 61 60
      E 0 90 63 60
      E 81 80 74 00
      E 39 80 3e 00
      E 0 80 49 00
      E 0 80 4b 00
      E 0 80 55 00
      E 0 80 57 00
      E 201 80 61 00
      E 0 80 63 00
      E 159 90 48 60
      E 0 90 4a 60
      E 0 90 54 60
      E 0 90 56 60
      E 0 90 60 60
      E 0 90 62 60
      E 120 80 48 00
      E 0 80 4a 00
      E 0 80 54 00
      E 0 80 56 00
      E 200 80 60 00
      E 0 80 62 00
      E 160 90 54 60
      E 0 90 56 60
      E 0 90 60 60
      E 0 90 62 60
      E 40 80 54 00
      E 0 80 56 00
      E 0 80 60 00
      E 0 80 62 00
      E 201 90 3e 60
      E 0 90 49 60
      E 0 90 4a 60
      E 0 90 55 60
      E 0 90 56 60
      E 0 90 61 60
      E 0 90 62 60
      E 40 80 3e 00
      E 0 80 49 00
      E 0 80 4a 00
      E 0 80 55 00
      E 0 80 56 00
      E 0 80 61 00
      E 0 80 62 00
      E 320 90 55 60
      E 0 90 57 60
      E 0 90 61 60
      E 0 90 63 60
      E 120 80 55 00
      E 0 80 57 00
      E 160 80 61 00
      E 0 80 63 00
      E 79 90 49 60
      E 0 90 4b 60
      E 0 90 55 60
      E 0 90 57 60
      E 0 90 61 60
      E 0 90 63 60
      E 120 80 49 00
      E 0 80 4b 00
      E 0 80 55 00
      E 0 80 57 00
      E 201 80 61 00
      E 0 80 63 00
      E 159 90 3d 60
      E 0 90 48 60
      E 0 90 4a 60
      E 0 90 54 60
      E 0 90 56 60
      E 0 90 60 60
      E 0 90 62 60
      E 120 80 3d 00
      E 0 80 48 00
      E 0 80 4a 00
      E 0 80 54 00
      E 0 80 56 00
      E 200 80 60 00
      E 0 80 62 00
      E 160 90 54 60
      E 0 90 56 60
      E 0 90 60 60
      E 0 90 62 60
      E 40 80 54 00
      E 0 80 56 00
      E 0 80 60 00
      E 0 80 62 00
      E 201 90 49 60
      E 0 90 4a 60
      E 0 90 55 60
      E 0 90 56 60
      E 0 90 61 60
      E 0 90 62 60
      E 40 80 49 00
      E 0 80 4a 00
      E 0 80 55 00
      E 0 80 56 00
      E 0 80 61 00
      E 0 80 62 00
      E 320 90 55 60
      E 0 90 57 60
      E 0 90 61 60
      E 0 90 63 60
      E 120 80 55 00
      E 0 80 57 00
      E 160 80 61 00
      E 0 80 63 00
      E 79 90 3e 60
      E 0 90 49 60
      E 0 90 4b 60
      E 0 90 55 60
      E 0 90 57 60
      E 0 90 61 60
      E 0 90 63 60
      E 120 80 3e 00
      E 0 80 49 00
      E 0 80 4b 00
      E 0 80 55 00
      E 0 80 57 00
      E 201 80 61 00
      E 0 80 63 00
      E 159 90 48 60
      E 0 90 4a 60
      E 0 90 54 60
      E 0 90 56 60
      E 0 90 60 60
      E 0 90 62 60
      E 120 80 48 00
      E 0 80 4a 00
      E 0 80 54 00
      E 0 80 56 00
      E 200 80 60 00
      E 0 80 62 00
      E 160 90 54 60
      E 0 90 56 60
      E 0 90 60 60
      E 0 90 62 60
      E 40 80 54 00
      E 0 80 56 00
      E 0 80 60 00
      E 0 80 62 00
      E 201 90 3e 60
      E 0 90 49 60
      E 0 90 4a 60
      E 0 90 55 60
      E 0 90 56 60
      E 0 90 61 60
      E 0 90 62 60
      E 40 80 3e 00
      E 0 80 49 00
      E 0 80 4a 00
      E 0 80 55 00
      E 0 80 56 00
      E 0 80 61 00
      E 0 80 62 00
      E 320 90 55 60
      E 0 90 57 60
      E 0 90 61 60
      E 0 90 63 60
      E 120 80 55 00
      E 0 80 57 00
      E 160 80 61 00
      E 0 80 63 00
      E 79 90 49 60
      E 0 90 4b 60
      E 0 90 55 60
      E 0 90 57 60
      E 0 90 61 60
      E 0 90 63 60
      E 120 80 49 00
      E 0 80 4b 00
      E 0 80 55 00
      E 0 80 57 00
      E 201 80 61 00
      E 0 80 63 00
      E 159 90 3d 60
      E 0 90 48 60
      E 0 90 4a 60
      E 0 90 54 60
      E 0 90 56 60
      E 0 90 60 60
      E 0 90 62 60
      E 120 80 3d 00
      E 0 80 48 00
      E 0 80 4a 00
      E 0 80 54 00
      E 0 80 56 00
      E 200 80 60 00
      E 0 80 62 00
      E 160 90 54 60
      E 0 90 56 60
      E 0 90 60 60
      E 0 90 62 60
      E 40 80 54 00
      E 0 80 56 00
      E 0 80 60 00
      E 0 80 62 00
      E 201 90 49 60
      E 0 90 4a 60
      E 0 90 55 60
      E 0 90 56 60
      E 0 90 61 60
      E 0 90 62 60
      E 40 80 49 00
      E 0 80 4a 00
      E 0 80 55 00
      E 0 80 56 00
      E 0 80 61 00
      E 0 80 62 00
      E 320 90 55 60
      E 0 90 57 60
      E 0 90 61 60
      E 0 90 63 60
      E 120 80 55 00
      E 0 80 57 00
      E 160 80 61 00
      E 0 80 63 00
      E 79 90 3e 60
      E 0 90 49 60
      E 0 90 4b 60
      E 0 90 55 60
      E 0 90 57 60
      E 0 90 61 60
      E 0 90 63 60
      E 120 80 3e 00
      E 0 80 49 00
      E 0 80 4b 00
      E 0 80 55 00
      E 0 80 57 00
      E 201 80 61 00
      E 0 80 63 00
      E 159 90 48 60
      E 0 90 4a 60
      E 0 90 54 60
      E 0 90 56 60
      E 0 90 60 60
      E 0 90 62 60
      E 120 80 48 00
      E 0 80 4a 00
      E 0 80 54 00
      E 0 80 56 00
      E 200 80 60 00
      E 0 80 62 00
      E 160 90 54 60
      E 0 90 56 60
      E 0 90 60 60
      E 0 90 62 60
      E 40 80 54 00
      E 0 80 56 00
      E 0 80 60 00
      E 0 80 62 00
      E 201 90 3e 60
      E 0 90 49 60
      E 0 90 4a 60
      E 0 90 55 60
      E 0 90 56 60
      E 0 90 61 60
      E 0 90 62 60
      E 40 80 3e 00
      E 0 80 49 00
      E 0 80 4a 00
      E 0 80 55 00
      E 0 80 56 00
      E 0 80 61 00
      E 0 80 62 00
      E 320 90 55 60
      E 0 90 57 60
      E 0 90 61 60
      E 0 90 63 60
      E 120 80 55 00
      E 0 80 57 00
      E 160 80 61 00
      E 0 80 63 00
      E 79 90 49 60
      E 0 90 4b 60
      E 0 90 55 60
      E 0 90 57 60
      E 0 90 61 60
      E 0 90 63 60
      E 120 80 49 00
      E 0 80 4b 00
      E 0 80 55 00
      E 0 80 57 00
      E 201 80 61 00
      E 0 80 63 00
      E 159 90 3d 60
      E 0 90 48 60
      E 0 90 4a 60
      E 0 90 54 60
      E 0 90 56 60
      E 0 90 60 60
      E 0 90 62 60
      E 120 80 3d 00
      E 0 80 48 00
      E 0 80 4a 00
      E 0 80 54 00
      E 0 80 56 00
      E 200 80 60 00
      E 0 80 62 00
      E 160 90 54 60
      E 0 90 56 60
      E 0 90 60 60
      E 0 90 62 60
      E 40 80 54 00
      E 0 80 56 00
      E 0 80 60 00
      E 0 80 62 00
      E 201 90 49 60
      E 0 90 4a 60
      E 0 90 55 60
      E 0 90 56 60
      E 0 90 61 60
      E 0 90 62 60
      E 40 80 49 00
      E 0 80 4a 00
      E 0 80 55 00
      E 0 80 56 00
      E 0 80 61 00
      E 0 80 62 00
      E 320 90 55 60
      E 0 90 57 60
      E 0 90 61 60
      E 0 90 63 60
      E 0 90 74 60
      E 120 80 55 00
      E 0 80 57 00
      E 160 80 61 00
      E 0 80 63 00
      E 79 90 3e 60
      E 0 90 49 60
      E 0 90 4b 60
      E 0 90 55 60
      E 0 90 57 60
      E 0 90 61 60
      E 0 90 63 60
      E 120 80 3e 00
      E 0 80 49 00
      E 0 80 4b 00
      E 0 80 55 00
      E 0 80 57 00
      E 201 80 61 00
      E 0 80 63 00
      E 159 90 48 60
      E 0 90 4a 60
      E 0 90 54 60
      E 0 90 56 60
      E 0 90 60 60
      E 0 90 62 60
      E 120 80 48 00
      E 0 80 4a 00
      E 0 80 54 00
      E 0 80 56 00
      E 200 80 60 00
      E 0 80 62 00
      E 41 80 74 00
      E 119 90 54 60
      E 0 90 56 60
      E 0 90 60 60
      E 0 90 62 60
      E 40 80 54 00
      E 0 80 56 00
      E 0 80 60 00
      E 0 80 62 00
      E 201 90 3e 60
      E 0 90 49 60
      E 0 90 4a 60
      E 0 90 55 60
      E 0 90 56 60
      E 0 90 61 60
      E 0 90 62 60
      E 40 80 3e 00
      E 0 80 49 00
      E 0 80 4a 00
      E 0 80 55 00
      E 0 80 56 00
      E 0 80 61 00
      E 0 80 62 00
      E 320 90 55 60
      E 0 90 57 60
      E 0 90 61 60
      E 0 90 63 60
      E 120 80 55 00
      E 0 80 57 00
      E 160 80 61 00
      E 0 80 63 00
      E 79 90 49 60
      E 0 90 4b 60
      E 0 90 55 60
      E 0 90 57 60
      E 0 90 61 60
      E 0 90 63 60
      E 120 80 49 00
      E 0 80 4b 00
      E 0 80 55 00
      E 0 80 57 00
      E 201 80 61 00
      E 0 80 63 00
      E 159 90 3d 60
      E 0 90 48 60
      E 0 90 4a 60
      E 0 90 54 60
      E 0 90 56 60
      E 0 90 60 60
      E 0 90 62 60
      E 120 80 3d 00
      E 0 80 48 00
      E 0 80 4a 00
      E 0 80 54 00
      E 0 80 56 00
      E 200 80 60 00
      E 0 80 62 00
      E 160 90 54 60
      E 0 90 56 60
      E 0 90 60 60
      E 0 90 62 60
      E 40 80 54 00
      E 0 80 56 00
      E 0 80 60 00
      E 0 80 62 00
      E 201 90 49 60
      E 0 90 4a 60
      E 0 90 55 60
      E 0 90 56 60
      E 0 90 61 60
      E 0 90 62 60
      E 40 80 49 00
      E 0 80 4a 00
      E 0 80 55 00
      E 0 80 56 00
      E 0 80 61 00
      E 0 80 62 00
      E 320 90 55 60
      E 0 90 57 60
      E 0 90 61 60
      E 0 90 63 60
      E 120 80 55 00
      E 0 80 57 00
      E 160 80 61 00
      E 0 80 63 00
      E 79 90 3e 60
      E 0 90 49 60
      E 0 90 4b 60
      E 0 90 55 60
      E 0 90 57 60
      E 0 90 61 60
      E 0 90 63 60
      E 120 80 3e 00
      E 0 80 49 00
      E 0 80 4b 00
      E 0 80 55 00
      E 0 80 57 00
      E 201 80 61 00
      E 0 80 63 00
      E 159 90 48 60
      E 0 90 4a 60
      E 0 90 54 60
      E 0 90 56 60
      E 0 90 60 60
      E 0 90 62 60
      E 120 80 48 00
      E 0 80 4a 00
      E 0 80 54 00
      E 0 80 56 00
      E 200 80 60 00
      E 0 80 62 00
      E 160 90 54 60
      E 0 90 56 60
      E 0 90 60 60
      E 0 90 62 60
      E 40 80 54 00
      E 0 80 56 00
      E 0 80 60 00
      E 0 80 62 00
      E 201 90 3e 60
      E 0 90 49 60
      E 0 90 4a 60
      E 0 90 55 60
      E 0 90 56 60
      E 0 90 61 60
      E 0 90 62 60
      E 40 80 3e 00
      E 0 80 49 00
      E 0 80 4a 00
      E 0 80 55 00
      E 0 80 56 00
      E 0 80 61 00
      E 0 80 62 00
      E 320 90 55 60
      E 0 90 57 60
      E 0 90 61 60
      E 0 90 63 60
      E 120 80 55 00
      E 0 80 57 00
      E 160 80 61 00
      E 0 80 63 00
      E 79 90 49 60
      E 0 90 4b 60
      E 0 90 55 60
      E 0 90 57 60
      E 0 90 61 60
      E 0 90 63 60
      E 120 80 49 00
      E 0 80 4b 00
      E 0 80 55 00
      E 0 80 57 00
      E 201 80 61 00
      E 0 80 63 00
      E 159 90 3d 60
      E 0 90 48 60
      E 0 90 4a 60
      E 0 90 54 60
      E 0 90 56 60
      E 0 90 60 60
      E 0 90 62 60
      E 120 80 3d 00
      E 0 80 48 00
      E 0 80 4a 00
      E 0 80 54 00
      E 0 80 56 00
      E 200 80 60 00
      E 0 80 62 00
      E 160 90 54 60
      E 0 90 56 60
      E 0 90 60 60
      E 0 90 62 60
      E 40 80 54 00
      E 0 80 56 00
      E 0 80 60 00
      E 0 80 62 00
      E 201 90 49 60
      E 0 90 4a 60
      E 0 90 55 60
      E 0 90 56 60
      E 0 90 61 60
      E 0 90 62 60
      E 40 80 49 00
      E 0 80 4a 00
      E 0 80 55 00
      E 0 80 56 00
      E 0 80 61 00
      E 0 80 62 00
      E 320 90 55 60
      E 0 90 57 60
      E 0 90 61 60
      E 0 90 63 60
      E 120 80 55 00
      E 0 80 57 00
      E 160 80 61 00
      E 0 80 63 00
      E 79 90 3e 60
      E 0 90 49 60
      E 0 90 4b 60
      E 0 90 55 60
      E 0 90 57 60
      E 0 90 61 60
      E 0 90 63 60
      E 120 80 3e 00
      E 0 80 49 00
      E 0 80 4b 00
      E 0 80 55 00
      E 0 80 57 00
      E 201 80 61 00
      E 0 80 63 00
      E 159 90 48 60
      E 0 90 4a 60
      E 0 90 54 60
      E 0 90 56 60
      E 0 90 60 60
      E 0 90 62 60
      E 120 80 48 00
      E 0 80 4a 00
      E 0 80 54 00
      E 0 80 56 00
      E 200 80 60 00
      E 0 80 62 00
      E 160 90 54 60
      E 0 90 56 60
      E 0 90 60 60
      E 0 90 62 60
      E 40 80 54 00
      E 0 80 56 00
      E 0 80 60 00
      E 0 80 62 00
      E 201 90 3e 60
      E 0 90 49 60
      E 0 90 4a 60
      E 0 90 55 60
      E 0 90 56 60
      E 0 90 61 60
      E 0 90 62 60
      E 40 80 3e 00
      E 0 80 49 00
      E 0 80 4a 00
      E 0 80 55 00
      E 0 80 56 00
      E 0 80 61 00
      E 0 80 62 00
      E 320 90 55 60
      E 0 90 57 60
      E 0 90 61 60
      E 0 90 63 60
      E 120 80 55 00
      E 0 80 57 00
      E 160 80 61 00
      E 0 80 63 00
      E 79 90 49 60
      E 0 90 4b 60
      E 0 90 55 60
      E 0 90 57 60
      E 0 90 61 60
      E 0 90 63 60
      E 120 80 49 00
      E 0 80 4b 00
      E 0 80 55 00
      E 0 80 57 00
      E 201 80 61 00
      E 0 80 63 00
      E 159 90 3d 60
      E 0 90 48 60
      E 0 90 4a 60
      E 0 90 54 60
      E 0 90 56 60
      E 0 90 60 60
      E 0 90 62 60
      E 120 80 3d 00
      E 0 80 48 00
      E 0 80 4a 00
      E 0 80 54 00
      E 0 80 56 00
      E 200 80 60 00
      E 0 80 62 00
      E 160 90 54 60
      E 0 90 56 60
      E 0 90 60 60
      E 0 90 62 60
      E 40 80 54 00
      E 0 80 56 00
      E 0 80 60 00
      E 0 80 62 00
      E 201 90 49 60
      E 0 90 4a 60
      E 0 90 55 60
      E 0 90 56 60
      E 0 90 61 60
      E 0 90 62 60
      E 40 80 49 00
      E 0 80 4a 00
      E 0 80 55 00
      E 0 80 56 00
      E 0 80 61 00
      E 0 80 62 00
      E 320 90 55 60
      E 0 90 57 60
      E 0 90 61 60
      E 0 90 63 60
      E 120 80 55 00
      E 0 80 57 00
      E 160 80 61 00
      E 0 80 63 00
      E 79 90 3e 60
      E 0 90 49 60
      E 0 90 4b 60
      E 0 90 55 60
      E 0 90 57 60
      E 0 90 61 60
      E 0 90 63 60
      E 120 80 3e 00
      E 0 80 49 00
      E 0 80 4b 00
      E 0 80 55 00
      E 0 80 57 00
      E 201 80 61 00
      E 0 80 63 00
      E 159 90 48 60
      E 0 90 4a 60
      E 0 90 54 60
      E 0 90 56 60
      E 0 90 60 60
      E 0 90 62 60
      E 120 80 48 00
      E 0 80 4a 00
      E 0 80 54 00
      E 0 80 56 00
      E 200 80 60 00
      E 0 80 62 00
      E 160 90 54 60
      E 0 90 56 60
      E 0 90 60 60
      E 0 90 62 60
      E 40 80 54 00
      E 0 80 56 00
      E 0 80 60 00
      E 0 80 62 00
      E 201 90 3e 60
      E 0 90 49 60
      E 0 90 4a 60
      E 0 90 55 60
      E 0 90 56 60
      E 0 90 61 60
      E 0 90 62 60
      E 40 80 3e 00
      E 0 80 49 00
      E 0 80 4a 00
      E 0 80 55 00
      E 0 80 56 00
      E 0 80 61 00
      E 0 80 62 00
      E 320 90 55 60
      E 0 90 57 60
      E 0 90 61 60
      E 0 90 63 60
      E 120 80 55 00
      E 0 80 57 00
      E 160 80 61 00
      E 0 80 63 00
      E 79 90 49 60
      E 0 90 4b 60
      E 0 90 55 60
      E 0 90 57 60
      E 0 90 61 60
      E 0 90 63 60
      E 120 80 49 00
      E 0 80 4b 00
      E 0 80 55 00
      E 0 80 57 00
      E 201 80 61 00
      E 0 80 63 00
      E 159 90 3d 60
      E 0 90 48 60
      E 0 90 4a 60
      E 0 90 54 60
      E 0 90 56 60
      E 0 90 60 60
      E 0 90 62 60
      E 120 80 3d 00
      E 0 80 48 00
      E 0 80 4a 00
      E 0 80 54 00
      E 0 80 56 00
      E 200 80 60 00
      E 0 80 62 00
      E 160 90 54 60
      E 0 90 56 60
      E 0 90 60 60
      E 0 90 62 60
      E 40 80 54 00
      E 0 80 56 00
      E 0 80 60 00
      E 0 80 62 00
      E 201 90 49 60
      E 0 90 4a 60
      E 0 90 55 60
      E 0 90 56 60
      E 0 90 61 60
      E 0 90 62 60
      E 40 80 49 00
      E 0 80 4a 00
      E 0 80 55 00
      E 0 80 56 00
      E 0 80 61 00
      E 0 80 62 00
      E 320 90 55 60
      E 0 90 57 60
      E 0 90 61 60
      E 0 90 63 60
      E 120 80 55 00
      E 0 80 57 00
      E 160 80 61 00
      E 0 80 63 00
      E 79 90 3e 60
      E 0 90 49 60
      E 0 90 4b 60
      E 0 90 55 60
      E 0 90 57 60
      E 0 90 61 60
      E 0 90 63 60
      E 120 80 3e 00
      E 0 80 49 00
      E 0 80 4b 00
      E 0 80 55 00
      E 0 80 57 00
      E 201 80 61 00
      E 0 80 63 00
      E 159 90 48 60
      E 0 90 4a 60
      E 0 90 54 60
      E 0 90 56 60
      E 0 90 60 60
      E 0 90 62 60
      E 120 80 48 00
      E 0 80 4a 00
      E 0 80 54 00
      E 0 80 56 00
      E 200 80 60 00
      E 0 80 62 00
      E 160 90 54 60
      E 0 90 56 60
      E 0 90 60 60
      E 0 90 62 60
      E 40 80 54 00
      E 0 80 56 00
      E 0 80 60 00
      E 0 80 62 00
      E 201 90 3e 60
      E 0 90 49 60
      E 0 90 4a 60
      E 0 90 55 60
      E 0 90 56 60
      E 0 90 61 60
      E 0 90 62 60
      E 40 80 3e 00
      E 0 80 49 00
      E 0 80 4a 00
      E 0 80 55 00
      E 0 80 56 00
      E 0 80 61 00
      E 0 80 62 00
      E 320 90 55 60
      E 0 90 57 60
      E 0 90 61 60
      E 0 90 63 60
      E 120 80 55 00
      E 0 80 57 00
      E 160 80 61 00
      E 0 80 63 00
      E 79 90 49 60
      E 0 90 4b 60
      E 0 90 55 60
      E 0 90 57 60
      E 0 90 61 60
      E 0 90 63 60
      E 120 80 49 00
      E 0 80 4b 00
      E 0 80 55 00
      E 0 80 57 00
      E 201 80 61 00
      E 0 80 63 00
      E 159 90 3d 60
      E 0 90 48 60
      E 0 90 4a 60
      E 0 90 54 60
      E 0 90 56 60
      E 0 90 60 60
      E 0 90 62 60
      E 120 80 3d 00
      E 0 80 48 00
      E 0 80 4a 00
      E 0 80 54 00
      E 0 80 56 00
      E 200 80 60 00
      E 0 80 62 00
      E 160 90 54 60
      E 0 90 56 60
      E 0 90 60 60
      E 0 90 62 60
      E 40 80 54 00
      E 0 80 56 00
      E 0 80 60 00
      E 0 80 62 00
      E 201 90 49 60
      E 0 90 4a 60
      E 0 90 55 60
      E 0 90 56 60
      E 0 90 61 60
      E 0 90 62 60
      E 40 80 49 00
      E 0 80 4a 00
      E 0 80 55 00
      E 0 80 56 00
      E 0 80 61 00
      E 0 80 62 00
      E 320 90 55 60
      E 0 90 57 60
      E 0 90 61 60
      E 0 90 63 60
      E 120 80 55 00
      E 0 80 57 00
      E 160 80 61 00
      E 0 80 63 00
      E 79 90 3e 60
      E 0 90 49 60
      E 0 90 4b 60
      E 0 90 55 60
      E 0 90 57 60
      E 0 90 61 60
      E 0 90 63 60
      E 120 80 3e 00
      E 0 80 49 00
      E 0 80 4b 00
      E 0 80 55 00
      E 0 80 57 00
      E 201 80 61 00
      E 0 80 63 00
      E 40 90 74 5b
      E 119 90 48 60
      E 0 90 4a 60
      E 0 90 54 60
      E 0 90 56 60
      E 0 90 60 60
      E 0 90 62 60
      E 120 80 48 00
      E 0 80 4a 00
      E 0 80 54 00
      E 0 80 56 00
      E 200 80 60 00
      E 0 80 62 00
      E 160 90 54 60
      E 0 90 56 60
      E 0 90 60 60
      E 0 90 62 60
      E 40 80 54 00
      E 0 80 56 00
      E 0 80 60 00
      E 0 80 62 00
      E 201 90 3e 60
      E 0 90 49 60
      E 0 90 4a 60
      E 0 90 55 60
      E 0 90 56 60
      E 0 90 61 60
      E 0 90 62 60
      E 40 80 3e 00
      E 0 80 49 00
      E 0 80 4a 00
      E 0 80 55 00
      E 0 80 56 00
      E 0 80 61 00
      E 0 80 62 00
      E 320 90 55 60
      E 0 90 57 60
      E 0 90 61 60
      E 0 90 63 60
      E 120 80 55 00
      E 0 80 57 00
      E 160 80 61 00
      E 0 80 63 00
      E 79 90 49 60
      E 0 90 4b 60
      E 0 90 55 60
      E 0 90 57 60
      E 0 90 61 60
      E 0 90 63 60
      E 61 80 74 00
      E 59 80 49 00
      E 0 80 4b 00
      E 0 80 55 00
      E 0 80 57 00
      E 201 80 61 00
      E 0 80 63 00
      E 159 90 3d 60
      E 0 90 48 60
      E 0 90 4a 60
      E 0 90 54 60
      E 0 90 56 60
      E 0 90 60 60
      E 0 90 62 60
      E 120 80 3d 00
      E 0 80 48 00
      E 0 80 4a 00
      E 0 80 54 00
      E 0 80 56 00
      E 200 80 60 00
      E 0 80 62 00
      E 160 90 54 60
      E 0 90 56 60
      E 0 90 60 60
      E 0 90 62 60
      E 40 80 54 00
      E 0 80 56 00
      E 0 80 60 00
      E 0 80 62 00
      E 201 90 49 60
      E 0 90 4a 60
      E 0 90 55 60
      E 0 90 56 60
      E 0 90 61 60
      E 0 90 62 60
      E 40 80 49 00
      E 0 80 4a 00
      E 0 80 55 00
      E 0 80 56 00
      E 0 80 61 00
      E 0 80 62 00
      E 320 90 55 60
      E 0 90 57 60
      E 0 90 61 60
      E 0 90 63 60
      E 120 80 55 00
      E 0 80 57 00
      E 160 80 61 00
      E 0 80 63 00
      E 79 90 3e 60
      E 0 90 49 60
      E 0 90 4b 60
      E 0 90 55 60
      E 0 90 57 60
      E 0 90 61 60
      E 0 90 63 60
      E 120 80 3e 00
      E 0 80 49 00
      E 0 80 4b 00
      E 0 80 55 00
      E 0 80 57 00
      E 201 80 61 00
      E 0 80 63 00
      E 159 90 48 60
      E 0 90 4a 60
      E 0 90 54 60
      E 0 90 56 60
      E 0 90 60 60
      E 0 90 62 60
      E 120 80 48 00
      E 0 80 4a 00
      E 0 80 54 00
      E 0 80 56 00
      E 200 80 60 00
      E 0 80 62 00
      E 160 90 54 60
      E 0 90 56 60
      E 0 90 60 60
      E 0 90 62 60
      E 40 80 54 00
      E 0 80 56 00
      E 0 80 60 00
      E 0 80 62 00
      E 201 90 3e 60
      E 0 90 49 60
      E 0 90 4a 60
      E 0 90 55 60
      E 0 90 56 60
      E 0 90 61 60
      E 0 90 62 60
      E 40 80 3e 00
      E 0 80 49 00
      E 0 80 4a 00
      E 0 80 55 00
      E 0 80 56 00
      E 0 80 61 00
      E 0 80 62 00
      E 320 90 55 60
      E 0 90 57 60
      E 0 90 61 60
      E 0 90 63 60
      E 120 80 55 00
      E 0 80 57 00
      E 160 80 61 00
      E 0 80 63 00
      E 79 90 49 60
      E 0 90 4b 60
      E 0 90 55 60
      E 0 90 57 60
      E 0 90 61 60
      E 0 90 63 60
      E 120 80 49 00
      E 0 80 4b 00
      E 0 80 55 00
      E 0 80 57 00
      E 201 80 61 00
      E 0 80 63 00
      E 159 90 3d 60
      E 0 90 48 60
      E 0 90 4a 60
      E 0 90 54 60
      E 0 90 56 60
      E 0 90 60 60
      E 0 90 62 60
      E 120 80 3d 00
      E 0 80 48 00
      E 0 80 4a 00
      E 0 80 54 00
      E 0 80 56 00
      E 200 80 60 00
      E 0 80 62 00
      E 160 90 54 60
      E 0 90 56 60
      E 0 90 60 60
      E 0 90 62 60
      E 40 80 54 00
      E 0 80 56 00
      E 0 80 60 00
      E 0 80 62 00
      E 201 90 49 60
      E 0 90 4a 60
      E 0 90 55 60
      E 0 90 56 60
      E 0 90 61 60
      E 0 90 62 60
      E 40 80 49 00
      E 0 80 4a 00
      E 0 80 55 00
      E 0 80 56 00
      E 0 80 61 00
      E 0 80 62 00
      E 320 90 55 60
      E 0 90 57 60
      E 0 90 61 60
      E 0 90 63 60
      E 120 80 55 00
      E 0 80 57 00
      E 160 80 61 00
      E 0 80 63 00
      E 79 90 3e 60
      E 0 90 49 60
      E 0 90 4b 60
      E 0 90 55 60
      E 0 90 57 60
      E 0 90 61 60
      E 0 90 63 60
      E 120 80 3e 00
      E 0 80 49 00
      E 0 80 4b 00
      E 0 80 55 00
      E 0 80 57 00
      E 201 80 61 00
      E 0 80 63 00
      E 159 90 48 60
      E 0 90 4a 60
      E 0 90 54 60
      E 0 90 56 60
      E 0 90 60 60
      E 0 90 62 60
      E 120 80 48 00
      E 0 80 4a 00
      E 0 80 54 00
      E 0 80 56 00
      E 200 80 60 00
      E 0 80 62 00
      E 160 90 54 60
      E 0 90 56 60
      E 0 90 60 60
      E 0 90 62 60
      E 40 80 54 00
      E 0 80 56 00
      E 0 80 60 00
      E 0 80 62 00
      E 201 90 3e 60
      E 0 90 49 60
      E 0 90 4a 60
      E 0 90 55 60
      E 0 90 56 60
      E 0 90 61 60
      E 0 90 62 60
      E 40 80 3e 00
      E 0 80 49 00
      E 0 80 4a 00
      E 0 80 55 00
      E 0 80 56 00
      E 0 80 61 00
      E 0 80 62 00
      E 320 90 55 60
      E 0 90 57 60
      E 0 90 61 60
      E 0 90 63 60
      E 120 80 55 00
      E 0 80 57 00
      E 160 80 61 00
      E 0 80 63 00
      E 79 90 49 60
      E 0 90 4b 60
      E 0 90 55 60
      E 0 90 57 60
      E 0 90 61 60
      E 0 90 63 60
      E 120 80 49 00
      E 0 80 4b 00
      E 0 80 55 00
      E 0 80 57 00
      E 201 80 61 00
      E 0 80 63 00
      E 1840 90 3e 60
      E 0 90 49 60
      E 0 90 4b 60
      E 0 90 55 60
      E 0 90 57 60
      E 0 90 61 60
      E 0 90 62 60
      E 0 90 63 60
      E 480 80 3e 00
      E 0 80 49 00
      E 0 80 4b 00
      E 0 80 55 00
      E 0 80 57 00
      E 0 80 61 00
      E 0 80 62 00
      E 0 80 63 00
      E 480 90 3e 60
      E 0 90 49 60
      E 0 90 4a 60
      E 0 90 54 60
      E 0 90 57 60
      E 0 90 60 60
      E 0 90 62 60
      E 0 90 63 60
      E 480 80 3e 00
      E 0 80 49 00
      E 0 80 4a 00
      E 0 80 54 00
      E 0 80 57 00
      E 0 80 60 00
      E 0 80 62 00
      E 0 80 63 00
      E 960 90 3e 60
      E 0 90 49 60
      E 0 90 4b 60
      E 0 90 55 60
      E 0 90 57 60
      E 0 90 61 60
      E 0 90 62 60
      E 0 90 63 60
      E 480 80 3e 00
      E 0 80 49 00
      E 0 80 4b 00
      E 0 80 55 00
      E 0 80 57 00
      E 0 80 61 00
      E 0 80 62 00
      E 0 80 63 00
      E 960 90 3d 60
      E 0 90 48 60
      E 0 90 4a 60
      E 0 90 54 60
      E 0 90 56 60
      E 0 90 60 60
      E 0 90 61 60
      E 0 90 63 60
      E 480 80 3d 00
      E 0 80 48 00
      E 0 80 4a 00
      E 0 80 54 00
      E 0 80 56 00
      E 0 80 60 00
      E 0 80 61 00
      E 0 80 63 00
      E 480 90 3d 60
      E 0 90 48 60
      E 0 90 4a 60
      E 0 90 54 60
      E 0 90 56 60
      E 0 90 60 60
      E 0 90 61 60
      E 0 90 63 60
      E 481 80 3d 00
      E 0 80 48 00
      E 0 80 4a 00
      E 0 80 54 00
      E 0 80 56 00
      E 0 80 60 00
      E 0 80 61 00
      E 0 80 63 00
      E 959 90 3e 60
      E 0 90 49 60
      E 0 90 4a 60
      E 0 90 54 60
      E 0 90 57 60
      E 0 90 60 60
      E 0 90 62 60
      E 0 90 63 60
      E 480 80 3e 00
      E 0 80 49 00
      E 0 80 4a 00
      E 0 80 54 00
      E 0 80 57 00
      E 0 80 60 00
      E 0 80 62 00
      E 0 80 63 00
      E 960 90 3e 60
      E 0 90 49 60
      E 0 90 4b 60
      E 0 90 55 60
      E 0 90 57 60
      E 0 90 61 60
      E 0 90 62 60
      E 0 90 63 60
      E 480 80 3e 00
      E 0 80 49 00
      E 0 80 4b 00
      E 0 80 55 00
      E 0 80 57 00
      E 0 80 61 00
      E 0 80 62 00
      E 0 80 63 00
      E 480 90 3e 60
      E 0 90 49 60
      E 0 90 4a 60
      E 0 90 54 60
      E 0 90 57 60
      E 0 90 60 60
      E 0 90 62 60
      E 0 90 63 60
      E 420 90 74 60
      E 60 80 3e 00
      E 0 80 49 00
      E 0 80 4a 00
      E 0 80 54 00
      E 0 80 57 00
      E 0 80 60 00
      E 0 80 62 00
      E 0 80 63 00
      E 960 90 3e 60
      E 0 90 49 60
      E 0 90 4a 60
      E 0 90 54 60
      E 0 90 57 60
      E 0 90 60 60
      E 0 90 62 60
      E 0 90 63 60
      E 180 80 74 00
      E 300 80 3e 00
      E 0 80 49 00
      E 0 80 4a 00
      E 0 80 54 00
      E 0 80 57 00
      E 0 80 60 00
      E 0 80 62 00
      E 0 80 63 00
      E 960 90 3d 60
      E 0 90 48 60
      E 0 90 4a 60
      E 0 90 54 60
      E 0 90 56 60
      E 0 90 60 60
      E 0 90 61 60
      E 0 90 63 60
      E 480 80 3d 00
      E 0 80 48 00
      E 0 80 4a 00
      E 1 80 54 00
      E 0 80 56 00
      E 0 80 60 00
      E 0 80 61 00
      E 0 80 63 00
      E 479 90 3d 60
      E 0 90 48 60
      E 0 90 4a 60
      E 0 90 54 60
      E 0 90 56 60
      E 0 90 60 60
      E 0 90 61 60
      E 0 90 63 60
      E 480 80 3d 00
      E 0 80 48 00
      E 0 80 4a 00
      E 1 80 54 00
      E 0 80 56 00
      E 0 80 60 00
      E 0 80 61 00
      E 0 80 63 00
      E 479 90 4b 60
      E 0 90 4c 60
      E 0 90 57 60
      E 0 90 58 60
      E 0 90 62 60
      E 0 90 63 60
      E 0 90 64 60
      E 120 80 4b 00
      E 0 80 4c 00
      E 0 80 57 00
      E 0 80 58 00
      E 180 80 62 00
      E 0 80 63 00
      E 0 80 64 00
      E 180 90 3e 60
      E 0 90 49 60
      E 0 90 4a 60
      E 0 90 54 60
      E 0 90 57 60
      E 0 90 60 60
      E 0 90 62 60
      E 0 90 63 60
      E 120 80 3e 00
      E 0 80 49 00
      E 0 80 4a 00
      E 0 80 54 00
      E 0 80 57 00
      E 180 80 60 00
      E 0 80 62 00
      E 0 80 63 00
      E 180 90 3e 60
      E 0 90 49 60
      E 0 90 4a 60
      E 0 90 55 60
      E 0 90 56 60
      E 0 90 61 60
      E 0 90 62 60
      E 40 80 3e 00
      E 0 80 49 00
      E 0 80 4a 00
      E 0 80 55 00
      E 0 80 56 00
      E 0 80 61 00
      E 0 80 62 00
      E 320 90 55 60
      E 0 90 57 60
      E 0 90 61 60
      E 0 90 63 60
      E 120 80 55 00
      E 0 80 57 00
      E 160 80 61 00
      E 0 80 63 00
      E 80 90 49 60
      E 0 90 4b 60
      E 0 90 55 60
      E 0 90 57 60
      E 0 90 61 60
      E 0 90 63 60
      E 120 80 49 00
      E 0 80 4b 00
      E 0 80 55 00
      E 0 80 57 00
      E 160 80 61 00
      E 0 80 63 00
      E 200 90 3d 60
      E 0 90 48 60
      E 0 90 4a 60
      E 0 90 54 60
      E 0 90 56 60
      E 0 90 60 60
      E 0 90 62 60
      E 120 80 3d 00
      E 0 80 48 00
      E 0 80 4a 00
      E 0 80 54 00
      E 0 80 56 00
      E 200 80 60 00
      E 0 80 62 00
      E 160 90 54 60
      E 0 90 56 60
      E 0 90 60 60
      E 0 90 62 60
      E 40 80 54 00
      E 0 80 56 00
      E 0 80 60 00
      E 0 80 62 00
      E 200 90 49 60
      E 0 90 4a 60
      E 0 90 55 60
      E 0 90 56 60
      E 0 90 61 60
      E 0 90 62 60
      E 40 80 49 00
      E 0 80 4a 00
      E 0 80 55 00
      E 0 80 56 00
      E 0 80 61 00
      E 0 80 62 00
      E 320 90 55 60
      E 0 90 57 60
      E 0 90 61 60
      E 0 90 63 60
      E 120 80 55 00
      E 0 80 57 00
      E 159 80 61 00
      E 0 80 63 00
      E 80 90 3e 60
      E 0 90 49 60
      E 0 90 4b 60
      E 0 90 55 60
      E 0 90 57 60
      E 0 90 61 60
      E 0 90 63 60
      E 120 80 3e 00
      E 0 80 49 00
      E 0 80 4b 00
      E 0 80 55 00
      E 0 80 57 00
      E 160 80 61 00
      E 0 80 63 00
      E 200 90 48 60
      E 0 90 4a 60
      E 0 90 54 60
      E 0 90 56 60
      E 0 90 60 60
      E 0 90 62 60
      E 120 80 48 00
      E 0 80 4a 00
      E 0 80 54 00
      E 0 80 56 00
      E 200 80 60 00
      E 0 80 62 00
      E 160 90 54 60
      E 0 90 56 60
      E 0 90 60 60
      E 0 90 62 60
      E 40 80 54 00
      E 0 80 56 00
      E 0 80 60 00
      E 0 80 62 00
      E 201 90 3e 60
      E 0 90 49 60
      E 0 90 4a 60
      E 0 90 55 60
      E 0 90 56 60
      E 0 90 61 60
      E 0 90 62 60
      E 40 80 3e 00
      E 0 80 49 00
      E 0 80 4a 00
      E 0 80 55 00
      E 0 80 56 00
      E 0 80 61 00
      E 0 80 62 00
      E 321 90 55 60
      E 0 90 57 60
      E 0 90 61 60
      E 0 90 63 60
      E 120 80 55 00
      E 0 80 57 00
      E 159 80 61 00
      E 0 80 63 00
      E 79 90 49 60
      E 0 90 4b 60
      E 0 90 55 60
      E 0 90 57 60
      E 0 90 61 60
      E 0 90 63 60
      E 120 80 49 00
      E 0 80 4b 00
      E 0 80 55 00
      E 0 80 57 00
      E 160 80 61 00
      E 0 80 63 00
      E 200 90 3d 60
      E 0 90 48 60
      E 0 90 4a 60
      E 0 90 54 60
      E 0 90 56 60
      E 0 90 60 60
      E 0 90 62 60
      E 120 80 3d 00
      E 0 80 48 00
      E 0 80 4a 00
      E 0 80 54 00
      E 0 80 56 00
      E 200 80 60 00
      E 0 80 62 00
      E 160 90 54 60
      E 0 90 56 60
      E 0 90 60 60
      E 0 90 62 60
      E 40 80 54 00
      E 0 80 56 00
      E 0 80 60 00
      E 0 80 62 00
      E 201 90 49 60
      E 0 90 4a 60
      E 0 90 55 60
      E 0 90 56 60
      E 0 90 61 60
      E 0 90 62 60
      E 40 80 49 00
      E 0 80 4a 00
      E 0 80 55 00
      E 0 80 56 00
      E 0 80 61 00
      E 0 80 62 00
      E 321 90 55 60
      E 0 90 57 60
      E 0 90 61 60
      E 0 90 63 60
      E 120 80 55 00
      E 0 80 57 00
      E 159 80 61 00
      E 0 80 63 00
      E 79 90 3e 60
      E 0 90 49 60
      E 0 90 4b 60
      E 0 90 55 60
      E 0 90 57 60
      E 0 90 61 60
      E 0 90 63 60
      E 120 80 3e 00
      E 0 80 49 00
      E 0 80 4b 00
      E 0 80 55 00
      E 0 80 57 00
      E 160 80 61 00
      E 0 80 63 00
      E 200 90 48 60
      E 0 90 4a 60
      E 0 90 54 60
      E 0 90 56 60
      E 0 90 60 60
      E 0 90 62 60
      E 120 80 48 00
      E 0 80 4a 00
      E 0 80 54 00
      E 0 80 56 00
      E 200 80 60 00
      E 0 80 62 00
      E 160 90 54 60
      E 0 90 56 60
      E 0 90 60 60
      E 0 90 62 60
      E 40 80 54 00
      E 0 80 56 00
      E 0 80 60 00
      E 0 80 62 00
      E 201 90 3e 60
      E 0 90 49 60
      E 0 90 4a 60
      E 0 90 55 60
      E 0 90 56 60
      E 0 90 61 60
      E 0 90 62 60
      E 40 80 3e 00
      E 0 80 49 00
      E 0 80 4a 00
      E 0 80 55 00
      E 0 80 56 00
      E 0 80 61 00
      E 0 80 62 00
      E 320 90 55 60
      E 0 90 57 60
      E 0 90 61 60
      E 0 90 63 60
      E 120 80 55 00
      E 0 80 57 00
      E 159 80 61 00
      E 0 80 63 00
      E 80 90 49 60
      E 0 90 4b 60
      E 0 90 55 60
      E 0 90 57 60
      E 0 90 61 60
      E 0 90 63 60
      E 120 80 49 00
      E 0 80 4b 00
      E 0 80 55 00
      E 0 80 57 00
      E 160 80 61 00
      E 0 80 63 00
      E 200 90 3d 60
      E 0 90 48 60
      E 0 90 4a 60
      E 0 90 54 60
      E 0 90 56 60
      E 0 90 60 60
      E 0 90 62 60
      E 120 80 3d 00
      E 0 80 48 00
      E 0 80 4a 00
      E 0 80 54 00
      E 0 80 56 00
      E 200 80 60 00
      E 0 80 62 00
      E 160 90 54 60
      E 0 90 56 60
      E 0 90 60 60
      E 0 90 62 60
      E 40 80 54 00
      E 0 80 56 00
      E 0 80 60 00
      E 0 80 62 00
      E 201 90 49 60
      E 0 90 4a 60
      E 0 90 55 60
      E 0 90 56 60
      E 0 90 61 60
      E 0 90 62 60
      E 40 80 49 00
      E 0 80 4a 00
      E 0 80 55 00
      E 0 80 56 00
      E 0 80 61 00
      E 0 80 62 00
      E 320 90 55 60
      E 0 90 57 60
      E 0 90 61 60
      E 0 90 63 60
      E 120 80 55 00
      E 0 80 57 00
      E 159 80 61 00
      E 0 80 63 00
      E 80 90 3e 60
      E 0 90 49 60
      E 0 90 4b 60
      E 0 90 55 60
      E 0 90 57 60
      E 0 90 61 60
      E 0 90 63 60
      E 120 80 3e 00
      E 0 80 49 00
      E 0 80 4b 00
      E 0 80 55 00
      E 0 80 57 00
      E 160 80 61 00
      E 0 80 63 00
      E 200 90 48 60
      E 0 90 4a 60
      E 0 90 54 60
      E 0 90 56 60
      E 0 90 60 60
      E 0 90 62 60
      E 120 80 48 00
      E 0 80 4a 00
      E 0 80 54 00
      E 0 80 56 00
      E 200 80 60 00
      E 0 80 62 00
      E 160 90 54 60
      E 0 90 56 60
      E 0 90 60 60
      E 0 90 62 60
      E 40 80 54 00
      E 0 80 56 00
      E 0 80 60 00
      E 0 80 62 00
      E 201 90 3e 60
      E 0 90 49 60
      E 0 90 4a 60
      E 0 90 55 60
      E 0 90 56 60
      E 0 90 61 60
      E 0 90 62 60
      E 40 80 3e 00
      E 0 80 49 00
      E 0 80 4a 00
      E 0 80 55 00
      E 0 80 56 00
      E 0 80 61 00
      E 0 80 62 00
      E 320 90 55 60
      E 0 90 57 60
      E 0 90 61 60
      E 0 90 63 60
      E 0 90 74 60
      E 120 80 55 00
      E 0 80 57 00
      E 159 80 61 00
      E 0 80 63 00
      E 80 90 49 60
      E 0 90 4b 60
      E 0 90 55 60
      E 0 90 57 60
      E 0 90 61 60
      E 0 90 63 60
      E 120 80 49 00
      E 0 80 4b 00
      E 0 80 55 00
      E 0 80 57 00
      E 160 80 61 00
      E 0 80 63 00
      E 200 90 3d 60
      E 0 90 48 60
      E 0 90 4a 60
      E 0 90 54 60
      E 0 90 56 60
      E 0 90 60 60
      E 0 90 62 60
      E 120 80 3d 00
      E 0 80 48 00
      E 0 80 4a 00
      E 0 80 54 00
      E 0 80 56 00
      E 200 80 60 00
      E 0 80 62 00
      E 1 80 74 00
      E 159 90 54 60
      E 0 90 56 60
      E 0 90 60 60
      E 0 90 62 60
      E 40 80 54 00
      E 0 80 56 00
      E 0 80 60 00
      E 0 80 62 00
      E 201 90 49 60
      E 0 90 4a 60
      E 0 90 55 60
      E 0 90 56 60
      E 0 90 61 60
      E 0 90 62 60
      E 40 80 49 00
      E 0 80 4a 00
      E 0 80 55 00
      E 0 80 56 00
      E 0 80 61 00
      E 0 80 62 00
      E 320 90 55 60
      E 0 90 57 60
      E 0 90 61 60
      E 0 90 63 60
      E 120 80 55 00
      E 0 80 57 00
      E 159 80 61 00
      E 0 80 63 00
      E 80 90 3e 60
      E 0 90 49 60
      E 0 90 4b 60
      E 0 90 55 60
      E 0 90 57 60
      E 0 90 61 60
      E 0 90 63 60
      E 120 80 3e 00
      E 0 80 49 00
      E 0 80 4b 00
      E 0 80 55 00
      E 0 80 57 00
      E 160 80 61 00
      E 0 80 63 00
      E 200 90 48 60
      E 0 90 4a 60
      E 0 90 54 60
      E 0 90 56 60
      E 0 90 60 60
      E 0 90 62 60
      E 120 80 48 00
      E 0 80 4a 00
      E 0 80 54 00
      E 0 80 56 00
      E 200 80 60 00
      E 0 80 62 00
      E 160 90 54 60
      E 0 90 56 60
      E 0 90 60 60
      E 0 90 62 60
      E 40 80 54 00
      E 0 80 56 00
      E 0 80 60 00
      E 0 80 62 00
      E 201 90 3e 60
      E 0 90 49 60
      E 0 90 4a 60
      E 0 90 55 60
      E 0 90 56 60
      E 0 90 61 60
      E 0 90 62 60
      E 40 80 3e 00
      E 0 80 49 00
      E 0 80 4a 00
      E 0 80 55 00
      E 0 80 56 00
      E 0 80 61 00
      E 0 80 62 00
      E 320 90 55 60
      E 0 90 57 60
      E 0 90 61 60
      E 0 90 63 60
      E 120 80 55 00
      E 0 80 57 00
      E 159 80 61 00
      E 0 80 63 00
      E 80 90 49 60
      E 0 90 4b 60
      E 0 90 55 60
      E 0 90 57 60
      E 0 90 61 60
      E 0 90 63 60
      E 120 80 49 00
      E 0 80 4b 00
      E 0 80 55 00
      E 0 80 57 00
      E 160 80 61 00
      E 0 80 63 00
      E 200 90 3d 60
      E 0 90 48 60
      E 0 90 4a 60
      E 0 90 54 60
      E 0 90 56 60
      E 0 90 60 60
      E 0 90 62 60
      E 120 80 3d 00
      E 0 80 48 00
      E 0 80 4a 00
      E 0 80 54 00
      E 0 80 56 00
      E 200 80 60 00
      E 0 80 62 00
      E 160 90 54 60
      E 0 90 56 60
      E 0 90 60 60
      E 0 90 62 60
      E 40 80 54 00
      E 0 80 56 00
      E 0 80 60 00
      E 0 80 62 00
      E 201 90 49 60
      E 0 90 4a 60
      E 0 90 55 60
      E 0 90 56 60
      E 0 90 61 60
      E 0 90 62 60
      E 40 80 49 00
      E 0 80 4a 00
      E 0 80 55 00
      E 0 80 56 00
      E 0 80 61 00
      E 0 80 62 00
      E 320 90 55 60
      E 0 90 57 60
      E 0 90 61 60
      E 0 90 63 60
      E 120 80 55 00
      E 0 80 57 00
      E 159 80 61 00
      E 0 80 63 00
      E 80 90 3e 60
      E 0 90 49 60
      E 0 90 4b 60
      E 0 90 55 60
      E 0 90 57 60
      E 0 90 61 60
      E 0 90 63 60
      E 120 80 3e 00
      E 0 80 49 00
      E 0 80 4b 00
      E 0 80 55 00
      E 0 80 57 00
      E 160 80 61 00
      E 0 80 63 00
      E 200 90 48 60
      E 0 90 4a 60
      E 0 90 54 60
      E 0 90 56 60
      E 0 90 60 60
      E 0 90 62 60
      E 120 80 48 00
      E 0 80 4a 00
      E 0 80 54 00
      E 0 80 56 00
      E 200 80 60 00
      E 0 80 62 00
      E 160 90 54 60
      E 0 90 56 60
      E 0 90 60 60
      E 0 90 62 60
      E 40 80 54 00
      E 0 80 56 00
      E 0 80 60 00
      E 0 80 62 00
      E 201 90 3e 60
      E 0 90 49 60
      E 0 90 4a 60
      E 0 90 55 60
      E 0 90 56 60
      E 0 90 61 60
      E 0 90 62 60
      E 40 80 3e 00
      E 0 80 49 00
      E 0 80 4a 00
      E 0 80 55 00
      E 0 80 56 00
      E 0 80 61 00
      E 0 80 62 00
      E 320 90 55 60
      E 0 90 57 60
      E 0 90 61 60
      E 0 90 63 60
      E 120 80 55 00
      E 0 80 57 00
      E 159 80 61 00
      E 0 80 63 00
      E 80 90 49 60
      E 0 90 4b 60
      E 0 90 55 60
      E 0 90 57 60
      E 0 90 61 60
      E 0 90 63 60
      E 120 80 49 00
      E 0 80 4b 00
      E 0 80 55 00
      E 0 80 57 00
      E 160 80 61 00
      E 0 80 63 00
      E 200 90 3d 60
      E 0 90 48 60
      E 0 90 4a 60
      E 0 90 54 60
      E 0 90 56 60
      E 0 90 60 60
      E 0 90 62 60
      E 120 80 3d 00
      E 0 80 48 00
      E 0 80 4a 00
      E 0 80 54 00
      E 0 80 56 00
      E 200 80 60 00
      E 0 80 62 00
      E 160 90 54 60
      E 0 90 56 60
      E 0 90 60 60
      E 0 90 62 60
      E 40 80 54 00
      E 0 80 56 00
      E 0 80 60 00
      E 0 80 62 00
      E 201 90 49 60
      E 0 90 4a 60
      E 0 90 55 60
      E 0 90 56 60
      E 0 90 61 60
      E 0 90 62 60
      E 40 80 49 00
      E 0 80 4a 00
      E 0 80 55 00
      E 0 80 56 00
      E 0 80 61 00
      E 0 80 62 00
      E 320 90 55 60
      E 0 90 57 60
      E 0 90 61 60
      E 0 90 63 60
      E 120 80 55 00
      E 0 80 57 00
      E 159 80 61 00
      E 0 80 63 00
      E 80 90 3e 60
      E 0 90 49 60
      E 0 90 4b 60
      E 0 90 55 60
      E 0 90 57 60
      E 0 90 61 60
      E 0 90 63 60
      E 120 80 3e 00
      E 0 80 49 00
      E 0 80 4b 00
      E 0 80 55 00
      E 0 80 57 00
      E 160 80 61 00
      E 0 80 63 00
      E 200 90 48 60
      E 0 90 4a 60
      E 0 90 54 60
      E 0 90 56 60
      E 0 90 60 60
      E 0 90 62 60
      E 120 80 48 00
      E 0 80 4a 00
      E 0 80 54 00
      E 0 80 56 00
      E 200 80 60 00
      E 0 80 62 00
      E 160 90 54 60
      E 0 90 56 60
      E 0 90 60 60
      E 0 90 62 60
      E 40 80 54 00
      E 0 80 56 00
      E 0 80 60 00
      E 0 80 62 00
      E 201 90 3e 60
      E 0 90 49 60
      E 0 90 4a 60
      E 0 90 55 60
      E 0 90 56 60
      E 0 90 61 60
      E 0 90 62 60
      E 40 80 3e 00
      E 0 80 49 00
      E 0 80 4a 00
      E 0 80 55 00
      E 0 80 56 00
      E 0 80 61 00
      E 0 80 62 00
      E 321 90 55 60
      E 0 90 57 60
      E 0 90 61 60
      E 0 90 63 60
      E 120 80 55 00
      E 0 80 57 00
      E 159 80 61 00
      E 0 80 63 00
      E 79 90 49 60
      E 0 90 4b 60
      E 0 90 55 60
      E 0 90 57 60
      E 0 90 61 60
      E 0 90 63 60
      E 120 80 49 00
      E 0 80 4b 00
      E 0 80 55 00
      E 0 80 57 00
      E 160 80 61 00
      E 0 80 63 00
      E 200 90 3d 60
      E 0 90 48 60
      E 0 90 4a 60
      E 0 90 54 60
      E 0 90 56 60
      E 0 90 60 60
      E 0 90 62 60
      E 120 80 3d 00
      E 0 80 48 00
      E 0 80 4a 00
      E 0 80 54 00
      E 0 80 56 00
      E 200 80 60 00
      E 0 80 62 00
      E 160 90 54 60
      E 0 90 56 60
      E 0 90 60 60
      E 0 90 62 60
      E 40 80 54 00
      E 0 80 56 00
      E 0 80 60 00
      E 0 80 62 00
      E 201 90 49 60
      E 0 90 4a 60
      E 0 90 55 60
      E 0 90 56 60
      E 0 90 61 60
      E 0 90 62 60
      E 40 80 49 00
      E 0 80 4a 00
      E 0 80 55 00
      E 0 80 56 00
      E 0 80 61 00
      E 0 80 62 00
      E 320 90 55 60
      E 0 90 57 60
      E 0 90 61 60
      E 0 90 63 60
      E 120 80 55 00
      E 0 80 57 00
      E 159 80 61 00
      E 0 80 63 00
      E 80 90 3e 60
      E 0 90 49 60
      E 0 90 4b 60
      E 0 90 55 60
      E 0 90 57 60
      E 0 90 61 60
      E 0 90 63 60
      E 120 80 3e 00
      E 0 80 49 00
      E 0 80 4b 00
      E 0 80 55 00
      E 0 80 57 00
      E 160 80 61 00
      E 0 80 63 00
      E 200 90 48 60
      E 0 90 4a 60
      E 0 90 54 60
      E 0 90 56 60
      E 0 90 60 60
      E 0 90 62 60
      E 120 80 48 00
      E 0 80 4a 00
      E 0 80 54 00
      E 0 80 56 00
      E 200 80 60 00
      E 0 80 62 00
      E 160 90 54 60
      E 0 90 56 60
      E 0 90 60 60
      E 0 90 62 60
      E 40 80 54 00
      E 0 80 56 00
      E 0 80 60 00
      E 0 80 62 00
      E 201 90 3e 60
      E 0 90 49 60
      E 0 90 4a 60
      E 0 90 55 60
      E 0 90 56 60
      E 0 90 61 60
      E 0 90 62 60
      E 40 80 3e 00
      E 0 80 49 00
      E 0 80 4a 00
      E 0 80 55 00
      E 0 80 56 00
      E 0 80 61 00
      E 0 80 62 00
      E 321 90 55 60
      E 0 90 57 60
      E 0 90 61 60
      E 0 90 63 60
      E 120 80 55 00
      E 0 80 57 00
      E 159 80 61 00
      E 0 80 63 00
      E 79 90 49 60
      E 0 90 4b 60
      E 0 90 55 60
      E 0 90 57 60
      E 0 90 61 60
      E 0 90 63 60
      E 120 80 49 00
      E 0 80 4b 00
      E 0 80 55 00
      E 0 80 57 00
      E 160 80 61 00
      E 0 80 63 00
      E 200 90 3d 60
      E 0 90 48 60
      E 0 90 4a 60
      E 0 90 54 60
      E 0 90 56 60
      E 0 90 60 60
      E 0 90 62 60
      E 120 80 3d 00
      E 0 80 48 00
      E 0 80 4a 00
      E 0 80 54 00
      E 0 80 56 00
      E 200 80 60 00
      E 0 80 62 00
      E 160 90 54 60
      E 0 90 56 60
      E 0 90 60 60
      E 0 90 62 60
      E 40 80 54 00
      E 0 80 56 00
      E 0 80 60 00
      E 0 80 62 00
      E 201 90 49 60
      E 0 90 4a 60
      E 0 90 55 60
      E 0 90 56 60
      E 0 90 61 60
      E 0 90 62 60
      E 40 80 49 00
      E 0 80 4a 00
      E 0 80 55 00
      E 0 80 56 00
      E 0 80 61 00
      E 0 80 62 00
      E 321 90 55 60
      E 0 90 57 60
      E 0 90 61 60
      E 0 90 63 60
      E 120 80 55 00
      E 0 80 57 00
      E 159 80 61 00
      E 0 80 63 00
      E 79 90 3e 60
      E 0 90 49 60
      E 0 90 4b 60
      E 0 90 55 60
      E 0 90 57 60
      E 0 90 61 60
      E 0 90 63 60
      E 120 80 3e 00
      E 0 80 49 00
      E 0 80 4b 00
      E 0 80 55 00
      E 0 80 57 00
      E 160 80 61 00
      E 0 80 63 00
      E 1881 90 3e 60
      E 0 90 49 60
      E 0 90 4b 60
      E 0 90 55 60
      E 0 90 57 60
      E 0 90 61 60
      E 0 90 62 60
      E 0 90 63 60
      E 480 80 3e 00
      E 0 80 49 00
      E 0 80 4b 00
      E 0 80 55 00
      E 0 80 57 00
      E 0 80 61 00
      E 0 80 62 00
      E 0 80 63 00
      E 0 90 74 60
      E 480 90 3e 60
      E 0 90 49 60
      E 0 90 4a 60
      E 0 90 54 60
      E 0 90 57 60
      E 0 90 60 60
      E 0 90 62 60
      E 0 90 63 60
      E 120 80 74 00
      E 360 80 3e 00
      E 0 80 49 00
      E 0 80 4a 00
      E 0 80 54 00
      E 0 80 57 00
      E 0 80 60 00
      E 0 80 62 00
      E 0 80 63 00
      E 960 90 3e 60
      E 0 90 49 60
      E 0 90 4b 60
      E 0 90 55 60
      E 0 90 57 60
      E 0 90 61 60
      E 0 90 62 60
      E 0 90 63 60
      E 480 80 3e 00
      E 0 80 49 00
      E 0 80 4b 00
      E 0 80 55 00
      E 0 80 57 00
      E 0 80 61 00
      E 0 80 62 00
      E 0 80 63 00
      E 960 90 3d 60
      E 0 90 48 60
      E 0 90 4a 60
      E 0 90 54 60
      E 0 90 56 60
      E 0 90 60 60
      E 0 90 61 60
      E 0 90 63 60
      E 480 80 3d 00
      E 0 80 48 00
      E 0 80 4a 00
      E 0 80 54 00
      E 0 80 56 00
      E 0 80 60 00
      E 0 80 61 00
      E 0 80 63 00
      E 480 90 3d 60
      E 0 90 48 60
      E 0 90 4a 60
      E 0 90 54 60
      E 0 90 56 60
      E 0 90 60 60
      E 0 90 61 60
      E 0 90 63 60
      E 481 80 3d 00
      E 0 80 48 00
      E 0 80 4a 00
      E 0 80 54 00
      E 0 80 56 00
      E 0 80 60 00
      E 0 80 61 00
      E 0 80 63 00
      E 959 90 3e 60
      E 0 90 49 60
      E 0 90 4a 60
      E 0 90 54 60
      E 0 90 57 60
      E 0 90 60 60
      E 0 90 62 60
      E 0 90 63 60
      E 480 80 3e 00
      E 0 80 49 00
      E 0 80 4a 00
      E 0 80 54 00
      E 0 80 57 00
      E 0 80 60 00
      E 0 80 62 00
      E 0 80 63 00
      E 960 90 3e 60
      E 0 90 49 60
      E 0 90 4b 60
      E 0 90 55 60
      E 0 90 57 60
      E 0 90 61 60
      E 0 90 62 60
      E 0 90 63 60
      E 480 80 3e 00
      E 0 80 49 00
      E 0 80 4b 00
      E 0 80 55 00
      E 0 80 57 00
      E 0 80 61 00
      E 0 80 62 00
      E 0 80 63 00
      E 480 90 3e 60
      E 0 90 49 60
      E 0 90 4a 60
      E 0 90 54 60
      E 0 90 57 60
      E 0 90 60 60
      E 0 90 62 60
      E 0 90 63 60
      E 480 80 3e 00
      E 0 80 49 00
      E 0 80 4a 00
      E 0 80 54 00
      E 0 80 57 00
      E 0 80 60 00
      E 0 80 62 00
      E 0 80 63 00
      E 960 90 3e 60
      E 0 90 49 60
      E 0 90 4a 60
      E 0 90 54 60
      E 0 90 57 60
      E 0 90 60 60
      E 0 90 62 60
      E 0 90 63 60
      E 480 80 3e 00
      E 0 80 49 00
      E 0 80 4a 00
      E 0 80 54 00
      E 0 80 57 00
      E 0 80 60 00
      E 0 80 62 00
      E 0 80 63 00
      E 960 90 3d 60
      E 0 90 48 60
      E 0 90 4a 60
      E 0 90 54 60
      E 0 90 56 60
      E 0 90 60 60
      E 0 90 61 60
      E 0 90 63 60
      E 480 80 3d 00
      E 0 80 48 00
      E 0 80 4a 00
      E 1 80 54 00
      E 0 80 56 00
      E 0 80 60 00
      E 0 80 61 00
      E 0 80 63 00
      E 479 90 3d 60
      E 0 90 48 60
      E 0 90 4a 60
      E 0 90 54 60
      E 0 90 56 60
      E 0 90 60 60
      E 0 90 61 60
      E 0 90 63 60
      E 480 80 3d 00
      E 0 80 48 00
      E 0 80 4a 00
      E 1 80 54 00
      E 0 80 56 00
      E 0 80 60 00
      E 0 80 61 00
      E 0 80 63 00
      E 479 90 4b 60
      E 0 90 4c 60
      E 0 90 57 60
      E 0 90 58 60
      E 0 90 62 60
      E 0 90 63 60
      E 0 90 64 60
      E 120 80 4b 00
      E 0 80 4c 00
      E 0 80 57 00
      E 0 80 58 00
      E 180 80 62 00
      E 0 80 63 00
      E 0 80 64 00
      E 180 90 3e 60
      E 0 90 49 60
      E 0 90 4a 60
      E 0 90 54 60
      E 0 90 57 60
      E 0 90 60 60
      E 0 90 62 60
      E 0 90 63 60
      E 120 80 3e 00
      E 0 80 49 00
      E 0 80 4a 00
      E 0 80 54 00
      E 0 80 57 00
      E 180 80 60 00
      E 0 80 62 00
      E 0 80 63 00
      E 180 90 48 60
      E 0 90 54 60
      E 0 90 60 60
      E 40 80 48 00
      E 0 80 54 00
      E 0 80 60 00
      E 200 90 48 60
      E 0 90 54 60
      E 0 90 60 60
      E 40 80 48 00
      E 0 80 54 00
      E 0 80 60 00
      E 80 90 60 60
      E 40 80 60 00
      E 80 90 3c 60
      E 0 90 48 60
      E 0 90 54 60
      E 0 90 60 60
      E 40 80 3c 00
      E 0 80 48 00
      E 0 80 54 00
      E 0 80 60 00
      E 200 90 55 60
      E 0 90 61 60
      E 40 80 55 00
      E 0 80 61 00
      E 79 90 61 60
      E 40 80 61 00
      E 80 90 49 60
      E 0 90 55 60
      E 0 90 61 60
      E 40 80 49 00
      E 0 80 55 00
      E 0 80 61 00
      E 201 90 55 60
      E 0 90 61 60
      E 40 80 55 00
      E 0 80 61 00
      E 79 90 61 60
      E 40 80 61 00
      E 80 90 3d 60
      E 0 90 49 60
      E 0 90 55 60
      E 0 90 61 60
      E 40 80 3d 00
      E 0 80 49 00
      E 0 80 55 00
      E 0 80 61 00
      E 201 90 54 60
      E 0 90 60 60
      E 40 80 54 00
      E 0 80 60 00
      E 80 90 60 60
      E 40 80 60 00
      E 80 90 48 60
      E 0 90 54 60
      E 0 90 60 60
      E 40 80 48 00
      E 0 80 54 00
      E 0 80 60 00
      E 200 90 48 60
      E 0 90 54 60
      E 0 90 60 60
      E 40 80 48 00
      E 0 80 54 00
      E 0 80 60 00
      E 80 90 60 60
      E 40 80 60 00
      E 80 90 3c 60
      E 0 90 48 60
      E 0 90 54 60
      E 0 90 60 60
      E 39 80 3c 00
      E 0 80 48 00
      E 0 80 54 00
      E 0 80 60 00
      E 201 90 57 60
      E 0 90 63 60
      E 40 80 57 00
      E 0 80 63 00
      E 80 90 63 60
      E 40 80 63 00
      E 80 90 4b 60
      E 0 90 57 60
      E 0 90 63 60
      E 39 80 4b 00
      E 0 80 57 00
      E 0 80 63 00
      E 201 90 56 60
      E 0 90 62 60
      E 40 80 56 00
      E 0 80 62 00
      E 80 90 62 60
      E 40 80 62 00
      E 80 90 3e 60
      E 0 90 4a 60
      E 0 90 56 60
      E 0 90 62 60
      E 39 80 3e 00
      E 0 80 4a 00
      E 0 80 56 00
      E 0 80 62 00
      E 201 90 54 60
      E 0 90 60 60
      E 40 80 54 00
      E 0 80 60 00
      E 80 90 60 60
      E 40 80 60 00
      E 80 90 48 60
      E 0 90 54 60
      E 0 90 60 60
      E 39 80 48 00
      E 0 80 54 00
      E 0 80 60 00
      E 201 90 48 60
      E 0 90 54 60
      E 0 90 60 60
      E 40 80 48 00
      E 0 80 54 00
      E 0 80 60 00
      E 80 90 60 60
      E 40 80 60 00
      E 80 90 3c 60
      E 0 90 48 60
      E 0 90 54 60
      E 0 90 60 60
      E 39 80 3c 00
      E 0 80 48 00
      E 0 80 54 00
      E 0 80 60 00
      E 201 90 58 60
      E 0 90 64 60
      E 40 80 58 00
      E 0 80 64 00
      E 80 90 64 60
      E 40 80 64 00
      E 80 90 4b 60
      E 0 90 58 60
      E 0 90 64 60
      E 39 80 4b 00
      E 0 80 58 00
      E 0 80 64 00
      E 201 90 4b 60
      E 0 90 58 60
      E 0 90 64 60
      E 40 80 4b 00
      E 0 80 58 00
      E 0 80 64 00
      E 80 90 64 60
      E 40 80 64 00
      E 80 90 3e 60
      E 0 90 4b 60
      E 0 90 58 60
      E 0 90 64 60
      E 39 80 3e 00
      E 0 80 4b 00
      E 0 80 58 00
      E 0 80 64 00
      E 201 90 57 60
      E 0 90 63 60
      E 40 80 57 00
      E 0 80 63 00
      E 80 90 63 60
      E 40 80 63 00
      E 80 90 3e 60
      E 0 90 4b 60
      E 0 90 57 60
      E 0 90 63 60
      E 39 80 3e 00
      E 0 80 4b 00
      E 0 80 57 00
      E 0 80 63 00
      E 202 90 57 60
      E 0 90 63 60
      E 40 80 57 00
      E 0 80 63 00
      E 80 90 63 60
      E 40 80 63 00
      E 79 90 3e 60
      E 0 90 4b 60
      E 0 90 57 60
      E 0 90 63 60
      E 39 80 3e 00
      E 0 80 4b 00
      E 0 80 57 00
      E 0 80 63 00
      E 201 90 56 60
      E 0 90 62 60
      E 40 80 56 00
      E 0 80 62 00
      E 80 90 62 60
      E 40 80 62 00
      E 80 90 4a 60
      E 0 90 56 60
      E 0 90 62 60
      E 39 80 4a 00
      E 0 80 56 00
      E 0 80 62 00
      E 201 90 4a 60
      E 0 90 56 60
      E 0 90 62 60
      E 40 80 4a 00
      E 0 80 56 00
      E 0 80 62 00
      E 80 90 62 60
      E 40 80 62 00
      E 80 90 3e 60
      E 0 90 4a 60
      E 0 90 56 60
      E 0 90 62 60
      E 39 80 3e 00
      E 0 80 4a 00
      E 0 80 56 00
      E 0 80 62 00
      E 201 90 55 60
      E 0 90 61 60
      E 40 80 55 00
      E 0 80 61 00
      E 80 90 61 60
      E 40 80 61 00
      E 80 90 49 60
      E 0 90 55 60
      E 0 90 61 60
      E 39 80 49 00
      E 0 80 55 00
      E 0 80 61 00
      E 201 90 54 60
      E 0 90 60 60
      E 40 80 54 00
      E 0 80 60 00
      E 80 90 60 60
      E 40 80 60 00
      E 80 90 3c 60
      E 0 90 48 60
      E 0 90 54 60
      E 0 90 60 60
      E 39 80 3c 00
      E 0 80 48 00
      E 0 80 54 00
      E 0 80 60 00
      E 201 90 48 60
      E 0 90 54 60
      E 0 90 60 60
      E 40 80 48 00
      E 0 80 54 00
      E 0 80 60 00
      E 80 90 60 60
      E 40 80 60 00
      E 80 90 48 60
      E 0 90 54 60
      E 0 90 60 60
      E 39 80 48 00
      E 0 80 54 00
      E 0 80 60 00
      E 201 90 55 60
      E 0 90 61 60
      E 40 80 55 00
      E 0 80 61 00
      E 80 90 61 60
      E 40 80 61 00
      E 80 90 3d 60
      E 0 90 49 60
      E 0 90 55 60
      E 0 90 61 60
      E 39 80 3d 00
      E 0 80 49 00
      E 0 80 55 00
      E 0 80 61 00
      E 201 90 54 60
      E 0 90 60 60
      E 40 80 54 00
      E 0 80 60 00
      E 80 90 60 60
      E 40 80 60 00
      E 80 90 48 60
      E 0 90 54 60
      E 0 90 60 60
      E 39 80 48 00
      E 0 80 54 00
      E 0 80 60 00
      E 201 90 55 60
      E 0 90 61 60
      E 40 80 55 00
      E 0 80 61 00
      E 80 90 61 60
      E 40 80 61 00
      E 80 90 3d 60
      E 0 90 49 60
      E 0 90 55 60
      E 0 90 61 60
      E 39 80 3d 00
      E 0 80 49 00
      E 0 80 55 00
      E 0 80 61 00
      E 201 90 54 60
      E 0 90 60 60
      E 40 80 54 00
      E 0 80 60 00
      E 80 90 60 60
      E 40 80 60 00
      E 80 90 48 60
      E 0 90 54 60
      E 0 90 60 60
      E 39 80 48 00
      E 0 80 54 00
      E 0 80 60 00
      E 401 90 54 60
      E 0 90 60 60
      E 0 90 74 60
      E 40 80 54 00
      E 0 80 60 00
      E 120 90 60 60
      E 40 80 60 00
      E 120 90 3c 60
      E 0 90 48 60
      E 0 90 54 60
      E 0 90 60 60
      E 40 80 3c 00
      E 0 80 48 00
      E 0 80 54 00
      E 0 80 60 00
      E 280 90 54 60
      E 0 90 60 60
      E 40 80 54 00
      E 0 80 60 00
      E 120 90 60 60
      E 40 80 60 00
      E 120 90 48 60
      E 0 90 54 60
      E 0 90 60 60
      E 40 80 48 00
      E 0 80 54 00
      E 0 80 60 00
      E 320 90 54 60
      E 0 90 60 60
      E 40 80 54 00
      E 0 80 60 00
      E 160 90 60 60
      E 40 80 60 00
      E 160 90 3c 60
      E 0 90 48 60
      E 0 90 54 60
      E 0 90 60 60
      E 40 80 3c 00
      E 0 80 48 00
      E 0 80 54 00
      E 0 80 60 00
      E 400 90 54 60
      E 0 90 60 60
      E 40 80 54 00
      E 0 80 60 00
      E 240 90 3c 60
      E 0 90 48 60
      E 0 90 54 60
      E 0 90 60 60
      E 41 80 3c 00
      E 0 80 48 00
      E 0 80 54 00
      E 0 80 60 00
      E 239 90 54 60
      E 0 90 60 60
      E 720 80 74 00
      E 0 80 54 00
      E 0 80 60 00
      <X 480 0
        /wFbaWRsZV0=
      >
      <X 31640 0
        /wFbcGxheV0=
      >
      E 480 90 3e 60
      E 0 90 49 60
      E 0 90 4b 60
      E 0 90 55 60
      E 0 90 57 60
      E 0 90 61 60
      E 0 90 62 60
      E 0 90 63 60
      E 471 90 74 60
      E 9 80 3e 00
      E 0 80 49 00
      E 0 80 4b 00
      E 0 80 55 00
      E 0 80 57 00
      E 0 80 61 00
      E 0 80 62 00
      E 0 80 63 00
      E 480 90 3e 60
      E 0 90 49 60
      E 0 90 4a 60
      E 0 90 54 60
      E 0 90 57 60
      E 0 90 60 60
      E 0 90 62 60
      E 0 90 63 60
      E 111 80 74 00
      E 369 80 3e 00
      E 0 80 49 00
      E 0 80 4a 00
      E 0 80 54 00
      E 0 80 57 00
      E 0 80 60 00
      E 0 80 62 00
      E 0 80 63 00
      E 960 90 3e 60
      E 0 90 49 60
      E 0 90 4b 60
      E 0 90 55 60
      E 0 90 57 60
      E 0 90 61 60
      E 0 90 62 60
      E 0 90 63 60
      E 480 80 3e 00
      E 0 80 49 00
      E 0 80 4b 00
      E 0 80 55 00
      E 0 80 57 00
      E 0 80 61 00
      E 0 80 62 00
      E 0 80 63 00
      E 960 90 3d 60
      E 0 90 48 60
      E 0 90 4a 60
      E 0 90 54 60
      E 0 90 56 60
      E 0 90 60 60
      E 0 90 61 60
      E 0 90 63 60
      E 480 80 3d 00
      E 0 80 48 00
      E 0 80 4a 00
      E 0 80 54 00
      E 0 80 56 00
      E 0 80 60 00
      E 0 80 61 00
      E 0 80 63 00
      E 480 90 3d 60
      E 0 90 48 60
      E 0 90 4a 60
      E 0 90 54 60
      E 0 90 56 60
      E 0 90 60 60
      E 0 90 61 60
      E 0 90 63 60
      E 481 80 3d 00
      E 0 80 48 00
      E 0 80 4a 00
      E 0 80 54 00
      E 0 80 56 00
      E 0 80 60 00
      E 0 80 61 00
      E 0 80 63 00
      E 959 90 3e 60
      E 0 90 49 60
      E 0 90 4a 60
      E 0 90 54 60
      E 0 90 57 60
      E 0 90 60 60
      E 0 90 62 60
      E 0 90 63 60
      E 480 80 3e 00
      E 0 80 49 00
      E 0 80 4a 00
      E 0 80 54 00
      E 0 80 57 00
      E 0 80 60 00
      E 0 80 62 00
      E 0 80 63 00
      E 960 90 3e 60
      E 0 90 49 60
      E 0 90 4b 60
      E 0 90 55 60
      E 0 90 57 60
      E 0 90 61 60
      E 0 90 62 60
      E 0 90 63 60
      E 480 80 3e 00
      E 0 80 49 00
      E 0 80 4b 00
      E 0 80 55 00
      E 0 80 57 00
      E 0 80 61 00
      E 0 80 62 00
      E 0 80 63 00
      E 480 90 3e 60
      E 0 90 49 60
      E 0 90 4a 60
      E 0 90 54 60
      E 0 90 57 60
      E 0 90 60 60
      E 0 90 62 60
      E 0 90 63 60
      E 480 80 3e 00
      E 0 80 49 00
      E 0 80 4a 00
      E 0 80 54 00
      E 0 80 57 00
      E 0 80 60 00
      E 0 80 62 00
      E 0 80 63 00
      E 960 90 3e 60
      E 0 90 49 60
      E 0 90 4a 60
      E 0 90 54 60
      E 0 90 57 60
      E 0 90 60 60
      E 0 90 62 60
      E 0 90 63 60
      E 480 80 3e 00
      E 0 80 49 00
      E 0 80 4a 00
      E 0 80 54 00
      E 0 80 57 00
      E 0 80 60 00
      E 0 80 62 00
      E 0 80 63 00
      E 960 90 3d 60
      E 0 90 48 60
      E 0 90 4a 60
      E 0 90 54 60
      E 0 90 56 60
      E 0 90 60 60
      E 0 90 61 60
      E 0 90 63 60
      E 480 80 3d 00
      E 0 80 48 00
      E 0 80 4a 00
      E 1 80 54 00
      E 0 80 56 00
      E 0 80 60 00
      E 0 80 61 00
      E 0 80 63 00
      E 479 90 3d 60
      E 0 90 48 60
      E 0 90 4a 60
      E 0 90 54 60
      E 0 90 56 60
      E 0 90 60 60
      E 0 90 61 60
      E 0 90 63 60
      E 480 80 3d 00
      E 0 80 48 00
      E 0 80 4a 00
      E 1 80 54 00
      E 0 80 56 00
      E 0 80 60 00
      E 0 80 61 00
      E 0 80 63 00
      E 479 90 4b 60
      E 0 90 4c 60
      E 0 90 57 60
      E 0 90 58 60
      E 0 90 62 60
      E 0 90 63 60
      E 0 90 64 60
      E 0 90 74 60
      E 120 80 4b 00
      E 0 80 4c 00
      E 0 80 57 00
      E 0 80 58 00
      E 180 80 62 00
      E 0 80 63 00
      E 0 80 64 00
      E 180 90 3e 60
      E 0 90 49 60
      E 0 90 4a 60
      E 0 90 54 60
      E 0 90 57 60
      E 0 90 60 60
      E 0 90 62 60
      E 0 90 63 60
      E 120 80 3e 00
      E 0 80 49 00
      E 0 80 4a 00
      E 0 80 54 00
      E 0 80 57 00
      E 180 80 60 00
      E 0 80 62 00
      E 0 80 63 00
      E 180 80 74 00
      E 960 90 3e 60
      E 0 90 49 60
      E 0 90 4b 60
      E 0 90 55 60
      E 0 90 57 60
      E 0 90 61 60
      E 0 90 62 60
      E 0 90 63 60
      E 480 80 3e 00
      E 0 80 49 00
      E 0 80 4b 00
      E 0 80 55 00
      E 0 80 57 00
      E 0 80 61 00
      E 0 80 62 00
      E 0 80 63 00
      E 480 90 3e 60
      E 0 90 49 60
      E 0 90 4a 60
      E 0 90 54 60
      E 0 90 57 60
      E 0 90 60 60
      E 0 90 62 60
      E 0 90 63 60
      E 480 80 3e 00
      E 0 80 49 00
      E 0 80 4a 00
      E 0 80 54 00
      E 0 80 57 00
      E 0 80 60 00
      E 0 80 62 00
      E 0 80 63 00
      E 960 90 3e 60
      E 0 90 49 60
      E 0 90 4b 60
      E 0 90 55 60
      E 0 90 57 60
      E 0 90 61 60
      E 0 90 62 60
      E 0 90 63 60
      E 480 80 3e 00
      E 0 80 49 00
      E 0 80 4b 00
      E 0 80 55 00
      E 0 80 57 00
      E 0 80 61 00
      E 0 80 62 00
      E 0 80 63 00
      E 960 90 3d 60
      E 0 90 48 60
      E 0 90 4a 60
      E 0 90 54 60
      E 0 90 56 60
      E 0 90 60 60
      E 0 90 61 60
      E 0 90 63 60
      E 480 80 3d 00
      E 0 80 48 00
      E 0 80 4a 00
      E 0 80 54 00
      E 0 80 56 00
      E 0 80 60 00
      E 0 80 61 00
      E 0 80 63 00
      E 480 90 3d 60
      E 0 90 48 60
      E 0 90 4a 60
      E 0 90 54 60
      E 0 90 56 60
      E 0 90 60 60
      E 0 90 61 60
      E 0 90 63 60
      E 462 90 74 60
      E 19 80 3d 00
      E 0 80 48 00
      E 0 80 4a 00
      E 0 80 54 00
      E 0 80 56 00
      E 0 80 60 00
      E 0 80 61 00
      E 0 80 63 00
      E 959 90 3e 60
      E 0 90 49 60
      E 0 90 4a 60
      E 0 90 54 60
      E 0 90 57 60
      E 0 90 60 60
      E 0 90 62 60
      E 0 90 63 60
      E 102 80 74 00
      E 378 80 3e 00
      E 0 80 49 00
      E 0 80 4a 00
      E 0 80 54 00
      E 0 80 57 00
      E 0 80 60 00
      E 0 80 62 00
      E 0 80 63 00
      E 960 90 3e 60
      E 0 90 49 60
      E 0 90 4b 60
      E 0 90 55 60
      E 0 90 57 60
      E 0 90 61 60
      E 0 90 62 60
      E 0 90 63 60
      E 480 80 3e 00
      E 0 80 49 00
      E 0 80 4b 00
      E 0 80 55 00
      E 0 80 57 00
      E 0 80 61 00
      E 0 80 62 00
      E 0 80 63 00
      E 480 90 3e 60
      E 0 90 49 60
      E 0 90 4a 60
      E 0 90 54 60
      E 0 90 57 60
      E 0 90 60 60
      E 0 90 62 60
      E 0 90 63 60
      E 480 80 3e 00
      E 0 80 49 00
      E 0 80 4a 00
      E 0 80 54 00
      E 0 80 57 00
      E 0 80 60 00
      E 0 80 62 00
      E 0 80 63 00
      E 960 90 3e 60
      E 0 90 49 60
      E 0 90 4a 60
      E 0 90 54 60
      E 0 90 57 60
      E 0 90 60 60
      E 0 90 62 60
      E 0 90 63 60
      E 480 80 3e 00
      E 0 80 49 00
      E 0 80 4a 00
      E 0 80 54 00
      E 0 80 57 00
      E 0 80 60 00
      E 0 80 62 00
      E 0 80 63 00
      E 960 90 3d 60
      E 0 90 48 60
      E 0 90 4a 60
      E 0 90 54 60
      E 0 90 56 60
      E 0 90 60 60
      E 0 90 61 60
      E 0 90 63 60
      E 480 80 3d 00
      E 0 80 48 00
      E 0 80 4a 00
      E 1 80 54 00
      E 0 80 56 00
      E 0 80 60 00
      E 0 80 61 00
      E 0 80 63 00
      E 479 90 3d 60
      E 0 90 48 60
      E 0 90 4a 60
      E 0 90 54 60
      E 0 90 56 60
      E 0 90 60 60
      E 0 90 61 60
      E 0 90 63 60
      E 480 80 3d 00
      E 0 80 48 00
      E 0 80 4a 00
      E 1 80 54 00
      E 0 80 56 00
      E 0 80 60 00
      E 0 80 61 00
      E 0 80 63 00
      E 479 90 4b 60
      E 0 90 4c 60
      E 0 90 57 60
      E 0 90 58 60
      E 0 90 62 60
      E 0 90 63 60
      E 0 90 64 60
      E 120 80 4b 00
      E 0 80 4c 00
      E 0 80 57 00
      E 0 80 58 00
      E 180 80 62 00
      E 0 80 63 00
      E 0 80 64 00
      E 180 90 3e 60
      E 0 90 49 60
      E 0 90 4a 60
      E 0 90 54 60
      E 0 90 57 60
      E 0 90 60 60
      E 0 90 62 60
      E 0 90 63 60
      E 120 80 3e 00
      E 0 80 49 00
      E 0 80 4a 00
      E 0 80 54 00
      E 0 80 57 00
      E 180 80 60 00
      E 0 80 62 00
      E 0 80 63 00
      E 180 90 48 60
      E 0 90 49 60
      E 0 90 54 60
      E 0 90 55 60
      E 0 90 56 60
      E 0 90 60 60
      E 0 90 61 60
      E 0 90 62 60
      E 0 90 63 60
      E 0 90 74 60
      e 0 90 3c 60
      E 40 80 48 00
      E 0 80 49 00
      E 0 80 54 00
      E 0 80 55 00
      E 0 80 56 00
      E 0 80 60 00
      E 0 80 61 00
      E 0 80 62 00
      E 0 80 63 00
      E 0 80 74 00
      e 0 80 3c 00
      E 280 90 54 60
      E 0 90 56 60
      E 0 90 60 60
      E 0 90 62 60
      E 120 80 54 00
      E 0 80 56 00
      E 160 80 60 00
      E 0 80 62 00
      E 120 90 3e 60
      E 0 90 49 60
      E 0 90 4b 60
      E 0 90 55 60
      E 0 90 57 60
      E 0 90 61 60
      E 0 90 63 60
      E 120 80 3e 00
      E 0 80 49 00
      E 0 80 4b 00
      E 0 80 55 00
      E 0 80 57 00
      E 160 80 61 00
      E 0 80 63 00
      E 200 90 48 60
      E 0 90 49 60
      E 0 90 54 60
      E 0 90 55 60
      E 0 90 60 60
      E 0 90 61 60
      E 120 80 48 00
      E 0 80 49 00
      E 0 80 54 00
      E 0 80 55 00
      E 200 80 60 00
      E 0 80 61 00
      E 160 90 54 60
      E 0 90 56 60
      E 0 90 60 60
      E 0 90 62 60
      E 40 80 54 00
      E 0 80 56 00
      E 0 80 60 00
      E 0 80 62 00
      E 200 90 3c 60
      E 0 90 48 60
      E 0 90 49 60
      E 0 90 54 60
      E 0 90 55 60
      E 0 90 60 60
      E 0 90 61 60
      E 40 80 3c 00
      E 0 80 48 00
      E 0 80 49 00
      E 0 80 54 00
      E 0 80 55 00
      E 0 80 60 00
      E 0 80 61 00
      E 320 90 54 60
      E 0 90 56 60
      E 0 90 60 60
      E 0 90 62 60
      E 120 80 54 00
      E 0 80 56 00
      E 120 80 60 00
      E 0 80 62 00
      E 120 90 49 60
      E 0 90 4b 60
      E 0 90 55 60
      E 0 90 57 60
      E 0 90 61 60
      E 0 90 63 60
      E 120 80 49 00
      E 0 80 4b 00
      E 0 80 55 00
      E 0 80 57 00
      E 160 80 61 00
      E 0 80 63 00
      E 200 90 3c 60
      E 0 90 48 60
      E 0 90 49 60
      E 0 90 54 60
      E 0 90 55 60
      E 0 90 60 60
      E 0 90 61 60
      E 120 80 3c 00
      E 0 80 48 00
      E 0 80 49 00
      E 0 80 54 00
      E 0 80 55 00
      E 200 80 60 00
      E 0 80 61 00
      E 160 90 54 60
      E 0 90 56 60
      E 0 90 60 60
      E 0 90 62 60
      E 40 80 54 00
      E 0 80 56 00
      E 0 80 60 00
      E 0 80 62 00
      E 200 90 3c 60
      E 0 90 48 60
      E 0 90 49 60
      E 0 90 54 60
      E 0 90 55 60
      E 0 90 60 60
      E 0 90 61 60
      E 40 80 3c 00
      E 0 80 48 00
      E 0 80 49 00
      E 0 80 54 00
      E 0 80 55 00
      E 0 80 60 00
      E 0 80 61 00
      E 360 90 54 60
      E 0 90 56 60
      E 0 90 60 60
      E 0 90 62 60
      E 120 80 54 00
      E 0 80 56 00
      E 120 80 60 00
      E 0 80 62 00
      E 120 90 49 60
      E 0 90 4b 60
      E 0 90 55 60
      E 0 90 57 60
      E 0 90 61 60
      E 0 90 63 60
      E 120 80 49 00
      E 0 80 4b 00
      E 0 80 55 00
      E 0 80 57 00
      E 160 80 61 00
      E 0 80 63 00
      E 200 90 3c 60
      E 0 90 48 60
      E 0 90 49 60
      E 0 90 54 60
      E 0 90 55 60
      E 0 90 60 60
      E 0 90 61 60
      E 120 80 3c 00
      E 0 80 48 00
      E 0 80 49 00
      E 0 80 54 00
      E 0 80 55 00
      E 200 80 60 00
      E 0 80 61 00
      E 160 90 48 60
      E 0 90 4a 60
      E 0 90 54 60
      E 0 90 56 60
      E 0 90 60 60
      E 0 90 62 60
      E 40 80 48 00
      E 0 80 4a 00
      E 0 80 54 00
      E 0 80 56 00
      E 0 80 60 00
      E 0 80 62 00
      E 200 90 54 60
      E 0 90 55 60
      E 0 90 60 60
      E 0 90 61 60
      E 40 80 54 00
      E 0 80 55 00
      E 0 80 60 00
      E 0 80 61 00
      E 280 90 3d 60
      E 0 90 48 60
      E 0 90 4a 60
      E 0 90 54 60
      E 0 90 56 60
      E 0 90 60 60
      E 0 90 62 60
      E 120 80 3d 00
      E 0 80 48 00
      E 0 80 4a 00
      E 0 80 54 00
      E 0 80 56 00
      E 160 80 60 00
      E 0 80 62 00
      E 120 90 55 60
      E 0 90 57 60
      E 0 90 61 60
      E 0 90 63 60
      E 120 80 55 00
      E 0 80 57 00
      E 160 80 61 00
      E 0 80 63 00
      E 200 90 48 60
      E 0 90 49 60
      E 0 90 54 60
      E 0 90 55 60
      E 0 90 60 60
      E 0 90 61 60
      E 120 80 48 00
      E 0 80 49 00
      E 0 80 54 00
      E 0 80 55 00
      E 200 80 60 00
      E 0 80 61 00
      E 160 90 3d 60
      E 0 90 48 60
      E 0 90 4a 60
      E 0 90 54 60
      E 0 90 56 60
      E 0 90 60 60
      E 0 90 62 60
      E 40 80 3d 00
      E 0 80 48 00
      E 0 80 4a 00
      E 0 80 54 00
      E 0 80 56 00
      E 0 80 60 00
      E 0 80 62 00
      E 200 90 54 60
      E 0 90 55 60
      E 0 90 60 60
      E 0 90 61 60
      E 40 80 54 00
      E 0 80 55 00
      E 0 80 60 00
      E 0 80 61 00
      E 280 90 48 60
      E 0 90 4a 60
      E 0 90 54 60
      E 0 90 56 60
      E 0 90 60 60
      E 0 90 62 60
      E 120 80 48 00
      E 0 80 4a 00
      E 0 80 54 00
      E 0 80 56 00
      E 160 80 60 00
      E 0 80 62 00
      E 120 90 55 60
      E 0 90 57 60
      E 0 90 61 60
      E 0 90 63 60
      E 120 80 55 00
      E 0 80 57 00
      E 160 80 61 00
      E 0 80 63 00
      E 200 90 3c 60
      E 0 90 48 60
      E 0 90 49 60
      E 0 90 54 60
      E 0 90 55 60
      E 0 90 60 60
      E 0 90 61 60
      E 120 80 3c 00
      E 0 80 48 00
      E 0 80 49 00
      E 0 80 54 00
      E 0 80 55 00
      E 200 80 60 00
      E 0 80 61 00
      E 160 90 48 60
      E 0 90 4a 60
      E 0 90 54 60
      E 0 90 56 60
      E 0 90 60 60
      E 0 90 62 60
      E 40 80 48 00
      E 0 80 4a 00
      E 0 80 54 00
      E 0 80 56 00
      E 0 80 60 00
      E 0 80 62 00
      E 200 90 54 60
      E 0 90 55 60
      E 0 90 60 60
      E 0 90 61 60
      E 40 80 54 00
      E 0 80 55 00
      E 0 80 60 00
      E 0 80 61 00
      E 280 90 3d 60
      E 0 90 48 60
      E 0 90 4a 60
      E 0 90 54 60
      E 0 90 56 60
      E 0 90 60 60
      E 0 90 62 60
      E 120 80 3d 00
      E 0 80 48 00
      E 0 80 4a 00
      E 0 80 54 00
      E 0 80 56 00
      E 160 80 60 00
      E 0 80 62 00
      E 120 90 55 60
      E 0 90 57 60
      E 0 90 61 60
      E 0 90 63 60
      E 120 80 55 00
      E 0 80 57 00
      E 160 80 61 00
      E 0 80 63 00
      E 200 90 48 60
      E 0 90 49 60
      E 0 90 54 60
      E 0 90 55 60
      E 0 90 60 60
      E 0 90 61 60
      E 120 80 48 00
      E 0 80 49 00
      E 0 80 54 00
      E 0 80 55 00
      E 200 80 60 00
      E 0 80 61 00
      E 160 90 3d 60
      E 0 90 48 60
      E 0 90 4a 60
      E 0 90 54 60
      E 0 90 56 60
      E 0 90 60 60
      E 0 90 62 60
      E 40 80 3d 00
      E 0 80 48 00
      E 0 80 4a 00
      E 0 80 54 00
      E 0 80 56 00
      E 0 80 60 00
      E 0 80 62 00
      E 200 90 54 60
      E 0 90 55 60
      E 0 90 60 60
      E 0 90 61 60
      E 40 80 54 00
      E 0 80 55 00
      E 0 80 60 00
      E 0 80 61 00
      E 280 90 48 60
      E 0 90 4a 60
      E 0 90 54 60
      E 0 90 56 60
      E 0 90 60 60
      E 0 90 62 60
      E 120 80 48 00
      E 0 80 4a 00
      E 0 80 54 00
      E 0 80 56 00
      E 160 80 60 00
      E 0 80 62 00
      E 120 90 55 60
      E 0 90 57 60
      E 0 90 61 60
      E 0 90 63 60
      E 120 80 55 00
      E 0 80 57 00
      E 160 80 61 00
      E 0 80 63 00
      E 200 90 3c 60
      E 0 90 48 60
      E 0 90 49 60
      E 0 90 54 60
      E 0 90 55 60
      E 0 90 60 60
      E 0 90 61 60
      E 120 80 3c 00
      E 0 80 48 00
      E 0 80 49 00
      E 0 80 54 00
      E 0 80 55 00
      E 200 80 60 00
      E 0 80 61 00
      E 160 90 48 60
      E 0 90 4a 60
      E 0 90 54 60
      E 0 90 56 60
      E 0 90 60 60
      E 0 90 62 60
      E 40 80 48 00
      E 0 80 4a 00
      E 0 80 54 00
      E 0 80 56 00
      E 0 80 60 00
      E 0 80 62 00
      E 200 90 54 60
      E 0 90 55 60
      E 0 90 60 60
      E 0 90 61 60
      E 40 80 54 00
      E 0 80 55 00
      E 0 80 60 00
      E 0 80 61 00
      E 280 90 3d 60
      E 0 90 48 60
      E 0 90 4a 60
      E 0 90 54 60
      E 0 90 56 60
      E 0 90 60 60
      E 0 90 62 60
      E 120 80 3d 00
      E 0 80 48 00
      E 0 80 4a 00
      E 0 80 54 00
      E 0 80 56 00
      E 120 80 60 00
      E 0 80 62 00
      E 120 90 55 60
      E 0 90 57 60
      E 0 90 61 60
      E 0 90 63 60
      E 120 80 55 00
      E 0 80 57 00
      E 160 80 61 00
      E 0 80 63 00
      E 200 90 48 60
      E 0 90 49 60
      E 0 90 54 60
      E 0 90 55 60
      E 0 90 60 60
      E 0 90 61 60
      E 120 80 48 00
      E 0 80 49 00
      E 0 80 54 00
      E 0 80 55 00
      E 200 80 60 00
      E 0 80 61 00
      E 160 90 3d 60
      E 0 90 48 60
      E 0 90 4a 60
      E 0 90 54 60
      E 0 90 56 60
      E 0 90 60 60
      E 0 90 62 60
      E 40 80 3d 00
      E 0 80 48 00
      E 0 80 4a 00
      E 0 80 54 00
      E 0 80 56 00
      E 0 80 60 00
      E 0 80 62 00
      <X 480 0
        /wFbaWRsZV9yZWFsdGltZV0=
      >
      E 3319 b0 7b 00
      GUID {F537F270-CEBA-461E-8612-DC28913708FC}
      IGNTEMPO 0 120.00000000 4 4
      SRCCOLOR 1261
      VELLANE 132 128 60
      COLORMAP "C:\Users\wejaa\AppData\Roaming\REAPER\Data\color_maps\rockband_vox-other.png"
      TEXTSTRINGFILE "C:\Program Files\REAPER\Data\Text_Strings\Text Events List.txt"
      CFGEDITVIEW -32333.572944 7.020567 15 12 0 0 0
      CFGEDIT 1 1 0 0 0 1 1 1 1 1 1 0.08333333 -8 -8 1370 736 1 0 1 2 0.00000000 0 0 0 0 0.500000 1 0 1.000000 64
      KEYSNAP 0 0 "102034050607" 0 "Major"
      EVTFILTER 0 -1 -1 -1 -1 0 1 0 0 -1.00000000 -1.00000000
    >
  >
>
<TRACK '{D39F8BD7-8730-4182-94EC-51AF9F9ACC90}'
  NAME "PART REAL_KEYS_X"
  PEAKCOL 25231232
  BEAT -1
  AUTOMODE 0
  VOLPAN 1.00000000000000 0.00000000000000 -1.00000000000000 -1.00000000000000 1.00000000000000
  MUTESOLO 1 0 0
  IPHASE 0
  ISBUS 0 0
  BUSCOMP 1 0
  SHOWINMIX 1 0.666700 0.500000 1 0.500000 -1 -1 -1
  FREEMODE 0
  SEL 0
  REC 0 0 0 0 0 0 0
  TRACKHEIGHT 0 0
  INQ 0 0 0 0.5000000000 100 0 0 100
  NCHAN 2
  FX 1
  TRACKID {D39F8BD7-8730-4182-94EC-51AF9F9ACC90}
  PERF 0
  MIDIOUT -1
  <MIDINOTENAMES
    0 0 "C2-E3 Range"
    0 5 "F2-A3 Range"
    0 9 "A2-C4 Range"
    0 48 "C2 (Lowest Note)"
    0 72 "C4 (Highest Note)"
    0 115 "Solo Marker"
    0 126 "Glissando Marker"
    0 116 "Overdrive Marker"
    0 127 "Trill Marker"
    0 125 "----"
    0 114 "----"
    0 47 "----"
    0 49 "C#2"
    0 50 "D2"
    0 51 "Eb2"
    0 52 "E2"
    0 53 "F2"
    0 54 "F#2"
    0 55 "G2"
    0 56 "G#2"
    0 57 "A2"
    0 58 "Bb2"
    0 59 "B2"
    0 60 "C3"
    0 61 "C#3"
    0 62 "D3"
    0 63 "Eb3"
    0 64 "E3"
    0 65 "F3"
    0 66 "F#3"
    0 67 "G3"
    0 68 "G#3"
    0 69 "A3"
    0 70 "Bb3"
    0 71 "B3"
    0 2 "D2-F3 Range"
    0 4 "E2-G3 Range"
    0 7 "G2-B3 Range"
  >
  MAINSEND 1 0
  <FXCHAIN
    WNDRECT 0 40 655 493
    SHOW 0
    LASTSEL 1
    DOCKED 0
    BYPASS 0 0
    <JS "IX/MIDI_Tool II" ""
      0.000000 85.000000 127.000000 0.000000 0.000000 0.000000 100.000000 0.000000 0.000000 127.000000 0.000000 0.000000 1.000000 0.000000 0.000000 - - - - - - - - - - - - - - - - - - - - - - - - - - - - - - - - - - - - - - - - - - - - - - - - - 
    >
    FLOATPOS 0 0 0 0
    FXID {A891DAA7-5D8A-4720-AA8F-E43D2ABA2AE5}
    WAK 0
    BYPASS 0 0
    <VST "VSTi: ReaSynth (Cockos)" "reasynth.dll" 0 ""
      eXNlcu9e7f4AAAAAAgAAAAEAAAAAAAAAAgAAAAAAAAA4AAAAAAAAAA==
      AAAAAO++rd4N8K3eppvEOxe30TqcxKA+c2jRPgAAAADMm4A+6WeIPQ==
      AAAAAAAAAD8AAIA/6SaxPgAAAD8AAAAAAAA=
    >
    FLOATPOS 0 0 0 0
    FXID {A0CE5851-0C70-49E2-AD61-BC7B1C50A030}
    WAK 0
  >
  <ITEM
    POSITION 0.00000000000000
    SNAPOFFS 0.00000000000000
    LENGTH 179.23352053137964
    LOOP 0
    ALLTAKES 0
    SEL 0
    FADEIN 1 0.000000 0.000000 1 0
    FADEOUT 1 0.000000 0.000000 1 0
    MUTE 0
    IGUID {974100C2-06C4-4CB5-BD67-2F1BC71A1259}
    IID 15
    NAME "PART REAL_KEYS_X"
    VOLPAN 1.000000 0.000000 1.000000 -1.000000
    SOFFS 0.00000000000000 0.00000000000000
    PLAYRATE 1.00000000000000 1 0.00000000000000 -65536
    CHANMODE 0
    GUID {08703F3F-9741-46EB-9ED4-B09B2390F876}
    <SOURCE MIDI
      HASDATA 1 480 QN
      POOLEDEVTS {6B449DFA-E756-4FB9-9FE5-77E3702A5FFF}
      <X 0 0
        /wNQQVJUIFJFQUxfS0VZU19Y
      >
      <X 3840 0
        /wFbcGxheV0=
      >
      E 176641 b0 7b 00
      GUID {0E0CBFB7-4AC8-4E67-A764-85891754BB41}
      IGNTEMPO 0 120.00000000 4 4
      SRCCOLOR 1262
      VELLANE 132 128 60
      COLORMAP "C:\Program Files\REAPER\Data\color_maps\rockband_guitarbass.png"
      TEXTSTRINGFILE "C:\Program Files\REAPER\Data\Text_Strings\Text Events List.txt"
      CFGEDITVIEW -4299.275963 82.395269 48 12 0 0 0
      CFGEDIT 1 1 0 1 1 1 1 1 1 1 1 0.12500000 -8 -8 1370 736 1 0 1 2 0.00000000 0 0 0 0 0.500000 1 0 1.000000 64
      KEYSNAP 0 0 "102034050607" 0 "Major"
      EVTFILTER 0 -1 -1 -1 -1 0 1 0 0 -1.00000000 -1.00000000
    >
  >
>
<TRACK '{117931B6-9EA5-432A-AEED-ACF4C8876354}'
  NAME "PART REAL _KEYS_H"
  PEAKCOL 25231232
  BEAT -1
  AUTOMODE 0
  VOLPAN 1.00000843600341 0.00000000000000 -1.00000000000000 -1.00000000000000 1.00000000000000
  MUTESOLO 1 0 0
  IPHASE 0
  ISBUS 0 0
  BUSCOMP 0 0
  SHOWINMIX 1 0.666700 0.500000 1 0.500000 -1 -1 -1
  FREEMODE 0
  SEL 0
  REC 0 0 0 0 0 0 0
  TRACKHEIGHT 0 0
  INQ 0 0 0 0.5000000000 100 0 0 100
  NCHAN 2
  FX 1
  TRACKID {117931B6-9EA5-432A-AEED-ACF4C8876354}
  PERF 0
  MIDIOUT -1
  <MIDINOTENAMES
    0 0 "C2-E3 Range"
    0 5 "F2-A3 Range"
    0 9 "A2-C4 Range"
    0 48 "C2 (Lowest Note)"
    0 72 "C4 (Highest Note)"
    0 115 "Solo Marker"
    0 126 "Glissando Marker"
    0 127 "Trill Marker"
    0 125 "----"
    0 116 "Overdrive Marker"
    0 114 "----"
    0 71 "B3"
    0 70 "Bb3"
    0 69 "A3"
    0 68 "G#3"
    0 67 "G3"
    0 66 "F#3"
    0 65 "F3"
    0 64 "E3"
    0 63 "Eb3"
    0 62 "D3"
    0 61 "C#3"
    0 60 "C3"
    0 59 "B2"
    0 58 "Bb2"
    0 57 "A2"
    0 56 "G#2"
    0 55 "G2"
    0 54 "F#2"
    0 53 "F2"
    0 52 "E2"
    0 51 "Eb2"
    0 50 "D2"
    0 49 "C#2"
    0 47 "----"
    0 7 "G2-B3 Range"
    0 4 "E2-G3 Range"
    0 2 "D2-F3 Range"
  >
  MAINSEND 1 0
  <FXCHAIN
    SHOW 0
    LASTSEL 0
    DOCKED 0
    BYPASS 0 0
    <JS "IX/MIDI_Tool II" ""
      0.000000 85.000000 127.000000 0.000000 0.000000 0.000000 100.000000 0.000000 0.000000 127.000000 0.000000 0.000000 1.000000 0.000000 0.000000 - - - - - - - - - - - - - - - - - - - - - - - - - - - - - - - - - - - - - - - - - - - - - - - - - 
    >
    FLOATPOS 0 0 0 0
    FXID {5BF1E178-D070-4445-A488-4CE4E31F6508}
    WAK 0
    BYPASS 0 0
    <VST "VSTi: ReaSynth (Cockos)" "reasynth.dll" 0 ""
      eXNlcu9e7f4AAAAAAgAAAAEAAAAAAAAAAgAAAAAAAAA4AAAAAAAAAA==
      AAAAAO++rd4N8K3eppvEOxe30TqcxKA+c2jRPgAAAADMm4A+6WeIPQ==
      AAAAAAAAAD8AAIA/6SaxPgAAAD8AAAAAAAA=
    >
    FLOATPOS 0 0 0 0
    FXID {C48567E0-8372-4900-9933-4B040EA2A253}
    WAK 0
  >
  <ITEM
    POSITION 0.00000000000000
    SNAPOFFS 0.00000000000000
    LENGTH 179.23352053137964
    LOOP 0
    ALLTAKES 0
    SEL 0
    FADEIN 1 0.000000 0.000000 1 0
    FADEOUT 1 0.000000 0.000000 1 0
    MUTE 0
    IGUID {DA514BF3-AF34-46C0-BD23-58406C871A44}
    IID 16
    NAME "PART REAL _KEYS_H"
    VOLPAN 1.000000 0.000000 1.000000 -1.000000
    SOFFS 0.00000000000000 0.00000000000000
    PLAYRATE 1.00000000000000 1 0.00000000000000 -65536
    CHANMODE 0
    GUID {8E0AC36B-D538-4BB8-A507-FFF40527D1BA}
    <SOURCE MIDI
      HASDATA 1 480 QN
      POOLEDEVTS {D377D74C-860D-4F3E-A88B-5777DA43142F}
      <X 0 0
        /wNQQVJUIFJFQUxfS0VZU19I
      >
      E 0 90 09 60
      E 480 80 09 00
      E 3360 90 39 60
      E 360 80 39 00
      E 176281 b0 7b 00
      GUID {53F487B1-1F2F-4D54-9DAE-BC2E7B032E3B}
      IGNTEMPO 0 120.00000000 4 4
      SRCCOLOR 1263
      VELLANE 132 128 60
      COLORMAP "C:\Program Files\REAPER\Data\color_maps\rockband_guitarbass.png"
      TEXTSTRINGFILE "C:\Program Files\REAPER\Data\Text_Strings\Text Events List.txt"
      CFGEDITVIEW -4299.275963 82.395269 5 14 0 0 0
      CFGEDIT 1 1 0 1 1 1 1 1 1 1 1 0.12500000 -8 -8 1374 736 1 2 1 2 0.00000000 0 0 0 0 0.500000 1 0 1.000000 64
      KEYSNAP 0 0 "102034050607" 0 "Major"
      EVTFILTER 0 -1 -1 -1 -1 0 1 0 0 -1.00000000 -1.00000000
    >
  >
>
<TRACK '{3B6F726E-1CAB-4A00-9B01-2E1CC375B13E}'
  NAME "PART REAL_KEYS_M"
  PEAKCOL 25231232
  BEAT -1
  AUTOMODE 0
  VOLPAN 1.00000000000000 0.00000000000000 -1.00000000000000 -1.00000000000000 1.00000000000000
  MUTESOLO 1 0 0
  IPHASE 0
  ISBUS 0 0
  BUSCOMP 0 0
  SHOWINMIX 1 0.666700 0.500000 1 0.500000 -1 -1 -1
  FREEMODE 0
  SEL 0
  REC 0 0 0 0 0 0 0
  TRACKHEIGHT 0 0
  INQ 0 0 0 0.5000000000 100 0 0 100
  NCHAN 2
  FX 1
  TRACKID {3B6F726E-1CAB-4A00-9B01-2E1CC375B13E}
  PERF 0
  MIDIOUT -1
  <MIDINOTENAMES
    0 0 "C2-E3 Range"
    0 5 "F2-A3 Range"
    0 9 "A2-C4 Range"
    0 48 "C2 (Lowest Note)"
    0 72 "C4 (Highest Note)"
    0 115 "Solo Marker"
    0 126 "Glissando Marker"
    0 127 "Trill Marker"
    0 125 "----"
    0 116 "Overdrive Marker"
    0 114 "----"
    0 71 "B3"
    0 70 "Bb3"
    0 69 "A3"
    0 68 "G#3"
    0 67 "G3"
    0 66 "F#3"
    0 65 "F3"
    0 64 "E3"
    0 63 "Eb3"
    0 62 "D3"
    0 61 "C#3"
    0 60 "C3"
    0 59 "B2"
    0 58 "Bb2"
    0 57 "A2"
    0 56 "G#2"
    0 55 "G2"
    0 54 "F#2"
    0 53 "F2"
    0 52 "E2"
    0 51 "Eb2"
    0 50 "D2"
    0 49 "C#2"
    0 47 "----"
    0 7 "G2-B3 Range"
    0 4 "E2-G3 Range"
    0 2 "D2-F3 Range"
  >
  MAINSEND 1 0
  <FXCHAIN
    SHOW 0
    LASTSEL 0
    DOCKED 0
    BYPASS 0 0
    <JS "IX/MIDI_Tool II" ""
      0.000000 85.000000 127.000000 0.000000 0.000000 0.000000 100.000000 0.000000 0.000000 127.000000 0.000000 0.000000 1.000000 0.000000 0.000000 - - - - - - - - - - - - - - - - - - - - - - - - - - - - - - - - - - - - - - - - - - - - - - - - - 
    >
    FLOATPOS 0 0 0 0
    FXID {096BA8B0-BFAB-4802-A0D3-DEA88A16B5B2}
    WAK 0
    BYPASS 0 0
    <VST "VSTi: ReaSynth (Cockos)" "reasynth.dll" 0 ""
      eXNlcu9e7f4AAAAAAgAAAAEAAAAAAAAAAgAAAAAAAAA4AAAAAAAAAA==
      AAAAAO++rd4N8K3eppvEOxe30TqcxKA+c2jRPgAAAADMm4A+6WeIPQ==
      AAAAAAAAAD8AAIA/6SaxPgAAAD8AAAAAAAA=
    >
    FLOATPOS 0 0 0 0
    FXID {A5115AF9-13EF-41D8-80FF-CB81A74D6CD4}
    WAK 0
  >
  <ITEM
    POSITION 0.00000000000000
    SNAPOFFS 0.00000000000000
    LENGTH 179.23352053137964
    LOOP 0
    ALLTAKES 0
    SEL 0
    FADEIN 1 0.000000 0.000000 1 0
    FADEOUT 1 0.000000 0.000000 1 0
    MUTE 0
    IGUID {6F5DF5D5-958D-4566-AA6E-AFD27D997F3F}
    IID 17
    NAME "PART REAL_KEYS_M"
    VOLPAN 1.000000 0.000000 1.000000 -1.000000
    SOFFS 0.00000000000000 0.00000000000000
    PLAYRATE 1.00000000000000 1 0.00000000000000 -65536
    CHANMODE 0
    GUID {14BC6779-E32B-455D-A61C-C2E68D8FE08C}
    <SOURCE MIDI
      HASDATA 1 480 QN
      POOLEDEVTS {787E768C-91FB-48F5-A8FA-BEFB9E68482E}
      <X 0 0
        /wNQQVJUIFJFQUxfS0VZU19N
      >
      e 0 90 09 60
      e 480 80 09 00
      e 3360 90 39 60
      e 360 80 39 00
      E 176281 b0 7b 00
      GUID {806139BE-556B-4882-A297-06705078FD7A}
      IGNTEMPO 0 120.00000000 4 4
      SRCCOLOR 1264
      VELLANE 132 128 60
      COLORMAP "C:\Program Files\REAPER\Data\color_maps\rockband_guitarbass.png"
      TEXTSTRINGFILE "C:\Program Files\REAPER\Data\Text_Strings\Text Events List.txt"
      CFGEDITVIEW -4299.275963 82.395269 0 17 0 0 0
      CFGEDIT 1 1 0 1 1 1 1 1 1 1 1 0.12500000 -8 -8 1374 736 1 2 1 2 0.00000000 0 0 0 0 0.500000 1 0 1.000000 64
      KEYSNAP 0 0 "102034050607" 0 "Major"
      EVTFILTER 0 -1 -1 -1 -1 0 1 0 0 -1.00000000 -1.00000000
    >
  >
>
<TRACK '{49B8D0E0-0069-415C-8FC3-AC29B0E2C3CF}'
  NAME "PART REAL_KEYS_E"
  PEAKCOL 25231232
  BEAT -1
  AUTOMODE 0
  VOLPAN 1.00000000000000 0.00000000000000 -1.00000000000000 -1.00000000000000 1.00000000000000
  MUTESOLO 1 0 0
  IPHASE 0
  ISBUS 0 0
  BUSCOMP 0 0
  SHOWINMIX 1 0.666700 0.500000 1 0.500000 -1 -1 -1
  FREEMODE 0
  SEL 0
  REC 0 0 0 0 0 0 0
  TRACKHEIGHT 0 0
  INQ 0 0 0 0.5000000000 100 0 0 100
  NCHAN 2
  FX 1
  TRACKID {49B8D0E0-0069-415C-8FC3-AC29B0E2C3CF}
  PERF 0
  MIDIOUT -1
  <MIDINOTENAMES
    0 0 "C2-E3 Range"
    0 5 "F2-A3 Range"
    0 9 "A2-C4 Range"
    0 48 "C2 (Lowest Note)"
    0 72 "C4 (Highest Note)"
    0 115 "Solo Marker"
    0 126 "Glissando Marker"
    0 127 "Trill Marker"
    0 125 "----"
    0 116 "Overdrive Marker"
    0 114 "----"
    0 71 "B3"
    0 70 "Bb3"
    0 69 "A3"
    0 68 "G#3"
    0 67 "G3"
    0 66 "F#3"
    0 65 "F3"
    0 64 "E3"
    0 63 "Eb3"
    0 62 "D3"
    0 61 "C#3"
    0 60 "C3"
    0 59 "B2"
    0 58 "Bb2"
    0 57 "A2"
    0 56 "G#2"
    0 55 "G2"
    0 54 "F#2"
    0 53 "F2"
    0 52 "E2"
    0 51 "Eb2"
    0 50 "D2"
    0 49 "C#2"
    0 47 "----"
    0 7 "G2-B3 Range"
    0 4 "E2-G3 Range"
    0 2 "D2-F3 Range"
  >
  MAINSEND 1 0
  <FXCHAIN
    SHOW 0
    LASTSEL 0
    DOCKED 0
    BYPASS 0 0
    <JS "IX/MIDI_Tool II" ""
      0.000000 85.000000 127.000000 0.000000 0.000000 0.000000 100.000000 0.000000 0.000000 127.000000 0.000000 0.000000 1.000000 0.000000 0.000000 - - - - - - - - - - - - - - - - - - - - - - - - - - - - - - - - - - - - - - - - - - - - - - - - - 
    >
    FLOATPOS 0 0 0 0
    FXID {71EF04AA-9A38-4C4E-8E04-9FB37BDA6361}
    WAK 0
    BYPASS 0 0
    <VST "VSTi: ReaSynth (Cockos)" "reasynth.dll" 0 ""
      eXNlcu9e7f4AAAAAAgAAAAEAAAAAAAAAAgAAAAAAAAA4AAAAAAAAAA==
      AAAAAO++rd4N8K3eppvEOxe30TqcxKA+c2jRPgAAAADMm4A+6WeIPQ==
      AAAAAAAAAD8AAIA/6SaxPgAAAD8AAAAAAAA=
    >
    FLOATPOS 0 0 0 0
    FXID {6C388847-2A2F-4264-AA7A-4C4ACA9A9672}
    WAK 0
  >
  <ITEM
    POSITION 0.00000000000000
    SNAPOFFS 0.00000000000000
    LENGTH 179.23352053137964
    LOOP 0
    ALLTAKES 0
    SEL 0
    FADEIN 1 0.000000 0.000000 1 0
    FADEOUT 1 0.000000 0.000000 1 0
    MUTE 0
    IGUID {656317AD-B690-4307-9096-C4F4536C131B}
    IID 18
    NAME "PART REAL_KEYS_E"
    VOLPAN 1.000000 0.000000 1.000000 -1.000000
    SOFFS 0.00000000000000 0.00000000000000
    PLAYRATE 1.00000000000000 1 0.00000000000000 -65536
    CHANMODE 0
    GUID {43BDFFBF-75D6-4727-BD3F-08B25C56980C}
    <SOURCE MIDI
      HASDATA 1 480 QN
      POOLEDEVTS {52F2C73E-A0EB-4EF2-93CB-9446D06EA668}
      <X 0 0
        /wNQQVJUIFJFQUxfS0VZU19F
      >
      E 0 90 09 60
      E 480 80 09 00
      E 180001 b0 7b 00
      GUID {F9363449-15E8-4EF0-8BC0-ABEB4CDC1D98}
      IGNTEMPO 0 120.00000000 4 4
      SRCCOLOR 1265
      VELLANE 132 128 60
      COLORMAP "C:\Program Files\REAPER\Data\color_maps\rockband_guitarbass.png"
      TEXTSTRINGFILE "C:\Program Files\REAPER\Data\Text_Strings\Text Events List.txt"
      CFGEDITVIEW 1257.930012 0.103438 51 12 0 0 0
      CFGEDIT 1 1 0 0 1 1 1 1 1 1 1 0.25000000 0 0 683 728 1 0 0 2 0.12500000 0 0 0 0 0.500000 0 0 1.000000 64
      KEYSNAP 0 0 "102034050607" 0 "Major"
      EVTFILTER 0 -1 -1 -1 -1 0 1 0 0 -1.00000000 -1.00000000
    >
  >
>
<TRACK '{80604035-2BD9-43BB-A255-4E5F9E756779}'
  NAME "PART KEYS_ANIM_RH"
  PEAKCOL 16842624
  BEAT -1
  AUTOMODE 0
  VOLPAN 1.00000000000000 0.00000000000000 -1.00000000000000 -1.00000000000000 1.00000000000000
  MUTESOLO 1 0 0
  IPHASE 0
  ISBUS 0 0
  BUSCOMP 0 0
  SHOWINMIX 1 0.666700 0.500000 1 0.500000 -1 -1 -1
  FREEMODE 0
  SEL 0
  REC 0 0 0 0 0 0 0
  TRACKHEIGHT 0 0
  INQ 0 0 0 0.5000000000 100 0 0 100
  NCHAN 2
  FX 1
  TRACKID {80604035-2BD9-43BB-A255-4E5F9E756779}
  PERF 0
  MIDIOUT -1
  <MIDINOTENAMES
    0 48 "C2 (Lowest Note)"
    0 72 "C4 (Highest Note)"
    0 127 "Trill Marker"
    0 126 "Glissando Marker"
    0 125 "----"
    0 116 "Overdrive Marker"
    0 115 "Solo Marker"
    0 114 "----"
    0 71 "B3"
    0 70 "Bb3"
    0 69 "A3"
    0 68 "G#3"
    0 67 "G3"
    0 66 "F#3"
    0 65 "F3"
    0 64 "E3"
    0 63 "Eb3"
    0 62 "D3"
    0 61 "C#3"
    0 60 "C3"
    0 59 "B2"
    0 58 "Bb2"
    0 57 "A2"
    0 56 "G#2"
    0 55 "G2"
    0 54 "F#2"
    0 53 "F2"
    0 52 "E2"
    0 51 "Eb2"
    0 50 "D2"
    0 49 "C#2"
    0 47 "----"
    0 9 "A2-C4 Range"
    0 5 "F2-A3 Range"
    0 0 "C2-E3 Range"
    0 7 "G2-B3 Range"
    0 4 "E2-G3 Range"
    0 2 "D2-F3 Range"
  >
  MAINSEND 1 0
  <FXCHAIN
    SHOW 0
    LASTSEL 0
    DOCKED 0
  >
  <ITEM
    POSITION 0.00000000000000
    SNAPOFFS 0.00000000000000
    LENGTH 179.23352053137964
    LOOP 0
    ALLTAKES 0
    SEL 0
    FADEIN 1 0.000000 0.000000 1 0
    FADEOUT 1 0.000000 0.000000 1 0
    MUTE 0
    IGUID {6A43A4E9-6390-4FBA-9F07-B2C821A1720C}
    IID 19
    NAME "PART KEYS_ANIM_RH"
    VOLPAN 1.000000 0.000000 1.000000 -1.000000
    SOFFS 0.00000000000000 0.00000000000000
    PLAYRATE 1.00000000000000 1 0.00000000000000 -65536
    CHANMODE 0
    GUID {FA5AE238-E1D7-41F5-A663-4C49E4376041}
    <SOURCE MIDI
      HASDATA 1 480 QN
      POOLEDEVTS {E6D68985-D053-4CFB-8609-70FDF861ECEB}
      <X 0 0
        /wNQQVJUIEtFWVNfQU5JTV9SSA==
      >
      E 180481 b0 7b 00
      GUID {268DE88D-9169-44F5-97A1-ABDA1E2CF031}
      IGNTEMPO 0 120.00000000 4 4
      SRCCOLOR 1266
      VELLANE 132 128 60
      COLORMAP "C:\Program Files\REAPER\Data\color_maps\rockband_guitarbass.png"
      TEXTSTRINGFILE "C:\Program Files\REAPER\Data\Text_Strings\Text Events List.txt"
      CFGEDITVIEW 2612.554938 0.179136 51 12 0 0 0
      CFGEDIT 1 1 0 0 1 1 1 1 1 1 1 0.25000000 0 0 683 728 1 0 0 2 0.00000000 0 0 0 0 0.500000 0 0 1.000000 64
      KEYSNAP 0 0 "102034050607" 0 "Major"
      EVTFILTER 0 -1 -1 -1 -1 0 1 0 0 -1.00000000 -1.00000000
    >
  >
>
<TRACK '{F014911F-41F0-491C-9A25-C3D2A462D8D7}'
  NAME "PART KEYS_ANIM_LH"
  PEAKCOL 16842624
  BEAT -1
  AUTOMODE 0
  VOLPAN 1.00000000000000 0.00000000000000 -1.00000000000000 -1.00000000000000 1.00000000000000
  MUTESOLO 1 0 0
  IPHASE 0
  ISBUS 2 -1
  BUSCOMP 0 0
  SHOWINMIX 1 0.666700 0.500000 1 0.500000 -1 -1 -1
  FREEMODE 0
  SEL 0
  REC 0 0 0 0 0 0 0
  TRACKHEIGHT 0 0
  INQ 0 0 0 0.5000000000 100 0 0 100
  NCHAN 2
  FX 1
  TRACKID {F014911F-41F0-491C-9A25-C3D2A462D8D7}
  PERF 0
  MIDIOUT -1
  <MIDINOTENAMES
    0 48 "C2 (Lowest Note)"
    0 72 "C4 (Highest Note)"
    0 127 "Trill Marker"
    0 126 "Glissando Marker"
    0 125 "----"
    0 116 "Overdrive Marker"
    0 115 "Solo Marker"
    0 114 "----"
    0 71 "B3"
    0 70 "Bb3"
    0 69 "A3"
    0 68 "G#3"
    0 67 "G3"
    0 66 "F#3"
    0 65 "F3"
    0 64 "E3"
    0 63 "Eb3"
    0 62 "D3"
    0 61 "C#3"
    0 60 "C3"
    0 59 "B2"
    0 58 "Bb2"
    0 57 "A2"
    0 56 "G#2"
    0 55 "G2"
    0 54 "F#2"
    0 53 "F2"
    0 52 "E2"
    0 51 "Eb2"
    0 50 "D2"
    0 49 "C#2"
    0 47 "----"
    0 9 "A2-C4 Range"
    0 5 "F2-A3 Range"
    0 0 "C2-E3 Range"
    0 7 "G2-B3 Range"
    0 4 "E2-G3 Range"
    0 2 "D2-F3 Range"
  >
  MAINSEND 1 0
  <FXCHAIN
    SHOW 0
    LASTSEL 0
    DOCKED 0
  >
  <ITEM
    POSITION 0.00000000000000
    SNAPOFFS 0.00000000000000
    LENGTH 179.23352053137964
    LOOP 0
    ALLTAKES 0
    SEL 0
    FADEIN 1 0.000000 0.000000 1 0
    FADEOUT 1 0.000000 0.000000 1 0
    MUTE 0
    IGUID {F0F97A68-91AD-4B41-8D32-822B6159FDBC}
    IID 20
    NAME "PART KEYS_ANIM_LH"
    VOLPAN 1.000000 0.000000 1.000000 -1.000000
    SOFFS 0.00000000000000 0.00000000000000
    PLAYRATE 1.00000000000000 1 0.00000000000000 -65536
    CHANMODE 0
    GUID {214023C3-6BA4-450F-A73F-59780553B94C}
    <SOURCE MIDI
      HASDATA 1 480 QN
      POOLEDEVTS {0A710E00-4DFE-4326-8D99-AC01206D25BB}
      <X 0 0
        /wNQQVJUIEtFWVNfQU5JTV9MSA==
      >
      E 180481 b0 7b 00
      GUID {9527D45A-14D5-4C89-A39E-3528B0F29941}
      IGNTEMPO 0 120.00000000 4 4
      SRCCOLOR 1267
      VELLANE 132 128 60
      COLORMAP "C:\Program Files\REAPER\Data\color_maps\rockband_guitarbass.png"
      TEXTSTRINGFILE "C:\Program Files\REAPER\Data\Text_Strings\Text Events List.txt"
      CFGEDITVIEW -4299.275963 82.395269 11 17 0 0 0
      CFGEDIT 1 1 0 1 1 1 1 1 1 1 1 0.12500000 -8 -8 1374 736 1 2 1 2 0.00000000 0 0 0 0 0.500000 1 0 1.000000 64
      KEYSNAP 0 0 "102034050607" 0 "Major"
      EVTFILTER 0 -1 -1 -1 -1 0 1 0 0 -1.00000000 -1.00000000
    >
  >
>
<TRACK '{4BCC1CF3-63A3-43C4-A155-D3593AD88A10}'
  NAME "EVENTS"
  PEAKCOL 29393024
  BEAT -1
  AUTOMODE 0
  VOLPAN 1.00000000000000 0.00000000000000 -1.00000000000000 -1.00000000000000 1.00000000000000
  MUTESOLO 0 0 0
  IPHASE 0
  ISBUS 0 0
  BUSCOMP 0 0
  SHOWINMIX 1 0.666700 0.500000 1 0.500000 -1 -1 -1
  FREEMODE 0
  SEL 0
  REC 0 0 0 0 0 0 0
  TRACKHEIGHT 0 0
  INQ 0 0 0 0.5000000000 100 0 0 100
  NCHAN 2
  FX 1
  TRACKID {4BCC1CF3-63A3-43C4-A155-D3593AD88A10}
  PERF 0
  MIDIOUT -1
  MAINSEND 1 0
  <FXCHAIN
    SHOW 0
    LASTSEL 0
    DOCKED 0
  >
  <ITEM
    POSITION 0.00000000000000
    SNAPOFFS 0.00000000000000
    LENGTH 216.47034038946126
    LOOP 0
    ALLTAKES 0
    SEL 0
    FADEIN 1 0.000000 0.000000 1 0
    FADEOUT 1 0.000000 0.000000 1 0
    MUTE 0
    IGUID {86A06D27-867C-4398-9CE6-8F0526B3B594}
    IID 21
    NAME "EVENTS"
    VOLPAN 1.000000 0.000000 1.000000 -1.000000
    SOFFS 0.00000000000000 0.00000000000000
    PLAYRATE 1.00000000000000 1 0.00000000000000 -65536
    CHANMODE 0
    GUID {584C8192-4FF3-4E29-8138-2E6BD568B61A}
    <SOURCE MIDI
      HASDATA 1 480 QN
      POOLEDEVTS {0A39EF5C-BE89-4BA5-A4E4-605B74101D78}
      <X 0 0
        /wNFVkVOVFM=
      >
      <X 0 0
        /wFbY3Jvd2Rfbm9ybWFsXQ==
      >
      <X 0 0
        /wFbcHJjX2ludHJvXQ==
      >
      <X 3840 0
        /wFbbXVzaWNfc3RhcnRd
      >
      <X 11040 0
        /wFbcHJjX2JyZWFrXzFd
      >
      <X 15600 0
        /wFbcHJjX3ZlcnNlXzFhXQ==
      >
      <X 7860 0
        /wFbcHJjX3ZlcnNlXzFiXQ==
      >
      <X 7020 0
        /wFbcHJjX2Nob3J1c18xYV0=
      >
      <X 7440 0
        /wFbcHJjX2Nob3J1c18xYl0=
      >
      <X 8100 0
        /wFbcHJjX2NoYW50XzFd
      >
      <X 15900 0
        /wFbcHJjX3ZlcnNlXzFhXQ==
      >
      <X 7800 0
        /wFbcHJjX3ZlcnNlXzFiXQ==
      >
      <X 7080 0
        /wFbcHJjX2Nob3J1c18xYV0=
      >
      <X 7440 0
        /wFbcHJjX2Nob3J1c18xYl0=
      >
      <X 7980 0
        /wFbcHJjX2NoYW50XzJd
      >
      <X 15300 0
        /wFbcHJjX2JyZWFrZG93bl0=
      >
      <X 14880 0
        /wFbcHJjX2d0cl9zb2xvXzFhXQ==
      >
      <X 7500 0
        /wFbcHJjX2d0cl9zb2xvXzFiXQ==
      >
      <X 8220 0
        /wFbcHJjX2d0cl9zb2xvXzFjXQ==
      >
      <X 7680 0
        /wFbcHJjX2d0cl9zb2xvXzFkXQ==
      >
      <X 7920 0
        /wFbcHJjX2NoYW50XzNd
      >
      <X 15000 0
        /wFbcHJjX2NoYW50XzRd
      >
      <X 15480 0
        /wFbcHJjX291dHJvXQ==
      >
      <X 12600 0
        /wFbbXVzaWNfZW5kXQ==
      >
      <X 3360 0
        /wFbZW5kXQ==
      >
      E 2948 b0 7b 00
      GUID {40AD7956-A22A-434A-8513-4D3792B9DF69}
      IGNTEMPO 0 120.00000000 4 4
      SRCCOLOR 1268
      VELLANE 132 100 100
      COLORMAP "M:\RGS Documents\ColorMaps\rockband_vox-other.png"
      TEXTSTRINGFILE "C:\Program Files\REAPER (x64)\REAPER\Data\Text_Strings\Text Events List - Events.txt"
      CFGEDITVIEW 38527.718967 110.633957 1 48 0 0 0
      CFGEDIT 1 1 0 0 0 1 1 1 1 1 1 0.12500000 44 63 1223 847 1 2 1 2 0.00000000 0 0 0 0 0.500000 1 0 1.000000 64
      KEYSNAP 0 0 "102034050607" 0 "Major"
      EVTFILTER 0 -1 -1 -1 -1 0 1 0 0 -1.00000000 -1.00000000
    >
  >
>
<TRACK '{1529008F-97D2-43EB-8634-7C5A7418AD90}'
  NAME "VENUE"
  PEAKCOL 16842496
  BEAT -1
  AUTOMODE 0
  VOLPAN 1.00000000000000 0.00000000000000 -1.00000000000000 -1.00000000000000 1.00000000000000
  MUTESOLO 0 0 0
  IPHASE 0
  ISBUS 0 0
  BUSCOMP 0 0
  SHOWINMIX 1 0.666700 0.500000 1 0.500000 -1 -1 -1
  FREEMODE 0
  SEL 0
  REC 0 0 0 0 0 0 0
  TRACKHEIGHT 0 0
  INQ 0 0 0 0.5000000000 100 0 0 100
  NCHAN 2
  FX 1
  TRACKID {1529008F-97D2-43EB-8634-7C5A7418AD90}
  PERF 0
  MIDIOUT -1
  <MIDINOTENAMES
    0 87 "Guitarist Sing Along"
    0 86 "Drummer Sing Along"
    0 85 "Bassist Sing Along"
    0 40 "Spotlight on Vocals"
    0 39 "Spotlight on Guitar"
    0 38 "Spotlight on Drums"
    0 37 "Spotlight on Bass"
    0 41 "Spotlight on Keys"
  >
  MAINSEND 1 0
  <FXCHAIN
    SHOW 0
    LASTSEL 0
    DOCKED 0
  >
  <ITEM
    POSITION 0.00000000000000
    SNAPOFFS 0.00000000000000
    LENGTH 216.47034038946126
    LOOP 0
    ALLTAKES 0
    SEL 0
    FADEIN 1 0.000000 0.000000 1 0
    FADEOUT 1 0.000000 0.000000 1 0
    MUTE 0
    IGUID {71027329-E0AB-447D-A192-4839733334E7}
    IID 22
    NAME "VENUE"
    VOLPAN 1.000000 0.000000 1.000000 -1.000000
    SOFFS 0.00000000000000 0.00000000000000
    PLAYRATE 1.00000000000000 1 0.00000000000000 -65536
    CHANMODE 0
    GUID {44F0FFD1-5109-4A47-8BED-262AA04D3B23}
    <SOURCE MIDI
      HASDATA 1 480 QN
      POOLEDEVTS {FA47198E-6D28-4C7A-A084-F67056F9E6E3}
      <X 0 0
        /wNWRU5VRQ==
      >
      <X 0 0
        /wFbbGlnaHRpbmcgKGludHJvKV0=
      >
      <X 0 0
        /wFbUHJvRmlsbV9hLnBwXQ==
      >
      <X 0 0
        /wFbY29vcF9hbGxfZmFyXQ==
      >
      <X 3825 0
        /wFbY29vcF92X2Nsb3NldXBd
      >
      <X 2400 0
        /wFbY29vcF9mcm9udF9iZWhpbmRd
      >
      <X 1905 0
        /wFbY29vcF9idl9uZWFyXQ==
      >
      <X 2895 0
        /wFbY29vcF9idl9iZWhpbmRd
      >
      <X 1455 0
        /wFbY29vcF92X2JlaGluZF0=
      >
      <X 960 0
        /wFbY29vcF92X2Nsb3NldXBd
      >
      <X 465 0
        /wFbUHJvRmlsbV9hLnBwXQ==
      >
      <X 0 0
        /wFbbGlnaHRpbmcgKGludHJvKV0=
      >
      <X 960 0
        /wFbUHJvRmlsbV9hLnBwXQ==
      >
      <X 0 0
        /wFbbGlnaHRpbmcgKHN3ZWVwKV0=
      >
      <X 465 0
        /wFbY29vcF9mcm9udF9uZWFyXQ==
      >
      <X 3855 0
        /wFbY29vcF9ia19uZWFyXQ==
      >
      <X 4785 0
        /wFbY29vcF9nX2JlaGluZF0=
      >
      <X 3855 0
        /wFbY29vcF9iZ19uZWFyXQ==
      >
      <X 1680 0
        /wFbUHJvRmlsbV9hLnBwXQ==
      >
      <X 0 0
        /wFbbGlnaHRpbmcgKHN3ZWVwKV0=
      >
      <X 960 0
        /wFbUHJvRmlsbV9hLnBwXQ==
      >
      <X 0 0
        /wFbbGlnaHRpbmcgKGxvb3BfY29vbCld
      >
      <X 225 0
        /wFbY29vcF9rdl9uZWFyXQ==
      >
      <X 1470 0
        /wFbY29vcF9iX25lYXJd
      >
      <X 1440 0
        /wFbY29vcF9kX25lYXJd
      >
      <X 945 0
        /wFbY29vcF92X2Nsb3NldXBd
      >
      <X 2865 0
        /wFbY29vcF9rX25lYXJd
      >
      <X 960 0
        /wFbY29vcF9rdl9uZWFyXQ==
      >
      <X 2910 0
        /wFbY29vcF9hbGxfbmVhcl0=
      >
      <X 960 0
        /wFbY29vcF92X25lYXJd
      >
      <X 1425 0
        /wFbY29vcF9iX25lYXJd
      >
      <X 975 0
        /wFbY29vcF9nX25lYXJd
      >
      <X 225 0
        /wFbUHJvRmlsbV9hLnBwXQ==
      >
      <X 0 0
        /wFbbGlnaHRpbmcgKGxvb3BfY29vbCld
      >
      <X 480 0
        /wFbZmlsbV9jb250cmFzdC5wcF0=
      >
      <X 0 0
        /wFbbGlnaHRpbmcgKHNlYXJjaGxpZ2h0cyld
      >
      <X 15 0
        /wFbZGlyZWN0ZWRfYWxsXQ==
      >
      <X 210 0
        /wFbY29vcF92X25lYXJd
      >
      <X 975 0
        /wFbY29vcF9ndl9uZWFyXQ==
      >
      <X 2415 0
        /wFbY29vcF9mcm9udF9uZWFyXQ==
      >
      <X 1410 0
        /wFbY29vcF9idl9uZWFyXQ==
      >
      <X 1935 0
        /wFbY29vcF9kX2JlaGluZF0=
      >
      <X 960 0
        /wFbY29vcF92X2Nsb3NldXBd
      >
      <X 975 0
        /wFbY29vcF9iX25lYXJd
      >
      <X 1410 0
        /wFbY29vcF92X25lYXJd
      >
      <X 975 0
        /wFbY29vcF92X25lYXJd
      >
      <X 1440 0
        /wFbY29vcF92X25lYXJd
      >
      <X 1455 0
        /wFbY29vcF92X25lYXJd
      >
      <X 405 0
        /wFbZmlsbV9jb250cmFzdC5wcF0=
      >
      <X 0 0
        /wFbbGlnaHRpbmcgKHNlYXJjaGxpZ2h0cyld
      >
      <X 960 0
        /wFbUHJvRmlsbV9hLnBwXQ==
      >
      <X 0 0
        /wFbbGlnaHRpbmcgKHN3ZWVwKV0=
      >
      <X 45 0
        /wFbY29vcF92X2Nsb3NldXBd
      >
      <X 1470 0
        /wFbY29vcF9mcm9udF9iZWhpbmRd
      >
      <X 960 0
        /wFbY29vcF92X2Nsb3NldXBd
      >
      <X 1410 0
        /wFbY29vcF92X25lYXJd
      >
      <X 1455 0
        /wFbY29vcF9rdl9uZWFyXQ==
      >
      <X 960 0
        /wFbY29vcF9mcm9udF9uZWFyXQ==
      >
      <X 1440 0
        /wFbY29vcF9rdl9uZWFyXQ==
      >
      <X 1425 0
        /wFbY29vcF9mcm9udF9uZWFyXQ==
      >
      <X 990 0
        /wFbY29vcF92X2Nsb3NldXBd
      >
      <X 1440 0
        /wFbY29vcF9mcm9udF9uZWFyXQ==
      >
      <X 1425 0
        /wFbY29vcF92X25lYXJd
      >
      <X 975 0
        /wFbY29vcF92X25lYXJd
      >
      <X 945 0
        /wFbUHJvRmlsbV9hLnBwXQ==
      >
      <X 0 0
        /wFbbGlnaHRpbmcgKHN3ZWVwKV0=
      >
      <X 15 0
        /wFbY29vcF9idl9uZWFyXQ==
      >
      <X 945 0
        /wFbUHJvRmlsbV9hLnBwXQ==
      >
      <X 0 0
        /wFbbGlnaHRpbmcgKGxvb3BfY29vbCld
      >
      <X 0 0
        /wFbY29vcF92X2Nsb3NldXBd
      >
      <X 960 0
        /wFbY29vcF9iX25lYXJd
      >
      <X 1905 0
        /wFbY29vcF9rdl9uZWFyXQ==
      >
      <X 1440 0
        /wFbY29vcF92X25lYXJd
      >
      <X 2415 0
        /wFbY29vcF9rdl9uZWFyXQ==
      >
      <X 975 0
        /wFbY29vcF9mcm9udF9iZWhpbmRd
      >
      <X 2400 0
        /wFbY29vcF9kX25lYXJd
      >
      <X 960 0
        /wFbY29vcF92X2Nsb3NldXBd
      >
      <X 960 0
        /wFbY29vcF9mcm9udF9iZWhpbmRd
      >
      <X 945 0
        /wFbY29vcF9rdl9uZWFyXQ==
      >
      <X 975 0
        /wFbY29vcF9mcm9udF9uZWFyXQ==
      >
      <X 465 0
        /wFbUHJvRmlsbV9hLnBwXQ==
      >
      <X 0 0
        /wFbbGlnaHRpbmcgKGxvb3BfY29vbCld
      >
      <X 465 0
        /wFbY29vcF92X2Nsb3NldXBd
      >
      <X 15 0
        /wFbZmlsbV9jb250cmFzdC5wcF0=
      >
      <X 0 0
        /wFbbGlnaHRpbmcgKHNlYXJjaGxpZ2h0cyld
      >
      <X 15 0
        /wFbZGlyZWN0ZWRfYWxsXQ==
      >
      <X 3330 0
        /wFbY29vcF92X2Nsb3NldXBd
      >
      <X 1455 0
        /wFbY29vcF9mcm9udF9uZWFyXQ==
      >
      <X 2865 0
        /wFbY29vcF92X25lYXJd
      >
      <X 1920 0
        /wFbY29vcF9hbGxfbmVhcl0=
      >
      <X 1440 0
        /wFbY29vcF92X2Nsb3NldXBd
      >
      <X 1440 0
        /wFbY29vcF9rdl9uZWFyXQ==
      >
      <X 1470 0
        /wFbY29vcF9hbGxfZmFyXQ==
      >
      <X 525 0
        /wFbZmlsbV9jb250cmFzdC5wcF0=
      >
      <X 0 0
        /wFbbGlnaHRpbmcgKHNlYXJjaGxpZ2h0cyld
      >
      <X 915 0
        /wFbY29vcF92X25lYXJd
      >
      <X 45 0
        /wFbUHJvRmlsbV9hLnBwXQ==
      >
      <X 0 0
        /wFbbGlnaHRpbmcgKHN3ZWVwKV0=
      >
      <X 1365 0
        /wFbY29vcF92X2Nsb3NldXBd
      >
      <X 990 0
        /wFbY29vcF92X2Nsb3NldXBd
      >
      <X 1410 0
        /wFbY29vcF92X2Nsb3NldXBd
      >
      <X 1440 0
        /wFbY29vcF92X2Nsb3NldXBd
      >
      <X 960 0
        /wFbY29vcF92X2Nsb3NldXBd
      >
      <X 1455 0
        /wFbY29vcF92X2Nsb3NldXBd
      >
      <X 1455 0
        /wFbY29vcF9hbGxfbmVhcl0=
      >
      <X 960 0
        /wFbY29vcF9mcm9udF9iZWhpbmRd
      >
      <X 1425 0
        /wFbY29vcF92X2Nsb3NldXBd
      >
      <X 1455 0
        /wFbY29vcF9hbGxfZmFyXQ==
      >
      <X 960 0
        /wFbY29vcF92X2Nsb3NldXBd
      >
      <X 465 0
        /wFbUHJvRmlsbV9hLnBwXQ==
      >
      <X 0 0
        /wFbbGlnaHRpbmcgKHN3ZWVwKV0=
      >
      <X 960 0
        /wFbUHJvRmlsbV9hLnBwXQ==
      >
      <X 0 0
        /wFbbGlnaHRpbmcgKGhhcm1vbnkpXQ==
      >
      <X 975 0
        /wFbY29vcF9rX25lYXJd
      >
      <X 1920 0
        /wFbY29vcF9kX25lYXJd
      >
      <X 2385 0
        /wFbY29vcF9hbGxfZmFyXQ==
      >
      <X 1440 0
        /wFbY29vcF9rX25lYXJd
      >
      <X 3855 0
        /wFbY29vcF9mcm9udF9uZWFyXQ==
      >
      <X 3345 0
        /wFbUHJvRmlsbV9hLnBwXQ==
      >
      <X 0 0
        /wFbbGlnaHRpbmcgKGhhcm1vbnkpXQ==
      >
      <X 15 0
        /wFbY29vcF9iX2JlaGluZF0=
      >
      <X 945 0
        /wFbZmlsbV9jb250cmFzdF9ibHVlLnBwXQ==
      >
      <X 0 0
        /wFbbGlnaHRpbmcgKHN3ZWVwKV0=
      >
      <X 0 0
        /wFbY29vcF92X2Nsb3NldXBd
      >
      <X 15 0
        /wFbZGlyZWN0ZWRfZ3VpdGFyXQ==
      >
      E 0 90 27 64
      <X 4785 0
        /wFbY29vcF9iZ19uZWFyXQ==
      >
      <X 2895 0
        /wFbY29vcF9nX25lYXJd
      >
      <X 2880 0
        /wFbY29vcF9iZ19uZWFyXQ==
      >
      <X 3330 0
        /wFbY29vcF9iZ19uZWFyXQ==
      >
      <X 1935 0
        /wFbY29vcF9nX2Nsb3NldXBfaGVhZF0=
      >
      <X 1935 0
        /wFbY29vcF9kX25lYXJd
      >
      <X 3825 0
        /wFbY29vcF9kX25lYXJd
      >
      <X 1905 0
        /wFbY29vcF9nX2Nsb3NldXBfaGVhZF0=
      >
      <X 960 0
        /wFbY29vcF9iZ19uZWFyXQ==
      >
      <X 1920 0
        /wFbY29vcF9nX25lYXJd
      >
      <X 3855 0
        /wFbY29vcF92X25lYXJd
      >
      <X 120 0
        /wFbZmlsbV9jb250cmFzdF9ibHVlLnBwXQ==
      >
      <X 0 0
        /wFbbGlnaHRpbmcgKHN3ZWVwKV0=
      >
      <X 840 0
        /wFbY29vcF92X2Nsb3NldXBd
      >
      <X 120 0
        /wFbUHJvRmlsbV9hLnBwXQ==
      >
      <X 0 0
        /wFbbGlnaHRpbmcgKGhhcm1vbnkpXQ==
      >
      E 255 80 27 00
      <X 1065 0
        /wFbY29vcF92X25lYXJd
      >
      <X 2385 0
        /wFbY29vcF9mcm9udF9uZWFyXQ==
      >
      <X 1440 0
        /wFbY29vcF92X25lYXJd
      >
      <X 975 0
        /wFbY29vcF92X2Nsb3NldXBd
      >
      <X 1440 0
        /wFbY29vcF92X25lYXJd
      >
      <X 1455 0
        /wFbY29vcF92X2Nsb3NldXBd
      >
      <X 2370 0
        /wFbY29vcF9rdl9iZWhpbmRd
      >
      <X 1440 0
        /wFbY29vcF92X25lYXJd
      >
      <X 975 0
        /wFbY29vcF92X25lYXJd
      >
      <X 240 0
        /wFbUHJvRmlsbV9hLnBwXQ==
      >
      <X 0 0
        /wFbbGlnaHRpbmcgKGhhcm1vbnkpXQ==
      >
      <X 960 0
        /wFbUHJvRmlsbV9hLnBwXQ==
      >
      <X 0 0
        /wFbbGlnaHRpbmcgKHN3ZWVwKV0=
      >
      <X 225 0
        /wFbY29vcF9mcm9udF9uZWFyXQ==
      >
      <X 1470 0
        /wFbY29vcF92X25lYXJd
      >
      <X 2400 0
        /wFbY29vcF92X2Nsb3NldXBd
      >
      <X 1410 0
        /wFbY29vcF92X2Nsb3NldXBd
      >
      <X 990 0
        /wFbY29vcF9hbGxfYmVoaW5kXQ==
      >
      <X 1425 0
        /wFbY29vcF92X25lYXJd
      >
      <X 1425 0
        /wFbY29vcF92X25lYXJd
      >
      <X 990 0
        /wFbY29vcF92X2Nsb3NldXBd
      >
      <X 1440 0
        /wFbY29vcF92X25lYXJd
      >
      <X 1425 0
        /wFbY29vcF92X25lYXJd
      >
      <X 1320 0
        /wFbUHJvRmlsbV9hLnBwXQ==
      >
      <X 0 0
        /wFbbGlnaHRpbmcgKHN3ZWVwKV0=
      >
      <X 960 0
        /wFbZmlsbV9jb250cmFzdF9ibHVlLnBwXQ==
      >
      <X 0 0
        /wFbbGlnaHRpbmcgKHNlYXJjaGxpZ2h0cyld
      >
      <X 135 0
        /wFbY29vcF9ia19uZWFyXQ==
      >
      <X 3825 0
        /wFbY29vcF9ia19uZWFyXQ==
      >
      <X 2400 0
        /wFbY29vcF9ia19uZWFyXQ==
      >
      <X 3345 0
        /wFbY29vcF9ia19uZWFyXQ==
      >
      <X 2910 0
        /wFbbGlnaHRpbmcgKHNpbGhvdWV0dGVzKV0=
      >
      <X 0 0
        /wFbUHJvRmlsbV9hLnBwXQ==
      >
      <X 930 0
        /wFbY29vcF9ia19uZWFyXQ==
      >
      <X 960 0
        /wFbY29vcF9rX25lYXJd
      >
      <X 1469 0
        /wFbUHJvRmlsbV9hLnBwXQ==
      >
      E 2949 b0 7b 00
      GUID {30097062-47C5-4B33-B665-170EF09D70D9}
      IGNTEMPO 0 120.00000000 4 4
      SRCCOLOR 1269
      VELLANE 132 230 230
      COLORMAP "M:\RGS Documents\ColorMaps\rockband_vox-other.png"
      TEXTSTRINGFILE "Text Events List.txt"
      CFGEDITVIEW -250.444400 155.723187 80 12 0 0 0
      CFGEDIT 1 1 0 0 1 1 1 1 1 1 1 0.25000000 133 19 1300 803 1 0 1 2 0.00000000 0 0 0 0 0.500000 1 0 1.000000 64
      KEYSNAP 0 0 "102034050607" 0 "Major"
      EVTFILTER 0 -1 -1 -1 -1 0 1 0 0 -1.00000000 -1.00000000
    >
  >
>
<TRACK '{7BC63EFC-0ABC-4D0D-8204-E9893AE9FFFA}'
  NAME "BEAT"
  PEAKCOL 23514346
  BEAT -1
  AUTOMODE 0
  VOLPAN 1.00000000000000 0.00000000000000 -1.00000000000000 -1.00000000000000 1.00000000000000
  MUTESOLO 0 0 0
  IPHASE 0
  ISBUS 0 0
  BUSCOMP 1 0
  SHOWINMIX 1 0.666700 0.500000 1 0.500000 -1 -1 -1
  FREEMODE 0
  SEL 0
  REC 0 0 0 0 0 0 0
  TRACKHEIGHT 0 0
  INQ 0 0 0 0.5000000000 100 0 0 100
  NCHAN 2
  FX 1
  TRACKID {7BC63EFC-0ABC-4D0D-8204-E9893AE9FFFA}
  PERF 0
  MIDIOUT -1
  <MIDINOTENAMES
    0 12 "Downbeat"
    0 13 "Up Beats"
  >
  MAINSEND 1 0
  <FXCHAIN
    SHOW 0
    LASTSEL 0
    DOCKED 0
  >
  <ITEM
    POSITION 0.00000000000000
    SNAPOFFS 0.00000000000000
    LENGTH 216.47034038946126
    LOOP 0
    ALLTAKES 0
    SEL 0
    FADEIN 1 0.000000 0.000000 1 0
    FADEOUT 1 0.000000 0.000000 1 0
    MUTE 0
    IGUID {9960CDFD-BF2E-4E67-97CD-4F13D0A3F2ED}
    IID 23
    NAME "BEAT"
    VOLPAN 1.000000 0.000000 1.000000 -1.000000
    SOFFS 0.00000000000000 0.00000000000000
    PLAYRATE 1.00000000000000 1 0.00000000000000 -65536
    CHANMODE 0
    GUID {CEBFDCF1-B2BD-47E1-A085-C26E1C9E9ED2}
    <SOURCE MIDI
      HASDATA 1 480 QN
      POOLEDEVTS {AE897BB0-0EA4-4ED9-AF4A-CEAA5A1D27E8}
      <X 0 0
        /wNCRUFU
      >
      e 0 96 0c 64
      e 120 86 0c 00
      e 360 96 0d 64
      e 120 86 0d 00
      e 360 96 0d 64
      e 120 86 0d 00
      e 360 96 0d 64
      e 120 86 0d 00
      e 360 96 0c 64
      e 120 86 0c 00
      e 360 96 0d 64
      e 120 86 0d 00
      e 360 96 0d 64
      e 120 86 0d 00
      e 360 96 0d 64
      e 120 86 0d 00
      e 360 96 0c 64
      e 120 86 0c 00
      e 360 96 0d 64
      e 120 86 0d 00
      e 360 96 0d 64
      e 120 86 0d 00
      e 360 96 0d 64
      e 120 86 0d 00
      e 360 96 0c 64
      e 120 86 0c 00
      e 360 96 0d 64
      e 120 86 0d 00
      e 360 96 0d 64
      e 120 86 0d 00
      e 360 96 0d 64
      e 120 86 0d 00
      e 360 96 0c 64
      e 120 86 0c 00
      e 360 96 0d 64
      e 120 86 0d 00
      e 360 96 0d 64
      e 120 86 0d 00
      e 360 96 0d 64
      e 120 86 0d 00
      e 360 96 0c 64
      e 120 86 0c 00
      e 360 96 0d 64
      e 120 86 0d 00
      e 360 96 0d 64
      e 120 86 0d 00
      e 360 96 0d 64
      e 120 86 0d 00
      e 360 96 0c 64
      e 120 86 0c 00
      e 360 96 0d 64
      e 120 86 0d 00
      e 360 96 0d 64
      e 120 86 0d 00
      e 360 96 0d 64
      e 120 86 0d 00
      e 360 96 0c 64
      e 120 86 0c 00
      e 360 96 0d 64
      e 120 86 0d 00
      e 360 96 0d 64
      e 120 86 0d 00
      e 360 96 0d 64
      e 120 86 0d 00
      e 360 96 0c 64
      e 120 86 0c 00
      e 360 96 0d 64
      e 120 86 0d 00
      e 360 96 0d 64
      e 120 86 0d 00
      e 360 96 0d 64
      e 120 86 0d 00
      e 360 96 0c 64
      e 120 86 0c 00
      e 360 96 0d 64
      e 120 86 0d 00
      e 360 96 0d 64
      e 120 86 0d 00
      e 360 96 0d 64
      e 120 86 0d 00
      e 360 96 0c 64
      e 120 86 0c 00
      e 360 96 0d 64
      e 120 86 0d 00
      e 360 96 0d 64
      e 120 86 0d 00
      e 360 96 0d 64
      e 120 86 0d 00
      e 360 96 0c 64
      e 120 86 0c 00
      e 360 96 0d 64
      e 120 86 0d 00
      e 360 96 0d 64
      e 120 86 0d 00
      e 360 96 0d 64
      e 120 86 0d 00
      e 360 96 0c 64
      e 120 86 0c 00
      e 360 96 0d 64
      e 120 86 0d 00
      e 360 96 0d 64
      e 120 86 0d 00
      e 360 96 0d 64
      e 120 86 0d 00
      e 360 96 0c 64
      e 120 86 0c 00
      e 360 96 0d 64
      e 120 86 0d 00
      e 360 96 0d 64
      e 120 86 0d 00
      e 360 96 0d 64
      e 120 86 0d 00
      e 360 96 0c 64
      e 120 86 0c 00
      e 360 96 0d 64
      e 120 86 0d 00
      e 360 96 0d 64
      e 120 86 0d 00
      e 360 96 0d 64
      e 120 86 0d 00
      e 360 96 0c 64
      e 120 86 0c 00
      e 360 96 0d 64
      e 120 86 0d 00
      e 360 96 0d 64
      e 120 86 0d 00
      e 360 96 0d 64
      e 120 86 0d 00
      e 360 96 0c 64
      e 120 86 0c 00
      e 360 96 0d 64
      e 120 86 0d 00
      e 360 96 0d 64
      e 120 86 0d 00
      e 360 96 0d 64
      e 120 86 0d 00
      e 360 96 0c 64
      e 120 86 0c 00
      e 360 96 0d 64
      e 120 86 0d 00
      e 360 96 0d 64
      e 120 86 0d 00
      e 360 96 0d 64
      e 120 86 0d 00
      e 360 96 0c 64
      e 120 86 0c 00
      e 360 96 0d 64
      e 120 86 0d 00
      e 360 96 0d 64
      e 120 86 0d 00
      e 360 96 0d 64
      e 120 86 0d 00
      e 360 96 0c 64
      e 120 86 0c 00
      e 360 96 0d 64
      e 120 86 0d 00
      e 360 96 0d 64
      e 120 86 0d 00
      e 360 96 0d 64
      e 120 86 0d 00
      e 360 96 0c 64
      e 120 86 0c 00
      e 360 96 0d 64
      e 120 86 0d 00
      e 360 96 0d 64
      e 120 86 0d 00
      e 360 96 0d 64
      e 120 86 0d 00
      e 360 96 0c 64
      e 120 86 0c 00
      e 360 96 0d 64
      e 120 86 0d 00
      e 360 96 0d 64
      e 120 86 0d 00
      e 360 96 0d 64
      e 120 86 0d 00
      e 360 96 0c 64
      e 120 86 0c 00
      e 360 96 0d 64
      e 120 86 0d 00
      e 360 96 0d 64
      e 120 86 0d 00
      e 360 96 0d 64
      e 120 86 0d 00
      e 360 96 0c 64
      e 120 86 0c 00
      e 360 96 0d 64
      e 120 86 0d 00
      e 360 96 0d 64
      e 120 86 0d 00
      e 360 96 0d 64
      e 120 86 0d 00
      e 360 96 0c 64
      e 120 86 0c 00
      e 360 96 0d 64
      e 120 86 0d 00
      e 360 96 0d 64
      e 120 86 0d 00
      e 360 96 0d 64
      e 120 86 0d 00
      e 360 96 0c 64
      e 120 86 0c 00
      e 360 96 0d 64
      e 120 86 0d 00
      e 360 96 0d 64
      e 120 86 0d 00
      e 360 96 0d 64
      e 120 86 0d 00
      e 360 96 0c 64
      e 120 86 0c 00
      e 360 96 0d 64
      e 120 86 0d 00
      e 360 96 0d 64
      e 120 86 0d 00
      e 360 96 0d 64
      e 120 86 0d 00
      e 360 96 0c 64
      e 120 86 0c 00
      e 360 96 0d 64
      e 120 86 0d 00
      e 360 96 0d 64
      e 120 86 0d 00
      e 360 96 0d 64
      e 120 86 0d 00
      e 360 96 0c 64
      e 120 86 0c 00
      e 360 96 0d 64
      e 120 86 0d 00
      e 360 96 0d 64
      e 120 86 0d 00
      e 360 96 0d 64
      e 120 86 0d 00
      e 360 96 0c 64
      e 120 86 0c 00
      e 360 96 0d 64
      e 120 86 0d 00
      e 360 96 0d 64
      e 120 86 0d 00
      e 360 96 0d 64
      e 120 86 0d 00
      e 360 96 0c 64
      e 120 86 0c 00
      e 360 96 0d 64
      e 120 86 0d 00
      e 360 96 0d 64
      e 120 86 0d 00
      e 360 96 0d 64
      e 120 86 0d 00
      e 360 96 0c 64
      e 120 86 0c 00
      e 360 96 0d 64
      e 120 86 0d 00
      e 360 96 0d 64
      e 120 86 0d 00
      e 360 96 0d 64
      e 120 86 0d 00
      e 360 96 0c 64
      e 120 86 0c 00
      e 360 96 0d 64
      e 120 86 0d 00
      e 360 96 0d 64
      e 120 86 0d 00
      e 360 96 0d 64
      e 120 86 0d 00
      e 360 96 0c 64
      e 120 86 0c 00
      e 360 96 0d 64
      e 120 86 0d 00
      e 360 96 0d 64
      e 120 86 0d 00
      e 360 96 0d 64
      e 120 86 0d 00
      e 360 96 0c 64
      e 120 86 0c 00
      e 360 96 0d 64
      e 120 86 0d 00
      e 360 96 0d 64
      e 120 86 0d 00
      e 360 96 0d 64
      e 120 86 0d 00
      e 360 96 0c 64
      e 120 86 0c 00
      e 360 96 0d 64
      e 120 86 0d 00
      e 360 96 0d 64
      e 120 86 0d 00
      e 360 96 0d 64
      e 120 86 0d 00
      e 360 96 0c 64
      e 120 86 0c 00
      e 360 96 0d 64
      e 120 86 0d 00
      e 360 96 0d 64
      e 120 86 0d 00
      e 360 96 0d 64
      e 120 86 0d 00
      e 360 96 0c 64
      e 120 86 0c 00
      e 360 96 0d 64
      e 120 86 0d 00
      e 360 96 0d 64
      e 120 86 0d 00
      e 360 96 0d 64
      e 120 86 0d 00
      e 360 96 0c 64
      e 120 86 0c 00
      e 360 96 0d 64
      e 120 86 0d 00
      e 360 96 0d 64
      e 120 86 0d 00
      e 360 96 0d 64
      e 120 86 0d 00
      e 360 96 0c 64
      e 120 86 0c 00
      e 360 96 0d 64
      e 120 86 0d 00
      e 360 96 0d 64
      e 120 86 0d 00
      e 360 96 0d 64
      e 120 86 0d 00
      e 360 96 0c 64
      e 120 86 0c 00
      e 360 96 0d 64
      e 120 86 0d 00
      e 360 96 0d 64
      e 120 86 0d 00
      e 360 96 0d 64
      e 120 86 0d 00
      e 360 96 0c 64
      e 120 86 0c 00
      e 360 96 0d 64
      e 120 86 0d 00
      e 360 96 0d 64
      e 120 86 0d 00
      e 360 96 0d 64
      e 120 86 0d 00
      e 360 96 0c 64
      e 120 86 0c 00
      e 360 96 0d 64
      e 120 86 0d 00
      e 360 96 0d 64
      e 120 86 0d 00
      e 360 96 0d 64
      e 120 86 0d 00
      e 360 96 0c 64
      e 120 86 0c 00
      e 360 96 0d 64
      e 120 86 0d 00
      e 360 96 0d 64
      e 120 86 0d 00
      e 360 96 0d 64
      e 120 86 0d 00
      e 360 96 0c 64
      e 120 86 0c 00
      e 360 96 0d 64
      e 120 86 0d 00
      e 360 96 0d 64
      e 120 86 0d 00
      e 360 96 0d 64
      e 120 86 0d 00
      e 360 96 0c 64
      e 120 86 0c 00
      e 360 96 0d 64
      e 120 86 0d 00
      e 360 96 0d 64
      e 120 86 0d 00
      e 360 96 0d 64
      e 120 86 0d 00
      e 360 96 0c 64
      e 120 86 0c 00
      e 360 96 0d 64
      e 120 86 0d 00
      e 360 96 0d 64
      e 120 86 0d 00
      e 360 96 0d 64
      e 120 86 0d 00
      e 360 96 0c 64
      e 120 86 0c 00
      e 360 96 0d 64
      e 120 86 0d 00
      e 360 96 0d 64
      e 120 86 0d 00
      e 360 96 0d 64
      e 120 86 0d 00
      e 360 96 0c 64
      e 120 86 0c 00
      e 360 96 0d 64
      e 120 86 0d 00
      e 360 96 0d 64
      e 120 86 0d 00
      e 360 96 0d 64
      e 120 86 0d 00
      e 360 96 0c 64
      e 120 86 0c 00
      e 360 96 0d 64
      e 120 86 0d 00
      e 360 96 0d 64
      e 120 86 0d 00
      e 360 96 0d 64
      e 120 86 0d 00
      e 360 96 0c 64
      e 120 86 0c 00
      e 360 96 0d 64
      e 120 86 0d 00
      e 360 96 0d 64
      e 120 86 0d 00
      e 360 96 0d 64
      e 120 86 0d 00
      e 360 96 0c 64
      e 120 86 0c 00
      e 360 96 0d 64
      e 120 86 0d 00
      e 360 96 0d 64
      e 120 86 0d 00
      e 360 96 0d 64
      e 120 86 0d 00
      e 360 96 0c 64
      e 120 86 0c 00
      e 360 96 0d 64
      e 120 86 0d 00
      e 360 96 0d 64
      e 120 86 0d 00
      e 360 96 0d 64
      e 120 86 0d 00
      e 360 96 0c 64
      e 120 86 0c 00
      e 360 96 0d 64
      e 120 86 0d 00
      e 360 96 0d 64
      e 120 86 0d 00
      e 360 96 0d 64
      e 120 86 0d 00
      e 360 96 0c 64
      e 120 86 0c 00
      e 360 96 0d 64
      e 120 86 0d 00
      e 360 96 0d 64
      e 120 86 0d 00
      e 360 96 0d 64
      e 120 86 0d 00
      e 360 96 0c 64
      e 120 86 0c 00
      e 360 96 0d 64
      e 120 86 0d 00
      e 360 96 0d 64
      e 120 86 0d 00
      e 360 96 0d 64
      e 120 86 0d 00
      e 360 96 0c 64
      e 120 86 0c 00
      e 360 96 0d 64
      e 120 86 0d 00
      e 360 96 0d 64
      e 120 86 0d 00
      e 360 96 0d 64
      e 120 86 0d 00
      e 360 96 0c 64
      e 120 86 0c 00
      e 360 96 0d 64
      e 120 86 0d 00
      e 360 96 0d 64
      e 120 86 0d 00
      e 360 96 0d 64
      e 120 86 0d 00
      e 360 96 0c 64
      e 120 86 0c 00
      e 360 96 0d 64
      e 120 86 0d 00
      e 360 96 0d 64
      e 120 86 0d 00
      e 360 96 0d 64
      e 120 86 0d 00
      e 360 96 0c 64
      e 120 86 0c 00
      e 360 96 0d 64
      e 120 86 0d 00
      e 360 96 0d 64
      e 120 86 0d 00
      e 360 96 0d 64
      e 120 86 0d 00
      e 360 96 0c 64
      e 120 86 0c 00
      e 360 96 0d 64
      e 120 86 0d 00
      e 360 96 0d 64
      e 120 86 0d 00
      e 360 96 0d 64
      e 120 86 0d 00
      e 360 96 0c 64
      e 120 86 0c 00
      e 360 96 0d 64
      e 120 86 0d 00
      e 360 96 0d 64
      e 120 86 0d 00
      e 360 96 0d 64
      e 120 86 0d 00
      e 360 96 0c 64
      e 120 86 0c 00
      e 360 96 0d 64
      e 120 86 0d 00
      e 360 96 0d 64
      e 120 86 0d 00
      e 360 96 0d 64
      e 120 86 0d 00
      e 360 96 0c 64
      e 120 86 0c 00
      e 360 96 0d 64
      e 120 86 0d 00
      e 360 96 0d 64
      e 120 86 0d 00
      e 360 96 0d 64
      e 120 86 0d 00
      e 360 96 0c 64
      e 120 86 0c 00
      e 360 96 0d 64
      e 120 86 0d 00
      e 360 96 0d 64
      e 120 86 0d 00
      e 360 96 0d 64
      e 120 86 0d 00
      e 360 96 0c 64
      e 120 86 0c 00
      e 360 96 0d 64
      e 120 86 0d 00
      e 360 96 0d 64
      e 120 86 0d 00
      e 360 96 0d 64
      e 120 86 0d 00
      e 360 96 0c 64
      e 120 86 0c 00
      e 360 96 0d 64
      e 120 86 0d 00
      e 360 96 0d 64
      e 120 86 0d 00
      e 360 96 0d 64
      e 120 86 0d 00
      e 360 96 0c 64
      e 120 86 0c 00
      e 360 96 0d 64
      e 120 86 0d 00
      e 360 96 0d 64
      e 120 86 0d 00
      e 360 96 0d 64
      e 120 86 0d 00
      e 360 96 0c 64
      e 120 86 0c 00
      e 360 96 0d 64
      e 120 86 0d 00
      e 360 96 0d 64
      e 120 86 0d 00
      e 360 96 0d 64
      e 120 86 0d 00
      e 360 96 0c 64
      e 120 86 0c 00
      e 360 96 0d 64
      e 120 86 0d 00
      e 360 96 0d 64
      e 120 86 0d 00
      e 360 96 0d 64
      e 120 86 0d 00
      e 360 96 0c 64
      e 120 86 0c 00
      e 360 96 0d 64
      e 120 86 0d 00
      e 360 96 0d 64
      e 120 86 0d 00
      e 360 96 0d 64
      e 120 86 0d 00
      e 360 96 0c 64
      e 120 86 0c 00
      e 360 96 0d 64
      e 120 86 0d 00
      e 360 96 0d 64
      e 120 86 0d 00
      e 360 96 0d 64
      e 120 86 0d 00
      e 360 96 0c 64
      e 120 86 0c 00
      e 360 96 0d 64
      e 120 86 0d 00
      e 360 96 0d 64
      e 120 86 0d 00
      e 360 96 0d 64
      e 120 86 0d 00
      e 360 96 0c 64
      e 120 86 0c 00
      e 360 96 0d 64
      e 120 86 0d 00
      e 360 96 0d 64
      e 120 86 0d 00
      e 360 96 0d 64
      e 120 86 0d 00
      e 360 96 0c 64
      e 120 86 0c 00
      e 360 96 0d 64
      e 120 86 0d 00
      e 360 96 0d 64
      e 120 86 0d 00
      e 360 96 0d 64
      e 120 86 0d 00
      e 360 96 0c 64
      e 120 86 0c 00
      e 360 96 0d 64
      e 120 86 0d 00
      e 360 96 0d 64
      e 120 86 0d 00
      e 360 96 0d 64
      e 120 86 0d 00
      e 360 96 0c 64
      e 120 86 0c 00
      e 360 96 0d 64
      e 120 86 0d 00
      e 360 96 0d 64
      e 120 86 0d 00
      e 360 96 0d 64
      e 120 86 0d 00
      e 360 96 0c 64
      e 120 86 0c 00
      e 360 96 0d 64
      e 120 86 0d 00
      e 360 96 0d 64
      e 120 86 0d 00
      e 360 96 0d 64
      e 120 86 0d 00
      e 360 96 0c 64
      e 120 86 0c 00
      e 360 96 0d 64
      e 120 86 0d 00
      e 360 96 0d 64
      e 120 86 0d 00
      e 360 96 0d 64
      e 120 86 0d 00
      e 360 96 0c 64
      e 120 86 0c 00
      e 360 96 0d 64
      e 120 86 0d 00
      e 360 96 0d 64
      e 120 86 0d 00
      e 360 96 0d 64
      e 120 86 0d 00
      e 360 96 0c 64
      e 120 86 0c 00
      e 360 96 0d 64
      e 120 86 0d 00
      e 360 96 0d 64
      e 120 86 0d 00
      e 360 96 0d 64
      e 120 86 0d 00
      e 360 96 0c 64
      e 120 86 0c 00
      e 360 96 0d 64
      e 120 86 0d 00
      e 360 96 0d 64
      e 120 86 0d 00
      e 360 96 0d 64
      e 120 86 0d 00
      e 360 96 0c 64
      e 120 86 0c 00
      e 360 96 0d 64
      e 120 86 0d 00
      e 360 96 0d 64
      e 120 86 0d 00
      e 360 96 0d 64
      e 120 86 0d 00
      e 360 96 0c 64
      e 120 86 0c 00
      e 360 96 0d 64
      e 120 86 0d 00
      e 360 96 0d 64
      e 120 86 0d 00
      e 360 96 0d 64
      e 120 86 0d 00
      e 360 96 0c 64
      e 120 86 0c 00
      e 360 96 0d 64
      e 120 86 0d 00
      e 360 96 0d 64
      e 120 86 0d 00
      e 360 96 0d 64
      e 120 86 0d 00
      e 360 96 0c 64
      e 120 86 0c 00
      e 360 96 0d 64
      e 120 86 0d 00
      e 360 96 0d 64
      e 120 86 0d 00
      e 360 96 0d 64
      e 120 86 0d 00
      e 360 96 0c 64
      e 120 86 0c 00
      e 360 96 0d 64
      e 120 86 0d 00
      e 360 96 0d 64
      e 120 86 0d 00
      e 360 96 0d 64
      e 120 86 0d 00
      e 360 96 0c 64
      e 120 86 0c 00
      e 360 96 0d 64
      e 120 86 0d 00
      e 360 96 0d 64
      e 120 86 0d 00
      e 360 96 0d 64
      e 120 86 0d 00
      e 360 96 0c 64
      e 120 86 0c 00
      e 360 96 0d 64
      e 120 86 0d 00
      e 360 96 0d 64
      e 120 86 0d 00
      e 360 96 0d 64
      e 120 86 0d 00
      e 360 96 0c 64
      e 120 86 0c 00
      e 360 96 0d 64
      e 120 86 0d 00
      e 360 96 0d 64
      e 120 86 0d 00
      e 360 96 0d 64
      e 120 86 0d 00
      e 360 96 0c 64
      e 120 86 0c 00
      e 360 96 0d 64
      e 120 86 0d 00
      e 360 96 0d 64
      e 120 86 0d 00
      e 360 96 0d 64
      e 120 86 0d 00
      e 360 96 0c 64
      e 120 86 0c 00
      e 360 96 0d 64
      e 120 86 0d 00
      e 360 96 0d 64
      e 120 86 0d 00
      e 360 96 0d 64
      e 120 86 0d 00
      e 360 96 0c 64
      e 120 86 0c 00
      e 360 96 0d 64
      e 120 86 0d 00
      e 360 96 0d 64
      e 120 86 0d 00
      e 360 96 0d 64
      e 120 86 0d 00
      e 360 96 0c 64
      e 120 86 0c 00
      e 360 96 0d 64
      e 120 86 0d 00
      e 360 96 0d 64
      e 120 86 0d 00
      e 360 96 0d 64
      e 120 86 0d 00
      e 360 96 0c 64
      e 120 86 0c 00
      e 360 96 0d 64
      e 120 86 0d 00
      e 360 96 0d 64
      e 120 86 0d 00
      e 360 96 0d 64
      e 120 86 0d 00
      e 360 96 0c 64
      e 120 86 0c 00
      e 360 96 0d 64
      e 120 86 0d 00
      e 360 96 0d 64
      e 120 86 0d 00
      e 360 96 0d 64
      e 120 86 0d 00
      e 360 96 0c 64
      e 120 86 0c 00
      e 360 96 0d 64
      e 120 86 0d 00
      e 360 96 0d 64
      e 120 86 0d 00
      e 360 96 0d 64
      e 120 86 0d 00
      e 360 96 0c 64
      e 120 86 0c 00
      e 360 96 0d 64
      e 120 86 0d 00
      e 360 96 0d 64
      e 120 86 0d 00
      e 360 96 0d 64
      e 120 86 0d 00
      e 360 96 0c 64
      e 120 86 0c 00
      e 360 96 0d 64
      e 120 86 0d 00
      e 360 96 0d 64
      e 120 86 0d 00
      e 360 96 0d 64
      e 120 86 0d 00
      e 360 96 0c 64
      e 120 86 0c 00
      e 360 96 0d 64
      e 120 86 0d 00
      e 360 96 0d 64
      e 120 86 0d 00
      e 360 96 0d 64
      e 120 86 0d 00
      e 360 96 0c 64
      e 120 86 0c 00
      e 360 96 0d 64
      e 120 86 0d 00
      e 360 96 0d 64
      e 120 86 0d 00
      e 360 96 0d 64
      e 120 86 0d 00
      e 360 96 0c 64
      e 120 86 0c 00
      e 360 96 0d 64
      e 120 86 0d 00
      e 360 96 0d 64
      e 120 86 0d 00
      e 360 96 0d 64
      e 120 86 0d 00
      e 360 96 0c 64
      e 120 86 0c 00
      e 360 96 0d 64
      e 120 86 0d 00
      e 360 96 0d 64
      e 120 86 0d 00
      e 360 96 0d 64
      e 120 86 0d 00
      e 360 96 0c 64
      e 120 86 0c 00
      e 360 96 0d 64
      e 120 86 0d 00
      e 360 96 0d 64
      e 120 86 0d 00
      e 360 96 0d 64
      e 120 86 0d 00
      e 360 96 0c 64
      e 120 86 0c 00
      e 360 96 0d 64
      e 120 86 0d 00
      e 360 96 0d 64
      e 120 86 0d 00
      e 360 96 0d 64
      e 120 86 0d 00
      e 360 96 0c 64
      e 120 86 0c 00
      e 360 96 0d 64
      e 120 86 0d 00
      e 360 96 0d 64
      e 120 86 0d 00
      e 360 96 0d 64
      e 120 86 0d 00
      e 360 96 0c 64
      e 120 86 0c 00
      e 360 96 0d 64
      e 120 86 0d 00
      e 360 96 0d 64
      e 120 86 0d 00
      e 360 96 0d 64
      e 120 86 0d 00
      e 360 96 0c 64
      e 120 86 0c 00
      e 360 96 0d 64
      e 120 86 0d 00
      e 360 96 0d 64
      e 120 86 0d 00
      e 360 96 0d 64
      e 120 86 0d 00
      e 360 96 0c 64
      e 120 86 0c 00
      e 360 96 0d 64
      e 120 86 0d 00
      e 360 96 0d 64
      e 120 86 0d 00
      e 360 96 0d 64
      e 120 86 0d 00
      e 360 96 0c 64
      e 120 86 0c 00
      e 360 96 0d 64
      e 120 86 0d 00
      e 360 96 0d 64
      e 120 86 0d 00
      e 360 96 0d 64
      e 120 86 0d 00
      e 360 96 0c 64
      e 120 86 0c 00
      e 360 96 0d 64
      e 120 86 0d 00
      e 360 96 0d 64
      e 120 86 0d 00
      e 360 96 0d 64
      e 120 86 0d 00
      e 360 96 0c 64
      e 120 86 0c 00
      e 360 96 0d 64
      e 120 86 0d 00
      e 360 96 0d 64
      e 120 86 0d 00
      e 360 96 0d 64
      e 120 86 0d 00
      E 3308 b0 7b 00
      GUID {8CB930E8-B6A0-4CAD-825A-9F47FB66C1D0}
      IGNTEMPO 0 120.00000000 4 4
      SRCCOLOR 1270
      VELLANE 132 100 100
      COLORMAP "M:\RGS Documents\ColorMaps\rockband_vox-other.png"
      TEXTSTRINGFILE "Text Events List.txt"
      CFGEDITVIEW 148399.534513 20.026944 0 48 0 0 0
      CFGEDIT 1 1 0 0 0 1 1 1 1 1 1 1.00000000 44 63 1223 847 1 2 1 2 0.00000000 0 0 0 0 0.500000 1 0 1.000000 64
      KEYSNAP 0 0 "102034050607" 0 "Major"
      EVTFILTER 0 -1 -1 -1 -1 0 1 0 0 -1.00000000 -1.00000000
    >
  >
>
<TRACK '{0E2FE3F2-76C0-4A51-94D0-F118951ACC28}'
  NAME "PART REAL_GUITAR"
  PEAKCOL 16576
  BEAT -1
  AUTOMODE 0
  VOLPAN 1.00000000000000 0.00000000000000 -1.00000000000000 -1.00000000000000 1.00000000000000
  MUTESOLO 1 0 0
  IPHASE 0
  ISBUS 0 0
  BUSCOMP 0 0
  SHOWINMIX 1 0.666700 0.500000 1 0.500000 -1 -1 -1
  FREEMODE 0
  SEL 0
  REC 0 0 0 0 0 0 0
  TRACKHEIGHT 0 0
  INQ 0 0 0 0.5000000000 100 0 0 100
  NCHAN 2
  FX 1
  TRACKID {0E2FE3F2-76C0-4A51-94D0-F118951ACC28}
  PERF 0
  MIDIOUT -1
  <MIDINOTENAMES
    0 101 "EXPERT E String (HIGH)"
    0 100 "EXPERT B String"
    0 99 "EXPERT G String"
    0 98 "EXPERT D String"
    0 97 "EXPERT A String"
    0 96 "EXPERT E String (LOW)"
    0 77 "HARD E String (HIGH)"
    0 72 "HARD E String (LOW)"
    0 53 "MEDIUM E String (HIGH)"
    0 48 "MEDIUM E String (LOW)"
    0 29 "EASY E String (HIGH)"
    0 24 "EASY E String (LOW)"
    0 76 "HARD B String"
    0 75 "HARD G String"
    0 74 "HARD D String"
    0 73 "HARD A String"
    0 52 "MEDIUM B String"
    0 51 "MEDIUM G String"
    0 50 "MEDIUM D String"
    0 49 "MEDIUM A String"
    0 28 "EASY B String"
    0 27 "EASY G String"
    0 26 "EASY D String"
    0 25 "EASY A String"
    0 116 "OVERDRIVE"
    0 115 "Solo Marker"
    0 125 "BRE"
    0 120 "BRE (use all 6)"
    0 124 "BRE"
    0 123 "BRE"
    0 122 "BRE"
    0 121 "BRE"
    0 127 "Trill"
    0 126 "Tremelo"
    0 108 "Left hand position"
    0 107 "Force Chord Numbering"
    0 104 "EXPERT Arpeggio Marker"
    0 103 "EXPERT Slide Marker"
    0 102 "EXPERT Force Ho/Po"
    0 80 "HARD Arpeggio Marker"
    0 79 "HARD Slide Marker"
    0 78 "Force Ho/Po"
    0 55 "MEDIUM Slide Marker"
    0 31 "EASY Slide Marker"
    0 17 "Hide Chord Names"
    0 15 "Eb"
    0 14 "D"
    0 13 "Db"
    0 12 "C"
    0 11 "B"
    0 10 "Bb"
    0 9 "A"
    0 8 "Ab"
    0 7 "G"
    0 6 "Gb"
    0 5 "F"
    0 4 "E"
    0 105 "EXPERT Strum Direction"
    0 81 "HARD Strum Direction"
    0 56 "MEDIUM Arpeggio Marker"
    0 32 "EASY Arpeggio Marker"
    0 21 "CHORD NAMES"
    0 18 "Flat/Sharp Swap"
    0 16 "Slash Chord"
  >
  MAINSEND 1 0
  <FXCHAIN
    SHOW 0
    LASTSEL 0
    DOCKED 0
  >
  <ITEM
    POSITION 0.00000000000000
    SNAPOFFS 0.00000000000000
    LENGTH 179.70964628452273
    LOOP 0
    ALLTAKES 0
    SEL 0
    FADEIN 1 0.000000 0.000000 1 0
    FADEOUT 1 0.000000 0.000000 1 0
    MUTE 0
    IGUID {20F1321F-9ED7-4853-AD09-40B222B05CF8}
    IID 24
    NAME "PART REAL_GUITAR"
    VOLPAN 1.000000 0.000000 1.000000 -1.000000
    SOFFS 0.00000000000000 0.00000000000000
    PLAYRATE 1.00000000000000 1 0.00000000000000 -1
    CHANMODE 0
    GUID {3CDDC74F-292B-448F-83EC-680F8CEF1C9B}
    <SOURCE MIDI
      HASDATA 1 480 QN
      POOLEDEVTS {51D3212E-6D48-418B-92C9-00E28A280E16}
      <X 0 0
        /wNQQVJUIFJFQUxfR1VJVEFS
      >
      E 3840 90 18 64
      E 0 90 19 64
      E 0 90 1a 64
      E 0 90 1b 64
      E 0 90 1c 64
      E 0 90 1d 64
      E 0 90 30 64
      E 0 90 31 64
      E 0 90 32 64
      E 0 90 33 64
      E 0 90 34 64
      E 0 90 35 64
      E 0 90 48 64
      E 0 90 49 64
      E 0 90 4a 64
      E 0 90 4b 64
      E 0 90 4c 64
      E 0 90 4d 64
      E 0 90 60 64
      E 0 90 61 64
      E 0 90 62 64
      E 0 90 63 64
      E 0 90 64 64
      E 0 90 65 64
      E 120 80 18 00
      E 0 80 19 00
      E 0 80 1a 00
      E 0 80 1b 00
      E 0 80 1c 00
      E 0 80 1d 00
      E 0 80 30 00
      E 0 80 31 00
      E 0 80 32 00
      E 0 80 33 00
      E 0 80 34 00
      E 0 80 35 00
      E 0 80 48 00
      E 0 80 49 00
      E 0 80 4a 00
      E 0 80 4b 00
      E 0 80 4c 00
      E 0 80 4d 00
      E 0 80 60 00
      E 0 80 61 00
      E 0 80 62 00
      E 0 80 63 00
      E 0 80 64 00
      E 0 80 65 00
      E 177000 b0 7b 00
      GUID {95EB2031-BC44-4B36-809B-F7595C07BF30}
      IGNTEMPO 0 120.00000000 4 4
      SRCCOLOR 1271
      VELLANE 132 123 128
      COLORMAP "C:\Program Files\REAPER\Data\color_maps\rockband_guitarbass.png"
      TEXTSTRINGFILE "C:\Program Files\REAPER\Data\Text_Strings\Text Events List.txt"
      CFGEDITVIEW 0.000000 0.103438 87 12 0 0 0
      CFGEDIT 1 1 0 0 0 1 1 1 1 1 1 0.25000000 0 0 683 728 1 0 0 2 0.12500000 0 1 0 0 0.500000 0 0 1.000000 64
      KEYSNAP 0 0 "102034050607" 0 "Major"
      EVTFILTER 0 -1 -1 -1 -1 0 1 0 0 -1.00000000 -1.00000000
    >
  >
>
<TRACK '{4048E3A2-B3FC-493C-BF0E-D7B7B9F9DFF3}'
  NAME "PART REAL_BASS"
  PEAKCOL 16576
  BEAT -1
  AUTOMODE 0
  VOLPAN 1.00000000000000 0.00000000000000 -1.00000000000000 -1.00000000000000 1.00000000000000
  MUTESOLO 1 0 0
  IPHASE 0
  ISBUS 0 0
  BUSCOMP 0 0
  SHOWINMIX 1 0.666700 0.500000 1 0.500000 -1 -1 -1
  FREEMODE 0
  SEL 0
  REC 0 0 0 0 0 0 0
  TRACKHEIGHT 0 0
  INQ 0 0 0 0.5000000000 100 0 0 100
  NCHAN 2
  FX 1
  TRACKID {4048E3A2-B3FC-493C-BF0E-D7B7B9F9DFF3}
  PERF 0
  MIDIOUT -1
  <MIDINOTENAMES
    0 99 "EXPERT G String"
    0 98 "EXPERT D String"
    0 97 "EXPERT A String"
    0 96 "EXPERT E String (LOW)"
    0 72 "HARD E String (LOW)"
    0 48 "MEDIUM E String (LOW)"
    0 24 "EASY E String (LOW)"
    0 75 "HARD G String"
    0 74 "HARD D String"
    0 73 "HARD A String"
    0 51 "MEDIUM G String"
    0 50 "MEDIUM D String"
    0 49 "MEDIUM A String"
    0 27 "EASY G String"
    0 26 "EASY D String"
    0 25 "EASY A String"
    0 116 "OVERDRIVE"
    0 115 "Solo Marker"
    0 120 "BRE (use all 6)"
    0 123 "BRE"
    0 122 "BRE"
    0 121 "BRE"
    0 127 "Trill"
    0 126 "Tremelo"
    0 125 "BRE"
    0 124 "BRE"
    0 108 "Left hand position"
    0 107 "Force Chord Numbering"
    0 104 "EXPERT Arpeggio Marker"
    0 103 "EXPERT Slide Marker"
    0 102 "EXPERT Force Ho/Po"
    0 101 "EXPERT E String (HIGH)"
    0 100 "EXPERT B String"
    0 80 "HARD Arpeggio Marker"
    0 79 "HARD Slide Marker"
    0 78 "Force Ho/Po"
    0 77 "HARD E String (HIGH)"
    0 76 "HARD B String"
    0 55 "MEDIUM Slide Marker"
    0 53 "MEDIUM E String (HIGH)"
    0 52 "MEDIUM B String"
    0 31 "EASY Slide Marker"
    0 29 "EASY E String (HIGH)"
    0 28 "EASY B String"
    0 17 "Hide Chord Names"
    0 15 "Eb"
    0 14 "D"
    0 13 "Db"
    0 12 "C"
    0 11 "B"
    0 10 "Bb"
    0 9 "A"
    0 8 "Ab"
    0 7 "G"
    0 6 "Gb"
    0 5 "F"
    0 4 "E"
    0 105 "EXPERT Strum Direction"
    0 81 "HARD Strum Direction"
    0 56 "MEDIUM Arpeggio Marker"
    0 32 "EASY Arpeggio Marker"
    0 21 "CHORD NAMES"
    0 18 "Flat/Sharp Swap"
    0 16 "Slash Chord"
  >
  MAINSEND 1 0
  <FXCHAIN
    SHOW 0
    LASTSEL 0
    DOCKED 0
  >
  <ITEM
    POSITION 0.00000000000000
    SNAPOFFS 0.00000000000000
    LENGTH 179.70964628452273
    LOOP 0
    ALLTAKES 0
    SEL 0
    FADEIN 1 0.000000 0.000000 1 0
    FADEOUT 1 0.000000 0.000000 1 0
    MUTE 0
    IGUID {20F1321F-9ED7-4853-AD09-40B222B05CF8}
    IID 25
    NAME "PART REAL_BASS"
    VOLPAN 1.000000 0.000000 1.000000 -1.000000
    SOFFS 0.00000000000000 0.00000000000000
    PLAYRATE 1.00000000000000 1 0.00000000000000 -1
    CHANMODE 0
    GUID {3CDDC74F-292B-448F-83EC-680F8CEF1C9B}
    <SOURCE MIDI
      HASDATA 1 480 QN
      POOLEDEVTS {58E3D045-94CB-40C7-B65A-F5D8A529AD7C}
      <X 0 0
        /wNQQVJUIFJFQUxfQkFTUw==
      >
      E 3840 90 18 64
      E 0 90 19 64
      E 0 90 1a 64
      E 0 90 1b 64
      E 0 90 30 64
      E 0 90 31 64
      E 0 90 32 64
      E 0 90 33 64
      E 0 90 48 64
      E 0 90 49 64
      E 0 90 4a 64
      E 0 90 4b 64
      E 0 90 60 64
      E 0 90 61 64
      E 0 90 62 64
      E 0 90 63 64
      E 120 80 18 00
      E 0 80 19 00
      E 0 80 1a 00
      E 0 80 1b 00
      E 0 80 30 00
      E 0 80 31 00
      E 0 80 32 00
      E 0 80 33 00
      E 0 80 48 00
      E 0 80 49 00
      E 0 80 4a 00
      E 0 80 4b 00
      E 0 80 60 00
      E 0 80 61 00
      E 0 80 62 00
      E 0 80 63 00
      E 177000 b0 7b 00
      GUID {95EB2031-BC44-4B36-809B-F7595C07BF30}
      IGNTEMPO 0 120.00000000 4 4
      SRCCOLOR 1272
      VELLANE 132 123 128
      COLORMAP "C:\Program Files\REAPER\Data\color_maps\rockband_guitarbass.png"
      TEXTSTRINGFILE "C:\Program Files\REAPER\Data\Text_Strings\Text Events List.txt"
      CFGEDITVIEW 0.000000 0.179136 0 12 0 0 0
      CFGEDIT 1 1 0 0 0 1 1 1 1 1 1 0.25000000 0 0 683 728 1 0 0 2 0.00000000 0 1 0 0 0.500000 0 0 1.000000 64
      KEYSNAP 0 0 "102034050607" 0 "Major"
      EVTFILTER 0 -1 -1 -1 -1 0 1 0 0 -1.00000000 -1.00000000
    >
  >
>
>
