<REAPER_PROJECT 0.1 "4.22/x64"
  RIPPLE 0
  GROUPOVERRIDE 0 1 0
  AUTOXFADE 1
  ENVATTACH 1
  MIXERUIFLAGS 11 48
  PEAKGAIN 1.00000000000000
  FEEDBACK 0
  PANLAW 1.00000000000000
  PROJOFFS 0.00000000000000 0
  MAXPROJLEN 0 600.00000000000000
  GRID 1535 8 1.00000000000000 8 1.00000000000000 0
  TIMEMODE 1 0 -1
  CURSOR 149.30578659934912
  ZOOM 164.46783851649491 0 0
  VZOOMEX 4
  USE_REC_CFG 0
  RECMODE 1
  SMPTESYNC 0 30.000000 100 40 1000 300 0 0.000000 0
  LOOP 0
  LOOPGRAN 0 4.00000000000000
  RECORD_PATH "" ""
  <RECORD_CFG
    ZXZhdxgA
  >
  <APPLYFX_CFG
  >
  RENDER_FILE ""
  RENDER_PATTERN ""
  RENDER_FMT 0 2 0
  RENDER_1X 0
  RENDER_RANGE 1 0.00000000000000 0.00000000000000
  RENDER_RESAMPLE 3 0 1
  RENDER_ADDTOPROJ 0
  RENDER_STEMS 0
  RENDER_DITHER 0
  TIMELOCKMODE 0
  ITEMMIX 0
  DEFPITCHMODE 0
  TAKELANE 1
  SAMPLERATE 44100 0 0
  <RENDER_CFG
  >
  LOCK 1
  <METRONOME 6 2.000000
    VOL 0.752735 0.723913
    FREQ 800 1600 0
    BEATLEN 4
    SAMPLES "" ""
  >
  GLOBAL_AUTO -1
  TEMPO 120.00000000000000 4 4
  PLAYRATE 1.00000000000000 0 0.25000 4.00000
  SELECTION 0.00000000000000 0.00000000000000
  SELECTION2 0.00000000000000 0.00000000000000
  MASTERAUTOMODE 0
  MASTERTRACKHEIGHT 0
  MASTERPEAKCOL 16576
  MASTERMUTESOLO 0
  MASTERTRACKVIEW 1 0.666700 0.500000 0.500000 -1 -1 -1
  MASTERHWOUT 0 0 1.00000000000000 0.00000000000000 0 0 0 -1.00000000000000
  MASTER_NCH 2 2
  MASTER_VOLUME 1.05925372517729 0.00000000000000 -1.00000000000000 -1.00000000000000 1.00000000000000
  MASTER_FX 1
  MASTER_SEL 0
  <MASTERFXLIST
    SHOW 0
    LASTSEL 0
    DOCKED 0
    BYPASS 0 0
    <VST "VST: W1 Limiter (George Yohng)" "George Yohng_s W1 Limiter.dll" 0 ""
      THdGNO5e7f4CAAAAAQAAAAAAAAACAAAAAAAAAAIAAAABAAAAAAAAAA==
      AgAAAAAAAABMAAAAAQAAAAAAEAAMAACBdGhyZXNoAAD+1Hg/DAAAgQ==
      Y2VpbGluZwD+1Hg/DAAAgXJlbGVhc2UAMEAfPxQAAIFhZGFwdFJlbA==
      ZWFzZQAAAAAAAAAAAAAAgAAAEAAAAA==
    >
    FLOATPOS 24 24 481 152
    FXID {69D45D23-FE06-4141-B0BB-1A6D9443AFA8}
    WAK 0
  >
  <MASTERPLAYSPEEDENV
    ACT 0
    VIS 0 1 1.000000
    LANEHEIGHT 0 0
    ARM 0
    DEFSHAPE 0 -1 -1
  >
  <TEMPOENVEX
    ACT 1
    VIS 1 0 1.000000
    LANEHEIGHT 0 0
    ARM 0
    DEFSHAPE 1 -1 -1
    PT 0.000000000000 110.0000000000 1
    PT 2.181818181818 109.7669779860 1
    PT 4.368268099667 109.8833654547 1
    PT 6.552402149500 110.0769393399 1
    PT 8.732695328428 110.4110483934 1
    PT 10.906390837096 110.7329464936 1
    PT 13.073767463471 109.6144318826 1
    PT 15.263260177871 109.2989946685 1
    PT 17.459071774563 110.0910163690 1
    PT 19.639086165523 109.1419558831 1
    PT 21.838057203362 109.6144318826 1
    PT 24.027549917762 109.7728342408 1
    PT 26.213883191015 109.7728342408 1
    PT 28.400216464268 110.5717631654 1
    PT 30.570752531790 110.5717631654 1
    PT 32.741288599311 110.5717631654 1
    PT 34.911824666833 109.6144318826 1
    PT 37.101317381233 110.7329464936 1
    PT 39.268694007608 109.7728342408 1
    PT 41.455027280861 109.7728342408 1
    PT 43.641360554114 110.4110483934 1
    PT 45.815056062782 109.9316950718 1
    PT 47.998229894889 110.5717631654 1
    PT 50.168765962411 109.7728342408 1
    PT 52.355099235664 110.4110483934 1
    PT 54.528794744332 109.6144318826 1
    PT 56.718287458732 109.1419558831 1
    PT 58.917258496570 110.8946004301 1
    PT 61.081475681799 109.6144318826 1
    PT 63.270968396199 109.7728342408 1
    PT 65.457301669452 110.7329464936 1
    PT 67.624678295827 110.8946004301 1
    PT 69.788895481056 110.2508001374 1
    PT 71.965750430871 108.3634825886 1
    PT 74.180518674441 110.4110483934 1
    PT 76.354214183109 110.0910163690 1
    PT 78.534228574069 109.7728342408 1
    PT 80.720561847323 108.8292282158 1
    PT 82.925851767454 110.8946004301 1
    PT 85.090068952683 110.4110483934 1
    PT 87.263764461351 109.7728342408 1
    PT 89.450097734604 109.9316950718 1
    PT 91.633271566711 110.7329464936 1
    PT 93.800648193086 111.3824065904 1
    PT 95.955387054876 110.0910163690 1
    PT 98.135401445837 110.7329464936 1
    PT 100.302778072212 109.4564860153 1
    PT 102.495430227758 109.2989946685 1
    PT 104.691241824450 109.4564860153 1
    PT 106.883893979996 109.7728342408 1
    PT 109.070227253250 112.8719187142 1
    PT 111.196531144723 109.4564860153 1
    PT 113.389183300269 110.7329464936 1
    PT 115.556559926644 108.6735354716 1
    PT 117.765009287921 109.7728342408 1
    PT 119.951342561175 109.7728342408 1
    PT 122.137675834428 110.4110483934 1
    PT 124.311371343096 110.4110483934 1
    PT 126.485066851764 111.5459637219 1
    PT 128.636646272408 110.2508001374 1
    PT 130.813501222222 110.2508001374 1
    PT 132.990356172036 108.6735354716 1
    PT 135.198805533314 109.1419558831 1
    PT 137.397776571152 110.7329464936 1
    PT 139.565153197528 109.2989946685 1
    PT 141.760964794220 109.2989946685 1
    PT 143.956776390912 109.9316950718 1
    PT 146.139950223019 110.0910163690 1
    PT 148.319964613980 109.6144318826 1
    PT 150.509457328379 110.7329464936 1
    PT 152.676833954754 110.8946004301 1
    PT 154.841051139983 109.7728342408 1
    PT 157.027384413237 109.7728342408 1
    PT 159.213717686490 110.2508001374 1
    PT 161.390572636304 110.4110483934 1
    PT 163.564268144972 108.9853677111 1
    PT 165.766398623957 110.5717631654 1
    PT 167.936934691479 110.7329464936 1
    PT 170.104311317854 110.7329464936 1
    PT 172.271687944229 109.2989946685 1
    PT 174.467499540922 110.0910163690 1
    PT 176.647513931882 110.0910163690 1
    PT 178.827528322843 109.9316950718 1
    PT 181.010702154950 109.2989946685 1
    PT 183.206513751642 110.5717631654 1
    PT 185.377049819164 108.9853677111 1
    PT 187.579180298148 110.2508001374 1
    PT 189.756035247963 110.8946004301 1
    PT 191.920252433192 110.7329464936 1
    PT 194.087629059567 109.7728342408 1
    PT 196.273962332820 110.5717631654 1
    PT 198.444498400342 109.2989946685 1
    PT 200.640309997034 109.9316950718 1
    PT 202.823483829141 111.0567270389 1
    PT 204.984541573224 110.8946004301 1
    PT 207.148758758453 109.2989946685 1
    PT 209.344570355145 108.6735354716 1
    PT 211.553019716423 110.7329464936 1
    PT 213.720396342798 110.2508001374 1
    PT 215.897251292612 110.0910163690 1
    PT 218.077265683573 110.7329464936 1
    PT 220.244642309948 110.7329464936 1
  >
  <PROJBAY
  >
  <TRACK '{4D889F49-FE1F-4D1D-9FB8-BFD5BA06901A}'
    NAME "SONG AUDIO"
    PEAKCOL 16576
    BEAT -1
    AUTOMODE 0
    VOLPAN 1.00000000000000 0.00000000000000 -1.00000000000000 -1.00000000000000 1.00000000000000
    MUTESOLO 0 0 0
    IPHASE 0
    ISBUS 0 0
    BUSCOMP 0 0
    SHOWINMIX 1 0.666700 0.500000 1 0.500000 -1 -1 -1
    FREEMODE 0
    SEL 0
    REC 0 0 0 0 0 0 0
    TRACKHEIGHT 0 0
    INQ 0 0 0 0.5000000000 100 0 0 100
    NCHAN 2
    FX 1
    TRACKID {4D889F49-FE1F-4D1D-9FB8-BFD5BA06901A}
    PERF 0
    MIDIOUT -1
    MAINSEND 1 0
    <FXCHAIN
      SHOW 0
      LASTSEL 0
      DOCKED 0
      BYPASS 0 0
      <VST "VST: W1 Limiter (George Yohng)" "George Yohng_s W1 Limiter.dll" 0 ""
        THdGNO5e7f4CAAAAAQAAAAAAAAACAAAAAAAAAAIAAAABAAAAAAAAAA==
        AgAAAAAAAABMAAAAAQAAAAAAEAAMAACBdGhyZXNoAAD+1Hg/DAAAgQ==
        Y2VpbGluZwD+1Hg/DAAAgXJlbGVhc2UAMEAfPxQAAIFhZGFwdFJlbA==
        ZWFzZQAAAAAAAAAAAAAAgAAAEAAAAA==
      >
      FLOATPOS 24 24 481 152
      FXID {D32BE511-3942-4A83-B6D7-DF2FE763A2B4}
      WAK 0
    >
    <ITEM
      POSITION 3.69770390111632
      SNAPOFFS 0.00000000000000
      LENGTH 220.46666666666667
      LOOP 0
      ALLTAKES 0
      SEL 0
      FADEIN 1 0.000000 0.000000 1 0
      FADEOUT 1 0.000000 0.000000 1 0
      MUTE 0
      IGUID {380AF504-B454-419F-A627-3562C1EF601D}
      IID 26
      NAME "02 Sopivasti Lihava.wav"
      VOLPAN 1.000000 0.000000 1.000000 -1.000000
      SOFFS 0.00000000000000
      PLAYRATE 1.00000000000000 1 0.00000000000000 -1
      CHANMODE 0
      GUID {62D747AC-E986-4554-ADB9-1DB7A60D4C57}
      <SOURCE WAVE
        FILE "02 Sopivasti Lihava.wav"
      >
    >
  >
  <TRACK '{BDCFF37A-71AC-4D17-AF26-EA560B308842}'
    NAME "COUNTIN"
    PEAKCOL 16576
    BEAT -1
    AUTOMODE 0
    VOLPAN 1.00000000000000 0.00000000000000 -1.00000000000000 -1.00000000000000 1.00000000000000
    MUTESOLO 0 0 0
    IPHASE 0
    ISBUS 0 0
    BUSCOMP 0 0
    SHOWINMIX 1 0.666700 0.500000 1 0.500000 -1 -1 -1
    FREEMODE 0
    SEL 0
    REC 0 0 0 0 0 0 0
    TRACKHEIGHT 24 0
    INQ 0 0 0 0.5000000000 100 0 0 100
    NCHAN 2
    FX 1
    TRACKID {BDCFF37A-71AC-4D17-AF26-EA560B308842}
    PERF 0
    MIDIOUT -1
    MAINSEND 1 0
    <ITEM
      POSITION 0.00000000000000
      SNAPOFFS 0.00000000000000
      LENGTH 0.28216019417451
      LOOP 0
      ALLTAKES 0
      SEL 0
      FADEIN 1 0.000000 0.000000 1 0
      FADEOUT 1 0.000000 0.000000 1 0
      MUTE 0
      IGUID {D829F3DA-0BE5-4277-954B-C2D10DB114A6}
      IID 1
      NAME "stick.wav"
      VOLPAN 0.271028 0.000000 1.000000 -1.000000
      SOFFS 0.00000000000000
      PLAYRATE 1.00000000000052 1 0.00000000000000 -1
      CHANMODE 0
      GUID {3A242298-C3E5-4DC8-9A3C-2EE82D8D2134}
      <SOURCE WAVE
        FILE "C:\Users\wejaa\AppData\Roaming\REAPER\ProjectTemplates\hihat.wav"
      >
    >
    <ITEM
      POSITION 1.09090909090909
      SNAPOFFS 0.00000000000000
      LENGTH 0.28216019417451
      LOOP 0
      ALLTAKES 0
      SEL 0
      FADEIN 1 0.000000 0.000000 1 0
      FADEOUT 1 0.000000 0.000000 1 0
      MUTE 0
      IGUID {5AEC5162-2B2C-4FF2-BB3B-E29ADC0916FE}
      IID 2
      NAME "stick.wav"
      VOLPAN 0.271028 0.000000 1.000000 -1.000000
      SOFFS 0.00000000000000
      PLAYRATE 1.00000000000052 1 0.00000000000000 -1
      CHANMODE 0
      GUID {16E29BEE-96F5-48F0-9FB0-3F04A1AF90D5}
      <SOURCE WAVE
        FILE "C:\Users\wejaa\AppData\Roaming\REAPER\ProjectTemplates\hihat.wav"
      >
    >
    <ITEM
      POSITION 2.18181818181818
      SNAPOFFS 0.00000000000000
      LENGTH 0.28216019417451
      LOOP 0
      ALLTAKES 0
      SEL 0
      FADEIN 1 0.000000 0.000000 1 0
      FADEOUT 1 0.000000 0.000000 1 0
      MUTE 0
      IGUID {1FA8F8C4-F448-4E02-B340-4A6644F6D8AB}
      IID 3
      NAME "stick.wav"
      VOLPAN 0.271028 0.000000 1.000000 -1.000000
      SOFFS 0.00000000000000
      PLAYRATE 1.00000000000052 1 0.00000000000000 -1
      CHANMODE 0
      GUID {8D594F7C-8B39-4D29-A27D-55F46BC65189}
      <SOURCE WAVE
        FILE "C:\Users\wejaa\AppData\Roaming\REAPER\ProjectTemplates\hihat.wav"
      >
    >
    <ITEM
      POSITION 2.72727272727273
      SNAPOFFS 0.00000000000000
      LENGTH 0.28216019417451
      LOOP 0
      ALLTAKES 0
      SEL 0
      FADEIN 1 0.000000 0.000000 1 0
      FADEOUT 1 0.000000 0.000000 1 0
      MUTE 0
      IGUID {1D23FF37-8166-4C8E-915E-19EFDB52B4D8}
      IID 4
      NAME "stick.wav"
      VOLPAN 0.271028 0.000000 1.000000 -1.000000
      SOFFS 0.00000000000000
      PLAYRATE 1.00000000000052 1 0.00000000000000 -1
      CHANMODE 0
      GUID {1D91F480-CA0B-4E03-8204-02893D660CDF}
      <SOURCE WAVE
        FILE "C:\Users\wejaa\AppData\Roaming\REAPER\ProjectTemplates\hihat.wav"
      >
    >
    <ITEM
      POSITION 3.27272727272727
      SNAPOFFS 0.00000000000000
      LENGTH 0.28216019417451
      LOOP 0
      ALLTAKES 0
      SEL 0
      FADEIN 1 0.000000 0.000000 1 0
      FADEOUT 1 0.000000 0.000000 1 0
      MUTE 0
      IGUID {A6BA2F37-4089-4BF2-A73E-A602F32B7614}
      IID 5
      NAME "stick.wav"
      VOLPAN 0.271028 0.000000 1.000000 -1.000000
      SOFFS 0.00000000000000
      PLAYRATE 1.00000000000050 1 0.00000000000000 -1
      CHANMODE 0
      GUID {ABD24FE2-95CA-428E-ADD9-9A13921FCC29}
      <SOURCE WAVE
        FILE "C:\Users\wejaa\AppData\Roaming\REAPER\ProjectTemplates\hihat.wav"
      >
    >
    <ITEM
      POSITION 3.81818181818182
      SNAPOFFS 0.00000000000000
      LENGTH 0.28216019417451
      LOOP 0
      ALLTAKES 0
      SEL 0
      FADEIN 1 0.000000 0.000000 1 0
      FADEOUT 1 0.000000 0.000000 1 0
      MUTE 0
      IGUID {49CCEEAD-12F1-472E-8B9C-48A90BF6E20A}
      IID 6
      NAME "stick.wav"
      VOLPAN 0.271028 0.000000 1.000000 -1.000000
      SOFFS 0.00000000000000
      PLAYRATE 1.00000000000052 1 0.00000000000000 -1
      CHANMODE 0
      GUID {3DFEA1C1-AD72-4DF8-A1BD-3977672F4D80}
      <SOURCE WAVE
        FILE "C:\Users\wejaa\AppData\Roaming\REAPER\ProjectTemplates\hihat.wav"
      >
    >
  >
  <TRACK '{8F33A645-3DF2-48FA-99BC-10992A4F8042}'
    NAME "PART DRUMS"
    PEAKCOL 16842751
    BEAT -1
    AUTOMODE 0
    VOLPAN 1.00000000000000 0.00000000000000 -1.00000000000000 -1.00000000000000 1.00000000000000
    MUTESOLO 0 0 0
    IPHASE 0
    ISBUS 0 0
    BUSCOMP 1 0
    SHOWINMIX 1 0.666700 0.500000 1 0.500000 -1 -1 -1
    FREEMODE 0
    SEL 0
    REC 0 4096 1 7 0 0 0
    TRACKHEIGHT 24 0
    INQ 0 0 0 0.5000000000 100 0 0 100
    NCHAN 2
    FX 1
    TRACKID {8F33A645-3DF2-48FA-99BC-10992A4F8042}
    PERF 0
    MIDIOUT -1
    <MIDINOTENAMES
      0 84 "HARD Kick"
      0 96 "EXPERT Kick"
      0 72 "MEDIUM Kick"
      0 60 "EASY Kick"
      0 97 "EXPERT Red"
      0 98 "EXPERT Yellow"
      0 99 "EXPERT Blue"
      0 100 "EXPERT Green"
      0 85 "HARD Red"
      0 86 "HARD Yellow"
      0 87 "HARD Blue"
      0 88 "HARD Green"
      0 73 "MEDIUM Red"
      0 74 "MEDIUM Yellow"
      0 75 "MEDIUM Blue"
      0 76 "MEDIUM Green"
      0 61 "EASY Red"
      0 62 "EASY Yellow"
      0 63 "EASY Blue"
      0 64 "EASY Green"
      0 101 ""
      0 92 "----"
      0 80 "----"
      0 68 "----"
      0 120 "DRUM FILL (use all 5)"
      0 121 "DRUM FILL"
      0 122 "DRUM FILL"
      0 123 "DRUM FILL"
      0 124 "DRUM FILL"
      0 114 "----"
      0 116 "OVERDRIVE"
      0 118 "----"
      0 24 "KICK RF"
      0 25 "HI-HAT OPEN"
      0 26 "SNARE HARD LH"
      0 27 "SNARE HARD RH"
      0 30 "HI-HAT LH"
      0 31 "HI-HAT RH"
      0 32 "PERCUSSION RH"
      0 34 "CRASH1 HARD LH"
      0 35 "CRASH1 SOFT LH"
      0 36 "CRASH1 HARD RH"
      0 37 "CRASH1 SOFT RH"
      0 38 "CRASH2 HARD RH"
      0 39 "CRASH2 SOFT RH"
      0 40 "CRASH1 CHOKE"
      0 41 "CRASH2 CHOKE"
      0 42 "RIDE CYM RH"
      0 46 "TOM1 LH"
      0 47 "TOM1 RH"
      0 48 "TOM2 LH"
      0 49 "TOM2 RH"
      0 50 "FLOOR TOM LH"
      0 51 "FLOOR TOM RH"
      0 52 "--DRUM ANIMATION--"
      0 56 "----"
      0 103 "Solo Marker"
      0 102 "----"
      0 110 "PRO Yellow Tom"
      0 111 "PRO Blue Tom"
      0 112 "PRO Green Tom"
      0 108 "----"
      0 127 "Roll Marker 2-Lane / Cym"
      0 126 "Roll Marker 1-Lane"
      0 125 "----"
      0 28 "SNARE RIM LH"
      0 29 "SNARE RIM RH"
      0 43 "RIDE CYM LH"
      0 44 "CRASH2 HARD LH"
      0 45 "CRASH2 SOFT LH"
      0 33 "PERCUSSION LH"
    >
    MAINSEND 1 0
    <FXCHAIN
      WNDRECT -1021 1024 870 574
      SHOW 0
      LASTSEL 1
      DOCKED 0
      BYPASS 1 0
      <VST "VSTi: ReaSynth (Cockos)" "reasynth.dll" 0 ""
        eXNlcu9e7f4AAAAAAgAAAAEAAAAAAAAAAgAAAAAAAAA4AAAAAAAAAA==
        AAAAAO++rd4N8K3eAAAAAAAAAAAAAAAAAAAAADm0SD59y9s+tbSxOQ==
        AAAAALbz/T5VpCs6AAAAAAAAAAAAAAAAAAA=
      >
      FLOATPOS 0 0 0 0
      FXID {58F55556-9407-4062-A048-6AFCC0B53535}
      WAK 0
      BYPASS 0 0
      <VST "VSTi: RBN Preview (RBN)" "rbprev_vst64_beta.dll" 0 ""
        dnBicu5e7f4AAAAAAgAAAAEAAAAAAAAAAgAAAAAAAAAEAAAAAQAAAA==
        AAAAAAMBqgAAAAAAAAA=
      >
      FLOATPOS 32 32 659 497
      FXID {D7126437-AB1E-4109-A0FA-F2D5D0AC68DC}
      WAK 0
    >
    <ITEM
      POSITION 0.00000000000000
      SNAPOFFS 0.00000000000000
      LENGTH 224.02942687353718
      LOOP 0
      ALLTAKES 0
      COLOR 19150555
      SEL 0
      FADEIN 1 0.000000 0.000000 1 0
      FADEOUT 1 0.000000 0.000000 1 0
      MUTE 0
      IGUID {9FF11F36-E94F-4396-9C0E-8449C916EC21}
      IID 7
      NAME "PART DRUMS"
      VOLPAN 1.000000 0.000000 1.000000 -1.000000
      SOFFS 0.00000000000000 0.00000000000000
      PLAYRATE 1.00000000000000 1 0.00000000000000 -65536
      CHANMODE 0
      GUID {70A79ADF-E70C-430A-913F-E16D0CC85517}
      <SOURCE MIDI
        HASDATA 1 480 QN
        POOLEDEVTS {E675F51A-AC36-40F3-B4B7-FDB5B14AF972}
        <X 0 0
          /wNQQVJUIERSVU1T
        >
        <X 300 0
          /wFbbWl4IDEgZHJ1bXMwXQ==
        >
        <X 0 0
          /wFbbWl4IDAgZHJ1bXMwXQ==
        >
        <X 60 0
          /wFbbWl4IDIgZHJ1bXMwXQ==
        >
        <X 60 0
          /wFbbWl4IDMgZHJ1bXMwXQ==
        >
        <X 3420 0
          /wFbbWVsbG93XQ==
        >
        E 0 90 18 60
        E 0 90 26 60
        E 0 90 40 60
        E 0 90 48 60
        E 0 90 4c 60
        E 0 90 54 60
        E 0 90 58 60
        E 0 90 60 60
        E 0 90 64 60
        E 60 80 18 00
        E 0 80 26 00
        E 0 80 40 00
        E 0 80 48 00
        E 0 80 4c 00
        E 0 80 54 00
        E 0 80 58 00
        E 0 80 60 00
        E 0 80 64 00
        E 180 90 1f 60
        E 0 90 56 60
        E 0 90 62 60
        E 60 80 1f 00
        E 0 80 56 00
        E 0 80 62 00
        E 180 90 1a 60
        E 0 90 1f 60
        E 0 90 3d 60
        E 0 90 3e 60
        E 0 90 49 60
        E 0 90 4a 60
        E 0 90 55 60
        E 0 90 56 60
        E 0 90 61 60
        E 0 90 62 60
        E 60 80 1a 00
        E 0 80 1f 00
        E 0 80 3d 00
        E 0 80 3e 00
        E 0 80 49 00
        E 0 80 4a 00
        E 0 80 55 00
        E 0 80 56 00
        E 0 80 61 00
        E 0 80 62 00
        E 180 90 1f 60
        E 0 90 56 60
        E 0 90 62 60
        E 60 80 1f 00
        E 0 80 56 00
        E 0 80 62 00
        E 180 90 18 60
        E 0 90 1f 60
        E 0 90 3e 60
        E 0 90 48 60
        E 0 90 4a 60
        E 0 90 54 60
        E 0 90 56 60
        E 0 90 60 60
        E 0 90 62 60
        E 60 80 18 00
        E 0 80 1f 00
        E 0 80 3e 00
        E 0 80 48 00
        E 0 80 4a 00
        E 0 80 54 00
        E 0 80 56 00
        E 0 80 60 00
        E 0 80 62 00
        E 180 90 1f 60
        E 0 90 56 60
        E 0 90 62 60
        E 60 80 1f 00
        E 0 80 56 00
        E 0 80 62 00
        E 180 90 1a 60
        E 0 90 1f 60
        E 0 90 3d 60
        E 0 90 3e 60
        E 0 90 49 60
        E 0 90 4a 60
        E 0 90 55 60
        E 0 90 56 60
        E 0 90 61 60
        E 0 90 62 60
        E 60 80 1a 00
        E 0 80 1f 00
        E 0 80 3d 00
        E 0 80 3e 00
        E 0 80 49 00
        E 0 80 4a 00
        E 0 80 55 00
        E 0 80 56 00
        E 0 80 61 00
        E 0 80 62 00
        E 180 90 18 60
        E 0 90 1f 60
        E 0 90 54 60
        E 0 90 56 60
        E 0 90 60 60
        E 0 90 62 60
        E 60 80 18 00
        E 0 80 1f 00
        E 0 80 54 00
        E 0 80 56 00
        E 0 80 60 00
        E 0 80 62 00
        E 180 90 18 60
        E 0 90 1f 60
        E 0 90 3e 60
        E 0 90 48 60
        E 0 90 4a 60
        E 0 90 54 60
        E 0 90 56 60
        E 0 90 60 60
        E 0 90 62 60
        E 60 80 18 00
        E 0 80 1f 00
        E 0 80 3e 00
        E 0 80 48 00
        E 0 80 4a 00
        E 0 80 54 00
        E 0 80 56 00
        E 0 80 60 00
        E 0 80 62 00
        E 180 90 1f 60
        E 0 90 56 60
        E 0 90 62 60
        E 60 80 1f 00
        E 0 80 56 00
        E 0 80 62 00
        E 180 90 1a 60
        E 0 90 1f 60
        E 0 90 3d 60
        E 0 90 3e 60
        E 0 90 49 60
        E 0 90 4a 60
        E 0 90 55 60
        E 0 90 56 60
        E 0 90 61 60
        E 0 90 62 60
        E 60 80 1a 00
        E 0 80 1f 00
        E 0 80 3d 00
        E 0 80 3e 00
        E 0 80 49 00
        E 0 80 4a 00
        E 0 80 55 00
        E 0 80 56 00
        E 0 80 61 00
        E 0 80 62 00
        E 180 90 18 60
        E 0 90 1f 60
        E 0 90 54 60
        E 0 90 56 60
        E 0 90 60 60
        E 0 90 62 60
        E 60 80 18 00
        E 0 80 1f 00
        E 0 80 54 00
        E 0 80 56 00
        E 0 80 60 00
        E 0 80 62 00
        E 180 90 18 60
        E 0 90 1f 60
        E 0 90 3e 60
        E 0 90 48 60
        E 0 90 4a 60
        E 0 90 54 60
        E 0 90 56 60
        E 0 90 60 60
        E 0 90 62 60
        E 60 80 18 00
        E 0 80 1f 00
        E 0 80 3e 00
        E 0 80 48 00
        E 0 80 4a 00
        E 0 80 54 00
        E 0 80 56 00
        E 0 80 60 00
        E 0 80 62 00
        E 180 90 1f 60
        E 0 90 56 60
        E 0 90 62 60
        E 60 80 1f 00
        E 0 80 56 00
        E 0 80 62 00
        E 180 90 1a 60
        E 0 90 1f 60
        E 0 90 3d 60
        E 0 90 3e 60
        E 0 90 49 60
        E 0 90 4a 60
        E 0 90 55 60
        E 0 90 56 60
        E 0 90 61 60
        E 0 90 62 60
        E 60 80 1a 00
        E 0 80 1f 00
        E 0 80 3d 00
        E 0 80 3e 00
        E 0 80 49 00
        E 0 80 4a 00
        E 0 80 55 00
        E 0 80 56 00
        E 0 80 61 00
        E 0 80 62 00
        E 180 90 1f 60
        E 0 90 56 60
        E 0 90 62 60
        E 60 80 1f 00
        E 0 80 56 00
        E 0 80 62 00
        E 180 90 18 60
        E 0 90 1f 60
        E 0 90 3e 60
        E 0 90 48 60
        E 0 90 4a 60
        E 0 90 54 60
        E 0 90 56 60
        E 0 90 60 60
        E 0 90 62 60
        E 60 80 18 00
        E 0 80 48 00
        E 0 80 54 00
        E 0 80 60 00
        E 1 80 1f 00
        E 0 80 3e 00
        E 0 80 4a 00
        E 0 80 56 00
        E 0 80 62 00
        E 179 90 1f 60
        E 0 90 56 60
        E 0 90 62 60
        E 60 80 1f 00
        E 0 80 56 00
        E 0 80 62 00
        E 180 90 1a 60
        E 0 90 1f 60
        E 0 90 3d 60
        E 0 90 3e 60
        E 0 90 49 60
        E 0 90 4a 60
        E 0 90 55 60
        E 0 90 56 60
        E 0 90 61 60
        E 0 90 62 60
        E 60 80 1a 00
        E 0 80 1f 00
        E 0 80 3d 00
        E 0 80 3e 00
        E 0 80 49 00
        E 0 80 4a 00
        E 0 80 55 00
        E 0 80 56 00
        E 0 80 61 00
        E 0 80 62 00
        E 180 90 18 60
        E 0 90 1f 60
        E 0 90 54 60
        E 0 90 56 60
        E 0 90 60 60
        E 0 90 62 60
        E 60 80 18 00
        E 0 80 1f 00
        E 0 80 54 00
        E 0 80 56 00
        E 0 80 60 00
        E 0 80 62 00
        E 180 90 18 60
        E 0 90 1f 60
        E 0 90 3e 60
        E 0 90 48 60
        E 0 90 4a 60
        E 0 90 54 60
        E 0 90 56 60
        E 0 90 60 60
        E 0 90 62 60
        E 60 80 18 00
        E 0 80 1f 00
        E 0 80 3e 00
        E 0 80 48 00
        E 0 80 4a 00
        E 0 80 54 00
        E 0 80 56 00
        E 0 80 60 00
        E 0 80 62 00
        E 180 90 1f 60
        E 0 90 56 60
        E 0 90 62 60
        E 60 80 1f 00
        E 0 80 56 00
        E 0 80 62 00
        E 180 90 1a 60
        E 0 90 1f 60
        E 0 90 3d 60
        E 0 90 3e 60
        E 0 90 49 60
        E 0 90 4a 60
        E 0 90 55 60
        E 0 90 56 60
        E 0 90 61 60
        E 0 90 62 60
        E 60 80 1a 00
        E 0 80 1f 00
        E 0 80 3d 00
        E 0 80 3e 00
        E 0 80 49 00
        E 0 80 4a 00
        E 0 80 55 00
        E 0 80 56 00
        E 0 80 61 00
        E 0 80 62 00
        E 180 90 18 60
        E 0 90 1f 60
        E 0 90 54 60
        E 0 90 56 60
        E 0 90 60 60
        E 0 90 62 60
        E 60 80 18 00
        E 0 80 1f 00
        E 0 80 54 00
        E 0 80 56 00
        E 0 80 60 00
        E 0 80 62 00
        E 180 90 18 60
        E 0 90 1f 60
        E 0 90 3e 60
        E 0 90 48 60
        E 0 90 4a 60
        E 0 90 54 60
        E 0 90 56 60
        E 0 90 60 60
        E 0 90 62 60
        E 60 80 18 00
        E 0 80 48 00
        E 0 80 54 00
        E 0 80 60 00
        E 1 80 1f 00
        E 0 80 3e 00
        E 0 80 4a 00
        E 0 80 56 00
        E 0 80 62 00
        E 179 90 1f 60
        E 0 90 56 60
        E 0 90 62 60
        E 60 80 1f 00
        E 0 80 56 00
        E 0 80 62 00
        E 180 90 1a 60
        E 0 90 1f 60
        E 0 90 3d 60
        E 0 90 3e 60
        E 0 90 49 60
        E 0 90 4a 60
        E 0 90 55 60
        E 0 90 56 60
        E 0 90 61 60
        E 0 90 62 60
        E 60 80 1a 00
        E 0 80 1f 00
        E 0 80 3d 00
        E 0 80 3e 00
        E 0 80 49 00
        E 0 80 4a 00
        E 0 80 55 00
        E 0 80 56 00
        E 0 80 61 00
        E 0 80 62 00
        E 180 90 18 60
        E 0 90 1f 60
        E 0 90 54 60
        E 0 90 56 60
        E 0 90 60 60
        E 0 90 62 60
        E 60 80 18 00
        E 0 80 1f 00
        E 0 80 54 00
        E 0 80 56 00
        E 0 80 60 00
        E 0 80 62 00
        E 180 90 18 60
        E 0 90 1f 60
        E 0 90 3e 60
        E 0 90 48 60
        E 0 90 4a 60
        E 0 90 54 60
        E 0 90 56 60
        E 0 90 60 60
        E 0 90 62 60
        E 60 80 18 00
        E 0 80 1f 00
        E 0 80 3e 00
        E 0 80 48 00
        E 0 80 4a 00
        E 0 80 54 00
        E 0 80 56 00
        E 0 80 60 00
        E 0 80 62 00
        E 180 90 1f 60
        E 0 90 56 60
        E 0 90 62 60
        E 60 80 1f 00
        E 0 80 56 00
        E 0 80 62 00
        E 180 90 1a 60
        E 0 90 1f 60
        E 0 90 3d 60
        E 0 90 3e 60
        E 0 90 49 60
        E 0 90 4a 60
        E 0 90 55 60
        E 0 90 56 60
        E 0 90 61 60
        E 0 90 62 60
        E 60 80 1a 00
        E 0 80 1f 00
        E 0 80 3d 00
        E 0 80 3e 00
        E 0 80 49 00
        E 0 80 4a 00
        E 0 80 55 00
        E 0 80 56 00
        E 0 80 61 00
        E 0 80 62 00
        E 180 90 1f 60
        E 0 90 56 60
        E 0 90 62 60
        E 60 80 1f 00
        E 0 80 56 00
        E 0 80 62 00
        E 180 90 18 60
        E 0 90 26 60
        E 0 90 40 60
        E 0 90 48 60
        E 0 90 4c 60
        E 0 90 54 60
        E 0 90 58 60
        E 0 90 60 60
        E 0 90 64 60
        E 60 80 18 00
        E 0 80 26 00
        E 0 80 40 00
        E 0 80 48 00
        E 0 80 4c 00
        E 0 80 54 00
        E 0 80 58 00
        E 0 80 60 00
        E 0 80 64 00
        E 180 90 1f 60
        E 0 90 56 60
        E 0 90 62 60
        E 60 80 1f 00
        E 0 80 56 00
        E 0 80 62 00
        E 180 90 1a 60
        E 0 90 1f 60
        E 0 90 3d 60
        E 0 90 3e 60
        E 0 90 49 60
        E 0 90 4a 60
        E 0 90 55 60
        E 0 90 56 60
        E 0 90 61 60
        E 0 90 62 60
        E 60 80 1a 00
        E 0 80 1f 00
        E 0 80 3d 00
        E 0 80 3e 00
        E 0 80 49 00
        E 0 80 4a 00
        E 0 80 55 00
        E 0 80 56 00
        E 0 80 61 00
        E 0 80 62 00
        E 180 90 18 60
        E 0 90 1f 60
        E 0 90 54 60
        E 0 90 56 60
        E 0 90 60 60
        E 0 90 62 60
        E 60 80 18 00
        E 0 80 1f 00
        E 0 80 54 00
        E 0 80 56 00
        E 0 80 60 00
        E 0 80 62 00
        E 180 90 18 60
        E 0 90 1f 60
        E 0 90 3e 60
        E 0 90 48 60
        E 0 90 4a 60
        E 0 90 54 60
        E 0 90 56 60
        E 0 90 60 60
        E 0 90 62 60
        E 60 80 18 00
        E 0 80 1f 00
        E 0 80 3e 00
        E 0 80 48 00
        E 0 80 4a 00
        E 0 80 54 00
        E 0 80 56 00
        E 0 80 60 00
        E 0 80 62 00
        E 180 90 1f 60
        E 0 90 56 60
        E 0 90 62 60
        E 60 80 1f 00
        E 0 80 56 00
        E 0 80 62 00
        E 180 90 1a 60
        E 0 90 1f 60
        E 0 90 3d 60
        E 0 90 3e 60
        E 0 90 49 60
        E 0 90 4a 60
        E 0 90 55 60
        E 0 90 56 60
        E 0 90 61 60
        E 0 90 62 60
        E 60 80 1a 00
        E 0 80 1f 00
        E 0 80 3d 00
        E 0 80 3e 00
        E 0 80 49 00
        E 0 80 4a 00
        E 0 80 55 00
        E 0 80 56 00
        E 0 80 61 00
        E 0 80 62 00
        E 180 90 18 60
        E 0 90 1f 60
        E 0 90 54 60
        E 0 90 56 60
        E 0 90 60 60
        E 0 90 62 60
        E 60 80 18 00
        E 0 80 1f 00
        E 0 80 54 00
        E 0 80 56 00
        E 0 80 60 00
        E 0 80 62 00
        E 180 90 18 60
        E 0 90 1f 60
        E 0 90 3e 60
        E 0 90 48 60
        E 0 90 4a 60
        E 0 90 54 60
        E 0 90 56 60
        E 0 90 60 60
        E 0 90 62 60
        E 60 80 18 00
        E 0 80 48 00
        E 0 80 54 00
        E 0 80 60 00
        E 1 80 1f 00
        E 0 80 3e 00
        E 0 80 4a 00
        E 0 80 56 00
        E 0 80 62 00
        E 179 90 1f 60
        E 0 90 56 60
        E 0 90 62 60
        E 60 80 1f 00
        E 0 80 56 00
        E 0 80 62 00
        E 180 90 1a 60
        E 0 90 1f 60
        E 0 90 3d 60
        E 0 90 3e 60
        E 0 90 49 60
        E 0 90 4a 60
        E 0 90 55 60
        E 0 90 56 60
        E 0 90 61 60
        E 0 90 62 60
        E 60 80 1a 00
        E 0 80 1f 00
        E 0 80 3d 00
        E 0 80 3e 00
        E 0 80 49 00
        E 0 80 4a 00
        E 0 80 55 00
        E 0 80 56 00
        E 0 80 61 00
        E 0 80 62 00
        E 180 90 18 60
        E 0 90 1f 60
        E 0 90 54 60
        E 0 90 56 60
        E 0 90 60 60
        E 0 90 62 60
        E 60 80 18 00
        E 0 80 1f 00
        E 0 80 54 00
        E 0 80 56 00
        E 0 80 60 00
        E 0 80 62 00
        E 180 90 18 60
        E 0 90 1f 60
        E 0 90 3e 60
        E 0 90 48 60
        E 0 90 4a 60
        E 0 90 54 60
        E 0 90 56 60
        E 0 90 60 60
        E 0 90 62 60
        E 60 80 18 00
        E 0 80 1f 00
        E 0 80 3e 00
        E 0 80 48 00
        E 0 80 4a 00
        E 0 80 54 00
        E 0 80 56 00
        E 0 80 60 00
        E 0 80 62 00
        E 180 90 1f 60
        E 0 90 56 60
        E 0 90 62 60
        E 60 80 1f 00
        E 0 80 56 00
        E 0 80 62 00
        E 180 90 1a 60
        E 0 90 1f 60
        E 0 90 3d 60
        E 0 90 3e 60
        E 0 90 49 60
        E 0 90 4a 60
        E 0 90 55 60
        E 0 90 56 60
        E 0 90 61 60
        E 0 90 62 60
        E 60 80 1a 00
        E 0 80 1f 00
        E 0 80 3d 00
        E 0 80 3e 00
        E 0 80 49 00
        E 0 80 4a 00
        E 0 80 55 00
        E 0 80 56 00
        E 0 80 61 00
        E 0 80 62 00
        E 180 90 18 60
        E 0 90 1f 60
        E 0 90 54 60
        E 0 90 56 60
        E 0 90 60 60
        E 0 90 62 60
        E 60 80 18 00
        E 0 80 1f 00
        E 0 80 54 00
        E 0 80 56 00
        E 0 80 60 00
        E 0 80 62 00
        E 180 90 18 60
        E 0 90 1f 60
        E 0 90 3e 60
        E 0 90 48 60
        E 0 90 4a 60
        E 0 90 54 60
        E 0 90 56 60
        E 0 90 60 60
        E 0 90 62 60
        E 60 80 18 00
        E 0 80 48 00
        E 0 80 54 00
        E 0 80 60 00
        E 1 80 1f 00
        E 0 80 3e 00
        E 0 80 4a 00
        E 0 80 56 00
        E 0 80 62 00
        E 179 90 1f 60
        E 0 90 56 60
        E 0 90 62 60
        E 60 80 1f 00
        E 0 80 56 00
        E 0 80 62 00
        E 180 90 1a 60
        E 0 90 1f 60
        E 0 90 3d 60
        E 0 90 3e 60
        E 0 90 49 60
        E 0 90 4a 60
        E 0 90 55 60
        E 0 90 56 60
        E 0 90 61 60
        E 0 90 62 60
        E 60 80 1a 00
        E 0 80 1f 00
        E 0 80 3d 00
        E 0 80 3e 00
        E 0 80 49 00
        E 0 80 4a 00
        E 0 80 55 00
        E 0 80 56 00
        E 0 80 61 00
        E 0 80 62 00
        E 180 90 18 60
        E 0 90 1f 60
        E 0 90 54 60
        E 0 90 56 60
        E 0 90 60 60
        E 0 90 62 60
        E 60 80 18 00
        E 0 80 1f 00
        E 0 80 54 00
        E 0 80 56 00
        E 0 80 60 00
        E 0 80 62 00
        E 180 90 18 60
        E 0 90 1f 60
        E 0 90 3e 60
        E 0 90 48 60
        E 0 90 4a 60
        E 0 90 54 60
        E 0 90 56 60
        E 0 90 60 60
        E 0 90 62 60
        E 60 80 18 00
        E 0 80 1f 00
        E 0 80 3e 00
        E 0 80 48 00
        E 0 80 4a 00
        E 0 80 54 00
        E 0 80 56 00
        E 0 80 60 00
        E 0 80 62 00
        E 180 90 1f 60
        E 0 90 56 60
        E 0 90 62 60
        E 60 80 1f 00
        E 0 80 56 00
        E 0 80 62 00
        E 180 90 1a 60
        E 0 90 1f 60
        E 0 90 3d 60
        E 0 90 3e 60
        E 0 90 49 60
        E 0 90 4a 60
        E 0 90 55 60
        E 0 90 56 60
        E 0 90 61 60
        E 0 90 62 60
        E 60 80 1a 00
        E 0 80 1f 00
        E 0 80 3d 00
        E 0 80 3e 00
        E 0 80 49 00
        E 0 80 4a 00
        E 0 80 55 00
        E 0 80 56 00
        E 0 80 61 00
        E 0 80 62 00
        E 180 90 18 60
        E 0 90 1f 60
        E 0 90 54 60
        E 0 90 56 60
        E 0 90 60 60
        E 0 90 62 60
        E 60 80 18 00
        E 0 80 1f 00
        E 0 80 54 00
        E 0 80 56 00
        E 0 80 60 00
        E 0 80 62 00
        E 180 90 18 60
        E 0 90 1f 60
        E 0 90 3e 60
        E 0 90 48 60
        E 0 90 4a 60
        E 0 90 54 60
        E 0 90 56 60
        E 0 90 60 60
        E 0 90 62 60
        E 60 80 18 00
        E 0 80 48 00
        E 0 80 54 00
        E 0 80 60 00
        E 1 80 1f 00
        E 0 80 3e 00
        E 0 80 4a 00
        E 0 80 56 00
        E 0 80 62 00
        E 179 90 1f 60
        E 0 90 56 60
        E 0 90 62 60
        E 60 80 1f 00
        E 0 80 56 00
        E 0 80 62 00
        E 180 90 1a 60
        E 0 90 1f 60
        E 0 90 3d 60
        E 0 90 3e 60
        E 0 90 49 60
        E 0 90 4a 60
        E 0 90 55 60
        E 0 90 56 60
        E 0 90 61 60
        E 0 90 62 60
        E 60 80 1a 00
        E 0 80 1f 00
        E 0 80 3d 00
        E 0 80 3e 00
        E 0 80 49 00
        E 0 80 4a 00
        E 0 80 55 00
        E 0 80 56 00
        E 0 80 61 00
        E 0 80 62 00
        E 180 90 18 60
        E 0 90 1f 60
        E 0 90 54 60
        E 0 90 56 60
        E 0 90 60 60
        E 0 90 62 60
        E 60 80 18 00
        E 0 80 1f 00
        E 0 80 54 00
        E 0 80 56 00
        E 0 80 60 00
        E 0 80 62 00
        E 180 90 18 60
        E 0 90 1f 60
        E 0 90 3e 60
        E 0 90 48 60
        E 0 90 4a 60
        E 0 90 54 60
        E 0 90 56 60
        E 0 90 60 60
        E 0 90 62 60
        E 60 80 18 00
        E 0 80 1f 00
        E 0 80 3e 00
        E 0 80 48 00
        E 0 80 4a 00
        E 0 80 54 00
        E 0 80 56 00
        E 0 80 60 00
        E 0 80 62 00
        E 180 90 1f 60
        E 0 90 56 60
        E 0 90 62 60
        E 60 80 1f 00
        E 0 80 56 00
        E 0 80 62 00
        E 180 90 1a 60
        E 0 90 1f 60
        E 0 90 3d 60
        E 0 90 3e 60
        E 0 90 49 60
        E 0 90 4a 60
        E 0 90 55 60
        E 0 90 56 60
        E 0 90 61 60
        E 0 90 62 60
        E 60 80 1a 00
        E 0 80 1f 00
        E 0 80 3d 00
        E 0 80 3e 00
        E 0 80 49 00
        E 0 80 4a 00
        E 0 80 55 00
        E 0 80 56 00
        E 0 80 61 00
        E 0 80 62 00
        E 180 90 18 60
        E 0 90 1f 60
        E 0 90 54 60
        E 0 90 56 60
        E 0 90 60 60
        E 0 90 62 60
        E 60 80 18 00
        E 0 80 1f 00
        E 0 80 54 00
        E 0 80 56 00
        E 0 80 60 00
        E 0 80 62 00
        E 180 90 18 60
        E 0 90 1f 60
        E 0 90 3e 60
        E 0 90 48 60
        E 0 90 4a 60
        E 0 90 54 60
        E 0 90 56 60
        E 0 90 60 60
        E 0 90 62 60
        E 60 80 18 00
        E 0 80 48 00
        E 0 80 54 00
        E 0 80 60 00
        E 1 80 1f 00
        E 0 80 3e 00
        E 0 80 4a 00
        E 0 80 56 00
        E 0 80 62 00
        E 179 90 1f 60
        E 0 90 56 60
        E 0 90 62 60
        E 60 80 1f 00
        E 0 80 56 00
        E 0 80 62 00
        E 180 90 1a 60
        E 0 90 1f 60
        E 0 90 3d 60
        E 0 90 3e 60
        E 0 90 49 60
        E 0 90 4a 60
        E 0 90 55 60
        E 0 90 56 60
        E 0 90 61 60
        E 0 90 62 60
        E 60 80 1a 00
        E 0 80 1f 00
        E 0 80 3d 00
        E 0 80 3e 00
        E 0 80 49 00
        E 0 80 4a 00
        E 0 80 55 00
        E 0 80 56 00
        E 0 80 61 00
        E 0 80 62 00
        E 180 90 18 60
        E 0 90 1f 60
        E 0 90 54 60
        E 0 90 56 60
        E 0 90 60 60
        E 0 90 62 60
        E 60 80 18 00
        E 0 80 1f 00
        E 0 80 54 00
        E 0 80 56 00
        E 0 80 60 00
        E 0 80 62 00
        E 180 90 18 60
        E 0 90 1f 60
        E 0 90 3e 60
        E 0 90 48 60
        E 0 90 4a 60
        E 0 90 54 60
        E 0 90 56 60
        E 0 90 60 60
        E 0 90 62 60
        E 60 80 18 00
        E 0 80 1f 00
        E 0 80 3e 00
        E 0 80 48 00
        E 0 80 4a 00
        E 0 80 54 00
        E 0 80 56 00
        E 0 80 60 00
        E 0 80 62 00
        E 180 90 1f 60
        E 0 90 56 60
        E 0 90 62 60
        E 60 80 1f 00
        E 0 80 56 00
        E 0 80 62 00
        E 180 90 1a 60
        E 0 90 1f 60
        E 0 90 3d 60
        E 0 90 3e 60
        E 0 90 49 60
        E 0 90 4a 60
        E 0 90 55 60
        E 0 90 56 60
        E 0 90 61 60
        E 0 90 62 60
        E 60 80 1a 00
        E 0 80 1f 00
        E 0 80 3d 00
        E 0 80 3e 00
        E 0 80 49 00
        E 0 80 4a 00
        E 0 80 55 00
        E 0 80 56 00
        E 0 80 61 00
        E 0 80 62 00
        E 180 90 18 60
        E 0 90 1f 60
        E 0 90 54 60
        E 0 90 56 60
        E 0 90 60 60
        E 0 90 62 60
        E 60 80 18 00
        E 0 80 1f 00
        E 0 80 54 00
        E 0 80 56 00
        E 0 80 60 00
        E 0 80 62 00
        E 180 90 18 60
        E 0 90 1f 60
        E 0 90 3e 60
        E 0 90 48 60
        E 0 90 4a 60
        E 0 90 54 60
        E 0 90 56 60
        E 0 90 60 60
        E 0 90 62 60
        E 60 80 18 00
        E 0 80 48 00
        E 0 80 54 00
        E 0 80 60 00
        E 1 80 1f 00
        E 0 80 3e 00
        E 0 80 4a 00
        E 0 80 56 00
        E 0 80 62 00
        E 179 90 1f 60
        E 0 90 56 60
        E 0 90 62 60
        E 60 80 1f 00
        E 0 80 56 00
        E 0 80 62 00
        E 180 90 1a 60
        E 0 90 1f 60
        E 0 90 3d 60
        E 0 90 3e 60
        E 0 90 49 60
        E 0 90 4a 60
        E 0 90 55 60
        E 0 90 56 60
        E 0 90 61 60
        E 0 90 62 60
        E 60 80 1a 00
        E 0 80 1f 00
        E 0 80 3d 00
        E 0 80 3e 00
        E 0 80 49 00
        E 0 80 4a 00
        E 0 80 55 00
        E 0 80 56 00
        E 0 80 61 00
        E 0 80 62 00
        E 180 90 18 60
        E 0 90 1f 60
        E 0 90 54 60
        E 0 90 56 60
        E 0 90 60 60
        E 0 90 62 60
        E 60 80 18 00
        E 0 80 1f 00
        E 0 80 54 00
        E 0 80 56 00
        E 0 80 60 00
        E 0 80 62 00
        E 180 90 18 60
        E 0 90 1f 60
        E 0 90 3e 60
        E 0 90 48 60
        E 0 90 4a 60
        E 0 90 54 60
        E 0 90 56 60
        E 0 90 60 60
        E 0 90 62 60
        E 60 80 18 00
        E 0 80 1f 00
        E 0 80 3e 00
        E 0 80 48 00
        E 0 80 4a 00
        E 0 80 54 00
        E 0 80 56 00
        E 0 80 60 00
        E 0 80 62 00
        E 180 90 1f 60
        E 0 90 56 60
        E 0 90 62 60
        E 60 80 1f 00
        E 0 80 56 00
        E 0 80 62 00
        E 180 90 1a 60
        E 0 90 1f 60
        E 0 90 3d 60
        E 0 90 3e 60
        E 0 90 49 60
        E 0 90 4a 60
        E 0 90 55 60
        E 0 90 56 60
        E 0 90 61 60
        E 0 90 62 60
        E 60 80 1a 00
        E 0 80 1f 00
        E 0 80 3d 00
        E 0 80 3e 00
        E 0 80 49 00
        E 0 80 4a 00
        E 0 80 55 00
        E 0 80 56 00
        E 0 80 61 00
        E 0 80 62 00
        E 180 90 18 60
        E 0 90 1f 60
        E 0 90 54 60
        E 0 90 56 60
        E 0 90 60 60
        E 0 90 62 60
        E 60 80 18 00
        E 0 80 1f 00
        E 0 80 54 00
        E 0 80 56 00
        E 0 80 60 00
        E 0 80 62 00
        E 180 90 18 60
        E 0 90 1f 60
        E 0 90 3e 60
        E 0 90 48 60
        E 0 90 4a 60
        E 0 90 54 60
        E 0 90 56 60
        E 0 90 60 60
        E 0 90 62 60
        E 60 80 18 00
        E 0 80 48 00
        E 0 80 54 00
        E 0 80 60 00
        E 1 80 1f 00
        E 0 80 3e 00
        E 0 80 4a 00
        E 0 80 56 00
        E 0 80 62 00
        E 179 90 1f 60
        E 0 90 56 60
        E 0 90 62 60
        E 60 80 1f 00
        E 0 80 56 00
        E 0 80 62 00
        E 180 90 1a 60
        E 0 90 1f 60
        E 0 90 3d 60
        E 0 90 3e 60
        E 0 90 49 60
        E 0 90 4a 60
        E 0 90 55 60
        E 0 90 56 60
        E 0 90 61 60
        E 0 90 62 60
        E 60 80 1a 00
        E 0 80 1f 00
        E 0 80 3d 00
        E 0 80 3e 00
        E 0 80 49 00
        E 0 80 4a 00
        E 0 80 55 00
        E 0 80 56 00
        E 0 80 61 00
        E 0 80 62 00
        E 180 90 18 60
        E 0 90 1f 60
        E 0 90 54 60
        E 0 90 56 60
        E 0 90 60 60
        E 0 90 62 60
        E 60 80 18 00
        E 0 80 1f 00
        E 0 80 54 00
        E 0 80 56 00
        E 0 80 60 00
        E 0 80 62 00
        E 180 90 18 60
        E 0 90 1f 60
        E 0 90 3e 60
        E 0 90 48 60
        E 0 90 4a 60
        E 0 90 54 60
        E 0 90 56 60
        E 0 90 60 60
        E 0 90 62 60
        E 60 80 18 00
        E 0 80 1f 00
        E 0 80 3e 00
        E 0 80 48 00
        E 0 80 4a 00
        E 0 80 54 00
        E 0 80 56 00
        E 0 80 60 00
        E 0 80 62 00
        E 180 90 1f 60
        E 0 90 56 60
        E 0 90 62 60
        E 60 80 1f 00
        E 0 80 56 00
        E 0 80 62 00
        E 180 90 1a 60
        E 0 90 1f 60
        E 0 90 3d 60
        E 0 90 3e 60
        E 0 90 49 60
        E 0 90 4a 60
        E 0 90 55 60
        E 0 90 56 60
        E 0 90 61 60
        E 0 90 62 60
        E 60 80 1a 00
        E 0 80 1f 00
        E 0 80 3d 00
        E 0 80 3e 00
        E 0 80 49 00
        E 0 80 4a 00
        E 0 80 55 00
        E 0 80 56 00
        E 0 80 61 00
        E 0 80 62 00
        E 180 90 18 60
        E 0 90 1f 60
        E 0 90 54 60
        E 0 90 56 60
        E 0 90 60 60
        E 0 90 62 60
        E 60 80 18 00
        E 0 80 1f 00
        E 0 80 54 00
        E 0 80 56 00
        E 0 80 60 00
        E 0 80 62 00
        E 180 90 18 60
        E 0 90 1f 60
        E 0 90 3e 60
        E 0 90 48 60
        E 0 90 4a 60
        E 0 90 54 60
        E 0 90 56 60
        E 0 90 60 60
        E 0 90 62 60
        E 60 80 18 00
        E 0 80 48 00
        E 0 80 54 00
        E 0 80 60 00
        E 1 80 1f 00
        E 0 80 3e 00
        E 0 80 4a 00
        E 0 80 56 00
        E 0 80 62 00
        E 179 90 1f 60
        E 0 90 56 60
        E 0 90 62 60
        E 60 80 1f 00
        E 0 80 56 00
        E 0 80 62 00
        E 180 90 1a 60
        E 0 90 1f 60
        E 0 90 3d 60
        E 0 90 3e 60
        E 0 90 49 60
        E 0 90 4a 60
        E 0 90 55 60
        E 0 90 56 60
        E 0 90 61 60
        E 0 90 62 60
        E 60 80 1a 00
        E 0 80 1f 00
        E 0 80 3d 00
        E 0 80 3e 00
        E 0 80 49 00
        E 0 80 4a 00
        E 0 80 55 00
        E 0 80 56 00
        E 0 80 61 00
        E 0 80 62 00
        E 180 90 18 60
        E 0 90 1f 60
        E 0 90 54 60
        E 0 90 56 60
        E 0 90 60 60
        E 0 90 62 60
        E 60 80 18 00
        E 0 80 1f 00
        E 0 80 54 00
        E 0 80 56 00
        E 0 80 60 00
        E 0 80 62 00
        E 180 90 18 60
        E 0 90 1f 60
        E 0 90 3e 60
        E 0 90 48 60
        E 0 90 4a 60
        E 0 90 54 60
        E 0 90 56 60
        E 0 90 60 60
        E 0 90 62 60
        E 60 80 18 00
        E 0 80 1f 00
        E 0 80 3e 00
        E 0 80 48 00
        E 0 80 4a 00
        E 0 80 54 00
        E 0 80 56 00
        E 0 80 60 00
        E 0 80 62 00
        E 180 90 1f 60
        E 0 90 56 60
        E 0 90 62 60
        E 60 80 1f 00
        E 0 80 56 00
        E 0 80 62 00
        E 180 90 1a 60
        E 0 90 1f 60
        E 0 90 3d 60
        E 0 90 3e 60
        E 0 90 49 60
        E 0 90 4a 60
        E 0 90 55 60
        E 0 90 56 60
        E 0 90 61 60
        E 0 90 62 60
        E 60 80 1a 00
        E 0 80 1f 00
        E 0 80 3d 00
        E 0 80 3e 00
        E 0 80 49 00
        E 0 80 4a 00
        E 0 80 55 00
        E 0 80 56 00
        E 0 80 61 00
        E 0 80 62 00
        E 180 90 18 60
        E 0 90 1f 60
        E 0 90 54 60
        E 0 90 56 60
        E 0 90 60 60
        E 0 90 62 60
        E 60 80 18 00
        E 0 80 1f 00
        E 0 80 54 00
        E 0 80 56 00
        E 0 80 60 00
        E 0 80 62 00
        E 180 90 18 60
        E 0 90 1f 60
        E 0 90 3e 60
        E 0 90 48 60
        E 0 90 4a 60
        E 0 90 54 60
        E 0 90 56 60
        E 0 90 60 60
        E 0 90 62 60
        E 60 80 18 00
        E 0 80 48 00
        E 0 80 54 00
        E 0 80 60 00
        E 1 80 1f 00
        E 0 80 3e 00
        E 0 80 4a 00
        E 0 80 56 00
        E 0 80 62 00
        E 179 90 1f 60
        E 0 90 56 60
        E 0 90 62 60
        E 60 80 1f 00
        E 0 80 56 00
        E 0 80 62 00
        E 180 90 1a 60
        E 0 90 1f 60
        E 0 90 3d 60
        E 0 90 3e 60
        E 0 90 49 60
        E 0 90 4a 60
        E 0 90 55 60
        E 0 90 56 60
        E 0 90 61 60
        E 0 90 62 60
        E 60 80 1a 00
        E 0 80 1f 00
        E 0 80 3d 00
        E 0 80 3e 00
        E 0 80 49 00
        E 0 80 4a 00
        E 0 80 55 00
        E 0 80 56 00
        E 0 80 61 00
        E 0 80 62 00
        E 180 90 18 60
        E 0 90 1f 60
        E 0 90 54 60
        E 0 90 56 60
        E 0 90 60 60
        E 0 90 62 60
        E 60 80 18 00
        E 0 80 1f 00
        E 0 80 54 00
        E 0 80 56 00
        E 0 80 60 00
        E 0 80 62 00
        E 180 90 18 60
        E 0 90 1f 60
        E 0 90 3e 60
        E 0 90 48 60
        E 0 90 4a 60
        E 0 90 54 60
        E 0 90 56 60
        E 0 90 60 60
        E 0 90 62 60
        E 60 80 18 00
        E 0 80 1f 00
        E 0 80 3e 00
        E 0 80 48 00
        E 0 80 4a 00
        E 0 80 54 00
        E 0 80 56 00
        E 0 80 60 00
        E 0 80 62 00
        E 180 90 1f 60
        E 0 90 56 60
        E 0 90 62 60
        E 60 80 1f 00
        E 0 80 56 00
        E 0 80 62 00
        E 180 90 1a 60
        E 0 90 1f 60
        E 0 90 3d 60
        E 0 90 3e 60
        E 0 90 49 60
        E 0 90 4a 60
        E 0 90 55 60
        E 0 90 56 60
        E 0 90 61 60
        E 0 90 62 60
        E 60 80 1a 00
        E 0 80 1f 00
        E 0 80 3d 00
        E 0 80 3e 00
        E 0 80 49 00
        E 0 80 4a 00
        E 0 80 55 00
        E 0 80 56 00
        E 0 80 61 00
        E 0 80 62 00
        E 180 90 1f 60
        E 0 90 56 60
        E 0 90 62 60
        E 60 80 1f 00
        E 0 80 56 00
        E 0 80 62 00
        E 180 90 18 60
        E 0 90 1f 60
        E 0 90 3e 60
        E 0 90 48 60
        E 0 90 4a 60
        E 0 90 54 60
        E 0 90 56 60
        E 0 90 60 60
        E 0 90 62 60
        E 0 90 74 60
        E 60 80 18 00
        E 0 80 48 00
        E 0 80 54 00
        E 0 80 60 00
        E 1 80 1f 00
        E 0 80 3e 00
        E 0 80 4a 00
        E 0 80 56 00
        E 0 80 62 00
        E 179 90 18 60
        E 0 90 1f 60
        E 0 90 54 60
        E 0 90 56 60
        E 0 90 60 60
        E 0 90 62 60
        E 60 80 18 00
        E 0 80 1f 00
        E 0 80 54 00
        E 0 80 56 00
        E 0 80 60 00
        E 0 80 62 00
        E 180 90 1a 60
        E 0 90 1f 60
        E 0 90 3d 60
        E 0 90 3e 60
        E 0 90 49 60
        E 0 90 4a 60
        E 0 90 55 60
        E 0 90 56 60
        E 0 90 61 60
        E 0 90 62 60
        E 60 80 1a 00
        E 0 80 1f 00
        E 0 80 3d 00
        E 0 80 3e 00
        E 0 80 49 00
        E 0 80 4a 00
        E 0 80 55 00
        E 0 80 56 00
        E 0 80 61 00
        E 0 80 62 00
        E 180 90 1f 60
        E 0 90 56 60
        E 0 90 62 60
        E 60 80 1f 00
        E 0 80 56 00
        E 0 80 62 00
        E 180 90 18 60
        E 0 90 26 60
        E 0 90 40 60
        E 0 90 48 60
        E 0 90 4c 60
        E 0 90 54 60
        E 0 90 58 60
        E 0 90 60 60
        E 0 90 64 60
        E 60 80 74 00
        E 0 80 18 00
        E 0 80 26 00
        E 0 80 40 00
        E 0 80 48 00
        E 0 80 4c 00
        E 0 80 54 00
        E 0 80 58 00
        E 0 80 60 00
        E 0 80 64 00
        E 180 90 1f 60
        E 0 90 56 60
        E 0 90 62 60
        E 60 80 1f 00
        E 0 80 56 00
        E 0 80 62 00
        E 180 90 1a 60
        E 0 90 1f 60
        E 0 90 3d 60
        E 0 90 3e 60
        E 0 90 49 60
        E 0 90 4a 60
        E 0 90 55 60
        E 0 90 56 60
        E 0 90 61 60
        E 0 90 62 60
        E 60 80 1a 00
        E 0 80 1f 00
        E 0 80 3d 00
        E 0 80 3e 00
        E 0 80 49 00
        E 0 80 4a 00
        E 0 80 55 00
        E 0 80 56 00
        E 0 80 61 00
        E 0 80 62 00
        E 180 90 18 60
        E 0 90 1f 60
        E 0 90 54 60
        E 0 90 56 60
        E 0 90 60 60
        E 0 90 62 60
        E 60 80 18 00
        E 0 80 1f 00
        E 0 80 54 00
        E 0 80 56 00
        E 0 80 60 00
        E 0 80 62 00
        E 180 90 18 60
        E 0 90 1f 60
        E 0 90 3e 60
        E 0 90 48 60
        E 0 90 4a 60
        E 0 90 54 60
        E 0 90 56 60
        E 0 90 60 60
        E 0 90 62 60
        E 60 80 18 00
        E 0 80 48 00
        E 0 80 54 00
        E 0 80 60 00
        E 1 80 1f 00
        E 0 80 3e 00
        E 0 80 4a 00
        E 0 80 56 00
        E 0 80 62 00
        E 179 90 1f 60
        E 0 90 56 60
        E 0 90 62 60
        E 60 80 1f 00
        E 0 80 56 00
        E 0 80 62 00
        E 180 90 1a 60
        E 0 90 1f 60
        E 0 90 3d 60
        E 0 90 3e 60
        E 0 90 49 60
        E 0 90 4a 60
        E 0 90 55 60
        E 0 90 56 60
        E 0 90 61 60
        E 0 90 62 60
        E 60 80 1a 00
        E 0 80 1f 00
        E 0 80 3d 00
        E 0 80 3e 00
        E 0 80 49 00
        E 0 80 4a 00
        E 0 80 55 00
        E 0 80 56 00
        E 0 80 61 00
        E 0 80 62 00
        E 180 90 18 60
        E 0 90 1f 60
        E 0 90 54 60
        E 0 90 56 60
        E 0 90 60 60
        E 0 90 62 60
        E 60 80 18 00
        E 0 80 1f 00
        E 0 80 54 00
        E 0 80 56 00
        E 0 80 60 00
        E 0 80 62 00
        E 180 90 18 60
        E 0 90 1f 60
        E 0 90 3e 60
        E 0 90 48 60
        E 0 90 4a 60
        E 0 90 54 60
        E 0 90 56 60
        E 0 90 60 60
        E 0 90 62 60
        E 60 80 18 00
        E 0 80 1f 00
        E 0 80 3e 00
        E 0 80 48 00
        E 0 80 4a 00
        E 0 80 54 00
        E 0 80 56 00
        E 0 80 60 00
        E 0 80 62 00
        E 180 90 1f 60
        E 0 90 56 60
        E 0 90 62 60
        E 60 80 1f 00
        E 0 80 56 00
        E 0 80 62 00
        E 180 90 1a 60
        E 0 90 1f 60
        E 0 90 3d 60
        E 0 90 3e 60
        E 0 90 49 60
        E 0 90 4a 60
        E 0 90 55 60
        E 0 90 56 60
        E 0 90 61 60
        E 0 90 62 60
        E 60 80 1a 00
        E 0 80 1f 00
        E 0 80 3d 00
        E 0 80 3e 00
        E 0 80 49 00
        E 0 80 4a 00
        E 0 80 55 00
        E 0 80 56 00
        E 0 80 61 00
        E 0 80 62 00
        E 180 90 18 60
        E 0 90 1f 60
        E 0 90 54 60
        E 0 90 56 60
        E 0 90 60 60
        E 0 90 62 60
        E 60 80 18 00
        E 0 80 1f 00
        E 0 80 54 00
        E 0 80 56 00
        E 0 80 60 00
        E 0 80 62 00
        E 180 90 18 60
        E 0 90 1f 60
        E 0 90 3e 60
        E 0 90 48 60
        E 0 90 4a 60
        E 0 90 54 60
        E 0 90 56 60
        E 0 90 60 60
        E 0 90 62 60
        E 60 80 18 00
        E 0 80 48 00
        E 0 80 54 00
        E 0 80 60 00
        E 1 80 1f 00
        E 0 80 3e 00
        E 0 80 4a 00
        E 0 80 56 00
        E 0 80 62 00
        E 179 90 1f 60
        E 0 90 56 60
        E 0 90 62 60
        E 60 80 1f 00
        E 0 80 56 00
        E 0 80 62 00
        E 180 90 1a 60
        E 0 90 1f 60
        E 0 90 3d 60
        E 0 90 3e 60
        E 0 90 49 60
        E 0 90 4a 60
        E 0 90 55 60
        E 0 90 56 60
        E 0 90 61 60
        E 0 90 62 60
        E 60 80 1a 00
        E 0 80 1f 00
        E 0 80 3d 00
        E 0 80 3e 00
        E 0 80 49 00
        E 0 80 4a 00
        E 0 80 55 00
        E 0 80 56 00
        E 0 80 61 00
        E 0 80 62 00
        E 180 90 18 60
        E 0 90 1f 60
        E 0 90 54 60
        E 0 90 56 60
        E 0 90 60 60
        E 0 90 62 60
        E 60 80 18 00
        E 0 80 1f 00
        E 0 80 54 00
        E 0 80 56 00
        E 0 80 60 00
        E 0 80 62 00
        E 180 90 18 60
        E 0 90 1f 60
        E 0 90 3e 60
        E 0 90 48 60
        E 0 90 4a 60
        E 0 90 54 60
        E 0 90 56 60
        E 0 90 60 60
        E 0 90 62 60
        E 60 80 18 00
        E 0 80 1f 00
        E 0 80 3e 00
        E 0 80 48 00
        E 0 80 4a 00
        E 0 80 54 00
        E 0 80 56 00
        E 0 80 60 00
        E 0 80 62 00
        E 180 90 1f 60
        E 0 90 56 60
        E 0 90 62 60
        E 60 80 1f 00
        E 0 80 56 00
        E 0 80 62 00
        E 180 90 1a 60
        E 0 90 1f 60
        E 0 90 3d 60
        E 0 90 3e 60
        E 0 90 49 60
        E 0 90 4a 60
        E 0 90 55 60
        E 0 90 56 60
        E 0 90 61 60
        E 0 90 62 60
        E 60 80 1a 00
        E 0 80 1f 00
        E 0 80 3d 00
        E 0 80 3e 00
        E 0 80 49 00
        E 0 80 4a 00
        E 0 80 55 00
        E 0 80 56 00
        E 0 80 61 00
        E 0 80 62 00
        E 180 90 18 60
        E 0 90 1f 60
        E 0 90 54 60
        E 0 90 56 60
        E 0 90 60 60
        E 0 90 62 60
        E 60 80 18 00
        E 0 80 1f 00
        E 0 80 54 00
        E 0 80 56 00
        E 0 80 60 00
        E 0 80 62 00
        E 180 90 18 60
        E 0 90 1f 60
        E 0 90 3e 60
        E 0 90 48 60
        E 0 90 4a 60
        E 0 90 54 60
        E 0 90 56 60
        E 0 90 60 60
        E 0 90 62 60
        E 60 80 18 00
        E 0 80 48 00
        E 0 80 54 00
        E 0 80 60 00
        E 1 80 1f 00
        E 0 80 3e 00
        E 0 80 4a 00
        E 0 80 56 00
        E 0 80 62 00
        E 179 90 1f 60
        E 0 90 56 60
        E 0 90 62 60
        E 60 80 1f 00
        E 0 80 56 00
        E 0 80 62 00
        E 180 90 1a 60
        E 0 90 1f 60
        E 0 90 3d 60
        E 0 90 3e 60
        E 0 90 49 60
        E 0 90 4a 60
        E 0 90 55 60
        E 0 90 56 60
        E 0 90 61 60
        E 0 90 62 60
        E 60 80 1a 00
        E 0 80 1f 00
        E 0 80 3d 00
        E 0 80 3e 00
        E 0 80 49 00
        E 0 80 4a 00
        E 0 80 55 00
        E 0 80 56 00
        E 0 80 61 00
        E 0 80 62 00
        E 180 90 18 60
        E 0 90 1f 60
        E 0 90 54 60
        E 0 90 56 60
        E 0 90 60 60
        E 0 90 62 60
        E 60 80 18 00
        E 0 80 1f 00
        E 0 80 54 00
        E 0 80 56 00
        E 0 80 60 00
        E 0 80 62 00
        E 180 90 18 60
        E 0 90 1f 60
        E 0 90 3e 60
        E 0 90 48 60
        E 0 90 4a 60
        E 0 90 54 60
        E 0 90 56 60
        E 0 90 60 60
        E 0 90 62 60
        E 60 80 18 00
        E 0 80 1f 00
        E 0 80 3e 00
        E 0 80 48 00
        E 0 80 4a 00
        E 0 80 54 00
        E 0 80 56 00
        E 0 80 60 00
        E 0 80 62 00
        E 180 90 1f 60
        E 0 90 56 60
        E 0 90 62 60
        E 60 80 1f 00
        E 0 80 56 00
        E 0 80 62 00
        E 180 90 1a 60
        E 0 90 1f 60
        E 0 90 3d 60
        E 0 90 3e 60
        E 0 90 49 60
        E 0 90 4a 60
        E 0 90 55 60
        E 0 90 56 60
        E 0 90 61 60
        E 0 90 62 60
        E 60 80 1a 00
        E 0 80 1f 00
        E 0 80 3d 00
        E 0 80 3e 00
        E 0 80 49 00
        E 0 80 4a 00
        E 0 80 55 00
        E 0 80 56 00
        E 0 80 61 00
        E 0 80 62 00
        E 180 90 18 60
        E 0 90 1f 60
        E 0 90 54 60
        E 0 90 56 60
        E 0 90 60 60
        E 0 90 62 60
        E 60 80 18 00
        E 0 80 1f 00
        E 0 80 54 00
        E 0 80 56 00
        E 0 80 60 00
        E 0 80 62 00
        E 180 90 18 60
        E 0 90 1f 60
        E 0 90 3e 60
        E 0 90 48 60
        E 0 90 4a 60
        E 0 90 54 60
        E 0 90 56 60
        E 0 90 60 60
        E 0 90 62 60
        E 60 80 18 00
        E 0 80 48 00
        E 0 80 54 00
        E 0 80 60 00
        E 1 80 1f 00
        E 0 80 3e 00
        E 0 80 4a 00
        E 0 80 56 00
        E 0 80 62 00
        E 179 90 1f 60
        E 0 90 56 60
        E 0 90 62 60
        E 60 80 1f 00
        E 0 80 56 00
        E 0 80 62 00
        E 180 90 1a 60
        E 0 90 1f 60
        E 0 90 3d 60
        E 0 90 3e 60
        E 0 90 49 60
        E 0 90 4a 60
        E 0 90 55 60
        E 0 90 56 60
        E 0 90 61 60
        E 0 90 62 60
        E 60 80 1a 00
        E 0 80 1f 00
        E 0 80 3d 00
        E 0 80 3e 00
        E 0 80 49 00
        E 0 80 4a 00
        E 0 80 55 00
        E 0 80 56 00
        E 0 80 61 00
        E 0 80 62 00
        E 180 90 18 60
        E 0 90 1f 60
        E 0 90 54 60
        E 0 90 56 60
        E 0 90 60 60
        E 0 90 62 60
        E 60 80 18 00
        E 0 80 1f 00
        E 0 80 54 00
        E 0 80 56 00
        E 0 80 60 00
        E 0 80 62 00
        E 180 90 18 60
        E 0 90 1f 60
        E 0 90 3e 60
        E 0 90 48 60
        E 0 90 4a 60
        E 0 90 54 60
        E 0 90 56 60
        E 0 90 60 60
        E 0 90 62 60
        E 60 80 18 00
        E 0 80 1f 00
        E 0 80 3e 00
        E 0 80 48 00
        E 0 80 4a 00
        E 0 80 54 00
        E 0 80 56 00
        E 0 80 60 00
        E 0 80 62 00
        E 180 90 1f 60
        E 0 90 56 60
        E 0 90 62 60
        E 60 80 1f 00
        E 0 80 56 00
        E 0 80 62 00
        E 180 90 1a 60
        E 0 90 1f 60
        E 0 90 3d 60
        E 0 90 3e 60
        E 0 90 49 60
        E 0 90 4a 60
        E 0 90 55 60
        E 0 90 56 60
        E 0 90 61 60
        E 0 90 62 60
        E 60 80 1a 00
        E 0 80 1f 00
        E 0 80 3d 00
        E 0 80 3e 00
        E 0 80 49 00
        E 0 80 4a 00
        E 0 80 55 00
        E 0 80 56 00
        E 0 80 61 00
        E 0 80 62 00
        E 180 90 18 60
        E 0 90 1f 60
        E 0 90 54 60
        E 0 90 56 60
        E 0 90 60 60
        E 0 90 62 60
        E 60 80 18 00
        E 0 80 1f 00
        E 0 80 54 00
        E 0 80 56 00
        E 0 80 60 00
        E 0 80 62 00
        E 180 90 18 60
        E 0 90 1f 60
        E 0 90 3e 60
        E 0 90 48 60
        E 0 90 4a 60
        E 0 90 54 60
        E 0 90 56 60
        E 0 90 60 60
        E 0 90 62 60
        E 60 80 18 00
        E 0 80 48 00
        E 0 80 54 00
        E 0 80 60 00
        E 1 80 1f 00
        E 0 80 3e 00
        E 0 80 4a 00
        E 0 80 56 00
        E 0 80 62 00
        E 179 90 1f 60
        E 0 90 56 60
        E 0 90 62 60
        E 60 80 1f 00
        E 0 80 56 00
        E 0 80 62 00
        E 180 90 1a 60
        E 0 90 1f 60
        E 0 90 3d 60
        E 0 90 3e 60
        E 0 90 49 60
        E 0 90 4a 60
        E 0 90 55 60
        E 0 90 56 60
        E 0 90 61 60
        E 0 90 62 60
        E 60 80 1a 00
        E 0 80 1f 00
        E 0 80 3d 00
        E 0 80 3e 00
        E 0 80 49 00
        E 0 80 4a 00
        E 0 80 55 00
        E 0 80 56 00
        E 0 80 61 00
        E 0 80 62 00
        E 180 90 18 60
        E 0 90 1f 60
        E 0 90 54 60
        E 0 90 56 60
        E 0 90 60 60
        E 0 90 62 60
        E 60 80 18 00
        E 0 80 1f 00
        E 0 80 54 00
        E 0 80 56 00
        E 0 80 60 00
        E 0 80 62 00
        E 180 90 18 60
        E 0 90 1f 60
        E 0 90 3e 60
        E 0 90 48 60
        E 0 90 4a 60
        E 0 90 54 60
        E 0 90 56 60
        E 0 90 60 60
        E 0 90 62 60
        E 60 80 18 00
        E 0 80 1f 00
        E 0 80 3e 00
        E 0 80 48 00
        E 0 80 4a 00
        E 0 80 54 00
        E 0 80 56 00
        E 0 80 60 00
        E 0 80 62 00
        E 180 90 1f 60
        E 0 90 56 60
        E 0 90 62 60
        E 60 80 1f 00
        E 0 80 56 00
        E 0 80 62 00
        E 180 90 1a 60
        E 0 90 1f 60
        E 0 90 3d 60
        E 0 90 3e 60
        E 0 90 49 60
        E 0 90 4a 60
        E 0 90 55 60
        E 0 90 56 60
        E 0 90 61 60
        E 0 90 62 60
        E 60 80 1a 00
        E 0 80 1f 00
        E 0 80 3d 00
        E 0 80 3e 00
        E 0 80 49 00
        E 0 80 4a 00
        E 0 80 55 00
        E 0 80 56 00
        E 0 80 61 00
        E 0 80 62 00
        E 180 90 18 60
        E 0 90 1f 60
        E 0 90 54 60
        E 0 90 56 60
        E 0 90 60 60
        E 0 90 62 60
        E 60 80 18 00
        E 0 80 1f 00
        E 0 80 54 00
        E 0 80 56 00
        E 0 80 60 00
        E 0 80 62 00
        E 180 90 18 60
        E 0 90 1f 60
        E 0 90 3e 60
        E 0 90 48 60
        E 0 90 4a 60
        E 0 90 54 60
        E 0 90 56 60
        E 0 90 60 60
        E 0 90 62 60
        E 60 80 18 00
        E 0 80 48 00
        E 0 80 54 00
        E 0 80 60 00
        E 1 80 1f 00
        E 0 80 3e 00
        E 0 80 4a 00
        E 0 80 56 00
        E 0 80 62 00
        E 179 90 1f 60
        E 0 90 56 60
        E 0 90 62 60
        E 60 80 1f 00
        E 0 80 56 00
        E 0 80 62 00
        E 180 90 1a 60
        E 0 90 1f 60
        E 0 90 3d 60
        E 0 90 3e 60
        E 0 90 49 60
        E 0 90 4a 60
        E 0 90 55 60
        E 0 90 56 60
        E 0 90 61 60
        E 0 90 62 60
        E 60 80 1a 00
        E 0 80 1f 00
        E 0 80 3d 00
        E 0 80 3e 00
        E 0 80 49 00
        E 0 80 4a 00
        E 0 80 55 00
        E 0 80 56 00
        E 0 80 61 00
        E 0 80 62 00
        E 1 90 74 67
        E 179 90 1f 60
        E 0 90 56 60
        E 0 90 62 60
        E 60 80 1f 00
        E 0 80 56 00
        E 0 80 62 00
        E 180 90 18 60
        E 0 90 26 60
        E 0 90 40 60
        E 0 90 48 60
        E 0 90 4c 60
        E 0 90 54 60
        E 0 90 58 60
        E 0 90 60 60
        E 0 90 64 60
        E 60 80 18 00
        E 0 80 26 00
        E 0 80 40 00
        E 0 80 48 00
        E 0 80 4c 00
        E 0 80 54 00
        E 0 80 58 00
        E 0 80 60 00
        E 0 80 64 00
        E 180 90 1f 60
        E 0 90 56 60
        E 0 90 62 60
        E 60 80 1f 00
        E 0 80 56 00
        E 0 80 62 00
        E 180 90 1a 60
        E 0 90 1f 60
        E 0 90 3d 60
        E 0 90 3e 60
        E 0 90 49 60
        E 0 90 4a 60
        E 0 90 55 60
        E 0 90 56 60
        E 0 90 61 60
        E 0 90 62 60
        E 60 80 1a 00
        E 0 80 1f 00
        E 0 80 3d 00
        E 0 80 3e 00
        E 0 80 49 00
        E 0 80 4a 00
        E 0 80 55 00
        E 0 80 56 00
        E 0 80 61 00
        E 0 80 62 00
        E 180 90 18 60
        E 0 90 1f 60
        E 0 90 54 60
        E 0 90 56 60
        E 0 90 60 60
        E 0 90 62 60
        E 60 80 18 00
        E 0 80 1f 00
        E 0 80 54 00
        E 0 80 56 00
        E 0 80 60 00
        E 0 80 62 00
        E 180 90 18 60
        E 0 90 1f 60
        E 0 90 3e 60
        E 0 90 48 60
        E 0 90 4a 60
        E 0 90 54 60
        E 0 90 56 60
        E 0 90 60 60
        E 0 90 62 60
        E 60 80 18 00
        E 0 80 48 00
        E 0 80 54 00
        E 0 80 60 00
        E 1 80 1f 00
        E 0 80 3e 00
        E 0 80 4a 00
        E 0 80 56 00
        E 0 80 62 00
        E 179 90 1f 60
        E 0 90 56 60
        E 0 90 62 60
        E 60 80 1f 00
        E 0 80 56 00
        E 0 80 62 00
        E 141 80 74 00
        E 39 90 1a 60
        E 0 90 1f 60
        E 0 90 3d 60
        E 0 90 3e 60
        E 0 90 49 60
        E 0 90 4a 60
        E 0 90 55 60
        E 0 90 56 60
        E 0 90 61 60
        E 0 90 62 60
        E 60 80 1a 00
        E 0 80 1f 00
        E 0 80 3d 00
        E 0 80 3e 00
        E 0 80 49 00
        E 0 80 4a 00
        E 0 80 55 00
        E 0 80 56 00
        E 0 80 61 00
        E 0 80 62 00
        E 180 90 18 60
        E 0 90 1f 60
        E 0 90 54 60
        E 0 90 56 60
        E 0 90 60 60
        E 0 90 62 60
        E 60 80 18 00
        E 0 80 1f 00
        E 0 80 54 00
        E 0 80 56 00
        E 0 80 60 00
        E 0 80 62 00
        E 180 90 18 60
        E 0 90 1f 60
        E 0 90 3e 60
        E 0 90 48 60
        E 0 90 4a 60
        E 0 90 54 60
        E 0 90 56 60
        E 0 90 60 60
        E 0 90 62 60
        E 60 80 18 00
        E 0 80 1f 00
        E 0 80 3e 00
        E 0 80 48 00
        E 0 80 4a 00
        E 0 80 54 00
        E 0 80 56 00
        E 0 80 60 00
        E 0 80 62 00
        E 180 90 1f 60
        E 0 90 56 60
        E 0 90 62 60
        E 60 80 1f 00
        E 0 80 56 00
        E 0 80 62 00
        E 180 90 1a 60
        E 0 90 1f 60
        E 0 90 3d 60
        E 0 90 3e 60
        E 0 90 49 60
        E 0 90 4a 60
        E 0 90 55 60
        E 0 90 56 60
        E 0 90 61 60
        E 0 90 62 60
        E 60 80 1a 00
        E 0 80 1f 00
        E 0 80 3d 00
        E 0 80 3e 00
        E 0 80 49 00
        E 0 80 4a 00
        E 0 80 55 00
        E 0 80 56 00
        E 0 80 61 00
        E 0 80 62 00
        E 180 90 18 60
        E 0 90 1f 60
        E 0 90 54 60
        E 0 90 56 60
        E 0 90 60 60
        E 0 90 62 60
        E 60 80 18 00
        E 0 80 1f 00
        E 0 80 54 00
        E 0 80 56 00
        E 0 80 60 00
        E 0 80 62 00
        E 180 90 18 60
        E 0 90 1f 60
        E 0 90 3e 60
        E 0 90 48 60
        E 0 90 4a 60
        E 0 90 54 60
        E 0 90 56 60
        E 0 90 60 60
        E 0 90 62 60
        E 60 80 18 00
        E 0 80 48 00
        E 0 80 54 00
        E 0 80 60 00
        E 1 80 1f 00
        E 0 80 3e 00
        E 0 80 4a 00
        E 0 80 56 00
        E 0 80 62 00
        E 179 90 1f 60
        E 0 90 56 60
        E 0 90 62 60
        E 60 80 1f 00
        E 0 80 56 00
        E 0 80 62 00
        E 180 90 1a 60
        E 0 90 1f 60
        E 0 90 3d 60
        E 0 90 3e 60
        E 0 90 49 60
        E 0 90 4a 60
        E 0 90 55 60
        E 0 90 56 60
        E 0 90 61 60
        E 0 90 62 60
        E 60 80 1a 00
        E 0 80 1f 00
        E 0 80 3d 00
        E 0 80 3e 00
        E 0 80 49 00
        E 0 80 4a 00
        E 0 80 55 00
        E 0 80 56 00
        E 0 80 61 00
        E 0 80 62 00
        E 180 90 18 60
        E 0 90 1f 60
        E 0 90 54 60
        E 0 90 56 60
        E 0 90 60 60
        E 0 90 62 60
        E 60 80 18 00
        E 0 80 1f 00
        E 0 80 54 00
        E 0 80 56 00
        E 0 80 60 00
        E 0 80 62 00
        E 180 90 18 60
        E 0 90 26 60
        E 0 90 40 60
        E 0 90 48 60
        E 0 90 4c 60
        E 0 90 54 60
        E 0 90 58 60
        E 0 90 60 60
        E 0 90 64 60
        E 60 80 18 00
        E 0 80 26 00
        E 0 80 40 00
        E 0 80 48 00
        E 0 80 4c 00
        E 0 80 54 00
        E 0 80 58 00
        E 0 80 60 00
        E 0 80 64 00
        E 180 90 1f 60
        E 0 90 56 60
        E 0 90 62 60
        E 60 80 1f 00
        E 0 80 56 00
        E 0 80 62 00
        E 180 90 1a 60
        E 0 90 1f 60
        E 0 90 3d 60
        E 0 90 3e 60
        E 0 90 49 60
        E 0 90 4a 60
        E 0 90 55 60
        E 0 90 56 60
        E 0 90 61 60
        E 0 90 62 60
        E 60 80 1a 00
        E 0 80 1f 00
        E 0 80 3d 00
        E 0 80 3e 00
        E 0 80 49 00
        E 0 80 4a 00
        E 0 80 55 00
        E 0 80 56 00
        E 0 80 61 00
        E 0 80 62 00
        E 180 90 18 60
        E 0 90 1f 60
        E 0 90 54 60
        E 0 90 56 60
        E 0 90 60 60
        E 0 90 62 60
        E 60 80 18 00
        E 0 80 1f 00
        E 0 80 54 00
        E 0 80 56 00
        E 0 80 60 00
        E 0 80 62 00
        E 180 90 18 60
        E 0 90 1f 60
        E 0 90 3e 60
        E 0 90 48 60
        E 0 90 4a 60
        E 0 90 54 60
        E 0 90 56 60
        E 0 90 60 60
        E 0 90 62 60
        E 60 80 18 00
        E 0 80 48 00
        E 0 80 54 00
        E 0 80 60 00
        E 1 80 1f 00
        E 0 80 3e 00
        E 0 80 4a 00
        E 0 80 56 00
        E 0 80 62 00
        E 179 90 1f 60
        E 0 90 56 60
        E 0 90 62 60
        E 60 80 1f 00
        E 0 80 56 00
        E 0 80 62 00
        E 180 90 1a 60
        E 0 90 1f 60
        E 0 90 3d 60
        E 0 90 3e 60
        E 0 90 49 60
        E 0 90 4a 60
        E 0 90 55 60
        E 0 90 56 60
        E 0 90 61 60
        E 0 90 62 60
        E 60 80 1a 00
        E 0 80 1f 00
        E 0 80 3d 00
        E 0 80 3e 00
        E 0 80 49 00
        E 0 80 4a 00
        E 0 80 55 00
        E 0 80 56 00
        E 0 80 61 00
        E 0 80 62 00
        E 180 90 18 60
        E 0 90 1f 60
        E 0 90 54 60
        E 0 90 56 60
        E 0 90 60 60
        E 0 90 62 60
        E 60 80 18 00
        E 0 80 1f 00
        E 0 80 54 00
        E 0 80 56 00
        E 0 80 60 00
        E 0 80 62 00
        E 180 90 18 60
        E 0 90 1f 60
        E 0 90 3e 60
        E 0 90 48 60
        E 0 90 4a 60
        E 0 90 54 60
        E 0 90 56 60
        E 0 90 60 60
        E 0 90 62 60
        E 60 80 18 00
        E 0 80 1f 00
        E 0 80 3e 00
        E 0 80 48 00
        E 0 80 4a 00
        E 0 80 54 00
        E 0 80 56 00
        E 0 80 60 00
        E 0 80 62 00
        E 180 90 1f 60
        E 0 90 56 60
        E 0 90 62 60
        E 60 80 1f 00
        E 0 80 56 00
        E 0 80 62 00
        E 180 90 1a 60
        E 0 90 1f 60
        E 0 90 3d 60
        E 0 90 3e 60
        E 0 90 49 60
        E 0 90 4a 60
        E 0 90 55 60
        E 0 90 56 60
        E 0 90 61 60
        E 0 90 62 60
        E 60 80 1a 00
        E 0 80 1f 00
        E 0 80 3d 00
        E 0 80 3e 00
        E 0 80 49 00
        E 0 80 4a 00
        E 0 80 55 00
        E 0 80 56 00
        E 0 80 61 00
        E 0 80 62 00
        E 180 90 18 60
        E 0 90 1f 60
        E 0 90 54 60
        E 0 90 56 60
        E 0 90 60 60
        E 0 90 62 60
        E 60 80 18 00
        E 0 80 1f 00
        E 0 80 54 00
        E 0 80 56 00
        E 0 80 60 00
        E 0 80 62 00
        E 180 90 18 60
        E 0 90 1f 60
        E 0 90 3e 60
        E 0 90 48 60
        E 0 90 4a 60
        E 0 90 54 60
        E 0 90 56 60
        E 0 90 60 60
        E 0 90 62 60
        E 0 90 78 60
        E 0 90 79 60
        E 0 90 7a 60
        E 0 90 7b 60
        E 0 90 7c 60
        E 60 80 18 00
        E 0 80 48 00
        E 0 80 54 00
        E 0 80 60 00
        E 1 80 1f 00
        E 0 80 3e 00
        E 0 80 4a 00
        E 0 80 56 00
        E 0 80 62 00
        E 179 90 1f 60
        E 0 90 56 60
        E 0 90 62 60
        E 60 80 1f 00
        E 0 80 56 00
        E 0 80 62 00
        E 180 90 1a 60
        E 0 90 1f 60
        E 0 90 3d 60
        E 0 90 3e 60
        E 0 90 49 60
        E 0 90 4a 60
        E 0 90 55 60
        E 0 90 56 60
        E 0 90 61 60
        E 0 90 62 60
        E 60 80 1a 00
        E 0 80 1f 00
        E 0 80 3d 00
        E 0 80 3e 00
        E 0 80 49 00
        E 0 80 4a 00
        E 0 80 55 00
        E 0 80 56 00
        E 0 80 61 00
        E 0 80 62 00
        E 180 90 18 60
        E 0 90 1f 60
        E 0 90 54 60
        E 0 90 56 60
        E 0 90 60 60
        E 0 90 62 60
        E 60 80 18 00
        E 0 80 1f 00
        E 0 80 54 00
        E 0 80 56 00
        E 0 80 60 00
        E 0 80 62 00
        E 180 80 78 00
        E 0 80 79 00
        E 0 80 7a 00
        E 0 80 7b 00
        E 0 80 7c 00
        E 0 90 18 60
        E 0 90 26 60
        E 0 90 40 60
        E 0 90 48 60
        E 0 90 4c 60
        E 0 90 54 60
        E 0 90 58 60
        E 0 90 60 60
        E 0 90 64 60
        E 60 80 18 00
        E 0 80 26 00
        E 0 80 40 00
        E 0 80 48 00
        E 0 80 4c 00
        E 0 80 54 00
        E 0 80 58 00
        E 0 80 60 00
        E 0 80 64 00
        E 180 90 1f 60
        E 0 90 56 60
        E 0 90 62 60
        E 60 80 1f 00
        E 0 80 56 00
        E 0 80 62 00
        E 180 90 1a 60
        E 0 90 1f 60
        E 0 90 3d 60
        E 0 90 3e 60
        E 0 90 49 60
        E 0 90 4a 60
        E 0 90 55 60
        E 0 90 56 60
        E 0 90 61 60
        E 0 90 62 60
        E 60 80 1a 00
        E 0 80 1f 00
        E 0 80 3d 00
        E 0 80 3e 00
        E 0 80 49 00
        E 0 80 4a 00
        E 0 80 55 00
        E 0 80 56 00
        E 0 80 61 00
        E 0 80 62 00
        E 180 90 18 60
        E 0 90 1f 60
        E 0 90 54 60
        E 0 90 56 60
        E 0 90 60 60
        E 0 90 62 60
        E 60 80 18 00
        E 0 80 1f 00
        E 0 80 54 00
        E 0 80 56 00
        E 0 80 60 00
        E 0 80 62 00
        E 180 90 18 60
        E 0 90 1f 60
        E 0 90 3e 60
        E 0 90 48 60
        E 0 90 4a 60
        E 0 90 54 60
        E 0 90 56 60
        E 0 90 60 60
        E 0 90 62 60
        E 60 80 18 00
        E 0 80 48 00
        E 0 80 54 00
        E 0 80 60 00
        E 1 80 1f 00
        E 0 80 3e 00
        E 0 80 4a 00
        E 0 80 56 00
        E 0 80 62 00
        E 179 90 1f 60
        E 0 90 56 60
        E 0 90 62 60
        E 60 80 1f 00
        E 0 80 56 00
        E 0 80 62 00
        E 180 90 1a 60
        E 0 90 1f 60
        E 0 90 3d 60
        E 0 90 3e 60
        E 0 90 49 60
        E 0 90 4a 60
        E 0 90 55 60
        E 0 90 56 60
        E 0 90 61 60
        E 0 90 62 60
        E 60 80 1a 00
        E 0 80 1f 00
        E 0 80 3d 00
        E 0 80 3e 00
        E 0 80 49 00
        E 0 80 4a 00
        E 0 80 55 00
        E 0 80 56 00
        E 0 80 61 00
        E 0 80 62 00
        E 180 90 18 60
        E 0 90 1f 60
        E 0 90 54 60
        E 0 90 56 60
        E 0 90 60 60
        E 0 90 62 60
        E 60 80 18 00
        E 0 80 1f 00
        E 0 80 54 00
        E 0 80 56 00
        E 0 80 60 00
        E 0 80 62 00
        E 180 90 18 60
        E 0 90 1f 60
        E 0 90 3e 60
        E 0 90 48 60
        E 0 90 4a 60
        E 0 90 54 60
        E 0 90 56 60
        E 0 90 60 60
        E 0 90 62 60
        E 60 80 18 00
        E 0 80 1f 00
        E 0 80 3e 00
        E 0 80 48 00
        E 0 80 4a 00
        E 0 80 54 00
        E 0 80 56 00
        E 0 80 60 00
        E 0 80 62 00
        E 180 90 1f 60
        E 0 90 56 60
        E 0 90 62 60
        E 60 80 1f 00
        E 0 80 56 00
        E 0 80 62 00
        E 180 90 1a 60
        E 0 90 1f 60
        E 0 90 3d 60
        E 0 90 3e 60
        E 0 90 49 60
        E 0 90 4a 60
        E 0 90 55 60
        E 0 90 56 60
        E 0 90 61 60
        E 0 90 62 60
        E 60 80 1a 00
        E 0 80 1f 00
        E 0 80 3d 00
        E 0 80 3e 00
        E 0 80 49 00
        E 0 80 4a 00
        E 0 80 55 00
        E 0 80 56 00
        E 0 80 61 00
        E 0 80 62 00
        E 180 90 18 60
        E 0 90 1f 60
        E 0 90 54 60
        E 0 90 56 60
        E 0 90 60 60
        E 0 90 62 60
        E 60 80 18 00
        E 0 80 1f 00
        E 0 80 54 00
        E 0 80 56 00
        E 0 80 60 00
        E 0 80 62 00
        E 180 90 18 60
        E 0 90 1f 60
        E 0 90 3e 60
        E 0 90 48 60
        E 0 90 4a 60
        E 0 90 54 60
        E 0 90 56 60
        E 0 90 60 60
        E 0 90 62 60
        E 60 80 18 00
        E 0 80 48 00
        E 0 80 54 00
        E 0 80 60 00
        E 1 80 1f 00
        E 0 80 3e 00
        E 0 80 4a 00
        E 0 80 56 00
        E 0 80 62 00
        E 179 90 1f 60
        E 0 90 56 60
        E 0 90 62 60
        E 60 80 1f 00
        E 0 80 56 00
        E 0 80 62 00
        E 180 90 1a 60
        E 0 90 1f 60
        E 0 90 3d 60
        E 0 90 3e 60
        E 0 90 49 60
        E 0 90 4a 60
        E 0 90 55 60
        E 0 90 56 60
        E 0 90 61 60
        E 0 90 62 60
        E 60 80 1a 00
        E 0 80 1f 00
        E 0 80 3d 00
        E 0 80 3e 00
        E 0 80 49 00
        E 0 80 4a 00
        E 0 80 55 00
        E 0 80 56 00
        E 0 80 61 00
        E 0 80 62 00
        E 180 90 18 60
        E 0 90 1f 60
        E 0 90 54 60
        E 0 90 56 60
        E 0 90 60 60
        E 0 90 62 60
        E 60 80 18 00
        E 0 80 1f 00
        E 0 80 54 00
        E 0 80 56 00
        E 0 80 60 00
        E 0 80 62 00
        E 180 90 18 60
        E 0 90 1f 60
        E 0 90 3e 60
        E 0 90 48 60
        E 0 90 4a 60
        E 0 90 54 60
        E 0 90 56 60
        E 0 90 60 60
        E 0 90 62 60
        E 60 80 18 00
        E 0 80 1f 00
        E 0 80 3e 00
        E 0 80 48 00
        E 0 80 4a 00
        E 0 80 54 00
        E 0 80 56 00
        E 0 80 60 00
        E 0 80 62 00
        E 180 90 1f 60
        E 0 90 56 60
        E 0 90 62 60
        E 60 80 1f 00
        E 0 80 56 00
        E 0 80 62 00
        E 180 90 1a 60
        E 0 90 1f 60
        E 0 90 3d 60
        E 0 90 3e 60
        E 0 90 49 60
        E 0 90 4a 60
        E 0 90 55 60
        E 0 90 56 60
        E 0 90 61 60
        E 0 90 62 60
        E 60 80 1a 00
        E 0 80 1f 00
        E 0 80 3d 00
        E 0 80 3e 00
        E 0 80 49 00
        E 0 80 4a 00
        E 0 80 55 00
        E 0 80 56 00
        E 0 80 61 00
        E 0 80 62 00
        E 180 90 18 60
        E 0 90 1f 60
        E 0 90 54 60
        E 0 90 56 60
        E 0 90 60 60
        E 0 90 62 60
        E 60 80 18 00
        E 0 80 1f 00
        E 0 80 54 00
        E 0 80 56 00
        E 0 80 60 00
        E 0 80 62 00
        E 180 90 18 60
        E 0 90 1f 60
        E 0 90 3e 60
        E 0 90 48 60
        E 0 90 4a 60
        E 0 90 54 60
        E 0 90 56 60
        E 0 90 60 60
        E 0 90 62 60
        E 60 80 18 00
        E 0 80 48 00
        E 0 80 54 00
        E 0 80 60 00
        E 1 80 1f 00
        E 0 80 3e 00
        E 0 80 4a 00
        E 0 80 56 00
        E 0 80 62 00
        E 179 90 1f 60
        E 0 90 56 60
        E 0 90 62 60
        E 60 80 1f 00
        E 0 80 56 00
        E 0 80 62 00
        E 180 90 1a 60
        E 0 90 1f 60
        E 0 90 3d 60
        E 0 90 3e 60
        E 0 90 49 60
        E 0 90 4a 60
        E 0 90 55 60
        E 0 90 56 60
        E 0 90 61 60
        E 0 90 62 60
        E 60 80 1a 00
        E 0 80 1f 00
        E 0 80 3d 00
        E 0 80 3e 00
        E 0 80 49 00
        E 0 80 4a 00
        E 0 80 55 00
        E 0 80 56 00
        E 0 80 61 00
        E 0 80 62 00
        E 180 90 18 60
        E 0 90 1f 60
        E 0 90 54 60
        E 0 90 56 60
        E 0 90 60 60
        E 0 90 62 60
        E 60 80 18 00
        E 0 80 1f 00
        E 0 80 54 00
        E 0 80 56 00
        E 0 80 60 00
        E 0 80 62 00
        E 180 90 18 60
        E 0 90 1f 60
        E 0 90 3e 60
        E 0 90 48 60
        E 0 90 4a 60
        E 0 90 54 60
        E 0 90 56 60
        E 0 90 60 60
        E 0 90 62 60
        E 60 80 18 00
        E 0 80 1f 00
        E 0 80 3e 00
        E 0 80 48 00
        E 0 80 4a 00
        E 0 80 54 00
        E 0 80 56 00
        E 0 80 60 00
        E 0 80 62 00
        E 180 90 1f 60
        E 0 90 56 60
        E 0 90 62 60
        E 60 80 1f 00
        E 0 80 56 00
        E 0 80 62 00
        E 180 90 1a 60
        E 0 90 1f 60
        E 0 90 3d 60
        E 0 90 3e 60
        E 0 90 49 60
        E 0 90 4a 60
        E 0 90 55 60
        E 0 90 56 60
        E 0 90 61 60
        E 0 90 62 60
        E 60 80 1a 00
        E 0 80 1f 00
        E 0 80 3d 00
        E 0 80 3e 00
        E 0 80 49 00
        E 0 80 4a 00
        E 0 80 55 00
        E 0 80 56 00
        E 0 80 61 00
        E 0 80 62 00
        E 180 90 18 60
        E 0 90 1f 60
        E 0 90 54 60
        E 0 90 56 60
        E 0 90 60 60
        E 0 90 62 60
        E 60 80 18 00
        E 0 80 1f 00
        E 0 80 54 00
        E 0 80 56 00
        E 0 80 60 00
        E 0 80 62 00
        E 180 90 18 60
        E 0 90 1f 60
        E 0 90 3e 60
        E 0 90 48 60
        E 0 90 4a 60
        E 0 90 54 60
        E 0 90 56 60
        E 0 90 60 60
        E 0 90 62 60
        E 60 80 18 00
        E 0 80 48 00
        E 0 80 54 00
        E 0 80 60 00
        E 1 80 1f 00
        E 0 80 3e 00
        E 0 80 4a 00
        E 0 80 56 00
        E 0 80 62 00
        E 179 90 1f 60
        E 0 90 56 60
        E 0 90 62 60
        E 60 80 1f 00
        E 0 80 56 00
        E 0 80 62 00
        E 180 90 1a 60
        E 0 90 1f 60
        E 0 90 3d 60
        E 0 90 3e 60
        E 0 90 49 60
        E 0 90 4a 60
        E 0 90 55 60
        E 0 90 56 60
        E 0 90 61 60
        E 0 90 62 60
        E 60 80 1a 00
        E 0 80 1f 00
        E 0 80 3d 00
        E 0 80 3e 00
        E 0 80 49 00
        E 0 80 4a 00
        E 0 80 55 00
        E 0 80 56 00
        E 0 80 61 00
        E 0 80 62 00
        E 180 90 18 60
        E 0 90 1f 60
        E 0 90 54 60
        E 0 90 56 60
        E 0 90 60 60
        E 0 90 62 60
        E 60 80 18 00
        E 0 80 1f 00
        E 0 80 54 00
        E 0 80 56 00
        E 0 80 60 00
        E 0 80 62 00
        E 180 90 18 60
        E 0 90 1f 60
        E 0 90 3e 60
        E 0 90 48 60
        E 0 90 4a 60
        E 0 90 54 60
        E 0 90 56 60
        E 0 90 60 60
        E 0 90 62 60
        E 60 80 18 00
        E 0 80 1f 00
        E 0 80 3e 00
        E 0 80 48 00
        E 0 80 4a 00
        E 0 80 54 00
        E 0 80 56 00
        E 0 80 60 00
        E 0 80 62 00
        E 180 90 1f 60
        E 0 90 56 60
        E 0 90 62 60
        E 60 80 1f 00
        E 0 80 56 00
        E 0 80 62 00
        E 180 90 1a 60
        E 0 90 1f 60
        E 0 90 3d 60
        E 0 90 3e 60
        E 0 90 49 60
        E 0 90 4a 60
        E 0 90 55 60
        E 0 90 56 60
        E 0 90 61 60
        E 0 90 62 60
        E 60 80 1a 00
        E 0 80 1f 00
        E 0 80 3d 00
        E 0 80 3e 00
        E 0 80 49 00
        E 0 80 4a 00
        E 0 80 55 00
        E 0 80 56 00
        E 0 80 61 00
        E 0 80 62 00
        E 180 90 18 60
        E 0 90 1f 60
        E 0 90 54 60
        E 0 90 56 60
        E 0 90 60 60
        E 0 90 62 60
        E 60 80 18 00
        E 0 80 1f 00
        E 0 80 54 00
        E 0 80 56 00
        E 0 80 60 00
        E 0 80 62 00
        E 180 90 18 60
        E 0 90 1f 60
        E 0 90 3e 60
        E 0 90 48 60
        E 0 90 4a 60
        E 0 90 54 60
        E 0 90 56 60
        E 0 90 60 60
        E 0 90 62 60
        E 60 80 18 00
        E 0 80 48 00
        E 0 80 54 00
        E 0 80 60 00
        E 1 80 1f 00
        E 0 80 3e 00
        E 0 80 4a 00
        E 0 80 56 00
        E 0 80 62 00
        E 179 90 1f 60
        E 0 90 56 60
        E 0 90 62 60
        E 60 80 1f 00
        E 0 80 56 00
        E 0 80 62 00
        E 180 90 1a 60
        E 0 90 1f 60
        E 0 90 3d 60
        E 0 90 3e 60
        E 0 90 49 60
        E 0 90 4a 60
        E 0 90 55 60
        E 0 90 56 60
        E 0 90 61 60
        E 0 90 62 60
        E 60 80 1a 00
        E 0 80 1f 00
        E 0 80 3d 00
        E 0 80 3e 00
        E 0 80 49 00
        E 0 80 4a 00
        E 0 80 55 00
        E 0 80 56 00
        E 0 80 61 00
        E 0 80 62 00
        E 180 90 18 60
        E 0 90 1f 60
        E 0 90 54 60
        E 0 90 56 60
        E 0 90 60 60
        E 0 90 62 60
        E 60 80 18 00
        E 0 80 1f 00
        E 0 80 54 00
        E 0 80 56 00
        E 0 80 60 00
        E 0 80 62 00
        E 180 90 18 60
        E 0 90 1f 60
        E 0 90 3e 60
        E 0 90 48 60
        E 0 90 4a 60
        E 0 90 54 60
        E 0 90 56 60
        E 0 90 60 60
        E 0 90 62 60
        E 60 80 18 00
        E 0 80 1f 00
        E 0 80 3e 00
        E 0 80 48 00
        E 0 80 4a 00
        E 0 80 54 00
        E 0 80 56 00
        E 0 80 60 00
        E 0 80 62 00
        E 180 90 1f 60
        E 0 90 56 60
        E 0 90 62 60
        E 60 80 1f 00
        E 0 80 56 00
        E 0 80 62 00
        E 180 90 1a 60
        E 0 90 1f 60
        E 0 90 3d 60
        E 0 90 3e 60
        E 0 90 49 60
        E 0 90 4a 60
        E 0 90 55 60
        E 0 90 56 60
        E 0 90 61 60
        E 0 90 62 60
        E 60 80 1a 00
        E 0 80 1f 00
        E 0 80 3d 00
        E 0 80 3e 00
        E 0 80 49 00
        E 0 80 4a 00
        E 0 80 55 00
        E 0 80 56 00
        E 0 80 61 00
        E 0 80 62 00
        E 180 90 18 60
        E 0 90 1f 60
        E 0 90 54 60
        E 0 90 56 60
        E 0 90 60 60
        E 0 90 62 60
        E 60 80 18 00
        E 0 80 1f 00
        E 0 80 54 00
        E 0 80 56 00
        E 0 80 60 00
        E 0 80 62 00
        E 180 90 18 60
        E 0 90 1f 60
        E 0 90 3e 60
        E 0 90 48 60
        E 0 90 4a 60
        E 0 90 54 60
        E 0 90 56 60
        E 0 90 60 60
        E 0 90 62 60
        E 60 80 18 00
        E 0 80 48 00
        E 0 80 54 00
        E 0 80 60 00
        E 1 80 1f 00
        E 0 80 3e 00
        E 0 80 4a 00
        E 0 80 56 00
        E 0 80 62 00
        E 179 90 1f 60
        E 0 90 56 60
        E 0 90 62 60
        E 60 80 1f 00
        E 0 80 56 00
        E 0 80 62 00
        E 180 90 1a 60
        E 0 90 1f 60
        E 0 90 3d 60
        E 0 90 3e 60
        E 0 90 49 60
        E 0 90 4a 60
        E 0 90 55 60
        E 0 90 56 60
        E 0 90 61 60
        E 0 90 62 60
        E 60 80 1a 00
        E 0 80 1f 00
        E 0 80 3d 00
        E 0 80 3e 00
        E 0 80 49 00
        E 0 80 4a 00
        E 0 80 55 00
        E 0 80 56 00
        E 0 80 61 00
        E 0 80 62 00
        E 180 90 18 60
        E 0 90 1f 60
        E 0 90 54 60
        E 0 90 56 60
        E 0 90 60 60
        E 0 90 62 60
        E 60 80 18 00
        E 0 80 1f 00
        E 0 80 54 00
        E 0 80 56 00
        E 0 80 60 00
        E 0 80 62 00
        E 180 90 18 60
        E 0 90 1f 60
        E 0 90 3e 60
        E 0 90 48 60
        E 0 90 4a 60
        E 0 90 54 60
        E 0 90 56 60
        E 0 90 60 60
        E 0 90 62 60
        E 60 80 18 00
        E 0 80 1f 00
        E 0 80 3e 00
        E 0 80 48 00
        E 0 80 4a 00
        E 0 80 54 00
        E 0 80 56 00
        E 0 80 60 00
        E 0 80 62 00
        E 180 90 1f 60
        E 0 90 56 60
        E 0 90 62 60
        E 60 80 1f 00
        E 0 80 56 00
        E 0 80 62 00
        E 180 90 1a 60
        E 0 90 1f 60
        E 0 90 3d 60
        E 0 90 3e 60
        E 0 90 49 60
        E 0 90 4a 60
        E 0 90 55 60
        E 0 90 56 60
        E 0 90 61 60
        E 0 90 62 60
        E 60 80 1a 00
        E 0 80 1f 00
        E 0 80 3d 00
        E 0 80 3e 00
        E 0 80 49 00
        E 0 80 4a 00
        E 0 80 55 00
        E 0 80 56 00
        E 0 80 61 00
        E 0 80 62 00
        E 180 90 18 60
        E 0 90 1f 60
        E 0 90 54 60
        E 0 90 56 60
        E 0 90 60 60
        E 0 90 62 60
        E 60 80 18 00
        E 0 80 1f 00
        E 0 80 54 00
        E 0 80 56 00
        E 0 80 60 00
        E 0 80 62 00
        E 180 90 18 60
        E 0 90 1f 60
        E 0 90 3e 60
        E 0 90 48 60
        E 0 90 4a 60
        E 0 90 54 60
        E 0 90 56 60
        E 0 90 60 60
        E 0 90 62 60
        E 60 80 18 00
        E 0 80 48 00
        E 0 80 54 00
        E 0 80 60 00
        E 1 80 1f 00
        E 0 80 3e 00
        E 0 80 4a 00
        E 0 80 56 00
        E 0 80 62 00
        E 179 90 1f 60
        E 0 90 56 60
        E 0 90 62 60
        E 60 80 1f 00
        E 0 80 56 00
        E 0 80 62 00
        E 180 90 1a 60
        E 0 90 1f 60
        E 0 90 3d 60
        E 0 90 3e 60
        E 0 90 49 60
        E 0 90 4a 60
        E 0 90 55 60
        E 0 90 56 60
        E 0 90 61 60
        E 0 90 62 60
        E 0 90 74 60
        E 60 80 1a 00
        E 0 80 1f 00
        E 0 80 3d 00
        E 0 80 3e 00
        E 0 80 49 00
        E 0 80 4a 00
        E 0 80 55 00
        E 0 80 56 00
        E 0 80 61 00
        E 0 80 62 00
        E 180 90 18 60
        E 0 90 1f 60
        E 0 90 54 60
        E 0 90 56 60
        E 0 90 60 60
        E 0 90 62 60
        E 60 80 18 00
        E 0 80 1f 00
        E 0 80 54 00
        E 0 80 56 00
        E 0 80 60 00
        E 0 80 62 00
        E 180 90 18 60
        E 0 90 1f 60
        E 0 90 3e 60
        E 0 90 48 60
        E 0 90 4a 60
        E 0 90 54 60
        E 0 90 56 60
        E 0 90 60 60
        E 0 90 62 60
        E 60 80 18 00
        E 0 80 1f 00
        E 0 80 3e 00
        E 0 80 48 00
        E 0 80 4a 00
        E 0 80 54 00
        E 0 80 56 00
        E 0 80 60 00
        E 0 80 62 00
        E 180 90 18 60
        E 0 90 1f 60
        E 0 90 54 60
        E 0 90 56 60
        E 0 90 60 60
        E 0 90 62 60
        E 60 80 18 00
        E 0 80 1f 00
        E 0 80 54 00
        E 0 80 56 00
        E 0 80 60 00
        E 0 80 62 00
        E 180 90 1a 60
        E 0 90 26 60
        E 0 90 3d 60
        E 0 90 40 60
        E 0 90 49 60
        E 0 90 4c 60
        E 0 90 55 60
        E 0 90 58 60
        E 0 90 61 60
        E 0 90 64 60
        E 60 80 74 00
        E 0 80 1a 00
        E 0 80 26 00
        E 0 80 3d 00
        E 0 80 40 00
        E 0 80 49 00
        E 0 80 4c 00
        E 0 80 55 00
        E 0 80 58 00
        E 0 80 61 00
        E 0 80 64 00
        E 300 90 1a 60
        E 0 90 61 60
        E 0 90 78 60
        E 0 90 79 60
        E 0 90 7a 60
        E 0 90 7b 60
        E 0 90 7c 60
        E 60 80 1a 00
        E 0 80 61 00
        E 60 90 18 60
        E 0 90 1b 60
        E 0 90 3d 60
        E 0 90 49 60
        E 0 90 54 60
        E 0 90 55 60
        E 0 90 60 60
        E 0 90 61 60
        E 60 80 18 00
        E 0 80 1b 00
        E 0 80 3d 00
        E 0 80 49 00
        E 0 80 54 00
        E 0 80 55 00
        E 0 80 60 00
        E 0 80 61 00
        E 180 90 18 60
        E 0 90 1a 60
        E 0 90 54 60
        E 0 90 55 60
        E 0 90 60 60
        E 0 90 61 60
        E 60 80 18 00
        E 0 80 1a 00
        E 0 80 54 00
        E 0 80 55 00
        E 0 80 60 00
        E 0 80 61 00
        E 180 90 18 60
        E 0 90 3c 60
        E 0 90 48 60
        E 0 90 54 60
        E 0 90 60 60
        E 60 80 18 00
        E 0 80 3c 00
        E 0 80 48 00
        E 0 80 54 00
        E 0 80 60 00
        E 180 90 18 60
        E 0 90 54 60
        E 0 90 60 60
        E 60 80 18 00
        E 0 80 54 00
        E 0 80 60 00
        E 180 80 78 00
        E 0 80 79 00
        E 0 80 7a 00
        E 0 80 7b 00
        E 0 80 7c 00
        E 0 90 18 60
        E 0 90 26 60
        E 0 90 40 60
        E 0 90 48 60
        E 0 90 4c 60
        E 0 90 54 60
        E 0 90 58 60
        E 0 90 60 60
        E 0 90 64 60
        E 60 80 18 00
        E 0 80 26 00
        E 0 80 40 00
        E 0 80 48 00
        E 0 80 4c 00
        E 0 80 54 00
        E 0 80 58 00
        E 0 80 60 00
        E 0 80 64 00
        E 180 90 1f 60
        E 0 90 56 60
        E 0 90 62 60
        E 60 80 1f 00
        E 0 80 56 00
        E 0 80 62 00
        E 180 90 1a 60
        E 0 90 1f 60
        E 0 90 3d 60
        E 0 90 3e 60
        E 0 90 49 60
        E 0 90 4a 60
        E 0 90 55 60
        E 0 90 56 60
        E 0 90 61 60
        E 0 90 62 60
        E 60 80 1a 00
        E 0 80 1f 00
        E 0 80 3d 00
        E 0 80 3e 00
        E 0 80 49 00
        E 0 80 4a 00
        E 0 80 55 00
        E 0 80 56 00
        E 0 80 61 00
        E 0 80 62 00
        E 180 90 18 60
        E 0 90 1f 60
        E 0 90 54 60
        E 0 90 56 60
        E 0 90 60 60
        E 0 90 62 60
        E 60 80 18 00
        E 0 80 1f 00
        E 0 80 54 00
        E 0 80 56 00
        E 0 80 60 00
        E 0 80 62 00
        E 180 90 18 60
        E 0 90 1f 60
        E 0 90 3e 60
        E 0 90 48 60
        E 0 90 4a 60
        E 0 90 54 60
        E 0 90 56 60
        E 0 90 60 60
        E 0 90 62 60
        E 60 80 18 00
        E 0 80 48 00
        E 0 80 54 00
        E 0 80 60 00
        E 1 80 1f 00
        E 0 80 3e 00
        E 0 80 4a 00
        E 0 80 56 00
        E 0 80 62 00
        E 179 90 1f 60
        E 0 90 56 60
        E 0 90 62 60
        E 60 80 1f 00
        E 0 80 56 00
        E 0 80 62 00
        E 180 90 1a 60
        E 0 90 1f 60
        E 0 90 3d 60
        E 0 90 3e 60
        E 0 90 49 60
        E 0 90 4a 60
        E 0 90 55 60
        E 0 90 56 60
        E 0 90 61 60
        E 0 90 62 60
        E 60 80 1a 00
        E 0 80 1f 00
        E 0 80 3d 00
        E 0 80 3e 00
        E 0 80 49 00
        E 0 80 4a 00
        E 0 80 55 00
        E 0 80 56 00
        E 0 80 61 00
        E 0 80 62 00
        E 180 90 18 60
        E 0 90 1f 60
        E 0 90 54 60
        E 0 90 56 60
        E 0 90 60 60
        E 0 90 62 60
        E 60 80 18 00
        E 0 80 1f 00
        E 0 80 54 00
        E 0 80 56 00
        E 0 80 60 00
        E 0 80 62 00
        E 180 90 18 60
        E 0 90 1f 60
        E 0 90 3e 60
        E 0 90 48 60
        E 0 90 4a 60
        E 0 90 54 60
        E 0 90 56 60
        E 0 90 60 60
        E 0 90 62 60
        E 60 80 18 00
        E 0 80 1f 00
        E 0 80 3e 00
        E 0 80 48 00
        E 0 80 4a 00
        E 0 80 54 00
        E 0 80 56 00
        E 0 80 60 00
        E 0 80 62 00
        E 180 90 1f 60
        E 0 90 56 60
        E 0 90 62 60
        E 60 80 1f 00
        E 0 80 56 00
        E 0 80 62 00
        E 180 90 1a 60
        E 0 90 1f 60
        E 0 90 3d 60
        E 0 90 3e 60
        E 0 90 49 60
        E 0 90 4a 60
        E 0 90 55 60
        E 0 90 56 60
        E 0 90 61 60
        E 0 90 62 60
        E 60 80 1a 00
        E 0 80 1f 00
        E 0 80 3d 00
        E 0 80 3e 00
        E 0 80 49 00
        E 0 80 4a 00
        E 0 80 55 00
        E 0 80 56 00
        E 0 80 61 00
        E 0 80 62 00
        E 180 90 18 60
        E 0 90 1f 60
        E 0 90 54 60
        E 0 90 56 60
        E 0 90 60 60
        E 0 90 62 60
        E 60 80 18 00
        E 0 80 1f 00
        E 0 80 54 00
        E 0 80 56 00
        E 0 80 60 00
        E 0 80 62 00
        E 180 90 18 60
        E 0 90 1f 60
        E 0 90 3e 60
        E 0 90 48 60
        E 0 90 4a 60
        E 0 90 54 60
        E 0 90 56 60
        E 0 90 60 60
        E 0 90 62 60
        E 60 80 18 00
        E 0 80 48 00
        E 0 80 54 00
        E 0 80 60 00
        E 1 80 1f 00
        E 0 80 3e 00
        E 0 80 4a 00
        E 0 80 56 00
        E 0 80 62 00
        E 179 90 1f 60
        E 0 90 56 60
        E 0 90 62 60
        E 60 80 1f 00
        E 0 80 56 00
        E 0 80 62 00
        E 180 90 1a 60
        E 0 90 1f 60
        E 0 90 3d 60
        E 0 90 3e 60
        E 0 90 49 60
        E 0 90 4a 60
        E 0 90 55 60
        E 0 90 56 60
        E 0 90 61 60
        E 0 90 62 60
        E 60 80 1a 00
        E 0 80 1f 00
        E 0 80 3d 00
        E 0 80 3e 00
        E 0 80 49 00
        E 0 80 4a 00
        E 0 80 55 00
        E 0 80 56 00
        E 0 80 61 00
        E 0 80 62 00
        E 180 90 18 60
        E 0 90 1f 60
        E 0 90 54 60
        E 0 90 56 60
        E 0 90 60 60
        E 0 90 62 60
        E 60 80 18 00
        E 0 80 1f 00
        E 0 80 54 00
        E 0 80 56 00
        E 0 80 60 00
        E 0 80 62 00
        E 180 90 18 60
        E 0 90 1f 60
        E 0 90 3e 60
        E 0 90 48 60
        E 0 90 4a 60
        E 0 90 54 60
        E 0 90 56 60
        E 0 90 60 60
        E 0 90 62 60
        E 60 80 18 00
        E 0 80 1f 00
        E 0 80 3e 00
        E 0 80 48 00
        E 0 80 4a 00
        E 0 80 54 00
        E 0 80 56 00
        E 0 80 60 00
        E 0 80 62 00
        E 180 90 1f 60
        E 0 90 56 60
        E 0 90 62 60
        E 60 80 1f 00
        E 0 80 56 00
        E 0 80 62 00
        E 180 90 1a 60
        E 0 90 1f 60
        E 0 90 3d 60
        E 0 90 3e 60
        E 0 90 49 60
        E 0 90 4a 60
        E 0 90 55 60
        E 0 90 56 60
        E 0 90 61 60
        E 0 90 62 60
        E 60 80 1a 00
        E 0 80 1f 00
        E 0 80 3d 00
        E 0 80 3e 00
        E 0 80 49 00
        E 0 80 4a 00
        E 0 80 55 00
        E 0 80 56 00
        E 0 80 61 00
        E 0 80 62 00
        E 180 90 18 60
        E 0 90 1f 60
        E 0 90 54 60
        E 0 90 56 60
        E 0 90 60 60
        E 0 90 62 60
        E 60 80 18 00
        E 0 80 1f 00
        E 0 80 54 00
        E 0 80 56 00
        E 0 80 60 00
        E 0 80 62 00
        E 180 90 18 60
        E 0 90 1f 60
        E 0 90 3e 60
        E 0 90 48 60
        E 0 90 4a 60
        E 0 90 54 60
        E 0 90 56 60
        E 0 90 60 60
        E 0 90 62 60
        E 60 80 18 00
        E 0 80 48 00
        E 0 80 54 00
        E 0 80 60 00
        E 1 80 1f 00
        E 0 80 3e 00
        E 0 80 4a 00
        E 0 80 56 00
        E 0 80 62 00
        E 179 90 1f 60
        E 0 90 56 60
        E 0 90 62 60
        E 60 80 1f 00
        E 0 80 56 00
        E 0 80 62 00
        E 180 90 1a 60
        E 0 90 1f 60
        E 0 90 3d 60
        E 0 90 3e 60
        E 0 90 49 60
        E 0 90 4a 60
        E 0 90 55 60
        E 0 90 56 60
        E 0 90 61 60
        E 0 90 62 60
        E 60 80 1a 00
        E 0 80 1f 00
        E 0 80 3d 00
        E 0 80 3e 00
        E 0 80 49 00
        E 0 80 4a 00
        E 0 80 55 00
        E 0 80 56 00
        E 0 80 61 00
        E 0 80 62 00
        E 180 90 18 60
        E 0 90 1f 60
        E 0 90 54 60
        E 0 90 56 60
        E 0 90 60 60
        E 0 90 62 60
        E 60 80 18 00
        E 0 80 1f 00
        E 0 80 54 00
        E 0 80 56 00
        E 0 80 60 00
        E 0 80 62 00
        E 180 90 18 60
        E 0 90 1f 60
        E 0 90 3e 60
        E 0 90 48 60
        E 0 90 4a 60
        E 0 90 54 60
        E 0 90 56 60
        E 0 90 60 60
        E 0 90 62 60
        E 60 80 18 00
        E 0 80 1f 00
        E 0 80 3e 00
        E 0 80 48 00
        E 0 80 4a 00
        E 0 80 54 00
        E 0 80 56 00
        E 0 80 60 00
        E 0 80 62 00
        E 180 90 1f 60
        E 0 90 56 60
        E 0 90 62 60
        E 60 80 1f 00
        E 0 80 56 00
        E 0 80 62 00
        E 180 90 1a 60
        E 0 90 1f 60
        E 0 90 3d 60
        E 0 90 3e 60
        E 0 90 49 60
        E 0 90 4a 60
        E 0 90 55 60
        E 0 90 56 60
        E 0 90 61 60
        E 0 90 62 60
        E 60 80 1a 00
        E 0 80 1f 00
        E 0 80 3d 00
        E 0 80 3e 00
        E 0 80 49 00
        E 0 80 4a 00
        E 0 80 55 00
        E 0 80 56 00
        E 0 80 61 00
        E 0 80 62 00
        E 180 90 18 60
        E 0 90 1f 60
        E 0 90 54 60
        E 0 90 56 60
        E 0 90 60 60
        E 0 90 62 60
        E 60 80 18 00
        E 0 80 1f 00
        E 0 80 54 00
        E 0 80 56 00
        E 0 80 60 00
        E 0 80 62 00
        E 180 90 18 60
        E 0 90 1f 60
        E 0 90 3e 60
        E 0 90 48 60
        E 0 90 4a 60
        E 0 90 54 60
        E 0 90 56 60
        E 0 90 60 60
        E 0 90 62 60
        E 60 80 18 00
        E 0 80 48 00
        E 0 80 54 00
        E 0 80 60 00
        E 1 80 1f 00
        E 0 80 3e 00
        E 0 80 4a 00
        E 0 80 56 00
        E 0 80 62 00
        E 179 90 1f 60
        E 0 90 56 60
        E 0 90 62 60
        E 60 80 1f 00
        E 0 80 56 00
        E 0 80 62 00
        E 180 90 1a 60
        E 0 90 1f 60
        E 0 90 3d 60
        E 0 90 3e 60
        E 0 90 49 60
        E 0 90 4a 60
        E 0 90 55 60
        E 0 90 56 60
        E 0 90 61 60
        E 0 90 62 60
        E 60 80 1a 00
        E 0 80 1f 00
        E 0 80 3d 00
        E 0 80 3e 00
        E 0 80 49 00
        E 0 80 4a 00
        E 0 80 55 00
        E 0 80 56 00
        E 0 80 61 00
        E 0 80 62 00
        E 180 90 18 60
        E 0 90 1f 60
        E 0 90 54 60
        E 0 90 56 60
        E 0 90 60 60
        E 0 90 62 60
        E 60 80 18 00
        E 0 80 1f 00
        E 0 80 54 00
        E 0 80 56 00
        E 0 80 60 00
        E 0 80 62 00
        E 180 90 18 60
        E 0 90 26 60
        E 0 90 40 60
        E 0 90 48 60
        E 0 90 4c 60
        E 0 90 54 60
        E 0 90 58 60
        E 0 90 60 60
        E 0 90 64 60
        E 60 80 18 00
        E 0 80 26 00
        E 0 80 40 00
        E 0 80 48 00
        E 0 80 4c 00
        E 0 80 54 00
        E 0 80 58 00
        E 0 80 60 00
        E 0 80 64 00
        E 180 90 1f 60
        E 0 90 56 60
        E 0 90 62 60
        E 60 80 1f 00
        E 0 80 56 00
        E 0 80 62 00
        E 180 90 1a 60
        E 0 90 1f 60
        E 0 90 3d 60
        E 0 90 3e 60
        E 0 90 49 60
        E 0 90 4a 60
        E 0 90 55 60
        E 0 90 56 60
        E 0 90 61 60
        E 0 90 62 60
        E 60 80 1a 00
        E 0 80 1f 00
        E 0 80 3d 00
        E 0 80 3e 00
        E 0 80 49 00
        E 0 80 4a 00
        E 0 80 55 00
        E 0 80 56 00
        E 0 80 61 00
        E 0 80 62 00
        E 180 90 18 60
        E 0 90 1f 60
        E 0 90 54 60
        E 0 90 56 60
        E 0 90 60 60
        E 0 90 62 60
        E 60 80 18 00
        E 0 80 1f 00
        E 0 80 54 00
        E 0 80 56 00
        E 0 80 60 00
        E 0 80 62 00
        E 180 90 18 60
        E 0 90 1f 60
        E 0 90 3e 60
        E 0 90 48 60
        E 0 90 4a 60
        E 0 90 54 60
        E 0 90 56 60
        E 0 90 60 60
        E 0 90 62 60
        E 60 80 18 00
        E 0 80 48 00
        E 0 80 54 00
        E 0 80 60 00
        E 1 80 1f 00
        E 0 80 3e 00
        E 0 80 4a 00
        E 0 80 56 00
        E 0 80 62 00
        E 179 90 1f 60
        E 0 90 56 60
        E 0 90 62 60
        E 60 80 1f 00
        E 0 80 56 00
        E 0 80 62 00
        E 180 90 1a 60
        E 0 90 1f 60
        E 0 90 3d 60
        E 0 90 3e 60
        E 0 90 49 60
        E 0 90 4a 60
        E 0 90 55 60
        E 0 90 56 60
        E 0 90 61 60
        E 0 90 62 60
        E 60 80 1a 00
        E 0 80 1f 00
        E 0 80 3d 00
        E 0 80 3e 00
        E 0 80 49 00
        E 0 80 4a 00
        E 0 80 55 00
        E 0 80 56 00
        E 0 80 61 00
        E 0 80 62 00
        E 180 90 18 60
        E 0 90 1f 60
        E 0 90 54 60
        E 0 90 56 60
        E 0 90 60 60
        E 0 90 62 60
        E 60 80 18 00
        E 0 80 1f 00
        E 0 80 54 00
        E 0 80 56 00
        E 0 80 60 00
        E 0 80 62 00
        E 180 90 18 60
        E 0 90 1f 60
        E 0 90 3e 60
        E 0 90 48 60
        E 0 90 4a 60
        E 0 90 54 60
        E 0 90 56 60
        E 0 90 60 60
        E 0 90 62 60
        E 60 80 18 00
        E 0 80 1f 00
        E 0 80 3e 00
        E 0 80 48 00
        E 0 80 4a 00
        E 0 80 54 00
        E 0 80 56 00
        E 0 80 60 00
        E 0 80 62 00
        E 180 90 1f 60
        E 0 90 56 60
        E 0 90 62 60
        E 60 80 1f 00
        E 0 80 56 00
        E 0 80 62 00
        E 180 90 1a 60
        E 0 90 1f 60
        E 0 90 3d 60
        E 0 90 3e 60
        E 0 90 49 60
        E 0 90 4a 60
        E 0 90 55 60
        E 0 90 56 60
        E 0 90 61 60
        E 0 90 62 60
        E 60 80 1a 00
        E 0 80 1f 00
        E 0 80 3d 00
        E 0 80 3e 00
        E 0 80 49 00
        E 0 80 4a 00
        E 0 80 55 00
        E 0 80 56 00
        E 0 80 61 00
        E 0 80 62 00
        E 180 90 18 60
        E 0 90 1f 60
        E 0 90 54 60
        E 0 90 56 60
        E 0 90 60 60
        E 0 90 62 60
        E 60 80 18 00
        E 0 80 1f 00
        E 0 80 54 00
        E 0 80 56 00
        E 0 80 60 00
        E 0 80 62 00
        E 180 90 18 60
        E 0 90 1f 60
        E 0 90 3e 60
        E 0 90 48 60
        E 0 90 4a 60
        E 0 90 54 60
        E 0 90 56 60
        E 0 90 60 60
        E 0 90 62 60
        E 60 80 18 00
        E 0 80 48 00
        E 0 80 54 00
        E 0 80 60 00
        E 1 80 1f 00
        E 0 80 3e 00
        E 0 80 4a 00
        E 0 80 56 00
        E 0 80 62 00
        E 179 90 1f 60
        E 0 90 56 60
        E 0 90 62 60
        E 60 80 1f 00
        E 0 80 56 00
        E 0 80 62 00
        E 180 90 1a 60
        E 0 90 1f 60
        E 0 90 3d 60
        E 0 90 3e 60
        E 0 90 49 60
        E 0 90 4a 60
        E 0 90 55 60
        E 0 90 56 60
        E 0 90 61 60
        E 0 90 62 60
        E 60 80 1a 00
        E 0 80 1f 00
        E 0 80 3d 00
        E 0 80 3e 00
        E 0 80 49 00
        E 0 80 4a 00
        E 0 80 55 00
        E 0 80 56 00
        E 0 80 61 00
        E 0 80 62 00
        E 180 90 18 60
        E 0 90 1f 60
        E 0 90 54 60
        E 0 90 56 60
        E 0 90 60 60
        E 0 90 62 60
        E 60 80 18 00
        E 0 80 1f 00
        E 0 80 54 00
        E 0 80 56 00
        E 0 80 60 00
        E 0 80 62 00
        E 180 90 18 60
        E 0 90 1f 60
        E 0 90 3e 60
        E 0 90 48 60
        E 0 90 4a 60
        E 0 90 54 60
        E 0 90 56 60
        E 0 90 60 60
        E 0 90 62 60
        E 60 80 18 00
        E 0 80 1f 00
        E 0 80 3e 00
        E 0 80 48 00
        E 0 80 4a 00
        E 0 80 54 00
        E 0 80 56 00
        E 0 80 60 00
        E 0 80 62 00
        E 180 90 1f 60
        E 0 90 56 60
        E 0 90 62 60
        E 60 80 1f 00
        E 0 80 56 00
        E 0 80 62 00
        E 180 90 1a 60
        E 0 90 1f 60
        E 0 90 3d 60
        E 0 90 3e 60
        E 0 90 49 60
        E 0 90 4a 60
        E 0 90 55 60
        E 0 90 56 60
        E 0 90 61 60
        E 0 90 62 60
        E 60 80 1a 00
        E 0 80 1f 00
        E 0 80 3d 00
        E 0 80 3e 00
        E 0 80 49 00
        E 0 80 4a 00
        E 0 80 55 00
        E 0 80 56 00
        E 0 80 61 00
        E 0 80 62 00
        E 180 90 18 60
        E 0 90 1f 60
        E 0 90 54 60
        E 0 90 56 60
        E 0 90 60 60
        E 0 90 62 60
        E 60 80 18 00
        E 0 80 1f 00
        E 0 80 54 00
        E 0 80 56 00
        E 0 80 60 00
        E 0 80 62 00
        E 180 90 18 60
        E 0 90 1f 60
        E 0 90 3e 60
        E 0 90 48 60
        E 0 90 4a 60
        E 0 90 54 60
        E 0 90 56 60
        E 0 90 60 60
        E 0 90 62 60
        E 60 80 18 00
        E 0 80 48 00
        E 0 80 54 00
        E 0 80 60 00
        E 1 80 1f 00
        E 0 80 3e 00
        E 0 80 4a 00
        E 0 80 56 00
        E 0 80 62 00
        E 179 90 1f 60
        E 0 90 56 60
        E 0 90 62 60
        E 60 80 1f 00
        E 0 80 56 00
        E 0 80 62 00
        E 180 90 1a 60
        E 0 90 1f 60
        E 0 90 3d 60
        E 0 90 3e 60
        E 0 90 49 60
        E 0 90 4a 60
        E 0 90 55 60
        E 0 90 56 60
        E 0 90 61 60
        E 0 90 62 60
        E 60 80 1a 00
        E 0 80 1f 00
        E 0 80 3d 00
        E 0 80 3e 00
        E 0 80 49 00
        E 0 80 4a 00
        E 0 80 55 00
        E 0 80 56 00
        E 0 80 61 00
        E 0 80 62 00
        E 180 90 18 60
        E 0 90 1f 60
        E 0 90 54 60
        E 0 90 56 60
        E 0 90 60 60
        E 0 90 62 60
        E 60 80 18 00
        E 0 80 1f 00
        E 0 80 54 00
        E 0 80 56 00
        E 0 80 60 00
        E 0 80 62 00
        E 180 90 18 60
        E 0 90 1f 60
        E 0 90 3e 60
        E 0 90 48 60
        E 0 90 4a 60
        E 0 90 54 60
        E 0 90 56 60
        E 0 90 60 60
        E 0 90 62 60
        E 60 80 18 00
        E 0 80 1f 00
        E 0 80 3e 00
        E 0 80 48 00
        E 0 80 4a 00
        E 0 80 54 00
        E 0 80 56 00
        E 0 80 60 00
        E 0 80 62 00
        E 180 90 1f 60
        E 0 90 56 60
        E 0 90 62 60
        E 60 80 1f 00
        E 0 80 56 00
        E 0 80 62 00
        E 180 90 1a 60
        E 0 90 1f 60
        E 0 90 3d 60
        E 0 90 3e 60
        E 0 90 49 60
        E 0 90 4a 60
        E 0 90 55 60
        E 0 90 56 60
        E 0 90 61 60
        E 0 90 62 60
        E 60 80 1a 00
        E 0 80 1f 00
        E 0 80 3d 00
        E 0 80 3e 00
        E 0 80 49 00
        E 0 80 4a 00
        E 0 80 55 00
        E 0 80 56 00
        E 0 80 61 00
        E 0 80 62 00
        E 180 90 18 60
        E 0 90 1f 60
        E 0 90 54 60
        E 0 90 56 60
        E 0 90 60 60
        E 0 90 62 60
        E 60 80 18 00
        E 0 80 1f 00
        E 0 80 54 00
        E 0 80 56 00
        E 0 80 60 00
        E 0 80 62 00
        E 180 90 18 60
        E 0 90 1f 60
        E 0 90 3e 60
        E 0 90 48 60
        E 0 90 4a 60
        E 0 90 54 60
        E 0 90 56 60
        E 0 90 60 60
        E 0 90 62 60
        E 60 80 18 00
        E 0 80 48 00
        E 0 80 54 00
        E 0 80 60 00
        E 1 80 1f 00
        E 0 80 3e 00
        E 0 80 4a 00
        E 0 80 56 00
        E 0 80 62 00
        E 179 90 1f 60
        E 0 90 56 60
        E 0 90 62 60
        E 60 80 1f 00
        E 0 80 56 00
        E 0 80 62 00
        E 180 90 1a 60
        E 0 90 1f 60
        E 0 90 3d 60
        E 0 90 3e 60
        E 0 90 49 60
        E 0 90 4a 60
        E 0 90 55 60
        E 0 90 56 60
        E 0 90 61 60
        E 0 90 62 60
        E 60 80 1a 00
        E 0 80 1f 00
        E 0 80 3d 00
        E 0 80 3e 00
        E 0 80 49 00
        E 0 80 4a 00
        E 0 80 55 00
        E 0 80 56 00
        E 0 80 61 00
        E 0 80 62 00
        E 180 90 18 60
        E 0 90 1f 60
        E 0 90 54 60
        E 0 90 56 60
        E 0 90 60 60
        E 0 90 62 60
        E 60 80 18 00
        E 0 80 1f 00
        E 0 80 54 00
        E 0 80 56 00
        E 0 80 60 00
        E 0 80 62 00
        E 180 90 18 60
        E 0 90 1f 60
        E 0 90 3e 60
        E 0 90 48 60
        E 0 90 4a 60
        E 0 90 54 60
        E 0 90 56 60
        E 0 90 60 60
        E 0 90 62 60
        E 60 80 18 00
        E 0 80 1f 00
        E 0 80 3e 00
        E 0 80 48 00
        E 0 80 4a 00
        E 0 80 54 00
        E 0 80 56 00
        E 0 80 60 00
        E 0 80 62 00
        E 180 90 1f 60
        E 0 90 56 60
        E 0 90 62 60
        E 60 80 1f 00
        E 0 80 56 00
        E 0 80 62 00
        E 180 90 1a 60
        E 0 90 1f 60
        E 0 90 3d 60
        E 0 90 3e 60
        E 0 90 49 60
        E 0 90 4a 60
        E 0 90 55 60
        E 0 90 56 60
        E 0 90 61 60
        E 0 90 62 60
        E 60 80 1a 00
        E 0 80 1f 00
        E 0 80 3d 00
        E 0 80 3e 00
        E 0 80 49 00
        E 0 80 4a 00
        E 0 80 55 00
        E 0 80 56 00
        E 0 80 61 00
        E 0 80 62 00
        E 180 90 18 60
        E 0 90 1f 60
        E 0 90 54 60
        E 0 90 56 60
        E 0 90 60 60
        E 0 90 62 60
        E 60 80 18 00
        E 0 80 1f 00
        E 0 80 54 00
        E 0 80 56 00
        E 0 80 60 00
        E 0 80 62 00
        E 180 90 18 60
        E 0 90 1f 60
        E 0 90 3e 60
        E 0 90 48 60
        E 0 90 4a 60
        E 0 90 54 60
        E 0 90 56 60
        E 0 90 60 60
        E 0 90 62 60
        E 60 80 18 00
        E 0 80 48 00
        E 0 80 54 00
        E 0 80 60 00
        E 1 80 1f 00
        E 0 80 3e 00
        E 0 80 4a 00
        E 0 80 56 00
        E 0 80 62 00
        E 179 90 1f 60
        E 0 90 56 60
        E 0 90 62 60
        E 60 80 1f 00
        E 0 80 56 00
        E 0 80 62 00
        E 180 90 1a 60
        E 0 90 1f 60
        E 0 90 3d 60
        E 0 90 3e 60
        E 0 90 49 60
        E 0 90 4a 60
        E 0 90 55 60
        E 0 90 56 60
        E 0 90 61 60
        E 0 90 62 60
        E 60 80 1a 00
        E 0 80 1f 00
        E 0 80 3d 00
        E 0 80 3e 00
        E 0 80 49 00
        E 0 80 4a 00
        E 0 80 55 00
        E 0 80 56 00
        E 0 80 61 00
        E 0 80 62 00
        E 180 90 18 60
        E 0 90 1f 60
        E 0 90 54 60
        E 0 90 56 60
        E 0 90 60 60
        E 0 90 62 60
        E 60 80 18 00
        E 0 80 1f 00
        E 0 80 54 00
        E 0 80 56 00
        E 0 80 60 00
        E 0 80 62 00
        E 180 90 18 60
        E 0 90 1f 60
        E 0 90 3e 60
        E 0 90 48 60
        E 0 90 4a 60
        E 0 90 54 60
        E 0 90 56 60
        E 0 90 60 60
        E 0 90 62 60
        E 60 80 18 00
        E 0 80 1f 00
        E 0 80 3e 00
        E 0 80 48 00
        E 0 80 4a 00
        E 0 80 54 00
        E 0 80 56 00
        E 0 80 60 00
        E 0 80 62 00
        E 180 90 18 60
        E 0 90 1f 60
        E 0 90 54 60
        E 0 90 56 60
        E 0 90 60 60
        E 0 90 62 60
        E 60 80 18 00
        E 0 80 1f 00
        E 0 80 54 00
        E 0 80 56 00
        E 0 80 60 00
        E 0 80 62 00
        E 180 90 1a 60
        E 0 90 1f 60
        E 0 90 3d 60
        E 0 90 3e 60
        E 0 90 49 60
        E 0 90 4a 60
        E 0 90 55 60
        E 0 90 56 60
        E 0 90 61 60
        E 0 90 62 60
        E 60 80 1a 00
        E 0 80 1f 00
        E 0 80 3d 00
        E 0 80 3e 00
        E 0 80 49 00
        E 0 80 4a 00
        E 0 80 55 00
        E 0 80 56 00
        E 0 80 61 00
        E 0 80 62 00
        E 180 90 18 60
        E 0 90 1f 60
        E 0 90 54 60
        E 0 90 56 60
        E 0 90 60 60
        E 0 90 62 60
        E 21 90 74 67
        E 39 80 18 00
        E 0 80 1f 00
        E 0 80 54 00
        E 0 80 56 00
        E 0 80 60 00
        E 0 80 62 00
        E 180 90 18 60
        E 0 90 26 60
        E 0 90 40 60
        E 0 90 48 60
        E 0 90 4c 60
        E 0 90 54 60
        E 0 90 58 60
        E 0 90 60 60
        E 0 90 64 60
        E 60 80 18 00
        E 0 80 26 00
        E 0 80 40 00
        E 0 80 48 00
        E 0 80 4c 00
        E 0 80 54 00
        E 0 80 58 00
        E 0 80 60 00
        E 0 80 64 00
        E 180 90 1f 60
        E 0 90 56 60
        E 0 90 62 60
        E 60 80 1f 00
        E 0 80 56 00
        E 0 80 62 00
        E 180 90 1a 60
        E 0 90 1f 60
        E 0 90 3d 60
        E 0 90 3e 60
        E 0 90 49 60
        E 0 90 4a 60
        E 0 90 55 60
        E 0 90 56 60
        E 0 90 61 60
        E 0 90 62 60
        E 60 80 1a 00
        E 0 80 1f 00
        E 0 80 3d 00
        E 0 80 3e 00
        E 0 80 49 00
        E 0 80 4a 00
        E 0 80 55 00
        E 0 80 56 00
        E 0 80 61 00
        E 0 80 62 00
        E 180 90 18 60
        E 0 90 1f 60
        E 0 90 54 60
        E 0 90 56 60
        E 0 90 60 60
        E 0 90 62 60
        E 60 80 18 00
        E 0 80 1f 00
        E 0 80 54 00
        E 0 80 56 00
        E 0 80 60 00
        E 0 80 62 00
        E 180 90 18 60
        E 0 90 1f 60
        E 0 90 3e 60
        E 0 90 48 60
        E 0 90 4a 60
        E 0 90 54 60
        E 0 90 56 60
        E 0 90 60 60
        E 0 90 62 60
        E 60 80 18 00
        E 0 80 1f 00
        E 0 80 3e 00
        E 0 80 48 00
        E 0 80 4a 00
        E 0 80 54 00
        E 0 80 56 00
        E 0 80 60 00
        E 0 80 62 00
        E 180 90 1f 60
        E 0 90 56 60
        E 0 90 62 60
        E 60 80 1f 00
        E 0 80 56 00
        E 0 80 62 00
        E 180 90 1a 60
        E 0 90 1f 60
        E 0 90 3d 60
        E 0 90 3e 60
        E 0 90 49 60
        E 0 90 4a 60
        E 0 90 55 60
        E 0 90 56 60
        E 0 90 61 60
        E 0 90 62 60
        E 60 80 1a 00
        E 0 80 1f 00
        E 0 80 3d 00
        E 0 80 3e 00
        E 0 80 49 00
        E 0 80 4a 00
        E 0 80 55 00
        E 0 80 56 00
        E 0 80 61 00
        E 0 80 62 00
        E 180 90 18 60
        E 0 90 1f 60
        E 0 90 54 60
        E 0 90 56 60
        E 0 90 60 60
        E 0 90 62 60
        E 60 80 18 00
        E 0 80 1f 00
        E 0 80 54 00
        E 0 80 56 00
        E 0 80 60 00
        E 0 80 62 00
        E 180 90 18 60
        E 0 90 1f 60
        E 0 90 3e 60
        E 0 90 48 60
        E 0 90 4a 60
        E 0 90 54 60
        E 0 90 56 60
        E 0 90 60 60
        E 0 90 62 60
        E 60 80 18 00
        E 0 80 48 00
        E 0 80 54 00
        E 0 80 60 00
        E 1 80 1f 00
        E 0 80 3e 00
        E 0 80 4a 00
        E 0 80 56 00
        E 0 80 62 00
        E 179 90 1f 60
        E 0 90 56 60
        E 0 90 62 60
        E 60 80 1f 00
        E 0 80 56 00
        E 0 80 62 00
        E 77 80 74 00
        E 103 90 1a 60
        E 0 90 1f 60
        E 0 90 3d 60
        E 0 90 3e 60
        E 0 90 49 60
        E 0 90 4a 60
        E 0 90 55 60
        E 0 90 56 60
        E 0 90 61 60
        E 0 90 62 60
        E 60 80 1a 00
        E 0 80 1f 00
        E 0 80 3d 00
        E 0 80 3e 00
        E 0 80 49 00
        E 0 80 4a 00
        E 0 80 55 00
        E 0 80 56 00
        E 0 80 61 00
        E 0 80 62 00
        E 180 90 18 60
        E 0 90 1f 60
        E 0 90 54 60
        E 0 90 56 60
        E 0 90 60 60
        E 0 90 62 60
        E 60 80 18 00
        E 0 80 1f 00
        E 0 80 54 00
        E 0 80 56 00
        E 0 80 60 00
        E 0 80 62 00
        E 180 90 18 60
        E 0 90 1f 60
        E 0 90 3e 60
        E 0 90 48 60
        E 0 90 4a 60
        E 0 90 54 60
        E 0 90 56 60
        E 0 90 60 60
        E 0 90 62 60
        E 60 80 18 00
        E 0 80 1f 00
        E 0 80 3e 00
        E 0 80 48 00
        E 0 80 4a 00
        E 0 80 54 00
        E 0 80 56 00
        E 0 80 60 00
        E 0 80 62 00
        E 180 90 1f 60
        E 0 90 56 60
        E 0 90 62 60
        E 60 80 1f 00
        E 0 80 56 00
        E 0 80 62 00
        E 180 90 1a 60
        E 0 90 1f 60
        E 0 90 3d 60
        E 0 90 3e 60
        E 0 90 49 60
        E 0 90 4a 60
        E 0 90 55 60
        E 0 90 56 60
        E 0 90 61 60
        E 0 90 62 60
        E 60 80 1a 00
        E 0 80 1f 00
        E 0 80 3d 00
        E 0 80 3e 00
        E 0 80 49 00
        E 0 80 4a 00
        E 0 80 55 00
        E 0 80 56 00
        E 0 80 61 00
        E 0 80 62 00
        E 180 90 18 60
        E 0 90 1f 60
        E 0 90 54 60
        E 0 90 56 60
        E 0 90 60 60
        E 0 90 62 60
        E 60 80 18 00
        E 0 80 1f 00
        E 0 80 54 00
        E 0 80 56 00
        E 0 80 60 00
        E 0 80 62 00
        E 180 90 18 60
        E 0 90 1f 60
        E 0 90 3e 60
        E 0 90 48 60
        E 0 90 4a 60
        E 0 90 54 60
        E 0 90 56 60
        E 0 90 60 60
        E 0 90 62 60
        E 60 80 18 00
        E 0 80 48 00
        E 0 80 54 00
        E 0 80 60 00
        E 1 80 1f 00
        E 0 80 3e 00
        E 0 80 4a 00
        E 0 80 56 00
        E 0 80 62 00
        E 179 90 1f 60
        E 0 90 56 60
        E 0 90 62 60
        E 60 80 1f 00
        E 0 80 56 00
        E 0 80 62 00
        E 180 90 1a 60
        E 0 90 1f 60
        E 0 90 3d 60
        E 0 90 3e 60
        E 0 90 49 60
        E 0 90 4a 60
        E 0 90 55 60
        E 0 90 56 60
        E 0 90 61 60
        E 0 90 62 60
        E 60 80 1a 00
        E 0 80 1f 00
        E 0 80 3d 00
        E 0 80 3e 00
        E 0 80 49 00
        E 0 80 4a 00
        E 0 80 55 00
        E 0 80 56 00
        E 0 80 61 00
        E 0 80 62 00
        E 180 90 18 60
        E 0 90 1f 60
        E 0 90 54 60
        E 0 90 56 60
        E 0 90 60 60
        E 0 90 62 60
        E 60 80 18 00
        E 0 80 1f 00
        E 0 80 54 00
        E 0 80 56 00
        E 0 80 60 00
        E 0 80 62 00
        E 180 90 18 60
        E 0 90 1f 60
        E 0 90 3e 60
        E 0 90 48 60
        E 0 90 4a 60
        E 0 90 54 60
        E 0 90 56 60
        E 0 90 60 60
        E 0 90 62 60
        E 60 80 18 00
        E 0 80 1f 00
        E 0 80 3e 00
        E 0 80 48 00
        E 0 80 4a 00
        E 0 80 54 00
        E 0 80 56 00
        E 0 80 60 00
        E 0 80 62 00
        E 180 90 1f 60
        E 0 90 56 60
        E 0 90 62 60
        E 60 80 1f 00
        E 0 80 56 00
        E 0 80 62 00
        E 180 90 1a 60
        E 0 90 1f 60
        E 0 90 3d 60
        E 0 90 3e 60
        E 0 90 49 60
        E 0 90 4a 60
        E 0 90 55 60
        E 0 90 56 60
        E 0 90 61 60
        E 0 90 62 60
        E 60 80 1a 00
        E 0 80 1f 00
        E 0 80 3d 00
        E 0 80 3e 00
        E 0 80 49 00
        E 0 80 4a 00
        E 0 80 55 00
        E 0 80 56 00
        E 0 80 61 00
        E 0 80 62 00
        E 180 90 18 60
        E 0 90 1f 60
        E 0 90 54 60
        E 0 90 56 60
        E 0 90 60 60
        E 0 90 62 60
        E 60 80 18 00
        E 0 80 1f 00
        E 0 80 54 00
        E 0 80 56 00
        E 0 80 60 00
        E 0 80 62 00
        E 180 90 18 60
        E 0 90 1f 60
        E 0 90 3e 60
        E 0 90 48 60
        E 0 90 4a 60
        E 0 90 54 60
        E 0 90 56 60
        E 0 90 60 60
        E 0 90 62 60
        E 60 80 18 00
        E 0 80 48 00
        E 0 80 54 00
        E 0 80 60 00
        E 1 80 1f 00
        E 0 80 3e 00
        E 0 80 4a 00
        E 0 80 56 00
        E 0 80 62 00
        E 179 90 1f 60
        E 0 90 56 60
        E 0 90 62 60
        E 60 80 1f 00
        E 0 80 56 00
        E 0 80 62 00
        E 180 90 1a 60
        E 0 90 1f 60
        E 0 90 3d 60
        E 0 90 3e 60
        E 0 90 49 60
        E 0 90 4a 60
        E 0 90 55 60
        E 0 90 56 60
        E 0 90 61 60
        E 0 90 62 60
        E 60 80 1a 00
        E 0 80 1f 00
        E 0 80 3d 00
        E 0 80 3e 00
        E 0 80 49 00
        E 0 80 4a 00
        E 0 80 55 00
        E 0 80 56 00
        E 0 80 61 00
        E 0 80 62 00
        E 180 90 18 60
        E 0 90 1f 60
        E 0 90 54 60
        E 0 90 56 60
        E 0 90 60 60
        E 0 90 62 60
        E 60 80 18 00
        E 0 80 1f 00
        E 0 80 54 00
        E 0 80 56 00
        E 0 80 60 00
        E 0 80 62 00
        E 180 90 18 60
        E 0 90 1f 60
        E 0 90 3e 60
        E 0 90 48 60
        E 0 90 4a 60
        E 0 90 54 60
        E 0 90 56 60
        E 0 90 60 60
        E 0 90 62 60
        E 60 80 18 00
        E 0 80 1f 00
        E 0 80 3e 00
        E 0 80 48 00
        E 0 80 4a 00
        E 0 80 54 00
        E 0 80 56 00
        E 0 80 60 00
        E 0 80 62 00
        E 180 90 1f 60
        E 0 90 56 60
        E 0 90 62 60
        E 60 80 1f 00
        E 0 80 56 00
        E 0 80 62 00
        E 180 90 1a 60
        E 0 90 1f 60
        E 0 90 3d 60
        E 0 90 3e 60
        E 0 90 49 60
        E 0 90 4a 60
        E 0 90 55 60
        E 0 90 56 60
        E 0 90 61 60
        E 0 90 62 60
        E 60 80 1a 00
        E 0 80 1f 00
        E 0 80 3d 00
        E 0 80 3e 00
        E 0 80 49 00
        E 0 80 4a 00
        E 0 80 55 00
        E 0 80 56 00
        E 0 80 61 00
        E 0 80 62 00
        E 180 90 18 60
        E 0 90 1f 60
        E 0 90 54 60
        E 0 90 56 60
        E 0 90 60 60
        E 0 90 62 60
        E 60 80 18 00
        E 0 80 1f 00
        E 0 80 54 00
        E 0 80 56 00
        E 0 80 60 00
        E 0 80 62 00
        E 180 90 18 60
        E 0 90 1f 60
        E 0 90 3e 60
        E 0 90 48 60
        E 0 90 4a 60
        E 0 90 54 60
        E 0 90 56 60
        E 0 90 60 60
        E 0 90 62 60
        E 60 80 18 00
        E 0 80 48 00
        E 0 80 54 00
        E 0 80 60 00
        E 1 80 1f 00
        E 0 80 3e 00
        E 0 80 4a 00
        E 0 80 56 00
        E 0 80 62 00
        E 179 90 1f 60
        E 0 90 56 60
        E 0 90 62 60
        E 60 80 1f 00
        E 0 80 56 00
        E 0 80 62 00
        E 180 90 1a 60
        E 0 90 1f 60
        E 0 90 3d 60
        E 0 90 3e 60
        E 0 90 49 60
        E 0 90 4a 60
        E 0 90 55 60
        E 0 90 56 60
        E 0 90 61 60
        E 0 90 62 60
        E 60 80 1a 00
        E 0 80 1f 00
        E 0 80 3d 00
        E 0 80 3e 00
        E 0 80 49 00
        E 0 80 4a 00
        E 0 80 55 00
        E 0 80 56 00
        E 0 80 61 00
        E 0 80 62 00
        E 0 90 78 60
        E 0 90 79 60
        E 0 90 7a 60
        E 0 90 7b 60
        E 0 90 7c 60
        E 180 90 18 60
        E 0 90 1f 60
        E 0 90 54 60
        E 0 90 56 60
        E 0 90 60 60
        E 0 90 62 60
        E 60 80 18 00
        E 0 80 1f 00
        E 0 80 54 00
        E 0 80 56 00
        E 0 80 60 00
        E 0 80 62 00
        E 180 90 18 60
        E 0 90 1f 60
        E 0 90 3e 60
        E 0 90 48 60
        E 0 90 4a 60
        E 0 90 54 60
        E 0 90 56 60
        E 0 90 60 60
        E 0 90 62 60
        E 60 80 18 00
        E 0 80 1f 00
        E 0 80 3e 00
        E 0 80 48 00
        E 0 80 4a 00
        E 0 80 54 00
        E 0 80 56 00
        E 0 80 60 00
        E 0 80 62 00
        E 180 90 1f 60
        E 0 90 56 60
        E 0 90 62 60
        E 60 80 1f 00
        E 0 80 56 00
        E 0 80 62 00
        E 180 90 1a 60
        E 0 90 1f 60
        E 0 90 3d 60
        E 0 90 3e 60
        E 0 90 49 60
        E 0 90 4a 60
        E 0 90 55 60
        E 0 90 56 60
        E 0 90 61 60
        E 0 90 62 60
        E 60 80 78 00
        E 0 80 79 00
        E 0 80 7a 00
        E 0 80 7b 00
        E 0 80 7c 00
        E 0 80 1a 00
        E 0 80 1f 00
        E 0 80 3d 00
        E 0 80 3e 00
        E 0 80 49 00
        E 0 80 4a 00
        E 0 80 55 00
        E 0 80 56 00
        E 0 80 61 00
        E 0 80 62 00
        E 180 90 18 60
        E 0 90 1f 60
        E 0 90 54 60
        E 0 90 56 60
        E 0 90 60 60
        E 0 90 62 60
        E 60 80 18 00
        E 0 80 1f 00
        E 0 80 54 00
        E 0 80 56 00
        E 0 80 60 00
        E 0 80 62 00
        E 180 90 18 60
        E 0 90 1f 60
        E 0 90 3e 60
        E 0 90 48 60
        E 0 90 4a 60
        E 0 90 54 60
        E 0 90 56 60
        E 0 90 60 60
        E 0 90 62 60
        E 60 80 18 00
        E 0 80 48 00
        E 0 80 54 00
        E 0 80 60 00
        E 1 80 1f 00
        E 0 80 3e 00
        E 0 80 4a 00
        E 0 80 56 00
        E 0 80 62 00
        E 179 90 1f 60
        E 0 90 56 60
        E 0 90 62 60
        E 60 80 1f 00
        E 0 80 56 00
        E 0 80 62 00
        E 180 90 1a 60
        E 0 90 1f 60
        E 0 90 3d 60
        E 0 90 3e 60
        E 0 90 49 60
        E 0 90 4a 60
        E 0 90 55 60
        E 0 90 56 60
        E 0 90 61 60
        E 0 90 62 60
        E 60 80 1a 00
        E 0 80 1f 00
        E 0 80 3d 00
        E 0 80 3e 00
        E 0 80 49 00
        E 0 80 4a 00
        E 0 80 55 00
        E 0 80 56 00
        E 0 80 61 00
        E 0 80 62 00
        E 180 90 18 60
        E 0 90 1f 60
        E 0 90 54 60
        E 0 90 56 60
        E 0 90 60 60
        E 0 90 62 60
        E 60 80 18 00
        E 0 80 1f 00
        E 0 80 54 00
        E 0 80 56 00
        E 0 80 60 00
        E 0 80 62 00
        E 180 90 18 60
        E 0 90 1f 60
        E 0 90 3e 60
        E 0 90 48 60
        E 0 90 4a 60
        E 0 90 54 60
        E 0 90 56 60
        E 0 90 60 60
        E 0 90 62 60
        E 60 80 18 00
        E 0 80 1f 00
        E 0 80 3e 00
        E 0 80 48 00
        E 0 80 4a 00
        E 0 80 54 00
        E 0 80 56 00
        E 0 80 60 00
        E 0 80 62 00
        E 180 90 1f 60
        E 0 90 56 60
        E 0 90 62 60
        E 60 80 1f 00
        E 0 80 56 00
        E 0 80 62 00
        E 180 90 1a 60
        E 0 90 1f 60
        E 0 90 3d 60
        E 0 90 3e 60
        E 0 90 49 60
        E 0 90 4a 60
        E 0 90 55 60
        E 0 90 56 60
        E 0 90 61 60
        E 0 90 62 60
        E 60 80 1a 00
        E 0 80 1f 00
        E 0 80 3d 00
        E 0 80 3e 00
        E 0 80 49 00
        E 0 80 4a 00
        E 0 80 55 00
        E 0 80 56 00
        E 0 80 61 00
        E 0 80 62 00
        E 180 90 18 60
        E 0 90 1f 60
        E 0 90 54 60
        E 0 90 56 60
        E 0 90 60 60
        E 0 90 62 60
        E 60 80 18 00
        E 0 80 1f 00
        E 0 80 54 00
        E 0 80 56 00
        E 0 80 60 00
        E 0 80 62 00
        E 180 90 18 60
        E 0 90 1f 60
        E 0 90 3e 60
        E 0 90 48 60
        E 0 90 4a 60
        E 0 90 54 60
        E 0 90 56 60
        E 0 90 60 60
        E 0 90 62 60
        E 60 80 18 00
        E 0 80 48 00
        E 0 80 54 00
        E 0 80 60 00
        E 1 80 1f 00
        E 0 80 3e 00
        E 0 80 4a 00
        E 0 80 56 00
        E 0 80 62 00
        E 179 90 1f 60
        E 0 90 56 60
        E 0 90 62 60
        E 60 80 1f 00
        E 0 80 56 00
        E 0 80 62 00
        E 180 90 1a 60
        E 0 90 1f 60
        E 0 90 3d 60
        E 0 90 3e 60
        E 0 90 49 60
        E 0 90 4a 60
        E 0 90 55 60
        E 0 90 56 60
        E 0 90 61 60
        E 0 90 62 60
        E 60 80 1a 00
        E 0 80 1f 00
        E 0 80 3d 00
        E 0 80 3e 00
        E 0 80 49 00
        E 0 80 4a 00
        E 0 80 55 00
        E 0 80 56 00
        E 0 80 61 00
        E 0 80 62 00
        E 180 90 18 60
        E 0 90 1f 60
        E 0 90 54 60
        E 0 90 56 60
        E 0 90 60 60
        E 0 90 62 60
        E 60 80 18 00
        E 0 80 1f 00
        E 0 80 54 00
        E 0 80 56 00
        E 0 80 60 00
        E 0 80 62 00
        E 180 90 18 60
        E 0 90 1f 60
        E 0 90 3e 60
        E 0 90 48 60
        E 0 90 4a 60
        E 0 90 54 60
        E 0 90 56 60
        E 0 90 60 60
        E 0 90 62 60
        E 60 80 18 00
        E 0 80 1f 00
        E 0 80 3e 00
        E 0 80 48 00
        E 0 80 4a 00
        E 0 80 54 00
        E 0 80 56 00
        E 0 80 60 00
        E 0 80 62 00
        E 180 90 1f 60
        E 0 90 56 60
        E 0 90 62 60
        E 60 80 1f 00
        E 0 80 56 00
        E 0 80 62 00
        E 180 90 1a 60
        E 0 90 1f 60
        E 0 90 3d 60
        E 0 90 3e 60
        E 0 90 49 60
        E 0 90 4a 60
        E 0 90 55 60
        E 0 90 56 60
        E 0 90 61 60
        E 0 90 62 60
        E 60 80 1a 00
        E 0 80 1f 00
        E 0 80 3d 00
        E 0 80 3e 00
        E 0 80 49 00
        E 0 80 4a 00
        E 0 80 55 00
        E 0 80 56 00
        E 0 80 61 00
        E 0 80 62 00
        E 180 90 18 60
        E 0 90 1f 60
        E 0 90 54 60
        E 0 90 56 60
        E 0 90 60 60
        E 0 90 62 60
        E 60 80 18 00
        E 0 80 1f 00
        E 0 80 54 00
        E 0 80 56 00
        E 0 80 60 00
        E 0 80 62 00
        E 180 90 18 60
        E 0 90 1f 60
        E 0 90 3e 60
        E 0 90 48 60
        E 0 90 4a 60
        E 0 90 54 60
        E 0 90 56 60
        E 0 90 60 60
        E 0 90 62 60
        E 60 80 18 00
        E 0 80 48 00
        E 0 80 54 00
        E 0 80 60 00
        E 1 80 1f 00
        E 0 80 3e 00
        E 0 80 4a 00
        E 0 80 56 00
        E 0 80 62 00
        E 179 90 1f 60
        E 0 90 56 60
        E 0 90 62 60
        E 60 80 1f 00
        E 0 80 56 00
        E 0 80 62 00
        E 180 90 1a 60
        E 0 90 1f 60
        E 0 90 3d 60
        E 0 90 3e 60
        E 0 90 49 60
        E 0 90 4a 60
        E 0 90 55 60
        E 0 90 56 60
        E 0 90 61 60
        E 0 90 62 60
        E 60 80 1a 00
        E 0 80 1f 00
        E 0 80 3d 00
        E 0 80 3e 00
        E 0 80 49 00
        E 0 80 4a 00
        E 0 80 55 00
        E 0 80 56 00
        E 0 80 61 00
        E 0 80 62 00
        E 180 90 18 60
        E 0 90 1f 60
        E 0 90 54 60
        E 0 90 56 60
        E 0 90 60 60
        E 0 90 62 60
        E 60 80 18 00
        E 0 80 1f 00
        E 0 80 54 00
        E 0 80 56 00
        E 0 80 60 00
        E 0 80 62 00
        E 180 90 18 60
        E 0 90 1f 60
        E 0 90 3e 60
        E 0 90 48 60
        E 0 90 4a 60
        E 0 90 54 60
        E 0 90 56 60
        E 0 90 60 60
        E 0 90 62 60
        E 60 80 18 00
        E 0 80 1f 00
        E 0 80 3e 00
        E 0 80 48 00
        E 0 80 4a 00
        E 0 80 54 00
        E 0 80 56 00
        E 0 80 60 00
        E 0 80 62 00
        E 180 90 1f 60
        E 0 90 56 60
        E 0 90 62 60
        E 60 80 1f 00
        E 0 80 56 00
        E 0 80 62 00
        E 180 90 1a 60
        E 0 90 1f 60
        E 0 90 3d 60
        E 0 90 3e 60
        E 0 90 49 60
        E 0 90 4a 60
        E 0 90 55 60
        E 0 90 56 60
        E 0 90 61 60
        E 0 90 62 60
        E 60 80 1a 00
        E 0 80 1f 00
        E 0 80 3d 00
        E 0 80 3e 00
        E 0 80 49 00
        E 0 80 4a 00
        E 0 80 55 00
        E 0 80 56 00
        E 0 80 61 00
        E 0 80 62 00
        E 180 90 1f 60
        E 0 90 56 60
        E 0 90 62 60
        E 60 80 1f 00
        E 0 80 56 00
        E 0 80 62 00
        E 180 90 18 60
        E 0 90 26 60
        E 0 90 40 60
        E 0 90 48 60
        E 0 90 4c 60
        E 0 90 54 60
        E 0 90 58 60
        E 0 90 60 60
        E 0 90 64 60
        E 60 80 18 00
        E 0 80 26 00
        E 0 80 40 00
        E 0 80 48 00
        E 0 80 4c 00
        E 0 80 54 00
        E 0 80 58 00
        E 0 80 60 00
        E 0 80 64 00
        E 180 90 1f 60
        E 0 90 56 60
        E 0 90 62 60
        E 60 80 1f 00
        E 0 80 56 00
        E 0 80 62 00
        E 180 90 1a 60
        E 0 90 1f 60
        E 0 90 3d 60
        E 0 90 3e 60
        E 0 90 49 60
        E 0 90 4a 60
        E 0 90 55 60
        E 0 90 56 60
        E 0 90 61 60
        E 0 90 62 60
        E 60 80 1a 00
        E 0 80 1f 00
        E 0 80 3d 00
        E 0 80 3e 00
        E 0 80 49 00
        E 0 80 4a 00
        E 0 80 55 00
        E 0 80 56 00
        E 0 80 61 00
        E 0 80 62 00
        E 180 90 18 60
        E 0 90 1f 60
        E 0 90 54 60
        E 0 90 56 60
        E 0 90 60 60
        E 0 90 62 60
        E 60 80 18 00
        E 0 80 1f 00
        E 0 80 54 00
        E 0 80 56 00
        E 0 80 60 00
        E 0 80 62 00
        E 180 90 18 60
        E 0 90 1f 60
        E 0 90 3e 60
        E 0 90 48 60
        E 0 90 4a 60
        E 0 90 54 60
        E 0 90 56 60
        E 0 90 60 60
        E 0 90 62 60
        E 60 80 18 00
        E 0 80 1f 00
        E 0 80 3e 00
        E 0 80 48 00
        E 0 80 4a 00
        E 0 80 54 00
        E 0 80 56 00
        E 0 80 60 00
        E 0 80 62 00
        E 180 90 1f 60
        E 0 90 56 60
        E 0 90 62 60
        E 60 80 1f 00
        E 0 80 56 00
        E 0 80 62 00
        E 180 90 1a 60
        E 0 90 1f 60
        E 0 90 3d 60
        E 0 90 3e 60
        E 0 90 49 60
        E 0 90 4a 60
        E 0 90 55 60
        E 0 90 56 60
        E 0 90 61 60
        E 0 90 62 60
        E 0 90 74 60
        E 60 80 1a 00
        E 0 80 1f 00
        E 0 80 3d 00
        E 0 80 3e 00
        E 0 80 49 00
        E 0 80 4a 00
        E 0 80 55 00
        E 0 80 56 00
        E 0 80 61 00
        E 0 80 62 00
        E 180 90 18 60
        E 0 90 1f 60
        E 0 90 54 60
        E 0 90 56 60
        E 0 90 60 60
        E 0 90 62 60
        E 60 80 18 00
        E 0 80 1f 00
        E 0 80 54 00
        E 0 80 56 00
        E 0 80 60 00
        E 0 80 62 00
        E 180 90 18 60
        E 0 90 1f 60
        E 0 90 3e 60
        E 0 90 48 60
        E 0 90 4a 60
        E 0 90 54 60
        E 0 90 56 60
        E 0 90 60 60
        E 0 90 62 60
        E 60 80 18 00
        E 0 80 48 00
        E 0 80 54 00
        E 0 80 60 00
        E 1 80 1f 00
        E 0 80 3e 00
        E 0 80 4a 00
        E 0 80 56 00
        E 0 80 62 00
        E 179 90 1f 60
        E 0 90 56 60
        E 0 90 62 60
        E 60 80 1f 00
        E 0 80 56 00
        E 0 80 62 00
        E 180 90 18 60
        E 0 90 26 60
        E 0 90 40 60
        E 0 90 48 60
        E 0 90 4c 60
        E 0 90 54 60
        E 0 90 58 60
        E 0 90 60 60
        E 0 90 64 60
        E 60 80 74 00
        E 0 80 18 00
        E 0 80 26 00
        E 0 80 40 00
        E 0 80 48 00
        E 0 80 4c 00
        E 0 80 54 00
        E 0 80 58 00
        E 0 80 60 00
        E 0 80 64 00
        E 300 90 1a 60
        E 0 90 61 60
        E 0 90 78 60
        E 0 90 79 60
        E 0 90 7a 60
        E 0 90 7b 60
        E 0 90 7c 60
        E 60 80 1a 00
        E 0 80 61 00
        E 60 90 18 60
        E 0 90 1b 60
        E 0 90 3d 60
        E 0 90 49 60
        E 0 90 54 60
        E 0 90 55 60
        E 0 90 60 60
        E 0 90 61 60
        E 60 80 18 00
        E 0 80 54 00
        E 0 80 60 00
        E 1 80 1b 00
        E 0 80 3d 00
        E 0 80 49 00
        E 0 80 55 00
        E 0 80 61 00
        E 179 90 18 60
        E 0 90 54 60
        E 0 90 60 60
        E 60 80 18 00
        E 0 80 54 00
        E 0 80 60 00
        E 180 90 18 60
        E 0 90 3c 60
        E 0 90 48 60
        E 0 90 54 60
        E 0 90 60 60
        E 60 80 18 00
        E 0 80 3c 00
        E 0 80 48 00
        E 0 80 54 00
        E 0 80 60 00
        E 180 90 18 60
        E 0 90 54 60
        E 0 90 60 60
        E 60 80 18 00
        E 0 80 54 00
        E 0 80 60 00
        E 180 80 78 00
        E 0 80 79 00
        E 0 80 7a 00
        E 0 80 7b 00
        E 0 80 7c 00
        E 0 90 18 60
        E 0 90 26 60
        E 0 90 40 60
        E 0 90 48 60
        E 0 90 4c 60
        E 0 90 54 60
        E 0 90 58 60
        E 0 90 60 60
        E 0 90 64 60
        E 60 80 18 00
        E 0 80 26 00
        E 0 80 40 00
        E 0 80 48 00
        E 0 80 4c 00
        E 0 80 54 00
        E 0 80 58 00
        E 0 80 60 00
        E 0 80 64 00
        E 180 90 1f 60
        E 0 90 56 60
        E 0 90 62 60
        E 60 80 1f 00
        E 0 80 56 00
        E 0 80 62 00
        E 180 90 1a 60
        E 0 90 1f 60
        E 0 90 3d 60
        E 0 90 3e 60
        E 0 90 49 60
        E 0 90 4a 60
        E 0 90 55 60
        E 0 90 56 60
        E 0 90 61 60
        E 0 90 62 60
        E 60 80 1a 00
        E 0 80 1f 00
        E 0 80 3d 00
        E 0 80 3e 00
        E 0 80 49 00
        E 0 80 4a 00
        E 0 80 55 00
        E 0 80 56 00
        E 0 80 61 00
        E 0 80 62 00
        E 180 90 18 60
        E 0 90 1f 60
        E 0 90 54 60
        E 0 90 56 60
        E 0 90 60 60
        E 0 90 62 60
        E 60 80 18 00
        E 0 80 1f 00
        E 0 80 54 00
        E 0 80 56 00
        E 0 80 60 00
        E 0 80 62 00
        E 180 90 18 60
        E 0 90 1f 60
        E 0 90 3e 60
        E 0 90 48 60
        E 0 90 4a 60
        E 0 90 54 60
        E 0 90 56 60
        E 0 90 60 60
        E 0 90 62 60
        E 60 80 18 00
        E 0 80 1f 00
        E 0 80 3e 00
        E 0 80 48 00
        E 0 80 4a 00
        E 0 80 54 00
        E 0 80 56 00
        E 0 80 60 00
        E 0 80 62 00
        E 180 90 1f 60
        E 0 90 56 60
        E 0 90 62 60
        E 60 80 1f 00
        E 0 80 56 00
        E 0 80 62 00
        E 180 90 1a 60
        E 0 90 1f 60
        E 0 90 3d 60
        E 0 90 3e 60
        E 0 90 49 60
        E 0 90 4a 60
        E 0 90 55 60
        E 0 90 56 60
        E 0 90 61 60
        E 0 90 62 60
        E 60 80 1a 00
        E 0 80 1f 00
        E 0 80 3d 00
        E 0 80 3e 00
        E 0 80 49 00
        E 0 80 4a 00
        E 0 80 55 00
        E 0 80 56 00
        E 0 80 61 00
        E 0 80 62 00
        E 180 90 1f 60
        E 0 90 56 60
        E 0 90 62 60
        E 60 80 1f 00
        E 0 80 56 00
        E 0 80 62 00
        E 180 90 18 60
        E 0 90 1f 60
        E 0 90 3e 60
        E 0 90 48 60
        E 0 90 4a 60
        E 0 90 54 60
        E 0 90 56 60
        E 0 90 60 60
        E 0 90 62 60
        E 60 80 18 00
        E 0 80 48 00
        E 0 80 54 00
        E 0 80 60 00
        E 1 80 1f 00
        E 0 80 3e 00
        E 0 80 4a 00
        E 0 80 56 00
        E 0 80 62 00
        E 179 90 1f 60
        E 0 90 56 60
        E 0 90 62 60
        E 60 80 1f 00
        E 0 80 56 00
        E 0 80 62 00
        E 180 90 1a 60
        E 0 90 1f 60
        E 0 90 3d 60
        E 0 90 3e 60
        E 0 90 49 60
        E 0 90 4a 60
        E 0 90 55 60
        E 0 90 56 60
        E 0 90 61 60
        E 0 90 62 60
        E 60 80 1a 00
        E 0 80 1f 00
        E 0 80 3d 00
        E 0 80 3e 00
        E 0 80 49 00
        E 0 80 4a 00
        E 0 80 55 00
        E 0 80 56 00
        E 0 80 61 00
        E 0 80 62 00
        E 180 90 18 60
        E 0 90 1f 60
        E 0 90 54 60
        E 0 90 56 60
        E 0 90 60 60
        E 0 90 62 60
        E 60 80 18 00
        E 0 80 1f 00
        E 0 80 54 00
        E 0 80 56 00
        E 0 80 60 00
        E 0 80 62 00
        E 180 90 18 60
        E 0 90 1f 60
        E 0 90 3e 60
        E 0 90 48 60
        E 0 90 4a 60
        E 0 90 54 60
        E 0 90 56 60
        E 0 90 60 60
        E 0 90 62 60
        E 60 80 18 00
        E 0 80 1f 00
        E 0 80 3e 00
        E 0 80 48 00
        E 0 80 4a 00
        E 0 80 54 00
        E 0 80 56 00
        E 0 80 60 00
        E 0 80 62 00
        E 180 90 1f 60
        E 0 90 56 60
        E 0 90 62 60
        E 60 80 1f 00
        E 0 80 56 00
        E 0 80 62 00
        E 180 90 1a 60
        E 0 90 1f 60
        E 0 90 3d 60
        E 0 90 3e 60
        E 0 90 49 60
        E 0 90 4a 60
        E 0 90 55 60
        E 0 90 56 60
        E 0 90 61 60
        E 0 90 62 60
        E 60 80 1a 00
        E 0 80 1f 00
        E 0 80 3d 00
        E 0 80 3e 00
        E 0 80 49 00
        E 0 80 4a 00
        E 0 80 55 00
        E 0 80 56 00
        E 0 80 61 00
        E 0 80 62 00
        E 180 90 18 60
        E 0 90 1f 60
        E 0 90 54 60
        E 0 90 56 60
        E 0 90 60 60
        E 0 90 62 60
        E 60 80 18 00
        E 0 80 1f 00
        E 0 80 54 00
        E 0 80 56 00
        E 0 80 60 00
        E 0 80 62 00
        E 180 90 18 60
        E 0 90 1f 60
        E 0 90 3e 60
        E 0 90 48 60
        E 0 90 4a 60
        E 0 90 54 60
        E 0 90 56 60
        E 0 90 60 60
        E 0 90 62 60
        E 60 80 18 00
        E 0 80 48 00
        E 0 80 54 00
        E 0 80 60 00
        E 1 80 1f 00
        E 0 80 3e 00
        E 0 80 4a 00
        E 0 80 56 00
        E 0 80 62 00
        E 179 90 1f 60
        E 0 90 56 60
        E 0 90 62 60
        E 60 80 1f 00
        E 0 80 56 00
        E 0 80 62 00
        E 180 90 1a 60
        E 0 90 1f 60
        E 0 90 3d 60
        E 0 90 3e 60
        E 0 90 49 60
        E 0 90 4a 60
        E 0 90 55 60
        E 0 90 56 60
        E 0 90 61 60
        E 0 90 62 60
        E 60 80 1a 00
        E 0 80 1f 00
        E 0 80 3d 00
        E 0 80 3e 00
        E 0 80 49 00
        E 0 80 4a 00
        E 0 80 55 00
        E 0 80 56 00
        E 0 80 61 00
        E 0 80 62 00
        E 180 90 18 60
        E 0 90 1f 60
        E 0 90 54 60
        E 0 90 56 60
        E 0 90 60 60
        E 0 90 62 60
        E 60 80 18 00
        E 0 80 1f 00
        E 0 80 54 00
        E 0 80 56 00
        E 0 80 60 00
        E 0 80 62 00
        E 180 90 18 60
        E 0 90 1f 60
        E 0 90 3e 60
        E 0 90 48 60
        E 0 90 4a 60
        E 0 90 54 60
        E 0 90 56 60
        E 0 90 60 60
        E 0 90 62 60
        E 60 80 18 00
        E 0 80 1f 00
        E 0 80 3e 00
        E 0 80 48 00
        E 0 80 4a 00
        E 0 80 54 00
        E 0 80 56 00
        E 0 80 60 00
        E 0 80 62 00
        E 180 90 1f 60
        E 0 90 56 60
        E 0 90 62 60
        E 60 80 1f 00
        E 0 80 56 00
        E 0 80 62 00
        E 180 90 1a 60
        E 0 90 1f 60
        E 0 90 3d 60
        E 0 90 3e 60
        E 0 90 49 60
        E 0 90 4a 60
        E 0 90 55 60
        E 0 90 56 60
        E 0 90 61 60
        E 0 90 62 60
        E 60 80 1a 00
        E 0 80 1f 00
        E 0 80 3d 00
        E 0 80 3e 00
        E 0 80 49 00
        E 0 80 4a 00
        E 0 80 55 00
        E 0 80 56 00
        E 0 80 61 00
        E 0 80 62 00
        E 180 90 18 60
        E 0 90 1f 60
        E 0 90 54 60
        E 0 90 56 60
        E 0 90 60 60
        E 0 90 62 60
        E 60 80 18 00
        E 0 80 1f 00
        E 0 80 54 00
        E 0 80 56 00
        E 0 80 60 00
        E 0 80 62 00
        E 180 90 18 60
        E 0 90 1f 60
        E 0 90 3e 60
        E 0 90 48 60
        E 0 90 4a 60
        E 0 90 54 60
        E 0 90 56 60
        E 0 90 60 60
        E 0 90 62 60
        E 60 80 18 00
        E 0 80 48 00
        E 0 80 54 00
        E 0 80 60 00
        E 1 80 1f 00
        E 0 80 3e 00
        E 0 80 4a 00
        E 0 80 56 00
        E 0 80 62 00
        E 179 90 1f 60
        E 0 90 56 60
        E 0 90 62 60
        E 60 80 1f 00
        E 0 80 56 00
        E 0 80 62 00
        E 180 90 1a 60
        E 0 90 1f 60
        E 0 90 3d 60
        E 0 90 3e 60
        E 0 90 49 60
        E 0 90 4a 60
        E 0 90 55 60
        E 0 90 56 60
        E 0 90 61 60
        E 0 90 62 60
        E 60 80 1a 00
        E 0 80 1f 00
        E 0 80 3d 00
        E 0 80 3e 00
        E 0 80 49 00
        E 0 80 4a 00
        E 0 80 55 00
        E 0 80 56 00
        E 0 80 61 00
        E 0 80 62 00
        E 180 90 18 60
        E 0 90 1f 60
        E 0 90 54 60
        E 0 90 56 60
        E 0 90 60 60
        E 0 90 62 60
        E 60 80 18 00
        E 0 80 1f 00
        E 0 80 54 00
        E 0 80 56 00
        E 0 80 60 00
        E 0 80 62 00
        E 180 90 18 60
        E 0 90 1f 60
        E 0 90 3e 60
        E 0 90 48 60
        E 0 90 4a 60
        E 0 90 54 60
        E 0 90 56 60
        E 0 90 60 60
        E 0 90 62 60
        E 60 80 18 00
        E 0 80 1f 00
        E 0 80 3e 00
        E 0 80 48 00
        E 0 80 4a 00
        E 0 80 54 00
        E 0 80 56 00
        E 0 80 60 00
        E 0 80 62 00
        E 180 90 1f 60
        E 0 90 56 60
        E 0 90 62 60
        E 60 80 1f 00
        E 0 80 56 00
        E 0 80 62 00
        E 180 90 1a 60
        E 0 90 1f 60
        E 0 90 3d 60
        E 0 90 3e 60
        E 0 90 49 60
        E 0 90 4a 60
        E 0 90 55 60
        E 0 90 56 60
        E 0 90 61 60
        E 0 90 62 60
        E 60 80 1a 00
        E 0 80 1f 00
        E 0 80 3d 00
        E 0 80 3e 00
        E 0 80 49 00
        E 0 80 4a 00
        E 0 80 55 00
        E 0 80 56 00
        E 0 80 61 00
        E 0 80 62 00
        E 180 90 18 60
        E 0 90 1f 60
        E 0 90 54 60
        E 0 90 56 60
        E 0 90 60 60
        E 0 90 62 60
        E 60 80 18 00
        E 0 80 1f 00
        E 0 80 54 00
        E 0 80 56 00
        E 0 80 60 00
        E 0 80 62 00
        E 180 90 18 60
        E 0 90 1f 60
        E 0 90 3e 60
        E 0 90 48 60
        E 0 90 4a 60
        E 0 90 54 60
        E 0 90 56 60
        E 0 90 60 60
        E 0 90 62 60
        E 60 80 18 00
        E 0 80 48 00
        E 0 80 54 00
        E 0 80 60 00
        E 1 80 1f 00
        E 0 80 3e 00
        E 0 80 4a 00
        E 0 80 56 00
        E 0 80 62 00
        E 179 90 1f 60
        E 0 90 56 60
        E 0 90 62 60
        E 60 80 1f 00
        E 0 80 56 00
        E 0 80 62 00
        E 180 90 1a 60
        E 0 90 1f 60
        E 0 90 3d 60
        E 0 90 3e 60
        E 0 90 49 60
        E 0 90 4a 60
        E 0 90 55 60
        E 0 90 56 60
        E 0 90 61 60
        E 0 90 62 60
        E 60 80 1a 00
        E 0 80 1f 00
        E 0 80 3d 00
        E 0 80 3e 00
        E 0 80 49 00
        E 0 80 4a 00
        E 0 80 55 00
        E 0 80 56 00
        E 0 80 61 00
        E 0 80 62 00
        E 180 90 18 60
        E 0 90 1f 60
        E 0 90 54 60
        E 0 90 56 60
        E 0 90 60 60
        E 0 90 62 60
        E 60 80 18 00
        E 0 80 1f 00
        E 0 80 54 00
        E 0 80 56 00
        E 0 80 60 00
        E 0 80 62 00
        E 180 90 18 60
        E 0 90 1f 60
        E 0 90 3e 60
        E 0 90 48 60
        E 0 90 4a 60
        E 0 90 54 60
        E 0 90 56 60
        E 0 90 60 60
        E 0 90 62 60
        E 60 80 18 00
        E 0 80 1f 00
        E 0 80 3e 00
        E 0 80 48 00
        E 0 80 4a 00
        E 0 80 54 00
        E 0 80 56 00
        E 0 80 60 00
        E 0 80 62 00
        E 180 90 1f 60
        E 0 90 56 60
        E 0 90 62 60
        E 60 80 1f 00
        E 0 80 56 00
        E 0 80 62 00
        E 180 90 1a 60
        E 0 90 1f 60
        E 0 90 3d 60
        E 0 90 3e 60
        E 0 90 49 60
        E 0 90 4a 60
        E 0 90 55 60
        E 0 90 56 60
        E 0 90 61 60
        E 0 90 62 60
        E 60 80 1a 00
        E 0 80 1f 00
        E 0 80 3d 00
        E 0 80 3e 00
        E 0 80 49 00
        E 0 80 4a 00
        E 0 80 55 00
        E 0 80 56 00
        E 0 80 61 00
        E 0 80 62 00
        E 180 90 18 60
        E 0 90 1f 60
        E 0 90 54 60
        E 0 90 56 60
        E 0 90 60 60
        E 0 90 62 60
        E 60 80 18 00
        E 0 80 1f 00
        E 0 80 54 00
        E 0 80 56 00
        E 0 80 60 00
        E 0 80 62 00
        E 180 90 18 60
        E 0 90 1f 60
        E 0 90 3e 60
        E 0 90 48 60
        E 0 90 4a 60
        E 0 90 54 60
        E 0 90 56 60
        E 0 90 60 60
        E 0 90 62 60
        E 60 80 18 00
        E 0 80 48 00
        E 0 80 54 00
        E 0 80 60 00
        E 1 80 1f 00
        E 0 80 3e 00
        E 0 80 4a 00
        E 0 80 56 00
        E 0 80 62 00
        E 179 90 1f 60
        E 0 90 56 60
        E 0 90 62 60
        E 60 80 1f 00
        E 0 80 56 00
        E 0 80 62 00
        E 180 90 1a 60
        E 0 90 1f 60
        E 0 90 3d 60
        E 0 90 3e 60
        E 0 90 49 60
        E 0 90 4a 60
        E 0 90 55 60
        E 0 90 56 60
        E 0 90 61 60
        E 0 90 62 60
        E 60 80 1a 00
        E 0 80 1f 00
        E 0 80 3d 00
        E 0 80 3e 00
        E 0 80 49 00
        E 0 80 4a 00
        E 0 80 55 00
        E 0 80 56 00
        E 0 80 61 00
        E 0 80 62 00
        E 180 90 18 60
        E 0 90 1f 60
        E 0 90 54 60
        E 0 90 56 60
        E 0 90 60 60
        E 0 90 62 60
        E 60 80 18 00
        E 0 80 1f 00
        E 0 80 54 00
        E 0 80 56 00
        E 0 80 60 00
        E 0 80 62 00
        E 180 90 18 60
        E 0 90 1f 60
        E 0 90 3e 60
        E 0 90 48 60
        E 0 90 4a 60
        E 0 90 54 60
        E 0 90 56 60
        E 0 90 60 60
        E 0 90 62 60
        E 60 80 18 00
        E 0 80 1f 00
        E 0 80 3e 00
        E 0 80 48 00
        E 0 80 4a 00
        E 0 80 54 00
        E 0 80 56 00
        E 0 80 60 00
        E 0 80 62 00
        E 180 90 1f 60
        E 0 90 56 60
        E 0 90 62 60
        E 60 80 1f 00
        E 0 80 56 00
        E 0 80 62 00
        E 180 90 1a 60
        E 0 90 1f 60
        E 0 90 3d 60
        E 0 90 3e 60
        E 0 90 49 60
        E 0 90 4a 60
        E 0 90 55 60
        E 0 90 56 60
        E 0 90 61 60
        E 0 90 62 60
        E 60 80 1a 00
        E 0 80 1f 00
        E 0 80 3d 00
        E 0 80 3e 00
        E 0 80 49 00
        E 0 80 4a 00
        E 0 80 55 00
        E 0 80 56 00
        E 0 80 61 00
        E 0 80 62 00
        E 180 90 18 60
        E 0 90 1f 60
        E 0 90 54 60
        E 0 90 56 60
        E 0 90 60 60
        E 0 90 62 60
        E 60 80 18 00
        E 0 80 1f 00
        E 0 80 54 00
        E 0 80 56 00
        E 0 80 60 00
        E 0 80 62 00
        E 180 90 18 60
        E 0 90 26 60
        E 0 90 40 60
        E 0 90 48 60
        E 0 90 4c 60
        E 0 90 54 60
        E 0 90 58 60
        E 0 90 60 60
        E 0 90 64 60
        E 60 80 18 00
        E 0 80 48 00
        E 0 80 54 00
        E 0 80 60 00
        E 1 80 26 00
        E 0 80 40 00
        E 0 80 4c 00
        E 0 80 58 00
        E 0 80 64 00
        E 179 90 1f 60
        E 0 90 56 60
        E 0 90 62 60
        E 60 80 1f 00
        E 0 80 56 00
        E 0 80 62 00
        E 180 90 1a 60
        E 0 90 1f 60
        E 0 90 3d 60
        E 0 90 3e 60
        E 0 90 49 60
        E 0 90 4a 60
        E 0 90 55 60
        E 0 90 56 60
        E 0 90 61 60
        E 0 90 62 60
        E 60 80 1a 00
        E 0 80 1f 00
        E 0 80 3d 00
        E 0 80 3e 00
        E 0 80 49 00
        E 0 80 4a 00
        E 0 80 55 00
        E 0 80 56 00
        E 0 80 61 00
        E 0 80 62 00
        E 180 90 18 60
        E 0 90 1f 60
        E 0 90 54 60
        E 0 90 56 60
        E 0 90 60 60
        E 0 90 62 60
        E 60 80 18 00
        E 0 80 1f 00
        E 0 80 54 00
        E 0 80 56 00
        E 0 80 60 00
        E 0 80 62 00
        E 180 90 18 60
        E 0 90 1f 60
        E 0 90 3e 60
        E 0 90 48 60
        E 0 90 4a 60
        E 0 90 54 60
        E 0 90 56 60
        E 0 90 60 60
        E 0 90 62 60
        E 60 80 18 00
        E 0 80 1f 00
        E 0 80 3e 00
        E 0 80 48 00
        E 0 80 4a 00
        E 0 80 54 00
        E 0 80 56 00
        E 0 80 60 00
        E 0 80 62 00
        E 180 90 1f 60
        E 0 90 56 60
        E 0 90 62 60
        E 60 80 1f 00
        E 0 80 56 00
        E 0 80 62 00
        E 180 90 1a 60
        E 0 90 1f 60
        E 0 90 3d 60
        E 0 90 3e 60
        E 0 90 49 60
        E 0 90 4a 60
        E 0 90 55 60
        E 0 90 56 60
        E 0 90 61 60
        E 0 90 62 60
        E 60 80 1a 00
        E 0 80 1f 00
        E 0 80 3d 00
        E 0 80 3e 00
        E 0 80 49 00
        E 0 80 4a 00
        E 0 80 55 00
        E 0 80 56 00
        E 0 80 61 00
        E 0 80 62 00
        E 180 90 18 60
        E 0 90 1f 60
        E 0 90 54 60
        E 0 90 56 60
        E 0 90 60 60
        E 0 90 62 60
        E 60 80 18 00
        E 0 80 1f 00
        E 0 80 54 00
        E 0 80 56 00
        E 0 80 60 00
        E 0 80 62 00
        E 180 90 18 60
        E 0 90 1f 60
        E 0 90 3e 60
        E 0 90 48 60
        E 0 90 4a 60
        E 0 90 54 60
        E 0 90 56 60
        E 0 90 60 60
        E 0 90 62 60
        E 60 80 18 00
        E 0 80 1f 00
        E 0 80 3e 00
        E 0 80 48 00
        E 0 80 4a 00
        E 0 80 54 00
        E 0 80 56 00
        E 0 80 60 00
        E 0 80 62 00
        E 180 90 1f 60
        E 0 90 56 60
        E 0 90 62 60
        E 60 80 1f 00
        E 0 80 56 00
        E 0 80 62 00
        E 180 90 18 60
        E 0 90 26 60
        E 0 90 40 60
        E 0 90 48 60
        E 0 90 4c 60
        E 0 90 54 60
        E 0 90 58 60
        E 0 90 60 60
        E 0 90 64 60
        E 60 80 18 00
        E 0 80 26 00
        E 0 80 40 00
        E 0 80 48 00
        E 0 80 4c 00
        E 0 80 54 00
        E 0 80 58 00
        E 0 80 60 00
        E 0 80 64 00
        E 300 90 1a 60
        E 0 90 61 60
        E 0 90 78 60
        E 0 90 79 60
        E 0 90 7a 60
        E 0 90 7b 60
        E 0 90 7c 60
        E 60 80 1a 00
        E 0 80 61 00
        E 60 90 18 60
        E 0 90 1b 60
        E 0 90 3d 60
        E 0 90 49 60
        E 0 90 54 60
        E 0 90 55 60
        E 0 90 60 60
        E 0 90 61 60
        E 60 80 18 00
        E 0 80 54 00
        E 0 80 60 00
        E 1 80 1b 00
        E 0 80 3d 00
        E 0 80 49 00
        E 0 80 55 00
        E 0 80 61 00
        E 179 90 18 60
        E 0 90 54 60
        E 0 90 60 60
        E 60 80 18 00
        E 0 80 54 00
        E 0 80 60 00
        E 180 90 18 60
        E 0 90 3c 60
        E 0 90 48 60
        E 0 90 54 60
        E 0 90 60 60
        E 60 80 18 00
        E 0 80 3c 00
        E 0 80 48 00
        E 0 80 54 00
        E 0 80 60 00
        E 180 90 18 60
        E 0 90 54 60
        E 0 90 60 60
        E 60 80 18 00
        E 0 80 54 00
        E 0 80 60 00
        E 180 80 78 00
        E 0 80 79 00
        E 0 80 7a 00
        E 0 80 7b 00
        E 0 80 7c 00
        E 0 90 18 60
        E 0 90 26 60
        E 0 90 40 60
        E 0 90 48 60
        E 0 90 4c 60
        E 0 90 54 60
        E 0 90 58 60
        E 0 90 60 60
        E 0 90 64 60
        E 60 80 18 00
        E 0 80 26 00
        E 0 80 40 00
        E 0 80 48 00
        E 0 80 4c 00
        E 0 80 54 00
        E 0 80 58 00
        E 0 80 60 00
        E 0 80 64 00
        E 180 90 1f 60
        E 0 90 56 60
        E 0 90 62 60
        E 60 80 1f 00
        E 0 80 56 00
        E 0 80 62 00
        E 180 90 1a 60
        E 0 90 1f 60
        E 0 90 3d 60
        E 0 90 3e 60
        E 0 90 49 60
        E 0 90 4a 60
        E 0 90 55 60
        E 0 90 56 60
        E 0 90 61 60
        E 0 90 62 60
        E 60 80 1a 00
        E 0 80 1f 00
        E 0 80 3d 00
        E 0 80 3e 00
        E 0 80 49 00
        E 0 80 4a 00
        E 0 80 55 00
        E 0 80 56 00
        E 0 80 61 00
        E 0 80 62 00
        E 180 90 18 60
        E 0 90 1f 60
        E 0 90 54 60
        E 0 90 56 60
        E 0 90 60 60
        E 0 90 62 60
        E 60 80 18 00
        E 0 80 1f 00
        E 0 80 54 00
        E 0 80 56 00
        E 0 80 60 00
        E 0 80 62 00
        E 180 90 18 60
        E 0 90 1f 60
        E 0 90 3e 60
        E 0 90 48 60
        E 0 90 4a 60
        E 0 90 54 60
        E 0 90 56 60
        E 0 90 60 60
        E 0 90 62 60
        E 60 80 18 00
        E 0 80 1f 00
        E 0 80 3e 00
        E 0 80 48 00
        E 0 80 4a 00
        E 0 80 54 00
        E 0 80 56 00
        E 0 80 60 00
        E 0 80 62 00
        E 180 90 1f 60
        E 0 90 56 60
        E 0 90 62 60
        E 60 80 1f 00
        E 0 80 56 00
        E 0 80 62 00
        E 180 90 1a 60
        E 0 90 1f 60
        E 0 90 3d 60
        E 0 90 3e 60
        E 0 90 49 60
        E 0 90 4a 60
        E 0 90 55 60
        E 0 90 56 60
        E 0 90 61 60
        E 0 90 62 60
        E 60 80 1a 00
        E 0 80 1f 00
        E 0 80 3d 00
        E 0 80 3e 00
        E 0 80 49 00
        E 0 80 4a 00
        E 0 80 55 00
        E 0 80 56 00
        E 0 80 61 00
        E 0 80 62 00
        E 180 90 18 60
        E 0 90 1f 60
        E 0 90 54 60
        E 0 90 56 60
        E 0 90 60 60
        E 0 90 62 60
        E 60 80 18 00
        E 0 80 1f 00
        E 0 80 54 00
        E 0 80 56 00
        E 0 80 60 00
        E 0 80 62 00
        E 180 90 18 60
        E 0 90 1f 60
        E 0 90 3e 60
        E 0 90 48 60
        E 0 90 4a 60
        E 0 90 54 60
        E 0 90 56 60
        E 0 90 60 60
        E 0 90 62 60
        E 60 80 18 00
        E 0 80 48 00
        E 0 80 54 00
        E 0 80 60 00
        E 1 80 1f 00
        E 0 80 3e 00
        E 0 80 4a 00
        E 0 80 56 00
        E 0 80 62 00
        E 179 90 1f 60
        E 0 90 56 60
        E 0 90 62 60
        E 60 80 1f 00
        E 0 80 56 00
        E 0 80 62 00
        E 180 90 1a 60
        E 0 90 1f 60
        E 0 90 3d 60
        E 0 90 3e 60
        E 0 90 49 60
        E 0 90 4a 60
        E 0 90 55 60
        E 0 90 56 60
        E 0 90 61 60
        E 0 90 62 60
        E 60 80 1a 00
        E 0 80 1f 00
        E 0 80 3d 00
        E 0 80 3e 00
        E 0 80 49 00
        E 0 80 4a 00
        E 0 80 55 00
        E 0 80 56 00
        E 0 80 61 00
        E 0 80 62 00
        E 180 90 18 60
        E 0 90 1f 60
        E 0 90 54 60
        E 0 90 56 60
        E 0 90 60 60
        E 0 90 62 60
        E 60 80 18 00
        E 0 80 1f 00
        E 0 80 54 00
        E 0 80 56 00
        E 0 80 60 00
        E 0 80 62 00
        E 180 90 18 60
        E 0 90 1f 60
        E 0 90 3e 60
        E 0 90 48 60
        E 0 90 4a 60
        E 0 90 54 60
        E 0 90 56 60
        E 0 90 60 60
        E 0 90 62 60
        E 60 80 18 00
        E 0 80 1f 00
        E 0 80 3e 00
        E 0 80 48 00
        E 0 80 4a 00
        E 0 80 54 00
        E 0 80 56 00
        E 0 80 60 00
        E 0 80 62 00
        E 180 90 1f 60
        E 0 90 56 60
        E 0 90 62 60
        E 60 80 1f 00
        E 0 80 56 00
        E 0 80 62 00
        E 180 90 1a 60
        E 0 90 1f 60
        E 0 90 3d 60
        E 0 90 3e 60
        E 0 90 49 60
        E 0 90 4a 60
        E 0 90 55 60
        E 0 90 56 60
        E 0 90 61 60
        E 0 90 62 60
        E 60 80 1a 00
        E 0 80 1f 00
        E 0 80 3d 00
        E 0 80 3e 00
        E 0 80 49 00
        E 0 80 4a 00
        E 0 80 55 00
        E 0 80 56 00
        E 0 80 61 00
        E 0 80 62 00
        E 180 90 18 60
        E 0 90 1f 60
        E 0 90 54 60
        E 0 90 56 60
        E 0 90 60 60
        E 0 90 62 60
        E 60 80 18 00
        E 0 80 1f 00
        E 0 80 54 00
        E 0 80 56 00
        E 0 80 60 00
        E 0 80 62 00
        E 180 90 18 60
        E 0 90 1f 60
        E 0 90 3e 60
        E 0 90 48 60
        E 0 90 4a 60
        E 0 90 54 60
        E 0 90 56 60
        E 0 90 60 60
        E 0 90 62 60
        E 60 80 18 00
        E 0 80 48 00
        E 0 80 54 00
        E 0 80 60 00
        E 1 80 1f 00
        E 0 80 3e 00
        E 0 80 4a 00
        E 0 80 56 00
        E 0 80 62 00
        E 179 90 1f 60
        E 0 90 56 60
        E 0 90 62 60
        E 60 80 1f 00
        E 0 80 56 00
        E 0 80 62 00
        E 180 90 1a 60
        E 0 90 1f 60
        E 0 90 3d 60
        E 0 90 3e 60
        E 0 90 49 60
        E 0 90 4a 60
        E 0 90 55 60
        E 0 90 56 60
        E 0 90 61 60
        E 0 90 62 60
        E 60 80 1a 00
        E 0 80 1f 00
        E 0 80 3d 00
        E 0 80 3e 00
        E 0 80 49 00
        E 0 80 4a 00
        E 0 80 55 00
        E 0 80 56 00
        E 0 80 61 00
        E 0 80 62 00
        E 180 90 18 60
        E 0 90 1f 60
        E 0 90 54 60
        E 0 90 56 60
        E 0 90 60 60
        E 0 90 62 60
        E 60 80 18 00
        E 0 80 1f 00
        E 0 80 54 00
        E 0 80 56 00
        E 0 80 60 00
        E 0 80 62 00
        E 180 90 18 60
        E 0 90 1f 60
        E 0 90 3e 60
        E 0 90 48 60
        E 0 90 4a 60
        E 0 90 54 60
        E 0 90 56 60
        E 0 90 60 60
        E 0 90 62 60
        E 60 80 18 00
        E 0 80 1f 00
        E 0 80 3e 00
        E 0 80 48 00
        E 0 80 4a 00
        E 0 80 54 00
        E 0 80 56 00
        E 0 80 60 00
        E 0 80 62 00
        E 180 90 1f 60
        E 0 90 56 60
        E 0 90 62 60
        E 60 80 1f 00
        E 0 80 56 00
        E 0 80 62 00
        E 180 90 1a 60
        E 0 90 1f 60
        E 0 90 3d 60
        E 0 90 3e 60
        E 0 90 49 60
        E 0 90 4a 60
        E 0 90 55 60
        E 0 90 56 60
        E 0 90 61 60
        E 0 90 62 60
        E 60 80 1a 00
        E 0 80 1f 00
        E 0 80 3d 00
        E 0 80 3e 00
        E 0 80 49 00
        E 0 80 4a 00
        E 0 80 55 00
        E 0 80 56 00
        E 0 80 61 00
        E 0 80 62 00
        E 180 90 18 60
        E 0 90 1f 60
        E 0 90 54 60
        E 0 90 56 60
        E 0 90 60 60
        E 0 90 62 60
        E 60 80 18 00
        E 0 80 1f 00
        E 0 80 54 00
        E 0 80 56 00
        E 0 80 60 00
        E 0 80 62 00
        E 180 90 18 60
        E 0 90 1f 60
        E 0 90 3e 60
        E 0 90 48 60
        E 0 90 4a 60
        E 0 90 54 60
        E 0 90 56 60
        E 0 90 60 60
        E 0 90 62 60
        E 60 80 18 00
        E 0 80 48 00
        E 0 80 54 00
        E 0 80 60 00
        E 1 80 1f 00
        E 0 80 3e 00
        E 0 80 4a 00
        E 0 80 56 00
        E 0 80 62 00
        E 179 90 1f 60
        E 0 90 56 60
        E 0 90 62 60
        E 60 80 1f 00
        E 0 80 56 00
        E 0 80 62 00
        E 180 90 1a 60
        E 0 90 1f 60
        E 0 90 3d 60
        E 0 90 3e 60
        E 0 90 49 60
        E 0 90 4a 60
        E 0 90 55 60
        E 0 90 56 60
        E 0 90 61 60
        E 0 90 62 60
        E 60 80 1a 00
        E 0 80 1f 00
        E 0 80 3d 00
        E 0 80 3e 00
        E 0 80 49 00
        E 0 80 4a 00
        E 0 80 55 00
        E 0 80 56 00
        E 0 80 61 00
        E 0 80 62 00
        E 180 90 18 60
        E 0 90 1f 60
        E 0 90 54 60
        E 0 90 56 60
        E 0 90 60 60
        E 0 90 62 60
        E 60 80 18 00
        E 0 80 1f 00
        E 0 80 54 00
        E 0 80 56 00
        E 0 80 60 00
        E 0 80 62 00
        E 180 90 18 60
        E 0 90 1f 60
        E 0 90 3e 60
        E 0 90 48 60
        E 0 90 4a 60
        E 0 90 54 60
        E 0 90 56 60
        E 0 90 60 60
        E 0 90 62 60
        E 60 80 18 00
        E 0 80 1f 00
        E 0 80 3e 00
        E 0 80 48 00
        E 0 80 4a 00
        E 0 80 54 00
        E 0 80 56 00
        E 0 80 60 00
        E 0 80 62 00
        E 180 90 1f 60
        E 0 90 56 60
        E 0 90 62 60
        E 60 80 1f 00
        E 0 80 56 00
        E 0 80 62 00
        E 180 90 1a 60
        E 0 90 1f 60
        E 0 90 3d 60
        E 0 90 3e 60
        E 0 90 49 60
        E 0 90 4a 60
        E 0 90 55 60
        E 0 90 56 60
        E 0 90 61 60
        E 0 90 62 60
        E 60 80 1a 00
        E 0 80 1f 00
        E 0 80 3d 00
        E 0 80 3e 00
        E 0 80 49 00
        E 0 80 4a 00
        E 0 80 55 00
        E 0 80 56 00
        E 0 80 61 00
        E 0 80 62 00
        E 180 90 18 60
        E 0 90 1f 60
        E 0 90 54 60
        E 0 90 56 60
        E 0 90 60 60
        E 0 90 62 60
        E 60 80 18 00
        E 0 80 1f 00
        E 0 80 54 00
        E 0 80 56 00
        E 0 80 60 00
        E 0 80 62 00
        E 71 90 74 67
        E 109 90 18 60
        E 0 90 26 60
        E 0 90 40 60
        E 0 90 48 60
        E 0 90 4c 60
        E 0 90 54 60
        E 0 90 58 60
        E 0 90 60 60
        E 0 90 64 60
        E 60 80 18 00
        E 0 80 48 00
        E 0 80 54 00
        E 0 80 60 00
        E 1 80 26 00
        E 0 80 40 00
        E 0 80 4c 00
        E 0 80 58 00
        E 0 80 64 00
        E 179 90 1f 60
        E 0 90 56 60
        E 0 90 62 60
        E 60 80 1f 00
        E 0 80 56 00
        E 0 80 62 00
        E 180 90 1a 60
        E 0 90 1f 60
        E 0 90 3d 60
        E 0 90 3e 60
        E 0 90 49 60
        E 0 90 4a 60
        E 0 90 55 60
        E 0 90 56 60
        E 0 90 61 60
        E 0 90 62 60
        E 60 80 1a 00
        E 0 80 1f 00
        E 0 80 3d 00
        E 0 80 3e 00
        E 0 80 49 00
        E 0 80 4a 00
        E 0 80 55 00
        E 0 80 56 00
        E 0 80 61 00
        E 0 80 62 00
        E 180 90 18 60
        E 0 90 1f 60
        E 0 90 54 60
        E 0 90 56 60
        E 0 90 60 60
        E 0 90 62 60
        E 60 80 18 00
        E 0 80 1f 00
        E 0 80 54 00
        E 0 80 56 00
        E 0 80 60 00
        E 0 80 62 00
        E 180 90 18 60
        E 0 90 1f 60
        E 0 90 3e 60
        E 0 90 48 60
        E 0 90 4a 60
        E 0 90 54 60
        E 0 90 56 60
        E 0 90 60 60
        E 0 90 62 60
        E 60 80 18 00
        E 0 80 1f 00
        E 0 80 3e 00
        E 0 80 48 00
        E 0 80 4a 00
        E 0 80 54 00
        E 0 80 56 00
        E 0 80 60 00
        E 0 80 62 00
        E 180 90 1f 60
        E 0 90 56 60
        E 0 90 62 60
        E 60 80 1f 00
        E 0 80 56 00
        E 0 80 62 00
        E 180 90 1a 60
        E 0 90 1f 60
        E 0 90 3d 60
        E 0 90 3e 60
        E 0 90 49 60
        E 0 90 4a 60
        E 0 90 55 60
        E 0 90 56 60
        E 0 90 61 60
        E 0 90 62 60
        E 60 80 1a 00
        E 0 80 1f 00
        E 0 80 3d 00
        E 0 80 3e 00
        E 0 80 49 00
        E 0 80 4a 00
        E 0 80 55 00
        E 0 80 56 00
        E 0 80 61 00
        E 0 80 62 00
        E 180 90 18 60
        E 0 90 1f 60
        E 0 90 54 60
        E 0 90 56 60
        E 0 90 60 60
        E 0 90 62 60
        E 60 80 18 00
        E 0 80 1f 00
        E 0 80 54 00
        E 0 80 56 00
        E 0 80 60 00
        E 0 80 62 00
        E 180 90 18 60
        E 0 90 1f 60
        E 0 90 3e 60
        E 0 90 48 60
        E 0 90 4a 60
        E 0 90 54 60
        E 0 90 56 60
        E 0 90 60 60
        E 0 90 62 60
        E 60 80 18 00
        E 0 80 48 00
        E 0 80 54 00
        E 0 80 60 00
        E 1 80 1f 00
        E 0 80 3e 00
        E 0 80 4a 00
        E 0 80 56 00
        E 0 80 62 00
        E 179 90 1f 60
        E 0 90 56 60
        E 0 90 62 60
        E 60 80 1f 00
        E 0 80 56 00
        E 0 80 62 00
        E 180 90 1a 60
        E 0 90 1f 60
        E 0 90 3d 60
        E 0 90 3e 60
        E 0 90 49 60
        E 0 90 4a 60
        E 0 90 55 60
        E 0 90 56 60
        E 0 90 61 60
        E 0 90 62 60
        E 60 80 1a 00
        E 0 80 1f 00
        E 0 80 3d 00
        E 0 80 3e 00
        E 0 80 49 00
        E 0 80 4a 00
        E 0 80 55 00
        E 0 80 56 00
        E 0 80 61 00
        E 0 80 62 00
        E 180 90 18 60
        E 0 90 1f 60
        E 0 90 54 60
        E 0 90 56 60
        E 0 90 60 60
        E 0 90 62 60
        E 36 80 74 00
        E 24 80 18 00
        E 0 80 1f 00
        E 0 80 54 00
        E 0 80 56 00
        E 0 80 60 00
        E 0 80 62 00
        E 180 90 18 60
        E 0 90 1f 60
        E 0 90 3e 60
        E 0 90 48 60
        E 0 90 4a 60
        E 0 90 54 60
        E 0 90 56 60
        E 0 90 60 60
        E 0 90 62 60
        E 60 80 18 00
        E 0 80 1f 00
        E 0 80 3e 00
        E 0 80 48 00
        E 0 80 4a 00
        E 0 80 54 00
        E 0 80 56 00
        E 0 80 60 00
        E 0 80 62 00
        E 180 90 1f 60
        E 0 90 56 60
        E 0 90 62 60
        E 60 80 1f 00
        E 0 80 56 00
        E 0 80 62 00
        E 180 90 1a 60
        E 0 90 1f 60
        E 0 90 3d 60
        E 0 90 3e 60
        E 0 90 49 60
        E 0 90 4a 60
        E 0 90 55 60
        E 0 90 56 60
        E 0 90 61 60
        E 0 90 62 60
        E 60 80 1a 00
        E 0 80 1f 00
        E 0 80 3d 00
        E 0 80 3e 00
        E 0 80 49 00
        E 0 80 4a 00
        E 0 80 55 00
        E 0 80 56 00
        E 0 80 61 00
        E 0 80 62 00
        E 180 90 18 60
        E 0 90 1f 60
        E 0 90 54 60
        E 0 90 56 60
        E 0 90 60 60
        E 0 90 62 60
        E 60 80 18 00
        E 0 80 1f 00
        E 0 80 54 00
        E 0 80 56 00
        E 0 80 60 00
        E 0 80 62 00
        E 180 90 18 60
        E 0 90 1f 60
        E 0 90 3e 60
        E 0 90 48 60
        E 0 90 4a 60
        E 0 90 54 60
        E 0 90 56 60
        E 0 90 60 60
        E 0 90 62 60
        E 60 80 18 00
        E 0 80 48 00
        E 0 80 54 00
        E 0 80 60 00
        E 1 80 1f 00
        E 0 80 3e 00
        E 0 80 4a 00
        E 0 80 56 00
        E 0 80 62 00
        E 179 90 1f 60
        E 0 90 56 60
        E 0 90 62 60
        E 60 80 1f 00
        E 0 80 56 00
        E 0 80 62 00
        E 180 90 1a 60
        E 0 90 1f 60
        E 0 90 3d 60
        E 0 90 3e 60
        E 0 90 49 60
        E 0 90 4a 60
        E 0 90 55 60
        E 0 90 56 60
        E 0 90 61 60
        E 0 90 62 60
        E 60 80 1a 00
        E 0 80 1f 00
        E 0 80 3d 00
        E 0 80 3e 00
        E 0 80 49 00
        E 0 80 4a 00
        E 0 80 55 00
        E 0 80 56 00
        E 0 80 61 00
        E 0 80 62 00
        E 180 90 18 60
        E 0 90 1f 60
        E 0 90 54 60
        E 0 90 56 60
        E 0 90 60 60
        E 0 90 62 60
        E 60 80 18 00
        E 0 80 1f 00
        E 0 80 54 00
        E 0 80 56 00
        E 0 80 60 00
        E 0 80 62 00
        E 180 90 18 60
        E 0 90 1f 60
        E 0 90 3e 60
        E 0 90 48 60
        E 0 90 4a 60
        E 0 90 54 60
        E 0 90 56 60
        E 0 90 60 60
        E 0 90 62 60
        E 60 80 18 00
        E 0 80 1f 00
        E 0 80 3e 00
        E 0 80 48 00
        E 0 80 4a 00
        E 0 80 54 00
        E 0 80 56 00
        E 0 80 60 00
        E 0 80 62 00
        E 180 90 1f 60
        E 0 90 56 60
        E 0 90 62 60
        E 60 80 1f 00
        E 0 80 56 00
        E 0 80 62 00
        E 180 90 1a 60
        E 0 90 1f 60
        E 0 90 3d 60
        E 0 90 3e 60
        E 0 90 49 60
        E 0 90 4a 60
        E 0 90 55 60
        E 0 90 56 60
        E 0 90 61 60
        E 0 90 62 60
        E 60 80 1a 00
        E 0 80 1f 00
        E 0 80 3d 00
        E 0 80 3e 00
        E 0 80 49 00
        E 0 80 4a 00
        E 0 80 55 00
        E 0 80 56 00
        E 0 80 61 00
        E 0 80 62 00
        E 180 90 18 60
        E 0 90 1f 60
        E 0 90 54 60
        E 0 90 56 60
        E 0 90 60 60
        E 0 90 62 60
        E 60 80 18 00
        E 0 80 1f 00
        E 0 80 54 00
        E 0 80 56 00
        E 0 80 60 00
        E 0 80 62 00
        E 180 90 18 60
        E 0 90 1f 60
        E 0 90 3e 60
        E 0 90 48 60
        E 0 90 4a 60
        E 0 90 54 60
        E 0 90 56 60
        E 0 90 60 60
        E 0 90 62 60
        E 60 80 18 00
        E 0 80 48 00
        E 0 80 54 00
        E 0 80 60 00
        E 1 80 1f 00
        E 0 80 3e 00
        E 0 80 4a 00
        E 0 80 56 00
        E 0 80 62 00
        E 179 90 1f 60
        E 0 90 56 60
        E 0 90 62 60
        E 60 80 1f 00
        E 0 80 56 00
        E 0 80 62 00
        E 180 90 1a 60
        E 0 90 1f 60
        E 0 90 3d 60
        E 0 90 3e 60
        E 0 90 49 60
        E 0 90 4a 60
        E 0 90 55 60
        E 0 90 56 60
        E 0 90 61 60
        E 0 90 62 60
        E 60 80 1a 00
        E 0 80 1f 00
        E 0 80 3d 00
        E 0 80 3e 00
        E 0 80 49 00
        E 0 80 4a 00
        E 0 80 55 00
        E 0 80 56 00
        E 0 80 61 00
        E 0 80 62 00
        E 180 90 18 60
        E 0 90 1f 60
        E 0 90 54 60
        E 0 90 56 60
        E 0 90 60 60
        E 0 90 62 60
        E 60 80 18 00
        E 0 80 1f 00
        E 0 80 54 00
        E 0 80 56 00
        E 0 80 60 00
        E 0 80 62 00
        E 180 90 18 60
        E 0 90 1f 60
        E 0 90 3e 60
        E 0 90 48 60
        E 0 90 4a 60
        E 0 90 54 60
        E 0 90 56 60
        E 0 90 60 60
        E 0 90 62 60
        E 60 80 18 00
        E 0 80 1f 00
        E 0 80 3e 00
        E 0 80 48 00
        E 0 80 4a 00
        E 0 80 54 00
        E 0 80 56 00
        E 0 80 60 00
        E 0 80 62 00
        E 180 90 1f 60
        E 0 90 56 60
        E 0 90 62 60
        E 60 80 1f 00
        E 0 80 56 00
        E 0 80 62 00
        E 180 90 1a 60
        E 0 90 1f 60
        E 0 90 3d 60
        E 0 90 3e 60
        E 0 90 49 60
        E 0 90 4a 60
        E 0 90 55 60
        E 0 90 56 60
        E 0 90 61 60
        E 0 90 62 60
        E 60 80 1a 00
        E 0 80 1f 00
        E 0 80 3d 00
        E 0 80 3e 00
        E 0 80 49 00
        E 0 80 4a 00
        E 0 80 55 00
        E 0 80 56 00
        E 0 80 61 00
        E 0 80 62 00
        E 180 90 18 60
        E 0 90 1f 60
        E 0 90 54 60
        E 0 90 56 60
        E 0 90 60 60
        E 0 90 62 60
        E 60 80 18 00
        E 0 80 1f 00
        E 0 80 54 00
        E 0 80 56 00
        E 0 80 60 00
        E 0 80 62 00
        E 180 90 18 60
        E 0 90 1f 60
        E 0 90 3e 60
        E 0 90 48 60
        E 0 90 4a 60
        E 0 90 54 60
        E 0 90 56 60
        E 0 90 60 60
        E 0 90 62 60
        E 60 80 18 00
        E 0 80 48 00
        E 0 80 54 00
        E 0 80 60 00
        E 1 80 1f 00
        E 0 80 3e 00
        E 0 80 4a 00
        E 0 80 56 00
        E 0 80 62 00
        E 179 90 1f 60
        E 0 90 56 60
        E 0 90 62 60
        E 60 80 1f 00
        E 0 80 56 00
        E 0 80 62 00
        E 180 90 1a 60
        E 0 90 1f 60
        E 0 90 3d 60
        E 0 90 3e 60
        E 0 90 49 60
        E 0 90 4a 60
        E 0 90 55 60
        E 0 90 56 60
        E 0 90 61 60
        E 0 90 62 60
        E 60 80 1a 00
        E 0 80 1f 00
        E 0 80 3d 00
        E 0 80 3e 00
        E 0 80 49 00
        E 0 80 4a 00
        E 0 80 55 00
        E 0 80 56 00
        E 0 80 61 00
        E 0 80 62 00
        E 180 90 18 60
        E 0 90 1f 60
        E 0 90 54 60
        E 0 90 56 60
        E 0 90 60 60
        E 0 90 62 60
        E 60 80 18 00
        E 0 80 1f 00
        E 0 80 54 00
        E 0 80 56 00
        E 0 80 60 00
        E 0 80 62 00
        E 180 90 18 60
        E 0 90 1f 60
        E 0 90 3e 60
        E 0 90 48 60
        E 0 90 4a 60
        E 0 90 54 60
        E 0 90 56 60
        E 0 90 60 60
        E 0 90 62 60
        E 60 80 18 00
        E 0 80 1f 00
        E 0 80 3e 00
        E 0 80 48 00
        E 0 80 4a 00
        E 0 80 54 00
        E 0 80 56 00
        E 0 80 60 00
        E 0 80 62 00
        E 180 90 1f 60
        E 0 90 56 60
        E 0 90 62 60
        E 60 80 1f 00
        E 0 80 56 00
        E 0 80 62 00
        E 180 90 1a 60
        E 0 90 1f 60
        E 0 90 3d 60
        E 0 90 3e 60
        E 0 90 49 60
        E 0 90 4a 60
        E 0 90 55 60
        E 0 90 56 60
        E 0 90 61 60
        E 0 90 62 60
        E 60 80 1a 00
        E 0 80 1f 00
        E 0 80 3d 00
        E 0 80 3e 00
        E 0 80 49 00
        E 0 80 4a 00
        E 0 80 55 00
        E 0 80 56 00
        E 0 80 61 00
        E 0 80 62 00
        E 180 90 18 60
        E 0 90 1f 60
        E 0 90 54 60
        E 0 90 56 60
        E 0 90 60 60
        E 0 90 62 60
        E 60 80 18 00
        E 0 80 1f 00
        E 0 80 54 00
        E 0 80 56 00
        E 0 80 60 00
        E 0 80 62 00
        E 180 90 18 60
        E 0 90 1f 60
        E 0 90 3e 60
        E 0 90 48 60
        E 0 90 4a 60
        E 0 90 54 60
        E 0 90 56 60
        E 0 90 60 60
        E 0 90 62 60
        E 0 90 78 60
        E 0 90 79 60
        E 0 90 7a 60
        E 0 90 7b 60
        E 0 90 7c 60
        E 60 80 18 00
        E 0 80 48 00
        E 0 80 54 00
        E 0 80 60 00
        E 1 80 1f 00
        E 0 80 3e 00
        E 0 80 4a 00
        E 0 80 56 00
        E 0 80 62 00
        E 179 90 1f 60
        E 0 90 56 60
        E 0 90 62 60
        E 60 80 1f 00
        E 0 80 56 00
        E 0 80 62 00
        E 180 90 1a 60
        E 0 90 1f 60
        E 0 90 3d 60
        E 0 90 3e 60
        E 0 90 49 60
        E 0 90 4a 60
        E 0 90 55 60
        E 0 90 56 60
        E 0 90 61 60
        E 0 90 62 60
        E 60 80 1a 00
        E 0 80 1f 00
        E 0 80 3d 00
        E 0 80 3e 00
        E 0 80 49 00
        E 0 80 4a 00
        E 0 80 55 00
        E 0 80 56 00
        E 0 80 61 00
        E 0 80 62 00
        E 180 90 18 60
        E 0 90 1f 60
        E 0 90 54 60
        E 0 90 56 60
        E 0 90 60 60
        E 0 90 62 60
        E 60 80 18 00
        E 0 80 1f 00
        E 0 80 54 00
        E 0 80 56 00
        E 0 80 60 00
        E 0 80 62 00
        E 180 80 78 00
        E 0 80 79 00
        E 0 80 7a 00
        E 0 80 7b 00
        E 0 80 7c 00
        E 0 90 18 60
        E 0 90 26 60
        E 0 90 40 60
        E 0 90 48 60
        E 0 90 4c 60
        E 0 90 54 60
        E 0 90 58 60
        E 0 90 60 60
        E 0 90 64 60
        E 60 80 18 00
        E 0 80 26 00
        E 0 80 40 00
        E 0 80 48 00
        E 0 80 4c 00
        E 0 80 54 00
        E 0 80 58 00
        E 0 80 60 00
        E 0 80 64 00
        E 180 90 1f 60
        E 0 90 56 60
        E 0 90 62 60
        E 60 80 1f 00
        E 0 80 56 00
        E 0 80 62 00
        E 180 90 1a 60
        E 0 90 1f 60
        E 0 90 3d 60
        E 0 90 3e 60
        E 0 90 49 60
        E 0 90 4a 60
        E 0 90 55 60
        E 0 90 56 60
        E 0 90 61 60
        E 0 90 62 60
        E 60 80 1a 00
        E 0 80 1f 00
        E 0 80 3d 00
        E 0 80 3e 00
        E 0 80 49 00
        E 0 80 4a 00
        E 0 80 55 00
        E 0 80 56 00
        E 0 80 61 00
        E 0 80 62 00
        E 180 90 18 60
        E 0 90 1f 60
        E 0 90 54 60
        E 0 90 56 60
        E 0 90 60 60
        E 0 90 62 60
        E 60 80 18 00
        E 0 80 1f 00
        E 0 80 54 00
        E 0 80 56 00
        E 0 80 60 00
        E 0 80 62 00
        E 180 90 18 60
        E 0 90 1f 60
        E 0 90 3e 60
        E 0 90 48 60
        E 0 90 4a 60
        E 0 90 54 60
        E 0 90 56 60
        E 0 90 60 60
        E 0 90 62 60
        E 60 80 18 00
        E 0 80 48 00
        E 0 80 54 00
        E 0 80 60 00
        E 1 80 1f 00
        E 0 80 3e 00
        E 0 80 4a 00
        E 0 80 56 00
        E 0 80 62 00
        E 179 90 1f 60
        E 0 90 56 60
        E 0 90 62 60
        E 60 80 1f 00
        E 0 80 56 00
        E 0 80 62 00
        E 180 90 1a 60
        E 0 90 1f 60
        E 0 90 3d 60
        E 0 90 3e 60
        E 0 90 49 60
        E 0 90 4a 60
        E 0 90 55 60
        E 0 90 56 60
        E 0 90 61 60
        E 0 90 62 60
        E 60 80 1a 00
        E 0 80 1f 00
        E 0 80 3d 00
        E 0 80 3e 00
        E 0 80 49 00
        E 0 80 4a 00
        E 0 80 55 00
        E 0 80 56 00
        E 0 80 61 00
        E 0 80 62 00
        E 180 90 18 60
        E 0 90 1f 60
        E 0 90 54 60
        E 0 90 56 60
        E 0 90 60 60
        E 0 90 62 60
        E 60 80 18 00
        E 0 80 1f 00
        E 0 80 54 00
        E 0 80 56 00
        E 0 80 60 00
        E 0 80 62 00
        E 180 90 18 60
        E 0 90 1f 60
        E 0 90 3e 60
        E 0 90 48 60
        E 0 90 4a 60
        E 0 90 54 60
        E 0 90 56 60
        E 0 90 60 60
        E 0 90 62 60
        E 60 80 18 00
        E 0 80 1f 00
        E 0 80 3e 00
        E 0 80 48 00
        E 0 80 4a 00
        E 0 80 54 00
        E 0 80 56 00
        E 0 80 60 00
        E 0 80 62 00
        E 180 90 1f 60
        E 0 90 56 60
        E 0 90 62 60
        E 60 80 1f 00
        E 0 80 56 00
        E 0 80 62 00
        E 180 90 1a 60
        E 0 90 1f 60
        E 0 90 3d 60
        E 0 90 3e 60
        E 0 90 49 60
        E 0 90 4a 60
        E 0 90 55 60
        E 0 90 56 60
        E 0 90 61 60
        E 0 90 62 60
        E 60 80 1a 00
        E 0 80 1f 00
        E 0 80 3d 00
        E 0 80 3e 00
        E 0 80 49 00
        E 0 80 4a 00
        E 0 80 55 00
        E 0 80 56 00
        E 0 80 61 00
        E 0 80 62 00
        E 180 90 18 60
        E 0 90 1f 60
        E 0 90 54 60
        E 0 90 56 60
        E 0 90 60 60
        E 0 90 62 60
        E 60 80 18 00
        E 0 80 1f 00
        E 0 80 54 00
        E 0 80 56 00
        E 0 80 60 00
        E 0 80 62 00
        E 180 90 18 60
        E 0 90 1f 60
        E 0 90 3e 60
        E 0 90 48 60
        E 0 90 4a 60
        E 0 90 54 60
        E 0 90 56 60
        E 0 90 60 60
        E 0 90 62 60
        E 60 80 18 00
        E 0 80 48 00
        E 0 80 54 00
        E 0 80 60 00
        E 1 80 1f 00
        E 0 80 3e 00
        E 0 80 4a 00
        E 0 80 56 00
        E 0 80 62 00
        E 179 90 1f 60
        E 0 90 56 60
        E 0 90 62 60
        E 60 80 1f 00
        E 0 80 56 00
        E 0 80 62 00
        E 180 90 1a 60
        E 0 90 1f 60
        E 0 90 3d 60
        E 0 90 3e 60
        E 0 90 49 60
        E 0 90 4a 60
        E 0 90 55 60
        E 0 90 56 60
        E 0 90 61 60
        E 0 90 62 60
        E 60 80 1a 00
        E 0 80 1f 00
        E 0 80 3d 00
        E 0 80 3e 00
        E 0 80 49 00
        E 0 80 4a 00
        E 0 80 55 00
        E 0 80 56 00
        E 0 80 61 00
        E 0 80 62 00
        E 180 90 18 60
        E 0 90 1f 60
        E 0 90 54 60
        E 0 90 56 60
        E 0 90 60 60
        E 0 90 62 60
        E 60 80 18 00
        E 0 80 1f 00
        E 0 80 54 00
        E 0 80 56 00
        E 0 80 60 00
        E 0 80 62 00
        E 180 90 18 60
        E 0 90 1f 60
        E 0 90 3e 60
        E 0 90 48 60
        E 0 90 4a 60
        E 0 90 54 60
        E 0 90 56 60
        E 0 90 60 60
        E 0 90 62 60
        E 60 80 18 00
        E 0 80 1f 00
        E 0 80 3e 00
        E 0 80 48 00
        E 0 80 4a 00
        E 0 80 54 00
        E 0 80 56 00
        E 0 80 60 00
        E 0 80 62 00
        E 180 90 1f 60
        E 0 90 56 60
        E 0 90 62 60
        E 60 80 1f 00
        E 0 80 56 00
        E 0 80 62 00
        E 180 90 1a 60
        E 0 90 1f 60
        E 0 90 3d 60
        E 0 90 3e 60
        E 0 90 49 60
        E 0 90 4a 60
        E 0 90 55 60
        E 0 90 56 60
        E 0 90 61 60
        E 0 90 62 60
        E 60 80 1a 00
        E 0 80 1f 00
        E 0 80 3d 00
        E 0 80 3e 00
        E 0 80 49 00
        E 0 80 4a 00
        E 0 80 55 00
        E 0 80 56 00
        E 0 80 61 00
        E 0 80 62 00
        E 180 90 18 60
        E 0 90 1f 60
        E 0 90 54 60
        E 0 90 56 60
        E 0 90 60 60
        E 0 90 62 60
        E 60 80 18 00
        E 0 80 1f 00
        E 0 80 54 00
        E 0 80 56 00
        E 0 80 60 00
        E 0 80 62 00
        E 180 90 18 60
        E 0 90 1f 60
        E 0 90 3e 60
        E 0 90 48 60
        E 0 90 4a 60
        E 0 90 54 60
        E 0 90 56 60
        E 0 90 60 60
        E 0 90 62 60
        E 60 80 18 00
        E 0 80 48 00
        E 0 80 54 00
        E 0 80 60 00
        E 1 80 1f 00
        E 0 80 3e 00
        E 0 80 4a 00
        E 0 80 56 00
        E 0 80 62 00
        E 179 90 1f 60
        E 0 90 56 60
        E 0 90 62 60
        E 60 80 1f 00
        E 0 80 56 00
        E 0 80 62 00
        E 180 90 1a 60
        E 0 90 1f 60
        E 0 90 3d 60
        E 0 90 3e 60
        E 0 90 49 60
        E 0 90 4a 60
        E 0 90 55 60
        E 0 90 56 60
        E 0 90 61 60
        E 0 90 62 60
        E 60 80 1a 00
        E 0 80 1f 00
        E 0 80 3d 00
        E 0 80 3e 00
        E 0 80 49 00
        E 0 80 4a 00
        E 0 80 55 00
        E 0 80 56 00
        E 0 80 61 00
        E 0 80 62 00
        E 180 90 18 60
        E 0 90 1f 60
        E 0 90 54 60
        E 0 90 56 60
        E 0 90 60 60
        E 0 90 62 60
        E 60 80 18 00
        E 0 80 1f 00
        E 0 80 54 00
        E 0 80 56 00
        E 0 80 60 00
        E 0 80 62 00
        E 180 90 18 60
        E 0 90 1f 60
        E 0 90 3e 60
        E 0 90 48 60
        E 0 90 4a 60
        E 0 90 54 60
        E 0 90 56 60
        E 0 90 60 60
        E 0 90 62 60
        E 60 80 18 00
        E 0 80 1f 00
        E 0 80 3e 00
        E 0 80 48 00
        E 0 80 4a 00
        E 0 80 54 00
        E 0 80 56 00
        E 0 80 60 00
        E 0 80 62 00
        E 180 90 1f 60
        E 0 90 56 60
        E 0 90 62 60
        E 60 80 1f 00
        E 0 80 56 00
        E 0 80 62 00
        E 180 90 1a 60
        E 0 90 1f 60
        E 0 90 3d 60
        E 0 90 3e 60
        E 0 90 49 60
        E 0 90 4a 60
        E 0 90 55 60
        E 0 90 56 60
        E 0 90 61 60
        E 0 90 62 60
        E 60 80 1a 00
        E 0 80 1f 00
        E 0 80 3d 00
        E 0 80 3e 00
        E 0 80 49 00
        E 0 80 4a 00
        E 0 80 55 00
        E 0 80 56 00
        E 0 80 61 00
        E 0 80 62 00
        E 180 90 18 60
        E 0 90 1f 60
        E 0 90 54 60
        E 0 90 56 60
        E 0 90 60 60
        E 0 90 62 60
        E 60 80 18 00
        E 0 80 1f 00
        E 0 80 54 00
        E 0 80 56 00
        E 0 80 60 00
        E 0 80 62 00
        E 180 90 18 60
        E 0 90 1f 60
        E 0 90 3e 60
        E 0 90 48 60
        E 0 90 4a 60
        E 0 90 54 60
        E 0 90 56 60
        E 0 90 60 60
        E 0 90 62 60
        E 60 80 18 00
        E 0 80 48 00
        E 0 80 54 00
        E 0 80 60 00
        E 1 80 1f 00
        E 0 80 3e 00
        E 0 80 4a 00
        E 0 80 56 00
        E 0 80 62 00
        E 179 90 1f 60
        E 0 90 56 60
        E 0 90 62 60
        E 60 80 1f 00
        E 0 80 56 00
        E 0 80 62 00
        E 180 90 1a 60
        E 0 90 1f 60
        E 0 90 3d 60
        E 0 90 3e 60
        E 0 90 49 60
        E 0 90 4a 60
        E 0 90 55 60
        E 0 90 56 60
        E 0 90 61 60
        E 0 90 62 60
        E 60 80 1a 00
        E 0 80 1f 00
        E 0 80 3d 00
        E 0 80 3e 00
        E 0 80 49 00
        E 0 80 4a 00
        E 0 80 55 00
        E 0 80 56 00
        E 0 80 61 00
        E 0 80 62 00
        E 180 90 18 60
        E 0 90 1f 60
        E 0 90 54 60
        E 0 90 56 60
        E 0 90 60 60
        E 0 90 62 60
        E 60 80 18 00
        E 0 80 1f 00
        E 0 80 54 00
        E 0 80 56 00
        E 0 80 60 00
        E 0 80 62 00
        E 180 90 18 60
        E 0 90 1f 60
        E 0 90 3e 60
        E 0 90 48 60
        E 0 90 4a 60
        E 0 90 54 60
        E 0 90 56 60
        E 0 90 60 60
        E 0 90 62 60
        E 60 80 18 00
        E 0 80 1f 00
        E 0 80 3e 00
        E 0 80 48 00
        E 0 80 4a 00
        E 0 80 54 00
        E 0 80 56 00
        E 0 80 60 00
        E 0 80 62 00
        E 180 90 1f 60
        E 0 90 56 60
        E 0 90 62 60
        E 60 80 1f 00
        E 0 80 56 00
        E 0 80 62 00
        E 180 90 1a 60
        E 0 90 1f 60
        E 0 90 3d 60
        E 0 90 3e 60
        E 0 90 49 60
        E 0 90 4a 60
        E 0 90 55 60
        E 0 90 56 60
        E 0 90 61 60
        E 0 90 62 60
        E 60 80 1a 00
        E 0 80 1f 00
        E 0 80 3d 00
        E 0 80 3e 00
        E 0 80 49 00
        E 0 80 4a 00
        E 0 80 55 00
        E 0 80 56 00
        E 0 80 61 00
        E 0 80 62 00
        E 180 90 18 60
        E 0 90 1f 60
        E 0 90 54 60
        E 0 90 56 60
        E 0 90 60 60
        E 0 90 62 60
        E 60 80 18 00
        E 0 80 1f 00
        E 0 80 54 00
        E 0 80 56 00
        E 0 80 60 00
        E 0 80 62 00
        E 180 90 18 60
        E 0 90 1f 60
        E 0 90 3e 60
        E 0 90 48 60
        E 0 90 4a 60
        E 0 90 54 60
        E 0 90 56 60
        E 0 90 60 60
        E 0 90 62 60
        E 0 90 74 60
        E 60 80 18 00
        E 0 80 48 00
        E 0 80 54 00
        E 0 80 60 00
        E 1 80 1f 00
        E 0 80 3e 00
        E 0 80 4a 00
        E 0 80 56 00
        E 0 80 62 00
        E 179 90 1f 60
        E 0 90 56 60
        E 0 90 62 60
        E 60 80 1f 00
        E 0 80 56 00
        E 0 80 62 00
        E 180 90 1a 60
        E 0 90 1f 60
        E 0 90 3d 60
        E 0 90 3e 60
        E 0 90 49 60
        E 0 90 4a 60
        E 0 90 55 60
        E 0 90 56 60
        E 0 90 61 60
        E 0 90 62 60
        E 60 80 1a 00
        E 0 80 1f 00
        E 0 80 3d 00
        E 0 80 3e 00
        E 0 80 49 00
        E 0 80 4a 00
        E 0 80 55 00
        E 0 80 56 00
        E 0 80 61 00
        E 0 80 62 00
        E 180 90 18 60
        E 0 90 1f 60
        E 0 90 54 60
        E 0 90 56 60
        E 0 90 60 60
        E 0 90 62 60
        E 60 80 18 00
        E 0 80 1f 00
        E 0 80 54 00
        E 0 80 56 00
        E 0 80 60 00
        E 0 80 62 00
        E 180 90 18 60
        E 0 90 26 60
        E 0 90 40 60
        E 0 90 48 60
        E 0 90 4c 60
        E 0 90 54 60
        E 0 90 58 60
        E 0 90 60 60
        E 0 90 64 60
        E 60 80 74 00
        E 0 80 18 00
        E 0 80 26 00
        E 0 80 40 00
        E 0 80 48 00
        E 0 80 4c 00
        E 0 80 54 00
        E 0 80 58 00
        E 0 80 60 00
        E 0 80 64 00
        E 180 90 1f 60
        E 0 90 56 60
        E 0 90 62 60
        E 60 80 1f 00
        E 0 80 56 00
        E 0 80 62 00
        E 180 90 1a 60
        E 0 90 1f 60
        E 0 90 3d 60
        E 0 90 3e 60
        E 0 90 49 60
        E 0 90 4a 60
        E 0 90 55 60
        E 0 90 56 60
        E 0 90 61 60
        E 0 90 62 60
        E 60 80 1a 00
        E 0 80 1f 00
        E 0 80 3d 00
        E 0 80 3e 00
        E 0 80 49 00
        E 0 80 4a 00
        E 0 80 55 00
        E 0 80 56 00
        E 0 80 61 00
        E 0 80 62 00
        E 180 90 18 60
        E 0 90 1f 60
        E 0 90 54 60
        E 0 90 56 60
        E 0 90 60 60
        E 0 90 62 60
        E 60 80 18 00
        E 0 80 1f 00
        E 0 80 54 00
        E 0 80 56 00
        E 0 80 60 00
        E 0 80 62 00
        E 180 90 18 60
        E 0 90 1f 60
        E 0 90 3e 60
        E 0 90 48 60
        E 0 90 4a 60
        E 0 90 54 60
        E 0 90 56 60
        E 0 90 60 60
        E 0 90 62 60
        E 60 80 18 00
        E 0 80 48 00
        E 0 80 54 00
        E 0 80 60 00
        E 1 80 1f 00
        E 0 80 3e 00
        E 0 80 4a 00
        E 0 80 56 00
        E 0 80 62 00
        E 179 90 1f 60
        E 0 90 56 60
        E 0 90 62 60
        E 60 80 1f 00
        E 0 80 56 00
        E 0 80 62 00
        E 180 90 1a 60
        E 0 90 1f 60
        E 0 90 3d 60
        E 0 90 3e 60
        E 0 90 49 60
        E 0 90 4a 60
        E 0 90 55 60
        E 0 90 56 60
        E 0 90 61 60
        E 0 90 62 60
        E 60 80 1a 00
        E 0 80 1f 00
        E 0 80 3d 00
        E 0 80 3e 00
        E 0 80 49 00
        E 0 80 4a 00
        E 0 80 55 00
        E 0 80 56 00
        E 0 80 61 00
        E 0 80 62 00
        E 180 90 18 60
        E 0 90 1f 60
        E 0 90 54 60
        E 0 90 56 60
        E 0 90 60 60
        E 0 90 62 60
        E 60 80 18 00
        E 0 80 1f 00
        E 0 80 54 00
        E 0 80 56 00
        E 0 80 60 00
        E 0 80 62 00
        E 180 90 18 60
        E 0 90 1f 60
        E 0 90 3e 60
        E 0 90 48 60
        E 0 90 4a 60
        E 0 90 54 60
        E 0 90 56 60
        E 0 90 60 60
        E 0 90 62 60
        E 60 80 18 00
        E 0 80 1f 00
        E 0 80 3e 00
        E 0 80 48 00
        E 0 80 4a 00
        E 0 80 54 00
        E 0 80 56 00
        E 0 80 60 00
        E 0 80 62 00
        E 180 90 1f 60
        E 0 90 56 60
        E 0 90 62 60
        E 60 80 1f 00
        E 0 80 56 00
        E 0 80 62 00
        E 180 90 1a 60
        E 0 90 1f 60
        E 0 90 3d 60
        E 0 90 3e 60
        E 0 90 49 60
        E 0 90 4a 60
        E 0 90 55 60
        E 0 90 56 60
        E 0 90 61 60
        E 0 90 62 60
        E 60 80 1a 00
        E 0 80 1f 00
        E 0 80 3d 00
        E 0 80 3e 00
        E 0 80 49 00
        E 0 80 4a 00
        E 0 80 55 00
        E 0 80 56 00
        E 0 80 61 00
        E 0 80 62 00
        E 180 90 18 60
        E 0 90 1f 60
        E 0 90 54 60
        E 0 90 56 60
        E 0 90 60 60
        E 0 90 62 60
        E 60 80 18 00
        E 0 80 1f 00
        E 0 80 54 00
        E 0 80 56 00
        E 0 80 60 00
        E 0 80 62 00
        E 180 90 18 60
        E 0 90 1f 60
        E 0 90 3e 60
        E 0 90 48 60
        E 0 90 4a 60
        E 0 90 54 60
        E 0 90 56 60
        E 0 90 60 60
        E 0 90 62 60
        E 60 80 18 00
        E 0 80 48 00
        E 0 80 54 00
        E 0 80 60 00
        E 1 80 1f 00
        E 0 80 3e 00
        E 0 80 4a 00
        E 0 80 56 00
        E 0 80 62 00
        E 179 90 1f 60
        E 0 90 56 60
        E 0 90 62 60
        E 60 80 1f 00
        E 0 80 56 00
        E 0 80 62 00
        E 180 90 1a 60
        E 0 90 1f 60
        E 0 90 3d 60
        E 0 90 3e 60
        E 0 90 49 60
        E 0 90 4a 60
        E 0 90 55 60
        E 0 90 56 60
        E 0 90 61 60
        E 0 90 62 60
        E 60 80 1a 00
        E 0 80 1f 00
        E 0 80 3d 00
        E 0 80 3e 00
        E 0 80 49 00
        E 0 80 4a 00
        E 0 80 55 00
        E 0 80 56 00
        E 0 80 61 00
        E 0 80 62 00
        E 180 90 18 60
        E 0 90 1f 60
        E 0 90 54 60
        E 0 90 56 60
        E 0 90 60 60
        E 0 90 62 60
        E 60 80 18 00
        E 0 80 1f 00
        E 0 80 54 00
        E 0 80 56 00
        E 0 80 60 00
        E 0 80 62 00
        E 180 90 18 60
        E 0 90 1f 60
        E 0 90 3e 60
        E 0 90 48 60
        E 0 90 4a 60
        E 0 90 54 60
        E 0 90 56 60
        E 0 90 60 60
        E 0 90 62 60
        E 60 80 18 00
        E 0 80 1f 00
        E 0 80 3e 00
        E 0 80 48 00
        E 0 80 4a 00
        E 0 80 54 00
        E 0 80 56 00
        E 0 80 60 00
        E 0 80 62 00
        E 180 90 1f 60
        E 0 90 56 60
        E 0 90 62 60
        E 60 80 1f 00
        E 0 80 56 00
        E 0 80 62 00
        E 180 90 1a 60
        E 0 90 1f 60
        E 0 90 3d 60
        E 0 90 3e 60
        E 0 90 49 60
        E 0 90 4a 60
        E 0 90 55 60
        E 0 90 56 60
        E 0 90 61 60
        E 0 90 62 60
        E 60 80 1a 00
        E 0 80 1f 00
        E 0 80 3d 00
        E 0 80 3e 00
        E 0 80 49 00
        E 0 80 4a 00
        E 0 80 55 00
        E 0 80 56 00
        E 0 80 61 00
        E 0 80 62 00
        E 180 90 18 60
        E 0 90 1f 60
        E 0 90 54 60
        E 0 90 56 60
        E 0 90 60 60
        E 0 90 62 60
        E 60 80 18 00
        E 0 80 1f 00
        E 0 80 54 00
        E 0 80 56 00
        E 0 80 60 00
        E 0 80 62 00
        E 180 90 18 60
        E 0 90 1f 60
        E 0 90 3e 60
        E 0 90 48 60
        E 0 90 4a 60
        E 0 90 54 60
        E 0 90 56 60
        E 0 90 60 60
        E 0 90 62 60
        E 60 80 18 00
        E 0 80 48 00
        E 0 80 54 00
        E 0 80 60 00
        E 1 80 1f 00
        E 0 80 3e 00
        E 0 80 4a 00
        E 0 80 56 00
        E 0 80 62 00
        E 179 90 1f 60
        E 0 90 56 60
        E 0 90 62 60
        E 60 80 1f 00
        E 0 80 56 00
        E 0 80 62 00
        E 180 90 1a 60
        E 0 90 1f 60
        E 0 90 3d 60
        E 0 90 3e 60
        E 0 90 49 60
        E 0 90 4a 60
        E 0 90 55 60
        E 0 90 56 60
        E 0 90 61 60
        E 0 90 62 60
        E 60 80 1a 00
        E 0 80 1f 00
        E 0 80 3d 00
        E 0 80 3e 00
        E 0 80 49 00
        E 0 80 4a 00
        E 0 80 55 00
        E 0 80 56 00
        E 0 80 61 00
        E 0 80 62 00
        E 180 90 18 60
        E 0 90 1f 60
        E 0 90 54 60
        E 0 90 56 60
        E 0 90 60 60
        E 0 90 62 60
        E 60 80 18 00
        E 0 80 1f 00
        E 0 80 54 00
        E 0 80 56 00
        E 0 80 60 00
        E 0 80 62 00
        E 180 90 18 60
        E 0 90 1f 60
        E 0 90 3e 60
        E 0 90 48 60
        E 0 90 4a 60
        E 0 90 54 60
        E 0 90 56 60
        E 0 90 60 60
        E 0 90 62 60
        E 60 80 18 00
        E 0 80 1f 00
        E 0 80 3e 00
        E 0 80 48 00
        E 0 80 4a 00
        E 0 80 54 00
        E 0 80 56 00
        E 0 80 60 00
        E 0 80 62 00
        E 180 90 1f 60
        E 0 90 56 60
        E 0 90 62 60
        E 60 80 1f 00
        E 0 80 56 00
        E 0 80 62 00
        E 180 90 1a 60
        E 0 90 1f 60
        E 0 90 3d 60
        E 0 90 3e 60
        E 0 90 49 60
        E 0 90 4a 60
        E 0 90 55 60
        E 0 90 56 60
        E 0 90 61 60
        E 0 90 62 60
        E 60 80 1a 00
        E 0 80 1f 00
        E 0 80 3d 00
        E 0 80 3e 00
        E 0 80 49 00
        E 0 80 4a 00
        E 0 80 55 00
        E 0 80 56 00
        E 0 80 61 00
        E 0 80 62 00
        E 180 90 18 60
        E 0 90 1f 60
        E 0 90 54 60
        E 0 90 56 60
        E 0 90 60 60
        E 0 90 62 60
        E 60 80 18 00
        E 0 80 1f 00
        E 0 80 54 00
        E 0 80 56 00
        E 0 80 60 00
        E 0 80 62 00
        E 180 90 18 60
        E 0 90 1f 60
        E 0 90 3e 60
        E 0 90 48 60
        E 0 90 4a 60
        E 0 90 54 60
        E 0 90 56 60
        E 0 90 60 60
        E 0 90 62 60
        E 60 80 18 00
        E 0 80 48 00
        E 0 80 54 00
        E 0 80 60 00
        E 1 80 1f 00
        E 0 80 3e 00
        E 0 80 4a 00
        E 0 80 56 00
        E 0 80 62 00
        E 179 90 18 60
        E 0 90 1f 60
        E 0 90 54 60
        E 0 90 56 60
        E 0 90 60 60
        E 0 90 62 60
        E 60 80 18 00
        E 0 80 1f 00
        E 0 80 54 00
        E 0 80 56 00
        E 0 80 60 00
        E 0 80 62 00
        E 180 90 1a 60
        E 0 90 1f 60
        E 0 90 3d 60
        E 0 90 3e 60
        E 0 90 49 60
        E 0 90 4a 60
        E 0 90 55 60
        E 0 90 56 60
        E 0 90 61 60
        E 0 90 62 60
        E 60 80 1a 00
        E 0 80 1f 00
        E 0 80 3d 00
        E 0 80 3e 00
        E 0 80 49 00
        E 0 80 4a 00
        E 0 80 55 00
        E 0 80 56 00
        E 0 80 61 00
        E 0 80 62 00
        E 180 90 1f 60
        E 0 90 56 60
        E 0 90 62 60
        E 60 80 1f 00
        E 0 80 56 00
        E 0 80 62 00
        E 180 90 18 60
        E 0 90 1f 60
        E 0 90 3e 60
        E 0 90 48 60
        E 0 90 4a 60
        E 0 90 54 60
        E 0 90 56 60
        E 0 90 60 60
        E 0 90 62 60
        E 60 80 18 00
        E 0 80 1f 00
        E 0 80 3e 00
        E 0 80 48 00
        E 0 80 4a 00
        E 0 80 54 00
        E 0 80 56 00
        E 0 80 60 00
        E 0 80 62 00
        E 180 90 1f 60
        E 0 90 56 60
        E 0 90 62 60
        E 60 80 1f 00
        E 0 80 56 00
        E 0 80 62 00
        E 180 90 1a 60
        E 0 90 1f 60
        E 0 90 3d 60
        E 0 90 3e 60
        E 0 90 49 60
        E 0 90 4a 60
        E 0 90 55 60
        E 0 90 56 60
        E 0 90 61 60
        E 0 90 62 60
        E 60 80 1a 00
        E 0 80 1f 00
        E 0 80 3d 00
        E 0 80 3e 00
        E 0 80 49 00
        E 0 80 4a 00
        E 0 80 55 00
        E 0 80 56 00
        E 0 80 61 00
        E 0 80 62 00
        E 180 90 18 60
        E 0 90 1f 60
        E 0 90 54 60
        E 0 90 56 60
        E 0 90 60 60
        E 0 90 62 60
        E 60 80 18 00
        E 0 80 1f 00
        E 0 80 54 00
        E 0 80 56 00
        E 0 80 60 00
        E 0 80 62 00
        E 180 90 18 60
        E 0 90 1f 60
        E 0 90 3e 60
        E 0 90 48 60
        E 0 90 4a 60
        E 0 90 54 60
        E 0 90 56 60
        E 0 90 60 60
        E 0 90 62 60
        E 60 80 18 00
        E 0 80 48 00
        E 0 80 54 00
        E 0 80 60 00
        E 1 80 1f 00
        E 0 80 3e 00
        E 0 80 4a 00
        E 0 80 56 00
        E 0 80 62 00
        E 179 90 1f 60
        E 0 90 56 60
        E 0 90 62 60
        E 60 80 1f 00
        E 0 80 56 00
        E 0 80 62 00
        E 180 90 1a 60
        E 0 90 1f 60
        E 0 90 3d 60
        E 0 90 3e 60
        E 0 90 49 60
        E 0 90 4a 60
        E 0 90 55 60
        E 0 90 56 60
        E 0 90 61 60
        E 0 90 62 60
        E 60 80 1a 00
        E 0 80 1f 00
        E 0 80 3d 00
        E 0 80 3e 00
        E 0 80 49 00
        E 0 80 4a 00
        E 0 80 55 00
        E 0 80 56 00
        E 0 80 61 00
        E 0 80 62 00
        E 180 90 18 60
        E 0 90 1f 60
        E 0 90 54 60
        E 0 90 56 60
        E 0 90 60 60
        E 0 90 62 60
        E 0 90 78 60
        E 0 90 79 60
        E 0 90 7a 60
        E 0 90 7b 60
        E 0 90 7c 60
        E 60 80 18 00
        E 0 80 1f 00
        E 0 80 54 00
        E 0 80 56 00
        E 0 80 60 00
        E 0 80 62 00
        E 180 90 18 60
        E 0 90 1f 60
        E 0 90 3e 60
        E 0 90 48 60
        E 0 90 4a 60
        E 0 90 54 60
        E 0 90 56 60
        E 0 90 60 60
        E 0 90 62 60
        E 60 80 18 00
        E 0 80 1f 00
        E 0 80 3e 00
        E 0 80 48 00
        E 0 80 4a 00
        E 0 80 54 00
        E 0 80 56 00
        E 0 80 60 00
        E 0 80 62 00
        E 180 90 18 60
        E 0 90 1f 60
        E 0 90 54 60
        E 0 90 56 60
        E 0 90 60 60
        E 0 90 62 60
        E 60 80 18 00
        E 0 80 1f 00
        E 0 80 54 00
        E 0 80 56 00
        E 0 80 60 00
        E 0 80 62 00
        E 180 90 1a 60
        E 0 90 2a 60
        E 0 90 3d 60
        E 0 90 3f 60
        E 0 90 49 60
        E 0 90 4b 60
        E 0 90 55 60
        E 0 90 57 60
        E 0 90 61 60
        E 0 90 63 60
        E 60 80 1a 00
        E 0 80 2a 00
        E 0 80 3d 00
        E 0 80 3f 00
        E 0 80 49 00
        E 0 80 4b 00
        E 0 80 55 00
        E 0 80 57 00
        E 0 80 61 00
        E 0 80 63 00
        E 180 90 18 60
        E 0 90 1f 60
        E 0 90 54 60
        E 0 90 56 60
        E 0 90 60 60
        E 0 90 62 60
        E 60 80 18 00
        E 0 80 1f 00
        E 0 80 54 00
        E 0 80 56 00
        E 0 80 60 00
        E 0 80 62 00
        E 180 80 78 00
        E 0 80 79 00
        E 0 80 7a 00
        E 0 80 7b 00
        E 0 80 7c 00
        E 0 90 18 60
        E 0 90 26 60
        E 0 90 40 60
        E 0 90 48 60
        E 0 90 4c 60
        E 0 90 54 60
        E 0 90 58 60
        E 0 90 60 60
        E 0 90 64 60
        E 60 80 18 00
        E 0 80 48 00
        E 0 80 54 00
        E 0 80 60 00
        E 1 80 26 00
        E 0 80 40 00
        E 0 80 4c 00
        E 0 80 58 00
        E 0 80 64 00
        E 179 90 1f 60
        E 0 90 56 60
        E 0 90 62 60
        E 60 80 1f 00
        E 0 80 56 00
        E 0 80 62 00
        E 180 90 1a 60
        E 0 90 1f 60
        E 0 90 3d 60
        E 0 90 3e 60
        E 0 90 49 60
        E 0 90 4a 60
        E 0 90 55 60
        E 0 90 56 60
        E 0 90 61 60
        E 0 90 62 60
        E 60 80 1a 00
        E 0 80 1f 00
        E 0 80 3d 00
        E 0 80 3e 00
        E 0 80 49 00
        E 0 80 4a 00
        E 0 80 55 00
        E 0 80 56 00
        E 0 80 61 00
        E 0 80 62 00
        E 180 90 18 60
        E 0 90 1f 60
        E 0 90 54 60
        E 0 90 56 60
        E 0 90 60 60
        E 0 90 62 60
        E 60 80 18 00
        E 0 80 1f 00
        E 0 80 54 00
        E 0 80 56 00
        E 0 80 60 00
        E 0 80 62 00
        E 180 90 18 60
        E 0 90 1f 60
        E 0 90 3e 60
        E 0 90 48 60
        E 0 90 4a 60
        E 0 90 54 60
        E 0 90 56 60
        E 0 90 60 60
        E 0 90 62 60
        E 60 80 18 00
        E 0 80 1f 00
        E 0 80 3e 00
        E 0 80 48 00
        E 0 80 4a 00
        E 0 80 54 00
        E 0 80 56 00
        E 0 80 60 00
        E 0 80 62 00
        E 180 90 1f 60
        E 0 90 56 60
        E 0 90 62 60
        E 60 80 1f 00
        E 0 80 56 00
        E 0 80 62 00
        E 180 90 1a 60
        E 0 90 1f 60
        E 0 90 3d 60
        E 0 90 3e 60
        E 0 90 49 60
        E 0 90 4a 60
        E 0 90 55 60
        E 0 90 56 60
        E 0 90 61 60
        E 0 90 62 60
        E 60 80 1a 00
        E 0 80 1f 00
        E 0 80 3d 00
        E 0 80 3e 00
        E 0 80 49 00
        E 0 80 4a 00
        E 0 80 55 00
        E 0 80 56 00
        E 0 80 61 00
        E 0 80 62 00
        E 180 90 18 60
        E 0 90 1f 60
        E 0 90 54 60
        E 0 90 56 60
        E 0 90 60 60
        E 0 90 62 60
        E 60 80 18 00
        E 0 80 1f 00
        E 0 80 54 00
        E 0 80 56 00
        E 0 80 60 00
        E 0 80 62 00
        E 180 90 18 60
        E 0 90 26 60
        E 0 90 40 60
        E 0 90 48 60
        E 0 90 4c 60
        E 0 90 54 60
        E 0 90 58 60
        E 0 90 60 60
        E 0 90 64 60
        E 60 80 18 00
        E 0 80 48 00
        E 0 80 54 00
        E 0 80 60 00
        E 1 80 26 00
        E 0 80 40 00
        E 0 80 4c 00
        E 0 80 58 00
        E 0 80 64 00
        E 179 90 1f 60
        E 0 90 56 60
        E 0 90 62 60
        E 60 80 1f 00
        E 0 80 56 00
        E 0 80 62 00
        E 180 90 1a 60
        E 0 90 1f 60
        E 0 90 3d 60
        E 0 90 3e 60
        E 0 90 49 60
        E 0 90 4a 60
        E 0 90 55 60
        E 0 90 56 60
        E 0 90 61 60
        E 0 90 62 60
        E 60 80 1a 00
        E 0 80 1f 00
        E 0 80 3d 00
        E 0 80 3e 00
        E 0 80 49 00
        E 0 80 4a 00
        E 0 80 55 00
        E 0 80 56 00
        E 0 80 61 00
        E 0 80 62 00
        E 180 90 18 60
        E 0 90 1f 60
        E 0 90 54 60
        E 0 90 56 60
        E 0 90 60 60
        E 0 90 62 60
        E 60 80 18 00
        E 0 80 1f 00
        E 0 80 54 00
        E 0 80 56 00
        E 0 80 60 00
        E 0 80 62 00
        E 180 90 18 60
        E 0 90 1f 60
        E 0 90 3e 60
        E 0 90 48 60
        E 0 90 4a 60
        E 0 90 54 60
        E 0 90 56 60
        E 0 90 60 60
        E 0 90 62 60
        E 0 90 74 60
        E 60 80 18 00
        E 0 80 1f 00
        E 0 80 3e 00
        E 0 80 48 00
        E 0 80 4a 00
        E 0 80 54 00
        E 0 80 56 00
        E 0 80 60 00
        E 0 80 62 00
        E 180 90 1f 60
        E 0 90 56 60
        E 0 90 62 60
        E 60 80 1f 00
        E 0 80 56 00
        E 0 80 62 00
        E 180 90 1a 60
        E 0 90 1f 60
        E 0 90 3d 60
        E 0 90 3e 60
        E 0 90 49 60
        E 0 90 4a 60
        E 0 90 55 60
        E 0 90 56 60
        E 0 90 61 60
        E 0 90 62 60
        E 60 80 1a 00
        E 0 80 1f 00
        E 0 80 3d 00
        E 0 80 3e 00
        E 0 80 49 00
        E 0 80 4a 00
        E 0 80 55 00
        E 0 80 56 00
        E 0 80 61 00
        E 0 80 62 00
        E 180 90 18 60
        E 0 90 1f 60
        E 0 90 54 60
        E 0 90 56 60
        E 0 90 60 60
        E 0 90 62 60
        E 60 80 18 00
        E 0 80 1f 00
        E 0 80 54 00
        E 0 80 56 00
        E 0 80 60 00
        E 0 80 62 00
        E 180 90 18 60
        E 0 90 26 60
        E 0 90 40 60
        E 0 90 48 60
        E 0 90 4c 60
        E 0 90 54 60
        E 0 90 58 60
        E 0 90 60 60
        E 0 90 64 60
        E 60 80 74 00
        E 0 80 18 00
        E 0 80 48 00
        E 0 80 54 00
        E 0 80 60 00
        E 1 80 26 00
        E 0 80 40 00
        E 0 80 4c 00
        E 0 80 58 00
        E 0 80 64 00
        E 179 90 1f 60
        E 0 90 56 60
        E 0 90 62 60
        E 60 80 1f 00
        E 0 80 56 00
        E 0 80 62 00
        E 180 90 1a 60
        E 0 90 1f 60
        E 0 90 3d 60
        E 0 90 3e 60
        E 0 90 49 60
        E 0 90 4a 60
        E 0 90 55 60
        E 0 90 56 60
        E 0 90 61 60
        E 0 90 62 60
        E 60 80 1a 00
        E 0 80 1f 00
        E 0 80 3d 00
        E 0 80 3e 00
        E 0 80 49 00
        E 0 80 4a 00
        E 0 80 55 00
        E 0 80 56 00
        E 0 80 61 00
        E 0 80 62 00
        E 180 90 18 60
        E 0 90 1f 60
        E 0 90 54 60
        E 0 90 56 60
        E 0 90 60 60
        E 0 90 62 60
        E 60 80 18 00
        E 0 80 1f 00
        E 0 80 54 00
        E 0 80 56 00
        E 0 80 60 00
        E 0 80 62 00
        E 180 90 18 60
        E 0 90 1f 60
        E 0 90 3e 60
        E 0 90 48 60
        E 0 90 4a 60
        E 0 90 54 60
        E 0 90 56 60
        E 0 90 60 60
        E 0 90 62 60
        E 60 80 18 00
        E 0 80 1f 00
        E 0 80 3e 00
        E 0 80 48 00
        E 0 80 4a 00
        E 0 80 54 00
        E 0 80 56 00
        E 0 80 60 00
        E 0 80 62 00
        E 180 90 1f 60
        E 0 90 56 60
        E 0 90 62 60
        E 60 80 1f 00
        E 0 80 56 00
        E 0 80 62 00
        E 180 90 1a 60
        E 0 90 1f 60
        E 0 90 3d 60
        E 0 90 3e 60
        E 0 90 49 60
        E 0 90 4a 60
        E 0 90 55 60
        E 0 90 56 60
        E 0 90 61 60
        E 0 90 62 60
        E 60 80 1a 00
        E 0 80 1f 00
        E 0 80 3d 00
        E 0 80 3e 00
        E 0 80 49 00
        E 0 80 4a 00
        E 0 80 55 00
        E 0 80 56 00
        E 0 80 61 00
        E 0 80 62 00
        E 180 90 18 60
        E 0 90 1f 60
        E 0 90 54 60
        E 0 90 56 60
        E 0 90 60 60
        E 0 90 62 60
        E 60 80 18 00
        E 0 80 1f 00
        E 0 80 54 00
        E 0 80 56 00
        E 0 80 60 00
        E 0 80 62 00
        E 180 90 18 60
        E 0 90 1f 60
        E 0 90 3e 60
        E 0 90 48 60
        E 0 90 4a 60
        E 0 90 54 60
        E 0 90 56 60
        E 0 90 60 60
        E 0 90 62 60
        E 60 80 18 00
        E 0 80 48 00
        E 0 80 54 00
        E 0 80 60 00
        E 1 80 1f 00
        E 0 80 3e 00
        E 0 80 4a 00
        E 0 80 56 00
        E 0 80 62 00
        E 179 90 1f 60
        E 0 90 56 60
        E 0 90 62 60
        E 60 80 1f 00
        E 0 80 56 00
        E 0 80 62 00
        E 180 90 1a 60
        E 0 90 1f 60
        E 0 90 3d 60
        E 0 90 3e 60
        E 0 90 49 60
        E 0 90 4a 60
        E 0 90 55 60
        E 0 90 56 60
        E 0 90 61 60
        E 0 90 62 60
        E 60 80 1a 00
        E 0 80 1f 00
        E 0 80 3d 00
        E 0 80 3e 00
        E 0 80 49 00
        E 0 80 4a 00
        E 0 80 55 00
        E 0 80 56 00
        E 0 80 61 00
        E 0 80 62 00
        E 180 90 18 60
        E 0 90 1f 60
        E 0 90 54 60
        E 0 90 56 60
        E 0 90 60 60
        E 0 90 62 60
        E 60 80 18 00
        E 0 80 1f 00
        E 0 80 54 00
        E 0 80 56 00
        E 0 80 60 00
        E 0 80 62 00
        E 180 90 18 60
        E 0 90 1f 60
        E 0 90 3e 60
        E 0 90 48 60
        E 0 90 4a 60
        E 0 90 54 60
        E 0 90 56 60
        E 0 90 60 60
        E 0 90 62 60
        E 60 80 18 00
        E 0 80 1f 00
        E 0 80 3e 00
        E 0 80 48 00
        E 0 80 4a 00
        E 0 80 54 00
        E 0 80 56 00
        E 0 80 60 00
        E 0 80 62 00
        E 180 90 1f 60
        E 0 90 56 60
        E 0 90 62 60
        E 60 80 1f 00
        E 0 80 56 00
        E 0 80 62 00
        E 180 90 1a 60
        E 0 90 1f 60
        E 0 90 3d 60
        E 0 90 3e 60
        E 0 90 49 60
        E 0 90 4a 60
        E 0 90 55 60
        E 0 90 56 60
        E 0 90 61 60
        E 0 90 62 60
        E 60 80 1a 00
        E 0 80 1f 00
        E 0 80 3d 00
        E 0 80 3e 00
        E 0 80 49 00
        E 0 80 4a 00
        E 0 80 55 00
        E 0 80 56 00
        E 0 80 61 00
        E 0 80 62 00
        E 180 90 18 60
        E 0 90 1f 60
        E 0 90 54 60
        E 0 90 56 60
        E 0 90 60 60
        E 0 90 62 60
        E 60 80 18 00
        E 0 80 1f 00
        E 0 80 54 00
        E 0 80 56 00
        E 0 80 60 00
        E 0 80 62 00
        E 180 90 18 60
        E 0 90 1f 60
        E 0 90 3e 60
        E 0 90 48 60
        E 0 90 4a 60
        E 0 90 54 60
        E 0 90 56 60
        E 0 90 60 60
        E 0 90 62 60
        E 60 80 18 00
        E 0 80 48 00
        E 0 80 54 00
        E 0 80 60 00
        E 1 80 1f 00
        E 0 80 3e 00
        E 0 80 4a 00
        E 0 80 56 00
        E 0 80 62 00
        E 179 90 1f 60
        E 0 90 56 60
        E 0 90 62 60
        E 60 80 1f 00
        E 0 80 56 00
        E 0 80 62 00
        E 180 90 1a 60
        E 0 90 1f 60
        E 0 90 3d 60
        E 0 90 3e 60
        E 0 90 49 60
        E 0 90 4a 60
        E 0 90 55 60
        E 0 90 56 60
        E 0 90 61 60
        E 0 90 62 60
        E 60 80 1a 00
        E 0 80 1f 00
        E 0 80 3d 00
        E 0 80 3e 00
        E 0 80 49 00
        E 0 80 4a 00
        E 0 80 55 00
        E 0 80 56 00
        E 0 80 61 00
        E 0 80 62 00
        E 180 90 18 60
        E 0 90 1f 60
        E 0 90 54 60
        E 0 90 56 60
        E 0 90 60 60
        E 0 90 62 60
        E 60 80 18 00
        E 0 80 1f 00
        E 0 80 54 00
        E 0 80 56 00
        E 0 80 60 00
        E 0 80 62 00
        E 180 90 18 60
        E 0 90 1f 60
        E 0 90 3e 60
        E 0 90 48 60
        E 0 90 4a 60
        E 0 90 54 60
        E 0 90 56 60
        E 0 90 60 60
        E 0 90 62 60
        E 60 80 18 00
        E 0 80 1f 00
        E 0 80 3e 00
        E 0 80 48 00
        E 0 80 4a 00
        E 0 80 54 00
        E 0 80 56 00
        E 0 80 60 00
        E 0 80 62 00
        E 180 90 1f 60
        E 0 90 56 60
        E 0 90 62 60
        E 60 80 1f 00
        E 0 80 56 00
        E 0 80 62 00
        E 180 90 1a 60
        E 0 90 1f 60
        E 0 90 3d 60
        E 0 90 3e 60
        E 0 90 49 60
        E 0 90 4a 60
        E 0 90 55 60
        E 0 90 56 60
        E 0 90 61 60
        E 0 90 62 60
        E 60 80 1a 00
        E 0 80 1f 00
        E 0 80 3d 00
        E 0 80 3e 00
        E 0 80 49 00
        E 0 80 4a 00
        E 0 80 55 00
        E 0 80 56 00
        E 0 80 61 00
        E 0 80 62 00
        E 180 90 18 60
        E 0 90 1f 60
        E 0 90 54 60
        E 0 90 56 60
        E 0 90 60 60
        E 0 90 62 60
        E 60 80 18 00
        E 0 80 1f 00
        E 0 80 54 00
        E 0 80 56 00
        E 0 80 60 00
        E 0 80 62 00
        E 180 90 18 60
        E 0 90 1f 60
        E 0 90 3e 60
        E 0 90 48 60
        E 0 90 4a 60
        E 0 90 54 60
        E 0 90 56 60
        E 0 90 60 60
        E 0 90 62 60
        E 60 80 18 00
        E 0 80 48 00
        E 0 80 54 00
        E 0 80 60 00
        E 1 80 1f 00
        E 0 80 3e 00
        E 0 80 4a 00
        E 0 80 56 00
        E 0 80 62 00
        E 179 90 1f 60
        E 0 90 56 60
        E 0 90 62 60
        E 60 80 1f 00
        E 0 80 56 00
        E 0 80 62 00
        E 180 90 1a 60
        E 0 90 1f 60
        E 0 90 3d 60
        E 0 90 3e 60
        E 0 90 49 60
        E 0 90 4a 60
        E 0 90 55 60
        E 0 90 56 60
        E 0 90 61 60
        E 0 90 62 60
        E 60 80 1a 00
        E 0 80 1f 00
        E 0 80 3d 00
        E 0 80 3e 00
        E 0 80 49 00
        E 0 80 4a 00
        E 0 80 55 00
        E 0 80 56 00
        E 0 80 61 00
        E 0 80 62 00
        E 180 90 18 60
        E 0 90 1f 60
        E 0 90 54 60
        E 0 90 56 60
        E 0 90 60 60
        E 0 90 62 60
        E 60 80 18 00
        E 0 80 1f 00
        E 0 80 54 00
        E 0 80 56 00
        E 0 80 60 00
        E 0 80 62 00
        E 180 90 18 60
        E 0 90 1f 60
        E 0 90 3e 60
        E 0 90 48 60
        E 0 90 4a 60
        E 0 90 54 60
        E 0 90 56 60
        E 0 90 60 60
        E 0 90 62 60
        E 60 80 18 00
        E 0 80 1f 00
        E 0 80 3e 00
        E 0 80 48 00
        E 0 80 4a 00
        E 0 80 54 00
        E 0 80 56 00
        E 0 80 60 00
        E 0 80 62 00
        E 180 90 1f 60
        E 0 90 56 60
        E 0 90 62 60
        E 60 80 1f 00
        E 0 80 56 00
        E 0 80 62 00
        E 180 90 78 60
        E 0 90 1a 60
        E 0 90 1f 60
        E 0 90 3d 60
        E 0 90 3e 60
        E 0 90 49 60
        E 0 90 4a 60
        E 0 90 55 60
        E 0 90 56 60
        E 0 90 61 60
        E 0 90 62 60
        E 0 90 79 60
        E 0 90 7a 60
        E 0 90 7b 60
        E 0 90 7c 60
        E 60 80 1a 00
        E 0 80 1f 00
        E 0 80 3d 00
        E 0 80 3e 00
        E 0 80 49 00
        E 0 80 4a 00
        E 0 80 55 00
        E 0 80 56 00
        E 0 80 61 00
        E 0 80 62 00
        E 180 90 18 60
        E 0 90 1f 60
        E 0 90 54 60
        E 0 90 56 60
        E 0 90 60 60
        E 0 90 62 60
        E 60 80 18 00
        E 0 80 1f 00
        E 0 80 54 00
        E 0 80 56 00
        E 0 80 60 00
        E 0 80 62 00
        E 180 90 18 60
        E 0 90 1f 60
        E 0 90 3e 60
        E 0 90 48 60
        E 0 90 4a 60
        E 0 90 54 60
        E 0 90 56 60
        E 0 90 60 60
        E 0 90 62 60
        E 60 80 18 00
        E 0 80 48 00
        E 0 80 54 00
        E 0 80 60 00
        E 1 80 1f 00
        E 0 80 3e 00
        E 0 80 4a 00
        E 0 80 56 00
        E 0 80 62 00
        E 179 90 1f 60
        E 0 90 56 60
        E 0 90 62 60
        E 60 80 1f 00
        E 0 80 56 00
        E 0 80 62 00
        E 180 80 78 00
        E 0 80 79 00
        E 0 80 7a 00
        E 0 80 7b 00
        E 0 80 7c 00
        E 0 90 1a 60
        E 0 90 1f 60
        E 0 90 3d 60
        E 0 90 3e 60
        E 0 90 49 60
        E 0 90 4a 60
        E 0 90 55 60
        E 0 90 56 60
        E 0 90 61 60
        E 0 90 62 60
        E 60 80 1a 00
        E 0 80 1f 00
        E 0 80 3d 00
        E 0 80 3e 00
        E 0 80 49 00
        E 0 80 4a 00
        E 0 80 55 00
        E 0 80 56 00
        E 0 80 61 00
        E 0 80 62 00
        E 180 90 18 60
        E 0 90 1f 60
        E 0 90 54 60
        E 0 90 56 60
        E 0 90 60 60
        E 0 90 62 60
        E 60 80 18 00
        E 0 80 1f 00
        E 0 80 54 00
        E 0 80 56 00
        E 0 80 60 00
        E 0 80 62 00
        E 180 90 18 60
        E 0 90 1f 60
        E 0 90 3e 60
        E 0 90 48 60
        E 0 90 4a 60
        E 0 90 54 60
        E 0 90 56 60
        E 0 90 60 60
        E 0 90 62 60
        E 60 80 18 00
        E 0 80 1f 00
        E 0 80 3e 00
        E 0 80 48 00
        E 0 80 4a 00
        E 0 80 54 00
        E 0 80 56 00
        E 0 80 60 00
        E 0 80 62 00
        E 180 90 1f 60
        E 0 90 56 60
        E 0 90 62 60
        E 60 80 1f 00
        E 0 80 56 00
        E 0 80 62 00
        E 180 90 1a 60
        E 0 90 1f 60
        E 0 90 3d 60
        E 0 90 3e 60
        E 0 90 49 60
        E 0 90 4a 60
        E 0 90 55 60
        E 0 90 56 60
        E 0 90 61 60
        E 0 90 62 60
        E 60 80 1a 00
        E 0 80 1f 00
        E 0 80 3d 00
        E 0 80 3e 00
        E 0 80 49 00
        E 0 80 4a 00
        E 0 80 55 00
        E 0 80 56 00
        E 0 80 61 00
        E 0 80 62 00
        E 180 90 18 60
        E 0 90 1f 60
        E 0 90 54 60
        E 0 90 56 60
        E 0 90 60 60
        E 0 90 62 60
        E 60 80 18 00
        E 0 80 1f 00
        E 0 80 54 00
        E 0 80 56 00
        E 0 80 60 00
        E 0 80 62 00
        E 180 90 18 60
        E 0 90 1f 60
        E 0 90 3e 60
        E 0 90 48 60
        E 0 90 4a 60
        E 0 90 54 60
        E 0 90 56 60
        E 0 90 60 60
        E 0 90 62 60
        E 60 80 18 00
        E 0 80 48 00
        E 0 80 54 00
        E 0 80 60 00
        E 1 80 1f 00
        E 0 80 3e 00
        E 0 80 4a 00
        E 0 80 56 00
        E 0 80 62 00
        E 179 90 1f 60
        E 0 90 56 60
        E 0 90 62 60
        E 60 80 1f 00
        E 0 80 56 00
        E 0 80 62 00
        E 180 90 1a 60
        E 0 90 1f 60
        E 0 90 3d 60
        E 0 90 3e 60
        E 0 90 49 60
        E 0 90 4a 60
        E 0 90 55 60
        E 0 90 56 60
        E 0 90 61 60
        E 0 90 62 60
        E 60 80 1a 00
        E 0 80 1f 00
        E 0 80 3d 00
        E 0 80 3e 00
        E 0 80 49 00
        E 0 80 4a 00
        E 0 80 55 00
        E 0 80 56 00
        E 0 80 61 00
        E 0 80 62 00
        E 180 90 18 60
        E 0 90 1f 60
        E 0 90 54 60
        E 0 90 56 60
        E 0 90 60 60
        E 0 90 62 60
        E 60 80 18 00
        E 0 80 1f 00
        E 0 80 54 00
        E 0 80 56 00
        E 0 80 60 00
        E 0 80 62 00
        E 180 90 18 60
        E 0 90 1f 60
        E 0 90 3e 60
        E 0 90 48 60
        E 0 90 4a 60
        E 0 90 54 60
        E 0 90 56 60
        E 0 90 60 60
        E 0 90 62 60
        E 60 80 18 00
        E 0 80 1f 00
        E 0 80 3e 00
        E 0 80 48 00
        E 0 80 4a 00
        E 0 80 54 00
        E 0 80 56 00
        E 0 80 60 00
        E 0 80 62 00
        E 180 90 1f 60
        E 0 90 56 60
        E 0 90 62 60
        E 60 80 1f 00
        E 0 80 56 00
        E 0 80 62 00
        E 180 90 1a 60
        E 0 90 1f 60
        E 0 90 3d 60
        E 0 90 3e 60
        E 0 90 49 60
        E 0 90 4a 60
        E 0 90 55 60
        E 0 90 56 60
        E 0 90 61 60
        E 0 90 62 60
        E 60 80 1a 00
        E 0 80 1f 00
        E 0 80 3d 00
        E 0 80 3e 00
        E 0 80 49 00
        E 0 80 4a 00
        E 0 80 55 00
        E 0 80 56 00
        E 0 80 61 00
        E 0 80 62 00
        E 180 90 18 60
        E 0 90 1f 60
        E 0 90 54 60
        E 0 90 56 60
        E 0 90 60 60
        E 0 90 62 60
        E 60 80 18 00
        E 0 80 1f 00
        E 0 80 54 00
        E 0 80 56 00
        E 0 80 60 00
        E 0 80 62 00
        E 180 90 18 60
        E 0 90 1f 60
        E 0 90 3e 60
        E 0 90 48 60
        E 0 90 4a 60
        E 0 90 54 60
        E 0 90 56 60
        E 0 90 60 60
        E 0 90 62 60
        E 60 80 18 00
        E 0 80 48 00
        E 0 80 54 00
        E 0 80 60 00
        E 1 80 1f 00
        E 0 80 3e 00
        E 0 80 4a 00
        E 0 80 56 00
        E 0 80 62 00
        E 179 90 1f 60
        E 0 90 56 60
        E 0 90 62 60
        E 60 80 1f 00
        E 0 80 56 00
        E 0 80 62 00
        E 180 90 1a 60
        E 0 90 1f 60
        E 0 90 3d 60
        E 0 90 3e 60
        E 0 90 49 60
        E 0 90 4a 60
        E 0 90 55 60
        E 0 90 56 60
        E 0 90 61 60
        E 0 90 62 60
        E 60 80 1a 00
        E 0 80 1f 00
        E 0 80 3d 00
        E 0 80 3e 00
        E 0 80 49 00
        E 0 80 4a 00
        E 0 80 55 00
        E 0 80 56 00
        E 0 80 61 00
        E 0 80 62 00
        E 180 90 18 60
        E 0 90 1f 60
        E 0 90 54 60
        E 0 90 56 60
        E 0 90 60 60
        E 0 90 62 60
        E 60 80 18 00
        E 0 80 1f 00
        E 0 80 54 00
        E 0 80 56 00
        E 0 80 60 00
        E 0 80 62 00
        E 180 90 18 60
        E 0 90 1f 60
        E 0 90 3e 60
        E 0 90 48 60
        E 0 90 4a 60
        E 0 90 54 60
        E 0 90 56 60
        E 0 90 60 60
        E 0 90 62 60
        E 60 80 18 00
        E 0 80 1f 00
        E 0 80 3e 00
        E 0 80 48 00
        E 0 80 4a 00
        E 0 80 54 00
        E 0 80 56 00
        E 0 80 60 00
        E 0 80 62 00
        E 180 90 18 60
        E 0 90 1f 60
        E 0 90 54 60
        E 0 90 56 60
        E 0 90 60 60
        E 0 90 62 60
        E 60 80 18 00
        E 0 80 1f 00
        E 0 80 54 00
        E 0 80 56 00
        E 0 80 60 00
        E 0 80 62 00
        E 180 90 1a 60
        E 0 90 1f 60
        E 0 90 3d 60
        E 0 90 3e 60
        E 0 90 49 60
        E 0 90 4a 60
        E 0 90 55 60
        E 0 90 56 60
        E 0 90 61 60
        E 0 90 62 60
        E 60 80 1a 00
        E 0 80 1f 00
        E 0 80 3d 00
        E 0 80 3e 00
        E 0 80 49 00
        E 0 80 4a 00
        E 0 80 55 00
        E 0 80 56 00
        E 0 80 61 00
        E 0 80 62 00
        E 180 90 18 60
        E 0 90 1f 60
        E 0 90 54 60
        E 0 90 56 60
        E 0 90 60 60
        E 0 90 62 60
        E 60 80 18 00
        E 0 80 1f 00
        E 0 80 54 00
        E 0 80 56 00
        E 0 80 60 00
        E 0 80 62 00
        E 180 90 18 60
        E 0 90 1f 60
        E 0 90 3e 60
        E 0 90 48 60
        E 0 90 4a 60
        E 0 90 54 60
        E 0 90 56 60
        E 0 90 60 60
        E 0 90 62 60
        E 60 80 18 00
        E 0 80 48 00
        E 0 80 54 00
        E 0 80 60 00
        E 1 80 1f 00
        E 0 80 3e 00
        E 0 80 4a 00
        E 0 80 56 00
        E 0 80 62 00
        E 179 90 1f 60
        E 0 90 56 60
        E 0 90 62 60
        E 60 80 1f 00
        E 0 80 56 00
        E 0 80 62 00
        E 180 90 1a 60
        E 0 90 1f 60
        E 0 90 3d 60
        E 0 90 3e 60
        E 0 90 49 60
        E 0 90 4a 60
        E 0 90 55 60
        E 0 90 56 60
        E 0 90 61 60
        E 0 90 62 60
        E 60 80 1a 00
        E 0 80 1f 00
        E 0 80 3d 00
        E 0 80 3e 00
        E 0 80 49 00
        E 0 80 4a 00
        E 0 80 55 00
        E 0 80 56 00
        E 0 80 61 00
        E 0 80 62 00
        E 180 90 18 60
        E 0 90 1f 60
        E 0 90 54 60
        E 0 90 56 60
        E 0 90 60 60
        E 0 90 62 60
        E 60 80 18 00
        E 0 80 1f 00
        E 0 80 54 00
        E 0 80 56 00
        E 0 80 60 00
        E 0 80 62 00
        E 180 90 18 60
        E 0 90 1f 60
        E 0 90 3e 60
        E 0 90 48 60
        E 0 90 4a 60
        E 0 90 54 60
        E 0 90 56 60
        E 0 90 60 60
        E 0 90 62 60
        E 60 80 18 00
        E 0 80 1f 00
        E 0 80 3e 00
        E 0 80 48 00
        E 0 80 4a 00
        E 0 80 54 00
        E 0 80 56 00
        E 0 80 60 00
        E 0 80 62 00
        E 180 90 1f 60
        E 0 90 56 60
        E 0 90 62 60
        E 60 80 1f 00
        E 0 80 56 00
        E 0 80 62 00
        E 180 90 1a 60
        E 0 90 1f 60
        E 0 90 3d 60
        E 0 90 3e 60
        E 0 90 49 60
        E 0 90 4a 60
        E 0 90 55 60
        E 0 90 56 60
        E 0 90 61 60
        E 0 90 62 60
        E 60 80 1a 00
        E 0 80 1f 00
        E 0 80 3d 00
        E 0 80 3e 00
        E 0 80 49 00
        E 0 80 4a 00
        E 0 80 55 00
        E 0 80 56 00
        E 0 80 61 00
        E 0 80 62 00
        E 180 90 18 60
        E 0 90 1f 60
        E 0 90 54 60
        E 0 90 56 60
        E 0 90 60 60
        E 0 90 62 60
        E 60 80 18 00
        E 0 80 1f 00
        E 0 80 54 00
        E 0 80 56 00
        E 0 80 60 00
        E 0 80 62 00
        E 180 90 18 60
        E 0 90 2a 60
        E 0 90 3f 60
        E 0 90 48 60
        E 0 90 4b 60
        E 0 90 54 60
        E 0 90 57 60
        E 0 90 60 60
        E 0 90 63 60
        E 60 80 18 00
        E 0 80 48 00
        E 0 80 54 00
        E 0 80 60 00
        E 1 80 2a 00
        E 0 80 3f 00
        E 0 80 4b 00
        E 0 80 57 00
        E 0 80 63 00
        E 179 90 1f 60
        E 0 90 56 60
        E 0 90 62 60
        E 60 80 1f 00
        E 0 80 56 00
        E 0 80 62 00
        E 60 90 1a 60
        E 0 90 61 60
        E 60 80 1a 00
        E 0 80 61 00
        E 60 90 1b 60
        E 0 90 3d 60
        E 0 90 49 60
        E 0 90 55 60
        E 0 90 61 60
        E 60 80 1b 00
        E 0 80 3d 00
        E 0 80 49 00
        E 0 80 55 00
        E 0 80 61 00
        E 180 90 18 60
        E 0 90 1f 60
        E 0 90 54 60
        E 0 90 56 60
        E 0 90 60 60
        E 0 90 62 60
        E 60 80 18 00
        E 0 80 1f 00
        E 0 80 54 00
        E 0 80 56 00
        E 0 80 60 00
        E 0 80 62 00
        E 180 90 18 60
        E 0 90 26 60
        E 0 90 40 60
        E 0 90 48 60
        E 0 90 4c 60
        E 0 90 54 60
        E 0 90 58 60
        E 0 90 60 60
        E 0 90 64 60
        E 60 80 18 00
        E 0 80 26 00
        E 0 80 40 00
        E 0 80 48 00
        E 0 80 4c 00
        E 0 80 54 00
        E 0 80 58 00
        E 0 80 60 00
        E 0 80 64 00
        E 180 90 1f 60
        E 0 90 56 60
        E 0 90 62 60
        E 60 80 1f 00
        E 0 80 56 00
        E 0 80 62 00
        E 180 90 1a 60
        E 0 90 1f 60
        E 0 90 3d 60
        E 0 90 3e 60
        E 0 90 49 60
        E 0 90 4a 60
        E 0 90 55 60
        E 0 90 56 60
        E 0 90 61 60
        E 0 90 62 60
        E 60 80 1a 00
        E 0 80 1f 00
        E 0 80 3d 00
        E 0 80 3e 00
        E 0 80 49 00
        E 0 80 4a 00
        E 0 80 55 00
        E 0 80 56 00
        E 0 80 61 00
        E 0 80 62 00
        E 180 90 18 60
        E 0 90 1f 60
        E 0 90 54 60
        E 0 90 56 60
        E 0 90 60 60
        E 0 90 62 60
        E 60 80 18 00
        E 0 80 1f 00
        E 0 80 54 00
        E 0 80 56 00
        E 0 80 60 00
        E 0 80 62 00
        E 180 90 18 60
        E 0 90 1f 60
        E 0 90 3e 60
        E 0 90 48 60
        E 0 90 4a 60
        E 0 90 54 60
        E 0 90 56 60
        E 0 90 60 60
        E 0 90 62 60
        E 60 80 18 00
        E 0 80 48 00
        E 0 80 54 00
        E 0 80 60 00
        E 1 80 1f 00
        E 0 80 3e 00
        E 0 80 4a 00
        E 0 80 56 00
        E 0 80 62 00
        E 179 90 1f 60
        E 0 90 56 60
        E 0 90 62 60
        E 60 80 1f 00
        E 0 80 56 00
        E 0 80 62 00
        E 180 90 1a 60
        E 0 90 1f 60
        E 0 90 3d 60
        E 0 90 3e 60
        E 0 90 49 60
        E 0 90 4a 60
        E 0 90 55 60
        E 0 90 56 60
        E 0 90 61 60
        E 0 90 62 60
        E 60 80 1a 00
        E 0 80 1f 00
        E 0 80 3d 00
        E 0 80 3e 00
        E 0 80 49 00
        E 0 80 4a 00
        E 0 80 55 00
        E 0 80 56 00
        E 0 80 61 00
        E 0 80 62 00
        E 180 90 18 60
        E 0 90 1f 60
        E 0 90 54 60
        E 0 90 56 60
        E 0 90 60 60
        E 0 90 62 60
        E 60 80 18 00
        E 0 80 1f 00
        E 0 80 54 00
        E 0 80 56 00
        E 0 80 60 00
        E 0 80 62 00
        E 180 90 18 60
        E 0 90 1f 60
        E 0 90 3e 60
        E 0 90 48 60
        E 0 90 4a 60
        E 0 90 54 60
        E 0 90 56 60
        E 0 90 60 60
        E 0 90 62 60
        E 60 80 18 00
        E 0 80 1f 00
        E 0 80 3e 00
        E 0 80 48 00
        E 0 80 4a 00
        E 0 80 54 00
        E 0 80 56 00
        E 0 80 60 00
        E 0 80 62 00
        E 180 90 1f 60
        E 0 90 56 60
        E 0 90 62 60
        E 60 80 1f 00
        E 0 80 56 00
        E 0 80 62 00
        E 180 90 1a 60
        E 0 90 1f 60
        E 0 90 3d 60
        E 0 90 3e 60
        E 0 90 49 60
        E 0 90 4a 60
        E 0 90 55 60
        E 0 90 56 60
        E 0 90 61 60
        E 0 90 62 60
        E 60 80 1a 00
        E 0 80 1f 00
        E 0 80 3d 00
        E 0 80 3e 00
        E 0 80 49 00
        E 0 80 4a 00
        E 0 80 55 00
        E 0 80 56 00
        E 0 80 61 00
        E 0 80 62 00
        E 180 90 18 60
        E 0 90 1f 60
        E 0 90 54 60
        E 0 90 56 60
        E 0 90 60 60
        E 0 90 62 60
        E 60 80 18 00
        E 0 80 1f 00
        E 0 80 54 00
        E 0 80 56 00
        E 0 80 60 00
        E 0 80 62 00
        E 180 90 18 60
        E 0 90 1f 60
        E 0 90 3e 60
        E 0 90 48 60
        E 0 90 4a 60
        E 0 90 54 60
        E 0 90 56 60
        E 0 90 60 60
        E 0 90 62 60
        E 60 80 18 00
        E 0 80 48 00
        E 0 80 54 00
        E 0 80 60 00
        E 1 80 1f 00
        E 0 80 3e 00
        E 0 80 4a 00
        E 0 80 56 00
        E 0 80 62 00
        E 179 90 1f 60
        E 0 90 56 60
        E 0 90 62 60
        E 60 80 1f 00
        E 0 80 56 00
        E 0 80 62 00
        E 180 90 1a 60
        E 0 90 1f 60
        E 0 90 3d 60
        E 0 90 3e 60
        E 0 90 49 60
        E 0 90 4a 60
        E 0 90 55 60
        E 0 90 56 60
        E 0 90 61 60
        E 0 90 62 60
        E 60 80 1a 00
        E 0 80 1f 00
        E 0 80 3d 00
        E 0 80 3e 00
        E 0 80 49 00
        E 0 80 4a 00
        E 0 80 55 00
        E 0 80 56 00
        E 0 80 61 00
        E 0 80 62 00
        E 180 90 18 60
        E 0 90 1f 60
        E 0 90 54 60
        E 0 90 56 60
        E 0 90 60 60
        E 0 90 62 60
        E 60 80 18 00
        E 0 80 1f 00
        E 0 80 54 00
        E 0 80 56 00
        E 0 80 60 00
        E 0 80 62 00
        E 180 90 18 60
        E 0 90 1f 60
        E 0 90 3e 60
        E 0 90 48 60
        E 0 90 4a 60
        E 0 90 54 60
        E 0 90 56 60
        E 0 90 60 60
        E 0 90 62 60
        E 60 80 18 00
        E 0 80 1f 00
        E 0 80 3e 00
        E 0 80 48 00
        E 0 80 4a 00
        E 0 80 54 00
        E 0 80 56 00
        E 0 80 60 00
        E 0 80 62 00
        E 180 90 1f 60
        E 0 90 56 60
        E 0 90 62 60
        E 60 80 1f 00
        E 0 80 56 00
        E 0 80 62 00
        E 180 90 1a 60
        E 0 90 1f 60
        E 0 90 3d 60
        E 0 90 3e 60
        E 0 90 49 60
        E 0 90 4a 60
        E 0 90 55 60
        E 0 90 56 60
        E 0 90 61 60
        E 0 90 62 60
        E 60 80 1a 00
        E 0 80 1f 00
        E 0 80 3d 00
        E 0 80 3e 00
        E 0 80 49 00
        E 0 80 4a 00
        E 0 80 55 00
        E 0 80 56 00
        E 0 80 61 00
        E 0 80 62 00
        E 180 90 18 60
        E 0 90 1f 60
        E 0 90 54 60
        E 0 90 56 60
        E 0 90 60 60
        E 0 90 62 60
        E 60 80 18 00
        E 0 80 1f 00
        E 0 80 54 00
        E 0 80 56 00
        E 0 80 60 00
        E 0 80 62 00
        E 180 90 18 60
        E 0 90 1f 60
        E 0 90 3e 60
        E 0 90 48 60
        E 0 90 4a 60
        E 0 90 54 60
        E 0 90 56 60
        E 0 90 60 60
        E 0 90 62 60
        E 60 80 18 00
        E 0 80 48 00
        E 0 80 54 00
        E 0 80 60 00
        E 1 80 1f 00
        E 0 80 3e 00
        E 0 80 4a 00
        E 0 80 56 00
        E 0 80 62 00
        E 179 90 1f 60
        E 0 90 56 60
        E 0 90 62 60
        E 60 80 1f 00
        E 0 80 56 00
        E 0 80 62 00
        E 180 90 1a 60
        E 0 90 1f 60
        E 0 90 3d 60
        E 0 90 3e 60
        E 0 90 49 60
        E 0 90 4a 60
        E 0 90 55 60
        E 0 90 56 60
        E 0 90 61 60
        E 0 90 62 60
        E 60 80 1a 00
        E 0 80 1f 00
        E 0 80 3d 00
        E 0 80 3e 00
        E 0 80 49 00
        E 0 80 4a 00
        E 0 80 55 00
        E 0 80 56 00
        E 0 80 61 00
        E 0 80 62 00
        E 180 90 18 60
        E 0 90 1f 60
        E 0 90 54 60
        E 0 90 56 60
        E 0 90 60 60
        E 0 90 62 60
        E 60 80 18 00
        E 0 80 1f 00
        E 0 80 54 00
        E 0 80 56 00
        E 0 80 60 00
        E 0 80 62 00
        E 180 90 18 60
        E 0 90 1f 60
        E 0 90 3e 60
        E 0 90 48 60
        E 0 90 4a 60
        E 0 90 54 60
        E 0 90 56 60
        E 0 90 60 60
        E 0 90 62 60
        E 60 80 18 00
        E 0 80 1f 00
        E 0 80 3e 00
        E 0 80 48 00
        E 0 80 4a 00
        E 0 80 54 00
        E 0 80 56 00
        E 0 80 60 00
        E 0 80 62 00
        E 180 90 1f 60
        E 0 90 56 60
        E 0 90 62 60
        E 60 80 1f 00
        E 0 80 56 00
        E 0 80 62 00
        E 180 90 1a 60
        E 0 90 1f 60
        E 0 90 3d 60
        E 0 90 3e 60
        E 0 90 49 60
        E 0 90 4a 60
        E 0 90 55 60
        E 0 90 56 60
        E 0 90 61 60
        E 0 90 62 60
        E 60 80 1a 00
        E 0 80 1f 00
        E 0 80 3d 00
        E 0 80 3e 00
        E 0 80 49 00
        E 0 80 4a 00
        E 0 80 55 00
        E 0 80 56 00
        E 0 80 61 00
        E 0 80 62 00
        E 180 90 18 60
        E 0 90 1f 60
        E 0 90 54 60
        E 0 90 56 60
        E 0 90 60 60
        E 0 90 62 60
        E 60 80 18 00
        E 0 80 1f 00
        E 0 80 54 00
        E 0 80 56 00
        E 0 80 60 00
        E 0 80 62 00
        E 180 90 18 60
        E 0 90 1f 60
        E 0 90 3e 60
        E 0 90 48 60
        E 0 90 4a 60
        E 0 90 54 60
        E 0 90 56 60
        E 0 90 60 60
        E 0 90 62 60
        E 60 80 18 00
        E 0 80 48 00
        E 0 80 54 00
        E 0 80 60 00
        E 1 80 1f 00
        E 0 80 3e 00
        E 0 80 4a 00
        E 0 80 56 00
        E 0 80 62 00
        E 179 90 1f 60
        E 0 90 56 60
        E 0 90 62 60
        E 60 80 1f 00
        E 0 80 56 00
        E 0 80 62 00
        E 180 90 1a 60
        E 0 90 1f 60
        E 0 90 3d 60
        E 0 90 3e 60
        E 0 90 49 60
        E 0 90 4a 60
        E 0 90 55 60
        E 0 90 56 60
        E 0 90 61 60
        E 0 90 62 60
        E 60 80 1a 00
        E 0 80 1f 00
        E 0 80 3d 00
        E 0 80 3e 00
        E 0 80 49 00
        E 0 80 4a 00
        E 0 80 55 00
        E 0 80 56 00
        E 0 80 61 00
        E 0 80 62 00
        E 180 90 18 60
        E 0 90 1f 60
        E 0 90 54 60
        E 0 90 56 60
        E 0 90 60 60
        E 0 90 62 60
        E 60 80 18 00
        E 0 80 1f 00
        E 0 80 54 00
        E 0 80 56 00
        E 0 80 60 00
        E 0 80 62 00
        E 180 90 18 60
        E 0 90 1f 60
        E 0 90 3e 60
        E 0 90 48 60
        E 0 90 4a 60
        E 0 90 54 60
        E 0 90 56 60
        E 0 90 60 60
        E 0 90 62 60
        E 60 80 18 00
        E 0 80 1f 00
        E 0 80 3e 00
        E 0 80 48 00
        E 0 80 4a 00
        E 0 80 54 00
        E 0 80 56 00
        E 0 80 60 00
        E 0 80 62 00
        E 180 90 1f 60
        E 0 90 56 60
        E 0 90 62 60
        E 60 80 1f 00
        E 0 80 56 00
        E 0 80 62 00
        E 180 90 1a 60
        E 0 90 1f 60
        E 0 90 3d 60
        E 0 90 3e 60
        E 0 90 49 60
        E 0 90 4a 60
        E 0 90 55 60
        E 0 90 56 60
        E 0 90 61 60
        E 0 90 62 60
        E 60 80 1a 00
        E 0 80 1f 00
        E 0 80 3d 00
        E 0 80 3e 00
        E 0 80 49 00
        E 0 80 4a 00
        E 0 80 55 00
        E 0 80 56 00
        E 0 80 61 00
        E 0 80 62 00
        E 180 90 18 60
        E 0 90 1f 60
        E 0 90 54 60
        E 0 90 56 60
        E 0 90 60 60
        E 0 90 62 60
        E 60 80 18 00
        E 0 80 1f 00
        E 0 80 54 00
        E 0 80 56 00
        E 0 80 60 00
        E 0 80 62 00
        E 180 90 18 60
        E 0 90 1f 60
        E 0 90 3e 60
        E 0 90 48 60
        E 0 90 4a 60
        E 0 90 54 60
        E 0 90 56 60
        E 0 90 60 60
        E 0 90 62 60
        E 60 80 18 00
        E 0 80 48 00
        E 0 80 54 00
        E 0 80 60 00
        E 1 80 1f 00
        E 0 80 3e 00
        E 0 80 4a 00
        E 0 80 56 00
        E 0 80 62 00
        E 179 90 1f 60
        E 0 90 56 60
        E 0 90 62 60
        E 60 80 1f 00
        E 0 80 56 00
        E 0 80 62 00
        E 180 90 1a 60
        E 0 90 1f 60
        E 0 90 3d 60
        E 0 90 3e 60
        E 0 90 49 60
        E 0 90 4a 60
        E 0 90 55 60
        E 0 90 56 60
        E 0 90 61 60
        E 0 90 62 60
        E 60 80 1a 00
        E 0 80 1f 00
        E 0 80 3d 00
        E 0 80 3e 00
        E 0 80 49 00
        E 0 80 4a 00
        E 0 80 55 00
        E 0 80 56 00
        E 0 80 61 00
        E 0 80 62 00
        E 180 90 18 60
        E 0 90 1f 60
        E 0 90 54 60
        E 0 90 56 60
        E 0 90 60 60
        E 0 90 62 60
        E 60 80 18 00
        E 0 80 1f 00
        E 0 80 54 00
        E 0 80 56 00
        E 0 80 60 00
        E 0 80 62 00
        E 180 90 18 60
        E 0 90 26 60
        E 0 90 40 60
        E 0 90 48 60
        E 0 90 4c 60
        E 0 90 54 60
        E 0 90 58 60
        E 0 90 60 60
        E 0 90 64 60
        E 60 80 18 00
        E 0 80 26 00
        E 0 80 40 00
        E 0 80 48 00
        E 0 80 4c 00
        E 0 80 54 00
        E 0 80 58 00
        E 0 80 60 00
        E 0 80 64 00
        E 180 90 1f 60
        E 0 90 56 60
        E 0 90 62 60
        E 60 80 1f 00
        E 0 80 56 00
        E 0 80 62 00
        E 180 90 1a 60
        E 0 90 1f 60
        E 0 90 3d 60
        E 0 90 3e 60
        E 0 90 49 60
        E 0 90 4a 60
        E 0 90 55 60
        E 0 90 56 60
        E 0 90 61 60
        E 0 90 62 60
        E 60 80 1a 00
        E 0 80 1f 00
        E 0 80 3d 00
        E 0 80 3e 00
        E 0 80 49 00
        E 0 80 4a 00
        E 0 80 55 00
        E 0 80 56 00
        E 0 80 61 00
        E 0 80 62 00
        E 180 90 18 60
        E 0 90 1f 60
        E 0 90 54 60
        E 0 90 56 60
        E 0 90 60 60
        E 0 90 62 60
        E 60 80 18 00
        E 0 80 1f 00
        E 0 80 54 00
        E 0 80 56 00
        E 0 80 60 00
        E 0 80 62 00
        E 180 90 18 60
        E 0 90 1f 60
        E 0 90 3e 60
        E 0 90 48 60
        E 0 90 4a 60
        E 0 90 54 60
        E 0 90 56 60
        E 0 90 60 60
        E 0 90 62 60
        E 60 80 18 00
        E 0 80 48 00
        E 0 80 54 00
        E 0 80 60 00
        E 1 80 1f 00
        E 0 80 3e 00
        E 0 80 4a 00
        E 0 80 56 00
        E 0 80 62 00
        E 179 90 1f 60
        E 0 90 56 60
        E 0 90 62 60
        E 60 80 1f 00
        E 0 80 56 00
        E 0 80 62 00
        E 180 90 1a 60
        E 0 90 1f 60
        E 0 90 3d 60
        E 0 90 3e 60
        E 0 90 49 60
        E 0 90 4a 60
        E 0 90 55 60
        E 0 90 56 60
        E 0 90 61 60
        E 0 90 62 60
        E 60 80 1a 00
        E 0 80 1f 00
        E 0 80 3d 00
        E 0 80 3e 00
        E 0 80 49 00
        E 0 80 4a 00
        E 0 80 55 00
        E 0 80 56 00
        E 0 80 61 00
        E 0 80 62 00
        E 180 90 18 60
        E 0 90 1f 60
        E 0 90 54 60
        E 0 90 56 60
        E 0 90 60 60
        E 0 90 62 60
        E 60 80 18 00
        E 0 80 1f 00
        E 0 80 54 00
        E 0 80 56 00
        E 0 80 60 00
        E 0 80 62 00
        E 180 90 18 60
        E 0 90 1f 60
        E 0 90 3e 60
        E 0 90 48 60
        E 0 90 4a 60
        E 0 90 54 60
        E 0 90 56 60
        E 0 90 60 60
        E 0 90 62 60
        E 60 80 18 00
        E 0 80 1f 00
        E 0 80 3e 00
        E 0 80 48 00
        E 0 80 4a 00
        E 0 80 54 00
        E 0 80 56 00
        E 0 80 60 00
        E 0 80 62 00
        E 180 90 1f 60
        E 0 90 56 60
        E 0 90 62 60
        E 60 80 1f 00
        E 0 80 56 00
        E 0 80 62 00
        E 180 90 1a 60
        E 0 90 1f 60
        E 0 90 3d 60
        E 0 90 3e 60
        E 0 90 49 60
        E 0 90 4a 60
        E 0 90 55 60
        E 0 90 56 60
        E 0 90 61 60
        E 0 90 62 60
        E 60 80 1a 00
        E 0 80 1f 00
        E 0 80 3d 00
        E 0 80 3e 00
        E 0 80 49 00
        E 0 80 4a 00
        E 0 80 55 00
        E 0 80 56 00
        E 0 80 61 00
        E 0 80 62 00
        E 180 90 18 60
        E 0 90 1f 60
        E 0 90 54 60
        E 0 90 56 60
        E 0 90 60 60
        E 0 90 62 60
        E 60 80 18 00
        E 0 80 1f 00
        E 0 80 54 00
        E 0 80 56 00
        E 0 80 60 00
        E 0 80 62 00
        E 180 90 18 60
        E 0 90 1f 60
        E 0 90 3e 60
        E 0 90 48 60
        E 0 90 4a 60
        E 0 90 54 60
        E 0 90 56 60
        E 0 90 60 60
        E 0 90 62 60
        E 60 80 18 00
        E 0 80 48 00
        E 0 80 54 00
        E 0 80 60 00
        E 1 80 1f 00
        E 0 80 3e 00
        E 0 80 4a 00
        E 0 80 56 00
        E 0 80 62 00
        E 179 90 1f 60
        E 0 90 56 60
        E 0 90 62 60
        E 60 80 1f 00
        E 0 80 56 00
        E 0 80 62 00
        E 180 90 1a 60
        E 0 90 1f 60
        E 0 90 3d 60
        E 0 90 3e 60
        E 0 90 49 60
        E 0 90 4a 60
        E 0 90 55 60
        E 0 90 56 60
        E 0 90 61 60
        E 0 90 62 60
        E 60 80 1a 00
        E 0 80 1f 00
        E 0 80 3d 00
        E 0 80 3e 00
        E 0 80 49 00
        E 0 80 4a 00
        E 0 80 55 00
        E 0 80 56 00
        E 0 80 61 00
        E 0 80 62 00
        E 180 90 18 60
        E 0 90 1f 60
        E 0 90 54 60
        E 0 90 56 60
        E 0 90 60 60
        E 0 90 62 60
        E 60 80 18 00
        E 0 80 1f 00
        E 0 80 54 00
        E 0 80 56 00
        E 0 80 60 00
        E 0 80 62 00
        E 180 90 18 60
        E 0 90 1f 60
        E 0 90 3e 60
        E 0 90 48 60
        E 0 90 4a 60
        E 0 90 54 60
        E 0 90 56 60
        E 0 90 60 60
        E 0 90 62 60
        E 60 80 18 00
        E 0 80 1f 00
        E 0 80 3e 00
        E 0 80 48 00
        E 0 80 4a 00
        E 0 80 54 00
        E 0 80 56 00
        E 0 80 60 00
        E 0 80 62 00
        E 180 90 1f 60
        E 0 90 56 60
        E 0 90 62 60
        E 60 80 1f 00
        E 0 80 56 00
        E 0 80 62 00
        E 180 90 1a 60
        E 0 90 1f 60
        E 0 90 3d 60
        E 0 90 3e 60
        E 0 90 49 60
        E 0 90 4a 60
        E 0 90 55 60
        E 0 90 56 60
        E 0 90 61 60
        E 0 90 62 60
        E 60 80 1a 00
        E 0 80 1f 00
        E 0 80 3d 00
        E 0 80 3e 00
        E 0 80 49 00
        E 0 80 4a 00
        E 0 80 55 00
        E 0 80 56 00
        E 0 80 61 00
        E 0 80 62 00
        E 180 90 18 60
        E 0 90 1f 60
        E 0 90 54 60
        E 0 90 56 60
        E 0 90 60 60
        E 0 90 62 60
        E 60 80 18 00
        E 0 80 1f 00
        E 0 80 54 00
        E 0 80 56 00
        E 0 80 60 00
        E 0 80 62 00
        E 180 90 18 60
        E 0 90 1f 60
        E 0 90 3e 60
        E 0 90 48 60
        E 0 90 4a 60
        E 0 90 54 60
        E 0 90 56 60
        E 0 90 60 60
        E 0 90 62 60
        E 60 80 18 00
        E 0 80 48 00
        E 0 80 54 00
        E 0 80 60 00
        E 1 80 1f 00
        E 0 80 3e 00
        E 0 80 4a 00
        E 0 80 56 00
        E 0 80 62 00
        E 179 90 18 60
        E 0 90 1f 60
        E 0 90 54 60
        E 0 90 56 60
        E 0 90 60 60
        E 0 90 62 60
        E 60 80 18 00
        E 0 80 1f 00
        E 0 80 54 00
        E 0 80 56 00
        E 0 80 60 00
        E 0 80 62 00
        E 180 90 1a 60
        E 0 90 1f 60
        E 0 90 3d 60
        E 0 90 3e 60
        E 0 90 49 60
        E 0 90 4a 60
        E 0 90 55 60
        E 0 90 56 60
        E 0 90 61 60
        E 0 90 62 60
        E 60 80 1a 00
        E 0 80 1f 00
        E 0 80 3d 00
        E 0 80 3e 00
        E 0 80 49 00
        E 0 80 4a 00
        E 0 80 55 00
        E 0 80 56 00
        E 0 80 61 00
        E 0 80 62 00
        E 180 90 18 60
        E 0 90 1f 60
        E 0 90 54 60
        E 0 90 56 60
        E 0 90 60 60
        E 0 90 62 60
        E 60 80 18 00
        E 0 80 1f 00
        E 0 80 54 00
        E 0 80 56 00
        E 0 80 60 00
        E 0 80 62 00
        E 180 90 18 60
        E 0 90 1f 60
        E 0 90 3e 60
        E 0 90 48 60
        E 0 90 4a 60
        E 0 90 54 60
        E 0 90 56 60
        E 0 90 60 60
        E 0 90 62 60
        E 60 80 18 00
        E 0 80 1f 00
        E 0 80 3e 00
        E 0 80 48 00
        E 0 80 4a 00
        E 0 80 54 00
        E 0 80 56 00
        E 0 80 60 00
        E 0 80 62 00
        E 180 90 1f 60
        E 0 90 56 60
        E 0 90 62 60
        E 60 80 1f 00
        E 0 80 56 00
        E 0 80 62 00
        E 180 90 1a 60
        E 0 90 1f 60
        E 0 90 3d 60
        E 0 90 3e 60
        E 0 90 49 60
        E 0 90 4a 60
        E 0 90 55 60
        E 0 90 56 60
        E 0 90 61 60
        E 0 90 62 60
        E 60 80 1a 00
        E 0 80 1f 00
        E 0 80 3d 00
        E 0 80 3e 00
        E 0 80 49 00
        E 0 80 4a 00
        E 0 80 55 00
        E 0 80 56 00
        E 0 80 61 00
        E 0 80 62 00
        E 180 90 18 60
        E 0 90 1f 60
        E 0 90 54 60
        E 0 90 56 60
        E 0 90 60 60
        E 0 90 62 60
        E 60 80 18 00
        E 0 80 1f 00
        E 0 80 54 00
        E 0 80 56 00
        E 0 80 60 00
        E 0 80 62 00
        <X 480 0
          /wFbaWRsZV9yZWFsdGltZV0=
        >
        E 4972 b0 7b 00
        GUID {99C52F88-C54B-4CCD-B038-A5C950AC8E6E}
        IGNTEMPO 0 120.00000000 4 4
        SRCCOLOR 1235
        VELLANE 132 38 60
        COLORMAP "C:\Users\wejaa\AppData\Roaming\REAPER\Data\color_maps\rockband_drums.png"
        TEXTSTRINGFILE "Text Events List.txt"
        CFGEDITVIEW 16675.432221 149.477815 0 12 0 0 0
        CFGEDIT 1 1 0 0 0 1 1 1 1 1 1 0.12500000 -8 -8 1370 736 1 0 1 2 0.00000000 0 0 0 0 0.500000 1 0 1.000000 64
        KEYSNAP 0 0 "102034050607" 0 "Major"
        EVTFILTER 0 -1 -1 -1 -1 0 1 0 0 -1.00000000 -1.00000000
      >
    >
  >
  <TRACK '{70C3FE4D-3BC3-4146-95C4-8AC455A2D0F5}'
    NAME "PART BASS"
    PEAKCOL 16777471
    BEAT -1
    AUTOMODE 0
    VOLPAN 1.00000000000000 0.00000000000000 -1.00000000000000 -1.00000000000000 1.00000000000000
    MUTESOLO 0 0 0
    IPHASE 0
    ISBUS 0 0
    BUSCOMP 1 0
    SHOWINMIX 1 0.666700 0.500000 1 0.500000 -1 -1 -1
    FREEMODE 0
    SEL 0
    REC 0 4096 1 0 0 0 0
    TRACKHEIGHT 24 0
    INQ 0 0 0 0.5000000000 100 0 0 100
    NCHAN 2
    FX 1
    TRACKID {70C3FE4D-3BC3-4146-95C4-8AC455A2D0F5}
    PERF 0
    MIDIOUT -1
    <MIDINOTENAMES
      0 96 "EXPERT Green"
      0 97 "EXPERT Red"
      0 98 "EXPERT Yellow"
      0 99 "EXPERT Blue"
      0 100 "EXPERT Orange"
      0 84 "HARD Green"
      0 85 "HARD Red"
      0 86 "HARD Yellow"
      0 87 "HARD Blue"
      0 88 "HARD Orange"
      0 91 "----"
      0 116 "OVERDRIVE"
      0 40 "Left Hand Lowest"
      0 59 "Left Hand Highest"
      0 58 "-"
      0 57 "-"
      0 56 "-"
      0 55 "-"
      0 54 "-"
      0 53 "-"
      0 52 "-"
      0 51 "-"
      0 50 "-"
      0 49 "-"
      0 47 "-"
      0 48 "-"
      0 46 "-"
      0 45 "-"
      0 44 "-"
      0 43 "-"
      0 42 "-"
      0 41 "-"
      0 111 "----"
      0 72 "MEDIUM Green"
      0 73 "MEDIUM Red"
      0 74 "MEDIUM Yellow"
      0 75 "MEDIUM Blue"
      0 76 "MEDIUM Orange"
      0 60 "EASY Green"
      0 61 "EASY Red"
      0 62 "EASY Yellow"
      0 63 "EASY Blue"
      0 64 "EASY Orange"
      0 68 "----"
      0 80 "----"
      0 102 "Force HOPO Off"
      0 101 "Force HOPO On"
      0 120 "BRE (use all 5)"
      0 121 "BRE"
      0 122 "BRE"
      0 123 "BRE"
      0 124 "BRE"
      0 119 "----"
      0 90 "Force HOPO Off"
      0 89 "Force HOPO On"
      0 127 "Trill Marker"
      0 125 "----"
      0 103 "Solo Marker"
      0 126 "Strum Marker"
    >
    MAINSEND 1 0
    <FXCHAIN
      WNDRECT -926 1351 878 585
      SHOW 0
      LASTSEL 1
      DOCKED 0
      BYPASS 1 0
      <VST "VSTi: ReaSynth (Cockos)" "reasynth.dll" 0 ""
        eXNlcu9e7f4AAAAAAgAAAAEAAAAAAAAAAgAAAAAAAAA4AAAAAAAAAA==
        AAAAAO++rd4N8K3eAAAAAAAAAAAAAAAAAAAAADm0SD59y9s+tbSxOQ==
        AAAAALbz/T5VpCs6AAAAAAAAAAAAAAAAAAA=
      >
      FLOATPOS 0 0 0 0
      FXID {D4EC3C58-478E-4D1F-A0FC-2252BD344989}
      WAK 0
      BYPASS 0 0
      <VST "VSTi: RBN Preview (RBN)" "rbprev_vst64_beta.dll" 0 ""
        dnBicu5e7f4AAAAAAgAAAAEAAAAAAAAAAgAAAAAAAAAEAAAAAQAAAA==
        AAAAAAMAqgAAAAAAAAA=
      >
      FLOATPOS 32 32 659 497
      FXID {72D22271-4F4F-4081-90C4-66415E7AEC47}
      WAK 0
    >
    <ITEM
      POSITION 0.00000000000000
      SNAPOFFS 0.00000000000000
      LENGTH 224.33497908211055
      LOOP 0
      ALLTAKES 0
      SEL 0
      FADEIN 1 0.000000 0.000000 1 0
      FADEOUT 1 0.000000 0.000000 1 0
      MUTE 0
      IGUID {A1B24BBF-93B7-476C-BC6D-33F5621C633F}
      IID 8
      NAME "PART BASS"
      VOLPAN 1.000000 0.000000 1.000000 -1.000000
      SOFFS 0.00000000000000 0.00000000000000
      PLAYRATE 1.00000000000000 1 0.00000000000000 -65536
      CHANMODE 0
      GUID {344A7487-35C3-41F9-8B1E-12A4F3D7F336}
      <SOURCE MIDI
        HASDATA 1 480 QN
        POOLEDEVTS {B421BC72-48B4-4B3A-AE39-B499CE1FF0BE}
        <X 0 0
          /wNQQVJUIEJBU1M=
        >
        <X 3840 0
          /wFbbWVsbG93XQ==
        >
        E 0 90 3c 60
        E 0 90 48 60
        E 0 90 54 60
        E 0 90 60 60
        E 120 80 3c 00
        E 0 80 48 00
        E 360 80 54 00
        E 0 80 60 00
        E 240 90 48 60
        E 0 90 54 60
        E 0 90 60 60
        E 60 80 48 00
        E 0 80 54 00
        E 0 80 60 00
        E 180 90 3c 60
        E 0 90 48 60
        E 0 90 54 60
        E 0 90 60 60
        E 60 80 3c 00
        E 0 80 48 00
        E 0 80 54 00
        E 0 80 60 00
        E 180 90 48 60
        E 0 90 54 60
        E 0 90 60 60
        E 60 80 48 00
        E 0 80 54 00
        E 0 80 60 00
        E 900 90 48 60
        E 0 90 54 60
        E 0 90 60 60
        E 60 80 48 00
        E 0 80 54 00
        E 0 80 60 00
        E 420 90 54 60
        E 0 90 60 60
        E 60 80 54 00
        E 0 80 60 00
        E 180 90 3d 60
        E 0 90 49 60
        E 0 90 56 60
        E 0 90 62 60
        E 120 80 3d 00
        E 0 80 49 00
        E 240 80 56 00
        E 60 80 62 00
        E 60 90 49 60
        E 0 90 56 60
        E 0 90 62 60
        E 120 80 49 00
        E 0 80 56 00
        E 180 80 62 00
        E 180 90 3f 60
        E 0 90 4b 60
        E 0 90 58 60
        E 0 90 64 60
        E 120 80 3f 00
        E 0 80 4b 00
        E 300 80 58 00
        E 0 80 64 00
        E 300 90 4b 60
        E 0 90 58 60
        E 0 90 64 60
        E 60 80 4b 00
        E 0 80 58 00
        E 0 80 64 00
        E 180 90 3f 60
        E 0 90 4b 60
        E 0 90 58 60
        E 0 90 64 60
        E 60 80 3f 00
        E 0 80 4b 00
        E 0 80 58 00
        E 0 80 64 00
        E 180 90 4b 60
        E 0 90 58 60
        E 0 90 64 60
        E 60 80 4b 00
        E 0 80 58 00
        E 0 80 64 00
        E 900 90 4b 60
        E 0 90 58 60
        E 0 90 64 60
        E 60 80 4b 00
        E 0 80 58 00
        E 0 80 64 00
        E 420 90 58 60
        E 0 90 64 60
        E 60 80 58 00
        E 0 80 64 00
        E 180 90 3d 60
        E 0 90 49 60
        E 0 90 56 60
        E 0 90 62 60
        E 120 80 3d 00
        E 0 80 49 00
        E 0 80 56 00
        E 180 80 62 00
        E 180 90 49 60
        E 0 90 56 60
        E 0 90 62 60
        E 120 80 49 00
        E 0 80 56 00
        E 180 80 62 00
        E 180 90 3c 60
        E 0 90 48 60
        E 0 90 55 60
        E 0 90 61 60
        E 120 80 3c 00
        E 0 80 48 00
        E 240 80 55 00
        E 60 80 61 00
        E 60 90 3c 60
        E 0 90 48 60
        E 0 90 55 60
        E 0 90 61 60
        E 120 80 3c 00
        E 0 80 48 00
        E 0 80 55 00
        E 180 80 61 00
        E 420 90 4a 60
        E 0 90 57 60
        E 0 90 63 60
        E 60 80 4a 00
        E 0 80 57 00
        E 0 80 63 00
        E 180 90 4a 60
        E 0 90 57 60
        E 0 90 63 60
        E 60 80 4a 00
        E 0 80 57 00
        E 0 80 63 00
        E 420 90 3f 60
        E 0 90 4b 60
        E 0 90 58 60
        E 0 90 64 60
        E 120 80 3f 00
        E 0 80 4b 00
        E 360 80 58 00
        E 0 80 64 00
        E 240 90 4b 60
        E 0 90 58 60
        E 0 90 64 60
        E 60 80 4b 00
        E 0 80 58 00
        E 0 80 64 00
        E 180 90 3f 60
        E 0 90 4b 60
        E 0 90 58 60
        E 0 90 64 60
        E 480 80 3f 00
        E 0 80 4b 00
        E 0 80 58 00
        E 0 80 64 00
        E 240 90 57 60
        E 0 90 63 60
        E 60 80 57 00
        E 0 80 63 00
        E 180 90 3d 60
        E 0 90 49 60
        E 0 90 56 60
        E 0 90 62 60
        E 480 80 3d 00
        E 0 80 49 00
        E 0 80 56 00
        E 0 80 62 00
        E 240 90 56 60
        E 0 90 62 60
        E 60 80 56 00
        E 0 80 62 00
        E 180 90 3e 60
        E 0 90 4a 60
        E 0 90 57 60
        E 0 90 63 60
        E 480 80 3e 00
        E 0 80 4a 00
        E 0 80 57 00
        E 0 80 63 00
        E 240 90 57 60
        E 0 90 63 60
        E 60 80 57 00
        E 0 80 63 00
        E 180 90 3d 60
        E 0 90 49 60
        E 0 90 56 60
        E 0 90 62 60
        E 120 80 3d 00
        E 0 80 49 00
        E 0 80 56 00
        E 180 80 62 00
        E 180 90 48 60
        E 0 90 54 60
        E 0 90 60 60
        E 60 80 48 00
        E 0 80 54 00
        E 0 80 60 00
        E 180 90 55 60
        E 0 90 61 60
        E 60 80 55 00
        E 0 80 61 00
        E 180 90 3d 60
        E 0 90 49 60
        E 0 90 56 60
        E 0 90 62 60
        E 120 80 3d 00
        E 0 80 49 00
        E 0 80 56 00
        E 180 80 62 00
        E 180 90 48 60
        E 0 90 55 60
        E 0 90 61 60
        E 120 80 48 00
        E 0 80 55 00
        E 180 80 61 00
        E 180 90 3c 60
        E 0 90 48 60
        E 0 90 55 60
        E 0 90 61 60
        E 120 80 3c 00
        E 0 80 48 00
        E 240 80 55 00
        E 60 80 61 00
        E 60 90 3c 60
        E 0 90 48 60
        E 0 90 55 60
        E 0 90 61 60
        E 120 80 3c 00
        E 0 80 48 00
        E 0 80 55 00
        E 180 80 61 00
        E 420 90 4a 60
        E 0 90 57 60
        E 0 90 63 60
        E 60 80 4a 00
        E 0 80 57 00
        E 0 80 63 00
        E 180 90 4a 60
        E 0 90 57 60
        E 0 90 63 60
        E 60 80 4a 00
        E 0 80 57 00
        E 0 80 63 00
        E 420 90 3f 60
        E 0 90 4b 60
        E 0 90 58 60
        E 0 90 64 60
        E 120 80 3f 00
        E 0 80 4b 00
        E 360 80 58 00
        E 0 80 64 00
        E 240 90 4b 60
        E 0 90 58 60
        E 0 90 64 60
        E 60 80 4b 00
        E 0 80 58 00
        E 0 80 64 00
        E 180 90 3f 60
        E 0 90 4b 60
        E 0 90 58 60
        E 0 90 64 60
        E 480 80 3f 00
        E 0 80 4b 00
        E 0 80 58 00
        E 0 80 64 00
        E 240 90 57 60
        E 0 90 63 60
        E 60 80 57 00
        E 0 80 63 00
        E 180 90 3d 60
        E 0 90 49 60
        E 0 90 56 60
        E 0 90 62 60
        E 480 80 3d 00
        E 0 80 49 00
        E 0 80 56 00
        E 0 80 62 00
        E 240 90 56 60
        E 0 90 62 60
        E 60 80 56 00
        E 0 80 62 00
        E 180 90 3e 60
        E 0 90 4a 60
        E 0 90 57 60
        E 0 90 63 60
        E 480 80 3e 00
        E 0 80 4a 00
        E 0 80 57 00
        E 0 80 63 00
        E 240 90 57 60
        E 0 90 63 60
        E 60 80 57 00
        E 0 80 63 00
        E 180 90 3d 60
        E 0 90 49 60
        E 0 90 56 60
        E 0 90 62 60
        E 120 80 3d 00
        E 0 80 49 00
        E 240 80 56 00
        E 60 80 62 00
        E 60 90 49 60
        E 0 90 56 60
        E 0 90 62 60
        E 60 80 49 00
        E 0 80 56 00
        E 0 80 62 00
        E 180 90 57 60
        E 0 90 63 60
        E 60 80 57 00
        E 0 80 63 00
        E 180 90 3e 60
        E 0 90 4a 60
        E 0 90 57 60
        E 0 90 63 60
        E 480 80 3e 00
        E 0 80 4a 00
        E 0 90 74 67
        E 300 80 57 00
        E 0 80 63 00
        E 180 90 3e 60
        E 0 90 4a 60
        E 0 90 57 60
        E 0 90 63 60
        E 480 80 3e 00
        E 0 80 4a 00
        E 0 80 57 00
        E 0 80 63 00
        E 480 90 3d 60
        E 0 90 49 60
        E 0 90 56 60
        E 0 90 62 60
        E 60 80 3d 00
        E 0 80 49 00
        E 0 80 56 00
        E 0 80 62 00
        E 300 90 56 60
        E 0 90 62 60
        E 60 80 56 00
        E 0 80 62 00
        E 300 90 56 60
        E 0 90 62 60
        E 60 80 56 00
        E 0 80 62 00
        E 180 90 3e 60
        E 0 90 4a 60
        E 0 90 57 60
        E 0 90 63 60
        E 120 80 3e 00
        E 0 80 4a 00
        E 240 80 57 00
        E 60 80 63 00
        E 60 90 4a 60
        E 0 90 57 60
        E 0 90 63 60
        E 120 80 4a 00
        E 0 80 57 00
        E 180 80 63 00
        E 180 80 74 00
        E 0 90 3d 60
        E 0 90 49 60
        E 0 90 56 60
        E 0 90 62 60
        E 120 80 3d 00
        E 0 80 49 00
        E 240 80 56 00
        E 60 80 62 00
        E 60 90 3d 60
        E 0 90 49 60
        E 0 90 56 60
        E 0 90 62 60
        E 120 80 3d 00
        E 0 80 49 00
        E 0 80 56 00
        E 180 80 62 00
        E 420 90 49 60
        E 0 90 56 60
        E 0 90 62 60
        E 60 80 49 00
        E 0 80 56 00
        E 0 80 62 00
        E 180 90 3d 60
        E 0 90 49 60
        E 0 90 56 60
        E 0 90 62 60
        E 60 80 3d 00
        E 0 80 49 00
        E 0 80 56 00
        E 0 80 62 00
        E 180 90 55 60
        E 0 90 61 60
        E 60 80 55 00
        E 0 80 61 00
        E 180 90 3d 60
        E 0 90 49 60
        E 0 90 56 60
        E 0 90 62 60
        E 120 80 3d 00
        E 0 80 49 00
        E 240 80 56 00
        E 60 80 62 00
        E 60 90 3d 60
        E 0 90 49 60
        E 0 90 56 60
        E 0 90 62 60
        E 480 80 3d 00
        E 0 80 49 00
        E 0 80 56 00
        E 0 80 62 00
        E 240 90 55 60
        E 0 90 61 60
        E 60 80 55 00
        E 0 80 61 00
        E 180 90 49 60
        E 0 90 56 60
        E 0 90 62 60
        E 60 80 49 00
        E 0 80 56 00
        E 0 80 62 00
        E 180 90 56 60
        E 0 90 62 60
        E 60 80 56 00
        E 0 80 62 00
        E 180 90 3e 60
        E 0 90 4a 60
        E 0 90 57 60
        E 0 90 63 60
        E 120 80 3e 00
        E 0 80 4a 00
        E 360 80 57 00
        E 0 80 63 00
        E 240 90 4a 60
        E 0 90 57 60
        E 0 90 63 60
        E 60 80 4a 00
        E 0 80 57 00
        E 0 80 63 00
        E 180 90 3e 60
        E 0 90 4a 60
        E 0 90 57 60
        E 0 90 63 60
        E 480 80 3e 00
        E 0 80 4a 00
        E 0 80 57 00
        E 0 80 63 00
        E 240 90 57 60
        E 0 90 63 60
        E 60 80 57 00
        E 0 80 63 00
        E 180 90 3f 60
        E 0 90 4b 60
        E 0 90 58 60
        E 0 90 64 60
        E 120 80 3f 00
        E 0 80 4b 00
        E 360 80 58 00
        E 0 80 64 00
        E 240 90 4b 60
        E 0 90 58 60
        E 0 90 64 60
        E 60 80 4b 00
        E 0 80 58 00
        E 0 80 64 00
        E 180 90 3f 60
        E 0 90 4b 60
        E 0 90 58 60
        E 0 90 64 60
        E 120 80 3f 00
        E 0 80 4b 00
        E 0 80 58 00
        E 180 80 64 00
        E 180 90 4a 60
        E 0 90 57 60
        E 0 90 63 60
        E 120 80 4a 00
        E 0 80 57 00
        E 180 80 63 00
        E 180 90 3e 60
        E 0 90 4a 60
        E 0 90 57 60
        E 0 90 63 60
        E 120 80 3e 00
        E 0 80 4a 00
        E 420 80 57 00
        E 0 80 63 00
        E 180 90 49 60
        E 0 90 56 60
        E 0 90 62 60
        E 60 80 49 00
        E 0 80 56 00
        E 0 80 62 00
        E 180 90 3d 60
        E 0 90 49 60
        E 0 90 56 60
        E 0 90 62 60
        E 120 80 3d 00
        E 0 80 49 00
        E 240 80 56 00
        E 60 80 62 00
        E 60 90 49 60
        E 0 90 56 60
        E 0 90 62 60
        E 120 80 49 00
        E 0 80 56 00
        E 180 80 62 00
        E 180 90 3c 60
        E 0 90 48 60
        E 0 90 55 60
        E 0 90 61 60
        E 120 80 3c 00
        E 0 80 48 00
        E 360 80 55 00
        E 0 80 61 00
        E 240 90 48 60
        E 0 90 55 60
        E 0 90 61 60
        E 60 80 48 00
        E 0 80 55 00
        E 0 80 61 00
        E 180 90 3c 60
        E 0 90 48 60
        E 0 90 55 60
        E 0 90 61 60
        E 120 80 3c 00
        E 0 80 48 00
        E 0 80 55 00
        E 180 80 61 00
        E 180 90 4a 60
        E 0 90 57 60
        E 0 90 63 60
        E 61 90 74 67
        E 59 80 4a 00
        E 240 80 57 00
        E 60 80 63 00
        E 60 90 3e 60
        E 0 90 4a 60
        E 0 90 57 60
        E 0 90 63 60
        E 120 80 3e 00
        E 0 80 4a 00
        E 360 80 57 00
        E 0 80 63 00
        E 240 90 4a 60
        E 0 90 57 60
        E 0 90 63 60
        E 60 80 4a 00
        E 0 80 57 00
        E 0 80 63 00
        E 180 90 3e 60
        E 0 90 4a 60
        E 0 90 57 60
        E 0 90 63 60
        E 441 80 74 00
        E 39 80 3e 00
        E 0 80 4a 00
        E 0 80 57 00
        E 0 80 63 00
        E 480 90 3e 60
        E 0 90 4a 60
        E 0 90 57 60
        E 0 90 63 60
        E 120 80 3e 00
        E 0 80 4a 00
        E 360 80 57 00
        E 0 80 63 00
        E 240 90 4a 60
        E 0 90 57 60
        E 0 90 63 60
        E 60 80 4a 00
        E 0 80 57 00
        E 0 80 63 00
        E 180 90 3e 60
        E 0 90 4a 60
        E 0 90 57 60
        E 0 90 63 60
        E 120 80 3e 00
        E 0 80 4a 00
        E 240 80 57 00
        E 60 80 63 00
        E 60 90 4a 60
        E 0 90 57 60
        E 0 90 63 60
        E 60 80 4a 00
        E 0 80 57 00
        E 0 80 63 00
        E 180 90 57 60
        E 0 90 63 60
        E 60 80 57 00
        E 0 80 63 00
        E 180 90 3f 60
        E 0 90 4b 60
        E 0 90 58 60
        E 0 90 64 60
        E 120 80 3f 00
        E 0 80 4b 00
        E 360 80 58 00
        E 0 80 64 00
        E 240 90 4b 60
        E 0 90 58 60
        E 0 90 64 60
        E 60 80 4b 00
        E 0 80 58 00
        E 0 80 64 00
        E 180 90 3f 60
        E 0 90 4b 60
        E 0 90 58 60
        E 0 90 64 60
        E 60 80 3f 00
        E 0 80 4b 00
        E 0 80 58 00
        E 0 80 64 00
        E 180 90 4b 60
        E 0 90 58 60
        E 0 90 64 60
        E 60 80 4b 00
        E 0 80 58 00
        E 0 80 64 00
        E 900 90 3f 60
        E 0 90 4b 60
        E 0 90 58 60
        E 0 90 64 60
        E 60 80 3f 00
        E 0 80 4b 00
        E 0 80 58 00
        E 0 80 64 00
        E 420 90 4b 60
        E 0 90 58 60
        E 0 90 64 60
        E 60 80 4b 00
        E 0 80 58 00
        E 0 80 64 00
        E 180 90 3f 60
        E 0 90 4b 60
        E 0 90 58 60
        E 0 90 64 60
        E 120 80 3f 00
        E 0 80 4b 00
        E 0 80 58 00
        E 180 80 64 00
        E 180 90 4a 60
        E 0 90 57 60
        E 0 90 63 60
        E 60 80 4a 00
        E 0 80 57 00
        E 0 80 63 00
        E 180 90 4a 60
        E 0 90 57 60
        E 0 90 63 60
        E 60 80 4a 00
        E 0 80 57 00
        E 0 80 63 00
        E 180 90 3e 60
        E 0 90 4a 60
        E 0 90 57 60
        E 0 90 63 60
        E 120 80 3e 00
        E 0 80 4a 00
        E 360 80 57 00
        E 0 80 63 00
        E 240 90 4a 60
        E 0 90 57 60
        E 0 90 63 60
        E 60 80 4a 00
        E 0 80 57 00
        E 0 80 63 00
        E 180 90 3e 60
        E 0 90 4a 60
        E 0 90 57 60
        E 0 90 63 60
        E 60 80 3e 00
        E 0 80 4a 00
        E 0 80 57 00
        E 0 80 63 00
        E 180 90 58 60
        E 0 90 64 60
        E 120 80 58 00
        E 180 80 64 00
        E 180 90 57 60
        E 0 90 63 60
        E 60 80 57 00
        E 0 80 63 00
        E 180 90 3f 60
        E 0 90 4b 60
        E 0 90 58 60
        E 0 90 64 60
        E 120 80 3f 00
        E 0 80 4b 00
        E 360 80 58 00
        E 0 80 64 00
        E 240 90 4b 60
        E 0 90 58 60
        E 0 90 64 60
        E 60 80 4b 00
        E 0 80 58 00
        E 0 80 64 00
        E 180 90 3f 60
        E 0 90 4b 60
        E 0 90 58 60
        E 0 90 64 60
        E 120 80 3f 00
        E 0 80 4b 00
        E 0 80 58 00
        E 180 80 64 00
        E 180 90 4a 60
        E 0 90 57 60
        E 0 90 63 60
        E 120 80 4a 00
        E 0 80 57 00
        E 180 80 63 00
        E 180 90 3e 60
        E 0 90 4a 60
        E 0 90 57 60
        E 0 90 63 60
        E 120 80 3e 00
        E 0 80 4a 00
        E 420 80 57 00
        E 0 80 63 00
        E 180 90 49 60
        E 0 90 56 60
        E 0 90 62 60
        E 60 80 49 00
        E 0 80 56 00
        E 0 80 62 00
        E 180 90 3d 60
        E 0 90 49 60
        E 0 90 56 60
        E 0 90 62 60
        E 120 80 3d 00
        E 0 80 49 00
        E 240 80 56 00
        E 60 80 62 00
        E 60 90 49 60
        E 0 90 56 60
        E 0 90 62 60
        E 120 80 49 00
        E 0 80 56 00
        E 180 80 62 00
        E 180 90 3c 60
        E 0 90 48 60
        E 0 90 55 60
        E 0 90 61 60
        E 120 80 3c 00
        E 0 80 48 00
        E 360 80 55 00
        E 0 80 61 00
        E 240 90 48 60
        E 0 90 55 60
        E 0 90 61 60
        E 60 80 48 00
        E 0 80 55 00
        E 0 80 61 00
        E 180 90 3c 60
        E 0 90 48 60
        E 0 90 55 60
        E 0 90 61 60
        E 60 80 3c 00
        E 0 80 48 00
        E 0 80 55 00
        E 0 80 61 00
        E 180 90 48 60
        E 0 90 55 60
        E 0 90 61 60
        E 120 80 48 00
        E 0 80 55 00
        E 180 80 61 00
        E 180 90 49 60
        E 0 90 56 60
        E 0 90 62 60
        E 60 80 49 00
        E 0 80 56 00
        E 0 80 62 00
        E 180 90 3d 60
        E 0 90 49 60
        E 0 90 56 60
        E 0 90 62 60
        E 120 80 3d 00
        E 0 80 49 00
        E 360 80 56 00
        E 0 80 62 00
        E 240 90 49 60
        E 0 90 56 60
        E 0 90 62 60
        E 60 80 49 00
        E 0 80 56 00
        E 0 80 62 00
        E 180 90 3d 60
        E 0 90 49 60
        E 0 90 56 60
        E 0 90 62 60
        E 60 80 3d 00
        E 0 80 49 00
        E 0 80 56 00
        E 0 80 62 00
        E 180 90 49 60
        E 0 90 56 60
        E 0 90 62 60
        E 60 80 49 00
        E 0 80 56 00
        E 0 80 62 00
        E 660 90 3d 60
        E 0 90 49 60
        E 0 90 56 60
        E 0 90 62 60
        E 120 80 3d 00
        E 0 80 49 00
        E 360 80 56 00
        E 0 80 62 00
        E 240 90 49 60
        E 0 90 56 60
        E 0 90 62 60
        E 60 80 49 00
        E 0 80 56 00
        E 0 80 62 00
        E 180 90 3d 60
        E 0 90 49 60
        E 0 90 56 60
        E 0 90 62 60
        E 120 80 3d 00
        E 0 80 49 00
        E 240 80 56 00
        E 60 80 62 00
        E 60 90 49 60
        E 0 90 56 60
        E 0 90 62 60
        E 120 80 49 00
        E 0 80 56 00
        E 120 90 74 67
        E 60 80 62 00
        E 180 90 3e 60
        E 0 90 4a 60
        E 0 90 57 60
        E 0 90 63 60
        E 120 80 3e 00
        E 0 80 4a 00
        E 360 80 57 00
        E 0 80 63 00
        E 240 90 4a 60
        E 0 90 57 60
        E 0 90 63 60
        E 60 80 4a 00
        E 0 80 57 00
        E 0 80 63 00
        E 180 90 3e 60
        E 0 90 4a 60
        E 0 90 57 60
        E 0 90 63 60
        E 60 80 3e 00
        E 0 80 4a 00
        E 0 80 57 00
        E 0 80 63 00
        E 180 90 4a 60
        E 0 90 57 60
        E 0 90 63 60
        E 480 80 4a 00
        E 0 80 57 00
        E 0 80 63 00
        E 480 90 3e 60
        E 0 90 4a 60
        E 0 90 57 60
        E 0 90 63 60
        E 60 80 3e 00
        E 0 80 4a 00
        E 0 80 57 00
        E 0 80 63 00
        E 420 90 4a 60
        E 0 90 57 60
        E 0 90 63 60
        E 60 80 4a 00
        E 0 80 57 00
        E 0 80 63 00
        E 180 90 3e 60
        E 0 90 4a 60
        E 0 90 57 60
        E 0 90 63 60
        E 60 80 3e 00
        E 0 80 4a 00
        E 0 80 57 00
        E 0 80 63 00
        E 180 90 58 60
        E 0 90 64 60
        E 60 80 58 00
        E 0 80 64 00
        E 180 90 49 60
        E 0 90 56 60
        E 0 90 62 60
        E 120 80 49 00
        E 0 80 56 00
        E 180 80 62 00
        E 60 80 74 00
        E 120 90 3c 60
        E 0 90 48 60
        E 0 90 55 60
        E 0 90 61 60
        E 120 80 3c 00
        E 0 80 48 00
        E 240 80 55 00
        E 60 80 61 00
        E 60 90 3c 60
        E 0 90 48 60
        E 0 90 55 60
        E 0 90 61 60
        E 120 80 3c 00
        E 0 80 48 00
        E 0 80 55 00
        E 180 80 61 00
        E 420 90 4a 60
        E 0 90 57 60
        E 0 90 63 60
        E 60 80 4a 00
        E 0 80 57 00
        E 0 80 63 00
        E 180 90 4a 60
        E 0 90 57 60
        E 0 90 63 60
        E 60 80 4a 00
        E 0 80 57 00
        E 0 80 63 00
        E 420 90 3f 60
        E 0 90 4b 60
        E 0 90 58 60
        E 0 90 64 60
        E 120 80 3f 00
        E 0 80 4b 00
        E 360 80 58 00
        E 0 80 64 00
        E 240 90 4b 60
        E 0 90 58 60
        E 0 90 64 60
        E 60 80 4b 00
        E 0 80 58 00
        E 0 80 64 00
        E 180 90 3f 60
        E 0 90 4b 60
        E 0 90 58 60
        E 0 90 64 60
        E 480 80 3f 00
        E 0 80 4b 00
        E 0 80 58 00
        E 0 80 64 00
        E 240 90 57 60
        E 0 90 63 60
        E 60 80 57 00
        E 0 80 63 00
        E 180 90 3d 60
        E 0 90 49 60
        E 0 90 56 60
        E 0 90 62 60
        E 480 80 3d 00
        E 0 80 49 00
        E 0 80 56 00
        E 0 80 62 00
        E 240 90 56 60
        E 0 90 62 60
        E 60 80 56 00
        E 0 80 62 00
        E 180 90 3e 60
        E 0 90 4a 60
        E 0 90 57 60
        E 0 90 63 60
        E 480 80 3e 00
        E 0 80 4a 00
        E 0 80 57 00
        E 0 80 63 00
        E 240 90 57 60
        E 0 90 63 60
        E 60 80 57 00
        E 0 80 63 00
        E 180 90 3d 60
        E 0 90 49 60
        E 0 90 56 60
        E 0 90 62 60
        E 120 80 3d 00
        E 0 80 49 00
        E 0 80 56 00
        E 180 80 62 00
        E 180 90 48 60
        E 0 90 54 60
        E 0 90 60 60
        E 60 80 48 00
        E 0 80 54 00
        E 0 80 60 00
        E 180 90 55 60
        E 0 90 61 60
        E 60 80 55 00
        E 0 80 61 00
        E 180 90 3d 60
        E 0 90 49 60
        E 0 90 56 60
        E 0 90 62 60
        E 120 80 3d 00
        E 0 80 49 00
        E 0 80 56 00
        E 180 80 62 00
        E 180 90 48 60
        E 0 90 55 60
        E 0 90 61 60
        E 120 80 48 00
        E 0 80 55 00
        E 180 80 61 00
        E 180 90 3c 60
        E 0 90 48 60
        E 0 90 55 60
        E 0 90 61 60
        E 120 80 3c 00
        E 0 80 48 00
        E 240 80 55 00
        E 60 80 61 00
        E 60 90 3c 60
        E 0 90 48 60
        E 0 90 55 60
        E 0 90 61 60
        E 120 80 3c 00
        E 0 80 48 00
        E 0 80 55 00
        E 180 80 61 00
        E 420 90 4a 60
        E 0 90 57 60
        E 0 90 63 60
        E 60 80 4a 00
        E 0 80 57 00
        E 0 80 63 00
        E 180 90 4a 60
        E 0 90 57 60
        E 0 90 63 60
        E 60 80 4a 00
        E 0 80 57 00
        E 0 80 63 00
        E 420 90 3f 60
        E 0 90 4b 60
        E 0 90 58 60
        E 0 90 64 60
        E 120 80 3f 00
        E 0 80 4b 00
        E 360 80 58 00
        E 0 80 64 00
        E 240 90 4b 60
        E 0 90 58 60
        E 0 90 64 60
        E 60 80 4b 00
        E 0 80 58 00
        E 0 80 64 00
        E 180 90 3f 60
        E 0 90 4b 60
        E 0 90 58 60
        E 0 90 64 60
        E 480 80 3f 00
        E 0 80 4b 00
        E 0 80 58 00
        E 0 80 64 00
        E 240 90 57 60
        E 0 90 63 60
        E 60 80 57 00
        E 0 80 63 00
        E 180 90 3d 60
        E 0 90 49 60
        E 0 90 56 60
        E 0 90 62 60
        E 480 80 3d 00
        E 0 80 49 00
        E 0 80 56 00
        E 0 80 62 00
        E 240 90 56 60
        E 0 90 62 60
        E 60 80 56 00
        E 0 80 62 00
        E 180 90 3e 60
        E 0 90 4a 60
        E 0 90 57 60
        E 0 90 63 60
        E 480 80 3e 00
        E 0 80 4a 00
        E 0 80 57 00
        E 0 80 63 00
        E 240 90 57 60
        E 0 90 63 60
        E 60 80 57 00
        E 0 80 63 00
        E 180 90 3d 60
        E 0 90 49 60
        E 0 90 56 60
        E 0 90 62 60
        E 120 80 3d 00
        E 0 80 49 00
        E 240 80 56 00
        E 60 80 62 00
        E 60 90 49 60
        E 0 90 56 60
        E 0 90 62 60
        E 60 80 49 00
        E 0 80 56 00
        E 0 80 62 00
        E 180 90 57 60
        E 0 90 63 60
        E 60 80 57 00
        E 0 80 63 00
        E 180 90 3e 60
        E 0 90 4a 60
        E 0 90 57 60
        E 0 90 63 60
        E 480 80 3e 00
        E 0 80 4a 00
        E 300 80 57 00
        E 0 80 63 00
        E 180 90 3e 60
        E 0 90 4a 60
        E 0 90 57 60
        E 0 90 63 60
        E 480 80 3e 00
        E 0 80 4a 00
        E 0 80 57 00
        E 0 80 63 00
        E 480 90 3d 60
        E 0 90 49 60
        E 0 90 56 60
        E 0 90 62 60
        E 60 80 3d 00
        E 0 80 49 00
        E 0 80 56 00
        E 0 80 62 00
        E 300 90 56 60
        E 0 90 62 60
        E 60 80 56 00
        E 0 80 62 00
        E 300 90 56 60
        E 0 90 62 60
        E 60 80 56 00
        E 0 80 62 00
        E 180 90 3e 60
        E 0 90 4a 60
        E 0 90 57 60
        E 0 90 63 60
        E 120 80 3e 00
        E 0 80 4a 00
        E 240 80 57 00
        E 60 80 63 00
        E 60 90 4a 60
        E 0 90 57 60
        E 0 90 63 60
        E 120 80 4a 00
        E 0 80 57 00
        E 141 90 74 67
        E 39 80 63 00
        E 180 90 3c 60
        E 0 90 48 60
        E 0 90 55 60
        E 0 90 61 60
        E 120 80 3c 00
        E 0 80 48 00
        E 360 80 55 00
        E 0 80 61 00
        E 240 90 48 60
        E 0 90 55 60
        E 0 90 61 60
        E 60 80 48 00
        E 0 80 55 00
        E 0 80 61 00
        E 180 90 3c 60
        E 0 90 48 60
        E 0 90 55 60
        E 0 90 61 60
        E 480 80 3c 00
        E 0 80 48 00
        E 120 80 55 00
        E 0 80 61 00
        E 360 90 3c 60
        E 0 90 48 60
        E 0 90 55 60
        E 0 90 61 60
        E 120 80 3c 00
        E 0 80 48 00
        E 257 80 74 00
        E 103 80 55 00
        E 0 80 61 00
        E 240 90 48 60
        E 0 90 55 60
        E 0 90 61 60
        E 60 80 48 00
        E 0 80 55 00
        E 0 80 61 00
        E 180 90 3c 60
        E 0 90 48 60
        E 0 90 55 60
        E 0 90 61 60
        E 120 80 3c 00
        E 0 80 48 00
        E 240 80 55 00
        E 60 80 61 00
        E 60 90 48 60
        E 0 90 55 60
        E 0 90 61 60
        E 60 80 48 00
        E 0 80 55 00
        E 0 80 61 00
        E 180 90 56 60
        E 0 90 62 60
        E 60 80 56 00
        E 0 80 62 00
        E 180 90 3d 60
        E 0 90 49 60
        E 0 90 56 60
        E 0 90 62 60
        E 120 80 3d 00
        E 0 80 49 00
        E 360 80 56 00
        E 0 80 62 00
        E 240 90 49 60
        E 0 90 56 60
        E 0 90 62 60
        E 60 80 49 00
        E 0 80 56 00
        E 0 80 62 00
        E 180 90 3d 60
        E 0 90 49 60
        E 0 90 56 60
        E 0 90 62 60
        E 480 80 3d 00
        E 0 80 49 00
        E 0 80 56 00
        E 0 80 62 00
        E 240 90 56 60
        E 0 90 62 60
        E 60 80 56 00
        E 0 80 62 00
        E 180 90 3e 60
        E 0 90 4a 60
        E 0 90 57 60
        E 0 90 63 60
        E 120 80 3e 00
        E 0 80 4a 00
        E 420 80 57 00
        E 0 80 63 00
        E 180 90 4a 60
        E 0 90 57 60
        E 0 90 63 60
        E 60 80 4a 00
        E 0 80 57 00
        E 0 80 63 00
        E 180 90 3e 60
        E 0 90 4a 60
        E 0 90 57 60
        E 0 90 63 60
        E 120 80 3e 00
        E 0 80 4a 00
        E 0 80 57 00
        E 180 80 63 00
        E 180 90 49 60
        E 0 90 56 60
        E 0 90 62 60
        E 120 80 49 00
        E 0 80 56 00
        E 180 80 62 00
        E 180 90 3d 60
        E 0 90 49 60
        E 0 90 56 60
        E 0 90 62 60
        E 120 80 3d 00
        E 0 80 49 00
        E 480 80 56 00
        E 60 80 62 00
        E 60 90 49 60
        E 0 90 56 60
        E 0 90 62 60
        E 60 80 49 00
        E 0 80 56 00
        E 0 80 62 00
        E 180 90 3d 60
        E 0 90 49 60
        E 0 90 56 60
        E 0 90 62 60
        E 120 80 3d 00
        E 0 80 49 00
        E 0 80 56 00
        E 180 80 62 00
        E 180 90 48 60
        E 0 90 55 60
        E 0 90 61 60
        E 120 80 48 00
        E 0 80 55 00
        E 180 80 61 00
        E 180 90 3c 60
        E 0 90 48 60
        E 0 90 54 60
        E 0 90 60 60
        E 120 80 3c 00
        E 0 80 48 00
        E 360 80 54 00
        E 0 80 60 00
        E 240 90 48 60
        E 0 90 54 60
        E 0 90 60 60
        E 60 80 48 00
        E 0 80 54 00
        E 0 80 60 00
        E 180 90 3c 60
        E 0 90 48 60
        E 0 90 54 60
        E 0 90 60 60
        E 60 80 3c 00
        E 0 80 48 00
        E 0 80 54 00
        E 0 80 60 00
        E 180 90 54 60
        E 0 90 60 60
        E 60 80 54 00
        E 0 80 60 00
        E 180 90 4a 60
        E 0 90 57 60
        E 0 90 63 60
        E 120 80 4a 00
        E 240 80 57 00
        E 60 80 63 00
        E 60 90 3e 60
        E 0 90 4a 60
        E 0 90 57 60
        E 0 90 63 60
        E 120 80 3e 00
        E 0 80 4a 00
        E 360 80 57 00
        E 0 80 63 00
        E 240 90 4a 60
        E 0 90 57 60
        E 0 90 63 60
        E 60 80 4a 00
        E 0 80 57 00
        E 0 80 63 00
        E 180 90 3e 60
        E 0 90 4a 60
        E 0 90 57 60
        E 0 90 63 60
        E 480 80 3e 00
        E 0 80 4a 00
        E 60 80 57 00
        E 0 80 63 00
        E 420 90 3e 60
        E 0 90 4a 60
        E 0 90 57 60
        E 0 90 63 60
        E 120 80 3e 00
        E 0 80 4a 00
        E 360 80 57 00
        E 0 80 63 00
        E 240 90 4a 60
        E 0 90 57 60
        E 0 90 63 60
        E 60 80 4a 00
        E 0 80 57 00
        E 0 80 63 00
        E 180 90 3e 60
        E 0 90 4a 60
        E 0 90 57 60
        E 0 90 63 60
        E 60 80 3e 00
        E 0 80 4a 00
        E 0 80 57 00
        E 0 80 63 00
        E 180 90 4a 60
        E 0 90 57 60
        E 0 90 63 60
        E 60 80 4a 00
        E 0 80 57 00
        E 0 80 63 00
        E 180 90 3e 60
        E 0 90 4a 60
        E 0 90 57 60
        E 0 90 63 60
        E 60 80 3e 00
        E 0 80 4a 00
        E 0 80 57 00
        E 0 80 63 00
        E 180 90 4a 60
        E 0 90 57 60
        E 0 90 63 60
        E 60 80 4a 00
        E 0 80 57 00
        E 0 80 63 00
        E 180 90 3e 60
        E 0 90 4a 60
        E 0 90 57 60
        E 0 90 63 60
        E 120 80 3e 00
        E 0 80 4a 00
        E 420 80 57 00
        E 0 80 63 00
        E 180 90 4a 60
        E 0 90 57 60
        E 0 90 63 60
        E 60 80 4a 00
        E 0 80 57 00
        E 0 80 63 00
        E 180 90 3e 60
        E 0 90 4a 60
        E 0 90 57 60
        E 0 90 63 60
        E 480 80 3e 00
        E 0 80 4a 00
        E 60 80 57 00
        E 0 80 63 00
        E 420 90 3e 60
        E 0 90 4a 60
        E 0 90 57 60
        E 0 90 63 60
        E 120 80 3e 00
        E 0 80 4a 00
        E 360 80 57 00
        E 0 80 63 00
        E 240 90 4a 60
        E 0 90 57 60
        E 0 90 63 60
        E 60 80 4a 00
        E 0 80 57 00
        E 0 80 63 00
        E 180 90 3e 60
        E 0 90 4a 60
        E 0 90 57 60
        E 0 90 63 60
        E 60 80 3e 00
        E 0 80 4a 00
        E 0 80 57 00
        E 0 80 63 00
        E 180 90 58 60
        E 0 90 64 60
        E 60 80 58 00
        E 0 80 64 00
        E 180 90 3e 60
        E 0 90 4a 60
        E 0 90 57 60
        E 0 90 63 60
        E 60 80 3e 00
        E 0 80 4a 00
        E 0 80 57 00
        E 0 80 63 00
        E 420 90 3e 60
        E 0 90 4a 60
        E 0 90 57 60
        E 0 90 63 60
        E 120 80 3e 00
        E 0 80 4a 00
        E 420 80 57 00
        E 0 80 63 00
        E 180 90 4a 60
        E 0 90 57 60
        E 0 90 63 60
        E 60 80 4a 00
        E 0 80 57 00
        E 0 80 63 00
        E 180 90 3e 60
        E 0 90 4a 60
        E 0 90 57 60
        E 0 90 63 60
        E 480 80 3e 00
        E 0 80 4a 00
        E 0 80 57 00
        E 0 80 63 00
        E 240 90 57 60
        E 0 90 63 60
        E 60 80 57 00
        E 0 80 63 00
        E 180 90 3f 60
        E 0 90 4b 60
        E 0 90 58 60
        E 0 90 64 60
        E 0 90 74 60
        E 480 80 3f 00
        E 0 80 4b 00
        E 60 80 58 00
        E 0 80 64 00
        E 180 90 58 60
        E 0 90 64 60
        E 60 80 58 00
        E 0 80 64 00
        E 180 90 3e 60
        E 0 90 4a 60
        E 0 90 57 60
        E 0 90 63 60
        E 120 80 3e 00
        E 0 80 4a 00
        E 240 80 57 00
        E 60 80 63 00
        E 60 90 4a 60
        E 0 90 57 60
        E 0 90 63 60
        E 120 80 4a 00
        E 0 80 57 00
        E 180 80 63 00
        E 180 90 3d 60
        E 0 90 49 60
        E 0 90 56 60
        E 0 90 62 60
        E 120 80 3d 00
        E 0 80 49 00
        E 420 80 56 00
        E 0 80 62 00
        E 180 90 49 60
        E 0 90 56 60
        E 0 90 62 60
        E 60 80 49 00
        E 0 80 56 00
        E 0 80 62 00
        E 180 90 3d 60
        E 0 90 49 60
        E 0 90 56 60
        E 0 90 62 60
        E 120 80 3d 00
        E 0 80 49 00
        E 0 80 56 00
        E 180 80 62 00
        E 180 90 48 60
        E 0 90 55 60
        E 0 90 61 60
        E 120 80 48 00
        E 0 80 55 00
        E 180 80 61 00
        E 180 90 3c 60
        E 0 90 48 60
        E 0 90 54 60
        E 0 90 60 60
        E 120 80 3c 00
        E 0 80 48 00
        E 360 80 54 00
        E 0 80 60 00
        E 60 80 74 00
        E 180 90 48 60
        E 0 90 54 60
        E 0 90 60 60
        E 60 80 48 00
        E 0 80 54 00
        E 0 80 60 00
        E 180 90 3c 60
        E 0 90 48 60
        E 0 90 54 60
        E 0 90 60 60
        E 120 80 3c 00
        E 0 80 48 00
        E 0 80 54 00
        E 180 80 60 00
        E 180 90 4a 60
        E 0 90 57 60
        E 0 90 63 60
        E 120 80 4a 00
        E 240 80 57 00
        E 60 80 63 00
        E 60 90 3e 60
        E 0 90 4a 60
        E 0 90 57 60
        E 0 90 63 60
        E 120 80 3e 00
        E 0 80 4a 00
        E 360 80 57 00
        E 0 80 63 00
        E 240 90 4a 60
        E 0 90 57 60
        E 0 90 63 60
        E 60 80 4a 00
        E 0 80 57 00
        E 0 80 63 00
        E 180 90 3e 60
        E 0 90 4a 60
        E 0 90 57 60
        E 0 90 63 60
        E 60 80 3e 00
        E 0 80 4a 00
        E 0 80 57 00
        E 0 80 63 00
        E 180 90 4a 60
        E 0 90 57 60
        E 0 90 63 60
        E 60 80 4a 00
        E 0 80 57 00
        E 0 80 63 00
        E 660 90 3e 60
        E 0 90 4a 60
        E 0 90 57 60
        E 0 90 63 60
        E 120 80 3e 00
        E 0 80 4a 00
        E 360 80 57 00
        E 0 80 63 00
        E 240 90 4a 60
        E 0 90 57 60
        E 0 90 63 60
        E 60 80 4a 00
        E 0 80 57 00
        E 0 80 63 00
        E 180 90 3e 60
        E 0 90 4a 60
        E 0 90 57 60
        E 0 90 63 60
        E 60 80 3e 00
        E 0 80 4a 00
        E 0 80 57 00
        E 0 80 63 00
        E 180 90 4a 60
        E 0 90 57 60
        E 0 90 63 60
        E 60 80 4a 00
        E 0 80 57 00
        E 0 80 63 00
        E 180 90 3e 60
        E 0 90 4a 60
        E 0 90 57 60
        E 0 90 63 60
        E 60 80 3e 00
        E 0 80 4a 00
        E 0 80 57 00
        E 0 80 63 00
        E 180 90 4a 60
        E 0 90 57 60
        E 0 90 63 60
        E 60 80 4a 00
        E 0 80 57 00
        E 0 80 63 00
        E 180 90 3e 60
        E 0 90 4a 60
        E 0 90 57 60
        E 0 90 63 60
        E 120 80 3e 00
        E 0 80 4a 00
        E 420 80 57 00
        E 0 80 63 00
        E 180 90 4a 60
        E 0 90 57 60
        E 0 90 63 60
        E 60 80 4a 00
        E 0 80 57 00
        E 0 80 63 00
        E 180 90 3e 60
        E 0 90 4a 60
        E 0 90 57 60
        E 0 90 63 60
        E 60 80 3e 00
        E 0 80 4a 00
        E 0 80 57 00
        E 0 80 63 00
        E 180 90 4a 60
        E 0 90 57 60
        E 0 90 63 60
        E 60 80 4a 00
        E 0 80 57 00
        E 0 80 63 00
        E 660 90 3e 60
        E 0 90 4a 60
        E 0 90 57 60
        E 0 90 63 60
        E 120 80 3e 00
        E 0 80 4a 00
        E 360 80 57 00
        E 0 80 63 00
        E 240 90 4a 60
        E 0 90 57 60
        E 0 90 63 60
        E 60 80 4a 00
        E 0 80 57 00
        E 0 80 63 00
        E 180 90 3e 60
        E 0 90 4a 60
        E 0 90 57 60
        E 0 90 63 60
        E 60 80 3e 00
        E 0 80 4a 00
        E 0 80 57 00
        E 0 80 63 00
        E 180 90 58 60
        E 0 90 64 60
        E 60 80 58 00
        E 0 80 64 00
        E 180 90 49 60
        E 0 90 56 60
        E 0 90 62 60
        E 120 80 49 00
        E 0 80 56 00
        E 180 80 62 00
        E 180 90 3c 60
        E 0 90 48 60
        E 0 90 55 60
        E 0 90 61 60
        E 120 80 3c 00
        E 0 80 48 00
        E 240 80 55 00
        E 60 80 61 00
        E 60 90 3c 60
        E 0 90 48 60
        E 0 90 55 60
        E 0 90 61 60
        E 120 80 3c 00
        E 0 80 48 00
        E 0 80 55 00
        E 180 80 61 00
        E 420 90 4a 60
        E 0 90 57 60
        E 0 90 63 60
        E 60 80 4a 00
        E 0 80 57 00
        E 0 80 63 00
        E 180 90 4a 60
        E 0 90 57 60
        E 0 90 63 60
        E 60 80 4a 00
        E 0 80 57 00
        E 0 80 63 00
        E 420 90 3f 60
        E 0 90 4b 60
        E 0 90 58 60
        E 0 90 64 60
        E 120 80 3f 00
        E 0 80 4b 00
        E 360 80 58 00
        E 0 80 64 00
        E 240 90 4b 60
        E 0 90 58 60
        E 0 90 64 60
        E 60 80 4b 00
        E 0 80 58 00
        E 0 80 64 00
        E 180 90 3f 60
        E 0 90 4b 60
        E 0 90 58 60
        E 0 90 64 60
        E 480 80 3f 00
        E 0 80 4b 00
        E 0 80 58 00
        E 0 80 64 00
        E 240 90 57 60
        E 0 90 63 60
        E 60 80 57 00
        E 0 80 63 00
        E 180 90 3d 60
        E 0 90 49 60
        E 0 90 56 60
        E 0 90 62 60
        E 480 80 3d 00
        E 0 80 49 00
        E 0 80 56 00
        E 0 80 62 00
        E 240 90 56 60
        E 0 90 62 60
        E 60 80 56 00
        E 0 80 62 00
        E 180 90 3e 60
        E 0 90 4a 60
        E 0 90 57 60
        E 0 90 63 60
        E 480 80 3e 00
        E 0 80 4a 00
        E 0 80 57 00
        E 0 80 63 00
        E 240 90 57 60
        E 0 90 63 60
        E 60 80 57 00
        E 0 80 63 00
        E 180 90 3d 60
        E 0 90 49 60
        E 0 90 56 60
        E 0 90 62 60
        E 120 80 3d 00
        E 0 80 49 00
        E 0 80 56 00
        E 180 80 62 00
        E 180 90 48 60
        E 0 90 54 60
        E 0 90 60 60
        E 60 80 48 00
        E 0 80 54 00
        E 0 80 60 00
        E 180 90 55 60
        E 0 90 61 60
        E 60 80 55 00
        E 0 80 61 00
        E 180 90 3d 60
        E 0 90 49 60
        E 0 90 56 60
        E 0 90 62 60
        E 120 80 3d 00
        E 0 80 49 00
        E 0 80 56 00
        E 180 80 62 00
        E 180 90 48 60
        E 0 90 55 60
        E 0 90 61 60
        E 120 80 48 00
        E 0 80 55 00
        E 180 80 61 00
        E 71 90 74 67
        E 109 90 3c 60
        E 0 90 48 60
        E 0 90 55 60
        E 0 90 61 60
        E 120 80 3c 00
        E 0 80 48 00
        E 240 80 55 00
        E 60 80 61 00
        E 60 90 3c 60
        E 0 90 48 60
        E 0 90 55 60
        E 0 90 61 60
        E 120 80 3c 00
        E 0 80 48 00
        E 0 80 55 00
        E 180 80 61 00
        E 420 90 4a 60
        E 0 90 57 60
        E 0 90 63 60
        E 60 80 4a 00
        E 0 80 57 00
        E 0 80 63 00
        E 180 90 4a 60
        E 0 90 57 60
        E 0 90 63 60
        E 60 80 4a 00
        E 0 80 57 00
        E 0 80 63 00
        E 420 90 3f 60
        E 0 90 4b 60
        E 0 90 58 60
        E 0 90 64 60
        E 120 80 3f 00
        E 0 80 4b 00
        E 360 80 58 00
        E 0 80 64 00
        E 240 90 4b 60
        E 0 90 58 60
        E 0 90 64 60
        E 36 80 74 00
        E 24 80 4b 00
        E 0 80 58 00
        E 0 80 64 00
        E 180 90 3f 60
        E 0 90 4b 60
        E 0 90 58 60
        E 0 90 64 60
        E 480 80 3f 00
        E 0 80 4b 00
        E 0 80 58 00
        E 0 80 64 00
        E 240 90 57 60
        E 0 90 63 60
        E 60 80 57 00
        E 0 80 63 00
        E 180 90 3d 60
        E 0 90 49 60
        E 0 90 56 60
        E 0 90 62 60
        E 480 80 3d 00
        E 0 80 49 00
        E 0 80 56 00
        E 0 80 62 00
        E 240 90 56 60
        E 0 90 62 60
        E 60 80 56 00
        E 0 80 62 00
        E 180 90 3e 60
        E 0 90 4a 60
        E 0 90 57 60
        E 0 90 63 60
        E 60 80 3e 00
        E 0 80 4a 00
        E 0 80 57 00
        E 0 80 63 00
        E 180 90 4a 60
        E 0 90 57 60
        E 0 90 63 60
        E 60 80 4a 00
        E 0 80 57 00
        E 0 80 63 00
        E 420 90 57 60
        E 0 90 63 60
        E 60 80 57 00
        E 0 80 63 00
        E 180 90 3d 60
        E 0 90 49 60
        E 0 90 56 60
        E 0 90 62 60
        E 120 80 3d 00
        E 0 80 49 00
        E 240 80 56 00
        E 60 80 62 00
        E 60 90 49 60
        E 0 90 56 60
        E 0 90 62 60
        E 60 80 49 00
        E 0 80 56 00
        E 0 80 62 00
        E 180 90 57 60
        E 0 90 63 60
        E 60 80 57 00
        E 0 80 63 00
        E 180 90 3e 60
        E 0 90 4a 60
        E 0 90 57 60
        E 0 90 63 60
        E 120 80 3e 00
        E 0 80 4a 00
        E 420 80 57 00
        E 0 80 63 00
        E 180 90 4a 60
        E 0 90 57 60
        E 0 90 63 60
        E 60 80 4a 00
        E 0 80 57 00
        E 0 80 63 00
        E 180 90 3e 60
        E 0 90 4a 60
        E 0 90 57 60
        E 0 90 63 60
        E 60 80 3e 00
        E 0 80 4a 00
        E 0 80 57 00
        E 0 80 63 00
        E 180 90 4a 60
        E 0 90 57 60
        E 0 90 63 60
        E 60 80 4a 00
        E 0 80 57 00
        E 0 80 63 00
        E 660 90 3d 60
        E 0 90 49 60
        E 0 90 56 60
        E 0 90 62 60
        E 60 80 3d 00
        E 0 80 49 00
        E 0 80 56 00
        E 0 80 62 00
        E 300 90 56 60
        E 0 90 62 60
        E 60 80 56 00
        E 0 80 62 00
        E 300 90 56 60
        E 0 90 62 60
        E 60 80 56 00
        E 0 80 62 00
        E 180 90 3e 60
        E 0 90 4a 60
        E 0 90 57 60
        E 0 90 63 60
        E 120 80 3e 00
        E 0 80 4a 00
        E 240 80 57 00
        E 60 80 63 00
        E 60 90 4a 60
        E 0 90 57 60
        E 0 90 63 60
        E 120 80 4a 00
        E 0 80 57 00
        E 180 80 63 00
        E 180 90 3c 60
        E 0 90 48 60
        E 0 90 55 60
        E 0 90 61 60
        E 120 80 3c 00
        E 0 80 48 00
        E 360 80 55 00
        E 0 80 61 00
        E 240 90 48 60
        E 0 90 55 60
        E 0 90 61 60
        E 60 80 48 00
        E 0 80 55 00
        E 0 80 61 00
        E 180 90 3c 60
        E 0 90 48 60
        E 0 90 55 60
        E 0 90 61 60
        E 480 80 3c 00
        E 0 80 48 00
        E 0 80 55 00
        E 0 80 61 00
        E 480 90 3c 60
        E 0 90 48 60
        E 0 90 55 60
        E 0 90 61 60
        E 120 80 3c 00
        E 0 80 48 00
        E 240 80 55 00
        E 60 80 61 00
        E 60 90 3c 60
        E 0 90 48 60
        E 0 90 55 60
        E 0 90 61 60
        E 120 80 3c 00
        E 0 80 48 00
        E 0 80 55 00
        E 180 80 61 00
        E 420 90 4a 60
        E 0 90 57 60
        E 0 90 63 60
        E 60 80 4a 00
        E 0 80 57 00
        E 0 80 63 00
        E 180 90 4a 60
        E 0 90 57 60
        E 0 90 63 60
        E 60 80 4a 00
        E 0 80 57 00
        E 0 80 63 00
        E 420 90 3f 60
        E 0 90 4b 60
        E 0 90 58 60
        E 0 90 64 60
        E 120 80 3f 00
        E 0 80 4b 00
        E 360 80 58 00
        E 0 80 64 00
        E 240 90 4b 60
        E 0 90 58 60
        E 0 90 64 60
        E 60 80 4b 00
        E 0 80 58 00
        E 0 80 64 00
        E 180 90 3f 60
        E 0 90 4b 60
        E 0 90 58 60
        E 0 90 64 60
        E 480 80 3f 00
        E 0 80 4b 00
        E 0 80 58 00
        E 0 80 64 00
        E 240 90 57 60
        E 0 90 63 60
        E 60 80 57 00
        E 0 80 63 00
        E 180 90 3d 60
        E 0 90 49 60
        E 0 90 56 60
        E 0 90 62 60
        E 480 80 3d 00
        E 0 80 49 00
        E 0 80 56 00
        E 0 80 62 00
        E 240 90 56 60
        E 0 90 62 60
        E 60 80 56 00
        E 0 80 62 00
        E 180 90 3e 60
        E 0 90 4a 60
        E 0 90 57 60
        E 0 90 63 60
        E 60 80 3e 00
        E 0 80 4a 00
        E 0 80 57 00
        E 0 80 63 00
        E 180 90 4a 60
        E 0 90 57 60
        E 0 90 63 60
        E 60 80 4a 00
        E 0 80 57 00
        E 0 80 63 00
        E 420 90 57 60
        E 0 90 63 60
        E 60 80 57 00
        E 0 80 63 00
        E 180 90 3d 60
        E 0 90 49 60
        E 0 90 56 60
        E 0 90 62 60
        E 120 80 3d 00
        E 0 80 49 00
        E 0 80 56 00
        E 180 80 62 00
        E 180 90 48 60
        E 0 90 54 60
        E 0 90 60 60
        E 60 80 48 00
        E 0 80 54 00
        E 0 80 60 00
        E 180 90 55 60
        E 0 90 61 60
        E 60 80 55 00
        E 0 80 61 00
        E 180 90 3d 60
        E 0 90 49 60
        E 0 90 56 60
        E 0 90 62 60
        E 120 80 3d 00
        E 0 80 49 00
        E 0 80 56 00
        E 180 80 62 00
        E 180 90 48 60
        E 0 90 55 60
        E 0 90 61 60
        E 120 80 48 00
        E 0 80 55 00
        E 180 80 61 00
        E 180 90 3c 60
        E 0 90 48 60
        E 0 90 55 60
        E 0 90 61 60
        e 0 90 74 67
        E 120 80 3c 00
        E 0 80 48 00
        E 240 80 55 00
        E 60 80 61 00
        E 60 90 3c 60
        E 0 90 48 60
        E 0 90 55 60
        E 0 90 61 60
        E 120 80 3c 00
        E 0 80 48 00
        E 0 80 55 00
        E 180 80 61 00
        E 420 90 4a 60
        E 0 90 57 60
        E 0 90 63 60
        E 60 80 4a 00
        E 0 80 57 00
        E 0 80 63 00
        E 180 90 4a 60
        E 0 90 57 60
        E 0 90 63 60
        E 60 80 4a 00
        E 0 80 57 00
        E 0 80 63 00
        E 420 90 3f 60
        E 0 90 4b 60
        E 0 90 58 60
        E 0 90 64 60
        E 120 80 3f 00
        E 0 80 4b 00
        E 360 80 58 00
        E 0 80 64 00
        E 240 90 4b 60
        E 0 90 58 60
        E 0 90 64 60
        E 60 80 4b 00
        E 0 80 58 00
        E 0 80 64 00
        E 180 90 3f 60
        E 0 90 4b 60
        E 0 90 58 60
        E 0 90 64 60
        e 480 80 74 00
        E 0 80 3f 00
        E 0 80 4b 00
        E 0 80 58 00
        E 0 80 64 00
        E 240 90 57 60
        E 0 90 63 60
        E 60 80 57 00
        E 0 80 63 00
        E 180 90 3d 60
        E 0 90 49 60
        E 0 90 56 60
        E 0 90 62 60
        E 480 80 3d 00
        E 0 80 49 00
        E 0 80 56 00
        E 0 80 62 00
        E 240 90 56 60
        E 0 90 62 60
        E 60 80 56 00
        E 0 80 62 00
        E 180 90 3e 60
        E 0 90 4a 60
        E 0 90 57 60
        E 0 90 63 60
        E 60 80 3e 00
        E 0 80 4a 00
        E 0 80 57 00
        E 0 80 63 00
        E 180 90 4a 60
        E 0 90 57 60
        E 0 90 63 60
        E 60 80 4a 00
        E 0 80 57 00
        E 0 80 63 00
        E 420 90 57 60
        E 0 90 63 60
        E 60 80 57 00
        E 0 80 63 00
        E 180 90 3d 60
        E 0 90 49 60
        E 0 90 56 60
        E 0 90 62 60
        E 120 80 3d 00
        E 0 80 49 00
        E 240 80 56 00
        E 60 80 62 00
        E 60 90 49 60
        E 0 90 56 60
        E 0 90 62 60
        E 60 80 49 00
        E 0 80 56 00
        E 0 80 62 00
        E 180 90 57 60
        E 0 90 63 60
        E 60 80 57 00
        E 0 80 63 00
        E 180 90 3e 60
        E 0 90 4a 60
        E 0 90 57 60
        E 0 90 63 60
        E 120 80 3e 00
        E 0 80 4a 00
        E 420 80 57 00
        E 0 80 63 00
        E 180 90 4a 60
        E 0 90 57 60
        E 0 90 63 60
        E 60 80 4a 00
        E 0 80 57 00
        E 0 80 63 00
        E 180 90 3e 60
        E 0 90 4a 60
        E 0 90 57 60
        E 0 90 63 60
        E 60 80 3e 00
        E 0 80 4a 00
        E 0 80 57 00
        E 0 80 63 00
        E 180 90 4a 60
        E 0 90 57 60
        E 0 90 63 60
        E 60 80 4a 00
        E 0 80 57 00
        E 0 80 63 00
        E 660 90 3d 60
        E 0 90 49 60
        E 0 90 56 60
        E 0 90 62 60
        E 60 80 3d 00
        E 0 80 49 00
        E 0 80 56 00
        E 0 80 62 00
        E 300 90 56 60
        E 0 90 62 60
        E 60 80 56 00
        E 0 80 62 00
        E 300 90 56 60
        E 0 90 62 60
        E 60 80 56 00
        E 0 80 62 00
        E 180 90 3e 60
        E 0 90 4a 60
        E 0 90 57 60
        E 0 90 63 60
        E 120 80 3e 00
        E 0 80 4a 00
        E 240 80 57 00
        E 60 80 63 00
        E 60 90 4a 60
        E 0 90 57 60
        E 0 90 63 60
        E 120 80 4a 00
        E 0 80 57 00
        E 180 80 63 00
        E 180 90 3c 60
        E 0 90 48 60
        E 0 90 55 60
        E 0 90 61 60
        E 120 80 3c 00
        E 0 80 48 00
        E 240 80 55 00
        E 60 80 61 00
        E 60 90 3c 60
        E 0 90 48 60
        E 0 90 55 60
        E 0 90 61 60
        E 120 80 3c 00
        E 0 80 48 00
        E 360 80 55 00
        E 0 80 61 00
        E 300 90 48 60
        E 0 90 55 60
        E 0 90 61 60
        E 120 80 48 00
        E 0 80 55 00
        E 180 80 61 00
        E 360 90 3c 60
        E 0 90 48 60
        E 0 90 55 60
        E 0 90 61 60
        E 120 80 3c 00
        E 0 80 48 00
        E 240 80 55 00
        E 60 80 61 00
        E 60 90 3c 60
        E 0 90 48 60
        E 0 90 55 60
        E 0 90 61 60
        E 120 80 3c 00
        E 0 80 48 00
        E 0 80 55 00
        E 180 80 61 00
        E 420 90 4a 60
        E 0 90 57 60
        E 0 90 63 60
        E 60 80 4a 00
        E 0 80 57 00
        E 0 80 63 00
        E 180 90 4a 60
        E 0 90 57 60
        E 0 90 63 60
        E 60 80 4a 00
        E 0 80 57 00
        E 0 80 63 00
        E 420 90 3f 60
        E 0 90 4b 60
        E 0 90 58 60
        E 0 90 64 60
        E 120 80 3f 00
        E 0 80 4b 00
        E 360 80 58 00
        E 0 80 64 00
        E 240 90 4b 60
        E 0 90 58 60
        E 0 90 64 60
        E 60 80 4b 00
        E 0 80 58 00
        E 0 80 64 00
        E 180 90 3f 60
        E 0 90 4b 60
        E 0 90 58 60
        E 0 90 64 60
        E 480 80 3f 00
        E 0 80 4b 00
        E 0 80 58 00
        E 0 80 64 00
        E 240 90 57 60
        E 0 90 63 60
        E 60 80 57 00
        E 0 80 63 00
        E 180 90 3d 60
        E 0 90 49 60
        E 0 90 56 60
        E 0 90 62 60
        E 480 80 3d 00
        E 0 80 49 00
        E 0 80 56 00
        E 0 80 62 00
        E 240 90 56 60
        E 0 90 62 60
        E 60 80 56 00
        E 0 80 62 00
        E 180 90 3e 60
        E 0 90 4a 60
        E 0 90 57 60
        E 0 90 63 60
        E 480 80 3e 00
        E 0 80 4a 00
        E 0 80 57 00
        E 0 80 63 00
        E 240 90 57 60
        E 0 90 63 60
        E 60 80 57 00
        E 0 80 63 00
        E 180 90 3d 60
        E 0 90 49 60
        E 0 90 56 60
        E 0 90 62 60
        E 120 80 3d 00
        E 0 80 49 00
        E 0 80 56 00
        E 180 80 62 00
        E 180 90 48 60
        E 0 90 54 60
        E 0 90 60 60
        E 60 80 48 00
        E 0 80 54 00
        E 0 80 60 00
        E 180 90 55 60
        E 0 90 61 60
        E 60 80 55 00
        E 0 80 61 00
        E 180 90 3d 60
        E 0 90 49 60
        E 0 90 56 60
        E 0 90 62 60
        E 120 80 3d 00
        E 0 80 49 00
        E 0 80 56 00
        E 180 80 62 00
        E 180 90 48 60
        E 0 90 55 60
        E 0 90 61 60
        E 120 80 48 00
        E 0 80 55 00
        E 180 80 61 00
        E 180 90 3c 60
        E 0 90 48 60
        E 0 90 55 60
        E 0 90 61 60
        E 120 80 3c 00
        E 0 80 48 00
        E 240 80 55 00
        E 60 80 61 00
        E 60 90 3c 60
        E 0 90 48 60
        E 0 90 55 60
        E 0 90 61 60
        E 120 80 3c 00
        E 0 80 48 00
        E 0 80 55 00
        E 180 80 61 00
        E 420 90 4a 60
        E 0 90 57 60
        E 0 90 63 60
        E 60 80 4a 00
        E 0 80 57 00
        E 0 80 63 00
        E 180 90 4a 60
        E 0 90 57 60
        E 0 90 63 60
        E 60 80 4a 00
        E 0 80 57 00
        E 0 80 63 00
        E 420 90 3f 60
        E 0 90 4b 60
        E 0 90 58 60
        E 0 90 64 60
        E 120 80 3f 00
        E 0 80 4b 00
        E 360 80 58 00
        E 0 80 64 00
        E 240 90 4b 60
        E 0 90 58 60
        E 0 90 64 60
        E 60 80 4b 00
        E 0 80 58 00
        E 0 80 64 00
        E 180 90 3f 60
        E 0 90 4b 60
        E 0 90 58 60
        E 0 90 64 60
        E 480 80 3f 00
        E 0 80 4b 00
        E 0 80 58 00
        E 0 80 64 00
        E 240 90 57 60
        E 0 90 63 60
        E 60 80 57 00
        E 0 80 63 00
        E 180 90 3d 60
        E 0 90 49 60
        E 0 90 56 60
        E 0 90 62 60
        E 480 80 3d 00
        E 0 80 49 00
        E 0 80 56 00
        E 0 80 62 00
        E 240 90 56 60
        E 0 90 62 60
        E 60 80 56 00
        E 0 80 62 00
        E 180 90 3e 60
        E 0 90 4a 60
        E 0 90 57 60
        E 0 90 63 60
        E 480 80 3e 00
        E 0 80 4a 00
        E 0 80 57 00
        E 0 80 63 00
        E 240 90 57 60
        E 0 90 63 60
        E 60 80 57 00
        E 0 80 63 00
        E 180 90 3d 60
        E 0 90 49 60
        E 0 90 56 60
        E 0 90 62 60
        E 120 80 3d 00
        E 0 80 49 00
        E 240 80 56 00
        E 60 80 62 00
        E 60 90 49 60
        E 0 90 56 60
        E 0 90 62 60
        E 60 80 49 00
        E 0 80 56 00
        E 0 80 62 00
        E 180 90 57 60
        E 0 90 63 60
        E 60 80 57 00
        E 0 80 63 00
        E 180 90 3e 60
        E 0 90 4a 60
        E 0 90 57 60
        E 0 90 63 60
        E 120 80 3e 00
        E 0 80 4a 00
        E 420 80 57 00
        E 0 80 63 00
        E 180 90 4a 60
        E 0 90 57 60
        E 0 90 63 60
        E 60 80 4a 00
        E 0 80 57 00
        E 0 80 63 00
        E 180 90 3e 60
        E 0 90 4a 60
        E 0 90 57 60
        E 0 90 63 60
        E 60 80 3e 00
        E 0 80 4a 00
        E 0 80 57 00
        E 0 80 63 00
        E 180 90 4a 60
        E 0 90 57 60
        E 0 90 63 60
        E 60 80 4a 00
        E 0 80 57 00
        E 0 80 63 00
        E 660 90 3d 60
        E 0 90 49 60
        E 0 90 56 60
        E 0 90 62 60
        E 60 80 3d 00
        E 0 80 49 00
        E 0 80 56 00
        E 0 80 62 00
        E 300 90 56 60
        E 0 90 62 60
        E 60 80 56 00
        E 0 80 62 00
        E 300 90 56 60
        E 0 90 62 60
        E 60 80 56 00
        E 0 80 62 00
        E 180 90 3e 60
        E 0 90 4a 60
        E 0 90 57 60
        E 0 90 63 60
        E 120 80 3e 00
        E 0 80 4a 00
        E 240 80 57 00
        E 60 80 63 00
        E 60 90 4a 60
        E 0 90 57 60
        E 0 90 63 60
        E 120 80 4a 00
        E 0 80 57 00
        E 180 80 63 00
        E 180 90 3c 60
        E 0 90 48 60
        E 0 90 55 60
        E 0 90 61 60
        E 120 80 3c 00
        E 0 80 48 00
        E 300 80 55 00
        E 0 80 61 00
        E 300 90 48 60
        E 0 90 55 60
        E 0 90 61 60
        E 60 80 48 00
        E 0 80 55 00
        E 0 80 61 00
        E 180 90 3c 60
        E 0 90 48 60
        E 0 90 55 60
        E 0 90 61 60
        E 480 80 3c 00
        E 0 80 48 00
        E 0 80 55 00
        E 0 80 61 00
        E 480 90 3c 60
        E 0 90 48 60
        E 0 90 55 60
        E 0 90 61 60
        E 120 80 3c 00
        E 0 80 48 00
        E 240 80 55 00
        E 60 80 61 00
        E 60 90 3c 60
        E 0 90 48 60
        E 0 90 55 60
        E 0 90 61 60
        E 120 80 3c 00
        E 0 80 48 00
        E 0 80 55 00
        E 180 80 61 00
        E 420 90 4a 60
        E 0 90 57 60
        E 0 90 63 60
        E 60 80 4a 00
        E 0 80 57 00
        E 0 80 63 00
        E 180 90 4a 60
        E 0 90 57 60
        E 0 90 63 60
        E 60 80 4a 00
        E 0 80 57 00
        E 0 80 63 00
        E 420 90 3f 60
        E 0 90 4b 60
        E 0 90 58 60
        E 0 90 64 60
        E 120 80 3f 00
        E 0 80 4b 00
        E 360 80 58 00
        E 0 80 64 00
        E 240 90 4b 60
        E 0 90 58 60
        E 0 90 64 60
        E 60 80 4b 00
        E 0 80 58 00
        E 0 80 64 00
        E 180 90 3f 60
        E 0 90 4b 60
        E 0 90 58 60
        E 0 90 64 60
        E 480 80 3f 00
        E 0 80 4b 00
        E 0 80 58 00
        E 0 80 64 00
        E 240 90 57 60
        E 0 90 63 60
        E 60 80 57 00
        E 0 80 63 00
        E 180 90 3d 60
        E 0 90 49 60
        E 0 90 56 60
        E 0 90 62 60
        E 480 80 3d 00
        E 0 80 49 00
        E 0 80 56 00
        E 0 80 62 00
        E 240 90 56 60
        E 0 90 62 60
        E 60 80 56 00
        E 0 80 62 00
        E 180 90 3e 60
        E 0 90 4a 60
        E 0 90 57 60
        E 0 90 63 60
        E 60 80 3e 00
        E 0 80 4a 00
        E 0 80 57 00
        E 0 80 63 00
        E 180 90 4a 60
        E 0 90 57 60
        E 0 90 63 60
        E 60 80 4a 00
        E 0 80 57 00
        E 0 80 63 00
        E 420 90 57 60
        E 0 90 63 60
        E 60 80 57 00
        E 0 80 63 00
        E 180 90 3d 60
        E 0 90 49 60
        E 0 90 56 60
        E 0 90 62 60
        E 120 80 3d 00
        E 0 80 49 00
        E 0 80 56 00
        E 180 80 62 00
        E 180 90 48 60
        E 0 90 54 60
        E 0 90 60 60
        E 60 80 48 00
        E 0 80 54 00
        E 0 80 60 00
        E 180 90 55 60
        E 0 90 61 60
        E 60 80 55 00
        E 0 80 61 00
        E 180 90 3d 60
        E 0 90 49 60
        E 0 90 56 60
        E 0 90 62 60
        E 120 80 3d 00
        E 0 80 49 00
        E 0 80 56 00
        E 180 80 62 00
        E 180 90 48 60
        E 0 90 55 60
        E 0 90 61 60
        E 120 80 48 00
        E 0 80 55 00
        E 180 80 61 00
        E 180 90 3c 60
        E 0 90 48 60
        E 0 90 55 60
        E 0 90 61 60
        E 120 80 3c 00
        E 0 80 48 00
        E 240 80 55 00
        E 60 80 61 00
        E 60 90 3c 60
        E 0 90 48 60
        E 0 90 55 60
        E 0 90 61 60
        E 120 80 3c 00
        E 0 80 48 00
        E 0 80 55 00
        E 180 80 61 00
        E 420 90 4a 60
        E 0 90 57 60
        E 0 90 63 60
        E 60 80 4a 00
        E 0 80 57 00
        E 0 80 63 00
        E 180 90 4a 60
        E 0 90 57 60
        E 0 90 63 60
        E 60 80 4a 00
        E 0 80 57 00
        E 0 80 63 00
        E 420 90 3f 60
        E 0 90 4b 60
        E 0 90 58 60
        E 0 90 64 60
        E 120 80 3f 00
        E 0 80 4b 00
        E 360 80 58 00
        E 0 80 64 00
        E 240 90 4b 60
        E 0 90 58 60
        E 0 90 64 60
        E 60 80 4b 00
        E 0 80 58 00
        E 0 80 64 00
        E 180 90 3f 60
        E 0 90 4b 60
        E 0 90 58 60
        E 0 90 64 60
        E 480 80 3f 00
        E 0 80 4b 00
        E 0 80 58 00
        E 0 80 64 00
        E 240 90 57 60
        E 0 90 63 60
        E 60 80 57 00
        E 0 80 63 00
        E 180 90 3d 60
        E 0 90 49 60
        E 0 90 56 60
        E 0 90 62 60
        E 480 80 3d 00
        E 0 80 49 00
        E 0 80 56 00
        E 0 80 62 00
        E 240 90 56 60
        E 0 90 62 60
        E 60 80 56 00
        E 0 80 62 00
        E 180 90 3e 60
        E 0 90 4a 60
        E 0 90 57 60
        E 0 90 63 60
        E 60 80 3e 00
        E 0 80 4a 00
        E 0 80 57 00
        E 0 80 63 00
        E 180 90 4a 60
        E 0 90 57 60
        E 0 90 63 60
        E 60 80 4a 00
        E 0 80 57 00
        E 0 80 63 00
        E 420 90 57 60
        E 0 90 63 60
        E 60 80 57 00
        E 0 80 63 00
        E 180 90 3d 60
        E 0 90 49 60
        E 0 90 56 60
        E 0 90 62 60
        E 120 80 3d 00
        E 0 80 49 00
        E 240 80 56 00
        E 60 80 62 00
        E 60 90 3d 60
        E 0 90 49 60
        E 0 90 56 60
        E 0 90 62 60
        E 60 80 3d 00
        E 0 80 49 00
        E 0 80 56 00
        E 0 80 62 00
        E 180 90 57 60
        E 0 90 63 60
        E 60 80 57 00
        E 0 80 63 00
        <X 480 0
          /wFbaWRsZV9yZWFsdGltZV0=
        >
        E 5243 b0 7b 00
        GUID {54A57D35-811F-42A6-AB75-F5706122F903}
        IGNTEMPO 0 120.00000000 4 4
        SRCCOLOR 1236
        VELLANE 132 128 60
        COLORMAP "C:\Users\wejaa\AppData\Roaming\REAPER\Data\color_maps\rockband_guitarbass.png"
        TEXTSTRINGFILE "Text Events List.txt"
        CFGEDITVIEW -59757.503200 7.583985 0 12 0 0 0
        CFGEDIT 1 1 0 0 0 1 1 1 1 1 1 0.12500000 -8 -8 1370 736 1 2 1 2 0.00000000 0 0 0 0 0.500000 1 0 1.000000 64
        KEYSNAP 0 0 "102034050607" 0 "Major"
        EVTFILTER 0 -1 -1 -1 -1 0 1 0 0 -1.00000000 -1.00000000
      >
    >
  >
  <TRACK '{6B7F9B4B-FF4E-4CE6-9E2D-4C9BD5DAED77}'
    NAME "PART GUITAR"
    PEAKCOL 33488896
    BEAT -1
    AUTOMODE 0
    VOLPAN 1.00000000000000 0.00000000000000 -1.00000000000000 -1.00000000000000 1.00000000000000
    MUTESOLO 0 0 0
    IPHASE 0
    ISBUS 0 0
    BUSCOMP 1 0
    SHOWINMIX 1 0.666700 0.500000 1 0.500000 -1 -1 -1
    FREEMODE 0
    SEL 0
    REC 0 4096 1 7 0 0 0
    TRACKHEIGHT 89 0
    INQ 0 0 0 0.5000000000 100 0 0 100
    NCHAN 2
    FX 1
    TRACKID {6B7F9B4B-FF4E-4CE6-9E2D-4C9BD5DAED77}
    PERF 0
    MIDIOUT -1
    <MIDINOTENAMES
      0 116 "OVERDRIVE"
      0 102 "Force HOPO Off"
      0 101 "Force HOPO On"
      0 100 "EXPERT Orange"
      0 99 "EXPERT Blue"
      0 98 "EXPERT Yellow"
      0 97 "EXPERT Red"
      0 96 "EXPERT Green"
      0 88 "HARD Orange"
      0 87 "HARD Blue"
      0 86 "HARD Yellow"
      0 85 "HARD Red"
      0 84 "HARD Green"
      0 76 "MEDIUM Orange"
      0 75 "MEDIUM Blue"
      0 74 "MEDIUM Yellow"
      0 73 "MEDIUM Red"
      0 72 "MEDIUM Green"
      0 64 "EASY Orange"
      0 63 "EASY Blue"
      0 62 "EASY Yellow"
      0 61 "EASY Red"
      0 60 "EASY Green"
      0 59 "Left Hand Highest"
      0 40 "Left Hand Lowest"
      0 58 "-"
      0 57 "-"
      0 56 "-"
      0 55 "-"
      0 54 "-"
      0 53 "-"
      0 52 "-"
      0 51 "-"
      0 50 "-"
      0 49 "-"
      0 48 "-"
      0 47 "-"
      0 46 "-"
      0 45 "-"
      0 44 "-"
      0 43 "-"
      0 42 "-"
      0 41 "-"
      0 115 "----"
      0 95 "----"
      0 89 "Force HOPO On"
      0 77 "----"
      0 65 "----"
      0 119 "----"
      0 120 "BRE (use all 5)"
      0 121 "BRE"
      0 122 "BRE"
      0 123 "BRE"
      0 124 "BRE"
      0 90 "Force HOPO Off"
      0 103 "Solo Marker"
      0 127 "Trill Marker"
      0 125 "----"
      0 126 "Strum Marker"
    >
    MAINSEND 1 0
    <FXCHAIN
      WNDRECT -976 131 771 559
      SHOW 0
      LASTSEL 1
      DOCKED 0
      BYPASS 1 0
      <VST "VSTi: ReaSynth (Cockos)" "reasynth.dll" 0 ""
        eXNlcu9e7f4AAAAAAgAAAAEAAAAAAAAAAgAAAAAAAAA4AAAAAAAAAA==
        AAAAAO++rd4N8K3eAAAAAAAAAAAAAAAAAAAAADm0SD59y9s+tbSxOQ==
        AAAAALbz/T5VpCs6AAAAAAAAAAAAAAAAAAA=
      >
      FLOATPOS 0 0 0 0
      FXID {52B28C73-185B-48E4-B8F4-1FD7A8848B0F}
      WAK 0
      BYPASS 0 0
      <VST "VSTi: RBN Preview (RBN)" "rbprev_vst64_beta.dll" 0 ""
        dnBicu5e7f4AAAAAAgAAAAEAAAAAAAAAAgAAAAAAAAAEAAAAAQAAAA==
        AAAAAAMAqgAAAAAAAAA=
      >
      FLOATPOS 32 32 659 497
      FXID {190BBB08-7A86-476B-BD07-5F71F5CD6F7C}
      WAK 0
    >
    <ITEM
      POSITION 0.00000000000000
      SNAPOFFS 0.00000000000000
      LENGTH 223.88655641649223
      LOOP 0
      ALLTAKES 0
      SEL 0
      FADEIN 1 0.000000 0.000000 1 0
      FADEOUT 1 0.000000 0.000000 1 0
      MUTE 0
      IGUID {81210F06-DA35-41E7-BA75-C6E1C5689733}
      IID 9
      NAME "PART GUITAR"
      VOLPAN 1.000000 0.000000 1.000000 -1.000000
      SOFFS 0.00000000000000 0.00000000000000
      PLAYRATE 1.00000000000000 1 0.00000000000000 -65536
      CHANMODE 0
      GUID {61757875-B3D4-49E4-8483-EE351B7D2386}
      <SOURCE MIDI
        HASDATA 1 480 QN
        POOLEDEVTS {3BCB7FAC-3340-4597-8A06-9F696394F376}
        <X 0 0
          /wNQQVJUIEdVSVRBUg==
        >
        <X 1920 0
          /wFbbWVsbG93XQ==
        >
        E 1680 90 60 60
        E 0 90 61 60
        E 0 90 62 60
        E 0 90 54 60
        E 0 90 55 60
        E 60 80 60 00
        E 0 80 61 00
        E 0 80 62 00
        E 0 80 54 00
        E 0 80 55 00
        E 60 90 60 60
        E 0 90 61 60
        E 0 90 62 60
        E 60 80 60 00
        E 0 80 61 00
        E 0 80 62 00
        E 60 90 62 60
        E 0 90 56 60
        E 0 90 4a 60
        E 0 90 3d 60
        E 60 80 62 00
        E 0 80 56 00
        E 0 80 4a 00
        E 0 80 3d 00
        E 180 90 63 60
        E 0 90 57 60
        E 60 80 63 00
        E 0 80 57 00
        E 180 90 64 60
        E 0 90 58 60
        E 0 90 4c 60
        E 60 80 64 00
        E 0 80 58 00
        E 0 80 4c 00
        E 180 90 63 60
        E 0 90 57 60
        E 60 80 63 00
        E 0 80 57 00
        E 180 90 62 60
        E 0 90 56 60
        E 0 90 4a 60
        E 0 90 3d 60
        E 60 80 62 00
        E 0 80 56 00
        E 0 80 4a 00
        E 0 80 3d 00
        E 180 90 63 60
        E 0 90 57 60
        E 60 80 63 00
        E 0 80 57 00
        E 180 90 64 60
        E 0 90 58 60
        E 0 90 4c 60
        E 60 80 64 00
        E 0 80 58 00
        E 0 80 4c 00
        E 180 90 63 60
        E 0 90 57 60
        E 60 80 63 00
        E 0 80 57 00
        E 180 90 62 60
        E 0 90 56 60
        E 0 90 4a 60
        E 0 90 3d 60
        E 60 80 62 00
        E 0 80 56 00
        E 0 80 4a 00
        E 0 80 3d 00
        E 180 90 63 60
        E 0 90 57 60
        E 60 80 63 00
        E 0 80 57 00
        E 180 90 64 60
        E 0 90 58 60
        E 0 90 4c 60
        E 60 80 64 00
        E 0 80 58 00
        E 0 80 4c 00
        E 180 90 63 60
        E 0 90 57 60
        E 60 80 63 00
        E 0 80 57 00
        E 180 90 62 60
        E 0 90 56 60
        E 0 90 4a 60
        E 0 90 3d 60
        E 60 80 62 00
        E 0 80 56 00
        E 0 80 4a 00
        E 0 80 3d 00
        E 180 90 63 60
        E 0 90 57 60
        E 60 80 63 00
        E 0 80 57 00
        E 180 90 64 60
        E 0 90 58 60
        E 0 90 4c 60
        E 60 80 64 00
        E 0 80 58 00
        E 0 80 4c 00
        E 180 90 63 60
        E 0 90 57 60
        E 60 80 63 00
        E 0 80 57 00
        E 180 90 62 60
        E 0 90 56 60
        E 0 90 4a 60
        E 0 90 3d 60
        E 60 80 62 00
        E 0 80 56 00
        E 0 80 4a 00
        E 0 80 3d 00
        E 180 90 63 60
        E 0 90 57 60
        E 60 80 63 00
        E 0 80 57 00
        E 180 90 64 60
        E 0 90 58 60
        E 0 90 4c 60
        E 60 80 64 00
        E 0 80 58 00
        E 0 80 4c 00
        E 180 90 63 60
        E 0 90 57 60
        E 60 80 63 00
        E 0 80 57 00
        E 180 90 62 60
        E 0 90 56 60
        E 0 90 4a 60
        E 0 90 3d 60
        E 60 80 62 00
        E 0 80 56 00
        E 0 80 4a 00
        E 0 80 3d 00
        E 180 90 63 60
        E 0 90 57 60
        E 60 80 63 00
        E 0 80 57 00
        E 180 90 64 60
        E 0 90 58 60
        E 0 90 4c 60
        E 60 80 64 00
        E 0 80 58 00
        E 0 80 4c 00
        E 180 90 63 60
        E 0 90 57 60
        E 60 80 63 00
        E 0 80 57 00
        E 180 90 62 60
        E 0 90 56 60
        E 0 90 4a 60
        E 0 90 3d 60
        E 60 80 62 00
        E 0 80 56 00
        E 0 80 4a 00
        E 0 80 3d 00
        E 180 90 63 60
        E 0 90 57 60
        E 60 80 63 00
        E 0 80 57 00
        E 180 90 64 60
        E 0 90 58 60
        E 0 90 4c 60
        E 60 80 64 00
        E 0 80 58 00
        E 0 80 4c 00
        E 180 90 63 60
        E 0 90 57 60
        E 60 80 63 00
        E 0 80 57 00
        E 180 90 62 60
        E 0 90 56 60
        E 0 90 4a 60
        E 0 90 3d 60
        E 60 80 62 00
        E 0 80 56 00
        E 0 80 4a 00
        E 0 80 3d 00
        E 180 90 63 60
        E 0 90 57 60
        E 60 80 63 00
        E 0 80 57 00
        E 180 90 64 60
        E 0 90 58 60
        E 0 90 4c 60
        E 60 80 64 00
        E 0 80 58 00
        E 0 80 4c 00
        E 180 90 63 60
        E 0 90 57 60
        E 60 80 63 00
        E 0 80 57 00
        E 180 90 61 60
        E 0 90 55 60
        E 0 90 49 60
        E 0 90 3c 60
        E 60 80 61 00
        E 0 80 55 00
        E 0 80 49 00
        E 0 80 3c 00
        E 180 90 62 60
        E 0 90 56 60
        E 60 80 62 00
        E 0 80 56 00
        E 180 90 63 60
        E 0 90 57 60
        E 0 90 4b 60
        E 120 80 57 00
        E 0 80 4b 00
        E 180 80 63 00
        E 180 90 60 60
        E 0 90 54 60
        E 0 90 48 60
        E 0 90 3c 60
        E 60 80 60 00
        E 0 80 54 00
        E 0 80 48 00
        E 0 80 3c 00
        E 180 90 61 60
        E 0 90 55 60
        E 60 80 61 00
        E 0 80 55 00
        E 180 90 60 60
        E 0 90 54 60
        E 0 90 48 60
        E 120 80 54 00
        E 0 80 48 00
        E 180 80 60 00
        E 180 90 61 60
        E 0 90 55 60
        E 0 90 49 60
        E 0 90 3c 60
        E 60 80 61 00
        E 0 80 55 00
        E 0 80 49 00
        E 0 80 3c 00
        E 180 90 62 60
        E 0 90 56 60
        E 60 80 62 00
        E 0 80 56 00
        E 180 90 63 60
        E 0 90 57 60
        E 0 90 4b 60
        E 120 80 57 00
        E 0 80 4b 00
        E 180 80 63 00
        E 180 90 61 60
        E 0 90 55 60
        E 0 90 49 60
        E 0 90 3c 60
        E 60 80 61 00
        E 0 80 55 00
        E 0 80 49 00
        E 0 80 3c 00
        E 180 90 60 60
        E 0 90 54 60
        E 60 80 60 00
        E 0 80 54 00
        E 180 90 62 60
        E 0 90 56 60
        E 0 90 4a 60
        E 120 80 56 00
        E 0 80 4a 00
        E 180 80 62 00
        E 180 90 61 60
        E 0 90 55 60
        E 0 90 49 60
        E 0 90 3c 60
        E 60 80 61 00
        E 0 80 55 00
        E 0 80 49 00
        E 0 80 3c 00
        E 180 90 60 60
        E 0 90 54 60
        E 60 80 60 00
        E 0 80 54 00
        E 180 90 61 60
        E 0 90 55 60
        E 0 90 49 60
        E 120 80 55 00
        E 0 80 49 00
        E 180 80 61 00
        E 180 90 60 60
        E 0 90 54 60
        E 0 90 48 60
        E 0 90 3c 60
        E 60 80 60 00
        E 0 80 54 00
        E 0 80 48 00
        E 0 80 3c 00
        E 180 90 61 60
        E 0 90 55 60
        E 60 80 61 00
        E 0 80 55 00
        E 180 90 62 60
        E 0 90 56 60
        E 0 90 4a 60
        E 120 80 56 00
        E 0 80 4a 00
        E 180 80 62 00
        E 180 90 63 60
        E 0 90 57 60
        E 0 90 4b 60
        E 0 90 3e 60
        E 60 80 63 00
        E 0 80 57 00
        E 0 80 4b 00
        E 0 80 3e 00
        E 180 90 61 60
        E 0 90 55 60
        E 60 80 61 00
        E 0 80 55 00
        E 180 90 62 60
        E 0 90 56 60
        E 0 90 4a 60
        E 120 80 56 00
        E 0 80 4a 00
        E 180 80 62 00
        E 180 90 61 60
        E 0 90 55 60
        E 0 90 49 60
        E 0 90 3c 60
        E 60 80 61 00
        E 0 80 55 00
        E 0 80 49 00
        E 0 80 3c 00
        E 180 90 60 60
        E 0 90 54 60
        E 60 80 60 00
        E 0 80 54 00
        E 180 90 62 60
        E 0 90 56 60
        E 0 90 4a 60
        E 120 80 56 00
        E 0 80 4a 00
        E 180 80 62 00
        E 180 90 63 60
        E 0 90 57 60
        E 0 90 4b 60
        E 0 90 3e 60
        E 60 80 63 00
        E 0 80 57 00
        E 0 80 4b 00
        E 0 80 3e 00
        E 180 90 61 60
        E 0 90 55 60
        E 60 80 61 00
        E 0 80 55 00
        E 180 90 63 60
        E 0 90 57 60
        E 0 90 4b 60
        E 120 80 57 00
        E 0 80 4b 00
        E 180 80 63 00
        E 180 90 61 60
        E 0 90 55 60
        E 0 90 49 60
        E 0 90 3c 60
        E 60 80 61 00
        E 0 80 55 00
        E 0 80 49 00
        E 0 80 3c 00
        E 180 90 62 60
        E 0 90 56 60
        E 60 80 62 00
        E 0 80 56 00
        E 180 90 60 60
        E 0 90 54 60
        E 0 90 48 60
        E 120 80 54 00
        E 0 80 48 00
        E 180 80 60 00
        E 180 90 61 60
        E 0 90 55 60
        E 0 90 49 60
        E 0 90 3c 60
        E 60 80 61 00
        E 0 80 55 00
        E 0 80 49 00
        E 0 80 3c 00
        E 180 90 62 60
        E 0 90 56 60
        E 60 80 62 00
        E 0 80 56 00
        E 180 90 63 60
        E 0 90 57 60
        E 0 90 4b 60
        E 60 80 63 00
        E 0 80 57 00
        E 0 80 4b 00
        E 180 90 62 60
        E 0 90 56 60
        E 60 80 62 00
        E 0 80 56 00
        E 180 90 61 60
        E 0 90 55 60
        E 0 90 49 60
        E 0 90 3c 60
        E 60 80 61 00
        E 0 80 55 00
        E 0 80 49 00
        E 0 80 3c 00
        E 180 90 60 60
        E 0 90 54 60
        E 60 80 60 00
        E 0 80 54 00
        E 180 90 62 60
        E 0 90 56 60
        E 0 90 4a 60
        E 120 80 56 00
        E 0 80 4a 00
        E 180 80 62 00
        E 180 90 61 60
        E 0 90 55 60
        E 0 90 49 60
        E 0 90 3c 60
        E 60 80 61 00
        E 0 80 55 00
        E 0 80 49 00
        E 0 80 3c 00
        E 180 90 62 60
        E 0 90 56 60
        E 60 80 62 00
        E 0 80 56 00
        E 180 90 61 60
        E 0 90 55 60
        E 0 90 49 60
        E 120 80 55 00
        E 0 80 49 00
        E 180 80 61 00
        E 180 90 62 60
        E 0 90 56 60
        E 0 90 4a 60
        E 0 90 3d 60
        E 60 80 62 00
        E 0 80 56 00
        E 0 80 4a 00
        E 0 80 3d 00
        E 180 90 63 60
        E 0 90 57 60
        E 60 80 63 00
        E 0 80 57 00
        E 180 90 62 60
        E 0 90 56 60
        E 0 90 4a 60
        E 120 80 56 00
        E 0 80 4a 00
        E 180 80 62 00
        E 180 90 63 60
        E 0 90 57 60
        E 0 90 4b 60
        E 0 90 3e 60
        E 60 80 63 00
        E 0 80 57 00
        E 0 80 4b 00
        E 0 80 3e 00
        E 180 90 61 60
        E 0 90 55 60
        E 60 80 61 00
        E 0 80 55 00
        E 180 90 62 60
        E 0 90 56 60
        E 0 90 4a 60
        E 120 80 56 00
        E 0 80 4a 00
        E 180 80 62 00
        E 180 90 61 60
        E 0 90 55 60
        E 0 90 49 60
        E 0 90 3c 60
        E 60 80 61 00
        E 0 80 55 00
        E 0 80 49 00
        E 0 80 3c 00
        E 180 90 60 60
        E 0 90 54 60
        E 60 80 60 00
        E 0 80 54 00
        E 180 90 62 60
        E 0 90 74 67
        E 0 90 56 60
        E 0 90 4a 60
        E 1920 80 4a 00
        E 60 80 62 00
        E 0 80 56 00
        E 180 90 61 60
        E 0 90 55 60
        E 60 80 61 00
        E 0 80 55 00
        E 180 90 60 60
        E 0 90 54 60
        E 0 90 48 60
        E 0 90 3c 60
        E 60 80 60 00
        E 0 80 54 00
        E 0 80 48 00
        E 0 80 3c 00
        E 179 90 61 60
        E 0 90 55 60
        E 60 80 61 00
        E 0 80 55 00
        E 181 90 63 60
        E 0 90 57 60
        E 0 90 4b 60
        E 120 80 57 00
        E 0 80 4b 00
        E 180 80 63 00
        E 180 80 74 00
        E 0 90 62 60
        E 0 90 56 60
        E 0 90 4a 60
        E 0 90 3d 60
        E 60 80 62 00
        E 0 80 56 00
        E 0 80 4a 00
        E 0 80 3d 00
        E 180 90 60 60
        E 0 90 54 60
        E 60 80 60 00
        E 0 80 54 00
        E 180 90 62 60
        E 0 90 56 60
        E 0 90 4a 60
        E 60 80 62 00
        E 0 80 56 00
        E 0 80 4a 00
        E 180 90 60 60
        E 0 90 62 60
        E 0 90 63 60
        E 0 90 54 60
        E 0 90 57 60
        E 60 80 60 00
        E 0 80 62 00
        E 0 80 63 00
        E 0 80 54 00
        E 0 80 57 00
        E 180 90 60 60
        E 0 90 62 60
        E 0 90 63 60
        E 0 90 54 60
        E 0 90 57 60
        E 0 90 49 60
        E 0 90 4b 60
        E 0 90 3e 60
        E 60 80 60 00
        E 0 80 62 00
        E 0 80 63 00
        E 0 80 54 00
        E 0 80 57 00
        E 0 80 49 00
        E 0 80 4b 00
        E 0 80 3e 00
        E 180 90 60 60
        E 0 90 62 60
        E 0 90 63 60
        E 0 90 54 60
        E 0 90 57 60
        E 0 90 49 60
        E 0 90 4b 60
        E 60 80 60 00
        E 0 80 62 00
        E 0 80 63 00
        E 0 80 54 00
        E 0 80 57 00
        E 0 80 49 00
        E 0 80 4b 00
        E 180 90 60 60
        E 0 90 62 60
        E 0 90 63 60
        E 0 90 54 60
        E 0 90 57 60
        E 0 90 49 60
        E 0 90 4b 60
        E 0 90 3e 60
        E 60 80 60 00
        E 0 80 62 00
        E 0 80 63 00
        E 0 80 54 00
        E 0 80 57 00
        E 0 80 49 00
        E 0 80 4b 00
        E 0 80 3e 00
        E 180 90 60 60
        E 0 90 62 60
        E 0 90 63 60
        E 0 90 54 60
        E 0 90 57 60
        E 0 90 49 60
        E 0 90 4b 60
        E 60 80 60 00
        E 0 80 62 00
        E 0 80 63 00
        E 0 80 54 00
        E 0 80 57 00
        E 0 80 49 00
        E 0 80 4b 00
        E 180 90 60 60
        E 0 90 62 60
        E 0 90 63 60
        E 0 90 54 60
        E 0 90 57 60
        E 0 90 49 60
        E 0 90 4b 60
        E 0 90 3e 60
        E 60 80 60 00
        E 0 80 62 00
        E 0 80 63 00
        E 0 80 54 00
        E 0 80 57 00
        E 0 80 49 00
        E 0 80 4b 00
        E 0 80 3e 00
        E 180 90 60 60
        E 0 90 62 60
        E 0 90 63 60
        E 0 90 54 60
        E 0 90 57 60
        E 0 90 49 60
        E 0 90 4b 60
        E 60 80 60 00
        E 0 80 62 00
        E 0 80 63 00
        E 0 80 54 00
        E 0 80 57 00
        E 0 80 49 00
        E 0 80 4b 00
        E 180 90 60 60
        E 0 90 62 60
        E 0 90 63 60
        E 0 90 54 60
        E 0 90 57 60
        E 0 90 49 60
        E 0 90 4b 60
        E 0 90 3e 60
        E 60 80 60 00
        E 0 80 62 00
        E 0 80 63 00
        E 0 80 54 00
        E 0 80 57 00
        E 0 80 49 00
        E 0 80 4b 00
        E 0 80 3e 00
        E 180 90 60 60
        E 0 90 62 60
        E 0 90 63 60
        E 0 90 54 60
        E 0 90 57 60
        E 0 90 49 60
        E 0 90 4b 60
        E 60 80 60 00
        E 0 80 62 00
        E 0 80 63 00
        E 0 80 54 00
        E 0 80 57 00
        E 0 80 49 00
        E 0 80 4b 00
        E 180 90 60 60
        E 0 90 62 60
        E 0 90 63 60
        E 0 90 54 60
        E 0 90 57 60
        E 0 90 49 60
        E 0 90 4b 60
        E 0 90 3e 60
        E 60 80 60 00
        E 0 80 62 00
        E 0 80 63 00
        E 0 80 54 00
        E 0 80 57 00
        E 0 80 49 00
        E 0 80 4b 00
        E 0 80 3e 00
        E 180 90 60 60
        E 0 90 62 60
        E 0 90 63 60
        E 0 90 54 60
        E 0 90 57 60
        E 0 90 49 60
        E 0 90 4b 60
        E 60 80 60 00
        E 0 80 62 00
        E 0 80 63 00
        E 0 80 54 00
        E 0 80 57 00
        E 0 80 49 00
        E 0 80 4b 00
        E 180 90 60 60
        E 0 90 62 60
        E 0 90 63 60
        E 0 90 54 60
        E 0 90 57 60
        E 0 90 49 60
        E 0 90 4b 60
        E 0 90 3e 60
        E 60 80 60 00
        E 0 80 62 00
        E 0 80 63 00
        E 0 80 54 00
        E 0 80 57 00
        E 0 80 49 00
        E 0 80 4b 00
        E 0 80 3e 00
        E 180 90 60 60
        E 0 90 62 60
        E 0 90 63 60
        E 0 90 54 60
        E 0 90 57 60
        E 0 90 49 60
        E 0 90 4b 60
        E 60 80 60 00
        E 0 80 62 00
        E 0 80 63 00
        E 0 80 54 00
        E 0 80 57 00
        E 0 80 49 00
        E 0 80 4b 00
        E 60 90 60 60
        E 0 90 62 60
        E 0 90 63 60
        E 60 80 60 00
        E 0 80 62 00
        E 0 80 63 00
        E 60 90 60 60
        E 0 90 62 60
        E 0 90 63 60
        E 0 90 54 60
        E 0 90 57 60
        E 0 90 49 60
        E 0 90 4b 60
        E 0 90 3e 60
        E 60 80 60 00
        E 0 80 62 00
        E 0 80 63 00
        E 0 80 54 00
        E 0 80 57 00
        E 0 80 49 00
        E 0 80 4b 00
        E 0 80 3e 00
        E 180 90 62 60
        E 0 90 63 60
        E 0 90 64 60
        E 0 90 57 60
        E 0 90 58 60
        E 60 80 62 00
        E 0 80 63 00
        E 0 80 64 00
        E 0 80 57 00
        E 0 80 58 00
        E 180 90 62 60
        E 0 90 63 60
        E 0 90 64 60
        E 0 90 57 60
        E 0 90 58 60
        E 0 90 4b 60
        E 0 90 4c 60
        E 60 80 62 00
        E 0 80 63 00
        E 0 80 64 00
        E 0 80 57 00
        E 0 80 58 00
        E 0 80 4b 00
        E 0 80 4c 00
        E 180 90 62 60
        E 0 90 63 60
        E 0 90 64 60
        E 0 90 57 60
        E 0 90 58 60
        E 0 90 4b 60
        E 0 90 4c 60
        E 60 80 62 00
        E 0 80 63 00
        E 0 80 64 00
        E 0 80 57 00
        E 0 80 58 00
        E 0 80 4b 00
        E 0 80 4c 00
        E 180 90 62 60
        E 0 90 63 60
        E 0 90 64 60
        E 0 90 57 60
        E 0 90 58 60
        E 0 90 4b 60
        E 0 90 4c 60
        E 0 90 3e 60
        E 60 80 62 00
        E 0 80 63 00
        E 0 80 64 00
        E 0 80 57 00
        E 0 80 58 00
        E 0 80 4b 00
        E 0 80 4c 00
        E 0 80 3e 00
        E 180 90 62 60
        E 0 90 63 60
        E 0 90 64 60
        E 0 90 57 60
        E 0 90 58 60
        E 0 90 4b 60
        E 0 90 4c 60
        E 60 80 62 00
        E 0 80 63 00
        E 0 80 64 00
        E 0 80 57 00
        E 0 80 58 00
        E 0 80 4b 00
        E 0 80 4c 00
        E 180 90 62 60
        E 0 90 63 60
        E 0 90 64 60
        E 0 90 57 60
        E 0 90 58 60
        E 0 90 4b 60
        E 0 90 4c 60
        E 0 90 3e 60
        E 60 80 62 00
        E 0 80 63 00
        E 0 80 64 00
        E 0 80 57 00
        E 0 80 58 00
        E 0 80 4b 00
        E 0 80 4c 00
        E 0 80 3e 00
        E 180 90 62 60
        E 0 90 63 60
        E 0 90 64 60
        E 0 90 57 60
        E 0 90 58 60
        E 0 90 4b 60
        E 0 90 4c 60
        E 60 80 62 00
        E 0 80 63 00
        E 0 80 64 00
        E 0 80 57 00
        E 0 80 58 00
        E 0 80 4b 00
        E 0 80 4c 00
        E 180 90 62 60
        E 0 90 63 60
        E 0 90 64 60
        E 0 90 57 60
        E 0 90 58 60
        E 0 90 4b 60
        E 0 90 4c 60
        E 0 90 3e 60
        E 60 80 62 00
        E 0 80 63 00
        E 0 80 64 00
        E 0 80 57 00
        E 0 80 58 00
        E 0 80 4b 00
        E 0 80 4c 00
        E 0 80 3e 00
        E 180 90 62 60
        E 0 90 63 60
        E 0 90 64 60
        E 0 90 57 60
        E 0 90 58 60
        E 0 90 4b 60
        E 0 90 4c 60
        E 60 80 62 00
        E 0 80 63 00
        E 0 80 64 00
        E 0 80 57 00
        E 0 80 58 00
        E 0 80 4b 00
        E 0 80 4c 00
        E 180 90 62 60
        E 0 90 63 60
        E 0 90 64 60
        E 0 90 57 60
        E 0 90 58 60
        E 0 90 4b 60
        E 0 90 4c 60
        E 0 90 3e 60
        E 60 80 62 00
        E 0 80 63 00
        E 0 80 64 00
        E 0 80 57 00
        E 0 80 58 00
        E 0 80 4b 00
        E 0 80 4c 00
        E 0 80 3e 00
        E 180 90 62 60
        E 0 90 63 60
        E 0 90 64 60
        E 0 90 57 60
        E 0 90 58 60
        E 0 90 4b 60
        E 0 90 4c 60
        E 60 80 62 00
        E 0 80 63 00
        E 0 80 64 00
        E 0 80 57 00
        E 0 80 58 00
        E 0 80 4b 00
        E 0 80 4c 00
        E 180 90 62 60
        E 0 90 63 60
        E 0 90 64 60
        E 0 90 57 60
        E 0 90 58 60
        E 0 90 4b 60
        E 0 90 4c 60
        E 0 90 3e 60
        E 60 80 62 00
        E 0 80 63 00
        E 0 80 64 00
        E 0 80 57 00
        E 0 80 58 00
        E 0 80 4b 00
        E 0 80 4c 00
        E 0 80 3e 00
        E 180 90 62 60
        E 0 90 63 60
        E 0 90 64 60
        E 0 90 57 60
        E 0 90 58 60
        E 0 90 4b 60
        E 0 90 4c 60
        E 60 80 62 00
        E 0 80 63 00
        E 0 80 64 00
        E 0 80 57 00
        E 0 80 58 00
        E 0 80 4b 00
        E 0 80 4c 00
        E 180 90 62 60
        E 0 90 63 60
        E 0 90 64 60
        E 0 90 57 60
        E 0 90 58 60
        E 0 90 4b 60
        E 0 90 4c 60
        E 0 90 3e 60
        E 60 80 62 00
        E 0 80 63 00
        E 0 80 64 00
        E 0 80 57 00
        E 0 80 58 00
        E 0 80 4b 00
        E 0 80 4c 00
        E 0 80 3e 00
        E 180 90 62 60
        E 0 90 63 60
        E 0 90 64 60
        E 0 90 57 60
        E 0 90 58 60
        E 0 90 4b 60
        E 0 90 4c 60
        E 60 80 62 00
        E 0 80 63 00
        E 0 80 64 00
        E 0 80 57 00
        E 0 80 58 00
        E 0 80 4b 00
        E 0 80 4c 00
        E 60 90 62 60
        E 0 90 63 60
        E 0 90 64 60
        E 60 80 62 00
        E 0 80 63 00
        E 0 80 64 00
        E 60 90 62 60
        E 0 90 63 60
        E 0 90 64 60
        E 0 90 57 60
        E 0 90 58 60
        E 0 90 4b 60
        E 0 90 4c 60
        E 0 90 3e 60
        E 60 80 62 00
        E 0 80 63 00
        E 0 80 64 00
        E 0 80 57 00
        E 0 80 58 00
        E 0 80 4b 00
        E 0 80 4c 00
        E 0 80 3e 00
        E 180 90 60 60
        E 0 90 61 60
        E 0 90 62 60
        E 0 90 54 60
        E 0 90 55 60
        E 60 80 60 00
        E 0 80 61 00
        E 0 80 62 00
        E 0 80 54 00
        E 0 80 55 00
        E 180 90 60 60
        E 0 90 61 60
        E 0 90 62 60
        E 0 90 54 60
        E 0 90 55 60
        E 0 90 48 60
        E 0 90 49 60
        E 60 80 60 00
        E 0 80 61 00
        E 0 80 62 00
        E 0 80 54 00
        E 0 80 55 00
        E 0 80 48 00
        E 0 80 49 00
        E 180 90 60 60
        E 0 90 61 60
        E 0 90 62 60
        E 0 90 54 60
        E 0 90 55 60
        E 0 90 48 60
        E 0 90 49 60
        E 60 80 60 00
        E 0 80 61 00
        E 0 80 62 00
        E 0 80 54 00
        E 0 80 55 00
        E 0 80 48 00
        E 0 80 49 00
        E 180 90 60 60
        E 0 90 61 60
        E 0 90 62 60
        E 0 90 54 60
        E 0 90 55 60
        E 0 90 48 60
        E 0 90 49 60
        E 0 90 3c 60
        E 60 80 60 00
        E 0 80 61 00
        E 0 80 62 00
        E 0 80 54 00
        E 0 80 55 00
        E 0 80 48 00
        E 0 80 49 00
        E 0 80 3c 00
        E 180 90 60 60
        E 0 90 61 60
        E 0 90 62 60
        E 0 90 54 60
        E 0 90 55 60
        E 0 90 48 60
        E 0 90 49 60
        E 60 80 60 00
        E 0 80 61 00
        E 0 80 62 00
        E 0 80 54 00
        E 0 80 55 00
        E 0 80 48 00
        E 0 80 49 00
        E 180 90 60 60
        E 0 90 61 60
        E 0 90 62 60
        E 0 90 54 60
        E 0 90 55 60
        E 0 90 48 60
        E 0 90 49 60
        E 0 90 3c 60
        E 60 80 60 00
        E 0 80 61 00
        E 0 80 62 00
        E 0 80 54 00
        E 0 80 55 00
        E 0 80 48 00
        E 0 80 49 00
        E 0 80 3c 00
        E 180 90 60 60
        E 0 90 61 60
        E 0 90 62 60
        E 0 90 54 60
        E 0 90 55 60
        E 0 90 48 60
        E 0 90 49 60
        E 60 80 60 00
        E 0 80 61 00
        E 0 80 62 00
        E 0 80 54 00
        E 0 80 55 00
        E 0 80 48 00
        E 0 80 49 00
        E 180 90 60 60
        E 0 90 61 60
        E 0 90 62 60
        E 0 90 54 60
        E 0 90 55 60
        E 0 90 48 60
        E 0 90 49 60
        E 0 90 3c 60
        E 60 80 60 00
        E 0 80 61 00
        E 0 80 62 00
        E 0 80 54 00
        E 0 80 55 00
        E 0 80 48 00
        E 0 80 49 00
        E 0 80 3c 00
        E 180 90 60 60
        E 0 90 61 60
        E 0 90 62 60
        E 0 90 54 60
        E 0 90 55 60
        E 0 90 48 60
        E 0 90 49 60
        E 60 80 60 00
        E 0 80 61 00
        E 0 80 62 00
        E 0 80 54 00
        E 0 80 55 00
        E 0 80 48 00
        E 0 80 49 00
        E 180 90 60 60
        E 0 90 61 60
        E 0 90 62 60
        E 0 90 54 60
        E 0 90 55 60
        E 0 90 48 60
        E 0 90 49 60
        E 0 90 3c 60
        E 60 80 60 00
        E 0 80 61 00
        E 0 80 62 00
        E 0 80 54 00
        E 0 80 55 00
        E 0 80 48 00
        E 0 80 49 00
        E 0 80 3c 00
        E 180 90 60 60
        E 0 90 61 60
        E 0 90 62 60
        E 0 90 54 60
        E 0 90 55 60
        E 0 90 48 60
        E 0 90 49 60
        E 60 80 60 00
        E 0 80 61 00
        E 0 80 62 00
        E 0 80 54 00
        E 0 80 55 00
        E 0 80 48 00
        E 0 80 49 00
        E 180 90 60 60
        E 0 90 61 60
        E 0 90 62 60
        E 0 90 54 60
        E 0 90 55 60
        E 0 90 48 60
        E 0 90 49 60
        E 0 90 3c 60
        E 60 80 60 00
        E 0 80 61 00
        E 0 80 62 00
        E 0 80 54 00
        E 0 80 55 00
        E 0 80 48 00
        E 0 80 49 00
        E 0 80 3c 00
        E 180 90 60 60
        E 0 90 61 60
        E 0 90 62 60
        E 0 90 54 60
        E 0 90 55 60
        E 0 90 48 60
        E 0 90 49 60
        E 60 80 60 00
        E 0 80 61 00
        E 0 80 62 00
        E 0 80 54 00
        E 0 80 55 00
        E 0 80 48 00
        E 0 80 49 00
        E 180 90 60 60
        E 0 90 61 60
        E 0 90 62 60
        E 0 90 54 60
        E 0 90 55 60
        E 0 90 48 60
        E 0 90 49 60
        E 0 90 3c 60
        E 60 80 60 00
        E 0 80 61 00
        E 0 80 62 00
        E 0 80 54 00
        E 0 80 55 00
        E 0 80 48 00
        E 0 80 49 00
        E 0 80 3c 00
        E 1 90 74 67
        E 179 90 60 60
        E 0 90 61 60
        E 0 90 62 60
        E 0 90 54 60
        E 0 90 55 60
        E 0 90 48 60
        E 0 90 49 60
        E 60 80 60 00
        E 0 80 61 00
        E 0 80 62 00
        E 0 80 54 00
        E 0 80 55 00
        E 0 80 48 00
        E 0 80 49 00
        E 60 90 60 60
        E 0 90 61 60
        E 0 90 62 60
        E 60 80 60 00
        E 0 80 61 00
        E 0 80 62 00
        E 60 90 60 60
        E 0 90 61 60
        E 0 90 62 60
        E 0 90 54 60
        E 0 90 55 60
        E 0 90 48 60
        E 0 90 49 60
        E 0 90 3c 60
        E 60 80 60 00
        E 0 80 61 00
        E 0 80 62 00
        E 0 80 54 00
        E 0 80 55 00
        E 0 80 48 00
        E 0 80 49 00
        E 0 80 3c 00
        E 180 90 62 60
        E 0 90 63 60
        E 0 90 64 60
        E 0 90 57 60
        E 0 90 58 60
        E 60 80 62 00
        E 0 80 63 00
        E 0 80 64 00
        E 0 80 57 00
        E 0 80 58 00
        E 180 90 62 60
        E 0 90 63 60
        E 0 90 64 60
        E 0 90 57 60
        E 0 90 58 60
        E 0 90 4b 60
        E 0 90 4c 60
        E 60 80 62 00
        E 0 80 63 00
        E 0 80 64 00
        E 0 80 57 00
        E 0 80 58 00
        E 0 80 4b 00
        E 0 80 4c 00
        E 180 90 62 60
        E 0 90 63 60
        E 0 90 64 60
        E 0 90 57 60
        E 0 90 58 60
        E 0 90 4b 60
        E 0 90 4c 60
        E 60 80 62 00
        E 0 80 63 00
        E 0 80 64 00
        E 0 80 57 00
        E 0 80 58 00
        E 0 80 4b 00
        E 0 80 4c 00
        E 180 90 62 60
        E 0 90 63 60
        E 0 90 64 60
        E 0 90 57 60
        E 0 90 58 60
        E 0 90 4b 60
        E 0 90 4c 60
        E 0 90 3e 60
        E 60 80 62 00
        E 0 80 63 00
        E 0 80 64 00
        E 0 80 57 00
        E 0 80 58 00
        E 0 80 4b 00
        E 0 80 4c 00
        E 0 80 3e 00
        E 180 90 62 60
        E 0 90 63 60
        E 0 90 64 60
        E 0 90 57 60
        E 0 90 58 60
        E 0 90 4b 60
        E 0 90 4c 60
        E 60 80 62 00
        E 0 80 63 00
        E 0 80 64 00
        E 0 80 57 00
        E 0 80 58 00
        E 0 80 4b 00
        E 0 80 4c 00
        E 141 80 74 00
        E 39 90 62 60
        E 0 90 63 60
        E 0 90 64 60
        E 0 90 57 60
        E 0 90 58 60
        E 0 90 4b 60
        E 0 90 4c 60
        E 0 90 3e 60
        E 60 80 62 00
        E 0 80 63 00
        E 0 80 64 00
        E 0 80 57 00
        E 0 80 58 00
        E 0 80 4b 00
        E 0 80 4c 00
        E 0 80 3e 00
        E 180 90 62 60
        E 0 90 63 60
        E 0 90 64 60
        E 0 90 57 60
        E 0 90 58 60
        E 0 90 4b 60
        E 0 90 4c 60
        E 60 80 62 00
        E 0 80 63 00
        E 0 80 64 00
        E 0 80 57 00
        E 0 80 58 00
        E 0 80 4b 00
        E 0 80 4c 00
        E 180 90 62 60
        E 0 90 63 60
        E 0 90 64 60
        E 0 90 57 60
        E 0 90 58 60
        E 0 90 4b 60
        E 0 90 4c 60
        E 0 90 3e 60
        E 60 80 62 00
        E 0 80 63 00
        E 0 80 64 00
        E 0 80 57 00
        E 0 80 58 00
        E 0 80 4b 00
        E 0 80 4c 00
        E 0 80 3e 00
        E 180 90 62 60
        E 0 90 63 60
        E 0 90 64 60
        E 0 90 57 60
        E 0 90 58 60
        E 0 90 4b 60
        E 0 90 4c 60
        E 60 80 62 00
        E 0 80 63 00
        E 0 80 64 00
        E 0 80 57 00
        E 0 80 58 00
        E 0 80 4b 00
        E 0 80 4c 00
        E 180 90 62 60
        E 0 90 63 60
        E 0 90 64 60
        E 0 90 57 60
        E 0 90 58 60
        E 0 90 4b 60
        E 0 90 4c 60
        E 0 90 3e 60
        E 60 80 62 00
        E 0 80 63 00
        E 0 80 64 00
        E 0 80 57 00
        E 0 80 58 00
        E 0 80 4b 00
        E 0 80 4c 00
        E 0 80 3e 00
        E 180 90 62 60
        E 0 90 63 60
        E 0 90 64 60
        E 0 90 57 60
        E 0 90 58 60
        E 0 90 4b 60
        E 0 90 4c 60
        E 60 80 62 00
        E 0 80 63 00
        E 0 80 64 00
        E 0 80 57 00
        E 0 80 58 00
        E 0 80 4b 00
        E 0 80 4c 00
        E 180 90 62 60
        E 0 90 63 60
        E 0 90 64 60
        E 0 90 57 60
        E 0 90 58 60
        E 0 90 4b 60
        E 0 90 4c 60
        E 0 90 3e 60
        E 60 80 62 00
        E 0 80 63 00
        E 0 80 64 00
        E 0 80 57 00
        E 0 80 58 00
        E 0 80 4b 00
        E 0 80 4c 00
        E 0 80 3e 00
        E 180 90 62 60
        E 0 90 63 60
        E 0 90 64 60
        E 0 90 57 60
        E 0 90 58 60
        E 0 90 4b 60
        E 0 90 4c 60
        E 60 80 62 00
        E 0 80 63 00
        E 0 80 64 00
        E 0 80 57 00
        E 0 80 58 00
        E 0 80 4b 00
        E 0 80 4c 00
        E 180 90 62 60
        E 0 90 63 60
        E 0 90 64 60
        E 0 90 57 60
        E 0 90 58 60
        E 0 90 4b 60
        E 0 90 4c 60
        E 0 90 3e 60
        E 60 80 62 00
        E 0 80 63 00
        E 0 80 64 00
        E 0 80 57 00
        E 0 80 58 00
        E 0 80 4b 00
        E 0 80 4c 00
        E 0 80 3e 00
        E 180 90 62 60
        E 0 90 63 60
        E 0 90 64 60
        E 0 90 57 60
        E 0 90 58 60
        E 0 90 4b 60
        E 0 90 4c 60
        E 60 80 62 00
        E 0 80 63 00
        E 0 80 64 00
        E 0 80 57 00
        E 0 80 58 00
        E 0 80 4b 00
        E 0 80 4c 00
        E 60 90 62 60
        E 0 90 63 60
        E 0 90 64 60
        E 60 80 62 00
        E 0 80 63 00
        E 0 80 64 00
        E 60 90 62 60
        E 0 90 63 60
        E 0 90 64 60
        E 0 90 57 60
        E 0 90 58 60
        E 0 90 4b 60
        E 0 90 4c 60
        E 0 90 3e 60
        E 60 80 62 00
        E 0 80 63 00
        E 0 80 64 00
        E 0 80 57 00
        E 0 80 58 00
        E 0 80 4b 00
        E 0 80 4c 00
        E 0 80 3e 00
        E 180 90 61 60
        E 0 90 63 60
        E 0 90 64 60
        E 0 90 56 60
        E 0 90 58 60
        E 60 80 61 00
        E 0 80 63 00
        E 0 80 64 00
        E 0 80 56 00
        E 0 80 58 00
        E 180 90 61 60
        E 0 90 63 60
        E 0 90 64 60
        E 0 90 56 60
        E 0 90 58 60
        E 0 90 4a 60
        E 0 90 4b 60
        E 60 80 61 00
        E 0 80 63 00
        E 0 80 64 00
        E 0 80 56 00
        E 0 80 58 00
        E 0 80 4a 00
        E 0 80 4b 00
        E 180 90 61 60
        E 0 90 63 60
        E 0 90 64 60
        E 0 90 56 60
        E 0 90 58 60
        E 0 90 4a 60
        E 0 90 4b 60
        E 60 80 61 00
        E 0 80 63 00
        E 0 80 64 00
        E 0 80 56 00
        E 0 80 58 00
        E 0 80 4a 00
        E 0 80 4b 00
        E 180 90 61 60
        E 0 90 63 60
        E 0 90 64 60
        E 0 90 56 60
        E 0 90 58 60
        E 0 90 4a 60
        E 0 90 4b 60
        E 0 90 3e 60
        E 60 80 61 00
        E 0 80 63 00
        E 0 80 64 00
        E 0 80 56 00
        E 0 80 58 00
        E 0 80 4a 00
        E 0 80 4b 00
        E 0 80 3e 00
        E 180 90 61 60
        E 0 90 63 60
        E 0 90 64 60
        E 0 90 56 60
        E 0 90 58 60
        E 0 90 4a 60
        E 0 90 4b 60
        E 60 80 61 00
        E 0 80 63 00
        E 0 80 64 00
        E 0 80 56 00
        E 0 80 58 00
        E 0 80 4a 00
        E 0 80 4b 00
        E 180 90 61 60
        E 0 90 63 60
        E 0 90 64 60
        E 0 90 56 60
        E 0 90 58 60
        E 0 90 4a 60
        E 0 90 4b 60
        E 0 90 3e 60
        E 60 80 61 00
        E 0 80 63 00
        E 0 80 64 00
        E 0 80 56 00
        E 0 80 58 00
        E 0 80 4a 00
        E 0 80 4b 00
        E 0 80 3e 00
        E 180 90 61 60
        E 0 90 63 60
        E 0 90 64 60
        E 0 90 56 60
        E 0 90 58 60
        E 0 90 4a 60
        E 0 90 4b 60
        E 60 80 61 00
        E 0 80 63 00
        E 0 80 64 00
        E 0 80 56 00
        E 0 80 58 00
        E 0 80 4a 00
        E 0 80 4b 00
        E 180 90 61 60
        E 0 90 63 60
        E 0 90 64 60
        E 0 90 56 60
        E 0 90 58 60
        E 0 90 4a 60
        E 0 90 4b 60
        E 0 90 3e 60
        E 60 80 61 00
        E 0 80 63 00
        E 0 80 64 00
        E 0 80 56 00
        E 0 80 58 00
        E 0 80 4a 00
        E 0 80 4b 00
        E 0 80 3e 00
        E 180 90 61 60
        E 0 90 63 60
        E 0 90 64 60
        E 0 90 56 60
        E 0 90 58 60
        E 0 90 4a 60
        E 0 90 4b 60
        E 60 80 61 00
        E 0 80 63 00
        E 0 80 64 00
        E 0 80 56 00
        E 0 80 58 00
        E 0 80 4a 00
        E 0 80 4b 00
        E 180 90 61 60
        E 0 90 63 60
        E 0 90 64 60
        E 0 90 56 60
        E 0 90 58 60
        E 0 90 4a 60
        E 0 90 4b 60
        E 0 90 3e 60
        E 60 80 61 00
        E 0 80 63 00
        E 0 80 64 00
        E 0 80 56 00
        E 0 80 58 00
        E 0 80 4a 00
        E 0 80 4b 00
        E 0 80 3e 00
        E 180 90 61 60
        E 0 90 63 60
        E 0 90 64 60
        E 0 90 56 60
        E 0 90 58 60
        E 0 90 4a 60
        E 0 90 4b 60
        E 60 80 61 00
        E 0 80 63 00
        E 0 80 64 00
        E 0 80 56 00
        E 0 80 58 00
        E 0 80 4a 00
        E 0 80 4b 00
        E 180 90 61 60
        E 0 90 63 60
        E 0 90 64 60
        E 0 90 56 60
        E 0 90 58 60
        E 0 90 4a 60
        E 0 90 4b 60
        E 0 90 3e 60
        E 60 80 61 00
        E 0 80 63 00
        E 0 80 64 00
        E 0 80 56 00
        E 0 80 58 00
        E 0 80 4a 00
        E 0 80 4b 00
        E 0 80 3e 00
        E 180 90 61 60
        E 0 90 63 60
        E 0 90 64 60
        E 0 90 56 60
        E 0 90 58 60
        E 0 90 4a 60
        E 0 90 4b 60
        E 60 80 61 00
        E 0 80 63 00
        E 0 80 64 00
        E 0 80 56 00
        E 0 80 58 00
        E 0 80 4a 00
        E 0 80 4b 00
        E 180 90 61 60
        E 0 90 63 60
        E 0 90 64 60
        E 0 90 56 60
        E 0 90 58 60
        E 0 90 4a 60
        E 0 90 4b 60
        E 0 90 3e 60
        E 60 80 61 00
        E 0 80 63 00
        E 0 80 64 00
        E 0 80 56 00
        E 0 80 58 00
        E 0 80 4a 00
        E 0 80 4b 00
        E 0 80 3e 00
        E 180 90 61 60
        E 0 90 63 60
        E 0 90 64 60
        E 0 90 56 60
        E 0 90 58 60
        E 0 90 4a 60
        E 0 90 4b 60
        E 60 80 61 00
        E 0 80 63 00
        E 0 80 64 00
        E 0 80 56 00
        E 0 80 58 00
        E 0 80 4a 00
        E 0 80 4b 00
        E 60 90 61 60
        E 0 90 63 60
        E 0 90 64 60
        E 60 80 61 00
        E 0 80 63 00
        E 0 80 64 00
        E 60 90 61 60
        E 0 90 63 60
        E 0 90 64 60
        E 0 90 56 60
        E 0 90 58 60
        E 0 90 4a 60
        E 0 90 4b 60
        E 0 90 3e 60
        E 60 80 61 00
        E 0 80 63 00
        E 0 80 64 00
        E 0 80 56 00
        E 0 80 58 00
        E 0 80 4a 00
        E 0 80 4b 00
        E 0 80 3e 00
        E 180 90 62 60
        E 0 90 63 60
        E 0 90 64 60
        E 0 90 57 60
        E 0 90 58 60
        E 60 80 62 00
        E 0 80 63 00
        E 0 80 64 00
        E 0 80 57 00
        E 0 80 58 00
        E 180 90 62 60
        E 0 90 63 60
        E 0 90 64 60
        E 0 90 57 60
        E 0 90 58 60
        E 0 90 4b 60
        E 0 90 4c 60
        E 60 80 62 00
        E 0 80 63 00
        E 0 80 64 00
        E 0 80 57 00
        E 0 80 58 00
        E 0 80 4b 00
        E 0 80 4c 00
        E 180 90 62 60
        E 0 90 63 60
        E 0 90 64 60
        E 0 90 57 60
        E 0 90 58 60
        E 0 90 4b 60
        E 0 90 4c 60
        E 60 80 62 00
        E 0 80 63 00
        E 0 80 64 00
        E 0 80 57 00
        E 0 80 58 00
        E 0 80 4b 00
        E 0 80 4c 00
        E 180 90 62 60
        E 0 90 63 60
        E 0 90 64 60
        E 0 90 57 60
        E 0 90 58 60
        E 0 90 4b 60
        E 0 90 4c 60
        E 0 90 3e 60
        E 60 80 62 00
        E 0 80 63 00
        E 0 80 64 00
        E 0 80 57 00
        E 0 80 58 00
        E 0 80 4b 00
        E 0 80 4c 00
        E 0 80 3e 00
        E 180 90 62 60
        E 0 90 63 60
        E 0 90 64 60
        E 0 90 57 60
        E 0 90 58 60
        E 0 90 4b 60
        E 0 90 4c 60
        E 60 80 62 00
        E 0 80 63 00
        E 0 80 64 00
        E 0 80 57 00
        E 0 80 58 00
        E 0 80 4b 00
        E 0 80 4c 00
        E 180 90 62 60
        E 0 90 63 60
        E 0 90 64 60
        E 0 90 57 60
        E 0 90 58 60
        E 0 90 4b 60
        E 0 90 4c 60
        E 0 90 3e 60
        E 60 80 62 00
        E 0 80 63 00
        E 0 80 64 00
        E 0 80 57 00
        E 0 80 58 00
        E 0 80 4b 00
        E 0 80 4c 00
        E 0 80 3e 00
        E 180 90 62 60
        E 0 90 63 60
        E 0 90 64 60
        E 0 90 57 60
        E 0 90 58 60
        E 0 90 4b 60
        E 0 90 4c 60
        E 60 80 62 00
        E 0 80 63 00
        E 0 80 64 00
        E 0 80 57 00
        E 0 80 58 00
        E 0 80 4b 00
        E 0 80 4c 00
        E 180 90 62 60
        E 0 90 63 60
        E 0 90 64 60
        E 0 90 57 60
        E 0 90 58 60
        E 0 90 4b 60
        E 0 90 4c 60
        E 0 90 3e 60
        E 60 80 62 00
        E 0 80 63 00
        E 0 80 64 00
        E 0 80 57 00
        E 0 80 58 00
        E 0 80 4b 00
        E 0 80 4c 00
        E 0 80 3e 00
        E 180 90 62 60
        E 0 90 63 60
        E 0 90 64 60
        E 0 90 57 60
        E 0 90 58 60
        E 0 90 4b 60
        E 0 90 4c 60
        E 60 80 62 00
        E 0 80 63 00
        E 0 80 64 00
        E 0 80 57 00
        E 0 80 58 00
        E 0 80 4b 00
        E 0 80 4c 00
        E 180 90 62 60
        E 0 90 63 60
        E 0 90 64 60
        E 0 90 57 60
        E 0 90 58 60
        E 0 90 4b 60
        E 0 90 4c 60
        E 0 90 3e 60
        E 60 80 62 00
        E 0 80 63 00
        E 0 80 64 00
        E 0 80 57 00
        E 0 80 58 00
        E 0 80 4b 00
        E 0 80 4c 00
        E 0 80 3e 00
        E 180 90 62 60
        E 0 90 63 60
        E 0 90 64 60
        E 0 90 57 60
        E 0 90 58 60
        E 0 90 4b 60
        E 0 90 4c 60
        E 60 80 62 00
        E 0 80 63 00
        E 0 80 64 00
        E 0 80 57 00
        E 0 80 58 00
        E 0 80 4b 00
        E 0 80 4c 00
        E 180 90 62 60
        E 0 90 63 60
        E 0 90 64 60
        E 0 90 57 60
        E 0 90 58 60
        E 0 90 4b 60
        E 0 90 4c 60
        E 0 90 3e 60
        E 60 80 62 00
        E 0 80 63 00
        E 0 80 64 00
        E 0 80 57 00
        E 0 80 58 00
        E 0 80 4b 00
        E 0 80 4c 00
        E 0 80 3e 00
        E 180 90 62 60
        E 0 90 63 60
        E 0 90 64 60
        E 0 90 57 60
        E 0 90 58 60
        E 0 90 4b 60
        E 0 90 4c 60
        E 60 80 62 00
        E 0 80 63 00
        E 0 80 64 00
        E 0 80 57 00
        E 0 80 58 00
        E 0 80 4b 00
        E 0 80 4c 00
        E 180 90 62 60
        E 0 90 63 60
        E 0 90 64 60
        E 0 90 57 60
        E 0 90 58 60
        E 0 90 4b 60
        E 0 90 4c 60
        E 0 90 3e 60
        E 60 80 62 00
        E 0 80 63 00
        E 0 80 64 00
        E 0 80 57 00
        E 0 80 58 00
        E 0 80 4b 00
        E 0 80 4c 00
        E 0 80 3e 00
        E 180 90 62 60
        E 0 90 63 60
        E 0 90 64 60
        E 0 90 57 60
        E 0 90 58 60
        E 0 90 4b 60
        E 0 90 4c 60
        E 60 80 62 00
        E 0 80 63 00
        E 0 80 64 00
        E 0 80 57 00
        E 0 80 58 00
        E 0 80 4b 00
        E 0 80 4c 00
        E 60 90 62 60
        E 0 90 63 60
        E 0 90 64 60
        E 60 80 62 00
        E 0 80 63 00
        E 0 80 64 00
        E 60 90 62 60
        E 0 90 63 60
        E 0 90 64 60
        E 0 90 57 60
        E 0 90 58 60
        E 0 90 4b 60
        E 0 90 4c 60
        E 0 90 3e 60
        E 60 80 62 00
        E 0 80 63 00
        E 0 80 64 00
        E 0 80 57 00
        E 0 80 58 00
        E 0 80 4b 00
        E 0 80 4c 00
        E 0 80 3e 00
        E 180 90 60 60
        E 0 90 61 60
        E 0 90 62 60
        E 0 90 54 60
        E 0 90 55 60
        E 60 80 60 00
        E 0 80 61 00
        E 0 80 62 00
        E 0 80 54 00
        E 0 80 55 00
        E 180 90 60 60
        E 0 90 61 60
        E 0 90 62 60
        E 0 90 54 60
        E 0 90 55 60
        E 0 90 48 60
        E 0 90 49 60
        E 60 80 60 00
        E 0 80 61 00
        E 0 80 62 00
        E 0 80 54 00
        E 0 80 55 00
        E 0 80 48 00
        E 0 80 49 00
        E 180 90 60 60
        E 0 90 61 60
        E 0 90 62 60
        E 0 90 54 60
        E 0 90 55 60
        E 0 90 48 60
        E 0 90 49 60
        E 60 80 60 00
        E 0 80 61 00
        E 0 80 62 00
        E 0 80 54 00
        E 0 80 55 00
        E 0 80 48 00
        E 0 80 49 00
        E 180 90 60 60
        E 0 90 61 60
        E 0 90 62 60
        E 0 90 54 60
        E 0 90 55 60
        E 0 90 48 60
        E 0 90 49 60
        E 0 90 3c 60
        E 60 80 60 00
        E 0 80 61 00
        E 0 80 62 00
        E 0 80 54 00
        E 0 80 55 00
        E 0 80 48 00
        E 0 80 49 00
        E 0 80 3c 00
        E 180 90 60 60
        E 0 90 61 60
        E 0 90 62 60
        E 0 90 54 60
        E 0 90 55 60
        E 0 90 48 60
        E 0 90 49 60
        E 60 80 60 00
        E 0 80 61 00
        E 0 80 62 00
        E 0 80 54 00
        E 0 80 55 00
        E 0 80 48 00
        E 0 80 49 00
        E 180 90 60 60
        E 0 90 61 60
        E 0 90 62 60
        E 0 90 54 60
        E 0 90 55 60
        E 0 90 48 60
        E 0 90 49 60
        E 0 90 3c 60
        E 60 80 60 00
        E 0 80 61 00
        E 0 80 62 00
        E 0 80 54 00
        E 0 80 55 00
        E 0 80 48 00
        E 0 80 49 00
        E 0 80 3c 00
        E 180 90 60 60
        E 0 90 61 60
        E 0 90 62 60
        E 0 90 54 60
        E 0 90 55 60
        E 0 90 48 60
        E 0 90 49 60
        E 60 80 60 00
        E 0 80 61 00
        E 0 80 62 00
        E 0 80 54 00
        E 0 80 55 00
        E 0 80 48 00
        E 0 80 49 00
        E 180 90 60 60
        E 0 90 61 60
        E 0 90 62 60
        E 0 90 54 60
        E 0 90 55 60
        E 0 90 48 60
        E 0 90 49 60
        E 0 90 3c 60
        E 60 80 60 00
        E 0 80 61 00
        E 0 80 62 00
        E 0 80 54 00
        E 0 80 55 00
        E 0 80 48 00
        E 0 80 49 00
        E 0 80 3c 00
        E 180 90 60 60
        E 0 90 61 60
        E 0 90 62 60
        E 0 90 54 60
        E 0 90 55 60
        E 0 90 48 60
        E 0 90 49 60
        E 60 80 60 00
        E 0 80 61 00
        E 0 80 62 00
        E 0 80 54 00
        E 0 80 55 00
        E 0 80 48 00
        E 0 80 49 00
        E 180 90 60 60
        E 0 90 61 60
        E 0 90 62 60
        E 0 90 54 60
        E 0 90 55 60
        E 0 90 48 60
        E 0 90 49 60
        E 0 90 3c 60
        E 60 80 60 00
        E 0 80 61 00
        E 0 80 62 00
        E 0 80 54 00
        E 0 80 55 00
        E 0 80 48 00
        E 0 80 49 00
        E 0 80 3c 00
        E 180 90 60 60
        E 0 90 61 60
        E 0 90 62 60
        E 0 90 54 60
        E 0 90 55 60
        E 0 90 48 60
        E 0 90 49 60
        E 60 80 60 00
        E 0 80 61 00
        E 0 80 62 00
        E 0 80 54 00
        E 0 80 55 00
        E 0 80 48 00
        E 0 80 49 00
        E 180 90 60 60
        E 0 90 61 60
        E 0 90 62 60
        E 0 90 54 60
        E 0 90 55 60
        E 0 90 48 60
        E 0 90 49 60
        E 0 90 3c 60
        E 60 80 60 00
        E 0 80 61 00
        E 0 80 62 00
        E 0 80 54 00
        E 0 80 55 00
        E 0 80 48 00
        E 0 80 49 00
        E 0 80 3c 00
        E 180 90 60 60
        E 0 90 61 60
        E 0 90 62 60
        E 0 90 54 60
        E 0 90 55 60
        E 0 90 48 60
        E 0 90 49 60
        E 60 80 60 00
        E 0 80 61 00
        E 0 80 62 00
        E 0 80 54 00
        E 0 80 55 00
        E 0 80 48 00
        E 0 80 49 00
        E 180 90 60 60
        E 0 90 61 60
        E 0 90 62 60
        E 0 90 54 60
        E 0 90 55 60
        E 0 90 48 60
        E 0 90 49 60
        E 0 90 3c 60
        E 60 80 60 00
        E 0 80 61 00
        E 0 80 62 00
        E 0 80 54 00
        E 0 80 55 00
        E 0 80 48 00
        E 0 80 49 00
        E 0 80 3c 00
        E 180 90 60 60
        E 0 90 61 60
        E 0 90 62 60
        E 0 90 54 60
        E 0 90 55 60
        E 0 90 48 60
        E 0 90 49 60
        E 60 80 60 00
        E 0 80 61 00
        E 0 80 62 00
        E 0 80 54 00
        E 0 80 55 00
        E 0 80 48 00
        E 0 80 49 00
        E 60 90 60 60
        E 0 90 61 60
        E 0 90 62 60
        E 60 80 60 00
        E 0 80 61 00
        E 0 80 62 00
        E 60 90 60 60
        E 0 90 61 60
        E 0 90 62 60
        E 0 90 54 60
        E 0 90 55 60
        E 0 90 48 60
        E 0 90 49 60
        E 0 90 3c 60
        E 60 80 60 00
        E 0 80 61 00
        E 0 80 62 00
        E 0 80 54 00
        E 0 80 55 00
        E 0 80 48 00
        E 0 80 49 00
        E 0 80 3c 00
        E 180 90 62 60
        E 0 90 63 60
        E 0 90 64 60
        E 0 90 57 60
        E 0 90 58 60
        E 60 80 62 00
        E 0 80 63 00
        E 0 80 64 00
        E 0 80 57 00
        E 0 80 58 00
        E 180 90 62 60
        E 0 90 63 60
        E 0 90 64 60
        E 0 90 57 60
        E 0 90 58 60
        E 0 90 4b 60
        E 0 90 4c 60
        E 60 80 62 00
        E 0 80 63 00
        E 0 80 64 00
        E 0 80 57 00
        E 0 80 58 00
        E 0 80 4b 00
        E 0 80 4c 00
        E 180 90 62 60
        E 0 90 63 60
        E 0 90 64 60
        E 0 90 57 60
        E 0 90 58 60
        E 0 90 4b 60
        E 0 90 4c 60
        E 60 80 62 00
        E 0 80 63 00
        E 0 80 64 00
        E 0 80 57 00
        E 0 80 58 00
        E 0 80 4b 00
        E 0 80 4c 00
        E 180 90 62 60
        E 0 90 63 60
        E 0 90 64 60
        E 0 90 57 60
        E 0 90 58 60
        E 0 90 4b 60
        E 0 90 4c 60
        E 0 90 3e 60
        E 60 80 62 00
        E 0 80 63 00
        E 0 80 64 00
        E 0 80 57 00
        E 0 80 58 00
        E 0 80 4b 00
        E 0 80 4c 00
        E 0 80 3e 00
        E 180 90 62 60
        E 0 90 63 60
        E 0 90 64 60
        E 0 90 57 60
        E 0 90 58 60
        E 0 90 4b 60
        E 0 90 4c 60
        E 60 80 62 00
        E 0 80 63 00
        E 0 80 64 00
        E 0 80 57 00
        E 0 80 58 00
        E 0 80 4b 00
        E 0 80 4c 00
        E 180 90 62 60
        E 0 90 63 60
        E 0 90 64 60
        E 0 90 57 60
        E 0 90 58 60
        E 0 90 4b 60
        E 0 90 4c 60
        E 0 90 3e 60
        E 60 80 62 00
        E 0 80 63 00
        E 0 80 64 00
        E 0 80 57 00
        E 0 80 58 00
        E 0 80 4b 00
        E 0 80 4c 00
        E 0 80 3e 00
        E 180 90 62 60
        E 0 90 63 60
        E 0 90 64 60
        E 0 90 57 60
        E 0 90 58 60
        E 0 90 4b 60
        E 0 90 4c 60
        E 60 80 62 00
        E 0 80 63 00
        E 0 80 64 00
        E 0 80 57 00
        E 0 80 58 00
        E 0 80 4b 00
        E 0 80 4c 00
        E 180 90 62 60
        E 0 90 63 60
        E 0 90 64 60
        E 0 90 57 60
        E 0 90 58 60
        E 0 90 4b 60
        E 0 90 4c 60
        E 0 90 3e 60
        E 60 80 62 00
        E 0 80 63 00
        E 0 80 64 00
        E 0 80 57 00
        E 0 80 58 00
        E 0 80 4b 00
        E 0 80 4c 00
        E 0 80 3e 00
        E 180 90 62 60
        E 0 90 63 60
        E 0 90 64 60
        E 0 90 57 60
        E 0 90 58 60
        E 0 90 4b 60
        E 0 90 4c 60
        E 60 80 62 00
        E 0 80 63 00
        E 0 80 64 00
        E 0 80 57 00
        E 0 80 58 00
        E 0 80 4b 00
        E 0 80 4c 00
        E 180 90 62 60
        E 0 90 63 60
        E 0 90 64 60
        E 0 90 57 60
        E 0 90 58 60
        E 0 90 4b 60
        E 0 90 4c 60
        E 0 90 3e 60
        E 60 80 62 00
        E 0 80 63 00
        E 0 80 64 00
        E 0 80 57 00
        E 0 80 58 00
        E 0 80 4b 00
        E 0 80 4c 00
        E 0 80 3e 00
        E 180 90 62 60
        E 0 90 63 60
        E 0 90 64 60
        E 0 90 57 60
        E 0 90 58 60
        E 0 90 4b 60
        E 0 90 4c 60
        E 60 80 62 00
        E 0 80 63 00
        E 0 80 64 00
        E 0 80 57 00
        E 0 80 58 00
        E 0 80 4b 00
        E 0 80 4c 00
        E 180 90 62 60
        E 0 90 63 60
        E 0 90 64 60
        E 0 90 57 60
        E 0 90 58 60
        E 0 90 4b 60
        E 0 90 4c 60
        E 0 90 3e 60
        E 60 80 62 00
        E 0 80 63 00
        E 0 80 64 00
        E 0 80 57 00
        E 0 80 58 00
        E 0 80 4b 00
        E 0 80 4c 00
        E 0 80 3e 00
        E 180 90 62 60
        E 0 90 63 60
        E 0 90 64 60
        E 0 90 57 60
        E 0 90 58 60
        E 0 90 4b 60
        E 0 90 4c 60
        E 60 80 62 00
        E 0 80 63 00
        E 0 80 64 00
        E 0 80 57 00
        E 0 80 58 00
        E 0 80 4b 00
        E 0 80 4c 00
        E 180 90 62 60
        E 0 90 63 60
        E 0 90 64 60
        E 0 90 57 60
        E 0 90 58 60
        E 0 90 4b 60
        E 0 90 4c 60
        E 0 90 3e 60
        E 60 80 62 00
        E 0 80 63 00
        E 0 80 64 00
        E 0 80 57 00
        E 0 80 58 00
        E 0 80 4b 00
        E 0 80 4c 00
        E 0 80 3e 00
        E 180 90 62 60
        E 0 90 63 60
        E 0 90 64 60
        E 0 90 74 67
        E 0 90 57 60
        E 0 90 58 60
        E 0 90 4b 60
        E 0 90 4c 60
        E 60 80 62 00
        E 0 80 63 00
        E 0 80 64 00
        E 0 80 57 00
        E 0 80 58 00
        E 0 80 4b 00
        E 0 80 4c 00
        E 60 90 62 60
        E 0 90 63 60
        E 0 90 64 60
        E 60 80 62 00
        E 0 80 63 00
        E 0 80 64 00
        E 60 90 62 60
        E 0 90 63 60
        E 0 90 64 60
        E 0 90 57 60
        E 0 90 58 60
        E 0 90 4b 60
        E 0 90 4c 60
        E 0 90 3e 60
        E 60 80 62 00
        E 0 80 63 00
        E 0 80 64 00
        E 0 80 57 00
        E 0 80 58 00
        E 0 80 4b 00
        E 0 80 4c 00
        E 0 80 3e 00
        E 180 90 61 60
        E 0 90 63 60
        E 0 90 64 60
        E 0 90 56 60
        E 0 90 58 60
        E 60 80 61 00
        E 0 80 63 00
        E 0 80 64 00
        E 0 80 56 00
        E 0 80 58 00
        E 180 90 61 60
        E 0 90 63 60
        E 0 90 64 60
        E 0 90 56 60
        E 0 90 58 60
        E 0 90 4a 60
        E 0 90 4b 60
        E 60 80 61 00
        E 0 80 63 00
        E 0 80 64 00
        E 0 80 56 00
        E 0 80 58 00
        E 0 80 4a 00
        E 0 80 4b 00
        E 180 90 61 60
        E 0 90 63 60
        E 0 90 64 60
        E 0 90 56 60
        E 0 90 58 60
        E 0 90 4a 60
        E 0 90 4b 60
        E 60 80 61 00
        E 0 80 63 00
        E 0 80 64 00
        E 0 80 56 00
        E 0 80 58 00
        E 0 80 4a 00
        E 0 80 4b 00
        E 180 90 61 60
        E 0 90 63 60
        E 0 90 64 60
        E 0 90 56 60
        E 0 90 58 60
        E 0 90 4a 60
        E 0 90 4b 60
        E 0 90 3e 60
        E 60 80 61 00
        E 0 80 63 00
        E 0 80 64 00
        E 0 80 56 00
        E 0 80 58 00
        E 0 80 4a 00
        E 0 80 4b 00
        E 0 80 3e 00
        E 180 90 61 60
        E 0 90 63 60
        E 0 90 64 60
        E 0 90 56 60
        E 0 90 58 60
        E 0 90 4a 60
        E 0 90 4b 60
        E 60 80 61 00
        E 0 80 63 00
        E 0 80 64 00
        E 0 80 56 00
        E 0 80 58 00
        E 0 80 4a 00
        E 0 80 4b 00
        E 180 90 61 60
        E 0 90 63 60
        E 0 90 64 60
        E 0 90 56 60
        E 0 90 58 60
        E 0 90 4a 60
        E 0 90 4b 60
        E 0 90 3e 60
        E 60 80 61 00
        E 0 80 63 00
        E 0 80 64 00
        E 0 80 56 00
        E 0 80 58 00
        E 0 80 4a 00
        E 0 80 4b 00
        E 0 80 3e 00
        E 180 90 61 60
        E 0 90 63 60
        E 0 90 64 60
        E 0 90 56 60
        E 0 90 58 60
        E 0 90 4a 60
        E 0 90 4b 60
        E 60 80 61 00
        E 0 80 63 00
        E 0 80 64 00
        E 0 80 56 00
        E 0 80 58 00
        E 0 80 4a 00
        E 0 80 4b 00
        E 180 90 61 60
        E 0 90 63 60
        E 0 90 64 60
        E 0 90 56 60
        E 0 90 58 60
        E 0 90 4a 60
        E 0 90 4b 60
        E 0 90 3e 60
        E 60 80 61 00
        E 0 80 63 00
        E 0 80 64 00
        E 0 80 56 00
        E 0 80 58 00
        E 0 80 4a 00
        E 0 80 4b 00
        E 0 80 3e 00
        E 180 90 61 60
        E 0 90 63 60
        E 0 90 64 60
        E 0 90 56 60
        E 0 90 58 60
        E 0 90 4a 60
        E 0 90 4b 60
        E 60 80 61 00
        E 0 80 63 00
        E 0 80 64 00
        E 0 80 56 00
        E 0 80 58 00
        E 0 80 4a 00
        E 0 80 4b 00
        E 180 90 61 60
        E 0 90 63 60
        E 0 90 64 60
        E 0 90 56 60
        E 0 90 58 60
        E 0 90 4a 60
        E 0 90 4b 60
        E 0 90 3e 60
        E 60 80 61 00
        E 0 80 63 00
        E 0 80 64 00
        E 0 80 56 00
        E 0 80 58 00
        E 0 80 4a 00
        E 0 80 4b 00
        E 0 80 3e 00
        E 180 90 61 60
        E 0 90 63 60
        E 0 90 64 60
        E 0 90 56 60
        E 0 90 58 60
        E 0 90 4a 60
        E 0 90 4b 60
        E 60 80 61 00
        E 0 80 63 00
        E 0 80 64 00
        E 0 80 56 00
        E 0 80 58 00
        E 0 80 4a 00
        E 0 80 4b 00
        E 180 90 61 60
        E 0 90 63 60
        E 0 90 64 60
        E 0 90 56 60
        E 0 90 58 60
        E 0 90 4a 60
        E 0 90 4b 60
        E 0 90 3e 60
        E 60 80 61 00
        E 0 80 63 00
        E 0 80 64 00
        E 0 80 56 00
        E 0 80 58 00
        E 0 80 4a 00
        E 0 80 4b 00
        E 0 80 3e 00
        E 180 90 61 60
        E 0 90 63 60
        E 0 90 64 60
        E 0 90 56 60
        E 0 90 58 60
        E 0 90 4a 60
        E 0 90 4b 60
        E 60 80 61 00
        E 0 80 63 00
        E 0 80 64 00
        E 0 80 56 00
        E 0 80 58 00
        E 0 80 4a 00
        E 0 80 4b 00
        E 180 90 61 60
        E 0 90 63 60
        E 0 90 64 60
        E 0 90 56 60
        E 0 90 58 60
        E 0 90 4a 60
        E 0 90 4b 60
        E 60 80 61 00
        E 0 80 63 00
        E 0 80 64 00
        E 0 80 56 00
        E 0 80 58 00
        E 0 80 4a 00
        E 0 80 4b 00
        E 180 90 61 60
        E 0 90 63 60
        E 0 90 64 60
        E 0 90 56 60
        E 0 90 58 60
        E 60 80 61 00
        E 0 80 63 00
        E 0 80 64 00
        E 0 80 56 00
        E 0 80 58 00
        E 60 80 74 00
        E 120 90 61 60
        E 0 90 55 60
        E 0 90 49 60
        E 0 90 3c 60
        E 60 80 61 00
        E 0 80 55 00
        E 0 80 49 00
        E 0 80 3c 00
        E 180 90 62 60
        E 0 90 56 60
        E 60 80 62 00
        E 0 80 56 00
        E 180 90 63 60
        E 0 90 57 60
        E 0 90 4b 60
        E 120 80 57 00
        E 0 80 4b 00
        E 180 80 63 00
        E 180 90 60 60
        E 0 90 54 60
        E 0 90 48 60
        E 0 90 3c 60
        E 60 80 60 00
        E 0 80 54 00
        E 0 80 48 00
        E 0 80 3c 00
        E 180 90 61 60
        E 0 90 55 60
        E 60 80 61 00
        E 0 80 55 00
        E 180 90 60 60
        E 0 90 54 60
        E 0 90 48 60
        E 120 80 54 00
        E 0 80 48 00
        E 180 80 60 00
        E 180 90 61 60
        E 0 90 55 60
        E 0 90 49 60
        E 0 90 3c 60
        E 60 80 61 00
        E 0 80 55 00
        E 0 80 49 00
        E 0 80 3c 00
        E 180 90 62 60
        E 0 90 56 60
        E 60 80 62 00
        E 0 80 56 00
        E 180 90 63 60
        E 0 90 57 60
        E 0 90 4b 60
        E 120 80 57 00
        E 0 80 4b 00
        E 180 80 63 00
        E 180 90 61 60
        E 0 90 55 60
        E 0 90 49 60
        E 0 90 3c 60
        E 60 80 61 00
        E 0 80 55 00
        E 0 80 49 00
        E 0 80 3c 00
        E 180 90 60 60
        E 0 90 54 60
        E 60 80 60 00
        E 0 80 54 00
        E 180 90 62 60
        E 0 90 56 60
        E 0 90 4a 60
        E 120 80 56 00
        E 0 80 4a 00
        E 180 80 62 00
        E 180 90 61 60
        E 0 90 55 60
        E 0 90 49 60
        E 0 90 3c 60
        E 60 80 61 00
        E 0 80 55 00
        E 0 80 49 00
        E 0 80 3c 00
        E 180 90 60 60
        E 0 90 54 60
        E 60 80 60 00
        E 0 80 54 00
        E 180 90 61 60
        E 0 90 55 60
        E 0 90 49 60
        E 120 80 55 00
        E 0 80 49 00
        E 180 80 61 00
        E 180 90 60 60
        E 0 90 54 60
        E 0 90 48 60
        E 0 90 3c 60
        E 60 80 60 00
        E 0 80 54 00
        E 0 80 48 00
        E 0 80 3c 00
        E 180 90 61 60
        E 0 90 55 60
        E 60 80 61 00
        E 0 80 55 00
        E 180 90 62 60
        E 0 90 56 60
        E 0 90 4a 60
        E 120 80 56 00
        E 0 80 4a 00
        E 180 80 62 00
        E 180 90 63 60
        E 0 90 57 60
        E 0 90 4b 60
        E 0 90 3e 60
        E 60 80 63 00
        E 0 80 57 00
        E 0 80 4b 00
        E 0 80 3e 00
        E 180 90 61 60
        E 0 90 55 60
        E 60 80 61 00
        E 0 80 55 00
        E 180 90 62 60
        E 0 90 56 60
        E 0 90 4a 60
        E 120 80 56 00
        E 0 80 4a 00
        E 180 80 62 00
        E 180 90 61 60
        E 0 90 55 60
        E 0 90 49 60
        E 0 90 3c 60
        E 60 80 61 00
        E 0 80 55 00
        E 0 80 49 00
        E 0 80 3c 00
        E 180 90 60 60
        E 0 90 54 60
        E 60 80 60 00
        E 0 80 54 00
        E 180 90 62 60
        E 0 90 56 60
        E 0 90 4a 60
        E 120 80 56 00
        E 0 80 4a 00
        E 180 80 62 00
        E 180 90 63 60
        E 0 90 57 60
        E 0 90 4b 60
        E 0 90 3e 60
        E 60 80 63 00
        E 0 80 57 00
        E 0 80 4b 00
        E 0 80 3e 00
        E 180 90 61 60
        E 0 90 55 60
        E 60 80 61 00
        E 0 80 55 00
        E 180 90 63 60
        E 0 90 57 60
        E 0 90 4b 60
        E 120 80 57 00
        E 0 80 4b 00
        E 180 80 63 00
        E 180 90 61 60
        E 0 90 55 60
        E 0 90 49 60
        E 0 90 3c 60
        E 60 80 61 00
        E 0 80 55 00
        E 0 80 49 00
        E 0 80 3c 00
        E 180 90 62 60
        E 0 90 56 60
        E 60 80 62 00
        E 0 80 56 00
        E 180 90 60 60
        E 0 90 54 60
        E 0 90 48 60
        E 120 80 54 00
        E 0 80 48 00
        E 180 80 60 00
        E 180 90 61 60
        E 0 90 55 60
        E 0 90 49 60
        E 0 90 3c 60
        E 60 80 61 00
        E 0 80 55 00
        E 0 80 49 00
        E 0 80 3c 00
        E 180 90 62 60
        E 0 90 56 60
        E 60 80 62 00
        E 0 80 56 00
        E 180 90 63 60
        E 0 90 57 60
        E 0 90 4b 60
        E 60 80 63 00
        E 0 80 57 00
        E 0 80 4b 00
        E 180 90 62 60
        E 0 90 56 60
        E 60 80 62 00
        E 0 80 56 00
        E 180 90 61 60
        E 0 90 55 60
        E 0 90 49 60
        E 0 90 3c 60
        E 60 80 61 00
        E 0 80 55 00
        E 0 80 49 00
        E 0 80 3c 00
        E 180 90 60 60
        E 0 90 54 60
        E 60 80 60 00
        E 0 80 54 00
        E 180 90 62 60
        E 0 90 56 60
        E 0 90 4a 60
        E 120 80 56 00
        E 0 80 4a 00
        E 180 80 62 00
        E 180 90 61 60
        E 0 90 55 60
        E 0 90 49 60
        E 0 90 3c 60
        E 60 80 61 00
        E 0 80 55 00
        E 0 80 49 00
        E 0 80 3c 00
        E 180 90 62 60
        E 0 90 56 60
        E 60 80 62 00
        E 0 80 56 00
        E 180 90 61 60
        E 0 90 55 60
        E 0 90 49 60
        E 120 80 55 00
        E 0 80 49 00
        E 180 80 61 00
        E 180 90 62 60
        E 0 90 56 60
        E 0 90 4a 60
        E 0 90 3d 60
        E 60 80 62 00
        E 0 80 56 00
        E 0 80 4a 00
        E 0 80 3d 00
        E 180 90 63 60
        E 0 90 57 60
        E 60 80 63 00
        E 0 80 57 00
        E 180 90 62 60
        E 0 90 56 60
        E 0 90 4a 60
        E 120 80 56 00
        E 0 80 4a 00
        E 180 80 62 00
        E 180 90 63 60
        E 0 90 57 60
        E 0 90 4b 60
        E 0 90 3e 60
        E 60 80 63 00
        E 0 80 57 00
        E 0 80 4b 00
        E 0 80 3e 00
        E 180 90 61 60
        E 0 90 55 60
        E 60 80 61 00
        E 0 80 55 00
        E 180 90 62 60
        E 0 90 56 60
        E 0 90 4a 60
        E 120 80 56 00
        E 0 80 4a 00
        E 180 80 62 00
        E 180 90 61 60
        E 0 90 55 60
        E 0 90 49 60
        E 0 90 3c 60
        E 60 80 61 00
        E 0 80 55 00
        E 0 80 49 00
        E 0 80 3c 00
        E 180 90 60 60
        E 0 90 54 60
        E 60 80 60 00
        E 0 80 54 00
        E 180 90 62 60
        E 0 90 56 60
        E 0 90 4a 60
        E 625 90 74 67
        E 1295 80 4a 00
        E 60 80 62 00
        E 0 80 56 00
        E 180 90 61 60
        E 0 90 55 60
        E 60 80 61 00
        E 0 80 55 00
        E 180 90 60 60
        E 0 90 54 60
        E 0 90 48 60
        E 0 90 3c 60
        E 60 80 60 00
        E 0 80 54 00
        E 0 80 48 00
        E 0 80 3c 00
        E 179 90 61 60
        E 0 90 55 60
        E 60 80 61 00
        E 0 80 55 00
        E 181 90 63 60
        E 0 90 57 60
        E 0 90 4b 60
        E 120 80 57 00
        E 0 80 4b 00
        E 141 80 74 00
        E 39 80 63 00
        E 180 90 62 60
        E 0 90 56 60
        E 0 90 4a 60
        E 0 90 3d 60
        E 60 80 62 00
        E 0 80 56 00
        E 0 80 4a 00
        E 0 80 3d 00
        E 180 90 60 60
        E 0 90 54 60
        E 60 80 60 00
        E 0 80 54 00
        E 180 90 62 60
        E 0 90 56 60
        E 0 90 4a 60
        E 60 80 62 00
        E 0 80 56 00
        E 0 80 4a 00
        E 180 90 60 60
        E 0 90 62 60
        E 0 90 63 60
        E 0 90 54 60
        E 0 90 57 60
        E 60 80 60 00
        E 0 80 62 00
        E 0 80 63 00
        E 0 80 54 00
        E 0 80 57 00
        E 180 90 60 60
        E 0 90 62 60
        E 0 90 63 60
        E 0 90 54 60
        E 0 90 57 60
        E 0 90 49 60
        E 0 90 4b 60
        E 0 90 3e 60
        E 60 80 60 00
        E 0 80 62 00
        E 0 80 63 00
        E 0 80 54 00
        E 0 80 57 00
        E 0 80 49 00
        E 0 80 4b 00
        E 0 80 3e 00
        E 180 90 60 60
        E 0 90 62 60
        E 0 90 63 60
        E 0 90 54 60
        E 0 90 57 60
        E 0 90 49 60
        E 0 90 4b 60
        E 60 80 60 00
        E 0 80 62 00
        E 0 80 63 00
        E 0 80 54 00
        E 0 80 57 00
        E 0 80 49 00
        E 0 80 4b 00
        E 180 90 60 60
        E 0 90 62 60
        E 0 90 63 60
        E 0 90 54 60
        E 0 90 57 60
        E 0 90 49 60
        E 0 90 4b 60
        E 0 90 3e 60
        E 60 80 60 00
        E 0 80 62 00
        E 0 80 63 00
        E 0 80 54 00
        E 0 80 57 00
        E 0 80 49 00
        E 0 80 4b 00
        E 0 80 3e 00
        E 180 90 60 60
        E 0 90 62 60
        E 0 90 63 60
        E 0 90 54 60
        E 0 90 57 60
        E 0 90 49 60
        E 0 90 4b 60
        E 60 80 60 00
        E 0 80 62 00
        E 0 80 63 00
        E 0 80 54 00
        E 0 80 57 00
        E 0 80 49 00
        E 0 80 4b 00
        E 180 90 60 60
        E 0 90 62 60
        E 0 90 63 60
        E 0 90 54 60
        E 0 90 57 60
        E 0 90 49 60
        E 0 90 4b 60
        E 0 90 3e 60
        E 60 80 60 00
        E 0 80 62 00
        E 0 80 63 00
        E 0 80 54 00
        E 0 80 57 00
        E 0 80 49 00
        E 0 80 4b 00
        E 0 80 3e 00
        E 180 90 60 60
        E 0 90 62 60
        E 0 90 63 60
        E 0 90 54 60
        E 0 90 57 60
        E 0 90 49 60
        E 0 90 4b 60
        E 60 80 60 00
        E 0 80 62 00
        E 0 80 63 00
        E 0 80 54 00
        E 0 80 57 00
        E 0 80 49 00
        E 0 80 4b 00
        E 180 90 60 60
        E 0 90 62 60
        E 0 90 63 60
        E 0 90 54 60
        E 0 90 57 60
        E 0 90 49 60
        E 0 90 4b 60
        E 0 90 3e 60
        E 60 80 60 00
        E 0 80 62 00
        E 0 80 63 00
        E 0 80 54 00
        E 0 80 57 00
        E 0 80 49 00
        E 0 80 4b 00
        E 0 80 3e 00
        E 180 90 60 60
        E 0 90 62 60
        E 0 90 63 60
        E 0 90 54 60
        E 0 90 57 60
        E 0 90 49 60
        E 0 90 4b 60
        E 60 80 60 00
        E 0 80 62 00
        E 0 80 63 00
        E 0 80 54 00
        E 0 80 57 00
        E 0 80 49 00
        E 0 80 4b 00
        E 180 90 60 60
        E 0 90 62 60
        E 0 90 63 60
        E 0 90 54 60
        E 0 90 57 60
        E 0 90 49 60
        E 0 90 4b 60
        E 0 90 3e 60
        E 60 80 60 00
        E 0 80 62 00
        E 0 80 63 00
        E 0 80 54 00
        E 0 80 57 00
        E 0 80 49 00
        E 0 80 4b 00
        E 0 80 3e 00
        E 180 90 60 60
        E 0 90 62 60
        E 0 90 63 60
        E 0 90 54 60
        E 0 90 57 60
        E 0 90 49 60
        E 0 90 4b 60
        E 60 80 60 00
        E 0 80 62 00
        E 0 80 63 00
        E 0 80 54 00
        E 0 80 57 00
        E 0 80 49 00
        E 0 80 4b 00
        E 180 90 60 60
        E 0 90 62 60
        E 0 90 63 60
        E 0 90 54 60
        E 0 90 57 60
        E 0 90 49 60
        E 0 90 4b 60
        E 0 90 3e 60
        E 60 80 60 00
        E 0 80 62 00
        E 0 80 63 00
        E 0 80 54 00
        E 0 80 57 00
        E 0 80 49 00
        E 0 80 4b 00
        E 0 80 3e 00
        E 180 90 60 60
        E 0 90 62 60
        E 0 90 63 60
        E 0 90 54 60
        E 0 90 57 60
        E 0 90 49 60
        E 0 90 4b 60
        E 60 80 60 00
        E 0 80 62 00
        E 0 80 63 00
        E 0 80 54 00
        E 0 80 57 00
        E 0 80 49 00
        E 0 80 4b 00
        E 60 90 60 60
        E 0 90 62 60
        E 0 90 63 60
        E 60 80 60 00
        E 0 80 62 00
        E 0 80 63 00
        E 60 90 60 60
        E 0 90 62 60
        E 0 90 63 60
        E 0 90 54 60
        E 0 90 57 60
        E 0 90 49 60
        E 0 90 4b 60
        E 0 90 3e 60
        E 60 80 60 00
        E 0 80 62 00
        E 0 80 63 00
        E 0 80 54 00
        E 0 80 57 00
        E 0 80 49 00
        E 0 80 4b 00
        E 0 80 3e 00
        E 180 90 62 60
        E 0 90 63 60
        E 0 90 64 60
        E 0 90 57 60
        E 0 90 58 60
        E 60 80 62 00
        E 0 80 63 00
        E 0 80 64 00
        E 0 80 57 00
        E 0 80 58 00
        E 180 90 62 60
        E 0 90 63 60
        E 0 90 64 60
        E 0 90 57 60
        E 0 90 58 60
        E 0 90 4b 60
        E 0 90 4c 60
        E 60 80 62 00
        E 0 80 63 00
        E 0 80 64 00
        E 0 80 57 00
        E 0 80 58 00
        E 0 80 4b 00
        E 0 80 4c 00
        E 180 90 62 60
        E 0 90 63 60
        E 0 90 64 60
        E 0 90 57 60
        E 0 90 58 60
        E 0 90 4b 60
        E 0 90 4c 60
        E 60 80 62 00
        E 0 80 63 00
        E 0 80 64 00
        E 0 80 57 00
        E 0 80 58 00
        E 0 80 4b 00
        E 0 80 4c 00
        E 180 90 62 60
        E 0 90 63 60
        E 0 90 64 60
        E 0 90 57 60
        E 0 90 58 60
        E 0 90 4b 60
        E 0 90 4c 60
        E 0 90 3e 60
        E 60 80 62 00
        E 0 80 63 00
        E 0 80 64 00
        E 0 80 57 00
        E 0 80 58 00
        E 0 80 4b 00
        E 0 80 4c 00
        E 0 80 3e 00
        E 180 90 62 60
        E 0 90 63 60
        E 0 90 64 60
        E 0 90 57 60
        E 0 90 58 60
        E 0 90 4b 60
        E 0 90 4c 60
        E 60 80 62 00
        E 0 80 63 00
        E 0 80 64 00
        E 0 80 57 00
        E 0 80 58 00
        E 0 80 4b 00
        E 0 80 4c 00
        E 180 90 62 60
        E 0 90 63 60
        E 0 90 64 60
        E 0 90 57 60
        E 0 90 58 60
        E 0 90 4b 60
        E 0 90 4c 60
        E 0 90 3e 60
        E 60 80 62 00
        E 0 80 63 00
        E 0 80 64 00
        E 0 80 57 00
        E 0 80 58 00
        E 0 80 4b 00
        E 0 80 4c 00
        E 0 80 3e 00
        E 180 90 62 60
        E 0 90 63 60
        E 0 90 64 60
        E 0 90 57 60
        E 0 90 58 60
        E 0 90 4b 60
        E 0 90 4c 60
        E 60 80 62 00
        E 0 80 63 00
        E 0 80 64 00
        E 0 80 57 00
        E 0 80 58 00
        E 0 80 4b 00
        E 0 80 4c 00
        E 180 90 62 60
        E 0 90 63 60
        E 0 90 64 60
        E 0 90 57 60
        E 0 90 58 60
        E 0 90 4b 60
        E 0 90 4c 60
        E 0 90 3e 60
        E 60 80 62 00
        E 0 80 63 00
        E 0 80 64 00
        E 0 80 57 00
        E 0 80 58 00
        E 0 80 4b 00
        E 0 80 4c 00
        E 0 80 3e 00
        E 180 90 62 60
        E 0 90 63 60
        E 0 90 64 60
        E 0 90 57 60
        E 0 90 58 60
        E 0 90 4b 60
        E 0 90 4c 60
        E 60 80 62 00
        E 0 80 63 00
        E 0 80 64 00
        E 0 80 57 00
        E 0 80 58 00
        E 0 80 4b 00
        E 0 80 4c 00
        E 180 90 62 60
        E 0 90 63 60
        E 0 90 64 60
        E 0 90 57 60
        E 0 90 58 60
        E 0 90 4b 60
        E 0 90 4c 60
        E 0 90 3e 60
        E 60 80 62 00
        E 0 80 63 00
        E 0 80 64 00
        E 0 80 57 00
        E 0 80 58 00
        E 0 80 4b 00
        E 0 80 4c 00
        E 0 80 3e 00
        E 180 90 62 60
        E 0 90 63 60
        E 0 90 64 60
        E 0 90 57 60
        E 0 90 58 60
        E 0 90 4b 60
        E 0 90 4c 60
        E 60 80 62 00
        E 0 80 63 00
        E 0 80 64 00
        E 0 80 57 00
        E 0 80 58 00
        E 0 80 4b 00
        E 0 80 4c 00
        E 180 90 62 60
        E 0 90 63 60
        E 0 90 64 60
        E 0 90 57 60
        E 0 90 58 60
        E 0 90 4b 60
        E 0 90 4c 60
        E 0 90 3e 60
        E 60 80 62 00
        E 0 80 63 00
        E 0 80 64 00
        E 0 80 57 00
        E 0 80 58 00
        E 0 80 4b 00
        E 0 80 4c 00
        E 0 80 3e 00
        E 180 90 62 60
        E 0 90 63 60
        E 0 90 64 60
        E 0 90 57 60
        E 0 90 58 60
        E 0 90 4b 60
        E 0 90 4c 60
        E 60 80 62 00
        E 0 80 63 00
        E 0 80 64 00
        E 0 80 57 00
        E 0 80 58 00
        E 0 80 4b 00
        E 0 80 4c 00
        E 180 90 62 60
        E 0 90 63 60
        E 0 90 64 60
        E 0 90 57 60
        E 0 90 58 60
        E 0 90 4b 60
        E 0 90 4c 60
        E 0 90 3e 60
        E 60 80 62 00
        E 0 80 63 00
        E 0 80 64 00
        E 0 80 57 00
        E 0 80 58 00
        E 0 80 4b 00
        E 0 80 4c 00
        E 0 80 3e 00
        E 180 90 62 60
        E 0 90 63 60
        E 0 90 64 60
        E 0 90 57 60
        E 0 90 58 60
        E 0 90 4b 60
        E 0 90 4c 60
        E 60 80 62 00
        E 0 80 63 00
        E 0 80 64 00
        E 0 80 57 00
        E 0 80 58 00
        E 0 80 4b 00
        E 0 80 4c 00
        E 60 90 62 60
        E 0 90 63 60
        E 0 90 64 60
        E 60 80 62 00
        E 0 80 63 00
        E 0 80 64 00
        E 60 90 62 60
        E 0 90 63 60
        E 0 90 64 60
        E 0 90 57 60
        E 0 90 58 60
        E 0 90 4b 60
        E 0 90 4c 60
        E 0 90 3e 60
        E 60 80 62 00
        E 0 80 63 00
        E 0 80 64 00
        E 0 80 57 00
        E 0 80 58 00
        E 0 80 4b 00
        E 0 80 4c 00
        E 0 80 3e 00
        E 180 90 60 60
        E 0 90 61 60
        E 0 90 62 60
        E 0 90 54 60
        E 0 90 55 60
        E 60 80 60 00
        E 0 80 61 00
        E 0 80 62 00
        E 0 80 54 00
        E 0 80 55 00
        E 180 90 60 60
        E 0 90 61 60
        E 0 90 62 60
        E 0 90 54 60
        E 0 90 55 60
        E 0 90 48 60
        E 0 90 49 60
        E 60 80 60 00
        E 0 80 61 00
        E 0 80 62 00
        E 0 80 54 00
        E 0 80 55 00
        E 0 80 48 00
        E 0 80 49 00
        E 180 90 60 60
        E 0 90 61 60
        E 0 90 62 60
        E 0 90 54 60
        E 0 90 55 60
        E 0 90 48 60
        E 0 90 49 60
        E 60 80 60 00
        E 0 80 61 00
        E 0 80 62 00
        E 0 80 54 00
        E 0 80 55 00
        E 0 80 48 00
        E 0 80 49 00
        E 180 90 60 60
        E 0 90 61 60
        E 0 90 62 60
        E 0 90 54 60
        E 0 90 55 60
        E 0 90 48 60
        E 0 90 49 60
        E 0 90 3c 60
        E 60 80 60 00
        E 0 80 61 00
        E 0 80 62 00
        E 0 80 54 00
        E 0 80 55 00
        E 0 80 48 00
        E 0 80 49 00
        E 0 80 3c 00
        E 180 90 60 60
        E 0 90 61 60
        E 0 90 62 60
        E 0 90 54 60
        E 0 90 55 60
        E 0 90 48 60
        E 0 90 49 60
        E 60 80 60 00
        E 0 80 61 00
        E 0 80 62 00
        E 0 80 54 00
        E 0 80 55 00
        E 0 80 48 00
        E 0 80 49 00
        E 180 90 60 60
        E 0 90 61 60
        E 0 90 62 60
        E 0 90 54 60
        E 0 90 55 60
        E 0 90 48 60
        E 0 90 49 60
        E 0 90 3c 60
        E 60 80 60 00
        E 0 80 61 00
        E 0 80 62 00
        E 0 80 54 00
        E 0 80 55 00
        E 0 80 48 00
        E 0 80 49 00
        E 0 80 3c 00
        E 180 90 60 60
        E 0 90 61 60
        E 0 90 62 60
        E 0 90 54 60
        E 0 90 55 60
        E 0 90 48 60
        E 0 90 49 60
        E 60 80 60 00
        E 0 80 61 00
        E 0 80 62 00
        E 0 80 54 00
        E 0 80 55 00
        E 0 80 48 00
        E 0 80 49 00
        E 180 90 60 60
        E 0 90 61 60
        E 0 90 62 60
        E 0 90 54 60
        E 0 90 55 60
        E 0 90 48 60
        E 0 90 49 60
        E 0 90 3c 60
        E 60 80 60 00
        E 0 80 61 00
        E 0 80 62 00
        E 0 80 54 00
        E 0 80 55 00
        E 0 80 48 00
        E 0 80 49 00
        E 0 80 3c 00
        E 180 90 60 60
        E 0 90 61 60
        E 0 90 62 60
        E 0 90 54 60
        E 0 90 55 60
        E 0 90 48 60
        E 0 90 49 60
        E 60 80 60 00
        E 0 80 61 00
        E 0 80 62 00
        E 0 80 54 00
        E 0 80 55 00
        E 0 80 48 00
        E 0 80 49 00
        E 180 90 60 60
        E 0 90 61 60
        E 0 90 62 60
        E 0 90 54 60
        E 0 90 55 60
        E 0 90 48 60
        E 0 90 49 60
        E 0 90 3c 60
        E 60 80 60 00
        E 0 80 61 00
        E 0 80 62 00
        E 0 80 54 00
        E 0 80 55 00
        E 0 80 48 00
        E 0 80 49 00
        E 0 80 3c 00
        E 180 90 60 60
        E 0 90 61 60
        E 0 90 62 60
        E 0 90 54 60
        E 0 90 55 60
        E 0 90 48 60
        E 0 90 49 60
        E 60 80 60 00
        E 0 80 61 00
        E 0 80 62 00
        E 0 80 54 00
        E 0 80 55 00
        E 0 80 48 00
        E 0 80 49 00
        E 180 90 60 60
        E 0 90 61 60
        E 0 90 62 60
        E 0 90 54 60
        E 0 90 55 60
        E 0 90 48 60
        E 0 90 49 60
        E 0 90 3c 60
        E 60 80 60 00
        E 0 80 61 00
        E 0 80 62 00
        E 0 80 54 00
        E 0 80 55 00
        E 0 80 48 00
        E 0 80 49 00
        E 0 80 3c 00
        E 180 90 60 60
        E 0 90 61 60
        E 0 90 62 60
        E 0 90 54 60
        E 0 90 55 60
        E 0 90 48 60
        E 0 90 49 60
        E 60 80 60 00
        E 0 80 61 00
        E 0 80 62 00
        E 0 80 54 00
        E 0 80 55 00
        E 0 80 48 00
        E 0 80 49 00
        E 180 90 60 60
        E 0 90 61 60
        E 0 90 62 60
        E 0 90 54 60
        E 0 90 55 60
        E 0 90 48 60
        E 0 90 49 60
        E 0 90 3c 60
        E 60 80 60 00
        E 0 80 61 00
        E 0 80 62 00
        E 0 80 54 00
        E 0 80 55 00
        E 0 80 48 00
        E 0 80 49 00
        E 0 80 3c 00
        E 180 90 60 60
        E 0 90 61 60
        E 0 90 62 60
        E 0 90 54 60
        E 0 90 55 60
        E 0 90 48 60
        E 0 90 49 60
        E 60 80 60 00
        E 0 80 61 00
        E 0 80 62 00
        E 0 80 54 00
        E 0 80 55 00
        E 0 80 48 00
        E 0 80 49 00
        E 60 90 60 60
        E 0 90 61 60
        E 0 90 62 60
        E 60 80 60 00
        E 0 80 61 00
        E 0 80 62 00
        E 60 90 60 60
        E 0 90 61 60
        E 0 90 62 60
        E 0 90 54 60
        E 0 90 55 60
        E 0 90 48 60
        E 0 90 49 60
        E 0 90 3c 60
        E 60 80 60 00
        E 0 80 61 00
        E 0 80 62 00
        E 0 80 54 00
        E 0 80 55 00
        E 0 80 48 00
        E 0 80 49 00
        E 0 80 3c 00
        E 180 90 62 60
        E 0 90 63 60
        E 0 90 64 60
        E 0 90 57 60
        E 0 90 58 60
        E 60 80 62 00
        E 0 80 63 00
        E 0 80 64 00
        E 0 80 57 00
        E 0 80 58 00
        E 180 90 62 60
        E 0 90 63 60
        E 0 90 64 60
        E 0 90 57 60
        E 0 90 58 60
        E 0 90 4b 60
        E 0 90 4c 60
        E 60 80 62 00
        E 0 80 63 00
        E 0 80 64 00
        E 0 80 57 00
        E 0 80 58 00
        E 0 80 4b 00
        E 0 80 4c 00
        E 180 90 62 60
        E 0 90 63 60
        E 0 90 64 60
        E 0 90 57 60
        E 0 90 58 60
        E 0 90 4b 60
        E 0 90 4c 60
        E 60 80 62 00
        E 0 80 63 00
        E 0 80 64 00
        E 0 80 57 00
        E 0 80 58 00
        E 0 80 4b 00
        E 0 80 4c 00
        E 180 90 62 60
        E 0 90 63 60
        E 0 90 64 60
        E 0 90 57 60
        E 0 90 58 60
        E 0 90 4b 60
        E 0 90 4c 60
        E 0 90 3e 60
        E 60 80 62 00
        E 0 80 63 00
        E 0 80 64 00
        E 0 80 57 00
        E 0 80 58 00
        E 0 80 4b 00
        E 0 80 4c 00
        E 0 80 3e 00
        E 180 90 62 60
        E 0 90 63 60
        E 0 90 64 60
        E 0 90 57 60
        E 0 90 58 60
        E 0 90 4b 60
        E 0 90 4c 60
        E 60 80 62 00
        E 0 80 63 00
        E 0 80 64 00
        E 0 80 57 00
        E 0 80 58 00
        E 0 80 4b 00
        E 0 80 4c 00
        E 180 90 62 60
        E 0 90 63 60
        E 0 90 64 60
        E 0 90 57 60
        E 0 90 58 60
        E 0 90 4b 60
        E 0 90 4c 60
        E 0 90 3e 60
        E 60 80 62 00
        E 0 80 63 00
        E 0 80 64 00
        E 0 80 57 00
        E 0 80 58 00
        E 0 80 4b 00
        E 0 80 4c 00
        E 0 80 3e 00
        E 180 90 62 60
        E 0 90 63 60
        E 0 90 64 60
        E 0 90 57 60
        E 0 90 58 60
        E 0 90 4b 60
        E 0 90 4c 60
        E 60 80 62 00
        E 0 80 63 00
        E 0 80 64 00
        E 0 80 57 00
        E 0 80 58 00
        E 0 80 4b 00
        E 0 80 4c 00
        E 180 90 62 60
        E 0 90 63 60
        E 0 90 64 60
        E 0 90 57 60
        E 0 90 58 60
        E 0 90 4b 60
        E 0 90 4c 60
        E 0 90 3e 60
        E 60 80 62 00
        E 0 80 63 00
        E 0 80 64 00
        E 0 80 57 00
        E 0 80 58 00
        E 0 80 4b 00
        E 0 80 4c 00
        E 0 80 3e 00
        E 180 90 62 60
        E 0 90 63 60
        E 0 90 64 60
        E 0 90 57 60
        E 0 90 58 60
        E 0 90 4b 60
        E 0 90 4c 60
        E 60 80 62 00
        E 0 80 63 00
        E 0 80 64 00
        E 0 80 57 00
        E 0 80 58 00
        E 0 80 4b 00
        E 0 80 4c 00
        E 180 90 62 60
        E 0 90 63 60
        E 0 90 64 60
        E 0 90 57 60
        E 0 90 58 60
        E 0 90 4b 60
        E 0 90 4c 60
        E 0 90 3e 60
        E 60 80 62 00
        E 0 80 63 00
        E 0 80 64 00
        E 0 80 57 00
        E 0 80 58 00
        E 0 80 4b 00
        E 0 80 4c 00
        E 0 80 3e 00
        E 180 90 62 60
        E 0 90 63 60
        E 0 90 64 60
        E 0 90 57 60
        E 0 90 58 60
        E 0 90 4b 60
        E 0 90 4c 60
        E 60 80 62 00
        E 0 80 63 00
        E 0 80 64 00
        E 0 80 57 00
        E 0 80 58 00
        E 0 80 4b 00
        E 0 80 4c 00
        E 180 90 62 60
        E 0 90 63 60
        E 0 90 64 60
        E 0 90 57 60
        E 0 90 58 60
        E 0 90 4b 60
        E 0 90 4c 60
        E 0 90 3e 60
        E 60 80 62 00
        E 0 80 63 00
        E 0 80 64 00
        E 0 80 57 00
        E 0 80 58 00
        E 0 80 4b 00
        E 0 80 4c 00
        E 0 80 3e 00
        E 180 90 62 60
        E 0 90 63 60
        E 0 90 64 60
        E 0 90 57 60
        E 0 90 58 60
        E 0 90 4b 60
        E 0 90 4c 60
        E 60 80 62 00
        E 0 80 63 00
        E 0 80 64 00
        E 0 80 57 00
        E 0 80 58 00
        E 0 80 4b 00
        E 0 80 4c 00
        E 180 90 62 60
        E 0 90 63 60
        E 0 90 64 60
        E 0 90 57 60
        E 0 90 58 60
        E 0 90 4b 60
        E 0 90 4c 60
        E 0 90 3e 60
        E 60 80 62 00
        E 0 80 63 00
        E 0 80 64 00
        E 0 80 57 00
        E 0 80 58 00
        E 0 80 4b 00
        E 0 80 4c 00
        E 0 80 3e 00
        E 180 90 62 60
        E 0 90 63 60
        E 0 90 64 60
        E 0 90 57 60
        E 0 90 58 60
        E 0 90 4b 60
        E 0 90 4c 60
        E 60 80 62 00
        E 0 80 63 00
        E 0 80 64 00
        E 0 80 57 00
        E 0 80 58 00
        E 0 80 4b 00
        E 0 80 4c 00
        E 60 90 62 60
        E 0 90 63 60
        E 0 90 64 60
        E 60 80 62 00
        E 0 80 63 00
        E 0 80 64 00
        E 60 90 62 60
        E 0 90 63 60
        E 0 90 64 60
        E 0 90 57 60
        E 0 90 58 60
        E 0 90 4b 60
        E 0 90 4c 60
        E 0 90 3e 60
        E 60 80 62 00
        E 0 80 63 00
        E 0 80 64 00
        E 0 80 57 00
        E 0 80 58 00
        E 0 80 4b 00
        E 0 80 4c 00
        E 0 80 3e 00
        E 180 90 61 60
        E 0 90 63 60
        E 0 90 64 60
        E 0 90 56 60
        E 0 90 58 60
        E 60 80 61 00
        E 0 80 63 00
        E 0 80 64 00
        E 0 80 56 00
        E 0 80 58 00
        E 180 90 61 60
        E 0 90 63 60
        E 0 90 64 60
        E 0 90 56 60
        E 0 90 58 60
        E 0 90 4a 60
        E 0 90 4b 60
        E 60 80 61 00
        E 0 80 63 00
        E 0 80 64 00
        E 0 80 56 00
        E 0 80 58 00
        E 0 80 4a 00
        E 0 80 4b 00
        E 180 90 61 60
        E 0 90 63 60
        E 0 90 64 60
        E 0 90 56 60
        E 0 90 58 60
        E 0 90 4a 60
        E 0 90 4b 60
        E 60 80 61 00
        E 0 80 63 00
        E 0 80 64 00
        E 0 80 56 00
        E 0 80 58 00
        E 0 80 4a 00
        E 0 80 4b 00
        E 180 90 61 60
        E 0 90 63 60
        E 0 90 64 60
        E 0 90 56 60
        E 0 90 58 60
        E 0 90 4a 60
        E 0 90 4b 60
        E 0 90 3e 60
        E 60 80 61 00
        E 0 80 63 00
        E 0 80 64 00
        E 0 80 56 00
        E 0 80 58 00
        E 0 80 4a 00
        E 0 80 4b 00
        E 0 80 3e 00
        E 180 90 61 60
        E 0 90 63 60
        E 0 90 64 60
        E 0 90 56 60
        E 0 90 58 60
        E 0 90 4a 60
        E 0 90 4b 60
        E 60 80 61 00
        E 0 80 63 00
        E 0 80 64 00
        E 0 80 56 00
        E 0 80 58 00
        E 0 80 4a 00
        E 0 80 4b 00
        E 180 90 61 60
        E 0 90 63 60
        E 0 90 64 60
        E 0 90 56 60
        E 0 90 58 60
        E 0 90 4a 60
        E 0 90 4b 60
        E 0 90 3e 60
        E 60 80 61 00
        E 0 80 63 00
        E 0 80 64 00
        E 0 80 56 00
        E 0 80 58 00
        E 0 80 4a 00
        E 0 80 4b 00
        E 0 80 3e 00
        E 180 90 61 60
        E 0 90 63 60
        E 0 90 64 60
        E 0 90 56 60
        E 0 90 58 60
        E 0 90 4a 60
        E 0 90 4b 60
        E 60 80 61 00
        E 0 80 63 00
        E 0 80 64 00
        E 0 80 56 00
        E 0 80 58 00
        E 0 80 4a 00
        E 0 80 4b 00
        E 180 90 61 60
        E 0 90 63 60
        E 0 90 64 60
        E 0 90 56 60
        E 0 90 58 60
        E 0 90 4a 60
        E 0 90 4b 60
        E 0 90 3e 60
        E 60 80 61 00
        E 0 80 63 00
        E 0 80 64 00
        E 0 80 56 00
        E 0 80 58 00
        E 0 80 4a 00
        E 0 80 4b 00
        E 0 80 3e 00
        E 180 90 61 60
        E 0 90 63 60
        E 0 90 64 60
        E 0 90 56 60
        E 0 90 58 60
        E 0 90 4a 60
        E 0 90 4b 60
        E 60 80 61 00
        E 0 80 63 00
        E 0 80 64 00
        E 0 80 56 00
        E 0 80 58 00
        E 0 80 4a 00
        E 0 80 4b 00
        E 180 90 61 60
        E 0 90 63 60
        E 0 90 64 60
        E 0 90 56 60
        E 0 90 58 60
        E 0 90 4a 60
        E 0 90 4b 60
        E 0 90 3e 60
        E 60 80 61 00
        E 0 80 63 00
        E 0 80 64 00
        E 0 80 56 00
        E 0 80 58 00
        E 0 80 4a 00
        E 0 80 4b 00
        E 0 80 3e 00
        E 180 90 61 60
        E 0 90 63 60
        E 0 90 64 60
        E 0 90 56 60
        E 0 90 58 60
        E 0 90 4a 60
        E 0 90 4b 60
        E 60 80 61 00
        E 0 80 63 00
        E 0 80 64 00
        E 0 80 56 00
        E 0 80 58 00
        E 0 80 4a 00
        E 0 80 4b 00
        E 180 90 61 60
        E 0 90 63 60
        E 0 90 64 60
        E 0 90 56 60
        E 0 90 58 60
        E 0 90 4a 60
        E 0 90 4b 60
        E 0 90 3e 60
        E 60 80 61 00
        E 0 80 63 00
        E 0 80 64 00
        E 0 80 56 00
        E 0 80 58 00
        E 0 80 4a 00
        E 0 80 4b 00
        E 0 80 3e 00
        E 180 90 61 60
        E 0 90 63 60
        E 0 90 64 60
        E 0 90 56 60
        E 0 90 58 60
        E 0 90 4a 60
        E 0 90 4b 60
        E 60 80 61 00
        E 0 80 63 00
        E 0 80 64 00
        E 0 80 56 00
        E 0 80 58 00
        E 0 80 4a 00
        E 0 80 4b 00
        E 180 90 61 60
        E 0 90 63 60
        E 0 90 64 60
        E 0 90 56 60
        E 0 90 58 60
        E 0 90 4a 60
        E 0 90 4b 60
        E 0 90 3e 60
        E 60 80 61 00
        E 0 80 63 00
        E 0 80 64 00
        E 0 80 56 00
        E 0 80 58 00
        E 0 80 4a 00
        E 0 80 4b 00
        E 0 80 3e 00
        E 180 90 61 60
        E 0 90 63 60
        E 0 90 64 60
        E 0 90 56 60
        E 0 90 58 60
        E 0 90 4a 60
        E 0 90 4b 60
        E 60 80 61 00
        E 0 80 63 00
        E 0 80 64 00
        E 0 80 56 00
        E 0 80 58 00
        E 0 80 4a 00
        E 0 80 4b 00
        E 60 90 61 60
        E 0 90 63 60
        E 0 90 64 60
        E 60 80 61 00
        E 0 80 63 00
        E 0 80 64 00
        E 60 90 61 60
        E 0 90 63 60
        E 0 90 64 60
        E 0 90 56 60
        E 0 90 58 60
        E 0 90 4a 60
        E 0 90 4b 60
        E 0 90 3e 60
        E 60 80 61 00
        E 0 80 63 00
        E 0 80 64 00
        E 0 80 56 00
        E 0 80 58 00
        E 0 80 4a 00
        E 0 80 4b 00
        E 0 80 3e 00
        E 180 90 62 60
        E 0 90 63 60
        E 0 90 64 60
        E 0 90 57 60
        E 0 90 58 60
        E 60 80 62 00
        E 0 80 63 00
        E 0 80 64 00
        E 0 80 57 00
        E 0 80 58 00
        E 180 90 62 60
        E 0 90 63 60
        E 0 90 64 60
        E 0 90 57 60
        E 0 90 58 60
        E 0 90 4b 60
        E 0 90 4c 60
        E 60 80 62 00
        E 0 80 63 00
        E 0 80 64 00
        E 0 80 57 00
        E 0 80 58 00
        E 0 80 4b 00
        E 0 80 4c 00
        E 180 90 62 60
        E 0 90 63 60
        E 0 90 64 60
        E 0 90 57 60
        E 0 90 58 60
        E 0 90 4b 60
        E 0 90 4c 60
        E 60 80 62 00
        E 0 80 63 00
        E 0 80 64 00
        E 0 80 57 00
        E 0 80 58 00
        E 0 80 4b 00
        E 0 80 4c 00
        E 180 90 62 60
        E 0 90 63 60
        E 0 90 64 60
        E 0 90 57 60
        E 0 90 58 60
        E 0 90 4b 60
        E 0 90 4c 60
        E 0 90 3e 60
        E 60 80 62 00
        E 0 80 63 00
        E 0 80 64 00
        E 0 80 57 00
        E 0 80 58 00
        E 0 80 4b 00
        E 0 80 4c 00
        E 0 80 3e 00
        E 180 90 62 60
        E 0 90 63 60
        E 0 90 64 60
        E 0 90 57 60
        E 0 90 58 60
        E 0 90 4b 60
        E 0 90 4c 60
        E 60 80 62 00
        E 0 80 63 00
        E 0 80 64 00
        E 0 80 57 00
        E 0 80 58 00
        E 0 80 4b 00
        E 0 80 4c 00
        E 180 90 62 60
        E 0 90 63 60
        E 0 90 64 60
        E 0 90 57 60
        E 0 90 58 60
        E 0 90 4b 60
        E 0 90 4c 60
        E 0 90 3e 60
        E 60 80 62 00
        E 0 80 63 00
        E 0 80 64 00
        E 0 80 57 00
        E 0 80 58 00
        E 0 80 4b 00
        E 0 80 4c 00
        E 0 80 3e 00
        E 180 90 62 60
        E 0 90 63 60
        E 0 90 64 60
        E 0 90 57 60
        E 0 90 58 60
        E 0 90 4b 60
        E 0 90 4c 60
        E 60 80 62 00
        E 0 80 63 00
        E 0 80 64 00
        E 0 80 57 00
        E 0 80 58 00
        E 0 80 4b 00
        E 0 80 4c 00
        E 180 90 62 60
        E 0 90 63 60
        E 0 90 64 60
        E 0 90 74 60
        E 0 90 57 60
        E 0 90 58 60
        E 0 90 4b 60
        E 0 90 4c 60
        E 0 90 3e 60
        E 60 80 62 00
        E 0 80 63 00
        E 0 80 64 00
        E 0 80 57 00
        E 0 80 58 00
        E 0 80 4b 00
        E 0 80 4c 00
        E 0 80 3e 00
        E 180 90 62 60
        E 0 90 63 60
        E 0 90 64 60
        E 0 90 57 60
        E 0 90 58 60
        E 0 90 4b 60
        E 0 90 4c 60
        E 60 80 62 00
        E 0 80 63 00
        E 0 80 64 00
        E 0 80 57 00
        E 0 80 58 00
        E 0 80 4b 00
        E 0 80 4c 00
        E 180 90 62 60
        E 0 90 63 60
        E 0 90 64 60
        E 0 90 57 60
        E 0 90 58 60
        E 0 90 4b 60
        E 0 90 4c 60
        E 0 90 3e 60
        E 60 80 62 00
        E 0 80 63 00
        E 0 80 64 00
        E 0 80 57 00
        E 0 80 58 00
        E 0 80 4b 00
        E 0 80 4c 00
        E 0 80 3e 00
        E 180 90 62 60
        E 0 90 63 60
        E 0 90 64 60
        E 0 90 57 60
        E 0 90 58 60
        E 0 90 4b 60
        E 0 90 4c 60
        E 60 80 62 00
        E 0 80 63 00
        E 0 80 64 00
        E 0 80 57 00
        E 0 80 58 00
        E 0 80 4b 00
        E 0 80 4c 00
        E 180 90 62 60
        E 0 90 63 60
        E 0 90 64 60
        E 0 90 57 60
        E 0 90 58 60
        E 0 90 4b 60
        E 0 90 4c 60
        E 0 90 3e 60
        E 60 80 62 00
        E 0 80 63 00
        E 0 80 64 00
        E 0 80 57 00
        E 0 80 58 00
        E 0 80 4b 00
        E 0 80 4c 00
        E 0 80 3e 00
        E 180 90 62 60
        E 0 90 63 60
        E 0 90 64 60
        E 0 90 57 60
        E 0 90 58 60
        E 0 90 4b 60
        E 0 90 4c 60
        E 60 80 62 00
        E 0 80 63 00
        E 0 80 64 00
        E 0 80 57 00
        E 0 80 58 00
        E 0 80 4b 00
        E 0 80 4c 00
        E 180 90 62 60
        E 0 90 63 60
        E 0 90 64 60
        E 0 90 57 60
        E 0 90 58 60
        E 0 90 4b 60
        E 0 90 4c 60
        E 0 90 3e 60
        E 60 80 62 00
        E 0 80 63 00
        E 0 80 64 00
        E 0 80 57 00
        E 0 80 58 00
        E 0 80 4b 00
        E 0 80 4c 00
        E 0 80 3e 00
        E 180 90 62 60
        E 0 90 63 60
        E 0 90 64 60
        E 0 90 57 60
        E 0 90 58 60
        E 0 90 4b 60
        E 0 90 4c 60
        E 60 80 62 00
        E 0 80 63 00
        E 0 80 64 00
        E 0 80 57 00
        E 0 80 58 00
        E 0 80 4b 00
        E 0 80 4c 00
        E 60 90 62 60
        E 0 90 63 60
        E 0 90 64 60
        E 60 80 62 00
        E 0 80 63 00
        E 0 80 64 00
        E 60 90 62 60
        E 0 90 63 60
        E 0 90 64 60
        E 0 90 57 60
        E 0 90 58 60
        E 0 90 4b 60
        E 0 90 4c 60
        E 0 90 3e 60
        E 60 80 62 00
        E 0 80 63 00
        E 0 80 64 00
        E 0 80 57 00
        E 0 80 58 00
        E 0 80 4b 00
        E 0 80 4c 00
        E 0 80 3e 00
        E 180 90 60 60
        E 0 90 61 60
        E 0 90 62 60
        E 0 90 54 60
        E 0 90 55 60
        E 60 80 60 00
        E 0 80 61 00
        E 0 80 62 00
        E 0 80 54 00
        E 0 80 55 00
        E 180 90 60 60
        E 0 90 61 60
        E 0 90 62 60
        E 0 90 54 60
        E 0 90 55 60
        E 0 90 48 60
        E 0 90 49 60
        E 60 80 60 00
        E 0 80 61 00
        E 0 80 62 00
        E 0 80 54 00
        E 0 80 55 00
        E 0 80 48 00
        E 0 80 49 00
        E 180 90 60 60
        E 0 90 61 60
        E 0 90 62 60
        E 0 90 54 60
        E 0 90 55 60
        E 0 90 48 60
        E 0 90 49 60
        E 60 80 60 00
        E 0 80 61 00
        E 0 80 62 00
        E 0 80 54 00
        E 0 80 55 00
        E 0 80 48 00
        E 0 80 49 00
        E 180 90 60 60
        E 0 90 61 60
        E 0 90 62 60
        E 0 90 54 60
        E 0 90 55 60
        E 0 90 48 60
        E 0 90 49 60
        E 0 90 3c 60
        E 60 80 60 00
        E 0 80 61 00
        E 0 80 62 00
        E 0 80 54 00
        E 0 80 55 00
        E 0 80 48 00
        E 0 80 49 00
        E 0 80 3c 00
        E 180 90 60 60
        E 0 90 61 60
        E 0 90 62 60
        E 0 90 54 60
        E 0 90 55 60
        E 0 90 48 60
        E 0 90 49 60
        E 60 80 60 00
        E 0 80 61 00
        E 0 80 62 00
        E 0 80 54 00
        E 0 80 55 00
        E 0 80 48 00
        E 0 80 49 00
        E 180 90 60 60
        E 0 90 61 60
        E 0 90 62 60
        E 0 90 54 60
        E 0 90 55 60
        E 0 90 48 60
        E 0 90 49 60
        E 0 90 3c 60
        E 60 80 60 00
        E 0 80 61 00
        E 0 80 62 00
        E 0 80 54 00
        E 0 80 55 00
        E 0 80 48 00
        E 0 80 49 00
        E 0 80 3c 00
        E 180 90 60 60
        E 0 90 61 60
        E 0 90 62 60
        E 0 90 54 60
        E 0 90 55 60
        E 0 90 48 60
        E 0 90 49 60
        E 60 80 60 00
        E 0 80 61 00
        E 0 80 62 00
        E 0 80 54 00
        E 0 80 55 00
        E 0 80 48 00
        E 0 80 49 00
        E 180 90 60 60
        E 0 90 61 60
        E 0 90 62 60
        E 0 90 54 60
        E 0 90 55 60
        E 0 90 48 60
        E 0 90 49 60
        E 0 90 3c 60
        E 60 80 60 00
        E 0 80 61 00
        E 0 80 62 00
        E 0 80 54 00
        E 0 80 55 00
        E 0 80 48 00
        E 0 80 49 00
        E 0 80 3c 00
        E 180 90 60 60
        E 0 90 61 60
        E 0 90 62 60
        E 0 90 54 60
        E 0 90 55 60
        E 0 90 48 60
        E 0 90 49 60
        E 60 80 60 00
        E 0 80 61 00
        E 0 80 62 00
        E 0 80 54 00
        E 0 80 55 00
        E 0 80 48 00
        E 0 80 49 00
        E 180 90 60 60
        E 0 90 61 60
        E 0 90 62 60
        E 0 90 54 60
        E 0 90 55 60
        E 0 90 48 60
        E 0 90 49 60
        E 0 90 3c 60
        E 60 80 74 00
        E 0 80 60 00
        E 0 80 61 00
        E 0 80 62 00
        E 0 80 54 00
        E 0 80 55 00
        E 0 80 48 00
        E 0 80 49 00
        E 0 80 3c 00
        E 180 90 60 60
        E 0 90 61 60
        E 0 90 62 60
        E 0 90 54 60
        E 0 90 55 60
        E 0 90 48 60
        E 0 90 49 60
        E 60 80 60 00
        E 0 80 61 00
        E 0 80 62 00
        E 0 80 54 00
        E 0 80 55 00
        E 0 80 48 00
        E 0 80 49 00
        E 180 90 60 60
        E 0 90 61 60
        E 0 90 62 60
        E 0 90 54 60
        E 0 90 55 60
        E 0 90 48 60
        E 0 90 49 60
        E 0 90 3c 60
        E 60 80 60 00
        E 0 80 61 00
        E 0 80 62 00
        E 0 80 54 00
        E 0 80 55 00
        E 0 80 48 00
        E 0 80 49 00
        E 0 80 3c 00
        E 180 90 60 60
        E 0 90 61 60
        E 0 90 62 60
        E 0 90 54 60
        E 0 90 55 60
        E 0 90 48 60
        E 0 90 49 60
        E 60 80 60 00
        E 0 80 61 00
        E 0 80 62 00
        E 0 80 54 00
        E 0 80 55 00
        E 0 80 48 00
        E 0 80 49 00
        E 180 90 60 60
        E 0 90 61 60
        E 0 90 62 60
        E 0 90 54 60
        E 0 90 55 60
        E 0 90 48 60
        E 0 90 49 60
        E 0 90 3c 60
        E 60 80 60 00
        E 0 80 61 00
        E 0 80 62 00
        E 0 80 54 00
        E 0 80 55 00
        E 0 80 48 00
        E 0 80 49 00
        E 0 80 3c 00
        E 180 90 60 60
        E 0 90 61 60
        E 0 90 62 60
        E 0 90 54 60
        E 0 90 55 60
        E 0 90 48 60
        E 0 90 49 60
        E 60 80 60 00
        E 0 80 61 00
        E 0 80 62 00
        E 0 80 54 00
        E 0 80 55 00
        E 0 80 48 00
        E 0 80 49 00
        E 60 90 60 60
        E 0 90 61 60
        E 0 90 62 60
        E 60 80 60 00
        E 0 80 61 00
        E 0 80 62 00
        E 60 90 60 60
        E 0 90 61 60
        E 0 90 62 60
        E 0 90 54 60
        E 0 90 55 60
        E 0 90 48 60
        E 0 90 49 60
        E 0 90 3c 60
        E 60 80 60 00
        E 0 80 61 00
        E 0 80 62 00
        E 0 80 54 00
        E 0 80 55 00
        E 0 80 48 00
        E 0 80 49 00
        E 0 80 3c 00
        E 180 90 62 60
        E 0 90 63 60
        E 0 90 64 60
        E 0 90 57 60
        E 0 90 58 60
        E 60 80 62 00
        E 0 80 63 00
        E 0 80 64 00
        E 0 80 57 00
        E 0 80 58 00
        E 180 90 62 60
        E 0 90 63 60
        E 0 90 64 60
        E 0 90 57 60
        E 0 90 58 60
        E 0 90 4b 60
        E 0 90 4c 60
        E 60 80 62 00
        E 0 80 63 00
        E 0 80 64 00
        E 0 80 57 00
        E 0 80 58 00
        E 0 80 4b 00
        E 0 80 4c 00
        E 180 90 62 60
        E 0 90 63 60
        E 0 90 64 60
        E 0 90 57 60
        E 0 90 58 60
        E 0 90 4b 60
        E 0 90 4c 60
        E 60 80 62 00
        E 0 80 63 00
        E 0 80 64 00
        E 0 80 57 00
        E 0 80 58 00
        E 0 80 4b 00
        E 0 80 4c 00
        E 180 90 62 60
        E 0 90 63 60
        E 0 90 64 60
        E 0 90 57 60
        E 0 90 58 60
        E 0 90 4b 60
        E 0 90 4c 60
        E 0 90 3e 60
        E 60 80 62 00
        E 0 80 63 00
        E 0 80 64 00
        E 0 80 57 00
        E 0 80 58 00
        E 0 80 4b 00
        E 0 80 4c 00
        E 0 80 3e 00
        E 180 90 62 60
        E 0 90 63 60
        E 0 90 64 60
        E 0 90 57 60
        E 0 90 58 60
        E 0 90 4b 60
        E 0 90 4c 60
        E 60 80 62 00
        E 0 80 63 00
        E 0 80 64 00
        E 0 80 57 00
        E 0 80 58 00
        E 0 80 4b 00
        E 0 80 4c 00
        E 180 90 62 60
        E 0 90 63 60
        E 0 90 64 60
        E 0 90 57 60
        E 0 90 58 60
        E 0 90 4b 60
        E 0 90 4c 60
        E 0 90 3e 60
        E 60 80 62 00
        E 0 80 63 00
        E 0 80 64 00
        E 0 80 57 00
        E 0 80 58 00
        E 0 80 4b 00
        E 0 80 4c 00
        E 0 80 3e 00
        E 180 90 62 60
        E 0 90 63 60
        E 0 90 64 60
        E 0 90 57 60
        E 0 90 58 60
        E 0 90 4b 60
        E 0 90 4c 60
        E 60 80 62 00
        E 0 80 63 00
        E 0 80 64 00
        E 0 80 57 00
        E 0 80 58 00
        E 0 80 4b 00
        E 0 80 4c 00
        E 180 90 62 60
        E 0 90 63 60
        E 0 90 64 60
        E 0 90 57 60
        E 0 90 58 60
        E 0 90 4b 60
        E 0 90 4c 60
        E 0 90 3e 60
        E 60 80 62 00
        E 0 80 63 00
        E 0 80 64 00
        E 0 80 57 00
        E 0 80 58 00
        E 0 80 4b 00
        E 0 80 4c 00
        E 0 80 3e 00
        E 180 90 62 60
        E 0 90 63 60
        E 0 90 64 60
        E 0 90 57 60
        E 0 90 58 60
        E 0 90 4b 60
        E 0 90 4c 60
        E 60 80 62 00
        E 0 80 63 00
        E 0 80 64 00
        E 0 80 57 00
        E 0 80 58 00
        E 0 80 4b 00
        E 0 80 4c 00
        E 180 90 62 60
        E 0 90 63 60
        E 0 90 64 60
        E 0 90 57 60
        E 0 90 58 60
        E 0 90 4b 60
        E 0 90 4c 60
        E 0 90 3e 60
        E 60 80 62 00
        E 0 80 63 00
        E 0 80 64 00
        E 0 80 57 00
        E 0 80 58 00
        E 0 80 4b 00
        E 0 80 4c 00
        E 0 80 3e 00
        E 180 90 62 60
        E 0 90 63 60
        E 0 90 64 60
        E 0 90 57 60
        E 0 90 58 60
        E 0 90 4b 60
        E 0 90 4c 60
        E 60 80 62 00
        E 0 80 63 00
        E 0 80 64 00
        E 0 80 57 00
        E 0 80 58 00
        E 0 80 4b 00
        E 0 80 4c 00
        E 180 90 62 60
        E 0 90 63 60
        E 0 90 64 60
        E 0 90 57 60
        E 0 90 58 60
        E 0 90 4b 60
        E 0 90 4c 60
        E 0 90 3e 60
        E 60 80 62 00
        E 0 80 63 00
        E 0 80 64 00
        E 0 80 57 00
        E 0 80 58 00
        E 0 80 4b 00
        E 0 80 4c 00
        E 0 80 3e 00
        E 180 90 62 60
        E 0 90 63 60
        E 0 90 64 60
        E 0 90 57 60
        E 0 90 58 60
        E 0 90 4b 60
        E 0 90 4c 60
        E 60 80 62 00
        E 0 80 63 00
        E 0 80 64 00
        E 0 80 57 00
        E 0 80 58 00
        E 0 80 4b 00
        E 0 80 4c 00
        E 180 90 62 60
        E 0 90 63 60
        E 0 90 64 60
        E 0 90 57 60
        E 0 90 58 60
        E 0 90 4b 60
        E 0 90 4c 60
        E 0 90 3e 60
        E 60 80 62 00
        E 0 80 63 00
        E 0 80 64 00
        E 0 80 57 00
        E 0 80 58 00
        E 0 80 4b 00
        E 0 80 4c 00
        E 0 80 3e 00
        E 180 90 62 60
        E 0 90 63 60
        E 0 90 64 60
        E 0 90 57 60
        E 0 90 58 60
        E 0 90 4b 60
        E 0 90 4c 60
        E 60 80 62 00
        E 0 80 63 00
        E 0 80 64 00
        E 0 80 57 00
        E 0 80 58 00
        E 0 80 4b 00
        E 0 80 4c 00
        E 60 90 62 60
        E 0 90 63 60
        E 0 90 64 60
        E 60 80 62 00
        E 0 80 63 00
        E 0 80 64 00
        E 60 90 62 60
        E 0 90 63 60
        E 0 90 64 60
        E 0 90 57 60
        E 0 90 58 60
        E 0 90 4b 60
        E 0 90 4c 60
        E 0 90 3e 60
        E 60 80 62 00
        E 0 80 63 00
        E 0 80 64 00
        E 0 80 57 00
        E 0 80 58 00
        E 0 80 4b 00
        E 0 80 4c 00
        E 0 80 3e 00
        E 180 90 61 60
        E 0 90 63 60
        E 0 90 64 60
        E 0 90 56 60
        E 0 90 58 60
        E 60 80 61 00
        E 0 80 63 00
        E 0 80 64 00
        E 0 80 56 00
        E 0 80 58 00
        E 180 90 61 60
        E 0 90 63 60
        E 0 90 64 60
        E 0 90 56 60
        E 0 90 58 60
        E 0 90 4a 60
        E 0 90 4b 60
        E 60 80 61 00
        E 0 80 63 00
        E 0 80 64 00
        E 0 80 56 00
        E 0 80 58 00
        E 0 80 4a 00
        E 0 80 4b 00
        E 180 90 61 60
        E 0 90 63 60
        E 0 90 64 60
        E 0 90 56 60
        E 0 90 58 60
        E 0 90 4a 60
        E 0 90 4b 60
        E 60 80 61 00
        E 0 80 63 00
        E 0 80 64 00
        E 0 80 56 00
        E 0 80 58 00
        E 0 80 4a 00
        E 0 80 4b 00
        E 180 90 61 60
        E 0 90 63 60
        E 0 90 64 60
        E 0 90 56 60
        E 0 90 58 60
        E 0 90 4a 60
        E 0 90 4b 60
        E 0 90 3e 60
        E 60 80 61 00
        E 0 80 63 00
        E 0 80 64 00
        E 0 80 56 00
        E 0 80 58 00
        E 0 80 4a 00
        E 0 80 4b 00
        E 0 80 3e 00
        E 180 90 61 60
        E 0 90 63 60
        E 0 90 64 60
        E 0 90 56 60
        E 0 90 58 60
        E 0 90 4a 60
        E 0 90 4b 60
        E 60 80 61 00
        E 0 80 63 00
        E 0 80 64 00
        E 0 80 56 00
        E 0 80 58 00
        E 0 80 4a 00
        E 0 80 4b 00
        E 180 90 61 60
        E 0 90 63 60
        E 0 90 64 60
        E 0 90 56 60
        E 0 90 58 60
        E 0 90 4a 60
        E 0 90 4b 60
        E 0 90 3e 60
        E 60 80 61 00
        E 0 80 63 00
        E 0 80 64 00
        E 0 80 56 00
        E 0 80 58 00
        E 0 80 4a 00
        E 0 80 4b 00
        E 0 80 3e 00
        E 180 90 61 60
        E 0 90 63 60
        E 0 90 64 60
        E 0 90 56 60
        E 0 90 58 60
        E 0 90 4a 60
        E 0 90 4b 60
        E 60 80 61 00
        E 0 80 63 00
        E 0 80 64 00
        E 0 80 56 00
        E 0 80 58 00
        E 0 80 4a 00
        E 0 80 4b 00
        E 180 90 61 60
        E 0 90 63 60
        E 0 90 64 60
        E 0 90 56 60
        E 0 90 58 60
        E 0 90 4a 60
        E 0 90 4b 60
        E 0 90 3e 60
        E 60 80 61 00
        E 0 80 63 00
        E 0 80 64 00
        E 0 80 56 00
        E 0 80 58 00
        E 0 80 4a 00
        E 0 80 4b 00
        E 0 80 3e 00
        E 180 90 61 60
        E 0 90 63 60
        E 0 90 64 60
        E 0 90 56 60
        E 0 90 58 60
        E 0 90 4a 60
        E 0 90 4b 60
        E 60 80 61 00
        E 0 80 63 00
        E 0 80 64 00
        E 0 80 56 00
        E 0 80 58 00
        E 0 80 4a 00
        E 0 80 4b 00
        E 180 90 61 60
        E 0 90 63 60
        E 0 90 64 60
        E 0 90 56 60
        E 0 90 58 60
        E 0 90 4a 60
        E 0 90 4b 60
        E 0 90 3e 60
        E 60 80 61 00
        E 0 80 63 00
        E 0 80 64 00
        E 0 80 56 00
        E 0 80 58 00
        E 0 80 4a 00
        E 0 80 4b 00
        E 0 80 3e 00
        E 180 90 61 60
        E 0 90 63 60
        E 0 90 64 60
        E 0 90 56 60
        E 0 90 58 60
        E 0 90 4a 60
        E 0 90 4b 60
        E 60 80 61 00
        E 0 80 63 00
        E 0 80 64 00
        E 0 80 56 00
        E 0 80 58 00
        E 0 80 4a 00
        E 0 80 4b 00
        E 180 90 61 60
        E 0 90 63 60
        E 0 90 64 60
        E 0 90 56 60
        E 0 90 58 60
        E 0 90 4a 60
        E 0 90 4b 60
        E 0 90 3e 60
        E 60 80 61 00
        E 0 80 63 00
        E 0 80 64 00
        E 0 80 56 00
        E 0 80 58 00
        E 0 80 4a 00
        E 0 80 4b 00
        E 0 80 3e 00
        E 180 90 61 60
        E 0 90 63 60
        E 0 90 64 60
        E 0 90 56 60
        E 0 90 58 60
        E 0 90 4a 60
        E 0 90 4b 60
        E 60 80 61 00
        E 0 80 63 00
        E 0 80 64 00
        E 0 80 56 00
        E 0 80 58 00
        E 0 80 4a 00
        E 0 80 4b 00
        E 180 90 61 60
        E 0 90 63 60
        E 0 90 64 60
        E 0 90 56 60
        E 0 90 58 60
        E 0 90 4a 60
        E 0 90 4b 60
        E 60 80 61 00
        E 0 80 63 00
        E 0 80 64 00
        E 0 80 56 00
        E 0 80 58 00
        E 0 80 4a 00
        E 0 80 4b 00
        E 180 90 61 60
        E 0 90 63 60
        E 0 90 64 60
        E 0 90 56 60
        E 0 90 58 60
        E 60 80 61 00
        E 0 80 63 00
        E 0 80 64 00
        E 0 80 56 00
        E 0 80 58 00
        E 180 90 61 60
        E 0 90 55 60
        E 0 90 49 60
        E 0 90 3c 60
        E 60 80 61 00
        E 0 80 55 00
        E 0 80 49 00
        E 0 80 3c 00
        E 180 90 62 60
        E 0 90 56 60
        E 60 80 62 00
        E 0 80 56 00
        E 180 90 63 60
        E 0 90 57 60
        E 0 90 4b 60
        E 120 80 57 00
        E 0 80 4b 00
        E 180 80 63 00
        E 180 90 60 60
        E 0 90 54 60
        E 0 90 48 60
        E 0 90 3c 60
        E 60 80 60 00
        E 0 80 54 00
        E 0 80 48 00
        E 0 80 3c 00
        E 180 90 61 60
        E 0 90 55 60
        E 60 80 61 00
        E 0 80 55 00
        E 180 90 60 60
        E 0 90 54 60
        E 0 90 48 60
        E 120 80 54 00
        E 0 80 48 00
        E 180 80 60 00
        E 180 90 61 60
        E 0 90 55 60
        E 0 90 49 60
        E 0 90 3c 60
        E 60 80 61 00
        E 0 80 55 00
        E 0 80 49 00
        E 0 80 3c 00
        E 180 90 62 60
        E 0 90 56 60
        E 60 80 62 00
        E 0 80 56 00
        E 180 90 63 60
        E 0 90 57 60
        E 0 90 4b 60
        E 120 80 57 00
        E 0 80 4b 00
        E 180 80 63 00
        E 180 90 61 60
        E 0 90 55 60
        E 0 90 49 60
        E 0 90 3c 60
        E 60 80 61 00
        E 0 80 55 00
        E 0 80 49 00
        E 0 80 3c 00
        E 180 90 60 60
        E 0 90 54 60
        E 60 80 60 00
        E 0 80 54 00
        E 180 90 62 60
        E 0 90 56 60
        E 0 90 4a 60
        E 120 80 56 00
        E 0 80 4a 00
        E 180 80 62 00
        E 180 90 61 60
        E 0 90 55 60
        E 0 90 49 60
        E 0 90 3c 60
        E 60 80 61 00
        E 0 80 55 00
        E 0 80 49 00
        E 0 80 3c 00
        E 180 90 60 60
        E 0 90 54 60
        E 60 80 60 00
        E 0 80 54 00
        E 180 90 61 60
        E 0 90 55 60
        E 0 90 49 60
        E 120 80 55 00
        E 0 80 49 00
        E 180 80 61 00
        E 180 90 60 60
        E 0 90 54 60
        E 0 90 48 60
        E 0 90 3c 60
        E 60 80 60 00
        E 0 80 54 00
        E 0 80 48 00
        E 0 80 3c 00
        E 180 90 61 60
        E 0 90 55 60
        E 60 80 61 00
        E 0 80 55 00
        E 180 90 62 60
        E 0 90 56 60
        E 0 90 4a 60
        E 120 80 56 00
        E 0 80 4a 00
        E 180 80 62 00
        E 180 90 63 60
        E 0 90 57 60
        E 0 90 4b 60
        E 0 90 3e 60
        E 60 80 63 00
        E 0 80 57 00
        E 0 80 4b 00
        E 0 80 3e 00
        E 180 90 61 60
        E 0 90 55 60
        E 60 80 61 00
        E 0 80 55 00
        E 180 90 62 60
        E 0 90 56 60
        E 0 90 4a 60
        E 120 80 56 00
        E 0 80 4a 00
        E 180 80 62 00
        E 180 90 61 60
        E 0 90 55 60
        E 0 90 49 60
        E 0 90 3c 60
        E 60 80 61 00
        E 0 80 55 00
        E 0 80 49 00
        E 0 80 3c 00
        E 180 90 60 60
        E 0 90 54 60
        E 60 80 60 00
        E 0 80 54 00
        E 180 90 62 60
        E 0 90 56 60
        E 0 90 4a 60
        E 120 80 56 00
        E 0 80 4a 00
        E 180 80 62 00
        E 71 90 74 67
        E 109 90 63 60
        E 0 90 57 60
        E 0 90 4b 60
        E 0 90 3e 60
        E 60 80 63 00
        E 0 80 57 00
        E 0 80 4b 00
        E 0 80 3e 00
        E 180 90 61 60
        E 0 90 55 60
        E 60 80 61 00
        E 0 80 55 00
        E 180 90 63 60
        E 0 90 57 60
        E 0 90 4b 60
        E 120 80 57 00
        E 0 80 4b 00
        E 180 80 63 00
        E 180 90 61 60
        E 0 90 55 60
        E 0 90 49 60
        E 0 90 3c 60
        E 60 80 61 00
        E 0 80 55 00
        E 0 80 49 00
        E 0 80 3c 00
        E 180 90 62 60
        E 0 90 56 60
        E 60 80 62 00
        E 0 80 56 00
        E 180 90 60 60
        E 0 90 54 60
        E 0 90 48 60
        E 120 80 54 00
        E 0 80 48 00
        E 180 80 60 00
        E 180 90 61 60
        E 0 90 55 60
        E 0 90 49 60
        E 0 90 3c 60
        E 60 80 61 00
        E 0 80 55 00
        E 0 80 49 00
        E 0 80 3c 00
        E 180 90 62 60
        E 0 90 56 60
        E 60 80 62 00
        E 0 80 56 00
        E 180 90 63 60
        E 0 90 57 60
        E 0 90 4b 60
        E 60 80 63 00
        E 0 80 57 00
        E 0 80 4b 00
        E 180 90 62 60
        E 0 90 56 60
        E 36 80 74 00
        E 24 80 62 00
        E 0 80 56 00
        E 180 90 61 60
        E 0 90 55 60
        E 0 90 49 60
        E 0 90 3c 60
        E 60 80 61 00
        E 0 80 55 00
        E 0 80 49 00
        E 0 80 3c 00
        E 180 90 60 60
        E 0 90 54 60
        E 60 80 60 00
        E 0 80 54 00
        E 180 90 62 60
        E 0 90 56 60
        E 0 90 4a 60
        E 120 80 56 00
        E 0 80 4a 00
        E 180 80 62 00
        E 180 90 61 60
        E 0 90 55 60
        E 0 90 49 60
        E 0 90 3c 60
        E 60 80 61 00
        E 0 80 55 00
        E 0 80 49 00
        E 0 80 3c 00
        E 180 90 62 60
        E 0 90 56 60
        E 60 80 62 00
        E 0 80 56 00
        E 180 90 61 60
        E 0 90 55 60
        E 0 90 49 60
        E 120 80 55 00
        E 0 80 49 00
        E 180 80 61 00
        E 180 90 62 60
        E 0 90 56 60
        E 0 90 4a 60
        E 0 90 3d 60
        E 60 80 62 00
        E 0 80 56 00
        E 0 80 4a 00
        E 0 80 3d 00
        E 180 90 63 60
        E 0 90 57 60
        E 60 80 63 00
        E 0 80 57 00
        E 180 90 62 60
        E 0 90 56 60
        E 0 90 4a 60
        E 120 80 56 00
        E 0 80 4a 00
        E 180 80 62 00
        E 180 90 63 60
        E 0 90 57 60
        E 0 90 4b 60
        E 0 90 3e 60
        E 60 80 63 00
        E 0 80 57 00
        E 0 80 4b 00
        E 0 80 3e 00
        E 180 90 61 60
        E 0 90 55 60
        E 60 80 61 00
        E 0 80 55 00
        E 180 90 62 60
        E 0 90 56 60
        E 0 90 4a 60
        E 120 80 56 00
        E 0 80 4a 00
        E 180 80 62 00
        E 180 90 61 60
        E 0 90 55 60
        E 0 90 49 60
        E 0 90 3c 60
        E 60 80 61 00
        E 0 80 55 00
        E 0 80 49 00
        E 0 80 3c 00
        E 180 90 60 60
        E 0 90 54 60
        E 60 80 60 00
        E 0 80 54 00
        E 180 90 62 60
        E 0 90 56 60
        E 0 90 4a 60
        E 1920 80 4a 00
        E 60 80 62 00
        E 0 80 56 00
        E 180 90 61 60
        E 0 90 55 60
        E 60 80 61 00
        E 0 80 55 00
        E 180 90 60 60
        E 0 90 54 60
        E 0 90 48 60
        E 0 90 3c 60
        E 60 80 60 00
        E 0 80 54 00
        E 0 80 48 00
        E 0 80 3c 00
        E 179 90 61 60
        E 0 90 55 60
        E 60 80 61 00
        E 0 80 55 00
        E 181 90 63 60
        E 0 90 57 60
        E 0 90 4b 60
        E 120 80 57 00
        E 0 80 4b 00
        E 180 80 63 00
        E 180 90 62 60
        E 0 90 56 60
        E 0 90 4a 60
        E 0 90 3d 60
        E 60 80 62 00
        E 0 80 56 00
        E 0 80 4a 00
        E 0 80 3d 00
        E 180 90 60 60
        E 0 90 54 60
        E 60 80 60 00
        E 0 80 54 00
        E 180 90 62 60
        E 0 90 56 60
        E 0 90 4a 60
        E 60 80 62 00
        E 0 80 56 00
        E 0 80 4a 00
        E 180 90 60 60
        E 0 90 54 60
        E 60 80 60 00
        E 0 80 54 00
        E 180 90 61 60
        E 0 90 55 60
        E 0 90 49 60
        E 0 90 3c 60
        E 60 80 61 00
        E 0 80 55 00
        E 0 80 49 00
        E 0 80 3c 00
        E 180 90 60 60
        E 0 90 54 60
        E 60 80 60 00
        E 0 80 54 00
        E 180 90 61 60
        E 0 90 55 60
        E 0 90 49 60
        E 0 90 3c 60
        E 60 80 61 00
        E 0 80 55 00
        E 0 80 49 00
        E 0 80 3c 00
        E 180 90 60 60
        E 0 90 54 60
        E 60 80 60 00
        E 0 80 54 00
        E 180 90 61 60
        E 0 90 55 60
        E 0 90 49 60
        E 0 90 3c 60
        E 60 80 61 00
        E 0 80 55 00
        E 0 80 49 00
        E 0 80 3c 00
        E 180 90 62 60
        E 0 90 56 60
        E 60 80 62 00
        E 0 80 56 00
        E 180 90 63 60
        E 0 90 57 60
        E 0 90 4b 60
        E 120 80 57 00
        E 0 80 4b 00
        E 180 80 63 00
        E 180 90 60 60
        E 0 90 54 60
        E 0 90 48 60
        E 0 90 3c 60
        E 60 80 60 00
        E 0 80 54 00
        E 0 80 48 00
        E 0 80 3c 00
        E 180 90 61 60
        E 0 90 55 60
        E 60 80 61 00
        E 0 80 55 00
        E 180 90 60 60
        E 0 90 54 60
        E 0 90 48 60
        E 120 80 54 00
        E 0 80 48 00
        E 180 80 60 00
        E 180 90 61 60
        E 0 90 55 60
        E 0 90 49 60
        E 0 90 3c 60
        E 60 80 61 00
        E 0 80 55 00
        E 0 80 49 00
        E 0 80 3c 00
        E 180 90 62 60
        E 0 90 56 60
        E 60 80 62 00
        E 0 80 56 00
        E 180 90 63 60
        E 0 90 57 60
        E 0 90 4b 60
        E 120 80 57 00
        E 0 80 4b 00
        E 180 80 63 00
        E 180 90 61 60
        E 0 90 55 60
        E 0 90 49 60
        E 0 90 3c 60
        E 60 80 61 00
        E 0 80 55 00
        E 0 80 49 00
        E 0 80 3c 00
        E 180 90 60 60
        E 0 90 54 60
        E 60 80 60 00
        E 0 80 54 00
        E 180 90 62 60
        E 0 90 56 60
        E 0 90 4a 60
        E 120 80 56 00
        E 0 80 4a 00
        E 180 80 62 00
        E 180 90 61 60
        E 0 90 55 60
        E 0 90 49 60
        E 0 90 3c 60
        E 60 80 61 00
        E 0 80 55 00
        E 0 80 49 00
        E 0 80 3c 00
        E 180 90 60 60
        E 0 90 54 60
        E 60 80 60 00
        E 0 80 54 00
        E 180 90 61 60
        E 0 90 55 60
        E 0 90 49 60
        E 120 80 55 00
        E 0 80 49 00
        E 180 80 61 00
        E 180 90 60 60
        E 0 90 54 60
        E 0 90 48 60
        E 0 90 3c 60
        E 60 80 60 00
        E 0 80 54 00
        E 0 80 48 00
        E 0 80 3c 00
        E 180 90 61 60
        E 0 90 55 60
        E 60 80 61 00
        E 0 80 55 00
        E 180 90 62 60
        E 0 90 56 60
        E 0 90 4a 60
        E 120 80 56 00
        E 0 80 4a 00
        E 180 80 62 00
        E 180 90 63 60
        E 0 90 57 60
        E 0 90 4b 60
        E 0 90 3e 60
        E 60 80 63 00
        E 0 80 57 00
        E 0 80 4b 00
        E 0 80 3e 00
        E 180 90 61 60
        E 0 90 55 60
        E 60 80 61 00
        E 0 80 55 00
        E 180 90 62 60
        E 0 90 56 60
        E 0 90 4a 60
        E 120 80 56 00
        E 0 80 4a 00
        E 180 80 62 00
        E 180 90 61 60
        E 0 90 55 60
        E 0 90 49 60
        E 0 90 3c 60
        E 60 80 61 00
        E 0 80 55 00
        E 0 80 49 00
        E 0 80 3c 00
        E 180 90 60 60
        E 0 90 54 60
        E 60 80 60 00
        E 0 80 54 00
        E 180 90 62 60
        E 0 90 56 60
        E 0 90 4a 60
        E 120 80 56 00
        E 0 80 4a 00
        E 180 80 62 00
        E 180 90 63 60
        E 0 90 57 60
        E 0 90 4b 60
        E 0 90 3e 60
        E 60 80 63 00
        E 0 80 57 00
        E 0 80 4b 00
        E 0 80 3e 00
        E 180 90 61 60
        E 0 90 55 60
        E 60 80 61 00
        E 0 80 55 00
        E 180 90 63 60
        E 0 90 57 60
        E 0 90 4b 60
        E 120 80 57 00
        E 0 80 4b 00
        E 180 80 63 00
        E 180 90 61 60
        E 0 90 55 60
        E 0 90 49 60
        E 0 90 3c 60
        E 60 80 61 00
        E 0 80 55 00
        E 0 80 49 00
        E 0 80 3c 00
        E 180 90 62 60
        E 0 90 56 60
        E 60 80 62 00
        E 0 80 56 00
        E 180 90 60 60
        E 0 90 54 60
        E 0 90 48 60
        E 120 80 54 00
        E 0 80 48 00
        E 180 80 60 00
        E 180 90 61 60
        E 0 90 55 60
        E 0 90 49 60
        E 0 90 3c 60
        E 60 80 61 00
        E 0 80 55 00
        E 0 80 49 00
        E 0 80 3c 00
        E 180 90 62 60
        E 0 90 56 60
        E 60 80 62 00
        E 0 80 56 00
        E 180 90 63 60
        E 0 90 57 60
        E 0 90 4b 60
        E 60 80 63 00
        E 0 80 57 00
        E 0 80 4b 00
        E 180 90 62 60
        E 0 90 56 60
        E 60 80 62 00
        E 0 80 56 00
        E 180 90 61 60
        E 0 90 55 60
        E 0 90 49 60
        E 0 90 3c 60
        E 60 80 61 00
        E 0 80 55 00
        E 0 80 49 00
        E 0 80 3c 00
        E 180 90 60 60
        E 0 90 54 60
        E 60 80 60 00
        E 0 80 54 00
        E 180 90 63 60
        E 0 90 57 60
        E 0 90 4b 60
        E 120 80 57 00
        E 0 80 4b 00
        E 180 80 63 00
        E 180 90 61 60
        E 0 90 55 60
        E 0 90 49 60
        E 0 90 3c 60
        E 60 80 61 00
        E 0 80 55 00
        E 0 80 49 00
        E 0 80 3c 00
        E 180 90 62 60
        E 0 90 56 60
        E 60 80 62 00
        E 0 80 56 00
        E 180 90 61 60
        E 0 90 55 60
        E 0 90 49 60
        E 120 80 55 00
        E 0 80 49 00
        E 180 80 61 00
        E 180 90 62 60
        E 0 90 56 60
        E 0 90 4a 60
        E 0 90 3d 60
        E 60 80 62 00
        E 0 80 56 00
        E 0 80 4a 00
        E 0 80 3d 00
        E 180 90 63 60
        E 0 90 57 60
        E 60 80 63 00
        E 0 80 57 00
        E 180 90 62 60
        E 0 90 56 60
        E 0 90 4a 60
        E 120 80 56 00
        E 0 80 4a 00
        E 180 80 62 00
        E 180 90 63 60
        E 0 90 57 60
        E 0 90 4b 60
        E 0 90 3e 60
        E 60 80 63 00
        E 0 80 57 00
        E 0 80 4b 00
        E 0 80 3e 00
        E 180 90 61 60
        E 0 90 55 60
        E 60 80 61 00
        E 0 80 55 00
        E 180 90 62 60
        E 0 90 56 60
        E 0 90 4a 60
        E 120 80 56 00
        E 0 80 4a 00
        E 180 80 62 00
        E 180 90 61 60
        E 0 90 55 60
        E 0 90 49 60
        E 0 90 3c 60
        E 60 80 61 00
        E 0 80 55 00
        E 0 80 49 00
        E 0 80 3c 00
        E 180 90 60 60
        E 0 90 54 60
        E 60 80 60 00
        E 0 80 54 00
        E 180 90 62 60
        E 0 90 74 67
        E 0 90 56 60
        E 0 90 4a 60
        E 1920 80 4a 00
        E 60 80 62 00
        E 0 80 56 00
        E 180 90 61 60
        E 0 90 55 60
        E 60 80 61 00
        E 0 80 55 00
        E 180 90 60 60
        E 0 90 54 60
        E 0 90 48 60
        E 0 90 3c 60
        E 60 80 60 00
        E 0 80 54 00
        E 0 80 48 00
        E 0 80 3c 00
        E 179 90 61 60
        E 0 90 55 60
        E 60 80 61 00
        E 0 80 55 00
        E 181 90 63 60
        E 0 90 57 60
        E 0 90 4b 60
        E 120 80 57 00
        E 0 80 4b 00
        E 180 80 63 00
        E 60 80 74 00
        E 120 90 62 60
        E 0 90 56 60
        E 0 90 4a 60
        E 0 90 3d 60
        E 60 80 62 00
        E 0 80 56 00
        E 0 80 4a 00
        E 0 80 3d 00
        E 180 90 60 60
        E 0 90 54 60
        E 60 80 60 00
        E 0 80 54 00
        E 180 90 62 60
        E 0 90 56 60
        E 0 90 4a 60
        E 60 80 62 00
        E 0 80 56 00
        E 0 80 4a 00
        E 180 90 60 60
        E 0 90 54 60
        E 60 80 60 00
        E 0 80 54 00
        E 180 90 61 60
        E 0 90 55 60
        E 0 90 49 60
        E 0 90 3c 60
        E 60 80 61 00
        E 0 80 55 00
        E 0 80 49 00
        E 0 80 3c 00
        E 180 90 60 60
        E 0 90 54 60
        E 60 80 60 00
        E 0 80 54 00
        E 180 90 61 60
        E 0 90 55 60
        E 0 90 49 60
        E 0 90 3c 60
        E 60 80 61 00
        E 0 80 55 00
        E 0 80 49 00
        E 0 80 3c 00
        E 180 90 60 60
        E 0 90 54 60
        E 60 80 60 00
        E 0 80 54 00
        E 180 90 61 60
        E 0 90 55 60
        E 0 90 49 60
        E 0 90 3c 60
        E 60 80 61 00
        E 0 80 55 00
        E 0 80 49 00
        E 0 80 3c 00
        E 180 90 62 60
        E 0 90 56 60
        E 60 80 62 00
        E 0 80 56 00
        E 180 90 63 60
        E 0 90 57 60
        E 0 90 4b 60
        E 120 80 57 00
        E 0 80 4b 00
        E 180 80 63 00
        E 180 90 60 60
        E 0 90 54 60
        E 0 90 48 60
        E 0 90 3c 60
        E 60 80 60 00
        E 0 80 54 00
        E 0 80 48 00
        E 0 80 3c 00
        E 180 90 61 60
        E 0 90 55 60
        E 60 80 61 00
        E 0 80 55 00
        E 180 90 60 60
        E 0 90 54 60
        E 0 90 48 60
        E 120 80 54 00
        E 0 80 48 00
        E 180 80 60 00
        E 180 90 61 60
        E 0 90 55 60
        E 0 90 49 60
        E 0 90 3c 60
        E 60 80 61 00
        E 0 80 55 00
        E 0 80 49 00
        E 0 80 3c 00
        E 180 90 62 60
        E 0 90 56 60
        E 60 80 62 00
        E 0 80 56 00
        E 180 90 63 60
        E 0 90 57 60
        E 0 90 4b 60
        E 120 80 57 00
        E 0 80 4b 00
        E 180 80 63 00
        E 180 90 61 60
        E 0 90 55 60
        E 0 90 49 60
        E 0 90 3c 60
        E 60 80 61 00
        E 0 80 55 00
        E 0 80 49 00
        E 0 80 3c 00
        E 180 90 60 60
        E 0 90 54 60
        E 60 80 60 00
        E 0 80 54 00
        E 180 90 62 60
        E 0 90 56 60
        E 0 90 4a 60
        E 120 80 56 00
        E 0 80 4a 00
        E 180 80 62 00
        E 180 90 61 60
        E 0 90 55 60
        E 0 90 49 60
        E 0 90 3c 60
        E 60 80 61 00
        E 0 80 55 00
        E 0 80 49 00
        E 0 80 3c 00
        E 180 90 60 60
        E 0 90 54 60
        E 60 80 60 00
        E 0 80 54 00
        E 180 90 61 60
        E 0 90 55 60
        E 0 90 49 60
        E 120 80 55 00
        E 0 80 49 00
        E 180 80 61 00
        E 180 90 60 60
        E 0 90 54 60
        E 0 90 48 60
        E 0 90 3c 60
        E 60 80 60 00
        E 0 80 54 00
        E 0 80 48 00
        E 0 80 3c 00
        E 180 90 61 60
        E 0 90 55 60
        E 60 80 61 00
        E 0 80 55 00
        E 180 90 62 60
        E 0 90 56 60
        E 0 90 4a 60
        E 120 80 56 00
        E 0 80 4a 00
        E 180 80 62 00
        E 180 90 63 60
        E 0 90 57 60
        E 0 90 4b 60
        E 0 90 3e 60
        E 60 80 63 00
        E 0 80 57 00
        E 0 80 4b 00
        E 0 80 3e 00
        E 180 90 61 60
        E 0 90 55 60
        E 60 80 61 00
        E 0 80 55 00
        E 180 90 62 60
        E 0 90 56 60
        E 0 90 4a 60
        E 120 80 56 00
        E 0 80 4a 00
        E 180 80 62 00
        E 180 90 61 60
        E 0 90 55 60
        E 0 90 49 60
        E 0 90 3c 60
        E 60 80 61 00
        E 0 80 55 00
        E 0 80 49 00
        E 0 80 3c 00
        E 180 90 60 60
        E 0 90 54 60
        E 60 80 60 00
        E 0 80 54 00
        E 180 90 62 60
        E 0 90 56 60
        E 0 90 4a 60
        E 120 80 56 00
        E 0 80 4a 00
        E 180 80 62 00
        E 180 90 63 60
        E 0 90 57 60
        E 0 90 4b 60
        E 0 90 3e 60
        E 60 80 63 00
        E 0 80 57 00
        E 0 80 4b 00
        E 0 80 3e 00
        E 180 90 61 60
        E 0 90 55 60
        E 60 80 61 00
        E 0 80 55 00
        E 180 90 63 60
        E 0 90 57 60
        E 0 90 4b 60
        E 120 80 57 00
        E 0 80 4b 00
        E 180 80 63 00
        E 180 90 61 60
        E 0 90 55 60
        E 0 90 49 60
        E 0 90 3c 60
        E 60 80 61 00
        E 0 80 55 00
        E 0 80 49 00
        E 0 80 3c 00
        E 180 90 62 60
        E 0 90 56 60
        E 60 80 62 00
        E 0 80 56 00
        E 180 90 60 60
        E 0 90 54 60
        E 0 90 48 60
        E 120 80 54 00
        E 0 80 48 00
        E 180 80 60 00
        E 180 90 61 60
        E 0 90 55 60
        E 0 90 49 60
        E 0 90 3c 60
        E 60 80 61 00
        E 0 80 55 00
        E 0 80 49 00
        E 0 80 3c 00
        E 180 90 62 60
        E 0 90 56 60
        E 60 80 62 00
        E 0 80 56 00
        E 180 90 63 60
        E 0 90 57 60
        E 0 90 4b 60
        E 60 80 63 00
        E 0 80 57 00
        E 0 80 4b 00
        E 180 90 62 60
        E 0 90 56 60
        E 60 80 62 00
        E 0 80 56 00
        E 180 90 61 60
        E 0 90 55 60
        E 0 90 49 60
        E 0 90 3c 60
        E 60 80 61 00
        E 0 80 55 00
        E 0 80 49 00
        E 0 80 3c 00
        E 180 90 60 60
        E 0 90 54 60
        E 60 80 60 00
        E 0 80 54 00
        E 180 90 62 60
        E 0 90 56 60
        E 0 90 4a 60
        E 120 80 56 00
        E 0 80 4a 00
        E 180 80 62 00
        E 180 90 61 60
        E 0 90 55 60
        E 0 90 49 60
        E 0 90 3c 60
        E 60 80 61 00
        E 0 80 55 00
        E 0 80 49 00
        E 0 80 3c 00
        E 180 90 62 60
        E 0 90 56 60
        E 60 80 62 00
        E 0 80 56 00
        E 180 90 61 60
        E 0 90 55 60
        E 0 90 49 60
        E 120 80 55 00
        E 0 80 49 00
        E 180 80 61 00
        E 180 90 62 60
        E 0 90 56 60
        E 0 90 4a 60
        E 0 90 3d 60
        E 60 80 62 00
        E 0 80 56 00
        E 0 80 4a 00
        E 0 80 3d 00
        E 180 90 63 60
        E 0 90 57 60
        E 60 80 63 00
        E 0 80 57 00
        E 180 90 62 60
        E 0 90 56 60
        E 0 90 4a 60
        E 120 80 56 00
        E 0 80 4a 00
        E 180 80 62 00
        E 180 90 63 60
        E 0 90 57 60
        E 0 90 4b 60
        E 0 90 3e 60
        E 60 80 63 00
        E 0 80 57 00
        E 0 80 4b 00
        E 0 80 3e 00
        E 180 90 61 60
        E 0 90 55 60
        E 60 80 61 00
        E 0 80 55 00
        E 180 90 62 60
        E 0 90 56 60
        E 0 90 4a 60
        E 120 80 56 00
        E 0 80 4a 00
        E 180 80 62 00
        E 180 90 61 60
        E 0 90 55 60
        E 0 90 49 60
        E 0 90 3c 60
        E 60 80 61 00
        E 0 80 55 00
        E 0 80 49 00
        E 0 80 3c 00
        E 180 90 60 60
        E 0 90 54 60
        E 60 80 60 00
        E 0 80 54 00
        E 180 90 62 60
        E 0 90 56 60
        E 0 90 4a 60
        E 1920 80 4a 00
        E 60 80 62 00
        E 0 80 56 00
        E 180 90 61 60
        E 0 90 55 60
        E 60 80 61 00
        E 0 80 55 00
        E 180 90 60 60
        E 0 90 54 60
        E 0 90 48 60
        E 0 90 3c 60
        E 60 80 60 00
        E 0 80 54 00
        E 0 80 48 00
        E 0 80 3c 00
        E 179 90 61 60
        E 0 90 55 60
        E 60 80 61 00
        E 0 80 55 00
        E 181 90 63 60
        E 0 90 57 60
        E 0 90 4b 60
        E 120 80 57 00
        E 0 80 4b 00
        E 180 80 63 00
        E 180 90 62 60
        E 0 90 56 60
        E 0 90 4a 60
        E 0 90 3d 60
        E 60 80 62 00
        E 0 80 56 00
        E 0 80 4a 00
        E 0 80 3d 00
        E 180 90 60 60
        E 0 90 54 60
        E 60 80 60 00
        E 0 80 54 00
        E 180 90 62 60
        E 0 90 56 60
        E 0 90 4a 60
        E 60 80 62 00
        E 0 80 56 00
        E 0 80 4a 00
        E 180 90 60 60
        E 0 90 54 60
        E 60 80 60 00
        E 0 80 54 00
        E 180 90 61 60
        E 0 90 55 60
        E 0 90 49 60
        E 0 90 3c 60
        E 60 80 61 00
        E 0 80 55 00
        E 0 80 49 00
        E 0 80 3c 00
        E 180 90 60 60
        E 0 90 54 60
        E 60 80 60 00
        E 0 80 54 00
        E 180 90 61 60
        E 0 90 55 60
        E 0 90 49 60
        E 0 90 3c 60
        E 60 80 61 00
        E 0 80 55 00
        E 0 80 49 00
        E 0 80 3c 00
        E 180 90 60 60
        E 0 90 54 60
        E 60 80 60 00
        E 0 80 54 00
        E 180 90 61 60
        E 0 90 55 60
        E 0 90 49 60
        E 0 90 3c 60
        E 60 80 61 00
        E 0 80 55 00
        E 0 80 49 00
        E 0 80 3c 00
        E 180 90 62 60
        E 0 90 56 60
        E 60 80 62 00
        E 0 80 56 00
        E 180 90 63 60
        E 0 90 57 60
        E 0 90 4b 60
        E 120 80 57 00
        E 0 80 4b 00
        E 180 80 63 00
        E 180 90 60 60
        E 0 90 54 60
        E 0 90 48 60
        E 0 90 3c 60
        E 60 80 60 00
        E 0 80 54 00
        E 0 80 48 00
        E 0 80 3c 00
        E 180 90 61 60
        E 0 90 55 60
        E 60 80 61 00
        E 0 80 55 00
        E 180 90 60 60
        E 0 90 54 60
        E 0 90 48 60
        E 120 80 54 00
        E 0 80 48 00
        E 180 80 60 00
        E 180 90 61 60
        E 0 90 55 60
        E 0 90 49 60
        E 0 90 3c 60
        E 60 80 61 00
        E 0 80 55 00
        E 0 80 49 00
        E 0 80 3c 00
        E 180 90 62 60
        E 0 90 56 60
        E 60 80 62 00
        E 0 80 56 00
        E 180 90 63 60
        E 0 90 57 60
        E 0 90 4b 60
        E 120 80 57 00
        E 0 80 4b 00
        E 180 80 63 00
        E 180 90 61 60
        E 0 90 55 60
        E 0 90 49 60
        E 0 90 3c 60
        E 60 80 61 00
        E 0 80 55 00
        E 0 80 49 00
        E 0 80 3c 00
        E 180 90 60 60
        E 0 90 54 60
        E 60 80 60 00
        E 0 80 54 00
        E 180 90 62 60
        E 0 90 56 60
        E 0 90 4a 60
        E 120 80 56 00
        E 0 80 4a 00
        E 180 80 62 00
        E 180 90 61 60
        E 0 90 55 60
        E 0 90 49 60
        E 0 90 3c 60
        E 60 80 61 00
        E 0 80 55 00
        E 0 80 49 00
        E 0 80 3c 00
        E 180 90 60 60
        E 0 90 54 60
        E 60 80 60 00
        E 0 80 54 00
        E 180 90 61 60
        E 0 90 55 60
        E 0 90 49 60
        E 120 80 55 00
        E 0 80 49 00
        E 180 80 61 00
        E 180 90 60 60
        E 0 90 54 60
        E 0 90 48 60
        E 0 90 3c 60
        E 60 80 60 00
        E 0 80 54 00
        E 0 80 48 00
        E 0 80 3c 00
        E 180 90 61 60
        E 0 90 55 60
        E 60 80 61 00
        E 0 80 55 00
        E 180 90 62 60
        E 0 90 56 60
        E 0 90 4a 60
        E 120 80 56 00
        E 0 80 4a 00
        E 180 80 62 00
        E 180 90 63 60
        E 0 90 57 60
        E 0 90 4b 60
        E 0 90 3e 60
        E 60 80 63 00
        E 0 80 57 00
        E 0 80 4b 00
        E 0 80 3e 00
        E 180 90 61 60
        E 0 90 55 60
        E 60 80 61 00
        E 0 80 55 00
        E 180 90 62 60
        E 0 90 56 60
        E 0 90 4a 60
        E 120 80 56 00
        E 0 80 4a 00
        E 180 80 62 00
        E 180 90 61 60
        E 0 90 55 60
        E 0 90 49 60
        E 0 90 3c 60
        E 60 80 61 00
        E 0 80 55 00
        E 0 80 49 00
        E 0 80 3c 00
        E 180 90 60 60
        E 0 90 54 60
        E 60 80 60 00
        E 0 80 54 00
        E 180 90 62 60
        E 0 90 56 60
        E 0 90 4a 60
        E 120 80 56 00
        E 0 80 4a 00
        E 180 80 62 00
        E 180 90 63 60
        E 0 90 57 60
        E 0 90 4b 60
        E 0 90 3e 60
        E 60 80 63 00
        E 0 80 57 00
        E 0 80 4b 00
        E 0 80 3e 00
        E 180 90 61 60
        E 0 90 55 60
        E 60 80 61 00
        E 0 80 55 00
        E 180 90 63 60
        E 0 90 57 60
        E 0 90 4b 60
        E 120 80 57 00
        E 0 80 4b 00
        E 180 80 63 00
        E 180 90 61 60
        E 0 90 55 60
        E 0 90 49 60
        E 0 90 3c 60
        E 60 80 61 00
        E 0 80 55 00
        E 0 80 49 00
        E 0 80 3c 00
        E 180 90 62 60
        E 0 90 56 60
        E 60 80 62 00
        E 0 80 56 00
        E 180 90 60 60
        E 0 90 54 60
        E 0 90 48 60
        E 120 80 54 00
        E 0 80 48 00
        E 180 80 60 00
        E 180 90 61 60
        E 0 90 55 60
        E 0 90 49 60
        E 0 90 3c 60
        E 60 80 61 00
        E 0 80 55 00
        E 0 80 49 00
        E 0 80 3c 00
        E 180 90 62 60
        E 0 90 56 60
        E 60 80 62 00
        E 0 80 56 00
        E 180 90 63 60
        E 0 90 57 60
        E 0 90 4b 60
        E 60 80 63 00
        E 0 80 57 00
        E 0 80 4b 00
        E 180 90 62 60
        E 0 90 56 60
        E 60 80 62 00
        E 0 80 56 00
        E 180 90 61 60
        E 0 90 55 60
        E 0 90 49 60
        E 0 90 3c 60
        E 60 80 61 00
        E 0 80 55 00
        E 0 80 49 00
        E 0 80 3c 00
        E 180 90 60 60
        E 0 90 54 60
        E 60 80 60 00
        E 0 80 54 00
        E 180 90 62 60
        E 0 90 56 60
        E 0 90 4a 60
        E 120 80 56 00
        E 0 80 4a 00
        E 180 80 62 00
        E 180 90 61 60
        E 0 90 55 60
        E 0 90 49 60
        E 0 90 3c 60
        E 60 80 61 00
        E 0 80 55 00
        E 0 80 49 00
        E 0 80 3c 00
        E 180 90 62 60
        E 0 90 56 60
        E 60 80 62 00
        E 0 80 56 00
        E 180 90 61 60
        E 0 90 55 60
        E 0 90 49 60
        E 120 80 55 00
        E 0 80 49 00
        E 180 80 61 00
        E 180 90 62 60
        E 0 90 56 60
        E 0 90 4a 60
        E 0 90 3d 60
        E 60 80 62 00
        E 0 80 56 00
        E 0 80 4a 00
        E 0 80 3d 00
        E 180 90 63 60
        E 0 90 57 60
        E 60 80 63 00
        E 0 80 57 00
        E 180 90 62 60
        E 0 90 56 60
        E 0 90 4a 60
        E 120 80 56 00
        E 0 80 4a 00
        E 180 80 62 00
        E 180 90 63 60
        E 0 90 57 60
        E 0 90 4b 60
        E 0 90 3e 60
        E 60 80 63 00
        E 0 80 57 00
        E 0 80 4b 00
        E 0 80 3e 00
        E 180 90 61 60
        E 0 90 55 60
        E 60 80 61 00
        E 0 80 55 00
        E 180 90 62 60
        E 0 90 56 60
        E 0 90 4a 60
        E 120 80 56 00
        E 0 80 4a 00
        E 180 80 62 00
        <X 480 0
          /wFbaWRsZV9yZWFsdGltZV0=
        >
        E 4846 b0 7b 00
        GUID {14D9E950-FB92-4048-8603-8FD02AE3B865}
        IGNTEMPO 0 120.00000000 4 4
        SRCCOLOR 1237
        VELLANE 132 38 60
        COLORMAP "C:\Users\wejaa\AppData\Roaming\REAPER\Data\color_maps\rockband_guitarbass.png"
        TEXTSTRINGFILE "Text Events List.txt"
        CFGEDITVIEW 128108.900099 164.467839 4 14 0 0 0
        CFGEDIT 1 1 0 0 0 1 1 1 1 1 1 0.12500000 -8 -8 1370 736 1 2 1 2 0.00000000 0 0 0 0 0.500000 1 0 1.000000 64
        KEYSNAP 0 0 "102034050607" 0 "Major"
        EVTFILTER 0 -1 -1 -1 -1 0 1 0 0 -1.00000000 -1.00000000
      >
    >
  >
  <TRACK '{C298A11E-8E06-44B8-AA31-429ECCE3F0AF}'
    NAME "PART VOCALS"
    PEAKCOL 16810239
    BEAT -1
    AUTOMODE 0
    VOLPAN 0.99997469241676 0.00000000000000 -1.00000000000000 -1.00000000000000 1.00000000000000
    MUTESOLO 0 0 0
    IPHASE 0
    ISBUS 0 0
    BUSCOMP 1 0
    SHOWINMIX 1 0.666700 0.500000 1 0.500000 -1 -1 -1
    FREEMODE 0
    SEL 0
    REC 0 4096 1 7 0 0 0
    TRACKHEIGHT 0 0
    INQ 0 0 0 0.5000000000 100 0 0 100
    NCHAN 2
    FX 1
    TRACKID {C298A11E-8E06-44B8-AA31-429ECCE3F0AF}
    PERF 0
    MIDIOUT -1
    <MIDINOTENAMES
      0 105 "Phrase Marker"
      0 84 "C5"
      0 36 "C1"
      0 83 "B"
      0 82 "Bb"
      0 81 "A"
      0 80 "G#"
      0 79 "G"
      0 78 "F#"
      0 77 "F"
      0 76 "E"
      0 75 "Eb"
      0 74 "D"
      0 73 "C#"
      0 72 "C4"
      0 71 "B"
      0 70 "Bb"
      0 69 "A"
      0 68 "G#"
      0 67 "G"
      0 66 "F#"
      0 65 "F"
      0 64 "E"
      0 63 "Eb"
      0 62 "D"
      0 61 "C#"
      0 60 "C3"
      0 59 "B"
      0 58 "Bb"
      0 57 "A"
      0 56 "G#"
      0 55 "G"
      0 54 "F#"
      0 53 "F"
      0 52 "E"
      0 51 "Eb"
      0 50 "D"
      0 49 "C#"
      0 48 "C2"
      0 47 "B"
      0 46 "Bb"
      0 45 "A"
      0 44 "G#"
      0 43 "G"
      0 42 "F#"
      0 41 "F"
      0 40 "E"
      0 39 "Eb"
      0 38 "D"
      0 37 "C#"
      0 97 "Not Displayed Percussion"
      0 96 "Displayed Percussion"
      0 104 "----"
      0 95 "----"
      0 116 "OVERDRIVE"
      0 115 "----"
      0 0 "Range Shift"
      0 1 "Lyric Shift"
    >
    MAINSEND 1 0
    <FXCHAIN
      WNDRECT 581 377 716 493
      SHOW 0
      LASTSEL 1
      DOCKED 0
      BYPASS 0 0
      <JS "IX/MIDI_Tool II" ""
        0.000000 85.000000 127.000000 0.000000 0.000000 0.000000 100.000000 0.000000 0.000000 127.000000 0.000000 0.000000 1.000000 0.000000 0.000000 - - - - - - - - - - - - - - - - - - - - - - - - - - - - - - - - - - - - - - - - - - - - - - - - - 
      >
      FLOATPOS 0 0 0 0
      FXID {CA785021-0433-497E-9A6C-EE23A1BC21B0}
      WAK 0
      BYPASS 0 0
      <VST "VSTi: ReaSynth (Cockos)" "reasynth.dll" 0 ""
        eXNlcu9e7f4AAAAAAgAAAAEAAAAAAAAAAgAAAAAAAAA4AAAAAAAAAA==
        AAAAAO++rd4N8K3eppvEOxe30ToAAAAAAAAAAAAAAACa9Q8/6WeIPQ==
        AAAAAAAAAD8AAIA/AAAAAAAAAD8AAAAAAAA=
      >
      FLOATPOS 32 32 338 405
      FXID {F124DD19-73B4-4CD5-B659-E246F2A3D0B3}
      WAK 0
    >
    <ITEM
      POSITION 0.00000000000000
      SNAPOFFS 0.00000000000000
      LENGTH 204.98454157323727
      LOOP 0
      ALLTAKES 0
      SEL 0
      FADEIN 1 0.000000 0.000000 1 0
      FADEOUT 1 0.000000 0.000000 1 0
      MUTE 0
      IGUID {9C9617EC-369A-41B9-80F6-31F4222F13F6}
      IID 10
      NAME "PART VOCALS"
      VOLPAN 1.000000 0.000000 1.000000 -1.000000
      SOFFS 0.00000000000000 0.00000000000000
      PLAYRATE 1.00000000000000 1 0.00000000000000 -65536
      CHANMODE 0
      GUID {8E872349-00D8-4243-95D7-0B92852E4EE5}
      <SOURCE MIDI
        HASDATA 1 480 QN
        POOLEDEVTS {3161EACE-6C06-4766-90FC-386380B0D1E5}
        <X 0 0
          /wNQQVJUIFZPQ0FMUw==
        >
        <X 3840 0
          /wFbaWRsZV0=
        >
        <X 5760 0
          /wFbbWVsbG93XQ==
        >
        E 1381 90 69 67
        <X 56 0
          /wVNaS0=
        >
        E 0 90 37 58
        E 165 80 37 00
        <X 68 0
          /wVuw6Q=
        >
        E 0 90 35 73
        E 148 80 35 00
        <X 74 0
          /wVzaS0=
        >
        E 0 90 35 6c
        E 211 80 35 00
        <X 57 0
          /wVudWwt
        >
        E 0 90 35 6c
        E 190 80 35 00
        <X 37 0
          /wVsZQ==
        >
        E 0 90 35 6c
        E 100 80 35 00
        <X 177 0
          /wV0ZWgt
        >
        E 0 90 32 74
        E 211 80 32 00
        <X 228 0
          /wVkw6Q=
        >
        E 0 90 30 69
        E 126 80 30 00
        <X 99 0
          /wVqb3M=
        >
        E 0 90 30 69
        E 184 80 30 00
        <X 66 0
          /wVzYWkt
        >
        E 0 90 34 6f
        E 378 80 34 00
        <X 67 0
          /wVzaW4=
        >
        E 0 90 2d 61
        E 419 80 2d 00
        E 52 80 69 00
        E 186 90 69 67
        <X 53 0
          /wVTaS0=
        >
        E 0 90 30 5e
        E 175 80 30 00
        <X 98 0
          /wV0w6Q=
        >
        E 0 90 30 3a
        E 137 80 30 00
        <X 125 0
          /wVtaS0=
        >
        E 0 90 2d 60
        E 112 80 2d 00
        <X 134 0
          /wV0w6Q=
        >
        E 0 90 2b 57
        E 104 80 2b 00
        <X 93 0
          /wVzaWwt
        >
        E 0 90 30 67
        E 430 80 30 00
        <X 107 0
          /wVsb2lu
        >
        E 0 90 30 67
        E 145 80 30 00
        <X 95 0
          /wVlbg==
        >
        E 0 90 32 67
        E 123 80 32 00
        <X 95 0
          /wVrZWgt
        >
        E 0 90 32 67
        E 216 80 32 00
        <X 242 0
          /wVkYW4t
        >
        E 0 90 32 67
        E 157 80 32 00
        <X 83 0
          /wVudXQ=
        >
        E 0 90 34 67
        E 86 80 34 00
        <X 154 0
          /wVreS0=
        >
        E 0 90 32 67
        E 150 80 32 00
        <X 82 0
          /wVzeS0=
        >
        E 0 90 34 67
        E 248 80 34 00
        <X 46 0
          /wXDpC0=
        >
        E 0 90 34 67
        E 169 80 34 00
        <X 266 0
          /wVrw6TDpG4=
        >
        E 0 90 32 67
        E 589 80 32 00
        E 44 80 69 00
        E 278 90 69 67
        <X 64 0
          /wVSaW4t
        >
        E 0 90 32 67
        E 159 80 32 00
        <X 110 0
          /wVub2lzLQ==
        >
        E 0 90 35 67
        E 147 80 35 00
        <X 80 0
          /wV0YQ==
        >
        E 0 90 34 67
        E 113 80 34 00
        <X 92 0
          /wVzdWE=
        >
        E 0 90 32 67
        E 367 80 32 00
        <X 156 0
          /wVwdS0=
        >
        E 0 90 30 67
        E 117 80 30 00
        <X 70 0
          /wVyaXMt
        >
        E 0 90 32 67
        E 159 80 32 00
        <X 120 0
          /wV0YWkt
        >
        E 0 90 34 67
        E 309 80 34 00
        <X 113 0
          /wVzaW4=
        >
        E 0 90 30 67
        E 491 80 30 00
        E 67 80 69 00
        E 412 90 69 67
        E 0 90 74 67
        <X 61 0
          /wVLdW4=
        >
        E 0 90 30 67
        E 148 80 30 00
        <X 69 0
          /wVlaQ==
        >
        E 0 90 32 67
        E 168 80 32 00
        <X 61 0
          /wVuZQ==
        >
        E 0 90 30 67
        E 120 80 30 00
        <X 148 0
          /wVwaWkt
        >
        E 0 90 2d 67
        E 333 80 2d 00
        <X 76 0
          /wVsb3Mt
        >
        E 0 90 30 67
        E 177 80 30 00
        <X 63 0
          /wVzYQ==
        >
        E 0 90 2f 67
        E 168 80 2f 00
        <X 122 0
          /wV0YWgt
        >
        E 0 90 32 67
        E 209 80 32 00
        <X 272 0
          /wV0by0=
        >
        E 0 90 32 67
        E 146 80 32 00
        <X 74 0
          /wVuZWV0
        >
        E 0 90 34 67
        E 131 80 34 00
        <X 150 0
          /wVweS0=
        >
        E 0 90 34 67
        E 119 80 34 00
        <X 78 0
          /wVzeS0=
        >
        E 0 90 32 67
        E 191 80 32 00
        <X 82 0
          /wXDpC0=
        >
        E 0 90 30 67
        E 195 80 30 00
        <X 278 0
          /wVrw6TDpG4=
        >
        E 0 90 2d 67
        E 836 80 2d 00
        E 54 80 69 00
        E 0 80 74 00
        E 257 90 69 67
        <X 53 0
          /wVTw6Q=
        >
        E 0 90 2f 67
        E 180 80 2f 00
        <X 99 0
          /wVvLQ==
        >
        E 0 90 30 67
        E 129 80 30 00
        <X 60 0
          /wVsaXQ=
        >
        E 0 90 30 67
        E 109 80 30 00
        <X 126 0
          /wVzby0=
        >
        E 0 90 30 67
        E 186 80 30 00
        <X 97 0
          /wVwaS0=
        >
        E 0 90 30 67
        E 147 80 30 00
        <X 81 0
          /wV2YXMt
        >
        E 0 90 30 67
        E 140 80 30 00
        <X 103 0
          /wV0aQ==
        >
        E 0 90 30 67
        E 138 80 30 00
        <X 106 0
          /wVsaS0=
        >
        E 0 90 32 67
        E 147 80 32 00
        <X 94 0
          /wVoYS0=
        >
        E 0 90 30 67
        E 162 80 30 00
        <X 86 0
          /wV2YQ==
        >
        E 0 90 30 67
        E 233 80 30 00
        E 82 80 69 00
        E 3428 90 69 67
        <X 56 0
          /wVTaS0=
        >
        E 0 90 34 67
        E 198 80 34 00
        <X 54 0
          /wVuw6Q=
        >
        E 0 90 34 67
        E 160 80 34 00
        <X 113 0
          /wV0eS0=
        >
        E 0 90 35 67
        E 143 80 35 00
        <X 86 0
          /wVwZS0=
        >
        E 0 90 35 67
        E 160 80 35 00
        <X 57 0
          /wVyw6Q=
        >
        E 0 90 37 67
        E 178 80 37 00
        <X 80 0
          /wVvbC0=
        >
        E 0 90 35 67
        E 408 80 35 00
        <X 65 0
          /wVsYQ==
        >
        E 0 90 34 67
        E 212 80 34 00
        <X 171 0
          /wVzYWF0
        >
        E 0 90 32 67
        E 1657 80 32 00
        E 48 80 69 00
        E 986 90 69 67
        <X 58 0
          /wVLYS0=
        >
        E 0 90 34 67
        E 157 80 34 00
        <X 67 0
          /wVuYS0=
        >
        E 0 90 34 67
        E 178 80 34 00
        <X 70 0
          /wVtYWkt
        >
        E 0 90 35 67
        E 375 80 35 00
        <X 84 0
          /wVuZW4=
        >
        E 0 90 34 67
        E 175 80 34 00
        <X 316 0
          /wVow7ZsLQ==
        >
        E 0 90 39 67
        E 384 80 39 00
        <X 83 0
          /wVtw7Y=
        >
        E 0 90 39 67
        E 184 80 39 00
        <X 79 0
          /wVuYWkt
        >
        E 0 90 3b 67
        E 399 80 3b 00
        <X 100 0
          /wVuZW4=
        >
        E 0 90 3c 67
        E 220 80 3c 00
        E 29 80 69 00
        E 37 90 69 67
        E 0 90 74 67
        <X 66 0
          /wVTdW4=
        >
        E 0 90 3c 67
        E 253 80 3c 00
        <X 83 0
          /wV0dXIt
        >
        E 0 90 3b 67
        E 166 80 3b 00
        <X 83 0
          /wVoYQ==
        >
        E 0 90 37 67
        E 154 80 37 00
        <X 87 0
          /wVvbg==
        >
        E 0 90 35 67
        E 116 80 35 00
        <X 125 0
          /wVsdXVsLQ==
        >
        E 0 90 35 67
        E 336 80 35 00
        <X 146 0
          /wVsYQ==
        >
        E 0 90 37 67
        E 138 80 37 00
        E 67 80 69 00
        E 0 80 74 00
        E 204 90 69 67
        <X 50 0
          /wVNdW4=
        >
        E 0 90 35 67
        E 147 80 35 00
        <X 96 0
          /wV0YWgt
        >
        E 0 90 35 67
        E 150 80 35 00
        <X 117 0
          /wV0by0=
        >
        E 0 90 35 67
        E 129 80 35 00
        <X 79 0
          /wV2YW4=
        >
        E 0 90 37 67
        E 138 80 37 00
        <X 121 0
          /wVrdXVsLQ==
        >
        E 0 90 35 67
        E 387 80 35 00
        <X 66 0
          /wVsYQ==
        >
        E 0 90 34 67
        E 141 80 34 00
        E 25 80 69 00
        E 21 90 69 67
        <X 41 0
          /wVKby0=
        >
        E 0 90 32 67
        E 116 80 32 00
        <X 108 0
          /wV0YWlu
        >
        E 0 90 30 67
        E 191 80 30 00
        <X 132 0
          /wVqw6RyLQ==
        >
        E 0 90 34 67
        E 340 80 34 00
        <X 108 0
          /wVrZS0=
        >
        E 0 90 35 67
        E 170 80 35 00
        <X 116 0
          /wV2w6TDpA==
        >
        E 0 90 32 67
        E 1165 80 32 00
        E 79 80 69 00
        E 1085 90 69 67
        <X 35 0
          /wVOZQ==
        >
        E 0 90 37 67
        E 94 80 37 00
        <X 95 0
          /wVzaS0=
        >
        E 0 90 37 67
        E 164 80 37 00
        <X 56 0
          /wVudW4=
        >
        E 0 90 37 67
        E 221 80 37 00
        <X 58 0
          /wVtdW8t
        >
        E 0 90 35 67
        E 383 80 35 00
        <X 99 0
          /wV0by0=
        >
        E 0 90 35 67
        E 109 80 35 00
        <X 85 0
          /wVzaQ==
        >
        E 0 90 37 67
        E 168 80 37 00
        <X 144 0
          /wVrdXIt
        >
        E 0 90 35 67
        E 363 80 35 00
        <X 99 0
          /wV2aWst
        >
        E 0 90 34 67
        E 202 80 34 00
        <X 252 0
          /wVrYWF0
        >
        E 0 90 32 67
        E 1560 80 32 00
        E 28 80 69 00
        E 758 90 69 67
        E 0 90 74 67
        <X 43 0
          /wVTYWkt
        >
        E 0 90 34 67
        E 207 80 34 00
        <X 88 0
          /wV2YXQ=
        >
        E 0 90 34 67
        E 107 80 34 00
        <X 120 0
          /wVhaS0=
        >
        E 0 90 35 67
        E 358 80 35 00
        <X 133 0
          /wVrYWFu
        >
        E 0 90 34 67
        E 167 80 34 00
        <X 101 0
          /wV2YWwt
        >
        E 0 90 39 67
        E 355 80 39 00
        <X 108 0
          /wV0YS0=
        >
        E 0 90 39 67
        E 143 80 39 00
        <X 67 0
          /wV2YW4=
        >
        E 0 90 39 67
        E 96 80 39 00
        <X 151 0
          /wVwYWkt
        >
        E 0 90 3b 67
        E 420 80 3b 00
        <X 99 0
          /wVuZWVu
        >
        E 0 90 3c 67
        E 166 80 3c 00
        E 29 80 69 00
        E 0 80 74 00
        E 228 90 69 67
        <X 62 0
          /wVLdW4=
        >
        E 0 90 3c 67
        E 126 80 3c 00
        <X 74 0
          /wVww6TDpGwt
        >
        E 0 90 39 67
        E 190 80 39 00
        <X 98 0
          /wVsZS0=
        >
        E 0 90 35 67
        E 94 80 35 00
        <X 67 0
          /wVzaQ==
        >
        E 0 90 35 67
        E 163 80 35 00
        <X 127 0
          /wVwdXMt
        >
        E 0 90 35 67
        E 284 80 35 00
        <X 198 0
          /wVraW4=
        >
        E 0 90 37 67
        E 138 80 37 00
        E 58 80 69 00
        E 240 90 69 67
        <X 50 0
          /wVOaWlu
        >
        E 0 90 35 67
        E 146 80 35 00
        <X 102 0
          /wVtdXU=
        >
        E 0 90 35 67
        E 168 80 35 00
        <X 87 0
          /wVvLQ==
        >
        E 0 90 35 67
        E 130 80 35 00
        <X 64 0
          /wVsaQ==
        >
        E 0 90 37 67
        E 138 80 37 00
        <X 121 0
          /wV0dXMt
        >
        E 0 90 35 67
        E 310 80 35 00
        <X 164 0
          /wVraW4=
        >
        E 0 90 34 67
        E 141 80 34 00
        E 25 80 69 00
        E 61 90 69 67
        <X 16 0
          /wVZaC0=
        >
        E 0 90 37 67
        E 116 80 37 00
        <X 143 0
          /wV0w6Q=
        >
        E 0 90 30 67
        E 131 80 30 00
        <X 127 0
          /wV0w6RyLQ==
        >
        E 0 90 34 67
        E 316 80 34 00
        <X 125 0
          /wVrZS0=
        >
        E 0 90 35 67
        E 170 80 35 00
        <X 92 0
          /wXDpMOk
        >
        E 0 90 32 67
        E 1293 80 32 00
        E 68 80 69 00
        E 1168 90 69 67
        E 0 90 74 67
        <X 72 0
          /wVNaS0=
        >
        E 0 90 37 58
        E 165 80 37 00
        <X 68 0
          /wVuw6Q=
        >
        E 0 90 35 73
        E 148 80 35 00
        <X 74 0
          /wVzaS0=
        >
        E 0 90 35 6c
        E 211 80 35 00
        <X 57 0
          /wVudWwt
        >
        E 0 90 35 6c
        E 190 80 35 00
        <X 37 0
          /wVsZQ==
        >
        E 0 90 35 6c
        E 100 80 35 00
        <X 163 0
          /wV0ZWgt
        >
        E 0 90 32 74
        E 225 80 32 00
        <X 228 0
          /wVkw6Q=
        >
        E 0 90 30 69
        E 126 80 30 00
        <X 99 0
          /wVqb3M=
        >
        E 0 90 30 69
        E 196 80 30 00
        <X 54 0
          /wVzYWkt
        >
        E 0 90 34 6f
        E 378 80 34 00
        <X 92 0
          /wVzaW4=
        >
        E 0 90 2d 61
        E 394 80 2d 00
        E 32 80 69 00
        E 0 80 74 00
        E 261 90 69 67
        <X 32 0
          /wVTaS0=
        >
        E 0 90 30 5e
        E 166 80 30 00
        <X 125 0
          /wV0w6Q=
        >
        E 0 90 30 3a
        E 137 80 30 00
        <X 73 0
          /wVtaS0=
        >
        E 0 90 2d 60
        E 139 80 2d 00
        <X 107 0
          /wV0w6Q=
        >
        E 0 90 2b 57
        E 104 80 2b 00
        <X 93 0
          /wVzaWwt
        >
        E 0 90 30 67
        E 430 80 30 00
        <X 107 0
          /wVsb2lu
        >
        E 0 90 30 67
        E 145 80 30 00
        <X 95 0
          /wVlbg==
        >
        E 0 90 32 67
        E 123 80 32 00
        <X 95 0
          /wVrZWgt
        >
        E 0 90 32 67
        E 216 80 32 00
        <X 242 0
          /wVkYW4t
        >
        E 0 90 32 67
        E 157 80 32 00
        <X 83 0
          /wVudXQ=
        >
        E 0 90 34 67
        E 86 80 34 00
        <X 154 0
          /wVreS0=
        >
        E 0 90 32 67
        E 150 80 32 00
        <X 82 0
          /wVzeS0=
        >
        E 0 90 34 67
        E 192 80 34 00
        <X 52 0
          /wXDpC0=
        >
        E 0 90 34 67
        E 219 80 34 00
        <X 276 0
          /wVrw6TDpG4=
        >
        E 0 90 32 67
        E 667 80 32 00
        E 18 80 69 00
        E 215 90 69 67
        <X 65 0
          /wVSaW4t
        >
        E 0 90 32 67
        E 194 80 32 00
        <X 75 0
          /wVub2lzLQ==
        >
        E 0 90 35 67
        E 147 80 35 00
        <X 80 0
          /wV0YQ==
        >
        E 0 90 34 67
        E 113 80 34 00
        <X 92 0
          /wVzdWE=
        >
        E 0 90 32 67
        E 367 80 32 00
        <X 156 0
          /wVwdS0=
        >
        E 0 90 30 67
        E 117 80 30 00
        <X 70 0
          /wVyaXMt
        >
        E 0 90 32 67
        E 159 80 32 00
        <X 120 0
          /wV0YWkt
        >
        E 0 90 34 67
        E 309 80 34 00
        <X 113 0
          /wVzaW4=
        >
        E 0 90 30 67
        E 571 80 30 00
        E 40 80 69 00
        E 368 90 69 67
        <X 52 0
          /wVLdW4=
        >
        E 0 90 30 67
        E 148 80 30 00
        <X 69 0
          /wVlaQ==
        >
        E 0 90 32 67
        E 168 80 32 00
        <X 61 0
          /wVuZQ==
        >
        E 0 90 30 67
        E 120 80 30 00
        <X 148 0
          /wVwaWkt
        >
        E 0 90 2d 67
        E 423 80 2d 00
        <X 61 0
          /wVsb3Mt
        >
        E 0 90 30 67
        E 177 80 30 00
        <X 63 0
          /wVzYQ==
        >
        E 0 90 2f 67
        E 168 80 2f 00
        <X 74 0
          /wV0YWgt
        >
        E 0 90 32 67
        E 222 80 32 00
        <X 232 0
          /wV0by0=
        >
        E 0 90 32 67
        E 146 80 32 00
        <X 74 0
          /wVuZWV0
        >
        E 0 90 34 67
        E 131 80 34 00
        <X 150 0
          /wVweS0=
        >
        E 0 90 34 67
        E 119 80 34 00
        <X 78 0
          /wVzeS0=
        >
        E 0 90 32 67
        E 191 80 32 00
        <X 82 0
          /wXDpC0=
        >
        E 0 90 30 67
        E 195 80 30 00
        <X 278 0
          /wVrw6TDpG4=
        >
        E 0 90 2d 67
        E 836 80 2d 00
        E 39 80 69 00
        E 261 90 69 67
        E 0 90 74 67
        <X 64 0
          /wVTw6Q=
        >
        E 0 90 2f 67
        E 180 80 2f 00
        <X 99 0
          /wVvLQ==
        >
        E 0 90 30 67
        E 129 80 30 00
        <X 60 0
          /wVsaXQ=
        >
        E 0 90 30 67
        E 109 80 30 00
        <X 126 0
          /wVzby0=
        >
        E 0 90 30 67
        E 186 80 30 00
        <X 97 0
          /wVwaS0=
        >
        E 0 90 30 67
        E 147 80 30 00
        <X 81 0
          /wV2YXMt
        >
        E 0 90 30 67
        E 140 80 30 00
        <X 103 0
          /wV0aQ==
        >
        E 0 90 30 67
        E 138 80 30 00
        <X 106 0
          /wVsaS0=
        >
        E 0 90 32 67
        E 147 80 32 00
        <X 94 0
          /wVoYS0=
        >
        E 0 90 30 67
        E 162 80 30 00
        <X 86 0
          /wV2YQ==
        >
        E 0 90 30 67
        E 233 80 30 00
        E 29 80 69 00
        E 0 80 74 00
        E 3238 90 69 67
        <X 106 0
          /wVFbg==
        >
        E 0 90 32 67
        E 131 80 32 00
        <X 83 0
          /wVlLQ==
        >
        E 0 90 34 67
        E 148 80 34 00
        <X 66 0
          /wVkZXM=
        >
        E 0 90 34 67
        E 141 80 34 00
        <X 121 0
          /wV0aWUt
        >
        E 0 90 37 67
        E 196 80 37 00
        <X 64 0
          /wVkw6Q=
        >
        E 0 90 35 67
        E 81 80 35 00
        <X 116 0
          /wVtaWst
        >
        E 0 90 35 67
        E 102 80 35 00
        <X 128 0
          /wVzaQ==
        >
        E 0 90 37 67
        E 165 80 37 00
        <X 130 0
          /wVraWkt
        >
        E 0 90 35 67
        E 387 80 35 00
        <X 124 0
          /wVob3Qt
        >
        E 0 90 34 67
        E 187 80 34 00
        <X 233 0
          /wV0YWE=
        >
        E 0 90 32 67
        E 1543 80 32 00
        E 48 80 69 00
        E 532 90 69 67
        <X 17 0
          /wVNdWE=
        >
        E 0 90 34 67
        E 173 80 34 00
        <X 80 0
          /wV5aC0=
        >
        E 0 90 34 67
        E 136 80 34 00
        <X 116 0
          /wV0w6Q=
        >
        E 0 90 34 67
        E 119 80 34 00
        <X 120 0
          /wVwaXQt
        >
        E 0 90 35 67
        E 156 80 35 00
        <X 320 0
          /wVrw6Q=
        >
        E 0 90 34 67
        E 133 80 34 00
        <X 143 0
          /wVrdWlu
        >
        E 0 90 39 67
        E 153 80 39 00
        <X 74 0
          /wVsZS0=
        >
        E 0 90 39 67
        E 156 80 39 00
        <X 78 0
          /wV2ZS0=
        >
        E 0 90 39 67
        E 202 80 39 00
        <X 62 0
          /wXDpA==
        >
        E 0 90 39 67
        E 112 80 39 00
        <X 87 0
          /wVuYWkt
        >
        E 0 90 3b 67
        E 407 80 3b 00
        <X 82 0
          /wVuZW4=
        >
        E 0 90 3c 67
        E 250 80 3c 00
        E 8 80 69 00
        E 445 90 69 67
        <X 30 0
          /wVKYS0=
        >
        E 0 90 39 67
        E 116 80 39 00
        <X 63 0
          /wVsYXQ=
        >
        E 0 90 35 67
        E 154 80 35 00
        <X 128 0
          /wVrdWlu
        >
        E 0 90 37 67
        E 162 80 37 00
        <X 117 0
          /wVweWwt
        >
        E 0 90 35 67
        E 348 80 35 00
        <X 109 0
          /wV2w6TDpHQ=
        >
        E 0 90 30 67
        E 254 80 30 00
        E 17 80 69 00
        E 171 90 69 67
        E 0 90 74 67
        <X 29 0
          /wVqYQ==
        >
        E 0 90 34 67
        E 118 80 34 00
        <X 102 0
          /wVyaW4t
        >
        E 0 90 35 67
        E 193 80 35 00
        <X 83 0
          /wVuYXQt
        >
        E 0 90 35 67
        E 107 80 35 00
        <X 143 0
          /wVraW4=
        >
        E 0 90 37 67
        E 164 80 37 00
        <X 121 0
          /wV5bC0=
        >
        E 0 90 35 67
        E 319 80 35 00
        <X 96 0
          /wV2w6TDpHQ=
        >
        E 0 90 34 67
        E 141 80 34 00
        E 25 80 69 00
        E 0 80 74 00
        E 59 90 69 67
        <X 45 0
          /wVKb2lzLQ==
        >
        E 0 90 32 67
        E 167 80 32 00
        <X 91 0
          /wV0YQ==
        >
        E 0 90 30 67
        E 123 80 30 00
        <X 150 0
          /wVraWluLQ==
        >
        E 0 90 34 67
        E 344 80 34 00
        <X 75 0
          /wVuaQ==
        >
        E 0 90 34 67
        E 104 80 34 00
        <X 99 0
          /wVzYWE=
        >
        E 0 90 32 67
        E 1103 80 32 00
        E 265 80 69 00
        E 1007 90 69 67
        <X 29 0
          /wVTZQ==
        >
        E 0 90 37 67
        E 180 80 37 00
        <X 77 0
          /wVuYWkt
        >
        E 0 90 37 67
        E 179 80 37 00
        <X 59 0
          /wVuZW4=
        >
        E 0 90 37 67
        E 129 80 37 00
        <X 123 0
          /wV1LQ==
        >
        E 0 90 35 67
        E 167 80 35 00
        <X 43 0
          /wVuaXMt
        >
        E 0 90 35 67
        E 166 80 35 00
        <X 53 0
          /wVzYS0=
        >
        E 0 90 35 67
        E 185 80 35 00
        <X 102 0
          /wVuaQ==
        >
        E 0 90 37 67
        E 162 80 37 00
        <X 63 0
          /wVsaWkt
        >
        E 0 90 35 67
        E 380 80 35 00
        <X 120 0
          /wVob3Qt
        >
        E 0 90 34 67
        E 152 80 34 00
        <X 307 0
          /wV0YWE=
        >
        E 0 90 32 67
        E 1252 80 32 00
        E 28 80 69 00
        E 783 90 69 67
        <X 90 0
          /wVTZQ==
        >
        E 0 90 34 67
        E 204 80 34 00
        <X 56 0
          /wVsw6Qt
        >
        E 0 90 34 67
        E 130 80 34 00
        <X 100 0
          /wVoZXM=
        >
        E 0 90 34 67
        E 149 80 34 00
        <X 84 0
          /wVzYS0=
        >
        E 0 90 35 67
        E 165 80 35 00
        <X 52 0
          /wVkYW4=
        >
        E 0 90 34 67
        E 167 80 34 00
        <X 125 0
          /wVraS0=
        >
        E 0 90 34 67
        E 100 80 34 00
        <X 79 0
          /wVsb24=
        >
        E 0 90 35 67
        E 196 80 35 00
        <X 96 0
          /wVrZWkt
        >
        E 0 90 39 67
        E 460 80 39 00
        <X 79 0
          /wVqdS0=
        >
        E 0 90 39 67
        E 98 80 39 00
        <X 104 0
          /wVrYWkt
        >
        E 0 90 3b 67
        E 393 80 3b 00
        <X 74 0
          /wVuZW4=
        >
        E 0 90 3c 67
        E 278 80 3c 00
        E 37 80 69 00
        E 324 90 69 67
        E 0 90 74 67
        <X 45 0
          /wVNdW8t
        >
        E 0 90 39 67
        E 190 80 39 00
        <X 50 0
          /wVkby0=
        >
        E 0 90 35 67
        E 120 80 35 00
        <X 109 0
          /wVrYXM=
        >
        E 0 90 35 67
        E 142 80 35 00
        <X 156 0
          /wVreWwt
        >
        E 0 90 35 67
        E 375 80 35 00
        <X 99 0
          /wVsw6Q=
        >
        E 0 90 32 67
        E 130 80 32 00
        <X 132 0
          /wVrdW4=
        >
        E 0 90 35 67
        E 153 80 35 00
        <X 64 0
          /wVlaQ==
        >
        E 0 90 35 67
        E 140 80 35 00
        <X 63 0
          /wV2YWF0LQ==
        >
        E 0 90 35 67
        E 155 80 35 00
        <X 135 0
          /wV0ZWkt
        >
        E 0 90 35 67
        E 126 80 35 00
        <X 89 0
          /wV0YQ==
        >
        E 0 90 37 67
        E 138 80 37 00
        <X 145 0
          /wV5bC0=
        >
        E 0 90 35 67
        E 373 80 35 00
        <X 62 0
          /wVsw6Q=
        >
        E 0 90 34 67
        E 141 80 34 00
        E 27 80 69 00
        E 0 80 74 00
        E 53 90 69 67
        <X 29 0
          /wVPLQ==
        >
        E 0 90 32 67
        E 129 80 32 00
        <X 48 0
          /wVsZQ==
        >
        E 0 90 32 67
        E 146 80 32 00
        <X 164 0
          /wVvbC0=
        >
        E 0 90 34 67
        E 361 80 34 00
        <X 100 0
          /wVsZW4t
        >
        E 0 90 34 67
        E 149 80 34 00
        <X 99 0
          /wVrYWFu
        >
        E 0 90 32 67
        E 1193 80 32 00
        E 38 80 69 00
        E 1319 90 69 67
        <X 79 0
          /wVNaS0=
        >
        E 0 90 37 58
        E 165 80 37 00
        <X 68 0
          /wVuw6Q=
        >
        E 0 90 35 73
        E 148 80 35 00
        <X 74 0
          /wVzaS0=
        >
        E 0 90 35 6c
        E 211 80 35 00
        <X 57 0
          /wVudWwt
        >
        E 0 90 35 6c
        E 190 80 35 00
        <X 37 0
          /wVsZQ==
        >
        E 0 90 35 6c
        E 100 80 35 00
        <X 177 0
          /wV0ZWgt
        >
        E 0 90 32 74
        E 211 80 32 00
        <X 228 0
          /wVkw6Q=
        >
        E 0 90 30 69
        E 126 80 30 00
        <X 99 0
          /wVqb3M=
        >
        E 0 90 30 69
        E 196 80 30 00
        <X 54 0
          /wVzYWkt
        >
        E 0 90 34 6f
        E 378 80 34 00
        <X 67 0
          /wVzaW4=
        >
        E 0 90 2d 61
        E 419 80 2d 00
        E 47 80 69 00
        E 168 90 69 67
        <X 76 0
          /wVTaS0=
        >
        E 0 90 30 5e
        E 175 80 30 00
        <X 98 0
          /wV0w6Q=
        >
        E 0 90 30 3a
        E 137 80 30 00
        <X 125 0
          /wVtaS0=
        >
        E 0 90 2d 60
        E 112 80 2d 00
        <X 134 0
          /wV0w6Q=
        >
        E 0 90 2b 57
        E 104 80 2b 00
        <X 93 0
          /wVzaWwt
        >
        E 0 90 30 67
        E 430 80 30 00
        <X 107 0
          /wVsb2lu
        >
        E 0 90 30 67
        E 145 80 30 00
        <X 95 0
          /wVlbg==
        >
        E 0 90 32 67
        E 123 80 32 00
        <X 95 0
          /wVrZWgt
        >
        E 0 90 32 67
        E 216 80 32 00
        <X 272 0
          /wVkYW4t
        >
        E 0 90 32 67
        E 136 80 32 00
        <X 86 0
          /wVudXQ=
        >
        E 0 90 34 67
        E 116 80 34 00
        <X 130 0
          /wVreS0=
        >
        E 0 90 32 67
        E 150 80 32 00
        <X 85 0
          /wVzeS0=
        >
        E 0 90 34 67
        E 227 80 34 00
        <X 60 0
          /wXDpC0=
        >
        E 0 90 34 67
        E 219 80 34 00
        <X 226 0
          /wVrw6TDpG4=
        >
        E 0 90 32 67
        E 620 80 32 00
        E 24 80 69 00
        E 228 90 69 67
        E 0 90 74 67
        <X 79 0
          /wVSaW4t
        >
        E 0 90 32 67
        E 159 80 32 00
        <X 110 0
          /wVub2lzLQ==
        >
        E 0 90 35 67
        E 147 80 35 00
        <X 80 0
          /wV0YQ==
        >
        E 0 90 34 67
        E 113 80 34 00
        <X 92 0
          /wVzdWE=
        >
        E 0 90 32 67
        E 367 80 32 00
        <X 156 0
          /wVwdS0=
        >
        E 0 90 30 67
        E 117 80 30 00
        <X 70 0
          /wVyaXMt
        >
        E 0 90 32 67
        E 159 80 32 00
        <X 120 0
          /wV0YWkt
        >
        E 0 90 34 67
        E 343 80 34 00
        <X 79 0
          /wVzaW4=
        >
        E 0 90 30 67
        E 524 80 30 00
        E 70 80 69 00
        E 0 80 74 00
        E 411 90 69 67
        <X 26 0
          /wVLdW4=
        >
        E 0 90 30 67
        E 148 80 30 00
        <X 69 0
          /wVlaQ==
        >
        E 0 90 32 67
        E 168 80 32 00
        <X 61 0
          /wVuZQ==
        >
        E 0 90 30 67
        E 120 80 30 00
        <X 148 0
          /wVwaWkt
        >
        E 0 90 2d 67
        E 396 80 2d 00
        <X 72 0
          /wVsb3Mt
        >
        E 0 90 30 67
        E 156 80 30 00
        <X 59 0
          /wVzYQ==
        >
        E 0 90 2f 67
        E 168 80 2f 00
        <X 119 0
          /wV0YWgt
        >
        E 0 90 32 67
        E 209 80 32 00
        <X 241 0
          /wV0by0=
        >
        E 0 90 32 67
        E 146 80 32 00
        <X 74 0
          /wVuZWV0
        >
        E 0 90 34 67
        E 158 80 34 00
        <X 123 0
          /wVweS0=
        >
        E 0 90 34 67
        E 119 80 34 00
        <X 78 0
          /wVzeS0=
        >
        E 0 90 32 67
        E 201 80 32 00
        <X 72 0
          /wXDpC0=
        >
        E 0 90 30 67
        E 195 80 30 00
        <X 278 0
          /wVrw6TDpG4=
        >
        E 0 90 2d 67
        E 903 80 2d 00
        E 20 80 69 00
        E 245 90 69 67
        <X 32 0
          /wVTw6Q=
        >
        E 0 90 2f 67
        E 180 80 2f 00
        <X 99 0
          /wVvLQ==
        >
        E 0 90 30 67
        E 129 80 30 00
        <X 73 0
          /wVsaXQ=
        >
        E 0 90 30 67
        E 109 80 30 00
        <X 113 0
          /wVzby0=
        >
        E 0 90 30 67
        E 186 80 30 00
        <X 97 0
          /wVwaS0=
        >
        E 0 90 30 67
        E 147 80 30 00
        <X 81 0
          /wV2YXMt
        >
        E 0 90 30 67
        E 140 80 30 00
        <X 103 0
          /wV0aQ==
        >
        E 0 90 30 67
        E 138 80 30 00
        <X 106 0
          /wVsaS0=
        >
        E 0 90 32 67
        E 147 80 32 00
        <X 94 0
          /wVoYS0=
        >
        E 0 90 30 67
        E 162 80 30 00
        <X 86 0
          /wV2YQ==
        >
        E 0 90 30 67
        E 233 80 30 00
        E 58 80 69 00
        E 1431 90 69 67
        <X 168 0
          /wVNaS0=
        >
        E 0 90 37 58
        E 165 80 37 00
        <X 68 0
          /wVuw6Q=
        >
        E 0 90 35 73
        E 148 80 35 00
        <X 74 0
          /wVzaS0=
        >
        E 0 90 35 6c
        E 211 80 35 00
        <X 57 0
          /wVudWwt
        >
        E 0 90 35 6c
        E 190 80 35 00
        <X 37 0
          /wVsZQ==
        >
        E 0 90 35 6c
        E 110 80 35 00
        <X 167 0
          /wV0ZWgt
        >
        E 0 90 32 74
        E 232 80 32 00
        <X 236 0
          /wVkw6Q=
        >
        E 0 90 30 69
        E 126 80 30 00
        <X 95 0
          /wVqb3M=
        >
        E 0 90 30 69
        E 171 80 30 00
        <X 73 0
          /wVzYWkt
        >
        E 0 90 34 6f
        E 359 80 34 00
        <X 88 0
          /wVzaW4=
        >
        E 0 90 2d 61
        E 415 80 2d 00
        E 23 80 69 00
        E 243 90 69 67
        <X 41 0
          /wVTaS0=
        >
        E 0 90 30 5e
        E 161 80 30 00
        <X 111 0
          /wV0w6Q=
        >
        E 0 90 30 3a
        E 149 80 30 00
        <X 106 0
          /wVtaS0=
        >
        E 0 90 2d 60
        E 112 80 2d 00
        <X 109 0
          /wV0w6Q=
        >
        E 0 90 2b 57
        E 117 80 2b 00
        <X 105 0
          /wVzaWwt
        >
        E 0 90 30 67
        E 434 80 30 00
        <X 91 0
          /wVsb2lu
        >
        E 0 90 30 67
        E 132 80 30 00
        <X 95 0
          /wVlbg==
        >
        E 0 90 32 67
        E 123 80 32 00
        <X 139 0
          /wVrZWgt
        >
        E 0 90 32 67
        E 216 80 32 00
        <X 255 0
          /wVkYW4t
        >
        E 0 90 32 67
        E 150 80 32 00
        <X 77 0
          /wVudXQ=
        >
        E 0 90 34 67
        E 99 80 34 00
        <X 156 0
          /wVreS0=
        >
        E 0 90 32 67
        E 150 80 32 00
        <X 82 0
          /wVzeS0=
        >
        E 0 90 34 67
        E 192 80 34 00
        <X 52 0
          /wXDpC0=
        >
        E 0 90 34 67
        E 219 80 34 00
        <X 234 0
          /wVrw6TDpG4=
        >
        E 0 90 32 67
        E 636 80 32 00
        E 34 80 69 00
        E 281 90 69 67
        <X 32 0
          /wVSaW4t
        >
        E 0 90 32 67
        E 159 80 32 00
        <X 92 0
          /wVub2lzLQ==
        >
        E 0 90 35 67
        E 147 80 35 00
        <X 86 0
          /wV0YQ==
        >
        E 0 90 34 67
        E 113 80 34 00
        <X 100 0
          /wVzdWE=
        >
        E 0 90 32 67
        E 376 80 32 00
        <X 141 0
          /wVwdS0=
        >
        E 0 90 30 67
        E 117 80 30 00
        <X 70 0
          /wVyaXMt
        >
        E 0 90 32 67
        E 174 80 32 00
        <X 122 0
          /wV0YWkt
        >
        E 0 90 34 67
        E 328 80 34 00
        <X 96 0
          /wVzaW4=
        >
        E 0 90 30 67
        E 531 80 30 00
        E 18 80 69 00
        E 431 90 69 67
        <X 46 0
          /wVLdW4=
        >
        E 0 90 30 67
        E 148 80 30 00
        <X 69 0
          /wVlaQ==
        >
        E 0 90 32 67
        E 168 80 32 00
        <X 61 0
          /wVuZQ==
        >
        E 0 90 30 67
        E 120 80 30 00
        <X 148 0
          /wVwaWkt
        >
        E 0 90 2d 67
        E 333 80 2d 00
        <X 76 0
          /wVsb3Mt
        >
        E 0 90 30 67
        E 177 80 30 00
        <X 63 0
          /wVzYQ==
        >
        E 0 90 2f 67
        E 168 80 2f 00
        <X 122 0
          /wV0YWgt
        >
        E 0 90 32 67
        E 209 80 32 00
        <X 272 0
          /wV0by0=
        >
        E 0 90 32 67
        E 146 80 32 00
        <X 74 0
          /wVuZWV0
        >
        E 0 90 34 67
        E 131 80 34 00
        <X 150 0
          /wVweS0=
        >
        E 0 90 34 67
        E 119 80 34 00
        <X 78 0
          /wVzeS0=
        >
        E 0 90 32 67
        E 191 80 32 00
        <X 82 0
          /wXDpC0=
        >
        E 0 90 30 67
        E 195 80 30 00
        <X 278 0
          /wVrw6TDpG4=
        >
        E 0 90 2d 67
        E 848 80 2d 00
        E 45 80 69 00
        E 115 90 69 67
        <X 165 0
          /wVTw6Q=
        >
        E 0 90 2d 67
        E 180 80 2d 00
        <X 99 0
          /wVvLQ==
        >
        E 0 90 2e 67
        E 129 80 2e 00
        <X 60 0
          /wVsaXQ=
        >
        E 0 90 30 67
        E 109 80 30 00
        <X 126 0
          /wVzby0=
        >
        E 0 90 30 67
        E 186 80 30 00
        <X 97 0
          /wVwaS0=
        >
        E 0 90 30 67
        E 147 80 30 00
        <X 81 0
          /wV2YXMt
        >
        E 0 90 30 67
        E 140 80 30 00
        <X 103 0
          /wV0aQ==
        >
        E 0 90 30 67
        E 138 80 30 00
        <X 106 0
          /wVsaS0=
        >
        E 0 90 32 67
        E 147 80 32 00
        <X 90 0
          /wVoYS0=
        >
        E 0 90 30 67
        E 162 80 30 00
        <X 86 0
          /wV2YQ==
        >
        E 0 90 30 67
        E 233 80 30 00
        E 56 80 69 00
        <X 424 0
          /wFbaWRsZV9yZWFsdGltZV0=
        >
        E 24735 b0 7b 00
        GUID {C9A1A4CA-4224-4672-91C0-075BEB2A8650}
        IGNTEMPO 0 120.00000000 4 4
        SRCCOLOR 1238
        VELLANE 132 128 128
        COLORMAP "C:\Users\me\AppData\Roaming\REAPER\Data\color_maps\rockband_vox-other.png"
        TEXTSTRINGFILE "Text Events List.txt"
        CFGEDITVIEW 104130.889320 164.467839 17 12 0 0 0
        CFGEDIT 1 1 0 0 1 1 1 1 1 0 1 0.06250000 75 0 1611 691 1 2 1 2 0.00000000 0 0 0 0 0.500000 1 0 1.000000 64
        KEYSNAP 0 0 "102034050607" 0 "Major"
        EVTFILTER 0 -1 -1 -1 -1 0 1 0 0 -1.00000000 -1.00000000
      >
    >
  >
  <TRACK '{E60BCF67-80FD-4554-840A-5B0B5C2E06A0}'
    NAME "HARM1"
    PEAKCOL 24624127
    BEAT -1
    AUTOMODE 0
    VOLPAN 1.00000000000000 0.00000000000000 -1.00000000000000 -1.00000000000000 1.00000000000000
    MUTESOLO 0 0 0
    IPHASE 0
    ISBUS 0 0
    BUSCOMP 0 0
    SHOWINMIX 1 0.666700 0.500000 1 0.500000 -1 -1 -1
    FREEMODE 0
    SEL 0
    REC 0 0 0 0 0 0 0
    TRACKHEIGHT 0 0
    INQ 0 0 0 0.5000000000 100 0 0 100
    NCHAN 2
    FX 1
    TRACKID {E60BCF67-80FD-4554-840A-5B0B5C2E06A0}
    PERF 0
    MIDIOUT -1
    <MIDINOTENAMES
      0 0 "Range Shift"
      0 1 "Lyric Shift"
      0 36 "C1"
      0 37 "C#"
      0 38 "D"
      0 39 "Eb"
      0 40 "E"
      0 41 "F"
      0 42 "F#"
      0 43 "G"
      0 44 "G#"
      0 45 "A"
      0 46 "Bb"
      0 47 "B"
      0 48 "C2"
      0 49 "C#"
      0 50 "D"
      0 51 "Eb"
      0 52 "E"
      0 53 "F"
      0 54 "F#"
      0 55 "G"
      0 56 "G#"
      0 57 "A"
      0 58 "Bb"
      0 59 "B"
      0 60 "C3"
      0 61 "C#"
      0 62 "D"
      0 63 "Eb"
      0 64 "E"
      0 65 "F"
      0 66 "F#"
      0 67 "G"
      0 68 "G#"
      0 69 "A"
      0 70 "Bb"
      0 71 "B"
      0 72 "C4"
      0 73 "C#"
      0 74 "D"
      0 75 "Eb"
      0 76 "E"
      0 77 "F"
      0 78 "F#"
      0 79 "G"
      0 80 "G#"
      0 81 "A"
      0 82 "Bb"
      0 83 "B"
      0 105 "Phrase Marker"
      0 116 "OVERDRIVE"
      0 115 "----"
      0 104 "----"
      0 97 "Not Displayed Percussion"
      0 96 "Displayed Percussion"
      0 95 "----"
      0 84 "C5"
    >
    MAINSEND 1 0
    <FXCHAIN
      WNDRECT 786 197 716 493
      SHOW 0
      LASTSEL 1
      DOCKED 0
      BYPASS 0 0
      <JS "IX/MIDI_Tool II" ""
        0.000000 85.000000 127.000000 0.000000 0.000000 0.000000 100.000000 0.000000 0.000000 127.000000 0.000000 0.000000 1.000000 0.000000 0.000000 - - - - - - - - - - - - - - - - - - - - - - - - - - - - - - - - - - - - - - - - - - - - - - - - - 
      >
      FLOATPOS 0 0 0 0
      FXID {2E79298C-F056-441C-A64B-722C2599E1AA}
      WAK 0
      BYPASS 0 0
      <VST "VSTi: ReaSynth (Cockos)" "reasynth.dll" 0 ""
        eXNlcu9e7f4AAAAAAgAAAAEAAAAAAAAAAgAAAAAAAAA4AAAAAAAAAA==
        AAAAAO++rd4N8K3eppvEOxe30ToAAAAAAAAAAAAAAACa9Q8/6WeIPQ==
        AAAAAAAAAD8AAIA/AAAAAAAAAD8AAAAAAAA=
      >
      FLOATPOS 0 0 0 0
      FXID {A391E59B-3475-47CA-9BDB-E03F3B8FF2C4}
      WAK 0
    >
    <ITEM
      POSITION 0.00000000000000
      SNAPOFFS 0.00000000000000
      LENGTH 204.98454157323775
      LOOP 0
      ALLTAKES 0
      SEL 0
      FADEIN 1 0.000000 0.000000 1 0
      FADEOUT 1 0.000000 0.000000 1 0
      MUTE 0
      IGUID {FE84F6DE-5A5E-43D1-BFBE-4632BD10F85F}
      IID 11
      NAME "HARM1 untitled MIDI item"
      VOLPAN 1.000000 0.000000 1.000000 -1.000000
      SOFFS 0.00000000000000 0.00000000000000
      PLAYRATE 1.00000000000000 1 0.00000000000000 -1
      CHANMODE 0
      GUID {188D8841-6EF7-4ADC-A9DC-A83C2882A63B}
      <SOURCE MIDI
        HASDATA 1 480 QN
        POOLEDEVTS {A3AA7B68-8748-4293-8199-202B8E53ADC6}
        <X 0 0
          /wNIQVJNMQ==
        >
        <X 3840 0
          /wFbaWRsZV0=
        >
        <X 5760 0
          /wFbbWVsbG93XQ==
        >
        E 1381 90 69 67
        <X 56 0
          /wVNaS0=
        >
        E 0 90 37 58
        E 165 80 37 00
        <X 68 0
          /wVuw6Q=
        >
        E 0 90 35 73
        E 148 80 35 00
        <X 74 0
          /wVzaS0=
        >
        E 0 90 35 6c
        E 211 80 35 00
        <X 57 0
          /wVudWwt
        >
        E 0 90 35 6c
        E 190 80 35 00
        <X 37 0
          /wVsZQ==
        >
        E 0 90 35 6c
        E 100 80 35 00
        <X 177 0
          /wV0ZWgt
        >
        E 0 90 32 74
        E 211 80 32 00
        <X 228 0
          /wVkw6Q=
        >
        E 0 90 30 69
        E 126 80 30 00
        <X 99 0
          /wVqb3M=
        >
        E 0 90 30 69
        E 184 80 30 00
        <X 66 0
          /wVzYWkt
        >
        E 0 90 34 6f
        E 378 80 34 00
        <X 67 0
          /wVzaW4=
        >
        E 0 90 2d 61
        E 419 80 2d 00
        E 52 80 69 00
        E 186 90 69 67
        <X 53 0
          /wVTaS0=
        >
        E 0 90 30 5e
        E 175 80 30 00
        <X 98 0
          /wV0w6Q=
        >
        E 0 90 30 3a
        E 137 80 30 00
        <X 125 0
          /wVtaS0=
        >
        E 0 90 2d 60
        E 112 80 2d 00
        <X 134 0
          /wV0w6Q=
        >
        E 0 90 2b 57
        E 104 80 2b 00
        <X 93 0
          /wVzaWwt
        >
        E 0 90 30 67
        E 430 80 30 00
        <X 107 0
          /wVsb2lu
        >
        E 0 90 30 67
        E 145 80 30 00
        <X 95 0
          /wVlbg==
        >
        E 0 90 32 67
        E 123 80 32 00
        <X 95 0
          /wVrZWgt
        >
        E 0 90 32 67
        E 216 80 32 00
        <X 242 0
          /wVkYW4t
        >
        E 0 90 32 67
        E 157 80 32 00
        <X 83 0
          /wVudXQ=
        >
        E 0 90 34 67
        E 86 80 34 00
        <X 154 0
          /wVreS0=
        >
        E 0 90 32 67
        E 150 80 32 00
        <X 82 0
          /wVzeS0=
        >
        E 0 90 34 67
        E 248 80 34 00
        <X 46 0
          /wXDpC0=
        >
        E 0 90 34 67
        E 169 80 34 00
        <X 266 0
          /wVrw6TDpG4=
        >
        E 0 90 32 67
        E 589 80 32 00
        E 44 80 69 00
        E 278 90 69 67
        <X 64 0
          /wVSaW4t
        >
        E 0 90 32 67
        E 159 80 32 00
        <X 110 0
          /wVub2lzLQ==
        >
        E 0 90 35 67
        E 147 80 35 00
        <X 80 0
          /wV0YQ==
        >
        E 0 90 34 67
        E 113 80 34 00
        <X 92 0
          /wVzdWE=
        >
        E 0 90 32 67
        E 367 80 32 00
        <X 156 0
          /wVwdS0=
        >
        E 0 90 30 67
        E 117 80 30 00
        <X 70 0
          /wVyaXMt
        >
        E 0 90 32 67
        E 159 80 32 00
        <X 120 0
          /wV0YWkt
        >
        E 0 90 34 67
        E 309 80 34 00
        <X 113 0
          /wVzaW4=
        >
        E 0 90 30 67
        E 491 80 30 00
        E 67 80 69 00
        E 412 90 69 67
        E 0 90 74 67
        <X 61 0
          /wVLdW4=
        >
        E 0 90 30 67
        E 148 80 30 00
        <X 69 0
          /wVlaQ==
        >
        E 0 90 32 67
        E 168 80 32 00
        <X 61 0
          /wVuZQ==
        >
        E 0 90 30 67
        E 120 80 30 00
        <X 148 0
          /wVwaWkt
        >
        E 0 90 2d 67
        E 333 80 2d 00
        <X 76 0
          /wVsb3Mt
        >
        E 0 90 30 67
        E 177 80 30 00
        <X 63 0
          /wVzYQ==
        >
        E 0 90 2f 67
        E 168 80 2f 00
        <X 122 0
          /wV0YWgt
        >
        E 0 90 32 67
        E 209 80 32 00
        <X 272 0
          /wV0by0=
        >
        E 0 90 32 67
        E 146 80 32 00
        <X 74 0
          /wVuZWV0
        >
        E 0 90 34 67
        E 131 80 34 00
        <X 150 0
          /wVweS0=
        >
        E 0 90 34 67
        E 119 80 34 00
        <X 78 0
          /wVzeS0=
        >
        E 0 90 32 67
        E 191 80 32 00
        <X 82 0
          /wXDpC0=
        >
        E 0 90 30 67
        E 195 80 30 00
        <X 278 0
          /wVrw6TDpG4=
        >
        E 0 90 2d 67
        E 836 80 2d 00
        E 54 80 69 00
        E 0 80 74 00
        E 257 90 69 67
        <X 53 0
          /wVTw6Q=
        >
        E 0 90 2f 67
        E 180 80 2f 00
        <X 99 0
          /wVvLQ==
        >
        E 0 90 30 67
        E 129 80 30 00
        <X 60 0
          /wVsaXQ=
        >
        E 0 90 30 67
        E 109 80 30 00
        <X 126 0
          /wVzby0=
        >
        E 0 90 30 67
        E 186 80 30 00
        <X 97 0
          /wVwaS0=
        >
        E 0 90 30 67
        E 147 80 30 00
        <X 81 0
          /wV2YXMt
        >
        E 0 90 30 67
        E 140 80 30 00
        <X 103 0
          /wV0aQ==
        >
        E 0 90 30 67
        E 138 80 30 00
        <X 106 0
          /wVsaS0=
        >
        E 0 90 32 67
        E 147 80 32 00
        <X 94 0
          /wVoYS0=
        >
        E 0 90 30 67
        E 162 80 30 00
        <X 86 0
          /wV2YQ==
        >
        E 0 90 30 67
        E 233 80 30 00
        E 82 80 69 00
        E 3428 90 69 67
        <X 56 0
          /wVTaS0=
        >
        E 0 90 34 67
        E 198 80 34 00
        <X 54 0
          /wVuw6Q=
        >
        E 0 90 34 67
        E 160 80 34 00
        <X 113 0
          /wV0eS0=
        >
        E 0 90 35 67
        E 143 80 35 00
        <X 86 0
          /wVwZS0=
        >
        E 0 90 35 67
        E 160 80 35 00
        <X 57 0
          /wVyw6Q=
        >
        E 0 90 37 67
        E 178 80 37 00
        <X 80 0
          /wVvbC0=
        >
        E 0 90 35 67
        E 408 80 35 00
        <X 65 0
          /wVsYQ==
        >
        E 0 90 34 67
        E 212 80 34 00
        <X 171 0
          /wVzYWF0
        >
        E 0 90 32 67
        E 1657 80 32 00
        E 48 80 69 00
        E 986 90 69 67
        <X 58 0
          /wVLYS0=
        >
        E 0 90 34 67
        E 157 80 34 00
        <X 67 0
          /wVuYS0=
        >
        E 0 90 34 67
        E 178 80 34 00
        <X 70 0
          /wVtYWkt
        >
        E 0 90 35 67
        E 375 80 35 00
        <X 84 0
          /wVuZW4=
        >
        E 0 90 34 67
        E 175 80 34 00
        <X 316 0
          /wVow7ZsLQ==
        >
        E 0 90 39 67
        E 384 80 39 00
        <X 83 0
          /wVtw7Y=
        >
        E 0 90 39 67
        E 184 80 39 00
        <X 79 0
          /wVuYWkt
        >
        E 0 90 3b 67
        E 399 80 3b 00
        <X 100 0
          /wVuZW4=
        >
        E 0 90 3c 67
        E 220 80 3c 00
        E 29 80 69 00
        E 37 90 69 67
        E 0 90 74 67
        <X 66 0
          /wVTdW4=
        >
        E 0 90 3c 67
        E 253 80 3c 00
        <X 83 0
          /wV0dXIt
        >
        E 0 90 3b 67
        E 166 80 3b 00
        <X 83 0
          /wVoYQ==
        >
        E 0 90 37 67
        E 154 80 37 00
        <X 87 0
          /wVvbg==
        >
        E 0 90 35 67
        E 116 80 35 00
        <X 125 0
          /wVsdXVsLQ==
        >
        E 0 90 35 67
        E 336 80 35 00
        <X 146 0
          /wVsYQ==
        >
        E 0 90 37 67
        E 138 80 37 00
        E 67 80 69 00
        E 0 80 74 00
        E 204 90 69 67
        <X 50 0
          /wVNdW4=
        >
        E 0 90 35 67
        E 147 80 35 00
        <X 96 0
          /wV0YWgt
        >
        E 0 90 35 67
        E 150 80 35 00
        <X 117 0
          /wV0by0=
        >
        E 0 90 35 67
        E 129 80 35 00
        <X 79 0
          /wV2YW4=
        >
        E 0 90 37 67
        E 138 80 37 00
        <X 121 0
          /wVrdXVsLQ==
        >
        E 0 90 35 67
        E 387 80 35 00
        <X 66 0
          /wVsYQ==
        >
        E 0 90 34 67
        E 141 80 34 00
        E 25 80 69 00
        E 21 90 69 67
        <X 41 0
          /wVKby0=
        >
        E 0 90 32 67
        E 116 80 32 00
        <X 108 0
          /wV0YWlu
        >
        E 0 90 30 67
        E 191 80 30 00
        <X 132 0
          /wVqw6RyLQ==
        >
        E 0 90 34 67
        E 340 80 34 00
        <X 108 0
          /wVrZS0=
        >
        E 0 90 35 67
        E 170 80 35 00
        <X 116 0
          /wV2w6TDpA==
        >
        E 0 90 32 67
        E 1165 80 32 00
        E 79 80 69 00
        E 1085 90 69 67
        <X 35 0
          /wVOZQ==
        >
        E 0 90 37 67
        E 94 80 37 00
        <X 95 0
          /wVzaS0=
        >
        E 0 90 37 67
        E 164 80 37 00
        <X 56 0
          /wVudW4=
        >
        E 0 90 37 67
        E 221 80 37 00
        <X 58 0
          /wVtdW8t
        >
        E 0 90 35 67
        E 383 80 35 00
        <X 99 0
          /wV0by0=
        >
        E 0 90 35 67
        E 109 80 35 00
        <X 85 0
          /wVzaQ==
        >
        E 0 90 37 67
        E 168 80 37 00
        <X 144 0
          /wVrdXIt
        >
        E 0 90 35 67
        E 363 80 35 00
        <X 99 0
          /wV2aWst
        >
        E 0 90 34 67
        E 202 80 34 00
        <X 252 0
          /wVrYWF0
        >
        E 0 90 32 67
        E 1560 80 32 00
        E 28 80 69 00
        E 758 90 69 67
        E 0 90 74 67
        <X 43 0
          /wVTYWkt
        >
        E 0 90 34 67
        E 207 80 34 00
        <X 88 0
          /wV2YXQ=
        >
        E 0 90 34 67
        E 107 80 34 00
        <X 120 0
          /wVhaS0=
        >
        E 0 90 35 67
        E 358 80 35 00
        <X 133 0
          /wVrYWFu
        >
        E 0 90 34 67
        E 167 80 34 00
        <X 101 0
          /wV2YWwt
        >
        E 0 90 39 67
        E 355 80 39 00
        <X 108 0
          /wV0YS0=
        >
        E 0 90 39 67
        E 143 80 39 00
        <X 67 0
          /wV2YW4=
        >
        E 0 90 39 67
        E 96 80 39 00
        <X 151 0
          /wVwYWkt
        >
        E 0 90 3b 67
        E 420 80 3b 00
        <X 99 0
          /wVuZWVu
        >
        E 0 90 3c 67
        E 166 80 3c 00
        E 29 80 69 00
        E 0 80 74 00
        E 228 90 69 67
        <X 62 0
          /wVLdW4=
        >
        E 0 90 3c 67
        E 126 80 3c 00
        <X 74 0
          /wVww6TDpGwt
        >
        E 0 90 39 67
        E 190 80 39 00
        <X 98 0
          /wVsZS0=
        >
        E 0 90 35 67
        E 94 80 35 00
        <X 67 0
          /wVzaQ==
        >
        E 0 90 35 67
        E 163 80 35 00
        <X 127 0
          /wVwdXMt
        >
        E 0 90 35 67
        E 284 80 35 00
        <X 198 0
          /wVraW4=
        >
        E 0 90 37 67
        E 138 80 37 00
        E 58 80 69 00
        E 240 90 69 67
        <X 50 0
          /wVOaWlu
        >
        E 0 90 35 67
        E 146 80 35 00
        <X 102 0
          /wVtdXU=
        >
        E 0 90 35 67
        E 168 80 35 00
        <X 87 0
          /wVvLQ==
        >
        E 0 90 35 67
        E 130 80 35 00
        <X 64 0
          /wVsaQ==
        >
        E 0 90 37 67
        E 138 80 37 00
        <X 121 0
          /wV0dXMt
        >
        E 0 90 35 67
        E 310 80 35 00
        <X 164 0
          /wVraW4=
        >
        E 0 90 34 67
        E 141 80 34 00
        E 25 80 69 00
        E 61 90 69 67
        <X 16 0
          /wVZaC0=
        >
        E 0 90 37 67
        E 116 80 37 00
        <X 143 0
          /wV0w6Q=
        >
        E 0 90 30 67
        E 131 80 30 00
        <X 127 0
          /wV0w6RyLQ==
        >
        E 0 90 34 67
        E 316 80 34 00
        <X 125 0
          /wVrZS0=
        >
        E 0 90 35 67
        E 170 80 35 00
        <X 92 0
          /wXDpMOk
        >
        E 0 90 32 67
        E 1293 80 32 00
        E 68 80 69 00
        E 1168 90 69 67
        E 0 90 74 67
        <X 72 0
          /wVNaS0=
        >
        E 0 90 37 58
        E 165 80 37 00
        <X 68 0
          /wVuw6Q=
        >
        E 0 90 35 73
        E 148 80 35 00
        <X 74 0
          /wVzaS0=
        >
        E 0 90 35 6c
        E 211 80 35 00
        <X 57 0
          /wVudWwt
        >
        E 0 90 35 6c
        E 190 80 35 00
        <X 37 0
          /wVsZQ==
        >
        E 0 90 35 6c
        E 100 80 35 00
        <X 163 0
          /wV0ZWgt
        >
        E 0 90 32 74
        E 225 80 32 00
        <X 228 0
          /wVkw6Q=
        >
        E 0 90 30 69
        E 126 80 30 00
        <X 99 0
          /wVqb3M=
        >
        E 0 90 30 69
        E 196 80 30 00
        <X 54 0
          /wVzYWkt
        >
        E 0 90 34 6f
        E 378 80 34 00
        <X 92 0
          /wVzaW4=
        >
        E 0 90 2d 61
        E 394 80 2d 00
        E 32 80 69 00
        E 0 80 74 00
        E 261 90 69 67
        <X 32 0
          /wVTaS0=
        >
        E 0 90 30 5e
        E 166 80 30 00
        <X 125 0
          /wV0w6Q=
        >
        E 0 90 30 3a
        E 137 80 30 00
        <X 73 0
          /wVtaS0=
        >
        E 0 90 2d 60
        E 139 80 2d 00
        <X 107 0
          /wV0w6Q=
        >
        E 0 90 2b 57
        E 104 80 2b 00
        <X 93 0
          /wVzaWwt
        >
        E 0 90 30 67
        E 430 80 30 00
        <X 107 0
          /wVsb2lu
        >
        E 0 90 30 67
        E 145 80 30 00
        <X 95 0
          /wVlbg==
        >
        E 0 90 32 67
        E 123 80 32 00
        <X 95 0
          /wVrZWgt
        >
        E 0 90 32 67
        E 216 80 32 00
        <X 242 0
          /wVkYW4t
        >
        E 0 90 32 67
        E 157 80 32 00
        <X 83 0
          /wVudXQ=
        >
        E 0 90 34 67
        E 86 80 34 00
        <X 154 0
          /wVreS0=
        >
        E 0 90 32 67
        E 150 80 32 00
        <X 82 0
          /wVzeS0=
        >
        E 0 90 34 67
        E 192 80 34 00
        <X 52 0
          /wXDpC0=
        >
        E 0 90 34 67
        E 219 80 34 00
        <X 276 0
          /wVrw6TDpG4=
        >
        E 0 90 32 67
        E 667 80 32 00
        E 18 80 69 00
        E 215 90 69 67
        <X 65 0
          /wVSaW4t
        >
        E 0 90 32 67
        E 194 80 32 00
        <X 75 0
          /wVub2lzLQ==
        >
        E 0 90 35 67
        E 147 80 35 00
        <X 80 0
          /wV0YQ==
        >
        E 0 90 34 67
        E 113 80 34 00
        <X 92 0
          /wVzdWE=
        >
        E 0 90 32 67
        E 367 80 32 00
        <X 156 0
          /wVwdS0=
        >
        E 0 90 30 67
        E 117 80 30 00
        <X 70 0
          /wVyaXMt
        >
        E 0 90 32 67
        E 159 80 32 00
        <X 120 0
          /wV0YWkt
        >
        E 0 90 34 67
        E 309 80 34 00
        <X 113 0
          /wVzaW4=
        >
        E 0 90 30 67
        E 571 80 30 00
        E 40 80 69 00
        E 368 90 69 67
        <X 52 0
          /wVLdW4=
        >
        E 0 90 30 67
        E 148 80 30 00
        <X 69 0
          /wVlaQ==
        >
        E 0 90 32 67
        E 168 80 32 00
        <X 61 0
          /wVuZQ==
        >
        E 0 90 30 67
        E 120 80 30 00
        <X 148 0
          /wVwaWkt
        >
        E 0 90 2d 67
        E 423 80 2d 00
        <X 61 0
          /wVsb3Mt
        >
        E 0 90 30 67
        E 177 80 30 00
        <X 63 0
          /wVzYQ==
        >
        E 0 90 2f 67
        E 168 80 2f 00
        <X 74 0
          /wV0YWgt
        >
        E 0 90 32 67
        E 222 80 32 00
        <X 232 0
          /wV0by0=
        >
        E 0 90 32 67
        E 146 80 32 00
        <X 74 0
          /wVuZWV0
        >
        E 0 90 34 67
        E 131 80 34 00
        <X 150 0
          /wVweS0=
        >
        E 0 90 34 67
        E 119 80 34 00
        <X 78 0
          /wVzeS0=
        >
        E 0 90 32 67
        E 191 80 32 00
        <X 82 0
          /wXDpC0=
        >
        E 0 90 30 67
        E 195 80 30 00
        <X 278 0
          /wVrw6TDpG4=
        >
        E 0 90 2d 67
        E 836 80 2d 00
        E 39 80 69 00
        E 261 90 69 67
        E 0 90 74 67
        <X 64 0
          /wVTw6Q=
        >
        E 0 90 2f 67
        E 180 80 2f 00
        <X 99 0
          /wVvLQ==
        >
        E 0 90 30 67
        E 129 80 30 00
        <X 60 0
          /wVsaXQ=
        >
        E 0 90 30 67
        E 109 80 30 00
        <X 126 0
          /wVzby0=
        >
        E 0 90 30 67
        E 186 80 30 00
        <X 97 0
          /wVwaS0=
        >
        E 0 90 30 67
        E 147 80 30 00
        <X 81 0
          /wV2YXMt
        >
        E 0 90 30 67
        E 140 80 30 00
        <X 103 0
          /wV0aQ==
        >
        E 0 90 30 67
        E 138 80 30 00
        <X 106 0
          /wVsaS0=
        >
        E 0 90 32 67
        E 147 80 32 00
        <X 94 0
          /wVoYS0=
        >
        E 0 90 30 67
        E 162 80 30 00
        <X 86 0
          /wV2YQ==
        >
        E 0 90 30 67
        E 233 80 30 00
        E 29 80 69 00
        E 0 80 74 00
        E 3238 90 69 67
        <X 106 0
          /wVFbg==
        >
        E 0 90 32 67
        E 131 80 32 00
        <X 83 0
          /wVlLQ==
        >
        E 0 90 34 67
        E 148 80 34 00
        <X 66 0
          /wVkZXM=
        >
        E 0 90 34 67
        E 141 80 34 00
        <X 121 0
          /wV0aWUt
        >
        E 0 90 37 67
        E 196 80 37 00
        <X 64 0
          /wVkw6Q=
        >
        E 0 90 35 67
        E 81 80 35 00
        <X 116 0
          /wVtaWst
        >
        E 0 90 35 67
        E 102 80 35 00
        <X 128 0
          /wVzaQ==
        >
        E 0 90 37 67
        E 165 80 37 00
        <X 130 0
          /wVraWkt
        >
        E 0 90 35 67
        E 387 80 35 00
        <X 124 0
          /wVob3Qt
        >
        E 0 90 34 67
        E 187 80 34 00
        <X 233 0
          /wV0YWE=
        >
        E 0 90 32 67
        E 1543 80 32 00
        E 48 80 69 00
        E 532 90 69 67
        <X 17 0
          /wVNdWE=
        >
        E 0 90 34 67
        E 173 80 34 00
        <X 80 0
          /wV5aC0=
        >
        E 0 90 34 67
        E 136 80 34 00
        <X 116 0
          /wV0w6Q=
        >
        E 0 90 34 67
        E 119 80 34 00
        <X 120 0
          /wVwaXQt
        >
        E 0 90 35 67
        E 156 80 35 00
        <X 320 0
          /wVrw6Q=
        >
        E 0 90 34 67
        E 133 80 34 00
        <X 143 0
          /wVrdWlu
        >
        E 0 90 39 67
        E 153 80 39 00
        <X 74 0
          /wVsZS0=
        >
        E 0 90 39 67
        E 156 80 39 00
        <X 78 0
          /wV2ZS0=
        >
        E 0 90 39 67
        E 202 80 39 00
        <X 62 0
          /wXDpA==
        >
        E 0 90 39 67
        E 112 80 39 00
        <X 87 0
          /wVuYWkt
        >
        E 0 90 3b 67
        E 407 80 3b 00
        <X 82 0
          /wVuZW4=
        >
        E 0 90 3c 67
        E 250 80 3c 00
        E 8 80 69 00
        E 445 90 69 67
        <X 30 0
          /wVKYS0=
        >
        E 0 90 39 67
        E 116 80 39 00
        <X 63 0
          /wVsYXQ=
        >
        E 0 90 35 67
        E 154 80 35 00
        <X 128 0
          /wVrdWlu
        >
        E 0 90 37 67
        E 162 80 37 00
        <X 117 0
          /wVweWwt
        >
        E 0 90 35 67
        E 348 80 35 00
        <X 109 0
          /wV2w6TDpHQ=
        >
        E 0 90 30 67
        E 254 80 30 00
        E 17 80 69 00
        E 171 90 69 67
        E 0 90 74 67
        <X 29 0
          /wVqYQ==
        >
        E 0 90 34 67
        E 118 80 34 00
        <X 102 0
          /wVyaW4t
        >
        E 0 90 35 67
        E 193 80 35 00
        <X 83 0
          /wVuYXQt
        >
        E 0 90 35 67
        E 107 80 35 00
        <X 143 0
          /wVraW4=
        >
        E 0 90 37 67
        E 164 80 37 00
        <X 121 0
          /wV5bC0=
        >
        E 0 90 35 67
        E 319 80 35 00
        <X 96 0
          /wV2w6TDpHQ=
        >
        E 0 90 34 67
        E 141 80 34 00
        E 25 80 69 00
        E 0 80 74 00
        E 59 90 69 67
        <X 45 0
          /wVKb2lzLQ==
        >
        E 0 90 32 67
        E 167 80 32 00
        <X 91 0
          /wV0YQ==
        >
        E 0 90 30 67
        E 123 80 30 00
        <X 150 0
          /wVraWluLQ==
        >
        E 0 90 34 67
        E 344 80 34 00
        <X 75 0
          /wVuaQ==
        >
        E 0 90 34 67
        E 104 80 34 00
        <X 99 0
          /wVzYWE=
        >
        E 0 90 32 67
        E 1103 80 32 00
        E 265 80 69 00
        E 1007 90 69 67
        <X 29 0
          /wVTZQ==
        >
        E 0 90 37 67
        E 180 80 37 00
        <X 77 0
          /wVuYWkt
        >
        E 0 90 37 67
        E 179 80 37 00
        <X 59 0
          /wVuZW4=
        >
        E 0 90 37 67
        E 129 80 37 00
        <X 123 0
          /wV1LQ==
        >
        E 0 90 35 67
        E 167 80 35 00
        <X 43 0
          /wVuaXMt
        >
        E 0 90 35 67
        E 166 80 35 00
        <X 53 0
          /wVzYS0=
        >
        E 0 90 35 67
        E 185 80 35 00
        <X 102 0
          /wVuaQ==
        >
        E 0 90 37 67
        E 162 80 37 00
        <X 63 0
          /wVsaWkt
        >
        E 0 90 35 67
        E 380 80 35 00
        <X 120 0
          /wVob3Qt
        >
        E 0 90 34 67
        E 152 80 34 00
        <X 307 0
          /wV0YWE=
        >
        E 0 90 32 67
        E 1252 80 32 00
        E 28 80 69 00
        E 783 90 69 67
        <X 90 0
          /wVTZQ==
        >
        E 0 90 34 67
        E 204 80 34 00
        <X 56 0
          /wVsw6Qt
        >
        E 0 90 34 67
        E 130 80 34 00
        <X 100 0
          /wVoZXM=
        >
        E 0 90 34 67
        E 149 80 34 00
        <X 84 0
          /wVzYS0=
        >
        E 0 90 35 67
        E 165 80 35 00
        <X 52 0
          /wVkYW4=
        >
        E 0 90 34 67
        E 167 80 34 00
        <X 125 0
          /wVraS0=
        >
        E 0 90 34 67
        E 100 80 34 00
        <X 79 0
          /wVsb24=
        >
        E 0 90 35 67
        E 196 80 35 00
        <X 96 0
          /wVrZWkt
        >
        E 0 90 39 67
        E 460 80 39 00
        <X 79 0
          /wVqdS0=
        >
        E 0 90 39 67
        E 98 80 39 00
        <X 104 0
          /wVrYWkt
        >
        E 0 90 3b 67
        E 393 80 3b 00
        <X 74 0
          /wVuZW4=
        >
        E 0 90 3c 67
        E 278 80 3c 00
        E 37 80 69 00
        E 324 90 69 67
        E 0 90 74 67
        <X 45 0
          /wVNdW8t
        >
        E 0 90 39 67
        E 190 80 39 00
        <X 50 0
          /wVkby0=
        >
        E 0 90 35 67
        E 120 80 35 00
        <X 109 0
          /wVrYXM=
        >
        E 0 90 35 67
        E 142 80 35 00
        <X 156 0
          /wVreWwt
        >
        E 0 90 35 67
        E 375 80 35 00
        <X 99 0
          /wVsw6Q=
        >
        e 0 90 32 67
        e 130 80 32 00
        <X 132 0
          /wVrdW4=
        >
        E 0 90 35 67
        E 153 80 35 00
        <X 64 0
          /wVlaQ==
        >
        E 0 90 35 67
        E 140 80 35 00
        <X 63 0
          /wV2YWF0LQ==
        >
        E 0 90 35 67
        E 155 80 35 00
        <X 135 0
          /wV0ZWkt
        >
        E 0 90 35 67
        E 126 80 35 00
        <X 89 0
          /wV0YQ==
        >
        E 0 90 37 67
        E 138 80 37 00
        <X 145 0
          /wV5bC0=
        >
        E 0 90 35 67
        E 373 80 35 00
        <X 62 0
          /wVsw6Q=
        >
        E 0 90 34 67
        E 141 80 34 00
        E 27 80 69 00
        E 0 80 74 00
        E 53 90 69 67
        <X 29 0
          /wVPLQ==
        >
        E 0 90 32 67
        E 129 80 32 00
        <X 48 0
          /wVsZQ==
        >
        E 0 90 32 67
        E 146 80 32 00
        <X 164 0
          /wVvbC0=
        >
        E 0 90 34 67
        E 361 80 34 00
        <X 100 0
          /wVsZW4t
        >
        E 0 90 34 67
        E 149 80 34 00
        <X 99 0
          /wVrYWFu
        >
        E 0 90 32 67
        E 1193 80 32 00
        E 38 80 69 00
        E 1319 90 69 67
        <X 79 0
          /wVNaS0=
        >
        E 0 90 37 58
        E 165 80 37 00
        <X 68 0
          /wVuw6Q=
        >
        E 0 90 35 73
        E 148 80 35 00
        <X 74 0
          /wVzaS0=
        >
        E 0 90 35 6c
        E 211 80 35 00
        <X 57 0
          /wVudWwt
        >
        E 0 90 35 6c
        E 190 80 35 00
        <X 37 0
          /wVsZQ==
        >
        E 0 90 35 6c
        E 100 80 35 00
        <X 177 0
          /wV0ZWgt
        >
        E 0 90 32 74
        E 211 80 32 00
        <X 228 0
          /wVkw6Q=
        >
        E 0 90 30 69
        E 126 80 30 00
        <X 99 0
          /wVqb3M=
        >
        E 0 90 30 69
        E 196 80 30 00
        <X 54 0
          /wVzYWkt
        >
        E 0 90 34 6f
        E 378 80 34 00
        <X 67 0
          /wVzaW4=
        >
        E 0 90 2d 61
        E 419 80 2d 00
        E 47 80 69 00
        E 168 90 69 67
        <X 76 0
          /wVTaS0=
        >
        E 0 90 30 5e
        E 175 80 30 00
        <X 98 0
          /wV0w6Q=
        >
        E 0 90 30 3a
        E 137 80 30 00
        <X 125 0
          /wVtaS0=
        >
        E 0 90 2d 60
        E 112 80 2d 00
        <X 134 0
          /wV0w6Q=
        >
        E 0 90 2b 57
        E 104 80 2b 00
        <X 93 0
          /wVzaWwt
        >
        E 0 90 30 67
        E 430 80 30 00
        <X 107 0
          /wVsb2lu
        >
        E 0 90 30 67
        E 145 80 30 00
        <X 95 0
          /wVlbg==
        >
        E 0 90 32 67
        E 123 80 32 00
        <X 95 0
          /wVrZWgt
        >
        E 0 90 32 67
        E 216 80 32 00
        <X 272 0
          /wVkYW4t
        >
        E 0 90 32 67
        E 136 80 32 00
        <X 86 0
          /wVudXQ=
        >
        E 0 90 34 67
        E 116 80 34 00
        <X 130 0
          /wVreS0=
        >
        E 0 90 32 67
        E 150 80 32 00
        <X 85 0
          /wVzeS0=
        >
        E 0 90 34 67
        E 227 80 34 00
        <X 60 0
          /wXDpC0=
        >
        E 0 90 34 67
        E 219 80 34 00
        <X 226 0
          /wVrw6TDpG4=
        >
        E 0 90 32 67
        E 620 80 32 00
        E 24 80 69 00
        E 228 90 69 67
        E 0 90 74 67
        <X 79 0
          /wVSaW4t
        >
        E 0 90 32 67
        E 159 80 32 00
        <X 110 0
          /wVub2lzLQ==
        >
        E 0 90 35 67
        E 147 80 35 00
        <X 80 0
          /wV0YQ==
        >
        E 0 90 34 67
        E 113 80 34 00
        <X 92 0
          /wVzdWE=
        >
        E 0 90 32 67
        E 367 80 32 00
        <X 156 0
          /wVwdS0=
        >
        E 0 90 30 67
        E 117 80 30 00
        <X 70 0
          /wVyaXMt
        >
        E 0 90 32 67
        E 159 80 32 00
        <X 120 0
          /wV0YWkt
        >
        E 0 90 34 67
        E 343 80 34 00
        <X 79 0
          /wVzaW4=
        >
        E 0 90 30 67
        E 524 80 30 00
        E 70 80 69 00
        E 0 80 74 00
        E 411 90 69 67
        <X 26 0
          /wVLdW4=
        >
        E 0 90 30 67
        E 148 80 30 00
        <X 69 0
          /wVlaQ==
        >
        E 0 90 32 67
        E 168 80 32 00
        <X 61 0
          /wVuZQ==
        >
        E 0 90 30 67
        E 120 80 30 00
        <X 148 0
          /wVwaWkt
        >
        E 0 90 2d 67
        E 396 80 2d 00
        <X 72 0
          /wVsb3Mt
        >
        E 0 90 30 67
        E 156 80 30 00
        <X 59 0
          /wVzYQ==
        >
        E 0 90 2f 67
        E 168 80 2f 00
        <X 119 0
          /wV0YWgt
        >
        E 0 90 32 67
        E 209 80 32 00
        <X 241 0
          /wV0by0=
        >
        E 0 90 32 67
        E 146 80 32 00
        <X 74 0
          /wVuZWV0
        >
        E 0 90 34 67
        E 158 80 34 00
        <X 123 0
          /wVweS0=
        >
        E 0 90 34 67
        E 119 80 34 00
        <X 78 0
          /wVzeS0=
        >
        E 0 90 32 67
        E 201 80 32 00
        <X 72 0
          /wXDpC0=
        >
        E 0 90 30 67
        E 195 80 30 00
        <X 278 0
          /wVrw6TDpG4=
        >
        E 0 90 2d 67
        E 903 80 2d 00
        E 20 80 69 00
        E 245 90 69 67
        <X 32 0
          /wVTw6Q=
        >
        E 0 90 2f 67
        E 180 80 2f 00
        <X 99 0
          /wVvLQ==
        >
        E 0 90 30 67
        E 129 80 30 00
        <X 73 0
          /wVsaXQ=
        >
        E 0 90 30 67
        E 109 80 30 00
        <X 113 0
          /wVzby0=
        >
        E 0 90 30 67
        E 186 80 30 00
        <X 97 0
          /wVwaS0=
        >
        E 0 90 30 67
        E 147 80 30 00
        <X 81 0
          /wV2YXMt
        >
        E 0 90 30 67
        E 140 80 30 00
        <X 103 0
          /wV0aQ==
        >
        E 0 90 30 67
        E 138 80 30 00
        <X 106 0
          /wVsaS0=
        >
        E 0 90 32 67
        E 147 80 32 00
        <X 94 0
          /wVoYS0=
        >
        E 0 90 30 67
        E 162 80 30 00
        <X 86 0
          /wV2YQ==
        >
        E 0 90 30 67
        E 233 80 30 00
        E 58 80 69 00
        E 1431 90 69 67
        <X 168 0
          /wVNaS0=
        >
        E 0 90 37 58
        E 165 80 37 00
        <X 68 0
          /wVuw6Q=
        >
        E 0 90 35 73
        E 148 80 35 00
        <X 74 0
          /wVzaS0=
        >
        E 0 90 35 6c
        E 211 80 35 00
        <X 57 0
          /wVudWwt
        >
        E 0 90 35 6c
        E 190 80 35 00
        <X 37 0
          /wVsZQ==
        >
        E 0 90 35 6c
        E 110 80 35 00
        <X 167 0
          /wV0ZWgt
        >
        E 0 90 32 74
        E 232 80 32 00
        <X 236 0
          /wVkw6Q=
        >
        E 0 90 30 69
        E 126 80 30 00
        <X 95 0
          /wVqb3M=
        >
        E 0 90 30 69
        E 171 80 30 00
        <X 73 0
          /wVzYWkt
        >
        E 0 90 34 6f
        E 359 80 34 00
        <X 88 0
          /wVzaW4=
        >
        E 0 90 2d 61
        E 415 80 2d 00
        E 23 80 69 00
        E 243 90 69 67
        <X 41 0
          /wVTaS0=
        >
        E 0 90 30 5e
        E 161 80 30 00
        <X 111 0
          /wV0w6Q=
        >
        E 0 90 30 3a
        E 149 80 30 00
        <X 106 0
          /wVtaS0=
        >
        E 0 90 2d 60
        E 112 80 2d 00
        <X 109 0
          /wV0w6Q=
        >
        E 0 90 2b 57
        E 117 80 2b 00
        <X 105 0
          /wVzaWwt
        >
        E 0 90 30 67
        E 434 80 30 00
        <X 91 0
          /wVsb2lu
        >
        E 0 90 30 67
        E 132 80 30 00
        <X 95 0
          /wVlbg==
        >
        E 0 90 32 67
        E 123 80 32 00
        <X 139 0
          /wVrZWgt
        >
        E 0 90 32 67
        E 216 80 32 00
        <X 255 0
          /wVkYW4t
        >
        E 0 90 32 67
        E 150 80 32 00
        <X 77 0
          /wVudXQ=
        >
        E 0 90 34 67
        E 99 80 34 00
        <X 156 0
          /wVreS0=
        >
        E 0 90 32 67
        E 150 80 32 00
        <X 82 0
          /wVzeS0=
        >
        E 0 90 34 67
        E 192 80 34 00
        <X 52 0
          /wXDpC0=
        >
        E 0 90 34 67
        E 219 80 34 00
        <X 234 0
          /wVrw6TDpG4=
        >
        E 0 90 32 67
        E 636 80 32 00
        E 34 80 69 00
        E 281 90 69 67
        <X 32 0
          /wVSaW4t
        >
        E 0 90 32 67
        E 159 80 32 00
        <X 92 0
          /wVub2lzLQ==
        >
        E 0 90 35 67
        E 147 80 35 00
        <X 86 0
          /wV0YQ==
        >
        E 0 90 34 67
        E 113 80 34 00
        <X 100 0
          /wVzdWE=
        >
        E 0 90 32 67
        E 376 80 32 00
        <X 141 0
          /wVwdS0=
        >
        E 0 90 30 67
        E 117 80 30 00
        <X 70 0
          /wVyaXMt
        >
        E 0 90 32 67
        E 174 80 32 00
        <X 122 0
          /wV0YWkt
        >
        E 0 90 34 67
        E 328 80 34 00
        <X 96 0
          /wVzaW4=
        >
        E 0 90 30 67
        E 531 80 30 00
        E 18 80 69 00
        E 431 90 69 67
        <X 46 0
          /wVLdW4=
        >
        E 0 90 30 67
        E 148 80 30 00
        <X 69 0
          /wVlaQ==
        >
        E 0 90 32 67
        E 168 80 32 00
        <X 61 0
          /wVuZQ==
        >
        E 0 90 30 67
        E 120 80 30 00
        <X 148 0
          /wVwaWkt
        >
        E 0 90 2d 67
        E 333 80 2d 00
        <X 76 0
          /wVsb3Mt
        >
        E 0 90 30 67
        E 177 80 30 00
        <X 63 0
          /wVzYQ==
        >
        E 0 90 2f 67
        E 168 80 2f 00
        <X 122 0
          /wV0YWgt
        >
        E 0 90 32 67
        E 209 80 32 00
        <X 272 0
          /wV0by0=
        >
        E 0 90 32 67
        E 146 80 32 00
        <X 74 0
          /wVuZWV0
        >
        E 0 90 34 67
        E 131 80 34 00
        <X 150 0
          /wVweS0=
        >
        E 0 90 34 67
        E 119 80 34 00
        <X 78 0
          /wVzeS0=
        >
        E 0 90 32 67
        E 191 80 32 00
        <X 82 0
          /wXDpC0=
        >
        E 0 90 30 67
        E 195 80 30 00
        <X 278 0
          /wVrw6TDpG4=
        >
        E 0 90 2d 67
        E 848 80 2d 00
        E 45 80 69 00
        E 115 90 69 67
        <X 165 0
          /wVTw6Q=
        >
        E 0 90 2d 67
        E 180 80 2d 00
        <X 99 0
          /wVvLQ==
        >
        E 0 90 2e 67
        E 129 80 2e 00
        <X 60 0
          /wVsaXQ=
        >
        E 0 90 30 67
        E 109 80 30 00
        <X 126 0
          /wVzby0=
        >
        E 0 90 30 67
        E 186 80 30 00
        <X 97 0
          /wVwaS0=
        >
        E 0 90 30 67
        E 147 80 30 00
        <X 81 0
          /wV2YXMt
        >
        E 0 90 30 67
        E 140 80 30 00
        <X 103 0
          /wV0aQ==
        >
        E 0 90 30 67
        E 138 80 30 00
        <X 106 0
          /wVsaS0=
        >
        E 0 90 32 67
        E 147 80 32 00
        <X 90 0
          /wVoYS0=
        >
        E 0 90 30 67
        E 162 80 30 00
        <X 86 0
          /wV2YQ==
        >
        E 0 90 30 67
        E 233 80 30 00
        E 56 80 69 00
        <X 424 0
          /wFbaWRsZV9yZWFsdGltZV0=
        >
        E 24735 b0 7b 00
        GUID {D78D8959-2AD8-48C0-8F6C-4A6670952331}
        IGNTEMPO 0 120.00000000 4 4
        SRCCOLOR 1239
        VELLANE 132 128 60
        COLORMAP "C:\Users\me\AppData\Roaming\REAPER\Data\color_maps\rockband_vox-other.png"
        TEXTSTRINGFILE "C:\Program Files\REAPER\Data\Text_Strings\Text Events List.txt"
        CFGEDITVIEW 104125.549780 164.467839 22 12 0 0 0
        CFGEDIT 1 1 0 1 1 1 1 1 1 1 1 0.06250000 -8 -8 1374 736 1 2 1 2 0.00000000 0 0 0 0 0.500000 1 0 1.000000 64
        KEYSNAP 0 0 "102034050607" 0 "Major"
        EVTFILTER 0 -1 -1 -1 -1 0 1 0 0 -1.00000000 -1.00000000
      >
    >
  >
  <TRACK '{4A30D2A4-111B-40E3-8633-0926E85E641C}'
    NAME "DRYVOX1"
    PEAKCOL 16576
    BEAT -1
    AUTOMODE 0
    VOLPAN 1.00000000000000 0.00000000000000 -1.00000000000000 -1.00000000000000 1.00000000000000
    MUTESOLO 1 0 0
    IPHASE 0
    ISBUS 0 0
    BUSCOMP 0 0
    SHOWINMIX 1 0.666700 0.500000 1 0.500000 -1 -1 -1
    FREEMODE 0
    SEL 1
    REC 0 0 0 0 0 0 0
    TRACKHEIGHT 0 0
    INQ 0 0 0 0.5000000000 100 0 0 100
    NCHAN 2
    FX 1
    TRACKID {4A30D2A4-111B-40E3-8633-0926E85E641C}
    PERF 0
    MIDIOUT -1
    MAINSEND 1 0
    <FXCHAIN
      SHOW 0
      LASTSEL 0
      DOCKED 0
      BYPASS 0 0
      <VST "VST: ReaGate (Cockos)" "reagate.dll" 0 ""
        dGdlcu9e7f4EAAAAAQAAAAAAAAACAAAAAAAAAAQAAAAAAAAACAAAAA==
        AAAAAAIAAAABAAAAAAAAAAIAAAAAAAAAVAAAAAAAAAAAABAA776t3g==
        DfCt3pzRBzOmm8Q7CtejPAAAAAAAAAAAAACAPwAAAAAAAAAAAAAAAA==
        nNEHMx5Ucz+c0QczAACAPwAAAAAAAAAAAAAAACwWCz8AAAAAAAAAAA==
        AAAQAAAA
      >
      FLOATPOS 859 184 511 385
      FXID {BF545B5B-7DD0-4B4C-AC52-F095A552DA08}
      WAK 0
    >
    <ITEM
      POSITION 3.69770390109625
      SNAPOFFS 0.00000000000000
      LENGTH 220.46666666666667
      LOOP 0
      ALLTAKES 0
      SEL 1
      FADEIN 1 0.000000 0.000000 1 0
      FADEOUT 1 0.000000 0.000000 1 0
      MUTE 0
      IGUID {76CCDE38-1D33-4BB6-B960-0D253933824C}
      IID 108
      NAME "4_vocal.mp3"
      VOLPAN 1.000000 0.000000 1.000000 -1.000000
      SOFFS 0.00000000000000
      PLAYRATE 1.00000000000000 1 0.00000000000000 -1
      CHANMODE 0
      GUID {37962D3B-DABF-4B5E-931D-1D53269624C1}
      <SOURCE MP3
        FILE "mvsep\4_vocal.mp3" 1
      >
    >
  >
  <TRACK '{983C7D04-DAF6-462A-B5E6-64213F29FBA0}'
    NAME "HARM2"
    PEAKCOL 24624127
    BEAT -1
    AUTOMODE 0
    VOLPAN 1.00497380427334 0.00000000000000 -1.00000000000000 -1.00000000000000 1.00000000000000
    MUTESOLO 0 0 0
    IPHASE 0
    ISBUS 0 0
    BUSCOMP 0 0
    SHOWINMIX 1 0.666700 0.500000 1 0.500000 -1 -1 -1
    FREEMODE 0
    SEL 0
    REC 0 0 0 0 0 0 0
    TRACKHEIGHT 0 0
    INQ 0 0 0 0.5000000000 100 0 0 100
    NCHAN 2
    FX 1
    TRACKID {983C7D04-DAF6-462A-B5E6-64213F29FBA0}
    PERF 0
    MIDIOUT -1
    <MIDINOTENAMES
      0 0 "Range Shift"
      0 1 "Lyric Shift"
      0 36 "C1"
      0 37 "C#"
      0 38 "D"
      0 39 "Eb"
      0 40 "E"
      0 41 "F"
      0 42 "F#"
      0 43 "G"
      0 44 "G#"
      0 45 "A"
      0 46 "Bb"
      0 47 "B"
      0 48 "C2"
      0 49 "C#"
      0 50 "D"
      0 51 "Eb"
      0 52 "E"
      0 53 "F"
      0 54 "F#"
      0 55 "G"
      0 56 "G#"
      0 57 "A"
      0 58 "Bb"
      0 59 "B"
      0 60 "C3"
      0 61 "C#"
      0 62 "D"
      0 63 "Eb"
      0 64 "E"
      0 65 "F"
      0 66 "F#"
      0 67 "G"
      0 68 "G#"
      0 69 "A"
      0 70 "Bb"
      0 71 "B"
      0 72 "C4"
      0 73 "C#"
      0 74 "D"
      0 75 "Eb"
      0 76 "E"
      0 77 "F"
      0 78 "F#"
      0 79 "G"
      0 80 "G#"
      0 81 "A"
      0 82 "Bb"
      0 83 "B"
      0 105 "Phrase Marker"
      0 35 "----"
      0 84 "C5"
      0 116 "OVERDRIVE"
      0 115 "----"
      0 104 "----"
      0 97 "Not Displayed Percussion"
      0 96 "Displayed Percussion"
      0 95 "----"
    >
    MAINSEND 1 0
    <FXCHAIN
      WNDRECT 0 42 716 493
      SHOW 0
      LASTSEL 1
      DOCKED 0
      BYPASS 0 0
      <JS "IX/MIDI_Tool II" ""
        0.000000 85.000000 127.000000 0.000000 0.000000 0.000000 100.000000 0.000000 0.000000 127.000000 0.000000 0.000000 1.000000 0.000000 0.000000 - - - - - - - - - - - - - - - - - - - - - - - - - - - - - - - - - - - - - - - - - - - - - - - - - 
      >
      FLOATPOS 0 0 0 0
      FXID {0D2127EF-90E6-4278-AB57-59BADA75D3A0}
      WAK 0
      BYPASS 0 0
      <VST "VSTi: ReaSynth (Cockos)" "reasynth.dll" 0 ""
        eXNlcu9e7f4AAAAAAgAAAAEAAAAAAAAAAgAAAAAAAAA4AAAAAAAAAA==
        AAAAAO++rd4N8K3eppvEOxe30ToAAAAAAAAAAAAAAACa9Q8/6WeIPQ==
        AAAAAAAAAD8AAIA/AAAAAAAAAD8AAAAAAAA=
      >
      FLOATPOS 0 0 0 0
      FXID {9CF76FE8-51DE-4F46-8774-EF282D9874DF}
      WAK 0
    >
    <ITEM
      POSITION 0.00000000000000
      SNAPOFFS 0.00000000000000
      LENGTH 204.98454157323775
      LOOP 0
      ALLTAKES 0
      SEL 0
      FADEIN 1 0.000000 0.000000 1 0
      FADEOUT 1 0.000000 0.000000 1 0
      MUTE 0
      IGUID {85B4D2FA-0EE6-4979-8286-EAC89A15680D}
      IID 12
      NAME "HARM2 untitled MIDI item"
      VOLPAN 1.000000 0.000000 1.000000 -1.000000
      SOFFS 0.00000000000000 0.00000000000000
      PLAYRATE 1.00000000000000 1 0.00000000000000 -1
      CHANMODE 0
      GUID {67C8C31A-733D-46F5-9A6D-0FDF2143554E}
      <SOURCE MIDI
        HASDATA 1 480 QN
        POOLEDEVTS {6A0D8DCC-7BE9-445A-BDB1-55DC2186B7CD}
        <X 0 0
          /wNIQVJNMg==
        >
        <X 3840 0
          /wFbaWRsZV0=
        >
        <X 5760 0
          /wFbbWVsbG93XQ==
        >
        E 1381 90 69 67
        <X 56 0
          /wVNaS0=
        >
        E 0 90 3c 58
        E 165 80 3c 00
        <X 68 0
          /wVuw6Q=
        >
        E 0 90 3a 73
        E 148 80 3a 00
        <X 74 0
          /wVzaS0=
        >
        E 0 90 3a 6c
        E 211 80 3a 00
        <X 57 0
          /wVudWwt
        >
        E 0 90 3a 6c
        E 190 80 3a 00
        <X 37 0
          /wVsZQ==
        >
        E 0 90 3a 6c
        E 100 80 3a 00
        <X 177 0
          /wV0ZWgt
        >
        E 0 90 37 74
        E 211 80 37 00
        <X 228 0
          /wVkw6Q=
        >
        E 0 90 35 69
        E 126 80 35 00
        <X 99 0
          /wVqb3M=
        >
        E 0 90 35 69
        E 184 80 35 00
        <X 66 0
          /wVzYWkt
        >
        E 0 90 39 6f
        E 378 80 39 00
        <X 67 0
          /wVzaW4=
        >
        E 0 90 32 61
        E 419 80 32 00
        E 52 80 69 00
        E 186 90 69 67
        <X 53 0
          /wVTaS0=
        >
        E 0 90 35 5e
        E 175 80 35 00
        <X 98 0
          /wV0w6Q=
        >
        E 0 90 35 3a
        E 137 80 35 00
        <X 125 0
          /wVtaS0=
        >
        E 0 90 32 60
        E 112 80 32 00
        <X 134 0
          /wV0w6Q=
        >
        E 0 90 30 57
        E 104 80 30 00
        <X 93 0
          /wVzaWwt
        >
        E 0 90 35 67
        E 430 80 35 00
        <X 107 0
          /wVsb2lu
        >
        E 0 90 35 67
        E 145 80 35 00
        <X 95 0
          /wVlbg==
        >
        E 0 90 37 67
        E 123 80 37 00
        <X 95 0
          /wVrZWgt
        >
        E 0 90 37 67
        E 216 80 37 00
        <X 242 0
          /wVkYW4t
        >
        E 0 90 37 67
        E 157 80 37 00
        <X 83 0
          /wVudXQ=
        >
        E 0 90 39 67
        E 86 80 39 00
        <X 154 0
          /wVreS0=
        >
        E 0 90 37 67
        E 150 80 37 00
        <X 82 0
          /wVzeS0=
        >
        E 0 90 39 67
        E 248 80 39 00
        <X 46 0
          /wXDpC0=
        >
        E 0 90 39 67
        E 169 80 39 00
        <X 266 0
          /wVrw6TDpG4=
        >
        E 0 90 37 67
        E 589 80 37 00
        E 44 80 69 00
        E 278 90 69 67
        <X 64 0
          /wVSaW4t
        >
        E 0 90 37 67
        E 159 80 37 00
        <X 110 0
          /wVub2lzLQ==
        >
        E 0 90 3a 67
        E 147 80 3a 00
        <X 80 0
          /wV0YQ==
        >
        E 0 90 39 67
        E 113 80 39 00
        <X 92 0
          /wVzdWE=
        >
        E 0 90 37 67
        E 367 80 37 00
        <X 156 0
          /wVwdS0=
        >
        E 0 90 35 67
        E 117 80 35 00
        <X 70 0
          /wVyaXMt
        >
        E 0 90 37 67
        E 159 80 37 00
        <X 120 0
          /wV0YWkt
        >
        E 0 90 39 67
        E 309 80 39 00
        <X 113 0
          /wVzaW4=
        >
        E 0 90 35 67
        E 491 80 35 00
        E 67 80 69 00
        E 412 90 69 67
        E 0 90 74 67
        <X 61 0
          /wVLdW4=
        >
        E 0 90 35 67
        E 148 80 35 00
        <X 69 0
          /wVlaQ==
        >
        E 0 90 37 67
        E 168 80 37 00
        <X 61 0
          /wVuZQ==
        >
        E 0 90 35 67
        E 120 80 35 00
        <X 148 0
          /wVwaWkt
        >
        E 0 90 32 67
        E 333 80 32 00
        <X 76 0
          /wVsb3Mt
        >
        E 0 90 35 67
        E 177 80 35 00
        <X 63 0
          /wVzYQ==
        >
        E 0 90 34 67
        E 168 80 34 00
        <X 122 0
          /wV0YWgt
        >
        E 0 90 37 67
        E 209 80 37 00
        <X 272 0
          /wV0by0=
        >
        E 0 90 37 67
        E 146 80 37 00
        <X 74 0
          /wVuZWV0
        >
        E 0 90 39 67
        E 131 80 39 00
        <X 150 0
          /wVweS0=
        >
        E 0 90 39 67
        E 119 80 39 00
        <X 78 0
          /wVzeS0=
        >
        E 0 90 37 67
        E 191 80 37 00
        <X 82 0
          /wXDpC0=
        >
        E 0 90 35 67
        E 195 80 35 00
        <X 278 0
          /wVrw6TDpG4=
        >
        E 0 90 32 67
        E 836 80 32 00
        E 54 80 69 00
        E 0 80 74 00
        E 257 90 69 67
        E 2558 80 69 00
        E 3428 90 69 67
        <X 56 0
          /wVTaS0=
        >
        E 0 90 39 67
        E 198 80 39 00
        <X 54 0
          /wVuw6Q=
        >
        E 0 90 39 67
        E 160 80 39 00
        <X 113 0
          /wV0eS0=
        >
        E 0 90 3a 67
        E 143 80 3a 00
        <X 86 0
          /wVwZS0=
        >
        E 0 90 3a 67
        E 160 80 3a 00
        <X 57 0
          /wVyw6Q=
        >
        E 0 90 3c 67
        E 178 80 3c 00
        <X 80 0
          /wVvbC0=
        >
        E 0 90 3a 67
        E 408 80 3a 00
        <X 65 0
          /wVsYQ==
        >
        E 0 90 39 67
        E 212 80 39 00
        <X 171 0
          /wVzYWF0
        >
        E 0 90 37 67
        E 1657 80 37 00
        E 48 80 69 00
        E 986 90 69 67
        E 2958 80 69 00
        E 37 90 69 67
        E 0 90 74 67
        E 1820 80 69 00
        E 0 80 74 00
        E 204 90 69 67
        E 1646 80 69 00
        E 21 90 69 67
        <X 588 0
          /wVqw6RyLQ==
        >
        E 0 90 39 67
        E 340 80 39 00
        <X 108 0
          /wVrZS0=
        >
        E 0 90 3a 67
        E 170 80 3a 00
        <X 116 0
          /wV2w6TDpA==
        >
        E 0 90 37 67
        E 1165 80 37 00
        E 79 80 69 00
        E 1085 90 69 67
        <X 35 0
          /wVOZQ==
        >
        E 0 90 3c 67
        E 94 80 3c 00
        <X 95 0
          /wVzaS0=
        >
        E 0 90 3c 67
        E 164 80 3c 00
        <X 56 0
          /wVudW4=
        >
        E 0 90 3c 67
        E 221 80 3c 00
        <X 58 0
          /wVtdW8t
        >
        E 0 90 3a 67
        E 383 80 3a 00
        <X 99 0
          /wV0by0=
        >
        E 0 90 3a 67
        E 109 80 3a 00
        <X 85 0
          /wVzaQ==
        >
        E 0 90 3c 67
        E 168 80 3c 00
        <X 144 0
          /wVrdXIt
        >
        E 0 90 3a 67
        E 363 80 3a 00
        <X 99 0
          /wV2aWst
        >
        E 0 90 39 67
        E 202 80 39 00
        <X 252 0
          /wVrYWF0
        >
        E 0 90 37 67
        E 1560 80 37 00
        E 28 80 69 00
        E 758 90 69 67
        E 0 90 74 67
        E 2958 80 69 00
        E 0 80 74 00
        E 228 90 69 67
        E 1679 80 69 00
        E 240 90 69 67
        <X 50 0
          /wVOaWlu
        >
        E 0 90 3a 67
        E 146 80 3a 00
        <X 102 0
          /wVtdXU=
        >
        E 0 90 3a 67
        E 168 80 3a 00
        <X 87 0
          /wVvLQ==
        >
        E 0 90 3a 67
        E 130 80 3a 00
        <X 64 0
          /wVsaQ==
        >
        E 0 90 3c 67
        E 138 80 3c 00
        <X 121 0
          /wV0dXMt
        >
        E 0 90 3a 67
        E 310 80 3a 00
        <X 164 0
          /wVraW4=
        >
        E 0 90 39 67
        E 141 80 39 00
        E 25 80 69 00
        E 61 90 69 67
        <X 16 0
          /wVZaC0=
        >
        E 0 90 3c 67
        E 116 80 3c 00
        <X 143 0
          /wV0w6Q=
        >
        E 0 90 35 67
        E 131 80 35 00
        <X 127 0
          /wV0w6RyLQ==
        >
        E 0 90 39 67
        E 316 80 39 00
        <X 125 0
          /wVrZS0=
        >
        E 0 90 3a 67
        E 170 80 3a 00
        <X 92 0
          /wXDpMOk
        >
        E 0 90 37 67
        E 1293 80 37 00
        E 68 80 69 00
        E 1168 90 69 67
        E 0 90 74 67
        <X 72 0
          /wVNaS0=
        >
        E 0 90 3c 58
        E 165 80 3c 00
        <X 68 0
          /wVuw6Q=
        >
        E 0 90 3a 73
        E 148 80 3a 00
        <X 74 0
          /wVzaS0=
        >
        E 0 90 3a 6c
        E 211 80 3a 00
        <X 57 0
          /wVudWwt
        >
        E 0 90 3a 6c
        E 190 80 3a 00
        <X 37 0
          /wVsZQ==
        >
        E 0 90 3a 6c
        E 100 80 3a 00
        <X 163 0
          /wV0ZWgt
        >
        E 0 90 37 74
        E 225 80 37 00
        <X 228 0
          /wVkw6Q=
        >
        E 0 90 35 69
        E 126 80 35 00
        <X 99 0
          /wVqb3M=
        >
        E 0 90 35 69
        E 196 80 35 00
        <X 54 0
          /wVzYWkt
        >
        E 0 90 39 6f
        E 378 80 39 00
        <X 92 0
          /wVzaW4=
        >
        E 0 90 32 61
        E 394 80 32 00
        E 32 80 69 00
        E 0 80 74 00
        E 261 90 69 67
        <X 32 0
          /wVTaS0=
        >
        E 0 90 35 5e
        E 166 80 35 00
        <X 125 0
          /wV0w6Q=
        >
        E 0 90 35 3a
        E 137 80 35 00
        <X 73 0
          /wVtaS0=
        >
        E 0 90 32 60
        E 139 80 32 00
        <X 107 0
          /wV0w6Q=
        >
        E 0 90 30 57
        E 104 80 30 00
        <X 93 0
          /wVzaWwt
        >
        E 0 90 35 67
        E 430 80 35 00
        <X 107 0
          /wVsb2lu
        >
        E 0 90 35 67
        E 145 80 35 00
        <X 95 0
          /wVlbg==
        >
        E 0 90 37 67
        E 123 80 37 00
        <X 95 0
          /wVrZWgt
        >
        E 0 90 37 67
        E 216 80 37 00
        <X 242 0
          /wVkYW4t
        >
        E 0 90 37 67
        E 157 80 37 00
        <X 83 0
          /wVudXQ=
        >
        E 0 90 39 67
        E 86 80 39 00
        <X 154 0
          /wVreS0=
        >
        E 0 90 37 67
        E 150 80 37 00
        <X 82 0
          /wVzeS0=
        >
        E 0 90 39 67
        E 192 80 39 00
        <X 52 0
          /wXDpC0=
        >
        E 0 90 39 67
        E 219 80 39 00
        <X 276 0
          /wVrw6TDpG4=
        >
        E 0 90 37 67
        E 667 80 37 00
        E 18 80 69 00
        E 215 90 69 67
        <X 65 0
          /wVSaW4t
        >
        E 0 90 37 67
        E 194 80 37 00
        <X 75 0
          /wVub2lzLQ==
        >
        E 0 90 3a 67
        E 147 80 3a 00
        <X 80 0
          /wV0YQ==
        >
        E 0 90 39 67
        E 113 80 39 00
        <X 92 0
          /wVzdWE=
        >
        E 0 90 37 67
        E 367 80 37 00
        <X 156 0
          /wVwdS0=
        >
        E 0 90 35 67
        E 117 80 35 00
        <X 70 0
          /wVyaXMt
        >
        E 0 90 37 67
        E 159 80 37 00
        <X 120 0
          /wV0YWkt
        >
        E 0 90 39 67
        E 309 80 39 00
        <X 113 0
          /wVzaW4=
        >
        E 0 90 35 67
        E 571 80 35 00
        E 40 80 69 00
        E 368 90 69 67
        <X 52 0
          /wVLdW4=
        >
        E 0 90 35 67
        E 148 80 35 00
        <X 69 0
          /wVlaQ==
        >
        E 0 90 37 67
        E 168 80 37 00
        <X 61 0
          /wVuZQ==
        >
        E 0 90 35 67
        E 120 80 35 00
        <X 148 0
          /wVwaWkt
        >
        E 0 90 32 67
        E 423 80 32 00
        <X 61 0
          /wVsb3Mt
        >
        E 0 90 35 67
        E 177 80 35 00
        <X 63 0
          /wVzYQ==
        >
        E 0 90 34 67
        E 168 80 34 00
        <X 74 0
          /wV0YWgt
        >
        E 0 90 37 67
        E 222 80 37 00
        <X 232 0
          /wV0by0=
        >
        E 0 90 37 67
        E 146 80 37 00
        <X 74 0
          /wVuZWV0
        >
        E 0 90 39 67
        E 131 80 39 00
        <X 150 0
          /wVweS0=
        >
        E 0 90 39 67
        E 119 80 39 00
        <X 78 0
          /wVzeS0=
        >
        E 0 90 37 67
        E 191 80 37 00
        <X 82 0
          /wXDpC0=
        >
        E 0 90 35 67
        E 195 80 35 00
        <X 278 0
          /wVrw6TDpG4=
        >
        E 0 90 32 67
        E 836 80 32 00
        E 39 80 69 00
        E 261 90 69 67
        E 0 90 74 67
        E 2516 80 69 00
        E 0 80 74 00
        E 3238 90 69 67
        <X 106 0
          /wVFbg==
        >
        E 0 90 37 67
        E 131 80 37 00
        <X 83 0
          /wVlLQ==
        >
        E 0 90 39 67
        E 148 80 39 00
        <X 66 0
          /wVkZXM=
        >
        E 0 90 39 67
        E 141 80 39 00
        <X 121 0
          /wV0aWUt
        >
        E 0 90 3c 67
        E 196 80 3c 00
        <X 64 0
          /wVkw6Q=
        >
        E 0 90 3a 67
        E 81 80 3a 00
        <X 116 0
          /wVtaWst
        >
        E 0 90 3a 67
        E 102 80 3a 00
        <X 128 0
          /wVzaQ==
        >
        E 0 90 3c 67
        E 165 80 3c 00
        <X 130 0
          /wVraWkt
        >
        E 0 90 3a 67
        E 387 80 3a 00
        <X 124 0
          /wVob3Qt
        >
        E 0 90 39 67
        E 187 80 39 00
        <X 233 0
          /wV0YWE=
        >
        E 0 90 37 67
        E 1543 80 37 00
        E 48 80 69 00
        E 532 90 69 67
        E 3184 80 69 00
        E 445 90 69 67
        E 1498 80 69 00
        E 171 90 69 67
        E 0 90 74 67
        E 1641 80 69 00
        E 0 80 74 00
        E 59 90 69 67
        <X 576 0
          /wVraWluLQ==
        >
        E 0 90 39 67
        E 344 80 39 00
        <X 75 0
          /wVuaQ==
        >
        E 0 90 39 67
        E 104 80 39 00
        <X 99 0
          /wVzYWE=
        >
        E 0 90 37 67
        E 1103 80 37 00
        E 265 80 69 00
        E 1007 90 69 67
        <X 29 0
          /wVTZQ==
        >
        E 0 90 3c 67
        E 180 80 3c 00
        <X 77 0
          /wVuYWkt
        >
        E 0 90 3c 67
        E 179 80 3c 00
        <X 59 0
          /wVuZW4=
        >
        E 0 90 3c 67
        E 129 80 3c 00
        <X 123 0
          /wV1LQ==
        >
        E 0 90 3a 67
        E 167 80 3a 00
        <X 43 0
          /wVuaXMt
        >
        E 0 90 3a 67
        E 166 80 3a 00
        <X 53 0
          /wVzYS0=
        >
        E 0 90 3a 67
        E 185 80 3a 00
        <X 102 0
          /wVuaQ==
        >
        E 0 90 3c 67
        E 162 80 3c 00
        <X 63 0
          /wVsaWkt
        >
        E 0 90 3a 67
        E 380 80 3a 00
        <X 120 0
          /wVob3Qt
        >
        E 0 90 39 67
        E 152 80 39 00
        <X 307 0
          /wV0YWE=
        >
        E 0 90 37 67
        E 1252 80 37 00
        E 28 80 69 00
        E 783 90 69 67
        E 3316 80 69 00
        E 324 90 69 67
        E 0 90 74 67
        <X 1548 0
          /wVrdW4=
        >
        E 0 90 3a 67
        E 153 80 3a 00
        <X 64 0
          /wVlaQ==
        >
        E 0 90 3a 67
        E 140 80 3a 00
        <X 63 0
          /wV2YWF0LQ==
        >
        E 0 90 3a 67
        E 155 80 3a 00
        <X 135 0
          /wV0ZWkt
        >
        E 0 90 3a 67
        E 126 80 3a 00
        <X 89 0
          /wV0YQ==
        >
        E 0 90 3c 67
        E 138 80 3c 00
        <X 145 0
          /wV5bC0=
        >
        E 0 90 3a 67
        E 373 80 3a 00
        <X 62 0
          /wVsw6Q=
        >
        E 0 90 39 67
        E 141 80 39 00
        E 27 80 69 00
        E 0 80 74 00
        E 53 90 69 67
        <X 29 0
          /wVPLQ==
        >
        E 0 90 37 67
        E 129 80 37 00
        <X 48 0
          /wVsZQ==
        >
        E 0 90 37 67
        E 146 80 37 00
        <X 164 0
          /wVvbC0=
        >
        E 0 90 39 67
        E 361 80 39 00
        <X 100 0
          /wVsZW4t
        >
        E 0 90 39 67
        E 149 80 39 00
        <X 99 0
          /wVrYWFu
        >
        E 0 90 37 67
        E 1193 80 37 00
        E 38 80 69 00
        E 1319 90 69 67
        <X 79 0
          /wVNaS0=
        >
        E 0 90 3c 58
        E 165 80 3c 00
        <X 68 0
          /wVuw6Q=
        >
        E 0 90 3a 73
        E 148 80 3a 00
        <X 74 0
          /wVzaS0=
        >
        E 0 90 3a 6c
        E 211 80 3a 00
        <X 57 0
          /wVudWwt
        >
        E 0 90 3a 6c
        E 190 80 3a 00
        <X 37 0
          /wVsZQ==
        >
        E 0 90 3a 6c
        E 100 80 3a 00
        <X 177 0
          /wV0ZWgt
        >
        E 0 90 37 74
        E 211 80 37 00
        <X 228 0
          /wVkw6Q=
        >
        E 0 90 35 69
        E 126 80 35 00
        <X 99 0
          /wVqb3M=
        >
        E 0 90 35 69
        E 196 80 35 00
        <X 54 0
          /wVzYWkt
        >
        E 0 90 39 6f
        E 378 80 39 00
        <X 67 0
          /wVzaW4=
        >
        E 0 90 32 61
        E 419 80 32 00
        E 47 80 69 00
        E 168 90 69 67
        <X 76 0
          /wVTaS0=
        >
        E 0 90 35 5e
        E 175 80 35 00
        <X 98 0
          /wV0w6Q=
        >
        E 0 90 35 3a
        E 137 80 35 00
        <X 125 0
          /wVtaS0=
        >
        E 0 90 32 60
        E 112 80 32 00
        <X 134 0
          /wV0w6Q=
        >
        E 0 90 30 57
        E 104 80 30 00
        <X 93 0
          /wVzaWwt
        >
        E 0 90 35 67
        E 430 80 35 00
        <X 107 0
          /wVsb2lu
        >
        E 0 90 35 67
        E 145 80 35 00
        <X 95 0
          /wVlbg==
        >
        E 0 90 37 67
        E 123 80 37 00
        <X 95 0
          /wVrZWgt
        >
        E 0 90 37 67
        E 216 80 37 00
        <X 272 0
          /wVkYW4t
        >
        E 0 90 37 67
        E 136 80 37 00
        <X 86 0
          /wVudXQ=
        >
        E 0 90 39 67
        E 116 80 39 00
        <X 130 0
          /wVreS0=
        >
        E 0 90 37 67
        E 150 80 37 00
        <X 85 0
          /wVzeS0=
        >
        E 0 90 39 67
        E 227 80 39 00
        <X 60 0
          /wXDpC0=
        >
        E 0 90 39 67
        E 219 80 39 00
        <X 226 0
          /wVrw6TDpG4=
        >
        E 0 90 37 67
        E 620 80 37 00
        E 24 80 69 00
        E 228 90 69 67
        E 0 90 74 67
        <X 79 0
          /wVSaW4t
        >
        E 0 90 37 67
        E 159 80 37 00
        <X 110 0
          /wVub2lzLQ==
        >
        E 0 90 3a 67
        E 147 80 3a 00
        <X 80 0
          /wV0YQ==
        >
        E 0 90 39 67
        E 113 80 39 00
        <X 92 0
          /wVzdWE=
        >
        E 0 90 37 67
        E 367 80 37 00
        <X 156 0
          /wVwdS0=
        >
        E 0 90 35 67
        E 117 80 35 00
        <X 70 0
          /wVyaXMt
        >
        E 0 90 37 67
        E 159 80 37 00
        <X 120 0
          /wV0YWkt
        >
        E 0 90 39 67
        E 343 80 39 00
        <X 79 0
          /wVzaW4=
        >
        E 0 90 35 67
        E 524 80 35 00
        E 70 80 69 00
        E 0 80 74 00
        E 411 90 69 67
        <X 26 0
          /wVLdW4=
        >
        E 0 90 35 67
        E 148 80 35 00
        <X 69 0
          /wVlaQ==
        >
        E 0 90 37 67
        E 168 80 37 00
        <X 61 0
          /wVuZQ==
        >
        E 0 90 35 67
        E 120 80 35 00
        <X 148 0
          /wVwaWkt
        >
        E 0 90 32 67
        E 396 80 32 00
        <X 72 0
          /wVsb3Mt
        >
        E 0 90 35 67
        E 156 80 35 00
        <X 59 0
          /wVzYQ==
        >
        E 0 90 34 67
        E 168 80 34 00
        <X 119 0
          /wV0YWgt
        >
        E 0 90 37 67
        E 209 80 37 00
        <X 241 0
          /wV0by0=
        >
        E 0 90 37 67
        E 146 80 37 00
        <X 74 0
          /wVuZWV0
        >
        E 0 90 39 67
        E 158 80 39 00
        <X 123 0
          /wVweS0=
        >
        E 0 90 39 67
        E 119 80 39 00
        <X 78 0
          /wVzeS0=
        >
        E 0 90 37 67
        E 201 80 37 00
        <X 72 0
          /wXDpC0=
        >
        E 0 90 35 67
        E 195 80 35 00
        <X 278 0
          /wVrw6TDpG4=
        >
        E 0 90 32 67
        E 903 80 32 00
        E 20 80 69 00
        E 245 90 69 67
        E 2513 80 69 00
        E 1431 90 69 67
        <X 168 0
          /wVNaS0=
        >
        E 0 90 3c 58
        E 165 80 3c 00
        <X 68 0
          /wVuw6Q=
        >
        E 0 90 3a 73
        E 148 80 3a 00
        <X 74 0
          /wVzaS0=
        >
        E 0 90 3a 6c
        E 211 80 3a 00
        <X 57 0
          /wVudWwt
        >
        E 0 90 3a 6c
        E 190 80 3a 00
        <X 37 0
          /wVsZQ==
        >
        E 0 90 3a 6c
        E 110 80 3a 00
        <X 167 0
          /wV0ZWgt
        >
        E 0 90 37 74
        E 232 80 37 00
        <X 236 0
          /wVkw6Q=
        >
        E 0 90 35 69
        E 126 80 35 00
        <X 95 0
          /wVqb3M=
        >
        E 0 90 35 69
        E 171 80 35 00
        <X 73 0
          /wVzYWkt
        >
        E 0 90 39 6f
        E 359 80 39 00
        <X 88 0
          /wVzaW4=
        >
        E 0 90 32 61
        E 415 80 32 00
        E 23 80 69 00
        E 243 90 69 67
        <X 41 0
          /wVTaS0=
        >
        E 0 90 35 5e
        E 161 80 35 00
        <X 111 0
          /wV0w6Q=
        >
        E 0 90 35 3a
        E 149 80 35 00
        <X 106 0
          /wVtaS0=
        >
        E 0 90 32 60
        E 112 80 32 00
        <X 109 0
          /wV0w6Q=
        >
        E 0 90 30 57
        E 117 80 30 00
        <X 105 0
          /wVzaWwt
        >
        E 0 90 35 67
        E 434 80 35 00
        <X 91 0
          /wVsb2lu
        >
        E 0 90 35 67
        E 132 80 35 00
        <X 95 0
          /wVlbg==
        >
        E 0 90 37 67
        E 123 80 37 00
        <X 139 0
          /wVrZWgt
        >
        E 0 90 37 67
        E 216 80 37 00
        <X 255 0
          /wVkYW4t
        >
        E 0 90 37 67
        E 150 80 37 00
        <X 77 0
          /wVudXQ=
        >
        E 0 90 39 67
        E 99 80 39 00
        <X 156 0
          /wVreS0=
        >
        E 0 90 37 67
        E 150 80 37 00
        <X 82 0
          /wVzeS0=
        >
        E 0 90 39 67
        E 192 80 39 00
        <X 52 0
          /wXDpC0=
        >
        E 0 90 39 67
        E 219 80 39 00
        <X 234 0
          /wVrw6TDpG4=
        >
        E 0 90 37 67
        E 636 80 37 00
        E 34 80 69 00
        E 281 90 69 67
        <X 32 0
          /wVSaW4t
        >
        E 0 90 37 67
        E 159 80 37 00
        <X 92 0
          /wVub2lzLQ==
        >
        E 0 90 3a 67
        E 147 80 3a 00
        <X 86 0
          /wV0YQ==
        >
        E 0 90 39 67
        E 113 80 39 00
        <X 100 0
          /wVzdWE=
        >
        E 0 90 37 67
        E 376 80 37 00
        <X 141 0
          /wVwdS0=
        >
        E 0 90 35 67
        E 117 80 35 00
        <X 70 0
          /wVyaXMt
        >
        E 0 90 37 67
        E 174 80 37 00
        <X 122 0
          /wV0YWkt
        >
        E 0 90 39 67
        E 328 80 39 00
        <X 96 0
          /wVzaW4=
        >
        E 0 90 35 67
        E 531 80 35 00
        E 18 80 69 00
        E 431 90 69 67
        <X 46 0
          /wVLdW4=
        >
        E 0 90 35 67
        E 148 80 35 00
        <X 69 0
          /wVlaQ==
        >
        E 0 90 37 67
        E 168 80 37 00
        <X 61 0
          /wVuZQ==
        >
        E 0 90 35 67
        E 120 80 35 00
        <X 148 0
          /wVwaWkt
        >
        E 0 90 32 67
        E 333 80 32 00
        <X 76 0
          /wVsb3Mt
        >
        E 0 90 35 67
        E 177 80 35 00
        <X 63 0
          /wVzYQ==
        >
        E 0 90 34 67
        E 168 80 34 00
        <X 122 0
          /wV0YWgt
        >
        E 0 90 37 67
        E 209 80 37 00
        <X 272 0
          /wV0by0=
        >
        E 0 90 37 67
        E 146 80 37 00
        <X 74 0
          /wVuZWV0
        >
        E 0 90 39 67
        E 131 80 39 00
        <X 150 0
          /wVweS0=
        >
        E 0 90 39 67
        E 119 80 39 00
        <X 78 0
          /wVzeS0=
        >
        E 0 90 37 67
        E 191 80 37 00
        <X 82 0
          /wXDpC0=
        >
        E 0 90 35 67
        E 195 80 35 00
        <X 278 0
          /wVrw6TDpG4=
        >
        E 0 90 32 67
        E 848 80 32 00
        E 45 80 69 00
        E 115 90 69 67
        E 2640 80 69 00
        <X 424 0
          /wFbaWRsZV9yZWFsdGltZV0=
        >
        E 24735 b0 7b 00
        GUID {E53B89F8-ECC8-4A25-86E2-BC4D240C9444}
        IGNTEMPO 0 120.00000000 4 4
        SRCCOLOR 1240
        VELLANE 132 128 60
        COLORMAP "C:\Users\me\AppData\Roaming\REAPER\Data\color_maps\rockband_vox-other.png"
        TEXTSTRINGFILE "C:\Program Files\REAPER\Data\Text_Strings\Text Events List.txt"
        CFGEDITVIEW 72331.985642 164.467839 21 12 0 0 0
        CFGEDIT 1 1 0 1 1 1 1 1 1 1 1 0.06250000 -8 -8 1374 736 1 2 1 2 0.00000000 0 0 0 0 0.500000 1 0 1.000000 64
        KEYSNAP 0 0 "102034050607" 0 "Major"
        EVTFILTER 0 -1 -1 -1 -1 0 1 0 0 -1.00000000 -1.00000000
      >
    >
  >
  <TRACK '{58A7B9C6-1373-47A1-A41A-295306551BF7}'
    NAME "DRYVOX2"
    PEAKCOL 16576
    BEAT -1
    AUTOMODE 0
    VOLPAN 1.00000000000000 0.00000000000000 -1.00000000000000 -1.00000000000000 1.00000000000000
    MUTESOLO 1 0 0
    IPHASE 0
    ISBUS 0 0
    BUSCOMP 0 0
    SHOWINMIX 1 0.666700 0.500000 1 0.500000 -1 -1 -1
    FREEMODE 0
    SEL 0
    REC 0 0 0 0 0 0 0
    TRACKHEIGHT 0 0
    INQ 0 0 0 0.5000000000 100 0 0 100
    NCHAN 2
    FX 1
    TRACKID {58A7B9C6-1373-47A1-A41A-295306551BF7}
    PERF 0
    MIDIOUT -1
    MAINSEND 1 0
    <FXCHAIN
      SHOW 0
      LASTSEL 0
      DOCKED 0
      BYPASS 0 0
      <VST "VST: ReaGate (Cockos)" "reagate.dll" 0 ""
        dGdlcu9e7f4EAAAAAQAAAAAAAAACAAAAAAAAAAQAAAAAAAAACAAAAA==
        AAAAAAIAAAABAAAAAAAAAAIAAAAAAAAAVAAAAAAAAAAAABAA776t3g==
        DfCt3pzRBzOmm8Q7CtejPAAAAAAAAAAAAACAPwAAAAAAAAAAAAAAAA==
        nNEHMx5Ucz+c0QczAACAPwAAAAAAAAAAAAAAACwWCz8AAAAAAAAAAA==
        AAAQAAAA
      >
      FLOATPOS 859 184 511 385
      FXID {BF545B5B-7DD0-4B4C-AC52-F095A552DA08}
      WAK 0
    >
  >
  <TRACK '{4299BF31-E988-4C64-900A-97AC9ECE5EBC}'
    NAME "HARM3"
    PEAKCOL 24624127
    BEAT -1
    AUTOMODE 0
    VOLPAN 1.00000000000000 0.00000000000000 -1.00000000000000 -1.00000000000000 1.00000000000000
    MUTESOLO 0 0 0
    IPHASE 0
    ISBUS 0 0
    BUSCOMP 0 0
    SHOWINMIX 1 0.666700 0.500000 1 0.500000 -1 -1 -1
    FREEMODE 0
    SEL 0
    REC 0 0 0 0 0 0 0
    TRACKHEIGHT 0 0
    INQ 0 0 0 0.5000000000 100 0 0 100
    NCHAN 2
    FX 1
    TRACKID {4299BF31-E988-4C64-900A-97AC9ECE5EBC}
    PERF 0
    MIDIOUT -1
    <MIDINOTENAMES
      0 0 "Range Shift"
      0 1 "Lyric Shift"
      0 35 "----"
      0 36 "C1"
      0 37 "C#"
      0 38 "D"
      0 39 "Eb"
      0 40 "E"
      0 41 "F"
      0 42 "F#"
      0 43 "G"
      0 44 "G#"
      0 45 "A"
      0 46 "Bb"
      0 47 "B"
      0 48 "C2"
      0 49 "C#"
      0 50 "D"
      0 51 "Eb"
      0 52 "E"
      0 53 "F"
      0 54 "F#"
      0 55 "G"
      0 56 "G#"
      0 57 "A"
      0 58 "Bb"
      0 59 "B"
      0 60 "C3"
      0 61 "C#"
      0 62 "D"
      0 63 "Eb"
      0 64 "E"
      0 65 "F"
      0 66 "F#"
      0 67 "G"
      0 68 "G#"
      0 69 "A"
      0 70 "Bb"
      0 71 "B"
      0 72 "C4"
      0 73 "C#"
      0 74 "D"
      0 75 "Eb"
      0 76 "E"
      0 77 "F"
      0 78 "F#"
      0 79 "G"
      0 80 "G#"
      0 81 "A"
      0 82 "Bb"
      0 83 "B"
      0 84 "C5"
      0 116 "OVERDRIVE"
      0 115 "----"
      0 105 "Phrase Marker"
      0 104 "----"
      0 97 "Not Displayed Percussion"
      0 96 "Displayed Percussion"
      0 95 "----"
    >
    MAINSEND 1 0
    <FXCHAIN
      WNDRECT 0 42 716 493
      SHOW 0
      LASTSEL 1
      DOCKED 0
      BYPASS 0 0
      <JS "IX/MIDI_Tool II" ""
        0.000000 85.000000 127.000000 0.000000 0.000000 0.000000 100.000000 0.000000 0.000000 127.000000 0.000000 0.000000 1.000000 0.000000 0.000000 - - - - - - - - - - - - - - - - - - - - - - - - - - - - - - - - - - - - - - - - - - - - - - - - - 
      >
      FLOATPOS 0 0 0 0
      FXID {3D33E2FB-5DDE-4F81-B16F-BCB1EAD8D4FA}
      WAK 0
      BYPASS 0 0
      <VST "VSTi: ReaSynth (Cockos)" "reasynth.dll" 0 ""
        eXNlcu9e7f4AAAAAAgAAAAEAAAAAAAAAAgAAAAAAAAA4AAAAAAAAAA==
        AAAAAO++rd4N8K3eppvEOxe30ToAAAAAAAAAAAAAAACa9Q8/6WeIPQ==
        AAAAAAAAAD8AAIA/AAAAAAAAAD8AAAAAAAA=
      >
      FLOATPOS 0 0 0 0
      FXID {98E235B6-3365-4F58-AC74-F5BD513BFA85}
      WAK 0
    >
    <ITEM
      POSITION 0.00000000000000
      SNAPOFFS 0.00000000000000
      LENGTH 204.98454157323775
      LOOP 0
      ALLTAKES 0
      SEL 0
      FADEIN 1 0.000000 0.000000 1 0
      FADEOUT 1 0.000000 0.000000 1 0
      MUTE 0
      IGUID {14DAFADF-64E7-40FA-8E65-65BBB77CBDB7}
      IID 13
      NAME "HARM3 untitled MIDI item"
      VOLPAN 1.000000 0.000000 1.000000 -1.000000
      SOFFS 0.00000000000000 0.00000000000000
      PLAYRATE 1.00000000000000 1 0.00000000000000 -1
      CHANMODE 0
      GUID {BA30FF02-694D-4D9D-9D54-87AECA42C3BA}
      <SOURCE MIDI
        HASDATA 1 480 QN
        POOLEDEVTS {D6637E9F-0CB8-4111-88D9-C568EB9C4A3F}
        <X 0 0
          /wNIQVJNMw==
        >
        <X 3840 0
          /wFbaWRsZV0=
        >
        <X 5760 0
          /wFbbWVsbG93XQ==
        >
        E 1381 90 69 67
        <X 56 0
          /wVNaS0=
        >
        E 0 90 32 58
        E 165 80 32 00
        <X 68 0
          /wVuw6Q=
        >
        E 0 90 30 73
        E 148 80 30 00
        <X 74 0
          /wVzaS0=
        >
        E 0 90 30 6c
        E 211 80 30 00
        <X 57 0
          /wVudWwt
        >
        E 0 90 30 6c
        E 190 80 30 00
        <X 37 0
          /wVsZQ==
        >
        E 0 90 30 6c
        E 100 80 30 00
        <X 177 0
          /wV0ZWgt
        >
        E 0 90 2d 74
        E 211 80 2d 00
        <X 228 0
          /wVkw6Q=
        >
        E 0 90 2b 69
        E 126 80 2b 00
        <X 99 0
          /wVqb3M=
        >
        E 0 90 2b 69
        E 184 80 2b 00
        <X 66 0
          /wVzYWkt
        >
        E 0 90 2f 6f
        E 378 80 2f 00
        <X 67 0
          /wVzaW4=
        >
        E 0 90 28 61
        E 419 80 28 00
        E 52 80 69 00
        E 186 90 69 67
        <X 53 0
          /wVTaS0=
        >
        E 0 90 2b 5e
        E 175 80 2b 00
        <X 98 0
          /wV0w6Q=
        >
        E 0 90 2b 3a
        E 137 80 2b 00
        <X 125 0
          /wVtaS0=
        >
        E 0 90 28 60
        E 112 80 28 00
        <X 134 0
          /wV0w6Q=
        >
        E 0 90 26 57
        E 104 80 26 00
        <X 93 0
          /wVzaWwt
        >
        E 0 90 2b 67
        E 430 80 2b 00
        <X 107 0
          /wVsb2lu
        >
        E 0 90 2b 67
        E 145 80 2b 00
        <X 95 0
          /wVlbg==
        >
        E 0 90 2d 67
        E 123 80 2d 00
        <X 95 0
          /wVrZWgt
        >
        E 0 90 2d 67
        E 216 80 2d 00
        <X 242 0
          /wVkYW4t
        >
        E 0 90 2d 67
        E 157 80 2d 00
        <X 83 0
          /wVudXQ=
        >
        E 0 90 2f 67
        E 86 80 2f 00
        <X 154 0
          /wVreS0=
        >
        E 0 90 2d 67
        E 150 80 2d 00
        <X 82 0
          /wVzeS0=
        >
        E 0 90 2f 67
        E 248 80 2f 00
        <X 46 0
          /wXDpC0=
        >
        E 0 90 2f 67
        E 169 80 2f 00
        <X 266 0
          /wVrw6TDpG4=
        >
        E 0 90 2d 67
        E 589 80 2d 00
        E 44 80 69 00
        E 278 90 69 67
        <X 64 0
          /wVSaW4t
        >
        E 0 90 2d 67
        E 159 80 2d 00
        <X 110 0
          /wVub2lzLQ==
        >
        E 0 90 30 67
        E 147 80 30 00
        <X 80 0
          /wV0YQ==
        >
        E 0 90 2f 67
        E 113 80 2f 00
        <X 92 0
          /wVzdWE=
        >
        E 0 90 2d 67
        E 367 80 2d 00
        <X 156 0
          /wVwdS0=
        >
        E 0 90 2b 67
        E 117 80 2b 00
        <X 70 0
          /wVyaXMt
        >
        E 0 90 2d 67
        E 159 80 2d 00
        <X 120 0
          /wV0YWkt
        >
        E 0 90 2f 67
        E 309 80 2f 00
        <X 113 0
          /wVzaW4=
        >
        E 0 90 2b 67
        E 491 80 2b 00
        E 67 80 69 00
        E 412 90 69 67
        E 0 90 74 67
        <X 61 0
          /wVLdW4=
        >
        E 0 90 2b 67
        E 148 80 2b 00
        <X 69 0
          /wVlaQ==
        >
        E 0 90 2d 67
        E 168 80 2d 00
        <X 61 0
          /wVuZQ==
        >
        E 0 90 2b 67
        E 120 80 2b 00
        <X 148 0
          /wVwaWkt
        >
        E 0 90 28 67
        E 333 80 28 00
        <X 76 0
          /wVsb3Mt
        >
        E 0 90 2b 67
        E 177 80 2b 00
        <X 63 0
          /wVzYQ==
        >
        E 0 90 2a 67
        E 168 80 2a 00
        <X 122 0
          /wV0YWgt
        >
        E 0 90 2d 67
        E 209 80 2d 00
        <X 272 0
          /wV0by0=
        >
        E 0 90 2d 67
        E 146 80 2d 00
        <X 74 0
          /wVuZWV0
        >
        E 0 90 2f 67
        E 131 80 2f 00
        <X 150 0
          /wVweS0=
        >
        E 0 90 2f 67
        E 119 80 2f 00
        <X 78 0
          /wVzeS0=
        >
        E 0 90 2d 67
        E 191 80 2d 00
        <X 82 0
          /wXDpC0=
        >
        E 0 90 2b 67
        E 195 80 2b 00
        <X 278 0
          /wVrw6TDpG4=
        >
        E 0 90 28 67
        E 836 80 28 00
        E 54 80 69 00
        E 0 80 74 00
        E 257 90 69 67
        E 2558 80 69 00
        E 3428 90 69 67
        <X 56 0
          /wVTaS0=
        >
        E 0 90 2f 67
        E 198 80 2f 00
        <X 54 0
          /wVuw6Q=
        >
        E 0 90 2f 67
        E 160 80 2f 00
        <X 113 0
          /wV0eS0=
        >
        E 0 90 30 67
        E 143 80 30 00
        <X 86 0
          /wVwZS0=
        >
        E 0 90 30 67
        E 160 80 30 00
        <X 57 0
          /wVyw6Q=
        >
        E 0 90 32 67
        E 178 80 32 00
        <X 80 0
          /wVvbC0=
        >
        E 0 90 30 67
        E 408 80 30 00
        <X 65 0
          /wVsYQ==
        >
        E 0 90 2f 67
        E 212 80 2f 00
        <X 171 0
          /wVzYWF0
        >
        E 0 90 2d 67
        E 1657 80 2d 00
        E 48 80 69 00
        E 986 90 69 67
        E 2958 80 69 00
        E 37 90 69 67
        E 0 90 74 67
        E 1820 80 69 00
        E 0 80 74 00
        E 204 90 69 67
        E 1646 80 69 00
        E 21 90 69 67
        <X 588 0
          /wVqw6RyLQ==
        >
        E 0 90 2f 67
        E 340 80 2f 00
        <X 108 0
          /wVrZS0=
        >
        E 0 90 30 67
        E 170 80 30 00
        <X 116 0
          /wV2w6TDpA==
        >
        E 0 90 2d 67
        E 1165 80 2d 00
        E 79 80 69 00
        E 1085 90 69 67
        <X 35 0
          /wVOZQ==
        >
        E 0 90 32 67
        E 94 80 32 00
        <X 95 0
          /wVzaS0=
        >
        E 0 90 32 67
        E 164 80 32 00
        <X 56 0
          /wVudW4=
        >
        E 0 90 32 67
        E 221 80 32 00
        <X 58 0
          /wVtdW8t
        >
        E 0 90 30 67
        E 383 80 30 00
        <X 99 0
          /wV0by0=
        >
        E 0 90 30 67
        E 109 80 30 00
        <X 85 0
          /wVzaQ==
        >
        E 0 90 32 67
        E 168 80 32 00
        <X 144 0
          /wVrdXIt
        >
        E 0 90 30 67
        E 363 80 30 00
        <X 99 0
          /wV2aWst
        >
        E 0 90 2f 67
        E 202 80 2f 00
        <X 252 0
          /wVrYWF0
        >
        E 0 90 2d 67
        E 1560 80 2d 00
        E 28 80 69 00
        E 758 90 69 67
        E 0 90 74 67
        E 2958 80 69 00
        E 0 80 74 00
        E 228 90 69 67
        E 1679 80 69 00
        E 240 90 69 67
        <X 50 0
          /wVOaWlu
        >
        E 0 90 30 67
        E 146 80 30 00
        <X 102 0
          /wVtdXU=
        >
        E 0 90 30 67
        E 168 80 30 00
        <X 87 0
          /wVvLQ==
        >
        E 0 90 30 67
        E 130 80 30 00
        <X 64 0
          /wVsaQ==
        >
        E 0 90 32 67
        E 138 80 32 00
        <X 121 0
          /wV0dXMt
        >
        E 0 90 30 67
        E 310 80 30 00
        <X 164 0
          /wVraW4=
        >
        E 0 90 2f 67
        E 141 80 2f 00
        E 25 80 69 00
        E 61 90 69 67
        <X 16 0
          /wVZaC0=
        >
        E 0 90 32 67
        E 116 80 32 00
        <X 143 0
          /wV0w6Q=
        >
        E 0 90 2b 67
        E 131 80 2b 00
        <X 127 0
          /wV0w6RyLQ==
        >
        E 0 90 2f 67
        E 316 80 2f 00
        <X 125 0
          /wVrZS0=
        >
        E 0 90 30 67
        E 170 80 30 00
        <X 92 0
          /wXDpMOk
        >
        E 0 90 2d 67
        E 1293 80 2d 00
        E 68 80 69 00
        E 1168 90 69 67
        E 0 90 74 67
        <X 72 0
          /wVNaS0=
        >
        E 0 90 32 58
        E 165 80 32 00
        <X 68 0
          /wVuw6Q=
        >
        E 0 90 30 73
        E 148 80 30 00
        <X 74 0
          /wVzaS0=
        >
        E 0 90 30 6c
        E 211 80 30 00
        <X 57 0
          /wVudWwt
        >
        E 0 90 30 6c
        E 190 80 30 00
        <X 37 0
          /wVsZQ==
        >
        E 0 90 30 6c
        E 100 80 30 00
        <X 163 0
          /wV0ZWgt
        >
        E 0 90 2d 74
        E 225 80 2d 00
        <X 228 0
          /wVkw6Q=
        >
        E 0 90 2b 69
        E 126 80 2b 00
        <X 99 0
          /wVqb3M=
        >
        E 0 90 2b 69
        E 196 80 2b 00
        <X 54 0
          /wVzYWkt
        >
        E 0 90 2f 6f
        E 378 80 2f 00
        <X 92 0
          /wVzaW4=
        >
        E 0 90 28 61
        E 394 80 28 00
        E 32 80 69 00
        E 0 80 74 00
        E 261 90 69 67
        <X 32 0
          /wVTaS0=
        >
        E 0 90 2b 5e
        E 166 80 2b 00
        <X 125 0
          /wV0w6Q=
        >
        E 0 90 2b 3a
        E 137 80 2b 00
        <X 73 0
          /wVtaS0=
        >
        E 0 90 28 60
        E 139 80 28 00
        <X 107 0
          /wV0w6Q=
        >
        E 0 90 26 57
        E 104 80 26 00
        <X 93 0
          /wVzaWwt
        >
        E 0 90 2b 67
        E 430 80 2b 00
        <X 107 0
          /wVsb2lu
        >
        E 0 90 2b 67
        E 145 80 2b 00
        <X 95 0
          /wVlbg==
        >
        E 0 90 2d 67
        E 123 80 2d 00
        <X 95 0
          /wVrZWgt
        >
        E 0 90 2d 67
        E 216 80 2d 00
        <X 242 0
          /wVkYW4t
        >
        E 0 90 2d 67
        E 157 80 2d 00
        <X 83 0
          /wVudXQ=
        >
        E 0 90 2f 67
        E 86 80 2f 00
        <X 154 0
          /wVreS0=
        >
        E 0 90 2d 67
        E 150 80 2d 00
        <X 82 0
          /wVzeS0=
        >
        E 0 90 2f 67
        E 192 80 2f 00
        <X 52 0
          /wXDpC0=
        >
        E 0 90 2f 67
        E 219 80 2f 00
        <X 276 0
          /wVrw6TDpG4=
        >
        E 0 90 2d 67
        E 667 80 2d 00
        E 18 80 69 00
        E 215 90 69 67
        <X 65 0
          /wVSaW4t
        >
        E 0 90 2d 67
        E 194 80 2d 00
        <X 75 0
          /wVub2lzLQ==
        >
        E 0 90 30 67
        E 147 80 30 00
        <X 80 0
          /wV0YQ==
        >
        E 0 90 2f 67
        E 113 80 2f 00
        <X 92 0
          /wVzdWE=
        >
        E 0 90 2d 67
        E 367 80 2d 00
        <X 156 0
          /wVwdS0=
        >
        E 0 90 2b 67
        E 117 80 2b 00
        <X 70 0
          /wVyaXMt
        >
        E 0 90 2d 67
        E 159 80 2d 00
        <X 120 0
          /wV0YWkt
        >
        E 0 90 2f 67
        E 309 80 2f 00
        <X 113 0
          /wVzaW4=
        >
        E 0 90 2b 67
        E 571 80 2b 00
        E 40 80 69 00
        E 368 90 69 67
        <X 52 0
          /wVLdW4=
        >
        E 0 90 2b 67
        E 148 80 2b 00
        <X 69 0
          /wVlaQ==
        >
        E 0 90 2d 67
        E 168 80 2d 00
        <X 61 0
          /wVuZQ==
        >
        E 0 90 2b 67
        E 120 80 2b 00
        <X 148 0
          /wVwaWkt
        >
        E 0 90 28 67
        E 423 80 28 00
        <X 61 0
          /wVsb3Mt
        >
        E 0 90 2b 67
        E 177 80 2b 00
        <X 63 0
          /wVzYQ==
        >
        E 0 90 2a 67
        E 168 80 2a 00
        <X 74 0
          /wV0YWgt
        >
        E 0 90 2d 67
        E 222 80 2d 00
        <X 232 0
          /wV0by0=
        >
        E 0 90 2d 67
        E 146 80 2d 00
        <X 74 0
          /wVuZWV0
        >
        E 0 90 2f 67
        E 131 80 2f 00
        <X 150 0
          /wVweS0=
        >
        E 0 90 2f 67
        E 119 80 2f 00
        <X 78 0
          /wVzeS0=
        >
        E 0 90 2d 67
        E 191 80 2d 00
        <X 82 0
          /wXDpC0=
        >
        E 0 90 2b 67
        E 195 80 2b 00
        <X 278 0
          /wVrw6TDpG4=
        >
        E 0 90 28 67
        E 836 80 28 00
        E 39 80 69 00
        E 261 90 69 67
        E 0 90 74 67
        E 2516 80 69 00
        E 0 80 74 00
        E 3238 90 69 67
        <X 106 0
          /wVFbg==
        >
        E 0 90 2d 67
        E 131 80 2d 00
        <X 83 0
          /wVlLQ==
        >
        E 0 90 2f 67
        E 148 80 2f 00
        <X 66 0
          /wVkZXM=
        >
        E 0 90 2f 67
        E 141 80 2f 00
        <X 121 0
          /wV0aWUt
        >
        E 0 90 32 67
        E 196 80 32 00
        <X 64 0
          /wVkw6Q=
        >
        E 0 90 30 67
        E 81 80 30 00
        <X 116 0
          /wVtaWst
        >
        E 0 90 30 67
        E 102 80 30 00
        <X 128 0
          /wVzaQ==
        >
        E 0 90 32 67
        E 165 80 32 00
        <X 130 0
          /wVraWkt
        >
        E 0 90 30 67
        E 387 80 30 00
        <X 124 0
          /wVob3Qt
        >
        E 0 90 2f 67
        E 187 80 2f 00
        <X 233 0
          /wV0YWE=
        >
        E 0 90 2d 67
        E 1543 80 2d 00
        E 48 80 69 00
        E 532 90 69 67
        E 3184 80 69 00
        E 445 90 69 67
        E 1498 80 69 00
        E 171 90 69 67
        E 0 90 74 67
        E 1641 80 69 00
        E 0 80 74 00
        E 59 90 69 67
        <X 576 0
          /wVraWluLQ==
        >
        E 0 90 2f 67
        E 344 80 2f 00
        <X 75 0
          /wVuaQ==
        >
        E 0 90 2f 67
        E 104 80 2f 00
        <X 99 0
          /wVzYWE=
        >
        E 0 90 2d 67
        E 1103 80 2d 00
        E 265 80 69 00
        E 1007 90 69 67
        <X 29 0
          /wVTZQ==
        >
        E 0 90 32 67
        E 180 80 32 00
        <X 77 0
          /wVuYWkt
        >
        E 0 90 32 67
        E 179 80 32 00
        <X 59 0
          /wVuZW4=
        >
        E 0 90 32 67
        E 129 80 32 00
        <X 123 0
          /wV1LQ==
        >
        E 0 90 30 67
        E 167 80 30 00
        <X 43 0
          /wVuaXMt
        >
        E 0 90 30 67
        E 166 80 30 00
        <X 53 0
          /wVzYS0=
        >
        E 0 90 30 67
        E 185 80 30 00
        <X 102 0
          /wVuaQ==
        >
        E 0 90 32 67
        E 162 80 32 00
        <X 63 0
          /wVsaWkt
        >
        E 0 90 30 67
        E 380 80 30 00
        <X 120 0
          /wVob3Qt
        >
        E 0 90 2f 67
        E 152 80 2f 00
        <X 307 0
          /wV0YWE=
        >
        E 0 90 2d 67
        E 1252 80 2d 00
        E 28 80 69 00
        E 783 90 69 67
        E 3316 80 69 00
        E 324 90 69 67
        E 0 90 74 67
        <X 1548 0
          /wVrdW4=
        >
        E 0 90 30 67
        E 153 80 30 00
        <X 64 0
          /wVlaQ==
        >
        E 0 90 30 67
        E 140 80 30 00
        <X 63 0
          /wV2YWF0LQ==
        >
        E 0 90 30 67
        E 155 80 30 00
        <X 135 0
          /wV0ZWkt
        >
        E 0 90 30 67
        E 126 80 30 00
        <X 89 0
          /wV0YQ==
        >
        E 0 90 32 67
        E 138 80 32 00
        <X 145 0
          /wV5bC0=
        >
        E 0 90 30 67
        E 373 80 30 00
        <X 62 0
          /wVsw6Q=
        >
        E 0 90 2f 67
        E 141 80 2f 00
        E 27 80 69 00
        E 0 80 74 00
        E 53 90 69 67
        <X 29 0
          /wVPLQ==
        >
        E 0 90 2d 67
        E 129 80 2d 00
        <X 48 0
          /wVsZQ==
        >
        E 0 90 2d 67
        E 146 80 2d 00
        <X 164 0
          /wVvbC0=
        >
        E 0 90 2f 67
        E 361 80 2f 00
        <X 100 0
          /wVsZW4t
        >
        E 0 90 2f 67
        E 149 80 2f 00
        <X 99 0
          /wVrYWFu
        >
        E 0 90 2d 67
        E 1193 80 2d 00
        E 38 80 69 00
        E 1319 90 69 67
        <X 79 0
          /wVNaS0=
        >
        E 0 90 32 58
        E 165 80 32 00
        <X 68 0
          /wVuw6Q=
        >
        E 0 90 30 73
        E 148 80 30 00
        <X 74 0
          /wVzaS0=
        >
        E 0 90 30 6c
        E 211 80 30 00
        <X 57 0
          /wVudWwt
        >
        E 0 90 30 6c
        E 190 80 30 00
        <X 37 0
          /wVsZQ==
        >
        E 0 90 30 6c
        E 100 80 30 00
        <X 177 0
          /wV0ZWgt
        >
        E 0 90 2d 74
        E 211 80 2d 00
        <X 228 0
          /wVkw6Q=
        >
        E 0 90 2b 69
        E 126 80 2b 00
        <X 99 0
          /wVqb3M=
        >
        E 0 90 2b 69
        E 196 80 2b 00
        <X 54 0
          /wVzYWkt
        >
        E 0 90 2f 6f
        E 378 80 2f 00
        <X 67 0
          /wVzaW4=
        >
        E 0 90 28 61
        E 419 80 28 00
        E 47 80 69 00
        E 168 90 69 67
        <X 76 0
          /wVTaS0=
        >
        E 0 90 2b 5e
        E 175 80 2b 00
        <X 98 0
          /wV0w6Q=
        >
        E 0 90 2b 3a
        E 137 80 2b 00
        <X 125 0
          /wVtaS0=
        >
        E 0 90 28 60
        E 112 80 28 00
        <X 134 0
          /wV0w6Q=
        >
        E 0 90 26 57
        E 104 80 26 00
        <X 93 0
          /wVzaWwt
        >
        E 0 90 2b 67
        E 430 80 2b 00
        <X 107 0
          /wVsb2lu
        >
        E 0 90 2b 67
        E 145 80 2b 00
        <X 95 0
          /wVlbg==
        >
        E 0 90 2d 67
        E 123 80 2d 00
        <X 95 0
          /wVrZWgt
        >
        E 0 90 2d 67
        E 216 80 2d 00
        <X 272 0
          /wVkYW4t
        >
        E 0 90 2d 67
        E 136 80 2d 00
        <X 86 0
          /wVudXQ=
        >
        E 0 90 2f 67
        E 116 80 2f 00
        <X 130 0
          /wVreS0=
        >
        E 0 90 2d 67
        E 150 80 2d 00
        <X 85 0
          /wVzeS0=
        >
        E 0 90 2f 67
        E 227 80 2f 00
        <X 60 0
          /wXDpC0=
        >
        E 0 90 2f 67
        E 219 80 2f 00
        <X 226 0
          /wVrw6TDpG4=
        >
        E 0 90 2d 67
        E 620 80 2d 00
        E 24 80 69 00
        E 228 90 69 67
        E 0 90 74 67
        <X 79 0
          /wVSaW4t
        >
        E 0 90 2d 67
        E 159 80 2d 00
        <X 110 0
          /wVub2lzLQ==
        >
        E 0 90 30 67
        E 147 80 30 00
        <X 80 0
          /wV0YQ==
        >
        E 0 90 2f 67
        E 113 80 2f 00
        <X 92 0
          /wVzdWE=
        >
        E 0 90 2d 67
        E 367 80 2d 00
        <X 156 0
          /wVwdS0=
        >
        E 0 90 2b 67
        E 117 80 2b 00
        <X 70 0
          /wVyaXMt
        >
        E 0 90 2d 67
        E 159 80 2d 00
        <X 120 0
          /wV0YWkt
        >
        E 0 90 2f 67
        E 343 80 2f 00
        <X 79 0
          /wVzaW4=
        >
        E 0 90 2b 67
        E 524 80 2b 00
        E 70 80 69 00
        E 0 80 74 00
        E 411 90 69 67
        <X 26 0
          /wVLdW4=
        >
        E 0 90 2b 67
        E 148 80 2b 00
        <X 69 0
          /wVlaQ==
        >
        E 0 90 2d 67
        E 168 80 2d 00
        <X 61 0
          /wVuZQ==
        >
        E 0 90 2b 67
        E 120 80 2b 00
        <X 148 0
          /wVwaWkt
        >
        E 0 90 28 67
        E 396 80 28 00
        <X 72 0
          /wVsb3Mt
        >
        E 0 90 2b 67
        E 156 80 2b 00
        <X 59 0
          /wVzYQ==
        >
        E 0 90 2a 67
        E 168 80 2a 00
        <X 119 0
          /wV0YWgt
        >
        E 0 90 2d 67
        E 209 80 2d 00
        <X 241 0
          /wV0by0=
        >
        E 0 90 2d 67
        E 146 80 2d 00
        <X 74 0
          /wVuZWV0
        >
        E 0 90 2f 67
        E 158 80 2f 00
        <X 123 0
          /wVweS0=
        >
        E 0 90 2f 67
        E 119 80 2f 00
        <X 78 0
          /wVzeS0=
        >
        E 0 90 2d 67
        E 201 80 2d 00
        <X 72 0
          /wXDpC0=
        >
        E 0 90 2b 67
        E 195 80 2b 00
        <X 278 0
          /wVrw6TDpG4=
        >
        E 0 90 28 67
        E 903 80 28 00
        E 20 80 69 00
        E 245 90 69 67
        E 2513 80 69 00
        E 1431 90 69 67
        <X 168 0
          /wVNaS0=
        >
        E 0 90 32 58
        E 165 80 32 00
        <X 68 0
          /wVuw6Q=
        >
        E 0 90 30 73
        E 148 80 30 00
        <X 74 0
          /wVzaS0=
        >
        E 0 90 30 6c
        E 211 80 30 00
        <X 57 0
          /wVudWwt
        >
        E 0 90 30 6c
        E 190 80 30 00
        <X 37 0
          /wVsZQ==
        >
        E 0 90 30 6c
        E 110 80 30 00
        <X 167 0
          /wV0ZWgt
        >
        E 0 90 2d 74
        E 232 80 2d 00
        <X 236 0
          /wVkw6Q=
        >
        E 0 90 2b 69
        E 126 80 2b 00
        <X 95 0
          /wVqb3M=
        >
        E 0 90 2b 69
        E 171 80 2b 00
        <X 73 0
          /wVzYWkt
        >
        E 0 90 2f 6f
        E 359 80 2f 00
        <X 88 0
          /wVzaW4=
        >
        E 0 90 28 61
        E 415 80 28 00
        E 23 80 69 00
        E 243 90 69 67
        <X 41 0
          /wVTaS0=
        >
        E 0 90 2b 5e
        E 161 80 2b 00
        <X 111 0
          /wV0w6Q=
        >
        E 0 90 2b 3a
        E 149 80 2b 00
        <X 106 0
          /wVtaS0=
        >
        E 0 90 28 60
        E 112 80 28 00
        <X 109 0
          /wV0w6Q=
        >
        E 0 90 26 57
        E 117 80 26 00
        <X 105 0
          /wVzaWwt
        >
        E 0 90 2b 67
        E 434 80 2b 00
        <X 91 0
          /wVsb2lu
        >
        E 0 90 2b 67
        E 132 80 2b 00
        <X 95 0
          /wVlbg==
        >
        E 0 90 2d 67
        E 123 80 2d 00
        <X 139 0
          /wVrZWgt
        >
        E 0 90 2d 67
        E 216 80 2d 00
        <X 255 0
          /wVkYW4t
        >
        E 0 90 2d 67
        E 150 80 2d 00
        <X 77 0
          /wVudXQ=
        >
        E 0 90 2f 67
        E 99 80 2f 00
        <X 156 0
          /wVreS0=
        >
        E 0 90 2d 67
        E 150 80 2d 00
        <X 82 0
          /wVzeS0=
        >
        E 0 90 2f 67
        E 192 80 2f 00
        <X 52 0
          /wXDpC0=
        >
        E 0 90 2f 67
        E 219 80 2f 00
        <X 234 0
          /wVrw6TDpG4=
        >
        E 0 90 2d 67
        E 636 80 2d 00
        E 34 80 69 00
        E 281 90 69 67
        <X 32 0
          /wVSaW4t
        >
        E 0 90 2d 67
        E 159 80 2d 00
        <X 92 0
          /wVub2lzLQ==
        >
        E 0 90 30 67
        E 147 80 30 00
        <X 86 0
          /wV0YQ==
        >
        E 0 90 2f 67
        E 113 80 2f 00
        <X 100 0
          /wVzdWE=
        >
        E 0 90 2d 67
        E 376 80 2d 00
        <X 141 0
          /wVwdS0=
        >
        E 0 90 2b 67
        E 117 80 2b 00
        <X 70 0
          /wVyaXMt
        >
        E 0 90 2d 67
        E 174 80 2d 00
        <X 122 0
          /wV0YWkt
        >
        E 0 90 2f 67
        E 328 80 2f 00
        <X 96 0
          /wVzaW4=
        >
        E 0 90 2b 67
        E 531 80 2b 00
        E 18 80 69 00
        E 431 90 69 67
        <X 46 0
          /wVLdW4=
        >
        E 0 90 2b 67
        E 148 80 2b 00
        <X 69 0
          /wVlaQ==
        >
        E 0 90 2d 67
        E 168 80 2d 00
        <X 61 0
          /wVuZQ==
        >
        E 0 90 2b 67
        E 120 80 2b 00
        <X 148 0
          /wVwaWkt
        >
        E 0 90 28 67
        E 333 80 28 00
        <X 76 0
          /wVsb3Mt
        >
        E 0 90 2b 67
        E 177 80 2b 00
        <X 63 0
          /wVzYQ==
        >
        E 0 90 2a 67
        E 168 80 2a 00
        <X 122 0
          /wV0YWgt
        >
        E 0 90 2d 67
        E 209 80 2d 00
        <X 272 0
          /wV0by0=
        >
        E 0 90 2d 67
        E 146 80 2d 00
        <X 74 0
          /wVuZWV0
        >
        E 0 90 2f 67
        E 131 80 2f 00
        <X 150 0
          /wVweS0=
        >
        E 0 90 2f 67
        E 119 80 2f 00
        <X 78 0
          /wVzeS0=
        >
        E 0 90 2d 67
        E 191 80 2d 00
        <X 82 0
          /wXDpC0=
        >
        E 0 90 2b 67
        E 195 80 2b 00
        <X 278 0
          /wVrw6TDpG4=
        >
        E 0 90 28 67
        E 848 80 28 00
        E 45 80 69 00
        E 115 90 69 67
        E 2640 80 69 00
        <X 424 0
          /wFbaWRsZV9yZWFsdGltZV0=
        >
        E 24735 b0 7b 00
        GUID {F1082209-E2A8-4526-8AA6-2FE8F2DEB335}
        IGNTEMPO 0 120.00000000 4 4
        SRCCOLOR 1241
        VELLANE 132 128 60
        COLORMAP "C:\Users\me\AppData\Roaming\REAPER\Data\color_maps\rockband_vox-other.png"
        TEXTSTRINGFILE "C:\Program Files\REAPER\Data\Text_Strings\Text Events List.txt"
        CFGEDITVIEW 72326.692000 164.467839 23 12 0 0 0
        CFGEDIT 1 1 0 1 1 1 1 1 1 1 1 0.06250000 -8 -8 1374 736 1 2 1 2 0.00000000 0 0 0 0 0.500000 1 0 1.000000 64
        KEYSNAP 0 0 "102034050607" 0 "Major"
        EVTFILTER 0 -1 -1 -1 -1 0 1 0 0 -1.00000000 -1.00000000
      >
    >
  >
  <TRACK '{AB3E8FDC-23A9-4945-BA6C-055C630028D0}'
    NAME "DRYVOX3"
    PEAKCOL 16576
    BEAT -1
    AUTOMODE 0
    VOLPAN 1.00000000000000 0.00000000000000 -1.00000000000000 -1.00000000000000 1.00000000000000
    MUTESOLO 1 0 0
    IPHASE 0
    ISBUS 0 0
    BUSCOMP 0 0
    SHOWINMIX 1 0.666700 0.500000 1 0.500000 -1 -1 -1
    FREEMODE 0
    SEL 0
    REC 0 0 0 0 0 0 0
    TRACKHEIGHT 0 0
    INQ 0 0 0 0.5000000000 100 0 0 100
    NCHAN 2
    FX 1
    TRACKID {AB3E8FDC-23A9-4945-BA6C-055C630028D0}
    PERF 0
    MIDIOUT -1
    MAINSEND 1 0
    <FXCHAIN
      SHOW 0
      LASTSEL 0
      DOCKED 0
      BYPASS 0 0
      <VST "VST: ReaGate (Cockos)" "reagate.dll" 0 ""
        dGdlcu9e7f4EAAAAAQAAAAAAAAACAAAAAAAAAAQAAAAAAAAACAAAAA==
        AAAAAAIAAAABAAAAAAAAAAIAAAAAAAAAVAAAAAAAAAAAABAA776t3g==
        DfCt3pzRBzOmm8Q7CtejPAAAAAAAAAAAAACAPwAAAAAAAAAAAAAAAA==
        nNEHMx5Ucz+c0QczAACAPwAAAAAAAAAAAAAAACwWCz8AAAAAAAAAAA==
        AAAQAAAA
      >
      FLOATPOS 859 184 511 385
      FXID {BF545B5B-7DD0-4B4C-AC52-F095A552DA08}
      WAK 0
    >
  >
  <TRACK '{14F64FB7-FE44-4E53-9F58-44F4178BCEF9}'
    NAME "PART KEYS"
    PEAKCOL 16842496
    BEAT -1
    AUTOMODE 0
    VOLPAN 1.00000000000000 0.00000000000000 -1.00000000000000 -1.00000000000000 1.00000000000000
    MUTESOLO 1 0 0
    IPHASE 0
    ISBUS 1 1
    BUSCOMP 0 0
    SHOWINMIX 1 0.666700 0.500000 1 0.500000 -1 -1 -1
    FREEMODE 0
    SEL 0
    REC 0 0 0 0 0 0 0
    TRACKHEIGHT 24 0
    INQ 0 0 0 0.5000000000 100 0 0 100
    NCHAN 2
    FX 1
    TRACKID {14F64FB7-FE44-4E53-9F58-44F4178BCEF9}
    PERF 0
    MIDIOUT -1
    <MIDINOTENAMES
      0 124 "BRE"
      0 123 "BRE"
      0 122 "BRE"
      0 121 "BRE"
      0 120 "BRE (use all 5)"
      0 116 "OVERDRIVE"
      0 119 "----"
      0 115 "----"
      0 103 "Solo Marker"
      0 95 "----"
      0 96 "EXPERT Green"
      0 97 "EXPERT Red"
      0 98 "EXPERT Yellow"
      0 99 "EXPERT Blue"
      0 100 "EXPERT Orange"
      0 102 "Force HoPo off"
      0 83 "----"
      0 84 "HARD Green"
      0 85 "HARD Red"
      0 86 "HARD Yellow"
      0 87 "HARD Blue"
      0 88 "HARD Orange"
      0 72 "MEDIUM Green"
      0 73 "MEDIUM Red"
      0 74 "MEDIUM Yellow"
      0 75 "MEDIUM Blue"
      0 76 "MEDIUM Orange"
      0 71 "----"
      0 64 "EASY Orange"
      0 63 "EASY Blue"
      0 62 "EASY Yellow"
      0 61 "EASY Red"
      0 60 "EASY Green"
      0 127 "Trill Marker"
      0 126 "----"
      0 101 "Force HoPo on"
    >
    MAINSEND 1 0
    <FXCHAIN
      WNDRECT 0 40 878 585
      SHOW 0
      LASTSEL 0
      DOCKED 0
      BYPASS 0 0
      <VST "VSTi: RBN Preview (RBN)" "rbprev_vst64_beta.dll" 0 ""
        dnBicu5e7f4AAAAAAgAAAAEAAAAAAAAAAgAAAAAAAAAEAAAAAQAAAA==
        AAAAAAMAqgAAAAAAAAA=
      >
      FLOATPOS 0 0 0 0
      FXID {EE0C80EE-5E5F-4EA2-B367-78AAAB3793F5}
      WAK 0
    >
    <ITEM
      POSITION 0.00000000000000
      SNAPOFFS 0.00000000000000
      LENGTH 204.98454157323727
      LOOP 0
      ALLTAKES 0
      SEL 0
      FADEIN 1 0.000000 0.000000 1 0
      FADEOUT 1 0.000000 0.000000 1 0
      MUTE 0
      IGUID {52D9F6AC-16AD-4CE9-95E4-6AD6396BB4E2}
      IID 14
      NAME "PART KEYS"
      VOLPAN 1.000000 0.000000 1.000000 -1.000000
      SOFFS 0.00000000000000 0.00000000000000
      PLAYRATE 1.00000000000000 1 0.00000000000000 -65536
      CHANMODE 0
      GUID {78E1CCBD-C30B-4DD8-81CD-2AEB0D2D38C8}
      <SOURCE MIDI
        HASDATA 1 480 QN
        POOLEDEVTS {77A331DC-9C2C-4C31-B8AB-5D095B06411E}
        <X 0 0
          /wNQQVJUIEtFWVM=
        >
        <X 3840 0
          /wFbcGxheV0=
        >
        E 0 90 40 7f
        E 0 90 4c 7f
        E 0 90 58 7f
        E 60 80 40 00
        E 0 80 4c 00
        E 0 80 58 00
        E 30 90 3f 7f
        E 0 90 4b 7f
        E 0 90 57 7f
        E 60 80 3f 00
        E 0 80 4b 00
        E 0 80 57 00
        E 30 90 3e 7f
        E 0 90 4a 7f
        E 0 90 56 7f
        E 60 80 3e 00
        E 0 80 4a 00
        E 0 80 56 00
        E 30 90 3d 7f
        E 0 90 49 7f
        E 0 90 55 7f
        E 60 80 3d 00
        E 0 80 49 00
        E 0 80 55 00
        E 30 90 3c 7f
        E 0 90 48 7f
        E 0 90 54 7f
        E 60 80 3c 00
        E 0 80 48 00
        E 0 80 54 00
        E 176221 b0 7b 00
        GUID {F537F270-CEBA-461E-8612-DC28913708FC}
        IGNTEMPO 0 120.00000000 4 4
        SRCCOLOR 1242
        VELLANE 132 128 60
        COLORMAP "C:\Users\me\AppData\Roaming\REAPER\Data\color_maps\rockband_guitarbass.png"
        TEXTSTRINGFILE "C:\Program Files\REAPER\Data\Text_Strings\Text Events List.txt"
        CFGEDITVIEW -4299.275963 82.395269 19 12 0 0 0
        CFGEDIT 1 1 0 0 0 1 1 1 1 1 1 0.12500000 -8 -8 1370 736 1 0 1 2 0.00000000 0 0 0 0 0.500000 1 0 1.000000 64
        KEYSNAP 0 0 "102034050607" 0 "Major"
        EVTFILTER 0 -1 -1 -1 -1 0 1 0 0 -1.00000000 -1.00000000
      >
    >
  >
  <TRACK '{D39F8BD7-8730-4182-94EC-51AF9F9ACC90}'
    NAME "PART REAL_KEYS_X"
    PEAKCOL 25231232
    BEAT -1
    AUTOMODE 0
    VOLPAN 1.00000000000000 0.00000000000000 -1.00000000000000 -1.00000000000000 1.00000000000000
    MUTESOLO 1 0 0
    IPHASE 0
    ISBUS 0 0
    BUSCOMP 1 0
    SHOWINMIX 1 0.666700 0.500000 1 0.500000 -1 -1 -1
    FREEMODE 0
    SEL 0
    REC 0 0 0 0 0 0 0
    TRACKHEIGHT 24 0
    INQ 0 0 0 0.5000000000 100 0 0 100
    NCHAN 2
    FX 1
    TRACKID {D39F8BD7-8730-4182-94EC-51AF9F9ACC90}
    PERF 0
    MIDIOUT -1
    <MIDINOTENAMES
      0 0 "C2-E3 Range"
      0 5 "F2-A3 Range"
      0 9 "A2-C4 Range"
      0 48 "C2 (Lowest Note)"
      0 72 "C4 (Highest Note)"
      0 115 "Solo Marker"
      0 126 "Glissando Marker"
      0 116 "Overdrive Marker"
      0 127 "Trill Marker"
      0 125 "----"
      0 114 "----"
      0 47 "----"
      0 49 "C#2"
      0 50 "D2"
      0 51 "Eb2"
      0 52 "E2"
      0 53 "F2"
      0 54 "F#2"
      0 55 "G2"
      0 56 "G#2"
      0 57 "A2"
      0 58 "Bb2"
      0 59 "B2"
      0 60 "C3"
      0 61 "C#3"
      0 62 "D3"
      0 63 "Eb3"
      0 64 "E3"
      0 65 "F3"
      0 66 "F#3"
      0 67 "G3"
      0 68 "G#3"
      0 69 "A3"
      0 70 "Bb3"
      0 71 "B3"
      0 2 "D2-F3 Range"
      0 4 "E2-G3 Range"
      0 7 "G2-B3 Range"
    >
    MAINSEND 1 0
    <FXCHAIN
      WNDRECT 0 40 655 493
      SHOW 0
      LASTSEL 1
      DOCKED 0
      BYPASS 0 0
      <JS "IX/MIDI_Tool II" ""
        0.000000 85.000000 127.000000 0.000000 0.000000 0.000000 100.000000 0.000000 0.000000 127.000000 0.000000 0.000000 1.000000 0.000000 0.000000 - - - - - - - - - - - - - - - - - - - - - - - - - - - - - - - - - - - - - - - - - - - - - - - - - 
      >
      FLOATPOS 0 0 0 0
      FXID {A891DAA7-5D8A-4720-AA8F-E43D2ABA2AE5}
      WAK 0
      BYPASS 0 0
      <VST "VSTi: ReaSynth (Cockos)" "reasynth.dll" 0 ""
        eXNlcu9e7f4AAAAAAgAAAAEAAAAAAAAAAgAAAAAAAAA4AAAAAAAAAA==
        AAAAAO++rd4N8K3eppvEOxe30TqcxKA+c2jRPgAAAADMm4A+6WeIPQ==
        AAAAAAAAAD8AAIA/6SaxPgAAAD8AAAAAAAA=
      >
      FLOATPOS 0 0 0 0
      FXID {A0CE5851-0C70-49E2-AD61-BC7B1C50A030}
      WAK 0
    >
    <ITEM
      POSITION 0.00000000000000
      SNAPOFFS 0.00000000000000
      LENGTH 204.98454157323727
      LOOP 0
      ALLTAKES 0
      SEL 0
      FADEIN 1 0.000000 0.000000 1 0
      FADEOUT 1 0.000000 0.000000 1 0
      MUTE 0
      IGUID {974100C2-06C4-4CB5-BD67-2F1BC71A1259}
      IID 15
      NAME "PART REAL_KEYS_X"
      VOLPAN 1.000000 0.000000 1.000000 -1.000000
      SOFFS 0.00000000000000 0.00000000000000
      PLAYRATE 1.00000000000000 1 0.00000000000000 -65536
      CHANMODE 0
      GUID {08703F3F-9741-46EB-9ED4-B09B2390F876}
      <SOURCE MIDI
        HASDATA 1 480 QN
        POOLEDEVTS {B9560C2C-C9A5-4B9A-8FF4-4B2B8472CFC3}
        <X 0 0
          /wNQQVJUIFJFQUxfS0VZU19Y
        >
        <X 3840 0
          /wFbcGxheV0=
        >
        E 176641 b0 7b 00
        GUID {0E0CBFB7-4AC8-4E67-A764-85891754BB41}
        IGNTEMPO 0 120.00000000 4 4
        SRCCOLOR 1243
        VELLANE 132 128 60
        COLORMAP "C:\Program Files\REAPER\Data\color_maps\rockband_guitarbass.png"
        TEXTSTRINGFILE "C:\Program Files\REAPER\Data\Text_Strings\Text Events List.txt"
        CFGEDITVIEW -4299.275963 82.395269 48 12 0 0 0
        CFGEDIT 1 1 0 1 1 1 1 1 1 1 1 0.12500000 -8 -8 1370 736 1 0 1 2 0.00000000 0 0 0 0 0.500000 1 0 1.000000 64
        KEYSNAP 0 0 "102034050607" 0 "Major"
        EVTFILTER 0 -1 -1 -1 -1 0 1 0 0 -1.00000000 -1.00000000
      >
    >
  >
  <TRACK '{117931B6-9EA5-432A-AEED-ACF4C8876354}'
    NAME "PART REAL _KEYS_H"
    PEAKCOL 25231232
    BEAT -1
    AUTOMODE 0
    VOLPAN 1.00000843600341 0.00000000000000 -1.00000000000000 -1.00000000000000 1.00000000000000
    MUTESOLO 1 0 0
    IPHASE 0
    ISBUS 0 0
    BUSCOMP 0 0
    SHOWINMIX 1 0.666700 0.500000 1 0.500000 -1 -1 -1
    FREEMODE 0
    SEL 0
    REC 0 0 0 0 0 0 0
    TRACKHEIGHT 24 0
    INQ 0 0 0 0.5000000000 100 0 0 100
    NCHAN 2
    FX 1
    TRACKID {117931B6-9EA5-432A-AEED-ACF4C8876354}
    PERF 0
    MIDIOUT -1
    <MIDINOTENAMES
      0 0 "C2-E3 Range"
      0 5 "F2-A3 Range"
      0 9 "A2-C4 Range"
      0 48 "C2 (Lowest Note)"
      0 72 "C4 (Highest Note)"
      0 115 "Solo Marker"
      0 126 "Glissando Marker"
      0 127 "Trill Marker"
      0 125 "----"
      0 116 "Overdrive Marker"
      0 114 "----"
      0 71 "B3"
      0 70 "Bb3"
      0 69 "A3"
      0 68 "G#3"
      0 67 "G3"
      0 66 "F#3"
      0 65 "F3"
      0 64 "E3"
      0 63 "Eb3"
      0 62 "D3"
      0 61 "C#3"
      0 60 "C3"
      0 59 "B2"
      0 58 "Bb2"
      0 57 "A2"
      0 56 "G#2"
      0 55 "G2"
      0 54 "F#2"
      0 53 "F2"
      0 52 "E2"
      0 51 "Eb2"
      0 50 "D2"
      0 49 "C#2"
      0 47 "----"
      0 7 "G2-B3 Range"
      0 4 "E2-G3 Range"
      0 2 "D2-F3 Range"
    >
    MAINSEND 1 0
    <FXCHAIN
      SHOW 0
      LASTSEL 0
      DOCKED 0
      BYPASS 0 0
      <JS "IX/MIDI_Tool II" ""
        0.000000 85.000000 127.000000 0.000000 0.000000 0.000000 100.000000 0.000000 0.000000 127.000000 0.000000 0.000000 1.000000 0.000000 0.000000 - - - - - - - - - - - - - - - - - - - - - - - - - - - - - - - - - - - - - - - - - - - - - - - - - 
      >
      FLOATPOS 0 0 0 0
      FXID {5BF1E178-D070-4445-A488-4CE4E31F6508}
      WAK 0
      BYPASS 0 0
      <VST "VSTi: ReaSynth (Cockos)" "reasynth.dll" 0 ""
        eXNlcu9e7f4AAAAAAgAAAAEAAAAAAAAAAgAAAAAAAAA4AAAAAAAAAA==
        AAAAAO++rd4N8K3eppvEOxe30TqcxKA+c2jRPgAAAADMm4A+6WeIPQ==
        AAAAAAAAAD8AAIA/6SaxPgAAAD8AAAAAAAA=
      >
      FLOATPOS 0 0 0 0
      FXID {C48567E0-8372-4900-9933-4B040EA2A253}
      WAK 0
    >
    <ITEM
      POSITION 0.00000000000000
      SNAPOFFS 0.00000000000000
      LENGTH 204.98454157323727
      LOOP 0
      ALLTAKES 0
      SEL 0
      FADEIN 1 0.000000 0.000000 1 0
      FADEOUT 1 0.000000 0.000000 1 0
      MUTE 0
      IGUID {DA514BF3-AF34-46C0-BD23-58406C871A44}
      IID 16
      NAME "PART REAL _KEYS_H"
      VOLPAN 1.000000 0.000000 1.000000 -1.000000
      SOFFS 0.00000000000000 0.00000000000000
      PLAYRATE 1.00000000000000 1 0.00000000000000 -65536
      CHANMODE 0
      GUID {8E0AC36B-D538-4BB8-A507-FFF40527D1BA}
      <SOURCE MIDI
        HASDATA 1 480 QN
        POOLEDEVTS {B232D765-17FB-4EA2-80BA-27CED0F63FC9}
        <X 0 0
          /wNQQVJUIFJFQUxfS0VZU19I
        >
        E 0 90 09 60
        E 480 80 09 00
        E 3360 90 39 60
        E 360 80 39 00
        E 176281 b0 7b 00
        GUID {53F487B1-1F2F-4D54-9DAE-BC2E7B032E3B}
        IGNTEMPO 0 120.00000000 4 4
        SRCCOLOR 1244
        VELLANE 132 128 60
        COLORMAP "C:\Program Files\REAPER\Data\color_maps\rockband_guitarbass.png"
        TEXTSTRINGFILE "C:\Program Files\REAPER\Data\Text_Strings\Text Events List.txt"
        CFGEDITVIEW -4299.275963 82.395269 5 14 0 0 0
        CFGEDIT 1 1 0 1 1 1 1 1 1 1 1 0.12500000 -8 -8 1374 736 1 2 1 2 0.00000000 0 0 0 0 0.500000 1 0 1.000000 64
        KEYSNAP 0 0 "102034050607" 0 "Major"
        EVTFILTER 0 -1 -1 -1 -1 0 1 0 0 -1.00000000 -1.00000000
      >
    >
  >
  <TRACK '{3B6F726E-1CAB-4A00-9B01-2E1CC375B13E}'
    NAME "PART REAL_KEYS_M"
    PEAKCOL 25231232
    BEAT -1
    AUTOMODE 0
    VOLPAN 1.00000000000000 0.00000000000000 -1.00000000000000 -1.00000000000000 1.00000000000000
    MUTESOLO 1 0 0
    IPHASE 0
    ISBUS 0 0
    BUSCOMP 0 0
    SHOWINMIX 1 0.666700 0.500000 1 0.500000 -1 -1 -1
    FREEMODE 0
    SEL 0
    REC 0 0 0 0 0 0 0
    TRACKHEIGHT 24 0
    INQ 0 0 0 0.5000000000 100 0 0 100
    NCHAN 2
    FX 1
    TRACKID {3B6F726E-1CAB-4A00-9B01-2E1CC375B13E}
    PERF 0
    MIDIOUT -1
    <MIDINOTENAMES
      0 0 "C2-E3 Range"
      0 5 "F2-A3 Range"
      0 9 "A2-C4 Range"
      0 48 "C2 (Lowest Note)"
      0 72 "C4 (Highest Note)"
      0 115 "Solo Marker"
      0 126 "Glissando Marker"
      0 127 "Trill Marker"
      0 125 "----"
      0 116 "Overdrive Marker"
      0 114 "----"
      0 71 "B3"
      0 70 "Bb3"
      0 69 "A3"
      0 68 "G#3"
      0 67 "G3"
      0 66 "F#3"
      0 65 "F3"
      0 64 "E3"
      0 63 "Eb3"
      0 62 "D3"
      0 61 "C#3"
      0 60 "C3"
      0 59 "B2"
      0 58 "Bb2"
      0 57 "A2"
      0 56 "G#2"
      0 55 "G2"
      0 54 "F#2"
      0 53 "F2"
      0 52 "E2"
      0 51 "Eb2"
      0 50 "D2"
      0 49 "C#2"
      0 47 "----"
      0 7 "G2-B3 Range"
      0 4 "E2-G3 Range"
      0 2 "D2-F3 Range"
    >
    MAINSEND 1 0
    <FXCHAIN
      SHOW 0
      LASTSEL 0
      DOCKED 0
      BYPASS 0 0
      <JS "IX/MIDI_Tool II" ""
        0.000000 85.000000 127.000000 0.000000 0.000000 0.000000 100.000000 0.000000 0.000000 127.000000 0.000000 0.000000 1.000000 0.000000 0.000000 - - - - - - - - - - - - - - - - - - - - - - - - - - - - - - - - - - - - - - - - - - - - - - - - - 
      >
      FLOATPOS 0 0 0 0
      FXID {096BA8B0-BFAB-4802-A0D3-DEA88A16B5B2}
      WAK 0
      BYPASS 0 0
      <VST "VSTi: ReaSynth (Cockos)" "reasynth.dll" 0 ""
        eXNlcu9e7f4AAAAAAgAAAAEAAAAAAAAAAgAAAAAAAAA4AAAAAAAAAA==
        AAAAAO++rd4N8K3eppvEOxe30TqcxKA+c2jRPgAAAADMm4A+6WeIPQ==
        AAAAAAAAAD8AAIA/6SaxPgAAAD8AAAAAAAA=
      >
      FLOATPOS 0 0 0 0
      FXID {A5115AF9-13EF-41D8-80FF-CB81A74D6CD4}
      WAK 0
    >
    <ITEM
      POSITION 0.00000000000000
      SNAPOFFS 0.00000000000000
      LENGTH 204.98454157323727
      LOOP 0
      ALLTAKES 0
      SEL 0
      FADEIN 1 0.000000 0.000000 1 0
      FADEOUT 1 0.000000 0.000000 1 0
      MUTE 0
      IGUID {6F5DF5D5-958D-4566-AA6E-AFD27D997F3F}
      IID 17
      NAME "PART REAL_KEYS_M"
      VOLPAN 1.000000 0.000000 1.000000 -1.000000
      SOFFS 0.00000000000000 0.00000000000000
      PLAYRATE 1.00000000000000 1 0.00000000000000 -65536
      CHANMODE 0
      GUID {14BC6779-E32B-455D-A61C-C2E68D8FE08C}
      <SOURCE MIDI
        HASDATA 1 480 QN
        POOLEDEVTS {019697E4-3CF8-492D-889F-6E40716D0623}
        <X 0 0
          /wNQQVJUIFJFQUxfS0VZU19N
        >
        e 0 90 09 60
        e 480 80 09 00
        e 3360 90 39 60
        e 360 80 39 00
        E 176281 b0 7b 00
        GUID {806139BE-556B-4882-A297-06705078FD7A}
        IGNTEMPO 0 120.00000000 4 4
        SRCCOLOR 1245
        VELLANE 132 128 60
        COLORMAP "C:\Program Files\REAPER\Data\color_maps\rockband_guitarbass.png"
        TEXTSTRINGFILE "C:\Program Files\REAPER\Data\Text_Strings\Text Events List.txt"
        CFGEDITVIEW -4299.275963 82.395269 0 17 0 0 0
        CFGEDIT 1 1 0 1 1 1 1 1 1 1 1 0.12500000 -8 -8 1374 736 1 2 1 2 0.00000000 0 0 0 0 0.500000 1 0 1.000000 64
        KEYSNAP 0 0 "102034050607" 0 "Major"
        EVTFILTER 0 -1 -1 -1 -1 0 1 0 0 -1.00000000 -1.00000000
      >
    >
  >
  <TRACK '{49B8D0E0-0069-415C-8FC3-AC29B0E2C3CF}'
    NAME "PART REAL_KEYS_E"
    PEAKCOL 25231232
    BEAT -1
    AUTOMODE 0
    VOLPAN 1.00000000000000 0.00000000000000 -1.00000000000000 -1.00000000000000 1.00000000000000
    MUTESOLO 1 0 0
    IPHASE 0
    ISBUS 0 0
    BUSCOMP 0 0
    SHOWINMIX 1 0.666700 0.500000 1 0.500000 -1 -1 -1
    FREEMODE 0
    SEL 0
    REC 0 0 0 0 0 0 0
    TRACKHEIGHT 24 0
    INQ 0 0 0 0.5000000000 100 0 0 100
    NCHAN 2
    FX 1
    TRACKID {49B8D0E0-0069-415C-8FC3-AC29B0E2C3CF}
    PERF 0
    MIDIOUT -1
    <MIDINOTENAMES
      0 0 "C2-E3 Range"
      0 5 "F2-A3 Range"
      0 9 "A2-C4 Range"
      0 48 "C2 (Lowest Note)"
      0 72 "C4 (Highest Note)"
      0 115 "Solo Marker"
      0 126 "Glissando Marker"
      0 127 "Trill Marker"
      0 125 "----"
      0 116 "Overdrive Marker"
      0 114 "----"
      0 71 "B3"
      0 70 "Bb3"
      0 69 "A3"
      0 68 "G#3"
      0 67 "G3"
      0 66 "F#3"
      0 65 "F3"
      0 64 "E3"
      0 63 "Eb3"
      0 62 "D3"
      0 61 "C#3"
      0 60 "C3"
      0 59 "B2"
      0 58 "Bb2"
      0 57 "A2"
      0 56 "G#2"
      0 55 "G2"
      0 54 "F#2"
      0 53 "F2"
      0 52 "E2"
      0 51 "Eb2"
      0 50 "D2"
      0 49 "C#2"
      0 47 "----"
      0 7 "G2-B3 Range"
      0 4 "E2-G3 Range"
      0 2 "D2-F3 Range"
    >
    MAINSEND 1 0
    <FXCHAIN
      SHOW 0
      LASTSEL 0
      DOCKED 0
      BYPASS 0 0
      <JS "IX/MIDI_Tool II" ""
        0.000000 85.000000 127.000000 0.000000 0.000000 0.000000 100.000000 0.000000 0.000000 127.000000 0.000000 0.000000 1.000000 0.000000 0.000000 - - - - - - - - - - - - - - - - - - - - - - - - - - - - - - - - - - - - - - - - - - - - - - - - - 
      >
      FLOATPOS 0 0 0 0
      FXID {71EF04AA-9A38-4C4E-8E04-9FB37BDA6361}
      WAK 0
      BYPASS 0 0
      <VST "VSTi: ReaSynth (Cockos)" "reasynth.dll" 0 ""
        eXNlcu9e7f4AAAAAAgAAAAEAAAAAAAAAAgAAAAAAAAA4AAAAAAAAAA==
        AAAAAO++rd4N8K3eppvEOxe30TqcxKA+c2jRPgAAAADMm4A+6WeIPQ==
        AAAAAAAAAD8AAIA/6SaxPgAAAD8AAAAAAAA=
      >
      FLOATPOS 0 0 0 0
      FXID {6C388847-2A2F-4264-AA7A-4C4ACA9A9672}
      WAK 0
    >
    <ITEM
      POSITION 0.00000000000000
      SNAPOFFS 0.00000000000000
      LENGTH 204.98454157323727
      LOOP 0
      ALLTAKES 0
      SEL 0
      FADEIN 1 0.000000 0.000000 1 0
      FADEOUT 1 0.000000 0.000000 1 0
      MUTE 0
      IGUID {656317AD-B690-4307-9096-C4F4536C131B}
      IID 18
      NAME "PART REAL_KEYS_E"
      VOLPAN 1.000000 0.000000 1.000000 -1.000000
      SOFFS 0.00000000000000 0.00000000000000
      PLAYRATE 1.00000000000000 1 0.00000000000000 -65536
      CHANMODE 0
      GUID {43BDFFBF-75D6-4727-BD3F-08B25C56980C}
      <SOURCE MIDI
        HASDATA 1 480 QN
        POOLEDEVTS {3F0F7697-AFED-4D45-AE3D-AC839C070801}
        <X 0 0
          /wNQQVJUIFJFQUxfS0VZU19F
        >
        E 0 90 09 60
        E 480 80 09 00
        E 180001 b0 7b 00
        GUID {F9363449-15E8-4EF0-8BC0-ABEB4CDC1D98}
        IGNTEMPO 0 120.00000000 4 4
        SRCCOLOR 1246
        VELLANE 132 128 60
        COLORMAP "C:\Program Files\REAPER\Data\color_maps\rockband_guitarbass.png"
        TEXTSTRINGFILE "C:\Program Files\REAPER\Data\Text_Strings\Text Events List.txt"
        CFGEDITVIEW 1257.930012 0.103438 51 12 0 0 0
        CFGEDIT 1 1 0 0 1 1 1 1 1 1 1 0.25000000 0 0 683 728 1 0 0 2 0.12500000 0 0 0 0 0.500000 0 0 1.000000 64
        KEYSNAP 0 0 "102034050607" 0 "Major"
        EVTFILTER 0 -1 -1 -1 -1 0 1 0 0 -1.00000000 -1.00000000
      >
    >
  >
  <TRACK '{80604035-2BD9-43BB-A255-4E5F9E756779}'
    NAME "PART KEYS_ANIM_RH"
    PEAKCOL 16842624
    BEAT -1
    AUTOMODE 0
    VOLPAN 1.00000000000000 0.00000000000000 -1.00000000000000 -1.00000000000000 1.00000000000000
    MUTESOLO 1 0 0
    IPHASE 0
    ISBUS 0 0
    BUSCOMP 0 0
    SHOWINMIX 1 0.666700 0.500000 1 0.500000 -1 -1 -1
    FREEMODE 0
    SEL 0
    REC 0 0 0 0 0 0 0
    TRACKHEIGHT 24 0
    INQ 0 0 0 0.5000000000 100 0 0 100
    NCHAN 2
    FX 1
    TRACKID {80604035-2BD9-43BB-A255-4E5F9E756779}
    PERF 0
    MIDIOUT -1
    <MIDINOTENAMES
      0 48 "C2 (Lowest Note)"
      0 72 "C4 (Highest Note)"
      0 127 "Trill Marker"
      0 126 "Glissando Marker"
      0 125 "----"
      0 116 "Overdrive Marker"
      0 115 "Solo Marker"
      0 114 "----"
      0 71 "B3"
      0 70 "Bb3"
      0 69 "A3"
      0 68 "G#3"
      0 67 "G3"
      0 66 "F#3"
      0 65 "F3"
      0 64 "E3"
      0 63 "Eb3"
      0 62 "D3"
      0 61 "C#3"
      0 60 "C3"
      0 59 "B2"
      0 58 "Bb2"
      0 57 "A2"
      0 56 "G#2"
      0 55 "G2"
      0 54 "F#2"
      0 53 "F2"
      0 52 "E2"
      0 51 "Eb2"
      0 50 "D2"
      0 49 "C#2"
      0 47 "----"
      0 9 "A2-C4 Range"
      0 5 "F2-A3 Range"
      0 0 "C2-E3 Range"
      0 7 "G2-B3 Range"
      0 4 "E2-G3 Range"
      0 2 "D2-F3 Range"
    >
    MAINSEND 1 0
    <FXCHAIN
      SHOW 0
      LASTSEL 0
      DOCKED 0
    >
    <ITEM
      POSITION 0.00000000000000
      SNAPOFFS 0.00000000000000
      LENGTH 204.98454157323727
      LOOP 0
      ALLTAKES 0
      SEL 0
      FADEIN 1 0.000000 0.000000 1 0
      FADEOUT 1 0.000000 0.000000 1 0
      MUTE 0
      IGUID {6A43A4E9-6390-4FBA-9F07-B2C821A1720C}
      IID 19
      NAME "PART KEYS_ANIM_RH"
      VOLPAN 1.000000 0.000000 1.000000 -1.000000
      SOFFS 0.00000000000000 0.00000000000000
      PLAYRATE 1.00000000000000 1 0.00000000000000 -65536
      CHANMODE 0
      GUID {FA5AE238-E1D7-41F5-A663-4C49E4376041}
      <SOURCE MIDI
        HASDATA 1 480 QN
        POOLEDEVTS {FB451F53-95D0-45A4-85C0-89F3FDD6F94C}
        <X 0 0
          /wNQQVJUIEtFWVNfQU5JTV9SSA==
        >
        E 180481 b0 7b 00
        GUID {268DE88D-9169-44F5-97A1-ABDA1E2CF031}
        IGNTEMPO 0 120.00000000 4 4
        SRCCOLOR 1247
        VELLANE 132 128 60
        COLORMAP "C:\Program Files\REAPER\Data\color_maps\rockband_guitarbass.png"
        TEXTSTRINGFILE "C:\Program Files\REAPER\Data\Text_Strings\Text Events List.txt"
        CFGEDITVIEW 2612.554938 0.179136 51 12 0 0 0
        CFGEDIT 1 1 0 0 1 1 1 1 1 1 1 0.25000000 0 0 683 728 1 0 0 2 0.00000000 0 0 0 0 0.500000 0 0 1.000000 64
        KEYSNAP 0 0 "102034050607" 0 "Major"
        EVTFILTER 0 -1 -1 -1 -1 0 1 0 0 -1.00000000 -1.00000000
      >
    >
  >
  <TRACK '{F014911F-41F0-491C-9A25-C3D2A462D8D7}'
    NAME "PART KEYS_ANIM_LH"
    PEAKCOL 16842624
    BEAT -1
    AUTOMODE 0
    VOLPAN 1.00000000000000 0.00000000000000 -1.00000000000000 -1.00000000000000 1.00000000000000
    MUTESOLO 1 0 0
    IPHASE 0
    ISBUS 2 -1
    BUSCOMP 0 0
    SHOWINMIX 1 0.666700 0.500000 1 0.500000 -1 -1 -1
    FREEMODE 0
    SEL 0
    REC 0 0 0 0 0 0 0
    TRACKHEIGHT 24 0
    INQ 0 0 0 0.5000000000 100 0 0 100
    NCHAN 2
    FX 1
    TRACKID {F014911F-41F0-491C-9A25-C3D2A462D8D7}
    PERF 0
    MIDIOUT -1
    <MIDINOTENAMES
      0 48 "C2 (Lowest Note)"
      0 72 "C4 (Highest Note)"
      0 127 "Trill Marker"
      0 126 "Glissando Marker"
      0 125 "----"
      0 116 "Overdrive Marker"
      0 115 "Solo Marker"
      0 114 "----"
      0 71 "B3"
      0 70 "Bb3"
      0 69 "A3"
      0 68 "G#3"
      0 67 "G3"
      0 66 "F#3"
      0 65 "F3"
      0 64 "E3"
      0 63 "Eb3"
      0 62 "D3"
      0 61 "C#3"
      0 60 "C3"
      0 59 "B2"
      0 58 "Bb2"
      0 57 "A2"
      0 56 "G#2"
      0 55 "G2"
      0 54 "F#2"
      0 53 "F2"
      0 52 "E2"
      0 51 "Eb2"
      0 50 "D2"
      0 49 "C#2"
      0 47 "----"
      0 9 "A2-C4 Range"
      0 5 "F2-A3 Range"
      0 0 "C2-E3 Range"
      0 7 "G2-B3 Range"
      0 4 "E2-G3 Range"
      0 2 "D2-F3 Range"
    >
    MAINSEND 1 0
    <FXCHAIN
      SHOW 0
      LASTSEL 0
      DOCKED 0
    >
    <ITEM
      POSITION 0.00000000000000
      SNAPOFFS 0.00000000000000
      LENGTH 204.98454157323727
      LOOP 0
      ALLTAKES 0
      SEL 0
      FADEIN 1 0.000000 0.000000 1 0
      FADEOUT 1 0.000000 0.000000 1 0
      MUTE 0
      IGUID {F0F97A68-91AD-4B41-8D32-822B6159FDBC}
      IID 20
      NAME "PART KEYS_ANIM_LH"
      VOLPAN 1.000000 0.000000 1.000000 -1.000000
      SOFFS 0.00000000000000 0.00000000000000
      PLAYRATE 1.00000000000000 1 0.00000000000000 -65536
      CHANMODE 0
      GUID {214023C3-6BA4-450F-A73F-59780553B94C}
      <SOURCE MIDI
        HASDATA 1 480 QN
        POOLEDEVTS {B17834BD-9B9E-4725-815C-24404FEC493F}
        <X 0 0
          /wNQQVJUIEtFWVNfQU5JTV9MSA==
        >
        E 180481 b0 7b 00
        GUID {9527D45A-14D5-4C89-A39E-3528B0F29941}
        IGNTEMPO 0 120.00000000 4 4
        SRCCOLOR 1248
        VELLANE 132 128 60
        COLORMAP "C:\Program Files\REAPER\Data\color_maps\rockband_guitarbass.png"
        TEXTSTRINGFILE "C:\Program Files\REAPER\Data\Text_Strings\Text Events List.txt"
        CFGEDITVIEW -4299.275963 82.395269 11 17 0 0 0
        CFGEDIT 1 1 0 1 1 1 1 1 1 1 1 0.12500000 -8 -8 1374 736 1 2 1 2 0.00000000 0 0 0 0 0.500000 1 0 1.000000 64
        KEYSNAP 0 0 "102034050607" 0 "Major"
        EVTFILTER 0 -1 -1 -1 -1 0 1 0 0 -1.00000000 -1.00000000
      >
    >
  >
  <TRACK '{4BCC1CF3-63A3-43C4-A155-D3593AD88A10}'
    NAME "EVENTS"
    PEAKCOL 29393024
    BEAT -1
    AUTOMODE 0
    VOLPAN 1.00000000000000 0.00000000000000 -1.00000000000000 -1.00000000000000 1.00000000000000
    MUTESOLO 0 0 0
    IPHASE 0
    ISBUS 0 0
    BUSCOMP 0 0
    SHOWINMIX 1 0.666700 0.500000 1 0.500000 -1 -1 -1
    FREEMODE 0
    SEL 0
    REC 0 0 0 0 0 0 0
    TRACKHEIGHT 0 0
    INQ 0 0 0 0.5000000000 100 0 0 100
    NCHAN 2
    FX 1
    TRACKID {4BCC1CF3-63A3-43C4-A155-D3593AD88A10}
    PERF 0
    MIDIOUT -1
    MAINSEND 1 0
    <FXCHAIN
      SHOW 0
      LASTSEL 0
      DOCKED 0
    >
    <ITEM
      POSITION 0.00000000000000
      SNAPOFFS 0.00000000000000
      LENGTH 225.54092445128390
      LOOP 0
      ALLTAKES 0
      SEL 0
      FADEIN 1 0.000000 0.000000 1 0
      FADEOUT 1 0.000000 0.000000 1 0
      MUTE 0
      IGUID {86A06D27-867C-4398-9CE6-8F0526B3B594}
      IID 21
      NAME "EVENTS"
      VOLPAN 1.000000 0.000000 1.000000 -1.000000
      SOFFS 0.00000000000000 0.00000000000000
      PLAYRATE 1.00000000000000 1 0.00000000000000 -65536
      CHANMODE 0
      GUID {584C8192-4FF3-4E29-8138-2E6BD568B61A}
      <SOURCE MIDI
        HASDATA 1 480 QN
        POOLEDEVTS {CD4BF0B8-92DA-4A41-99E3-E9C3D814E9E0}
        <X 0 0
          /wNFVkVOVFM=
        >
        <X 0 0
          /wFbY3Jvd2Rfbm9ybWFsXQ==
        >
        <X 0 0
          /wFbcHJjX2ludHJvXQ==
        >
        <X 3840 0
          /wFbbXVzaWNfc3RhcnRd
        >
        <X 6720 0
          /wFbcHJjX2Nob3J1c18xYV0=
        >
        <X 11040 0
          /wFbcHJjX2Nob3J1c18xYl0=
        >
        <X 11040 0
          /wFbcHJjX3ZlcnNlXzFhXQ==
        >
        <X 14880 0
          /wFbcHJjX3ZlcnNlXzFiXQ==
        >
        <X 15840 0
          /wFbcHJjX2Nob3J1c18yYV0=
        >
        <X 11040 0
          /wFbcHJjX2Nob3J1c18yYl0=
        >
        <X 11040 0
          /wFbcHJjX3ZlcnNlXzJhXQ==
        >
        <X 14880 0
          /wFbcHJjX3ZlcnNlXzJiXQ==
        >
        <X 15840 0
          /wFbcHJjX2Nob3J1c18zYV0=
        >
        <X 11040 0
          /wFbcHJjX2Nob3J1c18zYl0=
        >
        <X 9120 0
          /wFbcHJjX2Nob3J1c180YV0=
        >
        <X 11040 0
          /wFbcHJjX2Nob3J1c180Yl0=
        >
        <X 8640 0
          /wFbcHJjX291dHJvXQ==
        >
        <X 33600 0
          /wFbbXVzaWNfZW5kXQ==
        >
        <X 3360 0
          /wFbZW5kXQ==
        >
        E 5651 b0 7b 00
        GUID {40AD7956-A22A-434A-8513-4D3792B9DF69}
        IGNTEMPO 0 120.00000000 4 4
        SRCCOLOR 1249
        VELLANE 132 100 100
        COLORMAP "M:\RGS Documents\ColorMaps\rockband_vox-other.png"
        TEXTSTRINGFILE "Text Events List.txt"
        CFGEDITVIEW -3215.029669 10.674863 5 48 0 0 0
        CFGEDIT 1 1 0 0 0 1 1 1 1 1 1 1.00000000 44 63 1223 847 1 2 1 2 0.00000000 0 0 0 0 0.500000 1 0 1.000000 64
        KEYSNAP 0 0 "102034050607" 0 "Major"
        EVTFILTER 0 -1 -1 -1 -1 0 1 0 0 -1.00000000 -1.00000000
      >
    >
  >
  <TRACK '{1529008F-97D2-43EB-8634-7C5A7418AD90}'
    NAME "VENUE"
    PEAKCOL 16842496
    BEAT -1
    AUTOMODE 0
    VOLPAN 1.00000000000000 0.00000000000000 -1.00000000000000 -1.00000000000000 1.00000000000000
    MUTESOLO 0 0 0
    IPHASE 0
    ISBUS 0 0
    BUSCOMP 0 0
    SHOWINMIX 1 0.666700 0.500000 1 0.500000 -1 -1 -1
    FREEMODE 0
    SEL 0
    REC 0 0 0 0 0 0 0
    TRACKHEIGHT 0 0
    INQ 0 0 0 0.5000000000 100 0 0 100
    NCHAN 2
    FX 1
    TRACKID {1529008F-97D2-43EB-8634-7C5A7418AD90}
    PERF 0
    MIDIOUT -1
    <MIDINOTENAMES
      0 87 "Guitarist Sing Along"
      0 86 "Drummer Sing Along"
      0 85 "Bassist Sing Along"
      0 40 "Spotlight on Vocals"
      0 39 "Spotlight on Guitar"
      0 38 "Spotlight on Drums"
      0 37 "Spotlight on Bass"
      0 41 "Spotlight on Keys"
    >
    MAINSEND 1 0
    <FXCHAIN
      SHOW 0
      LASTSEL 0
      DOCKED 0
    >
    <ITEM
      POSITION 0.00000000000000
      SNAPOFFS 0.00000000000000
      LENGTH 225.54092445128390
      LOOP 0
      ALLTAKES 0
      SEL 0
      FADEIN 1 0.000000 0.000000 1 0
      FADEOUT 1 0.000000 0.000000 1 0
      MUTE 0
      IGUID {71027329-E0AB-447D-A192-4839733334E7}
      IID 22
      NAME "VENUE"
      VOLPAN 1.000000 0.000000 1.000000 -1.000000
      SOFFS 0.00000000000000 0.00000000000000
      PLAYRATE 1.00000000000000 1 0.00000000000000 -65536
      CHANMODE 0
      GUID {44F0FFD1-5109-4A47-8BED-262AA04D3B23}
      <SOURCE MIDI
        HASDATA 1 480 QN
        POOLEDEVTS {0A4AB97D-373F-4853-B8CD-94FBD419DB39}
        <X 0 0
          /wNWRU5VRQ==
        >
        <X 0 0
          /wFbbGlnaHRpbmcgKGludHJvKV0=
        >
        <X 0 0
          /wFbUHJvRmlsbV9hLnBwXQ==
        >
        <X 0 0
          /wFbY29vcF9hbGxfZmFyXQ==
        >
        <X 3240 0
          /wFbY29vcF9kZ19uZWFyXQ==
        >
        <X 2520 0
          /wFbY29vcF9iZ19uZWFyXQ==
        >
        <X 2130 0
          /wFbY29vcF9iZ19uZWFyXQ==
        >
        <X 735 0
          /wFbUHJvRmlsbV9hLnBwXQ==
        >
        <X 1440 0
          /wFbbGlnaHRpbmcgKGludHJvKV0=
        >
        <X 480 0
          /wFbUHJvRmlsbV9hLnBwXQ==
        >
        <X 0 0
          /wFbbGlnaHRpbmcgKHN3ZWVwKV0=
        >
        <X 495 0
          /wFbY29vcF9ndl9uZWFyXQ==
        >
        <X 2145 0
          /wFbY29vcF9mcm9udF9iZWhpbmRd
        >
        <X 1200 0
          /wFbY29vcF92X2Nsb3NldXBd
        >
        <X 1680 0
          /wFbY29vcF92X25lYXJd
        >
        <X 1695 0
          /wFbY29vcF92X2JlaGluZF0=
        >
        <X 1440 0
          /wFbY29vcF92X25lYXJd
        >
        <X 2880 0
          /wFbY29vcF92X2Nsb3NldXBd
        >
        <X 1920 0
          /wFbY29vcF9iX2JlaGluZF0=
        >
        <X 2865 0
          /wFbY29vcF92X25lYXJd
        >
        <X 2145 0
          /wFbY29vcF9nX25lYXJd
        >
        <X 1695 0
          /wFbUHJvRmlsbV9hLnBwXQ==
        >
        <X 960 0
          /wFbbGlnaHRpbmcgKHN3ZWVwKV0=
        >
        <X 240 0
          /wFbY29vcF9iX25lYXJd
        >
        <X 720 0
          /wFbZGVzYXRfYmx1ZS5wcF0=
        >
        <X 0 0
          /wFbbGlnaHRpbmcgKGxvb3BfY29vbCld
        >
        <X 495 0
          /wFbY29vcF9hbGxfbmVhcl0=
        >
        <X 1185 0
          /wFbY29vcF9kX2JlaGluZF0=
        >
        <X 3600 0
          /wFbY29vcF92X2Nsb3NldXBd
        >
        <X 1665 0
          /wFbY29vcF9nX25lYXJd
        >
        <X 1230 0
          /wFbY29vcF92X25lYXJd
        >
        <X 1905 0
          /wFbY29vcF9kX25lYXJd
        >
        <X 1920 0
          /wFbY29vcF92X25lYXJd
        >
        <X 1680 0
          /wFbY29vcF9nX25lYXJd
        >
        <X 1680 0
          /wFbY29vcF9mcm9udF9uZWFyXQ==
        >
        <X 3855 0
          /wFbY29vcF9kX25lYXJd
        >
        <X 1425 0
          /wFbY29vcF9idl9uZWFyXQ==
        >
        <X 1455 0
          /wFbY29vcF9iX25lYXJd
        >
        <X 1440 0
          /wFbY29vcF92X25lYXJd
        >
        <X 1920 0
          /wFbY29vcF92X2Nsb3NldXBd
        >
        <X 2400 0
          /wFbY29vcF9hbGxfZmFyXQ==
        >
        <X 945 0
          /wFbZGVzYXRfYmx1ZS5wcF0=
        >
        <X 1440 0
          /wFbbGlnaHRpbmcgKGxvb3BfY29vbCld
        >
        <X 480 0
          /wFbUHJvRmlsbV9hLnBwXQ==
        >
        <X 0 0
          /wFbbGlnaHRpbmcgKHN3ZWVwKV0=
        >
        <X 495 0
          /wFbY29vcF9hbGxfYmVoaW5kXQ==
        >
        <X 3360 0
          /wFbY29vcF9mcm9udF9uZWFyXQ==
        >
        <X 3345 0
          /wFbY29vcF92X25lYXJd
        >
        <X 1440 0
          /wFbY29vcF92X2Nsb3NldXBd
        >
        <X 1215 0
          /wFbY29vcF9ndl9uZWFyXQ==
        >
        <X 1680 0
          /wFbY29vcF92X2Nsb3NldXBd
        >
        <X 4785 0
          /wFbY29vcF9hbGxfbmVhcl0=
        >
        <X 1905 0
          /wFbY29vcF9hbGxfYmVoaW5kXQ==
        >
        <X 1935 0
          /wFbUHJvRmlsbV9hLnBwXQ==
        >
        <X 960 0
          /wFbbGlnaHRpbmcgKHN3ZWVwKV0=
        >
        <X 945 0
          /wFbY29vcF9ndl9iZWhpbmRd
        >
        <X 15 0
          /wFbZGVzYXRfYmx1ZS5wcF0=
        >
        <X 0 0
          /wFbbGlnaHRpbmcgKGxvb3BfY29vbCld
        >
        <X 2175 0
          /wFbY29vcF9mcm9udF9uZWFyXQ==
        >
        <X 2625 0
          /wFbY29vcF92X2Nsb3NldXBd
        >
        <X 1935 0
          /wFbY29vcF92X25lYXJd
        >
        <X 1680 0
          /wFbY29vcF9iZ19uZWFyXQ==
        >
        <X 1680 0
          /wFbY29vcF9kX25lYXJd
        >
        <X 1920 0
          /wFbY29vcF92X2Nsb3NldXBd
        >
        <X 3360 0
          /wFbY29vcF9hbGxfbmVhcl0=
        >
        <X 4800 0
          /wFbY29vcF92X25lYXJd
        >
        <X 3810 0
          /wFbY29vcF92X2Nsb3NldXBd
        >
        <X 1695 0
          /wFbY29vcF92X25lYXJd
        >
        <X 1695 0
          /wFbY29vcF9hbGxfZmFyXQ==
        >
        <X 1425 0
          /wFbZGVzYXRfYmx1ZS5wcF0=
        >
        <X 1440 0
          /wFbbGlnaHRpbmcgKGxvb3BfY29vbCld
        >
        <X 480 0
          /wFbUHJvRmlsbV9hLnBwXQ==
        >
        <X 0 0
          /wFbbGlnaHRpbmcgKHN3ZWVwKV0=
        >
        <X 465 0
          /wFbY29vcF92X2Nsb3NldXBd
        >
        <X 3375 0
          /wFbY29vcF92X25lYXJd
        >
        <X 2865 0
          /wFbY29vcF9idl9uZWFyXQ==
        >
        <X 1920 0
          /wFbY29vcF9kZ19uZWFyXQ==
        >
        <X 2910 0
          /wFbY29vcF9idl9iZWhpbmRd
        >
        <X 4770 0
          /wFbY29vcF92X2Nsb3NldXBd
        >
        <X 3870 0
          /wFbY29vcF9kdl9uZWFyXQ==
        >
        <X 3840 0
          /wFbY29vcF9mcm9udF9uZWFyXQ==
        >
        <X 3360 0
          /wFbY29vcF9nX2JlaGluZF0=
        >
        <X 1440 0
          /wFbY29vcF92X25lYXJd
        >
        <X 2865 0
          /wFbY29vcF92X2Nsb3NldXBd
        >
        <X 2895 0
          /wFbY29vcF9hbGxfYmVoaW5kXQ==
        >
        <X 1920 0
          /wFbY29vcF92X25lYXJd
        >
        <X 1425 0
          /wFbUHJvRmlsbV9hLnBwXQ==
        >
        <X 480 0
          /wFbY29vcF92X2JlaGluZF0=
        >
        <X 480 0
          /wFbbGlnaHRpbmcgKHN3ZWVwKV0=
        >
        <X 960 0
          /wFbUHJvRmlsbV9hLnBwXQ==
        >
        <X 0 0
          /wFbbGlnaHRpbmcgKHNlYXJjaGxpZ2h0cyld
        >
        <X 1455 0
          /wFbY29vcF9iZ19uZWFyXQ==
        >
        <X 2400 0
          /wFbY29vcF9nX25lYXJd
        >
        <X 2400 0
          /wFbY29vcF9nX2Nsb3NldXBfaGFuZF0=
        >
        <X 2880 0
          /wFbY29vcF9kX25lYXJd
        >
        <X 2760 0
          /wFbY29vcF9kX2Nsb3NldXBfaGVhZF0=
        >
        <X 3000 0
          /wFbY29vcF9iX25lYXJd
        >
        <X 2760 0
          /wFbY29vcF9mcm9udF9uZWFyXQ==
        >
        <X 2490 0
          /wFbY29vcF9idl9uZWFyXQ==
        >
        <X 2910 0
          /wFbY29vcF9kZ19uZWFyXQ==
        >
        <X 3840 0
          /wFbY29vcF9hbGxfbmVhcl0=
        >
        <X 3840 0
          /wFbY29vcF9hbGxfZmFyXQ==
        >
        <X 2880 0
          /wFbbGlnaHRpbmcgKGJsYWNrb3V0X3Nwb3QpXQ==
        >
        <X 0 0
          /wFbUHJvRmlsbV9hLnBwXQ==
        >
        <X 2400 0
          /wFbY29vcF9hbGxfYmVoaW5kXQ==
        >
        <X 959 0
          /wFbUHJvRmlsbV9hLnBwXQ==
        >
        E 5652 b0 7b 00
        GUID {30097062-47C5-4B33-B665-170EF09D70D9}
        IGNTEMPO 0 120.00000000 4 4
        SRCCOLOR 1250
        VELLANE 132 230 230
        COLORMAP "M:\RGS Documents\ColorMaps\rockband_vox-other.png"
        TEXTSTRINGFILE "C:\Program Files\REAPER (x64)\REAPER\Data\Text_Strings\Text Events List - Venue.txt"
        CFGEDITVIEW 16675.432221 149.477815 60 12 0 0 0
        CFGEDIT 1 1 0 0 1 1 1 1 1 1 1 0.25000000 133 19 1300 803 1 0 1 2 0.00000000 0 0 0 0 0.500000 1 0 1.000000 64
        KEYSNAP 0 0 "102034050607" 0 "Major"
        EVTFILTER 0 -1 -1 -1 -1 0 1 0 0 -1.00000000 -1.00000000
      >
    >
  >
  <TRACK '{7BC63EFC-0ABC-4D0D-8204-E9893AE9FFFA}'
    NAME "BEAT"
    PEAKCOL 23514346
    BEAT -1
    AUTOMODE 0
    VOLPAN 1.00000000000000 0.00000000000000 -1.00000000000000 -1.00000000000000 1.00000000000000
    MUTESOLO 0 0 0
    IPHASE 0
    ISBUS 0 0
    BUSCOMP 1 0
    SHOWINMIX 1 0.666700 0.500000 1 0.500000 -1 -1 -1
    FREEMODE 0
    SEL 0
    REC 0 0 0 0 0 0 0
    TRACKHEIGHT 0 0
    INQ 0 0 0 0.5000000000 100 0 0 100
    NCHAN 2
    FX 1
    TRACKID {7BC63EFC-0ABC-4D0D-8204-E9893AE9FFFA}
    PERF 0
    MIDIOUT -1
    <MIDINOTENAMES
      0 12 "Downbeat"
      0 13 "Up Beats"
    >
    MAINSEND 1 0
    <FXCHAIN
      SHOW 0
      LASTSEL 0
      DOCKED 0
    >
    <ITEM
      POSITION 0.00000000000000
      SNAPOFFS 0.00000000000000
      LENGTH 226.68580224037672
      LOOP 0
      ALLTAKES 0
      SEL 0
      FADEIN 1 0.000000 0.000000 1 0
      FADEOUT 1 0.000000 0.000000 1 0
      MUTE 0
      IGUID {9960CDFD-BF2E-4E67-97CD-4F13D0A3F2ED}
      IID 23
      NAME "BEAT"
      VOLPAN 1.000000 0.000000 1.000000 -1.000000
      SOFFS 0.00000000000000 0.00000000000000
      PLAYRATE 1.00000000000000 1 0.00000000000000 -65536
      CHANMODE 0
      GUID {CEBFDCF1-B2BD-47E1-A085-C26E1C9E9ED2}
      <SOURCE MIDI
        HASDATA 1 480 QN
        POOLEDEVTS {81C7A3F6-9AFE-4E54-8DE4-09FD60D9B4C3}
        <X 0 0
          /wNCRUFU
        >
        e 0 96 0c 64
        e 120 86 0c 00
        e 360 96 0d 64
        e 120 86 0d 00
        e 360 96 0d 64
        e 120 86 0d 00
        e 360 96 0d 64
        e 120 86 0d 00
        e 360 96 0c 64
        e 120 86 0c 00
        e 360 96 0d 64
        e 120 86 0d 00
        e 360 96 0d 64
        e 120 86 0d 00
        e 360 96 0d 64
        e 120 86 0d 00
        e 360 96 0c 64
        e 120 86 0c 00
        e 360 96 0d 64
        e 120 86 0d 00
        e 360 96 0d 64
        e 120 86 0d 00
        e 360 96 0d 64
        e 120 86 0d 00
        e 360 96 0c 64
        e 120 86 0c 00
        e 360 96 0d 64
        e 120 86 0d 00
        e 360 96 0d 64
        e 120 86 0d 00
        e 360 96 0d 64
        e 120 86 0d 00
        e 360 96 0c 64
        e 120 86 0c 00
        e 360 96 0d 64
        e 120 86 0d 00
        e 360 96 0d 64
        e 120 86 0d 00
        e 360 96 0d 64
        e 120 86 0d 00
        e 360 96 0c 64
        e 120 86 0c 00
        e 360 96 0d 64
        e 120 86 0d 00
        e 360 96 0d 64
        e 120 86 0d 00
        e 360 96 0d 64
        e 120 86 0d 00
        e 360 96 0c 64
        e 120 86 0c 00
        e 360 96 0d 64
        e 120 86 0d 00
        e 360 96 0d 64
        e 120 86 0d 00
        e 360 96 0d 64
        e 120 86 0d 00
        e 360 96 0c 64
        e 120 86 0c 00
        e 360 96 0d 64
        e 120 86 0d 00
        e 360 96 0d 64
        e 120 86 0d 00
        e 360 96 0d 64
        e 120 86 0d 00
        e 360 96 0c 64
        e 120 86 0c 00
        e 360 96 0d 64
        e 120 86 0d 00
        e 360 96 0d 64
        e 120 86 0d 00
        e 360 96 0d 64
        e 120 86 0d 00
        e 360 96 0c 64
        e 120 86 0c 00
        e 360 96 0d 64
        e 120 86 0d 00
        e 360 96 0d 64
        e 120 86 0d 00
        e 360 96 0d 64
        e 120 86 0d 00
        e 360 96 0c 64
        e 120 86 0c 00
        e 360 96 0d 64
        e 120 86 0d 00
        e 360 96 0d 64
        e 120 86 0d 00
        e 360 96 0d 64
        e 120 86 0d 00
        e 360 96 0c 64
        e 120 86 0c 00
        e 360 96 0d 64
        e 120 86 0d 00
        e 360 96 0d 64
        e 120 86 0d 00
        e 360 96 0d 64
        e 120 86 0d 00
        e 360 96 0c 64
        e 120 86 0c 00
        e 360 96 0d 64
        e 120 86 0d 00
        e 360 96 0d 64
        e 120 86 0d 00
        e 360 96 0d 64
        e 120 86 0d 00
        e 360 96 0c 64
        e 120 86 0c 00
        e 360 96 0d 64
        e 120 86 0d 00
        e 360 96 0d 64
        e 120 86 0d 00
        e 360 96 0d 64
        e 120 86 0d 00
        e 360 96 0c 64
        e 120 86 0c 00
        e 360 96 0d 64
        e 120 86 0d 00
        e 360 96 0d 64
        e 120 86 0d 00
        e 360 96 0d 64
        e 120 86 0d 00
        e 360 96 0c 64
        e 120 86 0c 00
        e 360 96 0d 64
        e 120 86 0d 00
        e 360 96 0d 64
        e 120 86 0d 00
        e 360 96 0d 64
        e 120 86 0d 00
        e 360 96 0c 64
        e 120 86 0c 00
        e 360 96 0d 64
        e 120 86 0d 00
        e 360 96 0d 64
        e 120 86 0d 00
        e 360 96 0d 64
        e 120 86 0d 00
        e 360 96 0c 64
        e 120 86 0c 00
        e 360 96 0d 64
        e 120 86 0d 00
        e 360 96 0d 64
        e 120 86 0d 00
        e 360 96 0d 64
        e 120 86 0d 00
        e 360 96 0c 64
        e 120 86 0c 00
        e 360 96 0d 64
        e 120 86 0d 00
        e 360 96 0d 64
        e 120 86 0d 00
        e 360 96 0d 64
        e 120 86 0d 00
        e 360 96 0c 64
        e 120 86 0c 00
        e 360 96 0d 64
        e 120 86 0d 00
        e 360 96 0d 64
        e 120 86 0d 00
        e 360 96 0d 64
        e 120 86 0d 00
        e 360 96 0c 64
        e 120 86 0c 00
        e 360 96 0d 64
        e 120 86 0d 00
        e 360 96 0d 64
        e 120 86 0d 00
        e 360 96 0d 64
        e 120 86 0d 00
        e 360 96 0c 64
        e 120 86 0c 00
        e 360 96 0d 64
        e 120 86 0d 00
        e 360 96 0d 64
        e 120 86 0d 00
        e 360 96 0d 64
        e 120 86 0d 00
        e 360 96 0c 64
        e 120 86 0c 00
        e 360 96 0d 64
        e 120 86 0d 00
        e 360 96 0d 64
        e 120 86 0d 00
        e 360 96 0d 64
        e 120 86 0d 00
        e 360 96 0c 64
        e 120 86 0c 00
        e 360 96 0d 64
        e 120 86 0d 00
        e 360 96 0d 64
        e 120 86 0d 00
        e 360 96 0d 64
        e 120 86 0d 00
        e 360 96 0c 64
        e 120 86 0c 00
        e 360 96 0d 64
        e 120 86 0d 00
        e 360 96 0d 64
        e 120 86 0d 00
        e 360 96 0d 64
        e 120 86 0d 00
        e 360 96 0c 64
        e 120 86 0c 00
        e 360 96 0d 64
        e 120 86 0d 00
        e 360 96 0d 64
        e 120 86 0d 00
        e 360 96 0d 64
        e 120 86 0d 00
        e 360 96 0c 64
        e 120 86 0c 00
        e 360 96 0d 64
        e 120 86 0d 00
        e 360 96 0d 64
        e 120 86 0d 00
        e 360 96 0d 64
        e 120 86 0d 00
        e 360 96 0c 64
        e 120 86 0c 00
        e 360 96 0d 64
        e 120 86 0d 00
        e 360 96 0d 64
        e 120 86 0d 00
        e 360 96 0d 64
        e 120 86 0d 00
        e 360 96 0c 64
        e 120 86 0c 00
        e 360 96 0d 64
        e 120 86 0d 00
        e 360 96 0d 64
        e 120 86 0d 00
        e 360 96 0d 64
        e 120 86 0d 00
        e 360 96 0c 64
        e 120 86 0c 00
        e 360 96 0d 64
        e 120 86 0d 00
        e 360 96 0d 64
        e 120 86 0d 00
        e 360 96 0d 64
        e 120 86 0d 00
        e 360 96 0c 64
        e 120 86 0c 00
        e 360 96 0d 64
        e 120 86 0d 00
        e 360 96 0d 64
        e 120 86 0d 00
        e 360 96 0d 64
        e 120 86 0d 00
        e 360 96 0c 64
        e 120 86 0c 00
        e 360 96 0d 64
        e 120 86 0d 00
        e 360 96 0d 64
        e 120 86 0d 00
        e 360 96 0d 64
        e 120 86 0d 00
        e 360 96 0c 64
        e 120 86 0c 00
        e 360 96 0d 64
        e 120 86 0d 00
        e 360 96 0d 64
        e 120 86 0d 00
        e 360 96 0d 64
        e 120 86 0d 00
        e 360 96 0c 64
        e 120 86 0c 00
        e 360 96 0d 64
        e 120 86 0d 00
        e 360 96 0d 64
        e 120 86 0d 00
        e 360 96 0d 64
        e 120 86 0d 00
        e 360 96 0c 64
        e 120 86 0c 00
        e 360 96 0d 64
        e 120 86 0d 00
        e 360 96 0d 64
        e 120 86 0d 00
        e 360 96 0d 64
        e 120 86 0d 00
        e 360 96 0c 64
        e 120 86 0c 00
        e 360 96 0d 64
        e 120 86 0d 00
        e 360 96 0d 64
        e 120 86 0d 00
        e 360 96 0d 64
        e 120 86 0d 00
        e 360 96 0c 64
        e 120 86 0c 00
        e 360 96 0d 64
        e 120 86 0d 00
        e 360 96 0d 64
        e 120 86 0d 00
        e 360 96 0d 64
        e 120 86 0d 00
        e 360 96 0c 64
        e 120 86 0c 00
        e 360 96 0d 64
        e 120 86 0d 00
        e 360 96 0d 64
        e 120 86 0d 00
        e 360 96 0d 64
        e 120 86 0d 00
        e 360 96 0c 64
        e 120 86 0c 00
        e 360 96 0d 64
        e 120 86 0d 00
        e 360 96 0d 64
        e 120 86 0d 00
        e 360 96 0d 64
        e 120 86 0d 00
        e 360 96 0c 64
        e 120 86 0c 00
        e 360 96 0d 64
        e 120 86 0d 00
        e 360 96 0d 64
        e 120 86 0d 00
        e 360 96 0d 64
        e 120 86 0d 00
        e 360 96 0c 64
        e 120 86 0c 00
        e 360 96 0d 64
        e 120 86 0d 00
        e 360 96 0d 64
        e 120 86 0d 00
        e 360 96 0d 64
        e 120 86 0d 00
        e 360 96 0c 64
        e 120 86 0c 00
        e 360 96 0d 64
        e 120 86 0d 00
        e 360 96 0d 64
        e 120 86 0d 00
        e 360 96 0d 64
        e 120 86 0d 00
        e 360 96 0c 64
        e 120 86 0c 00
        e 360 96 0d 64
        e 120 86 0d 00
        e 360 96 0d 64
        e 120 86 0d 00
        e 360 96 0d 64
        e 120 86 0d 00
        e 360 96 0c 64
        e 120 86 0c 00
        e 360 96 0d 64
        e 120 86 0d 00
        e 360 96 0d 64
        e 120 86 0d 00
        e 360 96 0d 64
        e 120 86 0d 00
        e 360 96 0c 64
        e 120 86 0c 00
        e 360 96 0d 64
        e 120 86 0d 00
        e 360 96 0d 64
        e 120 86 0d 00
        e 360 96 0d 64
        e 120 86 0d 00
        e 360 96 0c 64
        e 120 86 0c 00
        e 360 96 0d 64
        e 120 86 0d 00
        e 360 96 0d 64
        e 120 86 0d 00
        e 360 96 0d 64
        e 120 86 0d 00
        e 360 96 0c 64
        e 120 86 0c 00
        e 360 96 0d 64
        e 120 86 0d 00
        e 360 96 0d 64
        e 120 86 0d 00
        e 360 96 0d 64
        e 120 86 0d 00
        e 360 96 0c 64
        e 120 86 0c 00
        e 360 96 0d 64
        e 120 86 0d 00
        e 360 96 0d 64
        e 120 86 0d 00
        e 360 96 0d 64
        e 120 86 0d 00
        e 360 96 0c 64
        e 120 86 0c 00
        e 360 96 0d 64
        e 120 86 0d 00
        e 360 96 0d 64
        e 120 86 0d 00
        e 360 96 0d 64
        e 120 86 0d 00
        e 360 96 0c 64
        e 120 86 0c 00
        e 360 96 0d 64
        e 120 86 0d 00
        e 360 96 0d 64
        e 120 86 0d 00
        e 360 96 0d 64
        e 120 86 0d 00
        e 360 96 0c 64
        e 120 86 0c 00
        e 360 96 0d 64
        e 120 86 0d 00
        e 360 96 0d 64
        e 120 86 0d 00
        e 360 96 0d 64
        e 120 86 0d 00
        e 360 96 0c 64
        e 120 86 0c 00
        e 360 96 0d 64
        e 120 86 0d 00
        e 360 96 0d 64
        e 120 86 0d 00
        e 360 96 0d 64
        e 120 86 0d 00
        e 360 96 0c 64
        e 120 86 0c 00
        e 360 96 0d 64
        e 120 86 0d 00
        e 360 96 0d 64
        e 120 86 0d 00
        e 360 96 0d 64
        e 120 86 0d 00
        e 360 96 0c 64
        e 120 86 0c 00
        e 360 96 0d 64
        e 120 86 0d 00
        e 360 96 0d 64
        e 120 86 0d 00
        e 360 96 0d 64
        e 120 86 0d 00
        e 360 96 0c 64
        e 120 86 0c 00
        e 360 96 0d 64
        e 120 86 0d 00
        e 360 96 0d 64
        e 120 86 0d 00
        e 360 96 0d 64
        e 120 86 0d 00
        e 360 96 0c 64
        e 120 86 0c 00
        e 360 96 0d 64
        e 120 86 0d 00
        e 360 96 0d 64
        e 120 86 0d 00
        e 360 96 0d 64
        e 120 86 0d 00
        e 360 96 0c 64
        e 120 86 0c 00
        e 360 96 0d 64
        e 120 86 0d 00
        e 360 96 0d 64
        e 120 86 0d 00
        e 360 96 0d 64
        e 120 86 0d 00
        e 360 96 0c 64
        e 120 86 0c 00
        e 360 96 0d 64
        e 120 86 0d 00
        e 360 96 0d 64
        e 120 86 0d 00
        e 360 96 0d 64
        e 120 86 0d 00
        e 360 96 0c 64
        e 120 86 0c 00
        e 360 96 0d 64
        e 120 86 0d 00
        e 360 96 0d 64
        e 120 86 0d 00
        e 360 96 0d 64
        e 120 86 0d 00
        e 360 96 0c 64
        e 120 86 0c 00
        e 360 96 0d 64
        e 120 86 0d 00
        e 360 96 0d 64
        e 120 86 0d 00
        e 360 96 0d 64
        e 120 86 0d 00
        e 360 96 0c 64
        e 120 86 0c 00
        e 360 96 0d 64
        e 120 86 0d 00
        e 360 96 0d 64
        e 120 86 0d 00
        e 360 96 0d 64
        e 120 86 0d 00
        e 360 96 0c 64
        e 120 86 0c 00
        e 360 96 0d 64
        e 120 86 0d 00
        e 360 96 0d 64
        e 120 86 0d 00
        e 360 96 0d 64
        e 120 86 0d 00
        e 360 96 0c 64
        e 120 86 0c 00
        e 360 96 0d 64
        e 120 86 0d 00
        e 360 96 0d 64
        e 120 86 0d 00
        e 360 96 0d 64
        e 120 86 0d 00
        e 360 96 0c 64
        e 120 86 0c 00
        e 360 96 0d 64
        e 120 86 0d 00
        e 360 96 0d 64
        e 120 86 0d 00
        e 360 96 0d 64
        e 120 86 0d 00
        e 360 96 0c 64
        e 120 86 0c 00
        e 360 96 0d 64
        e 120 86 0d 00
        e 360 96 0d 64
        e 120 86 0d 00
        e 360 96 0d 64
        e 120 86 0d 00
        e 360 96 0c 64
        e 120 86 0c 00
        e 360 96 0d 64
        e 120 86 0d 00
        e 360 96 0d 64
        e 120 86 0d 00
        e 360 96 0d 64
        e 120 86 0d 00
        e 360 96 0c 64
        e 120 86 0c 00
        e 360 96 0d 64
        e 120 86 0d 00
        e 360 96 0d 64
        e 120 86 0d 00
        e 360 96 0d 64
        e 120 86 0d 00
        e 360 96 0c 64
        e 120 86 0c 00
        e 360 96 0d 64
        e 120 86 0d 00
        e 360 96 0d 64
        e 120 86 0d 00
        e 360 96 0d 64
        e 120 86 0d 00
        e 360 96 0c 64
        e 120 86 0c 00
        e 360 96 0d 64
        e 120 86 0d 00
        e 360 96 0d 64
        e 120 86 0d 00
        e 360 96 0d 64
        e 120 86 0d 00
        e 360 96 0c 64
        e 120 86 0c 00
        e 360 96 0d 64
        e 120 86 0d 00
        e 360 96 0d 64
        e 120 86 0d 00
        e 360 96 0d 64
        e 120 86 0d 00
        e 360 96 0c 64
        e 120 86 0c 00
        e 360 96 0d 64
        e 120 86 0d 00
        e 360 96 0d 64
        e 120 86 0d 00
        e 360 96 0d 64
        e 120 86 0d 00
        e 360 96 0c 64
        e 120 86 0c 00
        e 360 96 0d 64
        e 120 86 0d 00
        e 360 96 0d 64
        e 120 86 0d 00
        e 360 96 0d 64
        e 120 86 0d 00
        e 360 96 0c 64
        e 120 86 0c 00
        e 360 96 0d 64
        e 120 86 0d 00
        e 360 96 0d 64
        e 120 86 0d 00
        e 360 96 0d 64
        e 120 86 0d 00
        e 360 96 0c 64
        e 120 86 0c 00
        e 360 96 0d 64
        e 120 86 0d 00
        e 360 96 0d 64
        e 120 86 0d 00
        e 360 96 0d 64
        e 120 86 0d 00
        e 360 96 0c 64
        e 120 86 0c 00
        e 360 96 0d 64
        e 120 86 0d 00
        e 360 96 0d 64
        e 120 86 0d 00
        e 360 96 0d 64
        e 120 86 0d 00
        e 360 96 0c 64
        e 120 86 0c 00
        e 360 96 0d 64
        e 120 86 0d 00
        e 360 96 0d 64
        e 120 86 0d 00
        e 360 96 0d 64
        e 120 86 0d 00
        e 360 96 0c 64
        e 120 86 0c 00
        e 360 96 0d 64
        e 120 86 0d 00
        e 360 96 0d 64
        e 120 86 0d 00
        e 360 96 0d 64
        e 120 86 0d 00
        e 360 96 0c 64
        e 120 86 0c 00
        e 360 96 0d 64
        e 120 86 0d 00
        e 360 96 0d 64
        e 120 86 0d 00
        e 360 96 0d 64
        e 120 86 0d 00
        e 360 96 0c 64
        e 120 86 0c 00
        e 360 96 0d 64
        e 120 86 0d 00
        e 360 96 0d 64
        e 120 86 0d 00
        e 360 96 0d 64
        e 120 86 0d 00
        e 360 96 0c 64
        e 120 86 0c 00
        e 360 96 0d 64
        e 120 86 0d 00
        e 360 96 0d 64
        e 120 86 0d 00
        e 360 96 0d 64
        e 120 86 0d 00
        e 360 96 0c 64
        e 120 86 0c 00
        e 360 96 0d 64
        e 120 86 0d 00
        e 360 96 0d 64
        e 120 86 0d 00
        e 360 96 0d 64
        e 120 86 0d 00
        e 360 96 0c 64
        e 120 86 0c 00
        e 360 96 0d 64
        e 120 86 0d 00
        e 360 96 0d 64
        e 120 86 0d 00
        e 360 96 0d 64
        e 120 86 0d 00
        e 360 96 0c 64
        e 120 86 0c 00
        e 360 96 0d 64
        e 120 86 0d 00
        e 360 96 0d 64
        e 120 86 0d 00
        e 360 96 0d 64
        e 120 86 0d 00
        e 360 96 0c 64
        e 120 86 0c 00
        e 360 96 0d 64
        e 120 86 0d 00
        e 360 96 0d 64
        e 120 86 0d 00
        e 360 96 0d 64
        e 120 86 0d 00
        e 360 96 0c 64
        e 120 86 0c 00
        e 360 96 0d 64
        e 120 86 0d 00
        e 360 96 0d 64
        e 120 86 0d 00
        e 360 96 0d 64
        e 120 86 0d 00
        e 360 96 0c 64
        e 120 86 0c 00
        e 360 96 0d 64
        e 120 86 0d 00
        e 360 96 0d 64
        e 120 86 0d 00
        e 360 96 0d 64
        e 120 86 0d 00
        e 360 96 0c 64
        e 120 86 0c 00
        e 360 96 0d 64
        e 120 86 0d 00
        e 360 96 0d 64
        e 120 86 0d 00
        e 360 96 0d 64
        e 120 86 0d 00
        e 360 96 0c 64
        e 120 86 0c 00
        e 360 96 0d 64
        e 120 86 0d 00
        e 360 96 0d 64
        e 120 86 0d 00
        e 360 96 0d 64
        e 120 86 0d 00
        e 360 96 0c 64
        e 120 86 0c 00
        e 360 96 0d 64
        e 120 86 0d 00
        e 360 96 0d 64
        e 120 86 0d 00
        e 360 96 0d 64
        e 120 86 0d 00
        e 360 96 0c 64
        e 120 86 0c 00
        e 360 96 0d 64
        e 120 86 0d 00
        e 360 96 0d 64
        e 120 86 0d 00
        e 360 96 0d 64
        e 120 86 0d 00
        e 360 96 0c 64
        e 120 86 0c 00
        e 360 96 0d 64
        e 120 86 0d 00
        e 360 96 0d 64
        e 120 86 0d 00
        e 360 96 0d 64
        e 120 86 0d 00
        e 360 96 0c 64
        e 120 86 0c 00
        e 360 96 0d 64
        e 120 86 0d 00
        e 360 96 0d 64
        e 120 86 0d 00
        e 360 96 0d 64
        e 120 86 0d 00
        e 360 96 0c 64
        e 120 86 0c 00
        e 360 96 0d 64
        e 120 86 0d 00
        e 360 96 0d 64
        e 120 86 0d 00
        e 360 96 0d 64
        e 120 86 0d 00
        e 360 96 0c 64
        e 120 86 0c 00
        e 360 96 0d 64
        e 120 86 0d 00
        e 360 96 0d 64
        e 120 86 0d 00
        e 360 96 0d 64
        e 120 86 0d 00
        e 360 96 0c 64
        e 120 86 0c 00
        e 360 96 0d 64
        e 120 86 0d 00
        e 360 96 0d 64
        e 120 86 0d 00
        e 360 96 0d 64
        e 120 86 0d 00
        e 360 96 0c 64
        e 120 86 0c 00
        e 360 96 0d 64
        e 120 86 0d 00
        e 360 96 0d 64
        e 120 86 0d 00
        e 360 96 0d 64
        e 120 86 0d 00
        e 360 96 0c 64
        e 120 86 0c 00
        e 360 96 0d 64
        e 120 86 0d 00
        e 360 96 0d 64
        e 120 86 0d 00
        e 360 96 0d 64
        e 120 86 0d 00
        e 360 96 0c 64
        e 120 86 0c 00
        e 360 96 0d 64
        e 120 86 0d 00
        e 360 96 0d 64
        e 120 86 0d 00
        e 360 96 0d 64
        e 120 86 0d 00
        e 360 96 0c 64
        e 120 86 0c 00
        e 360 96 0d 64
        e 120 86 0d 00
        e 360 96 0d 64
        e 120 86 0d 00
        e 360 96 0d 64
        e 120 86 0d 00
        e 360 96 0c 64
        e 120 86 0c 00
        e 360 96 0d 64
        e 120 86 0d 00
        e 360 96 0d 64
        e 120 86 0d 00
        e 360 96 0d 64
        e 120 86 0d 00
        e 360 96 0c 64
        e 120 86 0c 00
        e 360 96 0d 64
        e 120 86 0d 00
        E 7025 b0 7b 00
        GUID {8CB930E8-B6A0-4CAD-825A-9F47FB66C1D0}
        IGNTEMPO 0 120.00000000 4 4
        SRCCOLOR 1251
        VELLANE 132 100 100
        COLORMAP "M:\RGS Documents\ColorMaps\rockband_vox-other.png"
        TEXTSTRINGFILE "Text Events List.txt"
        CFGEDITVIEW -59757.503200 7.583985 0 48 0 0 0
        CFGEDIT 1 1 0 0 0 1 1 1 1 1 1 1.00000000 44 63 1223 847 1 2 1 2 0.00000000 0 0 0 0 0.500000 1 0 1.000000 64
        KEYSNAP 0 0 "102034050607" 0 "Major"
        EVTFILTER 0 -1 -1 -1 -1 0 1 0 0 -1.00000000 -1.00000000
      >
    >
  >
  <TRACK '{0E2FE3F2-76C0-4A51-94D0-F118951ACC28}'
    NAME "PART REAL_GUITAR"
    PEAKCOL 16576
    BEAT -1
    AUTOMODE 0
    VOLPAN 1.00000000000000 0.00000000000000 -1.00000000000000 -1.00000000000000 1.00000000000000
    MUTESOLO 1 0 0
    IPHASE 0
    ISBUS 0 0
    BUSCOMP 0 0
    SHOWINMIX 1 0.666700 0.500000 1 0.500000 -1 -1 -1
    FREEMODE 0
    SEL 0
    REC 0 0 0 0 0 0 0
    TRACKHEIGHT 24 0
    INQ 0 0 0 0.5000000000 100 0 0 100
    NCHAN 2
    FX 1
    TRACKID {0E2FE3F2-76C0-4A51-94D0-F118951ACC28}
    PERF 0
    MIDIOUT -1
    <MIDINOTENAMES
      0 101 "EXPERT E String (HIGH)"
      0 100 "EXPERT B String"
      0 99 "EXPERT G String"
      0 98 "EXPERT D String"
      0 97 "EXPERT A String"
      0 96 "EXPERT E String (LOW)"
      0 77 "HARD E String (HIGH)"
      0 72 "HARD E String (LOW)"
      0 53 "MEDIUM E String (HIGH)"
      0 48 "MEDIUM E String (LOW)"
      0 29 "EASY E String (HIGH)"
      0 24 "EASY E String (LOW)"
      0 76 "HARD B String"
      0 75 "HARD G String"
      0 74 "HARD D String"
      0 73 "HARD A String"
      0 52 "MEDIUM B String"
      0 51 "MEDIUM G String"
      0 50 "MEDIUM D String"
      0 49 "MEDIUM A String"
      0 28 "EASY B String"
      0 27 "EASY G String"
      0 26 "EASY D String"
      0 25 "EASY A String"
      0 116 "OVERDRIVE"
      0 115 "Solo Marker"
      0 125 "BRE"
      0 120 "BRE (use all 6)"
      0 124 "BRE"
      0 123 "BRE"
      0 122 "BRE"
      0 121 "BRE"
      0 127 "Trill"
      0 126 "Tremelo"
      0 108 "Left hand position"
      0 107 "Force Chord Numbering"
      0 104 "EXPERT Arpeggio Marker"
      0 103 "EXPERT Slide Marker"
      0 102 "EXPERT Force Ho/Po"
      0 80 "HARD Arpeggio Marker"
      0 79 "HARD Slide Marker"
      0 78 "Force Ho/Po"
      0 55 "MEDIUM Slide Marker"
      0 31 "EASY Slide Marker"
      0 17 "Hide Chord Names"
      0 15 "Eb"
      0 14 "D"
      0 13 "Db"
      0 12 "C"
      0 11 "B"
      0 10 "Bb"
      0 9 "A"
      0 8 "Ab"
      0 7 "G"
      0 6 "Gb"
      0 5 "F"
      0 4 "E"
      0 105 "EXPERT Strum Direction"
      0 81 "HARD Strum Direction"
      0 56 "MEDIUM Arpeggio Marker"
      0 32 "EASY Arpeggio Marker"
      0 21 "CHORD NAMES"
      0 18 "Flat/Sharp Swap"
      0 16 "Slash Chord"
    >
    MAINSEND 1 0
    <FXCHAIN
      SHOW 0
      LASTSEL 0
      DOCKED 0
    >
    <ITEM
      POSITION 0.00000000000000
      SNAPOFFS 0.00000000000000
      LENGTH 205.52559586953214
      LOOP 0
      ALLTAKES 0
      SEL 0
      FADEIN 1 0.000000 0.000000 1 0
      FADEOUT 1 0.000000 0.000000 1 0
      MUTE 0
      IGUID {20F1321F-9ED7-4853-AD09-40B222B05CF8}
      IID 24
      NAME "PART REAL_GUITAR"
      VOLPAN 1.000000 0.000000 1.000000 -1.000000
      SOFFS 0.00000000000000 0.00000000000000
      PLAYRATE 1.00000000000000 1 0.00000000000000 -1
      CHANMODE 0
      GUID {3CDDC74F-292B-448F-83EC-680F8CEF1C9B}
      <SOURCE MIDI
        HASDATA 1 480 QN
        POOLEDEVTS {2E9051BF-1DC9-47BB-BE38-6AA8524A5C8E}
        <X 0 0
          /wNQQVJUIFJFQUxfR1VJVEFS
        >
        E 3840 90 18 64
        E 0 90 19 64
        E 0 90 1a 64
        E 0 90 1b 64
        E 0 90 1c 64
        E 0 90 1d 64
        E 0 90 30 64
        E 0 90 31 64
        E 0 90 32 64
        E 0 90 33 64
        E 0 90 34 64
        E 0 90 35 64
        E 0 90 48 64
        E 0 90 49 64
        E 0 90 4a 64
        E 0 90 4b 64
        E 0 90 4c 64
        E 0 90 4d 64
        E 0 90 60 64
        E 0 90 61 64
        E 0 90 62 64
        E 0 90 63 64
        E 0 90 64 64
        E 0 90 65 64
        E 120 80 18 00
        E 0 80 19 00
        E 0 80 1a 00
        E 0 80 1b 00
        E 0 80 1c 00
        E 0 80 1d 00
        E 0 80 30 00
        E 0 80 31 00
        E 0 80 32 00
        E 0 80 33 00
        E 0 80 34 00
        E 0 80 35 00
        E 0 80 48 00
        E 0 80 49 00
        E 0 80 4a 00
        E 0 80 4b 00
        E 0 80 4c 00
        E 0 80 4d 00
        E 0 80 60 00
        E 0 80 61 00
        E 0 80 62 00
        E 0 80 63 00
        E 0 80 64 00
        E 0 80 65 00
        E 177000 b0 7b 00
        GUID {95EB2031-BC44-4B36-809B-F7595C07BF30}
        IGNTEMPO 0 120.00000000 4 4
        SRCCOLOR 1252
        VELLANE 132 123 128
        COLORMAP "C:\Program Files\REAPER\Data\color_maps\rockband_guitarbass.png"
        TEXTSTRINGFILE "C:\Program Files\REAPER\Data\Text_Strings\Text Events List.txt"
        CFGEDITVIEW 0.000000 0.103438 87 12 0 0 0
        CFGEDIT 1 1 0 0 0 1 1 1 1 1 1 0.25000000 0 0 683 728 1 0 0 2 0.12500000 0 1 0 0 0.500000 0 0 1.000000 64
        KEYSNAP 0 0 "102034050607" 0 "Major"
        EVTFILTER 0 -1 -1 -1 -1 0 1 0 0 -1.00000000 -1.00000000
      >
    >
  >
  <TRACK '{4048E3A2-B3FC-493C-BF0E-D7B7B9F9DFF3}'
    NAME "PART REAL_BASS"
    PEAKCOL 16576
    BEAT -1
    AUTOMODE 0
    VOLPAN 1.00000000000000 0.00000000000000 -1.00000000000000 -1.00000000000000 1.00000000000000
    MUTESOLO 1 0 0
    IPHASE 0
    ISBUS 0 0
    BUSCOMP 0 0
    SHOWINMIX 1 0.666700 0.500000 1 0.500000 -1 -1 -1
    FREEMODE 0
    SEL 0
    REC 0 0 0 0 0 0 0
    TRACKHEIGHT 24 0
    INQ 0 0 0 0.5000000000 100 0 0 100
    NCHAN 2
    FX 1
    TRACKID {4048E3A2-B3FC-493C-BF0E-D7B7B9F9DFF3}
    PERF 0
    MIDIOUT -1
    <MIDINOTENAMES
      0 99 "EXPERT G String"
      0 98 "EXPERT D String"
      0 97 "EXPERT A String"
      0 96 "EXPERT E String (LOW)"
      0 72 "HARD E String (LOW)"
      0 48 "MEDIUM E String (LOW)"
      0 24 "EASY E String (LOW)"
      0 75 "HARD G String"
      0 74 "HARD D String"
      0 73 "HARD A String"
      0 51 "MEDIUM G String"
      0 50 "MEDIUM D String"
      0 49 "MEDIUM A String"
      0 27 "EASY G String"
      0 26 "EASY D String"
      0 25 "EASY A String"
      0 116 "OVERDRIVE"
      0 115 "Solo Marker"
      0 120 "BRE (use all 6)"
      0 123 "BRE"
      0 122 "BRE"
      0 121 "BRE"
      0 127 "Trill"
      0 126 "Tremelo"
      0 125 "BRE"
      0 124 "BRE"
      0 108 "Left hand position"
      0 107 "Force Chord Numbering"
      0 104 "EXPERT Arpeggio Marker"
      0 103 "EXPERT Slide Marker"
      0 102 "EXPERT Force Ho/Po"
      0 101 "EXPERT E String (HIGH)"
      0 100 "EXPERT B String"
      0 80 "HARD Arpeggio Marker"
      0 79 "HARD Slide Marker"
      0 78 "Force Ho/Po"
      0 77 "HARD E String (HIGH)"
      0 76 "HARD B String"
      0 55 "MEDIUM Slide Marker"
      0 53 "MEDIUM E String (HIGH)"
      0 52 "MEDIUM B String"
      0 31 "EASY Slide Marker"
      0 29 "EASY E String (HIGH)"
      0 28 "EASY B String"
      0 17 "Hide Chord Names"
      0 15 "Eb"
      0 14 "D"
      0 13 "Db"
      0 12 "C"
      0 11 "B"
      0 10 "Bb"
      0 9 "A"
      0 8 "Ab"
      0 7 "G"
      0 6 "Gb"
      0 5 "F"
      0 4 "E"
      0 105 "EXPERT Strum Direction"
      0 81 "HARD Strum Direction"
      0 56 "MEDIUM Arpeggio Marker"
      0 32 "EASY Arpeggio Marker"
      0 21 "CHORD NAMES"
      0 18 "Flat/Sharp Swap"
      0 16 "Slash Chord"
    >
    MAINSEND 1 0
    <FXCHAIN
      SHOW 0
      LASTSEL 0
      DOCKED 0
    >
    <ITEM
      POSITION 0.00000000000000
      SNAPOFFS 0.00000000000000
      LENGTH 205.52559586953214
      LOOP 0
      ALLTAKES 0
      SEL 0
      FADEIN 1 0.000000 0.000000 1 0
      FADEOUT 1 0.000000 0.000000 1 0
      MUTE 0
      IGUID {20F1321F-9ED7-4853-AD09-40B222B05CF8}
      IID 25
      NAME "PART REAL_BASS"
      VOLPAN 1.000000 0.000000 1.000000 -1.000000
      SOFFS 0.00000000000000 0.00000000000000
      PLAYRATE 1.00000000000000 1 0.00000000000000 -1
      CHANMODE 0
      GUID {3CDDC74F-292B-448F-83EC-680F8CEF1C9B}
      <SOURCE MIDI
        HASDATA 1 480 QN
        POOLEDEVTS {299BB251-09D4-4E28-B169-93890A8724E5}
        <X 0 0
          /wNQQVJUIFJFQUxfQkFTUw==
        >
        E 3840 90 18 64
        E 0 90 19 64
        E 0 90 1a 64
        E 0 90 1b 64
        E 0 90 30 64
        E 0 90 31 64
        E 0 90 32 64
        E 0 90 33 64
        E 0 90 48 64
        E 0 90 49 64
        E 0 90 4a 64
        E 0 90 4b 64
        E 0 90 60 64
        E 0 90 61 64
        E 0 90 62 64
        E 0 90 63 64
        E 120 80 18 00
        E 0 80 19 00
        E 0 80 1a 00
        E 0 80 1b 00
        E 0 80 30 00
        E 0 80 31 00
        E 0 80 32 00
        E 0 80 33 00
        E 0 80 48 00
        E 0 80 49 00
        E 0 80 4a 00
        E 0 80 4b 00
        E 0 80 60 00
        E 0 80 61 00
        E 0 80 62 00
        E 0 80 63 00
        E 177000 b0 7b 00
        GUID {95EB2031-BC44-4B36-809B-F7595C07BF30}
        IGNTEMPO 0 120.00000000 4 4
        SRCCOLOR 1253
        VELLANE 132 123 128
        COLORMAP "C:\Program Files\REAPER\Data\color_maps\rockband_guitarbass.png"
        TEXTSTRINGFILE "C:\Program Files\REAPER\Data\Text_Strings\Text Events List.txt"
        CFGEDITVIEW 0.000000 0.179136 0 12 0 0 0
        CFGEDIT 1 1 0 0 0 1 1 1 1 1 1 0.25000000 0 0 683 728 1 0 0 2 0.00000000 0 1 0 0 0.500000 0 0 1.000000 64
        KEYSNAP 0 0 "102034050607" 0 "Major"
        EVTFILTER 0 -1 -1 -1 -1 0 1 0 0 -1.00000000 -1.00000000
      >
    >
  >
>
