<REAPER_PROJECT 0.1 "4.22/x64"
  RIPPLE 0
  GROUPOVERRIDE 0 1 0
  AUTOXFADE 1
  ENVATTACH 1
  MIXERUIFLAGS 11 48
  PEAKGAIN 1.00000000000000
  FEEDBACK 0
  PANLAW 1.00000000000000
  PROJOFFS 0.00000000000000 0
  MAXPROJLEN 0 600.00000000000000
  GRID 1407 8 1.00000000000000 8 1.00000000000000 0
  TIMEMODE 1 0 -1
  CURSOR 153.95537822198318
  ZOOM 117.07796713740879 17040 0
  VZOOMEX 0
  USE_REC_CFG 0
  RECMODE 1
  SMPTESYNC 0 30.000000 100 40 1000 300 0 0.000000 0
  LOOP 1
  LOOPGRAN 0 4.00000000000000
  RECORD_PATH "" ""
  <RECORD_CFG
    ZXZhdxgA
  >
  <APPLYFX_CFG
  >
  RENDER_FILE ""
  RENDER_PATTERN ""
  RENDER_FMT 0 2 0
  RENDER_1X 0
  RENDER_RANGE 1 0.00000000000000 0.00000000000000
  RENDER_RESAMPLE 3 0 1
  RENDER_ADDTOPROJ 0
  RENDER_STEMS 0
  RENDER_DITHER 0
  TIMELOCKMODE 0
  ITEMMIX 0
  DEFPITCHMODE 0
  TAKELANE 1
  SAMPLERATE 44100 0 0
  <RENDER_CFG
  >
  LOCK 1
  <METRONOME 6 2.000000
    VOL 0.752735 0.723913
    FREQ 800 1600 0
    BEATLEN 4
    SAMPLES "" ""
  >
  GLOBAL_AUTO -1
  TEMPO 120.00000000000000 4 4
  PLAYRATE 1.00000000000000 0 0.25000 4.00000
  SELECTION 0.00000000000000 0.00000000000000
  SELECTION2 0.00000000000000 0.00000000000000
  MASTERAUTOMODE 0
  MASTERTRACKHEIGHT 35
  MASTERPEAKCOL 16576
  MASTERMUTESOLO 0
  MASTERTRACKVIEW 1 0.666700 0.500000 0.500000 -1 -1 -1
  MASTERHWOUT 0 0 1.00000000000000 0.00000000000000 0 0 0 -1.00000000000000
  MASTER_NCH 2 2
  MASTER_VOLUME 1.05925372517729 0.00000000000000 -1.00000000000000 -1.00000000000000 1.00000000000000
  MASTER_FX 1
  MASTER_SEL 0
  <MASTERFXLIST
    SHOW 0
    LASTSEL 0
    DOCKED 0
    BYPASS 0 0
    <VST "VST: W1 Limiter (George Yohng)" "George Yohng_s W1 Limiter.dll" 0 ""
      THdGNO5e7f4CAAAAAQAAAAAAAAACAAAAAAAAAAIAAAABAAAAAAAAAA==
      AgAAAAAAAABMAAAAAQAAAAAAEAAMAACBdGhyZXNoAAD+1Hg/DAAAgQ==
      Y2VpbGluZwD+1Hg/DAAAgXJlbGVhc2UAMEAfPxQAAIFhZGFwdFJlbA==
      ZWFzZQAAAAAAAAAAAAAAgAAAEAAAAA==
    >
    FLOATPOS 24 24 481 152
    FXID {69D45D23-FE06-4141-B0BB-1A6D9443AFA8}
    WAK 0
  >
  <MASTERPLAYSPEEDENV
    ACT 0
    VIS 0 1 1.000000
    LANEHEIGHT 0 0
    ARM 0
    DEFSHAPE 0 -1 -1
  >
  <TEMPOENVEX
    ACT 1
    VIS 1 0 1.000000
    LANEHEIGHT 0 0
    ARM 0
    DEFSHAPE 1 -1 -1
    PT 0.000000000000 110.0000000000 1
    PT 2.181818181818 110.0225983953 1
    PT 4.363188223068 110.8946004302 1
    PT 6.527405408297 109.4564860154 1
    PT 8.720057563842 111.9263891510 1
    PT 10.864324003782 109.3331702462 1
    PT 13.059449229361 109.6420210096 1
    PT 15.248391003600 110.8950726783 1
    PT 17.412598972481 109.9526216357 1
    PT 19.595357295381 110.5791323003 1
    PT 21.765748715601 109.6420210096 1
    PT 23.954690489841 111.2128236029 1
    PT 26.112715007382 109.9526216357 1
    PT 28.295473330281 109.6420210096 1
    PT 30.484415104521 110.5791323003 1
    PT 32.654806524741 110.5791323003 1
    PT 34.825197944962 109.3331702462 1
    PT 37.020323170541 110.5791323003 1
    PT 39.190714590761 110.2649870381 1
    PT 41.367289462321 111.2128236029 1
    PT 43.525313979863 109.3331702462 1
    PT 45.720439205442 110.8950726783 1
    PT 47.884647174322 109.3331702462 1
    PT 50.079772399902 110.8950726783 1
    PT 52.243980368782 110.5791323003 1
    PT 54.414371789003 110.8950726783 1
    PT 56.578579757884 110.2649870381 1
    PT 58.755154629444 110.2649870381 1
    PT 60.931729501004 109.3331702462 1
    PT 63.126854726583 111.2128236029 1
    PT 65.284879244124 109.6420210096 1
    PT 67.473821018363 110.9353972654 1
    PT 69.637242306033 110.9353972654 1
    PT 71.800663593704 109.8734233509 1
    PT 73.984995279025 109.3331702462 1
    PT 76.180120504604 109.3331702462 1
    PT 78.375245730183 110.2649870381 1
    PT 80.551820601743 110.5791323003 1
    PT 82.722212021964 110.2649870381 1
    PT 84.898786893524 109.6420210096 1
    PT 87.087728667763 110.5791323003 1
    PT 89.258120087984 109.9526216357 1
    PT 91.440878410883 109.9526216357 1
    PT 93.623636733783 111.2128236029 1
    PT 95.781661251324 109.9526216357 1
    PT 97.964419574224 110.2649870381 1
    PT 100.140994445784 110.5791323003 1
    PT 102.311385866005 110.5791323003 1
    PT 104.481777286225 109.9526216357 1
    PT 106.664535609125 110.2649870381 1
    PT 108.841110480685 110.5791323003 1
    PT 111.011501900905 110.2649870381 1
    PT 113.188076772465 109.6420210096 1
    PT 115.377018546705 110.8950726783 1
    PT 117.541226515586 109.0260545995 1
    PT 119.742535192504 111.5324006822 1
    PT 121.894376258706 109.9526216357 1
    PT 124.077134581606 109.9526216357 1
    PT 126.259892904505 111.2128236029 1
    PT 128.417917422047 109.0260545995 1
    PT 130.619226098965 110.8950726783 1
    PT 132.783434067846 110.5791323003 1
    PT 134.953825488067 110.5791323003 1
    PT 137.124216908287 110.5791323003 1
    PT 139.294608328507 109.6420210096 1
    PT 141.483550102747 110.2649870381 1
    PT 143.660124974307 109.9526216357 1
    PT 145.842883297207 110.5791323003 1
    PT 148.013274717427 111.2128236029 1
    PT 150.171299234968 110.2649870381 1
    PT 152.347874106528 109.6420210096 1
    PT 154.536815880768 111.2128236029 1
    PT 156.694840398309 110.2649870381 1
    PT 158.871415269869 109.6420210096 1
    PT 161.060357044109 110.2649870381 1
    PT 163.236931915669 109.6420210096 1
    PT 165.425873689908 111.8538197043 1
    PT 167.571531304770 109.3331702462 1
    PT 169.766656530349 110.8950726783 1
    PT 171.930864499230 110.2649870381 1
    PT 174.107439370790 110.2649870381 1
  >
  <PROJBAY
  >
  <TRACK '{4D889F49-FE1F-4D1D-9FB8-BFD5BA06901A}'
    NAME "SONG AUDIO"
    PEAKCOL 16576
    BEAT -1
    AUTOMODE 0
    VOLPAN 1.00000000000000 0.00000000000000 -1.00000000000000 -1.00000000000000 1.00000000000000
    MUTESOLO 0 0 0
    IPHASE 0
    ISBUS 0 0
    BUSCOMP 0 0
    SHOWINMIX 1 0.666700 0.500000 1 0.500000 -1 -1 -1
    FREEMODE 0
    SEL 0
    REC 0 0 0 0 0 0 0
    TRACKHEIGHT 176 0
    INQ 0 0 0 0.5000000000 100 0 0 100
    NCHAN 2
    FX 1
    TRACKID {4D889F49-FE1F-4D1D-9FB8-BFD5BA06901A}
    PERF 0
    MIDIOUT -1
    MAINSEND 1 0
    <FXCHAIN
      SHOW 0
      LASTSEL 0
      DOCKED 0
      BYPASS 0 0
      <VST "VST: W1 Limiter (George Yohng)" "George Yohng_s W1 Limiter.dll" 0 ""
        THdGNO5e7f4CAAAAAQAAAAAAAAACAAAAAAAAAAIAAAABAAAAAAAAAA==
        AgAAAAAAAABMAAAAAQAAAAAAEAAMAACBdGhyZXNoAAD+1Hg/DAAAgQ==
        Y2VpbGluZwD+1Hg/DAAAgXJlbGVhc2UAMEAfPxQAAIFhZGFwdFJlbA==
        ZWFzZQAAAAAAAAAAAAAAgAAAEAAAAA==
      >
      FLOATPOS 24 24 481 152
      FXID {D32BE511-3942-4A83-B6D7-DF2FE763A2B4}
      WAK 0
    >
    <ITEM
      POSITION 0.00000000000000
      SNAPOFFS 0.00000000000000
      LENGTH 0.28216019417451
      LOOP 0
      ALLTAKES 0
      SEL 0
      FADEIN 1 0.000000 0.000000 1 0
      FADEOUT 1 0.000000 0.000000 1 0
      MUTE 0
      IGUID {24EFFE2E-71E0-46A7-AC19-22B744876203}
      IID 1
      NAME "stick.wav"
      VOLPAN 0.271028 0.000000 1.000000 -1.000000
      SOFFS 0.00000000000000
      PLAYRATE 1.00000000000052 1 0.00000000000000 -1
      CHANMODE 0
      GUID {1A767C01-F1A5-496D-BA45-16DE88FA89A9}
      <SOURCE WAVE
        FILE "C:\Users\wejaa\AppData\Roaming\REAPER\ProjectTemplates\hihat.wav"
      >
    >
    <ITEM
      POSITION 1.09090909090909
      SNAPOFFS 0.00000000000000
      LENGTH 0.28216019417451
      LOOP 0
      ALLTAKES 0
      SEL 0
      FADEIN 1 0.000000 0.000000 1 0
      FADEOUT 1 0.000000 0.000000 1 0
      MUTE 0
      IGUID {9806DF47-4259-4391-9B91-33A673420504}
      IID 2
      NAME "stick.wav"
      VOLPAN 0.271028 0.000000 1.000000 -1.000000
      SOFFS 0.00000000000000
      PLAYRATE 1.00000000000052 1 0.00000000000000 -1
      CHANMODE 0
      GUID {BCB74230-40DA-405A-80F1-E6F2008489DD}
      <SOURCE WAVE
        FILE "C:\Users\wejaa\AppData\Roaming\REAPER\ProjectTemplates\hihat.wav"
      >
    >
    <ITEM
      POSITION 2.18181818181818
      SNAPOFFS 0.00000000000000
      LENGTH 0.28216019417451
      LOOP 0
      ALLTAKES 0
      SEL 0
      FADEIN 1 0.000000 0.000000 1 0
      FADEOUT 1 0.000000 0.000000 1 0
      MUTE 0
      IGUID {A4E94DB0-B468-4B11-8AD2-978945B3788A}
      IID 3
      NAME "stick.wav"
      VOLPAN 0.271028 0.000000 1.000000 -1.000000
      SOFFS 0.00000000000000
      PLAYRATE 1.00000000000052 1 0.00000000000000 -1
      CHANMODE 0
      GUID {FD6A2694-3901-4B22-91A2-C9840E476018}
      <SOURCE WAVE
        FILE "C:\Users\wejaa\AppData\Roaming\REAPER\ProjectTemplates\hihat.wav"
      >
    >
    <ITEM
      POSITION 2.72727272727273
      SNAPOFFS 0.00000000000000
      LENGTH 0.28216019417451
      LOOP 0
      ALLTAKES 0
      SEL 0
      FADEIN 1 0.000000 0.000000 1 0
      FADEOUT 1 0.000000 0.000000 1 0
      MUTE 0
      IGUID {A728A5A0-D839-46E5-BE70-8427B67A35B7}
      IID 4
      NAME "stick.wav"
      VOLPAN 0.271028 0.000000 1.000000 -1.000000
      SOFFS 0.00000000000000
      PLAYRATE 1.00000000000052 1 0.00000000000000 -1
      CHANMODE 0
      GUID {1827B605-B840-44E1-8159-94DAA3C623F2}
      <SOURCE WAVE
        FILE "C:\Users\wejaa\AppData\Roaming\REAPER\ProjectTemplates\hihat.wav"
      >
    >
    <ITEM
      POSITION 3.27272727272727
      SNAPOFFS 0.00000000000000
      LENGTH 0.28216019417451
      LOOP 0
      ALLTAKES 0
      SEL 0
      FADEIN 1 0.000000 0.000000 1 0
      FADEOUT 1 0.000000 0.000000 1 0
      MUTE 0
      IGUID {9437331C-E0DA-417F-A854-418CBDEF81DF}
      IID 5
      NAME "stick.wav"
      VOLPAN 0.271028 0.000000 1.000000 -1.000000
      SOFFS 0.00000000000000
      PLAYRATE 1.00000000000050 1 0.00000000000000 -1
      CHANMODE 0
      GUID {14B21EDB-C47A-4C13-8200-DD3AB2224585}
      <SOURCE WAVE
        FILE "C:\Users\wejaa\AppData\Roaming\REAPER\ProjectTemplates\hihat.wav"
      >
    >
    <ITEM
      POSITION 3.81818181818182
      SNAPOFFS 0.00000000000000
      LENGTH 0.28216019417451
      LOOP 0
      ALLTAKES 0
      SEL 0
      FADEIN 1 0.000000 0.000000 1 0
      FADEOUT 1 0.000000 0.154200 1 1
      MUTE 0
      IGUID {FEA09998-73F3-4820-8314-AC34937D1F66}
      IID 6
      NAME "stick.wav"
      VOLPAN 0.271028 0.000000 1.000000 -1.000000
      SOFFS 0.00000000000000
      PLAYRATE 1.00000000000052 1 0.00000000000000 -1
      CHANMODE 0
      GUID {E9610640-EB6A-447B-B6BF-AB20433D64FD}
      <SOURCE WAVE
        FILE "C:\Users\wejaa\AppData\Roaming\REAPER\ProjectTemplates\hihat.wav"
      >
    >
    <ITEM
      POSITION 3.94614199175334
      SNAPOFFS 0.00000000000000
      LENGTH 181.96000000000001
      LOOP 0
      ALLTAKES 0
      SEL 0
      FADEIN 1 0.000000 0.154200 1 1
      FADEOUT 1 0.000000 0.000000 1 0
      MUTE 0
      IGUID {084E4EED-7B72-4EF5-859E-6DE3CF30C8BB}
      IID 26
      NAME "01 Suljettu Sydän.wav"
      VOLPAN 1.000000 0.000000 1.000000 -1.000000
      SOFFS 0.00000000000000
      PLAYRATE 1.00000000000000 1 0.00000000000000 -1
      CHANMODE 0
      GUID {2C062CF4-AB08-41A1-8E5B-98E210069B16}
      <SOURCE WAVE
        FILE "01 Suljettu Sydän.wav"
      >
    >
  >
  <TRACK '{BDCFF37A-71AC-4D17-AF26-EA560B308842}'
    NAME "COUNTIN"
    PEAKCOL 16576
    BEAT -1
    AUTOMODE 0
    VOLPAN 1.00000000000000 0.00000000000000 -1.00000000000000 -1.00000000000000 1.00000000000000
    MUTESOLO 0 0 0
    IPHASE 0
    ISBUS 0 0
    BUSCOMP 0 0
    SHOWINMIX 1 0.666700 0.500000 1 0.500000 -1 -1 -1
    FREEMODE 0
    SEL 0
    REC 0 0 0 0 0 0 0
    TRACKHEIGHT 24 0
    INQ 0 0 0 0.5000000000 100 0 0 100
    NCHAN 2
    FX 1
    TRACKID {BDCFF37A-71AC-4D17-AF26-EA560B308842}
    PERF 0
    MIDIOUT -1
    MAINSEND 1 0
    <ITEM
      POSITION 0.00000000000000
      SNAPOFFS 0.00000000000000
      LENGTH 0.28216019417451
      LOOP 0
      ALLTAKES 0
      SEL 0
      FADEIN 1 0.000000 0.000000 1 0
      FADEOUT 1 0.000000 0.000000 1 0
      MUTE 0
      IGUID {D829F3DA-0BE5-4277-954B-C2D10DB114A6}
      IID 1
      NAME "stick.wav"
      VOLPAN 0.271028 0.000000 1.000000 -1.000000
      SOFFS 0.00000000000000
      PLAYRATE 1.00000000000052 1 0.00000000000000 -1
      CHANMODE 0
      GUID {3A242298-C3E5-4DC8-9A3C-2EE82D8D2134}
      <SOURCE WAVE
        FILE "C:\Users\wejaa\AppData\Roaming\REAPER\ProjectTemplates\hihat.wav"
      >
    >
    <ITEM
      POSITION 1.09090909090909
      SNAPOFFS 0.00000000000000
      LENGTH 0.28216019417451
      LOOP 0
      ALLTAKES 0
      SEL 0
      FADEIN 1 0.000000 0.000000 1 0
      FADEOUT 1 0.000000 0.000000 1 0
      MUTE 0
      IGUID {5AEC5162-2B2C-4FF2-BB3B-E29ADC0916FE}
      IID 2
      NAME "stick.wav"
      VOLPAN 0.271028 0.000000 1.000000 -1.000000
      SOFFS 0.00000000000000
      PLAYRATE 1.00000000000052 1 0.00000000000000 -1
      CHANMODE 0
      GUID {16E29BEE-96F5-48F0-9FB0-3F04A1AF90D5}
      <SOURCE WAVE
        FILE "C:\Users\wejaa\AppData\Roaming\REAPER\ProjectTemplates\hihat.wav"
      >
    >
    <ITEM
      POSITION 2.18181818181818
      SNAPOFFS 0.00000000000000
      LENGTH 0.28216019417451
      LOOP 0
      ALLTAKES 0
      SEL 0
      FADEIN 1 0.000000 0.000000 1 0
      FADEOUT 1 0.000000 0.000000 1 0
      MUTE 0
      IGUID {1FA8F8C4-F448-4E02-B340-4A6644F6D8AB}
      IID 3
      NAME "stick.wav"
      VOLPAN 0.271028 0.000000 1.000000 -1.000000
      SOFFS 0.00000000000000
      PLAYRATE 1.00000000000052 1 0.00000000000000 -1
      CHANMODE 0
      GUID {8D594F7C-8B39-4D29-A27D-55F46BC65189}
      <SOURCE WAVE
        FILE "C:\Users\wejaa\AppData\Roaming\REAPER\ProjectTemplates\hihat.wav"
      >
    >
    <ITEM
      POSITION 2.72727272727273
      SNAPOFFS 0.00000000000000
      LENGTH 0.28216019417451
      LOOP 0
      ALLTAKES 0
      SEL 0
      FADEIN 1 0.000000 0.000000 1 0
      FADEOUT 1 0.000000 0.000000 1 0
      MUTE 0
      IGUID {1D23FF37-8166-4C8E-915E-19EFDB52B4D8}
      IID 4
      NAME "stick.wav"
      VOLPAN 0.271028 0.000000 1.000000 -1.000000
      SOFFS 0.00000000000000
      PLAYRATE 1.00000000000052 1 0.00000000000000 -1
      CHANMODE 0
      GUID {1D91F480-CA0B-4E03-8204-02893D660CDF}
      <SOURCE WAVE
        FILE "C:\Users\wejaa\AppData\Roaming\REAPER\ProjectTemplates\hihat.wav"
      >
    >
    <ITEM
      POSITION 3.27272727272727
      SNAPOFFS 0.00000000000000
      LENGTH 0.28216019417451
      LOOP 0
      ALLTAKES 0
      SEL 0
      FADEIN 1 0.000000 0.000000 1 0
      FADEOUT 1 0.000000 0.000000 1 0
      MUTE 0
      IGUID {A6BA2F37-4089-4BF2-A73E-A602F32B7614}
      IID 5
      NAME "stick.wav"
      VOLPAN 0.271028 0.000000 1.000000 -1.000000
      SOFFS 0.00000000000000
      PLAYRATE 1.00000000000050 1 0.00000000000000 -1
      CHANMODE 0
      GUID {ABD24FE2-95CA-428E-ADD9-9A13921FCC29}
      <SOURCE WAVE
        FILE "C:\Users\wejaa\AppData\Roaming\REAPER\ProjectTemplates\hihat.wav"
      >
    >
    <ITEM
      POSITION 3.81818181818182
      SNAPOFFS 0.00000000000000
      LENGTH 0.28216019417451
      LOOP 0
      ALLTAKES 0
      SEL 0
      FADEIN 1 0.000000 0.000000 1 0
      FADEOUT 1 0.000000 0.000000 1 0
      MUTE 0
      IGUID {49CCEEAD-12F1-472E-8B9C-48A90BF6E20A}
      IID 6
      NAME "stick.wav"
      VOLPAN 0.271028 0.000000 1.000000 -1.000000
      SOFFS 0.00000000000000
      PLAYRATE 1.00000000000052 1 0.00000000000000 -1
      CHANMODE 0
      GUID {3DFEA1C1-AD72-4DF8-A1BD-3977672F4D80}
      <SOURCE WAVE
        FILE "C:\Users\wejaa\AppData\Roaming\REAPER\ProjectTemplates\hihat.wav"
      >
    >
  >
  <TRACK '{A79C2ACF-AEC7-42C3-B987-26FEE6EF4486}'
    NAME "3_drum"
    PEAKCOL 16576
    BEAT -1
    AUTOMODE 0
    VOLPAN 1.00000000000000 0.00000000000000 -1.00000000000000 -1.00000000000000 1.00000000000000
    MUTESOLO 0 2 0
    IPHASE 0
    ISBUS 0 0
    BUSCOMP 0 0
    SHOWINMIX 1 0.666700 0.500000 1 0.500000 -1 -1 -1
    FREEMODE 0
    SEL 0
    REC 0 0 0 0 0 0 0
    VU 2
    TRACKHEIGHT 249 0
    INQ 0 0 0 0.5000000000 100 0 0 100
    NCHAN 2
    FX 1
    TRACKID {A79C2ACF-AEC7-42C3-B987-26FEE6EF4486}
    PERF 0
    MIDIOUT -1
    MAINSEND 1 0
    <FXCHAIN
      SHOW 0
      LASTSEL 0
      DOCKED 0
    >
    <ITEM
      POSITION 3.94614199176431
      SNAPOFFS 0.00000000000000
      LENGTH 181.95156462585035
      LOOP 0
      ALLTAKES 0
      SEL 0
      FADEIN 1 0.000000 0.000000 1 0
      FADEOUT 1 0.000000 0.000000 1 0
      MUTE 0
      IGUID {6060F081-8BCA-460C-9D85-C009B0729A97}
      IID 33
      NAME "3_drum.wav"
      VOLPAN 1.000000 0.000000 1.000000 -1.000000
      SOFFS 0.00000000000000
      PLAYRATE 1.00000000000000 1 0.00000000000000 -1
      CHANMODE 0
      GUID {4550D98D-A6E7-4BC0-8BDB-FB63E3087645}
      <SOURCE WAVE
        FILE "3_drum.wav"
      >
    >
  >
  <TRACK '{8F33A645-3DF2-48FA-99BC-10992A4F8042}'
    NAME "PART DRUMS"
    PEAKCOL 16842751
    BEAT -1
    AUTOMODE 0
    VOLPAN 1.00000000000000 0.00000000000000 -1.00000000000000 -1.00000000000000 1.00000000000000
    MUTESOLO 0 0 0
    IPHASE 0
    ISBUS 0 0
    BUSCOMP 1 0
    SHOWINMIX 1 0.666700 0.500000 1 0.500000 -1 -1 -1
    FREEMODE 0
    SEL 0
    REC 0 4096 1 7 0 0 0
    TRACKHEIGHT 202 0
    INQ 0 0 0 0.5000000000 100 0 0 100
    NCHAN 2
    FX 1
    TRACKID {8F33A645-3DF2-48FA-99BC-10992A4F8042}
    PERF 0
    MIDIOUT -1
    <MIDINOTENAMES
      0 84 "HARD Kick"
      0 96 "EXPERT Kick"
      0 72 "MEDIUM Kick"
      0 60 "EASY Kick"
      0 97 "EXPERT Red"
      0 98 "EXPERT Yellow"
      0 99 "EXPERT Blue"
      0 100 "EXPERT Green"
      0 85 "HARD Red"
      0 86 "HARD Yellow"
      0 87 "HARD Blue"
      0 88 "HARD Green"
      0 73 "MEDIUM Red"
      0 74 "MEDIUM Yellow"
      0 75 "MEDIUM Blue"
      0 76 "MEDIUM Green"
      0 61 "EASY Red"
      0 62 "EASY Yellow"
      0 63 "EASY Blue"
      0 64 "EASY Green"
      0 101 ""
      0 92 "----"
      0 80 "----"
      0 68 "----"
      0 120 "DRUM FILL (use all 5)"
      0 121 "DRUM FILL"
      0 122 "DRUM FILL"
      0 123 "DRUM FILL"
      0 124 "DRUM FILL"
      0 114 "----"
      0 116 "OVERDRIVE"
      0 118 "----"
      0 24 "KICK RF"
      0 25 "HI-HAT OPEN"
      0 26 "SNARE HARD LH"
      0 27 "SNARE HARD RH"
      0 30 "HI-HAT LH"
      0 31 "HI-HAT RH"
      0 32 "PERCUSSION RH"
      0 34 "CRASH1 HARD LH"
      0 35 "CRASH1 SOFT LH"
      0 36 "CRASH1 HARD RH"
      0 37 "CRASH1 SOFT RH"
      0 38 "CRASH2 HARD RH"
      0 39 "CRASH2 SOFT RH"
      0 40 "CRASH1 CHOKE"
      0 41 "CRASH2 CHOKE"
      0 42 "RIDE CYM RH"
      0 46 "TOM1 LH"
      0 47 "TOM1 RH"
      0 48 "TOM2 LH"
      0 49 "TOM2 RH"
      0 50 "FLOOR TOM LH"
      0 51 "FLOOR TOM RH"
      0 52 "--DRUM ANIMATION--"
      0 56 "----"
      0 103 "Solo Marker"
      0 102 "----"
      0 110 "PRO Yellow Tom"
      0 111 "PRO Blue Tom"
      0 112 "PRO Green Tom"
      0 108 "----"
      0 127 "Roll Marker 2-Lane / Cym"
      0 126 "Roll Marker 1-Lane"
      0 125 "----"
      0 28 "SNARE RIM LH"
      0 29 "SNARE RIM RH"
      0 43 "RIDE CYM LH"
      0 44 "CRASH2 HARD LH"
      0 45 "CRASH2 SOFT LH"
      0 33 "PERCUSSION LH"
    >
    MAINSEND 1 0
    <FXCHAIN
      WNDRECT -1023 777 870 574
      SHOW 0
      LASTSEL 1
      DOCKED 0
      BYPASS 1 0
      <VST "VSTi: ReaSynth (Cockos)" "reasynth.dll" 0 ""
        eXNlcu9e7f4AAAAAAgAAAAEAAAAAAAAAAgAAAAAAAAA4AAAAAAAAAA==
        AAAAAO++rd4N8K3eAAAAAAAAAAAAAAAAAAAAADm0SD59y9s+tbSxOQ==
        AAAAALbz/T5VpCs6AAAAAAAAAAAAAAAAAAA=
      >
      FLOATPOS 0 0 0 0
      FXID {58F55556-9407-4062-A048-6AFCC0B53535}
      WAK 0
      BYPASS 0 0
      <VST "VSTi: RBN Preview (RBN)" "rbprev_vst64_beta.dll" 0 ""
        dnBicu5e7f4AAAAAAgAAAAEAAAAAAAAAAgAAAAAAAAAEAAAAAQAAAA==
        AAAAAAMBqgAAAAAAAAA=
      >
      FLOATPOS 32 32 659 497
      FXID {D7126437-AB1E-4109-A0FA-F2D5D0AC68DC}
      WAK 0
    >
    <ITEM
      POSITION 0.00000000000000
      SNAPOFFS 0.00000000000000
      LENGTH 204.57948757262307
      LOOP 0
      ALLTAKES 0
      COLOR 19150555
      SEL 0
      FADEIN 1 0.000000 0.000000 1 0
      FADEOUT 1 0.000000 0.000000 1 0
      MUTE 0
      IGUID {9FF11F36-E94F-4396-9C0E-8449C916EC21}
      IID 7
      NAME "PART DRUMS"
      VOLPAN 1.000000 0.000000 1.000000 -1.000000
      SOFFS 0.00000000000000 0.00000000000000
      PLAYRATE 1.00000000000000 1 0.00000000000000 -65536
      CHANMODE 0
      GUID {70A79ADF-E70C-430A-913F-E16D0CC85517}
      <SOURCE MIDI
        HASDATA 1 480 QN
        POOLEDEVTS {C03C63B2-3B45-4BE1-9DC4-4FE7FD90812E}
        <X 0 0
          /wNQQVJUIERSVU1T
        >
        <X 300 0
          /wFbbWl4IDEgZHJ1bXMwXQ==
        >
        <X 0 0
          /wFbbWl4IDAgZHJ1bXMwXQ==
        >
        <X 60 0
          /wFbbWl4IDIgZHJ1bXMwXQ==
        >
        <X 60 0
          /wFbbWl4IDMgZHJ1bXMwXQ==
        >
        <X 3420 0
          /wFbaWRsZV0=
        >
        <X 1920 0
          /wFbcGxheV0=
        >
        E 960 90 60 60
        E 0 90 64 60
        E 0 90 54 60
        E 0 90 58 60
        E 0 90 48 60
        E 0 90 4c 60
        E 0 90 40 60
        E 0 90 18 60
        E 0 90 26 60
        E 60 80 60 00
        E 0 80 64 00
        E 0 80 54 00
        E 0 80 58 00
        E 0 80 48 00
        E 0 80 4c 00
        E 0 80 40 00
        E 0 80 18 00
        E 0 80 26 00
        E 180 90 61 60
        E 0 90 55 60
        E 0 90 1b 60
        E 60 80 61 00
        E 0 80 55 00
        E 0 80 1b 00
        E 60 90 61 60
        E 0 90 1a 60
        E 60 80 61 00
        E 0 80 1a 00
        E 60 90 61 60
        E 0 90 55 60
        E 0 90 49 60
        E 0 90 3d 60
        E 0 90 1b 60
        E 60 80 61 00
        E 0 80 55 00
        E 0 80 49 00
        E 0 80 3d 00
        E 0 80 1b 00
        E 60 90 61 60
        E 0 90 1a 60
        E 60 80 61 00
        E 0 80 1a 00
        E 60 90 61 60
        E 0 90 55 60
        E 0 90 1b 60
        E 60 80 61 00
        E 0 80 55 00
        E 0 80 1b 00
        E 60 90 61 60
        E 0 90 1a 60
        E 60 80 61 00
        E 0 80 1a 00
        E 60 90 60 60
        E 0 90 64 60
        E 0 90 54 60
        E 0 90 58 60
        E 0 90 48 60
        E 0 90 4c 60
        E 0 90 40 60
        E 0 90 18 60
        E 0 90 26 60
        E 60 80 60 00
        E 0 80 64 00
        E 0 80 54 00
        E 0 80 58 00
        E 0 80 48 00
        E 0 80 4c 00
        E 0 80 40 00
        E 0 80 18 00
        E 0 80 26 00
        E 180 90 63 60
        E 0 90 57 60
        E 0 90 2a 60
        E 60 80 63 00
        E 0 80 57 00
        E 0 80 2a 00
        E 180 90 61 60
        E 0 90 63 60
        E 0 90 55 60
        E 0 90 57 60
        E 0 90 49 60
        E 0 90 4b 60
        E 0 90 3d 60
        E 0 90 3f 60
        E 0 90 1a 60
        E 0 90 2a 60
        E 60 80 61 00
        E 0 80 63 00
        E 0 80 55 00
        E 0 80 57 00
        E 0 80 49 00
        E 0 80 4b 00
        E 0 80 3d 00
        E 0 80 3f 00
        E 0 80 1a 00
        E 0 80 2a 00
        E 180 90 63 60
        E 0 90 57 60
        E 0 90 2a 60
        E 60 80 63 00
        E 0 80 57 00
        E 0 80 2a 00
        E 60 90 61 60
        E 0 90 1a 60
        E 60 80 61 00
        E 0 80 1a 00
        E 60 90 60 60
        E 0 90 63 60
        E 0 90 54 60
        E 0 90 57 60
        E 0 90 48 60
        E 0 90 4b 60
        E 0 90 3f 60
        E 0 90 18 60
        E 0 90 2a 60
        E 60 80 60 00
        E 0 80 63 00
        E 0 80 54 00
        E 0 80 57 00
        E 0 80 48 00
        E 0 80 4b 00
        E 0 80 3f 00
        E 0 80 18 00
        E 0 80 2a 00
        E 60 90 61 60
        E 0 90 1a 60
        E 60 80 61 00
        E 0 80 1a 00
        E 60 90 60 60
        E 0 90 63 60
        E 0 90 54 60
        E 0 90 57 60
        E 0 90 18 60
        E 0 90 2a 60
        E 60 80 60 00
        E 0 80 63 00
        E 0 80 54 00
        E 0 80 57 00
        E 0 80 18 00
        E 0 80 2a 00
        E 180 90 61 60
        E 0 90 63 60
        E 0 90 55 60
        E 0 90 57 60
        E 0 90 49 60
        E 0 90 4b 60
        E 0 90 3d 60
        E 0 90 3f 60
        E 0 90 1a 60
        E 0 90 2a 60
        E 60 80 61 00
        E 0 80 63 00
        E 0 80 55 00
        E 0 80 57 00
        E 0 80 49 00
        E 0 80 4b 00
        E 0 80 3d 00
        E 0 80 3f 00
        E 0 80 1a 00
        E 0 80 2a 00
        E 180 90 60 60
        E 0 90 63 60
        E 0 90 54 60
        E 0 90 57 60
        E 0 90 18 60
        E 0 90 2a 60
        E 60 80 60 00
        E 0 80 63 00
        E 0 80 54 00
        E 0 80 57 00
        E 0 80 18 00
        E 0 80 2a 00
        E 180 90 60 60
        E 0 90 63 60
        E 0 90 54 60
        E 0 90 57 60
        E 0 90 48 60
        E 0 90 4b 60
        E 0 90 3f 60
        E 0 90 18 60
        E 0 90 2a 60
        E 60 80 60 00
        E 0 80 63 00
        E 0 80 54 00
        E 0 80 57 00
        E 0 80 48 00
        E 0 80 4b 00
        E 0 80 3f 00
        E 0 80 18 00
        E 0 80 2a 00
        E 180 90 63 60
        E 0 90 57 60
        E 0 90 2a 60
        E 60 80 63 00
        E 0 80 57 00
        E 0 80 2a 00
        E 180 90 61 60
        E 0 90 63 60
        E 0 90 55 60
        E 0 90 57 60
        E 0 90 49 60
        E 0 90 4b 60
        E 0 90 3d 60
        E 0 90 3f 60
        E 0 90 1a 60
        E 0 90 2a 60
        E 60 80 61 00
        E 0 80 63 00
        E 0 80 55 00
        E 0 80 57 00
        E 0 80 49 00
        E 0 80 4b 00
        E 0 80 3d 00
        E 0 80 3f 00
        E 0 80 1a 00
        E 0 80 2a 00
        E 180 90 63 60
        E 0 90 57 60
        E 0 90 2a 60
        E 60 80 63 00
        E 0 80 57 00
        E 0 80 2a 00
        E 60 90 61 60
        E 0 90 1a 60
        E 60 80 61 00
        E 0 80 1a 00
        E 60 90 60 60
        E 0 90 63 60
        E 0 90 54 60
        E 0 90 57 60
        E 0 90 48 60
        E 0 90 4b 60
        E 0 90 3f 60
        E 0 90 18 60
        E 0 90 2a 60
        E 60 80 60 00
        E 0 80 63 00
        E 0 80 54 00
        E 0 80 57 00
        E 0 80 48 00
        E 0 80 4b 00
        E 0 80 3f 00
        E 0 80 18 00
        E 0 80 2a 00
        E 60 90 61 60
        E 0 90 1a 60
        E 60 80 61 00
        E 0 80 1a 00
        E 60 90 60 60
        E 0 90 63 60
        E 0 90 54 60
        E 0 90 57 60
        E 0 90 18 60
        E 0 90 2a 60
        E 60 80 60 00
        E 0 80 63 00
        E 0 80 54 00
        E 0 80 57 00
        E 0 80 18 00
        E 0 80 2a 00
        E 180 90 61 60
        E 0 90 63 60
        E 0 90 55 60
        E 0 90 57 60
        E 0 90 49 60
        E 0 90 4b 60
        E 0 90 3d 60
        E 0 90 3f 60
        E 0 90 1a 60
        E 0 90 2a 60
        E 60 80 61 00
        E 0 80 63 00
        E 0 80 55 00
        E 0 80 57 00
        E 0 80 49 00
        E 0 80 4b 00
        E 0 80 3d 00
        E 0 80 3f 00
        E 0 80 1a 00
        E 0 80 2a 00
        E 180 90 60 60
        E 0 90 63 60
        E 0 90 54 60
        E 0 90 57 60
        E 0 90 18 60
        E 0 90 2a 60
        E 60 80 60 00
        E 0 80 63 00
        E 0 80 54 00
        E 0 80 57 00
        E 0 80 18 00
        E 0 80 2a 00
        E 180 90 60 60
        E 0 90 64 60
        E 0 90 54 60
        E 0 90 58 60
        E 0 90 48 60
        E 0 90 4c 60
        E 0 90 40 60
        E 0 90 18 60
        E 0 90 26 60
        E 60 80 60 00
        E 0 80 64 00
        E 0 80 54 00
        E 0 80 58 00
        E 0 80 48 00
        E 0 80 4c 00
        E 0 80 40 00
        E 0 80 18 00
        E 0 80 26 00
        E 180 90 63 60
        E 0 90 57 60
        E 0 90 2a 60
        E 60 80 63 00
        E 0 80 57 00
        E 0 80 2a 00
        E 180 90 61 60
        E 0 90 63 60
        E 0 90 55 60
        E 0 90 57 60
        E 0 90 49 60
        E 0 90 4b 60
        E 0 90 3d 60
        E 0 90 3f 60
        E 0 90 1a 60
        E 0 90 2a 60
        E 60 80 61 00
        E 0 80 63 00
        E 0 80 55 00
        E 0 80 57 00
        E 0 80 49 00
        E 0 80 4b 00
        E 0 80 3d 00
        E 0 80 3f 00
        E 0 80 1a 00
        E 0 80 2a 00
        E 180 90 63 60
        E 0 90 57 60
        E 0 90 2a 60
        E 60 80 63 00
        E 0 80 57 00
        E 0 80 2a 00
        E 60 90 61 60
        E 0 90 1a 60
        E 60 80 61 00
        E 0 80 1a 00
        E 60 90 60 60
        E 0 90 63 60
        E 0 90 54 60
        E 0 90 57 60
        E 0 90 48 60
        E 0 90 4b 60
        E 0 90 3f 60
        E 0 90 18 60
        E 0 90 2a 60
        E 60 80 60 00
        E 0 80 63 00
        E 0 80 54 00
        E 0 80 57 00
        E 0 80 48 00
        E 0 80 4b 00
        E 0 80 3f 00
        E 0 80 18 00
        E 0 80 2a 00
        E 60 90 61 60
        E 0 90 1a 60
        E 60 80 61 00
        E 0 80 1a 00
        E 60 90 60 60
        E 0 90 63 60
        E 0 90 54 60
        E 0 90 57 60
        E 0 90 18 60
        E 0 90 2a 60
        E 60 80 60 00
        E 0 80 63 00
        E 0 80 54 00
        E 0 80 57 00
        E 0 80 18 00
        E 0 80 2a 00
        E 180 90 61 60
        E 0 90 63 60
        E 0 90 55 60
        E 0 90 57 60
        E 0 90 49 60
        E 0 90 4b 60
        E 0 90 3d 60
        E 0 90 3f 60
        E 0 90 1a 60
        E 0 90 2a 60
        E 60 80 61 00
        E 0 80 63 00
        E 0 80 55 00
        E 0 80 57 00
        E 0 80 49 00
        E 0 80 4b 00
        E 0 80 3d 00
        E 0 80 3f 00
        E 0 80 1a 00
        E 0 80 2a 00
        E 180 90 60 60
        E 0 90 63 60
        E 0 90 54 60
        E 0 90 57 60
        E 0 90 18 60
        E 0 90 2a 60
        E 60 80 60 00
        E 0 80 63 00
        E 0 80 54 00
        E 0 80 57 00
        E 0 80 18 00
        E 0 80 2a 00
        E 180 90 60 60
        E 0 90 63 60
        E 0 90 54 60
        E 0 90 57 60
        E 0 90 48 60
        E 0 90 4b 60
        E 0 90 3f 60
        E 0 90 18 60
        E 0 90 2a 60
        E 60 80 60 00
        E 0 80 63 00
        E 0 80 54 00
        E 0 80 57 00
        E 0 80 48 00
        E 0 80 4b 00
        E 0 80 3f 00
        E 0 80 18 00
        E 0 80 2a 00
        E 180 90 63 60
        E 0 90 57 60
        E 0 90 2a 60
        E 60 80 63 00
        E 0 80 57 00
        E 0 80 2a 00
        E 180 90 61 60
        E 0 90 63 60
        E 0 90 55 60
        E 0 90 57 60
        E 0 90 49 60
        E 0 90 4b 60
        E 0 90 3d 60
        E 0 90 3f 60
        E 0 90 1a 60
        E 0 90 2a 60
        E 60 80 61 00
        E 0 80 63 00
        E 0 80 55 00
        E 0 80 57 00
        E 0 80 49 00
        E 0 80 4b 00
        E 0 80 3d 00
        E 0 80 3f 00
        E 0 80 1a 00
        E 0 80 2a 00
        E 180 90 63 60
        E 0 90 57 60
        E 0 90 2a 60
        E 60 80 63 00
        E 0 80 57 00
        E 0 80 2a 00
        E 60 90 61 60
        E 0 90 1a 60
        E 60 80 61 00
        E 0 80 1a 00
        E 60 90 60 60
        E 0 90 63 60
        E 0 90 54 60
        E 0 90 57 60
        E 0 90 48 60
        E 0 90 4b 60
        E 0 90 3f 60
        E 0 90 18 60
        E 0 90 2a 60
        E 60 80 60 00
        E 0 80 63 00
        E 0 80 54 00
        E 0 80 57 00
        E 0 80 48 00
        E 0 80 4b 00
        E 0 80 3f 00
        E 0 80 18 00
        E 0 80 2a 00
        E 60 90 61 60
        E 0 90 1a 60
        E 60 80 61 00
        E 0 80 1a 00
        E 60 90 60 60
        E 0 90 63 60
        E 0 90 54 60
        E 0 90 57 60
        E 0 90 18 60
        E 0 90 2a 60
        E 60 80 60 00
        E 0 80 63 00
        E 0 80 54 00
        E 0 80 57 00
        E 0 80 18 00
        E 0 80 2a 00
        E 180 90 61 60
        E 0 90 63 60
        E 0 90 55 60
        E 0 90 57 60
        E 0 90 49 60
        E 0 90 4b 60
        E 0 90 3d 60
        E 0 90 3f 60
        E 0 90 1a 60
        E 0 90 2a 60
        E 60 80 61 00
        E 0 80 63 00
        E 0 80 55 00
        E 0 80 57 00
        E 0 80 49 00
        E 0 80 4b 00
        E 0 80 3d 00
        E 0 80 3f 00
        E 0 80 1a 00
        E 0 80 2a 00
        E 180 90 60 60
        E 0 90 63 60
        E 0 90 54 60
        E 0 90 57 60
        E 0 90 18 60
        E 0 90 2a 60
        E 60 80 60 00
        E 0 80 63 00
        E 0 80 54 00
        E 0 80 57 00
        E 0 80 18 00
        E 0 80 2a 00
        E 180 90 60 60
        E 0 90 64 60
        E 0 90 54 60
        E 0 90 58 60
        E 0 90 48 60
        E 0 90 4c 60
        E 0 90 40 60
        E 0 90 18 60
        E 0 90 26 60
        E 60 80 60 00
        E 0 80 64 00
        E 0 80 54 00
        E 0 80 58 00
        E 0 80 48 00
        E 0 80 4c 00
        E 0 80 40 00
        E 0 80 18 00
        E 0 80 26 00
        E 180 90 63 60
        E 0 90 57 60
        E 0 90 2a 60
        E 60 80 63 00
        E 0 80 57 00
        E 0 80 2a 00
        E 180 90 61 60
        E 0 90 63 60
        E 0 90 55 60
        E 0 90 57 60
        E 0 90 49 60
        E 0 90 4b 60
        E 0 90 3d 60
        E 0 90 3f 60
        E 0 90 1a 60
        E 0 90 2a 60
        E 60 80 61 00
        E 0 80 63 00
        E 0 80 55 00
        E 0 80 57 00
        E 0 80 49 00
        E 0 80 4b 00
        E 0 80 3d 00
        E 0 80 3f 00
        E 0 80 1a 00
        E 0 80 2a 00
        E 180 90 63 60
        E 0 90 57 60
        E 0 90 2a 60
        E 60 80 63 00
        E 0 80 57 00
        E 0 80 2a 00
        E 60 90 61 60
        E 0 90 1a 60
        E 60 80 61 00
        E 0 80 1a 00
        E 60 90 60 60
        E 0 90 63 60
        E 0 90 54 60
        E 0 90 57 60
        E 0 90 48 60
        E 0 90 4b 60
        E 0 90 3f 60
        E 0 90 18 60
        E 0 90 2a 60
        E 60 80 60 00
        E 0 80 63 00
        E 0 80 54 00
        E 0 80 57 00
        E 0 80 48 00
        E 0 80 4b 00
        E 0 80 3f 00
        E 0 80 18 00
        E 0 80 2a 00
        E 60 90 61 60
        E 0 90 1a 60
        E 60 80 61 00
        E 0 80 1a 00
        E 60 90 60 60
        E 0 90 63 60
        E 0 90 54 60
        E 0 90 57 60
        E 0 90 18 60
        E 0 90 2a 60
        E 60 80 60 00
        E 0 80 63 00
        E 0 80 54 00
        E 0 80 57 00
        E 0 80 18 00
        E 0 80 2a 00
        E 180 90 61 60
        E 0 90 63 60
        E 0 90 55 60
        E 0 90 57 60
        E 0 90 49 60
        E 0 90 4b 60
        E 0 90 3d 60
        E 0 90 3f 60
        E 0 90 1a 60
        E 0 90 2a 60
        E 60 80 61 00
        E 0 80 63 00
        E 0 80 55 00
        E 0 80 57 00
        E 0 80 49 00
        E 0 80 4b 00
        E 0 80 3d 00
        E 0 80 3f 00
        E 0 80 1a 00
        E 0 80 2a 00
        E 180 90 60 60
        E 0 90 63 60
        E 0 90 54 60
        E 0 90 57 60
        E 0 90 18 60
        E 0 90 2a 60
        E 60 80 60 00
        E 0 80 63 00
        E 0 80 54 00
        E 0 80 57 00
        E 0 80 18 00
        E 0 80 2a 00
        E 180 90 60 60
        E 0 90 63 60
        E 0 90 54 60
        E 0 90 57 60
        E 0 90 48 60
        E 0 90 4b 60
        E 0 90 3f 60
        E 0 90 18 60
        E 0 90 2a 60
        E 60 80 60 00
        E 0 80 63 00
        E 0 80 54 00
        E 0 80 57 00
        E 0 80 48 00
        E 0 80 4b 00
        E 0 80 3f 00
        E 0 80 18 00
        E 0 80 2a 00
        E 180 90 63 60
        E 0 90 57 60
        E 0 90 2a 60
        E 60 80 63 00
        E 0 80 57 00
        E 0 80 2a 00
        E 180 90 61 60
        E 0 90 63 60
        E 0 90 55 60
        E 0 90 57 60
        E 0 90 49 60
        E 0 90 4b 60
        E 0 90 3d 60
        E 0 90 3f 60
        E 0 90 1a 60
        E 0 90 2a 60
        E 60 80 61 00
        E 0 80 63 00
        E 0 80 55 00
        E 0 80 57 00
        E 0 80 49 00
        E 0 80 4b 00
        E 0 80 3d 00
        E 0 80 3f 00
        E 0 80 1a 00
        E 0 80 2a 00
        E 180 90 63 60
        E 0 90 57 60
        E 0 90 2a 60
        E 60 80 63 00
        E 0 80 57 00
        E 0 80 2a 00
        E 60 90 61 60
        E 0 90 1a 60
        E 60 80 61 00
        E 0 80 1a 00
        E 60 90 60 60
        E 0 90 63 60
        E 0 90 54 60
        E 0 90 57 60
        E 0 90 48 60
        E 0 90 4b 60
        E 0 90 3f 60
        E 0 90 18 60
        E 0 90 2a 60
        E 60 80 60 00
        E 0 80 63 00
        E 0 80 54 00
        E 0 80 57 00
        E 0 80 48 00
        E 0 80 4b 00
        E 0 80 3f 00
        E 0 80 18 00
        E 0 80 2a 00
        E 60 90 61 60
        E 0 90 1a 60
        E 60 80 61 00
        E 0 80 1a 00
        E 60 90 60 60
        E 0 90 63 60
        E 0 90 54 60
        E 0 90 57 60
        E 0 90 18 60
        E 0 90 2a 60
        E 60 80 60 00
        E 0 80 63 00
        E 0 80 54 00
        E 0 80 57 00
        E 0 80 18 00
        E 0 80 2a 00
        E 180 90 61 60
        E 0 90 63 60
        E 0 90 55 60
        E 0 90 57 60
        E 0 90 49 60
        E 0 90 4b 60
        E 0 90 3d 60
        E 0 90 3f 60
        E 0 90 1a 60
        E 0 90 2a 60
        E 60 80 61 00
        E 0 80 63 00
        E 0 80 55 00
        E 0 80 57 00
        E 0 80 49 00
        E 0 80 4b 00
        E 0 80 3d 00
        E 0 80 3f 00
        E 0 80 1a 00
        E 0 80 2a 00
        E 180 90 60 60
        E 0 90 63 60
        E 0 90 54 60
        E 0 90 57 60
        E 0 90 18 60
        E 0 90 2a 60
        E 60 80 60 00
        E 0 80 63 00
        E 0 80 54 00
        E 0 80 57 00
        E 0 80 18 00
        E 0 80 2a 00
        E 180 90 60 60
        E 0 90 64 60
        E 0 90 54 60
        E 0 90 58 60
        E 0 90 48 60
        E 0 90 4c 60
        E 0 90 40 60
        E 0 90 18 60
        E 0 90 26 60
        E 60 80 60 00
        E 0 80 64 00
        E 0 80 54 00
        E 0 80 58 00
        E 0 80 48 00
        E 0 80 4c 00
        E 0 80 40 00
        E 0 80 18 00
        E 0 80 26 00
        E 180 90 62 60
        E 0 90 56 60
        E 0 90 1f 60
        E 60 80 62 00
        E 0 80 56 00
        E 0 80 1f 00
        E 180 90 61 60
        E 0 90 62 60
        E 0 90 55 60
        E 0 90 56 60
        E 0 90 49 60
        E 0 90 4a 60
        E 0 90 3d 60
        E 0 90 3e 60
        E 0 90 1a 60
        E 0 90 1f 60
        E 60 80 61 00
        E 0 80 62 00
        E 0 80 55 00
        E 0 80 56 00
        E 0 80 49 00
        E 0 80 4a 00
        E 0 80 3d 00
        E 0 80 3e 00
        E 0 80 1a 00
        E 0 80 1f 00
        E 180 90 62 60
        E 0 90 56 60
        E 0 90 1f 60
        E 60 80 62 00
        E 0 80 56 00
        E 0 80 1f 00
        E 180 90 60 60
        E 0 90 62 60
        E 0 90 54 60
        E 0 90 56 60
        E 0 90 48 60
        E 0 90 4a 60
        E 0 90 3e 60
        E 0 90 18 60
        E 0 90 1f 60
        E 60 80 60 00
        E 0 80 62 00
        E 0 80 54 00
        E 0 80 56 00
        E 0 80 48 00
        E 0 80 4a 00
        E 0 80 3e 00
        E 0 80 18 00
        E 0 80 1f 00
        E 180 90 60 60
        E 0 90 62 60
        E 0 90 54 60
        E 0 90 56 60
        E 0 90 18 60
        E 0 90 1f 60
        E 60 80 60 00
        E 0 80 62 00
        E 0 80 54 00
        E 0 80 56 00
        E 0 80 18 00
        E 0 80 1f 00
        E 180 90 61 60
        E 0 90 62 60
        E 0 90 55 60
        E 0 90 56 60
        E 0 90 49 60
        E 0 90 4a 60
        E 0 90 3d 60
        E 0 90 3e 60
        E 0 90 1a 60
        E 0 90 1f 60
        E 60 80 61 00
        E 0 80 62 00
        E 0 80 55 00
        E 0 80 56 00
        E 0 80 49 00
        E 0 80 4a 00
        E 0 80 3d 00
        E 0 80 3e 00
        E 0 80 1a 00
        E 0 80 1f 00
        E 180 90 60 60
        E 0 90 62 60
        E 0 90 54 60
        E 0 90 56 60
        E 0 90 18 60
        E 0 90 1f 60
        E 60 80 60 00
        E 0 80 62 00
        E 0 80 54 00
        E 0 80 56 00
        E 0 80 18 00
        E 0 80 1f 00
        E 180 90 60 60
        E 0 90 62 60
        E 0 90 54 60
        E 0 90 56 60
        E 0 90 48 60
        E 0 90 4a 60
        E 0 90 3e 60
        E 0 90 18 60
        E 0 90 1f 60
        E 60 80 60 00
        E 0 80 62 00
        E 0 80 54 00
        E 0 80 56 00
        E 0 80 48 00
        E 0 80 4a 00
        E 0 80 3e 00
        E 0 80 18 00
        E 0 80 1f 00
        E 180 90 62 60
        E 0 90 56 60
        E 0 90 1f 60
        E 60 80 62 00
        E 0 80 56 00
        E 0 80 1f 00
        E 180 90 61 60
        E 0 90 62 60
        E 0 90 74 60
        E 0 90 55 60
        E 0 90 56 60
        E 0 90 49 60
        E 0 90 4a 60
        E 0 90 3d 60
        E 0 90 3e 60
        E 0 90 1a 60
        E 0 90 1f 60
        E 60 80 61 00
        E 0 80 62 00
        E 0 80 55 00
        E 0 80 56 00
        E 0 80 49 00
        E 0 80 4a 00
        E 0 80 3d 00
        E 0 80 3e 00
        E 0 80 1a 00
        E 0 80 1f 00
        E 180 90 60 60
        E 0 90 62 60
        E 0 90 54 60
        E 0 90 56 60
        E 0 90 18 60
        E 0 90 1f 60
        E 60 80 60 00
        E 0 80 62 00
        E 0 80 54 00
        E 0 80 56 00
        E 0 80 18 00
        E 0 80 1f 00
        E 180 90 60 60
        E 0 90 62 60
        E 0 90 54 60
        E 0 90 56 60
        E 0 90 48 60
        E 0 90 4a 60
        E 0 90 3e 60
        E 0 90 18 60
        E 0 90 1f 60
        E 60 80 60 00
        E 0 80 62 00
        E 0 80 54 00
        E 0 80 56 00
        E 0 80 48 00
        E 0 80 4a 00
        E 0 80 3e 00
        E 0 80 18 00
        E 0 80 1f 00
        E 180 90 61 60
        E 0 90 62 60
        E 0 90 55 60
        E 0 90 56 60
        E 0 90 1a 60
        E 0 90 1f 60
        E 60 80 61 00
        E 0 80 62 00
        E 0 80 55 00
        E 0 80 56 00
        E 0 80 1a 00
        E 0 80 1f 00
        E 180 90 61 60
        E 0 90 62 60
        E 0 90 55 60
        E 0 90 56 60
        E 0 90 49 60
        E 0 90 4a 60
        E 0 90 3d 60
        E 0 90 3e 60
        E 0 90 1a 60
        E 0 90 1f 60
        E 60 80 74 00
        E 0 80 61 00
        E 0 80 62 00
        E 0 80 55 00
        E 0 80 56 00
        E 0 80 49 00
        E 0 80 4a 00
        E 0 80 3d 00
        E 0 80 3e 00
        E 0 80 1a 00
        E 0 80 1f 00
        E 180 90 62 60
        E 0 90 56 60
        E 0 90 1f 60
        E 60 80 62 00
        E 0 80 56 00
        E 0 80 1f 00
        E 180 90 60 60
        E 0 90 63 60
        E 0 90 54 60
        E 0 90 57 60
        E 0 90 4b 60
        E 0 90 6f 60
        E 0 90 3f 60
        E 0 90 18 60
        E 0 90 31 60
        E 60 80 60 00
        E 0 80 63 00
        E 0 80 54 00
        E 0 80 57 00
        E 0 80 4b 00
        E 0 80 6f 00
        E 0 80 3f 00
        E 0 80 18 00
        E 0 80 31 00
        E 180 90 63 60
        E 0 90 57 60
        E 0 90 6f 60
        E 0 90 31 60
        E 60 80 63 00
        E 0 80 57 00
        E 0 80 6f 00
        E 0 80 31 00
        E 180 90 61 60
        E 0 90 63 60
        E 0 90 55 60
        E 0 90 57 60
        E 0 90 49 60
        E 0 90 4b 60
        E 0 90 6f 60
        E 0 90 3d 60
        E 0 90 3f 60
        E 0 90 1a 60
        E 0 90 31 60
        E 60 80 61 00
        E 0 80 63 00
        E 0 80 55 00
        E 0 80 57 00
        E 0 80 49 00
        E 0 80 4b 00
        E 0 80 6f 00
        E 0 80 3d 00
        E 0 80 3f 00
        E 0 80 1a 00
        E 0 80 31 00
        E 180 90 63 60
        E 0 90 57 60
        E 0 90 6f 60
        E 0 90 31 60
        E 60 80 63 00
        E 0 80 57 00
        E 0 80 6f 00
        E 0 80 31 00
        E 180 90 60 60
        E 0 90 63 60
        E 0 90 54 60
        E 0 90 57 60
        E 0 90 4b 60
        E 0 90 6f 60
        E 0 90 3f 60
        E 0 90 18 60
        E 0 90 31 60
        E 60 80 60 00
        E 0 80 63 00
        E 0 80 54 00
        E 0 80 57 00
        E 0 80 4b 00
        E 0 80 6f 00
        E 0 80 3f 00
        E 0 80 18 00
        E 0 80 31 00
        E 180 90 60 60
        E 0 90 63 60
        E 0 90 54 60
        E 0 90 57 60
        E 0 90 6f 60
        E 0 90 18 60
        E 0 90 31 60
        E 60 80 60 00
        E 0 80 63 00
        E 0 80 54 00
        E 0 80 57 00
        E 0 80 6f 00
        E 0 80 18 00
        E 0 80 31 00
        E 180 90 61 60
        E 0 90 63 60
        E 0 90 55 60
        E 0 90 57 60
        E 0 90 49 60
        E 0 90 4b 60
        E 0 90 6f 60
        E 0 90 3d 60
        E 0 90 3f 60
        E 0 90 1a 60
        E 0 90 31 60
        E 60 80 61 00
        E 0 80 63 00
        E 0 80 55 00
        E 0 80 57 00
        E 0 80 49 00
        E 0 80 4b 00
        E 0 80 6f 00
        E 0 80 3d 00
        E 0 80 3f 00
        E 0 80 1a 00
        E 0 80 31 00
        E 180 90 63 60
        E 0 90 57 60
        E 0 90 6f 60
        E 0 90 31 60
        E 60 80 63 00
        E 0 80 57 00
        E 0 80 6f 00
        E 0 80 31 00
        E 180 90 60 60
        E 0 90 63 60
        E 0 90 54 60
        E 0 90 57 60
        E 0 90 4b 60
        E 0 90 6f 60
        E 0 90 3f 60
        E 0 90 18 60
        E 0 90 31 60
        E 60 80 60 00
        E 0 80 63 00
        E 0 80 54 00
        E 0 80 57 00
        E 0 80 4b 00
        E 0 80 6f 00
        E 0 80 3f 00
        E 0 80 18 00
        E 0 80 31 00
        E 180 90 63 60
        E 0 90 57 60
        E 0 90 6f 60
        E 0 90 31 60
        E 60 80 63 00
        E 0 80 57 00
        E 0 80 6f 00
        E 0 80 31 00
        E 180 90 61 60
        E 0 90 63 60
        E 0 90 55 60
        E 0 90 57 60
        E 0 90 49 60
        E 0 90 4b 60
        E 0 90 6f 60
        E 0 90 3d 60
        E 0 90 3f 60
        E 0 90 1a 60
        E 0 90 31 60
        E 60 80 61 00
        E 0 80 63 00
        E 0 80 55 00
        E 0 80 57 00
        E 0 80 49 00
        E 0 80 4b 00
        E 0 80 6f 00
        E 0 80 3d 00
        E 0 80 3f 00
        E 0 80 1a 00
        E 0 80 31 00
        E 180 90 63 60
        E 0 90 57 60
        E 0 90 6f 60
        E 0 90 31 60
        E 60 80 63 00
        E 0 80 57 00
        E 0 80 6f 00
        E 0 80 31 00
        E 180 90 60 60
        E 0 90 63 60
        E 0 90 54 60
        E 0 90 57 60
        E 0 90 4b 60
        E 0 90 6f 60
        E 0 90 3f 60
        E 0 90 18 60
        E 0 90 31 60
        E 60 80 60 00
        E 0 80 63 00
        E 0 80 54 00
        E 0 80 57 00
        E 0 80 4b 00
        E 0 80 6f 00
        E 0 80 3f 00
        E 0 80 18 00
        E 0 80 31 00
        E 180 90 60 60
        E 0 90 63 60
        E 0 90 54 60
        E 0 90 57 60
        E 0 90 6f 60
        E 0 90 18 60
        E 0 90 31 60
        E 60 80 60 00
        E 0 80 63 00
        E 0 80 54 00
        E 0 80 57 00
        E 0 80 6f 00
        E 0 80 18 00
        E 0 80 31 00
        E 180 90 61 60
        E 0 90 63 60
        E 0 90 55 60
        E 0 90 57 60
        E 0 90 49 60
        E 0 90 4b 60
        E 0 90 6f 60
        E 0 90 3d 60
        E 0 90 3f 60
        E 0 90 1a 60
        E 0 90 31 60
        E 60 80 61 00
        E 0 80 63 00
        E 0 80 55 00
        E 0 80 57 00
        E 0 80 49 00
        E 0 80 4b 00
        E 0 80 6f 00
        E 0 80 3d 00
        E 0 80 3f 00
        E 0 80 1a 00
        E 0 80 31 00
        E 180 90 63 60
        E 0 90 57 60
        E 0 90 6f 60
        E 0 90 31 60
        E 60 80 63 00
        E 0 80 57 00
        E 0 80 6f 00
        E 0 80 31 00
        E 180 90 60 60
        E 0 90 63 60
        E 0 90 54 60
        E 0 90 57 60
        E 0 90 4b 60
        E 0 90 6f 60
        E 0 90 3f 60
        E 0 90 18 60
        E 0 90 31 60
        E 60 80 60 00
        E 0 80 63 00
        E 0 80 54 00
        E 0 80 57 00
        E 0 80 4b 00
        E 0 80 6f 00
        E 0 80 3f 00
        E 0 80 18 00
        E 0 80 31 00
        E 180 90 63 60
        E 0 90 57 60
        E 0 90 6f 60
        E 0 90 31 60
        E 60 80 63 00
        E 0 80 57 00
        E 0 80 6f 00
        E 0 80 31 00
        E 180 90 61 60
        E 0 90 63 60
        E 0 90 55 60
        E 0 90 57 60
        E 0 90 49 60
        E 0 90 4b 60
        E 0 90 6f 60
        E 0 90 3d 60
        E 0 90 3f 60
        E 0 90 1a 60
        E 0 90 31 60
        E 60 80 61 00
        E 0 80 63 00
        E 0 80 55 00
        E 0 80 57 00
        E 0 80 49 00
        E 0 80 4b 00
        E 0 80 6f 00
        E 0 80 3d 00
        E 0 80 3f 00
        E 0 80 1a 00
        E 0 80 31 00
        E 180 90 63 60
        E 0 90 57 60
        E 0 90 6f 60
        E 0 90 31 60
        E 60 80 63 00
        E 0 80 57 00
        E 0 80 6f 00
        E 0 80 31 00
        E 180 90 60 60
        E 0 90 63 60
        E 0 90 54 60
        E 0 90 57 60
        E 0 90 4b 60
        E 0 90 6f 60
        E 0 90 3f 60
        E 0 90 18 60
        E 0 90 31 60
        E 60 80 60 00
        E 0 80 63 00
        E 0 80 54 00
        E 0 80 57 00
        E 0 80 4b 00
        E 0 80 6f 00
        E 0 80 3f 00
        E 0 80 18 00
        E 0 80 31 00
        E 180 90 60 60
        E 0 90 63 60
        E 0 90 54 60
        E 0 90 57 60
        E 0 90 6f 60
        E 0 90 18 60
        E 0 90 31 60
        E 60 80 60 00
        E 0 80 63 00
        E 0 80 54 00
        E 0 80 57 00
        E 0 80 6f 00
        E 0 80 18 00
        E 0 80 31 00
        E 180 90 61 60
        E 0 90 63 60
        E 0 90 55 60
        E 0 90 57 60
        E 0 90 49 60
        E 0 90 4b 60
        E 0 90 6f 60
        E 0 90 3d 60
        E 0 90 3f 60
        E 0 90 1a 60
        E 0 90 31 60
        E 60 80 61 00
        E 0 80 63 00
        E 0 80 55 00
        E 0 80 57 00
        E 0 80 49 00
        E 0 80 4b 00
        E 0 80 6f 00
        E 0 80 3d 00
        E 0 80 3f 00
        E 0 80 1a 00
        E 0 80 31 00
        E 180 90 63 60
        E 0 90 57 60
        E 0 90 6f 60
        E 0 90 31 60
        E 60 80 63 00
        E 0 80 57 00
        E 0 80 6f 00
        E 0 80 31 00
        E 180 90 60 60
        E 0 90 63 60
        E 0 90 54 60
        E 0 90 57 60
        E 0 90 4b 60
        E 0 90 6f 60
        E 0 90 3f 60
        E 0 90 18 60
        E 0 90 31 60
        E 60 80 60 00
        E 0 80 63 00
        E 0 80 54 00
        E 0 80 57 00
        E 0 80 4b 00
        E 0 80 6f 00
        E 0 80 3f 00
        E 0 80 18 00
        E 0 80 31 00
        E 180 90 63 60
        E 0 90 57 60
        E 0 90 6f 60
        E 0 90 31 60
        E 60 80 63 00
        E 0 80 57 00
        E 0 80 6f 00
        E 0 80 31 00
        E 180 90 61 60
        E 0 90 63 60
        E 0 90 55 60
        E 0 90 57 60
        E 0 90 49 60
        E 0 90 4b 60
        E 0 90 6f 60
        E 0 90 3d 60
        E 0 90 3f 60
        E 0 90 1a 60
        E 0 90 31 60
        E 60 80 61 00
        E 0 80 63 00
        E 0 80 55 00
        E 0 80 57 00
        E 0 80 49 00
        E 0 80 4b 00
        E 0 80 6f 00
        E 0 80 3d 00
        E 0 80 3f 00
        E 0 80 1a 00
        E 0 80 31 00
        E 180 90 63 60
        E 0 90 57 60
        E 0 90 6f 60
        E 0 90 31 60
        E 60 80 63 00
        E 0 80 57 00
        E 0 80 6f 00
        E 0 80 31 00
        E 180 90 60 60
        E 0 90 63 60
        E 0 90 54 60
        E 0 90 57 60
        E 0 90 4b 60
        E 0 90 6f 60
        E 0 90 3f 60
        E 0 90 18 60
        E 0 90 31 60
        E 60 80 60 00
        E 0 80 63 00
        E 0 80 54 00
        E 0 80 57 00
        E 0 80 4b 00
        E 0 80 6f 00
        E 0 80 3f 00
        E 0 80 18 00
        E 0 80 31 00
        E 180 90 60 60
        E 0 90 63 60
        E 0 90 54 60
        E 0 90 57 60
        E 0 90 6f 60
        E 0 90 18 60
        E 0 90 31 60
        E 60 80 60 00
        E 0 80 63 00
        E 0 80 54 00
        E 0 80 57 00
        E 0 80 6f 00
        E 0 80 18 00
        E 0 80 31 00
        E 180 90 61 60
        E 0 90 63 60
        E 0 90 55 60
        E 0 90 57 60
        E 0 90 49 60
        E 0 90 4b 60
        E 0 90 6f 60
        E 0 90 3d 60
        E 0 90 3f 60
        E 0 90 1a 60
        E 0 90 31 60
        E 60 80 61 00
        E 0 80 63 00
        E 0 80 55 00
        E 0 80 57 00
        E 0 80 49 00
        E 0 80 4b 00
        E 0 80 6f 00
        E 0 80 3d 00
        E 0 80 3f 00
        E 0 80 1a 00
        E 0 80 31 00
        E 180 90 63 60
        E 0 90 57 60
        E 0 90 6f 60
        E 0 90 31 60
        E 60 80 63 00
        E 0 80 57 00
        E 0 80 6f 00
        E 0 80 31 00
        E 180 90 60 60
        E 0 90 63 60
        E 0 90 54 60
        E 0 90 57 60
        E 0 90 4b 60
        E 0 90 6f 60
        E 0 90 3f 60
        E 0 90 18 60
        E 0 90 31 60
        E 60 80 60 00
        E 0 80 63 00
        E 0 80 54 00
        E 0 80 57 00
        E 0 80 4b 00
        E 0 80 6f 00
        E 0 80 3f 00
        E 0 80 18 00
        E 0 80 31 00
        E 180 90 63 60
        E 0 90 57 60
        E 0 90 6f 60
        E 0 90 31 60
        E 60 80 63 00
        E 0 80 57 00
        E 0 80 6f 00
        E 0 80 31 00
        E 180 90 61 60
        E 0 90 63 60
        E 0 90 55 60
        E 0 90 57 60
        E 0 90 49 60
        E 0 90 4b 60
        E 0 90 6f 60
        E 0 90 3d 60
        E 0 90 3f 60
        E 0 90 1a 60
        E 0 90 31 60
        E 60 80 61 00
        E 0 80 63 00
        E 0 80 55 00
        E 0 80 57 00
        E 0 80 49 00
        E 0 80 4b 00
        E 0 80 6f 00
        E 0 80 3d 00
        E 0 80 3f 00
        E 0 80 1a 00
        E 0 80 31 00
        E 180 90 63 60
        E 0 90 57 60
        E 0 90 6f 60
        E 0 90 31 60
        E 60 80 63 00
        E 0 80 57 00
        E 0 80 6f 00
        E 0 80 31 00
        E 180 90 60 60
        E 0 90 63 60
        E 0 90 54 60
        E 0 90 57 60
        E 0 90 4b 60
        E 0 90 6f 60
        E 0 90 3f 60
        E 0 90 18 60
        E 0 90 31 60
        E 60 80 60 00
        E 0 80 63 00
        E 0 80 54 00
        E 0 80 57 00
        E 0 80 4b 00
        E 0 80 6f 00
        E 0 80 3f 00
        E 0 80 18 00
        E 0 80 31 00
        E 180 90 60 60
        E 0 90 63 60
        E 0 90 54 60
        E 0 90 57 60
        E 0 90 6f 60
        E 0 90 18 60
        E 0 90 31 60
        E 60 80 60 00
        E 0 80 63 00
        E 0 80 54 00
        E 0 80 57 00
        E 0 80 6f 00
        E 0 80 18 00
        E 0 80 31 00
        E 180 90 61 60
        E 0 90 63 60
        E 0 90 55 60
        E 0 90 57 60
        E 0 90 49 60
        E 0 90 4b 60
        E 0 90 6f 60
        E 0 90 3d 60
        E 0 90 3f 60
        E 0 90 1a 60
        E 0 90 31 60
        E 60 80 61 00
        E 0 80 63 00
        E 0 80 55 00
        E 0 80 57 00
        E 0 80 49 00
        E 0 80 4b 00
        E 0 80 6f 00
        E 0 80 3d 00
        E 0 80 3f 00
        E 0 80 1a 00
        E 0 80 31 00
        E 180 90 63 60
        E 0 90 57 60
        E 0 90 6f 60
        E 0 90 31 60
        E 60 80 63 00
        E 0 80 57 00
        E 0 80 6f 00
        E 0 80 31 00
        E 180 90 60 60
        E 0 90 63 60
        E 0 90 54 60
        E 0 90 57 60
        E 0 90 4b 60
        E 0 90 6f 60
        E 0 90 3f 60
        E 0 90 18 60
        E 0 90 31 60
        E 60 80 60 00
        E 0 80 63 00
        E 0 80 54 00
        E 0 80 57 00
        E 0 80 4b 00
        E 0 80 6f 00
        E 0 80 3f 00
        E 0 80 18 00
        E 0 80 31 00
        E 180 90 63 60
        E 0 90 57 60
        E 0 90 6f 60
        E 0 90 31 60
        E 60 80 63 00
        E 0 80 57 00
        E 0 80 6f 00
        E 0 80 31 00
        E 180 90 61 60
        E 0 90 63 60
        E 0 90 55 60
        E 0 90 57 60
        E 0 90 49 60
        E 0 90 4b 60
        E 0 90 6f 60
        E 0 90 3d 60
        E 0 90 3f 60
        E 0 90 1a 60
        E 0 90 31 60
        E 60 80 61 00
        E 0 80 63 00
        E 0 80 55 00
        E 0 80 57 00
        E 0 80 49 00
        E 0 80 4b 00
        E 0 80 6f 00
        E 0 80 3d 00
        E 0 80 3f 00
        E 0 80 1a 00
        E 0 80 31 00
        E 180 90 63 60
        E 0 90 57 60
        E 0 90 6f 60
        E 0 90 31 60
        E 60 80 63 00
        E 0 80 57 00
        E 0 80 6f 00
        E 0 80 31 00
        E 180 90 60 60
        E 0 90 63 60
        E 0 90 54 60
        E 0 90 57 60
        E 0 90 4b 60
        E 0 90 6f 60
        E 0 90 3f 60
        E 0 90 18 60
        E 0 90 31 60
        E 60 80 60 00
        E 0 80 63 00
        E 0 80 54 00
        E 0 80 57 00
        E 0 80 4b 00
        E 0 80 6f 00
        E 0 80 3f 00
        E 0 80 18 00
        E 0 80 31 00
        E 180 90 60 60
        E 0 90 63 60
        E 0 90 54 60
        E 0 90 57 60
        E 0 90 6f 60
        E 0 90 18 60
        E 0 90 31 60
        E 60 80 60 00
        E 0 80 63 00
        E 0 80 54 00
        E 0 80 57 00
        E 0 80 6f 00
        E 0 80 18 00
        E 0 80 31 00
        E 180 90 61 60
        E 0 90 63 60
        E 0 90 55 60
        E 0 90 57 60
        E 0 90 49 60
        E 0 90 4b 60
        E 0 90 6f 60
        E 0 90 3d 60
        E 0 90 3f 60
        E 0 90 1a 60
        E 0 90 31 60
        E 60 80 61 00
        E 0 80 63 00
        E 0 80 55 00
        E 0 80 57 00
        E 0 80 49 00
        E 0 80 4b 00
        E 0 80 6f 00
        E 0 80 3d 00
        E 0 80 3f 00
        E 0 80 1a 00
        E 0 80 31 00
        E 180 90 63 60
        E 0 90 57 60
        E 0 90 6f 60
        E 0 90 31 60
        E 60 80 63 00
        E 0 80 57 00
        E 0 80 6f 00
        E 0 80 31 00
        E 180 90 60 60
        E 0 90 63 60
        E 0 90 54 60
        E 0 90 57 60
        E 0 90 4b 60
        E 0 90 6f 60
        E 0 90 3f 60
        E 0 90 18 60
        E 0 90 31 60
        E 60 80 60 00
        E 0 80 63 00
        E 0 80 54 00
        E 0 80 57 00
        E 0 80 4b 00
        E 0 80 6f 00
        E 0 80 3f 00
        E 0 80 18 00
        E 0 80 31 00
        E 180 90 63 60
        E 0 90 57 60
        E 0 90 6f 60
        E 0 90 31 60
        E 60 80 63 00
        E 0 80 57 00
        E 0 80 6f 00
        E 0 80 31 00
        E 180 90 61 60
        E 0 90 63 60
        E 0 90 55 60
        E 0 90 57 60
        E 0 90 49 60
        E 0 90 4b 60
        E 0 90 6f 60
        E 0 90 3d 60
        E 0 90 3f 60
        E 0 90 1a 60
        E 0 90 31 60
        E 60 80 61 00
        E 0 80 63 00
        E 0 80 55 00
        E 0 80 57 00
        E 0 80 49 00
        E 0 80 4b 00
        E 0 80 6f 00
        E 0 80 3d 00
        E 0 80 3f 00
        E 0 80 1a 00
        E 0 80 31 00
        E 180 90 63 60
        E 0 90 57 60
        E 0 90 6f 60
        E 0 90 31 60
        E 60 80 63 00
        E 0 80 57 00
        E 0 80 6f 00
        E 0 80 31 00
        E 180 90 60 60
        E 0 90 63 60
        E 0 90 54 60
        E 0 90 57 60
        E 0 90 4b 60
        E 0 90 6f 60
        E 0 90 3f 60
        E 0 90 18 60
        E 0 90 31 60
        E 60 80 60 00
        E 0 80 63 00
        E 0 80 54 00
        E 0 80 57 00
        E 0 80 4b 00
        E 0 80 6f 00
        E 0 80 3f 00
        E 0 80 18 00
        E 0 80 31 00
        E 180 90 60 60
        E 0 90 63 60
        E 0 90 54 60
        E 0 90 57 60
        E 0 90 6f 60
        E 0 90 18 60
        E 0 90 31 60
        E 60 80 60 00
        E 0 80 63 00
        E 0 80 54 00
        E 0 80 57 00
        E 0 80 6f 00
        E 0 80 18 00
        E 0 80 31 00
        E 180 90 61 60
        E 0 90 63 60
        E 0 90 55 60
        E 0 90 57 60
        E 0 90 49 60
        E 0 90 4b 60
        E 0 90 6f 60
        E 0 90 3d 60
        E 0 90 3f 60
        E 0 90 1a 60
        E 0 90 31 60
        E 60 80 61 00
        E 0 80 63 00
        E 0 80 55 00
        E 0 80 57 00
        E 0 80 49 00
        E 0 80 4b 00
        E 0 80 6f 00
        E 0 80 3d 00
        E 0 80 3f 00
        E 0 80 1a 00
        E 0 80 31 00
        E 180 90 63 60
        E 0 90 57 60
        E 0 90 6f 60
        E 0 90 31 60
        E 60 80 63 00
        E 0 80 57 00
        E 0 80 6f 00
        E 0 80 31 00
        E 180 90 60 60
        E 0 90 63 60
        E 0 90 54 60
        E 0 90 57 60
        E 0 90 4b 60
        E 0 90 6f 60
        E 0 90 3f 60
        E 0 90 18 60
        E 0 90 31 60
        E 60 80 60 00
        E 0 80 63 00
        E 0 80 54 00
        E 0 80 57 00
        E 0 80 4b 00
        E 0 80 6f 00
        E 0 80 3f 00
        E 0 80 18 00
        E 0 80 31 00
        E 180 90 63 60
        E 0 90 57 60
        E 0 90 6f 60
        E 0 90 31 60
        E 60 80 63 00
        E 0 80 57 00
        E 0 80 6f 00
        E 0 80 31 00
        E 180 90 61 60
        E 0 90 63 60
        E 0 90 55 60
        E 0 90 57 60
        E 0 90 49 60
        E 0 90 4b 60
        E 0 90 6f 60
        E 0 90 3d 60
        E 0 90 3f 60
        E 0 90 1a 60
        E 0 90 31 60
        E 60 80 61 00
        E 0 80 63 00
        E 0 80 55 00
        E 0 80 57 00
        E 0 80 49 00
        E 0 80 4b 00
        E 0 80 6f 00
        E 0 80 3d 00
        E 0 80 3f 00
        E 0 80 1a 00
        E 0 80 31 00
        E 180 90 63 60
        E 0 90 57 60
        E 0 90 6f 60
        E 0 90 31 60
        E 60 80 63 00
        E 0 80 57 00
        E 0 80 6f 00
        E 0 80 31 00
        E 180 90 60 60
        E 0 90 63 60
        E 0 90 54 60
        E 0 90 57 60
        E 0 90 4b 60
        E 0 90 6f 60
        E 0 90 3f 60
        E 0 90 18 60
        E 0 90 31 60
        E 60 80 60 00
        E 0 80 63 00
        E 0 80 54 00
        E 0 80 57 00
        E 0 80 4b 00
        E 0 80 6f 00
        E 0 80 3f 00
        E 0 80 18 00
        E 0 80 31 00
        E 180 90 60 60
        E 0 90 63 60
        E 0 90 54 60
        E 0 90 57 60
        E 0 90 6f 60
        E 0 90 18 60
        E 0 90 31 60
        E 60 80 60 00
        E 0 80 63 00
        E 0 80 54 00
        E 0 80 57 00
        E 0 80 6f 00
        E 0 80 18 00
        E 0 80 31 00
        E 180 90 61 60
        E 0 90 64 60
        E 0 90 55 60
        E 0 90 58 60
        E 0 90 49 60
        E 0 90 4c 60
        E 0 90 70 60
        E 0 90 3d 60
        E 0 90 40 60
        E 0 90 1a 60
        E 0 90 33 60
        E 60 80 61 00
        E 0 80 64 00
        E 0 80 55 00
        E 0 80 58 00
        E 0 80 49 00
        E 0 80 4c 00
        E 0 80 70 00
        E 0 80 3d 00
        E 0 80 40 00
        E 0 80 1a 00
        E 0 80 33 00
        E 180 90 60 60
        E 0 90 63 60
        E 0 90 54 60
        E 0 90 57 60
        E 0 90 6f 60
        E 0 90 18 60
        E 0 90 31 60
        E 60 80 60 00
        E 0 80 63 00
        E 0 80 54 00
        E 0 80 57 00
        E 0 80 6f 00
        E 0 80 18 00
        E 0 80 31 00
        E 180 90 60 60
        E 0 90 64 60
        E 0 90 54 60
        E 0 90 58 60
        E 0 90 48 60
        E 0 90 4c 60
        E 0 90 40 60
        E 0 90 18 60
        E 0 90 26 60
        E 60 80 60 00
        E 0 80 64 00
        E 0 80 54 00
        E 0 80 58 00
        E 0 80 48 00
        E 0 80 4c 00
        E 0 80 40 00
        E 0 80 18 00
        E 0 80 26 00
        E 180 90 62 60
        E 0 90 56 60
        E 0 90 1f 60
        E 60 80 62 00
        E 0 80 56 00
        E 0 80 1f 00
        E 180 90 61 60
        E 0 90 62 60
        E 0 90 55 60
        E 0 90 56 60
        E 0 90 49 60
        E 0 90 4a 60
        E 0 90 3d 60
        E 0 90 3e 60
        E 0 90 1a 60
        E 0 90 1f 60
        E 60 80 61 00
        E 0 80 62 00
        E 0 80 55 00
        E 0 80 56 00
        E 0 80 49 00
        E 0 80 4a 00
        E 0 80 3d 00
        E 0 80 3e 00
        E 0 80 1a 00
        E 0 80 1f 00
        E 180 90 62 60
        E 0 90 56 60
        E 0 90 1f 60
        E 60 80 62 00
        E 0 80 56 00
        E 0 80 1f 00
        E 180 90 60 60
        E 0 90 62 60
        E 0 90 54 60
        E 0 90 56 60
        E 0 90 48 60
        E 0 90 4a 60
        E 0 90 3e 60
        E 0 90 18 60
        E 0 90 1f 60
        E 60 80 60 00
        E 0 80 62 00
        E 0 80 54 00
        E 0 80 56 00
        E 0 80 48 00
        E 0 80 4a 00
        E 0 80 3e 00
        E 0 80 18 00
        E 0 80 1f 00
        E 180 90 62 60
        E 0 90 56 60
        E 0 90 1f 60
        E 60 80 62 00
        E 0 80 56 00
        E 0 80 1f 00
        E 180 90 61 60
        E 0 90 62 60
        E 0 90 55 60
        E 0 90 56 60
        E 0 90 49 60
        E 0 90 4a 60
        E 0 90 3d 60
        E 0 90 3e 60
        E 0 90 1a 60
        E 0 90 1f 60
        E 60 80 61 00
        E 0 80 62 00
        E 0 80 55 00
        E 0 80 56 00
        E 0 80 49 00
        E 0 80 4a 00
        E 0 80 3d 00
        E 0 80 3e 00
        E 0 80 1a 00
        E 0 80 1f 00
        E 180 90 62 60
        E 0 90 56 60
        E 0 90 1f 60
        E 60 80 62 00
        E 0 80 56 00
        E 0 80 1f 00
        E 180 90 60 60
        E 0 90 62 60
        E 0 90 54 60
        E 0 90 56 60
        E 0 90 48 60
        E 0 90 4a 60
        E 0 90 3e 60
        E 0 90 18 60
        E 0 90 1f 60
        E 60 80 60 00
        E 0 80 62 00
        E 0 80 54 00
        E 0 80 56 00
        E 0 80 48 00
        E 0 80 4a 00
        E 0 80 3e 00
        E 0 80 18 00
        E 0 80 1f 00
        E 180 90 62 60
        E 0 90 56 60
        E 0 90 1f 60
        E 60 80 62 00
        E 0 80 56 00
        E 0 80 1f 00
        E 180 90 61 60
        E 0 90 62 60
        E 0 90 55 60
        E 0 90 56 60
        E 0 90 49 60
        E 0 90 4a 60
        E 0 90 3d 60
        E 0 90 3e 60
        E 0 90 1a 60
        E 0 90 1f 60
        E 60 80 61 00
        E 0 80 62 00
        E 0 80 55 00
        E 0 80 56 00
        E 0 80 49 00
        E 0 80 4a 00
        E 0 80 3d 00
        E 0 80 3e 00
        E 0 80 1a 00
        E 0 80 1f 00
        E 180 90 62 60
        E 0 90 56 60
        E 0 90 1f 60
        E 60 80 62 00
        E 0 80 56 00
        E 0 80 1f 00
        E 180 90 60 60
        E 0 90 62 60
        E 0 90 54 60
        E 0 90 56 60
        E 0 90 48 60
        E 0 90 4a 60
        E 0 90 3e 60
        E 0 90 18 60
        E 0 90 1f 60
        E 60 80 60 00
        E 0 80 62 00
        E 0 80 54 00
        E 0 80 56 00
        E 0 80 48 00
        E 0 80 4a 00
        E 0 80 3e 00
        E 0 80 18 00
        E 0 80 1f 00
        E 180 90 62 60
        E 0 90 56 60
        E 0 90 1f 60
        E 60 80 62 00
        E 0 80 56 00
        E 0 80 1f 00
        E 180 90 61 60
        E 0 90 62 60
        E 0 90 55 60
        E 0 90 56 60
        E 0 90 49 60
        E 0 90 4a 60
        E 0 90 3d 60
        E 0 90 3e 60
        E 0 90 1a 60
        E 0 90 1f 60
        E 60 80 61 00
        E 0 80 62 00
        E 0 80 55 00
        E 0 80 56 00
        E 0 80 49 00
        E 0 80 4a 00
        E 0 80 3d 00
        E 0 80 3e 00
        E 0 80 1a 00
        E 0 80 1f 00
        E 180 90 62 60
        E 0 90 56 60
        E 0 90 1f 60
        E 60 80 62 00
        E 0 80 56 00
        E 0 80 1f 00
        E 180 90 60 60
        E 0 90 62 60
        E 0 90 54 60
        E 0 90 56 60
        E 0 90 48 60
        E 0 90 4a 60
        E 0 90 3e 60
        E 0 90 18 60
        E 0 90 1f 60
        E 60 80 60 00
        E 0 80 54 00
        E 0 80 48 00
        E 0 80 18 00
        E 1 80 62 00
        E 0 80 56 00
        E 0 80 4a 00
        E 0 80 3e 00
        E 0 80 1f 00
        E 179 90 62 60
        E 0 90 56 60
        E 0 90 1f 60
        E 60 80 62 00
        E 0 80 56 00
        E 0 80 1f 00
        E 180 90 61 60
        E 0 90 62 60
        E 0 90 55 60
        E 0 90 56 60
        E 0 90 49 60
        E 0 90 4a 60
        E 0 90 3d 60
        E 0 90 3e 60
        E 0 90 1a 60
        E 0 90 1f 60
        E 60 80 61 00
        E 0 80 62 00
        E 0 80 55 00
        E 0 80 56 00
        E 0 80 49 00
        E 0 80 4a 00
        E 0 80 3d 00
        E 0 80 3e 00
        E 0 80 1a 00
        E 0 80 1f 00
        E 180 90 62 60
        E 0 90 56 60
        E 0 90 1f 60
        E 60 80 62 00
        E 0 80 56 00
        E 0 80 1f 00
        E 180 90 60 60
        E 0 90 62 60
        E 0 90 54 60
        E 0 90 56 60
        E 0 90 48 60
        E 0 90 4a 60
        E 0 90 3e 60
        E 0 90 18 60
        E 0 90 1f 60
        E 60 80 60 00
        E 0 80 62 00
        E 0 80 54 00
        E 0 80 56 00
        E 0 80 48 00
        E 0 80 4a 00
        E 0 80 3e 00
        E 0 80 18 00
        E 0 80 1f 00
        E 180 90 62 60
        E 0 90 56 60
        E 0 90 1f 60
        E 60 80 62 00
        E 0 80 56 00
        E 0 80 1f 00
        E 180 90 61 60
        E 0 90 62 60
        E 0 90 55 60
        E 0 90 56 60
        E 0 90 49 60
        E 0 90 4a 60
        E 0 90 3d 60
        E 0 90 3e 60
        E 0 90 1a 60
        E 0 90 1f 60
        E 59 80 61 00
        E 0 80 55 00
        E 0 80 49 00
        E 0 80 3d 00
        E 0 80 1a 00
        E 1 80 62 00
        E 0 80 56 00
        E 0 80 4a 00
        E 0 80 3e 00
        E 0 80 1f 00
        E 180 90 62 60
        E 0 90 56 60
        E 0 90 1f 60
        E 60 80 62 00
        E 0 80 56 00
        E 0 80 1f 00
        E 180 90 60 60
        E 0 90 62 60
        E 0 90 54 60
        E 0 90 56 60
        E 0 90 48 60
        E 0 90 4a 60
        E 0 90 3e 60
        E 0 90 18 60
        E 0 90 1f 60
        E 60 80 60 00
        E 0 80 54 00
        E 0 80 48 00
        E 0 80 18 00
        E 1 80 62 00
        E 0 80 56 00
        E 0 80 4a 00
        E 0 80 3e 00
        E 0 80 1f 00
        E 179 90 62 60
        E 0 90 56 60
        E 0 90 1f 60
        E 60 80 62 00
        E 0 80 56 00
        E 0 80 1f 00
        E 180 90 61 60
        E 0 90 62 60
        E 0 90 55 60
        E 0 90 56 60
        E 0 90 49 60
        E 0 90 4a 60
        E 0 90 3d 60
        E 0 90 3e 60
        E 0 90 1a 60
        E 0 90 1f 60
        E 60 80 61 00
        E 0 80 62 00
        E 0 80 55 00
        E 0 80 56 00
        E 0 80 49 00
        E 0 80 4a 00
        E 0 80 3d 00
        E 0 80 3e 00
        E 0 80 1a 00
        E 0 80 1f 00
        E 180 90 62 60
        E 0 90 56 60
        E 0 90 1f 60
        E 60 80 62 00
        E 0 80 56 00
        E 0 80 1f 00
        E 180 90 60 60
        E 0 90 62 60
        E 0 90 54 60
        E 0 90 56 60
        E 0 90 48 60
        E 0 90 4a 60
        E 0 90 3e 60
        E 0 90 18 60
        E 0 90 1f 60
        E 60 80 60 00
        E 0 80 62 00
        E 0 80 54 00
        E 0 80 56 00
        E 0 80 48 00
        E 0 80 4a 00
        E 0 80 3e 00
        E 0 80 18 00
        E 0 80 1f 00
        E 180 90 61 60
        E 0 90 55 60
        E 0 90 1b 60
        E 60 80 61 00
        E 0 80 55 00
        E 0 80 1b 00
        E 60 90 61 60
        E 0 90 1a 60
        E 60 80 61 00
        E 0 80 1a 00
        E 60 90 61 60
        E 0 90 55 60
        E 0 90 49 60
        E 0 90 3d 60
        E 0 90 1b 60
        E 60 80 61 00
        E 0 80 55 00
        E 0 80 49 00
        E 0 80 3d 00
        E 0 80 1b 00
        E 60 90 61 60
        E 0 90 1a 60
        E 60 80 61 00
        E 0 80 1a 00
        E 60 90 61 60
        E 0 90 55 60
        E 0 90 1b 60
        E 60 80 61 00
        E 0 80 55 00
        E 0 80 1b 00
        E 60 90 61 60
        E 0 90 1a 60
        E 60 80 61 00
        E 0 80 1a 00
        E 60 90 60 60
        E 0 90 64 60
        E 0 90 54 60
        E 0 90 58 60
        E 0 90 48 60
        E 0 90 4c 60
        E 0 90 40 60
        E 0 90 18 60
        E 0 90 26 60
        E 60 80 60 00
        E 0 80 64 00
        E 0 80 54 00
        E 0 80 58 00
        E 0 80 48 00
        E 0 80 4c 00
        E 0 80 40 00
        E 0 80 18 00
        E 0 80 26 00
        E 180 90 63 60
        E 0 90 74 64
        E 0 90 57 60
        E 0 90 2a 60
        E 60 80 63 00
        E 0 80 57 00
        E 0 80 2a 00
        E 180 90 61 60
        E 0 90 63 60
        E 0 90 55 60
        E 0 90 57 60
        E 0 90 49 60
        E 0 90 4b 60
        E 0 90 3d 60
        E 0 90 3f 60
        E 0 90 1a 60
        E 0 90 2a 60
        E 60 80 61 00
        E 0 80 63 00
        E 0 80 55 00
        E 0 80 57 00
        E 0 80 49 00
        E 0 80 4b 00
        E 0 80 3d 00
        E 0 80 3f 00
        E 0 80 1a 00
        E 0 80 2a 00
        E 180 90 63 60
        E 0 90 57 60
        E 0 90 2a 60
        E 60 80 63 00
        E 0 80 57 00
        E 0 80 2a 00
        E 60 90 61 60
        E 0 90 1a 60
        E 60 80 61 00
        E 0 80 1a 00
        E 60 90 60 60
        E 0 90 63 60
        E 0 90 54 60
        E 0 90 57 60
        E 0 90 48 60
        E 0 90 4b 60
        E 0 90 3f 60
        E 0 90 18 60
        E 0 90 2a 60
        E 60 80 60 00
        E 0 80 63 00
        E 0 80 54 00
        E 0 80 57 00
        E 0 80 48 00
        E 0 80 4b 00
        E 0 80 3f 00
        E 0 80 18 00
        E 0 80 2a 00
        E 60 90 61 60
        E 0 90 1a 60
        E 60 80 61 00
        E 0 80 1a 00
        E 60 90 60 60
        E 0 90 63 60
        E 0 90 54 60
        E 0 90 57 60
        E 0 90 18 60
        E 0 90 2a 60
        E 60 80 60 00
        E 0 80 63 00
        E 0 80 54 00
        E 0 80 57 00
        E 0 80 18 00
        E 0 80 2a 00
        E 180 90 61 60
        E 0 90 63 60
        E 0 90 55 60
        E 0 90 57 60
        E 0 90 49 60
        E 0 90 4b 60
        E 0 90 3d 60
        E 0 90 3f 60
        E 0 90 1a 60
        E 0 90 2a 60
        E 60 80 61 00
        E 0 80 63 00
        E 0 80 55 00
        E 0 80 57 00
        E 0 80 49 00
        E 0 80 4b 00
        E 0 80 3d 00
        E 0 80 3f 00
        E 0 80 1a 00
        E 0 80 2a 00
        E 180 90 60 60
        E 0 90 63 60
        E 0 90 54 60
        E 0 90 57 60
        E 0 90 18 60
        E 0 90 2a 60
        E 60 80 60 00
        E 0 80 63 00
        E 0 80 54 00
        E 0 80 57 00
        E 0 80 18 00
        E 0 80 2a 00
        E 180 90 60 60
        E 0 90 63 60
        E 0 90 54 60
        E 0 90 57 60
        E 0 90 48 60
        E 0 90 4b 60
        E 0 90 3f 60
        E 0 90 18 60
        E 0 90 2a 60
        E 60 80 60 00
        E 0 80 63 00
        E 0 80 54 00
        E 0 80 57 00
        E 0 80 48 00
        E 0 80 4b 00
        E 0 80 3f 00
        E 0 80 18 00
        E 0 80 2a 00
        E 180 90 63 60
        E 0 90 57 60
        E 0 90 2a 60
        E 60 80 63 00
        E 0 80 57 00
        E 0 80 2a 00
        E 180 90 61 60
        E 0 90 63 60
        E 0 90 55 60
        E 0 90 57 60
        E 0 90 49 60
        E 0 90 4b 60
        E 0 90 3d 60
        E 0 90 3f 60
        E 0 90 1a 60
        E 0 90 2a 60
        E 60 80 61 00
        E 0 80 63 00
        E 0 80 55 00
        E 0 80 57 00
        E 0 80 49 00
        E 0 80 4b 00
        E 0 80 3d 00
        E 0 80 3f 00
        E 0 80 1a 00
        E 0 80 2a 00
        E 180 90 63 60
        E 0 90 57 60
        E 0 90 2a 60
        E 60 80 63 00
        E 0 80 57 00
        E 0 80 2a 00
        E 60 90 61 60
        E 0 90 1a 60
        E 60 80 61 00
        E 0 80 1a 00
        E 60 90 60 60
        E 0 90 63 60
        E 0 90 54 60
        E 0 90 57 60
        E 0 90 48 60
        E 0 90 4b 60
        E 0 90 3f 60
        E 0 90 18 60
        E 0 90 2a 60
        E 60 80 60 00
        E 0 80 63 00
        E 0 80 54 00
        E 0 80 57 00
        E 0 80 48 00
        E 0 80 4b 00
        E 0 80 3f 00
        E 0 80 18 00
        E 0 80 2a 00
        E 60 90 61 60
        E 0 90 1a 60
        E 60 80 61 00
        E 0 80 1a 00
        E 60 90 60 60
        E 0 90 63 60
        E 0 90 54 60
        E 0 90 57 60
        E 0 90 18 60
        E 0 90 2a 60
        E 60 80 60 00
        E 0 80 63 00
        E 0 80 54 00
        E 0 80 57 00
        E 0 80 18 00
        E 0 80 2a 00
        E 180 90 61 60
        E 0 90 63 60
        E 0 90 55 60
        E 0 90 57 60
        E 0 90 49 60
        E 0 90 4b 60
        E 0 90 3d 60
        E 0 90 3f 60
        E 0 90 1a 60
        E 0 90 2a 60
        E 60 80 61 00
        E 0 80 63 00
        E 0 80 55 00
        E 0 80 57 00
        E 0 80 49 00
        E 0 80 4b 00
        E 0 80 3d 00
        E 0 80 3f 00
        E 0 80 1a 00
        E 0 80 2a 00
        E 180 90 60 60
        E 0 90 63 60
        E 0 90 54 60
        E 0 90 57 60
        E 0 90 18 60
        E 0 90 2a 60
        E 60 80 60 00
        E 0 80 63 00
        E 0 80 54 00
        E 0 80 57 00
        E 0 80 18 00
        E 0 80 2a 00
        E 60 80 74 00
        E 120 90 60 60
        E 0 90 64 60
        E 0 90 54 60
        E 0 90 58 60
        E 0 90 48 60
        E 0 90 4c 60
        E 0 90 40 60
        E 0 90 18 60
        E 0 90 26 60
        E 60 80 60 00
        E 0 80 64 00
        E 0 80 54 00
        E 0 80 58 00
        E 0 80 48 00
        E 0 80 4c 00
        E 0 80 40 00
        E 0 80 18 00
        E 0 80 26 00
        E 180 90 63 60
        E 0 90 57 60
        E 0 90 2a 60
        E 60 80 63 00
        E 0 80 57 00
        E 0 80 2a 00
        E 180 90 61 60
        E 0 90 63 60
        E 0 90 55 60
        E 0 90 57 60
        E 0 90 49 60
        E 0 90 4b 60
        E 0 90 3d 60
        E 0 90 3f 60
        E 0 90 1a 60
        E 0 90 2a 60
        E 60 80 61 00
        E 0 80 63 00
        E 0 80 55 00
        E 0 80 57 00
        E 0 80 49 00
        E 0 80 4b 00
        E 0 80 3d 00
        E 0 80 3f 00
        E 0 80 1a 00
        E 0 80 2a 00
        E 180 90 63 60
        E 0 90 57 60
        E 0 90 2a 60
        E 60 80 63 00
        E 0 80 57 00
        E 0 80 2a 00
        E 60 90 61 60
        E 0 90 1a 60
        E 60 80 61 00
        E 0 80 1a 00
        E 60 90 60 60
        E 0 90 63 60
        E 0 90 54 60
        E 0 90 57 60
        E 0 90 48 60
        E 0 90 4b 60
        E 0 90 3f 60
        E 0 90 18 60
        E 0 90 2a 60
        E 60 80 60 00
        E 0 80 63 00
        E 0 80 54 00
        E 0 80 57 00
        E 0 80 48 00
        E 0 80 4b 00
        E 0 80 3f 00
        E 0 80 18 00
        E 0 80 2a 00
        E 60 90 61 60
        E 0 90 1a 60
        E 60 80 61 00
        E 0 80 1a 00
        E 60 90 60 60
        E 0 90 63 60
        E 0 90 54 60
        E 0 90 57 60
        E 0 90 18 60
        E 0 90 2a 60
        E 60 80 60 00
        E 0 80 63 00
        E 0 80 54 00
        E 0 80 57 00
        E 0 80 18 00
        E 0 80 2a 00
        E 180 90 61 60
        E 0 90 63 60
        E 0 90 55 60
        E 0 90 57 60
        E 0 90 49 60
        E 0 90 4b 60
        E 0 90 3d 60
        E 0 90 3f 60
        E 0 90 1a 60
        E 0 90 2a 60
        E 60 80 61 00
        E 0 80 63 00
        E 0 80 55 00
        E 0 80 57 00
        E 0 80 49 00
        E 0 80 4b 00
        E 0 80 3d 00
        E 0 80 3f 00
        E 0 80 1a 00
        E 0 80 2a 00
        E 180 90 60 60
        E 0 90 63 60
        E 0 90 54 60
        E 0 90 57 60
        E 0 90 18 60
        E 0 90 2a 60
        E 60 80 60 00
        E 0 80 63 00
        E 0 80 54 00
        E 0 80 57 00
        E 0 80 18 00
        E 0 80 2a 00
        E 180 90 60 60
        E 0 90 63 60
        E 0 90 54 60
        E 0 90 57 60
        E 0 90 48 60
        E 0 90 4b 60
        E 0 90 3f 60
        E 0 90 18 60
        E 0 90 2a 60
        E 60 80 60 00
        E 0 80 63 00
        E 0 80 54 00
        E 0 80 57 00
        E 0 80 48 00
        E 0 80 4b 00
        E 0 80 3f 00
        E 0 80 18 00
        E 0 80 2a 00
        E 180 90 63 60
        E 0 90 57 60
        E 0 90 2a 60
        E 60 80 63 00
        E 0 80 57 00
        E 0 80 2a 00
        E 180 90 61 60
        E 0 90 63 60
        E 0 90 55 60
        E 0 90 57 60
        E 0 90 49 60
        E 0 90 4b 60
        E 0 90 3d 60
        E 0 90 3f 60
        E 0 90 1a 60
        E 0 90 2a 60
        E 60 80 61 00
        E 0 80 63 00
        E 0 80 55 00
        E 0 80 57 00
        E 0 80 49 00
        E 0 80 4b 00
        E 0 80 3d 00
        E 0 80 3f 00
        E 0 80 1a 00
        E 0 80 2a 00
        E 180 90 63 60
        E 0 90 57 60
        E 0 90 2a 60
        E 60 80 63 00
        E 0 80 57 00
        E 0 80 2a 00
        E 60 90 61 60
        E 0 90 1a 60
        E 60 80 61 00
        E 0 80 1a 00
        E 60 90 60 60
        E 0 90 63 60
        E 0 90 78 60
        E 0 90 79 60
        E 0 90 7a 60
        E 0 90 7b 60
        E 0 90 7c 60
        E 0 90 54 60
        E 0 90 57 60
        E 0 90 48 60
        E 0 90 4b 60
        E 0 90 3f 60
        E 0 90 18 60
        E 0 90 2a 60
        E 60 80 60 00
        E 0 80 63 00
        E 0 80 54 00
        E 0 80 57 00
        E 0 80 48 00
        E 0 80 4b 00
        E 0 80 3f 00
        E 0 80 18 00
        E 0 80 2a 00
        E 60 90 61 60
        E 0 90 1a 60
        E 60 80 61 00
        E 0 80 1a 00
        E 60 90 60 60
        E 0 90 63 60
        E 0 90 54 60
        E 0 90 57 60
        E 0 90 18 60
        E 0 90 2a 60
        E 60 80 60 00
        E 0 80 63 00
        E 0 80 54 00
        E 0 80 57 00
        E 0 80 18 00
        E 0 80 2a 00
        E 180 90 61 60
        E 0 90 63 60
        E 0 90 55 60
        E 0 90 57 60
        E 0 90 49 60
        E 0 90 4b 60
        E 0 90 3d 60
        E 0 90 3f 60
        E 0 90 1a 60
        E 0 90 2a 60
        E 60 80 61 00
        E 0 80 63 00
        E 0 80 55 00
        E 0 80 57 00
        E 0 80 49 00
        E 0 80 4b 00
        E 0 80 3d 00
        E 0 80 3f 00
        E 0 80 1a 00
        E 0 80 2a 00
        E 180 90 60 60
        E 0 90 63 60
        E 0 90 54 60
        E 0 90 57 60
        E 0 90 18 60
        E 0 90 2a 60
        E 60 80 60 00
        E 0 80 63 00
        E 0 80 54 00
        E 0 80 57 00
        E 0 80 18 00
        E 0 80 2a 00
        E 180 80 78 00
        E 0 80 79 00
        E 0 80 7a 00
        E 0 80 7b 00
        E 0 80 7c 00
        E 0 90 60 60
        E 0 90 64 60
        E 0 90 54 60
        E 0 90 58 60
        E 0 90 48 60
        E 0 90 4c 60
        E 0 90 40 60
        E 0 90 18 60
        E 0 90 26 60
        E 60 80 60 00
        E 0 80 64 00
        E 0 80 54 00
        E 0 80 58 00
        E 0 80 48 00
        E 0 80 4c 00
        E 0 80 40 00
        E 0 80 18 00
        E 0 80 26 00
        E 180 90 63 60
        E 0 90 57 60
        E 0 90 2a 60
        E 60 80 63 00
        E 0 80 57 00
        E 0 80 2a 00
        E 180 90 61 60
        E 0 90 63 60
        E 0 90 55 60
        E 0 90 57 60
        E 0 90 49 60
        E 0 90 4b 60
        E 0 90 3d 60
        E 0 90 3f 60
        E 0 90 1a 60
        E 0 90 2a 60
        E 60 80 61 00
        E 0 80 63 00
        E 0 80 55 00
        E 0 80 57 00
        E 0 80 49 00
        E 0 80 4b 00
        E 0 80 3d 00
        E 0 80 3f 00
        E 0 80 1a 00
        E 0 80 2a 00
        E 180 90 63 60
        E 0 90 57 60
        E 0 90 2a 60
        E 60 80 63 00
        E 0 80 57 00
        E 0 80 2a 00
        E 60 90 61 60
        E 0 90 1a 60
        E 60 80 61 00
        E 0 80 1a 00
        E 60 90 60 60
        E 0 90 63 60
        E 0 90 54 60
        E 0 90 57 60
        E 0 90 48 60
        E 0 90 4b 60
        E 0 90 3f 60
        E 0 90 18 60
        E 0 90 2a 60
        E 60 80 60 00
        E 0 80 63 00
        E 0 80 54 00
        E 0 80 57 00
        E 0 80 48 00
        E 0 80 4b 00
        E 0 80 3f 00
        E 0 80 18 00
        E 0 80 2a 00
        E 60 90 61 60
        E 0 90 1a 60
        E 60 80 61 00
        E 0 80 1a 00
        E 60 90 60 60
        E 0 90 63 60
        E 0 90 54 60
        E 0 90 57 60
        E 0 90 18 60
        E 0 90 2a 60
        E 60 80 60 00
        E 0 80 63 00
        E 0 80 54 00
        E 0 80 57 00
        E 0 80 18 00
        E 0 80 2a 00
        E 180 90 61 60
        E 0 90 63 60
        E 0 90 55 60
        E 0 90 57 60
        E 0 90 49 60
        E 0 90 4b 60
        E 0 90 3d 60
        E 0 90 3f 60
        E 0 90 1a 60
        E 0 90 2a 60
        E 60 80 61 00
        E 0 80 63 00
        E 0 80 55 00
        E 0 80 57 00
        E 0 80 49 00
        E 0 80 4b 00
        E 0 80 3d 00
        E 0 80 3f 00
        E 0 80 1a 00
        E 0 80 2a 00
        E 180 90 60 60
        E 0 90 63 60
        E 0 90 54 60
        E 0 90 57 60
        E 0 90 18 60
        E 0 90 2a 60
        E 60 80 60 00
        E 0 80 63 00
        E 0 80 54 00
        E 0 80 57 00
        E 0 80 18 00
        E 0 80 2a 00
        E 180 90 60 60
        E 0 90 63 60
        E 0 90 54 60
        E 0 90 57 60
        E 0 90 48 60
        E 0 90 4b 60
        E 0 90 3f 60
        E 0 90 18 60
        E 0 90 2a 60
        E 60 80 60 00
        E 0 80 63 00
        E 0 80 54 00
        E 0 80 57 00
        E 0 80 48 00
        E 0 80 4b 00
        E 0 80 3f 00
        E 0 80 18 00
        E 0 80 2a 00
        E 180 90 63 60
        E 0 90 57 60
        E 0 90 2a 60
        E 60 80 63 00
        E 0 80 57 00
        E 0 80 2a 00
        E 180 90 61 60
        E 0 90 63 60
        E 0 90 55 60
        E 0 90 57 60
        E 0 90 49 60
        E 0 90 4b 60
        E 0 90 3d 60
        E 0 90 3f 60
        E 0 90 1a 60
        E 0 90 2a 60
        E 60 80 61 00
        E 0 80 63 00
        E 0 80 55 00
        E 0 80 57 00
        E 0 80 49 00
        E 0 80 4b 00
        E 0 80 3d 00
        E 0 80 3f 00
        E 0 80 1a 00
        E 0 80 2a 00
        E 180 90 63 60
        E 0 90 57 60
        E 0 90 2a 60
        E 60 80 63 00
        E 0 80 57 00
        E 0 80 2a 00
        E 60 90 61 60
        E 0 90 1a 60
        E 60 80 61 00
        E 0 80 1a 00
        E 60 90 60 60
        E 0 90 63 60
        E 0 90 54 60
        E 0 90 57 60
        E 0 90 48 60
        E 0 90 4b 60
        E 0 90 3f 60
        E 0 90 18 60
        E 0 90 2a 60
        E 60 80 60 00
        E 0 80 63 00
        E 0 80 54 00
        E 0 80 57 00
        E 0 80 48 00
        E 0 80 4b 00
        E 0 80 3f 00
        E 0 80 18 00
        E 0 80 2a 00
        E 60 90 61 60
        E 0 90 1a 60
        E 60 80 61 00
        E 0 80 1a 00
        E 60 90 60 60
        E 0 90 63 60
        E 0 90 54 60
        E 0 90 57 60
        E 0 90 18 60
        E 0 90 2a 60
        E 60 80 60 00
        E 0 80 63 00
        E 0 80 54 00
        E 0 80 57 00
        E 0 80 18 00
        E 0 80 2a 00
        E 180 90 61 60
        E 0 90 63 60
        E 0 90 55 60
        E 0 90 57 60
        E 0 90 49 60
        E 0 90 4b 60
        E 0 90 3d 60
        E 0 90 3f 60
        E 0 90 1a 60
        E 0 90 2a 60
        E 60 80 61 00
        E 0 80 63 00
        E 0 80 55 00
        E 0 80 57 00
        E 0 80 49 00
        E 0 80 4b 00
        E 0 80 3d 00
        E 0 80 3f 00
        E 0 80 1a 00
        E 0 80 2a 00
        E 180 90 60 60
        E 0 90 63 60
        E 0 90 54 60
        E 0 90 57 60
        E 0 90 18 60
        E 0 90 2a 60
        E 60 80 60 00
        E 0 80 63 00
        E 0 80 54 00
        E 0 80 57 00
        E 0 80 18 00
        E 0 80 2a 00
        E 180 90 60 60
        E 0 90 64 60
        E 0 90 54 60
        E 0 90 58 60
        E 0 90 48 60
        E 0 90 4c 60
        E 0 90 40 60
        E 0 90 18 60
        E 0 90 26 60
        E 60 80 60 00
        E 0 80 64 00
        E 0 80 54 00
        E 0 80 58 00
        E 0 80 48 00
        E 0 80 4c 00
        E 0 80 40 00
        E 0 80 18 00
        E 0 80 26 00
        E 180 90 63 60
        E 0 90 57 60
        E 0 90 2a 60
        E 60 80 63 00
        E 0 80 57 00
        E 0 80 2a 00
        E 180 90 61 60
        E 0 90 63 60
        E 0 90 55 60
        E 0 90 57 60
        E 0 90 49 60
        E 0 90 4b 60
        E 0 90 3d 60
        E 0 90 3f 60
        E 0 90 1a 60
        E 0 90 2a 60
        E 60 80 61 00
        E 0 80 63 00
        E 0 80 55 00
        E 0 80 57 00
        E 0 80 49 00
        E 0 80 4b 00
        E 0 80 3d 00
        E 0 80 3f 00
        E 0 80 1a 00
        E 0 80 2a 00
        E 180 90 63 60
        E 0 90 57 60
        E 0 90 2a 60
        E 60 80 63 00
        E 0 80 57 00
        E 0 80 2a 00
        E 180 90 60 60
        E 0 90 63 60
        E 0 90 54 60
        E 0 90 57 60
        E 0 90 48 60
        E 0 90 4b 60
        E 0 90 3f 60
        E 0 90 18 60
        E 0 90 2a 60
        E 60 80 60 00
        E 0 80 63 00
        E 0 80 54 00
        E 0 80 57 00
        E 0 80 48 00
        E 0 80 4b 00
        E 0 80 3f 00
        E 0 80 18 00
        E 0 80 2a 00
        E 180 90 60 60
        E 0 90 63 60
        E 0 90 54 60
        E 0 90 57 60
        E 0 90 18 60
        E 0 90 2a 60
        E 60 80 60 00
        E 0 80 63 00
        E 0 80 54 00
        E 0 80 57 00
        E 0 80 18 00
        E 0 80 2a 00
        E 180 90 61 60
        E 0 90 63 60
        E 0 90 55 60
        E 0 90 57 60
        E 0 90 49 60
        E 0 90 4b 60
        E 0 90 3d 60
        E 0 90 3f 60
        E 0 90 1a 60
        E 0 90 2a 60
        E 60 80 61 00
        E 0 80 63 00
        E 0 80 55 00
        E 0 80 57 00
        E 0 80 49 00
        E 0 80 4b 00
        E 0 80 3d 00
        E 0 80 3f 00
        E 0 80 1a 00
        E 0 80 2a 00
        E 180 90 60 60
        E 0 90 63 60
        E 0 90 54 60
        E 0 90 57 60
        E 0 90 18 60
        E 0 90 2a 60
        E 60 80 60 00
        E 0 80 63 00
        E 0 80 54 00
        E 0 80 57 00
        E 0 80 18 00
        E 0 80 2a 00
        E 180 90 60 60
        E 0 90 63 60
        E 0 90 54 60
        E 0 90 57 60
        E 0 90 48 60
        E 0 90 4b 60
        E 0 90 3f 60
        E 0 90 18 60
        E 0 90 2a 60
        E 60 80 60 00
        E 0 80 63 00
        E 0 80 54 00
        E 0 80 57 00
        E 0 80 48 00
        E 0 80 4b 00
        E 0 80 3f 00
        E 0 80 18 00
        E 0 80 2a 00
        E 180 90 63 60
        E 0 90 57 60
        E 0 90 2a 60
        E 60 80 63 00
        E 0 80 57 00
        E 0 80 2a 00
        E 180 90 61 60
        E 0 90 63 60
        E 0 90 55 60
        E 0 90 57 60
        E 0 90 49 60
        E 0 90 4b 60
        E 0 90 3d 60
        E 0 90 3f 60
        E 0 90 1a 60
        E 0 90 2a 60
        E 60 80 61 00
        E 0 80 63 00
        E 0 80 55 00
        E 0 80 57 00
        E 0 80 49 00
        E 0 80 4b 00
        E 0 80 3d 00
        E 0 80 3f 00
        E 0 80 1a 00
        E 0 80 2a 00
        E 420 90 60 60
        E 0 90 63 60
        E 0 90 54 60
        E 0 90 57 60
        E 0 90 48 60
        E 0 90 4b 60
        E 0 90 3f 60
        E 0 90 18 60
        E 0 90 2a 60
        E 60 80 60 00
        E 0 80 63 00
        E 0 80 54 00
        E 0 80 57 00
        E 0 80 48 00
        E 0 80 4b 00
        E 0 80 3f 00
        E 0 80 18 00
        E 0 80 2a 00
        E 180 90 61 60
        E 0 90 62 60
        E 0 90 55 60
        E 0 90 56 60
        E 0 90 6e 60
        E 0 90 1a 60
        E 0 90 1b 60
        E 60 80 61 00
        E 0 80 62 00
        E 0 80 55 00
        E 0 80 56 00
        E 0 80 6e 00
        E 0 80 1a 00
        E 0 80 1b 00
        E 180 90 61 60
        E 0 90 62 60
        E 0 90 55 60
        E 0 90 56 60
        E 0 90 49 60
        E 0 90 4a 60
        E 0 90 6e 60
        E 0 90 3d 60
        E 0 90 3e 60
        E 0 90 1a 60
        E 0 90 1b 60
        E 60 80 61 00
        E 0 80 62 00
        E 0 80 55 00
        E 0 80 56 00
        E 0 80 49 00
        E 0 80 4a 00
        E 0 80 6e 00
        E 0 80 3d 00
        E 0 80 3e 00
        E 0 80 1a 00
        E 0 80 1b 00
        E 180 90 60 60
        E 0 90 54 60
        E 0 90 18 60
        E 60 80 60 00
        E 0 80 54 00
        E 0 80 18 00
        E 3780 90 60 60
        E 0 90 63 60
        E 0 90 54 60
        E 0 90 57 60
        E 0 90 6f 60
        E 0 90 18 60
        E 0 90 31 60
        E 60 80 60 00
        E 0 80 63 00
        E 0 80 54 00
        E 0 80 57 00
        E 0 80 6f 00
        E 0 80 18 00
        E 0 80 31 00
        E 180 90 63 60
        E 0 90 57 60
        E 0 90 4b 60
        E 0 90 6f 60
        E 0 90 3f 60
        E 0 90 31 60
        E 60 80 63 00
        E 0 80 57 00
        E 0 80 4b 00
        E 0 80 6f 00
        E 0 80 3f 00
        E 0 80 31 00
        E 180 90 63 60
        E 0 90 57 60
        E 0 90 6f 60
        E 0 90 31 60
        E 60 80 63 00
        E 0 80 57 00
        E 0 80 6f 00
        E 0 80 31 00
        E 180 90 61 60
        E 0 90 63 60
        E 0 90 55 60
        E 0 90 57 60
        E 0 90 49 60
        E 0 90 4b 60
        E 0 90 6f 60
        E 0 90 3d 60
        E 0 90 3f 60
        E 0 90 1a 60
        E 0 90 31 60
        E 60 80 61 00
        E 0 80 63 00
        E 0 80 55 00
        E 0 80 57 00
        E 0 80 49 00
        E 0 80 4b 00
        E 0 80 6f 00
        E 0 80 3d 00
        E 0 80 3f 00
        E 0 80 1a 00
        E 0 80 31 00
        E 180 90 63 60
        E 0 90 57 60
        E 0 90 6f 60
        E 0 90 31 60
        E 60 80 63 00
        E 0 80 57 00
        E 0 80 6f 00
        E 0 80 31 00
        E 180 90 60 60
        E 0 90 63 60
        E 0 90 54 60
        E 0 90 57 60
        E 0 90 4b 60
        E 0 90 6f 60
        E 0 90 3f 60
        E 0 90 18 60
        E 0 90 31 60
        E 60 80 60 00
        E 0 80 63 00
        E 0 80 54 00
        E 0 80 57 00
        E 0 80 4b 00
        E 0 80 6f 00
        E 0 80 3f 00
        E 0 80 18 00
        E 0 80 31 00
        E 180 90 60 60
        E 0 90 63 60
        E 0 90 54 60
        E 0 90 57 60
        E 0 90 6f 60
        E 0 90 18 60
        E 0 90 31 60
        E 60 80 60 00
        E 0 80 63 00
        E 0 80 54 00
        E 0 80 57 00
        E 0 80 6f 00
        E 0 80 18 00
        E 0 80 31 00
        E 180 90 61 60
        E 0 90 63 60
        E 0 90 55 60
        E 0 90 57 60
        E 0 90 49 60
        E 0 90 4b 60
        E 0 90 6f 60
        E 0 90 3d 60
        E 0 90 3f 60
        E 0 90 1a 60
        E 0 90 31 60
        E 60 80 61 00
        E 0 80 63 00
        E 0 80 55 00
        E 0 80 57 00
        E 0 80 49 00
        E 0 80 4b 00
        E 0 80 6f 00
        E 0 80 3d 00
        E 0 80 3f 00
        E 0 80 1a 00
        E 0 80 31 00
        E 180 90 63 60
        E 0 90 57 60
        E 0 90 6f 60
        E 0 90 31 60
        E 60 80 63 00
        E 0 80 57 00
        E 0 80 6f 00
        E 0 80 31 00
        E 180 90 60 60
        E 0 90 63 60
        E 0 90 54 60
        E 0 90 57 60
        E 0 90 4b 60
        E 0 90 6f 60
        E 0 90 3f 60
        E 0 90 18 60
        E 0 90 31 60
        E 60 80 60 00
        E 0 80 63 00
        E 0 80 54 00
        E 0 80 57 00
        E 0 80 4b 00
        E 0 80 6f 00
        E 0 80 3f 00
        E 0 80 18 00
        E 0 80 31 00
        E 180 90 63 60
        E 0 90 57 60
        E 0 90 6f 60
        E 0 90 31 60
        E 60 80 63 00
        E 0 80 57 00
        E 0 80 6f 00
        E 0 80 31 00
        E 180 90 61 60
        E 0 90 63 60
        E 0 90 78 60
        E 0 90 79 60
        E 0 90 7a 60
        E 0 90 7b 60
        E 0 90 7c 60
        E 0 90 55 60
        E 0 90 57 60
        E 0 90 49 60
        E 0 90 4b 60
        E 0 90 6f 60
        E 0 90 3d 60
        E 0 90 3f 60
        E 0 90 1a 60
        E 0 90 31 60
        E 60 80 61 00
        E 0 80 63 00
        E 0 80 55 00
        E 0 80 57 00
        E 0 80 49 00
        E 0 80 4b 00
        E 0 80 6f 00
        E 0 80 3d 00
        E 0 80 3f 00
        E 0 80 1a 00
        E 0 80 31 00
        E 180 90 63 60
        E 0 90 57 60
        E 0 90 6f 60
        E 0 90 31 60
        E 60 80 63 00
        E 0 80 57 00
        E 0 80 6f 00
        E 0 80 31 00
        E 180 90 60 60
        E 0 90 63 60
        E 0 90 54 60
        E 0 90 57 60
        E 0 90 4b 60
        E 0 90 6f 60
        E 0 90 3f 60
        E 0 90 18 60
        E 0 90 31 60
        E 60 80 60 00
        E 0 80 63 00
        E 0 80 54 00
        E 0 80 57 00
        E 0 80 4b 00
        E 0 80 6f 00
        E 0 80 3f 00
        E 0 80 18 00
        E 0 80 31 00
        E 180 90 60 60
        E 0 90 63 60
        E 0 90 54 60
        E 0 90 57 60
        E 0 90 6f 60
        E 0 90 18 60
        E 0 90 31 60
        E 60 80 60 00
        E 0 80 63 00
        E 0 80 54 00
        E 0 80 57 00
        E 0 80 6f 00
        E 0 80 18 00
        E 0 80 31 00
        E 180 80 78 00
        E 0 80 79 00
        E 0 80 7a 00
        E 0 80 7b 00
        E 0 80 7c 00
        E 0 90 61 60
        E 0 90 63 60
        E 0 90 55 60
        E 0 90 57 60
        E 0 90 49 60
        E 0 90 4b 60
        E 0 90 6f 60
        E 0 90 3d 60
        E 0 90 3f 60
        E 0 90 1a 60
        E 0 90 31 60
        E 60 80 61 00
        E 0 80 63 00
        E 0 80 55 00
        E 0 80 57 00
        E 0 80 49 00
        E 0 80 4b 00
        E 0 80 6f 00
        E 0 80 3d 00
        E 0 80 3f 00
        E 0 80 1a 00
        E 0 80 31 00
        E 180 90 63 60
        E 0 90 57 60
        E 0 90 6f 60
        E 0 90 31 60
        E 60 80 63 00
        E 0 80 57 00
        E 0 80 6f 00
        E 0 80 31 00
        E 180 90 60 60
        E 0 90 63 60
        E 0 90 54 60
        E 0 90 57 60
        E 0 90 4b 60
        E 0 90 6f 60
        E 0 90 3f 60
        E 0 90 18 60
        E 0 90 31 60
        E 60 80 60 00
        E 0 80 63 00
        E 0 80 54 00
        E 0 80 57 00
        E 0 80 4b 00
        E 0 80 6f 00
        E 0 80 3f 00
        E 0 80 18 00
        E 0 80 31 00
        E 180 90 63 60
        E 0 90 57 60
        E 0 90 6f 60
        E 0 90 31 60
        E 60 80 63 00
        E 0 80 57 00
        E 0 80 6f 00
        E 0 80 31 00
        E 180 90 61 60
        E 0 90 63 60
        E 0 90 55 60
        E 0 90 57 60
        E 0 90 49 60
        E 0 90 4b 60
        E 0 90 6f 60
        E 0 90 3d 60
        E 0 90 3f 60
        E 0 90 1a 60
        E 0 90 31 60
        E 60 80 61 00
        E 0 80 63 00
        E 0 80 55 00
        E 0 80 57 00
        E 0 80 49 00
        E 0 80 4b 00
        E 0 80 6f 00
        E 0 80 3d 00
        E 0 80 3f 00
        E 0 80 1a 00
        E 0 80 31 00
        E 180 90 63 60
        E 0 90 57 60
        E 0 90 6f 60
        E 0 90 31 60
        E 60 80 63 00
        E 0 80 57 00
        E 0 80 6f 00
        E 0 80 31 00
        E 180 90 60 60
        E 0 90 63 60
        E 0 90 54 60
        E 0 90 57 60
        E 0 90 4b 60
        E 0 90 6f 60
        E 0 90 3f 60
        E 0 90 18 60
        E 0 90 31 60
        E 60 80 60 00
        E 0 80 63 00
        E 0 80 54 00
        E 0 80 57 00
        E 0 80 4b 00
        E 0 80 6f 00
        E 0 80 3f 00
        E 0 80 18 00
        E 0 80 31 00
        E 180 90 60 60
        E 0 90 63 60
        E 0 90 54 60
        E 0 90 57 60
        E 0 90 6f 60
        E 0 90 18 60
        E 0 90 31 60
        E 60 80 60 00
        E 0 80 63 00
        E 0 80 54 00
        E 0 80 57 00
        E 0 80 6f 00
        E 0 80 18 00
        E 0 80 31 00
        E 180 90 61 60
        E 0 90 63 60
        E 0 90 55 60
        E 0 90 57 60
        E 0 90 49 60
        E 0 90 4b 60
        E 0 90 6f 60
        E 0 90 3d 60
        E 0 90 3f 60
        E 0 90 1a 60
        E 0 90 31 60
        E 60 80 61 00
        E 0 80 63 00
        E 0 80 55 00
        E 0 80 57 00
        E 0 80 49 00
        E 0 80 4b 00
        E 0 80 6f 00
        E 0 80 3d 00
        E 0 80 3f 00
        E 0 80 1a 00
        E 0 80 31 00
        E 180 90 63 60
        E 0 90 57 60
        E 0 90 6f 60
        E 0 90 31 60
        E 60 80 63 00
        E 0 80 57 00
        E 0 80 6f 00
        E 0 80 31 00
        E 180 90 60 60
        E 0 90 63 60
        E 0 90 54 60
        E 0 90 57 60
        E 0 90 4b 60
        E 0 90 6f 60
        E 0 90 3f 60
        E 0 90 18 60
        E 0 90 31 60
        E 60 80 60 00
        E 0 80 63 00
        E 0 80 54 00
        E 0 80 57 00
        E 0 80 4b 00
        E 0 80 6f 00
        E 0 80 3f 00
        E 0 80 18 00
        E 0 80 31 00
        E 180 90 63 60
        E 0 90 57 60
        E 0 90 6f 60
        E 0 90 31 60
        E 60 80 63 00
        E 0 80 57 00
        E 0 80 6f 00
        E 0 80 31 00
        E 180 90 61 60
        E 0 90 63 60
        E 0 90 55 60
        E 0 90 57 60
        E 0 90 49 60
        E 0 90 4b 60
        E 0 90 6f 60
        E 0 90 3d 60
        E 0 90 3f 60
        E 0 90 1a 60
        E 0 90 31 60
        E 60 80 61 00
        E 0 80 63 00
        E 0 80 55 00
        E 0 80 57 00
        E 0 80 49 00
        E 0 80 4b 00
        E 0 80 6f 00
        E 0 80 3d 00
        E 0 80 3f 00
        E 0 80 1a 00
        E 0 80 31 00
        E 180 90 63 60
        E 0 90 57 60
        E 0 90 6f 60
        E 0 90 31 60
        E 60 80 63 00
        E 0 80 57 00
        E 0 80 6f 00
        E 0 80 31 00
        E 180 90 60 60
        E 0 90 63 60
        E 0 90 54 60
        E 0 90 57 60
        E 0 90 4b 60
        E 0 90 6f 60
        E 0 90 3f 60
        E 0 90 18 60
        E 0 90 31 60
        E 60 80 60 00
        E 0 80 63 00
        E 0 80 54 00
        E 0 80 57 00
        E 0 80 4b 00
        E 0 80 6f 00
        E 0 80 3f 00
        E 0 80 18 00
        E 0 80 31 00
        E 180 90 60 60
        E 0 90 63 60
        E 0 90 54 60
        E 0 90 57 60
        E 0 90 6f 60
        E 0 90 18 60
        E 0 90 31 60
        E 60 80 60 00
        E 0 80 63 00
        E 0 80 54 00
        E 0 80 57 00
        E 0 80 6f 00
        E 0 80 18 00
        E 0 80 31 00
        E 180 90 61 60
        E 0 90 63 60
        E 0 90 55 60
        E 0 90 57 60
        E 0 90 49 60
        E 0 90 4b 60
        E 0 90 6f 60
        E 0 90 3d 60
        E 0 90 3f 60
        E 0 90 1a 60
        E 0 90 31 60
        E 60 80 61 00
        E 0 80 63 00
        E 0 80 55 00
        E 0 80 57 00
        E 0 80 49 00
        E 0 80 4b 00
        E 0 80 6f 00
        E 0 80 3d 00
        E 0 80 3f 00
        E 0 80 1a 00
        E 0 80 31 00
        E 180 90 63 60
        E 0 90 57 60
        E 0 90 6f 60
        E 0 90 31 60
        E 60 80 63 00
        E 0 80 57 00
        E 0 80 6f 00
        E 0 80 31 00
        E 180 90 60 60
        E 0 90 63 60
        E 0 90 54 60
        E 0 90 57 60
        E 0 90 4b 60
        E 0 90 6f 60
        E 0 90 3f 60
        E 0 90 18 60
        E 0 90 31 60
        E 60 80 60 00
        E 0 80 63 00
        E 0 80 54 00
        E 0 80 57 00
        E 0 80 4b 00
        E 0 80 6f 00
        E 0 80 3f 00
        E 0 80 18 00
        E 0 80 31 00
        E 180 90 63 60
        E 0 90 57 60
        E 0 90 6f 60
        E 0 90 31 60
        E 60 80 63 00
        E 0 80 57 00
        E 0 80 6f 00
        E 0 80 31 00
        E 180 90 61 60
        E 0 90 63 60
        E 0 90 55 60
        E 0 90 57 60
        E 0 90 49 60
        E 0 90 4b 60
        E 0 90 6f 60
        E 0 90 3d 60
        E 0 90 3f 60
        E 0 90 1a 60
        E 0 90 31 60
        E 60 80 61 00
        E 0 80 63 00
        E 0 80 55 00
        E 0 80 57 00
        E 0 80 49 00
        E 0 80 4b 00
        E 0 80 6f 00
        E 0 80 3d 00
        E 0 80 3f 00
        E 0 80 1a 00
        E 0 80 31 00
        E 180 90 63 60
        E 0 90 57 60
        E 0 90 6f 60
        E 0 90 31 60
        E 60 80 63 00
        E 0 80 57 00
        E 0 80 6f 00
        E 0 80 31 00
        E 180 90 60 60
        E 0 90 63 60
        E 0 90 54 60
        E 0 90 57 60
        E 0 90 4b 60
        E 0 90 6f 60
        E 0 90 3f 60
        E 0 90 18 60
        E 0 90 31 60
        E 60 80 60 00
        E 0 80 63 00
        E 0 80 54 00
        E 0 80 57 00
        E 0 80 4b 00
        E 0 80 6f 00
        E 0 80 3f 00
        E 0 80 18 00
        E 0 80 31 00
        E 180 90 60 60
        E 0 90 63 60
        E 0 90 54 60
        E 0 90 57 60
        E 0 90 6f 60
        E 0 90 18 60
        E 0 90 31 60
        E 60 80 60 00
        E 0 80 63 00
        E 0 80 54 00
        E 0 80 57 00
        E 0 80 6f 00
        E 0 80 18 00
        E 0 80 31 00
        E 180 90 61 60
        E 0 90 63 60
        E 0 90 55 60
        E 0 90 57 60
        E 0 90 49 60
        E 0 90 4b 60
        E 0 90 6f 60
        E 0 90 3d 60
        E 0 90 3f 60
        E 0 90 1a 60
        E 0 90 31 60
        E 60 80 61 00
        E 0 80 63 00
        E 0 80 55 00
        E 0 80 57 00
        E 0 80 49 00
        E 0 80 4b 00
        E 0 80 6f 00
        E 0 80 3d 00
        E 0 80 3f 00
        E 0 80 1a 00
        E 0 80 31 00
        E 180 90 63 60
        E 0 90 57 60
        E 0 90 6f 60
        E 0 90 31 60
        E 60 80 63 00
        E 0 80 57 00
        E 0 80 6f 00
        E 0 80 31 00
        E 180 90 60 60
        E 0 90 63 60
        E 0 90 54 60
        E 0 90 57 60
        E 0 90 4b 60
        E 0 90 6f 60
        E 0 90 3f 60
        E 0 90 18 60
        E 0 90 31 60
        E 60 80 60 00
        E 0 80 63 00
        E 0 80 54 00
        E 0 80 57 00
        E 0 80 4b 00
        E 0 80 6f 00
        E 0 80 3f 00
        E 0 80 18 00
        E 0 80 31 00
        E 180 90 63 60
        E 0 90 57 60
        E 0 90 6f 60
        E 0 90 31 60
        E 60 80 63 00
        E 0 80 57 00
        E 0 80 6f 00
        E 0 80 31 00
        E 180 90 61 60
        E 0 90 63 60
        E 0 90 55 60
        E 0 90 57 60
        E 0 90 49 60
        E 0 90 4b 60
        E 0 90 6f 60
        E 0 90 3d 60
        E 0 90 3f 60
        E 0 90 1a 60
        E 0 90 31 60
        E 60 80 61 00
        E 0 80 63 00
        E 0 80 55 00
        E 0 80 57 00
        E 0 80 49 00
        E 0 80 4b 00
        E 0 80 6f 00
        E 0 80 3d 00
        E 0 80 3f 00
        E 0 80 1a 00
        E 0 80 31 00
        E 180 90 63 60
        E 0 90 57 60
        E 0 90 6f 60
        E 0 90 31 60
        E 60 80 63 00
        E 0 80 57 00
        E 0 80 6f 00
        E 0 80 31 00
        E 180 90 60 60
        E 0 90 63 60
        E 0 90 54 60
        E 0 90 57 60
        E 0 90 4b 60
        E 0 90 6f 60
        E 0 90 3f 60
        E 0 90 18 60
        E 0 90 31 60
        E 60 80 60 00
        E 0 80 63 00
        E 0 80 54 00
        E 0 80 57 00
        E 0 80 4b 00
        E 0 80 6f 00
        E 0 80 3f 00
        E 0 80 18 00
        E 0 80 31 00
        E 180 90 60 60
        E 0 90 63 60
        E 0 90 54 60
        E 0 90 57 60
        E 0 90 6f 60
        E 0 90 18 60
        E 0 90 31 60
        E 60 80 60 00
        E 0 80 63 00
        E 0 80 54 00
        E 0 80 57 00
        E 0 80 6f 00
        E 0 80 18 00
        E 0 80 31 00
        E 180 90 61 60
        E 0 90 63 60
        E 0 90 55 60
        E 0 90 57 60
        E 0 90 49 60
        E 0 90 4b 60
        E 0 90 6f 60
        E 0 90 3d 60
        E 0 90 3f 60
        E 0 90 1a 60
        E 0 90 31 60
        E 60 80 61 00
        E 0 80 63 00
        E 0 80 55 00
        E 0 80 57 00
        E 0 80 49 00
        E 0 80 4b 00
        E 0 80 6f 00
        E 0 80 3d 00
        E 0 80 3f 00
        E 0 80 1a 00
        E 0 80 31 00
        E 180 90 63 60
        E 0 90 57 60
        E 0 90 6f 60
        E 0 90 31 60
        E 60 80 63 00
        E 0 80 57 00
        E 0 80 6f 00
        E 0 80 31 00
        E 180 90 60 60
        E 0 90 63 60
        E 0 90 54 60
        E 0 90 57 60
        E 0 90 4b 60
        E 0 90 6f 60
        E 0 90 3f 60
        E 0 90 18 60
        E 0 90 31 60
        E 60 80 60 00
        E 0 80 63 00
        E 0 80 54 00
        E 0 80 57 00
        E 0 80 4b 00
        E 0 80 6f 00
        E 0 80 3f 00
        E 0 80 18 00
        E 0 80 31 00
        E 60 90 74 27
        E 120 90 63 60
        E 0 90 57 60
        E 0 90 6f 60
        E 0 90 31 60
        E 60 80 63 00
        E 0 80 57 00
        E 0 80 6f 00
        E 0 80 31 00
        E 180 90 61 60
        E 0 90 63 60
        E 0 90 55 60
        E 0 90 57 60
        E 0 90 49 60
        E 0 90 4b 60
        E 0 90 6f 60
        E 0 90 3d 60
        E 0 90 3f 60
        E 0 90 1a 60
        E 0 90 31 60
        E 60 80 61 00
        E 0 80 63 00
        E 0 80 55 00
        E 0 80 57 00
        E 0 80 49 00
        E 0 80 4b 00
        E 0 80 6f 00
        E 0 80 3d 00
        E 0 80 3f 00
        E 0 80 1a 00
        E 0 80 31 00
        E 180 90 63 60
        E 0 90 57 60
        E 0 90 6f 60
        E 0 90 31 60
        E 60 80 63 00
        E 0 80 57 00
        E 0 80 6f 00
        E 0 80 31 00
        E 180 90 60 60
        E 0 90 63 60
        E 0 90 54 60
        E 0 90 57 60
        E 0 90 4b 60
        E 0 90 6f 60
        E 0 90 3f 60
        E 0 90 18 60
        E 0 90 31 60
        E 60 80 60 00
        E 0 80 63 00
        E 0 80 54 00
        E 0 80 57 00
        E 0 80 4b 00
        E 0 80 6f 00
        E 0 80 3f 00
        E 0 80 18 00
        E 0 80 31 00
        E 180 90 60 60
        E 0 90 63 60
        E 0 90 54 60
        E 0 90 57 60
        E 0 90 6f 60
        E 0 90 18 60
        E 0 90 31 60
        E 60 80 60 00
        E 0 80 63 00
        E 0 80 54 00
        E 0 80 57 00
        E 0 80 6f 00
        E 0 80 18 00
        E 0 80 31 00
        E 180 90 61 60
        E 0 90 63 60
        E 0 90 55 60
        E 0 90 57 60
        E 0 90 49 60
        E 0 90 4b 60
        E 0 90 6f 60
        E 0 90 3d 60
        E 0 90 3f 60
        E 0 90 1a 60
        E 0 90 31 60
        E 60 80 61 00
        E 0 80 63 00
        E 0 80 55 00
        E 0 80 57 00
        E 0 80 49 00
        E 0 80 4b 00
        E 0 80 6f 00
        E 0 80 3d 00
        E 0 80 3f 00
        E 0 80 1a 00
        E 0 80 31 00
        E 180 90 63 60
        E 0 90 57 60
        E 0 90 6f 60
        E 0 90 31 60
        E 60 80 63 00
        E 0 80 57 00
        E 0 80 6f 00
        E 0 80 31 00
        E 180 90 60 60
        E 0 90 63 60
        E 0 90 54 60
        E 0 90 57 60
        E 0 90 4b 60
        E 0 90 6f 60
        E 0 90 3f 60
        E 0 90 18 60
        E 0 90 31 60
        E 60 80 60 00
        E 0 80 63 00
        E 0 80 54 00
        E 0 80 57 00
        E 0 80 4b 00
        E 0 80 6f 00
        E 0 80 3f 00
        E 0 80 18 00
        E 0 80 31 00
        E 180 90 63 60
        E 0 90 57 60
        E 0 90 6f 60
        E 0 90 31 60
        E 60 80 63 00
        E 0 80 57 00
        E 0 80 6f 00
        E 0 80 31 00
        E 180 90 61 60
        E 0 90 63 60
        E 0 90 55 60
        E 0 90 57 60
        E 0 90 49 60
        E 0 90 4b 60
        E 0 90 6f 60
        E 0 90 3d 60
        E 0 90 3f 60
        E 0 90 1a 60
        E 0 90 31 60
        E 60 80 61 00
        E 0 80 63 00
        E 0 80 55 00
        E 0 80 57 00
        E 0 80 49 00
        E 0 80 4b 00
        E 0 80 6f 00
        E 0 80 3d 00
        E 0 80 3f 00
        E 0 80 1a 00
        E 0 80 31 00
        E 180 90 63 60
        E 0 90 57 60
        E 0 90 6f 60
        E 0 90 31 60
        E 60 80 63 00
        E 0 80 57 00
        E 0 80 6f 00
        E 0 80 31 00
        E 180 90 60 60
        E 0 90 63 60
        E 0 90 54 60
        E 0 90 57 60
        E 0 90 4b 60
        E 0 90 6f 60
        E 0 90 3f 60
        E 0 90 18 60
        E 0 90 31 60
        E 60 80 60 00
        E 0 80 63 00
        E 0 80 54 00
        E 0 80 57 00
        E 0 80 4b 00
        E 0 80 6f 00
        E 0 80 3f 00
        E 0 80 18 00
        E 0 80 31 00
        E 180 90 60 60
        E 0 90 63 60
        E 0 90 54 60
        E 0 90 57 60
        E 0 90 6f 60
        E 0 90 18 60
        E 0 90 31 60
        E 60 80 60 00
        E 0 80 63 00
        E 0 80 54 00
        E 0 80 57 00
        E 0 80 6f 00
        E 0 80 18 00
        E 0 80 31 00
        E 180 90 61 60
        E 0 90 63 60
        E 0 90 55 60
        E 0 90 57 60
        E 0 90 49 60
        E 0 90 4b 60
        E 0 90 6f 60
        E 0 90 3d 60
        E 0 90 3f 60
        E 0 90 1a 60
        E 0 90 31 60
        E 60 80 61 00
        E 0 80 63 00
        E 0 80 55 00
        E 0 80 57 00
        E 0 80 49 00
        E 0 80 4b 00
        E 0 80 6f 00
        E 0 80 3d 00
        E 0 80 3f 00
        E 0 80 1a 00
        E 0 80 31 00
        E 180 90 63 60
        E 0 90 57 60
        E 0 90 6f 60
        E 0 90 31 60
        E 60 80 63 00
        E 0 80 57 00
        E 0 80 6f 00
        E 0 80 31 00
        E 180 90 60 60
        E 0 90 63 60
        E 0 90 54 60
        E 0 90 57 60
        E 0 90 4b 60
        E 0 90 6f 60
        E 0 90 3f 60
        E 0 90 18 60
        E 0 90 31 60
        E 60 80 60 00
        E 0 80 63 00
        E 0 80 54 00
        E 0 80 57 00
        E 0 80 4b 00
        E 0 80 6f 00
        E 0 80 3f 00
        E 0 80 18 00
        E 0 80 31 00
        E 180 90 63 60
        E 0 90 57 60
        E 0 90 6f 60
        E 0 90 31 60
        E 60 80 63 00
        E 0 80 57 00
        E 0 80 6f 00
        E 0 80 31 00
        E 60 80 74 00
        E 120 90 61 60
        E 0 90 63 60
        E 0 90 55 60
        E 0 90 57 60
        E 0 90 49 60
        E 0 90 4b 60
        E 0 90 6f 60
        E 0 90 3d 60
        E 0 90 3f 60
        E 0 90 1a 60
        E 0 90 31 60
        E 60 80 61 00
        E 0 80 63 00
        E 0 80 55 00
        E 0 80 57 00
        E 0 80 49 00
        E 0 80 4b 00
        E 0 80 6f 00
        E 0 80 3d 00
        E 0 80 3f 00
        E 0 80 1a 00
        E 0 80 31 00
        E 180 90 63 60
        E 0 90 57 60
        E 0 90 6f 60
        E 0 90 31 60
        E 60 80 63 00
        E 0 80 57 00
        E 0 80 6f 00
        E 0 80 31 00
        E 180 90 60 60
        E 0 90 63 60
        E 0 90 54 60
        E 0 90 57 60
        E 0 90 4b 60
        E 0 90 6f 60
        E 0 90 3f 60
        E 0 90 18 60
        E 0 90 31 60
        E 60 80 60 00
        E 0 80 63 00
        E 0 80 54 00
        E 0 80 57 00
        E 0 80 4b 00
        E 0 80 6f 00
        E 0 80 3f 00
        E 0 80 18 00
        E 0 80 31 00
        E 180 90 60 60
        E 0 90 63 60
        E 0 90 54 60
        E 0 90 57 60
        E 0 90 6f 60
        E 0 90 18 60
        E 0 90 31 60
        E 60 80 60 00
        E 0 80 63 00
        E 0 80 54 00
        E 0 80 57 00
        E 0 80 6f 00
        E 0 80 18 00
        E 0 80 31 00
        E 180 90 61 60
        E 0 90 63 60
        E 0 90 55 60
        E 0 90 57 60
        E 0 90 49 60
        E 0 90 4b 60
        E 0 90 6f 60
        E 0 90 3d 60
        E 0 90 3f 60
        E 0 90 1a 60
        E 0 90 31 60
        E 60 80 61 00
        E 0 80 63 00
        E 0 80 55 00
        E 0 80 57 00
        E 0 80 49 00
        E 0 80 4b 00
        E 0 80 6f 00
        E 0 80 3d 00
        E 0 80 3f 00
        E 0 80 1a 00
        E 0 80 31 00
        E 180 90 63 60
        E 0 90 57 60
        E 0 90 6f 60
        E 0 90 31 60
        E 60 80 63 00
        E 0 80 57 00
        E 0 80 6f 00
        E 0 80 31 00
        E 180 90 60 60
        E 0 90 63 60
        E 0 90 54 60
        E 0 90 57 60
        E 0 90 4b 60
        E 0 90 6f 60
        E 0 90 3f 60
        E 0 90 18 60
        E 0 90 31 60
        E 60 80 60 00
        E 0 80 63 00
        E 0 80 54 00
        E 0 80 57 00
        E 0 80 4b 00
        E 0 80 6f 00
        E 0 80 3f 00
        E 0 80 18 00
        E 0 80 31 00
        E 180 90 63 60
        E 0 90 57 60
        E 0 90 6f 60
        E 0 90 31 60
        E 60 80 63 00
        E 0 80 57 00
        E 0 80 6f 00
        E 0 80 31 00
        E 180 90 61 60
        E 0 90 63 60
        E 0 90 55 60
        E 0 90 57 60
        E 0 90 49 60
        E 0 90 4b 60
        E 0 90 6f 60
        E 0 90 3d 60
        E 0 90 3f 60
        E 0 90 1a 60
        E 0 90 31 60
        E 60 80 61 00
        E 0 80 63 00
        E 0 80 55 00
        E 0 80 57 00
        E 0 80 49 00
        E 0 80 4b 00
        E 0 80 6f 00
        E 0 80 3d 00
        E 0 80 3f 00
        E 0 80 1a 00
        E 0 80 31 00
        E 180 90 63 60
        E 0 90 57 60
        E 0 90 6f 60
        E 0 90 31 60
        E 60 80 63 00
        E 0 80 57 00
        E 0 80 6f 00
        E 0 80 31 00
        E 180 90 60 60
        E 0 90 63 60
        E 0 90 78 60
        E 0 90 79 60
        E 0 90 7a 60
        E 0 90 7b 60
        E 0 90 7c 60
        E 0 90 54 60
        E 0 90 57 60
        E 0 90 4b 60
        E 0 90 6f 60
        E 0 90 3f 60
        E 0 90 18 60
        E 0 90 31 60
        E 60 80 60 00
        E 0 80 63 00
        E 0 80 54 00
        E 0 80 57 00
        E 0 80 4b 00
        E 0 80 6f 00
        E 0 80 3f 00
        E 0 80 18 00
        E 0 80 31 00
        E 180 90 60 60
        E 0 90 63 60
        E 0 90 54 60
        E 0 90 57 60
        E 0 90 6f 60
        E 0 90 18 60
        E 0 90 31 60
        E 60 80 60 00
        E 0 80 63 00
        E 0 80 54 00
        E 0 80 57 00
        E 0 80 6f 00
        E 0 80 18 00
        E 0 80 31 00
        E 180 90 61 60
        E 0 90 64 60
        E 0 90 55 60
        E 0 90 58 60
        E 0 90 49 60
        E 0 90 4c 60
        E 0 90 70 60
        E 0 90 3d 60
        E 0 90 40 60
        E 0 90 1a 60
        E 0 90 33 60
        E 60 80 61 00
        E 0 80 64 00
        E 0 80 55 00
        E 0 80 58 00
        E 0 80 49 00
        E 0 80 4c 00
        E 0 80 70 00
        E 0 80 3d 00
        E 0 80 40 00
        E 0 80 1a 00
        E 0 80 33 00
        E 180 90 60 60
        E 0 90 63 60
        E 0 90 54 60
        E 0 90 57 60
        E 0 90 6f 60
        E 0 90 18 60
        E 0 90 31 60
        E 60 80 60 00
        E 0 80 63 00
        E 0 80 54 00
        E 0 80 57 00
        E 0 80 6f 00
        E 0 80 18 00
        E 0 80 31 00
        E 180 80 78 00
        E 0 80 79 00
        E 0 80 7a 00
        E 0 80 7b 00
        E 0 80 7c 00
        E 0 90 60 60
        E 0 90 64 60
        E 0 90 54 60
        E 0 90 58 60
        E 0 90 48 60
        E 0 90 4c 60
        E 0 90 40 60
        E 0 90 18 60
        E 0 90 26 60
        E 60 80 60 00
        E 0 80 64 00
        E 0 80 54 00
        E 0 80 58 00
        E 0 80 48 00
        E 0 80 4c 00
        E 0 80 40 00
        E 0 80 18 00
        E 0 80 26 00
        E 180 90 62 60
        E 0 90 56 60
        E 0 90 1f 60
        E 60 80 62 00
        E 0 80 56 00
        E 0 80 1f 00
        E 180 90 61 60
        E 0 90 62 60
        E 0 90 55 60
        E 0 90 56 60
        E 0 90 49 60
        E 0 90 4a 60
        E 0 90 3d 60
        E 0 90 3e 60
        E 0 90 1a 60
        E 0 90 1f 60
        E 60 80 61 00
        E 0 80 62 00
        E 0 80 55 00
        E 0 80 56 00
        E 0 80 49 00
        E 0 80 4a 00
        E 0 80 3d 00
        E 0 80 3e 00
        E 0 80 1a 00
        E 0 80 1f 00
        E 180 90 62 60
        E 0 90 56 60
        E 0 90 1f 60
        E 60 80 62 00
        E 0 80 56 00
        E 0 80 1f 00
        E 180 90 60 60
        E 0 90 62 60
        E 0 90 54 60
        E 0 90 56 60
        E 0 90 48 60
        E 0 90 4a 60
        E 0 90 3e 60
        E 0 90 18 60
        E 0 90 1f 60
        E 60 80 60 00
        E 0 80 62 00
        E 0 80 54 00
        E 0 80 56 00
        E 0 80 48 00
        E 0 80 4a 00
        E 0 80 3e 00
        E 0 80 18 00
        E 0 80 1f 00
        E 180 90 62 60
        E 0 90 56 60
        E 0 90 1f 60
        E 60 80 62 00
        E 0 80 56 00
        E 0 80 1f 00
        E 180 90 61 60
        E 0 90 62 60
        E 0 90 55 60
        E 0 90 56 60
        E 0 90 49 60
        E 0 90 4a 60
        E 0 90 3d 60
        E 0 90 3e 60
        E 0 90 1a 60
        E 0 90 1f 60
        E 60 80 61 00
        E 0 80 62 00
        E 0 80 55 00
        E 0 80 56 00
        E 0 80 49 00
        E 0 80 4a 00
        E 0 80 3d 00
        E 0 80 3e 00
        E 0 80 1a 00
        E 0 80 1f 00
        E 180 90 62 60
        E 0 90 56 60
        E 0 90 1f 60
        E 60 80 62 00
        E 0 80 56 00
        E 0 80 1f 00
        E 180 90 60 60
        E 0 90 62 60
        E 0 90 54 60
        E 0 90 56 60
        E 0 90 48 60
        E 0 90 4a 60
        E 0 90 3e 60
        E 0 90 18 60
        E 0 90 1f 60
        E 60 80 60 00
        E 0 80 62 00
        E 0 80 54 00
        E 0 80 56 00
        E 0 80 48 00
        E 0 80 4a 00
        E 0 80 3e 00
        E 0 80 18 00
        E 0 80 1f 00
        E 180 90 62 60
        E 0 90 56 60
        E 0 90 1f 60
        E 60 80 62 00
        E 0 80 56 00
        E 0 80 1f 00
        E 180 90 61 60
        E 0 90 62 60
        E 0 90 55 60
        E 0 90 56 60
        E 0 90 49 60
        E 0 90 4a 60
        E 0 90 3d 60
        E 0 90 3e 60
        E 0 90 1a 60
        E 0 90 1f 60
        E 60 80 61 00
        E 0 80 62 00
        E 0 80 55 00
        E 0 80 56 00
        E 0 80 49 00
        E 0 80 4a 00
        E 0 80 3d 00
        E 0 80 3e 00
        E 0 80 1a 00
        E 0 80 1f 00
        E 180 90 62 60
        E 0 90 56 60
        E 0 90 1f 60
        E 60 80 62 00
        E 0 80 56 00
        E 0 80 1f 00
        E 180 90 60 60
        E 0 90 62 60
        E 0 90 54 60
        E 0 90 56 60
        E 0 90 48 60
        E 0 90 4a 60
        E 0 90 3e 60
        E 0 90 18 60
        E 0 90 1f 60
        E 60 80 60 00
        E 0 80 62 00
        E 0 80 54 00
        E 0 80 56 00
        E 0 80 48 00
        E 0 80 4a 00
        E 0 80 3e 00
        E 0 80 18 00
        E 0 80 1f 00
        E 180 90 62 60
        E 0 90 56 60
        E 0 90 1f 60
        E 60 80 62 00
        E 0 80 56 00
        E 0 80 1f 00
        E 180 90 61 60
        E 0 90 62 60
        E 0 90 55 60
        E 0 90 56 60
        E 0 90 49 60
        E 0 90 4a 60
        E 0 90 3d 60
        E 0 90 3e 60
        E 0 90 1a 60
        E 0 90 1f 60
        E 60 80 61 00
        E 0 80 62 00
        E 0 80 55 00
        E 0 80 56 00
        E 0 80 49 00
        E 0 80 4a 00
        E 0 80 3d 00
        E 0 80 3e 00
        E 0 80 1a 00
        E 0 80 1f 00
        E 180 90 62 60
        E 0 90 56 60
        E 0 90 1f 60
        E 60 80 62 00
        E 0 80 56 00
        E 0 80 1f 00
        E 180 90 60 60
        E 0 90 64 60
        E 0 90 54 60
        E 0 90 58 60
        E 0 90 48 60
        E 0 90 4c 60
        E 0 90 40 60
        E 0 90 18 60
        E 0 90 26 60
        E 60 80 60 00
        E 0 80 54 00
        E 0 80 48 00
        E 0 80 18 00
        E 1 80 64 00
        E 0 80 58 00
        E 0 80 4c 00
        E 0 80 40 00
        E 0 80 26 00
        E 180 90 62 60
        E 0 90 56 60
        E 0 90 1f 60
        E 60 80 62 00
        E 0 80 56 00
        E 0 80 1f 00
        E 180 90 61 60
        E 0 90 62 60
        E 0 90 55 60
        E 0 90 56 60
        E 0 90 49 60
        E 0 90 4a 60
        E 0 90 3d 60
        E 0 90 3e 60
        E 0 90 1a 60
        E 0 90 1f 60
        E 60 80 61 00
        E 0 80 62 00
        E 0 80 55 00
        E 0 80 56 00
        E 0 80 49 00
        E 0 80 4a 00
        E 0 80 3d 00
        E 0 80 3e 00
        E 0 80 1a 00
        E 0 80 1f 00
        E 180 90 62 60
        E 0 90 56 60
        E 0 90 1f 60
        E 60 80 62 00
        E 0 80 56 00
        E 0 80 1f 00
        E 180 90 60 60
        E 0 90 62 60
        E 0 90 54 60
        E 0 90 56 60
        E 0 90 48 60
        E 0 90 4a 60
        E 0 90 3e 60
        E 0 90 18 60
        E 0 90 1f 60
        E 60 80 60 00
        E 0 80 62 00
        E 0 80 54 00
        E 0 80 56 00
        E 0 80 48 00
        E 0 80 4a 00
        E 0 80 3e 00
        E 0 80 18 00
        E 0 80 1f 00
        E 180 90 62 60
        E 0 90 56 60
        E 0 90 1f 60
        E 60 80 62 00
        E 0 80 56 00
        E 0 80 1f 00
        E 180 90 61 60
        E 0 90 62 60
        E 0 90 55 60
        E 0 90 56 60
        E 0 90 49 60
        E 0 90 4a 60
        E 0 90 3d 60
        E 0 90 3e 60
        E 0 90 1a 60
        E 0 90 1f 60
        E 59 80 61 00
        E 0 80 55 00
        E 0 80 49 00
        E 0 80 3d 00
        E 0 80 1a 00
        E 1 80 62 00
        E 0 80 56 00
        E 0 80 4a 00
        E 0 80 3e 00
        E 0 80 1f 00
        E 180 90 62 60
        E 0 90 56 60
        E 0 90 1f 60
        E 60 80 62 00
        E 0 80 56 00
        E 0 80 1f 00
        E 179 90 60 60
        E 0 90 62 60
        E 0 90 54 60
        E 0 90 56 60
        E 0 90 48 60
        E 0 90 4a 60
        E 0 90 3e 60
        E 0 90 18 60
        E 0 90 1f 60
        E 60 80 60 00
        E 0 80 54 00
        E 0 80 48 00
        E 0 80 18 00
        E 1 80 62 00
        E 0 80 56 00
        E 0 80 4a 00
        E 0 80 3e 00
        E 0 80 1f 00
        E 180 90 62 60
        E 0 90 56 60
        E 0 90 1f 60
        E 60 80 62 00
        E 0 80 56 00
        E 0 80 1f 00
        E 180 90 61 60
        E 0 90 62 60
        E 0 90 55 60
        E 0 90 56 60
        E 0 90 49 60
        E 0 90 4a 60
        E 0 90 3d 60
        E 0 90 3e 60
        E 0 90 1a 60
        E 0 90 1f 60
        E 60 80 61 00
        E 0 80 62 00
        E 0 80 55 00
        E 0 80 56 00
        E 0 80 49 00
        E 0 80 4a 00
        E 0 80 3d 00
        E 0 80 3e 00
        E 0 80 1a 00
        E 0 80 1f 00
        E 180 90 62 60
        E 0 90 56 60
        E 0 90 1f 60
        E 60 80 62 00
        E 0 80 56 00
        E 0 80 1f 00
        E 180 90 60 60
        E 0 90 62 60
        E 0 90 54 60
        E 0 90 56 60
        E 0 90 48 60
        E 0 90 4a 60
        E 0 90 3e 60
        E 0 90 18 60
        E 0 90 1f 60
        E 60 80 60 00
        E 0 80 62 00
        E 0 80 54 00
        E 0 80 56 00
        E 0 80 48 00
        E 0 80 4a 00
        E 0 80 3e 00
        E 0 80 18 00
        E 0 80 1f 00
        E 179 90 74 60
        E 1 90 61 60
        E 0 90 55 60
        E 0 90 1b 60
        E 60 80 61 00
        E 0 80 55 00
        E 0 80 1b 00
        E 59 90 61 60
        E 0 90 1a 60
        E 60 80 61 00
        E 0 80 1a 00
        E 60 90 61 60
        E 0 90 55 60
        E 0 90 49 60
        E 0 90 3d 60
        E 0 90 1b 60
        E 60 80 61 00
        E 0 80 55 00
        E 0 80 49 00
        E 0 80 3d 00
        E 0 80 1b 00
        E 60 90 61 60
        E 0 90 1a 60
        E 60 80 61 00
        E 0 80 1a 00
        E 60 90 61 60
        E 0 90 55 60
        E 0 90 1b 60
        E 60 80 61 00
        E 0 80 55 00
        E 0 80 1b 00
        E 60 90 61 60
        E 0 90 1a 60
        E 60 80 61 00
        E 0 80 1a 00
        E 60 90 60 60
        E 0 90 64 60
        E 0 90 54 60
        E 0 90 58 60
        E 0 90 48 60
        E 0 90 4c 60
        E 0 90 40 60
        E 0 90 18 60
        E 0 90 26 60
        E 60 80 74 00
        E 0 80 60 00
        E 0 80 64 00
        E 0 80 54 00
        E 0 80 58 00
        E 0 80 48 00
        E 0 80 4c 00
        E 0 80 40 00
        E 0 80 18 00
        E 0 80 26 00
        E 180 90 63 60
        E 0 90 57 60
        E 0 90 2a 60
        E 60 80 63 00
        E 0 80 57 00
        E 0 80 2a 00
        E 180 90 61 60
        E 0 90 63 60
        E 0 90 55 60
        E 0 90 57 60
        E 0 90 49 60
        E 0 90 4b 60
        E 0 90 3d 60
        E 0 90 3f 60
        E 0 90 1a 60
        E 0 90 2a 60
        E 60 80 61 00
        E 0 80 63 00
        E 0 80 55 00
        E 0 80 57 00
        E 0 80 49 00
        E 0 80 4b 00
        E 0 80 3d 00
        E 0 80 3f 00
        E 0 80 1a 00
        E 0 80 2a 00
        E 180 90 63 60
        E 0 90 57 60
        E 0 90 2a 60
        E 60 80 63 00
        E 0 80 57 00
        E 0 80 2a 00
        E 60 90 61 60
        E 0 90 1a 60
        E 60 80 61 00
        E 0 80 1a 00
        E 60 90 60 60
        E 0 90 63 60
        E 0 90 54 60
        E 0 90 57 60
        E 0 90 48 60
        E 0 90 4b 60
        E 0 90 3f 60
        E 0 90 18 60
        E 0 90 2a 60
        E 60 80 60 00
        E 0 80 63 00
        E 0 80 54 00
        E 0 80 57 00
        E 0 80 48 00
        E 0 80 4b 00
        E 0 80 3f 00
        E 0 80 18 00
        E 0 80 2a 00
        E 60 90 61 60
        E 0 90 1a 60
        E 60 80 61 00
        E 0 80 1a 00
        E 60 90 60 60
        E 0 90 63 60
        E 0 90 54 60
        E 0 90 57 60
        E 0 90 18 60
        E 0 90 2a 60
        E 60 80 60 00
        E 0 80 63 00
        E 0 80 54 00
        E 0 80 57 00
        E 0 80 18 00
        E 0 80 2a 00
        E 180 90 61 60
        E 0 90 63 60
        E 0 90 55 60
        E 0 90 57 60
        E 0 90 49 60
        E 0 90 4b 60
        E 0 90 3d 60
        E 0 90 3f 60
        E 0 90 1a 60
        E 0 90 2a 60
        E 60 80 61 00
        E 0 80 63 00
        E 0 80 55 00
        E 0 80 57 00
        E 0 80 49 00
        E 0 80 4b 00
        E 0 80 3d 00
        E 0 80 3f 00
        E 0 80 1a 00
        E 0 80 2a 00
        E 180 90 60 60
        E 0 90 63 60
        E 0 90 54 60
        E 0 90 57 60
        E 0 90 18 60
        E 0 90 2a 60
        E 60 80 60 00
        E 0 80 63 00
        E 0 80 54 00
        E 0 80 57 00
        E 0 80 18 00
        E 0 80 2a 00
        E 180 90 60 60
        E 0 90 63 60
        E 0 90 54 60
        E 0 90 57 60
        E 0 90 48 60
        E 0 90 4b 60
        E 0 90 3f 60
        E 0 90 18 60
        E 0 90 2a 60
        E 60 80 60 00
        E 0 80 63 00
        E 0 80 54 00
        E 0 80 57 00
        E 0 80 48 00
        E 0 80 4b 00
        E 0 80 3f 00
        E 0 80 18 00
        E 0 80 2a 00
        E 180 90 63 60
        E 0 90 57 60
        E 0 90 2a 60
        E 60 80 63 00
        E 0 80 57 00
        E 0 80 2a 00
        E 180 90 61 60
        E 0 90 63 60
        E 0 90 55 60
        E 0 90 57 60
        E 0 90 49 60
        E 0 90 4b 60
        E 0 90 3d 60
        E 0 90 3f 60
        E 0 90 1a 60
        E 0 90 2a 60
        E 60 80 61 00
        E 0 80 63 00
        E 0 80 55 00
        E 0 80 57 00
        E 0 80 49 00
        E 0 80 4b 00
        E 0 80 3d 00
        E 0 80 3f 00
        E 0 80 1a 00
        E 0 80 2a 00
        E 180 90 63 60
        E 0 90 57 60
        E 0 90 2a 60
        E 60 80 63 00
        E 0 80 57 00
        E 0 80 2a 00
        E 60 90 61 60
        E 0 90 1a 60
        E 60 80 61 00
        E 0 80 1a 00
        E 60 90 60 60
        E 0 90 63 60
        E 0 90 78 60
        E 0 90 79 60
        E 0 90 7a 60
        E 0 90 7b 60
        E 0 90 7c 60
        E 0 90 54 60
        E 0 90 57 60
        E 0 90 48 60
        E 0 90 4b 60
        E 0 90 3f 60
        E 0 90 18 60
        E 0 90 2a 60
        E 60 80 60 00
        E 0 80 63 00
        E 0 80 54 00
        E 0 80 57 00
        E 0 80 48 00
        E 0 80 4b 00
        E 0 80 3f 00
        E 0 80 18 00
        E 0 80 2a 00
        E 60 90 61 60
        E 0 90 1a 60
        E 60 80 61 00
        E 0 80 1a 00
        E 60 90 60 60
        E 0 90 63 60
        E 0 90 54 60
        E 0 90 57 60
        E 0 90 18 60
        E 0 90 2a 60
        E 60 80 60 00
        E 0 80 63 00
        E 0 80 54 00
        E 0 80 57 00
        E 0 80 18 00
        E 0 80 2a 00
        E 180 90 61 60
        E 0 90 63 60
        E 0 90 55 60
        E 0 90 57 60
        E 0 90 49 60
        E 0 90 4b 60
        E 0 90 3d 60
        E 0 90 3f 60
        E 0 90 1a 60
        E 0 90 2a 60
        E 60 80 61 00
        E 0 80 63 00
        E 0 80 55 00
        E 0 80 57 00
        E 0 80 49 00
        E 0 80 4b 00
        E 0 80 3d 00
        E 0 80 3f 00
        E 0 80 1a 00
        E 0 80 2a 00
        E 180 90 60 60
        E 0 90 63 60
        E 0 90 54 60
        E 0 90 57 60
        E 0 90 18 60
        E 0 90 2a 60
        E 60 80 60 00
        E 0 80 63 00
        E 0 80 54 00
        E 0 80 57 00
        E 0 80 18 00
        E 0 80 2a 00
        E 180 80 78 00
        E 0 80 79 00
        E 0 80 7a 00
        E 0 80 7b 00
        E 0 80 7c 00
        E 0 90 60 60
        E 0 90 64 60
        E 0 90 54 60
        E 0 90 58 60
        E 0 90 48 60
        E 0 90 4c 60
        E 0 90 40 60
        E 0 90 18 60
        E 0 90 26 60
        E 60 80 60 00
        E 0 80 64 00
        E 0 80 54 00
        E 0 80 58 00
        E 0 80 48 00
        E 0 80 4c 00
        E 0 80 40 00
        E 0 80 18 00
        E 0 80 26 00
        E 180 90 63 60
        E 0 90 57 60
        E 0 90 2a 60
        E 60 80 63 00
        E 0 80 57 00
        E 0 80 2a 00
        E 180 90 61 60
        E 0 90 63 60
        E 0 90 55 60
        E 0 90 57 60
        E 0 90 49 60
        E 0 90 4b 60
        E 0 90 3d 60
        E 0 90 3f 60
        E 0 90 1a 60
        E 0 90 2a 60
        E 60 80 61 00
        E 0 80 63 00
        E 0 80 55 00
        E 0 80 57 00
        E 0 80 49 00
        E 0 80 4b 00
        E 0 80 3d 00
        E 0 80 3f 00
        E 0 80 1a 00
        E 0 80 2a 00
        E 180 90 63 60
        E 0 90 57 60
        E 0 90 2a 60
        E 60 80 63 00
        E 0 80 57 00
        E 0 80 2a 00
        E 60 90 61 60
        E 0 90 1a 60
        E 60 80 61 00
        E 0 80 1a 00
        E 60 90 60 60
        E 0 90 63 60
        E 0 90 54 60
        E 0 90 57 60
        E 0 90 48 60
        E 0 90 4b 60
        E 0 90 3f 60
        E 0 90 18 60
        E 0 90 2a 60
        E 60 80 60 00
        E 0 80 63 00
        E 0 80 54 00
        E 0 80 57 00
        E 0 80 48 00
        E 0 80 4b 00
        E 0 80 3f 00
        E 0 80 18 00
        E 0 80 2a 00
        E 60 90 61 60
        E 0 90 1a 60
        E 60 80 61 00
        E 0 80 1a 00
        E 60 90 60 60
        E 0 90 63 60
        E 0 90 54 60
        E 0 90 57 60
        E 0 90 18 60
        E 0 90 2a 60
        E 60 80 60 00
        E 0 80 63 00
        E 0 80 54 00
        E 0 80 57 00
        E 0 80 18 00
        E 0 80 2a 00
        E 180 90 61 60
        E 0 90 63 60
        E 0 90 55 60
        E 0 90 57 60
        E 0 90 49 60
        E 0 90 4b 60
        E 0 90 3d 60
        E 0 90 3f 60
        E 0 90 1a 60
        E 0 90 2a 60
        E 60 80 61 00
        E 0 80 63 00
        E 0 80 55 00
        E 0 80 57 00
        E 0 80 49 00
        E 0 80 4b 00
        E 0 80 3d 00
        E 0 80 3f 00
        E 0 80 1a 00
        E 0 80 2a 00
        E 180 90 60 60
        E 0 90 63 60
        E 0 90 54 60
        E 0 90 57 60
        E 0 90 18 60
        E 0 90 2a 60
        E 60 80 60 00
        E 0 80 63 00
        E 0 80 54 00
        E 0 80 57 00
        E 0 80 18 00
        E 0 80 2a 00
        E 180 90 60 60
        E 0 90 63 60
        E 0 90 54 60
        E 0 90 57 60
        E 0 90 48 60
        E 0 90 4b 60
        E 0 90 3f 60
        E 0 90 18 60
        E 0 90 2a 60
        E 60 80 60 00
        E 0 80 63 00
        E 0 80 54 00
        E 0 80 57 00
        E 0 80 48 00
        E 0 80 4b 00
        E 0 80 3f 00
        E 0 80 18 00
        E 0 80 2a 00
        E 180 90 63 60
        E 0 90 57 60
        E 0 90 2a 60
        E 60 80 63 00
        E 0 80 57 00
        E 0 80 2a 00
        E 180 90 61 60
        E 0 90 63 60
        E 0 90 55 60
        E 0 90 57 60
        E 0 90 49 60
        E 0 90 4b 60
        E 0 90 3d 60
        E 0 90 3f 60
        E 0 90 1a 60
        E 0 90 2a 60
        E 60 80 61 00
        E 0 80 63 00
        E 0 80 55 00
        E 0 80 57 00
        E 0 80 49 00
        E 0 80 4b 00
        E 0 80 3d 00
        E 0 80 3f 00
        E 0 80 1a 00
        E 0 80 2a 00
        E 180 90 63 60
        E 0 90 57 60
        E 0 90 2a 60
        E 60 80 63 00
        E 0 80 57 00
        E 0 80 2a 00
        E 60 90 61 60
        E 0 90 1a 60
        E 60 80 61 00
        E 0 80 1a 00
        E 60 90 60 60
        E 0 90 63 60
        E 0 90 54 60
        E 0 90 57 60
        E 0 90 48 60
        E 0 90 4b 60
        E 0 90 3f 60
        E 0 90 18 60
        E 0 90 2a 60
        E 60 80 60 00
        E 0 80 63 00
        E 0 80 54 00
        E 0 80 57 00
        E 0 80 48 00
        E 0 80 4b 00
        E 0 80 3f 00
        E 0 80 18 00
        E 0 80 2a 00
        E 60 90 61 60
        E 0 90 1a 60
        E 60 80 61 00
        E 0 80 1a 00
        E 60 90 60 60
        E 0 90 63 60
        E 0 90 54 60
        E 0 90 57 60
        E 0 90 18 60
        E 0 90 2a 60
        E 60 80 60 00
        E 0 80 63 00
        E 0 80 54 00
        E 0 80 57 00
        E 0 80 18 00
        E 0 80 2a 00
        E 180 90 61 60
        E 0 90 63 60
        E 0 90 55 60
        E 0 90 57 60
        E 0 90 49 60
        E 0 90 4b 60
        E 0 90 3d 60
        E 0 90 3f 60
        E 0 90 1a 60
        E 0 90 2a 60
        E 60 80 61 00
        E 0 80 63 00
        E 0 80 55 00
        E 0 80 57 00
        E 0 80 49 00
        E 0 80 4b 00
        E 0 80 3d 00
        E 0 80 3f 00
        E 0 80 1a 00
        E 0 80 2a 00
        E 180 90 60 60
        E 0 90 63 60
        E 0 90 54 60
        E 0 90 57 60
        E 0 90 18 60
        E 0 90 2a 60
        E 60 80 60 00
        E 0 80 63 00
        E 0 80 54 00
        E 0 80 57 00
        E 0 80 18 00
        E 0 80 2a 00
        E 180 90 60 60
        E 0 90 64 60
        E 0 90 54 60
        E 0 90 58 60
        E 0 90 48 60
        E 0 90 4c 60
        E 0 90 40 60
        E 0 90 18 60
        E 0 90 26 60
        E 60 80 60 00
        E 0 80 64 00
        E 0 80 54 00
        E 0 80 58 00
        E 0 80 48 00
        E 0 80 4c 00
        E 0 80 40 00
        E 0 80 18 00
        E 0 80 26 00
        E 180 90 63 60
        E 0 90 57 60
        E 0 90 2a 60
        E 60 80 63 00
        E 0 80 57 00
        E 0 80 2a 00
        E 180 90 61 60
        E 0 90 63 60
        E 0 90 55 60
        E 0 90 57 60
        E 0 90 49 60
        E 0 90 4b 60
        E 0 90 3d 60
        E 0 90 3f 60
        E 0 90 1a 60
        E 0 90 2a 60
        E 60 80 61 00
        E 0 80 63 00
        E 0 80 55 00
        E 0 80 57 00
        E 0 80 49 00
        E 0 80 4b 00
        E 0 80 3d 00
        E 0 80 3f 00
        E 0 80 1a 00
        E 0 80 2a 00
        E 180 90 63 60
        E 0 90 57 60
        E 0 90 2a 60
        E 60 80 63 00
        E 0 80 57 00
        E 0 80 2a 00
        E 60 90 61 60
        E 0 90 1a 60
        E 60 80 61 00
        E 0 80 1a 00
        E 60 90 60 60
        E 0 90 63 60
        E 0 90 54 60
        E 0 90 57 60
        E 0 90 48 60
        E 0 90 4b 60
        E 0 90 3f 60
        E 0 90 18 60
        E 0 90 2a 60
        E 60 80 60 00
        E 0 80 63 00
        E 0 80 54 00
        E 0 80 57 00
        E 0 80 48 00
        E 0 80 4b 00
        E 0 80 3f 00
        E 0 80 18 00
        E 0 80 2a 00
        E 60 90 61 60
        E 0 90 1a 60
        E 60 80 61 00
        E 0 80 1a 00
        E 60 90 60 60
        E 0 90 63 60
        E 0 90 54 60
        E 0 90 57 60
        E 0 90 18 60
        E 0 90 2a 60
        E 60 80 60 00
        E 0 80 63 00
        E 0 80 54 00
        E 0 80 57 00
        E 0 80 18 00
        E 0 80 2a 00
        E 180 90 61 60
        E 0 90 63 60
        E 0 90 55 60
        E 0 90 57 60
        E 0 90 49 60
        E 0 90 4b 60
        E 0 90 3d 60
        E 0 90 3f 60
        E 0 90 1a 60
        E 0 90 2a 60
        E 60 80 61 00
        E 0 80 63 00
        E 0 80 55 00
        E 0 80 57 00
        E 0 80 49 00
        E 0 80 4b 00
        E 0 80 3d 00
        E 0 80 3f 00
        E 0 80 1a 00
        E 0 80 2a 00
        E 180 90 60 60
        E 0 90 63 60
        E 0 90 54 60
        E 0 90 57 60
        E 0 90 18 60
        E 0 90 2a 60
        E 60 80 60 00
        E 0 80 63 00
        E 0 80 54 00
        E 0 80 57 00
        E 0 80 18 00
        E 0 80 2a 00
        E 180 90 60 60
        E 0 90 63 60
        E 0 90 54 60
        E 0 90 57 60
        E 0 90 48 60
        E 0 90 4b 60
        E 0 90 3f 60
        E 0 90 18 60
        E 0 90 2a 60
        E 60 80 60 00
        E 0 80 63 00
        E 0 80 54 00
        E 0 80 57 00
        E 0 80 48 00
        E 0 80 4b 00
        E 0 80 3f 00
        E 0 80 18 00
        E 0 80 2a 00
        E 180 90 63 60
        E 0 90 57 60
        E 0 90 2a 60
        E 60 80 63 00
        E 0 80 57 00
        E 0 80 2a 00
        E 180 90 61 60
        E 0 90 63 60
        E 0 90 55 60
        E 0 90 57 60
        E 0 90 49 60
        E 0 90 4b 60
        E 0 90 3d 60
        E 0 90 3f 60
        E 0 90 1a 60
        E 0 90 2a 60
        E 60 80 61 00
        E 0 80 63 00
        E 0 80 55 00
        E 0 80 57 00
        E 0 80 49 00
        E 0 80 4b 00
        E 0 80 3d 00
        E 0 80 3f 00
        E 0 80 1a 00
        E 0 80 2a 00
        E 180 90 63 60
        E 0 90 57 60
        E 0 90 2a 60
        E 60 80 63 00
        E 0 80 57 00
        E 0 80 2a 00
        E 60 90 61 60
        E 0 90 1a 60
        E 60 80 61 00
        E 0 80 1a 00
        E 60 90 60 60
        E 0 90 63 60
        E 0 90 54 60
        E 0 90 57 60
        E 0 90 48 60
        E 0 90 4b 60
        E 0 90 3f 60
        E 0 90 18 60
        E 0 90 2a 60
        E 60 80 60 00
        E 0 80 63 00
        E 0 80 54 00
        E 0 80 57 00
        E 0 80 48 00
        E 0 80 4b 00
        E 0 80 3f 00
        E 0 80 18 00
        E 0 80 2a 00
        E 60 90 61 60
        E 0 90 1a 60
        E 60 80 61 00
        E 0 80 1a 00
        E 60 90 60 60
        E 0 90 63 60
        E 0 90 54 60
        E 0 90 57 60
        E 0 90 18 60
        E 0 90 2a 60
        E 60 80 60 00
        E 0 80 63 00
        E 0 80 54 00
        E 0 80 57 00
        E 0 80 18 00
        E 0 80 2a 00
        E 180 90 61 60
        E 0 90 63 60
        E 0 90 55 60
        E 0 90 57 60
        E 0 90 49 60
        E 0 90 4b 60
        E 0 90 3d 60
        E 0 90 3f 60
        E 0 90 1a 60
        E 0 90 2a 60
        E 60 80 61 00
        E 0 80 63 00
        E 0 80 55 00
        E 0 80 57 00
        E 0 80 49 00
        E 0 80 4b 00
        E 0 80 3d 00
        E 0 80 3f 00
        E 0 80 1a 00
        E 0 80 2a 00
        E 180 90 60 60
        E 0 90 63 60
        E 0 90 74 60
        E 0 90 54 60
        E 0 90 57 60
        E 0 90 18 60
        E 0 90 2a 60
        E 60 80 60 00
        E 0 80 63 00
        E 0 80 54 00
        E 0 80 57 00
        E 0 80 18 00
        E 0 80 2a 00
        E 180 90 60 60
        E 0 90 64 60
        E 0 90 54 60
        E 0 90 58 60
        E 0 90 48 60
        E 0 90 4c 60
        E 0 90 40 60
        E 0 90 18 60
        E 0 90 26 60
        E 60 80 60 00
        E 0 80 64 00
        E 0 80 54 00
        E 0 80 58 00
        E 0 80 48 00
        E 0 80 4c 00
        E 0 80 40 00
        E 0 80 18 00
        E 0 80 26 00
        E 180 90 63 60
        E 0 90 57 60
        E 0 90 2a 60
        E 60 80 63 00
        E 0 80 57 00
        E 0 80 2a 00
        E 180 90 61 60
        E 0 90 63 60
        E 0 90 55 60
        E 0 90 57 60
        E 0 90 49 60
        E 0 90 4b 60
        E 0 90 3d 60
        E 0 90 3f 60
        E 0 90 1a 60
        E 0 90 2a 60
        E 60 80 61 00
        E 0 80 63 00
        E 0 80 55 00
        E 0 80 57 00
        E 0 80 49 00
        E 0 80 4b 00
        E 0 80 3d 00
        E 0 80 3f 00
        E 0 80 1a 00
        E 0 80 2a 00
        E 180 90 63 60
        E 0 90 57 60
        E 0 90 2a 60
        E 60 80 63 00
        E 0 80 57 00
        E 0 80 2a 00
        E 180 90 60 60
        E 0 90 63 60
        E 0 90 54 60
        E 0 90 57 60
        E 0 90 48 60
        E 0 90 4b 60
        E 0 90 3f 60
        E 0 90 18 60
        E 0 90 2a 60
        E 60 80 60 00
        E 0 80 63 00
        E 0 80 54 00
        E 0 80 57 00
        E 0 80 48 00
        E 0 80 4b 00
        E 0 80 3f 00
        E 0 80 18 00
        E 0 80 2a 00
        E 180 90 60 60
        E 0 90 63 60
        E 0 90 54 60
        E 0 90 57 60
        E 0 90 18 60
        E 0 90 2a 60
        E 60 80 60 00
        E 0 80 63 00
        E 0 80 54 00
        E 0 80 57 00
        E 0 80 18 00
        E 0 80 2a 00
        E 180 90 61 60
        E 0 90 63 60
        E 0 90 55 60
        E 0 90 57 60
        E 0 90 49 60
        E 0 90 4b 60
        E 0 90 3d 60
        E 0 90 3f 60
        E 0 90 1a 60
        E 0 90 2a 60
        E 60 80 61 00
        E 0 80 63 00
        E 0 80 55 00
        E 0 80 57 00
        E 0 80 49 00
        E 0 80 4b 00
        E 0 80 3d 00
        E 0 80 3f 00
        E 0 80 1a 00
        E 0 80 2a 00
        E 180 90 60 60
        E 0 90 63 60
        E 0 90 54 60
        E 0 90 57 60
        E 0 90 18 60
        E 0 90 2a 60
        E 60 80 60 00
        E 0 80 63 00
        E 0 80 54 00
        E 0 80 57 00
        E 0 80 18 00
        E 0 80 2a 00
        E 180 90 60 60
        E 0 90 63 60
        E 0 90 54 60
        E 0 90 57 60
        E 0 90 48 60
        E 0 90 4b 60
        E 0 90 3f 60
        E 0 90 18 60
        E 0 90 2a 60
        E 60 80 74 00
        E 0 80 60 00
        E 0 80 63 00
        E 0 80 54 00
        E 0 80 57 00
        E 0 80 48 00
        E 0 80 4b 00
        E 0 80 3f 00
        E 0 80 18 00
        E 0 80 2a 00
        E 180 90 60 60
        E 0 90 63 60
        E 0 90 54 60
        E 0 90 57 60
        E 0 90 18 60
        E 0 90 2a 60
        E 60 80 60 00
        E 0 80 63 00
        E 0 80 54 00
        E 0 80 57 00
        E 0 80 18 00
        E 0 80 2a 00
        E 180 90 61 60
        E 0 90 63 60
        E 0 90 55 60
        E 0 90 57 60
        E 0 90 49 60
        E 0 90 4b 60
        E 0 90 3d 60
        E 0 90 3f 60
        E 0 90 1a 60
        E 0 90 2a 60
        E 60 80 61 00
        E 0 80 63 00
        E 0 80 55 00
        E 0 80 57 00
        E 0 80 49 00
        E 0 80 4b 00
        E 0 80 3d 00
        E 0 80 3f 00
        E 0 80 1a 00
        E 0 80 2a 00
        E 180 90 63 60
        E 0 90 57 60
        E 0 90 2a 60
        E 60 80 63 00
        E 0 80 57 00
        E 0 80 2a 00
        E 180 90 60 60
        E 0 90 63 60
        E 0 90 78 60
        E 0 90 79 60
        E 0 90 7a 60
        E 0 90 7b 60
        E 0 90 7c 60
        E 0 90 54 60
        E 0 90 57 60
        E 0 90 48 60
        E 0 90 4b 60
        E 0 90 3f 60
        E 0 90 18 60
        E 0 90 2a 60
        E 60 80 60 00
        E 0 80 63 00
        E 0 80 54 00
        E 0 80 57 00
        E 0 80 48 00
        E 0 80 4b 00
        E 0 80 3f 00
        E 0 80 18 00
        E 0 80 2a 00
        E 180 90 60 60
        E 0 90 63 60
        E 0 90 54 60
        E 0 90 57 60
        E 0 90 18 60
        E 0 90 2a 60
        E 60 80 60 00
        E 0 80 63 00
        E 0 80 54 00
        E 0 80 57 00
        E 0 80 18 00
        E 0 80 2a 00
        E 180 90 61 60
        E 0 90 63 60
        E 0 90 55 60
        E 0 90 57 60
        E 0 90 49 60
        E 0 90 4b 60
        E 0 90 3d 60
        E 0 90 3f 60
        E 0 90 1a 60
        E 0 90 2a 60
        E 60 80 61 00
        E 0 80 63 00
        E 0 80 55 00
        E 0 80 57 00
        E 0 80 49 00
        E 0 80 4b 00
        E 0 80 3d 00
        E 0 80 3f 00
        E 0 80 1a 00
        E 0 80 2a 00
        E 180 90 60 60
        E 0 90 63 60
        E 0 90 54 60
        E 0 90 57 60
        E 0 90 18 60
        E 0 90 2a 60
        E 60 80 60 00
        E 0 80 63 00
        E 0 80 54 00
        E 0 80 57 00
        E 0 80 18 00
        E 0 80 2a 00
        E 180 80 78 00
        E 0 80 79 00
        E 0 80 7a 00
        E 0 80 7b 00
        E 0 80 7c 00
        E 0 90 60 60
        E 0 90 64 60
        E 0 90 54 60
        E 0 90 58 60
        E 0 90 48 60
        E 0 90 4c 60
        E 0 90 40 60
        E 0 90 18 60
        E 0 90 26 60
        E 60 80 60 00
        E 0 80 64 00
        E 0 80 54 00
        E 0 80 58 00
        E 0 80 48 00
        E 0 80 4c 00
        E 0 80 40 00
        E 0 80 18 00
        E 0 80 26 00
        E 180 90 62 60
        E 0 90 56 60
        E 0 90 1f 60
        E 60 80 62 00
        E 0 80 56 00
        E 0 80 1f 00
        E 180 90 61 60
        E 0 90 62 60
        E 0 90 55 60
        E 0 90 56 60
        E 0 90 49 60
        E 0 90 4a 60
        E 0 90 3d 60
        E 0 90 3e 60
        E 0 90 1a 60
        E 0 90 1f 60
        E 60 80 61 00
        E 0 80 62 00
        E 0 80 55 00
        E 0 80 56 00
        E 0 80 49 00
        E 0 80 4a 00
        E 0 80 3d 00
        E 0 80 3e 00
        E 0 80 1a 00
        E 0 80 1f 00
        E 180 90 62 60
        E 0 90 56 60
        E 0 90 1f 60
        E 60 80 62 00
        E 0 80 56 00
        E 0 80 1f 00
        E 180 90 60 60
        E 0 90 62 60
        E 0 90 54 60
        E 0 90 56 60
        E 0 90 48 60
        E 0 90 4a 60
        E 0 90 3e 60
        E 0 90 18 60
        E 0 90 1f 60
        E 60 80 60 00
        E 0 80 62 00
        E 0 80 54 00
        E 0 80 56 00
        E 0 80 48 00
        E 0 80 4a 00
        E 0 80 3e 00
        E 0 80 18 00
        E 0 80 1f 00
        E 180 90 60 60
        E 0 90 62 60
        E 0 90 54 60
        E 0 90 56 60
        E 0 90 18 60
        E 0 90 1f 60
        E 60 80 60 00
        E 0 80 62 00
        E 0 80 54 00
        E 0 80 56 00
        E 0 80 18 00
        E 0 80 1f 00
        E 180 90 61 60
        E 0 90 62 60
        E 0 90 55 60
        E 0 90 56 60
        E 0 90 49 60
        E 0 90 4a 60
        E 0 90 3d 60
        E 0 90 3e 60
        E 0 90 1a 60
        E 0 90 1f 60
        E 60 80 61 00
        E 0 80 62 00
        E 0 80 55 00
        E 0 80 56 00
        E 0 80 49 00
        E 0 80 4a 00
        E 0 80 3d 00
        E 0 80 3e 00
        E 0 80 1a 00
        E 0 80 1f 00
        E 180 90 62 60
        E 0 90 56 60
        E 0 90 1f 60
        E 60 80 62 00
        E 0 80 56 00
        E 0 80 1f 00
        E 180 90 60 60
        E 0 90 62 60
        E 0 90 54 60
        E 0 90 56 60
        E 0 90 48 60
        E 0 90 4a 60
        E 0 90 3e 60
        E 0 90 18 60
        E 0 90 1f 60
        E 60 80 60 00
        E 0 80 62 00
        E 0 80 54 00
        E 0 80 56 00
        E 0 80 48 00
        E 0 80 4a 00
        E 0 80 3e 00
        E 0 80 18 00
        E 0 80 1f 00
        E 180 90 62 60
        E 0 90 56 60
        E 0 90 1f 60
        E 60 80 62 00
        E 0 80 56 00
        E 0 80 1f 00
        E 180 90 61 60
        E 0 90 62 60
        E 0 90 55 60
        E 0 90 56 60
        E 0 90 49 60
        E 0 90 4a 60
        E 0 90 3d 60
        E 0 90 3e 60
        E 0 90 1a 60
        E 0 90 1f 60
        E 60 80 61 00
        E 0 80 62 00
        E 0 80 55 00
        E 0 80 56 00
        E 0 80 49 00
        E 0 80 4a 00
        E 0 80 3d 00
        E 0 80 3e 00
        E 0 80 1a 00
        E 0 80 1f 00
        E 180 90 62 60
        E 0 90 56 60
        E 0 90 1f 60
        E 60 80 62 00
        E 0 80 56 00
        E 0 80 1f 00
        E 180 90 60 60
        E 0 90 62 60
        E 0 90 54 60
        E 0 90 56 60
        E 0 90 48 60
        E 0 90 4a 60
        E 0 90 3e 60
        E 0 90 18 60
        E 0 90 1f 60
        E 60 80 60 00
        E 0 80 62 00
        E 0 80 54 00
        E 0 80 56 00
        E 0 80 48 00
        E 0 80 4a 00
        E 0 80 3e 00
        E 0 80 18 00
        E 0 80 1f 00
        E 180 90 60 60
        E 0 90 62 60
        E 0 90 54 60
        E 0 90 56 60
        E 0 90 18 60
        E 0 90 1f 60
        E 60 80 60 00
        E 0 80 62 00
        E 0 80 54 00
        E 0 80 56 00
        E 0 80 18 00
        E 0 80 1f 00
        E 180 90 61 60
        E 0 90 62 60
        E 0 90 55 60
        E 0 90 56 60
        E 0 90 49 60
        E 0 90 4a 60
        E 0 90 3d 60
        E 0 90 3e 60
        E 0 90 1a 60
        E 0 90 1f 60
        E 60 80 61 00
        E 0 80 62 00
        E 0 80 55 00
        E 0 80 56 00
        E 0 80 49 00
        E 0 80 4a 00
        E 0 80 3d 00
        E 0 80 3e 00
        E 0 80 1a 00
        E 0 80 1f 00
        E 180 90 60 60
        E 0 90 62 60
        E 0 90 54 60
        E 0 90 56 60
        E 0 90 18 60
        E 0 90 1f 60
        E 60 80 60 00
        E 0 80 62 00
        E 0 80 54 00
        E 0 80 56 00
        E 0 80 18 00
        E 0 80 1f 00
        E 180 90 60 60
        E 0 90 64 60
        E 0 90 54 60
        E 0 90 58 60
        E 0 90 48 60
        E 0 90 4c 60
        E 0 90 40 60
        E 0 90 18 60
        E 0 90 26 60
        E 60 80 60 00
        E 0 80 64 00
        E 0 80 54 00
        E 0 80 58 00
        E 0 80 48 00
        E 0 80 4c 00
        E 0 80 40 00
        E 0 80 18 00
        E 0 80 26 00
        E 180 90 62 60
        E 0 90 74 60
        E 0 90 56 60
        E 0 90 1f 60
        E 60 80 62 00
        E 0 80 56 00
        E 0 80 1f 00
        E 180 90 61 60
        E 0 90 62 60
        E 0 90 55 60
        E 0 90 56 60
        E 0 90 49 60
        E 0 90 4a 60
        E 0 90 3d 60
        E 0 90 3e 60
        E 0 90 1a 60
        E 0 90 1f 60
        E 60 80 61 00
        E 0 80 62 00
        E 0 80 55 00
        E 0 80 56 00
        E 0 80 49 00
        E 0 80 4a 00
        E 0 80 3d 00
        E 0 80 3e 00
        E 0 80 1a 00
        E 0 80 1f 00
        E 180 90 62 60
        E 0 90 56 60
        E 0 90 1f 60
        E 60 80 62 00
        E 0 80 56 00
        E 0 80 1f 00
        E 180 90 60 60
        E 0 90 62 60
        E 0 90 54 60
        E 0 90 56 60
        E 0 90 48 60
        E 0 90 4a 60
        E 0 90 3e 60
        E 0 90 18 60
        E 0 90 1f 60
        E 60 80 60 00
        E 0 80 62 00
        E 0 80 54 00
        E 0 80 56 00
        E 0 80 48 00
        E 0 80 4a 00
        E 0 80 3e 00
        E 0 80 18 00
        E 0 80 1f 00
        E 180 90 60 60
        E 0 90 62 60
        E 0 90 54 60
        E 0 90 56 60
        E 0 90 18 60
        E 0 90 1f 60
        E 60 80 60 00
        E 0 80 62 00
        E 0 80 54 00
        E 0 80 56 00
        E 0 80 18 00
        E 0 80 1f 00
        E 180 90 61 60
        E 0 90 62 60
        E 0 90 55 60
        E 0 90 56 60
        E 0 90 49 60
        E 0 90 4a 60
        E 0 90 3d 60
        E 0 90 3e 60
        E 0 90 1a 60
        E 0 90 1f 60
        E 60 80 61 00
        E 0 80 62 00
        E 0 80 55 00
        E 0 80 56 00
        E 0 80 49 00
        E 0 80 4a 00
        E 0 80 3d 00
        E 0 80 3e 00
        E 0 80 1a 00
        E 0 80 1f 00
        E 180 90 62 60
        E 0 90 56 60
        E 0 90 1f 60
        E 60 80 62 00
        E 0 80 56 00
        E 0 80 1f 00
        E 180 90 60 60
        E 0 90 62 60
        E 0 90 54 60
        E 0 90 56 60
        E 0 90 48 60
        E 0 90 4a 60
        E 0 90 3e 60
        E 0 90 18 60
        E 0 90 1f 60
        E 60 80 60 00
        E 0 80 62 00
        E 0 80 54 00
        E 0 80 56 00
        E 0 80 48 00
        E 0 80 4a 00
        E 0 80 3e 00
        E 0 80 18 00
        E 0 80 1f 00
        E 180 90 62 60
        E 0 90 56 60
        E 0 90 1f 60
        E 60 80 62 00
        E 0 80 56 00
        E 0 80 1f 00
        E 180 90 61 60
        E 0 90 62 60
        E 0 90 55 60
        E 0 90 56 60
        E 0 90 49 60
        E 0 90 4a 60
        E 0 90 3d 60
        E 0 90 3e 60
        E 0 90 1a 60
        E 0 90 1f 60
        E 60 80 61 00
        E 0 80 62 00
        E 0 80 55 00
        E 0 80 56 00
        E 0 80 49 00
        E 0 80 4a 00
        E 0 80 3d 00
        E 0 80 3e 00
        E 0 80 1a 00
        E 0 80 1f 00
        E 180 90 62 60
        E 0 90 56 60
        E 0 90 1f 60
        E 60 80 62 00
        E 0 80 56 00
        E 0 80 1f 00
        E 180 90 60 60
        E 0 90 62 60
        E 0 90 54 60
        E 0 90 56 60
        E 0 90 48 60
        E 0 90 4a 60
        E 0 90 3e 60
        E 0 90 18 60
        E 0 90 1f 60
        E 60 80 60 00
        E 0 80 62 00
        E 0 80 54 00
        E 0 80 56 00
        E 0 80 48 00
        E 0 80 4a 00
        E 0 80 3e 00
        E 0 80 18 00
        E 0 80 1f 00
        E 180 90 60 60
        E 0 90 62 60
        E 0 90 54 60
        E 0 90 56 60
        E 0 90 18 60
        E 0 90 1f 60
        E 60 80 60 00
        E 0 80 62 00
        E 0 80 54 00
        E 0 80 56 00
        E 0 80 18 00
        E 0 80 1f 00
        E 180 90 61 60
        E 0 90 62 60
        E 0 90 55 60
        E 0 90 56 60
        E 0 90 49 60
        E 0 90 4a 60
        E 0 90 3d 60
        E 0 90 3e 60
        E 0 90 1a 60
        E 0 90 1f 60
        E 60 80 61 00
        E 0 80 62 00
        E 0 80 55 00
        E 0 80 56 00
        E 0 80 49 00
        E 0 80 4a 00
        E 0 80 3d 00
        E 0 80 3e 00
        E 0 80 1a 00
        E 0 80 1f 00
        E 180 90 60 60
        E 0 90 62 60
        E 0 90 54 60
        E 0 90 56 60
        E 0 90 18 60
        E 0 90 1f 60
        E 60 80 60 00
        E 0 80 62 00
        E 0 80 54 00
        E 0 80 56 00
        E 0 80 18 00
        E 0 80 1f 00
        E 180 90 60 60
        E 0 90 64 60
        E 0 90 54 60
        E 0 90 58 60
        E 0 90 48 60
        E 0 90 4c 60
        E 0 90 40 60
        E 0 90 18 60
        E 0 90 26 60
        E 60 80 60 00
        E 0 80 64 00
        E 0 80 54 00
        E 0 80 58 00
        E 0 80 48 00
        E 0 80 4c 00
        E 0 80 40 00
        E 0 80 18 00
        E 0 80 26 00
        E 60 80 74 00
        E 120 90 62 60
        E 0 90 56 60
        E 0 90 1f 60
        E 60 80 62 00
        E 0 80 56 00
        E 0 80 1f 00
        E 180 90 61 60
        E 0 90 62 60
        E 0 90 55 60
        E 0 90 56 60
        E 0 90 49 60
        E 0 90 4a 60
        E 0 90 3d 60
        E 0 90 3e 60
        E 0 90 1a 60
        E 0 90 1f 60
        E 60 80 61 00
        E 0 80 62 00
        E 0 80 55 00
        E 0 80 56 00
        E 0 80 49 00
        E 0 80 4a 00
        E 0 80 3d 00
        E 0 80 3e 00
        E 0 80 1a 00
        E 0 80 1f 00
        E 180 90 62 60
        E 0 90 56 60
        E 0 90 1f 60
        E 60 80 62 00
        E 0 80 56 00
        E 0 80 1f 00
        E 180 90 60 60
        E 0 90 62 60
        E 0 90 54 60
        E 0 90 56 60
        E 0 90 48 60
        E 0 90 4a 60
        E 0 90 3e 60
        E 0 90 18 60
        E 0 90 1f 60
        E 60 80 60 00
        E 0 80 62 00
        E 0 80 54 00
        E 0 80 56 00
        E 0 80 48 00
        E 0 80 4a 00
        E 0 80 3e 00
        E 0 80 18 00
        E 0 80 1f 00
        E 180 90 60 60
        E 0 90 62 60
        E 0 90 54 60
        E 0 90 56 60
        E 0 90 18 60
        E 0 90 1f 60
        E 60 80 60 00
        E 0 80 62 00
        E 0 80 54 00
        E 0 80 56 00
        E 0 80 18 00
        E 0 80 1f 00
        E 180 90 61 60
        E 0 90 62 60
        E 0 90 55 60
        E 0 90 56 60
        E 0 90 49 60
        E 0 90 4a 60
        E 0 90 3d 60
        E 0 90 3e 60
        E 0 90 1a 60
        E 0 90 1f 60
        E 60 80 61 00
        E 0 80 62 00
        E 0 80 55 00
        E 0 80 56 00
        E 0 80 49 00
        E 0 80 4a 00
        E 0 80 3d 00
        E 0 80 3e 00
        E 0 80 1a 00
        E 0 80 1f 00
        E 180 90 62 60
        E 0 90 56 60
        E 0 90 1f 60
        E 60 80 62 00
        E 0 80 56 00
        E 0 80 1f 00
        E 180 90 60 60
        E 0 90 62 60
        E 0 90 54 60
        E 0 90 56 60
        E 0 90 48 60
        E 0 90 4a 60
        E 0 90 3e 60
        E 0 90 18 60
        E 0 90 1f 60
        E 60 80 60 00
        E 0 80 62 00
        E 0 80 54 00
        E 0 80 56 00
        E 0 80 48 00
        E 0 80 4a 00
        E 0 80 3e 00
        E 0 80 18 00
        E 0 80 1f 00
        E 180 90 62 60
        E 0 90 56 60
        E 0 90 1f 60
        E 60 80 62 00
        E 0 80 56 00
        E 0 80 1f 00
        E 180 90 61 60
        E 0 90 62 60
        E 0 90 55 60
        E 0 90 56 60
        E 0 90 49 60
        E 0 90 4a 60
        E 0 90 3d 60
        E 0 90 3e 60
        E 0 90 1a 60
        E 0 90 1f 60
        E 60 80 61 00
        E 0 80 62 00
        E 0 80 55 00
        E 0 80 56 00
        E 0 80 49 00
        E 0 80 4a 00
        E 0 80 3d 00
        E 0 80 3e 00
        E 0 80 1a 00
        E 0 80 1f 00
        E 180 90 62 60
        E 0 90 56 60
        E 0 90 1f 60
        E 60 80 62 00
        E 0 80 56 00
        E 0 80 1f 00
        E 180 90 60 60
        E 0 90 62 60
        E 0 90 54 60
        E 0 90 56 60
        E 0 90 48 60
        E 0 90 4a 60
        E 0 90 3e 60
        E 0 90 18 60
        E 0 90 1f 60
        E 60 80 60 00
        E 0 80 62 00
        E 0 80 54 00
        E 0 80 56 00
        E 0 80 48 00
        E 0 80 4a 00
        E 0 80 3e 00
        E 0 80 18 00
        E 0 80 1f 00
        E 180 90 60 60
        E 0 90 62 60
        E 0 90 54 60
        E 0 90 56 60
        E 0 90 18 60
        E 0 90 1f 60
        E 60 80 60 00
        E 0 80 62 00
        E 0 80 54 00
        E 0 80 56 00
        E 0 80 18 00
        E 0 80 1f 00
        E 180 90 61 60
        E 0 90 62 60
        E 0 90 55 60
        E 0 90 56 60
        E 0 90 49 60
        E 0 90 4a 60
        E 0 90 3d 60
        E 0 90 3e 60
        E 0 90 1a 60
        E 0 90 1f 60
        E 60 80 61 00
        E 0 80 62 00
        E 0 80 55 00
        E 0 80 56 00
        E 0 80 49 00
        E 0 80 4a 00
        E 0 80 3d 00
        E 0 80 3e 00
        E 0 80 1a 00
        E 0 80 1f 00
        E 180 90 60 60
        E 0 90 62 60
        E 0 90 54 60
        E 0 90 56 60
        E 0 90 18 60
        E 0 90 1f 60
        E 60 80 60 00
        E 0 80 62 00
        E 0 80 54 00
        E 0 80 56 00
        E 0 80 18 00
        E 0 80 1f 00
        E 180 90 60 60
        E 0 90 64 60
        E 0 90 54 60
        E 0 90 58 60
        E 0 90 48 60
        E 0 90 4c 60
        E 0 90 40 60
        E 0 90 18 60
        E 0 90 26 60
        E 60 80 60 00
        E 0 80 64 00
        E 0 80 54 00
        E 0 80 58 00
        E 0 80 48 00
        E 0 80 4c 00
        E 0 80 40 00
        E 0 80 18 00
        E 0 80 26 00
        E 180 90 62 60
        E 0 90 56 60
        E 0 90 1f 60
        E 60 80 62 00
        E 0 80 56 00
        E 0 80 1f 00
        E 180 90 61 60
        E 0 90 62 60
        E 0 90 55 60
        E 0 90 56 60
        E 0 90 49 60
        E 0 90 4a 60
        E 0 90 3d 60
        E 0 90 3e 60
        E 0 90 1a 60
        E 0 90 1f 60
        E 60 80 61 00
        E 0 80 62 00
        E 0 80 55 00
        E 0 80 56 00
        E 0 80 49 00
        E 0 80 4a 00
        E 0 80 3d 00
        E 0 80 3e 00
        E 0 80 1a 00
        E 0 80 1f 00
        E 180 90 62 60
        E 0 90 56 60
        E 0 90 1f 60
        E 60 80 62 00
        E 0 80 56 00
        E 0 80 1f 00
        E 180 90 60 60
        E 0 90 62 60
        E 0 90 54 60
        E 0 90 56 60
        E 0 90 48 60
        E 0 90 4a 60
        E 0 90 3e 60
        E 0 90 18 60
        E 0 90 1f 60
        E 60 80 60 00
        E 0 80 62 00
        E 0 80 54 00
        E 0 80 56 00
        E 0 80 48 00
        E 0 80 4a 00
        E 0 80 3e 00
        E 0 80 18 00
        E 0 80 1f 00
        E 180 90 60 60
        E 0 90 62 60
        E 0 90 54 60
        E 0 90 56 60
        E 0 90 18 60
        E 0 90 1f 60
        E 60 80 60 00
        E 0 80 62 00
        E 0 80 54 00
        E 0 80 56 00
        E 0 80 18 00
        E 0 80 1f 00
        E 180 90 61 60
        E 0 90 62 60
        E 0 90 55 60
        E 0 90 56 60
        E 0 90 49 60
        E 0 90 4a 60
        E 0 90 3d 60
        E 0 90 3e 60
        E 0 90 1a 60
        E 0 90 1f 60
        E 60 80 61 00
        E 0 80 62 00
        E 0 80 55 00
        E 0 80 56 00
        E 0 80 49 00
        E 0 80 4a 00
        E 0 80 3d 00
        E 0 80 3e 00
        E 0 80 1a 00
        E 0 80 1f 00
        E 180 90 62 60
        E 0 90 56 60
        E 0 90 1f 60
        E 60 80 62 00
        E 0 80 56 00
        E 0 80 1f 00
        E 180 90 60 60
        E 0 90 62 60
        E 0 90 54 60
        E 0 90 56 60
        E 0 90 48 60
        E 0 90 4a 60
        E 0 90 3e 60
        E 0 90 18 60
        E 0 90 1f 60
        E 60 80 60 00
        E 0 80 62 00
        E 0 80 54 00
        E 0 80 56 00
        E 0 80 48 00
        E 0 80 4a 00
        E 0 80 3e 00
        E 0 80 18 00
        E 0 80 1f 00
        E 180 90 60 60
        E 0 90 62 60
        E 0 90 54 60
        E 0 90 56 60
        E 0 90 18 60
        E 0 90 1f 60
        E 60 80 60 00
        E 0 80 62 00
        E 0 80 54 00
        E 0 80 56 00
        E 0 80 18 00
        E 0 80 1f 00
        E 180 90 61 60
        E 0 90 62 60
        E 0 90 55 60
        E 0 90 56 60
        E 0 90 49 60
        E 0 90 4a 60
        E 0 90 3d 60
        E 0 90 3e 60
        E 0 90 1a 60
        E 0 90 1f 60
        E 60 80 61 00
        E 0 80 62 00
        E 0 80 55 00
        E 0 80 56 00
        E 0 80 49 00
        E 0 80 4a 00
        E 0 80 3d 00
        E 0 80 3e 00
        E 0 80 1a 00
        E 0 80 1f 00
        E 180 90 60 60
        E 0 90 62 60
        E 0 90 54 60
        E 0 90 56 60
        E 0 90 18 60
        E 0 90 1f 60
        E 60 80 60 00
        E 0 80 62 00
        E 0 80 54 00
        E 0 80 56 00
        E 0 80 18 00
        E 0 80 1f 00
        E 180 90 60 60
        E 0 90 64 60
        E 0 90 54 60
        E 0 90 58 60
        E 0 90 48 60
        E 0 90 4c 60
        E 0 90 40 60
        E 0 90 18 60
        E 0 90 26 60
        E 60 80 60 00
        E 0 80 64 00
        E 0 80 54 00
        E 0 80 58 00
        E 0 80 48 00
        E 0 80 4c 00
        E 0 80 40 00
        E 0 80 18 00
        E 0 80 26 00
        E 120 90 78 60
        E 0 90 79 60
        E 0 90 7a 60
        E 0 90 7b 60
        E 0 90 7c 60
        E 60 90 61 60
        E 0 90 55 60
        E 0 90 1b 60
        E 60 80 61 00
        E 0 80 55 00
        E 0 80 1b 00
        E 60 90 61 60
        E 0 90 1a 60
        E 60 80 61 00
        E 0 80 1a 00
        E 60 90 61 60
        E 0 90 55 60
        E 0 90 49 60
        E 0 90 3d 60
        E 0 90 1b 60
        E 60 80 61 00
        E 0 80 55 00
        E 0 80 49 00
        E 0 80 3d 00
        E 0 80 1b 00
        E 60 90 61 60
        E 0 90 1a 60
        E 60 80 61 00
        E 0 80 1a 00
        E 60 90 61 60
        E 0 90 55 60
        E 0 90 1b 60
        E 60 80 61 00
        E 0 80 55 00
        E 0 80 1b 00
        E 60 90 61 60
        E 0 90 1a 60
        E 60 80 61 00
        E 0 80 1a 00
        E 60 80 78 00
        E 0 80 79 00
        E 0 80 7a 00
        E 0 80 7b 00
        E 0 80 7c 00
        E 0 90 60 60
        E 0 90 64 60
        E 0 90 54 60
        E 0 90 58 60
        E 0 90 48 60
        E 0 90 4c 60
        E 0 90 40 60
        E 0 90 18 60
        E 0 90 26 60
        E 60 80 60 00
        E 0 80 64 00
        E 0 80 54 00
        E 0 80 58 00
        E 0 80 48 00
        E 0 80 4c 00
        E 0 80 40 00
        E 0 80 18 00
        E 0 80 26 00
        E 180 90 62 60
        E 0 90 56 60
        E 0 90 1f 60
        E 60 80 62 00
        E 0 80 56 00
        E 0 80 1f 00
        E 180 90 61 60
        E 0 90 62 60
        E 0 90 55 60
        E 0 90 56 60
        E 0 90 49 60
        E 0 90 4a 60
        E 0 90 3d 60
        E 0 90 3e 60
        E 0 90 1a 60
        E 0 90 1f 60
        E 60 80 61 00
        E 0 80 62 00
        E 0 80 55 00
        E 0 80 56 00
        E 0 80 49 00
        E 0 80 4a 00
        E 0 80 3d 00
        E 0 80 3e 00
        E 0 80 1a 00
        E 0 80 1f 00
        E 180 90 62 60
        E 0 90 56 60
        E 0 90 1f 60
        E 60 80 62 00
        E 0 80 56 00
        E 0 80 1f 00
        E 180 90 60 60
        E 0 90 62 60
        E 0 90 54 60
        E 0 90 56 60
        E 0 90 48 60
        E 0 90 4a 60
        E 0 90 3e 60
        E 0 90 18 60
        E 0 90 1f 60
        E 60 80 60 00
        E 0 80 62 00
        E 0 80 54 00
        E 0 80 56 00
        E 0 80 48 00
        E 0 80 4a 00
        E 0 80 3e 00
        E 0 80 18 00
        E 0 80 1f 00
        E 180 90 60 60
        E 0 90 62 60
        E 0 90 54 60
        E 0 90 56 60
        E 0 90 18 60
        E 0 90 1f 60
        E 60 80 60 00
        E 0 80 62 00
        E 0 80 54 00
        E 0 80 56 00
        E 0 80 18 00
        E 0 80 1f 00
        E 180 90 61 60
        E 0 90 62 60
        E 0 90 55 60
        E 0 90 56 60
        E 0 90 49 60
        E 0 90 4a 60
        E 0 90 3d 60
        E 0 90 3e 60
        E 0 90 1a 60
        E 0 90 1f 60
        E 60 80 61 00
        E 0 80 62 00
        E 0 80 55 00
        E 0 80 56 00
        E 0 80 49 00
        E 0 80 4a 00
        E 0 80 3d 00
        E 0 80 3e 00
        E 0 80 1a 00
        E 0 80 1f 00
        E 180 90 60 60
        E 0 90 62 60
        E 0 90 54 60
        E 0 90 56 60
        E 0 90 18 60
        E 0 90 1f 60
        E 60 80 60 00
        E 0 80 62 00
        E 0 80 54 00
        E 0 80 56 00
        E 0 80 18 00
        E 0 80 1f 00
        E 179 90 74 60
        E 1 90 60 60
        E 0 90 62 60
        E 0 90 54 60
        E 0 90 56 60
        E 0 90 48 60
        E 0 90 4a 60
        E 0 90 3e 60
        E 0 90 18 60
        E 0 90 1f 60
        E 60 80 60 00
        E 0 80 62 00
        E 0 80 54 00
        E 0 80 56 00
        E 0 80 48 00
        E 0 80 4a 00
        E 0 80 3e 00
        E 0 80 18 00
        E 0 80 1f 00
        E 180 90 62 60
        E 0 90 56 60
        E 0 90 1f 60
        E 60 80 62 00
        E 0 80 56 00
        E 0 80 1f 00
        E 180 90 61 60
        E 0 90 62 60
        E 0 90 55 60
        E 0 90 56 60
        E 0 90 49 60
        E 0 90 4a 60
        E 0 90 3d 60
        E 0 90 3e 60
        E 0 90 1a 60
        E 0 90 1f 60
        E 60 80 61 00
        E 0 80 62 00
        E 0 80 55 00
        E 0 80 56 00
        E 0 80 49 00
        E 0 80 4a 00
        E 0 80 3d 00
        E 0 80 3e 00
        E 0 80 1a 00
        E 0 80 1f 00
        E 180 90 62 60
        E 0 90 56 60
        E 0 90 1f 60
        E 60 80 62 00
        E 0 80 56 00
        E 0 80 1f 00
        E 180 90 60 60
        E 0 90 62 60
        E 0 90 54 60
        E 0 90 56 60
        E 0 90 48 60
        E 0 90 4a 60
        E 0 90 3e 60
        E 0 90 18 60
        E 0 90 1f 60
        E 60 80 74 00
        E 0 80 60 00
        E 0 80 62 00
        E 0 80 54 00
        E 0 80 56 00
        E 0 80 48 00
        E 0 80 4a 00
        E 0 80 3e 00
        E 0 80 18 00
        E 0 80 1f 00
        E 180 90 60 60
        E 0 90 62 60
        E 0 90 54 60
        E 0 90 56 60
        E 0 90 18 60
        E 0 90 1f 60
        E 60 80 60 00
        E 0 80 62 00
        E 0 80 54 00
        E 0 80 56 00
        E 0 80 18 00
        E 0 80 1f 00
        E 180 90 61 60
        E 0 90 62 60
        E 0 90 55 60
        E 0 90 56 60
        E 0 90 49 60
        E 0 90 4a 60
        E 0 90 3d 60
        E 0 90 3e 60
        E 0 90 1a 60
        E 0 90 1f 60
        E 60 80 61 00
        E 0 80 62 00
        E 0 80 55 00
        E 0 80 56 00
        E 0 80 49 00
        E 0 80 4a 00
        E 0 80 3d 00
        E 0 80 3e 00
        E 0 80 1a 00
        E 0 80 1f 00
        E 180 90 60 60
        E 0 90 62 60
        E 0 90 54 60
        E 0 90 56 60
        E 0 90 18 60
        E 0 90 1f 60
        E 60 80 60 00
        E 0 80 62 00
        E 0 80 54 00
        E 0 80 56 00
        E 0 80 18 00
        E 0 80 1f 00
        E 180 90 60 60
        E 0 90 64 60
        E 0 90 54 60
        E 0 90 58 60
        E 0 90 48 60
        E 0 90 4c 60
        E 0 90 40 60
        E 0 90 18 60
        E 0 90 26 60
        E 60 80 60 00
        E 0 80 64 00
        E 0 80 54 00
        E 0 80 58 00
        E 0 80 48 00
        E 0 80 4c 00
        E 0 80 40 00
        E 0 80 18 00
        E 0 80 26 00
        E 180 90 62 60
        E 0 90 56 60
        E 0 90 1f 60
        E 60 80 62 00
        E 0 80 56 00
        E 0 80 1f 00
        E 180 90 61 60
        E 0 90 62 60
        E 0 90 55 60
        E 0 90 56 60
        E 0 90 49 60
        E 0 90 4a 60
        E 0 90 3d 60
        E 0 90 3e 60
        E 0 90 1a 60
        E 0 90 1f 60
        E 60 80 61 00
        E 0 80 62 00
        E 0 80 55 00
        E 0 80 56 00
        E 0 80 49 00
        E 0 80 4a 00
        E 0 80 3d 00
        E 0 80 3e 00
        E 0 80 1a 00
        E 0 80 1f 00
        E 180 90 62 60
        E 0 90 56 60
        E 0 90 1f 60
        E 60 80 62 00
        E 0 80 56 00
        E 0 80 1f 00
        E 180 90 60 60
        E 0 90 62 60
        E 0 90 54 60
        E 0 90 56 60
        E 0 90 48 60
        E 0 90 4a 60
        E 0 90 3e 60
        E 0 90 18 60
        E 0 90 1f 60
        E 60 80 60 00
        E 0 80 62 00
        E 0 80 54 00
        E 0 80 56 00
        E 0 80 48 00
        E 0 80 4a 00
        E 0 80 3e 00
        E 0 80 18 00
        E 0 80 1f 00
        E 180 90 60 60
        E 0 90 62 60
        E 0 90 54 60
        E 0 90 56 60
        E 0 90 18 60
        E 0 90 1f 60
        E 60 80 60 00
        E 0 80 62 00
        E 0 80 54 00
        E 0 80 56 00
        E 0 80 18 00
        E 0 80 1f 00
        E 180 90 61 60
        E 0 90 62 60
        E 0 90 55 60
        E 0 90 56 60
        E 0 90 49 60
        E 0 90 4a 60
        E 0 90 3d 60
        E 0 90 3e 60
        E 0 90 1a 60
        E 0 90 1f 60
        E 60 80 61 00
        E 0 80 62 00
        E 0 80 55 00
        E 0 80 56 00
        E 0 80 49 00
        E 0 80 4a 00
        E 0 80 3d 00
        E 0 80 3e 00
        E 0 80 1a 00
        E 0 80 1f 00
        E 180 90 60 60
        E 0 90 62 60
        E 0 90 54 60
        E 0 90 56 60
        E 0 90 18 60
        E 0 90 1f 60
        E 60 80 60 00
        E 0 80 62 00
        E 0 80 54 00
        E 0 80 56 00
        E 0 80 18 00
        E 0 80 1f 00
        E 180 90 60 60
        E 0 90 62 60
        E 0 90 54 60
        E 0 90 56 60
        E 0 90 48 60
        E 0 90 4a 60
        E 0 90 3e 60
        E 0 90 18 60
        E 0 90 1f 60
        E 60 80 60 00
        E 0 80 62 00
        E 0 80 54 00
        E 0 80 56 00
        E 0 80 48 00
        E 0 80 4a 00
        E 0 80 3e 00
        E 0 80 18 00
        E 0 80 1f 00
        E 180 90 62 60
        E 0 90 56 60
        E 0 90 1f 60
        E 60 80 62 00
        E 0 80 56 00
        E 0 80 1f 00
        E 180 90 61 60
        E 0 90 62 60
        E 0 90 55 60
        E 0 90 56 60
        E 0 90 49 60
        E 0 90 4a 60
        E 0 90 3d 60
        E 0 90 3e 60
        E 0 90 1a 60
        E 0 90 1f 60
        E 60 80 61 00
        E 0 80 62 00
        E 0 80 55 00
        E 0 80 56 00
        E 0 80 49 00
        E 0 80 4a 00
        E 0 80 3d 00
        E 0 80 3e 00
        E 0 80 1a 00
        E 0 80 1f 00
        E 180 90 62 60
        E 0 90 56 60
        E 0 90 1f 60
        E 60 80 62 00
        E 0 80 56 00
        E 0 80 1f 00
        E 180 90 60 60
        E 0 90 62 60
        E 0 90 78 60
        E 0 90 79 60
        E 0 90 7a 60
        E 0 90 7b 60
        E 0 90 7c 60
        E 0 90 54 60
        E 0 90 56 60
        E 0 90 48 60
        E 0 90 4a 60
        E 0 90 3e 60
        E 0 90 18 60
        E 0 90 1f 60
        E 60 80 60 00
        E 0 80 62 00
        E 0 80 54 00
        E 0 80 56 00
        E 0 80 48 00
        E 0 80 4a 00
        E 0 80 3e 00
        E 0 80 18 00
        E 0 80 1f 00
        E 180 90 60 60
        E 0 90 62 60
        E 0 90 54 60
        E 0 90 56 60
        E 0 90 18 60
        E 0 90 1f 60
        E 60 80 60 00
        E 0 80 62 00
        E 0 80 54 00
        E 0 80 56 00
        E 0 80 18 00
        E 0 80 1f 00
        E 180 90 61 60
        E 0 90 62 60
        E 0 90 55 60
        E 0 90 56 60
        E 0 90 49 60
        E 0 90 4a 60
        E 0 90 3d 60
        E 0 90 3e 60
        E 0 90 1a 60
        E 0 90 1f 60
        E 60 80 61 00
        E 0 80 62 00
        E 0 80 55 00
        E 0 80 56 00
        E 0 80 49 00
        E 0 80 4a 00
        E 0 80 3d 00
        E 0 80 3e 00
        E 0 80 1a 00
        E 0 80 1f 00
        E 180 90 60 60
        E 0 90 62 60
        E 0 90 54 60
        E 0 90 56 60
        E 0 90 18 60
        E 0 90 1f 60
        E 60 80 60 00
        E 0 80 62 00
        E 0 80 54 00
        E 0 80 56 00
        E 0 80 18 00
        E 0 80 1f 00
        E 180 80 78 00
        E 0 80 79 00
        E 0 80 7a 00
        E 0 80 7b 00
        E 0 80 7c 00
        E 0 90 60 60
        E 0 90 64 60
        E 0 90 54 60
        E 0 90 58 60
        E 0 90 48 60
        E 0 90 4c 60
        E 0 90 40 60
        E 0 90 18 60
        E 0 90 26 60
        E 60 80 60 00
        E 0 80 64 00
        E 0 80 54 00
        E 0 80 58 00
        E 0 80 48 00
        E 0 80 4c 00
        E 0 80 40 00
        E 0 80 18 00
        E 0 80 26 00
        E 180 90 62 60
        E 0 90 56 60
        E 0 90 1f 60
        E 60 80 62 00
        E 0 80 56 00
        E 0 90 74 60
        E 0 80 1f 00
        E 180 90 61 60
        E 0 90 62 60
        E 0 90 55 60
        E 0 90 56 60
        E 0 90 49 60
        E 0 90 4a 60
        E 0 90 3d 60
        E 0 90 3e 60
        E 0 90 1a 60
        E 0 90 1f 60
        E 60 80 61 00
        E 0 80 62 00
        E 0 80 55 00
        E 0 80 56 00
        E 0 80 49 00
        E 0 80 4a 00
        E 0 80 3d 00
        E 0 80 3e 00
        E 0 80 1a 00
        E 0 80 1f 00
        E 180 90 62 60
        E 0 90 56 60
        E 0 90 1f 60
        E 60 80 62 00
        E 0 80 56 00
        E 0 80 1f 00
        E 180 90 60 60
        E 0 90 62 60
        E 0 90 54 60
        E 0 90 56 60
        E 0 90 48 60
        E 0 90 4a 60
        E 0 90 3e 60
        E 0 90 18 60
        E 0 90 1f 60
        E 60 80 60 00
        E 0 80 62 00
        E 0 80 54 00
        E 0 80 56 00
        E 0 80 48 00
        E 0 80 4a 00
        E 0 80 3e 00
        E 0 80 18 00
        E 0 80 1f 00
        E 180 90 60 60
        E 0 90 62 60
        E 0 90 54 60
        E 0 90 56 60
        E 0 90 18 60
        E 0 90 1f 60
        E 60 80 60 00
        E 0 80 62 00
        E 0 80 54 00
        E 0 80 56 00
        E 0 80 18 00
        E 0 80 1f 00
        E 180 90 61 60
        E 0 90 62 60
        E 0 90 55 60
        E 0 90 56 60
        E 0 90 49 60
        E 0 90 4a 60
        E 0 90 3d 60
        E 0 90 3e 60
        E 0 90 1a 60
        E 0 90 1f 60
        E 60 80 61 00
        E 0 80 62 00
        E 0 80 55 00
        E 0 80 56 00
        E 0 80 49 00
        E 0 80 4a 00
        E 0 80 3d 00
        E 0 80 3e 00
        E 0 80 1a 00
        E 0 80 1f 00
        E 180 90 60 60
        E 0 90 62 60
        E 0 90 54 60
        E 0 90 56 60
        E 0 90 18 60
        E 0 90 1f 60
        E 60 80 60 00
        E 0 80 62 00
        E 0 80 54 00
        E 0 80 56 00
        E 0 80 18 00
        E 0 80 1f 00
        E 180 90 60 60
        E 0 90 62 60
        E 0 90 54 60
        E 0 90 56 60
        E 0 90 48 60
        E 0 90 4a 60
        E 0 90 3e 60
        E 0 90 18 60
        E 0 90 1f 60
        E 60 80 60 00
        E 0 80 62 00
        E 0 80 54 00
        E 0 80 56 00
        E 0 80 48 00
        E 0 80 4a 00
        E 0 80 3e 00
        E 0 80 18 00
        E 0 80 1f 00
        E 180 90 62 60
        E 0 90 56 60
        E 0 90 1f 60
        E 60 80 62 00
        E 0 80 56 00
        E 0 80 1f 00
        E 180 90 61 60
        E 0 90 62 60
        E 0 90 55 60
        E 0 90 56 60
        E 0 90 49 60
        E 0 90 4a 60
        E 0 90 3d 60
        E 0 90 3e 60
        E 0 90 1a 60
        E 0 90 1f 60
        E 60 80 61 00
        E 0 80 62 00
        E 0 80 55 00
        E 0 80 56 00
        E 0 80 49 00
        E 0 80 4a 00
        E 0 80 3d 00
        E 0 80 3e 00
        E 0 80 1a 00
        E 0 80 1f 00
        E 180 90 62 60
        E 0 90 56 60
        E 0 90 1f 60
        E 60 80 62 00
        E 0 80 56 00
        E 0 80 1f 00
        E 180 90 60 60
        E 0 90 62 60
        E 0 90 54 60
        E 0 90 56 60
        E 0 90 48 60
        E 0 90 4a 60
        E 0 90 3e 60
        E 0 90 18 60
        E 0 90 1f 60
        E 60 80 60 00
        E 0 80 62 00
        E 0 80 54 00
        E 0 80 56 00
        E 0 80 48 00
        E 0 80 4a 00
        E 0 80 3e 00
        E 0 80 18 00
        E 0 80 1f 00
        E 180 90 60 60
        E 0 90 62 60
        E 0 90 54 60
        E 0 90 56 60
        E 0 90 18 60
        E 0 90 1f 60
        E 60 80 60 00
        E 0 80 62 00
        E 0 80 54 00
        E 0 80 56 00
        E 0 80 18 00
        E 0 80 1f 00
        E 180 90 61 60
        E 0 90 62 60
        E 0 90 55 60
        E 0 90 56 60
        E 0 90 49 60
        E 0 90 4a 60
        E 0 90 3d 60
        E 0 90 3e 60
        E 0 90 1a 60
        E 0 90 1f 60
        E 60 80 61 00
        E 0 80 62 00
        E 0 80 55 00
        E 0 80 56 00
        E 0 80 49 00
        E 0 80 4a 00
        E 0 80 3d 00
        E 0 80 3e 00
        E 0 80 1a 00
        E 0 80 1f 00
        E 180 90 60 60
        E 0 90 62 60
        E 0 90 54 60
        E 0 90 56 60
        E 0 90 18 60
        E 0 90 1f 60
        E 60 80 60 00
        E 0 80 62 00
        E 0 80 54 00
        E 0 80 56 00
        E 0 80 18 00
        E 0 80 1f 00
        E 180 90 60 60
        E 0 90 64 60
        E 0 90 54 60
        E 0 90 58 60
        E 0 90 48 60
        E 0 90 4c 60
        E 0 90 40 60
        E 0 90 18 60
        E 0 90 26 60
        E 60 80 60 00
        E 0 80 64 00
        E 0 80 54 00
        E 0 80 58 00
        E 0 80 48 00
        E 0 80 4c 00
        E 0 80 40 00
        E 0 80 18 00
        E 0 80 26 00
        E 180 90 62 60
        E 0 90 56 60
        E 0 90 1f 60
        E 60 80 62 00
        E 0 80 56 00
        E 0 80 1f 00
        E 180 90 61 60
        E 0 90 62 60
        E 0 90 55 60
        E 0 90 56 60
        E 0 90 49 60
        E 0 90 4a 60
        E 0 90 3d 60
        E 0 90 3e 60
        E 0 90 1a 60
        E 0 90 1f 60
        E 60 80 61 00
        E 0 80 62 00
        E 0 80 55 00
        E 0 80 56 00
        E 0 80 49 00
        E 0 80 4a 00
        E 0 80 3d 00
        E 0 80 3e 00
        E 0 80 1a 00
        E 0 80 1f 00
        E 180 90 62 60
        E 0 90 56 60
        E 0 90 1f 60
        E 60 80 62 00
        E 0 80 56 00
        E 0 80 1f 00
        E 180 90 60 60
        E 0 90 62 60
        E 0 90 54 60
        E 0 90 56 60
        E 0 90 48 60
        E 0 90 4a 60
        E 0 90 3e 60
        E 0 90 18 60
        E 0 90 1f 60
        E 60 80 60 00
        E 0 80 62 00
        E 0 80 54 00
        E 0 80 56 00
        E 0 80 48 00
        E 0 80 4a 00
        E 0 80 3e 00
        E 0 80 18 00
        E 0 80 1f 00
        E 180 90 60 60
        E 0 90 62 60
        E 0 90 54 60
        E 0 90 56 60
        E 0 90 18 60
        E 0 90 1f 60
        E 60 80 60 00
        E 0 80 62 00
        E 0 80 54 00
        E 0 80 56 00
        E 0 80 18 00
        E 0 80 1f 00
        E 180 80 74 00
        E 0 90 61 60
        E 0 90 62 60
        E 0 90 55 60
        E 0 90 56 60
        E 0 90 49 60
        E 0 90 4a 60
        E 0 90 3d 60
        E 0 90 3e 60
        E 0 90 1a 60
        E 0 90 1f 60
        E 60 80 61 00
        E 0 80 62 00
        E 0 80 55 00
        E 0 80 56 00
        E 0 80 49 00
        E 0 80 4a 00
        E 0 80 3d 00
        E 0 80 3e 00
        E 0 80 1a 00
        E 0 80 1f 00
        E 180 90 60 60
        E 0 90 62 60
        E 0 90 54 60
        E 0 90 56 60
        E 0 90 18 60
        E 0 90 1f 60
        E 60 80 60 00
        E 0 80 62 00
        E 0 80 54 00
        E 0 80 56 00
        E 0 80 18 00
        E 0 80 1f 00
        E 180 90 60 60
        E 0 90 62 60
        E 0 90 54 60
        E 0 90 56 60
        E 0 90 48 60
        E 0 90 4a 60
        E 0 90 3e 60
        E 0 90 18 60
        E 0 90 1f 60
        E 60 80 60 00
        E 0 80 62 00
        E 0 80 54 00
        E 0 80 56 00
        E 0 80 48 00
        E 0 80 4a 00
        E 0 80 3e 00
        E 0 80 18 00
        E 0 80 1f 00
        E 180 90 62 60
        E 0 90 56 60
        E 0 90 1f 60
        E 60 80 62 00
        E 0 80 56 00
        E 0 80 1f 00
        E 180 90 61 60
        E 0 90 62 60
        E 0 90 55 60
        E 0 90 56 60
        E 0 90 49 60
        E 0 90 4a 60
        E 0 90 3d 60
        E 0 90 3e 60
        E 0 90 1a 60
        E 0 90 1f 60
        E 60 80 61 00
        E 0 80 62 00
        E 0 80 55 00
        E 0 80 56 00
        E 0 80 49 00
        E 0 80 4a 00
        E 0 80 3d 00
        E 0 80 3e 00
        E 0 80 1a 00
        E 0 80 1f 00
        E 180 90 60 60
        E 0 90 62 60
        E 0 90 54 60
        E 0 90 56 60
        E 0 90 18 60
        E 0 90 1f 60
        E 60 80 60 00
        E 0 80 62 00
        E 0 80 54 00
        E 0 80 56 00
        E 0 80 18 00
        E 0 80 1f 00
        E 180 90 61 60
        E 0 90 62 60
        E 0 90 55 60
        E 0 90 56 60
        E 0 90 49 60
        E 0 90 4a 60
        E 0 90 3d 60
        E 0 90 3e 60
        E 0 90 1a 60
        E 0 90 1f 60
        E 60 80 61 00
        E 0 80 62 00
        E 0 80 55 00
        E 0 80 56 00
        E 0 80 49 00
        E 0 80 4a 00
        E 0 80 3d 00
        E 0 80 3e 00
        E 0 80 1a 00
        E 0 80 1f 00
        E 180 90 60 60
        E 0 90 62 60
        E 0 90 54 60
        E 0 90 56 60
        E 0 90 18 60
        E 0 90 1f 60
        E 60 80 60 00
        E 0 80 62 00
        E 0 80 54 00
        E 0 80 56 00
        E 0 80 18 00
        E 0 80 1f 00
        E 180 90 61 60
        E 0 90 62 60
        E 0 90 55 60
        E 0 90 56 60
        E 0 90 49 60
        E 0 90 4a 60
        E 0 90 3d 60
        E 0 90 3e 60
        E 0 90 1a 60
        E 0 90 1f 60
        E 60 80 61 00
        E 0 80 62 00
        E 0 80 55 00
        E 0 80 56 00
        E 0 80 49 00
        E 0 80 4a 00
        E 0 80 3d 00
        E 0 80 3e 00
        E 0 80 1a 00
        E 0 80 1f 00
        E 180 90 60 60
        E 0 90 62 60
        E 0 90 54 60
        E 0 90 56 60
        E 0 90 18 60
        E 0 90 1f 60
        E 60 80 60 00
        E 0 80 62 00
        E 0 80 54 00
        E 0 80 56 00
        E 0 80 18 00
        E 0 80 1f 00
        E 180 90 60 60
        E 0 90 64 60
        E 0 90 54 60
        E 0 90 58 60
        E 0 90 48 60
        E 0 90 4c 60
        E 0 90 40 60
        E 0 90 18 60
        E 0 90 26 60
        E 60 80 60 00
        E 0 80 64 00
        E 0 80 54 00
        E 0 80 58 00
        E 0 80 48 00
        E 0 80 4c 00
        E 0 80 40 00
        E 0 80 18 00
        E 0 80 26 00
        E 180 90 62 60
        E 0 90 56 60
        E 0 90 1f 60
        E 60 80 62 00
        E 0 80 56 00
        E 0 80 1f 00
        E 180 90 61 60
        E 0 90 62 60
        E 0 90 55 60
        E 0 90 56 60
        E 0 90 49 60
        E 0 90 4a 60
        E 0 90 3d 60
        E 0 90 3e 60
        E 0 90 1a 60
        E 0 90 1f 60
        E 60 80 61 00
        E 0 80 62 00
        E 0 80 55 00
        E 0 80 56 00
        E 0 80 49 00
        E 0 80 4a 00
        E 0 80 3d 00
        E 0 80 3e 00
        E 0 80 1a 00
        E 0 80 1f 00
        E 180 90 62 60
        E 0 90 56 60
        E 0 90 1f 60
        E 60 80 62 00
        E 0 80 56 00
        E 0 80 1f 00
        E 180 90 60 60
        E 0 90 62 60
        E 0 90 54 60
        E 0 90 56 60
        E 0 90 48 60
        E 0 90 4a 60
        E 0 90 3e 60
        E 0 90 18 60
        E 0 90 1f 60
        E 60 80 60 00
        E 0 80 62 00
        E 0 80 54 00
        E 0 80 56 00
        E 0 80 48 00
        E 0 80 4a 00
        E 0 80 3e 00
        E 0 80 18 00
        E 0 80 1f 00
        E 180 90 60 60
        E 0 90 62 60
        E 0 90 54 60
        E 0 90 56 60
        E 0 90 18 60
        E 0 90 1f 60
        E 60 80 60 00
        E 0 80 62 00
        E 0 80 54 00
        E 0 80 56 00
        E 0 80 18 00
        E 0 80 1f 00
        E 180 90 61 60
        E 0 90 62 60
        E 0 90 55 60
        E 0 90 56 60
        E 0 90 49 60
        E 0 90 4a 60
        E 0 90 3d 60
        E 0 90 3e 60
        E 0 90 1a 60
        E 0 90 1f 60
        E 60 80 61 00
        E 0 80 62 00
        E 0 80 55 00
        E 0 80 56 00
        E 0 80 49 00
        E 0 80 4a 00
        E 0 80 3d 00
        E 0 80 3e 00
        E 0 80 1a 00
        E 0 80 1f 00
        E 180 90 60 60
        E 0 90 62 60
        E 0 90 54 60
        E 0 90 56 60
        E 0 90 18 60
        E 0 90 1f 60
        E 60 80 60 00
        E 0 80 62 00
        E 0 80 54 00
        E 0 80 56 00
        E 0 80 18 00
        E 0 80 1f 00
        E 180 90 60 60
        E 0 90 62 60
        E 0 90 54 60
        E 0 90 56 60
        E 0 90 48 60
        E 0 90 4a 60
        E 0 90 3e 60
        E 0 90 18 60
        E 0 90 1f 60
        E 60 80 60 00
        E 0 80 62 00
        E 0 80 54 00
        E 0 80 56 00
        E 0 80 48 00
        E 0 80 4a 00
        E 0 80 3e 00
        E 0 80 18 00
        E 0 80 1f 00
        E 180 90 62 60
        E 0 90 56 60
        E 0 90 1f 60
        E 60 80 62 00
        E 0 80 56 00
        E 0 80 1f 00
        E 180 90 61 60
        E 0 90 62 60
        E 0 90 55 60
        E 0 90 56 60
        E 0 90 49 60
        E 0 90 4a 60
        E 0 90 3d 60
        E 0 90 3e 60
        E 0 90 1a 60
        E 0 90 1f 60
        E 60 80 61 00
        E 0 80 62 00
        E 0 80 55 00
        E 0 80 56 00
        E 0 80 49 00
        E 0 80 4a 00
        E 0 80 3d 00
        E 0 80 3e 00
        E 0 80 1a 00
        E 0 80 1f 00
        E 180 90 62 60
        E 0 90 56 60
        E 0 90 1f 60
        E 60 80 62 00
        E 0 80 56 00
        E 0 80 1f 00
        E 180 90 60 60
        E 0 90 62 60
        E 0 90 78 60
        E 0 90 79 60
        E 0 90 7a 60
        E 0 90 7b 60
        E 0 90 7c 60
        E 0 90 54 60
        E 0 90 56 60
        E 0 90 48 60
        E 0 90 4a 60
        E 0 90 3e 60
        E 0 90 18 60
        E 0 90 1f 60
        E 60 80 60 00
        E 0 80 62 00
        E 0 80 54 00
        E 0 80 56 00
        E 0 80 48 00
        E 0 80 4a 00
        E 0 80 3e 00
        E 0 80 18 00
        E 0 80 1f 00
        E 180 90 60 60
        E 0 90 62 60
        E 0 90 54 60
        E 0 90 56 60
        E 0 90 18 60
        E 0 90 1f 60
        E 60 80 60 00
        E 0 80 62 00
        E 0 80 54 00
        E 0 80 56 00
        E 0 80 18 00
        E 0 80 1f 00
        E 180 90 61 60
        E 0 90 62 60
        E 0 90 55 60
        E 0 90 56 60
        E 0 90 49 60
        E 0 90 4a 60
        E 0 90 3d 60
        E 0 90 3e 60
        E 0 90 1a 60
        E 0 90 1f 60
        E 60 80 61 00
        E 0 80 62 00
        E 0 80 55 00
        E 0 80 56 00
        E 0 80 49 00
        E 0 80 4a 00
        E 0 80 3d 00
        E 0 80 3e 00
        E 0 80 1a 00
        E 0 80 1f 00
        E 180 90 60 60
        E 0 90 62 60
        E 0 90 54 60
        E 0 90 56 60
        E 0 90 18 60
        E 0 90 1f 60
        E 60 80 60 00
        E 0 80 62 00
        E 0 80 54 00
        E 0 80 56 00
        E 0 80 18 00
        E 0 80 1f 00
        E 179 80 78 00
        E 0 80 79 00
        E 0 80 7a 00
        E 0 80 7b 00
        E 0 80 7c 00
        E 1 90 60 60
        E 0 90 64 60
        E 0 90 54 60
        E 0 90 58 60
        E 0 90 48 60
        E 0 90 4c 60
        E 0 90 40 60
        E 0 90 18 60
        E 0 90 26 60
        E 60 80 60 00
        E 0 80 64 00
        E 0 80 54 00
        E 0 80 58 00
        E 0 80 48 00
        E 0 80 4c 00
        E 0 80 40 00
        E 0 80 18 00
        E 0 80 26 00
        E 180 90 62 60
        E 0 90 56 60
        E 0 90 1f 60
        E 60 80 62 00
        E 0 80 56 00
        E 0 80 1f 00
        E 180 90 61 60
        E 0 90 62 60
        E 0 90 55 60
        E 0 90 56 60
        E 0 90 49 60
        E 0 90 4a 60
        E 0 90 3d 60
        E 0 90 3e 60
        E 0 90 1a 60
        E 0 90 1f 60
        E 60 80 61 00
        E 0 80 62 00
        E 0 80 55 00
        E 0 80 56 00
        E 0 80 49 00
        E 0 80 4a 00
        E 0 80 3d 00
        E 0 80 3e 00
        E 0 80 1a 00
        E 0 80 1f 00
        E 180 90 62 60
        E 0 90 56 60
        E 0 90 1f 60
        E 60 80 62 00
        E 0 80 56 00
        E 0 80 1f 00
        E 180 90 60 60
        E 0 90 62 60
        E 0 90 54 60
        E 0 90 56 60
        E 0 90 48 60
        E 0 90 4a 60
        E 0 90 3e 60
        E 0 90 18 60
        E 0 90 1f 60
        E 60 80 60 00
        E 0 80 62 00
        E 0 80 54 00
        E 0 80 56 00
        E 0 80 48 00
        E 0 80 4a 00
        E 0 80 3e 00
        E 0 80 18 00
        E 0 80 1f 00
        E 180 90 60 60
        E 0 90 62 60
        E 0 90 54 60
        E 0 90 56 60
        E 0 90 18 60
        E 0 90 1f 60
        E 60 80 60 00
        E 0 80 62 00
        E 0 80 54 00
        E 0 80 56 00
        E 0 80 18 00
        E 0 80 1f 00
        E 180 90 61 60
        E 0 90 62 60
        E 0 90 55 60
        E 0 90 56 60
        E 0 90 49 60
        E 0 90 4a 60
        E 0 90 3d 60
        E 0 90 3e 60
        E 0 90 1a 60
        E 0 90 1f 60
        E 60 80 61 00
        E 0 80 62 00
        E 0 80 55 00
        E 0 80 56 00
        E 0 80 49 00
        E 0 80 4a 00
        E 0 80 3d 00
        E 0 80 3e 00
        E 0 80 1a 00
        E 0 80 1f 00
        E 180 90 60 60
        E 0 90 62 60
        E 0 90 54 60
        E 0 90 56 60
        E 0 90 18 60
        E 0 90 1f 60
        E 60 80 60 00
        E 0 80 62 00
        E 0 80 54 00
        E 0 80 56 00
        E 0 80 18 00
        E 0 80 1f 00
        E 180 90 60 60
        E 0 90 62 60
        E 0 90 54 60
        E 0 90 56 60
        E 0 90 48 60
        E 0 90 4a 60
        E 0 90 3e 60
        E 0 90 18 60
        E 0 90 1f 60
        E 60 80 60 00
        E 0 80 62 00
        E 0 80 54 00
        E 0 80 56 00
        E 0 80 48 00
        E 0 80 4a 00
        E 0 80 3e 00
        E 0 80 18 00
        E 0 80 1f 00
        E 180 90 62 60
        E 0 90 56 60
        E 0 90 1f 60
        E 60 80 62 00
        E 0 80 56 00
        E 0 80 1f 00
        E 180 90 61 60
        E 0 90 62 60
        E 0 90 55 60
        E 0 90 56 60
        E 0 90 49 60
        E 0 90 4a 60
        E 0 90 3d 60
        E 0 90 3e 60
        E 0 90 1a 60
        E 0 90 1f 60
        E 60 80 61 00
        E 0 80 62 00
        E 0 80 55 00
        E 0 80 56 00
        E 0 80 49 00
        E 0 80 4a 00
        E 0 80 3d 00
        E 0 80 3e 00
        E 0 80 1a 00
        E 0 80 1f 00
        E 180 90 62 60
        E 0 90 56 60
        E 0 90 1f 60
        E 60 80 62 00
        E 0 80 56 00
        E 0 80 1f 00
        E 180 90 60 60
        E 0 90 62 60
        E 0 90 54 60
        E 0 90 56 60
        E 0 90 48 60
        E 0 90 4a 60
        E 0 90 3e 60
        E 0 90 18 60
        E 0 90 1f 60
        E 60 80 60 00
        E 0 80 62 00
        E 0 80 54 00
        E 0 80 56 00
        E 0 80 48 00
        E 0 80 4a 00
        E 0 80 3e 00
        E 0 80 18 00
        E 0 80 1f 00
        E 60 90 61 60
        E 0 90 1a 60
        E 60 80 61 00
        E 0 80 1a 00
        E 60 90 60 60
        E 0 90 62 60
        E 0 90 54 60
        E 0 90 56 60
        E 0 90 18 60
        E 0 90 1f 60
        E 60 80 60 00
        E 0 80 62 00
        E 0 80 54 00
        E 0 80 56 00
        E 0 80 18 00
        E 0 80 1f 00
        E 180 90 61 60
        E 0 90 62 60
        E 0 90 55 60
        E 0 90 56 60
        E 0 90 49 60
        E 0 90 4a 60
        E 0 90 3d 60
        E 0 90 3e 60
        E 0 90 1a 60
        E 0 90 1f 60
        E 60 80 61 00
        E 0 80 62 00
        E 0 80 55 00
        E 0 80 56 00
        E 0 80 49 00
        E 0 80 4a 00
        E 0 80 3d 00
        E 0 80 3e 00
        E 0 80 1a 00
        E 0 80 1f 00
        E 180 90 60 60
        E 0 90 62 60
        E 0 90 54 60
        E 0 90 56 60
        E 0 90 18 60
        E 0 90 1f 60
        E 60 80 60 00
        E 0 80 62 00
        E 0 80 54 00
        E 0 80 56 00
        E 0 80 18 00
        E 0 80 1f 00
        E 180 90 60 60
        E 0 90 64 60
        E 0 90 54 60
        E 0 90 58 60
        E 0 90 48 60
        E 0 90 4c 60
        E 0 90 40 60
        E 0 90 18 60
        E 0 90 26 60
        E 60 80 60 00
        E 0 80 64 00
        E 0 80 54 00
        E 0 80 58 00
        E 0 80 48 00
        E 0 80 4c 00
        E 0 80 40 00
        E 0 80 18 00
        E 0 80 26 00
        E 180 90 62 60
        E 0 90 56 60
        E 0 90 1f 60
        E 60 80 62 00
        E 0 80 56 00
        E 0 80 1f 00
        E 180 90 61 60
        E 0 90 62 60
        E 0 90 55 60
        E 0 90 56 60
        E 0 90 49 60
        E 0 90 4a 60
        E 0 90 3d 60
        E 0 90 3e 60
        E 0 90 1a 60
        E 0 90 1f 60
        E 60 80 61 00
        E 0 80 62 00
        E 0 80 55 00
        E 0 80 56 00
        E 0 80 49 00
        E 0 80 4a 00
        E 0 80 3d 00
        E 0 80 3e 00
        E 0 80 1a 00
        E 0 80 1f 00
        E 180 90 62 60
        E 0 90 56 60
        E 0 90 1f 60
        E 60 80 62 00
        E 0 80 56 00
        E 0 80 1f 00
        E 180 90 60 60
        E 0 90 62 60
        E 0 90 54 60
        E 0 90 56 60
        E 0 90 48 60
        E 0 90 4a 60
        E 0 90 3e 60
        E 0 90 18 60
        E 0 90 1f 60
        E 60 80 60 00
        E 0 80 62 00
        E 0 80 54 00
        E 0 80 56 00
        E 0 80 48 00
        E 0 80 4a 00
        E 0 80 3e 00
        E 0 80 18 00
        E 0 80 1f 00
        E 180 90 60 60
        E 0 90 62 60
        E 0 90 54 60
        E 0 90 56 60
        E 0 90 18 60
        E 0 90 1f 60
        E 60 80 60 00
        E 0 80 62 00
        E 0 80 54 00
        E 0 80 56 00
        E 0 80 18 00
        E 0 80 1f 00
        E 180 90 61 60
        E 0 90 62 60
        E 0 90 55 60
        E 0 90 56 60
        E 0 90 49 60
        E 0 90 4a 60
        E 0 90 3d 60
        E 0 90 3e 60
        E 0 90 1a 60
        E 0 90 1f 60
        E 60 80 61 00
        E 0 80 62 00
        E 0 80 55 00
        E 0 80 56 00
        E 0 80 49 00
        E 0 80 4a 00
        E 0 80 3d 00
        E 0 80 3e 00
        E 0 80 1a 00
        E 0 80 1f 00
        E 180 90 60 60
        E 0 90 62 60
        E 0 90 54 60
        E 0 90 56 60
        E 0 90 18 60
        E 0 90 1f 60
        E 60 80 60 00
        E 0 80 62 00
        E 0 80 54 00
        E 0 80 56 00
        E 0 80 18 00
        E 0 80 1f 00
        E 180 90 60 60
        E 0 90 62 60
        E 0 90 54 60
        E 0 90 56 60
        E 0 90 48 60
        E 0 90 4a 60
        E 0 90 3e 60
        E 0 90 18 60
        E 0 90 1f 60
        E 60 80 60 00
        E 0 80 62 00
        E 0 80 54 00
        E 0 80 56 00
        E 0 80 48 00
        E 0 80 4a 00
        E 0 80 3e 00
        E 0 80 18 00
        E 0 80 1f 00
        E 180 90 62 60
        E 0 90 56 60
        E 0 90 1f 60
        E 60 80 62 00
        E 0 80 56 00
        E 0 80 1f 00
        E 180 90 61 60
        E 0 90 62 60
        E 0 90 55 60
        E 0 90 56 60
        E 0 90 49 60
        E 0 90 4a 60
        E 0 90 3d 60
        E 0 90 3e 60
        E 0 90 1a 60
        E 0 90 1f 60
        E 60 80 61 00
        E 0 80 62 00
        E 0 80 55 00
        E 0 80 56 00
        E 0 80 49 00
        E 0 80 4a 00
        E 0 80 3d 00
        E 0 80 3e 00
        E 0 80 1a 00
        E 0 80 1f 00
        E 180 90 62 60
        E 0 90 56 60
        E 0 90 1f 60
        E 60 80 62 00
        E 0 80 56 00
        E 0 80 1f 00
        E 180 90 60 60
        E 0 90 62 60
        E 0 90 54 60
        E 0 90 56 60
        E 0 90 48 60
        E 0 90 4a 60
        E 0 90 3e 60
        E 0 90 18 60
        E 0 90 1f 60
        E 60 80 60 00
        E 0 80 62 00
        E 0 80 54 00
        E 0 80 56 00
        E 0 80 48 00
        E 0 80 4a 00
        E 0 80 3e 00
        E 0 80 18 00
        E 0 80 1f 00
        E 180 90 60 60
        E 0 90 62 60
        E 0 90 54 60
        E 0 90 56 60
        E 0 90 18 60
        E 0 90 1f 60
        E 60 80 60 00
        E 0 80 62 00
        E 0 80 54 00
        E 0 80 56 00
        E 0 80 18 00
        E 0 80 1f 00
        E 180 90 61 60
        E 0 90 62 60
        E 0 90 55 60
        E 0 90 56 60
        E 0 90 49 60
        E 0 90 4a 60
        E 0 90 3d 60
        E 0 90 3e 60
        E 0 90 1a 60
        E 0 90 1f 60
        E 60 80 61 00
        E 0 80 62 00
        E 0 80 55 00
        E 0 80 56 00
        E 0 80 49 00
        E 0 80 4a 00
        E 0 80 3d 00
        E 0 80 3e 00
        E 0 80 1a 00
        E 0 80 1f 00
        E 180 90 60 60
        E 0 90 62 60
        E 0 90 54 60
        E 0 90 56 60
        E 0 90 18 60
        E 0 90 1f 60
        E 60 80 60 00
        E 0 80 62 00
        E 0 80 54 00
        E 0 80 56 00
        E 0 80 18 00
        E 0 80 1f 00
        E 180 90 60 60
        E 0 90 64 60
        E 0 90 54 60
        E 0 90 58 60
        E 0 90 48 60
        E 0 90 4c 60
        E 0 90 40 60
        E 0 90 18 60
        E 0 90 26 60
        E 60 80 60 00
        E 0 80 64 00
        E 0 80 54 00
        E 0 80 58 00
        E 0 80 48 00
        E 0 80 4c 00
        E 0 80 40 00
        E 0 80 18 00
        E 0 80 26 00
        E 180 90 62 60
        E 0 90 56 60
        E 0 90 1f 60
        E 60 80 62 00
        E 0 80 56 00
        E 0 80 1f 00
        E 180 90 61 60
        E 0 90 62 60
        E 0 90 55 60
        E 0 90 56 60
        E 0 90 49 60
        E 0 90 4a 60
        E 0 90 3d 60
        E 0 90 3e 60
        E 0 90 1a 60
        E 0 90 1f 60
        E 60 80 61 00
        E 0 80 62 00
        E 0 80 55 00
        E 0 80 56 00
        E 0 80 49 00
        E 0 80 4a 00
        E 0 80 3d 00
        E 0 80 3e 00
        E 0 80 1a 00
        E 0 80 1f 00
        E 180 90 62 60
        E 0 90 56 60
        E 0 90 1f 60
        E 60 80 62 00
        E 0 80 56 00
        E 0 80 1f 00
        E 180 90 60 60
        E 0 90 62 60
        E 0 90 54 60
        E 0 90 56 60
        E 0 90 48 60
        E 0 90 4a 60
        E 0 90 3e 60
        E 0 90 18 60
        E 0 90 1f 60
        E 60 80 60 00
        E 0 80 62 00
        E 0 80 54 00
        E 0 80 56 00
        E 0 80 48 00
        E 0 80 4a 00
        E 0 80 3e 00
        E 0 80 18 00
        E 0 80 1f 00
        E 180 90 60 60
        E 0 90 62 60
        E 0 90 54 60
        E 0 90 56 60
        E 0 90 18 60
        E 0 90 1f 60
        E 60 80 60 00
        E 0 80 62 00
        E 0 80 54 00
        E 0 80 56 00
        E 0 80 18 00
        E 0 80 1f 00
        E 180 90 61 60
        E 0 90 62 60
        E 0 90 55 60
        E 0 90 56 60
        E 0 90 49 60
        E 0 90 4a 60
        E 0 90 3d 60
        E 0 90 3e 60
        E 0 90 1a 60
        E 0 90 1f 60
        E 60 80 61 00
        E 0 80 62 00
        E 0 80 55 00
        E 0 80 56 00
        E 0 80 49 00
        E 0 80 4a 00
        E 0 80 3d 00
        E 0 80 3e 00
        E 0 80 1a 00
        E 0 80 1f 00
        E 180 90 60 60
        E 0 90 62 60
        E 0 90 54 60
        E 0 90 56 60
        E 0 90 18 60
        E 0 90 1f 60
        E 60 80 60 00
        E 0 80 62 00
        E 0 80 54 00
        E 0 80 56 00
        E 0 80 18 00
        E 0 80 1f 00
        E 180 90 60 60
        E 0 90 62 60
        E 0 90 54 60
        E 0 90 56 60
        E 0 90 48 60
        E 0 90 4a 60
        E 0 90 3e 60
        E 0 90 18 60
        E 0 90 1f 60
        E 60 80 60 00
        E 0 80 62 00
        E 0 80 54 00
        E 0 80 56 00
        E 0 80 48 00
        E 0 80 4a 00
        E 0 80 3e 00
        E 0 80 18 00
        E 0 80 1f 00
        E 180 90 60 60
        E 0 90 62 60
        E 0 90 54 60
        E 0 90 56 60
        E 0 90 18 60
        E 0 90 1f 60
        E 60 80 60 00
        E 0 80 62 00
        E 0 80 54 00
        E 0 80 56 00
        E 0 80 18 00
        E 0 80 1f 00
        E 180 90 61 60
        E 0 90 62 60
        E 0 90 55 60
        E 0 90 56 60
        E 0 90 49 60
        E 0 90 4a 60
        E 0 90 3d 60
        E 0 90 3e 60
        E 0 90 1a 60
        E 0 90 1f 60
        E 60 80 61 00
        E 0 80 62 00
        E 0 80 55 00
        E 0 80 56 00
        E 0 80 49 00
        E 0 80 4a 00
        E 0 80 3d 00
        E 0 80 3e 00
        E 0 80 1a 00
        E 0 80 1f 00
        E 180 90 62 60
        E 0 90 56 60
        E 0 90 1f 60
        E 60 80 62 00
        E 0 80 56 00
        E 0 80 1f 00
        E 180 90 60 60
        E 0 90 62 60
        E 0 90 54 60
        E 0 90 56 60
        E 0 90 48 60
        E 0 90 4a 60
        E 0 90 3e 60
        E 0 90 18 60
        E 0 90 1f 60
        E 60 80 60 00
        E 0 80 62 00
        E 0 80 54 00
        E 0 80 56 00
        E 0 80 48 00
        E 0 80 4a 00
        E 0 80 3e 00
        E 0 80 18 00
        E 0 80 1f 00
        E 180 90 60 60
        E 0 90 62 60
        E 0 90 54 60
        E 0 90 56 60
        E 0 90 18 60
        E 0 90 1f 60
        E 60 80 60 00
        E 0 80 62 00
        E 0 80 54 00
        E 0 80 56 00
        E 0 80 18 00
        E 0 80 1f 00
        E 180 90 61 60
        E 0 90 62 60
        E 0 90 55 60
        E 0 90 56 60
        E 0 90 49 60
        E 0 90 4a 60
        E 0 90 3d 60
        E 0 90 3e 60
        E 0 90 1a 60
        E 0 90 1f 60
        E 60 80 61 00
        E 0 80 62 00
        E 0 80 55 00
        E 0 80 56 00
        E 0 80 49 00
        E 0 80 4a 00
        E 0 80 3d 00
        E 0 80 3e 00
        E 0 80 1a 00
        E 0 80 1f 00
        E 180 90 60 60
        E 0 90 62 60
        E 0 90 54 60
        E 0 90 56 60
        E 0 90 18 60
        E 0 90 1f 60
        E 60 80 60 00
        E 0 80 62 00
        E 0 80 54 00
        E 0 80 56 00
        E 0 80 18 00
        E 0 80 1f 00
        E 180 90 60 60
        E 0 90 63 60
        E 0 90 64 60
        E 0 90 54 60
        E 0 90 57 60
        E 0 90 58 60
        E 0 90 48 60
        E 0 90 4b 60
        E 0 90 4c 60
        E 0 90 3f 60
        E 0 90 40 60
        E 0 90 18 60
        E 0 90 22 60
        E 0 90 26 60
        E 60 80 60 00
        E 0 80 63 00
        E 0 80 64 00
        E 0 80 54 00
        E 0 80 57 00
        E 0 80 58 00
        E 0 80 48 00
        E 0 80 4b 00
        E 0 80 4c 00
        E 0 80 3f 00
        E 0 80 40 00
        E 0 80 18 00
        E 0 80 22 00
        E 0 80 26 00
        <X 480 0
          /wFbaWRsZV9yZWFsdGltZV0=
        >
        E 26340 b0 7b 00
        GUID {99C52F88-C54B-4CCD-B038-A5C950AC8E6E}
        IGNTEMPO 0 120.00000000 4 4
        SRCCOLOR 1235
        VELLANE 132 38 60
        COLORMAP "C:\Users\wejaa\AppData\Roaming\REAPER\Data\color_maps\rockband_drums.png"
        TEXTSTRINGFILE "Text Events List.txt"
        CFGEDITVIEW -38140.698216 5.237450 6 12 0 0 0
        CFGEDIT 1 1 0 0 0 1 1 1 1 1 1 0.12500000 -8 -8 1370 736 1 0 1 2 0.00000000 0 0 0 0 0.500000 1 0 1.000000 64
        KEYSNAP 0 0 "102034050607" 0 "Major"
        EVTFILTER 0 -1 -1 -1 -1 0 1 0 0 -1.00000000 -1.00000000
      >
    >
  >
  <TRACK '{218D608A-3DD8-4B7B-9BE0-491D214F35A2}'
    NAME "2_bass"
    PEAKCOL 16576
    BEAT -1
    AUTOMODE 0
    VOLPAN 1.39288064923275 0.00000000000000 -1.00000000000000 -1.00000000000000 1.00000000000000
    MUTESOLO 0 0 0
    IPHASE 0
    ISBUS 0 0
    BUSCOMP 0 0
    SHOWINMIX 1 0.666700 0.500000 1 0.500000 -1 -1 -1
    FREEMODE 0
    SEL 0
    REC 0 0 0 0 0 0 0
    VU 2
    TRACKHEIGHT 165 0
    INQ 0 0 0 0.5000000000 100 0 0 100
    NCHAN 2
    FX 1
    TRACKID {218D608A-3DD8-4B7B-9BE0-491D214F35A2}
    PERF 0
    MIDIOUT -1
    MAINSEND 1 0
    <ITEM
      POSITION 3.94614199176431
      SNAPOFFS 0.00000000000000
      LENGTH 181.95156462585035
      LOOP 0
      ALLTAKES 0
      SEL 0
      FADEIN 1 0.000000 0.000000 1 0
      FADEOUT 1 0.000000 0.000000 1 0
      MUTE 0
      IGUID {28F65A91-488B-49E4-8155-270F4D87C7E5}
      IID 70
      NAME "2_bass.wav"
      VOLPAN 1.000000 0.000000 1.000000 -1.000000
      SOFFS 0.00000000000000
      PLAYRATE 1.00000000000000 1 0.00000000000000 -1
      CHANMODE 0
      GUID {70017D3B-D91B-456F-ABEE-4F0A71254958}
      <SOURCE WAVE
        FILE "2_bass.wav"
      >
    >
  >
  <TRACK '{70C3FE4D-3BC3-4146-95C4-8AC455A2D0F5}'
    NAME "PART BASS"
    PEAKCOL 16777471
    BEAT -1
    AUTOMODE 0
    VOLPAN 1.39288064923275 0.00000000000000 -1.00000000000000 -1.00000000000000 1.00000000000000
    MUTESOLO 0 0 0
    IPHASE 0
    ISBUS 0 0
    BUSCOMP 1 0
    SHOWINMIX 1 0.666700 0.500000 1 0.500000 -1 -1 -1
    FREEMODE 0
    SEL 0
    REC 0 4096 1 0 0 0 0
    TRACKHEIGHT 58 0
    INQ 0 0 0 0.5000000000 100 0 0 100
    NCHAN 2
    FX 1
    TRACKID {70C3FE4D-3BC3-4146-95C4-8AC455A2D0F5}
    PERF 0
    MIDIOUT -1
    <MIDINOTENAMES
      0 96 "EXPERT Green"
      0 97 "EXPERT Red"
      0 98 "EXPERT Yellow"
      0 99 "EXPERT Blue"
      0 100 "EXPERT Orange"
      0 84 "HARD Green"
      0 85 "HARD Red"
      0 86 "HARD Yellow"
      0 87 "HARD Blue"
      0 88 "HARD Orange"
      0 91 "----"
      0 116 "OVERDRIVE"
      0 40 "Left Hand Lowest"
      0 59 "Left Hand Highest"
      0 58 "-"
      0 57 "-"
      0 56 "-"
      0 55 "-"
      0 54 "-"
      0 53 "-"
      0 52 "-"
      0 51 "-"
      0 50 "-"
      0 49 "-"
      0 47 "-"
      0 48 "-"
      0 46 "-"
      0 45 "-"
      0 44 "-"
      0 43 "-"
      0 42 "-"
      0 41 "-"
      0 111 "----"
      0 72 "MEDIUM Green"
      0 73 "MEDIUM Red"
      0 74 "MEDIUM Yellow"
      0 75 "MEDIUM Blue"
      0 76 "MEDIUM Orange"
      0 60 "EASY Green"
      0 61 "EASY Red"
      0 62 "EASY Yellow"
      0 63 "EASY Blue"
      0 64 "EASY Orange"
      0 68 "----"
      0 80 "----"
      0 102 "Force HOPO Off"
      0 101 "Force HOPO On"
      0 120 "BRE (use all 5)"
      0 121 "BRE"
      0 122 "BRE"
      0 123 "BRE"
      0 124 "BRE"
      0 119 "----"
      0 90 "Force HOPO Off"
      0 89 "Force HOPO On"
      0 127 "Trill Marker"
      0 125 "----"
      0 103 "Solo Marker"
      0 126 "Strum Marker"
    >
    MAINSEND 1 0
    <FXCHAIN
      WNDRECT -922 469 878 585
      SHOW 0
      LASTSEL 1
      DOCKED 0
      BYPASS 1 0
      <VST "VSTi: ReaSynth (Cockos)" "reasynth.dll" 0 ""
        eXNlcu9e7f4AAAAAAgAAAAEAAAAAAAAAAgAAAAAAAAA4AAAAAAAAAA==
        AAAAAO++rd4N8K3eAAAAAAAAAAAAAAAAAAAAADm0SD59y9s+tbSxOQ==
        AAAAALbz/T5VpCs6AAAAAAAAAAAAAAAAAAA=
      >
      FLOATPOS 0 0 0 0
      FXID {D4EC3C58-478E-4D1F-A0FC-2252BD344989}
      WAK 0
      BYPASS 0 0
      <VST "VSTi: RBN Preview (RBN)" "rbprev_vst64_beta.dll" 0 ""
        dnBicu5e7f4AAAAAAgAAAAEAAAAAAAAAAgAAAAAAAAAEAAAAAQAAAA==
        AAAAAAMAqgAAAAAAAAA=
      >
      FLOATPOS 32 32 659 497
      FXID {72D22271-4F4F-4081-90C4-66415E7AEC47}
      WAK 0
    >
    <ITEM
      POSITION 0.00000000000000
      SNAPOFFS 0.00000000000000
      LENGTH 204.57948757262307
      LOOP 0
      ALLTAKES 0
      SEL 0
      FADEIN 1 0.000000 0.000000 1 0
      FADEOUT 1 0.000000 0.000000 1 0
      MUTE 0
      IGUID {A1B24BBF-93B7-476C-BC6D-33F5621C633F}
      IID 8
      NAME "PART BASS"
      VOLPAN 1.000000 0.000000 1.000000 -1.000000
      SOFFS 0.00000000000000 0.00000000000000
      PLAYRATE 1.00000000000000 1 0.00000000000000 -65536
      CHANMODE 0
      GUID {344A7487-35C3-41F9-8B1E-12A4F3D7F336}
      <SOURCE MIDI
        HASDATA 1 480 QN
        POOLEDEVTS {E92C847E-D7FE-47A8-9417-11FAB0615749}
        <X 0 0
          /wNQQVJUIEJBU1M=
        >
        <X 3840 0
          /wFbaWRsZV0=
        >
        <X 3840 0
          /wFbcGxheV0=
        >
        E 0 90 3d 60
        E 0 90 49 60
        E 0 90 55 60
        E 0 90 61 60
        E 120 80 3d 00
        E 0 80 49 00
        E 240 80 55 00
        E 60 80 61 00
        E 60 90 49 60
        E 0 90 55 60
        E 0 90 61 60
        E 120 80 49 00
        E 0 80 55 00
        E 180 80 61 00
        E 180 90 3c 60
        E 0 90 48 60
        E 0 90 54 60
        E 0 90 60 60
        E 60 80 3c 00
        E 0 80 48 00
        E 0 80 54 00
        E 0 80 60 00
        E 180 90 48 60
        E 0 90 54 60
        E 0 90 60 60
        E 60 80 48 00
        E 0 80 54 00
        E 0 80 60 00
        E 180 90 3c 60
        E 0 90 48 60
        E 0 90 54 60
        E 0 90 60 60
        E 60 80 3c 00
        E 0 80 48 00
        E 0 80 54 00
        E 0 80 60 00
        E 180 90 48 60
        E 0 90 54 60
        E 0 90 60 60
        E 120 80 48 00
        E 240 80 54 00
        E 60 80 60 00
        E 60 90 48 60
        E 0 90 54 60
        E 0 90 60 60
        E 60 80 48 00
        E 0 80 54 00
        E 0 80 60 00
        E 180 90 48 60
        E 0 90 54 60
        E 0 90 60 60
        E 60 80 48 00
        E 0 80 54 00
        E 0 80 60 00
        E 180 90 54 60
        E 0 90 60 60
        E 60 80 54 00
        E 0 80 60 00
        E 180 90 3d 60
        E 0 90 49 60
        E 0 90 55 60
        E 0 90 61 60
        E 60 80 3d 00
        E 0 80 49 00
        E 0 80 55 00
        E 0 80 61 00
        E 180 90 49 60
        E 0 90 55 60
        E 0 90 61 60
        E 60 80 49 00
        E 0 80 55 00
        E 0 80 61 00
        E 180 90 3d 60
        E 0 90 49 60
        E 0 90 55 60
        E 0 90 61 60
        E 60 80 3d 00
        E 0 80 49 00
        E 0 80 55 00
        E 0 80 61 00
        E 180 90 49 60
        E 0 90 55 60
        E 0 90 61 60
        E 60 80 49 00
        E 0 80 55 00
        E 0 80 61 00
        E 180 90 3d 60
        E 0 90 49 60
        E 0 90 55 60
        E 0 90 61 60
        E 120 80 3d 00
        E 0 80 49 00
        E 241 80 55 00
        E 60 80 61 00
        E 60 90 49 60
        E 0 90 55 60
        E 0 90 61 60
        E 120 80 49 00
        E 0 80 55 00
        E 180 80 61 00
        E 180 90 3c 60
        E 0 90 48 60
        E 0 90 54 60
        E 0 90 60 60
        E 60 80 3c 00
        E 0 80 48 00
        E 0 80 54 00
        E 0 80 60 00
        E 180 90 48 60
        E 0 90 54 60
        E 0 90 60 60
        E 60 80 48 00
        E 0 80 54 00
        E 0 80 60 00
        E 180 90 3c 60
        E 0 90 48 60
        E 0 90 54 60
        E 0 90 60 60
        E 60 80 3c 00
        E 0 80 48 00
        E 0 80 54 00
        E 0 80 60 00
        E 180 90 48 60
        E 0 90 54 60
        E 0 90 60 60
        E 120 80 48 00
        E 240 80 54 00
        E 60 80 60 00
        E 60 90 48 60
        E 0 90 54 60
        E 0 90 60 60
        E 60 80 48 00
        E 0 80 54 00
        E 0 80 60 00
        E 180 90 48 60
        E 0 90 54 60
        E 0 90 60 60
        E 60 80 48 00
        E 0 80 54 00
        E 0 80 60 00
        E 180 90 54 60
        E 0 90 60 60
        E 60 80 54 00
        E 0 80 60 00
        E 180 90 3d 60
        E 0 90 49 60
        E 0 90 55 60
        E 0 90 61 60
        E 60 80 3d 00
        E 0 80 49 00
        E 0 80 55 00
        E 0 80 61 00
        E 180 90 49 60
        E 0 90 55 60
        E 0 90 61 60
        E 60 80 49 00
        E 0 80 55 00
        E 0 80 61 00
        E 180 90 49 60
        E 0 90 55 60
        E 0 90 61 60
        E 60 80 49 00
        E 0 80 55 00
        E 0 80 61 00
        E 180 90 55 60
        E 0 90 61 60
        E 60 80 55 00
        E 0 80 61 00
        E 179 90 3e 60
        E 0 90 4a 60
        E 0 90 56 60
        E 0 90 62 60
        E 60 80 3e 00
        E 0 80 4a 00
        E 0 80 56 00
        E 0 80 62 00
        E 180 90 4a 60
        E 0 90 56 60
        E 0 90 62 60
        E 60 80 4a 00
        E 0 80 56 00
        E 0 80 62 00
        E 180 90 4a 60
        E 0 90 56 60
        E 0 90 62 60
        E 120 80 4a 00
        E 0 80 56 00
        E 180 80 62 00
        E 180 90 3c 60
        E 0 90 48 60
        E 0 90 54 60
        E 0 90 60 60
        E 60 80 3c 00
        E 0 80 48 00
        E 0 80 54 00
        E 0 80 60 00
        E 180 90 48 60
        E 0 90 54 60
        E 0 90 60 60
        E 60 80 48 00
        E 0 80 54 00
        E 0 80 60 00
        E 180 90 3c 60
        E 0 90 48 60
        E 0 90 54 60
        E 0 90 60 60
        E 60 80 3c 00
        E 0 80 48 00
        E 0 80 54 00
        E 0 80 60 00
        E 180 90 55 60
        E 0 90 61 60
        E 360 80 55 00
        E 60 80 61 00
        E 60 90 49 60
        E 0 90 55 60
        E 0 90 61 60
        E 60 80 49 00
        E 0 80 55 00
        E 0 80 61 00
        E 180 90 49 60
        E 0 90 55 60
        E 0 90 61 60
        E 60 80 49 00
        E 0 80 55 00
        E 0 80 61 00
        E 180 90 55 60
        E 0 90 61 60
        E 60 80 55 00
        E 0 80 61 00
        E 180 90 3c 60
        E 0 90 48 60
        E 0 90 54 60
        E 0 90 60 60
        E 120 80 3c 00
        E 0 80 48 00
        E 240 80 54 00
        E 60 80 60 00
        E 60 90 48 60
        E 0 90 54 60
        E 0 90 60 60
        E 60 80 48 00
        E 0 80 54 00
        E 0 80 60 00
        E 180 90 54 60
        E 0 90 60 60
        E 60 80 54 00
        E 0 80 60 00
        E 180 90 3d 60
        E 0 90 49 60
        E 0 90 55 60
        E 0 90 61 60
        E 60 80 3d 00
        E 0 80 49 00
        E 0 80 55 00
        E 0 80 61 00
        E 180 90 49 60
        E 0 90 55 60
        E 0 90 61 60
        E 60 80 49 00
        E 0 80 55 00
        E 0 80 61 00
        E 180 90 3d 60
        E 0 90 49 60
        E 0 90 55 60
        E 0 90 61 60
        E 60 80 3d 00
        E 0 80 49 00
        E 0 80 55 00
        E 0 80 61 00
        E 180 90 49 60
        E 0 90 55 60
        E 0 90 61 60
        E 60 80 49 00
        E 0 80 55 00
        E 0 80 61 00
        E 180 90 3d 60
        E 0 90 49 60
        E 0 90 55 60
        E 0 90 61 60
        E 60 80 3d 00
        E 0 80 49 00
        E 0 80 55 00
        E 0 80 61 00
        E 180 90 49 60
        E 0 90 55 60
        E 0 90 61 60
        E 60 80 49 00
        E 0 80 55 00
        E 0 80 61 00
        E 180 90 3d 60
        E 0 90 49 60
        E 0 90 55 60
        E 0 90 61 60
        E 60 80 3d 00
        E 0 80 49 00
        E 0 80 55 00
        E 0 80 61 00
        E 180 90 49 60
        E 0 90 55 60
        E 0 90 61 60
        E 60 80 49 00
        E 0 80 55 00
        E 0 80 61 00
        E 180 90 3d 60
        E 0 90 49 60
        E 0 90 55 60
        E 0 90 61 60
        E 60 80 3d 00
        E 0 80 49 00
        E 0 80 55 00
        E 0 80 61 00
        E 180 90 49 60
        E 0 90 55 60
        E 0 90 61 60
        E 60 80 49 00
        E 0 80 55 00
        E 0 80 61 00
        E 180 90 3d 60
        E 0 90 49 60
        E 0 90 55 60
        E 0 90 61 60
        E 60 80 3d 00
        E 0 80 49 00
        E 0 80 55 00
        E 0 80 61 00
        E 180 90 49 60
        E 0 90 55 60
        E 0 90 61 60
        E 60 80 49 00
        E 0 80 55 00
        E 0 80 61 00
        E 180 90 3d 60
        E 0 90 49 60
        E 0 90 55 60
        E 0 90 61 60
        E 60 80 3d 00
        E 0 80 49 00
        E 0 80 55 00
        E 0 80 61 00
        E 180 90 49 60
        E 0 90 55 60
        E 0 90 61 60
        E 60 80 49 00
        E 0 80 55 00
        E 0 80 61 00
        E 180 90 49 60
        E 0 90 55 60
        E 0 90 61 60
        E 60 80 49 00
        E 0 80 55 00
        E 0 80 61 00
        E 180 90 55 60
        E 0 90 61 60
        E 60 80 55 00
        E 0 80 61 00
        E 180 90 3e 60
        E 0 90 4a 60
        E 0 90 56 60
        E 0 90 62 60
        E 60 80 3e 00
        E 0 80 4a 00
        E 0 80 56 00
        E 0 80 62 00
        E 180 90 4a 60
        E 0 90 56 60
        E 0 90 62 60
        E 60 80 4a 00
        E 0 80 56 00
        E 0 80 62 00
        E 180 90 4a 60
        E 0 90 56 60
        E 0 90 62 60
        E 60 80 4a 00
        E 0 80 56 00
        E 0 80 62 00
        E 180 90 56 60
        E 0 90 62 60
        E 60 80 56 00
        E 0 80 62 00
        E 180 90 3c 60
        E 0 90 48 60
        E 0 90 54 60
        E 0 90 60 60
        E 60 80 3c 00
        E 0 80 48 00
        E 0 80 54 00
        E 0 80 60 00
        E 180 90 48 60
        E 0 90 54 60
        E 0 90 60 60
        E 60 80 48 00
        E 0 80 54 00
        E 0 80 60 00
        E 180 90 3c 60
        E 0 90 48 60
        E 0 90 54 60
        E 0 90 60 60
        E 60 80 3c 00
        E 0 80 48 00
        E 0 80 54 00
        E 0 80 60 00
        E 180 90 48 60
        E 0 90 54 60
        E 0 90 60 60
        E 60 80 48 00
        E 0 80 54 00
        E 0 80 60 00
        E 180 90 3c 60
        E 0 90 48 60
        E 0 90 54 60
        E 0 90 60 60
        E 60 80 3c 00
        E 0 80 48 00
        E 0 80 54 00
        E 0 80 60 00
        E 180 90 48 60
        E 0 90 54 60
        E 0 90 60 60
        E 60 80 48 00
        E 0 80 54 00
        E 0 80 60 00
        E 180 90 48 60
        E 0 90 54 60
        E 0 90 60 60
        E 60 80 48 00
        E 0 80 54 00
        E 0 80 60 00
        E 180 90 54 60
        E 0 90 60 60
        E 60 80 54 00
        E 0 80 60 00
        E 180 90 3d 60
        E 0 90 49 60
        E 0 90 55 60
        E 0 90 61 60
        E 60 80 3d 00
        E 0 80 49 00
        E 0 80 55 00
        E 0 80 61 00
        E 180 90 49 60
        E 0 90 55 60
        E 0 90 61 60
        E 60 80 49 00
        E 0 80 55 00
        E 0 80 61 00
        E 180 90 3d 60
        E 0 90 49 60
        E 0 90 55 60
        E 0 90 61 60
        E 60 80 3d 00
        E 0 80 49 00
        E 0 80 55 00
        E 0 80 61 00
        E 180 90 49 60
        E 0 90 55 60
        E 0 90 61 60
        E 60 80 49 00
        E 0 80 55 00
        E 0 80 61 00
        E 180 90 3d 60
        E 0 90 49 60
        E 0 90 55 60
        E 0 90 61 60
        E 60 80 3d 00
        E 0 80 49 00
        E 0 80 55 00
        E 0 80 61 00
        E 180 90 49 60
        E 0 90 55 60
        E 0 90 61 60
        E 60 80 49 00
        E 0 80 55 00
        E 0 80 61 00
        E 180 90 49 60
        E 0 90 55 60
        E 0 90 61 60
        E 60 80 49 00
        E 0 80 55 00
        E 0 80 61 00
        E 180 90 55 60
        E 0 90 61 60
        E 60 80 55 00
        E 0 80 61 00
        E 180 90 3c 60
        E 0 90 48 60
        E 0 90 54 60
        E 0 90 60 60
        E 60 80 3c 00
        E 0 80 48 00
        E 0 80 54 00
        E 0 80 60 00
        E 180 90 48 60
        E 0 90 54 60
        E 0 90 60 60
        E 60 80 48 00
        E 0 80 54 00
        E 0 80 60 00
        E 180 90 3c 60
        E 0 90 48 60
        E 0 90 54 60
        E 0 90 60 60
        E 60 80 3c 00
        E 0 80 48 00
        E 0 80 54 00
        E 0 80 60 00
        E 180 90 48 60
        E 0 90 54 60
        E 0 90 60 60
        E 60 80 48 00
        E 0 80 54 00
        E 0 80 60 00
        E 180 90 3c 60
        E 0 90 48 60
        E 0 90 54 60
        E 0 90 60 60
        E 60 80 3c 00
        E 0 80 48 00
        E 0 80 54 00
        E 0 80 60 00
        E 180 90 48 60
        E 0 90 54 60
        E 0 90 60 60
        E 60 80 48 00
        E 0 80 54 00
        E 0 80 60 00
        E 180 90 48 60
        E 0 90 54 60
        E 0 90 60 60
        E 60 80 48 00
        E 0 80 54 00
        E 0 80 60 00
        E 180 90 54 60
        E 0 90 60 60
        E 60 80 54 00
        E 0 80 60 00
        E 180 90 3d 60
        E 0 90 49 60
        E 0 90 55 60
        E 0 90 61 60
        E 0 90 74 60
        E 60 80 3d 00
        E 0 80 49 00
        E 0 80 55 00
        E 0 80 61 00
        E 180 90 49 60
        E 0 90 55 60
        E 0 90 61 60
        E 60 80 49 00
        E 0 80 55 00
        E 0 80 61 00
        E 180 90 49 60
        E 0 90 55 60
        E 0 90 61 60
        E 60 80 49 00
        E 0 80 55 00
        E 0 80 61 00
        E 180 90 55 60
        E 0 90 61 60
        E 60 80 55 00
        E 0 80 61 00
        E 180 90 3e 60
        E 0 90 4a 60
        E 0 90 56 60
        E 0 90 62 60
        E 60 80 3e 00
        E 0 80 4a 00
        E 0 80 56 00
        E 0 80 62 00
        E 180 90 4a 60
        E 0 90 56 60
        E 0 90 62 60
        E 60 80 4a 00
        E 0 80 56 00
        E 0 80 62 00
        E 180 90 4a 60
        E 0 90 56 60
        E 0 90 62 60
        E 60 80 4a 00
        E 0 80 56 00
        E 0 80 62 00
        E 180 90 56 60
        E 0 90 62 60
        E 60 80 56 00
        E 0 80 62 00
        E 120 80 74 00
        E 60 90 3c 60
        E 0 90 48 60
        E 0 90 54 60
        E 0 90 60 60
        E 60 80 3c 00
        E 0 80 48 00
        E 0 80 54 00
        E 0 80 60 00
        E 180 90 48 60
        E 0 90 54 60
        E 0 90 60 60
        E 60 80 48 00
        E 0 80 54 00
        E 0 80 60 00
        E 180 90 3c 60
        E 0 90 48 60
        E 0 90 54 60
        E 0 90 60 60
        E 60 80 3c 00
        E 0 80 48 00
        E 0 80 54 00
        E 0 80 60 00
        E 180 90 48 60
        E 0 90 54 60
        E 0 90 60 60
        E 60 80 48 00
        E 0 80 54 00
        E 0 80 60 00
        E 180 90 3c 60
        E 0 90 48 60
        E 0 90 54 60
        E 0 90 60 60
        E 60 80 3c 00
        E 0 80 48 00
        E 0 80 54 00
        E 0 80 60 00
        E 180 90 48 60
        E 0 90 54 60
        E 0 90 60 60
        E 60 80 48 00
        E 0 80 54 00
        E 0 80 60 00
        E 180 90 48 60
        E 0 90 54 60
        E 0 90 60 60
        E 60 80 48 00
        E 0 80 54 00
        E 0 80 60 00
        E 180 90 54 60
        E 0 90 60 60
        E 60 80 54 00
        E 0 80 60 00
        E 180 90 3d 60
        E 0 90 49 60
        E 0 90 55 60
        E 0 90 61 60
        E 60 80 3d 00
        E 0 80 49 00
        E 0 80 55 00
        E 0 80 61 00
        E 180 90 49 60
        E 0 90 55 60
        E 0 90 61 60
        E 60 80 49 00
        E 0 80 55 00
        E 0 80 61 00
        E 180 90 3d 60
        E 0 90 49 60
        E 0 90 55 60
        E 0 90 61 60
        E 60 80 3d 00
        E 0 80 49 00
        E 0 80 55 00
        E 0 80 61 00
        E 180 90 49 60
        E 0 90 55 60
        E 0 90 61 60
        E 60 80 49 00
        E 0 80 55 00
        E 0 80 61 00
        E 180 90 3d 60
        E 0 90 49 60
        E 0 90 55 60
        E 0 90 61 60
        E 60 80 3d 00
        E 0 80 49 00
        E 0 80 55 00
        E 0 80 61 00
        E 180 90 49 60
        E 0 90 55 60
        E 0 90 61 60
        E 60 80 49 00
        E 0 80 55 00
        E 0 80 61 00
        E 180 90 49 60
        E 0 90 55 60
        E 0 90 61 60
        E 60 80 49 00
        E 0 80 55 00
        E 0 80 61 00
        E 180 90 55 60
        E 0 90 61 60
        E 60 80 55 00
        E 0 80 61 00
        E 180 90 3c 60
        E 0 90 48 60
        E 0 90 54 60
        E 0 90 60 60
        E 60 80 3c 00
        E 0 80 48 00
        E 0 80 54 00
        E 0 80 60 00
        E 180 90 48 60
        E 0 90 54 60
        E 0 90 60 60
        E 60 80 48 00
        E 0 80 54 00
        E 0 80 60 00
        E 180 90 3c 60
        E 0 90 48 60
        E 0 90 54 60
        E 0 90 60 60
        E 60 80 3c 00
        E 0 80 48 00
        E 0 80 54 00
        E 0 80 60 00
        E 180 90 48 60
        E 0 90 54 60
        E 0 90 60 60
        E 60 80 48 00
        E 0 80 54 00
        E 0 80 60 00
        E 180 90 3c 60
        E 0 90 48 60
        E 0 90 54 60
        E 0 90 60 60
        E 60 80 3c 00
        E 0 80 48 00
        E 0 80 54 00
        E 0 80 60 00
        E 180 90 48 60
        E 0 90 54 60
        E 0 90 60 60
        E 60 80 48 00
        E 0 80 54 00
        E 0 80 60 00
        E 180 90 48 60
        E 0 90 54 60
        E 0 90 60 60
        E 60 80 48 00
        E 0 80 54 00
        E 0 80 60 00
        E 180 90 54 60
        E 0 90 60 60
        E 60 80 54 00
        E 0 80 60 00
        E 180 90 3d 60
        E 0 90 49 60
        E 0 90 55 60
        E 0 90 61 60
        E 60 80 3d 00
        E 0 80 49 00
        E 0 80 55 00
        E 0 80 61 00
        E 180 90 49 60
        E 0 90 55 60
        E 0 90 61 60
        E 60 80 49 00
        E 0 80 55 00
        E 0 80 61 00
        E 180 90 49 60
        E 0 90 55 60
        E 0 90 61 60
        E 60 80 49 00
        E 0 80 55 00
        E 0 80 61 00
        E 180 90 55 60
        E 0 90 61 60
        E 60 80 55 00
        E 0 80 61 00
        E 180 90 3e 60
        E 0 90 4a 60
        E 0 90 56 60
        E 0 90 62 60
        E 60 80 3e 00
        E 0 80 4a 00
        E 0 80 56 00
        E 0 80 62 00
        E 180 90 4a 60
        E 0 90 56 60
        E 0 90 62 60
        E 60 80 4a 00
        E 0 80 56 00
        E 0 80 62 00
        E 180 90 4a 60
        E 0 90 56 60
        E 0 90 62 60
        E 60 80 4a 00
        E 0 80 56 00
        E 0 80 62 00
        E 180 90 56 60
        E 0 90 62 60
        E 60 80 56 00
        E 0 80 62 00
        E 180 90 3e 60
        E 0 90 4b 60
        E 0 90 57 60
        E 0 90 63 60
        E 60 80 3e 00
        E 0 80 4b 00
        E 0 80 57 00
        E 0 80 63 00
        E 180 90 4b 60
        E 0 90 57 60
        E 0 90 63 60
        E 60 80 4b 00
        E 0 80 57 00
        E 0 80 63 00
        E 180 90 3e 60
        E 0 90 4b 60
        E 0 90 57 60
        E 0 90 63 60
        E 60 80 3e 00
        E 0 80 4b 00
        E 0 80 57 00
        E 0 80 63 00
        E 180 90 57 60
        E 0 90 63 60
        E 60 80 57 00
        E 0 80 63 00
        E 180 90 3e 60
        E 0 90 4b 60
        E 0 90 58 60
        E 0 90 64 60
        E 60 80 3e 00
        E 0 80 4b 00
        E 0 80 58 00
        E 0 80 64 00
        E 180 90 4b 60
        E 0 90 58 60
        E 0 90 64 60
        E 60 80 4b 00
        E 0 80 58 00
        E 0 80 64 00
        E 180 90 3e 60
        E 0 90 4b 60
        E 0 90 58 60
        E 0 90 64 60
        E 60 80 3e 00
        E 0 80 4b 00
        E 0 80 58 00
        E 0 80 64 00
        E 180 90 4b 60
        E 0 90 58 60
        E 0 90 64 60
        E 60 80 4b 00
        E 0 80 58 00
        E 0 80 64 00
        E 180 90 3e 60
        E 0 90 4b 60
        E 0 90 58 60
        E 0 90 64 60
        E 60 80 3e 00
        E 0 80 4b 00
        E 0 80 58 00
        E 0 80 64 00
        E 180 90 4b 60
        E 0 90 58 60
        E 0 90 64 60
        E 60 80 4b 00
        E 0 80 58 00
        E 0 80 64 00
        E 180 90 4b 60
        E 0 90 58 60
        E 0 90 64 60
        E 60 80 4b 00
        E 0 80 58 00
        E 0 80 64 00
        E 180 90 58 60
        E 0 90 64 60
        E 60 80 58 00
        E 0 80 64 00
        E 180 90 3e 60
        E 0 90 4a 60
        E 0 90 56 60
        E 0 90 62 60
        E 60 80 3e 00
        E 0 80 4a 00
        E 0 80 56 00
        E 0 80 62 00
        E 180 90 4a 60
        E 0 90 56 60
        E 0 90 62 60
        E 60 80 4a 00
        E 0 80 56 00
        E 0 80 62 00
        E 180 90 4a 60
        E 0 90 56 60
        E 0 90 62 60
        E 60 80 4a 00
        E 0 80 56 00
        E 0 80 62 00
        E 180 90 56 60
        E 0 90 62 60
        E 60 80 56 00
        E 0 80 62 00
        E 180 90 3e 60
        E 0 90 4b 60
        E 0 90 57 60
        E 0 90 63 60
        E 60 80 3e 00
        E 0 80 4b 00
        E 0 80 57 00
        E 0 80 63 00
        E 180 90 4b 60
        E 0 90 57 60
        E 0 90 63 60
        E 60 80 4b 00
        E 0 80 57 00
        E 0 80 63 00
        E 180 90 3e 60
        E 0 90 4b 60
        E 0 90 57 60
        E 0 90 63 60
        E 60 80 3e 00
        E 0 80 4b 00
        E 0 80 57 00
        E 0 80 63 00
        E 180 90 57 60
        E 0 90 63 60
        E 60 80 57 00
        E 0 80 63 00
        E 180 90 3e 60
        E 0 90 4b 60
        E 0 90 58 60
        E 0 90 64 60
        E 60 80 3e 00
        E 0 80 4b 00
        E 0 80 58 00
        E 0 80 64 00
        E 180 90 4b 60
        E 0 90 58 60
        E 0 90 64 60
        E 60 80 4b 00
        E 0 80 58 00
        E 0 80 64 00
        E 180 90 3e 60
        E 0 90 4b 60
        E 0 90 58 60
        E 0 90 64 60
        E 60 80 3e 00
        E 0 80 4b 00
        E 0 80 58 00
        E 0 80 64 00
        E 180 90 4b 60
        E 0 90 58 60
        E 0 90 64 60
        E 60 80 4b 00
        E 0 80 58 00
        E 0 80 64 00
        E 180 90 3e 60
        E 0 90 4b 60
        E 0 90 58 60
        E 0 90 64 60
        E 60 80 3e 00
        E 0 80 4b 00
        E 0 80 58 00
        E 0 80 64 00
        E 180 90 4b 60
        E 0 90 58 60
        E 0 90 64 60
        E 60 80 4b 00
        E 0 80 58 00
        E 0 80 64 00
        E 180 90 4b 60
        E 0 90 58 60
        E 0 90 64 60
        E 60 80 4b 00
        E 0 80 58 00
        E 0 80 64 00
        E 180 90 58 60
        E 0 90 64 60
        E 60 80 58 00
        E 0 80 64 00
        E 180 90 3d 60
        E 0 90 49 60
        E 0 90 55 60
        E 0 90 61 60
        E 60 80 3d 00
        E 0 80 49 00
        E 0 80 55 00
        E 0 80 61 00
        E 180 90 49 60
        E 0 90 55 60
        E 0 90 61 60
        E 0 90 74 64
        E 60 80 49 00
        E 0 80 55 00
        E 0 80 61 00
        E 180 90 49 60
        E 0 90 55 60
        E 0 90 61 60
        E 120 80 49 00
        E 0 80 55 00
        E 180 80 61 00
        E 180 90 3c 60
        E 0 90 48 60
        E 0 90 54 60
        E 0 90 60 60
        E 60 80 3c 00
        E 0 80 48 00
        E 0 80 54 00
        E 0 80 60 00
        E 180 90 48 60
        E 0 90 54 60
        E 0 90 60 60
        E 60 80 48 00
        E 0 80 54 00
        E 0 80 60 00
        E 180 90 3c 60
        E 0 90 48 60
        E 0 90 54 60
        E 0 90 60 60
        E 60 80 3c 00
        E 0 80 48 00
        E 0 80 54 00
        E 0 80 60 00
        E 180 90 48 60
        E 0 90 54 60
        E 0 90 60 60
        E 120 80 48 00
        E 240 80 54 00
        E 60 80 60 00
        E 60 90 48 60
        E 0 90 54 60
        E 0 90 60 60
        E 60 80 48 00
        E 0 80 54 00
        E 0 80 60 00
        E 180 90 48 60
        E 0 90 54 60
        E 0 90 60 60
        E 60 80 48 00
        E 0 80 54 00
        E 0 80 60 00
        E 180 90 54 60
        E 0 90 60 60
        E 60 80 54 00
        E 0 80 60 00
        E 180 90 3d 60
        E 0 90 49 60
        E 0 90 55 60
        E 0 90 61 60
        E 60 80 3d 00
        E 0 80 49 00
        E 0 80 55 00
        E 0 80 61 00
        E 180 90 49 60
        E 0 90 55 60
        E 0 90 61 60
        E 60 80 49 00
        E 0 80 55 00
        E 0 80 61 00
        E 180 90 3d 60
        E 0 90 49 60
        E 0 90 55 60
        E 0 90 61 60
        E 120 80 3d 00
        E 0 80 49 00
        E 240 80 74 00
        E 0 80 55 00
        E 60 80 61 00
        E 60 90 3d 60
        E 0 90 49 60
        E 0 90 55 60
        E 0 90 61 60
        E 60 80 3d 00
        E 0 80 49 00
        E 0 80 55 00
        E 0 80 61 00
        E 180 90 49 60
        E 0 90 55 60
        E 0 90 61 60
        E 60 80 49 00
        E 0 80 55 00
        E 0 80 61 00
        E 180 90 49 60
        E 0 90 55 60
        E 0 90 61 60
        E 120 80 49 00
        E 0 80 55 00
        E 180 80 61 00
        E 180 90 3c 60
        E 0 90 48 60
        E 0 90 54 60
        E 0 90 60 60
        E 60 80 3c 00
        E 0 80 48 00
        E 0 80 54 00
        E 0 80 60 00
        E 180 90 48 60
        E 0 90 54 60
        E 0 90 60 60
        E 60 80 48 00
        E 0 80 54 00
        E 0 80 60 00
        E 180 90 3c 60
        E 0 90 48 60
        E 0 90 54 60
        E 0 90 60 60
        E 60 80 3c 00
        E 0 80 48 00
        E 0 80 54 00
        E 0 80 60 00
        E 180 90 48 60
        E 0 90 54 60
        E 0 90 60 60
        E 120 80 48 00
        E 240 80 54 00
        E 60 80 60 00
        E 60 90 48 60
        E 0 90 54 60
        E 0 90 60 60
        E 60 80 48 00
        E 0 80 54 00
        E 0 80 60 00
        E 180 90 48 60
        E 0 90 54 60
        E 0 90 60 60
        E 60 80 48 00
        E 0 80 54 00
        E 0 80 60 00
        E 180 90 54 60
        E 0 90 60 60
        E 60 80 54 00
        E 0 80 60 00
        E 180 90 3d 60
        E 0 90 49 60
        E 0 90 55 60
        E 0 90 61 60
        E 60 80 3d 00
        E 0 80 49 00
        E 0 80 55 00
        E 0 80 61 00
        E 180 90 49 60
        E 0 90 55 60
        E 0 90 61 60
        E 60 80 49 00
        E 0 80 55 00
        E 0 80 61 00
        E 180 90 49 60
        E 0 90 55 60
        E 0 90 61 60
        E 120 80 49 00
        E 0 80 55 00
        E 180 80 61 00
        E 180 90 3e 60
        E 0 90 4a 60
        E 0 90 56 60
        E 0 90 62 60
        E 60 80 3e 00
        E 0 80 4a 00
        E 0 80 56 00
        E 0 80 62 00
        E 180 90 4a 60
        E 0 90 56 60
        E 0 90 62 60
        E 60 80 4a 00
        E 0 80 56 00
        E 0 80 62 00
        E 180 90 4a 60
        E 0 90 56 60
        E 0 90 62 60
        E 120 80 4a 00
        E 0 80 56 00
        E 180 80 62 00
        E 180 90 3c 60
        E 0 90 48 60
        E 0 90 54 60
        E 0 90 60 60
        E 60 80 3c 00
        E 0 80 48 00
        E 0 80 54 00
        E 0 80 60 00
        E 180 90 48 60
        E 0 90 54 60
        E 0 90 60 60
        E 60 80 48 00
        E 0 80 54 00
        E 0 80 60 00
        E 180 90 3c 60
        E 0 90 48 60
        E 0 90 54 60
        E 0 90 60 60
        E 60 80 3c 00
        E 0 80 48 00
        E 0 80 54 00
        E 0 80 60 00
        E 180 90 55 60
        E 0 90 61 60
        E 360 80 55 00
        E 60 80 61 00
        E 60 90 49 60
        E 0 90 55 60
        E 0 90 61 60
        E 60 80 49 00
        E 0 80 55 00
        E 0 80 61 00
        E 180 90 49 60
        E 0 90 55 60
        E 0 90 61 60
        E 60 80 49 00
        E 0 80 55 00
        E 0 80 61 00
        E 180 90 55 60
        E 0 90 61 60
        E 60 80 55 00
        E 0 80 61 00
        E 180 90 3c 60
        E 0 90 48 60
        E 0 90 54 60
        E 0 90 60 60
        E 60 80 3c 00
        E 0 80 48 00
        E 0 80 54 00
        E 0 80 60 00
        E 180 90 48 60
        E 0 90 54 60
        E 0 90 60 60
        E 60 80 48 00
        E 0 80 54 00
        E 0 80 60 00
        E 180 90 48 60
        E 0 90 54 60
        E 0 90 60 60
        E 60 80 48 00
        E 0 80 54 00
        E 0 80 60 00
        E 180 90 54 60
        E 0 90 60 60
        E 60 80 54 00
        E 0 80 60 00
        E 180 90 3d 60
        E 0 90 49 60
        E 0 90 55 60
        E 0 90 61 60
        E 60 80 3d 00
        E 0 80 49 00
        E 0 80 55 00
        E 0 80 61 00
        E 180 90 49 60
        E 0 90 55 60
        E 0 90 61 60
        E 60 80 49 00
        E 0 80 55 00
        E 0 80 61 00
        E 180 90 3d 60
        E 0 90 49 60
        E 0 90 55 60
        E 0 90 61 60
        E 60 80 3d 00
        E 0 80 49 00
        E 0 80 55 00
        E 0 80 61 00
        E 180 90 49 60
        E 0 90 55 60
        E 0 90 61 60
        E 60 80 49 00
        E 0 80 55 00
        E 0 80 61 00
        E 180 90 3d 60
        E 0 90 49 60
        E 0 90 55 60
        E 0 90 61 60
        E 60 80 3d 00
        E 0 80 49 00
        E 0 80 55 00
        E 0 80 61 00
        E 180 90 49 60
        E 0 90 55 60
        E 0 90 61 60
        E 60 80 49 00
        E 0 80 55 00
        E 0 80 61 00
        E 180 90 3d 60
        E 0 90 49 60
        E 0 90 55 60
        E 0 90 61 60
        E 60 80 3d 00
        E 0 80 49 00
        E 0 80 55 00
        E 0 80 61 00
        E 180 90 49 60
        E 0 90 55 60
        E 0 90 61 60
        E 60 80 49 00
        E 0 80 55 00
        E 0 80 61 00
        E 180 90 3d 60
        E 0 90 49 60
        E 0 90 55 60
        E 0 90 61 60
        E 60 80 3d 00
        E 0 80 49 00
        E 0 80 55 00
        E 0 80 61 00
        E 180 90 49 60
        E 0 90 55 60
        E 0 90 61 60
        E 60 80 49 00
        E 0 80 55 00
        E 0 80 61 00
        E 180 90 3d 60
        E 0 90 49 60
        E 0 90 55 60
        E 0 90 61 60
        E 60 80 3d 00
        E 0 80 49 00
        E 0 80 55 00
        E 0 80 61 00
        E 180 90 49 60
        E 0 90 55 60
        E 0 90 61 60
        E 60 80 49 00
        E 0 80 55 00
        E 0 80 61 00
        E 180 90 3d 60
        E 0 90 49 60
        E 0 90 55 60
        E 0 90 61 60
        E 60 80 3d 00
        E 0 80 49 00
        E 0 80 55 00
        E 0 80 61 00
        E 2820 90 3c 60
        E 0 90 48 60
        E 0 90 54 60
        E 0 90 60 60
        E 0 90 74 60
        E 120 80 3c 00
        E 0 80 48 00
        E 240 80 54 00
        E 60 80 60 00
        E 60 90 48 60
        E 0 90 54 60
        E 0 90 60 60
        E 60 80 48 00
        E 0 80 54 00
        E 0 80 60 00
        E 180 90 54 60
        E 0 90 60 60
        E 60 80 54 00
        E 0 80 60 00
        E 180 90 3d 60
        E 0 90 49 60
        E 0 90 55 60
        E 0 90 61 60
        E 60 80 3d 00
        E 0 80 49 00
        E 0 80 55 00
        E 0 80 61 00
        E 180 90 49 60
        E 0 90 55 60
        E 0 90 61 60
        E 60 80 49 00
        E 0 80 55 00
        E 0 80 61 00
        E 180 90 3d 60
        E 0 90 49 60
        E 0 90 55 60
        E 0 90 61 60
        E 60 80 3d 00
        E 0 80 49 00
        E 0 80 55 00
        E 0 80 61 00
        E 180 90 56 60
        E 0 90 62 60
        E 360 80 56 00
        E 60 80 62 00
        E 60 80 74 00
        E 0 90 4a 60
        E 0 90 56 60
        E 0 90 62 60
        E 60 80 4a 00
        E 0 80 56 00
        E 0 80 62 00
        E 180 90 4a 60
        E 0 90 56 60
        E 0 90 62 60
        E 60 80 4a 00
        E 0 80 56 00
        E 0 80 62 00
        E 180 90 56 60
        E 0 90 62 60
        E 60 80 56 00
        E 0 80 62 00
        E 180 90 3c 60
        E 0 90 48 60
        E 0 90 54 60
        E 0 90 60 60
        E 60 80 3c 00
        E 0 80 48 00
        E 0 80 54 00
        E 0 80 60 00
        E 180 90 48 60
        E 0 90 54 60
        E 0 90 60 60
        E 60 80 48 00
        E 0 80 54 00
        E 0 80 60 00
        E 180 90 3c 60
        E 0 90 48 60
        E 0 90 54 60
        E 0 90 60 60
        E 60 80 3c 00
        E 0 80 48 00
        E 0 80 54 00
        E 0 80 60 00
        E 180 90 48 60
        E 0 90 54 60
        E 0 90 60 60
        E 60 80 48 00
        E 0 80 54 00
        E 0 80 60 00
        E 180 90 3c 60
        E 0 90 48 60
        E 0 90 54 60
        E 0 90 60 60
        E 60 80 3c 00
        E 0 80 48 00
        E 0 80 54 00
        E 0 80 60 00
        E 180 90 48 60
        E 0 90 54 60
        E 0 90 60 60
        E 60 80 48 00
        E 0 80 54 00
        E 0 80 60 00
        E 180 90 48 60
        E 0 90 54 60
        E 0 90 60 60
        E 60 80 48 00
        E 0 80 54 00
        E 0 80 60 00
        E 180 90 54 60
        E 0 90 60 60
        E 60 80 54 00
        E 0 80 60 00
        E 180 90 3d 60
        E 0 90 49 60
        E 0 90 55 60
        E 0 90 61 60
        E 60 80 3d 00
        E 0 80 49 00
        E 0 80 55 00
        E 0 80 61 00
        E 180 90 49 60
        E 0 90 55 60
        E 0 90 61 60
        E 60 80 49 00
        E 0 80 55 00
        E 0 80 61 00
        E 180 90 49 60
        E 0 90 55 60
        E 0 90 61 60
        E 60 80 49 00
        E 0 80 55 00
        E 0 80 61 00
        E 180 90 55 60
        E 0 90 61 60
        E 60 80 55 00
        E 0 80 61 00
        E 180 90 3e 60
        E 0 90 4a 60
        E 0 90 56 60
        E 0 90 62 60
        E 60 80 3e 00
        E 0 80 4a 00
        E 0 80 56 00
        E 0 80 62 00
        E 180 90 4a 60
        E 0 90 56 60
        E 0 90 62 60
        E 60 80 4a 00
        E 0 80 56 00
        E 0 80 62 00
        E 180 90 4a 60
        E 0 90 56 60
        E 0 90 62 60
        E 60 80 4a 00
        E 0 80 56 00
        E 0 80 62 00
        E 180 90 56 60
        E 0 90 62 60
        E 60 80 56 00
        E 0 80 62 00
        E 180 90 3c 60
        E 0 90 48 60
        E 0 90 54 60
        E 0 90 60 60
        E 60 80 3c 00
        E 0 80 48 00
        E 0 80 54 00
        E 0 80 60 00
        E 180 90 48 60
        E 0 90 54 60
        E 0 90 60 60
        E 60 80 48 00
        E 0 80 54 00
        E 0 80 60 00
        E 180 90 3c 60
        E 0 90 48 60
        E 0 90 54 60
        E 0 90 60 60
        E 60 80 3c 00
        E 0 80 48 00
        E 0 80 54 00
        E 0 80 60 00
        E 180 90 48 60
        E 0 90 54 60
        E 0 90 60 60
        E 60 80 48 00
        E 0 80 54 00
        E 0 80 60 00
        E 180 90 3c 60
        E 0 90 48 60
        E 0 90 54 60
        E 0 90 60 60
        E 60 80 3c 00
        E 0 80 48 00
        E 0 80 54 00
        E 0 80 60 00
        E 180 90 48 60
        E 0 90 54 60
        E 0 90 60 60
        E 60 80 48 00
        E 0 80 54 00
        E 0 80 60 00
        E 180 90 48 60
        E 0 90 54 60
        E 0 90 60 60
        E 60 80 48 00
        E 0 80 54 00
        E 0 80 60 00
        E 180 90 54 60
        E 0 90 60 60
        E 60 80 54 00
        E 0 80 60 00
        E 180 90 3d 60
        E 0 90 49 60
        E 0 90 55 60
        E 0 90 61 60
        E 60 80 3d 00
        E 0 80 49 00
        E 0 80 55 00
        E 0 80 61 00
        E 180 90 49 60
        E 0 90 55 60
        E 0 90 61 60
        E 60 80 49 00
        E 0 80 55 00
        E 0 80 61 00
        E 180 90 3d 60
        E 0 90 49 60
        E 0 90 55 60
        E 0 90 61 60
        E 60 80 3d 00
        E 0 80 49 00
        E 0 80 55 00
        E 0 80 61 00
        E 180 90 49 60
        E 0 90 55 60
        E 0 90 61 60
        E 60 80 49 00
        E 0 80 55 00
        E 0 80 61 00
        E 180 90 3d 60
        E 0 90 49 60
        E 0 90 55 60
        E 0 90 61 60
        E 60 80 3d 00
        E 0 80 49 00
        E 0 80 55 00
        E 0 80 61 00
        E 180 90 49 60
        E 0 90 55 60
        E 0 90 61 60
        E 60 80 49 00
        E 0 80 55 00
        E 0 80 61 00
        E 180 90 49 60
        E 0 90 55 60
        E 0 90 61 60
        E 60 80 49 00
        E 0 80 55 00
        E 0 80 61 00
        E 180 90 55 60
        E 0 90 61 60
        E 60 80 55 00
        E 0 80 61 00
        E 180 90 3c 60
        E 0 90 48 60
        E 0 90 54 60
        E 0 90 60 60
        E 60 80 3c 00
        E 0 80 48 00
        E 0 80 54 00
        E 0 80 60 00
        E 180 90 48 60
        E 0 90 54 60
        E 0 90 60 60
        E 60 80 48 00
        E 0 80 54 00
        E 0 80 60 00
        E 180 90 3c 60
        E 0 90 48 60
        E 0 90 54 60
        E 0 90 60 60
        E 60 80 3c 00
        E 0 80 48 00
        E 0 80 54 00
        E 0 80 60 00
        E 180 90 48 60
        E 0 90 54 60
        E 0 90 60 60
        E 60 80 48 00
        E 0 80 54 00
        E 0 80 60 00
        E 180 90 3c 60
        E 0 90 48 60
        E 0 90 54 60
        E 0 90 60 60
        E 60 80 3c 00
        E 0 80 48 00
        E 0 80 54 00
        E 0 80 60 00
        E 180 90 48 60
        E 0 90 54 60
        E 0 90 60 60
        E 60 80 48 00
        E 0 80 54 00
        E 0 80 60 00
        E 180 90 48 60
        E 0 90 54 60
        E 0 90 60 60
        E 60 80 48 00
        E 0 80 54 00
        E 0 80 60 00
        E 180 90 54 60
        E 0 90 60 60
        E 60 80 54 00
        E 0 80 60 00
        E 180 90 3d 60
        E 0 90 49 60
        E 0 90 55 60
        E 0 90 61 60
        E 60 80 3d 00
        E 0 80 49 00
        E 0 80 55 00
        E 0 80 61 00
        E 180 90 49 60
        E 0 90 55 60
        E 0 90 61 60
        E 60 80 49 00
        E 0 80 55 00
        E 0 80 61 00
        E 180 90 49 60
        E 0 90 55 60
        E 0 90 61 60
        E 60 80 49 00
        E 0 80 55 00
        E 0 80 61 00
        E 180 90 55 60
        E 0 90 61 60
        E 60 80 55 00
        E 0 80 61 00
        E 180 90 3e 60
        E 0 90 4a 60
        E 0 90 56 60
        E 0 90 62 60
        E 60 80 3e 00
        E 0 80 4a 00
        E 0 80 56 00
        E 0 80 62 00
        E 60 90 74 27
        E 120 90 4a 60
        E 0 90 56 60
        E 0 90 62 60
        E 60 80 4a 00
        E 0 80 56 00
        E 0 80 62 00
        E 180 90 4a 60
        E 0 90 56 60
        E 0 90 62 60
        E 60 80 4a 00
        E 0 80 56 00
        E 0 80 62 00
        E 180 90 56 60
        E 0 90 62 60
        E 60 80 56 00
        E 0 80 62 00
        E 180 90 3c 60
        E 0 90 48 60
        E 0 90 54 60
        E 0 90 60 60
        E 60 80 3c 00
        E 0 80 48 00
        E 0 80 54 00
        E 0 80 60 00
        E 180 90 48 60
        E 0 90 54 60
        E 0 90 60 60
        E 60 80 48 00
        E 0 80 54 00
        E 0 80 60 00
        E 180 90 3c 60
        E 0 90 48 60
        E 0 90 54 60
        E 0 90 60 60
        E 60 80 3c 00
        E 0 80 48 00
        E 0 80 54 00
        E 0 80 60 00
        E 180 90 48 60
        E 0 90 54 60
        E 0 90 60 60
        E 60 80 48 00
        E 0 80 54 00
        E 0 80 60 00
        E 180 90 3c 60
        E 0 90 48 60
        E 0 90 54 60
        E 0 90 60 60
        E 60 80 3c 00
        E 0 80 48 00
        E 0 80 54 00
        E 0 80 60 00
        E 180 90 48 60
        E 0 90 54 60
        E 0 90 60 60
        E 60 80 48 00
        E 0 80 54 00
        E 0 80 60 00
        E 180 90 48 60
        E 0 90 54 60
        E 0 90 60 60
        E 60 80 48 00
        E 0 80 54 00
        E 0 80 60 00
        E 180 90 54 60
        E 0 90 60 60
        E 60 80 54 00
        E 0 80 60 00
        E 180 90 3d 60
        E 0 90 49 60
        E 0 90 55 60
        E 0 90 61 60
        E 60 80 3d 00
        E 0 80 49 00
        E 0 80 55 00
        E 0 80 61 00
        E 180 90 49 60
        E 0 90 55 60
        E 0 90 61 60
        E 60 80 49 00
        E 0 80 55 00
        E 0 80 61 00
        E 180 90 3d 60
        E 0 90 49 60
        E 0 90 55 60
        E 0 90 61 60
        E 60 80 3d 00
        E 0 80 49 00
        E 0 80 55 00
        E 0 80 61 00
        E 180 90 49 60
        E 0 90 55 60
        E 0 90 61 60
        E 60 80 49 00
        E 0 80 55 00
        E 0 80 61 00
        E 180 90 3d 60
        E 0 90 49 60
        E 0 90 55 60
        E 0 90 61 60
        E 60 80 3d 00
        E 0 80 49 00
        E 0 80 55 00
        E 0 80 61 00
        E 180 90 49 60
        E 0 90 55 60
        E 0 90 61 60
        E 60 80 49 00
        E 0 80 55 00
        E 0 80 61 00
        E 60 80 74 00
        E 120 90 49 60
        E 0 90 55 60
        E 0 90 61 60
        E 60 80 49 00
        E 0 80 55 00
        E 0 80 61 00
        E 180 90 55 60
        E 0 90 61 60
        E 60 80 55 00
        E 0 80 61 00
        E 180 90 3c 60
        E 0 90 48 60
        E 0 90 54 60
        E 0 90 60 60
        E 60 80 3c 00
        E 0 80 48 00
        E 0 80 54 00
        E 0 80 60 00
        E 180 90 48 60
        E 0 90 54 60
        E 0 90 60 60
        E 60 80 48 00
        E 0 80 54 00
        E 0 80 60 00
        E 180 90 3c 60
        E 0 90 48 60
        E 0 90 54 60
        E 0 90 60 60
        E 60 80 3c 00
        E 0 80 48 00
        E 0 80 54 00
        E 0 80 60 00
        E 180 90 48 60
        E 0 90 54 60
        E 0 90 60 60
        E 60 80 48 00
        E 0 80 54 00
        E 0 80 60 00
        E 180 90 3c 60
        E 0 90 48 60
        E 0 90 54 60
        E 0 90 60 60
        E 60 80 3c 00
        E 0 80 48 00
        E 0 80 54 00
        E 0 80 60 00
        E 180 90 48 60
        E 0 90 54 60
        E 0 90 60 60
        E 60 80 48 00
        E 0 80 54 00
        E 0 80 60 00
        E 180 90 48 60
        E 0 90 54 60
        E 0 90 60 60
        E 60 80 48 00
        E 0 80 54 00
        E 0 80 60 00
        E 180 90 54 60
        E 0 90 60 60
        E 60 80 54 00
        E 0 80 60 00
        E 180 90 3d 60
        E 0 90 49 60
        E 0 90 55 60
        E 0 90 61 60
        E 60 80 3d 00
        E 0 80 49 00
        E 0 80 55 00
        E 0 80 61 00
        E 180 90 49 60
        E 0 90 55 60
        E 0 90 61 60
        E 60 80 49 00
        E 0 80 55 00
        E 0 80 61 00
        E 180 90 49 60
        E 0 90 55 60
        E 0 90 61 60
        E 60 80 49 00
        E 0 80 55 00
        E 0 80 61 00
        E 180 90 55 60
        E 0 90 61 60
        E 60 80 55 00
        E 0 80 61 00
        E 180 90 3e 60
        E 0 90 4a 60
        E 0 90 56 60
        E 0 90 62 60
        E 60 80 3e 00
        E 0 80 4a 00
        E 0 80 56 00
        E 0 80 62 00
        E 180 90 4a 60
        E 0 90 56 60
        E 0 90 62 60
        E 60 80 4a 00
        E 0 80 56 00
        E 0 80 62 00
        E 180 90 4a 60
        E 0 90 56 60
        E 0 90 62 60
        E 60 80 4a 00
        E 0 80 56 00
        E 0 80 62 00
        E 180 90 56 60
        E 0 90 62 60
        E 60 80 56 00
        E 0 80 62 00
        E 180 90 3e 60
        E 0 90 4b 60
        E 0 90 57 60
        E 0 90 63 60
        E 60 80 3e 00
        E 0 80 4b 00
        E 0 80 57 00
        E 0 80 63 00
        E 180 90 4b 60
        E 0 90 57 60
        E 0 90 63 60
        E 60 80 4b 00
        E 0 80 57 00
        E 0 80 63 00
        E 180 90 3e 60
        E 0 90 4b 60
        E 0 90 57 60
        E 0 90 63 60
        E 60 80 3e 00
        E 0 80 4b 00
        E 0 80 57 00
        E 0 80 63 00
        E 180 90 57 60
        E 0 90 63 60
        E 60 80 57 00
        E 0 80 63 00
        E 180 90 3e 60
        E 0 90 4b 60
        E 0 90 58 60
        E 0 90 64 60
        E 60 80 3e 00
        E 0 80 4b 00
        E 0 80 58 00
        E 0 80 64 00
        E 180 90 4b 60
        E 0 90 58 60
        E 0 90 64 60
        E 60 80 4b 00
        E 0 80 58 00
        E 0 80 64 00
        E 180 90 3e 60
        E 0 90 4b 60
        E 0 90 58 60
        E 0 90 64 60
        E 60 80 3e 00
        E 0 80 4b 00
        E 0 80 58 00
        E 0 80 64 00
        E 180 90 4b 60
        E 0 90 58 60
        E 0 90 64 60
        E 60 80 4b 00
        E 0 80 58 00
        E 0 80 64 00
        E 180 90 3e 60
        E 0 90 4b 60
        E 0 90 58 60
        E 0 90 64 60
        E 60 80 3e 00
        E 0 80 4b 00
        E 0 80 58 00
        E 0 80 64 00
        E 180 90 4b 60
        E 0 90 58 60
        E 0 90 64 60
        E 60 80 4b 00
        E 0 80 58 00
        E 0 80 64 00
        E 180 90 4b 60
        E 0 90 58 60
        E 0 90 64 60
        E 60 80 4b 00
        E 0 80 58 00
        E 0 80 64 00
        E 180 90 58 60
        E 0 90 64 60
        E 60 80 58 00
        E 0 80 64 00
        E 180 90 3e 60
        E 0 90 4a 60
        E 0 90 56 60
        E 0 90 62 60
        E 60 80 3e 00
        E 0 80 4a 00
        E 0 80 56 00
        E 0 80 62 00
        E 180 90 4a 60
        E 0 90 56 60
        E 0 90 62 60
        E 60 80 4a 00
        E 0 80 56 00
        E 0 80 62 00
        E 180 90 4a 60
        E 0 90 56 60
        E 0 90 62 60
        E 60 80 4a 00
        E 0 80 56 00
        E 0 80 62 00
        E 180 90 56 60
        E 0 90 62 60
        E 60 80 56 00
        E 0 80 62 00
        E 180 90 3e 60
        E 0 90 4b 60
        E 0 90 57 60
        E 0 90 63 60
        E 60 80 3e 00
        E 0 80 4b 00
        E 0 80 57 00
        E 0 80 63 00
        E 180 90 4b 60
        E 0 90 57 60
        E 0 90 63 60
        E 60 80 4b 00
        E 0 80 57 00
        E 0 80 63 00
        E 180 90 3e 60
        E 0 90 4b 60
        E 0 90 57 60
        E 0 90 63 60
        E 60 80 3e 00
        E 0 80 4b 00
        E 0 80 57 00
        E 0 80 63 00
        E 180 90 57 60
        E 0 90 63 60
        E 60 80 57 00
        E 0 80 63 00
        E 180 90 3e 60
        E 0 90 4b 60
        E 0 90 58 60
        E 0 90 64 60
        E 60 80 3e 00
        E 0 80 4b 00
        E 0 80 58 00
        E 0 80 64 00
        E 180 90 4b 60
        E 0 90 58 60
        E 0 90 64 60
        E 60 80 4b 00
        E 0 80 58 00
        E 0 80 64 00
        E 180 90 3e 60
        E 0 90 4b 60
        E 0 90 58 60
        E 0 90 64 60
        E 60 80 3e 00
        E 0 80 4b 00
        E 0 80 58 00
        E 0 80 64 00
        E 180 90 4b 60
        E 0 90 58 60
        E 0 90 64 60
        E 60 80 4b 00
        E 0 80 58 00
        E 0 80 64 00
        E 180 90 3e 60
        E 0 90 4b 60
        E 0 90 58 60
        E 0 90 64 60
        E 60 80 3e 00
        E 0 80 4b 00
        E 0 80 58 00
        E 0 80 64 00
        E 180 90 4b 60
        E 0 90 58 60
        E 0 90 64 60
        E 60 80 4b 00
        E 0 80 58 00
        E 0 80 64 00
        E 180 90 4b 60
        E 0 90 58 60
        E 0 90 64 60
        E 60 80 4b 00
        E 0 80 58 00
        E 0 80 64 00
        E 180 90 58 60
        E 0 90 64 60
        E 60 80 58 00
        E 0 80 64 00
        E 180 90 3e 60
        E 0 90 4a 60
        E 0 90 56 60
        E 0 90 62 60
        E 0 90 74 60
        E 120 80 3e 00
        E 0 80 4a 00
        E 0 80 56 00
        E 180 80 62 00
        E 180 90 4b 60
        E 0 90 57 60
        E 0 90 63 60
        E 120 80 4b 00
        E 0 80 57 00
        E 180 80 63 00
        E 120 80 74 00
        E 60 90 3c 60
        E 0 90 48 60
        E 0 90 54 60
        E 0 90 60 60
        E 60 80 3c 00
        E 0 80 48 00
        E 0 80 54 00
        E 0 80 60 00
        E 180 90 48 60
        E 0 90 54 60
        E 0 90 60 60
        E 60 80 48 00
        E 0 80 54 00
        E 0 80 60 00
        E 180 90 3c 60
        E 0 90 48 60
        E 0 90 54 60
        E 0 90 60 60
        E 60 80 3c 00
        E 0 80 48 00
        E 0 80 54 00
        E 0 80 60 00
        E 180 90 48 60
        E 0 90 54 60
        E 0 90 60 60
        E 120 80 48 00
        E 240 80 54 00
        E 60 80 60 00
        E 60 90 48 60
        E 0 90 54 60
        E 0 90 60 60
        E 60 80 48 00
        E 0 80 54 00
        E 0 80 60 00
        E 180 90 48 60
        E 0 90 54 60
        E 0 90 60 60
        E 60 80 48 00
        E 0 80 54 00
        E 0 80 60 00
        E 180 90 54 60
        E 0 90 60 60
        E 60 80 54 00
        E 0 80 60 00
        E 180 90 3d 60
        E 0 90 49 60
        E 0 90 55 60
        E 0 90 61 60
        E 60 80 3d 00
        E 0 80 49 00
        E 0 80 55 00
        E 0 80 61 00
        E 180 90 49 60
        E 0 90 55 60
        E 0 90 61 60
        E 60 80 49 00
        E 0 80 55 00
        E 0 80 61 00
        E 180 90 49 60
        E 0 90 55 60
        E 0 90 61 60
        E 60 80 49 00
        E 0 80 55 00
        E 0 80 61 00
        E 180 90 55 60
        E 0 90 61 60
        E 60 80 55 00
        E 0 80 61 00
        E 180 90 3e 60
        E 0 90 4a 60
        E 0 90 56 60
        E 0 90 62 60
        E 120 80 3e 00
        E 0 80 4a 00
        E 0 80 56 00
        E 180 80 62 00
        E 180 90 4b 60
        E 0 90 57 60
        E 0 90 63 60
        E 120 80 4b 00
        E 0 80 57 00
        E 180 80 63 00
        E 180 90 3c 60
        E 0 90 48 60
        E 0 90 54 60
        E 0 90 60 60
        E 60 80 3c 00
        E 0 80 48 00
        E 0 80 54 00
        E 0 80 60 00
        E 180 90 48 60
        E 0 90 54 60
        E 0 90 60 60
        E 60 80 48 00
        E 0 80 54 00
        E 0 80 60 00
        E 180 90 3c 60
        E 0 90 48 60
        E 0 90 54 60
        E 0 90 60 60
        E 60 80 3c 00
        E 0 80 48 00
        E 0 80 54 00
        E 0 80 60 00
        E 180 90 48 60
        E 0 90 54 60
        E 0 90 60 60
        E 120 80 48 00
        E 240 80 54 00
        E 60 80 60 00
        E 60 90 48 60
        E 0 90 54 60
        E 0 90 60 60
        E 60 80 48 00
        E 0 80 54 00
        E 0 80 60 00
        E 180 90 48 60
        E 0 90 54 60
        E 0 90 60 60
        E 60 80 48 00
        E 0 80 54 00
        E 0 80 60 00
        E 180 90 54 60
        E 0 90 60 60
        E 60 80 54 00
        E 0 80 60 00
        E 180 90 3d 60
        E 0 90 49 60
        E 0 90 55 60
        E 0 90 61 60
        E 60 80 3d 00
        E 0 80 49 00
        E 0 80 55 00
        E 0 80 61 00
        E 180 90 49 60
        E 0 90 55 60
        E 0 90 61 60
        E 60 80 49 00
        E 0 80 55 00
        E 0 80 61 00
        E 180 90 49 60
        E 0 90 55 60
        E 0 90 61 60
        E 60 80 49 00
        E 0 80 55 00
        E 0 80 61 00
        E 180 90 55 60
        E 0 90 61 60
        E 60 80 55 00
        E 0 80 61 00
        E 180 90 3e 60
        E 0 90 4b 60
        E 0 90 57 60
        E 0 90 63 60
        E 120 80 3e 00
        E 0 80 4b 00
        E 0 80 57 00
        E 180 80 63 00
        E 180 90 4b 60
        E 0 90 58 60
        E 0 90 64 60
        E 120 80 4b 00
        E 0 80 58 00
        E 180 80 64 00
        E 180 90 3c 60
        E 0 90 48 60
        E 0 90 54 60
        E 0 90 60 60
        E 60 80 3c 00
        E 0 80 48 00
        E 0 80 54 00
        E 0 80 60 00
        E 180 90 48 60
        E 0 90 54 60
        E 0 90 60 60
        E 60 80 48 00
        E 0 80 54 00
        E 0 80 60 00
        E 180 90 48 60
        E 0 90 54 60
        E 0 90 60 60
        E 60 80 48 00
        E 0 80 54 00
        E 0 80 60 00
        E 180 90 54 60
        E 0 90 60 60
        E 60 80 54 00
        E 0 80 60 00
        E 180 90 3d 60
        E 0 90 49 60
        E 0 90 55 60
        E 0 90 61 60
        E 60 80 3d 00
        E 0 80 49 00
        E 0 80 55 00
        E 0 80 61 00
        E 180 90 49 60
        E 0 90 55 60
        E 0 90 61 60
        E 60 80 49 00
        E 0 80 55 00
        E 0 80 61 00
        E 180 90 3d 60
        E 0 90 49 60
        E 0 90 55 60
        E 0 90 61 60
        E 60 80 3d 00
        E 0 80 49 00
        E 0 80 55 00
        E 0 80 61 00
        E 180 90 49 60
        E 0 90 55 60
        E 0 90 61 60
        E 60 80 49 00
        E 0 80 55 00
        E 0 80 61 00
        E 180 90 3d 60
        E 0 90 49 60
        E 0 90 55 60
        E 0 90 61 60
        E 60 80 3d 00
        E 0 80 49 00
        E 0 80 55 00
        E 0 80 61 00
        E 180 90 54 60
        E 0 90 60 60
        E 60 80 54 00
        E 0 80 60 00
        E 180 90 48 60
        E 0 90 54 60
        E 0 90 60 60
        E 60 80 48 00
        E 0 80 54 00
        E 0 80 60 00
        E 180 90 48 60
        E 0 90 54 60
        E 0 90 60 60
        E 0 90 74 60
        E 60 80 48 00
        E 0 80 54 00
        E 0 80 60 00
        E 180 90 3c 60
        E 0 90 48 60
        E 0 90 54 60
        E 0 90 60 60
        E 60 80 3c 00
        E 0 80 48 00
        E 0 80 54 00
        E 0 80 60 00
        E 180 90 55 60
        E 0 90 61 60
        E 60 80 55 00
        E 0 80 61 00
        E 180 90 49 60
        E 0 90 55 60
        E 0 90 61 60
        E 60 80 49 00
        E 0 80 55 00
        E 0 80 61 00
        E 180 90 49 60
        E 0 90 55 60
        E 0 90 61 60
        E 60 80 49 00
        E 0 80 55 00
        E 0 80 61 00
        E 180 90 3d 60
        E 0 90 49 60
        E 0 90 55 60
        E 0 90 61 60
        E 60 80 3d 00
        E 0 80 49 00
        E 0 80 55 00
        E 0 80 61 00
        E 180 90 49 60
        E 0 90 55 60
        E 0 90 61 60
        E 60 80 49 00
        E 0 80 55 00
        E 0 80 61 00
        E 180 90 3d 60
        E 0 90 49 60
        E 0 90 55 60
        E 0 90 61 60
        E 60 80 3d 00
        E 0 80 49 00
        E 0 80 55 00
        E 0 80 61 00
        E 180 90 49 60
        E 0 90 55 60
        E 0 90 61 60
        E 60 80 49 00
        E 0 80 55 00
        E 0 80 61 00
        E 180 90 3d 60
        E 0 90 49 60
        E 0 90 55 60
        E 0 90 61 60
        E 60 80 74 00
        E 0 80 3d 00
        E 0 80 49 00
        E 0 80 55 00
        E 0 80 61 00
        E 180 90 49 60
        E 0 90 55 60
        E 0 90 61 60
        E 60 80 49 00
        E 0 80 55 00
        E 0 80 61 00
        E 180 90 3d 60
        E 0 90 49 60
        E 0 90 55 60
        E 0 90 61 60
        E 60 80 3d 00
        E 0 80 49 00
        E 0 80 55 00
        E 0 80 61 00
        E 180 90 49 60
        E 0 90 55 60
        E 0 90 61 60
        E 60 80 49 00
        E 0 80 55 00
        E 0 80 61 00
        E 180 90 3d 60
        E 0 90 49 60
        E 0 90 55 60
        E 0 90 61 60
        E 60 80 3d 00
        E 0 80 49 00
        E 0 80 55 00
        E 0 80 61 00
        E 180 90 49 60
        E 0 90 55 60
        E 0 90 61 60
        E 60 80 49 00
        E 0 80 55 00
        E 0 80 61 00
        E 180 90 49 60
        E 0 90 55 60
        E 0 90 61 60
        E 60 80 49 00
        E 0 80 55 00
        E 0 80 61 00
        E 180 90 55 60
        E 0 90 61 60
        E 60 80 55 00
        E 0 80 61 00
        E 180 90 3e 60
        E 0 90 4a 60
        E 0 90 56 60
        E 0 90 62 60
        E 60 80 3e 00
        E 0 80 4a 00
        E 0 80 56 00
        E 0 80 62 00
        E 180 90 4a 60
        E 0 90 56 60
        E 0 90 62 60
        E 60 80 4a 00
        E 0 80 56 00
        E 0 80 62 00
        E 180 90 4a 60
        E 0 90 56 60
        E 0 90 62 60
        E 60 80 4a 00
        E 0 80 56 00
        E 0 80 62 00
        E 180 90 56 60
        E 0 90 62 60
        E 60 80 56 00
        E 0 80 62 00
        E 180 90 3e 60
        E 0 90 4b 60
        E 0 90 57 60
        E 0 90 63 60
        E 60 80 3e 00
        E 0 80 4b 00
        E 0 80 57 00
        E 0 80 63 00
        E 180 90 4b 60
        E 0 90 57 60
        E 0 90 63 60
        E 60 80 4b 00
        E 0 80 57 00
        E 0 80 63 00
        E 180 90 3e 60
        E 0 90 4b 60
        E 0 90 57 60
        E 0 90 63 60
        E 60 80 3e 00
        E 0 80 4b 00
        E 0 80 57 00
        E 0 80 63 00
        E 180 90 57 60
        E 0 90 63 60
        E 60 80 57 00
        E 0 80 63 00
        E 180 90 3e 60
        E 0 90 4b 60
        E 0 90 58 60
        E 0 90 64 60
        E 60 80 3e 00
        E 0 80 4b 00
        E 0 80 58 00
        E 0 80 64 00
        E 180 90 4b 60
        E 0 90 58 60
        E 0 90 64 60
        E 60 80 4b 00
        E 0 80 58 00
        E 0 80 64 00
        E 180 90 3e 60
        E 0 90 4b 60
        E 0 90 58 60
        E 0 90 64 60
        E 60 80 3e 00
        E 0 80 4b 00
        E 0 80 58 00
        E 0 80 64 00
        E 180 90 4b 60
        E 0 90 58 60
        E 0 90 64 60
        E 60 80 4b 00
        E 0 80 58 00
        E 0 80 64 00
        E 180 90 3e 60
        E 0 90 4b 60
        E 0 90 58 60
        E 0 90 64 60
        E 60 80 3e 00
        E 0 80 4b 00
        E 0 80 58 00
        E 0 80 64 00
        E 180 90 4b 60
        E 0 90 58 60
        E 0 90 64 60
        E 60 80 4b 00
        E 0 80 58 00
        E 0 80 64 00
        E 180 90 4b 60
        E 0 90 58 60
        E 0 90 64 60
        E 120 80 4b 00
        E 0 80 58 00
        E 180 80 64 00
        E 180 90 3e 60
        E 0 90 4a 60
        E 0 90 56 60
        E 0 90 62 60
        E 60 80 3e 00
        E 0 80 4a 00
        E 0 80 56 00
        E 0 80 62 00
        E 180 90 4a 60
        E 0 90 56 60
        E 0 90 62 60
        E 0 90 74 60
        E 60 80 4a 00
        E 0 80 56 00
        E 0 80 62 00
        E 180 90 4a 60
        E 0 90 56 60
        E 0 90 62 60
        E 60 80 4a 00
        E 0 80 56 00
        E 0 80 62 00
        E 180 90 56 60
        E 0 90 62 60
        E 60 80 56 00
        E 0 80 62 00
        E 180 90 3e 60
        E 0 90 4b 60
        E 0 90 57 60
        E 0 90 63 60
        E 60 80 3e 00
        E 0 80 4b 00
        E 0 80 57 00
        E 0 80 63 00
        E 180 90 4b 60
        E 0 90 57 60
        E 0 90 63 60
        E 60 80 4b 00
        E 0 80 57 00
        E 0 80 63 00
        E 180 90 3e 60
        E 0 90 4b 60
        E 0 90 57 60
        E 0 90 63 60
        E 60 80 3e 00
        E 0 80 4b 00
        E 0 80 57 00
        E 0 80 63 00
        E 180 90 57 60
        E 0 90 63 60
        E 60 80 57 00
        E 0 80 63 00
        E 180 90 3e 60
        E 0 90 4b 60
        E 0 90 58 60
        E 0 90 64 60
        E 60 80 3e 00
        E 0 80 4b 00
        E 0 80 58 00
        E 0 80 64 00
        E 180 90 4b 60
        E 0 90 58 60
        E 0 90 64 60
        E 60 80 4b 00
        E 0 80 58 00
        E 0 80 64 00
        E 180 90 3e 60
        E 0 90 4b 60
        E 0 90 58 60
        E 0 90 64 60
        E 60 80 3e 00
        E 0 80 4b 00
        E 0 80 58 00
        E 0 80 64 00
        E 180 90 4b 60
        E 0 90 58 60
        E 0 90 64 60
        E 60 80 4b 00
        E 0 80 58 00
        E 0 80 64 00
        E 180 90 3e 60
        E 0 90 4b 60
        E 0 90 58 60
        E 0 90 64 60
        E 60 80 3e 00
        E 0 80 4b 00
        E 0 80 58 00
        E 0 80 64 00
        E 180 90 4b 60
        E 0 90 58 60
        E 0 90 64 60
        E 60 80 4b 00
        E 0 80 58 00
        E 0 80 64 00
        E 180 90 4b 60
        E 0 90 58 60
        E 0 90 64 60
        E 120 80 4b 00
        E 0 80 58 00
        E 180 80 64 00
        E 180 90 3e 60
        E 0 90 4a 60
        E 0 90 56 60
        E 0 90 62 60
        E 60 80 3e 00
        E 0 80 4a 00
        E 0 80 56 00
        E 0 80 62 00
        E 60 80 74 00
        E 120 90 4a 60
        E 0 90 56 60
        E 0 90 62 60
        E 60 80 4a 00
        E 0 80 56 00
        E 0 80 62 00
        E 180 90 4a 60
        E 0 90 56 60
        E 0 90 62 60
        E 60 80 4a 00
        E 0 80 56 00
        E 0 80 62 00
        E 180 90 56 60
        E 0 90 62 60
        E 60 80 56 00
        E 0 80 62 00
        E 180 90 3e 60
        E 0 90 4b 60
        E 0 90 57 60
        E 0 90 63 60
        E 60 80 3e 00
        E 0 80 4b 00
        E 0 80 57 00
        E 0 80 63 00
        E 180 90 4b 60
        E 0 90 57 60
        E 0 90 63 60
        E 60 80 4b 00
        E 0 80 57 00
        E 0 80 63 00
        E 180 90 3e 60
        E 0 90 4b 60
        E 0 90 57 60
        E 0 90 63 60
        E 60 80 3e 00
        E 0 80 4b 00
        E 0 80 57 00
        E 0 80 63 00
        E 180 90 57 60
        E 0 90 63 60
        E 60 80 57 00
        E 0 80 63 00
        E 180 90 3e 60
        E 0 90 4b 60
        E 0 90 58 60
        E 0 90 64 60
        E 60 80 3e 00
        E 0 80 4b 00
        E 0 80 58 00
        E 0 80 64 00
        E 180 90 4b 60
        E 0 90 58 60
        E 0 90 64 60
        E 60 80 4b 00
        E 0 80 58 00
        E 0 80 64 00
        E 180 90 3e 60
        E 0 90 4b 60
        E 0 90 58 60
        E 0 90 64 60
        E 60 80 3e 00
        E 0 80 4b 00
        E 0 80 58 00
        E 0 80 64 00
        E 180 90 4b 60
        E 0 90 58 60
        E 0 90 64 60
        E 60 80 4b 00
        E 0 80 58 00
        E 0 80 64 00
        E 180 90 3e 60
        E 0 90 4b 60
        E 0 90 58 60
        E 0 90 64 60
        E 60 80 3e 00
        E 0 80 4b 00
        E 0 80 58 00
        E 0 80 64 00
        E 180 90 4b 60
        E 0 90 58 60
        E 0 90 64 60
        E 60 80 4b 00
        E 0 80 58 00
        E 0 80 64 00
        E 180 90 4b 60
        E 0 90 58 60
        E 0 90 64 60
        E 60 80 4b 00
        E 0 80 58 00
        E 0 80 64 00
        E 180 90 58 60
        E 0 90 64 60
        E 60 80 58 00
        E 0 80 64 00
        E 180 90 3e 60
        E 0 90 4a 60
        E 0 90 56 60
        E 0 90 62 60
        E 60 80 3e 00
        E 0 80 4a 00
        E 0 80 56 00
        E 0 80 62 00
        E 180 90 4a 60
        E 0 90 56 60
        E 0 90 62 60
        E 60 80 4a 00
        E 0 80 56 00
        E 0 80 62 00
        E 180 90 4a 60
        E 0 90 56 60
        E 0 90 62 60
        E 60 80 4a 00
        E 0 80 56 00
        E 0 80 62 00
        E 180 90 56 60
        E 0 90 62 60
        E 60 80 56 00
        E 0 80 62 00
        E 180 90 3e 60
        E 0 90 4b 60
        E 0 90 57 60
        E 0 90 63 60
        E 60 80 3e 00
        E 0 80 4b 00
        E 0 80 57 00
        E 0 80 63 00
        E 180 90 4b 60
        E 0 90 57 60
        E 0 90 63 60
        E 60 80 4b 00
        E 0 80 57 00
        E 0 80 63 00
        E 180 90 3e 60
        E 0 90 4b 60
        E 0 90 57 60
        E 0 90 63 60
        E 60 80 3e 00
        E 0 80 4b 00
        E 0 80 57 00
        E 0 80 63 00
        E 180 90 57 60
        E 0 90 63 60
        E 60 80 57 00
        E 0 80 63 00
        E 180 90 3e 60
        E 0 90 4b 60
        E 0 90 58 60
        E 0 90 64 60
        E 60 80 3e 00
        E 0 80 4b 00
        E 0 80 58 00
        E 0 80 64 00
        E 180 90 4b 60
        E 0 90 58 60
        E 0 90 64 60
        E 60 80 4b 00
        E 0 80 58 00
        E 0 80 64 00
        E 180 90 3e 60
        E 0 90 4b 60
        E 0 90 58 60
        E 0 90 64 60
        E 60 80 3e 00
        E 0 80 4b 00
        E 0 80 58 00
        E 0 80 64 00
        E 180 90 4b 60
        E 0 90 58 60
        E 0 90 64 60
        E 60 80 4b 00
        E 0 80 58 00
        E 0 80 64 00
        E 180 90 3e 60
        E 0 90 4b 60
        E 0 90 58 60
        E 0 90 64 60
        E 60 80 3e 00
        E 0 80 4b 00
        E 0 80 58 00
        E 0 80 64 00
        E 180 90 4b 60
        E 0 90 58 60
        E 0 90 64 60
        E 60 80 4b 00
        E 0 80 58 00
        E 0 80 64 00
        E 180 90 4b 60
        E 0 90 58 60
        E 0 90 64 60
        E 120 80 4b 00
        E 0 80 58 00
        E 180 80 64 00
        E 180 90 3e 60
        E 0 90 4a 60
        E 0 90 56 60
        E 0 90 62 60
        E 120 80 3e 00
        E 0 80 4a 00
        E 0 80 56 00
        E 180 80 62 00
        E 180 90 4b 60
        E 0 90 57 60
        E 0 90 63 60
        E 120 80 4b 00
        E 0 80 57 00
        E 180 80 63 00
        E 180 90 3c 60
        E 0 90 48 60
        E 0 90 54 60
        E 0 90 60 60
        E 60 80 3c 00
        E 0 80 48 00
        E 0 80 54 00
        E 0 80 60 00
        E 180 90 48 60
        E 0 90 54 60
        E 0 90 60 60
        E 60 80 48 00
        E 0 80 54 00
        E 0 80 60 00
        E 180 90 3c 60
        E 0 90 48 60
        E 0 90 54 60
        E 0 90 60 60
        E 60 80 3c 00
        E 0 80 48 00
        E 0 80 54 00
        E 0 80 60 00
        E 180 90 48 60
        E 0 90 54 60
        E 0 90 60 60
        E 120 80 48 00
        E 240 80 54 00
        E 60 80 60 00
        E 60 90 48 60
        E 0 90 54 60
        E 0 90 60 60
        E 60 80 48 00
        E 0 80 54 00
        E 0 80 60 00
        E 180 90 48 60
        E 0 90 54 60
        E 0 90 60 60
        E 60 80 48 00
        E 0 80 54 00
        E 0 80 60 00
        E 180 90 54 60
        E 0 90 60 60
        E 60 80 54 00
        E 0 80 60 00
        E 180 90 3d 60
        E 0 90 49 60
        E 0 90 55 60
        E 0 90 61 60
        E 60 80 3d 00
        E 0 80 49 00
        E 0 80 55 00
        E 0 80 61 00
        E 180 90 49 60
        E 0 90 55 60
        E 0 90 61 60
        E 60 80 49 00
        E 0 80 55 00
        E 0 80 61 00
        E 180 90 49 60
        E 0 90 55 60
        E 0 90 61 60
        E 60 80 49 00
        E 0 80 55 00
        E 0 80 61 00
        E 180 90 55 60
        E 0 90 61 60
        E 60 80 55 00
        E 0 80 61 00
        E 180 90 3e 60
        E 0 90 4a 60
        E 0 90 56 60
        E 0 90 62 60
        E 60 80 3e 00
        E 0 80 4a 00
        E 0 80 56 00
        E 0 80 62 00
        E 180 90 56 60
        E 0 90 62 60
        E 60 80 56 00
        E 0 80 62 00
        E 180 90 4b 60
        E 0 90 57 60
        E 0 90 63 60
        E 120 80 4b 00
        E 0 80 57 00
        E 180 80 63 00
        E 180 90 3c 60
        E 0 90 48 60
        E 0 90 54 60
        E 0 90 60 60
        E 60 80 3c 00
        E 0 80 48 00
        E 0 80 54 00
        E 0 80 60 00
        E 180 90 48 60
        E 0 90 54 60
        E 0 90 60 60
        E 60 80 48 00
        E 0 80 54 00
        E 0 80 60 00
        E 180 90 3c 60
        E 0 90 48 60
        E 0 90 54 60
        E 0 90 60 60
        E 60 80 3c 00
        E 0 80 48 00
        E 0 80 54 00
        E 0 80 60 00
        E 180 90 48 60
        E 0 90 54 60
        E 0 90 60 60
        E 120 80 48 00
        E 240 80 54 00
        E 60 80 60 00
        E 60 90 48 60
        E 0 90 54 60
        E 0 90 60 60
        E 60 80 48 00
        E 0 80 54 00
        E 0 80 60 00
        E 180 90 48 60
        E 0 90 54 60
        E 0 90 60 60
        E 60 80 48 00
        E 0 80 54 00
        E 0 80 60 00
        E 180 90 54 60
        E 0 90 60 60
        E 60 80 54 00
        E 0 80 60 00
        E 180 90 3d 60
        E 0 90 49 60
        E 0 90 55 60
        E 0 90 61 60
        E 60 80 3d 00
        E 0 80 49 00
        E 0 80 55 00
        E 0 80 61 00
        E 180 90 49 60
        E 0 90 55 60
        E 0 90 61 60
        E 60 80 49 00
        E 0 80 55 00
        E 0 80 61 00
        E 180 90 49 60
        E 0 90 55 60
        E 0 90 61 60
        E 60 80 49 00
        E 0 80 55 00
        E 0 80 61 00
        E 180 90 55 60
        E 0 90 61 60
        E 60 80 55 00
        E 0 80 61 00
        E 180 90 3e 60
        E 0 90 4b 60
        E 0 90 57 60
        E 0 90 63 60
        E 120 80 3e 00
        E 0 80 4b 00
        E 0 80 57 00
        E 180 80 63 00
        E 0 90 74 60
        E 180 90 4b 60
        E 0 90 58 60
        E 0 90 64 60
        E 120 80 4b 00
        E 0 80 58 00
        E 180 80 64 00
        E 180 90 3c 60
        E 0 90 48 60
        E 0 90 54 60
        E 0 90 60 60
        E 60 80 3c 00
        E 0 80 48 00
        E 0 80 54 00
        E 0 80 60 00
        E 180 90 48 60
        E 0 90 54 60
        E 0 90 60 60
        E 60 80 48 00
        E 0 80 54 00
        E 0 80 60 00
        E 180 90 3c 60
        E 0 90 48 60
        E 0 90 54 60
        E 0 90 60 60
        E 60 80 3c 00
        E 0 80 48 00
        E 0 80 54 00
        E 0 80 60 00
        E 180 90 48 60
        E 0 90 54 60
        E 0 90 60 60
        E 120 80 48 00
        E 0 80 54 00
        E 180 80 60 00
        E 180 90 49 60
        E 0 90 55 60
        E 0 90 61 60
        E 60 80 49 00
        E 0 80 55 00
        E 0 80 61 00
        E 180 90 3d 60
        E 0 90 49 60
        E 0 90 55 60
        E 0 90 61 60
        E 60 80 3d 00
        E 0 80 49 00
        E 0 80 55 00
        E 0 80 61 00
        E 180 90 49 60
        E 0 90 55 60
        E 0 90 61 60
        E 60 80 49 00
        E 0 80 55 00
        E 0 80 61 00
        E 180 90 3d 60
        E 0 90 49 60
        E 0 90 55 60
        E 0 90 61 60
        E 60 80 3d 00
        E 0 80 49 00
        E 0 80 55 00
        E 0 80 61 00
        E 180 90 54 60
        E 0 90 60 60
        E 60 80 54 00
        E 0 80 60 00
        E 180 90 48 60
        E 0 90 54 60
        E 0 90 60 60
        E 60 80 48 00
        E 0 80 54 00
        E 0 80 60 00
        E 180 90 48 60
        E 0 90 54 60
        E 0 90 60 60
        E 60 80 48 00
        E 0 80 54 00
        E 0 80 60 00
        E 180 90 3c 60
        E 0 90 48 60
        E 0 90 54 60
        E 0 90 60 60
        E 60 80 3c 00
        E 0 80 48 00
        E 0 80 54 00
        E 0 80 60 00
        E 180 90 55 60
        E 0 90 61 60
        E 60 80 55 00
        E 0 80 61 00
        E 180 90 49 60
        E 0 90 55 60
        E 0 90 61 60
        E 60 80 49 00
        E 0 80 55 00
        E 0 80 61 00
        E 180 90 49 60
        E 0 90 55 60
        E 0 90 61 60
        E 60 80 49 00
        E 0 80 55 00
        E 0 80 61 00
        E 180 90 3d 60
        E 0 90 49 60
        E 0 90 55 60
        E 0 90 61 60
        E 60 80 3d 00
        E 0 80 49 00
        E 0 80 55 00
        E 0 80 61 00
        E 180 90 57 60
        E 0 90 63 60
        E 60 80 57 00
        E 0 80 63 00
        E 180 80 74 00
        E 0 90 4b 60
        E 0 90 57 60
        E 0 90 63 60
        E 60 80 4b 00
        E 0 80 57 00
        E 0 80 63 00
        E 180 90 4b 60
        E 0 90 57 60
        E 0 90 63 60
        E 60 80 4b 00
        E 0 80 57 00
        E 0 80 63 00
        E 180 90 3e 60
        E 0 90 4b 60
        E 0 90 57 60
        E 0 90 63 60
        E 60 80 3e 00
        E 0 80 4b 00
        E 0 80 57 00
        E 0 80 63 00
        E 180 90 4b 60
        E 0 90 57 60
        E 0 90 63 60
        E 60 80 4b 00
        E 0 80 57 00
        E 0 80 63 00
        E 180 90 3e 60
        E 0 90 4b 60
        E 0 90 57 60
        E 0 90 63 60
        E 60 80 3e 00
        E 0 80 4b 00
        E 0 80 57 00
        E 0 80 63 00
        E 180 90 4b 60
        E 0 90 57 60
        E 0 90 63 60
        E 60 80 4b 00
        E 0 80 57 00
        E 0 80 63 00
        E 180 90 3e 60
        E 0 90 4b 60
        E 0 90 57 60
        E 0 90 63 60
        E 60 80 3e 00
        E 0 80 4b 00
        E 0 80 57 00
        E 0 80 63 00
        E 180 90 4b 60
        E 0 90 57 60
        E 0 90 63 60
        E 60 80 4b 00
        E 0 80 57 00
        E 0 80 63 00
        E 180 90 4b 60
        E 0 90 57 60
        E 0 90 63 60
        E 120 80 4b 00
        E 0 80 57 00
        E 180 80 63 00
        E 180 90 3e 60
        E 0 90 4a 60
        E 0 90 56 60
        E 0 90 62 60
        E 120 80 3e 00
        E 0 80 4a 00
        E 0 80 56 00
        E 180 80 62 00
        E 180 90 4b 60
        E 0 90 57 60
        E 0 90 63 60
        E 120 80 4b 00
        E 0 80 57 00
        E 180 80 63 00
        E 180 90 3c 60
        E 0 90 48 60
        E 0 90 54 60
        E 0 90 60 60
        E 60 80 3c 00
        E 0 80 48 00
        E 0 80 54 00
        E 0 80 60 00
        E 180 90 48 60
        E 0 90 54 60
        E 0 90 60 60
        E 60 80 48 00
        E 0 80 54 00
        E 0 80 60 00
        E 180 90 3c 60
        E 0 90 48 60
        E 0 90 54 60
        E 0 90 60 60
        E 60 80 3c 00
        E 0 80 48 00
        E 0 80 54 00
        E 0 80 60 00
        E 180 90 48 60
        E 0 90 54 60
        E 0 90 60 60
        E 120 80 48 00
        E 240 80 54 00
        E 60 80 60 00
        E 60 90 48 60
        E 0 90 54 60
        E 0 90 60 60
        E 60 80 48 00
        E 0 80 54 00
        E 0 80 60 00
        E 180 90 48 60
        E 0 90 54 60
        E 0 90 60 60
        E 60 80 48 00
        E 0 80 54 00
        E 0 80 60 00
        E 180 90 54 60
        E 0 90 60 60
        E 60 80 54 00
        E 0 80 60 00
        E 180 90 3d 60
        E 0 90 49 60
        E 0 90 55 60
        E 0 90 61 60
        E 60 80 3d 00
        E 0 80 49 00
        E 0 80 55 00
        E 0 80 61 00
        E 180 90 49 60
        E 0 90 55 60
        E 0 90 61 60
        E 60 80 49 00
        E 0 80 55 00
        E 0 80 61 00
        E 180 90 49 60
        E 0 90 55 60
        E 0 90 61 60
        E 60 80 49 00
        E 0 80 55 00
        E 0 80 61 00
        E 180 90 55 60
        E 0 90 61 60
        E 60 80 55 00
        E 0 80 61 00
        E 180 90 3e 60
        E 0 90 4a 60
        E 0 90 56 60
        E 0 90 62 60
        E 60 80 3e 00
        E 0 80 4a 00
        E 0 80 56 00
        E 0 80 62 00
        E 180 90 56 60
        E 0 90 62 60
        E 60 80 56 00
        E 0 80 62 00
        E 180 90 4b 60
        E 0 90 57 60
        E 0 90 63 60
        E 120 80 4b 00
        E 0 80 57 00
        E 180 80 63 00
        E 180 90 3c 60
        E 0 90 48 60
        E 0 90 54 60
        E 0 90 60 60
        E 60 80 3c 00
        E 0 80 48 00
        E 0 80 54 00
        E 0 80 60 00
        E 180 90 48 60
        E 0 90 54 60
        E 0 90 60 60
        E 60 80 48 00
        E 0 80 54 00
        E 0 80 60 00
        E 180 90 3c 60
        E 0 90 48 60
        E 0 90 54 60
        E 0 90 60 60
        E 60 80 3c 00
        E 0 80 48 00
        E 0 80 54 00
        E 0 80 60 00
        E 180 90 48 60
        E 0 90 54 60
        E 0 90 60 60
        E 120 80 48 00
        E 240 80 54 00
        E 60 80 60 00
        E 60 90 48 60
        E 0 90 54 60
        E 0 90 60 60
        E 60 80 48 00
        E 0 80 54 00
        E 0 80 60 00
        E 180 90 48 60
        E 0 90 54 60
        E 0 90 60 60
        E 60 80 48 00
        E 0 80 54 00
        E 0 80 60 00
        E 180 90 54 60
        E 0 90 60 60
        E 60 80 54 00
        E 0 80 60 00
        E 180 90 3d 60
        E 0 90 49 60
        E 0 90 55 60
        E 0 90 61 60
        E 60 80 3d 00
        E 0 80 49 00
        E 0 80 55 00
        E 0 80 61 00
        E 180 90 49 60
        E 0 90 55 60
        E 0 90 61 60
        E 60 80 49 00
        E 0 80 55 00
        E 0 80 61 00
        E 180 90 49 60
        E 0 90 55 60
        E 0 90 61 60
        E 60 80 49 00
        E 0 80 55 00
        E 0 80 61 00
        E 180 90 55 60
        E 0 90 61 60
        E 60 80 55 00
        E 0 80 61 00
        E 180 90 3e 60
        E 0 90 4b 60
        E 0 90 57 60
        E 0 90 63 60
        E 120 80 3e 00
        E 0 80 4b 00
        E 0 80 57 00
        E 180 80 63 00
        E 180 90 4b 60
        E 0 90 58 60
        E 0 90 64 60
        E 120 80 4b 00
        E 0 80 58 00
        E 180 80 64 00
        E 180 90 3c 60
        E 0 90 48 60
        E 0 90 54 60
        E 0 90 60 60
        E 60 80 3c 00
        E 0 80 48 00
        E 0 80 54 00
        E 0 80 60 00
        E 180 90 48 60
        E 0 90 54 60
        E 0 90 60 60
        E 60 80 48 00
        E 0 80 54 00
        E 0 80 60 00
        E 180 90 3c 60
        E 0 90 48 60
        E 0 90 54 60
        E 0 90 60 60
        E 60 80 3c 00
        E 0 80 48 00
        E 0 80 54 00
        E 0 80 60 00
        E 180 90 48 60
        E 0 90 54 60
        E 0 90 60 60
        E 120 80 48 00
        E 0 80 54 00
        E 180 80 60 00
        E 180 90 49 60
        E 0 90 55 60
        E 0 90 61 60
        E 60 80 49 00
        E 0 80 55 00
        E 0 80 61 00
        E 180 90 3d 60
        E 0 90 49 60
        E 0 90 55 60
        E 0 90 61 60
        E 60 80 3d 00
        E 0 80 49 00
        E 0 80 55 00
        E 0 80 61 00
        E 180 90 49 60
        E 0 90 55 60
        E 0 90 61 60
        E 60 80 49 00
        E 0 80 55 00
        E 0 80 61 00
        E 180 90 3d 60
        E 0 90 49 60
        E 0 90 55 60
        E 0 90 61 60
        E 60 80 3d 00
        E 0 80 49 00
        E 0 80 55 00
        E 0 80 61 00
        E 180 90 54 60
        E 0 90 60 60
        E 60 80 54 00
        E 0 80 60 00
        E 180 90 48 60
        E 0 90 54 60
        E 0 90 60 60
        E 120 80 48 00
        E 420 80 54 00
        E 0 80 60 00
        E 180 90 4b 60
        E 0 90 58 60
        E 0 90 64 60
        E 60 80 4b 00
        E 0 80 58 00
        E 0 80 64 00
        E 180 90 3e 60
        E 0 90 4b 60
        E 0 90 58 60
        E 0 90 64 60
        E 60 80 3e 00
        E 0 80 4b 00
        E 0 80 58 00
        E 0 80 64 00
        E 180 90 57 60
        E 0 90 63 60
        E 60 80 57 00
        E 0 80 63 00
        E 180 90 3e 60
        E 0 90 4b 60
        E 0 90 57 60
        E 0 90 63 60
        E 60 80 3e 00
        E 0 80 4b 00
        E 0 80 57 00
        E 0 80 63 00
        E 180 90 56 60
        E 0 90 62 60
        E 60 80 56 00
        E 0 80 62 00
        E 180 90 4a 60
        E 0 90 56 60
        E 0 90 62 60
        E 60 80 4a 00
        E 0 80 56 00
        E 0 80 62 00
        E 180 90 55 60
        E 0 90 61 60
        E 60 80 55 00
        E 0 80 61 00
        E 180 90 3d 60
        E 0 90 49 60
        E 0 90 55 60
        E 0 90 61 60
        E 60 80 3d 00
        E 0 80 49 00
        E 0 80 55 00
        E 0 80 61 00
        E 180 90 54 60
        E 0 90 60 60
        E 60 80 54 00
        E 0 80 60 00
        E 179 90 48 60
        E 0 90 54 60
        E 0 90 60 60
        E 60 80 48 00
        E 0 80 54 00
        E 0 80 60 00
        E 181 90 48 60
        E 0 90 54 60
        E 0 90 60 60
        E 60 80 48 00
        E 0 80 54 00
        E 0 80 60 00
        E 180 90 3c 60
        E 0 90 48 60
        E 0 90 54 60
        E 0 90 60 60
        E 60 80 3c 00
        E 0 80 48 00
        E 0 80 54 00
        E 0 80 60 00
        E 180 90 48 60
        E 0 90 54 60
        E 0 90 60 60
        E 60 80 48 00
        E 0 80 54 00
        E 0 80 60 00
        E 180 90 3c 60
        E 0 90 48 60
        E 0 90 54 60
        E 0 90 60 60
        E 60 80 3c 00
        E 0 80 48 00
        E 0 80 54 00
        E 0 80 60 00
        E 180 90 48 60
        E 0 90 54 60
        E 0 90 60 60
        E 60 80 48 00
        E 0 80 54 00
        E 0 80 60 00
        E 180 90 3c 60
        E 0 90 48 60
        E 0 90 54 60
        E 0 90 60 60
        E 2400 80 3c 00
        E 0 80 48 00
        E 0 80 54 00
        E 0 80 60 00
        <X 480 0
          /wFbaWRsZV9yZWFsdGltZV0=
        >
        E 24000 b0 7b 00
        GUID {54A57D35-811F-42A6-AB75-F5706122F903}
        IGNTEMPO 0 120.00000000 4 4
        SRCCOLOR 1236
        VELLANE 132 128 60
        COLORMAP "C:\Users\wejaa\AppData\Roaming\REAPER\Data\color_maps\rockband_guitarbass.png"
        TEXTSTRINGFILE "Text Events List.txt"
        CFGEDITVIEW 53273.894224 29.827429 0 12 0 0 0
        CFGEDIT 1 1 0 0 0 1 1 1 1 1 1 0.12500000 -8 -8 1370 736 1 2 1 2 0.00000000 0 0 0 0 0.500000 1 0 1.000000 64
        KEYSNAP 0 0 "102034050607" 0 "Major"
        EVTFILTER 0 -1 -1 -1 -1 0 1 0 0 -1.00000000 -1.00000000
      >
    >
  >
  <TRACK '{6B7F9B4B-FF4E-4CE6-9E2D-4C9BD5DAED77}'
    NAME "PART GUITAR"
    PEAKCOL 33488896
    BEAT -1
    AUTOMODE 0
    VOLPAN 1.00000000000000 0.00000000000000 -1.00000000000000 -1.00000000000000 1.00000000000000
    MUTESOLO 0 0 0
    IPHASE 0
    ISBUS 0 0
    BUSCOMP 1 0
    SHOWINMIX 1 0.666700 0.500000 1 0.500000 -1 -1 -1
    FREEMODE 0
    SEL 0
    REC 0 4096 1 7 0 0 0
    TRACKHEIGHT 81 0
    INQ 0 0 0 0.5000000000 100 0 0 100
    NCHAN 2
    FX 1
    TRACKID {6B7F9B4B-FF4E-4CE6-9E2D-4C9BD5DAED77}
    PERF 0
    MIDIOUT -1
    <MIDINOTENAMES
      0 116 "OVERDRIVE"
      0 102 "Force HOPO Off"
      0 101 "Force HOPO On"
      0 100 "EXPERT Orange"
      0 99 "EXPERT Blue"
      0 98 "EXPERT Yellow"
      0 97 "EXPERT Red"
      0 96 "EXPERT Green"
      0 88 "HARD Orange"
      0 87 "HARD Blue"
      0 86 "HARD Yellow"
      0 85 "HARD Red"
      0 84 "HARD Green"
      0 76 "MEDIUM Orange"
      0 75 "MEDIUM Blue"
      0 74 "MEDIUM Yellow"
      0 73 "MEDIUM Red"
      0 72 "MEDIUM Green"
      0 64 "EASY Orange"
      0 63 "EASY Blue"
      0 62 "EASY Yellow"
      0 61 "EASY Red"
      0 60 "EASY Green"
      0 59 "Left Hand Highest"
      0 40 "Left Hand Lowest"
      0 58 "-"
      0 57 "-"
      0 56 "-"
      0 55 "-"
      0 54 "-"
      0 53 "-"
      0 52 "-"
      0 51 "-"
      0 50 "-"
      0 49 "-"
      0 48 "-"
      0 47 "-"
      0 46 "-"
      0 45 "-"
      0 44 "-"
      0 43 "-"
      0 42 "-"
      0 41 "-"
      0 115 "----"
      0 95 "----"
      0 89 "Force HOPO On"
      0 77 "----"
      0 65 "----"
      0 119 "----"
      0 120 "BRE (use all 5)"
      0 121 "BRE"
      0 122 "BRE"
      0 123 "BRE"
      0 124 "BRE"
      0 90 "Force HOPO Off"
      0 103 "Solo Marker"
      0 127 "Trill Marker"
      0 125 "----"
      0 126 "Strum Marker"
    >
    MAINSEND 1 0
    <FXCHAIN
      WNDRECT -932 637 878 585
      SHOW 0
      LASTSEL 1
      DOCKED 0
      BYPASS 1 0
      <VST "VSTi: ReaSynth (Cockos)" "reasynth.dll" 0 ""
        eXNlcu9e7f4AAAAAAgAAAAEAAAAAAAAAAgAAAAAAAAA4AAAAAAAAAA==
        AAAAAO++rd4N8K3eAAAAAAAAAAAAAAAAAAAAADm0SD59y9s+tbSxOQ==
        AAAAALbz/T5VpCs6AAAAAAAAAAAAAAAAAAA=
      >
      FLOATPOS 0 0 0 0
      FXID {52B28C73-185B-48E4-B8F4-1FD7A8848B0F}
      WAK 0
      BYPASS 0 0
      <VST "VSTi: RBN Preview (RBN)" "rbprev_vst64_beta.dll" 0 ""
        dnBicu5e7f4AAAAAAgAAAAEAAAAAAAAAAgAAAAAAAAAEAAAAAQAAAA==
        AAAAAAMAqgAAAAAAAAA=
      >
      FLOATPOS 32 32 659 497
      FXID {190BBB08-7A86-476B-BD07-5F71F5CD6F7C}
      WAK 0
    >
    <ITEM
      POSITION 0.00000000000000
      SNAPOFFS 0.00000000000000
      LENGTH 204.57948757262307
      LOOP 0
      ALLTAKES 0
      SEL 0
      FADEIN 1 0.000000 0.000000 1 0
      FADEOUT 1 0.000000 0.000000 1 0
      MUTE 0
      IGUID {81210F06-DA35-41E7-BA75-C6E1C5689733}
      IID 9
      NAME "PART GUITAR"
      VOLPAN 1.000000 0.000000 1.000000 -1.000000
      SOFFS 0.00000000000000 0.00000000000000
      PLAYRATE 1.00000000000000 1 0.00000000000000 -65536
      CHANMODE 0
      GUID {61757875-B3D4-49E4-8483-EE351B7D2386}
      <SOURCE MIDI
        HASDATA 1 480 QN
        POOLEDEVTS {226186A6-43D7-427C-BD40-EF379A5320EE}
        <X 0 0
          /wNQQVJUIEdVSVRBUg==
        >
        <X 3840 0
          /wFbcGxheV0=
        >
        E 0 90 3d 60
        E 0 90 49 60
        E 0 90 4a 60
        E 0 90 55 60
        E 0 90 57 60
        E 0 90 61 60
        E 0 90 62 60
        E 0 90 63 60
        E 120 80 3d 00
        E 0 80 49 00
        E 0 80 4a 00
        E 240 80 55 00
        E 0 80 57 00
        E 60 80 61 00
        E 0 80 62 00
        E 0 80 63 00
        E 60 90 3d 60
        E 0 90 49 60
        E 0 90 4a 60
        E 0 90 55 60
        E 0 90 57 60
        E 0 90 61 60
        E 0 90 62 60
        E 0 90 63 60
        E 60 80 3d 00
        E 0 80 49 00
        E 0 80 4a 00
        E 0 80 55 00
        E 0 80 57 00
        E 0 80 61 00
        E 0 80 62 00
        E 0 80 63 00
        E 300 90 54 60
        E 0 90 60 60
        E 60 80 54 00
        E 0 80 60 00
        E 120 90 60 60
        E 60 80 60 00
        E 120 90 56 60
        E 0 90 62 60
        E 60 80 56 00
        E 0 80 62 00
        E 180 90 3c 60
        E 0 90 48 60
        E 0 90 55 60
        E 0 90 61 60
        E 60 80 3c 00
        E 0 80 48 00
        E 0 80 55 00
        E 0 80 61 00
        E 180 90 54 60
        E 0 90 55 60
        E 0 90 60 60
        E 0 90 61 60
        E 0 90 62 60
        E 120 80 54 00
        E 0 80 55 00
        E 180 80 60 00
        E 0 80 61 00
        E 0 80 62 00
        E 180 90 55 60
        E 0 90 56 60
        E 0 90 61 60
        E 0 90 62 60
        E 60 80 55 00
        E 0 80 56 00
        E 0 80 61 00
        E 0 80 62 00
        E 180 90 48 60
        E 0 90 49 60
        E 0 90 54 60
        E 0 90 55 60
        E 0 90 60 60
        E 0 90 61 60
        E 0 90 62 60
        E 60 80 48 00
        E 0 80 49 00
        E 0 80 54 00
        E 0 80 55 00
        E 0 80 60 00
        E 0 80 61 00
        E 0 80 62 00
        E 180 90 54 60
        E 0 90 60 60
        E 60 80 54 00
        E 0 80 60 00
        E 180 90 3c 60
        E 0 90 48 60
        E 0 90 54 60
        E 0 90 60 60
        E 480 80 3c 00
        E 0 80 48 00
        E 300 80 54 00
        E 0 80 60 00
        E 180 90 3e 60
        E 0 90 4b 60
        E 0 90 58 60
        E 0 90 64 60
        E 120 80 3e 00
        E 0 80 4b 00
        E 0 80 58 00
        E 180 80 64 00
        E 180 90 4a 60
        E 0 90 57 60
        E 0 90 63 60
        E 60 80 4a 00
        E 0 80 57 00
        E 0 80 63 00
        E 180 90 56 60
        E 0 90 62 60
        E 69 80 56 00
        E 0 80 62 00
        E 171 90 3c 60
        E 0 90 48 60
        E 0 90 55 60
        E 0 90 61 60
        E 60 80 3c 00
        E 0 80 48 00
        E 0 80 55 00
        E 0 80 61 00
        E 180 90 56 60
        E 0 90 62 60
        E 60 80 56 00
        E 0 80 62 00
        E 180 90 4a 60
        E 0 90 57 60
        E 0 90 63 60
        E 60 80 4a 00
        E 0 80 57 00
        E 0 80 63 00
        E 180 90 56 60
        E 0 90 62 60
        E 120 80 56 00
        E 180 80 62 00
        E 180 90 55 60
        E 0 90 56 60
        E 0 90 61 60
        E 0 90 62 60
        E 60 80 55 00
        E 0 80 56 00
        E 0 80 61 00
        E 0 80 62 00
        E 180 90 48 60
        E 0 90 49 60
        E 0 90 54 60
        E 0 90 55 60
        E 0 90 60 60
        E 0 90 61 60
        E 0 90 62 60
        E 60 80 48 00
        E 0 80 49 00
        E 0 80 54 00
        E 0 80 55 00
        E 0 80 60 00
        E 0 80 61 00
        E 0 80 62 00
        E 180 90 54 60
        E 0 90 60 60
        E 60 80 54 00
        E 0 80 60 00
        E 180 90 3c 60
        E 0 90 48 60
        E 0 90 54 60
        E 0 90 60 60
        E 480 80 3c 00
        E 0 80 48 00
        E 60 80 54 00
        E 0 80 60 00
        E 180 90 54 60
        E 0 90 55 60
        E 0 90 60 60
        E 0 90 61 60
        E 0 90 62 60
        E 60 80 54 00
        E 0 80 55 00
        E 0 80 60 00
        E 0 80 61 00
        E 0 80 62 00
        E 180 90 3e 60
        E 0 90 4b 60
        E 0 90 58 60
        E 0 90 64 60
        E 120 80 3e 00
        E 0 80 4b 00
        E 0 80 58 00
        E 180 80 64 00
        E 180 90 4a 60
        E 0 90 57 60
        E 0 90 63 60
        E 60 80 4a 00
        E 0 80 57 00
        E 0 80 63 00
        E 180 90 56 60
        E 0 90 62 60
        E 69 80 56 00
        E 0 80 62 00
        E 171 90 3c 60
        E 0 90 48 60
        E 0 90 55 60
        E 0 90 61 60
        E 60 80 3c 00
        E 0 80 48 00
        E 0 80 55 00
        E 0 80 61 00
        E 180 90 56 60
        E 0 90 62 60
        E 60 80 56 00
        E 0 80 62 00
        E 180 90 4a 60
        E 0 90 57 60
        E 0 90 63 60
        E 60 80 4a 00
        E 0 80 57 00
        E 0 80 63 00
        E 180 90 56 60
        E 0 90 62 60
        E 120 80 56 00
        E 180 80 62 00
        E 180 90 55 60
        E 0 90 56 60
        E 0 90 61 60
        E 0 90 62 60
        E 60 80 55 00
        E 0 80 56 00
        E 0 80 61 00
        E 0 80 62 00
        E 180 90 48 60
        E 0 90 49 60
        E 0 90 54 60
        E 0 90 55 60
        E 0 90 60 60
        E 0 90 61 60
        E 0 90 62 60
        E 60 80 48 00
        E 0 80 49 00
        E 0 80 54 00
        E 0 80 55 00
        E 0 80 60 00
        E 0 80 61 00
        E 0 80 62 00
        E 180 90 54 60
        E 0 90 60 60
        E 60 80 54 00
        E 0 80 60 00
        E 180 90 3c 60
        E 0 90 48 60
        E 0 90 54 60
        E 0 90 60 60
        E 480 80 3c 00
        E 0 80 48 00
        E 300 80 54 00
        E 0 80 60 00
        E 180 90 3e 60
        E 0 90 4b 60
        E 0 90 58 60
        E 0 90 64 60
        E 120 80 3e 00
        E 0 80 4b 00
        E 0 80 58 00
        E 180 80 64 00
        E 180 90 4a 60
        E 0 90 57 60
        E 0 90 63 60
        E 60 80 4a 00
        E 0 80 57 00
        E 0 80 63 00
        E 180 90 56 60
        E 0 90 62 60
        E 69 80 56 00
        E 0 80 62 00
        E 171 90 3c 60
        E 0 90 48 60
        E 0 90 55 60
        E 0 90 61 60
        E 60 80 3c 00
        E 0 80 48 00
        E 0 80 55 00
        E 0 80 61 00
        E 180 90 56 60
        E 0 90 62 60
        E 60 80 56 00
        E 0 80 62 00
        E 180 90 4a 60
        E 0 90 57 60
        E 0 90 63 60
        E 60 80 4a 00
        E 0 80 57 00
        E 0 80 63 00
        E 180 90 74 60
        E 0 90 56 60
        E 0 90 62 60
        E 600 80 56 00
        E 60 80 62 00
        E 60 90 3d 60
        E 0 90 49 60
        E 0 90 56 60
        E 0 90 62 60
        E 120 80 3d 00
        E 0 80 49 00
        E 240 80 56 00
        E 60 80 62 00
        E 60 90 3d 60
        E 0 90 49 60
        E 0 90 56 60
        E 0 90 62 60
        E 60 80 3d 00
        E 0 80 49 00
        E 0 80 56 00
        E 0 80 62 00
        E 180 90 56 60
        E 0 90 62 60
        E 60 80 56 00
        E 0 80 62 00
        E 180 90 48 60
        E 0 90 55 60
        E 0 90 61 60
        E 60 80 48 00
        E 0 80 55 00
        E 0 80 61 00
        E 180 90 54 60
        E 0 90 60 60
        E 1740 80 54 00
        E 0 80 60 00
        E 60 80 74 00
        E 120 90 4a 60
        E 0 90 57 60
        E 0 90 63 60
        E 60 80 4a 00
        E 0 80 57 00
        E 0 80 63 00
        E 180 90 3d 60
        E 0 90 4a 60
        E 0 90 57 60
        E 0 90 63 60
        E 60 80 3d 00
        E 0 80 4a 00
        E 0 80 57 00
        E 0 80 63 00
        E 180 90 56 60
        E 0 90 62 60
        E 60 80 56 00
        E 0 80 62 00
        E 180 90 49 60
        E 0 90 56 60
        E 0 90 62 60
        E 480 80 49 00
        E 60 80 56 00
        E 0 80 62 00
        E 180 90 55 60
        E 0 90 61 60
        E 61 80 55 00
        E 0 80 61 00
        E 179 90 3c 60
        E 0 90 48 60
        E 0 90 54 60
        E 0 90 60 60
        E 71 80 3c 00
        E 0 80 48 00
        E 0 80 54 00
        E 0 80 60 00
        E 169 90 55 60
        E 0 90 61 60
        E 600 80 55 00
        E 0 80 61 00
        <X 480 0
          /wFbaWRsZV0=
        >
        <X 14040 0
          /wFbcGxheV0=
        >
        E 480 90 40 60
        E 0 90 4b 60
        E 0 90 4c 60
        E 0 90 57 60
        E 0 90 58 60
        E 0 90 62 60
        E 0 90 63 60
        E 0 90 64 60
        E 60 80 40 00
        E 0 80 4b 00
        E 0 80 4c 00
        E 0 80 57 00
        E 0 80 58 00
        E 0 80 62 00
        E 0 80 63 00
        E 0 80 64 00
        E 180 90 58 60
        E 0 90 64 60
        E 60 80 58 00
        E 0 80 64 00
        E 180 90 4a 60
        E 0 90 57 60
        E 0 90 63 60
        E 60 80 4a 00
        E 0 80 57 00
        E 0 80 63 00
        E 180 90 56 60
        E 0 90 62 60
        E 60 80 56 00
        E 0 80 62 00
        E 180 90 3d 60
        E 0 90 49 60
        E 0 90 4a 60
        E 0 90 55 60
        E 0 90 57 60
        E 0 90 61 60
        E 0 90 62 60
        E 0 90 63 60
        E 60 80 3d 00
        E 0 80 49 00
        E 0 80 4a 00
        E 0 80 55 00
        E 0 80 57 00
        E 0 80 61 00
        E 0 80 62 00
        E 0 80 63 00
        E 180 90 57 60
        E 0 90 63 60
        E 60 80 57 00
        E 0 80 63 00
        E 180 90 49 60
        E 0 90 56 60
        E 0 90 62 60
        E 60 80 49 00
        E 0 80 56 00
        E 0 80 62 00
        E 180 90 55 60
        E 0 90 61 60
        E 60 80 55 00
        E 0 80 61 00
        E 180 90 3c 60
        E 0 90 48 60
        E 0 90 49 60
        E 0 90 54 60
        E 0 90 55 60
        E 0 90 60 60
        E 0 90 61 60
        E 0 90 62 60
        E 60 80 3c 00
        E 0 80 48 00
        E 0 80 49 00
        E 0 80 54 00
        E 0 80 55 00
        E 0 80 60 00
        E 0 80 61 00
        E 0 80 62 00
        E 180 90 56 60
        E 0 90 62 60
        E 60 80 56 00
        E 0 80 62 00
        E 180 90 48 60
        E 0 90 55 60
        E 0 90 61 60
        E 60 80 48 00
        E 0 80 55 00
        E 0 80 61 00
        E 180 90 54 60
        E 0 90 60 60
        E 120 80 54 00
        E 180 80 60 00
        E 180 90 55 60
        E 0 90 61 60
        E 60 80 55 00
        E 0 80 61 00
        E 180 90 49 60
        E 0 90 56 60
        E 0 90 62 60
        E 60 80 49 00
        E 0 80 56 00
        E 0 80 62 00
        E 180 90 57 60
        E 0 90 63 60
        E 60 80 57 00
        E 0 80 63 00
        E 180 90 40 60
        E 0 90 4b 60
        E 0 90 4c 60
        E 0 90 57 60
        E 0 90 58 60
        E 0 90 62 60
        E 0 90 63 60
        E 0 90 64 60
        E 60 80 40 00
        E 0 80 4b 00
        E 0 80 4c 00
        E 0 80 57 00
        E 0 80 58 00
        E 0 80 62 00
        E 0 80 63 00
        E 0 80 64 00
        E 180 90 58 60
        E 0 90 64 60
        E 60 80 58 00
        E 0 80 64 00
        E 180 90 4a 60
        E 0 90 57 60
        E 0 90 63 60
        E 60 80 4a 00
        E 0 80 57 00
        E 0 80 63 00
        E 180 90 56 60
        E 0 90 62 60
        E 60 80 56 00
        E 0 80 62 00
        E 180 90 3d 60
        E 0 90 49 60
        E 0 90 4a 60
        E 0 90 55 60
        E 0 90 57 60
        E 0 90 61 60
        E 0 90 62 60
        E 0 90 63 60
        E 60 80 3d 00
        E 0 80 49 00
        E 0 80 4a 00
        E 0 80 55 00
        E 0 80 57 00
        E 0 80 61 00
        E 0 80 62 00
        E 0 80 63 00
        E 180 90 57 60
        E 0 90 63 60
        E 60 80 57 00
        E 0 80 63 00
        E 180 90 49 60
        E 0 90 56 60
        E 0 90 62 60
        E 60 80 49 00
        E 0 80 56 00
        E 0 80 62 00
        E 180 90 55 60
        E 0 90 61 60
        E 60 80 55 00
        E 0 80 61 00
        E 180 90 3f 60
        E 0 90 4a 60
        E 0 90 4b 60
        E 0 90 56 60
        E 0 90 58 60
        E 0 90 61 60
        E 0 90 63 60
        E 0 90 64 60
        E 60 80 3f 00
        E 0 80 4a 00
        E 0 80 4b 00
        E 0 80 56 00
        E 0 80 58 00
        E 0 80 61 00
        E 0 80 63 00
        E 0 80 64 00
        E 180 90 4a 60
        E 0 90 4b 60
        E 0 90 56 60
        E 0 90 58 60
        E 0 90 61 60
        E 0 90 63 60
        E 0 90 64 60
        E 60 80 4a 00
        E 0 80 4b 00
        E 0 80 56 00
        E 0 80 58 00
        E 0 80 61 00
        E 0 80 63 00
        E 0 80 64 00
        E 180 90 3f 60
        E 0 90 4a 60
        E 0 90 4b 60
        E 0 90 56 60
        E 0 90 58 60
        E 0 90 61 60
        E 0 90 63 60
        E 0 90 64 60
        E 60 80 3f 00
        E 0 80 4a 00
        E 0 80 4b 00
        E 0 80 56 00
        E 0 80 58 00
        E 0 80 61 00
        E 0 80 63 00
        E 0 80 64 00
        E 180 90 4a 60
        E 0 90 4b 60
        E 0 90 56 60
        E 0 90 58 60
        E 0 90 61 60
        E 0 90 63 60
        E 0 90 64 60
        E 60 80 4a 00
        E 0 80 4b 00
        E 0 80 56 00
        E 0 80 58 00
        E 0 80 61 00
        E 0 80 63 00
        E 0 80 64 00
        E 180 90 3f 60
        E 0 90 4a 60
        E 0 90 4b 60
        E 0 90 56 60
        E 0 90 58 60
        E 0 90 61 60
        E 0 90 63 60
        E 0 90 64 60
        E 60 80 3f 00
        E 0 80 4a 00
        E 0 80 4b 00
        E 0 80 56 00
        E 0 80 58 00
        E 0 80 61 00
        E 0 80 63 00
        E 0 80 64 00
        E 180 90 4a 60
        E 0 90 4b 60
        E 0 90 56 60
        E 0 90 58 60
        E 0 90 61 60
        E 0 90 63 60
        E 0 90 64 60
        E 120 80 4a 00
        E 0 80 4b 00
        E 420 80 56 00
        E 0 80 58 00
        E 0 80 61 00
        E 0 80 63 00
        E 0 80 64 00
        E 180 90 3c 60
        E 0 90 48 60
        E 0 90 49 60
        E 0 90 54 60
        E 0 90 55 60
        E 0 90 60 60
        E 0 90 61 60
        E 0 90 62 60
        E 120 80 3c 00
        E 0 80 48 00
        E 0 80 49 00
        E 120 90 74 64
        E 120 80 54 00
        E 0 80 55 00
        E 60 80 60 00
        E 0 80 61 00
        E 0 80 62 00
        E 60 90 3c 60
        E 0 90 48 60
        E 0 90 49 60
        E 0 90 54 60
        E 0 90 55 60
        E 0 90 60 60
        E 0 90 61 60
        E 0 90 62 60
        E 120 80 3c 00
        E 0 80 48 00
        E 0 80 49 00
        E 0 80 54 00
        E 0 80 55 00
        E 180 80 60 00
        E 0 80 61 00
        E 0 80 62 00
        E 180 90 3c 60
        E 0 90 48 60
        E 0 90 49 60
        E 0 90 54 60
        E 0 90 55 60
        E 0 90 60 60
        E 0 90 61 60
        E 60 80 3c 00
        E 0 80 48 00
        E 0 80 49 00
        E 0 80 54 00
        E 0 80 55 00
        E 0 80 60 00
        E 0 80 61 00
        E 180 90 48 60
        E 0 90 49 60
        E 0 90 54 60
        E 0 90 55 60
        E 0 90 60 60
        E 0 90 61 60
        E 60 80 48 00
        E 0 80 49 00
        E 0 80 54 00
        E 0 80 55 00
        E 0 80 60 00
        E 0 80 61 00
        E 180 90 3c 60
        E 0 90 48 60
        E 0 90 49 60
        E 0 90 54 60
        E 0 90 55 60
        E 0 90 60 60
        E 0 90 61 60
        E 60 80 3c 00
        E 0 80 48 00
        E 0 80 49 00
        E 0 80 54 00
        E 0 80 55 00
        E 0 80 60 00
        E 0 80 61 00
        E 180 90 54 60
        E 0 90 56 60
        E 0 90 60 60
        E 0 90 61 60
        E 0 90 63 60
        E 360 80 54 00
        E 0 80 56 00
        E 60 80 60 00
        E 0 80 61 00
        E 0 80 63 00
        E 60 90 48 60
        E 0 90 4a 60
        E 0 90 54 60
        E 0 90 56 60
        E 0 90 60 60
        E 0 90 61 60
        E 0 90 63 60
        E 60 80 48 00
        E 0 80 4a 00
        E 0 80 54 00
        E 0 80 56 00
        E 0 80 60 00
        E 0 80 61 00
        E 0 80 63 00
        E 180 90 48 60
        E 0 90 4a 60
        E 0 90 54 60
        E 0 90 56 60
        E 0 90 60 60
        E 0 90 61 60
        E 0 90 63 60
        E 60 80 48 00
        E 0 80 4a 00
        E 0 80 54 00
        E 0 80 56 00
        E 0 80 60 00
        E 0 80 61 00
        E 0 80 63 00
        E 180 90 54 60
        E 0 90 56 60
        E 0 90 60 60
        E 0 90 61 60
        E 0 90 63 60
        E 60 80 54 00
        E 0 80 56 00
        E 0 80 60 00
        E 0 80 61 00
        E 0 80 63 00
        E 180 90 3f 60
        E 0 90 4a 60
        E 0 90 4b 60
        E 0 90 55 60
        E 0 90 58 60
        E 0 90 61 60
        E 0 90 62 60
        E 0 90 64 60
        E 60 80 3f 00
        E 0 80 4a 00
        E 0 80 4b 00
        E 0 80 55 00
        E 0 80 58 00
        E 0 80 61 00
        E 0 80 62 00
        E 0 80 64 00
        E 180 90 4a 60
        E 0 90 4b 60
        E 0 90 55 60
        E 0 90 58 60
        E 0 90 61 60
        E 0 90 62 60
        E 0 90 64 60
        E 60 80 4a 00
        E 0 80 4b 00
        E 0 80 55 00
        E 0 80 58 00
        E 0 80 61 00
        E 0 80 62 00
        E 0 80 64 00
        E 180 90 4a 60
        E 0 90 4b 60
        E 0 90 55 60
        E 0 90 58 60
        E 0 90 61 60
        E 0 90 62 60
        E 0 90 64 60
        E 60 80 4a 00
        E 0 80 4b 00
        E 0 80 55 00
        E 0 80 58 00
        E 0 80 61 00
        E 0 80 62 00
        E 0 80 64 00
        E 180 90 55 60
        E 0 90 58 60
        E 0 90 61 60
        E 0 90 62 60
        E 0 90 64 60
        E 60 80 55 00
        E 0 80 58 00
        E 0 80 61 00
        E 0 80 62 00
        E 0 80 64 00
        E 60 80 74 00
        E 120 90 3c 60
        E 0 90 48 60
        E 0 90 49 60
        E 0 90 54 60
        E 0 90 55 60
        E 0 90 60 60
        E 0 90 61 60
        E 0 90 62 60
        E 120 80 3c 00
        E 0 80 48 00
        E 0 80 49 00
        E 240 80 54 00
        E 0 80 55 00
        E 60 80 60 00
        E 0 80 61 00
        E 0 80 62 00
        E 60 90 3c 60
        E 0 90 48 60
        E 0 90 49 60
        E 0 90 54 60
        E 0 90 55 60
        E 0 90 60 60
        E 0 90 61 60
        E 0 90 62 60
        E 120 80 3c 00
        E 0 80 48 00
        E 0 80 49 00
        E 0 80 54 00
        E 0 80 55 00
        E 180 80 60 00
        E 0 80 61 00
        E 0 80 62 00
        E 180 90 3c 60
        E 0 90 48 60
        E 0 90 49 60
        E 0 90 54 60
        E 0 90 55 60
        E 0 90 60 60
        E 0 90 61 60
        E 60 80 3c 00
        E 0 80 48 00
        E 0 80 49 00
        E 0 80 54 00
        E 0 80 55 00
        E 0 80 60 00
        E 0 80 61 00
        E 180 90 48 60
        E 0 90 49 60
        E 0 90 54 60
        E 0 90 55 60
        E 0 90 60 60
        E 0 90 61 60
        E 60 80 48 00
        E 0 80 49 00
        E 0 80 54 00
        E 0 80 55 00
        E 0 80 60 00
        E 0 80 61 00
        E 180 90 3c 60
        E 0 90 48 60
        E 0 90 49 60
        E 0 90 54 60
        E 0 90 55 60
        E 0 90 60 60
        E 0 90 61 60
        E 60 80 3c 00
        E 0 80 48 00
        E 0 80 49 00
        E 0 80 54 00
        E 0 80 55 00
        E 0 80 60 00
        E 0 80 61 00
        E 180 90 54 60
        E 0 90 56 60
        E 0 90 60 60
        E 0 90 61 60
        E 0 90 63 60
        E 360 80 54 00
        E 0 80 56 00
        E 60 80 60 00
        E 0 80 61 00
        E 0 80 63 00
        E 60 90 48 60
        E 0 90 4a 60
        E 0 90 54 60
        E 0 90 56 60
        E 0 90 60 60
        E 0 90 61 60
        E 0 90 63 60
        E 60 80 48 00
        E 0 80 4a 00
        E 0 80 54 00
        E 0 80 56 00
        E 0 80 60 00
        E 0 80 61 00
        E 0 80 63 00
        E 180 90 48 60
        E 0 90 4a 60
        E 0 90 54 60
        E 0 90 56 60
        E 0 90 60 60
        E 0 90 61 60
        E 0 90 63 60
        E 60 80 48 00
        E 0 80 4a 00
        E 0 80 54 00
        E 0 80 56 00
        E 0 80 60 00
        E 0 80 61 00
        E 0 80 63 00
        E 180 90 54 60
        E 0 90 56 60
        E 0 90 60 60
        E 0 90 61 60
        E 0 90 63 60
        E 60 80 54 00
        E 0 80 56 00
        E 0 80 60 00
        E 0 80 61 00
        E 0 80 63 00
        E 180 90 3f 60
        E 0 90 4a 60
        E 0 90 4b 60
        E 0 90 55 60
        E 0 90 58 60
        E 0 90 61 60
        E 0 90 62 60
        E 0 90 64 60
        E 60 80 3f 00
        E 0 80 4a 00
        E 0 80 4b 00
        E 0 80 55 00
        E 0 80 58 00
        E 0 80 61 00
        E 0 80 62 00
        E 0 80 64 00
        E 180 90 4a 60
        E 0 90 4b 60
        E 0 90 55 60
        E 0 90 58 60
        E 0 90 61 60
        E 0 90 62 60
        E 0 90 64 60
        E 60 80 4a 00
        E 0 80 4b 00
        E 0 80 55 00
        E 0 80 58 00
        E 0 80 61 00
        E 0 80 62 00
        E 0 80 64 00
        E 180 90 4a 60
        E 0 90 4b 60
        E 0 90 55 60
        E 0 90 58 60
        E 0 90 61 60
        E 0 90 62 60
        E 0 90 64 60
        E 60 80 4a 00
        E 0 80 4b 00
        E 0 80 55 00
        E 0 80 58 00
        E 0 80 61 00
        E 0 80 62 00
        E 0 80 64 00
        E 180 90 55 60
        E 0 90 58 60
        E 0 90 61 60
        E 0 90 62 60
        E 0 90 64 60
        E 60 80 55 00
        E 0 80 58 00
        E 0 80 61 00
        E 0 80 62 00
        E 0 80 64 00
        E 180 90 3e 60
        E 0 90 4b 60
        E 0 90 58 60
        E 0 90 64 60
        E 62 80 3e 00
        E 0 80 4b 00
        E 0 80 58 00
        E 0 80 64 00
        E 178 90 57 60
        E 0 90 63 60
        E 60 80 57 00
        E 0 80 63 00
        E 180 90 4b 60
        E 0 90 58 60
        E 0 90 64 60
        E 60 80 4b 00
        E 0 80 58 00
        E 0 80 64 00
        E 180 90 57 60
        E 0 90 63 60
        E 60 80 57 00
        E 0 80 63 00
        E 180 90 3c 60
        E 0 90 48 60
        E 0 90 55 60
        E 0 90 61 60
        E 60 80 3c 00
        E 0 80 48 00
        E 0 80 55 00
        E 0 80 61 00
        E 180 90 56 60
        E 0 90 62 60
        E 60 80 56 00
        E 0 80 62 00
        E 180 90 4b 60
        E 0 90 58 60
        E 0 90 64 60
        E 60 80 4b 00
        E 0 80 58 00
        E 0 80 64 00
        E 180 90 57 60
        E 0 90 63 60
        E 360 80 57 00
        E 60 80 63 00
        E 60 90 4a 60
        E 0 90 57 60
        E 0 90 63 60
        E 60 80 4a 00
        E 0 80 57 00
        E 0 80 63 00
        E 180 90 3d 60
        E 0 90 4a 60
        E 0 90 57 60
        E 0 90 63 60
        E 60 80 3d 00
        E 0 80 4a 00
        E 0 80 57 00
        E 0 80 63 00
        E 180 90 4a 60
        E 0 90 57 60
        E 0 90 63 60
        E 60 80 4a 00
        E 0 80 57 00
        E 0 80 63 00
        E 180 90 3d 60
        E 0 90 4a 60
        E 0 90 57 60
        E 0 90 63 60
        E 60 80 3d 00
        E 0 80 4a 00
        E 0 80 57 00
        E 0 80 63 00
        E 180 90 56 60
        E 0 90 62 60
        E 60 80 56 00
        E 0 80 62 00
        E 180 90 3d 60
        E 0 90 4a 60
        E 0 90 57 60
        E 0 90 63 60
        E 60 80 3d 00
        E 0 80 4a 00
        E 0 80 57 00
        E 0 80 63 00
        E 180 90 56 60
        E 0 90 62 60
        E 1980 80 56 00
        E 0 80 62 00
        E 180 90 3e 60
        E 0 90 4b 60
        E 0 90 58 60
        E 0 90 64 60
        E 62 80 3e 00
        E 0 80 4b 00
        E 0 80 58 00
        E 0 80 64 00
        E 178 90 57 60
        E 0 90 63 60
        E 60 80 57 00
        E 0 80 63 00
        E 180 90 4b 60
        E 0 90 58 60
        E 0 90 64 60
        E 60 80 4b 00
        E 0 80 58 00
        E 0 80 64 00
        E 180 90 57 60
        E 0 90 63 60
        E 60 80 57 00
        E 0 80 63 00
        E 180 90 3c 60
        E 0 90 48 60
        E 0 90 55 60
        E 0 90 61 60
        E 0 90 74 60
        E 60 80 3c 00
        E 0 80 48 00
        E 0 80 55 00
        E 0 80 61 00
        E 180 90 56 60
        E 0 90 62 60
        E 60 80 56 00
        E 0 80 62 00
        E 180 90 4b 60
        E 0 90 58 60
        E 0 90 64 60
        E 60 80 4b 00
        E 0 80 58 00
        E 0 80 64 00
        E 180 90 57 60
        E 0 90 63 60
        E 4140 80 57 00
        E 0 80 63 00
        E 60 80 74 00
        <X 420 0
          /wFbaWRsZV0=
        >
        <X 18180 0
          /wFbcGxheV0=
        >
        E 480 90 40 60
        E 0 90 4b 60
        E 0 90 4c 60
        E 0 90 57 60
        E 0 90 58 60
        E 0 90 62 60
        E 0 90 63 60
        E 0 90 64 60
        E 60 80 40 00
        E 0 80 4b 00
        E 0 80 4c 00
        E 0 80 57 00
        E 0 80 58 00
        E 0 80 62 00
        E 0 80 63 00
        E 0 80 64 00
        E 180 90 58 60
        E 0 90 64 60
        E 60 80 58 00
        E 0 80 64 00
        E 180 90 4a 60
        E 0 90 57 60
        E 0 90 63 60
        E 60 80 4a 00
        E 0 80 57 00
        E 0 80 63 00
        E 180 90 56 60
        E 0 90 62 60
        E 60 80 56 00
        E 0 80 62 00
        E 180 90 3d 60
        E 0 90 49 60
        E 0 90 4a 60
        E 0 90 55 60
        E 0 90 57 60
        E 0 90 61 60
        E 0 90 62 60
        E 0 90 63 60
        E 60 80 3d 00
        E 0 80 49 00
        E 0 80 4a 00
        E 0 80 55 00
        E 0 80 57 00
        E 0 80 61 00
        E 0 80 62 00
        E 0 80 63 00
        E 180 90 57 60
        E 0 90 63 60
        E 60 80 57 00
        E 0 80 63 00
        E 180 90 49 60
        E 0 90 56 60
        E 0 90 62 60
        E 60 80 49 00
        E 0 80 56 00
        E 0 80 62 00
        E 180 90 55 60
        E 0 90 61 60
        E 60 80 55 00
        E 0 80 61 00
        E 180 90 3c 60
        E 0 90 48 60
        E 0 90 49 60
        E 0 90 54 60
        E 0 90 55 60
        E 0 90 60 60
        E 0 90 61 60
        E 0 90 62 60
        E 60 80 3c 00
        E 0 80 48 00
        E 0 80 49 00
        E 0 80 54 00
        E 0 80 55 00
        E 0 80 60 00
        E 0 80 61 00
        E 0 80 62 00
        E 180 90 56 60
        E 0 90 62 60
        E 60 80 56 00
        E 0 80 62 00
        E 180 90 48 60
        E 0 90 55 60
        E 0 90 61 60
        E 60 80 48 00
        E 0 80 55 00
        E 0 80 61 00
        E 180 90 54 60
        E 0 90 60 60
        E 0 90 74 60
        E 120 80 54 00
        E 180 80 60 00
        E 180 90 55 60
        E 0 90 61 60
        E 60 80 55 00
        E 0 80 61 00
        E 180 90 49 60
        E 0 90 56 60
        E 0 90 62 60
        E 60 80 49 00
        E 0 80 56 00
        E 0 80 62 00
        E 180 90 57 60
        E 0 90 63 60
        E 60 80 57 00
        E 0 80 63 00
        E 180 90 40 60
        E 0 90 4b 60
        E 0 90 4c 60
        E 0 90 57 60
        E 0 90 58 60
        E 0 90 62 60
        E 0 90 63 60
        E 0 90 64 60
        E 60 80 74 00
        E 0 80 40 00
        E 0 80 4b 00
        E 0 80 4c 00
        E 0 80 57 00
        E 0 80 58 00
        E 0 80 62 00
        E 0 80 63 00
        E 0 80 64 00
        E 180 90 58 60
        E 0 90 64 60
        E 60 80 58 00
        E 0 80 64 00
        E 180 90 4a 60
        E 0 90 57 60
        E 0 90 63 60
        E 60 80 4a 00
        E 0 80 57 00
        E 0 80 63 00
        E 180 90 56 60
        E 0 90 62 60
        E 60 80 56 00
        E 0 80 62 00
        E 180 90 3d 60
        E 0 90 49 60
        E 0 90 4a 60
        E 0 90 55 60
        E 0 90 57 60
        E 0 90 61 60
        E 0 90 62 60
        E 0 90 63 60
        E 60 80 3d 00
        E 0 80 49 00
        E 0 80 4a 00
        E 0 80 55 00
        E 0 80 57 00
        E 0 80 61 00
        E 0 80 62 00
        E 0 80 63 00
        E 180 90 57 60
        E 0 90 63 60
        E 60 80 57 00
        E 0 80 63 00
        E 180 90 49 60
        E 0 90 56 60
        E 0 90 62 60
        E 60 80 49 00
        E 0 80 56 00
        E 0 80 62 00
        E 180 90 55 60
        E 0 90 61 60
        E 60 80 55 00
        E 0 80 61 00
        E 180 90 3f 60
        E 0 90 4a 60
        E 0 90 4b 60
        E 0 90 56 60
        E 0 90 58 60
        E 0 90 61 60
        E 0 90 63 60
        E 0 90 64 60
        E 60 80 3f 00
        E 0 80 4a 00
        E 0 80 4b 00
        E 0 80 56 00
        E 0 80 58 00
        E 0 80 61 00
        E 0 80 63 00
        E 0 80 64 00
        E 180 90 4a 60
        E 0 90 4b 60
        E 0 90 56 60
        E 0 90 58 60
        E 0 90 61 60
        E 0 90 63 60
        E 0 90 64 60
        E 60 80 4a 00
        E 0 80 4b 00
        E 0 80 56 00
        E 0 80 58 00
        E 0 80 61 00
        E 0 80 63 00
        E 0 80 64 00
        E 180 90 3f 60
        E 0 90 4a 60
        E 0 90 4b 60
        E 0 90 56 60
        E 0 90 58 60
        E 0 90 61 60
        E 0 90 63 60
        E 0 90 64 60
        E 60 80 3f 00
        E 0 80 4a 00
        E 0 80 4b 00
        E 0 80 56 00
        E 0 80 58 00
        E 0 80 61 00
        E 0 80 63 00
        E 0 80 64 00
        E 180 90 4a 60
        E 0 90 4b 60
        E 0 90 56 60
        E 0 90 58 60
        E 0 90 61 60
        E 0 90 63 60
        E 0 90 64 60
        E 60 80 4a 00
        E 0 80 4b 00
        E 0 80 56 00
        E 0 80 58 00
        E 0 80 61 00
        E 0 80 63 00
        E 0 80 64 00
        E 180 90 3f 60
        E 0 90 4a 60
        E 0 90 4b 60
        E 0 90 56 60
        E 0 90 58 60
        E 0 90 61 60
        E 0 90 63 60
        E 0 90 64 60
        E 60 80 3f 00
        E 0 80 4a 00
        E 0 80 4b 00
        E 0 80 56 00
        E 0 80 58 00
        E 0 80 61 00
        E 0 80 63 00
        E 0 80 64 00
        E 180 90 4a 60
        E 0 90 4b 60
        E 0 90 56 60
        E 0 90 58 60
        E 0 90 61 60
        E 0 90 63 60
        E 0 90 64 60
        E 120 80 4a 00
        E 0 80 4b 00
        E 420 80 56 00
        E 0 80 58 00
        E 0 80 61 00
        E 0 80 63 00
        E 0 80 64 00
        E 180 90 3c 60
        E 0 90 48 60
        E 0 90 49 60
        E 0 90 54 60
        E 0 90 55 60
        E 0 90 60 60
        E 0 90 61 60
        E 0 90 62 60
        E 120 80 3c 00
        E 0 80 48 00
        E 0 80 49 00
        E 240 80 54 00
        E 0 80 55 00
        E 60 80 60 00
        E 0 80 61 00
        E 0 80 62 00
        E 60 90 3c 60
        E 0 90 48 60
        E 0 90 49 60
        E 0 90 54 60
        E 0 90 55 60
        E 0 90 60 60
        E 0 90 61 60
        E 0 90 62 60
        E 120 80 3c 00
        E 0 80 48 00
        E 0 80 49 00
        E 0 80 54 00
        E 0 80 55 00
        E 180 80 60 00
        E 0 80 61 00
        E 0 80 62 00
        E 180 90 3c 60
        E 0 90 48 60
        E 0 90 49 60
        E 0 90 54 60
        E 0 90 55 60
        E 0 90 60 60
        E 0 90 61 60
        E 60 80 3c 00
        E 0 80 48 00
        E 0 80 49 00
        E 0 80 54 00
        E 0 80 55 00
        E 0 80 60 00
        E 0 80 61 00
        E 180 90 48 60
        E 0 90 49 60
        E 0 90 54 60
        E 0 90 55 60
        E 0 90 60 60
        E 0 90 61 60
        E 60 80 48 00
        E 0 80 49 00
        E 0 80 54 00
        E 0 80 55 00
        E 0 80 60 00
        E 0 80 61 00
        E 180 90 3c 60
        E 0 90 48 60
        E 0 90 49 60
        E 0 90 54 60
        E 0 90 55 60
        E 0 90 60 60
        E 0 90 61 60
        E 60 80 3c 00
        E 0 80 48 00
        E 0 80 49 00
        E 0 80 54 00
        E 0 80 55 00
        E 0 80 60 00
        E 0 80 61 00
        E 180 90 54 60
        E 0 90 56 60
        E 0 90 60 60
        E 0 90 61 60
        E 0 90 63 60
        E 360 80 54 00
        E 0 80 56 00
        E 60 80 60 00
        E 0 80 61 00
        E 0 80 63 00
        E 60 90 48 60
        E 0 90 4a 60
        E 0 90 54 60
        E 0 90 56 60
        E 0 90 60 60
        E 0 90 61 60
        E 0 90 63 60
        E 60 80 48 00
        E 0 80 4a 00
        E 0 80 54 00
        E 0 80 56 00
        E 0 80 60 00
        E 0 80 61 00
        E 0 80 63 00
        E 180 90 48 60
        E 0 90 4a 60
        E 0 90 54 60
        E 0 90 56 60
        E 0 90 60 60
        E 0 90 61 60
        E 0 90 63 60
        E 60 80 48 00
        E 0 80 4a 00
        E 0 80 54 00
        E 0 80 56 00
        E 0 80 60 00
        E 0 80 61 00
        E 0 80 63 00
        E 180 90 54 60
        E 0 90 56 60
        E 0 90 60 60
        E 0 90 61 60
        E 0 90 63 60
        E 60 80 54 00
        E 0 80 56 00
        E 0 80 60 00
        E 0 80 61 00
        E 0 80 63 00
        E 180 90 3f 60
        E 0 90 4a 60
        E 0 90 4b 60
        E 0 90 55 60
        E 0 90 58 60
        E 0 90 61 60
        E 0 90 62 60
        E 0 90 64 60
        E 60 80 3f 00
        E 0 80 4a 00
        E 0 80 4b 00
        E 0 80 55 00
        E 0 80 58 00
        E 0 80 61 00
        E 0 80 62 00
        E 0 80 64 00
        E 180 90 4a 60
        E 0 90 4b 60
        E 0 90 55 60
        E 0 90 58 60
        E 0 90 61 60
        E 0 90 62 60
        E 0 90 64 60
        E 60 80 4a 00
        E 0 80 4b 00
        E 0 80 55 00
        E 0 80 58 00
        E 0 80 61 00
        E 0 80 62 00
        E 0 80 64 00
        E 180 90 4a 60
        E 0 90 4b 60
        E 0 90 55 60
        E 0 90 58 60
        E 0 90 61 60
        E 0 90 62 60
        E 0 90 64 60
        E 60 80 4a 00
        E 0 80 4b 00
        E 0 80 55 00
        E 0 80 58 00
        E 0 80 61 00
        E 0 80 62 00
        E 0 80 64 00
        E 180 90 55 60
        E 0 90 58 60
        E 0 90 61 60
        E 0 90 62 60
        E 0 90 64 60
        E 60 80 55 00
        E 0 80 58 00
        E 0 80 61 00
        E 0 80 62 00
        E 0 80 64 00
        E 180 90 3c 60
        E 0 90 48 60
        E 0 90 49 60
        E 0 90 54 60
        E 0 90 55 60
        E 0 90 60 60
        E 0 90 61 60
        E 0 90 62 60
        E 120 80 3c 00
        E 0 80 48 00
        E 0 80 49 00
        E 240 80 54 00
        E 0 80 55 00
        E 60 80 60 00
        E 0 80 61 00
        E 0 80 62 00
        E 60 90 3c 60
        E 0 90 48 60
        E 0 90 49 60
        E 0 90 54 60
        E 0 90 55 60
        E 0 90 60 60
        E 0 90 61 60
        E 0 90 62 60
        E 120 80 3c 00
        E 0 80 48 00
        E 0 80 49 00
        E 0 80 54 00
        E 0 80 55 00
        E 180 80 60 00
        E 0 80 61 00
        E 0 80 62 00
        E 180 90 3c 60
        E 0 90 48 60
        E 0 90 49 60
        E 0 90 54 60
        E 0 90 55 60
        E 0 90 60 60
        E 0 90 61 60
        E 60 80 3c 00
        E 0 80 48 00
        E 0 80 49 00
        E 0 80 54 00
        E 0 80 55 00
        E 0 80 60 00
        E 0 80 61 00
        E 180 90 48 60
        E 0 90 49 60
        E 0 90 54 60
        E 0 90 55 60
        E 0 90 60 60
        E 0 90 61 60
        E 60 80 48 00
        E 0 80 49 00
        E 0 80 54 00
        E 0 80 55 00
        E 0 80 60 00
        E 0 80 61 00
        E 180 90 3c 60
        E 0 90 48 60
        E 0 90 49 60
        E 0 90 54 60
        E 0 90 55 60
        E 0 90 60 60
        E 0 90 61 60
        E 60 80 3c 00
        E 0 80 48 00
        E 0 80 49 00
        E 0 80 54 00
        E 0 80 55 00
        E 0 80 60 00
        E 0 80 61 00
        E 180 90 54 60
        E 0 90 56 60
        E 0 90 60 60
        E 0 90 61 60
        E 0 90 63 60
        E 360 80 54 00
        E 0 80 56 00
        E 60 80 60 00
        E 0 80 61 00
        E 0 80 63 00
        E 60 90 48 60
        E 0 90 4a 60
        E 0 90 54 60
        E 0 90 56 60
        E 0 90 60 60
        E 0 90 61 60
        E 0 90 63 60
        E 60 80 48 00
        E 0 80 4a 00
        E 0 80 54 00
        E 0 80 56 00
        E 0 80 60 00
        E 0 80 61 00
        E 0 80 63 00
        E 180 90 48 60
        E 0 90 4a 60
        E 0 90 54 60
        E 0 90 56 60
        E 0 90 60 60
        E 0 90 61 60
        E 0 90 63 60
        E 60 80 48 00
        E 0 80 4a 00
        E 0 80 54 00
        E 0 80 56 00
        E 0 80 60 00
        E 0 80 61 00
        E 0 80 63 00
        E 180 90 54 60
        E 0 90 56 60
        E 0 90 60 60
        E 0 90 61 60
        E 0 90 63 60
        E 60 80 54 00
        E 0 80 56 00
        E 0 80 60 00
        E 0 80 61 00
        E 0 80 63 00
        E 180 90 3f 60
        E 0 90 4a 60
        E 0 90 4b 60
        E 0 90 55 60
        E 0 90 58 60
        E 0 90 61 60
        E 0 90 62 60
        E 0 90 64 60
        E 60 80 3f 00
        E 0 80 4a 00
        E 0 80 4b 00
        E 0 80 55 00
        E 0 80 58 00
        E 0 80 61 00
        E 0 80 62 00
        E 0 80 64 00
        E 180 90 4a 60
        E 0 90 4b 60
        E 0 90 55 60
        E 0 90 58 60
        E 0 90 61 60
        E 0 90 62 60
        E 0 90 64 60
        E 60 80 4a 00
        E 0 80 4b 00
        E 0 80 55 00
        E 0 80 58 00
        E 0 80 61 00
        E 0 80 62 00
        E 0 80 64 00
        E 180 90 4a 60
        E 0 90 4b 60
        E 0 90 55 60
        E 0 90 58 60
        E 0 90 61 60
        E 0 90 62 60
        E 0 90 64 60
        E 60 80 4a 00
        E 0 80 4b 00
        E 0 80 55 00
        E 0 80 58 00
        E 0 80 61 00
        E 0 80 62 00
        E 0 80 64 00
        E 180 90 55 60
        E 0 90 58 60
        E 0 90 61 60
        E 0 90 62 60
        E 0 90 64 60
        E 60 80 55 00
        E 0 80 58 00
        E 0 80 61 00
        E 0 80 62 00
        E 0 80 64 00
        E 180 90 3e 60
        E 0 90 4b 60
        E 0 90 58 60
        E 0 90 64 60
        E 62 80 3e 00
        E 0 80 4b 00
        E 0 80 58 00
        E 0 80 64 00
        E 178 90 57 60
        E 0 90 63 60
        E 60 80 57 00
        E 0 80 63 00
        E 180 90 4b 60
        E 0 90 58 60
        E 0 90 64 60
        E 60 80 4b 00
        E 0 80 58 00
        E 0 80 64 00
        E 180 90 57 60
        E 0 90 63 60
        E 60 80 57 00
        E 0 80 63 00
        E 180 90 3c 60
        E 0 90 48 60
        E 0 90 55 60
        E 0 90 61 60
        E 60 80 3c 00
        E 0 80 48 00
        E 0 80 55 00
        E 0 80 61 00
        E 180 90 56 60
        E 0 90 62 60
        E 60 80 56 00
        E 0 80 62 00
        E 180 90 4b 60
        E 0 90 58 60
        E 0 90 64 60
        E 60 80 4b 00
        E 0 80 58 00
        E 0 80 64 00
        E 180 90 57 60
        E 0 90 63 60
        E 360 80 57 00
        E 60 80 63 00
        E 60 90 4a 60
        E 0 90 57 60
        E 0 90 63 60
        E 60 80 4a 00
        E 0 80 57 00
        E 0 80 63 00
        E 180 90 3d 60
        E 0 90 4a 60
        E 0 90 57 60
        E 0 90 63 60
        E 60 80 3d 00
        E 0 80 4a 00
        E 0 80 57 00
        E 0 80 63 00
        E 180 90 4a 60
        E 0 90 57 60
        E 0 90 63 60
        E 60 80 4a 00
        E 0 80 57 00
        E 0 80 63 00
        E 180 90 3d 60
        E 0 90 4a 60
        E 0 90 57 60
        E 0 90 63 60
        E 60 80 3d 00
        E 0 80 4a 00
        E 0 80 57 00
        E 0 80 63 00
        E 180 90 56 60
        E 0 90 62 60
        E 60 80 56 00
        E 0 80 62 00
        E 180 90 3d 60
        E 0 90 4a 60
        E 0 90 57 60
        E 0 90 63 60
        E 60 80 3d 00
        E 0 80 4a 00
        E 0 80 57 00
        E 0 80 63 00
        E 180 90 56 60
        E 0 90 62 60
        E 0 90 74 60
        E 1980 80 56 00
        E 0 80 62 00
        E 180 90 3e 60
        E 0 90 4b 60
        E 0 90 58 60
        E 0 90 64 60
        E 60 80 74 00
        E 2 80 3e 00
        E 0 80 4b 00
        E 0 80 58 00
        E 0 80 64 00
        E 178 90 57 60
        E 0 90 63 60
        E 60 80 57 00
        E 0 80 63 00
        E 180 90 4b 60
        E 0 90 58 60
        E 0 90 64 60
        E 60 80 4b 00
        E 0 80 58 00
        E 0 80 64 00
        E 180 90 57 60
        E 0 90 63 60
        E 60 80 57 00
        E 0 80 63 00
        E 180 90 3c 60
        E 0 90 48 60
        E 0 90 55 60
        E 0 90 61 60
        E 60 80 3c 00
        E 0 80 48 00
        E 0 80 55 00
        E 0 80 61 00
        E 180 90 56 60
        E 0 90 62 60
        E 60 80 56 00
        E 0 80 62 00
        E 180 90 4b 60
        E 0 90 58 60
        E 0 90 64 60
        E 60 80 4b 00
        E 0 80 58 00
        E 0 80 64 00
        E 180 90 57 60
        E 0 90 63 60
        E 60 80 57 00
        E 0 80 63 00
        E 180 90 40 60
        E 0 90 4b 60
        E 0 90 4c 60
        E 0 90 57 60
        E 0 90 58 60
        E 0 90 62 60
        E 0 90 63 60
        E 0 90 64 60
        E 60 80 40 00
        E 0 80 4b 00
        E 0 80 4c 00
        E 0 80 57 00
        E 0 80 58 00
        E 0 80 62 00
        E 0 80 63 00
        E 0 80 64 00
        E 180 90 58 60
        E 0 90 64 60
        E 60 80 58 00
        E 0 80 64 00
        E 180 90 4a 60
        E 0 90 57 60
        E 0 90 63 60
        E 60 80 4a 00
        E 0 80 57 00
        E 0 80 63 00
        E 180 90 56 60
        E 0 90 62 60
        E 60 80 56 00
        E 0 80 62 00
        E 180 90 3d 60
        E 0 90 49 60
        E 0 90 4a 60
        E 0 90 55 60
        E 0 90 57 60
        E 0 90 61 60
        E 0 90 62 60
        E 0 90 63 60
        E 60 80 3d 00
        E 0 80 49 00
        E 0 80 4a 00
        E 0 80 55 00
        E 0 80 57 00
        E 0 80 61 00
        E 0 80 62 00
        E 0 80 63 00
        E 180 90 57 60
        E 0 90 63 60
        E 60 80 57 00
        E 0 80 63 00
        E 180 90 49 60
        E 0 90 56 60
        E 0 90 62 60
        E 60 80 49 00
        E 0 80 56 00
        E 0 80 62 00
        E 180 90 55 60
        E 0 90 61 60
        E 60 80 55 00
        E 0 80 61 00
        E 180 90 3c 60
        E 0 90 48 60
        E 0 90 49 60
        E 0 90 54 60
        E 0 90 55 60
        E 0 90 60 60
        E 0 90 61 60
        E 0 90 62 60
        E 60 80 3c 00
        E 0 80 48 00
        E 0 80 49 00
        E 0 80 54 00
        E 0 80 55 00
        E 0 80 60 00
        E 0 80 61 00
        E 0 80 62 00
        E 180 90 56 60
        E 0 90 62 60
        E 60 80 56 00
        E 0 80 62 00
        E 180 90 48 60
        E 0 90 55 60
        E 0 90 61 60
        E 60 80 48 00
        E 0 80 55 00
        E 0 80 61 00
        E 180 90 54 60
        E 0 90 60 60
        E 120 80 54 00
        E 180 80 60 00
        E 180 90 55 60
        E 0 90 61 60
        E 60 80 55 00
        E 0 80 61 00
        E 180 90 49 60
        E 0 90 56 60
        E 0 90 62 60
        E 60 80 49 00
        E 0 80 56 00
        E 0 80 62 00
        E 180 90 57 60
        E 0 90 63 60
        E 60 80 57 00
        E 0 80 63 00
        E 180 90 40 60
        E 0 90 4b 60
        E 0 90 4c 60
        E 0 90 57 60
        E 0 90 58 60
        E 0 90 62 60
        E 0 90 63 60
        E 0 90 64 60
        E 60 80 40 00
        E 0 80 4b 00
        E 0 80 4c 00
        E 0 80 57 00
        E 0 80 58 00
        E 0 80 62 00
        E 0 80 63 00
        E 0 80 64 00
        E 180 90 58 60
        E 0 90 64 60
        E 0 90 74 60
        E 60 80 58 00
        E 0 80 64 00
        E 180 90 4a 60
        E 0 90 57 60
        E 0 90 63 60
        E 60 80 4a 00
        E 0 80 57 00
        E 0 80 63 00
        E 180 90 56 60
        E 0 90 62 60
        E 60 80 56 00
        E 0 80 62 00
        E 180 90 3d 60
        E 0 90 49 60
        E 0 90 4a 60
        E 0 90 55 60
        E 0 90 57 60
        E 0 90 61 60
        E 0 90 62 60
        E 0 90 63 60
        E 60 80 3d 00
        E 0 80 49 00
        E 0 80 4a 00
        E 0 80 55 00
        E 0 80 57 00
        E 0 80 61 00
        E 0 80 62 00
        E 0 80 63 00
        E 180 90 57 60
        E 0 90 63 60
        E 60 80 57 00
        E 0 80 63 00
        E 180 90 49 60
        E 0 90 56 60
        E 0 90 62 60
        E 60 80 49 00
        E 0 80 56 00
        E 0 80 62 00
        E 180 90 55 60
        E 0 90 61 60
        E 60 80 55 00
        E 0 80 61 00
        E 180 90 3c 60
        E 0 90 48 60
        E 0 90 49 60
        E 0 90 54 60
        E 0 90 55 60
        E 0 90 60 60
        E 0 90 61 60
        E 0 90 62 60
        E 60 80 3c 00
        E 0 80 48 00
        E 0 80 49 00
        E 0 80 54 00
        E 0 80 55 00
        E 0 80 60 00
        E 0 80 61 00
        E 0 80 62 00
        E 180 90 56 60
        E 0 90 62 60
        E 60 80 56 00
        E 0 80 62 00
        E 180 90 48 60
        E 0 90 55 60
        E 0 90 61 60
        E 60 80 48 00
        E 0 80 55 00
        E 0 80 61 00
        E 180 90 54 60
        E 0 90 60 60
        E 120 80 54 00
        E 180 80 60 00
        E 180 90 55 60
        E 0 90 61 60
        E 60 80 55 00
        E 0 80 61 00
        E 180 90 49 60
        E 0 90 56 60
        E 0 90 62 60
        E 60 80 49 00
        E 0 80 56 00
        E 0 80 62 00
        E 180 90 57 60
        E 0 90 63 60
        E 60 80 57 00
        E 0 80 63 00
        E 180 90 40 60
        E 0 90 4b 60
        E 0 90 4c 60
        E 0 90 57 60
        E 0 90 58 60
        E 0 90 62 60
        E 0 90 63 60
        E 0 90 64 60
        E 60 80 40 00
        E 0 80 4b 00
        E 0 80 4c 00
        E 0 80 57 00
        E 0 80 58 00
        E 0 80 62 00
        E 0 80 63 00
        E 0 80 64 00
        E 60 80 74 00
        E 120 90 58 60
        E 0 90 64 60
        E 60 80 58 00
        E 0 80 64 00
        E 180 90 4a 60
        E 0 90 57 60
        E 0 90 63 60
        E 60 80 4a 00
        E 0 80 57 00
        E 0 80 63 00
        E 180 90 56 60
        E 0 90 62 60
        E 60 80 56 00
        E 0 80 62 00
        E 180 90 3d 60
        E 0 90 49 60
        E 0 90 4a 60
        E 0 90 55 60
        E 0 90 57 60
        E 0 90 61 60
        E 0 90 62 60
        E 0 90 63 60
        E 60 80 3d 00
        E 0 80 49 00
        E 0 80 4a 00
        E 0 80 55 00
        E 0 80 57 00
        E 0 80 61 00
        E 0 80 62 00
        E 0 80 63 00
        E 180 90 57 60
        E 0 90 63 60
        E 60 80 57 00
        E 0 80 63 00
        E 180 90 49 60
        E 0 90 56 60
        E 0 90 62 60
        E 60 80 49 00
        E 0 80 56 00
        E 0 80 62 00
        E 180 90 55 60
        E 0 90 61 60
        E 60 80 55 00
        E 0 80 61 00
        E 180 90 3c 60
        E 0 90 48 60
        E 0 90 49 60
        E 0 90 54 60
        E 0 90 55 60
        E 0 90 60 60
        E 0 90 61 60
        E 0 90 62 60
        E 60 80 3c 00
        E 0 80 48 00
        E 0 80 49 00
        E 0 80 54 00
        E 0 80 55 00
        E 0 80 60 00
        E 0 80 61 00
        E 0 80 62 00
        E 180 90 56 60
        E 0 90 62 60
        E 60 80 56 00
        E 0 80 62 00
        E 180 90 48 60
        E 0 90 55 60
        E 0 90 61 60
        E 60 80 48 00
        E 0 80 55 00
        E 0 80 61 00
        E 180 90 54 60
        E 0 90 60 60
        E 120 80 54 00
        E 180 80 60 00
        E 180 90 55 60
        E 0 90 61 60
        E 60 80 55 00
        E 0 80 61 00
        E 180 90 49 60
        E 0 90 56 60
        E 0 90 62 60
        E 60 80 49 00
        E 0 80 56 00
        E 0 80 62 00
        E 180 90 57 60
        E 0 90 63 60
        E 60 80 57 00
        E 0 80 63 00
        E 180 90 40 60
        E 0 90 4b 60
        E 0 90 4c 60
        E 0 90 57 60
        E 0 90 58 60
        E 0 90 62 60
        E 0 90 63 60
        E 0 90 64 60
        E 60 80 40 00
        E 0 80 4b 00
        E 0 80 4c 00
        E 0 80 57 00
        E 0 80 58 00
        E 0 80 62 00
        E 0 80 63 00
        E 0 80 64 00
        E 180 90 58 60
        E 0 90 64 60
        E 60 80 58 00
        E 0 80 64 00
        E 180 90 4a 60
        E 0 90 57 60
        E 0 90 63 60
        E 60 80 4a 00
        E 0 80 57 00
        E 0 80 63 00
        E 180 90 56 60
        E 0 90 62 60
        E 60 80 56 00
        E 0 80 62 00
        E 180 90 3d 60
        E 0 90 49 60
        E 0 90 4a 60
        E 0 90 55 60
        E 0 90 57 60
        E 0 90 61 60
        E 0 90 62 60
        E 0 90 63 60
        E 60 80 3d 00
        E 0 80 49 00
        E 0 80 4a 00
        E 0 80 55 00
        E 0 80 57 00
        E 0 80 61 00
        E 0 80 62 00
        E 0 80 63 00
        E 180 90 57 60
        E 0 90 63 60
        E 60 80 57 00
        E 0 80 63 00
        E 180 90 49 60
        E 0 90 56 60
        E 0 90 62 60
        E 60 80 49 00
        E 0 80 56 00
        E 0 80 62 00
        E 180 90 55 60
        E 0 90 61 60
        E 60 80 55 00
        E 0 80 61 00
        E 180 90 3c 60
        E 0 90 48 60
        E 0 90 49 60
        E 0 90 54 60
        E 0 90 55 60
        E 0 90 60 60
        E 0 90 61 60
        E 0 90 62 60
        E 60 80 3c 00
        E 0 80 48 00
        E 0 80 49 00
        E 0 80 54 00
        E 0 80 55 00
        E 0 80 60 00
        E 0 80 61 00
        E 0 80 62 00
        E 180 90 56 60
        E 0 90 62 60
        E 60 80 56 00
        E 0 80 62 00
        E 180 90 48 60
        E 0 90 55 60
        E 0 90 61 60
        E 60 80 48 00
        E 0 80 55 00
        E 0 80 61 00
        E 180 90 54 60
        E 0 90 60 60
        E 120 80 54 00
        E 180 80 60 00
        E 180 90 55 60
        E 0 90 61 60
        E 60 80 55 00
        E 0 80 61 00
        E 180 90 49 60
        E 0 90 56 60
        E 0 90 62 60
        E 60 80 49 00
        E 0 80 56 00
        E 0 80 62 00
        E 180 90 57 60
        E 0 90 63 60
        E 60 80 57 00
        E 0 80 63 00
        E 180 90 3c 60
        E 0 90 48 60
        E 0 90 49 60
        E 0 90 54 60
        E 0 90 55 60
        E 0 90 60 60
        E 0 90 61 60
        E 0 90 62 60
        E 120 80 3c 00
        E 0 80 48 00
        E 0 80 49 00
        E 240 80 54 00
        E 0 80 55 00
        E 60 80 60 00
        E 0 80 61 00
        E 0 80 62 00
        E 60 90 3c 60
        E 0 90 48 60
        E 0 90 49 60
        E 0 90 54 60
        E 0 90 55 60
        E 0 90 60 60
        E 0 90 61 60
        E 0 90 62 60
        E 120 80 3c 00
        E 0 80 48 00
        E 0 80 49 00
        E 0 80 54 00
        E 0 80 55 00
        E 180 80 60 00
        E 0 80 61 00
        E 0 80 62 00
        E 180 90 3c 60
        E 0 90 48 60
        E 0 90 49 60
        E 0 90 54 60
        E 0 90 55 60
        E 0 90 60 60
        E 0 90 61 60
        E 60 80 3c 00
        E 0 80 48 00
        E 0 80 49 00
        E 0 80 54 00
        E 0 80 55 00
        E 0 80 60 00
        E 0 80 61 00
        E 180 90 48 60
        E 0 90 49 60
        E 0 90 54 60
        E 0 90 55 60
        E 0 90 60 60
        E 0 90 61 60
        E 60 80 48 00
        E 0 80 49 00
        E 0 80 54 00
        E 0 80 55 00
        E 0 80 60 00
        E 0 80 61 00
        E 180 90 3c 60
        E 0 90 48 60
        E 0 90 49 60
        E 0 90 54 60
        E 0 90 55 60
        E 0 90 60 60
        E 0 90 61 60
        E 60 80 3c 00
        E 0 80 48 00
        E 0 80 49 00
        E 0 80 54 00
        E 0 80 55 00
        E 0 80 60 00
        E 0 80 61 00
        E 180 90 54 60
        E 0 90 56 60
        E 0 90 60 60
        E 0 90 61 60
        E 0 90 63 60
        E 360 80 54 00
        E 0 80 56 00
        E 60 80 60 00
        E 0 80 61 00
        E 0 80 63 00
        E 60 90 48 60
        E 0 90 4a 60
        E 0 90 54 60
        E 0 90 56 60
        E 0 90 60 60
        E 0 90 61 60
        E 0 90 63 60
        E 60 80 48 00
        E 0 80 4a 00
        E 0 80 54 00
        E 0 80 56 00
        E 0 80 60 00
        E 0 80 61 00
        E 0 80 63 00
        E 180 90 48 60
        E 0 90 4a 60
        E 0 90 54 60
        E 0 90 56 60
        E 0 90 60 60
        E 0 90 61 60
        E 0 90 63 60
        E 60 80 48 00
        E 0 80 4a 00
        E 0 80 54 00
        E 0 80 56 00
        E 0 80 60 00
        E 0 80 61 00
        E 0 80 63 00
        E 180 90 54 60
        E 0 90 56 60
        E 0 90 60 60
        E 0 90 61 60
        E 0 90 63 60
        E 60 80 54 00
        E 0 80 56 00
        E 0 80 60 00
        E 0 80 61 00
        E 0 80 63 00
        E 180 90 3f 60
        E 0 90 4a 60
        E 0 90 4b 60
        E 0 90 55 60
        E 0 90 58 60
        E 0 90 61 60
        E 0 90 62 60
        E 0 90 64 60
        E 60 80 3f 00
        E 0 80 4a 00
        E 0 80 4b 00
        E 0 80 55 00
        E 0 80 58 00
        E 0 80 61 00
        E 0 80 62 00
        E 0 80 64 00
        E 180 90 4a 60
        E 0 90 4b 60
        E 0 90 55 60
        E 0 90 58 60
        E 0 90 61 60
        E 0 90 62 60
        E 0 90 64 60
        E 60 80 4a 00
        E 0 80 4b 00
        E 0 80 55 00
        E 0 80 58 00
        E 0 80 61 00
        E 0 80 62 00
        E 0 80 64 00
        E 180 90 4a 60
        E 0 90 4b 60
        E 0 90 55 60
        E 0 90 58 60
        E 0 90 61 60
        E 0 90 62 60
        E 0 90 64 60
        E 60 80 4a 00
        E 0 80 4b 00
        E 0 80 55 00
        E 0 80 58 00
        E 0 80 61 00
        E 0 80 62 00
        E 0 80 64 00
        E 180 90 55 60
        E 0 90 58 60
        E 0 90 61 60
        E 0 90 62 60
        E 0 90 64 60
        E 60 80 55 00
        E 0 80 58 00
        E 0 80 61 00
        E 0 80 62 00
        E 0 80 64 00
        E 180 90 3c 60
        E 0 90 48 60
        E 0 90 49 60
        E 0 90 54 60
        E 0 90 55 60
        E 0 90 60 60
        E 0 90 61 60
        E 0 90 62 60
        E 120 80 3c 00
        E 0 80 48 00
        E 0 80 49 00
        E 240 80 54 00
        E 0 80 55 00
        E 60 80 60 00
        E 0 80 61 00
        E 0 80 62 00
        E 60 90 3c 60
        E 0 90 48 60
        E 0 90 49 60
        E 0 90 54 60
        E 0 90 55 60
        E 0 90 60 60
        E 0 90 61 60
        E 0 90 62 60
        E 120 80 3c 00
        E 0 80 48 00
        E 0 80 49 00
        E 0 80 54 00
        E 0 80 55 00
        E 180 80 60 00
        E 0 80 61 00
        E 0 80 62 00
        E 180 90 3c 60
        E 0 90 48 60
        E 0 90 49 60
        E 0 90 54 60
        E 0 90 55 60
        E 0 90 60 60
        E 0 90 61 60
        E 60 80 3c 00
        E 0 80 48 00
        E 0 80 49 00
        E 0 80 54 00
        E 0 80 55 00
        E 0 80 60 00
        E 0 80 61 00
        E 180 90 48 60
        E 0 90 49 60
        E 0 90 54 60
        E 0 90 55 60
        E 0 90 60 60
        E 0 90 61 60
        E 60 80 48 00
        E 0 80 49 00
        E 0 80 54 00
        E 0 80 55 00
        E 0 80 60 00
        E 0 80 61 00
        E 180 90 3c 60
        E 0 90 48 60
        E 0 90 49 60
        E 0 90 54 60
        E 0 90 55 60
        E 0 90 60 60
        E 0 90 61 60
        E 60 80 3c 00
        E 0 80 48 00
        E 0 80 49 00
        E 0 80 54 00
        E 0 80 55 00
        E 0 80 60 00
        E 0 80 61 00
        E 180 90 54 60
        E 0 90 56 60
        E 0 90 60 60
        E 0 90 61 60
        E 0 90 63 60
        E 360 80 54 00
        E 0 80 56 00
        E 60 80 60 00
        E 0 80 61 00
        E 0 80 63 00
        E 60 90 48 60
        E 0 90 4a 60
        E 0 90 54 60
        E 0 90 56 60
        E 0 90 60 60
        E 0 90 61 60
        E 0 90 63 60
        E 60 80 48 00
        E 0 80 4a 00
        E 0 80 54 00
        E 0 80 56 00
        E 0 80 60 00
        E 0 80 61 00
        E 0 80 63 00
        E 180 90 48 60
        E 0 90 4a 60
        E 0 90 54 60
        E 0 90 56 60
        E 0 90 60 60
        E 0 90 61 60
        E 0 90 63 60
        E 60 80 48 00
        E 0 80 4a 00
        E 0 80 54 00
        E 0 80 56 00
        E 0 80 60 00
        E 0 80 61 00
        E 0 80 63 00
        E 180 90 54 60
        E 0 90 56 60
        E 0 90 60 60
        E 0 90 61 60
        E 0 90 63 60
        E 60 80 54 00
        E 0 80 56 00
        E 0 80 60 00
        E 0 80 61 00
        E 0 80 63 00
        E 180 90 3f 60
        E 0 90 4a 60
        E 0 90 4b 60
        E 0 90 55 60
        E 0 90 58 60
        E 0 90 61 60
        E 0 90 62 60
        E 0 90 64 60
        E 60 80 3f 00
        E 0 80 4a 00
        E 0 80 4b 00
        E 0 80 55 00
        E 0 80 58 00
        E 0 80 61 00
        E 0 80 62 00
        E 0 80 64 00
        E 180 90 4a 60
        E 0 90 4b 60
        E 0 90 55 60
        E 0 90 58 60
        E 0 90 61 60
        E 0 90 62 60
        E 0 90 64 60
        E 60 80 4a 00
        E 0 80 4b 00
        E 0 80 55 00
        E 0 80 58 00
        E 0 80 61 00
        E 0 80 62 00
        E 0 80 64 00
        E 180 90 4a 60
        E 0 90 4b 60
        E 0 90 55 60
        E 0 90 58 60
        E 0 90 61 60
        E 0 90 62 60
        E 0 90 64 60
        E 60 80 4a 00
        E 0 80 4b 00
        E 0 80 55 00
        E 0 80 58 00
        E 0 80 61 00
        E 0 80 62 00
        E 0 80 64 00
        E 180 90 55 60
        E 0 90 58 60
        E 0 90 61 60
        E 0 90 62 60
        E 0 90 64 60
        E 60 80 55 00
        E 0 80 58 00
        E 0 80 61 00
        E 0 80 62 00
        E 0 80 64 00
        E 180 90 3c 60
        E 0 90 48 60
        E 0 90 49 60
        E 0 90 54 60
        E 0 90 55 60
        E 0 90 60 60
        E 0 90 61 60
        E 0 90 62 60
        E 120 80 3c 00
        E 0 80 48 00
        E 0 80 49 00
        E 180 90 74 60
        E 60 80 54 00
        E 0 80 55 00
        E 60 80 60 00
        E 0 80 61 00
        E 0 80 62 00
        E 60 90 3c 60
        E 0 90 48 60
        E 0 90 49 60
        E 0 90 54 60
        E 0 90 55 60
        E 0 90 60 60
        E 0 90 61 60
        E 0 90 62 60
        E 120 80 3c 00
        E 0 80 48 00
        E 0 80 49 00
        E 0 80 54 00
        E 0 80 55 00
        E 180 80 60 00
        E 0 80 61 00
        E 0 80 62 00
        E 180 90 3c 60
        E 0 90 48 60
        E 0 90 49 60
        E 0 90 54 60
        E 0 90 55 60
        E 0 90 60 60
        E 0 90 61 60
        E 60 80 3c 00
        E 0 80 48 00
        E 0 80 49 00
        E 0 80 54 00
        E 0 80 55 00
        E 0 80 60 00
        E 0 80 61 00
        E 180 90 48 60
        E 0 90 49 60
        E 0 90 54 60
        E 0 90 55 60
        E 0 90 60 60
        E 0 90 61 60
        E 60 80 48 00
        E 0 80 49 00
        E 0 80 54 00
        E 0 80 55 00
        E 0 80 60 00
        E 0 80 61 00
        E 180 90 3c 60
        E 0 90 48 60
        E 0 90 49 60
        E 0 90 54 60
        E 0 90 55 60
        E 0 90 60 60
        E 0 90 61 60
        E 60 80 3c 00
        E 0 80 48 00
        E 0 80 49 00
        E 0 80 54 00
        E 0 80 55 00
        E 0 80 60 00
        E 0 80 61 00
        E 180 90 54 60
        E 0 90 56 60
        E 0 90 60 60
        E 0 90 61 60
        E 0 90 63 60
        E 360 80 54 00
        E 0 80 56 00
        E 60 80 60 00
        E 0 80 61 00
        E 0 80 63 00
        E 60 90 48 60
        E 0 90 4a 60
        E 0 90 54 60
        E 0 90 56 60
        E 0 90 60 60
        E 0 90 61 60
        E 0 90 63 60
        E 60 80 48 00
        E 0 80 4a 00
        E 0 80 54 00
        E 0 80 56 00
        E 0 80 60 00
        E 0 80 61 00
        E 0 80 63 00
        E 180 90 48 60
        E 0 90 4a 60
        E 0 90 54 60
        E 0 90 56 60
        E 0 90 60 60
        E 0 90 61 60
        E 0 90 63 60
        E 60 80 48 00
        E 0 80 4a 00
        E 0 80 54 00
        E 0 80 56 00
        E 0 80 60 00
        E 0 80 61 00
        E 0 80 63 00
        E 180 90 54 60
        E 0 90 56 60
        E 0 90 60 60
        E 0 90 61 60
        E 0 90 63 60
        E 60 80 54 00
        E 0 80 56 00
        E 0 80 60 00
        E 0 80 61 00
        E 0 80 63 00
        E 180 90 3f 60
        E 0 90 4a 60
        E 0 90 4b 60
        E 0 90 55 60
        E 0 90 58 60
        E 0 90 61 60
        E 0 90 62 60
        E 0 90 64 60
        E 60 80 3f 00
        E 0 80 4a 00
        E 0 80 4b 00
        E 0 80 55 00
        E 0 80 58 00
        E 0 80 61 00
        E 0 80 62 00
        E 0 80 64 00
        E 180 90 4a 60
        E 0 90 4b 60
        E 0 90 55 60
        E 0 90 58 60
        E 0 90 61 60
        E 0 90 62 60
        E 0 90 64 60
        E 60 80 4a 00
        E 0 80 4b 00
        E 0 80 55 00
        E 0 80 58 00
        E 0 80 61 00
        E 0 80 62 00
        E 0 80 64 00
        E 180 90 4a 60
        E 0 90 4b 60
        E 0 90 55 60
        E 0 90 58 60
        E 0 90 61 60
        E 0 90 62 60
        E 0 90 64 60
        E 60 80 4a 00
        E 0 80 4b 00
        E 0 80 55 00
        E 0 80 58 00
        E 0 80 61 00
        E 0 80 62 00
        E 0 80 64 00
        E 180 90 55 60
        E 0 90 58 60
        E 0 90 61 60
        E 0 90 62 60
        E 0 90 64 60
        E 60 80 55 00
        E 0 80 58 00
        E 0 80 61 00
        E 0 80 62 00
        E 0 80 64 00
        E 180 90 3c 60
        E 0 90 48 60
        E 0 90 49 60
        E 0 90 54 60
        E 0 90 55 60
        E 0 90 60 60
        E 0 90 61 60
        E 0 90 62 60
        E 120 80 3c 00
        E 0 80 48 00
        E 0 80 49 00
        E 240 80 54 00
        E 0 80 55 00
        E 60 80 60 00
        E 0 80 61 00
        E 0 80 62 00
        E 60 90 3c 60
        E 0 90 48 60
        E 0 90 49 60
        E 0 90 54 60
        E 0 90 55 60
        E 0 90 60 60
        E 0 90 61 60
        E 0 90 62 60
        E 120 80 3c 00
        E 0 80 48 00
        E 0 80 49 00
        E 0 80 54 00
        E 0 80 55 00
        E 180 80 60 00
        E 0 80 61 00
        E 0 80 62 00
        E 180 90 3c 60
        E 0 90 48 60
        E 0 90 49 60
        E 0 90 54 60
        E 0 90 55 60
        E 0 90 60 60
        E 0 90 61 60
        E 60 80 3c 00
        E 0 80 48 00
        E 0 80 49 00
        E 0 80 54 00
        E 0 80 55 00
        E 0 80 60 00
        E 0 80 61 00
        E 180 90 48 60
        E 0 90 49 60
        E 0 90 54 60
        E 0 90 55 60
        E 0 90 60 60
        E 0 90 61 60
        E 60 80 48 00
        E 0 80 49 00
        E 0 80 54 00
        E 0 80 55 00
        E 0 80 60 00
        E 0 80 61 00
        E 180 80 74 00
        E 0 90 3c 60
        E 0 90 48 60
        E 0 90 49 60
        E 0 90 54 60
        E 0 90 55 60
        E 0 90 60 60
        E 0 90 61 60
        E 60 80 3c 00
        E 0 80 48 00
        E 0 80 49 00
        E 0 80 54 00
        E 0 80 55 00
        E 0 80 60 00
        E 0 80 61 00
        E 180 90 57 60
        E 0 90 63 60
        E 120 80 57 00
        E 180 80 63 00
        E 180 90 55 60
        E 0 90 61 60
        E 60 80 55 00
        E 0 80 61 00
        E 180 90 3d 60
        E 0 90 49 60
        E 0 90 56 60
        E 0 90 62 60
        E 60 80 3d 00
        E 0 80 49 00
        E 0 80 56 00
        E 0 80 62 00
        E 180 90 55 60
        E 0 90 61 60
        E 120 80 55 00
        E 180 80 61 00
        E 180 90 56 60
        E 0 90 62 60
        E 60 80 56 00
        E 0 80 62 00
        E 180 90 3c 60
        E 0 90 48 60
        E 0 90 55 60
        E 0 90 61 60
        E 60 80 3c 00
        E 0 80 48 00
        E 0 80 55 00
        E 0 80 61 00
        E 180 90 54 60
        E 0 90 60 60
        E 60 80 54 00
        E 0 80 60 00
        E 180 90 3c 60
        E 0 90 48 60
        E 0 90 55 60
        E 0 90 61 60
        E 120 80 3c 00
        E 0 80 48 00
        E 0 80 55 00
        E 180 80 61 00
        E 180 90 4b 60
        E 0 90 58 60
        E 0 90 64 60
        E 60 80 4b 00
        E 0 80 58 00
        E 0 80 64 00
        E 180 90 57 60
        E 0 90 63 60
        E 69 80 57 00
        E 0 80 63 00
        E 171 90 3c 60
        E 0 90 48 60
        E 0 90 55 60
        E 0 90 61 60
        E 60 80 3c 00
        E 0 80 48 00
        E 0 80 55 00
        E 0 80 61 00
        E 180 90 56 60
        E 0 90 62 60
        E 60 80 56 00
        E 0 80 62 00
        E 180 90 4a 60
        E 0 90 57 60
        E 0 90 63 60
        E 60 80 4a 00
        E 0 80 57 00
        E 0 80 63 00
        E 180 90 56 60
        E 0 90 62 60
        E 120 80 56 00
        E 180 80 62 00
        E 180 90 48 60
        E 0 90 4a 60
        E 0 90 54 60
        E 0 90 56 60
        E 0 90 60 60
        E 0 90 61 60
        E 0 90 63 60
        E 60 80 48 00
        E 0 80 4a 00
        E 0 80 54 00
        E 0 80 56 00
        E 0 80 60 00
        E 0 80 61 00
        E 0 80 63 00
        E 180 90 48 60
        E 0 90 4a 60
        E 0 90 54 60
        E 0 90 56 60
        E 0 90 60 60
        E 0 90 61 60
        E 0 90 63 60
        E 60 80 48 00
        E 0 80 4a 00
        E 0 80 54 00
        E 0 80 56 00
        E 0 80 60 00
        E 0 80 61 00
        E 0 80 63 00
        E 180 90 54 60
        E 0 90 56 60
        E 0 90 60 60
        E 0 90 61 60
        E 0 90 63 60
        E 60 80 54 00
        E 0 80 56 00
        E 0 80 60 00
        E 0 80 61 00
        E 0 80 63 00
        E 180 90 3f 60
        E 0 90 4a 60
        E 0 90 4b 60
        E 0 90 55 60
        E 0 90 58 60
        E 0 90 61 60
        E 0 90 62 60
        E 0 90 64 60
        E 60 80 3f 00
        E 0 80 4a 00
        E 0 80 4b 00
        E 0 80 55 00
        E 0 80 58 00
        E 0 80 61 00
        E 0 80 62 00
        E 0 80 64 00
        E 180 90 4a 60
        E 0 90 4b 60
        E 0 90 55 60
        E 0 90 58 60
        E 0 90 61 60
        E 0 90 62 60
        E 0 90 64 60
        E 60 80 4a 00
        E 0 80 4b 00
        E 0 80 55 00
        E 0 80 58 00
        E 0 80 61 00
        E 0 80 62 00
        E 0 80 64 00
        E 180 90 4a 60
        E 0 90 4b 60
        E 0 90 55 60
        E 0 90 58 60
        E 0 90 61 60
        E 0 90 62 60
        E 0 90 64 60
        E 60 80 4a 00
        E 0 80 4b 00
        E 0 80 55 00
        E 0 80 58 00
        E 0 80 61 00
        E 0 80 62 00
        E 0 80 64 00
        E 180 90 55 60
        E 0 90 58 60
        E 0 90 61 60
        E 0 90 62 60
        E 0 90 64 60
        E 60 80 55 00
        E 0 80 58 00
        E 0 80 61 00
        E 0 80 62 00
        E 0 80 64 00
        E 180 90 3c 60
        E 0 90 48 60
        E 0 90 55 60
        E 0 90 61 60
        E 120 80 3c 00
        E 0 80 48 00
        E 0 80 55 00
        E 180 80 61 00
        E 180 90 4b 60
        E 0 90 58 60
        E 0 90 64 60
        E 60 80 4b 00
        E 0 80 58 00
        E 0 80 64 00
        E 180 90 57 60
        E 0 90 63 60
        E 69 80 57 00
        E 0 80 63 00
        E 171 90 3c 60
        E 0 90 48 60
        E 0 90 55 60
        E 0 90 61 60
        E 60 80 3c 00
        E 0 80 48 00
        E 0 80 55 00
        E 0 80 61 00
        E 180 90 56 60
        E 0 90 62 60
        E 60 80 56 00
        E 0 80 62 00
        E 180 90 4a 60
        E 0 90 57 60
        E 0 90 63 60
        E 60 80 4a 00
        E 0 80 57 00
        E 0 80 63 00
        E 180 90 56 60
        E 0 90 62 60
        E 120 80 56 00
        E 180 80 62 00
        E 180 90 48 60
        E 0 90 4a 60
        E 0 90 54 60
        E 0 90 56 60
        E 0 90 60 60
        E 0 90 61 60
        E 0 90 63 60
        E 60 80 48 00
        E 0 80 4a 00
        E 0 80 54 00
        E 0 80 56 00
        E 0 80 60 00
        E 0 80 61 00
        E 0 80 63 00
        E 180 90 48 60
        E 0 90 4a 60
        E 0 90 54 60
        E 0 90 56 60
        E 0 90 60 60
        E 0 90 61 60
        E 0 90 63 60
        E 60 80 48 00
        E 0 80 4a 00
        E 0 80 54 00
        E 0 80 56 00
        E 0 80 60 00
        E 0 80 61 00
        E 0 80 63 00
        E 180 90 54 60
        E 0 90 56 60
        E 0 90 60 60
        E 0 90 61 60
        E 0 90 63 60
        E 60 80 54 00
        E 0 80 56 00
        E 0 80 60 00
        E 0 80 61 00
        E 0 80 63 00
        E 180 90 3f 60
        E 0 90 4a 60
        E 0 90 4b 60
        E 0 90 55 60
        E 0 90 58 60
        E 0 90 61 60
        E 0 90 62 60
        E 0 90 64 60
        E 60 80 3f 00
        E 0 80 4a 00
        E 0 80 4b 00
        E 0 80 55 00
        E 0 80 58 00
        E 0 80 61 00
        E 0 80 62 00
        E 0 80 64 00
        E 180 90 4a 60
        E 0 90 4b 60
        E 0 90 55 60
        E 0 90 58 60
        E 0 90 61 60
        E 0 90 62 60
        E 0 90 64 60
        E 60 80 4a 00
        E 0 80 4b 00
        E 0 80 55 00
        E 0 80 58 00
        E 0 80 61 00
        E 0 80 62 00
        E 0 80 64 00
        E 180 90 4a 60
        E 0 90 4b 60
        E 0 90 55 60
        E 0 90 58 60
        E 0 90 61 60
        E 0 90 62 60
        E 0 90 64 60
        E 60 80 4a 00
        E 0 80 4b 00
        E 0 80 55 00
        E 0 80 58 00
        E 0 80 61 00
        E 0 80 62 00
        E 0 80 64 00
        E 180 90 55 60
        E 0 90 58 60
        E 0 90 61 60
        E 0 90 62 60
        E 0 90 64 60
        E 60 80 55 00
        E 0 80 58 00
        E 0 80 61 00
        E 0 80 62 00
        E 0 80 64 00
        E 180 90 3c 60
        E 0 90 48 60
        E 0 90 55 60
        E 0 90 61 60
        E 120 80 3c 00
        E 0 80 48 00
        E 0 80 55 00
        E 180 80 61 00
        E 180 90 4b 60
        E 0 90 58 60
        E 0 90 64 60
        E 60 80 4b 00
        E 0 80 58 00
        E 0 80 64 00
        E 180 90 57 60
        E 0 90 63 60
        E 69 80 57 00
        E 0 80 63 00
        E 171 90 3c 60
        E 0 90 48 60
        E 0 90 55 60
        E 0 90 61 60
        E 60 80 3c 00
        E 0 80 48 00
        E 0 80 55 00
        E 0 80 61 00
        E 180 90 56 60
        E 0 90 62 60
        E 60 80 56 00
        E 0 80 62 00
        E 180 90 4a 60
        E 0 90 57 60
        E 0 90 63 60
        E 60 80 4a 00
        E 0 80 57 00
        E 0 80 63 00
        E 180 90 56 60
        E 0 90 62 60
        E 840 80 56 00
        E 60 80 62 00
        E 60 90 56 60
        E 0 90 62 60
        E 60 80 56 00
        E 0 80 62 00
        E 180 90 3c 60
        E 0 90 48 60
        E 0 90 55 60
        E 0 90 61 60
        E 60 80 3c 00
        E 0 80 48 00
        E 0 80 55 00
        E 0 80 61 00
        E 180 90 56 60
        E 0 90 62 60
        E 60 80 56 00
        E 0 80 62 00
        E 180 90 4a 60
        E 0 90 57 60
        E 0 90 63 60
        E 60 80 4a 00
        E 0 80 57 00
        E 0 80 63 00
        E 180 90 56 60
        E 0 90 62 60
        E 120 80 56 00
        E 180 80 62 00
        E 180 90 4a 60
        E 0 90 4b 60
        E 0 90 56 60
        E 0 90 58 60
        E 0 90 62 60
        E 0 90 64 60
        E 60 80 4a 00
        E 0 80 4b 00
        E 0 80 56 00
        E 0 80 58 00
        E 0 80 62 00
        E 0 80 64 00
        E 180 90 4a 60
        E 0 90 4b 60
        E 0 90 56 60
        E 0 90 58 60
        E 0 90 62 60
        E 0 90 64 60
        E 60 80 4a 00
        E 0 80 4b 00
        E 0 80 56 00
        E 0 80 58 00
        E 0 80 62 00
        E 0 80 64 00
        E 180 90 56 60
        E 0 90 57 60
        E 0 90 62 60
        E 0 90 63 60
        E 60 80 56 00
        E 0 80 57 00
        E 0 80 62 00
        E 0 80 63 00
        E 180 90 3e 60
        E 0 90 49 60
        E 0 90 4b 60
        E 0 90 56 60
        E 0 90 57 60
        E 0 90 62 60
        E 0 90 63 60
        E 60 80 3e 00
        E 0 80 49 00
        E 0 80 4b 00
        E 0 80 56 00
        E 0 80 57 00
        E 0 80 62 00
        E 0 80 63 00
        E 180 90 55 60
        E 0 90 57 60
        E 0 90 61 60
        E 0 90 63 60
        E 60 80 55 00
        E 0 80 57 00
        E 0 80 61 00
        E 0 80 63 00
        E 180 90 49 60
        E 0 90 4a 60
        E 0 90 55 60
        E 0 90 57 60
        E 0 90 61 60
        E 0 90 63 60
        E 60 80 49 00
        E 0 80 4a 00
        E 0 80 55 00
        E 0 80 57 00
        E 0 80 61 00
        E 0 80 63 00
        E 180 90 55 60
        E 0 90 56 60
        E 0 90 61 60
        E 0 90 62 60
        E 60 80 55 00
        E 0 80 56 00
        E 0 80 61 00
        E 0 80 62 00
        E 180 90 3d 60
        E 0 90 49 60
        E 0 90 4a 60
        E 0 90 55 60
        E 0 90 56 60
        E 0 90 61 60
        E 0 90 62 60
        E 60 80 3d 00
        E 0 80 49 00
        E 0 80 4a 00
        E 0 80 55 00
        E 0 80 56 00
        E 0 80 61 00
        E 0 80 62 00
        E 180 90 54 60
        E 0 90 56 60
        E 0 90 60 60
        E 0 90 62 60
        E 60 80 54 00
        E 0 80 56 00
        E 0 80 60 00
        E 0 80 62 00
        E 180 90 48 60
        E 0 90 4a 60
        E 0 90 54 60
        E 0 90 56 60
        E 0 90 60 60
        E 0 90 62 60
        E 60 80 48 00
        E 0 80 4a 00
        E 0 80 54 00
        E 0 80 56 00
        E 0 80 60 00
        E 0 80 62 00
        E 180 90 54 60
        E 0 90 55 60
        E 0 90 60 60
        E 0 90 61 60
        E 60 80 54 00
        E 0 80 55 00
        E 0 80 60 00
        E 0 80 61 00
        E 180 90 3c 60
        E 0 90 48 60
        E 0 90 49 60
        E 0 90 54 60
        E 0 90 55 60
        E 0 90 60 60
        E 0 90 61 60
        E 60 80 3c 00
        E 0 80 48 00
        E 0 80 49 00
        E 0 80 54 00
        E 0 80 55 00
        E 0 80 60 00
        E 0 80 61 00
        E 180 90 55 60
        E 0 90 61 60
        E 60 80 55 00
        E 0 80 61 00
        E 180 90 48 60
        E 0 90 55 60
        E 0 90 61 60
        E 60 80 48 00
        E 0 80 55 00
        E 0 80 61 00
        E 180 90 54 60
        E 0 90 60 60
        E 60 80 54 00
        E 0 80 60 00
        E 180 90 3d 60
        E 0 90 49 60
        E 0 90 4a 60
        E 0 90 55 60
        E 0 90 57 60
        E 0 90 61 60
        E 0 90 62 60
        E 0 90 63 60
        E 4500 80 3d 00
        E 0 80 49 00
        E 0 80 4a 00
        E 0 80 55 00
        E 0 80 57 00
        E 0 80 61 00
        E 0 80 62 00
        E 0 80 63 00
        <X 480 0
          /wFbaWRsZV9yZWFsdGltZV0=
        >
        E 21900 b0 7b 00
        GUID {14D9E950-FB92-4048-8603-8FD02AE3B865}
        IGNTEMPO 0 120.00000000 4 4
        SRCCOLOR 1237
        VELLANE 132 38 60
        COLORMAP "C:\Users\wejaa\AppData\Roaming\REAPER\Data\color_maps\rockband_guitarbass.png"
        TEXTSTRINGFILE "Text Events List.txt"
        CFGEDITVIEW 53273.894224 29.827429 0 12 0 0 0
        CFGEDIT 1 1 0 0 0 1 1 1 1 1 1 0.12500000 -8 -8 1370 736 1 2 1 2 0.00000000 0 0 0 0 0.500000 1 0 1.000000 64
        KEYSNAP 0 0 "102034050607" 0 "Major"
        EVTFILTER 0 -1 -1 -1 -1 0 1 0 0 -1.00000000 -1.00000000
      >
    >
  >
  <TRACK '{D6E62727-A4E9-4B9E-BB71-0678BE0B607F}'
    NAME "3_other"
    PEAKCOL 16576
    BEAT -1
    AUTOMODE 0
    VOLPAN 1.00000000000000 0.00000000000000 -1.00000000000000 -1.00000000000000 1.00000000000000
    MUTESOLO 0 0 0
    IPHASE 0
    ISBUS 0 0
    BUSCOMP 0 0
    SHOWINMIX 1 0.666700 0.500000 1 0.500000 -1 -1 -1
    FREEMODE 0
    SEL 0
    REC 0 0 0 0 0 0 0
    VU 2
    TRACKHEIGHT 228 0
    INQ 0 0 0 0.5000000000 100 0 0 100
    NCHAN 2
    FX 1
    TRACKID {D6E62727-A4E9-4B9E-BB71-0678BE0B607F}
    PERF 0
    MIDIOUT -1
    MAINSEND 1 0
    <ITEM
      POSITION 3.94614199176431
      SNAPOFFS 0.00000000000000
      LENGTH 181.95156462585035
      LOOP 0
      ALLTAKES 0
      SEL 0
      FADEIN 1 0.000000 0.000000 1 0
      FADEOUT 1 0.000000 0.000000 1 0
      MUTE 0
      IGUID {4654A727-E17B-4259-BC5F-8475A41B0285}
      IID 53
      NAME "3_other.wav"
      VOLPAN 1.000000 0.000000 1.000000 -1.000000
      SOFFS 0.00000000000000
      PLAYRATE 1.00000000000000 1 0.00000000000000 -1
      CHANMODE 0
      GUID {3F1271FC-E5A1-40C1-A0F2-76599BB62DA0}
      <SOURCE WAVE
        FILE "3_other.wav"
      >
    >
  >
  <TRACK '{C298A11E-8E06-44B8-AA31-429ECCE3F0AF}'
    NAME "PART VOCALS"
    PEAKCOL 16810239
    BEAT -1
    AUTOMODE 0
    VOLPAN 0.99997469241676 0.00000000000000 -1.00000000000000 -1.00000000000000 1.00000000000000
    MUTESOLO 0 0 0
    IPHASE 0
    ISBUS 0 0
    BUSCOMP 1 0
    SHOWINMIX 1 0.666700 0.500000 1 0.500000 -1 -1 -1
    FREEMODE 0
    SEL 0
    REC 0 4096 1 7 0 0 0
    TRACKHEIGHT 0 0
    INQ 0 0 0 0.5000000000 100 0 0 100
    NCHAN 2
    FX 1
    TRACKID {C298A11E-8E06-44B8-AA31-429ECCE3F0AF}
    PERF 0
    MIDIOUT -1
    <MIDINOTENAMES
      0 105 "Phrase Marker"
      0 84 "C5"
      0 36 "C1"
      0 83 "B"
      0 82 "Bb"
      0 81 "A"
      0 80 "G#"
      0 79 "G"
      0 78 "F#"
      0 77 "F"
      0 76 "E"
      0 75 "Eb"
      0 74 "D"
      0 73 "C#"
      0 72 "C4"
      0 71 "B"
      0 70 "Bb"
      0 69 "A"
      0 68 "G#"
      0 67 "G"
      0 66 "F#"
      0 65 "F"
      0 64 "E"
      0 63 "Eb"
      0 62 "D"
      0 61 "C#"
      0 60 "C3"
      0 59 "B"
      0 58 "Bb"
      0 57 "A"
      0 56 "G#"
      0 55 "G"
      0 54 "F#"
      0 53 "F"
      0 52 "E"
      0 51 "Eb"
      0 50 "D"
      0 49 "C#"
      0 48 "C2"
      0 47 "B"
      0 46 "Bb"
      0 45 "A"
      0 44 "G#"
      0 43 "G"
      0 42 "F#"
      0 41 "F"
      0 40 "E"
      0 39 "Eb"
      0 38 "D"
      0 37 "C#"
      0 97 "Not Displayed Percussion"
      0 96 "Displayed Percussion"
      0 104 "----"
      0 95 "----"
      0 116 "OVERDRIVE"
      0 115 "----"
      0 0 "Range Shift"
      0 1 "Lyric Shift"
    >
    MAINSEND 1 0
    <FXCHAIN
      WNDRECT 581 377 716 493
      SHOW 0
      LASTSEL 1
      DOCKED 0
      BYPASS 0 0
      <JS "IX/MIDI_Tool II" ""
        0.000000 85.000000 127.000000 0.000000 0.000000 0.000000 100.000000 0.000000 0.000000 127.000000 0.000000 0.000000 1.000000 0.000000 0.000000 - - - - - - - - - - - - - - - - - - - - - - - - - - - - - - - - - - - - - - - - - - - - - - - - - 
      >
      FLOATPOS 0 0 0 0
      FXID {CA785021-0433-497E-9A6C-EE23A1BC21B0}
      WAK 0
      BYPASS 0 0
      <VST "VSTi: ReaSynth (Cockos)" "reasynth.dll" 0 ""
        eXNlcu9e7f4AAAAAAgAAAAEAAAAAAAAAAgAAAAAAAAA4AAAAAAAAAA==
        AAAAAO++rd4N8K3eppvEOxe30ToAAAAAAAAAAAAAAACa9Q8/6WeIPQ==
        AAAAAAAAAD8AAIA/AAAAAAAAAD8AAAAAAAA=
      >
      FLOATPOS 32 32 338 405
      FXID {F124DD19-73B4-4CD5-B659-E246F2A3D0B3}
      WAK 0
    >
    <ITEM
      POSITION 0.00000000000000
      SNAPOFFS 0.00000000000000
      LENGTH 204.57948757262312
      LOOP 0
      ALLTAKES 0
      SEL 0
      FADEIN 1 0.000000 0.000000 1 0
      FADEOUT 1 0.000000 0.000000 1 0
      MUTE 0
      IGUID {9C9617EC-369A-41B9-80F6-31F4222F13F6}
      IID 10
      NAME "PART VOCALS"
      VOLPAN 1.000000 0.000000 1.000000 -1.000000
      SOFFS 0.00000000000000 0.00000000000000
      PLAYRATE 1.00000000000000 1 0.00000000000000 -65536
      CHANMODE 0
      GUID {8E872349-00D8-4243-95D7-0B92852E4EE5}
      <SOURCE MIDI
        HASDATA 1 480 QN
        POOLEDEVTS {CAB8EB65-B523-440B-9482-FADA517D076E}
        <X 0 0
          /wNQQVJUIFZPQ0FMUw==
        >
        <X 3840 0
          /wFbaWRsZV0=
        >
        <X 19200 0
          /wFbcGxheV0=
        >
        E 360 90 69 66
        <X 132 0
          /wVLYS0=
        >
        E 0 90 40 61
        E 179 80 40 00
        <X 42 0
          /wVydQ==
        >
        E 0 90 3b 5f
        E 241 80 3b 00
        <X 40 0
          /wVtaWUt
        >
        E 0 90 3b 60
        E 426 80 3b 00
        <X 50 0
          /wVsaQ==
        >
        E 0 90 3b 60
        E 104 80 3b 00
        <X 103 0
          /wV0YWlrLQ==
        >
        E 0 90 3c 5c
        E 312 80 3c 00
        <X 172 0
          /wVrYQ==
        >
        E 0 90 3c 52
        E 86 80 3c 00
        <X 141 0
          /wVrZS0=
        >
        E 0 90 3c 5f
        E 174 80 3c 00
        <X 76 0
          /wV2eXQ=
        >
        E 0 90 3c 4b
        E 122 80 3c 00
        <X 138 0
          /wVvLQ==
        >
        E 0 90 3e 56
        E 225 80 3e 00
        <X 27 0
          /wVsbw==
        >
        E 0 90 3e 1d
        E 207 80 3e 00
        E 243 80 69 00
        E 480 90 69 66
        <X 202 0
          /wVTdWw=
        >
        E 0 90 3f 5a
        E 189 80 3f 00
        <X 100 0
          /wUr
        >
        E 0 90 3b 5a
        E 201 80 3b 00
        <X 63 0
          /wVvbg==
        >
        E 0 90 3b 58
        E 571 80 3b 00
        <X 91 0
          /wVzdWwt
        >
        E 0 90 3c 57
        E 596 80 3c 00
        <X 64 0
          /wVqZXQt
        >
        E 0 90 3c 1b
        E 146 80 3c 00
        <X 166 0
          /wV0dQ==
        >
        E 0 90 3e 56
        E 101 80 3e 00
        <X 129 0
          /wVzeS0=
        >
        E 0 90 3e 52
        E 226 80 3e 00
        <X 59 0
          /wVkw6Ru
        >
        E 0 90 3e 49
        E 387 80 3e 00
        E 189 80 69 00
        E 360 90 69 66
        <X 267 0
          /wVUYS0=
        >
        E 0 90 41 4b
        E 108 80 41 00
        <X 109 0
          /wVrYS0=
        >
        E 0 90 3b 4e
        E 109 80 3b 00
        <X 158 0
          /wV0dXUt
        >
        E 0 90 3b 51
        E 382 80 3b 00
        <X 39 0
          /wVsaQ==
        >
        E 0 90 3b 1b
        E 134 80 3b 00
        <X 137 0
          /wV0YWlrLQ==
        >
        E 0 90 3a 54
        E 317 80 3a 00
        <X 179 0
          /wVrYQ==
        >
        E 0 90 3c 57
        E 164 80 3c 00
        <X 78 0
          /wVsw6Qt
        >
        E 0 90 3c 1b
        E 129 80 3c 00
        <X 115 0
          /wVwaS0=
        >
        E 0 90 3e 52
        E 142 80 3e 00
        <X 73 0
          /wV2ZS0=
        >
        E 0 90 3e 4e
        E 153 80 3e 00
        <X 128 0
          /wV0bw==
        >
        E 0 90 3e 49
        E 183 80 3e 00
        E 256 80 69 00
        E 480 90 69 66
        E 0 90 74 66
        <X 189 0
          /wVTdWw=
        >
        E 0 90 40 57
        E 190 80 40 00
        <X 108 0
          /wUr
        >
        E 0 90 3b 57
        E 143 80 3b 00
        <X 124 0
          /wVvbg==
        >
        E 0 90 3b 56
        E 548 80 3b 00
        <X 132 0
          /wVzdWwt
        >
        E 0 90 3b 53
        E 493 80 3b 00
        <X 179 0
          /wVqZXQt
        >
        E 0 90 3c 51
        E 181 80 3c 00
        <X 120 0
          /wV0dQ==
        >
        E 0 90 3e 53
        E 85 80 3e 00
        <X 103 0
          /wVzeS0=
        >
        E 0 90 3b 4b
        E 220 80 3b 00
        <X 109 0
          /wVkw6Ru
        >
        E 0 90 37 4c
        E 418 80 37 00
        E 138 80 69 00
        E 0 80 74 00
        E 360 90 69 66
        <X 214 0
          /wVWZS0=
        >
        E 0 90 45 6e
        E 235 80 45 00
        <X 65 0
          /wVyaS0=
        >
        E 0 90 43 65
        E 145 80 43 00
        <X 82 0
          /wV2ZS0=
        >
        E 0 90 43 66
        E 205 80 43 00
        <X 56 0
          /wVsaQ==
        >
        E 0 90 43 68
        E 112 80 43 00
        <X 97 0
          /wV0YWlrLQ==
        >
        E 0 90 3e 5d
        E 139 80 3e 00
        <X 108 0
          /wVrYQ==
        >
        E 0 90 3e 68
        E 130 80 3e 00
        <X 136 0
          /wVtdXUt
        >
        E 0 90 43 60
        E 350 80 43 00
        <X 117 0
          /wVrYS0=
        >
        E 0 90 43 67
        E 223 80 43 00
        <X 84 0
          /wVsYWkt
        >
        E 0 90 43 67
        E 344 80 43 00
        <X 61 0
          /wVuZW4=
        >
        E 0 90 45 5e
        E 223 80 45 00
        E 54 80 69 00
        E 120 90 69 66
        <X 71 0
          /wVTZW4=
        >
        E 0 90 3f 69
        E 196 80 3f 00
        <X 50 0
          /wVuw6Qt
        >
        E 0 90 43 63
        E 139 80 43 00
        <X 98 0
          /wVrZWU=
        >
        E 0 90 45 6c
        E 366 80 45 00
        <X 135 0
          /wVzZW4=
        >
        E 0 90 3e 61
        E 184 80 3e 00
        <X 41 0
          /wVuw6Qt
        >
        E 0 90 44 61
        E 105 80 44 00
        <X 117 0
          /wVrZWU=
        >
        E 0 90 45 6b
        E 595 80 45 00
        E 33 80 69 00
        E 30 90 69 66
        <X 33 0
          /wVLYWlrLQ==
        >
        E 0 90 40 55
        E 157 80 40 00
        <X 116 0
          /wVraS0=
        >
        E 0 90 41 61
        E 176 80 41 00
        <X 42 0
          /wVoYW4=
        >
        E 0 90 40 64
        E 172 80 40 00
        <X 59 0
          /wVzZW4=
        >
        E 0 90 41 66
        E 162 80 41 00
        <X 109 0
          /wVuw6Qt
        >
        E 0 90 41 66
        E 125 80 41 00
        <X 107 0
          /wVrZWU=
        >
        E 0 90 3e 53
        E 368 80 3e 00
        E 54 80 69 00
        E 540 90 69 64
        E 0 90 74 64
        <X 217 0
          /wVTdWw=
        >
        E 0 90 48 64
        E 225 80 48 00
        <X 62 0
          /wUr
        >
        E 0 90 43 67
        E 174 80 43 00
        <X 104 0
          /wVvbg==
        >
        E 0 90 43 6b
        E 502 80 43 00
        <X 147 0
          /wVzdWwt
        >
        E 0 90 43 67
        E 164 80 43 00
        <X 39 0
          /wUr
        >
        E 0 90 45 6b
        E 350 80 45 00
        <X 48 0
          /wVqZXQt
        >
        E 0 90 45 6b
        E 189 80 45 00
        <X 162 0
          /wV0dQ==
        >
        E 0 90 43 60
        E 104 80 43 00
        <X 130 0
          /wVzeS0=
        >
        E 0 90 45 6b
        E 190 80 45 00
        <X 67 0
          /wVkw6Ru
        >
        E 0 90 43 61
        E 384 80 43 00
        E 222 80 69 00
        E 0 80 74 00
        E 360 90 69 64
        <X 198 0
          /wVTdWw=
        >
        E 0 90 48 64
        E 230 80 48 00
        <X 75 0
          /wUr
        >
        E 0 90 43 67
        E 151 80 43 00
        <X 99 0
          /wVvbg==
        >
        E 0 90 43 6b
        E 531 80 43 00
        <X 145 0
          /wVzdWwt
        >
        E 0 90 43 67
        E 164 80 43 00
        <X 38 0
          /wUr
        >
        E 0 90 45 6b
        E 379 80 45 00
        <X 51 0
          /wVqZXQt
        >
        E 0 90 45 6b
        E 180 80 45 00
        <X 145 0
          /wV0dQ==
        >
        E 0 90 43 60
        E 104 80 43 00
        <X 144 0
          /wVzeS0=
        >
        E 0 90 45 6b
        E 182 80 45 00
        <X 75 0
          /wVkw6Ru
        >
        E 0 90 43 61
        E 399 80 43 00
        E 190 80 69 00
        E 360 90 69 64
        <X 184 0
          /wVTdWw=
        >
        E 0 90 48 64
        E 230 80 48 00
        <X 68 0
          /wUr
        >
        E 0 90 43 67
        E 149 80 43 00
        <X 79 0
          /wVvbg==
        >
        E 0 90 43 6b
        E 133 80 43 00
        <X 56 0
          /wUr
        >
        E 0 90 44 6b
        E 334 80 44 00
        <X 172 0
          /wVzdWwt
        >
        E 0 90 43 67
        E 164 80 43 00
        <X 32 0
          /wUr
        >
        E 0 90 45 6b
        E 417 80 45 00
        <X 57 0
          /wVqZXQt
        >
        E 0 90 45 6b
        E 181 80 45 00
        <X 156 0
          /wV0dQ==
        >
        E 0 90 43 60
        E 101 80 43 00
        <X 139 0
          /wVzeS0=
        >
        E 0 90 45 6b
        E 189 80 45 00
        <X 68 0
          /wVkw6Ru
        >
        E 0 90 43 61
        E 423 80 43 00
        <X 59 0
          /wVoZWk=
        >
        E 0 90 43 61
        E 1573 80 43 00
        E 76 80 69 00
        E 420 90 69 64
        <X 55 0
          /wVLdS0=
        >
        E 0 90 42 64
        E 185 80 42 00
        <X 57 0
          /wVrYQ==
        >
        E 0 90 41 68
        E 165 80 41 00
        <X 65 0
          /wVzZW4=
        >
        E 0 90 40 64
        E 215 80 40 00
        <X 103 0
          /wVhdS0=
        >
        E 0 90 41 61
        E 381 80 41 00
        <X 53 0
          /wVrYWkt
        >
        E 0 90 41 64
        E 222 80 41 00
        <X 69 0
          /wUr
        >
        E 0 90 43 5e
        E 91 80 43 00
        <X 77 0
          /wVzZWU=
        >
        E 0 90 43 68
        E 560 80 43 00
        E 42 80 69 00
        E 60 90 69 27
        E 0 90 74 27
        <X 68 0
          /wVZLQ==
        >
        E 0 90 40 60
        E 162 80 40 00
        <X 111 0
          /wVww7Yt
        >
        E 0 90 3c 67
        E 222 80 3c 00
        <X 55 0
          /wV5ay0=
        >
        E 0 90 3b 5f
        E 150 80 3b 00
        <X 248 0
          /wVzaW4=
        >
        E 0 90 3b 55
        E 367 80 3b 00
        <X 619 0
          /wV0YWk=
        >
        E 0 90 3b 5f
        E 142 80 3b 00
        <X 47 0
          /wUr
        >
        E 0 90 3e 54
        E 176 80 3e 00
        <X 125 0
          /wVrYWst
        >
        E 0 90 3e 54
        E 178 80 3e 00
        <X 255 0
          /wVzaW4=
        >
        E 0 90 3e 4e
        E 313 80 3e 00
        E 92 80 69 00
        E 0 80 74 00
        E 450 90 69 27
        <X 100 0
          /wVTdWw=
        >
        E 0 90 40 5b
        E 245 80 40 00
        <X 130 0
          /wUr
        >
        E 0 90 3b 64
        E 78 80 3b 00
        <X 104 0
          /wVvbg==
        >
        E 0 90 3b 55
        E 553 80 3b 00
        <X 100 0
          /wVzdWwt
        >
        E 0 90 3b 54
        E 225 80 3b 00
        <X 44 0
          /wUr
        >
        E 0 90 3c 54
        E 345 80 3c 00
        <X 92 0
          /wVqZXQt
        >
        E 0 90 3c 64
        E 142 80 3c 00
        <X 128 0
          /wV0dQ==
        >
        E 0 90 3e 57
        E 109 80 3e 00
        <X 96 0
          /wVzeS0=
        >
        E 0 90 3e 5a
        E 235 80 3e 00
        <X 65 0
          /wVkw6Ru
        >
        E 0 90 3f 4c
        E 335 80 3f 00
        E 114 80 69 00
        E 600 90 69 27
        <X 117 0
          /wVLYW5zLQ==
        >
        E 0 90 40 56
        E 204 80 40 00
        <X 46 0
          /wVzYQ==
        >
        E 0 90 3b 46
        E 101 80 3b 00
        <X 147 0
          /wV0b2lzLQ==
        >
        E 0 90 3b 55
        E 366 80 3b 00
        <X 134 0
          /wV0ZW4=
        >
        E 0 90 3b 47
        E 338 80 3b 00
        <X 566 0
          /wVzYS0=
        >
        E 0 90 3c 58
        E 263 80 3c 00
        <X 54 0
          /wVtYW4t
        >
        E 0 90 3e 59
        E 178 80 3e 00
        <X 51 0
          /wVsYWlzLQ==
        >
        E 0 90 3e 64
        E 327 80 3e 00
        <X 129 0
          /wV0ZW4=
        >
        E 0 90 3e 4c
        E 284 80 3e 00
        E 115 80 69 00
        E 420 90 69 27
        <X 102 0
          /wVTdWw=
        >
        E 0 90 40 5a
        E 306 80 40 00
        <X 194 0
          /wVvbg==
        >
        E 0 90 3b 57
        E 582 80 3b 00
        <X 106 0
          /wVzdWwt
        >
        E 0 90 3b 58
        E 266 80 3b 00
        <X 36 0
          /wUr
        >
        E 0 90 3c 54
        E 290 80 3c 00
        <X 42 0
          /wVqZXQt
        >
        E 0 90 3c 64
        E 210 80 3c 00
        <X 152 0
          /wV0dQ==
        >
        E 0 90 3e 5a
        E 108 80 3e 00
        <X 123 0
          /wVzeS0=
        >
        E 0 90 3e 52
        E 207 80 3e 00
        <X 79 0
          /wVkw6Ru
        >
        E 0 90 3e 55
        E 345 80 3e 00
        E 92 80 69 00
        E 360 90 69 27
        E 0 90 74 27
        <X 107 0
          /wVUdXMt
        >
        E 0 90 3e 53
        E 180 80 3e 00
        <X 83 0
          /wVrYWEt
        >
        E 0 90 3f 51
        E 141 80 3f 00
        <X 95 0
          /wVrbw==
        >
        E 0 90 3b 57
        E 183 80 3b 00
        <X 82 0
          /wVodXUt
        >
        E 0 90 3b 4b
        E 205 80 3b 00
        <X 135 0
          /wV0YWE=
        >
        E 0 90 3a 5d
        E 270 80 3a 00
        <X 72 0
          /wV2YWk=
        >
        E 0 90 3b 53
        E 235 80 3b 00
        <X 84 0
          /wVpdC0=
        >
        E 0 90 3e 60
        E 59 80 3e 00
        <X 63 0
          /wVzZWwt
        >
        E 0 90 43 51
        E 194 80 43 00
        <X 90 0
          /wV0w6TDpG4=
        >
        E 0 90 43 51
        E 197 80 43 00
        <X 68 0
          /wV2YXIt
        >
        E 0 90 41 58
        E 362 80 41 00
        <X 116 0
          /wVqZS0=
        >
        E 0 90 40 56
        E 145 80 40 00
        <X 74 0
          /wVsZWU=
        >
        E 0 90 3e 60
        E 489 80 3e 00
        <X 56 0
          /wUr
        >
        E 0 90 40 5b
        E 229 80 40 00
        E 66 80 69 00
        E 0 80 74 00
        E 60 90 69 27
        <X 43 0
          /wVTdW4=
        >
        E 0 90 43 5a
        E 229 80 43 00
        <X 48 0
          /wUr
        >
        E 0 90 40 4f
        E 97 80 40 00
        <X 101 0
          /wVzdXUt
        >
        E 0 90 43 5f
        E 451 80 43 00
        <X 42 0
          /wVyaQ==
        >
        E 0 90 42 51
        E 98 80 42 00
        <X 146 0
          /wVzdWwt
        >
        E 0 90 43 5b
        E 584 80 43 00
        <X 92 0
          /wVqZXQt
        >
        E 0 90 43 60
        E 128 80 43 00
        <X 156 0
          /wV0dQ==
        >
        E 0 90 45 5e
        E 113 80 45 00
        <X 102 0
          /wVzeS0=
        >
        E 0 90 45 5b
        E 232 80 45 00
        <X 66 0
          /wVkw6Ru
        >
        E 0 90 45 65
        E 254 80 45 00
        E 138 80 69 00
        E 660 90 69 60
        <X 113 0
          /wVWZS0=
        >
        E 0 90 45 6e
        E 233 80 45 00
        <X 49 0
          /wVyaS0=
        >
        E 0 90 43 64
        E 160 80 43 00
        <X 63 0
          /wV2ZS0=
        >
        E 0 90 43 68
        E 217 80 43 00
        <X 45 0
          /wVsaQ==
        >
        E 0 90 43 5e
        E 135 80 43 00
        <X 81 0
          /wV0YWlrLQ==
        >
        E 0 90 3e 5c
        E 158 80 3e 00
        <X 85 0
          /wVrYQ==
        >
        E 0 90 3e 67
        E 143 80 3e 00
        <X 111 0
          /wVtdXUt
        >
        E 0 90 43 61
        E 354 80 43 00
        <X 91 0
          /wVrYS0=
        >
        E 0 90 43 67
        E 240 80 43 00
        <X 44 0
          /wVsYWkt
        >
        E 0 90 43 27
        E 417 80 43 00
        <X 55 0
          /wVuZW4=
        >
        E 0 90 45 63
        E 222 80 45 00
        E 44 80 69 00
        E 120 90 69 60
        <X 29 0
          /wVTZW4=
        >
        E 0 90 3f 68
        E 204 80 3f 00
        <X 63 0
          /wVuw6Qt
        >
        E 0 90 45 67
        E 121 80 45 00
        <X 114 0
          /wVrZWU=
        >
        E 0 90 45 6c
        E 353 80 45 00
        <X 117 0
          /wVzZW4=
        >
        E 0 90 3f 63
        E 214 80 3f 00
        <X 55 0
          /wVuw6Qt
        >
        E 0 90 45 6a
        E 118 80 45 00
        <X 109 0
          /wVrZWU=
        >
        E 0 90 45 6d
        E 1702 80 45 00
        E 281 80 69 00
        E 960 90 69 60
        E 0 90 74 60
        <X 145 0
          /wVTdWw=
        >
        E 0 90 48 69
        E 199 80 48 00
        <X 65 0
          /wUr
        >
        E 0 90 43 67
        E 152 80 43 00
        <X 97 0
          /wVvbg==
        >
        E 0 90 43 68
        E 565 80 43 00
        <X 103 0
          /wVzdWwt
        >
        E 0 90 45 6a
        E 663 80 45 00
        <X 52 0
          /wVqZXQt
        >
        E 0 90 45 67
        E 149 80 45 00
        <X 167 0
          /wV0dQ==
        >
        E 0 90 43 60
        E 105 80 43 00
        <X 85 0
          /wVzeS0=
        >
        E 0 90 45 67
        E 220 80 45 00
        <X 100 0
          /wVkw6Ru
        >
        E 0 90 43 6b
        E 381 80 43 00
        E 112 80 69 00
        E 0 80 74 00
        E 480 90 69 60
        <X 133 0
          /wVTdWw=
        >
        E 0 90 48 68
        E 210 80 48 00
        <X 69 0
          /wUr
        >
        E 0 90 43 67
        E 210 80 43 00
        <X 70 0
          /wVvbg==
        >
        E 0 90 43 68
        E 578 80 43 00
        <X 92 0
          /wVzdWwt
        >
        E 0 90 45 6b
        E 620 80 45 00
        <X 50 0
          /wVqZXQt
        >
        E 0 90 45 67
        E 169 80 45 00
        <X 157 0
          /wV0dQ==
        >
        E 0 90 43 5b
        E 100 80 43 00
        <X 105 0
          /wVzeS0=
        >
        E 0 90 45 66
        E 208 80 45 00
        <X 85 0
          /wVkw6Ru
        >
        E 0 90 43 60
        E 375 80 43 00
        E 69 80 69 00
        E 600 90 69 60
        <X 101 0
          /wVTdWw=
        >
        E 0 90 48 6a
        E 187 80 48 00
        <X 68 0
          /wUr
        >
        E 0 90 43 65
        E 203 80 43 00
        <X 53 0
          /wVvbg==
        >
        E 0 90 44 68
        E 545 80 44 00
        <X 126 0
          /wVzdWwt
        >
        E 0 90 45 69
        E 668 80 45 00
        <X 58 0
          /wVqZXQt
        >
        E 0 90 45 67
        E 128 80 45 00
        <X 155 0
          /wV0dQ==
        >
        E 0 90 43 5d
        E 106 80 43 00
        <X 102 0
          /wVzeS0=
        >
        E 0 90 45 64
        E 206 80 45 00
        <X 83 0
          /wVkw6Ru
        >
        E 0 90 43 69
        E 384 80 43 00
        <X 85 0
          /wVoZWk=
        >
        E 0 90 43 6b
        E 1566 80 43 00
        E 96 80 69 00
        E 360 90 69 60
        <X 128 0
          /wVLdS0=
        >
        E 0 90 43 61
        E 137 80 43 00
        <X 91 0
          /wVrYQ==
        >
        E 0 90 41 67
        E 149 80 41 00
        <X 82 0
          /wVzZW4=
        >
        E 0 90 40 61
        E 204 80 40 00
        <X 46 0
          /wVhdS0=
        >
        E 0 90 41 65
        E 394 80 41 00
        <X 83 0
          /wVrYWkt
        >
        E 0 90 43 65
        E 399 80 43 00
        <X 81 0
          /wVzZWU=
        >
        E 0 90 43 68
        E 253 80 43 00
        <X 103 0
          /wUr
        >
        E 0 90 45 60
        E 3006 80 45 00
        E 784 80 69 00
        E 180 90 69 60
        E 0 90 74 60
        <X 256 0
          /wVTaGE=
        >
        E 0 90 42 6e
        E 185 80 42 00
        <X 95 0
          /wVsYQ==
        >
        E 0 90 42 6e
        E 315 80 42 00
        <X 143 0
          /wVsYQ==
        >
        E 0 90 42 6e
        E 285 80 42 00
        <X 189 0
          /wVsYQ==
        >
        E 0 90 44 6e
        E 213 80 44 00
        <X 467 0
          /wVzaGE=
        >
        E 0 90 44 6e
        E 186 80 44 00
        <X 94 0
          /wVsYQ==
        >
        E 0 90 42 6e
        E 316 80 42 00
        <X 142 0
          /wVsYQ==
        >
        E 0 90 44 6e
        E 298 80 44 00
        <X 177 0
          /wVsYQ==
        >
        E 0 90 42 6e
        E 212 80 42 00
        E 147 80 69 00
        E 0 80 74 00
        E 240 90 69 60
        <X 106 0
          /wVTaGE=
        >
        E 0 90 42 6e
        E 186 80 42 00
        <X 94 0
          /wVsYQ==
        >
        E 0 90 42 6e
        E 316 80 42 00
        <X 142 0
          /wVsYQ==
        >
        E 0 90 42 6e
        E 326 80 42 00
        <X 149 0
          /wVsYQ==
        >
        E 0 90 44 6e
        E 212 80 44 00
        <X 506 0
          /wVzaGE=
        >
        E 0 90 44 6e
        E 186 80 44 00
        <X 94 0
          /wVsYQ==
        >
        E 0 90 42 6e
        E 316 80 42 00
        <X 142 0
          /wVsYQ==
        >
        E 0 90 44 6e
        E 318 80 44 00
        <X 157 0
          /wVsYQ==
        >
        E 0 90 42 6e
        E 212 80 42 00
        E 198 80 69 00
        E 180 90 69 60
        <X 126 0
          /wVTaGE=
        >
        E 0 90 44 6e
        E 186 80 44 00
        <X 94 0
          /wVsYQ==
        >
        E 0 90 42 6e
        E 254 80 42 00
        <X 204 0
          /wVsYQ==
        >
        E 0 90 44 6e
        E 299 80 44 00
        <X 157 0
          /wVsYQ==
        >
        E 0 90 40 6e
        E 188 80 40 00
        <X 533 0
          /wVzaGE=
        >
        E 0 90 44 6e
        E 186 80 44 00
        <X 94 0
          /wVsYQ==
        >
        E 0 90 42 6e
        E 316 80 42 00
        <X 142 0
          /wVsYQ==
        >
        E 0 90 44 6e
        E 219 80 44 00
        <X 256 0
          /wVsYWE=
        >
        E 0 90 45 6e
        E 419 80 45 00
        E 47 80 69 00
        E 120 90 69 60
        E 0 90 74 60
        <X 125 0
          /wVTdWw=
        >
        E 0 90 48 6a
        E 211 80 48 00
        <X 84 0
          /wUr
        >
        E 0 90 43 68
        E 168 80 43 00
        <X 72 0
          /wVvbg==
        >
        E 0 90 43 60
        E 488 80 43 00
        <X 135 0
          /wVzdWwt
        >
        E 0 90 44 6b
        E 214 80 44 00
        <X 53 0
          /wUr
        >
        E 0 90 45 69
        E 296 80 45 00
        <X 55 0
          /wVqZXQt
        >
        E 0 90 45 60
        E 228 80 45 00
        <X 158 0
          /wV0dQ==
        >
        E 0 90 43 67
        E 83 80 43 00
        <X 121 0
          /wVzeS0=
        >
        E 0 90 45 65
        E 203 80 45 00
        <X 83 0
          /wVkw6Ru
        >
        E 0 90 43 62
        E 463 80 43 00
        E 120 80 69 00
        E 0 80 74 00
        E 360 90 69 60
        <X 226 0
          /wVTdWw=
        >
        E 0 90 48 67
        E 209 80 48 00
        <X 64 0
          /wUr
        >
        E 0 90 43 6e
        E 209 80 43 00
        <X 74 0
          /wVvbg==
        >
        E 0 90 43 6a
        E 502 80 43 00
        <X 134 0
          /wVzdWwt
        >
        E 0 90 44 6d
        E 178 80 44 00
        <X 64 0
          /wUr
        >
        E 0 90 45 6c
        E 322 80 45 00
        <X 60 0
          /wVqZXQt
        >
        E 0 90 45 6e
        E 176 80 45 00
        <X 149 0
          /wV0dQ==
        >
        E 0 90 43 66
        E 107 80 43 00
        <X 102 0
          /wVzeS0=
        >
        E 0 90 45 64
        E 223 80 45 00
        <X 89 0
          /wVkw6Ru
        >
        E 0 90 43 6c
        E 431 80 43 00
        E 161 80 69 00
        E 420 90 69 60
        e 0 90 74 60
        <X 140 0
          /wVTdWw=
        >
        E 0 90 48 67
        E 222 80 48 00
        <X 68 0
          /wUr
        >
        E 0 90 44 6c
        E 192 80 44 00
        <X 56 0
          /wVvbg==
        >
        E 0 90 44 6b
        E 528 80 44 00
        <X 134 0
          /wVzdWwt
        >
        E 0 90 45 6a
        E 561 80 45 00
        <X 71 0
          /wVqZXQt
        >
        E 0 90 45 6c
        E 197 80 45 00
        <X 164 0
          /wV0dQ==
        >
        E 0 90 43 62
        E 118 80 43 00
        <X 105 0
          /wVzeS0=
        >
        E 0 90 45 69
        E 220 80 45 00
        <X 96 0
          /wVkw6Ru
        >
        E 0 90 43 6d
        E 378 80 43 00
        <X 74 0
          /wVoZWk=
        >
        E 0 90 42 6f
        E 204 80 42 00
        <X 67 0
          /wUr
        >
        E 0 90 43 6d
        E 1153 80 43 00
        E 232 80 69 00
        e 0 80 74 00
        E 360 90 69 60
        <X 132 0
          /wVLdS0=
        >
        E 0 90 43 31
        E 120 80 43 00
        <X 120 0
          /wVrYQ==
        >
        E 0 90 41 47
        E 139 80 41 00
        <X 123 0
          /wVzZW4=
        >
        E 0 90 40 57
        E 133 80 40 00
        <X 92 0
          /wVhdS0=
        >
        E 0 90 41 55
        E 343 80 41 00
        <X 119 0
          /wVrYWkt
        >
        E 0 90 43 66
        E 251 80 43 00
        <X 211 0
          /wVzZWU=
        >
        E 0 90 44 6a
        E 218 80 44 00
        <X 50 0
          /wUr
        >
        E 0 90 45 6b
        E 411 80 45 00
        E 17 80 69 00
        E 25 90 69 60
        <X 18 0
          /wVTdWw=
        >
        E 0 90 48 6a
        E 211 80 48 00
        <X 84 0
          /wUr
        >
        E 0 90 43 68
        E 168 80 43 00
        <X 72 0
          /wVvbg==
        >
        E 0 90 43 60
        E 488 80 43 00
        <X 135 0
          /wVzdWwt
        >
        E 0 90 44 6b
        E 214 80 44 00
        <X 53 0
          /wUr
        >
        E 0 90 45 69
        E 296 80 45 00
        <X 69 0
          /wVqZXQt
        >
        E 0 90 45 60
        E 214 80 45 00
        <X 158 0
          /wV0dQ==
        >
        E 0 90 43 67
        E 83 80 43 00
        <X 121 0
          /wVzeS0=
        >
        E 0 90 45 65
        E 203 80 45 00
        <X 83 0
          /wVkw6Ru
        >
        E 0 90 43 62
        E 463 80 43 00
        E 63 80 69 00
        E 600 90 69 60
        <X 43 0
          /wVTdWw=
        >
        E 0 90 48 67
        E 209 80 48 00
        <X 97 0
          /wUr
        >
        E 0 90 43 6e
        E 176 80 43 00
        <X 74 0
          /wVvbg==
        >
        E 0 90 43 6a
        E 502 80 43 00
        <X 134 0
          /wVzdWwt
        >
        E 0 90 44 6d
        E 178 80 44 00
        <X 64 0
          /wUr
        >
        E 0 90 45 6c
        E 322 80 45 00
        <X 60 0
          /wVqZXQt
        >
        E 0 90 45 6e
        E 176 80 45 00
        <X 149 0
          /wV0dQ==
        >
        E 0 90 43 66
        E 126 80 43 00
        <X 110 0
          /wVzeS0=
        >
        E 0 90 45 64
        E 196 80 45 00
        <X 89 0
          /wVkw6Ru
        >
        E 0 90 43 6c
        E 389 80 43 00
        E 86 80 69 00
        E 660 90 69 60
        <X 61 0
          /wVTdWw=
        >
        E 0 90 48 67
        E 178 80 48 00
        <X 94 0
          /wUr
        >
        E 0 90 44 6c
        E 166 80 44 00
        <X 74 0
          /wVvbg==
        >
        E 0 90 44 6b
        E 534 80 44 00
        <X 110 0
          /wVzdWwt
        >
        E 0 90 45 6a
        E 561 80 45 00
        <X 70 0
          /wVqZXQt
        >
        E 0 90 45 6c
        E 197 80 45 00
        <X 165 0
          /wV0dQ==
        >
        E 0 90 43 62
        E 104 80 43 00
        <X 109 0
          /wVzeS0=
        >
        E 0 90 45 69
        E 230 80 45 00
        <X 96 0
          /wVkw6Ru
        >
        E 0 90 43 6d
        E 377 80 43 00
        <X 75 0
          /wVoZWk=
        >
        E 0 90 42 6f
        E 377 80 42 00
        <X 123 0
          /wUr
        >
        E 0 90 43 6d
        E 800 80 43 00
        E 59 80 69 00
        E 720 90 69 60
        <X 68 0
          /wVLdS0=
        >
        E 0 90 43 31
        E 120 80 43 00
        <X 121 0
          /wVrYQ==
        >
        E 0 90 41 47
        E 138 80 41 00
        <X 118 0
          /wVzZW4=
        >
        E 0 90 40 57
        E 176 80 40 00
        <X 102 0
          /wVhdS0=
        >
        E 0 90 41 55
        E 315 80 41 00
        <X 100 0
          /wVrYWkt
        >
        E 0 90 43 66
        E 352 80 43 00
        <X 109 0
          /wVzZWU=
        >
        E 0 90 44 6a
        E 219 80 44 00
        <X 101 0
          /wUr
        >
        E 0 90 45 6b
        E 1183 80 45 00
        E 78 80 69 00
        <X 402 0
          /wFbaWRsZV9yZWFsdGltZV0=
        >
        E 25159 b0 7b 00
        GUID {C9A1A4CA-4224-4672-91C0-075BEB2A8650}
        IGNTEMPO 0 120.00000000 4 4
        SRCCOLOR 1238
        VELLANE 132 128 128
        COLORMAP "C:\Users\me\AppData\Roaming\REAPER\Data\color_maps\rockband_vox-other.png"
        TEXTSTRINGFILE "Text Events List.txt"
        CFGEDITVIEW 53273.894224 29.827429 0 12 0 0 0
        CFGEDIT 1 1 0 0 1 1 1 1 1 1 1 0.12500000 75 0 1611 691 1 2 1 2 0.00000000 0 0 0 0 0.500000 1 0 1.000000 64
        KEYSNAP 0 0 "102034050607" 0 "Major"
        EVTFILTER 0 -1 -1 -1 -1 0 1 0 0 -1.00000000 -1.00000000
      >
    >
  >
  <TRACK '{F390598E-F891-44D1-850A-591216DB2638}'
    NAME "20250821170053-955131ff66-01-suljettu-sydan_melroformer_karaoke_mt_3_vocals-lead_[mvsep.com]"
    PEAKCOL 16576
    BEAT -1
    AUTOMODE 0
    VOLPAN 1.00000000000000 0.00000000000000 -1.00000000000000 -1.00000000000000 1.00000000000000
    MUTESOLO 0 0 0
    IPHASE 0
    ISBUS 0 0
    BUSCOMP 0 0
    SHOWINMIX 1 0.666700 0.500000 1 0.500000 -1 -1 -1
    FREEMODE 0
    SEL 0
    REC 0 0 0 0 0 0 0
    VU 2
    TRACKHEIGHT 24 0
    INQ 0 0 0 0.5000000000 100 0 0 100
    NCHAN 2
    FX 1
    TRACKID {F390598E-F891-44D1-850A-591216DB2638}
    PERF 0
    MIDIOUT -1
    MAINSEND 1 0
    <ITEM
      POSITION 3.94614199176431
      SNAPOFFS 0.00000000000000
      LENGTH 181.96000000000001
      LOOP 0
      ALLTAKES 0
      SEL 0
      FADEIN 1 0.000000 0.000000 1 0
      FADEOUT 1 0.000000 0.000000 1 0
      MUTE 0
      IGUID {1390B041-1422-455D-A79B-A6468FB2AB9A}
      IID 90
      NAME "20250821170053-955131ff66-01-suljettu-sydan_melroformer_karaoke_mt_3_vocals-lead_[mvsep.com].mp3"
      VOLPAN 1.000000 0.000000 1.000000 -1.000000
      SOFFS 0.00000000000000
      PLAYRATE 1.00000000000000 1 0.00000000000000 -1
      CHANMODE 0
      GUID {9144B6AB-6A0B-4A77-9537-15146C6A70FA}
      <SOURCE MP3
        FILE "F:\20250821170053-955131ff66-01-suljettu-sydan_melroformer_karaoke_mt_3_vocals-lead_[mvsep.com].mp3" 1
      >
    >
  >
  <TRACK '{BB7B4DE7-7365-4787-B816-E4D1BF1A8FC1}'
    NAME "01 Suljettu Sydän-vocals-A minor-110bpm-443hz"
    PEAKCOL 16576
    BEAT -1
    AUTOMODE 0
    VOLPAN 1.00000000000000 0.00000000000000 -1.00000000000000 -1.00000000000000 1.00000000000000
    MUTESOLO 0 0 0
    IPHASE 0
    ISBUS 0 0
    BUSCOMP 0 0
    SHOWINMIX 1 0.666700 0.500000 1 0.500000 -1 -1 -1
    FREEMODE 0
    SEL 0
    REC 0 0 0 0 0 0 0
    VU 2
    TRACKHEIGHT 24 0
    INQ 0 0 0 0.5000000000 100 0 0 100
    NCHAN 2
    FX 1
    TRACKID {BB7B4DE7-7365-4787-B816-E4D1BF1A8FC1}
    PERF 0
    MIDIOUT -1
    MAINSEND 1 0
    <ITEM
      POSITION 3.94614199176431
      SNAPOFFS 0.00000000000000
      LENGTH 181.99614512471655
      LOOP 0
      ALLTAKES 0
      SEL 0
      FADEIN 1 0.000000 0.000000 1 0
      FADEOUT 1 0.000000 0.000000 1 0
      MUTE 0
      IGUID {C51BC689-B72A-4E52-B721-565B381BC65B}
      IID 125
      NAME "01 Suljettu Sydän-vocals-A minor-110bpm-443hz.mp3"
      VOLPAN 1.000000 0.000000 1.000000 -1.000000
      SOFFS 0.00000000000000
      PLAYRATE 1.00000000000000 1 0.00000000000000 -1
      CHANMODE 0
      GUID {062DFA33-3D81-4C0A-A9C6-61E5E6C4F6AA}
      <SOURCE MP3
        FILE "01 Suljettu Sydän-vocals-A minor-110bpm-443hz.mp3" 1
      >
    >
  >
  <TRACK '{75F8BA33-D5BE-46ED-B4D6-6C5E910C483B}'
    NAME "01 Suljettu Sydän-vocals-A minor-110bpm-443hz"
    PEAKCOL 16576
    BEAT -1
    AUTOMODE 0
    VOLPAN 1.00000000000000 0.00000000000000 -1.00000000000000 -1.00000000000000 1.00000000000000
    MUTESOLO 0 0 0
    IPHASE 0
    ISBUS 0 0
    BUSCOMP 0 0
    SHOWINMIX 1 0.666700 0.500000 1 0.500000 -1 -1 -1
    FREEMODE 0
    SEL 0
    REC 0 0 0 0 0 0 0
    VU 2
    TRACKHEIGHT 302 0
    INQ 0 0 0 0.5000000000 100 0 0 100
    NCHAN 2
    FX 1
    TRACKID {75F8BA33-D5BE-46ED-B4D6-6C5E910C483B}
    PERF 0
    MIDIOUT -1
    MAINSEND 1 0
    <ITEM
      POSITION 3.94614199176431
      SNAPOFFS 0.00000000000000
      LENGTH 181.99614512471655
      LOOP 0
      ALLTAKES 0
      SEL 0
      FADEIN 1 0.000000 0.000000 1 0
      FADEOUT 1 0.000000 0.000000 1 0
      MUTE 0
      IGUID {353E12DD-6E58-4419-AD8B-3B5CD812862C}
      IID 144
      NAME "01 Suljettu Sydän-vocals-A minor-110bpm-443hz.mp3"
      VOLPAN 1.000000 0.000000 1.000000 -1.000000
      SOFFS 0.00000000000000
      PLAYRATE 1.00000000000000 1 0.00000000000000 -1
      CHANMODE 0
      GUID {87034E33-E12D-4E25-A6D8-C2305CA8ED23}
      <SOURCE MP3
        FILE "01 Suljettu Sydän-vocals-A minor-110bpm-443hz.mp3" 1
      >
    >
  >
  <TRACK '{E60BCF67-80FD-4554-840A-5B0B5C2E06A0}'
    NAME "HARM1"
    PEAKCOL 24624127
    BEAT -1
    AUTOMODE 0
    VOLPAN 1.00000000000000 0.00000000000000 -1.00000000000000 -1.00000000000000 1.00000000000000
    MUTESOLO 0 0 0
    IPHASE 0
    ISBUS 0 0
    BUSCOMP 0 0
    SHOWINMIX 1 0.666700 0.500000 1 0.500000 -1 -1 -1
    FREEMODE 0
    SEL 0
    REC 0 0 0 0 0 0 0
    TRACKHEIGHT 24 0
    INQ 0 0 0 0.5000000000 100 0 0 100
    NCHAN 2
    FX 1
    TRACKID {E60BCF67-80FD-4554-840A-5B0B5C2E06A0}
    PERF 0
    MIDIOUT -1
    <MIDINOTENAMES
      0 0 "Range Shift"
      0 1 "Lyric Shift"
      0 36 "C1"
      0 37 "C#"
      0 38 "D"
      0 39 "Eb"
      0 40 "E"
      0 41 "F"
      0 42 "F#"
      0 43 "G"
      0 44 "G#"
      0 45 "A"
      0 46 "Bb"
      0 47 "B"
      0 48 "C2"
      0 49 "C#"
      0 50 "D"
      0 51 "Eb"
      0 52 "E"
      0 53 "F"
      0 54 "F#"
      0 55 "G"
      0 56 "G#"
      0 57 "A"
      0 58 "Bb"
      0 59 "B"
      0 60 "C3"
      0 61 "C#"
      0 62 "D"
      0 63 "Eb"
      0 64 "E"
      0 65 "F"
      0 66 "F#"
      0 67 "G"
      0 68 "G#"
      0 69 "A"
      0 70 "Bb"
      0 71 "B"
      0 72 "C4"
      0 73 "C#"
      0 74 "D"
      0 75 "Eb"
      0 76 "E"
      0 77 "F"
      0 78 "F#"
      0 79 "G"
      0 80 "G#"
      0 81 "A"
      0 82 "Bb"
      0 83 "B"
      0 105 "Phrase Marker"
      0 116 "OVERDRIVE"
      0 115 "----"
      0 104 "----"
      0 97 "Not Displayed Percussion"
      0 96 "Displayed Percussion"
      0 95 "----"
      0 84 "C5"
    >
    MAINSEND 1 0
    <FXCHAIN
      WNDRECT 786 197 716 493
      SHOW 0
      LASTSEL 1
      DOCKED 0
      BYPASS 0 0
      <JS "IX/MIDI_Tool II" ""
        0.000000 85.000000 127.000000 0.000000 0.000000 0.000000 100.000000 0.000000 0.000000 127.000000 0.000000 0.000000 1.000000 0.000000 0.000000 - - - - - - - - - - - - - - - - - - - - - - - - - - - - - - - - - - - - - - - - - - - - - - - - - 
      >
      FLOATPOS 0 0 0 0
      FXID {2E79298C-F056-441C-A64B-722C2599E1AA}
      WAK 0
      BYPASS 0 0
      <VST "VSTi: ReaSynth (Cockos)" "reasynth.dll" 0 ""
        eXNlcu9e7f4AAAAAAgAAAAEAAAAAAAAAAgAAAAAAAAA4AAAAAAAAAA==
        AAAAAO++rd4N8K3eppvEOxe30ToAAAAAAAAAAAAAAACa9Q8/6WeIPQ==
        AAAAAAAAAD8AAIA/AAAAAAAAAD8AAAAAAAA=
      >
      FLOATPOS 0 0 0 0
      FXID {A391E59B-3475-47CA-9BDB-E03F3B8FF2C4}
      WAK 0
    >
    <ITEM
      POSITION 0.00000000000000
      SNAPOFFS 0.00000000000000
      LENGTH 204.57948757262344
      LOOP 0
      ALLTAKES 0
      SEL 0
      FADEIN 1 0.000000 0.000000 1 0
      FADEOUT 1 0.000000 0.000000 1 0
      MUTE 0
      IGUID {FE84F6DE-5A5E-43D1-BFBE-4632BD10F85F}
      IID 11
      NAME "HARM1 untitled MIDI item"
      VOLPAN 1.000000 0.000000 1.000000 -1.000000
      SOFFS 0.00000000000000 0.00000000000000
      PLAYRATE 1.00000000000000 1 0.00000000000000 -1
      CHANMODE 0
      GUID {188D8841-6EF7-4ADC-A9DC-A83C2882A63B}
      <SOURCE MIDI
        HASDATA 1 480 QN
        POOLEDEVTS {6D060EC4-B6FA-42F5-98A3-F207EEBDD31C}
        <X 0 0
          /wNIQVJNMQ==
        >
        <X 3840 0
          /wFbaWRsZV0=
        >
        <X 19200 0
          /wFbcGxheV0=
        >
        E 360 90 69 66
        <X 132 0
          /wVLYS0=
        >
        E 0 90 40 61
        E 179 80 40 00
        <X 42 0
          /wVydQ==
        >
        E 0 90 3b 5f
        E 241 80 3b 00
        <X 40 0
          /wVtaWUt
        >
        E 0 90 3b 60
        E 426 80 3b 00
        <X 50 0
          /wVsaQ==
        >
        E 0 90 3b 60
        E 104 80 3b 00
        <X 103 0
          /wV0YWlrLQ==
        >
        E 0 90 3c 5c
        E 312 80 3c 00
        <X 172 0
          /wVrYQ==
        >
        E 0 90 3c 52
        E 86 80 3c 00
        <X 141 0
          /wVrZS0=
        >
        E 0 90 3c 5f
        E 174 80 3c 00
        <X 76 0
          /wV2eXQ=
        >
        E 0 90 3c 4b
        E 122 80 3c 00
        <X 138 0
          /wVvLQ==
        >
        E 0 90 3e 56
        E 225 80 3e 00
        <X 27 0
          /wVsbw==
        >
        E 0 90 3e 1d
        E 207 80 3e 00
        E 243 80 69 00
        E 480 90 69 66
        <X 202 0
          /wVTdWw=
        >
        E 0 90 3f 5a
        E 189 80 3f 00
        <X 100 0
          /wUr
        >
        E 0 90 3b 5a
        E 201 80 3b 00
        <X 63 0
          /wVvbg==
        >
        E 0 90 3b 58
        E 571 80 3b 00
        <X 91 0
          /wVzdWwt
        >
        E 0 90 3c 57
        E 596 80 3c 00
        <X 64 0
          /wVqZXQt
        >
        E 0 90 3c 1b
        E 146 80 3c 00
        <X 166 0
          /wV0dQ==
        >
        E 0 90 3e 56
        E 101 80 3e 00
        <X 129 0
          /wVzeS0=
        >
        E 0 90 3e 52
        E 226 80 3e 00
        <X 59 0
          /wVkw6Ru
        >
        E 0 90 3e 49
        E 387 80 3e 00
        E 189 80 69 00
        E 360 90 69 66
        <X 267 0
          /wVUYS0=
        >
        E 0 90 41 4b
        E 108 80 41 00
        <X 109 0
          /wVrYS0=
        >
        E 0 90 3b 4e
        E 109 80 3b 00
        <X 158 0
          /wV0dXUt
        >
        E 0 90 3b 51
        E 382 80 3b 00
        <X 39 0
          /wVsaQ==
        >
        E 0 90 3b 1b
        E 134 80 3b 00
        <X 137 0
          /wV0YWlrLQ==
        >
        E 0 90 3a 54
        E 317 80 3a 00
        <X 179 0
          /wVrYQ==
        >
        E 0 90 3c 57
        E 164 80 3c 00
        <X 78 0
          /wVsw6Qt
        >
        E 0 90 3c 1b
        E 129 80 3c 00
        <X 115 0
          /wVwaS0=
        >
        E 0 90 3e 52
        E 142 80 3e 00
        <X 73 0
          /wV2ZS0=
        >
        E 0 90 3e 4e
        E 153 80 3e 00
        <X 128 0
          /wV0bw==
        >
        E 0 90 3e 49
        E 183 80 3e 00
        E 256 80 69 00
        E 480 90 69 66
        E 0 90 74 66
        <X 189 0
          /wVTdWw=
        >
        E 0 90 40 57
        E 190 80 40 00
        <X 108 0
          /wUr
        >
        E 0 90 3b 57
        E 143 80 3b 00
        <X 124 0
          /wVvbg==
        >
        E 0 90 3b 56
        E 548 80 3b 00
        <X 132 0
          /wVzdWwt
        >
        E 0 90 3b 53
        E 493 80 3b 00
        <X 179 0
          /wVqZXQt
        >
        E 0 90 3c 51
        E 181 80 3c 00
        <X 120 0
          /wV0dQ==
        >
        E 0 90 3e 53
        E 85 80 3e 00
        <X 103 0
          /wVzeS0=
        >
        E 0 90 3b 4b
        E 220 80 3b 00
        <X 109 0
          /wVkw6Ru
        >
        E 0 90 37 4c
        E 418 80 37 00
        E 138 80 69 00
        E 0 80 74 00
        E 360 90 69 66
        <X 214 0
          /wVWZS0=
        >
        E 0 90 45 6e
        E 235 80 45 00
        <X 65 0
          /wVyaS0=
        >
        E 0 90 43 65
        E 145 80 43 00
        <X 82 0
          /wV2ZS0=
        >
        E 0 90 43 66
        E 205 80 43 00
        <X 56 0
          /wVsaQ==
        >
        E 0 90 43 68
        E 112 80 43 00
        <X 97 0
          /wV0YWlrLQ==
        >
        E 0 90 3e 5d
        E 139 80 3e 00
        <X 108 0
          /wVrYQ==
        >
        E 0 90 3e 68
        E 130 80 3e 00
        <X 136 0
          /wVtdXUt
        >
        E 0 90 43 60
        E 350 80 43 00
        <X 117 0
          /wVrYS0=
        >
        E 0 90 43 67
        E 223 80 43 00
        <X 84 0
          /wVsYWkt
        >
        E 0 90 43 67
        E 344 80 43 00
        <X 61 0
          /wVuZW4=
        >
        E 0 90 45 5e
        E 223 80 45 00
        E 54 80 69 00
        E 120 90 69 66
        <X 71 0
          /wVTZW4=
        >
        E 0 90 3f 69
        E 196 80 3f 00
        <X 50 0
          /wVuw6Qt
        >
        E 0 90 43 63
        E 139 80 43 00
        <X 98 0
          /wVrZWU=
        >
        E 0 90 45 6c
        E 366 80 45 00
        <X 135 0
          /wVzZW4=
        >
        E 0 90 3e 61
        E 184 80 3e 00
        <X 41 0
          /wVuw6Qt
        >
        E 0 90 44 61
        E 105 80 44 00
        <X 117 0
          /wVrZWU=
        >
        E 0 90 45 6b
        E 595 80 45 00
        E 33 80 69 00
        E 30 90 69 66
        <X 33 0
          /wVLYWlrLQ==
        >
        E 0 90 40 55
        E 157 80 40 00
        <X 116 0
          /wVraS0=
        >
        E 0 90 41 61
        E 176 80 41 00
        <X 42 0
          /wVoYW4=
        >
        E 0 90 40 64
        E 172 80 40 00
        <X 59 0
          /wVzZW4=
        >
        E 0 90 41 66
        E 162 80 41 00
        <X 109 0
          /wVuw6Qt
        >
        E 0 90 41 66
        E 125 80 41 00
        <X 107 0
          /wVrZWU=
        >
        E 0 90 3e 53
        E 368 80 3e 00
        E 54 80 69 00
        E 540 90 69 64
        E 0 90 74 64
        <X 217 0
          /wVTdWw=
        >
        E 0 90 48 64
        E 225 80 48 00
        <X 62 0
          /wUr
        >
        E 0 90 43 67
        E 174 80 43 00
        <X 104 0
          /wVvbg==
        >
        E 0 90 43 6b
        E 502 80 43 00
        <X 147 0
          /wVzdWwt
        >
        E 0 90 43 67
        E 164 80 43 00
        <X 39 0
          /wUr
        >
        E 0 90 45 6b
        E 350 80 45 00
        <X 48 0
          /wVqZXQt
        >
        E 0 90 45 6b
        E 189 80 45 00
        <X 162 0
          /wV0dQ==
        >
        E 0 90 43 60
        E 104 80 43 00
        <X 130 0
          /wVzeS0=
        >
        E 0 90 45 6b
        E 190 80 45 00
        <X 67 0
          /wVkw6Ru
        >
        E 0 90 43 61
        E 384 80 43 00
        E 222 80 69 00
        E 0 80 74 00
        E 360 90 69 64
        <X 198 0
          /wVTdWw=
        >
        E 0 90 48 64
        E 230 80 48 00
        <X 75 0
          /wUr
        >
        E 0 90 43 67
        E 151 80 43 00
        <X 99 0
          /wVvbg==
        >
        E 0 90 43 6b
        E 531 80 43 00
        <X 145 0
          /wVzdWwt
        >
        E 0 90 43 67
        E 164 80 43 00
        <X 38 0
          /wUr
        >
        E 0 90 45 6b
        E 379 80 45 00
        <X 51 0
          /wVqZXQt
        >
        E 0 90 45 6b
        E 180 80 45 00
        <X 145 0
          /wV0dQ==
        >
        E 0 90 43 60
        E 104 80 43 00
        <X 144 0
          /wVzeS0=
        >
        E 0 90 45 6b
        E 182 80 45 00
        <X 75 0
          /wVkw6Ru
        >
        E 0 90 43 61
        E 399 80 43 00
        E 190 80 69 00
        E 360 90 69 64
        <X 184 0
          /wVTdWw=
        >
        E 0 90 48 64
        E 230 80 48 00
        <X 68 0
          /wUr
        >
        E 0 90 43 67
        E 149 80 43 00
        <X 79 0
          /wVvbg==
        >
        E 0 90 43 6b
        E 133 80 43 00
        <X 56 0
          /wUr
        >
        E 0 90 44 6b
        E 334 80 44 00
        <X 172 0
          /wVzdWwt
        >
        E 0 90 43 67
        E 164 80 43 00
        <X 32 0
          /wUr
        >
        E 0 90 45 6b
        E 417 80 45 00
        <X 57 0
          /wVqZXQt
        >
        E 0 90 45 6b
        E 181 80 45 00
        <X 156 0
          /wV0dQ==
        >
        E 0 90 43 60
        E 101 80 43 00
        <X 139 0
          /wVzeS0=
        >
        E 0 90 45 6b
        E 189 80 45 00
        <X 68 0
          /wVkw6Ru
        >
        E 0 90 43 61
        E 423 80 43 00
        <X 59 0
          /wVoZWk=
        >
        E 0 90 43 61
        E 1573 80 43 00
        E 76 80 69 00
        E 420 90 69 64
        <X 55 0
          /wVLdS0=
        >
        E 0 90 42 64
        E 185 80 42 00
        <X 57 0
          /wVrYQ==
        >
        E 0 90 41 68
        E 165 80 41 00
        <X 65 0
          /wVzZW4=
        >
        E 0 90 40 64
        E 215 80 40 00
        <X 103 0
          /wVhdS0=
        >
        E 0 90 41 61
        E 381 80 41 00
        <X 53 0
          /wVrYWkt
        >
        E 0 90 41 64
        E 222 80 41 00
        <X 69 0
          /wUr
        >
        E 0 90 43 5e
        E 91 80 43 00
        <X 77 0
          /wVzZWU=
        >
        E 0 90 43 68
        E 560 80 43 00
        E 42 80 69 00
        E 60 90 69 27
        E 0 90 74 27
        <X 68 0
          /wVZLQ==
        >
        E 0 90 40 60
        E 162 80 40 00
        <X 111 0
          /wVww7Yt
        >
        E 0 90 3c 67
        E 222 80 3c 00
        <X 55 0
          /wV5ay0=
        >
        E 0 90 3b 5f
        E 150 80 3b 00
        <X 248 0
          /wVzaW4=
        >
        E 0 90 3b 55
        E 367 80 3b 00
        <X 619 0
          /wV0YWk=
        >
        E 0 90 3b 5f
        E 142 80 3b 00
        <X 47 0
          /wUr
        >
        E 0 90 3e 54
        E 176 80 3e 00
        <X 125 0
          /wVrYWst
        >
        E 0 90 3e 54
        E 178 80 3e 00
        <X 255 0
          /wVzaW4=
        >
        E 0 90 3e 4e
        E 313 80 3e 00
        E 92 80 69 00
        E 0 80 74 00
        E 450 90 69 27
        <X 100 0
          /wVTdWw=
        >
        E 0 90 40 5b
        E 245 80 40 00
        <X 130 0
          /wUr
        >
        E 0 90 3b 64
        E 78 80 3b 00
        <X 104 0
          /wVvbg==
        >
        E 0 90 3b 55
        E 553 80 3b 00
        <X 100 0
          /wVzdWwt
        >
        E 0 90 3b 54
        E 225 80 3b 00
        <X 44 0
          /wUr
        >
        E 0 90 3c 54
        E 345 80 3c 00
        <X 92 0
          /wVqZXQt
        >
        E 0 90 3c 64
        E 142 80 3c 00
        <X 128 0
          /wV0dQ==
        >
        E 0 90 3e 57
        E 109 80 3e 00
        <X 96 0
          /wVzeS0=
        >
        E 0 90 3e 5a
        E 235 80 3e 00
        <X 65 0
          /wVkw6Ru
        >
        E 0 90 3f 4c
        E 335 80 3f 00
        E 114 80 69 00
        E 600 90 69 27
        <X 117 0
          /wVLYW5zLQ==
        >
        E 0 90 40 56
        E 204 80 40 00
        <X 46 0
          /wVzYQ==
        >
        E 0 90 3b 46
        E 101 80 3b 00
        <X 147 0
          /wV0b2lzLQ==
        >
        E 0 90 3b 55
        E 366 80 3b 00
        <X 134 0
          /wV0ZW4=
        >
        E 0 90 3b 47
        E 338 80 3b 00
        <X 566 0
          /wVzYS0=
        >
        E 0 90 3c 58
        E 263 80 3c 00
        <X 54 0
          /wVtYW4t
        >
        E 0 90 3e 59
        E 178 80 3e 00
        <X 51 0
          /wVsYWlzLQ==
        >
        E 0 90 3e 64
        E 327 80 3e 00
        <X 129 0
          /wV0ZW4=
        >
        E 0 90 3e 4c
        E 284 80 3e 00
        E 115 80 69 00
        E 420 90 69 27
        <X 102 0
          /wVTdWw=
        >
        E 0 90 40 5a
        E 306 80 40 00
        <X 194 0
          /wVvbg==
        >
        E 0 90 3b 57
        E 582 80 3b 00
        <X 106 0
          /wVzdWwt
        >
        E 0 90 3b 58
        E 266 80 3b 00
        <X 36 0
          /wUr
        >
        E 0 90 3c 54
        E 290 80 3c 00
        <X 42 0
          /wVqZXQt
        >
        E 0 90 3c 64
        E 210 80 3c 00
        <X 152 0
          /wV0dQ==
        >
        E 0 90 3e 5a
        E 108 80 3e 00
        <X 123 0
          /wVzeS0=
        >
        E 0 90 3e 52
        E 207 80 3e 00
        <X 79 0
          /wVkw6Ru
        >
        E 0 90 3e 55
        E 345 80 3e 00
        E 92 80 69 00
        E 360 90 69 27
        E 0 90 74 27
        <X 107 0
          /wVUdXMt
        >
        E 0 90 3e 53
        E 180 80 3e 00
        <X 83 0
          /wVrYWEt
        >
        E 0 90 3f 51
        E 141 80 3f 00
        <X 95 0
          /wVrbw==
        >
        E 0 90 3b 57
        E 183 80 3b 00
        <X 82 0
          /wVodXUt
        >
        E 0 90 3b 4b
        E 205 80 3b 00
        <X 135 0
          /wV0YWE=
        >
        E 0 90 3a 5d
        E 270 80 3a 00
        <X 72 0
          /wV2YWk=
        >
        E 0 90 3b 53
        E 235 80 3b 00
        <X 84 0
          /wVpdC0=
        >
        E 0 90 3e 60
        E 59 80 3e 00
        <X 63 0
          /wVzZWwt
        >
        E 0 90 43 51
        E 194 80 43 00
        <X 90 0
          /wV0w6TDpG4=
        >
        E 0 90 43 51
        E 197 80 43 00
        <X 68 0
          /wV2YXIt
        >
        E 0 90 41 58
        E 362 80 41 00
        <X 116 0
          /wVqZS0=
        >
        E 0 90 40 56
        E 145 80 40 00
        <X 74 0
          /wVsZWU=
        >
        E 0 90 3e 60
        E 489 80 3e 00
        <X 56 0
          /wUr
        >
        E 0 90 40 5b
        E 229 80 40 00
        E 66 80 69 00
        E 0 80 74 00
        E 60 90 69 27
        <X 43 0
          /wVTdW4=
        >
        E 0 90 43 5a
        E 229 80 43 00
        <X 48 0
          /wUr
        >
        E 0 90 40 4f
        E 97 80 40 00
        <X 101 0
          /wVzdXUt
        >
        E 0 90 43 5f
        E 451 80 43 00
        <X 42 0
          /wVyaQ==
        >
        E 0 90 42 51
        E 98 80 42 00
        <X 146 0
          /wVzdWwt
        >
        E 0 90 43 5b
        E 584 80 43 00
        <X 92 0
          /wVqZXQt
        >
        E 0 90 43 60
        E 128 80 43 00
        <X 156 0
          /wV0dQ==
        >
        E 0 90 45 5e
        E 113 80 45 00
        <X 102 0
          /wVzeS0=
        >
        E 0 90 45 5b
        E 232 80 45 00
        <X 66 0
          /wVkw6Ru
        >
        E 0 90 45 65
        E 254 80 45 00
        E 138 80 69 00
        E 660 90 69 60
        <X 113 0
          /wVWZS0=
        >
        E 0 90 45 6e
        E 233 80 45 00
        <X 49 0
          /wVyaS0=
        >
        E 0 90 43 64
        E 160 80 43 00
        <X 63 0
          /wV2ZS0=
        >
        E 0 90 43 68
        E 217 80 43 00
        <X 45 0
          /wVsaQ==
        >
        E 0 90 43 5e
        E 135 80 43 00
        <X 81 0
          /wV0YWlrLQ==
        >
        E 0 90 3e 5c
        E 158 80 3e 00
        <X 85 0
          /wVrYQ==
        >
        E 0 90 3e 67
        E 143 80 3e 00
        <X 111 0
          /wVtdXUt
        >
        E 0 90 43 61
        E 354 80 43 00
        <X 91 0
          /wVrYS0=
        >
        E 0 90 43 67
        E 240 80 43 00
        <X 44 0
          /wVsYWkt
        >
        E 0 90 43 27
        E 417 80 43 00
        <X 55 0
          /wVuZW4=
        >
        E 0 90 45 63
        E 222 80 45 00
        E 44 80 69 00
        E 120 90 69 60
        <X 29 0
          /wVTZW4=
        >
        E 0 90 3f 68
        E 204 80 3f 00
        <X 63 0
          /wVuw6Qt
        >
        E 0 90 45 67
        E 121 80 45 00
        <X 114 0
          /wVrZWU=
        >
        E 0 90 45 6c
        E 353 80 45 00
        <X 117 0
          /wVzZW4=
        >
        E 0 90 3f 63
        E 214 80 3f 00
        <X 55 0
          /wVuw6Qt
        >
        E 0 90 45 6a
        E 118 80 45 00
        <X 109 0
          /wVrZWU=
        >
        E 0 90 45 6d
        E 1702 80 45 00
        E 281 80 69 00
        E 960 90 69 60
        E 0 90 74 60
        <X 145 0
          /wVTdWw=
        >
        E 0 90 48 69
        E 199 80 48 00
        <X 65 0
          /wUr
        >
        E 0 90 43 67
        E 152 80 43 00
        <X 97 0
          /wVvbg==
        >
        E 0 90 43 68
        E 565 80 43 00
        <X 103 0
          /wVzdWwt
        >
        E 0 90 45 6a
        E 663 80 45 00
        <X 52 0
          /wVqZXQt
        >
        E 0 90 45 67
        E 149 80 45 00
        <X 167 0
          /wV0dQ==
        >
        E 0 90 43 60
        E 105 80 43 00
        <X 85 0
          /wVzeS0=
        >
        E 0 90 45 67
        E 220 80 45 00
        <X 100 0
          /wVkw6Ru
        >
        E 0 90 43 6b
        E 381 80 43 00
        E 112 80 69 00
        E 0 80 74 00
        E 480 90 69 60
        <X 133 0
          /wVTdWw=
        >
        E 0 90 48 68
        E 210 80 48 00
        <X 69 0
          /wUr
        >
        E 0 90 43 67
        E 210 80 43 00
        <X 70 0
          /wVvbg==
        >
        E 0 90 43 68
        E 578 80 43 00
        <X 92 0
          /wVzdWwt
        >
        E 0 90 45 6b
        E 620 80 45 00
        <X 50 0
          /wVqZXQt
        >
        E 0 90 45 67
        E 169 80 45 00
        <X 157 0
          /wV0dQ==
        >
        E 0 90 43 5b
        E 100 80 43 00
        <X 105 0
          /wVzeS0=
        >
        E 0 90 45 66
        E 208 80 45 00
        <X 85 0
          /wVkw6Ru
        >
        E 0 90 43 60
        E 375 80 43 00
        E 69 80 69 00
        E 600 90 69 60
        <X 101 0
          /wVTdWw=
        >
        E 0 90 48 6a
        E 187 80 48 00
        <X 68 0
          /wUr
        >
        E 0 90 43 65
        E 203 80 43 00
        <X 53 0
          /wVvbg==
        >
        E 0 90 44 68
        E 545 80 44 00
        <X 126 0
          /wVzdWwt
        >
        E 0 90 45 69
        E 668 80 45 00
        <X 58 0
          /wVqZXQt
        >
        E 0 90 45 67
        E 128 80 45 00
        <X 155 0
          /wV0dQ==
        >
        E 0 90 43 5d
        E 106 80 43 00
        <X 102 0
          /wVzeS0=
        >
        E 0 90 45 64
        E 206 80 45 00
        <X 83 0
          /wVkw6Ru
        >
        E 0 90 43 69
        E 384 80 43 00
        <X 85 0
          /wVoZWk=
        >
        E 0 90 43 6b
        E 1566 80 43 00
        E 96 80 69 00
        E 360 90 69 60
        <X 128 0
          /wVLdS0=
        >
        E 0 90 43 61
        E 137 80 43 00
        <X 91 0
          /wVrYQ==
        >
        E 0 90 41 67
        E 149 80 41 00
        <X 82 0
          /wVzZW4=
        >
        E 0 90 40 61
        E 204 80 40 00
        <X 46 0
          /wVhdS0=
        >
        E 0 90 41 65
        E 394 80 41 00
        <X 83 0
          /wVrYWkt
        >
        E 0 90 43 65
        E 399 80 43 00
        <X 81 0
          /wVzZWU=
        >
        E 0 90 43 68
        E 253 80 43 00
        <X 103 0
          /wUr
        >
        E 0 90 45 60
        E 3006 80 45 00
        E 784 80 69 00
        E 180 90 69 60
        E 0 90 74 60
        E 3720 80 69 00
        E 0 80 74 00
        E 240 90 69 60
        E 3660 80 69 00
        E 180 90 69 60
        E 3720 80 69 00
        E 120 90 69 60
        E 0 90 74 60
        <X 125 0
          /wVTdWw=
        >
        E 0 90 48 6a
        E 211 80 48 00
        <X 84 0
          /wUr
        >
        E 0 90 43 68
        E 168 80 43 00
        <X 72 0
          /wVvbg==
        >
        E 0 90 43 60
        E 488 80 43 00
        <X 135 0
          /wVzdWwt
        >
        E 0 90 44 6b
        E 214 80 44 00
        <X 53 0
          /wUr
        >
        E 0 90 45 69
        E 296 80 45 00
        <X 55 0
          /wVqZXQt
        >
        E 0 90 45 60
        E 228 80 45 00
        <X 158 0
          /wV0dQ==
        >
        E 0 90 43 67
        E 83 80 43 00
        <X 121 0
          /wVzeS0=
        >
        E 0 90 45 65
        E 203 80 45 00
        <X 83 0
          /wVkw6Ru
        >
        E 0 90 43 62
        E 463 80 43 00
        E 120 80 69 00
        E 0 80 74 00
        E 360 90 69 60
        <X 226 0
          /wVTdWw=
        >
        E 0 90 48 67
        E 209 80 48 00
        <X 64 0
          /wUr
        >
        E 0 90 43 6e
        E 209 80 43 00
        <X 74 0
          /wVvbg==
        >
        E 0 90 43 6a
        E 502 80 43 00
        <X 134 0
          /wVzdWwt
        >
        E 0 90 44 6d
        E 178 80 44 00
        <X 64 0
          /wUr
        >
        E 0 90 45 6c
        E 322 80 45 00
        <X 60 0
          /wVqZXQt
        >
        E 0 90 45 6e
        E 176 80 45 00
        <X 149 0
          /wV0dQ==
        >
        E 0 90 43 66
        E 107 80 43 00
        <X 102 0
          /wVzeS0=
        >
        E 0 90 45 64
        E 223 80 45 00
        <X 89 0
          /wVkw6Ru
        >
        E 0 90 43 6c
        E 431 80 43 00
        E 161 80 69 00
        E 420 90 69 60
        E 0 90 74 60
        <X 140 0
          /wVTdWw=
        >
        E 0 90 48 67
        E 222 80 48 00
        <X 68 0
          /wUr
        >
        E 0 90 44 6c
        E 192 80 44 00
        <X 56 0
          /wVvbg==
        >
        E 0 90 44 6b
        E 528 80 44 00
        <X 134 0
          /wVzdWwt
        >
        E 0 90 45 6a
        E 561 80 45 00
        <X 71 0
          /wVqZXQt
        >
        E 0 90 45 6c
        E 197 80 45 00
        <X 164 0
          /wV0dQ==
        >
        E 0 90 43 62
        E 118 80 43 00
        <X 105 0
          /wVzeS0=
        >
        E 0 90 45 69
        E 220 80 45 00
        <X 96 0
          /wVkw6Ru
        >
        E 0 90 43 6d
        E 378 80 43 00
        <X 74 0
          /wVoZWk=
        >
        E 0 90 42 6f
        E 204 80 42 00
        <X 67 0
          /wUr
        >
        E 0 90 43 6d
        E 1153 80 43 00
        E 232 80 69 00
        E 0 80 74 00
        e 360 90 69 60
        <X 132 0
          /wVLdS0=
        >
        E 0 90 43 31
        E 120 80 43 00
        <X 120 0
          /wVrYQ==
        >
        E 0 90 41 47
        E 139 80 41 00
        <X 123 0
          /wVzZW4=
        >
        E 0 90 40 57
        E 133 80 40 00
        <X 92 0
          /wVhdS0=
        >
        E 0 90 41 55
        E 343 80 41 00
        <X 119 0
          /wVrYWkt
        >
        E 0 90 43 66
        E 251 80 43 00
        <X 211 0
          /wVzZWU=
        >
        E 0 90 44 6a
        E 218 80 44 00
        <X 50 0
          /wUr
        >
        E 0 90 45 6b
        E 3829 80 45 00
        e 90 80 69 00
        E 330 90 69 60
        <X 43 0
          /wVTdWw=
        >
        E 0 90 48 67
        E 209 80 48 00
        <X 97 0
          /wUr
        >
        E 0 90 43 6e
        E 176 80 43 00
        <X 74 0
          /wVvbg==
        >
        E 0 90 43 6a
        E 502 80 43 00
        <X 134 0
          /wVzdWwt
        >
        E 0 90 44 6d
        E 178 80 44 00
        <X 64 0
          /wUr
        >
        E 0 90 45 6c
        E 322 80 45 00
        <X 60 0
          /wVqZXQt
        >
        E 0 90 45 6e
        E 176 80 45 00
        <X 149 0
          /wV0dQ==
        >
        E 0 90 43 66
        E 126 80 43 00
        <X 110 0
          /wVzeS0=
        >
        E 0 90 45 64
        E 196 80 45 00
        <X 89 0
          /wVkw6Ru
        >
        E 0 90 43 6c
        E 389 80 43 00
        E 86 80 69 00
        E 660 90 69 60
        <X 61 0
          /wVTdWw=
        >
        E 0 90 48 67
        E 178 80 48 00
        <X 94 0
          /wUr
        >
        E 0 90 44 6c
        E 166 80 44 00
        <X 74 0
          /wVvbg==
        >
        E 0 90 44 6b
        E 534 80 44 00
        <X 110 0
          /wVzdWwt
        >
        E 0 90 45 6a
        E 561 80 45 00
        <X 70 0
          /wVqZXQt
        >
        E 0 90 45 6c
        E 197 80 45 00
        <X 165 0
          /wV0dQ==
        >
        E 0 90 43 62
        E 104 80 43 00
        <X 109 0
          /wVzeS0=
        >
        E 0 90 45 69
        E 230 80 45 00
        <X 96 0
          /wVkw6Ru
        >
        E 0 90 43 6d
        E 377 80 43 00
        <X 75 0
          /wVoZWk=
        >
        E 0 90 42 6f
        E 377 80 42 00
        <X 123 0
          /wUr
        >
        E 0 90 43 6d
        E 800 80 43 00
        E 59 80 69 00
        E 720 90 69 60
        <X 68 0
          /wVLdS0=
        >
        E 0 90 43 31
        E 120 80 43 00
        <X 121 0
          /wVrYQ==
        >
        E 0 90 41 47
        E 138 80 41 00
        <X 118 0
          /wVzZW4=
        >
        E 0 90 40 57
        E 176 80 40 00
        <X 102 0
          /wVhdS0=
        >
        E 0 90 41 55
        E 315 80 41 00
        <X 100 0
          /wVrYWkt
        >
        E 0 90 43 66
        E 352 80 43 00
        <X 109 0
          /wVzZWU=
        >
        E 0 90 44 6a
        E 219 80 44 00
        <X 101 0
          /wUr
        >
        E 0 90 45 6b
        E 1183 80 45 00
        E 78 80 69 00
        <X 402 0
          /wFbaWRsZV9yZWFsdGltZV0=
        >
        E 25159 b0 7b 00
        GUID {D78D8959-2AD8-48C0-8F6C-4A6670952331}
        IGNTEMPO 0 120.00000000 4 4
        SRCCOLOR 1239
        VELLANE 132 128 60
        COLORMAP "C:\Users\me\AppData\Roaming\REAPER\Data\color_maps\rockband_vox-other.png"
        TEXTSTRINGFILE "C:\Program Files\REAPER\Data\Text_Strings\Text Events List.txt"
        CFGEDITVIEW 126671.512771 117.077967 0 12 0 0 0
        CFGEDIT 1 1 0 1 1 1 1 1 1 1 1 0.06250000 -8 -8 1374 736 1 2 1 2 0.00000000 0 0 0 0 0.500000 1 0 1.000000 64
        KEYSNAP 0 0 "102034050607" 0 "Major"
        EVTFILTER 0 -1 -1 -1 -1 0 1 0 0 -1.00000000 -1.00000000
      >
    >
  >
  <TRACK '{4A30D2A4-111B-40E3-8633-0926E85E641C}'
    NAME "DRYVOX1"
    PEAKCOL 16576
    BEAT -1
    AUTOMODE 0
    VOLPAN 1.00000000000000 0.00000000000000 -1.00000000000000 -1.00000000000000 1.00000000000000
    MUTESOLO 1 0 0
    IPHASE 0
    ISBUS 0 0
    BUSCOMP 0 0
    SHOWINMIX 1 0.666700 0.500000 1 0.500000 -1 -1 -1
    FREEMODE 0
    SEL 0
    REC 0 0 0 0 0 0 0
    TRACKHEIGHT 279 0
    INQ 0 0 0 0.5000000000 100 0 0 100
    NCHAN 2
    FX 1
    TRACKID {4A30D2A4-111B-40E3-8633-0926E85E641C}
    PERF 0
    MIDIOUT -1
    MAINSEND 1 0
    <FXCHAIN
      SHOW 0
      LASTSEL 0
      DOCKED 0
      BYPASS 0 0
      <VST "VST: ReaGate (Cockos)" "reagate.dll" 0 ""
        dGdlcu9e7f4EAAAAAQAAAAAAAAACAAAAAAAAAAQAAAAAAAAACAAAAA==
        AAAAAAIAAAABAAAAAAAAAAIAAAAAAAAAVAAAAAAAAAAAABAA776t3g==
        DfCt3pzRBzOmm8Q7CtejPAAAAAAAAAAAAACAPwAAAAAAAAAAAAAAAA==
        nNEHMx5Ucz+c0QczAACAPwAAAAAAAAAAAAAAACwWCz8AAAAAAAAAAA==
        AAAQAAAA
      >
      FLOATPOS 859 184 511 385
      FXID {BF545B5B-7DD0-4B4C-AC52-F095A552DA08}
      WAK 0
    >
    <ITEM
      POSITION 3.94614199176431
      SNAPOFFS 0.00000000000000
      LENGTH 181.96000000000001
      LOOP 0
      ALLTAKES 0
      SEL 0
      FADEIN 1 0.000000 0.000000 1 0
      FADEOUT 1 0.000000 0.000000 1 0
      MUTE 0
      IGUID {677610BC-B1AD-47C3-A669-D2B7F0BF101D}
      IID 90
      NAME "20250821170053-955131ff66-01-suljettu-sydan_melroformer_karaoke_mt_3_vocals-lead_[mvsep.com].mp3"
      VOLPAN 1.000000 0.000000 1.000000 -1.000000
      SOFFS 0.00000000000000
      PLAYRATE 1.00000000000000 1 0.00000000000000 -1
      CHANMODE 0
      GUID {20174B8F-A7B9-4BF2-8E9A-3EEA3344C292}
      <SOURCE MP3
        FILE "F:\20250821170053-955131ff66-01-suljettu-sydan_melroformer_karaoke_mt_3_vocals-lead_[mvsep.com].mp3" 1
      >
    >
    <ITEM
      POSITION 126.46403564789571
      SNAPOFFS 0.00000000000000
      LENGTH 13.11011312149427
      LOOP 0
      ALLTAKES 0
      SEL 0
      FADEIN 1 0.000000 0.000000 1 0
      FADEOUT 1 0.000000 0.000000 1 0
      MUTE 0
      IGUID {3A92D648-F2FF-4C08-A6FB-B4631D4BEDAF}
      IID 126
      NAME "01 Suljettu Sydän-backing_vocals-A minor-110bpm-443hz.mp3"
      VOLPAN 1.000000 0.000000 1.000000 -1.000000
      SOFFS 122.51789365613141
      PLAYRATE 1.00000000000000 1 0.00000000000000 -1
      CHANMODE 0
      GUID {0B01CE7F-61B1-4489-9FDE-D794A1B74246}
      <SOURCE MP3
        FILE "01 Suljettu Sydän-backing_vocals-A minor-110bpm-443hz.mp3" 1
      >
    >
  >
  <TRACK '{983C7D04-DAF6-462A-B5E6-64213F29FBA0}'
    NAME "HARM2"
    PEAKCOL 24624127
    BEAT -1
    AUTOMODE 0
    VOLPAN 1.00497380427334 0.00000000000000 -1.00000000000000 -1.00000000000000 1.00000000000000
    MUTESOLO 0 0 0
    IPHASE 0
    ISBUS 0 0
    BUSCOMP 0 0
    SHOWINMIX 1 0.666700 0.500000 1 0.500000 -1 -1 -1
    FREEMODE 0
    SEL 0
    REC 0 0 0 0 0 0 0
    TRACKHEIGHT 0 0
    INQ 0 0 0 0.5000000000 100 0 0 100
    NCHAN 2
    FX 1
    TRACKID {983C7D04-DAF6-462A-B5E6-64213F29FBA0}
    PERF 0
    MIDIOUT -1
    <MIDINOTENAMES
      0 0 "Range Shift"
      0 1 "Lyric Shift"
      0 36 "C1"
      0 37 "C#"
      0 38 "D"
      0 39 "Eb"
      0 40 "E"
      0 41 "F"
      0 42 "F#"
      0 43 "G"
      0 44 "G#"
      0 45 "A"
      0 46 "Bb"
      0 47 "B"
      0 48 "C2"
      0 49 "C#"
      0 50 "D"
      0 51 "Eb"
      0 52 "E"
      0 53 "F"
      0 54 "F#"
      0 55 "G"
      0 56 "G#"
      0 57 "A"
      0 58 "Bb"
      0 59 "B"
      0 60 "C3"
      0 61 "C#"
      0 62 "D"
      0 63 "Eb"
      0 64 "E"
      0 65 "F"
      0 66 "F#"
      0 67 "G"
      0 68 "G#"
      0 69 "A"
      0 70 "Bb"
      0 71 "B"
      0 72 "C4"
      0 73 "C#"
      0 74 "D"
      0 75 "Eb"
      0 76 "E"
      0 77 "F"
      0 78 "F#"
      0 79 "G"
      0 80 "G#"
      0 81 "A"
      0 82 "Bb"
      0 83 "B"
      0 105 "Phrase Marker"
      0 35 "----"
      0 84 "C5"
      0 116 "OVERDRIVE"
      0 115 "----"
      0 104 "----"
      0 97 "Not Displayed Percussion"
      0 96 "Displayed Percussion"
      0 95 "----"
    >
    MAINSEND 1 0
    <FXCHAIN
      WNDRECT 0 42 716 493
      SHOW 0
      LASTSEL 1
      DOCKED 0
      BYPASS 0 0
      <JS "IX/MIDI_Tool II" ""
        0.000000 85.000000 127.000000 0.000000 0.000000 0.000000 100.000000 0.000000 0.000000 127.000000 0.000000 0.000000 1.000000 0.000000 0.000000 - - - - - - - - - - - - - - - - - - - - - - - - - - - - - - - - - - - - - - - - - - - - - - - - - 
      >
      FLOATPOS 0 0 0 0
      FXID {0D2127EF-90E6-4278-AB57-59BADA75D3A0}
      WAK 0
      BYPASS 0 0
      <VST "VSTi: ReaSynth (Cockos)" "reasynth.dll" 0 ""
        eXNlcu9e7f4AAAAAAgAAAAEAAAAAAAAAAgAAAAAAAAA4AAAAAAAAAA==
        AAAAAO++rd4N8K3eppvEOxe30ToAAAAAAAAAAAAAAACa9Q8/6WeIPQ==
        AAAAAAAAAD8AAIA/AAAAAAAAAD8AAAAAAAA=
      >
      FLOATPOS 0 0 0 0
      FXID {9CF76FE8-51DE-4F46-8774-EF282D9874DF}
      WAK 0
    >
    <ITEM
      POSITION 0.00000000000000
      SNAPOFFS 0.00000000000000
      LENGTH 204.57948757262344
      LOOP 0
      ALLTAKES 0
      SEL 0
      FADEIN 1 0.000000 0.000000 1 0
      FADEOUT 1 0.000000 0.000000 1 0
      MUTE 0
      IGUID {EB85A0E6-E278-403D-AC86-AB26CF8820A4}
      IID 13
      NAME "HARM2 untitled MIDI item"
      VOLPAN 1.000000 0.000000 1.000000 -1.000000
      SOFFS 0.00000000000000 0.00000000000000
      PLAYRATE 1.00000000000000 1 0.00000000000000 -1
      CHANMODE 0
      GUID {019D8F9B-9927-469C-965A-B96C9353BEAA}
      <SOURCE MIDI
        HASDATA 1 480 QN
        POOLEDEVTS {7F9435C1-27B0-4F26-B684-37EFFC4F689E}
        <X 0 0
          /wNIQVJNMg==
        >
        <X 3840 0
          /wFbaWRsZV0=
        >
        <X 19200 0
          /wFbcGxheV0=
        >
        E 360 90 69 66
        E 3240 80 69 00
        E 480 90 69 66
        E 3480 80 69 00
        E 360 90 69 66
        E 3360 80 69 00
        E 480 90 69 66
        E 0 90 74 66
        E 3480 80 69 00
        E 0 80 74 00
        E 360 90 69 66
        E 3180 80 69 00
        E 120 90 69 66
        E 2130 80 69 00
        E 30 90 69 66
        E 1680 80 69 00
        E 540 90 69 64
        E 0 90 74 64
        <X 217 0
          /wVTdWw=
        >
        E 0 90 45 64
        E 225 80 45 00
        <X 62 0
          /wUr
        >
        E 0 90 40 67
        E 174 80 40 00
        <X 104 0
          /wVvbg==
        >
        E 0 90 40 6b
        E 502 80 40 00
        <X 147 0
          /wVzdWwt
        >
        E 0 90 40 67
        E 164 80 40 00
        <X 39 0
          /wUr
        >
        E 0 90 42 6b
        E 350 80 42 00
        <X 48 0
          /wVqZXQt
        >
        E 0 90 42 6b
        E 189 80 42 00
        <X 162 0
          /wV0dQ==
        >
        E 0 90 40 60
        E 104 80 40 00
        <X 130 0
          /wVzeS0=
        >
        E 0 90 42 6b
        E 190 80 42 00
        <X 67 0
          /wVkw6Ru
        >
        E 0 90 40 61
        E 384 80 40 00
        E 222 80 69 00
        E 0 80 74 00
        E 360 90 69 64
        <X 198 0
          /wVTdWw=
        >
        E 0 90 45 64
        E 230 80 45 00
        <X 75 0
          /wUr
        >
        E 0 90 40 67
        E 151 80 40 00
        <X 99 0
          /wVvbg==
        >
        E 0 90 40 6b
        E 531 80 40 00
        <X 145 0
          /wVzdWwt
        >
        E 0 90 40 67
        E 164 80 40 00
        <X 38 0
          /wUr
        >
        E 0 90 42 6b
        E 379 80 42 00
        <X 51 0
          /wVqZXQt
        >
        E 0 90 42 6b
        E 180 80 42 00
        <X 145 0
          /wV0dQ==
        >
        E 0 90 40 60
        E 104 80 40 00
        <X 144 0
          /wVzeS0=
        >
        E 0 90 42 6b
        E 182 80 42 00
        <X 75 0
          /wVkw6Ru
        >
        E 0 90 40 61
        E 399 80 40 00
        E 190 80 69 00
        E 360 90 69 64
        <X 184 0
          /wVTdWw=
        >
        E 0 90 45 64
        E 230 80 45 00
        <X 68 0
          /wUr
        >
        E 0 90 40 67
        E 149 80 40 00
        <X 79 0
          /wVvbg==
        >
        E 0 90 40 6b
        E 133 80 40 00
        <X 56 0
          /wUr
        >
        E 0 90 41 6b
        E 334 80 41 00
        <X 172 0
          /wVzdWwt
        >
        E 0 90 40 67
        E 164 80 40 00
        <X 32 0
          /wUr
        >
        E 0 90 42 6b
        E 417 80 42 00
        <X 57 0
          /wVqZXQt
        >
        E 0 90 42 6b
        E 181 80 42 00
        <X 156 0
          /wV0dQ==
        >
        E 0 90 40 60
        E 101 80 40 00
        <X 139 0
          /wVzeS0=
        >
        E 0 90 42 6b
        E 189 80 42 00
        <X 68 0
          /wVkw6Ru
        >
        E 0 90 40 61
        E 423 80 40 00
        <X 59 0
          /wVoZWk=
        >
        E 0 90 40 61
        E 1573 80 40 00
        E 76 80 69 00
        E 420 90 69 64
        E 2340 80 69 00
        E 60 90 69 27
        E 0 90 74 27
        E 3330 80 69 00
        E 0 80 74 00
        E 450 90 69 27
        E 3240 80 69 00
        E 600 90 69 27
        E 3420 80 69 00
        E 420 90 69 27
        E 3240 80 69 00
        E 360 90 69 27
        E 0 90 74 27
        E 4080 80 69 00
        E 0 80 74 00
        E 60 90 69 27
        E 3120 80 69 00
        E 660 90 69 60
        E 3060 80 69 00
        E 120 90 69 60
        E 3480 80 69 00
        E 960 90 69 60
        E 0 90 74 60
        <X 145 0
          /wVTdWw=
        >
        E 0 90 45 69
        E 199 80 45 00
        <X 65 0
          /wUr
        >
        E 0 90 40 67
        E 152 80 40 00
        <X 97 0
          /wVvbg==
        >
        E 0 90 40 68
        E 565 80 40 00
        <X 103 0
          /wVzdWwt
        >
        E 0 90 42 6a
        E 663 80 42 00
        <X 52 0
          /wVqZXQt
        >
        E 0 90 42 67
        E 149 80 42 00
        <X 167 0
          /wV0dQ==
        >
        E 0 90 40 60
        E 105 80 40 00
        <X 85 0
          /wVzeS0=
        >
        E 0 90 42 67
        E 220 80 42 00
        <X 100 0
          /wVkw6Ru
        >
        E 0 90 40 6b
        E 381 80 40 00
        E 112 80 69 00
        E 0 80 74 00
        E 480 90 69 60
        <X 133 0
          /wVTdWw=
        >
        E 0 90 45 68
        E 210 80 45 00
        <X 69 0
          /wUr
        >
        E 0 90 40 67
        E 210 80 40 00
        <X 70 0
          /wVvbg==
        >
        E 0 90 40 68
        E 578 80 40 00
        <X 92 0
          /wVzdWwt
        >
        E 0 90 42 6b
        E 620 80 42 00
        <X 50 0
          /wVqZXQt
        >
        E 0 90 42 67
        E 169 80 42 00
        <X 157 0
          /wV0dQ==
        >
        E 0 90 40 5b
        E 100 80 40 00
        <X 105 0
          /wVzeS0=
        >
        E 0 90 42 66
        E 208 80 42 00
        <X 85 0
          /wVkw6Ru
        >
        E 0 90 40 60
        E 375 80 40 00
        E 69 80 69 00
        E 600 90 69 60
        <X 101 0
          /wVTdWw=
        >
        E 0 90 45 6a
        E 187 80 45 00
        <X 68 0
          /wUr
        >
        E 0 90 40 65
        E 203 80 40 00
        <X 53 0
          /wVvbg==
        >
        E 0 90 41 68
        E 545 80 41 00
        <X 126 0
          /wVzdWwt
        >
        E 0 90 42 69
        E 668 80 42 00
        <X 58 0
          /wVqZXQt
        >
        E 0 90 42 67
        E 128 80 42 00
        <X 155 0
          /wV0dQ==
        >
        E 0 90 40 5d
        E 106 80 40 00
        <X 102 0
          /wVzeS0=
        >
        E 0 90 42 64
        E 206 80 42 00
        <X 83 0
          /wVkw6Ru
        >
        E 0 90 40 69
        E 384 80 40 00
        <X 85 0
          /wVoZWk=
        >
        E 0 90 40 6b
        E 1566 80 40 00
        E 96 80 69 00
        E 360 90 69 60
        <X 2520 0
          /wVTaGE=
        >
        E 0 90 42 6e
        E 185 80 42 00
        <X 119 0
          /wVsYQ==
        >
        E 0 90 42 6e
        E 315 80 42 00
        <X 141 0
          /wVsYQ==
        >
        E 0 90 42 6e
        E 317 80 42 00
        <X 167 0
          /wVsYQ==
        >
        E 0 90 44 6e
        E 213 80 44 00
        <X 411 0
          /wVzaGE=
        >
        E 0 90 44 6e
        E 223 80 44 00
        <X 92 0
          /wVsYQ==
        >
        E 0 90 42 6e
        E 316 80 42 00
        <X 176 0
          /wVsYQ==
        >
        E 0 90 44 6e
        E 277 80 44 00
        <X 185 0
          /wVsYQ==
        >
        E 0 90 42 6e
        E 218 80 42 00
        E 65 80 69 00
        E 180 90 69 60
        E 0 90 74 60
        <X 256 0
          /wVTaGE=
        >
        E 0 90 42 6e
        E 185 80 42 00
        <X 95 0
          /wVsYQ==
        >
        E 0 90 42 6e
        E 315 80 42 00
        <X 143 0
          /wVsYQ==
        >
        E 0 90 42 6e
        E 285 80 42 00
        <X 189 0
          /wVsYQ==
        >
        E 0 90 44 6e
        E 213 80 44 00
        <X 467 0
          /wVzaGE=
        >
        E 0 90 44 6e
        E 186 80 44 00
        <X 94 0
          /wVsYQ==
        >
        E 0 90 42 6e
        E 316 80 42 00
        <X 142 0
          /wVsYQ==
        >
        E 0 90 44 6e
        E 298 80 44 00
        <X 177 0
          /wVsYQ==
        >
        E 0 90 42 6e
        E 212 80 42 00
        E 147 80 69 00
        E 0 80 74 00
        E 240 90 69 60
        <X 106 0
          /wVTaGE=
        >
        E 0 90 42 6e
        E 186 80 42 00
        <X 94 0
          /wVsYQ==
        >
        E 0 90 42 6e
        E 316 80 42 00
        <X 142 0
          /wVsYQ==
        >
        E 0 90 42 6e
        E 326 80 42 00
        <X 149 0
          /wVsYQ==
        >
        E 0 90 44 6e
        E 212 80 44 00
        <X 506 0
          /wVzaGE=
        >
        E 0 90 44 6e
        E 186 80 44 00
        <X 94 0
          /wVsYQ==
        >
        E 0 90 42 6e
        E 316 80 42 00
        <X 142 0
          /wVsYQ==
        >
        E 0 90 44 6e
        E 318 80 44 00
        <X 157 0
          /wVsYQ==
        >
        E 0 90 42 6e
        E 212 80 42 00
        E 198 80 69 00
        E 180 90 69 60
        <X 126 0
          /wVTaGE=
        >
        E 0 90 44 6e
        E 186 80 44 00
        <X 94 0
          /wVsYQ==
        >
        E 0 90 42 6e
        E 254 80 42 00
        <X 204 0
          /wVsYQ==
        >
        E 0 90 44 6e
        E 299 80 44 00
        <X 157 0
          /wVsYQ==
        >
        E 0 90 40 6e
        E 188 80 40 00
        <X 533 0
          /wVzaGE=
        >
        E 0 90 44 6e
        E 186 80 44 00
        <X 94 0
          /wVsYQ==
        >
        E 0 90 42 6e
        E 316 80 42 00
        <X 142 0
          /wVsYQ==
        >
        E 0 90 44 6e
        E 219 80 44 00
        <X 256 0
          /wVsYWE=
        >
        E 0 90 45 6e
        E 419 80 45 00
        E 47 80 69 00
        E 120 90 69 60
        E 0 90 74 60
        <X 125 0
          /wVTdWw=
        >
        E 0 90 45 6a
        E 211 80 45 00
        <X 84 0
          /wUr
        >
        E 0 90 40 68
        E 168 80 40 00
        <X 72 0
          /wVvbg==
        >
        E 0 90 40 60
        E 488 80 40 00
        <X 135 0
          /wVzdWwt
        >
        E 0 90 41 6b
        E 214 80 41 00
        <X 53 0
          /wUr
        >
        E 0 90 42 69
        E 296 80 42 00
        <X 55 0
          /wVqZXQt
        >
        E 0 90 42 60
        E 228 80 42 00
        <X 158 0
          /wV0dQ==
        >
        E 0 90 40 67
        E 83 80 40 00
        <X 121 0
          /wVzeS0=
        >
        E 0 90 42 65
        E 203 80 42 00
        <X 83 0
          /wVkw6Ru
        >
        E 0 90 40 62
        E 463 80 40 00
        E 120 80 69 00
        E 0 80 74 00
        E 360 90 69 60
        <X 226 0
          /wVTdWw=
        >
        E 0 90 45 67
        E 209 80 45 00
        <X 64 0
          /wUr
        >
        E 0 90 40 6e
        E 209 80 40 00
        <X 74 0
          /wVvbg==
        >
        E 0 90 40 6a
        E 502 80 40 00
        <X 134 0
          /wVzdWwt
        >
        E 0 90 41 6d
        E 178 80 41 00
        <X 64 0
          /wUr
        >
        E 0 90 42 6c
        E 322 80 42 00
        <X 60 0
          /wVqZXQt
        >
        E 0 90 42 6e
        E 176 80 42 00
        <X 149 0
          /wV0dQ==
        >
        E 0 90 40 66
        E 107 80 40 00
        <X 102 0
          /wVzeS0=
        >
        E 0 90 42 64
        E 223 80 42 00
        <X 89 0
          /wVkw6Ru
        >
        E 0 90 40 6c
        E 431 80 40 00
        E 161 80 69 00
        E 420 90 69 60
        E 0 90 74 60
        <X 140 0
          /wVTdWw=
        >
        E 0 90 45 67
        E 222 80 45 00
        <X 68 0
          /wUr
        >
        E 0 90 41 6c
        E 192 80 41 00
        <X 56 0
          /wVvbg==
        >
        E 0 90 41 6b
        E 528 80 41 00
        <X 134 0
          /wVzdWwt
        >
        E 0 90 42 6a
        E 561 80 42 00
        <X 71 0
          /wVqZXQt
        >
        E 0 90 42 6c
        E 197 80 42 00
        <X 164 0
          /wV0dQ==
        >
        E 0 90 40 62
        E 118 80 40 00
        <X 105 0
          /wVzeS0=
        >
        E 0 90 42 69
        E 220 80 42 00
        <X 96 0
          /wVkw6Ru
        >
        E 0 90 40 6d
        E 378 80 40 00
        <X 74 0
          /wVoZWk=
        >
        E 0 90 3f 6f
        E 204 80 3f 00
        <X 67 0
          /wUr
        >
        E 0 90 40 6d
        E 1153 80 40 00
        E 232 80 69 00
        E 0 80 74 00
        E 360 90 69 60
        E 2479 80 69 00
        E 25 90 69 60
        <X 18 0
          /wVTdWw=
        >
        E 0 90 45 6a
        E 211 80 45 00
        <X 84 0
          /wUr
        >
        E 0 90 40 68
        E 168 80 40 00
        <X 72 0
          /wVvbg==
        >
        E 0 90 40 60
        E 488 80 40 00
        <X 135 0
          /wVzdWwt
        >
        E 0 90 41 6b
        E 214 80 41 00
        <X 53 0
          /wUr
        >
        E 0 90 42 69
        E 296 80 42 00
        <X 69 0
          /wVqZXQt
        >
        E 0 90 42 60
        E 214 80 42 00
        <X 158 0
          /wV0dQ==
        >
        E 0 90 40 67
        E 83 80 40 00
        <X 121 0
          /wVzeS0=
        >
        E 0 90 42 65
        E 203 80 42 00
        <X 83 0
          /wVkw6Ru
        >
        E 0 90 40 62
        E 463 80 40 00
        E 63 80 69 00
        E 600 90 69 60
        <X 43 0
          /wVTdWw=
        >
        E 0 90 45 67
        E 209 80 45 00
        <X 97 0
          /wUr
        >
        E 0 90 40 6e
        E 176 80 40 00
        <X 74 0
          /wVvbg==
        >
        E 0 90 40 6a
        E 502 80 40 00
        <X 134 0
          /wVzdWwt
        >
        E 0 90 41 6d
        E 178 80 41 00
        <X 64 0
          /wUr
        >
        E 0 90 42 6c
        E 322 80 42 00
        <X 60 0
          /wVqZXQt
        >
        E 0 90 42 6e
        E 176 80 42 00
        <X 149 0
          /wV0dQ==
        >
        E 0 90 40 66
        E 126 80 40 00
        <X 110 0
          /wVzeS0=
        >
        E 0 90 42 64
        E 196 80 42 00
        <X 89 0
          /wVkw6Ru
        >
        E 0 90 40 6c
        E 389 80 40 00
        E 86 80 69 00
        E 660 90 69 60
        <X 61 0
          /wVTdWw=
        >
        E 0 90 45 67
        E 178 80 45 00
        <X 94 0
          /wUr
        >
        E 0 90 41 6c
        E 166 80 41 00
        <X 74 0
          /wVvbg==
        >
        E 0 90 41 6b
        E 534 80 41 00
        <X 110 0
          /wVzdWwt
        >
        E 0 90 42 6a
        E 561 80 42 00
        <X 70 0
          /wVqZXQt
        >
        E 0 90 42 6c
        E 197 80 42 00
        <X 165 0
          /wV0dQ==
        >
        E 0 90 40 62
        E 104 80 40 00
        <X 109 0
          /wVzeS0=
        >
        E 0 90 42 69
        E 230 80 42 00
        <X 96 0
          /wVkw6Ru
        >
        E 0 90 40 6d
        E 377 80 40 00
        <X 75 0
          /wVoZWk=
        >
        E 0 90 3f 6f
        E 377 80 3f 00
        <X 123 0
          /wUr
        >
        E 0 90 40 6d
        E 800 80 40 00
        E 59 80 69 00
        E 720 90 69 60
        E 3300 80 69 00
        <X 402 0
          /wFbaWRsZV9yZWFsdGltZV0=
        >
        E 25159 b0 7b 00
        GUID {F1082209-E2A8-4526-8AA6-2FE8F2DEB335}
        IGNTEMPO 0 120.00000000 4 4
        SRCCOLOR 1241
        VELLANE 132 128 60
        COLORMAP "C:\Users\me\AppData\Roaming\REAPER\Data\color_maps\rockband_vox-other.png"
        TEXTSTRINGFILE "C:\Program Files\REAPER\Data\Text_Strings\Text Events List.txt"
        CFGEDITVIEW 137024.351040 80.693505 23 12 0 0 0
        CFGEDIT 1 1 0 1 1 1 1 1 1 1 1 0.06250000 -8 -8 1374 736 1 2 1 2 0.00000000 0 0 0 0 0.500000 1 0 1.000000 64
        KEYSNAP 0 0 "102034050607" 0 "Major"
        EVTFILTER 0 -1 -1 -1 -1 0 1 0 0 -1.00000000 -1.00000000
      >
    >
  >
  <TRACK '{58A7B9C6-1373-47A1-A41A-295306551BF7}'
    NAME "DRYVOX2"
    PEAKCOL 16576
    BEAT -1
    AUTOMODE 0
    VOLPAN 1.00000000000000 0.00000000000000 -1.00000000000000 -1.00000000000000 1.00000000000000
    MUTESOLO 1 0 0
    IPHASE 0
    ISBUS 0 0
    BUSCOMP 0 0
    SHOWINMIX 1 0.666700 0.500000 1 0.500000 -1 -1 -1
    FREEMODE 0
    SEL 0
    REC 0 0 0 0 0 0 0
    TRACKHEIGHT 192 0
    INQ 0 0 0 0.5000000000 100 0 0 100
    NCHAN 2
    FX 1
    TRACKID {58A7B9C6-1373-47A1-A41A-295306551BF7}
    PERF 0
    MIDIOUT -1
    MAINSEND 1 0
    <FXCHAIN
      SHOW 0
      LASTSEL 0
      DOCKED 0
      BYPASS 0 0
      <VST "VST: ReaGate (Cockos)" "reagate.dll" 0 ""
        dGdlcu9e7f4EAAAAAQAAAAAAAAACAAAAAAAAAAQAAAAAAAAACAAAAA==
        AAAAAAIAAAABAAAAAAAAAAIAAAAAAAAAVAAAAAAAAAAAABAA776t3g==
        DfCt3pzRBzOmm8Q7CtejPAAAAAAAAAAAAACAPwAAAAAAAAAAAAAAAA==
        nNEHMx5Ucz+c0QczAACAPwAAAAAAAAAAAAAAACwWCz8AAAAAAAAAAA==
        AAAQAAAA
      >
      FLOATPOS 859 184 511 385
      FXID {BF545B5B-7DD0-4B4C-AC52-F095A552DA08}
      WAK 0
    >
    <ITEM
      POSITION 3.94614199176431
      SNAPOFFS 0.00000000000000
      LENGTH 181.99614512471655
      LOOP 0
      ALLTAKES 0
      SEL 0
      FADEIN 1 0.000000 0.000000 1 0
      FADEOUT 1 0.000000 0.000000 1 0
      MUTE 0
      IGUID {30078C0E-BF9B-410F-A1EC-1BAF86698087}
      IID 149
      NAME "01 Suljettu Sydän-backing_vocals-A minor-110bpm-443hz.mp3"
      VOLPAN 1.000000 0.000000 1.000000 -1.000000
      SOFFS 0.00000000000000
      PLAYRATE 1.00000000000000 1 0.00000000000000 -1
      CHANMODE 0
      GUID {01E3DFF5-83AC-4D9D-B0FD-C7C978949B3D}
      <SOURCE MP3
        FILE "01 Suljettu Sydän-backing_vocals-A minor-110bpm-443hz.mp3" 1
      >
    >
  >
  <TRACK '{4299BF31-E988-4C64-900A-97AC9ECE5EBC}'
    NAME "HARM3"
    PEAKCOL 24624127
    BEAT -1
    AUTOMODE 0
    VOLPAN 1.00000000000000 0.00000000000000 -1.00000000000000 -1.00000000000000 1.00000000000000
    MUTESOLO 0 0 0
    IPHASE 0
    ISBUS 0 0
    BUSCOMP 0 0
    SHOWINMIX 1 0.666700 0.500000 1 0.500000 -1 -1 -1
    FREEMODE 0
    SEL 1
    REC 0 0 0 0 0 0 0
    TRACKHEIGHT 0 0
    INQ 0 0 0 0.5000000000 100 0 0 100
    NCHAN 2
    FX 1
    TRACKID {4299BF31-E988-4C64-900A-97AC9ECE5EBC}
    PERF 0
    MIDIOUT -1
    <MIDINOTENAMES
      0 0 "Range Shift"
      0 1 "Lyric Shift"
      0 35 "----"
      0 36 "C1"
      0 37 "C#"
      0 38 "D"
      0 39 "Eb"
      0 40 "E"
      0 41 "F"
      0 42 "F#"
      0 43 "G"
      0 44 "G#"
      0 45 "A"
      0 46 "Bb"
      0 47 "B"
      0 48 "C2"
      0 49 "C#"
      0 50 "D"
      0 51 "Eb"
      0 52 "E"
      0 53 "F"
      0 54 "F#"
      0 55 "G"
      0 56 "G#"
      0 57 "A"
      0 58 "Bb"
      0 59 "B"
      0 60 "C3"
      0 61 "C#"
      0 62 "D"
      0 63 "Eb"
      0 64 "E"
      0 65 "F"
      0 66 "F#"
      0 67 "G"
      0 68 "G#"
      0 69 "A"
      0 70 "Bb"
      0 71 "B"
      0 72 "C4"
      0 73 "C#"
      0 74 "D"
      0 75 "Eb"
      0 76 "E"
      0 77 "F"
      0 78 "F#"
      0 79 "G"
      0 80 "G#"
      0 81 "A"
      0 82 "Bb"
      0 83 "B"
      0 84 "C5"
      0 116 "OVERDRIVE"
      0 115 "----"
      0 105 "Phrase Marker"
      0 104 "----"
      0 97 "Not Displayed Percussion"
      0 96 "Displayed Percussion"
      0 95 "----"
    >
    MAINSEND 1 0
    <FXCHAIN
      WNDRECT 0 42 716 493
      SHOW 0
      LASTSEL 1
      DOCKED 0
      BYPASS 0 0
      <JS "IX/MIDI_Tool II" ""
        0.000000 85.000000 127.000000 0.000000 0.000000 0.000000 100.000000 0.000000 0.000000 127.000000 0.000000 0.000000 1.000000 0.000000 0.000000 - - - - - - - - - - - - - - - - - - - - - - - - - - - - - - - - - - - - - - - - - - - - - - - - - 
      >
      FLOATPOS 0 0 0 0
      FXID {3D33E2FB-5DDE-4F81-B16F-BCB1EAD8D4FA}
      WAK 0
      BYPASS 0 0
      <VST "VSTi: ReaSynth (Cockos)" "reasynth.dll" 0 ""
        eXNlcu9e7f4AAAAAAgAAAAEAAAAAAAAAAgAAAAAAAAA4AAAAAAAAAA==
        AAAAAO++rd4N8K3eppvEOxe30ToAAAAAAAAAAAAAAACa9Q8/6WeIPQ==
        AAAAAAAAAD8AAIA/AAAAAAAAAD8AAAAAAAA=
      >
      FLOATPOS 0 0 0 0
      FXID {98E235B6-3365-4F58-AC74-F5BD513BFA85}
      WAK 0
    >
    <ITEM
      POSITION 0.00000000000000
      SNAPOFFS 0.00000000000000
      LENGTH 204.57948757262344
      LOOP 0
      ALLTAKES 0
      SEL 1
      FADEIN 1 0.000000 0.000000 1 0
      FADEOUT 1 0.000000 0.000000 1 0
      MUTE 0
      IGUID {14DAFADF-64E7-40FA-8E65-65BBB77CBDB7}
      IID 13
      NAME "HARM3 untitled MIDI item"
      VOLPAN 1.000000 0.000000 1.000000 -1.000000
      SOFFS 0.00000000000000 0.00000000000000
      PLAYRATE 1.00000000000000 1 0.00000000000000 -1
      CHANMODE 0
      GUID {BA30FF02-694D-4D9D-9D54-87AECA42C3BA}
      <SOURCE MIDI
        HASDATA 1 480 QN
        POOLEDEVTS {8B409CB2-BFE2-4FFD-9DC2-97393B382EC9}
        <X 0 0
          /wNIQVJNMw==
        >
        <X 3840 0
          /wFbaWRsZV0=
        >
        <X 19200 0
          /wFbcGxheV0=
        >
        E 360 90 69 66
        E 3240 80 69 00
        E 480 90 69 66
        E 3480 80 69 00
        E 360 90 69 66
        E 3360 80 69 00
        E 480 90 69 66
        E 0 90 74 66
        E 3480 80 69 00
        E 0 80 74 00
        E 360 90 69 66
        E 3180 80 69 00
        E 120 90 69 66
        E 2130 80 69 00
        E 30 90 69 66
        E 1680 80 69 00
        E 540 90 69 64
        E 0 90 74 64
        <X 217 0
          /wVTdWw=
        >
        E 0 90 42 64
        E 225 80 42 00
        <X 62 0
          /wUr
        >
        E 0 90 3d 67
        E 174 80 3d 00
        <X 104 0
          /wVvbg==
        >
        E 0 90 3d 6b
        E 502 80 3d 00
        <X 147 0
          /wVzdWwt
        >
        E 0 90 3d 67
        E 164 80 3d 00
        <X 39 0
          /wUr
        >
        E 0 90 3f 6b
        E 350 80 3f 00
        <X 48 0
          /wVqZXQt
        >
        E 0 90 3f 6b
        E 189 80 3f 00
        <X 162 0
          /wV0dQ==
        >
        E 0 90 3d 60
        E 104 80 3d 00
        <X 130 0
          /wVzeS0=
        >
        E 0 90 3f 6b
        E 190 80 3f 00
        <X 67 0
          /wVkw6Ru
        >
        E 0 90 3d 61
        E 384 80 3d 00
        E 222 80 69 00
        E 0 80 74 00
        E 360 90 69 64
        <X 198 0
          /wVTdWw=
        >
        E 0 90 42 64
        E 230 80 42 00
        <X 75 0
          /wUr
        >
        E 0 90 3d 67
        E 151 80 3d 00
        <X 99 0
          /wVvbg==
        >
        E 0 90 3d 6b
        E 531 80 3d 00
        <X 145 0
          /wVzdWwt
        >
        E 0 90 3d 67
        E 164 80 3d 00
        <X 38 0
          /wUr
        >
        E 0 90 3f 6b
        E 379 80 3f 00
        <X 51 0
          /wVqZXQt
        >
        E 0 90 3f 6b
        E 180 80 3f 00
        <X 145 0
          /wV0dQ==
        >
        E 0 90 3d 60
        E 104 80 3d 00
        <X 144 0
          /wVzeS0=
        >
        E 0 90 3f 6b
        E 182 80 3f 00
        <X 75 0
          /wVkw6Ru
        >
        E 0 90 3d 61
        E 399 80 3d 00
        E 190 80 69 00
        E 360 90 69 64
        <X 184 0
          /wVTdWw=
        >
        E 0 90 42 64
        E 230 80 42 00
        <X 68 0
          /wUr
        >
        E 0 90 3d 67
        E 149 80 3d 00
        <X 79 0
          /wVvbg==
        >
        E 0 90 3d 6b
        E 133 80 3d 00
        <X 56 0
          /wUr
        >
        E 0 90 3e 6b
        E 334 80 3e 00
        <X 172 0
          /wVzdWwt
        >
        E 0 90 3d 67
        E 164 80 3d 00
        <X 32 0
          /wUr
        >
        E 0 90 3f 6b
        E 417 80 3f 00
        <X 57 0
          /wVqZXQt
        >
        E 0 90 3f 6b
        E 181 80 3f 00
        <X 156 0
          /wV0dQ==
        >
        E 0 90 3d 60
        E 101 80 3d 00
        <X 139 0
          /wVzeS0=
        >
        E 0 90 3f 6b
        E 189 80 3f 00
        <X 68 0
          /wVkw6Ru
        >
        E 0 90 3d 61
        E 423 80 3d 00
        <X 59 0
          /wVoZWk=
        >
        E 0 90 3d 61
        E 1573 80 3d 00
        E 76 80 69 00
        E 420 90 69 64
        E 2340 80 69 00
        E 60 90 69 27
        E 0 90 74 27
        E 3330 80 69 00
        E 0 80 74 00
        E 450 90 69 27
        E 3240 80 69 00
        E 600 90 69 27
        E 3420 80 69 00
        E 420 90 69 27
        E 3240 80 69 00
        E 360 90 69 27
        E 0 90 74 27
        E 4080 80 69 00
        E 0 80 74 00
        E 60 90 69 27
        E 3120 80 69 00
        E 660 90 69 60
        E 3060 80 69 00
        E 120 90 69 60
        E 3480 80 69 00
        E 960 90 69 60
        E 0 90 74 60
        <X 145 0
          /wVTdWw=
        >
        E 0 90 42 69
        E 199 80 42 00
        <X 65 0
          /wUr
        >
        E 0 90 3d 67
        E 152 80 3d 00
        <X 97 0
          /wVvbg==
        >
        E 0 90 3d 68
        E 565 80 3d 00
        <X 103 0
          /wVzdWwt
        >
        E 0 90 3f 6a
        E 663 80 3f 00
        <X 52 0
          /wVqZXQt
        >
        E 0 90 3f 67
        E 149 80 3f 00
        <X 167 0
          /wV0dQ==
        >
        E 0 90 3d 60
        E 105 80 3d 00
        <X 85 0
          /wVzeS0=
        >
        E 0 90 3f 67
        E 220 80 3f 00
        <X 100 0
          /wVkw6Ru
        >
        E 0 90 3d 6b
        E 381 80 3d 00
        E 112 80 69 00
        E 0 80 74 00
        E 480 90 69 60
        <X 133 0
          /wVTdWw=
        >
        E 0 90 42 68
        E 210 80 42 00
        <X 69 0
          /wUr
        >
        E 0 90 3d 67
        E 210 80 3d 00
        <X 70 0
          /wVvbg==
        >
        E 0 90 3d 68
        E 578 80 3d 00
        <X 92 0
          /wVzdWwt
        >
        E 0 90 3f 6b
        E 620 80 3f 00
        <X 50 0
          /wVqZXQt
        >
        E 0 90 3f 67
        E 169 80 3f 00
        <X 157 0
          /wV0dQ==
        >
        E 0 90 3d 5b
        E 100 80 3d 00
        <X 105 0
          /wVzeS0=
        >
        E 0 90 3f 66
        E 208 80 3f 00
        <X 85 0
          /wVkw6Ru
        >
        E 0 90 3d 60
        E 375 80 3d 00
        E 69 80 69 00
        E 600 90 69 60
        <X 101 0
          /wVTdWw=
        >
        E 0 90 42 6a
        E 187 80 42 00
        <X 68 0
          /wUr
        >
        E 0 90 3d 65
        E 203 80 3d 00
        <X 53 0
          /wVvbg==
        >
        E 0 90 3e 68
        E 545 80 3e 00
        <X 126 0
          /wVzdWwt
        >
        E 0 90 3f 69
        E 668 80 3f 00
        <X 58 0
          /wVqZXQt
        >
        E 0 90 3f 67
        E 128 80 3f 00
        <X 155 0
          /wV0dQ==
        >
        E 0 90 3d 5d
        E 106 80 3d 00
        <X 102 0
          /wVzeS0=
        >
        E 0 90 3f 64
        E 206 80 3f 00
        <X 83 0
          /wVkw6Ru
        >
        E 0 90 3d 69
        E 384 80 3d 00
        <X 85 0
          /wVoZWk=
        >
        E 0 90 3d 6b
        E 1566 80 3d 00
        E 96 80 69 00
        E 360 90 69 60
        <X 2520 0
          /wVTaGE=
        >
        E 0 90 3f 6e
        E 185 80 3f 00
        <X 119 0
          /wVsYQ==
        >
        E 0 90 3f 6e
        E 315 80 3f 00
        <X 140 0
          /wVsYQ==
        >
        E 0 90 3f 6e
        E 317 80 3f 00
        <X 168 0
          /wVsYQ==
        >
        E 0 90 41 6e
        E 213 80 41 00
        <X 410 0
          /wVzaGE=
        >
        E 0 90 41 6e
        E 224 80 41 00
        <X 91 0
          /wVsYQ==
        >
        E 0 90 3f 6e
        E 316 80 3f 00
        <X 177 0
          /wVsYQ==
        >
        E 0 90 41 6e
        E 276 80 41 00
        <X 186 0
          /wVsYQ==
        >
        E 0 90 3f 6e
        E 217 80 3f 00
        E 66 80 69 00
        E 180 90 69 60
        E 0 90 74 60
        <X 256 0
          /wVTaGE=
        >
        E 0 90 3f 6e
        E 185 80 3f 00
        <X 95 0
          /wVsYQ==
        >
        E 0 90 3f 6e
        E 315 80 3f 00
        <X 143 0
          /wVsYQ==
        >
        E 0 90 3f 6e
        E 285 80 3f 00
        <X 189 0
          /wVsYQ==
        >
        E 0 90 41 6e
        E 213 80 41 00
        <X 467 0
          /wVzaGE=
        >
        E 0 90 41 6e
        E 186 80 41 00
        <X 94 0
          /wVsYQ==
        >
        E 0 90 3f 6e
        E 316 80 3f 00
        <X 142 0
          /wVsYQ==
        >
        E 0 90 41 6e
        E 298 80 41 00
        <X 177 0
          /wVsYQ==
        >
        E 0 90 3f 6e
        E 212 80 3f 00
        E 147 80 69 00
        E 0 80 74 00
        E 240 90 69 60
        <X 106 0
          /wVTaGE=
        >
        E 0 90 3f 6e
        E 186 80 3f 00
        <X 94 0
          /wVsYQ==
        >
        E 0 90 3f 6e
        E 316 80 3f 00
        <X 142 0
          /wVsYQ==
        >
        E 0 90 3f 6e
        E 326 80 3f 00
        <X 149 0
          /wVsYQ==
        >
        E 0 90 41 6e
        E 212 80 41 00
        <X 506 0
          /wVzaGE=
        >
        E 0 90 41 6e
        E 186 80 41 00
        <X 94 0
          /wVsYQ==
        >
        E 0 90 3f 6e
        E 316 80 3f 00
        <X 142 0
          /wVsYQ==
        >
        E 0 90 41 6e
        E 318 80 41 00
        <X 157 0
          /wVsYQ==
        >
        E 0 90 3f 6e
        E 212 80 3f 00
        E 198 80 69 00
        E 180 90 69 60
        <X 126 0
          /wVTaGE=
        >
        E 0 90 41 6e
        E 186 80 41 00
        <X 94 0
          /wVsYQ==
        >
        E 0 90 3f 6e
        E 254 80 3f 00
        <X 204 0
          /wVsYQ==
        >
        E 0 90 41 6e
        E 299 80 41 00
        <X 157 0
          /wVsYQ==
        >
        E 0 90 3d 6e
        E 188 80 3d 00
        <X 533 0
          /wVzaGE=
        >
        E 0 90 41 6e
        E 186 80 41 00
        <X 94 0
          /wVsYQ==
        >
        E 0 90 3f 6e
        E 316 80 3f 00
        <X 142 0
          /wVsYQ==
        >
        E 0 90 41 6e
        E 219 80 41 00
        <X 256 0
          /wVsYWE=
        >
        E 0 90 42 6e
        E 419 80 42 00
        E 47 80 69 00
        E 120 90 69 60
        E 0 90 74 60
        <X 125 0
          /wVTdWw=
        >
        E 0 90 42 6a
        E 211 80 42 00
        <X 84 0
          /wUr
        >
        E 0 90 3d 68
        E 168 80 3d 00
        <X 72 0
          /wVvbg==
        >
        E 0 90 3d 60
        E 488 80 3d 00
        <X 135 0
          /wVzdWwt
        >
        E 0 90 3e 6b
        E 214 80 3e 00
        <X 53 0
          /wUr
        >
        E 0 90 3f 69
        E 296 80 3f 00
        <X 55 0
          /wVqZXQt
        >
        E 0 90 3f 60
        E 228 80 3f 00
        <X 158 0
          /wV0dQ==
        >
        E 0 90 3d 67
        E 83 80 3d 00
        <X 121 0
          /wVzeS0=
        >
        E 0 90 3f 65
        E 203 80 3f 00
        <X 83 0
          /wVkw6Ru
        >
        E 0 90 3d 62
        E 463 80 3d 00
        E 120 80 69 00
        E 0 80 74 00
        E 360 90 69 60
        <X 226 0
          /wVTdWw=
        >
        E 0 90 42 67
        E 209 80 42 00
        <X 64 0
          /wUr
        >
        E 0 90 3d 6e
        E 209 80 3d 00
        <X 74 0
          /wVvbg==
        >
        E 0 90 3d 6a
        E 502 80 3d 00
        <X 134 0
          /wVzdWwt
        >
        E 0 90 3e 6d
        E 178 80 3e 00
        <X 64 0
          /wUr
        >
        E 0 90 3f 6c
        E 322 80 3f 00
        <X 60 0
          /wVqZXQt
        >
        E 0 90 3f 6e
        E 176 80 3f 00
        <X 149 0
          /wV0dQ==
        >
        E 0 90 3d 66
        E 107 80 3d 00
        <X 102 0
          /wVzeS0=
        >
        E 0 90 3f 64
        E 223 80 3f 00
        <X 89 0
          /wVkw6Ru
        >
        E 0 90 3d 6c
        E 431 80 3d 00
        E 161 80 69 00
        E 420 90 69 60
        E 0 90 74 60
        <X 140 0
          /wVTdWw=
        >
        E 0 90 42 67
        E 222 80 42 00
        <X 68 0
          /wUr
        >
        E 0 90 3e 6c
        E 192 80 3e 00
        <X 56 0
          /wVvbg==
        >
        E 0 90 3e 6b
        E 528 80 3e 00
        <X 134 0
          /wVzdWwt
        >
        E 0 90 3f 6a
        E 561 80 3f 00
        <X 71 0
          /wVqZXQt
        >
        E 0 90 3f 6c
        E 197 80 3f 00
        <X 164 0
          /wV0dQ==
        >
        E 0 90 3d 62
        E 118 80 3d 00
        <X 105 0
          /wVzeS0=
        >
        E 0 90 3f 69
        E 220 80 3f 00
        <X 96 0
          /wVkw6Ru
        >
        E 0 90 3d 6d
        E 378 80 3d 00
        <X 74 0
          /wVoZWk=
        >
        E 0 90 3c 6f
        E 204 80 3c 00
        <X 67 0
          /wUr
        >
        E 0 90 3d 6d
        E 1153 80 3d 00
        E 232 80 69 00
        E 0 80 74 00
        E 360 90 69 60
        E 2479 80 69 00
        E 25 90 69 60
        <X 18 0
          /wVTdWw=
        >
        E 0 90 42 6a
        E 211 80 42 00
        <X 84 0
          /wUr
        >
        E 0 90 3d 68
        E 168 80 3d 00
        <X 72 0
          /wVvbg==
        >
        E 0 90 3d 60
        E 488 80 3d 00
        <X 135 0
          /wVzdWwt
        >
        E 0 90 3e 6b
        E 214 80 3e 00
        <X 53 0
          /wUr
        >
        E 0 90 3f 69
        E 296 80 3f 00
        <X 69 0
          /wVqZXQt
        >
        E 0 90 3f 60
        E 214 80 3f 00
        <X 158 0
          /wV0dQ==
        >
        E 0 90 3d 67
        E 83 80 3d 00
        <X 121 0
          /wVzeS0=
        >
        E 0 90 3f 65
        E 203 80 3f 00
        <X 83 0
          /wVkw6Ru
        >
        E 0 90 3d 62
        E 463 80 3d 00
        E 63 80 69 00
        E 600 90 69 60
        <X 43 0
          /wVTdWw=
        >
        E 0 90 42 67
        E 209 80 42 00
        <X 97 0
          /wUr
        >
        E 0 90 3d 6e
        E 176 80 3d 00
        <X 74 0
          /wVvbg==
        >
        E 0 90 3d 6a
        E 502 80 3d 00
        <X 134 0
          /wVzdWwt
        >
        E 0 90 3e 6d
        E 178 80 3e 00
        <X 64 0
          /wUr
        >
        E 0 90 3f 6c
        E 322 80 3f 00
        <X 60 0
          /wVqZXQt
        >
        E 0 90 3f 6e
        E 176 80 3f 00
        <X 149 0
          /wV0dQ==
        >
        E 0 90 3d 66
        E 126 80 3d 00
        <X 110 0
          /wVzeS0=
        >
        E 0 90 3f 64
        E 196 80 3f 00
        <X 89 0
          /wVkw6Ru
        >
        E 0 90 3d 6c
        E 389 80 3d 00
        E 86 80 69 00
        E 660 90 69 60
        <X 61 0
          /wVTdWw=
        >
        E 0 90 42 67
        E 178 80 42 00
        <X 94 0
          /wUr
        >
        E 0 90 3e 6c
        E 166 80 3e 00
        <X 74 0
          /wVvbg==
        >
        E 0 90 3e 6b
        E 534 80 3e 00
        <X 110 0
          /wVzdWwt
        >
        E 0 90 3f 6a
        E 561 80 3f 00
        <X 70 0
          /wVqZXQt
        >
        E 0 90 3f 6c
        E 197 80 3f 00
        <X 165 0
          /wV0dQ==
        >
        E 0 90 3d 62
        E 104 80 3d 00
        <X 109 0
          /wVzeS0=
        >
        E 0 90 3f 69
        E 230 80 3f 00
        <X 96 0
          /wVkw6Ru
        >
        E 0 90 3d 6d
        E 377 80 3d 00
        <X 75 0
          /wVoZWk=
        >
        E 0 90 3c 6f
        E 377 80 3c 00
        <X 123 0
          /wUr
        >
        E 0 90 3d 6d
        E 800 80 3d 00
        E 59 80 69 00
        E 720 90 69 60
        E 3300 80 69 00
        <X 402 0
          /wFbaWRsZV9yZWFsdGltZV0=
        >
        E 25159 b0 7b 00
        GUID {F1082209-E2A8-4526-8AA6-2FE8F2DEB335}
        IGNTEMPO 0 120.00000000 4 4
        SRCCOLOR 1241
        VELLANE 132 128 60
        COLORMAP "C:\Users\me\AppData\Roaming\REAPER\Data\color_maps\rockband_vox-other.png"
        TEXTSTRINGFILE "C:\Program Files\REAPER\Data\Text_Strings\Text Events List.txt"
        CFGEDITVIEW 126671.512771 117.077967 9 12 0 0 0
        CFGEDIT 1 1 0 1 1 1 1 1 1 1 1 0.06250000 -8 -8 1374 736 1 2 1 2 0.00000000 0 0 0 0 0.500000 1 0 1.000000 64
        KEYSNAP 0 0 "102034050607" 0 "Major"
        EVTFILTER 0 -1 -1 -1 -1 0 1 0 0 -1.00000000 -1.00000000
      >
    >
  >
  <TRACK '{AB3E8FDC-23A9-4945-BA6C-055C630028D0}'
    NAME "DRYVOX3"
    PEAKCOL 16576
    BEAT -1
    AUTOMODE 0
    VOLPAN 1.00000000000000 0.00000000000000 -1.00000000000000 -1.00000000000000 1.00000000000000
    MUTESOLO 1 0 0
    IPHASE 0
    ISBUS 0 0
    BUSCOMP 0 0
    SHOWINMIX 1 0.666700 0.500000 1 0.500000 -1 -1 -1
    FREEMODE 0
    SEL 0
    REC 0 0 0 0 0 0 0
    TRACKHEIGHT 24 0
    INQ 0 0 0 0.5000000000 100 0 0 100
    NCHAN 2
    FX 1
    TRACKID {AB3E8FDC-23A9-4945-BA6C-055C630028D0}
    PERF 0
    MIDIOUT -1
    MAINSEND 1 0
    <FXCHAIN
      SHOW 0
      LASTSEL 0
      DOCKED 0
      BYPASS 0 0
      <VST "VST: ReaGate (Cockos)" "reagate.dll" 0 ""
        dGdlcu9e7f4EAAAAAQAAAAAAAAACAAAAAAAAAAQAAAAAAAAACAAAAA==
        AAAAAAIAAAABAAAAAAAAAAIAAAAAAAAAVAAAAAAAAAAAABAA776t3g==
        DfCt3pzRBzOmm8Q7CtejPAAAAAAAAAAAAACAPwAAAAAAAAAAAAAAAA==
        nNEHMx5Ucz+c0QczAACAPwAAAAAAAAAAAAAAACwWCz8AAAAAAAAAAA==
        AAAQAAAA
      >
      FLOATPOS 859 184 511 385
      FXID {BF545B5B-7DD0-4B4C-AC52-F095A552DA08}
      WAK 0
    >
  >
  <TRACK '{14F64FB7-FE44-4E53-9F58-44F4178BCEF9}'
    NAME "PART KEYS"
    PEAKCOL 16842496
    BEAT -1
    AUTOMODE 0
    VOLPAN 1.00000000000000 0.00000000000000 -1.00000000000000 -1.00000000000000 1.00000000000000
    MUTESOLO 1 0 0
    IPHASE 0
    ISBUS 1 1
    BUSCOMP 0 0
    SHOWINMIX 1 0.666700 0.500000 1 0.500000 -1 -1 -1
    FREEMODE 0
    SEL 0
    REC 0 0 0 0 0 0 0
    TRACKHEIGHT 0 0
    INQ 0 0 0 0.5000000000 100 0 0 100
    NCHAN 2
    FX 1
    TRACKID {14F64FB7-FE44-4E53-9F58-44F4178BCEF9}
    PERF 0
    MIDIOUT -1
    <MIDINOTENAMES
      0 124 "BRE"
      0 123 "BRE"
      0 122 "BRE"
      0 121 "BRE"
      0 120 "BRE (use all 5)"
      0 116 "OVERDRIVE"
      0 119 "----"
      0 115 "----"
      0 103 "Solo Marker"
      0 95 "----"
      0 96 "EXPERT Green"
      0 97 "EXPERT Red"
      0 98 "EXPERT Yellow"
      0 99 "EXPERT Blue"
      0 100 "EXPERT Orange"
      0 102 "Force HoPo off"
      0 83 "----"
      0 84 "HARD Green"
      0 85 "HARD Red"
      0 86 "HARD Yellow"
      0 87 "HARD Blue"
      0 88 "HARD Orange"
      0 72 "MEDIUM Green"
      0 73 "MEDIUM Red"
      0 74 "MEDIUM Yellow"
      0 75 "MEDIUM Blue"
      0 76 "MEDIUM Orange"
      0 71 "----"
      0 64 "EASY Orange"
      0 63 "EASY Blue"
      0 62 "EASY Yellow"
      0 61 "EASY Red"
      0 60 "EASY Green"
      0 127 "Trill Marker"
      0 126 "----"
      0 101 "Force HoPo on"
    >
    MAINSEND 1 0
    <FXCHAIN
      WNDRECT 0 40 878 585
      SHOW 0
      LASTSEL 0
      DOCKED 0
      BYPASS 0 0
      <VST "VSTi: RBN Preview (RBN)" "rbprev_vst64_beta.dll" 0 ""
        dnBicu5e7f4AAAAAAgAAAAEAAAAAAAAAAgAAAAAAAAAEAAAAAQAAAA==
        AAAAAAMAqgAAAAAAAAA=
      >
      FLOATPOS 0 0 0 0
      FXID {EE0C80EE-5E5F-4EA2-B367-78AAAB3793F5}
      WAK 0
    >
    <ITEM
      POSITION 0.00000000000000
      SNAPOFFS 0.00000000000000
      LENGTH 204.57948757262312
      LOOP 0
      ALLTAKES 0
      SEL 0
      FADEIN 1 0.000000 0.000000 1 0
      FADEOUT 1 0.000000 0.000000 1 0
      MUTE 0
      IGUID {52D9F6AC-16AD-4CE9-95E4-6AD6396BB4E2}
      IID 14
      NAME "PART KEYS"
      VOLPAN 1.000000 0.000000 1.000000 -1.000000
      SOFFS 0.00000000000000 0.00000000000000
      PLAYRATE 1.00000000000000 1 0.00000000000000 -65536
      CHANMODE 0
      GUID {78E1CCBD-C30B-4DD8-81CD-2AEB0D2D38C8}
      <SOURCE MIDI
        HASDATA 1 480 QN
        POOLEDEVTS {BDF926F6-2C23-486F-B026-8E84ABF3F9F8}
        <X 0 0
          /wNQQVJUIEtFWVM=
        >
        <X 3840 0
          /wFbcGxheV0=
        >
        E 0 90 40 7f
        E 0 90 4c 7f
        E 0 90 58 7f
        E 60 80 40 00
        E 0 80 4c 00
        E 0 80 58 00
        E 30 90 3f 7f
        E 0 90 4b 7f
        E 0 90 57 7f
        E 60 80 3f 00
        E 0 80 4b 00
        E 0 80 57 00
        E 30 90 3e 7f
        E 0 90 4a 7f
        E 0 90 56 7f
        E 60 80 3e 00
        E 0 80 4a 00
        E 0 80 56 00
        E 30 90 3d 7f
        E 0 90 49 7f
        E 0 90 55 7f
        E 60 80 3d 00
        E 0 80 49 00
        E 0 80 55 00
        E 30 90 3c 7f
        E 0 90 48 7f
        E 0 90 54 7f
        E 60 80 3c 00
        E 0 80 48 00
        E 0 80 54 00
        E 176221 b0 7b 00
        GUID {F537F270-CEBA-461E-8612-DC28913708FC}
        IGNTEMPO 0 120.00000000 4 4
        SRCCOLOR 1242
        VELLANE 132 128 60
        COLORMAP "C:\Users\me\AppData\Roaming\REAPER\Data\color_maps\rockband_guitarbass.png"
        TEXTSTRINGFILE "C:\Program Files\REAPER\Data\Text_Strings\Text Events List.txt"
        CFGEDITVIEW -4299.275963 82.395269 19 12 0 0 0
        CFGEDIT 1 1 0 0 0 1 1 1 1 1 1 0.12500000 -8 -8 1370 736 1 0 1 2 0.00000000 0 0 0 0 0.500000 1 0 1.000000 64
        KEYSNAP 0 0 "102034050607" 0 "Major"
        EVTFILTER 0 -1 -1 -1 -1 0 1 0 0 -1.00000000 -1.00000000
      >
    >
  >
  <TRACK '{D39F8BD7-8730-4182-94EC-51AF9F9ACC90}'
    NAME "PART REAL_KEYS_X"
    PEAKCOL 25231232
    BEAT -1
    AUTOMODE 0
    VOLPAN 1.00000000000000 0.00000000000000 -1.00000000000000 -1.00000000000000 1.00000000000000
    MUTESOLO 1 0 0
    IPHASE 0
    ISBUS 0 0
    BUSCOMP 1 0
    SHOWINMIX 1 0.666700 0.500000 1 0.500000 -1 -1 -1
    FREEMODE 0
    SEL 0
    REC 0 0 0 0 0 0 0
    TRACKHEIGHT 0 0
    INQ 0 0 0 0.5000000000 100 0 0 100
    NCHAN 2
    FX 1
    TRACKID {D39F8BD7-8730-4182-94EC-51AF9F9ACC90}
    PERF 0
    MIDIOUT -1
    <MIDINOTENAMES
      0 0 "C2-E3 Range"
      0 5 "F2-A3 Range"
      0 9 "A2-C4 Range"
      0 48 "C2 (Lowest Note)"
      0 72 "C4 (Highest Note)"
      0 115 "Solo Marker"
      0 126 "Glissando Marker"
      0 116 "Overdrive Marker"
      0 127 "Trill Marker"
      0 125 "----"
      0 114 "----"
      0 47 "----"
      0 49 "C#2"
      0 50 "D2"
      0 51 "Eb2"
      0 52 "E2"
      0 53 "F2"
      0 54 "F#2"
      0 55 "G2"
      0 56 "G#2"
      0 57 "A2"
      0 58 "Bb2"
      0 59 "B2"
      0 60 "C3"
      0 61 "C#3"
      0 62 "D3"
      0 63 "Eb3"
      0 64 "E3"
      0 65 "F3"
      0 66 "F#3"
      0 67 "G3"
      0 68 "G#3"
      0 69 "A3"
      0 70 "Bb3"
      0 71 "B3"
      0 2 "D2-F3 Range"
      0 4 "E2-G3 Range"
      0 7 "G2-B3 Range"
    >
    MAINSEND 1 0
    <FXCHAIN
      WNDRECT 0 40 655 493
      SHOW 0
      LASTSEL 1
      DOCKED 0
      BYPASS 0 0
      <JS "IX/MIDI_Tool II" ""
        0.000000 85.000000 127.000000 0.000000 0.000000 0.000000 100.000000 0.000000 0.000000 127.000000 0.000000 0.000000 1.000000 0.000000 0.000000 - - - - - - - - - - - - - - - - - - - - - - - - - - - - - - - - - - - - - - - - - - - - - - - - - 
      >
      FLOATPOS 0 0 0 0
      FXID {A891DAA7-5D8A-4720-AA8F-E43D2ABA2AE5}
      WAK 0
      BYPASS 0 0
      <VST "VSTi: ReaSynth (Cockos)" "reasynth.dll" 0 ""
        eXNlcu9e7f4AAAAAAgAAAAEAAAAAAAAAAgAAAAAAAAA4AAAAAAAAAA==
        AAAAAO++rd4N8K3eppvEOxe30TqcxKA+c2jRPgAAAADMm4A+6WeIPQ==
        AAAAAAAAAD8AAIA/6SaxPgAAAD8AAAAAAAA=
      >
      FLOATPOS 0 0 0 0
      FXID {A0CE5851-0C70-49E2-AD61-BC7B1C50A030}
      WAK 0
    >
    <ITEM
      POSITION 0.00000000000000
      SNAPOFFS 0.00000000000000
      LENGTH 204.57948757262312
      LOOP 0
      ALLTAKES 0
      SEL 0
      FADEIN 1 0.000000 0.000000 1 0
      FADEOUT 1 0.000000 0.000000 1 0
      MUTE 0
      IGUID {974100C2-06C4-4CB5-BD67-2F1BC71A1259}
      IID 15
      NAME "PART REAL_KEYS_X"
      VOLPAN 1.000000 0.000000 1.000000 -1.000000
      SOFFS 0.00000000000000 0.00000000000000
      PLAYRATE 1.00000000000000 1 0.00000000000000 -65536
      CHANMODE 0
      GUID {08703F3F-9741-46EB-9ED4-B09B2390F876}
      <SOURCE MIDI
        HASDATA 1 480 QN
        POOLEDEVTS {95729136-DA40-426E-B1BE-42E743E5CD19}
        <X 0 0
          /wNQQVJUIFJFQUxfS0VZU19Y
        >
        <X 3840 0
          /wFbcGxheV0=
        >
        E 176641 b0 7b 00
        GUID {0E0CBFB7-4AC8-4E67-A764-85891754BB41}
        IGNTEMPO 0 120.00000000 4 4
        SRCCOLOR 1243
        VELLANE 132 128 60
        COLORMAP "C:\Program Files\REAPER\Data\color_maps\rockband_guitarbass.png"
        TEXTSTRINGFILE "C:\Program Files\REAPER\Data\Text_Strings\Text Events List.txt"
        CFGEDITVIEW -4299.275963 82.395269 48 12 0 0 0
        CFGEDIT 1 1 0 1 1 1 1 1 1 1 1 0.12500000 -8 -8 1370 736 1 0 1 2 0.00000000 0 0 0 0 0.500000 1 0 1.000000 64
        KEYSNAP 0 0 "102034050607" 0 "Major"
        EVTFILTER 0 -1 -1 -1 -1 0 1 0 0 -1.00000000 -1.00000000
      >
    >
  >
  <TRACK '{117931B6-9EA5-432A-AEED-ACF4C8876354}'
    NAME "PART REAL _KEYS_H"
    PEAKCOL 25231232
    BEAT -1
    AUTOMODE 0
    VOLPAN 1.00000843600341 0.00000000000000 -1.00000000000000 -1.00000000000000 1.00000000000000
    MUTESOLO 1 0 0
    IPHASE 0
    ISBUS 0 0
    BUSCOMP 0 0
    SHOWINMIX 1 0.666700 0.500000 1 0.500000 -1 -1 -1
    FREEMODE 0
    SEL 0
    REC 0 0 0 0 0 0 0
    TRACKHEIGHT 0 0
    INQ 0 0 0 0.5000000000 100 0 0 100
    NCHAN 2
    FX 1
    TRACKID {117931B6-9EA5-432A-AEED-ACF4C8876354}
    PERF 0
    MIDIOUT -1
    <MIDINOTENAMES
      0 0 "C2-E3 Range"
      0 5 "F2-A3 Range"
      0 9 "A2-C4 Range"
      0 48 "C2 (Lowest Note)"
      0 72 "C4 (Highest Note)"
      0 115 "Solo Marker"
      0 126 "Glissando Marker"
      0 127 "Trill Marker"
      0 125 "----"
      0 116 "Overdrive Marker"
      0 114 "----"
      0 71 "B3"
      0 70 "Bb3"
      0 69 "A3"
      0 68 "G#3"
      0 67 "G3"
      0 66 "F#3"
      0 65 "F3"
      0 64 "E3"
      0 63 "Eb3"
      0 62 "D3"
      0 61 "C#3"
      0 60 "C3"
      0 59 "B2"
      0 58 "Bb2"
      0 57 "A2"
      0 56 "G#2"
      0 55 "G2"
      0 54 "F#2"
      0 53 "F2"
      0 52 "E2"
      0 51 "Eb2"
      0 50 "D2"
      0 49 "C#2"
      0 47 "----"
      0 7 "G2-B3 Range"
      0 4 "E2-G3 Range"
      0 2 "D2-F3 Range"
    >
    MAINSEND 1 0
    <FXCHAIN
      SHOW 0
      LASTSEL 0
      DOCKED 0
      BYPASS 0 0
      <JS "IX/MIDI_Tool II" ""
        0.000000 85.000000 127.000000 0.000000 0.000000 0.000000 100.000000 0.000000 0.000000 127.000000 0.000000 0.000000 1.000000 0.000000 0.000000 - - - - - - - - - - - - - - - - - - - - - - - - - - - - - - - - - - - - - - - - - - - - - - - - - 
      >
      FLOATPOS 0 0 0 0
      FXID {5BF1E178-D070-4445-A488-4CE4E31F6508}
      WAK 0
      BYPASS 0 0
      <VST "VSTi: ReaSynth (Cockos)" "reasynth.dll" 0 ""
        eXNlcu9e7f4AAAAAAgAAAAEAAAAAAAAAAgAAAAAAAAA4AAAAAAAAAA==
        AAAAAO++rd4N8K3eppvEOxe30TqcxKA+c2jRPgAAAADMm4A+6WeIPQ==
        AAAAAAAAAD8AAIA/6SaxPgAAAD8AAAAAAAA=
      >
      FLOATPOS 0 0 0 0
      FXID {C48567E0-8372-4900-9933-4B040EA2A253}
      WAK 0
    >
    <ITEM
      POSITION 0.00000000000000
      SNAPOFFS 0.00000000000000
      LENGTH 204.57948757262344
      LOOP 0
      ALLTAKES 0
      SEL 0
      FADEIN 1 0.000000 0.000000 1 0
      FADEOUT 1 0.000000 0.000000 1 0
      MUTE 0
      IGUID {85B4D2FA-0EE6-4979-8286-EAC89A15680D}
      IID 12
      NAME "HARM2 untitled MIDI item"
      VOLPAN 1.000000 0.000000 1.000000 -1.000000
      SOFFS 0.00000000000000 0.00000000000000
      PLAYRATE 1.00000000000000 1 0.00000000000000 -1
      CHANMODE 0
      GUID {67C8C31A-733D-46F5-9A6D-0FDF2143554E}
      <SOURCE MIDI
        HASDATA 1 480 QN
        POOLEDEVTS {C2606FD4-8E4A-4CD6-8FB6-E06ACCDA7A18}
        <X 0 0
          /wNIQVJNMg==
        >
        E 180481 b0 7b 00
        GUID {E53B89F8-ECC8-4A25-86E2-BC4D240C9444}
        IGNTEMPO 0 120.00000000 4 4
        SRCCOLOR 1240
        VELLANE 132 128 60
        COLORMAP "C:\Users\me\AppData\Roaming\REAPER\Data\color_maps\rockband_vox-other.png"
        TEXTSTRINGFILE "C:\Program Files\REAPER\Data\Text_Strings\Text Events List.txt"
        CFGEDITVIEW -605.860027 82.395269 0 12 0 0 0
        CFGEDIT 1 1 0 1 1 1 1 1 1 1 1 0.06250000 -8 -8 1374 736 1 2 1 2 0.00000000 0 0 0 0 0.500000 1 0 1.000000 64
        KEYSNAP 0 0 "102034050607" 0 "Major"
        EVTFILTER 0 -1 -1 -1 -1 0 1 0 0 -1.00000000 -1.00000000
      >
    >
    <ITEM
      POSITION 0.00000000000000
      SNAPOFFS 0.00000000000000
      LENGTH 204.57948757262312
      LOOP 0
      ALLTAKES 0
      SEL 0
      FADEIN 1 0.000000 0.000000 1 0
      FADEOUT 1 0.000000 0.000000 1 0
      MUTE 0
      IGUID {DA514BF3-AF34-46C0-BD23-58406C871A44}
      IID 16
      NAME "PART REAL _KEYS_H"
      VOLPAN 1.000000 0.000000 1.000000 -1.000000
      SOFFS 0.00000000000000 0.00000000000000
      PLAYRATE 1.00000000000000 1 0.00000000000000 -65536
      CHANMODE 0
      GUID {8E0AC36B-D538-4BB8-A507-FFF40527D1BA}
      <SOURCE MIDI
        HASDATA 1 480 QN
        POOLEDEVTS {3E8B8EF8-5D7D-4AFF-BF54-77A3589DA9AA}
        <X 0 0
          /wNQQVJUIFJFQUxfS0VZU19I
        >
        E 0 90 09 60
        E 480 80 09 00
        E 3360 90 39 60
        E 360 80 39 00
        E 176281 b0 7b 00
        GUID {53F487B1-1F2F-4D54-9DAE-BC2E7B032E3B}
        IGNTEMPO 0 120.00000000 4 4
        SRCCOLOR 1244
        VELLANE 132 128 60
        COLORMAP "C:\Program Files\REAPER\Data\color_maps\rockband_guitarbass.png"
        TEXTSTRINGFILE "C:\Program Files\REAPER\Data\Text_Strings\Text Events List.txt"
        CFGEDITVIEW -4299.275963 82.395269 5 14 0 0 0
        CFGEDIT 1 1 0 1 1 1 1 1 1 1 1 0.12500000 -8 -8 1374 736 1 2 1 2 0.00000000 0 0 0 0 0.500000 1 0 1.000000 64
        KEYSNAP 0 0 "102034050607" 0 "Major"
        EVTFILTER 0 -1 -1 -1 -1 0 1 0 0 -1.00000000 -1.00000000
      >
    >
  >
  <TRACK '{3B6F726E-1CAB-4A00-9B01-2E1CC375B13E}'
    NAME "PART REAL_KEYS_M"
    PEAKCOL 25231232
    BEAT -1
    AUTOMODE 0
    VOLPAN 1.00000000000000 0.00000000000000 -1.00000000000000 -1.00000000000000 1.00000000000000
    MUTESOLO 1 0 0
    IPHASE 0
    ISBUS 0 0
    BUSCOMP 0 0
    SHOWINMIX 1 0.666700 0.500000 1 0.500000 -1 -1 -1
    FREEMODE 0
    SEL 0
    REC 0 0 0 0 0 0 0
    TRACKHEIGHT 0 0
    INQ 0 0 0 0.5000000000 100 0 0 100
    NCHAN 2
    FX 1
    TRACKID {3B6F726E-1CAB-4A00-9B01-2E1CC375B13E}
    PERF 0
    MIDIOUT -1
    <MIDINOTENAMES
      0 0 "C2-E3 Range"
      0 5 "F2-A3 Range"
      0 9 "A2-C4 Range"
      0 48 "C2 (Lowest Note)"
      0 72 "C4 (Highest Note)"
      0 115 "Solo Marker"
      0 126 "Glissando Marker"
      0 127 "Trill Marker"
      0 125 "----"
      0 116 "Overdrive Marker"
      0 114 "----"
      0 71 "B3"
      0 70 "Bb3"
      0 69 "A3"
      0 68 "G#3"
      0 67 "G3"
      0 66 "F#3"
      0 65 "F3"
      0 64 "E3"
      0 63 "Eb3"
      0 62 "D3"
      0 61 "C#3"
      0 60 "C3"
      0 59 "B2"
      0 58 "Bb2"
      0 57 "A2"
      0 56 "G#2"
      0 55 "G2"
      0 54 "F#2"
      0 53 "F2"
      0 52 "E2"
      0 51 "Eb2"
      0 50 "D2"
      0 49 "C#2"
      0 47 "----"
      0 7 "G2-B3 Range"
      0 4 "E2-G3 Range"
      0 2 "D2-F3 Range"
    >
    MAINSEND 1 0
    <FXCHAIN
      SHOW 0
      LASTSEL 0
      DOCKED 0
      BYPASS 0 0
      <JS "IX/MIDI_Tool II" ""
        0.000000 85.000000 127.000000 0.000000 0.000000 0.000000 100.000000 0.000000 0.000000 127.000000 0.000000 0.000000 1.000000 0.000000 0.000000 - - - - - - - - - - - - - - - - - - - - - - - - - - - - - - - - - - - - - - - - - - - - - - - - - 
      >
      FLOATPOS 0 0 0 0
      FXID {096BA8B0-BFAB-4802-A0D3-DEA88A16B5B2}
      WAK 0
      BYPASS 0 0
      <VST "VSTi: ReaSynth (Cockos)" "reasynth.dll" 0 ""
        eXNlcu9e7f4AAAAAAgAAAAEAAAAAAAAAAgAAAAAAAAA4AAAAAAAAAA==
        AAAAAO++rd4N8K3eppvEOxe30TqcxKA+c2jRPgAAAADMm4A+6WeIPQ==
        AAAAAAAAAD8AAIA/6SaxPgAAAD8AAAAAAAA=
      >
      FLOATPOS 0 0 0 0
      FXID {A5115AF9-13EF-41D8-80FF-CB81A74D6CD4}
      WAK 0
    >
    <ITEM
      POSITION 0.00000000000000
      SNAPOFFS 0.00000000000000
      LENGTH 204.57948757262312
      LOOP 0
      ALLTAKES 0
      SEL 0
      FADEIN 1 0.000000 0.000000 1 0
      FADEOUT 1 0.000000 0.000000 1 0
      MUTE 0
      IGUID {6F5DF5D5-958D-4566-AA6E-AFD27D997F3F}
      IID 17
      NAME "PART REAL_KEYS_M"
      VOLPAN 1.000000 0.000000 1.000000 -1.000000
      SOFFS 0.00000000000000 0.00000000000000
      PLAYRATE 1.00000000000000 1 0.00000000000000 -65536
      CHANMODE 0
      GUID {14BC6779-E32B-455D-A61C-C2E68D8FE08C}
      <SOURCE MIDI
        HASDATA 1 480 QN
        POOLEDEVTS {F7AC331F-C70B-4843-AB25-28F7848BBEEC}
        <X 0 0
          /wNQQVJUIFJFQUxfS0VZU19N
        >
        e 0 90 09 60
        e 480 80 09 00
        e 3360 90 39 60
        e 360 80 39 00
        E 176281 b0 7b 00
        GUID {806139BE-556B-4882-A297-06705078FD7A}
        IGNTEMPO 0 120.00000000 4 4
        SRCCOLOR 1245
        VELLANE 132 128 60
        COLORMAP "C:\Program Files\REAPER\Data\color_maps\rockband_guitarbass.png"
        TEXTSTRINGFILE "C:\Program Files\REAPER\Data\Text_Strings\Text Events List.txt"
        CFGEDITVIEW -4299.275963 82.395269 0 17 0 0 0
        CFGEDIT 1 1 0 1 1 1 1 1 1 1 1 0.12500000 -8 -8 1374 736 1 2 1 2 0.00000000 0 0 0 0 0.500000 1 0 1.000000 64
        KEYSNAP 0 0 "102034050607" 0 "Major"
        EVTFILTER 0 -1 -1 -1 -1 0 1 0 0 -1.00000000 -1.00000000
      >
    >
  >
  <TRACK '{49B8D0E0-0069-415C-8FC3-AC29B0E2C3CF}'
    NAME "PART REAL_KEYS_E"
    PEAKCOL 25231232
    BEAT -1
    AUTOMODE 0
    VOLPAN 1.00000000000000 0.00000000000000 -1.00000000000000 -1.00000000000000 1.00000000000000
    MUTESOLO 1 0 0
    IPHASE 0
    ISBUS 0 0
    BUSCOMP 0 0
    SHOWINMIX 1 0.666700 0.500000 1 0.500000 -1 -1 -1
    FREEMODE 0
    SEL 0
    REC 0 0 0 0 0 0 0
    TRACKHEIGHT 0 0
    INQ 0 0 0 0.5000000000 100 0 0 100
    NCHAN 2
    FX 1
    TRACKID {49B8D0E0-0069-415C-8FC3-AC29B0E2C3CF}
    PERF 0
    MIDIOUT -1
    <MIDINOTENAMES
      0 0 "C2-E3 Range"
      0 5 "F2-A3 Range"
      0 9 "A2-C4 Range"
      0 48 "C2 (Lowest Note)"
      0 72 "C4 (Highest Note)"
      0 115 "Solo Marker"
      0 126 "Glissando Marker"
      0 127 "Trill Marker"
      0 125 "----"
      0 116 "Overdrive Marker"
      0 114 "----"
      0 71 "B3"
      0 70 "Bb3"
      0 69 "A3"
      0 68 "G#3"
      0 67 "G3"
      0 66 "F#3"
      0 65 "F3"
      0 64 "E3"
      0 63 "Eb3"
      0 62 "D3"
      0 61 "C#3"
      0 60 "C3"
      0 59 "B2"
      0 58 "Bb2"
      0 57 "A2"
      0 56 "G#2"
      0 55 "G2"
      0 54 "F#2"
      0 53 "F2"
      0 52 "E2"
      0 51 "Eb2"
      0 50 "D2"
      0 49 "C#2"
      0 47 "----"
      0 7 "G2-B3 Range"
      0 4 "E2-G3 Range"
      0 2 "D2-F3 Range"
    >
    MAINSEND 1 0
    <FXCHAIN
      SHOW 0
      LASTSEL 0
      DOCKED 0
      BYPASS 0 0
      <JS "IX/MIDI_Tool II" ""
        0.000000 85.000000 127.000000 0.000000 0.000000 0.000000 100.000000 0.000000 0.000000 127.000000 0.000000 0.000000 1.000000 0.000000 0.000000 - - - - - - - - - - - - - - - - - - - - - - - - - - - - - - - - - - - - - - - - - - - - - - - - - 
      >
      FLOATPOS 0 0 0 0
      FXID {71EF04AA-9A38-4C4E-8E04-9FB37BDA6361}
      WAK 0
      BYPASS 0 0
      <VST "VSTi: ReaSynth (Cockos)" "reasynth.dll" 0 ""
        eXNlcu9e7f4AAAAAAgAAAAEAAAAAAAAAAgAAAAAAAAA4AAAAAAAAAA==
        AAAAAO++rd4N8K3eppvEOxe30TqcxKA+c2jRPgAAAADMm4A+6WeIPQ==
        AAAAAAAAAD8AAIA/6SaxPgAAAD8AAAAAAAA=
      >
      FLOATPOS 0 0 0 0
      FXID {6C388847-2A2F-4264-AA7A-4C4ACA9A9672}
      WAK 0
    >
    <ITEM
      POSITION 0.00000000000000
      SNAPOFFS 0.00000000000000
      LENGTH 204.57948757262312
      LOOP 0
      ALLTAKES 0
      SEL 0
      FADEIN 1 0.000000 0.000000 1 0
      FADEOUT 1 0.000000 0.000000 1 0
      MUTE 0
      IGUID {656317AD-B690-4307-9096-C4F4536C131B}
      IID 18
      NAME "PART REAL_KEYS_E"
      VOLPAN 1.000000 0.000000 1.000000 -1.000000
      SOFFS 0.00000000000000 0.00000000000000
      PLAYRATE 1.00000000000000 1 0.00000000000000 -65536
      CHANMODE 0
      GUID {43BDFFBF-75D6-4727-BD3F-08B25C56980C}
      <SOURCE MIDI
        HASDATA 1 480 QN
        POOLEDEVTS {A1E3CB14-E141-4AFA-B990-700B4A5DBE43}
        <X 0 0
          /wNQQVJUIFJFQUxfS0VZU19F
        >
        E 0 90 09 60
        E 480 80 09 00
        E 180001 b0 7b 00
        GUID {F9363449-15E8-4EF0-8BC0-ABEB4CDC1D98}
        IGNTEMPO 0 120.00000000 4 4
        SRCCOLOR 1246
        VELLANE 132 128 60
        COLORMAP "C:\Program Files\REAPER\Data\color_maps\rockband_guitarbass.png"
        TEXTSTRINGFILE "C:\Program Files\REAPER\Data\Text_Strings\Text Events List.txt"
        CFGEDITVIEW 1257.930012 0.103438 51 12 0 0 0
        CFGEDIT 1 1 0 0 1 1 1 1 1 1 1 0.25000000 0 0 683 728 1 0 0 2 0.12500000 0 0 0 0 0.500000 0 0 1.000000 64
        KEYSNAP 0 0 "102034050607" 0 "Major"
        EVTFILTER 0 -1 -1 -1 -1 0 1 0 0 -1.00000000 -1.00000000
      >
    >
  >
  <TRACK '{80604035-2BD9-43BB-A255-4E5F9E756779}'
    NAME "PART KEYS_ANIM_RH"
    PEAKCOL 16842624
    BEAT -1
    AUTOMODE 0
    VOLPAN 1.00000000000000 0.00000000000000 -1.00000000000000 -1.00000000000000 1.00000000000000
    MUTESOLO 1 0 0
    IPHASE 0
    ISBUS 0 0
    BUSCOMP 0 0
    SHOWINMIX 1 0.666700 0.500000 1 0.500000 -1 -1 -1
    FREEMODE 0
    SEL 0
    REC 0 0 0 0 0 0 0
    TRACKHEIGHT 0 0
    INQ 0 0 0 0.5000000000 100 0 0 100
    NCHAN 2
    FX 1
    TRACKID {80604035-2BD9-43BB-A255-4E5F9E756779}
    PERF 0
    MIDIOUT -1
    <MIDINOTENAMES
      0 48 "C2 (Lowest Note)"
      0 72 "C4 (Highest Note)"
      0 127 "Trill Marker"
      0 126 "Glissando Marker"
      0 125 "----"
      0 116 "Overdrive Marker"
      0 115 "Solo Marker"
      0 114 "----"
      0 71 "B3"
      0 70 "Bb3"
      0 69 "A3"
      0 68 "G#3"
      0 67 "G3"
      0 66 "F#3"
      0 65 "F3"
      0 64 "E3"
      0 63 "Eb3"
      0 62 "D3"
      0 61 "C#3"
      0 60 "C3"
      0 59 "B2"
      0 58 "Bb2"
      0 57 "A2"
      0 56 "G#2"
      0 55 "G2"
      0 54 "F#2"
      0 53 "F2"
      0 52 "E2"
      0 51 "Eb2"
      0 50 "D2"
      0 49 "C#2"
      0 47 "----"
      0 9 "A2-C4 Range"
      0 5 "F2-A3 Range"
      0 0 "C2-E3 Range"
      0 7 "G2-B3 Range"
      0 4 "E2-G3 Range"
      0 2 "D2-F3 Range"
    >
    MAINSEND 1 0
    <FXCHAIN
      SHOW 0
      LASTSEL 0
      DOCKED 0
    >
    <ITEM
      POSITION 0.00000000000000
      SNAPOFFS 0.00000000000000
      LENGTH 204.57948757262312
      LOOP 0
      ALLTAKES 0
      SEL 0
      FADEIN 1 0.000000 0.000000 1 0
      FADEOUT 1 0.000000 0.000000 1 0
      MUTE 0
      IGUID {6A43A4E9-6390-4FBA-9F07-B2C821A1720C}
      IID 19
      NAME "PART KEYS_ANIM_RH"
      VOLPAN 1.000000 0.000000 1.000000 -1.000000
      SOFFS 0.00000000000000 0.00000000000000
      PLAYRATE 1.00000000000000 1 0.00000000000000 -65536
      CHANMODE 0
      GUID {FA5AE238-E1D7-41F5-A663-4C49E4376041}
      <SOURCE MIDI
        HASDATA 1 480 QN
        POOLEDEVTS {5E1EB5CA-999A-40B1-A4F7-A879D3E24A0B}
        <X 0 0
          /wNQQVJUIEtFWVNfQU5JTV9SSA==
        >
        E 180481 b0 7b 00
        GUID {268DE88D-9169-44F5-97A1-ABDA1E2CF031}
        IGNTEMPO 0 120.00000000 4 4
        SRCCOLOR 1247
        VELLANE 132 128 60
        COLORMAP "C:\Program Files\REAPER\Data\color_maps\rockband_guitarbass.png"
        TEXTSTRINGFILE "C:\Program Files\REAPER\Data\Text_Strings\Text Events List.txt"
        CFGEDITVIEW 2612.554938 0.179136 51 12 0 0 0
        CFGEDIT 1 1 0 0 1 1 1 1 1 1 1 0.25000000 0 0 683 728 1 0 0 2 0.00000000 0 0 0 0 0.500000 0 0 1.000000 64
        KEYSNAP 0 0 "102034050607" 0 "Major"
        EVTFILTER 0 -1 -1 -1 -1 0 1 0 0 -1.00000000 -1.00000000
      >
    >
  >
  <TRACK '{F014911F-41F0-491C-9A25-C3D2A462D8D7}'
    NAME "PART KEYS_ANIM_LH"
    PEAKCOL 16842624
    BEAT -1
    AUTOMODE 0
    VOLPAN 1.00000000000000 0.00000000000000 -1.00000000000000 -1.00000000000000 1.00000000000000
    MUTESOLO 1 0 0
    IPHASE 0
    ISBUS 2 -1
    BUSCOMP 0 0
    SHOWINMIX 1 0.666700 0.500000 1 0.500000 -1 -1 -1
    FREEMODE 0
    SEL 0
    REC 0 0 0 0 0 0 0
    TRACKHEIGHT 0 0
    INQ 0 0 0 0.5000000000 100 0 0 100
    NCHAN 2
    FX 1
    TRACKID {F014911F-41F0-491C-9A25-C3D2A462D8D7}
    PERF 0
    MIDIOUT -1
    <MIDINOTENAMES
      0 48 "C2 (Lowest Note)"
      0 72 "C4 (Highest Note)"
      0 127 "Trill Marker"
      0 126 "Glissando Marker"
      0 125 "----"
      0 116 "Overdrive Marker"
      0 115 "Solo Marker"
      0 114 "----"
      0 71 "B3"
      0 70 "Bb3"
      0 69 "A3"
      0 68 "G#3"
      0 67 "G3"
      0 66 "F#3"
      0 65 "F3"
      0 64 "E3"
      0 63 "Eb3"
      0 62 "D3"
      0 61 "C#3"
      0 60 "C3"
      0 59 "B2"
      0 58 "Bb2"
      0 57 "A2"
      0 56 "G#2"
      0 55 "G2"
      0 54 "F#2"
      0 53 "F2"
      0 52 "E2"
      0 51 "Eb2"
      0 50 "D2"
      0 49 "C#2"
      0 47 "----"
      0 9 "A2-C4 Range"
      0 5 "F2-A3 Range"
      0 0 "C2-E3 Range"
      0 7 "G2-B3 Range"
      0 4 "E2-G3 Range"
      0 2 "D2-F3 Range"
    >
    MAINSEND 1 0
    <FXCHAIN
      SHOW 0
      LASTSEL 0
      DOCKED 0
    >
    <ITEM
      POSITION 0.00000000000000
      SNAPOFFS 0.00000000000000
      LENGTH 204.57948757262312
      LOOP 0
      ALLTAKES 0
      SEL 0
      FADEIN 1 0.000000 0.000000 1 0
      FADEOUT 1 0.000000 0.000000 1 0
      MUTE 0
      IGUID {F0F97A68-91AD-4B41-8D32-822B6159FDBC}
      IID 20
      NAME "PART KEYS_ANIM_LH"
      VOLPAN 1.000000 0.000000 1.000000 -1.000000
      SOFFS 0.00000000000000 0.00000000000000
      PLAYRATE 1.00000000000000 1 0.00000000000000 -65536
      CHANMODE 0
      GUID {214023C3-6BA4-450F-A73F-59780553B94C}
      <SOURCE MIDI
        HASDATA 1 480 QN
        POOLEDEVTS {B7F12661-5084-448D-823B-5BF19E486C7A}
        <X 0 0
          /wNQQVJUIEtFWVNfQU5JTV9MSA==
        >
        E 180481 b0 7b 00
        GUID {9527D45A-14D5-4C89-A39E-3528B0F29941}
        IGNTEMPO 0 120.00000000 4 4
        SRCCOLOR 1248
        VELLANE 132 128 60
        COLORMAP "C:\Program Files\REAPER\Data\color_maps\rockband_guitarbass.png"
        TEXTSTRINGFILE "C:\Program Files\REAPER\Data\Text_Strings\Text Events List.txt"
        CFGEDITVIEW -4299.275963 82.395269 11 17 0 0 0
        CFGEDIT 1 1 0 1 1 1 1 1 1 1 1 0.12500000 -8 -8 1374 736 1 2 1 2 0.00000000 0 0 0 0 0.500000 1 0 1.000000 64
        KEYSNAP 0 0 "102034050607" 0 "Major"
        EVTFILTER 0 -1 -1 -1 -1 0 1 0 0 -1.00000000 -1.00000000
      >
    >
  >
  <TRACK '{4BCC1CF3-63A3-43C4-A155-D3593AD88A10}'
    NAME "EVENTS"
    PEAKCOL 29393024
    BEAT -1
    AUTOMODE 0
    VOLPAN 1.00000000000000 0.00000000000000 -1.00000000000000 -1.00000000000000 1.00000000000000
    MUTESOLO 0 0 0
    IPHASE 0
    ISBUS 0 0
    BUSCOMP 0 0
    SHOWINMIX 1 0.666700 0.500000 1 0.500000 -1 -1 -1
    FREEMODE 0
    SEL 0
    REC 0 0 0 0 0 0 0
    TRACKHEIGHT 0 0
    INQ 0 0 0 0.5000000000 100 0 0 100
    NCHAN 2
    FX 1
    TRACKID {4BCC1CF3-63A3-43C4-A155-D3593AD88A10}
    PERF 0
    MIDIOUT -1
    MAINSEND 1 0
    <FXCHAIN
      SHOW 0
      LASTSEL 0
      DOCKED 0
    >
    <ITEM
      POSITION 0.00000000000000
      SNAPOFFS 0.00000000000000
      LENGTH 204.57948757262312
      LOOP 0
      ALLTAKES 0
      SEL 0
      FADEIN 1 0.000000 0.000000 1 0
      FADEOUT 1 0.000000 0.000000 1 0
      MUTE 0
      IGUID {86A06D27-867C-4398-9CE6-8F0526B3B594}
      IID 21
      NAME "EVENTS"
      VOLPAN 1.000000 0.000000 1.000000 -1.000000
      SOFFS 0.00000000000000 0.00000000000000
      PLAYRATE 1.00000000000000 1 0.00000000000000 -65536
      CHANMODE 0
      GUID {584C8192-4FF3-4E29-8138-2E6BD568B61A}
      <SOURCE MIDI
        HASDATA 1 480 QN
        POOLEDEVTS {0B0E5650-19FC-41F7-96B6-1DF50935710B}
        <X 0 0
          /wNFVkVOVFM=
        >
        <X 0 0
          /wFbY3Jvd2Rfbm9ybWFsXQ==
        >
        <X 0 0
          /wFbcHJjX2ludHJvXQ==
        >
        <X 3840 0
          /wFbbXVzaWNfc3RhcnRd
        >
        <X 14880 0
          /wFbcHJjX3ZlcnNlXzFhXQ==
        >
        <X 15360 0
          /wFbcHJjX3ZlcnNlXzFiXQ==
        >
        <X 23040 0
          /wFbcHJjX2JyaWRnZV9hXQ==
        >
        <X 7680 0
          /wFbcHJjX3ZlcnNlXzJhXQ==
        >
        <X 23040 0
          /wFbcHJjX3ZlcnNlXzJiXQ==
        >
        <X 15360 0
          /wFbcHJjX2Nob3J1c18xYV0=
        >
        <X 10080 0
          /wFbcHJjX2d0cl9zb2xvXQ==
        >
        <X 8160 0
          /wFbcHJjX3ZlcnNlXzNhXQ==
        >
        <X 15360 0
          /wFbcHJjX3ZlcnNlXzNiXQ==
        >
        <X 2400 0
          /wFbcHJjX3ZlcnNlXzNjXQ==
        >
        <X 5760 0
          /wFbcHJjX2Nob3J1c18yYV0=
        >
        <X 6720 0
          /wFbcHJjX291dHJvXQ==
        >
        <X 4320 0
          /wFbbXVzaWNfZW5kXQ==
        >
        <X 3360 0
          /wFbZW5kXQ==
        >
        E 21121 b0 7b 00
        GUID {40AD7956-A22A-434A-8513-4D3792B9DF69}
        IGNTEMPO 0 120.00000000 4 4
        SRCCOLOR 1249
        VELLANE 132 100 100
        COLORMAP "M:\RGS Documents\ColorMaps\rockband_vox-other.png"
        TEXTSTRINGFILE "Text Events List.txt"
        CFGEDITVIEW 78285.893178 161.117707 2 48 0 0 0
        CFGEDIT 1 1 0 0 0 1 1 1 1 1 1 1.00000000 44 63 1223 847 1 2 1 2 0.00000000 0 0 0 0 0.500000 1 0 1.000000 64
        KEYSNAP 0 0 "102034050607" 0 "Major"
        EVTFILTER 0 -1 -1 -1 -1 0 1 0 0 -1.00000000 -1.00000000
      >
    >
  >
  <TRACK '{1529008F-97D2-43EB-8634-7C5A7418AD90}'
    NAME "VENUE"
    PEAKCOL 16842496
    BEAT -1
    AUTOMODE 0
    VOLPAN 1.00000000000000 0.00000000000000 -1.00000000000000 -1.00000000000000 1.00000000000000
    MUTESOLO 0 0 0
    IPHASE 0
    ISBUS 0 0
    BUSCOMP 0 0
    SHOWINMIX 1 0.666700 0.500000 1 0.500000 -1 -1 -1
    FREEMODE 0
    SEL 0
    REC 0 0 0 0 0 0 0
    TRACKHEIGHT 0 0
    INQ 0 0 0 0.5000000000 100 0 0 100
    NCHAN 2
    FX 1
    TRACKID {1529008F-97D2-43EB-8634-7C5A7418AD90}
    PERF 0
    MIDIOUT -1
    <MIDINOTENAMES
      0 87 "Guitarist Sing Along"
      0 86 "Drummer Sing Along"
      0 85 "Bassist Sing Along"
      0 40 "Spotlight on Vocals"
      0 39 "Spotlight on Guitar"
      0 38 "Spotlight on Drums"
      0 37 "Spotlight on Bass"
      0 41 "Spotlight on Keys"
    >
    MAINSEND 1 0
    <FXCHAIN
      SHOW 0
      LASTSEL 0
      DOCKED 0
    >
    <ITEM
      POSITION 0.00000000000000
      SNAPOFFS 0.00000000000000
      LENGTH 204.57948757262312
      LOOP 0
      ALLTAKES 0
      SEL 0
      FADEIN 1 0.000000 0.000000 1 0
      FADEOUT 1 0.000000 0.000000 1 0
      MUTE 0
      IGUID {71027329-E0AB-447D-A192-4839733334E7}
      IID 22
      NAME "VENUE"
      VOLPAN 1.000000 0.000000 1.000000 -1.000000
      SOFFS 0.00000000000000 0.00000000000000
      PLAYRATE 1.00000000000000 1 0.00000000000000 -65536
      CHANMODE 0
      GUID {44F0FFD1-5109-4A47-8BED-262AA04D3B23}
      <SOURCE MIDI
        HASDATA 1 480 QN
        POOLEDEVTS {EF5E1D6D-7B5F-4764-A9ED-58308C63EAA1}
        <X 0 0
          /wNWRU5VRQ==
        >
        E 180481 b0 7b 00
        GUID {30097062-47C5-4B33-B665-170EF09D70D9}
        IGNTEMPO 0 120.00000000 4 4
        SRCCOLOR 1250
        VELLANE 132 230 230
        COLORMAP "M:\RGS Documents\ColorMaps\rockband_vox-other.png"
        TEXTSTRINGFILE "Text Events List.txt"
        CFGEDITVIEW 53273.894224 29.827429 79 12 0 0 0
        CFGEDIT 1 1 0 0 1 1 1 1 1 1 1 0.25000000 133 19 1300 803 1 0 1 2 0.00000000 0 0 0 0 0.500000 1 0 1.000000 64
        KEYSNAP 0 0 "102034050607" 0 "Major"
        EVTFILTER 0 -1 -1 -1 -1 0 1 0 0 -1.00000000 -1.00000000
      >
    >
  >
  <TRACK '{7BC63EFC-0ABC-4D0D-8204-E9893AE9FFFA}'
    NAME "BEAT"
    PEAKCOL 23514346
    BEAT -1
    AUTOMODE 0
    VOLPAN 1.00000000000000 0.00000000000000 -1.00000000000000 -1.00000000000000 1.00000000000000
    MUTESOLO 0 0 0
    IPHASE 0
    ISBUS 0 0
    BUSCOMP 1 0
    SHOWINMIX 1 0.666700 0.500000 1 0.500000 -1 -1 -1
    FREEMODE 0
    SEL 0
    REC 0 0 0 0 0 0 0
    TRACKHEIGHT 0 0
    INQ 0 0 0 0.5000000000 100 0 0 100
    NCHAN 2
    FX 1
    TRACKID {7BC63EFC-0ABC-4D0D-8204-E9893AE9FFFA}
    PERF 0
    MIDIOUT -1
    <MIDINOTENAMES
      0 12 "Downbeat"
      0 13 "Up Beats"
    >
    MAINSEND 1 0
    <FXCHAIN
      SHOW 0
      LASTSEL 0
      DOCKED 0
    >
    <ITEM
      POSITION 0.00000000000000
      SNAPOFFS 0.00000000000000
      LENGTH 204.57948757262312
      LOOP 0
      ALLTAKES 0
      SEL 0
      FADEIN 1 0.000000 0.000000 1 0
      FADEOUT 1 0.000000 0.000000 1 0
      MUTE 0
      IGUID {9960CDFD-BF2E-4E67-97CD-4F13D0A3F2ED}
      IID 23
      NAME "BEAT"
      VOLPAN 1.000000 0.000000 1.000000 -1.000000
      SOFFS 0.00000000000000 0.00000000000000
      PLAYRATE 1.00000000000000 1 0.00000000000000 -65536
      CHANMODE 0
      GUID {CEBFDCF1-B2BD-47E1-A085-C26E1C9E9ED2}
      <SOURCE MIDI
        HASDATA 1 480 QN
        POOLEDEVTS {99F628D7-756A-4BE3-BFF9-D09B79B32315}
        <X 0 0
          /wNCRUFU
        >
        e 0 96 0c 64
        e 120 86 0c 00
        e 360 96 0d 64
        e 120 86 0d 00
        e 360 96 0d 64
        e 120 86 0d 00
        e 360 96 0d 64
        e 120 86 0d 00
        e 360 96 0c 64
        e 120 86 0c 00
        e 360 96 0d 64
        e 120 86 0d 00
        e 360 96 0d 64
        e 120 86 0d 00
        e 360 96 0d 64
        e 120 86 0d 00
        e 360 96 0c 64
        e 120 86 0c 00
        e 360 96 0d 64
        e 120 86 0d 00
        e 360 96 0d 64
        e 120 86 0d 00
        e 360 96 0d 64
        e 120 86 0d 00
        e 360 96 0c 64
        e 120 86 0c 00
        e 360 96 0d 64
        e 120 86 0d 00
        e 360 96 0d 64
        e 120 86 0d 00
        e 360 96 0d 64
        e 120 86 0d 00
        e 360 96 0c 64
        e 120 86 0c 00
        e 360 96 0d 64
        e 120 86 0d 00
        e 360 96 0d 64
        e 120 86 0d 00
        e 360 96 0d 64
        e 120 86 0d 00
        e 360 96 0c 64
        e 120 86 0c 00
        e 360 96 0d 64
        e 120 86 0d 00
        e 360 96 0d 64
        e 120 86 0d 00
        e 360 96 0d 64
        e 120 86 0d 00
        e 360 96 0c 64
        e 120 86 0c 00
        e 360 96 0d 64
        e 120 86 0d 00
        e 360 96 0d 64
        e 120 86 0d 00
        e 360 96 0d 64
        e 120 86 0d 00
        e 360 96 0c 64
        e 120 86 0c 00
        e 360 96 0d 64
        e 120 86 0d 00
        e 360 96 0d 64
        e 120 86 0d 00
        e 360 96 0d 64
        e 120 86 0d 00
        e 360 96 0c 64
        e 120 86 0c 00
        e 360 96 0d 64
        e 120 86 0d 00
        e 360 96 0d 64
        e 120 86 0d 00
        e 360 96 0d 64
        e 120 86 0d 00
        e 360 96 0c 64
        e 120 86 0c 00
        e 360 96 0d 64
        e 120 86 0d 00
        e 360 96 0d 64
        e 120 86 0d 00
        e 360 96 0d 64
        e 120 86 0d 00
        e 360 96 0c 64
        e 120 86 0c 00
        e 360 96 0d 64
        e 120 86 0d 00
        e 360 96 0d 64
        e 120 86 0d 00
        e 360 96 0d 64
        e 120 86 0d 00
        e 360 96 0c 64
        e 120 86 0c 00
        e 360 96 0d 64
        e 120 86 0d 00
        e 360 96 0d 64
        e 120 86 0d 00
        e 360 96 0d 64
        e 120 86 0d 00
        e 360 96 0c 64
        e 120 86 0c 00
        e 360 96 0d 64
        e 120 86 0d 00
        e 360 96 0d 64
        e 120 86 0d 00
        e 360 96 0d 64
        e 120 86 0d 00
        e 360 96 0c 64
        e 120 86 0c 00
        e 360 96 0d 64
        e 120 86 0d 00
        e 360 96 0d 64
        e 120 86 0d 00
        e 360 96 0d 64
        e 120 86 0d 00
        e 360 96 0c 64
        e 120 86 0c 00
        e 360 96 0d 64
        e 120 86 0d 00
        e 360 96 0d 64
        e 120 86 0d 00
        e 360 96 0d 64
        e 120 86 0d 00
        e 360 96 0c 64
        e 120 86 0c 00
        e 360 96 0d 64
        e 120 86 0d 00
        e 360 96 0d 64
        e 120 86 0d 00
        e 360 96 0d 64
        e 120 86 0d 00
        e 360 96 0c 64
        e 120 86 0c 00
        e 360 96 0d 64
        e 120 86 0d 00
        e 360 96 0d 64
        e 120 86 0d 00
        e 360 96 0d 64
        e 120 86 0d 00
        e 360 96 0c 64
        e 120 86 0c 00
        e 360 96 0d 64
        e 120 86 0d 00
        e 360 96 0d 64
        e 120 86 0d 00
        e 360 96 0d 64
        e 120 86 0d 00
        e 360 96 0c 64
        e 120 86 0c 00
        e 360 96 0d 64
        e 120 86 0d 00
        e 360 96 0d 64
        e 120 86 0d 00
        e 360 96 0d 64
        e 120 86 0d 00
        e 360 96 0c 64
        e 120 86 0c 00
        e 360 96 0d 64
        e 120 86 0d 00
        e 360 96 0d 64
        e 120 86 0d 00
        e 360 96 0d 64
        e 120 86 0d 00
        e 360 96 0c 64
        e 120 86 0c 00
        e 360 96 0d 64
        e 120 86 0d 00
        e 360 96 0d 64
        e 120 86 0d 00
        e 360 96 0d 64
        e 120 86 0d 00
        e 360 96 0c 64
        e 120 86 0c 00
        e 360 96 0d 64
        e 120 86 0d 00
        e 360 96 0d 64
        e 120 86 0d 00
        e 360 96 0d 64
        e 120 86 0d 00
        e 360 96 0c 64
        e 120 86 0c 00
        e 360 96 0d 64
        e 120 86 0d 00
        e 360 96 0d 64
        e 120 86 0d 00
        e 360 96 0d 64
        e 120 86 0d 00
        e 360 96 0c 64
        e 120 86 0c 00
        e 360 96 0d 64
        e 120 86 0d 00
        e 360 96 0d 64
        e 120 86 0d 00
        e 360 96 0d 64
        e 120 86 0d 00
        e 360 96 0c 64
        e 120 86 0c 00
        e 360 96 0d 64
        e 120 86 0d 00
        e 360 96 0d 64
        e 120 86 0d 00
        e 360 96 0d 64
        e 120 86 0d 00
        e 360 96 0c 64
        e 120 86 0c 00
        e 360 96 0d 64
        e 120 86 0d 00
        e 360 96 0d 64
        e 120 86 0d 00
        e 360 96 0d 64
        e 120 86 0d 00
        e 360 96 0c 64
        e 120 86 0c 00
        e 360 96 0d 64
        e 120 86 0d 00
        e 360 96 0d 64
        e 120 86 0d 00
        e 360 96 0d 64
        e 120 86 0d 00
        e 360 96 0c 64
        e 120 86 0c 00
        e 360 96 0d 64
        e 120 86 0d 00
        e 360 96 0d 64
        e 120 86 0d 00
        e 360 96 0d 64
        e 120 86 0d 00
        e 360 96 0c 64
        e 120 86 0c 00
        e 360 96 0d 64
        e 120 86 0d 00
        e 360 96 0d 64
        e 120 86 0d 00
        e 360 96 0d 64
        e 120 86 0d 00
        e 360 96 0c 64
        e 120 86 0c 00
        e 360 96 0d 64
        e 120 86 0d 00
        e 360 96 0d 64
        e 120 86 0d 00
        e 360 96 0d 64
        e 120 86 0d 00
        e 360 96 0c 64
        e 120 86 0c 00
        e 360 96 0d 64
        e 120 86 0d 00
        e 360 96 0d 64
        e 120 86 0d 00
        e 360 96 0d 64
        e 120 86 0d 00
        e 360 96 0c 64
        e 120 86 0c 00
        e 360 96 0d 64
        e 120 86 0d 00
        e 360 96 0d 64
        e 120 86 0d 00
        e 360 96 0d 64
        e 120 86 0d 00
        e 360 96 0c 64
        e 120 86 0c 00
        e 360 96 0d 64
        e 120 86 0d 00
        e 360 96 0d 64
        e 120 86 0d 00
        e 360 96 0d 64
        e 120 86 0d 00
        e 360 96 0c 64
        e 120 86 0c 00
        e 360 96 0d 64
        e 120 86 0d 00
        e 360 96 0d 64
        e 120 86 0d 00
        e 360 96 0d 64
        e 120 86 0d 00
        e 360 96 0c 64
        e 120 86 0c 00
        e 360 96 0d 64
        e 120 86 0d 00
        e 360 96 0d 64
        e 120 86 0d 00
        e 360 96 0d 64
        e 120 86 0d 00
        e 360 96 0c 64
        e 120 86 0c 00
        e 360 96 0d 64
        e 120 86 0d 00
        e 360 96 0d 64
        e 120 86 0d 00
        e 360 96 0d 64
        e 120 86 0d 00
        e 360 96 0c 64
        e 120 86 0c 00
        e 360 96 0d 64
        e 120 86 0d 00
        e 360 96 0d 64
        e 120 86 0d 00
        e 360 96 0d 64
        e 120 86 0d 00
        e 360 96 0c 64
        e 120 86 0c 00
        e 360 96 0d 64
        e 120 86 0d 00
        e 360 96 0d 64
        e 120 86 0d 00
        e 360 96 0d 64
        e 120 86 0d 00
        e 360 96 0c 64
        e 120 86 0c 00
        e 360 96 0d 64
        e 120 86 0d 00
        e 360 96 0d 64
        e 120 86 0d 00
        e 360 96 0d 64
        e 120 86 0d 00
        e 360 96 0c 64
        e 120 86 0c 00
        e 360 96 0d 64
        e 120 86 0d 00
        e 360 96 0d 64
        e 120 86 0d 00
        e 360 96 0d 64
        e 120 86 0d 00
        e 360 96 0c 64
        e 120 86 0c 00
        e 360 96 0d 64
        e 120 86 0d 00
        e 360 96 0d 64
        e 120 86 0d 00
        e 360 96 0d 64
        e 120 86 0d 00
        e 360 96 0c 64
        e 120 86 0c 00
        e 360 96 0d 64
        e 120 86 0d 00
        e 360 96 0d 64
        e 120 86 0d 00
        e 360 96 0d 64
        e 120 86 0d 00
        e 360 96 0c 64
        e 120 86 0c 00
        e 360 96 0d 64
        e 120 86 0d 00
        e 360 96 0d 64
        e 120 86 0d 00
        e 360 96 0d 64
        e 120 86 0d 00
        e 360 96 0c 64
        e 120 86 0c 00
        e 360 96 0d 64
        e 120 86 0d 00
        e 360 96 0d 64
        e 120 86 0d 00
        e 360 96 0d 64
        e 120 86 0d 00
        e 360 96 0c 64
        e 120 86 0c 00
        e 360 96 0d 64
        e 120 86 0d 00
        e 360 96 0d 64
        e 120 86 0d 00
        e 360 96 0d 64
        e 120 86 0d 00
        e 360 96 0c 64
        e 120 86 0c 00
        e 360 96 0d 64
        e 120 86 0d 00
        e 360 96 0d 64
        e 120 86 0d 00
        e 360 96 0d 64
        e 120 86 0d 00
        e 360 96 0c 64
        e 120 86 0c 00
        e 360 96 0d 64
        e 120 86 0d 00
        e 360 96 0d 64
        e 120 86 0d 00
        e 360 96 0d 64
        e 120 86 0d 00
        e 360 96 0c 64
        e 120 86 0c 00
        e 360 96 0d 64
        e 120 86 0d 00
        e 360 96 0d 64
        e 120 86 0d 00
        e 360 96 0d 64
        e 120 86 0d 00
        e 360 96 0c 64
        e 120 86 0c 00
        e 360 96 0d 64
        e 120 86 0d 00
        e 360 96 0d 64
        e 120 86 0d 00
        e 360 96 0d 64
        e 120 86 0d 00
        e 360 96 0c 64
        e 120 86 0c 00
        e 360 96 0d 64
        e 120 86 0d 00
        e 360 96 0d 64
        e 120 86 0d 00
        e 360 96 0d 64
        e 120 86 0d 00
        e 360 96 0c 64
        e 120 86 0c 00
        e 360 96 0d 64
        e 120 86 0d 00
        e 360 96 0d 64
        e 120 86 0d 00
        e 360 96 0d 64
        e 120 86 0d 00
        e 360 96 0c 64
        e 120 86 0c 00
        e 360 96 0d 64
        e 120 86 0d 00
        e 360 96 0d 64
        e 120 86 0d 00
        e 360 96 0d 64
        e 120 86 0d 00
        e 360 96 0c 64
        e 120 86 0c 00
        e 360 96 0d 64
        e 120 86 0d 00
        e 360 96 0d 64
        e 120 86 0d 00
        e 360 96 0d 64
        e 120 86 0d 00
        e 360 96 0c 64
        e 120 86 0c 00
        e 360 96 0d 64
        e 120 86 0d 00
        e 360 96 0d 64
        e 120 86 0d 00
        e 360 96 0d 64
        e 120 86 0d 00
        e 360 96 0c 64
        e 120 86 0c 00
        e 360 96 0d 64
        e 120 86 0d 00
        e 360 96 0d 64
        e 120 86 0d 00
        e 360 96 0d 64
        e 120 86 0d 00
        e 360 96 0c 64
        e 120 86 0c 00
        e 360 96 0d 64
        e 120 86 0d 00
        e 360 96 0d 64
        e 120 86 0d 00
        e 360 96 0d 64
        e 120 86 0d 00
        e 360 96 0c 64
        e 120 86 0c 00
        e 360 96 0d 64
        e 120 86 0d 00
        e 360 96 0d 64
        e 120 86 0d 00
        e 360 96 0d 64
        e 120 86 0d 00
        e 360 96 0c 64
        e 120 86 0c 00
        e 360 96 0d 64
        e 120 86 0d 00
        e 360 96 0d 64
        e 120 86 0d 00
        e 360 96 0d 64
        e 120 86 0d 00
        e 360 96 0c 64
        e 120 86 0c 00
        e 360 96 0d 64
        e 120 86 0d 00
        e 360 96 0d 64
        e 120 86 0d 00
        e 360 96 0d 64
        e 120 86 0d 00
        e 360 96 0c 64
        e 120 86 0c 00
        e 360 96 0d 64
        e 120 86 0d 00
        e 360 96 0d 64
        e 120 86 0d 00
        e 360 96 0d 64
        e 120 86 0d 00
        e 360 96 0c 64
        e 120 86 0c 00
        e 360 96 0d 64
        e 120 86 0d 00
        e 360 96 0d 64
        e 120 86 0d 00
        e 360 96 0d 64
        e 120 86 0d 00
        e 360 96 0c 64
        e 120 86 0c 00
        e 360 96 0d 64
        e 120 86 0d 00
        e 360 96 0d 64
        e 120 86 0d 00
        e 360 96 0d 64
        e 120 86 0d 00
        e 360 96 0c 64
        e 120 86 0c 00
        e 360 96 0d 64
        e 120 86 0d 00
        e 360 96 0d 64
        e 120 86 0d 00
        e 360 96 0d 64
        e 120 86 0d 00
        e 360 96 0c 64
        e 120 86 0c 00
        e 360 96 0d 64
        e 120 86 0d 00
        e 360 96 0d 64
        e 120 86 0d 00
        e 360 96 0d 64
        e 120 86 0d 00
        e 360 96 0c 64
        e 120 86 0c 00
        e 360 96 0d 64
        e 120 86 0d 00
        e 360 96 0d 64
        e 120 86 0d 00
        e 360 96 0d 64
        e 120 86 0d 00
        e 360 96 0c 64
        e 120 86 0c 00
        e 360 96 0d 64
        e 120 86 0d 00
        e 360 96 0d 64
        e 120 86 0d 00
        e 360 96 0d 64
        e 120 86 0d 00
        e 360 96 0c 64
        e 120 86 0c 00
        e 360 96 0d 64
        e 120 86 0d 00
        e 360 96 0d 64
        e 120 86 0d 00
        e 360 96 0d 64
        e 120 86 0d 00
        e 360 96 0c 64
        e 120 86 0c 00
        e 360 96 0d 64
        e 120 86 0d 00
        e 360 96 0d 64
        e 120 86 0d 00
        e 360 96 0d 64
        e 120 86 0d 00
        e 360 96 0c 64
        e 120 86 0c 00
        e 360 96 0d 64
        e 120 86 0d 00
        e 360 96 0d 64
        e 120 86 0d 00
        e 360 96 0d 64
        e 120 86 0d 00
        e 360 96 0c 64
        e 120 86 0c 00
        e 360 96 0d 64
        e 120 86 0d 00
        e 360 96 0d 64
        e 120 86 0d 00
        e 360 96 0d 64
        e 120 86 0d 00
        e 360 96 0c 64
        e 120 86 0c 00
        e 360 96 0d 64
        e 120 86 0d 00
        e 360 96 0d 64
        e 120 86 0d 00
        e 360 96 0d 64
        e 120 86 0d 00
        e 360 96 0c 64
        e 120 86 0c 00
        e 360 96 0d 64
        e 120 86 0d 00
        e 360 96 0d 64
        e 120 86 0d 00
        e 360 96 0d 64
        e 120 86 0d 00
        e 360 96 0c 64
        e 120 86 0c 00
        e 360 96 0d 64
        e 120 86 0d 00
        e 360 96 0d 64
        e 120 86 0d 00
        e 360 96 0d 64
        e 120 86 0d 00
        e 360 96 0c 64
        e 120 86 0c 00
        e 360 96 0d 64
        e 120 86 0d 00
        e 360 96 0d 64
        e 120 86 0d 00
        e 360 96 0d 64
        e 120 86 0d 00
        e 360 96 0c 64
        e 120 86 0c 00
        e 360 96 0d 64
        e 120 86 0d 00
        e 360 96 0d 64
        e 120 86 0d 00
        e 360 96 0d 64
        e 120 86 0d 00
        e 360 96 0c 64
        e 120 86 0c 00
        e 360 96 0d 64
        e 120 86 0d 00
        e 360 96 0d 64
        e 120 86 0d 00
        e 360 96 0d 64
        e 120 86 0d 00
        e 360 96 0c 64
        e 120 86 0c 00
        e 360 96 0d 64
        e 120 86 0d 00
        e 360 96 0d 64
        e 120 86 0d 00
        e 360 96 0d 64
        e 120 86 0d 00
        e 360 96 0c 64
        e 120 86 0c 00
        e 360 96 0d 64
        e 120 86 0d 00
        e 360 96 0d 64
        e 120 86 0d 00
        e 360 96 0d 64
        e 120 86 0d 00
        e 360 96 0c 64
        e 120 86 0c 00
        e 360 96 0d 64
        e 120 86 0d 00
        e 360 96 0d 64
        e 120 86 0d 00
        e 360 96 0d 64
        e 120 86 0d 00
        e 360 96 0c 64
        e 120 86 0c 00
        e 360 96 0d 64
        e 120 86 0d 00
        e 360 96 0d 64
        e 120 86 0d 00
        e 360 96 0d 64
        e 120 86 0d 00
        e 360 96 0c 64
        e 120 86 0c 00
        e 360 96 0d 64
        e 120 86 0d 00
        e 360 96 0d 64
        e 120 86 0d 00
        e 360 96 0d 64
        e 120 86 0d 00
        e 360 96 0c 64
        e 120 86 0c 00
        e 360 96 0d 64
        e 120 86 0d 00
        e 360 96 0d 64
        e 120 86 0d 00
        e 360 96 0d 64
        e 120 86 0d 00
        e 360 96 0c 64
        e 120 86 0c 00
        e 360 96 0d 64
        e 120 86 0d 00
        e 360 96 0d 64
        e 120 86 0d 00
        e 360 96 0d 64
        e 120 86 0d 00
        E 21481 b0 7b 00
        GUID {8CB930E8-B6A0-4CAD-825A-9F47FB66C1D0}
        IGNTEMPO 0 120.00000000 4 4
        SRCCOLOR 1251
        VELLANE 132 100 100
        COLORMAP "M:\RGS Documents\ColorMaps\rockband_vox-other.png"
        TEXTSTRINGFILE "Text Events List.txt"
        CFGEDITVIEW 78285.893178 161.117707 0 48 0 0 0
        CFGEDIT 1 1 0 0 0 1 1 1 1 1 1 1.00000000 44 63 1223 847 1 2 1 2 0.00000000 0 0 0 0 0.500000 1 0 1.000000 64
        KEYSNAP 0 0 "102034050607" 0 "Major"
        EVTFILTER 0 -1 -1 -1 -1 0 1 0 0 -1.00000000 -1.00000000
      >
    >
  >
  <TRACK '{0E2FE3F2-76C0-4A51-94D0-F118951ACC28}'
    NAME "PART REAL_GUITAR"
    PEAKCOL 16576
    BEAT -1
    AUTOMODE 0
    VOLPAN 1.00000000000000 0.00000000000000 -1.00000000000000 -1.00000000000000 1.00000000000000
    MUTESOLO 1 0 0
    IPHASE 0
    ISBUS 0 0
    BUSCOMP 0 0
    SHOWINMIX 1 0.666700 0.500000 1 0.500000 -1 -1 -1
    FREEMODE 0
    SEL 0
    REC 0 0 0 0 0 0 0
    TRACKHEIGHT 0 0
    INQ 0 0 0 0.5000000000 100 0 0 100
    NCHAN 2
    FX 1
    TRACKID {0E2FE3F2-76C0-4A51-94D0-F118951ACC28}
    PERF 0
    MIDIOUT -1
    <MIDINOTENAMES
      0 101 "EXPERT E String (HIGH)"
      0 100 "EXPERT B String"
      0 99 "EXPERT G String"
      0 98 "EXPERT D String"
      0 97 "EXPERT A String"
      0 96 "EXPERT E String (LOW)"
      0 77 "HARD E String (HIGH)"
      0 72 "HARD E String (LOW)"
      0 53 "MEDIUM E String (HIGH)"
      0 48 "MEDIUM E String (LOW)"
      0 29 "EASY E String (HIGH)"
      0 24 "EASY E String (LOW)"
      0 76 "HARD B String"
      0 75 "HARD G String"
      0 74 "HARD D String"
      0 73 "HARD A String"
      0 52 "MEDIUM B String"
      0 51 "MEDIUM G String"
      0 50 "MEDIUM D String"
      0 49 "MEDIUM A String"
      0 28 "EASY B String"
      0 27 "EASY G String"
      0 26 "EASY D String"
      0 25 "EASY A String"
      0 116 "OVERDRIVE"
      0 115 "Solo Marker"
      0 125 "BRE"
      0 120 "BRE (use all 6)"
      0 124 "BRE"
      0 123 "BRE"
      0 122 "BRE"
      0 121 "BRE"
      0 127 "Trill"
      0 126 "Tremelo"
      0 108 "Left hand position"
      0 107 "Force Chord Numbering"
      0 104 "EXPERT Arpeggio Marker"
      0 103 "EXPERT Slide Marker"
      0 102 "EXPERT Force Ho/Po"
      0 80 "HARD Arpeggio Marker"
      0 79 "HARD Slide Marker"
      0 78 "Force Ho/Po"
      0 55 "MEDIUM Slide Marker"
      0 31 "EASY Slide Marker"
      0 17 "Hide Chord Names"
      0 15 "Eb"
      0 14 "D"
      0 13 "Db"
      0 12 "C"
      0 11 "B"
      0 10 "Bb"
      0 9 "A"
      0 8 "Ab"
      0 7 "G"
      0 6 "Gb"
      0 5 "F"
      0 4 "E"
      0 105 "EXPERT Strum Direction"
      0 81 "HARD Strum Direction"
      0 56 "MEDIUM Arpeggio Marker"
      0 32 "EASY Arpeggio Marker"
      0 21 "CHORD NAMES"
      0 18 "Flat/Sharp Swap"
      0 16 "Slash Chord"
    >
    MAINSEND 1 0
    <FXCHAIN
      SHOW 0
      LASTSEL 0
      DOCKED 0
    >
    <ITEM
      POSITION 0.00000000000000
      SNAPOFFS 0.00000000000000
      LENGTH 205.12363129050073
      LOOP 0
      ALLTAKES 0
      SEL 0
      FADEIN 1 0.000000 0.000000 1 0
      FADEOUT 1 0.000000 0.000000 1 0
      MUTE 0
      IGUID {20F1321F-9ED7-4853-AD09-40B222B05CF8}
      IID 24
      NAME "PART REAL_GUITAR"
      VOLPAN 1.000000 0.000000 1.000000 -1.000000
      SOFFS 0.00000000000000 0.00000000000000
      PLAYRATE 1.00000000000000 1 0.00000000000000 -1
      CHANMODE 0
      GUID {3CDDC74F-292B-448F-83EC-680F8CEF1C9B}
      <SOURCE MIDI
        HASDATA 1 480 QN
        POOLEDEVTS {5E2FA5E8-9F6F-49A1-903D-A2B0B0562BD7}
        <X 0 0
          /wNQQVJUIFJFQUxfR1VJVEFS
        >
        E 3840 90 18 64
        E 0 90 19 64
        E 0 90 1a 64
        E 0 90 1b 64
        E 0 90 1c 64
        E 0 90 1d 64
        E 0 90 30 64
        E 0 90 31 64
        E 0 90 32 64
        E 0 90 33 64
        E 0 90 34 64
        E 0 90 35 64
        E 0 90 48 64
        E 0 90 49 64
        E 0 90 4a 64
        E 0 90 4b 64
        E 0 90 4c 64
        E 0 90 4d 64
        E 0 90 60 64
        E 0 90 61 64
        E 0 90 62 64
        E 0 90 63 64
        E 0 90 64 64
        E 0 90 65 64
        E 120 80 18 00
        E 0 80 19 00
        E 0 80 1a 00
        E 0 80 1b 00
        E 0 80 1c 00
        E 0 80 1d 00
        E 0 80 30 00
        E 0 80 31 00
        E 0 80 32 00
        E 0 80 33 00
        E 0 80 34 00
        E 0 80 35 00
        E 0 80 48 00
        E 0 80 49 00
        E 0 80 4a 00
        E 0 80 4b 00
        E 0 80 4c 00
        E 0 80 4d 00
        E 0 80 60 00
        E 0 80 61 00
        E 0 80 62 00
        E 0 80 63 00
        E 0 80 64 00
        E 0 80 65 00
        E 177000 b0 7b 00
        GUID {95EB2031-BC44-4B36-809B-F7595C07BF30}
        IGNTEMPO 0 120.00000000 4 4
        SRCCOLOR 1252
        VELLANE 132 123 128
        COLORMAP "C:\Program Files\REAPER\Data\color_maps\rockband_guitarbass.png"
        TEXTSTRINGFILE "C:\Program Files\REAPER\Data\Text_Strings\Text Events List.txt"
        CFGEDITVIEW 0.000000 0.103438 87 12 0 0 0
        CFGEDIT 1 1 0 0 0 1 1 1 1 1 1 0.25000000 0 0 683 728 1 0 0 2 0.12500000 0 1 0 0 0.500000 0 0 1.000000 64
        KEYSNAP 0 0 "102034050607" 0 "Major"
        EVTFILTER 0 -1 -1 -1 -1 0 1 0 0 -1.00000000 -1.00000000
      >
    >
  >
  <TRACK '{4048E3A2-B3FC-493C-BF0E-D7B7B9F9DFF3}'
    NAME "PART REAL_BASS"
    PEAKCOL 16576
    BEAT -1
    AUTOMODE 0
    VOLPAN 1.00000000000000 0.00000000000000 -1.00000000000000 -1.00000000000000 1.00000000000000
    MUTESOLO 1 0 0
    IPHASE 0
    ISBUS 0 0
    BUSCOMP 0 0
    SHOWINMIX 1 0.666700 0.500000 1 0.500000 -1 -1 -1
    FREEMODE 0
    SEL 0
    REC 0 0 0 0 0 0 0
    TRACKHEIGHT 0 0
    INQ 0 0 0 0.5000000000 100 0 0 100
    NCHAN 2
    FX 1
    TRACKID {4048E3A2-B3FC-493C-BF0E-D7B7B9F9DFF3}
    PERF 0
    MIDIOUT -1
    <MIDINOTENAMES
      0 99 "EXPERT G String"
      0 98 "EXPERT D String"
      0 97 "EXPERT A String"
      0 96 "EXPERT E String (LOW)"
      0 72 "HARD E String (LOW)"
      0 48 "MEDIUM E String (LOW)"
      0 24 "EASY E String (LOW)"
      0 75 "HARD G String"
      0 74 "HARD D String"
      0 73 "HARD A String"
      0 51 "MEDIUM G String"
      0 50 "MEDIUM D String"
      0 49 "MEDIUM A String"
      0 27 "EASY G String"
      0 26 "EASY D String"
      0 25 "EASY A String"
      0 116 "OVERDRIVE"
      0 115 "Solo Marker"
      0 120 "BRE (use all 6)"
      0 123 "BRE"
      0 122 "BRE"
      0 121 "BRE"
      0 127 "Trill"
      0 126 "Tremelo"
      0 125 "BRE"
      0 124 "BRE"
      0 108 "Left hand position"
      0 107 "Force Chord Numbering"
      0 104 "EXPERT Arpeggio Marker"
      0 103 "EXPERT Slide Marker"
      0 102 "EXPERT Force Ho/Po"
      0 101 "EXPERT E String (HIGH)"
      0 100 "EXPERT B String"
      0 80 "HARD Arpeggio Marker"
      0 79 "HARD Slide Marker"
      0 78 "Force Ho/Po"
      0 77 "HARD E String (HIGH)"
      0 76 "HARD B String"
      0 55 "MEDIUM Slide Marker"
      0 53 "MEDIUM E String (HIGH)"
      0 52 "MEDIUM B String"
      0 31 "EASY Slide Marker"
      0 29 "EASY E String (HIGH)"
      0 28 "EASY B String"
      0 17 "Hide Chord Names"
      0 15 "Eb"
      0 14 "D"
      0 13 "Db"
      0 12 "C"
      0 11 "B"
      0 10 "Bb"
      0 9 "A"
      0 8 "Ab"
      0 7 "G"
      0 6 "Gb"
      0 5 "F"
      0 4 "E"
      0 105 "EXPERT Strum Direction"
      0 81 "HARD Strum Direction"
      0 56 "MEDIUM Arpeggio Marker"
      0 32 "EASY Arpeggio Marker"
      0 21 "CHORD NAMES"
      0 18 "Flat/Sharp Swap"
      0 16 "Slash Chord"
    >
    MAINSEND 1 0
    <FXCHAIN
      SHOW 0
      LASTSEL 0
      DOCKED 0
    >
    <ITEM
      POSITION 0.00000000000000
      SNAPOFFS 0.00000000000000
      LENGTH 205.12363129050073
      LOOP 0
      ALLTAKES 0
      SEL 0
      FADEIN 1 0.000000 0.000000 1 0
      FADEOUT 1 0.000000 0.000000 1 0
      MUTE 0
      IGUID {20F1321F-9ED7-4853-AD09-40B222B05CF8}
      IID 25
      NAME "PART REAL_BASS"
      VOLPAN 1.000000 0.000000 1.000000 -1.000000
      SOFFS 0.00000000000000 0.00000000000000
      PLAYRATE 1.00000000000000 1 0.00000000000000 -1
      CHANMODE 0
      GUID {3CDDC74F-292B-448F-83EC-680F8CEF1C9B}
      <SOURCE MIDI
        HASDATA 1 480 QN
        POOLEDEVTS {47AECF29-C161-4633-A36A-10D8FBCAF5E6}
        <X 0 0
          /wNQQVJUIFJFQUxfQkFTUw==
        >
        E 3840 90 18 64
        E 0 90 19 64
        E 0 90 1a 64
        E 0 90 1b 64
        E 0 90 30 64
        E 0 90 31 64
        E 0 90 32 64
        E 0 90 33 64
        E 0 90 48 64
        E 0 90 49 64
        E 0 90 4a 64
        E 0 90 4b 64
        E 0 90 60 64
        E 0 90 61 64
        E 0 90 62 64
        E 0 90 63 64
        E 120 80 18 00
        E 0 80 19 00
        E 0 80 1a 00
        E 0 80 1b 00
        E 0 80 30 00
        E 0 80 31 00
        E 0 80 32 00
        E 0 80 33 00
        E 0 80 48 00
        E 0 80 49 00
        E 0 80 4a 00
        E 0 80 4b 00
        E 0 80 60 00
        E 0 80 61 00
        E 0 80 62 00
        E 0 80 63 00
        E 177000 b0 7b 00
        GUID {95EB2031-BC44-4B36-809B-F7595C07BF30}
        IGNTEMPO 0 120.00000000 4 4
        SRCCOLOR 1253
        VELLANE 132 123 128
        COLORMAP "C:\Program Files\REAPER\Data\color_maps\rockband_guitarbass.png"
        TEXTSTRINGFILE "C:\Program Files\REAPER\Data\Text_Strings\Text Events List.txt"
        CFGEDITVIEW 0.000000 0.179136 0 12 0 0 0
        CFGEDIT 1 1 0 0 0 1 1 1 1 1 1 0.25000000 0 0 683 728 1 0 0 2 0.00000000 0 1 0 0 0.500000 0 0 1.000000 64
        KEYSNAP 0 0 "102034050607" 0 "Major"
        EVTFILTER 0 -1 -1 -1 -1 0 1 0 0 -1.00000000 -1.00000000
      >
    >
  >
>
